<?xml version="1.0" encoding="utf-8"?>
<!-- Generator: Adobe Adobe Illustrator 24.2.0, SVG Export Plug-In . SVG Version: 6.00 Build 0)  -->
<svg version="1.1" xmlns="http://www.w3.org/2000/svg" xmlns:xlink="http://www.w3.org/1999/xlink" x="0px" y="0px"
	 viewBox="0 0 2000 2000" style="enable-background:new 0 0 2000 2000;" xml:space="preserve">
<style type="text/css">
	.st0{fill:#FFFFFF;}
	.st1{fill:#2E1B12;}
	.st2{fill:#F1BD56;stroke:#000000;stroke-width:7.9483;stroke-miterlimit:10;}
	.st3{fill:#F1BD56;}
	.st4{fill:#F3C057;}
	.st5{fill:#CA344E;}
	.st6{fill:#B22E45;}
	.st7{fill:#91615D;}
	.st8{fill:#F0C1A1;}
	.st9{fill:#FFFFFF;stroke:#FFFFFF;stroke-width:0.8142;stroke-miterlimit:10;}
	.st10{opacity:0.102;}
	.st11{fill:#ADBECF;}
	.st12{fill:#F7D98D;}
	.st13{fill:#AEBFCE;}
	.st14{opacity:0.2706;}
	.st15{fill:#3D4C5B;}
</style>
<g id="Ebene_24_Kopie_2">
	<g>
		<path class="st0" d="M1016.13,1868.53c-15-90.79-83.45-166.46-165.06-209.59s-175.31-57.78-267.5-63.82
			c-94.39-6.18-192.78-3.24-278.03,37.59c-103.55,49.6-173.56,147.67-238.99,241.75c315.09,53.32,639.5,51.56,953.98-5.17"/>
		<g>
			<path d="M1020.42,1864.84c-11.78-69.89-54.65-130.44-109.33-174.03c-62.12-49.51-139.23-75.52-216.68-89
				c-41.49-7.22-83.53-11.13-125.57-13.34c-41.62-2.19-83.42-2.26-124.91,2.07c-40.74,4.26-81.09,13.04-119.09,28.52
				c-35.07,14.29-67.39,34.38-96.68,58.31c-58.61,47.9-104.47,109.22-147.74,170.75c-5.41,7.69-10.79,15.41-16.16,23.13
				c-1.42,2.04-4.24,8.13,0.15,8.87c123.12,20.79,247.62,33.26,372.42,37.28c124.52,4.01,249.28-0.37,373.22-13.02
				c70.15-7.16,140.02-17.03,209.41-29.52c4.55-0.82,8.36-12.25,2.1-11.12c-123.17,22.18-247.81,36-372.85,41.3
				c-124.1,5.26-248.56,2.21-372.26-9.15c-69.58-6.39-138.9-15.44-207.79-27.08c0.05,2.96,0.1,5.91,0.15,8.87
				c42.32-60.84,85.44-122.4,140.17-172.9c26.96-24.88,56.68-46.75,89.43-63.4c36.12-18.36,75.4-29.68,115.32-36.03
				c40.41-6.42,81.48-7.8,122.33-6.7c41.1,1.1,82.29,4.19,123.04,9.71c78.48,10.62,157.65,31.97,223.81,76.99
				c56.94,38.74,104.66,94.94,123.42,162.12c2.28,8.15,4.09,16.42,5.49,24.76c0.5,2.94,3.97,1.86,5.5,0.62
				C1019.66,1870.97,1020.91,1867.75,1020.42,1864.84L1020.42,1864.84z"/>
		</g>
	</g>
	<g>
		<g>
			<path d="M516.32,1742.75c19.22-20.42,35.06-43.8,54.28-64.22c-2.18,0.52-4.36,1.04-6.55,1.56c15.76,18.4,31.53,36.8,47.29,55.21
				c3.9,4.55,11.54-6.12,8.22-10.01c-15.76-18.4-31.53-36.8-47.29-55.21c-2.05-2.4-4.95-0.14-6.55,1.56
				c-19.22,20.42-35.06,43.8-54.28,64.22c-1.7,1.8-3.5,6.2-1.67,8.44C511.79,1746.78,514.77,1744.4,516.32,1742.75L516.32,1742.75z"
				/>
		</g>
	</g>
	<g>
		<g>
			<path d="M615.55,1735.76c48.36-21.74,92.57-59.39,120.29-104.71c0.99-1.62,2.62-6.66-0.13-7.72
				c-18.69-7.23-37.37-14.47-56.06-21.7c-5.19-2.01-11.44,9.61-6.62,11.47c18.69,7.23,37.37,14.47,56.06,21.7
				c-0.04-2.57-0.09-5.15-0.13-7.72c-26.06,42.61-68.24,77.38-113.59,97.77C610.71,1726.93,608.37,1738.99,615.55,1735.76
				L615.55,1735.76z"/>
		</g>
	</g>
	<g>
		<g>
			<path d="M463.01,1593.48c-18.08,6.7-36.16,13.4-54.24,20.1c-3.45,1.28-7.04,6.02-5.72,9.91
				c17.67,52.04,55.29,96.57,104.37,121.56c4.89,2.49,11.4-9.04,6.62-11.47c-47.71-24.3-84.6-67.33-101.8-117.99
				c-1.91,3.3-3.81,6.6-5.72,9.91c18.08-6.7,36.16-13.4,54.24-20.1c2.98-1.1,5.23-3.99,5.77-7.14
				C466.88,1596.18,466.05,1592.35,463.01,1593.48L463.01,1593.48z"/>
		</g>
	</g>
	<g>
		<g>
			<path d="M559.89,1683.9c2.13,73.87,3.77,148.08-2.13,221.82c-0.24,2.98,2.58,3.93,4.87,2.81c2.95-1.44,4.44-5.05,4.68-8.11
				c5.91-73.75,4.26-147.95,2.13-221.82c-0.08-2.9-2.36-4.04-4.87-2.81C561.87,1677.12,559.81,1680.93,559.89,1683.9L559.89,1683.9z
				"/>
		</g>
	</g>
</g>
<g id="Ebene_31">
	<g>
		<path class="st1" d="M291.73,1643.12c-93.31,51-169.84,133.36-214.82,231.18c83.36,9.01,167.21,14.18,250.09,27.03
			c49.41,7.66,65.04-31.08,68.09-66.73c3.05-35.65-14.13-69.92-34.84-98.79c-20.71-28.87-45.56-54.95-61.77-86.68"/>
		<g>
			<path class="st1" d="M291.64,1637.66c-74.46,40.86-137.73,100.77-183.77,172.05c-13.26,20.53-24.92,42.01-35.16,64.19
				c-0.92,2-1.04,6.13,1.92,6.45c45.28,4.88,90.67,8.65,135.99,13.12c22.49,2.22,44.97,4.61,67.39,7.41
				c11.37,1.42,22.74,2.94,34.08,4.59c9.44,1.38,18.88,3.32,28.47,2.77c29.11-1.67,47.41-23.91,54.86-50.49
				c4.18-14.92,5.89-30.93,4.07-46.33c-2.34-19.77-9.62-38.42-19.23-55.75c-22.09-39.8-56.7-71.02-77.67-111.56
				c-2.53-4.89-10.6,5.4-8.22,10.01c32.58,63,108.36,114.81,94.48,194.08c-1.97,11.27-5.4,22.98-12.53,32.14
				c-7.47,9.59-18.43,14.82-30.48,15.74c-8.85,0.68-17.56-1-26.28-2.29c-10.69-1.58-21.4-3.04-32.12-4.41
				c-21.12-2.69-42.28-5.01-63.46-7.15c-48.24-4.87-96.58-8.81-144.79-14c0.64,2.15,1.28,4.3,1.92,6.45
				c34.27-74.2,87.25-139.43,152.51-188.59c18.46-13.91,37.95-26.4,58.21-37.52c2.67-1.47,4.84-5.03,4.68-8.11
				C296.36,1637.65,294.2,1636.25,291.64,1637.66L291.64,1637.66z"/>
		</g>
	</g>
	<g>
		<path class="st1" d="M842.06,1661.72c-39.05,17.29-70.21,52.26-83.4,93.58c-13.19,41.32,2.09,106.16,23.66,143.63
			c74.54-9.1,149.08-18.19,223.62-27.29c4.86-0.59,8.5-6.17,7.17-10.98c-23.31-84.23-84.4-156.72-162.5-192.81"/>
		<g>
			<path class="st1" d="M841.96,1656.26c-35.47,15.93-63.94,45.29-80.33,80.38c-7.72,16.52-11.99,33.71-12.58,51.94
				c-0.62,19.3,2.14,38.79,6.73,57.51c4.93,20.09,12.16,39.84,22.41,57.84c0.62,1.08,1.95,1.08,2.99,0.95
				c39.58-4.83,79.16-9.66,118.73-14.49c19.79-2.42,39.58-4.83,59.37-7.25c9.89-1.21,19.79-2.42,29.68-3.62
				c7.96-0.97,17.78-0.25,23.71-6.49c5.25-5.53,6.23-12.16,4.19-19.24c-2.09-7.27-4.47-14.46-7.12-21.55
				c-5.24-14.03-11.54-27.7-18.76-40.82c-14.51-26.38-32.9-50.62-54.4-71.7c-24.15-23.67-52-43.33-82.67-57.61
				c-5-2.33-11.43,9.23-6.62,11.47c51.28,23.87,94.65,62.76,125.09,110.34c15.27,23.87,27.17,49.82,35.09,77.04
				c0.33,1.12,1.54,3.46,1.11,4.53c0.16-0.4-1.19,0.09-1.53,0.18c-4.63,1.25-10.09,1.23-14.84,1.81c-9.23,1.13-18.47,2.25-27.7,3.38
				c-18.47,2.25-36.94,4.51-55.41,6.76c-41.89,5.11-83.77,10.22-125.66,15.34c1,0.32,1.99,0.64,2.99,0.95
				c-16.97-29.78-26.63-65.51-27.79-99.71c-0.57-16.78,1.57-32.86,7.8-48.49c6.45-16.18,15.97-31.03,27.68-43.91
				c13.42-14.76,29.87-26.48,48.05-34.64C846.81,1665.09,849.15,1653.04,841.96,1656.26L841.96,1656.26z"/>
		</g>
	</g>
</g>
<g id="Ebene_32">
	<ellipse class="st2" cx="293.6" cy="1710.21" rx="19.67" ry="20.09"/>
	<ellipse class="st2" cx="338.18" cy="1780.33" rx="19.67" ry="20.09"/>
	<ellipse class="st2" cx="348.94" cy="1866" rx="19.67" ry="20.09"/>
	<ellipse class="st2" cx="861.73" cy="1707.2" rx="19.67" ry="20.09"/>
	<ellipse class="st2" cx="814.66" cy="1780.33" rx="19.67" ry="20.09"/>
	<ellipse class="st2" cx="807.6" cy="1852.73" rx="19.67" ry="20.09"/>
</g>
<g id="Ebene_24">
	<g>
		<path class="st3" d="M808.94,1654.01c-42.26,21.33-75.31,60.91-89.25,106.89c-13.94,45.98-8.57,97.7,14.5,139.68
			c12.69-0.99,25.37-1.97,38.06-2.96c-27.37-35.32-32.65-90.29-9.05-128.34c24-38.7,51.62-66.78,78.85-107.55
			c-11.5-4.51-23-9.01-34.5-13.52"/>
		<g>
			<path class="st4" d="M808.85,1648.55c-69.97,35.71-110.2,114.69-99.85,192.24c3.04,22.75,10.13,44.62,21.09,64.79
				c0.45,0.63,1.06,0.98,1.83,1.06c12.69-0.99,25.37-1.97,38.06-2.96c4.09-0.32,9.42-7.09,6.39-11.06
				c-18.79-24.61-27-57.41-21.93-87.99c2.69-16.23,9.6-29.75,18.62-43.33c10.2-15.34,21.59-29.85,32.97-44.33
				c13.66-17.39,27.15-34.88,39.48-53.25c1.07-1.6,2.56-6.67-0.13-7.72c-11.5-4.51-23-9.01-34.5-13.52
				c-5.18-2.03-11.44,9.58-6.62,11.47c11.5,4.51,23,9.01,34.5,13.52c-0.04-2.57-0.09-5.15-0.13-7.72
				c-22.43,33.43-49.6,63.35-71.95,96.83c-9.73,14.57-17.41,29.49-20.86,46.81c-3.22,16.13-3.01,32.87,0.11,49
				c3.51,18.13,11.02,35.55,22.24,50.24c2.13-3.69,4.26-7.38,6.39-11.06c-5.71,0.44-11.42,0.89-17.13,1.33
				c-2.85,0.22-5.71,0.44-8.56,0.67c-2.11,0.16-8.55,1.71-10.47,0.81c-3.07-1.43-5.3-9.04-6.65-12.16
				c-2.14-4.92-4.05-9.93-5.73-15.02c-6.63-20.03-9.68-41.1-9.07-62.19c1.14-39.41,16.18-77.22,42.18-106.82
				c14.02-15.96,31.02-29.06,49.93-38.71c2.7-1.38,4.84-5.09,4.68-8.11C813.57,1648.47,811.43,1647.23,808.85,1648.55
				L808.85,1648.55z"/>
		</g>
	</g>
	<g>
		<path class="st3" d="M299.84,1648.21c38.53,47.77,67.56,76.31,87.83,111.61c23.76,41.37,4.23,99.04-13.98,143.25
			c20.38,2.89,48.15,9.77,56.21-21.23c21.43-82.45,6.59-161.57-52.44-210.38c-7.71-6.38-13.15-15.09-19.43-22.94
			s-14.05-15.25-23.77-17.28c-9.72-2.03-25.41,7.6-36.23,14.45"/>
		<g>
			<path class="st4" d="M295.73,1653.21c23.82,29.48,50.08,57.2,72.35,87.89c9.69,13.35,19.31,27.37,23.23,43.6
				c4.42,18.26,2.64,37.5-1.22,55.69c-4.55,21.44-12.29,42.06-20.61,62.29c-0.86,2.1-1.08,6.02,1.92,6.45
				c20.06,2.89,42.93,6.88,56.21-12.51c8.21-11.98,10.25-28.46,12.58-42.48c2.44-14.72,3.79-29.68,3.78-44.61
				c-0.02-28.06-4.97-56.44-16.44-82.15c-5.59-12.54-12.53-24.41-20.97-35.25c-4.31-5.53-8.99-10.79-13.98-15.72
				c-5.09-5.03-10.92-9.34-15.85-14.52c-11.67-12.24-19.46-30.11-36.67-35.74c-14.56-4.77-30.42,6.68-42.12,14.07
				c-2.62,1.65-4.85,4.9-4.68,8.11c0.14,2.67,2.34,4.4,4.87,2.81c5.57-3.52,11.19-7.01,17.13-9.89c5.03-2.44,11.02-5.06,16.73-3.96
				c14.32,2.76,22.85,17.76,31.12,28.25c8.29,10.53,19.38,18.29,28.3,28.28c8.27,9.27,15.47,19.48,21.42,30.38
				c25.61,46.86,25.99,103.15,13.65,153.97c-1.4,5.76-2.84,11.87-7.39,16.03c-3.42,3.14-8.06,4.51-12.56,5.16
				c-10.11,1.45-20.58-0.92-30.57-2.35c0.64,2.15,1.28,4.3,1.92,6.45c14.76-35.91,29.72-76.21,24.6-115.7
				c-4.52-34.8-30.27-63.33-52.08-89.21c-15.53-18.42-31.31-36.61-46.45-55.35C300.21,1638.58,292.5,1649.22,295.73,1653.21
				L295.73,1653.21z"/>
		</g>
	</g>
</g>
<g id="Ebene_21">
	<g>
		<path class="st5" d="M563.52,1692.68c-14.37,54.77-38.83,109.43-71.74,155.1c13.01,3.05,49.18,4.94,49.18,4.94
			s15.76-18.26,16.01-31.89c0.79-43.53,1.58-87.05,2.38-130.58"/>
		<g>
			<path d="M558.88,1693.86c-14.15,53.56-37.2,105.39-69.54,150.48c-1.68,2.35-4.42,8.47,0.16,9.5c11.43,2.58,23.42,3.2,35.08,4.04
				c4.21,0.31,8.45,0.71,12.68,0.82c3.28,0.08,5.2-1.4,7.25-3.88c7.6-9.2,15.25-20.88,16.93-32.92c1.34-9.58,0.6-19.77,0.77-29.44
				c0.2-10.88,0.4-21.76,0.59-32.64c0.44-24.07,0.88-48.14,1.31-72.21c0.05-2.94-2.45-3.99-4.87-2.81c-2.82,1.38-4.63,5.1-4.68,8.11
				c-0.59,32.64-1.19,65.29-1.78,97.93c-0.15,8.24-0.3,16.49-0.45,24.73c-0.11,5.95-0.08,10.99-2.55,16.48
				c-2.79,6.21-6.84,12.06-11.26,17.22c1.57-0.87,3.14-1.75,4.72-2.62c-16.28-0.86-33.24-1.34-49.18-4.94
				c0.05,3.17,0.11,6.33,0.16,9.5c34.45-48.04,58.87-102.66,73.95-159.73c0.67-2.52-0.68-5.28-3.52-4.78
				C561.5,1687.28,559.59,1691.16,558.88,1693.86L558.88,1693.86z"/>
		</g>
	</g>
	<g>
		<path class="st6" d="M562.19,1692.35c-0.03,43.56-8.91,87.1-25.91,127.05c16.06,11.19,41.56,7.23,41.56,7.23
			s17.68-27.55,16.15-43.79c-1.53-16.24-8.38-31.39-14.99-46.24c-6.61-14.85-13.18-30.19-14.08-46.48"/>
		<g>
			<path d="M557.41,1695.01c-0.15,42.62-8.76,84.75-25.33,124.01c-0.79,1.86-1.04,4.84,0.89,6.13c10.54,7.02,23.88,8.75,36.3,8.13
				c2.93-0.15,6.73,0.12,9.27-1.59c2.43-1.64,4.05-5.11,5.49-7.61c5.79-10.05,11.05-20.82,13.65-32.18
				c3.55-15.46-2.42-31.77-8.29-45.93c-7.86-18.97-18.27-37.6-19.69-58.48c-0.53-7.82-9.9,0.21-9.55,5.3
				c2.11,30.96,22.14,56.08,28.06,85.99c2.17,10.96-0.54,20.08-5.16,30.05c-2.52,5.44-5.42,10.78-8.65,15.84
				c1.52-1.32,3.04-2.65,4.56-3.97c-13.03,1.97-28.26,0.38-39.37-7.01c0.3,2.04,0.59,4.08,0.89,6.13
				c17.36-41.12,26.33-85.46,26.49-130.09c0.01-2.93-2.43-4-4.87-2.81C559.31,1688.26,557.42,1692,557.41,1695.01L557.41,1695.01z"
				/>
		</g>
	</g>
	<g>
		<path class="st6" d="M565.79,1696.26c5.53,33.44,11.05,66.87,16.58,100.31c1.91,11.54,5.04,20.25,16.48,19.57
			c11.44-0.68,31.37-8.69,41.16-14.76c-8.97-47.29-35.6-90.86-73.26-119.87"/>
		<g>
			<path d="M561.19,1700.21c3.14,19.01,6.28,38.03,9.43,57.04c1.52,9.18,3.03,18.36,4.55,27.54c1.29,7.78,2.01,15.89,4.28,23.46
				c1.41,4.71,3.79,9.65,8.27,12.14c4.8,2.66,10.57,1.95,15.72,0.94c12.67-2.48,25.63-7.79,36.66-14.47
				c3.09-1.87,5.21-5.79,4.5-9.41c-9.3-47.95-35.96-91.68-74.55-121.66c-4.09-3.18-11.03,8.05-6.62,11.47
				c37.41,29.06,62.98,71.67,71.98,118.09c1.5-3.14,3-6.27,4.5-9.41c-10.04,6.09-21.5,10.73-32.98,13.22
				c-4.6,1-10.35,2.08-14.24-1.35c-3.72-3.29-4.67-9.19-5.5-13.8c-6.12-33.79-11.21-67.8-16.81-101.68
				c-0.52-3.16-4.26-1.99-5.9-0.66C562,1693.66,560.67,1697.09,561.19,1700.21L561.19,1700.21z"/>
		</g>
	</g>
</g>
<g id="Ebene_23">
	<g>
		<g>
			<g>
				<path d="M291.03,1646.68c25.37,35.09,49.07,71.34,74.27,106.55c10.18,14.21,17.85,28.64,21.56,45.88
					c3.59,16.7,3.5,34.18,0.06,50.9c-3.78,18.35-11.85,35.55-24.28,49.63c-1.65,1.86-3.53,6.16-1.67,8.44
					c1.98,2.43,5.04,0.14,6.55-1.56c24.05-27.25,34.73-65.53,30.76-101.44c-1.97-17.81-7.35-35.23-16.85-50.49
					c-5.53-8.89-12.09-17.2-18.1-25.77c-6.62-9.45-13.17-18.96-19.71-28.47c-14.65-21.32-29.21-42.71-44.37-63.67
					C295.82,1631.93,288,1642.49,291.03,1646.68L291.03,1646.68z"/>
			</g>
		</g>
		<g>
			<g>
				<path d="M333.17,1626.69c27.1,31.11,59.47,58.79,81.62,93.9c22.08,34.99,29.68,78.25,24.73,119.07
					c-2.86,23.57-9.84,46.52-21.02,67.49c-1.08,2.03-2.52,6.19,0.13,7.72c2.55,1.47,5.71-1.79,6.75-3.75
					c20.86-39.13,29.12-84.42,23.12-128.39c-2.86-20.97-8.77-41.45-18.62-60.23c-9.49-18.1-22.37-34.08-36.02-49.18
					c-17.26-19.09-35.56-37.21-52.48-56.63C337.44,1612.15,329.82,1622.84,333.17,1626.69L333.17,1626.69z"/>
			</g>
		</g>
	</g>
	<g>
		<g>
			<g>
				<path d="M291.03,1646.68c25.37,35.09,49.07,71.34,74.27,106.55c10.18,14.21,17.85,28.64,21.56,45.88
					c3.59,16.7,3.5,34.18,0.06,50.9c-3.78,18.35-11.85,35.55-24.28,49.63c-1.65,1.86-3.53,6.16-1.67,8.44
					c1.98,2.43,5.04,0.14,6.55-1.56c24.05-27.25,34.73-65.53,30.76-101.44c-1.97-17.81-7.35-35.23-16.85-50.49
					c-5.53-8.89-12.09-17.2-18.1-25.77c-6.62-9.45-13.17-18.96-19.71-28.47c-14.65-21.32-29.21-42.71-44.37-63.67
					C295.82,1631.93,288,1642.49,291.03,1646.68L291.03,1646.68z"/>
			</g>
		</g>
		<g>
			<g>
				<path d="M333.17,1626.69c27.1,31.11,59.47,58.79,81.62,93.9c22.08,34.99,29.68,78.25,24.73,119.07
					c-2.86,23.57-9.84,46.52-21.02,67.49c-1.08,2.03-2.52,6.19,0.13,7.72c2.55,1.47,5.71-1.79,6.75-3.75
					c20.86-39.13,29.12-84.42,23.12-128.39c-2.86-20.97-8.77-41.45-18.62-60.23c-9.49-18.1-22.37-34.08-36.02-49.18
					c-17.26-19.09-35.56-37.21-52.48-56.63C337.44,1612.15,329.82,1622.84,333.17,1626.69L333.17,1626.69z"/>
			</g>
		</g>
	</g>
	<g>
		<g>
			<g>
				<path d="M291.03,1646.68c25.37,35.09,49.07,71.34,74.27,106.55c10.18,14.21,17.85,28.64,21.56,45.88
					c3.59,16.7,3.5,34.18,0.06,50.9c-3.78,18.35-11.85,35.55-24.28,49.63c-1.65,1.86-3.53,6.16-1.67,8.44
					c1.98,2.43,5.04,0.14,6.55-1.56c24.05-27.25,34.73-65.53,30.76-101.44c-1.97-17.81-7.35-35.23-16.85-50.49
					c-5.53-8.89-12.09-17.2-18.1-25.77c-6.62-9.45-13.17-18.96-19.71-28.47c-14.65-21.32-29.21-42.71-44.37-63.67
					C295.82,1631.93,288,1642.49,291.03,1646.68L291.03,1646.68z"/>
			</g>
		</g>
		<g>
			<g>
				<path d="M333.17,1626.69c27.1,31.11,59.47,58.79,81.62,93.9c22.08,34.99,29.68,78.25,24.73,119.07
					c-2.86,23.57-9.84,46.52-21.02,67.49c-1.08,2.03-2.52,6.19,0.13,7.72c2.55,1.47,5.71-1.79,6.75-3.75
					c20.86-39.13,29.12-84.42,23.12-128.39c-2.86-20.97-8.77-41.45-18.62-60.23c-9.49-18.1-22.37-34.08-36.02-49.18
					c-17.26-19.09-35.56-37.21-52.48-56.63C337.44,1612.15,329.82,1622.84,333.17,1626.69L333.17,1626.69z"/>
			</g>
		</g>
	</g>
	<g>
		<g>
			<g>
				<path d="M291.03,1646.68c25.37,35.09,49.07,71.34,74.27,106.55c10.18,14.21,17.85,28.64,21.56,45.88
					c3.59,16.7,3.5,34.18,0.06,50.9c-3.78,18.35-11.85,35.55-24.28,49.63c-1.65,1.86-3.53,6.16-1.67,8.44
					c1.98,2.43,5.04,0.14,6.55-1.56c24.05-27.25,34.73-65.53,30.76-101.44c-1.97-17.81-7.35-35.23-16.85-50.49
					c-5.53-8.89-12.09-17.2-18.1-25.77c-6.62-9.45-13.17-18.96-19.71-28.47c-14.65-21.32-29.21-42.71-44.37-63.67
					C295.82,1631.93,288,1642.49,291.03,1646.68L291.03,1646.68z"/>
			</g>
		</g>
		<g>
			<g>
				<path d="M333.17,1626.69c27.1,31.11,59.47,58.79,81.62,93.9c22.08,34.99,29.68,78.25,24.73,119.07
					c-2.86,23.57-9.84,46.52-21.02,67.49c-1.08,2.03-2.52,6.19,0.13,7.72c2.55,1.47,5.71-1.79,6.75-3.75
					c20.86-39.13,29.12-84.42,23.12-128.39c-2.86-20.97-8.77-41.45-18.62-60.23c-9.49-18.1-22.37-34.08-36.02-49.18
					c-17.26-19.09-35.56-37.21-52.48-56.63C337.44,1612.15,329.82,1622.84,333.17,1626.69L333.17,1626.69z"/>
			</g>
		</g>
	</g>
	<g>
		<g>
			<g>
				<path d="M291.03,1646.68c25.37,35.09,49.07,71.34,74.27,106.55c10.18,14.21,17.85,28.64,21.56,45.88
					c3.59,16.7,3.5,34.18,0.06,50.9c-3.78,18.35-11.85,35.55-24.28,49.63c-1.65,1.86-3.53,6.16-1.67,8.44
					c1.98,2.43,5.04,0.14,6.55-1.56c24.05-27.25,34.73-65.53,30.76-101.44c-1.97-17.81-7.35-35.23-16.85-50.49
					c-5.53-8.89-12.09-17.2-18.1-25.77c-6.62-9.45-13.17-18.96-19.71-28.47c-14.65-21.32-29.21-42.71-44.37-63.67
					C295.82,1631.93,288,1642.49,291.03,1646.68L291.03,1646.68z"/>
			</g>
		</g>
		<g>
			<g>
				<path d="M333.17,1626.69c27.1,31.11,59.47,58.79,81.62,93.9c22.08,34.99,29.68,78.25,24.73,119.07
					c-2.86,23.57-9.84,46.52-21.02,67.49c-1.08,2.03-2.52,6.19,0.13,7.72c2.55,1.47,5.71-1.79,6.75-3.75
					c20.86-39.13,29.12-84.42,23.12-128.39c-2.86-20.97-8.77-41.45-18.62-60.23c-9.49-18.1-22.37-34.08-36.02-49.18
					c-17.26-19.09-35.56-37.21-52.48-56.63C337.44,1612.15,329.82,1622.84,333.17,1626.69L333.17,1626.69z"/>
			</g>
		</g>
	</g>
	<g>
		<g>
			<g>
				<path d="M291.03,1646.68c25.37,35.09,49.07,71.34,74.27,106.55c10.18,14.21,17.85,28.64,21.56,45.88
					c3.59,16.7,3.5,34.18,0.06,50.9c-3.78,18.35-11.85,35.55-24.28,49.63c-1.65,1.86-3.53,6.16-1.67,8.44
					c1.98,2.43,5.04,0.14,6.55-1.56c24.05-27.25,34.73-65.53,30.76-101.44c-1.97-17.81-7.35-35.23-16.85-50.49
					c-5.53-8.89-12.09-17.2-18.1-25.77c-6.62-9.45-13.17-18.96-19.71-28.47c-14.65-21.32-29.21-42.71-44.37-63.67
					C295.82,1631.93,288,1642.49,291.03,1646.68L291.03,1646.68z"/>
			</g>
		</g>
		<g>
			<g>
				<path d="M333.17,1626.69c27.1,31.11,59.47,58.79,81.62,93.9c22.08,34.99,29.68,78.25,24.73,119.07
					c-2.86,23.57-9.84,46.52-21.02,67.49c-1.08,2.03-2.52,6.19,0.13,7.72c2.55,1.47,5.71-1.79,6.75-3.75
					c20.86-39.13,29.12-84.42,23.12-128.39c-2.86-20.97-8.77-41.45-18.62-60.23c-9.49-18.1-22.37-34.08-36.02-49.18
					c-17.26-19.09-35.56-37.21-52.48-56.63C337.44,1612.15,329.82,1622.84,333.17,1626.69L333.17,1626.69z"/>
			</g>
		</g>
	</g>
	<g>
		<g>
			<g>
				<path d="M842.86,1659.34c-24.93,33.32-48.57,67.6-73.15,101.18c-19.47,26.6-25.35,61.3-17.99,93.23
					c4.07,17.68,12.4,34.41,24.65,47.84c3.71,4.07,10.63-5.71,7.5-9.14c-20.8-22.8-29.93-55.11-25.46-85.55
					c2.15-14.61,7.37-28.74,16.17-40.66c11.56-15.66,22.95-31.44,34.23-47.3c12.7-17.87,25.37-35.76,38.5-53.31
					c1.38-1.84,3.3-5.52,1.52-7.71C847.11,1655.79,844.11,1657.66,842.86,1659.34L842.86,1659.34z"/>
			</g>
		</g>
		<g>
			<g>
				<path d="M803.71,1641.4c-26.6,29.48-58.45,55.51-79.34,89.69c-20.3,33.22-26.99,74.12-21.81,112.44
					c3.02,22.32,10.1,43.76,20.98,63.49c2.46,4.46,9.79-4.98,7.5-9.14c-18.38-33.33-25.39-72.73-19.33-110.34
					c2.88-17.9,8.54-35.22,17.77-50.87c8.81-14.92,20.31-28.05,32.19-40.58c15.39-16.24,31.49-31.78,46.49-48.4
					C812.35,1643.04,809.1,1635.43,803.71,1641.4L803.71,1641.4z"/>
			</g>
		</g>
	</g>
</g>
<g id="Ebene_24_Kopie_3">
	<g>
		<g>
			<path d="M1020.42,1864.84c-11.78-69.89-54.65-130.44-109.33-174.03c-62.12-49.51-139.23-75.52-216.68-89
				c-41.49-7.22-83.53-11.13-125.57-13.34c-41.62-2.19-83.42-2.26-124.91,2.07c-40.74,4.26-81.09,13.04-119.09,28.52
				c-35.07,14.29-67.39,34.38-96.68,58.31c-58.61,47.9-104.47,109.22-147.74,170.75c-5.41,7.69-10.79,15.41-16.16,23.13
				c-1.42,2.04-4.24,8.13,0.15,8.87c123.12,20.79,247.62,33.26,372.42,37.28c124.52,4.01,249.28-0.37,373.22-13.02
				c70.15-7.16,140.02-17.03,209.41-29.52c4.55-0.82,8.36-12.25,2.1-11.12c-123.17,22.18-247.81,36-372.85,41.3
				c-124.1,5.26-248.56,2.21-372.26-9.15c-69.58-6.39-138.9-15.44-207.79-27.08c0.05,2.96,0.1,5.91,0.15,8.87
				c42.32-60.84,85.44-122.4,140.17-172.9c26.96-24.88,56.68-46.75,89.43-63.4c36.12-18.36,75.4-29.68,115.32-36.03
				c40.41-6.42,81.48-7.8,122.33-6.7c41.1,1.1,82.29,4.19,123.04,9.71c78.48,10.62,157.65,31.97,223.81,76.99
				c56.94,38.74,104.66,94.94,123.42,162.12c2.28,8.15,4.09,16.42,5.49,24.76c0.5,2.94,3.97,1.86,5.5,0.62
				C1019.66,1870.97,1020.91,1867.75,1020.42,1864.84L1020.42,1864.84z"/>
		</g>
	</g>
	<g>
		<g>
			<path d="M516.32,1742.75c19.22-20.42,35.06-43.8,54.28-64.22c-2.18,0.52-4.36,1.04-6.55,1.56c15.76,18.4,31.53,36.8,47.29,55.21
				c3.9,4.55,11.54-6.12,8.22-10.01c-15.76-18.4-31.53-36.8-47.29-55.21c-2.05-2.4-4.95-0.14-6.55,1.56
				c-19.22,20.42-35.06,43.8-54.28,64.22c-1.7,1.8-3.5,6.2-1.67,8.44C511.79,1746.78,514.77,1744.4,516.32,1742.75L516.32,1742.75z"
				/>
		</g>
	</g>
	<g>
		<g>
			<path d="M615.55,1735.76c48.36-21.74,92.57-59.39,120.29-104.71c0.99-1.62,2.62-6.66-0.13-7.72
				c-18.69-7.23-37.37-14.47-56.06-21.7c-5.19-2.01-11.44,9.61-6.62,11.47c18.69,7.23,37.37,14.47,56.06,21.7
				c-0.04-2.57-0.09-5.15-0.13-7.72c-26.06,42.61-68.24,77.38-113.59,97.77C610.71,1726.93,608.37,1738.99,615.55,1735.76
				L615.55,1735.76z"/>
		</g>
	</g>
	<g>
		<g>
			<path d="M463.01,1593.48c-18.08,6.7-36.16,13.4-54.24,20.1c-3.45,1.28-7.04,6.02-5.72,9.91
				c17.67,52.04,55.29,96.57,104.37,121.56c4.89,2.49,11.4-9.04,6.62-11.47c-47.71-24.3-84.6-67.33-101.8-117.99
				c-1.91,3.3-3.81,6.6-5.72,9.91c18.08-6.7,36.16-13.4,54.24-20.1c2.98-1.1,5.23-3.99,5.77-7.14
				C466.88,1596.18,466.05,1592.35,463.01,1593.48L463.01,1593.48z"/>
		</g>
	</g>
</g>
<g id="Ebene_4">
	<g>
		<path class="st7" d="M940.78,1059.94c0,31.57-19.64,63.98-56.08,66.58c-233.72,16.64-374.96,56.99-616.28,8.62
			c-33.28-6.67-50.75-44.94-50.27-74.44c0.82-50.36-3.33-47.12,0-77.68c12.14-111.35,7.31-167.89,53.66-269.19
			c44.44-97.13,157.65-179.16,278.6-179.16c201.93,0,403.99,85.86,390.38,423.53"/>
		<g>
			<path d="M936.73,1062.18c-0.14,16.26-5.52,33-17.29,44.61c-14.77,14.56-33.98,14.6-53.42,16.13
				c-44.21,3.47-88.32,8.02-132.4,12.75c-80.03,8.6-160.17,17.51-240.78,17.33c-42.74-0.1-85.46-2.68-127.9-7.76
				c-23.91-2.86-47.73-6.5-71.42-10.81c-10.58-1.92-22.19-2.96-32.15-7.21c-7.46-3.18-14.04-8.13-19.4-14.19
				c-10.94-12.37-17.62-28.77-19.34-45.14c-0.98-9.33-0.26-18.83-0.35-28.2c-0.07-7.07-0.29-14.14-0.67-21.2
				c-1.63-30.38,3.04-60.37,5.67-90.61c3.2-36.73,5.94-73.63,13.29-109.82c7.83-38.53,20.84-76.8,38.65-111.87
				c34.42-67.77,97.8-120.81,168.54-147.44c35.88-13.51,73.2-19.45,111.46-18.86c26.17,0.4,52.34,2.29,78.24,6.1
				c50.31,7.41,99.94,22.3,143.85,48.37c45.29,26.9,82.24,65.38,107.56,111.56c32.29,58.89,45.09,126.71,47.89,193.24
				c0.86,20.42,0.76,40.86-0.04,61.28c-0.1,2.51,2.12,3.37,4.13,2.38c2.43-1.19,3.87-4.31,3.97-6.88
				c2.92-74.45-3.36-151.38-31.36-221.1c-20.9-52.04-54.26-98.18-99.25-131.97c-41.78-31.37-91.29-50.85-142.15-61.66
				c-26.28-5.59-53.02-8.92-79.83-10.52c-33.76-2.02-67.5-1.77-100.69,5.5c-77.28,16.93-148.63,64.59-194.85,128.68
				c-23.63,32.76-39.81,70.48-51.97,108.85c-11.25,35.5-17.32,72.04-21.06,109.02c-2,19.73-3.56,39.49-5.33,59.24
				c-1.73,19.33-4.63,38.69-5.43,58.08c-0.43,10.35,0.6,20.68,0.98,31.02c0.65,17.74-1.42,35.91,2.65,53.34
				c3.79,16.23,11.9,31.92,24.47,43.05c15.86,14.04,38.13,15.43,58.13,18.9c45.75,7.96,91.95,13.31,138.34,15.58
				c82.85,4.05,165.44-2.58,247.78-11.23c43.65-4.59,87.25-9.51,130.95-13.59c12.24-1.14,24.48-2.22,36.74-3.22
				c11.66-0.95,23.56-1.19,35.15-2.83c17.27-2.45,32.38-12.56,42.3-26.75c9.54-13.66,14.3-30.07,14.44-46.67
				c0.02-2.49-2.06-3.39-4.13-2.38C938.34,1056.46,936.76,1059.63,936.73,1062.18L936.73,1062.18z"/>
		</g>
	</g>
</g>
<g id="Ebene_5">
	<g>
		<path class="st8" d="M658.57,1457.08c3.8,42.04,7.6,84.07,11.4,126.11c1.37,15.15,2.58,31.22-4.11,44.81
			c-11.1,22.56-38.88,29.55-63.35,33.18c-35.94,5.33-77.79,6.77-102.77-20.14c-21.3-22.94-22.2-58.47-17.52-89.71
			s13.67-62.93,7.57-93.91c54.55,9.62,110.71,9.69,165.29,0.2"/>
		<g>
			<path class="st8" d="M654.17,1459.52c3.74,41.38,7.49,82.76,11.22,124.14c1.46,16.16,4.07,35.57-6.89,49.18
				c-9.12,11.31-24.01,16.43-37.68,19.63c-14.92,3.5-30.48,5.47-45.79,6.09c-15.31,0.62-31.3-0.27-45.81-5.59
				c-14.48-5.3-26.63-14.92-34.35-28.35c-7.82-13.61-10.37-29.72-10.54-45.22c-0.47-42.33,17.66-83.1,9.7-125.62
				c-2.11,3.08-4.23,6.15-6.34,9.23c55,9.59,111.34,9.56,166.36,0.11c4.5-0.77,8.27-12.05,2.07-10.98
				c-54.33,9.33-109.93,9.17-164.22-0.3c-4.19-0.73-6.94,6.02-6.34,9.23c7.55,40.33-9.7,79.91-10.04,120.15
				c-0.27,32.74,11.03,66.45,43.03,80.51c29.4,12.92,65.46,9.01,96.04,2.66c14.9-3.09,30.21-8.16,41.83-18.37
				c13.33-11.71,18.81-28.27,19.01-45.67c0.13-11.14-1.31-22.31-2.31-33.39c-1.13-12.48-2.26-24.96-3.39-37.44
				c-2.26-24.96-4.51-49.92-6.77-74.88C662.32,1447.42,653.74,1454.82,654.17,1459.52L654.17,1459.52z"/>
		</g>
	</g>
</g>
<g id="Ebene_3">
	<g>
		<path class="st8" d="M906.45,963.69c38.73-14.23,85.71-0.22,110.86,33.05c25.15,33.27,26.5,83.23,3.2,117.87
			c-23.3,34.64-69.45,51.29-108.89,39.27c-23.91,64.41-54.2,127.1-97.19,180.18c-42.99,53.09-99.52,96.29-164.47,114.9
			c-90.59,25.96-220.74-1.36-276.02-45.01c-55.93-44.16-133-249.49-133-249.49s-88.35,1.97-112.67-31.84
			c-24.32-33.81-22.65-102.36,5.22-133.17c20.25-22.39,66.5-28.9,115.42-23.46c17.31-41.29,23.16-74.63,25.38-115.11
			c267.66-306.71,577.8-11.87,577.8-11.87s3.25,106.5,51.78,126.02"/>
		<g>
			<path class="st8" d="M905.41,969.18c44.28-15.86,96.75,4.92,117.42,47.36c10.36,21.27,12.62,46.52,6.64,69.36
				c-5.96,22.77-20.95,41.73-41.33,53.37c-22.49,12.84-49.55,16.39-74.43,9.03c-2.58-0.76-5.31,3.45-5.97,5.23
				c-30,80.61-70.44,160.1-134.56,219.03c-29.81,27.4-64.31,50.22-102.37,64.39c-35.13,13.09-72.37,17.5-109.71,16.36
				c-37.3-1.14-74.77-7.25-110.37-18.5c-15.88-5.02-31.48-11.12-46.28-18.77c-11.18-5.78-22.46-12.42-31.75-21
				c-16.73-15.47-29.18-35.91-40.61-55.39c-14.51-24.72-27.33-50.43-39.44-76.4c-16.91-36.24-32.55-73.16-46.77-110.53
				c-0.24-0.63-0.48-1.26-0.71-1.88c-0.33-0.87-1.03-1.97-2.14-1.94c-12.95,0.28-26.02-0.62-38.86-2.13
				c-21.35-2.51-45.01-6.66-62.8-19.57c-20.12-14.6-25.45-44.68-25.74-67.89c-0.3-24.17,4.8-54.96,24.87-71.04
				c12.54-10.05,29.43-14.2,45-16.48c20.27-2.98,40.99-2.39,61.3-0.2c2.83,0.31,5.07-3.05,5.97-5.23
				c15.77-37.88,23.61-77.04,25.91-117.91c-0.72,1.87-1.44,3.74-2.15,5.62c53.48-61.08,121.22-111.07,201.45-129.28
				c60.65-13.76,124.09-8.26,183.03,10.61c47.8,15.3,92.93,38.62,134.3,66.91c13.35,9.13,26.34,18.79,38.81,29.07
				c3.62,2.98,7.2,6.02,10.71,9.13c0.99,0.88,1.98,1.76,2.95,2.66c-1.34-1.22,0.45,0.17,0.48,0.45c-0.53-4.95-0.51-0.11-0.45,0.99
				c0.18,3.27,0.43,6.55,0.73,9.81c1.03,11.29,2.59,22.56,4.77,33.68c4.96,25.33,13.04,54.26,32.56,72.44
				c4.42,4.11,9.33,7.48,14.92,9.8c4.73,1.96,10.55-8.73,6.11-10.58c-27.23-11.29-37.71-45.42-43.58-71.65
				c-2.75-12.29-4.66-24.76-5.85-37.3c-0.35-3.69-0.64-7.39-0.85-11.1c-0.09-1.65,0.11-3.87-0.77-5.31c-1.03-1.69-3.52-3.24-5-4.55
				c-3.99-3.54-8.07-6.97-12.2-10.34c-14.46-11.81-29.58-22.82-45.16-33.1c-47.55-31.38-99.96-56.24-155.42-69.82
				c-68.55-16.79-140.93-14.01-206.71,12.47c-40.47,16.29-77.36,40.29-110.1,69.01c-9.42,8.27-18.5,16.93-27.27,25.9
				c-4.54,4.64-9,9.34-13.37,14.13c-4.05,4.43-9.94,9.01-10.75,15.24c-1.64,12.56-1.81,25.28-3.68,37.85
				c-1.82,12.19-4.33,24.28-7.64,36.15c-3.65,13.05-8.32,25.8-13.52,38.3c1.99-1.74,3.98-3.48,5.97-5.23
				c-33.54-3.63-72.92-4.16-103.29,12.88c-25.33,14.22-36.68,43.59-39.84,71.2c-3.15,27.5-0.18,60.18,16.86,83.11
				c13.7,18.44,40.14,24.7,61.53,28.36c17.25,2.95,35.05,4.47,52.56,4.09c-0.71-0.65-1.42-1.3-2.14-1.94
				c12.36,32.91,26.1,65.36,40.58,97.38c12.1,26.74,24.84,53.23,39.03,78.93c12.13,21.96,25.17,44.27,42.09,62.95
				c18.05,19.94,43.28,32.27,68.06,41.7c34.9,13.28,72.02,21.09,109.2,24.19c37.24,3.11,75.78,1.68,111.94-8.43
				c39.32-10.99,75.7-31.09,107.61-56.37c69.08-54.73,115.02-132.51,148.1-213.01c4.24-10.33,8.29-20.74,12.18-31.21
				c-1.99,1.74-3.98,3.48-5.97,5.23c49.58,14.66,104.08-13.81,123.63-60.88c20.23-48.71,2.97-108.93-44.72-133.99
				c-24.72-12.99-54.53-15.86-80.94-6.4c-2.75,0.99-4.83,3.7-5.32,6.58C901.84,966.72,902.61,970.19,905.41,969.18L905.41,969.18z"
				/>
		</g>
	</g>
</g>
<g id="Ebene_2">
	<g>
		<g>
			<path d="M900.38,969.05c43.56-19.33,98.21-1,121.66,40.28c11.93,20.99,15.82,46.57,11.12,70.21
				c-4.55,22.9-17.93,42.86-37.26,55.94c-21.94,14.84-49.33,20.53-75.24,14.73c-4.54-1.02-9.66,9.95-4.2,11.17
				c51.46,11.54,105.96-21.5,121.93-71.25c16.22-50.51-4.87-109.39-54.87-131.09c-26.52-11.51-56.84-11.81-83.31-0.07
				C895.9,960.89,893.74,972,900.38,969.05L900.38,969.05z"/>
		</g>
	</g>
	<g>
		<g>
			<path d="M252.13,960.54c-27.77-3.07-56.91-6.2-83.96,2.83c-23.47,7.84-42.75,23.92-52.17,47.09c-9.53,23.44-10.47,52-6.83,76.8
				c3.7,25.2,15.94,47.22,38.37,60.19c27.64,15.98,60.41,15.36,91.29,14.37c4.75-0.15,9.35-11.34,4.2-11.17
				c-25.8,0.82-52.87,1.8-77.3-7.95c-22.04-8.79-38.46-25.29-45.04-48.32c-6.31-22.08-6.02-47.91-0.98-70.23
				c5.2-23.05,20.16-39.66,42.07-48.25c27.43-10.75,57.62-7.35,86.15-4.2C252.63,972.23,257.54,961.13,252.13,960.54L252.13,960.54z
				"/>
		</g>
	</g>
	<g>
		<g>
			<path d="M914.69,1155.44c-19.37,61.55-49.89,119.85-90.76,169.88c-39.94,48.9-90.64,90.43-149.95,113.3
				c-57.47,22.16-121.37,27.77-181.67,14.85c-30.14-6.45-59.24-17.7-85.6-33.72c-27.39-16.64-51.14-38.47-71.23-63.37
				c-42.09-52.18-67.39-115.83-84.41-180.1c-2.08-7.87-4.04-15.77-5.9-23.7c-0.66-2.83-3.81-1.92-5.44-0.61
				c-2.17,1.75-3.69,5.11-3.04,7.89c15.57,66.32,38.64,132.54,78.25,188.58c19.05,26.95,42.06,51.47,68.9,70.79
				c25.42,18.29,54.06,31.65,84.11,40.35c60.47,17.49,126.42,15.39,186.25-3.74c61.88-19.79,115.56-58.49,158.91-106.36
				c44.48-49.11,78.63-107.8,101.38-169.93c2.83-7.74,5.47-15.54,7.94-23.4C924.86,1148.45,916.59,1149.38,914.69,1155.44
				L914.69,1155.44z"/>
		</g>
	</g>
	<g>
		<g>
			<path d="M904.08,959.4c-10.84-11.05-17.79-25.7-23.58-39.86c-6.51-15.94-11.62-32.45-16.04-49.08
				c-2.83-10.65-5.4-21.39-7.58-32.19c-0.51-2.54-0.79-3.66-2.63-5.36c-22.93-21.21-48.51-39.81-74.82-56.56
				c-48.24-30.72-101.22-55.06-157.21-67.53c-67.04-14.93-136.92-10.37-200.2,17.08c-38.5,16.7-73.38,41.1-103.99,69.66
				c-8.82,8.22-17.3,16.81-25.49,25.66c-4.32,4.67-8.55,9.41-12.69,14.24c-3.87,4.5-9.86,9.58-11.94,15.18
				c-1.09,2.95-0.77,6.64-1,9.74c-0.23,3.06-0.49,6.12-0.78,9.18c-0.63,6.54-1.4,13.06-2.3,19.56c-1.83,13.14-4.21,26.21-7.3,39.11
				c-3.04,12.71-6.84,25.2-11.51,37.41c-0.76,1.99-1,5.5,1.77,5.95c2.73,0.44,5.17-3.14,5.97-5.23
				c14.36-37.56,20.92-77.81,23.42-117.81c-0.72,1.87-1.44,3.74-2.15,5.62c49.45-60.83,112.79-112.04,189.6-132.61
				c58.77-15.74,120.62-12.13,178.73,4.66c48.96,14.15,95.25,37.22,137.78,65.11c23.39,15.34,46.09,32.16,66.78,51.03
				c0.75,0.68-0.79-0.31,0.36,0.34c0.28,0.16,0.5,0.49,0.75,0.7c0.35,0.31-0.16-1.51,0.04,0.49c0.8,8.21,3.57,16.71,5.55,24.68
				c7.18,28.9,15.82,58.97,31.28,84.67c3.32,5.52,7.08,10.79,11.6,15.39C900.43,972.62,907.34,962.72,904.08,959.4L904.08,959.4z"/>
		</g>
	</g>
	<g>
		<g>
			<path d="M656.43,1458.36c3.69,38.64,7.38,77.28,11.06,115.92c1.58,16.55,6.15,36.81-1.92,52.33
				c-6.93,13.32-21.16,21.55-34.49,27.29c-31.62,13.59-68.99,16.04-101.47,3.94c-13.68-5.09-26.82-12.91-36.53-23.94
				c-11.28-12.82-15.77-28.47-15.68-45.37c0.11-21.02,4.19-42.24,6.81-63.05c2.75-21.78,5.49-43.55,8.24-65.33
				c1-7.93-7.9-3.08-8.56,2.17c-2.62,20.8-5.25,41.6-7.87,62.41c-2.53,20.08-5.86,40.25-7.13,60.45
				c-1.11,17.81,1.06,35.92,11.25,51.01c8.72,12.92,21.82,22.65,35.87,29.11c33.01,15.19,72.17,14.63,105.98,2.35
				c15.46-5.62,30.48-13.44,41.68-25.74c12.23-13.43,15.82-30.43,14.81-48.16c-1.32-23.2-4.29-46.41-6.5-69.54
				c-2.25-23.58-4.5-47.15-6.75-70.73C664.54,1446.26,655.98,1453.66,656.43,1458.36L656.43,1458.36z"/>
		</g>
	</g>
	<g>
		<g>
			<path d="M675.3,1240.35c-20.33,26.21-46.73,49.25-80.28,55.33c-29,5.25-58.1-3.92-82.81-18.9
				c-16.71-10.13-31.71-22.81-45.39-36.71c-5.25-5.34-14.49,7.91-10.13,12.34c24.23,24.61,52.75,46.37,86.52,55.62
				c30.65,8.4,62.71,3.05,89.59-13.72c18.97-11.83,34.87-27.9,48.52-45.48c1.95-2.51,4.36-7.4,2.06-10.41
				C681.09,1235.45,676.97,1238.2,675.3,1240.35L675.3,1240.35z"/>
		</g>
	</g>
	<g>
		<g>
			<path d="M591.62,1052.59c-10.61-8.73-25.69-9.73-37.9-3.81c-12.45,6.03-20.1,19.3-21.26,32.81c-1.12,13.13,4.11,26.45,15.61,33.5
				c11.3,6.94,26.02,6.78,37.23-0.2c2.42-1.51,4.47-4.53,4.32-7.48c-0.13-2.48-2.16-4.04-4.49-2.59
				c-18.7,11.64-43.8-2.07-44.04-24.05c-0.26-23.74,27.85-31.24,44.42-17.61C589.16,1066.16,595.61,1055.87,591.62,1052.59
				L591.62,1052.59z"/>
		</g>
	</g>
	<g>
		<path d="M643.54,964.36c1.7-7.88-0.26-16.03-1.74-23.95c-1.48-7.92-2.41-16.51,1.11-23.73c3.52-7.22,13.14-11.82,19.66-7.27
			c6.9,4.82,5.91,15.18,6.44,23.7c0.42,6.78,2.3,13.37,3.29,20.08s1.05,13.89-1.96,19.95c-3,6.06-9.76,10.58-16.25,9.09
			c-6.49-1.49-10.66-10.43-6.48-15.72"/>
		<g>
			<path d="M647.82,963.28c1.28-7.08,0.54-13.96-0.73-20.99c-1.19-6.57-3.06-13.5-1.92-20.22c0.9-5.31,5.03-9.69,10.85-8.79
				c5.74,0.89,7.59,6.78,8.08,11.78c0.57,5.74,0.4,11.47,1.29,17.2c1.09,7,3.15,13.9,3.11,21.04c-0.04,6.12-2.28,13.24-9.52,13.63
				c-3.43,0.18-10.95-4.48-8.19-8.58c1.18-1.76,2.19-5.79-0.12-7.12c-2.49-1.44-5.08,1.76-6.23,3.46
				c-6.66,9.89-0.32,25.32,12.79,23.21c15.68-2.52,21.22-21.03,19.79-34.61c-0.87-8.29-3.36-16.32-3.71-24.67
				c-0.26-6.17-0.04-12.8-2.75-18.51c-6.11-12.89-21.61-8.09-28.6,1.22c-5.07,6.75-6.41,15.52-5.69,23.75
				c0.88,10.12,4.83,20.17,2.98,30.37c-0.42,2.32,0.49,4.89,3.25,4.4C645.25,969.37,647.37,965.76,647.82,963.28L647.82,963.28z"/>
		</g>
	</g>
	<g>
		<path d="M488.47,951.21c-3.45-7.71-6.99-15.91-6.04-24.33c0.95-8.42,8.28-16.7,16.46-15.25c8.88,1.58,12.59,12.42,13.75,21.55
			c1.24,9.77,1.56,19.67,0.94,29.5c-0.44,7.04-2.39,15.42-8.93,17.69c-5.75,2-12.12-2.34-14.68-7.96c-2.56-5.62-2.3-12.1-1.98-18.29
			"/>
		<g>
			<path d="M492.71,947.57c-3.2-7.18-12.66-28.02,1.15-30.41c10.45-1.81,13.76,13.02,14.61,20.42c0.75,6.52,1.08,13.1,1,19.67
				c-0.06,4.52,0.65,12.16-2.18,16.13c-3.22,4.5-9.78,0.27-12.1-3.1c-3.7-5.34-3.1-12.45-2.8-18.61c0.13-2.73-2.32-3.65-4.49-2.59
				c-2.66,1.3-4.18,4.68-4.32,7.48c-0.54,11.12,0.99,29.85,16.28,29.89c12.99,0.03,17.41-15.95,18.12-26.21
				c0.94-13.7,1.33-30.39-4.51-43.18c-5.03-11.02-16.74-14.69-26.21-6.22c-13.53,12.1-9.52,29.44-3.03,44.02
				C486.81,960.64,494.57,951.76,492.71,947.57L492.71,947.57z"/>
		</g>
	</g>
	<g>
		<g>
			<path d="M510.82,864.46c-26.16-0.84-51.06,11.21-67.56,31.37c-1.46,1.79-3.29,5.62-1.54,7.78c1.78,2.2,4.71,0.18,6.04-1.44
				c14.31-17.49,36.31-27.27,58.86-26.55C511.37,875.79,516.11,864.63,510.82,864.46L510.82,864.46z"/>
		</g>
	</g>
	<g>
		<g>
			<path d="M709.03,893.6c-16.66-19.44-42.38-28.87-67.64-24.56c-4.5,0.77-8.28,12.04-2.07,10.98c23.03-3.92,46.99,5.14,62.13,22.81
				C705.05,907.02,712.1,897.18,709.03,893.6L709.03,893.6z"/>
		</g>
	</g>
	<g>
		<g>
			<path d="M219.18,989.87c-37.68,5.78-66.3,40.25-69.59,77.42c-0.24,2.75,2.39,3.62,4.49,2.59c2.74-1.34,4.07-4.65,4.32-7.48
				c2.75-31.03,28.23-56.87,58.72-61.55C221.62,1000.16,225.43,988.91,219.18,989.87L219.18,989.87z"/>
		</g>
	</g>
	<g>
		<g>
			<path d="M938.68,990.65c34.87,4.7,62.83,40.03,59.12,75.15c-0.84,7.94,8,3.11,8.56-2.17c4.12-39.02-23.67-78.78-63.48-84.15
				C938.21,978.85,933.25,989.92,938.68,990.65L938.68,990.65z"/>
		</g>
	</g>
</g>
<g id="Ebene_8">
	<ellipse class="st9" cx="651.26" cy="923.61" rx="5.44" ry="5.55"/>
	<ellipse class="st9" cx="492.84" cy="928.38" rx="5.24" ry="5.35"/>
</g>
<g id="Ebene_30">
	<g>
		<path class="st7" d="M889.81,853.92c-28.03-96.75-62.71-173.48-130.77-244.21S598.43,491.97,503.31,493.62
			s-190.75,56.59-234.1,146.71c-20.11,41.81-18.48,94.58,4.17,134.89c22.65,40.31,68.19,83.13,109.67,67.76
			c155.78-57.7,334.7-53.01,505.57,10.79"/>
		<g>
			<path d="M894.97,849.48c-14.81-50.99-32.87-101.3-58.83-147.78c-25.9-46.39-59.69-88.56-99.71-123.54
				c-41.19-36-89.58-63.97-142.24-79.24c-49.35-14.32-101.97-16.38-151.83-3.38c-47.64,12.42-92.27,37.55-127,72.52
				c-36.69,36.94-65.51,85.06-65.54,138.41c-0.01,26.91,6.82,53.7,20.41,76.96c12.98,22.21,30.88,43.03,52.83,56.78
				c9.88,6.19,21.03,10.93,32.67,12.37c12.93,1.59,23.93-2.23,35.93-6.45c27.83-9.78,56.35-17.58,85.26-23.42
				c59.01-11.93,119.52-15.57,179.58-11.84c62.25,3.87,123.96,15.59,183.52,34.03c15.1,4.68,30.06,9.83,44.87,15.34
				c5.87,2.19,12.86-10.88,7.45-12.9c-112.85-41.99-234.49-60.5-354.51-47.14c-28.6,3.18-57,8.19-84.95,15.06
				c-13.61,3.35-27.1,7.14-40.46,11.38c-6.67,2.12-13.3,4.34-19.9,6.68c-6.22,2.2-12.3,4.77-18.88,5.68
				c-23.85,3.26-46.94-11.83-63.37-27.53c-18.41-17.6-33.91-39.8-42.09-64.03c-8.46-25.05-9.93-52.32-4.19-78.13
				c5.36-24.07,18.12-46.38,32.84-65.95c28.73-38.21,68.69-67.6,113.23-84.81c46.46-17.95,96.52-22.3,145.53-13.75
				c52.58,9.17,102.1,32.31,145.08,63.65c42.6,31.06,79.06,70.64,108.05,114.6c27.97,42.41,48.22,89.14,64.14,137.26
				c4.17,12.61,8.06,25.32,11.77,38.08C886.74,865.58,896.53,854.85,894.97,849.48L894.97,849.48z"/>
		</g>
	</g>
</g>
<g id="Ebene_14">
	<g class="st10">
		<path d="M141.49,982.21c-29.55,33.5-34.73,86.97-12.19,125.73c22.54,38.76,71.01,59.7,113.95,49.25
			c-35.29-11.51-65.97-37.13-84.02-70.16s-23.29-73.14-14.35-109.85"/>
		<g>
			<path d="M139.05,978.77c-24.54,28.25-33.84,68.35-25.49,104.69c8.2,35.7,35.13,64.5,69.65,76.35
				c19.01,6.53,39.31,7.95,58.92,3.33c3.01-0.71,9.39-10.04,4.43-11.69c-54.29-18.03-94.08-67.08-100.26-124.04
				c-1.87-17.25-0.78-34.55,3.22-51.42c0.6-2.52-0.63-5.29-3.52-4.78c-3.1,0.55-5.13,4.44-5.77,7.14
				c-14.29,60.2,7.58,124.96,57.24,162.33c12.86,9.68,27.2,17.17,42.46,22.24c1.48-3.9,2.96-7.79,4.43-11.69
				c-32.02,7.54-66.5-2.38-91.02-23.98c-25.67-22.61-37.1-57.57-32.14-91.16c2.76-18.65,10.31-36.18,22.71-50.44
				c1.63-1.88,3.54-6.15,1.67-8.44C143.63,974.79,140.54,977.06,139.05,978.77L139.05,978.77z"/>
		</g>
	</g>
	<g class="st10">
		<path d="M252.23,761.12c-22.43,59.94-33.1,124.44-31.22,188.58c0.25,8.39,8.21,15.71,16.41,15.08c8.2-0.63,15-9.08,14.01-17.41
			c-7.31-61.89-4.79-124.98,7.43-186.05"/>
		<g>
			<path d="M248.03,760.73c-20.99,56.42-31.95,116.46-32.01,176.68c-0.01,12.16-1.27,27.4,12.73,32.43
				c11.3,4.06,22.24-5.03,26.03-15.27c2.16-5.85,1.2-11.49,0.57-17.51c-0.87-8.31-1.57-16.63-2.08-24.97
				c-0.96-15.39-1.31-30.82-1.07-46.24c0.56-35.51,4.4-70.87,11.31-105.7c0.5-2.52-0.57-5.3-3.52-4.78
				c-3.02,0.53-5.23,4.44-5.77,7.14c-10.85,54.68-14.22,110.85-9.67,166.43c0.55,6.73,1.33,13.42,2,20.14
				c0.54,5.48-2.24,9.68-8.21,9.69c-4.75,0.01-9.27-3.33-11.38-7.46c-2.76-5.39-1.39-14.26-1.37-20.13
				c0.08-27.24,2.44-54.43,7.03-81.27c5.16-30.15,13.15-59.72,23.82-88.38c0.81-2.17,1.09-5.97-1.92-6.45
				C251.56,754.59,248.87,758.46,248.03,760.73L248.03,760.73z"/>
		</g>
	</g>
	<g class="st10">
		<path d="M267.84,643.54c-18.51,51.01-6.1,112.29,30.7,151.62c36.8,39.33,96.2,54.78,146.94,38.21
			c142.21-46.41,299.87-41.75,439.21,12.98c-49.21-54.39-120.5-82.38-191.37-98.11c-70.87-15.73-143.79-21-214.07-39.25
			c-70.29-18.25-140.13-51.75-183.49-111.11"/>
		<g>
			<path d="M263.64,643.15c-15.53,43.55-10.74,93.33,12.9,133.11c23.6,39.71,66.39,65.23,112.22,69.21
				c11.27,0.98,22.66,0.61,33.84-1.04c12.19-1.8,23.66-5.84,35.41-9.38c26.22-7.9,52.94-14.1,79.95-18.59
				c54.19-9.01,109.5-11.03,164.22-6.21c61.35,5.4,121.84,19.41,179.21,41.85c4.51,1.76,10.72-7.12,7.42-10.74
				C832.17,779.18,749.59,752,669.18,736.78c-88.83-16.82-181.56-22.1-264.48-61.21c-40.75-19.22-77.94-46.16-104.82-82.68
				c-3.48-4.73-11.28,5.84-8.22,10.01c48.76,66.26,127.94,99.57,205.91,117.15c89.27,20.12,182.68,23.19,268.7,56.59
				c42.81,16.63,83.19,40.56,114.32,74.73c2.47-3.58,4.95-7.16,7.42-10.74c-99.57-38.95-208.03-52.78-314.23-40.76
				c-26.6,3.01-53.02,7.65-79.05,13.93c-13.02,3.14-25.95,6.69-38.75,10.65c-11.29,3.49-22.31,7-34.09,8.48
				c-44.83,5.61-92.46-12.03-122.25-46.09c-33.48-38.27-44.71-94.93-27.6-142.9c0.78-2.18,1.12-5.96-1.92-6.45
				C267.2,637.01,264.45,640.87,263.64,643.15L263.64,643.15z"/>
		</g>
	</g>
	<g class="st10">
		<path d="M871.75,860.76c9.73,35.65,33.43,67.11,64.69,85.86c-11.15,11.55-31.13,9.74-43.4-0.57
			c-12.27-10.3-18.04-26.71-20.45-42.74c-2.41-16.03-2.04-32.42-4.78-48.39"/>
		<g>
			<path d="M867.15,864.71c10.11,36.27,33.74,68.06,65.97,87.65c0.67-3.45,1.34-6.9,2.01-10.35c-7.01,6.87-17.36,7.82-26.48,5.03
				c-10.58-3.23-18.3-11.46-23.38-21.01c-12.14-22.8-8.82-50.34-12.87-75.06c-0.52-3.16-4.26-1.98-5.9-0.66
				c-2.49,2.01-3.81,5.44-3.3,8.56c4.52,27.54,0.53,58.18,17.03,82.47c12.61,18.55,39.93,27.11,57.5,9.9
				c2.05-2.01,5.8-8.05,2.01-10.35c-30.96-18.81-53.68-49.22-63.4-84.07C874.55,850.39,865.81,859.93,867.15,864.71L867.15,864.71z"
				/>
		</g>
	</g>
	<g class="st10">
		<path d="M242.69,1163.34c33.22,107.5,116.69,197.55,219.99,237.34s224.22,28.47,318.71-29.84
			c-79.55,78.97-202.59,108.85-308.44,74.88S282.9,1315.4,261.89,1204.16"/>
		<g>
			<path d="M238.09,1167.29c24.9,79.96,76.93,150.71,145.55,198.68c73.21,51.19,163.49,72.34,251.98,61.29
				c51.52-6.44,101.6-23.79,145.86-50.96c-0.46-3.36-0.93-6.71-1.39-10.07c-62.98,62.19-153.24,93.79-241.28,86.14
				c-85.51-7.42-162.96-53.97-214.25-122.14c-28.86-38.36-49.04-82.85-58.07-130.03c-0.6-3.12-4.21-2.02-5.9-0.66
				c-2.43,1.97-3.89,5.48-3.3,8.56c16.35,85.43,69.27,162.68,142.18,209.91c75.07,48.63,168.69,59.73,253.95,33.79
				c48.39-14.72,93.23-40.78,129.26-76.35c1.98-1.96,3.96-4.96,3.39-7.91c-0.47-2.38-2.49-3.56-4.78-2.16
				c-77.2,47.38-171.79,63.51-260.48,45.51c-82.28-16.71-156.05-64.15-208.36-129.44c-29.05-36.26-51.35-77.68-65.16-122.06
				C245.29,1152.97,236.61,1162.54,238.09,1167.29L238.09,1167.29z"/>
		</g>
	</g>
	<g class="st10">
		<path d="M484.69,1559.5c64.47-23.47,125.2-57.64,179.08-100.75c-58.18,9.4-117.29,12.8-176.13,10.13
			c-2.32,30.06-4.65,60.12-6.97,90.17"/>
		<g>
			<path d="M483.57,1565.45c65.6-23.99,126.91-58.54,181.5-102.1c2.56-2.04,6.2-11.59-0.18-10.57
				c-57.83,9.28-116.46,12.61-174.98,10.02c-4.3-0.19-6.78,5.17-7.05,8.71c-2.32,30.06-4.65,60.12-6.97,90.17
				c-0.23,2.98,2.57,3.93,4.87,2.81c2.95-1.44,4.45-5.05,4.68-8.11c2.32-30.06,4.65-60.12,6.97-90.17c-2.35,2.9-4.7,5.81-7.05,8.71
				c59.27,2.62,118.71-0.84,177.29-10.23c-0.06-3.52-0.12-7.04-0.18-10.57c-53.08,42.35-112.88,76.08-176.66,99.41
				c-2.98,1.09-5.23,4-5.77,7.14C479.7,1562.76,480.53,1566.56,483.57,1565.45L483.57,1565.45z"/>
		</g>
	</g>
	<g class="st10">
		<path d="M143.4,1775.95c62.55,69.41,149.91,114.99,241.66,126.08c-103.29,11.56-205.53-28.82-309.42-30.87
			c22.35-31.51,44.69-63.03,67.04-94.54"/>
		<g>
			<path d="M139.29,1780.96c49.11,54.26,112.86,94.22,183.11,114.72c19.76,5.77,39.95,9.9,60.37,12.41
				c1.13-4.01,2.27-8.01,3.4-12.02c-80.84,8.8-160.42-13.83-239.83-25.01c-22.69-3.19-45.51-5.46-68.43-5.96
				c0.05,3.17,0.11,6.33,0.16,9.5c22.35-31.51,44.69-63.03,67.04-94.54c1.46-2.06,3.65-6.01,1.67-8.44
				c-1.86-2.29-5.21-0.32-6.55,1.56c-22.35,31.51-44.69,63.03-67.04,94.54c-1.23,1.73-4.71,9.39,0.16,9.5
				c82.1,1.79,161.38,26.82,243.13,32.03c22.49,1.43,45.03,1.17,67.44-1.27c4.07-0.44,9.17-11.31,3.4-12.02
				c-71.05-8.74-138.9-37.88-194.77-82.56c-16.15-12.92-31.18-27.12-45.06-42.45C143.46,1766.48,135.88,1777.18,139.29,1780.96
				L139.29,1780.96z"/>
		</g>
	</g>
	<g class="st10">
		<path d="M288.74,1699.1c3.4,8.48,6.8,16.95,10.2,25.43c-7.61,2.83-17.06-1.69-19.79-9.48c-2.73-7.79,1.76-17.41,9.4-20.15"/>
		<g>
			<path d="M284.14,1703.05c3.4,8.48,6.8,16.95,10.2,25.43c1.91-3.3,3.81-6.6,5.72-9.91c-5.72,1.82-12.21-0.41-15.39-5.64
				c-3.1-5.1-1.4-10.35,3.96-12.58c4.73-1.96,7.1-13.94-0.18-10.92c-10.1,4.19-16.85,16.97-14.4,27.69
				c2.39,10.48,13.62,16.59,23.77,13.36c3.36-1.07,7.2-6.22,5.72-9.91c-3.4-8.48-6.8-16.95-10.2-25.43
				C290.79,1688.81,282.28,1698.42,284.14,1703.05L284.14,1703.05z"/>
		</g>
	</g>
	<g class="st10">
		<path d="M331.15,1773.38c4.05,8.06,8.1,16.12,12.15,24.17c-7.52,2.23-16.36-2.46-18.89-10.03s1.65-16.8,8.94-19.73"/>
		<g>
			<path d="M327.04,1778.38c4.05,8.06,8.1,16.12,12.15,24.17c1.74-3.65,3.49-7.31,5.23-10.96c-5.53,1.35-11.58-1.14-14.49-6.11
				c-2.83-4.83-1.53-9.92,3.51-12.24c4.63-2.13,6.96-14.21-0.18-10.92c-9.72,4.47-16.18,16.65-13.93,27.22
				c2.21,10.34,12.75,16.43,22.84,13.97c4.18-1.02,7.15-7.14,5.23-10.96c-4.05-8.06-8.1-16.12-12.15-24.17
				c-1.41-2.8-5.38,0.19-6.55,1.56C326.77,1772.21,325.64,1775.6,327.04,1778.38L327.04,1778.38z"/>
		</g>
	</g>
	<g class="st10">
		<path d="M339.61,1857.8c4.52,7.54,9.05,15.08,13.57,22.62c-6.77,1.51-14.31-2.26-17.3-8.64c-2.99-6.38-1.12-14.74,4.28-19.17"/>
		<g>
			<path d="M335.5,1862.81c4.52,7.54,9.05,15.08,13.57,22.62c1.74-3.65,3.49-7.31,5.23-10.96c-4.85,0.83-9.99-1.27-12.89-5.28
				c-2.46-3.41-3.36-8.87,0.05-11.96c2.13-1.93,4.3-5.58,3.3-8.56c-0.96-2.87-4.02-2.36-5.9-0.66c-7.1,6.44-11.35,16.98-8.11,26.43
				c3.07,8.96,12.27,13.49,21.3,11.95c4.03-0.69,7.35-7.42,5.23-10.96c-4.52-7.54-9.05-15.08-13.57-22.62
				C340.8,1847.94,332.83,1858.35,335.5,1862.81L335.5,1862.81z"/>
		</g>
	</g>
	<g class="st10">
		<path d="M366.79,1616.64c39.06,111.06,102.24,213.19,183.65,296.94c-40.34-2.75-80.69-5.49-121.03-8.24
			c20.66-49.14,23.15-106,6.87-156.83c-16.29-50.83-51.21-95.19-96.33-122.36c5.94-3.58,11.87-7.17,17.81-10.75"/>
		<g>
			<path d="M362.2,1620.59c30.52,86.49,75.4,167.85,132.63,239.54c16.21,20.31,33.42,39.8,51.51,58.45
				c2.13-3.69,4.26-7.38,6.39-11.06c-40.34-2.75-80.69-5.49-121.03-8.24c0.64,2.15,1.28,4.3,1.92,6.45
				c33.51-80.6,19.35-176.12-38.56-241.86c-14.96-16.99-32.44-31.71-51.79-43.45c-1.07,3.73-2.15,7.46-3.22,11.2
				c5.94-3.58,11.87-7.17,17.81-10.75c2.64-1.59,4.85-4.94,4.68-8.11c-0.14-2.72-2.33-4.34-4.87-2.81
				c-5.94,3.58-11.87,7.17-17.81,10.75c-2.74,1.65-7.38,8.67-3.22,11.2c69.4,42.14,109.88,120.97,105.1,201.84
				c-1.45,24.49-7.12,48.58-16.53,71.22c-0.8,1.93-1.13,6.24,1.92,6.45c40.34,2.75,80.69,5.49,121.03,8.24
				c3.96,0.27,9.62-7.73,6.39-11.06c-63.6-65.55-116.01-141.91-154.33-224.82c-10.73-23.22-20.32-46.95-28.83-71.07
				C369.13,1606.3,360.54,1615.89,362.2,1620.59L362.2,1620.59z"/>
		</g>
	</g>
	<g class="st10">
		<path d="M418.09,1628.38c36.18,29.56,72.35,59.12,108.53,88.68c2.82,11.62-12.39,22.78-22.28,16.34
			c-39.23-25.53-69.54-65.06-84.41-110.07"/>
		<g>
			<path d="M414.78,1634.12c35.13,28.7,71.01,56.69,105.47,86.18c5.82,4.98-4.65,9.7-9.3,8.75c-3.78-0.78-7.32-4.02-10.39-6.22
				c-3.81-2.72-7.53-5.58-11.15-8.56c-14.04-11.57-26.44-25.1-36.97-39.92c-11.98-16.86-21.35-35.36-27.91-54.97
				c-2.14-6.41-10.77,3.17-9.19,7.9c13.25,39.6,37.74,74.96,70.49,100.92c6.39,5.07,14.72,13.32,23.42,13.12
				c8.28-0.19,15.61-6.14,19.52-13.12c2.12-3.78,3.28-8.26,2.86-12.59c-0.53-5.39-6.97-8.6-10.86-11.78
				c-10.19-8.33-20.38-16.65-30.57-24.98c-22.93-18.73-45.86-37.47-68.79-56.21C417.44,1619.4,410.45,1630.58,414.78,1634.12
				L414.78,1634.12z"/>
		</g>
	</g>
	<g class="st10">
		<path d="M583.28,1678.28c34.73,12.28,74.05,10.41,107.51-5.13c-8.85,13.05-18.87,25.67-31.93,34.27
			c-13.07,8.6-29.68,12.74-44.46,7.82s-26.5-20.32-24.53-36.06"/>
		<g>
			<path d="M579.97,1684.01c36.35,12.59,75.94,10.57,110.92-5.4c-1.18-2.48-2.36-4.97-3.53-7.45
				c-12.39,18.16-28.34,36.36-51.33,39.69c-10.22,1.48-20.7-0.72-28.93-7.07c-7.66-5.91-13.56-15.85-12.57-25.79
				c0.85-8.62-8.72-3.39-9.29,2.36c-2.58,26.07,20.22,45.17,45.37,42.78c28.61-2.72,48.48-25.78,63.64-48
				c2.22-3.26,1.63-9.81-3.53-7.45c-32.5,14.84-70.37,16.54-104.11,4.85C581.32,1670.71,575.17,1682.35,579.97,1684.01
				L579.97,1684.01z"/>
		</g>
	</g>
	<g class="st10">
		<path d="M570.44,1694.21c8.11,40.84,26.86,79.42,53.82,110.71c-5.34,6.47-14.5,9.34-22.47,7.05s-14.33-9.62-15.59-17.97
			c-4.52-30.03-9.04-60.06-13.56-90.09"/>
		<g>
			<path d="M565.84,1698.16c8.31,41.12,27.03,79.87,54.3,111.76c0.56-2.81,1.11-5.63,1.67-8.44c-6.37,7.17-17.87,6.48-24.66,0.37
				c-7.94-7.15-7.54-19.63-9.02-29.43c-3.64-24.16-7.27-48.31-10.91-72.47c-0.48-3.17-4.29-1.96-5.9-0.66
				c-2.51,2.03-3.77,5.43-3.3,8.56c4.32,28.73,8.65,57.45,12.97,86.18c1.6,10.61,6.56,20.23,17.46,23.68
				c10.55,3.34,21.18-1.42,28.22-9.35c1.59-1.79,3.56-6.23,1.67-8.44c-26.86-31.4-45.14-69.16-53.33-109.65
				c-0.63-3.11-4.19-2.04-5.9-0.66C566.73,1691.55,565.22,1695.09,565.84,1698.16L565.84,1698.16z"/>
		</g>
	</g>
	<g class="st10">
		<path d="M563.89,1729.91c-2.63,34.78-5.26,69.56-7.89,104.34c-14.12-35.82-8.32-79.07,14.72-109.69"/>
		<g>
			<path d="M559.11,1732.56c-2.63,34.78-5.26,69.56-7.89,104.34c3.12-2.2,6.25-4.4,9.37-6.6c-12.91-33.49-9-73.19,12.56-102.3
				c1.5-2.02,3.63-6.04,1.67-8.44c-1.89-2.32-5.18-0.29-6.55,1.56c-24.6,33.22-31.85,78.26-16.88,117.08
				c0.98,2.53,3.27,2.45,5.29,1.09c2.55-1.72,3.85-4.71,4.08-7.69c2.63-34.78,5.26-69.56,7.89-104.34c0.23-2.98-2.57-3.94-4.87-2.81
				C560.85,1725.88,559.34,1729.5,559.11,1732.56L559.11,1732.56z"/>
		</g>
	</g>
	<g class="st10">
		<path d="M542.59,1762.62c-8.08,27.75-16.15,55.5-24.23,83.24c-8.38,4.22-19.22-6.88-15.07-15.42c15.11-31.1,30.22-62.2,45.32-93.3
			"/>
		<g>
			<path d="M538.39,1762.23c-8.08,27.75-16.15,55.5-24.23,83.24c1.37-1.69,2.74-3.38,4.11-5.07c-5.81,2.46-12.52-5.48-10.23-10.67
				c4.56-10.31,9.89-20.36,14.82-30.5c9.73-20.04,19.47-40.07,29.2-60.11c1-2.07,2.57-6.17-0.13-7.72c-2.5-1.44-5.78,1.75-6.75,3.75
				c-15.1,31.09-30.63,62.02-45.32,93.3c-4.41,9.38-1.05,21.94,10.29,24.16c6.95,1.36,11.41-2.89,13.24-9.19
				c2.39-8.2,4.77-16.4,7.16-24.59c5.41-18.6,10.83-37.21,16.24-55.81c0.64-2.2,1.21-5.95-1.92-6.45
				C542.06,1756.11,539.06,1759.93,538.39,1762.23L538.39,1762.23z"/>
		</g>
	</g>
	<g class="st10">
		<path d="M573.86,1825.73c-0.52,29.27,10.78,58.58,30.69,79.64c-9.11,6.99-23.06,4.45-31.16-3.74
			c-8.11-8.19-11.02-20.57-10.29-32.19c0.73-11.62,4.66-22.74,8.55-33.68"/>
		<g>
			<path d="M569.08,1828.38c-0.31,30.13,10.78,59.9,31.35,81.99c0.94-3.2,1.87-6.41,2.81-9.61c-12.74,9.06-28.73-3.77-33.02-15.73
				c-5.88-16.36,0.09-33.33,5.62-48.88c0.77-2.18,1.12-5.96-1.92-6.45c-2.92-0.47-5.67,3.4-6.48,5.67
				c-6.9,19.4-14.07,41.51-4.81,61.41c7.8,16.75,27.53,24.35,43.21,13.2c2.08-1.48,5.1-7.15,2.81-9.61
				c-19.52-20.96-30.31-48.64-30.02-77.29c0.03-2.94-2.44-4-4.87-2.81C570.97,1821.64,569.11,1825.38,569.08,1828.38L569.08,1828.38
				z"/>
		</g>
	</g>
	<g class="st10">
		<path d="M863.13,1695.6c-4.01,9.17-8.02,18.34-12.02,27.51c-9.09-12.4,0.47-33.54,15.61-34.51"/>
		<g>
			<path d="M858.93,1695.21c-4.01,9.17-8.02,18.34-12.02,27.51c2.77-1.54,5.54-3.07,8.31-4.61c-6.48-9.47-1.24-22.41,10.38-23.55
				c4.91-0.48,9.11-12.59,2.25-11.91c-19.61,1.92-31.8,29.46-20.84,45.47c2.71,3.96,7.37-2.46,8.31-4.61
				c4.01-9.17,8.02-18.34,12.02-27.51c0.93-2.14,1.01-5.98-1.92-6.45C862.36,1689.05,859.9,1692.97,858.93,1695.21L858.93,1695.21z"
				/>
		</g>
	</g>
	<g class="st10">
		<path d="M812.6,1767.78c-0.71,9.39-1.42,18.77-2.12,28.16c-9.9-6.74-11.34-23.23-2.77-31.65"/>
		<g>
			<path d="M807.82,1770.43c-0.71,9.39-1.42,18.77-2.12,28.16c2.7-2.8,5.39-5.59,8.09-8.39c-6.73-4.95-9.81-15.97-3.65-22.48
				c1.7-1.8,3.5-6.2,1.67-8.44c-2.01-2.47-4.99-0.08-6.55,1.56c-10.61,11.21-11.09,31.27,1.9,40.83c4.09,3.01,7.88-5.7,8.09-8.39
				c0.71-9.39,1.42-18.77,2.12-28.16c0.22-2.98-2.57-3.94-4.87-2.81C809.56,1763.76,808.05,1767.37,807.82,1770.43L807.82,1770.43z"
				/>
		</g>
	</g>
	<g class="st10">
		<path d="M806.75,1843.94c-0.91,7.95-1.81,15.9-2.72,23.86c-10.78-4.31-12.26-22.39-2.33-28.46"/>
		<g>
			<path d="M802.11,1845.12c-0.91,7.95-1.81,15.9-2.72,23.86c2.65-2.31,5.3-4.61,7.96-6.92c-3.86-1.74-6.37-4.91-7.23-9.09
				c-0.52-2.52-0.79-6.52,1.68-8.18c2.59-1.74,4.85-4.84,4.68-8.11c-0.13-2.6-2.37-4.49-4.87-2.81
				c-12.46,8.38-17.23,32.29-0.89,39.66c3.75,1.69,7.59-3.73,7.96-6.92c0.91-7.95,1.81-15.9,2.72-23.86
				C812.38,1834.15,802.76,1839.39,802.11,1845.12L802.11,1845.12z"/>
		</g>
	</g>
	<g class="st10">
		<g>
			<path d="M1254.26,1295.07c5.16,0,10.22-12.12,4.56-12.12C1253.66,1282.95,1248.6,1295.07,1254.26,1295.07L1254.26,1295.07z"/>
		</g>
	</g>
	<g class="st10">
		<g>
			<path d="M533.39,1068.31c-3.18,14.13,1.04,28.04,10.64,38.75c9.71,10.84,23.31,15.08,37.44,13.16c7.1-0.97,10.97-10.06,9.25-16.3
				c-2.1-7.65-9.18-10.22-16.3-9.25c2.71-0.37-3.6-0.44-0.76-0.04c-1.07-0.15-2.11-0.46-3.14-0.76c-0.25-0.07-2.46-0.97-1.45-0.5
				c0.78,0.36-3.32-2.03-2.73-1.61c0.81,0.58-1.04-0.89-1.23-1.06c-0.82-0.76-1.58-1.55-2.35-2.37c-0.83-0.89-2.96-4.6-3.23-5.62
				c-0.23-0.85-0.46-1.7-0.7-2.55c-0.98-3.57-0.08,1-0.14-1.05c-0.03-0.89-0.04-1.76,0.01-2.65c0.13-2.27-0.66,2.87,0.23-1.11
				c1.57-6.97-2.12-14.34-9.25-16.3C543.02,1057.23,534.96,1061.3,533.39,1068.31L533.39,1068.31z"/>
		</g>
	</g>
</g>
<g id="Ebene_15">
	<g class="st10">
		<g>
			<path class="st0" d="M529.92,557.65c1.45,0.19,2.95,0.31,4.38,0.59c-4.7-0.94-1.97-0.3-0.91-0.12c2.42,0.41,4.84,0.8,7.25,1.24
				c5.31,0.98,10.58,2.11,15.83,3.37c2.38,0.57,4.76,1.18,7.13,1.81c-4.17-1.12,0.6,0.19,1.2,0.37c0.94,0.27,1.88,0.55,2.82,0.83
				c5.17,1.54,10.3,3.23,15.39,5.04c4.63,1.65,9.21,3.41,13.76,5.27c5.8,2.38,8.27,3.48,12.73,5.61
				c9.34,4.45,18.46,9.36,27.33,14.68c35.32,21.2,66.29,49.07,91.16,81.91c14.13,18.66,26.15,38.84,35.84,60.14
				c1.21,2.65,8.04,4.17,10.15,4.62c5.35,1.14,11.58,1.41,17.01,0.78c4.54-0.53,18.77-2.15,15.42-9.51
				c-36.36-79.89-106.03-142.37-188.01-172.92c-24.77-9.23-50.55-15.21-76.74-18.63c-5.36-0.7-11.73-0.34-17.01,0.78
				c-2.77,0.59-8.31,1.89-10.15,4.62C509.86,555.04,527.18,557.29,529.92,557.65L529.92,557.65z"/>
		</g>
	</g>
	<g class="st10">
		<g>
			<path class="st0" d="M817.28,679.11c31.89,48.96,54.7,103.22,67.41,160.25c2.78,12.47,46.08,8.64,44.16,0
				c-12.99-58.33-36.36-114.28-68.98-164.36c-1.78-2.73-7.44-4.04-10.15-4.62c-5.35-1.14-11.58-1.41-17.01-0.78
				C829.13,670.02,812.82,672.27,817.28,679.11L817.28,679.11z"/>
		</g>
	</g>
	<g class="st10">
		<g>
			<path class="st0" d="M963.9,987.78c18.34,20.54,28.61,46.45,29.53,73.96c0.25,7.36,17.34,7.8,22.08,7.73
				c5.22-0.08,10.67-0.45,15.61-2.26c2.26-0.83,6.57-2.45,6.47-5.46c-0.95-28.59-12.03-56.71-31.1-78.06
				c-5.82-6.51-19.27-6.31-27.16-5.4C976.67,978.58,958.45,981.67,963.9,987.78L963.9,987.78z"/>
		</g>
	</g>
	<g class="st10">
		<g>
			<path class="st0" d="M830.09,1169.34c-14.99,58.22-46.75,111.75-90.26,153.21c-12.02,11.45-24.97,21.78-38.72,31.08
				c-7.83,5.29,3.06,9.64,7.92,10.57c8.72,1.67,22.31,2.57,30.21-2.77c51.57-34.86,92.67-84.19,117.5-141.28
				c7.15-16.45,13.04-33.44,17.51-50.81C876.32,1161.29,833.36,1156.62,830.09,1169.34L830.09,1169.34z"/>
		</g>
	</g>
	<g class="st10">
		<g>
			<path class="st0" d="M608.17,1542.85c0,20.62,0,41.24,0,61.86c0,2.92,4.48,4.73,6.47,5.46c4.72,1.74,10.65,2.34,15.61,2.26
				c5.22-0.08,10.67-0.45,15.61-2.26c2.33-0.85,6.47-2.42,6.47-5.46c0-20.62,0-41.24,0-61.86c0-2.92-4.48-4.73-6.47-5.46
				c-4.72-1.74-10.65-2.34-15.61-2.26c-5.22,0.08-10.67,0.45-15.61,2.26C612.31,1538.24,608.17,1539.8,608.17,1542.85
				L608.17,1542.85z"/>
		</g>
	</g>
	<g class="st10">
		<g>
			<path class="st0" d="M891.24,1740.09c26.94,28.76,43.09,65.8,46.04,105.07c0.56,7.41,17.1,7.81,22.08,7.73
				c5.22-0.08,10.67-0.45,15.61-2.26c2.18-0.8,6.69-2.48,6.47-5.46c-3.03-40.38-19.91-79.6-47.62-109.18
				c-6.03-6.43-19.12-6.33-27.16-5.4C904.14,1730.88,885.65,1734.12,891.24,1740.09L891.24,1740.09z"/>
		</g>
	</g>
	<g class="st10">
		<g>
			<path class="st0" d="M865.86,1706.37c5.03,0,10.83-0.5,15.61-2.26c1.99-0.73,6.47-2.54,6.47-5.46c0-7.25-18.25-7.73-22.08-7.73
				c-5.03,0-10.83,0.5-15.61,2.26c-1.99,0.73-6.47,2.54-6.47,5.46C843.78,1705.89,862.03,1706.37,865.86,1706.37L865.86,1706.37z"/>
		</g>
	</g>
	<g class="st10">
		<g>
			<path class="st0" d="M814.25,1775.11c5.03,0,10.83-0.5,15.61-2.26c1.99-0.73,6.47-2.54,6.47-5.46c0-7.25-18.25-7.73-22.08-7.73
				c-5.03,0-10.83,0.5-15.61,2.26c-1.99,0.73-6.47,2.54-6.47,5.46C792.17,1774.63,810.42,1775.11,814.25,1775.11L814.25,1775.11z"/>
		</g>
	</g>
	<g class="st10">
		<g>
			<path class="st0" d="M805.27,1855.29c5.03,0,10.83-0.5,15.61-2.26c1.99-0.73,6.47-2.54,6.47-5.46c0-7.25-18.25-7.73-22.08-7.73
				c-5.03,0-10.83,0.5-15.61,2.26c-1.99,0.73-6.47,2.54-6.47,5.46C783.19,1854.81,801.44,1855.29,805.27,1855.29L805.27,1855.29z"/>
		</g>
	</g>
	<g class="st10">
		<g>
			<path class="st0" d="M339.43,1678c41.85,51.01,65.49,115.09,67.4,181c0.21,7.35,17.36,7.8,22.08,7.73
				c5.22-0.08,10.67-0.45,15.61-2.26c2.27-0.83,6.55-2.44,6.47-5.46c-1.94-67.03-26.41-133.24-68.97-185.11
				c-5.44-6.63-19.55-6.28-27.16-5.4C351.96,1668.83,334.24,1671.68,339.43,1678L339.43,1678z"/>
		</g>
	</g>
	<g class="st10">
		<g>
			<path class="st0" d="M751.51,1700.58c-15.66,29.05-31.31,58.1-46.97,87.15c-3.83,7.11,11.36,9.17,15.42,9.51
				c5.62,0.46,11.5,0.5,17.01-0.78c3.03-0.7,8.53-1.62,10.15-4.62c15.66-29.05,31.31-58.1,46.97-87.15
				c3.83-7.11-11.37-9.17-15.42-9.51c-5.62-0.46-11.5-0.5-17.01,0.78C758.63,1696.66,753.12,1697.58,751.51,1700.58L751.51,1700.58z
				"/>
		</g>
	</g>
</g>
<g id="Ebene_16">
	<g>
		<g id="Ebene_7">
			<g>
				<path class="st11" d="M891.98,1046.81c-14.65,5.93-17.06,28.09-4.1,37.79c-38.16,47.01-31.28,122.29,15.15,165.85
					c14.72,13.82,33.17,24.69,53.32,28.22c37.2,6.53,74.43-13.64,94.33-42.86c7.6-11.16,13.12-23.49,18.6-35.76
					c11.68-26.15,23.37-52.29,35.06-78.43c3.26-7.27,6.56-14.86,6.13-22.88c-0.9-16.73-17.22-29.27-32.7-38.06
					c-37.87-21.51-80.23-35.61-123.46-41.09c-12.34-1.56-25.07-2.41-36.8,0.87c-11.73,3.28-22.38,11.41-25.16,22.68"/>
				<g>
					<path class="st11" d="M892.06,1042.78c-17.04,7.37-25.27,32.32-8.5,45.46c0.28-1.7,0.55-3.42,0.83-5.12
						c-27.2,33.84-33.13,80.74-17.89,121.99c16.41,44.44,62.1,85.46,114.24,78.38c24.06-3.26,45.61-15.68,61.75-32.03
						c19.99-20.25,29.62-47.77,40.9-72.98c6.24-13.96,12.48-27.92,18.71-41.87c3.07-6.87,6.28-13.7,9.17-20.65
						c2.55-6.14,4.63-12.79,4.14-19.57c-1.76-24.16-29.9-38.33-50.02-48.35c-28.14-14.02-58.34-24.05-89.25-29.82
						c-26.83-5.01-59.47-9.77-79.59,10.54c-4.25,4.29-7.4,9.41-8.96,15.18c-0.63,2.33,0.94,3.88,3.44,3.59
						c2.63-0.31,5.46-2.75,6.11-5.15c6.76-24.93,42.85-20.29,63.61-17.09c29.14,4.51,57.71,13,84.67,25.03
						c12.33,5.49,24.66,11.55,35.95,18.88c8.67,5.62,17.56,12.93,21.75,22.23c5.5,12.18-0.22,23.53-5.13,34.52
						c-5.74,12.85-11.49,25.7-17.23,38.56c-5.82,13.01-11.61,26.04-17.45,39.04c-5.31,11.8-10.78,23.84-18.61,34.32
						c-12.16,16.26-29.84,29.19-50.44,34.75c-47.32,12.8-93.49-21.11-113.05-61.24c-17.6-36.1-17.93-79.68,2.02-113.5
						c2.43-4.11,5.15-8.02,8.16-11.76c0.84-1.05,2.47-3.85,0.83-5.12c-5.42-4.25-8.04-10.38-7.78-16.82
						c0.2-5.14,2.28-11.04,7.48-13.29c2.31-1,5.13-3.2,5.04-5.89C896.86,1042.43,894.1,1041.9,892.06,1042.78L892.06,1042.78z"/>
				</g>
			</g>
			<g>
				<g>
					<path class="st11" d="M925.28,1281.81c4.42,1.44,11.89-6.79,7.04-8.37C927.91,1271.99,920.43,1280.23,925.28,1281.81
						L925.28,1281.81z"/>
				</g>
			</g>
			<g>
				<g>
					<path class="st11" d="M917.42,1281.85c1.17,8.65,7.83,16.15,17.3,17.45c9.87,1.36,19.39-4.44,23.85-12.23
						c0.62-1.09,1.32-4.04-0.76-4.55c-9.65-2.33-19.3-4.66-28.96-7c-2.74-0.66-5.38,0.72-7.01,2.71c-0.9,1.1-2.8,5-0.03,5.66
						c9.65,2.33,19.3,4.66,28.96,7c-0.25-1.51-0.51-3.03-0.76-4.55c-5.84,10.19-21.42,0.94-22.67-8.23
						C926.55,1272.35,916.85,1277.67,917.42,1281.85L917.42,1281.85z"/>
				</g>
			</g>
		</g>
		<g id="Ebene_5_1_">
			<g>
				<path class="st4" d="M1114.98,1074.49c23.16-72.13,90.37-121.45,156.21-163.16c65.84-41.72,136.63-83.19,173.78-149.43
					c46.99-83.78,27.11-195.26-37.89-272.41c-65-77.15-168.8-120.75-271.18-126.57c-63.81-3.63-128.61,6.63-183.68,34.78
					c-55.07,28.15-112.23,80.21-130.62,137.02c-25.49,78.73,12.93,160,40.16,240.35s56.22,165.33,36.52,245.73
					c74.25-6.68,152.25,15.21,212.53,59.64"/>
				<g>
					<path class="st4" d="M1119.75,1073.71c20.31-62.53,74.18-106.98,128.65-143.39c54.81-36.64,114.1-68.35,160.26-115.01
						c21.87-22.1,40-47.53,51.59-76.02c10.66-26.19,15.64-54.61,15.48-83.03c-0.33-57.27-21.05-115.17-57.74-162.28
						c-39.7-51-97.19-88.65-159.07-110.93c-63.38-22.82-132.44-30.46-198.3-21.9c-32.81,4.26-64.99,12.75-94.65,25.98
						c-29.26,13.05-56.1,30.6-79.72,51.23c-23.96,20.93-45.28,45.41-59.52,73.4c-13.64,26.82-19.37,56.72-18.33,86.91
						c2.15,62.46,29.25,122.33,49.37,181.69c21.38,63.09,43.93,128.31,41.9,194.46c-0.49,15.81-2.47,31.46-6.17,46.75
						c-0.58,2.39,0.84,3.82,3.44,3.59c57.09-5,116.15,7.01,167.7,33.21c14.65,7.45,28.66,16.04,41.84,25.7
						c4.02,2.95,12.32-4.58,8.64-7.28c-47.76-35.03-105.87-56.35-165.13-60.75c-16.84-1.25-33.69-1.08-50.38,0.39
						c1.15,1.2,2.29,2.39,3.44,3.59c15.21-62.89,1.47-128.45-17.67-190.57c-9.57-31.05-20.24-61.87-31.25-92.54
						c-10.67-29.74-21.46-59.58-28.53-90.17c-6.79-29.36-9.9-59.67-5.03-89.07c4.91-29.7,18.56-56.48,37.48-79.98
						c38.5-47.84,94.29-83.44,156.31-99.43c62.98-16.23,131.94-15.27,196.35,0.7c63.74,15.81,124.6,46.56,171.25,91.87
						c43.54,42.29,72.24,96.67,81.09,154.12c8.82,57.3-3.5,115.23-38.57,161.31c-38.59,50.7-95.94,84.69-150.15,118.93
						c-55.07,34.78-111.23,73.34-144.93,128.51c-7.99,13.09-14.46,27.04-19.18,41.59c-0.76,2.32,1.03,3.87,3.44,3.59
						C1116.37,1078.54,1118.97,1076.11,1119.75,1073.71L1119.75,1073.71z"/>
				</g>
			</g>
		</g>
		<g id="Ebene_6">
			<g>
				<path class="st12" d="M1387.28,609.45c-21.6-59.93-72.51-131.68-131.73-163.09c-59.22-31.41-164.82-28.41-226.72-7.37
					c-85.6,29.09-133.49,133.52-131.28,220.52c1.91,75.34,75.69,130.09,148.87,163.36c73.17,33.27,169.2,52.73,233.3,10.37
					s111.18-148.27,107.52-223.62"/>
				<g>
					<path class="st12" d="M1392.09,606.61c-9.13-25.18-21.9-49.3-37.03-71.95c-15.76-23.59-34.37-45.84-56.21-64.78
						c-18.92-16.41-40.31-30.11-64.49-38.08c-24.27-8-49.94-11.61-75.25-12.82c-26.71-1.28-53.56,0.1-79.74,4.08
						c-23.07,3.5-46.41,8.83-67.14,18.72c-42.02,20.06-72.53,56.6-91.99,96.43c-10.06,20.58-17.51,42.37-22.15,64.8
						c-4.45,21.55-7.13,44.32-5.02,66.54c4.3,45.17,34.76,83.31,71.67,111.61c38.7,29.67,84.77,51.98,131.77,66.14
						c46.85,14.11,98.31,20.79,144.98,7.33c45.64-13.15,78.4-47.65,102.18-84.97c25.17-39.5,42.52-85.17,47.5-131.78
						c1.07-9.98,1.47-20.04,1-30.11c-0.26-5.71-10.11-0.48-9.92,3.73c2.01,43.71-10.89,87.63-29.78,126.37
						c-9.87,20.24-21.77,39.62-36.28,57.1c-13.01,15.66-28.23,30.12-46.58,40.24c-39.95,22.02-90.27,20.92-135.42,11.56
						c-46.87-9.72-92.58-28.95-133.15-53.91c-38.47-23.68-75.46-55.81-91.07-97.41c-7.72-20.57-8.47-41.71-6.76-62.91
						c1.75-21.84,6.37-43.33,13.41-63.98c13.76-40.32,37.35-78.96,72.88-105.06c16.8-12.34,36.15-20.44,56.85-25.64
						c23.65-5.95,48.31-9.13,72.97-10.12c47.92-1.91,100.96,2.77,142.99,28.74c23.16,14.31,43.06,33.37,60.26,53.75
						c17.87,21.17,33.1,44.31,45.37,68.63c5.51,10.9,10.39,22.06,14.51,33.45C1384.17,617.02,1393.6,610.79,1392.09,606.61
						L1392.09,606.61z"/>
				</g>
			</g>
		</g>
		<g id="Ebene_3_1_">
			<g>
				<g>
					<path d="M1114.76,1089.06c14.01-30.55,33.09-58.44,55.91-83.56c22.32-24.58,47.85-46.35,74.37-66.84
						c27.27-21.06,55.24-41.21,85.11-59c29-17.27,59.17-33.99,83.22-57.27c42.35-40.99,63.85-98.25,65.29-156.11
						c1.45-58.22-16.9-117.36-52.83-166.35c-38.39-52.32-94.39-92.17-155.83-116.9c-62.47-25.15-130.82-34.96-197.04-28.73
						c-66.96,6.29-132.35,29.77-181.68,71.99c-50.01,42.79-83.95,104.32-84.5,170.05c-0.28,33.28,8.17,66.32,18.82,98.29
						c10.69,32.13,23.2,63.73,33.29,96.02c18.6,59.53,30.34,119.91,33.82,181.34c0.96,17.07,1.41,34.14,1.5,51.2
						c0.03,5.66,9.94,0.47,9.92-3.73c-0.31-62.57-6.43-125-21.97-186.53c-7.69-30.43-17.17-60.53-27.81-90.27
						c-11.31-31.61-23.67-63.09-31.15-95.63c-7.39-32.14-8.87-64.83-1.42-96.49c7.25-30.87,21.69-59.81,41.45-84.88
						c39.35-49.9,98.18-81.99,162.74-95.83c63.83-13.69,132.33-10.76,196.25,7.59c63.06,18.11,122.49,51.03,167.63,97.51
						c42.95,44.23,70.31,99.72,77.21,158.37c6.57,55.9-4.73,114.19-37.89,159.93c-18.49,25.51-43.34,44.38-70.57,61.18
						c-14.51,8.95-29.36,17.4-43.88,26.32c-14.24,8.76-27.78,18.32-41.24,28.06c-54.24,39.3-106.99,81.88-143.64,137.12
						c-8.98,13.54-16.86,27.73-23.6,42.43C1103.17,1094.94,1112.75,1093.45,1114.76,1089.06L1114.76,1089.06z"/>
				</g>
			</g>
			<g>
				<g>
					<path d="M889.16,1039.98c1.03,6.62,6.63,12.21,11.9,16.39c8.75,6.94,18.94,12.2,29.13,16.86
						c31.42,14.37,65.26,23.91,98.72,32.24c10.29,2.57,20.62,4.98,30.98,7.26c9.56,2.11,19.7,5.26,29.49,5.33
						c8.03,0.06,16.08-1.81,22.07-6.83c6.28-5.25,8.7-13.26,5.91-21.06c-2.96-8.26-10.12-15.27-16.91-20.99
						c-7.7-6.49-16.41-11.9-25.4-16.59c-19.18-10-39.83-17.69-60.62-23.72c-23.3-6.76-47.25-11.31-71.32-13.42
						c-11.12-0.98-23.74-2.74-34.53,0.02c-9.63,2.47-18.53,9.81-18.88,19.81c-0.09,2.64,2.94,2.83,4.88,2.17
						c2.44-0.83,4.95-3.31,5.04-5.89c0.28-8.34,11.31-8.58,18.03-8.45c9.77,0.2,19.59,0.99,29.33,2.09
						c19.89,2.24,39.65,6.12,58.96,11.64c18.48,5.28,36.64,11.96,54.01,20.15c16.18,7.63,33.03,17.36,43.72,31.61
						c3.38,4.51,8.17,13.39,2.67,17.8c-4.77,3.83-13.54,3.14-19.38,2.13c-18.94-3.29-37.84-8.05-56.48-12.8
						c-30.45-7.77-61.07-16.64-89.88-29.35c-10.3-4.54-20.77-9.58-29.7-16.36c-5.45-4.13-11.09-9.14-12.11-15.71
						c-0.41-2.64-4.69-1.33-6.01-0.58C890.48,1035.04,888.75,1037.35,889.16,1039.98L889.16,1039.98z"/>
				</g>
			</g>
			<g>
				<g>
					<path d="M894.72,1039.74c-19.39,3.21-28.99,24.26-20.7,40.96c10.37,20.89,36,28.2,57.2,34.86
						c25.03,7.86,50.49,14.23,76.03,20.03c13,2.95,26.03,5.75,39.07,8.53c10.61,2.26,21.37,4.88,32.18,3.84
						c10.52-1.01,18.76-6.31,24.47-14.4c4.67-6.61,8.81-16.28,4.71-24.34c-2.38-4.67-11.62,1.75-9.62,5.67
						c2.8,5.51,0.64,11.77-2.6,16.46c-3.87,5.6-9,7.72-16.18,7.99c-9.33,0.36-18.82-2.14-27.94-4.08c-11-2.34-21.98-4.69-32.95-7.15
						c-22.09-4.94-44.12-10.28-65.87-16.62c-10.42-3.04-20.8-6.25-31.04-9.85c-9.64-3.39-19.52-7.36-27.36-13.92
						c-7.14-5.97-13.17-14.36-13.4-23.46c-0.18-7.06,3.51-14.5,11.34-15.79c2.67-0.44,5.44-2.64,6.11-5.15
						C898.77,1041.06,897.28,1039.32,894.72,1039.74L894.72,1039.74z"/>
				</g>
			</g>
			<g>
				<g>
					<path d="M875.03,1083.09c-5.62,6.5-9.66,14.49-12.19,22.58c-2.41,7.72-3.02,15.48,1.26,23c11.43,20.05,39.01,23.07,59.76,27.84
						c25.06,5.77,50.11,11.54,75.17,17.31c12.28,2.82,24.54,5.65,36.82,8.48c10.12,2.33,20.89,5.72,31.26,4.15
						c22.76-3.44,26.81-28.05,25.48-46.36c-0.42-5.74-10.22-0.48-9.92,3.73c0.56,7.59,0.43,15.41-1.76,22.67
						c-2.09,6.92-5.84,11.22-13.92,11.47c-9.19,0.28-18.73-2.81-27.65-4.86c-11.25-2.59-22.5-5.18-33.75-7.77
						c-21.98-5.06-43.98-10.12-65.96-15.19c-11.09-2.56-22.26-4.91-33.29-7.73c-9.69-2.48-19.67-5.84-27.03-12.72
						c-6.44-6.01-9.76-13.45-7.96-21.68c1.72-7.85,5.35-15.8,10.67-21.96c1.29-1.49,2.46-4.45,0.03-5.66
						C879.62,1079.18,876.37,1081.55,875.03,1083.09L875.03,1083.09z"/>
				</g>
			</g>
			<g>
				<g>
					<path d="M868.84,1124.21c-12.37,8.35-17.39,25.8-14.71,39.93c3.69,19.44,30.79,23.73,47.4,27.38
						c26.04,5.72,52.09,11.44,78.13,17.17c12.89,2.83,25.78,5.67,38.68,8.5c10.47,2.3,21.2,5.3,31.93,4.79
						c11.1-0.53,20.5-5.44,25.63-14.69c4.86-8.77,6.15-19.53,4.85-29.48c-0.75-5.77-10.46-0.46-9.92,3.73
						c1,7.69,0.59,15.95-2.5,23.06c-1.04,2.39-2.48,5.06-4.9,6.43c-3.33,1.87-7.82,2.25-11.68,2.19
						c-9.55-0.16-19.09-2.81-28.41-4.86c-11.09-2.44-22.17-4.87-33.26-7.31c-22.44-4.93-44.87-9.86-67.3-14.79
						c-10.78-2.37-21.74-4.36-32.36-7.37c-8.42-2.39-18.78-6.06-23.99-13.36c-3.74-5.24-3.49-12.74-2.52-18.53
						c0.87-5.18,3.15-13.12,7.32-15.94c1.85-1.25,4.6-3.74,3.62-6.25C873.91,1122.4,870.43,1123.14,868.84,1124.21L868.84,1124.21z"
						/>
				</g>
			</g>
			<g>
				<g>
					<path d="M862.4,1172.14c-13.01,7.55-14.73,26.46-2.57,36.36c7.43,6.05,16.91,8.85,25.92,11.84
						c10.69,3.54,21.39,7.08,32.08,10.62c21.39,7.08,42.77,14.16,64.16,21.24c18.35,6.07,38.24,14.58,57.38,8.9
						c9.02-2.68,16.84-8.66,20.78-16.8c4.57-9.43,4.52-20,2.74-30.29c-0.46-2.63-4.67-1.35-6.01-0.58
						c-2.26,1.29-4.07,3.63-3.62,6.25c1.33,7.7,1.68,16.34-1.49,23.53c-2.48,5.63-7.48,8.84-13.73,10.17
						c-16.67,3.57-34.79-4.85-50.51-10.05c-17.66-5.84-35.31-11.69-52.96-17.53c-17.45-5.78-35.21-11.03-52.43-17.47
						c-7.25-2.71-16.39-6.72-19.39-14.12c-1.71-4.21-2.58-12.53,2.06-15.22c1.92-1.11,4.57-3.84,3.62-6.25
						C867.44,1170.24,864.05,1171.19,862.4,1172.14L862.4,1172.14z"/>
				</g>
			</g>
			<g>
				<g>
					<path d="M875.76,1216.65c-0.08,12.91,3.13,25.7,11.51,36.46c7.29,9.36,17.78,16.19,28.64,21.33
						c22.73,10.77,48.79,16.03,73.02,9.46c14.5-3.94,26.72-12.34,34.34-24.57c1.15-1.84,0.84-4.38-1.78-4.78
						c-2.78-0.42-5.56,2.09-6.79,4.07c-11.41,18.32-37.03,21.3-58.05,18.26c-10.97-1.58-21.45-5.24-31.52-9.8
						c-9.89-4.47-19.32-10.13-26.56-18.09c-9.34-10.26-12.99-23.03-12.9-36.06C885.72,1207.29,875.78,1212.46,875.76,1216.65
						L875.76,1216.65z"/>
				</g>
			</g>
			<g>
				<path class="st13" d="M917.81,1271.06c-3.82,8.5,2.97,24.59,15.3,27.24c9.79,2.1,26.41-3.16,30.57-12.3"/>
				<g>
					<path d="M913.03,1271.83c-4.66,11.5,3.83,27.82,17.06,30.76c13.75,3.07,31.96-4.48,37.87-16.25c0.95-1.9,0.98-4.36-1.78-4.78
						c-2.61-0.4-5.77,2.04-6.79,4.07c-3.68,7.34-17.32,10.67-25.25,7.73c-8.7-3.23-14.84-14.99-11.56-23.08
						c0.94-2.31-1.15-3.86-3.44-3.59C916.27,1267.02,914,1269.45,913.03,1271.83L913.03,1271.83z"/>
				</g>
			</g>
		</g>
		<g id="Ebene_8_1_">
			<g class="st14">
				<path class="st15" d="M915.14,1020.14c-10.25-1.32-16.57,11.47-12.53,20.56c4.04,9.09,13.94,14.55,23.26,19.03
					c39.85,19.16,82.18,33.41,125.52,42.26c20.46,4.18,42.78,6.93,60.82-2.01c-69.8-11.39-152.63-24.41-196.2-76.76"/>
				<g>
					<path class="st15" d="M917.65,1015.72c-14-1.28-23.85,13.8-20.55,25.82c1.96,7.16,8.32,12.6,14.61,16.62
						c8.08,5.18,17.27,8.98,26.06,12.87c37.71,16.67,77.8,29.57,118.41,36.78c18.78,3.33,38.89,4.4,55.96-3.8
						c2.29-1.1,8.62-7.48,2.59-8.46c-54.25-8.85-112.79-17.03-160.33-46.68c-12.88-8.03-24.45-17.87-34.05-29.3
						c-3.01-3.59-11.78,3.56-8.64,7.28c36.26,43.15,96.16,58.96,150.06,69.28c15.94,3.05,31.95,5.65,47.96,8.26
						c0.86-2.82,1.73-5.64,2.59-8.46c-13.06,6.27-27.94,6.28-42.5,4.36c-17.15-2.27-34.22-6.53-50.91-11.16
						c-17.61-4.88-34.98-10.66-52-17.3c-8.63-3.37-17.17-6.95-25.61-10.76c-7.44-3.35-15.11-6.64-22.02-10.97
						c-5.92-3.72-12.52-9.54-12.9-16.6c-0.22-4.06,1.12-9.41,6.28-8.94C917.04,1024.97,923.65,1016.27,917.65,1015.72
						L917.65,1015.72z"/>
				</g>
			</g>
			<g class="st14">
				<path class="st15" d="M889.55,1051.61c-10.34,5.26-10.31,20.41-2.96,29.6s19.31,13.82,30.68,17.82
					c48.07,16.88,97.29,30.53,147.13,40.8c12.81,2.64,28.97,3.84,35.58-6.45c-35.84,0.1-190.23-24.42-209.25-84.34"/>
				<g>
					<path class="st15" d="M888.36,1048.19c-13.35,7.35-15.42,24.8-6.09,36.67c5.38,6.83,13.65,11.35,21.71,14.69
						c9.5,3.94,19.4,7.05,29.16,10.28c41.22,13.64,83.22,24.92,125.68,33.79c16.6,3.47,35.36,4.85,45.45-9.88
						c1.06-1.55,0.96-4.79-1.78-4.78c-10.75,0.01-21.61-1.33-32.29-2.79c-16.06-2.18-32.06-5.15-47.89-8.79
						c-33.53-7.7-68.94-18.21-97.7-37.44c-12.63-8.44-24.44-19.56-29.05-33.73c-1.54-4.72-11.01,1.44-9.62,5.67
						c9.23,28.36,42.67,44.97,69.5,55.64c33,13.14,68.29,21.33,103.3,26.58c12.79,1.92,25.86,3.72,38.76,3.71
						c-0.59-1.59-1.18-3.19-1.78-4.78c-2.58,3.77-8.88,4.22-13.26,4.21c-6.8-0.02-13.49-1.39-20.16-2.8
						c-18.66-3.92-37.22-8.34-55.67-13.22c-18.02-4.77-35.93-9.98-53.7-15.63c-9.01-2.86-17.98-5.84-26.92-8.93
						c-7.67-2.65-15.48-5.22-22.62-9.08c-7.04-3.8-13.57-9.25-15.98-16.73c-1.67-5.15-2.08-12.83,3.35-15.82
						c1.94-1.06,4.55-3.86,3.62-6.25C893.38,1046.26,890.02,1047.27,888.36,1048.19L888.36,1048.19z"/>
				</g>
			</g>
			<g class="st14">
				<path class="st15" d="M878.34,1093.45c-12.48,3.92-13.23,21.8-4.44,31.6c8.79,9.8,22.79,13.45,35.84,16.56
					c45,10.73,90,21.45,135,32.18c13.5,3.21,30.13,5.58,38.64-4.3c-58.54-8.64-191.26-26.97-201.22-80.76"/>
				<g>
					<path class="st15" d="M878.42,1089.42c-13.7,4.77-18.82,20.41-12.92,33c7.42,15.86,27.96,20.34,43.8,24.11
						c43.21,10.3,86.43,20.6,129.64,30.9c16.82,4.01,35.72,6.98,47.96-6.46c1.62-1.77,2.48-5.4-0.99-5.91
						c-30.02-4.43-60.04-8.99-89.67-15.83c-16.26-3.76-32.42-8.2-48.1-13.95c-13.57-4.97-27.28-10.91-39-19.33
						c-10.64-7.64-19.7-17.49-22.14-30.06c-0.89-4.6-10.47,1.34-9.62,5.67c4.91,25.28,33.59,40.14,56.42,49.29
						c31.73,12.73,65.79,19.76,99.31,25.6c15.9,2.76,31.85,5.12,47.8,7.47c-0.33-1.97-0.66-3.94-0.99-5.91
						c-3.44,3.77-9.53,4.26-14.6,4.11c-7.06-0.21-13.99-1.8-20.86-3.44c-18.41-4.39-36.82-8.77-55.23-13.17
						c-18.66-4.45-37.33-8.9-56-13.35c-8.77-2.09-17.58-4.05-26.31-6.33c-7.5-1.95-15.19-4.33-21.74-8.54
						c-6.23-4-10.92-9.72-11.98-16.78c-0.71-4.72-0.2-11.22,5.07-13.06c2.35-0.81,5.12-3.32,5.04-5.89
						C883.21,1088.95,880.49,1088.7,878.42,1089.42L878.42,1089.42z"/>
				</g>
			</g>
			<g class="st14">
				<path class="st15" d="M868.56,1138.07c-8.45,6.03-8.64,18.94-2.48,27.58c6.15,8.63,16.96,13.44,27.64,15.55
					c10.67,2.1,21.59,1.93,32.39,3.02c24.89,2.51,48.69,11.64,72.9,18.24c24.21,6.61,50.38,10.67,73.6,3.07
					c-46.67-6.33-170.49-20.94-203.84-68.37"/>
				<g>
					<path class="st15" d="M866.12,1135.53c-11.38,8.72-12.15,25.2-2.46,36.14c11.28,12.73,29.86,14.99,45.91,15.98
						c9.44,0.58,18.76,1.29,28.1,3.08c9.75,1.86,19.33,4.54,28.85,7.36c17.08,5.07,34.07,10.67,51.64,13.72
						c18.31,3.18,36.95,3.29,54.36-2.25c2.67-0.85,8.34-7.68,2.59-8.46c-26.57-3.6-53.14-7.23-79.48-12.56
						c-30.43-6.16-61.67-14.04-89.37-28.44c-12.74-6.63-24.94-15.02-33.17-26.58c-2.62-3.68-11.48,3.29-8.64,7.28
						c15.81,22.17,45.27,34.04,70.79,42.4c30.55,10,62.32,16.12,93.96,21.01c13.62,2.1,27.26,3.9,40.9,5.75
						c0.86-2.82,1.73-5.64,2.59-8.46c-29.34,9.33-61.55-0.42-90.44-9.17c-16.15-4.89-32.43-9.8-49.17-12.02
						c-15.9-2.11-32.84-0.44-47.94-7c-7.07-3.07-13.89-8.08-16.78-15.12c-2.37-5.79-2.67-13.51,2.64-17.58
						c1.56-1.19,3.68-4.3,1.89-6.19C871,1132.46,867.64,1134.38,866.12,1135.53L866.12,1135.53z"/>
				</g>
			</g>
			<g class="st14">
				<path class="st15" d="M865.31,1176.05c-7.13,7.05-4.25,19.64,3.27,26.93s18.19,10.59,28.37,13.62
					c35.85,10.66,71.69,21.32,107.54,31.98c17.15,5.1,37.45,9.76,51.12-0.39c-67.85-6.34-142.7-26.02-192.01-72.63"/>
				<g>
					<path class="st15" d="M861.82,1174.57c-9.18,9.79-6.05,25.13,4.39,33.79c6.02,5,13.39,8.04,20.84,10.46
						c8.63,2.8,17.39,5.24,26.09,7.82c17.92,5.33,35.85,10.66,53.76,15.99c16.12,4.79,32.24,10.38,48.68,13.96
						c15.12,3.28,30.1,2.97,42.47-5.86c1.96-1.41,4.39-6.56,0.07-6.97c-53.18-5.03-107.86-17.29-154.26-44.89
						c-12.97-7.72-25.05-16.72-35.94-26.95c-3.56-3.33-12.11,4.02-8.64,7.28c39.84,37.39,93.96,56.93,147.41,66.97
						c15.38,2.89,30.89,4.98,46.42,6.44c0.02-2.33,0.05-4.65,0.07-6.97c-8.54,6.1-21.46,4.4-31.49,2.32
						c-14.34-2.98-28.42-7.96-42.45-12.13c-15.9-4.73-31.81-9.46-47.71-14.19c-8.08-2.41-16.16-4.8-24.24-7.21
						c-6.96-2.07-14.05-3.95-20.78-6.72c-6.99-2.89-14.03-7.03-17.68-13.62c-2.84-5.12-4.24-12.08-0.03-16.56
						c1.36-1.44,2.41-4.48,0.03-5.66C866.35,1170.62,863.23,1173.06,861.82,1174.57L861.82,1174.57z"/>
				</g>
			</g>
			<g class="st14">
				<path class="st15" d="M881.96,1219.5c8.4,21.42,26.12,39.76,48,49.7c21.88,9.94,47.65,11.35,69.82,3.83
					c-41.57-6.81-81.21-26.6-111.1-55.5"/>
				<g>
					<path class="st15" d="M877.15,1222.34c8.68,21.65,26.08,40.14,48.17,50.54c23.39,11.01,50.62,12.07,74.38,4.19
						c2.73-0.91,8.31-7.5,2.59-8.45c-41.03-6.86-79.68-26.3-109.29-54.71c-3.5-3.36-12.08,3.98-8.64,7.28
						c30.65,29.41,70.5,49.2,112.92,56.29c0.86-2.82,1.73-5.64,2.59-8.46c-21.98,7.28-47.28,5.36-68.62-5.04
						c-20.36-9.91-36.41-27.2-44.46-47.29C884.88,1211.93,875.5,1218.21,877.15,1222.34L877.15,1222.34z"/>
				</g>
			</g>
			<g class="st14">
				<path class="st15" d="M919.99,1272.61c-0.64,7.64,3.42,15.67,10.21,20.2c6.79,4.54,16.06,5.4,23.33,2.17
					c-12.16-5-22.33-14.49-27.76-25.91"/>
				<g>
					<path class="st15" d="M915.04,1274.47c-0.48,8.54,3.63,17.14,11.25,22.26c8.06,5.41,18.57,5.84,27.17,2.29
						c2.14-0.88,8.06-6.32,3.6-8.22c-11.63-4.94-21.1-13.62-26.47-24.56c-2.3-4.68-11.57,1.72-9.62,5.67
						c5.95,12.1,16.15,21.77,29.06,27.26c1.2-2.74,2.4-5.48,3.6-8.22c-14.11,5.82-29.45-6.13-28.67-20.2
						c0.15-2.64-2.98-2.82-4.88-2.17C917.6,1269.43,915.18,1271.87,915.04,1274.47L915.04,1274.47z"/>
				</g>
			</g>
		</g>
		<g id="Ebene_4_1_">
			<g>
				<g>
					<path d="M916.77,1022.12c45.17-31.52,89.67-63.88,132.65-97.96c43.1-34.19,84.71-70.1,123.64-108.49
						c38.45-37.93,75.2-78.16,106.32-121.83c15.59-21.88,30.12-46.97,30-74.59c-0.09-20.85-9.73-43.71-28.12-56.85
						c-19.3-13.79-43.37-12.83-63.18-2.65c-23.36,12.01-36.69,34.82-43.88,58.41c-1.97,6.46-3.53,13.04-4.9,19.66
						c-1.29,6.2,7.54,2.84,9.06-0.42c10.52-22.67,21.71-46.95,17.82-72.8c-3.17-21.07-16.72-41.16-39.59-47.13
						c-22.78-5.94-46.83,1.31-64.65,13.95c-19.29,13.68-32.66,33.3-40.75,54.73c-18.1,47.93-7.83,101.35-0.63,151.28
						c7.67,53.21,16.45,106.32,24.03,159.54c7.55,52.97,14.07,106.1,16.81,159.32c0.33,6.44,0.6,12.88,0.82,19.32
						c0.19,5.7,10.06,0.48,9.92-3.73c-1.66-50.53-7.12-101.04-13.85-151.38c-6.8-50.77-14.98-101.42-22.66-152.11
						c-3.77-24.87-7.49-49.76-10.7-74.67c-3.25-25.31-5.46-50.94-2.31-76.1c5.01-40.09,28.69-87.25,75.78-92.93
						c10.62-1.28,21.77,0.12,31.49,5.06c9.62,4.87,16.93,13.13,21.32,22.44c10.4,22.04,5.15,45.52-3.39,66.49
						c-2.48,6.09-5.26,12.05-8.02,18.03c3.02-0.14,6.04-0.28,9.06-0.42c4.87-23.39,12.39-48.61,32.53-64.01
						c16.27-12.44,39.44-15.79,58.37-4.42c18.6,11.16,28.9,33.15,29.65,52.99c0.98,26.07-12.71,50.05-27.43,70.62
						c-29.7,41.51-64.4,80.05-100.88,116.28c-36.67,36.42-75.79,70.61-116.32,103.2c-40.4,32.49-82.22,63.41-124.77,93.41
						c-5.2,3.67-10.42,7.33-15.64,10.97c-1.83,1.28-4.62,3.72-3.62,6.25C911.68,1023.91,915.2,1023.22,916.77,1022.12
						L916.77,1022.12z"/>
				</g>
			</g>
			<g>
				<g>
					<path d="M1372.32,539.21c27.56,39.26,36.8,88.73,24.7,132.95c-0.64,2.33,0.94,3.88,3.44,3.59c2.63-0.31,5.45-2.75,6.11-5.15
						c12.68-46.33,3.27-97.54-25.6-138.68C1378.38,528.24,1369.5,535.2,1372.32,539.21L1372.32,539.21z"/>
				</g>
			</g>
			<g>
				<g>
					<path d="M884.83,567.07c-16.24,38.35-19.04,81.84-8.42,122.93c3.03,11.74,7.2,23.23,12.41,34.35c2.2,4.7,11.5-1.67,9.62-5.67
						c-17.81-38.01-23.01-80.63-14.46-120.4c2.41-11.23,5.91-22.19,10.39-32.76c0.98-2.3-1.18-3.86-3.44-3.59
						C888.03,562.26,885.84,564.69,884.83,567.07L884.83,567.07z"/>
				</g>
			</g>
		</g>
	</g>
</g>
</svg>
