<?xml version="1.0" encoding="utf-8"?>
<!-- Generator: Adobe Adobe Illustrator 24.2.0, SVG Export Plug-In . SVG Version: 6.00 Build 0)  -->
<svg version="1.1" xmlns="http://www.w3.org/2000/svg" xmlns:xlink="http://www.w3.org/1999/xlink" x="0px" y="0px"
	 viewBox="0 0 2000 2000" style="enable-background:new 0 0 2000 2000;" xml:space="preserve">
<style type="text/css">
	.st0{fill:#91615E;}
	.st1{fill:#2E1B13;}
	.st2{fill:#F0C1A1;}
	.st3{fill:#CA354F;}
	.st4{fill:#FFFFFF;stroke:#FFFFFF;stroke-width:0.9704;stroke-miterlimit:10;}
	.st5{opacity:0.3098;}
	.st6{fill:#C9354E;}
	.st7{fill:#F3C058;}
	.st8{fill:#F3C057;}
	.st9{fill:#F3C056;}
	.st10{fill:#CA5A7C;}
	.st11{opacity:0.102;}
	.st12{fill:#FFFFFF;}
	.st13{fill:#ADBECF;}
	.st14{fill:#F7D98D;}
	.st15{fill:#AEBFCE;}
	.st16{opacity:0.2706;}
	.st17{fill:#3D4C5B;}
</style>
<g id="Ebene_13">
	<g>
		<g>
			<path d="M812.84,1563.86c-10.37,4.42-22.68-9.22-29.42-15.35c-8.22-7.47-16.13-15.5-22.14-24.88c-6.79-10.6-9.94-22.41-9.23-35
				c0.77-13.54,5.1-26.75,8.8-39.7c7.68-26.87,15.36-53.75,23.04-80.62c3.84-13.44,7.68-26.87,11.52-40.31
				c1.18-4.13,2.02-10.71,5.18-13.89c3.94-3.96,12.18-2.09,17.03-1.47c28.39,3.68,55.46,13.98,79.55,29.37
				c4.8,3.07,12-9.07,7.06-12.22c-23.94-15.29-50.99-25.63-79.14-29.69c-5.87-0.85-12.16-1.89-18.05-0.56
				c-6.68,1.51-11.69,6.31-14.98,12.14c-3.04,5.38-4.45,11.52-6.13,17.4c-2.38,8.32-4.75,16.64-7.13,24.96
				c-8.78,30.71-17.55,61.43-26.33,92.14c-7.87,27.53-17.3,56.42-2.69,83.45c6.67,12.35,16.87,22.32,27.19,31.64
				c10,9.03,21.76,20.35,36.09,14.23C818.05,1573.35,820.56,1560.56,812.84,1563.86L812.84,1563.86z"/>
		</g>
	</g>
	<g>
		<path class="st0" d="M778.24,413.95C661.85,309.99,440.89,390.01,300.7,572.37c-153.95,200.24-73.71,781.01,387.27,865.86
			c95.83,17.64,177.69,65.96,203.17,374.96c241.63-258.07,281.44-561.41,355.27-871.8c52.68-221.48-169.62-502.65-277.82-549.08
			c-50.4-21.63-163.15-29.82-185.54,23.04"/>
		<g>
			<path d="M781.77,407.84c-57.6-51-138.5-54.68-209.78-35.27c-90.62,24.67-171.04,82-234.62,149.88
				c-23.77,25.38-46.52,52.43-63.07,83.17c-12.28,22.81-21.77,47.08-29.01,71.93c-16.58,56.94-22.43,116.76-20.79,175.93
				c1.83,66.1,13.07,132.09,33.01,195.13c20.78,65.71,51.26,128.68,91.78,184.52c41.64,57.38,94.12,106.95,154.86,143.69
				c32.42,19.61,67.04,35.53,102.95,47.6c18.87,6.34,38.07,11.69,57.51,16.01c13.31,2.96,26.8,5.07,40.06,8.29
				c42.17,10.26,77.99,32.5,103.42,68.06c17.97,25.13,30.35,53.84,39.96,83.06c13.94,42.39,22.38,86.51,28.63,130.62
				c4.03,28.4,6.98,56.95,9.36,85.54c0.44,5.29,5.11,3.59,7.68,0.84c98.48-105.44,171.81-230.17,222.88-364.76
				c48.92-128.92,78.61-263.95,108.69-398.19c7.59-33.85,15.2-67.7,23.14-101.46c6.53-27.75,10.98-55.24,11-83.82
				c0.05-57.78-14.12-115.05-35.29-168.53c-21.6-54.56-50.61-106.19-84.57-153.98c-29.61-41.66-63.14-81.06-101.54-114.9
				c-14.66-12.93-30.16-25.13-46.96-35.18c-16.43-9.82-34.16-16.19-52.83-20.36c-25.2-5.62-51.5-7.88-77.25-5.79
				c-22.39,1.81-45.94,6.81-63.99,20.97c-8.15,6.4-14.28,14.62-18.44,24.07c-1.05,2.39-1.01,6.2,2.05,6.87
				c3.18,0.69,5.91-3.8,6.9-6.04c8.38-19.04,31.57-26.78,50.37-30.45c24.71-4.82,50.57-3.98,75.39-0.4
				c20.49,2.95,41.12,7.82,59.68,17.21c15.63,7.91,30.04,18.2,43.65,29.17c37.45,30.16,69.96,66.61,99.01,104.79
				c34.3,45.07,64.16,93.91,87.4,145.6c23.17,51.54,40.45,106.71,45.06,163.25c2.17,26.69,1.52,53.65-3.01,80.08
				c-5.51,32.18-14.46,63.98-21.66,95.82c-29.46,130.41-56.78,261.79-100.51,388.37c-44.99,130.22-108.74,253.24-197.68,359.02
				c-11.86,14.1-24.1,27.86-36.68,41.32c2.56,0.28,5.12,0.56,7.68,0.84c-4.39-52.82-10.7-105.69-21.94-157.53
				c-7.84-36.14-18.11-72.04-33.8-105.61c-19.91-42.6-50-79.88-93.81-99.14c-18.25-8.02-37.62-12.81-57.15-16.48
				c-39.14-7.35-77.48-18.53-114.14-34.15c-66.1-28.18-125.72-70.3-174.6-122.93c-46.92-50.53-84.03-109.87-110.95-173.27
				c-25.88-60.96-42.92-125.83-50.65-191.6c-7.13-60.67-6.79-122.66,3.92-182.9c8.8-49.5,24.57-99.38,53.23-141.17
				c25.67-37.42,58.65-71.08,93.03-100.51c35.86-30.71,75.51-57.16,118.38-77.05c68.37-31.72,152.87-49.12,224.11-16.12
				c15.61,7.23,30,16.76,42.87,28.16C778.73,423.61,786.25,411.8,781.77,407.84L781.77,407.84z"/>
		</g>
	</g>
</g>
<g id="Ebene_14">
	<g>
		<path class="st1" d="M350.2,1638.27c-84,50.94-189.75,130.89-189.75,227.51c145.49,29.42,304.91,31.56,452.86,25.28
			c222.25-9.43,444.34-23.21,666.12-41.31c-24.17-57.09-56.73-110.11-96.13-156.53c-22.13-26.07-49.56-51.55-82.49-52.68
			c-33.77-1.16-62.8,23.32-90.55,43.91c-97.62,72.44-218.02,109.17-336.73,102.73s-235.01-56-325.26-138.62"/>
		<g>
			<path d="M350.1,1632.45c-36.54,22.19-72.13,46.48-104.11,74.94c-30.89,27.49-59.17,59.38-76.3,97.39
				c-9.05,20.07-14.2,41.78-14.32,63.82c-0.01,1.8,0.85,3.27,2.66,3.63c68.76,13.84,138.66,21.45,208.66,25.2
				c70.41,3.77,140.99,3.65,211.45,1.32c73.74-2.44,147.47-6.34,221.14-10.28c75.04-4.02,150.06-8.53,225.04-13.53
				c74.99-5.01,149.95-10.5,224.87-16.5c9.27-0.74,18.55-1.49,27.82-2.25c4.09-0.33,9.16-6.35,7.32-10.66
				c-14.96-35.18-32.95-69.04-54.06-100.93c-19.87-30-42.09-60.58-69.38-84.3c-12.39-10.77-26.46-19.75-42.46-23.97
				c-16.54-4.36-33.61-2.01-49.29,4.37c-16.46,6.69-31.07,17.05-45.25,27.59c-14.66,10.89-29.22,21.78-44.64,31.6
				c-61.97,39.46-132.08,65.7-204.79,76.33c-71.29,10.42-144.36,4.92-213.46-15.33c-68.78-20.16-133.3-54.87-188.53-100.48
				c-7.04-5.81-13.92-11.81-20.66-17.97c-3.93-3.58-11.48,8.19-7.06,12.22c52.76,48.12,114.85,85.74,182.16,109.67
				c66.64,23.69,137.7,33.89,208.29,28.62c71.9-5.37,142.32-25.82,206.14-59.33c16.41-8.62,32.36-18.1,47.77-28.39
				c14.96-9.99,29.08-21.06,43.65-31.59c14.19-10.25,29.48-20.13,46.63-24.49c16.72-4.25,33.67-1.85,49,5.85
				c31.71,15.93,54.98,47.25,75.58,75.17c22.58,30.6,42.25,63.34,58.75,97.6c4.16,8.63,8.08,17.36,11.82,26.17
				c2.44-3.55,4.88-7.11,7.32-10.66c-74.91,6.11-149.86,11.74-224.85,16.87c-74.98,5.13-149.99,9.76-225.03,13.9
				c-74.43,4.1-148.9,7.83-223.38,10.85c-70.2,2.84-140.53,3.66-210.74,0.85c-70.28-2.81-140.55-9.22-209.83-21.64
				c-8.4-1.51-16.79-3.11-25.16-4.8c0.89,1.21,1.77,2.42,2.66,3.63c0.21-37.37,17.19-71.56,39.91-100.41
				c25.14-31.92,56.68-58.46,89.52-82.11c17.91-12.9,36.47-24.89,55.33-36.34c2.81-1.71,5.16-5.25,4.99-8.64
				C355.14,1632.55,352.8,1630.81,350.1,1632.45L350.1,1632.45z"/>
		</g>
	</g>
</g>
<g id="Ebene_27">
	<g>
		<path class="st2" d="M651.46,1394.23c6.62,63.01,5.53,101.83-29.26,135.51c-34.8,33.68-82.05,47.95-127.92,58.69
			s-93.33,19.44-133.73,45.01c100.19,91.82,232.06,143.28,364.08,142.08c132.02-1.21,263.04-55.07,361.75-148.72
			c-40.24-24.14-86.61-33.07-131.54-44.3c-44.93-11.24-101.73-9.55-136.06-42.49c-34.33-32.94-42.75-105.17-22.8-149.62
			c-46.34,10.66-95.39,7.51-140.19-9.02"/>
		<g>
			<path class="st2" d="M646.37,1397.05c2.65,25.4,5.46,51.83,1.04,77.19c-3.68,21.11-13.84,38.94-29.6,53.41
				c-43.87,40.29-104.97,49.92-160.75,63.32c-33.6,8.07-67.11,18.18-96.61,36.66c-3.51,2.2-7.21,8.48-3.43,11.93
				c77.87,71.15,176.15,119.36,280.41,136.03c103.2,16.49,209.51-0.05,304.02-44.19c53.7-25.08,103.25-58.95,146.31-99.67
				c2.21-2.09,6.17-8.63,2.14-11.02c-28.79-17.1-60.95-26.85-93.22-34.99c-15.85-4-31.73-8.17-47.72-11.57
				c-13.75-2.93-27.68-4.88-41.55-7.14c-27.13-4.43-55.76-9.86-78.07-27.05c-20.09-15.48-30.66-40.07-35.65-64.33
				c-5.71-27.78-4.82-58.6,6.75-84.81c1.16-2.63,0.8-7.68-3.28-6.76c-45.71,10.34-93.83,7.27-137.86-8.79
				c-5.58-2.04-12.18,10.35-7.06,12.22c45.65,16.65,95.1,19.98,142.53,9.26c-1.09-2.25-2.18-4.51-3.28-6.76
				c-10.68,24.21-13.12,52.1-10.1,78.19c2.95,25.5,10.97,52.2,28.04,71.94c18.56,21.46,46.18,30.68,73.15,36.2
				c14.69,3,29.55,5.02,44.33,7.52c15.24,2.57,30.16,6.31,45.17,9.95c38.18,9.24,76.67,18.9,110.75,39.14
				c0.71-3.67,1.43-7.35,2.14-11.02c-75.45,71.36-170.95,120.58-273.25,139.11c-101.52,18.39-207.08,4.32-301.17-37.61
				c-53.61-23.89-103.16-56.48-146.48-96.06c-1.14,3.98-2.29,7.95-3.43,11.93c54.5-34.14,120.27-37.61,180.05-57.59
				c49.52-16.55,101-47.19,114.72-101.07c7.36-28.92,4.19-59.91,1.13-89.2C655.67,1383.07,645.8,1391.62,646.37,1397.05
				L646.37,1397.05z"/>
		</g>
	</g>
	<g>
		<g>
			<path class="st2" d="M888.71,1284.67c5.5,0,10.89-12.91,4.85-12.91C888.06,1271.76,882.67,1284.67,888.71,1284.67L888.71,1284.67
				z"/>
		</g>
	</g>
</g>
<g id="Ebene_23">
	<g>
		<g>
			<path d="M644.23,1397.21c1,24.38,1.73,49.03-1.68,73.26c-3.1,22.01-9.69,44.1-24.43,61.23c-30.69,35.67-84.07,37.4-126.82,46.35
				c-99.52,20.84-194.84,66.05-261.42,144.74c-35.33,41.76-61.32,91.1-74.45,144.26c-0.67,2.72,0.7,5.71,3.8,5.16
				c3.37-0.59,5.51-4.79,6.23-7.71c23.7-95.95,92.29-174.8,177.97-221.72c46.64-25.54,97.64-42.19,149.63-52.73
				c43.89-8.89,93.2-12.3,126.19-46.43c38.43-39.76,37.4-100.68,35.29-152.14c-0.13-3.12-2.53-4.39-5.26-3.04
				C646.39,1389.88,644.1,1394,644.23,1397.21L644.23,1397.21z"/>
		</g>
	</g>
	<g>
		<g>
			<path d="M789.09,1397.38c-1.91,44.39-3.46,96.26,25.26,133.35c28.76,37.15,77.97,42.86,121.05,50.43
				c100.39,17.64,199.85,57.51,270.02,133.86c36.11,39.29,63.37,86.49,76.75,138.29c0.84,3.24,4.36,2.26,6.28,0.7
				c2.45-1.98,4.33-5.94,3.51-9.12c-24.18-93.61-91.91-170.39-175.31-216.96c-45.12-25.19-94.48-42.19-144.82-53.41
				c-23.64-5.27-47.66-8.42-71.34-13.44c-21.88-4.64-43.89-11.51-61.81-25.39c-43.14-33.43-41.53-94.81-39.41-143.96
				c0.14-3.14-2.67-4.24-5.18-2.99C791.03,1390.25,789.23,1394.13,789.09,1397.38L789.09,1397.38z"/>
		</g>
	</g>
	<g>
		<g>
			<path d="M156.93,1871.89c63.49,25.67,132.71,27.91,200.3,27.48c73.22-0.47,146.41,0.14,219.63,0.37
				c75.67,0.24,151.34-0.05,226.99-1.74c75.57-1.69,151.13-4.76,226.54-10.08c75.07-5.29,150-12.79,224.52-23.31
				c9.5-1.34,19-2.74,28.49-4.18c5.21-0.79,9.61-13.78,2.39-12.69c-74.71,11.33-149.85,19.57-225.18,25.4
				c-74.63,5.77-149.42,9.26-224.24,11.27c-75.27,2.03-150.57,2.58-225.86,2.49c-73.42-0.09-146.87-1.55-220.29-0.72
				c-67.63,0.77-137.27,2.19-202.6-18.04c-8-2.48-15.88-5.33-23.64-8.47C158.49,1857.45,151.79,1869.81,156.93,1871.89
				L156.93,1871.89z"/>
		</g>
	</g>
	<g>
		<g>
			<path d="M352.74,1646.7c80.15,71.84,180.85,120.17,287.38,136.31c104.86,15.89,212.62-1.46,308.4-46.52
				c54.49-25.63,104.78-60.1,148.52-101.47c2.25-2.13,4.64-5.96,3.55-9.21c-1.02-3.04-4.35-2.6-6.34-0.71
				c-76.43,72.27-172.92,122.42-276.41,141.88c-103.54,19.47-211.41,5.97-307.84-36.06c-54.82-23.9-105.6-56.65-150.12-96.56
				C355.85,1630.76,348.25,1642.67,352.74,1646.7L352.74,1646.7z"/>
		</g>
	</g>
</g>
<g id="Ebene_15">
</g>
<g id="Ebene_24">
</g>
<g id="Ebene_3">
	<g>
		<path class="st2" d="M315.26,800.82c-46.56-16.82-103.04-0.26-133.27,39.06s-31.86,98.36-3.85,139.3s83.49,60.61,130.91,46.41
			c28.75,76.12,65.16,150.21,116.84,212.95c51.68,62.74,119.64,113.8,197.72,135.8c108.91,30.68,264.69-2.61,331.82-53.19
			c116.04-87.44,159.88-294.86,159.88-294.86s106.21,2.33,135.44-37.62c29.23-39.95,27.22-120.97-6.28-157.39
			c-24.34-26.46-79.95-34.15-138.75-27.73c-20.8-48.8-27.84-88.2-30.51-136.04c-124.26,13.56-252.05-80.23-281.82-202.08
			C639.46,674,380.61,653.48,380.61,653.48s-3.91,125.86-62.24,148.93"/>
		<g>
			<path class="st2" d="M318.89,794.51c-57.98-20.47-125.97,7.44-152.74,62.87c-13.63,28.22-16.95,61.15-8.85,91.48
				c7.94,29.74,27.41,54.96,53.92,70.53c28.85,16.94,64.36,22.15,96.58,12.75c-1.27-0.73-2.55-1.47-3.82-2.2
				c35.93,94.91,84.02,188.1,158.77,258.4c34.24,32.2,73.33,59.45,116.65,77.96c40.6,17.35,83.55,25.59,127.61,26.4
				c44.33,0.82,88.97-4.66,131.97-15.41c36.88-9.22,74.23-22.21,106.3-43.01c30.22-19.6,55.16-47.04,75.89-76.25
				c21.38-30.14,38.87-62.8,53.79-96.56c19.02-43.06,34.58-88.33,44.95-134.3c0.16-0.72,0.33-1.45,0.48-2.17
				c-2.54,2.65-5.07,5.3-7.61,7.95c17.45,0.37,35.09-0.95,52.38-3.17c27.29-3.5,58.58-9.59,79.88-28.35
				c24.71-21.75,31.82-60.77,31.41-92.06c-0.43-31.98-9-70.19-35.49-90.94c-15.83-12.4-36.6-17.97-56.14-20.95
				c-25.76-3.93-52.05-3.23-77.89-0.47c1.27,0.73,2.55,1.47,3.82,2.2c-9.25-21.83-16.84-44.31-21.87-67.5
				c-4.79-22.1-7.16-44.56-8.45-67.11c-0.15-2.58-1.49-3.9-4.01-3.63c-97.2,10.27-194.28-45.2-246.02-125.97
				c-14.59-22.77-25.48-47.65-31.98-73.91c-1.06-4.29-6.11-1.63-7.73,0.56c-51.73,69.83-123.06,122.05-204.4,152.26
				c-54.32,20.18-112.35,31.53-170.28,33.26c-10.93,0.33-21.99,0.51-32.91-0.35c-4.59-0.36-7.63,5.79-7.75,9.57
				c-0.44,13.84-2.06,26.65-4.38,40.75c-4.14,25.11-10.44,51.11-23.81,73.06c-6.58,10.79-15.63,20.82-27.57,25.67
				c-3.26,1.32-5.74,4.31-6.34,7.84c-0.37,2.19,0.55,6.6,3.87,5.25c26.91-10.94,42.19-38.16,51.51-64.29
				c8.73-24.48,13.47-50.41,15.93-76.23c0.57-5.94,1.1-11.9,1.29-17.87c-2.58,3.19-5.17,6.38-7.75,9.57
				c32.56,2.56,66.27-0.8,98.42-5.65c72.79-10.98,144.02-36.25,205.54-77.02c44.01-29.16,82.58-65.85,114-108.27
				c-2.58,0.19-5.15,0.37-7.73,0.56c24.02,96.93,107.12,175.17,203.43,198.73c26.92,6.59,54.65,8.47,82.21,5.56
				c-1.34-1.21-2.68-2.42-4.01-3.63c1.31,22.89,3.72,45.75,8.47,68.21c5.03,23.8,12.76,46.87,22.24,69.25
				c0.8,1.88,1.81,2.42,3.82,2.2c21.65-2.31,43.6-2.88,65.28-0.59c18.04,1.9,36.43,5.66,52.58,14.23
				c28.31,15.03,39.99,47.33,42.88,77.69c1.59,16.65,0.76,33.53-2.96,49.85c-3.02,13.23-8.15,28.03-17.83,37.96
				c-8.17,8.38-19.64,13.53-30.53,17.29c-12.97,4.48-26.49,7.31-40.04,9.31c-18.46,2.73-37.38,4.19-56.06,3.8
				c-4.03-0.09-6.88,4.53-7.61,7.95c-7.79,36.79-19.88,72.52-33.9,107.85c-25.52,64.26-60.31,129.98-114.57,174.56
				c-27.35,22.47-60.77,36.53-94.32,46.96c-40.8,12.68-83.46,20.09-126.14,22.03c-42.21,1.91-85.19-1.45-125.58-14.43
				c-44.35-14.26-85.32-38.03-121.32-67.43c-76.78-62.72-128.67-150.11-166.32-240.64c-4.85-11.66-9.48-23.41-13.95-35.22
				c-0.63-1.66-1.95-2.75-3.82-2.2c-53.13,15.49-115.37-11.57-137.41-63.07c-11.07-25.87-12.64-55.96-3.68-82.7
				c8.89-26.53,27.86-47.45,52.81-59.91c27.46-13.71,60.56-16.52,89.62-6.26C317.4,809.16,324.18,796.38,318.89,794.51
				L318.89,794.51z"/>
		</g>
	</g>
</g>
<g id="Ebene_9">
	<g>
		<path class="st3" d="M783.49,1139.89c-7.41-15.29-32.99-13.94-41.42,0.81s-0.39,35.2,14.38,43.54c14.77,8.33,33.7,6.21,48.73-1.62
			c12.58-6.55,23.57-17.55,26.8-31.39c3.23-13.85-3.21-30.28-16.37-35.52c-13.17-5.24-30.8,5.04-30.3,19.25"/>
		<g>
			<path class="st3" d="M788.01,1134.39c-9.39-17.94-35.52-13.85-46.71-0.25c-14.16,17.2-8.01,44.22,10.37,55.71
				c21.32,13.33,50.94,4.56,68.25-11.45c16.13-14.92,25.73-41.33,10.5-60.43c-16.87-21.14-50.3-5.6-50.34,19.89
				c0,3.21,2.66,4.42,5.35,3.09c3.05-1.51,5.14-5.6,5.15-8.91c0.01-6.2,6.15-9.57,11.61-10.69c7.66-1.56,14.98,2.06,19.6,8.14
				c10.41,13.68,5.4,30.44-6.95,40.73c-13.39,11.15-33.9,16.59-50.48,9.79c-12.39-5.09-26.13-22.47-18.86-36.5
				c2.82-5.44,9.98-7.72,15.73-7.83c7.46-0.13,14.23,2.96,17.76,9.71C781.79,1150.76,790.65,1139.45,788.01,1134.39L788.01,1134.39z
				"/>
		</g>
	</g>
</g>
<g id="Ebene_2">
	<g>
		<g>
			<path d="M326.29,794.9c-57.7-25.26-129.11-0.84-159.48,54.27c-15.27,27.71-20.33,60.68-14.06,91.69
				c6.14,30.35,24.16,56.76,49.66,74.19c28.09,19.2,63.77,26.74,97.06,19.36c5.3-1.18,9.72-14.7,2.47-13.09
				c-55.04,12.21-116.13-19.96-134.84-73.64c-9.37-26.89-8.6-57,2.15-83.37c10.63-26.07,31.58-46,57.41-56.84
				c29.17-12.24,63.31-12.68,92.36,0.04C324.59,809.94,331.58,797.22,326.29,794.9L326.29,794.9z"/>
		</g>
	</g>
	<g>
		<g>
			<path d="M1103.13,810.23c31.31-3.4,63.94-6.89,94.65,2.19c26.22,7.75,49.13,24.94,59.02,51.03c4.97,13.13,7.06,27.1,7.88,41.06
				c0.8,13.8,0.7,27.76-1.51,41.43c-2.12,13.1-6.17,26.13-13.79,37.13c-7.37,10.62-17.77,18.69-29.17,24.6
				c-31.43,16.3-68.02,15.11-102.4,14.03c-5.66-0.18-11.31,13.12-5.01,13.32c33.63,1.05,68.25,1.77,99.8-11.67
				c27.77-11.83,48.44-34.33,56.97-63.39c8.41-28.64,8.31-61.9,1.62-90.91c-3.32-14.41-9.33-28.48-19.02-39.79
				c-9.29-10.84-21.3-19.11-34.35-24.79c-35.5-15.46-74.83-11.41-112.23-7.34C1100.2,797.73,1095.6,811.05,1103.13,810.23
				L1103.13,810.23z"/>
		</g>
	</g>
	<g>
		<g>
			<path d="M295.65,1032.2c23.94,74.87,61.95,145.77,112.35,206.17c49.5,59.33,112,109.2,184.72,136.68
				c70.71,26.72,149.16,33.34,223.16,17.44c36.54-7.85,72.04-21.36,104.14-40.57c33.62-20.11,63.04-46.53,87.97-76.68
				c52.05-62.96,83.63-140.21,104.86-218.38c2.68-9.89,5.19-19.82,7.57-29.79c0.66-2.77-0.7-5.81-3.87-5.25
				c-3.4,0.6-5.63,4.88-6.34,7.84c-18.24,76.44-45.18,153.02-91.54,217.24c-22.41,31.05-49.27,59.28-80.72,81.3
				c-30.09,21.07-63.96,36.45-99.32,46.23c-71.19,19.68-148.37,17.16-218.68-5.06c-72.24-22.83-135.58-67.56-186.45-123.16
				c-51.96-56.78-92.14-124.49-118.77-196.62c-3.19-8.62-6.17-17.32-8.97-26.08C303.49,1016.47,293.98,1026.99,295.65,1032.2
				L295.65,1032.2z"/>
		</g>
	</g>
	<g>
		<g>
			<path d="M324.08,806.27c18.57-18.55,29.33-44.25,38.13-68.55c8.34-23.02,14.89-46.74,20.32-70.61c1.13-4.96,2.23-9.93,3.19-14.93
				c-2.54,2.65-5.07,5.3-7.61,7.95c32.69,1.9,66.4-2.06,98.54-7.47c72.56-12.22,143.37-38.32,204.65-79.35
				c43.88-29.38,82.48-66.05,114.04-108.4c-2.58,0.19-5.15,0.37-7.73,0.56c17.06,46.18,45.28,87.67,81.32,121.15
				c35.8,33.26,78.56,58.76,125.21,73.5c26.45,8.35,53.83,13.25,81.56,14.17c-0.91-1.25-1.83-2.5-2.74-3.75
				c2.95,46.61,10.71,93.68,27.72,137.34c2.72,6.99,12.09-3.58,10.1-8.68c-16.67-42.8-24.43-88.8-27.32-134.49
				c-0.1-1.6-0.77-3.68-2.74-3.75c-96.4-3.19-188.27-54.78-244.59-132.55c-15.96-22.04-28.97-46.1-38.4-71.63
				c-1.47-3.98-5.84-1.98-7.73,0.56c-52.04,69.83-123.49,122.33-204.67,153.44c-53.96,20.68-111.63,32.92-169.37,35.74
				c-10.9,0.53-21.92,0.93-32.83,0.29c-3.95-0.23-6.98,4.65-7.61,7.95c-7.15,37.46-17.58,75.92-34.18,110.32
				c-5.29,10.96-11.45,22.39-20.11,31.04c-2.26,2.25-4.76,6.03-3.62,9.41C318.63,808.59,322.08,808.27,324.08,806.27L324.08,806.27z
				"/>
		</g>
	</g>
	<g>
		<g>
			<path d="M685.46,1162.59c53.53,8.95,109.81-2.17,156.41-29.87c13.46-8,26.11-17.37,37.67-27.93c2.33-2.13,4.73-6.12,3.62-9.41
				c-1.06-3.14-4.42-2.61-6.48-0.73c-49.79,45.44-119.8,65.72-186.21,54.62C684.95,1148.35,678.97,1161.5,685.46,1162.59
				L685.46,1162.59z"/>
		</g>
	</g>
	<g>
		<g>
			<path d="M698.82,917.2c9.52-7.76,23.55-8.98,34.78-4.42c11.76,4.78,19.65,15.69,20.78,28.32c1.07,11.95-3.96,22.56-14.88,27.93
				c-10.91,5.37-24.17,4.58-34.44-1.77c-5.02-3.1-12.41,9.44-7.28,12.61c22.28,13.76,51.89,2.6,62.63-20.39
				c10.92-23.37,1.55-53.6-24.52-61.01c-13.91-3.95-28.81-0.48-39.93,8.59c-2.42,1.97-4.69,6.23-3.62,9.41
				C693.44,919.73,696.7,918.93,698.82,917.2L698.82,917.2z"/>
		</g>
	</g>
	<g>
		<path d="M631.31,801.61c-2.05-9.31,0.31-18.94,2.09-28.31c1.78-9.36,2.9-19.51-1.34-28.05c-4.23-8.53-15.79-13.97-23.63-8.59
			c-8.3,5.69-7.1,17.94-7.75,28.01c-0.51,8.01-2.76,15.8-3.96,23.74c-1.2,7.94-1.26,16.41,2.35,23.57
			c3.61,7.16,11.73,12.5,19.53,10.74c7.8-1.76,12.81-12.33,7.79-18.58"/>
		<g>
			<path d="M636.36,797.27c-3.59-19.01,9.77-38.3,0.49-56.93c-6.93-13.92-25.07-16.63-34.62-3.93c-4.72,6.27-5.96,14-6.39,21.63
				c-0.51,8.96-1.55,17.36-3.24,26.19c-2.98,15.55-3.63,38.16,14.78,44.42c15.9,5.41,33.62-15.64,23.54-30
				c-3.68-5.24-12.3,6.34-9.03,11c4.02,5.72-2.9,7.62-7.61,6.26c-7.29-2.09-11.63-9.24-12.72-16.36
				c-1.38-9.05,1.45-18.18,3.03-27.01c1.3-7.24,1.2-14.43,1.83-21.71c0.45-5.31,1.39-10,7.77-9.61c7.17,0.44,12.79,6.42,14.6,13.03
				c2.17,7.93,0.31,16.23-1.21,24.1c-1.78,9.23-3.07,18.25-1.31,27.59c0.65,3.44,4.63,2.22,6.48,0.73
				C635.41,804.51,637,800.66,636.36,797.27L636.36,797.27z"/>
		</g>
	</g>
	<g>
		<path d="M817.73,786.07c4.15-9.11,8.4-18.8,7.26-28.75c-1.14-9.95-9.95-19.74-19.78-18.03c-10.68,1.86-15.13,14.68-16.53,25.47
			c-1.49,11.55-1.87,23.24-1.13,34.86c0.53,8.32,2.87,18.22,10.74,20.9c6.91,2.36,14.57-2.76,17.65-9.41s2.76-14.3,2.38-21.62"/>
		<g>
			<path d="M822.34,786.5c6.46-14.24,13.61-33.58,1.51-47.03c-10.83-12.04-26-6.48-33.55,5.94c-8.29,13.63-8.53,32.01-8.36,47.43
				c0.12,11.82,0.63,34.23,17.12,34.9c8.24,0.33,15.66-5.93,19.67-12.63c5.18-8.65,5.33-18.76,4.84-28.53
				c-0.16-3.16-2.55-4.47-5.35-3.09c-2.92,1.45-5.31,5.66-5.15,8.91c0.29,5.7,1.63,14.62-2.63,19.24
				c-4.34,4.71-11.15,2.88-14.27-2.09c-3.4-5.41-3.46-12.5-3.66-18.67c-0.27-8.5,0.01-17.05,1.02-25.51
				c1.06-8.89,4.59-25.04,17.27-18.1c15.03,8.23,7.64,26.58,2.3,38.35c-1.06,2.34-1.08,6.57,2.11,7.09
				C818.6,793.27,821.23,788.95,822.34,786.5L822.34,786.5z"/>
		</g>
	</g>
	<g>
		<g>
			<path d="M790.88,696.81c28.28-0.93,55.88,11.25,73.98,33.07c4.19,5.05,12.63-6.66,9.03-11c-19.05-22.96-48.11-36.37-78-35.39
				C790.23,683.68,784.75,697.01,790.88,696.81L790.88,696.81z"/>
		</g>
	</g>
	<g>
		<g>
			<path d="M559.81,727.22c17.84-20.54,46.23-29.62,72.82-25.11c5.52,0.93,11.51-12.22,5.01-13.32
				c-31.03-5.25-62.72,7.31-83.18,30.87c-1.79,2.07-3.89,6.75-1.84,9.28C554.78,731.59,558.17,729.1,559.81,727.22L559.81,727.22z"
				/>
		</g>
	</g>
	<g>
		<g>
			<path d="M1140.19,844.9c38.44,5.73,70.94,39.48,74.38,78.37c0.76,8.6,10.99-0.22,10.49-5.83c-3.77-42.55-37.34-79.52-79.87-85.86
				C1139.64,830.76,1133.7,843.93,1140.19,844.9L1140.19,844.9z"/>
		</g>
	</g>
	<g>
		<g>
			<path d="M275.21,819.53c-47.9,6.26-85.38,55.93-80.17,103.59c0.94,8.6,11.11-0.22,10.49-5.83
				c-4.47-40.91,26.58-79.36,67.21-84.67C278.14,831.92,282.7,818.56,275.21,819.53L275.21,819.53z"/>
		</g>
	</g>
</g>
<g id="Ebene_8">
	<ellipse class="st4" cx="622.03" cy="753.45" rx="6.54" ry="6.56"/>
	<ellipse class="st4" cx="812.47" cy="759.09" rx="6.3" ry="6.32"/>
</g>
<g id="Ebene_10">
	<g class="st5">
		<path class="st3" d="M575.1,1121.25c-1.43-22.87-21.48-42.49-44.13-45.34c-22.65-2.85-45.91,9.95-57.58,29.64
			c-11.67,19.69-12.19,45.05-3.38,66.18c9.79,23.47,31.43,42.19,56.48,46.05c25.05,3.86,52.43-8.56,64.12-31.14
			c11.69-22.57,5.03-53.73-16.1-67.77"/>
		<g>
			<path class="st3" d="M580.35,1118.34c-2.48-31.31-32.19-53.52-62.87-48.7c-34.09,5.36-56.9,37.52-58.66,70.56
				c-1.73,32.49,16.81,65.09,46.69,78.66c28.02,12.73,62.08,4.79,81.62-19.09c20.93-25.57,19.53-67.62-8.97-87.2
				c-4.79-3.29-12.29,9.16-7.28,12.61c18.99,13.04,26.47,41.56,14.59,61.75c-12.85,21.85-42.63,29.47-65.81,22.02
				c-25.69-8.27-44.76-31.74-49.43-58.04c-4.96-27.95,8.07-57.04,36.16-66.11c13.91-4.49,28.69-3.04,41.14,4.73
				c12.04,7.51,21.18,20.27,22.32,34.63C570.54,1132.77,580.79,1123.94,580.35,1118.34L580.35,1118.34z"/>
		</g>
	</g>
	<g class="st5">
		<path class="st3" d="M1013.54,1049.77c-1.43-22.87-21.48-42.49-44.13-45.34c-22.65-2.85-45.91,9.95-57.58,29.64
			c-11.67,19.69-12.19,45.05-3.38,66.18c9.79,23.47,31.43,42.19,56.48,46.05c25.05,3.86,52.43-8.56,64.12-31.14
			c11.69-22.57,5.03-53.73-16.1-67.77"/>
		<g>
			<path class="st3" d="M1018.79,1046.86c-2.48-31.31-32.19-53.52-62.87-48.7c-34.09,5.36-56.9,37.52-58.66,70.56
				c-1.73,32.49,16.81,65.09,46.69,78.66c28.02,12.73,62.08,4.79,81.62-19.09c20.93-25.57,19.53-67.62-8.97-87.2
				c-4.79-3.29-12.29,9.16-7.28,12.61c18.99,13.04,26.47,41.56,14.59,61.75c-12.85,21.85-42.63,29.47-65.81,22.02
				c-25.69-8.27-44.76-31.74-49.43-58.04c-4.96-27.95,8.07-57.04,36.16-66.11c13.91-4.49,28.69-3.04,41.14,4.73
				c12.04,7.51,21.18,20.27,22.32,34.63C1008.98,1061.29,1019.24,1052.46,1018.79,1046.86L1018.79,1046.86z"/>
		</g>
	</g>
</g>
<g id="Ebene_11">
</g>
<g id="Ebene_12">
	<g>
		<g>
			<path class="st6" d="M112.7,1882.48c12.34-6.05,25.77-11.73,38.37-3.81c8.88,5.58,19.16,9.59,29.18,12.6
				c6.93,2.08,14.09,5.31,21.22,6.23c12.24,1.58,25.4-2.37,37.37-4.46c9.16-1.6,20.12-1.49,28.29-7.02
				c6.49-4.39,13.89-10.98,18.8-17.39c8.93-11.65,27.55-40.12,10.8-51.52c-5.59-3.8-10.45-3.38-16.62-4.71
				c-5.74-1.24-11.24-3.89-17.03-5.17c-10.56-2.35-21.3-3.88-31.89-6.09c-8.18-1.71-13.76-5.92-19.47-12.91
				c-3.57-4.37-4.94-10.44-8.69-14.58c-4.28-4.71-11.09-6.46-16.8-8c-9.7-2.61-21.28-4.19-31.21-1.87
				c-10.03,2.34-18.08,10.08-26.16,16.34c-7.11,5.5-12.87,11.32-17.63,19.17c-4.28,7.07-7.09,15.02-11.03,22.27
				c-4.56,8.39-9.6,15.27-15.27,22.99c-5.08,6.92-15.12,15.56-7.01,24.35c5.44,5.9,25.77,14.4,33.57,14.39"/>
			<g>
				<path d="M112.8,1888.29c10.25-4.99,22.11-10.21,33.16-4.44c9.98,5.21,19.38,9.94,30.18,13.35c11.75,3.71,22.24,7.89,34.79,6.8
					c11.29-0.98,22.22-4.17,33.46-5.58c10.7-1.34,19.45-3.72,28.1-10.38c7.66-5.9,14.22-12.94,19.75-20.85
					c8.59-12.29,19.3-29.35,15.69-45.09c-1.82-7.96-8.48-12.79-16.14-14.58c-5.33-1.24-10.57-1.74-15.81-3.52
					c-5.95-2.02-11.79-3.59-17.97-4.78c-5.63-1.09-11.28-2.04-16.91-3.08c-5.31-0.99-10.64-1.75-15.37-4.53
					c-4.15-2.43-7.83-6.01-10.57-9.96c-2.94-4.24-4.28-9.46-7.77-13.35c-6.16-6.87-16.79-9.01-25.46-10.68
					c-10.86-2.1-22.59-2.38-32.82,2.32c-9.13,4.2-17.26,11.42-24.88,17.85c-8.42,7.1-15.17,15.72-20.05,25.6
					c-5.73,11.61-11.1,22.68-18.74,33.21c-5.9,8.13-15.63,16.85-15.67,27.65c-0.04,9.43,8.36,14.37,15.84,18.04
					c7.03,3.44,15.47,7.22,23.43,7.45c5.49,0.16,10.96-12.73,4.85-12.91c-6.32-0.18-12.66-2.87-18.34-5.41
					c-4.37-1.96-14.97-5.92-15.58-11.73c-0.28-2.68,2.72-5.46,4.25-7.35c3.12-3.86,6.05-7.84,8.92-11.89
					c5.96-8.43,11.1-17.07,15.42-26.45c4.05-8.78,8.22-17,15.38-23.68c6.54-6.11,14.15-12.53,21.94-16.97
					c9-5.13,19.52-4.85,29.46-3.13c8.2,1.42,19.57,3.27,24.7,10.55c2.54,3.61,3.85,7.92,6.37,11.55c2.41,3.48,5.62,6.65,8.94,9.25
					c7.08,5.55,16.06,6.62,24.65,8.17c10.93,1.98,21.42,4.12,32.01,7.52c7.77,2.49,18.97,1.62,24.22,8.91
					c7.18,9.96-3.88,26-9.5,34.14c-4.75,6.87-10.38,12.83-17.02,17.92c-7.76,5.94-16.61,6.64-25.99,7.9
					c-11.51,1.56-22.83,5.44-34.55,5.27c-11.67-0.18-23.76-5.31-34.62-9.3c-5.29-1.94-10.48-4.18-15.42-6.88
					c-4.99-2.72-9.48-5.73-15.22-6.6c-10.94-1.66-21.75,3.39-31.32,8.05C107.73,1879.03,105.27,1891.95,112.8,1888.29L112.8,1888.29
					z"/>
			</g>
		</g>
		<g>
			<path class="st7" d="M121.98,1727.05c-16.17,6.25-26.72,23.26-35.07,38.52c-6.69,12.23-11.63,30.72-6.9,44.67
				c3.55,10.45,14.95,13.31,24.16,14.15c12.62,1.15,25.12-7.69,37.07-10.81c8.37-2.19,16.82-1.36,23.63,4.6
				c5.87,5.13,7.87,11.32,16.78,8.95c9.15-2.43,17.36-8.74,24.06-15.52c6.83-6.91,11.55-15.07,10.74-25.6
				c-0.83-10.82-7.16-17.58-14.76-24.1c-2.87-2.46-5.53-4.66-8.92-6.32c-4.39-2.15-9.61-3.12-13.71-5.84
				c-6.2-4.11-9.27-11.68-7.81-19.08c1-5.08,1.58-9.26-1.9-13.27c-14.95-17.23-43.22,8.09-48.51,9.88"/>
			<g>
				<path d="M121.88,1721.23c-15.01,6.13-25.35,19.74-33.49,33.21c-8.46,14-15.22,29.26-15.33,45.91
					c-0.05,7.26,1.14,15.64,6.14,21.26c4.28,4.81,10.41,7.16,16.6,8.39c7.85,1.57,15.33,0.77,22.86-1.9
					c8.14-2.88,15.92-7.48,24.53-8.86c8.77-1.41,15.52,2.14,21.36,8.37c4.85,5.18,9.48,7.66,16.68,5.63
					c15.19-4.29,30.34-17.73,36.89-32.01c7.22-15.72,2.49-31.39-9.8-42.7c-2.73-2.51-5.53-5.03-8.61-7.09
					c-3.94-2.63-8.38-3.77-12.7-5.57c-8.38-3.49-11.78-9.91-10.4-18.69c1.26-7.99-0.68-15.12-7.94-19.5
					c-5.48-3.3-12.23-3.21-18.25-1.66c-6.41,1.65-12.45,4.81-18.06,8.24c-2.22,1.36-4.39,2.79-6.56,4.21
					c-0.88,0.57-1.75,1.16-2.65,1.7c-0.38,0.23-2.63,1.33-1.1,0.74c-3.17,1.22-5.57,4.22-6.14,7.6c-0.37,2.17,0.52,6.34,3.75,5.09
					c6.93-2.68,12.79-8.03,19.43-11.39c7.97-4.05,19.99-7.67,26.36,1.1c2.03,2.79,1.37,5.39,0.87,8.59
					c-0.54,3.43-0.66,6.85,0.05,10.27c1.33,6.39,5.52,11.91,11.32,14.88c6.72,3.43,13.32,4.94,19.27,9.9
					c5.17,4.32,10.61,9.36,13.02,15.82c5.36,14.33-5.46,26.02-16.82,33.27c-4.79,3.06-12.24,7.45-17.5,3.27
					c-4.91-3.91-7.9-9.01-14.07-11.42c-14.52-5.69-27.95,3.18-41.32,7.77c-10.28,3.53-27,3.69-33.85-6.68
					c-4.25-6.42-3.65-15.78-2.3-23c1.4-7.43,4.2-14.3,7.87-20.88c7.27-13.02,15.72-26.39,30.09-32.26
					C127.13,1730.8,129.66,1718.05,121.88,1721.23L121.88,1721.23z"/>
			</g>
		</g>
		<g>
			<path class="st8" d="M195.23,1801.67c7.64,6.9,14.11,13.31,24.33,14.35c4.9,0.5,9.67-0.27,14.5-1.11
				c7.45-1.31,13.41-2.44,19.74,2.65c12.31,9.91,24.6,19.63,37.13,29.31c3.06,2.36,5.14,3.92,9.03,4.19
				c4.86,0.34,8.74,1.23,13.61,0.33c10.43-1.93,18.03-6.48,24.75-15.27c5.91-7.73,9.31-19.81,7.8-29.77
				c-1.96-12.9-13.17-18.2-22.74-23.95c-7.6-4.56-15.53-9.33-17.49-18.97c-0.92-4.56-1.38-8.87-1.39-13.54
				c-0.01-4.84,1.36-9.68,1-14.46c-1.57-21.29-23.89-26.68-40.42-25.3c-14.35,1.19-26.21,12.2-34.24,24.26
				c-2.94,4.42-5.88,8.87-10.22,11.92c-4.29,3.01-9.56,4.58-14.26,6.7c-6.04,2.73-10.52,7.5-14.57,12.86
				c-2.94,3.9-5.72,7.82-6.62,12.88c-0.94,5.3,0.33,10.57,3.27,14.8c2.8,4.03,11.83,12.18,14.72,16.11"/>
			<g>
				<path d="M191.71,1807.78c6.48,5.87,12.86,11.85,21.58,14.01c9.59,2.38,18.46-1.79,27.95-1.52c5.07,0.15,8.32,2.83,12.12,5.88
					c4.61,3.7,9.23,7.38,13.86,11.05c4.12,3.26,8.25,6.5,12.39,9.73c3.97,3.1,8,7.12,12.61,9.23c7.44,3.4,18.25,2.61,25.83,0.19
					c8.06-2.58,14.82-7.31,20.44-13.59c10.76-12.04,17.82-33.1,9.94-48.37c-7.37-14.28-25.78-16.01-34.71-28.44
					c-5.86-8.15-3.87-19.55-3.2-28.82c0.52-7.31-1.17-14.95-5.79-20.78c-8.11-10.24-22.62-13.36-35.07-12.79
					c-17.66,0.81-31.43,12.74-41.1,26.72c-2.73,3.95-5.22,8.42-9.34,11.1c-4.42,2.87-9.68,4.07-14.31,6.5
					c-8.6,4.53-15.58,12.94-20.45,21.2c-5.13,8.72-6.53,19.54-1.22,28.52c3.95,6.68,10.83,11.3,15.55,17.41
					c3.85,4.98,12.11-6.31,8.75-10.66c-7.17-9.28-23.79-18.97-14.9-32.4c4.38-6.62,9.53-11.36,16.87-14.39
					c7.6-3.14,14.06-6.51,19.34-13.01c4.85-5.97,8.41-12.72,14.1-18.02c5.45-5.08,11.97-8.94,19.47-9.88
					c10.49-1.32,23.84,0.72,31.73,8.31c4.6,4.43,6.69,10.6,6.26,16.91c-0.59,8.82-1.41,17.01,0.58,25.78
					c3.23,14.21,17.51,19.34,28.39,26.65c5.64,3.79,10.55,8.6,11.71,15.57c1.18,7.06-0.62,15.17-4.43,21.2
					c-3.62,5.72-9.14,10.18-15.56,12.36c-6.7,2.28-17.29,3.43-23.6-0.48c-8.74-5.41-16.71-12.81-24.76-19.2
					c-4.37-3.47-8.74-6.95-13.09-10.44c-3.52-2.83-6.92-5.15-11.49-5.8c-9.29-1.32-18.36,3.39-27.75,1.85
					c-8.74-1.44-15.35-8.1-21.64-13.8C194.81,1791.99,187.27,1803.77,191.71,1807.78L191.71,1807.78z"/>
			</g>
		</g>
		<g>
			<path class="st6" d="M327.4,1657.48c-16.1-16.03-38.15-32.57-61.49-27.79c-18.84,3.86-32.71,11.31-47.3,24.53
				c-11.9,10.79-22.11,21.66-31.92,34.65c-7.97,10.55-16.84,23.71-20.85,36.68c-3.54,11.43-1.46,18.37,3.52,28.81
				c4.25,8.89,15.85,13.61,24.52,15.9c21.19,5.61,44.46,2.2,66.17,2.43c7.16,0.07,13.28,2.51,20.67,2.15
				c3.88-0.19,37.76,12.46,49.71-16.55c12.02-29.18-45.25-14.55,14.44-69.9c9.72-9.01,4.09-16.61-3.62-24.43
				c-6.1-6.18-14.53-11.94-23.49-10.6"/>
			<g>
				<path d="M331.78,1652.15c-17.09-16.88-39.18-33.68-64.67-28.8c-24.68,4.72-43.98,19.35-61.26,36.85
					c-9.37,9.49-18.02,19.62-25.78,30.48c-7.93,11.1-15.44,23-19.21,36.22c-3.36,11.78-1.44,23.41,4.76,33.97
					c5.29,9.02,16.24,13.29,25.84,15.84c13.74,3.64,28.12,3.47,42.21,3.01c7.08-0.23,14.15-0.57,21.24-0.59
					c6.73-0.01,13.12,1.76,19.8,2.13c12.01,0.67,23.59,4.57,35.65,1.01c14.39-4.24,28.06-20.04,26.82-35.74
					c-0.68-8.6-7.78-12.57-12.33-17.89c-1.42-1.66-2.06-2.67-2.39-4.02c-0.12-0.49-0.15-1.76-0.23-1.26
					c0.07-0.45,0.12-0.9,0.22-1.34c0.34-1.58-0.17,0.33,0.29-0.96c0.71-1.99,2.77-5.34,4.77-7.95c3.66-4.77,7.78-9.18,12.05-13.4
					c5.36-5.3,11.78-10.07,14.42-17.43c2.07-5.78,1.03-11.57-2.32-16.63c-7.1-10.74-19.38-20.01-32.69-18.63
					c-5.23,0.54-9.7,13.45-2.39,12.69c10.52-1.09,22.31,9.03,27.07,17.78c2.88,5.3-1.2,6.9-4.96,10.55
					c-4.01,3.88-7.93,7.86-11.63,12.03c-7.25,8.19-17.42,20.62-14.5,32.56c1.6,6.53,7.68,10.1,11.38,14.27
					c2.33,2.63,3.2,4.32,3.13,6.82c-0.01,0.4,0.04,0.52-0.29,1.86c-0.13,0.53-0.26,0.99-0.81,2.3c-1.32,3.14-3.26,5.98-5.97,8.08
					c-9.35,7.27-22.54,5.19-33.28,3.02c-1.19-0.24-2.36-0.5-3.57-0.59c-5.76-0.45-11.41-1.38-17.17-1.94
					c-12.74-1.25-25.87,0.57-38.65,0.61c-11.67,0.04-23.75-0.62-34.88-4.4c-10.41-3.54-17.32-8.99-21.2-19.42
					c-4.21-11.3-0.25-21.58,5.39-31.66c5.73-10.25,12.84-19.75,20.39-28.73c15.72-18.72,34.41-37.34,58.41-44.48
					c12.72-3.78,24.5-3.89,36.73,1.72c11.69,5.37,21.77,13.77,30.86,22.74C327.64,1667.37,335.58,1655.91,331.78,1652.15
					L331.78,1652.15z"/>
			</g>
		</g>
		<g>
			<path class="st9" d="M331.25,1601.9c-21.99-5.79-69.65,22.7-77.82,36.99c-6.84,11.96-10.15,21.67-9.63,35.84
				c0.39,10.8,5.71,23.46,12.75,31.23c19.57,21.6,46.2,0.03,68.46,10.09c7.61,3.44,10.97,9.88,17.07,15.21
				c7.38,6.44,16.14,10.37,25.68,9.87c9.17-0.48,18.17-5.69,24.64-12.36c6.22-6.42,15.11-16.04,17.05-25.38
				c2.16-10.4-4.96-19.24-11.47-26.1c-8.93-9.39-17.94-14.92-24.66-26.65c-3.59-6.26-8.29-13.25-8.1-21.04
				c0.11-4.5,2.84-6.18,0.46-10.5c-9.31-16.84-28.04-16.61-36.93-18"/>
			<g>
				<path d="M333.68,1595.44c-12.79-3.09-27.19,2.61-38.67,7.75c-13.04,5.83-26.09,13.52-36.57,23.31
					c-11.6,10.83-18.33,27.02-19.55,42.71c-1.39,17.88,5.52,40.42,22.4,49.42c15.65,8.34,32.95,0.13,49.41,1.11
					c10.33,0.61,16.33,5.72,23.11,12.99c6.47,6.94,14.36,12.38,23.78,14.28c19.87,4,36.64-11.47,47.55-26.18
					c5.67-7.65,10.68-16.78,9.63-26.63c-1.05-9.91-7.92-17.88-14.74-24.61c-7.7-7.6-16.22-14.13-21.89-23.53
					c-2.93-4.86-6.47-10.1-7.53-15.77c-0.89-4.78,2.16-9.1,0.64-13.89c-5.41-17.07-25.24-19.56-40.07-21.75
					c-5.38-0.8-11.14,11.98-4.85,12.91c11.75,1.74,24.2,2.5,32.18,12.65c0.88,1.12,2.68,3.13,2.95,4.61
					c0.24,1.33-0.79,3.06-1.03,4.47c-0.73,4.45,0,9.14,1.58,13.33c2.93,7.78,7.7,15.75,13.13,22.03
					c5.63,6.51,12.54,11.75,18.47,17.97c5.36,5.61,12.65,13.57,10.9,22.02c-1.53,7.41-8.63,14.31-13.75,19.47
					c-5.87,5.91-13.59,10.55-22.15,10.6c-8.61,0.06-16.67-3.91-23-9.56c-6.33-5.66-10.69-12.92-19.01-15.99
					c-14.52-5.36-29.11,0.43-43.9,0.38c-17.64-0.05-28.6-13.72-32.65-29.91c-1.99-7.94-1.66-16.82,0.7-24.66
					c1.16-3.84,2.82-7.5,4.71-11.03c0.37-0.7,2.43-4.19,1.59-2.98c0.55-0.79,1.17-1.54,1.8-2.26c8.35-9.5,21.01-16.51,32.35-22.02
					c11.03-5.35,25.13-11.35,37.62-8.34C334.03,1609.61,339.98,1596.96,333.68,1595.44L333.68,1595.44z"/>
			</g>
		</g>
	</g>
	<g>
		<g>
			<path class="st6" d="M1317.02,1875.73c-12.34-6.05-25.77-11.73-38.37-3.81c-8.88,5.58-19.16,9.59-29.18,12.6
				c-6.93,2.08-14.09,5.31-21.22,6.23c-12.24,1.58-25.4-2.37-37.37-4.46c-9.16-1.6-20.12-1.49-28.29-7.02
				c-6.49-4.39-13.89-10.98-18.8-17.39c-8.93-11.65-27.55-40.12-10.8-51.52c5.59-3.8,10.45-3.38,16.62-4.71
				c5.74-1.24,11.24-3.89,17.03-5.17c10.56-2.35,21.3-3.88,31.89-6.09c8.18-1.71,13.76-5.92,19.47-12.91
				c3.57-4.37,4.94-10.44,8.69-14.58c4.28-4.71,11.09-6.46,16.8-8c9.7-2.61,21.28-4.19,31.21-1.87
				c10.03,2.34,18.08,10.08,26.16,16.34c7.11,5.5,12.87,11.32,17.63,19.17c4.28,7.07,7.09,15.02,11.03,22.27
				c4.56,8.39,9.6,15.27,15.27,22.99c5.08,6.92,15.12,15.56,7.01,24.35c-5.44,5.9-25.77,14.4-33.57,14.39"/>
			<g>
				<path d="M1320.55,1869.61c-8.49-4.13-17.8-8.46-27.47-7.99c-10.22,0.5-17.99,7.06-27.04,11.03c-9.38,4.11-19.6,7.36-29.45,10.18
					c-10.66,3.05-21.21,1.4-31.88-0.76c-9.35-1.89-18.92-2.73-28.22-4.74c-9.53-2.06-17.36-8.73-23.92-15.68
					c-9.16-9.7-18.49-23.39-20.87-36.71c-1.18-6.62,0.62-9.76,7.46-11.37c4.81-1.14,9.63-1.49,14.37-3
					c5.23-1.66,10.26-3.44,15.66-4.55c10.2-2.1,20.97-2.97,30.94-6c8.07-2.45,14.69-7.83,19.97-14.28
					c2.93-3.58,4.75-7.57,6.89-11.62c2.2-4.16,5.42-5.88,9.83-7.32c9.12-2.97,19.01-5.02,28.63-4.32
					c9.96,0.72,17.55,5.57,25.18,11.64c7.5,5.97,15.04,11.68,20.7,19.53c6.56,9.09,9.94,19.93,15.55,29.57
					c5.29,9.08,11.66,17.43,18.14,25.68c1.59,2.02,5.66,7.23,4.59,9.15c-1.24,2.22-5.95,3.98-8.02,5.03
					c-6.17,3.13-13.87,6.82-20.93,7.02c-5.49,0.16-10.81,13.08-4.85,12.91c7.42-0.22,14.68-3.18,21.38-6.13
					c6.91-3.04,14.29-6.79,18.78-13.08c6.05-8.46,4.19-17.22-1.77-25c-6.53-8.52-13.16-16.92-18.57-26.23
					c-5.6-9.64-9-20.47-15.55-29.57c-6.22-8.64-14.73-15.05-23.01-21.58c-8.32-6.55-16.86-11.31-27.64-11.89
					c-10.56-0.56-21.67,1.54-31.61,5.05c-4.42,1.56-8.57,3.63-12,6.89c-3.97,3.78-6.1,8.55-8.61,13.31
					c-4.93,9.37-13.29,12.5-23.1,14.37c-12.33,2.35-24.57,4.18-36.5,8.17c-9.44,3.16-19.91,2.63-27.78,9.52
					c-13.63,11.93-8.41,30.46-1,44.18c3.56,6.6,7.8,13.05,12.68,18.75c6.74,7.89,15.54,16.12,25.61,19.27
					c5.51,1.72,11.2,2.28,16.89,3.03c6.24,0.83,12.36,2.26,18.54,3.44c6.51,1.25,13.12,2.29,19.77,1.98
					c6.62-0.31,12.75-2.16,18.98-4.31c12.02-4.14,24.16-7.63,35.21-14.1c5.99-3.51,11.18-5.3,18.19-4.18
					c6.65,1.06,12.8,4.01,18.8,6.93C1318.76,1884.4,1325.66,1872.1,1320.55,1869.61L1320.55,1869.61z"/>
			</g>
		</g>
		<g>
			<path class="st7" d="M1307.74,1720.3c16.17,6.25,26.72,23.26,35.07,38.52c6.69,12.23,11.63,30.72,6.9,44.67
				c-3.55,10.45-14.95,13.31-24.16,14.15c-12.62,1.15-25.12-7.69-37.07-10.81c-8.37-2.19-16.82-1.36-23.63,4.6
				c-5.87,5.13-7.87,11.32-16.78,8.95c-9.15-2.43-17.36-8.74-24.06-15.52c-6.83-6.9-11.55-15.07-10.74-25.6
				c0.83-10.82,7.16-17.58,14.76-24.1c2.87-2.46,5.53-4.66,8.92-6.32c4.39-2.15,9.61-3.12,13.71-5.84
				c6.2-4.11,9.27-11.68,7.81-19.08c-1-5.08-1.58-9.26,1.9-13.27c14.95-17.23,43.22,8.09,48.51,9.88"/>
			<g>
				<path d="M1304.21,1726.41c12.72,5.2,21.26,16.04,28.29,27.44c7.32,11.87,13.67,24.73,13.98,38.97
					c0.13,5.79-0.22,11.95-5.74,14.97c-4.81,2.63-11.28,3.75-16.71,3.44c-14.68-0.86-26.81-12.21-41.72-11.95
					c-7.03,0.12-13.53,2.63-18.86,7.23c-4.05,3.5-6.2,8.85-12.22,7.57c-7.08-1.5-13.67-6.25-19.03-10.93
					c-5.19-4.53-10.37-10.05-12.63-16.68c-4.62-13.53,5.14-25.37,16.75-31.45c6.57-3.44,13.6-4.5,19.04-9.97
					c5.12-5.16,8.31-12.24,8.52-19.53c0.09-2.97-2.1-8.01-1.08-10.66c0.61-1.57,2.61-2.56,4.29-3.1c4.85-1.58,10.49-0.11,15.06,1.72
					c5.11,2.04,9.87,4.86,14.49,7.82c2.78,1.78,5.58,4.15,8.68,5.35c5.53,2.14,12.19-10.24,7.06-12.22
					c-3.24-1.25-6.17-3.75-9.08-5.61c-4.8-3.06-9.78-5.96-15.13-7.96c-12.03-4.51-25.16-2.91-32.42,8.89
					c-1.85,3.01-2.96,6.43-3.12,9.96c-0.19,4.06,1.58,8.11,0.97,12.12c-1.24,8.2-12.93,8.79-18.86,12.33
					c-13.39,8.02-25.56,21.81-26.59,37.91c-1.08,16.91,11.28,30.64,24.77,39.17c5.9,3.73,14.21,7.88,21.25,5.2
					c6.73-2.55,9.66-9.88,16.14-12.75c7.97-3.54,16.92-0.39,24.44,2.72c7.8,3.22,15.84,7.21,24.41,7.71
					c14.18,0.83,29.45-5.73,34.76-19.6c6.52-17.05,0.97-37-7.45-52.32c-8.3-15.09-18.6-31.23-35.21-38.02
					C1305.79,1711.95,1299.07,1724.31,1304.21,1726.41L1304.21,1726.41z"/>
			</g>
		</g>
		<g>
			<path class="st8" d="M1234.48,1794.92c-7.64,6.9-14.11,13.31-24.33,14.35c-4.9,0.5-9.67-0.27-14.5-1.11
				c-7.45-1.31-13.41-2.44-19.74,2.65c-12.31,9.91-24.6,19.63-37.13,29.31c-3.06,2.36-5.14,3.92-9.03,4.19
				c-4.86,0.34-8.74,1.23-13.61,0.33c-10.43-1.93-18.03-6.48-24.75-15.27c-5.91-7.73-9.31-19.81-7.8-29.77
				c1.96-12.9,13.17-18.2,22.74-23.95c7.6-4.56,15.53-9.33,17.49-18.97c0.92-4.56,1.38-8.87,1.39-13.54c0.01-4.84-1.36-9.68-1-14.46
				c1.57-21.29,23.89-26.68,40.42-25.3c14.35,1.19,26.21,12.2,34.24,24.26c2.94,4.42,5.88,8.87,10.22,11.92
				c4.29,3.01,9.56,4.58,14.26,6.7c6.04,2.73,10.52,7.5,14.57,12.86c2.94,3.9,5.72,7.82,6.62,12.88c0.94,5.3-0.33,10.57-3.27,14.8
				c-2.8,4.03-11.83,12.18-14.72,16.11"/>
			<g>
				<path d="M1233.1,1790.01c-5.52,5-11.1,10.77-18.64,12.42c-8.57,1.88-16.77-1.83-25.29-1.83c-8.67,0-14.36,5.09-20.8,10.25
					c-7.69,6.15-15.41,12.26-23.17,18.31c-3.23,2.52-6.51,5.78-10.13,7.71c-3.44,1.84-9.17,1.87-13,1.71
					c-7.24-0.31-14.49-3.28-20.06-7.87c-5.89-4.85-10.11-11.53-12.19-18.83c-1.74-6.08-2.96-14.26,1.29-19.59
					c3.87-4.85,10.12-7.68,15.33-10.8c6.09-3.64,12.23-7.54,16.55-13.3c4.84-6.45,6.41-14.03,7.05-21.93
					c0.36-4.47,0.14-8.73-0.36-13.17c-0.41-3.62-0.77-7.27,0.38-10.8c3.24-9.94,17.14-12.45,26.15-12.62
					c15.43-0.29,27.23,8.13,36.13,20.23c5.15,7.01,9.23,14.15,17.32,18.17c3.98,1.98,8.31,3.19,12.2,5.36
					c3.88,2.16,6.99,5.21,9.8,8.62c4.9,5.96,11.67,14.97,5.95,22.51c-4.04,5.33-9.55,9.41-13.64,14.71
					c-1.63,2.12-3.84,6.47-1.78,8.99c2.03,2.49,5.48,0.27,6.97-1.66c4.19-5.42,9.7-9.69,13.94-15.08c5.44-6.91,8.1-15.84,6.17-24.53
					c-1.85-8.34-8.59-16.4-14.9-21.88c-6.79-5.91-16.15-6.92-22.99-12.6c-6.78-5.63-10.48-14.53-16.66-20.85
					c-5.97-6.12-12.87-11.1-21.15-13.48c-12.44-3.58-28.4-1.22-39.11,6.08c-5.96,4.07-10.62,9.84-13.14,16.63
					c-3.37,9.09-0.97,17.52-1.19,26.83c-0.1,4.07-0.19,9.32-2.26,12.94c-1.86,3.25-5.51,5.44-8.6,7.36
					c-6.41,3.99-13.32,7.4-19,12.45c-27.97,24.95-3.44,74.05,32.53,70.73c4.93-0.45,9.38-0.69,13.65-3.45
					c5.13-3.31,9.84-7.45,14.64-11.21c4.65-3.64,9.29-7.3,13.91-10.97c4.54-3.61,9.64-9.34,15.11-11.41
					c4.36-1.64,9.64-0.15,14.04,0.6c5.44,0.92,10.92,1.56,16.41,0.64c10.2-1.7,17.95-8.9,25.33-15.58c2.27-2.05,4.58-5.94,3.51-9.12
					C1238.35,1787.66,1235.1,1788.2,1233.1,1790.01L1233.1,1790.01z"/>
			</g>
		</g>
		<g>
			<path class="st6" d="M1102.32,1650.73c16.1-16.03,38.15-32.57,61.49-27.79c18.84,3.86,32.71,11.31,47.3,24.53
				c11.9,10.79,22.11,21.66,31.92,34.65c7.97,10.55,16.84,23.71,20.85,36.68c3.54,11.43,1.46,18.37-3.52,28.81
				c-4.25,8.89-15.85,13.61-24.52,15.9c-21.19,5.61-44.46,2.2-66.17,2.43c-7.16,0.07-13.28,2.51-20.67,2.15
				c-3.88-0.19-37.76,12.46-49.71-16.55c-12.02-29.18,45.25-14.55-14.43-69.9c-9.72-9.01-4.09-16.61,3.62-24.43
				c6.1-6.18,14.53-11.94,23.49-10.6"/>
			<g>
				<path d="M1103.7,1655.64c15.79-15.59,35.77-30.98,59.28-25.91c22.25,4.8,39.45,18.04,55.13,33.96
					c8.14,8.26,15.66,17.11,22.54,26.45c7.24,9.82,14.29,20.36,18.06,32.06c2.89,8.94,2.27,21.35-5.71,27.77
					c-7.73,6.22-18.97,8.42-28.55,9.54c-13.11,1.53-26.41,0.57-39.56,0.16c-5.62-0.18-11.33-0.48-16.93,0.08
					c-5.64,0.56-11.08,1.66-16.75,1.89c-3.75,0.15-7.46,1.36-11.15,1.92c-6.09,0.92-12.55,1.08-18.53-0.57
					c-7.07-1.95-12.7-6.69-16.16-13.13c-1.25-2.33-2.42-5.04-2.73-7.7c0.05,0.41,0.05-1.46,0.02-1.88c0.02,0.4,0.01,0.24,0.13-0.22
					c0.36-1.42-0.79,0.91,0.27-0.49c0.96-1.27-1.09,1.32-0.07,0.1c0.19-0.22,0.36-0.47,0.56-0.69c0.3-0.33,0.59-0.66,0.89-0.99
					c-0.11,0.12-1.11,1.1-0.27,0.29c0.65-0.62,1.32-1.23,1.98-1.84c2.49-2.26,4.99-4.51,6.98-7.23c7.89-10.82,3.47-22.15-3.96-31.84
					c-3-3.91-6.33-7.57-9.76-11.12c-2.41-2.49-4.88-4.91-7.39-7.3c-2.37-2.25-5.86-4.79-6.92-8.04c-1.37-4.23,4.2-8.43,6.97-10.94
					c4.93-4.46,10.61-7.61,17.43-6.91c5.44,0.56,11.09-12.26,4.85-12.91c-12.47-1.29-22.84,7.05-30.75,15.73
					c-7.54,8.28-13.07,20.11-4.5,29.74c7.6,8.55,16.59,15.5,23.21,24.98c1.7,2.43,3.36,4.99,4.34,7.81
					c0.18,0.53,0.78,2.79,0.68,2.29c0.09,0.48,0.08,1.02,0.08,1.51c0,1.43,0.12-0.97-0.03,0.28c-0.18,1.55,0.33-1.48,0.02,0.01
					c-0.09,0.44-0.33,1.97,0.11-0.15c-0.32,1.54,0.81-0.71-0.48,0.73c-0.24,0.27-0.47,0.54-0.7,0.82c-0.99,1.17,1.11-1.07,0,0.01
					c-0.64,0.62-1.3,1.22-1.96,1.82c-3.21,2.92-6.42,5.84-8.67,9.62c-7.09,11.94-1.1,26.72,9.06,34.89
					c11.15,8.97,26.35,7.43,39.42,4.8c0.85-0.17,1.7-0.38,2.57-0.5c1.09-0.15-1.05,0.08-0.23,0.02c1.47-0.12,2.99,0,4.47-0.1
					c6.69-0.48,13.09-2.09,19.83-2.06c14.21,0.08,28.43,1.39,42.64,0.55c12.02-0.7,24.34-2.71,35.1-8.41
					c10.88-5.77,16.99-15.39,20.41-27.01c3.67-12.44,0.21-24.08-5.37-35.37c-6.01-12.15-14.24-23.31-22.86-33.72
					c-17.49-21.14-38.37-41.66-65.27-49.62c-13.85-4.1-26.75-3.88-40.1,1.93c-13.11,5.7-24.4,15.13-34.49,25.09
					c-2.2,2.17-4.61,5.85-3.51,9.12C1098.42,1657.91,1101.75,1657.56,1103.7,1655.64L1103.7,1655.64z"/>
			</g>
		</g>
		<g>
			<path class="st9" d="M1098.47,1595.14c21.99-5.79,69.65,22.7,77.82,36.99c6.84,11.96,10.15,21.67,9.63,35.84
				c-0.39,10.8-5.71,23.46-12.75,31.23c-19.57,21.6-46.2,0.03-68.46,10.09c-7.61,3.44-10.97,9.88-17.07,15.21
				c-7.38,6.44-16.14,10.37-25.68,9.87c-9.17-0.48-18.17-5.69-24.64-12.36c-6.22-6.42-15.11-16.04-17.05-25.38
				c-2.16-10.4,4.96-19.24,11.47-26.1c8.93-9.39,17.94-14.92,24.66-26.65c3.59-6.26,8.29-13.25,8.1-21.04
				c-0.11-4.5-2.84-6.18-0.46-10.5c9.31-16.84,28.04-16.61,36.93-18"/>
			<g>
				<path d="M1097.27,1601.49c10.92-2.63,23.41,2.28,33.24,6.62c11.58,5.12,22.84,11.68,32.59,19.79c9.81,8.16,15.86,20.35,17.41,33
					c1.81,14.76-3.37,35.58-19.41,40.58c-14.2,4.43-29.53-2.57-44.04-1.26c-7.77,0.71-14.98,3.6-20.74,8.96
					c-6.37,5.92-11.13,12.85-19.4,16.43c-17.61,7.62-32.87-4.94-43.37-17.96c-4.97-6.15-11.18-14.7-7.36-22.89
					c3.38-7.25,10.39-12.87,16.17-18.15c7.24-6.61,13.51-13.48,18.48-21.98c4.92-8.42,10.39-18.13,8.24-28.26
					c-0.41-1.94-0.87-2.39-0.08-4.05c0.72-1.52,2.57-2.99,3.86-4.02c2.7-2.13,5.86-3.58,9.14-4.59c5.8-1.78,11.8-2.16,17.76-3.04
					c5.21-0.77,9.62-13.76,2.39-12.69c-14.24,2.11-27.7,4.02-37.49,15.9c-2.91,3.53-5.85,7.91-6.53,12.52
					c-0.74,4.97,2.08,9.02,0.49,14.04c-2.75,8.66-9.16,17.06-15.67,23.23c-12.99,12.3-32.87,28.04-27.25,48.54
					c2.52,9.18,9.37,16.87,15.79,23.59c6.51,6.83,14.1,12.35,23.47,14.37c9.25,2,19.09-0.6,26.98-5.56c3.9-2.45,7.39-5.35,10.6-8.65
					c3.41-3.52,6.41-7.76,10.8-10.15c14.99-8.15,34.18,1.56,50.21-0.58c19.48-2.6,31.62-21.76,35.96-39.43
					c4.14-16.86,0.18-37.17-10.28-51.16c-8.52-11.4-22.94-19.58-35.4-25.82c-12.89-6.46-29.46-13.6-44.17-10.05
					C1094.55,1590.03,1090.3,1603.17,1097.27,1601.49L1097.27,1601.49z"/>
			</g>
		</g>
	</g>
</g>
<g id="Ebene_17">
	<g>
		<path class="st10" d="M1095.92,653.26c3.9-15.01-4.28-32.47-17.87-38.14c-13.59-5.67-30.68,1.25-37.34,15.12
			c-6.66,13.86-1.95,32.73,10.29,41.21c-13.78-6.58-30.54-6.78-43.59,1.32c-13.05,8.1-21.38,24.99-18.47,40.81
			s18.04,28.5,32.96,26.02c-11.38,9.73-19.84,24.21-20.14,39.78c-0.3,15.56,8.91,31.6,22.94,35.8c14.03,4.2,31.06-6.5,32.26-22.01
			c-0.72,22.85,21.06,43.33,42.2,39.66c21.13-3.67,35.73-30.45,28.27-51.89c18.35,5.13,39.28-9.96,41.69-30.05
			c2.41-20.09-14.28-40.33-33.25-40.32c20.22-7.37,29.4-37.5,17.1-56.17c-12.3-18.66-41.96-19.6-55.27-1.75"/>
		<g>
			<path d="M1100.86,652c3.11-13.25-0.72-27.98-10.79-37.34c-9.56-8.87-22.96-9.98-34.58-4.62c-25.63,11.82-31.39,50.42-8.02,67.51
				c2.35-4.07,4.7-8.15,7.06-12.22c-13.13-6-27.98-7.05-41.41-1.36c-12.54,5.32-22.15,16.52-26.78,29.22
				c-4.51,12.37-4.27,26.47,3.09,37.7c6.9,10.54,18.71,16.74,31.28,15.04c-0.06-3.75-0.13-7.5-0.19-11.26
				c-20.85,18.29-34.11,53.05-13.7,76.75c8.23,9.56,20.59,13.74,32.6,9.12c11.92-4.58,21.12-15.84,22.49-28.64
				c-3.34,1.36-6.69,2.72-10.03,4.08c-0.28,25.09,24.12,50.64,50.26,42.13c23.84-7.76,37.85-37.96,30.19-61.39
				c-2.44,3.55-4.88,7.11-7.32,10.66c22.47,5.7,44.3-13.9,48.63-35.05c4.52-22.13-11.61-47.64-35.32-48.22
				c-1.21,4.27-2.42,8.53-3.62,12.8c24.12-9.37,36.5-42.26,24.21-65.23c-13.01-24.32-47.96-23.03-63.79-2.7
				c-1.64,2.11-3.84,6.47-1.78,8.99c2.04,2.5,5.47,0.26,6.97-1.66c11.82-15.18,37.46-12.36,47.94,2.9
				c9.61,13.99,5.86,38.4-11.17,45.01c-2.97,1.15-5.07,3.69-5.91,6.76c-0.52,1.93-0.71,5.96,2.28,6.03
				c17.38,0.42,32.42,17.75,30.73,35.12c-1.6,16.33-19.19,26.18-34.32,22.34c-4.44-1.13-8.46,7.18-7.32,10.66
				c5.42,16.6-3.21,37.75-21.57,41.22c-20.52,3.88-39.13-16.54-38.91-36.02c0.03-2.78-2.04-4.11-4.54-3.26
				c-2.72,0.93-5.2,4.56-5.49,7.34c-0.87,8.16-7.11,13.38-15.02,14.87c-9.23,1.74-17.86-3.45-23.18-10.72
				c-13.02-17.8-6.02-40.48,9.47-54.06c2.61-2.29,6.71-12.19-0.19-11.26c-20.69,2.8-34.24-21.5-27.81-39.22
				c7.75-21.38,33.53-25.01,52.19-16.48c5.31,2.43,11.76-8.78,7.06-12.22c-15.29-11.18-16.81-38.09,3.49-44.5
				c20.2-6.38,37.48,14.42,32.95,33.68c-0.63,2.68,0.67,5.63,3.75,5.09C1098.01,659.02,1100.19,654.87,1100.86,652L1100.86,652z"/>
		</g>
	</g>
</g>
<g id="Ebene_16">
	<g>
		<path class="st7" d="M1099.22,703.92c17.98,12.96,17.46,46.28-0.9,58.6c-18.37,12.32-46.69-1.66-49.81-24.58
			c-3.12-22.92,32.44-65.88,55.86-43.73"/>
		<g>
			<path d="M1095.69,710.03c10.26,7.73,13.86,22.56,10.43,34.66c-3.61,12.74-15.79,18.02-28.24,15.09
				c-12.2-2.88-24.17-14.05-24.48-27.19c-0.25-10.56,7.16-21.51,14.46-28.5c9.49-9.09,22.27-13.47,32.97-3.77
				c3.95,3.58,11.49-8.2,7.06-12.22c-12.43-11.28-28.78-5.74-40.3,3.93c-12.13,10.19-22.45,25.96-24.13,41.98
				c-1.81,17.32,10.55,32.92,26.73,37.89c18.09,5.55,35.09-4.38,42.76-20.98c8.04-17.38,5.82-41.03-10.21-53.12
				C1098.32,694.47,1090.95,706.46,1095.69,710.03L1095.69,710.03z"/>
		</g>
	</g>
</g>
<g id="Ebene_18">
</g>
<g id="Ebene_19">
	<g class="st11">
		<path d="M311.01,1030.76c41.27,125.7,143.27,219.25,260.23,265.49c116.96,46.24,219.8,61.96,344.19,52.31
			c-108.45,41.92-236.85,53.23-356.79-4.4c-119.94-57.63-220.52-172.9-255.35-308.35"/>
		<g>
			<path d="M296.9,1030.76c28.74,86.97,86.99,160.78,161.44,213.49c37.68,26.68,78.9,46.8,122.1,62.85
				c50.06,18.59,101.82,32.84,154.66,40.79c60.98,9.17,122.65,10.15,184.08,5.44c-4.58-2.75-9.15-5.5-13.73-8.25
				c-47.86,18.42-97.82,30.11-149.03,33.2c-24.37,1.47-50.02,0.29-75.21-3.18c-26.77-3.69-53.13-10.52-78.45-19.91
				c-88.7-32.9-165.45-97.47-218.81-174.98c-30.23-43.92-53.17-92.72-66.55-144.38c-2.08-8.04-29.58-5.23-28.22,0
				c24.72,95.42,81.11,181.37,156.22,244.81c38.1,32.18,80.79,58.91,127.12,77.56c53.94,21.72,112.48,31.47,170.54,30.42
				c62.39-1.13,124.17-14.16,182.35-36.55c3.16-1.22,5.75-3.45,2.21-5.98c-4.14-2.96-11.19-2.63-15.94-2.27
				c-50.53,3.88-100.39,3.51-150.58-2.85c-49.48-6.27-98.11-18.71-145.18-35.23c-43.03-15.1-84.22-33.57-122.25-58.92
				c-36.07-24.05-68.72-53.14-96.36-86.56c-31.7-38.32-56.57-82.22-72.19-129.48C322.44,1022.64,295.36,1026.11,296.9,1030.76
				L296.9,1030.76z"/>
		</g>
	</g>
	<g class="st11">
		<path d="M656.9,1472.95c49.97-15.22,97.12-40.96,137.94-75.31c-46.82,7.11-96.94,6.12-143.38-3.41
			c-1.47,26.45,11.14,45.57,1.23,76.79"/>
		<g>
			<path d="M666.88,1476.44c51.98-15.97,99.93-42.61,141.57-77.49c2.88-2.41-4.14-4.93-5.06-5.19c-5.12-1.43-10.47-1.16-15.67-0.39
				c-42.75,6.39-86.79,5.17-129.14-3.41c-3.59-0.73-20.93-2.32-21.23,4.26c-0.56,12.41,2.02,24.39,3.78,36.61
				c1.96,13.67,1.5,26.92-2.55,40.18c-1.45,4.75,25.72,8.19,28.22,0c4.06-13.26,4.52-26.52,2.55-40.18
				c-1.76-12.21-4.34-24.19-3.78-36.61c-7.08,1.42-14.16,2.84-21.23,4.26c51.87,10.51,105.34,11.22,157.63,3.41
				c-6.91-1.86-13.82-3.72-20.73-5.58c-39.39,32.99-85.19,58.04-134.31,73.13c-5.12,1.57-4.68,5.27,0,6.98
				C653.05,1478.68,660.72,1478.33,666.88,1476.44L666.88,1476.44z"/>
		</g>
	</g>
	<g class="st11">
		<path d="M183.19,832.09c-3.76,42.8,7.49,86.92,31.05,121.77c23.56,34.86,41.15,61.12,80.37,70.79
			c-44,16.39-78.9-1.24-107.57-40.48c-28.67-39.24-30.93-98.16-5.36-139.77"/>
		<g>
			<path d="M169.08,832.09c-2.89,34.8,3.74,70.05,19.06,101.45c7.21,14.78,16.73,28.36,26.3,41.69
				c8.15,11.36,16.97,22.32,27.71,31.35c13.28,11.16,28.58,18.09,45.33,22.34c-0.95-2.59-1.9-5.17-2.86-7.76
				c-3.59,1.31-7.19,2.5-10.93,3.32c-0.94,0.21-1.88,0.4-2.82,0.58c-0.4,0.08-3.34,0.53-1.51,0.28c-0.91,0.12-1.84,0.22-2.75,0.31
				c-0.33,0.03-3.9,0.25-2.2,0.18c1.88-0.07-6.06-0.19-2.36,0.03c-1.73-0.1-3.48-0.26-5.2-0.51c2.21,0.33-2.59-0.56-2.99-0.65
				c-1.31-0.3-2.57-0.65-4.58-1.33c-14.63-4.97-26.96-15.1-37.21-26.4c-24.1-26.57-36.15-60.17-33.75-96.08
				c1.3-19.48,6.83-38.43,16.96-55.16c3.46-5.72-23.23-9.21-27.21-2.63c-19.94,32.94-23.58,74.79-10.83,111.01
				c11.98,34.05,40.24,67.1,75.79,77.39c23.48,6.8,48.72,4.98,71.56-3.35c7.78-2.84,2.1-6.5-2.86-7.76
				c-25.93-6.58-44.05-25.64-59.23-46.61c-8.91-12.31-17.83-24.9-24.88-38.39c-7.72-14.77-13.29-30.55-16.77-46.84
				c-3.96-18.54-5.12-37.57-3.55-56.46C197.84,825.6,169.71,824.51,169.08,832.09L169.08,832.09z"/>
		</g>
	</g>
	<g class="st11">
		<path d="M291.58,1030.76c57.83,175.9,183.16,332.49,348.84,391.16c-196.07-55.13-318.8-211.21-378.32-392.04"/>
		<g>
			<path d="M277.46,1030.76c22.79,69.06,55.38,134.99,97.74,194.17c41.04,57.35,91.48,108.48,150.27,147.67
				c32.67,21.78,67.97,39.64,104.97,52.81c6.65-2.33,13.3-4.66,19.96-6.98c-71.55-20.23-138.1-55.84-194.07-104.88
				c-54.27-47.54-98.2-106.04-131.86-169.69c-19.32-36.53-35.3-74.75-48.25-113.98c-2.68-8.12-29.76-4.65-28.22,0
				c23.25,70.42,55.96,137.99,100.09,197.76c43.5,58.92,98.17,109.77,161.56,146.7c37.88,22.07,78.63,39.15,120.8,51.07
				c6.31,1.78,13.69,2.3,19.96,0c4.88-1.79,5.15-5.15,0-6.98c-64.07-22.81-122.03-60.68-171.19-107.43
				c-51.18-48.66-93.33-106.52-126.24-168.91c-18.84-35.71-34.63-72.99-47.28-111.33C303.01,1022.64,275.93,1026.11,277.46,1030.76
				L277.46,1030.76z"/>
		</g>
	</g>
	<g class="st11">
		<path d="M390.55,474.79c-65.42,86.1-93,203.66-73.34,312.53c-28.14,0.78-56.28,1.57-84.42,2.35
			c4.12-120.95,64.91-238.2,158.71-306.11"/>
		<g>
			<path d="M376.94,473.48c-51.78,68.48-79.34,154.6-80.06,240.23c-0.21,24.67,1.88,49.32,6.21,73.61c4.7-1.65,9.41-3.29,14.11-4.94
				c-28.14,0.78-56.28,1.57-84.42,2.35c4.7,1.65,9.41,3.29,14.11,4.94c3.34-92.59,39.24-183.59,100.94-252.84
				c16.79-18.84,35.44-35.93,55.85-50.78c4.85-3.53-1.82-6.07-5.06-6.76c-5.32-1.12-14.53-1.7-19.31,1.77
				c-75.71,55.07-128.04,138.53-149.8,229.19c-6.25,26.04-9.88,52.66-10.84,79.42c-0.17,4.6,11.88,5,14.11,4.94
				c28.14-0.78,56.28-1.57,84.42-2.35c2.1-0.06,14.9-0.5,14.11-4.94c-15.07-84.47-2.53-173.97,35.57-250.89
				c10.51-21.22,22.98-41.43,37.27-60.33c3.19-4.22-7.88-5.88-9.86-6.08C389.74,469.58,380.22,469.15,376.94,473.48L376.94,473.48z"
				/>
		</g>
	</g>
	<g class="st11">
		<path d="M1126.59,1042.93c-23.54,196.73-132.74,379.83-289.71,485.79c-29.04-105.07-41.5-127.53-30.71-129.3
			c168.47-27.64,303.28-204.96,319.15-360.57"/>
		<g>
			<path d="M1112.48,1042.93c-9.2,76.13-31.03,150.58-64.27,219.69c-32.54,67.65-75.78,130.28-128.32,183.96
				c-29.01,29.65-60.84,56.39-95.2,79.65c8.77,0.83,17.53,1.66,26.3,2.49c-7.13-25.77-14.66-51.42-22.41-77
				c-3.89-12.82-8.29-25.66-11.08-38.78c-0.63-2.98-1.2-6.02-1-9.08c0.03-0.49,0.17-0.94,0.26-1.42c0.08-0.46-0.8,0.55,0.05,0.04
				c1.64-0.97-1.72,0.69-1.67,0.67c1.01-0.37-2.51,0.45-2.14,0.58c0.54,0.18,1.79-0.31,2.35-0.4c3.21-0.55,6.4-1.15,9.59-1.81
				c6.16-1.27,12.27-2.77,18.35-4.41c11.68-3.15,23.19-6.88,34.45-11.31c46.19-18.18,87.84-46.27,123.84-80.29
				c35.9-33.94,66.2-73.87,89.68-117.32c22.3-41.27,38.88-86.26,46.04-132.73c0.85-5.52,1.55-11.06,2.13-16.61
				c0.66-6.34-27.42-7.67-28.22,0c-4.82,46.33-19.3,91.32-40.01,132.93c-21.97,44.14-50.95,84.92-85.55,120.05
				c-34,34.52-74.14,64.11-118.82,83.27c-22.06,9.46-43.77,15.43-67.08,19.94c-7.56,1.46-12.21,4.64-11.36,12.63
				c1.14,10.72,5.14,21.4,8.23,31.65c6.61,21.96,13.28,43.89,19.57,65.94c2.23,7.81,4.42,15.63,6.59,23.46
				c1.04,3.75,7.23,4.45,10.36,4.76c4.86,0.48,11.72,0.59,15.94-2.27c62.39-42.23,116.79-95.81,161.1-156.68
				c45-61.82,79.68-131.05,102.8-203.91c13.2-41.59,22.5-84.37,27.73-127.69C1141.45,1036.72,1113.41,1035.2,1112.48,1042.93
				L1112.48,1042.93z"/>
		</g>
	</g>
	<g class="st11">
		<path d="M330.16,1613.59c-30.82,20.96-53.1,55.74-60.23,94.02c-12.56-19.21-14.43-45.8-4.7-66.8c9.72-21,30.64-35.55,52.56-36.56"
			/>
		<g>
			<path d="M317.98,1611.1c-32.69,22.51-54.7,57.65-62.15,96.51c9.24-0.44,18.48-0.88,27.72-1.31c-11.69-18.39-14-43.43-5.02-63.47
				c4.16-9.27,10.65-17.91,18.83-24.02c7.64-5.71,16.43-9.34,24.19-9.8c2.69-0.16,12.19-1.53,9.86-6.08
				c-2.28-4.43-13.71-3.67-17.36-3.45c-25.23,1.5-49.77,15.01-61.43,37.98c-11.43,22.53-9.8,50.2,3.71,71.46
				c2.51,3.95,11.71,3.74,15.48,3.54c3.36-0.18,11.4-0.48,12.24-4.85c6.97-36.37,27.61-70.39,58.3-91.53
				c4.99-3.44-1.95-6.1-5.06-6.76C331.83,1608.17,322.91,1607.7,317.98,1611.1L317.98,1611.1z"/>
		</g>
	</g>
	<g class="st11">
		<path d="M244.25,1647.18c-20.63,36.02-28.75,80.01-22.46,121.69c-16.83,5.52-35.66-7.36-41.85-24.97
			c-6.19-17.61-1.79-21.6,7.37-37.67c9.15-16.06,38.46-45.98,51.68-58.42"/>
		<g>
			<path d="M230.65,1645.87c-21.03,37.13-29.13,80.8-22.96,123c1.38-1.16,2.76-2.33,4.13-3.49c1.07-0.32,2.17-0.03,3.24-0.08
				c1.63-0.07-0.97-0.26-1.51-0.46c-2.92-1.08-5.69-2.83-8.08-4.81c-5.55-4.59-9.73-11.05-12-17.84
				c-2.01-6.02-3.28-12.56-1.17-18.73c2.09-6.1,6.19-12.03,9.54-17.47c6.62-10.74,15.36-20.27,23.87-29.53
				c8.64-9.4,17.59-18.55,26.88-27.32c3.89-3.67-8.49-5.94-9.86-6.08c-5.39-0.53-13.11-0.56-17.36,3.45
				c-16.96,16.01-34.08,33.07-47.61,52.14c-3.31,4.67-6.11,9.7-8.94,14.67c-2.7,4.74-5.42,9.89-5.82,15.44
				c-0.91,12.53,6.5,26.38,15.78,34.34c14.46,12.4,35.12,14.6,52.98,9.26c0.99-0.3,4.39-1.76,4.13-3.49
				c-6.02-41.23,1.38-84.05,21.96-120.38C261.25,1642.51,234.39,1639.25,230.65,1645.87L230.65,1645.87z"/>
		</g>
	</g>
	<g class="st11">
		<path d="M148.45,1726.01c-15.6,6.78-31.64,13.85-43.59,26.52s-18.92,32.48-12.41,49.07c6.5,16.59,29.56,24.5,41.27,11.58
			c-8.55-35.66,6.92-76.35,36.33-95.55"/>
		<g>
			<path d="M138.47,1722.52c-19.39,8.43-40.61,17.61-52.88,35.79c-9.94,14.73-14.71,37.08-2.38,51.96
				c12.73,15.35,40.06,18.82,57.2,9.62c3.19-1.71,7.49-4.28,7.09-8.13c-0.5-4.8-1.66-9.45-1.91-14.31
				c-0.46-9.14,0.5-18.35,2.72-27.23c4.95-19.87,16.74-38.66,33.92-50.11c5.08-3.38-2.03-6.12-5.06-6.76
				c-5.54-1.17-14.28-1.58-19.31,1.77c-26.75,17.83-42.09,50.35-40.49,82.32c0.19,3.85,0.63,7.69,1.33,11.47
				c0.25,1.36,0.94,2.96,0.22,4.16c-0.35,0.58-3.49,2.39-3.77,2.08c-0.07-0.08,4.57-0.44,4.83-0.45c1.69-0.05,0.19-0.01-0.55-0.32
				c-2.46-1.03-4.92-2.59-6.94-4.53c-12.17-11.65-9.71-31.58-2.11-45.02c10.32-18.25,29.6-27.33,48.05-35.35
				c4.62-2.01,5.14-5.11,0-6.98C152.85,1720.48,144.04,1720.1,138.47,1722.52L138.47,1722.52z"/>
		</g>
	</g>
	<g class="st11">
		<path d="M100.69,1840.56c-12.82,3.09-19.72,21.7-12.38,33.39s26.02,11.82,33.51,0.24c-6.78-12.5-8.51-28.03-4.66-41.89"/>
		<g>
			<path d="M92.09,1837.55c-16.16,4.53-25.92,27.08-13.31,40.35c6.92,7.29,17.73,9.26,27.37,9.12c10.12-0.15,21.3-2.97,27.37-11.7
				c0.58-0.75,0.58-1.51,0-2.26c-6.56-12.57-7.79-27.11-4.22-40.76c1.15-4.41-22.47-7-24.3,0c-3.81,14.59-1.87,29.68,5.09,43.02
				c0-0.75,0-1.51,0-2.26c-1.64,2.36-3.27,3.7-5.63,5.21c-0.59,0.38-1.35,0.12-1.03,0.4c0.05,0.04,3.1-0.03,3.13-0.07
				c-1.52,1.57-7.55-7.34-8.13-9.03c-3.09-8.98,0.83-23.2,10.83-26.01c4.5-1.26,3.95-4.57,0-6.01
				C103.9,1835.58,97.5,1836.03,92.09,1837.55L92.09,1837.55z"/>
		</g>
	</g>
	<g class="st11">
		<path d="M194.72,1795.69c28.2,11.89,57.39,21.1,87.11,27.46c5.72-12.66-4.48-27.93-16.81-32.85c-12.33-4.93-25.97-3.11-39.12-3.81
			c-13.14-0.7-27.76-5.29-33.77-17.8"/>
		<g>
			<path d="M184.74,1799.19c29.05,12.19,59.18,21.58,89.97,28.23c4.08,0.88,8.45,0.9,12.56,0.25c2.04-0.32,7.21-0.85,8.17-3.2
				c3.79-9.3,1.58-18.83-4.79-26.53c-7.65-9.24-19-13.15-30.53-14.86c-6.84-1.02-13.75-1.28-20.66-1.31
				c-3.32-0.02-6.63,0.01-9.95-0.07c-0.6-0.02-1.2-0.04-1.8-0.06c0.82,0.03,0.79,0.01-0.1-0.05c-0.29-0.03-3.12-0.32-1.46-0.09
				c-8.6-1.19-16.18-5.91-20.41-14.11c-3.35-6.5-30.53-3.81-27.21,2.63c10.3,19.98,37.7,21.57,57.3,21.62
				c8.83,0.02,17.57-0.55,24.73,5.89c6.49,5.83,11.18,15.68,7.66,24.33c6.91-0.98,13.82-1.97,20.73-2.95
				c-28.88-6.24-57.02-15.26-84.26-26.69c-5.76-2.42-14.16-2.12-19.96,0C179.6,1794.09,179.88,1797.15,184.74,1799.19
				L184.74,1799.19z"/>
		</g>
	</g>
	<g class="st11">
		<path d="M439.5,1609.09c154.12,103.13,343.4,144.77,523.13,115.09c-194.98,88.9-464.1,73.38-588.64-94.12
			c23.8-12.22,35.77-16.5,59.57-28.72"/>
		<g>
			<path d="M427.32,1611.58c61.1,40.78,128.27,72.52,198.57,93.83c70.77,21.46,144.56,32.69,218.52,33.05
				c41.99,0.21,83.91-3.23,125.34-10.02c-6.44-2.25-12.87-4.5-19.31-6.76c-37.33,16.97-76.43,29.51-116.08,38.02
				c-21.52,4.62-40.02,7.59-61.2,9.84c-10.6,1.13-21.24,1.98-31.89,2.55c-0.92,0.05-1.85,0.1-2.77,0.14
				c2.93-0.14-1.63,0.06-1.8,0.07c-2.77,0.11-5.55,0.2-8.32,0.27c-5.31,0.14-10.62,0.2-15.93,0.2c-4.84,0-9.67-0.07-14.51-0.19
				c-2.76-0.07-5.51-0.16-8.27-0.27c-0.19-0.01-4.72-0.22-1.75-0.07c-1.37-0.07-2.75-0.14-4.12-0.22
				c-10.49-0.6-20.96-1.5-31.39-2.69c-11.16-1.28-18.08-2.29-28.89-4.22c-9.94-1.77-19.83-3.85-29.64-6.23
				c-36.93-8.96-74.59-23.44-108.21-43.12c-38.12-22.31-71.62-51.59-98.08-87.01c-0.47,1.27-0.95,2.54-1.42,3.81
				c19.63-10.04,39.94-18.68,59.57-28.72c5.66-2.9-2.59-6.23-5.06-6.76c-6.14-1.3-13.62-1.14-19.31,1.77
				c-19.63,10.04-39.94,18.68-59.57,28.72c-1.39,0.71-2.51,2.34-1.42,3.81c50.68,67.87,126.07,111.11,206.95,132.88
				c86.34,23.24,178.72,23.57,266.29,7.01c48.66-9.2,96.12-24.1,141.2-44.59c4.31-1.96,0.17-5.12-2.21-5.98
				c-5.37-1.96-11.56-1.68-17.1-0.77c-67.65,11.09-134.42,11.41-202.19,2.12c-67.87-9.31-134.79-28.98-197.27-57.31
				c-36.31-16.46-71.21-36-104.37-58.13c-5.08-3.39-13.61-2.98-19.31-1.77C429.27,1605.48,422.17,1608.15,427.32,1611.58
				L427.32,1611.58z"/>
		</g>
	</g>
	<g class="st11">
		<path d="M1060.69,1661.4c9.84,8.69,19.69,17.38,29.53,26.08c11.37,10.04,3.82,32.86-10.56,36.35s-40.47-2.56-44.89-17.59
			c-4.42-15.03,10.73-37.69,17.12-51.88"/>
		<g>
			<path d="M1047.08,1662.71c6.4,5.65,12.8,11.3,19.2,16.95c4.67,4.13,11.6,8.3,14.15,14.25c3.46,8.07-0.16,19.62-7.12,24.74
				c-0.91,0.67-1.68,1.03-2.08,1.21c-1.2,0.54,0.09-0.08,0.35-0.09c-0.33,0.02-1.87,0.05-0.33,0.08c2.27,0.05-3.28,0.07-0.74,0.03
				c2.13-0.03-3.81-0.43-0.16-0.04c-0.8-0.09-1.59-0.15-2.39-0.24c0.24,0.03,1.86,0.31,0.36,0.04c-1.21-0.22-2.42-0.45-3.6-0.76
				c-0.27-0.07-3.16-1-4.63-1.67c-4.23-1.93-8.11-4.87-10.34-9.03c-2.37-4.42-1.87-10-0.89-14.74c2.8-13.55,10.94-25.37,16.63-37.79
				c2.14-4.68-7.01-5.79-9.86-6.08c-3.54-0.35-15.31-1.01-17.36,3.45c-6.09,13.27-14.64,25.92-17.64,40.41
				c-2.81,13.6,4.01,23.55,16.15,29.26c22.16,10.42,71.08,13.97,73-20.66c0.44-7.9-3.25-13.48-8.93-18.5
				c-8.86-7.82-17.72-15.65-26.58-23.47c-4.43-3.91-11.77-4-17.36-3.45C1055.6,1656.77,1043.21,1659.29,1047.08,1662.71
				L1047.08,1662.71z"/>
		</g>
	</g>
	<g class="st11">
		<path d="M1135.63,1711.15c18.08,15.3,40.25,25.03,63.18,27.72c8.46,0.99,12.67,13.14,8.74,21.2
			c-3.93,8.06-13.08,11.82-21.59,11.84s-16.74-2.94-25.02-5.03c-8.28-2.09-17.22-3.29-25.11,0.13
			c-12.46,5.39-28.44-2.74-32.38-16.46s5.05-30.02,18.2-33"/>
		<g>
			<path d="M1122.03,1712.47c13.57,11.33,28.9,20.14,45.83,25.42c4.62,1.44,9.32,2.69,14.06,3.67c1.89,0.39,3.78,0.72,5.69,1.02
				c1.64,0.26,3.35,0.78,5,0.74c2.66-0.08-2.11-0.15-1.97-0.5c0.04-0.1,3.39,4.86,3.64,5.68c0.93,3.06,0.97,6.82-0.15,9.83
				c-1.08,2.9-3.43,5.57-6.05,7.19c-0.77,0.48-2.09,1.11-2.6,1.33c-1.92,0.85-0.89-0.13,0.61,0.15c-8.89-1.61-17.48-4.66-26.43-6.03
				c-10.33-1.58-24.16-2.46-33.79,2.56c-2.16,1.13,0.18,0.26,1.46,0.23c0.5-0.01,1.25,0.17,1.72,0.05c0.74-0.18,1.15,0.66,0.3-0.09
				c-2.09-1.83-4.87-2.65-6.87-4.88c-5.35-5.95-6.91-13.7-5.07-21.43c0.91-3.83,2.8-7.38,5.29-10.42c0.96-1.17,2.02-2.31,3.21-3.25
				c0.47-0.36,3.73-2.15,2.88-1.93c3.09-0.81,10.04-3.2,5.06-6.76c-4.58-3.27-14.16-3.11-19.31-1.77
				c-9.16,2.38-17.28,6.88-21.99,15.42c-4.15,7.52-5.41,16.25-2.32,24.35c7.79,20.44,36.09,24.27,54.42,17.92
				c0.99-0.34,2.29-1.04,3.13-1.21c-1.59,0.33,2.15,0.49,2.72,0.61c5.62,1.15,11.07,3.02,16.66,4.3
				c12.48,2.85,26.65,3.53,38.82-1.07c8.06-3.05,15.8-8.93,17.04-18.01c1.12-8.2-3.52-16.2-11.12-19.28
				c-5.66-2.29-11.53-2.34-17.33-3.62c-4.97-1.1-9.82-2.67-14.56-4.52c-11.1-4.33-21.61-10.69-30.75-18.32
				c-4.58-3.82-11.65-4.01-17.36-3.45C1130.62,1706.52,1118.07,1709.16,1122.03,1712.47L1122.03,1712.47z"/>
		</g>
	</g>
	<g class="st11">
		<path d="M1124.03,1787.5c-3.81,5.38,0.02,13.39,5.26,17.16c5.25,3.76,11.75,5.33,16.63,9.62c4.88,4.29,7.11,13.42,2,17.39
			c-13.63,10.6-35.38,5.92-44.11-9.48s-2.54-38.15,12.57-46.14"/>
		<g>
			<path d="M1110.42,1786.19c-3.4,5.69-1.86,12.17,2.33,17.07c4.96,5.8,12.4,7.34,18.42,11.57c4.01,2.82,8.2,10.33,4.01,14.73
				c-1.21,1.27-3.97,2.34-4.81,2.77c0.64-0.11,0.31-0.03-1,0.23c1.31-0.16,1.2-0.16-0.35,0c0.83-0.12,1.65-0.14,2.48-0.06
				c1.08,0.2,1.16,0.22,0.25,0.04c-0.32-0.26-3.42-1.09-4.97-1.99c-2.46-1.44-4.56-3.19-6.39-5.37c-3.98-4.72-6.01-10.41-6.41-16.54
				c-0.76-11.6,4.1-24.23,14.56-30.09c5.48-3.07-2.41-6.2-5.06-6.76c-5.94-1.26-13.83-1.3-19.31,1.77
				c-21.36,11.98-25.1,44.17-5.44,59.44c11.91,9.25,29.24,10.85,43.64,8.3c11.32-2,27.03-8.54,21.02-22.6
				c-3.14-7.34-10.42-10.28-17.1-13.69c-5.46-2.79-12.77-9.35-8.68-16.2C1141.09,1783.04,1114.36,1779.59,1110.42,1786.19
				L1110.42,1786.19z"/>
		</g>
	</g>
	<g class="st11">
		<path d="M1263.66,1750.42c26.8,22.36,44.4,28.12,74.25,45.51c-3.67,10.56-6.22,27.41-16.2,23.77s-27.76-16.09-27.76-16.09
			s-22.68-5.08-29.02,3.92c-5.29,7.51-16.49,9.2-23.52,3.55c-7.03-5.64-8.62-17.61-3.34-25.12c7.69-10.94,15.38-21.87,23.07-32.81"
			/>
		<g>
			<path d="M1251.47,1752.91c22.7,18.8,48.94,30.83,74.25,45.51c-0.64-0.83-1.28-1.66-1.93-2.49c-1.89,5.58-3,11.62-5.71,16.89
				c-0.55,1.07-1.25,1.99-1.88,3c-0.23,0.38-0.7,0.65-0.9,1.04c0.02-0.02,0.03-0.03,0.05-0.05c3.7-4.02,9.14-4.22,16.33-0.59
				c-2.16-1.04-4.15-1.85-6.62-3.2c-5.05-2.77-9.94-5.86-14.74-9.05c-3.24-2.15-5.68-3.85-9.67-4.7
				c-11.49-2.46-24.41-3.12-35.87-0.33c-3.24,0.79-6.62,1.83-9.45,3.67c-2.57,1.67-3.89,4.21-6.18,6.1
				c-0.55,0.46-2.04,1.34-2.04,1.25c-0.01-0.22,8.75-0.58,8.6,0.07c-0.04,0.16-2.74-2.25-2.96-2.51c-1.11-1.31-2.01-2.83-2.6-4.44
				c-3.25-8.74,1.08-15.13,5.92-22.03c6.22-8.85,12.45-17.71,18.67-26.56c3.03-4.31-7.75-5.87-9.86-6.08
				c-4.39-0.43-14.28-0.92-17.36,3.45c-4.76,6.77-9.52,13.54-14.28,20.31c-4.05,5.76-9.53,11.65-11.57,18.51
				c-4.06,13.67,5.98,24.88,18.81,27.62c8.64,1.84,18.62,1.64,26.94-1.53c5.31-2.02,9.03-5.56,12.65-9.42
				c0.07-0.08,1.49-0.32-0.09-0.13c2.76-0.33-2.29,0.34,0.78-0.12c-3.51,0.53-0.42,0.06,0.51,0.04c3.04-0.08-2.87-0.36,0.8,0.06
				c1.03,0.12,2.08,0.25,3.12,0.34c-1.28-0.11-2.58-0.45-0.55-0.07c0.72,0.14,1.45,0.26,2.17,0.42c-1.69-0.59-3.37-1.18-5.06-1.77
				c10.1,7.06,21.96,15.87,34.25,18.24c9.28,1.79,22.94,1.6,28.51-7.53c3.83-6.28,5.15-14,7.48-20.89c-0.2-1.15-0.84-1.98-1.93-2.49
				c-25.31-14.68-51.55-26.71-74.25-45.51c-4.48-3.71-14.06-2.88-19.31-1.77C1252.86,1746.93,1246.9,1749.13,1251.47,1752.91
				L1251.47,1752.91z"/>
		</g>
	</g>
	<g class="st11">
		<path d="M1186.01,1819.77c-0.56,11.58,9,21.21,19.22,25.09c10.23,3.89,21.36,3.75,32.02,5.96s21.82,7.78,26.03,18.46
			c4.21,10.68-3.07,16.86-13.81,15.23c-25.08-3.8-50.47,1.54-75.55-2.26c-15.7-2.38-28.05-19.58-26.13-36.38
			c1.92-16.81,17.78-30.33,33.55-28.61"/>
		<g>
			<path d="M1171.9,1819.77c-0.25,20.38,21.54,29.65,38.48,32.44c8.87,1.46,18.51,1.36,26.34,5.02c6.6,3.08,13.33,9.46,13.66,17.2
				c0.06,1.28-0.03,2.63-0.55,3.81c-0.04,0.09-1.97,2.47-2,2.3c-0.14-1.06,11.44-0.02,4.43-0.93c-2.89-0.38-5.78-0.71-8.7-0.91
				c-12.25-0.86-24.46-0.44-36.72-0.12c-8.36,0.22-19.83,1.12-26.9-0.76c-7.16-1.9-12.77-9.41-15.63-15.81
				c-3.78-8.48-3.51-18.86,1.09-26.95c2.21-3.89,5.21-7.52,8.9-10.07c1.4-0.97,2.87-1.86,4.44-2.51c3.05-1.26,1.03-0.29-1.15-0.47
				c3.57,0.29,7.35,0.25,10.87-0.5c1.49-0.32,5.58-1.23,6.48-2.95c2.4-4.55-7.53-5.89-9.86-6.08c-22.51-1.84-49.16,8.45-51.48,34.1
				c-0.91,10.04,3.24,20.74,10.17,27.98c8.67,9.07,20.05,11.96,32.18,13.17c14.16,1.41,28.34,0.73,42.53,0.39
				c5.85-0.14,11.73-0.29,17.57,0.1c7.52,0.5,14.83,1.97,22.41,1.21c8.93-0.9,21.53-4.88,20-16.21c-1.35-9.98-9.89-17.43-18.49-21.5
				c-13.04-6.18-27.02-5.6-40.69-9.06c-10.59-2.68-19.31-11.59-19.17-22.89C1200.21,1812.81,1171.99,1812.56,1171.9,1819.77
				L1171.9,1819.77z"/>
		</g>
	</g>
	<g class="st11">
		<g>
			<path d="M973.66,1963.62c3.3,0,14.74-0.2,15-5.25c0.26-4.87-12.63-5.25-15-5.25c-3.3,0-14.74,0.2-15,5.25
				C958.4,1963.25,971.29,1963.62,973.66,1963.62L973.66,1963.62z"/>
		</g>
	</g>
	<g class="st11">
		<g>
			<path d="M1069.87,690.02c-12.94,9.11-21.53,24.1-20.69,40.26c0.82,15.85,9.36,30.81,23.39,38.56c6.67,3.68,15.4,1.63,19.31-5.06
				c3.79-6.47,1.63-15.61-5.06-19.31c-2.53-1.4-5.22-3.6-6.43-5.79c-0.48-0.87-1-1.7-1.45-2.59c-0.21-0.45-0.43-0.9-0.64-1.34
				c0.4,0.83,0.44,0.79,0.1-0.12c-0.28-0.96-0.55-1.91-0.78-2.89c-0.53-2.31-0.11,2.79-0.21-1.46c-0.02-1.01-0.02-2.01,0-3.01
				c0.01-0.65,0.3-2.24,0.02-0.73c0.22-1.23,0.54-2.44,0.91-3.64c0.08-0.28,0.96-2.6,0.61-1.81c-0.34,0.76,2.7-4.52,1.63-3.05
				c0.71-0.97,1.61-1.85,2.47-2.68c0.29-0.28,2.61-2.06,1.07-0.98c6.22-4.38,9.14-12.33,5.06-19.31
				C1085.57,688.93,1076.13,685.61,1069.87,690.02L1069.87,690.02z"/>
		</g>
	</g>
	<g class="st11">
		<g>
			<path d="M1013.64,661.43c-22.88,17.53-26.84,51.95-7.31,73.71c5.09,5.67,14.77,5.18,19.96,0c5.64-5.64,5.11-14.27,0-19.96
				c-2.58-2.87,0.72,1.3-0.5-0.53c-0.58-0.86-1.13-1.73-1.62-2.64c-0.17-0.32-1.49-3.36-0.86-1.7c0.63,1.64-0.53-1.92-0.52-1.86
				c-0.23-0.81-0.37-1.64-0.6-2.45c-1.01-3.65,0.02,1.49-0.14-0.64c-0.16-2.15-0.14-4.23-0.06-6.37c0.09-2.21-0.77,3.13,0.05-0.68
				c0.18-0.83,0.33-1.66,0.54-2.49c0.26-1.03,0.58-2.03,0.9-3.03c0.35-1.1,1.15-2.48,0.23-0.7c0.94-1.83,1.92-3.67,3.19-5.3
				c-2.17,2.78,3.81-3.15,0.98-0.99c6.04-4.63,9.25-12.15,5.06-19.31C1029.47,660.55,1019.73,656.77,1013.64,661.43L1013.64,661.43z
				"/>
		</g>
	</g>
	<g class="st11">
		<g>
			<path d="M1008.34,742.23c-16.12,24.3-7.99,60.95,16.97,75.96c6.53,3.93,15.49,1.45,19.31-5.06c3.9-6.67,1.49-15.37-5.06-19.31
				c-2.4-1.44-4.8-3.61-6.32-5.95c-0.68-1.05-1.31-2.13-1.89-3.24c-0.17-0.32-1.65-3.96-0.65-1.24c-0.81-2.21-1.42-4.44-1.97-6.73
				c-0.27-1.16-0.43-2.76-0.21-0.68c-0.14-1.27-0.23-2.56-0.26-3.84c-0.03-1.28,0.08-2.56,0.08-3.83c-0.01-2.7-0.28,0.92,0.02-0.67
				c0.43-2.3,1.02-4.5,1.76-6.71c-0.91,2.7,0.4-0.8,0.62-1.22c0.6-1.11,1.27-2.17,1.97-3.22c4.21-6.35,1.25-15.61-5.06-19.31
				C1020.74,733.13,1012.57,735.86,1008.34,742.23L1008.34,742.23z"/>
		</g>
	</g>
	<g class="st11">
		<g>
			<path d="M1051.03,798.83c6.93,30.2,45.46,48.57,72.1,30.51c6.3-4.27,9.09-12.42,5.06-19.31c-3.65-6.25-12.97-9.36-19.31-5.06
				c-0.99,0.67-2.04,1.23-3.05,1.88c-2.54,1.64,1.76-0.27-0.92,0.41c-1.11,0.28-2.24,0.59-3.35,0.89c-3.18,0.84,2.46,0.18-0.83,0.06
				c-1.13-0.04-2.35-0.04-3.48-0.02c-3.41,0.04,2.44,0.76-0.88-0.1c-1.14-0.3-2.29-0.51-3.42-0.86c-0.43-0.13-4-1.55-1.06-0.24
				c-2.19-0.98-4.21-2.21-6.21-3.53c2.01,1.32-0.1-0.08-0.87-0.79c-0.89-0.81-1.67-1.71-2.53-2.56c-2-1.97,0.8,1.7-0.73-0.94
				c-0.51-0.87-1.04-1.73-1.55-2.59c-0.3-0.53-0.57-1.07-0.83-1.62c0.53,1.32,0.61,1.5,0.26,0.54c-0.47-1.38-0.86-2.76-1.19-4.19
				c-1.7-7.43-10.24-11.81-17.36-9.86C1053.26,783.57,1049.32,791.38,1051.03,798.83L1051.03,798.83z"/>
		</g>
	</g>
	<g class="st11">
		<g>
			<path d="M739.38,935.59c0.24-1.98-0.17,0.48-0.35,1.24c-0.28,1.17-0.64,2.3-0.97,3.45c-0.19,0.65-0.73,2.02-0.14,0.61
				c-0.46,1.09-1.03,2.14-1.61,3.17c-0.58,1.04-1.22,2.02-1.85,3.02c-0.35,0.56-1.25,1.72-0.32,0.55c-1.46,1.84-3.17,3.44-4.87,5.05
				c-0.53,0.5-1.61,1.29-0.41,0.41c-0.93,0.68-1.9,1.31-2.89,1.91c-0.98,0.6-1.99,1.13-3.01,1.66c-0.82,0.43-1.79,0.69-0.39,0.2
				c-2.13,0.75-4.31,1.39-6.54,1.74c1.51-0.23,0.82-0.07-0.28-0.09c-1.37-0.02-2.7,0-4.07-0.09c-7.61-0.49-14.11,6.83-14.11,14.11
				c0,8.04,6.47,13.62,14.11,14.11c13.92,0.89,27.26-4.88,37.55-13.99c10.89-9.64,16.65-22.85,18.38-37.05
				c0.92-7.58-7.15-14.11-14.11-14.11C745.1,921.48,740.3,927.99,739.38,935.59L739.38,935.59z"/>
		</g>
	</g>
</g>
<g id="Ebene_20">
	<g class="st11">
		<g>
			<path class="st12" d="M918.07,468.83c0.26,0.11,2.75,1.13,0.73,0.29c-2.19-0.9,0.96,0.41,1.46,0.63
				c1.48,0.64,2.96,1.29,4.43,1.94c3.44,1.53,6.86,3.11,10.26,4.74c6.81,3.26,13.53,6.7,20.16,10.32
				c12.83,7.01,25.31,14.67,37.37,22.94c6.06,4.15,11.99,8.48,17.85,12.91c0.54,0.41,2.8,2.2,0.08,0.05
				c0.64,0.51,1.29,1.01,1.93,1.51c1.29,1.01,2.56,2.03,3.84,3.06c3.19,2.57,6.34,5.19,9.46,7.85
				c11.27,9.61,22.05,19.78,32.32,30.46c5.73,5.96,11.3,12.08,16.69,18.34c2.89,3.35,5.72,6.74,8.51,10.18
				c1.22,1.5,2.43,3.02,3.63,4.54c0.31,0.4,2.47,3.13,1.09,1.37c-1.39-1.78,1.62,2.13,1.57,2.05c5.94,7.81,16.49,12.72,25.74,6.75
				c7.72-4.97,13.12-17.36,6.75-25.74c-38.96-51.22-87.31-94.87-143.57-126.42c-16.25-9.11-33.08-16.96-50.29-24.06
				c-9.12-3.77-21.08,4.07-23.14,13.14C902.43,456.65,908.3,464.8,918.07,468.83L918.07,468.83z"/>
		</g>
	</g>
	<g class="st11">
		<g>
			<path class="st12" d="M1070.05,659.57c9.84,0,19.27-8.65,18.81-18.81c-0.46-10.19-8.27-18.81-18.81-18.81
				c-9.84,0-19.27,8.65-18.81,18.81C1051.69,650.95,1059.5,659.57,1070.05,659.57L1070.05,659.57z"/>
		</g>
	</g>
	<g class="st11">
		<g>
			<path class="st12" d="M1173.56,849.05c0.7,0.83,1.38,1.67,2.06,2.51c-1.27-1.68-1.26-1.65,0.03,0.06
				c1.26,1.77,2.54,3.53,3.74,5.34c2.42,3.64,4.66,7.39,6.72,11.24c1.81,3.39,3.48,6.85,5.02,10.37c-1.7-3.89,0.93,2.48,1.18,3.17
				c0.77,2.07,1.48,4.16,2.15,6.27c1.34,4.22,2.5,8.5,3.46,12.82c0.36,1.62,0.69,3.25,1,4.89c0.15,0.78,1.22,7.75,0.62,3.22
				c1.17,8.82,1.4,17.74,0.93,26.62c-0.52,9.84,9.03,19.25,18.81,18.81c10.64-0.48,18.25-8.27,18.81-18.81
				c2.19-41.09-11.78-81.57-37.94-113.13c-6.31-7.61-20.17-7.01-26.61,0C1166.13,830.53,1166.83,840.94,1173.56,849.05
				L1173.56,849.05z"/>
		</g>
	</g>
	<g class="st11">
		<g>
			<path class="st12" d="M1144.95,1084.83c-0.63,13.17-1.58,26.33-2.89,39.45c-0.61,6.12-1.3,12.23-2.06,18.34
				c-0.22,1.74-0.44,3.49-0.67,5.23c0.45-3.48,0.06-0.44-0.03,0.22c-0.53,3.77-1.07,7.53-1.65,11.3
				c-3.96,25.71-9.23,51.23-15.8,76.4c-6.47,24.81-14.18,49.29-23.11,73.33c-2.13,5.72-4.32,11.41-6.59,17.08
				c-1.19,2.97-2.39,5.92-3.61,8.87c-0.44,1.07-0.89,2.14-1.34,3.21c1.5-3.55-1.26,2.9-1.52,3.51
				c-5.07,11.69-10.44,23.25-16.11,34.66c-12.82,25.82-27.18,50.85-42.97,74.96c-5.4,8.25-1.92,21.16,6.75,25.74
				c9.4,4.97,19.97,2.06,25.74-6.75c57.77-88.2,96.49-189.22,113.6-293.21c5.03-30.56,8.41-61.4,9.89-92.35
				c0.47-9.85-8.99-19.25-18.81-18.81C1153.16,1066.49,1145.45,1074.28,1144.95,1084.83L1144.95,1084.83z"/>
		</g>
	</g>
	<g class="st11">
		<g>
			<path class="st12" d="M935.5,1643.95c1.11,3.55,2.22,7.1,3.33,10.66c1.44,4.62,4.42,8.77,8.65,11.24
				c4.03,2.36,9.98,3.36,14.5,1.9c4.55-1.47,8.94-4.29,11.24-8.65c2.32-4.39,3.42-9.62,1.9-14.5c-1.11-3.55-2.22-7.1-3.33-10.66
				c-1.44-4.62-4.42-8.77-8.65-11.24c-4.03-2.36-9.98-3.36-14.5-1.9c-4.55,1.47-8.94,4.29-11.24,8.65
				C935.07,1633.85,933.98,1639.08,935.5,1643.95L935.5,1643.95z"/>
		</g>
	</g>
	<g class="st11">
		<g>
			<path class="st12" d="M1116.99,1655.55c2.22,3.55,4.43,7.1,6.65,10.66c2.55,4.09,6.55,7.35,11.24,8.65
				c4.5,1.24,10.5,0.68,14.5-1.9c4.02-2.59,7.55-6.45,8.65-11.24c1.11-4.86,0.81-10.16-1.9-14.5c-2.22-3.55-4.43-7.1-6.65-10.66
				c-2.55-4.09-6.55-7.35-11.24-8.65c-4.5-1.24-10.5-0.68-14.5,1.9c-4.02,2.59-7.55,6.45-8.65,11.24
				C1113.99,1645.91,1114.29,1651.21,1116.99,1655.55L1116.99,1655.55z"/>
		</g>
	</g>
	<g class="st11">
		<g>
			<path class="st12" d="M1200.14,1705.28c6.65,10.66,13.3,21.31,19.96,31.97c5.21,8.34,17.03,12.37,25.74,6.75
				c8.36-5.39,12.32-16.81,6.75-25.74c-6.65-10.66-13.3-21.31-19.96-31.97c-5.21-8.34-17.03-12.37-25.74-6.75
				C1198.53,1684.93,1194.57,1696.35,1200.14,1705.28L1200.14,1705.28z"/>
		</g>
	</g>
	<g class="st11">
		<g>
			<path class="st12" d="M1285.2,1757.4c3.34,8.28,6.69,16.56,10.03,24.84c3.67,9.09,12.7,16.52,23.14,13.14
				c8.79-2.84,17.09-13.37,13.14-23.14c-3.34-8.28-6.69-16.56-10.03-24.84c-3.67-9.09-12.7-16.52-23.14-13.14
				C1289.56,1737.1,1281.26,1747.63,1285.2,1757.4L1285.2,1757.4z"/>
		</g>
	</g>
	<g class="st11">
		<g>
			<path class="st12" d="M1299.54,1842.49c9.84,0,19.27-8.65,18.81-18.81c-0.46-10.19-8.27-18.81-18.81-18.81
				c-9.84,0-19.27,8.65-18.81,18.81C1281.18,1833.86,1288.99,1842.49,1299.54,1842.49L1299.54,1842.49z"/>
		</g>
	</g>
	<g class="st11">
		<g>
			<path class="st12" d="M1199.76,1796.31c9.84,0,19.27-8.65,18.81-18.81c-0.46-10.19-8.27-18.81-18.81-18.81
				c-9.84,0-19.27,8.65-18.81,18.81C1181.4,1787.68,1189.21,1796.31,1199.76,1796.31L1199.76,1796.31z"/>
		</g>
	</g>
	<g class="st11">
		<g>
			<path class="st12" d="M336.15,1656.71c1.11,8.29,2.22,16.58,3.33,24.87c0.7,5.2,1.64,9.43,5.51,13.3
				c3.26,3.26,8.62,5.72,13.3,5.51c9.07-0.41,20.21-8.37,18.81-18.81c-1.11-8.29-2.22-16.58-3.33-24.87
				c-0.7-5.2-1.64-9.43-5.51-13.3c-3.26-3.26-8.62-5.72-13.3-5.51C345.9,1638.3,334.76,1646.26,336.15,1656.71L336.15,1656.71z"/>
		</g>
	</g>
	<g class="st11">
		<g>
			<path class="st12" d="M268.49,1748.17c3.33,3.55,6.65,7.1,9.98,10.66c6.74,7.2,19.89,7.32,26.61,0c7.08-7.71,7.19-18.93,0-26.61
				c-3.33-3.55-6.65-7.1-9.98-10.66c-6.74-7.2-19.89-7.32-26.61,0C261.41,1729.27,261.3,1740.49,268.49,1748.17L268.49,1748.17z"/>
		</g>
	</g>
	<g class="st11">
		<g>
			<path class="st12" d="M311.73,1824.72c9.84,0,19.27-8.65,18.81-18.81c-0.46-10.19-8.27-18.81-18.81-18.81
				c-9.84,0-19.27,8.65-18.81,18.81C293.37,1816.1,301.18,1824.72,311.73,1824.72L311.73,1824.72z"/>
		</g>
	</g>
	<g class="st11">
		<g>
			<path class="st12" d="M178.69,1774.99c9.84,0,19.27-8.65,18.81-18.81c-0.46-10.19-8.27-18.81-18.81-18.81
				c-9.84,0-19.27,8.65-18.81,18.81C160.34,1766.37,168.15,1774.99,178.69,1774.99L178.69,1774.99z"/>
		</g>
	</g>
	<g class="st11">
		<g>
			<path class="st12" d="M238.56,1853.14c9.84,0,19.27-8.65,18.81-18.81c-0.46-10.19-8.27-18.81-18.81-18.81
				c-9.84,0-19.27,8.65-18.81,18.81C220.2,1844.52,228.01,1853.14,238.56,1853.14L238.56,1853.14z"/>
		</g>
	</g>
	<g class="st11">
		<g>
			<path class="st12" d="M1060.55,745.81c3.33,2.37,6.65,4.74,9.98,7.1c3.77,2.68,10.21,3.08,14.5,1.9
				c4.36-1.2,9.09-4.58,11.24-8.65c2.31-4.37,3.46-9.66,1.9-14.5c-0.63-1.5-1.26-3-1.9-4.49c-1.67-2.83-3.92-5.08-6.75-6.75
				c-3.33-2.37-6.65-4.74-9.98-7.1c-3.77-2.68-10.21-3.08-14.5-1.9c-4.36,1.2-9.09,4.58-11.24,8.65c-2.31,4.37-3.46,9.66-1.9,14.5
				c0.63,1.5,1.26,3,1.9,4.49C1055.47,741.89,1057.72,744.14,1060.55,745.81L1060.55,745.81z"/>
		</g>
	</g>
</g>
<g id="Ebene_21">
	<g>
		<g id="Ebene_7">
			<g>
				<path class="st13" d="M1095.98,951c-14.86,4.31-19.73,25.78-8.3,36.63c-42.32,42.17-44.27,116.67-4.32,164.17
					c12.67,15.07,29.28,27.62,48.38,33.16c35.26,10.23,73.6-5.71,96.21-32.31c8.63-10.16,15.39-21.68,22.1-33.15
					c14.3-24.43,28.6-48.86,42.91-73.29c3.98-6.8,8.05-13.89,8.55-21.8c1.04-16.49-13.32-30.47-27.3-40.68
					c-34.19-24.99-73.59-43.17-114.8-53c-11.76-2.8-23.99-4.94-35.72-2.94c-11.73,2-22.97,8.88-26.94,19.64"/>
				<g>
					<path class="st13" d="M1096.52,947.06c-17.34,5.47-28.16,29.08-13.43,43.69c0.47-1.64,0.93-3.3,1.39-4.94
						c-30.2,30.38-41.31,75.75-31.28,117.76c10.8,45.26,50.33,90.18,101.6,88.62c23.66-0.72,45.94-10.68,63.43-25.05
						c21.66-17.8,34.14-43.78,47.94-67.34c7.63-13.04,15.27-26.08,22.91-39.13c3.76-6.42,7.65-12.79,11.24-19.3
						c3.17-5.76,5.95-12.06,6.25-18.76c1.07-23.87-24.55-40.66-42.88-52.55c-25.63-16.65-53.72-29.59-82.98-38.43
						c-25.39-7.68-56.45-15.7-78.25,2.14c-4.6,3.77-8.24,8.47-10.41,13.96c-0.88,2.22,0.47,3.9,2.92,3.88
						c2.58-0.03,5.6-2.13,6.5-4.42c9.4-23.74,43.8-15.48,63.53-10.2c27.69,7.42,54.37,18.69,79.09,33.26
						c11.3,6.65,22.55,13.87,32.64,22.21c7.75,6.41,15.51,14.49,18.51,24.03c3.93,12.51-2.91,23.05-8.91,33.31
						c-7.03,12.01-14.06,24.02-21.09,36.03c-7.12,12.16-14.22,24.33-21.36,36.47c-6.49,11.03-13.16,22.27-21.94,31.73
						c-13.63,14.69-32.22,25.54-52.8,28.88c-47.27,7.67-88.07-30.33-102.42-71.69c-12.91-37.21-8.23-79.97,14.94-111.07
						c2.82-3.78,5.9-7.33,9.25-10.69c0.94-0.94,2.83-3.52,1.39-4.94c-4.76-4.73-6.6-11-5.61-17.3c0.78-5.01,3.47-10.59,8.76-12.26
						c2.35-0.74,5.33-2.61,5.55-5.26C1101.2,947.22,1098.6,946.41,1096.52,947.06L1096.52,947.06z"/>
				</g>
			</g>
			<g>
				<g>
					<path class="st13" d="M1101.32,1184.84c4.11,1.86,12.28-5.44,7.77-7.48C1104.99,1175.48,1096.81,1182.79,1101.32,1184.84
						L1101.32,1184.84z"/>
				</g>
			</g>
			<g>
				<g>
					<path class="st13" d="M1093.71,1184.07c0.15,8.6,5.73,16.64,14.75,18.89c9.4,2.35,19.27-2.36,24.49-9.54
						c0.73-1.01,1.74-3.83-0.22-4.54c-9.07-3.28-18.15-6.56-27.23-9.84c-2.57-0.93-5.29,0.15-7.1,1.93c-1,0.98-3.28,4.61-0.68,5.55
						c9.07,3.28,18.15,6.56,27.23,9.84c-0.07-1.51-0.15-3.02-0.22-4.54c-6.82,9.39-20.84-1.28-21-10.4
						C1103.63,1175.69,1093.63,1179.91,1093.71,1184.07L1093.71,1184.07z"/>
				</g>
			</g>
		</g>
		<g id="Ebene_5">
			<g>
				<path class="st8" d="M1308.66,1001.11c30.67-68.33,101.38-109.76,169.88-143.88c68.5-34.12,141.77-67.49,185.31-128.61
					c55.07-77.3,48.59-188.65-5.5-270.98c-54.09-82.33-149.57-135.78-248-152.03c-61.35-10.13-125.25-6.74-181.77,15.18
					s-117.81,67.08-142.11,120.89c-33.68,74.56-5.8,158.2,11.36,239.78s35.49,167.89,7.22,244.69
					c72.64,1.1,145.62,30.6,198.88,80.36"/>
				<g>
					<path class="st8" d="M1313.37,1000.84c26.82-59.21,84.04-97.24,140.93-127.34c57.24-30.28,118.27-55.27,168.29-96.25
						c23.69-19.41,44.16-42.48,58.64-69.22c13.32-24.58,21.38-51.93,24.48-79.81c6.23-56.18-7.2-115.09-37.31-165.06
						c-32.59-54.09-83.92-96.93-141.28-125.15c-58.73-28.9-124.71-43.5-189.43-41.9c-32.24,0.8-64.37,5.81-94.58,15.72
						c-29.81,9.78-57.81,24.22-83.02,42.02c-25.59,18.05-49.03,39.86-66.02,65.84c-16.28,24.89-25.24,53.61-27.69,83.32
						c-5.06,61.46,14.31,122.95,26.99,183.22c13.47,64.06,27.83,130.33,18.3,194.97c-2.28,15.45-5.99,30.59-11.32,45.2
						c-0.83,2.29,0.38,3.83,2.92,3.88c55.83,0.98,111.62,18.84,158.52,49.83c13.33,8.81,25.91,18.67,37.56,29.51
						c3.56,3.31,12.45-3.23,9.2-6.25c-42.22-39.26-96.02-66.16-152.88-76.57c-16.15-2.96-32.49-4.53-48.81-4.81
						c0.97,1.29,1.94,2.58,2.92,3.88c21.92-60.1,16.12-125.79,4.71-188.67c-5.71-31.43-12.51-62.74-19.66-93.95
						c-6.92-30.26-13.95-60.62-17.29-91.34c-3.21-29.49-2.75-59.53,5.32-87.85c8.15-28.61,24.43-53.47,45.43-74.56
						c42.74-42.94,100.82-72.1,162.68-81.38c62.82-9.43,129.46-1.38,189.97,20.91c59.88,22.06,115.28,58.48,155.25,107.71
						c37.3,45.95,58.86,102.22,60.84,159.45c1.98,57.09-16.58,112.61-55.79,154.18c-43.15,45.73-102.55,73.15-158.95,101.14
						c-57.28,28.43-116.06,60.45-154.99,111.07c-9.24,12.01-17.09,25.03-23.33,38.8c-1,2.2,0.55,3.9,2.92,3.88
						C1309.54,1005.23,1312.34,1003.11,1313.37,1000.84L1313.37,1000.84z"/>
				</g>
			</g>
		</g>
		<g id="Ebene_6">
			<g>
				<path class="st14" d="M1625.45,573.21c-14.05-60.99-55.11-136.57-108.84-173.47s-156.28-44.83-218.61-30.58
					c-86.18,19.71-144.49,117.15-152.31,202.69c-6.77,74.06,58.37,135.34,125.39,175.5c67.01,40.16,157.73,69.13,224.63,34.19
					c66.89-34.94,124.59-133.91,129.66-208.17"/>
				<g>
					<path class="st14" d="M1630.43,570.93c-5.96-25.63-15.56-50.59-27.61-74.35c-12.55-24.76-28.02-48.48-47-69.31
						c-16.44-18.04-35.57-33.68-58.07-43.97c-22.57-10.34-47.01-16.53-71.37-20.32c-25.71-4-51.86-5.42-77.65-4.22
						c-22.73,1.06-45.93,3.87-67.13,11.44c-42.96,15.34-76.68,48.02-100.08,85.07c-12.09,19.14-21.8,39.74-28.86,61.25
						c-6.78,20.67-11.98,42.72-12.47,64.72c-1,44.73,24.11,85.26,56.6,116.81c34.06,33.08,76.1,59.7,119.98,78.42
						c43.74,18.66,92.78,30.5,139.49,22.12c45.68-8.19,81.34-38.64,108.63-72.78c28.88-36.14,50.9-79.13,61.06-124.31
						c2.17-9.67,3.71-19.49,4.42-29.42c0.4-5.63-9.73-1.51-10.03,2.63c-3.06,43.06-20.57,84.79-43.29,120.84
						c-11.87,18.83-25.6,36.6-41.66,52.25c-14.39,14.02-30.78,26.63-49.7,34.66c-41.19,17.48-89.77,11.22-132.4-2.61
						c-44.25-14.36-86.3-37.92-122.71-66.57c-34.53-27.18-66.65-62.49-77-104.89c-5.12-20.96-3.42-41.77,0.65-62.38
						c4.2-21.23,11.12-41.83,20.31-61.35c17.93-38.12,45.19-73.57,82.57-95.5c17.67-10.37,37.33-16.32,57.96-19.28
						c23.58-3.39,47.8-3.98,71.79-2.4c46.6,3.07,97.4,13.11,135.12,42.9c20.78,16.42,37.86,37.16,52.17,58.91
						c14.87,22.6,26.97,46.86,36.06,71.96c4.08,11.26,7.53,22.7,10.22,34.29C1621.58,580.31,1631.42,575.18,1630.43,570.93
						L1630.43,570.93z"/>
				</g>
			</g>
		</g>
		<g id="Ebene_3_1_">
			<g>
				<g>
					<path d="M1306.78,1015.37c17.06-28.51,38.72-53.89,63.68-76.17c24.42-21.8,51.62-40.52,79.63-57.87
						c28.81-17.84,58.19-34.71,89.14-49.08c30.04-13.94,61.17-27.23,87.11-47.58c45.68-35.82,73.05-89.75,81.06-146.33
						c8.07-56.93-2.92-116.81-32.1-168.54c-31.17-55.26-80.81-100.09-137.45-130.67c-57.58-31.09-122.63-47.75-187.43-48.47
						c-65.53-0.73-131.51,15.56-184.1,51.87c-53.3,36.8-93.2,93.64-101.25,158.02c-4.08,32.6,0.32,65.86,6.96,98.31
						c6.67,32.6,15.16,64.87,21.23,97.57c11.19,60.28,15.64,120.69,11.98,181.27c-1.02,16.84-2.54,33.62-4.41,50.35
						c-0.62,5.55,9.57,1.48,10.03-2.63c6.86-61.38,8.08-123.22,0.08-185.15c-3.96-30.62-9.69-61.12-16.59-91.37
						c-7.33-32.16-15.69-64.29-19.21-96.97c-3.47-32.27-1.16-64.48,9.67-94.75c10.55-29.52,27.84-56.41,49.84-78.95
						c43.8-44.87,104.41-70.27,168.49-77.2c63.34-6.85,129.32,3.08,189.09,27.66c58.97,24.25,112.72,62.65,151.09,112.87
						c36.51,47.78,56.64,105.01,56.6,163.23c-0.04,55.49-17.64,111.47-54.98,152.9c-20.81,23.11-47.03,39.05-75.31,52.71
						c-15.06,7.28-30.41,14.03-45.49,21.29c-14.79,7.12-28.98,15.1-43.13,23.27c-56.99,32.94-112.93,69.26-154.73,119.64
						c-10.24,12.35-19.49,25.45-27.7,39.17C1294.89,1019.95,1304.34,1019.47,1306.78,1015.37L1306.78,1015.37z"/>
				</g>
			</g>
			<g>
				<g>
					<path d="M1094.03,944.02c0.24,6.6,5.02,12.65,9.64,17.29c7.67,7.7,16.94,13.91,26.26,19.53
						c28.77,17.32,60.43,30.16,91.86,41.77c9.67,3.58,19.39,7.01,29.15,10.31c9.01,3.05,18.47,7.19,27.93,8.26
						c7.77,0.89,15.77-0.12,22.14-4.42c6.68-4.5,9.94-12.11,8.13-20.04c-1.92-8.4-8.05-16.02-13.97-22.32
						c-6.71-7.16-14.52-13.35-22.69-18.88c-17.42-11.78-36.53-21.45-55.96-29.5c-21.77-9.03-44.44-15.95-67.5-20.5
						c-10.65-2.11-22.66-5.13-33.42-3.54c-9.61,1.43-19.06,7.71-20.54,17.48c-0.39,2.58,2.52,3.08,4.47,2.63
						c2.45-0.56,5.17-2.73,5.55-5.26c1.23-8.15,11.93-7.25,18.42-6.43c9.43,1.2,18.85,2.99,28.15,5.07
						c19,4.25,37.67,10.08,55.73,17.48c17.28,7.08,34.09,15.5,49.97,25.32c14.79,9.15,29.99,20.42,38.7,35.5
						c2.76,4.77,6.37,13.97,0.55,17.73c-5.06,3.27-13.47,1.69-19.01,0.09c-17.96-5.18-35.7-11.79-53.2-18.37
						c-28.59-10.76-57.21-22.61-83.64-38.04c-9.45-5.51-19-11.53-26.88-19.1c-4.8-4.61-9.69-10.1-9.93-16.65
						c-0.1-2.63-4.39-1.79-5.75-1.19C1095.88,939.31,1093.94,941.4,1094.03,944.02L1094.03,944.02z"/>
				</g>
			</g>
			<g>
				<g>
					<path d="M1099.45,944.36c-19.14,1.15-30.84,20.8-24.72,38.03c7.65,21.55,31.62,31.35,51.37,40.07
						c23.32,10.29,47.24,19.15,71.3,27.47c12.25,4.23,24.54,8.32,36.84,12.38c10.01,3.31,20.12,6.98,30.71,7.08
						c10.29,0.09,18.88-4.26,25.33-11.6c5.28-6,10.39-15.05,7.34-23.38c-1.77-4.82-11.45,0.52-9.97,4.57
						c2.08,5.7-0.73,11.61-4.4,15.87c-4.39,5.09-9.6,6.64-16.58,6.17c-9.07-0.61-17.97-4.04-26.58-6.88
						c-10.38-3.42-20.74-6.87-31.08-10.4c-20.82-7.12-41.53-14.62-61.86-23.08c-9.74-4.05-19.42-8.27-28.92-12.86
						c-8.95-4.32-18.05-9.23-24.89-16.46c-6.23-6.59-11.1-15.44-10.29-24.38c0.63-6.94,5.06-13.85,12.78-14.32
						c2.64-0.16,5.57-2.02,6.5-4.42C1103.21,946.07,1101.98,944.2,1099.45,944.36L1099.45,944.36z"/>
				</g>
			</g>
			<g>
				<g>
					<path d="M1075.43,984.83c-6.19,5.8-11.01,13.21-14.38,20.89c-3.21,7.32-4.69,14.87-1.41,22.68
						c8.77,20.83,35.12,26.63,54.65,33.45c23.59,8.24,47.19,16.48,70.78,24.72c11.56,4.03,23.11,8.07,34.67,12.1
						c9.53,3.33,19.57,7.76,29.78,7.29c22.43-1.03,29.16-24.74,29.96-42.83c0.25-5.67-9.84-1.52-10.03,2.63
						c-0.33,7.5-1.34,15.15-4.3,22.04c-2.82,6.57-6.93,10.4-14.79,9.81c-8.93-0.67-17.81-4.69-26.21-7.62
						c-10.59-3.7-21.18-7.4-31.77-11.1c-20.7-7.23-41.41-14.46-62.11-21.68c-10.44-3.65-20.98-7.11-31.34-11.01
						c-9.09-3.43-18.37-7.75-24.71-15.26c-5.54-6.56-7.91-14.2-5.22-22.07c2.56-7.52,6.98-14.94,12.84-20.43
						c1.42-1.32,2.89-4.11,0.68-5.55C1080.32,981.47,1076.9,983.46,1075.43,984.83L1075.43,984.83z"/>
				</g>
			</g>
			<g>
				<g>
					<path d="M1064.73,1024.51c-12.93,6.91-19.78,23.51-18.81,37.63c1.34,19.44,27.09,26.44,42.74,31.73
						c24.55,8.29,49.11,16.59,73.66,24.88c12.16,4.1,24.31,8.21,36.46,12.32c9.87,3.33,19.91,7.38,30.35,7.98
						c10.81,0.62,20.47-3.22,26.49-11.77c5.7-8.1,8.19-18.51,8.07-28.41c-0.06-5.73-10.07-1.53-10.03,2.63
						c0.09,7.65-1.25,15.7-5.06,22.35c-1.28,2.24-2.98,4.71-5.47,5.8c-3.43,1.49-7.82,1.4-11.56,0.94
						c-9.23-1.14-18.15-4.72-26.94-7.69c-10.45-3.53-20.9-7.06-31.36-10.59c-21.15-7.14-42.3-14.29-63.45-21.43
						c-10.16-3.43-20.54-6.51-30.48-10.56c-7.88-3.21-17.49-7.87-21.69-15.57c-3.02-5.53-1.92-12.85-0.32-18.43
						c1.43-4.99,4.55-12.54,8.91-14.87c1.93-1.03,4.89-3.19,4.22-5.76C1069.84,1023.26,1066.39,1023.63,1064.73,1024.51
						L1064.73,1024.51z"/>
				</g>
			</g>
			<g>
				<g>
					<path d="M1053.01,1070.84c-13.46,6.06-17.29,24.42-6.65,35.38c6.5,6.7,15.36,10.42,23.73,14.28
						c9.94,4.57,19.89,9.15,29.83,13.71c19.89,9.15,39.78,18.28,59.67,27.43c17.07,7.84,35.35,18.23,54.52,14.64
						c9.03-1.69,17.29-6.76,22.03-14.33c5.5-8.78,6.67-19.14,6.12-29.42c-0.14-2.62-4.37-1.8-5.75-1.19
						c-2.34,1.03-4.35,3.14-4.22,5.76c0.41,7.69-0.25,16.19-4.14,22.92c-3.05,5.26-8.25,7.9-14.45,8.56
						c-16.54,1.78-33.12-8.34-47.74-15.06c-16.42-7.55-32.84-15.1-49.26-22.64c-16.23-7.46-32.82-14.44-48.75-22.52
						c-6.7-3.4-15.1-8.28-17.16-15.84c-1.17-4.3-1.07-12.55,3.74-14.71c1.98-0.89,4.86-3.29,4.22-5.76
						C1058.11,1069.49,1054.71,1070.07,1053.01,1070.84L1053.01,1070.84z"/>
				</g>
			</g>
			<g>
				<g>
					<path d="M1060.84,1115.85c-1.56,12.65,0.09,25.52,6.97,36.93c5.99,9.93,15.36,17.7,25.28,23.86
						c20.77,12.9,45.39,20.74,69.6,16.79c14.49-2.37,27.28-9.35,36.05-20.55c1.33-1.69,1.32-4.21-1.17-4.87
						c-2.64-0.7-5.62,1.48-7.03,3.29c-13.14,16.79-38.28,17.07-58.27,11.92c-10.43-2.68-20.16-7.35-29.39-12.86
						c-9.06-5.4-17.54-11.92-23.64-20.47c-7.86-11.02-9.93-23.92-8.36-36.69C1071.55,1107.7,1061.35,1111.75,1060.84,1115.85
						L1060.84,1115.85z"/>
				</g>
			</g>
			<g>
				<path class="st15" d="M1095.32,1173.53c-4.67,7.94,0.06,24.42,11.69,28.28c9.24,3.07,25.92-0.38,31-8.91"/>
				<g>
					<path d="M1090.61,1173.79c-5.83,10.8,0.52,27.67,12.99,31.92c12.96,4.43,31.45-1.1,38.52-12.03c1.14-1.76,1.45-4.18-1.17-4.87
						c-2.48-0.66-5.81,1.41-7.03,3.29c-4.4,6.82-17.98,8.68-25.33,4.97c-8.05-4.06-12.65-16.23-8.55-23.82
						c1.17-2.17-0.67-3.9-2.92-3.88C1094.29,1169.41,1091.82,1171.56,1090.61,1173.79L1090.61,1173.79z"/>
				</g>
			</g>
		</g>
		<g id="Ebene_8_1_">
			<g class="st16">
				<path class="st17" d="M1121.45,927.24c-9.77-2.35-17.35,9.54-14.48,18.87s11.82,15.7,20.34,21.06
					c36.37,22.89,75.72,41.22,116.66,54.36c19.32,6.2,40.61,11.2,59.1,4.29c-66.26-18.36-144.94-39.66-181.12-95.47"/>
				<g>
					<path class="st17" d="M1124.39,923.17c-13.41-2.7-24.67,11.07-22.85,23.2c1.08,7.22,6.61,13.21,12.24,17.8
						c7.23,5.91,15.69,10.59,23.75,15.3c34.59,20.23,71.92,37.01,110.4,48.26c17.8,5.2,37.14,8.32,54.6,2.04
						c2.34-0.84,9.2-6.44,3.47-8.03c-51.5-14.27-107.23-28.32-149.84-62.28c-11.55-9.2-21.62-20.03-29.61-32.23
						c-2.51-3.83-11.81,2.27-9.2,6.25c30.16,46.04,86.33,67.71,137.32,83.39c15.08,4.64,30.28,8.83,45.48,13.04
						c1.16-2.68,2.32-5.35,3.47-8.03c-13.36,4.81-27.76,3.28-41.63-0.11c-16.34-3.99-32.37-9.93-48-16.19
						c-16.49-6.6-32.64-14.06-48.35-22.32c-7.97-4.19-15.82-8.59-23.56-13.19c-6.81-4.06-13.87-8.07-20.06-13.03
						c-5.31-4.25-11.03-10.65-10.59-17.6c0.25-4,2.16-9.12,7.1-8.12C1122.74,932.18,1130.14,924.32,1124.39,923.17L1124.39,923.17z"
						/>
				</g>
			</g>
			<g class="st16">
				<path class="st17" d="M1093.09,955.46c-10.61,4.09-12.31,18.94-6.25,28.72c6.06,9.77,17.11,15.54,27.65,20.63
					c44.59,21.5,90.67,39.95,137.74,55.15c12.1,3.91,27.6,6.75,35.18-2.65c-34.7-3.6-181.33-43.54-192.88-104.24"/>
				<g>
					<path class="st17" d="M1092.32,951.98c-13.76,5.83-17.76,22.72-10.09,35.32c4.42,7.25,11.91,12.53,19.33,16.64
						c8.74,4.84,17.97,8.91,27.05,13.08c38.33,17.62,77.7,33,117.78,46.07c15.67,5.11,33.67,8.4,45.12-5
						c1.2-1.41,1.48-4.59-1.17-4.87c-10.4-1.1-20.76-3.53-30.94-6.06c-15.3-3.8-30.44-8.36-45.35-13.55
						c-31.58-11.01-64.65-24.95-90.28-46.77c-11.26-9.58-21.41-21.7-24.26-36.06c-0.95-4.79-10.82,0.28-9.97,4.57
						c5.69,28.76,36.15,48.48,60.91,61.71c30.44,16.28,63.66,27.94,96.94,36.7c12.16,3.2,24.6,6.31,37.09,7.63
						c-0.39-1.62-0.78-3.25-1.17-4.87c-2.93,3.43-9.08,3.22-13.32,2.76c-6.58-0.72-12.9-2.76-19.2-4.82
						c-17.61-5.77-35.08-12.01-52.37-18.69c-16.9-6.53-33.63-13.49-50.19-20.86c-8.39-3.74-16.74-7.58-25.04-11.53
						c-7.12-3.39-14.38-6.71-20.86-11.23c-6.38-4.45-12.08-10.46-13.56-18.05c-1.02-5.22-0.54-12.8,5.06-15.17
						c2-0.84,4.85-3.32,4.22-5.76C1097.41,950.61,1094.03,951.26,1092.32,951.98L1092.32,951.98z"/>
				</g>
			</g>
			<g class="st16">
				<path class="st17" d="M1077.44,995.33c-12.53,2.56-15.3,20.01-7.91,30.52c7.39,10.51,20.52,15.53,32.8,19.93
					c42.33,15.16,84.66,30.31,126.99,45.46c12.7,4.54,28.52,8.57,37.89-0.24c-55.68-14.5-182.04-46.14-185.52-99.91"/>
				<g>
					<path class="st17" d="M1077.98,991.38c-13.8,3.26-20.55,18.07-16.28,31.02c5.37,16.31,24.73,22.82,39.63,28.15
						c40.64,14.55,81.3,29.1,121.94,43.65c15.82,5.66,33.77,10.53,47.16-1.39c1.77-1.57,3.02-5.04-0.28-5.9
						c-28.55-7.43-57.08-15-84.98-24.76c-15.3-5.36-30.44-11.38-44.96-18.63c-12.56-6.27-25.16-13.51-35.53-22.97
						c-9.43-8.59-17.07-19.18-17.99-31.75c-0.34-4.6-10.29,0.23-9.97,4.57c1.86,25.29,27.92,42.81,48.97,54.14
						c29.26,15.75,61.42,26.15,93.19,35.32c15.08,4.35,30.24,8.3,45.41,12.25c-0.09-1.97-0.19-3.93-0.28-5.9
						c-3.76,3.34-9.72,3.2-14.61,2.53c-6.81-0.93-13.34-3.2-19.8-5.52c-17.32-6.2-34.64-12.4-51.95-18.6
						c-17.56-6.28-35.12-12.57-52.67-18.86c-8.25-2.96-16.55-5.79-24.74-8.91c-7.04-2.69-14.21-5.81-20.06-10.61
						c-5.58-4.56-9.45-10.65-9.67-17.69c-0.15-4.71,1.09-11.02,6.4-12.28c2.36-0.56,5.34-2.73,5.55-5.26
						C1082.67,991.42,1080.07,990.9,1077.98,991.38L1077.98,991.38z"/>
				</g>
			</g>
			<g class="st16">
				<path class="st17" d="M1062.87,1038.07c-8.87,5.05-10.53,17.68-5.56,26.78c4.97,9.09,14.87,14.93,24.97,18.09
					c10.09,3.16,20.68,4.12,31.01,6.3c23.8,5.02,45.79,16.42,68.47,25.39c22.67,8.97,47.54,15.65,70.89,10.59
					c-44.45-11.01-162.63-38.1-189.47-88.03"/>
				<g>
					<path class="st17" d="M1060.8,1035.33c-12.01,7.37-14.65,23.45-6.52,35.18c9.46,13.64,27.18,17.78,42.6,20.4
						c9.07,1.54,18.01,3.2,26.85,5.91c9.23,2.83,18.19,6.44,27.09,10.19c15.95,6.73,31.75,13.97,48.41,18.77
						c17.36,5,35.38,7.03,52.88,3.39c2.68-0.56,8.95-6.67,3.47-8.03c-25.31-6.27-50.61-12.56-75.49-20.5
						c-28.75-9.18-58.08-20.11-83.24-37.09c-11.58-7.81-22.42-17.3-29.07-29.47c-2.12-3.87-11.49,2.05-9.2,6.25
						c12.76,23.37,39.92,38.04,63.67,48.86c28.42,12.95,58.48,22.22,88.54,30.28c12.94,3.46,25.94,6.63,38.93,9.85
						c1.16-2.68,2.32-5.35,3.47-8.03c-29.47,6.13-59.53-6.75-86.49-18.3c-15.07-6.45-30.27-12.95-46.22-16.85
						c-15.15-3.7-31.73-3.82-45.6-11.8c-6.49-3.74-12.52-9.36-14.51-16.55c-1.63-5.92-1.04-13.52,4.57-16.96
						c1.65-1.01,4.06-3.84,2.54-5.87C1065.87,1032.82,1062.4,1034.35,1060.8,1035.33L1060.8,1035.33z"/>
				</g>
			</g>
			<g class="st16">
				<path class="st17" d="M1055.37,1074.97c-7.71,6.17-6.36,18.82,0.09,26.74c6.45,7.92,16.39,12.25,25.9,16.27
					c33.48,14.15,66.95,28.29,100.43,42.44c16.02,6.77,35.13,13.43,49.52,4.88c-64.95-13.2-135.15-40.21-177.54-90.98"/>
				<g>
					<path class="st17" d="M1052.17,1073.16c-10.01,8.65-8.73,24.01,0.38,33.58c5.26,5.52,12.04,9.27,18.97,12.4
						c8.03,3.63,16.23,6.92,24.36,10.35c16.74,7.07,33.48,14.15,50.21,21.22c15.05,6.36,30.01,13.5,45.52,18.7
						c14.26,4.78,28.79,6.01,41.78-1.37c2.06-1.18,5-5.98,0.86-6.82c-50.9-10.41-102.42-28.06-144.17-59.9
						c-11.67-8.91-22.33-18.97-31.7-30.12c-3.06-3.64-12.19,2.7-9.2,6.25c34.28,40.76,84.43,65.49,135.02,80.84
						c14.56,4.42,29.33,8.06,44.2,11.1c0.29-2.28,0.58-4.55,0.86-6.82c-8.97,5.1-21.28,2.1-30.74-0.97
						c-13.54-4.4-26.6-10.73-39.7-16.26c-14.85-6.27-29.71-12.55-44.56-18.83c-7.55-3.19-15.09-6.37-22.63-9.57
						c-6.5-2.75-13.15-5.32-19.34-8.73c-6.43-3.55-12.77-8.33-15.56-15.17c-2.16-5.31-2.72-12.28,1.86-16.24
						c1.48-1.27,2.85-4.14,0.68-5.55C1057.01,1069.76,1053.71,1071.82,1052.17,1073.16L1052.17,1073.16z"/>
				</g>
			</g>
			<g class="st16">
				<path class="st17" d="M1066.53,1119.28c5.68,21.86,20.73,41.68,40.78,53.68c20.04,12,44.82,16.04,67.14,10.94
					c-39.46-10.96-75.56-34.45-101.19-65.86"/>
				<g>
					<path class="st17" d="M1061.54,1121.57c5.92,22.12,20.65,42.04,40.84,54.51c21.38,13.2,47.61,17.05,71.52,11.77
						c2.75-0.61,8.9-6.5,3.47-8.02c-38.92-10.95-74.11-33.99-99.52-64.9c-3.01-3.66-12.15,2.66-9.2,6.25
						c26.3,32,62.61,55.49,102.86,66.82c1.16-2.68,2.32-5.35,3.47-8.03c-22.11,4.88-46.38,0.38-65.85-12.01
						c-18.57-11.81-32.13-30.42-37.62-50.95C1070.21,1112.17,1060.41,1117.36,1061.54,1121.57L1061.54,1121.57z"/>
				</g>
			</g>
			<g class="st16">
				<path class="st17" d="M1097.26,1175.27c-1.49,7.43,1.52,15.71,7.57,20.86c6.06,5.15,14.93,6.94,22.33,4.53
					c-11.2-6.15-19.96-16.51-23.91-28.26"/>
				<g>
					<path class="st17" d="M1092.25,1176.59c-1.44,8.32,1.55,17.18,8.34,22.98c7.19,6.13,17.31,7.64,26.04,5.04
						c2.17-0.65,8.52-5.37,4.43-7.68c-10.69-6.04-18.86-15.52-22.81-26.8c-1.69-4.83-11.4,0.49-9.97,4.57
						c4.37,12.47,13.14,23.01,25,29.72c1.48-2.56,2.95-5.12,4.43-7.68c-14.33,4.25-27.81-9.05-25.44-22.76
						c0.45-2.57-2.56-3.07-4.47-2.63C1095.31,1171.91,1092.68,1174.06,1092.25,1176.59L1092.25,1176.59z"/>
				</g>
			</g>
		</g>
		<g id="Ebene_4">
			<g>
				<g>
					<path d="M1122.8,929.35c47.33-26.25,94.11-53.4,139.61-82.38c45.64-29.08,90.02-60,132.09-93.64
						c41.56-33.23,81.73-68.89,116.86-108.5c17.59-19.85,34.53-42.94,37.57-70.04c2.3-20.46-4.42-43.86-20.71-58.63
						c-17.1-15.51-40.51-17.05-60.85-9.11c-23.98,9.37-39.49,30.36-49.16,52.75c-2.65,6.13-4.91,12.42-7,18.77
						c-1.96,5.94,6.97,3.56,8.82,0.52c12.78-21.14,26.39-43.8,25.58-69.54c-0.66-20.99-11.47-42.08-32.93-50.29
						c-21.37-8.17-45.48-3.54-64.18,7.01c-20.24,11.42-35.42,29.29-45.7,49.46c-23.01,45.13-19.18,98.56-17.93,148.26
						c1.33,52.96,3.75,105.93,5,158.9c1.25,52.71,1.48,105.48-1.97,157.93c-0.42,6.35-0.9,12.69-1.42,19.02
						c-0.47,5.61,9.68,1.5,10.03-2.63c4.17-49.72,4.68-99.8,3.92-149.85c-0.77-50.48-2.89-100.98-4.53-151.47
						c-0.8-24.77-1.56-49.56-1.81-74.31c-0.25-25.15,0.55-50.5,6.47-74.85c9.44-38.79,37.76-82.59,83.99-83.31
						c10.43-0.16,21.06,2.36,29.91,8.2c8.75,5.77,14.88,14.62,18.07,24.2c7.54,22.68-0.23,45.16-10.89,64.84
						c-3.09,5.71-6.47,11.28-9.83,16.85c2.94,0.17,5.88,0.35,8.82,0.52c7.39-22.43,17.55-46.39,38.81-59.41
						c17.17-10.52,39.98-11.41,57.01,1.68c16.73,12.86,24.18,35.48,22.63,55.01c-2.03,25.66-18.04,47.77-34.63,66.41
						c-33.5,37.64-71.5,71.85-110.95,103.61c-39.67,31.93-81.44,61.42-124.4,89.2c-42.82,27.69-86.84,53.7-131.46,78.73
						c-5.45,3.06-10.93,6.11-16.39,9.14c-1.92,1.06-4.89,3.17-4.22,5.76C1117.68,930.59,1121.16,930.27,1122.8,929.35L1122.8,929.35
						z"/>
				</g>
			</g>
			<g>
				<g>
					<path d="M1619.01,502.8c22.19,41.33,25.46,90.79,8.69,132.9c-0.89,2.21,0.47,3.9,2.92,3.88c2.59-0.03,5.59-2.13,6.5-4.42
						c17.58-44.12,14.33-95.29-8.91-138.61C1626.14,492.68,1616.75,498.58,1619.01,502.8L1619.01,502.8z"/>
				</g>
			</g>
			<g>
				<g>
					<path d="M1143.97,479.91c-20.11,35.93-27.79,78.28-22.22,119.66c1.59,11.82,4.32,23.51,8.08,34.96
						c1.59,4.84,11.32-0.46,9.97-4.57c-12.89-39.1-13.05-81.42-0.22-119.54c3.62-10.76,8.26-21.14,13.8-31.05
						c1.21-2.16-0.7-3.91-2.92-3.88C1147.62,475.52,1145.22,477.68,1143.97,479.91L1143.97,479.91z"/>
				</g>
			</g>
		</g>
	</g>
</g>
</svg>
