<?xml version="1.0" encoding="utf-8"?>
<!-- Generator: Adobe Adobe Illustrator 24.2.0, SVG Export Plug-In . SVG Version: 6.00 Build 0)  -->
<svg version="1.1" xmlns="http://www.w3.org/2000/svg" xmlns:xlink="http://www.w3.org/1999/xlink" x="0px" y="0px"
	 viewBox="0 0 2000 2000" style="enable-background:new 0 0 2000 2000;" xml:space="preserve">
<style type="text/css">
	.st0{fill:#FFFFFF;}
	.st1{fill:#2E1B12;}
	.st2{fill:#F1BD56;stroke:#000000;stroke-width:7.9483;stroke-miterlimit:10;}
	.st3{fill:#F1BD56;}
	.st4{fill:#F3C057;}
	.st5{fill:#CA344E;}
	.st6{fill:#B22E45;}
	.st7{fill:#91615D;}
	.st8{fill:#F0C1A1;}
	.st9{fill:#FFFFFF;stroke:#FFFFFF;stroke-width:0.8142;stroke-miterlimit:10;}
	.st10{opacity:0.102;}
	.st11{opacity:0.149;}
	.st12{fill:#CA354E;}
</style>
<g id="Ebene_24_Kopie_2">
	<g>
		<path class="st0" d="M1476.13,1408.9c-15-90.79-83.45-166.46-165.06-209.59s-175.31-57.78-267.5-63.82
			c-94.39-6.19-192.78-3.24-278.03,37.59c-103.55,49.6-173.56,147.67-238.99,241.75c315.09,53.32,639.5,51.56,953.98-5.17"/>
		<g>
			<path d="M1480.42,1405.21c-11.78-69.89-54.65-130.44-109.33-174.03c-62.12-49.51-139.23-75.52-216.68-89
				c-41.49-7.22-83.53-11.13-125.57-13.34c-41.62-2.19-83.42-2.26-124.91,2.07c-40.74,4.26-81.09,13.04-119.09,28.52
				c-35.07,14.29-67.39,34.38-96.68,58.31c-58.61,47.9-104.47,109.22-147.74,170.75c-5.41,7.69-10.79,15.41-16.16,23.13
				c-1.42,2.04-4.24,8.13,0.15,8.87c123.12,20.79,247.62,33.26,372.42,37.28c124.52,4.02,249.29-0.37,373.22-13.02
				c70.15-7.16,140.02-17.03,209.41-29.52c4.55-0.82,8.36-12.25,2.1-11.12c-123.17,22.18-247.81,36-372.85,41.3
				c-124.1,5.26-248.56,2.21-372.26-9.15c-69.58-6.39-138.9-15.44-207.79-27.08c0.05,2.96,0.1,5.91,0.15,8.87
				c42.32-60.84,85.44-122.4,140.17-172.9c26.96-24.88,56.68-46.75,89.43-63.4c36.12-18.36,75.4-29.68,115.32-36.03
				c40.41-6.42,81.48-7.8,122.33-6.7c41.1,1.1,82.29,4.19,123.04,9.71c78.48,10.62,157.65,31.97,223.81,76.99
				c56.94,38.74,104.66,94.94,123.42,162.12c2.28,8.15,4.09,16.42,5.49,24.76c0.5,2.94,3.97,1.86,5.5,0.62
				C1479.66,1411.34,1480.91,1408.12,1480.42,1405.21L1480.42,1405.21z"/>
		</g>
	</g>
	<g>
		<g>
			<path d="M976.32,1283.12c19.22-20.42,35.06-43.8,54.28-64.22c-2.18,0.52-4.36,1.04-6.55,1.56c15.76,18.4,31.53,36.8,47.29,55.21
				c3.9,4.55,11.54-6.12,8.22-10.01c-15.76-18.4-31.53-36.8-47.29-55.21c-2.05-2.4-4.95-0.14-6.55,1.56
				c-19.22,20.42-35.06,43.8-54.28,64.22c-1.7,1.8-3.5,6.2-1.67,8.44C971.79,1287.16,974.77,1284.77,976.32,1283.12L976.32,1283.12z
				"/>
		</g>
	</g>
	<g>
		<g>
			<path d="M1075.55,1276.13c48.36-21.74,92.57-59.39,120.29-104.71c0.99-1.62,2.62-6.66-0.13-7.72
				c-18.69-7.23-37.37-14.47-56.06-21.7c-5.19-2.01-11.44,9.61-6.62,11.47c18.69,7.23,37.37,14.47,56.06,21.7
				c-0.04-2.57-0.09-5.15-0.13-7.72c-26.06,42.61-68.24,77.38-113.59,97.77C1070.71,1267.3,1068.37,1279.36,1075.55,1276.13
				L1075.55,1276.13z"/>
		</g>
	</g>
	<g>
		<g>
			<path d="M923.01,1133.85c-18.08,6.7-36.16,13.4-54.24,20.1c-3.45,1.28-7.04,6.02-5.72,9.91
				c17.67,52.04,55.29,96.57,104.37,121.56c4.89,2.49,11.4-9.04,6.62-11.47c-47.71-24.3-84.6-67.33-101.8-117.99
				c-1.91,3.3-3.81,6.6-5.72,9.91c18.08-6.7,36.16-13.4,54.24-20.1c2.98-1.1,5.23-3.99,5.77-7.14
				C926.88,1136.55,926.05,1132.72,923.01,1133.85L923.01,1133.85z"/>
		</g>
	</g>
	<g>
		<g>
			<path d="M1019.89,1224.27c2.13,73.87,3.77,148.08-2.13,221.82c-0.24,2.98,2.58,3.93,4.87,2.81c2.95-1.44,4.44-5.05,4.68-8.11
				c5.91-73.75,4.26-147.95,2.13-221.82c-0.08-2.9-2.36-4.04-4.87-2.81C1021.87,1217.49,1019.81,1221.3,1019.89,1224.27
				L1019.89,1224.27z"/>
		</g>
	</g>
</g>
<g id="Ebene_31">
	<g>
		<path class="st1" d="M751.73,1183.49c-93.31,51-169.84,133.36-214.82,231.18c83.36,9.01,167.21,14.18,250.09,27.03
			c49.41,7.66,65.04-31.08,68.09-66.73s-14.13-69.92-34.84-98.79c-20.71-28.87-45.56-54.95-61.77-86.68"/>
		<g>
			<path class="st1" d="M751.64,1178.03c-74.46,40.86-137.73,100.77-183.77,172.05c-13.26,20.53-24.92,42.01-35.16,64.19
				c-0.92,2-1.04,6.13,1.92,6.45c45.28,4.88,90.67,8.65,135.99,13.12c22.49,2.22,44.97,4.61,67.39,7.41
				c11.37,1.42,22.74,2.94,34.08,4.59c9.44,1.38,18.88,3.32,28.47,2.77c29.11-1.67,47.41-23.91,54.86-50.49
				c4.18-14.92,5.89-30.93,4.07-46.33c-2.34-19.77-9.62-38.42-19.23-55.75c-22.09-39.8-56.7-71.02-77.67-111.56
				c-2.53-4.89-10.6,5.4-8.22,10.01c32.58,63,108.36,114.81,94.48,194.08c-1.97,11.27-5.4,22.98-12.53,32.14
				c-7.47,9.59-18.43,14.82-30.48,15.74c-8.85,0.68-17.56-1-26.28-2.29c-10.69-1.58-21.4-3.04-32.12-4.41
				c-21.12-2.69-42.28-5.01-63.46-7.15c-48.24-4.87-96.58-8.81-144.79-14c0.64,2.15,1.28,4.3,1.92,6.45
				c34.27-74.2,87.25-139.43,152.51-188.59c18.46-13.91,37.95-26.4,58.21-37.52c2.67-1.47,4.84-5.03,4.68-8.11
				C756.36,1178.02,754.2,1176.62,751.64,1178.03L751.64,1178.03z"/>
		</g>
	</g>
	<g>
		<path class="st1" d="M1302.06,1202.1c-39.05,17.29-70.21,52.26-83.4,93.58c-13.19,41.32,2.09,106.16,23.66,143.63
			c74.54-9.1,149.08-18.19,223.62-27.29c4.86-0.59,8.5-6.17,7.17-10.98c-23.31-84.23-84.4-156.72-162.5-192.81"/>
		<g>
			<path class="st1" d="M1301.96,1196.63c-35.47,15.93-63.94,45.29-80.33,80.38c-7.72,16.52-11.99,33.71-12.58,51.94
				c-0.62,19.3,2.14,38.79,6.73,57.51c4.93,20.09,12.16,39.84,22.41,57.84c0.62,1.08,1.95,1.08,2.99,0.95
				c39.58-4.83,79.16-9.66,118.73-14.49c19.79-2.41,39.58-4.83,59.37-7.24c9.89-1.21,19.79-2.42,29.68-3.62
				c7.96-0.97,17.78-0.25,23.71-6.49c5.25-5.52,6.23-12.16,4.19-19.24c-2.09-7.27-4.47-14.46-7.12-21.55
				c-5.24-14.03-11.54-27.7-18.76-40.82c-14.51-26.38-32.9-50.62-54.4-71.7c-24.15-23.67-52-43.33-82.67-57.61
				c-5-2.33-11.43,9.23-6.62,11.47c51.28,23.87,94.65,62.76,125.09,110.34c15.27,23.87,27.17,49.82,35.09,77.04
				c0.33,1.12,1.54,3.46,1.11,4.53c0.16-0.4-1.19,0.09-1.53,0.18c-4.63,1.25-10.09,1.23-14.84,1.81c-9.23,1.13-18.47,2.25-27.7,3.38
				c-18.47,2.25-36.94,4.51-55.41,6.76c-41.89,5.11-83.77,10.22-125.66,15.34c1,0.32,1.99,0.64,2.99,0.95
				c-16.97-29.78-26.63-65.51-27.79-99.71c-0.57-16.78,1.57-32.86,7.8-48.49c6.45-16.18,15.97-31.03,27.68-43.91
				c13.42-14.76,29.87-26.48,48.05-34.64C1306.81,1205.46,1309.15,1193.41,1301.96,1196.63L1301.96,1196.63z"/>
		</g>
	</g>
</g>
<g id="Ebene_32">
	<ellipse class="st2" cx="753.6" cy="1250.59" rx="19.67" ry="20.09"/>
	<ellipse class="st2" cx="798.18" cy="1320.7" rx="19.67" ry="20.09"/>
	<ellipse class="st2" cx="808.94" cy="1406.37" rx="19.67" ry="20.09"/>
	<ellipse class="st2" cx="1321.73" cy="1247.57" rx="19.67" ry="20.09"/>
	<ellipse class="st2" cx="1274.66" cy="1320.7" rx="19.67" ry="20.09"/>
	<ellipse class="st2" cx="1267.6" cy="1393.1" rx="19.67" ry="20.09"/>
</g>
<g id="Ebene_24">
	<g>
		<path class="st3" d="M1268.94,1194.38c-42.26,21.33-75.31,60.91-89.25,106.89c-13.94,45.98-8.57,97.7,14.5,139.68
			c12.69-0.99,25.37-1.97,38.06-2.96c-27.37-35.32-32.65-90.29-9.05-128.34c24-38.7,51.62-66.78,78.85-107.55
			c-11.5-4.51-23-9.01-34.5-13.52"/>
		<g>
			<path class="st4" d="M1268.85,1188.92c-69.97,35.71-110.2,114.69-99.85,192.24c3.04,22.75,10.13,44.62,21.09,64.79
				c0.45,0.63,1.06,0.98,1.83,1.06c12.69-0.99,25.37-1.97,38.06-2.96c4.09-0.32,9.42-7.09,6.39-11.06
				c-18.79-24.61-27-57.41-21.93-87.99c2.69-16.23,9.6-29.75,18.62-43.33c10.2-15.34,21.59-29.85,32.97-44.33
				c13.66-17.39,27.15-34.88,39.48-53.25c1.07-1.6,2.56-6.67-0.13-7.72c-11.5-4.51-23-9.01-34.5-13.52
				c-5.18-2.03-11.44,9.58-6.62,11.47c11.5,4.51,23,9.01,34.5,13.52c-0.04-2.57-0.09-5.15-0.13-7.72
				c-22.43,33.43-49.6,63.35-71.95,96.83c-9.73,14.57-17.41,29.49-20.86,46.81c-3.22,16.13-3.01,32.87,0.11,49
				c3.51,18.13,11.02,35.55,22.24,50.24c2.13-3.69,4.26-7.38,6.39-11.06c-5.71,0.44-11.42,0.89-17.13,1.33
				c-2.85,0.22-5.71,0.44-8.56,0.67c-2.11,0.16-8.55,1.71-10.47,0.81c-3.07-1.43-5.3-9.04-6.65-12.16
				c-2.14-4.92-4.05-9.93-5.73-15.02c-6.63-20.03-9.68-41.1-9.07-62.19c1.14-39.41,16.18-77.22,42.18-106.82
				c14.02-15.96,31.02-29.06,49.93-38.71c2.7-1.38,4.84-5.09,4.68-8.11C1273.57,1188.84,1271.43,1187.6,1268.85,1188.92
				L1268.85,1188.92z"/>
		</g>
	</g>
	<g>
		<path class="st3" d="M759.84,1188.58c38.53,47.77,67.56,76.31,87.83,111.61c23.76,41.37,4.23,99.04-13.98,143.25
			c20.38,2.89,48.15,9.77,56.21-21.23c21.43-82.45,6.59-161.57-52.44-210.38c-7.71-6.38-13.15-15.09-19.43-22.94
			c-6.27-7.85-14.05-15.25-23.77-17.28s-25.41,7.6-36.23,14.45"/>
		<g>
			<path class="st4" d="M755.73,1193.58c23.82,29.48,50.08,57.2,72.35,87.89c9.69,13.35,19.31,27.37,23.23,43.6
				c4.42,18.26,2.64,37.5-1.22,55.69c-4.55,21.44-12.29,42.06-20.61,62.29c-0.86,2.1-1.08,6.02,1.92,6.45
				c20.06,2.89,42.93,6.88,56.21-12.51c8.21-11.98,10.25-28.46,12.58-42.48c2.44-14.72,3.79-29.68,3.78-44.61
				c-0.02-28.06-4.97-56.44-16.44-82.15c-5.59-12.54-12.53-24.41-20.97-35.25c-4.31-5.53-8.99-10.79-13.98-15.72
				c-5.09-5.03-10.92-9.34-15.85-14.52c-11.67-12.24-19.46-30.11-36.67-35.74c-14.56-4.77-30.42,6.68-42.12,14.07
				c-2.62,1.65-4.85,4.9-4.68,8.11c0.14,2.67,2.34,4.4,4.87,2.81c5.57-3.52,11.19-7.01,17.13-9.89c5.03-2.44,11.02-5.06,16.73-3.96
				c14.32,2.76,22.85,17.76,31.12,28.25c8.29,10.53,19.38,18.29,28.3,28.28c8.27,9.27,15.47,19.48,21.42,30.38
				c25.61,46.86,25.99,103.15,13.65,153.97c-1.4,5.76-2.84,11.87-7.39,16.03c-3.42,3.14-8.06,4.51-12.56,5.16
				c-10.11,1.45-20.58-0.92-30.57-2.35c0.64,2.15,1.28,4.3,1.92,6.45c14.76-35.91,29.72-76.21,24.6-115.7
				c-4.52-34.8-30.27-63.33-52.08-89.21c-15.53-18.42-31.31-36.61-46.45-55.35C760.21,1178.95,752.5,1189.59,755.73,1193.58
				L755.73,1193.58z"/>
		</g>
	</g>
</g>
<g id="Ebene_21">
	<g>
		<path class="st5" d="M1023.52,1233.05c-14.37,54.77-38.83,109.43-71.74,155.1c13.01,3.05,49.18,4.94,49.18,4.94
			s15.76-18.26,16.01-31.89c0.79-43.53,1.58-87.05,2.38-130.58"/>
		<g>
			<path d="M1018.88,1234.23c-14.15,53.56-37.2,105.39-69.54,150.48c-1.68,2.35-4.42,8.47,0.16,9.5c11.43,2.58,23.42,3.2,35.08,4.04
				c4.21,0.31,8.45,0.71,12.68,0.82c3.28,0.08,5.2-1.4,7.25-3.88c7.6-9.2,15.25-20.88,16.93-32.92c1.34-9.58,0.6-19.77,0.77-29.44
				c0.2-10.88,0.4-21.76,0.59-32.64c0.44-24.07,0.88-48.14,1.31-72.21c0.05-2.94-2.45-3.99-4.87-2.81c-2.82,1.38-4.63,5.1-4.68,8.11
				c-0.59,32.64-1.19,65.29-1.78,97.93c-0.15,8.24-0.3,16.49-0.45,24.73c-0.11,5.95-0.08,10.99-2.55,16.48
				c-2.79,6.21-6.84,12.06-11.26,17.22c1.57-0.87,3.14-1.75,4.72-2.62c-16.28-0.86-33.24-1.34-49.18-4.94
				c0.05,3.17,0.11,6.33,0.16,9.5c34.45-48.04,58.87-102.66,73.95-159.73c0.67-2.52-0.68-5.28-3.52-4.78
				C1021.5,1227.65,1019.59,1231.53,1018.88,1234.23L1018.88,1234.23z"/>
		</g>
	</g>
	<g>
		<path class="st6" d="M1022.19,1232.73c-0.03,43.56-8.91,87.1-25.91,127.05c16.06,11.19,41.56,7.23,41.56,7.23
			s17.68-27.55,16.15-43.79c-1.53-16.24-8.38-31.39-14.99-46.24c-6.61-14.85-13.18-30.19-14.08-46.48"/>
		<g>
			<path d="M1017.41,1235.38c-0.15,42.62-8.76,84.75-25.33,124.01c-0.79,1.86-1.04,4.84,0.89,6.13c10.54,7.02,23.88,8.75,36.3,8.13
				c2.93-0.15,6.73,0.12,9.27-1.59c2.43-1.64,4.05-5.11,5.49-7.61c5.79-10.05,11.05-20.82,13.65-32.18
				c3.55-15.46-2.42-31.77-8.29-45.93c-7.86-18.97-18.27-37.6-19.69-58.48c-0.53-7.83-9.9,0.21-9.55,5.3
				c2.11,30.96,22.14,56.08,28.06,85.99c2.17,10.96-0.54,20.08-5.16,30.05c-2.52,5.44-5.42,10.78-8.65,15.84
				c1.52-1.32,3.04-2.65,4.56-3.97c-13.03,1.97-28.26,0.38-39.37-7.01c0.3,2.04,0.59,4.08,0.89,6.13
				c17.36-41.12,26.33-85.46,26.49-130.09c0.01-2.93-2.43-4.01-4.87-2.81C1019.31,1228.63,1017.42,1232.37,1017.41,1235.38
				L1017.41,1235.38z"/>
		</g>
	</g>
	<g>
		<path class="st6" d="M1025.79,1236.63c5.53,33.44,11.05,66.87,16.58,100.31c1.91,11.54,5.04,20.25,16.48,19.57
			s31.37-8.69,41.16-14.76c-8.97-47.29-35.6-90.86-73.26-119.87"/>
		<g>
			<path d="M1021.19,1240.58c3.14,19.01,6.28,38.03,9.43,57.04c1.52,9.18,3.03,18.36,4.55,27.54c1.29,7.78,2.01,15.89,4.28,23.46
				c1.41,4.71,3.79,9.65,8.27,12.14c4.8,2.66,10.57,1.95,15.72,0.94c12.67-2.48,25.63-7.79,36.66-14.47
				c3.09-1.87,5.21-5.79,4.5-9.41c-9.3-47.95-35.96-91.68-74.55-121.66c-4.09-3.18-11.03,8.05-6.62,11.47
				c37.41,29.06,62.98,71.67,71.98,118.09c1.5-3.14,3-6.27,4.5-9.41c-10.04,6.09-21.5,10.73-32.98,13.22
				c-4.6,1-10.35,2.08-14.24-1.35c-3.72-3.29-4.67-9.19-5.5-13.8c-6.12-33.79-11.21-67.8-16.81-101.68
				c-0.52-3.16-4.26-1.99-5.9-0.66C1022,1234.03,1020.67,1237.46,1021.19,1240.58L1021.19,1240.58z"/>
		</g>
	</g>
</g>
<g id="Ebene_23">
	<g>
		<g>
			<g>
				<path d="M751.03,1187.05c25.37,35.09,49.07,71.34,74.27,106.55c10.18,14.21,17.85,28.64,21.56,45.88
					c3.59,16.7,3.5,34.18,0.06,50.9c-3.78,18.35-11.85,35.55-24.28,49.63c-1.65,1.86-3.53,6.16-1.67,8.44
					c1.98,2.43,5.04,0.14,6.55-1.56c24.05-27.25,34.73-65.53,30.76-101.44c-1.97-17.81-7.35-35.23-16.85-50.49
					c-5.53-8.89-12.09-17.2-18.1-25.77c-6.62-9.45-13.17-18.96-19.71-28.47c-14.65-21.32-29.21-42.71-44.37-63.67
					C755.82,1172.3,748,1182.86,751.03,1187.05L751.03,1187.05z"/>
			</g>
		</g>
		<g>
			<g>
				<path d="M793.17,1167.06c27.1,31.11,59.47,58.79,81.62,93.9c22.08,34.99,29.68,78.25,24.73,119.07
					c-2.86,23.57-9.84,46.52-21.02,67.49c-1.08,2.03-2.52,6.19,0.13,7.72c2.55,1.47,5.71-1.79,6.75-3.75
					c20.86-39.13,29.12-84.42,23.12-128.39c-2.86-20.97-8.77-41.45-18.62-60.23c-9.49-18.1-22.37-34.08-36.02-49.18
					c-17.26-19.09-35.56-37.21-52.48-56.63C797.44,1152.53,789.82,1163.21,793.17,1167.06L793.17,1167.06z"/>
			</g>
		</g>
	</g>
	<g>
		<g>
			<g>
				<path d="M751.03,1187.05c25.37,35.09,49.07,71.34,74.27,106.55c10.18,14.21,17.85,28.64,21.56,45.88
					c3.59,16.7,3.5,34.18,0.06,50.9c-3.78,18.35-11.85,35.55-24.28,49.63c-1.65,1.86-3.53,6.16-1.67,8.44
					c1.98,2.43,5.04,0.14,6.55-1.56c24.05-27.25,34.73-65.53,30.76-101.44c-1.97-17.81-7.35-35.23-16.85-50.49
					c-5.53-8.89-12.09-17.2-18.1-25.77c-6.62-9.45-13.17-18.96-19.71-28.47c-14.65-21.32-29.21-42.71-44.37-63.67
					C755.82,1172.3,748,1182.86,751.03,1187.05L751.03,1187.05z"/>
			</g>
		</g>
		<g>
			<g>
				<path d="M793.17,1167.06c27.1,31.11,59.47,58.79,81.62,93.9c22.08,34.99,29.68,78.25,24.73,119.07
					c-2.86,23.57-9.84,46.52-21.02,67.49c-1.08,2.03-2.52,6.19,0.13,7.72c2.55,1.47,5.71-1.79,6.75-3.75
					c20.86-39.13,29.12-84.42,23.12-128.39c-2.86-20.97-8.77-41.45-18.62-60.23c-9.49-18.1-22.37-34.08-36.02-49.18
					c-17.26-19.09-35.56-37.21-52.48-56.63C797.44,1152.53,789.82,1163.21,793.17,1167.06L793.17,1167.06z"/>
			</g>
		</g>
	</g>
	<g>
		<g>
			<g>
				<path d="M751.03,1187.05c25.37,35.09,49.07,71.34,74.27,106.55c10.18,14.21,17.85,28.64,21.56,45.88
					c3.59,16.7,3.5,34.18,0.06,50.9c-3.78,18.35-11.85,35.55-24.28,49.63c-1.65,1.86-3.53,6.16-1.67,8.44
					c1.98,2.43,5.04,0.14,6.55-1.56c24.05-27.25,34.73-65.53,30.76-101.44c-1.97-17.81-7.35-35.23-16.85-50.49
					c-5.53-8.89-12.09-17.2-18.1-25.77c-6.62-9.45-13.17-18.96-19.71-28.47c-14.65-21.32-29.21-42.71-44.37-63.67
					C755.82,1172.3,748,1182.86,751.03,1187.05L751.03,1187.05z"/>
			</g>
		</g>
		<g>
			<g>
				<path d="M793.17,1167.06c27.1,31.11,59.47,58.79,81.62,93.9c22.08,34.99,29.68,78.25,24.73,119.07
					c-2.86,23.57-9.84,46.52-21.02,67.49c-1.08,2.03-2.52,6.19,0.13,7.72c2.55,1.47,5.71-1.79,6.75-3.75
					c20.86-39.13,29.12-84.42,23.12-128.39c-2.86-20.97-8.77-41.45-18.62-60.23c-9.49-18.1-22.37-34.08-36.02-49.18
					c-17.26-19.09-35.56-37.21-52.48-56.63C797.44,1152.53,789.82,1163.21,793.17,1167.06L793.17,1167.06z"/>
			</g>
		</g>
	</g>
	<g>
		<g>
			<g>
				<path d="M751.03,1187.05c25.37,35.09,49.07,71.34,74.27,106.55c10.18,14.21,17.85,28.64,21.56,45.88
					c3.59,16.7,3.5,34.18,0.06,50.9c-3.78,18.35-11.85,35.55-24.28,49.63c-1.65,1.86-3.53,6.16-1.67,8.44
					c1.98,2.43,5.04,0.14,6.55-1.56c24.05-27.25,34.73-65.53,30.76-101.44c-1.97-17.81-7.35-35.23-16.85-50.49
					c-5.53-8.89-12.09-17.2-18.1-25.77c-6.62-9.45-13.17-18.96-19.71-28.47c-14.65-21.32-29.21-42.71-44.37-63.67
					C755.82,1172.3,748,1182.86,751.03,1187.05L751.03,1187.05z"/>
			</g>
		</g>
		<g>
			<g>
				<path d="M793.17,1167.06c27.1,31.11,59.47,58.79,81.62,93.9c22.08,34.99,29.68,78.25,24.73,119.07
					c-2.86,23.57-9.84,46.52-21.02,67.49c-1.08,2.03-2.52,6.19,0.13,7.72c2.55,1.47,5.71-1.79,6.75-3.75
					c20.86-39.13,29.12-84.42,23.12-128.39c-2.86-20.97-8.77-41.45-18.62-60.23c-9.49-18.1-22.37-34.08-36.02-49.18
					c-17.26-19.09-35.56-37.21-52.48-56.63C797.44,1152.53,789.82,1163.21,793.17,1167.06L793.17,1167.06z"/>
			</g>
		</g>
	</g>
	<g>
		<g>
			<g>
				<path d="M751.03,1187.05c25.37,35.09,49.07,71.34,74.27,106.55c10.18,14.21,17.85,28.64,21.56,45.88
					c3.59,16.7,3.5,34.18,0.06,50.9c-3.78,18.35-11.85,35.55-24.28,49.63c-1.65,1.86-3.53,6.16-1.67,8.44
					c1.98,2.43,5.04,0.14,6.55-1.56c24.05-27.25,34.73-65.53,30.76-101.44c-1.97-17.81-7.35-35.23-16.85-50.49
					c-5.53-8.89-12.09-17.2-18.1-25.77c-6.62-9.45-13.17-18.96-19.71-28.47c-14.65-21.32-29.21-42.71-44.37-63.67
					C755.82,1172.3,748,1182.86,751.03,1187.05L751.03,1187.05z"/>
			</g>
		</g>
		<g>
			<g>
				<path d="M793.17,1167.06c27.1,31.11,59.47,58.79,81.62,93.9c22.08,34.99,29.68,78.25,24.73,119.07
					c-2.86,23.57-9.84,46.52-21.02,67.49c-1.08,2.03-2.52,6.19,0.13,7.72c2.55,1.47,5.71-1.79,6.75-3.75
					c20.86-39.13,29.12-84.42,23.12-128.39c-2.86-20.97-8.77-41.45-18.62-60.23c-9.49-18.1-22.37-34.08-36.02-49.18
					c-17.26-19.09-35.56-37.21-52.48-56.63C797.44,1152.53,789.82,1163.21,793.17,1167.06L793.17,1167.06z"/>
			</g>
		</g>
	</g>
	<g>
		<g>
			<g>
				<path d="M751.03,1187.05c25.37,35.09,49.07,71.34,74.27,106.55c10.18,14.21,17.85,28.64,21.56,45.88
					c3.59,16.7,3.5,34.18,0.06,50.9c-3.78,18.35-11.85,35.55-24.28,49.63c-1.65,1.86-3.53,6.16-1.67,8.44
					c1.98,2.43,5.04,0.14,6.55-1.56c24.05-27.25,34.73-65.53,30.76-101.44c-1.97-17.81-7.35-35.23-16.85-50.49
					c-5.53-8.89-12.09-17.2-18.1-25.77c-6.62-9.45-13.17-18.96-19.71-28.47c-14.65-21.32-29.21-42.71-44.37-63.67
					C755.82,1172.3,748,1182.86,751.03,1187.05L751.03,1187.05z"/>
			</g>
		</g>
		<g>
			<g>
				<path d="M793.17,1167.06c27.1,31.11,59.47,58.79,81.62,93.9c22.08,34.99,29.68,78.25,24.73,119.07
					c-2.86,23.57-9.84,46.52-21.02,67.49c-1.08,2.03-2.52,6.19,0.13,7.72c2.55,1.47,5.71-1.79,6.75-3.75
					c20.86-39.13,29.12-84.42,23.12-128.39c-2.86-20.97-8.77-41.45-18.62-60.23c-9.49-18.1-22.37-34.08-36.02-49.18
					c-17.26-19.09-35.56-37.21-52.48-56.63C797.44,1152.53,789.82,1163.21,793.17,1167.06L793.17,1167.06z"/>
			</g>
		</g>
	</g>
	<g>
		<g>
			<g>
				<path d="M1302.86,1199.71c-24.93,33.32-48.57,67.6-73.15,101.18c-19.47,26.6-25.35,61.3-17.99,93.23
					c4.07,17.68,12.4,34.41,24.65,47.84c3.71,4.07,10.63-5.71,7.5-9.14c-20.8-22.8-29.93-55.11-25.46-85.55
					c2.15-14.61,7.37-28.74,16.17-40.66c11.56-15.66,22.95-31.44,34.23-47.3c12.7-17.87,25.37-35.76,38.5-53.31
					c1.38-1.84,3.3-5.52,1.52-7.71C1307.11,1196.16,1304.11,1198.03,1302.86,1199.71L1302.86,1199.71z"/>
			</g>
		</g>
		<g>
			<g>
				<path d="M1263.71,1181.77c-26.6,29.48-58.45,55.51-79.34,89.69c-20.3,33.22-26.99,74.12-21.81,112.44
					c3.02,22.32,10.1,43.76,20.98,63.49c2.46,4.46,9.79-4.98,7.5-9.14c-18.38-33.33-25.39-72.73-19.33-110.34
					c2.88-17.9,8.54-35.22,17.77-50.87c8.81-14.92,20.31-28.05,32.19-40.58c15.39-16.24,31.49-31.78,46.49-48.4
					C1272.35,1183.41,1269.1,1175.81,1263.71,1181.77L1263.71,1181.77z"/>
			</g>
		</g>
	</g>
</g>
<g id="Ebene_24_Kopie_3">
	<g>
		<g>
			<path d="M1480.42,1405.21c-11.78-69.89-54.65-130.44-109.33-174.03c-62.12-49.51-139.23-75.52-216.68-89
				c-41.49-7.22-83.53-11.13-125.57-13.34c-41.62-2.19-83.42-2.26-124.91,2.07c-40.74,4.26-81.09,13.04-119.09,28.52
				c-35.07,14.29-67.39,34.38-96.68,58.31c-58.61,47.9-104.47,109.22-147.74,170.75c-5.41,7.69-10.79,15.41-16.16,23.13
				c-1.42,2.04-4.24,8.13,0.15,8.87c123.12,20.79,247.62,33.26,372.42,37.28c124.52,4.02,249.29-0.37,373.22-13.02
				c70.15-7.16,140.02-17.03,209.41-29.52c4.55-0.82,8.36-12.25,2.1-11.12c-123.17,22.18-247.81,36-372.85,41.3
				c-124.1,5.26-248.56,2.21-372.26-9.15c-69.58-6.39-138.9-15.44-207.79-27.08c0.05,2.96,0.1,5.91,0.15,8.87
				c42.32-60.84,85.44-122.4,140.17-172.9c26.96-24.88,56.68-46.75,89.43-63.4c36.12-18.36,75.4-29.68,115.32-36.03
				c40.41-6.42,81.48-7.8,122.33-6.7c41.1,1.1,82.29,4.19,123.04,9.71c78.48,10.62,157.65,31.97,223.81,76.99
				c56.94,38.74,104.66,94.94,123.42,162.12c2.28,8.15,4.09,16.42,5.49,24.76c0.5,2.94,3.97,1.86,5.5,0.62
				C1479.66,1411.34,1480.91,1408.12,1480.42,1405.21L1480.42,1405.21z"/>
		</g>
	</g>
	<g>
		<g>
			<path d="M976.32,1283.12c19.22-20.42,35.06-43.8,54.28-64.22c-2.18,0.52-4.36,1.04-6.55,1.56c15.76,18.4,31.53,36.8,47.29,55.21
				c3.9,4.55,11.54-6.12,8.22-10.01c-15.76-18.4-31.53-36.8-47.29-55.21c-2.05-2.4-4.95-0.14-6.55,1.56
				c-19.22,20.42-35.06,43.8-54.28,64.22c-1.7,1.8-3.5,6.2-1.67,8.44C971.79,1287.16,974.77,1284.77,976.32,1283.12L976.32,1283.12z
				"/>
		</g>
	</g>
	<g>
		<g>
			<path d="M1075.55,1276.13c48.36-21.74,92.57-59.39,120.29-104.71c0.99-1.62,2.62-6.66-0.13-7.72
				c-18.69-7.23-37.37-14.47-56.06-21.7c-5.19-2.01-11.44,9.61-6.62,11.47c18.69,7.23,37.37,14.47,56.06,21.7
				c-0.04-2.57-0.09-5.15-0.13-7.72c-26.06,42.61-68.24,77.38-113.59,97.77C1070.71,1267.3,1068.37,1279.36,1075.55,1276.13
				L1075.55,1276.13z"/>
		</g>
	</g>
	<g>
		<g>
			<path d="M923.01,1133.85c-18.08,6.7-36.16,13.4-54.24,20.1c-3.45,1.28-7.04,6.02-5.72,9.91
				c17.67,52.04,55.29,96.57,104.37,121.56c4.89,2.49,11.4-9.04,6.62-11.47c-47.71-24.3-84.6-67.33-101.8-117.99
				c-1.91,3.3-3.81,6.6-5.72,9.91c18.08-6.7,36.16-13.4,54.24-20.1c2.98-1.1,5.23-3.99,5.77-7.14
				C926.88,1136.55,926.05,1132.72,923.01,1133.85L923.01,1133.85z"/>
		</g>
	</g>
</g>
<g id="Ebene_4">
	<g>
		<path class="st7" d="M1400.78,600.31c0,31.57-19.64,63.98-56.08,66.58c-233.72,16.64-374.96,56.99-616.28,8.62
			c-33.28-6.67-50.75-44.94-50.27-74.44c0.82-50.36-3.33-47.12,0-77.68c12.14-111.35,7.31-167.89,53.66-269.19
			c44.44-97.13,157.65-179.16,278.6-179.16c201.93,0,403.99,85.86,390.38,423.53"/>
		<g>
			<path d="M1396.73,602.55c-0.14,16.26-5.52,33-17.29,44.61c-14.77,14.56-33.98,14.6-53.42,16.13
				c-44.21,3.47-88.32,8.02-132.41,12.75c-80.03,8.6-160.17,17.51-240.78,17.33c-42.74-0.1-85.46-2.68-127.9-7.76
				c-23.91-2.86-47.73-6.5-71.42-10.81c-10.58-1.92-22.19-2.96-32.15-7.21c-7.46-3.18-14.04-8.13-19.4-14.19
				c-10.94-12.37-17.62-28.77-19.34-45.14c-0.98-9.33-0.26-18.83-0.35-28.2c-0.07-7.07-0.29-14.14-0.67-21.2
				c-1.63-30.38,3.04-60.37,5.67-90.61c3.2-36.73,5.94-73.63,13.29-109.82c7.83-38.53,20.84-76.8,38.65-111.87
				c34.42-67.77,97.8-120.81,168.54-147.44c35.88-13.51,73.2-19.45,111.46-18.86c26.17,0.4,52.34,2.29,78.24,6.1
				c50.31,7.41,99.94,22.3,143.85,48.37c45.29,26.9,82.24,65.38,107.56,111.56c32.29,58.89,45.09,126.71,47.89,193.24
				c0.86,20.42,0.76,40.86-0.04,61.28c-0.1,2.51,2.12,3.37,4.13,2.38c2.43-1.19,3.87-4.31,3.97-6.88
				c2.92-74.45-3.36-151.38-31.36-221.1c-20.9-52.04-54.26-98.18-99.25-131.97c-41.78-31.37-91.29-50.85-142.15-61.66
				c-26.28-5.59-53.02-8.92-79.83-10.52c-33.76-2.02-67.5-1.77-100.69,5.5C874.27,93.5,802.93,141.16,756.7,205.25
				c-23.63,32.76-39.81,70.48-51.97,108.85c-11.25,35.5-17.32,72.04-21.06,109.02c-2,19.73-3.56,39.49-5.33,59.24
				c-1.73,19.33-4.63,38.69-5.43,58.08c-0.43,10.35,0.6,20.68,0.98,31.02c0.65,17.74-1.42,35.91,2.65,53.34
				c3.79,16.23,11.9,31.92,24.47,43.05c15.86,14.04,38.13,15.43,58.13,18.9c45.75,7.96,91.95,13.31,138.34,15.58
				c82.85,4.05,165.44-2.58,247.78-11.23c43.65-4.59,87.25-9.51,130.95-13.59c12.24-1.14,24.48-2.22,36.74-3.22
				c11.66-0.95,23.56-1.19,35.15-2.83c17.27-2.45,32.38-12.56,42.3-26.75c9.54-13.66,14.3-30.07,14.44-46.67
				c0.02-2.49-2.06-3.39-4.13-2.38C1398.34,596.84,1396.76,600,1396.73,602.55L1396.73,602.55z"/>
		</g>
	</g>
</g>
<g id="Ebene_5">
	<g>
		<path class="st8" d="M1118.57,997.45c3.8,42.04,7.6,84.07,11.4,126.11c1.37,15.15,2.58,31.22-4.11,44.81
			c-11.1,22.56-38.88,29.55-63.35,33.17c-35.94,5.33-77.79,6.77-102.77-20.14c-21.3-22.94-22.2-58.47-17.52-89.71
			c4.69-31.24,13.67-62.93,7.57-93.91c54.55,9.62,110.71,9.69,165.29,0.2"/>
		<g>
			<path class="st8" d="M1114.17,999.89c3.74,41.38,7.49,82.76,11.22,124.14c1.46,16.16,4.07,35.57-6.89,49.18
				c-9.12,11.31-24.01,16.43-37.68,19.63c-14.92,3.5-30.48,5.47-45.79,6.09c-15.31,0.62-31.3-0.27-45.81-5.59
				c-14.48-5.3-26.63-14.92-34.35-28.35c-7.82-13.61-10.37-29.72-10.54-45.22c-0.47-42.33,17.66-83.1,9.7-125.62
				c-2.11,3.08-4.23,6.15-6.34,9.23c55,9.59,111.34,9.56,166.35,0.11c4.5-0.77,8.27-12.05,2.07-10.98
				c-54.33,9.33-109.93,9.17-164.22-0.3c-4.19-0.73-6.94,6.02-6.34,9.23c7.55,40.33-9.7,79.91-10.04,120.15
				c-0.27,32.74,11.03,66.45,43.03,80.51c29.4,12.92,65.46,9.01,96.04,2.66c14.9-3.09,30.21-8.16,41.83-18.37
				c13.33-11.71,18.81-28.27,19.01-45.67c0.13-11.14-1.31-22.31-2.31-33.39c-1.13-12.48-2.26-24.96-3.39-37.44
				c-2.26-24.96-4.51-49.92-6.77-74.88C1122.32,987.79,1113.74,995.19,1114.17,999.89L1114.17,999.89z"/>
		</g>
	</g>
</g>
<g id="Ebene_3">
	<g>
		<path class="st8" d="M1366.45,504.06c38.73-14.23,85.71-0.22,110.86,33.05c25.15,33.27,26.5,83.23,3.2,117.87
			c-23.3,34.64-69.45,51.29-108.89,39.27c-23.91,64.41-54.2,127.1-97.19,180.18c-42.99,53.09-99.52,96.29-164.47,114.9
			c-90.59,25.96-220.74-1.36-276.02-45c-55.93-44.16-133-249.49-133-249.49s-88.35,1.97-112.67-31.84s-22.65-102.36,5.22-133.17
			c20.25-22.39,66.5-28.9,115.42-23.46c17.31-41.29,23.16-74.63,25.38-115.11c267.66-306.71,577.8-11.87,577.8-11.87
			s3.25,106.5,51.78,126.02"/>
		<g>
			<path class="st8" d="M1365.41,509.55c44.28-15.86,96.75,4.92,117.42,47.36c10.36,21.27,12.62,46.52,6.64,69.36
				c-5.96,22.77-20.95,41.73-41.33,53.37c-22.49,12.85-49.55,16.39-74.43,9.03c-2.58-0.76-5.31,3.45-5.97,5.23
				c-30,80.61-70.44,160.1-134.56,219.03c-29.81,27.4-64.31,50.22-102.37,64.39c-35.13,13.09-72.37,17.5-109.71,16.36
				c-37.3-1.14-74.77-7.25-110.37-18.5c-15.88-5.01-31.48-11.12-46.28-18.77c-11.18-5.78-22.46-12.42-31.75-21
				c-16.73-15.47-29.18-35.91-40.61-55.39c-14.51-24.72-27.33-50.43-39.44-76.4c-16.91-36.24-32.55-73.16-46.77-110.53
				c-0.24-0.63-0.48-1.26-0.71-1.88c-0.33-0.87-1.03-1.97-2.14-1.94c-12.95,0.28-26.02-0.62-38.86-2.13
				c-21.35-2.51-45.01-6.66-62.8-19.57c-20.12-14.6-25.45-44.68-25.74-67.89c-0.3-24.17,4.8-54.96,24.87-71.04
				c12.54-10.05,29.43-14.2,45-16.48c20.27-2.98,40.99-2.39,61.3-0.2c2.83,0.31,5.07-3.05,5.97-5.23
				c15.77-37.88,23.61-77.04,25.91-117.91c-0.72,1.87-1.44,3.74-2.15,5.62c53.48-61.08,121.22-111.07,201.45-129.28
				c60.65-13.76,124.09-8.26,183.03,10.61c47.8,15.3,92.93,38.62,134.3,66.91c13.35,9.13,26.34,18.79,38.81,29.07
				c3.62,2.98,7.2,6.02,10.71,9.13c0.99,0.88,1.98,1.76,2.95,2.66c-1.34-1.22,0.45,0.17,0.48,0.45c-0.53-4.95-0.51-0.11-0.45,0.99
				c0.18,3.27,0.43,6.55,0.73,9.81c1.03,11.29,2.59,22.56,4.77,33.68c4.96,25.33,13.04,54.26,32.56,72.44
				c4.42,4.11,9.33,7.48,14.92,9.8c4.73,1.96,10.55-8.73,6.11-10.58c-27.23-11.29-37.71-45.42-43.58-71.65
				c-2.75-12.29-4.66-24.76-5.85-37.3c-0.35-3.69-0.64-7.39-0.85-11.1c-0.09-1.65,0.11-3.87-0.77-5.31c-1.03-1.69-3.52-3.24-5-4.55
				c-3.99-3.54-8.07-6.97-12.2-10.34c-14.46-11.81-29.58-22.82-45.16-33.1c-47.55-31.38-99.96-56.24-155.42-69.82
				c-68.55-16.79-140.93-14.01-206.71,12.47c-40.47,16.29-77.36,40.29-110.1,69.01c-9.42,8.27-18.5,16.93-27.27,25.9
				c-4.54,4.64-9,9.34-13.37,14.13c-4.05,4.43-9.94,9.01-10.75,15.24c-1.64,12.56-1.81,25.28-3.68,37.85
				c-1.82,12.19-4.33,24.28-7.64,36.15c-3.65,13.05-8.32,25.8-13.52,38.3c1.99-1.74,3.98-3.48,5.97-5.23
				c-33.54-3.63-72.92-4.16-103.29,12.88c-25.33,14.22-36.68,43.59-39.84,71.2c-3.15,27.5-0.18,60.18,16.86,83.11
				c13.7,18.44,40.14,24.7,61.53,28.36c17.25,2.95,35.05,4.47,52.56,4.09c-0.71-0.65-1.42-1.3-2.14-1.94
				c12.36,32.91,26.1,65.36,40.58,97.38c12.1,26.74,24.84,53.23,39.03,78.93c12.13,21.96,25.17,44.27,42.09,62.95
				c18.05,19.94,43.28,32.27,68.06,41.7c34.9,13.28,72.02,21.09,109.2,24.19c37.24,3.11,75.78,1.68,111.94-8.43
				c39.32-10.99,75.7-31.09,107.61-56.37c69.08-54.73,115.02-132.51,148.1-213.01c4.24-10.33,8.29-20.74,12.18-31.21
				c-1.99,1.74-3.98,3.48-5.97,5.23c49.58,14.66,104.08-13.81,123.63-60.88c20.23-48.71,2.97-108.93-44.72-133.99
				c-24.72-12.99-54.53-15.86-80.94-6.4c-2.75,0.99-4.83,3.7-5.32,6.58C1361.84,507.09,1362.61,510.56,1365.41,509.55
				L1365.41,509.55z"/>
		</g>
	</g>
</g>
<g id="Ebene_2">
	<g>
		<g>
			<path d="M1360.38,509.42c43.56-19.33,98.21-1,121.66,40.28c11.93,20.99,15.82,46.57,11.12,70.21
				c-4.55,22.9-17.93,42.86-37.26,55.94c-21.94,14.84-49.33,20.53-75.24,14.73c-4.54-1.02-9.66,9.95-4.2,11.17
				c51.46,11.54,105.96-21.5,121.93-71.25c16.22-50.51-4.87-109.39-54.87-131.09c-26.52-11.51-56.84-11.81-83.31-0.07
				C1355.9,501.26,1353.74,512.37,1360.38,509.42L1360.38,509.42z"/>
		</g>
	</g>
	<g>
		<g>
			<path d="M712.13,500.91c-27.77-3.07-56.91-6.2-83.96,2.83c-23.47,7.84-42.75,23.92-52.17,47.09c-9.53,23.44-10.47,52-6.83,76.8
				c3.7,25.2,15.94,47.22,38.37,60.19c27.64,15.98,60.41,15.36,91.29,14.37c4.75-0.15,9.35-11.34,4.2-11.17
				c-25.8,0.82-52.87,1.8-77.3-7.95c-22.04-8.79-38.46-25.29-45.04-48.32c-6.31-22.08-6.02-47.91-0.98-70.23
				c5.2-23.05,20.16-39.66,42.07-48.25c27.43-10.75,57.62-7.35,86.15-4.2C712.63,512.6,717.54,501.5,712.13,500.91L712.13,500.91z"
				/>
		</g>
	</g>
	<g>
		<g>
			<path d="M1374.69,695.81c-19.37,61.55-49.89,119.85-90.76,169.88c-39.94,48.9-90.64,90.43-149.95,113.3
				c-57.47,22.16-121.37,27.77-181.67,14.85c-30.14-6.45-59.24-17.7-85.6-33.72c-27.39-16.64-51.14-38.47-71.23-63.37
				c-42.09-52.18-67.39-115.83-84.41-180.1c-2.08-7.87-4.04-15.77-5.9-23.7c-0.66-2.83-3.81-1.92-5.44-0.61
				c-2.17,1.75-3.69,5.11-3.04,7.89c15.57,66.32,38.64,132.54,78.25,188.58c19.05,26.95,42.06,51.47,68.9,70.79
				c25.42,18.29,54.06,31.65,84.11,40.35c60.47,17.49,126.42,15.39,186.25-3.74c61.88-19.79,115.56-58.49,158.91-106.36
				c44.48-49.11,78.63-107.8,101.38-169.93c2.83-7.74,5.47-15.54,7.94-23.4C1384.86,688.82,1376.59,689.75,1374.69,695.81
				L1374.69,695.81z"/>
		</g>
	</g>
	<g>
		<g>
			<path d="M1364.08,499.77c-10.84-11.05-17.79-25.7-23.58-39.86c-6.51-15.94-11.62-32.45-16.04-49.08
				c-2.83-10.65-5.4-21.39-7.58-32.19c-0.51-2.54-0.79-3.66-2.63-5.36c-22.93-21.21-48.51-39.81-74.82-56.56
				c-48.24-30.72-101.22-55.06-157.21-67.53c-67.04-14.93-136.92-10.37-200.2,17.08c-38.5,16.7-73.38,41.1-103.99,69.66
				c-8.82,8.22-17.3,16.81-25.49,25.66c-4.32,4.67-8.55,9.41-12.69,14.24c-3.87,4.5-9.86,9.58-11.94,15.18
				c-1.09,2.95-0.77,6.64-1,9.74c-0.23,3.06-0.49,6.12-0.78,9.18c-0.63,6.54-1.4,13.06-2.3,19.56c-1.83,13.14-4.21,26.21-7.3,39.11
				c-3.04,12.71-6.84,25.2-11.51,37.41c-0.76,1.99-1,5.5,1.77,5.95c2.73,0.44,5.17-3.14,5.97-5.23
				c14.36-37.56,20.92-77.81,23.42-117.81c-0.72,1.87-1.44,3.74-2.15,5.62c49.45-60.83,112.79-112.04,189.6-132.61
				c58.77-15.74,120.62-12.13,178.73,4.66c48.96,14.15,95.25,37.22,137.78,65.11c23.39,15.34,46.09,32.16,66.78,51.03
				c0.75,0.68-0.79-0.31,0.36,0.34c0.28,0.16,0.5,0.49,0.75,0.7c0.35,0.31-0.16-1.51,0.04,0.49c0.8,8.21,3.57,16.71,5.55,24.68
				c7.18,28.9,15.82,58.97,31.28,84.67c3.32,5.52,7.08,10.79,11.6,15.39C1360.43,513,1367.34,503.09,1364.08,499.77L1364.08,499.77z
				"/>
		</g>
	</g>
	<g>
		<g>
			<path d="M1116.43,998.74c3.69,38.64,7.38,77.28,11.06,115.92c1.58,16.55,6.15,36.81-1.92,52.33
				c-6.93,13.32-21.16,21.55-34.49,27.29c-31.62,13.59-68.99,16.04-101.47,3.94c-13.68-5.09-26.82-12.91-36.53-23.94
				c-11.28-12.82-15.77-28.47-15.68-45.37c0.11-21.02,4.19-42.24,6.81-63.05c2.75-21.78,5.49-43.55,8.24-65.33
				c1-7.93-7.9-3.08-8.56,2.17c-2.62,20.8-5.25,41.6-7.87,62.41c-2.53,20.08-5.86,40.25-7.13,60.45
				c-1.11,17.81,1.06,35.92,11.25,51.01c8.72,12.92,21.82,22.65,35.87,29.11c33.01,15.19,72.17,14.63,105.98,2.35
				c15.46-5.62,30.48-13.44,41.68-25.74c12.23-13.43,15.82-30.43,14.81-48.16c-1.32-23.2-4.29-46.41-6.5-69.54
				c-2.25-23.58-4.5-47.15-6.75-70.73C1124.54,986.63,1115.98,994.03,1116.43,998.74L1116.43,998.74z"/>
		</g>
	</g>
	<g>
		<g>
			<path d="M937.51,831.55c17.2-27.74,41.13-53.25,73.46-62.33c28.63-8.04,58.62-1.8,84.9,10.88c17.48,8.43,33.55,19.52,48.51,31.84
				c4.87,4.01,13.5-9.76,8.17-14.14c-26.61-21.91-57.8-40.7-92.4-45.89c-31.52-4.73-62.28,4.36-87.32,23.78
				c-17.84,13.83-31.98,31.9-43.81,50.98c-1.52,2.46-2.96,7.63,0.16,9.52C932.4,838.12,936.1,833.82,937.51,831.55L937.51,831.55z"
				/>
		</g>
	</g>
	<g>
		<g>
			<path d="M1051.62,592.96c-10.61-8.73-25.69-9.73-37.9-3.81c-12.45,6.03-20.1,19.3-21.26,32.81c-1.12,13.13,4.11,26.45,15.61,33.5
				c11.3,6.94,26.02,6.78,37.23-0.2c2.42-1.51,4.47-4.53,4.32-7.48c-0.13-2.48-2.16-4.04-4.49-2.59
				c-18.7,11.64-43.8-2.07-44.04-24.05c-0.26-23.74,27.85-31.24,44.42-17.61C1049.16,606.53,1055.61,596.24,1051.62,592.96
				L1051.62,592.96z"/>
		</g>
	</g>
	<g>
		<path d="M1103.54,504.73c1.7-7.88-0.26-16.03-1.74-23.95c-1.48-7.92-2.41-16.51,1.11-23.73c3.52-7.22,13.14-11.82,19.66-7.27
			c6.9,4.82,5.91,15.18,6.44,23.7c0.42,6.78,2.3,13.37,3.29,20.08c1,6.72,1.05,13.89-1.96,19.95c-3,6.06-9.76,10.58-16.25,9.09
			c-6.49-1.49-10.66-10.43-6.48-15.72"/>
		<g>
			<path d="M1107.82,503.65c1.28-7.08,0.54-13.96-0.73-20.99c-1.19-6.57-3.06-13.5-1.92-20.22c0.9-5.31,5.03-9.69,10.85-8.79
				c5.74,0.89,7.59,6.78,8.08,11.78c0.57,5.74,0.4,11.47,1.29,17.2c1.09,7,3.15,13.9,3.11,21.04c-0.04,6.12-2.28,13.24-9.52,13.63
				c-3.43,0.18-10.95-4.48-8.19-8.58c1.18-1.76,2.19-5.79-0.12-7.12c-2.49-1.44-5.08,1.76-6.23,3.46
				c-6.66,9.89-0.32,25.32,12.79,23.21c15.68-2.52,21.22-21.03,19.79-34.61c-0.87-8.29-3.36-16.32-3.71-24.67
				c-0.26-6.17-0.04-12.8-2.75-18.51c-6.11-12.89-21.61-8.09-28.6,1.22c-5.07,6.75-6.41,15.52-5.69,23.75
				c0.88,10.12,4.83,20.17,2.98,30.37c-0.42,2.32,0.49,4.89,3.25,4.4C1105.25,509.74,1107.37,506.13,1107.82,503.65L1107.82,503.65z
				"/>
		</g>
	</g>
	<g>
		<path d="M948.47,491.59c-3.45-7.71-6.99-15.91-6.04-24.33c0.95-8.42,8.28-16.7,16.46-15.25c8.88,1.58,12.59,12.42,13.75,21.55
			c1.24,9.77,1.56,19.67,0.94,29.5c-0.44,7.04-2.39,15.42-8.93,17.69c-5.75,2-12.12-2.34-14.68-7.96c-2.56-5.62-2.3-12.1-1.98-18.29
			"/>
		<g>
			<path d="M952.71,487.94c-3.2-7.18-12.66-28.02,1.15-30.41c10.45-1.81,13.76,13.02,14.61,20.42c0.75,6.52,1.08,13.1,1,19.67
				c-0.06,4.52,0.65,12.16-2.18,16.13c-3.22,4.5-9.78,0.27-12.1-3.1c-3.7-5.34-3.1-12.45-2.8-18.61c0.13-2.73-2.32-3.65-4.49-2.59
				c-2.66,1.3-4.18,4.68-4.32,7.48c-0.54,11.12,0.99,29.85,16.28,29.89c12.99,0.03,17.41-15.95,18.12-26.21
				c0.94-13.7,1.33-30.39-4.51-43.18c-5.03-11.02-16.74-14.69-26.21-6.22c-13.53,12.1-9.52,29.44-3.03,44.02
				C946.81,501.01,954.57,492.13,952.71,487.94L952.71,487.94z"/>
		</g>
	</g>
	<g>
		<g>
			<path d="M970.82,404.83c-26.16-0.84-51.06,11.21-67.56,31.37c-1.46,1.79-3.29,5.62-1.54,7.78c1.78,2.2,4.71,0.18,6.04-1.44
				c14.31-17.49,36.31-27.27,58.86-26.55C971.37,416.16,976.11,405,970.82,404.83L970.82,404.83z"/>
		</g>
	</g>
	<g>
		<g>
			<path d="M1169.03,433.97c-16.66-19.44-42.38-28.87-67.64-24.56c-4.5,0.77-8.28,12.04-2.07,10.98
				c23.03-3.92,46.99,5.14,62.13,22.81C1165.05,447.39,1172.1,437.55,1169.03,433.97L1169.03,433.97z"/>
		</g>
	</g>
	<g>
		<g>
			<path d="M679.18,530.24c-37.68,5.78-66.3,40.25-69.59,77.42c-0.24,2.75,2.39,3.62,4.49,2.59c2.74-1.34,4.07-4.65,4.32-7.48
				c2.75-31.03,28.23-56.87,58.72-61.55C681.62,540.53,685.43,529.28,679.18,530.24L679.18,530.24z"/>
		</g>
	</g>
	<g>
		<g>
			<path d="M1398.68,531.02c34.87,4.7,62.83,40.03,59.12,75.15c-0.84,7.94,8,3.11,8.56-2.17c4.12-39.02-23.67-78.78-63.48-84.15
				C1398.21,519.22,1393.25,530.29,1398.68,531.02L1398.68,531.02z"/>
		</g>
	</g>
</g>
<g id="Ebene_8">
	<ellipse class="st9" cx="1111.26" cy="463.98" rx="5.44" ry="5.55"/>
	<ellipse class="st9" cx="952.84" cy="468.75" rx="5.24" ry="5.35"/>
</g>
<g id="Ebene_30">
	<g>
		<path class="st7" d="M1349.81,394.29c-28.03-96.75-62.71-173.48-130.77-244.21S1058.43,32.35,963.31,33.99
			S772.55,90.58,729.21,180.7c-20.11,41.81-18.48,94.58,4.17,134.89s68.19,83.13,109.67,67.76c155.78-57.7,334.7-53.01,505.57,10.79
			"/>
		<g>
			<path d="M1354.97,389.85c-14.81-50.99-32.87-101.3-58.83-147.78c-25.9-46.39-59.69-88.56-99.71-123.54
				c-41.19-36-89.58-63.97-142.24-79.24c-49.35-14.32-101.97-16.38-151.83-3.38c-47.64,12.42-92.27,37.55-127,72.52
				c-36.69,36.94-65.51,85.06-65.54,138.41c-0.01,26.91,6.82,53.7,20.41,76.96c12.98,22.21,30.88,43.03,52.83,56.78
				c9.88,6.19,21.03,10.93,32.67,12.37c12.93,1.59,23.93-2.23,35.93-6.45c27.83-9.78,56.35-17.58,85.26-23.42
				c59.01-11.93,119.52-15.57,179.58-11.84c62.25,3.87,123.96,15.59,183.52,34.03c15.1,4.68,30.06,9.83,44.87,15.34
				c5.87,2.19,12.86-10.88,7.45-12.9c-112.85-41.99-234.49-60.5-354.51-47.14c-28.6,3.18-57,8.19-84.95,15.06
				c-13.61,3.35-27.1,7.14-40.46,11.38c-6.67,2.12-13.3,4.34-19.9,6.68c-6.22,2.2-12.3,4.77-18.88,5.68
				c-23.85,3.26-46.94-11.83-63.37-27.53c-18.41-17.6-33.91-39.8-42.09-64.03c-8.46-25.05-9.93-52.32-4.19-78.13
				c5.36-24.07,18.12-46.38,32.84-65.95c28.73-38.21,68.69-67.6,113.23-84.81c46.46-17.95,96.52-22.3,145.53-13.75
				c52.58,9.17,102.1,32.31,145.08,63.65c42.6,31.06,79.06,70.64,108.05,114.6c27.97,42.41,48.22,89.14,64.14,137.26
				c4.17,12.61,8.06,25.32,11.77,38.08C1346.74,405.96,1356.53,395.22,1354.97,389.85L1354.97,389.85z"/>
		</g>
	</g>
</g>
<g id="Ebene_14">
	<g class="st10">
		<path d="M601.49,522.58c-29.55,33.5-34.73,86.97-12.18,125.73c22.54,38.76,71.01,59.7,113.95,49.25
			c-35.29-11.51-65.97-37.13-84.02-70.16c-18.05-33.03-23.29-73.14-14.35-109.85"/>
		<g>
			<path d="M599.05,519.14c-24.54,28.25-33.84,68.35-25.49,104.69c8.2,35.7,35.13,64.5,69.64,76.35
				c19.01,6.53,39.31,7.95,58.92,3.33c3.01-0.71,9.39-10.04,4.43-11.69c-54.29-18.03-94.08-67.08-100.26-124.04
				c-1.87-17.25-0.78-34.55,3.22-51.42c0.6-2.52-0.63-5.29-3.52-4.78c-3.1,0.55-5.13,4.44-5.77,7.14
				c-14.29,60.2,7.58,124.96,57.24,162.33c12.86,9.68,27.2,17.17,42.46,22.24c1.48-3.9,2.96-7.79,4.43-11.69
				c-32.02,7.54-66.5-2.38-91.02-23.98c-25.67-22.61-37.1-57.57-32.14-91.16c2.76-18.65,10.31-36.18,22.71-50.44
				c1.63-1.88,3.54-6.15,1.67-8.44C603.63,515.16,600.54,517.43,599.05,519.14L599.05,519.14z"/>
		</g>
	</g>
	<g class="st10">
		<path d="M712.23,301.49c-22.42,59.94-33.1,124.44-31.22,188.58c0.25,8.39,8.21,15.71,16.41,15.08c8.2-0.63,15-9.08,14.01-17.41
			c-7.31-61.89-4.79-124.98,7.43-186.05"/>
		<g>
			<path d="M708.03,301.1c-20.99,56.42-31.95,116.46-32.01,176.68c-0.01,12.16-1.27,27.4,12.73,32.43
				c11.3,4.06,22.24-5.03,26.03-15.27c2.16-5.85,1.2-11.49,0.57-17.51c-0.87-8.31-1.57-16.63-2.08-24.97
				c-0.96-15.39-1.31-30.82-1.07-46.24c0.56-35.51,4.4-70.87,11.31-105.7c0.5-2.52-0.57-5.3-3.52-4.78
				c-3.02,0.53-5.23,4.44-5.77,7.14c-10.85,54.68-14.22,110.85-9.67,166.43c0.55,6.73,1.33,13.42,2,20.14
				c0.54,5.48-2.24,9.68-8.21,9.69c-4.75,0.01-9.27-3.33-11.38-7.46c-2.76-5.39-1.39-14.26-1.37-20.13
				c0.08-27.24,2.44-54.43,7.03-81.27c5.16-30.15,13.15-59.72,23.82-88.38c0.81-2.17,1.09-5.97-1.92-6.45
				C711.56,294.96,708.87,298.83,708.03,301.1L708.03,301.1z"/>
		</g>
	</g>
	<g class="st10">
		<path d="M727.84,183.91c-18.51,51.01-6.1,112.29,30.7,151.62c36.8,39.33,96.2,54.78,146.94,38.21
			c142.21-46.41,299.87-41.75,439.21,12.98c-49.21-54.39-120.5-82.38-191.37-98.11c-70.87-15.73-143.79-21-214.07-39.25
			s-140.13-51.75-183.49-111.11"/>
		<g>
			<path d="M723.64,183.52c-15.53,43.55-10.74,93.33,12.9,133.11c23.6,39.71,66.39,65.23,112.22,69.21
				c11.27,0.98,22.66,0.61,33.84-1.04c12.19-1.8,23.66-5.84,35.41-9.38c26.22-7.9,52.94-14.1,79.95-18.59
				c54.19-9.01,109.5-11.03,164.22-6.21c61.35,5.4,121.84,19.41,179.21,41.85c4.51,1.76,10.72-7.12,7.42-10.74
				c-56.64-62.17-139.22-89.35-219.63-104.57c-88.83-16.82-181.56-22.1-264.48-61.21c-40.75-19.22-77.94-46.16-104.82-82.68
				c-3.48-4.73-11.28,5.84-8.22,10.01c48.76,66.26,127.94,99.57,205.91,117.15c89.27,20.12,182.68,23.19,268.7,56.59
				c42.81,16.63,83.19,40.56,114.32,74.73c2.47-3.58,4.95-7.16,7.42-10.74c-99.57-38.95-208.03-52.78-314.23-40.76
				c-26.6,3.01-53.02,7.65-79.05,13.93c-13.03,3.14-25.95,6.69-38.75,10.65c-11.29,3.49-22.31,7-34.09,8.48
				c-44.83,5.61-92.46-12.03-122.25-46.09c-33.48-38.27-44.71-94.93-27.6-142.9c0.78-2.18,1.12-5.96-1.92-6.45
				C727.2,177.38,724.45,181.25,723.64,183.52L723.64,183.52z"/>
		</g>
	</g>
	<g class="st10">
		<path d="M1331.75,401.13c9.73,35.65,33.43,67.11,64.69,85.86c-11.15,11.55-31.13,9.74-43.4-0.57s-18.04-26.71-20.45-42.74
			c-2.41-16.03-2.04-32.42-4.78-48.39"/>
		<g>
			<path d="M1327.15,405.08c10.11,36.27,33.74,68.06,65.97,87.65c0.67-3.45,1.34-6.9,2.01-10.35c-7.01,6.87-17.36,7.82-26.48,5.03
				c-10.58-3.23-18.3-11.46-23.38-21.01c-12.14-22.8-8.82-50.34-12.87-75.06c-0.52-3.16-4.26-1.98-5.9-0.66
				c-2.49,2.01-3.81,5.44-3.3,8.56c4.52,27.54,0.53,58.18,17.03,82.47c12.61,18.55,39.93,27.11,57.5,9.9
				c2.05-2.01,5.8-8.05,2.01-10.35c-30.96-18.81-53.68-49.22-63.4-84.07C1334.55,390.76,1325.81,400.3,1327.15,405.08
				L1327.15,405.08z"/>
		</g>
	</g>
	<g class="st10">
		<path d="M702.69,703.72c33.22,107.5,116.69,197.55,219.99,237.34s224.22,28.47,318.71-29.84
			c-79.55,78.97-202.59,108.85-308.44,74.88S742.9,855.78,721.89,744.54"/>
		<g>
			<path d="M698.09,707.67c24.9,79.96,76.93,150.71,145.55,198.68c73.21,51.19,163.49,72.34,251.98,61.29
				c51.52-6.44,101.6-23.79,145.86-50.96c-0.46-3.36-0.93-6.71-1.39-10.07c-62.98,62.19-153.24,93.79-241.28,86.14
				c-85.51-7.42-162.96-53.97-214.25-122.14c-28.86-38.36-49.04-82.85-58.07-130.03c-0.6-3.12-4.21-2.02-5.9-0.66
				c-2.43,1.97-3.89,5.48-3.3,8.56c16.35,85.43,69.27,162.68,142.18,209.91c75.07,48.63,168.69,59.73,253.95,33.79
				c48.39-14.72,93.23-40.78,129.26-76.35c1.98-1.96,3.96-4.96,3.39-7.91c-0.47-2.38-2.49-3.56-4.78-2.16
				c-77.2,47.38-171.79,63.51-260.48,45.51c-82.28-16.71-156.05-64.15-208.36-129.44c-29.05-36.26-51.35-77.68-65.16-122.06
				C705.29,693.34,696.61,702.91,698.09,707.67L698.09,707.67z"/>
		</g>
	</g>
	<g class="st10">
		<path d="M944.69,1099.87c64.47-23.47,125.2-57.64,179.08-100.75c-58.18,9.4-117.29,12.8-176.13,10.13
			c-2.32,30.06-4.65,60.12-6.97,90.17"/>
		<g>
			<path d="M943.57,1105.82c65.6-23.99,126.91-58.54,181.5-102.09c2.56-2.04,6.2-11.59-0.18-10.57
				c-57.83,9.28-116.46,12.61-174.98,10.02c-4.3-0.19-6.78,5.17-7.05,8.71c-2.32,30.06-4.65,60.12-6.97,90.17
				c-0.23,2.98,2.57,3.93,4.87,2.81c2.95-1.44,4.45-5.05,4.68-8.11c2.32-30.06,4.65-60.12,6.97-90.17c-2.35,2.9-4.7,5.81-7.05,8.71
				c59.27,2.62,118.71-0.84,177.29-10.23c-0.06-3.52-0.12-7.04-0.18-10.57c-53.08,42.35-112.88,76.08-176.66,99.4
				c-2.98,1.09-5.23,4-5.77,7.14C939.7,1103.13,940.53,1106.93,943.57,1105.82L943.57,1105.82z"/>
		</g>
	</g>
	<g class="st10">
		<path d="M603.4,1316.32c62.55,69.41,149.91,114.99,241.66,126.08c-103.29,11.56-205.53-28.82-309.42-30.87
			c22.35-31.51,44.69-63.03,67.04-94.54"/>
		<g>
			<path d="M599.29,1321.33c49.11,54.26,112.86,94.22,183.11,114.72c19.76,5.77,39.95,9.9,60.37,12.41
				c1.13-4.01,2.27-8.01,3.4-12.02c-80.84,8.8-160.42-13.83-239.83-25.01c-22.69-3.19-45.51-5.46-68.43-5.96
				c0.05,3.17,0.11,6.33,0.16,9.5c22.35-31.51,44.69-63.03,67.04-94.54c1.46-2.06,3.65-6.01,1.67-8.44
				c-1.86-2.29-5.21-0.32-6.55,1.56c-22.35,31.51-44.69,63.03-67.04,94.54c-1.23,1.73-4.71,9.39,0.16,9.5
				c82.1,1.79,161.38,26.82,243.13,32.03c22.49,1.43,45.03,1.17,67.44-1.27c4.07-0.44,9.17-11.31,3.4-12.02
				c-71.05-8.74-138.9-37.88-194.77-82.56c-16.15-12.92-31.18-27.12-45.06-42.45C603.46,1306.85,595.88,1317.56,599.29,1321.33
				L599.29,1321.33z"/>
		</g>
	</g>
	<g class="st10">
		<path d="M748.74,1239.47c3.4,8.48,6.8,16.95,10.2,25.43c-7.61,2.83-17.06-1.69-19.79-9.48s1.76-17.41,9.4-20.15"/>
		<g>
			<path d="M744.14,1243.42c3.4,8.48,6.8,16.95,10.2,25.43c1.91-3.3,3.81-6.6,5.72-9.91c-5.72,1.82-12.21-0.41-15.39-5.64
				c-3.1-5.1-1.4-10.35,3.96-12.58c4.73-1.96,7.1-13.94-0.18-10.92c-10.1,4.19-16.85,16.97-14.4,27.69
				c2.39,10.48,13.62,16.59,23.77,13.36c3.36-1.07,7.2-6.22,5.72-9.91c-3.4-8.48-6.8-16.95-10.2-25.43
				C750.79,1229.18,742.28,1238.8,744.14,1243.42L744.14,1243.42z"/>
		</g>
	</g>
	<g class="st10">
		<path d="M791.15,1313.75c4.05,8.06,8.1,16.12,12.15,24.17c-7.52,2.23-16.36-2.46-18.89-10.03s1.65-16.8,8.94-19.73"/>
		<g>
			<path d="M787.04,1318.75c4.05,8.06,8.1,16.12,12.15,24.17c1.74-3.65,3.49-7.31,5.23-10.96c-5.53,1.35-11.58-1.14-14.49-6.11
				c-2.83-4.83-1.53-9.92,3.51-12.24c4.63-2.13,6.96-14.21-0.18-10.92c-9.72,4.47-16.18,16.65-13.93,27.22
				c2.21,10.34,12.75,16.43,22.84,13.97c4.18-1.02,7.15-7.14,5.23-10.96c-4.05-8.06-8.1-16.12-12.15-24.17
				c-1.41-2.8-5.38,0.19-6.55,1.56C786.77,1312.58,785.64,1315.97,787.04,1318.75L787.04,1318.75z"/>
		</g>
	</g>
	<g class="st10">
		<path d="M799.61,1398.18c4.52,7.54,9.05,15.08,13.57,22.62c-6.77,1.51-14.31-2.26-17.3-8.64c-2.99-6.38-1.12-14.74,4.28-19.17"/>
		<g>
			<path d="M795.5,1403.18c4.52,7.54,9.05,15.08,13.57,22.62c1.74-3.65,3.49-7.31,5.23-10.96c-4.85,0.83-9.99-1.27-12.89-5.28
				c-2.46-3.41-3.36-8.87,0.05-11.96c2.13-1.93,4.3-5.58,3.3-8.56c-0.96-2.87-4.02-2.36-5.9-0.66c-7.1,6.44-11.35,16.98-8.11,26.43
				c3.07,8.96,12.27,13.49,21.3,11.95c4.03-0.69,7.35-7.42,5.23-10.96c-4.52-7.54-9.05-15.08-13.57-22.62
				C800.8,1388.31,792.83,1398.72,795.5,1403.18L795.5,1403.18z"/>
		</g>
	</g>
	<g class="st10">
		<path d="M826.79,1157.01c39.06,111.06,102.24,213.19,183.65,296.94c-40.34-2.75-80.69-5.49-121.03-8.24
			c20.66-49.14,23.15-106,6.87-156.83c-16.29-50.83-51.21-95.19-96.33-122.36c5.94-3.58,11.87-7.17,17.81-10.75"/>
		<g>
			<path d="M822.2,1160.96c30.52,86.49,75.4,167.85,132.63,239.54c16.21,20.31,33.42,39.8,51.51,58.45
				c2.13-3.69,4.26-7.38,6.39-11.06c-40.34-2.75-80.69-5.49-121.03-8.24c0.64,2.15,1.28,4.3,1.92,6.45
				c33.51-80.6,19.35-176.12-38.56-241.86c-14.96-16.99-32.44-31.71-51.79-43.45c-1.07,3.73-2.15,7.46-3.22,11.2
				c5.94-3.58,11.87-7.17,17.81-10.75c2.64-1.59,4.85-4.94,4.68-8.11c-0.14-2.72-2.33-4.34-4.87-2.81
				c-5.94,3.58-11.87,7.17-17.81,10.75c-2.74,1.65-7.38,8.67-3.22,11.2c69.4,42.14,109.88,120.97,105.1,201.84
				c-1.45,24.49-7.12,48.58-16.53,71.22c-0.8,1.93-1.13,6.24,1.92,6.45c40.34,2.75,80.69,5.49,121.03,8.24
				c3.96,0.27,9.62-7.73,6.39-11.06c-63.6-65.55-116.01-141.91-154.33-224.82c-10.73-23.22-20.32-46.95-28.83-71.07
				C829.13,1146.67,820.54,1156.26,822.2,1160.96L822.2,1160.96z"/>
		</g>
	</g>
	<g class="st10">
		<path d="M878.09,1168.75c36.18,29.56,72.35,59.12,108.53,88.68c2.82,11.62-12.39,22.78-22.28,16.34
			c-39.23-25.53-69.54-65.06-84.41-110.07"/>
		<g>
			<path d="M874.78,1174.49c35.13,28.7,71.01,56.69,105.47,86.18c5.82,4.98-4.65,9.7-9.3,8.75c-3.78-0.78-7.32-4.02-10.39-6.22
				c-3.81-2.72-7.53-5.58-11.15-8.56c-14.04-11.57-26.44-25.1-36.97-39.92c-11.98-16.86-21.35-35.36-27.91-54.97
				c-2.14-6.41-10.77,3.17-9.19,7.9c13.25,39.6,37.74,74.96,70.49,100.92c6.39,5.07,14.72,13.32,23.42,13.12
				c8.28-0.19,15.61-6.14,19.52-13.12c2.12-3.78,3.28-8.26,2.86-12.59c-0.53-5.39-6.97-8.6-10.86-11.78
				c-10.19-8.33-20.38-16.65-30.57-24.98c-22.93-18.74-45.86-37.47-68.79-56.21C877.44,1159.77,870.45,1170.95,874.78,1174.49
				L874.78,1174.49z"/>
		</g>
	</g>
	<g class="st10">
		<path d="M1043.28,1218.65c34.73,12.28,74.05,10.41,107.51-5.13c-8.85,13.05-18.87,25.67-31.93,34.27
			c-13.07,8.6-29.68,12.74-44.46,7.82c-14.78-4.92-26.5-20.32-24.53-36.06"/>
		<g>
			<path d="M1039.97,1224.38c36.35,12.59,75.94,10.57,110.92-5.4c-1.18-2.48-2.36-4.97-3.53-7.45
				c-12.39,18.16-28.34,36.36-51.33,39.69c-10.22,1.48-20.7-0.72-28.93-7.07c-7.66-5.91-13.56-15.85-12.57-25.79
				c0.85-8.62-8.72-3.39-9.29,2.36c-2.58,26.07,20.22,45.17,45.37,42.78c28.61-2.72,48.48-25.78,63.64-48
				c2.22-3.26,1.63-9.81-3.53-7.45c-32.5,14.84-70.37,16.54-104.11,4.85C1041.32,1211.08,1035.17,1222.72,1039.97,1224.38
				L1039.97,1224.38z"/>
		</g>
	</g>
	<g class="st10">
		<path d="M1030.44,1234.58c8.11,40.84,26.86,79.42,53.82,110.71c-5.34,6.47-14.5,9.34-22.47,7.05
			c-7.97-2.29-14.33-9.62-15.59-17.97c-4.52-30.03-9.04-60.06-13.56-90.09"/>
		<g>
			<path d="M1025.84,1238.53c8.31,41.12,27.03,79.86,54.3,111.76c0.56-2.81,1.11-5.63,1.67-8.44c-6.37,7.17-17.87,6.48-24.66,0.37
				c-7.94-7.15-7.54-19.63-9.02-29.43c-3.64-24.16-7.27-48.31-10.91-72.47c-0.48-3.17-4.29-1.96-5.9-0.66
				c-2.51,2.03-3.77,5.43-3.3,8.56c4.32,28.73,8.65,57.45,12.97,86.18c1.6,10.61,6.56,20.23,17.46,23.68
				c10.55,3.34,21.18-1.42,28.22-9.35c1.59-1.79,3.56-6.23,1.67-8.44c-26.86-31.4-45.14-69.16-53.33-109.65
				c-0.63-3.11-4.19-2.04-5.9-0.66C1026.73,1231.92,1025.22,1235.46,1025.84,1238.53L1025.84,1238.53z"/>
		</g>
	</g>
	<g class="st10">
		<path d="M1023.89,1270.28c-2.63,34.78-5.26,69.56-7.89,104.34c-14.12-35.82-8.32-79.07,14.72-109.69"/>
		<g>
			<path d="M1019.11,1272.93c-2.63,34.78-5.26,69.56-7.89,104.34c3.12-2.2,6.25-4.4,9.37-6.6c-12.91-33.49-9-73.19,12.56-102.3
				c1.5-2.02,3.63-6.04,1.67-8.44c-1.89-2.32-5.18-0.29-6.55,1.56c-24.6,33.22-31.85,78.26-16.88,117.08
				c0.98,2.53,3.27,2.45,5.29,1.09c2.55-1.72,3.85-4.71,4.08-7.69c2.63-34.78,5.26-69.56,7.89-104.34c0.23-2.98-2.57-3.94-4.87-2.81
				C1020.85,1266.26,1019.34,1269.87,1019.11,1272.93L1019.11,1272.93z"/>
		</g>
	</g>
	<g class="st10">
		<path d="M1002.59,1302.99c-8.08,27.75-16.15,55.5-24.23,83.24c-8.38,4.22-19.22-6.88-15.07-15.42
			c15.11-31.1,30.22-62.2,45.32-93.3"/>
		<g>
			<path d="M998.39,1302.6c-8.08,27.75-16.15,55.5-24.23,83.24c1.37-1.69,2.74-3.38,4.11-5.07c-5.81,2.46-12.52-5.48-10.23-10.67
				c4.56-10.31,9.89-20.36,14.82-30.5c9.73-20.04,19.47-40.07,29.2-60.11c1-2.07,2.57-6.17-0.13-7.72c-2.5-1.44-5.78,1.75-6.75,3.75
				c-15.1,31.09-30.63,62.02-45.32,93.3c-4.41,9.38-1.05,21.94,10.29,24.16c6.95,1.36,11.41-2.89,13.24-9.19
				c2.39-8.2,4.77-16.4,7.16-24.59c5.41-18.6,10.83-37.21,16.24-55.81c0.64-2.2,1.21-5.95-1.92-6.45
				C1002.06,1296.48,999.06,1300.3,998.39,1302.6L998.39,1302.6z"/>
		</g>
	</g>
	<g class="st10">
		<path d="M1033.86,1366.1c-0.52,29.27,10.78,58.58,30.69,79.64c-9.11,6.99-23.06,4.45-31.16-3.73s-11.02-20.57-10.29-32.19
			c0.73-11.62,4.66-22.74,8.55-33.68"/>
		<g>
			<path d="M1029.08,1368.76c-0.31,30.13,10.78,59.9,31.35,81.99c0.94-3.2,1.87-6.41,2.81-9.61c-12.74,9.06-28.73-3.77-33.02-15.73
				c-5.88-16.36,0.09-33.33,5.62-48.88c0.77-2.18,1.12-5.96-1.92-6.45c-2.92-0.47-5.67,3.4-6.48,5.67
				c-6.9,19.4-14.07,41.51-4.81,61.41c7.8,16.75,27.53,24.35,43.21,13.2c2.08-1.48,5.1-7.15,2.81-9.61
				c-19.52-20.96-30.31-48.64-30.02-77.29c0.03-2.94-2.44-4-4.87-2.81C1030.97,1362.01,1029.11,1365.75,1029.08,1368.76
				L1029.08,1368.76z"/>
		</g>
	</g>
	<g class="st10">
		<path d="M1323.13,1235.97c-4.01,9.17-8.02,18.34-12.02,27.51c-9.09-12.4,0.47-33.54,15.61-34.51"/>
		<g>
			<path d="M1318.93,1235.58c-4.01,9.17-8.02,18.34-12.02,27.51c2.77-1.54,5.54-3.07,8.31-4.61c-6.48-9.47-1.24-22.41,10.38-23.55
				c4.91-0.48,9.11-12.59,2.25-11.91c-19.61,1.92-31.8,29.46-20.84,45.47c2.71,3.96,7.37-2.46,8.31-4.61
				c4.01-9.17,8.02-18.34,12.02-27.51c0.93-2.14,1.01-5.98-1.92-6.45C1322.36,1229.42,1319.9,1233.34,1318.93,1235.58
				L1318.93,1235.58z"/>
		</g>
	</g>
	<g class="st10">
		<path d="M1272.6,1308.15c-0.71,9.39-1.42,18.77-2.12,28.16c-9.9-6.74-11.34-23.23-2.77-31.65"/>
		<g>
			<path d="M1267.82,1310.8c-0.71,9.39-1.42,18.77-2.12,28.16c2.7-2.8,5.39-5.59,8.09-8.39c-6.73-4.95-9.81-15.97-3.65-22.48
				c1.7-1.8,3.5-6.2,1.67-8.44c-2.01-2.47-4.99-0.08-6.55,1.56c-10.61,11.21-11.09,31.27,1.9,40.83c4.09,3.01,7.88-5.7,8.09-8.39
				c0.71-9.39,1.42-18.77,2.12-28.16c0.22-2.98-2.57-3.94-4.87-2.81C1269.56,1304.13,1268.05,1307.74,1267.82,1310.8L1267.82,1310.8
				z"/>
		</g>
	</g>
	<g class="st10">
		<path d="M1266.75,1384.31c-0.91,7.95-1.81,15.9-2.72,23.86c-10.78-4.31-12.26-22.39-2.33-28.46"/>
		<g>
			<path d="M1262.11,1385.49c-0.91,7.95-1.81,15.9-2.72,23.86c2.65-2.31,5.3-4.61,7.96-6.92c-3.86-1.74-6.37-4.91-7.23-9.09
				c-0.52-2.52-0.79-6.52,1.68-8.18c2.59-1.74,4.85-4.83,4.68-8.11c-0.13-2.6-2.37-4.49-4.87-2.81
				c-12.46,8.38-17.23,32.29-0.89,39.66c3.75,1.69,7.59-3.73,7.96-6.92c0.91-7.95,1.81-15.9,2.72-23.86
				C1272.38,1374.52,1262.76,1379.77,1262.11,1385.49L1262.11,1385.49z"/>
		</g>
	</g>
	<g class="st10">
		<g>
			<path d="M1714.26,835.44c5.16,0,10.22-12.12,4.56-12.12C1713.66,823.32,1708.6,835.44,1714.26,835.44L1714.26,835.44z"/>
		</g>
	</g>
	<g class="st10">
		<g>
			<path d="M993.39,608.68c-3.18,14.13,1.04,28.04,10.64,38.75c9.71,10.84,23.31,15.08,37.44,13.16c7.1-0.97,10.97-10.06,9.25-16.3
				c-2.1-7.65-9.18-10.22-16.3-9.25c2.71-0.37-3.6-0.44-0.76-0.04c-1.07-0.15-2.11-0.46-3.14-0.76c-0.25-0.07-2.46-0.97-1.45-0.5
				c0.78,0.36-3.32-2.03-2.73-1.61c0.81,0.58-1.04-0.89-1.23-1.06c-0.82-0.76-1.58-1.55-2.35-2.37c-0.83-0.89-2.96-4.6-3.23-5.62
				c-0.23-0.85-0.46-1.7-0.7-2.55c-0.98-3.57-0.08,1-0.14-1.05c-0.03-0.89-0.04-1.76,0.01-2.65c0.13-2.27-0.66,2.87,0.23-1.11
				c1.57-6.97-2.12-14.34-9.25-16.3C1003.02,597.6,994.96,601.67,993.39,608.68L993.39,608.68z"/>
		</g>
	</g>
</g>
<g id="Ebene_15">
	<g class="st10">
		<g>
			<path class="st0" d="M989.92,98.02c1.45,0.19,2.95,0.31,4.38,0.59c-4.7-0.94-1.97-0.3-0.91-0.12c2.42,0.41,4.84,0.8,7.25,1.24
				c5.31,0.98,10.58,2.11,15.83,3.37c2.38,0.57,4.76,1.18,7.13,1.81c-4.17-1.12,0.6,0.19,1.2,0.37c0.94,0.27,1.88,0.55,2.82,0.83
				c5.17,1.54,10.3,3.23,15.39,5.04c4.63,1.65,9.21,3.41,13.76,5.27c5.8,2.38,8.27,3.48,12.73,5.61
				c9.34,4.45,18.46,9.36,27.33,14.68c35.32,21.2,66.29,49.07,91.16,81.91c14.13,18.66,26.15,38.84,35.84,60.14
				c1.21,2.65,8.04,4.17,10.15,4.62c5.35,1.14,11.58,1.41,17.01,0.78c4.54-0.53,18.77-2.15,15.42-9.51
				c-36.36-79.89-106.03-142.37-188.01-172.92c-24.77-9.23-50.55-15.21-76.74-18.63c-5.36-0.7-11.73-0.34-17.01,0.78
				c-2.77,0.59-8.31,1.89-10.15,4.62C969.86,95.41,987.18,97.66,989.92,98.02L989.92,98.02z"/>
		</g>
	</g>
	<g class="st10">
		<g>
			<path class="st0" d="M1277.28,219.48c31.89,48.96,54.7,103.22,67.41,160.25c2.78,12.47,46.08,8.64,44.16,0
				c-12.99-58.33-36.36-114.28-68.98-164.36c-1.78-2.73-7.44-4.04-10.15-4.62c-5.35-1.14-11.58-1.41-17.01-0.78
				C1289.13,210.39,1272.82,212.64,1277.28,219.48L1277.28,219.48z"/>
		</g>
	</g>
	<g class="st10">
		<g>
			<path class="st0" d="M1423.9,528.15c18.34,20.54,28.61,46.45,29.53,73.96c0.25,7.36,17.34,7.8,22.08,7.73
				c5.22-0.08,10.67-0.45,15.61-2.26c2.26-0.83,6.57-2.45,6.47-5.46c-0.95-28.59-12.03-56.71-31.1-78.06
				c-5.82-6.51-19.27-6.31-27.16-5.4C1436.67,518.95,1418.45,522.05,1423.9,528.15L1423.9,528.15z"/>
		</g>
	</g>
	<g class="st10">
		<g>
			<path class="st0" d="M1290.09,709.71c-14.99,58.22-46.75,111.75-90.26,153.21c-12.02,11.45-24.97,21.78-38.72,31.08
				c-7.83,5.29,3.06,9.64,7.92,10.57c8.72,1.67,22.31,2.57,30.21-2.77c51.57-34.86,92.67-84.19,117.5-141.28
				c7.16-16.45,13.04-33.44,17.51-50.81C1336.32,701.66,1293.36,696.99,1290.09,709.71L1290.09,709.71z"/>
		</g>
	</g>
	<g class="st10">
		<g>
			<path class="st0" d="M1068.17,1083.22c0,20.62,0,41.24,0,61.86c0,2.92,4.48,4.73,6.47,5.46c4.72,1.74,10.65,2.34,15.61,2.26
				c5.22-0.08,10.67-0.45,15.61-2.26c2.33-0.85,6.47-2.42,6.47-5.46c0-20.62,0-41.24,0-61.86c0-2.92-4.48-4.73-6.47-5.46
				c-4.72-1.74-10.65-2.34-15.61-2.26c-5.22,0.08-10.67,0.45-15.61,2.26C1072.31,1078.61,1068.17,1080.17,1068.17,1083.22
				L1068.17,1083.22z"/>
		</g>
	</g>
	<g class="st10">
		<g>
			<path class="st0" d="M1351.24,1280.46c26.94,28.76,43.09,65.8,46.04,105.07c0.56,7.41,17.1,7.81,22.08,7.73
				c5.22-0.08,10.67-0.45,15.61-2.26c2.18-0.8,6.69-2.48,6.47-5.46c-3.03-40.38-19.91-79.6-47.62-109.18
				c-6.03-6.43-19.12-6.33-27.16-5.4C1364.14,1271.25,1345.65,1274.49,1351.24,1280.46L1351.24,1280.46z"/>
		</g>
	</g>
	<g class="st10">
		<g>
			<path class="st0" d="M1325.86,1246.74c5.03,0,10.83-0.5,15.61-2.26c1.99-0.73,6.47-2.54,6.47-5.46c0-7.25-18.25-7.73-22.08-7.73
				c-5.03,0-10.83,0.5-15.61,2.26c-1.99,0.73-6.47,2.54-6.47,5.46C1303.78,1246.26,1322.03,1246.74,1325.86,1246.74L1325.86,1246.74
				z"/>
		</g>
	</g>
	<g class="st10">
		<g>
			<path class="st0" d="M1274.25,1315.48c5.03,0,10.83-0.5,15.61-2.26c1.99-0.73,6.47-2.54,6.47-5.46c0-7.25-18.25-7.73-22.08-7.73
				c-5.03,0-10.83,0.5-15.61,2.26c-1.99,0.73-6.47,2.54-6.47,5.46C1252.17,1315,1270.42,1315.48,1274.25,1315.48L1274.25,1315.48z"
				/>
		</g>
	</g>
	<g class="st10">
		<g>
			<path class="st0" d="M1265.27,1395.67c5.03,0,10.83-0.5,15.61-2.26c1.99-0.73,6.47-2.54,6.47-5.46c0-7.25-18.25-7.73-22.08-7.73
				c-5.03,0-10.83,0.5-15.61,2.26c-1.99,0.73-6.47,2.54-6.47,5.46C1243.19,1395.19,1261.44,1395.67,1265.27,1395.67L1265.27,1395.67
				z"/>
		</g>
	</g>
	<g class="st10">
		<g>
			<path class="st0" d="M799.43,1218.37c41.85,51.01,65.49,115.09,67.4,181c0.21,7.35,17.36,7.8,22.08,7.73
				c5.22-0.08,10.67-0.45,15.61-2.26c2.27-0.83,6.55-2.44,6.47-5.46c-1.94-67.03-26.41-133.24-68.97-185.11
				c-5.44-6.63-19.55-6.28-27.16-5.4C811.96,1209.2,794.24,1212.05,799.43,1218.37L799.43,1218.37z"/>
		</g>
	</g>
	<g class="st10">
		<g>
			<path class="st0" d="M1211.51,1240.95c-15.66,29.05-31.31,58.1-46.97,87.15c-3.83,7.11,11.36,9.17,15.42,9.51
				c5.62,0.46,11.5,0.5,17.01-0.78c3.03-0.7,8.53-1.62,10.15-4.62c15.66-29.05,31.31-58.1,46.97-87.15
				c3.83-7.11-11.36-9.17-15.42-9.51c-5.62-0.46-11.5-0.5-17.01,0.78C1218.63,1237.03,1213.12,1237.95,1211.51,1240.95
				L1211.51,1240.95z"/>
		</g>
	</g>
</g>
<g id="Ebene_16">
</g>
<g id="Ebene_17">
	<g>
		<g id="Ebene_5_1_">
			<g class="st11">
				<path d="M1484.01,804.03c-18.87-12.25-24-21.58-54.47-32.47c-20.1-7.18-99.39,7.31-119.88,19.66
					c-7.37,4.44-10.52,1.51-35.66-3.31c-14.17-2.72-28.12-8.76-42.36-7.81c-21.04,1.39-37.83,10.32-49.54,25.58
					c-47.29,61.66-78.35,139.48-94.35,214.05c-5.25,24.44-7.54,52.95,11.36,72.48c12.19,12.59,28.36,25.09,46.44,26.94
					c37.22,3.82,33.31,25.39,51.46,70.05c3.22,7.92,45.65,54.01,41.79,102.4c-4.04,50.75-22.78,107.61-33.74,149.58
					c-7.7,29.51-20.61,73.13,3.4,96.19c16.51,15.86,50.82,12.19,73.12,6.46c22.31-5.73,44.2-18.15,53.46-37.1
					c41.15-84.27,53.5-129.24,69.79-224.32c57.74,4.64,105.32,22.5,158.41,34.04c23.51,5.11,50.84,1.31,72.91-5.87
					c24.08-7.84,47.26-34.49,51.12-57.4c3.87-22.91-13.22-49.47-23.44-60.42c55.74-6.34,63.98-75.91,34.61-117.44
					c31.97-4.63,37.86-34.13,37.62-59.8s-10.94-37.83-34.71-60.8c23.44-3.39,30.66-29.47,19.66-49.08
					c-10.99-19.61-32.84-34.36-54.08-45.37c-57.3-29.71-111.92-43.02-182.95-59.71"/>
				<g>
					<path d="M1486.79,801.37c-9.36-6.13-17.61-13.52-27.04-19.53c-5.19-3.31-10.71-6.18-16.4-8.68c-5-2.19-10.25-4.62-15.69-5.62
						c-8.62-1.59-17.62-1.09-26.18-0.44c-11.38,0.86-22.66,2.45-33.79,4.44c-11.25,2.01-22.4,4.44-33.29,7.52
						c-8.15,2.3-16.49,4.84-23.77,8.78c-2.3,1.25-4.11,2.47-6.95,2.48c-3.84,0.01-7.84-1.2-11.58-2.04
						c-7.38-1.65-14.86-2.94-22.21-4.74c-8.32-2.04-16.49-4.66-24.99-5.92c-13.98-2.07-28.76,0.88-40.7,6.83
						c-12.48,6.21-21.12,15.54-28.89,26.05c-18.48,24.99-34.01,51.82-47.12,79.56c-13.27,28.06-24.06,57.15-32.71,86.81
						c-4.25,14.58-8,29.31-11.13,44.17c-2.56,12.11-4.35,24.6-3.41,37.11c0.89,11.82,4.49,23.64,12.57,33.52
						c9.41,11.51,23.29,22.53,38.11,27.75c10.89,3.84,23.29,2.5,33.12,9.17c7.48,5.07,11.17,12.95,14.12,20.57
						c4.53,11.71,7.89,23.72,12.34,35.45c2.4,6.32,5.27,11.09,9.27,16.72c12.31,17.32,23.56,35.36,30.03,54.97
						c9.03,27.4,3.72,54.98-1.77,81.84c-5.92,28.99-14.19,57.41-22.09,85.9c-6.22,22.44-13.4,45.24-15.06,68.61
						c-1.42,20.05,2.66,45.8,26.75,55.09c13.16,5.08,28.23,4.65,41.75,3.02c14.13-1.71,28.08-5.14,40.64-10.86
						c12.68-5.76,24.23-13.92,32.12-24.57c4.41-5.95,7.27-12.73,10.41-19.3c3.22-6.74,6.38-13.49,9.45-20.29
						c10.79-23.83,20.49-48.1,28.33-72.98c7.84-24.87,13.77-50.26,18.83-75.82c2.98-15.06,5.67-30.17,8.27-45.3
						c-1.58,1.28-3.16,2.56-4.74,3.85c31.51,2.61,62.33,9.58,92.92,17.59c14.56,3.81,29.06,7.78,43.67,11.4
						c14.09,3.5,28.16,7.09,42.69,7.37c13.9,0.26,27.76-1.63,40.93-4.89c11.24-2.78,21.57-6.53,30.74-12.88
						c17.31-11.99,31.93-30.35,35.95-50.2c4.4-21.8-7.82-46.6-23.67-63.79c-1.14,1.88-2.28,3.76-3.42,5.65
						c47.05-5.72,61.57-53.4,52.58-90.72c-2.69-11.18-7.28-22.01-14.15-31.85c-1.28,1.71-2.55,3.42-3.82,5.13
						c22.9-3.59,35.45-20.5,39.53-39.98c3.87-18.47,3.97-39.87-7.13-57.17c-6.91-10.76-16.67-20-26.06-29.09
						c-1.14,1.88-2.28,3.76-3.42,5.65c17.65-2.85,27.97-17.36,28.65-32.88c0.82-18.87-13.3-35.52-28.76-47.76
						c-18.04-14.29-39.92-24.7-61.35-33.96c-22-9.5-44.77-17.27-67.86-23.97c-28.14-8.17-56.7-14.87-85.22-21.57
						c-3.18-0.75-7.86,5.13-4.36,5.95c45.19,10.62,90.7,21.2,134.05,37.8c20.8,7.96,41.56,17.09,60.55,28.36
						c17.33,10.29,35.69,24.06,43.32,41.89c6.69,15.63,2.49,36.87-17.72,40.14c-2.12,0.34-5.45,3.68-3.42,5.65
						c13.9,13.45,29.01,27.63,32.8,46.04c1.85,8.98,1.7,18.32,0.77,27.25c-0.92,8.85-2.83,17.88-7.47,25.64
						c-5.39,9-14.31,14.24-25.61,16.01c-1.81,0.28-5.16,3.21-3.82,5.13c11.23,16.07,16.62,34.91,16.48,53.33
						c-0.12,17.16-5.33,35.31-18.97,47.29c-7.63,6.7-17.61,10.39-28.31,11.69c-2.28,0.28-5.26,3.65-3.42,5.65
						c13.51,14.65,24.1,35.14,23.41,53.86c-0.72,19.4-15.22,38.19-31.29,49.68c-8.8,6.29-18.79,9.78-29.74,12.38
						c-12.97,3.09-26.5,4.79-40.15,4.28c-13.76-0.51-27.2-4.15-40.55-7.48c-13.8-3.45-27.52-7.19-41.27-10.79
						c-31.33-8.21-62.9-15.35-95.17-18.02c-2.14-0.18-4.45,2.13-4.74,3.85c-8.92,51.99-19.29,103.68-38.3,153.11
						c-4.79,12.46-10,24.77-15.49,36.97c-2.93,6.52-5.93,13-9,19.46c-3.09,6.52-5.81,13.47-9.95,19.49
						c-15.11,21.95-46.79,31.55-74.88,33.22c-13.27,0.79-29.06-0.05-40.05-8.44c-8.96-6.84-13.38-17.29-15-27.26
						c-3.6-22.05,2.87-44.28,8.37-65.19c6.82-25.94,14.51-51.65,21.05-77.65c3.61-14.35,6.9-28.79,9.47-43.37
						c2.35-13.37,4.79-27.17,4.59-40.87c-0.32-22.35-9.46-44.39-21.42-64.29c-4.48-7.46-9.44-14.67-14.53-21.82
						c-4.03-5.67-6.72-10.44-9.13-16.84c-4.24-11.24-7.51-22.71-11.76-33.95c-2.83-7.49-6.4-15.4-13.17-20.91
						c-7.15-5.83-16.3-7.61-25.37-8.77c-17.24-2.2-31.54-12.97-43.05-24.41c-19.96-19.84-18.21-46.84-13.38-70.44
						c5.96-29.16,14.34-57.91,24.68-85.85c10.47-28.3,23.12-55.9,38.33-82.23c7.56-13.07,15.78-25.81,24.72-38.12
						c7.66-10.54,15.6-20.34,28.45-26.15c13.68-6.18,28.71-6.97,43.92-3.24c14.13,3.47,28.19,6.88,42.45,9.81
						c7.04,1.44,11.87,1.2,17.84-2.1c6.78-3.74,14.54-6.12,22.15-8.27c21.03-5.95,43.23-10.08,65.46-11.77
						c8.18-0.62,17.06-1.29,25.3,0.32c5.44,1.06,10.74,3.57,15.75,5.8c5.69,2.53,11.15,5.45,16.28,8.86
						c8.74,5.81,16.55,12.66,25.33,18.42C1484.13,808.58,1489.51,803.16,1486.79,801.37L1486.79,801.37z"/>
				</g>
			</g>
		</g>
		<g id="Ebene_5_Kopie">
			<g>
				<path class="st12" d="M1518.65,799.54c-18.87-12.25-24-21.58-54.47-32.47c-20.1-7.18-99.39,7.31-119.88,19.66
					c-7.37,4.44-10.52,1.51-35.66-3.31c-14.17-2.72-28.12-8.76-42.36-7.81c-21.04,1.39-37.83,10.32-49.54,25.58
					c-47.28,61.65-78.35,139.48-94.35,214.04c-5.25,24.44-7.54,52.95,11.36,72.48c12.19,12.59,28.36,25.09,46.44,26.94
					c37.22,3.82,33.31,25.39,51.46,70.05c3.22,7.92,45.65,54.01,41.79,102.4c-4.04,50.75-22.78,107.61-33.74,149.58
					c-7.7,29.51-20.61,73.13,3.4,96.19c16.51,15.86,50.82,12.19,73.12,6.46c22.31-5.73,44.2-18.15,53.46-37.1
					c41.15-84.27,53.5-129.24,69.79-224.31c57.74,4.64,105.32,22.5,158.41,34.04c23.51,5.11,50.84,1.31,72.91-5.87
					c24.08-7.84,47.26-34.49,51.12-57.4c3.87-22.91-13.22-49.47-23.44-60.42c55.74-6.34,64.72-67.19,35.34-108.72
					c31.97-4.63,37.12-42.85,36.89-68.52c-0.23-25.67-10.94-37.83-34.71-60.8c23.44-3.39,30.66-29.47,19.66-49.08
					c-10.99-19.61-32.85-34.36-54.08-45.37c-57.3-29.71-111.92-43.02-182.95-59.71"/>
				<g>
					<path class="st12" d="M1521.43,796.88c-9.36-6.13-17.61-13.52-27.04-19.53c-5.19-3.31-10.71-6.18-16.4-8.68
						c-5-2.19-10.25-4.62-15.69-5.62c-8.62-1.59-17.62-1.09-26.18-0.44c-11.38,0.86-22.66,2.45-33.79,4.44
						c-11.25,2.01-22.4,4.44-33.29,7.52c-8.15,2.3-16.49,4.84-23.77,8.78c-2.3,1.25-4.11,2.47-6.95,2.48
						c-3.84,0.01-7.84-1.2-11.58-2.04c-7.38-1.65-14.86-2.94-22.21-4.74c-8.32-2.04-16.49-4.66-24.99-5.92
						c-13.98-2.07-28.76,0.88-40.7,6.83c-12.48,6.21-21.12,15.54-28.89,26.05c-18.48,24.99-34.01,51.82-47.12,79.56
						c-13.27,28.06-24.06,57.15-32.71,86.81c-4.25,14.58-8,29.31-11.13,44.17c-2.56,12.11-4.35,24.6-3.41,37.11
						c0.89,11.82,4.49,23.64,12.57,33.52c9.41,11.51,23.29,22.53,38.11,27.75c10.89,3.84,23.29,2.5,33.12,9.17
						c7.48,5.07,11.17,12.95,14.12,20.57c4.53,11.71,7.89,23.72,12.34,35.45c2.4,6.32,5.27,11.09,9.27,16.72
						c12.31,17.32,23.56,35.36,30.03,54.97c9.03,27.4,3.72,54.98-1.77,81.84c-5.92,28.99-14.19,57.41-22.09,85.9
						c-6.22,22.44-13.4,45.24-15.06,68.61c-1.42,20.05,2.66,45.8,26.75,55.09c13.16,5.08,28.23,4.65,41.75,3.02
						c14.13-1.71,28.08-5.14,40.64-10.86c12.68-5.76,24.23-13.92,32.12-24.57c4.41-5.95,7.27-12.73,10.41-19.3
						c3.22-6.74,6.38-13.49,9.45-20.29c10.79-23.83,20.49-48.1,28.33-72.98c7.84-24.87,13.77-50.26,18.83-75.82
						c2.98-15.06,5.67-30.17,8.27-45.3c-1.58,1.28-3.16,2.56-4.74,3.85c31.51,2.61,62.33,9.58,92.92,17.59
						c14.56,3.81,29.06,7.78,43.67,11.4c14.09,3.5,28.16,7.09,42.69,7.37c13.9,0.26,27.76-1.63,40.93-4.89
						c11.24-2.78,21.57-6.53,30.74-12.88c17.31-11.99,31.93-30.35,35.95-50.2c4.4-21.8-7.82-46.6-23.67-63.79
						c-1.14,1.88-2.28,3.76-3.42,5.65c20.58-2.49,37.72-13.11,47.19-29.39c9.32-16,10.55-35.52,6.08-53.54
						c-2.7-10.89-7.41-21.33-14.11-30.92c-1.28,1.71-2.55,3.42-3.82,5.13c23.49-3.71,34.3-24.07,38.3-43.32
						c3.95-19.02,5.46-41.86-5.13-60.11c-6.86-11.83-17.5-21.8-27.56-31.54c-1.14,1.88-2.28,3.76-3.42,5.65
						c17.65-2.85,27.97-17.36,28.65-32.88c0.82-18.87-13.3-35.52-28.76-47.76c-18.04-14.29-39.92-24.7-61.35-33.96
						c-22-9.5-44.77-17.27-67.86-23.97c-28.14-8.17-56.7-14.87-85.22-21.57c-3.18-0.75-7.86,5.13-4.36,5.95
						c45.19,10.62,90.7,21.2,134.05,37.8c20.8,7.96,41.56,17.09,60.55,28.36c17.33,10.29,35.69,24.06,43.32,41.89
						c6.69,15.63,2.49,36.87-17.72,40.14c-2.12,0.34-5.45,3.68-3.42,5.65c15.47,14.97,31.08,30.23,33.61,50.98
						c1.15,9.47,0.66,19.23-0.55,28.56c-1.19,9.23-3.31,18.5-7.75,26.8c-4.85,9.08-12.71,15.53-24.07,17.33
						c-1.8,0.28-5.16,3.21-3.82,5.13c19.07,27.29,25.69,70.81-2.87,92.83c-8.03,6.19-18.05,9.47-28.65,10.76
						c-2.28,0.28-5.26,3.65-3.42,5.65c13.51,14.65,24.1,35.14,23.41,53.86c-0.72,19.4-15.22,38.19-31.29,49.68
						c-8.8,6.29-18.79,9.78-29.74,12.38c-12.97,3.09-26.5,4.79-40.15,4.28c-13.76-0.51-27.2-4.15-40.55-7.48
						c-13.8-3.45-27.52-7.19-41.27-10.79c-31.33-8.21-62.9-15.35-95.17-18.02c-2.14-0.18-4.45,2.13-4.74,3.85
						c-8.92,51.99-19.29,103.68-38.3,153.11c-4.79,12.46-10,24.77-15.49,36.97c-2.93,6.52-5.93,13-9,19.46
						c-3.09,6.52-5.81,13.47-9.95,19.49c-15.11,21.95-46.79,31.55-74.88,33.22c-13.27,0.79-29.06-0.05-40.05-8.44
						c-8.96-6.84-13.38-17.29-15-27.26c-3.6-22.05,2.87-44.28,8.37-65.19c6.82-25.94,14.51-51.65,21.05-77.65
						c3.61-14.35,6.9-28.79,9.47-43.37c2.35-13.37,4.79-27.17,4.59-40.87c-0.32-22.35-9.46-44.39-21.42-64.29
						c-4.48-7.46-9.44-14.67-14.53-21.82c-4.03-5.67-6.72-10.44-9.13-16.84c-4.24-11.24-7.51-22.71-11.76-33.95
						c-2.83-7.49-6.4-15.4-13.17-20.91c-7.15-5.83-16.3-7.61-25.37-8.77c-17.24-2.2-31.54-12.97-43.05-24.41
						c-19.96-19.84-18.21-46.84-13.39-70.44c5.96-29.16,14.34-57.91,24.68-85.85c10.47-28.3,23.12-55.9,38.33-82.23
						c7.55-13.07,15.78-25.81,24.72-38.12c7.66-10.54,15.6-20.34,28.45-26.15c13.68-6.18,28.71-6.97,43.92-3.24
						c14.13,3.47,28.19,6.88,42.45,9.81c7.04,1.44,11.87,1.2,17.84-2.1c6.78-3.74,14.54-6.12,22.15-8.27
						c21.03-5.95,43.23-10.08,65.46-11.77c8.18-0.62,17.06-1.29,25.3,0.32c5.44,1.06,10.74,3.57,15.75,5.8
						c5.69,2.53,11.15,5.45,16.28,8.86c8.74,5.81,16.55,12.66,25.33,18.42C1518.77,804.08,1524.15,798.67,1521.43,796.88
						L1521.43,796.88z"/>
				</g>
			</g>
		</g>
		<g id="Ebene_2_1_">
			<g>
				<g>
					<path d="M1252.76,993.25c-21.66,19.63-36.52,44.8-43.78,71.98c-7.22,26.99-6.85,55.97,1.58,83.47
						c4.3,14.01,10.91,27.28,19.09,39.97c8.73,13.53,18.69,26.47,26.68,40.35c8.38,14.55,13.56,29.69,14.13,45.8
						c0.6,16.9-2.97,33.46-6.88,49.7c-8.76,36.34-17.82,72.61-26.74,108.92c-4.13,16.84-9.11,33.65-12.05,50.76
						c-2.41,14.03-2.54,29.61,6.84,42.36c17.05,23.2,53.18,26.37,78.96,18.41c32.25-9.95,56.03-33.34,71.77-59.6
						c9.1-15.18,15.87-31.42,21.82-47.89c6.25-17.3,11.87-34.81,16.89-52.48c10.08-35.53,17.66-71.74,22.67-108.36
						c1.24-9.03,2.31-18.08,3.24-27.15c0.45-4.4-6.28-1.36-6.57,1.51c-3.68,35.94-9.77,71.56-18.3,106.61
						c-4.26,17.52-9.12,34.9-14.58,52.1c-5.31,16.71-10.96,33.38-17.95,49.52c-12.21,28.21-29.96,55.81-59.27,71.87
						c-23.64,12.95-57.86,17.9-82.54,0.52c-12.55-8.84-17.77-21.96-17.73-35.56c0.05-15.92,5.36-31.62,9.11-46.87
						c8.73-35.54,17.46-71.08,26.19-106.62c7.64-31.08,18.04-64.18,7.17-96.57c-9.68-28.83-33.31-52.13-46.85-79.5
						c-12.66-25.59-17.3-53.88-14.25-80.98c3.04-27.03,13.47-53.03,31.11-74.53c4.24-5.17,8.93-10.01,13.95-14.57
						c0.99-0.9,2.3-3.05,0.91-4.24C1255.97,990.97,1253.71,992.38,1252.76,993.25L1252.76,993.25z"/>
				</g>
			</g>
			<g>
				<g>
					<path d="M1569.11,1215.04c-34.2-10.81-68.57-21.19-102.46-32.88c-16.83-5.8-33.56-11.91-50-18.62
						c-12.91-5.28-25.93-11.45-36.03-20.72c-10.03-9.2-15.52-21.49-12.31-33.8c3.12-11.99,13.41-21.73,25.14-27.43
						c27.74-13.48,63.18-8.53,93.36-1.35c36.33,8.65,71.82,21.13,105.51,36.74c29.9,13.86,59.8,29.92,84.31,51.09
						c22.8,19.68,40.51,45.04,42,73.33c0.76,14.36-2.66,28.92-11.33,40.68c-7.73,10.47-19.29,17.98-32.18,22.83
						c-30.49,11.45-65.25,7.31-97.25-0.73c-17.99-4.52-35.51-10.65-53.5-15.13c-16.73-4.16-33.77-6.85-50.79-9.37
						c-9.17-1.36-18.35-2.67-27.52-4.1c-1.96-0.3-3.71,0.74-4.72,2.16c-0.56,0.77-1.62,3.49,0.36,3.8c18.67,2.91,37.41,5.28,56,8.7
						c18.46,3.39,36.16,8.69,54.14,13.95c34.44,10.07,71.03,18.48,106.18,11.2c14.65-3.03,28.77-8.68,40.09-17.35
						c12.17-9.31,20.66-21.61,24.66-35.7c8.08-28.49-2.87-58.64-23.22-82.32c-20.57-23.94-49.05-41.5-77.73-56.58
						c-34.59-18.19-71.35-32.85-109.27-43.57c-32.44-9.17-68.21-17.43-101.14-9.94c-15.13,3.45-28.97,10.43-38.72,21.26
						c-9.12,10.13-14.48,23.23-10.8,36.73c3.46,12.68,14.27,22.55,26.14,29.74c13.52,8.19,28.73,13.82,43.61,19.44
						c35.41,13.38,71.65,24.68,107.82,35.98c8.43,2.64,16.87,5.27,25.3,7.93C1567.85,1221.98,1572.65,1216.15,1569.11,1215.04
						L1569.11,1215.04z"/>
				</g>
			</g>
			<g>
				<g>
					<path d="M1426.15,1068.2c-15.16-11.4-30.26-25.95-34.63-43.59c-2.87-11.6-0.05-23.1,7.38-32.09
						c5.91-7.16,15.18-13.14,25.49-15.49c9.05-2.07,18.71-2.42,28.13-2.33c11.19,0.11,22.43,1.06,33.59,2.49
						c49.12,6.33,96.75,23.51,141.31,44.07c22.86,10.55,44.5,22.78,66.19,35.22c17.12,9.82,35.6,20.4,46.62,36.23
						c10.93,15.7,12.81,34.85,8.25,51.95c-4.17,15.64-14.35,30.57-30.49,37.98c-4.07,1.87-8.39,3.18-12.91,4.02
						c-1.84,0.35-3.64,2.08-3.93,3.75c-0.28,1.61,0.88,2.57,2.64,2.24c41.16-7.7,61.06-51.43,51.13-86.65
						c-5.42-19.18-21.06-33.36-38.73-44.64c-9.47-6.04-19.39-11.47-29.13-17.11c-11.36-6.59-22.83-12.99-34.6-18.94
						c-25.28-12.79-51.54-23.98-78.45-33.39c-23.11-8.08-46.57-14.78-70.76-18.79c-22.49-3.73-45.97-6.24-68.39-3.58
						c-13.64,1.62-25.49,6.57-35.1,15.13c-9.68,8.62-15.89,20.31-16.06,32.95c-0.22,16.42,10.1,31.7,22.51,43.72
						c4.49,4.35,9.34,8.36,14.4,12.16C1423.31,1075.55,1428.79,1070.2,1426.15,1068.2L1426.15,1068.2z"/>
				</g>
			</g>
			<g>
				<g>
					<path d="M1455.86,968.96c-9.41-7.8-17.08-17.73-23.13-27.72c-7.46-12.32-13.41-26.93-10.52-40.67
						c3.38-16.03,19.39-25.07,36.29-28.1c22.1-3.96,45.75,1.52,67.78,5.82c47.49,9.26,94.77,21.09,139.7,38.94
						c39.91,15.85,81.84,37.01,100.24,74.76c3.95,8.1,6.44,16.75,6.18,25.45c-0.19,6.6-1.61,13.23-3.48,19.52
						c-3.93,13.27-11.29,26.41-23.78,34.5c-3.26,2.11-6.87,3.85-10.68,5.11c-1.81,0.6-3.61,1.92-3.93,3.75
						c-0.25,1.42,0.88,2.82,2.64,2.24c17.19-5.69,29.36-18.03,36.73-32.77c3.34-6.67,5.74-13.81,7.3-21.05
						c1.58-7.38,2.51-15.03,1.32-22.65c-2.93-18.76-15.42-36.18-29.87-50.07c-16.27-15.64-37.06-26.79-58.09-36.21
						c-46.81-20.95-96.87-34.57-147.2-44.92c-12.5-2.57-25.05-5.08-37.65-7.12c-12.05-1.96-24.3-3.35-36.4-2.46
						c-19.52,1.43-39.24,9.25-48.85,24.83c-15.79,25.6,4.08,58.67,24.46,79.2c1.71,1.72,3.48,3.39,5.36,4.95
						C1452.89,976.39,1458.44,971.09,1455.86,968.96L1455.86,968.96z"/>
				</g>
			</g>
			<g>
				<g>
					<path d="M1469.94,863.54c-12.35-17.14-9.9-40.58,4.78-54.65c19.82-19.01,53.93-10.77,79.47-4.69
						c33.99,8.1,67.34,18.91,99.52,32.23c15.58,6.45,30.93,13.45,45.87,21.12c12.73,6.54,25.22,13.87,35.67,23.25
						c11.04,9.92,19.26,22.08,21.05,35.89c1.59,12.24-1.62,25.4-12.86,32.69c-1.27,0.82-2.93,2.8-2.11,4.37
						c0.85,1.62,3.15,0.81,4.24,0.1c23.08-14.98,21.95-46,6.08-66.69c-8.87-11.57-21.11-20.59-34.13-28.18
						c-14.72-8.58-30.39-15.89-46.08-22.81c-34.13-15.03-69.7-27.19-106.06-36.27c-28.59-7.14-64.69-16.61-89.21,1.47
						c-18.27,13.48-26.46,38.23-16.87,59.14c1.17,2.54,2.62,4.97,4.28,7.29C1465.72,870.78,1471.69,865.98,1469.94,863.54
						L1469.94,863.54z"/>
				</g>
			</g>
			<g>
				<g>
					<path d="M1526.56,792.23c-21.99-19.8-54.03-29.15-83.71-31.62c-30.96-2.58-61.72,3.85-87.92,17.28
						c-15.21,7.8-28.86,17.83-40.17,29.77c-0.91,0.96-2.36,3.01-0.91,4.24c1.38,1.17,3.76-0.14,4.65-1.07
						c18.95-19.99,44.72-34.27,73.47-40.8c28.26-6.42,58.96-4.57,87.19,4.61c15.39,5,30.1,12.34,41.84,22.9
						C1523.46,799.74,1529.06,794.49,1526.56,792.23L1526.56,792.23z"/>
				</g>
			</g>
			<g>
				<g>
					<path d="M1343.29,783.41c-25.85-9.06-54.21-18.31-81.65-14.25c-8.64,1.28-17.38,3.94-24.36,8.57
						c-4.06,2.69-7.69,5.93-11.08,9.28c-9.32,9.21-17.23,19.61-24.6,30.15c-9.69,13.86-18.43,28.3-26.56,43
						c-18.28,33.02-33.65,67.61-44.99,103.33c-5.34,16.81-9.76,33.94-12.39,51.39c-2.26,14.98-3.39,30.41-1.36,45.68
						c1.68,12.65,5.16,27.19,16.61,36.15c8.38,6.56,18.72,11.07,28.75,15.01c10.48,4.11,21.23,7.55,31.94,11.06
						c4.3,1.41,8.59,2.82,12.82,4.4c3.03,1.13,7.9-4.64,4.36-5.95c-19.87-7.39-40.68-12.47-59.63-21.99
						c-7.83-3.94-16.5-9.06-20.56-16.54c-2.81-5.17-4.75-10.73-6.04-16.3c-3.18-13.74-3.13-27.9-1.78-41.6
						c1.64-16.69,5.23-33.11,9.75-49.21c9.9-35.26,24.35-69.35,41.36-102.02c13.94-26.79,29.53-53.65,49.86-76.84
						c0.8-0.91-0.51,0.56,0.3-0.33c0.24-0.27,0.48-0.54,0.72-0.8c0.4-0.44,0.79-0.87,1.19-1.3c0.99-1.07,2.01-2.14,3.04-3.18
						c1.66-1.68,3.37-3.31,5.16-4.87c0.43-0.37,0.86-0.74,1.29-1.1c0.21-0.18,0.43-0.35,0.64-0.53c-0.86,0.7-0.14,0.11,0.04-0.03
						c0.81-0.62,1.62-1.24,2.46-1.83c0.71-0.49,1.43-0.96,2.17-1.41c0.26-0.16,1.61-0.89,0.48-0.29c0.43-0.23,0.86-0.45,1.29-0.66
						c23.37-11.27,52.84-4.9,77.43,2.69c6.36,1.96,12.66,4.11,18.94,6.31C1341.98,790.44,1346.82,784.65,1343.29,783.41
						L1343.29,783.41z"/>
				</g>
			</g>
		</g>
		<g id="Ebene_7">
			<g class="st11">
				<path d="M1258.83,996.53c-23.23,20.56-55.74,86.3-50.94,116.26c4.79,29.97,18.31,71.45,39.79,95.58
					c23.49,26.39,26.87,47.39,25.46,77.34c-4.03,85.23-52.99,186.39-40.78,234.95c2.12,8.43,14.92,13.46,21.63,19.85
					c6.72,6.4,63.63,8.62,59.28,0.81c-42.91-77.23-24.84-158.13-11.56-234.87c16.87-97.41-82.42-183.89-42.37-312.99"/>
				<g>
					<path d="M1256.96,994.94c-13.18,11.76-22.38,27.47-30.36,42.47c-9.06,17.04-16.81,35.2-20.68,54.03
						c-1.49,7.26-2.53,14.91-1.45,22.4c1.53,10.7,4.21,21.4,7.32,31.88c6.59,22.18,15.89,45.15,31.82,63.82
						c7.6,8.92,14.63,17.9,19.27,28.31c4.14,9.25,6.17,18.94,6.86,28.71c1.59,22.61-1.7,45.36-5.86,67.34
						c-8.56,45.19-23.83,88.8-32.63,133.92c-3.15,16.17-5.98,33.37-3.13,50.05c0.7,4.08,1.68,7.72,4.67,11.08
						c3.49,3.9,8.3,6.69,12.66,9.72c2.84,1.97,5.24,4.68,8.46,6.11c2.49,1.11,5.29,1.68,7.96,2.19c7.96,1.5,16.1,2.14,24.14,2.37
						c7.25,0.2,14.94,0.28,21.93-1.28c2.54-0.57,5.07-1.47,6.87-3.19c2.47-2.36,2.24-4.51,0.7-7.35
						c-6.23-11.45-11.31-23.35-15.22-35.5c-15.18-47.21-11.6-96.19-4.37-143.2c1.79-11.59,3.8-23.14,5.83-34.68
						c1.79-10.16,3.94-20.31,4.76-30.63c1.33-16.66-0.4-33.46-4.09-50.05c-7.74-34.85-22.75-68.29-33.81-102.47
						c-12.35-38.18-19.14-77.43-13.35-116.28c1.62-10.84,4.12-21.52,7.34-31.99c0.49-1.59-1.06-2.52-2.64-2.24
						c-1.97,0.36-3.42,2.11-3.93,3.75c-12.01,38.98-12.15,79.85-2.5,120.28c8.36,35.04,23.01,68.7,34.18,103.16
						c5.2,16.05,9.53,32.33,11.47,48.83c0.97,8.23,1.34,16.49,0.97,24.7c-0.42,9.37-2.18,18.53-3.8,27.73
						c-8.1,45.91-16.69,92.51-12.12,139.73c2.28,23.66,8.06,47.29,18.2,69.65c1.28,2.83,2.63,5.64,4.06,8.43
						c0.72,1.41,1.45,2.81,2.2,4.21c0.32,0.6,0.97,2.6,1.52,2.84c-0.35-0.15,0.14-1.19,0.46-1.65c0.3-0.45,0.63-0.88,1.11-0.91
						c-1.27,0.09-1.12,0.52-2.57,0.84c-6.65,1.48-14.02,1.29-20.92,1.08c-7.73-0.24-15.63-0.79-23.27-2.36
						c-2.42-0.5-5.11-1.04-7.31-2.2c-0.49-0.26-1.76-1.43-2.55-2.09c-2.13-1.77-4.47-3.32-6.78-4.88c-4.03-2.72-8.73-5.6-11.33-9.58
						c-2.02-3.09-2.35-6.96-2.77-10.4c-0.93-7.73-0.67-15.51,0.1-23.15c1.97-19.55,6.76-38.72,11.67-57.68
						c5.79-22.38,12.11-44.62,17.54-67.09c5.47-22.67,10.17-45.61,12.14-68.93c1.68-19.81,2.26-40.55-5.95-59.86
						c-4.26-10.02-10.71-19.25-18.1-27.75c-7.75-8.92-13.99-18.47-19.14-28.72c-10.56-21-17.45-43.58-21.17-66.04
						c-2.65-16.01,2.95-32.63,8.57-47.26c6.82-17.75,15.63-35.05,26.79-50.78c4.1-5.77,8.53-11.42,13.93-16.24
						c1-0.89,2.3-3.06,0.91-4.24C1260.17,992.66,1257.92,994.08,1256.96,994.94L1256.96,994.94z"/>
				</g>
			</g>
			<g class="st11">
				<path d="M1242.52,777.58c-68.65,62.14-105.9,152.52-120.73,240.61c-2.94,17.49-1.15,39.68,4.3,57.1
					c5.45,17.41,46.48,35.29,66.1,43.33C1173.47,999.87,1179.68,876.81,1242.52,777.58"/>
				<g>
					<path d="M1240.65,776c-21.89,19.86-40.61,42.46-56.31,66.67c-15.99,24.68-28.99,50.95-39.37,78.12
						c-10.3,26.98-18.14,54.82-23.72,83.1c-2.79,14.13-4.87,28.08-3.93,42.65c0.47,7.22,1.47,14.45,3.1,21.59
						c1.17,5.13,2.22,10.48,5.48,15.02c6.15,8.56,16.04,14.8,25.46,20.16c10.29,5.86,21.1,10.89,32.07,15.55
						c2.18,0.93,4.38,1.84,6.58,2.75c2.45,1.01,5.85-2.42,5.53-4.46c-7.23-46-10.78-92.38-8.68-138.38
						c2.06-45.17,9.67-90.15,25.14-132.6c8.59-23.55,19.54-46.32,33.07-67.74c0.7-1.1,1.5-3.08-0.36-3.8c-1.69-0.66-4,1-4.72,2.16
						c-24.53,38.84-40.86,81.67-50.14,126.07c-9.41,45.05-11.79,91.5-9.43,137.79c1.35,26.53,4.28,53.06,8.43,79.49
						c1.84-1.49,3.68-2.98,5.52-4.47c-9.97-4.09-19.84-8.42-29.4-13.31c-10.18-5.21-20.59-11.1-28.65-18.91
						c-3.04-2.95-5.68-6.23-6.99-10.07c-2.26-6.61-3.49-13.55-4.39-20.35c-1.89-14.27-1.25-28.13,1.27-42.08
						c5-27.63,12.06-54.9,21.56-81.36c9.53-26.53,21.41-52.37,36.25-76.67c14.61-23.93,31.99-46.46,52.58-66.44
						c2.55-2.47,5.15-4.9,7.78-7.29c0.99-0.9,2.3-3.05,0.91-4.24C1243.86,773.72,1241.61,775.13,1240.65,776L1240.65,776z"/>
				</g>
			</g>
			<g class="st11">
				<path d="M1470.53,770.62c-27.78-2.3-55.35,2.88-80.9,11.43c-25.55,8.55-49.37,20.41-73.24,31.99
					c30.34-40.15,91.44-58.69,145.35-44.13"/>
				<g>
					<path d="M1471.99,767.53c-44.03-3.5-85.44,10.91-122.95,28.1c-11.05,5.06-21.94,10.41-32.85,15.7
						c0.92,1.18,1.83,2.35,2.75,3.53c22.97-30.15,63.74-47.22,105.21-46.79c11.92,0.13,23.82,1.72,35.41,4.81
						c3.16,0.84,7.88-5.02,4.36-5.95c-43.5-11.61-91.12-2.44-124.87,21.9c-9.68,6.98-18.18,15.17-25.2,24.38
						c-1.55,2.03-0.3,5.01,2.75,3.53c36.9-17.91,74.44-36.81,117.22-42.21c11.6-1.47,23.45-1.77,35.26-0.83
						C1472.19,773.96,1476.29,767.88,1471.99,767.53L1471.99,767.53z"/>
				</g>
			</g>
			<g class="st11">
				<path d="M1484.01,804.03c19.3,40.67,191.05,80.63,255.67,142.16c-64.08-27.34-159.94-61.66-228.81-73.74
					c-10.99-1.93-42.99-4.07-42.99-4.07s-8.18-17.38-9.85-27.29c-2.74-16.26,12.37-29.17,25.97-40.52"/>
				<g>
					<path d="M1480.84,806.16c5.07,10.53,16.79,18.18,27.1,24.36c15.83,9.49,32.89,17.23,49.88,24.73
						c41.47,18.31,84.05,34.71,123.92,56.03c19.74,10.55,39.24,22.46,55.17,37.56c1.65-1.88,3.31-3.75,4.96-5.63
						c-38-16.2-76.82-30.8-116.16-43.77c-20.62-6.8-41.42-13.13-62.43-18.69c-17.78-4.71-35.99-9.39-54.22-11.89
						c-13.17-1.81-26.49-2.68-39.71-3.57c0.57,0.32,1.14,0.64,1.72,0.95c-3.95-8.42-8.07-17.42-9.64-26.37
						c-2.84-16.18,12.96-28.12,24.45-37.72c1.03-0.86,2.27-3.08,0.91-4.24c-1.46-1.24-3.65,0.24-4.65,1.07
						c-12.74,10.64-29.07,23.94-27.7,41.52c0.49,6.36,3.09,12.82,5.49,18.87c1.48,3.75,3.06,7.47,4.79,11.15
						c0.31,0.65,1.01,0.9,1.72,0.95c11.61,0.78,23.25,1.66,34.83,2.96c17.25,1.95,34.46,6.31,51.27,10.62
						c41.76,10.69,82.75,24.4,123.03,39.43c20.84,7.78,41.51,15.98,61.94,24.69c2.7,1.15,7.2-3.5,4.96-5.63
						c-14.01-13.29-30.83-24.04-48.02-33.65c-19.64-10.99-40.15-20.6-60.83-29.77c-20.66-9.16-41.57-17.83-62.31-26.83
						c-17.66-7.66-35.44-15.43-52.16-24.8c-7.19-4.02-14.26-8.37-20.56-13.5c-4.63-3.77-8.92-7.98-11.39-13.1
						C1485.7,798.8,1479.52,803.43,1480.84,806.16L1480.84,806.16z"/>
				</g>
			</g>
			<g class="st11">
				<path d="M1446.51,872.89c-19.46,8.02-30.93,34.95-24.55,50.68c6.39,15.73,20.11,50.06,38.22,48.2
					c17.25-1.77,45.69,7.3,64.04,8.91c81.45,7.15,140.03,59.83,215.35,96.64c-2.44-29.29-63.64-80.68-93.64-92.88
					c-71.69-29.14-151.87-54.79-197.04-112.39"/>
				<g>
					<path d="M1446.3,870.18c-11.59,4.91-19.92,14.67-24.77,25.12c-4.32,9.31-6.64,20.5-2.65,30.61
						c4.09,10.37,8.54,20.81,14.63,30.47c4.86,7.71,12.32,18.05,23.24,18.52c2.8,0.12,5.59-0.34,8.41-0.27
						c3.43,0.08,6.86,0.42,10.27,0.87c7.46,0.98,14.84,2.53,22.22,4.01c6.95,1.4,13.92,2.84,20.95,3.77
						c8.07,1.06,16.12,1.7,24.15,3.2c33.11,6.21,63.86,20.25,92.82,36.3c30.17,16.72,59.02,35.38,89.68,51.35
						c4.03,2.1,8.08,4.14,12.16,6.14c2.47,1.21,5.7-2.55,5.53-4.46c-0.71-7.66-4.48-15.05-8.83-21.74
						c-5.59-8.6-12.48-16.57-19.82-24.07c-14.9-15.25-32.04-29.39-50.84-40.65c-8.52-5.1-17.46-8.8-26.74-12.5
						c-13.23-5.27-26.52-10.43-39.73-15.74c-26.05-10.47-52.03-21.5-76.31-35.25c-26.47-14.99-50.79-33.4-68.97-56.48
						c-1.87-2.37-7.65,2.65-5.56,5.3c32.78,41.6,83.97,66.66,134.06,87.33c12.92,5.33,25.95,10.44,38.97,15.57
						c10.79,4.25,22.05,8.06,32.28,13.42c18.61,9.75,35.38,23.33,50.2,37.32c8.71,8.23,17.01,17,23.78,26.57
						c5.1,7.2,10.05,15.4,10.83,23.89c1.84-1.49,3.68-2.98,5.52-4.47c-30.5-14.94-58.99-32.97-88.25-49.83
						c-27.59-15.9-56.29-30.88-87.49-39.56c-7.94-2.21-15.99-4-24.12-5.32c-7.39-1.2-14.83-1.68-22.23-2.77
						c-14.12-2.08-27.97-5.85-42.14-7.63c-3.27-0.41-6.55-0.72-9.83-0.78c-2.7-0.05-5.37,0.39-8.05,0.28
						c-4.46-0.19-8.34-3.02-11.34-5.87c-8.39-7.99-13.42-18.84-17.86-28.79c-2-4.48-4.07-9.02-5.68-13.6
						c-1.58-4.5-1.51-9.39-0.74-13.9c1.73-10.14,7.11-20.42,15.79-26.99c2.11-1.6,4.39-2.92,6.9-3.98c1.58-0.67,3.36-2.47,3.13-4.19
						C1449.61,869.64,1447.69,869.59,1446.3,870.18L1446.3,870.18z"/>
				</g>
			</g>
			<g class="st11">
				<path d="M1447.56,971.65c-40.99-4.25-58.02,24.53-56.6,49.81c0.91,16.15,17.65,39.63,33.68,47.78
					c11.38,5.79,26.78,2.38,39.58,3.12c79.48,4.61,182,63.09,239.4,115.11c8.74,7.92-22.08-53.81-63.84-79.96
					c-52.83-33.08-178.11-36.18-188.59-127.83"/>
				<g>
					<path d="M1449.02,968.56c-14.44-1.42-28.96,1.12-40.19,9.01c-9.81,6.89-16.27,16.85-19.33,27.76
						c-3.28,11.73-2.34,23.68,3.4,35.12c3.5,6.98,8.21,13.61,13.76,19.5c4.96,5.28,11.05,10.57,18.18,13.33
						c8.55,3.31,18.16,2.56,27.01,2.22c8.28-0.31,16.46,0.19,24.75,1.26c16.11,2.08,32.03,6.03,47.51,10.94
						c34.02,10.81,66.42,26.4,96.73,44.36c14.9,8.83,29.35,18.3,43.25,28.4c6.6,4.8,13.09,9.75,19.41,14.85
						c5.92,4.78,11.37,10.12,17.35,14.81c3,2.36,6.91,0.09,7.54-3.06c0.44-2.17-0.9-4.74-1.8-6.76c-4.09-9.2-9.78-17.99-15.66-26.41
						c-15.11-21.6-33.98-42.63-59.28-55.05c-20.06-9.84-42.08-15.96-63.34-22.97c-22.94-7.57-46.22-15.75-66.58-28.42
						c-20.43-12.72-36.32-30-43.35-51.38c-1.93-5.87-3.12-11.86-3.83-17.89c-0.45-3.8-7.01,0.17-6.68,2.98
						c2.6,22.17,12.86,42.91,31.13,58.95c17.04,14.97,38.69,24.98,60.29,33.11c21.62,8.13,43.93,14.37,65.63,22.27
						c9.29,3.38,18.58,7.07,27.21,11.8c11.87,6.5,22.1,15.35,31.15,24.78c9.58,9.98,18,20.83,25.41,32.14
						c4.73,7.23,9.67,14.87,12.58,22.81c0.17,0.46,0.34,0.93,0.46,1.4c-0.24-0.92,0.1,0.62,0.06,0.61
						c-0.72-0.26,4.91-4.24,4.88-3.92c0.01-0.15,0.59,0.59,0.17,0.05c-0.16-0.19-0.49-0.43-0.68-0.59
						c-5.58-4.8-11.04-9.68-16.78-14.33c-12.37-10-25.32-19.41-38.69-28.28c-28.4-18.84-58.79-35.51-90.73-48.7
						c-29.27-12.09-60.61-21.72-92.4-23.89c-8.99-0.61-17.84,0.58-26.81,0.12c-8.38-0.42-15.14-3.22-21.48-8.33
						c-11.6-9.34-21.6-23.27-24.35-36.93c-4.11-20.37,7.68-43.1,30.22-48.47c6.8-1.62,13.92-1.75,21.01-1.05
						C1449.22,975.05,1453.33,968.99,1449.02,968.56L1449.02,968.56z"/>
				</g>
			</g>
			<g class="st11">
				<path d="M1395.61,1077.78c-21.29,9.05-36.69,40.53-26.89,56.66c5.54,9.1,23.81,22.6,34.24,27.04
					c62.17,26.5,98.64,29.03,160.81,55.54c-37.72-18.84-127.53-56.3-165.23-136.7"/>
				<g>
					<path d="M1395.4,1075.07c-14.98,6.52-25.53,20.38-30.4,34.45c-2.22,6.42-3.55,13.55-2.01,20.4
						c1.55,6.89,6.45,12.28,11.97,17.23c6.59,5.92,14.06,11.27,22.08,15.5c4.7,2.48,9.79,4.37,14.74,6.35
						c5.62,2.26,11.28,4.41,16.97,6.48c19.9,7.23,40.26,13.11,60.58,19.13c24.56,7.28,48.76,15.37,72.27,25.37
						c2.93,1.25,7.79-4.25,4.36-5.95c-20.61-10.28-41.46-19.99-61.2-31.7c-26.71-15.85-51.64-34.62-71.73-57.17
						c-12.8-14.37-23.38-30.17-31.31-46.99c-1.46-3.09-7.65,1.53-6.35,4.27c13.81,29.27,35.74,55.09,62.18,76.49
						c22.05,17.85,46.88,32.55,72.58,45.59c10.42,5.29,21.02,10.24,31.47,15.46c1.45-1.98,2.91-3.97,4.36-5.95
						c-20.21-8.59-40.95-15.88-62.02-22.29c-18.87-5.75-37.91-11-56.62-17.25c-10.51-3.51-20.91-7.31-31.18-11.43
						c-8.94-3.59-17.15-7.25-24.92-12.73c-6.7-4.72-13.86-10.18-18.45-16.7c-3.58-5.07-4.23-11.07-3.43-16.73
						c2.02-14.42,11.76-30.02,26.48-36.42c1.58-0.69,3.36-2.46,3.13-4.19C1398.72,1074.55,1396.79,1074.47,1395.4,1075.07
						L1395.4,1075.07z"/>
				</g>
			</g>
			<g class="st11">
				<path d="M1448.11,1255.71c-5.37,3.75-3.89,12.07,1.14,16.68c5.02,4.6,12.25,6.44,19.1,8.09
					c42.59,10.23,85.18,20.46,127.77,30.69c16.54,3.97,33.45,7.98,50.25,7.04c16.8-0.94,33.79-7.73,41.5-20.83
					c-80.49-6.89-160.61-21.79-238.4-44.34"/>
				<g>
					<path d="M1447.05,1253.48c-5.71,4.35-7.37,11.43-3.61,17.78c4.05,6.85,12.75,9.71,20.48,11.64c20.55,5.13,41.2,9.91,61.8,14.85
						c20.75,4.99,41.51,9.97,62.26,14.96c19.09,4.59,38.92,10.01,58.56,8.48c17.67-1.38,35.33-8.86,43.87-22.99
						c0.81-1.34,1.51-3.69-1.08-3.91c-62.49-5.38-124.72-15.55-185.84-30.42c-17.38-4.23-34.66-8.84-51.83-13.81
						c-3.13-0.91-7.89,4.94-4.36,5.95c60.88,17.61,123.13,30.57,185.91,38.72c17.71,2.3,35.46,4.2,53.22,5.73
						c-0.36-1.31-0.72-2.61-1.08-3.91c-6.62,10.95-19.83,16.6-33.44,18.22c-17.49,2.08-35.48-2.25-52.58-6.35
						c-37.52-9-75.03-18.02-112.54-27.03c-5.41-1.3-10.83-2.59-16.24-3.9c-4.33-1.05-8.71-2.12-12.75-3.99
						c-3.7-1.71-7-4.25-8.63-7.74c-0.96-2.05-2.13-6.18,0.03-7.83c1.21-0.92,2.97-2.74,2.11-4.37
						C1450.47,1252.01,1448.09,1252.69,1447.05,1253.48L1447.05,1253.48z"/>
				</g>
			</g>
			<g class="st11">
				<g>
					<path d="M1163.83,1115.79c3.18,0.75,7.86-5.13,4.36-5.95C1165.01,1109.09,1160.33,1114.97,1163.83,1115.79L1163.83,1115.79z"/>
				</g>
			</g>
		</g>
		<g id="Ebene_8_1_">
			<g class="st11">
				<g>
					<path class="st0" d="M1619.63,849.66c-4-0.75-0.22-0.04,0.64,0.14c1.11,0.23,2.22,0.47,3.33,0.72c1.9,0.43,3.79,0.89,5.67,1.38
						c0.94,0.25,1.88,0.53,2.82,0.75c-3.77-0.9-0.73-0.19,0.16,0.07c2.02,0.6,4.03,1.24,6.03,1.9c1.97,0.66,4.05,1.28,5.96,2.1
						c-3.09-1.34-0.04-0.01,0.47,0.2c0.91,0.36,1.8,0.72,2.7,1.09c3.89,1.6,7.7,3.34,11.47,5.17c2.89,1.4-1.99-1.06,0.85,0.43
						c0.86,0.45,1.71,0.89,2.56,1.34c1.84,0.99,3.66,2,5.47,3.05c3.47,2,6.87,4.12,10.18,6.33c0.79,0.53,1.59,1.07,2.38,1.61
						c-1.03-0.71,1.31,0.94,1.57,1.13c1.67,1.22,3.32,2.45,4.94,3.72c3.24,2.54,6.38,5.18,9.43,7.91
						c4.38,3.93,12.44,5.73,18.28,5.89c2.92,0.08,10.76-0.57,6.24-4.62c-29.21-26.21-66.92-42.79-106.45-50.16
						c-2.15-0.4-12.69-1.37-10.73,2.95c0.84,1.85,3.88,3.24,5.67,3.99C1612.59,848.18,1616.05,848.99,1619.63,849.66L1619.63,849.66
						z"/>
				</g>
			</g>
			<g class="st11">
				<g>
					<path class="st0" d="M1627.83,930.43c-4.25-0.79-0.44-0.08,0.6,0.14c1.13,0.24,2.26,0.49,3.39,0.75
						c1.13,0.26,2.25,0.54,3.37,0.82c0.56,0.14,1.12,0.29,1.68,0.44c1.87,0.49-0.51-0.14-1.08-0.31c2.21,0.69,4.43,1.31,6.62,2.02
						c1.1,0.36,2.19,0.73,3.28,1.11c0.55,0.19,1.09,0.38,1.63,0.58c0.43,0.16,2.77,1.13,0.85,0.31c-1.91-0.82,1.18,0.47,1.64,0.66
						c1.07,0.43,2.14,0.87,3.19,1.32c2.25,0.96,4.48,1.96,6.69,3.01c0.52,0.25,1.04,0.5,1.55,0.75c0.33,0.17,2,0.99,0.63,0.31
						c-1.37-0.69,0.29,0.15,0.61,0.32c0.51,0.26,1.02,0.53,1.52,0.8c2.15,1.14,4.28,2.33,6.37,3.55
						c8.64,5.06,13.57,8.51,21.06,14.75c6.88,5.72,13.48,12.12,19.06,18.68c6.3,7.42,11.92,15.75,16.49,24.23
						c0.97,1.81,3.84,3.19,5.67,3.99c3.16,1.4,6.97,2.45,10.39,2.89c1.91,0.24,13.02,1.29,10.73-2.95
						c-18.48-34.27-52.18-61.67-90.94-76.64c-13.11-5.06-26.53-8.77-40.37-11.36c-2.15-0.4-12.69-1.37-10.73,2.95
						c0.84,1.85,3.88,3.24,5.67,3.99C1620.8,928.95,1624.26,929.76,1627.83,930.43L1627.83,930.43z"/>
				</g>
			</g>
			<g class="st11">
				<g>
					<path class="st0" d="M1565.05,1010.73c2.62,0.81,5.23,1.66,7.82,2.54c1.44,0.49,2.88,1,4.31,1.51
						c0.57,0.21,1.14,0.42,1.72,0.63c2.98,1.08-2.7-1.05,0.27,0.09c5.25,2.03,10.43,4.18,15.55,6.5c2.48,1.13,4.95,2.29,7.4,3.49
						c0.68,0.33,1.36,0.67,2.03,1.01c-0.35-0.17-2.04-1.04-0.17-0.08c1.34,0.69,2.69,1.39,4.02,2.1c5.07,2.7,10.04,5.54,14.91,8.53
						c2.31,1.42,4.59,2.86,6.85,4.35c1.13,0.74,2.25,1.49,3.37,2.24c0.62,0.42,1.24,0.84,1.86,1.27c0.26,0.18,2.33,1.63,1.02,0.7
						c4.4,3.1,8.69,6.34,12.87,9.68c8.83,7.06,17.15,14.62,24.89,22.64c8.36,8.66,15.92,17.84,22.75,27.5
						c3.09,4.36,10.84,6.21,16.06,6.88c1.48,0.19,13.55,1.04,10.73-2.95c-26.87-38.01-65.17-68.83-109.41-89.68
						c-12.78-6.02-26.1-11.15-39.67-15.37c-3.4-1.06-7.04-1.88-10.59-2.04c-1.79-0.08-5.36-0.17-6.85,1.05
						C1553.05,1006.36,1563.33,1010.2,1565.05,1010.73L1565.05,1010.73z"/>
				</g>
			</g>
			<g class="st11">
				<g>
					<path class="st0" d="M1536.06,1138.02c1.36,0.23,3.14,0.81,4.5,0.81c-0.28,0-3.39-0.68-0.96-0.18c0.6,0.12,1.2,0.24,1.79,0.37
						c2.98,0.62,5.96,1.3,8.92,2.03c1.48,0.36,2.96,0.74,4.43,1.13c0.59,0.16,1.18,0.32,1.77,0.48c2.46,0.67-0.79-0.13-0.94-0.26
						c0.73,0.61,3.43,1,4.38,1.29c1.46,0.44,2.91,0.9,4.36,1.37c2.61,0.84,5.2,1.73,7.77,2.66c0.57,0.21,1.15,0.41,1.72,0.62
						c0.2,0.07,3,1.17,0.99,0.36c-2.02-0.81,0.78,0.31,0.98,0.39c0.85,0.33,1.7,0.67,2.54,1.01c5.36,2.16,10.63,4.49,15.81,7
						c1.09,0.53,2.18,1.06,3.26,1.6c-2.19-1.09-0.32-0.15,0.23,0.13c0.67,0.35,1.34,0.7,2.01,1.05c2.54,1.34,5.06,2.71,7.55,4.13
						c4.98,2.84,9.85,5.83,14.61,8.98c1.12,0.75,2.25,1.5,3.36,2.26c0.49,0.34,0.98,0.68,1.48,1.02c-1.23-0.86,0.34,0.25,0.64,0.46
						c2.31,1.65,4.59,3.34,6.83,5.06c4.49,3.45,8.84,7.04,13.05,10.76c9.3,8.23,17.9,17.12,25.52,26.61
						c3.45,4.3,10.59,6.17,16.06,6.88c2.78,0.36,5.94,0.76,8.59-0.03c1.18-0.35,3.34-1.43,2.14-2.93
						c-30.81-38.37-74.52-67.21-123.39-83.61c-14.78-4.96-29.96-8.65-45.32-11.29c-2.14-0.37-12.7-1.39-10.73,2.95
						c0.84,1.85,3.88,3.24,5.67,3.99C1529,1136.53,1532.48,1137.4,1536.06,1138.02L1536.06,1138.02z"/>
				</g>
			</g>
			<g class="st11">
				<g>
					<path class="st0" d="M1381.23,810.13c6.78-3.52,14.12-6.07,21.83-7.73c4.33-0.93,5.82-1.14,10.28-1.51
						c2.13-0.18,4.27-0.27,6.42-0.33c3.06-0.08-2.3-0.09,0.77,0.01c1.23,0.04,2.46,0.07,3.69,0.14c2.78,0.14,10.79-0.72,6.24-4.62
						c-4.51-3.87-12.42-5.6-18.28-5.89c-20.09-1.01-39.69,2.7-56.7,11.52c-1.66,0.86-0.25,2.77,0.61,3.57
						c1.87,1.76,5.25,3.09,7.68,3.85C1368.88,810.73,1376.35,812.65,1381.23,810.13L1381.23,810.13z"/>
				</g>
			</g>
			<g class="st11">
				<g>
					<path class="st0" d="M1282.1,799.65c3.72,0.22,7.44,0.44,11.16,0.66c1.75,0.1,5.4,0.16,6.85-1.05c1.32-1.1,0.61-2.53-0.61-3.57
						c-4.54-3.91-12.39-5.54-18.28-5.89c-3.72-0.22-7.44-0.44-11.16-0.66c-1.75-0.1-5.4-0.16-6.85,1.05
						c-1.32,1.1-0.61,2.53,0.61,3.57C1268.36,797.66,1276.21,799.3,1282.1,799.65L1282.1,799.65z"/>
				</g>
			</g>
			<g class="st11">
				<g>
					<path class="st0" d="M1389.66,1261.09c-5.54,32.43-12.06,64.68-19.57,96.69c-3.79,16.17-7.84,32.28-12.13,48.32
						c-3.7,13.84-7.32,27.77-12.79,41.08c-5.78,14.05-13.79,27.19-26.37,37.06c-3.78,2.97,6.3,6.8,8.29,7.42
						c3.4,1.07,7.03,1.94,10.59,2.04c2.14,0.06,5.17,0.26,6.85-1.05c23.32-18.29,31.54-46.62,38.73-73.01
						c8.74-32.05,16.48-64.36,23.2-96.89c3.8-18.36,7.27-36.78,10.43-55.27c0.28-1.64-2.05-3.17-3.29-3.92
						c-2.69-1.63-6.27-2.82-9.34-3.5c-3.2-0.71-6.68-1.38-9.92-1.03C1392.87,1259.2,1389.95,1259.4,1389.66,1261.09L1389.66,1261.09
						z"/>
				</g>
			</g>
		</g>
	</g>
</g>
</svg>
