<?xml version="1.0" encoding="utf-8"?>
<!-- Generator: Adobe Adobe Illustrator 24.2.0, SVG Export Plug-In . SVG Version: 6.00 Build 0)  -->
<svg version="1.1" xmlns="http://www.w3.org/2000/svg" xmlns:xlink="http://www.w3.org/1999/xlink" x="0px" y="0px"
	 viewBox="0 0 2000 2000" style="enable-background:new 0 0 2000 2000;" xml:space="preserve">
<style type="text/css">
	.st0{fill:#91615E;}
	.st1{fill:#2E1B13;}
	.st2{fill:#F0C1A1;}
	.st3{fill:#CA354F;}
	.st4{fill:#FFFFFF;stroke:#FFFFFF;stroke-width:0.8356;stroke-miterlimit:10;}
	.st5{opacity:0.3098;}
	.st6{fill:#C9354E;}
	.st7{fill:#F3C058;}
	.st8{fill:#F3C057;}
	.st9{fill:#F3C056;}
	.st10{fill:#CA5A7C;}
	.st11{opacity:0.102;}
	.st12{fill:#FFFFFF;}
	.st13{opacity:0.149;}
	.st14{fill:#F4F5E9;}
	.st15{fill:#F4F6E7;}
	.st16{fill:#6379B8;}
	.st17{fill:#6379B7;}
	.st18{fill:#6279B7;}
	.st19{fill:#C9316C;}
	.st20{fill:#C9316B;}
	.st21{fill:#CA316C;}
	.st22{fill:#F2C056;}
</style>
<g id="Ebene_13">
	<g>
		<g>
			<path d="M709.06,1609.71c-9.03,3.75-19.6-8.04-25.46-13.4c-7.1-6.49-13.93-13.49-19.07-21.66c-12.88-20.45-6.27-42.6-0.14-64.15
				c6.6-23.17,13.19-46.34,19.79-69.52c3.25-11.43,6.51-22.85,9.76-34.28c1.04-3.66,1.73-9.07,4.28-12.07
				c3.37-3.96,10.95-2.22,15.4-1.62c24.25,3.24,47.31,12.1,67.88,25.27c4.13,2.64,10.33-7.8,6.08-10.52
				c-20.59-13.18-43.82-22.12-68.05-25.62c-11.13-1.61-21.64-1.47-27.96,9.29c-2.81,4.79-4.11,10.22-5.61,15.51
				c-1.9,6.67-3.8,13.33-5.69,20c-7.59,26.66-15.18,53.33-22.77,79.99c-6.83,23.99-15.37,49.34-2.8,72.97
				c5.59,10.49,14.12,19.01,22.82,26.94c8.79,8.01,19.01,18.17,31.7,12.9C713.57,1617.92,715.74,1606.93,709.06,1609.71
				L709.06,1609.71z"/>
		</g>
	</g>
	<g>
		<path class="st0" d="M679.33,617.62c-100.02-89.69-289.91-20.65-410.39,136.67c-132.3,172.75-63.35,673.81,332.81,747.01
			c82.35,15.22,152.7,56.9,174.6,323.49c207.65-222.65,241.87-484.35,305.31-752.14C1126.93,881.57,935.89,639,842.9,598.94
			c-43.31-18.66-140.21-25.73-159.45,19.88"/>
		<g>
			<path d="M682.37,612.36c-49.44-43.94-118.95-47.18-180.22-30.45c-77.92,21.28-147,70.73-201.58,129.19
				c-20.6,22.06-40.28,45.58-54.55,72.32c-10.54,19.75-18.68,40.74-24.88,62.24c-14.21,49.25-19.16,100.98-17.66,152.12
				c1.67,56.9,11.36,113.71,28.52,167.98c17.87,56.52,44.04,110.7,78.82,158.78c35.96,49.71,81.36,92.64,133.94,124.38
				c27.96,16.88,57.81,30.56,88.78,40.91c16.27,5.44,32.83,10.01,49.59,13.7c11.2,2.46,22.54,4.25,33.67,7
				c36.18,8.95,66.76,28.33,88.44,58.93c15.31,21.6,25.86,46.22,34.07,71.28c11.98,36.58,19.24,74.64,24.61,112.69
				c3.46,24.51,6,49.14,8.04,73.8c0.38,4.55,4.41,3.1,6.62,0.72c84.88-91.24,147.97-199.14,191.84-315.48
				c41.83-110.94,67.29-227.05,93.05-342.51c6.61-29.6,13.24-59.19,20.16-88.71c5.61-23.92,9.29-47.69,9.23-72.33
				c-0.11-49.71-12.33-98.96-30.54-144.98c-18.65-47.14-43.69-91.77-73.01-133.07c-25.26-35.58-53.85-69.24-86.56-98.22
				c-12.63-11.19-25.98-21.77-40.48-30.47c-14.13-8.48-29.38-13.99-45.45-17.59c-21.65-4.85-44.25-6.8-66.39-5
				c-19.25,1.56-39.5,5.88-55,18.09c-7.01,5.52-12.28,12.62-15.85,20.76c-0.9,2.06-0.87,5.34,1.76,5.92c2.73,0.6,5.1-3.27,5.94-5.2
				c7.2-16.4,27.08-23.1,43.28-26.28c21-4.11,42.97-3.44,64.07-0.45c17.86,2.53,35.86,6.75,52.02,14.96
				c13.31,6.76,25.57,15.54,37.17,24.89c32.09,25.87,59.93,57.16,84.82,89.9c29.61,38.94,55.37,81.15,75.43,125.8
				c20.03,44.58,34.97,92.3,38.96,141.2c1.89,23.09,1.34,46.42-2.56,69.28c-4.74,27.83-12.46,55.33-18.65,82.87
				c-25.23,112.15-48.64,225.12-86.03,334.02c-38.66,112.57-93.45,219-170.11,310.55c-10.21,12.19-20.76,24.09-31.59,35.73
				c2.21,0.24,4.41,0.48,6.62,0.72c-3.78-45.57-9.2-91.17-18.86-135.9c-6.7-30.99-15.45-61.8-28.82-90.63
				c-17.12-36.9-42.95-69.29-80.84-86.01c-15.43-6.81-31.84-10.96-48.36-14.07c-33.49-6.31-66.27-15.78-97.66-29.1
				c-57.22-24.29-108.79-60.75-151.02-106.34c-40.29-43.5-72.15-94.55-95.27-149.07c-22.34-52.66-37.06-108.7-43.75-165.5
				c-6.15-52.25-5.91-105.62,3.19-157.52c7.53-42.95,21.09-86.22,45.86-122.51c21.92-32.12,50.14-61.04,79.51-86.36
				c30.67-26.43,64.6-49.25,101.3-66.45c58.89-27.6,131.82-42.9,193.32-14.38c13.47,6.25,25.88,14.5,36.97,24.36
				C679.74,625.95,686.22,615.78,682.37,612.36L682.37,612.36z"/>
		</g>
	</g>
</g>
<g id="Ebene_14">
	<g>
		<path class="st1" d="M311.48,1673.9c-72.19,43.95-163.06,112.93-163.06,196.29c125.03,25.38,262.03,27.23,389.18,21.81
			c191-8.14,381.86-20.02,572.45-35.64c-20.77-49.25-48.76-95-82.61-135.05c-19.02-22.49-42.59-44.48-70.89-45.45
			c-29.02-1-53.97,20.12-77.81,37.88c-83.89,62.49-187.36,94.19-289.38,88.63s-201.96-48.31-279.52-119.59"/>
		<g>
			<path d="M311.4,1668.89c-31.28,19.07-61.74,39.93-89.13,64.35c-26.78,23.87-51.32,51.6-66.07,84.64
				c-7.69,17.23-12.05,35.84-12.17,54.74c-0.01,1.55,0.73,2.81,2.29,3.13c118.73,23.99,240.95,26.89,361.66,22.86
				c127.9-4.27,255.78-12,383.46-20.56c72.21-4.84,144.38-10.22,216.51-16.13c3.53-0.29,7.88-5.46,6.31-9.18
				c-12.7-29.99-27.94-58.87-45.82-86.1c-17.01-25.9-36.04-52.21-59.32-72.87c-10.76-9.55-22.98-17.56-36.98-21.39
				c-14.15-3.87-28.88-1.99-42.35,3.45c-13.89,5.61-26.24,14.25-38.21,23.13c-12.88,9.56-25.6,19.21-39.12,27.87
				c-53.1,34.03-113.22,56.74-175.62,66c-61.39,9.11-124.36,4.46-183.89-13.02c-59.26-17.4-114.79-47.38-162.32-86.76
				c-6.06-5.02-11.98-10.21-17.79-15.53c-3.37-3.09-9.87,7.04-6.08,10.52c45.36,41.54,98.79,74.03,156.75,94.69
				c57.33,20.43,118.49,29.21,179.23,24.58c61.9-4.71,122.5-22.46,177.36-51.5c13.88-7.35,27.37-15.41,40.41-24.15
				c12.85-8.62,25-18.17,37.51-27.25c12.22-8.87,25.4-17.43,40.2-21.17c14.69-3.71,29.53-1.39,42.89,5.56
				c26.88,13.99,46.65,40.7,64.2,64.61c19.17,26.11,35.89,54.02,49.95,83.2c3.71,7.7,7.2,15.49,10.53,23.36
				c2.1-3.06,4.2-6.12,6.31-9.18c-128.37,10.51-256.88,19.35-385.48,26.48c-64.13,3.56-128.28,6.77-192.45,9.39
				c-60.43,2.47-120.96,3.19-181.41,0.78c-67.85-2.71-135.68-9.36-202.29-22.82c0.76,1.04,1.53,2.08,2.29,3.13
				c0.19-32.33,14.83-61.89,34.46-86.86c21.48-27.33,48.41-50.1,76.46-70.42c15.48-11.21,31.52-21.62,47.84-31.57
				c2.42-1.47,4.45-4.52,4.3-7.44C315.73,1668.98,313.72,1667.47,311.4,1668.89L311.4,1668.89z"/>
		</g>
	</g>
</g>
<g id="Ebene_27">
	<g>
		<path class="st2" d="M570.37,1463.35c5.69,54.37,4.75,87.85-25.15,116.91c-29.9,29.06-70.51,41.37-109.93,50.64
			s-80.21,16.77-114.92,38.84c86.1,79.22,199.43,123.62,312.88,122.57s226.05-47.51,310.87-128.3
			c-34.58-20.82-74.43-28.53-113.05-38.22c-38.61-9.69-87.42-8.24-116.92-36.66c-29.5-28.42-36.74-90.74-19.59-129.08
			c-39.82,9.2-81.98,6.48-120.48-7.78"/>
		<g>
			<path class="st2" d="M565.99,1465.78c2.27,21.91,4.69,44.71,0.89,66.6c-3.14,18.11-11.79,33.48-25.27,45.94
				c-37.93,35.08-90.92,43.29-139.24,55.01c-28.58,6.93-57.01,15.65-82.09,31.4c-3.03,1.9-6.2,7.29-2.95,10.27
				c66.96,61.38,151.49,103.06,241.29,117.4c88.43,14.12,179.5-0.09,260.46-37.94c46.37-21.68,89.11-50.99,126.23-86.22
				c1.9-1.8,5.31-7.42,1.84-9.49c-24.9-14.82-52.7-23.26-80.62-30.31c-13.38-3.38-26.79-6.91-40.29-9.81
				c-12.07-2.59-24.31-4.29-36.48-6.3c-23.41-3.86-48.11-8.66-67.18-23.75c-17.07-13.5-25.96-34.84-30.12-55.67
				c-4.75-23.8-3.9-50.06,5.94-72.5c0.99-2.27,0.69-6.62-2.82-5.82c-39.31,8.9-80.61,6.25-118.47-7.58
				c-4.8-1.76-10.49,8.91-6.08,10.52c39.26,14.34,81.7,17.22,122.49,7.99c-0.94-1.94-1.88-3.88-2.82-5.82
				c-9.09,20.75-11.24,44.55-8.74,66.9c2.44,21.87,9.17,44.74,23.54,61.88c15.65,18.67,39.21,26.87,62.34,31.72
				c12.73,2.67,25.63,4.44,38.46,6.59c13.14,2.21,25.99,5.41,38.93,8.55c33.05,8.03,66.36,16.38,95.86,33.94
				c0.61-3.16,1.23-6.33,1.84-9.49c-64.63,61.34-146.4,103.8-234.15,119.9c-87.29,16.01-178.08,3.98-259-32.11
				c-46.29-20.65-89.02-48.85-126.37-83.09c-0.98,3.42-1.97,6.85-2.95,10.27c47.31-29.71,104.47-32.5,156.29-50.21
				c42.3-14.46,85.81-41.11,97.19-87.27c6.11-24.79,3.42-51.27,0.82-76.34C574.01,1453.74,565.51,1461.1,565.99,1465.78
				L565.99,1465.78z"/>
		</g>
	</g>
	<g>
		<g>
			<path class="st2" d="M774.25,1368.82c4.73,0,9.38-11.12,4.18-11.12C773.7,1357.7,769.06,1368.82,774.25,1368.82L774.25,1368.82z"
				/>
		</g>
	</g>
</g>
<g id="Ebene_23">
	<g>
		<g>
			<path d="M564.15,1465.92c1.58,38.59,4.14,86.53-23.59,117.37c-26.97,29.99-72.97,31.22-109.72,39.07
				c-85.49,18.27-167.14,57.73-223.86,125.78c-29.83,35.79-51.72,77.86-62.88,123.14c-0.58,2.34,0.6,4.92,3.28,4.44
				c2.9-0.51,4.75-4.13,5.36-6.64c20.45-82.98,79.6-151.22,153.76-191.75c39.96-21.84,83.62-36.08,128.14-45.12
				c37.79-7.67,80.12-10.72,108.37-40.29c32.79-34.32,31.83-86.73,30.02-130.94c-0.11-2.69-2.18-3.77-4.53-2.61
				C566.01,1459.6,564.04,1463.16,564.15,1465.92L564.15,1465.92z"/>
		</g>
	</g>
	<g>
		<g>
			<path d="M688.64,1466.07c-1.64,38.31-2.97,82.99,21.71,115.05c24.54,31.87,66.64,36.92,103.52,43.41
				c86.28,15.17,171.68,49.42,232.02,115c31.33,34.05,54.91,74.97,66.49,119.89c1.52,5.89,9.57-2.84,8.43-7.25
				c-20.7-80.29-78.34-146.35-149.72-186.65c-38.9-21.96-81.55-36.76-125.05-46.52c-20.09-4.51-40.5-7.24-60.65-11.46
				c-18.88-3.95-37.89-9.76-53.44-21.59c-37.76-28.74-36.38-82.07-34.55-124.73c0.12-2.71-2.3-3.64-4.46-2.58
				C690.31,1459.92,688.76,1463.28,688.64,1466.07L688.64,1466.07z"/>
		</g>
	</g>
	<g>
		<g>
			<path d="M145.38,1875.44c55.19,22.39,115.4,24.12,174.15,23.69c62.7-0.46,125.38,0.14,188.08,0.34
				c129.93,0.41,259.98-1.06,389.63-10.29c72.33-5.15,144.51-12.72,216.21-23.63c4.49-0.68,8.27-11.87,2.06-10.93
				c-128.12,19.5-257.58,28.18-387.05,31.66c-64.33,1.73-128.68,2.2-193.02,2.12c-62.81-0.08-125.63-1.35-188.44-0.63
				c-65.52,0.75-133.73,2.22-195.54-22.86C146.73,1863,140.96,1873.65,145.38,1875.44L145.38,1875.44z"/>
		</g>
	</g>
	<g>
		<g>
			<path d="M313.66,1681.16c68.76,61.84,155.11,103.54,246.62,117.55c90.1,13.79,182.74-1.13,265.03-39.91
				c47-22.15,90.32-51.96,128-87.71c1.9-1.8,4.06-5.17,3.05-7.93c-0.94-2.57-3.7-2.28-5.46-0.61
				c-65.74,62.38-148.75,105.71-237.92,122.48c-88.94,16.72-181.64,5-264.4-31.29c-47.06-20.63-90.59-48.85-128.78-83.2
				C316.34,1667.43,309.79,1677.68,313.66,1681.16L313.66,1681.16z"/>
		</g>
	</g>
</g>
<g id="Ebene_15">
</g>
<g id="Ebene_24">
</g>
<g id="Ebene_3">
	<g>
		<path class="st2" d="M281.45,951.39c-40.01-14.51-88.55-0.23-114.53,33.7c-25.98,33.93-27.38,84.86-3.31,120.18
			c24.07,35.32,71.75,52.29,112.5,40.04c24.71,65.67,56,129.59,100.41,183.72s102.82,98.18,169.92,117.16
			c93.59,26.47,227.47-2.25,285.16-45.89c99.72-75.44,137.4-254.39,137.4-254.39s91.27,2.01,116.4-32.46
			c25.12-34.47,23.4-104.37-5.39-135.79c-20.92-22.83-68.7-29.46-119.24-23.92c-17.88-42.1-23.92-76.09-26.22-117.37
			c-106.78,11.7-216.61-69.22-242.19-174.35C560.06,841.98,337.62,824.27,337.62,824.27s-3.36,108.59-53.49,128.49"/>
		<g>
			<path class="st2" d="M284.58,945.96c-50.46-17.85-108.87,6.96-131.73,55.19c-11.44,24.14-14.04,52.41-7.08,78.23
				c6.86,25.46,23.45,47.07,46.12,60.48c24.81,14.68,55.38,19.2,83.15,11.09c-1.1-0.63-2.19-1.27-3.29-1.9
				c30.81,81.7,72.02,161.94,136.13,222.63c29.49,27.92,63.23,51.55,100.64,67.59c35.04,15.02,72.13,22.11,110.17,22.76
				c38.03,0.65,76.34-4.11,113.2-13.4c31.62-7.96,63.65-19.18,91.11-37.1c52.55-34.28,86.73-93.06,111.41-149.2
				c16.3-37.07,29.62-76.02,38.52-115.56c0.15-0.66,0.3-1.32,0.44-1.98c-2.18,2.28-4.37,4.57-6.55,6.85
				c15.04,0.32,30.24-0.82,45.14-2.75c23.43-3.03,50.43-8.31,68.64-24.54c21.1-18.8,27.19-52.17,26.88-79.06
				c-0.32-27.51-7.57-60.37-30.15-78.43c-13.73-10.98-31.94-15.84-49.01-18.41c-22.01-3.31-44.45-2.7-66.52-0.35
				c1.1,0.63,2.19,1.27,3.29,1.9c-15.74-37.31-23.75-75.79-26.05-116.14c-0.13-2.22-1.28-3.36-3.46-3.13
				c-83.46,8.83-166.62-38.89-211.09-108.16c-12.71-19.8-22.17-41.44-27.82-64.29c-0.91-3.69-5.26-1.41-6.66,0.48
				c-44.36,60.1-105.53,105.17-175.4,131.27c-46.72,17.45-96.66,27.28-146.52,28.79c-9.41,0.28-18.94,0.44-28.34-0.3
				c-3.95-0.31-6.57,4.99-6.67,8.24c-0.38,11.94-1.82,23.36-3.8,35.36c-3.59,21.74-9.04,44.28-20.68,63.25
				c-5.95,9.7-13.92,17.85-24.58,22.2c-4.49,1.84-6.73,13.16,0.17,10.33c22.58-9.23,35.47-33.37,43.19-55.18
				c7.47-21.1,11.52-43.43,13.63-65.67c0.48-5.09,0.94-10.2,1.1-15.31c-2.22,2.75-4.45,5.49-6.67,8.24
				c28.04,2.21,57.08-0.69,84.76-4.9c62.69-9.52,124.01-31.43,176.89-66.71c37.67-25.13,70.65-56.68,97.54-93.11
				c-2.22,0.16-4.44,0.32-6.66,0.48c20.62,83.46,91.92,151.15,174.91,171.47c23.12,5.66,46.9,7.27,70.57,4.77
				c-1.15-1.04-2.3-2.08-3.46-3.13c2.35,41.14,10.34,80.53,26.39,118.59c0.68,1.62,1.56,2.08,3.29,1.9
				c18.75-2,37.76-2.49,56.53-0.46c15.4,1.66,31.08,4.92,44.84,12.28c24.31,12.98,34.28,40.89,36.76,66.97
				c1.37,14.42,0.66,29.05-2.57,43.18c-2.57,11.22-6.88,23.72-14.95,32.25c-14.81,15.65-40.62,20.29-60.93,23.31
				c-15.88,2.36-32.15,3.62-48.21,3.28c-3.46-0.07-5.93,3.9-6.55,6.85c-6.63,31.42-16.97,62.17-28.79,92.17
				c-21.86,55.5-51.65,112.34-98.27,151.05c-23.39,19.42-51.95,31.64-80.73,40.69c-35.17,11.06-71.98,17.54-108.8,19.25
				c-36.44,1.69-73.57-1.18-108.43-12.46c-38.04-12.3-73.16-32.73-104.02-58.01c-66.35-54.35-111.01-130.12-143.41-208.49
				c-4.06-9.82-7.94-19.71-11.69-29.65c-0.54-1.43-1.68-2.37-3.29-1.9c-45.57,13.31-98.57-9.84-117.8-53.76
				c-9.76-22.29-11.21-48.49-3.57-71.64c7.56-22.93,23.75-41.1,45.25-51.95c23.66-11.94,52.19-14.39,77.26-5.52
				C283.29,958.58,289.13,947.57,284.58,945.96L284.58,945.96z"/>
		</g>
	</g>
</g>
<g id="Ebene_9">
	<g>
		<path class="st3" d="M683.84,1243.92c-6.37-13.19-28.35-12.03-35.6,0.7c-7.24,12.73-0.33,30.37,12.36,37.56s28.96,5.36,41.88-1.39
			c10.81-5.65,20.26-15.14,23.03-27.09c2.77-11.95-2.75-26.13-14.07-30.65c-11.32-4.52-26.47,4.35-26.04,16.61"/>
		<g>
			<path class="st3" d="M687.73,1239.19c-8-15.17-30.18-12.15-39.87-0.56c-12.37,14.79-7.45,38.2,8.48,48.29
				c18.57,11.77,44.47,3.88,59.36-10.31c13.81-13.16,21.83-36.91,7.43-52.81c-15.13-16.71-42.1-2.72-42.24,18.36
				c-0.02,2.78,2.3,3.79,4.61,2.66c2.64-1.29,4.41-4.83,4.43-7.68c0.03-5.45,5.5-8.47,10.36-9.3c6.39-1.1,12.42,1.86,16.31,6.89
				c8.77,11.33,5.21,25.71-5,34.64c-11.53,10.08-29.65,15.23-44.24,9.13c-10.7-4.47-22.06-19.01-16.3-31.16
				c5.31-11.2,23.84-8.29,28.9,1.3C682.39,1253.29,690.02,1243.54,687.73,1239.19L687.73,1239.19z"/>
		</g>
	</g>
</g>
<g id="Ebene_2">
	<g>
		<g>
			<path d="M290.94,946.29c-49.83-21.83-111.35-0.54-137.29,47.21c-12.83,23.63-17.13,51.54-12.02,77.93
				c5.08,26.25,20.43,49.23,42.36,64.44c24.22,16.8,55.05,23.42,83.89,17.03c4.56-1.01,8.37-12.65,2.12-11.27
				c-47.44,10.51-99.86-17.33-115.89-63.59c-8.02-23.14-7.38-49.04,1.81-71.74c9.14-22.58,27.21-39.9,49.58-49.26
				c25.05-10.48,54.25-10.81,79.18,0.11C289.47,959.25,295.5,948.29,290.94,946.29L290.94,946.29z"/>
		</g>
	</g>
	<g>
		<g>
			<path d="M958.53,959.5c26.62-2.9,54.31-5.86,80.47,1.64c22.44,6.44,42.44,20.98,51.17,43.18c8.57,21.82,9.57,48.42,6.03,71.42
				c-1.76,11.45-5.17,22.81-11.71,32.49c-6.42,9.49-15.64,16.65-25.75,21.86c-26.91,13.84-58.18,12.81-87.58,11.89
				c-4.88-0.15-9.74,11.3-4.31,11.47c29.12,0.92,59.07,1.52,86.33-10.31c24.05-10.43,41.45-30.17,48.67-55.36
				c7.06-24.65,6.86-53.32,0.96-78.2c-6.01-25.33-22.18-44.88-46.14-55.2c-30.43-13.11-64.01-9.64-96.02-6.14
				C956,948.74,952.04,960.21,958.53,959.5L958.53,959.5z"/>
		</g>
	</g>
	<g>
		<g>
			<path d="M264.59,1151.01c20.6,64.61,53.26,125.82,96.67,178.01c42.55,51.15,96.29,94.19,158.9,117.89
				c60.6,22.94,127.89,28.64,191.32,14.99c31.58-6.8,62.25-18.52,89.95-35.2c28.79-17.34,53.98-40.07,75.32-65.98
				c44.88-54.5,72.03-121.34,90.26-188.92c2.26-8.36,4.37-16.76,6.37-25.19c0.57-2.38-0.6-5-3.33-4.52
				c-2.93,0.52-4.85,4.2-5.46,6.75c-15.7,66.01-38.86,132.18-78.84,187.67c-19.44,26.98-42.77,51.52-70.14,70.56
				c-25.69,17.87-54.54,30.96-84.67,39.29c-61.26,16.94-127.74,14.71-188.18-4.61c-62.01-19.82-116.25-58.38-159.86-106.25
				c-44.61-48.97-79.06-107.33-101.91-169.43c-2.74-7.45-5.31-14.97-7.72-22.54C271.35,1137.46,263.16,1146.52,264.59,1151.01
				L264.59,1151.01z"/>
		</g>
	</g>
	<g>
		<g>
			<path d="M289.04,956.08c15.97-16.06,25.22-38.19,32.79-59.17c7.15-19.82,12.76-40.23,17.42-60.77c0.98-4.32,1.94-8.64,2.76-12.99
				c-2.18,2.28-4.37,4.57-6.55,6.85c28.12,1.64,57.11-1.78,84.75-6.46c62.36-10.55,123.21-33.09,175.82-68.45
				c37.74-25.37,70.89-57,98-93.51c-2.22,0.16-4.44,0.32-6.66,0.48c29.39,79.75,97.44,142.74,178.29,168.18
				c22.47,7.07,45.74,11.18,69.28,11.97c-0.79-1.08-1.57-2.15-2.36-3.22c2.54,40.21,9.21,80.79,23.82,118.49
				c2.33,6.02,10.4-3.08,8.7-7.47c-14.32-36.96-20.99-76.61-23.48-116.03c-0.09-1.38-0.66-3.17-2.36-3.23
				c-82.97-2.79-161.87-47.36-210.2-114.37c-13.72-19.02-24.88-39.77-32.99-61.79c-1.26-3.42-5.03-1.71-6.66,0.48
				c-44.74,60.24-106.17,105.61-176.11,132.47c-46.29,17.78-95.78,28.32-145.33,30.75c-9.36,0.46-18.84,0.8-28.21,0.25
				c-3.4-0.2-6.01,4.01-6.55,6.85c-6.1,32.11-15.04,64.93-29.04,94.51c-4.59,9.69-9.97,19.78-17.6,27.46
				c-1.9,1.91-4.17,5.23-3.12,8.1C284.4,958.03,287.27,957.86,289.04,956.08L289.04,956.08z"/>
		</g>
	</g>
	<g>
		<g>
			<path d="M599.59,1263.49c59.59,9.96,122.3-9.15,166.79-49.87c1.97-1.8,4.14-5.31,3.12-8.1c-0.97-2.66-3.76-2.29-5.58-0.63
				c-42.79,39.15-102.86,56.68-160.02,47.12C599.15,1251.23,594,1262.56,599.59,1263.49L599.59,1263.49z"/>
		</g>
	</g>
	<g>
		<g>
			<path d="M611.08,1051.79c17.86-14.52,45.69-1.9,47.72,20.54c0.92,10.13-3.17,19.32-12.42,24.02c-9.46,4.81-20.96,4.17-29.93-1.35
				c-4.33-2.67-10.68,8.14-6.27,10.85c11.72,7.21,27.05,6.71,38.7-0.48c12.14-7.5,19.22-21.18,19.09-35.38
				c-0.13-13.64-7.26-26.99-20.06-32.6c-13.14-5.75-28.25-3.32-39.28,5.66c-2.04,1.66-4.1,5.41-3.12,8.1
				C606.51,1053.93,609.2,1053.32,611.08,1051.79L611.08,1051.79z"/>
		</g>
	</g>
	<g>
		<path d="M553.06,952.08c-1.76-8.03,0.27-16.34,1.8-24.42c1.53-8.08,2.49-16.83-1.15-24.2c-3.64-7.36-13.57-12.05-20.31-7.41
			c-7.13,4.91-6.11,15.48-6.66,24.16c-0.44,6.91-2.37,13.63-3.4,20.48s-1.08,14.16,2.02,20.34c3.1,6.18,10.08,10.79,16.78,9.27
			c6.7-1.52,11.01-10.64,6.69-16.03"/>
		<g>
			<path d="M557.41,948.34c-3.01-16.37,8.43-33.1,0.42-49.12c-5.82-11.64-21.09-14.46-29.43-3.86c-4.04,5.13-5.31,11.51-5.76,17.87
				c-0.56,7.83-1.19,15.25-2.7,22.99c-2.63,13.54-3.7,33.55,12.46,39.14c13.83,4.78,28.81-13.4,20.32-25.83
				c-3.09-4.53-10.54,5.42-7.77,9.47c3.98,5.84-4.26,6.5-8.12,4.8c-6.66-2.93-9.4-10.1-9.6-16.94c-0.22-7.5,2.12-14.8,3.25-22.15
				c0.91-5.92,0.59-11.88,1.32-17.8c0.65-5.36,3.13-8.21,8.94-6.53c5.94,1.72,9.61,7.1,10.62,12.96c1.16,6.7-0.57,13.56-1.81,20.11
				c-1.42,7.5-2.24,14.8-0.85,22.36c0.54,2.97,4,1.9,5.58,0.63C556.6,954.57,557.94,951.26,557.41,948.34L557.41,948.34z"/>
		</g>
	</g>
	<g>
		<path d="M713.26,938.67c3.57-7.86,7.22-16.22,6.24-24.81c-0.98-8.59-8.55-17.03-17-15.55c-9.18,1.61-13.01,12.66-14.21,21.97
			c-1.28,9.96-1.61,20.05-0.97,30.08c0.46,7.18,2.47,15.72,9.23,18.03c5.94,2.03,12.52-2.39,15.17-8.12
			c2.65-5.73,2.37-12.34,2.05-18.65"/>
		<g>
			<path d="M717.23,939.04c5.63-12.48,11.77-29.37,0.93-40.98c-9.27-9.93-22.04-4.98-28.38,5.36c-7.36,12-7.49,28.31-7.28,41.91
				c0.15,10.01,0.76,28.4,14.46,29.28c7.07,0.45,13.55-4.99,17.02-10.68c4.58-7.51,4.72-16.3,4.3-24.82
				c-0.37-7.4-9.28,0.21-9.04,5.02c0.25,5.13,1.51,13.4-2.89,17.18c-4.27,3.67-9.7,1.28-12.07-3.16c-2.41-4.5-2.5-10.05-2.67-15.01
				c-0.24-7.06-0.03-14.15,0.74-21.18c0.83-7.61,3.32-22.53,14.58-16.98c13.45,6.64,6.9,23.23,2.36,33.3
				c-0.91,2.01-0.93,5.66,1.82,6.1C714.01,944.87,716.28,941.15,717.23,939.04L717.23,939.04z"/>
		</g>
	</g>
	<g>
		<g>
			<path d="M690.19,861.64c24.37-0.77,47.99,9.73,63.57,28.53c3.6,4.35,10.87-5.73,7.77-9.47c-16.39-19.79-41.28-31.35-67.03-30.53
				C689.62,850.33,684.91,861.81,690.19,861.64L690.19,861.64z"/>
		</g>
	</g>
	<g>
		<g>
			<path d="M491.62,887.89c15.36-17.7,39.65-25.53,62.57-21.67c4.75,0.8,9.91-10.52,4.31-11.47c-26.74-4.5-53.87,6.33-71.49,26.63
				c-1.54,1.78-3.35,5.81-1.58,7.99C487.29,891.65,490.21,889.51,491.62,887.89L491.62,887.89z"/>
		</g>
	</g>
	<g>
		<g>
			<path d="M990.37,989.41c33.16,5.01,60.91,34.11,63.92,67.62c0.66,7.41,9.47-0.19,9.04-5.02c-3.28-36.65-31.96-68.52-68.64-74.07
				C989.9,977.22,984.78,988.57,990.37,989.41L990.37,989.41z"/>
		</g>
	</g>
	<g>
		<g>
			<path d="M247.04,967.55c-41.32,5.49-73.31,48.29-68.91,89.35c0.79,7.4,9.55-0.19,9.04-5.02c-3.78-35.24,22.69-68.41,57.75-73.07
				C249.56,978.2,253.49,966.69,247.04,967.55L247.04,967.55z"/>
		</g>
	</g>
</g>
<g id="Ebene_8">
	<ellipse class="st4" cx="545.08" cy="910.52" rx="5.62" ry="5.66"/>
	<ellipse class="st4" cx="708.74" cy="915.39" rx="5.41" ry="5.45"/>
</g>
<g id="Ebene_10">
	<g class="st5">
		<path class="st3" d="M504.76,1227.85c-1.23-19.73-18.46-36.66-37.92-39.11c-19.46-2.46-39.45,8.59-49.48,25.57
			c-10.03,16.99-10.48,38.86-2.9,57.1c8.41,20.25,27.01,36.4,48.54,39.73c21.53,3.33,45.05-7.39,55.1-26.86s4.32-46.35-13.84-58.47"
			/>
		<g>
			<path class="st3" d="M509.27,1225.34c-2.21-27.06-27.86-46.42-54.48-41.94c-28.84,4.86-48.06,31.89-49.93,59.89
				c-1.86,27.95,13.68,56.2,39.18,68.34c24.22,11.53,53.77,4.82,70.88-15.85c18.24-22.03,16.97-58.42-7.54-75.42
				c-4.11-2.85-10.58,7.87-6.27,10.85c16.64,11.54,22.96,36.78,11.95,54.26c-11.82,18.78-38.07,24.81-58.11,17.28
				c-21.37-8.03-37.08-28.03-40.52-50.51c-3.63-23.71,7.41-48.05,31.15-55.83c23.85-7.81,52.5,7.67,54.65,33.93
				C500.84,1237.76,509.67,1230.16,509.27,1225.34L509.27,1225.34z"/>
		</g>
	</g>
	<g class="st5">
		<path class="st3" d="M881.54,1166.18c-1.23-19.73-18.46-36.66-37.92-39.11c-19.46-2.46-39.45,8.59-49.48,25.57
			c-10.03,16.99-10.48,38.86-2.9,57.1c8.41,20.25,27.01,36.4,48.54,39.73s45.05-7.39,55.1-26.86s4.32-46.35-13.84-58.47"/>
		<g>
			<path class="st3" d="M886.06,1163.67c-2.21-27.06-27.86-46.42-54.48-41.94c-28.84,4.86-48.06,31.89-49.93,59.89
				c-1.86,27.95,13.68,56.2,39.18,68.34c24.22,11.53,53.77,4.82,70.88-15.85c18.24-22.03,16.97-58.42-7.54-75.42
				c-4.11-2.85-10.58,7.87-6.27,10.85c16.64,11.54,22.96,36.78,11.95,54.26c-11.82,18.78-38.07,24.81-58.11,17.28
				c-21.37-8.03-37.08-28.03-40.52-50.51c-3.63-23.71,7.41-48.05,31.15-55.83c23.85-7.81,52.5,7.67,54.65,33.93
				C877.63,1176.09,886.45,1168.49,886.06,1163.67L886.06,1163.67z"/>
		</g>
	</g>
</g>
<g id="Ebene_11">
</g>
<g id="Ebene_12">
	<g>
		<g>
			<path class="st6" d="M107.38,1884.59c10.61-5.22,22.15-10.12,32.97-3.29c7.63,4.82,16.47,8.27,25.07,10.87
				c5.95,1.79,12.11,4.58,18.24,5.37c10.52,1.36,21.83-2.05,32.11-3.85c7.87-1.38,17.29-1.29,24.31-6.05
				c5.58-3.78,11.94-9.48,16.16-15c7.68-10.05,23.68-34.61,9.28-44.44c-4.81-3.28-8.98-2.91-14.28-4.06
				c-4.93-1.07-9.66-3.35-14.64-4.46c-9.08-2.02-18.31-3.35-27.41-5.26c-7.03-1.48-11.83-5.11-16.73-11.14
				c-3.07-3.77-4.24-9.01-7.47-12.58c-3.68-4.06-9.53-5.58-14.44-6.9c-8.34-2.25-18.29-3.62-26.82-1.61
				c-8.62,2.02-15.53,8.7-22.48,14.09c-6.11,4.75-11.06,9.76-15.15,16.54c-3.68,6.1-6.09,12.96-9.48,19.22
				c-3.92,7.24-8.25,13.18-13.12,19.84c-4.37,5.97-13,13.42-6.03,21.01c4.67,5.09,22.14,12.42,28.85,12.42"/>
			<g>
				<path d="M107.46,1889.6c8.72-4.25,18.86-8.78,28.3-3.94c8.61,4.42,16.65,8.65,25.96,11.57c10.02,3.14,18.94,6.84,29.67,5.96
					c9.7-0.8,19.08-3.57,28.71-4.79c9.29-1.18,16.94-3.12,24.47-8.91c6.65-5.11,12.32-11.22,17.11-18.08
					c7.37-10.55,16.49-25.18,13.52-38.69c-1.59-7.23-7.59-11.42-14.54-12.9c-4.37-0.94-8.6-1.44-12.87-2.87
					c-4.83-1.61-9.55-2.98-14.56-3.97c-9.27-1.83-20.76-1.96-28.99-6.92c-3.48-2.1-6.58-5.18-8.87-8.53
					c-2.48-3.64-3.65-8.07-6.6-11.4c-5.38-6.07-15-7.95-22.62-9.36c-8.88-1.64-18.5-1.83-26.9,1.89
					c-8.01,3.55-15.08,9.86-21.73,15.46c-7.13,6-12.94,13.26-17.12,21.59c-5.01,9.99-9.49,19.7-16.07,28.82
					c-5.06,7.02-12.89,14.12-13.73,23.19c-0.79,8.47,6.17,13.03,12.84,16.4c6.23,3.14,13.72,6.52,20.8,6.76
					c4.73,0.16,9.45-10.94,4.18-11.12c-5.53-0.19-11.06-2.53-16.02-4.79c-3.49-1.59-13.62-5.53-13.16-10.65
					c0.23-2.53,3.46-5.39,4.92-7.24c2.66-3.35,5.13-6.86,7.57-10.37c4.94-7.11,9.05-14.47,12.65-22.35
					c3.5-7.65,7.39-14.53,13.71-20.22c5.78-5.19,12.29-10.91,19.23-14.47c7.79-4,17.15-3.27,25.49-1.64
					c7.43,1.45,16.37,3.21,20.52,10.2c3.89,6.55,6.71,12.53,13.11,17.17c6.26,4.53,14.25,5.33,21.64,6.66
					c9.21,1.66,17.95,3.67,26.87,6.47c6.52,2.04,15.49,1.31,20.01,7.28c6.66,8.8-3.61,23.42-8.68,30.6
					c-4.4,6.23-9.86,12.01-16.28,16.23c-6.6,4.34-14.91,4.26-22.45,5.48c-10.22,1.66-20.45,5.08-30.92,3.97
					c-9.26-0.99-19.2-5.13-27.87-8.48c-4.54-1.75-8.98-3.79-13.19-6.24c-4.01-2.34-7.84-4.4-12.54-4.86
					c-9.06-0.88-17.81,3.23-25.73,7.09C103.1,1881.62,100.99,1892.75,107.46,1889.6L107.46,1889.6z"/>
			</g>
		</g>
		<g>
			<path class="st7" d="M115.36,1750.49c-13.9,5.39-22.96,20.06-30.14,33.23c-5.75,10.55-10,26.5-5.93,38.54
				c3.05,9.01,12.85,11.49,20.76,12.21c10.85,0.99,21.59-6.64,31.86-9.33c7.19-1.89,14.45-1.18,20.31,3.97
				c5.04,4.43,6.76,9.76,14.42,7.72c7.86-2.09,14.92-7.54,20.68-13.39c5.87-5.96,9.93-13,9.23-22.09
				c-0.72-9.33-6.16-15.16-12.69-20.79c-2.46-2.12-4.75-4.02-7.66-5.45c-3.77-1.85-8.26-2.69-11.78-5.04
				c-5.33-3.55-7.97-10.08-6.72-16.46c0.86-4.38,1.36-7.99-1.63-11.45c-12.85-14.86-37.14,6.98-41.69,8.53"/>
			<g>
				<path d="M115.27,1745.48c-12.92,5.35-21.81,17.04-28.81,28.68c-7.23,12.02-12.99,25.08-13.15,39.36
					c-0.07,6.03,0.83,13.16,4.78,17.99c3.72,4.55,9.35,6.73,14.97,7.84c7.1,1.39,13.77,0.44,20.51-2.07
					c7.23-2.7,14.53-7.17,22.4-7.51c7.63-0.33,12.15,3.68,17.15,8.76c4.36,4.42,8.97,5.11,14.83,3.04
					c12.74-4.51,25.36-15.69,30.59-28.28c5.46-13.13,1.28-26.08-8.77-35.42c-5.35-4.98-10.47-8.03-17.27-10.63
					c-8.15-3.12-11.32-8.55-10.12-17.08c1.96-13.99-10.16-21.02-22.66-17.75c-5.37,1.4-10.44,4.04-15.16,6.91
					c-2.05,1.25-4.05,2.58-6.07,3.9c-0.67,0.44-1.34,0.86-2.01,1.3c-0.27,0.17-2.19,1.16-1.07,0.72c-2.72,1.07-4.79,3.62-5.29,6.54
					c-0.31,1.85,0.45,5.48,3.23,4.38c6.01-2.37,11.11-7,16.88-9.92c6.64-3.36,16.44-6.37,22.06,0.52c3.58,4.39,0.1,11.06,1.1,16.32
					c1.05,5.52,4.41,10.33,9.34,13.07c5.23,2.91,10.81,3.84,15.65,7.64c4.41,3.46,9.01,7.62,11.63,12.67
					c6.25,12.05-1.89,22.38-11.39,29.4c-3.84,2.84-10.94,7.73-15.88,5.16c-4.41-2.3-6.85-7.47-11.43-9.87
					c-11.79-6.19-23.83,0.62-34.89,4.9c-9.27,3.59-25.05,5.18-31.57-4.74c-7.24-11.01-0.76-28.13,4.93-38.32
					c6.22-11.12,13.41-22.42,25.65-27.48C119.78,1753.7,121.95,1742.72,115.27,1745.48L115.27,1745.48z"/>
			</g>
		</g>
		<g>
			<path class="st8" d="M178.31,1814.88c6.57,5.95,12.12,11.49,20.91,12.38c4.21,0.43,8.31-0.23,12.46-0.96
				c6.4-1.13,11.53-2.11,16.96,2.29c10.58,8.55,21.14,16.94,31.91,25.29c2.63,2.04,4.42,3.38,7.76,3.62
				c4.18,0.3,7.51,1.06,11.69,0.28c8.96-1.66,15.5-5.59,21.27-13.17c5.08-6.67,8-17.09,6.7-25.68
				c-1.69-11.13-11.32-15.71-19.55-20.67c-6.53-3.94-13.35-8.05-15.03-16.36c-0.79-3.93-1.19-7.65-1.19-11.68
				c0-4.18,1.17-8.35,0.86-12.48c-1.35-18.36-20.53-23.01-34.73-21.83c-12.33,1.03-22.52,10.52-29.43,20.93
				c-2.53,3.81-5.06,7.66-8.78,10.29c-3.68,2.6-8.22,3.95-12.25,5.78c-5.19,2.36-9.04,6.47-12.52,11.1
				c-2.53,3.36-4.91,6.74-5.69,11.12c-0.81,4.57,0.28,9.12,2.81,12.77c2.41,3.48,10.17,10.51,12.65,13.9"/>
			<g>
				<path d="M175.27,1820.14c5.59,5.08,11.14,10.32,18.7,12.13c8.41,2.02,16.18-1.94,24.46-1.34c4.24,0.31,7.02,2.8,10.19,5.36
					c4.02,3.24,8.06,6.47,12.1,9.68c3.54,2.81,7.09,5.61,10.65,8.39c3.41,2.67,6.9,6.2,10.98,7.81c6.64,2.61,15.64,1.89,22.25-0.38
					c6.67-2.3,12.31-6.34,16.95-11.63c9.04-10.29,15.01-28.02,8.64-41.07c-6.08-12.44-21.5-14.1-29.56-24.37
					c-5.07-6.45-4.2-15.99-3.42-23.62c0.67-6.56-0.19-13.28-4.04-18.81c-6.52-9.38-19.2-12.4-30.02-12.09
					c-14.91,0.44-26.79,9.87-35.19,21.62c-2.44,3.41-4.51,7.47-7.82,10.15c-3.57,2.89-8.27,3.98-12.34,5.92
					c-7.76,3.69-13.88,10.91-18.3,18.12c-4.65,7.59-6.22,17.02-1.66,25.04c3.35,5.91,9.4,9.98,13.53,15.31
					c3.32,4.29,10.43-5.44,7.54-9.18c-6.94-8.95-20.89-16.91-11.77-29.41c4.3-5.9,8.83-9.05,15.52-11.82
					c6.57-2.72,11.73-6.43,15.94-12.19c7.57-10.37,15.14-21.59,29.29-22.41c9.17-0.53,20.56,1.26,26.75,8.76
					c4.09,4.96,4.33,10.54,3.66,16.7c-0.72,6.57-0.64,13.71,1.26,20.12c3.34,11.29,15.13,15.56,24.03,21.55
					c4.87,3.28,9.08,7.45,10.07,13.48c1.02,6.15-0.55,13.23-3.91,18.46c-3.36,5.23-8.47,9.06-14.41,10.86
					c-5.84,1.77-14.63,2.29-19.89-1.3c-7.53-5.13-14.54-11.28-21.66-16.96c-5.82-4.64-12.12-11.89-19.79-13.08
					c-7.84-1.22-15.56,2.74-23.48,1.64c-7.79-1.08-13.6-6.92-19.15-11.98C177.95,1806.53,171.46,1816.67,175.27,1820.14
					L175.27,1820.14z"/>
			</g>
		</g>
		<g>
			<path class="st6" d="M291.89,1690.47c-13.84-13.83-32.78-28.1-52.85-23.97c-16.19,3.33-28.11,9.76-40.65,21.16
				c-10.23,9.31-19,18.69-27.43,29.89c-6.85,9.1-14.47,20.46-17.92,31.65c-3.04,9.86-1.26,15.85,3.03,24.85
				c3.65,7.67,13.62,11.74,21.07,13.72c18.21,4.84,38.21,1.9,56.87,2.09c6.15,0.06,11.41,2.17,17.77,1.86
				c3.33-0.16,32.45,10.75,42.72-14.28c10.33-25.17-38.89-12.55,12.41-60.3c8.35-7.78,3.51-14.33-3.11-21.07
				c-5.24-5.33-12.49-10.3-20.19-9.15"/>
			<g>
				<path d="M295.66,1685.89c-14.92-14.78-34.13-29.32-56.39-24.68c-21.66,4.52-38.21,17.56-53.3,33.11
					c-8.12,8.37-15.54,17.35-22.2,26.93c-6.53,9.4-12.63,19.54-15.47,30.74c-2.44,9.59-0.37,19.38,4.63,27.84
					c4.54,7.67,13.93,11.32,22.12,13.51c12.22,3.26,25.04,2.99,37.57,2.55c5.83-0.2,11.66-0.49,17.49-0.47
					c5.78,0.03,11.3,1.63,17.04,1.86c10.48,0.42,20.26,4.02,30.8,0.63c12.08-3.88,23.38-17.4,22.34-30.63
					c-0.58-7.41-6.51-10.54-10.64-15.44c-1.26-1.5-1.71-2.24-2.12-3.88c-0.15-0.61,0.06-2.06,0.67-3.44
					c3.18-7.3,10.59-14.22,16.44-19.87c7.91-7.62,15.25-16.85,7.79-27.56c-6.3-9.04-16.37-16.74-27.79-15.62
					c-4.51,0.44-8.36,11.54-2.06,10.93c9.03-0.88,18.82,7.59,23.05,15c2.67,4.67-0.65,6.14-4.04,9.44
					c-3.38,3.29-6.7,6.66-9.83,10.19c-6.24,7.05-14.83,17.49-12.75,27.75c1.16,5.72,5.99,8.64,9.5,12.43
					c1.91,2.06,3.02,3.93,3.07,5.96c0.02,0.81-0.23,2.05-0.67,3.23c-1.07,2.89-2.79,5.55-5.19,7.51c-7.9,6.46-19.41,4.67-28.62,2.82
					c-5.53-1.12-11.32-1.39-16.94-2.09c-10.4-1.3-21.29,0.22-31.75,0.37c-17.19,0.24-42.59-0.32-50.16-19.08
					c-3.87-9.6-1.7-17.89,3.01-26.83c4.8-9.11,10.96-17.5,17.49-25.44c13.37-16.24,29.46-32.79,50.01-39.3
					c11.11-3.52,21.5-3.98,32.31,0.86c10.27,4.6,19.1,12,27.04,19.86C292.09,1698.99,298.93,1689.12,295.66,1685.89L295.66,1685.89z
					"/>
			</g>
		</g>
		<g>
			<path class="st9" d="M295.2,1642.52c-18.9-4.99-59.86,19.58-66.88,31.91c-5.88,10.32-8.72,18.7-8.28,30.92
				c0.34,9.32,4.91,20.24,10.96,26.95c16.82,18.64,39.7,0.02,58.83,8.71c6.54,2.97,9.43,8.53,14.67,13.12
				c6.34,5.55,13.87,8.94,22.07,8.51c7.88-0.42,15.61-4.91,21.17-10.67c5.34-5.54,12.99-13.84,14.65-21.89
				c1.86-8.97-4.26-16.6-9.86-22.52c-7.68-8.1-15.42-12.87-21.19-22.99c-3.08-5.4-7.13-11.43-6.96-18.15
				c0.1-3.88,2.44-5.33,0.39-9.05c-8-14.53-24.09-14.33-31.74-15.53"/>
			<g>
				<path d="M297.29,1636.96c-11.02-2.63-23.35,2.24-33.24,6.68c-11.36,5.1-22.82,11.85-31.86,20.51
					c-9.67,9.26-15.32,23-16.36,36.25c-1.22,15.47,4.61,34.89,19.16,42.78c13.32,7.22,28.21,0.26,42.25,0.98
					c9.11,0.46,14.21,4.9,20.17,11.27c5.61,5.99,12.47,10.8,20.67,12.33c17.29,3.24,31.78-10.39,41.1-23.3
					c4.91-6.81,9.01-14.88,7.62-23.51c-1.27-7.89-6.74-14.27-12.21-19.74c-6.66-6.65-14.08-12.32-19.03-20.49
					c-2.61-4.3-5.75-8.99-6.56-14.04c-0.69-4.27,1.84-7.9,0.31-12.2c-5.06-14.27-21.46-16.32-34.18-18.2
					c-4.64-0.68-9.59,10.32-4.18,11.12c9.87,1.46,20.39,2.08,27.26,10.42c0.99,1.2,2.79,3.08,2.99,4.64
					c0.13,1.03-0.71,2.49-0.9,3.52c-0.69,3.74-0.07,7.79,1.21,11.34c2.35,6.53,6.33,13.24,10.75,18.57
					c4.59,5.55,10.34,9.96,15.37,15.08c4.59,4.67,10.47,10.74,10.71,17.68c0.24,6.96-6.43,13.42-10.85,18.11
					c-5.39,5.72-12.3,10.36-20.44,10.37c-7.99,0-15.54-4.15-21.04-9.75c-4.68-4.77-8.53-10.02-15.06-12.39
					c-12.13-4.41-24.38,0.25-36.73,0.42c-15.36,0.21-24.97-11.19-28.66-25.31c-3.06-11.7,0.01-27.34,7.43-35.81
					c7.13-8.13,17.67-14,27.23-18.72c9.63-4.75,21.94-10.09,32.89-7.48C297.59,1649.15,302.71,1638.26,297.29,1636.96
					L297.29,1636.96z"/>
			</g>
		</g>
	</g>
	<g>
		<g>
			<path class="st6" d="M1142.34,1878.76c-10.61-5.22-22.15-10.12-32.97-3.29c-7.63,4.82-16.47,8.27-25.07,10.87
				c-5.95,1.8-12.11,4.58-18.24,5.37c-10.52,1.36-21.83-2.05-32.11-3.85c-7.87-1.38-17.29-1.29-24.31-6.05
				c-5.58-3.78-11.94-9.48-16.16-15c-7.68-10.05-23.68-34.61-9.28-44.44c4.81-3.28,8.98-2.91,14.28-4.06
				c4.93-1.07,9.66-3.35,14.64-4.46c9.08-2.02,18.3-3.35,27.41-5.26c7.03-1.48,11.83-5.11,16.73-11.14
				c3.07-3.77,4.24-9.01,7.47-12.58c3.68-4.06,9.53-5.58,14.44-6.9c8.34-2.25,18.29-3.62,26.82-1.61
				c8.62,2.02,15.53,8.7,22.48,14.09c6.11,4.75,11.06,9.76,15.15,16.54c3.68,6.1,6.09,12.96,9.48,19.22
				c3.92,7.24,8.25,13.18,13.12,19.84c4.37,5.97,13,13.42,6.03,21.01c-4.67,5.09-22.14,12.42-28.85,12.42"/>
			<g>
				<path d="M1145.38,1873.5c-7.09-3.46-14.84-7.1-22.92-6.93c-8.53,0.17-14.77,5.31-22.19,8.76c-7.69,3.57-15.96,5.94-24,8.6
					c-9.12,3.02-17.62,2.74-26.98,1c-8.32-1.55-16.61-2.86-24.94-4.25c-8.7-1.45-15.25-6.02-21.46-12.13
					c-8.59-8.46-16.79-20.49-19.54-32.35c-1.49-6.44,0.01-9.78,6.77-11.21c3.55-0.75,7.09-1.06,10.59-2.1
					c4.43-1.32,8.66-3.01,13.19-3.99c8.72-1.89,17.66-2.89,26.33-5.04c7.14-1.77,12.84-6,17.68-11.42
					c5.04-5.65,6.34-14.15,13.8-17.07c7.36-2.89,15.96-4.57,23.85-4.44c8.82,0.15,15.59,3.54,22.44,8.83
					c6.42,4.97,13.09,9.94,18.12,16.39c5.99,7.69,8.98,16.95,13.63,25.4c4.3,7.81,9.56,15.24,15.15,22.17
					c1.42,1.77,6.57,6.98,5.61,9.56c-0.71,1.89-5.12,3.57-6.78,4.43c-5.38,2.77-12.07,5.98-18.24,6.19
					c-4.73,0.16-9.29,11.29-4.18,11.12c6.24-0.21,12.3-2.64,17.96-5.1c6.13-2.67,12.79-6.01,16.7-11.64
					c4.89-7.05,3.57-14.43-1.35-20.97c-5.4-7.19-11-14.17-15.61-21.93c-5.24-8.8-8.29-18.8-14.37-27.11
					c-5.26-7.18-12.39-12.55-19.3-18.03c-7.18-5.69-14.56-9.84-23.88-10.36c-8.95-0.5-18.4,1.32-26.84,4.25
					c-8.7,3.03-13.42,8.41-17.49,16.46c-4.51,8.91-11.71,11.85-21.04,13.61c-10.45,1.98-20.78,3.57-30.88,6.97
					c-7.97,2.68-16.9,2.21-23.55,8.02c-11.76,10.28-7.54,26.07-1.16,38.02c7.05,13.2,18.45,28.5,33.27,33.09
					c4.66,1.44,9.49,1.91,14.3,2.55c5.44,0.72,10.77,1.99,16.15,3.02c11.46,2.19,21.43,1.95,32.49-1.87
					c10.42-3.6,20.98-6.62,30.57-12.21c5.21-3.04,9.66-4.71,15.78-3.78c5.75,0.88,11.08,3.48,16.25,6
					C1143.84,1886.24,1149.78,1875.65,1145.38,1873.5L1145.38,1873.5z"/>
			</g>
		</g>
		<g>
			<path class="st7" d="M1134.36,1744.67c13.9,5.39,22.96,20.06,30.14,33.23c5.75,10.55,10,26.5,5.93,38.54
				c-3.05,9.01-12.85,11.49-20.76,12.21c-10.85,0.99-21.59-6.64-31.86-9.33c-7.19-1.89-14.45-1.18-20.31,3.97
				c-5.04,4.43-6.76,9.76-14.42,7.72c-7.86-2.09-14.92-7.54-20.68-13.39c-5.87-5.96-9.93-13-9.23-22.09
				c0.72-9.33,6.16-15.16,12.69-20.79c2.46-2.12,4.75-4.02,7.66-5.45c3.77-1.85,8.26-2.69,11.78-5.04
				c5.33-3.55,7.97-10.08,6.72-16.46c-0.86-4.38-1.36-7.99,1.63-11.45c12.85-14.86,37.14,6.98,41.69,8.53"/>
			<g>
				<path d="M1131.33,1749.93c11.14,4.61,18.51,14.14,24.61,24.18c6.24,10.26,11.57,21.32,11.71,33.59
					c0.06,5.45-0.53,10.45-5.86,12.94c-4.97,2.32-11.16,3.04-16.52,2.12c-12.24-2.11-22.65-11.28-35.6-9.75
					c-5.46,0.64-10.35,3.2-14.33,6.94c-1.52,1.42-2.77,3.26-4.35,4.6c-2.43,2.06-5.16,1.24-7.97,0.18
					c-10.35-3.89-22.61-14.04-25.09-25.32c-2.52-11.52,7.51-21.77,17.5-25.91c5.29-2.19,10.31-3.61,14.38-7.95
					c4-4.26,6.58-9.94,6.85-15.81c0.14-2.9-1.35-6.24-0.91-9.04c0.37-2.33,2.54-3.22,4.74-3.71c4.37-0.96,9.11,0.53,13.09,2.25
					c6.61,2.87,12.11,8.26,18.72,10.86c4.75,1.87,10.5-8.78,6.08-10.52c-2.78-1.1-5.28-3.22-7.78-4.82
					c-4.12-2.63-8.37-5.13-12.96-6.86c-9.82-3.71-19.88-2.81-26.71,5.91c-2.18,2.78-3.57,6.11-3.86,9.64
					c-0.3,3.55,1.09,6.96,0.82,10.46c-0.59,7.74-11.17,8.19-16.53,11.51c-10.92,6.75-21.14,17.95-22.45,31.17
					c-1.44,14.53,8.02,25.97,19.31,33.89c5.01,3.52,12.47,7.76,18.86,6.18c5.89-1.46,8.36-7.23,13.09-10.33
					c13.27-8.71,29.82,6.68,43.34,7.83c12.34,1.05,25.85-4.71,30.51-16.74c5.62-14.5,1.01-31.67-6.11-44.77
					c-7.17-13.19-16.07-27.29-30.52-33.26C1132.69,1737.46,1126.9,1748.1,1131.33,1749.93L1131.33,1749.93z"/>
			</g>
		</g>
		<g>
			<path class="st8" d="M1071.41,1809.05c-6.57,5.95-12.12,11.49-20.91,12.38c-4.21,0.43-8.31-0.23-12.46-0.96
				c-6.4-1.13-11.53-2.11-16.96,2.29c-10.58,8.55-21.14,16.94-31.91,25.29c-2.63,2.04-4.42,3.38-7.76,3.62
				c-4.18,0.3-7.51,1.06-11.69,0.28c-8.96-1.66-15.5-5.59-21.27-13.17c-5.08-6.67-8-17.09-6.7-25.68
				c1.69-11.13,11.32-15.71,19.55-20.67c6.53-3.94,13.35-8.05,15.03-16.36c0.79-3.93,1.19-7.65,1.19-11.68
				c0-4.18-1.17-8.35-0.86-12.48c1.35-18.36,20.53-23.01,34.73-21.83c12.33,1.03,22.52,10.52,29.43,20.93
				c2.53,3.81,5.06,7.66,8.78,10.29c3.68,2.6,8.22,3.95,12.25,5.78c5.19,2.36,9.04,6.47,12.52,11.1c2.53,3.36,4.91,6.74,5.69,11.12
				c0.81,4.57-0.28,9.12-2.81,12.77c-2.41,3.48-10.17,10.51-12.65,13.9"/>
			<g>
				<path d="M1070.22,1804.82c-4.82,4.39-9.68,9.41-16.3,10.77c-7.44,1.52-14.54-1.76-21.93-1.61c-6.9,0.14-11.49,4.08-16.63,8.21
					c-6.54,5.26-13.11,10.48-19.72,15.66c-2.9,2.28-5.77,5-8.91,6.93c-2.96,1.82-7.26,1.9-10.68,1.94
					c-6.42,0.07-12.9-2.41-17.92-6.36c-5.09-4.01-8.86-9.65-10.77-15.83c-1.69-5.45-2.97-12.98,0.88-17.8c3.2-4,8.29-6.39,12.6-8.96
					c4.82-2.88,9.67-5.87,13.41-10.12c4.43-5.02,6.35-11.09,7.13-17.63c0.39-3.25,0.64-6.57,0.45-9.84
					c-0.22-3.77-1.22-7.55-0.69-11.34c1.39-9.87,13.02-12.85,21.5-13.3c13.11-0.7,23.4,5.64,31.31,15.78
					c4.43,5.68,7.65,12.32,14.02,16.17c6.86,4.15,14.12,5.38,19.67,11.64c4.69,5.29,11.54,13.76,6.54,20.86
					c-3.33,4.73-8.28,8.25-11.83,12.83c-1.41,1.82-3.3,5.56-1.53,7.74c1.75,2.16,4.72,0.22,6-1.43c3.67-4.73,8.47-8.48,12.14-13.21
					c4.73-6.09,7.02-14.27,4.94-21.83c-1.89-6.86-7.39-13.49-12.69-18.07c-6.31-5.46-15.46-6.19-21.23-12.28
					c-5.24-5.53-8.55-12.48-14.09-17.83c-5.14-4.96-11.08-8.93-18.08-10.64c-10.95-2.68-24.6-0.3-33.64,6.48
					c-4.9,3.67-8.61,8.89-10.46,14.72c-2.54,8.01-0.15,15.64-0.68,23.76c-0.22,3.31-0.4,7.34-2.41,10.11
					c-1.89,2.61-4.99,4.39-7.69,6.05c-5.44,3.34-11.3,6.29-15.99,10.7c-22.75,21.4-2.78,63.19,27.87,60.59
					c4.24-0.36,8.3-0.52,12-2.81c3.96-2.45,7.55-5.68,11.21-8.55c4.32-3.39,8.62-6.79,12.91-10.21c3.99-3.18,8.3-7.95,12.93-10.1
					c4.02-1.87,8.83-0.51,12.98,0.19c4.72,0.79,9.49,1.33,14.24,0.49c8.65-1.53,15.26-7.7,21.52-13.39
					c1.91-1.74,4.01-5.15,3.02-7.85C1074.68,1802.84,1071.99,1803.21,1070.22,1804.82L1070.22,1804.82z"/>
			</g>
		</g>
		<g>
			<path class="st6" d="M957.83,1684.65c13.84-13.83,32.78-28.1,52.85-23.97c16.19,3.33,28.11,9.76,40.65,21.16
				c10.23,9.31,19,18.69,27.43,29.89c6.85,9.1,14.47,20.46,17.92,31.65c3.04,9.86,1.26,15.85-3.03,24.85
				c-3.65,7.67-13.62,11.74-21.07,13.72c-18.21,4.84-38.21,1.9-56.87,2.09c-6.15,0.06-11.41,2.17-17.77,1.86
				c-3.33-0.16-32.45,10.75-42.72-14.28c-10.33-25.17,38.89-12.55-12.41-60.3c-8.35-7.78-3.51-14.33,3.11-21.07
				c5.24-5.33,12.49-10.3,20.19-9.15"/>
			<g>
				<path d="M959.02,1688.88c13.65-13.51,30.83-26.78,51.17-22.3c19.24,4.24,34.04,15.82,47.55,29.66
					c7.34,7.51,14.08,15.58,20.21,24.11c5.86,8.16,11.58,16.95,14.51,26.65c2.44,8.07,1.22,18.87-6.21,24.11
					c-7.11,5-16.76,6.78-25.21,7.59c-11.33,1.09-22.77,0.2-34.11-0.11c-9.21-0.25-17.96,1.12-27.08,1.76
					c-8.61,0.6-16.37,3.57-25.14,1.25c-6.29-1.66-11.24-5.81-14.27-11.53c-0.93-1.75-1.94-4.04-2.21-5.97
					c-0.1-0.71-0.08-1.43-0.06-2.14c0,0.2,0.12-0.31,0.19-0.43c0.38-0.68-0.6,0.66,0.33-0.5c-1.13,1.42,0.33-0.35,0.56-0.59
					c0.93-0.96-0.55,0.47,0.68-0.68c0.49-0.46,1-0.91,1.49-1.37c2.45-2.23,4.87-4.48,6.64-7.3c5.57-8.88,1.9-17.9-3.87-25.62
					c-2.65-3.54-5.63-6.84-8.69-10.02c-3.72-3.86-9.64-7.65-12.02-12.49c-2.04-4.13,3.08-8.08,5.86-10.56
					c4.19-3.73,8.96-6.28,14.71-5.72c4.69,0.46,9.55-10.59,4.18-11.12c-10.61-1.04-19.31,5.87-26.12,13.23
					c-5.89,6.37-11.12,15.67-5.76,23.97c2.9,4.48,7.92,8.03,11.61,11.87c3.31,3.44,6.53,7.01,9.33,10.89
					c1.46,2.02,2.93,4.16,3.89,6.46c0.4,0.95,0.78,1.97,0.95,2.99c0.02,0.13,0.19,2.38,0.12,1.45c0.04,0.46,0.14,0.06-0.22,0.55
					c-0.27,0.37-1.5,1.67-0.55,0.69c-0.62,0.64-1.29,1.22-1.95,1.82c-2.75,2.52-5.49,5.03-7.39,8.28
					c-5.94,10.19-0.95,22.76,7.64,29.82c9.65,7.92,22.79,6.57,34.17,4.29c0.7-0.14,1.4-0.33,2.11-0.41
					c-1.15,0.14,2.35,0.02,3.19-0.03c6.09-0.34,11.88-1.86,18.02-1.82c12.33,0.1,24.68,1.24,37.01,0.42
					c10.18-0.68,20.7-2.45,29.75-7.44c8.98-4.96,14.07-13.03,17-22.7c6.43-21.2-10.37-42.91-22.91-58.43
					c-15.06-18.64-33.34-37.07-56.82-44.18c-11.79-3.57-22.8-3.67-34.26,1.19c-11.59,4.92-21.5,13.17-30.37,21.95
					c-1.85,1.83-4.03,5.08-3.02,7.85C954.53,1690.78,957.31,1690.58,959.02,1688.88L959.02,1688.88z"/>
			</g>
		</g>
		<g>
			<path class="st9" d="M954.52,1636.69c18.9-4.99,59.86,19.58,66.88,31.91c5.88,10.32,8.72,18.7,8.28,30.92
				c-0.34,9.32-4.91,20.24-10.96,26.95c-16.82,18.64-39.7,0.02-58.83,8.71c-6.54,2.97-9.43,8.53-14.67,13.12
				c-6.34,5.55-13.87,8.94-22.07,8.51c-7.88-0.42-15.61-4.91-21.17-10.67c-5.34-5.54-12.99-13.84-14.65-21.89
				c-1.86-8.97,4.26-16.6,9.86-22.52c7.68-8.1,15.42-12.87,21.19-22.99c3.08-5.4,7.13-11.43,6.96-18.15
				c-0.1-3.88-2.44-5.33-0.39-9.05c8-14.53,24.09-14.33,31.74-15.53"/>
			<g>
				<path d="M953.49,1642.16c9.38-2.24,20.03,1.94,28.48,5.68c9.98,4.42,19.7,10.09,28.09,17.11c8.31,6.95,13.43,17.22,14.88,27.95
					c1.76,13.08-2.77,31.61-17.2,35.73c-12.04,3.43-24.88-2.36-37.14-1.27c-6.33,0.56-12.24,2.8-17.09,6.97
					c-5.69,4.89-9.56,11.12-16.54,14.49c-15.76,7.62-29.69-4.05-38.95-15.94c-4.39-5.65-8.92-12.77-5.07-19.86
					c3.38-6.23,9.4-10.99,14.51-15.72c6.08-5.62,11.09-11.61,15.24-18.78c3.86-6.67,8.08-14.47,6.75-22.47
					c-0.3-1.81-0.94-2.81-0.27-4.45c0.57-1.41,2.29-2.71,3.45-3.62c2.31-1.8,5.01-3.04,7.81-3.89c4.96-1.51,10.09-1.84,15.19-2.6
					c4.49-0.66,8.28-11.84,2.06-10.93c-12.01,1.77-23.33,3.37-31.77,13.17c-2.52,2.92-5.02,6.56-5.89,10.37
					c-0.94,4.11,1.46,7.71,0.58,11.76c-1.73,7.92-8.13,15.97-13.88,21.43c-10.84,10.3-26.74,22.83-23.77,39.8
					c1.47,8.42,7.6,15.54,13.26,21.58c5.62,6.01,11.99,10.98,20.12,12.98c8.05,1.98,16.66-0.13,23.62-4.39
					c3.39-2.08,6.45-4.6,9.22-7.44c2.97-3.05,5.56-6.76,9.32-8.9c12.79-7.27,29.55,1.26,43.31-0.6
					c16.36-2.21,26.62-17.95,30.61-32.75c4-14.86,0.77-32.28-8.13-44.88c-7.11-10.06-19.82-17.24-30.55-22.66
					c-11.16-5.64-25.45-11.84-38.21-8.79C951.15,1632.28,947.49,1643.59,953.49,1642.16L953.49,1642.16z"/>
			</g>
		</g>
	</g>
</g>
<g id="Ebene_17">
	<g>
		<path class="st10" d="M952.33,824.08c3.35-12.95-3.68-28.02-15.36-32.9s-26.37,1.08-32.09,13.04s-1.67,28.23,8.84,35.55
			c-11.84-5.67-26.24-5.85-37.46,1.14c-11.22,6.99-18.37,21.56-15.87,35.21s15.51,24.59,28.32,22.45
			c-9.78,8.39-17.05,20.89-17.31,34.32c-0.26,13.43,7.66,27.26,19.72,30.89c12.06,3.63,26.69-5.61,27.73-18.99
			c-0.62,19.72,18.1,37.38,36.26,34.22c18.16-3.16,30.7-26.27,24.29-44.77c15.77,4.43,33.76-8.59,35.83-25.93
			s-12.27-34.8-28.57-34.78c17.38-6.36,25.26-32.36,14.69-48.46c-10.57-16.1-36.06-16.91-47.5-1.51"/>
		<g>
			<path d="M956.59,823c2.63-11.42-0.57-24.08-9.25-32.18c-8.43-7.88-20.38-8.65-30.52-3.64c-21.55,10.64-25.85,43.28-6.13,57.86
				c2.03-3.51,4.05-7.01,6.08-10.52c-23.26-10.62-49.57-0.4-58.55,23.86c-3.97,10.73-3.75,23.05,2.66,32.79
				c5.95,9.04,16.03,14.29,26.82,12.86c-0.05-3.23-0.11-6.46-0.16-9.69c-17.92,15.84-29.33,45.72-11.77,66.19
				c7.03,8.2,17.53,11.8,27.85,7.94c10.39-3.88,18.27-13.71,19.51-24.77c-2.88,1.17-5.76,2.34-8.64,3.51
				c-0.17,21.83,21.03,43.97,43.74,36.15c20.26-6.97,31.86-32.75,25.41-52.76c-2.1,3.06-4.2,6.12-6.31,9.18
				c19.29,4.84,37.77-11.79,41.72-29.87c4.19-19.17-9.76-41.37-30.28-41.96c-1.04,3.67-2.08,7.35-3.12,11.02
				c20.82-8.21,31.4-36.54,20.74-56.4c-11.22-20.91-41.19-19.57-54.76-2.18c-1.42,1.82-3.3,5.57-1.53,7.74
				c1.75,2.16,4.72,0.22,6-1.43c10.01-12.82,31.55-10.8,40.79,1.92c8.74,12.04,5.7,33.57-9.18,39.43c-2.55,1.01-4.36,3.17-5.08,5.82
				c-0.45,1.67-0.61,5.12,1.97,5.2c14.97,0.43,27.86,15.33,26.4,30.31c-1.37,14.08-16.42,22.56-29.48,19.29
				c-3.84-0.96-7.27,6.18-6.31,9.18c4.59,14.26-2.64,32.5-18.45,35.56c-17.76,3.44-33.64-14.3-33.51-31.07
				c0.05-6.85-8.21-0.37-8.64,3.51c-0.8,7.12-6.25,11.67-13.16,12.88c-8,1.4-15.35-3.27-19.85-9.58
				c-10.93-15.35-4.88-34.69,8.33-46.37c2.24-1.98,5.78-10.48-0.16-9.69c-17.95,2.37-29.42-18.72-23.84-34.01
				c6.7-18.35,28.79-21.36,44.77-14.06c4.58,2.09,10.11-7.54,6.08-10.52c-12.99-9.6-14.53-32.56,2.74-38.34
				c17.53-5.87,32.39,12.39,28.57,28.99c-0.53,2.31,0.57,4.85,3.23,4.38C954.13,829.05,956.02,825.48,956.59,823L956.59,823z"/>
		</g>
	</g>
</g>
<g id="Ebene_16">
	<g>
		<path class="st7" d="M955.17,867.79c15.45,11.18,15.01,39.93-0.78,50.56c-15.78,10.63-40.13-1.43-42.81-21.2s27.88-56.84,48-37.73
			"/>
		<g>
			<path d="M952.13,873.06c8.84,6.74,11.89,19.46,8.94,29.93c-3.1,11.01-13.62,15.61-24.37,12.99
				c-10.52-2.57-20.91-12.37-20.91-23.77c0-9.02,6.19-18.24,12.43-24.26c8.16-7.87,19.11-11.59,28.33-3.25
				c3.4,3.08,9.89-7.07,6.08-10.52c-10.75-9.73-24.81-4.94-34.73,3.47c-10.45,8.85-19.29,22.47-20.67,36.32
				c-1.48,14.85,9.18,28.28,23.08,32.52c15.51,4.73,30.07-3.82,36.65-18.04c6.95-15.03,5.05-35.38-8.74-45.89
				C954.41,859.64,948.06,869.96,952.13,873.06L952.13,873.06z"/>
		</g>
	</g>
</g>
<g id="Ebene_18">
</g>
<g id="Ebene_19">
	<g class="st11">
		<path d="M277.8,1149.77c35.47,108.45,123.12,189.16,223.64,229.05s188.89,53.46,295.78,45.13
			c-93.2,36.17-203.54,45.92-306.62-3.79s-189.51-149.17-219.44-266.03"/>
		<g>
			<path d="M265.65,1149.77c24.72,75.01,74.75,138.73,138.88,184.28c32.6,23.16,68.31,40.57,105.73,54.47
				c42.79,15.89,87.05,28.08,132.22,34.87c52.34,7.87,105.25,8.7,157.97,4.65c-3.94-2.37-7.88-4.74-11.82-7.11
				c-41.22,15.91-84.61,26.39-128.82,28.68c-44.7,2.32-89.63-4.41-131.56-20.07c-76.34-28.51-142.27-84.38-188.03-151.28
				c-25.86-37.81-45.44-79.76-56.91-124.15c-1.79-6.92-25.47-4.51-24.3,0c21.22,82.16,69.52,156.25,134.05,211.04
				c32.76,27.82,69.52,50.95,109.42,67.07c46.43,18.76,96.85,27.19,146.85,26.25c53.56-1.01,106.56-12.25,156.48-31.53
				c2.72-1.05,4.95-2.97,1.9-5.15c-3.56-2.55-9.63-2.27-13.72-1.95c-43.47,3.34-87.13,3-130.4-2.59
				c-42.34-5.46-83.86-16.19-124.08-30.38c-36.93-13.03-72.26-28.97-104.87-50.82c-30.97-20.75-58.98-45.84-82.69-74.63
				c-27.24-33.08-48.57-70.93-61.99-111.66C287.65,1142.78,264.33,1145.76,265.65,1149.77L265.65,1149.77z"/>
		</g>
	</g>
	<g class="st11">
		<path d="M575.05,1531.27c42.94-13.13,83.46-35.34,118.54-64.97c-40.23,6.13-83.31,5.28-123.22-2.95
			c-1.26,22.82,9.57,39.31,1.05,66.25"/>
		<g>
			<path d="M583.64,1534.28c44.71-13.8,85.88-36.78,121.66-66.85c2.47-2.08-3.56-4.25-4.35-4.47c-4.41-1.23-9.02-1-13.49-0.33
				c-36.75,5.5-74.55,4.45-110.95-2.95c-3.08-0.63-18.04-2-18.28,3.67c-0.47,10.71,1.74,21.04,3.25,31.58
				c1.69,11.8,1.27,23.22-2.2,34.67c-1.25,4.11,22.17,7.05,24.3,0c3.47-11.45,3.88-22.87,2.2-34.67
				c-1.5-10.54-3.72-20.87-3.25-31.58c-6.09,1.22-12.19,2.45-18.28,3.67c44.59,9.06,90.53,9.67,135.48,2.95
				c-5.95-1.6-11.9-3.2-17.85-4.8c-33.85,28.44-73.17,50.05-115.41,63.09c-4.41,1.36-4.04,4.54,0,6.01
				C571.73,1536.2,578.34,1535.91,583.64,1534.28L583.64,1534.28z"/>
		</g>
	</g>
	<g class="st11">
		<path d="M167.95,978.37c-3.23,36.93,6.44,74.99,26.68,105.06s35.36,52.73,69.07,61.08c-37.82,14.14-67.81-1.07-92.45-34.92
			s-26.58-84.68-4.61-120.58"/>
		<g>
			<path d="M155.8,978.37c-2.48,30.21,3.27,60.79,16.63,88.02c6.21,12.65,14.36,24.31,22.55,35.74c6.96,9.72,14.5,19.08,23.67,26.81
				c11.41,9.62,24.53,15.55,38.92,19.23c-0.82-2.23-1.64-4.45-2.46-6.68c-2.98,1.09-5.98,2.1-9.08,2.8
				c-1.15,0.26-3.33,0.7-4.06,0.81c-0.68,0.1-1.37,0.16-2.05,0.23c-0.26,0.03-2.99,0.22-1.49,0.16c-3.51,0.16-3.66,0.18-7.23-0.39
				c-0.9-0.15-4.52-1.05-6.47-1.72c-12.54-4.29-23.1-13-31.89-22.71c-20.71-22.89-31.06-51.82-29.07-82.72
				c1.09-16.89,5.84-33.3,14.58-47.83c2.98-4.95-20.02-7.94-23.43-2.26c-17.31,28.78-20.35,65.33-8.94,96.82
				c10.62,29.31,35.06,57.44,65.84,66.01c19.89,5.54,41.17,3.85,60.45-3.19c6.71-2.45,1.8-5.59-2.46-6.68
				c-22.13-5.66-37.62-21.88-50.58-39.79c-16.53-22.85-30.27-46.32-36.15-74.22c-3.36-15.93-4.33-32.24-3-48.46
				C180.56,972.78,156.34,971.85,155.8,978.37L155.8,978.37z"/>
		</g>
	</g>
	<g class="st11">
		<path d="M261.1,1149.77c49.7,151.76,157.41,286.85,299.79,337.47c-168.5-47.56-273.97-182.22-325.12-338.23"/>
		<g>
			<path d="M248.95,1149.77c19.59,59.58,47.59,116.49,84.04,167.59c35.26,49.43,78.58,93.54,129.15,127.36
				c28.06,18.77,58.37,34.15,90.15,45.52c5.73-2,11.46-4.01,17.18-6.01c-61.53-17.48-118.7-48.21-166.77-90.49
				c-46.72-41.09-84.48-91.63-113.42-146.58c-16.57-31.47-30.26-64.39-41.37-98.16c-2.3-6.99-25.62-4.01-24.3,0
				c19.97,60.69,48.05,118.95,85.95,170.53c37.42,50.92,84.51,94.88,139.17,126.8c32.47,18.96,67.4,33.64,103.56,43.91
				c5.43,1.54,11.79,1.98,17.18,0c4.21-1.54,4.43-4.43,0-6.01c-55.16-19.73-104.99-52.45-147.25-92.82
				c-43.94-41.98-80.11-91.84-108.34-145.57c-16.2-30.83-29.76-62.99-40.64-96.08C270.95,1142.78,247.63,1145.76,248.95,1149.77
				L248.95,1149.77z"/>
		</g>
	</g>
	<g class="st11">
		<path d="M346.16,670.11c-56.22,74.28-79.93,175.7-63.03,269.64c-24.18,0.68-48.37,1.35-72.55,2.03
			c3.54-104.35,55.78-205.51,136.39-264.1"/>
		<g>
			<path d="M334.44,668.98c-44.61,59.27-68.28,133.69-68.8,207.69c-0.15,21.14,1.65,42.26,5.34,63.08c4.05-1.42,8.1-2.84,12.15-4.25
				c-24.18,0.68-48.37,1.35-72.55,2.03c4.05,1.42,8.1,2.84,12.15,4.25c2.9-79.78,33.61-158.22,86.65-218.03
				c14.45-16.29,30.51-31.07,48.09-43.92c4.17-3.04-1.56-5.23-4.36-5.82c-4.57-0.97-12.52-1.47-16.62,1.53
				c-65.09,47.57-110.02,119.5-128.7,197.58c-5.39,22.52-8.51,45.52-9.35,68.66c-0.14,3.96,10.23,4.31,12.15,4.25
				c24.18-0.68,48.37-1.35,72.55-2.03c1.81-0.05,12.83-0.43,12.15-4.25c-12.91-72.84-2.2-149.92,30.5-216.31
				c9.04-18.36,19.79-35.84,32.1-52.19c2.74-3.64-6.78-5.06-8.49-5.23C345.47,665.63,337.25,665.25,334.44,668.98L334.44,668.98z"/>
		</g>
	</g>
	<g class="st11">
		<path d="M978.69,1160.28c-20.23,169.72-114.07,327.7-248.97,419.11c-24.96-90.65-35.66-110.03-26.39-111.56
			c144.78-23.85,260.63-176.83,274.27-311.08"/>
		<g>
			<path d="M966.54,1160.28c-7.91,65.59-26.61,129.74-55.13,189.34c-27.96,58.41-65.15,112.53-110.38,158.93
				c-24.92,25.56-52.27,48.63-81.79,68.7c7.55,0.72,15.09,1.43,22.64,2.15c-6.13-22.22-12.59-44.34-19.25-66.41
				c-3.36-11.12-7.19-22.27-9.57-33.67c-0.53-2.56-0.84-5.02-0.82-7.62c0-0.37,0.12-0.74,0.18-1.1c0.13-0.67-0.2-0.37-0.18,0.39
				c0-0.05,0.25-0.47,0.25-0.47c-0.04-0.04,0.5-0.62,0.53-0.64c-1.05,0.8-0.76,0.77-1.98,1.2c-3.69,1.28-0.79,0.32,1.19-0.03
				c2.28-0.4,4.56-0.84,6.83-1.31c5.82-1.2,11.59-2.63,17.33-4.2c9.84-2.68,19.52-5.89,29-9.66c79.08-31.43,143-96.02,182.96-170.22
				c21.47-39.87,36.74-83.72,41.43-128.9c0.57-5.46-23.61-6.6-24.3,0c-8.56,82.34-51.13,160.79-108.82,219.19
				c-29.21,29.56-63.66,54.9-102.01,71.27c-9.59,4.09-19.42,7.65-29.42,10.61c-9.3,2.75-18.75,4.31-28.19,6.38
				c-6.35,1.39-9.69,4.33-8.98,10.89c1.19,10.9,5.44,21.81,8.58,32.24c7.23,23.96,14.31,47.95,20.96,72.07
				c1.79,6.49,18.54,4.94,22.64,2.15c53.57-36.42,100.24-82.54,138.26-134.92c38.79-53.43,68.64-113.26,88.54-176.2
				c11.34-35.88,19.32-72.78,23.83-110.15C991.48,1154.92,967.34,1153.61,966.54,1160.28L966.54,1160.28z"/>
		</g>
	</g>
	<g class="st11">
		<path d="M294.26,1652.61c-26.49,18.08-45.63,48.09-51.76,81.11c-10.79-16.58-12.4-39.51-4.04-57.63
			c8.36-18.12,26.33-30.67,45.17-31.54"/>
		<g>
			<path d="M283.77,1650.46c-28.14,19.49-46.99,49.75-53.42,83.26c7.96-0.38,15.91-0.75,23.87-1.13
				c-10.02-15.89-12.01-37.35-4.35-54.67c6.48-14.65,20.74-28.27,36.99-29.27c2.45-0.15,10.33-1.27,8.49-5.23
				c-1.78-3.81-11.96-3.15-14.95-2.97c-21.64,1.33-42.6,12.83-52.67,32.5c-9.99,19.5-8.58,43.44,3.06,61.91
				c2.86,4.54,22.66,5.14,23.87-1.13c6.02-31.37,23.67-60.66,50.1-78.97c4.29-2.97-1.67-5.25-4.36-5.82
				C295.71,1647.94,288,1647.53,283.77,1650.46L283.77,1650.46z"/>
		</g>
	</g>
	<g class="st11">
		<path d="M220.43,1681.59c-17.73,31.07-24.71,69.02-19.3,104.99c-14.47,4.76-30.65-6.35-35.96-21.54
			c-5.32-15.19-1.54-18.64,6.33-32.5s33.06-39.67,44.41-50.4"/>
		<g>
			<path d="M208.72,1680.45c-18.07,32.09-25.01,69.68-19.74,106.12c1.19-1,2.37-2,3.56-3.01c2.9-0.86,4.39,0.85,0.54-0.84
				c-2.16-0.95-4.24-2.34-6.04-3.85c-4.8-4.03-8.35-9.64-10.3-15.55c-1.71-5.17-2.74-10.8-0.88-16.08
				c1.9-5.41,5.51-10.71,8.53-15.55c5.78-9.23,13.32-17.46,20.67-25.45c7.26-7.9,14.77-15.6,22.56-22.99
				c3.34-3.17-7.3-5.11-8.49-5.23c-4.64-0.46-11.3-0.48-14.95,2.97c-18.8,17.82-38.08,37.1-50.07,60.32
				c-2.93,5.68-4.28,11.1-2.93,17.45c1.56,7.33,4.77,14.44,9.93,19.94c12.32,13.14,31.87,15.82,48.6,10.86
				c0.86-0.25,3.77-1.52,3.56-3.01c-5.15-35.6,1.19-72.46,18.87-103.86C235.06,1677.55,211.92,1674.76,208.72,1680.45
				L208.72,1680.45z"/>
		</g>
	</g>
	<g class="st11">
		<path d="M138.1,1749.6c-13.4,5.85-27.19,11.95-37.46,22.88s-16.26,28.02-10.67,42.33c5.59,14.31,25.41,21.14,35.47,9.99
			c-7.35-30.77,5.94-65.87,31.22-82.44"/>
		<g>
			<path d="M129.51,1746.59c-16.4,7.16-34.25,14.9-44.89,30.07c-8.95,12.76-13.43,32.5-2.63,45.61
				c10.63,12.91,32.68,15.77,47.42,9.16c2.4-1.08,7.14-3.34,7.95-6.06c0.44-1.48-0.53-4.01-0.79-5.57
				c-0.36-2.16-0.62-4.33-0.79-6.51c-0.62-8.24,0.08-16.57,1.98-24.61c4.14-17.49,14.31-34.06,29.37-44.17
				c4.35-2.92-1.73-5.26-4.36-5.82c-4.75-1-12.31-1.37-16.62,1.53c-22.78,15.3-35.9,42.85-34.83,70.16c0.12,3.16,0.44,6.3,0.95,9.42
				c0.18,1.11,1.17,3.59,0.6,4.74c-0.16,0.33-2.56,1.84-2.63,1.73c0.06,0.08,2.22-0.13,2.49-0.17c1.33-0.2,1.46,0.49,0.21-0.32
				c-2.04-1.32-4.12-2.23-5.89-3.97c-10.39-10.2-8.1-27.39-1.49-38.98c8.87-15.56,25.36-23.34,41.12-30.22
				c3.97-1.73,4.43-4.4,0-6.01C141.9,1744.84,134.3,1744.5,129.51,1746.59L129.51,1746.59z"/>
		</g>
	</g>
	<g class="st11">
		<path d="M100.69,1840.56c-12.82,3.09-19.72,21.7-12.38,33.39s26.02,11.82,33.51,0.24c-6.78-12.5-8.51-28.03-4.66-41.89"/>
		<g>
			<path d="M92.09,1837.55c-16.16,4.53-25.92,27.08-13.31,40.35c6.92,7.29,17.73,9.26,27.37,9.12c10.12-0.15,21.3-2.97,27.37-11.7
				c0.58-0.75,0.58-1.51,0-2.26c-6.56-12.57-7.79-27.11-4.22-40.76c1.15-4.41-22.47-7-24.3,0c-3.81,14.59-1.87,29.68,5.09,43.02
				c0-0.75,0-1.51,0-2.26c-1.64,2.36-3.27,3.7-5.63,5.21c-0.59,0.38-1.35,0.12-1.03,0.4c0.05,0.04,3.1-0.03,3.13-0.07
				c-1.52,1.57-7.55-7.34-8.13-9.03c-3.09-8.98,0.83-23.2,10.83-26.01c4.5-1.26,3.95-4.57,0-6.01
				C103.9,1835.58,97.5,1836.03,92.09,1837.55L92.09,1837.55z"/>
		</g>
	</g>
	<g class="st11">
		<path d="M177.87,1809.72c24.23,10.26,49.32,18.2,74.86,23.69c4.92-10.92-3.85-24.09-14.44-28.34
			c-10.59-4.25-22.32-2.68-33.62-3.29c-11.3-0.61-23.86-4.56-29.02-15.35"/>
		<g>
			<path d="M169.27,1812.72c24.97,10.51,50.85,18.6,77.32,24.36c2.98,0.65,16.07,1.9,17.85-2.54c3.13-7.83,1.51-15.76-3.71-22.38
				c-6.12-7.76-15.39-11.45-24.89-13.06c-10.4-1.76-21.27-0.36-31.37-1.71c-7.08-0.95-13.58-5.28-17.12-12.09
				c-2.91-5.6-26.3-3.26-23.43,2.26c8.69,16.75,31.3,18.55,47.92,18.64c7.81,0.05,15.88-0.63,22.21,4.76
				c5.86,4.99,9.99,13.72,6.96,21.32c5.95-0.85,11.9-1.69,17.85-2.54c-24.82-5.39-48.99-13.17-72.4-23.03
				c-4.96-2.09-12.19-1.83-17.18,0C164.84,1808.33,165.09,1810.96,169.27,1812.72L169.27,1812.72z"/>
		</g>
	</g>
	<g class="st11">
		<path d="M388.22,1648.72c132.45,88.97,295.11,124.9,449.57,99.29c-167.56,76.7-398.84,63.31-505.86-81.2
			c20.45-10.54,30.74-14.24,51.19-24.78"/>
		<g>
			<path d="M377.73,1650.87c52.39,35.09,109.98,62.45,170.29,80.84c61.04,18.61,124.7,28.35,188.52,28.62
				c35.98,0.16,71.88-2.81,107.38-8.64c-5.54-1.94-11.08-3.88-16.62-5.82c-32.05,14.62-65.85,25.54-100.28,32.92
				c-34.83,7.47-69.94,11.24-104.71,11.17c-33.82-0.07-67.88-3.8-101.73-12.08c-32.47-7.94-63.99-20.26-92.82-37.22
				c-32.72-19.25-61.43-44.5-84.11-74.98c-0.41,1.09-0.82,2.18-1.22,3.28c16.87-8.66,34.32-16.12,51.19-24.78
				c4.87-2.5-2.22-5.37-4.36-5.82c-5.28-1.12-11.73-0.98-16.62,1.53c-16.87,8.66-34.32,16.12-51.19,24.78
				c-1.2,0.62-2.16,2.02-1.22,3.28c43.2,58.03,107.48,95.53,176.59,114.29c74.47,20.21,153.96,20.76,229.56,6.5
				c42.03-7.93,83.01-20.83,121.93-38.58c3.71-1.69,0.15-4.4-1.9-5.15c-4.63-1.69-9.95-1.45-14.72-0.66
				c-57.51,9.45-116.26,9.76-173.97,1.8c-58.5-8.07-116.02-25.07-169.72-49.61c-31.05-14.19-60.9-30.96-89.26-49.96
				c-4.37-2.93-11.72-2.56-16.62-1.53C379.4,1645.62,373.31,1647.91,377.73,1650.87L377.73,1650.87z"/>
		</g>
	</g>
	<g class="st11">
		<path d="M922.06,1693.85c8.46,7.5,16.92,15,25.38,22.5c9.77,8.66,3.28,28.35-9.08,31.36c-12.36,3.01-34.78-2.21-38.57-15.18
			c-3.8-12.97,9.22-32.51,14.71-44.76"/>
		<g>
			<path d="M910.34,1694.98c6.97,6.18,13.93,12.35,20.9,18.53c4.9,4.34,8.85,7.56,8.78,14.52c-0.05,5.21-2.13,10.58-5.95,14.2
				c-0.97,0.92-4.83,2.48-1.96,1.93c-0.72,0.09-1.45,0.16-2.17,0.2c1.35-0.08,1.28-0.11-0.21-0.09c2.74,0.71-2.29-0.33-1.34-0.18
				c-9.23-1.44-18.05-8.07-17-19.15c1.23-12.99,9.53-24.47,14.83-36.04c2.65-5.79-20.83-7.95-23.43-2.26
				c-5.19,11.34-12.42,22.15-15.08,34.5c-2.53,11.77,3.11,20.52,13.69,25.55c19.07,9.05,60.94,12.12,62.89-17.55
				c0.4-6.16-2.12-11.22-6.62-15.25c-7.92-7.1-15.93-14.12-23.89-21.17c-3.8-3.37-10.14-3.45-14.95-2.97
				C917.67,1689.87,907.01,1692.03,910.34,1694.98L910.34,1694.98z"/>
		</g>
	</g>
	<g class="st11">
		<path d="M986.46,1736.78c15.54,13.2,34.59,21.59,54.29,23.91c7.27,0.85,10.89,11.34,7.51,18.29c-3.38,6.96-11.24,10.2-18.56,10.22
			c-7.31,0.02-14.38-2.53-21.5-4.34s-14.8-2.84-21.58,0.11c-10.71,4.65-24.44-2.36-27.83-14.2s4.34-25.9,15.64-28.47"/>
		<g>
			<path d="M974.75,1737.91c11.52,9.64,24.47,17.16,38.83,21.75c3.7,1.18,7.47,2.21,11.26,3.05c1.62,0.36,3.24,0.68,4.87,0.95
				c1.03,0.18,2.06,0.32,3.08,0.48c0.38,0.06,5.32,0.55,1.78,0.07c-2.21-0.3-0.31,0.28,0.61,1.49c0.67,0.88,1.19,1.92,1.54,2.96
				c0.85,2.5,0.97,5.63,0.19,8.16c-0.83,2.7-2.86,5.12-5.15,6.69c-0.79,0.54-1.66,1.06-2.57,1.35c-0.35,0.11,1.11,0.02,0.1,0.07
				c-3.05,0.14-6.88-1.54-9.83-2.35c-4.39-1.2-8.75-2.29-13.26-2.94c-9.07-1.31-18.69-1.1-27.38,2.04c-2.76,1-1.68,0.51,0.63,0.51
				c1.93,0,3.23,1.08,1.38-0.11c-2.23-1.43-4.27-2.48-6.05-4.55c-4.26-4.98-5.47-11.43-4.05-17.75c1.02-4.56,5.05-12.51,9.84-13.79
				c2.65-0.71,8.66-2.75,4.36-5.82c-3.93-2.81-12.21-2.7-16.62-1.53c-7.88,2.1-14.85,5.92-18.91,13.3
				c-3.37,6.13-4.61,13.38-2.35,20.09c5.79,17.16,27.77,21.1,43.37,17.45c2.56-0.6,5.38-2.06,6.65-2.02
				c5.15,0.16,10.7,2.76,15.67,3.94c10.7,2.55,22.52,3.16,33.08-0.37c7.19-2.41,14.23-7.43,15.64-15.35
				c1.15-6.42-2.05-13.19-7.69-16.36c-4.59-2.57-10.03-2.57-15.06-3.6c-4.6-0.94-9.07-2.31-13.46-3.99
				c-9.8-3.75-19.04-9.34-27.08-16.07c-3.94-3.29-10.04-3.46-14.95-2.97C982.15,1732.79,971.34,1735.06,974.75,1737.91
				L974.75,1737.91z"/>
		</g>
	</g>
	<g class="st11">
		<path d="M976.49,1802.65c-3.28,4.64,0.01,11.55,4.52,14.8c4.51,3.25,10.1,4.6,14.29,8.3c4.19,3.7,6.11,11.58,1.72,15.01
			c-11.71,9.14-30.4,5.11-37.91-8.17c-7.51-13.29-2.18-32.91,10.8-39.81"/>
		<g>
			<path d="M964.78,1801.51c-2.76,4.78-1.71,10.05,1.66,14.3c3.79,4.77,9.62,6.53,14.68,9.48c3.91,2.28,8.26,7.77,5.69,12.6
				c-1.02,1.93-3.22,2.39-4.93,3.4c-2.72,1.61,1.59-0.45,1.35,0.22c-0.57,1.57-9.54-6-10.23-6.87c-3.27-4.11-4.86-9-5.13-14.21
				c-0.51-9.88,3.67-20.5,12.54-25.53c4.69-2.66-2.05-5.33-4.36-5.82c-5.09-1.08-11.93-1.14-16.62,1.53
				c-11.51,6.53-17.77,20.63-15.42,33.63c2.57,14.18,14.64,22.5,28.18,24.83c8.75,1.51,18.44,1.27,26.88-1.76
				c5.78-2.07,12.87-5.64,12.59-12.75c-0.29-7.35-6.21-11.93-12.21-14.96c-5.4-2.72-15.79-7.97-11.24-15.83
				C991.15,1798.7,968.07,1795.83,964.78,1801.51L964.78,1801.51z"/>
		</g>
	</g>
	<g class="st11">
		<path d="M1096.48,1770.65c23.03,19.29,38.15,24.26,63.81,39.26c-3.16,9.11-5.34,23.65-13.92,20.51
			c-8.58-3.14-23.85-13.88-23.85-13.88s-19.49-4.38-24.94,3.39c-4.54,6.48-14.17,7.94-20.21,3.07s-7.41-15.19-2.87-21.67
			c6.61-9.44,13.21-18.87,19.82-28.31"/>
		<g>
			<path d="M1084.76,1771.78c9.91,8.23,20.31,15.59,31.54,21.92c11.1,6.25,22.48,11.96,33.49,18.36c-0.55-0.72-1.11-1.43-1.66-2.15
				c-1.58,4.7-2.53,9.75-4.73,14.21c-2.39,4.86-5.53,3.89,4.51,3.54c10.13-0.35,8.32,0.43,5.06-1.07c-1.28-0.59-2.52-1.28-3.75-1.96
				c-4.28-2.36-8.41-4.98-12.48-7.68c-2.78-1.85-4.85-3.36-8.25-4.11c-9.57-2.12-20.27-2.65-29.88-0.62
				c-5.34,1.12-9.51,3.08-13.17,7.1c-0.79,0.87-1.85,1.53-2.61,2.35c0.14-0.15-0.98,0.49-0.97,0.46c0.02-0.06,7.72-0.3,7.7-0.03
				c0.14,0.05,0.27,0.1,0.41,0.15c-0.37-0.21-0.73-0.42-1.1-0.64c-0.38-0.38-0.83-0.69-1.21-1.07c-1.04-1.04-1.94-2.43-2.52-3.78
				c-3.32-7.68,0.63-13.68,4.91-19.79c5.32-7.6,10.65-15.2,15.97-22.8c2.6-3.71-6.67-5.05-8.49-5.23
				c-3.78-0.37-12.31-0.8-14.95,2.97c-5.51,7.86-11.01,15.73-16.52,23.59c-4.33,6.18-7.91,12.1-5.72,19.91
				c4.76,16.99,30.58,18.33,43.48,10.57c2.57-1.55,3.93-3.75,6.06-5.68c0.98-0.88,0.49-0.24,1.52-0.87
				c-0.24,0.15-1.08,0.31-1.37,0.25c2.04,0.48-0.71-0.01,0.47-0.08c3.04-0.18-0.64-0.22,1.37,0.01c1.17,0.14,2.35,0.25,3.52,0.39
				c-4.15-0.48,4.66,1.53-1.2-0.51c-4.38-1.52-0.42,0.44,0.85,1.29c2.21,1.49,4.45,2.94,6.71,4.34c5.33,3.31,10.96,6.74,16.98,8.62
				c7.94,2.49,20.94,2.78,26.54-4.69c4.01-5.34,5.08-12.91,7.16-19.12c-0.17-0.99-0.72-1.71-1.66-2.15
				c-21.24-12.36-43.55-22.43-62.59-38.25c-3.95-3.28-10.03-3.46-14.95-2.97C1092.17,1766.66,1081.35,1768.95,1084.76,1771.78
				L1084.76,1771.78z"/>
		</g>
	</g>
	<g class="st11">
		<path d="M1029.76,1830.48c-0.48,9.99,7.73,18.3,16.52,21.65s18.36,3.24,27.52,5.14c9.16,1.91,18.75,6.71,22.37,15.93
			c3.62,9.22-2.64,14.54-11.87,13.14c-21.55-3.28-43.37,1.32-64.92-1.95c-13.49-2.05-24.1-16.89-22.45-31.39
			c1.65-14.5,15.28-26.17,28.83-24.68"/>
		<g>
			<path d="M1017.61,1830.48c-0.09,17.01,17.46,25.21,31.83,27.77c7.63,1.36,16.08,1.19,23.28,4.3c5.78,2.5,11.67,7.89,12.28,14.53
				c0.12,1.31,0.1,2.81-0.51,4.01c-0.09,0.18-1.36,1.91-1.48,1.76c-0.39-0.51,8.17-0.04,2.6-0.87c-2.52-0.38-5.08-0.55-7.62-0.72
				c-10.01-0.64-19.98-0.3-29.99-0.03c-7.43,0.2-16.58,1.33-23.83-0.77c-5.79-1.67-10.35-7.81-12.78-12.99
				c-3.33-7.08-3.41-15.91,0.2-22.9c1.66-3.22,4.03-6.36,6.85-8.65c1.48-1.2,3.23-2.31,4.97-3.07c2.07-0.9,2.55-0.18-0.89-0.45
				c3.52,0.27,12.88,0.94,14.95-2.97c2.07-3.91-6.48-5.08-8.49-5.23c-19.25-1.49-41.73,6.99-44.21,28.79
				c-0.98,8.58,2.39,17.79,8.13,24.16c6.65,7.37,15.53,10.38,25.15,11.6c12.49,1.58,25.07,1.09,37.62,0.75
				c5.19-0.14,10.4-0.3,15.59-0.06c5.69,0.26,11.27,1.41,16.98,1.34c7.8-0.11,20.31-2.16,21.1-11.99
				c0.69-8.59-7.35-16.23-14.25-19.89c-10.77-5.71-22.53-5.94-34.23-8.15c-10.15-1.92-18.99-9.29-18.93-20.27
				C1041.94,1824.46,1017.64,1824.32,1017.61,1830.48L1017.61,1830.48z"/>
		</g>
	</g>
	<g class="st11">
		<g>
			<path d="M973.66,1963.62c3.3,0,14.74-0.2,15-5.25c0.26-4.87-12.63-5.25-15-5.25c-3.3,0-14.74,0.2-15,5.25
				C958.4,1963.25,971.29,1963.62,973.66,1963.62L973.66,1963.62z"/>
		</g>
	</g>
	<g class="st11">
		<g>
			<path d="M929.93,855.82c-11.15,7.96-18.45,20.72-17.79,34.71c0.64,13.68,8.09,26.51,20.11,33.25
				c13.66,7.65,25.93-13.33,12.27-20.98c-9.25-5.18-11.31-19.58-2.32-26c5.33-3.81,7.89-10.6,4.36-16.62
				C943.47,854.91,935.3,851.99,929.93,855.82L929.93,855.82z"/>
		</g>
	</g>
	<g class="st11">
		<g>
			<path d="M879.15,833.06c-18.75,14.53-18.88,44.71-3.83,61.66c4.36,4.91,12.74,4.45,17.18,0c4.88-4.88,4.37-12.26,0-17.18
				c-1.33-1.5-2.21-3-3.02-5.9c-0.22-0.81-0.41-1.62-0.57-2.44c-0.4-2.03,0.09,1.56-0.07-0.51c-0.15-1.89-0.16-3.81,0.02-5.69
				c-0.15,1.6,0.47-2.25,0.68-2.98c0.22-0.8,0.47-1.61,0.76-2.39c-0.44,1.19-0.01-0.02,0.24-0.52c0.37-0.73,0.79-1.44,1.2-2.15
				c1.77-3.06-0.65,0.53,0.61-0.99c1.17-1.4,2.54-2.6,3.98-3.71c5.19-4.02,4.23-12.95,0-17.18
				C891.21,827.93,884.36,829.02,879.15,833.06L879.15,833.06z"/>
		</g>
	</g>
	<g class="st11">
		<g>
			<path d="M877.05,900.86c-13.81,21.04-6.9,52.43,14.59,65.5c13.4,8.15,25.62-12.86,12.26-20.98c-2.13-1.29-4.41-3.49-5.61-5.44
				c-2.17-3.55-2.69-4.79-3.69-9.38c-0.12-0.56-0.34-1.9-0.17-0.57c-0.14-1.05-0.18-2.13-0.21-3.2c-0.03-1.07-0.01-2.13,0.04-3.2
				c0.03-0.61,0.17-1.9-0.02-0.57c0.29-2.05,0.84-4.17,1.58-6.11c-0.45,1.19,0.04-0.09,0.28-0.55c0.57-1.13,1.24-2.18,1.93-3.24
				c3.6-5.49,1.1-13.43-4.36-16.62C887.75,893.03,880.66,895.35,877.05,900.86L877.05,900.86z"/>
		</g>
	</g>
	<g class="st11">
		<g>
			<path d="M913.73,949.67c6.02,26.01,38.99,41.86,62,26.31c5.43-3.67,7.83-10.7,4.36-16.62c-3.15-5.39-11.16-8.05-16.62-4.36
				c-0.82,0.55-1.67,1.02-2.5,1.55c-1.08,0.68,1.24-0.28-0.79,0.39c-1.09,0.36-2.18,0.63-3.3,0.87c1.23-0.26,0.91-0.02-0.16-0.02
				c-1.15,0-2.27,0.01-3.42-0.02c-1.03-0.02-1.43-0.25-0.19,0c-1.14-0.23-2.26-0.49-3.37-0.83c-0.27-0.08-3.04-1.14-1.82-0.61
				c-5.73-2.5-9.31-6.93-10.74-13.1c-1.48-6.39-8.81-10.17-14.95-8.49C915.66,936.53,912.25,943.26,913.73,949.67L913.73,949.67z"/>
		</g>
	</g>
	<g class="st11">
		<g>
			<path d="M645.91,1067.67c-0.61,4.94-4.09,10.79-8.68,14.76c-4.32,3.74-8.99,5.32-15.1,4.95c-6.56-0.4-12.15,5.87-12.15,12.15
				c0,6.91,5.57,11.75,12.15,12.15c25.54,1.55,45.12-20.13,48.09-44.01c0.81-6.52-6.16-12.15-12.15-12.15
				C650.82,1055.52,646.72,1061.12,645.91,1067.67L645.91,1067.67z"/>
		</g>
	</g>
</g>
<g id="Ebene_20">
	<g class="st11">
		<g>
			<path class="st12" d="M799.49,664.94c1.79,0.74,1.98,0.82,0.59,0.24c0.99,0.42,1.97,0.85,2.96,1.28
				c1.97,0.86,3.93,1.75,5.88,2.65c3.42,1.58,6.82,3.21,10.19,4.89c7.24,3.62,14.37,7.48,21.35,11.58
				c7.01,4.11,13.89,8.45,20.62,13.01c3.38,2.29,6.71,4.63,10.01,7.02c1.54,1.12,3.08,2.25,4.6,3.39c0.87,0.65,1.74,1.31,2.61,1.97
				c-1.12-0.87-0.91-0.72,0.6,0.47c12.93,10.16,25.22,21.1,36.77,32.81c5.81,5.89,11.43,11.96,16.85,18.21
				c2.54,2.93,5.03,5.89,7.48,8.89c1.4,1.72,2.78,3.46,4.16,5.19c1.19,1.53,1.37,1.75,0.53,0.66c0.68,0.88,1.35,1.76,2.02,2.65
				c5.1,6.73,14.2,10.94,22.17,5.81c6.65-4.29,11.29-14.94,5.81-22.17C931.27,706.2,874.61,661.3,808.1,633.7
				c-7.85-3.26-18.15,3.51-19.93,11.32C786.02,654.47,791.08,661.45,799.49,664.94L799.49,664.94z"/>
		</g>
	</g>
	<g class="st11">
		<g>
			<path class="st12" d="M930.1,829.5c8.47,0,16.59-7.45,16.2-16.2c-0.39-8.78-7.12-16.2-16.2-16.2c-8.47,0-16.59,7.45-16.2,16.2
				C914.29,822.08,921.02,829.5,930.1,829.5L930.1,829.5z"/>
		</g>
	</g>
	<g class="st11">
		<g>
			<path class="st12" d="M1019.03,992.98c0.69,0.83,1.38,1.67,2.05,2.52c-0.72-0.92-0.74-0.93-0.08-0.04
				c1.12,1.54,2.21,3.1,3.26,4.69c1.8,2.74,3.48,5.55,5.05,8.43c1.05,1.93,2.05,3.88,2.99,5.86c0.22,0.46,2.09,4.62,1.05,2.16
				c1.41,3.3,2.6,6.7,3.68,10.12c1.09,3.43,2.03,6.91,2.82,10.43c0.37,1.63,0.7,3.26,1,4.9c0.14,0.78,0.86,5.39,0.74,4.44
				c-0.12-0.96,0.35,3.7,0.41,4.48c0.13,1.66,0.22,3.33,0.28,5c0.14,3.9,0.08,7.79-0.13,11.69c-0.44,8.48,7.77,16.58,16.2,16.2
				c9.15-0.41,15.73-7.12,16.2-16.2c1.85-35.47-10.11-70.27-32.61-97.58c-5.41-6.57-17.38-6.02-22.91,0
				C1012.62,977.05,1013.26,985.98,1019.03,992.98L1019.03,992.98z"/>
		</g>
	</g>
	<g class="st11">
		<g>
			<path class="st12" d="M994.43,1196.42c-0.54,11.16-1.33,22.3-2.42,33.42c-0.52,5.26-1.1,10.52-1.75,15.77
				c-0.69,5.61-1.05,8.2-2.07,14.89c-3.37,22.02-7.86,43.87-13.43,65.44c-5.55,21.49-12.19,42.71-19.88,63.53
				c-7.75,20.96-15.11,38.09-25.24,58.57c-11.01,22.26-23.35,43.85-36.92,64.65c-4.64,7.11-1.66,18.21,5.81,22.17
				c8.08,4.27,17.21,1.78,22.17-5.81c49.67-76.17,82.92-163.29,97.63-252.98c4.32-26.36,7.22-52.96,8.5-79.64
				c0.41-8.48-7.74-16.58-16.2-16.2C1001.51,1180.63,994.87,1187.34,994.43,1196.42L994.43,1196.42z"/>
		</g>
	</g>
	<g class="st11">
		<g>
			<path class="st12" d="M814.44,1678.79c0.95,3.06,1.91,6.13,2.86,9.19c1.24,3.97,3.81,7.56,7.45,9.68
				c3.47,2.03,8.59,2.89,12.48,1.63c3.92-1.27,7.7-3.7,9.68-7.45c2-3.79,2.94-8.28,1.63-12.48c-0.95-3.06-1.91-6.13-2.86-9.19
				c-1.24-3.97-3.81-7.56-7.45-9.68c-3.47-2.03-8.59-2.89-12.48-1.63c-3.92,1.27-7.7,3.7-9.68,7.45
				C814.07,1670.1,813.13,1674.59,814.44,1678.79L814.44,1678.79z"/>
		</g>
	</g>
	<g class="st11">
		<g>
			<path class="st12" d="M970.42,1688.79c1.91,3.06,3.81,6.13,5.72,9.19c2.19,3.52,5.65,6.33,9.68,7.45
				c3.88,1.07,9.04,0.59,12.48-1.63c3.46-2.23,6.5-5.55,7.45-9.68c0.95-4.19,0.69-8.74-1.63-12.48c-1.91-3.06-3.81-6.13-5.72-9.19
				c-2.19-3.52-5.65-6.33-9.68-7.45c-3.88-1.07-9.04-0.59-12.48,1.63c-3.46,2.23-6.5,5.55-7.45,9.68
				C967.83,1680.5,968.09,1685.05,970.42,1688.79L970.42,1688.79z"/>
		</g>
	</g>
	<g class="st11">
		<g>
			<path class="st12" d="M1041.87,1731.7c5.72,9.19,11.43,18.39,17.15,27.58c4.47,7.19,14.67,10.64,22.17,5.81
				c7.21-4.65,10.6-14.47,5.81-22.17c-5.72-9.19-11.43-18.39-17.15-27.58c-4.47-7.19-14.67-10.64-22.17-5.81
				C1040.47,1714.18,1037.09,1724,1041.87,1731.7L1041.87,1731.7z"/>
		</g>
	</g>
	<g class="st11">
		<g>
			<path class="st12" d="M1114.97,1776.67c2.87,7.14,5.75,14.29,8.62,21.43c3.15,7.83,10.95,14.22,19.93,11.32
				c7.57-2.45,14.7-11.51,11.31-19.93c-2.87-7.14-5.75-14.29-8.62-21.43c-3.15-7.83-10.95-14.22-19.93-11.32
				C1118.71,1759.2,1111.58,1768.25,1114.97,1776.67L1114.97,1776.67z"/>
		</g>
	</g>
	<g class="st11">
		<g>
			<path class="st12" d="M1127.32,1850.05c8.47,0,16.59-7.45,16.2-16.2c-0.39-8.78-7.12-16.2-16.2-16.2
				c-8.47,0-16.59,7.45-16.2,16.2C1111.51,1842.63,1118.23,1850.05,1127.32,1850.05L1127.32,1850.05z"/>
		</g>
	</g>
	<g class="st11">
		<g>
			<path class="st12" d="M1041.57,1810.21c8.47,0,16.59-7.45,16.2-16.2c-0.39-8.78-7.12-16.2-16.2-16.2
				c-8.47,0-16.59,7.45-16.2,16.2C1025.76,1802.79,1032.49,1810.21,1041.57,1810.21L1041.57,1810.21z"/>
		</g>
	</g>
	<g class="st11">
		<g>
			<path class="st12" d="M299.38,1689.81c0.95,7.15,1.91,14.3,2.86,21.45c0.6,4.47,1.41,8.13,4.74,11.46
				c2.81,2.81,7.42,4.93,11.46,4.74c7.82-0.35,17.4-7.2,16.2-16.2c-0.95-7.15-1.91-14.3-2.86-21.45c-0.6-4.47-1.41-8.13-4.74-11.46
				c-2.81-2.81-7.42-4.93-11.46-4.74C307.76,1673.96,298.18,1680.81,299.38,1689.81L299.38,1689.81z"/>
		</g>
	</g>
	<g class="st11">
		<g>
			<path class="st12" d="M241.24,1768.69c2.86,3.06,5.72,6.13,8.57,9.19c5.79,6.21,17.13,6.29,22.91,0c6.11-6.65,6.18-16.28,0-22.91
				c-2.86-3.06-5.72-6.13-8.57-9.19c-5.79-6.21-17.13-6.29-22.91,0C235.14,1752.43,235.06,1762.06,241.24,1768.69L241.24,1768.69z"
				/>
		</g>
	</g>
	<g class="st11">
		<g>
			<path class="st12" d="M278.42,1834.73c8.47,0,16.59-7.45,16.2-16.2c-0.39-8.78-7.12-16.2-16.2-16.2c-8.47,0-16.59,7.45-16.2,16.2
				C262.61,1827.31,269.34,1834.73,278.42,1834.73L278.42,1834.73z"/>
		</g>
	</g>
	<g class="st11">
		<g>
			<path class="st12" d="M164.09,1791.82c8.47,0,16.59-7.45,16.2-16.2c-0.39-8.78-7.12-16.2-16.2-16.2c-8.47,0-16.59,7.45-16.2,16.2
				C148.29,1784.4,155.01,1791.82,164.09,1791.82L164.09,1791.82z"/>
		</g>
	</g>
	<g class="st11">
		<g>
			<path class="st12" d="M215.54,1859.25c8.47,0,16.59-7.45,16.2-16.2c-0.39-8.78-7.12-16.2-16.2-16.2c-8.47,0-16.59,7.45-16.2,16.2
				C199.73,1851.82,206.46,1859.25,215.54,1859.25L215.54,1859.25z"/>
		</g>
	</g>
	<g class="st11">
		<g>
			<path class="st12" d="M921.92,903.91c2.86,2.04,5.72,4.09,8.57,6.13c3.24,2.31,8.79,2.65,12.48,1.63
				c3.76-1.03,7.83-3.94,9.68-7.45c1.99-3.76,2.98-8.31,1.63-12.48c-0.54-1.29-1.09-2.58-1.63-3.87c-1.44-2.43-3.38-4.37-5.81-5.81
				c-2.86-2.04-5.72-4.09-8.57-6.13c-3.24-2.31-8.79-2.65-12.48-1.63c-3.76,1.03-7.83,3.94-9.68,7.45
				c-1.99,3.76-2.98,8.31-1.63,12.48c0.54,1.29,1.09,2.58,1.63,3.87C917.55,900.53,919.49,902.47,921.92,903.91L921.92,903.91z"/>
		</g>
	</g>
</g>
<g id="Ebene_21">
	<g>
		<g id="Ebene_3_1_">
			<g class="st13">
				<g>
					<path d="M951.61,898.27c3.76,0,7.45-8.53,3.32-8.53C951.17,889.74,947.49,898.27,951.61,898.27L951.61,898.27z"/>
				</g>
			</g>
			<g class="st13">
				<path d="M945.08,892.03c4.35,66.64,8.71,133.28,13.06,199.92c64.91-48.2,129.84-96.4,194.75-144.6
					c36.19-26.87,70.37-69.09,117.29-66.72c48.63,2.46,105.09,1.99,151.56,4.34c111.96,5.66,199.42,0.03,310.51-14.63
					c33.99-4.49,86.18-34.41,111.55-56.72c30.9-27.16,34.28-56.85,37.21-97.11c11.37-156.06-16.94-312.7-61.19-463.2
					c-10.97-37.32-25.61-77.77-60.33-97.29c-30.74-17.28-69.04-13.38-104.22-8.32c-279.13,40.15-552.09,120.04-807.33,236.31
					c-28.16,12.83-58.02,27.88-71.86,54.81c-10.93,21.27-12.83,46.65-7.87,69.9c21.07,98.85,32.4,164.18,48.32,267.94
					c4.49,29.29,15.88,75.21,42.21,90.38c25.76,14.84,54.88,14.66,83.35,11.56c2.37,4.48,4.76,8.96,7.13,13.44"/>
				<g>
					<path d="M941.6,893.9c4.35,66.64,8.71,133.28,13.06,199.92c0.18,2.77,2.52,2.8,4.43,1.38
						c49.71-36.91,99.42-73.82,149.14-110.73c22.02-16.35,44.59-32.17,65.47-49.88c17.21-14.6,34.2-30.29,54.71-40.55
						c10.2-5.1,21.39-8.63,32.92-9.16c13.33-0.62,26.99,0.9,40.34,1.27c28.13,0.8,56.27,1.06,84.4,1.82
						c28.37,0.76,56.69,2.51,85.06,3.09c28.33,0.58,56.68,0.39,84.99-0.67c56.5-2.11,112.77-7.74,168.78-15.01
						c22.07-2.86,42.25-10.55,61.89-20.53c19.63-9.98,38.8-21.79,55.53-35.92c16.42-13.86,28.41-31.12,34.44-51.41
						c6.44-21.7,7.36-44.89,8.64-67.31c3.35-58.39,1.23-117.01-5.09-175.14c-6.22-57.26-16.46-114.07-29.56-170.22
						c-6.6-28.29-13.93-56.42-21.86-84.38c-6.61-23.32-13.04-46.93-23.73-68.89c-9.42-19.36-22.68-37.49-41.9-48.77
						c-22.23-13.06-48.99-14.84-74.35-13.04c-27.76,1.98-55.41,6.96-82.84,11.38c-28.85,4.65-57.64,9.73-86.33,15.23
						c-114.09,21.87-226.82,50.4-337.37,85.35c-110.19,34.84-218.24,76.04-323.32,123.38c-21.73,9.79-44.21,19.46-62.57,34.69
						c-18.52,15.38-29.73,36.19-33.15,59.51c-3.93,26.75,3.79,52.73,9.15,78.78c5.04,24.5,9.87,49.03,14.43,73.61
						c9.34,50.35,17.47,100.9,25.26,151.49c5.73,37.28,14.48,86.39,54.59,103.07c23.55,9.79,49.47,9.22,74.47,6.55
						c-0.73-0.22-1.45-0.45-2.18-0.67c2.37,4.48,4.76,8.96,7.13,13.44c1.83,3.44,7.71-3.79,5.98-7.04
						c-2.37-4.48-4.76-8.96-7.13-13.44c-0.41-0.78-1.46-0.75-2.18-0.67c-26.77,2.85-54.94,2.94-79.16-9.98
						c-18.03-9.61-27.29-28.94-33.52-47.06c-6.94-20.17-9.96-41.07-13.21-62.01c-3.94-25.44-7.99-50.87-12.25-76.26
						c-8.04-47.87-17.03-95.57-26.89-143.13c-5.47-26.41-12.61-52.3-5.55-79.15c6.28-23.89,22.89-40.56,44.22-53.1
						c21.8-12.81,45.75-22.46,68.94-32.63c25.7-11.27,51.56-22.17,77.59-32.71c53.03-21.47,106.73-41.38,161-59.74
						c106.53-36.05,215.25-66.08,325.4-89.9c55.75-12.05,111.87-22.5,168.26-31.34c26.78-4.19,53.98-9.33,81.19-9.73
						c25.12-0.37,50.25,4.51,69.97,20.38c17.46,14.05,28.44,34.35,36.4,54.54c9.26,23.49,15.6,48.13,22.22,72.4
						c15.03,55.08,27.67,110.79,36.8,167.07c9.12,56.13,14.7,112.84,15.61,169.66c0.46,28.55-0.28,57.12-2.31,85.61
						c-1.52,21.18-2.9,43.27-11.84,62.97c-8.62,18.98-24.66,32.74-41.75,44.61c-18.71,13-39.14,24.38-60.53,32.74
						c-22.67,8.86-46.72,10.69-70.8,13.5c-28.07,3.28-56.2,6.05-84.4,8.04c-55.04,3.88-110.23,4.55-165.37,2.36
						c-54.46-2.17-108.99-2.47-163.43-4.87c-11.35-0.5-22.15-0.55-33.17,2.55c-9.78,2.75-19,7.15-27.6,12.39
						c-19.12,11.65-35.43,26.92-52.49,41.11c-21.4,17.8-44.53,33.78-66.92,50.4c-23.98,17.81-47.96,35.61-71.94,53.41
						c-23.39,17.37-46.79,34.74-70.18,52.11c1.47,0.46,2.95,0.92,4.43,1.38c-4.35-66.64-8.71-133.28-13.06-199.92
						C948.2,884.66,941.37,890.32,941.6,893.9L941.6,893.9z"/>
				</g>
			</g>
			<g class="st13">
				<g>
					<path d="M1819.77,1054.48c3.76,0,7.45-8.53,3.32-8.53C1819.33,1045.95,1815.64,1054.48,1819.77,1054.48L1819.77,1054.48z"/>
				</g>
			</g>
		</g>
		<g id="Ebene_3_Kopie">
			<g>
				<g>
					<path class="st14" d="M974.14,869.69c3.76,0,7.45-8.53,3.32-8.53C973.7,861.16,970.02,869.69,974.14,869.69L974.14,869.69z"/>
				</g>
			</g>
			<g>
				<path class="st15" d="M967.62,863.45c4.35,66.64,8.71,133.28,13.06,199.92c64.91-48.2,129.84-96.4,194.75-144.6
					c36.19-26.87,70.37-69.09,117.29-66.72c48.63,2.46,105.09,1.99,151.56,4.34c111.96,5.66,199.42,0.03,310.51-14.63
					c33.99-4.49,86.18-34.41,111.55-56.72c30.9-27.16,34.28-56.85,37.21-97.11c11.37-156.06-16.94-312.7-61.19-463.2
					c-10.97-37.32-25.61-77.77-60.33-97.29c-30.74-17.28-69.04-13.38-104.22-8.32c-279.13,40.15-552.09,120.04-807.33,236.31
					c-28.16,12.83-58.02,27.87-71.86,54.81c-10.93,21.27-12.83,46.65-7.87,69.9c21.07,98.85,32.4,164.18,48.32,267.94
					c4.49,29.29,20.47,69.5,42.21,90.38c21.74,20.88,59.05,29.63,83.35,11.56c2.37,4.48,4.76,8.96,7.13,13.44"/>
				<g>
					<path class="st14" d="M964.14,865.31c4.35,66.64,8.71,133.28,13.06,199.92c0.18,2.77,2.52,2.8,4.43,1.38
						c49.71-36.91,99.42-73.82,149.14-110.73c22.47-16.68,45.43-32.85,66.71-50.94c17.17-14.59,34.23-30.21,54.87-40.17
						c10.05-4.85,21.04-8.09,32.33-8.51c13.1-0.49,26.45,0.94,39.55,1.31c28.78,0.81,57.57,1.08,86.34,1.87
						c28.41,0.79,56.77,2.54,85.18,3.09c28.62,0.55,57.26,0.3,85.86-0.83c56.61-2.23,112.98-7.98,169.1-15.33
						c21.86-2.86,42.38-11.59,61.65-21.66c19.07-9.97,37.8-21.6,53.98-35.6c16.48-14.26,27.96-32.01,33.7-52.65
						c6.18-22.25,6.94-46.06,8.15-68.95c3.09-58.4,0.75-117.01-5.77-175.13c-6.49-57.93-17.05-115.39-30.53-172.17
						c-6.71-28.26-14.13-56.36-22.14-84.31c-6.47-22.6-12.98-45.39-23.8-66.48c-10.03-19.54-24.45-37.46-44.77-47.75
						c-22.78-11.53-49.25-12.29-74.33-10.12c-28.59,2.47-57.05,7.54-85.33,12.17c-28.5,4.67-56.93,9.75-85.28,15.24
						c-114.73,22.23-228.05,51.2-339.15,86.66c-110.41,35.24-218.66,76.9-323.89,124.69c-21.35,9.7-43.29,19.97-60.17,36.28
						c-17.34,16.75-26.27,39.03-28.04,62.47c-1,13.17,0.73,25.97,3.46,38.84c2.88,13.58,5.71,27.17,8.48,40.78
						c4.94,24.25,9.65,48.54,14.11,72.87c4.45,24.32,8.63,48.69,12.63,73.08c4.39,26.77,7.84,53.74,12.74,80.42
						c4,21.8,12.05,43.36,23.34,62.62c11.14,19,26.59,35.1,48.43,42.37c19.45,6.47,40.55,5.32,57.37-6.76
						c-1.31,0.09-2.63,0.19-3.94,0.27c2.37,4.48,4.76,8.96,7.13,13.44c1.83,3.44,7.71-3.79,5.98-7.04
						c-2.37-4.48-4.76-8.96-7.13-13.44c-0.82-1.55-3.03-0.38-3.94,0.27c-18.4,13.22-43.9,10.03-62.95-0.11
						c-20.19-10.75-33.03-30.15-42.27-49.98c-9.89-21.2-14.72-43-18.26-65.86c-3.96-25.62-8.02-51.23-12.3-76.81
						c-8.04-48.1-17.02-96.03-26.89-143.81c-5.37-26.03-12.87-51.79-7-78.39c5.37-24.31,20.86-41.86,42.21-54.94
						c21.62-13.26,45.75-22.89,68.99-33.11c25.99-11.44,52.17-22.5,78.5-33.18c52.38-21.25,105.41-40.97,159-59.2
						c107.13-36.42,216.47-66.75,327.28-90.78c55.74-12.09,111.86-22.58,168.24-31.45c26.84-4.22,54.08-9.37,81.33-10.01
						c25.18-0.59,50.56,3.79,70.64,19.37c17.71,13.74,28.94,33.88,37.03,54.01c9.49,23.61,15.86,48.45,22.55,72.9
						c14.96,54.73,27.57,110.1,36.75,166.03c9.27,56.45,14.95,113.51,15.92,170.67c0.48,28.55-0.21,57.12-2.22,85.61
						c-1.49,21.06-2.79,43-11.33,62.7c-8.3,19.14-24.04,33.04-41.06,45.03c-18.74,13.19-39.28,24.67-60.74,33.21
						c-23,9.15-47.35,11.06-71.85,13.92c-27.74,3.24-55.55,5.99-83.42,7.97c-55,3.91-110.17,4.62-165.27,2.47
						c-27.48-1.08-54.91-2.27-82.41-2.81c-27.36-0.53-54.74-0.89-82.08-2.1c-11.08-0.48-21.65-0.57-32.43,2.36
						c-10.05,2.72-19.53,7.23-28.34,12.59c-19.12,11.63-35.43,26.92-52.49,41.11c-21.4,17.8-44.53,33.78-66.92,50.4
						c-23.98,17.81-47.96,35.61-71.94,53.41c-23.39,17.37-46.79,34.74-70.18,52.11c1.47,0.46,2.95,0.92,4.43,1.38
						c-4.35-66.64-8.71-133.28-13.06-199.92C970.73,856.08,963.9,861.73,964.14,865.31L964.14,865.31z"/>
				</g>
			</g>
			<g>
				<g>
					<path class="st14" d="M1842.3,1025.9c3.76,0,7.45-8.53,3.32-8.53C1841.86,1017.37,1838.17,1025.9,1842.3,1025.9L1842.3,1025.9z
						"/>
				</g>
			</g>
		</g>
		<g id="Ebene_2_1_">
			<g>
				<g>
					<path d="M965.83,852.64c-18.91,2.14-38.64,3.32-57.31-1.12c-9-2.14-17.74-5.86-24.96-11.55c-8.13-6.41-14.18-15.46-19.1-24.31
						c-10.62-19.09-15.79-40.56-20.26-61.63c-5.24-24.71-10.21-49.48-15.3-74.22c-10.44-50.71-20.88-101.43-31.32-152.14
						c-8.61-41.85-20.59-92.15,9.28-128.95c12.86-15.85,30.72-27.08,49.01-36.32c20.32-10.27,41.66-18.73,62.77-27.34
						c46.75-19.07,94.16-36.62,142-52.95c95.08-32.46,191.87-60.05,289.33-85.03c97.3-24.95,195.3-47.29,293.34-69.33
						c23.68-5.33,47.44-11.74,71.58-14.76c22.85-2.86,46.53-1.17,66.14,11.51c34.85,22.53,47.96,67.16,60.44,103.48
						c31.77,92.52,51.97,188.74,59.99,285.9c3.85,46.68,5.58,93.94,2.97,140.73c-2.19,39.29-8.62,80.48-30.18,114.62
						c-22.56,35.7-60.64,55.31-101.74,64.89c-45.21,10.53-92.76,11.94-139.01,14.29c-98.82,5.03-197.76,4.18-296.66,2.08
						c-25.21-0.53-50.42-1.13-75.64-1.72c-3.76-0.09-7.49,8.43-3.32,8.53c103.16,2.38,206.38,5.08,309.56,2.12
						c50.6-1.45,101.47-3.49,151.82-8.71c42.3-4.38,85.99-12.98,121.08-37.57c73.07-51.2,73.37-150.57,71.86-229.02
						c-1.93-100.08-16.68-199.98-43.74-296.61c-6.86-24.49-14.51-48.78-22.95-72.81c-7-19.94-14.14-40.05-24.55-58.61
						c-9.24-16.48-21.56-31.99-38.43-41.74c-19.65-11.36-42.78-12.55-65-9.89c-24.82,2.98-49.26,9.65-73.58,15.11
						c-25.61,5.76-51.23,11.54-76.82,17.38c-50.87,11.62-101.69,23.47-152.35,35.9c-100.83,24.73-201.14,51.71-299.87,83.44
						c-49.44,15.88-98.48,32.96-146.92,51.52c-23.71,9.09-47.29,18.51-70.7,28.33c-20.28,8.51-40.8,16.98-59.47,28.54
						c-17.27,10.7-32.99,24.21-43.15,41.65c-11.14,19.12-14.49,41.15-13.61,62.84c0.93,23.05,6.08,45.73,10.72,68.28
						c5.37,26.06,10.73,52.12,16.1,78.19c10.53,51.17,20.11,102.63,31.77,153.57c4.79,20.93,11.06,42.01,22.96,60.3
						c10.85,16.68,25.61,27.13,45.65,31.19c18.37,3.72,37.48,2.41,55.98,0.32C967.78,860.62,970.82,852.08,965.83,852.64
						L965.83,852.64z"/>
				</g>
			</g>
			<g>
				<g>
					<path d="M961.06,812.16c1.73,33.31,3.15,66.64,4.55,99.97c1.5,35.65,2.94,71.3,4.52,106.95c0.8,17.97,1.63,35.93,2.57,53.89
						c0.1,1.81,1.72,3.18,3.55,1.98c44.66-29.41,88.41-60.12,131.08-92.15c43.97-33.01,86.85-67.44,127.83-103.88
						c21.88-19.46,43.19-39.52,63.67-60.36c1.27-1.3,2.5-4.32,1.22-5.94c-1.42-1.79-3.68-0.01-4.77,1.1
						c-36.64,37.28-76.03,72-116.6,105.23c-42.22,34.58-85.89,67.52-130.54,99.13c-23.71,16.79-47.73,33.19-72.03,49.19
						c1.18,0.66,2.36,1.32,3.55,1.98c-1.73-33.31-3.15-66.64-4.55-99.97c-1.5-35.65-2.94-71.3-4.52-106.95
						c-0.8-17.97-1.63-35.93-2.57-53.89c-0.1-2.03-1.69-2.86-3.55-1.98C962.53,807.38,960.95,810.07,961.06,812.16L961.06,812.16z"
						/>
				</g>
			</g>
			<g>
				<g>
					<path d="M1933.94,693.25c-2.3,38.87-17.29,76.86-42.1,107.52c-25.54,31.55-61.25,54.38-100.99,65.63
						c-22.68,6.43-46.34,9.06-69.93,7.64c-3.75-0.22-7.54,8.27-3.32,8.53c43.74,2.64,88.06-8.47,125.13-31.04
						c36.66-22.32,65.12-55.58,81.91-94.1c9.4-21.56,14.89-44.58,16.27-67.92c0.12-2.08-1.85-2.79-3.55-1.98
						C1935.24,688.55,1934.07,691.1,1933.94,693.25L1933.94,693.25z"/>
				</g>
			</g>
		</g>
		<g id="Ebene_4">
			<g>
				<g>
					<path d="M1131.06,355.24c-2.76,59.71-5.52,119.43-8.28,179.14c-2.76,59.71-5.52,119.43-8.28,179.14
						c-1.54,33.47-3.1,66.95-4.64,100.42c-0.21,4.46,19.08,4.88,19.31,0c2.76-59.71,5.52-119.43,8.28-179.14
						c2.76-59.71,5.52-119.43,8.28-179.14c1.54-33.47,3.1-66.95,4.64-100.42C1150.57,350.78,1131.28,350.37,1131.06,355.24
						L1131.06,355.24z"/>
				</g>
			</g>
			<g>
				<g>
					<path d="M1386.5,355.32c-4.34,59.41-8.68,118.82-13.01,178.23s-8.68,118.82-13.01,178.23c-2.44,33.42-4.88,66.84-7.32,100.26
						c-0.32,4.34,18.95,4.97,19.31,0c4.34-59.41,8.68-118.82,13.01-178.23c4.34-59.41,8.68-118.82,13.01-178.23
						c2.44-33.42,4.88-66.84,7.32-100.26C1406.12,350.98,1386.86,350.36,1386.5,355.32L1386.5,355.32z"/>
				</g>
			</g>
			<g>
				<g>
					<path d="M1141.72,587.32c59.96-2.72,120.12-2.52,180.01,0.87c17,0.96,33.99,2.17,50.96,3.61c2.43,0.21,5.04,0.16,7.44-0.33
						c1.02-0.21,3.82-0.81,4.43-1.95c1.65-3.01-5.15-3.88-6.74-4.01c-61.29-5.21-122.87-7.36-184.39-6.33
						c-17.24,0.29-34.47,0.83-51.7,1.62c-2.14,0.1-9.48,0.06-9.65,3.26C1131.91,587.04,1140.2,587.39,1141.72,587.32L1141.72,587.32
						z"/>
				</g>
			</g>
			<g>
				<g>
					<path d="M1510.33,582.64c-3.82,61.79-7.65,123.57-11.47,185.36c-1.07,17.3-2.14,34.6-3.21,51.9c-0.27,4.39,19,4.93,19.31,0
						c3.82-61.79,7.65-123.57,11.47-185.36c1.07-17.3,2.14-34.6,3.21-51.9C1529.92,578.25,1510.64,577.71,1510.33,582.64
						L1510.33,582.64z"/>
				</g>
			</g>
			<g>
				<g>
					<path d="M1534.85,462.01c-8.79-8.76-25.74-8.65-36.53-3.76c-9.51,4.31-15.06,13.65-17.7,23.12c-2.46,8.8-2.16,18.34,1.86,26.67
						c4.4,9.12,13.72,14.41,23.71,16.12c22.47,3.85,46.01-5.17,56.96-24.96c9.06-16.39,9.11-36.97-1.93-52.52
						c-14.27-20.1-41.35-27.01-65.27-23.2c-2.25,0.36-6.76,2.19-3.46,4.46c3.37,2.32,9.43,1.77,13.21,1.17
						c-1.22,0.19,0.96-0.1,1.31-0.14c1.83-0.22-0.78-0.07,1.06-0.07c0.45,0,0.91,0,1.36,0c1.57-0.01-1.41-0.12,0.15-0.01
						c1.06,0.07,2.11,0.16,3.16,0.3c-1.25-0.17,0.93,0.19,1.27,0.25c0.89,0.17,1.78,0.36,2.66,0.6c0.86,0.23,3.49,1.13,4.94,1.72
						c6.78,2.72,12.9,7.15,17.67,12.5c10.35,11.59,13.42,27.21,9.69,41.95c-3.49,13.77-13.89,27.57-28.26,31.59
						c-0.44,0.12-1.53,0.35-2.21,0.48c-1,0.21-0.21,0.07,0.01,0.04c-0.46,0.07-0.92,0.09-1.38,0.15c-1.13,0.13,0.07,0.03,0.27,0.02
						c-0.46,0.02-0.91,0.01-1.37,0.01c-1.16,0,0.12,0.03,0.29,0.02c-0.3-0.02-0.6-0.06-0.9-0.08c0.67,0.12,0.69,0.12,0.08,0.01
						c-2.43-0.43-5.59-1.81-8.01-3.78c-5.9-4.8-8.58-12.18-9.06-19.43c-0.55-8.42,1.56-17.12,6.16-24.31
						c2.31-3.61,5.45-7.3,9.6-9.03c0.73-0.3,0.86-0.12,1.21-0.33c0.68-0.39,0.34,0.04-0.08,0.03c-0.36,0-1.47-0.07-1.85,0.04
						c-0.71,0.22-0.44-0.21,0.33,0.27c0.91,0.58,1.67,1.06,2.45,1.82c2.73,2.72,8.28,2.62,11.87,2.28
						C1529.19,465.92,1537.33,464.48,1534.85,462.01L1534.85,462.01z"/>
				</g>
			</g>
		</g>
		<g id="Ebene_5">
			<g>
				<path class="st16" d="M1356.15,903.24c-7.92,7.58-15.82,15.16-23.74,22.75c15.88-3.26,33.12,9.83,33.57,25.51
					c-4.9-14.98,3.35-32.87,18.17-39.36c-11.38,4.66-26.1-0.85-31.24-11.7"/>
				<g>
					<path d="M1355.21,899.99c-7.92,7.58-15.82,15.16-23.74,22.75c-1.35,1.3-2.64,3.16-2.53,5.11c0.08,1.5,1,2.64,2.66,2.32
						c14.47-2.7,30.21,8.85,30.91,23.18c2.28-1.55,4.55-3.09,6.83-4.64c-4.03-12.95,2.18-26.95,14.89-32.74
						c1.87-0.85,3.22-3.28,3.37-5.19c0.1-1.35-0.66-3.6-2.61-2.85c-11,4.26-23.93-0.77-29.07-11.03c-1-1.99-3.94,0.14-4.77,1.1
						c-1.43,1.63-2.21,3.96-1.22,5.94c5.79,11.58,21.1,17.13,33.42,12.37c0.25-2.68,0.5-5.36,0.75-8.04
						c-17.08,7.78-26.89,28.46-21.45,45.98c0.58,1.85,2.49,1.66,3.85,0.76c1.7-1.11,3.07-3.4,2.97-5.41
						c-0.84-17.41-18.39-31.16-36.23-27.83c0.05,2.48,0.08,4.96,0.13,7.44c7.92-7.58,15.82-15.16,23.74-22.75
						c1.5-1.44,3.15-3.87,2.4-6.02C1358.82,898.5,1356.54,898.72,1355.21,899.99L1355.21,899.99z"/>
				</g>
			</g>
			<g>
				<path class="st17" d="M1879.63,71.32c-3.89,12.92-13.46,24.16-25.84,30.34c15.92,2.55,29.68,14.84,33.57,29.96
					c-5.59-6.34-6.7-16.02-2.69-23.39c4.01-7.37,12.89-11.98,21.47-11.13c-11.93-4.21-22.13-12.83-28.02-23.71"/>
				<g>
					<path d="M1876.57,71.05c-3.64,11.64-11.72,21.08-22.85,26.77c-2.1,1.08-5.77,7.39-1.6,8.11c15.24,2.63,27.98,14.03,31.88,28.48
						c2.12-2.1,4.23-4.2,6.35-6.3c-4.31-5.13-6.32-12.75-2.95-18.86c3.2-5.79,10.62-8.37,17.08-7.87c3.02,0.23,7.67-6.99,4.07-8.3
						c-11.83-4.3-21.46-12.42-27.44-23.19c-1.91-3.44-7.77,3.82-5.98,7.04c6.16,11.1,16.4,19.79,28.6,24.23
						c1.36-2.77,2.72-5.53,4.07-8.3c-22.31-1.7-37.71,25.29-23.43,42.3c2.88,3.43,7.02-3.81,6.35-6.3
						c-4.34-16.06-18.35-28.53-35.26-31.44c-0.53,2.7-1.06,5.41-1.6,8.11c13.77-7.05,24.33-19.5,28.83-33.91
						c0.48-1.55,0.87-4.19-1.4-4.54C1879.22,66.74,1877.07,69.43,1876.57,71.05L1876.57,71.05z"/>
				</g>
			</g>
			<g>
				<path class="st18" d="M931.6,172.62c2.03,18.7-8.96,38.09-26.37,46.52c17.65-4.21,37.71,6.72,43.12,23.48
					c-6.87-15.74,1.95-36.12,18.37-42.47c-16.42-3.41-31.13-13.88-39.36-28.03"/>
				<g>
					<path d="M928.12,174.49c1.63,16.84-7.34,33.05-22.96,40.82c-1.86,0.93-3.22,3.23-3.37,5.19c-0.12,1.58,0.62,3.29,2.61,2.85
						c16.73-3.75,35.25,6.29,40.58,22.07c2.23-1.85,4.47-3.7,6.7-5.56c-5.81-13.88,0.66-30.03,15.09-35.84
						c2.41-0.97,5.53-7.25,1.6-8.11c-16.04-3.47-29.87-13.55-38.03-27.29c-2.03-3.43-7.87,3.87-5.98,7.04
						c8.71,14.69,23.63,25.09,40.69,28.77c0.53-2.7,1.06-5.41,1.6-8.11c-18.6,7.49-29.26,30.92-21.66,49.08
						c1.9,4.53,7.79-2.32,6.7-5.56c-6.09-18-26.53-29.18-45.65-24.89c-0.25,2.68-0.5,5.36-0.75,8.04
						c19.38-9.65,31.82-31.22,29.78-52.24C934.54,165.25,927.77,170.9,928.12,174.49L928.12,174.49z"/>
				</g>
			</g>
			<g>
				<path class="st19" d="M1782.04,914.6c-0.82-4.22-1.87-8.57-4.63-11.94c-2.75-3.37-7.67-5.47-11.77-3.8
					c-5.17,2.11-6.42,9.02-4.32,14.05c2.1,5.03,6.47,8.76,10.18,12.83c3.71,4.07,6.99,9.22,6.11,14.58
					c10.01-5.57,19.21-12.53,27.22-20.57c2.47-2.48,4.96-5.34,5.17-8.78c0.39-6.07-6.89-10.43-13.13-9.71s-11.43,4.82-16.23,8.75"/>
				<g>
					<path d="M1785.39,911.82c-1.36-6.83-3.84-14.6-11.37-17.13c-6.96-2.34-13.3,2.21-15.82,8.38c-2.66,6.5-0.97,13.13,3.29,18.56
						c4.33,5.52,13.65,11.67,12.74,19.53c-0.24,2.12,0.87,4.47,3.45,3.01c7.72-4.34,15.02-9.4,21.67-15.16
						c5.9-5.12,13.89-11.57,14.14-19.9c0.2-6.69-5.9-11.58-12.47-12.14c-8.22-0.69-15.45,5.02-21.31,9.8
						c-1.58,1.29-3.11,3.97-2.4,6.02c0.72,2.06,2.9,1.6,4.3,0.47c4.36-3.55,9.58-8.05,15.68-7.79c3.57,0.16,10.79,3.34,9.04,7.91
						c-0.86,2.24-3.48,4.2-5.19,5.8c-2.27,2.14-4.62,4.19-7.05,6.15c-5.17,4.18-10.7,7.86-16.53,11.14c1.15,1.01,2.3,2.01,3.45,3.01
						c0.71-6.11-1.51-11.38-5.48-16.09c-3.81-4.53-9.45-8.58-11.24-14.37c-0.44-1.44-0.94-3.94-0.01-5.31
						c1.15-1.7,4.13-1.27,5.77-0.66c6.02,2.24,7.57,8.86,8.66,14.32c0.44,2.2,3.07,1.42,4.3,0.47
						C1784.76,916.46,1785.83,913.99,1785.39,911.82L1785.39,911.82z"/>
				</g>
			</g>
			<g>
				<path class="st20" d="M744.01,680.11c0.01-5.6-4.26-10.95-9.88-12.36c-5.61-1.4-12.05,1.26-14.85,6.16
					c-5.52,9.63,3.41,21.1,12.78,27.36s20.9,12.25,23.14,23.04c5.34-14.16,10.3-28.44,14.88-42.86c2.46-7.75,3.72-18.25-3.71-22.01
					c-5.03-2.54-11.54,0.07-14.99,4.43c-3.45,4.36-4.58,9.98-5.53,15.39"/>
				<g>
					<path d="M747.49,678.25c-0.36-9.63-9.33-17.35-19.38-14.54c-9.65,2.7-15.51,12.73-13.59,22.12
						c1.95,9.52,10.23,16.33,18.15,21.45c7.77,5.03,16.99,10.35,19.18,19.81c0.95,4.07,5.78-0.82,6.41-2.5
						c4.18-11.1,8.14-22.27,11.85-33.53c2.8-8.47,6.72-17.74,4.91-26.81c-1.69-8.48-10.1-12.16-18.08-8.55
						c-9.72,4.41-12.82,15.01-14.49,24.39c-0.32,1.77,0.38,3.74,2.57,3.36c2.16-0.37,3.87-3.13,4.2-5.02
						c1.11-6.26,2.55-15.23,10.82-15.7c7.22-0.42,8.96,6.87,8.3,12.34c-0.93,7.62-4.23,15.16-6.69,22.41
						c-3.02,8.9-6.2,17.75-9.52,26.55c2.14-0.83,4.27-1.67,6.41-2.5c-3.65-15.73-21.81-19.74-31.56-30.78
						c-3.71-4.21-9.76-13.57-2.82-17.69c6.96-4.13,16.08,1.31,16.36,8.91c0.08,2.03,1.71,2.85,3.55,1.98
						C746.04,683.02,747.57,680.34,747.49,678.25L747.49,678.25z"/>
				</g>
			</g>
			<g>
				<path class="st21" d="M1637.74,79.94c4.73-4.57,0.6-13.64-6.03-14.53c-6.63-0.89-12.86,4.91-13.71,11.32
					c-0.85,6.41,2.65,12.78,7.55,17.18s11.09,7.17,17.18,9.88c3.28-7.6,11.61-11.76,17.48-17.73c5.87-5.97,8.33-17.36,0.85-21.31
					c-4.54-2.39-10.47-0.35-13.95,3.33c-3.48,3.69-5.08,8.63-6.58,13.4"/>
				<g>
					<path d="M1639.51,82.36c5.02-5.4,4.99-14.04-0.86-18.87c-6.33-5.23-15.15-1.18-19.62,4.35c-5.61,6.94-5.9,15.91-1.51,23.49
						c4.83,8.33,14.18,12.67,22.78,16.49c2.51,1.12,4.65-1.98,5.47-3.76c1.53-3.31,4.67-5.74,7.47-8.01
						c3.19-2.59,6.51-5.08,9.25-8.13c4.68-5.2,7.86-13.09,6.31-20.01c-1.68-7.49-9.64-10.04-16.5-7.2
						c-8.62,3.57-12.3,12.4-14.85,20.48c-0.49,1.55-0.87,4.19,1.4,4.54c2.07,0.32,4.21-2.37,4.72-3.99
						c1.72-5.44,3.63-12.87,10.61-13.71c5.8-0.7,8.92,4.33,7.76,9.3c-1.19,5.11-5.52,8.14-9.48,11.33
						c-5.3,4.26-9.96,8.68-12.81,14.84c1.82-1.26,3.65-2.5,5.47-3.76c-5.7-2.54-11.59-5.12-16.35-9.16
						c-4.14-3.52-8.01-9.12-7.41-14.69c0.47-4.36,5.39-7.38,9.71-5.98c1.92,0.62,3.53,2.2,4.43,3.93c0.46,0.88,0.53,1.76,0.77,2.69
						c0.06,0.22,0.01,0.52-0.04,0.74c-0.03,0.12,0.88-1.02-0.28,0.23c-1.24,1.34-2.52,4.29-1.22,5.94
						C1636.14,85.23,1638.45,83.5,1639.51,82.36L1639.51,82.36z"/>
				</g>
			</g>
		</g>
		<g id="Ebene_7">
			<g>
				<path class="st22" d="M1679.38,876.85c-4.95,8.5-8.61,16.38-13.57,24.88c-13.08,1.27-18.83,1.27-29.13,3.18
					c10.05,6.53,17.52,7.85,27.56,14.39c-1.3,11.25-1.96,18.09-3.26,29.35c7.1-6.96,13.89-10.81,20.99-17.77
					c12.43,7.64,14.57,8.89,24.91,14.73c-3.15-9.89-5.33-16.41-8.48-26.31c7.41-6.03,12.24-9.85,19.65-15.88
					c-11.03-0.19-18.21-0.7-29.24-0.89c-2.84-8.51-6.65-17.95-9.49-26.46"/>
				<g>
					<path d="M1676.87,875.46c-4.73,8.18-8.83,16.69-13.57,24.88c1.11-0.93,2.22-1.86,3.33-2.79c-9.74,0.93-19.5,1.42-29.13,3.18
						c-2.77,0.5-6.27,6.29-3.23,8.23c8.76,5.59,18.8,8.79,27.56,14.39c-0.32-1.07-0.65-2.14-0.97-3.21
						c-1.13,9.78-2.14,19.57-3.26,29.35c-0.32,2.72,1.88,4.77,4.33,2.42c6.6-6.36,14.39-11.4,20.99-17.77
						c-1.12,0.26-2.24,0.53-3.36,0.79c8.22,5.05,16.5,9.97,24.91,14.73c3.26,1.84,6.53-4.41,5.76-6.82
						c-2.8-8.78-5.68-17.53-8.48-26.31c-0.8,2.01-1.6,4.01-2.4,6.02c6.53-5.31,13.12-10.57,19.65-15.88
						c1.38-1.12,4.6-7.43,0.71-7.51c-9.75-0.18-19.49-0.71-29.24-0.89c0.56,0.5,1.13,0.99,1.69,1.49
						c-2.99-8.88-6.5-17.58-9.49-26.46c-1.52-4.51-7.83,2.22-6.7,5.56c2.99,8.88,6.5,17.58,9.49,26.46c0.24,0.7,0.83,1.47,1.69,1.49
						c9.75,0.18,19.49,0.71,29.24,0.89c0.24-2.5,0.48-5,0.71-7.51c-6.53,5.31-13.12,10.57-19.65,15.88c-1.6,1.31-3.06,3.96-2.4,6.02
						c2.8,8.78,5.68,17.53,8.48,26.31c1.92-2.27,3.84-4.54,5.76-6.82c-8.41-4.75-16.69-9.68-24.91-14.73
						c-1.04-0.63-2.6,0.06-3.36,0.79c-6.6,6.36-14.39,11.4-20.99,17.77c1.44,0.81,2.89,1.61,4.33,2.42
						c1.13-9.78,2.14-19.57,3.26-29.35c0.14-1.17,0.18-2.47-0.97-3.21c-8.76-5.59-18.8-8.79-27.56-14.39
						c-1.07,2.74-2.16,5.49-3.23,8.23c9.02-1.65,18.15-2.15,27.28-3c5.75-0.53,7.99-7.93,10.33-12.34c2.75-5.2,5.46-10.42,8.4-15.51
						c0.82-1.41,1.81-4.37-0.1-5.44C1679.92,871.77,1677.66,874.09,1676.87,875.46L1676.87,875.46z"/>
				</g>
			</g>
			<g>
				<path class="st22" d="M886.36,916c-4.95,8.5-8.61,16.38-13.57,24.88c-13.08,1.27-18.83,1.27-29.13,3.18
					c10.05,6.53,17.52,7.85,27.56,14.39c-1.3,11.25-1.96,18.09-3.26,29.35c7.1-6.96,13.89-10.81,20.99-17.77
					c12.43,7.64,14.57,8.89,24.91,14.73c-3.15-9.89-5.33-16.41-8.48-26.31c7.41-6.03,12.24-9.85,19.65-15.88
					c-11.03-0.19-18.21-0.7-29.24-0.89c-2.84-8.51-6.65-17.95-9.49-26.46"/>
				<g>
					<path d="M883.86,914.6c-4.73,8.18-8.83,16.69-13.57,24.88c1.11-0.93,2.22-1.86,3.33-2.79c-9.74,0.93-19.5,1.42-29.13,3.18
						c-2.77,0.5-6.27,6.29-3.23,8.23c8.76,5.59,18.8,8.79,27.56,14.39c-0.32-1.07-0.65-2.14-0.97-3.21
						c-1.13,9.78-2.14,19.57-3.26,29.35c-0.32,2.72,1.88,4.77,4.33,2.42c6.6-6.36,14.39-11.4,20.99-17.77
						c-1.12,0.26-2.24,0.53-3.36,0.79c8.22,5.05,16.5,9.97,24.91,14.73c3.26,1.84,6.53-4.41,5.76-6.82
						c-2.8-8.78-5.68-17.53-8.48-26.31c-0.8,2.01-1.6,4.01-2.4,6.02c6.53-5.31,13.12-10.57,19.65-15.88
						c1.38-1.12,4.6-7.43,0.71-7.51c-9.75-0.18-19.49-0.71-29.24-0.89c0.56,0.5,1.13,0.99,1.69,1.49
						c-2.99-8.88-6.5-17.58-9.49-26.46c-1.52-4.51-7.83,2.22-6.7,5.56c2.99,8.88,6.5,17.58,9.49,26.46c0.24,0.7,0.83,1.47,1.69,1.49
						c9.75,0.18,19.49,0.71,29.24,0.89c0.24-2.5,0.48-5,0.71-7.51c-6.53,5.31-13.12,10.57-19.65,15.89c-1.6,1.31-3.06,3.96-2.4,6.02
						c2.8,8.78,5.68,17.53,8.48,26.31c1.92-2.27,3.84-4.54,5.76-6.82c-8.41-4.75-16.69-9.68-24.91-14.73
						c-1.04-0.63-2.6,0.06-3.36,0.79c-6.6,6.36-14.39,11.4-20.99,17.77c1.44,0.81,2.89,1.61,4.33,2.42
						c1.13-9.78,2.14-19.57,3.26-29.35c0.14-1.17,0.18-2.47-0.97-3.21c-8.76-5.59-18.8-8.79-27.56-14.39
						c-1.07,2.74-2.16,5.49-3.23,8.23c9.02-1.65,18.15-2.15,27.28-3c5.75-0.53,7.99-7.93,10.33-12.34c2.75-5.2,5.46-10.42,8.4-15.51
						c0.82-1.41,1.81-4.37-0.1-5.44C886.9,910.91,884.64,913.23,883.86,914.6L883.86,914.6z"/>
				</g>
			</g>
			<g>
				<path class="st22" d="M1908.05,171.88c-4.95,8.5-8.61,16.38-13.57,24.88c-13.08,1.27-18.83,1.27-29.13,3.18
					c10.05,6.53,17.52,7.85,27.56,14.39c-1.3,11.25-1.96,18.09-3.26,29.35c7.1-6.96,13.89-10.81,20.99-17.77
					c12.43,7.64,14.57,8.89,24.91,14.73c-3.15-9.89-5.33-16.41-8.48-26.31c7.41-6.03,12.24-9.85,19.65-15.88
					c-11.03-0.19-18.21-0.7-29.24-0.89c-2.84-8.51-6.65-17.95-9.49-26.46"/>
				<g>
					<path d="M1905.55,170.48c-4.73,8.18-8.83,16.69-13.57,24.88c1.11-0.93,2.22-1.86,3.33-2.79c-9.74,0.93-19.5,1.42-29.13,3.18
						c-2.77,0.5-6.27,6.29-3.23,8.23c8.76,5.59,18.8,8.79,27.56,14.39c-0.32-1.07-0.65-2.14-0.97-3.21
						c-1.13,9.78-2.14,19.57-3.26,29.35c-0.32,2.72,1.88,4.77,4.33,2.42c6.6-6.36,14.39-11.4,20.99-17.77
						c-1.12,0.26-2.24,0.53-3.36,0.79c8.22,5.05,16.5,9.97,24.91,14.73c3.26,1.84,6.53-4.41,5.76-6.82
						c-2.8-8.78-5.68-17.53-8.48-26.31c-0.8,2.01-1.6,4.01-2.4,6.02c6.53-5.31,13.12-10.57,19.65-15.88
						c1.38-1.12,4.6-7.43,0.71-7.51c-9.75-0.18-19.49-0.71-29.24-0.89c0.57,0.5,1.13,0.99,1.69,1.49
						c-2.99-8.88-6.5-17.58-9.49-26.46c-1.52-4.51-7.83,2.22-6.7,5.56c2.99,8.88,6.5,17.58,9.49,26.46c0.24,0.7,0.83,1.47,1.69,1.49
						c9.75,0.18,19.49,0.71,29.24,0.89c0.24-2.5,0.48-5,0.71-7.51c-6.53,5.31-13.12,10.57-19.65,15.88c-1.6,1.31-3.06,3.96-2.4,6.02
						c2.8,8.78,5.68,17.53,8.48,26.31c1.92-2.27,3.84-4.54,5.76-6.82c-8.41-4.75-16.69-9.68-24.91-14.73
						c-1.04-0.63-2.6,0.06-3.36,0.79c-6.6,6.36-14.39,11.4-20.99,17.77c1.44,0.81,2.89,1.61,4.33,2.42
						c1.13-9.78,2.14-19.57,3.26-29.35c0.14-1.17,0.18-2.47-0.97-3.21c-8.76-5.59-18.8-8.79-27.56-14.39
						c-1.07,2.74-2.16,5.49-3.23,8.23c9.02-1.65,18.15-2.15,27.28-3c5.75-0.53,7.99-7.93,10.33-12.34c2.75-5.2,5.46-10.42,8.4-15.51
						c0.82-1.41,1.81-4.37-0.1-5.44C1908.59,166.79,1906.34,169.11,1905.55,170.48L1905.55,170.48z"/>
				</g>
			</g>
			<g>
				<path class="st22" d="M1162.19,147.24c-4.95,8.5-8.61,16.38-13.57,24.88c-13.08,1.27-18.83,1.27-29.13,3.18
					c10.05,6.53,17.52,7.85,27.56,14.39c-1.3,11.25-1.96,18.09-3.26,29.35c7.1-6.96,13.89-10.81,20.99-17.77
					c12.43,7.64,14.57,8.89,24.91,14.73c-3.15-9.89-5.33-16.41-8.48-26.31c7.41-6.03,12.24-9.85,19.65-15.88
					c-11.03-0.19-18.21-0.7-29.24-0.89c-2.84-8.51-6.65-17.95-9.49-26.46"/>
				<g>
					<path d="M1159.69,145.84c-4.73,8.18-8.83,16.69-13.57,24.88c1.11-0.93,2.22-1.86,3.33-2.79c-9.74,0.93-19.5,1.42-29.13,3.18
						c-2.77,0.5-6.27,6.29-3.23,8.23c8.76,5.59,18.8,8.79,27.56,14.39c-0.32-1.07-0.65-2.14-0.97-3.21
						c-1.13,9.78-2.14,19.57-3.26,29.35c-0.32,2.72,1.88,4.77,4.33,2.42c6.6-6.36,14.39-11.4,20.99-17.77
						c-1.12,0.26-2.24,0.53-3.36,0.79c8.22,5.05,16.5,9.97,24.91,14.73c3.26,1.84,6.53-4.41,5.76-6.82
						c-2.8-8.78-5.68-17.53-8.48-26.31c-0.8,2.01-1.6,4.01-2.4,6.02c6.53-5.31,13.12-10.57,19.65-15.88
						c1.38-1.12,4.6-7.43,0.71-7.51c-9.75-0.18-19.49-0.71-29.24-0.89c0.56,0.5,1.13,0.99,1.69,1.49
						c-2.99-8.88-6.5-17.58-9.49-26.46c-1.52-4.51-7.83,2.22-6.7,5.56c2.99,8.88,6.5,17.58,9.49,26.46c0.24,0.7,0.83,1.47,1.69,1.49
						c9.75,0.18,19.49,0.71,29.24,0.89c0.24-2.5,0.48-5,0.71-7.51c-6.53,5.31-13.12,10.57-19.65,15.88c-1.6,1.31-3.06,3.96-2.4,6.02
						c2.8,8.78,5.68,17.53,8.48,26.31c1.92-2.27,3.84-4.54,5.76-6.82c-8.41-4.75-16.69-9.68-24.91-14.73
						c-1.04-0.63-2.6,0.06-3.36,0.79c-6.6,6.36-14.39,11.4-20.99,17.77c1.44,0.81,2.89,1.61,4.33,2.42
						c1.13-9.78,2.14-19.57,3.26-29.35c0.14-1.17,0.18-2.47-0.97-3.21c-8.76-5.59-18.8-8.79-27.56-14.39
						c-1.07,2.74-2.16,5.49-3.23,8.23c9.02-1.65,18.15-2.15,27.28-3c5.75-0.53,7.99-7.93,10.33-12.34c2.75-5.2,5.46-10.42,8.4-15.51
						c0.82-1.41,1.81-4.37-0.1-5.44C1162.73,142.16,1160.48,144.48,1159.69,145.84L1159.69,145.84z"/>
				</g>
			</g>
		</g>
		<g id="Ebene_9_1_">
			<g>
				<g>
					<path d="M814.7,305.34c-2.86-6.61-11.13-8.58-17.45-5.17c-7.56,4.07-10.75,13.77-8.78,21.6c1.85,7.33,8.73,12.96,16.38,14.05
						c7.81,1.1,14.97-3.27,18.53-9.85c3.84-7.1,4.01-16.24-2.62-21.78c-2.05-1.72-4.99,2.54-5.47,3.76
						c-3.27,8.4,2.59,18.94,12.6,18.73c9.81-0.21,17.47-9.49,18.95-18.28c3.4-20.25-18.61-34.65-37.18-35.34
						c-19.14-0.7-36.32,10.35-42.87,27.76c-6.26,16.63-2.66,36.98,12.23,48.23c16.24,12.27,41.29,10.53,56.12-2.98
						c1.53-1.39,3.14-3.9,2.4-6.02c-0.7-1.99-2.95-1.7-4.3-0.47c-10.52,9.58-26.95,11.64-40.2,6.49
						c-13.75-5.35-22.15-18-22.29-32.22c-0.14-13.78,7.8-26.07,21.63-30.4c13.44-4.2,29.85-1.4,39.87,8.6
						c5.47,5.46,11.99,16.59,5.08,23.34c-2.8,2.73-7.07,3.52-10.64,1.78c-2.9-1.42-6.64-5.23-5.3-8.68
						c-1.82,1.26-3.65,2.5-5.47,3.76c3.45,2.88,4.45,8.74,1.54,12.32c-3.69,4.55-11.24,3.05-15.59,0.38
						c-4.75-2.91-9.1-9.56-6.39-15.1c2.27-4.62,10.64-3.23,12.49,1.05C809.93,315.35,816.11,308.57,814.7,305.34L814.7,305.34z"/>
				</g>
			</g>
			<g>
				<g>
					<path d="M1926.61,546.71c3.76,0,7.45-8.53,3.32-8.53C1926.17,538.19,1922.48,546.71,1926.61,546.71L1926.61,546.71z"/>
				</g>
			</g>
			<g>
				<g>
					<path d="M1924.57,548.36c-1.76,13.63-3.53,27.26-5.3,40.89c-0.79,6.05,6.25,2.36,6.77-1.66c1.76-13.63,3.53-27.26,5.3-40.89
						C1932.13,540.64,1925.1,544.34,1924.57,548.36L1924.57,548.36z"/>
				</g>
			</g>
			<g>
				<g>
					<path d="M1940.34,548.34c-1.81,14.19-3.63,28.38-5.44,42.57c-0.77,6.05,6.26,2.36,6.77-1.66c1.81-14.19,3.63-28.38,5.44-42.57
						C1947.88,540.63,1940.85,544.33,1940.34,548.34L1940.34,548.34z"/>
				</g>
			</g>
			<g>
				<g>
					<path d="M1923.04,558.83c9.99,2.27,19.99,4.56,29.98,6.83c3.57,0.81,7.63-7.54,3.32-8.53c-9.99-2.27-19.99-4.56-29.98-6.83
						C1922.79,549.49,1918.72,557.85,1923.04,558.83L1923.04,558.83z"/>
				</g>
			</g>
			<g>
				<g>
					<path d="M1918.92,575.28c8.64,5.44,18.55,8.6,28.84,9.23c3.75,0.23,7.54-8.27,3.32-8.53c-9.85-0.6-19.07-3.57-27.34-8.77
						C1920.49,565.15,1915.56,573.16,1918.92,575.28L1918.92,575.28z"/>
				</g>
			</g>
		</g>
	</g>
</g>
</svg>
