<?xml version="1.0" encoding="utf-8"?>
<!-- Generator: Adobe Adobe Illustrator 24.2.0, SVG Export Plug-In . SVG Version: 6.00 Build 0)  -->
<svg version="1.1" xmlns="http://www.w3.org/2000/svg" xmlns:xlink="http://www.w3.org/1999/xlink" x="0px" y="0px"
	 viewBox="0 0 1700.79 1700.79" style="enable-background:new 0 0 1700.79 1700.79;" xml:space="preserve">
<style type="text/css">
	.st0{fill:#99C154;}
	.st1{opacity:0.149;}
	.st2{fill:#FFFFFF;}
	.st3{fill:#F2C059;}
	.st4{fill:#CB5B7A;stroke:#CC5C7B;stroke-miterlimit:10;}
	.st5{stroke:#000000;stroke-miterlimit:10;}
	.st6{fill:#FFFFFF;stroke:#FFFFFF;stroke-miterlimit:10;}
	.st7{fill:#FFFFFF;stroke:#FFFFFF;stroke-width:0.9508;stroke-miterlimit:10;}
	.st8{fill:none;stroke:#000000;stroke-width:17.2352;stroke-miterlimit:10;}
	.st9{opacity:0.4706;fill:#D3E1EC;stroke:#000000;stroke-width:17.2352;stroke-miterlimit:10;}
	.st10{opacity:0.6392;fill:#D3E1EC;stroke:#000000;stroke-width:17.2352;stroke-miterlimit:10;}
	.st11{fill:#99C154;stroke:#000000;stroke-width:11.21;stroke-miterlimit:10;}
	.st12{fill:#6DB671;}
	.st13{fill:#6CB671;}
	.st14{opacity:0.0314;}
</style>
<g id="Ebene_1">
</g>
<g id="Ebene_4">
</g>
<g id="Ebene_11">
</g>
<g id="Ebene_9">
</g>
<g id="Ebene_8">
</g>
<g id="Ebene_3">
</g>
<g id="Ebene_16">
</g>
<g id="Ebene_7">
</g>
<g id="Ebene_10">
</g>
<g id="Ebene_5">
</g>
<g id="Ebene_5_Kopie">
</g>
<g id="Ebene_12">
</g>
<g id="Ebene_14">
</g>
<g id="Ebene_15">
</g>
<g id="Ebene_13">
	<g>
		<g>
			<path class="st0" d="M737.48,1007.75c7.07-163.83,14.11-328.58-6.31-491.29c-6.86-54.66-18.1-111.79-53.89-153.67
				c-56.51-66.12-163.24-72.99-238.71-29.75S316.84,458.94,297.85,543.82c-19,84.88-14.18,173.04-9.26,259.88
				c8.61,151.94,17.21,303.88,25.82,455.83c4.66,82.23,11.17,169.76,60.55,235.68c52.87,70.58,143.73,100.84,230.61,115.98
				c122.09,21.27,248,20.43,369.79-2.48c105.6-19.86,215.68-62.03,273.71-152.47c11.73-18.28,21.13-41.38,12.31-61.22
				c-14.24-32.04-60.08-29.38-94.06-20.73c-57.67,14.68-115.32,31.45-174.7,35.33c-59.38,3.87-121.82-6.37-170.02-41.27
				c-54.19-39.23-84-105.22-93.78-171.4c-9.78-66.18-1.84-133.55,6.1-199.97"/>
			<g>
				<path d="M744.98,1007.75c6.63-153.6,13.27-307.97-2.84-461.23c-6.67-63.48-14.59-132.53-55.63-184.26
					c-33.72-42.51-87.52-63.34-140.85-64c-56.95-0.7-110.71,21.13-153.03,58.82c-44.23,39.38-74.34,92.91-92.28,148.88
					c-22.05,68.79-25.17,142.23-23.18,213.92c2.12,76.36,7.82,152.7,12.14,228.97c4.42,78.09,8.85,156.19,13.27,234.28
					c3.85,67.97,4.32,137.57,18.53,204.4c12.96,60.93,41.13,116.94,90.87,155.84c47.07,36.81,104.9,56.99,162.75,69.45
					c70.25,15.12,142.8,21.6,214.6,21.2c72.51-0.4,145.61-7.89,216.36-23.95c56.98-12.94,113.64-32.63,162.89-64.6
					c24.21-15.72,46.65-34.48,65.4-56.48c18.78-22.04,41.19-51.42,38.07-82.14c-2.78-27.39-25.69-42.06-51.12-45.05
					c-28.58-3.36-56.76,5.52-84.07,12.6c-69.02,17.89-140.88,36.09-212.62,25.38c-31.46-4.7-62.24-14.67-89.12-31.93
					c-25.78-16.56-46.68-39.69-62.35-65.89c-35.07-58.61-43.11-127.79-40.52-194.88c1.42-36.85,5.78-73.51,10.16-110.1
					c1.14-9.56-13.87-9.48-15,0c-8.65,72.36-17.37,146.42-2.94,218.65c11.48,57.44,38.64,114.62,84.94,152
					c49.4,39.89,114.57,52.84,176.82,49.84c35.34-1.7,70.31-8.15,104.71-16.15c18.29-4.26,36.48-8.98,54.66-13.69
					c14.27-3.7,28.54-7.92,43.15-10.06c20.03-2.94,48.99-4.01,62.38,14.54c18.53,25.67-6.83,60.4-22.93,80.45
					c-35.51,44.23-84.9,74.99-137.13,95.8c-57.87,23.06-119.74,35.5-181.4,43.03c-72.51,8.85-145.94,10.02-218.69,3.53
					c-63.47-5.66-128.14-15.77-188-38.41c-54.77-20.73-105.2-54.49-135.32-105.83c-31.69-54.02-39.52-118.21-43.79-179.58
					c-5.1-73.26-8.47-146.68-12.63-220c-4.28-75.55-8.56-151.09-12.84-226.64c-4.15-73.33-10.08-147.12-4.58-220.53
					c4.74-63.41,19.16-126.54,50.66-182.26c27.51-48.66,68.8-92.65,121.57-113.64c47.92-19.06,104.68-20.78,152.24,0.44
					c24.39,10.88,45.82,27.64,61.37,49.45c17.83,25.02,28.12,54.26,34.84,84.02c7.39,32.72,10.97,66.29,14.15,99.64
					c3.6,37.62,5.86,75.36,7.14,113.13c2.53,74.84,1.18,149.75-1.43,224.57c-1.26,36.17-2.82,72.33-4.38,108.48
					C729.56,1017.4,744.56,1017.38,744.98,1007.75L744.98,1007.75z"/>
			</g>
		</g>
		<g>
			<g>
				<path d="M1030.64,1418.2c6.18,34.81-4.27,72-27.49,98.61c-6.32,7.24,4.24,17.9,10.61,10.61
					c27.02-30.96,38.53-72.78,31.35-113.21C1043.42,1404.72,1028.97,1408.74,1030.64,1418.2L1030.64,1418.2z"/>
			</g>
		</g>
		<g>
			<g>
				<path d="M1129.87,1442.19c6.16,40.78-4.46,83.02-28.1,116.64c-5.56,7.91,7.44,15.42,12.95,7.57
					c26.1-37.12,36.37-83.47,29.61-128.2c-0.6-4-5.66-6.24-9.23-5.24C1130.82,1434.16,1129.26,1438.15,1129.87,1442.19
					L1129.87,1442.19z"/>
			</g>
		</g>
		<g>
			<g>
				<path d="M779.81,1631.8c20.95-16.83,38.23-38.6,52.43-61.29c14.16-22.64,26-47.81,29.31-74.54c0.5-4.03-3.8-7.5-7.5-7.5
					c-4.47,0-7,3.46-7.5,7.5c-3.02,24.4-15.11,47.81-28.1,68.29c-13.42,21.17-29.64,41.18-49.25,56.93c-3.18,2.56-2.61,7.93,0,10.61
					C772.29,1634.95,776.67,1634.32,779.81,1631.8L779.81,1631.8z"/>
			</g>
		</g>
		<g>
			<g>
				<path d="M802.84,1369.54c-24.76,56.33-74.8,99.71-134.3,115.65c-9.31,2.5-5.36,16.97,3.99,14.46
					c49.08-13.15,92.4-43.88,121.95-85.1c8.39-11.71,15.51-24.26,21.31-37.44c1.64-3.74,1.06-8.01-2.69-10.26
					C809.94,1364.96,804.47,1365.84,802.84,1369.54L802.84,1369.54z"/>
			</g>
		</g>
		<g>
			<g>
				<path d="M351.41,1467.3c35.43,5.15,71.41,5.68,107.06,2.54c37.06-3.27,74.06-10.17,109.26-22.35
					c18.4-6.37,36.38-14.19,53.21-24.01c8.33-4.86,0.79-17.83-7.57-12.95c-29.57,17.24-62.47,28.09-95.8,35.35
					c-34.72,7.57-70.34,11.12-105.87,10.91c-18.81-0.11-37.68-1.24-56.3-3.95c-4.04-0.59-8.01,1-9.23,5.24
					C345.16,1461.59,347.4,1466.72,351.41,1467.3L351.41,1467.3z"/>
			</g>
		</g>
		<g>
			<g>
				<path d="M529.35,1350.88c63.3,16.33,133.36,10.29,194.93-10.41c17.2-5.78,34-12.92,49.94-21.6c8.48-4.62,0.92-17.58-7.57-12.95
					c-54.89,29.9-120.67,42.22-182.8,38.36c-17.06-1.06-33.96-3.59-50.51-7.86C523.98,1334,519.99,1348.47,529.35,1350.88
					L529.35,1350.88z"/>
			</g>
		</g>
		<g>
			<g>
				<path d="M290.25,703.98c38.27,28.15,86.71,39.64,133.6,33.13c4-0.56,6.23-5.69,5.24-9.23c-1.21-4.32-5.18-5.8-9.23-5.24
					c-42.94,5.97-87.25-6.03-122.04-31.61c-3.29-2.42-8.34-0.52-10.26,2.69C285.29,697.5,287.01,701.59,290.25,703.98L290.25,703.98
					z"/>
			</g>
		</g>
		<g class="st1">
			<path d="M481.57,322.52c-69.94,147.52-97.56,312.42-99.66,475.67c-2.1,163.25,20.49,325.77,46.91,486.88
				c9.55,58.24,20.39,118.39,53.51,167.24c47.59,70.18,132.97,104.74,216.08,121.55c178.63,36.12,370.33,0.29,529.22-88.97
				c-43.67,49.66-105.36,87.11-169,105.07s-130.13,23.07-196.16,26.63c-93.61,5.05-188.91,7.59-279.68-15.79
				c-253.75-65.36-309.98-170.87-298.62-881.42c1.24-77.67,26.81-157.2,50.69-231.12c23.88-73.92,73.96-143.34,146.42-171.36"/>
			<g>
				<path d="M475.09,318.73c-56.64,119.88-85.91,250.63-96.3,382.4c-11.09,140.63-0.49,281.99,18.04,421.52
					c9.14,68.79,18.82,137.9,32.06,206.04c11.49,59.11,30.98,117.14,74.43,160.65c39.43,39.48,91.5,64.04,144.44,79.72
					c57.88,17.14,118.84,25.06,179.11,26.08c125.23,2.12,250.55-27.26,363-82.03c14.06-6.85,27.91-14.12,41.55-21.76
					c-3.03-3.93-6.06-7.85-9.09-11.78c-31.71,35.81-71.14,64.15-114.49,84.22c-47.41,21.95-99.71,31.99-151.32,37.94
					c-54.49,6.29-109.65,8.93-164.47,10.29c-54.73,1.36-109.89,0.04-163.95-9.24c-45.32-7.78-91.34-20.57-133.79-38.52
					c-27.4-11.58-56.74-28.49-78.97-48.34c-24.72-22.08-42.79-47.35-57.65-77.19c-18.24-36.62-29.75-77.4-38.15-117.98
					c-11.67-56.36-17.56-113.83-21.56-171.19c-5.5-78.82-7.15-157.89-7.58-236.88c-0.26-48.44,0.01-96.89,0.59-145.32
					c0.32-26.82-0.03-53.79,2.54-80.52c2.6-27,7.76-53.71,14.14-80.05c6.49-26.8,14.32-53.25,22.58-79.55
					c7.18-22.86,13.89-46.09,23.58-68.05c17.41-39.44,42.44-75.93,75.89-103.45c16.04-13.19,34.21-24.04,53.54-31.63
					c8.89-3.49,5.02-18-3.99-14.46c-41.16,16.15-75.33,44.5-101.92,79.55c-13.42,17.68-24.74,36.92-34.05,57.06
					c-10.12,21.87-17.28,44.74-24.57,67.67c-16.84,52.99-32.39,106.7-39.03,162.05c-3.22,26.83-3.23,53.77-3.58,80.75
					c-0.34,26.01-0.58,52.01-0.72,78.02c-0.44,86.97,0.2,174.02,4.41,260.9c3.11,64.16,8.05,128.43,18.41,191.87
					c7.38,45.21,17.55,90.46,34.92,132.98c13.47,32.96,31.28,64.08,55.57,90.3c22.09,23.85,49.03,42.76,78.06,57.21
					c32.8,16.34,67.9,27.67,103.21,37.15c102.02,27.4,207.8,24.08,312.3,17.77c55.86-3.37,112.02-8.62,166.37-22.56
					c47.75-12.24,93.02-33.28,132.53-62.86c18.78-14.06,36.19-29.79,51.75-47.36c5.54-6.26-1.41-16.08-9.09-11.78
					c-107.22,60.03-228.34,95.66-351.22,101.11c-60.62,2.69-121.67-1.85-181-14.74c-53.15-11.55-106.04-30.08-150.26-62.47
					c-21.78-15.95-41.02-35.65-55.6-58.41c-16.36-25.52-26.85-54.1-34.41-83.33c-7.78-30.07-12.61-60.8-17.59-91.43
					c-5.69-35.04-11.17-70.12-16.23-105.26c-19.77-137.41-33.04-276.48-26.7-415.42c5.89-129.15,28.96-258.48,77.95-378.55
					c6.01-14.72,12.45-29.25,19.24-43.62C492.14,317.62,479.22,310,475.09,318.73L475.09,318.73z"/>
			</g>
		</g>
		<g>
			<path class="st2" d="M198.34,723.7c-8.85,6.26-8.17,20.5-1.47,29.02c6.7,8.53,17.34,12.76,27.47,16.63
				c68.88,26.29,137.76,52.59,206.64,78.88c42.98,16.41,87.11,33.04,133.11,33.29c44.5,0.24,87.47-14.88,129.39-29.81
				c44.84-15.97,89.67-31.93,134.51-47.9c14.12-5.03,28.7-10.34,39.49-20.75c10.79-10.41,16.72-27.43,9.89-40.77
				c-94.21,20.76-186.63,49.64-275.9,86.21c-27.15,11.12-76.9,39.22-76.9,39.22s-45.26-27.57-63.07-35.19
				c-88.14-37.71-176.27-75.43-264.41-113.14"/>
			<g>
				<path class="st2" d="M193.04,718.39c-8.19,6.33-10.15,17.61-7.77,27.23c2.71,10.93,11.32,18.86,20.95,24.01
					c11.53,6.17,24.42,10.12,36.61,14.77c13.65,5.21,27.3,10.42,40.96,15.63c54.22,20.7,108.32,41.76,162.69,62.05
					c25.63,9.57,51.71,18.47,78.72,23.2c27.01,4.73,53.91,4.61,80.91-0.11c26.94-4.71,52.99-13.38,78.72-22.45
					c27.24-9.61,54.43-19.37,81.64-29.06c15.57-5.54,31.14-11.09,46.7-16.63c13.52-4.81,27.45-9.11,40.35-15.46
					c11.89-5.86,23.04-14.44,29.09-26.51c5.86-11.68,6.92-24.62,1.23-36.55c-1.47-3.08-5.41-4.12-8.47-3.45
					c-57.64,12.74-114.61,28.44-170.6,47.13c-49.02,16.36-98.27,33.8-144.24,57.59c-13.37,6.92-26.64,14.06-39.75,21.46
					c2.52,0,5.05,0,7.57,0c-24.91-15.17-50.01-29.6-76.85-41.09c-53.56-22.92-107.11-45.83-160.67-68.75
					c-29.99-12.83-59.98-25.67-89.97-38.5c-3.75-1.6-8-1.09-10.26,2.69c-1.88,3.14-1.03,8.67,2.69,10.26
					c53.56,22.92,107.11,45.83,160.67,68.75c26.62,11.39,53.25,22.78,79.87,34.18c18.1,7.74,35.58,15.6,52.71,25.3
					c11.52,6.52,22.93,13.23,34.23,20.11c2.31,1.4,5.26,1.31,7.57,0c28.93-16.33,58.35-31.85,89.23-44.17
					c54.23-21.64,109.59-40.46,165.77-56.36c31.76-8.99,63.78-17.02,96-24.14c-2.82-1.15-5.65-2.3-8.47-3.45
					c4.06,8.52,1.11,18.41-3.82,25.88c-5.93,8.98-16.03,14.59-25.66,18.77c-11.08,4.81-22.72,8.46-34.09,12.51
					c-12.45,4.44-24.91,8.87-37.36,13.31c-25.53,9.09-51.06,18.19-76.59,27.28c-24.01,8.55-48.07,17.15-72.89,23.08
					c-24.61,5.88-49.67,8.58-74.92,6.17c-24.97-2.39-49.38-9.39-73.03-17.5c-50.3-17.25-99.7-37.52-149.38-56.49
					c-27.92-10.66-55.85-21.32-83.77-31.98c-11.23-4.29-25.18-7.71-34.09-16.27c-5.94-5.71-9.1-16.05-1.63-21.82
					c3.23-2.5,2.58-7.97,0-10.61C200.51,715.2,196.22,715.93,193.04,718.39L193.04,718.39z"/>
			</g>
		</g>
		<g>
			<g>
				<path class="st2" d="M491.62,630.21c9.65,0,9.67-15,0-15C481.97,615.21,481.95,630.21,491.62,630.21L491.62,630.21z"/>
			</g>
		</g>
		<g>
			<path class="st3" d="M159.77,740.93c-23.61,174.57-54.53,448.35-37.32,452.47c371.64,88.82,307.46,122.81,814.56,41.59
				c-23.19-156.62-38.54-319.16-27.76-479.3C682.82,805.44,618.52,860.61,525.7,862.19c-127.22,2.17-231.6-105.97-357.5-124.37"/>
			<g>
				<path class="st3" d="M152.54,738.93c-7.38,54.6-14.27,109.26-20.62,163.99c-6.21,53.47-11.99,107.01-16.53,160.65
					c-3.06,36.17-6.79,73.02-5.2,109.37c0.33,7.62,0.02,19.12,5.85,25.05c2.4,2.44,5.52,2.9,8.73,3.67
					c6.76,1.62,13.52,3.26,20.27,4.92c12.67,3.1,25.33,6.26,37.97,9.47c41.55,10.55,82.92,21.8,124.3,33.01
					c30.97,8.39,61.96,16.77,93.31,23.64c28.01,6.13,56.33,10.84,84.89,13.39c31.4,2.8,62.97,2.97,94.46,1.6
					c42.34-1.85,84.55-6.25,126.61-11.41c59.7-7.32,119.2-16.26,178.62-25.54c17.94-2.8,35.88-5.65,53.81-8.52
					c4.33-0.69,5.77-5.6,5.24-9.23c-18.2-123.15-31.18-247.41-31.01-372.02c0.05-35.12,1.18-70.24,3.52-105.29
					c0.34-5.11-5.05-8.21-9.49-7.23c-60.78,13.38-120.85,29.7-179.85,49.51c-38.13,12.8-75.6,27.56-113.87,39.91
					c-30.34,9.79-59.64,16.74-90.88,16.85c-58.88,0.2-113.83-24.23-165.52-50.02c-53.44-26.66-106.6-56.71-165.34-70.07
					c-7.15-1.63-14.36-2.97-21.61-4.05c-4.03-0.6-8.02,1.01-9.23,5.24c-1.01,3.53,1.24,8.63,5.24,9.23
					c59.97,8.94,114.08,37.54,167.49,64.61c52.78,26.75,107.42,53.57,167.2,59.08c35.22,3.25,70.11-2.4,103.82-12.43
					c36.96-10.99,72.88-25.35,109.3-37.96c55.77-19.31,112.46-35.74,169.92-49.23c9.09-2.14,18.2-4.2,27.32-6.21
					c-3.16-2.41-6.33-4.82-9.49-7.23c-8.36,125.35-0.95,251.22,13.87,375.81c4.19,35.23,8.97,70.39,14.16,105.48
					c1.75-3.08,3.49-6.15,5.24-9.23c-63.6,10.18-127.26,20.15-191.11,28.72c-44.97,6.03-90.07,11.43-135.34,14.58
					c-33.21,2.31-66.56,3.33-99.83,1.65c-28.84-1.45-54.22-4.64-82.14-9.95c-29.46-5.61-58.55-13-87.52-20.69
					c-37.22-9.88-74.33-20.2-111.57-30c-23.63-6.21-47.3-12.26-71.02-18.12c-6.64-1.64-13.29-3.26-19.94-4.87
					c-3.31-0.8-6.63-1.6-9.94-2.39c-1.84-0.44-3-1.53-0.73,0.11c-0.9-0.65,1.58,1.44,0.94,0.77c-1.01-1.06,1.21,1.83,0.33,0.39
					c-0.88-1.45,0.43,1.92,0.02,0.09c-0.33-1.5-0.79-2.97-1.08-4.49c-0.09-0.45-0.14-0.9-0.21-1.34c-0.22-1.28,0.18,1.8,0.02,0.12
					c-0.11-1.16-0.25-2.32-0.35-3.48c-0.22-2.65-0.35-5.31-0.44-7.96c-0.23-6.68-0.18-13.36-0.04-20.04
					c0.39-18.72,1.54-37.43,2.88-56.1c3.62-50.48,8.8-100.86,14.36-151.16c6.07-54.94,12.75-109.82,19.91-164.63
					c1.57-12.01,3.16-24.02,4.78-36.03c0.55-4.04-0.97-8.01-5.24-9.23C158.27,732.7,153.08,734.92,152.54,738.93L152.54,738.93z"/>
			</g>
		</g>
		<g>
			<g>
				<path d="M509.25,872.39c-5.32,109.17-7.41,218.5-6.19,327.79c0.34,30.89,0.96,61.79,1.82,92.67c0.27,9.63,15.27,9.67,15,0
					c-3.05-109.26-2.86-218.61,0.62-327.85c0.99-30.88,2.24-61.75,3.74-92.61C524.72,862.74,509.72,862.77,509.25,872.39
					L509.25,872.39z"/>
			</g>
		</g>
		<g>
			<g>
				<path d="M526.56,874.94c100.29-30.59,200.58-61.18,300.87-91.77c28.56-8.71,57.13-17.43,85.69-26.14
					c9.21-2.81,5.28-17.29-3.99-14.46c-100.29,30.59-200.58,61.18-300.87,91.77c-28.56,8.71-57.13,17.43-85.69,26.14
					C513.37,863.29,517.29,877.77,526.56,874.94L526.56,874.94z"/>
			</g>
		</g>
		<g>
			<g>
				<path d="M903.62,749.8c1.99,63.54,3.71,127.08,6.13,190.6c2.44,64.1,5.64,128.17,10.49,192.13c2.8,36.9,6.15,73.76,10.14,110.55
					c0.44,4.03,3.13,7.5,7.5,7.5c3.72,0,7.94-3.45,7.5-7.5c-7.01-64.57-11.99-129.33-15.61-194.18
					c-3.56-63.67-5.85-127.4-7.84-191.14c-1.13-35.99-2.17-71.98-3.3-107.98C918.32,740.17,903.32,740.13,903.62,749.8L903.62,749.8
					z"/>
			</g>
		</g>
		<g>
			<g>
				<path d="M516.75,1300.36c109.36-14.66,219.2-25.31,328.77-38.21c30.81-3.63,61.6-7.44,92.35-11.56c4.01-0.54,7.5-3.06,7.5-7.5
					c0-3.63-3.46-8.04-7.5-7.5c-109.36,14.66-219.2,25.31-328.77,38.21c-30.81,3.63-61.6,7.44-92.35,11.56
					c-4.01,0.54-7.5,3.06-7.5,7.5C509.25,1296.49,512.71,1300.9,516.75,1300.36L516.75,1300.36z"/>
			</g>
		</g>
		<g>
			<g>
				<path d="M156.72,731.72c93.2,36.44,186.69,72.12,280.02,108.22c26.06,10.08,52.1,20.19,78.12,30.37
					c3.8,1.49,8.19-1.63,9.23-5.24c1.21-4.23-1.48-7.76-5.24-9.23c-93.2-36.44-186.69-72.12-280.02-108.22
					c-26.06-10.08-52.1-20.19-78.12-30.37c-3.8-1.49-8.19,1.63-9.23,5.24C150.27,726.73,152.96,730.25,156.72,731.72L156.72,731.72z
					"/>
			</g>
		</g>
		<g>
			<g>
				<path d="M148.45,727.41c-17.2,120.57-29.44,241.83-36.49,363.42c-1.98,34.17-3.55,68.36-4.72,102.57c-0.33,9.65,14.67,9.64,15,0
					c4.14-120.39,13.26-240.59,27.4-360.22c4.02-33.98,8.45-67.91,13.28-101.78c0.58-4.04-0.99-8.01-5.24-9.23
					C154.16,721.16,149.02,723.4,148.45,727.41L148.45,727.41z"/>
			</g>
		</g>
		<g>
			<g>
				<path d="M112.74,1200.63c102.57,29.1,207.01,50.98,310.4,76.89c28.47,7.13,56.86,14.57,85.09,22.58
					c9.3,2.64,13.27-11.83,3.99-14.46c-102.57-29.1-207.01-50.98-310.4-76.89c-28.47-7.13-56.86-14.57-85.09-22.58
					C107.43,1183.52,103.45,1197.99,112.74,1200.63L112.74,1200.63z"/>
			</g>
		</g>
		<g>
			<g>
				<path d="M518.84,870.31c91.3-38.42,184.59-72.4,279.45-100.96c25.95-7.81,52.03-15.18,78.26-22.03
					c9.33-2.44,5.38-16.91-3.99-14.46c-95.84,25.04-189.99,56.69-282.31,92.52c-25.27,9.81-50.41,19.97-75.39,30.48
					c-3.72,1.56-6.43,4.97-5.24,9.23C510.59,868.58,515.07,871.89,518.84,870.31L518.84,870.31z"/>
			</g>
		</g>
		<g>
			<g>
				<path d="M867.05,740.08c0.41,6.92-0.15,13.87,0.26,20.8c0.57,9.59,15.58,9.66,15,0c-0.41-6.92,0.15-13.87-0.26-20.8
					C881.47,730.49,866.47,730.42,867.05,740.08L867.05,740.08z"/>
			</g>
		</g>
		<g>
			<g>
				<path d="M182.46,718.59c-0.36,3.93-0.72,7.87-1.07,11.8c-0.36,3.92,3.7,7.67,7.5,7.5c4.37-0.2,7.12-3.3,7.5-7.5
					c0.36-3.93,0.72-7.87,1.07-11.8c0.36-3.92-3.7-7.67-7.5-7.5C185.6,711.28,182.84,714.39,182.46,718.59L182.46,718.59z"/>
			</g>
		</g>
		<g>
			<g>
				<path d="M187.97,721.78c85.81,34.8,172.78,67.21,255.42,109.24c23.66,12.03,46.92,24.84,69.67,38.53
					c8.29,4.99,15.84-7.97,7.57-12.95c-80.55-48.48-167.36-84.73-254.45-119.56c-24.74-9.9-49.52-19.72-74.22-29.73
					c-3.78-1.53-8.2,1.67-9.23,5.24C181.51,716.82,184.23,720.26,187.97,721.78L187.97,721.78z"/>
			</g>
		</g>
		<ellipse class="st4" cx="430.94" cy="690.86" rx="51.66" ry="25.48"/>
		<ellipse class="st4" cx="653.63" cy="683.89" rx="51.66" ry="25.48"/>
		<ellipse class="st5" cx="444.86" cy="547.97" rx="23" ry="70"/>
		<ellipse class="st5" cx="444.86" cy="547.97" rx="23" ry="70"/>
		<ellipse class="st5" cx="444.86" cy="547.97" rx="23" ry="70"/>
		<ellipse class="st5" cx="646.39" cy="547.97" rx="23" ry="70"/>
		<g>
			<g>
				<path d="M548.02,635.02c-19.48,1.5-35.58,21.63-29.34,41.14c5.92,18.51,28.04,26.86,45.15,18.9c8.74-4.07,1.13-17-7.57-12.95
					c-8.43,3.92-20-1.36-23.12-9.93c-3.49-9.6,4.96-21.39,14.88-22.15C557.58,649.29,557.66,634.28,548.02,635.02L548.02,635.02z"/>
			</g>
		</g>
		<g>
			<g>
				<path d="M460.08,701.3c5.49,31.5,29.43,57.73,59.1,68.65c30.53,11.24,64.44,2.38,88.19-19.08
					c13.19-11.92,22.86-27.82,26.88-45.17c2.18-9.39-12.28-13.4-14.46-3.99c-6.02,25.99-26.59,47.3-52.04,55.11
					c-26.03,7.98-53.59-0.52-72.52-19.66c-10.84-10.96-18.03-24.67-20.67-39.86C472.89,687.82,458.44,691.84,460.08,701.3
					L460.08,701.3z"/>
			</g>
		</g>
		<ellipse class="st6" cx="452.86" cy="521.15" rx="8" ry="13"/>
		<ellipse class="st6" cx="452.86" cy="521.15" rx="8" ry="13"/>
		<ellipse class="st7" cx="653.63" cy="521.15" rx="7.23" ry="13"/>
		<ellipse class="st7" cx="653.63" cy="521.15" rx="7.23" ry="13"/>
		<ellipse class="st8" cx="379.28" cy="508.15" rx="166" ry="161.5"/>
		<ellipse class="st9" cx="379.28" cy="508.15" rx="166" ry="161.5"/>
		<ellipse class="st8" cx="731.17" cy="516.46" rx="166" ry="161.5"/>
		<ellipse class="st10" cx="731.17" cy="516.46" rx="166" ry="161.5"/>
		<g>
			<g>
				<path d="M551.72,540.23c1.86,0,3.71,0,5.57,0c3.92,0,7.68-3.45,7.5-7.5c-0.18-4.06-3.3-7.5-7.5-7.5c-1.86,0-3.71,0-5.57,0
					c-3.92,0-7.68,3.45-7.5,7.5C544.4,536.79,547.51,540.23,551.72,540.23L551.72,540.23z"/>
			</g>
		</g>
		<g class="st1">
			<path d="M168.2,737.82c-19.99,316.83,90.77,471.57,339,543.34c-128.15-30.55-256.3-61.09-384.46-91.64
				c6.65-149.87,22.98-299.31,48.86-447.07"/>
			<g>
				<path d="M160.7,737.82c-3.51,56.27-3.49,112.98,3.46,168.99c5.77,46.46,16.11,92.52,34.07,135.87
					c16.01,38.63,37.65,74.56,65.27,106.03c27.51,31.33,60.54,57.59,96.32,78.88c39.8,23.68,83.03,41.42,127.14,55.3
					c6.06,1.91,12.14,3.73,18.24,5.5c1.33-4.82,2.66-9.64,3.99-14.46c-99.67-23.76-199.35-47.52-299.02-71.28
					c-28.48-6.79-56.96-13.58-85.43-20.36c1.84,2.41,3.67,4.82,5.51,7.23c5.2-116.47,16.14-232.7,33.01-348.06
					c4.74-32.41,9.94-64.75,15.58-97.02c1.65-9.44-12.8-13.49-14.46-3.99c-20.2,115.52-34.68,232.05-43.25,349.01
					c-2.44,33.32-4.39,66.68-5.88,100.05c-0.14,3.17,2.42,6.5,5.51,7.23c99.67,23.76,199.35,47.52,299.02,71.28
					c28.48,6.79,56.96,13.58,85.43,20.36c9.38,2.24,13.28-11.77,3.99-14.46c-44.24-12.83-87.59-29.15-128-51.4
					c-35.75-19.68-68.89-43.95-97.1-73.52c-27.69-29.03-49.94-62.77-66.56-99.26c-18.44-40.48-29.68-84.09-36.31-127.98
					c-8.05-53.31-9.12-107.62-6.74-161.41c0.33-7.52,0.74-15.03,1.21-22.54C176.3,728.18,161.3,728.21,160.7,737.82L160.7,737.82z"
					/>
			</g>
		</g>
		<g class="st1">
			<g>
				<path d="M513.57,893.42c-2.27,97.85-4.54,195.7-6.81,293.55c-0.65,27.96-1.3,55.91-1.95,83.87c-0.18,7.85,7.03,15.36,15,15
					c8.28-0.37,14.8-6.59,15-15c2.27-97.85,4.54-195.7,6.81-293.55c0.65-27.96,1.3-55.91,1.95-83.87c0.18-7.85-7.03-15.36-15-15
					C520.29,878.79,513.77,885.01,513.57,893.42L513.57,893.42z"/>
			</g>
		</g>
		
			<ellipse transform="matrix(0.1095 -0.994 0.994 0.1095 -810.9456 958.9484)" class="st11" cx="129.73" cy="932.08" rx="64.37" ry="41"/>
		<ellipse class="st11" cx="911.12" cy="995.18" rx="41" ry="64.37"/>
		<g class="st1">
			<g>
				<path class="st2" d="M837.02,826.06c-6.34,81.74-8.46,163.78-6.26,245.74c0.62,23.13,1.6,46.25,2.89,69.35
					c0.44,7.82,6.58,15.38,15,15c7.75-0.35,15.47-6.61,15-15c-4.59-81.85-4.96-163.93-1.01-245.82c1.12-23.11,2.58-46.21,4.38-69.28
					c0.61-7.84-7.33-15.34-15-15C843.37,811.44,837.67,817.66,837.02,826.06L837.02,826.06z"/>
			</g>
		</g>
		<g class="st1">
			<g>
				<path class="st2" d="M753.16,423.12c-2.84,0.38,2.08-0.03,2.66-0.04c1.71-0.05,3.43-0.01,5.14,0.1
					c0.63,0.04,4.73,0.67,1.82,0.14c1.44,0.26,2.87,0.54,4.3,0.88c1.42,0.34,2.84,0.74,4.23,1.19c0.93,0.3,1.86,0.62,2.78,0.96
					c1.51,0.6,1.83,0.71,0.95,0.34c-0.88-0.38-0.57-0.24,0.92,0.43c0.9,0.42,1.78,0.86,2.66,1.32c1.32,0.69,2.62,1.42,3.9,2.19
					c5.81,3.49,8.24,5.43,13.43,10.77c1.06,1.09,2.09,2.2,3.08,3.35c-0.02-0.02,2.96,3.55,1.48,1.67c2.01,2.56,3.8,5.34,5.45,8.15
					c6.72,11.44,10.65,24.84,12.43,38.96c-0.21-1.7,0.29,3.03,0.28,2.9c0.17,1.73,0.31,3.46,0.43,5.2c0.28,4.06,0.42,8.13,0.45,12.2
					c0.07,7.55-0.26,15.09-0.78,22.63c-0.54,7.84,7.29,15.35,15,15c8.59-0.38,14.42-6.6,15-15c2.35-34.01,0.11-71.57-19.3-100.85
					c-8.87-13.39-20.83-25.1-35.06-32.7c-15.52-8.28-31.89-11.04-49.23-8.69c-8.04,1.09-12.42,11.39-10.48,18.45
					C737.09,421.31,745.1,424.21,753.16,423.12L753.16,423.12z"/>
			</g>
		</g>
		<g class="st1">
			<g>
				<path class="st2" d="M403.87,411.43c5.21-0.38,10.48-0.39,15.67,0.29c-2.57-0.34,2.2,0.45,2.21,0.45
					c1.28,0.25,2.56,0.55,3.83,0.86c2.54,0.64,5.05,1.39,7.51,2.27c7.85,2.79,16.67,8.35,23.07,14.74c4.22,4.21,5.41,5.71,8.4,10.44
					c1.4,2.21,2.69,4.49,3.86,6.83c-0.02-0.03,1.65,3.45,1.22,2.48c-0.5-1.14,0.88,2.24,1,2.58c4.05,11.09,5.01,18.14,4.13,29.96
					c-0.58,7.84,7.31,15.34,15,15c8.62-0.39,14.38-6.6,15-15c1.98-26.86-8.39-54.45-27.4-73.5c-19.01-19.04-46.68-29.38-73.5-27.4
					c-7.81,0.58-15.38,6.49-15,15C389.22,404.06,395.49,412.05,403.87,411.43L403.87,411.43z"/>
			</g>
		</g>
		<g class="st1">
			<g>
				<path class="st2" d="M560.19,356.46c8.97,6.21,17.93,12.41,26.9,18.62c6.66,4.61,16.65,1.23,20.52-5.38
					c4.36-7.45,1.3-15.9-5.38-20.52c-8.97-6.21-17.93-12.41-26.9-18.62c-6.66-4.61-16.65-1.23-20.52,5.38
					C550.45,343.39,553.51,351.84,560.19,356.46L560.19,356.46z"/>
			</g>
		</g>
		<g class="st1">
			<g>
				<path class="st2" d="M693.85,716.54c-0.56,8.42-1.12,16.85-1.68,25.27c-0.52,7.85,7.27,15.35,15,15c8.57-0.38,14.44-6.6,15-15
					c0.56-8.42,1.12-16.85,1.68-25.27c0.52-7.85-7.27-15.35-15-15C700.27,701.92,694.41,708.13,693.85,716.54L693.85,716.54z"/>
			</g>
		</g>
		<g class="st1">
			<g>
				<path class="st2" d="M710.19,1316.38c14.59,58.97,54.7,108.72,105.13,141.49c56.42,36.65,125.44,49.59,191.89,43.28
					c40.47-3.84,80-13.82,117.61-29.18c7.49-3.06,12.81-9.97,10.48-18.45c-1.95-7.1-10.91-13.56-18.45-10.48
					c-61.75,25.23-130.04,37.12-194.61,25.1c-15.52-2.89-30.84-7.02-45.62-12.56c-1.6-0.6-3.2-1.22-4.79-1.85
					c-0.68-0.27-1.36-0.55-2.04-0.82c-0.05-0.02-2.28-0.95-0.92-0.37c-1.4-0.59-6.17-2.74-8.92-4.05
					c-6.41-3.06-12.7-6.38-18.83-9.96c-5.93-3.45-11.71-7.14-17.35-11.06c-2.81-1.96-5.58-3.97-8.32-6.04
					c-1.36-1.03-0.12-0.08,0.13,0.11c-0.77-0.6-1.54-1.21-2.3-1.82c-1.53-1.22-3.04-2.46-4.54-3.71
					c-10.63-8.91-20.53-18.71-29.49-29.31c-1.25-1.48-2.48-2.98-3.7-4.49c-0.45-0.57-0.91-1.14-1.36-1.71
					c1.48,1.87-0.49-0.65-0.75-1c-2.32-3.09-4.57-6.25-6.73-9.46c-4.31-6.41-8.28-13.04-11.87-19.88
					c-1.79-3.42-3.49-6.88-5.09-10.39c-0.3-0.66-0.59-1.32-0.89-1.98c-1.91-4.19,0.54,1.37-0.48-1.08
					c-0.74-1.78-1.45-3.58-2.13-5.39c-2.84-7.49-5.19-15.14-7.11-22.91c-1.95-7.87-10.79-12.58-18.45-10.48
					C712.67,1300.13,708.24,1308.49,710.19,1316.38L710.19,1316.38z"/>
			</g>
		</g>
		<g class="st1">
			<g>
				<path class="st2" d="M472.23,885.1c-3.93,49.99-7.85,99.97-11.78,149.96c-0.62,7.84,7.34,15.34,15,15c8.65-0.39,14.34-6.6,15-15
					c3.93-49.99,7.85-99.97,11.78-149.96c0.62-7.84-7.34-15.34-15-15C478.58,870.48,472.89,876.7,472.23,885.1L472.23,885.1z"/>
			</g>
		</g>
	</g>
</g>
<g id="Ebene_17">
	<g>
		<g id="Ebene_2_Kopie">
			<g>
				<path class="st12" d="M1141.26,615.27c48.43,12.09,195.73,49.46,214.69,33.13c30.81-26.53,142.02-362.13,122.37-389.16
					C1437.16,202.6,837.47,33.44,771.85,75.64c-59.17,38.06-62.12,373.55-47.68,396.95c21.84,35.37,124.83,42.03,167.76,68.55
					c19.14,11.83,89.23,133.95,112.53,137.76c13.22,2.16,101.04-34.56,135.24-63.86"/>
				<g>
					<path class="st13" d="M1140.54,618.61c47.53,11.87,95.22,23.77,143.58,31.79c11.63,1.93,23.32,3.61,35.06,4.64
						c8.7,0.76,17.64,1.4,26.3,0.34c5.32-0.65,10.54-1.88,14.27-5.68c2.84-2.9,5.07-6.42,7.16-9.84
						c6.88-11.26,12.32-23.36,17.6-35.38c7.56-17.23,14.48-34.72,21.13-52.3c16.03-42.39,30.53-85.35,43.77-128.65
						c11.66-38.11,22.84-76.63,30.34-115.79c2.32-12.13,4.59-24.59,4.49-37.01c-0.03-3.54-0.22-7.36-1.55-10.73
						c-1.16-2.95-3.53-5.37-5.89-7.53c-6.8-6.25-15.21-11.05-23.37-15.48c-12.08-6.56-24.65-12.29-37.3-17.71
						c-35.34-15.17-71.73-28.08-108.23-40.31c-44.71-14.99-89.88-28.7-135.29-41.53c-47.13-13.31-94.55-25.66-142.26-36.78
						c-42.61-9.93-85.5-19-128.71-25.95c-31.34-5.04-63.47-9.72-95.22-9.12c-9.67,0.18-19.81,0.78-28.97,3.75
						c-9.58,3.11-16.09,10.08-21.23,18.11c-8.24,12.84-13.15,27.7-17.26,42.2c-5.49,19.32-9.26,39.12-12.35,58.96
						c-7.13,45.86-10.59,92.34-12.29,138.76c-1.39,37.93-1.97,76.17,0.94,114.14c0.74,9.65,1.19,20.09,4.34,29.44
						c2.03,6.01,7.26,11.07,12.31,14.98c9.34,7.25,20.47,12.17,31.59,16.31c27.59,10.27,56.56,16.31,84.72,24.81
						c12.48,3.76,25,7.93,36.53,13.98c3.93,2.06,5.41,2.76,8.27,5.44c2.25,2.12,4.12,4.27,6.06,6.59
						c13.6,16.3,25.22,34.12,37.29,51.42c13.29,19.07,26.48,38.38,41.58,56.24c5.14,6.08,10.53,12.4,17.06,17.2
						c4.97,3.65,9.4,5.07,15.52,4.01c9.13-1.58,17.94-4.87,26.5-8.09c12.78-4.81,25.3-10.24,37.6-16.03
						c23.73-11.17,47.98-23.57,67.76-40.41c3.42-2.91-1.99-7.56-5.37-4.68c-9.55,8.14-20.45,14.88-31.42,21.18
						c-12.42,7.14-25.26,13.64-38.32,19.69c-11.79,5.46-23.81,10.56-36.09,15.02c-7.55,2.74-16.51,6.25-24.13,6.91
						c-0.48,0.04-0.96,0.06-1.45,0.08c-1.29,0.06,0.22,0.1-0.65-0.05c-0.41-0.07-0.82-0.2-1.22-0.33c0.93,0.3-0.86-0.42-1.19-0.59
						c-2.38-1.23-4.29-2.83-6.57-4.87c-6.46-5.78-11.99-12.49-17.34-19.18c-14.81-18.52-28.12-38.09-41.62-57.46
						c-11.19-16.06-22.02-32.8-35.2-47.51c-5.09-5.68-10.76-9.27-17.81-12.63c-11.82-5.63-24.43-9.69-37-13.41
						c-27.75-8.22-56.43-14.07-83.43-24.59c-10.46-4.08-21.22-8.9-29.59-16.32c-1.61-1.42-3.13-2.93-4.45-4.58
						c-0.73-0.91-1.36-1.86-2.02-2.81c-0.15-0.22-0.89-1.67-0.25-0.33c-0.55-1.16-0.94-2.36-1.29-3.59c-0.98-3.52-1.55-7.45-2.13-12
						c-0.77-6.12-1.28-12.25-1.69-18.39c-1.14-17.04-1.52-34.1-1.61-51.14c-0.22-44.49,1.62-89.01,5.63-133.25
						c3.77-41.65,8.8-83.92,20.64-124.13c4.02-13.64,8.85-27.6,17-39.51c2.46-3.58,6.34-7.96,9.8-10.22c0.6-0.4,1.23-0.77,1.87-1.11
						c0.29-0.15,0.59-0.3,0.89-0.44c1.03-0.52-0.41,0.13,0.69-0.3c1.64-0.65,3.31-1.21,5.02-1.67c4.65-1.25,7.38-1.6,12.26-2.08
						c5.58-0.54,11.21-0.72,16.83-0.72c13.96,0,27.94,1.08,41.84,2.56c38.43,4.09,76.59,11.1,114.46,18.87
						c45.87,9.42,91.43,20.32,136.74,32.11c46.59,12.13,92.94,25.24,138.94,39.4c40.88,12.58,81.55,25.92,121.59,40.85
						c28.89,10.77,58.03,22.02,85.1,36.67c4.58,2.48,9.09,5.09,13.43,7.94c0.81,0.54,0.78,0.51,2.04,1.39
						c0.86,0.6,1.71,1.23,2.54,1.86c1.43,1.09,2.81,2.22,4.13,3.42c0.55,0.51,1.08,1.03,1.62,1.57c0.27,0.27,0.52,0.55,0.78,0.84
						c-0.82-0.9,0.04,0.05,0.22,0.28c0.35,0.46,0.69,0.91,1.02,1.38c0.57,0.83-0.24-0.64,0.06,0.1c0.12,0.3,0.26,0.59,0.35,0.89
						c0.12,0.37,0.61,2.37,0.38,1.22c0.17,0.83,0.29,1.67,0.38,2.51c0.23,2.06,0.27,4.14,0.25,6.21
						c-0.14,11.54-2.47,24.25-4.83,36.22c-3.51,17.82-7.88,35.47-12.54,53.02c-11.36,42.77-24.61,85.08-38.88,127
						c-12.92,37.95-26.56,75.78-42.71,112.55c-5.24,11.92-10.64,23.93-17.44,35.12c-2.3,3.78-3.38,5.73-6.26,8.66
						c-1.23,1.25-1.91,1.7-3.42,2.21c-2.89,0.98-5.15,1.3-8.15,1.55c-8.91,0.75-18.01,0.07-26.92-0.84
						c-11.8-1.21-23.54-3.01-35.24-5.03c-26.6-4.59-53-10.37-79.29-16.49c-19.84-4.62-39.61-9.53-59.37-14.47
						C1137.46,610.81,1136.02,617.48,1140.54,618.61L1140.54,618.61z"/>
				</g>
			</g>
		</g>
		<g id="Ebene_8_1_">
			<g>
				<g>
					<path class="st13" d="M1342.99,377.76c-15.79,50.54-31.59,101.08-47.37,151.62c-1.73,5.54,0.4,13.27,3.67,18.04
						c3.41,4.96,9.78,9.52,15.99,10.59c6.44,1.1,13.49,0.56,18.93-3.06c5.67-3.77,8.81-8.58,10.79-14.91
						c15.79-50.54,31.59-101.08,47.37-151.62c1.73-5.54-0.4-13.27-3.67-18.04c-3.41-4.96-9.78-9.52-15.99-10.59
						c-6.44-1.1-13.49-0.56-18.93,3.06C1348.11,366.61,1344.97,371.43,1342.99,377.76L1342.99,377.76z"/>
				</g>
			</g>
		</g>
		<g id="Ebene_7_1_">
			<g class="st1">
				<g>
					<path class="st2" d="M1279.35,226.13c14.49,5.61,29.48,9.95,44.29,14.64c4.09,1.29,8.18,2.61,12.25,3.95
						c1.98,0.66,3.97,1.32,5.95,1.99c0.99,0.34,1.98,0.68,2.97,1.02c3.26,1.12-2.75-1,0.56,0.2c7.7,2.77,15.35,5.68,22.8,9.04
						c3.46,1.56,6.89,3.22,10.22,5.02c1.5,0.81,2.99,1.65,4.45,2.53c0.71,0.42,1.39,0.86,2.09,1.29c2.85,1.77-1.97-1.48-0.26-0.2
						c2.4,1.8,4.79,3.56,6.92,5.65c0.45,0.45,0.87,1.02,1.36,1.42c-0.7-0.56-2.32-2.85-1-1.06c0.76,1.04,1.4,2.4,2.26,3.36
						c-0.47-0.53-1.54-3.49-0.78-1.45c0.19,0.51,0.38,1.02,0.58,1.53c1.16,2.92-0.1-2.84-0.14-0.87c-0.02,1-0.11,4.65,0.13,1.28
						c0.24-3.34,0.03-0.64-0.06,0.16c-0.09,0.76-0.19,1.52-0.3,2.27c-0.26,1.73-0.58,3.44-0.93,5.16
						c-4.72,23.47-12.42,46.45-19.68,69.23c-10.28,32.27-21.13,64.37-32.05,96.45c-10.32,30.34-20.78,60.63-30.94,91.02
						c-1.06,3.14-2.1,6.3-3.15,9.45c-2.25,6.79,4.08,15.13,11.23,16.36c8.36,1.43,14.58-2.99,16.98-10.27
						c9.92-29.97,20.23-59.83,30.42-89.72c11.23-32.94,22.42-65.9,33.09-99.02c7.88-24.45,16.08-49.04,21.61-74.14
						c1.42-6.42,3.33-13.88,2.19-20.48c-2.68-15.46-16.15-25.74-29.7-33.26c-15.21-8.44-32.05-14.19-48.56-19.71
						c-15.31-5.11-30.83-9.59-46.11-14.79c-0.76-0.25-1.51-0.52-2.27-0.78c-2.3-0.79,3.6,1.31,0.87,0.3
						c-1.44-0.53-2.87-1.05-4.29-1.6c-7-2.71-15.93-1.56-19.36,5.55C1270.09,213.73,1271.83,223.22,1279.35,226.13L1279.35,226.13z"
						/>
				</g>
			</g>
			<g class="st1">
				<g>
					<path class="st2" d="M1294.43,606.58c-0.16,3.01-0.31,6.02-0.46,9.03c7.99-3.52,15.98-7.04,23.97-10.57
						c-3.12-2.92-6.23-5.83-9.36-8.75c-0.55,7.17-1.1,14.35-1.66,21.52c-1.9,0.93-3.63,1.52-5.84,1.35
						c-0.88,0.05-1.72-0.13-2.5-0.55c-1.39-0.56-1.6-0.61-0.62-0.16c-1.45-0.89-2.51-1.82-3.54-3.15c0.56,0.84,0.49,0.66-0.2-0.52
						c-0.66-1.01-1.04-2.11-1.12-3.31c3.24-4.55,6.49-9.09,9.73-13.64c0.22-0.06,3.63-0.26,1.79-0.3c1.82,0.04,3.34,0.34,5.02,1.05
						c-1.71-0.72,1.24,0.91,1.43,1.05c-1.46-1.05,0.94,1.05,1.11,1.3c0.9,1.31,1.29,2.88,1.45,4.4c-0.26-2.47-1.26,4.84-1.17,4.62
						c0.66-1.61-0.77,1.08-0.99,1.32c-0.58,0.47-1.16,0.95-1.74,1.41c-2.23,0.86-2.82,1.12-1.78,0.77c1.64-0.39-3.33,0.4-1.66,0.28
						c0.76,0,0.45-0.04-0.92-0.08c-0.86,0.06-1.68-0.1-2.46-0.47c-3.16-1.04-5.54-3.49-6.18-6.61c-0.6-2.95-0.32,1.36-0.11-1.74
						c0.2-3.07-0.68,1.15,0.35-1.76c0.15-0.8,0.53-1.5,1.12-2.08c0.81-0.99,0.98-1.22,0.51-0.71c-0.85,0.88,3.07-1.96,0.99-1.01
						c7.19,2.49,14.38,4.98,21.57,7.48c-0.53-1.27-1.06-2.55-1.59-3.82c-2.78-6.69-10.78-11.54-18.27-8.94
						c-6.97,2.42-11.97,9.96-8.99,17.12c0.53,1.27,1.06,2.55,1.59,3.82c1.71,4.1,4.56,7.04,8.93,8.58c4.64,1.63,8.39,0.84,12.64-1.1
						c8.54-3.91,11.85-15.24,8.52-23.44c-3.96-9.75-15.73-15.07-25.96-11.33c-9.87,3.6-16.24,14.18-11.82,24.11
						c4.28,9.6,15.3,15.29,25.89,12.14c6.05-1.8,10.13-7.61,9.73-13.64c-0.43-6.52-4.6-12.82-10.82-15.87
						c-6.75-3.32-13.5-2.91-19.96,0.28c-8.51,4.18-7.82,15.76-1.66,21.52c3.12,2.92,6.23,5.83,9.36,8.75
						c4.16,3.89,10.91,4.55,15.89,2.34c5.58-2.48,7.79-7.24,8.08-12.9c0.16-3.01,0.31-6.02,0.46-9.03c0.16-3.18-2.37-7.27-4.77-9.35
						c-2.67-2.32-6.96-3.99-10.58-3.69c-3.64,0.31-7.36,1.59-9.75,4.3C1295.45,599.59,1294.63,602.71,1294.43,606.58L1294.43,606.58
						z"/>
				</g>
			</g>
		</g>
		<g id="Ebene_2_1_">
			<g>
				<g>
					<path d="M1111.45,643.05c47.59,11.9,95.34,23.83,143.75,31.9c11.64,1.94,23.35,3.63,35.1,4.68c9.34,0.83,18.94,1.66,28.25,0.54
						c7.22-0.87,14.01-2.61,19.08-7.74c3.24-3.27,5.78-7.25,8.16-11.11c6.91-11.24,12.37-23.34,17.65-35.36
						c7.6-17.26,14.54-34.8,21.21-52.42c16.2-42.82,30.89-86.21,44.25-129.96c11.63-38.07,22.8-76.55,30.18-115.69
						c2.35-12.48,4.59-25.36,4.37-38.14c-0.07-4.07-0.5-8.41-2.04-12.26c-1.65-4.1-4.8-7.47-8.12-10.46
						c-7.4-6.65-16.48-11.81-25.28-16.55c-12.2-6.56-24.88-12.3-37.65-17.75c-35.91-15.33-72.88-28.39-109.95-40.79
						c-44.69-14.95-89.82-28.65-135.19-41.46c-47.07-13.29-94.43-25.64-142.07-36.76c-42.47-9.92-85.2-18.98-128.25-25.96
						c-32.08-5.2-64.98-10.01-97.47-9.52c-10.33,0.16-21.18,0.84-30.97,3.93c-11.31,3.56-19.02,11.42-25.19,20.8
						c-8.65,13.18-13.73,28.66-18.01,43.61c-5.53,19.29-9.29,39.06-12.37,58.88c-7.18,46.25-10.59,93.16-12.25,139.99
						c-1.35,38.05-1.88,76.43,1.15,114.52c0.81,10.09,1.4,21.01,4.75,30.74c2.47,7.18,8.49,13.35,14.59,18.01
						c10.08,7.7,21.79,13.03,33.73,17.42c28.3,10.41,57.89,16.69,86.73,25.45c3.17,0.96,6.33,1.96,9.47,3
						c0.83,0.28,1.67,0.56,2.51,0.84c0.45,0.15,3.25,1.14,0.54,0.18c1.6,0.57,3.2,1.15,4.79,1.75c5.88,2.23,11.68,4.7,17.22,7.64
						c1.05,0.56,2.1,1.14,3.13,1.74c0.58,0.34,1.18,0.8,1.79,1.07c1.25,0.56-2.53-1.98-1.52-1.02c0.85,0.8,1.85,1.47,2.71,2.27
						c1,0.93,1.93,1.93,2.87,2.91c2.11,2.23-1.42-1.69,0.21,0.21c0.71,0.84,1.43,1.67,2.14,2.52
						c13.53,16.25,25.19,33.93,37.26,51.14c13.37,19.04,26.61,38.35,41.83,56.15c5.52,6.47,11.26,13.25,18.28,18.35
						c3.31,2.41,6.78,4.62,10.86,5.6c4.09,0.98,7.88,0.42,11.89-0.31c9.24-1.69,18.16-4.96,26.85-8.22
						c13.24-4.97,26.21-10.6,38.96-16.57c24.19-11.33,48.54-23.95,68.72-41.04c4.3-3.64,3.19-10.96-0.85-14.48
						c-4.71-4.1-10.94-3.19-15.25,0.46c-0.58,0.49-4.09,3.26-1.69,1.42c-1.07,0.82-2.14,1.65-3.22,2.45
						c-2.53,1.86-5.11,3.67-7.73,5.42c-5.64,3.76-11.46,7.28-17.37,10.65c-12.43,7.09-25.26,13.55-38.32,19.54
						c-1.4,0.65-2.8,1.28-4.21,1.91c-0.26,0.12-3.05,1.35-0.86,0.39c-0.82,0.37-1.66,0.73-2.49,1.09c-3.23,1.41-6.47,2.78-9.73,4.12
						c-5.67,2.34-11.38,4.57-17.17,6.65c-4.69,1.69-9.43,3.29-14.24,4.67c-1.8,0.51-3.61,0.99-5.44,1.4
						c-0.77,0.17-1.82,0.2-2.53,0.52c2.59-1.17,1.96-0.27,0.23-0.09c-0.59,0.06-1.19,0.04-1.77,0.11c-1.99,0.24,1.92,0.35,1.5,0.16
						c-0.3-0.13-1.15-0.37-1.46-0.37c2.83,0.01,2.53,1.1,0.9,0.19c-0.56-0.31-1.12-0.65-1.69-0.95c-2.01-1.07,2.34,1.76,0.52,0.35
						c-1.31-1.01-2.61-2.01-3.85-3.11c-2.95-2.6-5.64-5.43-8.29-8.3c-0.49-0.52-2-1.97,0.25,0.3c-0.42-0.42-0.8-0.9-1.18-1.34
						c-0.74-0.85-1.48-1.71-2.2-2.56c-1.68-1.99-3.34-3.99-4.97-6.02c-14.82-18.41-28.16-37.87-41.67-57.14
						c-11.64-16.6-22.95-33.76-36.66-48.94c-5.3-5.87-11.44-9.83-18.72-13.35c-12.6-6.08-26.14-10.41-39.56-14.39
						c-14.09-4.17-28.31-7.82-42.48-11.7c-7-1.92-14-3.9-20.94-6.03c-3.2-0.98-6.38-2-9.55-3.06c-0.85-0.29-1.69-0.57-2.53-0.86
						c-2.73-0.93,1.5,0.58-0.17-0.06c-1.75-0.67-3.52-1.28-5.26-1.95c-5.75-2.21-11.43-4.65-16.86-7.53
						c-2.37-1.25-4.6-2.65-6.9-4.02c-2.11-1.26,1.94,1.47,0.02,0.01c-0.53-0.41-1.1-0.78-1.63-1.18c-1.05-0.78-2.07-1.6-3.05-2.44
						c-0.95-0.82-1.87-1.66-2.75-2.55c-0.29-0.28-0.55-0.59-0.85-0.87c-1.58-1.51,1.47,1.98,0.22,0.24
						c-0.91-1.27-1.84-3.06-2.94-4.15c2.12,2.1,1.24,2.79,0.81,1.52c-0.08-0.24-0.19-0.48-0.29-0.72c-0.26-0.68-0.47-1.37-0.67-2.06
						c-0.22-0.76-0.39-1.53-0.59-2.31c-0.59-2.35,0.34,1.81,0.19,0.95c-0.09-0.52-0.21-1.03-0.3-1.55c-0.44-2.36-0.78-4.73-1.09-7.1
						c-0.8-6.16-1.33-12.35-1.76-18.53c-1.18-16.95-1.59-33.92-1.71-50.88c-0.15-21.21,0.23-42.41,1.05-63.58
						c0.45-11.67,1.03-23.34,1.76-34.99c0.18-2.76,0.35-5.53,0.54-8.29c0.05-0.72,0.34-4.78,0.12-1.79
						c0.13-1.76,0.26-3.52,0.39-5.27c0.43-5.77,0.91-11.54,1.42-17.3c3.71-41.55,8.69-83.73,20.55-123.81
						c1.2-4.05,2.49-8.08,3.9-12.07c0.31-0.87,1.56-3.72,0.1-0.31c0.39-0.92,0.71-1.87,1.06-2.8c0.7-1.79,1.43-3.58,2.2-5.35
						c2.57-5.94,5.56-11.67,9.21-17.06c0.21-0.3,0.47-0.59,0.65-0.91c0.07-0.13-1.82,2.37-0.93,1.28c0.44-0.55,0.86-1.13,1.32-1.68
						c0.85-1.05,1.75-2.07,2.71-3.04c0.81-0.83,1.7-1.59,2.56-2.39c1.52-1.41-2.55,1.78-0.42,0.35c0.48-0.33,0.96-0.68,1.46-1
						c0.58-0.37,1.19-0.7,1.8-1.03c0.35-0.19,0.74-0.33,1.08-0.53c0.33-0.19-3.2,1.27-1.13,0.52c1.67-0.6,3.33-1.18,5.06-1.64
						c0.92-0.24,1.83-0.45,2.76-0.64c0.53-0.11,1.06-0.21,1.6-0.32c2.62-0.53-1.53,0.23-0.8,0.13c2.32-0.32,4.63-0.65,6.96-0.87
						c5.61-0.52,11.26-0.68,16.92-0.66c6.59,0.02,13.19,0.3,19.78,0.72c1.73,0.11,3.45,0.24,5.17,0.36c0.8,0.06,1.6,0.12,2.4,0.19
						c0.49,0.04,0.97,0.08,1.46,0.12c2.76,0.23-2.32-0.22-0.43-0.04c3.9,0.36,7.81,0.74,11.71,1.15c38.42,4.17,76.57,11.2,114.42,19
						c45.55,9.39,90.8,20.22,135.8,31.94c46.67,12.15,93.09,25.27,139.17,39.44c21.46,6.6,42.85,13.43,64.13,20.55
						c10.15,3.4,20.3,6.8,30.37,10.42c-2.7-0.97-0.23-0.08,1,0.36c1.23,0.44,2.47,0.87,3.7,1.31c2.43,0.87,4.87,1.74,7.3,2.62
						c4.53,1.64,9.07,3.3,13.59,4.98c28.95,10.77,58.15,22.02,85.33,36.61c4.59,2.46,9.11,5.04,13.46,7.87
						c0.41,0.26,0.81,0.55,1.22,0.81c-3.69-2.27-1.53-1.04-0.67-0.44c0.87,0.61,1.74,1.23,2.59,1.87c1.46,1.09,2.88,2.22,4.23,3.43
						c0.57,0.51,1.13,1.03,1.66,1.57c0.25,0.25,0.49,0.52,0.74,0.77c1.34,1.31-2.06-2.58-0.89-0.99c0.35,0.47,0.72,0.97,1.1,1.42
						c1.37,1.62-1.06-3.15-0.36-0.66c0.17,0.6,0.33,1.27,0.55,1.85c-1.14-3.01-0.32-1.83-0.09,0.03c0.24,1.93,0.31,3.89,0.31,5.83
						c0,1.09-0.03,2.19-0.07,3.29c-0.03,0.64-0.06,1.28-0.1,1.92c-0.13,2.74,0.22-2.6,0.03-0.38c-0.25,2.87-0.54,5.72-0.9,8.57
						c-0.91,7.07-2.14,14.1-3.51,21.1c-3.44,17.61-7.73,35.05-12.33,52.4c-11.33,42.84-24.58,85.19-38.88,127.16
						c-3.58,10.51-7.24,20.99-10.98,31.44c-1.81,5.06-3.65,10.1-5.5,15.14c-0.21,0.57-1.06,2.86,0,0.01
						c-0.2,0.54-0.39,1.07-0.6,1.61c-0.44,1.17-0.87,2.34-1.3,3.52c-0.94,2.52-1.89,5.03-2.84,7.55
						c-6.52,17.2-13.31,34.32-20.73,51.18c-5.24,11.92-10.66,23.92-17.49,35.09c-1.12,1.82-2.41,3.53-3.53,5.34
						c2.26-3.66,0.69-0.93-0.11,0.03c-0.51,0.61-1.04,1.18-1.58,1.76c-0.21,0.23-0.48,0.42-0.69,0.66
						c-1.05,1.22,2.67-1.55,1.01-0.81c-0.43,0.19-1.02,0.52-1.4,0.79c-0.68,0.49-2.01-0.55,1.68-0.74
						c-0.36,0.02-0.81,0.33-1.16,0.43c-1.26,0.35-2.5,0.64-3.77,0.94c-1.69,0.4,2.95-0.35,1.17-0.21c-0.41,0.04-0.83,0.11-1.25,0.16
						c-0.88,0.1-1.77,0.19-2.65,0.26c-4.01,0.31-8.05,0.28-12.07,0.13c-2.25-0.08-4.49-0.21-6.73-0.37
						c-0.87-0.06-5.36-0.29-1.68-0.12c-1.35-0.06-2.73-0.25-4.08-0.39c-11.95-1.23-23.85-3.08-35.69-5.14
						c-26.49-4.61-52.79-10.37-78.98-16.49c-19.86-4.63-39.65-9.56-59.45-14.51c-5.67-1.42-11.6,2.44-12.74,7.7
						C1101.82,636.34,1105.75,641.62,1111.45,643.05L1111.45,643.05z"/>
				</g>
			</g>
		</g>
		<g id="Ebene_5_1_">
			<g>
				<g>
					<path class="st2" d="M904.76,369.14c24.01,49.04,48.01,98.08,72.02,147.12c3.49,7.13,7.67,12.21,15.64,15.02
						c7.07,2.49,15.9,2.49,22.12-1.94c39.61-28.14,79.22-56.28,118.84-84.42c39.61-28.14,79.22-56.28,118.84-84.42
						c22.36-15.89,44.73-31.78,67.09-47.66c5.35-3.8,9.4-8.48,10.79-14.91c1.23-5.71,0.02-13.12-3.67-18.04
						c-7.52-10.02-23.78-15.44-34.92-7.53c-39.61,28.14-79.22,56.28-118.84,84.42c-39.61,28.14-79.22,56.28-118.84,84.42
						c-22.36,15.89-44.73,31.78-67.09,47.66c12.58,4.36,25.17,8.72,37.76,13.08c-24.01-49.04-48.01-98.08-72.03-147.12
						c-2.89-5.9-6.15-10.72-12.45-13.89c-5.58-2.81-13.59-3.82-19.53-1.76c-5.96,2.07-11.63,5.84-14.35,11.48
						C903.54,356.08,901.94,363.38,904.76,369.14L904.76,369.14z"/>
				</g>
			</g>
		</g>
		<g id="Ebene_9_1_">
			<g class="st14">
				<path d="M765.48,81.09c-40.36,187.05,132.21,455.57,258.07,600.77c-19.61,0.67-37.62-29.06-71.89-68.6
					c-48.44-55.87-31.15-57.7-60.69-76.78c-24.54-15.86-57.76-20.16-86.33-27.23c-26.34-6.51-58.54-18.09-72.79-34.38
					c-18.8-21.49-13.18-241.43,19.53-370.27"/>
				<g>
					<path d="M758.42,79.56c-8.32,38.84-7.53,79.28-1.43,118.67c6.76,43.68,19.65,86.53,35.92,128.04
						c17.26,44.04,38.37,86.79,61.76,128.3c23.08,40.94,48.51,80.73,75.78,119.34c24.45,34.62,50.38,68.35,77.91,100.85
						c3.04,3.59,6.1,7.16,9.19,10.72c1.84-3.48,3.67-6.97,5.51-10.45c-0.53,0.01-1.05,0-1.57-0.01c1.95,0.04,0.29,0.04-0.16-0.05
						c-0.88-0.18-1.74-0.35-2.61-0.58c-1.98-0.53,0.59,0.4-1.31-0.5c-1.07-0.5-2.13-1.02-3.16-1.61c-0.54-0.31-1.07-0.64-1.59-0.97
						c1.17,0.75-0.05-0.03-0.33-0.24c-1.01-0.75-2.01-1.5-2.98-2.29c-2.15-1.76-4.19-3.66-6.16-5.61
						c-10.46-10.36-19.36-22.14-28.63-33.43c-18.14-22.11-37.91-43.11-51.89-67.92c-2.79-4.95-5.3-10.11-8.8-14.66
						c-4.39-5.7-9.92-10.19-15.94-14.26c-29.71-20.09-66.31-23.13-100.22-32.52c-15.46-4.28-30.88-9.7-44.76-17.7
						c-5.7-3.28-10.97-7.13-15.44-11.87c-0.66-0.7,0.5,0.93-0.22-0.33c-0.17-0.29-0.37-0.58-0.56-0.85c-0.62-0.88-0.16-1.3,0.17,0.4
						c-0.08-0.44-0.45-0.94-0.63-1.36c-0.89-2.08-1.54-4.25-2.1-6.43c-0.19-0.71-0.36-1.42-0.52-2.13
						c-0.12-0.53-0.55-2.72-0.13-0.54c-0.29-1.53-0.6-3.05-0.86-4.59c-1.29-7.64-2.06-15.35-2.65-23.04
						c-3.64-47.5-1.56-95.47,1.79-142.76c3.93-55.48,10.39-111.11,22.45-165.4c1.31-5.92,2.71-11.81,4.2-17.69
						c2.15-8.5-11.96-11.54-14.11-3.04c-13.62,53.83-20.59,109.4-25.22,164.71c-4.27,50.84-6.89,102.24-4.21,153.39
						c0.8,15.35,1.74,31.18,5.89,46.18c1.44,5.21,3.58,9.7,7.41,13.75c10.26,10.87,25.08,17.95,39.02,23.43
						c16.27,6.41,33.12,10.88,50.2,14.64c17.53,3.87,35.49,7.26,52.18,14.04c4.1,1.66,8.12,3.53,11.99,5.64
						c1.74,0.95,3.45,1.95,5.13,3c0.71,0.45,1.4,0.9,2.1,1.35c1.22,0.8-0.71-0.51,0.77,0.52c3.08,2.14,6.1,4.38,8.82,6.93
						c0.5,0.47,0.98,0.94,1.46,1.43c0.65,0.66,1.47,1.7,0.37,0.35c0.92,1.14,1.86,2.25,2.7,3.45c1.59,2.24,2.96,4.62,4.29,7.01
						c4.07,7.28,8.17,14.5,12.89,21.43c9.05,13.29,19.57,25.51,30.04,37.8c11.25,13.22,21.84,26.94,33.28,40.02
						c7.53,8.61,15.72,18.1,26.42,23.29c4.44,2.16,9.25,3.34,14.21,3.24c5-0.1,9.05-6.37,5.51-10.45
						c-27.11-31.3-52.66-63.81-76.81-97.18c-27.2-37.58-52.65-76.3-75.95-116.12c-23.74-40.56-45.24-82.33-63.24-125.39
						c-17.06-40.81-31.26-82.98-39.47-126.07c-7.38-38.72-10.21-78.66-4.11-117.15c0.72-4.58,1.58-9.14,2.55-13.67
						C774.36,74.05,760.26,70.98,758.42,79.56L758.42,79.56z"/>
				</g>
			</g>
		</g>
	</g>
</g>
</svg>
