<?xml version="1.0" encoding="utf-8"?>
<!-- Generator: Adobe Adobe Illustrator 24.2.0, SVG Export Plug-In . SVG Version: 6.00 Build 0)  -->
<svg version="1.1" xmlns="http://www.w3.org/2000/svg" xmlns:xlink="http://www.w3.org/1999/xlink" x="0px" y="0px"
	 viewBox="0 0 1700.79 1700.79" style="enable-background:new 0 0 1700.79 1700.79;" xml:space="preserve">
<style type="text/css">
	.st0{fill:#99C154;}
	.st1{opacity:0.149;}
	.st2{fill:#FFFFFF;}
	.st3{fill:#F2C059;}
	.st4{fill:#CB5B7A;stroke:#CC5C7B;stroke-miterlimit:10;}
	.st5{stroke:#000000;stroke-miterlimit:10;}
	.st6{fill:#FFFFFF;stroke:#FFFFFF;stroke-miterlimit:10;}
	.st7{fill:#FFFFFF;stroke:#FFFFFF;stroke-width:0.9508;stroke-miterlimit:10;}
	.st8{fill:none;stroke:#000000;stroke-width:17.2352;stroke-miterlimit:10;}
	.st9{opacity:0.4706;fill:#D3E1EC;stroke:#000000;stroke-width:17.2352;stroke-miterlimit:10;}
	.st10{opacity:0.6392;fill:#D3E1EC;stroke:#000000;stroke-width:17.2352;stroke-miterlimit:10;}
	.st11{fill:#99C154;stroke:#000000;stroke-width:11.21;stroke-miterlimit:10;}
	.st12{fill:#ADBECF;stroke:#F2C059;stroke-miterlimit:10;}
	.st13{fill:#F3C057;stroke:#F2C059;stroke-miterlimit:10;}
	.st14{fill:#F7D98D;stroke:#F2C059;stroke-miterlimit:10;}
	.st15{stroke:#F2C059;stroke-miterlimit:10;}
	.st16{fill:#AEBFCE;stroke:#F2C059;stroke-miterlimit:10;}
	.st17{opacity:0.2706;}
	.st18{fill:#3D4C5B;stroke:#F2C059;stroke-miterlimit:10;}
</style>
<g id="Ebene_1">
</g>
<g id="Ebene_4">
</g>
<g id="Ebene_11">
</g>
<g id="Ebene_9">
</g>
<g id="Ebene_8">
</g>
<g id="Ebene_3">
</g>
<g id="Ebene_16">
</g>
<g id="Ebene_7">
</g>
<g id="Ebene_10">
</g>
<g id="Ebene_5">
</g>
<g id="Ebene_5_Kopie">
</g>
<g id="Ebene_12">
</g>
<g id="Ebene_14">
</g>
<g id="Ebene_15">
</g>
<g id="Ebene_13">
	<g>
		<g>
			<path class="st0" d="M737.48,1007.75c7.07-163.83,14.11-328.58-6.31-491.29c-6.86-54.66-18.1-111.79-53.89-153.67
				c-56.51-66.12-163.24-72.99-238.71-29.75S316.84,458.94,297.85,543.82c-19,84.88-14.18,173.04-9.26,259.88
				c8.61,151.94,17.21,303.88,25.82,455.83c4.66,82.23,11.17,169.76,60.55,235.68c52.87,70.58,143.73,100.84,230.61,115.98
				c122.09,21.27,248,20.43,369.79-2.48c105.6-19.86,215.68-62.03,273.71-152.47c11.73-18.28,21.13-41.38,12.31-61.22
				c-14.24-32.04-60.08-29.38-94.06-20.73c-57.67,14.68-115.32,31.45-174.7,35.33c-59.38,3.87-121.82-6.37-170.02-41.27
				c-54.19-39.23-84-105.22-93.78-171.4c-9.78-66.18-1.84-133.55,6.1-199.97"/>
			<g>
				<path d="M744.98,1007.75c6.63-153.6,13.27-307.97-2.84-461.23c-6.67-63.48-14.59-132.53-55.63-184.26
					c-33.72-42.51-87.52-63.34-140.85-64c-56.95-0.7-110.71,21.13-153.03,58.82c-44.23,39.38-74.34,92.91-92.28,148.88
					c-22.05,68.79-25.17,142.23-23.18,213.92c2.12,76.36,7.82,152.7,12.14,228.97c4.42,78.09,8.85,156.19,13.27,234.28
					c3.85,67.97,4.32,137.57,18.53,204.4c12.96,60.93,41.13,116.94,90.87,155.84c47.07,36.81,104.9,56.99,162.75,69.45
					c70.25,15.12,142.8,21.6,214.6,21.2c72.51-0.4,145.61-7.89,216.36-23.95c56.98-12.94,113.64-32.63,162.89-64.6
					c24.21-15.72,46.65-34.48,65.4-56.48c18.78-22.04,41.19-51.42,38.07-82.14c-2.78-27.39-25.69-42.06-51.12-45.05
					c-28.58-3.36-56.76,5.52-84.07,12.6c-69.02,17.89-140.88,36.09-212.62,25.38c-31.46-4.7-62.24-14.67-89.12-31.93
					c-25.78-16.56-46.68-39.69-62.35-65.89c-35.07-58.61-43.11-127.79-40.52-194.88c1.42-36.85,5.78-73.51,10.16-110.1
					c1.14-9.56-13.87-9.48-15,0c-8.65,72.36-17.37,146.42-2.94,218.65c11.48,57.44,38.64,114.62,84.94,152
					c49.4,39.89,114.57,52.84,176.82,49.84c35.34-1.7,70.31-8.15,104.71-16.15c18.29-4.26,36.48-8.98,54.66-13.69
					c14.27-3.7,28.54-7.92,43.15-10.06c20.03-2.94,48.99-4.01,62.38,14.54c18.53,25.67-6.83,60.4-22.93,80.45
					c-35.51,44.23-84.9,74.99-137.13,95.8c-57.87,23.06-119.74,35.5-181.4,43.03c-72.51,8.85-145.94,10.02-218.69,3.53
					c-63.47-5.66-128.14-15.77-188-38.41c-54.77-20.73-105.2-54.49-135.32-105.83c-31.69-54.02-39.52-118.21-43.79-179.58
					c-5.1-73.26-8.47-146.68-12.63-220c-4.28-75.55-8.56-151.09-12.84-226.64c-4.15-73.33-10.08-147.12-4.58-220.53
					c4.74-63.41,19.16-126.54,50.66-182.26c27.51-48.66,68.8-92.65,121.57-113.64c47.92-19.06,104.68-20.78,152.24,0.44
					c24.39,10.88,45.82,27.64,61.37,49.45c17.83,25.02,28.12,54.26,34.84,84.02c7.39,32.72,10.97,66.29,14.15,99.64
					c3.6,37.62,5.86,75.36,7.14,113.13c2.53,74.84,1.18,149.75-1.43,224.57c-1.26,36.17-2.82,72.33-4.38,108.48
					C729.56,1017.4,744.56,1017.38,744.98,1007.75L744.98,1007.75z"/>
			</g>
		</g>
		<g>
			<g>
				<path d="M1030.64,1418.2c6.18,34.81-4.27,72-27.49,98.61c-6.32,7.24,4.24,17.9,10.61,10.61
					c27.02-30.96,38.53-72.78,31.35-113.21C1043.42,1404.72,1028.97,1408.74,1030.64,1418.2L1030.64,1418.2z"/>
			</g>
		</g>
		<g>
			<g>
				<path d="M1129.87,1442.19c6.16,40.78-4.46,83.02-28.1,116.64c-5.56,7.91,7.44,15.42,12.95,7.57
					c26.1-37.12,36.37-83.47,29.61-128.2c-0.6-4-5.66-6.24-9.23-5.24C1130.82,1434.16,1129.26,1438.15,1129.87,1442.19
					L1129.87,1442.19z"/>
			</g>
		</g>
		<g>
			<g>
				<path d="M779.81,1631.8c20.95-16.83,38.23-38.6,52.43-61.29c14.16-22.64,26-47.81,29.31-74.54c0.5-4.03-3.8-7.5-7.5-7.5
					c-4.47,0-7,3.46-7.5,7.5c-3.02,24.4-15.11,47.81-28.1,68.29c-13.42,21.17-29.64,41.18-49.25,56.93c-3.18,2.56-2.61,7.93,0,10.61
					C772.29,1634.95,776.67,1634.32,779.81,1631.8L779.81,1631.8z"/>
			</g>
		</g>
		<g>
			<g>
				<path d="M802.84,1369.54c-24.76,56.33-74.8,99.71-134.3,115.65c-9.31,2.5-5.36,16.97,3.99,14.46
					c49.08-13.15,92.4-43.88,121.95-85.1c8.39-11.71,15.51-24.26,21.31-37.44c1.64-3.74,1.06-8.01-2.69-10.26
					C809.94,1364.96,804.47,1365.84,802.84,1369.54L802.84,1369.54z"/>
			</g>
		</g>
		<g>
			<g>
				<path d="M351.41,1467.3c35.43,5.15,71.41,5.68,107.06,2.54c37.06-3.27,74.06-10.17,109.26-22.35
					c18.4-6.37,36.38-14.19,53.21-24.01c8.33-4.86,0.79-17.83-7.57-12.95c-29.57,17.24-62.47,28.09-95.8,35.35
					c-34.72,7.57-70.34,11.12-105.87,10.91c-18.81-0.11-37.68-1.24-56.3-3.95c-4.04-0.59-8.01,1-9.23,5.24
					C345.16,1461.59,347.4,1466.72,351.41,1467.3L351.41,1467.3z"/>
			</g>
		</g>
		<g>
			<g>
				<path d="M529.35,1350.88c63.3,16.33,133.36,10.29,194.93-10.41c17.2-5.78,34-12.92,49.94-21.6c8.48-4.62,0.92-17.58-7.57-12.95
					c-54.89,29.9-120.67,42.22-182.8,38.36c-17.06-1.06-33.96-3.59-50.51-7.86C523.98,1334,519.99,1348.47,529.35,1350.88
					L529.35,1350.88z"/>
			</g>
		</g>
		<g>
			<g>
				<path d="M290.25,703.98c38.27,28.15,86.71,39.64,133.6,33.13c4-0.56,6.23-5.69,5.24-9.23c-1.21-4.32-5.18-5.8-9.23-5.24
					c-42.94,5.97-87.25-6.03-122.04-31.61c-3.29-2.42-8.34-0.52-10.26,2.69C285.29,697.5,287.01,701.59,290.25,703.98L290.25,703.98
					z"/>
			</g>
		</g>
		<g class="st1">
			<path d="M481.57,322.52c-69.94,147.52-97.56,312.42-99.66,475.67c-2.1,163.25,20.49,325.77,46.91,486.88
				c9.55,58.24,20.39,118.39,53.51,167.24c47.59,70.18,132.97,104.74,216.08,121.55c178.63,36.12,370.33,0.29,529.22-88.97
				c-43.67,49.66-105.36,87.11-169,105.07s-130.13,23.07-196.16,26.63c-93.61,5.05-188.91,7.59-279.68-15.79
				c-253.75-65.36-309.98-170.87-298.62-881.42c1.24-77.67,26.81-157.2,50.69-231.12c23.88-73.92,73.96-143.34,146.42-171.36"/>
			<g>
				<path d="M475.09,318.73c-56.64,119.88-85.91,250.63-96.3,382.4c-11.09,140.63-0.49,281.99,18.04,421.52
					c9.14,68.79,18.82,137.9,32.06,206.04c11.49,59.11,30.98,117.14,74.43,160.65c39.43,39.48,91.5,64.04,144.44,79.72
					c57.88,17.14,118.84,25.06,179.11,26.08c125.23,2.12,250.55-27.26,363-82.03c14.06-6.85,27.91-14.12,41.55-21.76
					c-3.03-3.93-6.06-7.85-9.09-11.78c-31.71,35.81-71.14,64.15-114.49,84.22c-47.41,21.95-99.71,31.99-151.32,37.94
					c-54.49,6.29-109.65,8.93-164.47,10.29c-54.73,1.36-109.89,0.04-163.95-9.24c-45.32-7.78-91.34-20.57-133.79-38.52
					c-27.4-11.58-56.74-28.49-78.97-48.34c-24.72-22.08-42.79-47.35-57.65-77.19c-18.24-36.62-29.75-77.4-38.15-117.98
					c-11.67-56.36-17.56-113.83-21.56-171.19c-5.5-78.82-7.15-157.89-7.58-236.88c-0.26-48.44,0.01-96.89,0.59-145.32
					c0.32-26.82-0.03-53.79,2.54-80.52c2.6-27,7.76-53.71,14.14-80.05c6.49-26.8,14.32-53.25,22.58-79.55
					c7.18-22.86,13.89-46.09,23.58-68.05c17.41-39.44,42.44-75.93,75.89-103.45c16.04-13.19,34.21-24.04,53.54-31.63
					c8.89-3.49,5.02-18-3.99-14.46c-41.16,16.15-75.33,44.5-101.92,79.55c-13.42,17.68-24.74,36.92-34.05,57.06
					c-10.12,21.87-17.28,44.74-24.57,67.67c-16.84,52.99-32.39,106.7-39.03,162.05c-3.22,26.83-3.23,53.77-3.58,80.75
					c-0.34,26.01-0.58,52.01-0.72,78.02c-0.44,86.97,0.2,174.02,4.41,260.9c3.11,64.16,8.05,128.43,18.41,191.87
					c7.38,45.21,17.55,90.46,34.92,132.98c13.47,32.96,31.28,64.08,55.57,90.3c22.09,23.85,49.03,42.76,78.06,57.21
					c32.8,16.34,67.9,27.67,103.21,37.15c102.02,27.4,207.8,24.08,312.3,17.77c55.86-3.37,112.02-8.62,166.37-22.56
					c47.75-12.24,93.02-33.28,132.53-62.86c18.78-14.06,36.19-29.79,51.75-47.36c5.54-6.26-1.41-16.08-9.09-11.78
					c-107.22,60.03-228.34,95.66-351.22,101.11c-60.62,2.69-121.67-1.85-181-14.74c-53.15-11.55-106.04-30.08-150.26-62.47
					c-21.78-15.95-41.02-35.65-55.6-58.41c-16.36-25.52-26.85-54.1-34.41-83.33c-7.78-30.07-12.61-60.8-17.59-91.43
					c-5.69-35.04-11.17-70.12-16.23-105.26c-19.77-137.41-33.04-276.48-26.7-415.42c5.89-129.15,28.96-258.48,77.95-378.55
					c6.01-14.72,12.45-29.25,19.24-43.62C492.14,317.62,479.22,310,475.09,318.73L475.09,318.73z"/>
			</g>
		</g>
		<g>
			<path class="st2" d="M198.34,723.7c-8.85,6.26-8.17,20.5-1.47,29.02c6.7,8.53,17.34,12.76,27.47,16.63
				c68.88,26.29,137.76,52.59,206.64,78.88c42.98,16.41,87.11,33.04,133.11,33.29c44.5,0.24,87.47-14.88,129.39-29.81
				c44.84-15.97,89.67-31.93,134.51-47.9c14.12-5.03,28.7-10.34,39.49-20.75c10.79-10.41,16.72-27.43,9.89-40.77
				c-94.21,20.76-186.63,49.64-275.9,86.21c-27.15,11.12-76.9,39.22-76.9,39.22s-45.26-27.57-63.07-35.19
				c-88.14-37.71-176.27-75.43-264.41-113.14"/>
			<g>
				<path class="st2" d="M193.04,718.39c-8.19,6.33-10.15,17.61-7.77,27.23c2.71,10.93,11.32,18.86,20.95,24.01
					c11.53,6.17,24.42,10.12,36.61,14.77c13.65,5.21,27.3,10.42,40.96,15.63c54.22,20.7,108.32,41.76,162.69,62.05
					c25.63,9.57,51.71,18.47,78.72,23.2c27.01,4.73,53.91,4.61,80.91-0.11c26.94-4.71,52.99-13.38,78.72-22.45
					c27.24-9.61,54.43-19.37,81.64-29.06c15.57-5.54,31.14-11.09,46.7-16.63c13.52-4.81,27.45-9.11,40.35-15.46
					c11.89-5.86,23.04-14.44,29.09-26.51c5.86-11.68,6.92-24.62,1.23-36.55c-1.47-3.08-5.41-4.12-8.47-3.45
					c-57.64,12.74-114.61,28.44-170.6,47.13c-49.02,16.36-98.27,33.8-144.24,57.59c-13.37,6.92-26.64,14.06-39.75,21.46
					c2.52,0,5.05,0,7.57,0c-24.91-15.17-50.01-29.6-76.85-41.09c-53.56-22.92-107.11-45.83-160.67-68.75
					c-29.99-12.83-59.98-25.67-89.97-38.5c-3.75-1.6-8-1.09-10.26,2.69c-1.88,3.14-1.03,8.67,2.69,10.26
					c53.56,22.92,107.11,45.83,160.67,68.75c26.62,11.39,53.25,22.78,79.87,34.18c18.1,7.74,35.58,15.6,52.71,25.3
					c11.52,6.52,22.93,13.23,34.23,20.11c2.31,1.4,5.26,1.31,7.57,0c28.93-16.33,58.35-31.85,89.23-44.17
					c54.23-21.64,109.59-40.46,165.77-56.36c31.76-8.99,63.78-17.02,96-24.14c-2.82-1.15-5.65-2.3-8.47-3.45
					c4.06,8.52,1.11,18.41-3.82,25.88c-5.93,8.98-16.03,14.59-25.66,18.77c-11.08,4.81-22.72,8.46-34.09,12.51
					c-12.45,4.44-24.91,8.87-37.36,13.31c-25.53,9.09-51.06,18.19-76.59,27.28c-24.01,8.55-48.07,17.15-72.89,23.08
					c-24.61,5.88-49.67,8.58-74.92,6.17c-24.97-2.39-49.38-9.39-73.03-17.5c-50.3-17.25-99.7-37.52-149.38-56.49
					c-27.92-10.66-55.85-21.32-83.77-31.98c-11.23-4.29-25.18-7.71-34.09-16.27c-5.94-5.71-9.1-16.05-1.63-21.82
					c3.23-2.5,2.58-7.97,0-10.61C200.51,715.2,196.22,715.93,193.04,718.39L193.04,718.39z"/>
			</g>
		</g>
		<g>
			<g>
				<path class="st2" d="M491.62,630.21c9.65,0,9.67-15,0-15C481.97,615.21,481.95,630.21,491.62,630.21L491.62,630.21z"/>
			</g>
		</g>
		<g>
			<path class="st3" d="M159.77,740.93c-23.61,174.57-54.53,448.35-37.32,452.47c371.64,88.82,307.46,122.81,814.56,41.59
				c-23.19-156.62-38.54-319.16-27.76-479.3C682.82,805.44,618.52,860.61,525.7,862.19c-127.22,2.17-231.6-105.97-357.5-124.37"/>
			<g>
				<path class="st3" d="M152.54,738.93c-7.38,54.6-14.27,109.26-20.62,163.99c-6.21,53.47-11.99,107.01-16.53,160.65
					c-3.06,36.17-6.79,73.02-5.2,109.37c0.33,7.62,0.02,19.12,5.85,25.05c2.4,2.44,5.52,2.9,8.73,3.67
					c6.76,1.62,13.52,3.26,20.27,4.92c12.67,3.1,25.33,6.26,37.97,9.47c41.55,10.55,82.92,21.8,124.3,33.01
					c30.97,8.39,61.96,16.77,93.31,23.64c28.01,6.13,56.33,10.84,84.89,13.39c31.4,2.8,62.97,2.97,94.46,1.6
					c42.34-1.85,84.55-6.25,126.61-11.41c59.7-7.32,119.2-16.26,178.62-25.54c17.94-2.8,35.88-5.65,53.81-8.52
					c4.33-0.69,5.77-5.6,5.24-9.23c-18.2-123.15-31.18-247.41-31.01-372.02c0.05-35.12,1.18-70.24,3.52-105.29
					c0.34-5.11-5.05-8.21-9.49-7.23c-60.78,13.38-120.85,29.7-179.85,49.51c-38.13,12.8-75.6,27.56-113.87,39.91
					c-30.34,9.79-59.64,16.74-90.88,16.85c-58.88,0.2-113.83-24.23-165.52-50.02c-53.44-26.66-106.6-56.71-165.34-70.07
					c-7.15-1.63-14.36-2.97-21.61-4.05c-4.03-0.6-8.02,1.01-9.23,5.24c-1.01,3.53,1.24,8.63,5.24,9.23
					c59.97,8.94,114.08,37.54,167.49,64.61c52.78,26.75,107.42,53.57,167.2,59.08c35.22,3.25,70.11-2.4,103.82-12.43
					c36.96-10.99,72.88-25.35,109.3-37.96c55.77-19.31,112.46-35.74,169.92-49.23c9.09-2.14,18.2-4.2,27.32-6.21
					c-3.16-2.41-6.33-4.82-9.49-7.23c-8.36,125.35-0.95,251.22,13.87,375.81c4.19,35.23,8.97,70.39,14.16,105.48
					c1.75-3.08,3.49-6.15,5.24-9.23c-63.6,10.18-127.26,20.15-191.11,28.72c-44.97,6.03-90.07,11.43-135.34,14.58
					c-33.21,2.31-66.56,3.33-99.83,1.65c-28.84-1.45-54.22-4.64-82.14-9.95c-29.46-5.61-58.55-13-87.52-20.69
					c-37.22-9.88-74.33-20.2-111.57-30c-23.63-6.21-47.3-12.26-71.02-18.12c-6.64-1.64-13.29-3.26-19.94-4.87
					c-3.31-0.8-6.63-1.6-9.94-2.39c-1.84-0.44-3-1.53-0.73,0.11c-0.9-0.65,1.58,1.44,0.94,0.77c-1.01-1.06,1.21,1.83,0.33,0.39
					c-0.88-1.45,0.43,1.92,0.02,0.09c-0.33-1.5-0.79-2.97-1.08-4.49c-0.09-0.45-0.14-0.9-0.21-1.34c-0.22-1.28,0.18,1.8,0.02,0.12
					c-0.11-1.16-0.25-2.32-0.35-3.48c-0.22-2.65-0.35-5.31-0.44-7.96c-0.23-6.68-0.18-13.36-0.04-20.04
					c0.39-18.72,1.54-37.43,2.88-56.1c3.62-50.48,8.8-100.86,14.36-151.16c6.07-54.94,12.75-109.82,19.91-164.63
					c1.57-12.01,3.16-24.02,4.78-36.03c0.55-4.04-0.97-8.01-5.24-9.23C158.27,732.7,153.08,734.92,152.54,738.93L152.54,738.93z"/>
			</g>
		</g>
		<g>
			<g>
				<path d="M509.25,872.39c-5.32,109.17-7.41,218.5-6.19,327.79c0.34,30.89,0.96,61.79,1.82,92.67c0.27,9.63,15.27,9.67,15,0
					c-3.05-109.26-2.86-218.61,0.62-327.85c0.99-30.88,2.24-61.75,3.74-92.61C524.72,862.74,509.72,862.77,509.25,872.39
					L509.25,872.39z"/>
			</g>
		</g>
		<g>
			<g>
				<path d="M526.56,874.94c100.29-30.59,200.58-61.18,300.87-91.77c28.56-8.71,57.13-17.43,85.69-26.14
					c9.21-2.81,5.28-17.29-3.99-14.46c-100.29,30.59-200.58,61.18-300.87,91.77c-28.56,8.71-57.13,17.43-85.69,26.14
					C513.37,863.29,517.29,877.77,526.56,874.94L526.56,874.94z"/>
			</g>
		</g>
		<g>
			<g>
				<path d="M903.62,749.8c1.99,63.54,3.71,127.08,6.13,190.6c2.44,64.1,5.64,128.17,10.49,192.13c2.8,36.9,6.15,73.76,10.14,110.55
					c0.44,4.03,3.13,7.5,7.5,7.5c3.72,0,7.94-3.45,7.5-7.5c-7.01-64.57-11.99-129.33-15.61-194.18
					c-3.56-63.67-5.85-127.4-7.84-191.14c-1.13-35.99-2.17-71.98-3.3-107.98C918.32,740.17,903.32,740.13,903.62,749.8L903.62,749.8
					z"/>
			</g>
		</g>
		<g>
			<g>
				<path d="M516.75,1300.36c109.36-14.66,219.2-25.31,328.77-38.21c30.81-3.63,61.6-7.44,92.35-11.56c4.01-0.54,7.5-3.06,7.5-7.5
					c0-3.63-3.46-8.04-7.5-7.5c-109.36,14.66-219.2,25.31-328.77,38.21c-30.81,3.63-61.6,7.44-92.35,11.56
					c-4.01,0.54-7.5,3.06-7.5,7.5C509.25,1296.49,512.71,1300.9,516.75,1300.36L516.75,1300.36z"/>
			</g>
		</g>
		<g>
			<g>
				<path d="M156.72,731.72c93.2,36.44,186.69,72.12,280.02,108.22c26.06,10.08,52.1,20.19,78.12,30.37
					c3.8,1.49,8.19-1.63,9.23-5.24c1.21-4.23-1.48-7.76-5.24-9.23c-93.2-36.44-186.69-72.12-280.02-108.22
					c-26.06-10.08-52.1-20.19-78.12-30.37c-3.8-1.49-8.19,1.63-9.23,5.24C150.27,726.73,152.96,730.25,156.72,731.72L156.72,731.72z
					"/>
			</g>
		</g>
		<g>
			<g>
				<path d="M148.45,727.41c-17.2,120.57-29.44,241.83-36.49,363.42c-1.98,34.17-3.55,68.36-4.72,102.57c-0.33,9.65,14.67,9.64,15,0
					c4.14-120.39,13.26-240.59,27.4-360.22c4.02-33.98,8.45-67.91,13.28-101.78c0.58-4.04-0.99-8.01-5.24-9.23
					C154.16,721.16,149.02,723.4,148.45,727.41L148.45,727.41z"/>
			</g>
		</g>
		<g>
			<g>
				<path d="M112.74,1200.63c102.57,29.1,207.01,50.98,310.4,76.89c28.47,7.13,56.86,14.57,85.09,22.58
					c9.3,2.64,13.27-11.83,3.99-14.46c-102.57-29.1-207.01-50.98-310.4-76.89c-28.47-7.13-56.86-14.57-85.09-22.58
					C107.43,1183.52,103.45,1197.99,112.74,1200.63L112.74,1200.63z"/>
			</g>
		</g>
		<g>
			<g>
				<path d="M518.84,870.31c91.3-38.42,184.59-72.4,279.45-100.96c25.95-7.81,52.03-15.18,78.26-22.03
					c9.33-2.44,5.38-16.91-3.99-14.46c-95.84,25.04-189.99,56.69-282.31,92.52c-25.27,9.81-50.41,19.97-75.39,30.48
					c-3.72,1.56-6.43,4.97-5.24,9.23C510.59,868.58,515.07,871.89,518.84,870.31L518.84,870.31z"/>
			</g>
		</g>
		<g>
			<g>
				<path d="M867.05,740.08c0.41,6.92-0.15,13.87,0.26,20.8c0.57,9.59,15.58,9.66,15,0c-0.41-6.92,0.15-13.87-0.26-20.8
					C881.47,730.49,866.47,730.42,867.05,740.08L867.05,740.08z"/>
			</g>
		</g>
		<g>
			<g>
				<path d="M182.46,718.59c-0.36,3.93-0.72,7.87-1.07,11.8c-0.36,3.92,3.7,7.67,7.5,7.5c4.37-0.2,7.12-3.3,7.5-7.5
					c0.36-3.93,0.72-7.87,1.07-11.8c0.36-3.92-3.7-7.67-7.5-7.5C185.6,711.28,182.84,714.39,182.46,718.59L182.46,718.59z"/>
			</g>
		</g>
		<g>
			<g>
				<path d="M187.97,721.78c85.81,34.8,172.78,67.21,255.42,109.24c23.66,12.03,46.92,24.84,69.67,38.53
					c8.29,4.99,15.84-7.97,7.57-12.95c-80.55-48.48-167.36-84.73-254.45-119.56c-24.74-9.9-49.52-19.72-74.22-29.73
					c-3.78-1.53-8.2,1.67-9.23,5.24C181.51,716.82,184.23,720.26,187.97,721.78L187.97,721.78z"/>
			</g>
		</g>
		<ellipse class="st4" cx="430.94" cy="690.86" rx="51.66" ry="25.48"/>
		<ellipse class="st4" cx="653.63" cy="683.89" rx="51.66" ry="25.48"/>
		<ellipse class="st5" cx="444.86" cy="547.97" rx="23" ry="70"/>
		<ellipse class="st5" cx="444.86" cy="547.97" rx="23" ry="70"/>
		<ellipse class="st5" cx="444.86" cy="547.97" rx="23" ry="70"/>
		<ellipse class="st5" cx="646.39" cy="547.97" rx="23" ry="70"/>
		<g>
			<g>
				<path d="M548.02,635.02c-19.48,1.5-35.58,21.63-29.34,41.14c5.92,18.51,28.04,26.86,45.15,18.9c8.74-4.07,1.13-17-7.57-12.95
					c-8.43,3.92-20-1.36-23.12-9.93c-3.49-9.6,4.96-21.39,14.88-22.15C557.58,649.29,557.66,634.28,548.02,635.02L548.02,635.02z"/>
			</g>
		</g>
		<g>
			<g>
				<path d="M460.08,701.3c5.49,31.5,29.43,57.73,59.1,68.65c30.53,11.24,64.44,2.38,88.19-19.08
					c13.19-11.92,22.86-27.82,26.88-45.17c2.18-9.39-12.28-13.4-14.46-3.99c-6.02,25.99-26.59,47.3-52.04,55.11
					c-26.03,7.98-53.59-0.52-72.52-19.66c-10.84-10.96-18.03-24.67-20.67-39.86C472.89,687.82,458.44,691.84,460.08,701.3
					L460.08,701.3z"/>
			</g>
		</g>
		<ellipse class="st6" cx="452.86" cy="521.15" rx="8" ry="13"/>
		<ellipse class="st6" cx="452.86" cy="521.15" rx="8" ry="13"/>
		<ellipse class="st7" cx="653.63" cy="521.15" rx="7.23" ry="13"/>
		<ellipse class="st7" cx="653.63" cy="521.15" rx="7.23" ry="13"/>
		<ellipse class="st8" cx="379.28" cy="508.15" rx="166" ry="161.5"/>
		<ellipse class="st9" cx="379.28" cy="508.15" rx="166" ry="161.5"/>
		<ellipse class="st8" cx="731.17" cy="516.46" rx="166" ry="161.5"/>
		<ellipse class="st10" cx="731.17" cy="516.46" rx="166" ry="161.5"/>
		<g>
			<g>
				<path d="M551.72,540.23c1.86,0,3.71,0,5.57,0c3.92,0,7.68-3.45,7.5-7.5c-0.18-4.06-3.3-7.5-7.5-7.5c-1.86,0-3.71,0-5.57,0
					c-3.92,0-7.68,3.45-7.5,7.5C544.4,536.79,547.51,540.23,551.72,540.23L551.72,540.23z"/>
			</g>
		</g>
		<g class="st1">
			<path d="M168.2,737.82c-19.99,316.83,90.77,471.57,339,543.34c-128.15-30.55-256.3-61.09-384.46-91.64
				c6.65-149.87,22.98-299.31,48.86-447.07"/>
			<g>
				<path d="M160.7,737.82c-3.51,56.27-3.49,112.98,3.46,168.99c5.77,46.46,16.11,92.52,34.07,135.87
					c16.01,38.63,37.65,74.56,65.27,106.03c27.51,31.33,60.54,57.59,96.32,78.88c39.8,23.68,83.03,41.42,127.14,55.3
					c6.06,1.91,12.14,3.73,18.24,5.5c1.33-4.82,2.66-9.64,3.99-14.46c-99.67-23.76-199.35-47.52-299.02-71.28
					c-28.48-6.79-56.96-13.58-85.43-20.36c1.84,2.41,3.67,4.82,5.51,7.23c5.2-116.47,16.14-232.7,33.01-348.06
					c4.74-32.41,9.94-64.75,15.58-97.02c1.65-9.44-12.8-13.49-14.46-3.99c-20.2,115.52-34.68,232.05-43.25,349.01
					c-2.44,33.32-4.39,66.68-5.88,100.05c-0.14,3.17,2.42,6.5,5.51,7.23c99.67,23.76,199.35,47.52,299.02,71.28
					c28.48,6.79,56.96,13.58,85.43,20.36c9.38,2.24,13.28-11.77,3.99-14.46c-44.24-12.83-87.59-29.15-128-51.4
					c-35.75-19.68-68.89-43.95-97.1-73.52c-27.69-29.03-49.94-62.77-66.56-99.26c-18.44-40.48-29.68-84.09-36.31-127.98
					c-8.05-53.31-9.12-107.62-6.74-161.41c0.33-7.52,0.74-15.03,1.21-22.54C176.3,728.18,161.3,728.21,160.7,737.82L160.7,737.82z"
					/>
			</g>
		</g>
		<g class="st1">
			<g>
				<path d="M513.57,893.42c-2.27,97.85-4.54,195.7-6.81,293.55c-0.65,27.96-1.3,55.91-1.95,83.87c-0.18,7.85,7.03,15.36,15,15
					c8.28-0.37,14.8-6.59,15-15c2.27-97.85,4.54-195.7,6.81-293.55c0.65-27.96,1.3-55.91,1.95-83.87c0.18-7.85-7.03-15.36-15-15
					C520.29,878.79,513.77,885.01,513.57,893.42L513.57,893.42z"/>
			</g>
		</g>
		
			<ellipse transform="matrix(0.1095 -0.994 0.994 0.1095 -810.9456 958.9484)" class="st11" cx="129.73" cy="932.08" rx="64.37" ry="41"/>
		<ellipse class="st11" cx="911.12" cy="995.18" rx="41" ry="64.37"/>
		<g class="st1">
			<g>
				<path class="st2" d="M837.02,826.06c-6.34,81.74-8.46,163.78-6.26,245.74c0.62,23.13,1.6,46.25,2.89,69.35
					c0.44,7.82,6.58,15.38,15,15c7.75-0.35,15.47-6.61,15-15c-4.59-81.85-4.96-163.93-1.01-245.82c1.12-23.11,2.58-46.21,4.38-69.28
					c0.61-7.84-7.33-15.34-15-15C843.37,811.44,837.67,817.66,837.02,826.06L837.02,826.06z"/>
			</g>
		</g>
		<g class="st1">
			<g>
				<path class="st2" d="M753.16,423.12c-2.84,0.38,2.08-0.03,2.66-0.04c1.71-0.05,3.43-0.01,5.14,0.1
					c0.63,0.04,4.73,0.67,1.82,0.14c1.44,0.26,2.87,0.54,4.3,0.88c1.42,0.34,2.84,0.74,4.23,1.19c0.93,0.3,1.86,0.62,2.78,0.96
					c1.51,0.6,1.83,0.71,0.95,0.34c-0.88-0.38-0.57-0.24,0.92,0.43c0.9,0.42,1.78,0.86,2.66,1.32c1.32,0.69,2.62,1.42,3.9,2.19
					c5.81,3.49,8.24,5.43,13.43,10.77c1.06,1.09,2.09,2.2,3.08,3.35c-0.02-0.02,2.96,3.55,1.48,1.67c2.01,2.56,3.8,5.34,5.45,8.15
					c6.72,11.44,10.65,24.84,12.43,38.96c-0.21-1.7,0.29,3.03,0.28,2.9c0.17,1.73,0.31,3.46,0.43,5.2c0.28,4.06,0.42,8.13,0.45,12.2
					c0.07,7.55-0.26,15.09-0.78,22.63c-0.54,7.84,7.29,15.35,15,15c8.59-0.38,14.42-6.6,15-15c2.35-34.01,0.11-71.57-19.3-100.85
					c-8.87-13.39-20.83-25.1-35.06-32.7c-15.52-8.28-31.89-11.04-49.23-8.69c-8.04,1.09-12.42,11.39-10.48,18.45
					C737.09,421.31,745.1,424.21,753.16,423.12L753.16,423.12z"/>
			</g>
		</g>
		<g class="st1">
			<g>
				<path class="st2" d="M403.87,411.43c5.21-0.38,10.48-0.39,15.67,0.29c-2.57-0.34,2.2,0.45,2.21,0.45
					c1.28,0.25,2.56,0.55,3.83,0.86c2.54,0.64,5.05,1.39,7.51,2.27c7.85,2.79,16.67,8.35,23.07,14.74c4.22,4.21,5.41,5.71,8.4,10.44
					c1.4,2.21,2.69,4.49,3.86,6.83c-0.02-0.03,1.65,3.45,1.22,2.48c-0.5-1.14,0.88,2.24,1,2.58c4.05,11.09,5.01,18.14,4.13,29.96
					c-0.58,7.84,7.31,15.34,15,15c8.62-0.39,14.38-6.6,15-15c1.98-26.86-8.39-54.45-27.4-73.5c-19.01-19.04-46.68-29.38-73.5-27.4
					c-7.81,0.58-15.38,6.49-15,15C389.22,404.06,395.49,412.05,403.87,411.43L403.87,411.43z"/>
			</g>
		</g>
		<g class="st1">
			<g>
				<path class="st2" d="M560.19,356.46c8.97,6.21,17.93,12.41,26.9,18.62c6.66,4.61,16.65,1.23,20.52-5.38
					c4.36-7.45,1.3-15.9-5.38-20.52c-8.97-6.21-17.93-12.41-26.9-18.62c-6.66-4.61-16.65-1.23-20.52,5.38
					C550.45,343.39,553.51,351.84,560.19,356.46L560.19,356.46z"/>
			</g>
		</g>
		<g class="st1">
			<g>
				<path class="st2" d="M693.85,716.54c-0.56,8.42-1.12,16.85-1.68,25.27c-0.52,7.85,7.27,15.35,15,15c8.57-0.38,14.44-6.6,15-15
					c0.56-8.42,1.12-16.85,1.68-25.27c0.52-7.85-7.27-15.35-15-15C700.27,701.92,694.41,708.13,693.85,716.54L693.85,716.54z"/>
			</g>
		</g>
		<g class="st1">
			<g>
				<path class="st2" d="M710.19,1316.38c14.59,58.97,54.7,108.72,105.13,141.49c56.42,36.65,125.44,49.59,191.89,43.28
					c40.47-3.84,80-13.82,117.61-29.18c7.49-3.06,12.81-9.97,10.48-18.45c-1.95-7.1-10.91-13.56-18.45-10.48
					c-61.75,25.23-130.04,37.12-194.61,25.1c-15.52-2.89-30.84-7.02-45.62-12.56c-1.6-0.6-3.2-1.22-4.79-1.85
					c-0.68-0.27-1.36-0.55-2.04-0.82c-0.05-0.02-2.28-0.95-0.92-0.37c-1.4-0.59-6.17-2.74-8.92-4.05
					c-6.41-3.06-12.7-6.38-18.83-9.96c-5.93-3.45-11.71-7.14-17.35-11.06c-2.81-1.96-5.58-3.97-8.32-6.04
					c-1.36-1.03-0.12-0.08,0.13,0.11c-0.77-0.6-1.54-1.21-2.3-1.82c-1.53-1.22-3.04-2.46-4.54-3.71
					c-10.63-8.91-20.53-18.71-29.49-29.31c-1.25-1.48-2.48-2.98-3.7-4.49c-0.45-0.57-0.91-1.14-1.36-1.71
					c1.48,1.87-0.49-0.65-0.75-1c-2.32-3.09-4.57-6.25-6.73-9.46c-4.31-6.41-8.28-13.04-11.87-19.88
					c-1.79-3.42-3.49-6.88-5.09-10.39c-0.3-0.66-0.59-1.32-0.89-1.98c-1.91-4.19,0.54,1.37-0.48-1.08
					c-0.74-1.78-1.45-3.58-2.13-5.39c-2.84-7.49-5.19-15.14-7.11-22.91c-1.95-7.87-10.79-12.58-18.45-10.48
					C712.67,1300.13,708.24,1308.49,710.19,1316.38L710.19,1316.38z"/>
			</g>
		</g>
		<g class="st1">
			<g>
				<path class="st2" d="M472.23,885.1c-3.93,49.99-7.85,99.97-11.78,149.96c-0.62,7.84,7.34,15.34,15,15c8.65-0.39,14.34-6.6,15-15
					c3.93-49.99,7.85-99.97,11.78-149.96c0.62-7.84-7.34-15.34-15-15C478.58,870.48,472.89,876.7,472.23,885.1L472.23,885.1z"/>
			</g>
		</g>
	</g>
</g>
<g id="Ebene_17">
	<g>
		<g id="Ebene_7_1_">
			<g>
				<path class="st12" d="M957.79,818.35c-11.31,6.64-11.16,25.56,0.26,32.27c-26.46,43.86-13.73,106.44,28.03,137.9
					c13.25,9.98,29.23,17.05,45.89,17.77c30.77,1.32,59.02-19.84,72.37-46.67c5.1-10.25,8.4-21.25,11.68-32.19
					c6.99-23.32,13.97-46.64,20.96-69.96c1.95-6.49,3.91-13.24,2.79-19.95c-2.32-13.98-16.73-22.7-30.12-28.36
					c-32.73-13.85-68.4-20.96-103.95-20.72c-10.15,0.07-20.55,0.79-29.74,4.87s-17.05,12.12-18.23,21.91"/>
				<g>
					<path class="st12" d="M957.48,814.95c-13.11,8.12-17.41,30.04-2.57,39.22c0.06-1.47,0.12-2.94,0.19-4.41
						c-18.82,31.54-19.18,71.68-2.91,104.69c17.52,35.56,58.44,64.96,100.02,53.14c19.19-5.45,35.47-18.32,47-33.9
						c14.27-19.29,19.47-43.53,26.21-66.02c3.73-12.45,7.46-24.9,11.19-37.35c1.84-6.13,3.79-12.24,5.47-18.41
						c1.48-5.46,2.54-11.28,1.5-16.94c-3.72-20.14-27.87-28.9-45.13-35.08c-24.14-8.64-49.56-13.69-75.16-15.08
						c-22.22-1.21-49.12-1.54-63.5,17.81c-3.04,4.09-5.1,8.75-5.82,13.78c-0.29,2.03,1.13,3.16,3.13,2.64
						c2.1-0.56,4.16-2.92,4.46-5.02c3.11-21.74,32.8-21.89,49.93-21.53c24.04,0.52,48,4.46,70.99,11.55
						c10.51,3.24,21.08,6.95,30.93,11.85c7.56,3.76,15.46,8.91,19.74,16.27c5.61,9.64,2.06,19.83-0.88,29.63
						c-3.43,11.46-6.87,22.93-10.3,34.39c-3.48,11.61-6.93,23.22-10.44,34.82c-3.18,10.53-6.47,21.28-11.82,30.98
						c-8.31,15.06-21.41,27.92-37.57,34.92c-37.13,16.09-77.76-7.27-97.44-38.85c-17.7-28.41-22.1-65.05-9.15-95.76
						c1.58-3.74,3.41-7.33,5.5-10.82c0.58-0.98,1.63-3.51,0.19-4.41c-4.8-2.97-7.5-7.83-7.91-13.29c-0.33-4.34,0.79-9.55,4.8-12.03
						c1.77-1.1,3.85-3.27,3.52-5.52C961.33,814.12,959.05,813.98,957.48,814.95L957.48,814.95z"/>
				</g>
			</g>
			<g>
				<g>
					<path class="st12" d="M1007.1,1012.41c3.71,0.71,8.99-7.05,4.91-7.84C1008.3,1003.86,1003.03,1011.63,1007.1,1012.41
						L1007.1,1012.41z"/>
				</g>
			</g>
			<g>
				<g>
					<path class="st12" d="M1000.74,1013.34c1.77,7.15,7.88,12.71,15.68,12.74c8.13,0.03,15.29-5.92,18.17-12.98
						c0.4-0.99,0.68-3.55-1.05-3.74c-8.04-0.88-16.09-1.76-24.13-2.64c-2.28-0.25-4.29,1.21-5.42,3.07
						c-0.63,1.03-1.79,4.52,0.51,4.77c8.04,0.88,16.09,1.76,24.13,2.64c-0.35-1.24-0.7-2.49-1.05-3.74
						c-3.77,9.24-17.27,3.2-19.15-4.38C1007.24,1004.31,999.88,1009.88,1000.74,1013.34L1000.74,1013.34z"/>
				</g>
			</g>
		</g>
		<g id="Ebene_5_1_">
			<g>
				<path class="st13" d="M1141.14,816.61c11.91-63.31,61.7-112.38,111.09-154.88c49.39-42.51,102.82-85.37,126.64-145.3
					c30.12-75.79,3.42-167.4-56.59-225.03c-60-57.63-148.27-82.68-231.79-76.08c-52.06,4.11-103.6,20.03-145.55,49.9
					c-41.95,29.88-83.33,80.12-92.84,130.01c-13.18,69.13,25.68,133.22,55.37,197.8c29.7,64.58,61.26,132.85,52.94,202.74
					c59.54-13.96,124.82-4.3,177.89,26.33"/>
				<g>
					<path class="st13" d="M1144.93,815.42c10.52-54.91,49.95-98.38,90.63-135.15c40.94-37,85.97-70.35,118.95-114.81
						c15.62-21.06,27.9-44.5,34.59-69.78c6.15-23.24,7.48-47.72,4.65-71.63c-5.71-48.16-28-94.58-62.2-130.11
						c-37.01-38.47-87.18-63.71-139.45-75.51c-53.53-12.09-110.22-10.76-162.78,3.84c-26.18,7.27-51.46,18.03-74.23,32.49
						c-22.47,14.27-42.56,32.06-59.73,52.08c-17.43,20.31-32.38,43.31-41.26,68.47c-8.51,24.11-10.31,49.92-6.6,75.21
						c7.68,52.33,35.33,99.68,57.27,147.39c23.32,50.71,47.79,103.07,52.42,158.98c1.1,13.36,0.99,26.75-0.56,40.05
						c-0.24,2.08,1.04,3.12,3.13,2.64c45.79-10.62,94.79-7.14,139.05,9.12c12.58,4.62,24.75,10.28,36.35,16.93
						c3.54,2.03,9.55-5.24,6.31-7.1c-42.03-24.12-91.15-35.54-139.59-32.59c-13.76,0.84-27.41,2.88-40.79,5.99
						c1.04,0.88,2.08,1.76,3.13,2.64c6.35-54.65-11.01-108.28-32.42-158.43c-10.71-25.06-22.28-49.8-34.12-74.39
						c-11.47-23.84-23.05-47.74-31.69-72.69c-8.3-23.95-13.69-49.12-12.54-74.41c1.16-25.55,9.68-49.63,22.78-71.53
						c26.66-44.6,68.49-80.83,117.23-101.25c49.5-20.74,105.47-27.67,159.18-21.46c53.15,6.15,105.4,25.19,147.51,58.09
						c39.3,30.7,67.73,73.25,80.35,120.62c12.59,47.24,8.11,97.38-15.93,140.11c-26.46,47.01-69.7,82.06-110.38,116.97
						c-41.32,35.46-83.18,74.22-105.24,124.45c-5.23,11.92-9.15,24.39-11.59,37.16c-0.39,2.04,1.2,3.14,3.13,2.64
						C1142.65,819.86,1144.53,817.52,1144.93,815.42L1144.93,815.42z"/>
				</g>
			</g>
		</g>
		<g id="Ebene_6">
			<g>
				<path class="st14" d="M1317.63,394.59c-23.2-48.02-71.27-102.69-122.25-122.48c-50.98-19.78-136.26-5.4-184.43,19.26
					c-66.61,34.1-95.5,127.38-85.44,200.36c8.71,63.2,73.69,101,136.16,120.78c62.45,19.79,142.12,25.38,190.04-17.48
					c47.92-42.86,76.02-137.29,65.89-200.3"/>
				<g>
					<path class="st14" d="M1321.26,391.66c-9.79-20.17-22.43-39.03-36.84-56.4c-15.01-18.09-32.21-34.72-51.71-48.22
						c-16.89-11.69-35.53-20.82-55.88-24.8c-20.42-4.01-41.57-4.16-62.2-2.34c-21.77,1.93-43.4,6.1-64.23,12.39
						c-18.36,5.54-36.77,12.64-52.63,23.3c-32.14,21.6-53.4,55.79-65.39,91.5c-6.19,18.45-10.17,37.63-11.79,57.03
						c-1.56,18.64-1.57,38.11,2.25,56.57c7.78,37.54,36.08,66.22,68.68,85.89c34.18,20.63,73.63,34.24,113.07,40.87
						c39.31,6.61,81.64,6.45,118.19-10.11c35.73-16.2,59.01-48.91,74.73-83c16.64-36.08,26.36-76.46,25.98-116.26
						c-0.08-8.52-0.72-17.03-2.05-25.46c-0.76-4.78-8.24,0.73-7.68,4.25c5.78,36.57-0.5,74.98-12.13,109.72
						c-6.08,18.14-13.88,35.79-23.98,52.14c-9.06,14.64-20.02,28.53-33.93,39.11c-30.28,23.03-71.17,27.75-108.64,24.94
						c-38.9-2.92-77.78-13.97-113.02-30.42c-33.43-15.61-66.45-38.5-83.06-71.77c-8.21-16.45-10.82-34.16-11.46-52.2
						c-0.65-18.58,1.04-37.19,4.79-55.36c7.32-35.49,22.77-70.66,49.08-96.62c12.44-12.27,27.36-21.26,43.64-27.96
						c18.6-7.66,38.28-13.11,58.18-16.71c38.65-6.99,82.08-9.01,118.61,8.13c20.13,9.45,38.07,23.25,53.94,38.47
						c16.49,15.81,31.03,33.58,43.29,52.67c5.5,8.56,10.51,17.4,14.94,26.52C1315.83,401.31,1322.88,395.01,1321.26,391.66
						L1321.26,391.66z"/>
				</g>
			</g>
		</g>
		<g id="Ebene_3_1_">
			<g>
				<g>
					<path class="st15" d="M1142.34,828.89c8.45-27.29,21.26-52.9,37.37-76.61c15.75-23.19,34.38-44.39,53.92-64.61
						c20.1-20.79,40.85-40.89,63.37-59.22c21.86-17.79,44.72-35.26,62-57.55c30.43-39.26,42.41-89.87,38.08-138.73
						c-4.36-49.17-24.84-96.89-58.62-134.09c-36.08-39.73-85.25-66.98-137.39-80.9c-53.01-14.15-109.34-14.73-162.41-2.06
						c-53.67,12.82-104.43,39.92-140.4,81c-36.46,41.64-58.12,97.24-52.32,152.62c2.94,28.04,12.92,54.9,24.59,80.62
						c11.72,25.84,24.85,51.03,36.1,77.08c20.73,48.02,35.98,97.53,44.63,148.84c2.4,14.26,4.38,28.58,6.08,42.93
						c0.56,4.76,8.1-0.72,7.68-4.25c-6.2-52.63-17.09-104.49-35.53-154.54c-9.12-24.75-19.66-49.02-31.11-72.86
						c-12.17-25.34-25.17-50.44-34.33-76.99c-9.04-26.22-13.34-53.58-10.32-81.06c2.94-26.8,11.89-52.78,25.53-76.1
						c27.15-46.42,71.77-80.04,122.78-98.94c50.42-18.69,106.22-23.92,159.76-15.65c52.82,8.16,104.11,29.2,145.1,63.25
						c39.01,32.4,66.45,76.04,77.61,124.63c10.64,46.32,7.02,96.65-15.51,138.88c-12.56,23.55-30.91,42.22-51.38,59.42
						c-10.9,9.16-22.14,17.94-33.06,27.09c-10.71,8.97-20.77,18.54-30.75,28.25c-40.22,39.17-78.93,80.94-103.38,131.55
						c-5.99,12.4-11.03,25.23-15.1,38.37C1133.51,835.15,1141.13,832.81,1142.34,828.89L1142.34,828.89z"/>
				</g>
			</g>
			<g>
				<g>
					<path class="st15" d="M954.86,812.92c1.46,5.46,6.53,9.53,11.2,12.46c7.75,4.86,16.51,8.14,25.21,10.92
						c26.83,8.57,55.16,12.79,83.06,16.05c8.59,1.01,17.19,1.88,25.79,2.63c7.95,0.7,16.47,2.21,24.41,1.17
						c6.52-0.85,12.86-3.33,17.24-8.23c4.59-5.13,5.79-12.14,2.79-18.39c-3.19-6.62-9.65-11.72-15.7-15.77
						c-6.86-4.6-14.42-8.17-22.16-11.11c-16.49-6.26-33.96-10.42-51.38-13.16c-19.52-3.08-39.36-4.21-59.07-3.28
						c-9.11,0.42-19.5,0.36-27.98,3.89c-7.57,3.16-14.09,10.34-13.42,18.79c0.18,2.23,2.65,2.05,4.16,1.28
						c1.9-0.97,3.7-3.34,3.52-5.52c-0.56-7.05,8.35-8.49,13.81-9.14c7.94-0.93,15.97-1.36,23.97-1.53
						c16.33-0.35,32.71,0.7,48.88,3.17c15.47,2.37,30.83,5.95,45.68,10.9c13.84,4.61,28.42,10.9,38.43,21.7
						c3.17,3.41,7.89,10.36,3.86,14.68c-3.5,3.76-10.68,4.17-15.51,3.97c-15.66-0.64-31.43-2.52-46.98-4.43
						c-25.42-3.12-51.07-7.15-75.63-14.61c-8.77-2.67-17.74-5.73-25.63-10.43c-4.81-2.86-9.86-6.45-11.31-11.86
						c-0.58-2.17-3.93-0.6-4.92,0.19C955.46,808.62,954.28,810.76,954.86,812.92L954.86,812.92z"/>
				</g>
			</g>
			<g>
				<g>
					<path class="st15" d="M959.35,812.1c-15.41,4.88-21.19,23.68-12.88,36.8c10.39,16.42,31.85,19.69,49.66,22.92
						c21.03,3.81,42.26,6.3,63.52,8.32c10.82,1.02,21.64,1.92,32.47,2.79c8.81,0.71,17.78,1.7,26.45-0.39
						c8.43-2.03,14.6-7.42,18.46-14.87c3.16-6.09,5.59-14.69,1.5-21.01c-2.37-3.66-9.25,2.78-7.26,5.86
						c2.8,4.33,1.64,9.84-0.54,14.15c-2.61,5.14-6.56,7.51-12.36,8.54c-7.53,1.35-15.46,0.31-23.03-0.29
						c-9.13-0.73-18.26-1.48-27.38-2.32c-18.37-1.68-36.73-3.7-54.96-6.59c-8.73-1.38-17.45-2.93-26.09-4.81
						c-8.14-1.77-16.52-4-23.5-8.64c-6.35-4.22-12.04-10.61-13.09-18.24c-0.82-5.92,1.47-12.6,7.69-14.57
						c2.12-0.67,4.16-2.83,4.46-5.02C962.75,812.75,961.38,811.45,959.35,812.1L959.35,812.1z"/>
				</g>
			</g>
			<g>
				<g>
					<path class="st15" d="M947.51,850.8c-3.94,6.1-6.45,13.28-7.73,20.38c-1.22,6.77-0.98,13.37,3.21,19.22
						c11.16,15.59,33.8,15.03,51.07,16.72c20.85,2.05,41.71,4.09,62.56,6.13c10.22,1,20.43,2,30.64,3
						c8.42,0.83,17.47,2.46,25.72-0.02c18.12-5.45,19.06-26.62,16.24-41.88c-0.89-4.79-8.33,0.75-7.68,4.25
						c1.17,6.33,1.82,12.92,0.72,19.28c-1.04,6.06-3.66,10.1-10.19,11.22c-7.42,1.27-15.44-0.26-22.87-0.99
						c-9.36-0.92-18.72-1.83-28.09-2.75c-18.3-1.79-36.6-3.58-54.9-5.37c-9.23-0.91-18.51-1.63-27.71-2.77
						c-8.09-1-16.49-2.7-23.12-7.67c-5.79-4.34-9.19-10.23-8.51-17.35c0.65-6.8,2.83-13.9,6.56-19.68c0.9-1.39,1.57-4.02-0.51-4.77
						C950.85,846.99,948.45,849.35,947.51,850.8L947.51,850.8z"/>
				</g>
			</g>
			<g>
				<g>
					<path class="st15" d="M946.4,886.1c-9.23,8.41-11.64,23.67-8.13,35.26c4.83,15.95,27.21,16.52,41.01,17.73
						c21.65,1.89,43.3,3.78,64.94,5.67c10.72,0.93,21.43,1.88,32.15,2.81c8.71,0.76,17.68,2.08,26.33,0.44
						c8.95-1.7,16.1-6.88,19.37-15.25c3.1-7.93,3.13-17.13,1.13-25.36c-1.15-4.77-8.52,0.79-7.68,4.25c1.54,6.36,2,13.36,0.16,19.69
						c-0.61,2.13-1.53,4.54-3.36,5.96c-2.52,1.95-6.12,2.77-9.26,3.15c-7.75,0.94-15.74-0.22-23.48-0.9
						c-9.22-0.81-18.43-1.61-27.65-2.42c-18.65-1.63-37.29-3.26-55.95-4.89c-8.96-0.78-18.03-1.23-26.93-2.57
						c-7.05-1.06-15.8-2.99-20.71-8.55c-3.53-3.99-4.04-10.33-3.8-15.31c0.21-4.46,1.31-11.4,4.42-14.24
						c1.38-1.26,3.38-3.66,2.34-5.67C950.34,884.01,947.58,885.03,946.4,886.1L946.4,886.1z"/>
				</g>
			</g>
			<g>
				<g>
					<path class="st15" d="M945.73,927.17c-9.83,7.81-9.42,23.93,1.37,30.89c6.6,4.26,14.55,5.55,22.13,7.05c9,1.78,18,3.56,27,5.33
						c18,3.56,36.01,7.11,54.01,10.67c15.45,3.05,32.38,7.98,47.34,1.05c7.05-3.26,12.82-9.18,15.24-16.48
						c2.81-8.45,1.77-17.34-0.66-25.81c-0.62-2.16-3.91-0.61-4.92,0.19c-1.71,1.34-2.95,3.52-2.34,5.67
						c1.81,6.33,2.91,13.57,1.03,19.98c-1.48,5.02-5.22,8.28-10.16,10.11c-13.17,4.87-28.65-0.17-41.88-2.79
						c-14.86-2.94-29.73-5.87-44.59-8.81c-14.69-2.9-29.58-5.33-44.15-8.81c-6.13-1.47-13.92-3.82-17.06-9.71
						c-1.78-3.35-3.28-10.26,0.23-13.05c1.45-1.15,3.34-3.74,2.34-5.67C949.63,925,946.97,926.18,945.73,927.17L945.73,927.17z"/>
				</g>
			</g>
			<g>
				<g>
					<path class="st15" d="M960.78,963.13c1.16,10.87,4.98,21.28,12.79,29.4c6.8,7.06,15.95,11.63,25.23,14.74
						c19.44,6.51,41.06,8.01,60.07-0.24c11.38-4.94,20.48-13.39,25.49-24.54c0.76-1.68,0.27-3.78-1.9-3.83
						c-2.29-0.04-4.3,2.39-5.11,4.19c-7.51,16.7-27.98,22.08-45.31,21.89c-9.04-0.1-17.88-2.01-26.48-4.71
						c-8.44-2.65-16.62-6.36-23.24-12.24c-8.54-7.59-12.71-17.93-13.88-28.91C967.96,954.13,960.41,959.61,960.78,963.13
						L960.78,963.13z"/>
				</g>
			</g>
			<g>
				<path class="st16" d="M1000.03,1004.2c-2.29,7.59,4.74,20.37,14.98,21.21c8.14,0.67,21.1-5.63,23.61-13.79"/>
				<g>
					<path class="st15" d="M996.23,1005.39c-2.68,10.21,5.74,22.98,16.75,23.98c11.44,1.04,25.48-7.36,29.15-17.93
						c0.59-1.7,0.38-3.78-1.9-3.83c-2.16-0.04-4.48,2.36-5.11,4.19c-2.28,6.6-13.02,10.93-19.73,9.34
						c-7.36-1.74-13.45-10.95-11.56-18.13c0.54-2.05-1.3-3.12-3.13-2.64C998.4,1000.98,996.79,1003.28,996.23,1005.39
						L996.23,1005.39z"/>
				</g>
			</g>
		</g>
		<g id="Ebene_8_1_">
			<g class="st17">
				<path class="st18" d="M974.03,793.3c-8.43,0.04-12.34,11.52-8.2,18.71c4.14,7.2,12.68,10.68,20.66,13.41
					c34.11,11.66,69.77,18.89,105.73,21.47c16.98,1.22,35.32,1.03,49.1-8.52c-57.65-1.75-126.01-3.41-166.29-42.58"/>
				<g>
					<path class="st18" d="M975.64,789.3c-11.47,0.5-18.02,14.3-14.2,24.04c2.27,5.81,7.94,9.67,13.42,12.35
						c7.04,3.45,14.85,5.62,22.34,7.91c32.14,9.8,65.86,16.16,99.45,17.66c15.54,0.7,31.93-0.66,44.99-9.49
						c1.75-1.18,6.27-7.26,1.29-7.41c-44.8-1.36-93.02-1.67-134.36-21.29c-11.2-5.32-21.51-12.29-30.38-20.83
						c-2.78-2.68-9.21,4.32-6.31,7.1c33.48,32.25,83.53,38.83,128.19,41.46c13.21,0.78,26.43,1.17,39.65,1.57
						c0.43-2.47,0.86-4.94,1.29-7.41c-9.98,6.75-22.04,8.43-34.02,8.44c-14.11,0.02-28.35-1.66-42.31-3.68
						c-14.74-2.13-29.36-5.05-43.78-8.72c-7.31-1.87-14.58-3.92-21.78-6.18c-6.35-1.99-12.88-3.89-18.89-6.76
						c-5.15-2.46-11.05-6.63-12.03-12.52c-0.56-3.39,0.01-8.05,4.24-8.23C976.03,797.16,980.56,789.09,975.64,789.3L975.64,789.3z"
						/>
				</g>
			</g>
			<g class="st17">
				<path class="st18" d="M956.28,822.66c-7.88,5.59-6.42,18.33,0.41,25.25c6.83,6.91,16.96,9.46,26.55,11.55
					c40.55,8.81,81.74,14.77,123.1,17.81c10.63,0.78,23.84-0.02,28.22-9.42c-29.04,4.11-156.48,0.81-177.58-47.49"/>
				<g>
					<path class="st18" d="M954.99,819.92c-10.12,7.69-10.14,22.6-1.45,31.55c5.01,5.14,12.14,8.02,18.99,9.93
						c8.07,2.25,16.39,3.75,24.61,5.38c34.7,6.85,69.81,11.63,105.06,14.32c13.78,1.06,29.11,0.11,35.89-13.42
						c0.71-1.42,0.33-4.14-1.9-3.83c-8.71,1.21-17.64,1.31-26.43,1.28c-13.23-0.03-26.47-0.74-39.65-2.02
						c-27.91-2.72-57.6-7.58-82.73-20.54c-11.04-5.69-21.66-13.72-26.74-25.13c-1.7-3.8-8.78,2.45-7.26,5.86
						c10.17,22.84,38.85,33.06,61.61,39.03c27.99,7.35,57.37,10.28,86.23,10.77c10.55,0.18,21.31,0.23,31.76-1.23
						c-0.63-1.27-1.26-2.55-1.9-3.83c-1.73,3.46-6.8,4.55-10.35,5.03c-5.51,0.75-11.07,0.34-16.61-0.09
						c-15.49-1.21-30.96-2.84-46.37-4.87c-15.06-1.99-30.06-4.37-45-7.13c-7.57-1.4-15.13-2.9-22.66-4.49
						c-6.46-1.37-13.04-2.65-19.2-5.1c-6.07-2.41-11.88-6.26-14.54-12.29c-1.84-4.15-2.9-10.57,1.22-13.69
						c1.47-1.11,3.32-3.76,2.34-5.67C958.88,817.74,956.25,818.96,954.99,819.92L954.99,819.92z"/>
				</g>
			</g>
			<g class="st17">
				<path class="st18" d="M951.17,859.15c-9.74,4.7-8.65,19.84-0.59,27.1c8.06,7.26,19.75,8.76,30.62,9.92
					c37.49,3.98,74.98,7.95,112.46,11.93c11.24,1.19,24.95,1.31,30.9-7.96c-48.26-0.7-157.56-1.22-170.74-45.38"/>
				<g>
					<path class="st18" d="M950.85,855.74c-10.65,5.55-13.31,19.29-7.34,29.22c7.52,12.51,24.59,13.98,37.78,15.38
						c35.99,3.82,72,7.63,107.99,11.45c14.01,1.48,29.61,1.87,38.25-10.82c1.14-1.68,1.49-4.82-1.36-4.86
						c-24.75-0.36-49.51-0.82-74.17-3.26c-13.53-1.33-27.05-3.26-40.31-6.34c-11.47-2.66-23.14-6.12-33.44-11.89
						c-9.35-5.24-17.63-12.51-20.8-22.81c-1.16-3.77-8.36,2.3-7.26,5.86c6.38,20.72,31.04,30.01,50.4,35.15
						c26.92,7.15,55.19,9.25,82.91,10.39c13.15,0.54,26.3,0.73,39.45,0.92c-0.45-1.62-0.91-3.24-1.36-4.86
						c-2.43,3.56-7.32,4.66-11.44,5.1c-5.74,0.62-11.51,0.06-17.23-0.55c-15.33-1.62-30.67-3.25-46.01-4.88
						c-15.55-1.65-31.1-3.3-46.65-4.95c-7.3-0.78-14.63-1.44-21.92-2.37c-6.26-0.8-12.72-1.94-18.43-4.75
						c-5.43-2.66-9.77-6.96-11.3-12.78c-1.02-3.9-1.23-9.42,2.87-11.56c1.82-0.95,3.83-3.37,3.52-5.52
						C954.69,854.81,952.46,854.91,950.85,855.74L950.85,855.74z"/>
				</g>
			</g>
			<g class="st17">
				<path class="st18" d="M947.49,897.8c-6.27,6.03-5.2,16.92,0.61,23.49c5.81,6.57,15.02,9.41,23.87,9.98
					c8.85,0.57,17.68-0.8,26.54-1.09c20.41-0.68,40.56,4.33,60.81,7.16c20.24,2.84,41.84,3.32,59.94-5.68
					c-38.42-0.09-140.16,1.52-171.68-34.65"/>
				<g>
					<path class="st18" d="M945.27,895.94c-8.39,8.61-7.46,22.58,1.44,30.7c10.35,9.45,25.62,9.27,38.72,8.3
						c7.7-0.57,15.33-1.02,23.06-0.56c8.08,0.47,16.09,1.65,24.08,2.95c14.32,2.35,28.62,5.15,43.15,5.75
						c15.14,0.62,30.25-1.38,43.84-8c2.08-1.01,6.03-7.4,1.29-7.41c-21.88-0.05-43.75-0.12-65.6-1.65
						c-25.25-1.77-51.31-4.89-75.12-13.91c-10.96-4.15-21.64-9.85-29.41-18.64c-2.48-2.8-8.99,4.06-6.31,7.1
						c14.92,16.89,39.92,23.57,61.39,27.73c25.7,4.98,52.04,6.56,78.14,7.13c11.23,0.24,22.46,0.22,33.69,0.25
						c0.43-2.47,0.86-4.94,1.29-7.41c-22.89,11.15-49.92,6.56-74.16,2.44c-13.55-2.3-27.21-4.61-40.99-4.59
						c-13.08,0.01-26.65,3.32-39.51-0.51c-6.02-1.79-12.03-5.24-15.03-10.84c-2.47-4.6-3.45-11.07,0.47-15.09
						c1.15-1.18,2.58-4.04,0.94-5.42C948.93,892.81,946.39,894.79,945.27,895.94L945.27,895.94z"/>
				</g>
			</g>
			<g class="st17">
				<path class="st18" d="M948.46,930.14c-5.11,6.73-1.58,17.01,5.21,22.3c6.79,5.29,15.74,6.87,24.29,8.27
					c30.06,4.95,60.12,9.89,90.19,14.84c14.39,2.37,31.27,4.01,41.39-6.07c-55.58,2.28-118.11-5.87-162.5-39.56"/>
				<g>
					<path class="st18" d="M945.49,929.28c-6.51,9.27-2.52,21.83,6.77,27.95c5.36,3.53,11.61,5.27,17.88,6.46
						c7.26,1.38,14.59,2.45,21.88,3.65c15.03,2.48,30.06,4.95,45.09,7.42c13.52,2.22,27.11,5.12,40.77,6.28
						c12.57,1.07,24.67-0.88,33.86-9.7c1.46-1.4,2.94-6.02-0.61-5.87c-43.57,1.74-89.05-2.44-129.27-20.46
						c-11.25-5.04-21.89-11.26-31.68-18.65c-3.2-2.41-9.44,4.75-6.31,7.1c35.84,27,81.55,37.36,125.82,39.81
						c12.74,0.7,25.5,0.72,38.23,0.21c-0.2-1.96-0.4-3.92-0.61-5.87c-6.34,6.1-16.97,6.11-25.3,5.49
						c-11.91-0.89-23.78-3.51-35.55-5.44c-13.34-2.19-26.68-4.39-40.01-6.59c-6.78-1.12-13.55-2.23-20.33-3.35
						c-5.84-0.96-11.76-1.74-17.47-3.32c-5.94-1.65-12.04-4.34-15.62-9.48c-2.79-3.99-4.58-9.7-1.6-13.94
						c0.96-1.36,1.53-4.04-0.51-4.77C948.79,925.45,946.49,927.85,945.49,929.28L945.49,929.28z"/>
				</g>
			</g>
			<g class="st17">
				<path class="st18" d="M966.08,964.83c8.84,17.08,24.94,30.54,43.62,36.45c18.68,5.91,39.69,4.2,56.94-4.62
					c-34.33-1.06-68.34-13.27-95.31-34.24"/>
				<g>
					<path class="st18" d="M962.45,967.76c9.09,17.25,24.95,30.86,43.84,37.13c20,6.64,42.17,4.47,60.68-4.82
						c2.13-1.07,6.02-7.25,1.29-7.41c-33.9-1.17-67.07-13.19-93.76-33.78c-3.16-2.44-9.41,4.71-6.31,7.1
						c27.63,21.32,61.8,33.49,96.86,34.7c0.43-2.47,0.86-4.94,1.29-7.41c-17.12,8.6-37.81,9.82-56.09,3.47
						c-17.44-6.06-32.09-18.81-40.52-34.81C967.73,958.14,960.72,964.48,962.45,967.76L962.45,967.76z"/>
				</g>
			</g>
			<g class="st17">
				<path class="st18" d="M1001.95,1005.27c0.21,6.5,4.26,12.8,10.2,15.86c5.94,3.06,13.53,2.74,19.11-0.79
					c-10.33-2.84-19.48-9.69-24.96-18.69"/>
				<g>
					<path class="st18" d="M998.11,1007.39c0.42,7.24,4.57,14.02,11.23,17.47c7.05,3.65,15.6,2.83,22.24-1.13
						c1.65-0.98,5.93-6.23,2.14-7.32c-9.89-2.85-18.39-9.09-23.79-17.7c-2.31-3.68-9.22,2.75-7.26,5.86
						c5.97,9.51,15.16,16.51,26.14,19.68c0.71-2.44,1.43-4.88,2.14-7.32c-10.88,6.48-24.45-1.85-25.15-13.79
						c-0.13-2.24-2.68-2.04-4.16-1.28C999.71,1002.86,997.98,1005.19,998.11,1007.39L998.11,1007.39z"/>
				</g>
			</g>
		</g>
		<g id="Ebene_4_1_">
			<g>
				<g>
					<path class="st15" d="M975.54,794.79c33.61-31.6,66.6-63.84,98.19-97.36c31.68-33.62,61.99-68.52,89.89-105.21
						c27.56-36.25,53.51-74.24,74.59-114.49c10.55-20.17,19.95-42.92,17.22-66.15c-2.05-17.54-12.04-35.7-28.19-44.69
						c-16.95-9.44-36.37-5.93-51.45,4.86c-17.79,12.74-26.42,33.43-30.01,54.1c-0.98,5.66-1.62,11.37-2.11,17.09
						c-0.46,5.36,6.38,1.55,7.3-1.37c6.37-20.26,13.14-41.96,7.53-63.28c-4.57-17.38-17.46-32.77-36.56-35.22
						c-19.03-2.44-37.83,6.36-51.07,19c-14.33,13.68-23.3,31.7-27.82,50.64c-10.12,42.37,3.28,86.19,13.86,127.41
						c11.27,43.93,23.43,87.64,34.63,131.59c11.15,43.74,21.48,87.73,28.75,132.21c0.88,5.39,1.71,10.77,2.5,16.17
						c0.7,4.77,8.19-0.73,7.68-4.25c-6.15-42.35-15.37-84.25-25.61-125.87c-10.33-41.97-21.77-83.69-32.82-125.49
						c-5.42-20.51-10.8-41.04-15.76-61.65c-5.04-20.94-9.26-42.26-9.1-63.8c0.25-34.31,14.96-76.67,52.59-86.73
						c8.48-2.27,17.65-2.34,26,0.72c8.26,3.02,14.97,9.15,19.41,16.5c10.52,17.39,8.49,37.74,3.57,56.34
						c-1.43,5.4-3.11,10.74-4.79,16.07c2.43-0.46,4.87-0.91,7.3-1.37c1.72-20.24,5.42-42.31,20.28-57.54
						c12-12.3,30.46-17.72,46.88-10.27c16.13,7.31,26.57,24.66,29.06,41.27c3.27,21.84-5.55,43.56-15.52,62.52
						c-20.13,38.27-44.59,74.61-70.71,109.2c-26.26,34.78-54.71,67.95-84.46,99.93c-29.65,31.88-60.6,62.61-92.24,92.64
						c-3.87,3.67-7.75,7.34-11.63,10.99c-1.36,1.28-3.39,3.65-2.34,5.67C971.59,796.87,974.37,795.89,975.54,794.79L975.54,794.79z"
						/>
				</g>
			</g>
			<g>
				<g>
					<path class="st15" d="M1298.83,337.14c26.07,29.95,38.25,70.55,32.64,109.14c-0.3,2.03,1.13,3.16,3.13,2.64
						c2.11-0.56,4.16-2.93,4.46-5.02c5.87-40.42-6.61-82.47-33.92-113.86C1302.71,327.23,1296.17,334.08,1298.83,337.14
						L1298.83,337.14z"/>
				</g>
			</g>
			<g>
				<g>
					<path class="st15" d="M906.43,415.35c-9.51,34.1-7.65,71.03,4.86,104.42c3.57,9.54,8.04,18.74,13.32,27.52
						c2.23,3.71,9.16-2.7,7.26-5.86c-18.04-30-26.31-65.28-23.16-99.72c0.89-9.73,2.68-19.34,5.3-28.74
						c0.57-2.05-1.33-3.12-3.13-2.64C908.57,410.94,907.02,413.24,906.43,415.35L906.43,415.35z"/>
				</g>
			</g>
		</g>
	</g>
	<g>
		<g>
			<path class="st3" d="M1261.54,760.62c5.65,11.31,11.31,22.62,16.96,33.93c4.69,9.38,18.69,12.76,27.36,7.17
				c9.59-6.18,12.19-17.33,7.18-27.36c-5.65-11.31-11.31-22.62-16.96-33.93c-4.69-9.38-18.69-12.76-27.36-7.18
				C1259.13,739.44,1256.53,750.59,1261.54,760.62L1261.54,760.62z"/>
		</g>
	</g>
	<g>
		<g>
			<path class="st3" d="M1382.71,656.42c6.46,9.69,12.92,19.39,19.39,29.08c5.79,8.69,17.91,13.27,27.36,7.18
				c8.67-5.59,13.38-18.05,7.18-27.36c-6.46-9.69-12.92-19.39-19.39-29.08c-5.79-8.69-17.91-13.27-27.36-7.17
				C1381.22,634.64,1376.5,647.11,1382.71,656.42L1382.71,656.42z"/>
		</g>
	</g>
	<g>
		<g>
			<path class="st3" d="M1448.06,505.19c12.14,2.31,24.28,4.61,36.42,6.92c10.24,1.95,22.07-2.85,24.6-13.97
				c2.25-9.86-2.98-22.51-13.97-24.6c-12.14-2.31-24.28-4.61-36.42-6.92c-10.24-1.95-22.07,2.85-24.6,13.97
				C1431.85,490.44,1437.07,503.1,1448.06,505.19L1448.06,505.19z"/>
		</g>
	</g>
	<g>
		<g>
			<path class="st3" d="M1427.03,336.45c12.12-7.27,24.23-14.54,36.35-21.81c8.97-5.38,13.07-18.21,7.18-27.36
				c-5.81-9.02-17.76-12.93-27.36-7.18c-12.12,7.27-24.23,14.54-36.35,21.81c-8.97,5.38-13.07,18.21-7.18,27.36
				C1405.48,338.29,1417.43,342.21,1427.03,336.45L1427.03,336.45z"/>
		</g>
	</g>
	<g>
		<g>
			<path class="st3" d="M1293.25,198.49c2.42-11.31,4.85-22.62,7.27-33.93c2.19-10.2-3.02-22.11-13.97-24.6
				c-10.06-2.29-22.26,3.03-24.6,13.97c-2.42,11.31-4.85,22.62-7.27,33.93c-2.19,10.2,3.02,22.11,13.97,24.6
				C1278.71,214.75,1290.91,209.43,1293.25,198.49L1293.25,198.49z"/>
		</g>
	</g>
	<g>
		<g>
			<path class="st3" d="M1107.37,144.71c0.81-11.31,1.62-22.62,2.42-33.93c0.75-10.46-9.73-20.46-20-20c-11.47,0.51-19.2,8.8-20,20
				c-0.81,11.31-1.62,22.62-2.42,33.93c-0.75,10.46,9.73,20.46,20,20C1098.85,164.19,1106.57,155.91,1107.37,144.71L1107.37,144.71z
				"/>
		</g>
	</g>
	<g>
		<g>
			<path class="st3" d="M937.03,183.01c-2.42-8.08-4.85-16.16-7.27-24.23c-3-10.01-14.16-17.35-24.6-13.97
				c-10.12,3.28-17.19,13.87-13.97,24.6c2.42,8.08,4.85,16.16,7.27,24.23c3,10.01,14.16,17.35,24.6,13.97
				C933.18,204.33,940.25,193.74,937.03,183.01L937.03,183.01z"/>
		</g>
	</g>
	<g>
		<g>
			<path class="st3" d="M821.28,273.24c-10.5-3.23-21-6.46-31.5-9.69c-10-3.08-22.25,3.65-24.6,13.97
				c-2.47,10.83,3.26,21.31,13.97,24.6c10.5,3.23,21,6.46,31.5,9.69c10,3.08,22.25-3.65,24.6-13.97
				C837.72,287.01,831.99,276.53,821.28,273.24L821.28,273.24z"/>
		</g>
	</g>
	<g>
		<g>
			<path class="st3" d="M855.21,706.8c6.46-2.42,12.92-4.85,19.39-7.27c4.99-1.87,9.18-4.45,11.95-9.19
				c2.51-4.29,3.57-10.6,2.02-15.41c-3.09-9.55-14.11-17.9-24.6-13.97c-6.46,2.42-12.92,4.85-19.39,7.27
				c-4.99,1.87-9.18,4.45-11.95,9.19c-2.51,4.29-3.57,10.61-2.02,15.41C833.7,702.39,844.72,710.74,855.21,706.8L855.21,706.8z"/>
		</g>
	</g>
</g>
</svg>
