<?xml version="1.0" encoding="utf-8"?>
<!-- Generator: Adobe Adobe Illustrator 24.2.0, SVG Export Plug-In . SVG Version: 6.00 Build 0)  -->
<svg version="1.1" xmlns="http://www.w3.org/2000/svg" xmlns:xlink="http://www.w3.org/1999/xlink" x="0px" y="0px"
	 viewBox="0 0 1700.79 1700.79" style="enable-background:new 0 0 1700.79 1700.79;" xml:space="preserve">
<style type="text/css">
	.st0{fill:#99C154;}
	.st1{opacity:0.149;}
	.st2{fill:#FFFFFF;}
	.st3{fill:#F2C059;}
	.st4{fill:#CB5B7A;stroke:#CC5C7B;stroke-miterlimit:10;}
	.st5{stroke:#000000;stroke-miterlimit:10;}
	.st6{fill:#FFFFFF;stroke:#FFFFFF;stroke-miterlimit:10;}
	.st7{fill:#FFFFFF;stroke:#FFFFFF;stroke-width:0.9508;stroke-miterlimit:10;}
	.st8{fill:none;stroke:#000000;stroke-width:17.2352;stroke-miterlimit:10;}
	.st9{opacity:0.4706;fill:#D3E1EC;stroke:#000000;stroke-width:17.2352;stroke-miterlimit:10;}
	.st10{opacity:0.6392;fill:#D3E1EC;stroke:#000000;stroke-width:17.2352;stroke-miterlimit:10;}
	.st11{fill:#99C154;stroke:#000000;stroke-width:11.21;stroke-miterlimit:10;}
	.st12{fill:#C8354F;}
	.st13{fill:#C93550;}
	.st14{opacity:0.0314;}
</style>
<g id="Ebene_1">
</g>
<g id="Ebene_4">
</g>
<g id="Ebene_11">
</g>
<g id="Ebene_9">
</g>
<g id="Ebene_8">
</g>
<g id="Ebene_3">
</g>
<g id="Ebene_16">
</g>
<g id="Ebene_7">
</g>
<g id="Ebene_10">
</g>
<g id="Ebene_5">
</g>
<g id="Ebene_5_Kopie">
</g>
<g id="Ebene_12">
</g>
<g id="Ebene_14">
</g>
<g id="Ebene_15">
</g>
<g id="Ebene_13">
	<g>
		<path class="st0" d="M737.48,1007.75c7.07-163.83,14.11-328.58-6.31-491.29c-6.86-54.66-18.1-111.79-53.89-153.67
			c-56.51-66.12-163.24-72.99-238.71-29.75S316.84,458.94,297.85,543.82c-19,84.88-14.18,173.04-9.26,259.88
			c8.61,151.94,17.21,303.88,25.82,455.83c4.66,82.23,11.17,169.76,60.55,235.68c52.87,70.58,143.73,100.84,230.61,115.98
			c122.09,21.27,248,20.43,369.79-2.48c105.6-19.86,215.68-62.03,273.71-152.47c11.73-18.28,21.13-41.38,12.31-61.22
			c-14.24-32.04-60.08-29.38-94.06-20.73c-57.67,14.68-115.32,31.45-174.7,35.33c-59.38,3.87-121.82-6.37-170.02-41.27
			c-54.19-39.23-84-105.22-93.78-171.4c-9.78-66.18-1.84-133.55,6.1-199.97"/>
		<g>
			<path d="M744.98,1007.75c6.63-153.6,13.27-307.97-2.84-461.23c-6.67-63.48-14.59-132.53-55.63-184.26
				c-33.72-42.51-87.52-63.34-140.85-64c-56.95-0.7-110.71,21.13-153.03,58.82c-44.23,39.38-74.34,92.91-92.28,148.88
				c-22.05,68.79-25.17,142.23-23.18,213.92c2.12,76.36,7.82,152.7,12.14,228.97c4.42,78.09,8.85,156.19,13.27,234.28
				c3.85,67.97,4.32,137.57,18.53,204.4c12.96,60.93,41.13,116.94,90.87,155.84c47.07,36.81,104.9,56.99,162.75,69.45
				c70.25,15.12,142.8,21.6,214.6,21.2c72.51-0.4,145.61-7.89,216.36-23.95c56.98-12.94,113.64-32.63,162.89-64.6
				c24.21-15.72,46.65-34.48,65.4-56.48c18.78-22.04,41.19-51.42,38.07-82.14c-2.78-27.39-25.69-42.06-51.12-45.05
				c-28.58-3.36-56.76,5.52-84.07,12.6c-69.02,17.89-140.88,36.09-212.62,25.38c-31.46-4.7-62.24-14.67-89.12-31.93
				c-25.78-16.56-46.68-39.69-62.35-65.89c-35.07-58.61-43.11-127.79-40.52-194.88c1.42-36.85,5.78-73.51,10.16-110.1
				c1.14-9.56-13.87-9.48-15,0c-8.65,72.36-17.37,146.42-2.94,218.65c11.48,57.44,38.64,114.62,84.94,152
				c49.4,39.89,114.57,52.84,176.82,49.84c35.34-1.7,70.31-8.15,104.71-16.15c18.29-4.26,36.48-8.98,54.66-13.69
				c14.27-3.7,28.54-7.92,43.15-10.06c20.03-2.94,48.99-4.01,62.38,14.54c18.53,25.67-6.83,60.4-22.93,80.45
				c-35.51,44.23-84.9,74.99-137.13,95.8c-57.87,23.06-119.74,35.5-181.4,43.03c-72.51,8.85-145.94,10.02-218.69,3.53
				c-63.47-5.66-128.14-15.77-188-38.41c-54.77-20.73-105.2-54.49-135.32-105.83c-31.69-54.02-39.52-118.21-43.79-179.58
				c-5.1-73.26-8.47-146.68-12.63-220c-4.28-75.55-8.56-151.09-12.84-226.64c-4.15-73.33-10.08-147.12-4.58-220.53
				c4.74-63.41,19.16-126.54,50.66-182.26c27.51-48.66,68.8-92.65,121.57-113.64c47.92-19.06,104.68-20.78,152.24,0.44
				c24.39,10.88,45.82,27.64,61.37,49.45c17.83,25.02,28.12,54.26,34.84,84.02c7.39,32.72,10.97,66.29,14.15,99.64
				c3.6,37.62,5.86,75.36,7.14,113.13c2.53,74.84,1.18,149.75-1.43,224.57c-1.26,36.17-2.82,72.33-4.38,108.48
				C729.56,1017.4,744.56,1017.38,744.98,1007.75L744.98,1007.75z"/>
		</g>
	</g>
	<g>
		<g>
			<path d="M1030.64,1418.2c6.18,34.81-4.27,72-27.49,98.61c-6.32,7.24,4.24,17.9,10.61,10.61c27.02-30.96,38.53-72.78,31.35-113.21
				C1043.42,1404.72,1028.97,1408.74,1030.64,1418.2L1030.64,1418.2z"/>
		</g>
	</g>
	<g>
		<g>
			<path d="M1129.87,1442.19c6.16,40.78-4.46,83.02-28.1,116.64c-5.56,7.91,7.44,15.42,12.95,7.57
				c26.1-37.12,36.37-83.47,29.61-128.2c-0.6-4-5.66-6.24-9.23-5.24C1130.82,1434.16,1129.26,1438.15,1129.87,1442.19
				L1129.87,1442.19z"/>
		</g>
	</g>
	<g>
		<g>
			<path d="M779.81,1631.8c20.95-16.83,38.23-38.6,52.43-61.29c14.16-22.64,26-47.81,29.31-74.54c0.5-4.03-3.8-7.5-7.5-7.5
				c-4.47,0-7,3.46-7.5,7.5c-3.02,24.4-15.11,47.81-28.1,68.29c-13.42,21.17-29.64,41.18-49.25,56.93c-3.18,2.56-2.61,7.93,0,10.61
				C772.29,1634.95,776.67,1634.32,779.81,1631.8L779.81,1631.8z"/>
		</g>
	</g>
	<g>
		<g>
			<path d="M802.84,1369.54c-24.76,56.33-74.8,99.71-134.3,115.65c-9.31,2.5-5.36,16.97,3.99,14.46
				c49.08-13.15,92.4-43.88,121.95-85.1c8.39-11.71,15.51-24.26,21.31-37.44c1.64-3.74,1.06-8.01-2.69-10.26
				C809.94,1364.96,804.47,1365.84,802.84,1369.54L802.84,1369.54z"/>
		</g>
	</g>
	<g>
		<g>
			<path d="M351.41,1467.3c35.43,5.15,71.41,5.68,107.06,2.54c37.06-3.27,74.06-10.17,109.26-22.35
				c18.4-6.37,36.38-14.19,53.21-24.01c8.33-4.86,0.79-17.83-7.57-12.95c-29.57,17.24-62.47,28.09-95.8,35.35
				c-34.72,7.57-70.34,11.12-105.87,10.91c-18.81-0.11-37.68-1.24-56.3-3.95c-4.04-0.59-8.01,1-9.23,5.24
				C345.16,1461.59,347.4,1466.72,351.41,1467.3L351.41,1467.3z"/>
		</g>
	</g>
	<g>
		<g>
			<path d="M529.35,1350.88c63.3,16.33,133.36,10.29,194.93-10.41c17.2-5.78,34-12.92,49.94-21.6c8.48-4.62,0.92-17.58-7.57-12.95
				c-54.89,29.9-120.67,42.22-182.8,38.36c-17.06-1.06-33.96-3.59-50.51-7.86C523.98,1334,519.99,1348.47,529.35,1350.88
				L529.35,1350.88z"/>
		</g>
	</g>
	<g>
		<g>
			<path d="M290.25,703.98c38.27,28.15,86.71,39.64,133.6,33.13c4-0.56,6.23-5.69,5.24-9.23c-1.21-4.32-5.18-5.8-9.23-5.24
				c-42.94,5.97-87.25-6.03-122.04-31.61c-3.29-2.42-8.34-0.52-10.26,2.69C285.29,697.5,287.01,701.59,290.25,703.98L290.25,703.98z
				"/>
		</g>
	</g>
	<g class="st1">
		<path d="M481.57,322.52c-69.94,147.52-97.56,312.42-99.66,475.67c-2.1,163.25,20.49,325.77,46.91,486.88
			c9.55,58.24,20.39,118.39,53.51,167.24c47.59,70.18,132.97,104.74,216.08,121.55c178.63,36.12,370.33,0.29,529.22-88.97
			c-43.67,49.66-105.36,87.11-169,105.07s-130.13,23.07-196.16,26.63c-93.61,5.05-188.91,7.59-279.68-15.79
			c-253.75-65.36-309.98-170.87-298.62-881.42c1.24-77.67,26.81-157.2,50.69-231.12c23.88-73.92,73.96-143.34,146.42-171.36"/>
		<g>
			<path d="M475.09,318.73c-56.64,119.88-85.91,250.63-96.3,382.4c-11.09,140.63-0.49,281.99,18.04,421.52
				c9.14,68.79,18.82,137.9,32.06,206.04c11.49,59.11,30.98,117.14,74.43,160.65c39.43,39.48,91.5,64.04,144.44,79.72
				c57.88,17.14,118.84,25.06,179.11,26.08c125.23,2.12,250.55-27.26,363-82.03c14.06-6.85,27.91-14.12,41.55-21.76
				c-3.03-3.93-6.06-7.85-9.09-11.78c-31.71,35.81-71.14,64.15-114.49,84.22c-47.41,21.95-99.71,31.99-151.32,37.94
				c-54.49,6.29-109.65,8.93-164.47,10.29c-54.73,1.36-109.89,0.04-163.95-9.24c-45.32-7.78-91.34-20.57-133.79-38.52
				c-27.4-11.58-56.74-28.49-78.97-48.34c-24.72-22.08-42.79-47.35-57.65-77.19c-18.24-36.62-29.75-77.4-38.15-117.98
				c-11.67-56.36-17.56-113.83-21.56-171.19c-5.5-78.82-7.15-157.89-7.58-236.88c-0.26-48.44,0.01-96.89,0.59-145.32
				c0.32-26.82-0.03-53.79,2.54-80.52c2.6-27,7.76-53.71,14.14-80.05c6.49-26.8,14.32-53.25,22.58-79.55
				c7.18-22.86,13.89-46.09,23.58-68.05c17.41-39.44,42.44-75.93,75.89-103.45c16.04-13.19,34.21-24.04,53.54-31.63
				c8.89-3.49,5.02-18-3.99-14.46c-41.16,16.15-75.33,44.5-101.92,79.55c-13.42,17.68-24.74,36.92-34.05,57.06
				c-10.12,21.87-17.28,44.74-24.57,67.67c-16.84,52.99-32.39,106.7-39.03,162.05c-3.22,26.83-3.23,53.77-3.58,80.75
				c-0.34,26.01-0.58,52.01-0.72,78.02c-0.44,86.97,0.2,174.02,4.41,260.9c3.11,64.16,8.05,128.43,18.41,191.87
				c7.38,45.21,17.55,90.46,34.92,132.98c13.47,32.96,31.28,64.08,55.57,90.3c22.09,23.85,49.03,42.76,78.06,57.21
				c32.8,16.34,67.9,27.67,103.21,37.15c102.02,27.4,207.8,24.08,312.3,17.77c55.86-3.37,112.02-8.62,166.37-22.56
				c47.75-12.24,93.02-33.28,132.53-62.86c18.78-14.06,36.19-29.79,51.75-47.36c5.54-6.26-1.41-16.08-9.09-11.78
				c-107.22,60.03-228.34,95.66-351.22,101.11c-60.62,2.69-121.67-1.85-181-14.74c-53.15-11.55-106.04-30.08-150.26-62.47
				c-21.78-15.95-41.02-35.65-55.6-58.41c-16.36-25.52-26.85-54.1-34.41-83.33c-7.78-30.07-12.61-60.8-17.59-91.43
				c-5.69-35.04-11.17-70.12-16.23-105.26c-19.77-137.41-33.04-276.48-26.7-415.42c5.89-129.15,28.96-258.48,77.95-378.55
				c6.01-14.72,12.45-29.25,19.24-43.62C492.14,317.62,479.22,310,475.09,318.73L475.09,318.73z"/>
		</g>
	</g>
	<g>
		<path class="st2" d="M198.34,723.7c-8.85,6.26-8.17,20.5-1.47,29.02c6.7,8.53,17.34,12.76,27.47,16.63
			c68.88,26.29,137.76,52.59,206.64,78.88c42.98,16.41,87.11,33.04,133.11,33.29c44.5,0.24,87.47-14.88,129.39-29.81
			c44.84-15.97,89.67-31.93,134.51-47.9c14.12-5.03,28.7-10.34,39.49-20.75c10.79-10.41,16.72-27.43,9.89-40.77
			c-94.21,20.76-186.63,49.64-275.9,86.21c-27.15,11.12-76.9,39.22-76.9,39.22s-45.26-27.57-63.07-35.19
			c-88.14-37.71-176.27-75.43-264.41-113.14"/>
		<g>
			<path class="st2" d="M193.04,718.39c-8.19,6.33-10.15,17.61-7.77,27.23c2.71,10.93,11.32,18.86,20.95,24.01
				c11.53,6.17,24.42,10.12,36.61,14.77c13.65,5.21,27.3,10.42,40.96,15.63c54.22,20.7,108.32,41.76,162.69,62.05
				c25.63,9.57,51.71,18.47,78.72,23.2c27.01,4.73,53.91,4.61,80.91-0.11c26.94-4.71,52.99-13.38,78.72-22.45
				c27.24-9.61,54.43-19.37,81.64-29.06c15.57-5.54,31.14-11.09,46.7-16.63c13.52-4.81,27.45-9.11,40.35-15.46
				c11.89-5.86,23.04-14.44,29.09-26.51c5.86-11.68,6.92-24.62,1.23-36.55c-1.47-3.08-5.41-4.12-8.47-3.45
				c-57.64,12.74-114.61,28.44-170.6,47.13c-49.02,16.36-98.27,33.8-144.24,57.59c-13.37,6.92-26.64,14.06-39.75,21.46
				c2.52,0,5.05,0,7.57,0c-24.91-15.17-50.01-29.6-76.85-41.09c-53.56-22.92-107.11-45.83-160.67-68.75
				c-29.99-12.83-59.98-25.67-89.97-38.5c-3.75-1.6-8-1.09-10.26,2.69c-1.88,3.14-1.03,8.67,2.69,10.26
				c53.56,22.92,107.11,45.83,160.67,68.75c26.62,11.39,53.25,22.78,79.87,34.18c18.1,7.74,35.58,15.6,52.71,25.3
				c11.52,6.52,22.93,13.23,34.23,20.11c2.31,1.4,5.26,1.31,7.57,0c28.93-16.33,58.35-31.85,89.23-44.17
				c54.23-21.64,109.59-40.46,165.77-56.36c31.76-8.99,63.78-17.02,96-24.14c-2.82-1.15-5.65-2.3-8.47-3.45
				c4.06,8.52,1.11,18.41-3.82,25.88c-5.93,8.98-16.03,14.59-25.66,18.77c-11.08,4.81-22.72,8.46-34.09,12.51
				c-12.45,4.44-24.91,8.87-37.36,13.31c-25.53,9.09-51.06,18.19-76.59,27.28c-24.01,8.55-48.07,17.15-72.89,23.08
				c-24.61,5.88-49.67,8.58-74.92,6.17c-24.97-2.39-49.38-9.39-73.03-17.5c-50.3-17.25-99.7-37.52-149.38-56.49
				c-27.92-10.66-55.85-21.32-83.77-31.98c-11.23-4.29-25.18-7.71-34.09-16.27c-5.94-5.71-9.1-16.05-1.63-21.82
				c3.23-2.5,2.58-7.97,0-10.61C200.51,715.2,196.22,715.93,193.04,718.39L193.04,718.39z"/>
		</g>
	</g>
	<g>
		<g>
			<path class="st2" d="M491.62,630.21c9.65,0,9.67-15,0-15C481.97,615.21,481.95,630.21,491.62,630.21L491.62,630.21z"/>
		</g>
	</g>
	<g>
		<path class="st3" d="M159.77,740.93c-23.61,174.57-54.53,448.35-37.32,452.47c371.64,88.82,307.46,122.81,814.56,41.59
			c-23.19-156.62-38.54-319.16-27.76-479.3C682.82,805.44,618.52,860.61,525.7,862.19c-127.22,2.17-231.6-105.97-357.5-124.37"/>
		<g>
			<path class="st3" d="M152.54,738.93c-7.38,54.6-14.27,109.26-20.62,163.99c-6.21,53.47-11.99,107.01-16.53,160.65
				c-3.06,36.17-6.79,73.02-5.2,109.37c0.33,7.62,0.02,19.12,5.85,25.05c2.4,2.44,5.52,2.9,8.73,3.67
				c6.76,1.62,13.52,3.26,20.27,4.92c12.67,3.1,25.33,6.26,37.97,9.47c41.55,10.55,82.92,21.8,124.3,33.01
				c30.97,8.39,61.96,16.77,93.31,23.64c28.01,6.13,56.33,10.84,84.89,13.39c31.4,2.8,62.97,2.97,94.46,1.6
				c42.34-1.85,84.55-6.25,126.61-11.41c59.7-7.32,119.2-16.26,178.62-25.54c17.94-2.8,35.88-5.65,53.81-8.52
				c4.33-0.69,5.77-5.6,5.24-9.23c-18.2-123.15-31.18-247.41-31.01-372.02c0.05-35.12,1.18-70.24,3.52-105.29
				c0.34-5.11-5.05-8.21-9.49-7.23c-60.78,13.38-120.85,29.7-179.85,49.51c-38.13,12.8-75.6,27.56-113.87,39.91
				c-30.34,9.79-59.64,16.74-90.88,16.85c-58.88,0.2-113.83-24.23-165.52-50.02c-53.44-26.66-106.6-56.71-165.34-70.07
				c-7.15-1.63-14.36-2.97-21.61-4.05c-4.03-0.6-8.02,1.01-9.23,5.24c-1.01,3.53,1.24,8.63,5.24,9.23
				c59.97,8.94,114.08,37.54,167.49,64.61c52.78,26.75,107.42,53.57,167.2,59.08c35.22,3.25,70.11-2.4,103.82-12.43
				c36.96-10.99,72.88-25.35,109.3-37.96c55.77-19.31,112.46-35.74,169.92-49.23c9.09-2.14,18.2-4.2,27.32-6.21
				c-3.16-2.41-6.33-4.82-9.49-7.23c-8.36,125.35-0.95,251.22,13.87,375.81c4.19,35.23,8.97,70.39,14.16,105.48
				c1.75-3.08,3.49-6.15,5.24-9.23c-63.6,10.18-127.26,20.15-191.11,28.72c-44.97,6.03-90.07,11.43-135.34,14.58
				c-33.21,2.31-66.56,3.33-99.83,1.65c-28.84-1.45-54.22-4.64-82.14-9.95c-29.46-5.61-58.55-13-87.52-20.69
				c-37.22-9.88-74.33-20.2-111.57-30c-23.63-6.21-47.3-12.26-71.02-18.12c-6.64-1.64-13.29-3.26-19.94-4.87
				c-3.31-0.8-6.63-1.6-9.94-2.39c-1.84-0.44-3-1.53-0.73,0.11c-0.9-0.65,1.58,1.44,0.94,0.77c-1.01-1.06,1.21,1.83,0.33,0.39
				c-0.88-1.45,0.43,1.92,0.02,0.09c-0.33-1.5-0.79-2.97-1.08-4.49c-0.09-0.45-0.14-0.9-0.21-1.34c-0.22-1.28,0.18,1.8,0.02,0.12
				c-0.11-1.16-0.25-2.32-0.35-3.48c-0.22-2.65-0.35-5.31-0.44-7.96c-0.23-6.68-0.18-13.36-0.04-20.04
				c0.39-18.72,1.54-37.43,2.88-56.1c3.62-50.48,8.8-100.86,14.36-151.16c6.07-54.94,12.75-109.82,19.91-164.63
				c1.57-12.01,3.16-24.02,4.78-36.03c0.55-4.04-0.97-8.01-5.24-9.23C158.27,732.7,153.08,734.92,152.54,738.93L152.54,738.93z"/>
		</g>
	</g>
	<g>
		<g>
			<path d="M509.25,872.39c-5.32,109.17-7.41,218.5-6.19,327.79c0.34,30.89,0.96,61.79,1.82,92.67c0.27,9.63,15.27,9.67,15,0
				c-3.05-109.26-2.86-218.61,0.62-327.85c0.99-30.88,2.24-61.75,3.74-92.61C524.72,862.74,509.72,862.77,509.25,872.39
				L509.25,872.39z"/>
		</g>
	</g>
	<g>
		<g>
			<path d="M526.56,874.94c100.29-30.59,200.58-61.18,300.87-91.77c28.56-8.71,57.13-17.43,85.69-26.14
				c9.21-2.81,5.28-17.29-3.99-14.46c-100.29,30.59-200.58,61.18-300.87,91.77c-28.56,8.71-57.13,17.43-85.69,26.14
				C513.37,863.29,517.29,877.77,526.56,874.94L526.56,874.94z"/>
		</g>
	</g>
	<g>
		<g>
			<path d="M903.62,749.8c1.99,63.54,3.71,127.08,6.13,190.6c2.44,64.1,5.64,128.17,10.49,192.13c2.8,36.9,6.15,73.76,10.14,110.55
				c0.44,4.03,3.13,7.5,7.5,7.5c3.72,0,7.94-3.45,7.5-7.5c-7.01-64.57-11.99-129.33-15.61-194.18
				c-3.56-63.67-5.85-127.4-7.84-191.14c-1.13-35.99-2.17-71.98-3.3-107.98C918.32,740.17,903.32,740.13,903.62,749.8L903.62,749.8z
				"/>
		</g>
	</g>
	<g>
		<g>
			<path d="M516.75,1300.36c109.36-14.66,219.2-25.31,328.77-38.21c30.81-3.63,61.6-7.44,92.35-11.56c4.01-0.54,7.5-3.06,7.5-7.5
				c0-3.63-3.46-8.04-7.5-7.5c-109.36,14.66-219.2,25.31-328.77,38.21c-30.81,3.63-61.6,7.44-92.35,11.56
				c-4.01,0.54-7.5,3.06-7.5,7.5C509.25,1296.49,512.71,1300.9,516.75,1300.36L516.75,1300.36z"/>
		</g>
	</g>
	<g>
		<g>
			<path d="M156.72,731.72c93.2,36.44,186.69,72.12,280.02,108.22c26.06,10.08,52.1,20.19,78.12,30.37c3.8,1.49,8.19-1.63,9.23-5.24
				c1.21-4.23-1.48-7.76-5.24-9.23c-93.2-36.44-186.69-72.12-280.02-108.22c-26.06-10.08-52.1-20.19-78.12-30.37
				c-3.8-1.49-8.19,1.63-9.23,5.24C150.27,726.73,152.96,730.25,156.72,731.72L156.72,731.72z"/>
		</g>
	</g>
	<g>
		<g>
			<path d="M148.45,727.41c-17.2,120.57-29.44,241.83-36.49,363.42c-1.98,34.17-3.55,68.36-4.72,102.57c-0.33,9.65,14.67,9.64,15,0
				c4.14-120.39,13.26-240.59,27.4-360.22c4.02-33.98,8.45-67.91,13.28-101.78c0.58-4.04-0.99-8.01-5.24-9.23
				C154.16,721.16,149.02,723.4,148.45,727.41L148.45,727.41z"/>
		</g>
	</g>
	<g>
		<g>
			<path d="M112.74,1200.63c102.57,29.1,207.01,50.98,310.4,76.89c28.47,7.13,56.86,14.57,85.09,22.58
				c9.3,2.64,13.27-11.83,3.99-14.46c-102.57-29.1-207.01-50.98-310.4-76.89c-28.47-7.13-56.86-14.57-85.09-22.58
				C107.43,1183.52,103.45,1197.99,112.74,1200.63L112.74,1200.63z"/>
		</g>
	</g>
	<g>
		<g>
			<path d="M518.84,870.31c91.3-38.42,184.59-72.4,279.45-100.96c25.95-7.81,52.03-15.18,78.26-22.03
				c9.33-2.44,5.38-16.91-3.99-14.46c-95.84,25.04-189.99,56.69-282.31,92.52c-25.27,9.81-50.41,19.97-75.39,30.48
				c-3.72,1.56-6.43,4.97-5.24,9.23C510.59,868.58,515.07,871.89,518.84,870.31L518.84,870.31z"/>
		</g>
	</g>
	<g>
		<g>
			<path d="M867.05,740.08c0.41,6.92-0.15,13.87,0.26,20.8c0.57,9.59,15.58,9.66,15,0c-0.41-6.92,0.15-13.87-0.26-20.8
				C881.47,730.49,866.47,730.42,867.05,740.08L867.05,740.08z"/>
		</g>
	</g>
	<g>
		<g>
			<path d="M182.46,718.59c-0.36,3.93-0.72,7.87-1.07,11.8c-0.36,3.92,3.7,7.67,7.5,7.5c4.37-0.2,7.12-3.3,7.5-7.5
				c0.36-3.93,0.72-7.87,1.07-11.8c0.36-3.92-3.7-7.67-7.5-7.5C185.6,711.28,182.84,714.39,182.46,718.59L182.46,718.59z"/>
		</g>
	</g>
	<g>
		<g>
			<path d="M187.97,721.78c85.81,34.8,172.78,67.21,255.42,109.24c23.66,12.03,46.92,24.84,69.67,38.53
				c8.29,4.99,15.84-7.97,7.57-12.95c-80.55-48.48-167.36-84.73-254.45-119.56c-24.74-9.9-49.52-19.72-74.22-29.73
				c-3.78-1.53-8.2,1.67-9.23,5.24C181.51,716.82,184.23,720.26,187.97,721.78L187.97,721.78z"/>
		</g>
	</g>
	<ellipse class="st4" cx="430.94" cy="690.86" rx="51.66" ry="25.48"/>
	<ellipse class="st4" cx="653.63" cy="683.89" rx="51.66" ry="25.48"/>
	<ellipse class="st5" cx="444.86" cy="547.97" rx="23" ry="70"/>
	<ellipse class="st5" cx="444.86" cy="547.97" rx="23" ry="70"/>
	<ellipse class="st5" cx="444.86" cy="547.97" rx="23" ry="70"/>
	<ellipse class="st5" cx="646.39" cy="547.97" rx="23" ry="70"/>
	<g>
		<g>
			<path d="M548.02,635.02c-19.48,1.5-35.58,21.63-29.34,41.14c5.92,18.51,28.04,26.86,45.15,18.9c8.74-4.07,1.13-17-7.57-12.95
				c-8.43,3.92-20-1.36-23.12-9.93c-3.49-9.6,4.96-21.39,14.88-22.15C557.58,649.29,557.66,634.28,548.02,635.02L548.02,635.02z"/>
		</g>
	</g>
	<ellipse class="st6" cx="452.86" cy="521.15" rx="8" ry="13"/>
	<ellipse class="st6" cx="452.86" cy="521.15" rx="8" ry="13"/>
	<ellipse class="st7" cx="653.63" cy="521.15" rx="7.23" ry="13"/>
	<ellipse class="st7" cx="653.63" cy="521.15" rx="7.23" ry="13"/>
	<ellipse class="st8" cx="379.28" cy="508.15" rx="166" ry="161.5"/>
	<ellipse class="st9" cx="379.28" cy="508.15" rx="166" ry="161.5"/>
	<ellipse class="st8" cx="731.17" cy="516.46" rx="166" ry="161.5"/>
	<ellipse class="st10" cx="731.17" cy="516.46" rx="166" ry="161.5"/>
	<g>
		<g>
			<path d="M551.72,540.23c1.86,0,3.71,0,5.57,0c3.92,0,7.68-3.45,7.5-7.5c-0.18-4.06-3.3-7.5-7.5-7.5c-1.86,0-3.71,0-5.57,0
				c-3.92,0-7.68,3.45-7.5,7.5C544.4,536.79,547.51,540.23,551.72,540.23L551.72,540.23z"/>
		</g>
	</g>
	<g class="st1">
		<path d="M168.2,737.82c-19.99,316.83,90.77,471.57,339,543.34c-128.15-30.55-256.3-61.09-384.46-91.64
			c6.65-149.87,22.98-299.31,48.86-447.07"/>
		<g>
			<path d="M160.7,737.82c-3.51,56.27-3.49,112.98,3.46,168.99c5.77,46.46,16.11,92.52,34.07,135.87
				c16.01,38.63,37.65,74.56,65.27,106.03c27.51,31.33,60.54,57.59,96.32,78.88c39.8,23.68,83.03,41.42,127.14,55.3
				c6.06,1.91,12.14,3.73,18.24,5.5c1.33-4.82,2.66-9.64,3.99-14.46c-99.67-23.76-199.35-47.52-299.02-71.28
				c-28.48-6.79-56.96-13.58-85.43-20.36c1.84,2.41,3.67,4.82,5.51,7.23c5.2-116.47,16.14-232.7,33.01-348.06
				c4.74-32.41,9.94-64.75,15.58-97.02c1.65-9.44-12.8-13.49-14.46-3.99c-20.2,115.52-34.68,232.05-43.25,349.01
				c-2.44,33.32-4.39,66.68-5.88,100.05c-0.14,3.17,2.42,6.5,5.51,7.23c99.67,23.76,199.35,47.52,299.02,71.28
				c28.48,6.79,56.96,13.58,85.43,20.36c9.38,2.24,13.28-11.77,3.99-14.46c-44.24-12.83-87.59-29.15-128-51.4
				c-35.75-19.68-68.89-43.95-97.1-73.52c-27.69-29.03-49.94-62.77-66.56-99.26c-18.44-40.48-29.68-84.09-36.31-127.98
				c-8.05-53.31-9.12-107.62-6.74-161.41c0.33-7.52,0.74-15.03,1.21-22.54C176.3,728.18,161.3,728.21,160.7,737.82L160.7,737.82z"/>
		</g>
	</g>
	<g class="st1">
		<g>
			<path d="M513.57,893.42c-2.27,97.85-4.54,195.7-6.81,293.55c-0.65,27.96-1.3,55.91-1.95,83.87c-0.18,7.85,7.03,15.36,15,15
				c8.28-0.37,14.8-6.59,15-15c2.27-97.85,4.54-195.7,6.81-293.55c0.65-27.96,1.3-55.91,1.95-83.87c0.18-7.85-7.03-15.36-15-15
				C520.29,878.79,513.77,885.01,513.57,893.42L513.57,893.42z"/>
		</g>
	</g>
	
		<ellipse transform="matrix(0.1095 -0.994 0.994 0.1095 -810.9456 958.9484)" class="st11" cx="129.73" cy="932.08" rx="64.37" ry="41"/>
	<ellipse class="st11" cx="911.12" cy="995.18" rx="41" ry="64.37"/>
	<g class="st1">
		<g>
			<path class="st2" d="M837.02,826.06c-6.34,81.74-8.46,163.78-6.26,245.74c0.62,23.13,1.6,46.25,2.89,69.35
				c0.44,7.82,6.58,15.38,15,15c7.75-0.35,15.47-6.61,15-15c-4.59-81.85-4.96-163.93-1.01-245.82c1.12-23.11,2.58-46.21,4.38-69.28
				c0.61-7.84-7.33-15.34-15-15C843.37,811.44,837.67,817.66,837.02,826.06L837.02,826.06z"/>
		</g>
	</g>
	<g class="st1">
		<g>
			<path class="st2" d="M753.16,423.12c-2.84,0.38,2.08-0.03,2.66-0.04c1.71-0.05,3.43-0.01,5.14,0.1c0.63,0.04,4.73,0.67,1.82,0.14
				c1.44,0.26,2.87,0.54,4.3,0.88c1.42,0.34,2.84,0.74,4.23,1.19c0.93,0.3,1.86,0.62,2.78,0.96c1.51,0.6,1.83,0.71,0.95,0.34
				c-0.88-0.38-0.57-0.24,0.92,0.43c0.9,0.42,1.78,0.86,2.66,1.32c1.32,0.69,2.62,1.42,3.9,2.19c5.81,3.49,8.24,5.43,13.43,10.77
				c1.06,1.09,2.09,2.2,3.08,3.35c-0.02-0.02,2.96,3.55,1.48,1.67c2.01,2.56,3.8,5.34,5.45,8.15c6.72,11.44,10.65,24.84,12.43,38.96
				c-0.21-1.7,0.29,3.03,0.28,2.9c0.17,1.73,0.31,3.46,0.43,5.2c0.28,4.06,0.42,8.13,0.45,12.2c0.07,7.55-0.26,15.09-0.78,22.63
				c-0.54,7.84,7.29,15.35,15,15c8.59-0.38,14.42-6.6,15-15c2.35-34.01,0.11-71.57-19.3-100.85c-8.87-13.39-20.83-25.1-35.06-32.7
				c-15.52-8.28-31.89-11.04-49.23-8.69c-8.04,1.09-12.42,11.39-10.48,18.45C737.09,421.31,745.1,424.21,753.16,423.12
				L753.16,423.12z"/>
		</g>
	</g>
	<g class="st1">
		<g>
			<path class="st2" d="M403.87,411.43c5.21-0.38,10.48-0.39,15.67,0.29c-2.57-0.34,2.2,0.45,2.21,0.45
				c1.28,0.25,2.56,0.55,3.83,0.86c2.54,0.64,5.05,1.39,7.51,2.27c7.85,2.79,16.67,8.35,23.07,14.74c4.22,4.21,5.41,5.71,8.4,10.44
				c1.4,2.21,2.69,4.49,3.86,6.83c-0.02-0.03,1.65,3.45,1.22,2.48c-0.5-1.14,0.88,2.24,1,2.58c4.05,11.09,5.01,18.14,4.13,29.96
				c-0.58,7.84,7.31,15.34,15,15c8.62-0.39,14.38-6.6,15-15c1.98-26.86-8.39-54.45-27.4-73.5c-19.01-19.04-46.68-29.38-73.5-27.4
				c-7.81,0.58-15.38,6.49-15,15C389.22,404.06,395.49,412.05,403.87,411.43L403.87,411.43z"/>
		</g>
	</g>
	<g class="st1">
		<g>
			<path class="st2" d="M560.19,356.46c8.97,6.21,17.93,12.41,26.9,18.62c6.66,4.61,16.65,1.23,20.52-5.38
				c4.36-7.45,1.3-15.9-5.38-20.52c-8.97-6.21-17.93-12.41-26.9-18.62c-6.66-4.61-16.65-1.23-20.52,5.38
				C550.45,343.39,553.51,351.84,560.19,356.46L560.19,356.46z"/>
		</g>
	</g>
	<g class="st1">
		<g>
			<path class="st2" d="M693.85,716.54c-0.56,8.42-1.12,16.85-1.68,25.27c-0.52,7.85,7.27,15.35,15,15c8.57-0.38,14.44-6.6,15-15
				c0.56-8.42,1.12-16.85,1.68-25.27c0.52-7.85-7.27-15.35-15-15C700.27,701.92,694.41,708.13,693.85,716.54L693.85,716.54z"/>
		</g>
	</g>
	<g class="st1">
		<g>
			<path class="st2" d="M710.19,1316.38c14.59,58.97,54.7,108.72,105.13,141.49c56.42,36.65,125.44,49.59,191.89,43.28
				c40.47-3.84,80-13.82,117.61-29.18c7.49-3.06,12.81-9.97,10.48-18.45c-1.95-7.1-10.91-13.56-18.45-10.48
				c-61.75,25.23-130.04,37.12-194.61,25.1c-15.52-2.89-30.84-7.02-45.62-12.56c-1.6-0.6-3.2-1.22-4.79-1.85
				c-0.68-0.27-1.36-0.55-2.04-0.82c-0.05-0.02-2.28-0.95-0.92-0.37c-1.4-0.59-6.17-2.74-8.92-4.05c-6.41-3.06-12.7-6.38-18.83-9.96
				c-5.93-3.45-11.71-7.14-17.35-11.06c-2.81-1.96-5.58-3.97-8.32-6.04c-1.36-1.03-0.12-0.08,0.13,0.11
				c-0.77-0.6-1.54-1.21-2.3-1.82c-1.53-1.22-3.04-2.46-4.54-3.71c-10.63-8.91-20.53-18.71-29.49-29.31
				c-1.25-1.48-2.48-2.98-3.7-4.49c-0.45-0.57-0.91-1.14-1.36-1.71c1.48,1.87-0.49-0.65-0.75-1c-2.32-3.09-4.57-6.25-6.73-9.46
				c-4.31-6.41-8.28-13.04-11.87-19.88c-1.79-3.42-3.49-6.88-5.09-10.39c-0.3-0.66-0.59-1.32-0.89-1.98
				c-1.91-4.19,0.54,1.37-0.48-1.08c-0.74-1.78-1.45-3.58-2.13-5.39c-2.84-7.49-5.19-15.14-7.11-22.91
				c-1.95-7.87-10.79-12.58-18.45-10.48C712.67,1300.13,708.24,1308.49,710.19,1316.38L710.19,1316.38z"/>
		</g>
	</g>
	<g class="st1">
		<g>
			<path class="st2" d="M472.23,885.1c-3.93,49.99-7.85,99.97-11.78,149.96c-0.62,7.84,7.34,15.34,15,15c8.65-0.39,14.34-6.6,15-15
				c3.93-49.99,7.85-99.97,11.78-149.96c0.62-7.84-7.34-15.34-15-15C478.58,870.48,472.89,876.7,472.23,885.1L472.23,885.1z"/>
		</g>
	</g>
	<g>
		<g>
			<path d="M512.52,769.56c29.88-10.51,59.77-21.01,89.65-31.52c9.05-3.18,5.15-17.68-3.99-14.46
				c-29.88,10.51-59.77,21.01-89.65,31.52C499.48,758.28,503.38,772.77,512.52,769.56L512.52,769.56z"/>
		</g>
	</g>
</g>
<g id="Ebene_17">
	<g>
		<g id="Ebene_2_Kopie">
			<g>
				<path class="st12" d="M1082.92,595.81c46.6,14.42,188.31,58.89,207.82,43.54c31.68-24.95,160.27-354.22,142.68-382.14
					C1396.57,198.7,820.64,0.68,754.01,39.57c-60.08,35.06-82.89,369.51-70.16,393.55c19.24,36.34,119.48,48.02,159.85,76.57
					c18,12.73,79.24,137.96,101.77,142.89c12.79,2.8,100.78-29.52,135.94-57.08"/>
				<g>
					<path class="st13" d="M1082.02,599.1c45.74,14.16,91.63,28.36,138.4,38.72c11.25,2.49,22.58,4.74,33.98,6.34
						c8.46,1.19,17.16,2.26,25.68,1.62c5.24-0.39,10.41-1.36,14.28-4.97c2.95-2.76,5.33-6.15,7.58-9.46
						c7.39-10.89,13.43-22.7,19.3-34.43c8.41-16.81,16.21-33.92,23.76-51.13c18.18-41.5,34.9-83.63,50.41-126.17
						c13.65-37.44,26.87-75.31,36.52-114c2.99-11.98,5.95-24.3,6.58-36.69c0.18-3.53,0.22-7.35-0.88-10.78
						c-0.96-3-3.13-5.52-5.31-7.8c-6.27-6.57-14.21-11.76-21.92-16.58c-11.41-7.13-23.36-13.46-35.4-19.49
						c-33.63-16.86-68.42-31.51-103.36-45.49c-42.8-17.13-86.12-33.02-129.73-48.03c-45.27-15.58-90.87-30.21-136.82-43.64
						c-41.05-11.99-82.41-23.13-124.23-32.17c-30.33-6.56-61.44-12.8-92.5-13.75c-9.46-0.29-19.4-0.19-28.53,2.32
						c-9.55,2.63-16.32,9.27-21.82,17.02c-8.81,12.4-14.49,26.99-19.37,41.24c-6.51,19-11.37,38.56-15.57,58.2
						c-9.69,45.38-15.83,91.58-20.25,137.79c-3.61,37.76-6.44,75.87-5.86,113.88c0.15,9.66-0.03,20.09,2.49,29.57
						c1.63,6.09,6.44,11.39,11.14,15.54c8.7,7.68,19.28,13.14,29.9,17.81c26.35,11.59,54.3,19.03,81.31,28.88
						c11.97,4.36,23.96,9.13,34.86,15.73c3.71,2.25,5.13,3.01,7.76,5.83c2.08,2.22,3.77,4.46,5.53,6.87
						c12.32,16.92,22.62,35.26,33.39,53.11c11.86,19.66,23.6,39.57,37.29,58.12c4.66,6.31,9.56,12.88,15.65,17.98
						c4.64,3.88,8.89,5.52,14.93,4.76c9.01-1.13,17.82-3.98,26.37-6.77c12.78-4.17,25.33-8.97,37.69-14.15
						c23.85-9.98,48.28-21.16,68.61-36.99c3.51-2.73-1.5-7.64-4.97-4.93c-9.82,7.65-20.87,13.85-31.96,19.59
						c-12.56,6.51-25.49,12.37-38.62,17.76c-11.85,4.87-23.89,9.36-36.15,13.22c-7.54,2.36-16.51,5.43-23.99,5.71
						c-0.47,0.02-0.95,0.01-1.42,0.01c-1.26-0.01,0.21,0.11-0.64-0.08c-0.4-0.09-0.79-0.24-1.17-0.39c0.89,0.34-0.82-0.46-1.13-0.65
						c-2.26-1.35-4.03-3.03-6.13-5.18c-5.97-6.08-10.97-13.04-15.8-19.97c-13.37-19.2-25.22-39.36-37.26-59.34
						c-9.98-16.56-19.56-33.79-31.57-49.1c-4.64-5.92-9.96-9.77-16.65-13.46c-11.21-6.19-23.3-10.86-35.36-15.18
						c-26.63-9.55-54.31-16.79-80.06-28.6c-9.98-4.58-20.2-9.91-27.95-17.72c-1.48-1.49-2.89-3.07-4.08-4.79
						c-0.66-0.94-1.22-1.92-1.81-2.9c-0.14-0.23-0.77-1.71-0.22-0.34c-0.47-1.18-0.78-2.4-1.04-3.64
						c-0.75-3.56-1.07-7.51-1.37-12.07c-0.39-6.14-0.52-12.28-0.56-18.42c-0.11-17.05,0.54-34.09,1.46-51.08
						c2.42-44.39,6.87-88.69,13.41-132.62c6.16-41.36,13.58-83.27,27.54-122.79c4.74-13.41,10.29-27.09,18.96-38.57
						c2.61-3.45,6.67-7.63,10.19-9.72c0.61-0.37,1.25-0.7,1.89-1.01c0.29-0.14,0.59-0.27,0.89-0.4c1.04-0.46-0.41,0.11,0.69-0.27
						c1.64-0.57,3.31-1.04,5-1.42c4.61-1.02,7.31-1.24,12.1-1.47c5.49-0.27,10.99-0.17,16.48,0.1c13.64,0.69,27.23,2.44,40.73,4.6
						c37.31,5.96,74.18,14.82,110.72,24.42c44.26,11.63,88.13,24.74,131.7,38.71c44.81,14.38,89.31,29.71,133.43,46.08
						c39.2,14.54,78.14,29.83,116.39,46.68c27.59,12.15,55.4,24.8,80.98,40.73c4.33,2.7,8.58,5.52,12.66,8.58
						c0.76,0.58,0.73,0.55,1.91,1.49c0.8,0.64,1.6,1.31,2.38,1.98c1.33,1.15,2.62,2.35,3.83,3.61c0.51,0.54,1,1.09,1.49,1.64
						c0.25,0.28,0.48,0.58,0.71,0.87c-0.74-0.94,0.04,0.05,0.2,0.29c0.32,0.47,0.62,0.94,0.91,1.43c0.51,0.85-0.19-0.65,0.05,0.11
						c0.1,0.3,0.22,0.6,0.29,0.9c0.09,0.38,0.45,2.4,0.3,1.24c0.11,0.84,0.18,1.68,0.22,2.52c0.1,2.07,0.02,4.14-0.13,6.21
						c-0.82,11.5-3.86,24.07-6.87,35.89c-4.48,17.6-9.8,34.99-15.4,52.26c-13.64,42.1-29.1,83.65-45.53,124.76
						c-14.88,37.21-30.45,74.28-48.41,110.16c-5.83,11.64-11.82,23.34-19.13,34.17c-2.47,3.66-3.65,5.55-6.63,8.33
						c-1.28,1.19-1.97,1.6-3.47,2.04c-2.88,0.83-5.11,1.04-8.06,1.15c-8.75,0.31-17.61-0.81-26.25-2.16
						c-11.46-1.78-22.82-4.15-34.13-6.73c-25.72-5.88-51.18-12.93-76.5-20.32c-19.11-5.58-38.14-11.44-57.15-17.33
						C1079.48,591.17,1077.68,597.76,1082.02,599.1L1082.02,599.1z"/>
				</g>
			</g>
		</g>
		<g id="Ebene_7_1_">
			<g class="st1">
				<g>
					<path class="st2" d="M1249.69,225.32c13.83,6.3,28.21,11.36,42.41,16.77c3.92,1.49,7.84,3,11.74,4.54
						c1.9,0.75,3.8,1.51,5.69,2.28c0.95,0.39,1.89,0.77,2.84,1.16c3.12,1.28-2.62-1.13,0.54,0.22c7.36,3.14,14.67,6.42,21.74,10.13
						c3.29,1.73,6.54,3.55,9.69,5.51c1.42,0.88,2.82,1.79,4.2,2.74c0.66,0.46,1.31,0.92,1.97,1.39c2.68,1.9-1.84-1.57-0.24-0.21
						c2.24,1.91,4.47,3.78,6.43,5.98c0.41,0.47,0.79,1.06,1.25,1.48c-0.65-0.59-2.1-2.96-0.92-1.11c0.68,1.08,1.23,2.46,2.01,3.46
						c-0.43-0.55-1.3-3.55-0.68-1.48c0.15,0.51,0.31,1.04,0.47,1.55c0.96,2.97,0.08-2.84-0.08-0.88c-0.08,0.99-0.38,4.63,0.05,1.28
						c0.43-3.32,0.07-0.64-0.07,0.16c-0.13,0.75-0.28,1.5-0.43,2.25c-0.36,1.71-0.77,3.4-1.21,5.1c-6,23.18-14.9,45.72-23.34,68.08
						c-11.96,31.68-24.47,63.17-37.04,94.62c-11.88,29.75-23.9,59.45-35.63,89.26c-1.22,3.08-2.42,6.18-3.64,9.27
						c-2.6,6.66,3.09,15.29,10.01,16.86c8.08,1.84,14.42-2.27,17.2-9.41c11.48-29.41,23.32-58.68,35.05-87.99
						c12.93-32.3,25.82-64.63,38.21-97.14c9.15-24,18.62-48.13,25.52-72.89c1.77-6.34,4.08-13.68,3.36-20.32
						c-1.7-15.55-14.25-26.46-27.04-34.62c-14.36-9.16-30.47-15.72-46.28-22.03c-14.65-5.85-29.56-11.07-44.17-17.01
						c-0.72-0.29-1.45-0.59-2.17-0.89c-2.2-0.9,3.44,1.48,0.83,0.34c-1.37-0.59-2.74-1.19-4.1-1.81
						c-6.68-3.04-15.48-2.33-19.25,4.59C1241.38,212.5,1242.52,222.05,1249.69,225.32L1249.69,225.32z"/>
				</g>
			</g>
			<g class="st1">
				<g>
					<path class="st2" d="M1233.11,594.62c-0.33,3-0.66,5.99-0.99,8.98c8.01-3.12,16.03-6.24,24.05-9.37
						c-2.88-3.06-5.75-6.12-8.62-9.18c-0.97,7.13-1.93,14.26-2.9,21.39c-1.91,0.84-3.64,1.34-5.79,1.06
						c-0.87,0.01-1.68-0.21-2.41-0.67c-1.33-0.62-1.53-0.69-0.6-0.19c-1.37-0.96-2.34-1.93-3.27-3.31c0.5,0.86,0.44,0.69-0.17-0.53
						c-0.59-1.04-0.89-2.16-0.9-3.35c3.44-4.38,6.88-8.75,10.31-13.13c0.22-0.05,3.56-0.08,1.76-0.22c1.78,0.13,3.24,0.5,4.85,1.29
						c-1.63-0.81,1.15,0.97,1.34,1.12c-1.36-1.12,0.86,1.09,1.01,1.35c0.8,1.35,1.09,2.94,1.15,4.46c-0.11-2.47-1.52,4.76-1.42,4.55
						c0.74-1.58-0.82,1.04-1.05,1.27c-0.6,0.44-1.19,0.89-1.79,1.32c-2.23,0.75-2.82,0.98-1.78,0.68c1.62-0.31-3.28,0.23-1.64,0.19
						c0.74,0.03,0.44-0.01-0.89-0.12c-0.85,0.02-1.64-0.18-2.38-0.59c-3.03-1.2-5.2-3.75-5.64-6.9c-0.41-2.97-0.39,1.34-0.01-1.74
						c0.38-3.05-0.74,1.11,0.45-1.73c0.2-0.79,0.61-1.47,1.22-2.02c0.85-0.95,1.03-1.17,0.54-0.69c-0.88,0.84,3.11-1.8,1.03-0.96
						c6.88,2.84,13.76,5.67,20.64,8.51c-0.44-1.29-0.88-2.59-1.33-3.89c-2.32-6.81-9.84-12.04-17.32-9.81
						c-6.95,2.07-12.28,9.35-9.81,16.63c0.44,1.29,0.88,2.59,1.33,3.89c1.42,4.17,4.04,7.24,8.22,8.99
						c4.43,1.86,8.15,1.25,12.42-0.48c8.58-3.48,12.48-14.62,9.72-22.96c-3.29-9.92-14.47-15.8-24.69-12.57
						c-9.85,3.11-16.71,13.35-12.98,23.47c3.61,9.79,14.05,16,24.58,13.38c6.02-1.5,10.35-7.09,10.31-13.13
						c-0.04-6.52-3.74-13.01-9.63-16.36c-6.4-3.64-13.01-3.56-19.52-0.7c-8.56,3.76-8.57,15.34-2.9,21.39
						c2.88,3.06,5.75,6.12,8.62,9.18c3.83,4.08,10.39,5.07,15.39,3.11c5.6-2.2,8.04-6.84,8.66-12.47c0.33-3,0.66-5.99,0.99-8.98
						c0.35-3.17-1.89-7.37-4.1-9.56c-2.47-2.45-6.57-4.32-10.12-4.2c-3.57,0.13-7.29,1.23-9.78,3.81
						C1234.53,587.7,1233.54,590.77,1233.11,594.62L1233.11,594.62z"/>
				</g>
			</g>
		</g>
		<g id="Ebene_2_1_">
			<g>
				<g>
					<path d="M1052.15,622.05c45.79,14.19,91.74,28.42,138.57,38.84c11.26,2.51,22.6,4.76,34.02,6.39
						c9.08,1.29,18.41,2.58,27.57,1.92c7.1-0.51,13.84-1.92,19.11-6.79c3.36-3.1,6.08-6.95,8.63-10.69
						c7.42-10.87,13.47-22.68,19.35-34.4c8.45-16.84,16.27-34,23.83-51.25c18.38-41.92,35.3-84.47,50.95-127.45
						c13.62-37.4,26.83-75.23,36.36-113.9c3.04-12.34,5.99-25.07,6.53-37.82c0.18-4.06,0.02-8.41-1.27-12.33
						c-1.37-4.17-4.24-7.69-7.32-10.83c-6.84-6.99-15.4-12.58-23.72-17.75c-11.54-7.14-23.58-13.48-35.73-19.55
						c-34.18-17.04-69.53-31.87-105.01-46.05c-42.78-17.1-86.06-32.96-129.64-47.96c-45.21-15.56-90.75-30.18-136.64-43.61
						c-40.91-11.97-82.13-23.09-123.78-32.15c-31.03-6.75-62.9-13.16-94.68-14.26c-10.11-0.35-20.74-0.2-30.5,2.4
						c-11.26,3-19.27,10.46-25.85,19.51c-9.24,12.72-15.12,27.91-20.19,42.61c-6.55,18.97-11.4,38.5-15.58,58.12
						c-9.77,45.78-15.88,92.4-20.28,139.02c-3.58,37.88-6.38,76.13-5.67,114.27c0.19,10.1,0.12,21.02,2.81,30.89
						c1.99,7.28,7.5,13.73,13.19,18.67c9.39,8.17,20.51,14.06,31.93,19.03c27.04,11.76,55.58,19.47,83.23,29.62
						c3.04,1.11,6.06,2.26,9.07,3.45c0.8,0.32,1.6,0.64,2.4,0.96c0.43,0.17,3.1,1.29,0.52,0.21c1.53,0.65,3.06,1.3,4.58,1.98
						c5.62,2.51,11.14,5.25,16.37,8.47c1,0.61,1.98,1.24,2.96,1.89c0.55,0.37,1.1,0.85,1.69,1.15c1.19,0.62-2.35-2.1-1.42-1.09
						c0.78,0.84,1.72,1.56,2.51,2.4c0.92,0.98,1.77,2.02,2.63,3.04c1.93,2.32-1.29-1.76,0.19,0.22c0.65,0.87,1.3,1.73,1.94,2.61
						c12.26,16.87,22.6,35.07,33.37,52.82c11.93,19.64,23.73,39.54,37.54,58.04c5.01,6.72,10.22,13.76,16.78,19.19
						c3.09,2.56,6.35,4.94,10.28,6.11c3.94,1.18,7.67,0.8,11.63,0.27c9.13-1.23,18.04-4.06,26.72-6.88
						c13.24-4.3,26.24-9.29,39.05-14.62c24.3-10.11,48.85-21.52,69.58-37.57c4.42-3.42,3.77-10.77,0.03-14.48
						c-4.36-4.32-10.5-3.72-14.93-0.29c-0.59,0.46-4.19,3.05-1.73,1.33c-1.09,0.77-2.19,1.54-3.3,2.29
						c-2.58,1.74-5.21,3.41-7.88,5.02c-5.73,3.47-11.63,6.7-17.6,9.78c-12.56,6.47-25.49,12.28-38.61,17.62
						c-1.41,0.57-2.81,1.14-4.22,1.7c-0.26,0.1-3.06,1.2-0.86,0.34c-0.83,0.32-1.66,0.65-2.49,0.96c-3.24,1.25-6.49,2.45-9.75,3.64
						c-5.68,2.05-11.39,4-17.17,5.8c-4.68,1.46-9.41,2.82-14.19,3.96c-1.79,0.42-3.59,0.81-5.4,1.13c-0.76,0.13-1.79,0.11-2.5,0.4
						c2.6-1.04,1.93-0.17,0.23-0.08c-0.58,0.03-1.17-0.02-1.74,0.02c-1.96,0.14,1.86,0.45,1.46,0.23c-0.28-0.15-1.1-0.43-1.41-0.44
						c2.76,0.15,2.41,1.22,0.87,0.23c-0.53-0.34-1.06-0.7-1.6-1.03c-1.9-1.16,2.19,1.87,0.49,0.37c-1.22-1.08-2.44-2.14-3.58-3.29
						c-2.73-2.74-5.19-5.69-7.61-8.69c-0.44-0.54-1.84-2.06,0.23,0.31c-0.38-0.44-0.72-0.93-1.07-1.4c-0.67-0.88-1.34-1.77-2-2.67
						c-1.53-2.06-3.02-4.15-4.5-6.25c-13.39-19.09-25.26-39.15-37.33-59.02c-10.39-17.12-20.42-34.79-32.92-50.6
						c-4.83-6.12-10.59-10.36-17.5-14.23c-11.95-6.68-24.92-11.66-37.8-16.28c-13.52-4.85-27.2-9.18-40.82-13.75
						c-6.73-2.26-13.45-4.57-20.1-7.04c-3.07-1.14-6.12-2.3-9.15-3.52c-0.81-0.33-1.61-0.65-2.42-0.98
						c-2.61-1.06,1.43,0.65-0.16-0.07c-1.67-0.75-3.36-1.45-5.03-2.2c-5.49-2.49-10.89-5.2-16.03-8.34
						c-2.24-1.36-4.34-2.87-6.5-4.34c-1.99-1.36,1.81,1.56,0.02,0.01c-0.5-0.43-1.03-0.83-1.53-1.26c-0.98-0.83-1.93-1.69-2.84-2.59
						c-0.88-0.86-1.73-1.75-2.54-2.68c-0.26-0.3-0.5-0.62-0.77-0.91c-1.45-1.58,1.32,2.04,0.2,0.25c-0.81-1.31-1.62-3.14-2.63-4.28
						c1.95,2.2,1.05,2.84,0.7,1.55c-0.06-0.24-0.16-0.49-0.24-0.73c-0.21-0.69-0.37-1.39-0.53-2.09c-0.17-0.77-0.29-1.55-0.44-2.33
						c-0.43-2.37,0.23,1.82,0.13,0.95c-0.05-0.52-0.14-1.04-0.2-1.56c-0.29-2.37-0.48-4.76-0.64-7.14
						c-0.41-6.18-0.57-12.38-0.62-18.56c-0.15-16.96,0.46-33.91,1.35-50.82c1.12-21.16,2.75-42.29,4.8-63.36
						c1.13-11.62,2.4-23.22,3.79-34.81c0.34-2.75,0.67-5.49,1.02-8.24c0.09-0.72,0.61-4.75,0.22-1.77c0.23-1.74,0.46-3.5,0.69-5.24
						c0.77-5.74,1.57-11.46,2.42-17.19c6.09-41.26,13.46-83.08,27.43-122.48c1.41-3.98,2.91-7.94,4.52-11.85
						c0.35-0.86,1.74-3.63,0.11-0.31c0.44-0.9,0.8-1.84,1.2-2.74c0.79-1.75,1.61-3.5,2.46-5.23c2.86-5.8,6.12-11.36,10.01-16.56
						c0.22-0.29,0.49-0.56,0.68-0.87c0.08-0.13-1.92,2.27-0.99,1.23c0.47-0.53,0.91-1.08,1.38-1.61c0.9-1,1.84-1.98,2.83-2.9
						c0.85-0.79,1.76-1.5,2.64-2.26c1.57-1.33-2.6,1.65-0.43,0.33c0.49-0.3,0.98-0.63,1.48-0.92c0.59-0.34,1.21-0.64,1.82-0.94
						c0.35-0.17,0.74-0.29,1.09-0.47c0.33-0.18-3.2,1.11-1.14,0.47c1.67-0.52,3.33-1.02,5.04-1.39c0.91-0.2,1.82-0.36,2.73-0.51
						c0.53-0.08,1.05-0.16,1.58-0.24c2.6-0.4-1.51,0.15-0.79,0.09c2.29-0.21,4.56-0.42,6.86-0.52c5.51-0.24,11.05-0.12,16.57,0.17
						c6.44,0.35,12.87,0.94,19.29,1.69c1.68,0.19,3.36,0.4,5.03,0.62c0.78,0.1,1.56,0.2,2.34,0.31c0.47,0.07,0.95,0.12,1.42,0.19
						c2.68,0.36-2.26-0.33-0.42-0.06c3.79,0.55,7.58,1.12,11.37,1.72c37.29,6.03,74.15,14.91,110.67,24.54
						c43.95,11.59,87.52,24.61,130.8,38.49c44.88,14.4,89.46,29.75,133.65,46.13c20.58,7.63,41.07,15.49,61.44,23.63
						c9.72,3.88,19.44,7.77,29.05,11.88c-2.58-1.1-0.22-0.09,0.96,0.4c1.18,0.5,2.36,0.99,3.54,1.49c2.33,0.98,4.66,1.97,6.98,2.97
						c4.33,1.86,8.67,3.74,12.98,5.63c27.65,12.16,55.52,24.8,81.2,40.68c4.33,2.68,8.6,5.48,12.68,8.51
						c0.38,0.28,0.76,0.59,1.15,0.86c-3.47-2.44-1.43-1.11-0.63-0.47c0.82,0.65,1.63,1.31,2.42,1.99c1.36,1.16,2.68,2.36,3.93,3.63
						c0.53,0.54,1.04,1.08,1.53,1.65c0.23,0.26,0.44,0.55,0.68,0.8c1.23,1.37-1.86-2.68-0.81-1.03c0.31,0.49,0.65,1,0.99,1.47
						c1.24,1.68-0.85-3.19-0.31-0.68c0.13,0.61,0.25,1.28,0.43,1.87c-0.94-3.06-0.21-1.84-0.09,0.02c0.12,1.94,0.08,3.89-0.05,5.83
						c-0.06,1.09-0.16,2.18-0.27,3.27c-0.07,0.64-0.14,1.28-0.21,1.91c-0.29,2.73,0.37-2.58,0.05-0.37
						c-0.41,2.85-0.87,5.68-1.39,8.5c-1.31,7.01-2.93,13.96-4.68,20.87c-4.4,17.39-9.64,34.58-15.16,51.65
						c-13.62,42.17-29.08,83.76-45.54,124.92c-4.12,10.3-8.32,20.58-12.6,30.82c-2.07,4.95-4.17,9.9-6.27,14.83
						c-0.24,0.56-1.21,2.8,0,0.01c-0.22,0.52-0.45,1.05-0.68,1.57c-0.5,1.15-0.99,2.29-1.48,3.44c-1.07,2.47-2.15,4.93-3.22,7.39
						c-7.4,16.83-15.05,33.58-23.29,50.03c-5.83,11.63-11.84,23.34-19.17,34.14c-1.2,1.76-2.56,3.4-3.77,5.15
						c2.43-3.54,0.73-0.9-0.11,0.03c-0.53,0.58-1.09,1.12-1.65,1.67c-0.22,0.22-0.5,0.39-0.71,0.62c-1.09,1.16,2.7-1.41,1.03-0.76
						c-0.43,0.17-1.03,0.47-1.41,0.72c-0.7,0.46-1.93-0.65,1.69-0.66c-0.35,0-0.81,0.29-1.16,0.37c-1.25,0.29-2.48,0.51-3.74,0.76
						c-1.67,0.31,2.9-0.21,1.16-0.15c-0.41,0.02-0.82,0.07-1.23,0.1c-0.86,0.06-1.74,0.1-2.61,0.13c-3.93,0.11-7.88-0.12-11.8-0.46
						c-2.19-0.19-4.37-0.43-6.56-0.7c-0.85-0.11-5.22-0.55-1.63-0.2c-1.32-0.13-2.65-0.39-3.96-0.59
						c-11.6-1.82-23.12-4.23-34.57-6.87c-25.61-5.89-50.97-12.92-76.19-20.3c-19.13-5.59-38.18-11.47-57.23-17.37
						c-5.46-1.69-11.48,1.86-12.9,7.06C1043.14,614.9,1046.67,620.35,1052.15,622.05L1052.15,622.05z"/>
				</g>
			</g>
		</g>
		<g id="Ebene_10_1_">
			<g>
				<g>
					<path class="st2" d="M919.34,169.87c30.25,51,59.51,102.53,88.04,154.43c28.07,51.05,55.44,102.44,82.43,154.02
						c15.01,28.66,29.89,57.38,44.73,86.12c5.83,11.29,22.92,15.72,33.67,9.22c11.78-7.12,15.12-20.47,8.9-32.51
						c-26.46-51.25-53.09-102.43-80.23-153.36c-27.58-51.76-55.68-103.25-84.62-154.31c-16.5-29.12-33.27-58.09-50.36-86.89
						c-6.48-10.93-22.46-15.99-33.67-9.22C917,144.14,912.42,158.2,919.34,169.87L919.34,169.87z"/>
				</g>
			</g>
			<g>
				<g>
					<path class="st2" d="M856.76,482.48c57.33-31.37,114.21-63.45,170.54-96.47c41.7-24.44,83.12-49.3,125.02-73.42
						c27.76-15.97,55.72-31.63,83.84-47.02c11.15-6.11,16.08-21.52,8.9-32.51c-7.2-11.02-21.77-15.73-33.67-9.22
						c-46.77,25.6-93,52.08-138.87,79.14c-44.52,26.26-88.95,52.64-133.86,78.25c-35.36,20.16-70.93,39.97-106.67,59.52
						c-11.15,6.1-16.08,21.52-8.9,32.51C830.28,484.29,844.86,488.99,856.76,482.48L856.76,482.48z"/>
				</g>
			</g>
		</g>
		<g id="Ebene_9_1_">
			<g class="st14">
				<path d="M747.46,44.69c-50.55,184.58,102.13,460.81,216.5,611.78c-19.2-0.29-35.04-30.82-66.18-71.93
					c-44.01-58.09-27.01-59.06-54.74-79.54c-23.03-17.01-55.24-22.93-82.74-31.38c-25.35-7.78-56.12-20.9-69.08-37.84
					c-17.1-22.35,1.46-241.42,41.07-368.33"/>
				<g>
					<path d="M740.66,42.82c-10.43,38.33-12.06,78.7-8.45,118.28c4.01,43.9,14.06,87.26,27.49,129.45
						c14.25,44.76,32.34,88.43,52.73,130.97c20.12,41.96,42.61,82.88,66.96,122.72c21.84,35.72,45.17,70.63,70.14,104.39
						c2.76,3.73,5.54,7.44,8.34,11.14c2-3.38,4-6.77,6.01-10.15c-0.52-0.01-1.02-0.05-1.53-0.09c1.9,0.13,0.28,0.06-0.15-0.06
						c-0.85-0.22-1.68-0.43-2.51-0.71c-1.91-0.62,0.56,0.43-1.25-0.56c-1.02-0.55-2.02-1.12-2.99-1.76c-0.51-0.34-1-0.69-1.5-1.05
						c1.1,0.8-0.05-0.03-0.31-0.25c-0.94-0.8-1.87-1.59-2.78-2.43c-2-1.86-3.87-3.85-5.68-5.89c-9.61-10.84-17.6-23.02-25.99-34.74
						c-16.42-22.93-34.49-44.85-46.67-70.27c-2.43-5.07-4.58-10.34-7.73-15.05c-3.95-5.9-9.09-10.65-14.73-15
						c-27.83-21.48-63.42-26.31-96-37.33c-14.86-5.03-29.59-11.18-42.68-19.84c-5.37-3.55-10.3-7.65-14.38-12.59
						c-0.6-0.73,0.43,0.95-0.2-0.34c-0.15-0.29-0.33-0.6-0.5-0.88c-0.55-0.91-0.08-1.31,0.14,0.4c-0.06-0.44-0.38-0.96-0.53-1.39
						c-0.75-2.12-1.25-4.32-1.67-6.52c-0.14-0.72-0.26-1.44-0.38-2.15c-0.09-0.54-0.37-2.74-0.1-0.55c-0.19-1.54-0.4-3.08-0.56-4.62
						c-0.81-7.68-1.1-15.41-1.23-23.11c-0.74-47.55,4.15-95.29,10.23-142.29c7.14-55.14,16.75-110.3,31.76-163.86
						c1.64-5.84,3.35-11.64,5.15-17.43c2.61-8.37-11-12.09-13.6-3.73c-16.5,53.02-26.62,108.1-34.43,163.04
						c-7.19,50.5-12.81,101.63-13.22,152.77c-0.13,15.34-0.15,31.18,3.02,46.34c1.1,5.27,2.92,9.84,6.43,14.07
						c9.38,11.34,23.44,19.12,36.73,25.28c15.52,7.19,31.72,12.47,48.18,17.06c16.9,4.71,34.25,8.97,50.15,16.55
						c3.91,1.86,7.72,3.92,11.38,6.21c1.65,1.03,3.26,2.11,4.84,3.25c0.67,0.48,1.31,0.97,1.97,1.45c1.15,0.86-0.66-0.54,0.72,0.56
						c2.88,2.29,5.7,4.67,8.2,7.34c0.46,0.49,0.91,0.99,1.34,1.5c0.59,0.69,1.34,1.77,0.34,0.37c0.83,1.18,1.69,2.33,2.44,3.57
						c1.42,2.32,2.62,4.76,3.78,7.2c3.54,7.46,7.12,14.86,11.32,22c8.05,13.69,17.61,26.39,27.11,39.17
						c10.21,13.73,19.74,27.94,30.14,41.54c6.85,8.96,14.28,18.82,24.43,24.52c4.21,2.37,8.84,3.78,13.69,3.93
						c4.89,0.15,9.22-5.91,6.01-10.15c-24.63-32.54-47.66-66.21-69.28-100.68c-24.35-38.81-46.92-78.67-67.32-119.52
						c-20.79-41.61-39.32-84.32-54.35-128.15c-14.25-41.54-25.62-84.29-31.08-127.66c-4.91-38.98-5.3-78.95,2.94-117.04
						c0.98-4.53,2.09-9.04,3.31-13.51C756.56,38.1,742.96,34.35,740.66,42.82L740.66,42.82z"/>
				</g>
			</g>
		</g>
	</g>
</g>
</svg>
