<?xml version="1.0" encoding="utf-8"?>
<!-- Generator: Adobe Adobe Illustrator 24.2.0, SVG Export Plug-In . SVG Version: 6.00 Build 0)  -->
<svg version="1.1" xmlns="http://www.w3.org/2000/svg" xmlns:xlink="http://www.w3.org/1999/xlink" x="0px" y="0px"
	 viewBox="0 0 1700.79 1700.79" style="enable-background:new 0 0 1700.79 1700.79;" xml:space="preserve">
<style type="text/css">
	.st0{fill:#F0C2A1;}
	.st1{fill:#91625D;}
	.st2{fill:#C9354F;}
	.st3{fill:#C9354E;}
	.st4{fill:#DC7C3A;}
	.st5{fill:#DB7C3A;}
	.st6{fill:#AEC0CF;}
	.st7{fill:#ADBFCE;}
	.st8{stroke:#000000;stroke-miterlimit:10;}
	.st9{fill:#FFFFFF;stroke:#000000;stroke-miterlimit:10;}
	.st10{opacity:0.1294;}
	.st11{fill:#FFFFFF;}
	.st12{fill:#CA5B7B;stroke:#CB5B7A;stroke-miterlimit:10;}
	.st13{fill:#CA5B7B;stroke:#CB5B7A;stroke-width:1.0464;stroke-miterlimit:10;}
	.st14{fill:#6DB671;}
	.st15{fill:#6CB671;}
	.st16{opacity:0.149;}
	.st17{opacity:0.0314;}
</style>
<g id="Ebene_9">
	<g>
		<path class="st0" d="M340.94,1044.42c-7.46,62.62-14.93,125.72-10.1,188.59c4.84,62.88,22.87,126.27,61.68,175.97
			c36.45,46.68,89.4,78.74,145.76,96.97c56.36,18.22,116.19,23.37,175.42,23.11c69-0.31,140.27-8.52,200.1-42.88
			c79.89-45.87,128.95-133.33,149.28-223.18c20.33-89.85,15.54-183.24,10.65-275.23c-70.95-14.4-150.93-22.04-223.35-36.74
			c2.71-41.07,8.47-82.76,11.18-123.82c-35.83,63.11-35.98,88.16-78.32,115.04c-18.41,11.68-41.2,13.35-62.93,15.08
			c-132.81,10.58-264.46,35.71-391.83,74.79"/>
		<g>
			<path class="st0" d="M333.44,1044.42c-12.32,103.41-23.92,212.11,18.63,310.51c18.55,42.91,47.65,79.5,84.91,107.66
				c37.84,28.6,82.45,47.62,128.37,58.81c51.81,12.63,105.63,15.95,158.81,15.06c48.96-0.82,98.76-5.84,145.25-22.03
				c42.86-14.93,81.12-39.66,112.01-72.95c29.71-32.02,52.12-70.11,68.39-110.51c38.56-95.75,38.26-201.39,33.5-302.87
				c-0.63-13.44-1.34-26.88-2.06-40.32c-0.17-3.12-2.19-6.56-5.51-7.23c-73.99-14.95-149.35-21.8-223.35-36.74
				c1.84,2.41,3.67,4.82,5.51,7.23c2.77-41.36,8.4-82.47,11.18-123.82c0.51-7.56-10.44-10.03-13.98-3.79
				c-8.98,15.87-17.16,32.14-25.16,48.52c-5.65,11.56-11.25,23.26-18.51,33.92c-6.62,9.72-15.06,18.13-24.62,24.97
				c-6.86,4.91-14.01,9.21-22.05,11.9c-9.47,3.17-19.38,4.76-29.29,5.78c-21.61,2.22-43.29,3.64-64.89,5.96
				c-22,2.36-43.96,5.12-65.87,8.26c-44.07,6.3-87.91,14.21-131.4,23.69c-49.44,10.79-98.42,23.64-146.81,38.46
				c-9.2,2.82-5.28,17.3,3.99,14.46c86.98-26.64,175.89-46.87,265.85-60.35c44.54-6.68,89.23-11,134.07-15.01
				c19.82-1.77,40.07-4.75,57.18-15.63c11.3-7.18,21.84-15.77,30.28-26.21c9.14-11.3,15.87-24.08,22.27-37.07
				c8.99-18.21,17.9-36.41,27.9-54.1c-4.66-1.26-9.32-2.52-13.98-3.79c-2.77,41.36-8.4,82.47-11.18,123.82
				c-0.21,3.07,2.46,6.62,5.51,7.23c73.99,14.95,149.35,21.8,223.35,36.74c-1.84-2.41-3.67-4.82-5.51-7.23
				c5.41,101.77,11.37,207.1-19.07,305.82c-24.66,79.99-74.27,155.43-150.91,193.46c-42.49,21.08-90.15,29.84-137.14,32.98
				c-50.06,3.35-101.3,2.33-150.92-5.41c-90.94-14.18-181.4-56.27-228.88-138.74c-50.86-88.34-46.21-194.51-35.42-292.28
				c1.44-13.07,3-26.13,4.55-39.19c0.48-4.03-3.79-7.5-7.5-7.5C336.49,1036.92,333.93,1040.38,333.44,1044.42L333.44,1044.42z"/>
		</g>
	</g>
</g>
<g id="Ebene_10">
	<g>
		<path class="st1" d="M325.91,1034.99c84.89-50.93,187.51-60.19,286.13-68.84c52.09-4.57,130.8-8.7,150.22-14.81
			c15.49-4.87,92.29-79.27,100.07-130.98c0,57.4-7.09,83.03-10.63,124.54c39.22,15.41,83.16,5.48,125.3,5.37
			c42.14-0.11,91.73,16.99,101.65,57.94c9.95-7.72,39.3-15.44,49.25-23.16c5.87-63.02-40.63-128.19-89.46-168.46
			c-48.83-40.27-117.98-54.47-178.73-36.71c-101.09-56.55-215.88-54.38-323.41-11.31c-107.52,43.07-195.08,120.98-229.17,231.68
			c11.78,0.61,11.56,16.69,11.53,28.48"/>
		<g>
			<path class="st1" d="M329.7,1041.47c87.82-52.37,193.55-60.59,293.18-68.74c41.17-3.37,82.65-5.1,123.59-10.75
				c10.21-1.41,19.45-2.91,27.94-9.02c11.51-8.29,21.87-18.25,31.7-28.45c14.71-15.27,28.39-31.76,40.1-49.45
				c10.49-15.85,20.36-33.7,23.37-52.71c-4.91-0.66-9.82-1.33-14.73-1.99c-0.03,22.82-1.31,45.56-3.99,68.23
				c-2.21,18.78-5.01,37.47-6.64,56.32c-0.3,3.49,2.59,6.11,5.51,7.23c63.37,24.28,137.79-15.28,197.02,24.3
				c12.09,8.08,21.1,19.6,24.69,33.78c1.09,4.3,7.11,7.39,11.02,4.48c9.37-6.97,21.61-10.19,32.27-14.6
				c5.28-2.19,10.8-4.34,15.57-7.55c3.54-2.39,4.89-4.74,5.25-9.02c0.35-4.09,0.43-8.22,0.33-12.32
				c-0.76-31.47-12.69-61.85-29.11-88.35c-33-53.26-83.91-97.94-145.86-112.43c-33.92-7.93-69.67-7.41-103.19,2.23
				c1.93,0.25,3.85,0.5,5.78,0.76c-42.93-23.87-90.25-38.4-139.17-42.74c-48.44-4.29-97.61,1.63-144.28,14.97
				c-80.98,23.16-158.64,67.55-213.6,132.12c-30.06,35.32-52.79,76.18-66.54,120.49c-1.57,5.04,2.6,9.04,7.23,9.49
				c5.4,0.53,4.04,17.42,4.03,20.98c-0.03,9.65,14.97,9.67,15,0c0.04-14.58-0.6-34.17-19.03-35.98c2.41,3.16,4.82,6.33,7.23,9.49
				c18.39-59.23,53.82-111.27,100.39-152c49.02-42.88,109.29-73.37,171.84-90.85c71.34-19.94,147.56-20.98,217.89,3.69
				c8.78,3.08,17.42,6.52,25.89,10.36c8.67,3.94,16.86,9.13,25.55,12.92c4.33,1.89,8.28-0.01,12.59-1.09
				c4.31-1.08,8.65-2.01,13.02-2.78c8.08-1.43,16.27-2.22,24.47-2.51c33.15-1.2,66.61,6.17,96.03,21.52
				c30.05,15.68,55.55,40.08,76.28,66.66c20.66,26.48,38.11,58.39,41.83,92.26c0.9,8.2,0.97,16.43,0.26,24.64
				c1.24-2.16,2.48-4.32,3.71-6.48c-14.63,10.89-34.61,12.26-49.25,23.16c3.67,1.49,7.34,2.99,11.02,4.48
				c-7.55-29.75-33.84-48.05-61.86-56.67c-33.95-10.45-68.72-5.47-103.5-3.91c-22.69,1.01-45.39,0.24-66.83-7.97
				c1.84,2.41,3.67,4.82,5.51,7.23c1.63-18.84,4.43-37.54,6.64-56.32c2.67-22.67,3.95-45.4,3.99-68.23
				c0.01-8.16-13.37-10.57-14.73-1.99c-2.57,16.24-10.4,31.12-19.1,44.87c-9.88,15.62-21.49,30.09-33.96,43.7
				c-10.16,11.09-20.9,21.9-32.73,31.22c-0.63,0.5-2.82,2.14-4.53,3.29c-1.58,1.06-3.19,1.97-4.86,2.85
				c1.32-0.69,0.73-0.21-0.68,0.12c-1,0.24-1.99,0.52-3,0.75c-2.83,0.64-5.69,1.13-8.56,1.59c-39.29,6.2-79.54,7.37-119.16,10.52
				c-49.15,3.92-98.49,8.19-147.11,16.56c-55.59,9.58-110.56,25.62-159.29,54.68C313.84,1033.45,321.38,1046.43,329.7,1041.47
				L329.7,1041.47z"/>
		</g>
	</g>
	<g>
		<g>
			<path class="st1" d="M871.58,839.98c9.65,0,9.67-15,0-15C861.93,824.98,861.91,839.98,871.58,839.98L871.58,839.98z"/>
		</g>
	</g>
</g>
<g id="Ebene_11">
	<g>
		<path class="st2" d="M314.4,1202.52c1.72-49.78,3.44-99.55,5.16-149.33c0.52-14.9-0.82-33.1-14.17-39.72
			c-9.35-4.64-21.16-0.92-28.7,6.29s-11.7,17.2-15.22,27.03c-28.8,80.24-29.24,167.59-26.57,252.81c0.41,13,0.96,26.36,6.24,38.24
			c5.28,11.88,16.47,22.08,29.47,22.22c21.25,0.23,33.55-23.86,38.4-44.55c9.37-40,10.05-82.01,2-122.29"/>
		<g>
			<path class="st3" d="M321.9,1202.52c1.08-31.19,2.16-62.39,3.23-93.58c0.53-15.26,1.06-30.53,1.58-45.79
				c0.4-11.61,1.25-23.56-1.81-34.91c-2.81-10.43-9.58-19.81-20.26-23.1c-11.73-3.62-24.63,1.18-33.27,9.32
				c-9.73,9.16-14.44,22.39-18.69,34.7c-4.72,13.66-8.65,27.6-11.89,41.68c-12.78,55.56-15.08,112.93-14.33,169.73
				c0.19,14.19,0.51,28.39,1.03,42.57c0.51,13.79,1.74,27.93,8.09,40.44c10.4,20.48,35.93,31.74,55.84,17.12
				c21.59-15.85,26.56-46.51,29.9-71.17c4.43-32.75,3.27-65.89-3.1-98.31c-1.86-9.46-16.32-5.46-14.46,3.99
				c5.11,26.04,6.51,52.7,4.26,79.14c-1.1,12.87-3.13,25.66-6.04,38.24c-2.07,8.93-5.06,17.61-9.91,25.43
				c-4.15,6.68-10.26,13.21-18.44,14.4c-9.17,1.34-17.6-4.71-22.51-11.98c-6.31-9.34-7.77-20.94-8.38-31.93
				c-0.71-12.85-0.88-25.75-1.12-38.61c-0.96-51.2,0.05-102.87,9.2-153.39c4.44-24.53,10.55-49.1,19.6-72.37
				c3.76-9.68,9.35-20.43,19.78-24.1c8.88-3.12,16.41,1.09,19.48,9.68c3.77,10.54,2.41,22.5,2.03,33.44
				c-0.53,15.26-1.06,30.53-1.58,45.79c-1.08,31.19-2.16,62.39-3.23,93.58C306.56,1212.17,321.56,1212.16,321.9,1202.52
				L321.9,1202.52z"/>
		</g>
	</g>
	<g>
		<path class="st2" d="M1092.17,1135.94c1.51,48.17,3.01,96.35,4.52,144.52c0.37,11.98,0.85,24.38,6.14,35.13
			c5.29,10.75,16.83,19.41,28.64,17.44c17.69-2.96,23.77-24.95,25.63-42.79c8.59-82.55,7.53-166.09-3.17-248.39
			c-1.32-10.13-2.86-20.49-7.83-29.41c-4.97-8.92-14.13-16.22-24.34-16.06c-19.54,0.3-28.49,24.43-30.18,43.9
			c-2.78,31.99-0.14,64.45,7.77,95.58"/>
		<g>
			<path class="st3" d="M1084.67,1135.94c0.91,29.04,1.82,58.07,2.72,87.11c0.45,14.52,0.91,29.04,1.36,43.55
				c0.41,13.2,0.06,26.8,2.98,39.76c4.92,21.81,27.06,43.28,50.27,30.85c18.33-9.81,21.38-34.41,23.19-52.83
				c5.61-56.9,6.63-114.26,3.07-171.33c-1.73-27.71-3.64-56.01-8.62-83.35c-2.13-11.7-6.46-23.64-15.57-31.75
				c-8.2-7.29-19.36-11.11-30.19-7.95c-22.27,6.49-28.63,33.95-30.11,54.02c-2.32,31.45,0.67,63.23,8.34,93.81
				c2.35,9.36,16.82,5.39,14.46-3.99c-5.98-23.84-8.89-48.25-8.55-72.84c0.23-16.63,0.14-38.92,12.62-51.88
				c5.35-5.54,12.85-6.87,19.62-2.85c8.58,5.11,12.23,14.74,14.25,24.05c2.61,12.05,3.59,24.57,4.89,36.81
				c1.31,12.35,2.4,24.72,3.27,37.1c3.59,50.85,3.54,101.95-0.15,152.78c-0.88,12.07-1.61,24.28-3.3,36.27
				c-1.1,7.81-2.94,15.99-6.95,22.86c-3.71,6.35-9.85,10.99-17.53,9.25c-9.34-2.12-15.23-11.12-17.71-19.75
				c-3.6-12.5-2.88-26.18-3.28-39.06c-0.45-14.52-0.91-29.04-1.36-43.55c-0.91-29.04-1.82-58.07-2.72-87.11
				C1099.37,1126.31,1084.37,1126.26,1084.67,1135.94L1084.67,1135.94z"/>
		</g>
	</g>
</g>
<g id="Ebene_12">
	<g>
		<path class="st4" d="M247.61,1049.69c-63.32,11.46-114.93,69.92-118.46,134.17c-3.53,64.25,41.37,128.01,103.05,146.33
			c-7.53-90.73-5.04-182.29,7.4-272.48"/>
		<g>
			<path class="st5" d="M245.61,1042.46c-51.71,9.66-95.04,48.44-114.22,96.86c-20.02,50.53-7.77,107.27,26.04,148.82
				c18.8,23.1,44.24,40.63,72.78,49.28c4.38,1.33,9.89-2.4,9.49-7.23c-5.77-70.19-5.65-140.82,0.48-210.98
				c1.74-19.88,3.94-39.73,6.65-59.51c0.55-4.04-0.98-8.01-5.24-9.23c-3.49-1-8.68,1.23-9.23,5.24
				c-9.7,70.78-13.61,142.25-11.21,213.67c0.68,20.29,1.88,40.57,3.54,60.8c3.16-2.41,6.33-4.82,9.49-7.23
				c-46.19-14-82.08-54.13-93.8-100.6c-11.81-46.82,4.91-95.58,39.17-128.78c19.32-18.73,43.54-31.71,70.02-36.65
				C259.08,1055.15,255.07,1040.69,245.61,1042.46L245.61,1042.46z"/>
		</g>
	</g>
	<g>
		<path class="st4" d="M1164.23,1046.36c23.56,84.84,26.42,175.35,8.26,261.51c27.94,2.86,55.17-14.18,71.04-37.36
			s22.1-51.58,25.32-79.48c4.03-34.99,3.43-72.13-13.23-103.16c-16.67-31.03-53.25-53.53-87.26-44.37"/>
		<g>
			<path class="st5" d="M1157,1048.35c17.95,65.07,23.73,133.12,17.11,200.3c-1.89,19.23-4.9,38.31-8.85,57.22
				c-1.06,5.08,2.19,9.04,7.23,9.49c25.62,2.29,50.53-10.24,67.69-28.73c18.98-20.46,28.44-47.77,33.21-74.82
				c9.06-51.4,10.24-115.47-31.57-153.66c-20.28-18.53-48.19-28.88-75.45-21.9c-9.34,2.39-5.38,16.87,3.99,14.46
				c20.34-5.21,41.63,1.98,57.49,15.11c18.16,15.03,28.26,36.13,32.73,58.99c4.76,24.35,3.26,50.05-0.28,74.47
				c-3.53,24.34-9.91,49.13-24.56,69.31c-14.48,19.95-38.13,34.01-63.24,31.77c2.41,3.16,4.82,6.33,7.23,9.49
				c14.29-68.39,15.76-138.97,4.42-207.9c-3.19-19.41-7.45-38.63-12.69-57.6C1168.9,1035.07,1154.43,1039.01,1157,1048.35
				L1157,1048.35z"/>
		</g>
	</g>
</g>
<g id="Ebene_13">
	<g>
		<path class="st6" d="M235.04,1033.57c26.54-103.39,95.37-193.73,183.41-254.08c88.04-60.36,194.21-91.72,300.77-97.81
			c108.83-6.22,221.73,14.46,312.64,74.62c90.91,60.16,156.48,163.33,155.76,272.34c15.8,1.22,22.87-19.48,23.07-35.33
			c0.9-73.37-32.19-144.77-82.16-198.49c-49.97-53.73-115.74-90.9-184.78-115.72c-147.49-53.01-315.95-50.57-458.09,15.46
			S231.08,891.66,196.4,1044.51c13.42,8.58,33.01,5.61,43.29-6.57"/>
		<g>
			<path class="st7" d="M242.28,1035.56c20.11-77.67,64.06-147.55,122.01-202.63c62.17-59.09,139.97-99.57,222.38-122.2
				c83.8-23.02,173.76-29.36,259.74-15.84c83.07,13.06,164.52,45.69,226.77,103.37c56.54,52.4,97.96,124.21,105.62,201.72
				c0.94,9.52,1.36,19.08,1.33,28.65c-0.02,4.18,3.45,7.33,7.5,7.5c21.6,0.92,29.89-23.99,30.54-41.6
				c0.88-24.12-2.89-48.91-9.15-72.15c-12.67-46.98-37.42-90.34-69.57-126.69c-66.08-74.74-161.98-119.74-257.57-143.01
				c-98.95-24.09-203.94-24.74-302.71,0.63c-90.91,23.35-174.84,69.57-242.69,134.47c-63.96,61.19-113.26,138.27-138.95,223.17
				c-3.15,10.42-5.92,20.96-8.35,31.57c-0.76,3.31,0.51,6.69,3.45,8.47c16.61,10.08,39.45,6.88,52.38-7.74
				c6.37-7.21-4.2-17.86-10.61-10.61c-8.6,9.73-23.02,12.18-34.2,5.4c1.15,2.82,2.3,5.65,3.45,8.47
				c18.94-82.83,60.73-159.35,117.91-221.99c59.04-64.69,133.68-114.28,216.41-143.11c92.57-32.26,193.31-39.77,289.98-24.32
				c93.67,14.97,188.92,50.09,262.22,111.66c36.02,30.26,66.11,67.08,86.53,109.58c10.04,20.9,17.51,43.06,21.99,65.82
				c2.23,11.29,3.64,22.7,4.22,34.19c0.49,9.87,0.96,19.91-2,29.45c-1.99,6.42-5.66,13.67-13.28,13.35c2.5,2.5,5,5,7.5,7.5
				c0.3-81.35-35.07-159.15-89.29-218.74c-58.22-63.98-137.79-104.26-221.57-123.04c-87.76-19.67-180.5-17.72-268.21,1.23
				c-87.3,18.86-171.02,56.53-239.73,114.04C313.15,855,263.07,924.42,236.45,1002.62c-3.25,9.54-6.11,19.2-8.64,28.95
				C225.39,1040.93,239.85,1044.92,242.28,1035.56L242.28,1035.56z"/>
		</g>
	</g>
</g>
<g id="Ebene_2">
</g>
<g id="Ebene_4_2_">
</g>
<g id="Ebene_5_1_">
</g>
<g id="Ebene_6_1_">
	<g>
		<g>
			<path d="M330.26,1076.58c10.12,0,10.14-15.73,0-15.73C320.14,1060.85,320.12,1076.58,330.26,1076.58L330.26,1076.58z"/>
		</g>
	</g>
	<g>
		<g>
			<path d="M253.61,1363.79c10.12,0,10.14-15.73,0-15.73C243.5,1348.07,243.48,1363.79,253.61,1363.79L253.61,1363.79z"/>
		</g>
	</g>
	<g>
		<g>
			<path d="M1158.11,1039.84c10.12,0,10.14-15.73,0-15.73C1147.99,1024.11,1147.98,1039.84,1158.11,1039.84L1158.11,1039.84z"/>
		</g>
	</g>
	<g>
		<g>
			<path d="M1080.44,1148.89c-0.03,24.94-1.18,49.84-2.08,74.76c-0.74,20.61-1.51,41.39,0.26,61.97
				c1.32,15.34,3.75,31.93,12.27,45.14c8.14,12.62,20.86,19.36,35.67,20.64c7.71,0.67,14.11-1.01,19.53-6.73
				c5.3-5.6,8.58-12.74,11.42-19.81c7.88-19.65,11.4-41.17,14.26-62.03c7.75-56.6,8.97-114.94,2.8-171.76
				c-2.61-24.05-6.26-48.64-14.72-71.43c-5.74-15.47-14.48-33.43-31.17-39.34c-9.75-3.45-20.73-1.26-28.72,5.17
				c-10.35,8.33-14.79,22.44-17.28,34.98c-6.93,34.93-3.88,71.49-2.63,106.81c0.26,7.26,0.48,14.53,0.49,21.8
				c0.01,10.12,15.74,10.14,15.73,0c-0.05-32.99-3.22-65.92-1.35-98.91c0.79-13.99,2.1-28.9,7.66-41.93
				c1.71-4.01,4.14-8.12,7.99-11.21c-1.29,1.03,1.3-0.74,1.71-1.01c1.73-1.12-0.18-0.24,1.77-0.8c1.1-0.31,2.19-0.62,3.32-0.8
				c-1.62,0.25,1.3-0.02,1.96-0.01c0.66,0.01,1.32,0.1,1.97,0.12c1.51,0.04-1.99-0.47-0.54-0.06c0.37,0.1,0.77,0.12,1.14,0.24
				c0.62,0.19,1.25,0.36,1.87,0.53c0.25,0.07,0.49,0.19,0.74,0.26c1.92,0.5-1.16-0.66-0.07-0.03c1.17,0.67,2.34,1.3,3.5,2
				c1.92,1.16-0.21-0.29,0.43,0.27c0.71,0.62,1.43,1.22,2.12,1.87c1.17,1.11,2.22,2.32,3.28,3.54c1.41,1.63-0.71-1.11,0.56,0.71
				c0.58,0.83,1.18,1.65,1.73,2.5c2.25,3.41,4.16,7.03,5.87,10.74c0.42,0.92,0.83,1.84,1.23,2.77c-0.79-1.84,0.48,1.22,0.63,1.6
				c0.88,2.24,1.7,4.5,2.47,6.78c1.67,4.95,3.11,9.97,4.39,15.04c2.84,11.24,4.91,22.68,6.54,34.15c3.54,24.84,5.08,53.1,5.3,79.37
				c0.24,27.45-0.88,54.95-3.59,82.27c-2.18,22-5.14,43.69-11.26,65.77c-1.15,4.16-2.43,8.28-3.9,12.34c-0.61,1.68-1.26,3.35-1.95,5
				c0.94-2.26-0.37,0.79-0.62,1.32c-0.4,0.85-0.81,1.7-1.24,2.53c-0.66,1.29-1.37,2.56-2.13,3.79c-0.35,0.57-0.73,1.12-1.09,1.68
				c-0.21,0.32-0.46,0.62-0.67,0.94c-0.78,1.21,1.27-1.46,0.33-0.42c-0.83,0.93-1.68,1.82-2.53,2.72c-0.61,0.66-2.1,1.2,0.18-0.06
				c-0.35,0.2-1.05,0.98-1.44,0.94c-0.1-0.01-0.51,0.25-0.61,0.32c-0.56,0.41-1.46,0.05,1.02-0.41c-0.42,0.08-0.81,0.32-1.24,0.4
				c-2,0.36,1.77,0.17,0.45-0.02c-1.33-0.19-2.81,0-4.16-0.08c-5.49-0.33-10.73-1.75-15.3-4.61c-4.06-2.55-7.31-6.39-9.95-11.21
				c-2.79-5.1-4.6-11.06-5.97-17.35c-3.67-16.93-3.63-34.65-3.43-51.88c0.26-22.23,1.48-44.45,2.18-66.67
				c0.37-11.71,0.61-23.43,0.62-35.15C1096.18,1138.77,1080.45,1138.76,1080.44,1148.89L1080.44,1148.89z"/>
		</g>
	</g>
	<g>
		<g>
			<path d="M1080.56,1004.38c10.12,0,10.14-15.73,0-15.73C1070.44,988.65,1070.42,1004.38,1080.56,1004.38L1080.56,1004.38z"/>
		</g>
	</g>
	<g>
		<g>
			<path d="M325.13,1034.55c-9.4,64.97-18.84,130.52-14.26,196.32c0.7,10.04,16.43,10.12,15.73,0
				c-4.49-64.41,4.49-128.55,13.7-192.14c0.61-4.2-1.04-8.45-5.49-9.67C331.11,1028.05,325.74,1030.32,325.13,1034.55
				L325.13,1034.55z"/>
		</g>
	</g>
	<g>
		<g>
			<path d="M324.85,1036.64c-2.04,29.46-5.98,58.75-8.1,88.21c-2.83,39.25-3.44,78.79,0.65,117.98
				c4.54,43.45,14.7,86.36,33.86,125.8c20.67,42.54,52.04,78.86,90.88,105.8c49.97,34.66,109.91,52.7,169.61,61.24
				c40.76,5.83,81.96,7.64,123.09,6.73c39.9-0.88,80.73-2.54,119.49-12.84c58.42-15.53,108.44-50.26,144.89-98.25
				c34.63-45.6,55.98-100.4,69.5-155.66c12.96-52.97,19.1-107.58,21.17-162.01c1.45-38,0.69-76-1.25-113.97
				c-0.25-4.87-0.52-9.74-0.73-14.61c-0.44-10.08-16.17-10.13-15.73,0c1.37,31.03,2.93,61.99,2.75,93.07
				c-0.28,50.76-3.85,101.78-12.52,150.98c-9.67,54.92-25.46,109.25-52.81,157.67c-27.6,48.86-67.15,89.42-118.63,113.11
				c-28.28,13.02-59.66,20.47-90.82,23.24c-43.98,3.91-88.41,5.03-132.5,2.43c-63.99-3.77-129.62-16-186.37-45.82
				c-42.14-22.15-77.61-53.77-102.36-93.49c-22.41-35.96-35.26-75.23-42.36-117.8c-0.41-2.48-0.8-4.96-1.17-7.44
				c-0.2-1.35-0.4-2.7-0.59-4.06c-0.09-0.68-0.19-1.35-0.28-2.03c0.19,1.42,0,0-0.08-0.61c-0.65-5.16-1.25-10.33-1.74-15.51
				c-0.98-10.21-1.65-20.45-2.05-30.7c-0.76-19.39-0.55-38.8,0.32-58.18c1.45-32.21,5.06-64.22,8.14-96.3
				c0.54-5.65,1.05-11.31,1.44-16.97C341.28,1026.54,325.55,1026.59,324.85,1036.64L324.85,1036.64z"/>
		</g>
	</g>
	<g>
		<g>
			<path d="M336.68,1043.43c39.21-21.34,83.81-33.14,127.23-43.13c49.86-11.47,100.49-19.65,151.21-26.2
				c40.32-5.21,80.78-9.39,121.3-12.63c10.76-0.86,21.53-1.66,32.3-2.34c1.95-0.12,3.91-0.18,5.85-0.36
				c4.83-0.43,6.98-3.76,9.61-7.23c27.45-36.19,54.82-73.22,77.27-112.77c2.69-4.74,5.28-9.55,7.67-14.45
				c-4.88-1.32-9.77-2.65-14.65-3.97c-4.84,43.48-9.4,86.98-11.94,130.67c-0.24,4.15,3.8,8,7.86,7.86
				c77.26-2.53,153.42,13.49,227.56,33.75c9.78,2.67,13.95-12.49,4.18-15.16c-75.4-20.61-153.17-36.88-231.74-34.31
				c2.62,2.62,5.24,5.24,7.86,7.86c2.54-43.69,7.1-87.19,11.94-130.67c0.86-7.73-11.34-10.75-14.65-3.97
				c-10.89,22.31-24.95,43.14-38.95,63.58c-12.92,18.86-26.31,37.4-40,55.7c-2.82,3.77-5.65,7.53-8.51,11.26
				c2.26-1.3,4.53-2.6,6.79-3.89c-38.62,2.13-77.21,5.82-115.65,10.07c-75.51,8.34-151.31,19.19-224.94,38.24
				c-36.12,9.35-72.62,20.6-105.53,38.51C319.85,1034.69,327.78,1048.28,336.68,1043.43L336.68,1043.43z"/>
		</g>
	</g>
	<g>
		<g>
			<path d="M325.36,1236.72c-2.66-30.28-0.43-61.17,0.89-91.46c1.41-32.35,3.62-64.84,2.84-97.23c-0.22-9.17-0.12-19.51-3.18-28.27
				c-5.85-16.7-23.73-22.25-39.4-16.23c-28.87,11.1-41.22,39.78-47.94,67.64c-7.14,29.59-10.33,60.23-12.29,90.55
				c-2.13,32.93-2.47,66.04-0.63,98.99c1.45,26.01,3.53,53.07,11.24,78.1c4.44,14.44,11.29,27.79,26.9,31.86
				c15.48,4.04,31.62-2.17,41.91-14.09c18.86-21.86,21.66-54.35,21.57-81.93c-0.04-11.52-0.78-23.01-1.91-34.47
				c-0.42-4.23-3.32-7.86-7.86-7.86c-3.93,0-8.28,3.61-7.86,7.86c1.96,19.87,2.84,40.01,0.69,59.91
				c-1.3,12.04-4.36,25.48-9.27,35.22c-1.09,2.15-2.28,4.26-3.6,6.27c-0.61,0.93-1.25,1.85-1.92,2.74c1.01-1.35-0.77,0.93-1.16,1.37
				c-1.3,1.49-2.71,2.83-4.16,4.17c-0.27,0.25-0.57,0.48-0.85,0.72c-1.43,1.24,1.39-0.96-0.13,0.11c-0.72,0.51-1.44,1.02-2.18,1.48
				c-1.42,0.89-2.9,1.65-4.42,2.35c2.2-1.03-0.21,0.07-0.79,0.25c-0.74,0.23-1.47,0.47-2.22,0.67c-0.73,0.19-1.47,0.33-2.21,0.5
				c-2.28,0.53,0.11,0.07-0.53,0.1c-1.42,0.07-2.83,0.2-4.26,0.15c-0.69-0.02-1.37-0.11-2.06-0.14c-2.08-0.08,1.67,0.47-0.31-0.05
				c-1.26-0.33-2.53-0.54-3.78-0.93c-0.6-0.19-1.17-0.43-1.77-0.62c-0.7-0.22,1.78,0.99-0.12-0.08c-1.01-0.56-2-1.16-3.01-1.72
				c-1.73-0.97,0.35,0.39,0.01,0.06c-0.38-0.36-0.81-0.66-1.18-1.04c-0.35-0.36-0.69-0.74-1.04-1.09c-1.48-1.45,0.2,0.43-0.28-0.34
				c-0.86-1.37-1.75-2.68-2.51-4.11c-0.42-0.79-0.8-1.59-1.19-2.39c-0.16-0.33-0.31-0.68-0.46-1.02c-0.74-1.59,0.49,1.27-0.11-0.26
				c-8.23-20.78-10.47-43.32-12.28-65.08c-2.55-30.56-2.84-61.33-1.72-91.96c1.09-29.66,3.41-59.43,8.53-88.69
				c2.08-11.88,4.6-23.73,8.18-35.25c0.76-2.43,1.56-4.85,2.44-7.24c0.92-2.5,1.64-4.3,2.06-5.23c2.39-5.22,5.14-10.25,8.82-14.7
				c6.96-8.4,25.43-25.07,36.73-14.74c1.41,1.29,2.11,2.74,3.14,4.29c0.92,1.39-0.39-1.79,0.04,0.04c0.34,1.47,0.84,2.9,1.13,4.39
				c0.18,0.9,0.31,1.81,0.45,2.72c-0.34-2.24,0.13,1.15,0.17,1.6c0.25,2.37,0.42,4.75,0.55,7.13c1.61,28.76-0.41,57.81-1.68,86.54
				c-1.38,31.11-3.26,62.32-2.58,93.47c0.12,5.65,0.36,11.3,0.85,16.93C310.51,1246.72,326.24,1246.81,325.36,1236.72
				L325.36,1236.72z"/>
		</g>
	</g>
	<g>
		<g>
			<path d="M249.21,1041.39c-30.08,0.11-59.7,7.86-83.26,27.16c-19.65,16.1-32.57,39.15-39.76,63.25
				c-7.03,23.55-9.11,48.78-7.3,73.24c1.51,20.46,5.3,41.44,14.25,60.06c19.25,40.04,60.25,69.34,104.69,72.54
				c10.1,0.73,10.05-15,0-15.73c-37.66-2.71-70.87-27.65-88.74-60.17c-1.11-2.02-2.15-4.07-3.11-6.16c-0.28-0.6-1.06-2.45-0.41-0.87
				c-0.44-1.06-0.86-2.12-1.27-3.19c-1.53-4.02-2.82-8.12-3.95-12.27c-2.63-9.64-4.34-19.59-5.22-28.3
				c-4.42-43.37,2.85-92.88,34.45-124.49c20.93-20.94,50.15-29.23,79.62-29.34C259.33,1057.08,259.35,1041.35,249.21,1041.39
				L249.21,1041.39z"/>
		</g>
	</g>
	<g>
		<g>
			<path d="M1160.2,1039.56c1.06-0.24,2.13-0.44,3.2-0.63c0.34-0.06,1.53-0.2-0.1,0c0.45-0.06,0.91-0.11,1.36-0.15
				c2.37-0.19,4.73-0.31,7.11-0.27c5.63,0.1,8.08,0.44,13.42,1.59c11.26,2.43,20.89,6.42,30.73,12.21
				c23.23,13.66,41.58,35.37,51.35,60.49c12.66,32.55,12.02,69.76,5.91,103.72c-4.77,26.48-14.5,53.13-34.62,71.8
				c-21.58,20.03-51.55,25.71-80.46,24.61c-10.12-0.39-10.1,15.34,0,15.73c29.04,1.11,59.29-4.27,82.96-22.09
				c24.13-18.16,38.06-45.73,44.94-74.65c4.37-18.37,6.25-37.36,6.69-56.21c0.45-19.42-1.2-38.88-6.94-57.52
				c-9.3-30.24-28.31-56.73-54.41-74.68c-21.19-14.58-49.45-24.97-75.34-19.12C1146.16,1026.63,1150.33,1041.79,1160.2,1039.56
				L1160.2,1039.56z"/>
		</g>
	</g>
	<g>
		<g>
			<path d="M307.14,1008.12c10.12,0,10.14-15.73,0-15.73C297.02,992.39,297,1008.12,307.14,1008.12L307.14,1008.12z"/>
		</g>
	</g>
	<g>
		<g>
			<path d="M317.2,993.64c27.96-81.02,83.84-151.9,155.43-198.9c35.96-23.61,75.22-41.1,117.52-49.45
				c44.48-8.78,90.62-8.79,135.52-3.37c49.38,5.96,98.62,19,143.89,39.73c3.71,1.7,8.03,1.03,10.26-2.69
				c1.92-3.21,0.98-8.58-2.69-10.26c-42.05-19.25-86.89-32.16-132.58-39.19c-47.11-7.25-95.15-8.58-142.36-1.46
				c-88.24,13.3-168.2,64.25-225.34,131.83c-32.42,38.35-57.73,82.29-74.11,129.79C299.58,998.8,314.07,1002.72,317.2,993.64
				L317.2,993.64z"/>
		</g>
	</g>
	<g>
		<g>
			<path d="M875.34,782.39c37.94-9.19,78.29-8.96,115.6,4.85c44.97,16.66,78.94,53.49,100.29,96.18
				c17.42,34.83,27.18,73.15,33.21,111.46c0.63,3.99,5.64,6.24,9.23,5.24c4.26-1.19,5.87-5.19,5.24-9.23
				c-9.92-63.05-30.97-128.67-77-174.97c-32.51-32.69-75.68-51.44-121.54-54.42c-23.13-1.5-46.51,0.97-69.01,6.42
				C861.98,770.2,865.95,784.67,875.34,782.39L875.34,782.39z"/>
		</g>
	</g>
	<g>
		<g>
			<path d="M247.88,1038.64c9.39-45.04,25.59-88.19,49.33-127.61c22.21-36.88,50.38-69.51,83.25-97.55
				c32.09-27.38,68.88-50.08,107.52-67.9c38.83-17.9,80.7-31.07,122.98-39.72c42.56-8.71,85.66-12.81,129.41-12.63
				c43.23,0.18,85.39,4.5,127.36,13.5c39.89,8.55,79.33,21.3,115.49,38.56c34.74,16.58,67.13,37.25,95.03,62.69
				c27.32,24.9,49.14,52.64,65.54,85.87c16.12,32.67,25.28,70.3,26.77,106.96c0.4,9.94,0.3,19.89-0.24,29.83
				c-0.52,9.65,14.48,9.62,15,0c2.15-39.84-3.09-80.24-17.08-117.7c-13.32-35.66-33.86-68.1-59.68-96.03
				c-26.3-28.44-57.78-52.04-91.51-70.97c-36.04-20.23-74.93-35.43-114.78-46.26c-42.03-11.43-85.39-18.07-128.86-20.47
				c-44.78-2.47-89.74-0.22-134.09,6.45c-43.91,6.6-87.18,17.81-128.53,34.03c-40.91,16.05-80.02,36.79-115.4,62.93
				c-35.6,26.31-67.16,57.58-93.08,93.5c-27.03,37.46-47.26,79.68-60.27,123.97c-3.35,11.4-6.2,22.94-8.63,34.57
				C231.45,1044.07,245.91,1048.1,247.88,1038.64L247.88,1038.64z"/>
		</g>
	</g>
	<g>
		<g>
			<path d="M207.19,1049.25c2.83-46.52,14.3-93.79,34.05-135.77c19.42-41.26,45.69-77.52,77.77-109.47
				c32.73-32.6,69.75-59.16,110.46-81.31c41.84-22.76,85.76-39.77,131.9-52.23c47.09-12.71,94.44-20.14,142.92-22.65
				c48.06-2.48,97.03-0.04,143.79,7.82c45.75,7.69,91.88,20.75,133.55,39.33c41.02,18.28,79.57,42.18,112.49,71.78
				c33.47,30.11,60.43,64.89,80.61,105.17c21.28,42.47,33.7,90.42,37.69,138c1.1,13.08,1.6,26.2,1.62,39.33
				c0.01,9.65,15.01,9.67,15,0c-0.05-51.79-8.14-103.88-26.93-152.28c-16.96-43.67-42.05-83.72-74.05-117.96
				c-31.16-33.34-68.44-60.85-108.67-82.27c-41.78-22.25-86.82-38.27-132.93-48.77c-47.89-10.91-97.14-16.08-146.23-16.08
				c-49.83,0-99.73,5.33-148.45,15.79c-48.07,10.32-95.05,25.85-139.58,46.74c-43.17,20.26-83.89,45.88-120.06,77.02
				c-35.15,30.27-65.77,66.08-89.06,106.26c-23.9,41.24-39.87,86.96-46.92,134.09c-1.86,12.42-3.2,24.92-3.96,37.46
				C191.6,1058.9,206.61,1058.86,207.19,1049.25L207.19,1049.25z"/>
		</g>
	</g>
</g>
<g id="Ebene_7">
	<ellipse class="st8" cx="621.76" cy="1193.37" rx="17" ry="47"/>
	<ellipse class="st8" cx="621.76" cy="1193.37" rx="17" ry="47"/>
	<ellipse class="st8" cx="621.76" cy="1193.37" rx="17" ry="47"/>
	<ellipse class="st8" cx="757.76" cy="1193.37" rx="17" ry="47"/>
	<g>
		<g>
			<path d="M701.96,1266.34c-11.61-1.71-22.95,2.08-30.98,10.83c-7.77,8.47-11.82,20.59-8.27,31.85c6.31,20,31.24,29.84,49.54,19.96
				c8.5-4.59,0.93-17.55-7.57-12.95c-9.54,5.15-23.25-0.2-27.26-10.23c-4.79-11.99,8.03-26.84,20.55-24.99
				c4.04,0.6,8.02-1.01,9.23-5.24C708.2,1272.04,705.96,1266.93,701.96,1266.34L701.96,1266.34z"/>
		</g>
	</g>
	<g>
		<g>
			<path d="M571.84,1365.31c14.85,38.34,48.84,67.8,88.87,77.39c39.63,9.49,80.89-2.69,110.9-29.79
				c16.84-15.21,29.45-34.91,35.89-56.68c2.74-9.28-11.73-13.24-14.46-3.99c-9.93,33.59-37.08,61.24-70.06,72.81
				c-34.38,12.05-71.97,4.81-100.86-17.02c-15.78-11.93-28.63-28.21-35.8-46.7c-1.46-3.76-5.04-6.41-9.23-5.24
				C573.48,1357.1,570.37,1361.5,571.84,1365.31L571.84,1365.31z"/>
		</g>
	</g>
	<ellipse class="st9" cx="626.26" cy="1172.63" rx="4.5" ry="7.5"/>
	<ellipse class="st9" cx="626.26" cy="1172.63" rx="4.5" ry="7.5"/>
	<ellipse class="st9" cx="762.26" cy="1172.63" rx="4.5" ry="7.5"/>
</g>
<g id="Ebene_14">
	<g class="st10">
		<path d="M177.94,1069.22c-25.3,87.38-5.05,186.63,52.45,257.12c-51.25-9.97-88.47-59.47-95.99-111.14
			c-7.52-51.67,9.85-104.17,35.52-149.63"/>
		<g>
			<path d="M170.71,1067.23c-20.14,70.35-11.95,147.44,20.8,212.72c9.25,18.44,20.59,35.68,33.58,51.7
				c2.43-4.18,4.86-8.36,7.3-12.54c-34.74-7.02-61.84-32.37-77.47-63.43c-18.32-36.43-17.93-78.65-7.51-117.35
				c6.51-24.21,16.74-47.16,28.99-68.98c4.73-8.43-8.22-16-12.95-7.57c-23.13,41.19-40.07,87.93-38.17,135.78
				c1.58,39.78,17.61,79.18,47.07,106.5c15.73,14.58,34.94,25.25,56.04,29.51c7.66,1.55,12.02-6.71,7.3-12.54
				c-43.54-53.7-64.74-124.16-60.42-192.95c1.21-19.28,4.58-38.31,9.9-56.87C187.84,1061.92,173.37,1057.95,170.71,1067.23
				L170.71,1067.23z"/>
		</g>
	</g>
	<g class="st10">
		<path d="M283.82,1019.48c-27.86,109.55-27.15,226.23,2.04,335.44c-14.14,3.72-29-6.26-35.79-19.21
			c-6.79-12.95-7.44-28.13-7.95-42.75c-3.18-91.6-5.87-186.22,27.69-271.52"/>
		<g>
			<path d="M276.59,1017.49c-21.87,86.51-26.25,176.9-13.27,265.16c3.68,25.03,8.82,49.82,15.31,74.26
				c1.75-3.08,3.49-6.15,5.24-9.23c-8.85,2.04-17.35-2.87-23.03-9.39c-6.96-7.99-9.35-19.18-10.34-29.46
				c-2.18-22.78-2-46.03-2.41-68.9c-0.85-46.68,0-93.76,7.96-139.87c4.51-26.16,11.33-51.89,20.99-76.63
				c1.48-3.8-1.63-8.19-5.24-9.23c-4.23-1.21-7.76,1.48-9.23,5.24c-18.54,47.49-26.19,98.33-28.69,149.05
				c-1.23,25.01-1.22,50.07-0.72,75.11c0.26,12.81,0.65,25.62,1.08,38.42c0.42,12.51,0.47,25.16,2.68,37.52
				c2.22,12.37,7.38,24.6,16.99,33.02c9.45,8.28,21.49,12.44,33.93,9.57c3.97-0.92,6.25-5.44,5.24-9.23
				c-22.35-84.11-27.97-172.6-16.2-258.86c3.34-24.44,8.11-48.68,14.16-72.59C293.42,1012.12,278.96,1008.12,276.59,1017.49
				L276.59,1017.49z"/>
		</g>
	</g>
	<g class="st10">
		<path d="M336.58,1040.25c-6.94,142.86,59.49,287.36,172.46,375.09c112.97,87.73,269.42,116.32,406.11,74.22
			c-95.34,46.76-206.53,63.16-309.92,38.96c-103.4-24.19-197.67-90.33-249.73-182.89c-52.06-92.55-58.93-210.76-11.9-305.97"/>
		<g>
			<path d="M329.08,1040.25c-2.62,55.99,5.72,112.43,23.71,165.48c18.07,53.27,45.59,103.09,81.18,146.66
				c35.79,43.81,79.98,80.55,129.7,107.56c50.31,27.33,105.56,44.81,162.28,52.27c56.76,7.46,115.02,4.42,170.55-9.63
				c6.93-1.75,13.81-3.69,20.64-5.79c-1.93-4.57-3.85-9.14-5.78-13.71c-58.93,28.77-123.74,45.87-189.31,48.64
				c-61.75,2.61-124.19-7.57-181.04-32.19c-52.12-22.58-99.42-56.04-137.06-98.66c-39.36-44.56-66.36-98.75-78-157.07
				c-11.92-59.73-7.4-122.87,14.94-179.66c2.76-7.03,5.87-13.9,9.19-20.68c4.24-8.64-8.7-16.25-12.95-7.57
				c-28.08,57.26-37.84,122.42-29.87,185.58c7.88,62.44,32.11,121.5,70.62,171.28c36.11,46.67,83.39,84.49,136.18,110.74
				c56.7,28.19,119.26,42.7,182.53,43.6c68.33,0.97,136.42-13.55,199.14-40.4c7.83-3.35,15.56-6.91,23.21-10.65
				c7.66-3.74,2.29-16.18-5.78-13.71c-53.12,16.25-108.97,21.84-164.31,17.33c-55.3-4.51-110.06-19.31-159.97-43.59
				c-49.51-24.09-93.87-57.41-130.67-98.37c-36.11-40.2-64.84-87.3-84.33-137.69c-19.65-50.81-30.33-105.04-30.3-159.56
				c0-6.73,0.18-13.47,0.5-20.19C344.53,1030.6,329.53,1030.62,329.08,1040.25L329.08,1040.25z"/>
		</g>
	</g>
	<g class="st10">
		<path d="M679.52,735.31c-143.15,39.27-265.46,148.13-321.05,285.77c-15.39,10.04-37.32-4.36-41.26-22.3s4.29-36.18,13.3-52.19
			c64.43-114.44,183.48-196.49,313.36-215.97"/>
		<g>
			<path d="M677.52,728.08c-56.76,15.67-110.49,41.96-157.99,76.72c-47.48,34.75-88.86,77.49-121.71,126.34
				c-18.57,27.62-34.08,57.11-46.6,87.95c1.15-1.49,2.3-2.99,3.45-4.48c-10.85,6.61-24-2.85-28.65-12.95
				c-7.39-16.07,2.34-35.74,10.08-49.73c15.13-27.33,33.57-52.82,54.51-75.97c42.43-46.91,95.06-84.4,153.24-109.22
				c32.58-13.9,66.98-23.57,101.99-28.89c4-0.61,6.24-5.65,5.24-9.23c-1.2-4.28-5.19-5.85-9.23-5.24
				c-63.02,9.57-123.69,33.63-176.74,68.89c-52.98,35.21-98.67,81.43-132.23,135.54c-16.12,25.98-39.02,66.38-11.35,92.87
				c10.28,9.84,26.52,15.19,39.61,7.54c3.68-2.15,4.68-5.56,6.23-9.29c1.57-3.77,3.21-7.51,4.89-11.23
				c3.18-7.03,6.53-13.98,10.05-20.84c28.63-55.73,68.35-105.36,115.87-146.15c47.11-40.44,102.14-72.05,161.14-91.48
				c7.33-2.41,14.72-4.63,22.16-6.69C690.8,739.98,686.86,725.5,677.52,728.08L677.52,728.08z"/>
		</g>
	</g>
	<g class="st10">
		<path d="M861.29,830.63c-2.13,39.29-4.26,78.57-6.38,117.86c32.17,1.2,64.35,2.39,96.52,3.59
			c-34.45-40.74-62.91-86.53-84.19-135.46"/>
		<g>
			<path d="M853.79,830.63c-2.13,39.29-4.26,78.57-6.38,117.86c-0.23,4.16,3.62,7.36,7.5,7.5c32.17,1.2,64.35,2.39,96.52,3.59
				c6.99,0.26,9.23-8.14,5.3-12.8c-34-40.34-61.9-85.6-83.02-133.94c-1.63-3.74-7.04-4.53-10.26-2.69
				c-3.85,2.19-4.3,6.57-2.69,10.26c21.65,49.56,50.51,95.63,85.36,136.98c1.77-4.27,3.54-8.54,5.3-12.8
				c-32.17-1.2-64.35-2.39-96.52-3.59c2.5,2.5,5,5,7.5,7.5c2.13-39.29,4.26-78.57,6.38-117.86
				C869.31,820.98,854.31,821.01,853.79,830.63L853.79,830.63z"/>
		</g>
	</g>
	<g class="st10">
		<path d="M1111.01,999.57c-10.65,112.01,0.19,226.02,31.74,334.02c-10.86,4.03-23.45-1.4-31.03-10.16s-11.17-20.2-14.18-31.39
			c-26.29-97.69-22.17-203.33,11.65-298.67"/>
		<g>
			<path d="M1103.51,999.57c-8.26,87.87-3.43,176.82,14.07,263.31c4.95,24.47,10.96,48.72,17.94,72.7c1.75-3.08,3.49-6.15,5.24-9.23
				c-22.41,7.46-32.24-22.16-36.45-38.06c-6.19-23.35-10.7-47.16-13.34-71.17c-5.21-47.47-3.78-95.77,4.6-142.8
				c4.78-26.84,11.79-53.25,20.86-78.96c3.22-9.12-11.27-13.04-14.46-3.99c-34.39,97.51-39.03,207.03-10.54,306.66
				c3.55,12.41,8.57,25.64,18.62,34.29c9.51,8.18,22.42,12.58,34.71,8.49c3.8-1.27,6.42-5.16,5.24-9.23
				c-24.38-83.8-36.36-170.92-35.39-258.2c0.28-24.65,1.61-49.28,3.91-73.83C1119.41,989.96,1104.4,990.02,1103.51,999.57
				L1103.51,999.57z"/>
		</g>
	</g>
	<g class="st10">
		<path d="M1170.39,1041.97c1.75,86.27,3.5,172.55,5.26,258.82c0.08,3.73,0.2,7.65,2.11,10.85c5.22,8.77,18.66,6.03,27.48,0.89
			c8.82-5.13,19.17-11.78,28.35-7.32c-27.16-89.81-48.79-181.29-64.75-273.75"/>
		<g>
			<path d="M1162.89,1041.97c0.98,48.11,1.95,96.23,2.93,144.34c0.49,24.22,0.98,48.45,1.48,72.67c0.24,11.95,0.49,23.89,0.73,35.84
				c0.2,9.74-0.09,20.63,9.03,26.66c7.56,5,17.64,3.71,25.64,0.53c8.88-3.54,18.87-13.78,28.9-9.56c5.39,2.27,10.73-4.24,9.23-9.23
				c-21.13-70-38.98-140.99-53.36-212.69c-4.07-20.3-7.86-40.66-11.39-61.07c-1.64-9.49-16.1-5.47-14.46,3.99
				c12.47,72.05,28.32,143.51,47.58,214.06c5.45,19.98,11.19,39.87,17.17,59.7c3.08-3.08,6.15-6.15,9.23-9.23
				c-9.1-3.83-18.67-0.43-26.9,3.94c-6.21,3.3-13,8.71-20.53,7.9c-2.61-0.28-3.91-1.26-4.59-3.84c-1.3-4.95-0.54-11.04-0.64-16.14
				c-0.24-11.61-0.47-23.23-0.71-34.84c-0.92-45.13-1.83-90.26-2.75-135.39c-0.53-25.88-1.05-51.76-1.58-77.65
				C1177.69,1032.33,1162.69,1032.29,1162.89,1041.97L1162.89,1041.97z"/>
		</g>
	</g>
</g>
<g id="Ebene_15">
	<g class="st10">
		<g>
			<path class="st11" d="M999.25,1048.52c1.01,18.32,1.16,36.68,0.37,55.02c-0.4,9.32-1.04,18.62-1.9,27.9
				c-0.39,4.19-0.83,8.38-1.32,12.56c-0.28,2.39-0.58,4.78-0.88,7.17c-0.1,0.77-0.57,3.93,0,0.05c-0.17,1.19-0.34,2.38-0.51,3.57
				c-5.28,36.31-14.12,72.11-26.36,106.71c-1.81,5.1-3.69,10.18-5.64,15.23c-0.87,2.24-1.75,4.48-2.65,6.71
				c-0.45,1.12-0.9,2.23-1.36,3.34c-0.18,0.43-2.03,4.9-1.07,2.61c0.85-2.02-0.31,0.73-0.4,0.93c-0.6,1.38-1.19,2.76-1.8,4.14
				c-1.09,2.48-2.19,4.95-3.32,7.41c-2.25,4.93-4.58,9.81-6.96,14.68c-4.6,9.38-2.85,22.07,7.17,27.36c9,4.76,22.44,2.85,27.36-7.18
				c34.37-70.07,54.54-146.27,59.17-224.2c1.26-21.32,1.27-42.7,0.09-64.03c-0.57-10.43-8.79-20.5-20-20
				C1008.91,1028.98,998.63,1037.33,999.25,1048.52L999.25,1048.52z"/>
		</g>
	</g>
	<g class="st10">
		<g>
			<path class="st11" d="M946.48,846.86c2.07,0.59,4.13,1.23,6.17,1.95c0.94,0.33,2.58,0.59,3.36,1.26
				c-0.84-0.71-3.23-1.47-0.81-0.34c3.9,1.84,7.72,3.79,11.39,6.06c1.83,1.13,3.62,2.33,5.38,3.57c2.64,1.87,0.68,1.4-0.02-0.12
				c0.28,0.6,1.71,1.37,2.23,1.81c3.5,2.91,6.81,6.05,9.9,9.39c1.47,1.58,2.86,3.23,4.25,4.88c1.61,1.9,0.46,0.21-0.47-0.65
				c0.83,0.78,1.46,1.98,2.11,2.91c2.47,3.53,4.72,7.21,6.72,11.03c0.85,1.62,2.64,4.02,2.82,5.81c-0.11-1.11-1.29-3.29-0.35-0.81
				c0.43,1.12,0.85,2.23,1.25,3.36c1.51,4.3,2.69,8.68,3.6,13.15c2.1,10.27,14.8,17.14,24.6,13.97c10.88-3.52,16.22-13.6,13.97-24.6
				c-8.83-43.15-43.35-79.13-85.47-91.18c-10.05-2.88-22.22,3.51-24.6,13.97C930.08,832.91,935.71,843.78,946.48,846.86
				L946.48,846.86z"/>
		</g>
	</g>
	<g class="st10">
		<g>
			<path class="st11" d="M1197.63,1094.82c0.59,0.69,4.73,6.24,1.92,2.28c0.94,1.32,1.89,2.62,2.8,3.96
				c2.11,3.13,4.06,6.37,5.85,9.69c1.54,2.85,2.94,5.77,4.24,8.73c-2.03-4.6,0.65,1.88,0.96,2.75c0.54,1.53,1.06,3.06,1.53,4.61
				c1.04,3.35,1.93,6.75,2.66,10.18c0.4,1.85,0.71,3.71,1.06,5.56c0.98,5.3-0.33-4.28,0.16,1.1c0.68,7.56,0.82,15.04,0.16,22.61
				c-0.91,10.45,9.85,20.45,20,20c11.62-0.52,19.02-8.8,20-20c3.17-36.3-9.71-72.17-33.05-99.76c-6.78-8.02-21.39-7.51-28.28,0
				C1189.8,1075.07,1190.39,1086.27,1197.63,1094.82L1197.63,1094.82z"/>
		</g>
	</g>
	<g class="st10">
		<g>
			<path class="st11" d="M190.34,1082.34c-2.09,32.82-4.17,65.64-6.26,98.45c-0.67,10.46,9.67,20.46,20,20
				c11.4-0.51,19.29-8.79,20-20c2.09-32.82,4.17-65.64,6.26-98.45c0.67-10.46-9.67-20.46-20-20
				C198.94,1062.85,191.05,1071.13,190.34,1082.34L190.34,1082.34z"/>
		</g>
	</g>
	<g class="st10">
		<g>
			<path class="st11" d="M280.78,1046.85c-2.15,37.12-4.3,74.23-6.45,111.35c-0.61,10.46,9.63,20.46,20,20
				c11.35-0.51,19.35-8.79,20-20c2.15-37.12,4.3-74.23,6.45-111.35c0.61-10.46-9.63-20.46-20-20
				C289.43,1027.35,281.43,1035.64,280.78,1046.85L280.78,1046.85z"/>
		</g>
	</g>
</g>
<g id="Ebene_16">
	<ellipse class="st12" cx="579.08" cy="1259.91" rx="43.43" ry="19.73"/>
	<ellipse class="st13" cx="825.79" cy="1253.48" rx="47.55" ry="19.73"/>
	<g>
		<g id="Ebene_2_Kopie">
			<g>
				<path class="st14" d="M1243.56,771.73c60.94,12.66,246.32,51.99,269.45,28.47c37.58-38.22,164.87-500.57,139.39-535.63
					C1598.98,191.08,843.69,7.96,763.15,70.03c-72.62,55.98-64.64,509.93-45.77,540.48c28.52,46.17,157.46,47.34,212.02,79.94
					c24.33,14.54,116.17,174.37,145.42,177.75c16.6,1.92,125.07-54.43,166.78-96.66"/>
				<g>
					<path class="st15" d="M1242.78,776.29c59.81,12.43,119.82,24.89,180.53,32.06c14.6,1.73,29.27,3.11,43.98,3.61
						c10.9,0.37,22.1,0.55,32.88-1.54c6.63-1.28,13.11-3.35,17.64-8.77c3.45-4.15,6.11-9.06,8.6-13.85
						c8.21-15.75,14.58-32.53,20.76-49.19c8.85-23.87,16.89-48.06,24.59-72.34c18.56-58.56,35.18-117.75,50.22-177.33
						c13.24-52.43,25.88-105.37,33.89-158.91c2.48-16.58,4.88-33.61,4.32-50.39c-0.16-4.78-0.53-9.93-2.31-14.39
						c-1.56-3.91-4.6-6.99-7.62-9.74c-8.72-7.94-19.4-13.79-29.74-19.15c-15.32-7.95-31.23-14.74-47.23-21.12
						c-44.69-17.83-90.61-32.52-136.65-46.28c-56.4-16.86-113.32-31.98-170.51-45.86c-59.37-14.42-119.05-27.5-179.06-38.91
						c-53.6-10.19-107.51-19.19-161.75-25.3c-39.34-4.43-79.66-8.31-119.31-5.09c-12.08,0.98-24.73,2.56-36.07,7.27
						C758.04,66,750.15,75.93,744,87.17c-9.85,17.99-15.46,38.47-20.11,58.38c-6.19,26.55-10.21,53.61-13.38,80.68
						c-7.31,62.56-10.02,125.69-10.53,188.6c-0.42,51.4,0.19,103.16,5.15,154.3c1.26,13,2.18,27.08,6.44,39.48
						c2.75,7.98,9.46,14.42,15.9,19.32c11.92,9.09,26.01,14.9,40.05,19.65c34.83,11.78,71.25,17.75,106.73,27.1
						c15.72,4.14,31.52,8.82,46.14,16.12c4.98,2.49,6.86,3.32,10.52,6.73c2.89,2.69,5.3,5.47,7.8,8.46
						c17.56,21,32.71,44.22,48.39,66.7c17.28,24.77,34.43,49.89,53.92,72.9c6.64,7.83,13.59,15.96,21.92,21.96
						c6.34,4.56,11.93,6.15,19.54,4.24c11.35-2.83,22.25-7.95,32.83-12.96c15.81-7.47,31.26-15.77,46.43-24.54
						c29.27-16.92,59.13-35.53,83.27-59.81c4.17-4.19-2.75-10.08-6.88-5.93c-11.65,11.73-25.04,21.69-38.53,31.04
						c-15.27,10.6-31.09,20.37-47.21,29.54c-14.55,8.28-29.39,16.09-44.57,23.06c-9.33,4.28-20.42,9.71-29.92,11.18
						c-0.6,0.09-1.2,0.15-1.81,0.22c-1.61,0.17,0.27,0.11-0.82-0.02c-0.52-0.06-1.03-0.21-1.54-0.35c1.18,0.33-1.09-0.51-1.51-0.71
						c-3.02-1.48-5.46-3.5-8.39-6.09c-8.27-7.33-15.42-15.97-22.33-24.62c-19.15-23.92-36.47-49.37-54.02-74.54
						c-14.54-20.86-28.65-42.68-45.64-61.57c-6.56-7.3-13.76-11.72-22.69-15.72c-14.96-6.71-30.87-11.24-46.7-15.32
						c-34.96-9-71.01-14.74-105.11-26.9c-13.21-4.72-26.82-10.42-37.55-19.82c-2.06-1.8-4.02-3.72-5.72-5.86
						c-0.94-1.17-1.77-2.41-2.62-3.65c-0.2-0.29-1.17-2.19-0.32-0.42c-0.73-1.52-1.26-3.12-1.73-4.75
						c-1.35-4.69-2.2-9.96-3.08-16.07c-1.17-8.21-2.02-16.47-2.75-24.74c-2.02-22.95-3.09-46.01-3.79-69.04
						c-1.83-60.16-1.07-120.5,2.39-180.64c3.26-56.62,8.08-114.17,21.47-169.45c4.55-18.76,10.1-38,19.87-54.73
						c2.94-5.03,7.64-11.25,11.89-14.57c0.74-0.59,1.51-1.13,2.3-1.64c0.36-0.23,0.72-0.45,1.09-0.67c1.27-0.78-0.51,0.21,0.85-0.46
						c2.03-1,4.09-1.89,6.21-2.64c5.76-2.04,9.17-2.73,15.25-3.74c6.95-1.16,13.98-1.83,21-2.26c17.44-1.06,34.95-0.66,52.38,0.28
						c48.16,2.61,96.1,9.18,143.69,16.81c57.65,9.24,114.96,20.52,171.99,33.02c58.65,12.86,117.02,27.06,175.01,42.7
						c51.52,13.9,102.81,28.84,153.37,45.99c36.48,12.37,73.29,25.36,107.63,43.11c5.81,3,11.54,6.19,17.06,9.72
						c1.04,0.67,1,0.63,2.6,1.73c1.09,0.75,2.18,1.53,3.24,2.32c1.82,1.36,3.59,2.78,5.28,4.31c0.71,0.65,1.39,1.32,2.08,2
						c0.34,0.34,0.67,0.71,1,1.07c-1.05-1.16,0.05,0.07,0.29,0.36c0.45,0.59,0.89,1.18,1.32,1.79c0.74,1.07-0.32-0.85,0.08,0.14
						c0.16,0.39,0.34,0.77,0.46,1.18c0.16,0.5,0.84,3.17,0.52,1.63c0.24,1.11,0.42,2.24,0.56,3.36c0.36,2.77,0.48,5.58,0.52,8.38
						c0.23,15.62-2.25,32.99-4.78,49.35c-3.76,24.37-8.61,48.57-13.83,72.66c-12.71,58.71-27.79,116.94-44.17,174.72
						c-14.83,52.3-30.55,104.52-49.45,155.47c-6.13,16.53-12.46,33.17-20.57,48.82c-2.74,5.29-4.03,8-7.52,12.19
						c-1.49,1.79-2.33,2.44-4.2,3.25c-3.58,1.54-6.39,2.15-10.13,2.72c-11.11,1.7-22.51,1.47-33.67,0.91
						c-14.79-0.74-29.52-2.28-44.21-4.11c-33.41-4.18-66.6-9.98-99.66-16.27c-24.96-4.74-49.83-9.87-74.69-15.05
						C1238.66,765.98,1237.1,775.11,1242.78,776.29L1242.78,776.29z"/>
				</g>
			</g>
		</g>
		<g id="Ebene_8_1_">
			<g>
				<g>
					<path class="st15" d="M1487.4,435.14c-17.98,69.56-35.95,139.1-53.92,208.66c-1.96,7.62,0.96,17.91,5.22,24.11
						c4.43,6.45,12.55,12.13,20.35,13.11c8.09,1,16.88-0.27,23.55-5.57c6.96-5.53,10.71-12.28,12.96-20.99
						c17.98-69.56,35.95-139.1,53.92-208.66c1.96-7.62-0.96-17.91-5.22-24.11c-4.43-6.45-12.55-12.13-20.35-13.11
						c-8.09-1-16.88,0.27-23.55,5.57C1493.41,419.68,1489.65,426.43,1487.4,435.14L1487.4,435.14z"/>
				</g>
			</g>
		</g>
		<g id="Ebene_7_1_">
			<g class="st16">
				<g>
					<path class="st11" d="M1402.59,234.93c18.31,6.48,37.18,11.21,55.86,16.43c5.16,1.44,10.31,2.9,15.45,4.41
						c2.5,0.74,5,1.48,7.5,2.24c1.25,0.38,2.5,0.77,3.75,1.15c4.11,1.27-3.47-1.14,0.71,0.22c9.72,3.16,19.39,6.52,28.81,10.5
						c4.38,1.85,8.72,3.83,12.95,6.01c1.9,0.98,3.79,2,5.65,3.08c0.9,0.52,1.77,1.05,2.66,1.58c3.63,2.17-2.51-1.85-0.33-0.24
						c3.06,2.25,6.11,4.44,8.85,7.12c0.58,0.57,1.13,1.31,1.75,1.81c-0.89-0.71-3-3.68-1.29-1.36c0.99,1.35,1.84,3.14,2.94,4.37
						c-0.61-0.68-2.05-4.6-1.02-1.9c0.25,0.67,0.51,1.35,0.78,2.02c1.56,3.86-0.22-3.84-0.2-1.17c0.01,1.35,0.02,6.3,0.21,1.71
						c0.19-4.54,0.02-0.87-0.07,0.22c-0.09,1.04-0.19,2.07-0.3,3.09c-0.27,2.36-0.61,4.7-0.98,7.05
						c-5.08,32.1-13.91,63.76-22.18,95.13c-11.72,44.43-24.17,88.67-36.69,132.88c-11.84,41.81-23.85,83.57-35.49,125.45
						c-1.21,4.33-2.4,8.68-3.6,13.02c-2.57,9.35,5.63,20.15,14.61,21.27c10.49,1.3,18.11-5.16,20.86-15.18
						c11.36-41.29,23.2-82.46,34.89-123.66c12.88-45.4,25.73-90.83,37.91-136.44c8.99-33.67,18.38-67.55,24.43-101.92
						c1.55-8.8,3.68-19.02,2.02-27.87c-3.89-20.7-21.08-33.58-38.27-42.72c-19.3-10.26-40.54-16.75-61.37-22.96
						c-19.31-5.75-38.86-10.63-58.13-16.49c-0.96-0.29-1.91-0.59-2.86-0.88c-2.9-0.89,4.55,1.49,1.09,0.34
						c-1.81-0.6-3.62-1.2-5.42-1.84c-8.85-3.13-19.97-0.89-24,8.99C1390.59,218.85,1393.09,231.56,1402.59,234.93L1402.59,234.93z"
						/>
				</g>
			</g>
			<g class="st16">
				<g>
					<path class="st11" d="M1434.68,748.3c-0.09,4.08-0.18,8.17-0.27,12.24c9.86-5.37,19.73-10.74,29.59-16.11
						c-4-3.71-7.99-7.41-12-11.12c-0.44,9.75-0.88,19.49-1.32,29.24c-2.34,1.41-4.48,2.34-7.25,2.27c-1.1,0.14-2.16-0.04-3.15-0.55
						c-1.76-0.65-2.02-0.7-0.78-0.17c-1.85-1.1-3.2-2.27-4.53-3.99c0.73,1.09,0.64,0.86-0.27-0.69c-0.86-1.31-1.37-2.78-1.52-4.39
						c3.89-6.4,7.79-12.79,11.68-19.19c0.27-0.1,4.53-0.63,2.22-0.55c2.28-0.08,4.18,0.2,6.31,1.04c-2.16-0.85,1.58,1.13,1.83,1.32
						c-1.86-1.31,1.21,1.34,1.44,1.67c1.17,1.7,1.71,3.8,1.96,5.84c-0.42-3.32-1.4,6.63-1.31,6.34c0.77-2.23-0.93,1.52-1.2,1.86
						c-0.71,0.68-1.42,1.37-2.13,2.05c-2.76,1.34-3.48,1.73-2.19,1.18c2.03-0.66-4.15,0.79-2.07,0.5c0.95-0.06,0.56-0.08-1.15-0.04
						c-1.07,0.14-2.11-0.01-3.09-0.45c-3.99-1.17-7.04-4.29-7.95-8.47c-0.86-3.95-0.35,1.86-0.2-2.34c0.15-4.17-0.81,1.6,0.38-2.4
						c0.16-1.1,0.61-2.06,1.33-2.9c0.98-1.4,1.18-1.73,0.61-1c-1.03,1.26,3.76-2.88,1.21-1.44c9.07,2.82,18.15,5.65,27.22,8.47
						c-0.71-1.68-1.41-3.37-2.12-5.04c-3.71-8.83-13.87-14.79-23.14-10.7c-8.62,3.8-14.61,14.38-10.64,23.84
						c0.71,1.68,1.41,3.37,2.12,5.04c2.27,5.42,5.95,9.17,11.46,10.92c5.85,1.86,10.51,0.5,15.76-2.46
						c10.54-5.94,14.28-21.51,9.83-32.34c-5.28-12.89-20.18-19.18-32.83-13.34c-12.2,5.63-19.8,20.41-13.93,33.51
						c5.68,12.66,19.66,19.52,32.78,14.45c7.5-2.9,12.4-11.06,11.68-19.19c-0.77-8.78-6.2-16.98-14.08-20.64
						c-8.55-3.97-16.97-2.9-24.93,1.89c-10.48,6.31-9.22,21.92-1.32,29.24c4,3.71,7.99,7.41,12,11.12
						c5.33,4.94,13.79,5.32,19.94,1.96c6.89-3.78,9.48-10.38,9.64-18.06c0.09-4.08,0.18-8.17,0.27-12.24
						c0.09-4.32-3.22-9.65-6.28-12.29c-3.41-2.94-8.84-4.87-13.35-4.19c-4.54,0.69-9.15,2.72-12.03,6.56
						C1435.71,738.77,1434.79,743.05,1434.68,748.3L1434.68,748.3z"/>
				</g>
			</g>
		</g>
		<g id="Ebene_2_1_">
			<g>
				<g>
					<path d="M1207.27,811.56c59.88,12.47,119.97,24.97,180.75,32.2c14.62,1.74,29.3,3.13,44.03,3.66
						c11.71,0.41,23.72,0.81,35.33-1.41c8.99-1.72,17.41-4.6,23.58-11.92c3.93-4.66,6.97-10.25,9.81-15.65
						c8.25-15.72,14.64-32.51,20.83-49.16c8.9-23.92,16.96-48.18,24.68-72.51c18.76-59.15,35.6-118.94,50.78-179.14
						c13.2-52.37,25.83-105.27,33.69-158.76c2.51-17.06,4.85-34.64,4.13-51.91c-0.23-5.5-0.91-11.34-2.98-16.43
						c-2.2-5.42-6.25-9.74-10.51-13.53c-9.48-8.43-21-14.72-32.17-20.46c-15.48-7.95-31.52-14.74-47.67-21.14
						c-45.41-18-92.06-32.84-138.82-46.79c-56.37-16.82-113.24-31.91-170.39-45.78c-59.29-14.39-118.9-27.48-178.82-38.9
						c-53.42-10.18-107.13-19.18-161.18-25.34c-40.27-4.59-81.55-8.59-122.14-5.45c-12.91,1-26.43,2.74-38.57,7.67
						c-14.01,5.68-23.37,16.89-30.75,30.05c-10.36,18.48-16.16,39.8-20.99,60.35c-6.24,26.51-10.25,53.54-13.41,80.57
						c-7.37,63.1-9.99,126.8-10.43,190.26c-0.37,51.57,0.31,103.51,5.43,154.79c1.36,13.58,2.47,28.3,7,41.22
						c3.34,9.52,11.07,17.41,18.86,23.24c12.86,9.65,27.68,15.97,42.76,21c35.73,11.92,72.93,18.16,109.27,27.82
						c3.99,1.06,7.97,2.17,11.93,3.33c1.05,0.31,2.11,0.62,3.16,0.95c0.56,0.17,4.1,1.29,0.69,0.2c2.03,0.65,4.04,1.31,6.05,2
						c7.43,2.57,14.76,5.46,21.78,9.03c1.33,0.68,2.67,1.39,3.97,2.12c0.74,0.42,1.5,0.99,2.28,1.31c1.59,0.66-3.23-2.49-1.93-1.26
						c1.08,1.02,2.37,1.85,3.46,2.86c1.28,1.19,2.48,2.46,3.69,3.72c2.72,2.85-1.83-2.18,0.26,0.27c0.92,1.08,1.85,2.15,2.76,3.24
						c17.48,20.94,32.66,43.97,48.34,66.32c17.36,24.73,34.59,49.83,54.22,72.75c7.13,8.32,14.54,17.06,23.49,23.42
						c4.22,3,8.63,5.73,13.77,6.74c5.15,1.01,9.86-0.03,14.84-1.33c11.48-2.98,22.52-8.09,33.27-13.16
						c16.38-7.72,32.39-16.33,48.11-25.37c29.83-17.16,59.83-36.09,84.45-60.73c5.25-5.25,3.61-15.06-1.56-19.52
						c-6.03-5.19-13.78-3.48-19.04,1.78c-0.71,0.7-5,4.71-2.06,2.05c-1.31,1.19-2.62,2.39-3.94,3.56c-3.09,2.71-6.26,5.35-9.47,7.91
						c-6.92,5.51-14.06,10.72-21.33,15.73c-15.28,10.54-31.1,20.24-47.21,29.35c-1.73,0.98-3.45,1.94-5.19,2.91
						c-0.32,0.18-3.77,2.06-1.06,0.59c-1.02,0.56-2.04,1.11-3.07,1.66c-3.98,2.15-7.99,4.25-12.01,6.32
						c-7.01,3.59-14.06,7.05-21.22,10.31c-5.8,2.64-11.67,5.17-17.64,7.4c-2.23,0.83-4.48,1.61-6.75,2.31
						c-0.95,0.29-2.27,0.41-3.14,0.9c3.19-1.78,2.44-0.51,0.28-0.14c-0.73,0.13-1.49,0.15-2.21,0.28c-2.48,0.47,2.42,0.33,1.88,0.1
						c-0.37-0.16-1.44-0.42-1.84-0.39c3.53-0.2,3.2,1.29,1.13,0.18c-0.71-0.38-1.43-0.79-2.15-1.16c-2.54-1.29,2.99,2.2,0.67,0.43
						c-1.67-1.27-3.34-2.52-4.92-3.91c-3.78-3.29-7.24-6.92-10.65-10.6c-0.62-0.67-2.57-2.51,0.33,0.38
						c-0.54-0.53-1.03-1.15-1.52-1.72c-0.95-1.09-1.91-2.19-2.84-3.3c-2.17-2.56-4.31-5.15-6.42-7.76
						c-19.16-23.77-36.5-49.07-54.06-74.1c-15.12-21.56-29.85-43.91-47.52-63.39c-6.83-7.54-14.64-12.43-23.86-16.63
						c-15.95-7.27-33.03-12.09-49.94-16.45c-17.75-4.57-35.66-8.42-53.5-12.59c-8.82-2.07-17.63-4.21-26.38-6.56
						c-4.03-1.09-8.05-2.22-12.04-3.42c-1.07-0.32-2.13-0.65-3.19-0.97c-3.44-1.05,1.89,0.67-0.22-0.07
						c-2.2-0.77-4.44-1.47-6.65-2.24c-7.27-2.55-14.44-5.42-21.33-8.9c-3-1.51-5.84-3.24-8.76-4.91c-2.68-1.54,2.48,1.84,0.03,0.01
						c-0.68-0.51-1.4-0.97-2.08-1.47c-1.34-0.98-2.64-2-3.9-3.07c-1.22-1.03-2.4-2.11-3.52-3.24c-0.37-0.36-0.71-0.76-1.09-1.12
						c-2.03-1.92,1.91,2.56,0.29,0.3c-1.18-1.65-2.41-4-3.82-5.38c2.73,2.68,1.65,3.68,1.06,1.99c-0.11-0.32-0.26-0.63-0.39-0.95
						c-0.35-0.89-0.63-1.82-0.91-2.74c-0.3-1.02-0.54-2.04-0.81-3.08c-0.81-3.13,0.49,2.42,0.28,1.27c-0.13-0.7-0.29-1.38-0.43-2.07
						c-0.63-3.16-1.14-6.34-1.61-9.52c-1.21-8.27-2.09-16.6-2.84-24.92c-2.06-22.83-3.17-45.76-3.91-68.68
						c-0.92-28.67-1.18-57.38-0.9-86.07c0.16-15.82,0.48-31.64,0.98-47.46c0.12-3.75,0.25-7.5,0.39-11.25
						c0.04-0.98,0.26-6.49,0.09-2.42c0.1-2.38,0.2-4.78,0.3-7.16c0.34-7.84,0.74-15.67,1.18-23.51
						c3.19-56.47,7.94-113.9,21.37-169.01c1.36-5.57,2.83-11.12,4.45-16.62c0.35-1.21,1.81-5.15,0.11-0.43
						c0.46-1.27,0.82-2.59,1.23-3.87c0.81-2.48,1.66-4.95,2.56-7.4c3-8.23,6.54-16.2,10.92-23.77c0.25-0.43,0.56-0.83,0.78-1.27
						c0.09-0.18-2.19,3.34-1.12,1.8c0.54-0.78,1.04-1.59,1.58-2.37c1.03-1.48,2.12-2.93,3.28-4.32c0.99-1.19,2.07-2.28,3.12-3.42
						c1.85-2.03-3.12,2.61-0.52,0.5c0.59-0.48,1.17-0.99,1.78-1.46c0.71-0.54,1.46-1.03,2.22-1.53c0.43-0.28,0.91-0.5,1.33-0.79
						c0.41-0.29-3.95,1.96-1.4,0.79c2.07-0.94,4.12-1.85,6.27-2.6c1.14-0.4,2.27-0.75,3.43-1.08c0.66-0.19,1.32-0.36,1.98-0.55
						c3.26-0.91-1.91,0.42-1,0.23c2.89-0.61,5.76-1.23,8.67-1.7c6.99-1.13,14.05-1.77,21.12-2.18c8.24-0.47,16.5-0.6,24.75-0.53
						c2.16,0.01,4.32,0.06,6.47,0.1c1,0.02,2.01,0.04,3.01,0.08c0.61,0.02,1.22,0.03,1.83,0.05c3.45,0.1-2.91-0.11-0.54-0.02
						c4.89,0.19,9.78,0.4,14.67,0.67c48.16,2.71,96.07,9.32,143.64,16.98c57.25,9.23,114.18,20.43,170.82,32.86
						c58.74,12.88,117.21,27.09,175.29,42.74c27.05,7.29,54.02,14.9,80.86,22.92c12.8,3.82,25.61,7.65,38.31,11.78
						c-3.41-1.11-0.29-0.09,1.26,0.4c1.56,0.5,3.12,0.99,4.67,1.5c3.07,0.99,6.15,1.98,9.22,2.99c5.72,1.87,11.45,3.77,17.15,5.7
						c36.56,12.36,73.44,25.35,107.91,43.02c5.82,2.98,11.56,6.13,17.09,9.62c0.52,0.32,1.03,0.68,1.55,1
						c-4.69-2.78-1.94-1.29-0.86-0.54c1.11,0.76,2.22,1.53,3.31,2.33c1.86,1.36,3.68,2.79,5.4,4.32c0.73,0.65,1.45,1.31,2.13,2
						c0.32,0.32,0.62,0.67,0.95,0.98c1.72,1.67-2.66-3.34-1.14-1.27c0.45,0.61,0.93,1.26,1.43,1.84c1.77,2.09-1.44-4.18-0.47-0.87
						c0.23,0.8,0.46,1.69,0.76,2.46c-1.53-3.99-0.47-2.44-0.12,0.05c0.37,2.6,0.53,5.23,0.59,7.86c0.04,1.48,0.04,2.96,0.02,4.45
						c-0.01,0.87-0.03,1.74-0.05,2.61c-0.07,3.72,0.19-3.53,0.02-0.51c-0.21,3.89-0.48,7.78-0.83,11.66
						c-0.89,9.63-2.19,19.23-3.65,28.8c-3.68,24.08-8.45,47.99-13.58,71.8c-12.67,58.8-27.76,117.09-44.17,174.93
						c-4.11,14.48-8.32,28.94-12.63,43.35c-2.09,6.98-4.21,13.94-6.34,20.9c-0.24,0.78-1.23,3.95,0,0.02
						c-0.23,0.74-0.45,1.48-0.69,2.22c-0.51,1.62-1,3.23-1.51,4.85c-1.09,3.48-2.19,6.95-3.29,10.42
						c-7.55,23.76-15.44,47.43-24.12,70.79c-6.14,16.52-12.49,33.16-20.63,48.79c-1.33,2.55-2.89,4.95-4.22,7.49
						c2.7-5.13,0.83-1.31-0.14,0.05c-0.61,0.86-1.26,1.67-1.92,2.49c-0.26,0.33-0.59,0.6-0.84,0.94c-1.26,1.72,3.29-2.3,1.23-1.17
						c-0.53,0.29-1.26,0.78-1.72,1.18c-0.84,0.72-2.53-0.59,2.08-1.14c-0.45,0.05-1,0.51-1.44,0.67c-1.56,0.57-3.1,1.05-4.68,1.56
						c-2.09,0.66,3.67-0.7,1.46-0.37c-0.52,0.08-1.03,0.22-1.55,0.32c-1.09,0.21-2.2,0.39-3.31,0.55c-5,0.72-10.05,0.99-15.08,1.1
						c-2.81,0.06-5.62,0.06-8.43,0.01c-1.09-0.02-6.71,0.02-2.1-0.03c-1.69,0.02-3.42-0.14-5.11-0.22
						c-14.98-0.76-29.91-2.35-44.78-4.23c-33.26-4.22-66.33-10-99.27-16.28c-24.98-4.76-49.89-9.91-74.8-15.09
						c-7.14-1.49-14.41,4.18-15.65,11.39C1195.01,803.22,1200.11,810.07,1207.27,811.56L1207.27,811.56z"/>
				</g>
			</g>
		</g>
		<g id="Ebene_5">
			<g>
				<g>
					<path class="st11" d="M939.46,456.85c31.71,64.5,63.42,128.99,95.13,193.49c4.61,9.37,10.01,15.93,20.06,19.12
						c8.92,2.82,19.95,2.16,27.58-4.3c48.52-41.07,97.04-82.15,145.57-123.22c48.52-41.07,97.04-82.15,145.57-123.22
						c27.39-23.19,54.79-46.38,82.18-69.57c6.56-5.55,11.45-12.18,12.96-20.99c1.34-7.82-0.43-17.75-5.22-24.11
						c-9.75-12.98-30.26-19.07-43.9-7.53c-48.52,41.07-97.04,82.15-145.57,123.22c-48.52,41.07-97.04,82.15-145.57,123.22
						c-27.39,23.19-54.79,46.38-82.18,69.57c15.88,4.94,31.76,9.88,47.64,14.82c-31.71-64.5-63.42-128.99-95.13-193.49
						c-3.82-7.77-8.06-14.03-16.04-17.84c-7.07-3.38-17.12-4.13-24.47-0.89c-7.38,3.26-14.33,8.79-17.53,16.62
						C937.47,439.28,935.73,449.28,939.46,456.85L939.46,456.85z"/>
				</g>
			</g>
		</g>
		<g id="Ebene_9_1_">
			<g class="st17">
				<path d="M755.37,77.88c-43.93,256.05,181.07,606.07,343.41,792.86c-24.48,2.4-48.03-36.44-92.23-87.3
					c-62.48-71.88-40.93-75.66-78.51-99.22c-31.21-19.58-72.88-22.87-108.84-30.26c-33.14-6.8-73.78-20-92.16-40.95
					c-24.24-27.63-24.87-325.51,11.52-502.26"/>
				<g>
					<path d="M746.5,76.36c-9.04,53.16-6.65,107.79,2.34,160.61c9.96,58.56,27.57,115.53,49.34,170.43
						c23.1,58.25,50.97,114.45,81.64,168.81c30.27,53.61,63.43,105.48,98.85,155.63c31.76,44.96,65.33,88.61,100.87,130.46
						c3.93,4.62,7.88,9.22,11.86,13.8c2.17-4.85,4.35-9.7,6.52-14.55c-0.66,0.06-1.31,0.08-1.96,0.1c2.44-0.1,0.37,0.04-0.2-0.05
						c-1.1-0.17-2.19-0.34-3.28-0.59c-2.5-0.56,0.75,0.5-1.65-0.57c-1.36-0.6-2.69-1.21-4-1.93c-0.68-0.38-1.35-0.79-2.02-1.19
						c1.49,0.92-0.07-0.04-0.42-0.3c-1.29-0.93-2.56-1.87-3.81-2.87c-2.75-2.22-5.36-4.62-7.89-7.11
						c-13.43-13.21-24.96-28.46-36.94-43.03c-23.44-28.51-48.88-55.42-67.21-87.91c-3.65-6.48-6.97-13.27-11.51-19.16
						c-5.68-7.37-12.76-13.02-20.42-18.07c-37.82-24.9-83.67-26.23-126.38-36.36c-19.47-4.62-38.92-10.77-56.55-20.53
						c-7.24-4.01-13.96-8.81-19.7-14.87c-0.85-0.9,0.66,1.22-0.29-0.43c-0.22-0.38-0.48-0.76-0.73-1.11
						c-0.8-1.14-0.25-1.75,0.22,0.53c-0.12-0.58-0.59-1.24-0.83-1.79c-1.19-2.75-2.07-5.64-2.85-8.54c-0.26-0.94-0.5-1.9-0.73-2.84
						c-0.17-0.71-0.78-3.64-0.19-0.73c-0.42-2.04-0.85-4.09-1.23-6.14c-1.88-10.23-3.11-20.6-4.12-30.96
						c-6.21-63.96-5.27-129-2.72-193.21c2.99-75.34,9.12-151.06,22.31-225.4c1.44-8.1,2.98-16.18,4.63-24.24
						c2.39-11.66-15.34-14.7-17.74-3.04c-15.14,73.84-21.92,149.53-25.79,224.69c-3.56,69.08-5.06,138.8,0.08,207.77
						c1.53,20.69,3.26,42.04,8.97,62c1.99,6.94,4.81,12.84,9.74,18.03c13.2,13.92,31.97,22.36,49.57,28.72
						c20.55,7.43,41.77,12.2,63.24,15.98c22.04,3.9,44.61,7.11,65.69,15.01c5.18,1.94,10.27,4.15,15.18,6.71
						c2.21,1.15,4.39,2.38,6.52,3.67c0.9,0.55,1.78,1.11,2.67,1.67c1.56,0.99-0.9-0.63,0.98,0.65c3.93,2.66,7.77,5.46,11.26,8.7
						c0.64,0.6,1.26,1.2,1.87,1.82c0.83,0.85,1.9,2.19,0.47,0.45c1.19,1.47,2.41,2.9,3.5,4.46c2.07,2.92,3.86,6.03,5.61,9.15
						c5.34,9.54,10.71,18.98,16.85,28c11.77,17.28,25.35,33.01,38.85,48.84c14.52,17.02,28.23,34.78,42.98,51.59
						c9.71,11.07,20.27,23.28,33.82,29.49c5.63,2.58,11.68,3.81,17.87,3.3c6.24-0.51,11.09-9.31,6.52-14.55
						c-34.97-40.27-68.02-82.29-99.36-125.59c-35.3-48.76-68.46-99.19-98.96-151.27c-31.08-53.04-59.4-107.9-83.39-164.77
						c-22.74-53.9-41.95-109.85-53.71-167.5c-10.56-51.81-15.49-105.61-9.21-158.13c0.74-6.25,1.66-12.48,2.71-18.69
						C766.23,67.68,748.5,64.61,746.5,76.36L746.5,76.36z"/>
				</g>
			</g>
		</g>
	</g>
</g>
<g id="Ebene_8">
</g>
</svg>
