<?xml version="1.0" encoding="utf-8"?>
<!-- Generator: Adobe Adobe Illustrator 24.2.0, SVG Export Plug-In . SVG Version: 6.00 Build 0)  -->
<svg version="1.1" xmlns="http://www.w3.org/2000/svg" xmlns:xlink="http://www.w3.org/1999/xlink" x="0px" y="0px"
	 viewBox="0 0 1700.79 1700.79" style="enable-background:new 0 0 1700.79 1700.79;" xml:space="preserve">
<style type="text/css">
	.st0{fill:#F0C2A1;}
	.st1{fill:#91625D;}
	.st2{fill:#C9354F;}
	.st3{fill:#C9354E;}
	.st4{fill:#DC7C3A;}
	.st5{fill:#DB7C3A;}
	.st6{fill:#AEC0CF;}
	.st7{fill:#ADBFCE;}
	.st8{stroke:#000000;stroke-miterlimit:10;}
	.st9{fill:#FFFFFF;stroke:#000000;stroke-miterlimit:10;}
	.st10{opacity:0.1294;}
	.st11{fill:#FFFFFF;}
	.st12{opacity:0.1608;}
	.st13{fill:#F4F5E7;}
	.st14{fill:#F3C057;}
	.st15{fill:#7F8D9C;}
	.st16{fill:#CA334D;}
	.st17{fill:#CA344E;}
	.st18{opacity:0.149;}
</style>
<g id="Ebene_9">
	<g>
		<path class="st0" d="M410.94,805.31c-7.46,62.62-14.93,125.72-10.1,188.59c4.84,62.88,22.87,126.27,61.68,175.97
			c36.45,46.68,89.4,78.74,145.76,96.97c56.36,18.22,116.19,23.37,175.42,23.11c69-0.31,140.27-8.52,200.1-42.88
			c79.89-45.87,128.95-133.33,149.28-223.18c20.33-89.85,15.54-183.24,10.65-275.23c-70.95-14.4-150.93-22.04-223.35-36.74
			c2.71-41.07,8.47-82.76,11.18-123.82c-35.83,63.11-35.98,88.16-78.32,115.04c-18.41,11.68-41.2,13.35-62.93,15.08
			C657.51,728.78,525.86,753.91,398.5,793"/>
		<g>
			<path class="st0" d="M403.44,805.31c-12.32,103.41-23.92,212.1,18.63,310.51c18.55,42.91,47.65,79.5,84.91,107.66
				c37.84,28.6,82.45,47.62,128.37,58.81c51.81,12.63,105.63,15.95,158.81,15.06c48.96-0.82,98.76-5.84,145.25-22.03
				c42.86-14.93,81.12-39.66,112.01-72.95c29.71-32.02,52.12-70.11,68.39-110.51c38.56-95.75,38.26-201.39,33.5-302.87
				c-0.63-13.44-1.34-26.88-2.06-40.32c-0.17-3.12-2.19-6.56-5.51-7.23c-73.99-14.95-149.35-21.8-223.35-36.74
				c1.84,2.41,3.67,4.82,5.51,7.23c2.77-41.36,8.4-82.47,11.18-123.82c0.51-7.56-10.44-10.03-13.98-3.79
				c-8.98,15.87-17.16,32.14-25.16,48.52c-5.65,11.56-11.25,23.26-18.51,33.92c-6.62,9.72-15.06,18.13-24.62,24.97
				c-6.86,4.91-14.01,9.21-22.05,11.9c-9.47,3.17-19.38,4.76-29.29,5.78c-21.61,2.22-43.29,3.64-64.89,5.96
				c-22,2.36-43.96,5.12-65.87,8.26c-44.07,6.3-87.91,14.21-131.4,23.69c-49.44,10.79-98.42,23.64-146.81,38.46
				c-9.2,2.82-5.28,17.3,3.99,14.46c86.98-26.64,175.89-46.87,265.85-60.35c44.54-6.68,89.23-11,134.07-15.01
				c19.82-1.77,40.07-4.75,57.18-15.63c11.3-7.18,21.84-15.77,30.28-26.21c9.14-11.3,15.87-24.08,22.27-37.07
				c8.99-18.21,17.9-36.41,27.9-54.1c-4.66-1.26-9.32-2.52-13.98-3.79c-2.77,41.36-8.4,82.47-11.18,123.82
				c-0.21,3.07,2.46,6.62,5.51,7.23c73.99,14.95,149.35,21.8,223.35,36.74c-1.84-2.41-3.67-4.82-5.51-7.23
				c5.41,101.77,11.37,207.1-19.07,305.82c-24.66,79.99-74.27,155.43-150.91,193.46c-42.49,21.08-90.15,29.84-137.14,32.98
				c-50.06,3.35-101.3,2.33-150.92-5.41c-90.94-14.18-181.4-56.27-228.88-138.74c-50.86-88.34-46.21-194.51-35.42-292.28
				c1.44-13.07,3-26.13,4.55-39.19c0.48-4.03-3.79-7.5-7.5-7.5C406.49,797.81,403.93,801.27,403.44,805.31L403.44,805.31z"/>
		</g>
	</g>
</g>
<g id="Ebene_10">
	<g>
		<path class="st1" d="M395.91,795.87c84.89-50.93,187.51-60.19,286.13-68.84c52.09-4.57,130.8-8.7,150.22-14.81
			c15.49-4.87,92.29-79.27,100.07-130.98c0,57.4-7.09,83.03-10.63,124.54c39.22,15.41,83.16,5.48,125.3,5.37
			c42.14-0.11,91.73,16.99,101.65,57.94c9.95-7.72,39.3-15.44,49.25-23.16c5.87-63.02-40.63-128.19-89.46-168.46
			s-117.98-54.47-178.73-36.71c-101.09-56.55-215.88-54.38-323.41-11.31S411.23,650.44,377.14,761.14
			c11.78,0.61,11.56,16.69,11.53,28.48"/>
		<g>
			<path class="st1" d="M399.7,802.35c87.82-52.37,193.55-60.59,293.18-68.74c41.17-3.37,82.65-5.1,123.59-10.75
				c10.21-1.41,19.45-2.91,27.94-9.02c11.51-8.29,21.87-18.25,31.7-28.45c14.71-15.27,28.39-31.76,40.1-49.45
				c10.49-15.85,20.36-33.7,23.37-52.71c-4.91-0.66-9.82-1.33-14.73-1.99c-0.03,22.82-1.31,45.56-3.99,68.23
				c-2.21,18.78-5.01,37.47-6.64,56.32c-0.3,3.49,2.59,6.11,5.51,7.23c63.37,24.28,137.79-15.28,197.02,24.3
				c12.09,8.08,21.1,19.6,24.69,33.78c1.09,4.3,7.11,7.39,11.02,4.48c9.37-6.97,21.61-10.19,32.27-14.6
				c5.28-2.19,10.8-4.34,15.57-7.55c3.54-2.39,4.89-4.74,5.25-9.02c0.35-4.09,0.43-8.22,0.33-12.32
				c-0.76-31.47-12.69-61.85-29.11-88.35c-33-53.26-83.91-97.94-145.86-112.43c-33.92-7.93-69.67-7.41-103.19,2.23
				c1.93,0.25,3.85,0.5,5.78,0.76c-42.93-23.87-90.25-38.4-139.17-42.74c-48.44-4.29-97.61,1.63-144.28,14.97
				c-80.98,23.16-158.64,67.55-213.6,132.12c-30.06,35.32-52.79,76.18-66.54,120.49c-1.57,5.04,2.6,9.04,7.23,9.49
				c5.4,0.53,4.04,17.42,4.03,20.98c-0.03,9.65,14.97,9.67,15,0c0.04-14.58-0.6-34.17-19.03-35.98c2.41,3.16,4.82,6.33,7.23,9.49
				c18.39-59.23,53.82-111.27,100.39-152c49.02-42.88,109.29-73.37,171.84-90.85c71.34-19.94,147.56-20.98,217.89,3.69
				c8.78,3.08,17.42,6.52,25.89,10.36c8.67,3.94,16.86,9.13,25.55,12.92c4.33,1.89,8.28-0.01,12.59-1.09
				c4.31-1.08,8.65-2.01,13.02-2.78c8.08-1.43,16.27-2.22,24.47-2.51c33.15-1.2,66.61,6.17,96.03,21.52
				c30.05,15.68,55.55,40.08,76.28,66.66c20.66,26.48,38.11,58.39,41.83,92.26c0.9,8.2,0.97,16.43,0.26,24.64
				c1.24-2.16,2.48-4.32,3.71-6.48c-14.63,10.89-34.61,12.26-49.25,23.16c3.67,1.49,7.34,2.99,11.02,4.48
				c-7.55-29.75-33.84-48.05-61.86-56.67c-33.95-10.45-68.72-5.47-103.5-3.91c-22.69,1.01-45.39,0.24-66.83-7.97
				c1.84,2.41,3.67,4.82,5.51,7.23c1.63-18.84,4.43-37.54,6.64-56.32c2.67-22.67,3.95-45.4,3.99-68.23
				c0.01-8.16-13.37-10.57-14.73-1.99c-2.57,16.24-10.4,31.12-19.1,44.87c-9.88,15.62-21.49,30.09-33.96,43.7
				c-10.16,11.09-20.9,21.9-32.73,31.22c-0.63,0.5-2.82,2.14-4.53,3.29c-1.58,1.06-3.19,1.97-4.86,2.85
				c1.32-0.69,0.73-0.21-0.68,0.12c-1,0.24-1.99,0.52-3,0.75c-2.83,0.64-5.69,1.13-8.56,1.59c-39.29,6.2-79.54,7.37-119.16,10.52
				c-49.15,3.92-98.49,8.19-147.11,16.56c-55.59,9.58-110.56,25.62-159.29,54.68C383.84,794.34,391.38,807.31,399.7,802.35
				L399.7,802.35z"/>
		</g>
	</g>
	<g>
		<g>
			<path class="st1" d="M941.58,600.87c9.65,0,9.67-15,0-15C931.93,585.87,931.91,600.87,941.58,600.87L941.58,600.87z"/>
		</g>
	</g>
</g>
<g id="Ebene_11">
	<g>
		<path class="st2" d="M384.4,963.4c1.72-49.78,3.44-99.55,5.16-149.33c0.52-14.9-0.82-33.1-14.17-39.72
			c-9.35-4.64-21.16-0.92-28.7,6.29c-7.55,7.21-11.7,17.2-15.22,27.03c-28.8,80.24-29.24,167.59-26.57,252.81
			c0.41,13,0.96,26.36,6.24,38.24c5.28,11.88,16.47,22.08,29.47,22.22c21.25,0.23,33.55-23.86,38.4-44.55
			c9.37-40,10.05-82.01,2-122.29"/>
		<g>
			<path class="st3" d="M391.9,963.4c1.08-31.19,2.16-62.39,3.23-93.58c0.53-15.26,1.06-30.53,1.58-45.79
				c0.4-11.61,1.25-23.56-1.81-34.91c-2.81-10.43-9.58-19.81-20.26-23.1c-11.73-3.62-24.63,1.18-33.27,9.32
				c-9.73,9.16-14.44,22.39-18.69,34.7c-4.72,13.66-8.65,27.6-11.89,41.68c-12.78,55.56-15.08,112.93-14.33,169.73
				c0.19,14.19,0.51,28.39,1.03,42.57c0.51,13.79,1.74,27.93,8.09,40.44c10.4,20.48,35.93,31.74,55.84,17.12
				c21.59-15.85,26.56-46.51,29.9-71.17c4.43-32.75,3.27-65.89-3.1-98.31c-1.86-9.46-16.32-5.46-14.46,3.99
				c5.11,26.04,6.51,52.7,4.26,79.14c-1.1,12.87-3.13,25.66-6.04,38.24c-2.07,8.93-5.06,17.61-9.91,25.43
				c-4.15,6.68-10.26,13.21-18.44,14.4c-9.17,1.34-17.6-4.71-22.51-11.98c-6.31-9.34-7.77-20.94-8.38-31.93
				c-0.71-12.85-0.88-25.75-1.12-38.61c-0.96-51.2,0.05-102.87,9.2-153.39c4.44-24.53,10.55-49.1,19.6-72.37
				c3.76-9.68,9.35-20.43,19.78-24.1c8.88-3.12,16.41,1.09,19.48,9.68c3.77,10.54,2.41,22.5,2.03,33.44
				c-0.53,15.26-1.06,30.53-1.58,45.79c-1.08,31.19-2.16,62.39-3.23,93.58C376.56,973.05,391.56,973.04,391.9,963.4L391.9,963.4z"/>
		</g>
	</g>
	<g>
		<path class="st2" d="M1162.17,896.82c1.51,48.17,3.01,96.35,4.52,144.52c0.37,11.98,0.85,24.38,6.14,35.13
			c5.29,10.75,16.83,19.41,28.64,17.44c17.69-2.96,23.77-24.95,25.63-42.79c8.59-82.55,7.53-166.09-3.17-248.39
			c-1.32-10.13-2.86-20.49-7.83-29.41c-4.97-8.92-14.13-16.22-24.34-16.06c-19.54,0.3-28.49,24.43-30.18,43.9
			c-2.78,31.99-0.14,64.45,7.77,95.58"/>
		<g>
			<path class="st3" d="M1154.67,896.82c0.91,29.04,1.82,58.07,2.72,87.11c0.45,14.52,0.91,29.04,1.36,43.55
				c0.41,13.2,0.06,26.8,2.98,39.76c4.92,21.81,27.06,43.28,50.27,30.85c18.33-9.81,21.38-34.41,23.19-52.83
				c5.61-56.9,6.63-114.26,3.07-171.33c-1.73-27.71-3.64-56.01-8.62-83.35c-2.13-11.7-6.46-23.64-15.57-31.75
				c-8.2-7.29-19.36-11.11-30.19-7.95c-22.27,6.49-28.63,33.95-30.11,54.02c-2.32,31.45,0.67,63.23,8.34,93.81
				c2.35,9.36,16.82,5.39,14.46-3.99c-5.98-23.84-8.89-48.25-8.55-72.84c0.23-16.63,0.14-38.92,12.62-51.88
				c5.35-5.54,12.85-6.87,19.62-2.85c8.58,5.11,12.23,14.74,14.25,24.05c2.61,12.05,3.59,24.57,4.89,36.81
				c1.31,12.35,2.4,24.72,3.27,37.1c3.59,50.85,3.54,101.95-0.15,152.78c-0.88,12.07-1.61,24.28-3.3,36.27
				c-1.1,7.81-2.94,15.99-6.95,22.86c-3.71,6.35-9.85,10.99-17.53,9.25c-9.34-2.12-15.23-11.12-17.71-19.75
				c-3.6-12.5-2.88-26.18-3.28-39.06c-0.45-14.52-0.91-29.04-1.36-43.55c-0.91-29.04-1.82-58.07-2.72-87.11
				C1169.37,887.19,1154.37,887.15,1154.67,896.82L1154.67,896.82z"/>
		</g>
	</g>
</g>
<g id="Ebene_12">
	<g>
		<path class="st4" d="M317.61,810.57c-63.32,11.46-114.93,69.92-118.46,134.17s41.37,128.01,103.05,146.33
			c-7.53-90.73-5.04-182.29,7.4-272.48"/>
		<g>
			<path class="st5" d="M315.61,803.34c-51.71,9.66-95.04,48.44-114.22,96.86c-20.02,50.53-7.77,107.27,26.04,148.82
				c18.8,23.1,44.24,40.63,72.78,49.28c4.38,1.33,9.89-2.4,9.49-7.23c-5.77-70.19-5.65-140.82,0.48-210.98
				c1.74-19.88,3.94-39.73,6.65-59.51c0.55-4.04-0.98-8.01-5.24-9.23c-3.49-1-8.68,1.23-9.23,5.24
				c-9.7,70.78-13.61,142.25-11.21,213.67c0.68,20.29,1.88,40.57,3.54,60.8c3.16-2.41,6.33-4.82,9.49-7.23
				c-46.19-14-82.08-54.13-93.8-100.6c-11.81-46.82,4.91-95.58,39.17-128.78c19.32-18.73,43.54-31.71,70.02-36.65
				C329.08,816.03,325.07,801.57,315.61,803.34L315.61,803.34z"/>
		</g>
	</g>
	<g>
		<path class="st4" d="M1234.23,807.24c23.56,84.84,26.42,175.35,8.26,261.51c27.94,2.86,55.17-14.18,71.04-37.36
			c15.87-23.18,22.1-51.58,25.32-79.48c4.03-34.99,3.43-72.13-13.23-103.16c-16.67-31.03-53.25-53.53-87.26-44.37"/>
		<g>
			<path class="st5" d="M1227,809.23c17.95,65.07,23.73,133.12,17.11,200.3c-1.89,19.23-4.9,38.31-8.85,57.22
				c-1.06,5.08,2.19,9.04,7.23,9.49c25.62,2.29,50.53-10.24,67.69-28.73c18.98-20.46,28.44-47.77,33.21-74.82
				c9.06-51.4,10.24-115.47-31.57-153.66c-20.28-18.53-48.19-28.88-75.45-21.9c-9.34,2.39-5.38,16.87,3.99,14.46
				c20.34-5.21,41.63,1.98,57.49,15.11c18.16,15.03,28.26,36.13,32.73,58.99c4.76,24.35,3.26,50.05-0.28,74.47
				c-3.53,24.34-9.91,49.13-24.56,69.31c-14.48,19.95-38.13,34.01-63.24,31.77c2.41,3.16,4.82,6.33,7.23,9.49
				c14.29-68.39,15.76-138.97,4.42-207.9c-3.19-19.41-7.45-38.63-12.69-57.6C1238.9,795.95,1224.43,799.9,1227,809.23L1227,809.23z"
				/>
		</g>
	</g>
</g>
<g id="Ebene_13">
	<g>
		<path class="st6" d="M305.04,794.45c26.54-103.39,95.37-193.73,183.41-254.08s194.21-91.72,300.77-97.81
			c108.83-6.22,221.73,14.46,312.64,74.62c90.91,60.16,156.48,163.33,155.76,272.34c15.8,1.22,22.87-19.48,23.07-35.33
			c0.9-73.37-32.19-144.77-82.16-198.49c-49.97-53.73-115.74-90.9-184.78-115.72c-147.49-53.01-315.95-50.57-458.09,15.46
			S301.08,652.54,266.4,805.39c13.42,8.58,33.01,5.61,43.29-6.57"/>
		<g>
			<path class="st7" d="M312.28,796.45c20.11-77.67,64.06-147.55,122.01-202.63c62.17-59.09,139.97-99.57,222.38-122.2
				c83.8-23.02,173.76-29.36,259.74-15.84c83.07,13.06,164.52,45.69,226.77,103.37c56.54,52.4,97.96,124.21,105.62,201.72
				c0.94,9.52,1.36,19.08,1.33,28.65c-0.02,4.18,3.45,7.33,7.5,7.5c21.6,0.92,29.89-23.99,30.54-41.6
				c0.88-24.12-2.89-48.91-9.15-72.15c-12.67-46.98-37.42-90.34-69.57-126.69c-66.08-74.74-161.98-119.74-257.57-143.01
				c-98.95-24.09-203.94-24.74-302.71,0.63c-90.91,23.35-174.84,69.57-242.69,134.47c-63.96,61.19-113.26,138.27-138.95,223.17
				c-3.15,10.42-5.92,20.96-8.35,31.57c-0.76,3.31,0.51,6.69,3.45,8.47c16.61,10.08,39.45,6.88,52.38-7.74
				c6.37-7.21-4.2-17.86-10.61-10.61c-8.6,9.73-23.02,12.18-34.2,5.4c1.15,2.82,2.3,5.65,3.45,8.47
				c18.94-82.83,60.73-159.35,117.91-221.99c59.04-64.69,133.68-114.28,216.41-143.11c92.57-32.26,193.31-39.77,289.98-24.32
				c93.67,14.97,188.92,50.09,262.22,111.66c36.02,30.26,66.11,67.08,86.53,109.58c10.04,20.9,17.51,43.06,21.99,65.82
				c2.23,11.29,3.64,22.7,4.22,34.19c0.49,9.87,0.96,19.91-2,29.45c-1.99,6.42-5.66,13.67-13.28,13.35c2.5,2.5,5,5,7.5,7.5
				c0.3-81.35-35.07-159.15-89.29-218.74c-58.22-63.98-137.79-104.26-221.57-123.04c-87.76-19.67-180.5-17.72-268.21,1.23
				c-87.3,18.86-171.02,56.53-239.73,114.04C383.15,615.89,333.07,685.3,306.45,763.5c-3.25,9.54-6.11,19.2-8.64,28.95
				C295.39,801.81,309.85,805.8,312.28,796.45L312.28,796.45z"/>
		</g>
	</g>
</g>
<g id="Ebene_2">
</g>
<g id="Ebene_4_2_">
</g>
<g id="Ebene_5_1_">
</g>
<g id="Ebene_6_1_">
	<g>
		<g>
			<path d="M400.26,837.46c10.12,0,10.14-15.73,0-15.73C390.14,821.74,390.12,837.46,400.26,837.46L400.26,837.46z"/>
		</g>
	</g>
	<g>
		<g>
			<path d="M323.61,1124.67c10.12,0,10.14-15.73,0-15.73C313.5,1108.95,313.48,1124.67,323.61,1124.67L323.61,1124.67z"/>
		</g>
	</g>
	<g>
		<g>
			<path d="M1228.11,800.72c10.12,0,10.14-15.73,0-15.73C1217.99,785,1217.98,800.72,1228.11,800.72L1228.11,800.72z"/>
		</g>
	</g>
	<g>
		<g>
			<path d="M1150.44,909.78c-0.03,24.94-1.18,49.84-2.08,74.76c-0.74,20.61-1.51,41.39,0.26,61.97
				c1.32,15.34,3.75,31.93,12.27,45.14c8.14,12.62,20.86,19.36,35.67,20.64c7.71,0.67,14.11-1.01,19.53-6.73
				c5.3-5.6,8.58-12.74,11.42-19.81c7.88-19.65,11.4-41.17,14.26-62.03c7.75-56.6,8.97-114.94,2.8-171.76
				c-2.61-24.05-6.26-48.64-14.72-71.43c-5.74-15.47-14.48-33.43-31.17-39.34c-9.75-3.45-20.73-1.26-28.72,5.17
				c-10.35,8.33-14.79,22.44-17.28,34.98c-6.93,34.93-3.88,71.49-2.63,106.81c0.26,7.26,0.48,14.53,0.49,21.8
				c0.01,10.12,15.74,10.14,15.73,0c-0.05-32.99-3.22-65.92-1.35-98.91c0.79-13.99,2.1-28.9,7.66-41.93
				c1.71-4.01,4.14-8.12,7.99-11.21c-1.29,1.03,1.3-0.74,1.71-1.01c1.73-1.12-0.18-0.24,1.77-0.8c1.1-0.31,2.19-0.62,3.32-0.8
				c-1.62,0.25,1.3-0.02,1.96-0.01c0.66,0.01,1.32,0.1,1.97,0.12c1.51,0.04-1.99-0.47-0.54-0.06c0.37,0.1,0.77,0.12,1.14,0.24
				c0.62,0.19,1.25,0.36,1.87,0.53c0.25,0.07,0.49,0.19,0.74,0.26c1.92,0.5-1.16-0.66-0.07-0.03c1.17,0.67,2.34,1.3,3.5,2
				c1.92,1.16-0.21-0.29,0.43,0.27c0.71,0.62,1.43,1.22,2.12,1.87c1.17,1.11,2.22,2.32,3.28,3.54c1.41,1.63-0.71-1.11,0.56,0.71
				c0.58,0.83,1.18,1.65,1.73,2.5c2.25,3.41,4.16,7.03,5.87,10.74c0.42,0.92,0.83,1.84,1.23,2.77c-0.79-1.84,0.48,1.22,0.63,1.6
				c0.88,2.24,1.7,4.5,2.47,6.78c1.67,4.95,3.11,9.97,4.39,15.04c2.84,11.24,4.91,22.68,6.54,34.15c3.54,24.84,5.08,53.1,5.3,79.37
				c0.24,27.45-0.88,54.95-3.59,82.27c-2.18,22-5.14,43.69-11.26,65.77c-1.15,4.16-2.43,8.28-3.9,12.34c-0.61,1.68-1.26,3.35-1.95,5
				c0.94-2.26-0.37,0.79-0.62,1.32c-0.4,0.85-0.81,1.7-1.24,2.53c-0.66,1.29-1.37,2.56-2.13,3.79c-0.35,0.57-0.73,1.12-1.09,1.68
				c-0.21,0.32-0.46,0.62-0.67,0.94c-0.78,1.21,1.27-1.46,0.33-0.42c-0.83,0.93-1.68,1.82-2.53,2.72c-0.61,0.66-2.1,1.2,0.18-0.06
				c-0.35,0.2-1.05,0.98-1.44,0.94c-0.1-0.01-0.51,0.25-0.61,0.32c-0.56,0.41-1.46,0.05,1.02-0.41c-0.42,0.08-0.81,0.32-1.24,0.4
				c-2,0.36,1.77,0.17,0.45-0.02c-1.33-0.19-2.81,0-4.16-0.08c-5.49-0.33-10.73-1.75-15.3-4.61c-4.06-2.55-7.31-6.39-9.95-11.21
				c-2.79-5.1-4.6-11.06-5.97-17.35c-3.67-16.93-3.63-34.65-3.43-51.88c0.26-22.23,1.48-44.45,2.18-66.67
				c0.37-11.71,0.61-23.43,0.62-35.15C1166.18,899.66,1150.45,899.64,1150.44,909.78L1150.44,909.78z"/>
		</g>
	</g>
	<g>
		<g>
			<path d="M1150.56,765.26c10.12,0,10.14-15.73,0-15.73C1140.44,749.54,1140.42,765.26,1150.56,765.26L1150.56,765.26z"/>
		</g>
	</g>
	<g>
		<g>
			<path d="M395.13,795.44c-9.4,64.97-18.84,130.52-14.26,196.32c0.7,10.04,16.43,10.12,15.73,0
				c-4.49-64.41,4.49-128.55,13.7-192.14c0.61-4.2-1.04-8.45-5.49-9.67C401.11,788.93,395.74,791.21,395.13,795.44L395.13,795.44z"
				/>
		</g>
	</g>
	<g>
		<g>
			<path d="M394.85,797.53c-2.04,29.46-5.98,58.75-8.1,88.21c-2.83,39.25-3.44,78.79,0.65,117.98c4.54,43.45,14.7,86.36,33.86,125.8
				c20.67,42.54,52.04,78.86,90.88,105.8c49.97,34.66,109.91,52.7,169.61,61.24c40.76,5.83,81.96,7.64,123.09,6.73
				c39.9-0.88,80.73-2.54,119.49-12.84c58.42-15.53,108.44-50.26,144.89-98.25c34.63-45.6,55.98-100.4,69.5-155.66
				c12.96-52.97,19.1-107.58,21.17-162.01c1.45-38,0.69-76-1.25-113.97c-0.25-4.87-0.52-9.74-0.73-14.61
				c-0.44-10.08-16.17-10.13-15.73,0c1.37,31.03,2.93,61.99,2.75,93.07c-0.28,50.76-3.85,101.78-12.52,150.98
				c-9.67,54.93-25.46,109.25-52.81,157.67c-27.6,48.86-67.15,89.42-118.63,113.11c-28.28,13.02-59.66,20.47-90.82,23.24
				c-43.98,3.91-88.41,5.03-132.5,2.43c-63.99-3.77-129.62-16-186.37-45.82c-42.14-22.15-77.61-53.77-102.36-93.49
				c-22.41-35.96-35.26-75.23-42.36-117.8c-0.41-2.48-0.8-4.96-1.17-7.44c-0.2-1.35-0.4-2.7-0.59-4.06
				c-0.09-0.68-0.19-1.35-0.28-2.03c0.19,1.42,0,0-0.08-0.61c-0.65-5.16-1.25-10.33-1.74-15.51c-0.98-10.21-1.65-20.45-2.05-30.7
				c-0.76-19.39-0.55-38.8,0.32-58.18c1.45-32.21,5.06-64.22,8.14-96.3c0.54-5.65,1.05-11.31,1.44-16.97
				C411.28,787.43,395.55,787.47,394.85,797.53L394.85,797.53z"/>
		</g>
	</g>
	<g>
		<g>
			<path d="M406.68,804.32c39.21-21.34,83.81-33.14,127.23-43.13c49.86-11.47,100.49-19.65,151.21-26.2
				c40.32-5.21,80.78-9.39,121.3-12.63c10.76-0.86,21.53-1.66,32.3-2.34c1.95-0.12,3.91-0.18,5.85-0.36
				c4.83-0.43,6.98-3.76,9.61-7.23c27.45-36.19,54.82-73.22,77.27-112.77c2.69-4.74,5.28-9.55,7.67-14.45
				c-4.88-1.32-9.77-2.65-14.65-3.97c-4.84,43.48-9.4,86.98-11.94,130.67c-0.24,4.15,3.8,8,7.86,7.86
				c77.26-2.53,153.42,13.49,227.56,33.75c9.78,2.67,13.95-12.49,4.18-15.16c-75.4-20.61-153.17-36.88-231.74-34.31
				c2.62,2.62,5.24,5.24,7.86,7.86c2.54-43.69,7.1-87.19,11.94-130.67c0.86-7.73-11.34-10.75-14.65-3.97
				c-10.89,22.31-24.95,43.14-38.95,63.58c-12.92,18.86-26.31,37.4-40,55.7c-2.82,3.77-5.65,7.53-8.51,11.26
				c2.26-1.3,4.53-2.6,6.79-3.89c-38.62,2.13-77.21,5.82-115.65,10.07c-75.51,8.34-151.31,19.19-224.94,38.24
				c-36.12,9.35-72.62,20.6-105.53,38.51C389.85,795.58,397.78,809.16,406.68,804.32L406.68,804.32z"/>
		</g>
	</g>
	<g>
		<g>
			<path d="M395.36,997.6c-2.66-30.28-0.43-61.17,0.89-91.46c1.41-32.35,3.62-64.84,2.84-97.23c-0.22-9.17-0.12-19.51-3.18-28.27
				c-5.85-16.7-23.73-22.25-39.4-16.23c-28.87,11.1-41.22,39.78-47.94,67.64c-7.14,29.59-10.33,60.23-12.29,90.55
				c-2.13,32.93-2.47,66.04-0.63,98.99c1.45,26.01,3.53,53.07,11.24,78.1c4.44,14.44,11.29,27.79,26.9,31.86
				c15.48,4.04,31.62-2.17,41.91-14.09c18.86-21.86,21.66-54.35,21.57-81.93c-0.04-11.52-0.78-23.01-1.91-34.47
				c-0.42-4.23-3.32-7.86-7.86-7.86c-3.93,0-8.28,3.61-7.86,7.86c1.96,19.87,2.84,40.01,0.69,59.91
				c-1.3,12.04-4.36,25.48-9.27,35.22c-1.09,2.15-2.28,4.26-3.6,6.27c-0.61,0.93-1.25,1.85-1.92,2.74c1.01-1.35-0.77,0.93-1.16,1.37
				c-1.3,1.49-2.71,2.83-4.16,4.17c-0.27,0.25-0.57,0.48-0.85,0.72c-1.43,1.24,1.39-0.96-0.13,0.11c-0.72,0.51-1.44,1.02-2.18,1.48
				c-1.42,0.89-2.9,1.65-4.42,2.35c2.2-1.03-0.21,0.07-0.79,0.25c-0.74,0.23-1.47,0.47-2.22,0.67c-0.73,0.19-1.47,0.33-2.21,0.5
				c-2.28,0.53,0.11,0.07-0.53,0.1c-1.42,0.07-2.83,0.2-4.26,0.15c-0.69-0.02-1.37-0.11-2.06-0.14c-2.08-0.08,1.67,0.47-0.31-0.05
				c-1.26-0.33-2.53-0.54-3.78-0.93c-0.6-0.19-1.17-0.43-1.77-0.62c-0.7-0.22,1.78,0.99-0.12-0.08c-1.01-0.56-2-1.16-3.01-1.72
				c-1.73-0.97,0.35,0.39,0.01,0.06c-0.38-0.36-0.81-0.66-1.18-1.04c-0.35-0.36-0.69-0.74-1.04-1.09c-1.48-1.45,0.2,0.43-0.28-0.34
				c-0.86-1.37-1.75-2.68-2.51-4.11c-0.42-0.79-0.8-1.59-1.19-2.39c-0.16-0.33-0.31-0.68-0.46-1.02c-0.74-1.59,0.49,1.27-0.11-0.26
				c-8.23-20.78-10.47-43.32-12.28-65.08c-2.55-30.56-2.84-61.33-1.72-91.96c1.09-29.66,3.41-59.43,8.53-88.69
				c2.08-11.88,4.6-23.73,8.18-35.25c0.76-2.43,1.56-4.85,2.44-7.24c0.92-2.5,1.64-4.3,2.06-5.23c2.39-5.22,5.14-10.25,8.82-14.7
				c6.96-8.4,25.43-25.07,36.73-14.74c1.41,1.29,2.11,2.74,3.14,4.29c0.92,1.39-0.39-1.79,0.04,0.04c0.34,1.47,0.84,2.9,1.13,4.39
				c0.18,0.9,0.31,1.81,0.45,2.72c-0.34-2.24,0.13,1.15,0.17,1.6c0.25,2.37,0.42,4.75,0.55,7.13c1.61,28.76-0.41,57.81-1.68,86.54
				c-1.38,31.11-3.26,62.32-2.58,93.47c0.12,5.65,0.36,11.3,0.85,16.93C380.51,1007.6,396.24,1007.69,395.36,997.6L395.36,997.6z"/>
		</g>
	</g>
	<g>
		<g>
			<path d="M319.21,802.27c-30.08,0.11-59.7,7.86-83.26,27.16c-19.65,16.1-32.57,39.15-39.76,63.25
				c-7.03,23.55-9.11,48.78-7.3,73.24c1.51,20.46,5.3,41.44,14.25,60.06c19.25,40.04,60.25,69.34,104.69,72.54
				c10.1,0.73,10.05-15,0-15.73c-37.66-2.71-70.87-27.65-88.74-60.17c-1.11-2.02-2.15-4.07-3.11-6.16c-0.28-0.6-1.06-2.45-0.41-0.87
				c-0.44-1.06-0.86-2.12-1.27-3.19c-1.53-4.02-2.82-8.12-3.95-12.27c-2.63-9.64-4.34-19.59-5.22-28.3
				c-4.42-43.37,2.85-92.88,34.45-124.49c20.93-20.94,50.15-29.23,79.62-29.34C329.33,817.96,329.35,802.24,319.21,802.27
				L319.21,802.27z"/>
		</g>
	</g>
	<g>
		<g>
			<path d="M1230.2,800.44c1.06-0.24,2.13-0.44,3.2-0.63c0.34-0.06,1.53-0.2-0.1,0c0.45-0.06,0.91-0.11,1.36-0.15
				c2.37-0.19,4.73-0.31,7.11-0.27c5.63,0.1,8.08,0.44,13.42,1.59c11.26,2.43,20.89,6.42,30.73,12.21
				c23.23,13.66,41.58,35.37,51.35,60.49c12.66,32.55,12.02,69.76,5.91,103.72c-4.77,26.48-14.5,53.13-34.62,71.8
				c-21.58,20.03-51.55,25.71-80.46,24.61c-10.12-0.39-10.1,15.34,0,15.73c29.04,1.11,59.29-4.27,82.96-22.09
				c24.13-18.16,38.06-45.73,44.94-74.65c4.37-18.37,6.25-37.36,6.69-56.21c0.45-19.42-1.2-38.88-6.94-57.52
				c-9.3-30.24-28.31-56.73-54.41-74.68c-21.19-14.58-49.45-24.97-75.34-19.12C1216.16,787.51,1220.33,802.67,1230.2,800.44
				L1230.2,800.44z"/>
		</g>
	</g>
	<g>
		<g>
			<path d="M377.14,769c10.12,0,10.14-15.73,0-15.73C367.02,753.27,367,769,377.14,769L377.14,769z"/>
		</g>
	</g>
	<g>
		<g>
			<path d="M387.2,754.52c27.96-81.02,83.84-151.9,155.43-198.9c35.96-23.61,75.22-41.1,117.52-49.45
				c44.48-8.78,90.62-8.79,135.52-3.37c49.38,5.96,98.62,19,143.89,39.73c3.71,1.7,8.03,1.03,10.26-2.69
				c1.92-3.21,0.98-8.58-2.69-10.26c-42.05-19.25-86.89-32.16-132.58-39.19c-47.11-7.25-95.15-8.58-142.36-1.46
				c-88.24,13.3-168.2,64.25-225.34,131.83c-32.42,38.35-57.73,82.29-74.11,129.79C369.58,759.68,384.07,763.61,387.2,754.52
				L387.2,754.52z"/>
		</g>
	</g>
	<g>
		<g>
			<path d="M945.34,543.28c37.94-9.19,78.29-8.96,115.6,4.85c44.97,16.66,78.94,53.49,100.29,96.18
				c17.42,34.83,27.18,73.15,33.21,111.46c0.63,3.99,5.64,6.24,9.23,5.24c4.26-1.19,5.87-5.19,5.24-9.23
				c-9.92-63.05-30.97-128.67-77-174.97c-32.51-32.69-75.68-51.44-121.54-54.42c-23.13-1.5-46.51,0.97-69.01,6.42
				C931.98,531.08,935.95,545.55,945.34,543.28L945.34,543.28z"/>
		</g>
	</g>
	<g>
		<g>
			<path d="M317.88,799.52c9.39-45.04,25.59-88.19,49.33-127.61c22.21-36.88,50.38-69.51,83.25-97.55
				c32.09-27.38,68.88-50.08,107.52-67.9c38.83-17.9,80.7-31.07,122.98-39.72c42.56-8.71,85.66-12.81,129.41-12.63
				c43.23,0.18,85.39,4.5,127.36,13.5c39.89,8.55,79.33,21.3,115.49,38.56c34.74,16.58,67.13,37.25,95.03,62.69
				c27.32,24.9,49.14,52.64,65.54,85.87c16.12,32.67,25.28,70.3,26.77,106.96c0.4,9.94,0.3,19.89-0.24,29.83
				c-0.52,9.65,14.48,9.62,15,0c2.15-39.84-3.09-80.24-17.08-117.7c-13.32-35.66-33.86-68.1-59.68-96.03
				c-26.3-28.44-57.78-52.04-91.51-70.97c-36.04-20.23-74.93-35.43-114.78-46.26c-42.03-11.43-85.39-18.07-128.86-20.47
				c-44.78-2.47-89.74-0.22-134.09,6.45c-43.91,6.6-87.18,17.81-128.53,34.03c-40.91,16.05-80.02,36.79-115.4,62.93
				c-35.6,26.31-67.16,57.58-93.08,93.5c-27.03,37.46-47.26,79.68-60.27,123.97c-3.35,11.4-6.2,22.94-8.63,34.57
				C301.45,804.95,315.91,808.98,317.88,799.52L317.88,799.52z"/>
		</g>
	</g>
	<g>
		<g>
			<path d="M277.19,810.14c2.83-46.52,14.3-93.79,34.05-135.77c19.42-41.26,45.69-77.52,77.77-109.47
				c32.73-32.6,69.75-59.16,110.46-81.31c41.84-22.76,85.76-39.77,131.9-52.23c47.09-12.71,94.44-20.14,142.92-22.65
				c48.06-2.48,97.03-0.04,143.79,7.82c45.75,7.69,91.88,20.75,133.55,39.33c41.02,18.28,79.57,42.18,112.49,71.78
				c33.47,30.11,60.43,64.89,80.61,105.17c21.28,42.47,33.7,90.42,37.69,138c1.1,13.08,1.6,26.2,1.62,39.33
				c0.01,9.65,15.01,9.67,15,0c-0.05-51.79-8.14-103.88-26.93-152.28c-16.96-43.67-42.05-83.72-74.05-117.96
				c-31.16-33.34-68.44-60.85-108.67-82.27c-41.78-22.25-86.82-38.27-132.93-48.77c-47.89-10.91-97.14-16.08-146.23-16.08
				c-49.83,0-99.73,5.33-148.45,15.79c-48.07,10.32-95.05,25.85-139.58,46.74c-43.17,20.26-83.89,45.88-120.06,77.02
				c-35.15,30.27-65.77,66.08-89.06,106.26c-23.9,41.24-39.87,86.96-46.92,134.09c-1.86,12.42-3.2,24.92-3.96,37.46
				C261.6,819.78,276.61,819.74,277.19,810.14L277.19,810.14z"/>
		</g>
	</g>
</g>
<g id="Ebene_7">
	<ellipse class="st8" cx="691.76" cy="954.26" rx="17" ry="47"/>
	<ellipse class="st8" cx="691.76" cy="954.26" rx="17" ry="47"/>
	<ellipse class="st8" cx="691.76" cy="954.26" rx="17" ry="47"/>
	<ellipse class="st8" cx="827.76" cy="954.26" rx="17" ry="47"/>
	<g>
		<g>
			<path d="M771.96,1027.22c-11.61-1.71-22.95,2.08-30.98,10.83c-7.77,8.47-11.82,20.59-8.27,31.85c6.31,20,31.24,29.84,49.54,19.96
				c8.5-4.59,0.93-17.55-7.57-12.95c-9.54,5.15-23.25-0.2-27.26-10.23c-4.79-11.99,8.03-26.84,20.55-24.99
				c4.04,0.6,8.02-1.01,9.23-5.24C778.2,1032.92,775.96,1027.81,771.96,1027.22L771.96,1027.22z"/>
		</g>
	</g>
	<g>
		<g>
			<path d="M641.84,1126.2c14.85,38.34,48.84,67.8,88.87,77.39c39.63,9.49,80.89-2.69,110.9-29.79
				c16.84-15.21,29.45-34.91,35.89-56.68c2.74-9.28-11.73-13.24-14.46-3.99c-9.93,33.59-37.08,61.24-70.06,72.8
				c-34.38,12.05-71.97,4.81-100.86-17.02c-15.78-11.93-28.63-28.21-35.8-46.7c-1.46-3.76-5.04-6.41-9.23-5.24
				C643.48,1117.98,640.37,1122.39,641.84,1126.2L641.84,1126.2z"/>
		</g>
	</g>
	<ellipse class="st9" cx="696.26" cy="933.51" rx="4.5" ry="7.5"/>
	<ellipse class="st9" cx="696.26" cy="933.51" rx="4.5" ry="7.5"/>
	<ellipse class="st9" cx="832.26" cy="933.51" rx="4.5" ry="7.5"/>
</g>
<g id="Ebene_14">
	<g class="st10">
		<path d="M247.94,830.1c-25.3,87.38-5.05,186.63,52.45,257.12c-51.25-9.97-88.47-59.47-95.99-111.14
			c-7.52-51.67,9.85-104.17,35.52-149.63"/>
		<g>
			<path d="M240.71,828.11c-20.14,70.35-11.95,147.44,20.8,212.72c9.25,18.44,20.59,35.68,33.58,51.7c2.43-4.18,4.86-8.36,7.3-12.54
				c-34.74-7.02-61.84-32.37-77.47-63.43c-18.32-36.43-17.93-78.65-7.51-117.35c6.51-24.21,16.74-47.16,28.99-68.98
				c4.73-8.43-8.22-16-12.95-7.57c-23.13,41.19-40.07,87.93-38.17,135.78c1.58,39.78,17.61,79.18,47.07,106.5
				c15.73,14.58,34.94,25.25,56.04,29.51c7.66,1.55,12.02-6.71,7.3-12.54c-43.54-53.7-64.74-124.16-60.42-192.95
				c1.21-19.28,4.58-38.31,9.9-56.87C257.84,822.8,243.37,818.83,240.71,828.11L240.71,828.11z"/>
		</g>
	</g>
	<g class="st10">
		<path d="M353.82,780.37c-27.86,109.55-27.15,226.23,2.04,335.44c-14.14,3.72-29-6.26-35.79-19.21
			c-6.79-12.95-7.44-28.13-7.95-42.75c-3.18-91.6-5.87-186.22,27.69-271.52"/>
		<g>
			<path d="M346.59,778.37c-21.87,86.51-26.25,176.9-13.27,265.16c3.68,25.03,8.82,49.82,15.31,74.26c1.75-3.08,3.49-6.15,5.24-9.23
				c-8.85,2.04-17.35-2.87-23.03-9.39c-6.96-7.99-9.35-19.18-10.34-29.46c-2.18-22.78-2-46.03-2.41-68.9
				c-0.85-46.68,0-93.76,7.96-139.87c4.51-26.16,11.33-51.89,20.99-76.63c1.48-3.8-1.63-8.19-5.24-9.23
				c-4.23-1.21-7.76,1.48-9.23,5.24c-18.54,47.49-26.19,98.33-28.69,149.05c-1.23,25.01-1.22,50.07-0.72,75.11
				c0.26,12.81,0.65,25.62,1.08,38.42c0.42,12.51,0.47,25.16,2.68,37.52c2.22,12.37,7.38,24.6,16.99,33.02
				c9.45,8.28,21.49,12.44,33.93,9.57c3.97-0.92,6.25-5.44,5.24-9.23c-22.35-84.11-27.97-172.6-16.2-258.86
				c3.34-24.44,8.11-48.68,14.16-72.59C363.42,773,348.96,769,346.59,778.37L346.59,778.37z"/>
		</g>
	</g>
	<g class="st10">
		<path d="M406.58,801.13c-6.94,142.86,59.49,287.36,172.46,375.09s269.42,116.32,406.11,74.22
			c-95.34,46.76-206.53,63.16-309.92,38.96c-103.4-24.19-197.67-90.33-249.73-182.89s-58.93-210.76-11.9-305.97"/>
		<g>
			<path d="M399.08,801.13c-2.62,55.99,5.72,112.43,23.71,165.48c18.07,53.27,45.59,103.09,81.18,146.66
				c35.79,43.81,79.98,80.55,129.7,107.56c50.31,27.33,105.56,44.81,162.28,52.27c56.76,7.46,115.02,4.42,170.55-9.63
				c6.93-1.75,13.81-3.69,20.64-5.79c-1.93-4.57-3.85-9.14-5.78-13.71c-58.93,28.77-123.74,45.87-189.31,48.64
				c-61.75,2.61-124.19-7.57-181.04-32.19c-52.12-22.58-99.42-56.04-137.06-98.66c-39.36-44.56-66.36-98.75-78-157.07
				c-11.92-59.73-7.4-122.87,14.94-179.66c2.76-7.03,5.87-13.9,9.19-20.68c4.24-8.64-8.7-16.25-12.95-7.57
				c-28.08,57.26-37.84,122.42-29.87,185.58c7.88,62.44,32.11,121.5,70.62,171.28c36.11,46.67,83.39,84.49,136.18,110.74
				c56.7,28.19,119.26,42.7,182.53,43.6c68.33,0.97,136.42-13.55,199.14-40.4c7.83-3.35,15.56-6.91,23.21-10.65
				c7.66-3.74,2.29-16.18-5.78-13.71c-53.12,16.25-108.97,21.84-164.31,17.33c-55.3-4.51-110.06-19.31-159.97-43.59
				c-49.51-24.09-93.87-57.41-130.67-98.37c-36.11-40.2-64.84-87.3-84.33-137.69c-19.65-50.81-30.33-105.04-30.3-159.56
				c0-6.73,0.18-13.47,0.5-20.19C414.53,791.48,399.53,791.51,399.08,801.13L399.08,801.13z"/>
		</g>
	</g>
	<g class="st10">
		<path d="M749.52,496.19c-143.15,39.27-265.46,148.13-321.05,285.77c-15.39,10.04-37.32-4.36-41.26-22.3s4.29-36.18,13.3-52.19
			c64.43-114.44,183.48-196.49,313.36-215.97"/>
		<g>
			<path d="M747.52,488.96c-56.76,15.67-110.49,41.96-157.99,76.72c-47.48,34.75-88.86,77.49-121.71,126.34
				c-18.57,27.62-34.08,57.11-46.6,87.95c1.15-1.49,2.3-2.99,3.45-4.48c-10.85,6.61-24-2.85-28.65-12.95
				c-7.39-16.07,2.34-35.74,10.08-49.73c15.13-27.33,33.57-52.82,54.51-75.97c42.43-46.91,95.06-84.4,153.24-109.22
				c32.58-13.9,66.98-23.57,101.99-28.89c4-0.61,6.24-5.65,5.24-9.23c-1.2-4.28-5.19-5.85-9.23-5.24
				c-63.02,9.57-123.69,33.63-176.74,68.89c-52.98,35.21-98.67,81.43-132.23,135.54c-16.12,25.98-39.02,66.38-11.35,92.87
				c10.28,9.84,26.52,15.19,39.61,7.54c3.68-2.15,4.68-5.56,6.23-9.29c1.57-3.77,3.21-7.51,4.89-11.23
				c3.18-7.03,6.53-13.98,10.05-20.84c28.63-55.73,68.35-105.36,115.87-146.15c47.11-40.44,102.14-72.05,161.14-91.48
				c7.33-2.41,14.72-4.63,22.16-6.69C760.8,500.86,756.86,486.39,747.52,488.96L747.52,488.96z"/>
		</g>
	</g>
	<g class="st10">
		<path d="M931.29,591.51c-2.13,39.29-4.26,78.57-6.38,117.86c32.17,1.2,64.35,2.39,96.52,3.59
			c-34.45-40.74-62.91-86.53-84.19-135.46"/>
		<g>
			<path d="M923.79,591.51c-2.13,39.29-4.26,78.57-6.38,117.86c-0.23,4.16,3.62,7.36,7.5,7.5c32.17,1.2,64.35,2.39,96.52,3.59
				c6.99,0.26,9.23-8.14,5.3-12.8c-34-40.34-61.9-85.6-83.02-133.94c-1.63-3.74-7.04-4.53-10.26-2.69
				c-3.85,2.19-4.3,6.57-2.69,10.26c21.65,49.56,50.51,95.63,85.36,136.98c1.77-4.27,3.54-8.54,5.3-12.8
				c-32.17-1.2-64.35-2.39-96.52-3.59c2.5,2.5,5,5,7.5,7.5c2.13-39.29,4.26-78.57,6.38-117.86
				C939.31,581.87,924.31,581.9,923.79,591.51L923.79,591.51z"/>
		</g>
	</g>
	<g class="st10">
		<path d="M1181.01,760.45c-10.65,112.01,0.19,226.02,31.74,334.02c-10.86,4.03-23.45-1.4-31.03-10.16s-11.17-20.2-14.18-31.39
			c-26.29-97.69-22.17-203.33,11.65-298.67"/>
		<g>
			<path d="M1173.51,760.45c-8.26,87.87-3.43,176.82,14.07,263.31c4.95,24.47,10.96,48.72,17.94,72.7c1.75-3.08,3.49-6.15,5.24-9.23
				c-22.41,7.46-32.24-22.16-36.45-38.06c-6.19-23.35-10.7-47.16-13.34-71.17c-5.21-47.47-3.78-95.77,4.6-142.8
				c4.78-26.84,11.79-53.25,20.86-78.96c3.22-9.12-11.27-13.04-14.46-3.99c-34.39,97.51-39.03,207.03-10.54,306.66
				c3.55,12.41,8.57,25.64,18.62,34.29c9.51,8.18,22.42,12.58,34.71,8.49c3.8-1.27,6.42-5.16,5.24-9.23
				c-24.38-83.8-36.36-170.92-35.39-258.2c0.28-24.65,1.61-49.28,3.91-73.83C1189.41,750.85,1174.4,750.91,1173.51,760.45
				L1173.51,760.45z"/>
		</g>
	</g>
	<g class="st10">
		<path d="M1240.39,802.85c1.75,86.27,3.5,172.55,5.26,258.82c0.08,3.73,0.2,7.65,2.11,10.85c5.22,8.77,18.66,6.03,27.48,0.89
			s19.17-11.78,28.35-7.32c-27.16-89.81-48.79-181.29-64.75-273.75"/>
		<g>
			<path d="M1232.89,802.85c0.98,48.11,1.95,96.23,2.93,144.34c0.49,24.22,0.98,48.45,1.48,72.67c0.24,11.95,0.49,23.89,0.73,35.84
				c0.2,9.74-0.09,20.63,9.03,26.66c7.56,5,17.64,3.71,25.64,0.53c8.88-3.54,18.87-13.78,28.9-9.56c5.39,2.27,10.73-4.24,9.23-9.23
				c-21.13-70-38.98-140.99-53.36-212.69c-4.07-20.3-7.86-40.66-11.39-61.07c-1.64-9.49-16.1-5.47-14.46,3.99
				c12.47,72.05,28.32,143.51,47.58,214.06c5.45,19.98,11.19,39.87,17.17,59.7c3.08-3.08,6.15-6.15,9.23-9.23
				c-9.1-3.83-18.67-0.43-26.9,3.94c-6.21,3.3-13,8.71-20.53,7.9c-2.61-0.28-3.91-1.26-4.59-3.84c-1.3-4.95-0.54-11.04-0.64-16.14
				c-0.24-11.61-0.47-23.23-0.71-34.84c-0.92-45.13-1.83-90.26-2.75-135.39c-0.53-25.88-1.05-51.76-1.58-77.65
				C1247.69,793.21,1232.69,793.18,1232.89,802.85L1232.89,802.85z"/>
		</g>
	</g>
</g>
<g id="Ebene_15">
	<g class="st10">
		<g>
			<path class="st11" d="M1069.25,809.4c1.01,18.32,1.16,36.68,0.37,55.02c-0.4,9.32-1.04,18.62-1.9,27.9
				c-0.39,4.19-0.83,8.38-1.32,12.56c-0.28,2.39-0.58,4.78-0.88,7.17c-0.1,0.77-0.57,3.93-0.01,0.05c-0.17,1.19-0.33,2.38-0.51,3.57
				c-5.28,36.31-14.12,72.11-26.36,106.71c-1.81,5.1-3.69,10.18-5.64,15.23c-0.87,2.24-1.75,4.48-2.65,6.71
				c-0.45,1.12-0.9,2.23-1.36,3.34c-0.18,0.43-2.03,4.9-1.07,2.61c0.85-2.02-0.31,0.73-0.4,0.93c-0.6,1.38-1.19,2.76-1.8,4.14
				c-1.09,2.48-2.19,4.95-3.32,7.41c-2.25,4.93-4.58,9.81-6.96,14.68c-4.6,9.38-2.85,22.07,7.17,27.36c9,4.76,22.44,2.85,27.36-7.18
				c34.37-70.07,54.54-146.27,59.17-224.2c1.26-21.32,1.27-42.7,0.09-64.03c-0.57-10.43-8.79-20.5-20-20
				C1078.91,789.87,1068.63,798.22,1069.25,809.4L1069.25,809.4z"/>
		</g>
	</g>
	<g class="st10">
		<g>
			<path class="st11" d="M1016.48,607.74c2.07,0.59,4.13,1.23,6.17,1.95c0.94,0.33,2.58,0.59,3.36,1.26
				c-0.84-0.71-3.23-1.47-0.81-0.34c3.9,1.84,7.72,3.79,11.39,6.06c1.83,1.13,3.63,2.33,5.38,3.57c2.64,1.87,0.68,1.4-0.02-0.12
				c0.28,0.6,1.71,1.37,2.23,1.81c3.5,2.91,6.81,6.05,9.9,9.39c1.47,1.58,2.86,3.23,4.25,4.88c1.61,1.9,0.46,0.21-0.47-0.65
				c0.83,0.78,1.46,1.98,2.11,2.91c2.47,3.53,4.72,7.21,6.72,11.03c0.85,1.62,2.64,4.02,2.82,5.81c-0.11-1.11-1.29-3.29-0.35-0.81
				c0.43,1.12,0.85,2.23,1.25,3.36c1.51,4.3,2.69,8.68,3.6,13.15c2.1,10.27,14.8,17.14,24.6,13.97c10.88-3.52,16.22-13.6,13.97-24.6
				c-8.83-43.15-43.35-79.13-85.47-91.18c-10.05-2.88-22.22,3.51-24.6,13.97C1000.08,593.8,1005.71,604.66,1016.48,607.74
				L1016.48,607.74z"/>
		</g>
	</g>
	<g class="st10">
		<g>
			<path class="st11" d="M1267.63,855.7c0.59,0.69,4.73,6.24,1.92,2.28c0.94,1.32,1.89,2.62,2.8,3.96c2.11,3.13,4.06,6.37,5.85,9.69
				c1.54,2.85,2.94,5.77,4.24,8.73c-2.03-4.6,0.65,1.88,0.96,2.75c0.54,1.53,1.06,3.06,1.53,4.61c1.04,3.35,1.93,6.75,2.66,10.18
				c0.4,1.85,0.71,3.71,1.06,5.56c0.98,5.3-0.33-4.28,0.16,1.1c0.68,7.56,0.82,15.04,0.16,22.61c-0.91,10.45,9.85,20.45,20,20
				c11.62-0.52,19.02-8.8,20-20c3.17-36.3-9.71-72.17-33.05-99.76c-6.78-8.02-21.39-7.51-28.28,0
				C1259.8,835.95,1260.39,847.15,1267.63,855.7L1267.63,855.7z"/>
		</g>
	</g>
	<g class="st10">
		<g>
			<path class="st11" d="M260.34,843.22c-2.09,32.82-4.17,65.64-6.26,98.45c-0.67,10.46,9.67,20.46,20,20
				c11.4-0.51,19.29-8.79,20-20c2.09-32.82,4.17-65.64,6.26-98.45c0.67-10.46-9.67-20.46-20-20
				C268.94,823.73,261.05,832.02,260.34,843.22L260.34,843.22z"/>
		</g>
	</g>
	<g class="st10">
		<g>
			<path class="st11" d="M350.78,807.73c-2.15,37.12-4.3,74.23-6.45,111.35c-0.61,10.46,9.63,20.46,20,20
				c11.35-0.51,19.35-8.79,20-20c2.15-37.12,4.3-74.23,6.45-111.35c0.61-10.46-9.63-20.46-20-20
				C359.43,788.24,351.43,796.52,350.78,807.73L350.78,807.73z"/>
		</g>
	</g>
	<g>
		<g id="Ebene_8_1_">
			<g class="st12">
				<path d="M405.42,1339.69c-54.71,53.12-97.89,106.22-156.7,163.32c138.29,5.04,287.11,4.8,409.87-20.87
					c81.56-17.05,152.47-47.07,224.68-75.03c153.09-59.27,314.64-110.07,483.22-151.95c-17.89-7.34-19.66-26.02-7.82-33.93
					s31.18-8.4,49.01-9.41c17.83-1.02,36.84-3.58,44.66-13.9c-17.16-35.27-32.88-74.6-74.48-101.2
					c-45.7-29.21-41.71-33.34-112.92-8.22c-7.35,2.59-46.55,15.14-57.37,21.44c-133.23,77.65-91.09,60.34-112.09,36.13"/>
				<g>
					<path d="M402.07,1338.38c-41.88,40.72-79.38,83.91-119.4,125.68c-12.17,12.7-24.57,25.26-37.3,37.64
						c-1.57,1.53-1.43,4.06,2.5,4.2c80.48,2.92,160.59,3.99,238.46-0.18c77.84-4.16,153.24-13.74,221.62-32.86
						c70.92-19.83,134.69-47.46,200.72-72.5c68.43-25.95,138.52-50.22,210.13-72.78c71.81-22.61,145.16-43.5,219.94-62.6
						c9.32-2.38,18.67-4.74,28.03-7.06c1.98-0.49,6.8-3.53,2.61-5.34c-14.13-6.12-16.68-19.14-11.07-26.6
						c7.31-9.73,28.43-10.16,43.77-11c16.41-0.91,33.51-2.21,45.51-9.03c2.89-1.64,5.38-3.6,7.39-5.83c2.39-2.66,1.27-4.32-0.4-7.79
						c-3.01-6.26-5.95-12.52-9.03-18.77c-11.92-24.3-26.08-50.05-52.53-70.83c-10.04-7.88-21.85-15.11-33.11-22.12
						c-6.76-4.21-13.96-8.4-22.14-10.34c-8.51-2.01-16.74-1.15-24.06,0.26c-13.5,2.6-25.8,7.06-37.95,11.25
						c-21.37,7.37-43.79,14-63.73,22.82c-13.27,5.88-24.62,13.72-36.52,20.75c-10.58,6.26-21.13,12.54-31.69,18.81
						c-6.81,4.05-13.61,8.11-20.54,12.06c-2.38,1.36-4.78,2.7-7.23,4c-0.87,0.46-1.76,0.91-2.65,1.36
						c-0.42,0.21-0.84,0.41-1.26,0.62c1.11-0.52-0.28,0.12-0.52,0.22c-0.66,0.28-1.33,0.54-2,0.81c-0.25,0.1-0.52,0.18-0.77,0.27
						c-1.07,0.37,0.97-0.26-0.06,0.02c-1.15,0.32-0.27,0.02-0.29,0.1c-0.05,0.22,0.34,0.1-0.18-0.02c0.87,0.19,0.47-0.02,0.54,0.18
						c-0.21-0.58-0.68-1.22-0.93-1.81c-0.17-0.4-0.27-0.84-0.62-2.08c-0.32-1.12-0.63-2.24-1-3.36c-0.85-2.63-1.92-5.26-3.54-7.84
						c-0.89-1.42-1.93-2.82-3.1-4.18c-2.9-3.37-10.75,0.34-8.38,3.1c1.92,2.23,3.46,4.55,4.62,6.92c1.04,2.1,1.7,4.06,2.12,5.51
						c0.68,2.33,0.8,6.16,3.76,8.17c4.54,3.07,10.88-0.08,13.9-1.47c9.66-4.45,18.26-9.91,27.02-15.09
						c18.22-10.79,36.36-21.64,54.66-32.37c8.51-4.99,16.72-9.71,26.56-13.51c9.34-3.61,18.97-6.92,28.62-10.19
						c18.94-6.4,37.22-13.92,57.58-18.66c6.12-1.42,12.91-2.78,20.22-1.69c6.12,0.91,11.88,3.61,17.1,6.58
						c7.98,4.54,15.37,9.71,22.95,14.61c11.82,7.64,22.24,15.68,31.05,25.02c18.45,19.57,29.07,41.3,39.14,62.28
						c2.52,5.24,5,10.49,7.55,15.73c0.07-0.71,0.15-1.43,0.21-2.15c-7.34,9.1-24.81,10.72-39.83,11.61
						c-15.17,0.89-31.02,1.35-43.71,6.09c-10.67,3.98-17.7,10.8-18.07,20.24c-0.32,8.2,4.99,17.35,16.86,22.48
						c0.87-1.78,1.74-3.56,2.61-5.34c-74.71,18.58-148.06,38.88-219.91,60.88c-71.76,21.98-142.02,45.68-210.67,71.04
						c-66.78,24.68-130.64,52.56-199.99,74.55c-67.42,21.37-141.12,33.72-219.28,39.3c-77.19,5.52-157,5.34-237.28,2.93
						c-9.83-0.3-19.67-0.63-29.51-0.98c0.83,1.4,1.67,2.8,2.5,4.2c42.6-41.42,80.91-85.22,121.53-127.75
						c11.46-12.01,23.15-23.88,35.17-35.56C412.49,1337.37,404.97,1335.55,402.07,1338.38L402.07,1338.38z"/>
				</g>
			</g>
		</g>
		<g id="Ebene_3">
			<g>
				<g>
					<path d="M360.91,1433.94c-22.37,29.61-48.07,57.56-76.86,83.65c-1.58,1.44-1.41,4.19,2.5,4.2
						c50.94,0.22,101.89,0.45,152.84,0.67c2.36,0.01,6.83-2.23,5.04-4.44c-23.67-29.31-47.34-58.63-71.02-87.94
						c-2.74-3.39-10.65,0.28-8.38,3.1c23.67,29.31,47.34,58.63,71.02,87.94c1.68-1.48,3.36-2.96,5.04-4.44
						c-50.94-0.22-101.89-0.45-152.84-0.67c0.83,1.4,1.67,2.8,2.5,4.2c29.28-26.52,55.38-54.96,78.12-85.07
						c0.89-1.17,0.4-2.94-2.06-3.44C364.22,1431.18,361.86,1432.68,360.91,1433.94L360.91,1433.94z"/>
				</g>
			</g>
		</g>
		<g id="Ebene_4">
			<g>
				<path class="st13" d="M448.93,1353.74c-8.61,15.81-27.21,26.49-42.28,38.94s-27.22,28.82-20.38,47.79
					c5.07,14.06,19.64,26.97,29.76,40.51c10.29,13.76,18.17,30.15,37.26,38.2c11.5,4.86,24.16,5.24,36.03,5.46
					c38.79,0.72,77.57,1.44,116.36,2.15c-57.5-53.89-108.95-110.41-153.43-168.57"/>
				<g>
					<path class="st13" d="M444.95,1353.14c-9.86,17.68-31.71,28.45-47.06,43.01c-14.32,13.59-24.22,31.58-13.01,52.01
						c5.2,9.47,13.72,18.31,21.25,27.26c7.03,8.35,12.25,17.04,18.75,25.5c6,7.8,13.5,15.52,24.53,20.43
						c14.63,6.52,30.9,6.04,45.42,6.31c36.66,0.68,73.32,1.36,109.98,2.04c2.89,0.05,7.07-2.64,4.52-5.03
						c-44.7-41.93-85.79-85.41-122.72-130.05c-10.39-12.56-20.45-25.2-30.18-37.92c-2.61-3.4-10.57,0.24-8.38,3.1
						c34.82,45.48,73.82,89.98,116.67,133c12.12,12.18,24.56,24.23,37.28,36.16c1.51-1.68,3.01-3.36,4.52-5.03
						c-31.22-0.58-62.44-1.16-93.66-1.74c-7.79-0.15-15.57-0.28-23.37-0.43c-7.37-0.14-14.86-0.37-22.49-1.86
						c-13.03-2.55-23-9.45-30.29-17.8c-6.85-7.85-11.53-16.23-17.73-24.23c-6.77-8.75-15.07-17.1-21.4-25.97
						c-6.57-9.19-10-18.53-8.53-27.48c1.48-9.04,6.83-16.92,13.6-23.76c15.87-16.03,39.64-27.28,50.24-46.3
						C455.26,1350.12,446.51,1350.34,444.95,1353.14L444.95,1353.14z"/>
				</g>
			</g>
		</g>
		<g id="Ebene_5">
			<g>
				<path class="st14" d="M1084.4,1168.53c-199.05,54.88-394.86,104.08-588.97,164.71c-11.71,3.66-38.77,12.45-40.9,21.82
					c-2.26,9.99,23.35,25.17,31.78,35.48c36.25,44.36,63.08,68.44,105.63,115.71c3.43,3.81,17.04,32.36,51.38,19.93
					c183.33-66.3,606.63-210.12,607.45-215.26c0.66-4.12-1.6-9.11-5.96-12.94c-40.19-35.25-70.37-77.74-114.4-112.62
					c-13.85-10.98-37.15-22.61-48.9-14.88"/>
				<g>
					<path class="st14" d="M1084.12,1165.76c-42.91,11.82-85.96,23.48-129.06,35.08c-42.55,11.45-85.14,22.86-127.65,34.36
						c-42.42,11.47-84.77,23.05-126.93,34.84c-42.51,11.9-84.83,24.02-126.84,36.5c-21.16,6.29-42.25,12.67-63.24,19.15
						c-15.26,4.71-30.93,9.13-44.37,15.72c-5.71,2.8-11.59,6.16-14.51,10.81c-2.62,4.19-1.42,8.93,2.5,13.78
						c4.46,5.52,10.59,10.47,16.47,15.4c2.87,2.41,5.76,4.82,8.41,7.33c3.06,2.91,5.41,6.04,7.97,9.12
						c22.93,27.57,48.83,54.11,74.09,80.92c7.2,7.64,14.33,15.31,21.34,23.02c3.6,3.95,6.51,7.64,9.52,11.7
						c6.37,8.61,16.27,17.25,30.01,18.49c15.31,1.38,27.47-5.02,39.13-9.21c10.16-3.65,20.33-7.28,30.51-10.9
						c23.1-8.22,46.26-16.38,69.43-24.52c25.42-8.93,50.86-17.83,76.32-26.72c26.67-9.31,53.36-18.61,80.05-27.9
						c26.4-9.19,52.79-18.37,79.19-27.56c25.07-8.73,50.14-17.46,75.19-26.22c22.23-7.77,44.46-15.55,66.65-23.37
						c18.32-6.46,36.62-12.94,54.86-19.48c12.96-4.66,25.91-9.33,38.71-14.16c6.77-2.56,13.95-4.95,20.04-8.17
						c5.8-3.06,3.53-10.06-0.79-15.21c-2.91-3.47-7.07-6.64-10.57-9.89c-3.72-3.45-7.35-6.95-10.91-10.47
						c-7.2-7.13-14.11-14.37-20.93-21.64c-13.79-14.71-27.21-29.57-41.8-43.99c-7.27-7.19-14.82-14.26-22.84-21.12
						c-6.85-5.86-13.86-11.69-22.24-16.52c-13.7-7.9-31.22-13.59-42.78-6.4c-1.24,0.77-3.08,2.6-1.2,4.09
						c1.84,1.45,4.93,0.55,6.13-0.2c4.68-2.91,12.37-1.17,18.76,1.23c7.95,2.98,15.22,7.28,21.58,11.99
						c16.53,12.23,30.68,26.35,44.04,40.08c13.89,14.29,26.96,28.87,40.67,43.23c6.62,6.93,13.4,13.81,20.49,20.56
						c6.62,6.29,16.67,12.96,16.94,20.42c0.04,1.2-0.44,1.35,0.29,0.49c0.41-0.48,0.82-0.88,0.45-0.54
						c0.69-0.62,1.05-0.63,0.25-0.24c-0.34,0.16-0.68,0.33-1,0.51c-0.58,0.34,1.31-0.58,0.4-0.19c-0.26,0.11-0.5,0.23-0.76,0.34
						c-2.84,1.24-5.76,2.41-8.7,3.56c-10.56,4.13-21.33,8.05-32.11,11.96c-16.06,5.83-32.2,11.58-48.36,17.31
						c-20.35,7.21-40.74,14.38-61.15,21.53c-23.56,8.25-47.14,16.48-70.72,24.7c-25.34,8.83-50.69,17.65-76.03,26.47
						c-26.16,9.1-52.31,18.2-78.46,27.32c-25.53,8.9-51.05,17.8-76.55,26.73c-23.84,8.35-47.66,16.71-71.45,25.11
						c-21.05,7.44-42.08,14.9-63.04,22.42c-4.6,1.65-9.18,3.3-13.77,4.96c-6.39,2.31-13.22,4.94-21.72,3.78
						c-12.3-1.68-20.23-10.51-25.46-18.04c-3.42-4.92-7.95-9.53-12.25-14.23c-6.66-7.27-13.42-14.52-20.25-21.74
						c-12.21-12.92-24.63-25.77-36.71-38.74c-12.64-13.58-24.79-27.32-36.29-41.26c-4.46-5.4-9.43-10.13-15.25-15.01
						c-5.68-4.75-11.99-9.63-16.08-15.03c-3.44-4.54-3.71-7.95-0.06-11.12c4.29-3.73,10.41-6.37,16.37-8.75
						c15.14-6.06,31.85-10.63,48.01-15.58c40.94-12.54,82.22-24.7,123.73-36.57c41.06-11.75,82.35-23.22,123.76-34.54
						c41.56-11.37,83.26-22.59,124.95-33.8c41.72-11.22,83.45-22.42,125.1-33.73c20.38-5.54,40.73-11.1,61.05-16.7
						c2.01-0.55,4.45-1.73,4.13-3.63C1088.52,1165.97,1085.91,1165.27,1084.12,1165.76L1084.12,1165.76z"/>
				</g>
			</g>
		</g>
		<g id="Ebene_6">
			<g>
				<path class="st15" d="M1203.25,1103.65c-32.78,7.41-63.71,17.27-92.25,29.41c-7.13,3.03-14.55,6.72-15.52,13.02
					c-1.08,7.11,6.38,14.92,13.41,21.75c42.65,41.44,88.85,81.13,131.51,122.57c8.79,8.53,15.68,19.68,29.11,22.31
					c11.03,2.15,23.61,1.33,29.37-4.07c16.42-15.4,48.58-21.61,69.09-24.53c9.56-1.36,17.18-6.38,19.45-13.02
					c2.92-8.57-6.13-18.9-14.8-27.66c-49.67-50.21-104.23-98.54-162.97-144.38"/>
				<g>
					<path class="st15" d="M1202.97,1100.88c-25.82,5.86-50.56,13.17-73.89,21.93c-5.91,2.22-11.74,4.54-17.47,6.94
						c-5.35,2.25-10.65,4.56-14.76,7.83c-3.77,2.99-6.24,6.98-5.86,11.58c0.36,4.33,3.15,8.77,6.65,12.86
						c8.3,9.71,18.94,18.92,28.7,28.08c10.59,9.94,21.32,19.81,32.08,29.67c21.54,19.71,43.25,39.35,64.28,59.29
						c5.07,4.8,10.21,9.59,15.06,14.48c3.93,3.96,7.3,8.13,11.42,12.01c3.6,3.39,8.06,6.74,13.4,8.61c5.69,2,12.07,2.55,17.65,2.51
						c5.73-0.04,11.31-0.96,15.75-2.88c4.65-2,7.36-5.23,11.13-7.87c7.76-5.44,17.58-9.32,27.97-12.34
						c9.04-2.63,18.73-4.52,28.58-6.05c5.43-0.84,10.56-1.71,15.04-3.76c4.82-2.21,8.76-5.27,11.18-9.04
						c4.82-7.51,1.51-16.21-5.58-24.73c-7.85-9.46-17.69-18.49-26.88-27.48c-39.64-38.74-82.19-76.3-127.33-112.38
						c-5.56-4.44-11.16-8.86-16.79-13.26c-3.39-2.65-10.72,1.64-7.33,4.28c43.02,33.59,83.83,68.5,122.09,104.51
						c9.72,9.15,19.27,18.36,28.66,27.64c8.15,8.06,17.54,16.33,23.19,25.14c2.56,3.99,4.33,8.25,3.36,12.04
						c-0.95,3.71-4.03,6.84-8.22,8.76c-3.8,1.75-8.54,2.2-13.13,2.93c-4.45,0.7-8.84,1.5-13.15,2.4
						c-20.38,4.24-39.92,10.81-52.67,22.18c-5.5,4.9-18.82,5.76-28.71,1.89c-10.33-4.05-16.16-13.26-22.65-19.74
						c-18.98-18.95-39.51-37.35-59.68-55.79c-20.44-18.67-40.96-37.31-60.84-56.24c-4.66-4.44-9.35-8.87-13.86-13.37
						c-3.86-3.86-7.56-7.93-9.51-12.23c-4.64-10.23,7.95-14.36,17.1-18.12c21.38-8.77,44.04-16.32,67.82-22.46
						c5.85-1.51,11.77-2.94,17.75-4.3c2.05-0.46,4.44-1.79,4.13-3.63C1207.36,1101.03,1204.78,1100.47,1202.97,1100.88
						L1202.97,1100.88z"/>
				</g>
			</g>
		</g>
		<g id="Ebene_7_1_">
			<g>
				<path class="st16" d="M1238.83,1113.13c21.28-19.86,55.8-26.64,87.04-37.26c4.72-1.61,16.7,2.18,22.62,3.47
					c6.55,1.43,11.64,5.93,16.03,10.06c36.31,34.18,72.62,68.36,108.93,102.55c6.96,6.55,14.43,14.69,11.16,20.85
					c-1.97,3.71-7.38,5.49-12.49,7.05c-23.37,7.14-46.75,14.29-70.12,21.43c-5.4,1.65-11.4,3.31-17.99,1.76
					c-7.28-1.71-12.87-6.73-17.7-11.35c-42.31-40.44-84.62-80.88-126.92-121.33"/>
				<g>
					<path class="st17" d="M1242.17,1114.44c10.31-9.5,24.33-16.19,39.66-21.61c7.68-2.72,15.61-5.16,23.55-7.58
						c3.51-1.07,7.02-2.15,10.52-3.24c1.91-0.6,3.82-1.2,5.7-1.81c0.95-0.31,1.9-0.62,2.84-0.93c0.63-0.21,1.25-0.42,1.88-0.63
						c1.09-0.33,1.27-0.41,0.51-0.22c3.08-0.36,7.13,0.72,10.37,1.47c3.81,0.88,8.29,1.68,11.93,3.15c4.8,1.93,8.43,5.45,11.71,8.51
						c4.24,3.96,8.43,7.94,12.64,11.9c15.89,14.95,31.77,29.91,47.66,44.86c16.21,15.26,32.5,30.48,48.63,45.78
						c5.22,4.95,12.66,12,11.02,17.54c-0.85,2.88-4.75,4.07-8.16,5.17c-4.94,1.59-10,3.07-15,4.6c-19.31,5.9-38.5,11.97-57.96,17.71
						c-3.46,1.02-7.28,2.06-11.58,1.5c-5.54-0.72-10.18-4.01-13.91-7.2c-8.39-7.15-15.82-14.95-23.6-22.38
						c-35.84-34.27-71.7-68.54-107.54-102.8c-2.86-2.74-10.4,1.36-7.33,4.28c34.4,32.88,68.79,65.75,103.18,98.64
						c8.45,8.08,16.75,16.24,25.37,24.24c7.19,6.67,16.07,11.98,26.81,11.04c4.93-0.43,9.21-1.75,13.5-3.06
						c5.15-1.57,10.3-3.15,15.45-4.73c10.5-3.21,21-6.42,31.5-9.63c5.35-1.63,10.7-3.27,16.05-4.9c4.75-1.46,9.7-2.75,13.9-4.79
						c7.46-3.62,10.48-9.78,6.26-17.23c-4.22-7.46-12.85-14.39-19.86-20.98c-8.59-8.09-17.18-16.18-25.77-24.26
						c-17.18-16.18-34.36-32.35-51.55-48.53c-8.53-8.03-16.69-16.41-25.8-24.17c-3.65-3.1-7.94-5.97-13.12-7.34
						c-3.97-1.05-8.02-2.05-12.01-2.92c-3.81-0.83-7.79-1.52-11.4-1.22c-4.49,0.37-8.4,2.32-12.25,3.54
						c-8.38,2.66-16.9,5.16-25.27,7.83c-16.85,5.36-33.26,11.53-46.13,20.53c-3.25,2.27-6.3,4.68-9.09,7.25
						c-1.02,0.93-1.91,2.84,0.47,3.89C1238.25,1116.73,1241.12,1115.41,1242.17,1114.44L1242.17,1114.44z"/>
				</g>
			</g>
		</g>
		<g id="Ebene_2_1_">
			<g>
				<g>
					<path d="M1208.87,1095.2c-24.62,8.71-49.27,17.38-73.91,26.06c-6.33,2.23-12.67,4.46-19,6.69c-5.74,2.02-12.22,3.7-17.1,6.54
						c-8.02,4.68-11.28,12.82-7.38,21.39c2.21,4.86,6.93,8.9,11.52,13.09c5.92,5.41,11.82,10.83,17.71,16.26
						c11.72,10.81,23.38,21.64,35.03,32.48c23.13,21.52,46.21,43.06,69.62,64.46c5.83,5.32,11.67,10.64,17.54,15.95
						c2.77,2.5,5.55,5,8.33,7.5c2.72,2.45,5.32,5.18,8.64,7.28c11.28,7.14,24.79,5.29,33.13,0.75c7.61-4.15,14.57-8.9,22.96-12.39
						c7.62-3.17,16.26-5.01,24.87-7.03c7.48-1.75,14.66-3.95,21.68-6.24c7.99-2.62,16.08-5.41,22.81-9.24
						c2.42-1.37,4.79-2.96,6.06-5.05c2.31-3.8,1.64-8.74-0.36-13.3c-2.17-4.96-6.14-9.64-10.35-14.2
						c-4.9-5.3-9.87-10.57-14.91-15.82c-40.28-41.97-84.89-82.33-132.24-121.11c-5.92-4.85-11.89-9.68-17.9-14.48
						c-3.33-2.66-10.69,1.6-7.33,4.28c45.68,36.53,89.02,74.44,128.73,113.83c10.02,9.94,19.81,19.97,29.34,30.1
						c7.82,8.31,19.32,18.82,17.49,27.99c-0.12,0.63-0.3,1.25-0.6,1.82c-0.22,0.42,0.37-0.28-0.39,0.41
						c-0.64,0.57-0.16,0.19-0.66,0.54c-0.63,0.44-1.32,0.83-2.01,1.22c-2.79,1.56-5.91,2.84-9.07,4.07
						c-7.4,2.88-15.19,5.38-23.16,7.64c-6.96,1.98-14.38,3.37-21.4,5.27c-7.94,2.15-15.13,4.9-21.77,8.36
						c-3.77,1.97-7.38,4.07-11.01,6.15c-4,2.31-7.7,5.16-13.59,5.44c-5.5,0.27-11.17-1.64-15.43-5.08
						c-5.99-4.84-11.37-10.16-16.95-15.22c-44.78-40.53-88.12-81.71-132.52-122.41c-4.75-4.35-10.74-8.84-13.92-13.72
						c-2.42-3.72-3.33-7.62-2.37-11.07c0.91-3.27,3.44-5.75,7.41-7.22c5.78-2.15,11.73-4.13,17.59-6.2
						c23.77-8.37,47.54-16.74,71.3-25.12c5.46-1.93,10.92-3.85,16.37-5.78c1.68-0.6,3.87-2.26,2.79-4
						C1213.34,1094.31,1210.3,1094.69,1208.87,1095.2L1208.87,1095.2z"/>
				</g>
			</g>
			<g>
				<g>
					<path d="M1231.18,1113.85c28.1-11.33,54.6-24.9,85.71-33.08c5.71-1.5,11.71-2.93,18.14-3.37c4.22-0.28,8.56-0.29,12.65,1.63
						c5.21,2.44,9.69,6.38,13.68,9.74c5.91,4.98,11.41,10.17,16.79,15.4c9.66,9.37,18.62,19.03,28.4,28.35
						c13.49,12.85,29.05,24.93,43.41,37.38c7.75,6.71,15.32,13.51,22.67,20.4c4.06,3.81,8.64,7.68,12.08,11.72
						c2.02,2.38,3.14,4.72,2.25,6.97c-0.96,2.41-2.95,4.5-4.4,6.71c-0.47,0.72-0.91,1.46-1.35,2.19c-0.4,0.67,0.02,0.02-0.09,0.16
						c-0.19,0.22-0.92,0.72-0.27,0.27c-0.48,0.34-1.02,0.64-1.56,0.94c-4.44,2.45-11,4.47-16.76,6.23
						c-12.38,3.8-25.38,6.78-38.37,9.81c-12.92,3.01-24.92,6.62-36.53,11.11c-4.03,1.56-8.08,3.12-12.13,4.66
						c-1.65,0.63-3.89,2.24-2.79,4c1.1,1.77,4.18,1.44,5.59,0.9c12.28-4.66,24.14-9.68,37.61-13.03
						c14.21-3.53,28.71-6.61,42.61-10.54c6.95-1.97,13.89-4.04,20.23-6.67c2.54-1.06,5.07-2.18,7.18-3.61
						c2.41-1.63,3.53-3.63,4.99-5.78c3.01-4.45,7.41-9,3.87-15.07c-2.31-3.96-6.84-7.68-10.55-11.21
						c-4.16-3.97-8.39-7.9-12.69-11.81c-15.33-13.94-31.67-27.37-47.52-41.05c-10.92-9.43-20.42-19.27-30.29-29.15
						c-10.31-10.32-20.86-21.48-33.93-30.41c-4.15-2.84-8.37-5.07-13.65-5.77c-6.35-0.84-12.49-0.12-18.09,0.83
						c-16.27,2.72-30.85,8.21-44.85,13.6c-15.5,5.97-30.42,12.51-45.54,18.86c-3.08,1.29-6.18,2.58-9.3,3.84
						c-1.63,0.66-3.9,2.22-2.79,4C1226.68,1114.7,1229.79,1114.41,1231.18,1113.85L1231.18,1113.85z"/>
				</g>
			</g>
			<g>
				<g>
					<path d="M1100.98,1158.09c-52.76,15.92-106.17,31.08-159.91,45.85c-53.45,14.68-107.2,29-160.92,43.35
						c-53.8,14.38-107.57,28.8-160.97,43.68c-26.6,7.41-53.12,14.93-79.5,22.62c-13.46,3.92-26.88,7.88-40.26,11.89
						c-8.88,2.66-17.86,5.23-26.27,8.41c-7.99,3.03-16.45,6.54-21.48,11.91c-5.69,6.07-2.21,13.57,4.24,21.03
						c8.99,10.4,18.98,20.56,28.48,30.8c10.14,10.92,20.27,21.84,30.41,32.75c20.13,21.67,40.24,43.35,60.37,65.02
						c4.99,5.38,9.98,10.75,14.98,16.13c4.16,4.48,8.32,9.06,13.67,13.01c10.3,7.6,22.58,9.98,34.04,7.79
						c12.24-2.34,22.72-7.59,33.38-11.69c12.14-4.67,24.29-9.33,36.47-13.97c24.09-9.18,48.24-18.3,72.45-27.35
						c47.39-17.72,95.04-35.19,142.9-52.43c47.91-17.25,96.03-34.27,144.34-51.1c49.88-17.38,99.93-34.58,150.1-51.66
						c12.77-4.35,25.55-8.68,38.34-13.02c1.69-0.57,3.86-2.28,2.79-4c-1.12-1.8-4.14-1.39-5.59-0.9
						c-50.17,17-100.25,34.1-150.16,51.37c-47.77,16.53-95.4,33.23-142.81,50.14c-46.92,16.73-93.64,33.67-140.12,50.86
						c-47.6,17.59-94.96,35.44-142.07,53.53c-11.33,4.35-22.37,9.15-34.17,13.01c-4.47,1.46-9.6,2.72-15.24,2.19
						c-6.65-0.63-12.76-3.63-17.77-7.41c-5.32-4.02-9.48-8.64-13.66-13.15c-4.84-5.22-9.68-10.43-14.53-15.64
						c-9.84-10.59-19.67-21.18-29.5-31.77c-19.82-21.35-39.64-42.69-59.46-64.04c-9.61-10.35-19.56-20.64-28.83-31.1
						c-3.53-3.98-7.57-8.93-7.42-13.21c0.08-2.08,1.98-3.67,3.77-4.96c6.11-4.41,14.52-7.29,22.55-9.95
						c10-3.31,20.37-6.25,30.61-9.29c25.95-7.71,52.05-15.24,78.25-22.65c52.32-14.79,105.08-29.07,157.92-43.22
						c52.88-14.17,105.84-28.21,158.59-42.54c52.49-14.26,104.76-28.8,156.47-43.98c12.8-3.76,25.57-7.56,38.3-11.4
						c1.72-0.52,3.84-2.31,2.79-4C1105.42,1157.15,1102.46,1157.64,1100.98,1158.09L1100.98,1158.09z"/>
				</g>
			</g>
			<g>
				<g>
					<path d="M447.16,1345.27c-22.76,21.47-44.92,43.3-66.65,65.38c-23.11,23.47-45.73,47.23-67.72,71.33
						c-11.74,12.86-23.29,25.83-34.58,38.93c-1.33,1.54,0.27,3.48,3.12,3.49c88.04,0.35,176.18,0.84,265.14,3.98
						c24.01,0.84,48.06,1.9,72.2,3.2c4.19,0.23,8.15-5.43,1.7-5.79c-87.8-4.76-174.66-6.13-261.19-6.77
						c-25.4-0.19-50.78-0.31-76.15-0.41c1.04,1.17,2.08,2.33,3.12,3.49c20.28-23.52,41.4-46.6,62.99-69.42
						c22.17-23.43,44.85-46.57,68.04-69.42c12.07-11.89,24.27-23.69,36.67-35.38c1-0.94,1.92-2.84-0.47-3.89
						C451.1,1342.98,448.2,1344.29,447.16,1345.27L447.16,1345.27z"/>
				</g>
			</g>
			<g>
				<path d="M368.95,1427.21c23.38,24.55,59.1,76.13,82.57,95.82c-52.21-2.5-107.54-0.33-163.98-3.03
					c40.37-51.09,70.51-82.28,79.02-90.31"/>
				<g>
					<path d="M365.29,1429.35c11.58,12.2,21.46,25.01,31.53,37.64c11,13.78,21.88,27.63,33.96,41.11
						c5.23,5.84,10.7,11.69,17.07,17.07c1.51-1.68,3.01-3.35,4.52-5.03c-55.17-2.6-108.8-0.42-163.98-3.03
						c1.04,1.17,2.08,2.33,3.12,3.49c21.9-27.7,44.66-55.05,69.8-81.02c2.8-2.9,5.63-5.78,8.59-8.58c1-0.94,1.92-2.84-0.47-3.89
						c-2.29-1.01-5.19,0.29-6.23,1.28c-19.99,18.91-37.29,39.55-54.43,60.02c-8.58,10.24-16.97,20.58-25.21,31
						c-1.3,1.65,0.25,3.36,3.12,3.49c55.18,2.61,108.81,0.43,163.98,3.03c2.77,0.13,7.23-2.75,4.52-5.03
						c-12.45-10.52-22.1-22.59-31.6-34.15c-11.5-14-22.43-28.16-33.96-42.15c-5.42-6.58-10.96-13.14-17.01-19.52
						C370.02,1422.32,362.42,1426.33,365.29,1429.35L365.29,1429.35z"/>
				</g>
			</g>
		</g>
		<g id="Ebene_9_1_">
			<g class="st18">
				<g>
					<path d="M1343.99,1077.94c4.2,1.36,10.37-3.68,5.76-5.17C1345.56,1071.42,1339.38,1076.45,1343.99,1077.94L1343.99,1077.94z"/>
				</g>
			</g>
			<g class="st18">
				<path d="M1339.34,1076.84c-15.93,48,0.27,106.1,43.69,156.68c3.8,4.43,5.95,11.81-0.68,11.12c-3.04-0.32-5.56-2.49-7.58-4.42
					c-41.87-40.18-83.74-80.36-125.6-120.55c-3.45-3.31-7.1-7.01-6.97-10.56c0.13-3.78,4.5-6.03,8.65-7.83
					c27.63-11.99,58.6-20.84,91.82-26.22"/>
				<g>
					<path d="M1335.02,1076.98c-14.44,44.01-2.72,96.23,32.4,143.76c1.99,2.69,4.05,5.36,6.17,8.01c2.3,2.86,5.21,5.76,6.99,8.74
						c0.63,1.05,1.16,2.13,1.43,3.19c0.11,0.42-0.16,1.82,0.12,2.19c0.72-0.35,1.44-0.7,2.16-1.05c-0.89-0.12-1.69-0.43-2.43-0.91
						c-0.84-0.46-1.55-1.14-2.21-1.72c-2.12-1.85-4.03-3.82-6.03-5.74c-14.17-13.6-28.35-27.2-42.51-40.8
						c-14.17-13.6-28.35-27.2-42.51-40.8c-7.09-6.8-14.17-13.6-21.26-20.4c-3.22-3.09-6.44-6.18-9.66-9.27
						c-3.31-3.17-7.38-6.49-9.67-10c-2.42-3.7-0.92-5.91,2.66-7.71c3.71-1.86,7.85-3.4,11.86-4.98c8.1-3.2,16.46-6.14,25.05-8.8
						c17.53-5.45,36.1-9.7,55.38-12.85c2.1-0.34,4.43-1.87,4.13-3.63c-0.31-1.83-2.84-2.2-4.69-1.9
						c-18.56,3.03-36.38,7.12-53.4,12.19c-8.32,2.48-16.42,5.21-24.29,8.17c-7.62,2.87-16.39,5.61-22.31,9.96
						c-2.81,2.06-4.94,4.76-4.58,8.12c0.33,3.09,2.78,6.1,5.48,8.9c7.08,7.35,15.01,14.46,22.5,21.65
						c15.13,14.53,30.28,29.06,45.41,43.58c15.13,14.53,30.28,29.06,45.41,43.58c3.86,3.71,7.73,7.42,11.59,11.12
						c2.94,2.83,6.18,6.66,11.11,7.69c8.47,1.77,12.81-3.75,11.34-8.97c-1.62-5.73-7.68-11.27-11.82-16.64
						c-4.94-6.4-9.45-12.91-13.54-19.48c-7.99-12.87-14.3-25.97-18.89-39.07c-10.46-29.9-11.49-59.71-2.73-86.41
						c0.5-1.53-1.29-2.75-3.48-2.75C1337.7,1073.94,1335.53,1075.4,1335.02,1076.98L1335.02,1076.98z"/>
				</g>
			</g>
			<g class="st18">
				<path d="M1204.59,1099.11c-14.07,12.78-40.36,15.4-63.07,20.59s-45.09,16.45-41.64,35.01c1.94,10.44,11.76,20.66,21.29,30.2
					c42.56,42.64,86.71,84.66,132.36,125.98c2.36,2.13,5.08,4.45,8.51,5.2c5.03,1.1,8.79-2,8.6-5.47
					c-0.18-3.47-3.06-7.04-5.82-10.41c-27.16-33.17-51.96-67.52-64.55-102.49c-12.59-34.97-12.04-70.91,9.96-97.22"/>
				<g>
					<path d="M1201.23,1097.8c-12.04,10.68-33.28,13.59-52.09,17.44c-19.98,4.09-39.99,10.37-49.57,23.42
						c-4.48,6.1-5.66,13.46-2.88,21.3c2.89,8.15,9.92,15.97,17.05,23.3c17.09,17.55,35,34.84,52.88,52.06
						c18.15,17.49,36.58,34.87,55.26,52.13c9.39,8.67,18.73,17.39,28.38,25.94c3.63,3.21,8.08,6.01,13.45,5.8
						c4.91-0.19,8.78-2.68,10.41-5.63c3.81-6.88-5.85-15.73-11.39-22.64c-6.8-8.49-13.4-17.03-19.63-25.65
						c-12.31-17.03-23.27-34.39-31.52-51.97c-16.5-35.11-21.93-72.48-4.64-101.91c2.1-3.58,4.54-7.01,7.26-10.3
						c0.95-1.15,0.35-2.95-2.06-3.44c-2.64-0.53-4.88,1-5.9,2.23c-21.21,25.65-22.93,59.71-12.25,93.25
						c10.82,33.96,33.64,67.42,59.31,99.57c3.14,3.93,6.52,7.83,9.51,11.8c1.43,1.9,5.66,7.57,2.63,8.83
						c-3.01,1.26-10-6.18-11.67-7.68c-4.53-4.11-9.04-8.22-13.53-12.34c-17.99-16.48-35.73-33.07-53.23-49.76
						c-17.66-16.84-35.06-33.79-52.22-50.83c-13.7-13.61-33.93-30.49-30.54-45.88c3.13-14.22,22.75-21.2,40.44-25.05
						c18.45-4.01,38.23-6.72,53.31-14.6c3.71-1.94,7.02-4.24,9.89-6.79c1.04-0.92,1.9-2.85-0.47-3.89
						C1205.14,1095.5,1202.32,1096.84,1201.23,1097.8L1201.23,1097.8z"/>
				</g>
			</g>
			<g class="st18">
				<path d="M1086.62,1168.26c-201.44,52.15-400.73,106.95-597.77,164.38c-11.69,3.41-24.3,7.59-27.08,16.61
					c-3.13,10.19,7.47,22.26,17.47,32.66c44.36,46.09,88.71,92.17,133.07,138.27c3.09,3.21,6.67,6.71,11.59,8.05
					c9.78,2.66,14.93-4.84,16.97-11.06c19.13-58.65,60.54-109.28,111.43-153.19c50.89-43.91,111.28-81.49,171.76-118.75
					c49.21-30.32,100.32-61.13,167.52-72.66"/>
				<g>
					<path d="M1086.35,1165.5c-54.2,14.03-108.25,28.25-162.14,42.67c-53.69,14.36-107.22,28.91-160.59,43.66
						c-53.55,14.79-106.94,29.77-160.18,44.94c-26.43,7.53-52.82,15.11-79.17,22.74c-13.08,3.79-26.22,7.5-39.2,11.4
						c-10.51,3.16-21.49,7.3-26.05,14.99c-4.44,7.51-1.34,16.51,5.06,25.07c7.3,9.75,17.17,19,26.08,28.25
						c20.36,21.15,40.71,42.3,61.07,63.45c10.03,10.42,20.05,20.83,30.08,31.25c5.16,5.37,10.33,10.73,15.49,16.1
						c4.77,4.96,9.3,10.12,14.47,14.92c4.02,3.73,9.38,6.7,15.42,6.73c5.08,0.03,9.11-1.93,11.95-4.32
						c6.98-5.87,8.05-15.16,10.99-22.76c14.66-37.9,38.76-72.36,68.31-103.51c29.97-31.58,65.52-59.92,103.54-86.38
						c37.75-26.27,77.75-50.95,117.91-75.42c35.77-21.8,73.08-43.04,118.38-56.16c10.91-3.16,22.31-5.74,34.07-7.78
						c2.09-0.36,4.43-1.86,4.13-3.63c-0.31-1.82-2.84-2.21-4.69-1.9c-48.21,8.35-88.55,26.45-125.11,46.92
						c-18.72,10.48-36.62,21.62-54.57,32.71c-19.95,12.32-39.82,24.69-59.3,37.37c-38.59,25.11-75.74,51.4-108.6,80.43
						c-32.63,28.83-61.1,60.43-82.02,95.41c-10.34,17.29-18.75,35.39-25.02,54.22c-0.95,2.84-2.12,5.96-4.86,7.98
						c-3.01,2.23-7.84,0.19-11.16-2.43c-5.47-4.32-9.7-9.61-14.25-14.33c-5.01-5.21-10.03-10.42-15.04-15.62
						c-20.05-20.83-40.1-41.67-60.15-62.5c-9.87-10.26-19.74-20.52-29.63-30.78c-9.2-9.55-19.29-19.06-27.31-28.99
						c-6.4-7.93-11.78-17.41-6.45-24.36c5.33-6.94,18.31-9.54,28.36-12.47c26.12-7.6,52.28-15.16,78.48-22.68
						c52.03-14.92,104.21-29.65,156.53-44.2c52.51-14.6,105.17-29.01,157.99-43.24c52.82-14.23,105.78-28.27,158.9-42.13
						c12.93-3.37,25.86-6.74,38.8-10.08c2.03-0.52,4.45-1.75,4.13-3.63C1090.74,1165.68,1088.14,1165.03,1086.35,1165.5
						L1086.35,1165.5z"/>
				</g>
			</g>
			<g class="st18">
				<path d="M450.27,1352.22c-61.41,51.04-115.08,107.04-160.26,167.21c17.92,6.29,37.05,3.63,49.7-3.28
					c12.65-6.92,20.1-17.46,27.31-27.77c30.98-44.39,61.97-88.77,92.95-133.15"/>
				<g>
					<path d="M446.92,1350.91c-48.05,39.98-91.37,82.97-129.66,128.6c-10.82,12.9-21.22,26.01-31.23,39.32
						c-0.59,0.79-0.79,2.54,1.1,3.19c19.15,6.52,38.45,4.03,52.17-2.47c16.04-7.6,24.63-20.44,33.12-32.62
						c19.49-27.91,38.97-55.82,58.46-83.73c11.03-15.79,22.05-31.59,33.08-47.38c0.83-1.19,0.44-2.93-2.06-3.43
						c-2.54-0.51-5.01,0.96-5.9,2.23c-18.44,26.41-36.88,52.83-55.31,79.24c-9.32,13.34-18.63,26.68-27.94,40.03
						c-8.33,11.94-15.53,25.03-27.6,35c-11.42,9.43-31.05,15.17-52.25,7.96c0.36,1.06,0.73,2.12,1.1,3.19
						c35.13-46.72,75.34-90.92,120.39-132.24c12.71-11.66,25.8-23.07,39.25-34.26c1.08-0.9,1.86-2.86-0.47-3.89
						C450.79,1348.59,448.05,1349.97,446.92,1350.91L446.92,1350.91z"/>
				</g>
			</g>
		</g>
		<g id="Ebene_10_1_">
			<g class="st18">
				<g>
					<path class="st11" d="M1384.31,1139.43c12.03,13.56,28.82,24.7,42.06,37.68c0.98,0.96-0.76-0.84,0.12,0.12
						c0.25,0.28,0.51,0.55,0.76,0.82c0.56,0.63,1.1,1.26,1.62,1.9c1.02,1.28,1.95,2.59,2.67,3.92c0.32,0.58,0.6,1.17,0.83,1.76
						c0.09,0.23,0.51,1.73,0.35,0.91c0.26,1.32,0.13,2.6-0.2,3.8c-1.59,5.99-8.28,9.62-14.66,12.77c-9.1,4.5-19.12,8.2-27.25,13.52
						c-4.24,2.78,7.62,7.78,10.93,9.04c4.49,1.72,9.27,3.29,13.97,4.06c2.55,0.42,7.26,1.4,9.04,0.24
						c7.29-4.77,16.09-8.26,24.4-12.16c7.27-3.41,15.12-7.38,18.48-13.41c6.26-11.28-12.07-24.92-23.78-34.5
						c-8.46-6.92-17.65-14.3-24-21.45c-4.42-4.98-14.05-8.24-21.18-9.97C1396.7,1138.06,1380.36,1134.97,1384.31,1139.43
						L1384.31,1139.43z"/>
				</g>
			</g>
			<g class="st18">
				<g>
					<path class="st11" d="M1319.81,1248.7c-13.54,4.08-27.09,8.16-40.63,12.24c-2.1,0.63-0.42,2.66,0.8,3.71
						c2.47,2.12,6.93,4.11,10.13,5.33c6.4,2.45,16.92,6.14,23.01,4.3c13.54-4.08,27.09-8.16,40.63-12.24
						c2.1-0.63,0.42-2.66-0.8-3.71c-2.47-2.12-6.93-4.11-10.13-5.33C1336.41,1250.55,1325.91,1246.86,1319.81,1248.7L1319.81,1248.7
						z"/>
				</g>
			</g>
			<g class="st18">
				<g>
					<path class="st11" d="M1165.88,1287.69c-61.93,21-124.15,41.69-186.47,62.27c-59.22,19.56-118.53,39.05-177.65,58.73
						c-34.17,11.37-68.27,22.8-102.29,34.34c-5.49,1.86,8.76,8.21,10.93,9.04c4.49,1.72,9.27,3.29,13.97,4.06
						c3.02,0.5,6.53,1.09,9.04,0.24c59.89-20.3,120.07-40.29,180.33-60.19c59.81-19.75,119.67-39.44,179.36-59.31
						c35.64-11.87,71.22-23.8,106.71-35.83c5.49-1.86-8.76-8.21-10.93-9.04c-4.49-1.72-9.27-3.29-13.97-4.06
						C1171.9,1287.43,1168.4,1286.84,1165.88,1287.69L1165.88,1287.69z"/>
				</g>
			</g>
			<g class="st18">
				<g>
					<path class="st11" d="M380.02,1506.06c45.47-1.61,91.2-1.33,137.17,0.91c13.38,0.65,26.8,1.46,40.25,2.43
						c1.75,0.12,5.69,0.37,6.19-1.17c0.49-1.51-2.83-3.69-4.33-4.57c-7.02-4.08-17.25-7.62-25.4-8.21
						c-48.45-3.46-96.49-4.96-143.74-4.43c-13.34,0.15-26.62,0.46-39.83,0.93c-7.74,0.27,1.35,6.09,4.65,7.63
						C362.32,1502.99,372.14,1506.34,380.02,1506.06L380.02,1506.06z"/>
				</g>
			</g>
		</g>
	</g>
</g>
<g id="Ebene_8">
</g>
</svg>
