<?xml version="1.0" encoding="utf-8"?>
<!-- Generator: Adobe Adobe Illustrator 24.2.0, SVG Export Plug-In . SVG Version: 6.00 Build 0)  -->
<svg version="1.1" xmlns="http://www.w3.org/2000/svg" xmlns:xlink="http://www.w3.org/1999/xlink" x="0px" y="0px"
	 viewBox="0 0 1700.79 1700.79" style="enable-background:new 0 0 1700.79 1700.79;" xml:space="preserve">
<style type="text/css">
	.st0{fill:#91625E;}
	.st1{fill:#6DB572;}
	.st2{fill:#6CB671;}
	.st3{fill:#F0C2A1;}
	.st4{opacity:0.149;}
	.st5{fill:#FFFFFF;}
	.st6{stroke:#000000;stroke-width:1.1146;stroke-miterlimit:10;}
	.st7{fill:#FFFFFF;stroke:#FFFFFF;stroke-width:1.1146;stroke-miterlimit:10;}
	.st8{fill:#CB5B7B;stroke:#CB5B7B;stroke-width:2.2725;stroke-miterlimit:10;}
	.st9{opacity:0.1608;}
	.st10{fill:#F4F5E7;}
	.st11{fill:#F3C057;}
	.st12{fill:#7F8D9C;}
	.st13{fill:#CA334D;}
	.st14{fill:#CA344E;}
</style>
<g id="Ebene_6">
	<g>
		<path class="st0" d="M818.05,799.72c46.22-65.09,52.84-156.14,16.52-227.23c9.41-7.22,18.82-14.44,28.22-21.66
			c4.85,22.9,41.24,23.68,55.92,5.44c14.68-18.23,13.68-44.07,11.95-67.41c-2.8-37.76-10.39-82.7-45.07-97.89
			c-22.3-9.77-51.03-1.39-64.57,18.84c-13.55,20.23-10.35,49.98,7.17,66.88c-13.39,7.51-26.79,15.02-40.18,22.53
			c-51.46-35.92-47.09-30-117.89-44.12c-136.16-27.14-212.92,26.39-225.1,26.02c-12.18-0.36-17.16-24.15-20.75-35.79
			c-2.03-6.58-0.82-13.65-0.84-20.53c-0.09-30.05-25.79-56.39-55.26-62.28c-29.47-5.9-58.05,10.56-80.31,30.76
			c-27.68,25.11-45.62,62.76-29.59,96.52s69.52,45.77,92.08,15.97c6.21,8.13,12.43,16.25,18.64,24.38
			c-20.74,33.68-52.55,70-45.37,108.9c7.89,42.69,11.35,68.99,17.76,114.72c10.53,75.07,107.38,79.77,174.38,85.77
			c99.44,8.9,200.85-8,292.78-46.95"/>
		<g>
			<path class="st0" d="M824.52,803.5c37.05-52.6,49.2-120.97,35.09-183.5c-4.02-17.8-10.33-35.03-18.57-51.3
				c-0.9,3.42-1.79,6.84-2.69,10.26c9.41-7.22,18.82-14.44,28.22-21.66c-3.67-1.49-7.35-2.99-11.02-4.48
				c6.23,26.35,41.42,29.19,60.63,15.79c27.31-19.06,23.98-59.48,21.24-88.42c-2.66-28.17-7.9-59.31-27.7-80.96
				c-20.45-22.36-55.31-26.27-80.11-8.56c-29.64,21.16-32.47,65.74-6.74,91.31c0.51-3.93,1.01-7.85,1.52-11.78
				c-13.39,7.51-26.79,15.02-40.18,22.53c2.52,0,5.05,0,7.57,0c-18.33-12.78-36.79-26.38-58.58-32.56
				c-10.68-3.03-21.71-4.84-32.61-6.87c-18.23-3.38-36.38-7.33-54.77-9.81c-57.46-7.76-115.98-2.5-170.29,18.15
				c-6.88,2.62-13.66,5.48-20.46,8.3c-2.26,0.93-4.51,1.88-6.82,2.69c-0.8,0.28-1.61,0.53-2.41,0.78c-0.33,0.1-0.7,0.13-1.02,0.26
				c-1.51,0.58,0.85-0.42,0.71-0.07c-0.15,0.36-1.46-0.33-1.58-0.41c-2.12-1.44-3.46-4.18-4.59-6.36
				c-2.94-5.71-4.59-12.09-6.35-18.24c-0.94-3.3-2.12-6.55-2.38-9.98c-0.37-4.82,0.35-9.69,0.26-14.52
				c-0.14-8.21-1.97-16.23-5.16-23.77c-13.4-31.63-48.45-50.82-82.22-45.45c-18.82,2.99-35.86,12.83-50.68,24.42
				c-14.35,11.22-27.09,24.69-36.02,40.66c-15.95,28.53-17.71,66.69,7.53,90.65c19.56,18.56,51.52,26.11,76.08,13.22
				c5.89-3.09,11.13-7.52,15.22-12.77c-3.93-0.51-7.85-1.01-11.78-1.52c6.21,8.13,12.43,16.25,18.64,24.38c0-2.52,0-5.05,0-7.57
				c-14.03,22.65-30.75,43.82-40.69,68.75c-4.74,11.89-7.59,24.96-6.52,37.81c1.12,13.37,4.49,26.73,6.68,39.97
				c4.34,26.26,7.94,52.63,11.63,78.99c2.7,19.3,9.9,36.86,23.98,50.68c27.7,27.19,69.59,34.71,106.57,39.4
				c49.89,6.34,100.46,9.47,150.66,5.54c67.3-5.27,133.53-21.46,195.71-47.7c3.72-1.57,6.43-4.96,5.24-9.23
				c-0.98-3.51-5.46-6.83-9.23-5.24c-53.53,22.58-110.23,38.03-167.96,44.83c-28.58,3.37-57.39,4.72-86.16,3.96
				c-22.62-0.59-45.21-2.7-67.73-4.9c-35.5-3.47-74.89-7.89-105.28-28.19c-13.51-9.02-23.8-21.97-28.34-37.66
				c-3.3-11.42-4.13-23.59-5.78-35.33c-1.77-12.62-3.55-25.23-5.47-37.82c-2.08-13.64-4.32-27.26-6.74-40.85
				c-1.24-6.98-2.92-13.93-3-21.04c-0.08-6.98,1.12-13.78,3.11-20.45c8.17-27.31,27.47-50.1,42.26-73.98c1.27-2.05,1.54-5.55,0-7.57
				c-6.21-8.13-12.43-16.25-18.64-24.38c-2.56-3.35-8.47-5.76-11.78-1.52c-15.41,19.77-43.98,17.73-63.3,4.95
				c-26.01-17.2-26.32-51.21-12.7-76.53c8.06-14.97,19.8-27.45,33.09-37.93c13.38-10.55,29.4-19.73,46.59-21.76
				c30.06-3.55,62.3,18.61,66.8,49.26c1.24,8.49-0.68,17.05,0.76,25.55c1.03,6.06,3.23,12.26,5.16,18.09
				c3.58,10.81,9.89,26.49,23.59,26.54c3.8,0.01,7.51-1.56,10.98-2.95c5.89-2.35,11.69-4.89,17.58-7.24
				c47.53-18.93,98.06-26.37,149.1-22.43c19.01,1.47,37.61,4.86,56.31,8.45c12.79,2.46,25.65,4.62,38.4,7.32
				c4.48,0.95,8.94,1.99,13.33,3.3c1.8,0.54,3.6,1.12,5.37,1.75c0.93,0.33,1.86,0.68,2.79,1.05c0.35,0.14,0.69,0.27,1.04,0.42
				c2.26,0.93-1.28-0.58,0.98,0.42c8.95,4,17.27,9.28,25.42,14.7c6.03,4.01,11.98,8.14,17.92,12.28c2.18,1.52,5.36,1.24,7.57,0
				c13.39-7.51,26.79-15.02,40.18-22.53c4.21-2.36,4.9-8.42,1.52-11.78c-17.09-16.98-18.26-47.11-0.57-64.13
				c16.95-16.31,44.75-17.15,62.24-1.36c17.27,15.6,22.97,40.61,25.98,62.75c1.72,12.69,2.75,25.63,2.95,38.43
				c0.21,13.53-0.84,27.83-7.91,39.72c-5.58,9.37-14.97,14.6-25.89,14.76c-8.93,0.13-18.04-3.32-20.26-12.72
				c-1.01-4.28-7.19-7.42-11.02-4.48c-9.41,7.22-18.82,14.44-28.22,21.66c-3.37,2.59-4.72,6.25-2.69,10.26
				c27.29,53.92,29.11,118.87,7.51,175.04c-6.08,15.81-14.28,30.78-24.03,44.62C806,803.84,819,811.34,824.52,803.5L824.52,803.5z"
				/>
		</g>
	</g>
</g>
<g id="Ebene_7">
	<g>
		<path class="st1" d="M359.5,520.11c1.49,3.45,2.99,6.9,4.48,10.34c19.92-22.71,43.46-42.24,69.45-57.62
			c-3.15-5.98-6.3-11.95-9.46-17.93c-18.74,23.14-40.77,43.61-65.21,60.62"/>
		<g>
			<path class="st2" d="M353.03,523.89c1.49,3.45,2.99,6.9,4.48,10.34c1.88,4.33,8.85,4.84,11.78,1.52
				c19.64-22.25,42.44-41.25,67.93-56.45c3.59-2.14,4.6-6.65,2.69-10.26c-3.15-5.98-6.3-11.95-9.46-17.93
				c-2.09-3.97-8.77-5.21-11.78-1.52c-18.43,22.62-39.78,42.71-63.7,59.44c-7.85,5.49-0.36,18.5,7.57,12.95
				c24.98-17.48,47.47-38.15,66.73-61.79c-3.93-0.51-7.85-1.01-11.78-1.52c3.15,5.98,6.3,11.95,9.46,17.93
				c0.9-3.42,1.79-6.84,2.69-10.26c-26.52,15.81-50.53,35.64-70.97,58.8c3.93,0.51,7.85,1.01,11.78,1.52
				c-1.49-3.45-2.99-6.9-4.48-10.34c-1.62-3.75-7.05-4.52-10.26-2.69C351.85,515.83,351.42,520.2,353.03,523.89L353.03,523.89z"/>
		</g>
	</g>
	<g>
		<path class="st1" d="M804.36,489.36c-3.51,2.77-7.01,5.53-10.52,8.3c18.27,18.82,33.94,40.16,46.42,63.23
			c2.96-3.48,5.93-6.97,8.89-10.45c-13.48-19.94-26.97-39.88-40.45-59.82"/>
		<g>
			<path class="st2" d="M799.06,484.06c-3.51,2.77-7.01,5.53-10.52,8.3c-3.22,2.54-2.55,7.96,0,10.61
				c17.83,18.48,32.96,39.16,45.24,61.71c2.18,3.99,8.68,5.17,11.78,1.52c2.96-3.48,5.93-6.97,8.89-10.45
				c2.06-2.42,3.12-6.21,1.17-9.09c-13.48-19.94-26.97-39.88-40.45-59.82c-5.38-7.95-18.38-0.46-12.95,7.57
				c13.48,19.94,26.97,39.88,40.45,59.82c0.39-3.03,0.78-6.06,1.17-9.09c-2.96,3.48-5.93,6.97-8.89,10.45
				c3.93,0.51,7.85,1.01,11.78,1.52c-12.87-23.61-28.92-45.4-47.59-64.75c0,3.54,0,7.07,0,10.61c3.51-2.77,7.01-5.53,10.52-8.3
				c3.2-2.53,2.6-7.95,0-10.61C806.56,480.88,802.22,481.56,799.06,484.06L799.06,484.06z"/>
		</g>
	</g>
	<g>
		<path class="st1" d="M477.62,928.78c-20.44,155.68-40.87,311.36-61.31,467.04c113.24,55.25,216.9,67.85,343.55,22.77
			c-33.39-160.8-52.53-324.56-57.12-488.73c-73.81,11.19-149.68,8.64-222.57-7.47"/>
		<g>
			<path class="st2" d="M470.12,928.78c-15.93,121.38-31.87,242.75-47.8,364.13c-4.5,34.3-9.01,68.6-13.51,102.91
				c-0.31,2.38,1.62,5.46,3.71,6.48c42.06,20.45,86.27,37.01,132.45,45.15c44.76,7.89,90.23,7.73,135.02,0.13
				c27.89-4.74,55.21-12.31,81.86-21.75c4.01-1.42,6.11-5.01,5.24-9.23c-25.93-125.08-43.27-251.88-51.77-379.33
				c-2.39-35.77-4.07-71.58-5.08-107.41c-0.15-5.32-4.65-7.96-9.49-7.23c-72.53,10.87-146.97,8.24-218.58-7.47
				c-9.41-2.06-13.43,12.39-3.99,14.46c74.43,16.33,151.22,18.77,226.56,7.47c-3.16-2.41-6.33-4.82-9.49-7.23
				c3.64,128.36,16.1,256.45,37.25,383.12c6.01,36,12.74,71.88,20.15,107.61c1.75-3.08,3.49-6.15,5.24-9.23
				c-44.25,15.67-90.38,26.02-137.43,27.04c-43.55,0.94-86.66-6.23-128.06-19.58c-24.81-8-48.85-18.08-72.29-29.48
				c1.24,2.16,2.48,4.32,3.71,6.48c15.93-121.38,31.87-242.75,47.8-364.13c4.5-34.3,9.01-68.6,13.51-102.91
				c0.53-4.02-3.83-7.5-7.5-7.5C473.13,921.28,470.65,924.74,470.12,928.78L470.12,928.78z"/>
		</g>
	</g>
	<g>
		<g>
			<path class="st2" d="M704.46,941.43c9.65,0,9.67-15,0-15C694.81,926.43,694.79,941.43,704.46,941.43L704.46,941.43z"/>
		</g>
	</g>
</g>
<g id="Ebene_8">
	<g>
		<path class="st2" d="M519.13,1588.04c-10.03,7.8-23.91,7.67-35.98,11.63c-12.07,3.96-23.8,17.17-17.56,28.25
			c4.43,7.87,14.99,9.27,24.01,9.66c25.4,1.1,50.84,1.36,76.26,0.8c-1.41-9.8-2.82-19.61-4.24-29.41
			c-8.44,5.77-17.19,11.68-27.22,13.62s-21.79-1.15-26.99-9.95c-5.2-8.8,0.12-22.8,10.33-23.4"/>
		<g>
			<path class="st2" d="M515.34,1581.56c-12.88,9.46-30.55,6.58-43.79,15.52c-12.32,8.32-21.3,25.39-9.77,38.31
				c10.66,11.95,31.03,9.9,45.4,10.31c19.55,0.55,39.12,0.59,58.67,0.17c5.35-0.11,7.93-4.68,7.23-9.49
				c-1.41-9.8-2.82-19.61-4.24-29.41c-0.67-4.66-7.36-6.98-11.02-4.48c-10.38,7.09-23.49,16.69-36.75,11.91
				c-4.04-1.46-7.89-4.48-8.19-9.05c-0.18-2.87,1.3-8.23,4.83-8.62c4.03-0.44,7.5-3.13,7.5-7.5c0-3.71-3.45-7.95-7.5-7.5
				c-20.58,2.27-26.08,28.96-10.88,41.54c18.5,15.31,41.72,3.66,58.55-7.83c-3.67-1.49-7.34-2.99-11.02-4.48
				c1.41,9.8,2.82,19.61,4.24,29.41c2.41-3.16,4.82-6.33,7.23-9.49c-16.3,0.35-32.6,0.38-48.89,0.06
				c-8.15-0.16-16.29-0.41-24.44-0.74c-5.48-0.22-11.53-0.19-16.58-2.64c-11.92-5.77,2.2-18.15,9.19-20.66
				c12.68-4.54,26.49-4.11,37.78-12.39c3.29-2.41,4.84-6.48,2.69-10.26C523.76,1581.01,518.6,1579.17,515.34,1581.56L515.34,1581.56
				z"/>
		</g>
	</g>
	<g>
		<path class="st2" d="M606.88,1611.75c8.2,3.93,16.63,7.92,25.7,8.7c9.06,0.78,19.04-2.35,23.96-9.99
			c4.92-7.65,2.32-19.87-6.27-22.87c15.29,6.39,30.59,12.79,45.88,19.18c5.49,2.29,11.85,5.77,12.1,11.71
			c0.34,7.85-9.72,11.24-17.53,11.98c-28.73,2.71-57.72,2.71-86.45-0.03c-1.16-3.24-2.33-6.49-3.49-9.73"/>
		<g>
			<path class="st2" d="M603.1,1618.22c17.11,8.18,38.64,16.04,55.02,1.77c13.02-11.35,10.3-33.06-5.85-39.64
				c-3.78-1.54-8.21,1.67-9.23,5.24c-1.23,4.31,1.52,7.67,5.24,9.23c14.07,5.88,28.15,11.75,42.21,17.65
				c2.33,0.98,10.43,3.98,10.3,6.13c-0.16,2.67-6.48,3.75-8.44,4.11c-13.83,2.54-28.87,2.22-42.89,2.27
				c-15.09,0.06-30.17-0.66-45.19-2.05c2.41,1.84,4.82,3.67,7.23,5.51c-1.16-3.24-2.33-6.49-3.49-9.73
				c-3.24-9.02-17.74-5.13-14.46,3.99c1.16,3.24,2.33,6.49,3.49,9.73c1.22,3.4,3.7,5.18,7.23,5.51c18.95,1.76,37.97,2.42,57,1.85
				c9.17-0.27,18.35-0.79,27.49-1.65c6.43-0.6,13.02-1.59,18.57-5.13c5.46-3.48,8.92-9.19,8.27-15.76
				c-0.7-7.09-6.07-12.15-12.09-15.3c-7.55-3.95-15.86-6.79-23.72-10.08c-9.18-3.84-18.35-7.67-27.53-11.51
				c-1.33,4.82-2.66,9.64-3.99,14.46c2.69,1.09,3.46,5.28,3.21,7.78c-0.42,4.12-3.57,7.04-7.19,8.69c-11.08,5.04-23.64-1.23-33.62-6
				C602,1601.13,594.38,1614.06,603.1,1618.22L603.1,1618.22z"/>
		</g>
	</g>
</g>
<g id="Ebene_22">
	<g>
		<path class="st1" d="M721.23,1067.47c15.59,11.75,31.55,23.9,41.79,40.53c10.24,16.63,13.6,38.99,3.11,55.46
			c-6,9.43-15.71,15.86-22.72,24.56c-14.9,18.46-15.18,47.22-0.66,65.98c10.81-20.34,31.29-33.28,49.73-47.1
			c18.44-13.81,36.76-31.46,39.5-54.34c2.65-22.21-10.06-43.04-22.26-61.79c-31.82-48.92-63.65-97.84-95.47-146.76
			c3.64,38.11,7.29,76.22,10.93,114.33"/>
		<g>
			<path class="st2" d="M717.44,1073.95c22.4,16.89,49.56,38.19,47.49,69.49c-1.01,15.31-12.02,23.82-22.01,33.95
				c-10.09,10.24-16.23,22.71-17.94,37.01c-1.81,15.15,2.11,31.15,11.29,43.39c3.19,4.25,10,5.4,12.95,0
				c21.56-39.44,77.41-50.35,88.89-97.25c6.12-25-6.01-48.67-19.11-69.18c-15.03-23.53-30.44-46.83-45.67-70.24
				c-17.54-26.96-35.08-53.92-52.62-80.89c-3.71-5.71-14.73-4.14-13.98,3.79c3.64,38.11,7.29,76.22,10.93,114.33
				c0.91,9.53,15.92,9.62,15,0c-3.64-38.11-7.29-76.22-10.93-114.33c-4.66,1.26-9.32,2.52-13.98,3.79
				c30.02,46.14,60.03,92.28,90.05,138.43c12.31,18.93,29.14,40.68,26.84,64.64c-1.99,20.75-19.13,36.72-34.73,48.64
				c-19.64,15.02-41.44,28.39-53.64,50.72c4.32,0,8.63,0,12.95,0c-7.86-10.47-11.31-23.7-9.08-36.69
				c1.16-6.75,3.64-13.19,7.57-18.81c4.14-5.92,9.93-10.57,15.03-15.62c10.89-10.8,17.45-23.9,17.28-39.46
				c-0.17-15.35-6.08-30.12-15.25-42.27c-10.95-14.51-25.36-25.5-39.76-36.36c-3.26-2.46-8.35-0.49-10.26,2.69
				C712.47,1067.5,714.23,1071.52,717.44,1073.95L717.44,1073.95z"/>
		</g>
	</g>
</g>
<g id="Ebene_9">
	<g>
		<path class="st3" d="M534.64,1451.44c-1.19,38.51-2.37,77.02-3.56,115.53c-0.28,9.03-0.62,18.36-4.46,26.54
			c-3.84,8.18-12.14,14.98-21.14,14.16c10.59,13.66,33.82,10.78,45.49-1.97c11.67-12.75,14.15-31.43,13.43-48.7
			c-0.72-17.27-4.07-34.6-1.78-51.73c1.61-12.07,6-24.19,3.57-36.13c-2.43-11.93-16.17-22.65-26.53-16.25"/>
		<g>
			<path class="st3" d="M527.14,1451.44c-0.89,28.88-1.78,57.77-2.67,86.65c-0.42,13.49,0.06,27.38-1.58,40.79
				c-1.16,9.45-6,21.84-17.41,21.29c-7.07-0.34-9.12,8.16-5.3,12.8c9.44,11.48,26.16,13.59,39.57,8.67
				c15.57-5.71,25.36-19.41,29.45-35.13c4.75-18.3,2.05-36.91,0.69-55.44c-0.77-10.46-0.78-20.74,1.2-31.07
				c1.84-9.6,4.14-19.26,2.93-29.08c-2.14-17.37-20.56-34.24-38.13-24.52c-8.45,4.67-0.89,17.63,7.57,12.95
				c4.01-2.22,8.34,0.47,11.18,3.48c4.46,4.73,5.07,10.82,4.67,17.08c-0.5,7.87-2.81,15.55-3.91,23.35
				c-1.17,8.29-1.23,16.59-0.71,24.93c0.93,14.96,3.45,29.98,1.79,44.98c-1.26,11.43-5.45,24.75-15.62,31.32
				c-9.32,6.03-22.53,7.04-30.07-2.14c-1.77,4.27-3.54,8.54-5.3,12.8c13.42,0.64,24.37-9.29,29.05-21.21
				c5.33-13.6,4.13-29.57,4.57-43.92c1.01-32.87,2.03-65.73,3.04-98.6C542.44,1441.79,527.44,1441.8,527.14,1451.44L527.14,1451.44z
				"/>
		</g>
	</g>
	<g>
		<path class="st3" d="M599.29,1461.76c0.2,47.21,0.41,94.42,0.61,141.62c9.83,6.63,20.54,13.52,32.39,13.14
			s23.88-11.93,19.97-23.12c-2-5.74-7.33-9.52-11.4-14.04c-13.5-14.99-12.78-37.79-9.25-57.66s9.03-40.66,2.53-59.76
			c-10.26-1-20.52-2-30.79-3"/>
		<g>
			<path class="st3" d="M591.79,1461.76c0.12,27.93,0.24,55.85,0.36,83.78c0.06,13.96,0.12,27.93,0.18,41.89
				c0.01,3.32,0.03,6.65,0.04,9.97c0.02,3.52-0.65,7.57,1.64,10.53c3.25,4.22,10.57,7.61,15.25,10c10.14,5.19,22.08,8.38,33.06,3.92
				c9.46-3.84,17.83-12.63,18.18-23.3c0.41-12.54-10.05-18.03-16.38-27.09c-5.91-8.46-7.34-18.97-7.18-29.06
				c0.45-27.77,13.32-54.76,4.44-82.46c-1.1-3.42-3.79-5.17-7.23-5.51c-10.26-1-20.52-2-30.79-3c-4.04-0.39-7.5,3.73-7.5,7.5
				c0,4.38,3.45,7.11,7.5,7.5c10.26,1,20.52,2,30.79,3c-2.41-1.84-4.82-3.67-7.23-5.51c5.91,18.41,0.7,37.38-2.53,55.77
				c-2.7,15.38-4.23,31.96,0.86,47.03c2.59,7.68,6.74,14.37,12.43,20.13c4.11,4.16,10.37,8.81,6.46,15.16
				c-9.56,15.55-30.2,1.76-40.45-5.13c1.24,2.16,2.48,4.32,3.71,6.48c-0.2-47.21-0.41-94.42-0.61-141.62
				C606.75,1452.11,591.75,1452.09,591.79,1461.76L591.79,1461.76z"/>
		</g>
	</g>
</g>
<g id="Ebene_5">
	<g>
		<path class="st3" d="M361.83,632.42c-1.4,27.53-2.8,55.06-4.21,82.6c-13.12-5.46-30.05,5.5-30.43,19.7
			c-0.39,14.2,15.92,26.07,29.32,21.33c8.09,81.42,77.73,152.53,158.97,162.31c-1.89,35.24,27.85,69.18,63.04,71.92
			c35.19,2.74,80.02-27.14,83.61-62.25c76.24-11.83,151.01-84.92,157.15-171.8c12.67,1.42,25.35-9.49,25.85-22.23
			c0.5-12.74-11.29-24.6-24.03-24.18c-3.36-33.4-13.73-63.82-17.09-97.21c-37.37-6.71-47-25.18-79.21-25.18
			c-47.25,0-59.42-41.54-53.21-73.14c-25.11,40.04-22.57,75.95-92.06,62.39c-38.13-7.44-195.8,24.9-215.15,58.59"/>
		<g>
			<path class="st3" d="M354.33,632.42c-1.4,27.53-2.8,55.06-4.21,82.6c3.16-2.41,6.33-4.82,9.49-7.23
				c-17.73-6.68-38.94,7.5-39.89,26.31c-0.99,19.58,20.49,34.93,38.77,29.18c-3.16-2.41-6.33-4.82-9.49-7.23
				c6.9,66.49,51.44,126.44,112,154.3c17.37,7.99,35.51,13.15,54.47,15.51c-2.5-2.5-5-5-7.5-7.5
				c-1.38,33.03,21.03,63.82,51.53,75.32c29.81,11.24,63.93-1.29,86.48-21.92c12.65-11.58,21.65-26.56,23.65-43.73
				c-1.84,2.41-3.67,4.82-5.51,7.23c65.89-10.53,123.38-61.02,148.87-121.69c7.69-18.3,12.3-37.55,13.79-57.34c-2.5,2.5-5,5-7.5,7.5
				c17.02,1.3,33.26-13.21,33.36-30.41c0.09-16.87-14.97-30.99-31.54-31c2.5,2.5,5,5,7.5,7.5c-3.44-32.81-13.66-64.43-17.09-97.21
				c-0.32-3.08-2.08-6.59-5.51-7.23c-13.81-2.58-26.17-7.66-38.69-13.83c-11.32-5.58-22.58-10.08-35.25-11.29
				c-6.81-0.65-13.58-0.13-20.3-1.66c-5.53-1.26-10.65-3.35-15.35-6.54c-7.88-5.35-13.19-13.89-15.98-22.87
				c-3.29-10.59-3.67-22.04-1.61-32.91c1.55-8.16-9.04-13.29-13.71-5.78c-6.6,10.61-11.73,21.95-17.48,33.03
				c-4.46,8.59-9.51,17.43-16.97,22.28c-19.68,12.81-44.48,2.16-66.49,2.29c-23.65,0.14-47.47,4.07-70.63,8.54
				c-26.72,5.15-53.32,11.75-78.97,20.88c-12.18,4.34-24.38,9.2-35.62,15.64c-7.97,4.57-16.26,10.24-21.04,18.31
				c-4.92,8.33,8.04,15.88,12.95,7.57c0.38-0.65,0.8-1.26,1.22-1.88c-0.43,0.62-0.26,0.22,0.69-0.77c1.26-1.3,2.53-2.55,3.9-3.72
				c1.64-1.4,1.36-1.15,3.66-2.72c1.89-1.29,3.85-2.49,5.83-3.64c9.32-5.39,19.3-9.55,29.39-13.25
				c25.65-9.4,52.33-16.12,79.11-21.41c22.69-4.48,45.95-8.37,69.13-8.55c3.87-0.03,7.71,0.13,11.57,0.46
				c2.25,0.19-0.79-0.19,0.95,0.12c1.54,0.28,3.07,0.58,4.61,0.85c4.77,0.85,9.59,1.54,14.42,2.01c13.25,1.3,27.2,0.54,39.24-5.65
				c10.86-5.58,18.29-15.64,24.04-26.11c6.67-12.16,12.1-24.91,19.44-36.71c-4.57-1.93-9.14-3.85-13.71-5.78
				c-4.34,22.84-0.74,49.04,16.36,66.1c9.59,9.57,22.25,14.52,35.54,16.05c7.22,0.83,14.47,0.22,21.62,1.74
				c5.96,1.27,11.62,3.41,17.12,6.01c15.39,7.27,30.11,14.49,47.02,17.64c-1.84-2.41-3.67-4.82-5.51-7.23
				c3.44,32.81,13.66,64.43,17.09,97.21c0.42,4.04,3.09,7.5,7.5,7.5c8.39,0.01,16.72,7.25,16.54,16
				c-0.2,9.51-9.39,16.09-18.36,15.41c-4.26-0.32-7.21,3.71-7.5,7.5c-4.79,63.69-48.06,121.03-104.39,149.3
				c-14.88,7.46-30.81,12.64-47.25,15.27c-3.49,0.56-5.15,4.19-5.51,7.23c-2.83,24.37-27.14,43.21-48.78,50.74
				c-11.76,4.09-24.23,5.62-36.38,2.37c-12.83-3.43-24.05-11.35-32.44-21.55c-9.52-11.57-14.68-26.27-14.05-41.24
				c0.18-4.41-3.61-7.01-7.5-7.5c-60.5-7.56-113.54-50.71-138.21-105.69c-6.94-15.47-11.51-32.25-13.26-49.12
				c-0.48-4.61-4.43-8.82-9.49-7.23c-8.89,2.8-20.92-4.57-19.78-14.72c1.08-9.66,12.37-15.06,20.9-11.85
				c4.82,1.82,9.27-2.79,9.49-7.23c1.4-27.53,2.8-55.06,4.21-82.6C369.82,622.77,354.82,622.8,354.33,632.42L354.33,632.42z"/>
		</g>
	</g>
</g>
<g id="Ebene_20">
	<g>
		<path class="st1" d="M306.47,919.5c17.96-10.7,35.93-21.39,53.89-32.09c12.82,37.47,25.64,74.94,38.45,112.42
			c21.51-24.89,43.02-49.78,64.53-74.67c-7.61,45.66-15.83,84.69-15.83,130.98c0,33.97-18.86,68.06-43.68,84.49
			c-24.09-75.08-56.25-147.58-95.73-215.83"/>
		<g>
			<path class="st1" d="M310.26,925.98c17.96-10.7,35.93-21.39,53.89-32.09c-3.67-1.49-7.34-2.99-11.02-4.48
				c12.82,37.47,25.64,74.94,38.45,112.42c1.69,4.94,8.6,7.86,12.54,3.31c21.51-24.89,43.02-49.78,64.53-74.67
				c-4.18-2.43-8.36-4.86-12.54-7.3c-5.24,31.37-11.31,62.66-14.25,94.36c-1.44,15.51-0.87,31.09-2.18,46.57
				c-1.11,13.15-5.32,26.17-11.54,37.77c-6.79,12.67-16.1,24.19-28.08,32.29c3.67,1.49,7.34,2.99,11.02,4.48
				c-18.97-58.96-42.79-116.38-71.21-171.42c-8.06-15.6-16.5-31-25.27-46.21c-4.83-8.36-17.79-0.81-12.95,7.57
				c39.13,67.78,71,139.53,94.97,214.04c1.39,4.33,6.82,7.32,11.02,4.48c23.1-15.61,39.09-41.29,44.9-68.41
				c3.27-15.29,2.29-30.9,3.21-46.41c0.97-16.37,2.92-32.66,5.4-48.86c2.87-18.8,6.31-37.51,9.44-56.27
				c1.11-6.62-7.13-13.55-12.54-7.3c-21.51,24.89-43.02,49.78-64.53,74.67c4.18,1.1,8.36,2.21,12.54,3.31
				c-12.82-37.47-25.64-74.94-38.45-112.42c-1.54-4.5-6.64-7.09-11.02-4.48c-17.96,10.7-35.93,21.39-53.89,32.09
				C294.4,917.96,301.94,930.93,310.26,925.98L310.26,925.98z"/>
		</g>
	</g>
</g>
<g id="Ebene_24">
</g>
<g id="Ebene_3">
	<g>
		<g>
			<path d="M352.47,628.7c-6.23,66.65-11.75,136.01,15.64,199c11.69,26.89,29.4,51.04,52.92,68.72
				c23.77,17.87,52.59,27.81,81.63,33.05c29.65,5.35,59.83,6.46,89.88,7.18c30.53,0.73,61.18,0.95,91.44-3.75
				c29.22-4.54,57.71-14.53,81.24-32.81c22.48-17.46,38.92-41.36,49.88-67.45c26.11-62.17,18.27-130.64,6.21-195.1
				c-1.68-8.98-3.45-17.95-5.21-26.92c-1.87-9.46-16.33-5.46-14.46,3.99c12.38,62.8,25.47,129.18,6.85,192.12
				c-7.54,25.5-20.09,49.9-38.65,69.15c-19.25,19.96-44.05,32.32-70.8,38.82c-28.08,6.82-57.23,7.63-85.99,7.34
				c-28.59-0.29-57.37-0.84-85.81-4.03c-27.74-3.11-55.86-9.39-80.52-22.88c-24.51-13.41-43.73-33.7-57.27-58.02
				c-31.02-55.73-29.48-121.51-24.25-183.15c0.72-8.42,1.5-16.84,2.29-25.25C368.36,619.1,353.36,619.16,352.47,628.7L352.47,628.7z
				"/>
		</g>
	</g>
	<g>
		<g>
			<path d="M351.53,704.05c-17.56-0.55-33.55,13.98-34.23,31.64c-0.7,17.88,14.98,32.84,32.28,33.65c9.65,0.45,9.63-14.55,0-15
				c-9.3-0.43-17.83-9.16-17.28-18.65c0.56-9.7,9.91-16.93,19.23-16.64C361.19,719.35,361.18,704.35,351.53,704.05L351.53,704.05z"
				/>
		</g>
	</g>
	<g>
		<g>
			<path d="M830.16,719.16c7.87,0.58,14.87,7.73,15.15,15.65c0.28,7.78-6.54,15.6-14.29,16.46c-4.03,0.44-7.5,3.13-7.5,7.5
				c0,3.71,3.45,7.95,7.5,7.5c15.83-1.74,29.59-14.86,29.29-31.46c-0.3-16.48-14.16-29.47-30.15-30.65
				C820.53,703.45,820.58,718.46,830.16,719.16L830.16,719.16z"/>
		</g>
	</g>
	<g>
		<g>
			<path d="M363.75,635.18c61.94-34.59,132.36-55.73,203.47-57.46c19.76-0.48,39.61,0.52,59.19,3.36c4.04,0.59,8.01-1,9.23-5.24
				c1.01-3.52-1.23-8.64-5.24-9.23c-73.42-10.66-149,1.18-217.6,28.66c-19.43,7.78-38.34,16.74-56.62,26.95
				C347.75,626.94,355.31,639.9,363.75,635.18L363.75,635.18z"/>
		</g>
	</g>
	<g>
		<g>
			<path d="M634.88,577.64c13.12-21.77,28.03-42.39,41.15-64.16c5-8.29-7.97-15.84-12.95-7.57c-13.12,21.77-28.03,42.39-41.15,64.16
				C616.93,578.35,629.89,585.9,634.88,577.64L634.88,577.64z"/>
		</g>
	</g>
	<g>
		<g>
			<path d="M665.27,513.17c7.41,22.97,14.79,45.99,20.32,69.51c2.21,9.39,16.68,5.42,14.46-3.99
				c-5.53-23.51-12.91-46.53-20.32-69.51C676.79,500.03,662.3,503.94,665.27,513.17L665.27,513.17z"/>
		</g>
	</g>
	<g>
		<g>
			<path d="M692.83,588.18c39.28-2.45,80.19,7.66,112.23,30.91c3.3,2.4,8.33,0.54,10.26-2.69c2.25-3.76,0.57-7.9-2.69-10.26
				c-33.94-24.62-78.22-35.55-119.81-32.96C683.24,573.78,683.17,588.78,692.83,588.18L692.83,588.18z"/>
		</g>
	</g>
	<g>
		<g>
			<path d="M674.5,444.6c-70.56-21.4-148.22-15.96-215.82,13.04c-61.31,26.31-116.04,74.68-136.26,139.83
				c-11.74,37.84-10.08,78.37,1.51,116.03c2.83,9.2,17.31,5.28,14.46-3.99c-9.8-31.87-12.31-65.7-4.24-98.24
				c7.33-29.56,22.67-56.57,43.12-79.02c44.58-48.93,110.09-77.07,175.26-83.96c39.64-4.19,79.8-0.82,117.98,10.77
				C679.77,461.87,683.73,447.39,674.5,444.6L674.5,444.6z"/>
		</g>
	</g>
	<g>
		<g>
			<path d="M334.3,760.31c-0.91,20.67,3.33,44.7,26.02,51.29c9.29,2.7,13.25-11.77,3.99-14.46c-15.36-4.46-15.59-23.62-15-36.83
				C349.73,750.66,334.72,750.68,334.3,760.31L334.3,760.31z"/>
		</g>
	</g>
	<g>
		<g>
			<path d="M674.5,459.06c17.17-5.05,35.36-2.13,52.33,5.19c20.72,8.93,38.89,23.24,54.62,39.22
				c36.18,36.78,62.46,85.43,71.05,136.46c4.73,28.09,3.06,57.16-6.92,83.95c-3.37,9.06,11.12,12.97,14.46,3.99
				c19.64-52.76,8.11-111.83-15.95-161.09c-22.3-45.66-58.28-90.58-104.78-113.21c-21.26-10.35-45.61-15.8-68.81-8.98
				C661.27,447.31,665.2,461.79,674.5,459.06L674.5,459.06z"/>
		</g>
	</g>
	<g>
		<g>
			<path d="M839.65,750.1c-1.4,12.41-7.72,30.07-19.18,36.59c-8.39,4.77-0.84,17.73,7.57,12.95c16.43-9.34,24.6-31.75,26.61-49.54
				c0.46-4.03-3.77-7.5-7.5-7.5C842.71,742.6,840.1,746.05,839.65,750.1L839.65,750.1z"/>
		</g>
	</g>
	<g>
		<g>
			<path d="M505.33,931.08c3.21,31.86,25.34,59.02,55.19,70.13c29.85,11.11,63.44,0.94,84.89-21.89
				c12.29-13.07,19.93-29.29,22-47.09c0.47-4.03-3.78-7.5-7.5-7.5c-4.44,0-7.03,3.46-7.5,7.5c-2.91,24.94-22.36,47.04-45.83,55.11
				c-24.62,8.46-50.75,0.21-68.35-18.44c-9.7-10.29-16.48-23.66-17.91-37.82c-0.41-4.03-3.16-7.5-7.5-7.5
				C509.09,923.58,504.92,927.03,505.33,931.08L505.33,931.08z"/>
		</g>
	</g>
	<g>
		<g>
			<path d="M463.47,919.87c-15.56,125.61-31.12,251.22-46.68,376.82c-4.42,35.7-8.85,71.4-13.27,107.1c-0.5,4.03,3.8,7.5,7.5,7.5
				c4.47,0,7-3.46,7.5-7.5c15.56-125.61,31.12-251.22,46.68-376.82c4.42-35.7,8.85-71.4,13.27-107.1c0.5-4.03-3.8-7.5-7.5-7.5
				C466.5,912.37,463.97,915.84,463.47,919.87L463.47,919.87z"/>
		</g>
	</g>
	<g>
		<g>
			<path d="M697.11,930.83c4.57,128.09,18.28,255.84,41,381.99c6.46,35.85,13.66,71.57,21.57,107.13
				c2.09,9.42,16.56,5.43,14.46-3.99c-27.67-124.46-46.48-250.83-56.09-377.96c-2.7-35.68-4.67-71.41-5.94-107.16
				C711.76,921.2,696.76,921.16,697.11,930.83L697.11,930.83z"/>
		</g>
	</g>
	<g>
		<g>
			<path d="M407.24,1410.27c87.43,43.79,188.7,61.85,285.01,40.96c27.1-5.88,53.38-14.98,78.45-26.81
				c8.72-4.12,1.12-17.05-7.57-12.95c-85.29,40.25-183.68,42.27-273.27,15.63c-25.86-7.69-50.93-17.7-75.05-29.78
				C406.2,1393.01,398.59,1405.94,407.24,1410.27L407.24,1410.27z"/>
		</g>
	</g>
	<g>
		<g>
			<path d="M523.68,1448.21c-1.93,48.06-3.51,96.14-3.28,144.24c1.84-2.41,3.67-4.82,5.51-7.23c-10.7,3.54-22.38,9.82-27.04,20.71
				c-3.54,8.27-1.55,18.84,8.05,21.45c8.27,2.25,17.86-0.28,25.91-2.29c11.75-2.93,23.24-6.8,34.78-10.45
				c3.26-1.03,5.38-3.83,5.51-7.23c1.86-51.63,2.79-103.29,4.66-154.92c0.35-9.65-14.65-9.64-15,0
				c-1.86,51.63-2.79,103.29-4.66,154.92c1.84-2.41,3.67-4.82,5.51-7.23c-15.08,4.77-30.82,11.19-46.66,12.8
				c-1.83,0.19-5.65-0.21-6.05-0.06c-1.03,0.38-0.22-0.77-0.02,0.01c0.01,0.03,1.04,1.12,1.07,1.13c0.89,0.32-0.25,0.86,0.24-1.01
				c1.88-7.19,11.37-11.27,17.7-13.37c3.14-1.04,5.52-3.82,5.51-7.23c-0.23-48.1,1.35-96.19,3.28-144.24
				C539.07,1438.56,524.07,1438.57,523.68,1448.21L523.68,1448.21z"/>
		</g>
	</g>
	<g>
		<g>
			<path d="M589.22,1458.72c-3.1,50.73-5.33,101.85,0,152.51c0.47,4.45,3.09,6.93,7.5,7.5c11.54,1.49,23.05,3.21,34.61,4.49
				c7.14,0.79,14.47,1.59,21.64,0.74c5.81-0.68,11.77-2.54,15.02-7.83c3.86-6.3-0.26-12.1-4.25-16.98
				c-5.99-7.33-12.58-14.28-18.97-21.26c-1.04-1.13-2.08-2.98-1.24-0.85c-0.26-0.66-0.41-1.37-0.57-2.06
				c-0.11-0.51-0.5-3.24-0.27-1.43c-0.15-1.19-0.25-2.39-0.34-3.58c-1.21-15.69-0.49-31.6-0.01-47.3
				c0.65-21.4,1.69-42.78,2.48-64.17c0.36-9.65-14.64-9.64-15,0c-1.26,34.12-3.77,68.38-2.89,102.54
				c0.14,5.45,0.37,10.96,1.28,16.34c1,5.92,4.41,9.39,8.37,13.85c5.54,6.26,12.32,12.73,17.05,19.13c-0.06-0.08,1.04,2,1.37,2.15
				c-0.77-0.36-0.05-3.72,0.17-4.18c0.11-0.22,0.9-0.35,0.32-0.32c0.03,0-1.75,0.86-0.68,0.4c0.9-0.38-1.03,0.27-1.27,0.33
				c-1.92,0.46-1.1,0.35-3.06,0.45c-1.59,0.08-3.17,0.12-4.76,0.09c-4.36-0.07-8.71-0.47-13.04-0.93
				c-12.02-1.28-23.98-3.09-35.97-4.64c2.5,2.5,5,5,7.5,7.5c-5.33-50.66-3.1-101.78,0-152.51
				C604.81,1449.08,589.81,1449.12,589.22,1458.72L589.22,1458.72z"/>
		</g>
	</g>
	<g>
		<g>
			<path d="M525.89,1579.45c-21.96,5.41-47.54,10.46-65.05,25.72c-9.1,7.93-12.32,19.95-5.57,30.54
				c8.07,12.67,23.33,13.36,37.04,13.61c25.99,0.47,52.02-2.47,77.96-3.57c5.27-0.22,8.02-4.59,7.23-9.49
				c-1.46-9.04-2.92-18.09-4.38-27.13c-0.64-3.99-5.63-6.25-9.23-5.24c-4.25,1.19-5.89,5.2-5.24,9.23
				c1.46,9.04,2.92,18.09,4.38,27.13c2.41-3.16,4.82-6.33,7.23-9.49c-21.31,0.91-42.58,2.76-63.9,3.42
				c-8.06,0.25-16.18,0.38-24.22-0.37c-2.58-0.24-5.15-0.64-7.65-1.33c-0.51-0.14-3.14-1.08-2.43-0.75
				c-1.03-0.48-2.02-1.22-1.57-0.83c-1.46-1.28-2.63-3.02-3.47-4.86c-0.35-0.77-0.79-1.8-0.53-3.52c-0.27,1.82,0.32-0.99,0.46-1.4
				c0.37-1.07-0.52,1.04,0.01,0.01c0.25-0.49,0.51-0.99,0.83-1.44c0.78-1.1,1.78-2.26,3.66-3.91c6.85-5.99,18.2-10.27,27.56-13.39
				c10.14-3.38,20.5-5.92,30.87-8.47C539.24,1591.61,535.28,1577.14,525.89,1579.45L525.89,1579.45z"/>
		</g>
	</g>
	<g>
		<g>
			<path d="M636.82,1587.54c17.07,4.6,33.67,10.71,49.52,18.57c6.25,3.1,15.1,6.32,19.79,11.75c3.4,3.93,0.33,6.61-3.58,8.35
				c-5.68,2.53-11.98,2.56-18.06,2.7c-9.06,0.21-18.13,0.21-27.19,0.01c-18.77-0.42-37.51-1.77-56.16-3.95
				c2.41,1.84,4.82,3.67,7.23,5.51c-1.48-7.12-2.95-14.25-4.43-21.37c-1.96-9.45-16.42-5.45-14.46,3.99
				c1.48,7.12,2.95,14.25,4.43,21.37c0.72,3.49,4.07,5.14,7.23,5.51c17.04,1.99,34.16,3.29,51.31,3.82
				c8.41,0.26,16.83,0.34,25.24,0.24c7.38-0.09,14.86,0.03,22.13-1.42c11.04-2.19,23.35-9.3,22.91-22.07
				c-0.53-15.31-18.86-22.55-30.47-28.21c-16.5-8.04-33.74-14.5-51.46-19.28C631.48,1570.56,627.5,1585.03,636.82,1587.54
				L636.82,1587.54z"/>
		</g>
	</g>
	<g>
		<g>
			<path d="M347.53,523.44c2.66,3.65,5.31,7.31,7.97,10.96c2.3,3.16,6.62,5.04,10.26,2.69c3.14-2.02,5.16-6.87,2.69-10.26
				c-2.66-3.65-5.31-7.31-7.97-10.96c-2.3-3.16-6.62-5.04-10.26-2.69C347.08,515.2,345.06,520.05,347.53,523.44L347.53,523.44z"/>
		</g>
	</g>
	<g>
		<g>
			<path d="M360.3,514.99c22.61-21.23,45.22-42.46,67.82-63.68c-3.93-0.51-7.85-1.01-11.78-1.52c5.62,8.61,11.24,17.22,16.86,25.82
				c5.26,8.05,18.25,0.54,12.95-7.57c-5.62-8.61-11.24-17.22-16.86-25.82c-2.69-4.12-8.13-4.94-11.78-1.52
				c-22.61,21.23-45.22,42.46-67.82,63.68C342.64,511.01,353.27,521.6,360.3,514.99L360.3,514.99z"/>
		</g>
	</g>
	<g>
		<g>
			<path d="M795.19,501.21c7.61-4.54,15.22-9.07,22.83-13.61c-3.42-0.9-6.84-1.79-10.26-2.69c14.5,23.89,28.99,47.78,43.49,71.67
				c0.39-3.03,0.78-6.06,1.17-9.09c-5.84,4.9-11.68,9.79-17.51,14.69c-7.41,6.21,3.25,16.77,10.61,10.61
				c5.84-4.9,11.68-9.79,17.51-14.69c2.48-2.08,2.78-6.43,1.17-9.09c-14.5-23.89-28.99-47.78-43.49-71.67
				c-2.09-3.44-6.73-4.8-10.26-2.69c-7.61,4.54-15.22,9.07-22.83,13.61C779.33,493.2,786.87,506.17,795.19,501.21L795.19,501.21z"/>
		</g>
	</g>
	<g>
		<g>
			<path d="M433.92,443.03c10.42-28.15-2.97-60.19-27.1-76.55c-26.2-17.76-60.76-16.49-88.61-3.6
				c-51.95,24.03-101.49,99.17-56.8,151.35c20.94,24.46,56.56,24.57,83.33,10.19c14.05-7.55,25.55-19.1,35.15-31.67
				c9.82-12.85,18.65-27.27,24.89-42.21c6.41-15.35,7.8-32.75-3.24-46.34c-9.19-11.32-24.51-16.9-38.85-15.99
				c-16.37,1.05-31.76,8.66-44.65,18.47c-11.69,8.89-22,20.45-25.92,34.92c-3.53,13.03-0.59,27.45,7.94,37.94
				c9.34,11.48,24.58,14.85,38.25,9.52c13.45-5.24,28.94-17.79,32.68-32.36c3.55-13.83-6.91-31.15-22.71-26.03
				c-6.7,2.17-11.35,7.97-11.45,15.06c-0.14,9.66,14.86,9.66,15,0c0.03-2.37,3.6,0,4.18,1.07c2.34,4.33-0.5,9.5-3.16,12.95
				c-6.5,8.42-18.19,18-29.55,16.85c-9.17-0.93-14.93-9.15-16.94-17.49c-2.42-10.02,1.5-20.05,7.62-27.97
				c7.28-9.41,17.65-16.66,28.21-21.91c10.7-5.32,23.16-8.18,34.78-4.27c10.31,3.47,18.05,12.03,17.99,23.23
				c-0.06,13.04-7.93,25.53-14.32,36.4c-12.21,20.78-28.34,42.09-51.81,50.67c-21.59,7.89-46.54,4.49-59.91-15.8
				c-28.52-43.27,10.18-97.28,48.23-119.15c23.13-13.3,52.7-17.34,76.84-4.09c21.97,12.07,34.42,38.69,25.48,62.83
				C416.1,448.11,430.59,452.02,433.92,443.03L433.92,443.03z"/>
		</g>
	</g>
	<g>
		<g>
			<path d="M814.16,491.43c19.01,22.56,24.35,54.36,47.41,73.9c10.37,8.79,23.23,15.47,37.08,15.7
				c13.73,0.23,26.01-6.83,33.77-17.95c7.63-10.94,10.34-24.69,11.55-37.73c1.59-17.24,0.89-34.65-1.46-51.78
				c-4.2-30.64-13.39-66.13-38.63-86.39c-11.11-8.92-24.89-14.96-39.35-14.53c-13.41,0.4-25.83,6.15-35.8,14.93
				c-21.62,19.03-28.13,48.94-21.1,76.18c3.74,14.52,10.86,28.19,19.66,40.26c8.71,11.95,19.22,25.08,32.89,31.52
				c12.7,5.99,27.65,4.59,37.28-6.28c8.28-9.35,11.61-21.91,13.25-34.02c2.11-15.65,3.09-32.34-3.25-47.18
				c-5.37-12.55-16.85-23.12-30.7-24.93c-14.34-1.87-27.66,7.02-32.87,20.27c-5.33,13.56,0.43,28.14,12.13,36.19
				c5.52,3.79,12.33,5.67,19,5.28c9.6-0.55,9.66-15.55,0-15c-9.55,0.55-19.66-7.41-18.13-17.73c1.37-9.19,10.5-16.02,19.63-13.89
				c11.11,2.58,17.55,13.53,19.72,23.93c2.35,11.25,1.15,24.02-0.96,35.24c-1.56,8.3-4.13,18.64-11.28,24.01
				c-9.27,6.95-20.47-0.11-27.65-6.69c-17.44-15.98-31.85-38.45-35.76-62.01c-3.48-20.97,3.84-43.3,21.03-56.44
				c18.5-14.15,41.8-9.1,57.51,6.73c18.42,18.56,25.19,47.59,28.68,72.65c1.93,13.84,2.44,27.91,1.73,41.86
				c-0.55,10.79-1.71,22.28-6.58,32.11c-4.92,9.93-13.51,16.79-24.97,16.38c-11.49-0.41-22.31-7.43-30.18-15.35
				c-9.29-9.34-15.07-21.61-20.85-33.28c-6.38-12.88-12.86-25.51-22.18-36.57C818.54,473.43,807.97,484.08,814.16,491.43
				L814.16,491.43z"/>
		</g>
	</g>
</g>
<g id="Ebene_10">
</g>
<g id="Ebene_4">
</g>
<g id="Ebene_11">
	<g class="st4">
		<path d="M660.18,456.38c-131.67,7.51-342.47,63.42-320.23,258.6c-29.64-78.04,11.67-170.52,80.26-218.12
			s157.41-57.04,240.34-47.46"/>
		<g>
			<path d="M660.18,448.88c-59.69,3.45-120.11,14.52-175.58,37.32c-55.96,23.01-109.44,59.86-135.66,116.22
				c-16.37,35.19-20.76,74.2-16.49,112.56c4.91-0.66,9.82-1.33,14.73-1.99c-21.12-56.47-4.22-119.23,31.4-165.97
				c39.94-52.39,102.72-79.88,166.56-89.41c38.14-5.69,77.18-5.07,115.41-0.71c4.03,0.46,7.5-3.78,7.5-7.5c0-4.44-3.46-7.04-7.5-7.5
				c-70.51-8.03-144.78-2.76-209.5,28.36c-58.66,28.21-105.12,79.96-122,143.44c-9.01,33.89-8.69,70.26,3.66,103.27
				c1.32,3.53,4.32,5.9,8.23,5.37c3.35-0.45,6.92-3.65,6.5-7.37c-3.65-32.8-1.17-66.03,10.97-96.93
				c10.44-26.57,28.1-49.74,49.34-68.61c44.38-39.42,103.01-60.62,160.21-73.07c30.35-6.61,61.21-10.7,92.21-12.49
				C669.77,463.33,669.83,448.33,660.18,448.88L660.18,448.88z"/>
		</g>
	</g>
	<g class="st4">
		<path d="M348.08,767.1c4.05,9.13,8.11,18.27,12.16,27.4c-7.6-4.67-11.51-14.61-9.14-23.21"/>
		<g>
			<path d="M341.61,770.89c4.05,9.13,8.11,18.27,12.16,27.4c3.42-3.42,6.84-6.84,10.26-10.26c-4.8-3.2-7.01-9.16-5.7-14.74
				c2.21-9.39-12.25-13.39-14.46-3.99c-2.92,12.38,2.05,24.64,12.59,31.68c6.89,4.6,13-4.09,10.26-10.26
				c-4.05-9.13-8.11-18.27-12.16-27.4c-1.66-3.73-7.02-4.53-10.26-2.69C340.46,762.81,339.98,767.21,341.61,770.89L341.61,770.89z"
				/>
		</g>
	</g>
	<g class="st4">
		<path d="M368.75,637.55c34.75,286.05,216.53,294.57,391.93,254.67c-60.78,21.22-123.53,40.47-187.91,40.23
			c-64.38-0.24-131.45-22.58-172.49-72.18c-51.45-62.18-51.87-152.6-32.73-231"/>
		<g>
			<path d="M361.25,637.55c5.91,48.14,16.29,96.07,36.6,140.33c15.08,32.85,36.26,63.43,64.23,86.6
				c24.84,20.57,54.03,34.95,85.2,43.08c31.81,8.29,65.06,10.45,97.81,9.05c35.2-1.5,70.21-6.98,104.64-14.31
				c4.32-0.92,8.63-1.87,12.93-2.85c-1.33-4.82-2.66-9.64-3.99-14.46c-81.28,28.34-169.83,54.46-255.6,30.47
				c-35.97-10.06-69.76-28.68-94.53-57c-24.31-27.78-37.64-63.43-42.67-99.67c-5.89-42.46-1.15-86.08,8.89-127.53
				c2.27-9.38-12.19-13.38-14.46-3.99c-18.17,75.02-20.4,163.81,27.36,228.91c49.38,67.31,137.41,89.55,217.14,82.34
				c54.31-4.91,106.61-21.2,157.85-39.07c9.07-3.16,5.51-16.62-3.99-14.46c-63.06,14.31-130.71,24.28-194.57,11.1
				c-29.87-6.17-57.96-17.52-82.73-35.47c-27.05-19.59-48.03-46.48-63.5-75.9c-23.84-45.34-35.44-96.65-41.64-147.17
				c-0.49-4.02-3.09-7.5-7.5-7.5C365.08,630.05,360.76,633.5,361.25,637.55L361.25,637.55z"/>
		</g>
	</g>
	<g class="st4">
		<path d="M341.02,725.83c-0.98,9.71,2.62,19.78,9.54,26.66c-10.64-2.72-17.95-14.7-15.5-25.41"/>
		<g>
			<path d="M333.52,725.83c-0.91,11.9,3.53,23.38,11.73,31.96c2.43-4.18,4.86-8.36,7.3-12.54c-6.7-1.97-11.61-9.15-10.26-16.18
				c1.81-9.43-12.64-13.47-14.46-3.99c-2.91,15.14,5.76,30.23,20.74,34.63c7.35,2.16,12.36-7.24,7.3-12.54
				c-5.64-5.89-7.96-13.29-7.34-21.36C349.25,716.2,334.25,716.25,333.52,725.83L333.52,725.83z"/>
		</g>
	</g>
	<g class="st4">
		<path d="M833.52,728.61c-0.97,9.47,1.79,19.28,7.57,26.84c-5.57-7.6-7.8-17.56-6.02-26.81"/>
		<g>
			<path d="M826.02,728.61c-0.88,10.86,2.17,21.82,8.59,30.63c5.6,7.68,18.52,0.43,12.95-7.57c-4.32-6.2-6.54-13.45-5.26-21.03
				c1.59-9.44-12.87-13.5-14.46-3.99c-1.93,11.47,0.06,22.94,6.78,32.59c4.32-2.52,8.63-5.05,12.95-7.57
				c-5.07-6.94-7.24-14.48-6.54-23.06C841.79,718.98,826.79,719.03,826.02,728.61L826.02,728.61z"/>
		</g>
	</g>
	<g class="st4">
		<path d="M477.62,928.78c-50.94,206.73,53,458.23,284.7,487.83c-112.87,39.13-243.56,51.05-347.31-27.05
			c28.5-151.92,54.71-309.82,61.9-464.22"/>
		<g>
			<path d="M470.39,926.78c-10.12,41.33-14.31,84.14-12.58,126.64c1.72,42.36,9.11,84.65,22.4,124.92
				c13.02,39.48,31.61,77.32,56.11,110.97c24.38,33.5,54.25,62.78,89.01,85.42c36.12,23.54,77.16,39.37,119.61,46.78
				c5.77,1.01,11.57,1.84,17.38,2.59c-0.66-4.91-1.33-9.82-1.99-14.73c-86.17,29.76-182.73,44.19-270.49,12.43
				c-25.49-9.22-49.35-22.5-71.04-38.72c1.15,2.82,2.3,5.65,3.45,8.47c22.61-120.59,43.25-241.73,54.85-363.94
				c3.23-34.03,5.72-68.13,7.33-102.27c0.45-9.65-14.55-9.63-15,0c-5.71,121.27-22.65,241.7-43.35,361.23
				c-5.84,33.71-11.99,67.37-18.29,101c-0.68,3.64,0.57,6.31,3.45,8.47c39.21,29.34,85.46,47.95,133.88,54.94
				c47.17,6.8,95.04,3.66,141.64-5.73c26.32-5.3,52.2-12.64,77.57-21.4c8.41-2.9,6.23-13.67-1.99-14.73
				c-82.14-10.66-155.67-53.67-206.57-118.76c-49.41-63.18-76.39-143-82.12-222.55c-3.31-45.94,0.27-92.28,11.23-137.04
				C487.15,921.4,472.69,917.4,470.39,926.78L470.39,926.78z"/>
		</g>
	</g>
	<g class="st4">
		<path d="M526.63,937.89c-0.24,12.69-2.78,31.44,0.58,29.53c36.62-20.85,88.08-15.75,134.46-31.54
			c-44.49-0.05-104.36-4.75-148.85-4.8"/>
		<g>
			<path d="M519.13,937.89c-0.17,6.96-0.84,13.9-1.08,20.86c-0.18,5.16-0.54,12,4.52,15.11c5.96,3.66,13.43-2.85,18.9-5.07
				c7.19-2.93,14.74-5.03,22.3-6.74c33.13-7.51,67.48-8.07,99.9-18.93c7.83-2.62,6.76-14.71-1.99-14.73
				c-49.66-0.12-99.19-4.69-148.85-4.8c-9.65-0.02-9.67,14.98,0,15c49.66,0.12,99.19,4.69,148.85,4.8
				c-0.66-4.91-1.33-9.82-1.99-14.73c-23.24,7.78-47.57,10.53-71.72,13.99c-11.27,1.61-22.54,3.4-33.57,6.24
				c-5.25,1.35-10.44,2.94-15.5,4.89c-2.49,0.96-4.97,1.99-7.4,3.09c-1.38,0.62-2.74,1.27-4.09,1.95c-1.51,0.76-4.4,1.03-0.81,1.22
				c1.26,0.34,2.52,0.68,3.79,1.02c-0.58-0.35,3.49,2.73,2.72,3.79c0.15-0.21-0.12-2.47-0.12-2.71c-0.03-2.42,0.11-4.85,0.25-7.27
				c0.31-5.66,0.76-11.31,0.9-16.97C534.37,928.24,519.37,928.24,519.13,937.89L519.13,937.89z"/>
		</g>
	</g>
	<g class="st4">
		<path d="M677.89,514.17c11.1,29.41,32.95,54.63,60.48,69.8c-16.39,3.63-33.28-6.88-42.35-21c-9.07-14.12-12.02-31.19-14.77-47.75"
			/>
		<g>
			<path d="M670.66,516.16c12.06,31.39,34.51,57.85,63.93,74.28c0.6-4.57,1.19-9.14,1.79-13.71c-13.23,2.6-26.41-6.31-33.47-16.94
				c-9.14-13.75-11.76-30.6-14.42-46.58c-1.58-9.5-16.04-5.47-14.46,3.99c3.24,19.41,7.06,39.57,19.74,55.29
				c11.22,13.89,28.75,22.2,46.6,18.7c6.41-1.26,7.18-10.7,1.79-13.71c-25.84-14.44-46.39-37.61-57.04-65.32
				C681.69,503.25,667.19,507.13,670.66,516.16L670.66,516.16z"/>
		</g>
	</g>
	<g class="st4">
		<path d="M287.21,402.68c-26.74,46.87,8.39,105.33,61.92,104.3c-19.01,22.05-58.51,16.94-75.78-6.5
			c-17.27-23.44-13.7-57.97,3.3-81.6"/>
		<g>
			<path d="M280.73,398.9c-13.52,24.22-13.4,53.77,0.86,77.68c14.17,23.76,39.91,38.18,67.54,37.9c-1.77-4.27-3.54-8.54-5.3-12.8
				c-15.77,17.69-45.34,14.42-61.08-1.7c-20.35-20.84-15.01-55.46,0.39-77.32c5.57-7.91-7.43-15.41-12.95-7.57
				c-15.9,22.57-20.8,53.37-9.28,78.9c10.06,22.29,34.13,36.01,58.44,34.47c13.33-0.84,26.11-6.09,35.09-16.17
				c4.19-4.7,1.48-12.87-5.3-12.8c-22.41,0.22-43.08-11.16-54.59-30.47c-11.52-19.31-11.81-42.93-0.86-62.54
				C298.39,398.03,285.44,390.46,280.73,398.9L280.73,398.9z"/>
		</g>
	</g>
	<g class="st4">
		<path d="M871.3,384.59c-41.89,29.05-54.28,93.03-26.28,135.62c-11.96-22.53-24.21-46.07-25.03-71.56
			c-0.82-25.49,13.52-53.41,38.33-59.34"/>
		<g>
			<path d="M867.52,378.11c-45.16,31.85-59.18,99.14-28.97,145.89c5.24,8.1,17.5,0.99,12.95-7.57
				c-12.19-22.97-25.98-48.3-23.82-75.2c1.54-19.25,12.95-39.64,32.64-44.69c9.34-2.4,5.38-16.87-3.99-14.46
				c-24.89,6.38-39.95,30.44-43.16,54.77c-4.1,31.07,11.29,60.6,25.38,87.15c4.32-2.52,8.63-5.05,12.95-7.57
				c-25.51-39.47-15.14-98.05,23.59-125.36C882.92,385.55,875.43,372.53,867.52,378.11L867.52,378.11z"/>
		</g>
	</g>
	<g class="st4">
		<path d="M470.33,1619.55c30.27,16.16,66.45,20.93,99.86,13.16c-25.58,6.13-52.24,5.83-78.51,4.45
			c-7.13-0.38-14.69-0.98-20.43-5.23s-8.32-13.5-3.3-18.58"/>
		<g>
			<path d="M466.54,1626.03c32.42,17.05,69.92,21.99,105.64,13.91c-1.33-4.82-2.66-9.64-3.99-14.46
				c-19.24,4.49-38.95,5.35-58.65,4.89c-8.7-0.2-18.06,0.18-26.61-1.61c-3.12-0.65-6.67-1.65-8.68-4.33
				c-1.01-1.35-2.34-4.24-1.01-5.78c6.26-7.28-4.3-17.94-10.61-10.61c-7.02,8.16-5.88,19.79,1.42,27.5
				c7.75,8.19,19.93,8.75,30.43,9.27c26.01,1.28,52.21,1.09,77.69-4.86c9.41-2.19,5.42-16.59-3.99-14.46
				c-31.68,7.16-65.34,2.72-94.08-12.4C465.58,1608.59,457.99,1621.53,466.54,1626.03L466.54,1626.03z"/>
		</g>
	</g>
	<g class="st4">
		<path d="M601.69,1616.28c33.45,20.41,76.08,13.67,114.55,6.25c-37.24,13.01-78.9,12.96-116.11-0.14"/>
		<g>
			<path d="M597.91,1622.76c36.53,21.79,80.76,14.61,120.33,7.01c-1.33-4.82-2.66-9.64-3.99-14.46
				c-36.39,12.5-75.76,12.44-112.12-0.14c-9.14-3.16-13.07,11.32-3.99,14.46c38.64,13.37,81.42,13.42,120.09,0.14
				c9.17-3.15,5.49-16.29-3.99-14.46c-35.45,6.81-75.97,14.07-108.77-5.5C597.17,1604.85,589.61,1617.81,597.91,1622.76
				L597.91,1622.76z"/>
		</g>
	</g>
	<g class="st4">
		<path d="M535.09,1458.77c3,48.68,10.78,97.06,23.2,144.23c-15.33,5.97-32.19,7.97-48.49,5.74c13.6-4.95,19.57-20.76,22.05-35.02
			c5.41-31.09,2.15-62.95-1.13-94.34"/>
		<g>
			<path d="M527.59,1458.77c3.1,49.36,10.94,98.37,23.47,146.22c1.75-3.08,3.49-6.15,5.24-9.23c-15,5.68-30.58,7.49-46.5,5.47
				c0.66,4.91,1.33,9.82,1.99,14.73c21.76-8.61,26.88-32.81,29.17-53.71c3.03-27.6,0.13-55.4-2.74-82.88
				c-0.42-4.03-3.15-7.5-7.5-7.5c-3.73,0-7.92,3.45-7.5,7.5c2.54,24.32,5.09,48.82,3.56,73.3c-0.64,10.25-1.76,20.7-4.96,30.5
				c-2.35,7.22-6.52,15.36-14.02,18.33c-8.09,3.2-6.5,13.65,1.99,14.73c17.04,2.16,34.42,0.08,50.48-6.01
				c3.83-1.45,6.35-5,5.24-9.23c-12.2-46.58-19.91-94.18-22.93-142.23C541.99,1449.18,526.99,1449.11,527.59,1458.77L527.59,1458.77
				z"/>
		</g>
	</g>
	<g class="st4">
		<path d="M601.1,1464.27c3.11,48.33,11.15,96.34,23.97,143.05c-5.3,5.44-15.27,2.52-19.58-3.74c-4.31-6.26-4.56-14.36-4.67-21.96
			c-0.52-38.2-1.05-76.4-1.57-114.6"/>
		<g>
			<path d="M593.6,1464.27c3.22,49.02,11.3,97.65,24.24,145.04c0.64-2.43,1.29-4.86,1.93-7.3c-2.06,1.85-5.77-0.17-7.34-1.78
				c-3.34-3.41-3.76-9.18-3.98-13.68c-0.63-13.14-0.42-26.36-0.6-39.51c-0.37-26.67-0.73-53.35-1.1-80.02
				c-0.13-9.64-15.13-9.67-15,0c0.45,32.6,0.89,65.2,1.34,97.81c0.19,13.49-2.09,30.75,5.92,42.54
				c7.02,10.32,21.66,13.96,31.36,5.26c1.96-1.76,2.6-4.82,1.93-7.3c-12.59-46.12-20.57-93.35-23.7-141.06
				C607.97,1454.69,592.96,1454.62,593.6,1464.27L593.6,1464.27z"/>
		</g>
	</g>
</g>
<g id="Ebene_17">
	<g>
		<path class="st3" d="M315.89,904.16c31.44-16.42,71.07-74.48,64.14-80.99c-5.27-4.94-25.21,15.83-39.59,20.76
			c-33.09,11.35-31.3-14.56-25.51-28.61c5.73-13.91,24.79-14.13,39.81-15.08c3.91-0.25,8.48-1.15,10.15-4.7
			c2.68-5.69-4.56-10.98-10.68-12.42c-22.57-5.3-47.82,3.37-62.37,21.41c-6.65-26.05-22.04-49.8-43.1-66.52
			c7.26,19.64,14.52,39.28,21.78,58.91c-10.91-15.17-27.5-26.15-45.73-30.26c4.55,18.85,14.24,36.43,27.73,50.36
			c-7.81,0.73-13.72-6.42-19.65-11.56c-5.93-5.14-16.8-7.76-20.32-0.75c-2.96,5.88,2.46,12.35,7.39,16.7
			c29.77,26.28,59.53,52.56,89.3,78.84"/>
		<g>
			<path class="st3" d="M319.68,910.63c23.08-12.31,41.73-35.06,55.93-56.53c4.94-7.47,10.71-16.14,12.33-25.12
				c0.75-4.15,0.32-8.44-2.99-11.42c-4.66-4.2-10.86-2.55-15.88-0.03c-11.42,5.75-20.45,16.09-32.89,19.88
				c-2.87,0.87-5.81,1.67-8.82,1.78c-0.6,0.02-2.84-0.04-2.85-0.04c-1.11-0.17-2.33-0.65-2.36-0.67c-1.32-0.62-0.34,0.06-1.3-0.95
				c0.11,0.11-0.29-0.1-0.82-1.25c-0.5-1.08,0.35,1.01-0.08-0.12c-0.17-0.45-0.3-0.9-0.42-1.36c-0.09-0.35-0.17-0.7-0.25-1.06
				c-0.46-2.18,0.02,1.31-0.12-0.97c-0.45-7.63,1.57-17.87,10.38-21.46c6.06-2.47,12.96-2.82,19.41-3.23
				c7.73-0.49,16.97-0.4,21.76-7.68c5.73-8.72-0.59-18.24-8.73-22.35c-7.9-3.98-18.15-4.52-26.82-3.73
				c-18.71,1.7-36.55,10.33-48.62,24.89c4.18,1.1,8.36,2.21,12.54,3.31c-7.17-27.33-22.99-52.1-45.03-69.83
				c-2.64-2.12-5.99-2.98-9.09-1.17c-2.69,1.57-4.58,5.39-3.45,8.47c7.26,19.64,14.52,39.28,21.78,58.91
				c4.57-1.93,9.14-3.85,13.71-5.78c-12.36-16.81-29.82-28.88-50.21-33.71c-5.61-1.33-10.64,3.56-9.23,9.23
				c5.04,20.2,15.3,38.62,29.66,53.67c1.77-4.27,3.54-8.54,5.3-12.8c-6.78,0.22-11.73-7.64-16.78-11.29
				c-5.41-3.91-12.64-6.23-19.3-4.88c-6.78,1.37-11.78,7.2-12.18,14.1c-0.49,8.54,5.98,15.34,11.87,20.58
				c29.17,25.95,58.54,51.68,87.81,77.52c7.21,6.37,17.86-4.2,10.61-10.61c-24.8-21.9-49.61-43.8-74.41-65.7
				c-5.71-5.04-11.83-9.85-17.16-15.29c-0.8-0.81-4.52-4.63-3.78-5.83c0.27-0.45,2.35-0.07,3,0.06c5.04,1.03,8.42,5.53,12.15,8.69
				c5.27,4.46,11.06,7.88,18.19,7.65c6.52-0.21,9.86-8.03,5.3-12.8c-12.63-13.23-21.38-29.31-25.81-47.05
				c-3.08,3.08-6.15,6.15-9.23,9.23c16.39,3.87,31.22,13.17,41.25,26.81c2.24,3.04,5.68,4.62,9.37,3.07
				c3.19-1.34,5.64-5.33,4.34-8.85c-7.26-19.64-14.52-39.28-21.78-58.91c-4.18,2.43-8.36,4.86-12.54,7.3
				c20.17,16.23,34.6,38.14,41.17,63.21c1.34,5.1,8.87,7.74,12.54,3.31c9.21-11.11,22.16-18.5,36.54-20.35
				c6.44-0.83,14.61-1.03,20.72,1.53c0.74,0.31,2.88,2.34,3.37,2.27c0.21-0.03,0.34,0.13,0.51-0.82c0.29-1.62,0.44-0.2-0.24-0.36
				c-0.8-0.18-3.67,0.64-4.56,0.7c-1.73,0.11-3.46,0.2-5.18,0.31c-12.62,0.83-27.67,2.2-36.29,12.73c-5.73,7-8.39,17.96-7.84,26.92
				c0.6,9.63,5.73,18.18,15.51,20.67c12.03,3.06,25.51-2.36,35.51-8.72c5.36-3.41,10.4-7.26,15.69-10.77
				c2.11-1.4,4.25-2.76,6.54-3.85c-0.39,0.19,0.98,0.08,0.66-0.24c-0.09-0.09-1.11-0.03-1.33-0.14c-1.65-0.82-2.43-1.45-3.12-2.99
				c-0.07-0.17-0.37-1.84-0.31-1.26c0.19,1.76,0.31-0.82,0.02,0.24c-0.41,1.47-0.8,2.91-1.36,4.34c-0.44,1.12,0.42-0.94-0.1,0.24
				c-0.16,0.36-0.32,0.72-0.49,1.07c-0.42,0.88-0.85,1.76-1.3,2.64c-1.16,2.26-2.42,4.46-3.72,6.64
				c-6.83,11.36-15.01,21.92-23.95,31.68c-8.88,9.71-18.64,19.12-30.33,25.36C303.59,902.23,311.16,915.18,319.68,910.63
				L319.68,910.63z"/>
		</g>
	</g>
</g>
<g id="Ebene_12">
	<g class="st4">
		<g>
			<path class="st5" d="M647.74,1014.34c1.34,68.04,6.3,136,14.96,203.51c2.61,20.36,5.49,40.69,8.7,60.96
				c1.64,10.37,15.12,17.04,24.6,13.97c11.26-3.64,15.73-13.49,13.97-24.6c-1.34-8.44-2.62-16.89-3.85-25.35
				c-0.57-3.9-1.12-7.81-1.66-11.72c-0.27-1.95-0.54-3.91-0.8-5.86c0.05,0.4,0.37,2.8,0.06,0.43c-0.17-1.3-0.34-2.61-0.51-3.91
				c-2.17-16.63-4.11-33.28-5.84-49.96c-3.45-33.36-6-66.8-7.66-100.3c-0.94-19.05-1.59-38.1-1.97-57.17
				c-0.21-10.45-9.05-20.49-20-20C657.08,994.82,647.52,1003.14,647.74,1014.34L647.74,1014.34z"/>
		</g>
	</g>
	<g class="st4">
		<g>
			<path class="st5" d="M703.92,1363.42c10.46,0,20.48-9.2,20-20c-0.49-10.84-8.79-20-20-20c-10.46,0-20.48,9.2-20,20
				C684.4,1354.25,692.7,1363.42,703.92,1363.42L703.92,1363.42z"/>
		</g>
	</g>
	<g class="st4">
		<g>
			<path class="st5" d="M759.11,647.09c0.35,2.14,0.69,4.28,1.02,6.43c0.13,0.84,0.99,7.31,0.44,2.97c0.47,3.69,0.9,7.38,1.27,11.09
				c0.81,8.02,1.38,16.06,1.72,24.11c0.68,16.1,0.41,32.25-0.8,48.32c-0.28,3.71-0.61,7.41-0.99,11.12
				c-0.22,2.16-0.46,4.32-0.71,6.47c-0.1,0.84-0.95,7.32-0.35,2.98c-1.11,7.98-2.45,15.93-4.02,23.84
				c-3.15,15.82-7.25,31.42-12.21,46.76c-3.22,9.96,3.75,22.28,13.97,24.6c10.96,2.5,21.16-3.3,24.6-13.97
				c21.41-66.25,25.88-136.77,14.62-205.35c-1.7-10.35-15.08-17.05-24.6-13.97C761.87,626.11,757.29,635.99,759.11,647.09
				L759.11,647.09z"/>
		</g>
	</g>
	<g class="st4">
		<g>
			<path class="st5" d="M715.1,513.52c4.99,4.42,9.77,9.06,14.26,13.99c2.24,2.46,4.42,4.99,6.52,7.57c0.93,1.14,3.06,3.98,0.98,1.2
				c1.16,1.56,2.31,3.12,3.44,4.71c3.84,5.45,7.38,11.1,10.6,16.94c1.61,2.92,3.13,5.88,4.58,8.88c0.72,1.5,1.42,3.01,2.1,4.53
				c0.34,0.76,0.68,1.52,1,2.29c-0.94-2.22-0.97-2.27-0.11-0.16c3.89,9.67,13.52,17.56,24.6,13.97c9.35-3.03,18.15-14.21,13.97-24.6
				c-11.91-29.64-29.64-56.36-53.66-77.61c-7.83-6.93-20.67-8.29-28.28,0C708.14,492.82,706.73,506.12,715.1,513.52L715.1,513.52z"
				/>
		</g>
	</g>
	<g class="st4">
		<g>
			<path class="st5" d="M862.84,423.3c1.73,3.45,3.45,6.91,5.18,10.36c2.16,4.32,7.42,7.94,11.95,9.19
				c4.79,1.32,11.16,0.72,15.41-2.02c4.27-2.75,8.03-6.85,9.19-11.95c1.24-5.44,0.49-10.4-2.02-15.41
				c-1.73-3.45-3.45-6.91-5.18-10.36c-2.16-4.32-7.42-7.94-11.95-9.19c-4.79-1.32-11.16-0.72-15.41,2.02
				c-4.27,2.75-8.03,6.85-9.19,11.95C859.59,413.34,860.34,418.29,862.84,423.3L862.84,423.3z"/>
		</g>
	</g>
	<g class="st4">
		<g>
			<path class="st5" d="M335.98,402.12c10.46,0,20.48-9.2,20-20c-0.49-10.84-8.79-20-20-20c-10.46,0-20.48,9.2-20,20
				C316.46,392.95,324.77,402.12,335.98,402.12L335.98,402.12z"/>
		</g>
	</g>
</g>
<g id="Ebene_13">
	<g>
		<g>
			<path d="M590.26,727.36c-19.28-7.97-42.8,10.23-39.96,30.82c2.74,19.88,27.56,31.2,44.56,20.99c8.27-4.96,0.73-17.94-7.57-12.95
				c-7.94,4.77-20.84-0.43-22.22-10.04c-1.59-11.09,12.13-18.1,21.2-14.35c3.77,1.56,8.21-1.69,9.23-5.24
				C596.72,732.29,593.98,728.9,590.26,727.36L590.26,727.36z"/>
		</g>
	</g>
	<g>
		<g>
			<path d="M506.84,816.11c10.34,25.9,33.3,45.72,60.67,51.73c27.39,6.01,55.74-3.18,75.46-22.91
				c10.91-10.91,18.85-24.72,22.34-39.78c2.18-9.39-12.28-13.4-14.46-3.99c-6.42,27.7-31.24,50.89-60,53.38
				c-28.96,2.51-58.7-15.26-69.55-42.43c-1.5-3.75-5.02-6.42-9.23-5.24C508.51,807.88,505.32,812.31,506.84,816.11L506.84,816.11z"
				/>
		</g>
	</g>
	<ellipse class="st6" cx="498.95" cy="720.3" rx="10.25" ry="18.83"/>
	<ellipse class="st6" cx="672.51" cy="723.2" rx="10.25" ry="18.83"/>
	<circle class="st7" cx="501.2" cy="711.87" r="2.25"/>
	<circle class="st7" cx="674.76" cy="711.87" r="2.25"/>
</g>
<g id="Ebene_14">
	<ellipse class="st8" cx="476.91" cy="770.36" rx="35.92" ry="22.79"/>
	<ellipse class="st8" cx="715.28" cy="767.1" rx="35.92" ry="22.79"/>
</g>
<g id="Ebene_15">
	<g>
		<g>
			<path d="M704.82,935.22c33.1,43.67,65.94,87.82,94.79,134.45c11.59,18.74,23.58,38.34,30.8,59.16c1.3,3.74,2.4,7.54,3.15,11.43
				c0.34,1.76,0.7,5.52,0.13,8.19c-2.27,10.55-9.13,20.03-15.66,28.38c-23.13,29.58-52.08,54.52-78.57,80.97
				c-6.84,6.83,3.76,17.44,10.61,10.61c24.74-24.71,51.11-48.15,73.66-74.95c8.47-10.07,16.77-20.76,21.82-33.01
				c3.62-8.79,4.08-17.36,1.97-26.57c-4.79-20.9-16.47-40.69-27.24-58.99c-14.62-24.84-30.82-48.76-47.43-72.31
				c-17.86-25.34-36.36-50.22-55.09-74.93c-2.46-3.25-6.44-4.87-10.26-2.69C704.31,926.78,702.38,932,704.82,935.22L704.82,935.22z"
				/>
		</g>
	</g>
	<g>
		<g>
			<path d="M710.94,1076.36c10.22,12.09,21.33,23.32,32.16,34.85c6.18,6.58,14.96,14.84,16.9,23.51c0.41,1.86-0.48,6.55-1.37,9.86
				c-1.11,4.12-2.74,7.87-5.29,11.35c-6.95,9.44-18.08,15.79-27.88,21.78c-8.23,5.02-0.7,18,7.57,12.95
				c12.14-7.42,24.89-15.36,33.26-27.16c5.5-7.76,9.67-19.58,8.73-29.19c-1.14-11.61-9.91-21.21-17.39-29.47
				c-11.92-13.15-24.62-25.52-36.08-39.09C715.3,1058.37,704.74,1069.02,710.94,1076.36L710.94,1076.36z"/>
		</g>
	</g>
</g>
<g id="Ebene_19">
	<g>
		<g>
			<path d="M456.87,913.49c-23.66,31.76-47.32,63.52-70.98,95.28c-2.44,3.27-0.51,8.34,2.69,10.26c3.8,2.28,7.85,0.54,10.26-2.69
				c23.66-31.76,47.32-63.52,70.98-95.28c2.44-3.27,0.51-8.34-2.69-10.26C463.33,908.53,459.27,910.26,456.87,913.49L456.87,913.49z
				"/>
		</g>
	</g>
	<g>
		<g>
			<path d="M439.59,1101.02c-6.56,7.68-13.13,15.36-19.69,23.04c-3.18,3.72-6.35,7.43-9.53,11.15c-1.69,1.98-3.39,3.96-5.08,5.95
				c-1.09,1.27-4.07,3.57-4.51,5.07c-0.12,0.09-0.25,0.18-0.37,0.27c-1.12,0.67-0.37,0.92,2.24,0.76c0,0-1.33-2.48-1.24-2.29
				c-0.91-1.9-1.64-3.9-2.45-5.83c-2.05-4.91-4.1-9.83-6.15-14.74c-3.97-9.52-7.94-19.04-11.91-28.56
				c-15.88-38.08-31.75-76.17-47.63-114.25c-8.96-21.5-17.93-43-26.89-64.5c-0.64,2.43-1.29,4.86-1.93,7.3
				c18.36-16.18,39.25-29.09,61.78-38.61c-3.67-1.49-7.35-2.99-11.02-4.48c11.06,39.76,27.2,78.47,45.21,115.55
				c4.22,8.68,17.16,1.08,12.95-7.57c-17.46-35.94-32.98-73.43-43.7-111.96c-1.43-5.14-6.64-6.33-11.02-4.48
				c-23.73,10.03-45.49,23.93-64.81,40.95c-1.79,1.57-2.88,5.02-1.93,7.3c17.41,41.77,34.83,83.54,52.24,125.31
				c8.71,20.88,17.41,41.77,26.12,62.65c4.48,10.75,8.96,21.5,13.44,32.25c3.28,7.86,6.32,20.05,16.9,20.23
				c5.24,0.09,9.38-3.03,12.73-6.77c4.12-4.61,8.05-9.42,12.07-14.12c8.26-9.66,16.51-19.33,24.77-28.99
				C456.43,1104.32,445.87,1093.66,439.59,1101.02L439.59,1101.02z"/>
		</g>
	</g>
</g>
<g id="Ebene_18">
	<g>
		<g>
			<path d="M357.79,877.29c-0.19-0.82-0.22,1.41,0.09,0.31c0.48-1.67-0.16-0.29,0.75-1.93c1.39-2.5,3.01-4.89,4.75-7.12
				c4.58-5.88,9.73-11.32,14.45-17.08c6.81-8.31,19.96-24.42,9.89-35.13c-7.34-7.81-19.58-0.85-27.01,3.11
				c-10.07,5.37-20.39,12.28-30.5,15.32c-1.12,0.34-2.25,0.61-3.39,0.86c-1.43,0.32-0.25,0.07,0.07,0.04
				c-0.61,0.07-1.22,0.1-1.84,0.13c-0.39,0.02-0.78-0.02-1.17-0.02c-1.88,0,1.57,0.37-0.2-0.03c-0.24-0.05-0.78-0.15-1.02-0.29
				c2.04,1.24-0.4-0.25-0.51-0.43c0.06,0.09,1.26,1.19,0.32,0.13c-1.22-1.38,0.83,1.37-0.19-0.28c-0.89-1.44-0.35,0.01-0.75-1.86
				c-0.65-3.05-0.95-6.06-0.79-9.2c0.23-4.56,1.62-7.67,4.93-10.35c-1.06,0.86,1.39-0.84,1.85-1.09c0.6-0.33,1.22-0.64,1.85-0.92
				c-0.3,0.13-1.23,0.47,0.16-0.03c2.51-0.92,5.14-1.51,7.78-1.93c7.34-1.14,18.84,0.06,27.88-0.23c4.01-0.13,8.46-0.55,11.49-3.5
				c3.58-3.49,3.16-8.54,1.67-12.9c-4.21-12.3-16.63-20.81-28.98-23.32c-22.14-4.51-44.03,5.9-61.64,18.46
				c3.42,0.9,6.84,1.79,10.26,2.69c-5.81-12.26-12.7-24.07-20.3-35.3c-6.72-9.94-14.2-21.03-24.34-27.83
				c-7.67-5.15-20.64-4.3-20.77,7.35c-0.11,10.41,6.38,21.9,10.63,30.99c6.82,14.61,14.57,29,23.83,42.23
				c4.32-2.52,8.63-5.05,12.95-7.57c-8.33-11.36-19.16-21.08-29.96-30.03c-6.05-5.02-12.3-9.92-18.97-14.1
				c-4.88-3.06-10.42-6.27-16.29-6.75c-7.94-0.65-12.9,5.28-10.97,12.8c1.72,6.72,6.19,13.04,10.02,18.68
				c11.89,17.51,25.66,33.8,39.39,49.86c3.03-3.93,6.06-7.85,9.09-11.78c-13.92-9.66-26.84-20.93-41.86-28.93
				c-5.87-3.12-13.7-7.04-20.37-4.06c-5.87,2.62-7.35,8.74-5.62,14.49c3.83,12.7,14.28,24.19,22.46,34.22
				c12.23,15,25.48,29.23,39.38,42.69c13.47,13.04,27.94,26.83,44.61,35.74c8.51,4.55,16.1-8.39,7.57-12.95
				c-12.59-6.73-23.53-16.56-33.95-26.18c-13.16-12.16-25.63-25.1-37.43-38.59c-9.1-10.41-18.33-21.19-25.33-33.18
				c-0.53-0.9-1.04-1.81-1.52-2.73c-0.29-0.55-1.6-3.73-0.81-1.56c-0.24-0.67-0.43-1.38-0.7-2.03c-0.86-2.14-0.19,1.34-0.06-0.57
				c-0.11,1.56-0.49,2.99-2.3,4.17c-2.94,1.92,1.27-1.03-1.71,0.43c0.61-0.3,1.85,0.54,0.16-0.11c3.07,1.17,4.24,1.2,7.19,2.73
				c15.39,7.96,28.53,19.54,42.69,29.37c7.4,5.14,14.3-5.69,9.09-11.78c-16.05-18.77-33.71-38.06-45.02-60.24
				c-0.75-1.47,0.53,1.74,0.03,0.07c-0.09-0.32-0.19-0.79-0.37-1.06c-0.67-0.99-0.15-2.83-0.16,0c0-0.91-0.44,1.91-0.85,2.53
				c-0.59,0.9-1.29,1.66-2.4,2.35c0.35-0.22,0.86-0.57-1.03,0.43c1.09-0.58-1.25,0.92-0.27,0.08c0.28-0.24,1.7,0.71-0.45-0.07
				c0.36,0.13,0.78,0.14,1.14,0.28c0.25,0.1,2.63,0.93,1.41,0.43c2.52,1.03,4.91,2.48,7.21,3.91c5.24,3.25,10.19,6.97,14.96,10.87
				c6.07,4.96,11.93,10.19,17.53,15.68c2.32,2.27,4.59,4.59,6.79,6.98c0.99,1.08,1.97,2.17,2.91,3.29c0.42,0.5,0.84,1,1.25,1.51
				c1,1.23-0.42-0.59,0.51,0.68c2.41,3.29,6.48,4.84,10.26,2.69c3.3-1.88,5-6.95,2.69-10.26c-6.97-9.97-12.99-20.61-18.53-31.43
				c-4.89-9.53-9.81-19.37-12.86-29.68c-0.43-1.47-0.86-2.96-1.09-4.48c0.31,2.04-0.05,0.13,0.07-0.28c-0.2,0.66-0.53,2.25-1.99,3.7
				c-1.16,1.15-0.84,0.41-2,0.77c0.44-0.14-0.62-0.61,0.27,0.14c0.54,0.46-0.3-0.11-0.42-0.19c0.37,0.23,0.78,0.37,1.15,0.62
				c0.44,0.31,1.69,1.11,1.67,1.1c7.34,5.56,13.84,15.18,19.2,23.2c7.3,10.92,13.95,22.35,19.57,34.22
				c1.63,3.44,7.17,4.9,10.26,2.69c13.87-9.9,32.02-20.26,49.61-17.04c2.18,0.4,5.8,1.5,7,2.04c2.23,1,5.47,3.1,6.26,3.78
				c0.8,0.68,1.56,1.4,2.28,2.16c0.32,0.33,2.08,2.5,1.14,1.23c0.6,0.82,1.11,1.68,1.65,2.53c0.25,0.4,0.44,0.84,0.66,1.26
				c0.13,0.26-0.3-1.23,0.15,0.42c0.19,0.68,0.27,1.73,0.59,2.33c-0.42-0.82-0.34-1.04,0.34-2.71c0.29-0.71,2.75-3.31,1.86-2.51
				c0.6-0.55,1.74-0.94,0.61-0.36c-0.42,0.21-2.13,0.29,0.5-0.01c-3.69,0.42-7.47,0.16-11.17,0.04c-10.1-0.33-20.86-0.72-30.57,2.6
				c-12.01,4.1-19.46,13.44-20.41,26.17c-0.9,12.07,3.02,26.42,16.96,27.78c10.63,1.03,21.52-5.13,30.53-9.99
				c5.02-2.71,9.95-5.6,14.99-8.28c2.16-1.15,4.33-2.28,6.57-3.27c1.35-0.6,0.26-0.1-0.01,0c0.55-0.22,1.11-0.44,1.67-0.62
				c0.84-0.27,1.69-0.47,2.53-0.71c1.48-0.42-1.6-0.23-0.23,0.03c1.16,0.22,0.5,0.41-0.48-0.17c-0.34-0.2-1.32-0.76-2.11-1.83
				c0.33,0.45,0.42,0.2-0.16-0.37c0.77,0.76,0.06-0.71,0.06,0.41c0,1.99,0.45-1.43-0.06,0.61c-0.18,0.7-0.38,1.4-0.63,2.08
				c-1.69,4.58-7.38,11.37-11.34,16.02c-5.21,6.12-10.68,12.07-15.35,18.64c-3.74,5.26-6.97,11.44-5.43,18.06
				C345.51,890.68,359.98,886.7,357.79,877.29L357.79,877.29z"/>
		</g>
	</g>
</g>
<g id="Ebene_21">
	<g>
		<g id="Ebene_8_1_">
			<g class="st9">
				<path d="M599.61,1341.1c69.65,43.15,137.13,79.51,212,125.89c-20.11-80.32-48.1-167.93-99.7-245.46
					c-34.28-51.5-81.09-99.42-125.83-147.67c-94.86-102.3-181.81-207.83-260.09-315.66c-4.88,9.01-25.46,6.2-36.52-2.4
					c-11.06-8.6-15.21-20.08-19.67-30.78c-4.46-10.7-10.87-22.41-23.88-29.14c-36.28,2.82-77.39,3.95-99.41,22.94
					c-24.19,20.86-29.55,17.66,11.83,64.74c4.27,4.86,25.61,30.51,34.69,38.18c111.73,94.41,84.5,66.04,61.32,73.4"/>
				<g>
					<path d="M598.77,1342.81c53.38,33.04,108.71,64.02,162.92,96.18c16.48,9.78,32.85,19.67,49.08,29.71c2,1.24,4.81,1.68,4.24-0.6
						c-11.72-46.75-25.44-93.66-44.61-140.34c-19.16-46.66-43.92-92.99-78.06-137.17c-35.41-45.82-78.21-89.04-118.54-133.05
						c-41.79-45.62-82.02-91.86-120.6-138.65c-38.69-46.91-75.73-94.38-111.04-142.32c-4.4-5.98-8.78-11.96-13.13-17.95
						c-0.92-1.27-5.22-4.73-6.47-2.64c-4.21,7.05-18.32,5.86-27.72,1.02c-12.25-6.31-16.66-18.82-20.47-28.02
						c-4.07-9.84-8.71-20.17-18.58-28.64c-2.38-2.04-5.03-3.91-7.9-5.55c-3.43-1.96-5.07-1.64-8.65-1.37
						c-6.44,0.48-12.9,0.92-19.33,1.44c-24.98,2-51.17,5.02-69.5,16.29c-6.95,4.28-12.85,9.74-18.6,14.92
						c-3.45,3.11-6.81,6.48-7.45,10.89c-0.67,4.59,1.83,9.61,4.77,14.21c5.43,8.48,12.71,16.63,19.66,24.65
						c12.23,14.1,23.83,28.66,37.42,42.2c9.05,9.02,19.95,17.32,30.03,25.77c8.97,7.52,17.97,15.02,26.96,22.53
						c5.8,4.84,11.61,9.68,17.33,14.58c1.96,1.68,3.92,3.37,5.82,5.08c0.68,0.61,1.35,1.22,2.02,1.84c0.31,0.29,0.62,0.58,0.93,0.87
						c-0.79-0.76,0.19,0.19,0.35,0.35c0.43,0.45,0.85,0.89,1.28,1.34c0.16,0.17,0.29,0.34,0.44,0.51c0.61,0.71-0.48-0.63,0.03,0.04
						c0.57,0.74,0.07,0.16,0.16,0.19c0.26,0.08,0.05-0.18,0.01,0.1c0.06-0.47-0.11-0.28,0.1-0.28c-0.6,0.01-1.24,0.15-1.85,0.18
						c-0.42,0.02-0.89-0.02-2.21-0.06c-1.19-0.04-2.39-0.09-3.58-0.1c-2.79-0.04-5.53,0.05-8.12,0.46c-1.43,0.23-2.8,0.55-4.1,0.96
						c-3.23,1.01,2.39,6.4,5.03,5.57c2.14-0.67,4.45-1.09,6.88-1.29c2.16-0.18,4.23-0.17,5.77-0.11c2.48,0.08,6.75,0.8,8.45-0.53
						c2.59-2.04-2.11-6.42-4.23-8.48c-6.78-6.6-14.49-12.79-21.93-19.01c-15.47-12.95-30.99-25.86-46.41-38.84
						c-7.17-6.03-13.98-11.84-20.07-18.41c-5.78-6.24-11.28-12.59-16.73-18.94c-10.69-12.46-22.51-24.77-31.61-37.73
						c-2.73-3.9-5.52-8.17-5.66-12.25c-0.12-3.41,1.83-6.24,4.18-8.7c3.6-3.76,8-7.04,12.08-10.49c6.35-5.38,13.41-9.85,22.23-13.1
						c18.47-6.82,40.82-8.58,62.42-10.18c5.4-0.4,10.81-0.78,16.21-1.2c-0.81-0.19-1.63-0.38-2.45-0.57
						c11.55,6.2,16.63,16.81,20.42,25.83c3.83,9.11,7.29,18.53,14.95,26.97c6.45,7.1,15.38,12.64,26.03,14.81
						c9.24,1.88,18.49,0.64,22.03-5.28c-2.16-0.88-4.31-1.76-6.47-2.64c34.71,47.79,71.09,95.13,109.11,141.95
						c37.97,46.76,77.59,92.99,118.76,138.6c40.06,44.38,83.17,87.71,120.7,133.05c36.48,44.08,64.03,89.99,84.84,137.12
						c20.55,46.55,35.22,93.47,47.47,140.21c1.5,5.72,2.96,11.44,4.39,17.16c1.41-0.2,2.83-0.4,4.24-0.6
						c-54.29-33.61-110.47-65.19-165.64-97.86c-15.57-9.22-31.04-18.55-46.36-28.03C595.7,1336.47,595.07,1340.52,598.77,1342.81
						L598.77,1342.81z"/>
				</g>
			</g>
		</g>
		<g id="Ebene_3_1_">
			<g>
				<g>
					<path d="M713.4,1386.74c37.32,19.27,73.38,40.15,107.95,62.48c1.9,1.23,4.95,1.69,4.24-0.6
						c-9.24-29.93-18.48-59.86-27.72-89.79c-0.43-1.39-3.77-4.48-5.91-3.88c-28.4,7.88-56.81,15.76-85.21,23.64
						c-3.29,0.91,2.3,6.33,5.03,5.57c28.4-7.88,56.81-15.76,85.21-23.64c-1.97-1.3-3.94-2.59-5.91-3.88
						c9.24,29.93,18.48,59.86,27.72,89.79c1.41-0.2,2.83-0.4,4.24-0.6c-35.14-22.7-71.84-43.92-109.77-63.51
						c-1.48-0.76-3.36-0.84-3.46,0.5C709.7,1384.22,711.82,1385.92,713.4,1386.74L713.4,1386.74z"/>
				</g>
			</g>
		</g>
		<g id="Ebene_4_1_">
			<g>
				<path class="st10" d="M607.24,1318.4c19.31,8.33,34.72,21.47,51.47,32.91c16.75,11.44,37.33,21.96,57.29,21.85
					c14.8-0.08,26.54-5.99,39.8-9.15c13.49-3.21,30.36-4.47,35.82-14.04c3.29-5.76,1.36-13.14-0.6-20.07
					c-6.42-22.67-12.84-45.35-19.26-68.02c-49.61,22.71-103.3,41.32-160.11,55.49"/>
				<g>
					<path class="st10" d="M607.31,1320.62c21.62,9.45,37.75,24.53,56.91,36.56c17.88,11.23,39.86,20.77,60.64,18.38
						c9.63-1.11,17.94-4.29,26.55-6.88c8.04-2.41,16.79-3.69,25.05-5.77c7.61-1.92,14.85-4.74,18.3-10.22
						c4.58-7.26,1.01-16.93-1.4-25.42c-6.07-21.43-12.14-42.86-18.2-64.29c-0.48-1.69-4.27-4.71-6.48-3.7
						c-38.61,17.65-79.63,32.85-122.72,45.37c-12.12,3.52-24.4,6.83-36.82,9.94c-3.32,0.83,2.24,6.27,5.03,5.57
						c44.42-11.1,86.97-24.87,127.15-41.2c11.37-4.62,22.55-9.45,33.53-14.47c-2.16-1.23-4.32-2.46-6.48-3.7
						c5.17,18.25,10.33,36.5,15.5,54.75c1.29,4.55,2.58,9.1,3.87,13.66c1.21,4.31,2.35,8.67,2.1,12.84
						c-0.43,7.14-6.29,11.58-14.28,14.15c-7.51,2.41-16.02,3.44-23.82,5.43c-8.54,2.18-16.34,5.34-25.09,7.23
						c-9.06,1.97-18.88,2.06-29.17-0.65c-10.39-2.74-20.21-7.51-29.12-12.9c-20.9-12.64-37.92-28.95-61.18-39.11
						C602,1313.93,603.88,1319.12,607.31,1320.62L607.31,1320.62z"/>
				</g>
			</g>
		</g>
		<g id="Ebene_5_1_">
			<g>
				<path class="st11" d="M281.56,906.3c98.5,128.43,190.04,253.79,294.07,380.51c6.28,7.64,21.15,25.38,32.04,28.56
					c11.6,3.39,23.82-8.55,33.8-11.38c42.9-12.18,64.86-22.99,109.85-38.28c3.63-1.23,33.05-3.35,12.74-26.11
					c-108.37-121.55-348.19-400.27-354.1-401.81c-4.73-1.24-9.9-0.94-13.37,0.84c-31.97,16.38-73.92,25.37-104.76,44.07
					c-9.71,5.89-18.39,17.19-7.55,25.7"/>
				<g>
					<path class="st11" d="M278.51,905.9c21.23,27.69,42.29,55.42,63.3,83.17c20.75,27.4,41.45,54.81,62.24,82.19
						c20.75,27.33,41.59,54.63,62.64,81.87c21.24,27.47,42.68,54.86,64.48,82.16c10.98,13.75,22.05,27.47,33.22,41.16
						c8.12,9.95,15.98,20.08,25.86,29.35c4.19,3.94,9.06,8.09,14.81,10.77c5.18,2.41,10.26,2.68,14.95,1.37
						c5.35-1.49,9.75-4.07,14.16-6.52c2.16-1.19,4.32-2.4,6.64-3.43c2.69-1.2,5.76-1.94,8.72-2.81c26.59-7.8,51.48-17.56,76.78-26.9
						c7.21-2.66,14.47-5.27,21.79-7.81c3.76-1.3,7.34-2.26,11.32-3.19c8.45-1.97,16.28-6.01,15.11-13.84
						c-1.31-8.72-10.73-17.2-17.59-24.92c-5.98-6.73-11.93-13.46-17.88-20.2c-13.5-15.29-26.95-30.59-40.38-45.91
						c-14.73-16.8-29.43-33.6-44.12-50.42c-15.39-17.61-30.77-35.23-46.14-52.86c-15.2-17.43-30.4-34.85-45.6-52.28
						c-14.44-16.55-28.89-33.1-43.35-49.65c-12.84-14.69-25.69-29.37-38.58-44.04c-10.64-12.11-21.31-24.22-32.03-36.3
						c-7.63-8.59-15.27-17.17-23.06-25.69c-4.12-4.51-8.14-9.23-12.87-13.47c-4.5-4.04-11.92-4.16-16.88-2.67
						c-3.34,1-6.12,2.79-9.1,4.18c-3.17,1.48-6.41,2.89-9.69,4.26c-6.64,2.77-13.46,5.34-20.33,7.85
						c-13.9,5.08-28.03,9.91-41.46,15.52c-6.69,2.79-13.2,5.78-19.39,9.08c-5.29,2.82-10.5,5.74-14.35,9.68
						c-6.3,6.43-9.39,15.56,0.8,23.85c1.09,0.89,3.48,2.35,4.81,1.55c1.29-0.78-0.3-2.79-1.36-3.65c-4.13-3.35-3.61-7.52-2.12-10.78
						c1.86-4.06,5.32-7.45,9.4-10.22c10.62-7.2,23.78-12.62,36.66-17.64c13.41-5.23,27.3-9.9,40.81-15.01
						c6.53-2.47,12.97-5.03,19.19-7.82c5.81-2.6,11.4-7.14,19.7-5.75c1.34,0.22,1.59,0.54,0.49-0.07c-0.61-0.34-1.13-0.66-0.69-0.37
						c-0.82-0.53-0.9-0.75-0.32-0.2c0.24,0.23,0.49,0.47,0.75,0.69c0.48,0.41-0.89-0.89-0.29-0.28c0.17,0.17,0.35,0.34,0.53,0.52
						c1.92,1.93,3.77,3.89,5.61,5.86c6.59,7.07,12.99,14.21,19.37,21.36c9.52,10.65,18.96,21.33,28.38,32.02
						c11.86,13.46,23.68,26.94,35.49,40.42c13.63,15.56,27.23,31.13,40.82,46.71c14.6,16.73,29.2,33.46,43.8,50.2
						c15.06,17.27,30.12,34.53,45.19,51.8c14.71,16.86,29.44,33.71,44.18,50.55c13.78,15.75,27.58,31.49,41.41,47.22
						c12.24,13.92,24.51,27.83,36.84,41.72c2.7,3.04,5.41,6.08,8.11,9.12c3.78,4.24,8,8.8,8.28,13.56
						c0.41,6.89-7.99,9.74-15.45,11.26c-4.88,0.99-9.19,2.71-13.64,4.27c-6.9,2.42-13.75,4.9-20.57,7.43
						c-12.19,4.52-24.26,9.18-36.53,13.61c-12.85,4.63-25.97,8.95-39.43,12.84c-5.22,1.51-9.59,3.46-13.96,5.87
						c-4.26,2.36-8.55,5.07-13.83,6.36c-4.44,1.09-8.21,0.54-12.44-2.26c-4.98-3.29-9.07-7.44-12.84-11.44
						c-9.6-10.16-17.83-20.93-26.38-31.46c-21.67-26.67-42.96-53.47-63.98-80.34c-20.8-26.58-41.33-53.24-61.72-79.95
						c-20.47-26.8-40.8-53.65-61.11-80.49c-20.32-26.86-40.64-53.73-61.06-80.56c-9.99-13.13-20.01-26.26-30.07-39.37
						c-0.99-1.3-2.77-2.98-4.83-3.18C277.92,903.35,277.63,904.74,278.51,905.9L278.51,905.9z"/>
				</g>
			</g>
		</g>
		<g id="Ebene_6_1_">
			<g>
				<path class="st12" d="M186.79,822.99c14.4,20.82,31.2,41.05,50.1,60.34c4.72,4.82,10.23,9.95,17.46,11.82
					c8.16,2.1,15.51-0.68,21.84-3.41c38.44-16.55,74.26-35.54,112.7-52.09c7.92-3.41,19.11-5.16,19.55-12.52
					c0.36-6.05-2.91-13.62-10.02-18.12c-20.29-12.84-33.24-33.04-40.33-45.71c-3.3-5.9-10.34-11.43-18.2-14.13
					c-10.14-3.49-20.01-0.29-28.2,3c-46.95,18.86-90.89,40.99-131.26,66.1"/>
				<g>
					<path class="st12" d="M183.75,822.59c11.37,16.4,24.16,32.47,38.31,48c3.59,3.94,7.26,7.84,11.02,11.71
						c3.51,3.61,7.09,7.21,11.52,10.3c4.05,2.83,8.97,5.11,14.05,5.84c4.78,0.68,9.23-0.04,13.15-1.26
						c9.32-2.88,17.65-7.24,26.09-11.09c9.15-4.18,18.21-8.46,27.24-12.76c18.05-8.61,36-17.33,54.4-25.59
						c4.43-1.99,8.84-4.03,13.4-5.87c3.7-1.5,7.74-2.62,11.32-4.24c3.13-1.42,6.04-3.35,7.14-6.11c1.18-2.94,0.6-6.58-0.48-9.87
						c-1.11-3.38-3.18-6.85-6.16-9.86c-3.11-3.15-7.22-5.41-10.88-8.18c-7.54-5.69-13.71-12.27-19.03-19
						c-4.62-5.86-8.55-11.95-12.1-18.06c-1.95-3.37-3.88-6.57-7.01-9.62c-3.37-3.29-7.53-6.24-12.2-8.44
						c-9.31-4.39-18.42-4.23-26.65-1.82c-9.12,2.67-17.4,6.59-25.75,10.15c-35.99,15.33-70.1,32.62-102.08,51.73
						c-3.94,2.35-7.84,4.74-11.72,7.14c-2.33,1.45,3.83,6.65,6.16,5.2c29.59-18.38,61.06-35.19,94.25-50.27
						c8.43-3.83,16.97-7.55,25.61-11.16c7.5-3.13,15.01-6.95,23.82-8.46c3.99-0.68,8.42-0.85,12.85,0.5
						c4.33,1.32,8.4,3.78,11.34,6.64c2.66,2.6,4.05,5.48,5.72,8.33c1.62,2.76,3.32,5.51,5.13,8.23
						c8.54,12.87,19.53,25.72,34.64,35.56c6.51,4.24,9.96,12.26,7.46,17.28c-2.61,5.24-11.83,6.78-17.87,9.25
						c-17.67,7.26-34.46,15.54-51.33,23.61c-17.1,8.17-34.14,16.4-51.62,24.19c-4.1,1.83-8.18,3.67-12.38,5.4
						c-3.61,1.47-7.47,2.81-11.92,3.07c-10.58,0.62-17.55-7.64-23.47-13.8c-13.8-14.39-26.47-29.28-37.78-44.54
						c-2.78-3.75-5.49-7.53-8.11-11.33c-0.9-1.3-2.83-2.98-4.83-3.18C183.1,820.04,182.95,821.43,183.75,822.59L183.75,822.59z"/>
				</g>
			</g>
		</g>
		<g id="Ebene_7_1_">
			<g>
				<path class="st13" d="M190.78,804.02c-26.2-16.62-40.22-38.33-57.92-58.9c-2.68-3.11-0.67-9.37-0.32-12.59
					c0.39-3.56,4.47-5.63,8.28-7.35c31.5-14.31,63-28.62,94.5-42.93c6.04-2.74,13.75-5.46,21.26-2.26c4.52,1.92,7.52,5.48,10.22,8.8
					c12.35,15.23,24.7,30.45,37.05,45.68c2.85,3.51,5.83,7.39,5.32,10.95c-0.55,3.93-5.14,6.18-9.41,8.07
					c-37.39,16.55-74.78,33.1-112.17,49.65"/>
				<g>
					<path class="st14" d="M191.63,802.32c-12.56-8.03-22.65-17.66-31.58-27.79c-4.47-5.08-8.68-10.25-12.88-15.42
						c-1.86-2.29-3.71-4.58-5.58-6.86c-1.02-1.25-2.05-2.49-3.09-3.73c-0.52-0.62-1.04-1.24-1.57-1.86
						c-0.35-0.41-0.7-0.82-1.05-1.24c-0.58-0.71-0.69-0.83-0.34-0.34c-0.97-1.88-0.52-4.05-0.29-5.8c0.28-2.06,0.34-4.53,1.3-6.37
						c1.27-2.42,4.53-3.83,7.35-5.13c3.64-1.67,7.31-3.32,10.97-4.98c13.78-6.26,27.56-12.52,41.34-18.78
						c14.06-6.39,28.07-12.84,42.18-19.17c4.57-2.05,11.08-4.97,17.58-2.86c3.38,1.09,5.44,3.63,7.31,5.87
						c2.71,3.24,5.29,6.51,7.94,9.77c10.21,12.58,20.57,25.12,30.62,37.75c1.78,2.24,3.67,4.71,3.84,7.13
						c0.23,3.11-2.6,5.16-5.47,6.7c-6.44,3.46-13.79,6.22-20.66,9.27c-31.68,14.02-63.36,28.04-95.04,42.07
						c-2.53,1.12,3.46,6.4,6.16,5.2c30.4-13.45,60.79-26.91,91.19-40.36c7.47-3.31,15.06-6.5,22.4-9.93
						c6.13-2.85,10.41-6.98,7.37-13.5c-1.4-2.99-3.68-5.78-5.94-8.57c-2.72-3.35-5.44-6.71-8.17-10.07
						c-5.55-6.84-11.09-13.68-16.64-20.52c-2.82-3.48-5.65-6.97-8.48-10.45c-2.51-3.1-4.89-6.28-7.95-9.17
						c-5.44-5.14-12.9-8.19-20.46-7.24c-7.57,0.94-13.71,4.59-19.79,7.35c-7.45,3.39-14.91,6.77-22.36,10.16
						c-14.91,6.77-29.81,13.54-44.72,20.32c-7.4,3.36-15.26,6.43-22.25,10.19c-2.79,1.51-5.2,3.44-5.77,6.21
						c-0.43,2.12-0.8,4.3-1.03,6.46c-0.22,2.07-0.25,4.27,0.75,6.45c1.25,2.72,4.16,5.42,6.24,7.94
						c4.54,5.48,8.93,11.01,13.47,16.48c9.14,11.02,19.11,21.95,31.57,31.38c3.15,2.38,6.41,4.67,9.81,6.84
						c1.23,0.79,3.54,1.71,4.27,0.53C194.93,805.1,192.91,803.14,191.63,802.32L191.63,802.32z"/>
				</g>
			</g>
		</g>
		<g id="Ebene_2_1_">
			<g>
				<g>
					<path d="M176.3,817.95c14.33,16.28,28.63,32.57,42.93,48.86c3.68,4.18,7.35,8.37,11.03,12.56c3.33,3.79,6.42,7.95,10.5,11.41
						c6.73,5.69,16.45,9.28,25.32,8.75c5.03-0.3,8.67-2.24,12.51-4.08c4.95-2.37,9.93-4.72,14.9-7.06
						c9.91-4.67,19.87-9.29,29.83-13.91c19.78-9.17,39.59-18.31,59.18-27.66c4.87-2.33,9.74-4.67,14.58-7.03
						c2.29-1.11,4.57-2.23,6.84-3.35c2.23-1.1,4.8-2.06,6.54-3.58c5.89-5.16,1.3-13.5-5.33-19.34
						c-6.07-5.33-12.67-10.41-18.15-16.06c-4.97-5.14-8.63-10.6-12.5-16.08c-3.36-4.76-7.15-9.44-11.03-14.04
						c-4.42-5.24-9.05-10.58-14.59-15.33c-1.99-1.71-4.21-3.43-6.78-4.61c-4.69-2.15-10.09-2.77-14.82-2.53
						c-5.15,0.25-9.65,1.63-13.96,3.16c-5.02,1.79-10,3.62-14.93,5.51c-39.48,15.04-76.35,32.96-110.94,52.82
						c-4.33,2.48-8.62,5-12.88,7.54c-2.36,1.41,3.78,6.62,6.16,5.2c32.38-19.34,66.75-37.02,103.44-52.25
						c9.26-3.85,18.67-7.54,28.22-11.05c7.84-2.89,17.47-7.48,28.08-4.51c0.73,0.2,1.46,0.44,2.15,0.73
						c0.51,0.22-0.38-0.27,0.53,0.31c0.75,0.49,0.24,0.13,0.72,0.5c0.61,0.46,1.18,0.95,1.74,1.44c2.27,1.96,4.28,4.06,6.24,6.17
						c4.6,4.95,8.85,10.05,12.86,15.2c3.51,4.51,6.45,9.16,9.88,13.68c3.88,5.12,8.3,9.91,13.41,14.53
						c2.91,2.62,5.93,5.18,8.94,7.75c3.33,2.83,7.21,5.59,8.63,9.12c1.32,3.29,0.25,6.23-2.81,8.03c-4.3,2.53-9.26,4.59-13.88,6.83
						c-37.03,17.98-75.06,34.99-112.34,52.71c-3.99,1.9-7.89,4.5-12.77,5.36c-3.71,0.66-7.91,0.39-11.95-0.89
						c-3.83-1.21-7.07-3.21-9.46-5.85c-3.48-3.84-6.81-7.75-10.22-11.63c-13.8-15.71-27.59-31.43-41.4-47.13
						c-3.18-3.61-6.35-7.22-9.52-10.83c-0.98-1.11-3.25-2.75-4.99-2.47C174.47,815.13,175.46,817,176.3,817.95L176.3,817.95z"/>
				</g>
			</g>
			<g>
				<g>
					<path d="M193.01,808.66c-17.92-18.87-38.04-37.26-53-57.25c-2.75-3.67-5.46-7.49-7.15-11.37c-1.1-2.54-1.92-5.1-0.53-7.11
						c1.76-2.56,5.34-4.38,8.36-6.04c4.47-2.45,9.26-4.61,14.11-6.7c8.69-3.75,17.84-7.03,26.44-10.86
						c11.87-5.29,22.5-11.95,33.75-17.83c6.07-3.17,12.27-6.23,18.62-9.13c3.51-1.6,6.98-3.5,10.87-4.69
						c2.29-0.7,4.7-0.87,7.39,0.12c2.88,1.06,5.58,2.66,8.33,3.97c0.9,0.43,1.8,0.84,2.7,1.25c0.82,0.37,0.02-0.01,0.19,0.08
						c0.29,0.16,0.97,0.69,0.35,0.21c0.47,0.35,0.91,0.74,1.34,1.11c3.57,3.12,7.05,7.39,10.1,11.15
						c6.56,8.07,12.32,16.33,18.13,24.6c5.78,8.22,12.05,16.03,19.25,23.79c2.5,2.7,4.99,5.39,7.47,8.1
						c1.01,1.1,3.23,2.75,4.99,2.47c1.78-0.28,0.83-2.16-0.03-3.1c-7.5-8.19-15.33-16.2-21.59-24.82
						c-6.6-9.09-12.75-18.26-19.74-27.24c-3.5-4.5-7.11-9.01-11.24-13.28c-1.66-1.71-3.39-3.43-5.37-4.97
						c-2.27-1.75-4.72-2.82-7.4-4.13c-5.54-2.69-11.45-6.22-17.59-5.39c-4,0.54-7.33,2.44-10.59,3.89
						c-3.66,1.63-7.28,3.3-10.86,5.03c-12.74,6.15-24.74,12.99-37.1,19.49c-8.52,4.48-17.77,8.04-26.99,11.81
						c-9.63,3.94-20.16,7.84-27.72,13.69c-2.4,1.86-4.12,3.88-3.92,6.84c0.24,3.56,2.2,7.32,4.29,10.81
						c6.08,10.14,14.93,19.84,23.57,29.19c9.57,10.35,19.67,20.48,29.59,30.68c2.02,2.08,4.04,4.17,6.03,6.26
						c1.04,1.1,3.21,2.75,4.99,2.47C194.8,811.49,193.9,809.6,193.01,808.66L193.01,808.66z"/>
				</g>
			</g>
			<g>
				<g>
					<path d="M266.79,894.4c27.65,34.32,54.56,68.88,81.1,103.54c26.39,34.48,52.42,69.05,78.5,103.62
						c26.11,34.62,52.27,69.23,78.87,103.72c13.25,17.18,26.61,34.33,40.13,51.44c6.89,8.73,13.83,17.44,20.81,26.14
						c4.63,5.77,9.18,11.59,14.31,17.19c4.88,5.33,10.39,11.03,17.33,15.1c7.85,4.6,15.6,4.1,22.75,1.84
						c9.97-3.14,19.48-6.92,29.17-10.4c10.33-3.71,20.67-7.42,31-11.13c20.51-7.37,41.02-14.74,61.53-22.11
						c5.09-1.83,10.18-3.65,15.27-5.49c4.24-1.52,8.6-3.03,12.02-5.36c6.59-4.49,6.96-11.23,2.38-18.42
						c-4.89-7.68-12.73-14.93-19.31-22.05c-7.49-8.11-14.97-16.22-22.43-24.34c-14.77-16.07-29.47-32.16-44.11-48.27
						c-28.66-31.54-57.09-63.18-85.3-94.9c-28.24-31.75-56.25-63.57-84.09-95.47c-28.75-32.93-57.32-65.93-85.78-98.97
						c-7.24-8.41-14.48-16.83-21.71-25.24c-0.96-1.11-3.27-2.74-4.99-2.47c-1.81,0.29-0.78,2.15,0.03,3.1
						c28.37,33.02,56.84,66.02,85.48,98.95c27.41,31.52,54.96,62.98,82.73,94.37c27.47,31.06,55.13,62.04,83.03,92.93
						c28.56,31.63,57.36,63.18,86.38,94.63c6.98,7.56,14.41,15.05,20.93,22.79c2.47,2.93,4.83,6.21,5.29,9.42
						c0.54,3.78-1.68,6.76-4.98,8.92c-3.51,2.3-7.9,3.79-12.17,5.33c-4.94,1.77-9.87,3.55-14.8,5.32
						c-10.03,3.6-20.05,7.2-30.07,10.8c-20.2,7.26-40.4,14.51-60.61,21.77c-9.8,3.52-19.46,7.25-29.44,10.55
						c-3.8,1.26-8.59,2.61-13.41,1.64c-2.34-0.47-4.47-1.92-6.25-3.24c-6.07-4.5-10.86-10.05-15.34-15.32
						c-5.57-6.57-10.79-13.27-16.1-19.93c-13.46-16.86-26.76-33.77-39.93-50.72c-26.3-33.83-52.11-67.82-77.8-101.83
						c-25.71-34.03-51.3-68.1-77.16-102.09c-25.74-33.82-51.75-67.58-78.37-101.13c-6.59-8.31-13.22-16.6-19.89-24.88
						c-0.91-1.12-3.31-2.74-4.99-2.47C264.91,891.59,266.01,893.44,266.79,894.4L266.79,894.4z"/>
				</g>
			</g>
			<g>
				<g>
					<path d="M598.08,1317.7c28.28,17.82,56.84,35.36,85.6,52.7c30.58,18.44,61.38,36.65,92.45,54.56
						c16.59,9.56,33.25,19.03,50.02,28.38c1.97,1.1,3.85,0.56,3.33-1.12c-16.01-51.73-31.87-103.48-44.93-155.18
						c-3.53-13.95-6.83-27.89-9.86-41.82c-0.53-2.42-7.6-5.92-6.79-2.2c11.03,50.68,25.67,101.5,41.07,152.28
						c4.52,14.91,9.11,29.81,13.73,44.72c1.11-0.37,2.22-0.74,3.33-1.12c-30.11-16.79-59.88-33.97-89.44-51.38
						c-30.36-17.88-60.49-36-90.38-54.36c-15.55-9.55-31.04-19.17-46.44-28.87c-1.24-0.78-3.53-1.72-4.27-0.53
						C594.79,1314.91,596.79,1316.88,598.08,1317.7L598.08,1317.7z"/>
				</g>
			</g>
			<g>
				<path d="M704.37,1380.61c23.13-8.69,74.21-19.07,91.88-28.81c6.92,30.2,19.66,63.21,27.15,95.86
					c-64.71-34.29-105.23-58.46-115.81-65.13"/>
				<g>
					<path d="M707.45,1383.21c11.5-4.29,23.99-7.47,36.26-10.79c13.38-3.63,26.85-7.18,39.69-11.5c5.56-1.87,11.09-3.88,15.93-6.52
						c-2.16-1.23-4.32-2.46-6.48-3.7c7.36,31.92,19.79,63.93,27.15,95.86c1.11-0.37,2.22-0.74,3.33-1.12
						c-35.08-18.6-69.93-37.63-103.7-57.78c-3.76-2.24-7.52-4.5-11.2-6.82c-1.24-0.78-3.53-1.72-4.27-0.53
						c-0.71,1.14,1.29,3.12,2.59,3.93c24.89,15.66,51.22,30.1,77.32,44.41c13.06,7.16,26.2,14.23,39.4,21.23
						c2.09,1.11,3.71,0.55,3.33-1.12c-7.36-31.93-19.79-63.93-27.15-95.86c-0.37-1.6-4.42-4.82-6.48-3.7
						c-9.46,5.15-21.17,8.34-32.34,11.55c-13.53,3.87-27.34,7.39-40.86,11.28c-6.35,1.83-12.66,3.74-18.68,5.98
						C698.7,1378.98,704.6,1384.27,707.45,1383.21L707.45,1383.21z"/>
				</g>
			</g>
		</g>
		<g id="Ebene_9_1_">
			<g class="st4">
				<g>
					<path d="M131.8,734.88c0.74-2.19-6.05-6.86-6.86-4.46C124.21,732.61,130.99,737.29,131.8,734.88L131.8,734.88z"/>
				</g>
			</g>
			<g class="st4">
				<path d="M131.44,737.39c56.69,19.28,118.72,21.73,167.25,6.62c4.26-1.32,12.11-1.07,12.57,2.69c0.21,1.72-1.75,2.76-3.54,3.55
					c-37.18,16.34-74.36,32.69-111.54,49.03c-3.06,1.35-6.53,2.73-10.53,1.92c-4.26-0.86-7.59-3.89-10.37-6.7
					c-18.57-18.73-34.24-38.78-46.46-59.44"/>
				<g>
					<path d="M132.4,739.96c51.95,17.57,108.23,21.46,154.89,10.59c2.64-0.62,5.24-1.27,7.81-1.98c2.78-0.76,5.48-1.87,8.48-2.31
						c1.06-0.15,2.16-0.24,3.3-0.18c0.45,0.02,2.06,0.47,2.43,0.38c-0.53-0.5-1.05-0.99-1.58-1.49c0.03,0.5-0.17,0.91-0.57,1.24
						c-0.36,0.4-0.99,0.68-1.51,0.95c-1.68,0.87-3.53,1.58-5.3,2.36c-12.59,5.53-25.17,11.07-37.75,16.59
						c-12.59,5.53-25.17,11.07-37.75,16.59c-6.29,2.77-12.59,5.53-18.87,8.3c-2.86,1.26-5.72,2.52-8.58,3.77
						c-2.94,1.29-5.9,3-9.39,3.63c-3.69,0.66-6.45-0.68-9.12-3.16c-2.77-2.57-5.27-5.32-7.78-8c-5.09-5.43-9.93-10.95-14.52-16.56
						c-9.37-11.44-17.58-23.24-24.7-35.23c-0.77-1.31-2.92-2.99-4.83-3.18c-1.99-0.19-1.93,1.22-1.25,2.37
						c6.85,11.55,14.75,22.88,23.59,33.93c4.33,5.4,8.89,10.74,13.67,15.98c4.63,5.07,9.33,10.8,15.31,15.18
						c2.83,2.08,6.25,3.89,9.94,4.37c3.4,0.44,6.31-0.38,8.94-1.39c6.91-2.65,13.39-5.85,20.04-8.77
						c13.44-5.91,26.89-11.82,40.32-17.73c13.44-5.91,26.89-11.82,40.32-17.73c3.43-1.51,6.86-3.02,10.29-4.53
						c2.61-1.15,6.3-2.26,6.54-4.95c0.41-4.62-6.58-8.31-12.15-8.52c-6.11-0.23-11.18,2.19-16.43,3.52
						c-6.25,1.58-12.69,2.9-19.28,3.95c-12.91,2.05-26.41,3.06-40.22,3.05c-31.52-0.02-64.69-5.56-96.22-16.22
						c-1.81-0.61-2.84,0.19-2.43,1.48C128.5,737.76,130.54,739.33,132.4,739.96L132.4,739.96z"/>
				</g>
			</g>
			<g class="st4">
				<path d="M181.47,821.27c16.92,10.91,24.75,26.92,34.79,41.35s26.82,29.92,46.94,31.72c11.32,1.01,20.94-2.66,29.84-6.3
					c39.8-16.24,78.62-33.55,116.37-51.89c1.95-0.95,4.04-2.07,4.23-3.93c0.29-2.73-3.88-5.58-7.72-6.19
					c-3.85-0.61-7.31,0.35-10.57,1.28c-32.07,9.13-65.9,16.64-102.7,16.84c-36.8,0.19-77.14-7.54-110.68-25.92"/>
				<g>
					<path d="M180.63,822.97c14.19,9.29,21.41,22.39,29.22,34.25c8.3,12.6,19.06,25.67,35.45,34c7.67,3.89,16.12,6.11,24.38,6.09
						c8.58-0.02,16.03-2.54,22.91-5.22c16.46-6.43,32.47-13.41,48.43-20.37c16.2-7.07,32.22-14.33,48.06-21.76
						c7.96-3.73,15.98-7.43,23.76-11.34c2.92-1.47,5.22-3.52,3.99-6.72c-1.13-2.93-4.63-5.72-8.24-7.29
						c-8.41-3.66-16.52,0.2-23.22,2.03c-8.23,2.25-16.57,4.37-25.06,6.25c-16.77,3.73-34.16,6.6-52.3,7.83
						c-36.23,2.46-77.05-2.05-113.21-18.29c-4.4-1.98-8.69-4.12-12.88-6.4c-1.47-0.8-3.37-0.81-3.46,0.5
						c-0.1,1.45,2.02,3.07,3.6,3.93c32.66,17.77,71.11,25.81,106.67,26.45c36,0.64,69.2-5.88,100.41-14.35
						c3.82-1.04,7.55-2.22,11.44-3.16c1.86-0.45,7.42-1.77,9.4,0.28c1.97,2.03-5.05,4.61-6.43,5.28c-3.75,1.82-7.52,3.62-11.29,5.42
						c-15.1,7.18-30.36,14.2-45.79,21.05c-15.56,6.91-31.29,13.66-47.18,20.23c-12.69,5.25-27.81,13.67-45.67,8.5
						c-16.51-4.78-27.97-17.76-35.57-28.96c-7.92-11.68-14.65-23.88-26.27-34.38c-2.86-2.58-6.05-5-9.44-7.22
						c-1.22-0.8-3.54-1.7-4.27-0.53C177.32,820.2,179.35,822.13,180.63,822.97L180.63,822.97z"/>
				</g>
			</g>
			<g class="st4">
				<path d="M280.84,904.94c95.89,129.28,194.35,257.84,295.34,385.62c5.99,7.58,13.02,15.86,23.63,19.36
					c11.99,3.95,23.53,0.2,33.3-3.54c43.33-16.59,86.65-33.18,129.99-49.77c3.02-1.16,6.27-2.54,6.85-5.16
					c1.15-5.21-8.2-9.78-15.54-12.26c-69.22-23.35-133.6-58.16-192.23-97.17c-58.63-39-111.95-82.29-164.91-125.55
					c-43.1-35.21-87.12-71.64-112.53-113.55"/>
				<g>
					<path d="M277.8,904.53c25.8,34.78,51.79,69.52,77.96,104.2c26.08,34.55,52.33,69.05,78.78,103.49
						c26.53,34.56,53.24,69.06,80.14,103.51c13.35,17.1,26.76,34.19,40.2,51.27c6.67,8.47,13.28,16.98,20.06,25.42
						c5.49,6.83,12.17,14.15,21.63,18.42c9.24,4.16,18.73,4.2,27.12,2.2c9.56-2.28,18.07-6.18,26.76-9.52
						c19.89-7.61,39.77-15.22,59.65-22.84c9.8-3.75,19.58-7.5,29.38-11.25c5.04-1.93,10.09-3.86,15.13-5.79
						c4.66-1.78,9.59-3.38,14-5.44c3.43-1.59,5.76-4.14,4.66-7.68c-0.91-2.99-3.86-5.76-7.07-7.92
						c-7.87-5.32-18.46-7.86-27.52-11.16c-45.15-16.44-88.21-37.73-128.59-61.55c-40.94-24.15-79.28-50.91-115.97-78.74
						c-36.44-27.63-71.51-56.26-106.39-84.93c-31.06-25.54-61.79-51.88-84.91-81.24c-5.57-7.07-10.58-14.31-15.05-21.65
						c-0.8-1.31-2.91-2.99-4.83-3.18c-1.98-0.19-1.95,1.21-1.25,2.37c18.33,30.09,46.1,57.56,75.82,83.29
						c15.22,13.18,31.02,26.01,46.78,38.86c17.5,14.28,35.06,28.53,52.87,42.6c35.3,27.89,71.65,55.17,110.26,80.49
						c38.34,25.14,79.03,48.42,122.08,67.94c21.28,9.65,43.1,18.33,65.35,25.91c3.35,1.14,7.07,2.48,9.84,4.51
						c3.06,2.23,1.67,4.65-0.64,6.06c-3.81,2.33-8.95,3.72-13.39,5.42c-4.9,1.87-9.8,3.75-14.69,5.63
						c-19.58,7.5-39.18,15-58.76,22.49c-9.64,3.69-19.29,7.38-28.93,11.08c-8.98,3.44-17.74,7.42-27.37,10.09
						c-7.68,2.13-17.3,3.34-26.06-1.23c-8.77-4.57-14.09-12.74-19.24-19.26c-13.38-16.94-26.71-33.89-40-50.85
						c-26.39-33.69-52.6-67.43-78.64-101.22c-26.12-33.91-52.07-67.87-77.83-101.88c-25.76-34.01-51.35-68.07-76.76-102.19
						c-6.18-8.3-12.36-16.6-18.51-24.91c-0.96-1.3-2.79-2.98-4.83-3.18C277.19,901.99,276.95,903.38,277.8,904.53L277.8,904.53z"/>
				</g>
			</g>
			<g class="st4">
				<path d="M605.28,1317.3c68.57,46.66,141.26,89.8,217.02,128.79c3.7-9.25-2.84-21.05-12.93-29.92
					c-10.1-8.87-23.28-15.43-36.18-21.8c-55.45-27.39-110.91-54.78-166.36-82.16"/>
				<g>
					<path d="M604.44,1319c53.7,36.52,109.89,70.88,168.1,102.82c16.45,9.03,33.07,17.85,49.83,26.49c0.99,0.51,2.99,0.99,3.36,0.01
						c3.73-9.92-2.65-21.79-12.48-31.2c-11.5-11.01-27.47-18.71-42.68-26.22c-34.87-17.22-69.74-34.44-104.61-51.67
						c-19.73-9.75-39.47-19.49-59.2-29.24c-1.49-0.73-3.36-0.86-3.46,0.5c-0.1,1.39,2,3.15,3.6,3.93c33,16.3,66,32.6,99,48.89
						c16.67,8.23,33.34,16.47,50.01,24.7c14.92,7.37,30.91,14.3,44.32,23.46c12.69,8.67,22.76,21.4,18.64,32.38
						c1.12,0,2.24,0.01,3.36,0.01c-58.84-30.31-115.81-63.09-170.44-98.11c-15.41-9.88-30.63-19.94-45.66-30.16
						c-1.21-0.82-3.55-1.68-4.27-0.53C601.12,1316.24,603.18,1318.14,604.44,1319L604.44,1319z"/>
				</g>
			</g>
		</g>
		<g id="Ebene_10_1_">
			<g class="st4">
				<g>
					<path class="st5" d="M193.12,723.84c12.93-4.28,22.28-11.86,34.35-16.97c0.89-0.38-0.8,0.27,0.11-0.05
						c0.26-0.09,0.52-0.19,0.78-0.28c0.6-0.2,1.2-0.39,1.82-0.56c1.24-0.34,2.53-0.61,3.89-0.76c0.59-0.07,1.2-0.11,1.81-0.12
						c0.25-0.01,1.84,0.06,0.95-0.02c1.43,0.12,2.89,0.46,4.29,0.9c7,2.17,12.31,6.86,17.03,11.26
						c6.73,6.28,12.74,12.94,20.21,18.82c3.9,3.07,7.29-2.88,8.09-4.57c1.09-2.29,1.95-4.78,1.94-7.38
						c-0.01-1.42,0.22-3.98-1.41-5.27c-6.7-5.27-12.24-11.17-18.16-16.87c-5.17-4.98-11.07-10.42-18.45-13.64
						c-13.8-6.01-25.65,1.96-34.19,6.87c-6.17,3.55-12.72,7.43-19.54,9.69c-4.75,1.57-6.61,6.56-7.22,10.4
						C189.29,716.27,188.87,725.25,193.12,723.84L193.12,723.84z"/>
				</g>
			</g>
			<g class="st4">
				<g>
					<path class="st5" d="M327.45,784.34c7.09,8.81,14.18,17.62,21.27,26.43c1.1,1.37,3.06,0.8,4,0.29
						c1.92-1.02,3.31-3.23,4.08-4.86c1.55-3.26,3.72-8.69,0.53-12.65c-7.09-8.81-14.18-17.62-21.27-26.43c-1.1-1.37-3.06-0.8-4-0.29
						c-1.92,1.02-3.31,3.23-4.08,4.86C326.43,774.95,324.26,780.37,327.45,784.34L327.45,784.34z"/>
				</g>
			</g>
			<g class="st4">
				<g>
					<path class="st5" d="M399.77,882.95c35.04,40.77,69.79,81.65,104.43,122.56c32.93,38.88,65.79,77.79,98.83,116.64
						c19.09,22.45,38.24,44.87,57.49,67.27c3.1,3.61,7.56-3.46,8.09-4.57c1.09-2.29,1.95-4.78,1.94-7.38c0-1.67,0.01-3.61-1.41-5.27
						c-33.88-39.43-67.46-78.96-100.96-118.52c-33.25-39.26-66.43-78.55-99.79-117.76c-19.92-23.42-39.91-46.82-59.98-70.18
						c-3.1-3.61-7.56,3.46-8.09,4.57c-1.09,2.29-1.95,4.78-1.94,7.38C398.35,879.35,398.34,881.29,399.77,882.95L399.77,882.95z"/>
				</g>
			</g>
			<g class="st4">
				<g>
					<path class="st5" d="M790.57,1390.37c-10.27-27.09-18.48-53.94-24.53-80.52c-1.76-7.74-3.35-15.46-4.78-23.18
						c-0.19-1-0.64-3.27-2.46-3.88c-1.78-0.6-3.61,0.9-4.31,1.61c-3.26,3.29-5.32,8.57-4.45,13.25
						c5.15,27.79,12.43,55.75,21.81,83.66c2.65,7.88,5.48,15.76,8.46,23.62c1.75,4.61,6.57,0.46,7.68-1.16
						C790.44,1400.16,792.35,1395.07,790.57,1390.37L790.57,1390.37z"/>
				</g>
			</g>
		</g>
	</g>
</g>
<g id="Ebene_23">
</g>
</svg>
