<?xml version="1.0" encoding="utf-8"?>
<!-- Generator: Adobe Adobe Illustrator 24.2.0, SVG Export Plug-In . SVG Version: 6.00 Build 0)  -->
<svg version="1.1" xmlns="http://www.w3.org/2000/svg" xmlns:xlink="http://www.w3.org/1999/xlink" x="0px" y="0px"
	 viewBox="0 0 1700.79 1700.79" style="enable-background:new 0 0 1700.79 1700.79;" xml:space="preserve">
<style type="text/css">
	.st0{fill:#91625E;}
	.st1{fill:#6DB572;}
	.st2{fill:#6CB671;}
	.st3{fill:#F0C2A1;}
	.st4{opacity:0.149;}
	.st5{fill:#FFFFFF;}
	.st6{stroke:#000000;stroke-width:1.1146;stroke-miterlimit:10;}
	.st7{fill:#FFFFFF;stroke:#FFFFFF;stroke-width:1.1146;stroke-miterlimit:10;}
	.st8{stroke:#000000;stroke-miterlimit:10;}
	.st9{fill:#CB5B7B;stroke:#CB5B7B;stroke-width:2.2725;stroke-miterlimit:10;}
	.st10{fill:#D15238;}
	.st11{fill:#D15239;}
</style>
<g id="Ebene_6">
	<g>
		<path class="st0" d="M818.05,799.72c46.22-65.09,52.84-156.14,16.52-227.23c9.41-7.22,18.82-14.44,28.22-21.66
			c4.85,22.9,41.24,23.68,55.92,5.44c14.68-18.23,13.68-44.07,11.95-67.41c-2.8-37.76-10.39-82.7-45.07-97.89
			c-22.3-9.77-51.03-1.39-64.57,18.84c-13.55,20.23-10.35,49.98,7.17,66.88c-13.39,7.51-26.79,15.02-40.18,22.53
			c-51.46-35.92-47.09-30-117.89-44.12c-136.16-27.14-212.92,26.39-225.1,26.02c-12.18-0.36-17.16-24.15-20.75-35.79
			c-2.03-6.58-0.82-13.65-0.84-20.53c-0.09-30.05-25.79-56.39-55.26-62.28c-29.47-5.9-58.05,10.56-80.31,30.76
			c-27.68,25.11-45.62,62.76-29.59,96.52s69.52,45.77,92.08,15.97c6.21,8.13,12.43,16.25,18.64,24.38
			c-20.74,33.68-52.55,70-45.37,108.9c7.89,42.69,11.35,68.99,17.76,114.72c10.53,75.07,107.38,79.77,174.38,85.77
			c99.44,8.9,200.85-8,292.78-46.95"/>
		<g>
			<path class="st0" d="M824.52,803.5c37.05-52.6,49.2-120.97,35.09-183.5c-4.02-17.8-10.33-35.03-18.57-51.3
				c-0.9,3.42-1.79,6.84-2.69,10.26c9.41-7.22,18.82-14.44,28.22-21.66c-3.67-1.49-7.35-2.99-11.02-4.48
				c6.23,26.35,41.42,29.19,60.63,15.79c27.31-19.06,23.98-59.48,21.24-88.42c-2.66-28.17-7.9-59.31-27.7-80.96
				c-20.45-22.36-55.31-26.27-80.11-8.56c-29.64,21.16-32.47,65.74-6.74,91.31c0.51-3.93,1.01-7.85,1.52-11.78
				c-13.39,7.51-26.79,15.02-40.18,22.53c2.52,0,5.05,0,7.57,0c-18.33-12.78-36.79-26.38-58.58-32.56
				c-10.68-3.03-21.71-4.84-32.61-6.87c-18.23-3.38-36.38-7.33-54.77-9.81c-57.46-7.76-115.98-2.5-170.29,18.15
				c-6.88,2.62-13.66,5.48-20.46,8.3c-2.26,0.93-4.51,1.88-6.82,2.69c-0.8,0.28-1.61,0.53-2.41,0.78c-0.33,0.1-0.7,0.13-1.02,0.26
				c-1.51,0.58,0.85-0.42,0.71-0.07c-0.15,0.36-1.46-0.33-1.58-0.41c-2.12-1.44-3.46-4.18-4.59-6.36
				c-2.94-5.71-4.59-12.09-6.35-18.24c-0.94-3.3-2.12-6.55-2.38-9.98c-0.37-4.82,0.35-9.69,0.26-14.52
				c-0.14-8.21-1.97-16.23-5.16-23.77c-13.4-31.63-48.45-50.82-82.22-45.45c-18.82,2.99-35.86,12.83-50.68,24.42
				c-14.35,11.22-27.09,24.69-36.02,40.66c-15.95,28.53-17.71,66.69,7.53,90.65c19.56,18.56,51.52,26.11,76.08,13.22
				c5.89-3.09,11.13-7.52,15.22-12.77c-3.93-0.51-7.85-1.01-11.78-1.52c6.21,8.13,12.43,16.25,18.64,24.38c0-2.52,0-5.05,0-7.57
				c-14.03,22.65-30.75,43.82-40.69,68.75c-4.74,11.89-7.59,24.96-6.52,37.81c1.12,13.37,4.49,26.73,6.68,39.97
				c4.34,26.26,7.94,52.63,11.63,78.99c2.7,19.3,9.9,36.86,23.98,50.68c27.7,27.19,69.59,34.71,106.57,39.4
				c49.89,6.34,100.46,9.47,150.66,5.54c67.3-5.27,133.53-21.46,195.71-47.7c3.72-1.57,6.43-4.96,5.24-9.23
				c-0.98-3.51-5.46-6.83-9.23-5.24c-53.53,22.58-110.23,38.03-167.96,44.83c-28.58,3.37-57.39,4.72-86.16,3.96
				c-22.62-0.59-45.21-2.7-67.73-4.9c-35.5-3.47-74.89-7.89-105.28-28.19c-13.51-9.02-23.8-21.97-28.34-37.66
				c-3.3-11.42-4.13-23.59-5.78-35.33c-1.77-12.62-3.55-25.23-5.47-37.82c-2.08-13.64-4.32-27.26-6.74-40.85
				c-1.24-6.98-2.92-13.93-3-21.04c-0.08-6.98,1.12-13.78,3.11-20.45c8.17-27.31,27.47-50.1,42.26-73.98c1.27-2.05,1.54-5.55,0-7.57
				c-6.21-8.13-12.43-16.25-18.64-24.38c-2.56-3.35-8.47-5.76-11.78-1.52c-15.41,19.77-43.98,17.73-63.3,4.95
				c-26.01-17.2-26.32-51.21-12.7-76.53c8.06-14.97,19.8-27.45,33.09-37.93c13.38-10.55,29.4-19.73,46.59-21.76
				c30.06-3.55,62.3,18.61,66.8,49.26c1.24,8.49-0.68,17.05,0.76,25.55c1.03,6.06,3.23,12.26,5.16,18.09
				c3.58,10.81,9.89,26.49,23.59,26.54c3.8,0.01,7.51-1.56,10.98-2.95c5.89-2.35,11.69-4.89,17.58-7.24
				c47.53-18.93,98.06-26.37,149.1-22.43c19.01,1.47,37.61,4.86,56.31,8.45c12.79,2.46,25.65,4.62,38.4,7.32
				c4.48,0.95,8.94,1.99,13.33,3.3c1.8,0.54,3.6,1.12,5.37,1.75c0.93,0.33,1.86,0.68,2.79,1.05c0.35,0.14,0.69,0.27,1.04,0.42
				c2.26,0.93-1.28-0.58,0.98,0.42c8.95,4,17.27,9.28,25.42,14.7c6.03,4.01,11.98,8.14,17.92,12.28c2.18,1.52,5.36,1.24,7.57,0
				c13.39-7.51,26.79-15.02,40.18-22.53c4.21-2.36,4.9-8.42,1.52-11.78c-17.09-16.98-18.26-47.11-0.57-64.13
				c16.95-16.31,44.75-17.15,62.24-1.36c17.27,15.6,22.97,40.61,25.98,62.75c1.72,12.69,2.75,25.63,2.95,38.43
				c0.21,13.53-0.84,27.83-7.91,39.72c-5.58,9.37-14.97,14.6-25.89,14.76c-8.93,0.13-18.04-3.32-20.26-12.72
				c-1.01-4.28-7.19-7.42-11.02-4.48c-9.41,7.22-18.82,14.44-28.22,21.66c-3.37,2.59-4.72,6.25-2.69,10.26
				c27.29,53.92,29.11,118.87,7.51,175.04c-6.08,15.81-14.28,30.78-24.03,44.62C806,803.84,819,811.34,824.52,803.5L824.52,803.5z"
				/>
		</g>
	</g>
</g>
<g id="Ebene_7">
	<g>
		<path class="st1" d="M359.5,520.11c1.49,3.45,2.99,6.9,4.48,10.34c19.92-22.71,43.46-42.24,69.45-57.62
			c-3.15-5.98-6.3-11.95-9.46-17.93c-18.74,23.14-40.77,43.61-65.21,60.62"/>
		<g>
			<path class="st2" d="M353.03,523.89c1.49,3.45,2.99,6.9,4.48,10.34c1.88,4.33,8.85,4.84,11.78,1.52
				c19.64-22.25,42.44-41.25,67.93-56.45c3.59-2.14,4.6-6.65,2.69-10.26c-3.15-5.98-6.3-11.95-9.46-17.93
				c-2.09-3.97-8.77-5.21-11.78-1.52c-18.43,22.62-39.78,42.71-63.7,59.44c-7.85,5.49-0.36,18.5,7.57,12.95
				c24.98-17.48,47.47-38.15,66.73-61.79c-3.93-0.51-7.85-1.01-11.78-1.52c3.15,5.98,6.3,11.95,9.46,17.93
				c0.9-3.42,1.79-6.84,2.69-10.26c-26.52,15.81-50.53,35.64-70.97,58.8c3.93,0.51,7.85,1.01,11.78,1.52
				c-1.49-3.45-2.99-6.9-4.48-10.34c-1.62-3.75-7.05-4.52-10.26-2.69C351.85,515.83,351.42,520.2,353.03,523.89L353.03,523.89z"/>
		</g>
	</g>
	<g>
		<path class="st1" d="M804.36,489.36c-3.51,2.77-7.01,5.53-10.52,8.3c18.27,18.82,33.94,40.16,46.42,63.23
			c2.96-3.48,5.93-6.97,8.89-10.45c-13.48-19.94-26.97-39.88-40.45-59.82"/>
		<g>
			<path class="st2" d="M799.06,484.06c-3.51,2.77-7.01,5.53-10.52,8.3c-3.22,2.54-2.55,7.96,0,10.61
				c17.83,18.48,32.96,39.16,45.24,61.71c2.18,3.99,8.68,5.17,11.78,1.52c2.96-3.48,5.93-6.97,8.89-10.45
				c2.06-2.42,3.12-6.21,1.17-9.09c-13.48-19.94-26.97-39.88-40.45-59.82c-5.38-7.95-18.38-0.46-12.95,7.57
				c13.48,19.94,26.97,39.88,40.45,59.82c0.39-3.03,0.78-6.06,1.17-9.09c-2.96,3.48-5.93,6.97-8.89,10.45
				c3.93,0.51,7.85,1.01,11.78,1.52c-12.87-23.61-28.92-45.4-47.59-64.75c0,3.54,0,7.07,0,10.61c3.51-2.77,7.01-5.53,10.52-8.3
				c3.2-2.53,2.6-7.95,0-10.61C806.56,480.88,802.22,481.56,799.06,484.06L799.06,484.06z"/>
		</g>
	</g>
	<g>
		<path class="st1" d="M477.62,928.78c-20.44,155.68-40.87,311.36-61.31,467.04c113.24,55.25,216.9,67.85,343.55,22.77
			c-33.39-160.8-52.53-324.56-57.12-488.73c-73.81,11.19-149.68,8.64-222.57-7.47"/>
		<g>
			<path class="st2" d="M470.12,928.78c-15.93,121.38-31.87,242.75-47.8,364.13c-4.5,34.3-9.01,68.6-13.51,102.91
				c-0.31,2.38,1.62,5.46,3.71,6.48c42.06,20.45,86.27,37.01,132.45,45.15c44.76,7.89,90.23,7.73,135.02,0.13
				c27.89-4.74,55.21-12.31,81.86-21.75c4.01-1.42,6.11-5.01,5.24-9.23c-25.93-125.08-43.27-251.88-51.77-379.33
				c-2.39-35.77-4.07-71.58-5.08-107.41c-0.15-5.32-4.65-7.96-9.49-7.23c-72.53,10.87-146.97,8.24-218.58-7.47
				c-9.41-2.06-13.43,12.39-3.99,14.46c74.43,16.33,151.22,18.77,226.56,7.47c-3.16-2.41-6.33-4.82-9.49-7.23
				c3.64,128.36,16.1,256.45,37.25,383.12c6.01,36,12.74,71.88,20.15,107.61c1.75-3.08,3.49-6.15,5.24-9.23
				c-44.25,15.67-90.38,26.02-137.43,27.04c-43.55,0.94-86.66-6.23-128.06-19.58c-24.81-8-48.85-18.08-72.29-29.48
				c1.24,2.16,2.48,4.32,3.71,6.48c15.93-121.38,31.87-242.75,47.8-364.13c4.5-34.3,9.01-68.6,13.51-102.91
				c0.53-4.02-3.83-7.5-7.5-7.5C473.13,921.28,470.65,924.74,470.12,928.78L470.12,928.78z"/>
		</g>
	</g>
	<g>
		<g>
			<path class="st2" d="M704.46,941.43c9.65,0,9.67-15,0-15C694.81,926.43,694.79,941.43,704.46,941.43L704.46,941.43z"/>
		</g>
	</g>
</g>
<g id="Ebene_8">
	<g>
		<path class="st2" d="M519.13,1588.04c-10.03,7.8-23.91,7.67-35.98,11.63c-12.07,3.96-23.8,17.17-17.56,28.25
			c4.43,7.87,14.99,9.27,24.01,9.66c25.4,1.1,50.84,1.36,76.26,0.8c-1.41-9.8-2.82-19.61-4.24-29.41
			c-8.44,5.77-17.19,11.68-27.22,13.62s-21.79-1.15-26.99-9.95c-5.2-8.8,0.12-22.8,10.33-23.4"/>
		<g>
			<path class="st2" d="M515.34,1581.56c-12.88,9.46-30.55,6.58-43.79,15.52c-12.32,8.32-21.3,25.39-9.77,38.31
				c10.66,11.95,31.03,9.9,45.4,10.31c19.55,0.55,39.12,0.59,58.67,0.17c5.35-0.11,7.93-4.68,7.23-9.49
				c-1.41-9.8-2.82-19.61-4.24-29.41c-0.67-4.66-7.36-6.98-11.02-4.48c-10.38,7.09-23.49,16.69-36.75,11.91
				c-4.04-1.46-7.89-4.48-8.19-9.05c-0.18-2.87,1.3-8.23,4.83-8.62c4.03-0.44,7.5-3.13,7.5-7.5c0-3.71-3.45-7.95-7.5-7.5
				c-20.58,2.27-26.08,28.96-10.88,41.54c18.5,15.31,41.72,3.66,58.55-7.83c-3.67-1.49-7.34-2.99-11.02-4.48
				c1.41,9.8,2.82,19.61,4.24,29.41c2.41-3.16,4.82-6.33,7.23-9.49c-16.3,0.35-32.6,0.38-48.89,0.06
				c-8.15-0.16-16.29-0.41-24.44-0.74c-5.48-0.22-11.53-0.19-16.58-2.64c-11.92-5.77,2.2-18.15,9.19-20.66
				c12.68-4.54,26.49-4.11,37.78-12.39c3.29-2.41,4.84-6.48,2.69-10.26C523.76,1581.01,518.6,1579.17,515.34,1581.56L515.34,1581.56
				z"/>
		</g>
	</g>
	<g>
		<path class="st2" d="M606.88,1611.75c8.2,3.93,16.63,7.92,25.7,8.7c9.06,0.78,19.04-2.35,23.96-9.99
			c4.92-7.65,2.32-19.87-6.27-22.87c15.29,6.39,30.59,12.79,45.88,19.18c5.49,2.29,11.85,5.77,12.1,11.71
			c0.34,7.85-9.72,11.24-17.53,11.98c-28.73,2.71-57.72,2.71-86.45-0.03c-1.16-3.24-2.33-6.49-3.49-9.73"/>
		<g>
			<path class="st2" d="M603.1,1618.22c17.11,8.18,38.64,16.04,55.02,1.77c13.02-11.35,10.3-33.06-5.85-39.64
				c-3.78-1.54-8.21,1.67-9.23,5.24c-1.23,4.31,1.52,7.67,5.24,9.23c14.07,5.88,28.15,11.75,42.21,17.65
				c2.33,0.98,10.43,3.98,10.3,6.13c-0.16,2.67-6.48,3.75-8.44,4.11c-13.83,2.54-28.87,2.22-42.89,2.27
				c-15.09,0.06-30.17-0.66-45.19-2.05c2.41,1.84,4.82,3.67,7.23,5.51c-1.16-3.24-2.33-6.49-3.49-9.73
				c-3.24-9.02-17.74-5.13-14.46,3.99c1.16,3.24,2.33,6.49,3.49,9.73c1.22,3.4,3.7,5.18,7.23,5.51c18.95,1.76,37.97,2.42,57,1.85
				c9.17-0.27,18.35-0.79,27.49-1.65c6.43-0.6,13.02-1.59,18.57-5.13c5.46-3.48,8.92-9.19,8.27-15.76
				c-0.7-7.09-6.07-12.15-12.09-15.3c-7.55-3.95-15.86-6.79-23.72-10.08c-9.18-3.84-18.35-7.67-27.53-11.51
				c-1.33,4.82-2.66,9.64-3.99,14.46c2.69,1.09,3.46,5.28,3.21,7.78c-0.42,4.12-3.57,7.04-7.19,8.69c-11.08,5.04-23.64-1.23-33.62-6
				C602,1601.13,594.38,1614.06,603.1,1618.22L603.1,1618.22z"/>
		</g>
	</g>
</g>
<g id="Ebene_9">
	<g>
		<path class="st3" d="M534.64,1451.44c-1.19,38.51-2.37,77.02-3.56,115.53c-0.28,9.03-0.62,18.36-4.46,26.54
			c-3.84,8.18-12.14,14.98-21.14,14.16c10.59,13.66,33.82,10.78,45.49-1.97c11.67-12.75,14.15-31.43,13.43-48.7
			c-0.72-17.27-4.07-34.6-1.78-51.73c1.61-12.07,6-24.19,3.57-36.13c-2.43-11.93-16.17-22.65-26.53-16.25"/>
		<g>
			<path class="st3" d="M527.14,1451.44c-0.89,28.88-1.78,57.77-2.67,86.65c-0.42,13.49,0.06,27.38-1.58,40.79
				c-1.16,9.45-6,21.84-17.41,21.29c-7.07-0.34-9.12,8.16-5.3,12.8c9.44,11.48,26.16,13.59,39.57,8.67
				c15.57-5.71,25.36-19.41,29.45-35.13c4.75-18.3,2.05-36.91,0.69-55.44c-0.77-10.46-0.78-20.74,1.2-31.07
				c1.84-9.6,4.14-19.26,2.93-29.08c-2.14-17.37-20.56-34.24-38.13-24.52c-8.45,4.67-0.89,17.63,7.57,12.95
				c4.01-2.22,8.34,0.47,11.18,3.48c4.46,4.73,5.07,10.82,4.67,17.08c-0.5,7.87-2.81,15.55-3.91,23.35
				c-1.17,8.29-1.23,16.59-0.71,24.93c0.93,14.96,3.45,29.98,1.79,44.98c-1.26,11.43-5.45,24.75-15.62,31.32
				c-9.32,6.03-22.53,7.04-30.07-2.14c-1.77,4.27-3.54,8.54-5.3,12.8c13.42,0.64,24.37-9.29,29.05-21.21
				c5.33-13.6,4.13-29.57,4.57-43.92c1.01-32.87,2.03-65.73,3.04-98.6C542.44,1441.79,527.44,1441.8,527.14,1451.44L527.14,1451.44z
				"/>
		</g>
	</g>
	<g>
		<path class="st3" d="M599.29,1461.76c0.2,47.21,0.41,94.42,0.61,141.62c9.83,6.63,20.54,13.52,32.39,13.14
			s23.88-11.93,19.97-23.12c-2-5.74-7.33-9.52-11.4-14.04c-13.5-14.99-12.78-37.79-9.25-57.66s9.03-40.66,2.53-59.76
			c-10.26-1-20.52-2-30.79-3"/>
		<g>
			<path class="st3" d="M591.79,1461.76c0.12,27.93,0.24,55.85,0.36,83.78c0.06,13.96,0.12,27.93,0.18,41.89
				c0.01,3.32,0.03,6.65,0.04,9.97c0.02,3.52-0.65,7.57,1.64,10.53c3.25,4.22,10.57,7.61,15.25,10c10.14,5.19,22.08,8.38,33.06,3.92
				c9.46-3.84,17.83-12.63,18.18-23.3c0.41-12.54-10.05-18.03-16.38-27.09c-5.91-8.46-7.34-18.97-7.18-29.06
				c0.45-27.77,13.32-54.76,4.44-82.46c-1.1-3.42-3.79-5.17-7.23-5.51c-10.26-1-20.52-2-30.79-3c-4.04-0.39-7.5,3.73-7.5,7.5
				c0,4.38,3.45,7.11,7.5,7.5c10.26,1,20.52,2,30.79,3c-2.41-1.84-4.82-3.67-7.23-5.51c5.91,18.41,0.7,37.38-2.53,55.77
				c-2.7,15.38-4.23,31.96,0.86,47.03c2.59,7.68,6.74,14.37,12.43,20.13c4.11,4.16,10.37,8.81,6.46,15.16
				c-9.56,15.55-30.2,1.76-40.45-5.13c1.24,2.16,2.48,4.32,3.71,6.48c-0.2-47.21-0.41-94.42-0.61-141.62
				C606.75,1452.11,591.75,1452.09,591.79,1461.76L591.79,1461.76z"/>
		</g>
	</g>
</g>
<g id="Ebene_5">
	<g>
		<path class="st3" d="M361.83,632.42c-1.4,27.53-2.8,55.06-4.21,82.6c-13.12-5.46-30.05,5.5-30.43,19.7
			c-0.39,14.2,15.92,26.07,29.32,21.33c8.09,81.42,77.73,152.53,158.97,162.31c-1.89,35.24,27.85,69.18,63.04,71.92
			c35.19,2.74,80.02-27.14,83.61-62.25c76.24-11.83,151.01-84.92,157.15-171.8c12.67,1.42,25.35-9.49,25.85-22.23
			c0.5-12.74-11.29-24.6-24.03-24.18c-3.36-33.4-13.73-63.82-17.09-97.21c-37.37-6.71-47-25.18-79.21-25.18
			c-47.25,0-59.42-41.54-53.21-73.14c-25.11,40.04-22.57,75.95-92.06,62.39c-38.13-7.44-195.8,24.9-215.15,58.59"/>
		<g>
			<path class="st3" d="M354.33,632.42c-1.4,27.53-2.8,55.06-4.21,82.6c3.16-2.41,6.33-4.82,9.49-7.23
				c-17.73-6.68-38.94,7.5-39.89,26.31c-0.99,19.58,20.49,34.93,38.77,29.18c-3.16-2.41-6.33-4.82-9.49-7.23
				c6.9,66.49,51.44,126.44,112,154.3c17.37,7.99,35.51,13.15,54.47,15.51c-2.5-2.5-5-5-7.5-7.5
				c-1.38,33.03,21.03,63.82,51.53,75.32c29.81,11.24,63.93-1.29,86.48-21.92c12.65-11.58,21.65-26.56,23.65-43.73
				c-1.84,2.41-3.67,4.82-5.51,7.23c65.89-10.53,123.38-61.02,148.87-121.69c7.69-18.3,12.3-37.55,13.79-57.34c-2.5,2.5-5,5-7.5,7.5
				c17.02,1.3,33.26-13.21,33.36-30.41c0.09-16.87-14.97-30.99-31.54-31c2.5,2.5,5,5,7.5,7.5c-3.44-32.81-13.66-64.43-17.09-97.21
				c-0.32-3.08-2.08-6.59-5.51-7.23c-13.81-2.58-26.17-7.66-38.69-13.83c-11.32-5.58-22.58-10.08-35.25-11.29
				c-6.81-0.65-13.58-0.13-20.3-1.66c-5.53-1.26-10.65-3.35-15.35-6.54c-7.88-5.35-13.19-13.89-15.98-22.87
				c-3.29-10.59-3.67-22.04-1.61-32.91c1.55-8.16-9.04-13.29-13.71-5.78c-6.6,10.61-11.73,21.95-17.48,33.03
				c-4.46,8.59-9.51,17.43-16.97,22.28c-19.68,12.81-44.48,2.16-66.49,2.29c-23.65,0.14-47.47,4.07-70.63,8.54
				c-26.72,5.15-53.32,11.75-78.97,20.88c-12.18,4.34-24.38,9.2-35.62,15.64c-7.97,4.57-16.26,10.24-21.04,18.31
				c-4.92,8.33,8.04,15.88,12.95,7.57c0.38-0.65,0.8-1.26,1.22-1.88c-0.43,0.62-0.26,0.22,0.69-0.77c1.26-1.3,2.53-2.55,3.9-3.72
				c1.64-1.4,1.36-1.15,3.66-2.72c1.89-1.29,3.85-2.49,5.83-3.64c9.32-5.39,19.3-9.55,29.39-13.25
				c25.65-9.4,52.33-16.12,79.11-21.41c22.69-4.48,45.95-8.37,69.13-8.55c3.87-0.03,7.71,0.13,11.57,0.46
				c2.25,0.19-0.79-0.19,0.95,0.12c1.54,0.28,3.07,0.58,4.61,0.85c4.77,0.85,9.59,1.54,14.42,2.01c13.25,1.3,27.2,0.54,39.24-5.65
				c10.86-5.58,18.29-15.64,24.04-26.11c6.67-12.16,12.1-24.91,19.44-36.71c-4.57-1.93-9.14-3.85-13.71-5.78
				c-4.34,22.84-0.74,49.04,16.36,66.1c9.59,9.57,22.25,14.52,35.54,16.05c7.22,0.83,14.47,0.22,21.62,1.74
				c5.96,1.27,11.62,3.41,17.12,6.01c15.39,7.27,30.11,14.49,47.02,17.64c-1.84-2.41-3.67-4.82-5.51-7.23
				c3.44,32.81,13.66,64.43,17.09,97.21c0.42,4.04,3.09,7.5,7.5,7.5c8.39,0.01,16.72,7.25,16.54,16
				c-0.2,9.51-9.39,16.09-18.36,15.41c-4.26-0.32-7.21,3.71-7.5,7.5c-4.79,63.69-48.06,121.03-104.39,149.3
				c-14.88,7.46-30.81,12.64-47.25,15.27c-3.49,0.56-5.15,4.19-5.51,7.23c-2.83,24.37-27.14,43.21-48.78,50.74
				c-11.76,4.09-24.23,5.62-36.38,2.37c-12.83-3.43-24.05-11.35-32.44-21.55c-9.52-11.57-14.68-26.27-14.05-41.24
				c0.18-4.41-3.61-7.01-7.5-7.5c-60.5-7.56-113.54-50.71-138.21-105.69c-6.94-15.47-11.51-32.25-13.26-49.12
				c-0.48-4.61-4.43-8.82-9.49-7.23c-8.89,2.8-20.92-4.57-19.78-14.72c1.08-9.66,12.37-15.06,20.9-11.85
				c4.82,1.82,9.27-2.79,9.49-7.23c1.4-27.53,2.8-55.06,4.21-82.6C369.82,622.77,354.82,622.8,354.33,632.42L354.33,632.42z"/>
		</g>
	</g>
</g>
<g id="Ebene_20">
</g>
<g id="Ebene_24">
</g>
<g id="Ebene_3">
	<g>
		<g>
			<path d="M352.47,628.7c-6.23,66.65-11.75,136.01,15.64,199c11.69,26.89,29.4,51.04,52.92,68.72
				c23.77,17.87,52.59,27.81,81.63,33.05c29.65,5.35,59.83,6.46,89.88,7.18c30.53,0.73,61.18,0.95,91.44-3.75
				c29.22-4.54,57.71-14.53,81.24-32.81c22.48-17.46,38.92-41.36,49.88-67.45c26.11-62.17,18.27-130.64,6.21-195.1
				c-1.68-8.98-3.45-17.95-5.21-26.92c-1.87-9.46-16.33-5.46-14.46,3.99c12.38,62.8,25.47,129.18,6.85,192.12
				c-7.54,25.5-20.09,49.9-38.65,69.15c-19.25,19.96-44.05,32.32-70.8,38.82c-28.08,6.82-57.23,7.63-85.99,7.34
				c-28.59-0.29-57.37-0.84-85.81-4.03c-27.74-3.11-55.86-9.39-80.52-22.88c-24.51-13.41-43.73-33.7-57.27-58.02
				c-31.02-55.73-29.48-121.51-24.25-183.15c0.72-8.42,1.5-16.84,2.29-25.25C368.36,619.1,353.36,619.16,352.47,628.7L352.47,628.7z
				"/>
		</g>
	</g>
	<g>
		<g>
			<path d="M351.53,704.05c-17.56-0.55-33.55,13.98-34.23,31.64c-0.7,17.88,14.98,32.84,32.28,33.65c9.65,0.45,9.63-14.55,0-15
				c-9.3-0.43-17.83-9.16-17.28-18.65c0.56-9.7,9.91-16.93,19.23-16.64C361.19,719.35,361.18,704.35,351.53,704.05L351.53,704.05z"
				/>
		</g>
	</g>
	<g>
		<g>
			<path d="M830.16,719.16c7.87,0.58,14.87,7.73,15.15,15.65c0.28,7.78-6.54,15.6-14.29,16.46c-4.03,0.44-7.5,3.13-7.5,7.5
				c0,3.71,3.45,7.95,7.5,7.5c15.83-1.74,29.59-14.86,29.29-31.46c-0.3-16.48-14.16-29.47-30.15-30.65
				C820.53,703.45,820.58,718.46,830.16,719.16L830.16,719.16z"/>
		</g>
	</g>
	<g>
		<g>
			<path d="M363.75,635.18c61.94-34.59,132.36-55.73,203.47-57.46c19.76-0.48,39.61,0.52,59.19,3.36c4.04,0.59,8.01-1,9.23-5.24
				c1.01-3.52-1.23-8.64-5.24-9.23c-73.42-10.66-149,1.18-217.6,28.66c-19.43,7.78-38.34,16.74-56.62,26.95
				C347.75,626.94,355.31,639.9,363.75,635.18L363.75,635.18z"/>
		</g>
	</g>
	<g>
		<g>
			<path d="M634.88,577.64c13.12-21.77,28.03-42.39,41.15-64.16c5-8.29-7.97-15.84-12.95-7.57c-13.12,21.77-28.03,42.39-41.15,64.16
				C616.93,578.35,629.89,585.9,634.88,577.64L634.88,577.64z"/>
		</g>
	</g>
	<g>
		<g>
			<path d="M665.27,513.17c7.41,22.97,14.79,45.99,20.32,69.51c2.21,9.39,16.68,5.42,14.46-3.99
				c-5.53-23.51-12.91-46.53-20.32-69.51C676.79,500.03,662.3,503.94,665.27,513.17L665.27,513.17z"/>
		</g>
	</g>
	<g>
		<g>
			<path d="M692.83,588.18c39.28-2.45,80.19,7.66,112.23,30.91c3.3,2.4,8.33,0.54,10.26-2.69c2.25-3.76,0.57-7.9-2.69-10.26
				c-33.94-24.62-78.22-35.55-119.81-32.96C683.24,573.78,683.17,588.78,692.83,588.18L692.83,588.18z"/>
		</g>
	</g>
	<g>
		<g>
			<path d="M674.5,444.6c-70.56-21.4-148.22-15.96-215.82,13.04c-61.31,26.31-116.04,74.68-136.26,139.83
				c-11.74,37.84-10.08,78.37,1.51,116.03c2.83,9.2,17.31,5.28,14.46-3.99c-9.8-31.87-12.31-65.7-4.24-98.24
				c7.33-29.56,22.67-56.57,43.12-79.02c44.58-48.93,110.09-77.07,175.26-83.96c39.64-4.19,79.8-0.82,117.98,10.77
				C679.77,461.87,683.73,447.39,674.5,444.6L674.5,444.6z"/>
		</g>
	</g>
	<g>
		<g>
			<path d="M334.3,760.31c-0.91,20.67,3.33,44.7,26.02,51.29c9.29,2.7,13.25-11.77,3.99-14.46c-15.36-4.46-15.59-23.62-15-36.83
				C349.73,750.66,334.72,750.68,334.3,760.31L334.3,760.31z"/>
		</g>
	</g>
	<g>
		<g>
			<path d="M674.5,459.06c17.17-5.05,35.36-2.13,52.33,5.19c20.72,8.93,38.89,23.24,54.62,39.22
				c36.18,36.78,62.46,85.43,71.05,136.46c4.73,28.09,3.06,57.16-6.92,83.95c-3.37,9.06,11.12,12.97,14.46,3.99
				c19.64-52.76,8.11-111.83-15.95-161.09c-22.3-45.66-58.28-90.58-104.78-113.21c-21.26-10.35-45.61-15.8-68.81-8.98
				C661.27,447.31,665.2,461.79,674.5,459.06L674.5,459.06z"/>
		</g>
	</g>
	<g>
		<g>
			<path d="M839.65,750.1c-1.4,12.41-7.72,30.07-19.18,36.59c-8.39,4.77-0.84,17.73,7.57,12.95c16.43-9.34,24.6-31.75,26.61-49.54
				c0.46-4.03-3.77-7.5-7.5-7.5C842.71,742.6,840.1,746.05,839.65,750.1L839.65,750.1z"/>
		</g>
	</g>
	<g>
		<g>
			<path d="M505.33,931.08c3.21,31.86,25.34,59.02,55.19,70.13c29.85,11.11,63.44,0.94,84.89-21.89
				c12.29-13.07,19.93-29.29,22-47.09c0.47-4.03-3.78-7.5-7.5-7.5c-4.44,0-7.03,3.46-7.5,7.5c-2.91,24.94-22.36,47.04-45.83,55.11
				c-24.62,8.46-50.75,0.21-68.35-18.44c-9.7-10.29-16.48-23.66-17.91-37.82c-0.41-4.03-3.16-7.5-7.5-7.5
				C509.09,923.58,504.92,927.03,505.33,931.08L505.33,931.08z"/>
		</g>
	</g>
	<g>
		<g>
			<path d="M463.47,919.87c-15.56,125.61-31.12,251.22-46.68,376.82c-4.42,35.7-8.85,71.4-13.27,107.1c-0.5,4.03,3.8,7.5,7.5,7.5
				c4.47,0,7-3.46,7.5-7.5c15.56-125.61,31.12-251.22,46.68-376.82c4.42-35.7,8.85-71.4,13.27-107.1c0.5-4.03-3.8-7.5-7.5-7.5
				C466.5,912.37,463.97,915.84,463.47,919.87L463.47,919.87z"/>
		</g>
	</g>
	<g>
		<g>
			<path d="M697.11,930.83c4.57,128.09,18.28,255.84,41,381.99c6.46,35.85,13.66,71.57,21.57,107.13
				c2.09,9.42,16.56,5.43,14.46-3.99c-27.67-124.46-46.48-250.83-56.09-377.96c-2.7-35.68-4.67-71.41-5.94-107.16
				C711.76,921.2,696.76,921.16,697.11,930.83L697.11,930.83z"/>
		</g>
	</g>
	<g>
		<g>
			<path d="M407.24,1410.27c87.43,43.79,188.7,61.85,285.01,40.96c27.1-5.88,53.38-14.98,78.45-26.81
				c8.72-4.12,1.12-17.05-7.57-12.95c-85.29,40.25-183.68,42.27-273.27,15.63c-25.86-7.69-50.93-17.7-75.05-29.78
				C406.2,1393.01,398.59,1405.94,407.24,1410.27L407.24,1410.27z"/>
		</g>
	</g>
	<g>
		<g>
			<path d="M523.68,1448.21c-1.93,48.06-3.51,96.14-3.28,144.24c1.84-2.41,3.67-4.82,5.51-7.23c-10.7,3.54-22.38,9.82-27.04,20.71
				c-3.54,8.27-1.55,18.84,8.05,21.45c8.27,2.25,17.86-0.28,25.91-2.29c11.75-2.93,23.24-6.8,34.78-10.45
				c3.26-1.03,5.38-3.83,5.51-7.23c1.86-51.63,2.79-103.29,4.66-154.92c0.35-9.65-14.65-9.64-15,0
				c-1.86,51.63-2.79,103.29-4.66,154.92c1.84-2.41,3.67-4.82,5.51-7.23c-15.08,4.77-30.82,11.19-46.66,12.8
				c-1.83,0.19-5.65-0.21-6.05-0.06c-1.03,0.38-0.22-0.77-0.02,0.01c0.01,0.03,1.04,1.12,1.07,1.13c0.89,0.32-0.25,0.86,0.24-1.01
				c1.88-7.19,11.37-11.27,17.7-13.37c3.14-1.04,5.52-3.82,5.51-7.23c-0.23-48.1,1.35-96.19,3.28-144.24
				C539.07,1438.56,524.07,1438.57,523.68,1448.21L523.68,1448.21z"/>
		</g>
	</g>
	<g>
		<g>
			<path d="M589.22,1458.72c-3.1,50.73-5.33,101.85,0,152.51c0.47,4.45,3.09,6.93,7.5,7.5c11.54,1.49,23.05,3.21,34.61,4.49
				c7.14,0.79,14.47,1.59,21.64,0.74c5.81-0.68,11.77-2.54,15.02-7.83c3.86-6.3-0.26-12.1-4.25-16.98
				c-5.99-7.33-12.58-14.28-18.97-21.26c-1.04-1.13-2.08-2.98-1.24-0.85c-0.26-0.66-0.41-1.37-0.57-2.06
				c-0.11-0.51-0.5-3.24-0.27-1.43c-0.15-1.19-0.25-2.39-0.34-3.58c-1.21-15.69-0.49-31.6-0.01-47.3
				c0.65-21.4,1.69-42.78,2.48-64.17c0.36-9.65-14.64-9.64-15,0c-1.26,34.12-3.77,68.38-2.89,102.54
				c0.14,5.45,0.37,10.96,1.28,16.34c1,5.92,4.41,9.39,8.37,13.85c5.54,6.26,12.32,12.73,17.05,19.13c-0.06-0.08,1.04,2,1.37,2.15
				c-0.77-0.36-0.05-3.72,0.17-4.18c0.11-0.22,0.9-0.35,0.32-0.32c0.03,0-1.75,0.86-0.68,0.4c0.9-0.38-1.03,0.27-1.27,0.33
				c-1.92,0.46-1.1,0.35-3.06,0.45c-1.59,0.08-3.17,0.12-4.76,0.09c-4.36-0.07-8.71-0.47-13.04-0.93
				c-12.02-1.28-23.98-3.09-35.97-4.64c2.5,2.5,5,5,7.5,7.5c-5.33-50.66-3.1-101.78,0-152.51
				C604.81,1449.08,589.81,1449.12,589.22,1458.72L589.22,1458.72z"/>
		</g>
	</g>
	<g>
		<g>
			<path d="M525.89,1579.45c-21.96,5.41-47.54,10.46-65.05,25.72c-9.1,7.93-12.32,19.95-5.57,30.54
				c8.07,12.67,23.33,13.36,37.04,13.61c25.99,0.47,52.02-2.47,77.96-3.57c5.27-0.22,8.02-4.59,7.23-9.49
				c-1.46-9.04-2.92-18.09-4.38-27.13c-0.64-3.99-5.63-6.25-9.23-5.24c-4.25,1.19-5.89,5.2-5.24,9.23
				c1.46,9.04,2.92,18.09,4.38,27.13c2.41-3.16,4.82-6.33,7.23-9.49c-21.31,0.91-42.58,2.76-63.9,3.42
				c-8.06,0.25-16.18,0.38-24.22-0.37c-2.58-0.24-5.15-0.64-7.65-1.33c-0.51-0.14-3.14-1.08-2.43-0.75
				c-1.03-0.48-2.02-1.22-1.57-0.83c-1.46-1.28-2.63-3.02-3.47-4.86c-0.35-0.77-0.79-1.8-0.53-3.52c-0.27,1.82,0.32-0.99,0.46-1.4
				c0.37-1.07-0.52,1.04,0.01,0.01c0.25-0.49,0.51-0.99,0.83-1.44c0.78-1.1,1.78-2.26,3.66-3.91c6.85-5.99,18.2-10.27,27.56-13.39
				c10.14-3.38,20.5-5.92,30.87-8.47C539.24,1591.61,535.28,1577.14,525.89,1579.45L525.89,1579.45z"/>
		</g>
	</g>
	<g>
		<g>
			<path d="M636.82,1587.54c17.07,4.6,33.67,10.71,49.52,18.57c6.25,3.1,15.1,6.32,19.79,11.75c3.4,3.93,0.33,6.61-3.58,8.35
				c-5.68,2.53-11.98,2.56-18.06,2.7c-9.06,0.21-18.13,0.21-27.19,0.01c-18.77-0.42-37.51-1.77-56.16-3.95
				c2.41,1.84,4.82,3.67,7.23,5.51c-1.48-7.12-2.95-14.25-4.43-21.37c-1.96-9.45-16.42-5.45-14.46,3.99
				c1.48,7.12,2.95,14.25,4.43,21.37c0.72,3.49,4.07,5.14,7.23,5.51c17.04,1.99,34.16,3.29,51.31,3.82
				c8.41,0.26,16.83,0.34,25.24,0.24c7.38-0.09,14.86,0.03,22.13-1.42c11.04-2.19,23.35-9.3,22.91-22.07
				c-0.53-15.31-18.86-22.55-30.47-28.21c-16.5-8.04-33.74-14.5-51.46-19.28C631.48,1570.56,627.5,1585.03,636.82,1587.54
				L636.82,1587.54z"/>
		</g>
	</g>
	<g>
		<g>
			<path d="M347.53,523.44c2.66,3.65,5.31,7.31,7.97,10.96c2.3,3.16,6.62,5.04,10.26,2.69c3.14-2.02,5.16-6.87,2.69-10.26
				c-2.66-3.65-5.31-7.31-7.97-10.96c-2.3-3.16-6.62-5.04-10.26-2.69C347.08,515.2,345.06,520.05,347.53,523.44L347.53,523.44z"/>
		</g>
	</g>
	<g>
		<g>
			<path d="M360.3,514.99c22.61-21.23,45.22-42.46,67.82-63.68c-3.93-0.51-7.85-1.01-11.78-1.52c5.62,8.61,11.24,17.22,16.86,25.82
				c5.26,8.05,18.25,0.54,12.95-7.57c-5.62-8.61-11.24-17.22-16.86-25.82c-2.69-4.12-8.13-4.94-11.78-1.52
				c-22.61,21.23-45.22,42.46-67.82,63.68C342.64,511.01,353.27,521.6,360.3,514.99L360.3,514.99z"/>
		</g>
	</g>
	<g>
		<g>
			<path d="M795.19,501.21c7.61-4.54,15.22-9.07,22.83-13.61c-3.42-0.9-6.84-1.79-10.26-2.69c14.5,23.89,28.99,47.78,43.49,71.67
				c0.39-3.03,0.78-6.06,1.17-9.09c-5.84,4.9-11.68,9.79-17.51,14.69c-7.41,6.21,3.25,16.77,10.61,10.61
				c5.84-4.9,11.68-9.79,17.51-14.69c2.48-2.08,2.78-6.43,1.17-9.09c-14.5-23.89-28.99-47.78-43.49-71.67
				c-2.09-3.44-6.73-4.8-10.26-2.69c-7.61,4.54-15.22,9.07-22.83,13.61C779.33,493.2,786.87,506.17,795.19,501.21L795.19,501.21z"/>
		</g>
	</g>
	<g>
		<g>
			<path d="M433.92,443.03c10.42-28.15-2.97-60.19-27.1-76.55c-26.2-17.76-60.76-16.49-88.61-3.6
				c-51.95,24.03-101.49,99.17-56.8,151.35c20.94,24.46,56.56,24.57,83.33,10.19c14.05-7.55,25.55-19.1,35.15-31.67
				c9.82-12.85,18.65-27.27,24.89-42.21c6.41-15.35,7.8-32.75-3.24-46.34c-9.19-11.32-24.51-16.9-38.85-15.99
				c-16.37,1.05-31.76,8.66-44.65,18.47c-11.69,8.89-22,20.45-25.92,34.92c-3.53,13.03-0.59,27.45,7.94,37.94
				c9.34,11.48,24.58,14.85,38.25,9.52c13.45-5.24,28.94-17.79,32.68-32.36c3.55-13.83-6.91-31.15-22.71-26.03
				c-6.7,2.17-11.35,7.97-11.45,15.06c-0.14,9.66,14.86,9.66,15,0c0.03-2.37,3.6,0,4.18,1.07c2.34,4.33-0.5,9.5-3.16,12.95
				c-6.5,8.42-18.19,18-29.55,16.85c-9.17-0.93-14.93-9.15-16.94-17.49c-2.42-10.02,1.5-20.05,7.62-27.97
				c7.28-9.41,17.65-16.66,28.21-21.91c10.7-5.32,23.16-8.18,34.78-4.27c10.31,3.47,18.05,12.03,17.99,23.23
				c-0.06,13.04-7.93,25.53-14.32,36.4c-12.21,20.78-28.34,42.09-51.81,50.67c-21.59,7.89-46.54,4.49-59.91-15.8
				c-28.52-43.27,10.18-97.28,48.23-119.15c23.13-13.3,52.7-17.34,76.84-4.09c21.97,12.07,34.42,38.69,25.48,62.83
				C416.1,448.11,430.59,452.02,433.92,443.03L433.92,443.03z"/>
		</g>
	</g>
	<g>
		<g>
			<path d="M814.16,491.43c19.01,22.56,24.35,54.36,47.41,73.9c10.37,8.79,23.23,15.47,37.08,15.7
				c13.73,0.23,26.01-6.83,33.77-17.95c7.63-10.94,10.34-24.69,11.55-37.73c1.59-17.24,0.89-34.65-1.46-51.78
				c-4.2-30.64-13.39-66.13-38.63-86.39c-11.11-8.92-24.89-14.96-39.35-14.53c-13.41,0.4-25.83,6.15-35.8,14.93
				c-21.62,19.03-28.13,48.94-21.1,76.18c3.74,14.52,10.86,28.19,19.66,40.26c8.71,11.95,19.22,25.08,32.89,31.52
				c12.7,5.99,27.65,4.59,37.28-6.28c8.28-9.35,11.61-21.91,13.25-34.02c2.11-15.65,3.09-32.34-3.25-47.18
				c-5.37-12.55-16.85-23.12-30.7-24.93c-14.34-1.87-27.66,7.02-32.87,20.27c-5.33,13.56,0.43,28.14,12.13,36.19
				c5.52,3.79,12.33,5.67,19,5.28c9.6-0.55,9.66-15.55,0-15c-9.55,0.55-19.66-7.41-18.13-17.73c1.37-9.19,10.5-16.02,19.63-13.89
				c11.11,2.58,17.55,13.53,19.72,23.93c2.35,11.25,1.15,24.02-0.96,35.24c-1.56,8.3-4.13,18.64-11.28,24.01
				c-9.27,6.95-20.47-0.11-27.65-6.69c-17.44-15.98-31.85-38.45-35.76-62.01c-3.48-20.97,3.84-43.3,21.03-56.44
				c18.5-14.15,41.8-9.1,57.51,6.73c18.42,18.56,25.19,47.59,28.68,72.65c1.93,13.84,2.44,27.91,1.73,41.86
				c-0.55,10.79-1.71,22.28-6.58,32.11c-4.92,9.93-13.51,16.79-24.97,16.38c-11.49-0.41-22.31-7.43-30.18-15.35
				c-9.29-9.34-15.07-21.61-20.85-33.28c-6.38-12.88-12.86-25.51-22.18-36.57C818.54,473.43,807.97,484.08,814.16,491.43
				L814.16,491.43z"/>
		</g>
	</g>
</g>
<g id="Ebene_10">
</g>
<g id="Ebene_4">
</g>
<g id="Ebene_11">
	<g class="st4">
		<path d="M660.18,456.38c-131.67,7.51-342.47,63.42-320.23,258.6c-29.64-78.04,11.67-170.52,80.26-218.12
			s157.41-57.04,240.34-47.46"/>
		<g>
			<path d="M660.18,448.88c-59.69,3.45-120.11,14.52-175.58,37.32c-55.96,23.01-109.44,59.86-135.66,116.22
				c-16.37,35.19-20.76,74.2-16.49,112.56c4.91-0.66,9.82-1.33,14.73-1.99c-21.12-56.47-4.22-119.23,31.4-165.97
				c39.94-52.39,102.72-79.88,166.56-89.41c38.14-5.69,77.18-5.07,115.41-0.71c4.03,0.46,7.5-3.78,7.5-7.5c0-4.44-3.46-7.04-7.5-7.5
				c-70.51-8.03-144.78-2.76-209.5,28.36c-58.66,28.21-105.12,79.96-122,143.44c-9.01,33.89-8.69,70.26,3.66,103.27
				c1.32,3.53,4.32,5.9,8.23,5.37c3.35-0.45,6.92-3.65,6.5-7.37c-3.65-32.8-1.17-66.03,10.97-96.93
				c10.44-26.57,28.1-49.74,49.34-68.61c44.38-39.42,103.01-60.62,160.21-73.07c30.35-6.61,61.21-10.7,92.21-12.49
				C669.77,463.33,669.83,448.33,660.18,448.88L660.18,448.88z"/>
		</g>
	</g>
	<g class="st4">
		<path d="M348.08,767.1c4.05,9.13,8.11,18.27,12.16,27.4c-7.6-4.67-11.51-14.61-9.14-23.21"/>
		<g>
			<path d="M341.61,770.89c4.05,9.13,8.11,18.27,12.16,27.4c3.42-3.42,6.84-6.84,10.26-10.26c-4.8-3.2-7.01-9.16-5.7-14.74
				c2.21-9.39-12.25-13.39-14.46-3.99c-2.92,12.38,2.05,24.64,12.59,31.68c6.89,4.6,13-4.09,10.26-10.26
				c-4.05-9.13-8.11-18.27-12.16-27.4c-1.66-3.73-7.02-4.53-10.26-2.69C340.46,762.81,339.98,767.21,341.61,770.89L341.61,770.89z"
				/>
		</g>
	</g>
	<g class="st4">
		<path d="M368.75,637.55c34.75,286.05,216.53,294.57,391.93,254.67c-60.78,21.22-123.53,40.47-187.91,40.23
			c-64.38-0.24-131.45-22.58-172.49-72.18c-51.45-62.18-51.87-152.6-32.73-231"/>
		<g>
			<path d="M361.25,637.55c5.91,48.14,16.29,96.07,36.6,140.33c15.08,32.85,36.26,63.43,64.23,86.6
				c24.84,20.57,54.03,34.95,85.2,43.08c31.81,8.29,65.06,10.45,97.81,9.05c35.2-1.5,70.21-6.98,104.64-14.31
				c4.32-0.92,8.63-1.87,12.93-2.85c-1.33-4.82-2.66-9.64-3.99-14.46c-81.28,28.34-169.83,54.46-255.6,30.47
				c-35.97-10.06-69.76-28.68-94.53-57c-24.31-27.78-37.64-63.43-42.67-99.67c-5.89-42.46-1.15-86.08,8.89-127.53
				c2.27-9.38-12.19-13.38-14.46-3.99c-18.17,75.02-20.4,163.81,27.36,228.91c49.38,67.31,137.41,89.55,217.14,82.34
				c54.31-4.91,106.61-21.2,157.85-39.07c9.07-3.16,5.51-16.62-3.99-14.46c-63.06,14.31-130.71,24.28-194.57,11.1
				c-29.87-6.17-57.96-17.52-82.73-35.47c-27.05-19.59-48.03-46.48-63.5-75.9c-23.84-45.34-35.44-96.65-41.64-147.17
				c-0.49-4.02-3.09-7.5-7.5-7.5C365.08,630.05,360.76,633.5,361.25,637.55L361.25,637.55z"/>
		</g>
	</g>
	<g class="st4">
		<path d="M341.02,725.83c-0.98,9.71,2.62,19.78,9.54,26.66c-10.64-2.72-17.95-14.7-15.5-25.41"/>
		<g>
			<path d="M333.52,725.83c-0.91,11.9,3.53,23.38,11.73,31.96c2.43-4.18,4.86-8.36,7.3-12.54c-6.7-1.97-11.61-9.15-10.26-16.18
				c1.81-9.43-12.64-13.47-14.46-3.99c-2.91,15.14,5.76,30.23,20.74,34.63c7.35,2.16,12.36-7.24,7.3-12.54
				c-5.64-5.89-7.96-13.29-7.34-21.36C349.25,716.2,334.25,716.25,333.52,725.83L333.52,725.83z"/>
		</g>
	</g>
	<g class="st4">
		<path d="M833.52,728.61c-0.97,9.47,1.79,19.28,7.57,26.84c-5.57-7.6-7.8-17.56-6.02-26.81"/>
		<g>
			<path d="M826.02,728.61c-0.88,10.86,2.17,21.82,8.59,30.63c5.6,7.68,18.52,0.43,12.95-7.57c-4.32-6.2-6.54-13.45-5.26-21.03
				c1.59-9.44-12.87-13.5-14.46-3.99c-1.93,11.47,0.06,22.94,6.78,32.59c4.32-2.52,8.63-5.05,12.95-7.57
				c-5.07-6.94-7.24-14.48-6.54-23.06C841.79,718.98,826.79,719.03,826.02,728.61L826.02,728.61z"/>
		</g>
	</g>
	<g class="st4">
		<path d="M477.62,928.78c-50.94,206.73,53,458.23,284.7,487.83c-112.87,39.13-243.56,51.05-347.31-27.05
			c28.5-151.92,54.71-309.82,61.9-464.22"/>
		<g>
			<path d="M470.39,926.78c-10.12,41.33-14.31,84.14-12.58,126.64c1.72,42.36,9.11,84.65,22.4,124.92
				c13.02,39.48,31.61,77.32,56.11,110.97c24.38,33.5,54.25,62.78,89.01,85.42c36.12,23.54,77.16,39.37,119.61,46.78
				c5.77,1.01,11.57,1.84,17.38,2.59c-0.66-4.91-1.33-9.82-1.99-14.73c-86.17,29.76-182.73,44.19-270.49,12.43
				c-25.49-9.22-49.35-22.5-71.04-38.72c1.15,2.82,2.3,5.65,3.45,8.47c22.61-120.59,43.25-241.73,54.85-363.94
				c3.23-34.03,5.72-68.13,7.33-102.27c0.45-9.65-14.55-9.63-15,0c-5.71,121.27-22.65,241.7-43.35,361.23
				c-5.84,33.71-11.99,67.37-18.29,101c-0.68,3.64,0.57,6.31,3.45,8.47c39.21,29.34,85.46,47.95,133.88,54.94
				c47.17,6.8,95.04,3.66,141.64-5.73c26.32-5.3,52.2-12.64,77.57-21.4c8.41-2.9,6.23-13.67-1.99-14.73
				c-82.14-10.66-155.67-53.67-206.57-118.76c-49.41-63.18-76.39-143-82.12-222.55c-3.31-45.94,0.27-92.28,11.23-137.04
				C487.15,921.4,472.69,917.4,470.39,926.78L470.39,926.78z"/>
		</g>
	</g>
	<g class="st4">
		<path d="M526.63,937.89c-0.24,12.69-2.78,31.44,0.58,29.53c36.62-20.85,88.08-15.75,134.46-31.54
			c-44.49-0.05-104.36-4.75-148.85-4.8"/>
		<g>
			<path d="M519.13,937.89c-0.17,6.96-0.84,13.9-1.08,20.86c-0.18,5.16-0.54,12,4.52,15.11c5.96,3.66,13.43-2.85,18.9-5.07
				c7.19-2.93,14.74-5.03,22.3-6.74c33.13-7.51,67.48-8.07,99.9-18.93c7.83-2.62,6.76-14.71-1.99-14.73
				c-49.66-0.12-99.19-4.69-148.85-4.8c-9.65-0.02-9.67,14.98,0,15c49.66,0.12,99.19,4.69,148.85,4.8
				c-0.66-4.91-1.33-9.82-1.99-14.73c-23.24,7.78-47.57,10.53-71.72,13.99c-11.27,1.61-22.54,3.4-33.57,6.24
				c-5.25,1.35-10.44,2.94-15.5,4.89c-2.49,0.96-4.97,1.99-7.4,3.09c-1.38,0.62-2.74,1.27-4.09,1.95c-1.51,0.76-4.4,1.03-0.81,1.22
				c1.26,0.34,2.52,0.68,3.79,1.02c-0.58-0.35,3.49,2.73,2.72,3.79c0.15-0.21-0.12-2.47-0.12-2.71c-0.03-2.42,0.11-4.85,0.25-7.27
				c0.31-5.66,0.76-11.31,0.9-16.97C534.37,928.24,519.37,928.24,519.13,937.89L519.13,937.89z"/>
		</g>
	</g>
	<g class="st4">
		<path d="M677.89,514.17c11.1,29.41,32.95,54.63,60.48,69.8c-16.39,3.63-33.28-6.88-42.35-21c-9.07-14.12-12.02-31.19-14.77-47.75"
			/>
		<g>
			<path d="M670.66,516.16c12.06,31.39,34.51,57.85,63.93,74.28c0.6-4.57,1.19-9.14,1.79-13.71c-13.23,2.6-26.41-6.31-33.47-16.94
				c-9.14-13.75-11.76-30.6-14.42-46.58c-1.58-9.5-16.04-5.47-14.46,3.99c3.24,19.41,7.06,39.57,19.74,55.29
				c11.22,13.89,28.75,22.2,46.6,18.7c6.41-1.26,7.18-10.7,1.79-13.71c-25.84-14.44-46.39-37.61-57.04-65.32
				C681.69,503.25,667.19,507.13,670.66,516.16L670.66,516.16z"/>
		</g>
	</g>
	<g class="st4">
		<path d="M287.21,402.68c-26.74,46.87,8.39,105.33,61.92,104.3c-19.01,22.05-58.51,16.94-75.78-6.5
			c-17.27-23.44-13.7-57.97,3.3-81.6"/>
		<g>
			<path d="M280.73,398.9c-13.52,24.22-13.4,53.77,0.86,77.68c14.17,23.76,39.91,38.18,67.54,37.9c-1.77-4.27-3.54-8.54-5.3-12.8
				c-15.77,17.69-45.34,14.42-61.08-1.7c-20.35-20.84-15.01-55.46,0.39-77.32c5.57-7.91-7.43-15.41-12.95-7.57
				c-15.9,22.57-20.8,53.37-9.28,78.9c10.06,22.29,34.13,36.01,58.44,34.47c13.33-0.84,26.11-6.09,35.09-16.17
				c4.19-4.7,1.48-12.87-5.3-12.8c-22.41,0.22-43.08-11.16-54.59-30.47c-11.52-19.31-11.81-42.93-0.86-62.54
				C298.39,398.03,285.44,390.46,280.73,398.9L280.73,398.9z"/>
		</g>
	</g>
	<g class="st4">
		<path d="M871.3,384.59c-41.89,29.05-54.28,93.03-26.28,135.62c-11.96-22.53-24.21-46.07-25.03-71.56
			c-0.82-25.49,13.52-53.41,38.33-59.34"/>
		<g>
			<path d="M867.52,378.11c-45.16,31.85-59.18,99.14-28.97,145.89c5.24,8.1,17.5,0.99,12.95-7.57
				c-12.19-22.97-25.98-48.3-23.82-75.2c1.54-19.25,12.95-39.64,32.64-44.69c9.34-2.4,5.38-16.87-3.99-14.46
				c-24.89,6.38-39.95,30.44-43.16,54.77c-4.1,31.07,11.29,60.6,25.38,87.15c4.32-2.52,8.63-5.05,12.95-7.57
				c-25.51-39.47-15.14-98.05,23.59-125.36C882.92,385.55,875.43,372.53,867.52,378.11L867.52,378.11z"/>
		</g>
	</g>
	<g class="st4">
		<path d="M470.33,1619.55c30.27,16.16,66.45,20.93,99.86,13.16c-25.58,6.13-52.24,5.83-78.51,4.45
			c-7.13-0.38-14.69-0.98-20.43-5.23s-8.32-13.5-3.3-18.58"/>
		<g>
			<path d="M466.54,1626.03c32.42,17.05,69.92,21.99,105.64,13.91c-1.33-4.82-2.66-9.64-3.99-14.46
				c-19.24,4.49-38.95,5.35-58.65,4.89c-8.7-0.2-18.06,0.18-26.61-1.61c-3.12-0.65-6.67-1.65-8.68-4.33
				c-1.01-1.35-2.34-4.24-1.01-5.78c6.26-7.28-4.3-17.94-10.61-10.61c-7.02,8.16-5.88,19.79,1.42,27.5
				c7.75,8.19,19.93,8.75,30.43,9.27c26.01,1.28,52.21,1.09,77.69-4.86c9.41-2.19,5.42-16.59-3.99-14.46
				c-31.68,7.16-65.34,2.72-94.08-12.4C465.58,1608.59,457.99,1621.53,466.54,1626.03L466.54,1626.03z"/>
		</g>
	</g>
	<g class="st4">
		<path d="M601.69,1616.28c33.45,20.41,76.08,13.67,114.55,6.25c-37.24,13.01-78.9,12.96-116.11-0.14"/>
		<g>
			<path d="M597.91,1622.76c36.53,21.79,80.76,14.61,120.33,7.01c-1.33-4.82-2.66-9.64-3.99-14.46
				c-36.39,12.5-75.76,12.44-112.12-0.14c-9.14-3.16-13.07,11.32-3.99,14.46c38.64,13.37,81.42,13.42,120.09,0.14
				c9.17-3.15,5.49-16.29-3.99-14.46c-35.45,6.81-75.97,14.07-108.77-5.5C597.17,1604.85,589.61,1617.81,597.91,1622.76
				L597.91,1622.76z"/>
		</g>
	</g>
	<g class="st4">
		<path d="M535.09,1458.77c3,48.68,10.78,97.06,23.2,144.23c-15.33,5.97-32.19,7.97-48.49,5.74c13.6-4.95,19.57-20.76,22.05-35.02
			c5.41-31.09,2.15-62.95-1.13-94.34"/>
		<g>
			<path d="M527.59,1458.77c3.1,49.36,10.94,98.37,23.47,146.22c1.75-3.08,3.49-6.15,5.24-9.23c-15,5.68-30.58,7.49-46.5,5.47
				c0.66,4.91,1.33,9.82,1.99,14.73c21.76-8.61,26.88-32.81,29.17-53.71c3.03-27.6,0.13-55.4-2.74-82.88
				c-0.42-4.03-3.15-7.5-7.5-7.5c-3.73,0-7.92,3.45-7.5,7.5c2.54,24.32,5.09,48.82,3.56,73.3c-0.64,10.25-1.76,20.7-4.96,30.5
				c-2.35,7.22-6.52,15.36-14.02,18.33c-8.09,3.2-6.5,13.65,1.99,14.73c17.04,2.16,34.42,0.08,50.48-6.01
				c3.83-1.45,6.35-5,5.24-9.23c-12.2-46.58-19.91-94.18-22.93-142.23C541.99,1449.18,526.99,1449.11,527.59,1458.77L527.59,1458.77
				z"/>
		</g>
	</g>
	<g class="st4">
		<path d="M601.1,1464.27c3.11,48.33,11.15,96.34,23.97,143.05c-5.3,5.44-15.27,2.52-19.58-3.74c-4.31-6.26-4.56-14.36-4.67-21.96
			c-0.52-38.2-1.05-76.4-1.57-114.6"/>
		<g>
			<path d="M593.6,1464.27c3.22,49.02,11.3,97.65,24.24,145.04c0.64-2.43,1.29-4.86,1.93-7.3c-2.06,1.85-5.77-0.17-7.34-1.78
				c-3.34-3.41-3.76-9.18-3.98-13.68c-0.63-13.14-0.42-26.36-0.6-39.51c-0.37-26.67-0.73-53.35-1.1-80.02
				c-0.13-9.64-15.13-9.67-15,0c0.45,32.6,0.89,65.2,1.34,97.81c0.19,13.49-2.09,30.75,5.92,42.54
				c7.02,10.32,21.66,13.96,31.36,5.26c1.96-1.76,2.6-4.82,1.93-7.3c-12.59-46.12-20.57-93.35-23.7-141.06
				C607.97,1454.69,592.96,1454.62,593.6,1464.27L593.6,1464.27z"/>
		</g>
	</g>
</g>
<g id="Ebene_12">
	<g class="st4">
		<g>
			<path class="st5" d="M647.74,1014.34c1.34,68.04,6.3,136,14.96,203.51c2.61,20.36,5.49,40.69,8.7,60.96
				c1.64,10.37,15.12,17.04,24.6,13.97c11.26-3.64,15.73-13.49,13.97-24.6c-1.34-8.44-2.62-16.89-3.85-25.35
				c-0.57-3.9-1.12-7.81-1.66-11.72c-0.27-1.95-0.54-3.91-0.8-5.86c0.05,0.4,0.37,2.8,0.06,0.43c-0.17-1.3-0.34-2.61-0.51-3.91
				c-2.17-16.63-4.11-33.28-5.84-49.96c-3.45-33.36-6-66.8-7.66-100.3c-0.94-19.05-1.59-38.1-1.97-57.17
				c-0.21-10.45-9.05-20.49-20-20C657.08,994.82,647.52,1003.14,647.74,1014.34L647.74,1014.34z"/>
		</g>
	</g>
	<g class="st4">
		<g>
			<path class="st5" d="M703.92,1363.42c10.46,0,20.48-9.2,20-20c-0.49-10.84-8.79-20-20-20c-10.46,0-20.48,9.2-20,20
				C684.4,1354.25,692.7,1363.42,703.92,1363.42L703.92,1363.42z"/>
		</g>
	</g>
	<g class="st4">
		<g>
			<path class="st5" d="M759.11,647.09c0.35,2.14,0.69,4.28,1.02,6.43c0.13,0.84,0.99,7.31,0.44,2.97c0.47,3.69,0.9,7.38,1.27,11.09
				c0.81,8.02,1.38,16.06,1.72,24.11c0.68,16.1,0.41,32.25-0.8,48.32c-0.28,3.71-0.61,7.41-0.99,11.12
				c-0.22,2.16-0.46,4.32-0.71,6.47c-0.1,0.84-0.95,7.32-0.35,2.98c-1.11,7.98-2.45,15.93-4.02,23.84
				c-3.15,15.82-7.25,31.42-12.21,46.76c-3.22,9.96,3.75,22.28,13.97,24.6c10.96,2.5,21.16-3.3,24.6-13.97
				c21.41-66.25,25.88-136.77,14.62-205.35c-1.7-10.35-15.08-17.05-24.6-13.97C761.87,626.11,757.29,635.99,759.11,647.09
				L759.11,647.09z"/>
		</g>
	</g>
	<g class="st4">
		<g>
			<path class="st5" d="M715.1,513.52c4.99,4.42,9.77,9.06,14.26,13.99c2.24,2.46,4.42,4.99,6.52,7.57c0.93,1.14,3.06,3.98,0.98,1.2
				c1.16,1.56,2.31,3.12,3.44,4.71c3.84,5.45,7.38,11.1,10.6,16.94c1.61,2.92,3.13,5.88,4.58,8.88c0.72,1.5,1.42,3.01,2.1,4.53
				c0.34,0.76,0.68,1.52,1,2.29c-0.94-2.22-0.97-2.27-0.11-0.16c3.89,9.67,13.52,17.56,24.6,13.97c9.35-3.03,18.15-14.21,13.97-24.6
				c-11.91-29.64-29.64-56.36-53.66-77.61c-7.83-6.93-20.67-8.29-28.28,0C708.14,492.82,706.73,506.12,715.1,513.52L715.1,513.52z"
				/>
		</g>
	</g>
	<g class="st4">
		<g>
			<path class="st5" d="M862.84,423.3c1.73,3.45,3.45,6.91,5.18,10.36c2.16,4.32,7.42,7.94,11.95,9.19
				c4.79,1.32,11.16,0.72,15.41-2.02c4.27-2.75,8.03-6.85,9.19-11.95c1.24-5.44,0.49-10.4-2.02-15.41
				c-1.73-3.45-3.45-6.91-5.18-10.36c-2.16-4.32-7.42-7.94-11.95-9.19c-4.79-1.32-11.16-0.72-15.41,2.02
				c-4.27,2.75-8.03,6.85-9.19,11.95C859.59,413.34,860.34,418.29,862.84,423.3L862.84,423.3z"/>
		</g>
	</g>
	<g class="st4">
		<g>
			<path class="st5" d="M335.98,402.12c10.46,0,20.48-9.2,20-20c-0.49-10.84-8.79-20-20-20c-10.46,0-20.48,9.2-20,20
				C316.46,392.95,324.77,402.12,335.98,402.12L335.98,402.12z"/>
		</g>
	</g>
</g>
<g id="Ebene_13">
	<g>
		<g>
			<path d="M590.26,727.36c-19.28-7.97-42.8,10.23-39.96,30.82c2.74,19.88,27.56,31.2,44.56,20.99c8.27-4.96,0.73-17.94-7.57-12.95
				c-7.94,4.77-20.84-0.43-22.22-10.04c-1.59-11.09,12.13-18.1,21.2-14.35c3.77,1.56,8.21-1.69,9.23-5.24
				C596.72,732.29,593.98,728.9,590.26,727.36L590.26,727.36z"/>
		</g>
	</g>
	<ellipse class="st6" cx="498.95" cy="720.3" rx="10.25" ry="18.83"/>
	<ellipse class="st6" cx="672.51" cy="723.2" rx="10.25" ry="18.83"/>
	<circle class="st7" cx="501.2" cy="711.87" r="2.25"/>
	<circle class="st7" cx="674.76" cy="711.87" r="2.25"/>
	<circle class="st8" cx="584.72" cy="826.17" r="14.53"/>
</g>
<g id="Ebene_14">
	<ellipse class="st9" cx="476.91" cy="770.36" rx="35.92" ry="22.79"/>
	<ellipse class="st9" cx="715.28" cy="767.1" rx="35.92" ry="22.79"/>
</g>
<g id="Ebene_16">
	<g>
		<path class="st1" d="M718.01,1022.9c9.16,9.72,18.46,19.67,24.11,31.78c5.64,12.11,7.1,26.96,0.47,38.55
			c-11.52,20.12-39.57,21.33-62.72,20.03c-56.02-3.13-112.04-6.26-168.06-9.38c-11.3,15.15-2.07,38.42,13.92,48.51
			c15.98,10.09,35.98,10.66,54.88,10.92c29.53,0.41,59.05,0.81,88.58,1.22c40.1,0.55,85.4-1.02,112.44-30.63
			c25.81-28.25,24.51-73.5,7.24-107.64c-17.27-34.14-43.35-56.75-72.62-81.39c0.77,25.08,5.58,48.16,6.36,73.25"/>
		<g>
			<path class="st1" d="M712.7,1028.2c10.32,10.96,21.56,22.59,25.47,37.58c3.12,12,0.57,25.25-10.25,32.42
				c-9.58,6.35-21.69,7.65-32.91,7.88c-15.57,0.32-31.24-1.23-46.78-2.1c-35.26-1.97-70.52-3.94-105.78-5.91
				c-8.9-0.5-17.79-0.99-26.69-1.49c-4.41-0.25-7.54-0.22-10.43,3.49c-1.94,2.5-3.3,5.58-4.33,8.55
				c-4.01,11.69-0.66,25.3,5.98,35.35c17.18,26.01,50.58,26.5,78.54,26.88c33.31,0.46,66.7,1.6,100.02,1.2
				c26.38-0.32,53.97-2.7,77.79-14.99c23.53-12.14,39.68-34.53,44.06-60.61c9.73-57.98-27.8-106.38-68.83-142.38
				c-5.61-4.92-11.31-9.74-17.01-14.54c-4.66-3.92-13.05-1.67-12.8,5.3c0.86,24.52,5.5,48.72,6.36,73.25c0.34,9.63,15.34,9.67,15,0
				c-0.86-24.52-5.5-48.72-6.36-73.25c-4.27,1.77-8.54,3.54-12.8,5.3c26.66,22.46,53.32,45.65,69.9,76.89
				c14.24,26.84,19.2,62.21,3.88,89.72c-15.78,28.34-48.61,37.25-78.84,39.48c-17.45,1.29-34.97,0.79-52.46,0.55
				c-21.32-0.29-42.65-0.59-63.97-0.88c-19.84-0.27-42.5,1.14-59.95-10.02c-12.13-7.76-20.29-25.42-11.23-38.25
				c-2.16,1.24-4.32,2.48-6.48,3.71c50.09,2.8,100.18,5.59,150.27,8.39c32.62,1.82,86.59,6.13,92.03-38.47
				c3.13-25.72-14.37-46.25-30.78-63.7C716.68,1010.55,706.09,1021.17,712.7,1028.2L712.7,1028.2z"/>
		</g>
	</g>
	<g>
		<path class="st1" d="M433.73,950.23c17.24,2.24,34.49,4.49,51.73,6.73c3.35,77.24-10.04,154.11-23.39,230.27
			c-3.08,17.59-10.29,39.24-28.06,40.96c-10.85,1.05-21-6.87-25.83-16.64s-5.43-21.02-5.57-31.92
			c-0.98-75.72,15.58-150.45,32.06-224.37"/>
		<g>
			<path class="st1" d="M433.73,957.73c17.24,2.24,34.49,4.49,51.73,6.73c-2.5-2.5-5-5-7.5-7.5c1.63,39.26-0.93,78.52-5.67,117.49
				c-4.63,38.05-10.54,76.28-18.04,113.88c-2.05,10.3-5.33,24.7-15.17,30.5c-13.96,8.23-25.05-9.04-27.49-20.59
				c-1.82-8.59-1.56-17.64-1.54-26.38c0.03-9.69,0.33-19.38,0.87-29.05c1.07-19,3.05-37.95,5.74-56.78
				c6.19-43.33,15.7-86.09,25.22-128.78c2.1-9.4-12.36-13.42-14.46-3.99c-9.16,41.12-18.32,82.29-24.52,123.98
				c-3.04,20.47-5.44,41.05-6.74,61.71c-1.25,19.91-2.84,40.99,0.5,60.76c2.88,17.1,14.46,34.08,32.96,35.93
				c14.92,1.49,26.59-9.43,32.41-22.16c7.21-15.76,8.91-33.52,11.82-50.42c3.62-21.02,7.09-42.08,10.08-63.2
				c6.69-47.33,11.01-95.06,9.02-142.89c-0.19-4.45-3.32-6.96-7.5-7.5c-17.24-2.24-34.49-4.49-51.73-6.73
				c-4.02-0.52-7.5,3.82-7.5,7.5C426.23,954.72,429.69,957.21,433.73,957.73L433.73,957.73z"/>
		</g>
	</g>
</g>
<g id="Ebene_18">
	<g>
		<path class="st3" d="M440.42,944.38c10.54,0,21.08,0,31.62-0.01c10.21-12.56,5.63-32.3-5.37-44.17c-11-11.87-26.66-18-41.45-24.59
			c-14.79-6.58-30.01-14.68-38.21-28.64c-4.83-8.22-10.16-19.91-19.49-17.98c-7.28,1.51-9.78,10.91-8.53,18.24
			c3.63,21.22,24.22,34.54,42.69,45.59c18.47,11.05,38.69,25.48,40.68,46.91"/>
		<g>
			<path class="st3" d="M440.42,951.88c8.23,0,16.47,0,24.7-0.01c4.1,0,8.96,0.84,12.22-2.2c2.31-2.15,3.92-5.52,5.12-8.37
				c4.92-11.68,2.74-25.09-3.07-36.04c-13.41-25.25-43.93-30.89-66.64-44.3c-5.52-3.26-10.64-7.02-14.94-11.81
				c-3.88-4.32-6.21-9.66-9.33-14.51c-6.23-9.7-17.7-18.33-28.9-10.05c-10.48,7.74-9.58,22.83-5.13,33.62
				c4.74,11.49,13.48,20.3,23.22,27.75c11.12,8.5,23.7,14.75,35,22.98c10.14,7.39,20.72,17.66,22.2,30.8c0.45,4.02,3.12,7.5,7.5,7.5
				c3.7,0,7.96-3.45,7.5-7.5c-2.42-21.49-17.92-36.14-35.11-47.56c-15.9-10.56-35.91-19.17-45.22-36.9
				c-1.87-3.57-3.38-7.76-3.35-11.83c0.02-2.08,0.5-7.3,3.51-7.19c2.3,0.09,4.42,3.77,5.48,5.38c2.8,4.25,4.95,8.88,7.94,13.01
				c13.32,18.39,35.09,25.34,54.67,34.8c10.42,5.04,21.48,11.24,27.59,21.47c5.56,9.3,7.05,20.7,0.19,29.66
				c2.16-1.24,4.32-2.48,6.48-3.71c-10.54,0-21.08,0-31.62,0.01C430.77,936.89,430.75,951.89,440.42,951.88L440.42,951.88z"/>
		</g>
	</g>
	<g>
		<path class="st3" d="M497.26,1112.4c-3.88-0.55-7.76-1.1-11.64-1.65c1.63,14.08-0.41,28.58-5.87,41.66
			c6.73-0.22,13.45-0.44,20.18-0.66c-0.98-12.57-1.95-25.15-2.93-37.72"/>
		<g>
			<path class="st3" d="M499.25,1105.17c-3.88-0.55-7.76-1.1-11.64-1.65c-4.27-0.61-10.06,1.83-9.49,7.23
				c1.43,13.7-0.44,26.9-5.6,39.67c-1.82,4.51,2.78,9.64,7.23,9.49c6.73-0.22,13.45-0.44,20.18-0.66c3.81-0.13,7.82-3.34,7.5-7.5
				c-0.98-12.57-1.95-25.15-2.93-37.72c-0.74-9.56-15.75-9.64-15,0c0.98,12.57,1.95,25.15,2.93,37.72c2.5-2.5,5-5,7.5-7.5
				c-6.73,0.22-13.45,0.44-20.18,0.66c2.41,3.16,4.82,6.33,7.23,9.49c5.58-13.81,7.69-28.84,6.14-43.66
				c-3.16,2.41-6.33,4.82-9.49,7.23c3.88,0.55,7.76,1.1,11.64,1.65c4.04,0.57,8.01-0.99,9.23-5.24
				C505.49,1110.89,503.26,1105.74,499.25,1105.17L499.25,1105.17z"/>
		</g>
	</g>
</g>
<g id="Ebene_17">
	<g>
		<g>
			<path d="M479.23,946.35c-15.3-1.13-30.5-3.4-45.8-4.54c2.5,2.5,5,5,7.5,7.5c0.28-10.07-3.17-19.78-2.89-29.83
				c0.09-3.16-2.38-6.51-5.51-7.23c-25.24-5.8-48.02-21.11-62.39-42.77c-5.78-8.71-13.66-21.39-10.57-32.36
				c0.76-2.72,2.71-5.2,4.11-6.14c0.61-0.41,1.24-0.77,1.9-1.09c0.79-0.39-0.04-0.01-0.17,0.05c0.42-0.17,0.86-0.31,1.3-0.43
				c0.63-0.18,1.28-0.34,1.93-0.43c-1.96,0.28,0.77,0.05,0.75,0.1c-0.01,0.03-1.99-0.7-0.91-0.27c-0.74-0.3-1.29-1.17-0.39-0.26
				c0.46,0.46,0.98,0.87,1.46,1.32c2.33,2.16,4.56,4.44,6.81,6.68c7.2,7.16,14.46,14.25,22.07,20.98
				c9.44,8.35,19.37,16.28,29.98,23.11c5.16,3.32,10.5,6.38,16.06,8.99c2.86,1.34,5.78,2.59,8.74,3.71
				c1.26,0.48,2.53,0.93,3.81,1.36c0.36,0.12,0.73,0.24,1.09,0.36c1.57,0.55-1.07-0.52-0.11-0.08c6.29,2.92,10.77,7.68,14.01,14.62
				c5.5,11.77,4,25.47,0.78,37.62c-2.47,9.34,12,13.33,14.46,3.99c6.15-23.26,4.45-50.94-16.6-66.16c-2.78-2.01-5.78-3.45-9.01-4.61
				c-6.38-2.29-12.42-4.95-18.32-8.31c-12.18-6.92-23.28-15.53-33.77-24.77c-8.44-7.43-16.43-15.33-24.41-23.25
				c-4.56-4.53-8.83-9.85-15.75-10.03c-8.9-0.23-17.61,5.22-21.83,12.95c-6.79,12.43-2.62,27.13,3.31,39
				c15.16,30.38,44.71,53.02,77.69,60.59c-1.84-2.41-3.67-4.82-5.51-7.23c-0.28,10.07,3.17,19.78,2.89,29.83
				c-0.12,4.27,3.54,7.21,7.5,7.5c15.3,1.13,30.5,3.4,45.8,4.54C488.86,962.07,488.82,947.07,479.23,946.35L479.23,946.35z"/>
		</g>
	</g>
	<g>
		<g>
			<path d="M704.04,1026.62c11.02,11.09,21.69,24.06,27.61,38.46c2.39,5.81,3.8,11.25,3.65,16.89c-0.11,4.22-1.48,8.41-4.2,11.34
				c-3.88,4.17-9.26,6.61-15.47,8.2c-9.64,2.47-19.78,2.58-29.66,2.13c-28.14-1.29-56.26-3.52-84.38-5.28
				c-32.04-2.01-64.07-4.01-96.11-6.04c-3.9-0.25-7.7,3.64-7.5,7.5c1.11,20.98,4.42,41.78,5.53,62.75c0.23,4.31,3.27,7.14,7.5,7.5
				c44.81,3.77,89.67,7.91,134.64,9.23c34.02,1,69.27,1,102.5-7.3c23.51-5.87,47.28-17.5,59.27-39.65
				c15.47-28.57,9.2-64.68-2.25-93.42c-18.17-45.6-51.59-87.84-93.12-114.32c-8.16-5.21-15.7,7.77-7.57,12.95
				c35.08,22.37,63.46,57.07,81.38,94.39c8.3,17.28,14.52,36.27,15.49,55.52c0.58,11.46-0.68,23.68-4.83,33.15
				c-8.73,19.9-27.7,30.17-48.61,35.93c-30.31,8.35-62.7,8.57-93.91,7.95c-47.76-0.95-95.42-5.42-142.99-9.43c2.5,2.5,5,5,7.5,7.5
				c-1.11-20.98-4.42-41.78-5.53-62.75c-2.5,2.5-5,5-7.5,7.5c30.78,1.95,61.57,3.88,92.35,5.81c30.39,1.9,60.89,4.79,91.33,5.63
				c17.36,0.48,39.13-0.96,52.04-14.31c10.27-10.6,10.75-25.88,6.39-39.27c-6.15-18.86-19.14-35.27-32.95-49.16
				C707.83,1009.16,697.22,1019.76,704.04,1026.62L704.04,1026.62z"/>
		</g>
	</g>
	<g>
		<g>
			<path d="M504.19,1104.59c-9.15-4.06-17.47-4.18-27.28-4.14c-9.65,0.04-9.67,15.04,0,15c6.83-0.03,13.27-0.77,19.71,2.09
				c3.7,1.64,8.06,1.08,10.26-2.69C508.75,1111.66,507.91,1106.24,504.19,1104.59L504.19,1104.59z"/>
		</g>
	</g>
	<g>
		<g>
			<path d="M468.98,1163.8c13.02,2.2,25.45,3.54,38.5,0.48c9.4-2.2,5.42-16.67-3.99-14.46c-10.28,2.41-20.26,1.26-30.52-0.48
				C463.52,1147.74,459.47,1162.19,468.98,1163.8L468.98,1163.8z"/>
		</g>
	</g>
	<g>
		<g>
			<path d="M425.37,957.73c21.52,1.98,43.05,3.97,64.57,5.95c-2.5-2.5-5-5-7.5-7.5c-2.11,40.8-5.26,81.54-9.49,122.17
				c-4.13,39.63-8.55,79.54-15.52,118.79c-1.89,10.65-5.05,26.7-16.3,31.55c-15.75,6.8-26.96-12.15-30.02-24.57
				c-4.5-18.29-4.65-38.25-4.73-56.99c-0.08-19.69,1.15-39.37,3.26-58.95c4.84-44.9,14.46-89.13,24.01-133.22
				c2.04-9.41-12.42-13.43-14.46-3.99c-9.22,42.58-18.3,85.23-23.55,128.52c-2.56,21.15-4.16,42.45-4.25,63.76
				c-0.09,20.63,0.39,42.17,4.71,62.41c3.71,17.37,14.54,35.16,33.34,38.62c16.28,3,29.69-7.31,36.09-21.64
				c7.37-16.5,8.6-35.38,11.13-53.06c3.13-21.86,5.97-43.77,8.49-65.7c5.66-49.09,9.73-98.36,12.29-147.72
				c0.22-4.31-3.63-7.14-7.5-7.5c-21.52-1.98-43.05-3.97-64.57-5.95C415.76,941.85,415.82,956.85,425.37,957.73L425.37,957.73z"/>
		</g>
	</g>
</g>
<g id="Ebene_19">
	<g>
		<g id="Ebene_2_Kopie">
			<g class="st4">
				<path d="M864.68,881.24c28.18,15.08,43.38,43.25,35.95,66.6c-7.43,23.35-36.92,40.12-69.74,39.65
					c-32.82-0.47-66.46-18.16-79.56-41.81s-4.64-51.48,19.99-65.79s63.56-14.03,92.06,0.67"/>
				<g>
					<path d="M861.43,884.12c26.42,14.34,41.46,39.95,35.75,62.38c-5.41,21.21-30.94,36.5-59.75,37.61
						c-30.39,1.18-62.53-13.41-78.12-34.34c-15.69-21.06-12.49-47.37,7.32-63.27c22.28-17.88,64.19-17.98,93.52-3.06
						c3.88,1.97,10.13-3.91,6.5-5.75c-29.66-15.09-68.23-15.34-94.56-1.45c-26.9,14.2-37.88,42.63-26.44,68.01
						c11.16,24.75,44.16,43.68,77.63,46.29c34.16,2.66,65.46-12.86,77.88-35.11c14.24-25.49-0.57-59.35-33.22-77.07
						C864.14,876.31,857.82,882.16,861.43,884.12L861.43,884.12z"/>
				</g>
			</g>
			<g class="st4">
				<path d="M823.22,415.25c6.59-21.78,17.99-42.98,38.55-58.23c20.56-15.25,51.45-23.77,81.78-18.08
					c43.96,8.24,74.92,44.74,75.86,77.96s-22.08,62.52-51.39,85.01c-29.3,22.48-65.06,39.69-96.76,60.28
					c-51.65,33.55-92.93,77.07-110.05,128.12c-11.25,33.54-11.07,72.06,14.11,104.22c25.17,32.16,80.47,54.13,122.8,41.5
					c26.86-8.02,43.59-27.69,52.32-48.51c8.74-20.82,10.86-43.34,16.78-64.92c12.22-44.51,41.05-85.11,82.57-116.25
					c51.41-38.57,122.34-63.57,158.29-111.45c38.06-50.69,27.59-120.55-17.83-174.83c-45.41-54.28-121.77-93.1-201.88-110.97
					c-88.04-19.64-183.12-14.89-256.64,17.28s-123.06,92.46-124.14,159.25c-0.43,26.33,7.1,54.49,29.59,76.66
					c29.63,29.21,84.36,42.91,126.49,31.68c42.13-11.23,45.68-43.21,59.3-77.99"/>
				<g>
					<path d="M827.3,414.39c5.93-19.36,15.69-38.32,33.19-52.74c15.68-12.92,38.55-21.42,63.35-21.17c48.9,0.5,85.82,37,90.88,71.21
						c6.32,42.75-30.88,77.64-69.08,102.4c-20.68,13.4-43,25.34-64.18,38.29c-20.18,12.34-39.06,25.84-55.87,40.77
						c-32.88,29.21-58.24,63.81-69.86,102.32c-10.42,34.56-9.12,76.93,22.6,109.11c26.62,27.01,75.28,45.89,116.09,35.5
						c22.36-5.7,38.9-18.93,49.64-34.2c12.67-18,17.28-38.72,21.53-59.19c4.37-21.08,9.87-41.6,19.9-61.21
						c9.53-18.62,22.2-36.19,37.71-52.04c15.09-15.42,32.82-28.96,52.28-41.23c18.4-11.61,37.87-22.24,56.79-33.38
						c37.1-21.83,72.5-46.5,90.07-80.61c17-33.02,16.95-71.56,3.07-107.71c-14.34-37.35-43.3-71.35-81.73-98.85
						c-38.81-27.77-86.1-48.62-135.45-61.59c-50.05-13.16-102.92-18.35-153.44-15.03c-50.34,3.31-98.41,15.07-138.71,35.59
						c-39.76,20.24-71.26,48.81-90.96,82.06c-19.24,32.46-28.06,71.51-17.2,108.86c5.32,18.29,16.04,36.42,34,50.61
						c16.56,13.09,38.52,22.28,61.06,26.41c22.6,4.14,46.12,3.39,66.17-3.22c18.87-6.22,31.26-18.29,39.11-32.35
						c8.36-14.97,12.43-31.4,18.53-47.08c1.89-4.85-6.4-3.17-7.65,0.03c-6.15,15.8-10.23,32.39-18.74,47.45
						c-7.86,13.91-21.03,24.06-40.74,28.41c-42.59,9.39-95.82-6.22-122.82-36.24c-29.34-32.62-29.5-74.52-19.28-108.73
						c10.51-35.17,34.94-67.01,68.46-91.27c34.37-24.88,78.02-41.45,125.95-49.36c48.47-8,100.71-7.23,151.35,1.57
						c49.85,8.66,98.58,25.15,140.98,48.83c41.93,23.43,77.6,54.01,99.2,89.45c20.99,34.44,28.95,72.77,20.33,107.87
						c-4.29,17.5-13.02,33.83-25.7,48.25c-12.78,14.54-29.24,26.94-46.71,38.23c-35.81,23.14-76.33,42.22-109.04,67.97
						c-35.11,27.64-60.84,62.21-74.49,100.01c-7.43,20.59-10.01,42.2-15.83,63.15c-5.08,18.31-13.61,36.45-30.75,49.63
						c-15.01,11.55-36.13,16.86-58.9,14.53c-21.72-2.22-42.92-10.71-59.77-22.12c-39.22-26.55-48.56-67.17-42.88-102.06
						c6.25-38.38,28.69-73.8,58.39-103.34c15.26-15.18,32.61-29.08,51.56-41.65c20.05-13.29,41.84-25.05,62.74-37.59
						c40.02-24.02,78.72-53.23,88.86-93.52c4.34-17.22,2.23-35.41-7.58-52.6c-8.86-15.52-23.82-30.15-43.31-39.22
						c-45.26-21.06-96.65-5.06-122.79,21.86c-14.39,14.81-22.93,32.36-28.52,50.6c-0.52,1.71,1.64,2.68,3.57,2.35
						C825.23,418.04,826.77,416.15,827.3,414.39L827.3,414.39z"/>
				</g>
			</g>
			<g class="st4">
				<path d="M806.42,925.15c-9.34-16.04,3.4-35.41,25.07-38.11"/>
				<g>
					<path d="M810.23,922.81c-7.9-14.03,1.79-29.99,20.75-32.56c3.94-0.54,7.09-7.24,1.02-6.42c-24.64,3.33-39.8,25.14-29.39,43.64
						C804.46,930.75,811.91,925.81,810.23,922.81L810.23,922.81z"/>
				</g>
			</g>
			<g class="st4">
				<path d="M804.76,903.17c1.68,0.1,2.68,2.09,1.4,2.8c-1.9-1.2-1.55-3.75,0.58-4.32"/>
				<g>
					<path d="M802.29,906.38c0.54,0.07,0.47,0.21,0.17-0.05c0.43,0.38-0.16-0.32,0.05-0.02c0.19,0.26,0.11,0.42,0.08-0.03
						c0.02,0.07,0.03,0.13,0.04,0.2c-0.1-1.16,0.55-2.11,1.95-2.86c1.61-0.17,3.21-0.34,4.82-0.51c-0.14-0.1-0.27-0.19-0.4-0.3
						c0.5,0.43,0.11,0.08,0.05-0.07c-0.14-0.37,0.13,0.49,0.02,0.11c-0.16-0.57-0.05,0.1-0.08,0.08c-0.07-0.03,0.1-0.35,0.05-0.4
						c0.05,0.05-0.26,0.75-0.05,0.28c-0.21,0.49-0.59,0.91-1.07,1.26c-0.13,0.1-1.26,0.66-0.66,0.47c2.03-0.64,3.91-2.76,3.54-4.53
						c-0.42-1.97-2.95-1.77-4.63-1.25c-4.32,1.36-7.86,6.92-3.29,10.09c1.41,0.98,3.79,0.19,4.82-0.51
						c1.96-1.32,3.59-3.24,2.99-5.45c-0.35-1.29-1.64-2.71-3.5-2.93c-2.47-0.3-4.68,0.84-5.76,2.38c-0.52,0.73-0.97,1.59-0.78,2.49
						C800.8,905.42,801.36,906.27,802.29,906.38L802.29,906.38z"/>
				</g>
			</g>
		</g>
		<g id="Ebene_2_1_">
			<g>
				<path class="st10" d="M886.81,870.27c28.18,15.08,43.38,43.25,35.95,66.6c-7.43,23.35-36.92,40.12-69.74,39.65
					c-32.82-0.47-66.46-18.16-79.56-41.81c-13.1-23.65-4.64-51.48,19.99-65.79c24.63-14.32,63.56-14.03,92.06,0.67"/>
				<g>
					<path d="M883.55,873.15c26.42,14.34,41.46,39.95,35.75,62.38c-5.41,21.21-30.94,36.5-59.75,37.61
						c-30.39,1.18-62.53-13.41-78.12-34.34c-15.69-21.06-12.49-47.37,7.32-63.27c22.28-17.88,64.19-17.98,93.52-3.06
						c3.88,1.97,10.13-3.91,6.5-5.75c-29.66-15.09-68.23-15.34-94.56-1.45c-26.9,14.2-37.88,42.63-26.44,68.01
						c11.16,24.75,44.16,43.68,77.63,46.29c34.16,2.66,65.46-12.86,77.88-35.11c14.24-25.49-0.57-59.35-33.22-77.07
						C886.27,865.34,879.95,871.2,883.55,873.15L883.55,873.15z"/>
				</g>
			</g>
			<g>
				<path class="st11" d="M859.18,405.22c6.59-21.78,17.99-42.98,38.55-58.23c20.56-15.25,51.45-23.77,81.78-18.08
					c43.96,8.24,74.92,44.74,75.86,77.96c0.94,33.22-22.08,62.52-51.39,85.01c-29.3,22.48-65.06,39.69-96.76,60.28
					c-51.65,33.55-92.93,77.07-110.05,128.12c-11.25,33.54-11.07,72.06,14.11,104.22c25.17,32.16,80.47,54.13,122.8,41.5
					c26.86-8.02,43.59-27.69,52.32-48.51c8.74-20.82,10.86-43.34,16.78-64.92c12.22-44.51,41.05-85.11,82.57-116.25
					c51.41-38.57,122.34-63.57,158.29-111.45c38.06-50.69,27.59-120.55-17.83-174.83c-45.41-54.28-121.77-93.1-201.88-110.97
					c-88.02-19.65-183.1-14.9-256.61,17.27s-123.08,92.47-124.16,159.26c-0.43,26.33,7.1,54.49,29.59,76.66
					c29.63,29.21,84.36,42.91,126.49,31.68c42.13-11.23,45.68-43.21,59.3-77.99"/>
				<g>
					<path d="M863.27,404.36c5.93-19.36,15.69-38.32,33.19-52.74c15.68-12.92,38.55-21.42,63.35-21.17
						c48.9,0.5,85.82,37,90.88,71.21c6.32,42.75-30.88,77.64-69.08,102.4c-20.68,13.4-43,25.34-64.18,38.29
						c-20.18,12.34-39.06,25.84-55.87,40.77c-32.88,29.21-58.24,63.81-69.86,102.32c-10.42,34.56-9.12,76.93,22.6,109.11
						c26.62,27.01,75.28,45.89,116.09,35.5c22.36-5.7,38.9-18.93,49.64-34.2c12.67-18,17.28-38.72,21.53-59.19
						c4.37-21.08,9.87-41.6,19.9-61.21c9.53-18.62,22.2-36.19,37.71-52.04c15.09-15.42,32.82-28.96,52.28-41.23
						c18.4-11.61,37.87-22.24,56.79-33.38c37.1-21.83,72.5-46.5,90.07-80.61c17-33.02,16.95-71.56,3.07-107.71
						c-14.34-37.35-43.3-71.35-81.73-98.85c-38.81-27.77-86.1-48.62-135.45-61.59c-50.05-13.16-102.92-18.35-153.44-15.03
						c-50.34,3.31-98.41,15.07-138.71,35.59c-39.76,20.24-71.26,48.81-90.96,82.06c-19.24,32.46-28.06,71.51-17.2,108.86
						c5.32,18.29,16.04,36.42,34,50.61c16.56,13.09,38.52,22.28,61.06,26.41c22.6,4.14,46.12,3.39,66.17-3.22
						c18.87-6.22,31.26-18.29,39.11-32.35c8.36-14.97,12.43-31.4,18.53-47.08c1.89-4.85-6.4-3.17-7.65,0.03
						c-6.15,15.8-10.23,32.39-18.74,47.45c-7.86,13.91-21.03,24.06-40.74,28.41c-42.59,9.39-95.82-6.22-122.82-36.24
						c-29.34-32.62-29.5-74.52-19.28-108.73c10.51-35.17,34.94-67.01,68.46-91.27c34.37-24.88,78.02-41.45,125.95-49.36
						c48.47-8,100.71-7.23,151.35,1.57c49.85,8.66,98.58,25.15,140.98,48.83c41.93,23.43,77.6,54.01,99.2,89.45
						c20.99,34.44,28.95,72.77,20.33,107.87c-4.29,17.5-13.02,33.83-25.7,48.25c-12.78,14.54-29.24,26.94-46.71,38.23
						c-35.81,23.14-76.33,42.22-109.04,67.97c-35.11,27.64-60.84,62.21-74.49,100.01c-7.43,20.59-10.01,42.2-15.83,63.15
						c-5.08,18.31-13.61,36.45-30.75,49.63c-15.01,11.55-36.13,16.86-58.9,14.53c-21.72-2.22-42.92-10.71-59.77-22.12
						c-39.22-26.55-48.56-67.17-42.88-102.06c6.25-38.38,28.69-73.8,58.39-103.34c15.26-15.18,32.61-29.08,51.56-41.65
						c20.05-13.29,41.84-25.05,62.74-37.59c40.02-24.02,78.72-53.23,88.86-93.52c4.34-17.22,2.23-35.41-7.58-52.6
						c-8.86-15.52-23.82-30.15-43.31-39.22c-45.26-21.06-96.65-5.06-122.79,21.86c-14.39,14.81-22.93,32.36-28.52,50.6
						c-0.52,1.71,1.64,2.68,3.57,2.35C861.19,408.01,862.73,406.12,863.27,404.36L863.27,404.36z"/>
				</g>
			</g>
			<g>
				<g>
					<path d="M810.23,922.81c-7.9-14.03,1.79-29.99,20.75-32.56c3.94-0.54,7.09-7.24,1.02-6.42c-24.64,3.33-39.8,25.14-29.39,43.64
						C804.46,930.75,811.91,925.81,810.23,922.81L810.23,922.81z"/>
				</g>
			</g>
			<g>
				<path class="st10" d="M855.62,886.74c1.68,0.1,2.68,2.09,1.4,2.8c-1.9-1.2-1.55-3.75,0.58-4.32"/>
				<g>
					<path d="M853.16,889.96c0.54,0.07,0.47,0.21,0.17-0.05c0.43,0.38-0.16-0.32,0.05-0.02c0.19,0.26,0.11,0.42,0.08-0.03
						c0.02,0.07,0.03,0.13,0.04,0.2c-0.1-1.16,0.55-2.11,1.95-2.86c1.61-0.17,3.21-0.34,4.82-0.51c-0.14-0.1-0.27-0.19-0.4-0.3
						c0.5,0.43,0.11,0.08,0.05-0.07c-0.14-0.37,0.13,0.49,0.02,0.11c-0.16-0.57-0.05,0.1-0.08,0.08c-0.07-0.03,0.1-0.35,0.05-0.4
						c0.05,0.05-0.26,0.75-0.05,0.28c-0.21,0.49-0.59,0.91-1.07,1.26c-0.13,0.1-1.26,0.66-0.66,0.47c2.03-0.64,3.91-2.76,3.54-4.53
						c-0.42-1.97-2.95-1.77-4.63-1.25c-4.32,1.36-7.86,6.92-3.29,10.09c1.41,0.98,3.79,0.19,4.82-0.51
						c1.96-1.32,3.59-3.24,2.99-5.45c-0.35-1.29-1.64-2.71-3.5-2.93c-2.47-0.3-4.68,0.84-5.76,2.38c-0.52,0.73-0.97,1.59-0.78,2.49
						C851.67,888.98,852.23,889.84,853.16,889.96L853.16,889.96z"/>
				</g>
			</g>
		</g>
		<g id="Ebene_4_1_">
			<g class="st4">
				<path d="M860.37,860.74c-36.49-6.02-85.17,14.13-91.9,40.51c-6.74,26.38,26.57,62.42,62.05,72.36
					c-29.25-10.85-51.6-45.7-43.55-67.66c8.05-21.97,36.15-38.57,74.52-44.92"/>
				<g>
					<path d="M862.83,857.53c-16.13-2.56-32.34-0.62-46.66,3.62c-14.99,4.44-28.73,11.35-38.74,20.67
						c-9.64,8.96-15.16,19.93-13.67,32.25c1.5,12.41,9.11,24.82,19.24,35.25c11.51,11.86,26.89,22.29,45.06,27.5
						c3.89,1.11,9.49-4.7,4.92-6.43c-23.17-8.78-38.7-29.77-42.64-47.78c-1.97-9.03-0.46-17.47,4.75-25.16
						c5.41-8,13.61-14.5,23.22-19.66c12.5-6.73,27.32-10.97,42.67-13.55c2.29-0.39,4.4-2.3,4.59-4.07c0.19-1.74-1.38-2.72-3.57-2.35
						c-28.79,4.85-56.36,16.02-71.36,35.02c-6.58,8.34-10.22,17.79-9.25,28.04c0.99,10.48,6,21.19,13.25,30.64
						c7.95,10.35,19.08,19.86,33.41,25.3c1.64-2.14,3.28-4.29,4.92-6.43c-28.74-8.23-53.19-31.06-59.68-53.06
						c-3.16-10.7-1.26-20.61,6.2-29.15c7.45-8.53,19-14.84,31.28-19.17c13.99-4.94,30.78-7.64,47.13-5.05
						C862.03,864.62,867.29,858.24,862.83,857.53L862.83,857.53z"/>
				</g>
			</g>
			<g class="st4">
				<path d="M1038.1,459.22c-29.46,31.54-64.03,49.61-102.01,75.35c-37.98,25.75-72.75,45.97-100,78.7
					c-27.25,32.74-50.28,100.87-40.89,141.5c9.39,40.63,59.7,80.21,127.52,73.74c-72.51-43.65-37.48-173.72-0.97-212.95
					c35.45-38.09,120.83-109.77,131-187.61"/>
				<g>
					<path d="M1034.81,458.38c-27.87,29.69-66.92,51.32-102.52,75.34c-35.69,24.08-72.88,47.06-98.84,77.95
						c-9.84,11.71-17.19,24.74-23.34,37.97c-6.95,14.96-12.33,30.49-16.08,46.32c-6.61,27.82-10,59.08,8.96,86.87
						c9.33,13.68,23.29,26.03,40.33,34.81c18.28,9.42,39.39,14.45,60.4,14.87c5.9,0.12,11.73-0.14,17.49-0.67
						c2.53-0.23,8.43-3.99,4.78-6.2c-26.23-15.92-36.15-41.49-39.73-64.46c-4.37-28-0.5-56.08,7.22-82.57
						c3.57-12.24,8.19-24.27,14.04-35.85c4.58-9.06,9.8-17.85,17.03-25.79c9.86-10.84,20.93-21.27,31.42-31.84
						c13.59-13.68,26.89-27.55,39.25-41.92c26.6-30.92,49.98-64.8,59.07-102.35c1.1-4.54,1.95-9.13,2.57-13.76
						c0.23-1.71-1.44-2.72-3.57-2.35c-2.29,0.39-4.36,2.31-4.59,4.07c-5.15,38.48-27.4,73.23-53.26,104.63
						c-22.28,27.06-48.74,51.64-73.3,77.4c-17.17,18.01-27.18,39.58-34.35,61.52c-8.78,26.87-13.47,55.24-10.72,83.82
						c2.29,23.79,10.19,50.62,34.11,69.46c2.6,2.05,5.39,3.96,8.32,5.74c1.59-2.07,3.19-4.14,4.78-6.2
						c-21.26,1.95-43.36-0.45-63.65-8.41c-17.92-7.03-33.38-18.16-44.22-31c-10.44-12.35-16.57-26-18.41-39.95
						c-1.93-14.61-0.36-29.16,2.4-43.27c3.07-15.68,7.9-31.04,14.23-45.91c5.65-13.29,12.41-26.37,21.47-38.35
						c22.69-30.01,58.05-52.28,91.79-74.78c17.89-11.92,36.06-23.58,54.04-35.42c17.4-11.45,34.17-23.49,48.63-37.1
						c3.78-3.56,7.37-7.22,10.86-10.94c1.03-1.09,1.4-3.37-0.84-4.05C1038.15,455.26,1035.88,457.23,1034.81,458.38L1034.81,458.38z
						"/>
				</g>
			</g>
			<g class="st4">
				<path d="M984.24,191.85c-56.57-3.1-136.74-2.19-184.91,13.58s-101.75,54.21-128.47,87.85c-26.72,33.65-34.18,93.69-16.08,133.91
					s62.03,63.72,125.97,60.05c-36.58-14.03-71.91-38.97-77.59-68.58s4.39-58.51,19.92-84.3C765,264.75,853.26,214.59,982.78,193.89
					"/>
				<g>
					<path d="M985.78,188.53c-49.52-2.69-100.1-2.48-147.46,4.91c-22.4,3.5-43.16,9.38-62.3,18.02
						c-21.59,9.74-41.15,21.73-58.99,34.89c-17.28,12.76-33.15,26.71-46.23,42.16c-11.87,14.02-19.39,29.88-24.13,46.51
						c-5.02,17.62-6.88,36.06-5.45,54.56c1.3,16.89,5.44,34.33,15.25,50.39c8.81,14.42,22.56,27.53,40.47,36.42
						c19.3,9.58,41.55,13.85,63.38,14.49c6.35,0.19,12.65,0.05,18.9-0.29c3.04-0.17,8.69-4.73,3.99-6.54
						c-32.23-12.45-65.3-33.82-74.37-60.9c-5.48-16.36-3.67-33.77,0.53-49.37c4.19-15.54,11.58-30.41,20.64-44.35
						c13.75-21.17,31.96-40.27,53.73-56.87c23.12-17.61,50.24-32.16,79.53-43.85c32.55-12.99,67.79-22.44,104.27-29.07
						c4.88-0.89,9.8-1.72,14.72-2.51c3.89-0.63,7.02-7.38,1.02-6.42c-38.77,6.23-76.34,15.45-111.21,28.41
						c-31.34,11.65-60.47,26.39-85.56,44.33c-23.82,17.03-44.09,36.79-59.47,58.88c-19.56,28.1-33.69,60.7-28.57,94.55
						c4.42,29.2,33.68,53.11,67.17,68.31c4.14,1.88,8.35,3.64,12.63,5.29c1.33-2.18,2.66-4.36,3.99-6.54
						c-22.2,1.22-45.42-0.55-66.83-8.21c-18.18-6.51-33.57-17.28-44.15-30.23c-11.79-14.43-17.64-30.63-20.39-46.68
						c-3.03-17.73-2.43-35.49,0.87-52.65c3.19-16.53,8.88-32.96,18.94-47.4c10.4-14.92,24.86-28.18,39.99-40.34
						c30.69-24.68,68.15-47.23,113.32-56.21c22.68-4.5,46.45-6.61,70.3-7.67c23.87-1.06,48-1.01,72.17-0.11
						c5.4,0.2,10.8,0.45,16.2,0.75C986.69,195.39,991.25,188.83,985.78,188.53L985.78,188.53z"/>
				</g>
			</g>
		</g>
		<g id="Ebene_5_1_">
			<g class="st4">
				<g>
					<path class="st5" d="M1076.61,253.35c3.8,1.53,7.54,3.14,11.21,4.85c1.83,0.86,3.65,1.74,5.44,2.64
						c0.9,0.45,1.79,0.91,2.68,1.38c0.39,0.21,4.05,2.19,1.82,0.95c6.97,3.87,13.61,8.09,19.87,12.61
						c12.7,9.17,23.04,18.9,32.29,30.3c19.09,23.53,28.89,49.79,27.67,75.87c-2.92,62.31-58.51,109.04-109.48,150.83
						c-29.51,24.19-58.91,48.57-80.88,77.33c-1.02,1.34,3.87,3.81,4.56,4.14c3.57,1.7,8.23,2.92,12.19,3.59
						c5.36,0.92,15.33,2.71,18.4-1.31c39.48-51.68,104.15-88,147.39-137.49c21.54-24.65,38.7-52.53,42.36-83.33
						c3.18-26.73-4.84-54.58-23.02-79.53c-19.64-26.97-50.37-50.21-86.48-64.7c-7.46-2.99-16.78-5.38-24.86-4.54
						c-1.94,0.2-5.4,0.44-5.73,2.26C1071.74,250.92,1074.98,252.7,1076.61,253.35L1076.61,253.35z"/>
				</g>
			</g>
			<g class="st4">
				<g>
					<path class="st5" d="M871.63,907c4.08,10.84,1.73,22.36-4.44,31.63c-2.99,4.5-7.26,8.49-12.21,11.8
						c-5.69,3.81-10.6,5.86-17.65,7.47c-7.2,1.64,1.81,6.23,5.18,7.34c7.2,2.39,17.03,4.43,24.34,2.77
						c31.1-7.07,48.49-32.34,39.12-57.23c-0.64-1.72-5.99-3.62-7.58-4.18c-4.14-1.45-9.07-2.51-13.46-2.93
						C881.19,903.32,869.83,902.21,871.63,907L871.63,907z"/>
				</g>
			</g>
		</g>
	</g>
	<g>
		<g id="Ebene_2_Kopie_1_">
			<g class="st4">
				<path d="M1212.38,1105.91c19.12,7.25,31.69,25.78,29.74,43.8c-1.95,18.03-18.29,34.19-38.63,38.22
					c-20.34,4.03-43.13-4.39-53.89-19.91c-10.76-15.51-8.68-36.94,4.93-50.67c13.61-13.73,37.7-18.71,56.97-11.77"/>
				<g>
					<path d="M1210.7,1108.44c17.95,6.94,30.14,23.63,29.13,40.75c-0.95,16.19-15,30.75-32.69,35.4
						c-18.65,4.91-40.16-1.45-52.16-14.64c-12.08-13.28-13.07-32.89-2.62-47.14c11.75-16.01,37.64-21.67,57.45-14.69
						c2.62,0.92,5.82-4.2,3.37-5.06c-20.03-7.06-43.9-2.1-58.61,11.54c-15.02,13.94-18.6,36.15-8.66,53.14
						c9.69,16.57,32.22,25.99,53.2,23.43c21.42-2.61,39-18.1,44.17-35.99c5.92-20.5-7.05-43.23-29.23-51.8
						C1211.49,1102.38,1208.25,1107.5,1210.7,1108.44L1210.7,1108.44z"/>
				</g>
			</g>
			<g class="st4">
				<path d="M1134.17,771.44c1.62-16.77,6.27-33.76,17.25-47.62c10.98-13.87,29.12-24.2,48.5-24.09
					c28.1,0.16,51.35,22.66,55.68,46.77s-6.59,48.56-22.17,68.87c-15.57,20.31-35.73,37.63-53,56.87
					c-28.14,31.36-48.74,68.61-53.56,108.14c-3.17,25.97,1.29,54.05,20.48,74.16c19.19,20.11,55.84,28.77,80.58,13.91
					c15.69-9.43,23.81-26.01,26.86-42.36c3.05-16.36,1.82-33.07,3.04-49.6c2.53-34.11,15.77-67.57,37.91-95.82
					c27.42-34.99,68.44-62.69,85.25-102.41c17.8-42.05,3.44-91.63-30.75-125.18c-34.19-33.55-85.77-51.7-137.3-54.07
					c-56.63-2.6-114.86,13.54-156.67,46.8c-41.81,33.26-65.62,83.86-58.75,132.73c2.71,19.26,10.54,38.81,26.94,51.99
					c21.61,17.36,56.98,20.07,81.75,6.26c24.77-13.81,23.36-37.61,27.85-64.8"/>
				<g>
					<path d="M1136.59,770.27c1.48-14.92,5.38-30.05,14.56-42.9c8.23-11.52,21.41-20.77,36.76-23.88
						c30.28-6.15,57.22,15.56,64.21,39.85c8.73,30.35-10.32,60.76-31.14,83.92c-11.27,12.53-23.71,24.22-35.34,36.49
						c-11.08,11.69-21.22,24.06-29.93,37.19c-17.02,25.69-28.79,54.31-31.63,83.96c-2.54,26.61,3.04,57.34,26.28,76.6
						c19.5,16.16,51.71,23.45,75.76,10.43c13.18-7.13,21.9-18.99,26.82-31.56c5.8-14.82,6.31-30.55,6.62-46.06
						c0.32-15.97,1.41-31.67,5.39-47.31c3.79-14.85,9.64-29.37,17.43-43c7.58-13.26,17.01-25.51,27.66-37.05
						c10.06-10.92,20.89-21.28,31.33-31.92c20.47-20.87,39.56-43.58,46.57-70.82c6.78-26.36,2.4-54.47-10.26-79
						c-13.08-25.34-34.82-46.29-61.67-61.23c-27.12-15.09-58.7-24-90.67-26.89c-32.42-2.93-65.68,0.32-96.53,9.48
						c-30.74,9.12-59.12,24.11-81.71,44.45c-22.29,20.07-38.53,45.11-46.96,72c-8.23,26.25-9.27,55.92,1.66,81.72
						c5.35,12.63,14.02,24.43,26.73,32.4c11.71,7.34,26.32,11.12,40.72,11.14c14.43,0.01,28.89-3.67,40.54-11.17
						c10.96-7.05,17.26-17.51,20.52-28.81c3.48-12.04,4.14-24.57,6.14-36.82c0.62-3.79-4.31-1.46-4.72,1.04
						c-2.02,12.35-2.67,25-6.23,37.12c-3.29,11.19-10.28,20.36-21.97,26.16c-25.26,12.53-59.92,8.23-80-10.07
						c-21.81-19.89-26.64-50.44-24.19-76.76c2.52-27.06,14.03-53.55,32.01-75.71c18.43-22.73,43.54-40.64,72.27-52.8
						c29.05-12.29,61.43-18.69,93.72-19.02c31.79-0.32,63.77,5.21,92.64,16.84c28.56,11.51,54.06,29.07,71.4,52.05
						c16.86,22.33,26.11,49.23,24.74,76c-0.68,13.34-4.23,26.42-10.44,38.63c-6.26,12.31-15.03,23.55-24.55,34.12
						c-19.52,21.65-42.41,40.98-59.72,64.12c-18.58,24.84-30.58,53.5-34.75,82.9c-2.27,16.01-1.42,32.12-2.65,48.19
						c-1.07,14.04-4.3,28.41-13.4,40.31c-7.98,10.43-20.43,17.11-34.76,18.45c-13.67,1.27-27.73-2.09-39.44-8.17
						c-27.24-14.15-37.59-42.54-38.02-68.75c-0.47-28.84,9.4-57.67,24.42-83.18c7.72-13.11,16.87-25.56,27.17-37.26
						c10.89-12.37,23.03-23.85,34.53-35.78c22.02-22.85,42.65-49.33,44.37-80.08c0.74-13.14-2.62-26.13-10.62-37.37
						c-7.23-10.14-18.12-18.83-31.2-22.85c-30.35-9.34-60.3,9.19-73.42,32.31c-7.22,12.73-10.52,26.66-11.91,40.72
						c-0.13,1.32,1.32,1.73,2.47,1.24C1135.72,773.21,1136.46,771.62,1136.59,770.27L1136.59,770.27z"/>
				</g>
			</g>
			<g class="st4">
				<path d="M1181.34,1145.71c-7.58-10.46-1.89-26.29,11.19-31.14"/>
				<g>
					<path d="M1183.42,1143.5c-6.47-9.19-2.28-22.12,9.15-26.52c2.38-0.92,3.57-6.23-0.09-4.82c-14.85,5.72-21.76,23.65-13.24,35.76
						C1180.75,1150.06,1184.8,1145.46,1183.42,1143.5L1183.42,1143.5z"/>
				</g>
			</g>
			<g class="st4">
				<path d="M1177.82,1129.89c1.05-0.15,1.89,1.17,1.18,1.86c-1.31-0.62-1.38-2.53-0.13-3.23"/>
				<g>
					<path d="M1176.67,1132.57c0.34-0.02,0.31,0.09,0.1-0.06c0.31,0.22-0.13-0.21,0.03-0.02c0.14,0.16,0.12,0.29,0.04-0.04
						c0.02,0.05,0.03,0.09,0.05,0.14c-0.19-0.83,0.1-1.61,0.88-2.35c0.97-0.34,1.95-0.67,2.92-1.01c-0.1-0.05-0.19-0.11-0.28-0.17
						c0.36,0.25,0.08,0.05,0.02-0.05c-0.13-0.25,0.13,0.34,0.03,0.07c-0.16-0.4-0.02,0.08-0.04,0.07c-0.05-0.02,0.02-0.27-0.01-0.3
						c0.04,0.03-0.08,0.58,0,0.21c-0.08,0.39-0.26,0.74-0.52,1.06c-0.07,0.09-0.71,0.65-0.35,0.43c1.19-0.74,2.11-2.53,1.68-3.78
						c-0.48-1.38-2.02-0.9-3-0.29c-2.52,1.57-4.08,6.09-0.89,7.8c0.98,0.53,2.36-0.37,2.92-1.01c1.06-1.22,1.85-2.84,1.23-4.38
						c-0.36-0.9-1.32-1.76-2.5-1.67c-1.56,0.11-2.8,1.24-3.29,2.5c-0.24,0.6-0.42,1.29-0.2,1.92
						C1175.63,1132.06,1176.07,1132.61,1176.67,1132.57L1176.67,1132.57z"/>
				</g>
			</g>
		</g>
		<g id="Ebene_2_2_">
			<g>
				<path class="st10" d="M1224.82,1094.96c19.12,7.25,31.69,25.78,29.74,43.8c-1.95,18.03-18.29,34.19-38.63,38.22
					c-20.34,4.03-43.13-4.39-53.89-19.91c-10.76-15.51-8.68-36.94,4.93-50.67c13.61-13.73,37.7-18.71,56.97-11.77"/>
				<g>
					<path d="M1223.14,1097.49c17.95,6.94,30.14,23.63,29.13,40.75c-0.95,16.19-15,30.75-32.69,35.4
						c-18.65,4.91-40.16-1.45-52.16-14.64c-12.08-13.28-13.07-32.89-2.62-47.14c11.75-16.01,37.64-21.67,57.45-14.69
						c2.62,0.92,5.82-4.2,3.37-5.06c-20.03-7.06-43.9-2.1-58.61,11.54c-15.02,13.94-18.6,36.15-8.66,53.14
						c9.69,16.57,32.22,25.99,53.2,23.43c21.42-2.61,39-18.1,44.17-35.99c5.92-20.5-7.05-43.23-29.23-51.8
						C1223.93,1091.44,1220.69,1096.55,1223.14,1097.49L1223.14,1097.49z"/>
				</g>
			</g>
			<g>
				<path class="st11" d="M1155.26,759.33c1.62-16.77,6.27-33.76,17.25-47.62c10.98-13.87,29.12-24.2,48.5-24.09
					c28.1,0.16,51.35,22.66,55.68,46.77c4.33,24.11-6.59,48.56-22.17,68.87s-35.73,37.63-53,56.87
					c-28.14,31.36-48.74,68.61-53.56,108.14c-3.17,25.97,1.29,54.05,20.48,74.16c19.19,20.11,55.84,28.77,80.58,13.91
					c15.69-9.43,23.81-26.01,26.86-42.36c3.05-16.36,1.82-33.07,3.04-49.6c2.53-34.11,15.77-67.57,37.91-95.82
					c27.42-34.99,68.44-62.69,85.25-102.41c17.8-42.05,3.44-91.63-30.75-125.18c-34.19-33.55-85.77-51.7-137.3-54.07
					c-56.62-2.61-114.85,13.53-156.65,46.79c-41.81,33.26-65.63,83.87-58.76,132.74c2.71,19.26,10.54,38.81,26.94,51.99
					c21.61,17.36,56.98,20.07,81.75,6.26c24.77-13.81,23.36-37.61,27.85-64.8"/>
				<g>
					<path d="M1157.69,758.16c1.48-14.92,5.38-30.05,14.56-42.9c8.23-11.52,21.41-20.77,36.76-23.88
						c30.28-6.15,57.22,15.56,64.21,39.85c8.73,30.35-10.32,60.76-31.14,83.92c-11.27,12.53-23.71,24.22-35.34,36.49
						c-11.08,11.69-21.22,24.06-29.93,37.19c-17.02,25.69-28.79,54.31-31.63,83.96c-2.54,26.61,3.04,57.34,26.28,76.6
						c19.5,16.16,51.71,23.45,75.76,10.43c13.18-7.13,21.9-18.99,26.82-31.56c5.8-14.82,6.31-30.55,6.62-46.06
						c0.32-15.97,1.41-31.67,5.39-47.31c3.79-14.85,9.64-29.37,17.43-43c7.58-13.26,17.01-25.51,27.66-37.05
						c10.06-10.92,20.89-21.28,31.33-31.92c20.47-20.87,39.56-43.58,46.57-70.82c6.78-26.36,2.4-54.47-10.26-79
						c-13.08-25.34-34.82-46.29-61.67-61.23c-27.12-15.09-58.7-24-90.67-26.89c-32.42-2.93-65.68,0.32-96.53,9.48
						c-30.74,9.12-59.12,24.11-81.71,44.45c-22.29,20.07-38.53,45.11-46.96,72c-8.23,26.25-9.27,55.92,1.66,81.72
						c5.35,12.63,14.02,24.43,26.73,32.4c11.71,7.34,26.32,11.12,40.72,11.14c14.43,0.01,28.89-3.67,40.54-11.17
						c10.96-7.05,17.26-17.51,20.52-28.81c3.48-12.04,4.14-24.57,6.14-36.82c0.62-3.79-4.31-1.46-4.72,1.04
						c-2.02,12.35-2.67,25-6.23,37.12c-3.29,11.19-10.28,20.36-21.97,26.16c-25.26,12.53-59.92,8.23-80-10.07
						c-21.82-19.89-26.64-50.44-24.19-76.76c2.52-27.06,14.03-53.55,32.01-75.71c18.43-22.73,43.54-40.64,72.28-52.8
						c29.05-12.29,61.43-18.69,93.72-19.02c31.79-0.32,63.77,5.21,92.64,16.84c28.56,11.51,54.06,29.07,71.4,52.05
						c16.86,22.33,26.11,49.23,24.74,76c-0.68,13.34-4.23,26.42-10.44,38.63c-6.26,12.31-15.03,23.55-24.55,34.12
						c-19.52,21.65-42.41,40.98-59.72,64.12c-18.58,24.84-30.58,53.5-34.75,82.9c-2.27,16.01-1.42,32.12-2.65,48.19
						c-1.07,14.04-4.3,28.41-13.4,40.31c-7.98,10.43-20.43,17.11-34.76,18.45c-13.67,1.27-27.73-2.09-39.44-8.17
						c-27.23-14.15-37.59-42.54-38.02-68.75c-0.47-28.84,9.4-57.67,24.42-83.18c7.72-13.11,16.87-25.56,27.17-37.26
						c10.89-12.37,23.03-23.85,34.53-35.78c22.02-22.85,42.65-49.33,44.37-80.08c0.74-13.14-2.62-26.13-10.62-37.37
						c-7.23-10.14-18.12-18.83-31.2-22.85c-30.35-9.34-60.3,9.19-73.42,32.31c-7.22,12.73-10.52,26.66-11.91,40.72
						c-0.13,1.32,1.32,1.73,2.47,1.24C1156.82,761.1,1157.55,759.51,1157.69,758.16L1157.69,758.16z"/>
				</g>
			</g>
			<g>
				<g>
					<path d="M1183.42,1143.5c-6.47-9.19-2.28-22.12,9.15-26.52c2.38-0.92,3.57-6.23-0.09-4.82c-14.85,5.72-21.76,23.65-13.24,35.76
						C1180.75,1150.06,1184.8,1145.46,1183.42,1143.5L1183.42,1143.5z"/>
				</g>
			</g>
			<g>
				<path class="st10" d="M1207.41,1111.13c1.05-0.15,1.89,1.17,1.18,1.86c-1.31-0.62-1.38-2.53-0.13-3.23"/>
				<g>
					<path d="M1206.25,1113.8c0.34-0.02,0.31,0.09,0.1-0.06c0.31,0.22-0.13-0.21,0.03-0.02c0.14,0.16,0.12,0.29,0.04-0.04
						c0.02,0.05,0.03,0.09,0.05,0.14c-0.19-0.83,0.1-1.61,0.88-2.35c0.97-0.34,1.95-0.67,2.92-1.01c-0.1-0.05-0.19-0.11-0.28-0.17
						c0.36,0.25,0.08,0.05,0.02-0.05c-0.13-0.25,0.13,0.34,0.03,0.07c-0.16-0.4-0.02,0.08-0.04,0.07c-0.05-0.02,0.02-0.27-0.01-0.3
						c0.04,0.03-0.08,0.58,0,0.21c-0.08,0.39-0.26,0.74-0.52,1.06c-0.07,0.09-0.7,0.65-0.35,0.43c1.19-0.74,2.11-2.53,1.67-3.78
						c-0.48-1.38-2.02-0.9-3-0.29c-2.52,1.57-4.08,6.09-0.89,7.8c0.98,0.53,2.36-0.37,2.92-1.01c1.06-1.22,1.85-2.84,1.23-4.38
						c-0.36-0.9-1.32-1.76-2.5-1.67c-1.56,0.11-2.8,1.24-3.29,2.5c-0.24,0.6-0.42,1.29-0.2,1.92
						C1205.22,1113.29,1205.66,1113.85,1206.25,1113.8L1206.25,1113.8z"/>
				</g>
			</g>
		</g>
		<g id="Ebene_4_2_">
			<g class="st4">
				<path d="M1207.41,1091.53c-23.23,0.47-51.04,21.65-52.23,41.8s23.47,42.01,46.52,44.52c-19.3-4.02-37.05-26.47-34.55-43.57
					c2.5-17.1,17.99-32.96,40.98-42.7"/>
				<g>
					<path d="M1208.57,1088.86c-10.26,0.28-20.06,3.86-28.43,8.86c-8.77,5.24-16.48,12.11-21.61,20.24
						c-4.94,7.82-7.12,16.56-4.81,25.35c2.33,8.86,8.43,16.89,15.87,23.16c8.45,7.12,19.14,12.68,30.95,14.06
						c2.53,0.29,5.33-4.69,2.32-5.35c-15.31-3.32-27.28-16.56-31.74-29.18c-2.24-6.32-2.25-12.68,0.09-18.99
						c2.44-6.56,6.78-12.39,12.13-17.44c6.97-6.57,15.65-11.64,24.84-15.57c1.37-0.59,2.46-2.26,2.38-3.58
						c-0.08-1.29-1.16-1.8-2.47-1.24c-17.25,7.37-33.02,19.2-40.15,35.06c-3.13,6.96-4.31,14.34-2.55,21.69
						c1.79,7.51,6.1,14.66,11.65,20.59c6.08,6.49,14.03,11.95,23.51,14.01c0.77-1.78,1.54-3.57,2.32-5.35
						c-18.69-2.18-36.38-15.57-42.88-30.76c-3.16-7.38-3.1-14.87,0.54-22.1c3.64-7.22,10.07-13.36,17.17-18.16
						c8.09-5.47,18.16-9.68,28.56-9.96C1208.87,1094.13,1211.4,1088.78,1208.57,1088.86L1208.57,1088.86z"/>
				</g>
			</g>
			<g class="st4">
				<path d="M1271.94,774.89c-14.65,26.94-33.98,44.73-54.54,68.57c-20.57,23.85-39.77,43.23-52.92,70.75
					c-13.14,27.52-19.69,80.3-9.3,108.69c10.39,28.39,45.95,50.57,87.14,36.81c-49.74-22.18-42.77-121.76-24.64-155.24
					c17.61-32.52,62.29-96.19,59.79-154.34"/>
				<g>
					<path d="M1269.8,774.72c-13.87,25.38-35.57,46.36-54.86,68.63c-19.34,22.32-39.73,44.05-52.29,70.04
						c-4.76,9.86-7.83,20.34-10.14,30.82c-2.61,11.84-4.18,23.89-4.71,35.94c-0.94,21.18,0.49,44.43,15.34,62.19
						c7.31,8.74,17.33,15.89,28.86,20.02c12.36,4.44,25.97,5.29,39.01,2.8c3.66-0.7,7.23-1.66,10.74-2.82
						c1.54-0.51,4.76-4.03,2.25-5.16c-18.01-8.12-27.02-25.46-31.83-41.74c-5.86-19.85-6.64-40.85-4.85-61.2
						c0.83-9.41,2.32-18.8,4.63-28.02c1.81-7.22,4.04-14.33,7.61-21.09c4.87-9.22,10.53-18.31,15.82-27.42
						c6.85-11.79,13.51-23.68,19.52-35.82c12.95-26.11,23.58-53.94,24.95-82.55c0.17-3.46,0.18-6.92,0.04-10.38
						c-0.05-1.27-1.19-1.79-2.47-1.24c-1.37,0.59-2.43,2.27-2.38,3.58c1.16,28.77-8.67,57.08-21.11,83.44
						c-10.71,22.71-24.29,44.17-36.57,66.24c-8.58,15.43-12.33,32.5-14.28,49.46c-2.39,20.77-2.09,42.1,2.83,62.59
						c4.1,17.05,12.01,35.57,28.92,46.13c1.84,1.15,3.78,2.17,5.79,3.08c0.75-1.72,1.5-3.44,2.25-5.16
						c-12.92,4.25-26.85,5.45-40.29,2.35c-11.87-2.74-22.68-8.8-30.83-16.73c-7.84-7.62-13.18-16.77-15.89-26.7
						c-2.84-10.4-3.51-21.23-3.4-31.89c0.13-11.85,1.38-23.7,3.61-35.39c1.99-10.45,4.69-20.89,8.94-30.84
						c10.63-24.92,29.97-45.88,48.29-66.79c9.71-11.08,19.62-22.01,29.4-33.04c9.46-10.67,18.47-21.69,25.87-33.55
						c1.94-3.1,3.74-6.25,5.48-9.43c0.51-0.93,0.48-2.64-0.97-2.85C1271.52,771.99,1270.34,773.74,1269.8,774.72L1269.8,774.72z"/>
				</g>
			</g>
			<g class="st4">
				<path d="M1208.47,586.99c-35.31,5.28-84.76,16.62-112.75,34.55s-56.77,53.11-69.49,81.22c-12.72,28.11-10.55,72.91,5.18,99.84
					s45.53,38.22,84.63,27.03c-24.19-5.36-48.84-18.85-55.7-39.7s-3.89-43.27,2.8-64.16c18.05-56.38,66.94-104.73,144.65-137.09"/>
				<g>
					<path d="M1209.04,584.36c-30.91,4.64-62.15,11.52-90.58,23.23c-13.45,5.54-25.62,12.59-36.47,21.45
						c-12.24,9.98-22.98,21.33-32.52,33.32c-9.24,11.61-17.47,23.91-23.81,36.92c-5.75,11.81-8.61,24.38-9.66,37.15
						c-1.11,13.52-0.18,27.23,2.79,40.54c2.71,12.15,7.24,24.32,15.12,34.73c7.07,9.35,17.05,17.08,29.13,21.18
						c13.01,4.42,27.24,4.57,40.81,2.12c3.94-0.71,7.82-1.65,11.65-2.73c1.86-0.53,4.84-4.61,1.73-5.31
						c-21.33-4.79-44.17-15.97-52.84-34.52c-5.23-11.21-6.08-24.15-5.24-36.1c0.84-11.9,3.72-23.73,7.75-35.11
						c6.11-17.28,15.2-33.64,26.79-48.65c12.3-15.93,27.42-30.16,44.2-42.59c18.65-13.81,39.36-25.41,61.16-35.1
						c2.92-1.3,5.86-2.56,8.81-3.79c2.33-0.97,3.51-6.32-0.09-4.82c-23.26,9.71-45.44,21.44-65.53,35.55
						c-18.05,12.68-34.39,27.32-47.88,43.74c-12.8,15.6-23.09,32.71-30.11,50.88c-8.92,23.11-13.97,48.77-6.99,72.79
						c6.03,20.71,26.81,34.26,49.23,40.89c2.77,0.82,5.57,1.54,8.41,2.18c0.57-1.77,1.15-3.54,1.73-5.31
						c-13.58,3.85-28.13,5.65-42.23,2.91c-11.97-2.33-22.7-8.14-30.7-16.18c-8.91-8.96-14.36-20-17.87-31.34
						c-3.87-12.53-5.51-25.57-5.4-38.53c0.1-12.48,1.77-25.23,6.36-37.11c4.74-12.27,12.19-23.87,20.16-34.76
						c16.18-22.09,36.79-43.54,63.69-56.11c13.51-6.31,27.96-11.01,42.58-14.96c14.63-3.96,29.55-7.13,44.59-9.69
						c3.36-0.57,6.73-1.11,10.1-1.61C1210.38,589.25,1212.46,583.85,1209.04,584.36L1209.04,584.36z"/>
				</g>
			</g>
		</g>
		<g id="Ebene_5_2_">
			<g class="st4">
				<g>
					<path class="st5" d="M1272.5,619.55c2.52,0.61,5.02,1.28,7.48,2.05c1.23,0.38,2.45,0.78,3.66,1.2
						c0.61,0.21,1.21,0.42,1.81,0.65c0.26,0.1,2.75,1.06,1.23,0.45c4.74,1.89,9.33,4.09,13.71,6.55c8.89,5,16.37,10.72,23.38,17.81
						c14.45,14.62,23.48,32.48,25.66,51.67c5.23,45.85-23.85,87.36-50.64,124.64c-15.51,21.58-30.93,43.28-41.26,67.2
						c-0.48,1.12,2.82,2.27,3.29,2.41c2.4,0.77,5.42,1.03,7.94,1c3.42-0.05,9.78-0.06,11.23-3.41
						c18.57-42.97,54.44-78.09,75.58-119.95c10.53-20.85,17.99-43.48,16.78-66.44c-1.05-19.92-9.15-39.18-23.2-54.96
						c-15.18-17.06-36.8-29.92-60.75-35.69c-4.95-1.19-10.98-1.69-15.88,0c-1.18,0.41-3.29,1.04-3.29,2.41
						C1269.22,618.43,1271.42,619.29,1272.5,619.55L1272.5,619.55z"/>
				</g>
			</g>
			<g class="st4">
				<g>
					<path class="st5" d="M1219.59,1123.78c3.74,7.36,3.59,16.09,0.83,23.67c-1.34,3.68-3.53,7.16-6.21,10.24
						c-3.09,3.54-5.89,5.69-10.07,7.8c-4.27,2.16,1.82,4.3,4.03,4.67c4.72,0.79,11.02,0.97,15.36-1.22
						c18.42-9.3,26.32-30.06,17.72-46.97c-0.59-1.17-4.11-1.84-5.16-2.04c-2.72-0.5-5.89-0.62-8.65-0.34
						C1225.08,1119.82,1217.93,1120.52,1219.59,1123.78L1219.59,1123.78z"/>
				</g>
			</g>
		</g>
	</g>
</g>
</svg>
