<?xml version="1.0" encoding="utf-8"?>
<!-- Generator: Adobe Adobe Illustrator 24.2.0, SVG Export Plug-In . SVG Version: 6.00 Build 0)  -->
<svg version="1.1" xmlns="http://www.w3.org/2000/svg" xmlns:xlink="http://www.w3.org/1999/xlink" x="0px" y="0px"
	 viewBox="0 0 170.08 170.08" style="enable-background:new 0 0 170.08 170.08;" xml:space="preserve">
<style type="text/css">
	.st0{fill:#D2E0EC;}
	.st1{fill:#6CB571;}
	.st2{fill:#885E5B;}
	.st3{fill:#F0C1A1;}
	.st4{fill:#FFFFFF;stroke:#FFFFFF;stroke-width:0.0868;stroke-miterlimit:10;}
	.st5{opacity:0.4;}
	.st6{fill:#CA354F;}
	.st7{fill:#6BB571;}
	.st8{fill:#C9344E;}
	.st9{fill:#F3C058;}
	.st10{opacity:0.1098;}
	.st11{fill:#ADBECF;}
	.st12{fill:#F3C057;}
	.st13{fill:#F7D98D;}
	.st14{fill:#AEBFCE;}
	.st15{opacity:0.2706;}
	.st16{fill:#3D4C5B;}
	.st17{fill:#ECC9AD;}
	.st18{opacity:0.1608;}
	.st19{opacity:0.1686;}
	.st20{fill:#FFFFFF;}
	.st21{fill:#F0F6FA;}
	.st22{opacity:0.149;}
	.st23{opacity:0.0314;}
	.st24{stroke:#000000;stroke-width:0.0551;stroke-miterlimit:10;}
	.st25{fill:#C8354F;}
	.st26{fill:#C93550;}
	.st27{fill:#6DB671;}
	.st28{fill:#6CB671;}
	.st29{fill:#D1DFEA;}
	.st30{fill:#D3E1ED;}
	.st31{fill:#C8354E;}
	.st32{fill:#C8AE9D;}
	.st33{opacity:0.0784;}
	.st34{opacity:0.1412;}
	.st35{fill:#D15238;}
	.st36{fill:#D15239;}
</style>
<g id="Ebene_4_5_">
</g>
<g id="Ebene_8_7_">
	<g>
		<g id="Ebene_24_Kopie">
			<g>
				<path class="st0" d="M125.3,162.61c-1.65-9.36-9.2-17.17-18.19-21.62c-8.99-4.45-19.32-5.96-29.48-6.58
					c-10.4-0.64-21.24-0.33-30.64,3.88c-11.41,5.12-19.13,15.23-26.34,24.94c34.72,5.5,70.47,5.32,105.13-0.53"/>
				<g>
					<path d="M125.76,162.23c-1.32-7.33-6.16-13.61-12.21-18.08c-6.95-5.13-15.5-7.75-24.05-9.11c-4.52-0.72-9.09-1.11-13.66-1.33
						c-4.53-0.22-9.08-0.22-13.59,0.22c-4.48,0.44-8.92,1.33-13.11,2.94c-3.84,1.47-7.39,3.52-10.62,5.99
						c-6.45,4.92-11.53,11.27-16.32,17.65c-0.59,0.79-1.18,1.58-1.77,2.37c-0.16,0.21-0.46,0.85,0.02,0.93
						c13.62,2.15,27.38,3.44,41.18,3.85c13.7,0.41,27.42-0.05,41.06-1.35c7.71-0.74,15.38-1.75,23.01-3.04
						c0.5-0.08,0.91-1.28,0.23-1.16c-13.55,2.28-27.26,3.71-41.01,4.26c-13.72,0.55-27.48,0.23-41.16-0.95
						c-7.64-0.66-15.26-1.59-22.83-2.79c0.01,0.31,0.01,0.62,0.02,0.93c4.68-6.3,9.46-12.67,15.49-17.87
						c2.97-2.56,6.23-4.8,9.82-6.5c3.94-1.88,8.22-3.03,12.55-3.69c4.46-0.68,8.99-0.83,13.5-0.72c4.5,0.11,9.02,0.42,13.49,0.98
						c8.59,1.07,17.28,3.21,24.61,7.8c6.33,3.96,11.74,9.79,13.86,16.87c0.25,0.84,0.45,1.7,0.61,2.57c0.06,0.31,0.43,0.19,0.6,0.06
						C125.68,162.87,125.82,162.53,125.76,162.23L125.76,162.23z"/>
				</g>
			</g>
			<g>
				<g>
					<path d="M69.2,149.77c2.11-2.1,3.87-4.52,5.98-6.62c-0.24,0.05-0.47,0.11-0.71,0.16c1.74,1.9,3.47,3.8,5.21,5.69
						c0.43,0.47,1.26-0.64,0.89-1.05c-1.74-1.9-3.47-3.8-5.21-5.69c-0.23-0.25-0.53-0.01-0.71,0.16c-2.11,2.1-3.87,4.52-5.98,6.62
						c-0.19,0.19-0.38,0.65-0.18,0.88C68.71,150.19,69.03,149.94,69.2,149.77L69.2,149.77z"/>
				</g>
			</g>
			<g>
				<g>
					<path d="M80.14,149.05c5.29-2.23,10.17-6.09,13.25-10.81c0.11-0.17,0.28-0.7-0.01-0.81c-2.06-0.75-4.12-1.49-6.18-2.24
						c-0.57-0.21-1.24,1.01-0.72,1.2c2.06,0.75,4.12,1.49,6.18,2.24c0-0.27-0.01-0.54-0.01-0.81c-2.89,4.43-7.56,7.99-12.52,10.08
						C79.61,148.12,79.35,149.38,80.14,149.05L80.14,149.05z"/>
				</g>
			</g>
			<g>
				<g>
					<path d="M63.33,134.36c-1.99,0.69-3.99,1.38-5.98,2.07c-0.37,0.13-0.77,0.63-0.62,1.03c1.97,5.42,6.14,9.99,11.5,12.54
						c0.54,0.26,1.24-0.95,0.72-1.2c-5.2-2.48-9.31-6.89-11.22-12.17c-0.21,0.34-0.41,0.69-0.62,1.03c1.99-0.69,3.99-1.38,5.98-2.07
						c0.32-0.11,0.57-0.42,0.63-0.75C63.75,134.64,63.66,134.24,63.33,134.36L63.33,134.36z"/>
				</g>
			</g>
			<g>
				<g>
					<path d="M74.01,143.7c0.23,7.62,0.42,15.28-0.23,22.88c-0.03,0.31,0.28,0.41,0.53,0.29c0.32-0.15,0.48-0.53,0.51-0.85
						c0.65-7.61,0.47-15.26,0.23-22.88c-0.01-0.3-0.26-0.42-0.53-0.29C74.23,142.99,74,143.39,74.01,143.7L74.01,143.7z"/>
				</g>
			</g>
			<g>
				<g>
					<path d="M59.86,143.06c0.37,7.72-0.2,15.58-2.02,23.12c-0.06,0.26,0.07,0.55,0.38,0.5c0.34-0.06,0.56-0.46,0.63-0.75
						c1.84-7.63,2.42-15.61,2.05-23.43c-0.01-0.3-0.25-0.42-0.53-0.29C60.08,142.35,59.84,142.75,59.86,143.06L59.86,143.06z"/>
				</g>
			</g>
			<g>
				<g>
					<path d="M51.49,137.76c1.35,7.4,1.51,15.04,0.59,22.5c-0.26,2.07-0.6,4.12-1.04,6.16c-0.06,0.26,0.06,0.55,0.38,0.5
						c0.33-0.06,0.57-0.46,0.63-0.75c1.61-7.51,2.01-15.28,1.3-22.91c-0.2-2.12-0.48-4.23-0.87-6.33c-0.06-0.33-0.46-0.21-0.64-0.07
						C51.58,137.08,51.43,137.44,51.49,137.76L51.49,137.76z"/>
				</g>
			</g>
			<g>
				<g>
					<path d="M88.59,143.54c-0.95,7.68-0.92,15.62,0.94,23.17c0.08,0.32,0.45,0.22,0.64,0.07c0.25-0.2,0.44-0.58,0.36-0.89
						c-1.81-7.36-1.85-15.11-0.93-22.59C89.71,142.4,88.66,142.95,88.59,143.54L88.59,143.54z"/>
				</g>
			</g>
			<g>
				<g>
					<path d="M96.35,138.18c-1.19,7.12-0.84,14.46,1.03,21.45c0.54,2.01,1.21,3.98,1.99,5.91c0.27,0.66,1.2-0.34,1-0.83
						c-2.68-6.59-3.92-13.68-3.64-20.75c0.08-2.02,0.29-4.03,0.63-6.03c0.04-0.26-0.05-0.55-0.38-0.5
						C96.65,137.49,96.39,137.9,96.35,138.18L96.35,138.18z"/>
				</g>
			</g>
		</g>
		<g id="Ebene_35">
			<g>
				<path class="st1" d="M52.61,137.23c1.6,9.4,1.54,19.06-0.2,28.43c1.88,0.1,3.76,0.2,5.64,0.29c0.02-4.95,1.33-9.8,1.78-14.73
					c0.45-4.93-0.09-10.25-3.29-14.14c1.24-0.98,2.72-1.68,4.28-2.04c-2.68,0.62-5.36,1.24-8.04,1.87"/>
				<g>
					<path class="st1" d="M52.11,137.64c1.23,7.23,1.47,14.63,0.7,21.92c-0.22,2.08-0.52,4.16-0.9,6.22c-0.03,0.18,0,0.5,0.26,0.51
						c1.88,0.1,3.76,0.2,5.64,0.29c0.45,0.02,0.76-0.54,0.77-0.91c0.06-7.95,3.38-15.88,1.14-23.79c-0.55-1.93-1.44-3.76-2.72-5.34
						c-0.1,0.33-0.2,0.67-0.31,1c1.18-0.92,2.54-1.55,4.02-1.9c0.52-0.12,0.96-1.41,0.24-1.24c-2.68,0.62-5.36,1.24-8.04,1.87
						c-0.52,0.12-0.96,1.41-0.24,1.24c2.68-0.62,5.36-1.24,8.04-1.87c0.08-0.41,0.16-0.83,0.24-1.24c-1.67,0.4-3.21,1.14-4.54,2.18
						c-0.24,0.18-0.54,0.72-0.31,1c5.01,6.19,3.19,14.5,2.1,21.6c-0.36,2.33-0.65,4.67-0.67,7.03c0.26-0.3,0.51-0.61,0.77-0.91
						c-1.88-0.1-3.76-0.2-5.64-0.29c0.09,0.17,0.17,0.34,0.26,0.51c1.36-7.4,1.72-14.97,1.02-22.46c-0.19-2.1-0.47-4.19-0.83-6.27
						c-0.06-0.33-0.46-0.21-0.64-0.07C52.2,136.96,52.05,137.32,52.11,137.64L52.11,137.64z"/>
				</g>
			</g>
			<g>
				<path class="st1" d="M89.65,143.09c-0.34,6.57-0.27,13.16,0.22,19.72c0.05,0.71,0.13,1.46,0.56,2.04
					c0.91,1.21,2.76,0.58,4.32,0.63c2.26,0.08,3.15-1.04,4.54-0.35c-2.86-8.89-5.73-18.43-2.89-27.32
					c-1.76-0.55-3.52-1.09-5.27-1.64c0.93,0.42,1.86,0.85,2.79,1.27c-1.44,1.86-2.88,3.72-4.31,5.57"/>
				<g>
					<path class="st1" d="M89.13,143.36c-0.25,4.81-0.28,9.62-0.08,14.43c0.05,1.21,0.11,2.42,0.19,3.63
						c0.07,1.01,0.03,2.12,0.34,3.1c0.25,0.81,0.8,1.42,1.68,1.62c0.86,0.2,1.77,0.01,2.64-0.03c0.99-0.05,1.9-0.03,2.87-0.29
						c0.75-0.2,1.43-0.44,2.17-0.1c0.5,0.23,0.98-0.63,0.86-1.01c-2.17-6.76-4.39-13.78-3.99-20.94c0.11-2.01,0.45-4,1.06-5.93
						c0.05-0.15,0.15-0.56-0.1-0.64c-1.76-0.55-3.52-1.09-5.27-1.64c-0.54-0.17-1.26,0.95-0.72,1.2c0.93,0.42,1.86,0.85,2.79,1.27
						c0.03-0.32,0.06-0.64,0.09-0.96c-1.44,1.86-2.88,3.72-4.31,5.57c-0.16,0.21-0.39,0.63-0.18,0.88c0.21,0.24,0.56,0.03,0.71-0.16
						c1.44-1.86,2.88-3.72,4.31-5.57c0.14-0.18,0.47-0.79,0.09-0.96c-0.93-0.42-1.86-0.85-2.79-1.27c-0.24,0.4-0.48,0.8-0.72,1.2
						c1.76,0.55,3.52,1.09,5.27,1.64c-0.03-0.21-0.06-0.43-0.1-0.64c-2.24,7.13-1.02,14.59,0.97,21.63
						c0.58,2.06,1.23,4.11,1.88,6.15c0.29-0.34,0.57-0.68,0.86-1.01c-1.34-0.63-2.64,0.2-4.01,0.3c-0.91,0.06-1.83,0.08-2.74,0.12
						c-0.8,0.03-1.66-0.04-2.11-0.77c-0.54-0.87-0.43-2.13-0.5-3.11c-0.08-1.14-0.14-2.28-0.19-3.42c-0.1-2.32-0.15-4.64-0.15-6.95
						c0-2.63,0.08-5.26,0.21-7.89c0.02-0.31-0.27-0.41-0.53-0.29C89.32,142.66,89.14,143.05,89.13,143.36L89.13,143.36z"/>
				</g>
			</g>
		</g>
		<g id="Ebene_24_Kopie_2">
			<g>
				<g>
					<path d="M125.76,162.23c-1.32-7.33-6.16-13.61-12.21-18.08c-6.95-5.13-15.5-7.75-24.05-9.11c-4.52-0.72-9.09-1.11-13.66-1.33
						c-4.53-0.22-9.08-0.22-13.59,0.22c-4.48,0.44-8.92,1.33-13.11,2.94c-3.84,1.47-7.39,3.52-10.62,5.99
						c-6.45,4.92-11.53,11.27-16.32,17.65c-0.59,0.79-1.18,1.58-1.77,2.37c-0.16,0.21-0.46,0.85,0.02,0.93
						c13.62,2.15,27.38,3.44,41.18,3.85c13.7,0.41,27.42-0.05,41.06-1.35c7.71-0.74,15.38-1.75,23.01-3.04
						c0.5-0.08,0.91-1.28,0.23-1.16c-13.55,2.28-27.26,3.71-41.01,4.26c-13.72,0.55-27.48,0.23-41.16-0.95
						c-7.64-0.66-15.26-1.59-22.83-2.79c0.01,0.31,0.01,0.62,0.02,0.93c4.68-6.3,9.46-12.67,15.49-17.87
						c2.97-2.56,6.23-4.8,9.82-6.5c3.94-1.88,8.22-3.03,12.55-3.69c4.46-0.68,8.99-0.83,13.5-0.72c4.5,0.11,9.02,0.42,13.49,0.98
						c8.59,1.07,17.28,3.21,24.61,7.8c6.33,3.96,11.74,9.79,13.86,16.87c0.25,0.84,0.45,1.7,0.61,2.57c0.06,0.31,0.43,0.19,0.6,0.06
						C125.68,162.87,125.82,162.53,125.76,162.23L125.76,162.23z"/>
				</g>
			</g>
			<g>
				<g>
					<path d="M69.2,149.77c2.11-2.1,3.87-4.52,5.98-6.62c-0.24,0.05-0.47,0.11-0.71,0.16c1.74,1.9,3.47,3.8,5.21,5.69
						c0.43,0.47,1.26-0.64,0.89-1.05c-1.74-1.9-3.47-3.8-5.21-5.69c-0.23-0.25-0.53-0.01-0.71,0.16c-2.11,2.1-3.87,4.52-5.98,6.62
						c-0.19,0.19-0.38,0.65-0.18,0.88C68.71,150.19,69.03,149.94,69.2,149.77L69.2,149.77z"/>
				</g>
			</g>
			<g>
				<g>
					<path d="M80.14,149.05c5.29-2.23,10.17-6.09,13.25-10.81c0.11-0.17,0.28-0.7-0.01-0.81c-2.06-0.75-4.12-1.49-6.18-2.24
						c-0.57-0.21-1.24,1.01-0.72,1.2c2.06,0.75,4.12,1.49,6.18,2.24c0-0.27-0.01-0.54-0.01-0.81c-2.89,4.43-7.56,7.99-12.52,10.08
						C79.61,148.12,79.35,149.38,80.14,149.05L80.14,149.05z"/>
				</g>
			</g>
			<g>
				<g>
					<path d="M63.33,134.36c-1.99,0.69-3.99,1.38-5.98,2.07c-0.37,0.13-0.77,0.63-0.62,1.03c1.97,5.42,6.14,9.99,11.5,12.54
						c0.54,0.26,1.24-0.95,0.72-1.2c-5.2-2.48-9.31-6.89-11.22-12.17c-0.21,0.34-0.41,0.69-0.62,1.03c1.99-0.69,3.99-1.38,5.98-2.07
						c0.32-0.11,0.57-0.42,0.63-0.75C63.75,134.64,63.66,134.24,63.33,134.36L63.33,134.36z"/>
				</g>
			</g>
			<g>
				<g>
					<path d="M74.01,143.7c0.23,7.62,0.42,15.28-0.23,22.88c-0.03,0.31,0.28,0.41,0.53,0.29c0.32-0.15,0.48-0.53,0.51-0.85
						c0.65-7.61,0.47-15.26,0.23-22.88c-0.01-0.3-0.26-0.42-0.53-0.29C74.23,142.99,74,143.39,74.01,143.7L74.01,143.7z"/>
				</g>
			</g>
			<g>
				<g>
					<path d="M59.86,143.06c0.37,7.72-0.2,15.58-2.02,23.12c-0.06,0.26,0.07,0.55,0.38,0.5c0.34-0.06,0.56-0.46,0.63-0.75
						c1.84-7.63,2.42-15.61,2.05-23.43c-0.01-0.3-0.25-0.42-0.53-0.29C60.08,142.35,59.84,142.75,59.86,143.06L59.86,143.06z"/>
				</g>
			</g>
			<g>
				<g>
					<path d="M51.49,137.76c1.35,7.4,1.51,15.04,0.59,22.5c-0.26,2.07-0.6,4.12-1.04,6.16c-0.06,0.26,0.06,0.55,0.38,0.5
						c0.33-0.06,0.57-0.46,0.63-0.75c1.61-7.51,2.01-15.28,1.3-22.91c-0.2-2.12-0.48-4.23-0.87-6.33c-0.06-0.33-0.46-0.21-0.64-0.07
						C51.58,137.08,51.43,137.44,51.49,137.76L51.49,137.76z"/>
				</g>
			</g>
			<g>
				<g>
					<path d="M88.59,143.54c-0.95,7.68-0.92,15.62,0.94,23.17c0.08,0.32,0.45,0.22,0.64,0.07c0.25-0.2,0.44-0.58,0.36-0.89
						c-1.81-7.36-1.85-15.11-0.93-22.59C89.71,142.4,88.66,142.95,88.59,143.54L88.59,143.54z"/>
				</g>
			</g>
			<g>
				<g>
					<path d="M96.35,138.18c-1.19,7.12-0.84,14.46,1.03,21.45c0.54,2.01,1.21,3.98,1.99,5.91c0.27,0.66,1.2-0.34,1-0.83
						c-2.68-6.59-3.92-13.68-3.64-20.75c0.08-2.02,0.29-4.03,0.63-6.03c0.04-0.26-0.05-0.55-0.38-0.5
						C96.65,137.49,96.39,137.9,96.35,138.18L96.35,138.18z"/>
				</g>
			</g>
		</g>
		<g id="Ebene_4">
			<g>
				<path class="st2" d="M115.98,79.33c0,3.26-2.17,6.6-6.18,6.87c-25.75,1.72-41.32,5.88-67.91,0.89
					c-3.67-0.69-5.59-4.64-5.54-7.68c0.09-5.2-0.37-4.86,0-8.01c1.34-11.49,0.81-17.32,5.91-27.77c4.9-10.02,17.37-18.48,30.7-18.48
					c22.25,0,43.02,13.69,43.02,43.69"/>
				<g>
					<path d="M115.54,79.57c-0.01,1.61-0.56,3.23-1.72,4.41c-0.61,0.63-1.4,1.1-2.24,1.38c-1.03,0.33-2.12,0.34-3.2,0.42
						c-4.7,0.34-9.39,0.78-14.07,1.25c-8.4,0.84-16.81,1.76-25.26,1.89c-4.41,0.07-8.82-0.08-13.21-0.46
						c-2.38-0.21-4.76-0.48-7.13-0.81c-1.22-0.17-2.44-0.36-3.66-0.56c-1.21-0.2-2.52-0.32-3.68-0.72c-1.66-0.57-2.9-1.88-3.66-3.38
						c-0.37-0.72-0.63-1.51-0.78-2.3c-0.18-0.93-0.12-1.88-0.12-2.82c0-1.32-0.08-2.62-0.14-3.94c-0.06-1.32,0.12-2.63,0.27-3.94
						c0.42-3.89,0.67-7.81,1.21-11.69c0.51-3.65,1.39-7.22,2.76-10.66c1.45-3.65,3.27-7.07,5.91-10.06
						c2.59-2.94,5.74-5.42,9.21-7.36c3.58-2,7.52-3.43,11.61-4.09c3.53-0.58,7.15-0.5,10.7-0.13c6.03,0.64,11.95,2.37,17.21,5.3
						c5.38,3,9.92,7.22,13.2,12.29c3.82,5.89,5.84,12.72,6.52,19.6c0.19,1.96,0.28,3.93,0.28,5.9c0,0.26,0.22,0.36,0.45,0.25
						c0.26-0.12,0.43-0.45,0.43-0.72c-0.01-7.53-1.32-15.12-4.69-21.97c-2.78-5.66-6.98-10.61-12.26-14.29
						c-5.06-3.53-10.97-5.81-17.1-6.92c-3.14-0.57-6.35-0.84-9.54-0.81c-4.3,0.05-8.55,0.97-12.52,2.55
						c-7.44,2.98-14.13,8.42-17.87,15.33c-1.96,3.61-3.43,7.54-4.35,11.52c-0.84,3.65-1.17,7.37-1.52,11.08
						c-0.2,2.2-0.43,4.39-0.67,6.59c-0.12,1.11-0.15,2.19-0.09,3.3c0.1,1.63,0.07,3.26,0.1,4.9c0.03,1.64,0.54,3.29,1.44,4.69
						c0.94,1.46,2.36,2.61,4.12,3c2.56,0.58,5.2,0.92,7.8,1.27c4.67,0.62,9.37,1,14.08,1.11c8.66,0.21,17.3-0.54,25.9-1.4
						c4.68-0.47,9.35-0.95,14.04-1.35c1.25-0.11,2.5-0.21,3.75-0.3c1.16-0.09,2.37-0.08,3.52-0.3c1.81-0.34,3.37-1.41,4.4-2.87
						c0.97-1.37,1.45-3,1.46-4.65c0-0.26-0.22-0.35-0.45-0.25C115.71,78.97,115.54,79.3,115.54,79.57L115.54,79.57z"/>
				</g>
			</g>
		</g>
		<g id="Ebene_5_10_">
			<g>
				<path class="st3" d="M84.88,120.3c0.42,4.34,0.84,8.67,1.26,13.01c0.15,1.56,0.28,3.22-0.45,4.62
					c-1.22,2.33-4.28,3.05-6.98,3.42c-3.96,0.55-8.57,0.7-11.33-2.08c-2.35-2.37-2.45-6.03-1.93-9.25c0.52-3.22,1.51-6.49,0.83-9.69
					c6.01,0.99,12.2,1,18.21,0.02"/>
				<g>
					<path class="st3" d="M84.4,120.55c0.41,4.27,0.82,8.53,1.24,12.8c0.17,1.75,0.45,3.82-0.91,5.23c-1.06,1.1-2.69,1.59-4.17,1.9
						c-1.61,0.34-3.28,0.54-4.93,0.6c-1.64,0.06-3.35-0.03-4.91-0.54c-1.58-0.52-2.94-1.47-3.82-2.85c-0.9-1.41-1.21-3.09-1.23-4.72
						c-0.07-4.39,1.95-8.6,1.07-13.01c-0.23,0.32-0.46,0.64-0.69,0.96c6.06,0.99,12.27,0.99,18.33,0.01
						c0.49-0.08,0.9-1.26,0.23-1.15c-5.99,0.96-12.11,0.95-18.1-0.03c-0.45-0.07-0.76,0.63-0.69,0.96c0.84,4.2-1.1,8.32-1.11,12.52
						c0,1.72,0.29,3.48,1.13,5.02c0.8,1.46,2.14,2.58,3.72,3.21c3.19,1.27,7.02,0.88,10.32,0.26c1.65-0.31,3.32-0.81,4.65-1.84
						c1.48-1.15,2.15-2.85,2.2-4.64c0.03-1.18-0.13-2.36-0.24-3.53c-0.12-1.27-0.25-2.55-0.37-3.82c-0.25-2.62-0.5-5.23-0.76-7.85
						C85.29,119.29,84.35,120.06,84.4,120.55L84.4,120.55z"/>
				</g>
			</g>
		</g>
		<g id="Ebene_3_4_">
			<g>
				<path class="st3" d="M112.2,69.4c4.27-1.47,9.45-0.02,12.22,3.41c2.77,3.43,2.92,8.59,0.35,12.16c-2.57,3.57-7.65,5.29-12,4.05
					c-2.63,6.64-5.97,13.11-10.71,18.59c-4.74,5.48-10.97,9.93-18.12,11.85c-9.98,2.68-24.33-0.14-30.42-4.64
					c-6.16-4.55-14.66-25.74-14.66-25.74s-9.74,0.2-12.42-3.28c-2.68-3.49-2.5-10.56,0.58-13.74c2.23-2.31,7.33-2.98,12.72-2.42
					c1.91-4.26,2.55-7.7,2.8-11.87c11.39,1.18,23.1-7,25.83-17.64c14.11,18.2,37.84,16.41,37.84,16.41s0.36,10.98,5.71,13"/>
				<g>
					<path class="st3" d="M112.08,69.98c4.83-1.62,10.63,0.45,12.94,4.88c1.14,2.18,1.39,4.8,0.73,7.15
						c-0.67,2.37-2.34,4.31-4.56,5.5c-2.49,1.33-5.47,1.69-8.21,0.93c-0.28-0.08-0.58,0.36-0.65,0.55
						c-3.34,8.39-7.85,16.62-14.93,22.67c-3.28,2.81-7.06,5.12-11.21,6.57c-3.83,1.33-7.87,1.79-11.92,1.68
						c-4.04-0.1-8.1-0.71-11.98-1.81c-3.05-0.87-6.32-2.06-8.78-4.07c-1.86-1.52-3.24-3.64-4.5-5.63c-1.62-2.56-3.05-5.23-4.4-7.93
						c-1.9-3.79-3.65-7.65-5.24-11.56c-0.03-0.07-0.05-0.13-0.08-0.2c-0.04-0.09-0.11-0.21-0.23-0.2c-1.39,0.03-2.8-0.06-4.18-0.21
						c-2.36-0.25-4.96-0.67-6.95-1.98c-2.22-1.47-2.86-4.54-2.9-6.97c-0.05-2.56,0.55-5.83,2.84-7.46c1.38-0.99,3.19-1.4,4.86-1.63
						c2.24-0.31,4.52-0.25,6.77-0.02c0.31,0.03,0.55-0.32,0.65-0.55c1.74-3.9,2.6-7.94,2.85-12.17c-0.24,0.28-0.47,0.56-0.71,0.84
						c9.26,0.93,18.43-4.08,23.41-11.45c1.43-2.11,2.48-4.44,3.12-6.89c-0.29,0.2-0.59,0.4-0.88,0.6
						c4.83,6.2,11.47,10.84,19.01,13.54c5.08,1.82,10.49,2.83,15.9,3c1.03,0.03,2.08,0.05,3.11-0.03c-0.08-0.11-0.17-0.22-0.25-0.33
						c0.04,1.33,0.23,2.67,0.46,3.98c0.42,2.37,1.1,4.84,2.49,6.87c0.72,1.05,1.68,1.97,2.9,2.45c0.52,0.2,1.15-0.92,0.66-1.1
						c-2.22-0.86-3.42-3.11-4.15-5.17c-0.71-1.99-1.1-4.09-1.31-6.18c-0.04-0.45-0.08-0.9-0.1-1.35c0-0.13-0.08-0.34-0.25-0.33
						c-2.92,0.22-5.93-0.06-8.81-0.47c-6.56-0.93-12.96-3.07-18.53-6.54c-3.99-2.49-7.47-5.64-10.31-9.3
						c-0.33-0.42-0.81,0.35-0.88,0.6c-2.11,8.1-9.52,14.53-17.87,16.46c-2.38,0.55-4.83,0.72-7.27,0.48
						c-0.42-0.04-0.69,0.52-0.71,0.84c-0.24,4.03-1.09,7.86-2.74,11.58c0.22-0.18,0.43-0.36,0.65-0.55
						c-3.69-0.37-7.98-0.43-11.34,1.31c-2.8,1.45-4.08,4.52-4.43,7.43c-0.34,2.84,0,6.32,1.95,8.62c1.57,1.85,4.43,2.46,6.76,2.83
						c1.88,0.3,3.82,0.45,5.73,0.41c-0.08-0.07-0.15-0.14-0.23-0.2c1.38,3.45,2.92,6.84,4.54,10.19c1.35,2.79,2.77,5.54,4.36,8.21
						c1.34,2.26,2.79,4.56,4.68,6.45c2.05,2.05,4.9,3.29,7.64,4.24c3.82,1.32,7.86,2.1,11.91,2.4c4.04,0.3,8.22,0.14,12.15-0.88
						c4.28-1.12,8.26-3.17,11.77-5.76c7.6-5.6,12.71-13.64,16.39-22.01c0.47-1.07,0.92-2.16,1.35-3.25
						c-0.22,0.18-0.43,0.36-0.65,0.55c5.4,1.49,11.43-1.35,13.61-6.29c1.1-2.49,1.22-5.4,0.33-7.97c-0.88-2.55-2.77-4.64-5.26-5.86
						c-2.73-1.34-6.01-1.64-8.92-0.66c-0.3,0.1-0.53,0.39-0.58,0.69C111.69,69.72,111.78,70.08,112.08,69.98L112.08,69.98z"/>
				</g>
			</g>
		</g>
		<g id="Ebene_2_7_">
			<g>
				<g>
					<path d="M111.53,69.96c4.76-1.98,10.81-0.15,13.42,4.17c1.32,2.19,1.74,4.86,1.19,7.33c-0.53,2.37-2.06,4.4-4.17,5.7
						c-2.42,1.5-5.39,2.06-8.21,1.47c-0.5-0.1-1.05,1.04-0.46,1.17c5.55,1.16,11.54-2.08,13.38-7.23c0.93-2.59,0.86-5.52-0.23-8.06
						c-1.09-2.53-3.15-4.52-5.77-5.59c-2.93-1.19-6.26-1.22-9.18-0.01C111.04,69.11,110.8,70.27,111.53,69.96L111.53,69.96z"/>
				</g>
			</g>
			<g>
				<g>
					<path d="M40.09,69.07c-3.06-0.32-6.27-0.64-9.25,0.29c-2.56,0.8-4.69,2.45-5.74,4.86c-1.05,2.41-1.15,5.37-0.75,7.93
						c0.41,2.63,1.78,4.89,4.23,6.21c3.06,1.65,6.66,1.58,10.06,1.48c0.52-0.02,1.02-1.18,0.46-1.17c-2.84,0.08-5.82,0.19-8.52-0.82
						c-2.4-0.9-4.23-2.58-4.97-4.98c-0.69-2.27-0.66-4.94-0.11-7.24c0.58-2.4,2.26-4.1,4.64-4.97c3.03-1.11,6.35-0.76,9.5-0.43
						C40.15,70.29,40.68,69.13,40.09,69.07L40.09,69.07z"/>
				</g>
			</g>
			<g>
				<g>
					<path d="M113.11,89.18c-2.14,6.37-5.52,12.38-10,17.52c-4.42,5.07-10.02,9.33-16.5,11.67c-6.32,2.28-13.31,2.87-19.93,1.56
						c-6.79-1.34-12.8-4.77-17.25-9.87c-4.68-5.36-7.52-11.96-9.42-18.65c-0.24-0.84-0.46-1.69-0.68-2.54
						c-0.16-0.62-1.04,0.3-0.92,0.76c1.73,6.9,4.3,13.78,8.7,19.55c2.12,2.79,4.67,5.31,7.63,7.28c2.8,1.86,5.93,3.22,9.2,4.1
						c6.64,1.79,13.86,1.57,20.43-0.39c6.77-2.02,12.68-5.97,17.49-10.93c4.91-5.05,8.7-11.13,11.23-17.59
						c0.31-0.8,0.6-1.6,0.88-2.41C114.22,88.45,113.32,88.55,113.11,89.18L113.11,89.18z"/>
				</g>
			</g>
			<g>
				<g>
					<path d="M111.93,68.96c-1.59-1.51-2.48-3.67-3.22-5.66c-0.72-1.92-1.29-3.9-1.76-5.9c-0.1-0.41-0.19-0.82-0.28-1.24
						c-0.02-0.09-0.13-0.21-0.23-0.2c-2.91,0.16-5.9-0.17-8.76-0.62c-6.56-1.03-12.95-3.25-18.52-6.77
						c-3.97-2.51-7.45-5.66-10.3-9.3c-0.28-0.36-0.74,0.21-0.83,0.44c-3.03,7.8-10.11,13.86-18.34,16.3
						c-2.33,0.69-4.75,1.1-7.18,1.17c-0.43,0.01-0.68,0.47-0.71,0.84c-0.26,3.93-0.96,7.89-2.47,11.57
						c-0.08,0.21-0.11,0.58,0.19,0.62s0.56-0.33,0.65-0.55c1.58-3.87,2.3-8.02,2.58-12.16c-0.24,0.28-0.47,0.56-0.71,0.84
						c9.11-0.29,17.84-4.96,23.16-12.03c1.52-2.01,2.76-4.21,3.66-6.54c-0.28,0.15-0.55,0.3-0.83,0.44
						c4.86,6.2,11.5,10.86,19.03,13.64c5.05,1.86,10.43,2.96,15.83,3.22c1.03,0.05,2.07,0.09,3.1,0.03
						c-0.08-0.07-0.15-0.14-0.23-0.2c0.69,3.44,1.72,6.94,3.33,10.08c0.54,1.05,1.17,2.09,2.03,2.91
						C111.54,70.33,112.29,69.3,111.93,68.96L111.93,68.96z"/>
				</g>
			</g>
			<g>
				<g>
					<path d="M84.65,120.43c0.41,4.01,0.82,8.02,1.23,12.04c0.18,1.76,0.68,3.91-0.34,5.51c-0.85,1.33-2.45,2.14-3.91,2.7
						c-3.45,1.31-7.44,1.54-10.96,0.32c-1.5-0.52-2.95-1.32-4.03-2.47c-1.21-1.29-1.72-2.86-1.73-4.58
						c-0.01-2.19,0.46-4.4,0.75-6.57c0.3-2.26,0.61-4.51,0.91-6.77c0.11-0.83-0.86-0.32-0.93,0.23c-0.29,2.19-0.59,4.38-0.88,6.56
						c-0.28,2.09-0.66,4.19-0.78,6.3c-0.1,1.81,0.19,3.63,1.3,5.14c0.97,1.31,2.39,2.29,3.91,2.94c3.59,1.55,7.82,1.51,11.51,0.3
						c1.67-0.55,3.33-1.32,4.58-2.54c1.4-1.37,1.9-3.1,1.81-4.99c-0.12-2.4-0.47-4.82-0.71-7.21c-0.25-2.47-0.5-4.94-0.76-7.41
						C85.53,119.17,84.6,119.94,84.65,120.43L84.65,120.43z"/>
				</g>
			</g>
			<g>
				<g>
					<path d="M86.73,97.94c-2.26,2.73-5.18,5.08-8.84,5.7c-3.21,0.55-6.43-0.4-9.18-1.97c-1.82-1.04-3.47-2.34-4.97-3.76
						c-0.58-0.55-1.58,0.83-1.1,1.29c2.68,2.55,5.82,4.79,9.52,5.74c3.36,0.87,6.88,0.33,9.85-1.4c2.09-1.22,3.85-2.88,5.37-4.71
						c0.22-0.26,0.47-0.78,0.22-1.09C87.36,97.42,86.91,97.71,86.73,97.94L86.73,97.94z"/>
				</g>
			</g>
			<g>
				<g>
					<path d="M77.5,78.57c-1.17-0.9-2.83-1-4.17-0.39c-1.35,0.62-2.21,1.98-2.34,3.39c-0.12,1.37,0.46,2.74,1.72,3.46
						c1.25,0.72,2.86,0.7,4.1-0.02c0.26-0.15,0.49-0.48,0.47-0.78c-0.01-0.26-0.23-0.42-0.49-0.27c-2.01,1.17-4.83-0.16-4.86-2.48
						c-0.03-2.5,3.13-3.18,4.91-1.81C77.24,79.98,77.94,78.9,77.5,78.57L77.5,78.57z"/>
				</g>
			</g>
			<g>
				<path d="M83.22,69.47c0.19-0.81-0.03-1.65-0.19-2.47c-0.16-0.82-0.27-1.7,0.12-2.45c0.39-0.75,1.45-1.22,2.17-0.75
					c0.76,0.5,0.65,1.57,0.71,2.44c0.05,0.7,0.25,1.38,0.36,2.07s0.12,1.43-0.22,2.06c-0.33,0.63-1.07,1.09-1.79,0.94
					c-0.71-0.15-1.17-1.08-0.71-1.62"/>
				<g>
					<path d="M83.69,69.36c0.13-0.7,0.07-1.38-0.06-2.07c-0.13-0.71-0.36-1.45-0.23-2.18c0.1-0.54,0.54-0.95,1.14-0.9
						c0.63,0.05,0.88,0.61,0.95,1.14c0.07,0.55,0.04,1.11,0.12,1.66c0.11,0.76,0.36,1.5,0.37,2.27c0.01,0.62-0.15,1.29-0.87,1.45
						c-0.31,0.07-0.63,0.01-0.86-0.2c-0.09-0.08-0.18-0.2-0.23-0.31c-0.02-0.06-0.03-0.3-0.11-0.19c0.14-0.2,0.37-0.58,0.17-0.81
						c-0.18-0.22-0.53-0.03-0.66,0.15c-0.38,0.52-0.56,1.12-0.27,1.72c0.27,0.58,0.86,0.9,1.52,0.82c1.69-0.2,2.38-2.08,2.24-3.5
						c-0.08-0.86-0.37-1.7-0.42-2.56c-0.04-0.64,0-1.33-0.28-1.93c-0.63-1.35-2.33-0.93-3.12,0.02c-0.58,0.7-0.75,1.63-0.67,2.51
						c0.1,1.04,0.53,2.08,0.33,3.13c-0.05,0.24,0.05,0.51,0.35,0.46C83.41,70,83.64,69.62,83.69,69.36L83.69,69.36z"/>
				</g>
			</g>
			<g>
				<path d="M66.14,68.12c-0.38-0.8-0.77-1.64-0.67-2.51c0.1-0.87,0.91-1.72,1.81-1.57c0.98,0.16,1.39,1.28,1.52,2.22
					c0.14,1.01,0.17,2.03,0.1,3.04c-0.05,0.73-0.26,1.59-0.98,1.82c-0.63,0.21-1.34-0.24-1.62-0.82c-0.28-0.58-0.25-1.25-0.22-1.89"
					/>
				<g>
					<path d="M66.6,67.74c-0.36-0.76-1.38-2.88,0.13-3.12c1.18-0.19,1.53,1.4,1.63,2.2c0.08,0.67,0.11,1.35,0.1,2.03
						c-0.01,0.42,0.07,1.25-0.27,1.6c-0.38,0.4-1.07-0.04-1.32-0.37c-0.41-0.55-0.34-1.28-0.31-1.92c0.02-0.29-0.25-0.38-0.49-0.27
						c-0.29,0.14-0.45,0.49-0.47,0.78c-0.06,1.17,0.13,3.09,1.79,3.09c1.41,0,1.91-1.63,1.99-2.71c0.1-1.41,0.14-3.13-0.49-4.44
						c-0.56-1.16-1.85-1.54-2.89-0.66c-1.48,1.25-1.05,3.04-0.33,4.55C65.96,69.1,66.81,68.17,66.6,67.74L66.6,67.74z"/>
				</g>
			</g>
			<g>
				<g>
					<path d="M68.6,59.16c-2.86-0.09-5.6,1.14-7.44,3.24c-0.16,0.18-0.36,0.59-0.17,0.81c0.19,0.23,0.51,0.02,0.66-0.15
						c1.59-1.82,4.03-2.81,6.49-2.74C68.66,60.34,69.17,59.18,68.6,59.16L68.6,59.16z"/>
				</g>
			</g>
			<g>
				<g>
					<path d="M90.44,62.17c-1.85-2.02-4.68-2.98-7.45-2.53c-0.49,0.08-0.9,1.26-0.23,1.15c2.52-0.4,5.17,0.51,6.85,2.35
						C90.01,63.57,90.77,62.54,90.44,62.17L90.44,62.17z"/>
				</g>
			</g>
			<g>
				<g>
					<path d="M36.46,72.1c-3.99,0.57-7.28,4.01-7.65,7.85c-0.08,0.83,0.88,0.33,0.93-0.23c0.31-3.32,3.09-5.99,6.49-6.48
						C36.73,73.17,37.14,72,36.46,72.1L36.46,72.1z"/>
				</g>
			</g>
			<g>
				<g>
					<path d="M115.75,72.19c3.76,0.48,6.93,4.05,6.52,7.75c-0.09,0.83,0.87,0.33,0.93-0.23c0.46-4.1-2.69-8.14-6.99-8.69
						C115.7,70.96,115.16,72.12,115.75,72.19L115.75,72.19z"/>
				</g>
			</g>
		</g>
		<g id="Ebene_8_6_">
			<ellipse class="st4" cx="84.08" cy="65.27" rx="0.6" ry="0.57"/>
			<ellipse class="st4" cx="66.62" cy="65.76" rx="0.58" ry="0.55"/>
			<g class="st5">
				<g>
					<path class="st6" d="M117.8,114.51c0.52,0,1.02-1.17,0.46-1.17C117.74,113.34,117.23,114.51,117.8,114.51L117.8,114.51z"/>
				</g>
			</g>
		</g>
		<g id="Ebene_19_2_">
			<g>
				<g>
					<path d="M85.57,127.68c0.52,0,1.02-1.17,0.46-1.17C85.51,126.51,85.01,127.68,85.57,127.68L85.57,127.68z"/>
				</g>
			</g>
		</g>
		<g id="Ebene_32">
			<g>
				<path class="st1" d="M50.88,27.76c-8.61,1.01-17.01,3.66-24.56,7.75c-2.79,1.51-5.71,3.57-6.18,6.6
					c-0.36,2.33,0.92,4.67,2.75,6.24c1.83,1.57,4.17,2.49,6.48,3.29c27.02,9.39,58.01,7.51,86.43,0.58
					c8.55-2.09,14.88-4.04,13.55-12.97c-0.55-3.66-5.06-5.59-8.51-7.27c-4.61-2.24-8.84-4.2-14.01-4.06c0,0-8.7,1.91-10-1.83
					c-1.53-4.37-3.32-9.69-4.83-14.02c-0.8-2.28-1.29-5.23-3.8-5.09c-2.58,0.14-6.17,3.33-8.73,3.68c-2.87,0.4-5.36-1.75-7.44-3.68
					c-2.08-1.93-4.79-3.94-7.58-3.21c-2.5,0.66-3.82,3.2-4.84,5.47c-2.72,6.09-5.44,12.19-8.17,18.28"/>
				<g>
					<path class="st7" d="M51,27.14c-5.28,0.63-10.48,1.86-15.46,3.67c-2.5,0.91-4.95,1.95-7.32,3.14
						c-2.05,1.02-4.14,2.11-5.82,3.65c-1.58,1.44-2.78,3.31-2.83,5.46c-0.05,2.25,1.2,4.37,2.91,5.84c1.86,1.61,4.22,2.54,6.55,3.35
						c2.42,0.84,4.88,1.59,7.36,2.26c10.15,2.73,20.68,4,31.21,4.17c10.67,0.17,21.34-0.76,31.85-2.5
						c5.27-0.87,10.5-1.94,15.68-3.19c3.48-0.84,7.21-1.63,10.28-3.5c2.77-1.69,4.41-4.29,4.63-7.44c0.13-1.78,0-3.77-0.99-5.32
						c-1.02-1.59-2.73-2.7-4.38-3.61c-1.96-1.08-4.03-2.03-6.07-2.97c-2.23-1.02-4.53-1.93-6.95-2.43
						c-1.59-0.33-3.42-0.63-5.03-0.33c-1.03,0.19-2.08,0.33-3.13,0.38c-1.39,0.07-2.91,0.06-4.23-0.42c-0.55-0.2-1.1-0.49-1.48-0.94
						c-0.56-0.66-0.73-1.61-1.01-2.4c-1.59-4.58-3.23-9.15-4.71-13.76c-0.47-1.46-1.08-3.42-2.84-3.83
						c-1.74-0.4-3.68,0.82-5.11,1.61c-1.68,0.93-3.51,2.23-5.55,2.04c-2.4-0.23-4.34-2.01-6-3.54c-1.69-1.56-3.69-3.25-6.11-3.5
						c-2.23-0.23-4.12,1.03-5.36,2.71c-1.41,1.92-2.25,4.22-3.21,6.37c-1.16,2.6-2.32,5.19-3.48,7.79c-1.13,2.53-2.26,5.07-3.4,7.6
						c-0.1,0.22-0.11,0.63,0.21,0.67c0.33,0.05,0.6-0.36,0.7-0.59c2.25-5.03,4.5-10.07,6.75-15.1c0.53-1.2,1.06-2.4,1.61-3.59
						c0.42-0.91,0.87-1.82,1.49-2.62C62.3,5.55,63,4.9,63.89,4.55c1.11-0.43,2.35-0.33,3.44,0.08c2.26,0.85,3.86,2.62,5.64,4.13
						c1.63,1.38,3.63,2.73,5.91,2.59c1.85-0.12,3.53-1.23,5.09-2.1c0.86-0.48,1.73-0.97,2.65-1.31c0.71-0.26,1.55-0.47,2.29-0.18
						c1.54,0.61,1.94,2.75,2.37,4.11c0.71,2.22,1.52,4.42,2.28,6.63c0.79,2.31,1.59,4.63,2.39,6.94c0.25,0.71,0.43,1.5,0.96,2.09
						c0.41,0.45,0.94,0.77,1.51,0.99c2.32,0.89,5.11,0.6,7.51,0.19c0.25-0.04,0.5-0.11,0.75-0.14c0.96-0.11,2.03,0.04,2.98,0.17
						c2.43,0.32,4.75,1.11,6.98,2.07c2.06,0.89,4.08,1.87,6.08,2.88c1.69,0.85,3.45,1.8,4.72,3.2c1.31,1.44,1.59,3.16,1.57,5.02
						c-0.01,1.44-0.31,2.88-1.11,4.11c-1.57,2.42-4.69,3.56-7.39,4.38c-4.32,1.32-8.81,2.26-13.24,3.15
						c-10.14,2.06-20.46,3.41-30.82,3.78c-10.19,0.37-20.44-0.19-30.46-2.03c-4.95-0.91-9.85-2.13-14.62-3.7
						c-4.21-1.38-9.92-3.28-10.71-8.18c-0.72-4.5,4.87-7.02,8.27-8.68c4.59-2.23,9.45-3.93,14.45-5.08
						c2.43-0.56,4.89-0.98,7.37-1.28C51.29,28.32,51.74,27.05,51,27.14L51,27.14z"/>
				</g>
			</g>
		</g>
		<g id="Ebene_31">
			<g>
				<path class="st8" d="M47.3,39.76c0.19,2.51-1.17,6.18-2.37,8.42c9.6-3.93,23.77-15.48,31.27-12.68
					c12.8,4.78,26.04,11.08,26.04,11.08s-3.03-12.7-4.77-12.7c-2.94,0-5.93-1.4-8.63-2.13c-14.29-3.83-22.01-0.36-41.12,8.44"/>
				<g>
					<path class="st8" d="M46.78,40.03c0.09,1.38-0.22,2.76-0.63,4.07c-0.41,1.33-0.94,2.63-1.6,3.86
						c-0.19,0.35-0.21,1.02,0.38,0.78c7.99-3.29,14.75-8.9,22.9-11.87c1.63-0.59,3.37-1.1,5.12-1.17c2-0.08,3.68,0.69,5.51,1.4
						c5.19,2.01,10.32,4.17,15.4,6.42c2.68,1.19,5.36,2.39,8,3.65c0.52,0.25,0.95-0.64,0.86-1.01c-0.59-2.47-1.27-4.94-2.05-7.36
						c-0.48-1.49-0.98-3.01-1.75-4.39c-0.21-0.38-0.47-0.84-0.87-1.07c-0.31-0.17-0.69-0.11-1.03-0.13
						c-0.84-0.06-1.68-0.22-2.5-0.42c-1.64-0.41-3.22-1.02-4.84-1.5c-1.25-0.37-2.53-0.67-3.8-0.93c-2.22-0.45-4.47-0.74-6.74-0.78
						c-4.41-0.09-8.72,0.79-12.87,2.16c-5.54,1.83-10.83,4.31-16.11,6.73c-0.83,0.38-1.65,0.76-2.48,1.14
						c-0.5,0.23-0.75,1.5,0.02,1.14c5.46-2.51,10.91-5.12,16.58-7.17c4.1-1.48,8.36-2.61,12.76-2.74c4.86-0.14,9.65,0.87,14.22,2.38
						c1.55,0.51,3.13,1.03,4.77,1.21c0.38,0.04,0.77,0.03,1.15,0.07c0.14,0.01-0.02-0.04,0.12,0.03c0.13,0.07,0.19,0.15,0.33,0.32
						c0.83,1.07,1.25,2.49,1.68,3.74c0.57,1.66,1.06,3.34,1.53,5.03c0.29,1.06,0.5,2.16,0.83,3.21c0.02,0.05,0.03,0.11,0.04,0.16
						c0.29-0.34,0.57-0.68,0.86-1.01c-7.11-3.38-14.37-6.52-21.71-9.41c-1.44-0.57-2.87-1.14-4.33-1.66
						c-0.69-0.25-1.39-0.4-2.13-0.45c-1.7-0.11-3.41,0.24-5.02,0.73c-4.11,1.26-7.91,3.41-11.61,5.51
						c-4.22,2.4-8.37,5.05-12.89,6.91c0.13,0.26,0.26,0.52,0.38,0.78c0.74-1.39,1.36-2.85,1.82-4.35c0.45-1.47,0.8-3.01,0.7-4.55
						C47.77,38.66,46.75,39.5,46.78,40.03L46.78,40.03z"/>
				</g>
			</g>
		</g>
		<g id="Ebene_33">
			<g>
				<path class="st9" d="M104.19,45.3c5.26-7.37,10.51-14.74,15.77-22.11c0.91-1.28,1.87-2.82,1.37-4.29
					c-0.53-1.54-2.52-2.25-4.17-1.93c-1.66,0.32-3.03,1.4-4.26,2.51c-3.69,3.32-6.86,7.25-8.74,11.75
					c-1.87,4.5-2.37,9.61-0.86,14.23"/>
				<g>
					<path class="st9" d="M104.56,45.51c3.16-4.43,6.32-8.85,9.47-13.28c1.57-2.2,3.14-4.4,4.71-6.6c0.74-1.04,1.54-2.07,2.21-3.15
						c0.61-0.99,1.14-2.16,1.01-3.34c-0.2-1.84-2.04-2.91-3.86-2.87c-2.3,0.05-4.18,1.65-5.75,3.09c-3.39,3.12-6.31,6.73-8.23,10.86
						c-2.26,4.87-2.98,10.5-1.33,15.65c0.22,0.67,1.16-0.33,1-0.83c-1.38-4.27-1.05-8.9,0.54-13.08c1.49-3.92,4.02-7.39,7-10.4
						c1.43-1.44,3.07-3.19,5.09-3.82c1.54-0.48,3.82-0.12,4.4,1.56c0.38,1.09-0.23,2.16-0.82,3.06c-0.65,1-1.38,1.95-2.07,2.92
						c-1.45,2.03-2.89,4.06-4.34,6.08c-3.26,4.57-6.52,9.14-9.78,13.71c-0.14,0.2-0.26,0.66,0.01,0.81
						C104.12,46.06,104.43,45.7,104.56,45.51L104.56,45.51z"/>
				</g>
			</g>
		</g>
		<g id="Ebene_29_1_">
			<g>
				<g>
					<path d="M45.43,48.05c2.1-8.19,4.78-16.26,7.99-24.11c1.61-3.94,3.35-7.82,5.28-11.63c0.86-1.7,1.7-3.44,2.77-5.03
						c0.89-1.32,2.08-2.71,3.67-3.27c3.09-1.1,5.28,1.56,7.03,3.56c0.89,1.02,1.84,2.07,3.06,2.73c1.25,0.68,2.67,0.78,4.05,0.43
						c1.49-0.37,2.85-1.14,4.2-1.83c1.25-0.64,2.64-1.37,4.1-1.3c1.67,0.07,2.83,1.22,3.5,2.61c0.4,0.81,0.66,1.68,0.93,2.54
						c0.36,1.13,0.71,2.26,1.07,3.39c2.81,8.95,5.63,17.89,8.44,26.84c0.34,1.1,0.69,2.19,1.04,3.29c0.21,0.67,1.16-0.33,1-0.83
						c-2.9-9.21-5.8-18.43-8.69-27.64c-0.7-2.24-1.38-4.48-2.11-6.71c-0.52-1.57-1.22-3.31-2.75-4.2c-2.8-1.63-5.93,0.63-8.4,1.81
						c-1.35,0.64-2.85,1.19-4.38,0.87c-1.38-0.28-2.48-1.24-3.4-2.22c-1.82-1.93-3.58-4.75-6.61-4.86
						c-3.73-0.14-6.19,3.61-7.68,6.39c-2.04,3.8-3.89,7.68-5.6,11.63c-3.49,8.06-6.38,16.36-8.7,24.79c-0.27,1-0.54,2-0.8,3
						c-0.07,0.26,0.07,0.55,0.38,0.5C45.15,48.74,45.36,48.33,45.43,48.05L45.43,48.05z"/>
				</g>
			</g>
			<g>
				<g>
					<path d="M34.24,47.05c4.01,2.69,9.37,2.46,13.79,0.88c5.13-1.83,9.36-5.25,13.98-7.96c2.35-1.38,4.83-2.6,7.5-3.28
						c2.56-0.66,5.19-0.74,7.77-0.17c5.16,1.12,9.48,4.3,13.93,6.87c4.95,2.87,11.08,5.42,16.88,3.46c0.33-0.11,0.57-0.42,0.63-0.75
						c0.04-0.22-0.05-0.61-0.38-0.5c-5.18,1.75-10.64-0.26-15.17-2.72c-4.53-2.46-8.69-5.65-13.71-7.19
						c-2.43-0.75-4.95-1.02-7.49-0.68c-2.62,0.35-5.13,1.29-7.48,2.45c-4.8,2.39-8.92,5.85-13.75,8.18
						c-4.83,2.32-11.07,3.37-15.78,0.21C34.49,45.54,33.75,46.72,34.24,47.05L34.24,47.05z"/>
				</g>
			</g>
			<g>
				<g>
					<path d="M51.76,26.61c-7.3,1.18-14.68,2.69-21.52,5.45c-3.68,1.49-7.79,3.5-9.95,6.88c-0.73,1.14-1.18,2.48-1.1,3.82
						c0.08,1.32,0.64,2.55,1.44,3.61c2.26,3,6.03,4.86,9.49,6.28c6.16,2.52,12.83,3.96,19.43,4.89c9.37,1.32,18.88,1.4,28.31,0.82
						c9.54-0.59,19.02-1.81,28.49-3.02c3.9-0.5,7.78-1.22,11.53-2.38c2.74-0.85,5.45-1.93,7.84-3.49c3.22-2.1,6.13-5.43,5.31-9.41
						c-0.38-1.84-1.52-3.47-2.86-4.79c-1.87-1.85-4.17-3.27-6.54-4.45c-1.47-0.73-2.99-1.37-4.53-1.95c-0.56-0.21-1.24,1-0.72,1.2
						c2.85,1.07,5.66,2.35,8.17,4.05c1.78,1.2,3.46,2.65,4.56,4.48c0.81,1.33,1.22,2.91,0.93,4.39c-0.3,1.52-1.26,2.84-2.54,3.98
						c-1.81,1.61-4.03,2.75-6.29,3.67c-3.14,1.28-6.47,2.11-9.81,2.73c-4.39,0.82-8.86,1.28-13.29,1.82
						c-4.57,0.56-9.15,1.08-13.75,1.48c-9.16,0.8-18.39,1.12-27.57,0.38c-7.53-0.61-15.11-1.86-22.28-4.21
						c-3.99-1.31-8.14-2.98-11.33-5.7c-1.03-0.88-2.01-1.98-2.54-3.18c-0.23-0.51-0.4-1.14-0.44-1.6c-0.05-0.63-0.02-0.98,0.15-1.59
						c0.02-0.08-0.02,0.05,0.03-0.09c0.02-0.07,0.05-0.14,0.07-0.21c0.05-0.15,0.12-0.29,0.18-0.44c0.07-0.16-0.04,0.07,0.04-0.09
						c0.04-0.07,0.07-0.14,0.11-0.2c0.08-0.15,0.17-0.29,0.26-0.43c0.15-0.22,0.08-0.12,0.22-0.31c0.11-0.15,0.23-0.29,0.35-0.43
						c0.26-0.3,0.49-0.54,0.73-0.76c1.41-1.32,3.09-2.33,4.82-3.2c5.63-2.83,11.96-4.37,18.14-5.62c2.05-0.41,4.11-0.78,6.18-1.11
						C52.05,27.77,52.49,26.49,51.76,26.61L51.76,26.61z"/>
				</g>
			</g>
			<g>
				<g>
					<path d="M103.91,45.76c1.73-7.2,4.85-14.07,9.14-20.2c1.22-1.75,2.55-3.42,3.96-5.04c0.17-0.2,0.39-0.64,0.18-0.88
						c-0.21-0.25-0.55-0.02-0.71,0.16c-5.14,5.89-9.15,12.69-11.74,19.97c-0.73,2.04-1.34,4.13-1.85,6.23
						c-0.06,0.26,0.07,0.55,0.38,0.5C103.62,46.44,103.84,46.04,103.91,45.76L103.91,45.76z"/>
				</g>
			</g>
			<g>
				<g>
					<path d="M103.11,44.79c-1.6-7.97,1.11-16.48,6.85-22.4c1.47-1.51,3.18-2.96,5.07-3.97c1.78-0.95,4.58-1.4,5.85,0.58
						c1.27,1.99-0.68,4.39-1.88,5.93c-1.71,2.19-3.42,4.39-5.13,6.58c-3.83,4.91-7.67,9.83-11.5,14.74
						c-0.16,0.21-0.39,0.63-0.18,0.88c0.21,0.24,0.56,0.03,0.71-0.16c3.7-4.75,7.41-9.5,11.11-14.24c1.84-2.36,3.68-4.72,5.52-7.08
						c1.42-1.82,3.21-4.15,2.71-6.58c-0.46-2.22-2.95-3.06-5.04-2.63c-2.36,0.49-4.48,2.2-6.21,3.74
						c-3.36,2.98-5.94,6.76-7.53,10.88c-1.79,4.63-2.31,9.69-1.33,14.55c0.07,0.33,0.46,0.21,0.64,0.07
						C103.02,45.48,103.18,45.11,103.11,44.79L103.11,44.79z"/>
				</g>
			</g>
			<g>
				<g>
					<path d="M113.06,21.83c0.12,0.72,0.24,1.43,0.36,2.15c0.05,0.33,0.46,0.21,0.64,0.07c0.27-0.21,0.41-0.57,0.36-0.89
						c-0.12-0.72-0.24-1.43-0.36-2.15c-0.05-0.33-0.46-0.21-0.64-0.07C113.15,21.14,113,21.5,113.06,21.83L113.06,21.83z"/>
				</g>
			</g>
			<g>
				<g>
					<path d="M110.22,24.89c0.16,1.09,0.32,2.19,0.47,3.28c0.05,0.33,0.47,0.2,0.64,0.07c0.28-0.21,0.41-0.57,0.36-0.89
						c-0.16-1.09-0.32-2.19-0.47-3.28c-0.05-0.33-0.47-0.2-0.64-0.07C110.3,24.2,110.17,24.56,110.22,24.89L110.22,24.89z"/>
				</g>
			</g>
			<g>
				<g>
					<path d="M106.19,30.89c0.28,1.02,0.55,2.04,0.83,3.06c0.09,0.32,0.44,0.22,0.64,0.07c0.25-0.19,0.44-0.58,0.36-0.89
						c-0.28-1.02-0.55-2.04-0.83-3.06c-0.09-0.32-0.44-0.22-0.64-0.07C106.3,30.19,106.1,30.57,106.19,30.89L106.19,30.89z"/>
				</g>
			</g>
			<g>
				<g>
					<path d="M103.82,35.98c0.28,0.72,0.55,1.43,0.83,2.15c0.26,0.67,1.19-0.34,1-0.83c-0.28-0.72-0.55-1.43-0.83-2.15
						C104.56,34.49,103.63,35.49,103.82,35.98L103.82,35.98z"/>
				</g>
			</g>
			<g>
				<g>
					<path d="M107.39,36.64c0.59-0.15,1.18-0.3,1.78-0.45c0.33-0.08,0.57-0.44,0.63-0.75c0.05-0.24-0.05-0.58-0.38-0.5
						c-0.59,0.15-1.18,0.3-1.78,0.45c-0.33,0.08-0.57,0.44-0.63,0.75C106.97,36.39,107.06,36.73,107.39,36.64L107.39,36.64z"/>
				</g>
			</g>
			<g>
				<g>
					<path d="M110,31.44c0.67-0.11,1.34-0.23,2.01-0.34c0.53-0.09,0.97-1.37,0.24-1.24c-0.67,0.11-1.34,0.23-2.01,0.34
						C109.71,30.28,109.27,31.56,110,31.44L110,31.44z"/>
				</g>
			</g>
			<g>
				<g>
					<path d="M113.91,26.11c0.59-0.08,1.18-0.15,1.78-0.23c0.53-0.07,0.99-1.34,0.24-1.24c-0.59,0.08-1.18,0.15-1.78,0.23
						C113.62,24.94,113.17,26.21,113.91,26.11L113.91,26.11z"/>
				</g>
			</g>
			<g>
				<g>
					<path d="M116.28,22.83c0.47-0.08,0.95-0.15,1.42-0.23c0.53-0.08,0.98-1.36,0.24-1.24c-0.47,0.08-0.95,0.15-1.42,0.23
						C115.99,21.67,115.55,22.95,116.28,22.83L116.28,22.83z"/>
				</g>
			</g>
			<g>
				<g>
					<path d="M96.83,27.5c2.91,0,5.78,0.27,8.69,0.37c0.56,0.02,1.12-1.24,0.5-1.27c-2.9-0.1-5.78-0.37-8.69-0.37
						C96.76,26.23,96.21,27.5,96.83,27.5L96.83,27.5z"/>
				</g>
			</g>
			<g>
				<g>
					<path d="M47.94,39.89c3.28-1.11,6.55-2.21,9.62-3.79c3.06-1.58,6.16-3.14,9.42-4.31c3.27-1.18,6.57-1.84,10.07-1.64
						c3.31,0.19,6.55,0.97,9.75,1.75c1.85,0.45,3.71,0.9,5.59,1.25c1.91,0.36,3.8,0.5,5.74,0.42c0.56-0.02,1.1-1.29,0.5-1.27
						c-6.83,0.27-13.21-2.68-19.95-3.33c-3.44-0.33-6.77,0.05-10.04,1.09c-3.3,1.06-6.44,2.53-9.51,4.09
						c-1.72,0.87-3.42,1.76-5.22,2.48c-1.88,0.75-3.8,1.37-5.72,2.03c-0.32,0.11-0.57,0.42-0.63,0.75
						C47.52,39.61,47.61,40,47.94,39.89L47.94,39.89z"/>
				</g>
			</g>
		</g>
		<g id="Ebene_36">
			<g class="st10">
				<path d="M65.88,132.44c6.56-3.32,12.73-7.33,18.37-11.94c-5.78,1.43-11.83,1.85-17.76,1.22c-0.82,3.44-1.17,6.99-1.02,10.51"/>
				<g>
					<path d="M66.61,133.63c6.66-3.38,12.92-7.47,18.66-12.16c1.14-0.94-0.09-2.64-1.4-2.31c-5.68,1.39-11.56,1.77-17.38,1.17
						c-0.6-0.06-1.26,0.47-1.39,1.02c-0.84,3.56-1.22,7.23-1.07,10.88c0.03,0.75,0.64,1.38,1.44,1.38c0.76,0,1.47-0.63,1.44-1.38
						c-0.13-3.41,0.18-6.81,0.97-10.15c-0.46,0.34-0.93,0.68-1.39,1.02c6.07,0.63,12.23,0.18,18.15-1.27
						c-0.47-0.77-0.93-1.54-1.4-2.31c-5.55,4.54-11.63,8.46-18.07,11.73c-0.69,0.35-0.9,1.27-0.52,1.89
						C65.05,133.81,65.92,133.99,66.61,133.63L66.61,133.63z"/>
				</g>
			</g>
			<g class="st10">
				<path d="M27.53,72.67c-0.01,3.61,0.42,7.43,2.75,10.27c2.33,2.84,4.35,4.72,8.02,5.57c-4.09,0.94-7.35-0.4-9.94-3.57
					c-2.6-3.17-3.05-7.8-1.12-11.38"/>
				<g>
					<path d="M26.09,72.67c-0.01,3.09,0.31,6.23,1.71,9.05c0.68,1.36,1.69,2.53,2.72,3.65c0.9,0.98,1.89,1.87,3.01,2.62
						c1.32,0.88,2.84,1.48,4.39,1.85c0-0.89,0-1.78,0-2.67c-0.76,0.17-1.18,0.23-1.96,0.24c-0.81,0.01-1.11-0.02-1.84-0.19
						c-0.73-0.18-1.02-0.29-1.62-0.6c-0.62-0.32-1.07-0.63-1.5-1c-2.19-1.85-3.45-4.31-3.51-7.02c-0.03-1.53,0.29-3.02,0.99-4.35
						c0.35-0.67,0.18-1.5-0.52-1.89c-0.64-0.36-1.62-0.17-1.97,0.5c-1.64,3.09-1.85,6.83-0.48,10.05c1.31,3.09,3.99,5.82,7.35,6.85
						c1.89,0.58,3.91,0.51,5.82,0.08c1.38-0.31,1.36-2.35,0-2.67c-0.81-0.19-1.61-0.44-2.2-0.72c-0.65-0.3-1.28-0.67-1.86-1.09
						c0.18,0.13-0.23-0.19-0.27-0.22c-0.15-0.12-0.29-0.24-0.44-0.37c-0.29-0.26-0.57-0.53-0.85-0.81c-0.57-0.58-1.1-1.19-1.61-1.81
						c-2.18-2.63-2.49-6.17-2.49-9.48C28.97,70.89,26.09,70.89,26.09,72.67L26.09,72.67z"/>
				</g>
			</g>
			<g class="st10">
				<path d="M35.49,46.08c2.87,1.35,6.25,1.65,9.33,0.84"/>
				<g>
					<path d="M34.77,47.27c3.26,1.5,6.94,1.87,10.45,0.98c1.79-0.46,1.03-3.13-0.77-2.67c-2.72,0.7-5.66,0.48-8.22-0.7
						c-0.7-0.32-1.56-0.18-1.97,0.5C33.88,45.99,34.06,46.95,34.77,47.27L34.77,47.27z"/>
				</g>
			</g>
			<g class="st10">
				<path d="M104.27,45.85c1.14,0.11,2.29,0.21,3.43,0.32"/>
				<g>
					<path d="M104.27,47.24c1.14,0.11,2.29,0.21,3.43,0.32c0.78,0.07,1.44-0.69,1.44-1.38c0-0.81-0.66-1.31-1.44-1.38
						c-1.14-0.11-2.29-0.21-3.43-0.32c-0.78-0.07-1.44,0.69-1.44,1.38C102.83,46.66,103.49,47.17,104.27,47.24L104.27,47.24z"/>
				</g>
			</g>
			<g class="st10">
				<path d="M49.13,38.9c13.29-10.45,32.75-13.15,48.6-6.74"/>
				<g>
					<path d="M50.15,39.88c4.98-3.9,10.96-6.7,17.21-8.27c3.25-0.82,6.31-1.28,9.61-1.44c1.64-0.08,3.29-0.09,4.93-0.01
						c1.6,0.07,3.25,0.22,4.69,0.44c3.69,0.55,7.31,1.52,10.75,2.9c0.72,0.29,1.59-0.31,1.77-0.97c0.23-0.8-0.29-1.41-1.01-1.7
						c-6.34-2.55-13.28-3.68-20.14-3.47c-6.93,0.22-13.77,1.78-20.04,4.61c-3.52,1.58-6.8,3.6-9.81,5.95c-0.6,0.47-0.51,1.47,0,1.96
						C48.71,40.45,49.54,40.35,50.15,39.88L50.15,39.88z"/>
				</g>
			</g>
			<g class="st10">
				<path d="M65.88,3.65C56.17,16.31,49.65,31.2,47.03,46.7"/>
				<g>
					<path d="M64.64,2.95c-3.81,4.97-7.13,10.27-9.92,15.83c-2.8,5.58-5.08,11.4-6.78,17.37c-0.95,3.35-1.72,6.75-2.3,10.18
						c-0.13,0.74,0.2,1.49,1.01,1.7c0.69,0.18,1.65-0.22,1.77-0.97c1.02-6.02,2.62-11.95,4.78-17.69
						c2.13-5.69,4.83-11.18,8.01-16.39c1.82-2.97,3.79-5.85,5.92-8.63c0.46-0.6,0.1-1.54-0.52-1.89C65.88,2.05,65.1,2.35,64.64,2.95
						L64.64,2.95z"/>
				</g>
			</g>
			<g class="st10">
				<path d="M119.11,17.75c-8.41,3.97-14.41,12.26-15.32,21.18"/>
				<g>
					<path d="M118.38,16.56c-6.89,3.28-12.19,9.3-14.67,16.26c-0.71,1.98-1.14,4.03-1.36,6.12c-0.08,0.75,0.72,1.38,1.44,1.38
						c0.84,0,1.36-0.64,1.44-1.38c0.08-0.79,0.19-1.44,0.38-2.32c0.18-0.84,0.41-1.66,0.68-2.47c0.54-1.65,1.14-2.99,2.02-4.52
						c1.71-2.99,3.88-5.51,6.66-7.7c1.39-1.09,3.14-2.16,4.87-2.99c0.7-0.33,0.89-1.28,0.52-1.89
						C119.94,16.37,119.08,16.22,118.38,16.56L118.38,16.56z"/>
				</g>
			</g>
			<g class="st10">
				<path d="M103.11,40.02c-0.14,1.42-0.28,2.83-0.42,4.25"/>
				<g>
					<path d="M101.67,40.02c-0.14,1.42-0.28,2.83-0.42,4.25c-0.07,0.75,0.72,1.38,1.44,1.38c0.84,0,1.37-0.64,1.44-1.38
						c0.14-1.42,0.28-2.83,0.42-4.25c0.07-0.75-0.72-1.38-1.44-1.38C102.27,38.63,101.75,39.27,101.67,40.02L101.67,40.02z"/>
				</g>
			</g>
			<g class="st10">
				<path d="M116.18,18.83c-4.98,2.21-9,6.3-10.99,11.19"/>
				<g>
					<path d="M115.45,17.64c-5.34,2.39-9.49,6.78-11.65,12.02c-0.29,0.7,0.31,1.52,1.01,1.7c0.82,0.22,1.49-0.27,1.77-0.97
						c0.41-0.99,1.06-2.19,1.73-3.2c0.72-1.08,1.41-1.91,2.33-2.84c1.82-1.84,3.84-3.23,6.27-4.32c0.7-0.32,0.88-1.29,0.52-1.89
						C117,17.44,116.16,17.32,115.45,17.64L115.45,17.64z"/>
				</g>
			</g>
			<g class="st10">
				<path d="M22.8,38.5c2.29,6.53,8.27,11.76,15.28,13.35c29.07,6.61,59.68,2.57,88.65-4.45C95.83,58.76,60.9,59.85,29.28,50.43
					c-5.51-1.64-8.97-7.91-7.28-13.18"/>
				<g>
					<path d="M21.41,38.87c1.99,5.61,6.42,10.37,12.03,12.87c3.22,1.44,6.75,2.03,10.21,2.65c3.83,0.68,7.69,1.19,11.57,1.55
						c7.64,0.71,15.34,0.81,23.01,0.43c7.82-0.38,15.6-1.26,23.33-2.47c7.65-1.2,15.23-2.74,22.76-4.5
						c0.94-0.22,1.87-0.44,2.81-0.67c-0.26-0.89-0.51-1.78-0.77-2.67c-7.35,2.69-14.92,4.82-22.63,6.35
						c-7.61,1.52-15.35,2.45-23.11,2.81c-7.86,0.36-15.75,0.13-23.58-0.68c-7.72-0.8-15.38-2.22-22.88-4.19
						c-0.97-0.26-1.94-0.52-2.91-0.8c-0.76-0.22-1.77-0.48-2.37-0.73c-0.48-0.2-1.24-0.63-1.78-0.99c-0.02-0.02-0.26-0.19-0.14-0.1
						c0.1,0.08-0.08-0.06-0.08-0.06c-0.15-0.12-0.3-0.24-0.44-0.36c-0.27-0.23-0.52-0.48-0.77-0.74c-0.11-0.12-0.23-0.24-0.33-0.37
						c-0.06-0.07-0.12-0.14-0.18-0.22c0.04,0.05,0.13,0.17-0.04-0.05c-0.23-0.3-0.44-0.61-0.64-0.93c-0.4-0.65-0.64-1.13-0.84-1.69
						c-0.24-0.66-0.42-1.33-0.54-2.02c-0.01-0.04-0.03-0.27-0.01-0.04c-0.01-0.07-0.02-0.14-0.02-0.21
						c-0.01-0.16-0.03-0.32-0.04-0.48c-0.02-0.37-0.02-0.74,0.01-1.11c0.01-0.16,0.03-0.32,0.04-0.48c0.03-0.23-0.03,0.19,0.01-0.04
						c0.01-0.07,0.02-0.14,0.04-0.21c0.07-0.37,0.16-0.73,0.27-1.08c0.22-0.72-0.27-1.51-1.01-1.7c-0.77-0.2-1.55,0.25-1.77,0.97
						c-1.9,6.08,2.04,12.97,8.29,14.89c7.67,2.35,15.62,3.97,23.59,5.01c8.06,1.06,16.19,1.53,24.32,1.35
						c8.13-0.18,16.24-0.98,24.23-2.39c7.9-1.39,15.68-3.39,23.24-5.99c0.95-0.33,1.89-0.66,2.84-1.01c0.73-0.27,1.23-0.93,1.01-1.7
						c-0.21-0.74-1.02-1.15-1.77-0.97c-7.37,1.78-14.8,3.37-22.29,4.64c-7.43,1.26-14.91,2.2-22.44,2.7
						c-7.49,0.5-15.03,0.57-22.52,0.07c-3.69-0.25-7.38-0.62-11.04-1.17c-1.86-0.28-3.72-0.59-5.57-0.95
						c-1.73-0.34-3.49-0.66-5.19-1.15c-5.39-1.56-9.97-5.4-12.4-10.36c-0.29-0.6-0.47-1.03-0.72-1.73
						c-0.25-0.71-0.99-1.17-1.77-0.97C21.7,37.36,21.16,38.16,21.41,38.87L21.41,38.87z"/>
				</g>
			</g>
			<g class="st10">
				<path d="M39.29,57.02c-0.8,3.8-0.91,7.73-0.32,11.56c-0.8-2.15-0.89-4.53-0.26-6.73"/>
				<g>
					<path d="M37.9,56.65c-0.85,4.07-0.94,8.19-0.32,12.29c0.93-0.25,1.85-0.49,2.78-0.74c-0.7-1.95-0.81-3.99-0.26-5.99
						c0.48-1.72-2.3-2.46-2.78-0.74c-0.68,2.45-0.61,5.07,0.26,7.46c0.25,0.71,0.99,1.17,1.77,0.97c0.83-0.22,1.12-0.96,1.01-1.7
						c-0.54-3.58-0.42-7.28,0.32-10.82c0.15-0.73-0.22-1.49-1.01-1.7C38.96,55.5,38.05,55.91,37.9,56.65L37.9,56.65z"/>
				</g>
			</g>
			<g class="st10">
				<path d="M42.61,59.18c0.57,3.46-0.14,7.09-1.96,10.13c2.53-2.59,3.67-6.37,2.96-9.85"/>
				<g>
					<path d="M41.22,59.55c0.49,3.08-0.2,6.33-1.81,9.06c-0.79,1.34,1.13,2.86,2.26,1.68c2.9-3.02,4.11-7.18,3.33-11.2
						c-0.14-0.74-1.07-1.15-1.77-0.97c-0.8,0.21-1.15,0.97-1.01,1.7c0.57,2.95-0.41,6.24-2.59,8.51c0.75,0.56,1.51,1.12,2.26,1.68
						c2.02-3.41,2.71-7.33,2.1-11.19c-0.12-0.74-1.09-1.15-1.77-0.97C41.41,58.07,41.11,58.81,41.22,59.55L41.22,59.55z"/>
				</g>
			</g>
			<g class="st10">
				<path d="M58.65,137.98c3.73,3.1,8.11,5.47,12.81,6.93c0.01,1.76-2.27,2.86-4.04,2.41c-1.78-0.45-3.05-1.91-4.1-3.36
					c-1.04-1.45-2.04-3.01-3.62-3.91"/>
				<g>
					<path d="M57.63,138.96c3.94,3.26,8.49,5.74,13.44,7.28c-0.35-0.45-0.7-0.89-1.06-1.33c-0.01,0.32,0.08-0.15-0.01,0.13
						c-0.03,0.1-0.15,0.33-0.03,0.12c-0.06,0.11-0.12,0.21-0.2,0.31c0.18-0.23-0.12,0.09-0.16,0.13c-0.08,0.06-0.06,0.06,0.04-0.02
						c-0.05,0.04-0.11,0.07-0.17,0.11c-0.12,0.06-0.23,0.13-0.35,0.19c-0.09,0.04-0.08,0.04,0.03-0.01
						c-0.06,0.02-0.13,0.04-0.19,0.06c-0.13,0.03-0.26,0.07-0.4,0.1c-0.1,0.02-0.09,0.02,0.04,0c-0.07,0.01-0.14,0.01-0.2,0.01
						c-0.16,0-0.32,0.01-0.48-0.01c0.26,0.02-0.07-0.02-0.15-0.04c-0.16-0.04-0.32-0.09-0.47-0.15c-0.4-0.16-0.89-0.51-1.27-0.86
						c-2.03-1.86-3.08-4.62-5.63-6.12c-1.59-0.93-3.04,1.46-1.45,2.39c1.29,0.76,2.13,2.05,3.01,3.28c0.96,1.33,2.03,2.66,3.5,3.5
						c1.39,0.79,3.06,1.03,4.59,0.46c1.59-0.6,2.79-1.87,2.83-3.57c0.02-0.63-0.46-1.15-1.06-1.33c-4.46-1.39-8.62-3.63-12.17-6.57
						c-0.59-0.49-1.46-0.56-2.04,0C57.11,137.5,57.04,138.47,57.63,138.96L57.63,138.96z"/>
				</g>
			</g>
			<g class="st10">
				<path d="M76.8,143.23c5.35,1.58,11.62-0.34,15.02-4.59c-2.98,2.48-5.96,4.96-8.94,7.44c-0.89,0.74-2.26,0.91-3.32,0.39
					c-1.06-0.51-1.73-1.67-1.63-2.79"/>
				<g>
					<path d="M76.42,144.57c5.82,1.68,12.67-0.31,16.42-4.94c0.48-0.59,0.6-1.38,0-1.96c-0.58-0.56-1.45-0.49-2.04,0
						c-2.47,2.05-4.93,4.1-7.4,6.15c-0.3,0.25-0.6,0.5-0.89,0.74c-0.22,0.18-0.57,0.48-0.68,0.55c-0.28,0.18-0.32,0.17-0.61,0.24
						c-0.25,0.06-0.01,0.03-0.26,0.03c0,0-0.45-0.03-0.26,0c-0.31-0.05-0.42-0.1-0.62-0.22c-0.08-0.05-0.09-0.05-0.02,0
						c-0.06-0.05-0.12-0.1-0.17-0.15c-0.04-0.03-0.24-0.24-0.13-0.11c-0.1-0.11-0.17-0.25-0.24-0.38c-0.15-0.26-0.02,0.08-0.09-0.21
						c-0.01-0.04-0.09-0.44-0.06-0.21c-0.02-0.15-0.01-0.29,0-0.44c0.04-0.75-0.69-1.38-1.44-1.38c-0.82,0-1.4,0.63-1.44,1.38
						c-0.09,1.6,0.85,3.24,2.34,3.99c1.72,0.86,3.7,0.5,5.15-0.68c2.98-2.43,5.91-4.91,8.86-7.37c-0.68-0.65-1.36-1.31-2.04-1.96
						c-0.8,0.99-1.78,1.88-2.74,2.51c-1.13,0.74-2.21,1.24-3.41,1.61c-2.49,0.76-4.99,0.83-7.47,0.11
						c-0.75-0.21-1.57,0.26-1.77,0.97C75.2,143.6,75.67,144.35,76.42,144.57L76.42,144.57z"/>
				</g>
			</g>
			<g class="st10">
				<path d="M75.05,145.18c-1,7.62,1.92,15.63,7.66,21.01c-2.42-0.07-4.84-0.13-7.27-0.2c0.91-4.78,1.04-9.69,0.39-14.5"/>
				<g>
					<path d="M73.61,145.18c-0.79,6.19,0.9,12.68,4.52,17.85c1.04,1.49,2.23,2.88,3.56,4.14c0.34-0.79,0.68-1.58,1.02-2.36
						c-2.42-0.07-4.84-0.13-7.27-0.2c0.46,0.58,0.93,1.17,1.39,1.75c0.92-4.91,1.1-9.92,0.45-14.87c-0.1-0.74-0.59-1.38-1.44-1.38
						c-0.7,0-1.54,0.64-1.44,1.38c0.62,4.69,0.53,9.47-0.34,14.13c-0.17,0.89,0.39,1.72,1.39,1.75c2.42,0.07,4.84,0.13,7.27,0.2
						c1.25,0.03,1.9-1.54,1.02-2.36c-2.16-2.03-3.84-4.36-5.13-7.02c-1.17-2.43-1.99-5.38-2.21-8.01c-0.14-1.67-0.1-3.35,0.11-5.01
						c0.09-0.74-0.73-1.38-1.44-1.38C74.19,143.79,73.7,144.43,73.61,145.18L73.61,145.18z"/>
				</g>
			</g>
			<g class="st10">
				<path d="M52.17,137.4c2.83,9.15,4.49,18.63,4.93,28.17c-1.37-0.23-2.74-0.46-4.1-0.69c1.2-6.45,1.65-13.03,1.36-19.57"/>
				<g>
					<path d="M50.78,137.77c2.16,7.02,3.66,14.23,4.41,21.51c0.22,2.09,0.37,4.19,0.47,6.29c0.61-0.45,1.22-0.89,1.82-1.33
						c-1.37-0.23-2.74-0.46-4.1-0.69c0.34,0.57,0.67,1.14,1.01,1.7c1.21-6.58,1.7-13.27,1.41-19.94c-0.03-0.75-0.64-1.38-1.44-1.38
						c-0.76,0-1.47,0.63-1.44,1.38c0.28,6.43-0.14,12.87-1.31,19.2c-0.13,0.68,0.18,1.56,1.01,1.7c1.37,0.23,2.74,0.46,4.1,0.69
						c0.87,0.15,1.87-0.36,1.82-1.33c-0.36-7.52-1.44-15.02-3.26-22.35c-0.52-2.08-1.09-4.14-1.72-6.19
						c-0.22-0.72-1.01-1.17-1.77-0.97C51.05,136.27,50.56,137.05,50.78,137.77L50.78,137.77z"/>
				</g>
			</g>
			<g class="st10">
				<path d="M91.52,141.18c-1.09,8.55,1.51,17.48,7.07,24.27c-1.63,0.37-3.32,0.75-4.95,0.42c-1.64-0.33-3.2-1.57-3.27-3.16
					c-0.29-6.46-0.58-12.92-0.87-19.37"/>
				<g>
					<path d="M90.08,141.18c-0.86,6.92,0.63,14.06,4.03,20.2c0.99,1.78,2.16,3.45,3.45,5.04c0.21-0.77,0.42-1.54,0.64-2.31
						c-0.89,0.2-1.79,0.43-2.71,0.48c-0.41,0.03-0.84,0.04-1.26-0.02c-0.17-0.02-0.35-0.06-0.52-0.11
						c-0.07-0.02-0.15-0.04-0.22-0.06c-0.05-0.02-0.32-0.12-0.16-0.05c-0.25-0.11-0.64-0.33-0.77-0.43
						c-0.22-0.17-0.39-0.35-0.53-0.57c-0.13-0.21-0.2-0.35-0.23-0.54c0.02,0.13-0.01-0.1-0.01-0.1c-0.01-0.14-0.01-0.28-0.02-0.42
						c-0.01-0.24-0.02-0.49-0.03-0.73c-0.18-3.89-0.35-7.78-0.53-11.67c-0.1-2.19-0.2-4.38-0.3-6.56c-0.03-0.75-0.64-1.38-1.44-1.38
						c-0.75,0-1.48,0.63-1.44,1.38c0.19,4.24,0.38,8.47,0.57,12.71c0.1,2.15,0.19,4.31,0.29,6.46c0.09,1.82,1.14,3.35,2.84,4.18
						c2.29,1.11,4.83,0.65,7.22,0.11c0.48-0.11,0.88-0.51,1.01-0.97c0.15-0.52-0.04-0.94-0.37-1.35c-4.08-5.02-6.49-11.39-6.84-17.7
						c-0.1-1.86-0.04-3.73,0.19-5.59c0.09-0.74-0.73-1.38-1.44-1.38C90.66,139.8,90.17,140.44,90.08,141.18L90.08,141.18z"/>
				</g>
			</g>
			<g class="st10">
				<path d="M35.6,147.32c-0.17,4.29,2.33,8.37,5.67,11.24c3.34,2.88,7.47,4.75,11.54,6.59c-10.1-0.89-20.2-1.79-30.3-2.68
					c4.18-5.03,8.36-10.06,12.54-15.09"/>
				<g>
					<path d="M34.16,147.32c-0.11,3.45,1.3,6.77,3.47,9.48c2.32,2.9,5.43,5.07,8.75,6.82c1.86,0.99,3.78,1.86,5.71,2.73
						c0.24-0.86,0.49-1.72,0.73-2.58c-7.86-0.7-15.73-1.39-23.59-2.09c-2.24-0.2-4.47-0.4-6.71-0.59c0.34,0.79,0.68,1.58,1.02,2.36
						c4.18-5.03,8.36-10.06,12.54-15.09c0.49-0.58,0.59-1.39,0-1.96c-0.5-0.48-1.55-0.59-2.04,0c-4.18,5.03-8.36,10.06-12.54,15.09
						c-0.8,0.97-0.28,2.25,1.02,2.36c7.86,0.7,15.73,1.39,23.59,2.09c2.24,0.2,4.47,0.4,6.71,0.59c1.4,0.12,2-2.01,0.73-2.58
						c-6.02-2.72-12.65-5.73-15.51-11.86c-0.69-1.48-1.03-3.12-0.98-4.78c0.02-0.75-0.68-1.38-1.44-1.38
						C34.8,145.94,34.18,146.57,34.16,147.32L34.16,147.32z"/>
				</g>
			</g>
		</g>
		<g id="Ebene_37">
			<g class="st10">
				<g>
					<path d="M38.75,89.48c0.62,9.6,5.72,18.77,13.54,24.75c4.02,3.07,8.65,5.3,13.66,6.4c5.12,1.13,10.47,1.15,15.62,0.15
						c5.79-1.12,11.25-3.6,15.79-7.23c0.6-0.48,0.51-1.46,0-1.96c-0.59-0.57-1.44-0.48-2.04,0c-3.65,2.92-8.09,4.99-12.74,6.13
						c-4.54,1.11-9.52,1.34-14.08,0.58c-9.37-1.56-17.37-7.08-22.22-14.81c-1.39-2.22-2.41-4.35-3.21-6.75
						c-0.4-1.21-0.73-2.45-0.98-3.7c-0.26-1.28-0.38-2.23-0.47-3.57c-0.05-0.75-0.63-1.38-1.44-1.38
						C39.45,88.1,38.7,88.73,38.75,89.48L38.75,89.48z"/>
				</g>
			</g>
			<g class="st10">
				<g>
					<path d="M71.48,79.56c-0.98,1.24-1.05,3.07-0.24,4.4c0.79,1.3,2.37,2.11,3.93,2.02c0.78-0.05,1.44-0.6,1.44-1.38
						c0-0.71-0.66-1.43-1.44-1.38c-0.1,0.01-0.21,0.01-0.31,0.01c-0.06,0-0.23-0.03-0.08,0c-0.1-0.02-0.2-0.05-0.3-0.07
						c-0.04-0.01-0.22-0.09-0.09-0.03c-0.09-0.04-0.18-0.09-0.27-0.15c-0.03-0.02-0.18-0.14-0.08-0.05
						c-0.21-0.18-0.2-0.16-0.31-0.35c-0.17-0.28-0.19-0.42-0.16-0.8c0-0.02,0.04-0.23,0.07-0.3c0.04-0.1,0.21-0.37,0.33-0.51
						c0.47-0.6,0.1-1.55-0.52-1.89C72.71,78.64,71.95,78.96,71.48,79.56L71.48,79.56z"/>
				</g>
			</g>
		</g>
	</g>
	<g>
		<g id="Ebene_7_8_">
			<g>
				<path class="st11" d="M109.77,91.37c-1.38,0.48-1.72,2.39-0.58,3.25c-3.77,3.97-3.55,10.48,0.49,14.32
					c1.28,1.22,2.92,2.19,4.76,2.54c3.39,0.64,6.93-1.03,8.92-3.5c0.76-0.95,1.34-2,1.91-3.04c1.22-2.23,2.44-4.46,3.66-6.69
					c0.34-0.62,0.69-1.27,0.69-1.96c0.01-1.44-1.43-2.56-2.8-3.35c-3.37-1.93-7.2-3.23-11.15-3.79c-1.13-0.16-2.3-0.26-3.39,0
					c-1.1,0.26-2.12,0.94-2.44,1.9"/>
				<g>
					<path class="st11" d="M109.8,91.02c-1.61,0.6-2.5,2.73-1.03,3.9c0.04-0.15,0.07-0.29,0.11-0.44
						c-2.69,2.86-3.49,6.89-2.31,10.48c1.27,3.86,5.25,7.49,10.1,6.99c2.23-0.23,4.29-1.26,5.86-2.64c1.95-1.71,2.99-4.06,4.17-6.21
						c0.65-1.19,1.3-2.38,1.95-3.57c0.32-0.59,0.65-1.17,0.96-1.76c0.27-0.52,0.5-1.09,0.49-1.68c-0.03-2.09-2.55-3.36-4.34-4.27
						c-2.52-1.27-5.24-2.19-8.06-2.75c-2.44-0.49-5.43-0.96-7.39,0.75c-0.41,0.36-0.73,0.8-0.91,1.29c-0.07,0.2,0.07,0.34,0.3,0.32
						c0.24-0.02,0.52-0.23,0.59-0.43c0.76-2.13,4.06-1.66,5.95-1.34c2.66,0.45,5.24,1.24,7.66,2.33c1.11,0.5,2.21,1.05,3.21,1.7
						c0.77,0.5,1.55,1.15,1.88,1.96c0.44,1.06-0.15,2.03-0.66,2.96c-0.6,1.1-1.2,2.19-1.8,3.29c-0.61,1.11-1.21,2.22-1.82,3.33
						c-0.55,1.01-1.12,2.03-1.9,2.92c-1.21,1.38-2.91,2.46-4.84,2.89c-4.43,1.01-8.5-2.01-10.08-5.51c-1.42-3.15-1.22-6.9,0.81-9.78
						c0.25-0.35,0.52-0.68,0.82-1c0.08-0.09,0.25-0.33,0.11-0.44c-0.48-0.38-0.68-0.91-0.62-1.47c0.05-0.44,0.27-0.95,0.76-1.13
						c0.22-0.08,0.49-0.27,0.5-0.5C110.24,91,109.99,90.95,109.8,91.02L109.8,91.02z"/>
				</g>
			</g>
			<g>
				<g>
					<path class="st11" d="M111.55,111.69c0.4,0.13,1.13-0.56,0.69-0.71C111.85,110.85,111.12,111.54,111.55,111.69L111.55,111.69z"
						/>
				</g>
			</g>
			<g>
				<g>
					<path class="st11" d="M110.83,111.68c0.06,0.75,0.63,1.41,1.5,1.54c0.9,0.14,1.81-0.34,2.26-1.01
						c0.06-0.09,0.14-0.35-0.05-0.39c-0.88-0.22-1.75-0.44-2.63-0.66c-0.25-0.06-0.5,0.05-0.66,0.22c-0.09,0.09-0.29,0.43-0.03,0.49
						c0.88,0.22,1.75,0.44,2.63,0.66c-0.02-0.13-0.03-0.26-0.05-0.39c-0.59,0.87-1.98,0.04-2.04-0.75
						C111.72,110.88,110.8,111.32,110.83,111.68L110.83,111.68z"/>
				</g>
			</g>
		</g>
		<g id="Ebene_5_2_">
			<g>
				<path class="st12" d="M130.16,94.21c2.53-6.17,8.99-10.28,15.28-13.75c6.29-3.46,13.04-6.89,16.83-12.53
					c4.79-7.13,3.56-16.77-2-23.55s-14.89-10.75-24.29-11.46c-5.86-0.44-11.88,0.31-17.11,2.63c-5.23,2.31-10.78,6.69-12.78,11.54
					c-2.78,6.73,0.32,13.81,2.39,20.79c2.07,6.98,4.28,14.36,2.02,21.25c6.88-0.43,13.94,1.62,19.25,5.57"/>
				<g>
					<path class="st12" d="M130.61,94.15c2.21-5.35,7.42-9.07,12.64-12.1c5.25-3.05,10.89-5.66,15.39-9.59
						c2.14-1.86,3.94-4.02,5.17-6.45c1.13-2.24,1.74-4.67,1.88-7.12c0.28-4.94-1.31-9.97-4.43-14.1c-3.38-4.48-8.47-7.84-14.05-9.88
						c-5.71-2.09-12.03-2.89-18.15-2.29c-3.05,0.3-6.06,0.97-8.86,2.05c-2.77,1.07-5.34,2.52-7.62,4.25
						c-2.32,1.75-4.42,3.82-5.88,6.21c-1.4,2.28-2.09,4.85-2.16,7.45c-0.14,5.39,2.03,10.6,3.56,15.76
						c1.62,5.48,3.35,11.15,2.8,16.84c-0.13,1.36-0.4,2.71-0.82,4.02c-0.07,0.2,0.06,0.33,0.3,0.32c5.29-0.32,10.66,0.84,15.27,3.2
						c1.31,0.67,2.55,1.44,3.71,2.3c0.35,0.26,1.16-0.37,0.84-0.61c-4.21-3.12-9.44-5.07-14.88-5.57c-1.54-0.14-3.1-0.16-4.64-0.07
						c0.1,0.11,0.2,0.21,0.3,0.32c1.74-5.39,0.84-11.07-0.59-16.46c-0.71-2.7-1.53-5.37-2.37-8.04c-0.82-2.58-1.65-5.18-2.14-7.83
						c-0.47-2.54-0.59-5.16,0.02-7.69c0.61-2.55,2.02-4.83,3.89-6.82c3.81-4.05,9.14-7,14.94-8.25c5.89-1.27,12.24-1.05,18.08,0.46
						c5.79,1.49,11.23,4.26,15.27,8.26c3.78,3.73,6.13,8.48,6.63,13.45c0.5,4.96-0.95,9.92-4.43,13.82
						c-3.83,4.29-9.3,7.1-14.48,9.95c-5.26,2.89-10.65,6.1-14.05,10.78c-0.81,1.11-1.48,2.3-1.99,3.55c-0.08,0.2,0.07,0.34,0.3,0.32
						C130.27,94.56,130.52,94.35,130.61,94.15L130.61,94.15z"/>
				</g>
			</g>
		</g>
		<g id="Ebene_6_9_">
			<g>
				<path class="st13" d="M157.79,54.68c-1.66-5.21-5.96-11.49-11.25-14.32c-5.28-2.83-15.03-2.78-20.85-1.09
					c-8.04,2.33-13.03,11.24-13.3,18.74c-0.23,6.5,6.26,11.36,12.82,14.38c6.56,3.02,15.3,4.89,21.44,1.36
					c6.14-3.52,11.05-12.55,11.13-19.05"/>
				<g>
					<path class="st13" d="M158.25,54.44c-0.7-2.19-1.75-4.29-3.02-6.27c-1.32-2.07-2.92-4.02-4.82-5.7
						c-1.65-1.45-3.55-2.68-5.73-3.41c-2.19-0.74-4.54-1.1-6.86-1.26c-2.45-0.16-4.94-0.1-7.37,0.19c-2.14,0.26-4.32,0.67-6.29,1.48
						c-3.98,1.64-6.99,4.73-9,8.12c-1.04,1.75-1.84,3.62-2.39,5.54c-0.53,1.85-0.9,3.81-0.83,5.72c0.15,3.9,2.75,7.25,5.99,9.76
						c3.4,2.64,7.53,4.65,11.78,5.96c4.24,1.31,8.94,1.99,13.32,0.92c4.28-1.04,7.48-3.95,9.88-7.12c2.53-3.35,4.38-7.25,5.1-11.26
						c0.15-0.86,0.24-1.72,0.26-2.59c0.01-0.49-0.93-0.06-0.93,0.3c-0.05,3.77-1.48,7.53-3.43,10.83c-1.02,1.72-2.22,3.37-3.65,4.85
						c-1.28,1.32-2.77,2.54-4.51,3.37c-3.8,1.82-8.43,1.62-12.54,0.72c-4.26-0.93-8.37-2.68-11.97-4.92
						c-3.41-2.12-6.65-4.96-7.86-8.58c-0.6-1.79-0.55-3.61-0.28-5.44c0.28-1.88,0.82-3.72,1.59-5.49c1.49-3.45,3.87-6.73,7.29-8.91
						c1.61-1.03,3.44-1.69,5.38-2.09c2.21-0.46,4.5-0.69,6.78-0.72c4.43-0.07,9.29,0.44,13.02,2.77c2.06,1.28,3.79,2.96,5.26,4.75
						c1.53,1.86,2.81,3.89,3.8,6.01c0.45,0.95,0.84,1.92,1.15,2.91C157.46,55.33,158.36,54.81,158.25,54.44L158.25,54.44z"/>
				</g>
			</g>
		</g>
		<g id="Ebene_3_3_">
			<g>
				<g>
					<path d="M130.06,95.46c1.46-2.6,3.37-4.97,5.61-7.09c2.19-2.07,4.66-3.9,7.22-5.61c2.63-1.76,5.31-3.44,8.16-4.91
						c2.77-1.43,5.64-2.81,7.98-4.77c4.13-3.45,6.42-8.34,6.87-13.32c0.45-5.01-0.92-10.15-3.96-14.44
						c-3.25-4.59-8.19-8.13-13.72-10.39c-5.62-2.29-11.86-3.28-18-2.87c-6.2,0.41-12.36,2.3-17.13,5.84
						c-4.84,3.59-8.3,8.82-8.71,14.48c-0.21,2.87,0.39,5.73,1.2,8.51c0.81,2.79,1.79,5.54,2.54,8.34c1.39,5.17,2.14,10.4,2.13,15.7
						c0,1.47-0.06,2.94-0.14,4.42c-0.03,0.49,0.91,0.06,0.93-0.3c0.31-5.39,0.09-10.78-1.01-16.12c-0.54-2.64-1.25-5.25-2.07-7.84
						c-0.87-2.75-1.84-5.48-2.35-8.3c-0.51-2.78-0.46-5.6,0.4-8.32c0.84-2.65,2.32-5.11,4.28-7.23c3.9-4.22,9.49-6.87,15.52-7.93
						c5.95-1.05,12.25-0.66,18.04,1.05c5.71,1.69,11.01,4.65,14.91,8.74c3.72,3.9,5.93,8.74,6.25,13.8
						c0.3,4.83-1.06,9.83-4.36,13.71c-1.84,2.16-4.23,3.74-6.84,5.13c-1.38,0.74-2.8,1.44-4.19,2.18c-1.36,0.73-2.66,1.52-3.95,2.34
						c-5.21,3.28-10.3,6.84-13.98,11.53c-0.9,1.15-1.7,2.36-2.41,3.61C128.96,95.95,129.85,95.84,130.06,95.46L130.06,95.46z"/>
				</g>
			</g>
			<g>
				<g>
					<path d="M109.55,90.78c0.06,0.57,0.54,1.07,1.01,1.44c0.77,0.62,1.68,1.09,2.59,1.51c2.82,1.3,5.88,2.19,8.92,2.98
						c0.93,0.24,1.87,0.47,2.81,0.69c0.87,0.2,1.79,0.49,2.69,0.52c0.74,0.02,1.49-0.12,2.07-0.54c0.61-0.44,0.87-1.13,0.66-1.8
						c-0.23-0.72-0.85-1.34-1.44-1.84c-0.67-0.57-1.45-1.06-2.25-1.48c-1.71-0.9-3.57-1.6-5.46-2.17c-2.11-0.63-4.29-1.07-6.5-1.3
						c-1.02-0.11-2.17-0.28-3.18-0.07c-0.9,0.19-1.76,0.81-1.85,1.67c-0.02,0.23,0.26,0.25,0.44,0.2c0.23-0.07,0.47-0.28,0.5-0.5
						c0.07-0.72,1.09-0.72,1.71-0.69c0.9,0.04,1.8,0.13,2.69,0.24c1.82,0.23,3.62,0.61,5.37,1.12c1.67,0.49,3.31,1.1,4.87,1.85
						c1.45,0.69,2.95,1.56,3.86,2.81c0.29,0.4,0.68,1.17,0.15,1.54c-0.46,0.32-1.26,0.24-1.8,0.14c-1.73-0.32-3.44-0.77-5.13-1.22
						c-2.76-0.73-5.54-1.56-8.12-2.71c-0.92-0.41-1.86-0.87-2.65-1.47c-0.48-0.37-0.97-0.81-1.03-1.38
						c-0.02-0.23-0.42-0.12-0.55-0.06C109.7,90.35,109.52,90.55,109.55,90.78L109.55,90.78z"/>
				</g>
			</g>
			<g>
				<g>
					<path d="M110.06,90.77c-1.8,0.24-2.8,2.03-2.13,3.49c0.84,1.82,3.16,2.5,5.08,3.12c2.26,0.73,4.57,1.33,6.9,1.88
						c1.18,0.28,2.37,0.55,3.55,0.81c0.97,0.22,1.94,0.46,2.94,0.4c0.97-0.07,1.76-0.51,2.33-1.19c0.47-0.56,0.9-1.38,0.57-2.09
						c-0.19-0.41-1.08,0.13-0.92,0.47c0.23,0.48-0.01,1.02-0.33,1.41c-0.39,0.47-0.87,0.65-1.53,0.66
						c-0.86,0.01-1.72-0.22-2.55-0.41c-1-0.22-2-0.45-3-0.68c-2.01-0.47-4.01-0.98-5.98-1.57c-0.94-0.28-1.88-0.58-2.81-0.91
						c-0.87-0.31-1.76-0.67-2.44-1.25c-0.63-0.53-1.13-1.26-1.11-2.05c0.02-0.61,0.4-1.24,1.13-1.34c0.25-0.03,0.52-0.22,0.59-0.43
						C110.43,90.89,110.3,90.74,110.06,90.77L110.06,90.77z"/>
				</g>
			</g>
			<g>
				<g>
					<path d="M108.01,94.46c-0.55,0.55-0.97,1.23-1.25,1.92c-0.26,0.66-0.36,1.33-0.01,1.98c0.94,1.75,3.47,2.07,5.35,2.52
						c2.28,0.55,4.55,1.1,6.83,1.64c1.12,0.27,2.23,0.54,3.35,0.8c0.92,0.22,1.89,0.53,2.86,0.42c2.12-0.25,2.62-2.36,2.6-3.94
						c-0.01-0.5-0.94-0.06-0.93,0.3c0.01,0.66-0.04,1.33-0.29,1.95c-0.23,0.59-0.6,0.96-1.35,0.96c-0.85,0.01-1.71-0.28-2.52-0.47
						c-1.02-0.25-2.04-0.49-3.07-0.74c-2-0.48-4-0.96-5.99-1.44c-1.01-0.24-2.02-0.47-3.02-0.73c-0.88-0.23-1.78-0.54-2.42-1.15
						c-0.56-0.53-0.83-1.18-0.62-1.88c0.2-0.67,0.58-1.35,1.1-1.87c0.13-0.13,0.25-0.38,0.03-0.49
						C108.45,94.14,108.14,94.33,108.01,94.46L108.01,94.46z"/>
				</g>
			</g>
			<g>
				<g>
					<path d="M107.22,97.99c-1.18,0.69-1.74,2.19-1.57,3.41c0.23,1.68,2.71,2.11,4.22,2.46c2.37,0.55,4.74,1.09,7.1,1.64
						c1.17,0.27,2.34,0.54,3.52,0.81c0.95,0.22,1.92,0.5,2.92,0.48c1.03-0.02,1.92-0.43,2.44-1.21c0.49-0.75,0.67-1.67,0.61-2.53
						c-0.04-0.5-0.96-0.06-0.93,0.3c0.05,0.66-0.03,1.38-0.36,1.98c-0.11,0.2-0.26,0.43-0.49,0.54c-0.32,0.15-0.73,0.18-1.09,0.17
						c-0.88-0.03-1.74-0.28-2.59-0.48c-1.01-0.23-2.02-0.46-3.02-0.7c-2.04-0.47-4.08-0.94-6.12-1.41c-0.98-0.23-1.98-0.42-2.94-0.7
						c-0.76-0.22-1.7-0.56-2.14-1.2c-0.32-0.46-0.25-1.1-0.13-1.6c0.11-0.45,0.36-1.12,0.76-1.36c0.18-0.1,0.44-0.31,0.37-0.53
						C107.69,97.85,107.37,97.91,107.22,97.99L107.22,97.99z"/>
				</g>
			</g>
			<g>
				<g>
					<path d="M106.36,102.11c-1.24,0.62-1.5,2.25-0.44,3.13c0.65,0.54,1.51,0.8,2.32,1.07c0.97,0.33,1.93,0.65,2.9,0.98
						c1.93,0.65,3.86,1.31,5.79,1.96c1.66,0.56,3.44,1.33,5.24,0.88c0.85-0.21,1.6-0.71,2.01-1.41c0.47-0.8,0.53-1.71,0.42-2.61
						c-0.03-0.23-0.42-0.13-0.55-0.06c-0.22,0.11-0.39,0.31-0.37,0.53c0.08,0.67,0.07,1.41-0.27,2.02
						c-0.26,0.48-0.74,0.75-1.32,0.85c-1.55,0.27-3.18-0.49-4.6-0.97c-1.59-0.54-3.19-1.08-4.78-1.62
						c-1.58-0.53-3.18-1.02-4.73-1.61c-0.65-0.25-1.47-0.61-1.71-1.26c-0.13-0.37-0.17-1.09,0.27-1.31
						c0.18-0.09,0.44-0.32,0.37-0.53C106.84,101.96,106.52,102.03,106.36,102.11L106.36,102.11z"/>
				</g>
			</g>
			<g>
				<g>
					<path d="M107.35,105.97c-0.08,1.11,0.15,2.22,0.86,3.17c0.62,0.82,1.55,1.43,2.52,1.9c2.03,0.97,4.41,1.48,6.68,0.96
						c1.36-0.31,2.53-1.01,3.3-2.05c0.12-0.16,0.1-0.38-0.14-0.42c-0.25-0.04-0.52,0.17-0.65,0.34c-1.15,1.56-3.53,1.76-5.45,1.46
						c-1-0.16-1.95-0.49-2.85-0.91c-0.89-0.41-1.72-0.91-2.35-1.61c-0.8-0.9-1.07-2.01-0.99-3.13
						C108.32,105.19,107.37,105.61,107.35,105.97L107.35,105.97z"/>
				</g>
			</g>
			<g>
				<path class="st14" d="M110.92,110.75c-0.4,0.72,0.14,2.12,1.26,2.38c0.89,0.2,2.45-0.22,2.88-1"/>
				<g>
					<path d="M110.48,110.81c-0.49,0.98,0.2,2.4,1.4,2.69c1.25,0.29,2.97-0.32,3.58-1.32c0.1-0.16,0.11-0.37-0.14-0.42
						c-0.24-0.04-0.54,0.16-0.65,0.34c-0.38,0.63-1.65,0.88-2.37,0.61c-0.78-0.3-1.29-1.32-0.94-2.01c0.1-0.2-0.09-0.33-0.3-0.32
						C110.81,110.4,110.58,110.6,110.48,110.81L110.48,110.81z"/>
				</g>
			</g>
		</g>
		<g id="Ebene_8_9_">
			<g class="st15">
				<path class="st16" d="M112.05,89.12c-0.94-0.14-1.59,0.96-1.27,1.75c0.32,0.79,1.2,1.28,2.04,1.69
					c3.57,1.73,7.39,3.05,11.33,3.89c1.86,0.4,3.9,0.68,5.61-0.05c-6.37-1.12-13.93-2.41-17.66-7.01"/>
				<g>
					<path class="st16" d="M112.3,88.74c-1.28-0.14-2.27,1.14-2.03,2.18c0.14,0.62,0.7,1.1,1.25,1.46c0.72,0.46,1.54,0.81,2.33,1.16
						c3.38,1.51,7.01,2.71,10.71,3.41c1.71,0.32,3.56,0.46,5.18-0.21c0.22-0.09,0.83-0.63,0.28-0.72
						c-4.95-0.87-10.3-1.69-14.52-4.35c-1.14-0.72-2.16-1.59-2.98-2.59c-0.26-0.32-1.1,0.28-0.84,0.61
						c3.1,3.79,8.54,5.28,13.45,6.27c1.45,0.3,2.91,0.55,4.37,0.81c0.09-0.24,0.19-0.48,0.28-0.72c-1.24,0.51-2.61,0.49-3.94,0.29
						c-1.57-0.23-3.12-0.63-4.63-1.06c-1.6-0.46-3.16-0.99-4.7-1.6c-0.78-0.31-1.54-0.63-2.3-0.98c-0.67-0.3-1.36-0.6-1.97-0.99
						c-0.52-0.33-1.1-0.85-1.1-1.46c0-0.35,0.15-0.81,0.63-0.76C112.2,89.54,112.85,88.8,112.3,88.74L112.3,88.74z"/>
				</g>
			</g>
			<g class="st15">
				<path class="st16" d="M109.52,91.78c-0.98,0.43-1.06,1.74-0.43,2.55s1.7,1.23,2.73,1.6c4.34,1.55,8.8,2.83,13.33,3.81
					c1.17,0.25,2.65,0.39,3.31-0.48c-3.3-0.06-17.39-2.49-18.82-7.69"/>
				<g>
					<path class="st16" d="M109.43,91.48c-1.27,0.61-1.56,2.11-0.76,3.15c0.46,0.6,1.2,1.01,1.92,1.31
						c0.85,0.36,1.75,0.65,2.63,0.94c3.72,1.26,7.53,2.32,11.39,3.16c1.51,0.33,3.23,0.49,4.24-0.76c0.11-0.13,0.11-0.41-0.14-0.42
						c-0.99-0.02-1.98-0.16-2.96-0.31c-1.47-0.22-2.93-0.51-4.36-0.85c-3.05-0.73-6.25-1.71-8.8-3.42
						c-1.12-0.75-2.14-1.74-2.49-2.96c-0.12-0.41-1.02,0.1-0.92,0.47c0.7,2.46,3.68,3.96,6.1,4.93c2.97,1.2,6.17,1.98,9.37,2.5
						c1.17,0.19,2.36,0.37,3.55,0.4c-0.05-0.14-0.09-0.28-0.14-0.42c-0.26,0.32-0.84,0.35-1.24,0.34c-0.63-0.01-1.24-0.15-1.84-0.28
						c-1.7-0.38-3.38-0.79-5.06-1.25c-1.63-0.45-3.25-0.93-4.86-1.46c-0.81-0.27-1.62-0.54-2.43-0.82c-0.69-0.24-1.4-0.48-2.04-0.83
						c-0.63-0.34-1.2-0.82-1.38-1.47c-0.13-0.45-0.12-1.11,0.4-1.36c0.18-0.09,0.44-0.32,0.37-0.53
						C109.9,91.33,109.59,91.41,109.43,91.48L109.43,91.48z"/>
				</g>
			</g>
			<g class="st15">
				<path class="st16" d="M108.26,95.36c-1.17,0.31-1.34,1.85-0.58,2.71s2.03,1.21,3.21,1.5c4.09,1.02,8.17,2.03,12.26,3.05
					c1.23,0.3,2.75,0.54,3.58-0.29c-5.35-0.86-17.47-2.71-18.1-7.37"/>
				<g>
					<path class="st16" d="M108.29,95.02c-1.29,0.38-1.85,1.72-1.37,2.82c0.6,1.38,2.46,1.81,3.9,2.17
						c3.92,0.98,7.85,1.95,11.77,2.92c1.53,0.38,3.25,0.67,4.45-0.46c0.16-0.15,0.26-0.46-0.06-0.51c-2.74-0.44-5.48-0.9-8.17-1.55
						c-1.48-0.36-2.94-0.77-4.36-1.3c-1.22-0.46-2.45-1-3.49-1.74c-0.94-0.68-1.72-1.55-1.88-2.64c-0.06-0.4-0.97,0.09-0.92,0.47
						c0.31,2.19,2.88,3.53,4.93,4.36c2.85,1.16,5.95,1.84,9.01,2.41c1.45,0.27,2.91,0.51,4.36,0.74c-0.02-0.17-0.04-0.34-0.06-0.51
						c-0.34,0.32-0.9,0.35-1.37,0.32c-0.65-0.03-1.28-0.18-1.9-0.34c-1.67-0.42-3.34-0.83-5.02-1.25c-1.7-0.42-3.39-0.84-5.09-1.26
						c-0.8-0.2-1.6-0.38-2.39-0.6c-0.68-0.18-1.38-0.4-1.96-0.78c-0.55-0.36-0.95-0.86-1.01-1.47c-0.04-0.41,0.04-0.97,0.54-1.12
						c0.22-0.07,0.49-0.28,0.5-0.5C108.73,94.98,108.48,94.96,108.29,95.02L108.29,95.02z"/>
				</g>
			</g>
			<g class="st15">
				<path class="st16" d="M107.11,99.19c-0.81,0.5-0.9,1.62-0.38,2.37c0.52,0.76,1.49,1.19,2.46,1.4c0.97,0.2,1.98,0.21,2.97,0.33
					c2.28,0.27,4.42,1.1,6.62,1.72c2.19,0.62,4.58,1.02,6.76,0.41c-4.26-0.64-15.59-2.15-18.41-6.3"/>
				<g>
					<path class="st16" d="M106.9,98.96c-1.1,0.73-1.26,2.15-0.42,3.11c0.97,1.12,2.67,1.35,4.14,1.47
						c0.87,0.07,1.72,0.15,2.57,0.32c0.89,0.18,1.76,0.43,2.62,0.69c1.55,0.47,3.08,0.99,4.68,1.29c1.67,0.31,3.39,0.36,5.02-0.08
						c0.25-0.07,0.81-0.65,0.28-0.72c-2.43-0.36-4.86-0.73-7.25-1.24c-2.77-0.59-5.61-1.33-8.08-2.63c-1.14-0.6-2.22-1.35-2.91-2.36
						c-0.22-0.32-1.08,0.26-0.84,0.61c1.34,1.94,3.98,3.02,6.29,3.8c2.76,0.92,5.65,1.51,8.54,2c1.24,0.21,2.49,0.39,3.74,0.58
						c0.09-0.24,0.19-0.48,0.28-0.72c-2.75,0.75-5.67-0.16-8.28-0.97c-1.46-0.45-2.93-0.91-4.46-1.13c-1.45-0.21-3.02-0.1-4.38-0.7
						c-0.63-0.28-1.24-0.72-1.46-1.34c-0.19-0.5-0.17-1.17,0.34-1.51c0.15-0.1,0.36-0.36,0.21-0.53
						C107.37,98.71,107.05,98.87,106.9,98.96L106.9,98.96z"/>
				</g>
			</g>
			<g class="st15">
				<path class="st16" d="M106.61,102.45c-0.7,0.59-0.5,1.68,0.15,2.33c0.65,0.64,1.62,0.95,2.54,1.23
					c3.24,0.99,6.49,1.98,9.73,2.97c1.55,0.47,3.4,0.92,4.71,0.07c-6.22-0.68-13-2.53-17.29-6.65"/>
				<g>
					<path class="st16" d="M106.29,102.32c-0.9,0.82-0.69,2.15,0.22,2.92c0.53,0.44,1.19,0.72,1.86,0.94
						c0.78,0.26,1.57,0.49,2.36,0.73c1.62,0.5,3.24,0.99,4.87,1.49c1.46,0.45,2.91,0.96,4.41,1.3c1.37,0.31,2.76,0.32,3.94-0.42
						c0.19-0.12,0.44-0.56,0.04-0.6c-4.87-0.54-9.84-1.71-13.97-4.18c-1.15-0.69-2.22-1.49-3.16-2.4c-0.31-0.29-1.14,0.32-0.84,0.61
						c3.47,3.3,8.34,5.1,13.21,6.07c1.4,0.28,2.82,0.49,4.24,0.65c0.01-0.2,0.03-0.4,0.04-0.6c-0.82,0.51-2,0.34-2.91,0.14
						c-1.31-0.28-2.57-0.74-3.84-1.13c-1.44-0.44-2.88-0.88-4.32-1.32c-0.73-0.22-1.46-0.45-2.19-0.67
						c-0.63-0.19-1.27-0.37-1.88-0.62c-0.63-0.26-1.25-0.63-1.56-1.21c-0.23-0.45-0.32-1.05,0.09-1.43
						c0.13-0.12,0.25-0.38,0.03-0.49C106.73,101.99,106.43,102.19,106.29,102.32L106.29,102.32z"/>
				</g>
			</g>
			<g class="st15">
				<path class="st16" d="M107.9,106.23c0.66,1.86,2.19,3.48,4.15,4.38c1.96,0.9,4.33,1.07,6.41,0.47
					c-3.79-0.67-7.34-2.46-9.93-5.01"/>
				<g>
					<path class="st16" d="M107.45,106.47c0.68,1.88,2.18,3.51,4.16,4.45c2.09,1,4.6,1.14,6.83,0.51c0.26-0.07,0.81-0.63,0.28-0.72
						c-3.74-0.67-7.2-2.43-9.77-4.94c-0.3-0.3-1.13,0.32-0.84,0.61c2.66,2.6,6.23,4.38,10.1,5.08c0.09-0.24,0.19-0.48,0.28-0.72
						c-2.07,0.58-4.39,0.37-6.29-0.57c-1.82-0.9-3.21-2.42-3.84-4.17C108.21,105.59,107.32,106.11,107.45,106.47L107.45,106.47z"/>
				</g>
			</g>
			<g class="st15">
				<path class="st16" d="M111.12,110.89c-0.1,0.66,0.23,1.36,0.83,1.76c0.6,0.4,1.45,0.5,2.14,0.23c-1.09-0.45-1.98-1.29-2.42-2.29
					"/>
				<g>
					<path class="st16" d="M110.65,111.04c-0.09,0.74,0.24,1.48,0.92,1.94c0.71,0.48,1.68,0.54,2.49,0.25
						c0.2-0.07,0.78-0.53,0.38-0.7c-1.04-0.45-1.87-1.22-2.3-2.17c-0.19-0.41-1.08,0.12-0.92,0.47c0.48,1.05,1.37,1.91,2.53,2.41
						c0.13-0.23,0.25-0.47,0.38-0.7c-1.33,0.47-2.68-0.59-2.53-1.8c0.03-0.23-0.26-0.25-0.44-0.2
						C110.92,110.61,110.68,110.81,110.65,111.04L110.65,111.04z"/>
				</g>
			</g>
		</g>
		<g id="Ebene_4_2_">
			<g>
				<g>
					<path d="M112.19,89.29c4.33-2.62,8.61-5.32,12.76-8.17c4.16-2.86,8.19-5.87,11.98-9.1c3.75-3.19,7.35-6.58,10.46-10.28
						c1.56-1.85,3.03-3.99,3.17-6.37c0.11-1.8-0.66-3.79-2.28-4.96c-1.7-1.23-3.93-1.19-5.81-0.36c-2.22,0.99-3.57,2.93-4.36,4.95
						c-0.22,0.55-0.4,1.12-0.56,1.68c-0.15,0.53,0.68,0.26,0.84-0.02c1.09-1.93,2.26-4,2.04-6.24c-0.18-1.82-1.32-3.58-3.39-4.14
						c-2.07-0.56-4.32,0.02-6.03,1.07c-1.85,1.14-3.19,2.8-4.05,4.63c-1.93,4.09-1.27,8.72-0.88,13.04c0.42,4.6,0.93,9.2,1.34,13.8
						c0.41,4.58,0.72,9.17,0.68,13.76c-0.01,0.56-0.01,1.11-0.03,1.67c-0.01,0.49,0.92,0.06,0.93-0.3c0.12-4.36-0.1-8.72-0.45-13.07
						c-0.35-4.39-0.83-8.77-1.26-13.15c-0.21-2.15-0.42-4.3-0.58-6.46c-0.16-2.19-0.22-4.4,0.2-6.56c0.68-3.44,3.12-7.46,7.49-7.86
						c0.99-0.09,2,0.05,2.87,0.5c0.86,0.44,1.49,1.17,1.84,1.98c0.84,1.92,0.23,3.93-0.68,5.72c-0.26,0.52-0.55,1.03-0.84,1.54
						c0.28-0.01,0.56-0.01,0.84-0.02c0.58-2.01,1.41-4.16,3.35-5.45c1.57-1.04,3.72-1.28,5.4-0.26c1.65,1,2.48,2.92,2.44,4.63
						c-0.05,2.25-1.44,4.29-2.91,6.03c-2.96,3.52-6.37,6.77-9.93,9.82c-3.58,3.07-7.37,5.93-11.28,8.66c-3.9,2.72-7.92,5.3-12,7.8
						c-0.5,0.31-1,0.61-1.5,0.91c-0.18,0.11-0.45,0.31-0.37,0.53C111.71,89.44,112.04,89.39,112.19,89.29L112.19,89.29z"/>
				</g>
			</g>
			<g>
				<g>
					<path d="M156.79,48.6c2.32,3.44,2.91,7.72,1.55,11.51c-0.07,0.2,0.07,0.34,0.3,0.32c0.24-0.02,0.52-0.23,0.59-0.43
						c1.42-3.97,0.83-8.4-1.6-12C157.41,47.66,156.56,48.24,156.79,48.6L156.79,48.6z"/>
				</g>
			</g>
			<g>
				<g>
					<path d="M111.73,50.01c-1.71,3.27-2.2,7.01-1.45,10.58c0.22,1.02,0.54,2.02,0.96,2.99c0.18,0.41,1.07-0.12,0.92-0.47
						c-1.43-3.31-1.68-6.99-0.67-10.41c0.28-0.96,0.67-1.9,1.14-2.8c0.1-0.2-0.09-0.33-0.3-0.32
						C112.05,49.6,111.84,49.81,111.73,50.01L111.73,50.01z"/>
				</g>
			</g>
		</g>
	</g>
</g>
<g id="Ebene_9_6_">
</g>
<g id="Ebene_3">
</g>
</svg>
