<?xml version="1.0" encoding="utf-8"?>
<!-- Generator: Adobe Adobe Illustrator 24.2.0, SVG Export Plug-In . SVG Version: 6.00 Build 0)  -->
<svg version="1.1" xmlns="http://www.w3.org/2000/svg" xmlns:xlink="http://www.w3.org/1999/xlink" x="0px" y="0px"
	 viewBox="0 0 170.08 170.08" style="enable-background:new 0 0 170.08 170.08;" xml:space="preserve">
<style type="text/css">
	.st0{fill:#D2E0EC;}
	.st1{fill:#D2E1EC;}
	.st2{opacity:0.149;}
	.st3{fill:#FFFFFF;}
	.st4{stroke:#000000;stroke-miterlimit:10;}
	.st5{fill:#FFFFFF;stroke:#FFFFFF;stroke-width:0.4071;stroke-miterlimit:10;}
	.st6{opacity:0.7804;fill:#DB9886;stroke:#DB9886;stroke-width:0.3912;stroke-miterlimit:10;}
	.st7{opacity:0.6902;fill:#DB9886;stroke:#DB9886;stroke-width:0.3912;stroke-miterlimit:10;}
	.st8{fill:#ECC9AD;}
	.st9{opacity:0.1608;}
	.st10{opacity:0.1686;}
	.st11{fill:#F0F6FA;}
	.st12{opacity:0.0314;}
	.st13{stroke:#000000;stroke-width:0.0661;stroke-miterlimit:10;}
	.st14{fill:#D15238;}
	.st15{fill:#D15239;}
	.st16{fill:#C8354F;}
	.st17{fill:#C93550;}
	.st18{fill:#6DB671;}
	.st19{fill:#6CB671;}
	.st20{fill:#D1DFEA;}
	.st21{fill:#D3E1ED;}
	.st22{fill:#C8354E;}
	.st23{fill:#F3C058;}
	.st24{fill:#C8AE9D;}
	.st25{opacity:0.0784;}
	.st26{opacity:0.1412;}
</style>
<g id="Ebene_4_5_">
</g>
<g id="Ebene_8_7_">
	<g>
		<g id="Ebene_5_8_">
			<g>
				<g>
					<path class="st0" d="M80.07,35.99c-31.77,0.48-64.7-3.19-68.53,49.61c-1.1,15.11-2.07,50.63,5.45,56.98
						c3.31,2.79,8.14,2.91,12.55,2.89c32.42-0.14,64.83-0.28,97.25-0.42c6.46-0.03,17.76,0.48,22.61-13.44
						c3.24-9.28,3.47-37.97,1.87-52.29c-4.74-42.27-35.4-45.62-71.57-43.34"/>
					<g>
						<path d="M80.24,35.06c-6.09,0.09-12.19,0.03-18.28,0.25c-5.75,0.21-11.54,0.66-17.17,1.91c-5.32,1.18-10.48,3.11-14.98,6.16
							c-4.92,3.33-8.76,7.89-11.51,12.97c-3.71,6.86-5.6,14.5-6.65,22.07c-0.96,6.97-1.24,14.03-1.42,21.04
							c-0.19,7.43-0.16,14.88,0.39,22.28c0.25,3.39,0.61,6.78,1.21,10.12c0.48,2.65,1.1,5.32,2.17,7.8c0.98,2.26,2.37,4,4.69,5.14
							c4.13,2.03,9.25,1.6,13.78,1.58c11.9-0.05,23.8-0.1,35.7-0.15c11.95-0.05,23.9-0.1,35.84-0.15
							c5.93-0.03,11.85-0.05,17.77-0.08c3.48-0.02,7.01,0.12,10.49-0.18c3.05-0.27,6.11-0.99,8.79-2.5
							c3.37-1.91,5.87-4.88,7.54-8.23c2.89-5.82,3.34-12.47,3.79-18.76c0.56-7.89,0.64-15.8,0.42-23.69
							c-0.21-7.37-0.63-14.8-2.22-22c-1.48-6.7-3.99-13.29-8.18-18.85c-3.51-4.67-8.09-8.42-13.42-11.09
							c-5.47-2.73-11.53-4.28-17.64-5.14c-6.81-0.96-13.75-1.13-20.65-0.97c-3.61,0.08-7.21,0.26-10.81,0.49
							c-0.78,0.05-1.24,1.91-0.33,1.86c7.13-0.45,14.28-0.71,21.41-0.41c6.4,0.28,12.81,1.03,18.94,2.78
							c5.58,1.59,10.88,4.05,15.32,7.64c4.78,3.86,8.33,8.86,10.76,14.35c2.98,6.72,4.32,14.04,4.94,21.32
							c0.62,7.36,0.76,14.78,0.65,22.18c-0.1,7.1-0.36,14.28-1.5,21.32c-0.46,2.88-1.07,5.48-2.39,8.15
							c-1.6,3.23-4.04,6.04-7.39,7.72c-2.64,1.32-5.57,1.87-8.5,2.05c-3.65,0.23-7.34,0.11-10.99,0.12
							c-11.7,0.05-23.41,0.1-35.11,0.15c-11.7,0.05-23.41,0.1-35.11,0.15c-5.83,0.03-11.65,0.05-17.48,0.08
							c-4.53,0.02-9.62,0.48-13.75-1.55c-2.23-1.09-3.44-2.85-4.33-5.02c-1.02-2.47-1.57-5.12-2.02-7.74
							c-1.17-6.86-1.44-13.88-1.53-20.84c-0.08-6.78,0.1-13.57,0.49-20.35c0.45-7.75,1.29-15.55,3.63-23.06
							c1.85-5.91,4.64-11.62,8.97-16.29c3.58-3.84,8.12-6.7,13.09-8.6c5.11-1.95,10.56-2.89,15.99-3.42
							c5.83-0.56,11.68-0.64,17.52-0.68c2.91-0.02,5.82-0.03,8.74-0.08C80.68,36.91,81.16,35.05,80.24,35.06L80.24,35.06z"/>
					</g>
				</g>
				<g>
					<g>
						<path d="M79.45,28.4c-0.01,2.63-0.02,5.26-0.03,7.9c0,0.37,0.24,0.74,0.66,0.57c0.43-0.17,0.65-0.79,0.66-1.19
							c0.01-2.63,0.02-5.26,0.03-7.9c0-0.37-0.24-0.74-0.66-0.57C79.67,27.38,79.45,28,79.45,28.4L79.45,28.4z"/>
					</g>
				</g>
				<g>
					<path d="M81.89,13.7c4.02-0.23,6.94,5.28,5.98,8.78c-0.97,3.5-4.98,5.96-8.59,5.26s-6.25-4.44-5.65-8.01
						c0.6-3.57,4.35-6.41,8.02-6.07"/>
					<g>
						<path d="M81.72,14.63c2.52-0.1,4.31,2.07,5.13,4.1c0.91,2.24,0.64,4.59-1.3,6.32c-2.13,1.9-5.32,2.49-7.85,1.1
							c-2.37-1.31-4.03-4.2-3.37-6.86c0.74-2.98,4.07-4.93,7.14-4.69c0.75,0.06,1.26-1.79,0.33-1.86c-3.56-0.27-6.88,2.12-8.25,5.19
							c-1.4,3.15-0.52,6.88,2.11,9.12c2.68,2.28,6.48,2.19,9.39,0.2c2.82-1.93,4.16-5.23,3.43-8.41c-0.67-2.89-2.95-6.2-6.44-6.07
							C81.28,12.8,80.81,14.66,81.72,14.63L81.72,14.63z"/>
					</g>
				</g>
				<g>
					<path d="M31.26,145.47c-6.72-4.4-11.69-9.55-12.41-24.54c-0.58-12.1-0.08-26.02,1.81-38.04c1.2-7.61,3.99-13.92,9.37-19.63
						c6.33-6.71,16.38-8.35,25.62-9.09c18.51-1.49,37.09-1.03,55.59,0.04c7.07,0.41,17.72,4.27,22.53,9.26
						c7.82,8.12,9.37,44.02,5.98,64.76c-0.98,6-4.74,11.95-9.58,15.83"/>
					<g>
						<path d="M31.73,144.63c-2.51-1.65-4.88-3.5-6.74-5.82c-2.2-2.74-3.53-6.03-4.33-9.4c-1.15-4.87-1.25-9.91-1.34-14.9
							c-0.09-5.38,0.02-10.77,0.34-16.15c0.32-5.27,0.83-10.55,1.68-15.77c0.73-4.47,2.12-8.84,4.49-12.8c2.4-4,5.65-7.66,9.89-9.97
							c4.46-2.43,9.54-3.53,14.55-4.19c5.65-0.74,11.37-1.01,17.05-1.23c6.04-0.23,12.08-0.29,18.11-0.22
							c6.04,0.07,12.07,0.27,18.1,0.56c2.86,0.14,5.75,0.19,8.59,0.48c2.2,0.23,4.37,0.71,6.49,1.31c4.52,1.3,9.05,3.19,12.73,6.03
							c1.11,0.86,2.16,1.81,2.94,2.95c0.67,0.99,1.2,2.06,1.67,3.15c1.19,2.81,1.93,5.81,2.54,8.79c0.75,3.72,1.25,7.48,1.6,11.26
							c0.78,8.42,0.9,16.93,0.47,25.39c-0.2,3.88-0.52,7.76-1.05,11.63c-0.28,2.02-0.58,4.03-1.25,5.97
							c-0.79,2.28-1.94,4.46-3.38,6.43c-1.38,1.91-3.01,3.64-4.87,5.14c-0.36,0.29-0.58,0.86-0.46,1.29c0.1,0.4,0.46,0.53,0.81,0.25
							c3.98-3.21,7.05-7.47,8.82-12.12c1.47-3.87,1.81-8.09,2.2-12.15c0.82-8.65,0.96-17.35,0.51-26c-0.4-7.72-1.14-15.6-3.29-23.04
							c-0.74-2.57-1.65-5.2-3.17-7.43c-2.09-3.06-5.64-5.1-9-6.7c-4.25-2.01-8.95-3.51-13.71-4c-2.87-0.29-5.79-0.36-8.68-0.49
							c-3.09-0.15-6.17-0.27-9.26-0.37c-12.49-0.39-25.01-0.33-37.5,0.61c-5.22,0.39-10.46,0.95-15.5,2.46
							c-5,1.5-9.4,4.05-12.82,7.89c-3.15,3.54-5.55,7.63-7.07,12.02c-1.69,4.85-2.29,9.97-2.82,15.01
							c-0.59,5.54-0.91,11.1-1.03,16.66c-0.11,5.45-0.12,10.94,0.33,16.37c0.36,4.33,1.13,8.7,3.01,12.66
							c1.36,2.86,3.36,5.39,5.83,7.46c1.14,0.96,2.36,1.82,3.61,2.64C31.54,146.8,32.35,145.05,31.73,144.63L31.73,144.63z"/>
					</g>
				</g>
				<g>
					<path class="st0" d="M46.88,75.97c-0.19,5.21-0.23,10.43-0.13,15.64c0.03,1.38,0.09,2.85,0.89,3.97
						c1.29,1.8,3.88,2.02,6.15,2.07c1.79,0.04,3.74,0.04,5.18-1.02c2.07-1.53,2.18-4.46,2.08-6.97c-0.15-3.89-0.3-7.78-0.45-11.67
						c-0.07-1.93-0.21-4.03-1.51-5.47c-1.74-1.92-4.8-1.88-7.45-1.69c-1.32,0.1-2.75,0.23-3.77,1.07s-1.04,2.85-1.04,4.57"/>
					<g>
						<path d="M46.23,76.28c-0.11,3.02-0.17,6.04-0.18,9.06c-0.01,1.55,0,3.11,0.02,4.66c0.02,1.4-0.04,2.84,0.21,4.22
							c0.43,2.4,2.2,3.76,4.64,4.16c1.13,0.18,2.3,0.22,3.45,0.23c1.35,0.01,2.77-0.09,3.99-0.71c2.13-1.07,3.04-3.37,3.28-5.52
							c0.29-2.65-0.01-5.37-0.12-8.02c-0.11-2.91-0.06-5.87-0.41-8.76c-0.28-2.35-1.36-4.49-3.81-5.32
							c-1.21-0.41-2.55-0.48-3.83-0.45c-1.39,0.03-2.86,0.07-4.2,0.48c-3.01,0.93-3.1,3.94-3.11,6.47c0,0.37,0.24,0.74,0.66,0.57
							c0.43-0.17,0.65-0.79,0.66-1.19c0-0.95-0.05-1.98,0.23-2.91c0.29-0.95,1.48-1.21,2.38-1.35c1.97-0.3,4.25-0.44,6.17,0.08
							c2.27,0.62,3.3,2.37,3.56,4.53c0.31,2.51,0.25,5.09,0.34,7.62c0.09,2.43,0.29,4.88,0.24,7.32c-0.03,1.73-0.28,3.76-2.06,4.68
							c-1.04,0.53-2.26,0.6-3.41,0.61c-1.06,0.01-2.13-0.02-3.17-0.17c-2.19-0.31-3.9-1.3-4.25-3.52c-0.21-1.33-0.13-2.73-0.15-4.08
							c-0.02-1.46-0.02-2.93-0.02-4.39c0.01-2.97,0.07-5.95,0.18-8.92c0.01-0.37-0.25-0.73-0.66-0.57
							C46.44,75.26,46.24,75.88,46.23,76.28L46.23,76.28z"/>
					</g>
				</g>
				<g>
					<path class="st0" d="M99.36,80.06c-0.02,5.73-2.28,13.5,1.43,15.41c2.02,1.04,12.77,1.61,12.93-1.45
						c1.05-19.83,3.34-24.2-7.87-24.03c-2.05,0.03-4.09-0.26-5.29,1.39c-1.19,1.65-1.11,5.83-1.12,8.8"/>
					<g>
						<path d="M98.7,80.37c-0.03,3.6-0.85,7.19-0.68,10.79c0.11,2.39,0.78,4.94,3.48,5.57c2.43,0.57,5.13,0.64,7.62,0.4
							c2.01-0.2,4.84-0.73,5.23-3.05c0.16-0.95,0.12-1.96,0.18-2.92c0.06-0.98,0.12-1.95,0.19-2.93c0.11-1.66,0.24-3.33,0.35-4.99
							c0.16-2.43,0.36-4.9,0.19-7.33c-0.11-1.55-0.34-3.23-1.29-4.53c-0.85-1.16-2.19-1.76-3.63-2.04c-0.95-0.18-1.93-0.25-2.9-0.27
							c-1.58-0.04-3.36-0.2-4.9,0.19c-3.73,0.95-3.68,5.67-3.74,8.57c-0.02,0.89-0.01,1.78-0.02,2.67c0,0.37,0.24,0.74,0.66,0.57
							c0.43-0.17,0.65-0.79,0.66-1.19c0.01-1.66-0.02-3.34,0.13-5c0.1-1.13,0.16-2.78,1.29-3.47c1.31-0.8,3.39-0.49,4.86-0.49
							c0.9,0,1.81,0.03,2.7,0.16c1.29,0.18,2.59,0.53,3.49,1.44c0.86,0.86,1.16,2.1,1.31,3.33c0.24,1.94,0.11,4.01,0,5.99
							c-0.17,3.04-0.42,6.08-0.61,9.13c-0.06,0.88-0.11,1.75-0.16,2.63c-0.01,0.2-0.1,0.56-0.04,0.75c-0.02-0.06,0.09-0.27,0-0.1
							c0.06-0.12,0.04-0.05-0.04,0c-0.76,0.52-1.62,0.74-2.53,0.89c-2.32,0.38-4.79,0.32-7.1-0.01c-0.88-0.13-1.91-0.25-2.61-0.79
							c-1.08-0.82-1.35-2.26-1.43-3.51c-0.24-3.69,0.64-7.38,0.67-11.07c0-0.37-0.24-0.73-0.66-0.57
							C98.92,79.34,98.7,79.97,98.7,80.37L98.7,80.37z"/>
					</g>
				</g>
				<g>
					<path class="st1" d="M56.66,103.49c14.71-0.01,30.22-0.42,44.93-0.43c1.07,0,2.3,0.08,2.9,0.92c0.51,0.72,0.35,1.71,0.11,2.57
						c-2.94,10.75-14.34,18.8-25.65,18.12c-11.31-0.68-21.26-10.02-22.4-21.02"/>
					<g>
						<path d="M56.49,104.42c9.24-0.01,18.49-0.16,27.74-0.29c4.62-0.06,9.23-0.11,13.85-0.13c1.12,0,2.23-0.02,3.34-0.01
							c0.77,0,1.76,0.01,2.35,0.55c0.73,0.67,0.29,1.79,0.04,2.6c-0.26,0.82-0.56,1.63-0.92,2.41c-2.65,5.79-7.92,10.39-14.04,12.69
							c-6.43,2.42-13.48,1.87-19.38-1.35c-6.7-3.66-11.48-10.35-12.28-17.75c-0.05-0.43-0.5-0.48-0.81-0.25
							c-0.4,0.3-0.51,0.85-0.46,1.29c0.76,6.95,4.9,13.33,10.83,17.3c5.88,3.93,13.22,5.21,20.22,3.15
							c6.8-1.99,12.71-6.71,16.07-12.71c0.85-1.53,1.55-3.14,2.04-4.81c0.5-1.71,0.87-4.08-1.33-4.77
							c-0.89-0.28-1.89-0.21-2.81-0.21c-1.21,0-2.42,0.01-3.63,0.01c-2.44,0.01-4.89,0.04-7.33,0.06
							c-9.84,0.11-19.68,0.3-29.51,0.34c-1.21,0.01-2.42,0.01-3.62,0.01C56.06,102.56,55.57,104.42,56.49,104.42L56.49,104.42z"/>
					</g>
				</g>
				<g class="st2">
					<path d="M57.84,105.26c3.24,5.14,8.37,8.92,13.93,11.57s13.88,5.26,20.89,5.15c-6.53,2.02-17.19,1.97-23.04-1.32
						c-5.86-3.29-11.61-10.06-13.01-16.54"/>
					<g>
						<path d="M57.26,105.96c5.52,8.66,15.94,13.59,26.03,15.88c3,0.68,6.09,1.11,9.19,1.07c0.05-0.6,0.11-1.21,0.16-1.81
							c-5.36,1.64-11.53,1.76-16.95,0.66c-2.62-0.53-5.04-1.45-7.22-2.92c-2.57-1.72-4.82-3.87-6.71-6.26
							c-2.1-2.65-3.79-5.69-4.53-8.97c-0.09-0.41-0.47-0.5-0.81-0.25c-0.37,0.27-0.56,0.87-0.46,1.29
							c1.34,6.02,5.59,11.47,10.6,15.18c2.25,1.66,4.7,2.87,7.48,3.54c2.94,0.71,6.03,0.96,9.07,0.91c3.22-0.06,6.46-0.47,9.55-1.41
							c0.61-0.19,1.05-1.82,0.16-1.81c-5.4,0.06-10.78-1.27-15.77-3.08c-4.71-1.7-9.21-3.97-13.01-7.12
							c-2.2-1.82-4.12-3.91-5.63-6.29C57.88,103.73,56.88,105.35,57.26,105.96L57.26,105.96z"/>
					</g>
				</g>
				<g class="st2">
					<path d="M47.58,72.22c-0.78,8.59,4.25,18.79,11.39,23.71c-3.53-1-7.99,1.57-10.79-0.74c-1.5-1.24-1.77-3.37-1.86-5.3
						c-0.26-5.52,0.06-11.08,0.97-16.55"/>
					<g>
						<path d="M46.92,72.52c-0.62,7.24,2.38,14.7,7.11,20.18c1.31,1.52,2.8,2.89,4.47,4.06c0.27-0.58,0.53-1.17,0.8-1.75
							c-1.75-0.46-3.56-0.18-5.34,0.05c-1.68,0.22-3.65,0.48-5.09-0.53c-1.75-1.24-1.84-3.57-1.92-5.48
							c-0.1-2.45-0.08-4.9,0.05-7.36c0.15-2.82,0.47-5.63,0.92-8.42c0.05-0.33-0.01-0.88-0.47-0.86c-0.45,0.02-0.75,0.65-0.8,1
							c-0.85,5.2-1.21,10.47-1.03,15.72c0.07,2.12,0.09,4.55,1.5,6.29c1.19,1.47,3.08,1.79,4.94,1.66c2.18-0.15,4.42-0.81,6.58-0.24
							c0.73,0.19,1.36-1.36,0.8-1.75c-5.8-4.04-9.66-10.68-10.9-17.42c-0.35-1.9-0.46-3.83-0.29-5.77c0.03-0.38-0.26-0.73-0.66-0.57
							C47.12,71.51,46.96,72.12,46.92,72.52L46.92,72.52z"/>
					</g>
				</g>
				<g class="st2">
					<path d="M101.43,72.34c0.48,8.41,4.49,16.52,10.9,22.06c-2.12,0.46-4.28,0.93-6.43,0.73c-2.15-0.2-4.46,0.39-5.53-1.43
						c-1.03-1.75-0.42-6.39-0.24-8.42c0.45-4.93,0.59-8.96,1.04-13.89"/>
					<g>
						<path d="M100.77,72.65c0.53,8.59,4.47,16.82,11.09,22.58c0.21-0.59,0.42-1.18,0.63-1.76c-1.33,0.29-2.66,0.58-4.01,0.71
							c-1.21,0.12-2.39-0.01-3.6-0.03c-1.71-0.02-3.74,0.07-4.22-1.86c-0.44-1.73-0.22-3.66-0.06-5.42c0.2-2.22,0.4-4.45,0.56-6.68
							c0.2-2.96,0.38-5.92,0.64-8.87c0.03-0.33,0.01-0.88-0.47-0.86c-0.43,0.02-0.77,0.66-0.8,1c-0.47,5.24-0.74,10.49-1.22,15.72
							c-0.18,1.97-0.39,4.05,0.04,5.99c0.18,0.81,0.53,1.62,1.24,2.12c0.78,0.56,1.75,0.66,2.7,0.69c1.29,0.04,2.62,0.14,3.92,0.1
							c1.67-0.06,3.32-0.41,4.95-0.77c0.63-0.14,1.17-1.3,0.63-1.76c-6.3-5.49-10.2-13.33-10.71-21.53
							C102.01,70.78,100.72,71.82,100.77,72.65L100.77,72.65z"/>
					</g>
				</g>
				<g class="st2">
					<path d="M30.54,44.7c-17.59,31.23-19.34,69.76-1.58,100.23c-3.81,2.26-8.97,0.48-11.74-2.82
						c-6.27-7.48-13.84-65.58,10.23-96.55"/>
					<g>
						<path d="M30.07,44.28c-6.91,12.29-11.47,25.75-13.32,39.5c-1.83,13.6-1.05,27.5,2.67,40.65c2.09,7.39,5.09,14.51,8.96,21.18
							c0.19-0.53,0.38-1.05,0.57-1.58c-2.32,1.33-5.05,1.15-7.41,0.11c-1.18-0.52-2.25-1.25-3.16-2.14
							c-0.29-0.28-0.56-0.58-0.81-0.89c0.1,0.13-0.13-0.18-0.17-0.24c-0.91-1.37-1.46-2.95-1.93-4.43
							c-1.71-5.37-2.56-11.03-3.13-16.61c-0.79-7.69-0.95-15.45-0.52-23.19c0.47-8.45,1.66-16.93,3.92-25.16
							c2.2-8.01,5.4-15.92,10.23-22.88c0.58-0.84,1.18-1.65,1.81-2.46c0.26-0.34,0.48-0.92,0.25-1.31c-0.23-0.38-0.67-0.21-0.9,0.09
							c-5.38,6.95-9.09,14.94-11.64,23.16c-2.64,8.5-4.1,17.29-4.78,26.09c-0.62,8.08-0.58,16.21,0.13,24.27
							c0.53,6.06,1.35,12.18,3.06,18.03c0.52,1.79,1.11,3.61,2.03,5.25c1.77,3.13,5.7,5.31,9.46,5.13c1.26-0.06,2.49-0.43,3.58-1.05
							c0.49-0.28,0.86-1.07,0.57-1.58c-6.78-11.66-10.82-24.71-12.01-38.08c-1.2-13.35,0.33-26.95,4.36-39.87
							c2.28-7.32,5.34-14.41,9.13-21.16c0.18-0.32,0.36-0.97,0.01-1.25C30.65,43.59,30.24,43.99,30.07,44.28L30.07,44.28z"/>
					</g>
				</g>
				<g class="st2">
					<g>
						<path d="M97.03,73.93c0.77-0.16,1.18-2.03,0.33-1.86C96.59,72.23,96.18,74.1,97.03,73.93L97.03,73.93z"/>
					</g>
				</g>
				<g class="st2">
					<g>
						<path class="st3" d="M103.68,45.28c2.34,0.21,4.68,0.43,7,0.73c1.17,0.15,2.34,0.32,3.5,0.52c0.54,0.09,1.09,0.19,1.63,0.29
							c0.76,0.15,0.69,0.13,1.48,0.31c4.32,0.99,8.52,2.49,12.07,5.02c8.66,6.19,10.72,16.89,11.35,26.7
							c0.42,6.45,0.39,12.97,1.68,19.32c0.08,0.41,0.81,0.54,1.12,0.58c0.75,0.1,1.66,0.01,2.4-0.15c0.78-0.17,1.58-0.39,2.27-0.8
							c0.32-0.19,0.9-0.54,0.81-0.97c-2.22-11.01-0.49-22.59-4.08-33.35c-1.56-4.69-4.19-9.11-8.14-12.32
							c-3.58-2.9-8-4.76-12.52-5.93c-5.28-1.38-10.75-1.96-16.21-2.45c-1.54-0.13-3.32,0.15-4.66,0.95
							c-0.32,0.19-0.9,0.54-0.81,0.97C102.65,45.12,103.35,45.25,103.68,45.28L103.68,45.28z"/>
					</g>
				</g>
				<g class="st2">
					<g>
						<path class="st3" d="M77.29,18.07c2.05,1.24,3.14,3.35,3.08,5.67c-0.04,1.26,6.54,0.54,6.59-1.34
							c0.07-2.47-1.26-4.89-3.43-6.2c-1.14-0.69-2.99-0.33-4.21,0.06C78.99,16.36,76.25,17.45,77.29,18.07L77.29,18.07z"/>
					</g>
				</g>
				<g class="st2">
					<g>
						<path class="st3" d="M103.94,60.18c4.97,0.45,9.82,0.87,14.36,2.78c4.02,1.69,7.46,4.64,9.02,8.63
							c1.85,4.72,1.38,9.97,1.06,14.93c-0.36,5.41-0.71,10.82-1.07,16.22c-0.4,6.11-0.8,12.21-1.21,18.32
							c-0.08,1.2,6.47,0.57,6.59-1.34c0.73-11.05,1.45-22.1,2.18-33.15c0.34-5.09,0.96-10.45-0.63-15.38
							c-1.44-4.46-4.79-7.72-9.05-9.84c-5.17-2.57-11.15-3.15-16.9-3.67c-1.53-0.14-3.32,0.15-4.66,0.95
							c-0.32,0.19-0.9,0.54-0.81,0.97C102.91,60.01,103.61,60.15,103.94,60.18L103.94,60.18z"/>
					</g>
				</g>
				<g class="st2">
					<g>
						<path class="st3" d="M105.14,84.98c2.66-2.91,5.31-5.81,7.97-8.72c0.93-1.02-0.66-1.28-1.49-1.26
							c-0.86,0.02-1.74,0.14-2.56,0.41c-0.61,0.2-1.43,0.43-1.87,0.9c-2.66,2.91-5.31,5.81-7.97,8.72
							c-0.93,1.02,0.66,1.28,1.49,1.26c0.86-0.02,1.74-0.14,2.56-0.41C103.89,85.68,104.71,85.45,105.14,84.98L105.14,84.98z"/>
					</g>
				</g>
				<g class="st2">
					<g>
						<path class="st3" d="M108.94,86.89c1.18-1.45,2.36-2.9,3.54-4.35c0.3-0.36-0.26-0.69-0.5-0.78c-0.59-0.22-1.46-0.18-2.07-0.1
							c-1.34,0.17-3.02,0.5-3.9,1.59c-1.18,1.45-2.36,2.9-3.54,4.35c-0.3,0.36,0.26,0.69,0.5,0.78c0.59,0.22,1.46,0.18,2.07,0.1
							C106.38,88.31,108.05,87.97,108.94,86.89L108.94,86.89z"/>
					</g>
				</g>
				<g class="st2">
					<g>
						<path class="st3" d="M75.47,116.13c4.61-2.55,9.22-5.11,13.84-7.66c0.28-0.15,0.89-0.56,0.81-0.97
							c-0.08-0.41-0.81-0.54-1.12-0.58c-1.53-0.17-3.31,0.2-4.66,0.95c-4.61,2.55-9.22,5.11-13.84,7.66
							c-0.28,0.15-0.89,0.56-0.81,0.97c0.08,0.41,0.81,0.54,1.12,0.58C72.33,117.24,74.12,116.87,75.47,116.13L75.47,116.13z"/>
					</g>
				</g>
				<g class="st2">
					<g>
						<path class="st3" d="M54.31,84.56c1.67-2.03,3.35-4.06,5.02-6.1c0.3-0.36-0.26-0.69-0.5-0.78c-0.59-0.22-1.46-0.18-2.07-0.1
							c-1.35,0.17-3.01,0.51-3.9,1.59c-1.67,2.03-3.35,4.06-5.02,6.1c-0.3,0.36,0.26,0.69,0.5,0.78c0.59,0.22,1.46,0.18,2.07,0.1
							C51.76,85.99,53.42,85.65,54.31,84.56L54.31,84.56z"/>
					</g>
				</g>
				<g class="st2">
					<g>
						<path class="st3" d="M55.48,90.32c1.67-1.84,3.34-3.68,5.02-5.52c0.92-1.02-0.66-1.28-1.49-1.26
							c-0.86,0.02-1.74,0.14-2.56,0.41c-0.61,0.2-1.43,0.42-1.87,0.9c-1.67,1.84-3.34,3.68-5.02,5.52
							c-0.92,1.02,0.66,1.28,1.49,1.26c0.86-0.02,1.74-0.14,2.56-0.41C54.22,91.03,55.05,90.8,55.48,90.32L55.48,90.32z"/>
					</g>
				</g>
				<g class="st2">
					<g>
						<path class="st3" d="M74.94,115.65c3.85-2.52,7.69-5.03,11.54-7.55c0.27-0.18,0.89-0.55,0.81-0.97
							c-0.08-0.41-0.81-0.54-1.12-0.58c-1.43-0.16-3.43,0.14-4.66,0.95c-3.85,2.52-7.69,5.03-11.54,7.55
							c-0.27,0.18-0.89,0.55-0.81,0.97c0.08,0.41,0.81,0.54,1.12,0.58C71.71,116.76,73.7,116.46,74.94,115.65L74.94,115.65z"/>
					</g>
				</g>
				<g class="st2">
					<g>
						<path class="st3" d="M80.88,119.41c3.63-2.55,7.25-5.1,10.88-7.64c0.32-0.23,0.45-0.63,0.16-0.91
							c-0.34-0.33-1.23-0.36-1.65-0.35c-1.56,0.03-3.16,0.42-4.43,1.31c-3.63,2.55-7.25,5.1-10.88,7.64
							c-0.32,0.23-0.45,0.63-0.16,0.91c0.34,0.33,1.23,0.36,1.65,0.35C78,120.69,79.61,120.3,80.88,119.41L80.88,119.41z"/>
					</g>
				</g>
			</g>
		</g>
	</g>
	<ellipse class="st4" cx="55.05" cy="78.18" rx="1.9" ry="3.17"/>
	<ellipse class="st4" cx="109.88" cy="76.62" rx="1.9" ry="3.17"/>
	<path class="st5" d="M55.05,76.13c0-0.27,0.21-0.48,0.43-0.48s0.32,0.22,0.32,0.48s-0.11,0.48-0.32,0.48S55.05,76.4,55.05,76.13z"
		/>
	<path class="st5" d="M109.88,75.01c0-0.27,0.21-0.48,0.43-0.48s0.32,0.22,0.32,0.48s-0.11,0.48-0.32,0.48
		S109.88,75.28,109.88,75.01z"/>
	<ellipse class="st6" cx="44.48" cy="97.76" rx="7.25" ry="6"/>
	<ellipse class="st7" cx="115.23" cy="96.28" rx="7.25" ry="6"/>
</g>
<g id="Ebene_9_6_">
</g>
<g id="Ebene_3">
	<g>
		<g id="Ebene_13">
			<g>
				<path class="st20" d="M139.08,37.97c-1.78,3.53-3.56,7.05-5.35,10.58c7.69,3.52,15.37,7.04,23.06,10.56
					c1.56-2.49,3.12-4.97,4.67-7.46c0.43-0.68,0.87-1.44,0.74-2.2c-0.18-1.04-1.33-1.65-2.36-2.11c-6.82-3.07-13.64-6.13-20.47-9.2"
					/>
				<g>
					<path class="st21" d="M138.44,37.75c-1.78,3.53-3.56,7.05-5.35,10.58c-0.17,0.33,0.06,0.66,0.37,0.8
						c5.98,2.74,11.96,5.48,17.94,8.22c1.71,0.78,3.42,1.56,5.13,2.35c0.24,0.11,0.66,0,0.8-0.23c1.35-2.15,2.7-4.3,4.04-6.45
						c0.59-0.93,1.4-1.94,1.51-3.03c0.11-1.04-0.49-1.88-1.35-2.47c-0.91-0.62-2.02-1.02-3.04-1.48c-1.23-0.55-2.45-1.1-3.68-1.65
						c-2.35-1.05-4.69-2.11-7.04-3.16c-2.72-1.22-5.44-2.44-8.15-3.66c-0.78-0.35-1.28,0.82-0.51,1.17
						c4.48,2.01,8.95,4.02,13.43,6.03c2.24,1.01,4.48,2.01,6.72,3.02c0.77,0.35,1.85,0.74,2.18,1.54c0.37,0.87-0.49,1.89-0.94,2.62
						c-1.42,2.27-2.85,4.54-4.27,6.81c0.27-0.08,0.53-0.15,0.8-0.23c-5.98-2.74-11.96-5.48-17.94-8.22
						c-1.71-0.78-3.42-1.56-5.13-2.35c0.13,0.27,0.25,0.54,0.37,0.8c1.78-3.53,3.56-7.05,5.35-10.58
						C140.08,37.45,138.82,37.02,138.44,37.75L138.44,37.75z"/>
				</g>
			</g>
		</g>
		<g id="Ebene_14">
			<g>
				<path class="st22" d="M140.26,36.95c7.57,3.77,15.27,7.32,23.09,10.64c2.77-1.6,2.3-4.58,4.65-7.53
					c1.93-2.43-1.29-5.89-3.63-7.88c-2.52-2.14-5.89-3.19-9.17-4.19c-2.37-0.72-4.91-1.45-7.36-0.83c-2.15,0.55-3.9,2.09-5.05,3.85
					c-1.16,1.76-1.81,3.75-2.44,5.72"/>
				<g>
					<path class="st22" d="M139.86,37.46c5.28,2.63,10.63,5.16,16.03,7.57c1.35,0.6,2.71,1.2,4.07,1.79
						c0.68,0.29,1.36,0.59,2.04,0.88c0.31,0.13,0.63,0.28,0.94,0.4c0.4,0.15,0.64,0.08,1-0.14c1.87-1.17,2.39-3.21,3.16-5.03
						c0.22-0.51,0.46-1.02,0.74-1.51c0.3-0.5,0.71-0.95,1-1.45c0.47-0.82,0.52-1.77,0.28-2.65c-0.55-1.99-2.12-3.66-3.67-5.06
						c-1.81-1.64-3.93-2.78-6.29-3.65c-1.19-0.44-2.42-0.82-3.64-1.19c-1.3-0.4-2.61-0.78-3.97-0.99c-2.66-0.4-5.27,0.2-7.3,1.94
						c-1.99,1.7-3.11,3.99-3.93,6.32c-0.21,0.61-0.41,1.21-0.61,1.82c-0.25,0.77,1.01,1.21,1.26,0.44c0.97-3,2.04-6.3,4.95-8.25
						c3.08-2.07,6.76-0.83,9.93,0.15c3.14,0.97,6.19,2.09,8.57,4.25c1.02,0.93,2.02,1.95,2.73,3.11c0.56,0.93,1.08,2.13,0.5,3.18
						c-0.19,0.34-0.47,0.63-0.68,0.96c-0.25,0.37-0.47,0.76-0.68,1.15c-0.36,0.7-0.64,1.44-0.92,2.17
						c-0.52,1.35-1.08,2.62-2.44,3.43c0.23-0.04,0.45-0.07,0.68-0.11c-6.04-2.56-12-5.26-17.89-8.09c-1.69-0.81-3.37-1.64-5.05-2.47
						c-0.32-0.16-0.71-0.15-0.95,0.15C139.52,36.84,139.54,37.3,139.86,37.46L139.86,37.46z"/>
				</g>
			</g>
		</g>
		<g id="Ebene_15">
			<g>
				<path class="st23" d="M132.92,49.46c-16.74,29.95-35.21,61-53.25,90.33c1.81-0.41,4.48-1.42,6.28-1.83
					c0.42,2.11,1.76,5.88,1.76,5.88s4.73-1.07,6.57-1.72c0.51,2.15,0.93,3.83,1.82,5.68c1.97-0.55,5.91-2.05,5.91-2.05
					s0.67,2.06,1.6,4.65c17.26-29.87,35.31-59.98,53.03-90.66c-7.12-3.58-15.72-7.24-23.26-10.51"/>
				<g>
					<path class="st23" d="M132.29,49.24c-3.28,5.88-6.6,11.74-9.95,17.58c-3.4,5.94-6.84,11.87-10.3,17.79
						c-3.46,5.91-6.94,11.82-10.45,17.71c-3.5,5.87-7.02,11.73-10.56,17.58c-3.51,5.8-7.03,11.58-10.58,17.36
						c-0.44,0.72-0.89,1.44-1.33,2.16c-0.26,0.42,0,1.12,0.64,0.98c2.13-0.49,4.15-1.33,6.28-1.83c-0.26-0.17-0.51-0.34-0.77-0.51
						c0.42,2.05,1.11,4.06,1.81,6.04c0.08,0.24,0.45,0.41,0.72,0.35c2.26-0.51,4.56-1,6.74-1.77c-0.31-0.15-0.63-0.31-0.95-0.46
						c0.48,1.99,0.98,3.97,1.87,5.84c0.11,0.22,0.44,0.43,0.72,0.35c2.07-0.58,4.09-1.34,6.09-2.1c-0.3-0.1-0.6-0.2-0.9-0.3
						c0.51,1.56,1.05,3.11,1.6,4.65c0.2,0.56,1.01,0.38,1.25-0.05c3.39-5.86,6.79-11.71,10.21-17.56
						c3.42-5.85,6.85-11.7,10.29-17.54c3.47-5.9,6.95-11.81,10.42-17.71c3.47-5.91,6.94-11.81,10.4-17.72
						c3.49-5.97,6.97-11.94,10.43-17.92c0.43-0.74,0.85-1.47,1.28-2.21c0.13-0.22,0.02-0.61-0.22-0.73
						c-5.96-3-12.09-5.68-18.24-8.35c-1.73-0.75-3.45-1.49-5.18-2.24c-0.78-0.34-1.29,0.83-0.51,1.17
						c6.1,2.64,12.22,5.25,18.23,8.07c1.64,0.77,3.27,1.56,4.89,2.37c-0.07-0.24-0.15-0.49-0.22-0.73
						c-3.46,5.99-6.94,11.96-10.43,17.94c-3.46,5.92-6.93,11.83-10.4,17.74c-3.47,5.91-6.95,11.81-10.43,17.72
						c-3.44,5.85-6.88,11.7-10.3,17.55c-3.42,5.85-6.84,11.7-10.23,17.56c-0.41,0.72-0.83,1.43-1.24,2.15
						c0.42-0.02,0.84-0.03,1.25-0.05c-0.55-1.55-1.09-3.1-1.6-4.65c-0.11-0.33-0.59-0.42-0.9-0.3c-1.88,0.72-3.79,1.45-5.74,2
						c0.24,0.12,0.48,0.23,0.72,0.35c-0.84-1.77-1.32-3.63-1.77-5.52c-0.1-0.41-0.51-0.61-0.95-0.46c-2.07,0.72-4.26,1.19-6.39,1.67
						c0.24,0.12,0.48,0.23,0.72,0.35c-0.66-1.87-1.31-3.78-1.71-5.72c-0.06-0.31-0.4-0.59-0.77-0.51c-2.13,0.49-4.15,1.33-6.28,1.83
						c0.21,0.33,0.43,0.65,0.64,0.98c3.56-5.78,7.09-11.57,10.61-17.38c3.55-5.86,7.09-11.73,10.6-17.62
						c3.53-5.92,7.04-11.84,10.52-17.78c3.47-5.92,6.91-11.85,10.33-17.8c3.38-5.88,6.73-11.78,10.04-17.69
						c0.41-0.74,0.82-1.47,1.24-2.21C133.96,48.95,132.69,48.52,132.29,49.24L132.29,49.24z"/>
				</g>
			</g>
		</g>
		<g id="Ebene_16">
			<g>
				<path class="st24" d="M79.95,140.84c0.66,2.06,0.26,4.29,0.05,6.45c-0.21,2.16-0.15,4.5,1.23,6.22c1.05,1.3,2.7,2.05,4.29,2.75
					c1.65,0.73,3.38,1.47,5.23,1.46c2.4-0.01,4.62-1.28,6.54-2.65c1.92-1.38,3.76-2.94,6.03-3.74c-0.43-1.64-0.87-3.28-1.3-4.92
					c-2.18,0.71-4.36,1.43-6.53,2.14c-0.45-1.98-0.9-3.96-1.36-5.94c-2.32,0.61-4.65,1.23-6.97,1.84c-0.09-1.86-0.69-3.68-1.72-5.26
					c-1.65,0.48-3.29,0.96-4.94,1.45"/>
				<g>
					<path class="st24" d="M79.28,140.95c0.77,2.52,0.01,5.13-0.04,7.71c-0.05,2.4,0.52,4.72,2.55,6.31
						c0.92,0.72,2.01,1.23,3.09,1.71c1.16,0.52,2.33,1.05,3.59,1.37c1.28,0.32,2.6,0.41,3.92,0.13c1.36-0.29,2.6-0.88,3.77-1.58
						c2.52-1.51,4.6-3.66,7.44-4.69c0.26-0.09,0.47-0.42,0.4-0.67c-0.43-1.64-0.87-3.28-1.3-4.92c-0.11-0.42-0.5-0.61-0.95-0.46
						c-2.18,0.71-4.36,1.43-6.53,2.14c0.31,0.15,0.63,0.31,0.95,0.46c-0.45-1.98-0.9-3.96-1.36-5.94c-0.07-0.3-0.4-0.61-0.77-0.51
						c-2.32,0.61-4.65,1.23-6.97,1.84c0.26,0.17,0.51,0.34,0.77,0.51c-0.11-1.91-0.72-3.78-1.77-5.41c-0.2-0.32-0.51-0.41-0.9-0.3
						c-1.65,0.48-3.29,0.96-4.94,1.45c-0.35,0.1-0.49,0.56-0.35,0.83c0.16,0.34,0.54,0.4,0.9,0.3c1.65-0.48,3.29-0.96,4.94-1.45
						c-0.3-0.1-0.6-0.2-0.9-0.3c1,1.55,1.56,3.27,1.67,5.1c0.02,0.31,0.44,0.6,0.77,0.51c2.32-0.61,4.65-1.23,6.97-1.84
						c-0.26-0.17-0.51-0.34-0.77-0.51c0.45,1.98,0.9,3.96,1.36,5.94c0.1,0.42,0.51,0.6,0.95,0.46c2.18-0.71,4.36-1.43,6.53-2.14
						c-0.31-0.15-0.63-0.31-0.95-0.46c0.43,1.64,0.87,3.28,1.3,4.92c0.13-0.22,0.27-0.45,0.4-0.67c-2.39,0.86-4.3,2.49-6.31,3.92
						c-2.01,1.43-4.37,2.71-6.96,2.34c-1.21-0.17-2.35-0.64-3.44-1.11c-1-0.43-2.01-0.86-2.93-1.43c-0.96-0.59-1.75-1.33-2.21-2.32
						c-0.47-1.01-0.61-2.15-0.6-3.25c0.02-2.73,0.86-5.51,0.03-8.19c-0.1-0.32-0.37-0.57-0.77-0.51
						C79.53,140.28,79.18,140.62,79.28,140.95L79.28,140.95z"/>
				</g>
			</g>
		</g>
		<g id="Ebene_17">
			<g>
				<path d="M80.4,154.88c0.06,3.35,0.12,6.71,0.17,10.06c2.78-2.42,6.02-4.39,9.52-5.77c-3.11-1.5-6.21-3-9.32-4.5"/>
				<g>
					<path d="M79.72,154.99c0.06,3.35,0.12,6.71,0.17,10.06c0.01,0.47,0.74,0.68,1.1,0.37c2.75-2.38,5.91-4.31,9.37-5.69
						c0.6-0.24,0.46-0.92-0.02-1.15c-3.11-1.5-6.21-3-9.32-4.5c-0.32-0.16-0.76,0.08-0.89,0.37c-0.16,0.35,0.06,0.65,0.37,0.8
						c3.11,1.5,6.21,3,9.32,4.5c-0.01-0.38-0.01-0.77-0.02-1.15c-3.55,1.42-6.84,3.41-9.67,5.86c0.37,0.12,0.73,0.25,1.1,0.37
						c-0.06-3.35-0.12-6.71-0.17-10.06c-0.01-0.34-0.44-0.56-0.77-0.51C79.9,154.33,79.72,154.65,79.72,154.99L79.72,154.99z"/>
				</g>
			</g>
		</g>
		<g id="Ebene_12">
			<g>
				<g>
					<path d="M80.42,139.47c4.25-7.31,8.49-14.63,12.74-21.94c4.23-7.28,8.46-14.57,12.69-21.85c4.25-7.31,8.49-14.63,12.74-21.94
						c4.23-7.28,8.46-14.57,12.69-21.85c4.25-7.31,8.49-14.63,12.74-21.94c0.52-0.9,1.04-1.8,1.57-2.7
						c0.42-0.72-0.85-1.15-1.26-0.44c-4.25,7.31-8.49,14.63-12.74,21.94c-4.23,7.28-8.46,14.57-12.69,21.85
						c-4.25,7.31-8.49,14.63-12.74,21.94c-4.23,7.28-8.46,14.57-12.69,21.85c-4.25,7.31-8.49,14.63-12.74,21.94
						c-0.52,0.9-1.04,1.8-1.57,2.7C78.74,139.75,80.01,140.18,80.42,139.47L80.42,139.47z"/>
				</g>
			</g>
			<g>
				<g>
					<path d="M104.37,151.4c4.26-7.31,8.52-14.61,12.79-21.92c4.26-7.31,8.52-14.61,12.79-21.92c4.26-7.31,8.52-14.61,12.79-21.92
						c4.26-7.31,8.52-14.61,12.79-21.92c4.26-7.31,8.52-14.61,12.79-21.92c0.52-0.9,1.05-1.8,1.57-2.69
						c0.42-0.72-0.85-1.15-1.26-0.44c-4.26,7.31-8.52,14.61-12.79,21.92c-4.26,7.31-8.52,14.61-12.79,21.92
						c-4.26,7.31-8.52,14.61-12.79,21.92c-4.26,7.31-8.52,14.61-12.79,21.92c-4.26,7.31-8.52,14.61-12.79,21.92
						c-0.52,0.9-1.05,1.8-1.57,2.69C102.69,151.67,103.95,152.1,104.37,151.4L104.37,151.4z"/>
				</g>
			</g>
			<g>
				<g>
					<path d="M145.04,27.63c7.56-1.23,15.31,1.21,20.27,6.43c1.33,1.4,2.44,2.97,3.3,4.66c0.36,0.72,1.61,0.19,1.25-0.53
						c-3.33-6.56-10.19-11.12-18.06-11.99c-2.3-0.25-4.65-0.18-6.95,0.19C143.98,26.54,144.17,27.77,145.04,27.63L145.04,27.63z"/>
				</g>
			</g>
			<g>
				<g>
					<path d="M138.97,38.09c6.15,2.92,12.3,5.85,18.46,8.77c1.75,0.83,3.5,1.66,5.25,2.49c0.33,0.15,0.76-0.08,0.89-0.37
						c0.16-0.35-0.05-0.65-0.37-0.8c-6.15-2.92-12.3-5.85-18.46-8.77c-1.75-0.83-3.5-1.66-5.25-2.49c-0.33-0.15-0.76,0.08-0.89,0.37
						C138.44,37.63,138.65,37.94,138.97,38.09L138.97,38.09z"/>
				</g>
			</g>
			<g>
				<g>
					<path d="M132.51,49.03c6.21,2.94,12.42,5.87,18.63,8.81c1.75,0.83,3.5,1.66,5.25,2.48c0.33,0.15,0.76-0.08,0.89-0.37
						c0.16-0.34-0.05-0.65-0.37-0.8c-6.21-2.94-12.42-5.87-18.63-8.81c-1.75-0.83-3.5-1.66-5.25-2.48
						c-0.33-0.15-0.76,0.08-0.89,0.37C131.98,48.57,132.19,48.88,132.51,49.03L132.51,49.03z"/>
				</g>
			</g>
			<g>
				<g>
					<path d="M137.88,47.72c1.1-1.85,2.21-3.71,3.31-5.56c0.18-0.3-0.07-0.69-0.37-0.8c-0.37-0.13-0.71,0.07-0.89,0.37
						c-1.1,1.85-2.21,3.71-3.31,5.56c-0.18,0.3,0.07,0.69,0.37,0.8C137.36,48.22,137.7,48.02,137.88,47.72L137.88,47.72z"/>
				</g>
			</g>
			<g>
				<g>
					<path d="M141.74,49.63c1.1-1.85,2.21-3.71,3.31-5.56c0.18-0.3-0.07-0.69-0.37-0.8c-0.37-0.13-0.71,0.07-0.89,0.37
						c-1.1,1.85-2.21,3.71-3.31,5.56c-0.18,0.3,0.07,0.69,0.37,0.8C141.23,50.13,141.56,49.92,141.74,49.63L141.74,49.63z"/>
				</g>
			</g>
			<g>
				<g>
					<path d="M146.25,51.67c1.1-1.85,2.21-3.71,3.31-5.56c0.18-0.3-0.07-0.69-0.37-0.8c-0.37-0.13-0.71,0.07-0.89,0.37
						c-1.1,1.85-2.21,3.71-3.31,5.56c-0.18,0.3,0.07,0.69,0.37,0.8C145.74,52.17,146.07,51.96,146.25,51.67L146.25,51.67z"/>
				</g>
			</g>
			<g>
				<g>
					<path d="M150.14,53.57c1.1-1.85,2.21-3.71,3.31-5.56c0.18-0.3-0.07-0.69-0.37-0.8c-0.37-0.13-0.71,0.07-0.89,0.37
						c-1.1,1.85-2.21,3.71-3.31,5.56c-0.18,0.3,0.07,0.69,0.37,0.8C149.63,54.07,149.96,53.87,150.14,53.57L150.14,53.57z"/>
				</g>
			</g>
			<g>
				<g>
					<path d="M154.21,55.44c1.1-1.85,2.21-3.71,3.31-5.56c0.18-0.3-0.07-0.69-0.37-0.8c-0.37-0.13-0.71,0.07-0.89,0.37
						c-1.1,1.85-2.21,3.71-3.31,5.56c-0.18,0.3,0.07,0.69,0.37,0.8C153.69,55.94,154.03,55.74,154.21,55.44L154.21,55.44z"/>
				</g>
			</g>
			<g>
				<g>
					<path d="M80.02,140.82c2.01-0.64,4.01-1.31,6.02-1.95c-0.31-0.15-0.63-0.31-0.95-0.46c0.58,2.02,1.15,4.04,1.81,6.04
						c0.08,0.23,0.46,0.42,0.72,0.35c2.33-0.66,4.66-1.29,6.94-2.11c-0.31-0.15-0.63-0.31-0.95-0.46c0.4,1.96,1.12,3.84,1.52,5.8
						c0.08,0.39,0.53,0.64,0.95,0.46c2.02-0.86,4.19-1.32,6.21-2.18c-0.3-0.1-0.6-0.2-0.9-0.3c0.7,1.77,1.13,3.63,1.72,5.43
						c0.1,0.32,0.59,0.43,0.9,0.3c0.37-0.16,0.46-0.51,0.35-0.83c-0.59-1.81-1.02-3.66-1.72-5.43c-0.12-0.32-0.58-0.43-0.9-0.3
						c-2.02,0.86-4.19,1.32-6.21,2.18c0.31,0.15,0.63,0.31,0.95,0.46c-0.4-1.96-1.12-3.84-1.52-5.8c-0.08-0.41-0.52-0.61-0.95-0.46
						c-2.16,0.78-4.38,1.39-6.59,2.01c0.24,0.12,0.48,0.23,0.72,0.35c-0.62-1.89-1.16-3.8-1.71-5.72c-0.12-0.42-0.49-0.6-0.95-0.46
						c-2.01,0.64-4.01,1.31-6.02,1.95C78.65,139.96,79.19,141.09,80.02,140.82L80.02,140.82z"/>
				</g>
			</g>
			<g>
				<g>
					<path d="M78.74,139.94c0.11,6.87,0.31,13.73,0.46,20.6c0.04,1.91,0.08,3.82,0.11,5.73c0.01,0.53,0.72,0.6,1.1,0.37
						c6.23-3.83,12.41-7.74,18.62-11.6c1.72-1.07,3.45-2.14,5.18-3.2c0.31-0.19,0.32-0.64,0.11-0.88c-0.24-0.28-0.65-0.26-0.96-0.08
						c-6.23,3.83-12.41,7.74-18.62,11.6c-1.72,1.07-3.45,2.14-5.18,3.2c0.37,0.12,0.73,0.25,1.1,0.37
						c-0.11-6.87-0.31-13.73-0.46-20.6c-0.04-1.91-0.08-3.82-0.11-5.73c-0.01-0.34-0.44-0.56-0.77-0.51
						C78.91,139.28,78.73,139.6,78.74,139.94L78.74,139.94z"/>
				</g>
			</g>
			<g>
				<g>
					<path d="M80.19,154.93c3.63,1.56,7.18,3.25,10.8,4.8c0.79,0.34,1.29-0.84,0.51-1.17c-3.63-1.56-7.18-3.25-10.8-4.8
						C79.91,153.42,79.41,154.6,80.19,154.93L80.19,154.93z"/>
				</g>
			</g>
		</g>
		<g id="Ebene_18">
			<g class="st25">
				<path d="M147.85,27.16c-10.77,19.04-23.06,40.16-31.08,60.25s-13.26,41.31-12.55,62.5c-0.42-1.48-1.47-3.36-1.89-4.84
					c-2.45,0.8-3.64,1.28-6.22,2.72c-0.69-3.15-1.38-6.02-1.38-6.02s-3.8,0.94-7.18,1.91c-0.58-2.2-1.59-5.72-1.59-5.72
					s-4.5,1.26-6.28,1.83c21.11-37.44,44.38-75.1,65.66-112.83C145.35,27.5,147.83,26.62,147.85,27.16"/>
				<g>
					<path d="M147.22,26.95c-4.32,7.64-8.68,15.26-12.9,22.94c-4.31,7.85-8.48,15.77-12.29,23.83c-3.67,7.77-6.95,15.68-9.71,23.75
						c-2.75,8.05-5,16.25-6.54,24.54c-1.53,8.25-2.37,16.6-2.3,24.93c0.01,1.03,0.03,2.06,0.06,3.08c0.45-0.07,0.9-0.14,1.35-0.21
						c-0.49-1.66-1.4-3.18-1.89-4.84c-0.12-0.41-0.49-0.61-0.95-0.46c-2.19,0.72-4.22,1.61-6.22,2.72c0.31,0.15,0.63,0.31,0.95,0.46
						c-0.44-2.01-0.9-4.02-1.38-6.02c-0.07-0.3-0.39-0.6-0.77-0.51c-2.4,0.59-4.8,1.23-7.18,1.91c0.26,0.17,0.51,0.34,0.77,0.51
						c-0.5-1.91-1.04-3.82-1.59-5.72c-0.08-0.29-0.39-0.62-0.77-0.51c-2.16,0.6-4.32,1.2-6.46,1.88c0.3,0.26,0.6,0.52,0.9,0.78
						c4.14-7.34,8.34-14.65,12.58-21.95c4.27-7.34,8.57-14.67,12.89-21.99c4.33-7.35,8.67-14.68,13.01-22.03
						c4.33-7.34,8.66-14.69,12.95-22.06c4.28-7.34,8.52-14.7,12.7-22.08c0.51-0.91,1.03-1.82,1.54-2.72
						c-0.43-0.04-0.87-0.07-1.3-0.11c0.12,0.63,0.76,0.73,1.36,0.69c0.3-0.02,0.6-0.07,0.9-0.11c0.13-0.02,0.31-0.01,0.44-0.04
						c0.37-0.11-0.02,0.51-0.18-0.33c0.15,0.79,1.5,0.58,1.35-0.21c-0.12-0.63-0.76-0.73-1.36-0.69c-0.3,0.02-0.6,0.07-0.9,0.11
						c-0.13,0.02-0.31,0.01-0.44,0.04c-0.37,0.11,0.02-0.51,0.18,0.33c-0.12-0.64-1-0.66-1.3-0.11
						c-4.17,7.39-8.39,14.74-12.66,22.09c-4.28,7.37-8.6,14.72-12.93,22.06c-4.33,7.35-8.68,14.69-13.01,22.03
						c-4.32,7.32-8.63,14.65-12.91,22c-4.25,7.3-8.47,14.61-12.63,21.95c-0.51,0.9-1.02,1.8-1.53,2.7c-0.31,0.54,0.4,0.94,0.9,0.78
						c2.02-0.64,4.07-1.21,6.11-1.78c-0.26-0.17-0.51-0.34-0.77-0.51c0.55,1.9,1.09,3.81,1.59,5.72c0.08,0.29,0.39,0.62,0.77,0.51
						c2.38-0.68,4.78-1.31,7.18-1.91c-0.26-0.17-0.51-0.34-0.77-0.51c0.48,2,0.94,4.01,1.38,6.02c0.08,0.36,0.54,0.68,0.95,0.46
						c2-1.11,4.03-2,6.22-2.72c-0.31-0.15-0.63-0.31-0.95-0.46c0.49,1.66,1.4,3.18,1.89,4.84c0.23,0.77,1.37,0.6,1.35-0.21
						c-0.27-8.3,0.38-16.64,1.75-24.89c1.37-8.27,3.47-16.46,6.1-24.5c2.63-8.04,5.79-15.94,9.36-23.7
						c3.68-8.01,7.76-15.87,11.98-23.65c4.17-7.68,8.5-15.29,12.82-22.9c0.53-0.93,1.05-1.86,1.58-2.79
						C148.89,26.66,147.63,26.23,147.22,26.95L147.22,26.95z"/>
				</g>
			</g>
			<g class="st25">
				<path d="M82.29,140.12c-1.27,15.04,5.1,20.27,5.1,20.27s-6.39,2.25-7.08,4.79c-0.61-8.38-0.84-17.07-0.07-25.47"/>
				<g>
					<path d="M81.62,140.06c-0.38,4.6-0.18,9.29,1.22,13.7c0.7,2.21,1.72,4.4,3.25,6.22c0.27,0.32,0.56,0.64,0.9,0.91
						c0.04-0.36,0.09-0.72,0.13-1.08c-1.17,0.41-2.32,0.93-3.41,1.51c-1.52,0.81-3.54,1.95-4.03,3.63c0.43,0.04,0.87,0.07,1.3,0.11
						c-0.47-6.57-0.71-13.16-0.43-19.76c0.08-1.85,0.2-3.7,0.37-5.55c0.07-0.8-1.28-0.93-1.35-0.12
						c-0.61,6.67-0.59,13.36-0.27,20.02c0.09,1.87,0.21,3.75,0.34,5.62c0.04,0.59,1.13,0.71,1.3,0.11c0.41-1.39,2.24-2.38,3.57-3.07
						c1.01-0.52,2.07-0.99,3.15-1.38c0.53-0.19,0.48-0.79,0.13-1.08c0.16,0.14,0.06,0.05-0.05-0.05c-0.16-0.15-0.31-0.31-0.45-0.48
						c-0.23-0.26-0.45-0.54-0.65-0.82c-0.06-0.08-0.11-0.15-0.17-0.23c-0.03-0.05-0.07-0.1-0.1-0.14c-0.08-0.12,0.02,0.03-0.04-0.06
						c-0.14-0.21-0.27-0.43-0.4-0.64c-1.6-2.71-2.43-5.77-2.83-8.84c-0.36-2.79-0.36-5.62-0.13-8.43
						C83.03,139.38,81.68,139.25,81.62,140.06L81.62,140.06z"/>
				</g>
			</g>
		</g>
		<g id="Ebene_19">
			<g class="st26">
				<g>
					<path class="st3" d="M147.22,61.18c-4.8,8.32-9.59,16.64-14.39,24.96s-9.59,16.64-14.39,24.96c-2.71,4.71-5.42,9.41-8.14,14.12
						c-0.45,0.78,0.14,1.89,1,2.14c1.01,0.3,1.88-0.14,2.36-0.98c4.8-8.32,9.59-16.64,14.39-24.96c4.8-8.32,9.59-16.64,14.39-24.96
						c2.71-4.71,5.42-9.41,8.14-14.12c0.45-0.78-0.14-1.89-1-2.14C148.57,59.9,147.7,60.34,147.22,61.18L147.22,61.18z"/>
				</g>
			</g>
			<g class="st26">
				<g>
					<path class="st3" d="M93.99,155.52c1.84-1.26,3.68-2.51,5.51-3.77c0.77-0.53,0.91-1.71,0.29-2.35
						c-0.67-0.69-1.72-0.77-2.55-0.2c-1.84,1.26-3.68,2.51-5.51,3.77c-0.77,0.53-0.91,1.71-0.29,2.35
						C92.11,156.01,93.16,156.08,93.99,155.52L93.99,155.52z"/>
				</g>
			</g>
			<g class="st26">
				<g>
					<path class="st3" d="M155.19,33.82c0.68-0.01,1.45,0,2.1,0.19c-0.48-0.14,0.09,0.03,0.18,0.06c0.17,0.05,0.33,0.1,0.5,0.15
						c0.33,0.11,0.65,0.25,0.96,0.39c0.17,0.08,0.16,0.07-0.06-0.03c0.08,0.04,0.15,0.08,0.23,0.12c0.15,0.08,0.3,0.17,0.44,0.26
						c0.25,0.16,0.49,0.33,0.73,0.51c0.07,0.05,0.13,0.1,0.2,0.16c-0.17-0.15-0.19-0.17-0.05-0.04c0.12,0.12,0.24,0.23,0.36,0.35
						c0.23,0.24,0.45,0.49,0.64,0.76c0.05,0.07,0.1,0.13,0.14,0.2c-0.12-0.19-0.13-0.2-0.03-0.04c0.09,0.15,0.18,0.3,0.26,0.46
						c0.16,0.31,0.29,0.64,0.42,0.97c0.06,0.18,0.06,0.17-0.01-0.05c0.02,0.08,0.05,0.17,0.07,0.25c0.03,0.13,0.06,0.26,0.09,0.38
						c0.07,0.34,0.12,0.69,0.14,1.04c0.01,0.09,0.01,0.18,0.01,0.26c0-0.23,0-0.24,0-0.05c-0.01,0.18-0.01,0.35-0.03,0.53
						c-0.03,0.35-0.08,0.7-0.16,1.04c-0.02,0.09-0.04,0.17-0.06,0.26c0.06-0.21,0.06-0.22,0.01-0.04c-0.06,0.17-0.11,0.34-0.18,0.5
						c-0.13,0.33-0.29,0.66-0.46,0.97c-0.44,0.79,0.13,1.88,1,2.14c1,0.3,1.9-0.14,2.36-0.98c1.36-2.45,1.44-5.35,0.48-7.87
						c-0.92-2.42-3.02-4.31-5.53-5.35c-1.32-0.55-2.83-0.85-4.3-0.82c-0.94,0.02-1.94,0.53-2.03,1.5
						C153.55,32.81,154.18,33.84,155.19,33.82L155.19,33.82z"/>
				</g>
			</g>
			<g class="st26">
				<g>
					<path class="st3" d="M86.15,161.73c0.34-0.26,0.67-0.52,1.01-0.78c0.36-0.28,0.61-0.69,0.67-1.11
						c0.06-0.41-0.08-0.93-0.38-1.24c-0.64-0.66-1.76-0.81-2.55-0.2c-0.34,0.26-0.67,0.52-1.01,0.78c-0.36,0.28-0.61,0.69-0.67,1.11
						c-0.06,0.41,0.08,0.93,0.38,1.24C84.24,162.18,85.36,162.34,86.15,161.73L86.15,161.73z"/>
				</g>
			</g>
		</g>
	</g>
</g>
<g id="Ebene_5_6_">
</g>
</svg>
