<?xml version="1.0" encoding="utf-8"?>
<!-- Generator: Adobe Adobe Illustrator 24.2.0, SVG Export Plug-In . SVG Version: 6.00 Build 0)  -->
<svg version="1.1" xmlns="http://www.w3.org/2000/svg" xmlns:xlink="http://www.w3.org/1999/xlink" x="0px" y="0px"
	 viewBox="0 0 170.08 170.08" style="enable-background:new 0 0 170.08 170.08;" xml:space="preserve">
<style type="text/css">
	.st0{fill:#D2E0EC;}
	.st1{fill:#D2E1EC;}
	.st2{opacity:0.149;}
	.st3{fill:#FFFFFF;}
	.st4{stroke:#000000;stroke-miterlimit:10;}
	.st5{fill:#FFFFFF;stroke:#FFFFFF;stroke-width:0.4071;stroke-miterlimit:10;}
	.st6{fill:#DB9886;stroke:#DB9886;stroke-width:0.3912;stroke-miterlimit:10;}
	.st7{fill:#ECC9AD;}
	.st8{opacity:0.1608;}
	.st9{opacity:0.1686;}
	.st10{fill:#F0F6FA;}
	.st11{opacity:0.0314;}
	.st12{stroke:#000000;stroke-width:0.0661;stroke-miterlimit:10;}
	.st13{fill:#D15238;}
	.st14{fill:#D15239;}
	.st15{fill:#C8354F;}
	.st16{fill:#C93550;}
	.st17{fill:#6DB671;}
	.st18{fill:#6CB671;}
	.st19{fill:#D1DFEA;}
	.st20{fill:#D3E1ED;}
	.st21{fill:#C8354E;}
	.st22{fill:#F3C058;}
	.st23{fill:#C8AE9D;}
	.st24{opacity:0.0784;}
	.st25{opacity:0.1412;}
</style>
<g id="Ebene_4_5_">
</g>
<g id="Ebene_8_7_">
	<g>
		<g id="Ebene_5_8_">
			<g>
				<g>
					<path class="st0" d="M80.07,35.99c-31.77,0.48-64.7-3.19-68.53,49.61c-1.1,15.11-2.07,50.63,5.45,56.98
						c3.31,2.79,8.14,2.91,12.55,2.89c32.42-0.14,64.83-0.28,97.25-0.42c6.46-0.03,17.76,0.48,22.61-13.44
						c3.24-9.28,3.47-37.97,1.87-52.29c-4.74-42.27-35.4-45.62-71.57-43.34"/>
					<g>
						<path d="M80.24,35.06c-6.09,0.09-12.19,0.03-18.28,0.25c-5.75,0.21-11.54,0.66-17.17,1.91c-5.32,1.18-10.48,3.11-14.98,6.16
							c-4.92,3.33-8.76,7.89-11.51,12.97c-3.71,6.86-5.6,14.5-6.65,22.07c-0.96,6.97-1.24,14.03-1.42,21.04
							c-0.19,7.43-0.16,14.88,0.39,22.28c0.25,3.39,0.61,6.78,1.21,10.12c0.48,2.65,1.1,5.32,2.17,7.8c0.98,2.26,2.37,4,4.69,5.14
							c4.13,2.03,9.25,1.6,13.78,1.58c11.9-0.05,23.8-0.1,35.7-0.15c11.95-0.05,23.9-0.1,35.84-0.15
							c5.93-0.03,11.85-0.05,17.77-0.08c3.48-0.02,7.01,0.12,10.49-0.18c3.05-0.27,6.11-0.99,8.79-2.5
							c3.37-1.91,5.87-4.88,7.54-8.23c2.89-5.82,3.34-12.47,3.79-18.76c0.56-7.89,0.64-15.8,0.42-23.69
							c-0.21-7.37-0.63-14.8-2.22-22c-1.48-6.7-3.99-13.29-8.18-18.85c-3.51-4.67-8.09-8.42-13.42-11.09
							c-5.47-2.73-11.53-4.28-17.64-5.14c-6.81-0.96-13.75-1.13-20.65-0.97c-3.61,0.08-7.21,0.26-10.81,0.49
							c-0.78,0.05-1.24,1.91-0.33,1.86c7.13-0.45,14.28-0.71,21.41-0.41c6.4,0.28,12.81,1.03,18.94,2.78
							c5.58,1.59,10.88,4.05,15.32,7.64c4.78,3.86,8.33,8.86,10.76,14.35c2.98,6.72,4.32,14.04,4.94,21.32
							c0.62,7.36,0.76,14.78,0.65,22.18c-0.1,7.1-0.36,14.28-1.5,21.32c-0.46,2.88-1.07,5.48-2.39,8.15
							c-1.6,3.23-4.04,6.04-7.39,7.72c-2.64,1.32-5.57,1.87-8.5,2.05c-3.65,0.23-7.34,0.11-10.99,0.12
							c-11.7,0.05-23.41,0.1-35.11,0.15c-11.7,0.05-23.41,0.1-35.11,0.15c-5.83,0.03-11.65,0.05-17.48,0.08
							c-4.53,0.02-9.62,0.48-13.75-1.55c-2.23-1.09-3.44-2.85-4.33-5.02c-1.02-2.47-1.57-5.12-2.02-7.74
							c-1.17-6.86-1.44-13.88-1.53-20.84c-0.08-6.78,0.1-13.57,0.49-20.35c0.45-7.75,1.29-15.55,3.63-23.06
							c1.85-5.91,4.64-11.62,8.97-16.29c3.58-3.84,8.12-6.7,13.09-8.6c5.11-1.95,10.56-2.89,15.99-3.42
							c5.83-0.56,11.68-0.64,17.52-0.68c2.91-0.02,5.82-0.03,8.74-0.08C80.68,36.91,81.16,35.05,80.24,35.06L80.24,35.06z"/>
					</g>
				</g>
				<g>
					<g>
						<path d="M79.45,28.4c-0.01,2.63-0.02,5.26-0.03,7.9c0,0.37,0.24,0.74,0.66,0.57c0.43-0.17,0.65-0.79,0.66-1.19
							c0.01-2.63,0.02-5.26,0.03-7.9c0-0.37-0.24-0.74-0.66-0.57C79.67,27.38,79.45,28,79.45,28.4L79.45,28.4z"/>
					</g>
				</g>
				<g>
					<path d="M81.89,13.7c4.02-0.23,6.94,5.28,5.98,8.78c-0.97,3.5-4.98,5.96-8.59,5.26s-6.25-4.44-5.65-8.01
						c0.6-3.57,4.35-6.41,8.02-6.07"/>
					<g>
						<path d="M81.72,14.63c2.52-0.1,4.31,2.07,5.13,4.1c0.91,2.24,0.64,4.59-1.3,6.32c-2.13,1.9-5.32,2.49-7.85,1.1
							c-2.37-1.31-4.03-4.2-3.37-6.86c0.74-2.98,4.07-4.93,7.14-4.69c0.75,0.06,1.26-1.79,0.33-1.86c-3.56-0.27-6.88,2.12-8.25,5.19
							c-1.4,3.15-0.52,6.88,2.11,9.12c2.68,2.28,6.48,2.19,9.39,0.2c2.82-1.93,4.16-5.23,3.43-8.41c-0.67-2.89-2.95-6.2-6.44-6.07
							C81.28,12.8,80.81,14.66,81.72,14.63L81.72,14.63z"/>
					</g>
				</g>
				<g>
					<path d="M31.26,145.47c-6.72-4.4-11.69-9.55-12.41-24.54c-0.58-12.1-0.08-26.02,1.81-38.04c1.2-7.61,3.99-13.92,9.37-19.63
						c6.33-6.71,16.38-8.35,25.62-9.09c18.51-1.49,37.09-1.03,55.59,0.04c7.07,0.41,17.72,4.27,22.53,9.26
						c7.82,8.12,9.37,44.02,5.98,64.76c-0.98,6-4.74,11.95-9.58,15.83"/>
					<g>
						<path d="M31.73,144.63c-2.51-1.65-4.88-3.5-6.74-5.82c-2.2-2.74-3.53-6.03-4.33-9.4c-1.15-4.87-1.25-9.91-1.34-14.9
							c-0.09-5.38,0.02-10.77,0.34-16.15c0.32-5.27,0.83-10.55,1.68-15.77c0.73-4.47,2.12-8.84,4.49-12.8c2.4-4,5.65-7.66,9.89-9.97
							c4.46-2.43,9.54-3.53,14.55-4.19c5.65-0.74,11.37-1.01,17.05-1.23c6.04-0.23,12.08-0.29,18.11-0.22
							c6.04,0.07,12.07,0.27,18.1,0.56c2.86,0.14,5.75,0.19,8.59,0.48c2.2,0.23,4.37,0.71,6.49,1.31c4.52,1.3,9.05,3.19,12.73,6.03
							c1.11,0.86,2.16,1.81,2.94,2.95c0.67,0.99,1.2,2.06,1.67,3.15c1.19,2.81,1.93,5.81,2.54,8.79c0.75,3.72,1.25,7.48,1.6,11.26
							c0.78,8.42,0.9,16.93,0.47,25.39c-0.2,3.88-0.52,7.76-1.05,11.63c-0.28,2.02-0.58,4.03-1.25,5.97
							c-0.79,2.28-1.94,4.46-3.38,6.43c-1.38,1.91-3.01,3.64-4.87,5.14c-0.36,0.29-0.58,0.86-0.46,1.29c0.1,0.4,0.46,0.53,0.81,0.25
							c3.98-3.21,7.05-7.47,8.82-12.12c1.47-3.87,1.81-8.09,2.2-12.15c0.82-8.65,0.96-17.35,0.51-26c-0.4-7.72-1.14-15.6-3.29-23.04
							c-0.74-2.57-1.65-5.2-3.17-7.43c-2.09-3.06-5.64-5.1-9-6.7c-4.25-2.01-8.95-3.51-13.71-4c-2.87-0.29-5.79-0.36-8.68-0.49
							c-3.09-0.15-6.17-0.27-9.26-0.37c-12.49-0.39-25.01-0.33-37.5,0.61c-5.22,0.39-10.46,0.95-15.5,2.46
							c-5,1.5-9.4,4.05-12.82,7.89c-3.15,3.54-5.55,7.63-7.07,12.02c-1.69,4.85-2.29,9.97-2.82,15.01
							c-0.59,5.54-0.91,11.1-1.03,16.66c-0.11,5.45-0.12,10.94,0.33,16.37c0.36,4.33,1.13,8.7,3.01,12.66
							c1.36,2.86,3.36,5.39,5.83,7.46c1.14,0.96,2.36,1.82,3.61,2.64C31.54,146.8,32.35,145.05,31.73,144.63L31.73,144.63z"/>
					</g>
				</g>
				<g>
					<path class="st0" d="M46.88,75.97c-0.19,5.21-0.23,10.43-0.13,15.64c0.03,1.38,0.09,2.85,0.89,3.97
						c1.29,1.8,3.88,2.02,6.15,2.07c1.79,0.04,3.74,0.04,5.18-1.02c2.07-1.53,2.18-4.46,2.08-6.97c-0.15-3.89-0.3-7.78-0.45-11.67
						c-0.07-1.93-0.21-4.03-1.51-5.47c-1.74-1.92-4.8-1.88-7.45-1.69c-1.32,0.1-2.75,0.23-3.77,1.07s-1.04,2.85-1.04,4.57"/>
					<g>
						<path d="M46.23,76.28c-0.11,3.02-0.17,6.04-0.18,9.06c-0.01,1.55,0,3.11,0.02,4.66c0.02,1.4-0.04,2.84,0.21,4.22
							c0.43,2.4,2.2,3.76,4.64,4.16c1.13,0.18,2.3,0.22,3.45,0.23c1.35,0.01,2.77-0.09,3.99-0.71c2.13-1.07,3.04-3.37,3.28-5.52
							c0.29-2.65-0.01-5.37-0.12-8.02c-0.11-2.91-0.06-5.87-0.41-8.76c-0.28-2.35-1.36-4.49-3.81-5.32
							c-1.21-0.41-2.55-0.48-3.83-0.45c-1.39,0.03-2.86,0.07-4.2,0.48c-3.01,0.93-3.1,3.94-3.11,6.47c0,0.37,0.24,0.74,0.66,0.57
							c0.43-0.17,0.65-0.79,0.66-1.19c0-0.95-0.05-1.98,0.23-2.91c0.29-0.95,1.48-1.21,2.38-1.35c1.97-0.3,4.25-0.44,6.17,0.08
							c2.27,0.62,3.3,2.37,3.56,4.53c0.31,2.51,0.25,5.09,0.34,7.62c0.09,2.43,0.29,4.88,0.24,7.32c-0.03,1.73-0.28,3.76-2.06,4.68
							c-1.04,0.53-2.26,0.6-3.41,0.61c-1.06,0.01-2.13-0.02-3.17-0.17c-2.19-0.31-3.9-1.3-4.25-3.52c-0.21-1.33-0.13-2.73-0.15-4.08
							c-0.02-1.46-0.02-2.93-0.02-4.39c0.01-2.97,0.07-5.95,0.18-8.92c0.01-0.37-0.25-0.73-0.66-0.57
							C46.44,75.26,46.24,75.88,46.23,76.28L46.23,76.28z"/>
					</g>
				</g>
				<g>
					<path class="st0" d="M99.36,80.06c-0.02,5.73-2.28,13.5,1.43,15.41c2.02,1.04,12.77,1.61,12.93-1.45
						c1.05-19.83,3.34-24.2-7.87-24.03c-2.05,0.03-4.09-0.26-5.29,1.39c-1.19,1.65-1.11,5.83-1.12,8.8"/>
					<g>
						<path d="M98.7,80.37c-0.03,3.6-0.85,7.19-0.68,10.79c0.11,2.39,0.78,4.94,3.48,5.57c2.43,0.57,5.13,0.64,7.62,0.4
							c2.01-0.2,4.84-0.73,5.23-3.05c0.16-0.95,0.12-1.96,0.18-2.92c0.06-0.98,0.12-1.95,0.19-2.93c0.11-1.66,0.24-3.33,0.35-4.99
							c0.16-2.43,0.36-4.9,0.19-7.33c-0.11-1.55-0.34-3.23-1.29-4.53c-0.85-1.16-2.19-1.76-3.63-2.04c-0.95-0.18-1.93-0.25-2.9-0.27
							c-1.58-0.04-3.36-0.2-4.9,0.19c-3.73,0.95-3.68,5.67-3.74,8.57c-0.02,0.89-0.01,1.78-0.02,2.67c0,0.37,0.24,0.74,0.66,0.57
							c0.43-0.17,0.65-0.79,0.66-1.19c0.01-1.66-0.02-3.34,0.13-5c0.1-1.13,0.16-2.78,1.29-3.47c1.31-0.8,3.39-0.49,4.86-0.49
							c0.9,0,1.81,0.03,2.7,0.16c1.29,0.18,2.59,0.53,3.49,1.44c0.86,0.86,1.16,2.1,1.31,3.33c0.24,1.94,0.11,4.01,0,5.99
							c-0.17,3.04-0.42,6.08-0.61,9.13c-0.06,0.88-0.11,1.75-0.16,2.63c-0.01,0.2-0.1,0.56-0.04,0.75c-0.02-0.06,0.09-0.27,0-0.1
							c0.06-0.12,0.04-0.05-0.04,0c-0.76,0.52-1.62,0.74-2.53,0.89c-2.32,0.38-4.79,0.32-7.1-0.01c-0.88-0.13-1.91-0.25-2.61-0.79
							c-1.08-0.82-1.35-2.26-1.43-3.51c-0.24-3.69,0.64-7.38,0.67-11.07c0-0.37-0.24-0.73-0.66-0.57
							C98.92,79.34,98.7,79.97,98.7,80.37L98.7,80.37z"/>
					</g>
				</g>
				<g>
					<path class="st1" d="M56.66,103.49c14.71-0.01,30.22-0.42,44.93-0.43c1.07,0,2.3,0.08,2.9,0.92c0.51,0.72,0.35,1.71,0.11,2.57
						c-2.94,10.75-14.34,18.8-25.65,18.12c-11.31-0.68-21.26-10.02-22.4-21.02"/>
					<g>
						<path d="M56.49,104.42c9.24-0.01,18.49-0.16,27.74-0.29c4.62-0.06,9.23-0.11,13.85-0.13c1.12,0,2.23-0.02,3.34-0.01
							c0.77,0,1.76,0.01,2.35,0.55c0.73,0.67,0.29,1.79,0.04,2.6c-0.26,0.82-0.56,1.63-0.92,2.41c-2.65,5.79-7.92,10.39-14.04,12.69
							c-6.43,2.42-13.48,1.87-19.38-1.35c-6.7-3.66-11.48-10.35-12.28-17.75c-0.05-0.43-0.5-0.48-0.81-0.25
							c-0.4,0.3-0.51,0.85-0.46,1.29c0.76,6.95,4.9,13.33,10.83,17.3c5.88,3.93,13.22,5.21,20.22,3.15
							c6.8-1.99,12.71-6.71,16.07-12.71c0.85-1.53,1.55-3.14,2.04-4.81c0.5-1.71,0.87-4.08-1.33-4.77
							c-0.89-0.28-1.89-0.21-2.81-0.21c-1.21,0-2.42,0.01-3.63,0.01c-2.44,0.01-4.89,0.04-7.33,0.06
							c-9.84,0.11-19.68,0.3-29.51,0.34c-1.21,0.01-2.42,0.01-3.62,0.01C56.06,102.56,55.57,104.42,56.49,104.42L56.49,104.42z"/>
					</g>
				</g>
				<g class="st2">
					<path d="M57.84,105.26c3.24,5.14,8.37,8.92,13.93,11.57s13.88,5.26,20.89,5.15c-6.53,2.02-17.19,1.97-23.04-1.32
						c-5.86-3.29-11.61-10.06-13.01-16.54"/>
					<g>
						<path d="M57.26,105.96c5.52,8.66,15.94,13.59,26.03,15.88c3,0.68,6.09,1.11,9.19,1.07c0.05-0.6,0.11-1.21,0.16-1.81
							c-5.36,1.64-11.53,1.76-16.95,0.66c-2.62-0.53-5.04-1.45-7.22-2.92c-2.57-1.72-4.82-3.87-6.71-6.26
							c-2.1-2.65-3.79-5.69-4.53-8.97c-0.09-0.41-0.47-0.5-0.81-0.25c-0.37,0.27-0.56,0.87-0.46,1.29
							c1.34,6.02,5.59,11.47,10.6,15.18c2.25,1.66,4.7,2.87,7.48,3.54c2.94,0.71,6.03,0.96,9.07,0.91c3.22-0.06,6.46-0.47,9.55-1.41
							c0.61-0.19,1.05-1.82,0.16-1.81c-5.4,0.06-10.78-1.27-15.77-3.08c-4.71-1.7-9.21-3.97-13.01-7.12
							c-2.2-1.82-4.12-3.91-5.63-6.29C57.88,103.73,56.88,105.35,57.26,105.96L57.26,105.96z"/>
					</g>
				</g>
				<g class="st2">
					<path d="M47.58,72.22c-0.78,8.59,4.25,18.79,11.39,23.71c-3.53-1-7.99,1.57-10.79-0.74c-1.5-1.24-1.77-3.37-1.86-5.3
						c-0.26-5.52,0.06-11.08,0.97-16.55"/>
					<g>
						<path d="M46.92,72.52c-0.62,7.24,2.38,14.7,7.11,20.18c1.31,1.52,2.8,2.89,4.47,4.06c0.27-0.58,0.53-1.17,0.8-1.75
							c-1.75-0.46-3.56-0.18-5.34,0.05c-1.68,0.22-3.65,0.48-5.09-0.53c-1.75-1.24-1.84-3.57-1.92-5.48
							c-0.1-2.45-0.08-4.9,0.05-7.36c0.15-2.82,0.47-5.63,0.92-8.42c0.05-0.33-0.01-0.88-0.47-0.86c-0.45,0.02-0.75,0.65-0.8,1
							c-0.85,5.2-1.21,10.47-1.03,15.72c0.07,2.12,0.09,4.55,1.5,6.29c1.19,1.47,3.08,1.79,4.94,1.66c2.18-0.15,4.42-0.81,6.58-0.24
							c0.73,0.19,1.36-1.36,0.8-1.75c-5.8-4.04-9.66-10.68-10.9-17.42c-0.35-1.9-0.46-3.83-0.29-5.77c0.03-0.38-0.26-0.73-0.66-0.57
							C47.12,71.51,46.96,72.12,46.92,72.52L46.92,72.52z"/>
					</g>
				</g>
				<g class="st2">
					<path d="M101.43,72.34c0.48,8.41,4.49,16.52,10.9,22.06c-2.12,0.46-4.28,0.93-6.43,0.73c-2.15-0.2-4.46,0.39-5.53-1.43
						c-1.03-1.75-0.42-6.39-0.24-8.42c0.45-4.93,0.59-8.96,1.04-13.89"/>
					<g>
						<path d="M100.77,72.65c0.53,8.59,4.47,16.82,11.09,22.58c0.21-0.59,0.42-1.18,0.63-1.76c-1.33,0.29-2.66,0.58-4.01,0.71
							c-1.21,0.12-2.39-0.01-3.6-0.03c-1.71-0.02-3.74,0.07-4.22-1.86c-0.44-1.73-0.22-3.66-0.06-5.42c0.2-2.22,0.4-4.45,0.56-6.68
							c0.2-2.96,0.38-5.92,0.64-8.87c0.03-0.33,0.01-0.88-0.47-0.86c-0.43,0.02-0.77,0.66-0.8,1c-0.47,5.24-0.74,10.49-1.22,15.72
							c-0.18,1.97-0.39,4.05,0.04,5.99c0.18,0.81,0.53,1.62,1.24,2.12c0.78,0.56,1.75,0.66,2.7,0.69c1.29,0.04,2.62,0.14,3.92,0.1
							c1.67-0.06,3.32-0.41,4.95-0.77c0.63-0.14,1.17-1.3,0.63-1.76c-6.3-5.49-10.2-13.33-10.71-21.53
							C102.01,70.78,100.72,71.82,100.77,72.65L100.77,72.65z"/>
					</g>
				</g>
				<g class="st2">
					<path d="M30.54,44.7c-17.59,31.23-19.34,69.76-1.58,100.23c-3.81,2.26-8.97,0.48-11.74-2.82
						c-6.27-7.48-13.84-65.58,10.23-96.55"/>
					<g>
						<path d="M30.07,44.28c-6.91,12.29-11.47,25.75-13.32,39.5c-1.83,13.6-1.05,27.5,2.67,40.65c2.09,7.39,5.09,14.51,8.96,21.18
							c0.19-0.53,0.38-1.05,0.57-1.58c-2.32,1.33-5.05,1.15-7.41,0.11c-1.18-0.52-2.25-1.25-3.16-2.14
							c-0.29-0.28-0.56-0.58-0.81-0.89c0.1,0.13-0.13-0.18-0.17-0.24c-0.91-1.37-1.46-2.95-1.93-4.43
							c-1.71-5.37-2.56-11.03-3.13-16.61c-0.79-7.69-0.95-15.45-0.52-23.19c0.47-8.45,1.66-16.93,3.92-25.16
							c2.2-8.01,5.4-15.92,10.23-22.88c0.58-0.84,1.18-1.65,1.81-2.46c0.26-0.34,0.48-0.92,0.25-1.31c-0.23-0.38-0.67-0.21-0.9,0.09
							c-5.38,6.95-9.09,14.94-11.64,23.16c-2.64,8.5-4.1,17.29-4.78,26.09c-0.62,8.08-0.58,16.21,0.13,24.27
							c0.53,6.06,1.35,12.18,3.06,18.03c0.52,1.79,1.11,3.61,2.03,5.25c1.77,3.13,5.7,5.31,9.46,5.13c1.26-0.06,2.49-0.43,3.58-1.05
							c0.49-0.28,0.86-1.07,0.57-1.58c-6.78-11.66-10.82-24.71-12.01-38.08c-1.2-13.35,0.33-26.95,4.36-39.87
							c2.28-7.32,5.34-14.41,9.13-21.16c0.18-0.32,0.36-0.97,0.01-1.25C30.65,43.59,30.24,43.99,30.07,44.28L30.07,44.28z"/>
					</g>
				</g>
				<g class="st2">
					<g>
						<path d="M97.03,73.93c0.77-0.16,1.18-2.03,0.33-1.86C96.59,72.23,96.18,74.1,97.03,73.93L97.03,73.93z"/>
					</g>
				</g>
				<g class="st2">
					<g>
						<path class="st3" d="M103.68,45.28c2.34,0.21,4.68,0.43,7,0.73c1.17,0.15,2.34,0.32,3.5,0.52c0.54,0.09,1.09,0.19,1.63,0.29
							c0.76,0.15,0.69,0.13,1.48,0.31c4.32,0.99,8.52,2.49,12.07,5.02c8.66,6.19,10.72,16.89,11.35,26.7
							c0.42,6.45,0.39,12.97,1.68,19.32c0.08,0.41,0.81,0.54,1.12,0.58c0.75,0.1,1.66,0.01,2.4-0.15c0.78-0.17,1.58-0.39,2.27-0.8
							c0.32-0.19,0.9-0.54,0.81-0.97c-2.22-11.01-0.49-22.59-4.08-33.35c-1.56-4.69-4.19-9.11-8.14-12.32
							c-3.58-2.9-8-4.76-12.52-5.93c-5.28-1.38-10.75-1.96-16.21-2.45c-1.54-0.13-3.32,0.15-4.66,0.95
							c-0.32,0.19-0.9,0.54-0.81,0.97C102.65,45.12,103.35,45.25,103.68,45.28L103.68,45.28z"/>
					</g>
				</g>
				<g class="st2">
					<g>
						<path class="st3" d="M77.29,18.07c2.05,1.24,3.14,3.35,3.08,5.67c-0.04,1.26,6.54,0.54,6.59-1.34
							c0.07-2.47-1.26-4.89-3.43-6.2c-1.14-0.69-2.99-0.33-4.21,0.06C78.99,16.36,76.25,17.45,77.29,18.07L77.29,18.07z"/>
					</g>
				</g>
				<g class="st2">
					<g>
						<path class="st3" d="M103.94,60.18c4.97,0.45,9.82,0.87,14.36,2.78c4.02,1.69,7.46,4.64,9.02,8.63
							c1.85,4.72,1.38,9.97,1.06,14.93c-0.36,5.41-0.71,10.82-1.07,16.22c-0.4,6.11-0.8,12.21-1.21,18.32
							c-0.08,1.2,6.47,0.57,6.59-1.34c0.73-11.05,1.45-22.1,2.18-33.15c0.34-5.09,0.96-10.45-0.63-15.38
							c-1.44-4.46-4.79-7.72-9.05-9.84c-5.17-2.57-11.15-3.15-16.9-3.67c-1.53-0.14-3.32,0.15-4.66,0.95
							c-0.32,0.19-0.9,0.54-0.81,0.97C102.91,60.01,103.61,60.15,103.94,60.18L103.94,60.18z"/>
					</g>
				</g>
				<g class="st2">
					<g>
						<path class="st3" d="M105.14,84.98c2.66-2.91,5.31-5.81,7.97-8.72c0.93-1.02-0.66-1.28-1.49-1.26
							c-0.86,0.02-1.74,0.14-2.56,0.41c-0.61,0.2-1.43,0.43-1.87,0.9c-2.66,2.91-5.31,5.81-7.97,8.72
							c-0.93,1.02,0.66,1.28,1.49,1.26c0.86-0.02,1.74-0.14,2.56-0.41C103.89,85.68,104.71,85.45,105.14,84.98L105.14,84.98z"/>
					</g>
				</g>
				<g class="st2">
					<g>
						<path class="st3" d="M108.94,86.89c1.18-1.45,2.36-2.9,3.54-4.35c0.3-0.36-0.26-0.69-0.5-0.78c-0.59-0.22-1.46-0.18-2.07-0.1
							c-1.34,0.17-3.02,0.5-3.9,1.59c-1.18,1.45-2.36,2.9-3.54,4.35c-0.3,0.36,0.26,0.69,0.5,0.78c0.59,0.22,1.46,0.18,2.07,0.1
							C106.38,88.31,108.05,87.97,108.94,86.89L108.94,86.89z"/>
					</g>
				</g>
				<g class="st2">
					<g>
						<path class="st3" d="M75.47,116.13c4.61-2.55,9.22-5.11,13.84-7.66c0.28-0.15,0.89-0.56,0.81-0.97
							c-0.08-0.41-0.81-0.54-1.12-0.58c-1.53-0.17-3.31,0.2-4.66,0.95c-4.61,2.55-9.22,5.11-13.84,7.66
							c-0.28,0.15-0.89,0.56-0.81,0.97c0.08,0.41,0.81,0.54,1.12,0.58C72.33,117.24,74.12,116.87,75.47,116.13L75.47,116.13z"/>
					</g>
				</g>
				<g class="st2">
					<g>
						<path class="st3" d="M54.31,84.56c1.67-2.03,3.35-4.06,5.02-6.1c0.3-0.36-0.26-0.69-0.5-0.78c-0.59-0.22-1.46-0.18-2.07-0.1
							c-1.35,0.17-3.01,0.51-3.9,1.59c-1.67,2.03-3.35,4.06-5.02,6.1c-0.3,0.36,0.26,0.69,0.5,0.78c0.59,0.22,1.46,0.18,2.07,0.1
							C51.76,85.99,53.42,85.65,54.31,84.56L54.31,84.56z"/>
					</g>
				</g>
				<g class="st2">
					<g>
						<path class="st3" d="M55.48,90.32c1.67-1.84,3.34-3.68,5.02-5.52c0.92-1.02-0.66-1.28-1.49-1.26
							c-0.86,0.02-1.74,0.14-2.56,0.41c-0.61,0.2-1.43,0.42-1.87,0.9c-1.67,1.84-3.34,3.68-5.02,5.52
							c-0.92,1.02,0.66,1.28,1.49,1.26c0.86-0.02,1.74-0.14,2.56-0.41C54.22,91.03,55.05,90.8,55.48,90.32L55.48,90.32z"/>
					</g>
				</g>
				<g class="st2">
					<g>
						<path class="st3" d="M74.94,115.65c3.85-2.52,7.69-5.03,11.54-7.55c0.27-0.18,0.89-0.55,0.81-0.97
							c-0.08-0.41-0.81-0.54-1.12-0.58c-1.43-0.16-3.43,0.14-4.66,0.95c-3.85,2.52-7.69,5.03-11.54,7.55
							c-0.27,0.18-0.89,0.55-0.81,0.97c0.08,0.41,0.81,0.54,1.12,0.58C71.71,116.76,73.7,116.46,74.94,115.65L74.94,115.65z"/>
					</g>
				</g>
				<g class="st2">
					<g>
						<path class="st3" d="M80.88,119.41c3.63-2.55,7.25-5.1,10.88-7.64c0.32-0.23,0.45-0.63,0.16-0.91
							c-0.34-0.33-1.23-0.36-1.65-0.35c-1.56,0.03-3.16,0.42-4.43,1.31c-3.63,2.55-7.25,5.1-10.88,7.64
							c-0.32,0.23-0.45,0.63-0.16,0.91c0.34,0.33,1.23,0.36,1.65,0.35C78,120.69,79.61,120.3,80.88,119.41L80.88,119.41z"/>
					</g>
				</g>
			</g>
		</g>
	</g>
	<ellipse class="st4" cx="55.05" cy="78.18" rx="1.9" ry="3.17"/>
	<ellipse class="st4" cx="109.88" cy="76.62" rx="1.9" ry="3.17"/>
	<path class="st5" d="M55.05,76.13c0-0.27,0.21-0.48,0.43-0.48s0.32,0.22,0.32,0.48s-0.11,0.48-0.32,0.48S55.05,76.4,55.05,76.13z"
		/>
	<path class="st5" d="M109.88,75.01c0-0.27,0.21-0.48,0.43-0.48s0.32,0.22,0.32,0.48s-0.11,0.48-0.32,0.48
		S109.88,75.28,109.88,75.01z"/>
	<ellipse class="st6" cx="44.48" cy="97.76" rx="7.25" ry="6"/>
	<ellipse class="st6" cx="115.23" cy="96.28" rx="7.25" ry="6"/>
</g>
<g id="Ebene_9_6_">
</g>
<g id="Ebene_3">
	<g>
		<g id="Ebene_2_Kopie_3_">
			<g>
				<path class="st10" d="M134.17,59.95c4.15,1.64,16.77,6.7,18.7,5.28c3.14-2.3,18.03-34.07,16.67-36.9
					C166.7,22.4,115.58,0.15,109.1,3.65c-5.85,3.16-11.06,35.95-10.11,38.37c1.43,3.67,10.54,5.3,13.99,8.3
					c1.54,1.34,6,13.95,8.03,14.55c1.15,0.34,9.54-2.42,13.03-4.96"/>
				<g>
					<path class="st10" d="M134.06,60.27c4.07,1.61,8.16,3.23,12.37,4.48c1.01,0.3,2.03,0.58,3.07,0.79
						c0.77,0.16,1.56,0.3,2.35,0.28c0.49-0.01,0.97-0.08,1.36-0.42c0.3-0.26,0.55-0.58,0.78-0.89c0.78-1.04,1.45-2.17,2.09-3.29
						c0.93-1.61,1.81-3.26,2.66-4.91c2.06-3.99,3.99-8.06,5.81-12.17c1.6-3.62,3.17-7.28,4.42-11.04c0.39-1.16,0.77-2.36,0.95-3.58
						c0.05-0.35,0.09-0.72,0.02-1.06c-0.06-0.3-0.24-0.56-0.42-0.79c-0.52-0.68-1.2-1.23-1.86-1.74c-0.98-0.76-2.02-1.44-3.07-2.09
						c-2.94-1.82-6-3.43-9.08-4.97c-3.78-1.89-7.61-3.66-11.48-5.35c-4.02-1.75-8.07-3.41-12.18-4.95
						c-3.66-1.38-7.36-2.67-11.12-3.76c-2.73-0.79-5.53-1.55-8.38-1.8c-0.87-0.07-1.78-0.11-2.64,0.09
						c-0.9,0.21-1.59,0.83-2.16,1.57c-0.93,1.18-1.58,2.58-2.16,3.96c-0.78,1.84-1.4,3.74-1.97,5.65
						c-1.31,4.42-2.31,8.93-3.14,13.46c-0.68,3.7-1.3,7.43-1.6,11.17c-0.08,0.95-0.19,1.98-0.05,2.92c0.09,0.61,0.49,1.15,0.88,1.58
						c0.73,0.8,1.65,1.39,2.58,1.9c2.31,1.27,4.82,2.13,7.21,3.23c1.06,0.49,2.12,1.01,3.06,1.72c0.32,0.24,0.44,0.32,0.66,0.61
						c0.17,0.23,0.31,0.46,0.44,0.7c0.98,1.72,1.75,3.58,2.58,5.38c0.91,1.99,1.8,4.01,2.89,5.9c0.37,0.64,0.76,1.31,1.27,1.84
						c0.39,0.4,0.77,0.59,1.33,0.54c0.84-0.07,1.68-0.31,2.49-0.54c1.21-0.35,2.41-0.76,3.6-1.21c2.29-0.87,4.64-1.85,6.65-3.31
						c0.35-0.25-0.07-0.76-0.41-0.51c-0.97,0.71-2.05,1.26-3.12,1.77c-1.22,0.58-2.46,1.09-3.72,1.56
						c-1.13,0.42-2.28,0.81-3.45,1.13c-0.71,0.2-1.57,0.45-2.26,0.45c-0.04,0-0.09,0-0.13-0.01c-0.12-0.01,0.02,0.01-0.06-0.01
						c-0.04-0.01-0.07-0.03-0.1-0.04c0.08,0.04-0.07-0.05-0.1-0.07c-0.19-0.14-0.34-0.32-0.52-0.54c-0.49-0.63-0.89-1.34-1.27-2.04
						c-1.05-1.95-1.95-3.99-2.87-6.02c-0.76-1.68-1.48-3.42-2.45-4.98c-0.37-0.6-0.82-1.01-1.41-1.4c-0.97-0.66-2.04-1.18-3.11-1.66
						c-2.36-1.07-4.84-1.91-7.1-3.2c-0.87-0.5-1.77-1.07-2.41-1.88c-0.12-0.15-0.24-0.32-0.33-0.49c-0.05-0.1-0.09-0.2-0.14-0.29
						c-0.01-0.02-0.05-0.17-0.02-0.03c-0.03-0.12-0.05-0.24-0.06-0.36c-0.04-0.35-0.03-0.74-0.01-1.19
						c0.02-0.61,0.07-1.21,0.12-1.81c0.15-1.68,0.37-3.35,0.61-5.02c0.64-4.35,1.46-8.69,2.47-12.98c0.95-4.04,2.02-8.13,3.67-11.95
						c0.56-1.3,1.2-2.62,2.1-3.7c0.27-0.33,0.68-0.72,1.03-0.91c0.06-0.03,0.12-0.06,0.18-0.09c0.03-0.01,0.06-0.02,0.09-0.03
						c0.1-0.04-0.04,0.01,0.07-0.02c0.16-0.05,0.31-0.09,0.47-0.12c0.43-0.08,0.68-0.09,1.13-0.09c0.51,0,1.01,0.04,1.51,0.09
						c1.25,0.13,2.48,0.37,3.7,0.65c3.37,0.77,6.68,1.81,9.95,2.94c3.96,1.36,7.87,2.86,11.75,4.44c3.99,1.63,7.94,3.35,11.84,5.18
						c3.47,1.62,6.91,3.31,10.27,5.15c2.42,1.33,4.86,2.71,7.07,4.4c0.37,0.29,0.74,0.58,1.08,0.9c0.06,0.06,0.06,0.06,0.16,0.16
						c0.07,0.07,0.14,0.14,0.2,0.21c0.11,0.12,0.22,0.24,0.32,0.37c0.04,0.06,0.08,0.11,0.12,0.17c0.02,0.03,0.04,0.06,0.06,0.09
						c-0.06-0.1,0,0.01,0.02,0.03c0.02,0.05,0.05,0.1,0.07,0.14c0.04,0.09-0.01-0.07,0,0.01c0.01,0.03,0.01,0.06,0.02,0.09
						c0.01,0.04,0.02,0.24,0.02,0.12c0,0.08,0,0.17,0,0.25c-0.01,0.2-0.04,0.41-0.07,0.61c-0.18,1.13-0.58,2.35-0.97,3.5
						c-0.58,1.71-1.23,3.39-1.9,5.07c-1.65,4.08-3.45,8.09-5.35,12.05c-1.71,3.59-3.49,7.16-5.48,10.6
						c-0.64,1.12-1.3,2.24-2.08,3.27c-0.26,0.35-0.39,0.53-0.69,0.79c-0.13,0.11-0.2,0.15-0.34,0.18c-0.27,0.07-0.48,0.08-0.75,0.07
						c-0.81-0.01-1.61-0.16-2.39-0.34c-1.04-0.23-2.06-0.52-3.08-0.83c-2.31-0.7-4.59-1.52-6.85-2.37c-1.71-0.64-3.4-1.31-5.09-1.98
						C133.9,59.48,133.67,60.12,134.06,60.27L134.06,60.27z"/>
				</g>
			</g>
		</g>
		<g id="Ebene_7_2_">
			<g class="st2">
				<g>
					<path class="st3" d="M152.95,24.31c1.21,0.69,2.49,1.25,3.74,1.85c0.35,0.17,0.69,0.33,1.04,0.5c0.17,0.08,0.34,0.17,0.5,0.25
						c0.08,0.04,0.17,0.09,0.25,0.13c0.27,0.14-0.23-0.12,0.05,0.02c0.65,0.34,1.29,0.7,1.9,1.1c0.29,0.19,0.57,0.38,0.84,0.59
						c0.12,0.09,0.24,0.19,0.36,0.29c0.06,0.05,0.11,0.1,0.17,0.15c0.23,0.2-0.15-0.16-0.02-0.02c0.19,0.2,0.38,0.39,0.54,0.62
						c0.03,0.05,0.06,0.11,0.1,0.15c-0.05-0.06-0.17-0.3-0.07-0.11c0.05,0.11,0.09,0.25,0.15,0.35c-0.03-0.06-0.09-0.36-0.05-0.15
						c0.01,0.05,0.02,0.1,0.03,0.15c0.06,0.3,0.03-0.28,0-0.09c-0.02,0.1-0.08,0.45-0.01,0.13c0.07-0.32,0.01-0.06-0.01,0.02
						c-0.02,0.07-0.04,0.15-0.06,0.22c-0.05,0.17-0.1,0.33-0.16,0.5c-0.77,2.25-1.79,4.43-2.78,6.58c-1.39,3.06-2.84,6.1-4.29,9.13
						c-1.37,2.87-2.75,5.73-4.11,8.61c-0.14,0.3-0.28,0.6-0.42,0.89c-0.3,0.64,0.14,1.52,0.76,1.71c0.73,0.22,1.35-0.15,1.67-0.84
						c1.33-2.84,2.69-5.66,4.04-8.49c1.49-3.12,2.97-6.23,4.42-9.37c1.06-2.32,2.16-4.64,3.02-7.05c0.22-0.61,0.5-1.33,0.5-1.98
						c-0.01-1.54-1.06-2.67-2.16-3.54c-1.24-0.97-2.66-1.69-4.05-2.39c-1.29-0.65-2.61-1.23-3.9-1.89c-0.06-0.03-0.13-0.07-0.19-0.1
						c-0.19-0.1,0.3,0.16,0.07,0.04c-0.12-0.07-0.24-0.13-0.36-0.2c-0.59-0.33-1.4-0.3-1.81,0.36
						C152.3,23.01,152.32,23.96,152.95,24.31L152.95,24.31z"/>
				</g>
			</g>
			<g class="st2">
				<g>
					<path class="st3" d="M147.99,60.56c-0.06,0.29-0.12,0.59-0.17,0.88c0.77-0.27,1.53-0.54,2.3-0.81
						c-0.24-0.31-0.47-0.63-0.71-0.94c-0.15,0.7-0.31,1.39-0.46,2.09c-0.18,0.07-0.35,0.11-0.54,0.08c-0.08,0-0.15-0.03-0.22-0.08
						c-0.12-0.07-0.13-0.07-0.05-0.02c-0.12-0.1-0.2-0.2-0.27-0.34c0.04,0.09,0.03,0.07-0.01-0.05c-0.04-0.1-0.06-0.22-0.05-0.33
						c0.36-0.41,0.71-0.83,1.07-1.24c0.02,0,0.33,0.01,0.16-0.01c0.16,0.02,0.29,0.06,0.43,0.15c-0.14-0.09,0.1,0.1,0.11,0.12
						c-0.11-0.12,0.07,0.11,0.08,0.14c0.06,0.14,0.07,0.29,0.06,0.44c0.01-0.24-0.18,0.46-0.17,0.44c0.08-0.15-0.08,0.1-0.11,0.12
						c-0.06,0.04-0.12,0.08-0.18,0.12c-0.21,0.06-0.27,0.08-0.17,0.06c0.15-0.02-0.3,0.01-0.15,0.01c0.07,0.01,0.04,0-0.08-0.02
						c-0.08,0-0.15-0.03-0.21-0.07c-0.27-0.13-0.44-0.39-0.45-0.71c-0.01-0.29-0.05,0.13,0.02-0.17c0.06-0.3-0.08,0.11,0.06-0.17
						c0.03-0.08,0.07-0.14,0.13-0.19c0.09-0.09,0.11-0.11,0.06-0.06c-0.09,0.08,0.3-0.16,0.1-0.09c0.61,0.31,1.21,0.62,1.82,0.94
						c-0.03-0.13-0.06-0.26-0.09-0.39c-0.15-0.68-0.79-1.23-1.5-1.05c-0.66,0.17-1.22,0.86-1.06,1.59c0.03,0.13,0.06,0.26,0.09,0.39
						c0.09,0.42,0.3,0.73,0.67,0.92c0.39,0.2,0.74,0.16,1.15,0.01c0.82-0.3,1.28-1.38,1.11-2.21c-0.21-0.99-1.18-1.62-2.15-1.36
						c-0.93,0.26-1.66,1.23-1.41,2.25c0.24,0.98,1.14,1.64,2.14,1.43c0.57-0.12,1.02-0.65,1.07-1.24c0.06-0.64-0.22-1.3-0.73-1.66
						c-0.55-0.39-1.16-0.41-1.79-0.16c-0.82,0.33-0.93,1.47-0.46,2.09c0.24,0.31,0.47,0.63,0.71,0.94c0.31,0.42,0.91,0.55,1.39,0.38
						c0.54-0.19,0.8-0.63,0.91-1.19c0.06-0.29,0.12-0.59,0.17-0.88c0.06-0.31-0.11-0.73-0.29-0.96c-0.2-0.25-0.56-0.46-0.89-0.46
						c-0.33,0-0.68,0.09-0.93,0.33C148.19,59.89,148.07,60.18,147.99,60.56L147.99,60.56z"/>
				</g>
			</g>
		</g>
		<g id="Ebene_2_4_">
			<g>
				<g>
					<path d="M131.1,62.38c4.08,1.62,8.17,3.24,12.38,4.49c1.01,0.3,2.03,0.58,3.07,0.79c0.82,0.17,1.67,0.34,2.52,0.32
						c0.66-0.02,1.29-0.12,1.82-0.58c0.34-0.29,0.62-0.65,0.89-1.01c0.78-1.03,1.45-2.17,2.1-3.29c0.93-1.62,1.81-3.27,2.67-4.93
						c2.08-4.03,4.03-8.14,5.87-12.29c1.6-3.61,3.17-7.27,4.4-11.03c0.39-1.2,0.78-2.44,0.95-3.69c0.05-0.4,0.08-0.83,0-1.22
						c-0.09-0.42-0.32-0.78-0.57-1.1c-0.56-0.72-1.3-1.31-2.02-1.86c-0.99-0.76-2.04-1.44-3.1-2.09c-2.98-1.84-6.1-3.47-9.23-5.04
						c-3.77-1.89-7.61-3.66-11.47-5.34c-4.01-1.75-8.06-3.41-12.16-4.95c-3.65-1.37-7.34-2.67-11.08-3.76
						c-2.79-0.81-5.66-1.6-8.57-1.86c-0.93-0.08-1.91-0.12-2.83,0.09c-1.06,0.24-1.87,0.94-2.56,1.79
						c-0.97,1.21-1.65,2.67-2.25,4.09c-0.78,1.83-1.41,3.73-1.97,5.64c-1.32,4.46-2.32,9.01-3.16,13.58
						c-0.68,3.71-1.29,7.46-1.58,11.21c-0.08,0.99-0.18,2.07-0.03,3.05c0.12,0.73,0.56,1.39,1.04,1.9c0.79,0.85,1.76,1.48,2.76,2.03
						c2.38,1.29,4.93,2.18,7.38,3.32c0.27,0.12,0.54,0.25,0.8,0.38c0.07,0.04,0.14,0.07,0.21,0.11c0.04,0.02,0.27,0.14,0.05,0.02
						c0.14,0.07,0.27,0.14,0.4,0.22c0.49,0.27,0.98,0.57,1.43,0.91c0.09,0.06,0.17,0.13,0.25,0.2c0.05,0.04,0.09,0.09,0.14,0.12
						c0.1,0.07-0.2-0.22-0.12-0.11c0.06,0.09,0.14,0.16,0.21,0.25c0.08,0.1,0.14,0.21,0.21,0.31c0.16,0.24-0.1-0.18,0.02,0.02
						c0.05,0.09,0.1,0.18,0.15,0.27c0.97,1.72,1.75,3.56,2.58,5.36c0.91,1.99,1.81,4,2.91,5.89c0.4,0.68,0.81,1.4,1.36,1.97
						c0.26,0.27,0.54,0.52,0.89,0.65c0.35,0.13,0.7,0.12,1.07,0.08c0.85-0.08,1.7-0.31,2.52-0.55c1.26-0.36,2.5-0.79,3.73-1.25
						c2.33-0.88,4.69-1.88,6.75-3.36c0.44-0.32,0.45-1.04,0.14-1.42c-0.36-0.45-0.93-0.42-1.37-0.1c-0.06,0.04-0.41,0.28-0.17,0.12
						c-0.11,0.07-0.22,0.14-0.32,0.21c-0.25,0.16-0.51,0.31-0.77,0.46c-0.56,0.31-1.13,0.6-1.71,0.88
						c-1.22,0.58-2.46,1.08-3.71,1.55c-0.13,0.05-0.27,0.1-0.4,0.15c-0.03,0.01-0.29,0.1-0.08,0.03c-0.08,0.03-0.16,0.06-0.24,0.08
						c-0.31,0.11-0.62,0.21-0.93,0.31c-0.54,0.17-1.08,0.34-1.63,0.49c-0.44,0.12-0.89,0.23-1.34,0.32
						c-0.17,0.03-0.34,0.06-0.51,0.09c-0.07,0.01-0.17,0-0.23,0.03c0.25-0.09,0.18-0.01,0.02-0.01c-0.05,0-0.11-0.01-0.16-0.01
						c-0.18,0,0.17,0.05,0.13,0.03c-0.02-0.02-0.1-0.05-0.13-0.05c0.25,0.03,0.21,0.13,0.08,0.03c-0.05-0.04-0.09-0.07-0.14-0.11
						c-0.16-0.12,0.18,0.19,0.04,0.04c-0.1-0.11-0.2-0.22-0.3-0.34c-0.23-0.28-0.42-0.59-0.62-0.89c-0.04-0.06-0.15-0.21,0.02,0.03
						c-0.03-0.04-0.06-0.1-0.09-0.14c-0.05-0.09-0.11-0.18-0.16-0.27c-0.12-0.21-0.24-0.42-0.36-0.64
						c-1.05-1.94-1.96-3.97-2.88-5.99c-0.8-1.73-1.55-3.52-2.56-5.14c-0.39-0.63-0.88-1.07-1.48-1.48
						c-1.04-0.71-2.18-1.27-3.32-1.78c-1.2-0.54-2.42-1.03-3.63-1.55c-0.6-0.25-1.19-0.51-1.78-0.79c-0.27-0.13-0.54-0.26-0.81-0.39
						c-0.07-0.04-0.14-0.07-0.21-0.11c-0.23-0.12,0.13,0.07-0.01-0.01c-0.15-0.08-0.3-0.16-0.44-0.24c-0.48-0.27-0.95-0.56-1.4-0.9
						c-0.19-0.14-0.37-0.3-0.56-0.46c-0.17-0.14,0.15,0.16,0,0c-0.04-0.04-0.09-0.09-0.13-0.13c-0.08-0.09-0.16-0.18-0.24-0.27
						c-0.07-0.09-0.14-0.18-0.21-0.28c-0.02-0.03-0.04-0.06-0.06-0.09c-0.12-0.16,0.1,0.21,0.02,0.03c-0.06-0.13-0.12-0.32-0.2-0.43
						c0.16,0.23,0.07,0.28,0.05,0.16c0-0.02-0.01-0.05-0.02-0.07c-0.01-0.07-0.02-0.14-0.03-0.21c-0.01-0.08-0.01-0.15-0.02-0.23
						c-0.02-0.24,0,0.18,0,0.09c0-0.05,0-0.1,0-0.15c0-0.23,0-0.47,0.01-0.71c0.02-0.61,0.06-1.22,0.12-1.83
						c0.14-1.67,0.36-3.33,0.6-4.99c0.3-2.08,0.65-4.15,1.03-6.21c0.21-1.14,0.44-2.27,0.67-3.41c0.06-0.27,0.11-0.54,0.17-0.81
						c0.02-0.07,0.1-0.46,0.04-0.17c0.04-0.17,0.07-0.34,0.11-0.51c0.12-0.56,0.25-1.12,0.38-1.68c0.94-4.03,2.01-8.11,3.66-11.92
						c0.17-0.39,0.34-0.77,0.53-1.14c0.04-0.08,0.19-0.35,0.01-0.03c0.05-0.09,0.09-0.18,0.14-0.26c0.09-0.17,0.18-0.34,0.28-0.5
						c0.32-0.56,0.67-1.09,1.07-1.58c0.02-0.03,0.05-0.05,0.07-0.08c0.01-0.01-0.2,0.21-0.1,0.12c0.05-0.05,0.09-0.1,0.14-0.15
						c0.09-0.09,0.19-0.19,0.29-0.27c0.09-0.07,0.18-0.14,0.26-0.21c0.16-0.12-0.25,0.15-0.04,0.03c0.05-0.03,0.1-0.06,0.14-0.08
						c0.06-0.03,0.12-0.06,0.18-0.08c0.03-0.02,0.07-0.03,0.1-0.04c0.03-0.02-0.3,0.09-0.11,0.04c0.16-0.04,0.32-0.08,0.48-0.11
						c0.09-0.01,0.17-0.03,0.26-0.04c0.05-0.01,0.1-0.01,0.15-0.02c0.24-0.03-0.14,0.01-0.07,0c0.21-0.01,0.42-0.02,0.64-0.02
						c0.51,0,1.02,0.04,1.52,0.1c0.59,0.07,1.18,0.15,1.76,0.26c0.15,0.03,0.3,0.06,0.46,0.08c0.07,0.01,0.14,0.03,0.21,0.04
						c0.04,0.01,0.09,0.02,0.13,0.03c0.24,0.05-0.2-0.04-0.04-0.01c0.34,0.07,0.69,0.15,1.03,0.22c3.37,0.77,6.68,1.82,9.95,2.95
						c3.93,1.35,7.82,2.84,11.67,4.42c3.99,1.63,7.95,3.36,11.86,5.18c1.82,0.85,3.63,1.72,5.43,2.62c0.86,0.43,1.71,0.86,2.56,1.31
						c-0.23-0.12-0.02-0.01,0.08,0.04c0.1,0.05,0.21,0.11,0.31,0.16c0.2,0.11,0.41,0.22,0.61,0.33c0.38,0.2,0.76,0.41,1.14,0.62
						c2.43,1.33,4.87,2.71,7.09,4.39c0.37,0.28,0.74,0.58,1.09,0.9c0.03,0.03,0.06,0.06,0.1,0.09c-0.3-0.26-0.12-0.12-0.05-0.05
						c0.07,0.07,0.14,0.14,0.2,0.21c0.11,0.12,0.22,0.24,0.33,0.38c0.04,0.06,0.09,0.11,0.13,0.17c0.02,0.03,0.04,0.06,0.06,0.08
						c0.1,0.14-0.15-0.27-0.06-0.11c0.02,0.05,0.05,0.1,0.08,0.15c0.1,0.17-0.05-0.32-0.02-0.07c0.01,0.06,0.01,0.13,0.02,0.19
						c-0.06-0.31,0-0.18-0.01,0c-0.01,0.19-0.03,0.38-0.06,0.57c-0.02,0.11-0.03,0.21-0.06,0.32c-0.01,0.06-0.02,0.12-0.04,0.19
						c-0.05,0.27,0.06-0.25,0.01-0.04c-0.06,0.28-0.13,0.55-0.21,0.83c-0.19,0.68-0.4,1.36-0.62,2.03
						c-0.57,1.69-1.21,3.35-1.87,5.01c-1.64,4.08-3.45,8.1-5.35,12.07c-0.47,0.99-0.96,1.98-1.44,2.97
						c-0.24,0.48-0.47,0.95-0.71,1.43c-0.03,0.05-0.14,0.27,0,0c-0.03,0.05-0.05,0.1-0.08,0.15c-0.06,0.11-0.11,0.22-0.17,0.33
						c-0.12,0.24-0.24,0.47-0.36,0.71c-0.84,1.62-1.7,3.23-2.61,4.81c-0.64,1.12-1.31,2.24-2.08,3.27
						c-0.13,0.17-0.27,0.32-0.39,0.49c0.26-0.34,0.08-0.08-0.01,0c-0.05,0.05-0.11,0.11-0.17,0.16c-0.02,0.02-0.05,0.04-0.07,0.06
						c-0.11,0.11,0.26-0.13,0.1-0.07c-0.04,0.01-0.1,0.04-0.14,0.06c-0.07,0.04-0.17-0.07,0.16-0.06c-0.03,0-0.08,0.02-0.11,0.03
						c-0.12,0.02-0.23,0.04-0.35,0.06c-0.16,0.02,0.27-0.01,0.11-0.01c-0.04,0-0.08,0-0.11,0c-0.08,0-0.16,0-0.24,0
						c-0.36-0.01-0.72-0.05-1.08-0.1c-0.2-0.03-0.4-0.06-0.6-0.1c-0.08-0.01-0.48-0.08-0.15-0.03c-0.12-0.02-0.24-0.05-0.36-0.08
						c-1.05-0.23-2.09-0.53-3.11-0.84c-2.3-0.7-4.57-1.52-6.82-2.36c-1.71-0.64-3.4-1.31-5.1-1.98c-0.49-0.19-1.07,0.13-1.25,0.63
						C130.34,61.64,130.61,62.19,131.1,62.38L131.1,62.38z"/>
				</g>
			</g>
		</g>
		<g id="Ebene_9_2_">
			<g class="st11">
				<path d="M108.45,4.12c-6.36,17.91,5.11,45.82,14.22,61.22c-1.76-0.12-2.94-3.2-5.42-7.39c-3.51-5.93-1.93-5.94-4.29-8.09
					c-1.96-1.78-4.87-2.52-7.32-3.49c-2.26-0.89-4.97-2.33-6-4.06c-1.36-2.28,2.38-23.74,7.2-36.03"/>
				<g>
					<path d="M107.84,3.91c-1.32,3.72-1.84,7.68-1.88,11.59c-0.04,4.34,0.48,8.65,1.32,12.87c0.89,4.47,2.15,8.85,3.63,13.14
						c1.46,4.22,3.15,8.36,5.02,12.39c1.68,3.62,3.5,7.17,5.48,10.61c0.22,0.38,0.44,0.76,0.66,1.14c0.22-0.32,0.43-0.65,0.65-0.97
						c-0.05,0-0.09-0.01-0.14-0.02c0.17,0.02,0.03,0.01-0.01-0.01c-0.08-0.03-0.15-0.05-0.22-0.08c-0.17-0.07,0.05,0.04-0.11-0.06
						c-0.09-0.06-0.18-0.12-0.26-0.19c-0.04-0.04-0.09-0.07-0.13-0.11c0.09,0.08,0,0-0.03-0.03c-0.08-0.08-0.16-0.17-0.23-0.25
						c-0.17-0.19-0.32-0.4-0.47-0.61c-0.78-1.11-1.4-2.35-2.07-3.54c-1.3-2.33-2.75-4.58-3.64-7.14c-0.18-0.51-0.32-1.04-0.57-1.52
						c-0.31-0.6-0.74-1.09-1.21-1.55c-2.36-2.25-5.59-2.89-8.48-4.14c-1.32-0.57-2.62-1.24-3.74-2.16c-0.46-0.38-0.88-0.8-1.21-1.31
						c-0.05-0.07,0.03,0.1-0.02-0.03c-0.01-0.03-0.02-0.06-0.04-0.09c-0.04-0.09,0-0.13,0.01,0.04c0-0.04-0.03-0.1-0.04-0.14
						c-0.05-0.21-0.08-0.43-0.09-0.65c-0.01-0.07-0.01-0.14-0.02-0.21c0-0.05-0.01-0.27,0-0.05c0-0.15-0.01-0.3-0.01-0.46
						c0-0.76,0.04-1.52,0.1-2.28c0.37-4.68,1.27-9.35,2.26-13.95c1.17-5.39,2.57-10.77,4.44-15.96c0.2-0.57,0.42-1.13,0.64-1.69
						c0.32-0.81-0.9-1.24-1.22-0.43c-2.01,5.14-3.45,10.51-4.68,15.87c-1.13,4.93-2.12,9.94-2.64,14.96
						c-0.15,1.51-0.3,3.07-0.15,4.57c0.05,0.52,0.18,0.98,0.46,1.42c0.76,1.16,1.98,1.99,3.14,2.66c1.36,0.78,2.8,1.38,4.27,1.91
						c1.51,0.55,3.07,1.05,4.46,1.87c0.34,0.2,0.67,0.42,0.99,0.67c0.14,0.11,0.28,0.22,0.41,0.34c0.06,0.05,0.11,0.1,0.17,0.15
						c0.1,0.09-0.06-0.06,0.06,0.06c0.24,0.24,0.48,0.49,0.69,0.76c0.04,0.05,0.07,0.1,0.11,0.15c0.05,0.07,0.11,0.18,0.03,0.04
						c0.07,0.12,0.13,0.24,0.19,0.36c0.11,0.23,0.2,0.48,0.28,0.73c0.26,0.75,0.52,1.5,0.84,2.22c0.61,1.39,1.37,2.68,2.13,3.98
						c0.81,1.4,1.56,2.84,2.39,4.23c0.55,0.91,1.14,1.92,2.02,2.53c0.37,0.25,0.78,0.41,1.22,0.45c0.45,0.04,0.9-0.54,0.65-0.97
						c-1.96-3.32-3.77-6.74-5.43-10.24c-1.88-3.93-3.58-7.96-5.08-12.08c-1.53-4.19-2.83-8.48-3.81-12.87
						c-0.92-4.15-1.57-8.41-1.67-12.71c-0.09-3.86,0.25-7.79,1.36-11.5c0.13-0.44,0.28-0.88,0.43-1.31
						C109.35,3.52,108.13,3.09,107.84,3.91L107.84,3.91z"/>
				</g>
			</g>
		</g>
		<g id="Ebene_11">
			
				<ellipse transform="matrix(0.3347 -0.9423 0.9423 0.3347 42.5108 136.6013)" class="st12" cx="118" cy="38.19" rx="4.06" ry="3.87"/>
			
				<ellipse transform="matrix(0.3347 -0.9423 0.9423 0.3347 46.7111 151.5801)" class="st12" cx="130.71" cy="42.71" rx="4.06" ry="3.87"/>
			
				<ellipse transform="matrix(0.3347 -0.9423 0.9423 0.3347 50.7309 165.9153)" class="st12" cx="142.87" cy="47.03" rx="4.06" ry="3.87"/>
		</g>
	</g>
</g>
<g id="Ebene_5_6_">
</g>
</svg>
