<?xml version="1.0" encoding="utf-8"?>
<!-- Generator: Adobe Adobe Illustrator 24.2.0, SVG Export Plug-In . SVG Version: 6.00 Build 0)  -->
<svg version="1.1" xmlns="http://www.w3.org/2000/svg" xmlns:xlink="http://www.w3.org/1999/xlink" x="0px" y="0px"
	 viewBox="0 0 170.08 170.08" style="enable-background:new 0 0 170.08 170.08;" xml:space="preserve">
<style type="text/css">
	.st0{fill:#D2E0EC;}
	.st1{fill:#D2E1EC;}
	.st2{opacity:0.149;}
	.st3{fill:#FFFFFF;}
	.st4{stroke:#000000;stroke-miterlimit:10;}
	.st5{fill:#FFFFFF;stroke:#FFFFFF;stroke-width:0.4071;stroke-miterlimit:10;}
	.st6{opacity:0.7804;fill:#DB9886;stroke:#DB9886;stroke-width:0.3912;stroke-miterlimit:10;}
	.st7{opacity:0.6902;fill:#DB9886;stroke:#DB9886;stroke-width:0.3912;stroke-miterlimit:10;}
	.st8{fill:#ADBECF;}
	.st9{fill:#F3C057;}
	.st10{fill:#F7D98D;}
	.st11{fill:#AEBFCE;}
	.st12{opacity:0.2706;}
	.st13{fill:#3D4C5B;}
	.st14{fill:#ECC9AD;}
	.st15{opacity:0.1608;}
	.st16{opacity:0.1686;}
	.st17{fill:#F0F6FA;}
	.st18{opacity:0.0314;}
	.st19{stroke:#000000;stroke-width:0.0661;stroke-miterlimit:10;}
	.st20{fill:#D15238;}
	.st21{fill:#D15239;}
	.st22{fill:#C8354F;}
	.st23{fill:#C93550;}
	.st24{fill:#6DB671;}
	.st25{fill:#6CB671;}
	.st26{fill:#D1DFEA;}
	.st27{fill:#D3E1ED;}
	.st28{fill:#C8354E;}
	.st29{fill:#F3C058;}
	.st30{fill:#C8AE9D;}
	.st31{opacity:0.0784;}
	.st32{opacity:0.1412;}
</style>
<g id="Ebene_4_5_">
</g>
<g id="Ebene_8_7_">
	<g>
		<g id="Ebene_5_8_">
			<g>
				<g>
					<path class="st0" d="M80.07,35.99c-31.77,0.48-64.7-3.19-68.53,49.61c-1.1,15.11-2.07,50.63,5.45,56.98
						c3.31,2.79,8.14,2.91,12.55,2.89c32.42-0.14,64.83-0.28,97.25-0.42c6.46-0.03,17.76,0.48,22.61-13.44
						c3.24-9.28,3.47-37.97,1.87-52.29c-4.74-42.27-35.4-45.62-71.57-43.34"/>
					<g>
						<path d="M80.24,35.06c-6.09,0.09-12.19,0.03-18.28,0.25c-5.75,0.21-11.54,0.66-17.17,1.91c-5.32,1.18-10.48,3.11-14.98,6.16
							c-4.92,3.33-8.76,7.89-11.51,12.97c-3.71,6.86-5.6,14.5-6.65,22.07c-0.96,6.97-1.24,14.03-1.42,21.04
							c-0.19,7.43-0.16,14.88,0.39,22.28c0.25,3.39,0.61,6.78,1.21,10.12c0.48,2.65,1.1,5.32,2.17,7.8c0.98,2.26,2.37,4,4.69,5.14
							c4.13,2.03,9.25,1.6,13.78,1.58c11.9-0.05,23.8-0.1,35.7-0.15c11.95-0.05,23.9-0.1,35.84-0.15
							c5.93-0.03,11.85-0.05,17.77-0.08c3.48-0.02,7.01,0.12,10.49-0.18c3.05-0.27,6.11-0.99,8.79-2.5
							c3.37-1.91,5.87-4.88,7.54-8.23c2.89-5.82,3.34-12.47,3.79-18.76c0.56-7.89,0.64-15.8,0.42-23.69
							c-0.21-7.37-0.63-14.8-2.22-22c-1.48-6.7-3.99-13.29-8.18-18.85c-3.51-4.67-8.09-8.42-13.42-11.09
							c-5.47-2.73-11.53-4.28-17.64-5.14c-6.81-0.96-13.75-1.13-20.65-0.97c-3.61,0.08-7.21,0.26-10.81,0.49
							c-0.78,0.05-1.24,1.91-0.33,1.86c7.13-0.45,14.28-0.71,21.41-0.41c6.4,0.28,12.81,1.03,18.94,2.78
							c5.58,1.59,10.88,4.05,15.32,7.64c4.78,3.86,8.33,8.86,10.76,14.35c2.98,6.72,4.32,14.04,4.94,21.32
							c0.62,7.36,0.76,14.78,0.65,22.18c-0.1,7.1-0.36,14.28-1.5,21.32c-0.46,2.88-1.07,5.48-2.39,8.15
							c-1.6,3.23-4.04,6.04-7.39,7.72c-2.64,1.32-5.57,1.87-8.5,2.05c-3.65,0.23-7.34,0.11-10.99,0.12
							c-11.7,0.05-23.41,0.1-35.11,0.15c-11.7,0.05-23.41,0.1-35.11,0.15c-5.83,0.03-11.65,0.05-17.48,0.08
							c-4.53,0.02-9.62,0.48-13.75-1.55c-2.23-1.09-3.44-2.85-4.33-5.02c-1.02-2.47-1.57-5.12-2.02-7.74
							c-1.17-6.86-1.44-13.88-1.53-20.84c-0.08-6.78,0.1-13.57,0.49-20.35c0.45-7.75,1.29-15.55,3.63-23.06
							c1.85-5.91,4.64-11.62,8.97-16.29c3.58-3.84,8.12-6.7,13.09-8.6c5.11-1.95,10.56-2.89,15.99-3.42
							c5.83-0.56,11.68-0.64,17.52-0.68c2.91-0.02,5.82-0.03,8.74-0.08C80.68,36.91,81.16,35.05,80.24,35.06L80.24,35.06z"/>
					</g>
				</g>
				<g>
					<g>
						<path d="M79.45,28.4c-0.01,2.63-0.02,5.26-0.03,7.9c0,0.37,0.24,0.74,0.66,0.57c0.43-0.17,0.65-0.79,0.66-1.19
							c0.01-2.63,0.02-5.26,0.03-7.9c0-0.37-0.24-0.74-0.66-0.57C79.67,27.38,79.45,28,79.45,28.4L79.45,28.4z"/>
					</g>
				</g>
				<g>
					<path d="M81.89,13.7c4.02-0.23,6.94,5.28,5.98,8.78c-0.97,3.5-4.98,5.96-8.59,5.26s-6.25-4.44-5.65-8.01
						c0.6-3.57,4.35-6.41,8.02-6.07"/>
					<g>
						<path d="M81.72,14.63c2.52-0.1,4.31,2.07,5.13,4.1c0.91,2.24,0.64,4.59-1.3,6.32c-2.13,1.9-5.32,2.49-7.85,1.1
							c-2.37-1.31-4.03-4.2-3.37-6.86c0.74-2.98,4.07-4.93,7.14-4.69c0.75,0.06,1.26-1.79,0.33-1.86c-3.56-0.27-6.88,2.12-8.25,5.19
							c-1.4,3.15-0.52,6.88,2.11,9.12c2.68,2.28,6.48,2.19,9.39,0.2c2.82-1.93,4.16-5.23,3.43-8.41c-0.67-2.89-2.95-6.2-6.44-6.07
							C81.28,12.8,80.81,14.66,81.72,14.63L81.72,14.63z"/>
					</g>
				</g>
				<g>
					<path d="M31.26,145.47c-6.72-4.4-11.69-9.55-12.41-24.54c-0.58-12.1-0.08-26.02,1.81-38.04c1.2-7.61,3.99-13.92,9.37-19.63
						c6.33-6.71,16.38-8.35,25.62-9.09c18.51-1.49,37.09-1.03,55.59,0.04c7.07,0.41,17.72,4.27,22.53,9.26
						c7.82,8.12,9.37,44.02,5.98,64.76c-0.98,6-4.74,11.95-9.58,15.83"/>
					<g>
						<path d="M31.73,144.63c-2.51-1.65-4.88-3.5-6.74-5.82c-2.2-2.74-3.53-6.03-4.33-9.4c-1.15-4.87-1.25-9.91-1.34-14.9
							c-0.09-5.38,0.02-10.77,0.34-16.15c0.32-5.27,0.83-10.55,1.68-15.77c0.73-4.47,2.12-8.84,4.49-12.8c2.4-4,5.65-7.66,9.89-9.97
							c4.46-2.43,9.54-3.53,14.55-4.19c5.65-0.74,11.37-1.01,17.05-1.23c6.04-0.23,12.08-0.29,18.11-0.22
							c6.04,0.07,12.07,0.27,18.1,0.56c2.86,0.14,5.75,0.19,8.59,0.48c2.2,0.23,4.37,0.71,6.49,1.31c4.52,1.3,9.05,3.19,12.73,6.03
							c1.11,0.86,2.16,1.81,2.94,2.95c0.67,0.99,1.2,2.06,1.67,3.15c1.19,2.81,1.93,5.81,2.54,8.79c0.75,3.72,1.25,7.48,1.6,11.26
							c0.78,8.42,0.9,16.93,0.47,25.39c-0.2,3.88-0.52,7.76-1.05,11.63c-0.28,2.02-0.58,4.03-1.25,5.97
							c-0.79,2.28-1.94,4.46-3.38,6.43c-1.38,1.91-3.01,3.64-4.87,5.14c-0.36,0.29-0.58,0.86-0.46,1.29c0.1,0.4,0.46,0.53,0.81,0.25
							c3.98-3.21,7.05-7.47,8.82-12.12c1.47-3.87,1.81-8.09,2.2-12.15c0.82-8.65,0.96-17.35,0.51-26c-0.4-7.72-1.14-15.6-3.29-23.04
							c-0.74-2.57-1.65-5.2-3.17-7.43c-2.09-3.06-5.64-5.1-9-6.7c-4.25-2.01-8.95-3.51-13.71-4c-2.87-0.29-5.79-0.36-8.68-0.49
							c-3.09-0.15-6.17-0.27-9.26-0.37c-12.49-0.39-25.01-0.33-37.5,0.61c-5.22,0.39-10.46,0.95-15.5,2.46
							c-5,1.5-9.4,4.05-12.82,7.89c-3.15,3.54-5.55,7.63-7.07,12.02c-1.69,4.85-2.29,9.97-2.82,15.01
							c-0.59,5.54-0.91,11.1-1.03,16.66c-0.11,5.45-0.12,10.94,0.33,16.37c0.36,4.33,1.13,8.7,3.01,12.66
							c1.36,2.86,3.36,5.39,5.83,7.46c1.14,0.96,2.36,1.82,3.61,2.64C31.54,146.8,32.35,145.05,31.73,144.63L31.73,144.63z"/>
					</g>
				</g>
				<g>
					<path class="st0" d="M46.88,75.97c-0.19,5.21-0.23,10.43-0.13,15.64c0.03,1.38,0.09,2.85,0.89,3.97
						c1.29,1.8,3.88,2.02,6.15,2.07c1.79,0.04,3.74,0.04,5.18-1.02c2.07-1.53,2.18-4.46,2.08-6.97c-0.15-3.89-0.3-7.78-0.45-11.67
						c-0.07-1.93-0.21-4.03-1.51-5.47c-1.74-1.92-4.8-1.88-7.45-1.69c-1.32,0.1-2.75,0.23-3.77,1.07s-1.04,2.85-1.04,4.57"/>
					<g>
						<path d="M46.23,76.28c-0.11,3.02-0.17,6.04-0.18,9.06c-0.01,1.55,0,3.11,0.02,4.66c0.02,1.4-0.04,2.84,0.21,4.22
							c0.43,2.4,2.2,3.76,4.64,4.16c1.13,0.18,2.3,0.22,3.45,0.23c1.35,0.01,2.77-0.09,3.99-0.71c2.13-1.07,3.04-3.37,3.28-5.52
							c0.29-2.65-0.01-5.37-0.12-8.02c-0.11-2.91-0.06-5.87-0.41-8.76c-0.28-2.35-1.36-4.49-3.81-5.32
							c-1.21-0.41-2.55-0.48-3.83-0.45c-1.39,0.03-2.86,0.07-4.2,0.48c-3.01,0.93-3.1,3.94-3.11,6.47c0,0.37,0.24,0.74,0.66,0.57
							c0.43-0.17,0.65-0.79,0.66-1.19c0-0.95-0.05-1.98,0.23-2.91c0.29-0.95,1.48-1.21,2.38-1.35c1.97-0.3,4.25-0.44,6.17,0.08
							c2.27,0.62,3.3,2.37,3.56,4.53c0.31,2.51,0.25,5.09,0.34,7.62c0.09,2.43,0.29,4.88,0.24,7.32c-0.03,1.73-0.28,3.76-2.06,4.68
							c-1.04,0.53-2.26,0.6-3.41,0.61c-1.06,0.01-2.13-0.02-3.17-0.17c-2.19-0.31-3.9-1.3-4.25-3.52c-0.21-1.33-0.13-2.73-0.15-4.08
							c-0.02-1.46-0.02-2.93-0.02-4.39c0.01-2.97,0.07-5.95,0.18-8.92c0.01-0.37-0.25-0.73-0.66-0.57
							C46.44,75.26,46.24,75.88,46.23,76.28L46.23,76.28z"/>
					</g>
				</g>
				<g>
					<path class="st0" d="M99.36,80.06c-0.02,5.73-2.28,13.5,1.43,15.41c2.02,1.04,12.77,1.61,12.93-1.45
						c1.05-19.83,3.34-24.2-7.87-24.03c-2.05,0.03-4.09-0.26-5.29,1.39c-1.19,1.65-1.11,5.83-1.12,8.8"/>
					<g>
						<path d="M98.7,80.37c-0.03,3.6-0.85,7.19-0.68,10.79c0.11,2.39,0.78,4.94,3.48,5.57c2.43,0.57,5.13,0.64,7.62,0.4
							c2.01-0.2,4.84-0.73,5.23-3.05c0.16-0.95,0.12-1.96,0.18-2.92c0.06-0.98,0.12-1.95,0.19-2.93c0.11-1.66,0.24-3.33,0.35-4.99
							c0.16-2.43,0.36-4.9,0.19-7.33c-0.11-1.55-0.34-3.23-1.29-4.53c-0.85-1.16-2.19-1.76-3.63-2.04c-0.95-0.18-1.93-0.25-2.9-0.27
							c-1.58-0.04-3.36-0.2-4.9,0.19c-3.73,0.95-3.68,5.67-3.74,8.57c-0.02,0.89-0.01,1.78-0.02,2.67c0,0.37,0.24,0.74,0.66,0.57
							c0.43-0.17,0.65-0.79,0.66-1.19c0.01-1.66-0.02-3.34,0.13-5c0.1-1.13,0.16-2.78,1.29-3.47c1.31-0.8,3.39-0.49,4.86-0.49
							c0.9,0,1.81,0.03,2.7,0.16c1.29,0.18,2.59,0.53,3.49,1.44c0.86,0.86,1.16,2.1,1.31,3.33c0.24,1.94,0.11,4.01,0,5.99
							c-0.17,3.04-0.42,6.08-0.61,9.13c-0.06,0.88-0.11,1.75-0.16,2.63c-0.01,0.2-0.1,0.56-0.04,0.75c-0.02-0.06,0.09-0.27,0-0.1
							c0.06-0.12,0.04-0.05-0.04,0c-0.76,0.52-1.62,0.74-2.53,0.89c-2.32,0.38-4.79,0.32-7.1-0.01c-0.88-0.13-1.91-0.25-2.61-0.79
							c-1.08-0.82-1.35-2.26-1.43-3.51c-0.24-3.69,0.64-7.38,0.67-11.07c0-0.37-0.24-0.73-0.66-0.57
							C98.92,79.34,98.7,79.97,98.7,80.37L98.7,80.37z"/>
					</g>
				</g>
				<g>
					<path class="st1" d="M56.66,103.49c14.71-0.01,30.22-0.42,44.93-0.43c1.07,0,2.3,0.08,2.9,0.92c0.51,0.72,0.35,1.71,0.11,2.57
						c-2.94,10.75-14.34,18.8-25.65,18.12c-11.31-0.68-21.26-10.02-22.4-21.02"/>
					<g>
						<path d="M56.49,104.42c9.24-0.01,18.49-0.16,27.74-0.29c4.62-0.06,9.23-0.11,13.85-0.13c1.12,0,2.23-0.02,3.34-0.01
							c0.77,0,1.76,0.01,2.35,0.55c0.73,0.67,0.29,1.79,0.04,2.6c-0.26,0.82-0.56,1.63-0.92,2.41c-2.65,5.79-7.92,10.39-14.04,12.69
							c-6.43,2.42-13.48,1.87-19.38-1.35c-6.7-3.66-11.48-10.35-12.28-17.75c-0.05-0.43-0.5-0.48-0.81-0.25
							c-0.4,0.3-0.51,0.85-0.46,1.29c0.76,6.95,4.9,13.33,10.83,17.3c5.88,3.93,13.22,5.21,20.22,3.15
							c6.8-1.99,12.71-6.71,16.07-12.71c0.85-1.53,1.55-3.14,2.04-4.81c0.5-1.71,0.87-4.08-1.33-4.77
							c-0.89-0.28-1.89-0.21-2.81-0.21c-1.21,0-2.42,0.01-3.63,0.01c-2.44,0.01-4.89,0.04-7.33,0.06
							c-9.84,0.11-19.68,0.3-29.51,0.34c-1.21,0.01-2.42,0.01-3.62,0.01C56.06,102.56,55.57,104.42,56.49,104.42L56.49,104.42z"/>
					</g>
				</g>
				<g class="st2">
					<path d="M57.84,105.26c3.24,5.14,8.37,8.92,13.93,11.57s13.88,5.26,20.89,5.15c-6.53,2.02-17.19,1.97-23.04-1.32
						c-5.86-3.29-11.61-10.06-13.01-16.54"/>
					<g>
						<path d="M57.26,105.96c5.52,8.66,15.94,13.59,26.03,15.88c3,0.68,6.09,1.11,9.19,1.07c0.05-0.6,0.11-1.21,0.16-1.81
							c-5.36,1.64-11.53,1.76-16.95,0.66c-2.62-0.53-5.04-1.45-7.22-2.92c-2.57-1.72-4.82-3.87-6.71-6.26
							c-2.1-2.65-3.79-5.69-4.53-8.97c-0.09-0.41-0.47-0.5-0.81-0.25c-0.37,0.27-0.56,0.87-0.46,1.29
							c1.34,6.02,5.59,11.47,10.6,15.18c2.25,1.66,4.7,2.87,7.48,3.54c2.94,0.71,6.03,0.96,9.07,0.91c3.22-0.06,6.46-0.47,9.55-1.41
							c0.61-0.19,1.05-1.82,0.16-1.81c-5.4,0.06-10.78-1.27-15.77-3.08c-4.71-1.7-9.21-3.97-13.01-7.12
							c-2.2-1.82-4.12-3.91-5.63-6.29C57.88,103.73,56.88,105.35,57.26,105.96L57.26,105.96z"/>
					</g>
				</g>
				<g class="st2">
					<path d="M47.58,72.22c-0.78,8.59,4.25,18.79,11.39,23.71c-3.53-1-7.99,1.57-10.79-0.74c-1.5-1.24-1.77-3.37-1.86-5.3
						c-0.26-5.52,0.06-11.08,0.97-16.55"/>
					<g>
						<path d="M46.92,72.52c-0.62,7.24,2.38,14.7,7.11,20.18c1.31,1.52,2.8,2.89,4.47,4.06c0.27-0.58,0.53-1.17,0.8-1.75
							c-1.75-0.46-3.56-0.18-5.34,0.05c-1.68,0.22-3.65,0.48-5.09-0.53c-1.75-1.24-1.84-3.57-1.92-5.48
							c-0.1-2.45-0.08-4.9,0.05-7.36c0.15-2.82,0.47-5.63,0.92-8.42c0.05-0.33-0.01-0.88-0.47-0.86c-0.45,0.02-0.75,0.65-0.8,1
							c-0.85,5.2-1.21,10.47-1.03,15.72c0.07,2.12,0.09,4.55,1.5,6.29c1.19,1.47,3.08,1.79,4.94,1.66c2.18-0.15,4.42-0.81,6.58-0.24
							c0.73,0.19,1.36-1.36,0.8-1.75c-5.8-4.04-9.66-10.68-10.9-17.42c-0.35-1.9-0.46-3.83-0.29-5.77c0.03-0.38-0.26-0.73-0.66-0.57
							C47.12,71.51,46.96,72.12,46.92,72.52L46.92,72.52z"/>
					</g>
				</g>
				<g class="st2">
					<path d="M101.43,72.34c0.48,8.41,4.49,16.52,10.9,22.06c-2.12,0.46-4.28,0.93-6.43,0.73c-2.15-0.2-4.46,0.39-5.53-1.43
						c-1.03-1.75-0.42-6.39-0.24-8.42c0.45-4.93,0.59-8.96,1.04-13.89"/>
					<g>
						<path d="M100.77,72.65c0.53,8.59,4.47,16.82,11.09,22.58c0.21-0.59,0.42-1.18,0.63-1.76c-1.33,0.29-2.66,0.58-4.01,0.71
							c-1.21,0.12-2.39-0.01-3.6-0.03c-1.71-0.02-3.74,0.07-4.22-1.86c-0.44-1.73-0.22-3.66-0.06-5.42c0.2-2.22,0.4-4.45,0.56-6.68
							c0.2-2.96,0.38-5.92,0.64-8.87c0.03-0.33,0.01-0.88-0.47-0.86c-0.43,0.02-0.77,0.66-0.8,1c-0.47,5.24-0.74,10.49-1.22,15.72
							c-0.18,1.97-0.39,4.05,0.04,5.99c0.18,0.81,0.53,1.62,1.24,2.12c0.78,0.56,1.75,0.66,2.7,0.69c1.29,0.04,2.62,0.14,3.92,0.1
							c1.67-0.06,3.32-0.41,4.95-0.77c0.63-0.14,1.17-1.3,0.63-1.76c-6.3-5.49-10.2-13.33-10.71-21.53
							C102.01,70.78,100.72,71.82,100.77,72.65L100.77,72.65z"/>
					</g>
				</g>
				<g class="st2">
					<path d="M30.54,44.7c-17.59,31.23-19.34,69.76-1.58,100.23c-3.81,2.26-8.97,0.48-11.74-2.82
						c-6.27-7.48-13.84-65.58,10.23-96.55"/>
					<g>
						<path d="M30.07,44.28c-6.91,12.29-11.47,25.75-13.32,39.5c-1.83,13.6-1.05,27.5,2.67,40.65c2.09,7.39,5.09,14.51,8.96,21.18
							c0.19-0.53,0.38-1.05,0.57-1.58c-2.32,1.33-5.05,1.15-7.41,0.11c-1.18-0.52-2.25-1.25-3.16-2.14
							c-0.29-0.28-0.56-0.58-0.81-0.89c0.1,0.13-0.13-0.18-0.17-0.24c-0.91-1.37-1.46-2.95-1.93-4.43
							c-1.71-5.37-2.56-11.03-3.13-16.61c-0.79-7.69-0.95-15.45-0.52-23.19c0.47-8.45,1.66-16.93,3.92-25.16
							c2.2-8.01,5.4-15.92,10.23-22.88c0.58-0.84,1.18-1.65,1.81-2.46c0.26-0.34,0.48-0.92,0.25-1.31c-0.23-0.38-0.67-0.21-0.9,0.09
							c-5.38,6.95-9.09,14.94-11.64,23.16c-2.64,8.5-4.1,17.29-4.78,26.09c-0.62,8.08-0.58,16.21,0.13,24.27
							c0.53,6.06,1.35,12.18,3.06,18.03c0.52,1.79,1.11,3.61,2.03,5.25c1.77,3.13,5.7,5.31,9.46,5.13c1.26-0.06,2.49-0.43,3.58-1.05
							c0.49-0.28,0.86-1.07,0.57-1.58c-6.78-11.66-10.82-24.71-12.01-38.08c-1.2-13.35,0.33-26.95,4.36-39.87
							c2.28-7.32,5.34-14.41,9.13-21.16c0.18-0.32,0.36-0.97,0.01-1.25C30.65,43.59,30.24,43.99,30.07,44.28L30.07,44.28z"/>
					</g>
				</g>
				<g class="st2">
					<g>
						<path d="M97.03,73.93c0.77-0.16,1.18-2.03,0.33-1.86C96.59,72.23,96.18,74.1,97.03,73.93L97.03,73.93z"/>
					</g>
				</g>
				<g class="st2">
					<g>
						<path class="st3" d="M103.68,45.28c2.34,0.21,4.68,0.43,7,0.73c1.17,0.15,2.34,0.32,3.5,0.52c0.54,0.09,1.09,0.19,1.63,0.29
							c0.76,0.15,0.69,0.13,1.48,0.31c4.32,0.99,8.52,2.49,12.07,5.02c8.66,6.19,10.72,16.89,11.35,26.7
							c0.42,6.45,0.39,12.97,1.68,19.32c0.08,0.41,0.81,0.54,1.12,0.58c0.75,0.1,1.66,0.01,2.4-0.15c0.78-0.17,1.58-0.39,2.27-0.8
							c0.32-0.19,0.9-0.54,0.81-0.97c-2.22-11.01-0.49-22.59-4.08-33.35c-1.56-4.69-4.19-9.11-8.14-12.32
							c-3.58-2.9-8-4.76-12.52-5.93c-5.28-1.38-10.75-1.96-16.21-2.45c-1.54-0.13-3.32,0.15-4.66,0.95
							c-0.32,0.19-0.9,0.54-0.81,0.97C102.65,45.12,103.35,45.25,103.68,45.28L103.68,45.28z"/>
					</g>
				</g>
				<g class="st2">
					<g>
						<path class="st3" d="M77.29,18.07c2.05,1.24,3.14,3.35,3.08,5.67c-0.04,1.26,6.54,0.54,6.59-1.34
							c0.07-2.47-1.26-4.89-3.43-6.2c-1.14-0.69-2.99-0.33-4.21,0.06C78.99,16.36,76.25,17.45,77.29,18.07L77.29,18.07z"/>
					</g>
				</g>
				<g class="st2">
					<g>
						<path class="st3" d="M103.94,60.18c4.97,0.45,9.82,0.87,14.36,2.78c4.02,1.69,7.46,4.64,9.02,8.63
							c1.85,4.72,1.38,9.97,1.06,14.93c-0.36,5.41-0.71,10.82-1.07,16.22c-0.4,6.11-0.8,12.21-1.21,18.32
							c-0.08,1.2,6.47,0.57,6.59-1.34c0.73-11.05,1.45-22.1,2.18-33.15c0.34-5.09,0.96-10.45-0.63-15.38
							c-1.44-4.46-4.79-7.72-9.05-9.84c-5.17-2.57-11.15-3.15-16.9-3.67c-1.53-0.14-3.32,0.15-4.66,0.95
							c-0.32,0.19-0.9,0.54-0.81,0.97C102.91,60.01,103.61,60.15,103.94,60.18L103.94,60.18z"/>
					</g>
				</g>
				<g class="st2">
					<g>
						<path class="st3" d="M105.14,84.98c2.66-2.91,5.31-5.81,7.97-8.72c0.93-1.02-0.66-1.28-1.49-1.26
							c-0.86,0.02-1.74,0.14-2.56,0.41c-0.61,0.2-1.43,0.43-1.87,0.9c-2.66,2.91-5.31,5.81-7.97,8.72
							c-0.93,1.02,0.66,1.28,1.49,1.26c0.86-0.02,1.74-0.14,2.56-0.41C103.89,85.68,104.71,85.45,105.14,84.98L105.14,84.98z"/>
					</g>
				</g>
				<g class="st2">
					<g>
						<path class="st3" d="M108.94,86.89c1.18-1.45,2.36-2.9,3.54-4.35c0.3-0.36-0.26-0.69-0.5-0.78c-0.59-0.22-1.46-0.18-2.07-0.1
							c-1.34,0.17-3.02,0.5-3.9,1.59c-1.18,1.45-2.36,2.9-3.54,4.35c-0.3,0.36,0.26,0.69,0.5,0.78c0.59,0.22,1.46,0.18,2.07,0.1
							C106.38,88.31,108.05,87.97,108.94,86.89L108.94,86.89z"/>
					</g>
				</g>
				<g class="st2">
					<g>
						<path class="st3" d="M75.47,116.13c4.61-2.55,9.22-5.11,13.84-7.66c0.28-0.15,0.89-0.56,0.81-0.97
							c-0.08-0.41-0.81-0.54-1.12-0.58c-1.53-0.17-3.31,0.2-4.66,0.95c-4.61,2.55-9.22,5.11-13.84,7.66
							c-0.28,0.15-0.89,0.56-0.81,0.97c0.08,0.41,0.81,0.54,1.12,0.58C72.33,117.24,74.12,116.87,75.47,116.13L75.47,116.13z"/>
					</g>
				</g>
				<g class="st2">
					<g>
						<path class="st3" d="M54.31,84.56c1.67-2.03,3.35-4.06,5.02-6.1c0.3-0.36-0.26-0.69-0.5-0.78c-0.59-0.22-1.46-0.18-2.07-0.1
							c-1.35,0.17-3.01,0.51-3.9,1.59c-1.67,2.03-3.35,4.06-5.02,6.1c-0.3,0.36,0.26,0.69,0.5,0.78c0.59,0.22,1.46,0.18,2.07,0.1
							C51.76,85.99,53.42,85.65,54.31,84.56L54.31,84.56z"/>
					</g>
				</g>
				<g class="st2">
					<g>
						<path class="st3" d="M55.48,90.32c1.67-1.84,3.34-3.68,5.02-5.52c0.92-1.02-0.66-1.28-1.49-1.26
							c-0.86,0.02-1.74,0.14-2.56,0.41c-0.61,0.2-1.43,0.42-1.87,0.9c-1.67,1.84-3.34,3.68-5.02,5.52
							c-0.92,1.02,0.66,1.28,1.49,1.26c0.86-0.02,1.74-0.14,2.56-0.41C54.22,91.03,55.05,90.8,55.48,90.32L55.48,90.32z"/>
					</g>
				</g>
				<g class="st2">
					<g>
						<path class="st3" d="M74.94,115.65c3.85-2.52,7.69-5.03,11.54-7.55c0.27-0.18,0.89-0.55,0.81-0.97
							c-0.08-0.41-0.81-0.54-1.12-0.58c-1.43-0.16-3.43,0.14-4.66,0.95c-3.85,2.52-7.69,5.03-11.54,7.55
							c-0.27,0.18-0.89,0.55-0.81,0.97c0.08,0.41,0.81,0.54,1.12,0.58C71.71,116.76,73.7,116.46,74.94,115.65L74.94,115.65z"/>
					</g>
				</g>
				<g class="st2">
					<g>
						<path class="st3" d="M80.88,119.41c3.63-2.55,7.25-5.1,10.88-7.64c0.32-0.23,0.45-0.63,0.16-0.91
							c-0.34-0.33-1.23-0.36-1.65-0.35c-1.56,0.03-3.16,0.42-4.43,1.31c-3.63,2.55-7.25,5.1-10.88,7.64
							c-0.32,0.23-0.45,0.63-0.16,0.91c0.34,0.33,1.23,0.36,1.65,0.35C78,120.69,79.61,120.3,80.88,119.41L80.88,119.41z"/>
					</g>
				</g>
			</g>
		</g>
	</g>
	<ellipse class="st4" cx="55.05" cy="78.18" rx="1.9" ry="3.17"/>
	<ellipse class="st4" cx="109.88" cy="76.62" rx="1.9" ry="3.17"/>
	<path class="st5" d="M55.05,76.13c0-0.27,0.21-0.48,0.43-0.48s0.32,0.22,0.32,0.48s-0.11,0.48-0.32,0.48S55.05,76.4,55.05,76.13z"
		/>
	<path class="st5" d="M109.88,75.01c0-0.27,0.21-0.48,0.43-0.48s0.32,0.22,0.32,0.48s-0.11,0.48-0.32,0.48
		S109.88,75.28,109.88,75.01z"/>
	<ellipse class="st6" cx="44.48" cy="97.76" rx="7.25" ry="6"/>
	<ellipse class="st7" cx="115.23" cy="96.28" rx="7.25" ry="6"/>
	<g>
		<g id="Ebene_7_5_">
			<g>
				<path class="st8" d="M119.98,72.03c-1.27,0.95-0.79,2.99,0.82,3.47c-2.28,5.27,0.85,11.76,6.9,14.28
					c1.92,0.8,4.11,1.23,6.23,0.96c3.92-0.5,6.98-3.36,8.01-6.53c0.4-1.21,0.55-2.46,0.69-3.71c0.32-2.66,0.63-5.32,0.95-7.97
					c0.09-0.74,0.17-1.51-0.13-2.21c-0.63-1.46-2.67-2.1-4.5-2.43c-4.47-0.81-9.16-0.84-13.64-0.08c-1.28,0.22-2.58,0.51-3.64,1.14
					c-1.06,0.63-1.86,1.66-1.77,2.74"/>
				<g>
					<path class="st8" d="M119.86,71.67c-1.46,1.15-1.47,3.6,0.63,4.28c-0.03-0.16-0.06-0.32-0.08-0.48
						c-1.61,3.79-0.68,8.12,2.18,11.34c3.08,3.47,8.97,5.79,13.94,3.65c2.29-0.99,4.04-2.71,5.12-4.63c1.34-2.37,1.4-5.09,1.71-7.66
						c0.17-1.42,0.34-2.84,0.51-4.26c0.08-0.7,0.18-1.4,0.24-2.1c0.06-0.62,0.05-1.27-0.22-1.86c-0.96-2.09-4.23-2.54-6.56-2.84
						c-3.26-0.43-6.6-0.45-9.87-0.07c-2.84,0.33-6.25,0.85-7.59,3.24c-0.28,0.5-0.43,1.05-0.4,1.61c0.01,0.22,0.22,0.32,0.46,0.22
						c0.25-0.1,0.46-0.4,0.44-0.63c-0.14-2.41,3.61-3.04,5.79-3.35c3.05-0.44,6.18-0.51,9.26-0.23c1.41,0.13,2.83,0.31,4.2,0.64
						c1.05,0.25,2.17,0.64,2.89,1.34c0.94,0.92,0.74,2.09,0.61,3.21c-0.16,1.31-0.31,2.61-0.47,3.92c-0.16,1.32-0.31,2.65-0.47,3.97
						c-0.15,1.2-0.3,2.43-0.74,3.58c-0.68,1.79-2.03,3.45-3.9,4.54c-4.3,2.5-10.01,0.83-13.26-2.17c-2.93-2.7-4.38-6.55-3.48-10.13
						c0.11-0.44,0.25-0.86,0.43-1.28c0.05-0.12,0.12-0.41-0.08-0.48c-0.68-0.22-1.14-0.69-1.32-1.27c-0.15-0.46-0.13-1.05,0.31-1.4
						c0.2-0.16,0.41-0.43,0.31-0.67C120.33,71.51,120.04,71.54,119.86,71.67L119.86,71.67z"/>
				</g>
			</g>
			<g>
				<g>
					<path class="st8" d="M130.94,91.93c0.49,0,0.96-0.95,0.43-0.95C130.88,90.98,130.4,91.93,130.94,91.93L130.94,91.93z"/>
				</g>
			</g>
			<g>
				<g>
					<path class="st8" d="M130.15,92.16c0.4,0.73,1.31,1.21,2.29,1.05c1.03-0.16,1.79-0.95,1.98-1.77c0.03-0.12,0-0.4-0.22-0.38
						c-1.04,0.07-2.08,0.14-3.11,0.22c-0.29,0.02-0.51,0.22-0.61,0.44c-0.05,0.12-0.12,0.52,0.18,0.5c1.04-0.07,2.08-0.14,3.11-0.22
						c-0.07-0.13-0.15-0.25-0.22-0.38c-0.25,1.07-2.11,0.7-2.53-0.08C130.76,91.05,129.96,91.8,130.15,92.16L130.15,92.16z"/>
				</g>
			</g>
		</g>
		<g id="Ebene_5_9_">
			<g>
				<path class="st9" d="M143.12,68.05c-0.03-7.07,5.07-13.39,10.28-18.99s10.92-11.33,12.48-18.28
					c1.96-8.79-3.64-18.11-12.62-23.08c-8.99-4.97-20.75-5.84-31.15-3.39c-6.48,1.52-12.61,4.31-17.19,8.39
					c-4.58,4.09-8.59,10.36-8.57,15.93c0.02,7.72,6.49,13.82,11.81,20.17c5.32,6.34,10.97,13.05,11.62,20.75
					c7.19-2.74,15.68-3.05,23.13-0.85"/>
				<g>
					<path class="st9" d="M143.57,67.84c-0.01-6.14,3.92-11.64,8.17-16.44c4.28-4.84,9.16-9.36,12.25-14.84
						c1.46-2.59,2.44-5.37,2.68-8.24c0.21-2.63-0.21-5.3-1.15-7.82c-1.89-5.07-5.84-9.61-11.03-12.73
						c-5.61-3.38-12.57-5.06-19.46-5.25c-7.06-0.19-14.2,1.13-20.48,3.79c-3.13,1.33-6.07,3.01-8.59,5.04
						c-2.49,2-4.6,4.34-6.28,6.85c-1.71,2.55-3.04,5.34-3.55,8.23c-0.49,2.77-0.09,5.59,0.99,8.24c2.24,5.48,6.89,10.01,10.82,14.7
						c4.18,4.98,8.55,10.12,10.49,16.05c0.46,1.42,0.78,2.86,0.9,4.33c0.02,0.23,0.21,0.31,0.46,0.22c5.53-2.09,11.81-2.73,17.8-1.9
						c1.7,0.24,3.38,0.59,5.01,1.07c0.5,0.15,1.08-0.76,0.63-0.9c-5.9-1.73-12.39-1.94-18.44-0.62c-1.72,0.38-3.39,0.88-5.01,1.49
						c0.15,0.07,0.31,0.15,0.46,0.22c-0.53-6.02-4.03-11.44-7.95-16.4c-1.96-2.48-4.03-4.91-6.12-7.31
						c-2.03-2.33-4.07-4.67-5.77-7.18c-1.63-2.41-2.93-5.01-3.39-7.76c-0.47-2.78,0.02-5.55,1.14-8.18
						c2.29-5.36,6.69-10.13,12.36-13.34c5.75-3.26,12.66-5.17,19.6-5.61c6.87-0.44,13.94,0.53,20.06,3.2
						c5.71,2.49,10.34,6.49,13.09,11.33c2.74,4.83,3.39,10.33,1.39,15.43c-2.2,5.61-6.82,10.29-11.11,14.89
						c-4.36,4.68-8.71,9.72-10.28,15.59c-0.37,1.39-0.56,2.82-0.56,4.25c0,0.23,0.23,0.31,0.46,0.22
						C143.39,68.37,143.57,68.07,143.57,67.84L143.57,67.84z"/>
				</g>
			</g>
		</g>
		<g id="Ebene_6_7_">
			<g>
				<path class="st10" d="M155.17,18.91c-4.1-4.69-11.51-9.59-18.43-10.66c-6.93-1.08-17.36,2.24-22.85,5.9
					c-7.59,5.06-8.98,15.71-5.93,23.36c2.64,6.63,11.77,9.36,20.15,10.19c8.38,0.84,18.58-0.21,23.6-5.82s6.27-16.37,3.46-22.95"/>
				<g>
					<path class="st10" d="M155.56,18.52c-1.73-1.97-3.78-3.74-6.03-5.31c-2.34-1.64-4.92-3.07-7.71-4.12
						c-2.42-0.91-5-1.51-7.67-1.51c-2.68-0.01-5.36,0.41-7.92,1.04c-2.71,0.66-5.34,1.56-7.82,2.67c-2.19,0.98-4.34,2.12-6.09,3.6
						c-3.54,2.99-5.39,7.12-6.04,11.22c-0.33,2.12-0.37,4.27-0.1,6.39c0.26,2.04,0.73,4.14,1.66,6.05c1.9,3.88,6.17,6.39,10.77,7.83
						c4.82,1.51,10.14,2.16,15.29,2.06c5.13-0.1,10.48-1,14.69-3.54c4.12-2.49,6.27-6.49,7.43-10.49c1.23-4.23,1.47-8.79,0.46-13.07
						c-0.22-0.92-0.5-1.82-0.88-2.7c-0.21-0.5-1.02,0.25-0.87,0.62c1.62,3.82,1.76,8.09,1.13,12.07c-0.33,2.08-0.88,4.14-1.76,6.12
						c-0.79,1.77-1.84,3.49-3.34,4.92c-3.27,3.11-8.32,4.47-13.13,4.94c-4.99,0.49-10.17,0.11-15.03-0.94
						c-4.61-0.99-9.34-2.77-12.24-6.01c-1.44-1.6-2.2-3.46-2.72-5.39c-0.53-1.99-0.77-4.03-0.74-6.07
						c0.06-3.98,1.16-8.09,3.86-11.43c1.27-1.58,2.94-2.86,4.84-3.92c2.17-1.21,4.52-2.21,6.95-3.01
						c4.72-1.55,10.16-2.67,15.19-1.58c2.77,0.6,5.38,1.72,7.75,3.03c2.47,1.36,4.74,2.98,6.75,4.78c0.9,0.81,1.75,1.66,2.53,2.55
						C155.11,19.67,155.84,18.85,155.56,18.52L155.56,18.52z"/>
				</g>
			</g>
		</g>
		<g id="Ebene_3_2_">
			<g>
				<g>
					<path d="M143.57,69.34c0.41-3.12,1.4-6.14,2.86-9.03c1.43-2.83,3.27-5.5,5.25-8.08c2.04-2.66,4.17-5.25,6.57-7.7
						c2.33-2.37,4.8-4.73,6.44-7.49c2.89-4.86,3.18-10.56,1.44-15.74c-1.75-5.21-5.5-9.93-10.67-13.24
						c-5.53-3.53-12.4-5.45-19.34-5.87c-7.05-0.43-14.18,0.68-20.58,3.14c-6.47,2.49-12.23,6.47-15.78,11.64
						c-3.6,5.24-4.98,11.68-2.9,17.53c1.05,2.96,2.97,5.65,5.07,8.18c2.11,2.54,4.38,4.98,6.44,7.56c3.79,4.75,6.92,9.76,9.26,15.11
						c0.65,1.49,1.25,2.99,1.81,4.5c0.19,0.5,1.01-0.25,0.87-0.62c-2.06-5.54-4.7-10.91-8.25-15.92c-1.75-2.48-3.68-4.88-5.7-7.21
						c-2.15-2.48-4.41-4.91-6.21-7.59c-1.78-2.64-2.99-5.5-3.28-8.52c-0.28-2.95,0.22-5.93,1.38-8.73
						c2.3-5.57,7.13-10.11,13.12-13.21c5.92-3.06,12.85-4.78,19.82-5c6.88-0.22,13.87,0.99,19.88,3.81
						c5.72,2.68,10.25,6.82,12.84,11.82c2.47,4.77,3.24,10.27,1.42,15.29c-1.01,2.8-2.88,5.19-5.05,7.47
						c-1.16,1.21-2.36,2.39-3.52,3.6c-1.14,1.19-2.17,2.43-3.2,3.68c-4.13,5.05-8.01,10.36-9.87,16.32
						c-0.46,1.46-0.78,2.95-0.98,4.45C142.61,70.2,143.51,69.79,143.57,69.34L143.57,69.34z"/>
				</g>
			</g>
			<g>
				<g>
					<path d="M119.48,71.51c0.32,0.56,1.06,0.89,1.72,1.11c1.1,0.36,2.28,0.54,3.45,0.65c3.6,0.37,7.28,0.24,10.89,0.01
						c1.11-0.07,2.22-0.15,3.32-0.25c1.02-0.09,2.14-0.1,3.11-0.38c0.8-0.23,1.54-0.63,1.98-1.24c0.46-0.65,0.44-1.43-0.1-2.04
						c-0.56-0.65-1.51-1.06-2.37-1.37c-0.98-0.35-2.02-0.58-3.07-0.74c-2.24-0.33-4.55-0.42-6.82-0.35
						c-2.54,0.07-5.08,0.36-7.55,0.87c-1.14,0.23-2.46,0.44-3.44,1c-0.88,0.5-1.53,1.41-1.24,2.3c0.08,0.24,0.39,0.17,0.56,0.05
						c0.22-0.14,0.39-0.44,0.31-0.67c-0.24-0.75,0.85-1.09,1.52-1.27c0.98-0.26,1.99-0.48,2.99-0.66c2.06-0.38,4.15-0.6,6.26-0.67
						c2.01-0.07,4.04,0,6.04,0.23c1.86,0.21,3.86,0.59,5.39,1.54c0.48,0.3,1.25,0.95,0.84,1.5c-0.35,0.48-1.25,0.67-1.86,0.75
						c-2,0.26-4.03,0.38-6.05,0.5c-3.29,0.19-6.63,0.29-9.92-0.01c-1.17-0.11-2.38-0.25-3.49-0.59c-0.68-0.21-1.4-0.49-1.72-1.04
						c-0.13-0.22-0.51,0.02-0.62,0.12C119.45,71.03,119.36,71.29,119.48,71.51L119.48,71.51z"/>
				</g>
			</g>
			<g>
				<g>
					<path d="M120.03,71.33c-1.83,0.85-2.1,2.99-0.73,4.23c1.71,1.55,4.51,1.46,6.84,1.44c2.75-0.03,5.5-0.2,8.23-0.42
						c1.39-0.11,2.78-0.24,4.17-0.37c1.13-0.11,2.29-0.18,3.33-0.59c1.02-0.39,1.67-1.1,1.97-1.99c0.25-0.72,0.35-1.7-0.32-2.3
						c-0.39-0.35-1.1,0.49-0.78,0.78c0.46,0.41,0.45,1.03,0.28,1.54c-0.2,0.61-0.65,0.95-1.35,1.18c-0.92,0.3-1.95,0.35-2.92,0.45
						c-1.17,0.11-2.34,0.22-3.52,0.32c-2.36,0.2-4.73,0.36-7.11,0.43c-1.14,0.03-2.28,0.05-3.42,0.02
						c-1.07-0.02-2.19-0.09-3.18-0.44c-0.91-0.32-1.78-0.89-2.1-1.69c-0.25-0.62-0.12-1.39,0.62-1.73c0.25-0.12,0.46-0.39,0.44-0.63
						C120.47,71.33,120.27,71.22,120.03,71.33L120.03,71.33z"/>
				</g>
			</g>
			<g>
				<g>
					<path d="M119.47,75.74c-0.35,0.74-0.49,1.57-0.48,2.36c0.01,0.75,0.2,1.46,0.87,2c1.79,1.45,4.64,0.92,6.86,0.74
						c2.69-0.21,5.37-0.42,8.06-0.64c1.32-0.1,2.63-0.21,3.95-0.31c1.08-0.09,2.27-0.1,3.25-0.54c2.16-0.96,1.76-3.26,1.03-4.85
						c-0.23-0.5-1.03,0.25-0.87,0.62c0.3,0.66,0.54,1.35,0.56,2.06c0.02,0.67-0.22,1.16-1.02,1.42c-0.91,0.29-1.96,0.29-2.92,0.37
						c-1.21,0.1-2.41,0.19-3.62,0.29c-2.36,0.19-4.71,0.37-7.07,0.56c-1.19,0.09-2.38,0.21-3.57,0.28
						c-1.05,0.06-2.15,0.05-3.11-0.35c-0.84-0.35-1.41-0.91-1.5-1.69c-0.08-0.75,0.02-1.56,0.35-2.26c0.08-0.17,0.1-0.47-0.18-0.5
						C119.8,75.26,119.56,75.57,119.47,75.74L119.47,75.74z"/>
				</g>
			</g>
			<g>
				<g>
					<path d="M120.19,79.57c-0.96,1.1-0.9,2.79-0.17,3.97c1,1.62,3.84,1.22,5.62,1.06c2.78-0.24,5.57-0.49,8.35-0.73
						c1.38-0.12,2.76-0.24,4.13-0.36c1.12-0.1,2.29-0.14,3.34-0.5c1.09-0.37,1.87-1.08,2.08-2.04c0.2-0.92-0.02-1.91-0.47-2.76
						c-0.26-0.49-1.06,0.26-0.87,0.62c0.35,0.65,0.58,1.4,0.5,2.12c-0.03,0.24-0.08,0.52-0.28,0.71c-0.27,0.26-0.71,0.43-1.09,0.53
						c-0.96,0.26-1.99,0.3-2.99,0.39c-1.18,0.1-2.37,0.21-3.55,0.31c-2.4,0.21-4.79,0.42-7.19,0.63c-1.15,0.1-2.31,0.24-3.47,0.28
						c-0.92,0.03-2.07,0.01-2.83-0.49c-0.54-0.36-0.76-1.03-0.85-1.57c-0.08-0.48-0.11-1.26,0.21-1.63
						c0.14-0.16,0.34-0.46,0.16-0.66C120.64,79.26,120.31,79.43,120.19,79.57L120.19,79.57z"/>
				</g>
			</g>
			<g>
				<g>
					<path d="M121.1,84.01c-1.05,1.05-0.61,2.77,0.92,3.3c0.94,0.32,1.97,0.3,2.97,0.3c1.18,0,2.36,0.01,3.54,0.02
						c2.36,0.01,4.72,0.02,7.09,0.03c2.03,0.01,4.29,0.19,6.01-0.87c0.81-0.5,1.4-1.26,1.53-2.09c0.15-0.97-0.2-1.91-0.71-2.77
						c-0.13-0.22-0.51,0.02-0.62,0.12c-0.18,0.18-0.29,0.44-0.16,0.66c0.38,0.64,0.7,1.4,0.62,2.13c-0.07,0.57-0.46,1-1.04,1.3
						c-1.55,0.8-3.63,0.58-5.36,0.57c-1.95-0.01-3.9-0.02-5.85-0.02c-1.93-0.01-3.87,0.04-5.8-0.03c-0.81-0.03-1.85-0.12-2.39-0.69
						c-0.31-0.32-0.66-1.04-0.29-1.41c0.16-0.15,0.33-0.47,0.16-0.66C121.55,83.7,121.24,83.88,121.1,84.01L121.1,84.01z"/>
				</g>
			</g>
			<g>
				<g>
					<path d="M123.88,87.57c0.41,1.15,1.15,2.19,2.33,2.9c1.03,0.62,2.3,0.92,3.55,1.07c2.62,0.3,5.39,0.01,7.59-1.27
						c1.32-0.77,2.26-1.87,2.63-3.17c0.06-0.2-0.06-0.41-0.33-0.37c-0.29,0.04-0.49,0.35-0.54,0.56c-0.54,1.96-3,2.96-5.2,3.3
						c-1.14,0.18-2.31,0.15-3.46,0.04c-1.13-0.11-2.26-0.34-3.24-0.84c-1.26-0.64-2.04-1.67-2.46-2.83
						C124.57,86.46,123.75,87.2,123.88,87.57L123.88,87.57z"/>
				</g>
			</g>
			<g>
				<path class="st11" d="M129.84,91.19c-0.11,0.87,1.09,2.1,2.41,1.97c1.04-0.1,2.53-1.04,2.65-1.97"/>
				<g>
					<path d="M129.39,91.39c-0.09,1.16,1.29,2.36,2.7,2.24c1.47-0.12,3.04-1.32,3.25-2.54c0.03-0.2-0.04-0.42-0.33-0.37
						c-0.27,0.04-0.51,0.35-0.54,0.56c-0.13,0.76-1.38,1.45-2.27,1.42c-0.97-0.04-1.97-0.9-1.9-1.71c0.02-0.23-0.24-0.31-0.46-0.22
						C129.56,90.87,129.41,91.15,129.39,91.39L129.39,91.39z"/>
				</g>
			</g>
		</g>
		<g id="Ebene_8_6_">
			<g class="st12">
				<path class="st13" d="M121.43,69c-1.06,0.18-1.28,1.5-0.58,2.19c0.7,0.69,1.86,0.89,2.94,1.02c4.6,0.55,9.28,0.59,13.89,0.12
					c2.18-0.22,4.49-0.62,6-1.94c-7.33,1.01-16.01,2.24-22.06-1.14"/>
				<g>
					<path class="st13" d="M121.53,68.53c-1.44,0.29-1.93,1.91-1.21,2.89c0.43,0.58,1.24,0.88,2,1.05c0.97,0.23,2.01,0.3,3.02,0.39
						c4.3,0.39,8.72,0.38,13-0.16c1.98-0.25,4.02-0.73,5.46-1.95c0.19-0.16,0.62-0.91-0.02-0.83c-5.7,0.78-11.8,1.75-17.5,0.49
						c-1.55-0.34-3.02-0.88-4.35-1.62c-0.42-0.23-1.06,0.66-0.63,0.9c5.02,2.78,11.5,2.45,17.21,1.81c1.69-0.19,3.37-0.42,5.05-0.65
						c-0.01-0.28-0.01-0.55-0.02-0.83c-1.1,0.93-2.58,1.37-4.1,1.61c-1.78,0.29-3.62,0.41-5.44,0.48c-1.91,0.08-3.83,0.06-5.75-0.03
						c-0.97-0.05-1.94-0.12-2.9-0.21c-0.85-0.08-1.72-0.15-2.55-0.34c-0.71-0.16-1.56-0.48-1.83-1.1c-0.15-0.35-0.19-0.87,0.34-0.97
						C121.77,69.37,122.15,68.41,121.53,68.53L121.53,68.53z"/>
				</g>
			</g>
			<g class="st12">
				<path class="st13" d="M119.9,72.53c-0.86,0.77-0.37,2.11,0.67,2.71c1.03,0.6,2.37,0.67,3.64,0.69c5.34,0.11,10.69-0.1,16-0.63
					c1.36-0.14,3.01-0.5,3.34-1.6c-3.57,1.04-19.76,3.33-23.6-1.44"/>
				<g>
					<path class="st13" d="M119.67,72.26c-1.09,1.04-0.73,2.65,0.58,3.43c0.76,0.45,1.73,0.61,2.64,0.68
						c1.07,0.08,2.16,0.06,3.24,0.07c4.55,0.02,9.11-0.19,13.63-0.63c1.77-0.17,3.68-0.59,4.21-2.19c0.06-0.17-0.06-0.45-0.33-0.37
						c-1.07,0.31-2.2,0.51-3.31,0.69c-1.67,0.27-3.36,0.47-5.06,0.6c-3.59,0.29-7.47,0.38-10.96-0.5c-1.53-0.38-3.07-1.03-3.99-2.15
						c-0.31-0.37-1.05,0.45-0.78,0.78c1.84,2.25,5.71,2.76,8.74,2.93c3.72,0.21,7.5-0.08,11.16-0.63c1.34-0.2,2.7-0.42,3.99-0.79
						c-0.11-0.12-0.22-0.25-0.33-0.37c-0.14,0.41-0.75,0.63-1.19,0.76c-0.68,0.2-1.39,0.27-2.1,0.33c-1.99,0.19-3.98,0.34-5.98,0.44
						c-1.95,0.1-3.91,0.15-5.86,0.16c-0.99,0.01-1.98,0-2.97-0.01c-0.85-0.01-1.71-0.02-2.55-0.15c-0.83-0.13-1.65-0.43-2.14-1.02
						c-0.33-0.41-0.62-1.08-0.18-1.5c0.16-0.15,0.33-0.47,0.16-0.66C120.11,71.95,119.8,72.13,119.67,72.26L119.67,72.26z"/>
				</g>
			</g>
			<g class="st12">
				<path class="st13" d="M120.14,76.57c-1.12,0.71-0.61,2.32,0.58,2.93c1.19,0.62,2.71,0.53,4.11,0.43
					c4.84-0.35,9.67-0.7,14.51-1.05c1.45-0.1,3.19-0.38,3.71-1.5c-6.12,0.93-19.95,3.13-22.69-1.35"/>
				<g>
					<path class="st13" d="M120.02,76.21c-1.21,0.82-1.21,2.35-0.22,3.3c1.25,1.19,3.45,1,5.15,0.87c4.64-0.33,9.29-0.67,13.93-1
						c1.81-0.13,3.79-0.41,4.57-1.96c0.1-0.2,0.07-0.55-0.29-0.5c-3.14,0.47-6.28,0.94-9.46,1.19c-1.74,0.14-3.5,0.21-5.25,0.15
						c-1.51-0.05-3.07-0.18-4.52-0.59c-1.31-0.37-2.53-0.98-3.18-2.03c-0.24-0.38-1,0.42-0.78,0.78c1.31,2.1,4.65,2.59,7.23,2.74
						c3.58,0.21,7.2-0.15,10.73-0.6c1.68-0.21,3.34-0.47,5.01-0.72c-0.1-0.17-0.19-0.33-0.29-0.5c-0.22,0.43-0.81,0.65-1.32,0.79
						c-0.71,0.19-1.45,0.24-2.19,0.3c-1.98,0.14-3.96,0.29-5.93,0.43c-2.01,0.14-4.01,0.29-6.02,0.43c-0.94,0.07-1.88,0.15-2.83,0.2
						c-0.81,0.04-1.66,0.05-2.44-0.13c-0.75-0.17-1.4-0.55-1.74-1.14c-0.22-0.4-0.38-0.99,0.08-1.31c0.21-0.14,0.4-0.44,0.31-0.67
						C120.48,76.03,120.2,76.08,120.02,76.21L120.02,76.21z"/>
				</g>
			</g>
			<g class="st12">
				<path class="st13" d="M120.61,80.81c-0.65,0.78-0.25,1.93,0.65,2.52c0.89,0.59,2.13,0.7,3.26,0.58
					c1.13-0.12,2.22-0.45,3.33-0.67c2.56-0.5,5.23-0.37,7.86-0.49c2.63-0.11,5.37-0.51,7.44-1.85c-4.86,0.79-17.68,3.07-22.55-0.18"
					/>
				<g>
					<path class="st13" d="M120.29,80.65c-0.85,1.1-0.39,2.59,0.93,3.28c1.54,0.8,3.46,0.47,5.1,0.09c0.96-0.22,1.91-0.43,2.9-0.54
						c1.03-0.12,2.07-0.16,3.12-0.18c1.87-0.04,3.74-0.04,5.59-0.28c1.93-0.25,3.79-0.78,5.35-1.77c0.24-0.15,0.58-0.92-0.02-0.83
						c-2.77,0.45-5.53,0.89-8.33,1.18c-3.23,0.33-6.61,0.54-9.83,0.06c-1.49-0.22-2.97-0.61-4.17-1.4c-0.38-0.25-1.04,0.62-0.63,0.9
						c2.3,1.51,5.62,1.71,8.44,1.72c3.37,0,6.74-0.37,10.05-0.85c1.43-0.21,2.85-0.44,4.27-0.67c-0.01-0.28-0.01-0.55-0.02-0.83
						c-2.62,1.68-6.15,1.74-9.32,1.8c-1.77,0.03-3.55,0.07-5.29,0.35c-1.65,0.27-3.29,0.91-5.01,0.76c-0.8-0.07-1.65-0.32-2.16-0.86
						c-0.42-0.44-0.71-1.12-0.31-1.64c0.12-0.15,0.23-0.49-0.01-0.6C120.67,80.24,120.4,80.51,120.29,80.65L120.29,80.65z"/>
				</g>
			</g>
			<g class="st12">
				<path class="st13" d="M121.52,84.27c-0.48,0.83,0.21,1.87,1.2,2.29c0.99,0.43,2.16,0.41,3.27,0.39
					c3.92-0.09,7.84-0.18,11.76-0.27c1.88-0.04,4.05-0.22,5.08-1.51c-6.97,1.4-15.07,1.82-21.5-0.9"/>
				<g>
					<path class="st13" d="M121.13,84.24c-0.6,1.13,0.21,2.4,1.54,2.87c0.76,0.27,1.6,0.33,2.42,0.33c0.95,0,1.9-0.04,2.86-0.06
						c1.96-0.04,3.92-0.09,5.88-0.13c1.76-0.04,3.55-0.01,5.31-0.17c1.61-0.15,3.1-0.61,4.05-1.75c0.15-0.18,0.23-0.71-0.22-0.62
						c-5.47,1.09-11.32,1.58-16.84,0.47c-1.54-0.31-3.04-0.76-4.46-1.35c-0.46-0.19-1.08,0.71-0.63,0.9
						c5.19,2.17,11.22,2.34,16.87,1.68c1.63-0.19,3.24-0.45,4.84-0.77c-0.07-0.21-0.15-0.41-0.22-0.62c-0.65,0.79-2,1.01-3.06,1.12
						c-1.53,0.15-3.09,0.12-4.63,0.15c-1.74,0.04-3.48,0.08-5.22,0.12c-0.88,0.02-1.77,0.04-2.65,0.06c-0.76,0.02-1.53,0.06-2.29,0
						c-0.79-0.05-1.63-0.22-2.21-0.7c-0.45-0.37-0.81-0.95-0.54-1.47c0.09-0.17,0.1-0.47-0.18-0.5
						C121.45,83.76,121.22,84.07,121.13,84.24L121.13,84.24z"/>
				</g>
			</g>
			<g class="st12">
				<path class="st13" d="M124.59,87.65c1.53,1.66,3.9,2.77,6.4,3.02c2.5,0.25,5.12-0.37,7.09-1.68c-4.37,0.6-8.96-0.01-12.88-1.71"
					/>
				<g>
					<path class="st13" d="M124.21,88.04c1.57,1.67,3.9,2.81,6.44,3.09c2.69,0.3,5.44-0.39,7.55-1.78c0.24-0.16,0.58-0.91-0.02-0.82
						c-4.31,0.58-8.8-0.03-12.67-1.7c-0.46-0.2-1.08,0.7-0.63,0.9c4.01,1.72,8.63,2.33,13.09,1.73c-0.01-0.28-0.01-0.55-0.02-0.83
						c-1.96,1.28-4.54,1.84-7.01,1.54c-2.35-0.29-4.51-1.36-5.97-2.91C124.64,86.89,123.91,87.72,124.21,88.04L124.21,88.04z"/>
				</g>
			</g>
			<g class="st12">
				<path class="st13" d="M130.11,91.26c0.18,0.7,0.85,1.29,1.67,1.5c0.82,0.21,1.78,0.01,2.4-0.48c-1.38-0.09-2.7-0.64-3.61-1.5"/>
				<g>
					<path class="st13" d="M129.68,91.57c0.23,0.77,0.92,1.42,1.84,1.65c0.98,0.25,2.04-0.02,2.78-0.58
						c0.18-0.14,0.6-0.79,0.09-0.83c-1.32-0.1-2.55-0.6-3.44-1.41c-0.38-0.35-1.1,0.49-0.78,0.78c0.99,0.9,2.32,1.47,3.78,1.58
						c0.03-0.28,0.06-0.56,0.09-0.83c-1.22,0.92-3.14,0.31-3.51-0.96c-0.07-0.24-0.39-0.16-0.56-0.05
						C129.77,91.05,129.61,91.34,129.68,91.57L129.68,91.57z"/>
				</g>
			</g>
		</g>
		<g id="Ebene_4">
			<g>
				<g>
					<path d="M121.65,69.13c3.48-4.1,6.87-8.26,10.05-12.53c3.19-4.28,6.17-8.67,8.8-13.2c2.6-4.48,4.96-9.11,6.65-13.88
						c0.84-2.39,1.48-5.04,0.57-7.49c-0.69-1.85-2.39-3.6-4.65-4.23c-2.37-0.67-4.74,0.11-6.39,1.59c-1.94,1.74-2.53,4.15-2.48,6.45
						c0.01,0.63,0.07,1.26,0.15,1.89c0.07,0.59,0.84,0.03,0.89-0.3c0.31-2.32,0.64-4.79-0.59-6.98c-1-1.78-3-3.17-5.48-3.04
						c-2.46,0.13-4.63,1.47-5.99,3.11c-1.48,1.77-2.17,3.9-2.29,6.03c-0.25,4.78,2.51,9.22,4.85,13.44
						c2.49,4.5,5.09,8.96,7.58,13.46c2.47,4.48,4.85,9.01,6.85,13.65c0.24,0.56,0.48,1.13,0.71,1.69c0.2,0.5,1.02-0.25,0.87-0.62
						c-1.81-4.44-3.99-8.76-6.3-13.03c-2.33-4.31-4.79-8.57-7.2-12.84c-1.18-2.1-2.36-4.2-3.49-6.32c-1.15-2.15-2.2-4.36-2.7-6.69
						c-0.8-3.7,0.03-8.57,4.54-10.44c1.02-0.42,2.17-0.62,3.3-0.46c1.12,0.15,2.11,0.68,2.86,1.38c1.75,1.66,1.99,3.89,1.82,6
						c-0.05,0.61-0.13,1.22-0.21,1.83c0.3-0.1,0.59-0.2,0.89-0.3c-0.27-2.22-0.34-4.67,1.16-6.62c1.22-1.57,3.42-2.54,5.68-2.08
						c2.22,0.45,3.96,2.11,4.68,3.85c0.94,2.29,0.36,4.81-0.44,7.06c-1.61,4.54-3.82,8.96-6.28,13.23
						c-2.47,4.29-5.26,8.46-8.25,12.52c-2.97,4.05-6.14,8-9.41,11.89c-0.4,0.48-0.8,0.95-1.2,1.43c-0.14,0.17-0.34,0.46-0.16,0.66
						C121.21,69.43,121.53,69.27,121.65,69.13L121.65,69.13z"/>
				</g>
			</g>
			<g>
				<g>
					<path d="M151.4,13.11c4.02,2.69,6.55,6.81,6.78,11.08c0.01,0.22,0.22,0.32,0.46,0.22c0.25-0.1,0.45-0.4,0.44-0.63
						c-0.24-4.48-2.84-8.75-7.06-11.57C151.64,11.96,150.99,12.83,151.4,13.11L151.4,13.11z"/>
				</g>
			</g>
			<g>
				<g>
					<path d="M103.69,29.67c-0.37,3.87,0.76,7.81,3.15,11.15c0.68,0.95,1.47,1.85,2.35,2.69c0.37,0.35,1.09-0.48,0.78-0.78
						c-3.01-2.86-4.91-6.49-5.35-10.27c-0.12-1.07-0.13-2.14-0.03-3.21c0.02-0.23-0.24-0.31-0.46-0.22
						C103.86,29.15,103.72,29.43,103.69,29.67L103.69,29.67z"/>
				</g>
			</g>
		</g>
	</g>
</g>
<g id="Ebene_9_6_">
</g>
<g id="Ebene_3">
</g>
<g id="Ebene_5_6_">
</g>
</svg>
