<?xml version="1.0" encoding="utf-8"?>
<!-- Generator: Adobe Adobe Illustrator 24.2.0, SVG Export Plug-In . SVG Version: 6.00 Build 0)  -->
<svg version="1.1" xmlns="http://www.w3.org/2000/svg" xmlns:xlink="http://www.w3.org/1999/xlink" x="0px" y="0px"
	 viewBox="0 0 2000 2000" style="enable-background:new 0 0 2000 2000;" xml:space="preserve">
<style type="text/css">
	.st0{fill:#6DB671;}
	.st1{fill:#6CB671;}
	.st2{opacity:0.149;}
	.st3{fill:#FFFFFF;}
	.st4{opacity:0.0314;}
	.st5{fill:#D2E0EC;}
	.st6{fill:#D2E1EC;}
</style>
<g id="Ebene_6">
</g>
<g id="Ebene_3">
</g>
<g id="Ebene_4">
	<g>
		<g id="Ebene_2_Kopie">
			<g>
				<path class="st0" d="M1430.74,982.09c69.13,2.35,279.59,10.37,300.51-18.94c33.98-47.62,86.52-563.8,52.01-596.52
					C1710.94,298.06,849.16,241,772.6,321.91c-69.03,72.96,25.04,555.45,51.45,584.56c39.92,44,181.38,21.66,247.28,46.44
					c29.38,11.05,160.03,164.64,192.7,162.89c18.54-0.99,126.77-80.9,164.53-133.56"/>
				<g>
					<path class="st1" d="M1430.74,987.1c67.85,2.31,135.93,4.62,203.78,1.16c16.32-0.83,32.65-2.04,48.85-4.2
						c12.01-1.6,24.31-3.46,35.73-7.66c7.02-2.58,13.73-5.97,17.67-12.58c3-5.05,4.99-10.78,6.82-16.34
						c6.03-18.29,9.86-37.35,13.5-56.24c5.21-27.07,9.47-54.33,13.34-81.62c9.32-65.82,16.4-131.97,21.68-198.23
						c4.65-58.32,8.54-117.07,7.25-175.61c-0.4-18.13-0.97-36.72-4.74-54.51c-1.07-5.07-2.45-10.49-5.24-14.92
						c-2.44-3.88-6.35-6.61-10.18-8.99c-11.04-6.87-23.84-11.15-36.18-14.98c-18.28-5.67-36.98-10-55.71-13.87
						c-52.31-10.83-105.37-18.09-158.39-24.34c-64.95-7.66-130.14-13.36-195.4-17.7c-67.74-4.51-135.58-7.54-203.46-8.73
						c-60.63-1.06-121.37-0.79-181.94,2.62c-43.93,2.47-88.82,5.71-131.65,16.4c-13.05,3.26-26.61,7.25-38.15,14.35
						c-12.07,7.43-18.85,19.46-23.47,32.57c-7.41,20.98-9.71,43.84-11.05,65.92c-1.79,29.44-1.11,59.02,0.51,88.46
						c3.75,68.03,12.65,135.83,23.91,202.99c9.2,54.87,19.6,109.94,34.64,163.55c3.82,13.63,7.48,28.47,14.48,40.91
						c4.51,8,13.07,13.64,21.05,17.69c14.77,7.51,31.29,11.13,47.56,13.62c40.37,6.19,81.39,5.89,122.01,9.37
						c18,1.54,36.19,3.64,53.57,8.75c5.92,1.74,8.14,2.28,12.79,5.25c3.67,2.34,6.83,4.86,10.13,7.59
						c23.18,19.18,44.14,41.16,65.55,62.26c23.58,23.25,47.09,46.89,72.77,67.85c8.74,7.13,17.89,14.53,28.14,19.4
						c7.8,3.7,14.22,4.37,22.2,0.95c11.9-5.09,22.88-12.55,33.53-19.82c15.91-10.86,31.28-22.53,46.25-34.66
						c28.88-23.39,58.1-48.69,79.97-78.99c3.78-5.23-4.91-10.24-8.65-5.06c-10.56,14.64-23.35,27.7-36.37,40.14
						c-14.74,14.09-30.23,27.4-46.16,40.13c-14.38,11.49-29.17,22.53-44.49,32.74c-9.42,6.27-20.54,14.09-30.67,17.39
						c-0.64,0.21-1.29,0.38-1.94,0.56c-1.73,0.48,0.32,0.07-0.9,0.13c-0.58,0.03-1.17-0.03-1.75-0.09c1.35,0.14-1.29-0.34-1.79-0.48
						c-3.59-1.03-6.64-2.73-10.33-4.96c-10.44-6.3-19.89-14.21-29.09-22.16c-25.47-22-49.23-45.96-73.18-69.58
						c-19.85-19.58-39.41-40.26-61.57-57.29c-8.56-6.58-17.28-9.98-27.81-12.61c-17.65-4.42-35.93-6.34-54.04-7.79
						c-39.99-3.2-80.56-2.72-120.2-9.45c-15.36-2.61-31.34-6.2-44.86-14.26c-2.59-1.54-5.1-3.23-7.37-5.2
						c-1.25-1.08-2.39-2.25-3.56-3.41c-0.27-0.27-1.69-2.12-0.43-0.39c-1.09-1.49-1.97-3.1-2.79-4.75
						c-2.36-4.75-4.28-10.22-6.39-16.57c-2.83-8.54-5.31-17.19-7.66-25.87c-6.53-24.1-12.03-48.48-17.13-72.91
						c-13.31-63.8-23.82-128.27-31.33-193.01c-7.07-60.96-12.61-123.19-8.33-184.57c1.46-20.83,3.92-42.36,11.48-61.98
						c2.28-5.9,6.26-13.39,10.29-17.71c0.7-0.76,1.44-1.48,2.21-2.17c0.35-0.31,0.71-0.61,1.07-0.91c1.25-1.06-0.52,0.32,0.84-0.65
						c2.03-1.44,4.13-2.76,6.31-3.95c5.93-3.23,9.53-4.59,16-6.78c7.4-2.51,14.97-4.51,22.58-6.25c18.91-4.32,38.16-7.1,57.43-9.28
						c53.25-6.03,107-7.79,160.56-8.36c64.89-0.69,129.79,0.85,194.61,3.74c66.66,2.98,133.27,7.44,199.73,13.51
						c59.05,5.39,118.04,11.94,176.65,20.97c42.28,6.51,85.05,13.63,126,26.27c6.93,2.14,13.8,4.49,20.52,7.24
						c1.26,0.52,1.21,0.49,3.17,1.37c1.34,0.6,2.68,1.23,3.99,1.88c2.25,1.12,4.46,2.31,6.59,3.63c0.9,0.56,1.77,1.15,2.65,1.75
						c0.44,0.3,0.87,0.63,1.3,0.96c-1.37-1.04,0.07,0.06,0.38,0.33c0.61,0.55,1.2,1.09,1.78,1.67c1.01,1.01-0.51-0.85,0.11,0.13
						c0.25,0.39,0.52,0.76,0.73,1.17c0.27,0.5,1.52,3.22,0.87,1.64c0.47,1.14,0.88,2.31,1.25,3.48c0.91,2.89,1.58,5.86,2.15,8.84
						c3.19,16.61,3.74,35.58,4.04,53.49c0.46,26.67-0.3,53.35-1.49,79.99c-2.89,64.92-8.46,129.75-15.54,194.34
						c-6.41,58.47-13.82,117.01-24.95,174.79c-3.61,18.74-7.42,37.64-13.36,55.81c-2.01,6.14-2.91,9.27-5.95,14.37
						c-1.3,2.18-2.09,3.03-3.99,4.23c-3.63,2.3-6.6,3.46-10.59,4.75c-11.85,3.84-24.38,5.68-36.71,7.13
						c-16.34,1.92-32.77,2.97-49.2,3.7c-37.38,1.65-74.83,1.54-112.23,0.89c-28.23-0.49-56.44-1.41-84.65-2.38
						C1424.29,976.86,1424.3,986.88,1430.74,987.1L1430.74,987.1z"/>
				</g>
			</g>
		</g>
		<g id="Ebene_8">
			<g>
				<g>
					<path class="st1" d="M1634.58,578.66c-6.62,77.44-13.24,154.87-19.85,232.31c-0.72,8.48,4.42,18.92,10.25,24.75
						c6.07,6.07,16.03,10.64,24.75,10.25c9.05-0.41,18.44-3.38,24.75-10.25c6.58-7.17,9.42-15.05,10.25-24.75
						c6.62-77.44,13.24-154.87,19.85-232.31c0.72-8.48-4.42-18.92-10.25-24.75c-6.07-6.07-16.03-10.64-24.75-10.25
						c-9.05,0.41-18.44,3.38-24.75,10.25C1638.26,561.08,1635.41,568.96,1634.58,578.66L1634.58,578.66z"/>
				</g>
			</g>
		</g>
		<g id="Ebene_7">
			<g class="st2">
				<g>
					<path class="st3" d="M1504.05,380.73c21.27,3.56,42.84,5.15,64.28,7.3c5.92,0.59,11.84,1.21,17.75,1.88
						c2.88,0.33,5.76,0.66,8.64,1.02c1.44,0.18,2.88,0.36,4.32,0.54c4.74,0.6-4.01-0.58,0.82,0.11c11.24,1.59,22.46,3.4,33.53,5.92
						c5.15,1.17,10.27,2.49,15.31,4.04c2.27,0.7,4.53,1.44,6.77,2.25c1.08,0.39,2.14,0.8,3.21,1.2c4.38,1.65-3.1-1.51-0.41-0.2
						c3.78,1.84,7.53,3.62,11.03,5.97c0.74,0.5,1.48,1.19,2.26,1.61c-1.11-0.59-3.98-3.37-1.67-1.21c1.34,1.26,2.6,3.01,4.04,4.12
						c-0.79-0.61-3.11-4.53-1.48-1.84c0.4,0.67,0.81,1.35,1.23,2.01c2.43,3.83-0.96-4.05-0.44-1.21c0.26,1.44,1.21,6.71,0.55,1.79
						c-0.65-4.87-0.14-0.93-0.03,0.25c0.1,1.12,0.18,2.24,0.25,3.35c0.15,2.56,0.22,5.12,0.25,7.69
						c0.47,35.15-3.25,70.52-6.42,105.47c-4.49,49.51-9.81,98.95-15.22,148.37c-5.11,46.74-10.42,93.46-15.3,140.23
						c-0.51,4.84-1,9.69-1.5,14.54c-1.06,10.44,9.95,20.45,20,20c11.74-0.53,18.87-8.81,20-20c4.68-46.1,9.91-92.15,14.98-138.21
						c5.58-50.76,11.11-101.54,15.88-152.39c3.52-37.54,7.44-75.38,7.6-113.12c0.04-9.66,0.46-20.95-3.02-30.08
						c-8.15-21.36-29.4-31.94-49.95-38.54c-23.07-7.41-47.56-10.44-71.54-13.25c-22.23-2.6-44.57-4.22-66.78-6.95
						c-1.1-0.13-2.2-0.28-3.3-0.42c-3.34-0.42,5.26,0.76,1.26,0.16c-2.1-0.31-4.19-0.62-6.28-0.97c-10.28-1.72-22.04,2.7-24.6,13.97
						C1487.88,365.79,1493.01,378.88,1504.05,380.73L1504.05,380.73z"/>
				</g>
			</g>
			<g class="st2">
				<g>
					<path class="st3" d="M1635.69,922.16c0.67,4.37,1.34,8.74,2.01,13.1c9.79-7.53,19.59-15.06,29.38-22.59
						c-5.08-3.22-10.15-6.44-15.23-9.66c1.35,10.47,2.7,20.94,4.05,31.41c-2.3,1.93-4.47,3.31-7.52,3.75
						c-1.18,0.35-2.37,0.35-3.55-0.01c-2.05-0.37-2.35-0.38-0.89-0.04c-2.23-0.83-3.93-1.83-5.71-3.42c1.01,1.03,0.86,0.8-0.43-0.69
						c-1.19-1.24-2.02-2.71-2.49-4.4c3.06-7.53,6.13-15.06,9.19-22.59c0.28-0.16,4.84-1.5,2.33-0.99c2.48-0.5,4.62-0.55,7.11-0.05
						c-2.53-0.51,1.94,0.92,2.25,1.07c-2.28-1.06,1.58,1.21,1.89,1.52c1.6,1.6,2.59,3.74,3.25,5.87c-1.08-3.46-0.29,7.33-0.24,7
						c0.42-2.52-0.73,1.79-0.96,2.2c-0.65,0.86-1.3,1.72-1.95,2.57c-2.77,1.93-3.49,2.48-2.18,1.66c2.1-1.07-4.4,1.6-2.17,0.91
						c1.03-0.24,0.6-0.19-1.27,0.17c-1.15,0.35-2.31,0.38-3.47,0.09c-4.59-0.52-8.52-3.29-10.3-7.58c-1.68-4.05-0.03,2.05-0.66-2.46
						c-0.62-4.47-0.59,1.86-0.04-2.63c-0.03-1.2,0.28-2.31,0.91-3.33c0.81-1.67,0.97-2.06,0.48-1.18c-0.89,1.53,3.58-3.76,1.05-1.76
						c10.47,1.35,20.94,2.7,31.41,4.05c-1.09-1.66-2.18-3.33-3.27-4.99c-5.72-8.74-17.97-13.23-27.36-7.17
						c-8.73,5.63-13.3,18-7.18,27.36c1.09,1.66,2.18,3.33,3.27,4.99c3.51,5.36,8.24,8.69,14.61,9.55c6.76,0.91,11.61-1.39,16.8-5.5
						c10.43-8.26,11.6-25.54,4.69-36.28c-8.21-12.77-25.71-16.76-38.47-8.22c-12.31,8.23-17.85,25.38-8.96,38.27
						c8.6,12.46,25.2,17.21,38.62,9.41c7.67-4.46,11.5-14.06,9.19-22.59c-2.49-9.22-9.98-16.97-19.3-19.43
						c-10.11-2.67-19.13,0.01-26.95,6.58c-10.3,8.64-5.98,25.05,4.05,31.41c5.08,3.22,10.15,6.44,15.23,9.66
						c6.77,4.29,16.11,3.15,22.21-1.56c6.84-5.29,8.43-12.8,7.17-21.02c-0.67-4.37-1.34-8.74-2.01-13.1
						c-0.71-4.62-5.34-9.7-9.19-11.95c-4.29-2.51-10.6-3.57-15.41-2.02c-4.84,1.57-9.51,4.57-11.95,9.19
						C1635.03,911.81,1634.83,916.54,1635.69,922.16L1635.69,922.16z"/>
				</g>
			</g>
		</g>
		<g id="Ebene_2_1_">
			<g>
				<g>
					<path d="M1398.48,1031.19c67.94,2.34,136.11,4.67,204.05,1.26c16.34-0.82,32.69-2.02,48.92-4.15
						c12.9-1.7,26.14-3.48,38.43-7.97c9.52-3.48,18.21-8.09,23.59-17.02c3.43-5.69,5.71-12.2,7.8-18.48
						c6.08-18.27,9.93-37.34,13.58-56.22c5.25-27.13,9.52-54.46,13.4-81.82c9.43-66.49,16.64-133.31,21.95-200.26
						c4.62-58.25,8.51-116.95,7.07-175.41c-0.46-18.65-1.2-37.82-5.23-56.1c-1.28-5.82-3.13-11.92-6.35-16.97
						c-3.43-5.37-8.68-9.24-14.06-12.5c-11.97-7.25-25.77-11.85-39.09-15.93c-18.45-5.64-37.3-9.95-56.19-13.82
						c-53.13-10.88-107.02-18.17-160.86-24.49c-64.91-7.62-130.04-13.3-195.25-17.64c-67.65-4.5-135.41-7.55-203.19-8.76
						c-60.43-1.08-120.96-0.85-181.32,2.47c-44.97,2.47-90.95,5.76-134.82,16.53c-13.95,3.43-28.44,7.76-40.81,15.23
						c-14.28,8.62-22.43,22.28-28.04,37.66c-7.87,21.6-10.22,45.39-11.65,68.18c-1.85,29.4-1.17,58.95,0.46,88.35
						c3.79,68.62,12.89,137.01,24.33,204.74c9.29,55.04,19.79,110.29,35.04,164.03c4.04,14.23,8.03,29.72,15.42,42.66
						c5.45,9.54,15.4,16.53,25.03,21.33c15.9,7.93,33.32,11.96,50.79,14.56c41.38,6.17,83.3,6.02,124.92,9.67
						c4.57,0.4,9.14,0.85,13.7,1.37c1.21,0.14,2.43,0.28,3.64,0.43c0.65,0.08,4.73,0.63,0.79,0.09c2.34,0.32,4.67,0.66,7,1.03
						c8.62,1.38,17.2,3.12,25.56,5.64c1.59,0.48,3.18,0.99,4.75,1.53c0.89,0.31,1.83,0.78,2.74,0.98c1.86,0.41-4-2.06-2.35-0.99
						c1.38,0.89,2.94,1.54,4.33,2.42c1.63,1.03,3.18,2.17,4.74,3.29c3.51,2.54-2.42-1.99,0.34,0.24c1.21,0.98,2.43,1.95,3.63,2.95
						c23.08,19.13,44.04,40.9,65.42,61.86c23.67,23.19,47.26,46.8,73.07,67.64c9.37,7.57,19.13,15.53,30.13,20.67
						c5.19,2.43,10.53,4.53,16.35,4.67c5.83,0.14,10.79-1.84,16.01-4.13c12.02-5.28,23.15-12.74,33.97-20.11
						c16.49-11.23,32.41-23.33,47.93-35.85c29.45-23.75,58.75-49.42,81.09-80.19c4.76-6.56,1.12-16.72-5.38-20.52
						c-7.58-4.43-15.75-1.19-20.52,5.38c-0.64,0.88-4.59,5.94-1.87,2.56c-1.21,1.51-2.42,3.03-3.65,4.52
						c-2.88,3.46-5.85,6.85-8.89,10.17c-6.54,7.14-13.39,14-20.41,20.67c-14.76,14.03-30.26,27.27-46.2,39.92
						c-1.71,1.36-3.42,2.7-5.14,4.05c-0.32,0.25-3.74,2.89-1.05,0.82c-1.01,0.78-2.03,1.56-3.05,2.33
						c-3.96,3.02-7.95,5.99-11.97,8.93c-7,5.11-14.08,10.09-21.31,14.87c-5.86,3.88-11.81,7.65-17.93,11.11
						c-2.29,1.29-4.6,2.54-6.96,3.7c-0.99,0.48-2.41,0.85-3.27,1.53c3.16-2.48,2.58-0.99,0.28-0.2c-0.78,0.27-1.6,0.43-2.37,0.7
						c-2.63,0.96,2.71-0.09,2.08-0.24c-0.44-0.1-1.66-0.18-2.09-0.08c3.83-0.86,3.75,0.79,1.27-0.01c-0.85-0.27-1.71-0.58-2.57-0.84
						c-3.03-0.91,3.69,1.8,0.81,0.34c-2.07-1.05-4.13-2.08-6.13-3.27c-4.76-2.82-9.23-6.05-13.66-9.35
						c-0.81-0.6-3.29-2.21,0.43,0.35c-0.69-0.47-1.34-1.04-1.99-1.56c-1.25-0.99-2.5-1.99-3.73-3c-2.86-2.33-5.69-4.7-8.49-7.1
						c-25.46-21.84-49.21-45.64-73.15-69.11c-20.62-20.22-40.95-41.35-63.97-58.89c-8.9-6.79-18.37-10.57-29.26-13.36
						c-18.84-4.83-38.45-6.85-57.8-8.4c-20.3-1.62-40.64-2.45-60.97-3.64c-10.05-0.59-20.1-1.26-30.13-2.17
						c-4.62-0.42-9.23-0.89-13.83-1.44c-1.23-0.15-2.45-0.3-3.68-0.45c-3.97-0.49,2.2,0.37-0.25-0.03c-2.56-0.42-5.14-0.75-7.7-1.17
						c-8.44-1.39-16.84-3.14-25.04-5.59c-3.57-1.06-7.01-2.38-10.52-3.63c-3.23-1.15,3.06,1.51,0.03,0.01
						c-0.84-0.42-1.72-0.78-2.56-1.19c-1.65-0.8-3.27-1.65-4.85-2.56c-1.53-0.88-3.02-1.81-4.47-2.81c-0.47-0.32-0.92-0.68-1.4-0.99
						c-2.58-1.68,2.57,2.38,0.37,0.27c-1.6-1.54-3.39-3.82-5.2-5.04c3.49,2.36,2.5,3.62,1.54,1.93c-0.18-0.32-0.4-0.63-0.6-0.94
						c-0.55-0.89-1.03-1.82-1.51-2.75c-0.52-1.03-0.98-2.08-1.47-3.13c-1.48-3.19,0.99,2.49,0.54,1.3
						c-0.27-0.72-0.58-1.42-0.86-2.13c-1.28-3.25-2.44-6.55-3.55-9.86c-2.88-8.59-5.41-17.31-7.8-26.05
						c-6.55-23.96-12.07-48.2-17.19-72.5c-6.4-30.4-12.08-60.95-17.16-91.59c-2.8-16.89-5.42-33.82-7.85-50.77
						c-0.57-4.02-1.14-8.04-1.69-12.06c-0.14-1.05-0.94-6.97-0.36-2.6c-0.34-2.56-0.68-5.13-1.02-7.69
						c-1.1-8.42-2.14-16.84-3.13-25.28c-7.12-60.79-12.71-122.88-8.36-184.09c0.44-6.19,1.01-12.37,1.75-18.53
						c0.16-1.35,1.02-5.82,0.04-0.48c0.26-1.44,0.41-2.91,0.62-4.35c0.42-2.79,0.89-5.58,1.41-8.36c1.74-9.32,4.12-18.47,7.49-27.34
						c0.19-0.5,0.46-0.99,0.61-1.5c0.06-0.21-1.77,3.96-0.89,2.12c0.44-0.93,0.84-1.89,1.29-2.82c0.85-1.77,1.77-3.51,2.78-5.2
						c0.86-1.45,1.84-2.81,2.77-4.22c1.65-2.5-2.93,3.35-0.47,0.63c0.56-0.62,1.1-1.27,1.68-1.88c0.68-0.71,1.41-1.37,2.14-2.04
						c0.42-0.38,0.9-0.7,1.31-1.09c0.39-0.38-3.96,2.81-1.38,1.1c2.09-1.38,4.17-2.73,6.38-3.92c1.17-0.63,2.35-1.22,3.55-1.78
						c0.69-0.32,1.38-0.63,2.07-0.95c3.4-1.57-2.01,0.8-1.05,0.43c3.05-1.18,6.08-2.37,9.18-3.4c7.45-2.48,15.06-4.46,22.72-6.19
						c8.94-2.01,17.96-3.66,27.01-5.09c2.37-0.38,4.74-0.73,7.11-1.08c1.1-0.16,2.21-0.32,3.31-0.47c0.67-0.09,1.34-0.19,2.01-0.28
						c3.8-0.53-3.21,0.41-0.6,0.08c5.39-0.69,10.79-1.36,16.2-1.97c53.26-5.92,106.99-7.64,160.54-8.17
						c64.45-0.63,128.91,0.9,193.29,3.78c66.77,2.98,133.48,7.44,200.05,13.5c31,2.82,61.97,6,92.88,9.64
						c14.74,1.73,29.49,3.47,44.18,5.55c-3.94-0.56-0.33-0.04,1.46,0.2c1.8,0.25,3.6,0.49,5.4,0.74c3.55,0.49,7.11,0.99,10.66,1.5
						c6.62,0.95,13.25,1.93,19.86,2.94c42.37,6.49,85.21,13.59,126.29,26.12c6.93,2.11,13.81,4.42,20.53,7.13
						c0.63,0.25,1.26,0.54,1.89,0.78c-5.66-2.11-2.37-1.02-1.04-0.42c1.36,0.61,2.72,1.22,4.06,1.88c2.29,1.11,4.55,2.3,6.73,3.62
						c0.92,0.56,1.83,1.13,2.71,1.74c0.41,0.28,0.81,0.6,1.23,0.87c2.2,1.46-3.54-3.07-1.49-1.15c0.61,0.57,1.26,1.17,1.91,1.7
						c2.33,1.9-2.36-4.19-0.68-0.84c0.4,0.81,0.82,1.72,1.29,2.48c-2.43-3.97-0.97-2.52-0.12,0.07c0.89,2.7,1.56,5.48,2.12,8.27
						c0.32,1.57,0.6,3.15,0.86,4.74c0.15,0.93,0.29,1.86,0.43,2.79c0.62,3.98-0.46-3.8-0.07-0.55c0.5,4.19,0.94,8.38,1.28,12.58
						c0.83,10.43,1.22,20.9,1.41,31.37c0.49,26.34-0.23,52.71-1.38,79.03c-2.83,65-8.4,129.9-15.5,194.57
						c-1.78,16.19-3.67,32.37-5.69,48.53c-0.98,7.82-1.99,15.63-3.02,23.44c-0.12,0.88-0.6,4.44,0,0.02
						c-0.11,0.83-0.22,1.66-0.34,2.49c-0.25,1.82-0.49,3.63-0.74,5.45c-0.54,3.91-1.09,7.81-1.64,11.71
						c-3.81,26.71-8,53.39-13.12,79.88c-3.62,18.73-7.45,37.64-13.43,55.79c-0.98,2.96-2.23,5.81-3.22,8.76
						c1.99-5.96,0.66-1.55-0.14,0.08c-0.51,1.03-1.07,2.01-1.63,3.01c-0.22,0.4-0.53,0.75-0.74,1.16c-1.06,2.07,3.17-3.05,1.13-1.47
						c-0.53,0.41-1.23,1.06-1.66,1.57c-0.78,0.92-2.88-0.17,2.06-1.59c-0.48,0.14-1,0.73-1.45,0.98c-1.6,0.89-3.2,1.69-4.83,2.52
						c-2.17,1.09,3.89-1.42,1.53-0.66c-0.55,0.18-1.09,0.42-1.64,0.62c-1.16,0.42-2.34,0.82-3.52,1.19
						c-5.34,1.68-10.82,2.89-16.31,3.93c-3.07,0.58-6.14,1.09-9.23,1.55c-1.2,0.18-7.35,1.25-2.31,0.35
						c-1.85,0.33-3.77,0.48-5.64,0.7c-16.55,1.93-33.2,2.97-49.85,3.68c-37.23,1.59-74.54,1.47-111.8,0.8
						c-28.26-0.5-56.51-1.44-84.77-2.41c-8.1-0.28-15,7.09-15,15C1383.48,1024.55,1390.35,1030.91,1398.48,1031.19L1398.48,1031.19z
						"/>
				</g>
			</g>
		</g>
		<g id="Ebene_5_1_">
			<g>
				<g>
					<path class="st3" d="M1038.44,702.04c46.86,62.96,93.71,125.91,140.57,188.87c6.81,9.15,13.96,15.15,25.57,16.71
						c10.3,1.38,22.26-1.35,29.4-9.63c45.43-52.66,90.86-105.33,136.3-157.99c45.43-52.66,90.86-105.33,136.3-157.99
						c25.65-29.73,51.3-59.47,76.95-89.2c6.14-7.12,10.25-15.08,10.25-24.75c0-8.58-3.81-18.84-10.25-24.75
						c-13.12-12.05-36.73-14.8-49.5,0c-45.43,52.66-90.86,105.33-136.3,157.99c-45.43,52.66-90.86,105.33-136.3,157.99
						c-25.65,29.73-51.3,59.47-76.95,89.2c18.32,2.36,36.65,4.72,54.97,7.08c-46.86-62.96-93.71-125.91-140.57-188.87
						c-5.64-7.58-11.46-13.48-20.92-16.08c-8.38-2.31-19.53-1.27-26.97,3.53c-7.47,4.82-14.05,11.99-16.08,20.92
						C1032.96,683.67,1032.93,694.65,1038.44,702.04L1038.44,702.04z"/>
				</g>
			</g>
		</g>
		<g id="Ebene_9">
			<g class="st4">
				<path d="M765.56,331.7c0,281,312.26,612.99,525.2,782.43c-26.36,7.04-59.46-30.06-117.44-76.2
					c-81.95-65.2-59.06-73.17-104.65-91.42c-37.87-15.16-84.13-11.05-124.91-12.35c-37.58-1.19-84.58-7.83-108.65-26.8
					c-31.75-25.02-88.42-342.47-81.78-537.55"/>
				<g>
					<path d="M755.56,331.7c0.09,58.33,12.98,116.13,32.75,170.79c21.92,60.61,51.91,118.12,86.08,172.67
						c36.25,57.87,77.34,112.69,121.16,165.03c43.23,51.62,89.31,100.85,137.53,147.83c43.24,42.12,88.22,82.51,135.02,120.63
						c5.17,4.21,10.36,8.39,15.58,12.54c1.47-5.57,2.94-11.14,4.41-16.71c-0.71,0.18-1.42,0.32-2.13,0.47
						c2.65-0.55,0.41-0.03-0.23-0.02c-1.24,0.02-2.46,0.04-3.7-0.03c-2.84-0.14,0.92,0.39-1.92-0.31c-1.6-0.39-3.18-0.8-4.75-1.33
						c-0.82-0.28-1.63-0.59-2.44-0.9c1.8,0.71-0.08-0.03-0.52-0.24c-1.59-0.76-3.16-1.53-4.71-2.36c-3.43-1.86-6.74-3.95-9.98-6.14
						c-17.2-11.63-32.69-25.78-48.55-39.12c-31.04-26.11-63.96-50.14-90.15-81.42c-5.22-6.24-10.13-12.87-16.21-18.32
						c-7.61-6.82-16.42-11.55-25.76-15.53c-46.11-19.63-96.58-12.66-145.27-15.64c-22.2-1.36-44.66-4.36-65.8-11.54
						c-8.68-2.95-16.95-6.84-24.38-12.25c-1.1-0.8,0.95,1.18-0.4-0.4c-0.31-0.36-0.67-0.72-1.01-1.05c-1.09-1.07-0.6-1.82,0.34,0.52
						c-0.24-0.6-0.88-1.21-1.25-1.76c-1.82-2.71-3.33-5.63-4.73-8.58c-0.46-0.96-0.9-1.93-1.33-2.9c-0.32-0.73-1.54-3.74-0.34-0.74
						c-0.84-2.1-1.7-4.2-2.5-6.32c-3.98-10.56-7.28-21.39-10.33-32.25c-18.82-67.05-30.02-136.56-39.3-205.48
						c-10.89-80.86-18.4-162.71-17.93-244.37c0.05-8.9,0.22-17.79,0.52-26.69c0.43-12.87-19.57-12.86-20,0
						c-2.71,81.49,4.09,163.42,13.98,244.25c9.08,74.3,20.55,148.9,39.14,221.48c5.57,21.78,11.47,44.22,21.48,64.46
						c3.48,7.03,7.68,12.81,14.06,17.44c17.08,12.42,39.22,17.99,59.7,21.55c23.91,4.16,48.05,5.36,72.28,5.47
						c24.88,0.12,50.2-0.58,74.78,3.99c6.04,1.12,12.03,2.55,17.89,4.38c2.64,0.82,5.25,1.73,7.83,2.72
						c1.09,0.42,2.16,0.86,3.24,1.29c1.89,0.77-1.11-0.51,1.2,0.51c4.8,2.12,9.54,4.4,13.97,7.22c0.81,0.52,1.61,1.05,2.39,1.6
						c1.07,0.75,2.49,1.99,0.6,0.39c1.58,1.35,3.18,2.65,4.67,4.11c2.81,2.73,5.36,5.72,7.86,8.73c7.64,9.19,15.3,18.28,23.72,26.77
						c16.14,16.27,33.97,30.55,51.74,44.96c19.1,15.49,37.46,31.91,56.78,47.14c12.72,10.03,26.58,21.11,42.59,25.25
						c6.65,1.72,13.51,1.93,20.19,0.25c6.74-1.69,10.4-11.95,4.41-16.71c-45.87-36.53-89.98-75.28-132.45-115.71
						c-47.83-45.52-93.63-93.22-136.83-143.16C984.53,797.3,943.2,744,906.23,687.76c-35.04-53.3-66.6-109.43-90.32-168.74
						c-21.31-53.3-36.82-109.75-39.81-166.89c-0.36-6.8-0.53-13.61-0.54-20.42C775.54,318.84,755.54,318.81,755.56,331.7
						L755.56,331.7z"/>
				</g>
			</g>
		</g>
	</g>
</g>
<g id="Ebene_5">
	<g>
		<g>
			<path class="st5" d="M714.1,965.67c-211.53-41.69-425.22-114.07-521.87,249.3c-27.65,103.98-82.03,350.7-40.62,405.73
				c18.21,24.19,50.09,31.89,79.44,38.02c215.38,45.01,430.76,90.01,646.14,135.02c42.93,8.97,117.23,28.56,168.25-61.77
				c34.01-60.22,74.26-260.27,82.91-362.55c25.53-301.95-173.46-368.87-416.7-404.24"/>
			<g>
				<path d="M716.45,959.42c-40.58-8.01-80.94-17.09-121.7-24.19c-38.46-6.69-77.48-11.74-116.59-11
					c-36.94,0.7-73.74,6.89-107.72,21.76c-37.12,16.25-68.79,42.71-93.89,74.3c-33.89,42.65-56.73,93.35-73.88,144.73
					c-15.79,47.3-27.17,96.22-37.81,144.91c-11.29,51.63-21.12,103.71-27.47,156.2c-2.9,24.02-5.12,48.19-5.63,72.39
					c-0.41,19.19,0.1,38.7,3.89,57.58c3.45,17.17,10.35,31.3,24.2,42.54c24.67,20.04,59.26,24.32,89.35,30.61
					c79.06,16.52,158.12,33.04,237.18,49.56c79.38,16.59,158.77,33.18,238.15,49.77c39.37,8.23,78.73,16.45,118.1,24.68
					c23.13,4.83,46.4,10.8,69.91,13.62c20.61,2.47,41.93,1.76,61.7-5.02c24.93-8.55,45.58-25.77,61.13-46.81
					c27-36.54,39-82.38,50.44-125.65c14.35-54.29,25.57-109.46,34.7-164.86c8.53-51.77,15.79-104.27,14.92-156.85
					c-0.81-48.89-8.58-98.48-28.86-143.28c-17.01-37.57-42.32-70.28-74.15-96.49c-32.62-26.85-70.76-46.24-110.19-60.96
					c-43.94-16.4-89.76-27.41-135.79-36.09c-24.05-4.54-48.21-8.41-72.42-11.94c-5.22-0.76-10.79,11.62-4.7,12.51
					c47.93,6.98,95.78,15.27,142.67,27.54c42.1,11.01,83.66,25.37,121.96,46.25c34.91,19.03,66.76,43.74,91.39,75.13
					c26.5,33.76,43.35,73.67,52.1,115.53c10.7,51.19,9.76,104.18,4.04,155.92c-5.78,52.31-14.89,104.32-25.59,155.84
					c-10.26,49.44-21.63,99.21-38.69,146.81c-6.96,19.43-14.5,36.75-26.87,53.5c-15.01,20.31-34.94,36.47-59.49,43.41
					c-19.3,5.46-39.49,5.14-59.2,2.28c-24.54-3.56-48.85-9.65-73.1-14.72c-77.76-16.25-155.52-32.5-233.27-48.75
					s-155.52-32.5-233.27-48.75c-38.72-8.09-77.43-16.18-116.15-24.27c-30.07-6.28-64.51-10.32-89.17-30.35
					c-13.3-10.8-18.99-24.8-21.99-41.2c-3.42-18.68-3.53-38-2.96-56.92c1.5-49.58,9.13-99.01,17.97-147.74
					c8.61-47.48,18.95-94.66,30.69-141.46c13.42-53.53,29.51-106.82,55.2-155.89c20.22-38.63,46.45-74.62,81.54-101.02
					c28.92-21.76,62.97-35.29,98.52-41.46c36.55-6.34,74.03-5.21,110.77-1.17c39.44,4.34,78.41,12.11,117.24,20.1
					c19.36,3.98,38.71,8.05,58.11,11.87C716.88,972.94,722.56,960.63,716.45,959.42L716.45,959.42z"/>
			</g>
		</g>
		<g>
			<g>
				<path d="M720.17,911.79c-3.62,18.37-7.24,36.73-10.86,55.1c-0.51,2.6,0.58,5.47,3.63,4.93c3.11-0.55,5.4-4.58,5.95-7.36
					c3.62-18.37,7.24-36.73,10.86-55.1c0.51-2.6-0.58-5.47-3.63-4.93C723.01,904.97,720.72,909.01,720.17,911.79L720.17,911.79z"/>
			</g>
		</g>
		<g>
			<path d="M756.19,812.55c27.02,4.11,38.97,46.71,27.84,69.8c-11.13,23.09-41.08,34.56-64.13,24.56
				c-23.05-10-35.51-39.87-26.7-63.96c8.82-24.09,37.51-38.57,61.45-30.99"/>
			<g>
				<path d="M753.84,818.8c16.85,2.9,25.8,20.57,28.55,35.89c3.04,16.97-1.96,33-17.14,42.31c-16.7,10.24-38.68,9.86-53.6-3.47
					c-13.98-12.5-21.12-35.06-13.12-52.68c8.96-19.74,33.68-28.65,53.76-22.64c4.9,1.47,10.77-10.69,4.7-12.51
					c-23.27-6.97-48.56,5.06-61.78,24.55c-13.56,20-12.71,47.33,1.72,66.68c14.7,19.71,40.04,24.48,62.05,14.72
					c21.32-9.46,34.69-30.64,34.1-53.85c-0.54-21.17-11.25-47.51-34.54-51.51C753.36,805.41,747.73,817.75,753.84,818.8
					L753.84,818.8z"/>
			</g>
		</g>
		<g>
			<path d="M242.39,1661.1c-38.65-40.24-64.74-83.32-49.27-189.02c12.49-85.34,34.54-181.84,63.31-263.11
				c18.22-51.47,45.25-91.58,88.67-123.8c51.1-37.91,120-35.05,182.36-27.12c124.9,15.88,247.64,45.45,368.96,79.13
				c46.36,12.87,111.87,54.96,137.07,96.63c40.99,67.8,2.82,320.79-47.61,460.82c-14.58,40.5-47.59,76.75-84.97,96.95"/>
			<g>
				<path d="M246.63,1655.93c-14.44-15.07-27.7-31.35-36.93-50.19c-10.92-22.28-15.32-47.15-16.06-71.79
					c-1.06-35.63,5.04-71.03,11.2-105.99c6.64-37.71,14.64-75.19,24.05-112.31c9.22-36.36,19.72-72.49,32.41-107.8
					c10.86-30.2,25.97-58.74,47.1-83.05c21.34-24.55,47.82-45.51,79.06-55.58c32.9-10.61,68.07-11.16,102.25-8.6
					c38.49,2.88,76.85,9.06,114.86,15.58c40.4,6.93,80.57,15.09,120.54,24.16c40,9.07,79.79,19.04,119.42,29.59
					c18.78,5,37.92,9.45,56.37,15.56c14.31,4.74,28.08,11.13,41.3,18.36c28.28,15.47,55.78,35.14,76.38,60.18
					c6.22,7.56,11.89,15.67,15.51,24.8c3.11,7.85,5.21,16.1,6.81,24.38c4.13,21.34,5.01,43.31,4.99,65
					c-0.03,27.02-1.8,54.04-4.57,80.92c-6.17,59.93-16.83,119.5-31.12,178.02c-6.56,26.84-13.95,53.49-22.66,79.72
					c-4.55,13.72-9.25,27.31-16.37,39.95c-8.33,14.79-18.91,28.36-31.12,40.15c-11.76,11.36-24.88,21.13-39.23,28.97
					c-2.76,1.51-5,5.19-4.83,8.37c0.15,2.92,2.37,4.35,5.02,2.9c30.72-16.78,56.88-42.16,74.87-72.16
					c14.96-24.95,22.94-53.95,30.96-81.72c17.12-59.24,29.76-119.86,38.44-180.9c7.75-54.5,13.46-110.57,9.21-165.63
					c-1.46-18.97-3.92-38.65-11.04-56.43c-9.75-24.33-30.58-43.64-50.73-59.54c-25.48-20.1-54.67-37.23-85.6-47.36
					c-18.68-6.12-37.96-10.71-56.95-15.77c-20.29-5.4-40.61-10.65-60.99-15.71c-82.37-20.45-165.61-37.76-249.77-48.94
					c-35.17-4.67-70.74-8.22-106.2-4.77c-35.2,3.42-67.83,14.94-95.73,36.93c-25.67,20.24-47.13,45.42-63.17,73.9
					c-17.74,31.5-28.62,66.39-38.96,100.86c-11.36,37.87-21.03,76.24-29.28,114.9c-8.09,37.89-15.54,76.27-19.87,114.8
					c-3.45,30.74-4.23,62.37,2.92,92.67c5.18,21.94,15.04,42.39,28.62,60.36c6.27,8.3,13.21,16.06,20.41,23.57
					C242.48,1670.78,250.24,1659.7,246.63,1655.93L246.63,1655.93z"/>
			</g>
		</g>
		<g>
			<path class="st5" d="M439.85,1197.83c-8.26,36.16-15.57,72.53-21.93,109.07c-1.68,9.69-3.24,20.04,0.58,29.02
				c6.11,14.37,23.05,19.6,38,23.21c11.83,2.85,24.76,5.6,35.78,0.22c15.83-7.72,20.47-28.09,23.21-45.75
				c4.26-27.38,8.51-54.76,12.77-82.14c2.12-13.61,4.03-28.46-2.68-40.34c-8.99-15.9-29.31-19.92-47.18-22.35
				c-8.92-1.21-18.55-2.3-26.5,2.1c-7.95,4.4-10.72,18.45-13.08,30.44"/>
			<g>
				<path d="M435.06,1199.05c-4.77,20.94-9.25,41.94-13.39,63.01c-2.13,10.85-4.19,21.72-6.15,32.61
					c-1.77,9.8-4.06,19.76-4.29,29.75c-0.4,17.4,9.52,29.4,25.2,35.63c7.28,2.89,14.98,4.81,22.62,6.48
					c8.94,1.96,18.5,3.32,27.47,0.74c15.61-4.48,24.73-19.19,29.2-33.91c5.5-18.11,7.15-37.53,10.05-56.18
					c3.18-20.46,7.55-41.11,9.12-61.77c1.29-16.85-2.96-33.32-18.14-42.54c-7.5-4.55-16.26-6.93-24.8-8.58
					c-9.24-1.78-19.11-3.57-28.52-2.57c-21.23,2.26-25.91,23.13-29.39,40.8c-0.51,2.6,0.58,5.47,3.63,4.93
					c3.11-0.55,5.4-4.58,5.95-7.36c1.31-6.65,2.32-13.92,5.45-20.01c3.19-6.21,11.46-6.37,17.63-6.04
					c13.48,0.7,28.81,2.94,40.85,9.34c14.26,7.57,18.7,21.2,17.54,36.67c-1.35,17.94-5.24,35.93-8,53.7
					c-2.66,17.12-4.67,34.49-8.24,51.45c-2.53,12.01-6.92,25.9-20.01,29.78c-7.61,2.25-15.83,0.99-23.44-0.6
					c-7.02-1.46-14.11-3.15-20.83-5.67c-14.11-5.3-24.12-14.6-23.46-30.63c0.39-9.6,2.8-19.29,4.51-28.72
					c1.86-10.24,3.8-20.47,5.82-30.69c4.09-20.75,8.5-41.43,13.2-62.05c0.59-2.6-0.64-5.46-3.63-4.93
					C437.84,1192.24,435.69,1196.26,435.06,1199.05L435.06,1199.05z"/>
			</g>
		</g>
		<g>
			<path class="st5" d="M782.7,1300.83c-7.88,39.96-33.35,91.06-11.31,109.69c12.01,10.15,82.6,29.33,87.79,8.24
				c33.74-137,54.83-164.31-19.86-179.03c-13.65-2.69-26.82-7.59-36.97,2.23s-15.23,39.14-19.32,59.89"/>
			<g>
				<path d="M777.91,1302.05c-5.06,25.1-15.34,49.03-19.1,74.41c-2.49,16.83-1.47,35.58,15.59,43.85
					c15.35,7.43,33.18,11.75,50.07,13.59c13.63,1.48,33.15,1.75,38.8-13.89c2.33-6.44,3.46-13.53,5.15-20.17
					c1.72-6.74,3.46-13.47,5.22-20.19c3-11.46,6.06-22.9,9.04-34.37c4.36-16.76,8.97-33.69,11.14-50.91
					c1.39-11,2.12-23.04-2.47-33.44c-4.11-9.31-12.16-15.43-21.33-19.39c-6.07-2.61-12.48-4.46-18.89-6.01
					c-10.44-2.53-22.04-6.19-32.8-5.63c-26.03,1.36-32.08,34.38-36.36,54.57c-1.31,6.18-2.49,12.39-3.71,18.59
					c-0.51,2.6,0.58,5.47,3.63,4.93c3.11-0.55,5.4-4.58,5.95-7.36c2.28-11.62,4.34-23.35,7.58-34.75
					c2.2-7.75,4.81-19.22,13.26-22.43c9.8-3.72,23.18,1.37,32.94,3.49c5.99,1.3,11.97,2.79,17.73,4.92
					c8.32,3.07,16.48,7.35,21.24,14.98c4.52,7.24,4.84,16.3,4.17,25.14c-1.05,13.88-4.69,28.15-8.09,41.8
					c-5.23,21.02-11,41.9-16.39,62.88c-1.55,6.04-3.09,12.09-4.59,18.14c-0.35,1.4-1.41,3.77-1.29,5.19
					c-0.04-0.47,0.96-1.76,0.15-0.66c0.53-0.73,0.34-0.32-0.29-0.04c-5.72,2.58-11.75,2.9-18.01,2.64
					c-15.93-0.66-32.21-4.52-47.11-10.13c-5.64-2.12-12.31-4.46-16.28-9.24c-6.04-7.27-5.89-17.7-4.74-26.57
					c3.38-26.09,14.19-50.65,19.37-76.37c0.52-2.6-0.59-5.47-3.63-4.93C780.74,1295.23,778.47,1299.27,777.91,1302.05
					L777.91,1302.05z"/>
			</g>
		</g>
		<g>
			<path class="st6" d="M467.62,1403.93c97.67,20.81,201.19,39.95,298.86,60.76c7.08,1.51,15.16,3.81,18.03,10.58
				c2.44,5.76,0,12.41-2.72,18.08c-34.05,70.94-120.56,111-194.75,90.2c-74.19-20.8-127.66-100.12-120.39-178.57"/>
			<g>
				<path d="M465.27,1410.18c61.38,13.07,122.98,25.09,184.52,37.36c30.73,6.13,61.45,12.31,92.13,18.72
					c7.41,1.55,14.82,3.05,22.21,4.68c5.09,1.12,11.65,2.54,14.83,7.16c3.96,5.74-0.46,12.93-3.24,18.22
					c-2.81,5.35-5.92,10.57-9.36,15.54c-25.41,36.66-66.58,61.35-110.35,68.74c-45.98,7.77-92.01-6.06-126.82-36.91
					c-39.55-35.05-62.26-88.61-57.61-141.43c0.27-3.08-2.67-4.05-5.02-2.9c-3.06,1.5-4.55,5.21-4.83,8.37
					c-4.36,49.62,14.56,100.09,48.59,136.17c33.76,35.79,80.71,55.12,129.96,50.71c47.85-4.28,93.45-28.85,123.82-66.01
					c7.72-9.45,14.53-19.76,20.01-30.67c5.64-11.23,11.27-27.3-2.41-35.2c-5.52-3.19-12.25-4.16-18.39-5.46
					c-8.04-1.7-16.07-3.39-24.12-5.06c-16.24-3.37-32.5-6.69-48.76-9.97c-65.45-13.2-131.02-25.85-196.38-39.48
					c-8.03-1.67-16.05-3.37-24.07-5.07C464.88,1396.59,459.16,1408.88,465.27,1410.18L465.27,1410.18z"/>
			</g>
		</g>
		<g class="st2">
			<path d="M473.07,1417.99c14.57,40.49,43.53,74.17,76.87,100.56c33.34,26.39,85.03,56.44,131.74,65.64
				c-46.1,4.87-116.75-10.59-151.2-41.89s-63.51-86.71-64.09-133.99"/>
			<g>
				<path d="M468.32,1422.06c24.94,68.34,87.48,117.55,151.42,147.82c19.01,9,38.93,16.39,59.58,20.55
					c1.17-4.13,2.34-8.27,3.51-12.4c-37.8,3.83-78.9-4.05-113.44-19.47c-16.69-7.45-31.48-17.29-44.01-30.64
					c-14.71-15.67-26.8-33.9-36.12-53.24c-10.35-21.48-17.51-45.14-17.95-69.11c-0.06-3.01-2.46-4.15-5.02-2.9
					c-2.82,1.38-4.89,5.29-4.83,8.37c0.81,43.94,21.65,88.07,49.92,121.04c12.71,14.82,27.33,26.7,44.86,35.35
					c18.56,9.16,38.72,15.28,59.01,19.2c21.46,4.16,43.49,5.9,65.28,3.69c4.3-0.44,9.39-11.21,3.51-12.4
					c-35.94-7.25-69.85-24.2-100.53-43.88c-28.95-18.57-55.8-40.82-76.79-68.22c-12.12-15.82-22.06-33.18-28.9-51.92
					C475.41,1407.32,466.56,1417.23,468.32,1422.06L468.32,1422.06z"/>
			</g>
		</g>
		<g class="st2">
			<path d="M449.54,1172.61c-16.79,58.88,2.89,137.27,43.62,181.78c-22.12-11.97-55.13-0.38-70.62-20.44
				c-8.31-10.76-7.2-26.07-5.2-39.69c5.71-38.92,15.35-77.27,28.73-114.23"/>
			<g>
				<path d="M444.75,1173.82c-13.9,49.67-4,106.05,20,151.05c6.66,12.48,14.67,24.19,24.17,34.68c2.55-3.69,5.1-7.39,7.66-11.08
					c-10.98-5.69-23.4-6.34-35.5-7.25c-11.44-0.87-24.87-1.79-33.06-10.95c-9.95-11.13-7.39-27.51-5.33-41
					c2.65-17.25,6.06-34.37,10.23-51.31c4.8-19.48,10.68-38.66,17.48-57.53c0.81-2.24,1.15-6.15-1.98-6.66
					c-3.02-0.49-5.84,3.51-6.68,5.85c-12.66,35.14-22.14,71.44-28.04,108.33c-2.39,14.92-5.51,31.93,1.5,46.1
					c5.92,11.97,18.01,16.86,30.56,18.62c14.67,2.07,30.46,0.63,43.99,7.64c4.61,2.39,10.86-7.55,7.66-11.08
					c-33.05-36.46-49.75-88.34-48.9-137.14c0.24-13.77,2.12-27.42,5.83-40.69c0.73-2.6-0.73-5.44-3.63-4.93
					C447.41,1167.04,445.53,1171.04,444.75,1173.82L444.75,1173.82z"/>
			</g>
		</g>
		<g class="st2">
			<path d="M806.86,1249.9c-8.13,59.46,7.52,121.74,42.59,169.53c-14.7,0.22-29.68,0.41-43.69-4.01
				c-14.01-4.42-30.16-3.62-34.8-17.82c-4.47-13.68,5.8-45.22,9.77-59.13c9.63-33.81,15.98-61.72,25.61-95.53"/>
			<g>
				<path d="M802.07,1251.11c-8.08,60.76,6.97,123.8,43.15,173.47c2.2-3.81,4.39-7.61,6.59-11.42c-9.2,0.14-18.43,0.28-27.59-0.74
					c-8.21-0.91-15.87-3.49-23.88-5.29c-11.31-2.54-24.89-4.82-25.52-18.99c-0.56-12.7,3.48-25.85,6.93-37.93
					c4.36-15.25,8.68-30.5,12.7-45.85c5.33-20.37,10.47-40.79,16.22-61.04c0.65-2.28,1.26-6.13-1.98-6.66
					c-2.89-0.47-6.01,3.48-6.68,5.85c-10.2,35.91-19.05,72.19-29.27,108.1c-3.84,13.49-8.06,27.75-7.81,41.9
					c0.1,5.88,1.36,12.08,5.38,16.6c4.44,5,10.7,7.08,17,8.65c8.53,2.13,17.23,4.71,25.87,6.24c11.19,1.99,22.61,1.82,33.92,1.65
					c4.4-0.07,9.49-7.43,6.59-11.42c-34.44-47.3-49.76-107.56-42.04-165.58C812.83,1239.81,802.85,1245.24,802.07,1251.11
					L802.07,1251.11z"/>
			</g>
		</g>
		<g class="st2">
			<path d="M373.49,956.23c-158.9,193.18-222.45,459.83-145.62,697.81c-28.31,10.37-60.2-9.37-74.13-36.38
				c-31.53-61.15-3.47-477.69,198.12-659.88"/>
			<g>
				<path d="M370.97,952.67c-62.42,76.04-110.84,163.58-141.68,257.03c-30.49,92.39-44.04,190.6-37.1,287.75
					c3.9,54.55,14.19,108.59,30.93,160.66c1.97-3.41,3.93-6.81,5.9-10.22c-17.18,5.99-35.07,0.85-49.32-9.71
					c-7.14-5.3-13.25-11.94-18.08-19.4c-1.53-2.37-2.97-4.82-4.18-7.37c0.51,1.08-0.59-1.42-0.79-1.95
					c-4.22-10.87-5.73-22.67-6.86-33.66c-4.12-39.9-2.11-80.64,1.6-120.48c5.1-54.81,14.5-109.28,27.78-162.69
					c14.52-58.36,33.86-115.92,59.94-170.17c25.4-52.85,57.29-103.54,98.78-145.3c4.98-5.01,10.09-9.88,15.32-14.62
					c2.2-1.99,4.44-5.75,3.4-8.83c-0.99-2.96-4.15-2.44-6.09-0.68c-45.09,40.88-80.49,91.49-108.49,145.29
					c-28.97,55.66-50.52,114.94-66.91,175.44c-15.05,55.58-25.73,112.42-31.88,169.67c-4.63,43.08-7.45,86.98-4,130.26
					c1.05,13.23,2.5,26.81,6.41,39.54c7.51,24.39,30.65,45.17,55.9,49.22c8.43,1.35,17.1,0.55,25.15-2.26
					c3.63-1.27,7.18-6.24,5.9-10.22c-29.27-91.06-38.49-187.95-28.41-283.01c10.06-94.92,38.55-187.73,82.68-272.33
					c24.98-47.89,54.86-93.09,89.13-134.84c1.64-1.99,3.69-6.3,1.72-8.71C375.73,948.61,372.47,950.85,370.97,952.67L370.97,952.67z
					"/>
			</g>
		</g>
		<g class="st2">
			<g>
				<path d="M775.47,1254.73c5.32,0,10.55-12.51,4.7-12.51C774.85,1242.23,769.63,1254.73,775.47,1254.73L775.47,1254.73z"/>
			</g>
		</g>
		<g class="st2">
			<g>
				<path class="st3" d="M858.3,1064.06c15.24,4.76,30.46,9.63,45.49,15.01c7.57,2.71,15.1,5.55,22.56,8.57
					c3.48,1.41,6.95,2.86,10.4,4.36c4.84,2.1,4.39,1.89,9.39,4.28c27.37,13.06,53.22,29.45,73.35,52.19
					c49.16,55.53,48.36,133.21,39.37,202.57c-5.92,45.67-14.87,91.12-14.92,137.34c0,3.01,4.63,4.89,6.67,5.64
					c4.87,1.79,10.99,2.42,16.11,2.34c5.39-0.08,11.01-0.47,16.11-2.34c2.4-0.88,6.67-2.49,6.67-5.64
					c0.09-80.02,27.19-158.47,17.87-238.74c-4.06-35-15.52-69.6-37.42-97.57c-19.83-25.33-46.71-44.58-75.13-59.2
					c-33.22-17.1-68.73-28.97-104.3-40.08c-10.01-3.12-22.26-3.65-32.22,0c-2.4,0.88-6.67,2.5-6.67,5.64
					C851.63,1061.47,856.12,1063.38,858.3,1064.06L858.3,1064.06z"/>
			</g>
		</g>
		<g class="st2">
			<g>
				<path class="st3" d="M719.77,836.59c11.92,11.54,16.36,27.83,12.77,43.96c-1.95,8.76,42.67,13.02,45.57,0
					c3.82-17.13-1.77-35.97-14.4-48.2c-6.66-6.45-19.39-6.57-28.03-5.57C733.35,827.05,713.73,830.73,719.77,836.59L719.77,836.59z"
					/>
			</g>
		</g>
		<g class="st2">
			<g>
				<path class="st3" d="M839.94,1168.47c32.37,10.21,64.02,20.01,91.57,39.81c24.4,17.54,43.25,43.01,48.23,73.04
					c5.9,35.57-4.26,71.57-13.11,105.76c-9.65,37.27-19.31,74.53-28.96,111.8c-10.9,42.09-21.8,84.17-32.71,126.26
					c-2.15,8.29,42.17,13.13,45.57,0c19.72-76.14,39.45-152.28,59.17-228.42c9.09-35.08,20.44-71.65,16.56-108.31
					c-3.51-33.22-21.42-60.71-46.83-81.56c-30.87-25.32-69.76-37.82-107.27-49.65c-9.99-3.15-22.28-3.64-32.22,0
					c-2.4,0.88-6.67,2.5-6.67,5.64C833.27,1165.87,837.75,1167.78,839.94,1168.47L839.94,1168.47z"/>
			</g>
		</g>
		<g class="st2">
			<g>
				<path class="st3" d="M814.47,1343.39c21.55-16.54,43.1-33.08,64.64-49.62c7.54-5.79-2.67-9.85-8.17-10.91
					c-5.73-1.1-11.76-1.48-17.56-0.8c-4.32,0.5-10.07,0.94-13.62,3.66c-21.55,16.54-43.1,33.08-64.64,49.62
					c-7.54,5.79,2.67,9.85,8.17,10.91c5.73,1.1,11.76,1.48,17.56,0.8C805.17,1346.55,810.92,1346.11,814.47,1343.39L814.47,1343.39z
					"/>
			</g>
		</g>
		<g class="st2">
			<g>
				<path class="st3" d="M837.08,1362.12c9.8-8.46,19.59-16.92,29.39-25.39c2.45-2.12-0.8-5.17-2.3-6.14
					c-3.63-2.36-9.48-3.32-13.62-3.66c-9.13-0.75-20.7-0.76-28.03,5.57c-9.8,8.46-19.59,16.92-29.39,25.39
					c-2.45,2.12,0.8,5.17,2.3,6.14c3.63,2.36,9.48,3.32,13.62,3.66C818.19,1368.44,829.75,1368.45,837.08,1362.12L837.08,1362.12z"
					/>
			</g>
		</g>
		<g class="st2">
			<g>
				<path class="st3" d="M575.44,1518.88c34.06-11.3,68.13-22.6,102.19-33.9c2.05-0.68,6.67-2.68,6.67-5.64
					c0-2.97-4.62-4.95-6.67-5.64c-9.93-3.35-22.27-3.3-32.22,0c-34.06,11.3-68.13,22.6-102.19,33.9c-2.05,0.68-6.67,2.68-6.67,5.64
					c0,2.97,4.62,4.95,6.67,5.64C553.15,1522.23,565.48,1522.18,575.44,1518.88L575.44,1518.88z"/>
			</g>
		</g>
		<g class="st2">
			<g>
				<path class="st3" d="M477.59,1268.4c13.84-11.82,27.69-23.64,41.53-35.46c2.47-2.11-0.81-5.18-2.3-6.14
					c-3.63-2.36-9.48-3.32-13.62-3.66c-9.18-0.76-20.65-0.73-28.03,5.57c-13.84,11.82-27.69,23.64-41.53,35.46
					c-2.47,2.11,0.81,5.18,2.3,6.14c3.63,2.36,9.48,3.32,13.62,3.66C458.74,1274.73,470.2,1274.7,477.59,1268.4L477.59,1268.4z"/>
			</g>
		</g>
		<g class="st2">
			<g>
				<path class="st3" d="M477.58,1310.25c13.58-10.49,27.16-20.97,40.75-31.46c7.51-5.8-2.64-9.85-8.17-10.91
					c-5.73-1.1-11.76-1.48-17.56-0.8c-4.32,0.5-10.08,0.93-13.62,3.66c-13.58,10.49-27.16,20.97-40.75,31.46
					c-7.51,5.8,2.64,9.85,8.17,10.91c5.73,1.1,11.76,1.48,17.56,0.8C468.28,1313.41,474.04,1312.98,477.58,1310.25L477.58,1310.25z"
					/>
			</g>
		</g>
		<g class="st2">
			<g>
				<path class="st3" d="M572.58,1514.79c28.93-12.13,57.85-24.25,86.78-36.38c2.04-0.86,6.67-2.56,6.67-5.64
					c0-2.97-4.62-4.95-6.67-5.64c-9.31-3.14-22.93-3.9-32.22,0c-28.93,12.13-57.85,24.25-86.78,36.38
					c-2.04,0.86-6.67,2.56-6.67,5.64c0,2.97,4.62,4.95,6.67,5.64C549.67,1517.93,563.29,1518.69,572.58,1514.79L572.58,1514.79z"/>
			</g>
		</g>
		<g class="st2">
			<g>
				<path class="st3" d="M606.96,1549.47c27.51-12.65,55.03-25.31,82.54-37.96c2.46-1.13,3.87-3.78,2.3-6.14
					c-1.84-2.77-7.67-4.23-10.47-4.77c-10.37-1.99-21.52-1.58-31.17,2.86c-27.51,12.65-55.03,25.31-82.54,37.96
					c-2.46,1.13-3.87,3.78-2.3,6.14c1.84,2.77,7.67,4.23,10.47,4.77C586.15,1554.32,597.31,1553.91,606.96,1549.47L606.96,1549.47z"
					/>
			</g>
		</g>
	</g>
</g>
</svg>
