<?xml version="1.0" encoding="utf-8"?>
<!-- Generator: Adobe Adobe Illustrator 24.2.0, SVG Export Plug-In . SVG Version: 6.00 Build 0)  -->
<svg version="1.1" xmlns="http://www.w3.org/2000/svg" xmlns:xlink="http://www.w3.org/1999/xlink" x="0px" y="0px"
	 viewBox="0 0 170.08 170.08" style="enable-background:new 0 0 170.08 170.08;" xml:space="preserve">
<style type="text/css">
	.st0{fill:#FFFFFF;stroke:#000000;stroke-width:1.5529;stroke-linecap:round;stroke-linejoin:round;stroke-miterlimit:10;}
	.st1{fill:#FFBABA;}
	
		.st2{opacity:0.0706;fill:none;stroke:#000000;stroke-width:5.8235;stroke-linecap:round;stroke-linejoin:round;stroke-miterlimit:10;enable-background:new    ;}
	.st3{fill:none;stroke:#FFFFFF;stroke-width:3.8824;stroke-linecap:round;stroke-linejoin:round;stroke-miterlimit:10;}
	.st4{stroke:#000000;stroke-width:1.553;stroke-linecap:round;stroke-linejoin:round;stroke-miterlimit:10.0006;}
	.st5{fill:#FFFFFF;}
	.st6{opacity:0.149;}
	.st7{fill:#D15238;}
	.st8{fill:#D15239;}
	.st9{fill:#C8354F;}
	.st10{fill:#C93550;}
	.st11{opacity:0.0314;}
	.st12{fill:#D1DFEA;}
	.st13{fill:#D3E1ED;}
	.st14{fill:#C8354E;}
	.st15{fill:#F3C058;}
	.st16{fill:#C8AE9D;}
	.st17{opacity:0.0784;}
	.st18{opacity:0.1412;}
	.st19{fill:#F0F6FA;}
	.st20{stroke:#000000;stroke-width:0.0684;stroke-miterlimit:10;}
	.st21{fill:#6DB671;}
	.st22{fill:#6CB671;}
</style>
<g id="Ebene_4_5_">
</g>
<g id="Ebene_3">
	<g id="Ebene_2_7_">
		<path class="st0" d="M23.22,65.87c-35.42,14.77-15.43,72.35,18.01,61.66c0.54,5.44,14.99,8.94,19.25,1.9
			c2.75,7.43,27.94,18.78,38.7,0.98c5.02,8.69,22.24,14.52,32.85,3.76c46.77,18.36,44.85-72.79,8.74-68.84
			c2.01-12.07-18.61-20.14-24.61-13.51c-1.82-34.5-46.65-30.87-49.37-10.7C53.22,29.94,27.21,36.35,23.22,65.87z"/>
		<path class="st0" d="M61.68,79.34c-1.58,7.74,2.14,16.51,8.3,19.61c6.16,3.1,14.04,0.16,17.61-6.58"/>
	</g>
	<g id="Ebene_4">
		<path class="st1" d="M35.43,80.45c0.54,6.63,21.75,3.25,21.35-4.48C56.37,68.33,34.64,70.75,35.43,80.45z"/>
		<path class="st1" d="M99.32,79.63c-1.23,6.49,19.81,11.16,21.45,3.67C122.4,75.9,101.12,70.12,99.32,79.63z"/>
	</g>
	<g id="Ebene_9_5_">
		<path class="st2" d="M64.19,45.84c-6.49-3.97-14.53-4.18-21.16-0.54s-11.72,11.04-13.4,19.49"/>
		<path class="st2" d="M24.13,72.22C-5,89.71,17.44,127.44,37.41,121.71"/>
		<path class="st2" d="M72.28,43.74c10.83-18.35,33.82-10.82,37.79,5.43"/>
		<path class="st2" d="M65.45,126.45c7.95,9.45,19.64,10.36,28.76,0.68"/>
		<path class="st2" d="M104.04,128.63c6.17,6.57,16.12,7.45,23.04,2.04"/>
		<path class="st2" d="M143.2,72.22c25.7,0,29.86,66.34-6.55,57.97"/>
	</g>
	<g id="Ebene_10_4_">
		<path class="st3" d="M115.76,53.31c1.16-1.9,2.98-3.16,4.9-3.71c1.92-0.55,3.95-0.43,5.88,0.04c3.35,0.82,6.5,2.68,9.14,5.26
			c1.44,1.4,2.75,3.04,3.6,5.01c0.85,1.97,1.21,4.29,0.73,6.43"/>
	</g>
	<g id="Ebene_19_1_">
		
			<ellipse transform="matrix(0.321 -0.9471 0.9471 0.321 -9.6788 112.7225)" class="st4" cx="73.77" cy="63.11" rx="11.07" ry="2.45"/>
		
			<ellipse transform="matrix(0.321 -0.9471 0.9471 0.321 -9.6788 112.7225)" class="st4" cx="73.77" cy="63.11" rx="11.07" ry="2.45"/>
		
			<ellipse transform="matrix(0.321 -0.9471 0.9471 0.321 -7.0346 128.4286)" class="st4" cx="86.05" cy="69.12" rx="11.07" ry="2.45"/>
	</g>
	<g id="Ebene_21">
		<ellipse class="st5" cx="75.85" cy="56.41" rx="1.15" ry="1.37"/>
		<ellipse class="st5" cx="75.85" cy="56.41" rx="1.15" ry="1.37"/>
		<ellipse class="st5" cx="88.1" cy="62.41" rx="1.07" ry="1.38"/>
	</g>
	<g>
		<g id="Ebene_2_Kopie_3_">
			<g>
				<path class="st19" d="M129.98,59.88c4.35,2.2,17.56,8.94,19.72,7.79c3.51-1.86,21.36-31.43,20.07-34.42
					C167.08,26.97,113.66-2.1,106.5,0.5c-6.46,2.35-14,34.24-13.13,36.78c1.31,3.84,10.97,6.7,14.48,10.15
					c1.57,1.54,5.59,14.69,7.73,15.55c1.21,0.49,10.37-1.11,14.26-3.16"/>
				<g>
					<path class="st19" d="M129.84,60.19c4.27,2.16,8.55,4.32,12.98,6.13c1.07,0.44,2.14,0.85,3.24,1.2c0.81,0.26,1.65,0.51,2.5,0.6
						c0.52,0.05,1.04,0.05,1.48-0.23c0.33-0.22,0.62-0.5,0.89-0.78c0.9-0.92,1.68-1.96,2.44-2.99c1.09-1.48,2.13-2.99,3.14-4.53
						c2.44-3.69,4.75-7.47,6.95-11.31c1.93-3.38,3.83-6.81,5.39-10.37c0.48-1.11,0.97-2.24,1.23-3.43c0.07-0.34,0.14-0.71,0.08-1.06
						c-0.05-0.31-0.22-0.59-0.4-0.84c-0.51-0.74-1.21-1.38-1.89-1.98c-1.01-0.89-2.08-1.7-3.17-2.49c-3.04-2.21-6.22-4.22-9.43-6.18
						c-3.93-2.39-7.93-4.68-11.98-6.88c-4.2-2.29-8.45-4.49-12.75-6.58c-3.84-1.87-7.73-3.66-11.69-5.25
						c-2.87-1.16-5.83-2.3-8.87-2.93c-0.92-0.19-1.9-0.35-2.84-0.27c-0.98,0.09-1.75,0.61-2.41,1.27c-1.06,1.04-1.85,2.35-2.56,3.65
						c-0.94,1.72-1.73,3.53-2.45,5.35c-1.67,4.21-3.01,8.57-4.17,12.95c-0.95,3.58-1.84,7.21-2.38,10.89
						c-0.14,0.94-0.32,1.94-0.22,2.9c0.06,0.62,0.45,1.21,0.85,1.69c0.73,0.89,1.69,1.6,2.65,2.24c2.4,1.57,5.03,2.78,7.53,4.19
						c1.11,0.63,2.21,1.3,3.17,2.12c0.33,0.28,0.46,0.38,0.67,0.7c0.17,0.25,0.3,0.5,0.43,0.76c0.94,1.85,1.66,3.79,2.44,5.7
						c0.85,2.1,1.69,4.23,2.74,6.26c0.36,0.69,0.73,1.41,1.25,2.01c0.39,0.46,0.79,0.69,1.39,0.72c0.9,0.05,1.81-0.08,2.7-0.2
						c1.32-0.18,2.63-0.43,3.93-0.71c2.5-0.55,5.08-1.21,7.32-2.39c0.39-0.2-0.03-0.76-0.41-0.56c-1.09,0.57-2.27,0.98-3.45,1.34
						c-1.34,0.41-2.7,0.75-4.07,1.05c-1.24,0.27-2.5,0.49-3.76,0.65c-0.78,0.1-1.71,0.24-2.45,0.14c-0.05-0.01-0.09-0.02-0.14-0.02
						c-0.12-0.02,0.02,0.01-0.06-0.02c-0.04-0.02-0.07-0.04-0.11-0.06c0.08,0.05-0.07-0.06-0.1-0.08c-0.2-0.17-0.35-0.36-0.52-0.61
						c-0.49-0.69-0.87-1.45-1.24-2.2c-1.01-2.08-1.85-4.24-2.72-6.37c-0.72-1.77-1.39-3.6-2.32-5.29c-0.36-0.65-0.82-1.12-1.42-1.59
						c-1-0.79-2.12-1.45-3.23-2.08c-2.46-1.38-5.07-2.56-7.41-4.14c-0.91-0.61-1.83-1.31-2.46-2.19c-0.12-0.17-0.23-0.35-0.32-0.53
						c-0.05-0.1-0.09-0.21-0.13-0.31c-0.01-0.02-0.05-0.18-0.02-0.04c-0.03-0.12-0.04-0.25-0.04-0.37
						c-0.02-0.36,0.01-0.74,0.06-1.19c0.06-0.6,0.14-1.19,0.24-1.79c0.26-1.65,0.59-3.28,0.95-4.91c0.94-4.24,2.08-8.44,3.42-12.57
						c1.26-3.89,2.65-7.8,4.65-11.38c0.68-1.21,1.44-2.44,2.47-3.4c0.31-0.29,0.78-0.62,1.15-0.76c0.07-0.03,0.13-0.05,0.2-0.07
						c0.03-0.01,0.06-0.02,0.09-0.02c0.11-0.03-0.04,0,0.07-0.01c0.17-0.03,0.34-0.04,0.51-0.05c0.47-0.02,0.74,0.01,1.21,0.07
						c0.54,0.07,1.08,0.17,1.62,0.29c1.33,0.3,2.64,0.71,3.93,1.15c3.57,1.22,7.05,2.71,10.49,4.27c4.16,1.89,8.26,3.91,12.32,6.01
						c4.17,2.16,8.3,4.41,12.37,6.75c3.62,2.08,7.2,4.23,10.69,6.52c2.52,1.65,5.05,3.35,7.31,5.33c0.38,0.34,0.76,0.68,1.11,1.05
						c0.07,0.07,0.06,0.07,0.16,0.18c0.07,0.08,0.14,0.15,0.2,0.23c0.11,0.13,0.22,0.27,0.32,0.41c0.04,0.06,0.08,0.12,0.12,0.18
						c0.02,0.03,0.04,0.06,0.06,0.1c-0.06-0.1,0,0.01,0.01,0.03c0.02,0.05,0.05,0.1,0.07,0.15c0.04,0.09-0.01-0.07,0,0.01
						c0.01,0.03,0.01,0.06,0.01,0.09c0,0.04,0.01,0.24,0.01,0.12c0,0.08-0.01,0.17-0.02,0.25c-0.02,0.2-0.06,0.4-0.11,0.6
						c-0.26,1.1-0.76,2.26-1.24,3.35c-0.72,1.62-1.52,3.21-2.34,4.78c-2.01,3.83-4.18,7.57-6.45,11.26c-2.05,3.34-4.17,6.64-6.5,9.8
						c-0.76,1.02-1.53,2.05-2.42,2.97c-0.3,0.31-0.45,0.47-0.78,0.69c-0.14,0.09-0.22,0.12-0.37,0.14c-0.3,0.03-0.52,0.01-0.81-0.03
						c-0.86-0.12-1.72-0.38-2.54-0.66c-1.1-0.37-2.18-0.8-3.25-1.24c-2.43-1.01-4.82-2.13-7.19-3.28c-1.79-0.87-3.56-1.76-5.34-2.66
						C129.72,59.38,129.44,59.98,129.84,60.19L129.84,60.19z"/>
				</g>
			</g>
		</g>
		<g id="Ebene_7_2_">
			<g class="st6">
				<g>
					<path class="st5" d="M152.24,27c1.26,0.85,2.59,1.58,3.9,2.35c0.36,0.21,0.72,0.43,1.08,0.64c0.17,0.11,0.35,0.21,0.52,0.32
						c0.09,0.05,0.17,0.11,0.26,0.16c0.29,0.18-0.24-0.15,0.05,0.03c0.67,0.43,1.34,0.87,1.97,1.35c0.3,0.22,0.59,0.46,0.86,0.7
						c0.13,0.11,0.25,0.22,0.37,0.34c0.06,0.06,0.11,0.11,0.17,0.17c0.23,0.23-0.16-0.18-0.02-0.02c0.19,0.22,0.38,0.44,0.54,0.69
						c0.03,0.05,0.06,0.12,0.1,0.16c-0.05-0.07-0.16-0.32-0.07-0.12c0.05,0.12,0.08,0.26,0.14,0.37c-0.03-0.06-0.07-0.37-0.04-0.15
						c0.01,0.05,0.01,0.11,0.02,0.16c0.05,0.3,0.05-0.27,0.01-0.09c-0.02,0.09-0.11,0.44-0.02,0.12c0.1-0.31,0.02-0.06-0.01,0.01
						c-0.03,0.07-0.05,0.14-0.08,0.21c-0.06,0.16-0.13,0.32-0.2,0.47c-0.96,2.13-2.19,4.16-3.37,6.17
						c-1.68,2.85-3.41,5.68-5.14,8.49c-1.64,2.67-3.29,5.33-4.91,8c-0.17,0.28-0.34,0.55-0.5,0.83c-0.36,0.6,0.06,1.53,0.72,1.8
						c0.76,0.32,1.45,0.03,1.84-0.61c1.59-2.64,3.22-5.26,4.84-7.89c1.78-2.89,3.56-5.79,5.29-8.72c1.28-2.16,2.59-4.32,3.66-6.6
						c0.27-0.58,0.62-1.25,0.65-1.9c0.08-1.53-0.98-2.8-2.11-3.81c-1.26-1.13-2.74-2.04-4.2-2.93c-1.35-0.82-2.73-1.58-4.07-2.4
						c-0.07-0.04-0.13-0.08-0.2-0.12c-0.2-0.12,0.31,0.2,0.08,0.05c-0.13-0.08-0.25-0.16-0.37-0.25c-0.61-0.41-1.48-0.49-1.96,0.11
						C151.62,25.62,151.58,26.56,152.24,27L152.24,27z"/>
				</g>
			</g>
			<g class="st6">
				<g>
					<path class="st5" d="M144.75,62.36c-0.08,0.28-0.16,0.57-0.24,0.85c0.84-0.16,1.67-0.33,2.51-0.49
						c-0.23-0.35-0.47-0.69-0.7-1.04c-0.21,0.67-0.42,1.34-0.62,2.01c-0.2,0.05-0.38,0.07-0.59,0c-0.09-0.01-0.16-0.05-0.23-0.11
						c-0.12-0.08-0.14-0.09-0.06-0.03c-0.12-0.12-0.2-0.23-0.27-0.38c0.04,0.09,0.03,0.07-0.01-0.05c-0.04-0.11-0.05-0.22-0.04-0.34
						c0.41-0.36,0.81-0.73,1.22-1.09c0.02,0,0.35,0.05,0.18,0.01c0.17,0.04,0.31,0.1,0.46,0.21c-0.15-0.11,0.1,0.11,0.11,0.13
						c-0.12-0.13,0.07,0.12,0.08,0.15c0.06,0.14,0.06,0.3,0.04,0.45c0.03-0.24-0.22,0.43-0.21,0.41c0.1-0.14-0.1,0.09-0.12,0.1
						c-0.07,0.03-0.13,0.07-0.2,0.1c-0.23,0.03-0.29,0.05-0.19,0.04c0.16,0-0.33-0.03-0.16-0.01c0.07,0.02,0.04,0.01-0.09-0.03
						c-0.08-0.01-0.16-0.05-0.22-0.1c-0.28-0.17-0.45-0.45-0.44-0.76c0.01-0.29-0.06,0.12,0.03-0.17c0.09-0.29-0.09,0.09,0.07-0.16
						c0.03-0.07,0.08-0.13,0.15-0.17c0.1-0.08,0.12-0.1,0.06-0.06c-0.1,0.07,0.33-0.12,0.12-0.07c0.63,0.39,1.26,0.79,1.89,1.18
						c-0.02-0.13-0.05-0.27-0.07-0.4c-0.12-0.7-0.78-1.33-1.55-1.25c-0.72,0.08-1.35,0.69-1.23,1.44c0.02,0.13,0.05,0.27,0.07,0.4
						c0.07,0.43,0.28,0.77,0.66,1.01c0.41,0.26,0.78,0.26,1.23,0.17c0.9-0.19,1.46-1.2,1.32-2.05c-0.17-1.01-1.17-1.78-2.23-1.64
						c-1.02,0.13-1.85,1-1.65,2.04c0.2,1.01,1.13,1.79,2.2,1.72c0.61-0.04,1.13-0.51,1.22-1.09c0.1-0.63-0.16-1.32-0.69-1.75
						c-0.57-0.46-1.22-0.57-1.91-0.4c-0.9,0.21-1.09,1.33-0.62,2.01c0.23,0.35,0.47,0.69,0.7,1.04c0.31,0.46,0.94,0.67,1.46,0.57
						c0.59-0.12,0.9-0.52,1.05-1.05c0.08-0.28,0.16-0.57,0.24-0.85c0.08-0.3-0.07-0.74-0.25-0.99c-0.2-0.28-0.58-0.53-0.93-0.58
						c-0.35-0.05-0.74-0.01-1.02,0.2C145,61.72,144.86,62,144.75,62.36L144.75,62.36z"/>
				</g>
			</g>
		</g>
		<g id="Ebene_2_4_">
			<g>
				<g>
					<path d="M126.55,61.89c4.27,2.16,8.56,4.33,12.99,6.14c1.07,0.44,2.14,0.85,3.24,1.2c0.87,0.28,1.77,0.57,2.68,0.66
						c0.71,0.07,1.39,0.05,1.98-0.32c0.38-0.24,0.71-0.57,1.02-0.88c0.9-0.92,1.68-1.96,2.45-2.99c1.1-1.48,2.14-3,3.15-4.54
						c2.47-3.73,4.81-7.54,7.03-11.42c1.93-3.38,3.83-6.8,5.38-10.37c0.49-1.14,0.99-2.32,1.24-3.54c0.08-0.39,0.13-0.81,0.07-1.21
						c-0.07-0.43-0.29-0.82-0.55-1.17c-0.56-0.79-1.31-1.48-2.05-2.12c-1.02-0.89-2.1-1.71-3.2-2.5c-3.09-2.24-6.32-4.28-9.58-6.26
						c-3.93-2.39-7.93-4.67-11.97-6.87c-4.19-2.28-8.43-4.48-12.73-6.57c-3.83-1.86-7.7-3.65-11.65-5.24
						c-2.94-1.19-5.97-2.36-9.07-3.01c-0.99-0.21-2.03-0.38-3.03-0.3c-1.15,0.1-2.06,0.68-2.85,1.44c-1.11,1.07-1.93,2.43-2.66,3.76
						c-0.94,1.72-1.73,3.52-2.45,5.34c-1.68,4.25-3.02,8.65-4.2,13.07c-0.95,3.6-1.83,7.24-2.37,10.93
						c-0.14,0.98-0.32,2.03-0.21,3.03c0.08,0.74,0.52,1.45,1,2.03C91,41.14,92,41.9,93.04,42.57c2.47,1.6,5.15,2.84,7.7,4.3
						c0.28,0.16,0.56,0.32,0.84,0.49c0.07,0.04,0.15,0.09,0.22,0.13c0.04,0.02,0.28,0.18,0.05,0.03c0.14,0.09,0.28,0.18,0.42,0.27
						c0.51,0.34,1.01,0.7,1.47,1.1c0.09,0.08,0.18,0.15,0.26,0.23c0.05,0.05,0.09,0.1,0.15,0.14c0.11,0.08-0.2-0.24-0.12-0.13
						c0.06,0.09,0.14,0.18,0.21,0.27c0.08,0.11,0.14,0.23,0.21,0.34c0.15,0.26-0.1-0.19,0.01,0.02c0.05,0.1,0.1,0.19,0.15,0.29
						c0.94,1.84,1.66,3.78,2.44,5.68c0.86,2.1,1.7,4.23,2.77,6.25c0.39,0.74,0.79,1.51,1.34,2.14c0.26,0.3,0.55,0.59,0.91,0.77
						c0.37,0.18,0.74,0.21,1.14,0.23c0.92,0.04,1.84-0.08,2.73-0.2c1.37-0.19,2.72-0.44,4.07-0.74c2.55-0.56,5.14-1.23,7.43-2.42
						c0.49-0.25,0.54-0.97,0.23-1.4c-0.36-0.49-0.97-0.54-1.46-0.29c-0.07,0.03-0.46,0.22-0.19,0.1c-0.12,0.06-0.24,0.11-0.36,0.16
						c-0.28,0.12-0.57,0.24-0.85,0.35c-0.62,0.24-1.25,0.45-1.88,0.64c-1.34,0.41-2.7,0.74-4.07,1.03
						c-0.15,0.03-0.29,0.06-0.44,0.09c-0.03,0.01-0.32,0.06-0.09,0.02c-0.09,0.02-0.17,0.03-0.26,0.05
						c-0.34,0.06-0.68,0.12-1.02,0.18c-0.59,0.1-1.18,0.19-1.78,0.26c-0.48,0.06-0.97,0.11-1.46,0.14
						c-0.18,0.01-0.37,0.02-0.55,0.02c-0.08,0-0.18-0.02-0.25,0c0.27-0.06,0.19,0.02,0.02,0c-0.06-0.01-0.11-0.02-0.17-0.03
						c-0.19-0.02,0.18,0.08,0.14,0.05c-0.03-0.02-0.1-0.06-0.13-0.07c0.27,0.06,0.22,0.16,0.08,0.04c-0.05-0.04-0.09-0.09-0.14-0.13
						c-0.17-0.14,0.19,0.22,0.04,0.04c-0.1-0.12-0.21-0.25-0.3-0.38c-0.22-0.31-0.42-0.64-0.61-0.97c-0.03-0.06-0.15-0.23,0.02,0.03
						c-0.03-0.05-0.06-0.1-0.08-0.15c-0.05-0.1-0.1-0.19-0.15-0.29c-0.12-0.23-0.23-0.45-0.34-0.68c-1.01-2.07-1.86-4.22-2.73-6.34
						c-0.75-1.83-1.45-3.71-2.43-5.45c-0.38-0.67-0.88-1.18-1.49-1.68c-1.07-0.85-2.26-1.56-3.45-2.23
						c-1.25-0.7-2.53-1.36-3.79-2.03c-0.63-0.33-1.25-0.67-1.86-1.03c-0.28-0.16-0.56-0.33-0.84-0.5c-0.07-0.05-0.15-0.09-0.22-0.14
						c-0.24-0.15,0.13,0.09-0.02-0.01c-0.15-0.1-0.31-0.2-0.46-0.3c-0.5-0.33-0.99-0.69-1.44-1.08c-0.2-0.17-0.38-0.35-0.57-0.53
						c-0.17-0.17,0.15,0.18,0,0c-0.04-0.05-0.09-0.1-0.13-0.15c-0.08-0.1-0.16-0.2-0.24-0.3c-0.07-0.1-0.14-0.2-0.21-0.3
						c-0.02-0.03-0.04-0.07-0.06-0.1c-0.12-0.18,0.1,0.22,0.02,0.03c-0.06-0.14-0.11-0.33-0.19-0.46c0.16,0.25,0.06,0.29,0.04,0.16
						c0-0.02-0.01-0.05-0.01-0.07c-0.01-0.07-0.01-0.14-0.02-0.21c0-0.08,0-0.15-0.01-0.23c0-0.24-0.01,0.18,0,0.09
						c0-0.05,0-0.1,0-0.15c0.01-0.23,0.03-0.47,0.05-0.7c0.06-0.6,0.14-1.2,0.23-1.8c0.25-1.64,0.58-3.27,0.94-4.88
						c0.45-2.02,0.94-4.03,1.48-6.03c0.3-1.1,0.6-2.2,0.92-3.29c0.08-0.26,0.15-0.52,0.23-0.78c0.02-0.07,0.14-0.45,0.05-0.17
						c0.05-0.16,0.1-0.33,0.15-0.49c0.17-0.54,0.34-1.08,0.51-1.62c1.25-3.88,2.64-7.79,4.64-11.35c0.2-0.36,0.41-0.72,0.63-1.07
						c0.05-0.08,0.23-0.32,0.02-0.03c0.06-0.08,0.11-0.16,0.16-0.24c0.11-0.16,0.21-0.31,0.32-0.46c0.37-0.51,0.78-0.99,1.25-1.43
						c0.03-0.02,0.06-0.05,0.08-0.07c0.01-0.01-0.22,0.19-0.12,0.1c0.05-0.04,0.11-0.09,0.16-0.13c0.1-0.08,0.21-0.16,0.32-0.23
						c0.1-0.06,0.2-0.11,0.3-0.17c0.18-0.1-0.28,0.11-0.05,0.02c0.05-0.02,0.11-0.04,0.16-0.06c0.06-0.02,0.13-0.04,0.19-0.06
						c0.04-0.01,0.08-0.02,0.11-0.03c0.04-0.01-0.33,0.05-0.12,0.03c0.17-0.02,0.34-0.04,0.52-0.05c0.09,0,0.18,0,0.28,0
						c0.05,0,0.11,0,0.16,0c0.26,0.01-0.15-0.01-0.08-0.01c0.23,0.02,0.45,0.04,0.68,0.07c0.55,0.07,1.09,0.18,1.62,0.3
						c0.63,0.14,1.25,0.31,1.87,0.5c0.16,0.05,0.32,0.1,0.48,0.15c0.07,0.02,0.15,0.05,0.22,0.07c0.05,0.01,0.09,0.03,0.14,0.04
						c0.26,0.08-0.22-0.07-0.04-0.01c0.36,0.12,0.73,0.24,1.09,0.36c3.57,1.23,7.05,2.72,10.48,4.28c4.13,1.88,8.21,3.89,12.24,5.98
						c4.18,2.17,8.31,4.42,12.39,6.76c1.9,1.09,3.79,2.2,5.66,3.34c0.89,0.54,1.79,1.09,2.67,1.65c-0.24-0.15-0.02-0.01,0.09,0.06
						c0.11,0.07,0.22,0.14,0.32,0.21c0.21,0.14,0.43,0.27,0.64,0.41c0.4,0.25,0.79,0.51,1.19,0.77c2.52,1.65,5.06,3.35,7.33,5.33
						c0.38,0.33,0.76,0.68,1.11,1.04c0.03,0.03,0.07,0.07,0.1,0.1c-0.3-0.3-0.12-0.13-0.05-0.06c0.07,0.08,0.14,0.15,0.21,0.23
						c0.12,0.14,0.23,0.27,0.33,0.42c0.04,0.06,0.09,0.12,0.12,0.19c0.02,0.03,0.03,0.06,0.05,0.09c0.1,0.15-0.14-0.29-0.06-0.11
						c0.02,0.05,0.05,0.11,0.07,0.16c0.1,0.18-0.03-0.32-0.02-0.07c0,0.06,0,0.13,0.01,0.19c-0.04-0.31,0.01-0.18-0.01,0
						c-0.02,0.19-0.05,0.38-0.1,0.56c-0.02,0.1-0.05,0.21-0.08,0.31c-0.02,0.06-0.03,0.12-0.05,0.18c-0.07,0.26,0.08-0.24,0.01-0.04
						c-0.09,0.27-0.18,0.53-0.27,0.8c-0.24,0.65-0.51,1.3-0.79,1.93c-0.71,1.6-1.49,3.17-2.31,4.72c-2.01,3.84-4.18,7.58-6.45,11.27
						c-0.57,0.92-1.14,1.84-1.73,2.76c-0.28,0.44-0.57,0.88-0.85,1.32c-0.03,0.05-0.16,0.25,0,0c-0.03,0.05-0.06,0.09-0.09,0.14
						c-0.07,0.1-0.13,0.2-0.2,0.31c-0.14,0.22-0.29,0.44-0.43,0.66c-0.99,1.5-2.01,2.98-3.08,4.43c-0.76,1.02-1.53,2.05-2.42,2.96
						c-0.15,0.15-0.31,0.28-0.45,0.43c0.29-0.3,0.09-0.07-0.01,0c-0.06,0.05-0.12,0.09-0.19,0.13c-0.03,0.02-0.05,0.03-0.08,0.05
						c-0.13,0.09,0.29-0.09,0.11-0.06c-0.05,0.01-0.11,0.03-0.15,0.05c-0.08,0.03-0.18-0.1,0.18-0.03
						c-0.03-0.01-0.08,0.01-0.12,0.02c-0.13,0.01-0.25,0.01-0.38,0.01c-0.17,0,0.29,0.03,0.12,0.01c-0.04-0.01-0.08-0.01-0.12-0.01
						c-0.09-0.01-0.17-0.02-0.26-0.03c-0.39-0.06-0.77-0.15-1.15-0.25c-0.21-0.06-0.42-0.12-0.63-0.18
						c-0.08-0.02-0.5-0.14-0.16-0.05c-0.13-0.04-0.25-0.08-0.38-0.13c-1.11-0.38-2.2-0.81-3.29-1.26c-2.42-1.01-4.8-2.13-7.16-3.28
						c-1.79-0.87-3.57-1.77-5.34-2.67c-0.51-0.26-1.16-0.02-1.38,0.46C125.77,61.04,126.03,61.63,126.55,61.89L126.55,61.89z"/>
				</g>
			</g>
		</g>
		<g id="Ebene_9_2_">
			<g class="st11">
				<path d="M105.78,0.89c-7.89,16.94,2.72,46.25,11.56,62.8c-1.88-0.36-2.95-3.58-5.36-8.09c-3.4-6.37-1.72-6.17-4.11-8.62
					c-1.99-2.04-5.06-3.17-7.63-4.46c-2.37-1.19-5.18-2.99-6.18-4.85c-1.32-2.45,3.97-23.28,9.87-34.85"/>
				<g>
					<path d="M105.14,0.59c-1.63,3.52-2.43,7.39-2.7,11.27c-0.3,4.31,0,8.67,0.65,12.97c0.69,4.57,1.77,9.1,3.1,13.55
						c1.31,4.4,2.87,8.74,4.63,13c1.58,3.83,3.32,7.6,5.23,11.29c0.21,0.41,0.43,0.81,0.64,1.22c0.25-0.29,0.5-0.58,0.75-0.88
						c-0.05-0.01-0.1-0.02-0.15-0.03c0.18,0.05,0.03,0.01-0.01-0.01c-0.08-0.04-0.16-0.07-0.24-0.11c-0.18-0.09,0.05,0.05-0.11-0.08
						c-0.09-0.07-0.18-0.14-0.27-0.22c-0.04-0.04-0.09-0.08-0.13-0.13c0.09,0.1,0,0-0.03-0.03c-0.08-0.09-0.16-0.19-0.23-0.28
						c-0.17-0.21-0.32-0.44-0.46-0.67c-0.77-1.21-1.36-2.53-2-3.8c-1.25-2.5-2.68-4.93-3.47-7.59c-0.16-0.53-0.29-1.08-0.52-1.59
						c-0.29-0.64-0.72-1.18-1.21-1.7c-2.39-2.55-5.81-3.64-8.84-5.26c-1.38-0.74-2.73-1.59-3.88-2.65
						c-0.47-0.44-0.89-0.92-1.21-1.46c-0.05-0.08,0.03,0.1-0.01-0.04c-0.01-0.03-0.02-0.06-0.04-0.09c-0.04-0.1,0.01-0.13,0.01,0.04
						c0-0.04-0.02-0.1-0.03-0.14c-0.04-0.22-0.05-0.44-0.06-0.66c0-0.07,0-0.14,0-0.21c0-0.05,0.01-0.27,0-0.05
						c0.01-0.15,0.01-0.3,0.02-0.46c0.04-0.76,0.14-1.51,0.25-2.25c0.68-4.6,1.92-9.13,3.26-13.56c1.58-5.2,3.39-10.36,5.72-15.27
						c0.25-0.54,0.51-1.07,0.78-1.59c0.39-0.76-0.89-1.36-1.28-0.59c-2.46,4.83-4.33,9.98-5.97,15.14
						c-1.51,4.75-2.87,9.59-3.72,14.52c-0.26,1.48-0.51,3.01-0.44,4.53c0.02,0.53,0.13,1,0.41,1.47c0.74,1.26,2,2.25,3.21,3.07
						c1.41,0.96,2.92,1.75,4.46,2.48c1.59,0.75,3.22,1.46,4.66,2.46c0.35,0.25,0.7,0.51,1.02,0.8c0.15,0.13,0.29,0.26,0.42,0.4
						c0.06,0.06,0.11,0.12,0.17,0.17c0.1,0.1-0.06-0.06,0.06,0.07c0.25,0.27,0.49,0.55,0.69,0.85c0.04,0.06,0.07,0.11,0.11,0.17
						c0.05,0.08,0.1,0.19,0.03,0.04c0.06,0.13,0.13,0.25,0.18,0.39c0.1,0.25,0.18,0.5,0.26,0.76c0.23,0.78,0.46,1.56,0.76,2.32
						c0.57,1.46,1.31,2.85,2.04,4.25c0.78,1.5,1.5,3.04,2.3,4.53c0.53,0.98,1.1,2.06,2.01,2.79c0.38,0.3,0.81,0.52,1.28,0.62
						c0.48,0.1,1-0.41,0.75-0.88c-1.9-3.57-3.63-7.21-5.21-10.92c-1.78-4.17-3.36-8.41-4.72-12.7c-1.38-4.38-2.52-8.82-3.31-13.31
						c-0.74-4.26-1.18-8.58-1.03-12.86c0.14-3.85,0.73-7.71,2.14-11.25c0.17-0.42,0.35-0.84,0.54-1.25
						C106.77,0.41,105.5-0.19,105.14,0.59L105.14,0.59z"/>
				</g>
			</g>
		</g>
		<g id="Ebene_11">
			
				<ellipse transform="matrix(0.4222 -0.9065 0.9065 0.4222 33.1702 124.1482)" class="st20" cx="113.97" cy="36.06" rx="3.99" ry="4.23"/>
			
				<ellipse transform="matrix(0.4222 -0.9065 0.9065 0.4222 35.2477 139.8351)" class="st20" cx="127.31" cy="42.27" rx="3.99" ry="4.23"/>
			
				<ellipse transform="matrix(0.4222 -0.9065 0.9065 0.4222 37.236 154.8479)" class="st20" cx="140.08" cy="48.22" rx="3.99" ry="4.23"/>
		</g>
	</g>
</g>
</svg>
