<?xml version="1.0" encoding="utf-8"?>
<!-- Generator: Adobe Adobe Illustrator 24.2.0, SVG Export Plug-In . SVG Version: 6.00 Build 0)  -->
<svg version="1.1" xmlns="http://www.w3.org/2000/svg" xmlns:xlink="http://www.w3.org/1999/xlink" x="0px" y="0px"
	 viewBox="0 0 170.08 170.08" style="enable-background:new 0 0 170.08 170.08;" xml:space="preserve">
<style type="text/css">
	.st0{fill:#C8354F;}
	.st1{fill:#C93550;}
	.st2{opacity:0.149;}
	.st3{fill:#FFFFFF;}
	.st4{opacity:0.0314;}
	.st5{fill:#D1DFEA;}
	.st6{fill:#D3E1ED;}
	.st7{fill:#C8354E;}
	.st8{fill:#F3C058;}
	.st9{fill:#C8AE9D;}
	.st10{opacity:0.0784;}
	.st11{opacity:0.1412;}
	.st12{fill:#F0F6FA;}
	.st13{stroke:#000000;stroke-width:0.0973;stroke-miterlimit:10;}
	.st14{fill:#FFFFFF;stroke:#000000;stroke-width:1.5529;stroke-linecap:round;stroke-linejoin:round;stroke-miterlimit:10;}
	.st15{fill:#FFBABA;}
	
		.st16{opacity:0.0706;fill:none;stroke:#000000;stroke-width:5.8235;stroke-linecap:round;stroke-linejoin:round;stroke-miterlimit:10;enable-background:new    ;}
	.st17{fill:none;stroke:#FFFFFF;stroke-width:3.8824;stroke-linecap:round;stroke-linejoin:round;stroke-miterlimit:10;}
	.st18{stroke:#000000;stroke-width:1.4933;stroke-linecap:round;stroke-linejoin:round;stroke-miterlimit:10.0006;}
	.st19{fill:#D15238;}
	.st20{fill:#D15239;}
	.st21{fill:#6DB671;}
	.st22{fill:#6CB671;}
</style>
<g id="Ebene_4_5_">
</g>
<g id="Ebene_3">
	<g id="Ebene_2_7_">
		<path class="st14" d="M23.22,65.87c-35.42,14.77-15.43,72.35,18.01,61.66c0.54,5.44,14.99,8.94,19.25,1.9
			c2.75,7.43,27.94,18.78,38.7,0.98c5.02,8.69,22.24,14.52,32.85,3.76c46.77,18.36,44.85-72.79,8.74-68.84
			c2.01-12.07-18.61-20.14-24.61-13.51c-1.82-34.5-46.65-30.87-49.37-10.7C53.22,29.94,27.21,36.35,23.22,65.87z"/>
		<path class="st14" d="M61.68,79.34c-1.58,7.74,2.14,16.51,8.3,19.61c6.16,3.1,14.04,0.16,17.61-6.58"/>
	</g>
	<g id="Ebene_4">
		<path class="st15" d="M35.43,80.45c0.54,6.63,21.75,3.25,21.35-4.48C56.37,68.33,34.64,70.75,35.43,80.45z"/>
		<path class="st15" d="M99.32,79.63c-1.23,6.49,19.81,11.16,21.45,3.67C122.4,75.9,101.12,70.12,99.32,79.63z"/>
	</g>
	<g id="Ebene_9_5_">
		<path class="st16" d="M64.19,45.84c-6.49-3.97-14.53-4.18-21.16-0.54s-11.72,11.04-13.4,19.49"/>
		<path class="st16" d="M24.13,72.22C-5,89.71,17.44,127.44,37.41,121.71"/>
		<path class="st16" d="M72.28,43.74c10.83-18.35,33.82-10.82,37.79,5.43"/>
		<path class="st16" d="M65.45,126.45c7.95,9.45,19.64,10.36,28.76,0.68"/>
		<path class="st16" d="M104.04,128.63c6.17,6.57,16.12,7.45,23.04,2.04"/>
		<path class="st16" d="M143.2,72.22c25.7,0,29.86,66.34-6.55,57.97"/>
	</g>
	<g id="Ebene_10_4_">
		<path class="st17" d="M115.76,53.31c1.16-1.9,2.98-3.16,4.9-3.71c1.92-0.55,3.95-0.43,5.88,0.04c3.35,0.82,6.5,2.68,9.14,5.26
			c1.44,1.4,2.75,3.04,3.6,5.01c0.85,1.97,1.21,4.29,0.73,6.43"/>
	</g>
	<g id="Ebene_19_1_">
		
			<ellipse transform="matrix(0.3468 -0.9379 0.9379 0.3468 -10.263 109.897)" class="st18" cx="73.77" cy="62.32" rx="10.33" ry="2.43"/>
		
			<ellipse transform="matrix(0.3468 -0.9379 0.9379 0.3468 -10.263 109.897)" class="st18" cx="73.77" cy="62.32" rx="10.33" ry="2.43"/>
		
			<ellipse transform="matrix(0.3468 -0.9379 0.9379 0.3468 -7.4556 125.039)" class="st18" cx="86.05" cy="67.87" rx="10.33" ry="2.43"/>
	</g>
	<g id="Ebene_21">
		<ellipse class="st3" cx="77.09" cy="56.17" rx="1.14" ry="1.13"/>
		<ellipse class="st3" cx="77.09" cy="56.17" rx="1.14" ry="1.13"/>
		<ellipse class="st3" cx="89.23" cy="61.13" rx="1.06" ry="1.14"/>
	</g>
	<g>
		<g id="Ebene_2_Kopie_4_">
			<g>
				<path class="st21" d="M128.67,64.04c4.54,2.1,18.32,8.54,20.51,7.26c3.55-2.08,21-33.56,19.59-36.62
					c-2.96-6.42-58.75-34.34-66.03-31.33c-6.57,2.71-13.35,36.17-12.38,38.77c1.47,3.93,11.48,6.49,15.2,9.93
					c1.66,1.53,6.2,15.02,8.42,15.83c1.26,0.46,10.62-1.59,14.56-3.89"/>
				<g>
					<path class="st22" d="M128.54,64.36c4.45,2.06,8.92,4.12,13.53,5.81c1.11,0.41,2.23,0.79,3.36,1.11
						c0.84,0.24,1.71,0.46,2.58,0.52c0.54,0.03,1.07,0.01,1.52-0.31c0.34-0.24,0.62-0.55,0.9-0.85c0.9-1,1.67-2.11,2.42-3.21
						c1.08-1.58,2.1-3.2,3.09-4.84c2.4-3.94,4.66-7.96,6.8-12.05c1.89-3.59,3.73-7.23,5.23-11.01c0.46-1.17,0.93-2.37,1.16-3.61
						c0.07-0.35,0.12-0.74,0.05-1.1c-0.06-0.32-0.24-0.6-0.43-0.86c-0.55-0.75-1.28-1.38-2-1.98c-1.06-0.88-2.19-1.68-3.33-2.46
						c-3.19-2.17-6.52-4.12-9.88-6.02c-4.11-2.32-8.3-4.52-12.52-6.63c-4.39-2.2-8.82-4.3-13.3-6.29
						c-4.01-1.78-8.05-3.47-12.18-4.96c-2.99-1.08-6.06-2.14-9.2-2.66c-0.96-0.16-1.97-0.29-2.93-0.16c-1,0.13-1.78,0.71-2.44,1.42
						c-1.06,1.13-1.83,2.53-2.52,3.9c-0.92,1.83-1.67,3.74-2.36,5.66c-1.59,4.45-2.83,9.03-3.9,13.63
						c-0.87,3.76-1.67,7.57-2.12,11.42c-0.11,0.98-0.27,2.03-0.14,3.02c0.08,0.64,0.5,1.24,0.92,1.72c0.78,0.9,1.78,1.59,2.8,2.21
						c2.52,1.53,5.26,2.67,7.86,4.04c1.16,0.61,2.31,1.25,3.33,2.07c0.35,0.28,0.48,0.37,0.71,0.7c0.18,0.25,0.32,0.5,0.47,0.77
						c1.02,1.88,1.82,3.87,2.68,5.82c0.94,2.15,1.87,4.32,3.01,6.38c0.39,0.7,0.8,1.43,1.35,2.03c0.42,0.46,0.83,0.68,1.45,0.69
						c0.93,0.01,1.86-0.16,2.77-0.32c1.35-0.25,2.69-0.56,4.01-0.91c2.55-0.68,5.18-1.47,7.46-2.79c0.39-0.23-0.05-0.79-0.44-0.57
						c-1.1,0.64-2.3,1.11-3.51,1.54c-1.36,0.48-2.75,0.9-4.16,1.26c-1.27,0.33-2.55,0.62-3.85,0.84c-0.8,0.13-1.75,0.32-2.51,0.25
						c-0.05,0-0.1-0.01-0.14-0.02c-0.13-0.02,0.02,0.01-0.06-0.02c-0.04-0.01-0.08-0.03-0.11-0.06c0.09,0.05-0.08-0.06-0.11-0.08
						c-0.21-0.17-0.37-0.36-0.55-0.61c-0.52-0.7-0.94-1.47-1.34-2.23c-1.1-2.12-2.03-4.32-2.99-6.5c-0.79-1.81-1.53-3.68-2.55-5.39
						c-0.39-0.66-0.88-1.12-1.51-1.59c-1.05-0.78-2.22-1.42-3.38-2.02c-2.57-1.33-5.29-2.44-7.74-3.99c-0.95-0.6-1.92-1.28-2.6-2.17
						c-0.13-0.17-0.25-0.35-0.35-0.54c-0.05-0.1-0.1-0.21-0.14-0.32c-0.01-0.02-0.06-0.18-0.02-0.04c-0.03-0.13-0.05-0.25-0.06-0.38
						c-0.03-0.37-0.01-0.77,0.02-1.24c0.04-0.63,0.11-1.25,0.19-1.87c0.22-1.72,0.51-3.43,0.83-5.14c0.84-4.45,1.88-8.86,3.13-13.21
						c1.18-4.09,2.49-8.22,4.44-12.02c0.66-1.29,1.41-2.59,2.44-3.63c0.31-0.31,0.78-0.68,1.16-0.84c0.07-0.03,0.14-0.05,0.21-0.08
						c0.03-0.01,0.06-0.02,0.1-0.03c0.11-0.03-0.04,0.01,0.07-0.02c0.17-0.03,0.35-0.06,0.53-0.07c0.48-0.04,0.76-0.02,1.25,0.02
						c0.56,0.05,1.12,0.13,1.67,0.24c1.37,0.26,2.73,0.62,4.07,1.03c3.71,1.12,7.33,2.52,10.91,3.99c4.34,1.78,8.61,3.71,12.85,5.72
						c4.35,2.07,8.67,4.23,12.92,6.49c3.78,2.01,7.53,4.09,11.19,6.32c2.64,1.61,5.29,3.27,7.67,5.23c0.4,0.33,0.8,0.68,1.17,1.04
						c0.07,0.07,0.07,0.07,0.17,0.18c0.07,0.08,0.15,0.15,0.21,0.23c0.12,0.13,0.23,0.27,0.34,0.42c0.04,0.06,0.09,0.12,0.13,0.19
						c0.02,0.03,0.04,0.06,0.06,0.1c-0.06-0.1,0,0.01,0.02,0.03c0.03,0.05,0.05,0.1,0.07,0.16c0.04,0.09-0.01-0.07,0,0.01
						c0.01,0.03,0.01,0.06,0.02,0.1c0,0.04,0.01,0.25,0.01,0.13c0,0.09,0,0.17-0.01,0.26c-0.02,0.21-0.05,0.42-0.1,0.63
						c-0.24,1.15-0.71,2.38-1.18,3.53c-0.69,1.72-1.46,3.4-2.26,5.07c-1.95,4.06-4.07,8.05-6.29,11.97
						c-2.01,3.55-4.08,7.08-6.39,10.46c-0.75,1.09-1.51,2.19-2.4,3.19c-0.3,0.34-0.44,0.51-0.78,0.75c-0.15,0.1-0.22,0.13-0.38,0.16
						c-0.3,0.04-0.53,0.03-0.83,0c-0.89-0.09-1.78-0.32-2.64-0.58c-1.14-0.34-2.26-0.73-3.37-1.15c-2.53-0.95-5.02-2.01-7.49-3.1
						c-1.87-0.83-3.72-1.68-5.57-2.54C128.38,63.52,128.11,64.16,128.54,64.36L128.54,64.36z"/>
				</g>
			</g>
		</g>
		<g id="Ebene_8_3_">
			<g>
				<g>
					<path class="st22" d="M153.14,44.02c-2.53,4.76-5.07,9.52-7.6,14.27c-0.28,0.52-0.22,1.33,0.01,1.87
						c0.24,0.56,0.78,1.13,1.37,1.35c0.61,0.23,1.32,0.3,1.92,0.04c0.63-0.27,1.03-0.7,1.35-1.29c2.53-4.76,5.07-9.52,7.6-14.27
						c0.28-0.52,0.22-1.33-0.01-1.87c-0.24-0.56-0.78-1.13-1.37-1.35c-0.61-0.23-1.32-0.3-1.92-0.04
						C153.86,43,153.46,43.43,153.14,44.02L153.14,44.02z"/>
				</g>
			</g>
		</g>
		<g id="Ebene_7_3_">
			<g class="st2">
				<g>
					<path class="st3" d="M149.81,27.71c1.32,0.83,2.71,1.54,4.08,2.28c0.38,0.2,0.76,0.41,1.13,0.62c0.18,0.1,0.37,0.2,0.55,0.31
						c0.09,0.05,0.18,0.1,0.27,0.16c0.3,0.17-0.25-0.15,0.05,0.03c0.7,0.42,1.4,0.85,2.07,1.32c0.31,0.22,0.62,0.45,0.91,0.69
						c0.13,0.11,0.26,0.22,0.39,0.33c0.06,0.06,0.12,0.11,0.18,0.17c0.25,0.23-0.17-0.18-0.02-0.02c0.2,0.22,0.4,0.44,0.57,0.69
						c0.04,0.05,0.07,0.12,0.11,0.17c-0.06-0.07-0.17-0.33-0.08-0.12c0.06,0.12,0.09,0.27,0.16,0.38c-0.04-0.06-0.08-0.38-0.05-0.16
						c0.01,0.05,0.02,0.11,0.03,0.16c0.06,0.31,0.05-0.29,0-0.09c-0.02,0.1-0.1,0.46-0.01,0.13c0.09-0.33,0.02-0.06-0.01,0.02
						c-0.02,0.07-0.05,0.15-0.07,0.22c-0.06,0.17-0.12,0.33-0.19,0.5c-0.92,2.26-2.12,4.41-3.28,6.55
						c-1.64,3.03-3.33,6.04-5.02,9.04c-1.6,2.84-3.22,5.67-4.81,8.52c-0.16,0.29-0.33,0.59-0.49,0.89
						c-0.35,0.64,0.11,1.59,0.79,1.84c0.8,0.3,1.49-0.03,1.87-0.71c1.56-2.81,3.15-5.6,4.73-8.4c1.74-3.08,3.48-6.17,5.18-9.28
						c1.25-2.3,2.53-4.6,3.56-7.01c0.26-0.62,0.6-1.32,0.61-2.01c0.04-1.59-1.09-2.87-2.28-3.87c-1.33-1.12-2.88-2.01-4.4-2.86
						c-1.41-0.79-2.85-1.53-4.26-2.33c-0.07-0.04-0.14-0.08-0.21-0.12c-0.21-0.12,0.33,0.2,0.08,0.05
						c-0.13-0.08-0.26-0.16-0.39-0.24c-0.64-0.4-1.54-0.45-2.01,0.2C149.14,26.3,149.12,27.28,149.81,27.71L149.81,27.71z"/>
				</g>
			</g>
			<g class="st2">
				<g>
					<path class="st3" d="M143.93,65.99c-0.07,0.3-0.15,0.6-0.22,0.89c0.85-0.2,1.71-0.41,2.57-0.61c-0.25-0.35-0.5-0.7-0.75-1.05
						c-0.19,0.71-0.39,1.41-0.58,2.12c-0.21,0.06-0.39,0.09-0.6,0.03c-0.09-0.01-0.17-0.04-0.24-0.1c-0.13-0.08-0.15-0.09-0.06-0.03
						c-0.13-0.12-0.21-0.23-0.29-0.38c0.04,0.09,0.04,0.08-0.01-0.06c-0.05-0.11-0.06-0.23-0.05-0.35c0.41-0.39,0.82-0.79,1.22-1.18
						c0.02,0,0.36,0.04,0.18,0c0.18,0.04,0.32,0.1,0.47,0.2c-0.15-0.1,0.1,0.11,0.12,0.13c-0.12-0.13,0.07,0.12,0.08,0.15
						c0.06,0.15,0.07,0.31,0.06,0.47c0.02-0.25-0.22,0.46-0.21,0.44c0.1-0.15-0.1,0.09-0.12,0.11c-0.07,0.04-0.13,0.07-0.2,0.11
						c-0.24,0.05-0.3,0.06-0.19,0.04c0.17-0.01-0.34-0.02-0.17,0c0.08,0.01,0.05,0-0.09-0.02c-0.09-0.01-0.16-0.04-0.23-0.09
						c-0.29-0.16-0.48-0.45-0.48-0.77c0-0.31-0.06,0.13,0.02-0.18c0.08-0.3-0.09,0.1,0.07-0.17c0.03-0.08,0.08-0.14,0.15-0.19
						c0.1-0.08,0.12-0.1,0.06-0.06c-0.1,0.07,0.34-0.14,0.12-0.08c0.66,0.38,1.32,0.76,1.98,1.14c-0.03-0.14-0.06-0.27-0.08-0.41
						c-0.14-0.72-0.84-1.35-1.63-1.23c-0.73,0.11-1.37,0.77-1.22,1.54c0.03,0.14,0.06,0.27,0.08,0.41c0.09,0.44,0.31,0.79,0.71,1.02
						c0.43,0.25,0.81,0.24,1.27,0.12c0.92-0.23,1.46-1.3,1.29-2.18c-0.2-1.05-1.26-1.79-2.34-1.61c-1.04,0.18-1.87,1.12-1.63,2.19
						c0.24,1.04,1.21,1.81,2.32,1.69c0.63-0.07,1.15-0.57,1.22-1.18c0.08-0.66-0.21-1.36-0.76-1.78c-0.6-0.46-1.27-0.54-1.97-0.34
						c-0.92,0.26-1.08,1.43-0.58,2.12c0.25,0.35,0.5,0.7,0.75,1.05c0.33,0.46,0.99,0.65,1.52,0.53c0.6-0.15,0.91-0.58,1.05-1.14
						c0.07-0.3,0.15-0.6,0.22-0.89c0.08-0.31-0.09-0.77-0.29-1.02c-0.22-0.28-0.61-0.53-0.97-0.56c-0.36-0.04-0.76,0.02-1.04,0.25
						C144.16,65.31,144.02,65.6,143.93,65.99L143.93,65.99z"/>
				</g>
			</g>
		</g>
		<g id="Ebene_2_5_">
			<g>
				<g>
					<path d="M125.2,66.27c4.46,2.06,8.93,4.13,13.54,5.83c1.11,0.41,2.23,0.79,3.37,1.11c0.9,0.25,1.83,0.51,2.77,0.57
						c0.73,0.05,1.43,0,2.03-0.42c0.38-0.27,0.71-0.62,1.02-0.96c0.9-1,1.67-2.1,2.42-3.21c1.08-1.58,2.11-3.21,3.1-4.85
						c2.43-3.98,4.71-8.04,6.87-12.17c1.88-3.59,3.73-7.23,5.21-11c0.47-1.2,0.94-2.45,1.17-3.73c0.07-0.41,0.11-0.85,0.04-1.26
						c-0.08-0.44-0.33-0.83-0.6-1.19c-0.6-0.8-1.39-1.48-2.17-2.12c-1.08-0.88-2.21-1.69-3.36-2.47c-3.24-2.19-6.63-4.18-10.04-6.1
						c-4.11-2.32-8.29-4.51-12.51-6.63c-4.38-2.19-8.81-4.3-13.28-6.28c-3.99-1.77-8.02-3.46-12.13-4.95
						c-3.06-1.11-6.21-2.19-9.42-2.74c-1.02-0.17-2.1-0.31-3.13-0.18c-1.18,0.15-2.09,0.79-2.88,1.61
						c-1.11,1.16-1.91,2.61-2.62,4.03c-0.92,1.83-1.67,3.73-2.36,5.65c-1.6,4.49-2.85,9.11-3.92,13.76
						c-0.87,3.78-1.67,7.6-2.1,11.46c-0.12,1.02-0.27,2.12-0.13,3.16c0.1,0.76,0.58,1.49,1.09,2.07c0.84,0.95,1.89,1.7,2.99,2.36
						c2.59,1.56,5.38,2.73,8.05,4.14c0.29,0.15,0.59,0.31,0.87,0.47c0.08,0.04,0.15,0.09,0.23,0.13c0.04,0.02,0.3,0.17,0.05,0.03
						c0.15,0.09,0.29,0.17,0.44,0.26c0.54,0.33,1.06,0.68,1.55,1.08c0.09,0.08,0.18,0.15,0.27,0.23c0.05,0.04,0.1,0.1,0.16,0.14
						c0.11,0.08-0.21-0.24-0.13-0.13c0.07,0.1,0.15,0.18,0.22,0.28c0.08,0.11,0.15,0.23,0.23,0.34c0.16,0.26-0.11-0.2,0.02,0.02
						c0.05,0.1,0.11,0.19,0.16,0.29c1.02,1.87,1.82,3.85,2.68,5.79c0.95,2.15,1.88,4.32,3.03,6.38c0.42,0.75,0.85,1.53,1.45,2.17
						c0.28,0.3,0.58,0.59,0.96,0.76c0.38,0.17,0.77,0.19,1.18,0.19c0.94,0,1.88-0.16,2.8-0.33c1.4-0.25,2.79-0.58,4.16-0.94
						c2.6-0.69,5.24-1.5,7.56-2.84c0.49-0.28,0.53-1.04,0.2-1.46c-0.38-0.5-1.02-0.52-1.51-0.23c-0.07,0.04-0.47,0.25-0.19,0.11
						c-0.12,0.06-0.24,0.13-0.37,0.19c-0.29,0.14-0.57,0.27-0.87,0.4c-0.63,0.27-1.27,0.52-1.92,0.74
						c-1.36,0.48-2.75,0.89-4.15,1.25c-0.15,0.04-0.3,0.08-0.45,0.11c-0.03,0.01-0.33,0.08-0.09,0.02
						c-0.09,0.02-0.18,0.04-0.27,0.06c-0.35,0.08-0.69,0.16-1.04,0.23c-0.6,0.13-1.21,0.25-1.82,0.35c-0.49,0.08-0.99,0.16-1.49,0.2
						c-0.19,0.02-0.37,0.03-0.56,0.04c-0.08,0-0.18-0.01-0.26,0.01c0.28-0.07,0.2,0.01,0.02,0c-0.06,0-0.12-0.02-0.18-0.02
						c-0.2-0.01,0.18,0.07,0.14,0.04c-0.03-0.02-0.11-0.06-0.14-0.06c0.28,0.05,0.23,0.16,0.08,0.04c-0.05-0.04-0.1-0.09-0.15-0.13
						c-0.18-0.14,0.2,0.22,0.04,0.04c-0.11-0.13-0.22-0.25-0.32-0.38c-0.24-0.31-0.45-0.65-0.66-0.98
						c-0.04-0.06-0.16-0.23,0.02,0.03c-0.03-0.05-0.06-0.1-0.09-0.16c-0.06-0.1-0.11-0.2-0.17-0.3c-0.13-0.23-0.25-0.46-0.37-0.69
						c-1.1-2.11-2.04-4.3-3-6.47c-0.83-1.87-1.61-3.79-2.66-5.56c-0.41-0.68-0.94-1.19-1.59-1.68c-1.12-0.84-2.37-1.52-3.62-2.16
						c-1.31-0.68-2.64-1.3-3.96-1.95c-0.65-0.32-1.3-0.65-1.95-0.99c-0.3-0.16-0.59-0.32-0.88-0.48c-0.08-0.04-0.15-0.09-0.23-0.13
						c-0.25-0.14,0.14,0.09-0.02-0.01c-0.16-0.1-0.32-0.19-0.48-0.29c-0.52-0.33-1.04-0.67-1.51-1.06c-0.21-0.17-0.4-0.35-0.6-0.53
						c-0.18-0.16,0.16,0.18,0,0c-0.04-0.05-0.09-0.1-0.14-0.15c-0.09-0.1-0.17-0.2-0.25-0.3c-0.08-0.1-0.15-0.2-0.22-0.31
						c-0.02-0.03-0.04-0.07-0.07-0.1c-0.13-0.18,0.11,0.22,0.02,0.03c-0.06-0.14-0.12-0.34-0.21-0.47c0.17,0.25,0.07,0.3,0.05,0.17
						c0-0.03-0.01-0.05-0.01-0.08c-0.01-0.07-0.02-0.15-0.03-0.22c-0.01-0.08-0.01-0.16-0.01-0.24c-0.01-0.25,0,0.19,0,0.1
						c0-0.05,0-0.11,0-0.16c0-0.24,0.01-0.49,0.03-0.73c0.04-0.63,0.11-1.26,0.19-1.88c0.21-1.71,0.5-3.42,0.82-5.11
						c0.4-2.12,0.84-4.23,1.33-6.33c0.27-1.16,0.55-2.31,0.85-3.46c0.07-0.27,0.14-0.55,0.21-0.82c0.02-0.07,0.13-0.47,0.05-0.18
						c0.05-0.17,0.09-0.35,0.14-0.52c0.15-0.57,0.31-1.14,0.48-1.7c1.17-4.08,2.48-8.2,4.42-11.99c0.2-0.38,0.4-0.76,0.62-1.13
						c0.05-0.08,0.23-0.34,0.02-0.03c0.06-0.08,0.11-0.17,0.16-0.26c0.1-0.17,0.21-0.33,0.32-0.49c0.37-0.55,0.77-1.06,1.24-1.53
						c0.03-0.03,0.06-0.05,0.08-0.08c0.01-0.01-0.22,0.2-0.12,0.11c0.05-0.05,0.11-0.1,0.16-0.14c0.1-0.09,0.21-0.17,0.33-0.25
						c0.1-0.07,0.2-0.13,0.3-0.19c0.18-0.11-0.29,0.13-0.05,0.03c0.05-0.02,0.11-0.05,0.16-0.07c0.06-0.03,0.13-0.05,0.2-0.07
						c0.04-0.01,0.08-0.02,0.12-0.03c0.04-0.01-0.34,0.07-0.12,0.03c0.18-0.03,0.35-0.06,0.53-0.07c0.09-0.01,0.19-0.01,0.28-0.01
						c0.05,0,0.11,0,0.16,0c0.27,0-0.16-0.01-0.08,0c0.23,0.01,0.47,0.02,0.7,0.04c0.56,0.05,1.12,0.14,1.68,0.24
						c0.65,0.12,1.29,0.27,1.93,0.44c0.17,0.04,0.34,0.09,0.5,0.13c0.08,0.02,0.16,0.04,0.23,0.06c0.05,0.01,0.09,0.03,0.14,0.04
						c0.27,0.07-0.22-0.06-0.04-0.01c0.38,0.11,0.75,0.22,1.13,0.33c3.7,1.12,7.33,2.53,10.9,4c4.31,1.78,8.55,3.69,12.76,5.69
						c4.36,2.07,8.68,4.24,12.95,6.5c1.99,1.05,3.96,2.13,5.92,3.23c0.93,0.53,1.87,1.05,2.79,1.6c-0.25-0.15-0.02-0.01,0.09,0.05
						c0.11,0.07,0.23,0.13,0.34,0.2c0.22,0.13,0.45,0.26,0.67,0.4c0.41,0.25,0.83,0.5,1.24,0.75c2.64,1.61,5.3,3.27,7.7,5.23
						c0.4,0.33,0.8,0.67,1.17,1.03c0.04,0.03,0.07,0.07,0.1,0.1c-0.32-0.29-0.13-0.13-0.06-0.06c0.07,0.08,0.15,0.15,0.22,0.23
						c0.12,0.14,0.24,0.28,0.35,0.42c0.05,0.06,0.09,0.12,0.13,0.19c0.02,0.03,0.04,0.06,0.06,0.09c0.11,0.16-0.15-0.3-0.07-0.12
						c0.03,0.05,0.05,0.11,0.08,0.16c0.1,0.19-0.04-0.33-0.02-0.07c0,0.06,0.01,0.13,0.02,0.19c-0.05-0.32,0-0.19-0.01,0
						c-0.01,0.2-0.04,0.39-0.08,0.59c-0.02,0.11-0.05,0.22-0.07,0.33c-0.02,0.06-0.03,0.13-0.05,0.19
						c-0.07,0.27,0.07-0.26,0.01-0.04c-0.08,0.28-0.16,0.56-0.25,0.84c-0.23,0.69-0.48,1.37-0.75,2.04
						c-0.68,1.7-1.44,3.36-2.23,5.01c-1.95,4.07-4.07,8.06-6.29,11.99c-0.56,0.98-1.12,1.96-1.69,2.94
						c-0.28,0.47-0.55,0.94-0.83,1.41c-0.03,0.05-0.16,0.27,0,0c-0.03,0.05-0.06,0.1-0.09,0.15c-0.07,0.11-0.13,0.22-0.2,0.33
						c-0.14,0.23-0.28,0.47-0.43,0.7c-0.98,1.6-1.98,3.18-3.03,4.73c-0.75,1.09-1.51,2.19-2.4,3.18c-0.15,0.16-0.31,0.31-0.45,0.47
						c0.29-0.32,0.09-0.08-0.01,0c-0.06,0.05-0.13,0.1-0.19,0.15c-0.03,0.02-0.06,0.03-0.08,0.05c-0.13,0.1,0.29-0.11,0.11-0.06
						c-0.05,0.01-0.11,0.03-0.15,0.05c-0.08,0.04-0.19-0.09,0.18-0.04c-0.04,0-0.09,0.02-0.12,0.02c-0.13,0.01-0.26,0.02-0.39,0.02
						c-0.17,0.01,0.3,0.02,0.12,0c-0.04,0-0.08,0-0.13-0.01c-0.09-0.01-0.18-0.01-0.27-0.02c-0.4-0.04-0.8-0.12-1.19-0.21
						c-0.22-0.05-0.44-0.1-0.66-0.16c-0.08-0.02-0.52-0.13-0.16-0.04c-0.13-0.03-0.26-0.08-0.39-0.11
						c-1.15-0.34-2.29-0.75-3.42-1.17c-2.52-0.95-5-2.01-7.46-3.1c-1.87-0.83-3.72-1.68-5.57-2.54c-0.53-0.25-1.19,0.03-1.4,0.54
						C124.38,65.42,124.66,66.02,125.2,66.27L125.2,66.27z"/>
				</g>
			</g>
		</g>
		<g id="Ebene_5_4_">
			<g>
				<g>
					<path class="st3" d="M110.14,35.11c1.42,5.34,2.83,10.68,4.25,16.02c0.21,0.78,0.52,1.36,1.25,1.79
						c0.65,0.38,1.52,0.54,2.22,0.21c4.45-2.08,8.89-4.17,13.34-6.25c4.45-2.08,8.89-4.17,13.34-6.25c2.51-1.18,5.02-2.35,7.53-3.53
						c0.6-0.28,1.09-0.67,1.35-1.29c0.23-0.55,0.26-1.31-0.01-1.87c-0.55-1.14-2.04-1.98-3.29-1.39c-4.45,2.08-8.89,4.17-13.34,6.25
						c-4.45,2.08-8.89,4.17-13.34,6.25c-2.51,1.18-5.02,2.35-7.53,3.53c1.16,0.67,2.31,1.33,3.47,2
						c-1.42-5.34-2.83-10.68-4.25-16.02c-0.17-0.64-0.4-1.18-0.96-1.62c-0.5-0.38-1.27-0.63-1.89-0.53
						c-0.63,0.1-1.26,0.37-1.64,0.88C110.27,33.78,109.98,34.48,110.14,35.11L110.14,35.11z"/>
				</g>
			</g>
		</g>
		<g id="Ebene_9_3_">
			<g class="st4">
				<path d="M102,3.77c-7.6,17.94,4.2,47.94,13.79,64.75c-1.94-0.29-3.14-3.59-5.75-8.17c-3.69-6.47-1.95-6.34-4.49-8.79
					c-2.11-2.03-5.3-3.08-7.98-4.31c-2.47-1.13-5.42-2.88-6.5-4.77c-1.44-2.49,3.38-24.36,9.09-36.63"/>
				<g>
					<path d="M101.33,3.49c-1.57,3.73-2.28,7.78-2.44,11.83c-0.18,4.49,0.26,9,1.06,13.45c0.85,4.72,2.1,9.37,3.6,13.95
						c1.48,4.51,3.22,8.96,5.15,13.31c1.74,3.91,3.64,7.75,5.72,11.51c0.23,0.41,0.46,0.83,0.7,1.24c0.25-0.31,0.5-0.63,0.75-0.94
						c-0.05-0.01-0.1-0.02-0.15-0.03c0.19,0.04,0.03,0.01-0.01-0.01c-0.08-0.03-0.16-0.07-0.25-0.11c-0.19-0.09,0.05,0.05-0.12-0.07
						c-0.1-0.07-0.19-0.14-0.28-0.22c-0.05-0.04-0.09-0.08-0.14-0.13c0.1,0.1,0,0-0.03-0.03c-0.09-0.09-0.17-0.19-0.25-0.28
						c-0.18-0.22-0.34-0.44-0.5-0.67c-0.83-1.23-1.48-2.57-2.17-3.87c-1.36-2.54-2.9-5-3.8-7.74c-0.18-0.55-0.33-1.11-0.58-1.63
						c-0.32-0.65-0.78-1.2-1.29-1.72c-2.54-2.55-6.08-3.53-9.24-5.09c-1.44-0.71-2.85-1.54-4.07-2.59c-0.5-0.43-0.94-0.91-1.29-1.47
						c-0.05-0.08,0.03,0.1-0.02-0.04c-0.01-0.03-0.03-0.06-0.04-0.1c-0.04-0.1,0.01-0.13,0.01,0.04c0-0.05-0.03-0.1-0.04-0.15
						c-0.05-0.22-0.07-0.45-0.08-0.68c0-0.07-0.01-0.15-0.01-0.22c0-0.06,0-0.28,0-0.06c0-0.16,0-0.32,0-0.47
						c0.02-0.79,0.09-1.57,0.18-2.35c0.56-4.81,1.69-9.57,2.94-14.23c1.46-5.47,3.17-10.91,5.41-16.11c0.24-0.57,0.5-1.13,0.76-1.69
						c0.38-0.81-0.95-1.37-1.33-0.56c-2.38,5.13-4.15,10.55-5.67,15.99c-1.4,5-2.66,10.09-3.38,15.24
						c-0.22,1.55-0.43,3.15-0.31,4.72c0.04,0.55,0.16,1.03,0.46,1.51c0.8,1.27,2.12,2.25,3.39,3.06c1.48,0.94,3.05,1.7,4.66,2.39
						c1.65,0.71,3.36,1.38,4.87,2.36c0.37,0.24,0.73,0.5,1.07,0.78c0.15,0.13,0.3,0.26,0.45,0.39c0.06,0.06,0.12,0.12,0.18,0.17
						c0.1,0.1-0.06-0.06,0.07,0.07c0.26,0.27,0.52,0.55,0.73,0.85c0.04,0.06,0.08,0.11,0.12,0.17c0.05,0.08,0.11,0.2,0.03,0.04
						c0.07,0.13,0.14,0.26,0.2,0.39c0.11,0.25,0.2,0.52,0.29,0.78c0.26,0.8,0.52,1.6,0.85,2.38c0.63,1.49,1.43,2.91,2.23,4.33
						c0.85,1.53,1.63,3.09,2.5,4.61c0.58,1,1.2,2.1,2.15,2.81c0.4,0.3,0.85,0.5,1.34,0.58c0.49,0.08,1.02-0.47,0.75-0.94
						c-2.06-3.62-3.95-7.34-5.68-11.12c-1.95-4.25-3.71-8.59-5.23-13c-1.55-4.49-2.86-9.06-3.8-13.69
						c-0.89-4.39-1.47-8.86-1.45-13.32c0.02-4,0.52-8.04,1.86-11.78c0.16-0.44,0.33-0.88,0.52-1.32
						C103.01,3.23,101.68,2.67,101.33,3.49L101.33,3.49z"/>
				</g>
			</g>
		</g>
	</g>
</g>
</svg>
