<?xml version="1.0" encoding="utf-8"?>
<!-- Generator: Adobe Adobe Illustrator 24.2.0, SVG Export Plug-In . SVG Version: 6.00 Build 0)  -->
<svg version="1.1" xmlns="http://www.w3.org/2000/svg" xmlns:xlink="http://www.w3.org/1999/xlink" x="0px" y="0px"
	 viewBox="0 0 170.08 170.08" style="enable-background:new 0 0 170.08 170.08;" xml:space="preserve">
<style type="text/css">
	.st0{fill:#F0F6FA;}
	.st1{opacity:0.149;}
	.st2{fill:#FFFFFF;}
	.st3{opacity:0.0314;}
	.st4{stroke:#000000;stroke-width:0.0973;stroke-miterlimit:10;}
	.st5{fill:#C8354F;}
	.st6{fill:#C93550;}
	.st7{fill:#FFFFFF;stroke:#000000;stroke-width:1.5529;stroke-linecap:round;stroke-linejoin:round;stroke-miterlimit:10;}
	.st8{fill:#FFBABA;}
	
		.st9{opacity:0.0706;fill:none;stroke:#000000;stroke-width:5.8235;stroke-linecap:round;stroke-linejoin:round;stroke-miterlimit:10;enable-background:new    ;}
	.st10{fill:none;stroke:#FFFFFF;stroke-width:3.8824;stroke-linecap:round;stroke-linejoin:round;stroke-miterlimit:10;}
	.st11{stroke:#000000;stroke-width:1.4933;stroke-linecap:round;stroke-linejoin:round;stroke-miterlimit:10.0006;}
	.st12{fill:#D15238;}
	.st13{fill:#D15239;}
	.st14{fill:#6DB671;}
	.st15{fill:#6CB671;}
	.st16{fill:#D1DFEA;}
	.st17{fill:#D3E1ED;}
	.st18{fill:#C8354E;}
	.st19{fill:#F3C058;}
	.st20{fill:#C8AE9D;}
	.st21{opacity:0.0784;}
	.st22{opacity:0.1412;}
</style>
<g id="Ebene_4_5_">
</g>
<g id="Ebene_3">
	<g id="Ebene_2_7_">
		<path class="st7" d="M23.22,65.87c-35.42,14.77-15.43,72.35,18.01,61.66c0.54,5.44,14.99,8.94,19.25,1.9
			c2.75,7.43,27.94,18.78,38.7,0.98c5.02,8.69,22.24,14.52,32.85,3.76c46.77,18.36,44.85-72.79,8.74-68.84
			c2.01-12.07-18.61-20.14-24.61-13.51c-1.82-34.5-46.65-30.87-49.37-10.7C53.22,29.94,27.21,36.35,23.22,65.87z"/>
		<path class="st7" d="M61.68,79.34c-1.58,7.74,2.14,16.51,8.3,19.61c6.16,3.1,14.04,0.16,17.61-6.58"/>
	</g>
	<g id="Ebene_4">
		<path class="st8" d="M35.43,80.45c0.54,6.63,21.75,3.25,21.35-4.48C56.37,68.33,34.64,70.75,35.43,80.45z"/>
		<path class="st8" d="M99.32,79.63c-1.23,6.49,19.81,11.16,21.45,3.67C122.4,75.9,101.12,70.12,99.32,79.63z"/>
	</g>
	<g id="Ebene_9_5_">
		<path class="st9" d="M64.19,45.84c-6.49-3.97-14.53-4.18-21.16-0.54s-11.72,11.04-13.4,19.49"/>
		<path class="st9" d="M24.13,72.22C-5,89.71,17.44,127.44,37.41,121.71"/>
		<path class="st9" d="M72.28,43.74c10.83-18.35,33.82-10.82,37.79,5.43"/>
		<path class="st9" d="M65.45,126.45c7.95,9.45,19.64,10.36,28.76,0.68"/>
		<path class="st9" d="M104.04,128.63c6.17,6.57,16.12,7.45,23.04,2.04"/>
		<path class="st9" d="M143.2,72.22c25.7,0,29.86,66.34-6.55,57.97"/>
	</g>
	<g id="Ebene_10_4_">
		<path class="st10" d="M115.76,53.31c1.16-1.9,2.98-3.16,4.9-3.71c1.92-0.55,3.95-0.43,5.88,0.04c3.35,0.82,6.5,2.68,9.14,5.26
			c1.44,1.4,2.75,3.04,3.6,5.01c0.85,1.97,1.21,4.29,0.73,6.43"/>
	</g>
	<g id="Ebene_19_1_">
		
			<ellipse transform="matrix(0.3468 -0.9379 0.9379 0.3468 -10.263 109.897)" class="st11" cx="73.77" cy="62.32" rx="10.33" ry="2.43"/>
		
			<ellipse transform="matrix(0.3468 -0.9379 0.9379 0.3468 -10.263 109.897)" class="st11" cx="73.77" cy="62.32" rx="10.33" ry="2.43"/>
		
			<ellipse transform="matrix(0.3468 -0.9379 0.9379 0.3468 -7.4556 125.039)" class="st11" cx="86.05" cy="67.87" rx="10.33" ry="2.43"/>
	</g>
	<g id="Ebene_21">
		<ellipse class="st2" cx="77.09" cy="56.17" rx="1.14" ry="1.13"/>
		<ellipse class="st2" cx="77.09" cy="56.17" rx="1.14" ry="1.13"/>
		<ellipse class="st2" cx="89.23" cy="61.13" rx="1.06" ry="1.14"/>
	</g>
	<g>
		<g id="Ebene_13">
			<g>
				<path class="st16" d="M130.89,35.31c-2.24,3.09-4.48,6.19-6.71,9.28c6.82,4.52,13.63,9.03,20.45,13.55
					c1.87-2.13,3.73-4.27,5.6-6.4c0.51-0.59,1.05-1.24,1.04-1.99c-0.01-1.02-1.02-1.77-1.93-2.37c-6.06-3.95-12.12-7.9-18.18-11.85"
					/>
				<g>
					<path class="st17" d="M130.32,35c-2.24,3.09-4.48,6.19-6.71,9.28c-0.21,0.29-0.04,0.64,0.24,0.82
						c5.3,3.51,10.61,7.02,15.91,10.54c1.52,1,3.03,2.01,4.55,3.01c0.21,0.14,0.63,0.1,0.8-0.09c1.61-1.85,3.23-3.69,4.84-5.54
						c0.7-0.8,1.63-1.64,1.9-2.66c0.26-0.97-0.18-1.86-0.92-2.56c-0.78-0.73-1.78-1.28-2.68-1.87c-1.09-0.71-2.18-1.42-3.27-2.13
						c-2.08-1.36-4.17-2.72-6.25-4.07c-2.41-1.57-4.83-3.15-7.24-4.72c-0.69-0.45-1.35,0.59-0.67,1.04
						c3.98,2.59,7.95,5.18,11.93,7.78c1.99,1.3,3.98,2.59,5.96,3.89c0.68,0.45,1.65,0.99,1.86,1.79c0.22,0.89-0.75,1.73-1.3,2.36
						c-1.7,1.95-3.41,3.9-5.11,5.85c0.27-0.03,0.53-0.06,0.8-0.09c-5.3-3.51-10.61-7.02-15.91-10.54c-1.52-1-3.03-2.01-4.55-3.01
						c0.08,0.27,0.16,0.55,0.24,0.82c2.24-3.09,4.48-6.19,6.71-9.28C131.93,34.96,130.79,34.36,130.32,35L130.32,35z"/>
				</g>
			</g>
		</g>
		<g id="Ebene_14">
			<g>
				<path class="st18" d="M132.18,34.51c6.67,4.73,13.49,9.28,20.47,13.62c2.89-1.11,2.9-4.02,5.58-6.47
					c2.22-2.02-0.34-5.81-2.28-8.06c-2.08-2.42-5.15-3.93-8.13-5.37c-2.16-1.04-4.48-2.12-6.91-1.9c-2.14,0.2-4.04,1.4-5.41,2.91
					s-2.3,3.31-3.2,5.08"/>
				<g>
					<path class="st18" d="M131.72,34.94c4.65,3.3,9.38,6.52,14.19,9.64c1.2,0.78,2.41,1.55,3.62,2.32c0.6,0.38,1.21,0.77,1.82,1.15
						c0.28,0.18,0.56,0.36,0.84,0.53c0.36,0.21,0.6,0.18,0.98,0.02c1.97-0.84,2.78-2.7,3.78-4.32c0.28-0.46,0.59-0.91,0.94-1.33
						c0.36-0.43,0.82-0.8,1.17-1.23c0.58-0.71,0.77-1.61,0.67-2.48c-0.23-1.98-1.47-3.81-2.74-5.38c-1.48-1.83-3.34-3.24-5.46-4.43
						c-1.08-0.6-2.19-1.14-3.3-1.68c-1.18-0.57-2.38-1.14-3.65-1.54c-2.49-0.78-5.07-0.61-7.27,0.74c-2.16,1.32-3.58,3.34-4.71,5.43
						c-0.3,0.54-0.58,1.1-0.86,1.65c-0.36,0.7,0.78,1.31,1.14,0.61c1.38-2.71,2.91-5.7,5.98-7.12c3.26-1.51,6.58,0.23,9.47,1.64
						c2.85,1.4,5.61,2.93,7.56,5.35c0.84,1.04,1.64,2.16,2.14,3.38c0.4,0.97,0.71,2.19,0,3.1c-0.23,0.29-0.54,0.53-0.8,0.81
						c-0.29,0.32-0.57,0.65-0.82,0.99c-0.45,0.62-0.83,1.27-1.21,1.93c-0.7,1.21-1.42,2.33-2.86,2.9c0.22,0,0.44,0,0.67,0
						c-5.38-3.35-10.68-6.82-15.88-10.41c-1.49-1.03-2.98-2.07-4.45-3.12c-0.28-0.2-0.66-0.25-0.93,0
						C131.49,34.29,131.44,34.74,131.72,34.94L131.72,34.94z"/>
				</g>
			</g>
		</g>
		<g id="Ebene_15">
			<g>
				<path class="st19" d="M123.27,45.33c-20.54,26.02-42.9,52.83-64.58,78.06c1.79-0.12,4.49-0.68,6.28-0.79
					c0.08,2.07,0.79,5.87,0.79,5.87s4.69-0.3,6.54-0.65c0.17,2.13,0.31,3.79,0.88,5.69c1.96-0.23,5.96-1.07,5.96-1.07
					s0.33,2.06,0.82,4.68c21.03-25.87,42.83-51.84,64.43-78.41c-6.26-4.49-13.93-9.27-20.65-13.53"/>
				<g>
					<path class="st19" d="M122.7,45.02c-4.03,5.1-8.09,10.19-12.18,15.26c-4.15,5.15-8.33,10.29-12.54,15.4
						c-4.2,5.12-8.43,10.22-12.67,15.3c-4.23,5.07-8.48,10.13-12.75,15.17c-4.23,4.99-8.48,9.98-12.74,14.95
						c-0.53,0.62-1.06,1.24-1.6,1.86c-0.31,0.36-0.17,1.07,0.47,1.03c2.11-0.15,4.17-0.64,6.28-0.79c-0.22-0.2-0.44-0.4-0.66-0.6
						c0.09,2.02,0.45,4.04,0.82,6.03c0.04,0.24,0.37,0.46,0.64,0.44c2.23-0.14,4.52-0.27,6.71-0.67c-0.28-0.19-0.56-0.39-0.83-0.58
						c0.15,1.97,0.34,3.94,0.9,5.85c0.07,0.23,0.36,0.47,0.64,0.44c2.06-0.25,4.11-0.66,6.14-1.09c-0.27-0.14-0.54-0.28-0.81-0.42
						c0.25,1.56,0.53,3.12,0.82,4.68c0.11,0.57,0.91,0.51,1.21,0.14c4.12-5.07,8.27-10.14,12.42-15.19
						c4.16-5.06,8.32-10.12,12.49-15.17c4.21-5.1,8.43-10.2,12.64-15.31c4.21-5.1,8.43-10.21,12.63-15.32
						c4.24-5.16,8.47-10.33,12.69-15.51c0.52-0.64,1.04-1.27,1.55-1.91c0.16-0.19,0.11-0.58-0.1-0.73
						c-5.24-3.75-10.7-7.24-16.18-10.71c-1.54-0.97-3.08-1.94-4.61-2.92c-0.7-0.44-1.36,0.6-0.67,1.04
						c5.43,3.44,10.89,6.85,16.21,10.44c1.45,0.98,2.89,1.98,4.31,2.99c-0.03-0.24-0.07-0.49-0.1-0.73
						c-4.21,5.18-8.44,10.36-12.69,15.52c-4.2,5.12-8.41,10.23-12.63,15.34c-4.22,5.11-8.43,10.21-12.65,15.32
						c-4.17,5.05-8.35,10.11-12.51,15.18c-4.16,5.06-8.31,10.12-12.44,15.2c-0.5,0.62-1.01,1.24-1.51,1.86
						c0.4,0.05,0.8,0.1,1.21,0.14c-0.29-1.56-0.57-3.11-0.82-4.68c-0.05-0.33-0.5-0.49-0.81-0.42c-1.91,0.4-3.84,0.81-5.79,1.04
						c0.21,0.15,0.42,0.29,0.64,0.44c-0.54-1.81-0.71-3.66-0.86-5.53c-0.03-0.41-0.39-0.66-0.83-0.58
						c-2.08,0.38-4.25,0.49-6.36,0.62c0.21,0.15,0.42,0.29,0.64,0.44c-0.35-1.88-0.68-3.8-0.77-5.71c-0.01-0.31-0.29-0.63-0.66-0.6
						c-2.11,0.15-4.17,0.64-6.28,0.79c0.16,0.34,0.31,0.69,0.47,1.03c4.27-4.97,8.53-9.96,12.77-14.96
						c4.28-5.05,8.55-10.12,12.8-15.19C89,88.56,93.25,83.44,97.47,78.3c4.21-5.12,8.4-10.25,12.57-15.41
						c4.12-5.1,8.21-10.21,12.28-15.35c0.51-0.64,1.01-1.28,1.52-1.92C124.34,45,123.19,44.4,122.7,45.02L122.7,45.02z"/>
				</g>
			</g>
		</g>
		<g id="Ebene_16">
			<g>
				<path class="st20" d="M58.8,124.44c0.32,2.06-0.4,4.13-0.93,6.16s-0.83,4.27,0.23,6.11c0.8,1.4,2.27,2.36,3.69,3.27
					c1.47,0.94,3.01,1.91,4.78,2.18c2.3,0.35,4.61-0.52,6.65-1.54s4.04-2.24,6.33-2.65c-0.17-1.63-0.33-3.26-0.5-4.89
					c-2.19,0.35-4.38,0.7-6.57,1.05c-0.13-1.96-0.26-3.91-0.4-5.87c-2.32,0.23-4.63,0.47-6.94,0.7c0.19-1.78-0.1-3.61-0.85-5.27
					c-1.65,0.21-3.29,0.42-4.94,0.63"/>
				<g>
					<path class="st20" d="M58.14,124.44c0.36,2.52-0.76,4.89-1.2,7.34c-0.41,2.28-0.22,4.58,1.48,6.4
						c0.77,0.82,1.73,1.47,2.69,2.09c1.03,0.67,2.07,1.35,3.22,1.84c1.17,0.5,2.42,0.78,3.72,0.71c1.34-0.07,2.62-0.45,3.84-0.94
						c2.64-1.06,4.95-2.8,7.82-3.34c0.26-0.05,0.51-0.33,0.48-0.58c-0.17-1.63-0.33-3.26-0.5-4.89c-0.04-0.41-0.39-0.65-0.83-0.58
						c-2.19,0.35-4.38,0.7-6.57,1.05c0.28,0.19,0.56,0.39,0.83,0.58c-0.13-1.96-0.26-3.91-0.4-5.87c-0.02-0.3-0.29-0.64-0.66-0.6
						c-2.32,0.23-4.63,0.47-6.94,0.7c0.22,0.2,0.44,0.4,0.66,0.6c0.18-1.84-0.11-3.71-0.87-5.43c-0.15-0.33-0.42-0.47-0.81-0.42
						c-1.65,0.21-3.29,0.42-4.94,0.63c-0.35,0.04-0.55,0.46-0.46,0.74c0.11,0.35,0.46,0.47,0.81,0.42c1.65-0.21,3.29-0.42,4.94-0.63
						c-0.27-0.14-0.54-0.28-0.81-0.42c0.72,1.63,1,3.36,0.82,5.11c-0.03,0.3,0.33,0.64,0.66,0.6c2.32-0.23,4.63-0.47,6.94-0.7
						c-0.22-0.2-0.44-0.4-0.66-0.6c0.13,1.96,0.26,3.91,0.4,5.87c0.03,0.42,0.4,0.65,0.83,0.58c2.19-0.35,4.38-0.7,6.57-1.05
						c-0.28-0.19-0.56-0.39-0.83-0.58c0.17,1.63,0.33,3.26,0.5,4.89c0.16-0.19,0.32-0.39,0.48-0.58c-2.42,0.46-4.49,1.73-6.63,2.78
						c-2.14,1.06-4.59,1.92-7.01,1.18c-1.13-0.35-2.15-0.96-3.12-1.58c-0.89-0.56-1.8-1.12-2.59-1.8c-0.83-0.71-1.47-1.53-1.76-2.55
						c-0.3-1.03-0.26-2.14-0.08-3.19c0.43-2.6,1.65-5.12,1.27-7.8c-0.05-0.32-0.27-0.6-0.66-0.6
						C58.47,123.84,58.09,124.11,58.14,124.44L58.14,124.44z"/>
				</g>
			</g>
		</g>
		<g id="Ebene_17">
			<g>
				<path d="M57.1,137.89c-0.45,3.2-0.9,6.41-1.36,9.61c3.02-1.89,6.42-3.27,9.98-4.07c-2.74-1.9-5.49-3.8-8.23-5.69"/>
				<g>
					<path d="M56.44,137.89c-0.45,3.2-0.9,6.41-1.36,9.61c-0.06,0.45,0.61,0.76,0.99,0.52c2.99-1.86,6.31-3.21,9.82-4.01
						c0.6-0.14,0.58-0.81,0.16-1.1c-2.74-1.9-5.49-3.8-8.23-5.69c-0.29-0.2-0.74-0.04-0.9,0.22c-0.2,0.31-0.05,0.63,0.24,0.82
						c2.74,1.9,5.49,3.8,8.23,5.69c0.05-0.37,0.1-0.73,0.16-1.1c-3.61,0.82-7.06,2.22-10.13,4.13c0.33,0.17,0.66,0.35,0.99,0.52
						c0.45-3.2,0.9-6.41,1.36-9.61c0.05-0.32-0.34-0.6-0.66-0.6C56.7,137.29,56.48,137.57,56.44,137.89L56.44,137.89z"/>
				</g>
			</g>
		</g>
		<g id="Ebene_12">
			<g>
				<g>
					<path d="M59.45,123.2c5.17-6.33,10.33-12.66,15.5-18.99c5.15-6.3,10.29-12.61,15.44-18.91c5.17-6.33,10.33-12.66,15.5-18.99
						c5.15-6.3,10.29-12.61,15.44-18.91c5.17-6.33,10.33-12.66,15.5-18.99c0.63-0.78,1.27-1.56,1.91-2.33
						c0.51-0.62-0.64-1.22-1.14-0.61c-5.17,6.33-10.33,12.66-15.5,18.99c-5.15,6.3-10.29,12.61-15.44,18.91
						c-5.17,6.33-10.33,12.66-15.5,18.99c-5.15,6.3-10.29,12.61-15.44,18.91c-5.17,6.33-10.33,12.66-15.5,18.99
						c-0.63,0.78-1.27,1.56-1.91,2.33C57.8,123.21,58.95,123.81,59.45,123.2L59.45,123.2z"/>
				</g>
			</g>
			<g>
				<g>
					<path d="M80.54,138.18c5.18-6.32,10.36-12.64,15.54-18.96c5.18-6.32,10.36-12.64,15.54-18.96s10.36-12.64,15.54-18.96
						c5.18-6.32,10.36-12.64,15.54-18.96s10.36-12.64,15.54-18.96c0.64-0.78,1.27-1.55,1.91-2.33c0.51-0.62-0.64-1.22-1.14-0.61
						c-5.18,6.32-10.36,12.64-15.54,18.96s-10.36,12.64-15.54,18.96S117.58,91,112.4,97.32c-5.18,6.32-10.36,12.64-15.54,18.96
						c-5.18,6.32-10.36,12.64-15.54,18.96c-0.64,0.78-1.27,1.55-1.91,2.33C78.9,138.19,80.04,138.79,80.54,138.18L80.54,138.18z"/>
				</g>
			</g>
			<g>
				<g>
					<path d="M138.16,26.35c7.41-0.03,14.46,3.46,18.41,9.19c1.06,1.54,1.89,3.2,2.45,4.94c0.24,0.74,1.51,0.43,1.27-0.32
						c-2.19-6.75-8.06-12.14-15.46-14.15c-2.16-0.59-4.42-0.88-6.67-0.87C137.31,25.15,137.31,26.36,138.16,26.35L138.16,26.35z"/>
				</g>
			</g>
			<g>
				<g>
					<path d="M130.77,35.4c5.44,3.71,10.88,7.43,16.32,11.14c1.55,1.06,3.1,2.11,4.64,3.17c0.29,0.2,0.73,0.04,0.9-0.22
						c0.2-0.31,0.05-0.63-0.24-0.82c-5.44-3.71-10.88-7.43-16.32-11.14c-1.55-1.06-3.1-2.11-4.64-3.17c-0.29-0.2-0.73-0.04-0.9,0.22
						C130.34,34.89,130.49,35.21,130.77,35.4L130.77,35.4z"/>
				</g>
			</g>
			<g>
				<g>
					<path d="M122.94,44.86c5.49,3.73,10.99,7.47,16.48,11.2c1.55,1.05,3.1,2.11,4.65,3.16c0.29,0.2,0.73,0.04,0.9-0.22
						c0.2-0.3,0.05-0.63-0.24-0.82c-5.49-3.73-10.99-7.47-16.48-11.2c-1.55-1.05-3.1-2.11-4.65-3.16c-0.29-0.2-0.73-0.04-0.9,0.22
						C122.5,44.34,122.65,44.67,122.94,44.86L122.94,44.86z"/>
				</g>
			</g>
			<g>
				<g>
					<path d="M128.27,44.42c1.33-1.6,2.67-3.2,4.01-4.8c0.22-0.26,0.04-0.67-0.24-0.82c-0.34-0.18-0.69-0.04-0.9,0.22
						c-1.33,1.6-2.67,3.2-4.01,4.8c-0.22,0.26-0.04,0.67,0.24,0.82C127.71,44.82,128.06,44.67,128.27,44.42L128.27,44.42z"/>
				</g>
			</g>
			<g>
				<g>
					<path d="M131.68,46.82c1.33-1.6,2.67-3.2,4.01-4.8c0.22-0.26,0.04-0.67-0.24-0.82c-0.34-0.18-0.69-0.04-0.9,0.22
						c-1.33,1.6-2.67,3.2-4.01,4.8c-0.22,0.26-0.04,0.67,0.24,0.82C131.11,47.22,131.46,47.07,131.68,46.82L131.68,46.82z"/>
				</g>
			</g>
			<g>
				<g>
					<path d="M135.68,49.44c1.33-1.6,2.67-3.2,4.01-4.8c0.22-0.26,0.04-0.67-0.24-0.82c-0.34-0.18-0.69-0.04-0.9,0.22
						c-1.33,1.6-2.67,3.2-4.01,4.8c-0.22,0.26-0.04,0.67,0.24,0.82C135.11,49.84,135.47,49.7,135.68,49.44L135.68,49.44z"/>
				</g>
			</g>
			<g>
				<g>
					<path d="M139.11,51.84c1.33-1.6,2.67-3.2,4.01-4.8c0.22-0.26,0.04-0.67-0.24-0.82c-0.34-0.18-0.69-0.04-0.9,0.22
						c-1.33,1.6-2.67,3.2-4.01,4.8c-0.22,0.26-0.04,0.67,0.24,0.82C138.54,52.24,138.89,52.1,139.11,51.84L139.11,51.84z"/>
				</g>
			</g>
			<g>
				<g>
					<path d="M142.72,54.24c1.33-1.6,2.67-3.2,4.01-4.8c0.22-0.26,0.04-0.67-0.24-0.82c-0.34-0.18-0.69-0.04-0.9,0.22
						c-1.33,1.6-2.67,3.2-4.01,4.8c-0.22,0.26-0.04,0.67,0.24,0.82C142.15,54.64,142.5,54.5,142.72,54.24L142.72,54.24z"/>
				</g>
			</g>
			<g>
				<g>
					<path d="M58.87,124.43c2.02-0.31,4.03-0.64,6.05-0.95c-0.28-0.19-0.56-0.39-0.83-0.58c0.24,2.01,0.49,4.02,0.81,6.03
						c0.04,0.23,0.38,0.47,0.64,0.44c2.32-0.28,4.66-0.53,6.95-0.97c-0.28-0.19-0.56-0.39-0.83-0.58c0.09,1.93,0.49,3.83,0.58,5.76
						c0.02,0.39,0.41,0.69,0.83,0.58c2.06-0.52,4.2-0.62,6.27-1.14c-0.27-0.14-0.54-0.28-0.81-0.42c0.4,1.8,0.53,3.63,0.82,5.44
						c0.05,0.32,0.5,0.5,0.81,0.42c0.38-0.1,0.51-0.42,0.46-0.74c-0.29-1.81-0.42-3.64-0.82-5.44c-0.07-0.32-0.49-0.5-0.81-0.42
						c-2.06,0.52-4.2,0.62-6.27,1.14c0.28,0.19,0.56,0.39,0.83,0.58c-0.09-1.93-0.49-3.83-0.58-5.76c-0.02-0.41-0.4-0.66-0.83-0.58
						c-2.18,0.41-4.39,0.66-6.6,0.92c0.21,0.15,0.42,0.29,0.64,0.44c-0.31-1.9-0.54-3.8-0.77-5.71c-0.05-0.42-0.38-0.65-0.83-0.58
						c-2.02,0.31-4.03,0.64-6.05,0.95C57.68,123.4,58.03,124.56,58.87,124.43L58.87,124.43z"/>
				</g>
			</g>
			<g>
				<g>
					<path d="M57.77,123.39c-0.93,6.56-1.79,13.14-2.68,19.7c-0.25,1.83-0.5,3.65-0.76,5.48c-0.07,0.5,0.6,0.68,0.99,0.52
						c6.54-2.71,13.03-5.5,19.55-8.25c1.81-0.76,3.62-1.52,5.43-2.27c0.33-0.14,0.4-0.56,0.24-0.82c-0.19-0.31-0.58-0.35-0.9-0.22
						c-6.54,2.71-13.03,5.5-19.55,8.25c-1.81,0.76-3.62,1.52-5.43,2.27c0.33,0.17,0.66,0.35,0.99,0.52
						c0.93-6.56,1.79-13.14,2.68-19.7c0.25-1.83,0.5-3.65,0.76-5.48c0.05-0.32-0.34-0.6-0.66-0.6
						C58.03,122.79,57.82,123.07,57.77,123.39L57.77,123.39z"/>
				</g>
			</g>
			<g>
				<g>
					<path d="M56.89,137.9c3.23,2.03,6.37,4.18,9.6,6.21c0.7,0.44,1.36-0.6,0.67-1.04c-3.23-2.03-6.37-4.18-9.6-6.21
						C56.85,136.42,56.19,137.47,56.89,137.9L56.89,137.9z"/>
				</g>
			</g>
		</g>
		<g id="Ebene_18">
			<g class="st21">
				<path d="M140.92,26.33c-13.18,16.52-28.13,34.8-38.84,52.74s-18.93,37.38-21.45,57.68c-0.18-1.47-0.9-3.42-1.08-4.9
					c-2.46,0.39-3.67,0.67-6.36,1.65c-0.18-3.1-0.41-5.95-0.41-5.95s-3.77,0.32-7.15,0.73c-0.22-2.19-0.65-5.69-0.65-5.69
					s-4.49,0.52-6.28,0.79c25.85-32.5,53.8-64.88,79.85-97.64C138.48,26.27,140.98,25.81,140.92,26.33"/>
				<g>
					<path d="M140.35,26.03c-5.29,6.63-10.61,13.23-15.8,19.92c-5.31,6.83-10.49,13.75-15.35,20.86
						c-4.69,6.85-9.02,13.9-12.88,21.17c-3.85,7.26-7.24,14.73-9.97,22.41c-2.72,7.63-4.77,15.46-5.97,23.41
						c-0.15,0.98-0.28,1.97-0.41,2.95c0.44,0,0.88,0,1.32,0c-0.22-1.66-0.86-3.24-1.08-4.9c-0.05-0.41-0.38-0.65-0.83-0.58
						c-2.21,0.35-4.28,0.9-6.36,1.65c0.28,0.19,0.56,0.39,0.83,0.58c-0.12-1.98-0.25-3.97-0.41-5.95c-0.02-0.3-0.28-0.63-0.66-0.6
						c-2.39,0.2-4.77,0.44-7.15,0.73c0.22,0.2,0.44,0.4,0.66,0.6c-0.19-1.9-0.42-3.8-0.65-5.69c-0.04-0.29-0.28-0.65-0.66-0.6
						c-2.16,0.25-4.32,0.49-6.46,0.81c0.25,0.29,0.5,0.59,0.74,0.88c5.07-6.37,10.19-12.71,15.35-19.02
						c5.19-6.36,10.41-12.69,15.65-19.02c5.25-6.35,10.52-12.69,15.77-19.03s10.5-12.7,15.72-19.07
						c5.2-6.35,10.37-12.72,15.48-19.13c0.63-0.79,1.26-1.58,1.88-2.36c-0.41-0.1-0.82-0.2-1.23-0.3c0.02,0.62,0.62,0.81,1.2,0.86
						c0.29,0.03,0.59,0.02,0.88,0.04c0.13,0,0.3,0.04,0.42,0.02c0.38-0.05-0.09,0.49-0.12-0.34c0.03,0.77,1.35,0.78,1.32,0
						c-0.02-0.62-0.62-0.81-1.2-0.86c-0.29-0.03-0.59-0.02-0.88-0.04c-0.13,0-0.3-0.04-0.42-0.02c-0.38,0.05,0.09-0.49,0.12,0.34
						c-0.02-0.63-0.85-0.77-1.23-0.3c-5.1,6.41-10.25,12.79-15.44,19.14c-5.21,6.38-10.45,12.73-15.7,19.08
						c-5.25,6.35-10.52,12.69-15.77,19.04c-5.24,6.33-10.47,12.66-15.67,19.02c-5.17,6.32-10.31,12.65-15.39,19.02
						c-0.62,0.78-1.25,1.56-1.87,2.35c-0.38,0.47,0.24,0.96,0.74,0.88c2.03-0.31,4.07-0.54,6.11-0.77c-0.22-0.2-0.44-0.4-0.66-0.6
						c0.23,1.9,0.46,3.79,0.65,5.69c0.03,0.29,0.28,0.65,0.66,0.6c2.38-0.29,4.76-0.53,7.15-0.73c-0.22-0.2-0.44-0.4-0.66-0.6
						c0.16,1.98,0.29,3.97,0.41,5.95c0.02,0.35,0.41,0.73,0.83,0.58c2.08-0.76,4.15-1.3,6.36-1.65c-0.28-0.19-0.56-0.39-0.83-0.58
						c0.22,1.66,0.86,3.24,1.08,4.9c0.1,0.77,1.22,0.78,1.32,0c1-7.95,2.88-15.8,5.44-23.46c2.57-7.68,5.81-15.16,9.54-22.43
						c3.73-7.27,7.95-14.32,12.53-21.17c4.73-7.08,9.82-13.95,15.04-20.74c5.15-6.69,10.44-13.29,15.72-19.89
						c0.64-0.81,1.29-1.61,1.93-2.42C141.99,26.01,140.84,25.41,140.35,26.03L140.35,26.03z"/>
				</g>
			</g>
			<g class="st21">
				<path d="M61.14,124.1c-3.49,14.15,1.81,20.09,1.81,20.09s-6.45,1.18-7.5,3.49c0.69-8.08,1.78-16.39,3.79-24.29"/>
				<g>
					<path d="M60.51,123.94c-1.06,4.33-1.58,8.83-0.91,13.24c0.33,2.21,0.97,4.45,2.17,6.42c0.21,0.35,0.44,0.69,0.72,1.01
						c0.1-0.34,0.19-0.67,0.29-1.01c-1.18,0.22-2.36,0.54-3.49,0.92c-1.58,0.54-3.68,1.33-4.4,2.85c0.41,0.1,0.82,0.2,1.23,0.3
						c0.54-6.33,1.31-12.65,2.57-18.9c0.36-1.75,0.75-3.5,1.19-5.24c0.19-0.75-1.08-1.07-1.27-0.32
						c-1.59,6.27-2.59,12.65-3.29,19.04c-0.2,1.8-0.37,3.6-0.52,5.41c-0.05,0.57,0.97,0.85,1.23,0.3c0.6-1.27,2.5-1.93,3.88-2.38
						c1.05-0.34,2.13-0.63,3.22-0.84c0.53-0.1,0.58-0.69,0.29-1.01c0.14,0.15,0.05,0.06-0.04-0.06c-0.13-0.17-0.25-0.35-0.36-0.52
						c-0.18-0.29-0.35-0.58-0.5-0.88c-0.04-0.08-0.08-0.16-0.12-0.25c-0.02-0.05-0.05-0.1-0.07-0.15c-0.06-0.13,0.01,0.04-0.03-0.06
						c-0.1-0.22-0.2-0.45-0.29-0.67c-1.12-2.82-1.45-5.87-1.37-8.85c0.07-2.72,0.51-5.41,1.15-8.05
						C61.96,123.51,60.69,123.18,60.51,123.94L60.51,123.94z"/>
				</g>
			</g>
		</g>
		<g id="Ebene_19">
			<g class="st22">
				<g>
					<path class="st2" d="M135.17,58.66c-5.84,7.21-11.69,14.42-17.53,21.62c-5.84,7.21-11.69,14.42-17.53,21.62
						c-3.31,4.08-6.61,8.15-9.92,12.23c-0.55,0.68-0.15,1.82,0.63,2.19c0.92,0.44,1.82,0.15,2.41-0.58
						c5.84-7.21,11.69-14.42,17.53-21.62s11.69-14.42,17.53-21.62c3.31-4.08,6.61-8.15,9.92-12.23c0.55-0.68,0.15-1.82-0.63-2.19
						C136.65,57.64,135.75,57.93,135.17,58.66L135.17,58.66z"/>
				</g>
			</g>
			<g class="st22">
				<g>
					<path class="st2" d="M70,140.54c1.95-0.92,3.89-1.84,5.84-2.76c0.82-0.39,1.13-1.49,0.63-2.19c-0.54-0.76-1.53-0.99-2.41-0.58
						c-1.95,0.92-3.89,1.84-5.84,2.76c-0.82,0.39-1.13,1.49-0.63,2.19C68.13,140.73,69.12,140.96,70,140.54L70,140.54z"/>
				</g>
			</g>
			<g class="st22">
				<g>
					<path class="st2" d="M146.93,33.78c0.65,0.09,1.39,0.22,1.98,0.5c-0.44-0.2,0.08,0.04,0.17,0.08c0.15,0.07,0.31,0.14,0.45,0.22
						c0.3,0.16,0.58,0.33,0.86,0.51c0.15,0.11,0.14,0.09-0.05-0.04c0.07,0.05,0.13,0.1,0.2,0.15c0.13,0.1,0.26,0.21,0.38,0.32
						c0.22,0.19,0.42,0.39,0.62,0.6c0.06,0.06,0.11,0.12,0.16,0.18c-0.14-0.17-0.16-0.19-0.04-0.04c0.1,0.13,0.2,0.26,0.29,0.39
						c0.19,0.26,0.35,0.54,0.5,0.82c0.04,0.07,0.07,0.14,0.11,0.21c-0.09-0.2-0.1-0.21-0.02-0.04c0.06,0.16,0.13,0.32,0.18,0.48
						c0.11,0.32,0.18,0.65,0.25,0.98c0.03,0.18,0.03,0.17,0-0.05c0.01,0.08,0.02,0.17,0.03,0.25c0.01,0.13,0.02,0.25,0.03,0.38
						c0.01,0.34,0.01,0.68-0.02,1.01c-0.01,0.08-0.02,0.17-0.03,0.25c0.03-0.22,0.04-0.23,0.01-0.05c-0.03,0.17-0.07,0.33-0.11,0.5
						c-0.08,0.33-0.19,0.65-0.31,0.97c-0.03,0.08-0.06,0.16-0.1,0.24c0.09-0.19,0.09-0.2,0.01-0.03c-0.08,0.15-0.16,0.3-0.25,0.45
						c-0.17,0.3-0.37,0.58-0.59,0.86c-0.54,0.69-0.16,1.82,0.63,2.19c0.91,0.44,1.83,0.16,2.41-0.58c1.67-2.13,2.19-4.88,1.65-7.43
						c-0.52-2.45-2.24-4.56-4.48-5.94c-1.18-0.73-2.57-1.24-3.98-1.43c-0.91-0.13-1.94,0.21-2.16,1.12
						C145.51,32.57,145.95,33.64,146.93,33.78L146.93,33.78z"/>
				</g>
			</g>
			<g class="st22">
				<g>
					<path class="st2" d="M61.56,145.28c0.36-0.2,0.72-0.39,1.08-0.59c0.38-0.21,0.69-0.57,0.81-0.96c0.12-0.38,0.06-0.9-0.18-1.24
						c-0.51-0.72-1.56-1.04-2.41-0.58c-0.36,0.2-0.72,0.39-1.08,0.59c-0.38,0.21-0.69,0.57-0.81,0.96c-0.12,0.38-0.06,0.9,0.18,1.24
						C59.66,145.43,60.71,145.74,61.56,145.28L61.56,145.28z"/>
				</g>
			</g>
		</g>
	</g>
</g>
<g id="Ebene_5_6_">
</g>
</svg>
