<?xml version="1.0" encoding="utf-8"?>
<!-- Generator: Adobe Adobe Illustrator 24.2.0, SVG Export Plug-In . SVG Version: 6.00 Build 0)  -->
<svg version="1.1" xmlns="http://www.w3.org/2000/svg" xmlns:xlink="http://www.w3.org/1999/xlink" x="0px" y="0px"
	 viewBox="0 0 2000 2000" style="enable-background:new 0 0 2000 2000;" xml:space="preserve">
<style type="text/css">
	.st0{fill:#C8354F;}
	.st1{fill:#C93550;}
	.st2{opacity:0.149;}
	.st3{fill:#FFFFFF;}
	.st4{opacity:0.0314;}
	.st5{fill:#F7EBF1;}
	.st6{fill:#F7EBF2;}
	.st7{fill:#F0C1A1;}
	.st8{fill:#CA354F;}
	.st9{fill:#FFFFFF;stroke:#FFFFFF;stroke-width:0.8072;stroke-miterlimit:10;}
	.st10{opacity:0.3098;}
	.st11{opacity:0.102;}
</style>
<g id="Ebene_16">
	<g>
		<g id="Ebene_2_Kopie">
			<g>
				<path class="st0" d="M1431.16,777.53c69.13,2.35,279.59,10.37,300.51-18.94c33.98-47.62,86.52-563.8,52.01-596.52
					c-72.32-68.57-934.1-125.63-1010.66-44.72c-69.03,72.96,25.04,555.45,51.45,584.56c39.92,44,181.38,21.66,247.28,46.44
					c29.38,11.05,160.03,164.64,192.7,162.89c18.54-0.99,126.77-80.9,164.53-133.56"/>
				<g>
					<path class="st1" d="M1431.16,782.54c67.85,2.31,135.93,4.62,203.78,1.16c16.32-0.83,32.65-2.04,48.85-4.2
						c12.01-1.6,24.31-3.46,35.73-7.66c7.02-2.58,13.73-5.97,17.67-12.58c3-5.05,4.99-10.78,6.82-16.34
						c6.03-18.29,9.86-37.35,13.5-56.24c5.21-27.07,9.47-54.33,13.34-81.62c9.32-65.82,16.4-131.97,21.68-198.23
						c4.65-58.32,8.54-117.07,7.25-175.61c-0.4-18.13-0.97-36.72-4.74-54.51c-1.07-5.07-2.45-10.49-5.24-14.92
						c-2.44-3.88-6.35-6.61-10.18-8.99c-11.04-6.87-23.84-11.15-36.18-14.98c-18.28-5.67-36.98-10-55.71-13.87
						c-52.31-10.83-105.37-18.09-158.39-24.34c-64.95-7.66-130.14-13.36-195.4-17.7c-67.74-4.51-135.58-7.54-203.46-8.73
						c-60.63-1.06-121.37-0.79-181.94,2.62c-43.93,2.47-88.82,5.71-131.65,16.4c-13.05,3.26-26.61,7.25-38.15,14.35
						c-12.07,7.43-18.85,19.46-23.47,32.57c-7.41,20.98-9.71,43.84-11.05,65.92c-1.79,29.44-1.11,59.02,0.51,88.46
						c3.75,68.03,12.65,135.83,23.91,202.99c9.2,54.87,19.6,109.94,34.64,163.55c3.82,13.63,7.48,28.47,14.48,40.91
						c4.51,8,13.07,13.64,21.05,17.69c14.77,7.51,31.29,11.13,47.56,13.62c40.37,6.19,81.39,5.89,122.01,9.37
						c18,1.54,36.19,3.64,53.57,8.75c5.92,1.74,8.14,2.28,12.79,5.25c3.67,2.34,6.83,4.86,10.13,7.59
						c23.18,19.18,44.14,41.16,65.55,62.26c23.58,23.25,47.09,46.89,72.77,67.85c8.74,7.13,17.89,14.53,28.14,19.4
						c7.8,3.7,14.22,4.37,22.2,0.95c11.9-5.09,22.88-12.55,33.53-19.82c15.91-10.86,31.28-22.53,46.25-34.66
						c28.88-23.39,58.1-48.69,79.97-78.99c3.78-5.23-4.91-10.24-8.65-5.06c-10.56,14.64-23.35,27.7-36.37,40.14
						c-14.74,14.09-30.23,27.4-46.16,40.13c-14.38,11.49-29.17,22.53-44.49,32.74c-9.42,6.27-20.54,14.09-30.67,17.39
						c-0.64,0.21-1.29,0.38-1.94,0.56c-1.73,0.48,0.32,0.07-0.9,0.13c-0.58,0.03-1.17-0.03-1.75-0.09c1.35,0.14-1.29-0.34-1.79-0.48
						c-3.59-1.03-6.64-2.73-10.33-4.96c-10.44-6.3-19.89-14.21-29.09-22.16c-25.47-22-49.23-45.96-73.18-69.58
						c-19.85-19.58-39.41-40.26-61.57-57.29c-8.56-6.58-17.28-9.98-27.81-12.61c-17.65-4.42-35.93-6.34-54.04-7.79
						c-39.99-3.2-80.56-2.72-120.2-9.45c-15.36-2.61-31.34-6.2-44.86-14.26c-2.59-1.54-5.1-3.23-7.37-5.2
						c-1.25-1.08-2.39-2.25-3.56-3.41c-0.27-0.27-1.69-2.12-0.43-0.39c-1.09-1.49-1.97-3.1-2.79-4.75
						c-2.36-4.75-4.28-10.22-6.39-16.57c-2.83-8.54-5.31-17.19-7.66-25.87c-6.53-24.1-12.03-48.48-17.13-72.91
						c-13.31-63.8-23.82-128.27-31.33-193.01c-7.07-60.96-12.61-123.19-8.33-184.57c1.46-20.83,3.92-42.36,11.48-61.98
						c2.28-5.9,6.26-13.39,10.29-17.71c0.7-0.76,1.44-1.48,2.21-2.17c0.35-0.31,0.71-0.61,1.07-0.91c1.25-1.06-0.52,0.32,0.84-0.65
						c2.03-1.44,4.13-2.76,6.31-3.95c5.93-3.23,9.53-4.59,16-6.78c7.4-2.51,14.97-4.51,22.58-6.25c18.91-4.32,38.16-7.1,57.43-9.28
						c53.25-6.03,107-7.79,160.56-8.36c64.89-0.69,129.79,0.85,194.61,3.74c66.66,2.98,133.27,7.44,199.73,13.51
						c59.05,5.39,118.04,11.94,176.65,20.97c42.28,6.51,85.05,13.63,126,26.27c6.93,2.14,13.8,4.49,20.52,7.24
						c1.26,0.52,1.21,0.49,3.17,1.37c1.34,0.6,2.68,1.23,3.99,1.88c2.25,1.12,4.46,2.31,6.59,3.63c0.9,0.56,1.77,1.15,2.65,1.75
						c0.44,0.3,0.87,0.63,1.3,0.96c-1.37-1.04,0.07,0.06,0.38,0.33c0.61,0.55,1.2,1.09,1.78,1.67c1.01,1.01-0.51-0.85,0.11,0.13
						c0.25,0.39,0.52,0.76,0.73,1.17c0.27,0.5,1.52,3.22,0.87,1.64c0.47,1.14,0.88,2.31,1.25,3.48c0.91,2.89,1.58,5.86,2.15,8.84
						c3.19,16.61,3.74,35.58,4.04,53.49c0.46,26.67-0.3,53.35-1.49,79.99c-2.89,64.92-8.46,129.75-15.54,194.34
						c-6.41,58.47-13.82,117.01-24.95,174.79c-3.61,18.74-7.42,37.64-13.36,55.81c-2.01,6.14-2.91,9.27-5.95,14.37
						c-1.3,2.18-2.09,3.03-3.99,4.23c-3.63,2.3-6.6,3.46-10.59,4.75c-11.85,3.84-24.38,5.68-36.71,7.13
						c-16.34,1.92-32.77,2.97-49.2,3.7c-37.38,1.65-74.83,1.54-112.23,0.89c-28.23-0.49-56.44-1.41-84.65-2.38
						C1424.71,772.3,1424.72,782.32,1431.16,782.54L1431.16,782.54z"/>
				</g>
			</g>
		</g>
		<g id="Ebene_7">
			<g class="st2">
				<g>
					<path class="st3" d="M1520.47,188.17c21.27,3.56,42.84,5.15,64.28,7.3c5.92,0.59,11.84,1.21,17.75,1.88
						c2.88,0.33,5.76,0.66,8.64,1.02c1.44,0.18,2.88,0.36,4.32,0.54c4.74,0.6-4.01-0.58,0.82,0.11c11.24,1.59,22.46,3.4,33.53,5.92
						c5.15,1.17,10.27,2.49,15.31,4.04c2.27,0.7,4.53,1.44,6.77,2.25c1.08,0.39,2.14,0.8,3.21,1.2c4.38,1.65-3.1-1.51-0.41-0.2
						c3.78,1.84,7.53,3.62,11.03,5.97c0.74,0.5,1.48,1.19,2.26,1.61c-1.11-0.59-3.98-3.37-1.67-1.21c1.34,1.26,2.6,3.01,4.04,4.12
						c-0.79-0.61-3.11-4.53-1.48-1.84c0.4,0.67,0.81,1.35,1.23,2.01c2.43,3.83-0.96-4.05-0.44-1.21c0.26,1.44,1.21,6.71,0.55,1.79
						c-0.65-4.87-0.14-0.93-0.03,0.25c0.1,1.12,0.18,2.24,0.25,3.35c0.15,2.56,0.22,5.12,0.25,7.69
						c0.47,35.15-3.25,70.52-6.42,105.47c-4.49,49.51-9.81,98.95-15.22,148.37c-5.11,46.74-10.42,93.46-15.3,140.23
						c-0.51,4.84-1,9.69-1.5,14.54c-1.06,10.44,9.95,20.45,20,20c11.74-0.53,18.87-8.81,20-20c4.68-46.1,9.91-92.15,14.98-138.21
						c5.58-50.76,11.11-101.54,15.88-152.39c3.52-37.54,7.44-75.38,7.6-113.12c0.04-9.66,0.46-20.95-3.02-30.08
						c-8.15-21.36-29.4-31.94-49.95-38.54c-23.07-7.41-47.56-10.44-71.54-13.25c-22.23-2.6-44.57-4.22-66.78-6.95
						c-1.1-0.13-2.2-0.28-3.3-0.42c-3.34-0.42,5.26,0.76,1.26,0.16c-2.1-0.31-4.19-0.62-6.28-0.97c-10.28-1.72-22.04,2.7-24.6,13.97
						C1504.3,173.23,1509.43,186.32,1520.47,188.17L1520.47,188.17z"/>
				</g>
			</g>
			<g class="st2">
				<g>
					<path class="st3" d="M1636.11,717.6c0.67,4.37,1.34,8.74,2.01,13.1c9.79-7.53,19.59-15.06,29.38-22.59
						c-5.08-3.22-10.15-6.44-15.23-9.66c1.35,10.47,2.7,20.94,4.05,31.41c-2.3,1.93-4.47,3.31-7.52,3.75
						c-1.18,0.35-2.37,0.35-3.55-0.01c-2.05-0.37-2.35-0.38-0.89-0.04c-2.23-0.83-3.93-1.83-5.71-3.42c1.01,1.03,0.86,0.8-0.43-0.69
						c-1.19-1.24-2.02-2.71-2.49-4.4c3.06-7.53,6.13-15.06,9.19-22.59c0.28-0.16,4.84-1.5,2.33-0.99c2.48-0.5,4.62-0.55,7.11-0.05
						c-2.53-0.51,1.94,0.92,2.25,1.07c-2.28-1.06,1.58,1.21,1.89,1.52c1.6,1.6,2.59,3.74,3.25,5.87c-1.08-3.46-0.29,7.33-0.24,7
						c0.42-2.52-0.73,1.79-0.96,2.2c-0.65,0.86-1.3,1.72-1.95,2.57c-2.77,1.93-3.49,2.48-2.18,1.66c2.1-1.07-4.4,1.6-2.17,0.91
						c1.03-0.24,0.6-0.19-1.27,0.17c-1.15,0.35-2.31,0.38-3.47,0.09c-4.59-0.52-8.52-3.29-10.3-7.58c-1.68-4.05-0.03,2.05-0.66-2.46
						c-0.62-4.47-0.59,1.86-0.04-2.63c-0.03-1.2,0.28-2.31,0.91-3.33c0.81-1.67,0.97-2.06,0.48-1.18c-0.89,1.53,3.58-3.76,1.05-1.76
						c10.47,1.35,20.94,2.7,31.41,4.05c-1.09-1.66-2.18-3.33-3.27-4.99c-5.72-8.74-17.97-13.23-27.36-7.17
						c-8.73,5.63-13.3,18-7.18,27.36c1.09,1.66,2.18,3.33,3.27,4.99c3.51,5.36,8.24,8.69,14.61,9.55c6.76,0.91,11.61-1.39,16.8-5.5
						c10.43-8.26,11.6-25.54,4.69-36.28c-8.21-12.77-25.71-16.76-38.47-8.22c-12.31,8.23-17.85,25.38-8.96,38.27
						c8.6,12.46,25.2,17.21,38.62,9.41c7.67-4.46,11.5-14.06,9.19-22.59c-2.49-9.22-9.98-16.97-19.3-19.43
						c-10.11-2.67-19.13,0.01-26.95,6.58c-10.3,8.64-5.98,25.05,4.05,31.41c5.08,3.22,10.15,6.44,15.23,9.66
						c6.77,4.29,16.11,3.15,22.21-1.56c6.84-5.29,8.43-12.8,7.17-21.02c-0.67-4.37-1.34-8.74-2.01-13.1
						c-0.71-4.62-5.34-9.7-9.19-11.95c-4.29-2.51-10.6-3.57-15.41-2.02c-4.84,1.57-9.51,4.57-11.95,9.19
						C1635.45,707.25,1635.25,711.98,1636.11,717.6L1636.11,717.6z"/>
				</g>
			</g>
		</g>
		<g id="Ebene_2_1_">
			<g>
				<g>
					<path d="M1398.9,826.63c67.94,2.34,136.11,4.67,204.05,1.26c16.34-0.82,32.69-2.02,48.92-4.15c12.9-1.7,26.14-3.48,38.43-7.97
						c9.52-3.48,18.21-8.09,23.59-17.02c3.43-5.69,5.71-12.2,7.8-18.48c6.08-18.27,9.93-37.34,13.58-56.22
						c5.25-27.13,9.52-54.46,13.4-81.82c9.43-66.49,16.64-133.31,21.95-200.26c4.62-58.25,8.51-116.95,7.07-175.41
						c-0.46-18.65-1.2-37.82-5.23-56.1c-1.28-5.82-3.13-11.92-6.35-16.97c-3.43-5.37-8.68-9.24-14.06-12.5
						c-11.97-7.25-25.77-11.85-39.09-15.93c-18.45-5.64-37.3-9.95-56.19-13.82c-53.13-10.88-107.02-18.17-160.86-24.49
						c-64.91-7.62-130.04-13.3-195.25-17.64c-67.65-4.5-135.41-7.55-203.19-8.76c-60.43-1.08-120.96-0.85-181.32,2.47
						c-44.97,2.47-90.95,5.76-134.82,16.53c-13.95,3.43-28.44,7.76-40.81,15.23c-14.28,8.62-22.43,22.28-28.04,37.66
						c-7.87,21.6-10.22,45.39-11.65,68.18c-1.85,29.4-1.17,58.95,0.46,88.35c3.79,68.62,12.89,137.01,24.33,204.74
						c9.29,55.04,19.79,110.29,35.04,164.03c4.04,14.23,8.03,29.72,15.42,42.66c5.45,9.54,15.4,16.53,25.03,21.33
						c15.9,7.93,33.32,11.96,50.79,14.56c41.38,6.17,83.3,6.02,124.92,9.67c4.57,0.4,9.14,0.85,13.7,1.37
						c1.21,0.14,2.43,0.28,3.64,0.43c0.65,0.08,4.73,0.63,0.79,0.09c2.34,0.32,4.67,0.66,7,1.03c8.62,1.38,17.2,3.12,25.56,5.64
						c1.59,0.48,3.18,0.99,4.75,1.53c0.89,0.31,1.83,0.78,2.74,0.98c1.86,0.41-4-2.06-2.35-0.99c1.38,0.89,2.94,1.54,4.33,2.42
						c1.63,1.03,3.18,2.17,4.74,3.29c3.51,2.54-2.42-1.99,0.34,0.24c1.21,0.98,2.43,1.95,3.63,2.95
						c23.08,19.13,44.04,40.9,65.42,61.86c23.67,23.19,47.26,46.8,73.07,67.64c9.37,7.57,19.13,15.53,30.13,20.67
						c5.19,2.43,10.53,4.53,16.35,4.67c5.83,0.14,10.79-1.84,16.01-4.13c12.02-5.28,23.15-12.74,33.97-20.11
						c16.49-11.23,32.41-23.33,47.93-35.85c29.45-23.75,58.75-49.42,81.09-80.19c4.76-6.56,1.12-16.72-5.38-20.52
						c-7.58-4.43-15.75-1.19-20.52,5.38c-0.64,0.88-4.59,5.94-1.87,2.56c-1.21,1.51-2.42,3.03-3.65,4.52
						c-2.88,3.46-5.85,6.85-8.89,10.17c-6.54,7.14-13.39,14-20.41,20.67c-14.76,14.03-30.26,27.27-46.2,39.92
						c-1.71,1.36-3.42,2.7-5.14,4.05c-0.32,0.25-3.74,2.89-1.05,0.82c-1.01,0.78-2.03,1.56-3.05,2.33
						c-3.96,3.02-7.95,5.99-11.97,8.93c-7,5.11-14.08,10.09-21.31,14.87c-5.86,3.88-11.81,7.65-17.93,11.11
						c-2.29,1.29-4.6,2.54-6.96,3.7c-0.99,0.48-2.41,0.85-3.27,1.53c3.16-2.48,2.58-0.99,0.28-0.2c-0.78,0.27-1.6,0.43-2.37,0.7
						c-2.63,0.96,2.71-0.09,2.08-0.24c-0.44-0.1-1.66-0.18-2.09-0.08c3.83-0.86,3.75,0.79,1.27-0.01c-0.85-0.27-1.71-0.58-2.57-0.84
						c-3.03-0.91,3.69,1.8,0.81,0.34c-2.07-1.05-4.13-2.08-6.13-3.27c-4.76-2.82-9.23-6.05-13.66-9.35
						c-0.81-0.6-3.29-2.21,0.43,0.35c-0.69-0.47-1.34-1.04-1.99-1.56c-1.25-0.99-2.5-1.99-3.73-3c-2.86-2.33-5.69-4.7-8.49-7.1
						c-25.46-21.84-49.21-45.64-73.15-69.11c-20.62-20.22-40.95-41.35-63.97-58.89c-8.9-6.79-18.37-10.57-29.26-13.36
						c-18.84-4.83-38.45-6.85-57.8-8.4c-20.3-1.62-40.64-2.45-60.97-3.64c-10.05-0.59-20.1-1.26-30.13-2.17
						c-4.62-0.42-9.23-0.89-13.83-1.44c-1.23-0.15-2.45-0.3-3.68-0.45c-3.97-0.49,2.2,0.37-0.25-0.03c-2.56-0.42-5.14-0.75-7.7-1.17
						c-8.44-1.39-16.84-3.14-25.04-5.59c-3.57-1.06-7.01-2.38-10.52-3.63c-3.23-1.15,3.06,1.51,0.03,0.01
						c-0.84-0.42-1.72-0.78-2.56-1.19c-1.65-0.8-3.27-1.65-4.85-2.56c-1.53-0.88-3.02-1.81-4.47-2.81c-0.47-0.32-0.92-0.68-1.4-0.99
						c-2.58-1.68,2.57,2.38,0.37,0.27c-1.6-1.54-3.39-3.82-5.2-5.04c3.49,2.36,2.5,3.62,1.54,1.93c-0.18-0.32-0.4-0.63-0.6-0.94
						c-0.55-0.89-1.03-1.82-1.51-2.75c-0.52-1.03-0.98-2.08-1.47-3.13c-1.48-3.19,0.99,2.49,0.54,1.3
						c-0.27-0.72-0.58-1.42-0.86-2.13c-1.28-3.25-2.44-6.55-3.55-9.86c-2.88-8.59-5.41-17.31-7.8-26.05
						c-6.55-23.96-12.07-48.2-17.19-72.5c-6.4-30.4-12.08-60.95-17.16-91.59c-2.8-16.89-5.42-33.82-7.85-50.77
						c-0.57-4.02-1.14-8.04-1.69-12.06c-0.14-1.05-0.94-6.97-0.36-2.6c-0.34-2.56-0.68-5.13-1.02-7.69
						c-1.1-8.42-2.14-16.84-3.13-25.28c-7.12-60.79-12.71-122.88-8.36-184.09c0.44-6.19,1.01-12.37,1.75-18.53
						c0.16-1.35,1.02-5.82,0.04-0.48c0.26-1.44,0.41-2.91,0.62-4.35c0.42-2.79,0.89-5.58,1.41-8.36c1.74-9.32,4.12-18.47,7.49-27.34
						c0.19-0.5,0.46-0.99,0.61-1.5c0.06-0.21-1.77,3.96-0.89,2.12c0.44-0.93,0.84-1.89,1.29-2.82c0.85-1.77,1.77-3.51,2.78-5.2
						c0.86-1.45,1.84-2.81,2.77-4.22c1.65-2.5-2.93,3.35-0.47,0.63c0.56-0.62,1.1-1.27,1.68-1.88c0.68-0.71,1.41-1.37,2.14-2.04
						c0.42-0.38,0.9-0.7,1.31-1.09c0.39-0.38-3.96,2.81-1.38,1.1c2.09-1.38,4.17-2.73,6.38-3.92c1.17-0.63,2.35-1.22,3.55-1.78
						c0.69-0.32,1.38-0.63,2.07-0.95c3.4-1.57-2.01,0.8-1.05,0.43c3.05-1.18,6.08-2.37,9.18-3.4c7.45-2.48,15.06-4.46,22.72-6.19
						c8.94-2.01,17.96-3.66,27.01-5.09c2.37-0.38,4.74-0.73,7.11-1.08c1.1-0.16,2.21-0.32,3.31-0.47c0.67-0.09,1.34-0.19,2.01-0.28
						c3.8-0.53-3.21,0.41-0.6,0.08c5.39-0.69,10.79-1.36,16.2-1.97c53.26-5.92,106.99-7.64,160.54-8.17
						c64.45-0.63,128.91,0.9,193.29,3.78c66.77,2.98,133.48,7.44,200.05,13.5c31,2.82,61.97,6,92.88,9.64
						c14.74,1.73,29.49,3.47,44.18,5.55c-3.94-0.56-0.33-0.04,1.46,0.2c1.8,0.25,3.6,0.49,5.4,0.74c3.55,0.49,7.11,0.99,10.66,1.5
						c6.62,0.95,13.25,1.93,19.86,2.94c42.37,6.49,85.21,13.59,126.29,26.12c6.93,2.11,13.81,4.42,20.53,7.13
						c0.63,0.25,1.26,0.54,1.89,0.78c-5.66-2.11-2.37-1.02-1.04-0.42c1.36,0.61,2.72,1.22,4.06,1.88c2.29,1.11,4.55,2.3,6.73,3.62
						c0.92,0.56,1.83,1.13,2.71,1.74c0.41,0.28,0.81,0.6,1.23,0.87c2.2,1.46-3.54-3.07-1.49-1.15c0.61,0.57,1.26,1.17,1.91,1.7
						c2.33,1.9-2.36-4.19-0.68-0.84c0.4,0.81,0.82,1.72,1.29,2.48c-2.43-3.97-0.97-2.52-0.12,0.07c0.89,2.7,1.56,5.48,2.12,8.27
						c0.32,1.57,0.6,3.15,0.86,4.74c0.15,0.93,0.29,1.86,0.43,2.79c0.62,3.98-0.46-3.8-0.07-0.55c0.5,4.19,0.94,8.38,1.28,12.58
						c0.83,10.43,1.22,20.9,1.41,31.37c0.49,26.34-0.23,52.71-1.38,79.03c-2.83,65-8.4,129.9-15.5,194.57
						c-1.78,16.19-3.67,32.37-5.69,48.53c-0.98,7.82-1.99,15.63-3.02,23.44c-0.12,0.88-0.6,4.44,0,0.02
						c-0.11,0.83-0.22,1.66-0.34,2.49c-0.25,1.82-0.49,3.63-0.74,5.45c-0.54,3.91-1.09,7.81-1.64,11.71
						c-3.81,26.71-8,53.39-13.12,79.88c-3.62,18.73-7.45,37.64-13.43,55.79c-0.98,2.96-2.23,5.81-3.22,8.76
						c1.99-5.96,0.66-1.55-0.14,0.08c-0.51,1.03-1.07,2.01-1.63,3.01c-0.22,0.4-0.53,0.75-0.74,1.16c-1.06,2.07,3.17-3.05,1.13-1.47
						c-0.53,0.41-1.23,1.06-1.66,1.57c-0.78,0.92-2.88-0.17,2.06-1.59c-0.48,0.14-1,0.73-1.45,0.98c-1.6,0.89-3.2,1.69-4.83,2.52
						c-2.17,1.09,3.89-1.42,1.53-0.66c-0.55,0.18-1.09,0.42-1.64,0.62c-1.16,0.42-2.34,0.82-3.52,1.19
						c-5.34,1.68-10.82,2.89-16.31,3.93c-3.07,0.58-6.14,1.09-9.23,1.55c-1.2,0.18-7.35,1.25-2.31,0.35
						c-1.85,0.33-3.77,0.48-5.64,0.7c-16.55,1.93-33.2,2.97-49.85,3.68c-37.23,1.59-74.54,1.47-111.8,0.8
						c-28.26-0.5-56.51-1.44-84.77-2.41c-8.1-0.28-15,7.09-15,15C1383.9,819.99,1390.77,826.35,1398.9,826.63L1398.9,826.63z"/>
				</g>
			</g>
		</g>
		<g id="Ebene_10_1_">
			<g>
				<g>
					<path class="st3" d="M1047.92,237.76c60.47,60.49,119.78,122.12,178.24,184.55c57.5,61.41,114.18,123.58,170.42,186.15
						c31.26,34.77,62.37,69.67,93.43,104.62c12.2,13.73,37.23,13.37,49.5,0c13.45-14.65,13.01-34.85,0-49.5
						c-55.38-62.32-110.96-124.47-167.15-186.07c-57.1-62.6-114.82-124.63-173.52-185.72c-33.47-34.84-67.26-69.36-101.41-103.52
						c-12.96-12.97-36.71-13.93-49.5,0C1035.09,202.23,1034.09,223.92,1047.92,237.76L1047.92,237.76z"/>
				</g>
			</g>
			<g>
				<g>
					<path class="st3" d="M1079.42,704.75c66.65-66.66,132.43-134.16,197.09-202.76c47.87-50.78,95.21-102.06,143.48-152.46
						c31.98-33.39,64.35-66.41,97.04-99.11c12.96-12.97,13.93-36.71,0-49.5c-13.97-12.82-35.66-13.84-49.5,0
						c-54.38,54.39-107.67,109.83-160.27,165.94c-51.05,54.45-101.93,109.04-153.76,162.74c-40.8,42.27-82.04,84.11-123.58,125.66
						c-12.96,12.96-13.93,36.71,0,49.5C1043.89,717.58,1065.59,718.59,1079.42,704.75L1079.42,704.75z"/>
				</g>
			</g>
		</g>
		<g id="Ebene_9_1_">
			<g class="st4">
				<path d="M765.98,127.14c0,281,312.26,612.99,525.2,782.43c-26.36,7.04-59.46-30.06-117.44-76.2
					c-81.95-65.2-59.06-73.17-104.65-91.42c-37.87-15.16-84.13-11.05-124.91-12.35c-37.58-1.19-84.58-7.83-108.65-26.8
					c-31.75-25.02-88.42-342.47-81.78-537.55"/>
				<g>
					<path d="M755.98,127.14c0.09,58.33,12.98,116.13,32.75,170.79c21.92,60.61,51.91,118.12,86.08,172.67
						c36.25,57.87,77.34,112.69,121.16,165.03c43.23,51.62,89.31,100.85,137.53,147.83c43.24,42.12,88.22,82.51,135.02,120.63
						c5.17,4.21,10.36,8.39,15.58,12.54c1.47-5.57,2.94-11.14,4.41-16.71c-0.71,0.18-1.42,0.32-2.13,0.47
						c2.65-0.55,0.41-0.03-0.23-0.02c-1.24,0.02-2.46,0.04-3.7-0.03c-2.84-0.14,0.92,0.39-1.92-0.31c-1.6-0.39-3.18-0.8-4.75-1.33
						c-0.82-0.28-1.63-0.59-2.44-0.9c1.8,0.71-0.08-0.03-0.52-0.24c-1.59-0.76-3.16-1.53-4.71-2.36c-3.43-1.86-6.74-3.95-9.98-6.14
						c-17.2-11.63-32.69-25.78-48.55-39.12c-31.04-26.11-63.96-50.14-90.15-81.42c-5.22-6.24-10.13-12.87-16.21-18.32
						c-7.61-6.82-16.42-11.55-25.76-15.53c-46.11-19.63-96.58-12.66-145.27-15.64c-22.2-1.36-44.66-4.36-65.8-11.54
						c-8.68-2.95-16.95-6.84-24.38-12.25c-1.1-0.8,0.95,1.18-0.4-0.4c-0.31-0.36-0.67-0.72-1.01-1.05c-1.09-1.07-0.6-1.82,0.34,0.52
						c-0.24-0.6-0.88-1.21-1.25-1.76c-1.82-2.71-3.33-5.63-4.73-8.58c-0.46-0.96-0.9-1.93-1.33-2.9c-0.32-0.73-1.54-3.74-0.34-0.74
						c-0.84-2.1-1.7-4.2-2.5-6.32c-3.98-10.56-7.28-21.39-10.33-32.25c-18.82-67.05-30.02-136.56-39.3-205.48
						c-10.89-80.86-18.4-162.71-17.93-244.37c0.05-8.9,0.22-17.79,0.52-26.69c0.43-12.87-19.57-12.86-20,0
						c-2.71,81.49,4.09,163.42,13.98,244.25c9.08,74.3,20.55,148.9,39.14,221.48c5.57,21.78,11.47,44.22,21.48,64.46
						c3.48,7.03,7.68,12.81,14.06,17.44c17.08,12.42,39.22,17.99,59.7,21.55c23.91,4.16,48.05,5.36,72.28,5.47
						c24.88,0.12,50.2-0.58,74.78,3.99c6.04,1.12,12.03,2.55,17.89,4.38c2.64,0.82,5.25,1.73,7.83,2.72
						c1.09,0.42,2.16,0.86,3.24,1.29c1.89,0.77-1.11-0.51,1.2,0.51c4.8,2.12,9.54,4.4,13.97,7.22c0.81,0.52,1.61,1.05,2.39,1.6
						c1.07,0.75,2.49,1.99,0.6,0.39c1.58,1.35,3.18,2.65,4.67,4.11c2.81,2.73,5.36,5.72,7.86,8.73c7.64,9.19,15.3,18.28,23.72,26.77
						c16.14,16.27,33.97,30.55,51.74,44.96c19.1,15.49,37.46,31.91,56.78,47.14c12.72,10.03,26.58,21.11,42.59,25.25
						c6.65,1.72,13.51,1.93,20.19,0.25c6.74-1.69,10.4-11.95,4.41-16.71c-45.87-36.53-89.98-75.28-132.45-115.71
						c-47.83-45.52-93.63-93.22-136.83-143.16c-44.02-50.86-85.35-104.16-122.32-160.4c-35.04-53.3-66.6-109.43-90.32-168.74
						c-21.31-53.3-36.82-109.75-39.81-166.89c-0.36-6.8-0.53-13.61-0.54-20.42C775.96,114.28,755.96,114.25,755.98,127.14
						L755.98,127.14z"/>
				</g>
			</g>
		</g>
	</g>
</g>
<g id="Ebene_14">
	<g>
		<path class="st5" d="M365.58,1667.49c-68.53,43.2-154.8,111-154.8,192.94c118.69,24.95,248.75,26.77,369.46,21.44
			c181.32-8,362.5-19.68,543.44-35.04c-19.72-48.42-46.28-93.38-78.43-132.75c-18.05-22.11-40.43-43.72-67.3-44.68
			c-27.55-0.98-51.24,19.78-73.87,37.24c-79.64,61.43-177.86,92.58-274.71,87.13c-96.85-5.46-191.73-47.49-265.36-117.56"/>
		<g>
			<path class="st6" d="M365.5,1662.65c-29.73,18.77-58.62,39.25-84.5,63.12c-25.53,23.54-48.81,50.76-62.73,82.88
				c-7.41,17.1-11.61,35.47-11.72,54.13c-0.01,1.51,0.71,2.71,2.21,3.02c112.17,23.46,227.83,26.41,342.01,22.52
				c121.41-4.14,242.81-11.76,364-20.16c69-4.78,137.96-10.11,206.88-15.95c3.44-0.29,7.57-5.25,6.09-8.87
				c-11.85-28.97-26.07-56.96-42.77-83.45c-16-25.38-33.92-51.28-55.99-71.8c-9.83-9.14-20.92-17.19-33.83-21.29
				c-13.19-4.19-27.02-3.33-39.89,1.59c-27.72,10.6-49.4,33.24-73.69,49.59c-50.35,33.9-107.85,56.9-167.85,66.3
				c-58.32,9.14-118.19,4.73-174.7-12.26c-56.42-16.97-109.06-46.35-153.88-84.51c-5.97-5.09-11.8-10.34-17.49-15.73
				c-3.93-3.72-10.49,5.82-7.28,8.87c42.71,40.48,92.99,72.66,148.19,93.24c54.37,20.27,112.66,29.14,170.57,24.72
				c59.4-4.54,117.46-22.19,169.65-50.86c13.55-7.44,26.68-15.62,39.35-24.48c12.21-8.54,23.72-17.98,35.67-26.87
				c11.59-8.62,24.19-16.9,38.43-20.23c13.85-3.23,27.65-0.46,39.96,6.38c25.7,14.27,44.39,40.82,60.96,64.36
				c17.98,25.53,33.64,52.71,46.74,81.05c3.41,7.38,6.63,14.84,9.71,22.37c2.03-2.96,4.06-5.91,6.09-8.87
				c-121.92,10.34-243.99,19.03-366.15,26.04c-117.83,6.76-236.24,14.86-354.3,10c-64.58-2.66-129.13-9.2-192.45-22.45
				c0.74,1.01,1.47,2.01,2.21,3.02c0.39-66.27,56.39-118.1,105.48-154.88c14.6-10.94,29.75-21.14,45.17-30.88
				c2.32-1.46,4.3-4.34,4.15-7.19C369.69,1662.77,367.74,1661.24,365.5,1662.65L365.5,1662.65z"/>
		</g>
	</g>
</g>
<g id="Ebene_27">
	<g>
		<path class="st7" d="M611.35,1460.52c5.4,53.44,4.51,86.36-23.87,114.92s-66.94,40.67-104.36,49.77s-76.14,16.49-109.1,38.17
			c81.74,77.87,189.32,121.51,297.02,120.49s214.59-46.7,295.12-126.12c-32.83-20.47-70.66-28.04-107.32-37.57s-82.99-8.1-111-36.04
			c-28-27.94-34.87-89.19-18.6-126.88c-37.8,9.04-77.82,6.37-114.37-7.65"/>
		<g>
			<path class="st7" d="M607.12,1462.87c2.14,21.37,4.41,43.52,0.95,64.87c-2.85,17.6-10.7,32.95-23.54,45.37
				c-35.68,34.54-86.14,42.92-132.41,54.52c-27.3,6.84-54.41,15.47-78.19,30.92c-2.06,1.34-6.26,6.71-3.56,9.27
				c63.02,59.81,142.74,101.4,228.65,115.86c84.44,14.21,171.55,0.14,248.43-37.09c44.25-21.43,84.8-50.3,119.85-84.74
				c1.83-1.8,5.13-7.11,1.78-9.17c-23.87-14.71-50.68-23.06-77.64-30.08c-12.88-3.35-25.78-6.92-38.78-9.71
				c-10.96-2.35-22.05-3.97-33.09-5.85c-22.63-3.86-46.59-8.8-64.57-24.09c-15.77-13.4-23.79-34.02-27.64-53.85
				c-4.54-23.44-3.79-49.3,5.6-71.49c0.92-2.17,0.69-6.42-2.73-5.62c-37.34,8.74-76.56,6.11-112.43-7.46
				c-4.62-1.75-10.14,8.55-5.87,10.16c37.2,14.06,77.56,16.92,116.31,7.85c-0.91-1.87-1.82-3.75-2.73-5.62
				c-8.65,20.45-10.67,43.7-8.32,65.64c2.25,21.01,8.36,42.91,21.53,59.82c14.51,18.64,36.98,27.14,59.34,32.06
				c11.56,2.55,23.28,4.25,34.95,6.24c12.63,2.15,24.95,5.2,37.37,8.33c32.06,8.07,64.39,16.31,92.82,33.83
				c0.59-3.06,1.19-6.11,1.78-9.17c-60.91,59.84-138.54,102.06-222.63,117.95c-82.59,15.61-168.49,3.74-244.71-31.3
				c-44.13-20.28-84.79-47.94-120.01-81.37c-1.19,3.09-2.37,6.18-3.56,9.27c44.74-29.07,99.23-31.95,148.47-49.41
				c40.93-14.51,81.83-41.23,92.31-85.99c5.69-24.31,3.16-50.11,0.7-74.66C614.89,1451.24,606.67,1458.35,607.12,1462.87
				L607.12,1462.87z"/>
		</g>
	</g>
	<g>
		<g>
			<path class="st7" d="M804.87,1367.51c4.57,0,9.06-10.74,4.04-10.74C804.33,1356.77,799.85,1367.51,804.87,1367.51L804.87,1367.51
				z"/>
		</g>
	</g>
</g>
<g id="Ebene_23">
	<g>
		<g>
			<path d="M605.37,1463.01c0.81,20.42,1.4,41.06-1.27,61.37c-2.47,18.87-7.75,38.14-20.17,53.01
				c-25.22,30.19-69.4,31.65-104.99,39.53c-82.17,18.18-159.8,57.68-213.08,124.2c-28.26,35.28-48.78,76.38-59.25,120.38
				c-0.54,2.27,0.57,4.75,3.16,4.29c2.78-0.49,4.6-3.99,5.18-6.41c19.05-80.03,73.81-147.43,144.71-187.92
				c38.18-21.81,80.17-36.1,123.11-45.09c36.53-7.65,76.89-11,103.51-40.44c30.65-33.9,29.36-84.98,27.67-127.67
				C613.68,1451.22,605.19,1458.45,605.37,1463.01L605.37,1463.01z"/>
		</g>
	</g>
	<g>
		<g>
			<path d="M723.56,1463.15c-1.53,37.08-2.95,80.06,19.68,111.76c22.5,31.52,62.22,37.29,97.63,43.65
				c83.36,14.98,165.07,49.24,222.17,113.72c29.81,33.66,51.9,73.79,62.78,117.49c1.42,5.69,9.21-2.74,8.15-7
				c-19.32-77.56-72.97-142.73-141.27-182.93c-36.89-21.71-77.57-36.44-119.17-46.15c-19.39-4.52-39.12-7.23-58.56-11.49
				c-18.07-3.96-36.18-9.85-50.79-21.61c-35.62-28.66-33.86-80.91-32.16-122.16c0.11-2.62-2.21-3.52-4.31-2.49
				C725.17,1457.21,723.67,1460.47,723.56,1463.15L723.56,1463.15z"/>
		</g>
	</g>
	<g>
		<g>
			<path d="M207.85,1865.51c51.9,21.79,108.77,23.68,164.27,23.29c59.26-0.42,118.5,0.12,177.76,0.32
				c123.75,0.42,247.62-0.99,371.08-10.06c68.91-5.06,137.66-12.52,205.93-23.28c4.33-0.68,7.98-11.5,1.99-10.55
				c-121.95,19.21-245.28,27.75-368.61,31.15c-60.9,1.68-121.84,2.13-182.76,2.05c-59.99-0.08-120-1.31-179.99-0.6
				c-61.68,0.73-125.86,1.83-183.8-22.5C209.18,1853.44,203.58,1863.72,207.85,1865.51L207.85,1865.51z"/>
		</g>
	</g>
	<g>
		<g>
			<path d="M366.89,1673.88c64.72,60.26,146.18,101.91,233.72,116.02c85.79,13.83,174.06-0.81,252.04-38.69
				c45.13-21.92,86.48-51.42,122.25-86.56c1.81-1.78,3.93-4.97,2.95-7.66c-0.9-2.46-3.6-2.24-5.28-0.59
				c-61.75,60.66-140.26,103.68-225.4,120.33c-84.14,16.46-171.84,5.07-249.9-30.01c-45.13-20.28-86.82-48.09-123.03-81.8
				C370.24,1661.2,363.63,1670.85,366.89,1673.88L366.89,1673.88z"/>
		</g>
	</g>
</g>
<g id="Ebene_15">
	<g>
		<path class="st5" d="M696.67,692.99c2.15-1.7,4.29-3.4,6.44-5.1c3.65,9.4,14.58,13.55,23.41,10.61
			c8.84-2.94,15.45-11.5,18.95-20.97s4.33-19.87,4.93-30.09c0.53-9.23,0.87-18.74-1.9-27.46c-2.77-8.72-9.38-16.55-17.67-17.47
			c-8.29-0.92-17.08,7.5-15.5,16.58c1.52-5.72-3.56-11.77-8.93-11.84c-5.37-0.07-10.12,4.47-12.34,9.89
			c-2.22,5.43-2.38,11.6-2.18,17.55c0.66,19.95,4.92,39.74,12.45,57.87"/>
		<g>
			<path class="st5" d="M697.83,697.07c2.15-1.7,4.29-3.4,6.44-5.1c-1.74-0.2-3.48-0.39-5.22-0.59
				c4.58,10.55,16.08,16.02,27.15,12.15c12.11-4.24,20.15-16.46,23.87-28.19c2.29-7.2,3.37-14.61,4.01-22.12
				c0.7-8.19,1.38-16.6,0.69-24.81c-1.01-11.91-5.8-26.38-18.42-30.46c-13.64-4.41-26.74,10.41-25.22,23.49
				c0.79,6.81,7.7,0.19,8.35-3.39c1.46-8.16-4.12-17.5-13.38-16c-10.2,1.65-16.18,12.85-17.76,22.07
				c-1.98,11.52-0.27,24.02,1.59,35.45c2.04,12.53,5.55,24.74,10.35,36.49c2.29,5.61,9.82-2.91,8.15-7
				c-6.3-15.43-10.4-31.7-11.79-48.32c-0.61-7.24-2.12-17.21,1.5-23.86c1.46-2.7,4.3-4.79,7.51-4.15c3.17,0.63,6.19,4.12,5.6,7.4
				c2.78-1.13,5.56-2.26,8.35-3.39c-0.64-5.56,3.64-9.4,9.25-8.86c5.27,0.51,9.56,4.5,12.34,8.73c7.44,11.31,5.62,26.7,4.59,39.5
				c-0.94,11.7-2.82,25.85-12.5,33.81c-8.28,6.81-21.59,4.77-26.06-5.53c-1.08-2.49-3.32-2.09-5.22-0.59
				c-2.15,1.7-4.29,3.4-6.44,5.1C691.55,692.05,691.8,701.85,697.83,697.07L697.83,697.07z"/>
		</g>
	</g>
</g>
<g id="Ebene_24">
	<g>
		<path class="st5" d="M496.72,1610.06c-12.39-4.7-27.5,3.42-31.88,17.11c-4.38,13.69,2.75,30.57,15.03,35.6
			c12.28,5.03,27.57-2.68,32.24-16.25c4.67-13.57-2.08-30.64-14.25-35.99"/>
		<g>
			<path d="M499.65,1604.97c-12.07-4.15-24.76,0.99-32.52,10.81c-8.44,10.68-10.12,25.31-4.34,37.62
				c5.31,11.29,16.48,18.39,29.06,15.62c12.98-2.85,23.02-14.63,25.38-27.46c2.53-13.74-3.35-29.89-16.45-36.13
				c-4.41-2.1-10.12,8.14-5.87,10.16c10.25,4.88,16.44,17.55,13.95,28.71c-2.48,11.11-15.6,17.5-26.07,13.37
				c-10.38-4.1-16.41-16.91-14.78-27.64c1.78-11.68,14.82-18.67,25.76-14.91C498.46,1616.75,503.91,1606.44,499.65,1604.97
				L499.65,1604.97z"/>
		</g>
	</g>
	<g>
		<path class="st5" d="M511.11,1648.37c-3.61,14.11,4.4,30.59,17,34.99s27.67-4.02,31.98-17.88s-2.85-30.82-15.21-35.99
			c-12.36-5.18-27.83,2.3-32.83,15.87"/>
		<g>
			<path d="M507,1649.41c-2.83,12.34,0.89,26.19,10.64,34.56c9.83,8.44,23.51,7.07,33.48-0.38c10.79-8.08,16.13-21.82,13.92-35.06
				c-2-12.01-10.39-23.82-23.05-25.8c-15.02-2.35-28.39,9.09-33.66,22.28c-0.76,1.91-0.94,5.29,1.7,5.72
				c2.65,0.42,4.94-3.02,5.74-5.02c4.34-10.86,18.21-15.78,28.43-10.03c9.84,5.54,15.42,19.32,11.94,30.12
				c-3.5,10.86-17.22,16.48-27.41,11.52c-10.77-5.24-16.12-18.62-13.51-29.99c0.52-2.28-0.56-4.62-3.12-4.23
				C509.39,1643.5,507.54,1647.08,507,1649.41L507,1649.41z"/>
		</g>
	</g>
	<g>
		<path class="st5" d="M559.23,1663.8c-2.83,16.33,6.8,34.28,21.19,38.92c14.38,4.64,31.38-5.05,36.05-20.85s-4.1-35.01-18.44-39.82
			c-14.34-4.81-31.41,6.11-34.55,22.37"/>
		<g>
			<path d="M555.12,1664.84c-2.19,14.49,2.78,30.21,14.9,39.08c11.77,8.62,27.47,5.84,38.07-3.31
				c11.33-9.79,16.31-25.33,12.64-39.86c-3.34-13.18-14.1-25.58-28.61-25.2c-16.48,0.44-29.39,14.55-32.75,29.91
				c-0.5,2.28,0.54,4.62,3.12,4.23c2.7-0.4,4.6-3.99,5.11-6.32c2.8-12.79,17.69-20.9,29.84-15.31
				c11.82,5.43,18.64,21.06,15.28,33.53c-3.4,12.62-18.38,20.09-30.59,15.61c-13.35-4.9-20.84-20.9-18.79-34.45
				C564.5,1655.15,555.88,1659.83,555.12,1664.84L555.12,1664.84z"/>
		</g>
	</g>
	<g>
		<path class="st5" d="M618,1679.39c0.91,16.45,15.13,30.55,29.95,29.69s27.65-16.51,27.01-32.98
			c-0.64-16.47-14.62-30.85-29.46-30.29s-27.92,15.95-27.55,32.43"/>
		<g>
			<path d="M613.77,1681.74c1.09,13.81,9.55,27.13,23.2,31.45c14.2,4.49,27.78-4.09,35.4-15.79c8.07-12.39,9.26-28.41,1.49-41.22
				c-7.03-11.6-21.01-18.92-34.37-14.26c-15.77,5.51-25.74,22.43-25.77,38.67c0,2.6,2.15,3.55,4.31,2.49
				c2.46-1.2,4.15-4.53,4.15-7.19c0.02-12.88,10.13-25.73,23.91-24.66c13.39,1.04,24.08,14.22,24.64,27.22
				c0.55,12.86-9.77,26.05-23.37,25.26c-13.56-0.78-24.11-13.68-25.13-26.67C621.68,1670.11,613.41,1677.23,613.77,1681.74
				L613.77,1681.74z"/>
		</g>
	</g>
	<g>
		<path class="st5" d="M675.21,1677c0.71-18.4,15.97-34.61,32.56-34.58c16.59,0.03,31.81,16.29,32.46,34.7s-13.35,35.95-29.89,37.44
			s-32.91-13.33-34.93-31.61"/>
		<g>
			<path d="M679.44,1674.65c0.87-14.68,13.56-28.31,28.92-26.73c14.94,1.54,26.76,16.29,27.6,30.81
				c0.84,14.45-9.67,29.75-24.94,30.53c-15.84,0.81-29.4-13.72-31.37-28.68c-0.91-6.92-9.06,0.18-8.46,4.7
				c2.05,15.51,12.21,29.77,27.87,33.81c15.49,4,30.16-5.86,38.16-18.57c8.67-13.76,9.79-31.28,1.4-45.43
				c-7.71-13-23.17-21.47-38.18-16.62c-17.32,5.6-28.41,23.25-29.46,40.86c-0.16,2.63,2.25,3.5,4.31,2.49
				C677.87,1680.58,679.28,1677.35,679.44,1674.65L679.44,1674.65z"/>
		</g>
	</g>
	<g>
		<path class="st5" d="M740.82,1670.37c1.94,17.11,17.94,30.62,33.3,28.08c15.36-2.54,27.14-20.67,24.42-37.65
			c-2.72-16.98-19.44-29.5-34.63-25.9c-15.19,3.6-25.85,22.64-22.01,39.35"/>
		<g>
			<path d="M736.59,1672.72c1.98,14.49,11.77,27.68,26.59,30.85c14.96,3.2,28.62-7.68,35.05-20.39c7.08-14,6.81-31.44-4.2-43.41
				c-9.74-10.59-25.12-14.38-37.73-6.47c-14.52,9.11-21.89,27.86-18.47,44.45c0.57,2.75,3.71,1.81,5.22,0.59
				c2.13-1.72,3.48-4.88,2.92-7.59c-2.64-12.8,4.26-28.49,18.21-30.84c14.01-2.35,27.4,9.78,30.02,22.98
				c2.66,13.36-6.07,29.43-20.63,30.46c-14.17,1-26.69-11.93-28.53-25.34C744.11,1661.1,735.97,1668.2,736.59,1672.72
				L736.59,1672.72z"/>
		</g>
	</g>
	<g>
		<path class="st5" d="M798.16,1652.72c-11.73-13.37-11.52-37.35,0.45-50.45c11.97-13.11,33.57-13.01,45.45,0.2
			c11.88,13.21,11.92,37.19,0.09,50.46c-11.83,13.26-33.43,13.45-45.44,0.4"/>
		<g>
			<path d="M801.8,1648.28c-7.72-9.19-10.17-22.42-6.34-33.82c3.89-11.6,15.27-17.7,27.2-16.41c12.73,1.38,22.1,10.86,25.06,23.04
				c2.63,10.79,0.72,24.32-8.64,31.41c-11,8.33-27.39,6.07-36.72-3.62c-3.73-3.87-10.39,5.64-7.28,8.87
				c10.94,11.35,28.24,13.88,41.96,5.89c14.07-8.19,21.12-25.18,20.1-41.03c-1.01-15.82-9.92-30.35-25.88-34.46
				c-15.87-4.09-31.97,4.29-39.86,18.17c-8.77,15.43-8.54,36.94,3.14,50.83C797.93,1661.21,804.72,1651.76,801.8,1648.28
				L801.8,1648.28z"/>
		</g>
	</g>
	<g>
		<path class="st5" d="M716.46,617.24c-9.75-28.66-38.17-47.96-65.59-44.53s-51.27,29.27-55.02,59.62
			c-42.05-27.63-95.98-31.7-141.01-10.65c-14.72,6.88-28.9,16.7-37.84,31.39s-11.66,34.96-3.6,50.27
			c-31.7-21.88-75.02-20.81-105.82,2.61c-30.8,23.42-47.34,67.88-40.42,108.61c-37.08-9.24-78.34,7.04-101.85,40.18
			S137.22,936.24,154,974.1c-35.16,13.73-59.17,56.37-54.89,97.48c4.28,41.11,36.42,76.54,73.47,81
			c-23.32,14.12-33.85,48.13-26.31,76.41s30.76,49.61,56.6,56.42s53.62,0.29,76.84-14.02c-19.54,24.37-19.01,65.39,1.15,89.13
			s57.02,26.73,80.07,6.51c-17.78,22.51-16.3,60.56,3.17,81.28c19.47,20.72,53.77,20.76,73.28,0.08
			c3.31,25.62,21.54,48.08,44.15,54.38c22.61,6.3,48.23-3.92,62.05-24.77c2.75,27.85,32.38,38.05,54.46,24.49"/>
		<g>
			<path d="M720.53,613.74c-8.04-22.81-27.33-41.43-51.5-45.89c-23.63-4.36-46.58,7.94-60.81,26.38
				c-8.78,11.38-14.57,24.88-16.49,39.14c2.35-2.04,4.7-4.08,7.05-6.13c-29.6-19.2-65.24-27.42-100.26-23.08
				c-32.57,4.04-69.81,19.5-86.09,49.8c-8.84,16.46-11.21,36.78-2.67,53.82c2.19-3.17,4.38-6.34,6.57-9.52
				c-27.4-18.55-63.12-20.86-92.97-6.77c-29.09,13.73-48.81,42.2-57.29,72.61c-4.91,17.6-5.93,35.94-2.99,53.97
				c2.03-2.96,4.06-5.91,6.09-8.87c-30.95-7.44-63.86,2.27-87.84,22.71c-26.02,22.18-39.88,55.57-41.46,89.33
				c-0.9,19.23,2.37,38.7,10.05,56.36c1.69-2.93,3.38-5.85,5.07-8.78c-31.03,12.48-52.07,42.75-58.55,74.97
				c-6.64,33.04,3.83,68.12,28.35,91.46c12.65,12.04,28.34,20.42,45.76,22.7c0.65-3.4,1.29-6.81,1.94-10.21
				c-27.83,17.39-38.72,55.49-29.9,86.2c9.48,33,39.93,57.24,74.1,59.38c22.24,1.39,44.21-5.64,63.08-17.09
				c-0.75-2.63-1.49-5.26-2.24-7.89c-16.35,20.91-20.77,50.47-12.08,75.49c8.52,24.52,30.6,41.95,56.98,41.98
				c14.63,0.02,28.53-5.22,39.64-14.7c-1.1-2.38-2.21-4.76-3.31-7.13c-14.96,19.46-18.69,46.97-9.83,69.87
				c8.78,22.71,30.33,37.31,54.9,35.15c13.88-1.22,26.06-7.64,35.7-17.56c-2.08,0.15-4.16,0.3-6.23,0.45
				c3.55,25.25,21.01,49.26,46.2,56.25c26.1,7.24,52.55-6.99,67.12-28.38c-2.43,0.2-4.85,0.39-7.28,0.59
				c1.54,13.29,8.53,25.24,21.28,30.5c12.34,5.1,26.16,3.2,37.49-3.52c2.34-1.39,4.29-4.39,4.15-7.19
				c-0.12-2.43-2.06-3.83-4.31-2.49c-19.92,11.81-47.3,2.62-50.15-22c-0.62-5.32-5.44-2.11-7.28,0.59
				c-12.81,18.82-38.29,28.05-59.94,20.2c-21.71-7.88-36.01-29.25-39.14-51.55c-0.54-3.88-5.05-0.77-6.23,0.45
				c-18.66,19.22-52.28,16.64-69.22-3.43c-16.21-19.19-18.46-51.6-2.9-71.84c1.33-1.73,2.92-4.84,1.7-7.02
				c-1.16-2.06-3.41-1.48-5.01-0.12c-22.35,19.09-57.86,14.71-76.14-7.9c-17.77-21.97-19.39-58.08-1.77-80.61
				c1.78-2.28,3.27-11.23-2.24-7.89c-28.7,17.41-65.28,23.02-94.94,4.61c-25.53-15.85-40.82-45.74-35.5-75.75
				c2.67-15.06,10.22-29.72,23.48-38c2.21-1.38,7.25-9.51,1.94-10.21c-28.61-3.74-52.5-25.2-63.93-51.08
				c-12.24-27.72-9.6-59.86,6.36-85.54c8.49-13.66,20.95-25.18,35.97-31.21c2.82-1.13,6.53-5.41,5.07-8.78
				c-12.28-28.22-13.2-61.13-2.43-90c10.49-28.11,33.12-50.37,61.98-59.16c15.49-4.72,31.77-5.29,47.52-1.5
				c4.04,0.97,6.57-5.96,6.09-8.87c-4.56-28.02,1.99-58.4,18.65-81.53c17.01-23.62,44.33-37.44,73.54-36.48
				c16.91,0.56,33.05,5.9,47.04,15.37c4.27,2.89,8.08-6.51,6.57-9.52c-6.82-13.6-4.97-30.54,2.62-43.42
				c7.65-12.98,20.55-21.9,33.88-28.31c27.83-13.38,59.93-16.66,90.05-10.33c17.6,3.7,34.24,10.79,49.32,20.57
				c3.14,2.04,6.73-3.76,7.05-6.13c3.51-26.09,23.42-50.65,50.75-53.39c27.54-2.76,52.83,17.76,61.68,42.84
				C714.38,626.4,722,617.91,720.53,613.74L720.53,613.74z"/>
		</g>
	</g>
	<g>
		<path class="st5" d="M732.92,1504.45c26.67,22.78,70.48,13.71,87.97-18.21c19.39,7.13,42.08,1.74,57.15-13.57
			c15.06-15.31,21.89-39.94,17.2-62.01c22.92,15.18,56.03,6.66,70.61-18.17c14.58-24.83,8.23-61.9-13.53-79.06
			c27.62,9.81,60.17,10.85,83.33-8.52c23.16-19.38,29.02-63.81,5.75-83.02c26.9,1.68,55.85,2.8,78.49-13.41
			c22.65-16.2,32.41-56.99,11.52-75.87c22.91-10.59,39.02-37.21,39.21-64.76s-15.58-54.43-38.35-65.39
			c7.82-28.85,14.7-60.51,4.54-88.44c-10.16-27.94-44.99-45.91-65.53-26.21c19.96-21.49,18.94-62.11-2.07-82.32
			c-21.01-20.21-57.38-15.55-73.69,9.45c23.9-25.04,13.81-74.68-14.7-92.81c-28.52-18.13-66.53-8.47-91.38,15.41
			c9.88-32.87-1.09-72.09-26-92.97c-24.91-20.87-61.89-21.83-87.65-2.28c10.28-16.99,3.35-43.51-13.53-51.75
			s-39.16,4.01-43.49,23.91"/>
		<g>
			<path d="M729.99,1509.53c30.23,25.19,75.69,10.92,93.95-21.53c-1.99,1.11-3.99,2.21-5.98,3.32c22.6,7.94,47.11,0.71,63.25-16.66
				c16.52-17.77,22.81-43.96,18.1-67.5c-2.34,2.86-4.67,5.72-7.01,8.58c20.05,12.85,46.45,8.91,64.05-6.37
				c18.99-16.5,25.27-43.46,19.47-67.43c-3.17-13.1-10.06-25.06-20.57-33.59c-1.96,3.39-3.91,6.78-5.87,10.16
				c26.61,9.27,57.75,11.23,81.98-5.43c19.99-13.75,30.98-39.27,28.84-63.33c-1.13-12.75-6.02-24.54-15.87-32.95
				c-1.65,3.48-3.3,6.97-4.95,10.45c26.46,1.64,55.44,2.71,78.54-12.53c18.09-11.93,29.16-33.93,29.24-55.51
				c0.04-11.49-3.58-23.05-12.1-31.04c-1.19,3.09-2.37,6.18-3.56,9.27c26.05-12.45,42.21-41.33,43.3-69.65
				c1.08-28.15-13.93-57.66-39.59-70.42c0.39,1.35,0.79,2.69,1.18,4.04c8.62-31.96,18.29-73.13-1.64-103.03
				c-13.91-20.86-43.86-33.81-64.62-14.66c1.1,2.38,2.21,4.76,3.31,7.13c17.05-18.87,21.09-48.78,11.22-72.01
				c-9.88-23.25-33.78-35.85-58.57-29.85c-14.07,3.4-25.62,12.28-33.62,24.18c-3.26,4.85,0.74,9.62,5.21,4.81
				c18.62-20.05,19.2-51.25,7.97-75.07c-5.66-11.99-14.52-22.29-26.37-28.45c-13.47-7.01-28.99-8.52-43.81-5.8
				c-17.73,3.26-34.14,12.46-47.17,24.78c1.62,1.48,3.25,2.95,4.87,4.43c7.54-25.94,4.43-54.45-9.38-77.8
				c-13.92-23.54-39.37-38.37-66.94-37.12c-15.45,0.7-29.82,6.07-42.21,15.25c1.4,1.95,2.8,3.9,4.2,5.85
				c10.57-18.32,7.23-47.82-13.12-58.32c-22.12-11.42-45.99,8.58-51.06,29.77c-0.55,2.28,0.57,4.61,3.12,4.23
				c2.74-0.41,4.55-3.99,5.11-6.32c3.95-16.47,24.48-25.54,39-16.34c13.44,8.51,18.82,29.68,10.86,43.47
				c-2.2,3.82-0.65,9.45,4.2,5.85c25.74-19.09,63.44-16.17,86.49,5.89c21.98,21.03,30.75,55.83,22.29,84.92
				c-1.02,3.52,1.02,8.07,4.87,4.43c19.73-18.64,49.62-29.84,76.2-19.93c23.07,8.61,36.81,31.9,37.82,55.96
				c0.53,12.55-2.56,24.89-11.25,34.24c1.74,1.6,3.47,3.21,5.21,4.81c15-22.31,49.91-24.56,68.34-5.42
				c18.22,18.93,20.03,53.77,2.22,73.49c-3,3.32-1.92,11.96,3.31,7.13c18.53-17.09,45.77-0.24,56.45,17.59
				c16.67,27.83,7.11,64.98-0.72,94.02c-0.33,1.24-0.15,3.38,1.18,4.04c22.35,11.11,36.4,35.67,37.03,60.36
				c0.62,24.56-12.56,49.13-35.03,59.86c-2.26,1.08-6.1,6.88-3.56,9.27c17.14,16.08,12.36,44.7-1.98,61.02
				c-19.7,22.41-55.53,20.12-82.37,18.46c-4.27-0.26-8.44,7.47-4.95,10.45c19.09,16.31,16.63,49.08,2.13,67.52
				c-19.9,25.3-57.98,23.39-85.34,13.86c-4.57-1.59-9.72,7.04-5.87,10.16c19.72,16,26.45,48.71,14.07,71.06
				c-12.61,22.77-43.63,29.88-65.28,16c-4.08-2.61-7.57,5.75-7.01,8.58c3.78,18.87-0.76,40.23-14.27,54.4
				c-13.41,14.06-34.79,19.01-53.06,12.59c-2.52-0.89-4.81,1.23-5.98,3.32c-16.21,28.82-56.69,35.96-81.98,14.89
				C732.39,1496.47,726.18,1506.35,729.99,1509.53L729.99,1509.53z"/>
		</g>
	</g>
</g>
<g id="Ebene_3">
	<g>
		<path class="st7" d="M337.07,957.28c-37.98-14.26-84.06-0.22-108.72,33.13s-25.99,83.42-3.14,118.14
			c22.85,34.72,68.11,51.4,106.8,39.36c23.45,64.55,53.16,127.39,95.32,180.59c42.16,53.21,97.6,96.51,161.31,115.16
			c88.85,26.02,215.94-2.21,270.7-45.11c94.67-74.16,130.43-250.06,130.43-250.06s86.65,1.98,110.5-31.91
			c23.85-33.88,22.21-102.59-5.12-133.48c-19.86-22.44-65.22-28.96-113.2-23.52c-16.97-41.38-22.71-74.8-24.89-115.37
			c-101.37,11.5-205.63-68.04-229.92-171.38C601.56,849.73,390.39,832.32,390.39,832.32s-3.19,106.74-50.78,126.3"/>
		<g>
			<path class="st7" d="M340.1,952.03c-48.63-17.79-103.53,7.7-125.04,53.9c-21.95,47.14-9.01,107.77,36.17,136.03
				c23.56,14.74,53.04,19.45,79.75,11.38c-1.06-0.61-2.12-1.22-3.18-1.83c28.93,79.42,67.5,157.94,128.35,217.95
				c27.9,27.52,60.02,51.04,95.89,67.06c33.53,14.97,69.2,22.05,105.84,22.63c36.63,0.58,73.52-4.3,108.9-13.73
				c30.27-8.07,60.84-19.44,86.69-37.46c24.74-17.25,44.65-40.88,61.43-65.71c17.13-25.36,31.01-52.87,42.86-81.04
				c9.87-23.45,18.29-47.52,25.45-71.94c3.83-13.09,8.09-26.52,10.41-40c0.11-0.62,0.27-1.23,0.39-1.84
				c-2.11,2.21-4.22,4.41-6.33,6.62c14.38,0.31,28.93-0.82,43.17-2.74c22.4-3.02,48.2-8.41,65.26-24.39
				c20.14-18.86,25.61-51.58,25.21-77.87c-0.4-26.59-7.06-58.44-28.49-76.32c-12.82-10.69-29.99-15.56-46.18-18.14
				c-21.05-3.36-42.56-2.75-63.68-0.42c1.06,0.61,2.12,1.22,3.18,1.83c-14.98-36.77-22.55-74.61-24.73-114.18
				c-0.12-2.14-1.24-3.25-3.34-3.02c-80.19,8.77-158.6-39.29-200.14-106.01c-12.22-19.63-21.23-41.04-26.6-63.53
				c-0.85-3.56-5.12-1.37-6.43,0.47c-41.76,58.57-99.67,103.31-166.77,129.2c-44.13,17.03-91.48,26.7-138.78,28.18
				c-8.93,0.28-17.97,0.44-26.89-0.29c-3.81-0.31-6.35,4.83-6.45,7.96c-0.36,11.57-1.72,22.83-3.54,34.36
				c-3.39,21.48-8.51,43.84-19.72,62.71c-5.59,9.41-13.02,17.49-23.24,21.82c-4.31,1.83-6.47,12.79,0.17,9.98
				c21.74-9.21,33.85-33.03,41.08-54.18c7.11-20.81,10.93-42.72,12.95-64.58c0.46-4.97,0.89-9.96,1.04-14.96
				c-2.15,2.65-4.3,5.31-6.45,7.96c26.55,2.17,54.09-0.68,80.28-4.78c59.65-9.36,117.8-30.94,167.65-65.25
				c36.19-24.91,67.63-56.07,93.13-91.84c-2.14,0.16-4.29,0.31-6.43,0.47c19.21,80.44,85.6,147.94,165.75,168.43
				c22.02,5.63,44.75,7.25,67.34,4.78c-1.11-1.01-2.23-2.01-3.34-3.02c2.22,40.33,9.78,79.06,25.05,116.55
				c0.64,1.57,1.52,2.02,3.18,1.83c31.22-3.45,68.1-4.05,96.4,11.73c23.21,12.94,32.31,40.45,34.65,65.53
				c1.3,13.91,0.7,28.02-2.2,41.7c-2.38,11.2-6.33,23.43-13.93,32.26c-13.42,15.61-38.42,20.37-57.69,23.38
				c-15.23,2.38-30.87,3.65-46.31,3.32c-3.33-0.07-5.75,3.77-6.33,6.62c-6.2,30.43-15.91,60.44-26.87,89.44
				c-20.29,53.65-47.71,108.92-91.23,147.58c-22.19,19.71-49.39,32.35-77.37,41.61c-33.46,11.08-68.65,17.63-103.85,19.42
				c-35.39,1.8-71.46-1.11-105.16-12.58c-35.94-12.22-68.9-32.26-97.76-56.77c-63.26-53.71-105.2-127.95-135.68-204.1
				c-3.96-9.9-7.74-19.88-11.39-29.9c-0.5-1.37-1.64-2.3-3.18-1.83c-44.68,13.5-95.3-11.31-112.5-54.63
				c-8.68-21.87-9.77-47-2.46-69.42c7.16-21.97,22.24-39.79,42.73-50.48c22.37-11.67,49.44-14.11,73.24-5.41
				C338.83,964.27,344.5,953.64,340.1,952.03L340.1,952.03z"/>
		</g>
	</g>
</g>
<g id="Ebene_9">
	<g>
		<path class="st8" d="M719.07,1244.83c-6.05-12.97-26.92-11.83-33.79,0.68s-0.31,29.85,11.73,36.92
			c12.05,7.07,27.49,5.27,39.76-1.37c10.26-5.55,19.23-14.88,21.86-26.62c2.63-11.74-2.61-25.68-13.36-30.13
			s-25.13,4.28-24.72,16.33"/>
		<g>
			<path class="st8" d="M722.83,1240.26c-7.8-15.25-29.45-11.65-38.54,0.18c-11.35,14.77-6.09,37.87,9.7,47.24
				c17.98,10.66,41.92,2.59,55.76-11.21c13.03-12.99,20.3-36.28,6.49-51.56c-14.74-16.3-39.89-1.82-40.04,18.16
				c-0.02,2.68,2.22,3.66,4.45,2.57c2.55-1.25,4.26-4.67,4.28-7.41c0.04-5.4,5.08-8.53,9.99-9.34c5.95-0.98,11.48,2,15.04,6.67
				c8.51,11.15,5.2,25.62-4.73,34.54c-10.78,9.69-27.81,14.79-41.62,8.89c-10.7-4.58-20.7-18.76-15.62-30.71
				c4.78-11.24,22.56-8.21,27.33,1.13C717.6,1253.88,724.99,1244.48,722.83,1240.26L722.83,1240.26z"/>
		</g>
	</g>
</g>
<g id="Ebene_2">
	<g>
		<g>
			<path d="M346.13,952.36c-47.57-21.57-105.54-0.02-129.98,45.5c-24.97,46.51-16.09,108.14,27.58,140.12
				c22.93,16.79,52.63,23.66,80.44,17.29c4.4-1.01,8.06-12.26,2.05-10.89c-46.69,10.69-96.32-18.94-110.55-64.34
				c-7.06-22.54-6.2-47.49,2.55-69.45c8.64-21.68,25.44-38.58,46.79-47.87c23.69-10.31,51.49-10.57,75.07,0.12
				C344.68,964.93,350.53,954.36,346.13,952.36L346.13,952.36z"/>
		</g>
	</g>
	<g>
		<g>
			<path d="M979.82,965.16c25.78-2.91,53.01-6.01,78.19,2.17c21.13,6.87,38.94,21.21,46.88,42.35c8.11,21.61,8.95,47.85,5.46,70.51
				c-3.49,22.62-14.32,41.38-34.77,52.51c-25.53,13.89-55.55,12.94-83.72,12.03c-4.71-0.15-9.41,10.91-4.17,11.08
				c27.85,0.91,56.59,1.47,82.49-10.35c22.59-10.31,38.67-29.36,45.52-53.18c6.97-24.25,6.79-52.35,1.37-76.91
				c-5.39-24.41-20.09-44.02-42.94-54.57c-29.02-13.4-61.47-9.99-92.25-6.52C977.38,954.78,973.56,965.86,979.82,965.16
				L979.82,965.16z"/>
		</g>
	</g>
	<g>
		<g>
			<path d="M320.99,1153.43c19.43,63.1,50.25,123.2,91.61,174.76c40.01,49.86,90.87,92.43,150.78,115.97
				c57.94,22.77,122.73,28.36,183.51,14.46c62.62-14.32,116.63-49.92,156.28-100.23c42.34-53.74,67.71-118.85,84.81-184.53
				c2.13-8.2,4.13-16.43,6.03-24.68c0.53-2.3-0.57-4.83-3.22-4.37c-2.81,0.5-4.7,4.06-5.27,6.52
				c-14.77,64.32-36.46,128.65-74.05,183.46c-18.05,26.32-39.96,50.29-65.68,69.28c-24.33,17.96-52.1,31.19-81.11,39.59
				c-58.41,16.92-122.15,14.78-179.76-4.38c-59.35-19.74-110.66-57.9-151.68-104.61c-42.51-48.4-74.95-105.67-96.5-166.29
				c-2.61-7.34-5.04-14.74-7.34-22.18C327.59,1140.34,319.65,1149.08,320.99,1153.43L320.99,1153.43z"/>
		</g>
	</g>
	<g>
		<g>
			<path d="M345.34,960.75c14.86-15.47,23.26-37.28,30.19-57.19c6.79-19.52,12.12-39.58,16.54-59.77c0.91-4.17,1.8-8.35,2.57-12.54
				c-2.11,2.21-4.22,4.41-6.33,6.62c26.63,1.61,54.14-1.74,80.28-6.31c59.78-10.45,117.82-32.9,167.68-67.71
				c35.82-25,67.05-56.01,92.5-91.49c-2.14,0.16-4.29,0.31-6.43,0.47c27.35,76.83,90.93,139.63,168.57,165.06
				c21.52,7.05,43.85,11.2,66.49,11.99c-0.76-1.04-1.52-2.08-2.28-3.12c2.41,39.47,8.72,79.29,22.61,116.45
				c2.18,5.83,10-2.95,8.4-7.22c-13.63-36.44-19.92-75.37-22.29-114.08c-0.08-1.33-0.64-3.06-2.28-3.12
				c-79.71-2.79-154.26-47.5-199.48-112.38c-13.1-18.8-23.67-39.22-31.35-60.81c-1.18-3.3-4.91-1.66-6.43,0.47
				c-41.9,58.41-99.68,103.28-166.4,129.97c-44.02,17.6-91.31,28.12-138.68,30.52c-8.88,0.45-17.88,0.78-26.77,0.25
				c-3.27-0.2-5.82,3.87-6.33,6.62c-5.87,31.99-14.48,64.66-28.15,94.21c-4.45,9.62-9.73,19.15-17.12,26.84
				C336.52,959,339.78,966.53,345.34,960.75L345.34,960.75z"/>
		</g>
	</g>
	<g>
		<g>
			<path d="M639.06,1263.97c56.96,9.85,116.59-9.39,158.4-48.99c1.88-1.78,4.01-5.1,3.01-7.82c-0.93-2.54-3.65-2.25-5.39-0.6
				c-40.22,38.09-97.18,55.8-151.86,46.35C638.64,1252.1,633.65,1263.04,639.06,1263.97L639.06,1263.97z"/>
		</g>
	</g>
	<g>
		<g>
			<path d="M650.02,1055.89c7.84-6.59,19.35-7.7,28.65-3.61c9.34,4.1,15.33,13.01,16.48,23.06c1.11,9.74-2.28,19.31-11.12,24.24
				c-9.05,5.05-20.23,4.46-28.89-1.04c-4.13-2.62-10.3,7.79-6.05,10.49c11.4,7.24,26.25,6.48,37.42-0.88
				c11.52-7.58,17.91-21.19,17.56-34.86c-0.34-13.07-7.01-26.06-19.34-31.5c-12.47-5.5-26.76-3.01-37.09,5.67
				c-1.95,1.64-3.97,5.2-3.01,7.82C645.59,1057.93,648.22,1057.41,650.02,1055.89L650.02,1055.89z"/>
		</g>
	</g>
	<g>
		<path d="M594.91,957.95c-1.67-7.89,0.25-16.06,1.71-24.01c1.46-7.94,2.36-16.55-1.09-23.78c-3.45-7.24-12.88-11.85-19.28-7.28
			c-6.77,4.83-5.8,15.21-6.32,23.75c-0.42,6.79-2.25,13.4-3.23,20.13c-0.98,6.73-1.03,13.92,1.92,19.99
			c2.94,6.07,9.57,10.6,15.93,9.11c6.37-1.49,10.45-10.46,6.35-15.75"/>
		<g>
			<path d="M599.12,954.34c-2.87-16.21,8.28-32.98,0.17-48.75c-5.95-11.58-20.78-13.31-28.39-2.52c-3.79,5.38-4.71,11.86-5.03,18.28
				c-0.41,8.11-1.59,15.74-2.97,23.74c-2.21,12.82-1.9,31.63,13.49,36.01c13.29,3.79,25.73-14.25,18.27-25.57
				c-2.9-4.4-10.12,5.19-7.51,9.15c3.75,5.69-3.65,6.69-7.59,4.89c-5.81-2.65-8.55-8.95-9.01-14.99c-0.56-7.34,1.5-14.51,2.71-21.67
				c1-5.94,0.95-11.83,1.41-17.81c0.39-5.11,1.51-9.69,7.8-8.22c6.09,1.42,9.7,6.99,10.7,12.81c1.2,6.98-0.61,14.03-1.83,20.87
				c-1.26,7.05-1.89,13.91-0.63,21.01c0.51,2.87,3.87,1.83,5.39,0.6C598.35,960.35,599.62,957.17,599.12,954.34L599.12,954.34z"/>
		</g>
	</g>
	<g>
		<path d="M747,944.77c3.38-7.73,6.85-15.94,5.92-24.38c-0.93-8.44-8.12-16.74-16.14-15.29c-8.71,1.58-12.35,12.45-13.49,21.6
			c-1.22,9.79-1.53,19.71-0.92,29.57c0.44,7.05,2.35,15.45,8.76,17.73c5.64,2,11.89-2.34,14.4-7.98c2.51-5.63,2.25-12.13,1.94-18.33
			"/>
		<g>
			<path d="M750.84,945.13c5.24-12.02,11.1-28.17,1.37-39.64c-8.51-10.04-20.85-5.95-27.18,4.08c-7.4,11.73-7.47,27.85-7.31,41.23
				c0.12,9.86,0.56,29.25,14.62,29.2c6.69-0.03,12.56-5.39,15.7-10.89c4.14-7.27,4.19-15.74,3.81-23.85
				c-0.34-7.14-8.95,0.2-8.73,4.85c0.23,4.89,1.37,12.38-2.09,16.4c-3.87,4.5-9.64,2.03-11.96-2.51c-2.34-4.57-2.4-10.07-2.55-15.08
				c-0.22-7.11,0-14.26,0.79-21.33c0.79-7.09,3.42-21.86,13.99-15.8c12.31,7.06,6.18,22.72,1.86,32.63
				c-0.85,1.95-0.92,5.47,1.76,5.9C747.7,950.76,749.95,947.18,750.84,945.13L750.84,945.13z"/>
		</g>
	</g>
	<g>
		<g>
			<path d="M725.06,868.96c23.41-0.76,45.71,9.82,60.32,28.06c3.39,4.24,10.45-5.48,7.51-9.15c-15.37-19.19-38.95-30.79-63.66-29.99
				C724.51,858.04,719.96,869.13,725.06,868.96L725.06,868.96z"/>
		</g>
	</g>
	<g>
		<g>
			<path d="M536.63,894.8c14.43-17.19,37.3-25.17,59.32-21.35c4.58,0.8,9.57-10.14,4.17-11.08c-25.62-4.45-51.43,6.45-67.95,26.13
				c-1.47,1.75-3.25,5.59-1.53,7.72C532.42,898.42,535.29,896.39,536.63,894.8L536.63,894.8z"/>
		</g>
	</g>
	<g>
		<g>
			<path d="M1010.03,994.56c32.24,5.06,57.84,34.33,60.64,66.53c0.62,7.15,9.13-0.19,8.73-4.85c-3.06-35.22-29.6-67.17-65.2-72.76
				C1009.59,982.76,1004.63,993.71,1010.03,994.56L1010.03,994.56z"/>
		</g>
	</g>
	<g>
		<g>
			<path d="M304.43,973.26c-40.23,5.55-69.58,48.31-65.51,87.69c0.74,7.15,9.21-0.18,8.73-4.85c-3.49-33.78,20.52-67.25,54.73-71.96
				C306.85,983.53,310.64,972.4,304.43,973.26L304.43,973.26z"/>
		</g>
	</g>
</g>
<g id="Ebene_8">
	<ellipse class="st9" cx="587.34" cy="917.1" rx="5.33" ry="5.57"/>
	<ellipse class="st9" cx="742.71" cy="921.89" rx="5.14" ry="5.36"/>
</g>
<g id="Ebene_10">
	<g class="st10">
		<path class="st8" d="M549.06,1229.03c-1.16-19.39-17.52-36.03-36-38.45c-18.48-2.41-37.45,8.44-46.98,25.14s-9.95,38.2-2.75,56.13
			c7.98,19.9,25.64,35.78,46.08,39.05c20.44,3.27,42.77-7.26,52.31-26.41c9.54-19.14,4.1-45.56-13.13-57.47"/>
		<g>
			<path class="st8" d="M553.43,1226.6c-2.03-25.56-25.29-45.3-50.98-41.3c-28.61,4.45-46.88,32.26-48.33,59.63
				c-1.43,27,13.1,54.83,37.89,66.67c23.32,11.13,51.88,3.79,67.47-16.79c16.45-21.71,15.34-56.37-7.87-73.05
				c-3.9-2.8-10.18,7.52-6.05,10.49c15.87,11.4,21.55,35.86,11.67,52.92c-10.48,18.09-34.68,24.86-53.84,18.16
				c-21.13-7.39-36.1-27.34-39.8-49.08c-3.95-23.25,6.05-48.54,29.71-56.34c23.24-7.67,49.43,8.71,51.4,33.54
				C545.26,1238.6,553.8,1231.26,553.43,1226.6L553.43,1226.6z"/>
		</g>
	</g>
	<g class="st10">
		<path class="st8" d="M906.75,1168.41c-1.16-19.39-17.52-36.03-36-38.45c-18.48-2.41-37.45,8.44-46.98,25.14
			c-9.52,16.7-9.95,38.2-2.75,56.13c7.98,19.9,25.64,35.78,46.08,39.05c20.44,3.27,42.77-7.26,52.31-26.41
			c9.54-19.14,4.1-45.56-13.13-57.47"/>
		<g>
			<path class="st8" d="M911.12,1165.98c-2.03-25.56-25.29-45.3-50.98-41.3c-28.61,4.45-46.88,32.26-48.33,59.63
				c-1.43,27,13.1,54.83,37.89,66.67c23.32,11.13,51.88,3.79,67.47-16.79c16.45-21.71,15.34-56.37-7.87-73.05
				c-3.9-2.8-10.18,7.52-6.05,10.49c15.87,11.4,21.55,35.86,11.67,52.92c-10.48,18.09-34.68,24.86-53.84,18.16
				c-21.13-7.39-36.1-27.35-39.8-49.08c-3.95-23.25,6.05-48.54,29.71-56.34c23.24-7.67,49.43,8.71,51.4,33.54
				C902.95,1177.98,911.49,1170.64,911.12,1165.98L911.12,1165.98z"/>
		</g>
	</g>
</g>
<g id="Ebene_13">
	<g class="st11">
		<path d="M240.85,979.09c-7.59,33.29-3.68,69.65,10.77,100.02c14.45,30.37,39.29,54.46,68.33,66.27
			c-34.14,5.37-70.38-13.67-88.3-46.37s-16.47-77.19,3.52-108.38"/>
		<g>
			<path d="M229.53,975.97c-12.48,56.27,4.09,119.06,48.64,157.15c11.69,9.99,24.47,17.71,38.66,23.58c0-7.55,0-15.09,0-22.64
				c-22.31,3.29-46.57-6.95-62.89-24.17c-18.11-19.1-24.87-46.03-22.64-71.83c1.26-14.57,6.14-29.01,14-41.51
				c8.07-12.82-12.23-24.62-20.27-11.85c-34.75,55.21-16.87,137.98,45.18,164.95c16.93,7.36,34.61,9.73,52.86,7.04
				c5.01-0.74,8.62-6.63,8.62-11.32c0-5.59-3.77-9.31-8.62-11.32c-57.62-23.86-83.92-93.18-70.9-151.85
				c1.37-6.18-1.87-12.7-8.2-14.44C238.08,966.15,230.91,969.75,229.53,975.97L229.53,975.97z"/>
		</g>
	</g>
	<g class="st11">
		<path d="M256,817.83c-35.51-1.8-71.3,18.18-91.18,50.91c-19.88,32.72-23.15,77.05-8.34,112.94
			c-31.98,15.12-52.64,55.41-48.02,93.66c4.62,38.25,34.11,71.07,68.54,76.31c-26.16,30.49-24.95,84.67,2.53,113.69
			s76.27,27.66,102.4-2.87c-15.9,26.45-16.56,64.55,1.81,88.95c18.37,24.4,55.79,29.18,76.25,6.93
			c-13.89,24.65-11.71,59.13,5.16,81.37s47.11,30.5,71.35,19.5c45.6,41.83,112.1,53.32,167.06,29.2c1.05-0.46,0.57-1.48-0.17-2.42
			c-40.54-52.19-119.98-61.95-168.34-112.27c-49.27-51.26-105.61-216.21-115.12-213.02c-137.53,46.24-176.25-222.51-30.04-212.63
			c143.79,9.71-8.85-55.52-27.68-122.44"/>
		<g>
			<path d="M256,806.09c-31.23-1.32-61.91,12.16-83.75,34.21c-23.43,23.66-35.61,56.36-36.64,89.38
				c-0.59,18.69,2.54,37.76,9.56,55.11c1.8-4.42,3.6-8.84,5.39-13.25c-28.96,14.05-48.5,45.02-53.08,76.38
				c-4.85,33.25,5.81,67.24,30.16,90.79c12.64,12.23,28.77,21.4,46.24,24.24c-1.73-6.54-3.45-13.08-5.18-19.62
				c-23.03,27.39-28.61,68.1-15.43,101.26c6.84,17.2,17.95,32.13,33.94,41.84c14.72,8.94,32.77,12.94,49.89,11.12
				c20.4-2.17,39.54-11.24,53.14-26.8c-6.14-4.74-12.29-9.48-18.43-14.22c-14.47,24.6-18.2,56.93-7.45,83.66
				c10.49,26.07,34.72,45.07,63.64,44.15c15.25-0.48,29.78-6.6,40.31-17.71c-6.14-4.74-12.29-9.48-18.43-14.22
				c-15.93,29.03-14.24,67.87,6.08,94.41c20.35,26.57,55.88,35.93,86.49,22.52c-4.74-0.61-9.48-1.22-14.22-1.84
				c47.95,43.56,118.35,57.71,178.48,32.23c6.17-2.61,10.44-7.94,8.78-15.07c-1.03-4.44-4.37-7.88-7.26-11.26
				c-4.45-5.21-9.36-10.02-14.56-14.47c-11.17-9.54-23.47-17.62-36.26-24.78c-25.46-14.25-52.57-25.35-77.57-40.45
				c-12.4-7.48-23.63-15.55-33.88-25.69c-3.53-3.49-6.83-7.17-9.95-11.04c-0.3-0.37-2.23-2.83-1.37-1.72c0.77,1-1.01-1.35-1.37-1.84
				c-1.57-2.12-3.1-4.27-4.59-6.45c-13.1-19.05-23.98-39.61-34.27-60.28c-19.1-38.38-34.71-78.4-53.82-116.75
				c-2.22-4.45-4.47-8.94-7.41-12.96c-1.89-2.58-3.61-4.67-6.42-6.32c-4.8-2.82-9.44-1.32-14.36,0.12
				c-4.27,1.25-8.59,2.05-12.95,2.9c-1.82,0.35,2.21-0.19-1.05,0.13c-0.96,0.09-1.92,0.19-2.88,0.26c-2.14,0.16-4.29,0.24-6.44,0.24
				c-1.83,0-3.65-0.06-5.47-0.19c-0.9-0.06-1.79-0.16-2.68-0.23c-3.35-0.28,1.67,0.38-1.02-0.12c-3.78-0.7-7.49-1.48-11.15-2.65
				c-1.62-0.52-3.19-1.16-4.79-1.71c-1.94-0.68,2.17,1.06-0.19-0.08c-0.97-0.47-1.96-0.9-2.93-1.39c-3.21-1.6-6.32-3.44-9.28-5.46
				c-0.79-0.54-1.57-1.11-2.35-1.66c-0.29-0.21-0.57-0.44-0.87-0.65c-1.24-0.89,1.83,1.49,0.66,0.51c-1.39-1.17-2.8-2.29-4.15-3.51
				c-2.81-2.53-5.46-5.23-7.95-8.08c-1.22-1.39-2.38-2.84-3.55-4.28c1.35,1.66,0.69,0.93-0.2-0.3c-0.59-0.81-1.17-1.62-1.75-2.44
				c-2.24-3.21-4.31-6.55-6.22-9.97c-1.88-3.36-3.6-6.82-5.18-10.33c-0.34-0.76-1.58-3.84-0.36-0.77c-0.34-0.85-0.69-1.69-1.02-2.54
				c-0.71-1.83-1.39-3.67-2.03-5.52c-2.62-7.61-4.62-15.43-6-23.36c-0.16-0.91-0.31-1.83-0.45-2.74c-0.2-1.26-0.47-3.48-0.14-0.81
				c-0.25-2.1-0.5-4.2-0.69-6.31c-0.35-3.94-0.54-7.89-0.58-11.84c-0.04-3.92,0.08-7.84,0.36-11.75c0.14-1.94,0.33-3.87,0.54-5.8
				c0.17-1.61,0.35-2.52,0.02-0.33c0.18-1.14,0.34-2.28,0.53-3.42c1.26-7.55,3.2-15,5.91-22.16c0.3-0.8,0.63-1.6,0.94-2.4
				c0.47-1.21-0.5,1.17-0.48,1.11c0.2-0.45,0.38-0.9,0.59-1.34c0.81-1.77,1.63-3.52,2.53-5.25c1.66-3.19,3.5-6.29,5.54-9.25
				c0.54-0.79,1.1-1.55,1.65-2.33c0.21-0.29,0.43-0.57,0.64-0.86c0.89-1.23-1.51,1.84-0.52,0.69c1.23-1.44,2.41-2.91,3.7-4.31
				c2.43-2.62,5.06-4.97,7.77-7.29c2.14-1.84-1.51,1,0.17-0.14c0.79-0.54,1.55-1.13,2.34-1.67c1.6-1.09,3.24-2.12,4.92-3.07
				c1.49-0.85,3.01-1.65,4.56-2.4c0.78-0.38,1.59-0.72,2.37-1.09c1.41-0.67-2.19,0.85-0.72,0.31c0.59-0.22,1.18-0.47,1.77-0.69
				c3.67-1.38,7.45-2.47,11.28-3.3c1.06-0.23,2.13-0.44,3.2-0.63c0.46-0.08,3.59-0.58,1.72-0.3c-1.72,0.25,1.23-0.14,1.8-0.2
				c1.15-0.12,2.3-0.21,3.45-0.29c22.7-1.51,46.06,4.36,68.46-1.82c7.75-2.14,15.52-6.66,18.05-14.78
				c2.12-6.81,0.13-13.78-3.39-19.74c-8.3-14.04-22.1-25.16-33.81-36.22c-7.45-7.03-14.86-14.11-21.93-21.52
				c-3.5-3.67-6.91-7.41-10.19-11.28c-0.86-1.01-1.71-2.04-2.55-3.07c-0.33-0.4-2.29-2.88-1.53-1.9c0.69,0.88-1.06-1.41-1.44-1.92
				c-0.85-1.16-1.69-2.33-2.51-3.52c-2.54-3.68-4.89-7.5-6.94-11.48c-0.47-0.92-0.93-1.85-1.37-2.79c-0.49-1.05-1.22-2.98-0.39-0.8
				c-0.81-2.12-1.57-4.24-2.21-6.42c-4.19-14.48-26.85-8.32-22.64,6.24c5.12,17.7,16.52,32.86,28.6,46.44
				c11.99,13.47,25.37,25.56,38.4,38c5.28,5.04,10.56,10.12,15.37,15.62c1.03,1.17,1.96,2.46,3.01,3.6
				c-2.36-2.56,0.23,0.36,0.98,1.49c0.62,0.96,1.15,1.96,1.73,2.94c0.27,0.47,0.98,2.21,0.11,0.1c-0.99-2.41-0.15,0.18,0.09,0.45
				c0.24,0.27,0.05,0.93,0.29,1.18c0.27,0.28-0.2-3.46-0.23-1.43c-0.02,1.78,1.03-3.23-0.03-0.37c0.21-0.58,1.54-3.14,0.46-1.4
				c-0.35,0.57,2.17-2.57,0.9-1.22c-1.59,1.69,0.98-0.61,0.98-0.64c0.03,0.12-1.22,0.78-1.35,0.85c-0.5,0.24-1.13,0.48-1.59,0.78
				c1.01-0.67,2.52-0.87,0.69-0.37c-1.63,0.44-3.22,0.93-4.87,1.26c-0.76,0.15-1.53,0.27-2.29,0.41c-2.69,0.5,1.55-0.07-0.69,0.09
				c-2.29,0.17-4.57,0.42-6.87,0.54c-21.06,1.08-42-2.88-62.91,0.92c-15.05,2.73-28.97,9.53-40.67,19.32
				c-22.61,18.92-32.91,48.7-35.28,77.29c-2.46,29.7,3.92,60.71,17.89,87.02c13.51,25.44,36.21,47.19,64.89,53.8
				c15.95,3.68,32.59,2.8,48.33-1.5c1.73-0.47,4.23-0.81,5.77-1.75c-1.05,0.63-5.89-0.15-7.38-1.03c-2.43-1.44-2.41-2.02-1.17-0.71
				c0.81,0.85-1.95-2.97-0.21-0.21c2.54,4.03,4.76,8.21,6.86,12.48c16.83,34.06,30.92,69.45,47.42,103.68
				c9.39,19.47,19.24,38.79,30.46,57.28c10.12,16.66,21.45,32.86,36.01,45.96c39.79,35.82,93.04,49.16,135.65,80.52
				c3.76,2.77,8.43,6.7,12.37,10.44c2.15,2.04,4.24,4.16,6.24,6.35c0.93,1.01,1.84,2.04,2.73,3.09c0.58,0.68,1.14,1.46,1.77,2.12
				c1.58,1.65-0.04,1.62-0.54-1.21c1.01-3.81,2.01-7.61,3.02-11.42c2.28-1.35,2.41-1.56,0.38-0.63c-0.94,0.38-1.88,0.75-2.83,1.1
				c-1.42,0.54-2.85,1.05-4.28,1.54c-3.34,1.14-6.71,2.17-10.13,3.07c-6.31,1.67-12.96,3.02-19.05,3.68
				c-13.63,1.48-27.94,1.19-41.04-1.16c-27.59-4.94-53.33-17.31-74.1-36.18c-4.27-3.88-9.18-4.04-14.22-1.84
				c-9.12,4-20.19,4.16-30.06,1.35c-10.22-2.92-20.12-9.48-26.5-18.39c-13.92-19.42-15.23-47.1-3.89-67.77
				c6.26-11.41-9.01-24.17-18.43-14.22c-8.17,8.62-17.39,11.58-29.36,10.71c-3.38-0.25-11.17-2.49-14.75-4.36
				c-5.89-3.06-9.98-6.18-14.3-11.7c-16.28-20.75-14.52-53.69-1.22-76.31c6.59-11.21-9.47-24.48-18.43-14.22
				c-9.3,10.64-20.03,16.79-33.85,19.46c-3.24,0.63-4.51,0.75-8.54,0.86c-1.74,0.05-3.48,0.03-5.21-0.04
				c-0.65-0.03-1.3-0.06-1.95-0.11c0.08,0.01-3.7-0.36-2.06-0.14c-6.44-0.84-13.64-3.08-18.33-5.45
				c-25.05-12.62-35.32-40.61-33.63-67.91c0.88-14.2,6.21-30.14,15.25-40.89c5.05-6,4.34-18.07-5.18-19.62
				c-24.78-4.03-44.83-22.01-54.6-45.57c-9.98-24.07-7.01-52.13,6.51-74.67c7.39-12.32,17.42-21.99,30.37-28.27
				c4.19-2.03,7.21-8.77,5.39-13.25c-20.63-50.98-3.95-115.18,47.29-140.51c12.84-6.35,26.73-9.08,40.91-8.48
				c6.34,0.27,11.74-5.59,11.74-11.74C267.74,811.25,262.36,806.36,256,806.09L256,806.09z"/>
		</g>
	</g>
	<g class="st11">
		<path d="M618.09,1540.56c38.57-20.15,74.95-45.45,108.1-75.2c-31.91,11.4-67.14,11-98.83-1.13c-6.72-2.57-14.87,3.7-15.06,11.59
			c-0.55,22.44-1.09,44.89-1.64,67.33"/>
		<g>
			<path d="M624.02,1550.7c39.89-20.92,76.91-47.02,110.47-77.03c8.57-7.67-0.41-23.47-11.42-19.62
				c-15.59,5.46-31.65,8.2-48.17,7.81c-7.97-0.19-15.83-1.07-23.62-2.76c-4.12-0.89-8.2-1.96-12.22-3.21
				c-4.13-1.28-8.1-3.2-12.41-3.72c-8.28-1-16.1,2.92-21.06,9.46c-5.66,7.47-5.07,16.17-5.28,25.08
				c-0.46,18.81-0.91,37.63-1.37,56.44c-0.37,15.11,23.11,15.1,23.47,0c0.42-17.16,0.83-34.33,1.25-51.49
				c0.1-3.96,0.19-7.92,0.29-11.88c0.03-1.32,0.06-2.64,0.1-3.96c-0.13,0.76-0.09,0.75,0.11-0.05c0.21-0.79,0.24-0.81,0.09-0.07
				c-0.64,0.67-0.47,0.5,0.51-0.51c-0.15,0.12-0.3,0.23-0.44,0.35c1.24-0.71,1.39-0.79,0.45-0.25c-1.05,0.11-2.48-0.57-0.51,0.25
				c3.6,1.5,7.42,2.66,11.17,3.75c30.59,8.87,63.86,7.9,93.9-2.61c-3.81-6.54-7.61-13.08-11.42-19.62
				c-32.11,28.72-67.57,53.35-105.72,73.36C598.79,1537.45,610.64,1557.72,624.02,1550.7L624.02,1550.7z"/>
		</g>
	</g>
	<g class="st11">
		<path d="M354.63,1692.33c49.54,107.79,158.49,178.29,267.38,173.03c166.03-8.02,332.07-16.03,498.1-24.05
			c-292.31,37.52-587.71,45.4-881.31,23.5c-8.89-0.66-15.75-11.93-12.99-21.34c22.13-75.37,73.87-139.37,138.97-171.93"/>
		<g>
			<path d="M344.5,1698.26c39.6,85.59,119.21,153.93,212.31,173.4c22.82,4.77,45.93,6.38,69.19,5.26
				c31.55-1.52,63.09-3.05,94.64-4.57c62.76-3.03,125.52-6.06,188.28-9.09c70.4-3.4,140.8-6.8,211.19-10.2c0-7.82,0-15.65,0-23.47
				c-77.78,9.97-155.82,17.88-234.02,23.66c-78.14,5.78-156.44,9.47-234.78,11.04c-78,1.57-156.03,1.05-234-1.56
				c-39.16-1.31-78.29-3.15-117.4-5.51c-19.71-1.19-39.46-2.3-59.14-3.98c-2.08-0.18-1.91-0.75-0.65,0.12
				c-0.66-0.45-1.43-0.88-1.34-0.76c-0.84-1.19-1.24-2.04-1.41-2.46c-0.24-0.6-0.38-1.29-0.51-1.91c0.33,1.64,0.19-1.47,0.01-0.57
				c1.23-6.18,4.45-14.43,6.94-21.11c20.33-54.42,58.35-103.49,107.78-134.17c6.21-3.85,12.59-7.4,19.11-10.69
				c5.66-2.85,7.27-10.83,4.21-16.06c-3.37-5.76-10.38-7.07-16.06-4.21c-55.97,28.2-100.64,77.39-127.14,133.84
				c-6.82,14.52-13.7,30.07-17.38,45.74c-1.99,8.46-0.2,17.45,4.96,24.45c6,8.14,13.68,10.67,23.45,11.39
				c40.39,2.98,80.82,5.39,121.28,7.24c80.89,3.7,161.89,5.14,242.86,4.34c80.65-0.8,161.28-3.84,241.76-9.1
				c80.87-5.29,161.59-12.82,242.03-22.6c9.82-1.19,19.63-2.42,29.44-3.68c6.29-0.81,11.74-4.82,11.74-11.74
				c0-6.12-5.37-12.04-11.74-11.74c-123.53,5.96-247.06,11.93-370.59,17.89c-30.55,1.48-61.1,2.95-91.65,4.43
				c-25.68,1.24-51.32,3.36-76.94,0.18c-42.43-5.26-84.35-23.11-119.85-48.38c-41.64-29.64-74.82-70.84-96.32-117.29
				c-2.66-5.75-10.96-7.19-16.06-4.21C342.81,1685.65,341.83,1692.48,344.5,1698.26L344.5,1698.26z"/>
		</g>
	</g>
</g>
<g id="Ebene_12">
</g>
</svg>
