<?xml version="1.0" encoding="utf-8"?>
<!-- Generator: Adobe Adobe Illustrator 24.2.0, SVG Export Plug-In . SVG Version: 6.00 Build 0)  -->
<svg version="1.1" xmlns="http://www.w3.org/2000/svg" xmlns:xlink="http://www.w3.org/1999/xlink" x="0px" y="0px"
	 viewBox="0 0 1700.79 1700.79" style="enable-background:new 0 0 1700.79 1700.79;" xml:space="preserve">
<style type="text/css">
	.st0{display:none;}
	.st1{display:inline;}
	.st2{fill:#6DB571;}
	.st3{fill:#6DB671;}
	.st4{fill:#EFC2A1;}
	.st5{fill:#F0C2A1;}
	.st6{fill:#F0C1A1;}
	.st7{fill:#2F5B81;}
	.st8{fill:#91625E;}
	.st9{fill:#91625D;}
	.st10{fill:#855F5F;}
	.st11{stroke:#000000;stroke-width:0.8691;stroke-miterlimit:10;}
	.st12{opacity:0.1608;}
	.st13{opacity:0.1098;}
	.st14{fill:#FFFFFF;}
	.st15{fill:#FFFFFF;stroke:#FFFFFF;stroke-width:0.8691;stroke-miterlimit:10;}
	.st16{fill:#CB5B7A;}
	.st17{fill:#CB5B7B;stroke:#CB5B7A;stroke-miterlimit:10;}
	.st18{fill:#ADBECF;stroke:#F3C057;stroke-miterlimit:10;}
	.st19{fill:#F3C057;stroke:#F3C057;stroke-miterlimit:10;}
	.st20{fill:#F7D98D;stroke:#F3C057;stroke-miterlimit:10;}
	.st21{stroke:#F3C057;stroke-miterlimit:10;}
	.st22{fill:#AEBFCE;stroke:#F3C057;stroke-miterlimit:10;}
	.st23{opacity:0.2706;}
	.st24{fill:#3D4C5B;stroke:#F3C057;stroke-miterlimit:10;}
	.st25{fill:#F3C057;}
</style>
<g id="Ebene_4">
</g>
<g id="Ebene_8">
</g>
<g id="Ebene_5">
</g>
<g id="Ebene_7">
</g>
<g id="Ebene_6" class="st0">
	<g class="st1">
		<g>
			<path d="M445.89,673.64c0,7.5,0,15,0,22.51c0,9.65,15,9.67,15,0c0-7.5,0-15,0-22.51C460.89,663.99,445.89,663.97,445.89,673.64
				L445.89,673.64z"/>
		</g>
	</g>
	<g class="st1">
		<g>
			<path d="M528.41,667.39c0,8.75,0,17.5,0,26.26c0,9.65,15,9.67,15,0c0-8.75,0-17.5,0-26.26
				C543.41,657.74,528.41,657.72,528.41,667.39L528.41,667.39z"/>
		</g>
	</g>
</g>
<g id="Ebene_29">
</g>
<g id="Ebene_27">
</g>
<g id="Ebene_9">
</g>
<g id="Ebene_10">
</g>
<g id="Ebene_11">
</g>
<g id="Ebene_12">
	<g>
		<path class="st2" d="M323.89,1198.01c2.38,65.56,4.76,131.12,7.15,196.67c28.24,3.68,57.12,2.74,85.04-2.76
			c12.26-33.64,21.55-68.28,27.71-103.42c6.87,34.11,13.75,68.22,20.62,102.33c32.02-1.39,64.04-2.79,96.06-4.18
			c-10.75-64.66-0.74-125.28-7.89-195.83c-75.2,9.42-151.24,12.71-227.03,9.8"/>
		<g>
			<path class="st3" d="M317.37,1198.01c2.38,65.56,4.76,131.12,7.15,196.67c0.14,3.86,2.9,6.06,6.52,6.52
				c16.97,2.15,34.1,2.75,51.18,1.65c8.16-0.53,16.29-1.45,24.38-2.68c3.57-0.54,7.84-0.67,11.21-1.96c4.33-1.66,5.1-6,6.5-9.97
				c11.28-31.9,19.87-64.7,25.77-98.01c-4.19,0-8.38,0-12.57,0c6.87,34.11,13.75,68.22,20.62,102.33c0.54,2.68,3.59,4.9,6.29,4.79
				c32.02-1.39,64.04-2.79,96.06-4.18c4.57-0.2,6.98-3.99,6.29-8.25c-10.48-64.16-1.25-129.58-7.66-194.09
				c-0.31-3.16-2.75-6.99-6.52-6.52c-75.27,9.38-151.23,12.65-227.03,9.8c-8.39-0.32-8.38,12.72,0,13.04
				c75.8,2.85,151.75-0.42,227.03-9.8c-2.17-2.17-4.35-4.35-6.52-6.52c6.53,65.72-2.55,132.17,8.13,197.56
				c2.1-2.75,4.19-5.5,6.29-8.25c-32.02,1.39-64.04,2.79-96.06,4.18c2.1,1.6,4.19,3.19,6.29,4.79
				c-6.87-34.11-13.75-68.22-20.62-102.33c-1.24-6.14-11.46-6.3-12.57,0c-6.24,35.22-15.51,69.8-27.71,103.42
				c1.52-1.52,3.04-3.04,4.55-4.55c-27.46,5.31-55.56,6.04-83.3,2.53c2.17,2.17,4.35,4.35,6.52,6.52
				c-2.38-65.56-4.76-131.12-7.15-196.67C330.11,1189.64,317.07,1189.6,317.37,1198.01L317.37,1198.01z"/>
		</g>
	</g>
	<g>
		<path class="st4" d="M286.37,1249.7c3.43,11.76,13.95,21.36,26.38,24.07c-1.06-9.36-2.11-18.71-3.17-28.07
			c-6.73-0.06-13.46-0.12-20.19-0.17"/>
		<g>
			<path class="st4" d="M280.08,1251.44c4.55,14.33,16.32,25.1,30.93,28.62c3.71,0.89,8.75-1.88,8.25-6.29
				c-1.06-9.36-2.11-18.71-3.17-28.07c-0.4-3.53-2.66-6.49-6.52-6.52c-6.73-0.06-13.46-0.12-20.19-0.17
				c-8.39-0.07-8.4,12.96,0,13.04c6.73,0.06,13.46,0.12,20.19,0.17c-2.17-2.17-4.35-4.35-6.52-6.52c1.06,9.36,2.11,18.71,3.17,28.07
				c2.75-2.1,5.5-4.19,8.25-6.29c-10.14-2.44-18.63-9.42-21.83-19.51C290.13,1240,277.54,1243.41,280.08,1251.44L280.08,1251.44z"/>
		</g>
	</g>
	<g>
		<path class="st4" d="M570.01,1250.41c-3.42,10.48,6.86,22.7,18.27,21.72c11.41-0.98,19.27-14.75,13.96-24.48
			c-10.08,0.21-20.17,0.42-30.25,0.62"/>
		<g>
			<path class="st4" d="M563.73,1248.68c-4.27,15.52,9.81,31.75,25.81,29.81c15.94-1.93,25.26-19.94,18.34-34.13
				c-0.97-1.99-3.48-3.27-5.63-3.23c-10.08,0.21-20.17,0.42-30.25,0.62c-8.38,0.17-8.41,13.21,0,13.04
				c10.08-0.21,20.17-0.42,30.25-0.62c-1.88-1.08-3.75-2.15-5.63-3.23c2.84,5.83-2.16,13.73-8.33,14.67
				c-7.12,1.08-13.85-6.68-11.99-13.47C578.53,1244.05,565.95,1240.59,563.73,1248.68L563.73,1248.68z"/>
		</g>
	</g>
	<g>
		<path class="st5" d="M344.76,1413.17c1.15,45.03,14.52,165.01,14.52,165.01s21.16,0.83,36.86-2.16
			c2.46-56.95,4.93-113.89,7.39-170.84c-20.87,4.81-42.72,5.68-63.93,2.55"/>
		<g>
			<path class="st4" d="M338.24,1413.17c1.34,49.97,7.53,100.03,12.85,149.7c0.55,5.11,1.1,10.21,1.67,15.32
				c0.4,3.61,2.66,6.37,6.52,6.52c12.85,0.48,25.93-0.1,38.59-2.4c2.87-0.52,4.67-3.6,4.79-6.29c2.46-56.95,4.93-113.89,7.39-170.84
				c0.19-4.42-4.3-7.17-8.25-6.29c-19.8,4.44-40.35,5.4-60.46,2.55c-3.51-0.5-6.96,0.86-8.02,4.55c-0.88,3.05,1.07,7.53,4.55,8.02
				c22.56,3.2,45.14,2.44,67.4-2.55c-2.75-2.1-5.5-4.19-8.25-6.29c-2.46,56.95-4.93,113.89-7.39,170.84c1.6-2.1,3.19-4.19,4.79-6.29
				c-11.49,2.09-23.47,2.37-35.13,1.93c2.17,2.17,4.35,4.35,6.52,6.52c-4.69-42.11-9-84.29-12.26-126.53
				c-0.99-12.81-1.91-25.64-2.26-38.48C351.06,1404.8,338.02,1404.77,338.24,1413.17L338.24,1413.17z"/>
		</g>
	</g>
	<g>
		<path class="st6" d="M479.45,1405.18c9.29,52.53,8.47,109.02,17.76,161.55c12.17-4.28,31.05-6.05,43.98-5.14
			c-1.13-54-2.27-108.01-3.4-162.01C516.01,1402.28,501.23,1402.49,479.45,1405.18"/>
		<g>
			<path class="st4" d="M473.17,1406.92c9.33,53.45,8.43,108.09,17.76,161.55c0.58,3.34,4.92,5.6,8.02,4.55
				c13.4-4.54,28.18-5.79,42.25-4.91c3.47,0.22,6.59-3.16,6.52-6.52c-1.13-54-2.27-108.01-3.4-162.01c-0.07-3.2-2.95-6.95-6.52-6.52
				c-19.4,2.36-38.94,3.25-58.33,5.61c-3.52,0.43-6.48,2.69-6.52,6.52c-0.03,3.2,3.03,6.94,6.52,6.52
				c19.4-2.36,38.94-3.25,58.33-5.61c-2.17-2.17-4.35-4.35-6.52-6.52c1.13,54,2.27,108.01,3.4,162.01c2.17-2.17,4.35-4.35,6.52-6.52
				c-15.08-0.94-31.35,0.51-45.71,5.37c2.67,1.52,5.35,3.04,8.02,4.55c-9.33-53.45-8.43-108.09-17.76-161.55
				C484.3,1395.2,471.73,1398.7,473.17,1406.92L473.17,1406.92z"/>
		</g>
	</g>
	<g>
		<path class="st4" d="M265.26,711.24c-12.52-3.2-25.98,10.1-22.26,22c3.72,11.9,22.6,15.91,31.22,6.64
			c9.59,58.99,71.95,105.38,133.96,99.66c0.29,10.09,0.58,20.18,0.88,30.27c17.23,10.47,40.74,10.55,58.05,0.2
			c-0.14-10.59-0.29-21.18-0.43-31.78c53.42-3.22,102.16-43.1,113.85-93.14c7.21,9.77,25.6,0.9,26-11.06s-10.4-21.6-21.61-26.85
			c-11.22-5.25-23.85-8.03-33.76-15.3s-16.07-21.61-8.74-31.28c-8.7,7.17-22.38,8.08-32.03,2.14c-9.65-5.94-14.48-18.24-11.3-28.8
			c-13.93,8.95-36.05,0.6-39.88-15.04c-6.76,14.43-30.57,17.51-41.07,5.3c-1.69,20.28-31.03,32.53-47.68,19.91
			c1.19,20.6-24.82,37.66-44.43,29.14c-10.14,20.73-32.91,35.22-56.77,36.14"/>
		<g>
			<path class="st4" d="M266.99,704.96c-17.94-3.77-37.91,14.82-29.04,33.1c7.21,14.85,29.43,17.83,40.87,6.44
				c-3.63-0.96-7.26-1.92-10.9-2.88c8.37,49.32,50.5,88.56,97.94,100.8c13.78,3.56,28.14,4.86,42.31,3.65
				c-2.17-2.17-4.35-4.35-6.52-6.52c0.15,5.05,0.29,10.09,0.44,15.14c0.14,4.92-0.31,10.28,0.44,15.14
				c1.19,7.76,13.2,10.84,19.83,12.48c16.2,4.01,33.57,1.7,48.03-6.65c1.97-1.13,3.26-3.35,3.23-5.63
				c-0.14-10.59-0.29-21.18-0.43-31.78c-2.17,2.17-4.35,4.35-6.52,6.52c55.18-3.67,106.99-43.34,120.13-97.93
				c-3.63,0.96-7.26,1.92-10.9,2.88c7.96,9.71,22.78,6.52,30.71-1.47c9.87-9.95,6.97-24.36-1.47-34.19
				c-10.15-11.83-25.29-15.43-39.02-21.3c-10.03-4.29-26.96-16.09-18.09-28.85c1.85-2.67,0.71-6.57-1.68-8.41
				c-2.78-2.14-5.95-1.52-8.56,0.51c-14.65,11.36-37.38-1.85-32.43-20.32c1.45-5.42-4.65-10.33-9.58-7.36
				c-10.51,6.34-26.91,1.12-30.3-11.15c-1.42-5.16-9.33-6.68-11.91-1.56c-5.59,11.06-22.56,13.04-30.84,3.98
				c-4.19-4.59-10.56-0.56-11.13,4.61c-1.83,16.72-25.64,23.09-37.87,14.28c-4.04-2.91-9.96,0.99-9.81,5.63
				c0.57,17.85-20.72,29.13-36.18,22.85c-2.5-1.02-6.18,0.65-7.36,3c-9.73,19.26-29.65,31.82-51.15,32.91
				c-8.35,0.42-8.4,13.46,0,13.04c25.89-1.31,50.59-15.98,62.4-39.37c-2.45,1-4.91,2-7.36,3c23.29,9.46,53.5-9.77,52.68-35.43
				c-3.27,1.88-6.54,3.75-9.81,5.63c21.18,15.25,54.68,0.11,57.49-25.54c-3.71,1.54-7.42,3.07-11.13,4.61
				c13.7,15,42.04,11.72,51.31-6.62c-3.97-0.52-7.94-1.04-11.91-1.56c5.6,20.28,31.75,29.63,49.45,18.94
				c-3.19-2.45-6.38-4.91-9.58-7.36c-3.68,13.71,2.14,28.68,14.29,36.16c12.57,7.74,28.61,5.62,39.93-3.16
				c-3.41-2.63-6.83-5.27-10.24-7.9c-6.95,10-4.15,22.91,2.79,32.1c8.36,11.05,21.73,15.44,34.19,20.18
				c9.81,3.73,25.7,10.46,26.23,23.03c0.28,6.63-9.88,13.96-14.86,7.88c-3.13-3.82-9.82-1.59-10.9,2.88
				c-11.74,48.75-58.03,85.06-107.56,88.36c-3.48,0.23-6.57,2.8-6.52,6.52c0.14,10.59,0.29,21.18,0.43,31.78
				c1.08-1.88,2.15-3.75,3.23-5.63c-15.81,9.13-35.73,9.04-51.47-0.2c1.08,1.88,2.15,3.75,3.23,5.63
				c-0.29-10.09-0.58-20.18-0.88-30.27c-0.1-3.29-2.92-6.83-6.52-6.52C350.2,838,290.44,796.7,280.5,738.15
				c-0.85-4.99-7.69-6.07-10.9-2.88c-5.06,5.03-15.31,4.06-19.37-1.91c-5.36-7.89,5.49-17.47,13.29-15.84
				C271.71,719.25,275.21,706.68,266.99,704.96L266.99,704.96z"/>
		</g>
	</g>
	<g>
		<path class="st7" d="M311.79,1187.95c0.37,14.93,0.74,29.87,1.11,44.8c-12.4-1.26-24.81-2.53-37.21-3.79
			c-10.24-125.87,33.02-254.99,117.81-351.62c23.65,17.2,61.26,12.86,79.98-9.22c95.39,43.75,135.12,234.12,136.93,366.16
			c-12.93,0.47-25.85,0.95-38.78,1.42c-1.29-20.9-2.59-41.81-3.88-62.71c-85.8,3.73-171.59,7.46-257.39,11.2"/>
		<g>
			<path class="st7" d="M305.27,1187.95c0.37,14.93,0.74,29.87,1.11,44.8c2.17-2.17,4.35-4.35,6.52-6.52
				c-12.4-1.26-24.81-2.53-37.21-3.79c2.17,2.17,4.35,4.35,6.52,6.52c-7.77-97.67,16.55-196.5,67.15-280.27
				c14.27-23.63,30.58-45.95,48.75-66.74c-2.63,0.34-5.27,0.68-7.9,1.02c26.3,18.6,66.66,14.13,87.88-10.24
				c-2.63,0.34-5.27,0.68-7.9,1.02c42.13,19.56,67.75,63.37,85.28,104.43c22.13,51.84,34.48,108.18,41.7,163.92
				c3.96,30.57,6.28,61.36,6.73,92.19c2.17-2.17,4.35-4.35,6.52-6.52c-12.93,0.47-25.85,0.95-38.78,1.42
				c2.17,2.17,4.35,4.35,6.52,6.52c-1.29-20.9-2.59-41.81-3.88-62.71c-0.21-3.4-2.82-6.68-6.52-6.52
				c-66.84,2.91-133.68,5.82-200.52,8.72c-18.95,0.82-37.91,1.65-56.86,2.47c-8.36,0.36-8.4,13.4,0,13.04
				c66.84-2.91,133.68-5.82,200.52-8.72c18.95-0.82,37.91-1.65,56.86-2.47c-2.17-2.17-4.35-4.35-6.52-6.52
				c1.29,20.9,2.59,41.81,3.88,62.71c0.21,3.42,2.82,6.65,6.52,6.52c12.93-0.47,25.85-0.95,38.78-1.42
				c3.48-0.13,6.57-2.88,6.52-6.52c-0.84-57.62-7.78-115.52-20.93-171.64c-12.34-52.65-30.23-107.21-62.77-151.11
				c-14.96-20.19-33.43-38.34-56.46-49.03c-2.5-1.16-5.9-1.28-7.9,1.02c-17.69,20.31-50.23,23.66-72.08,8.2
				c-2.21-1.56-6.13-1.01-7.9,1.02c-66.26,75.79-108.17,171.36-118.68,271.51c-2.95,28.14-3.29,56.52-1.04,84.72
				c0.3,3.79,2.76,6.14,6.52,6.52c12.4,1.26,24.81,2.53,37.21,3.79c3.45,0.35,6.6-3.27,6.52-6.52c-0.37-14.93-0.74-29.87-1.11-44.8
				C318.1,1179.58,305.06,1179.55,305.27,1187.95L305.27,1187.95z"/>
		</g>
	</g>
	<g>
		<path class="st8" d="M398.69,1595.29c-0.4,6.21-0.8,12.42-1.2,18.63c-45.49,2.48-90.99,4.95-136.48,7.43
			c36.52-27.25,86.05-37.79,131.18-27.9"/>
		<g>
			<path class="st9" d="M392.17,1595.29c-0.4,6.21-0.8,12.42-1.2,18.63c2.17-2.17,4.35-4.35,6.52-6.52
				c-45.49,2.48-90.99,4.95-136.48,7.43c1.1,4.05,2.19,8.1,3.29,12.15c35.87-26.46,82.55-36.55,126.16-27.24
				c8.18,1.75,11.68-10.82,3.47-12.57c-46.83-10-97.53,0.03-136.2,28.56c-4.72,3.48-3.81,12.53,3.29,12.15
				c45.49-2.48,90.99-4.95,136.48-7.43c3.69-0.2,6.28-2.83,6.52-6.52c0.4-6.21,0.8-12.42,1.2-18.63
				C405.75,1586.91,392.71,1586.95,392.17,1595.29L392.17,1595.29z"/>
		</g>
	</g>
	<g>
		<path class="st9" d="M498.44,1587.32c0.75,8.1,1.51,16.2,2.26,24.3c42.93,2.56,86.18,0.03,128.47-7.5
			c-38.12-24.65-87.68-32.33-131.96-20.46"/>
		<g>
			<path class="st8" d="M491.92,1587.32c0.75,8.1,1.51,16.2,2.26,24.3c0.34,3.67,2.72,6.3,6.52,6.52
				c43.56,2.52,87.23-0.16,130.2-7.73c5.86-1.03,5.89-9.14,1.56-11.91c-40.22-25.71-90.89-33.22-136.98-21.11
				c-8.11,2.13-4.67,14.71,3.47,12.57c42.86-11.26,89.58-4.08,126.94,19.8c0.52-3.97,1.04-7.94,1.56-11.91
				c-41.81,7.37-84.36,9.72-126.73,7.27c2.17,2.17,4.35,4.35,6.52,6.52c-0.75-8.1-1.51-16.2-2.26-24.3
				C504.19,1579.04,491.14,1578.96,491.92,1587.32L491.92,1587.32z"/>
		</g>
	</g>
	<g>
		<g>
			<path class="st10" d="M253.43,759.56c2.76,10.34,9.07,18.74,17.76,24.87c2.33,1.65,5.98,0.9,7.9-1.02
				c2.22-2.22,2.16-5.19,1.02-7.9c-2.93-6.93-5.85-13.86-8.78-20.79c-0.88-2.07-3.55-3.18-5.63-3.23c-2.41-0.06-4.81-0.12-7.22-0.18
				c-8.39-0.21-8.39,12.83,0,13.04c2.41,0.06,4.81,0.12,7.22,0.18c-1.88-1.08-3.75-2.15-5.63-3.23c2.93,6.93,5.85,13.86,8.78,20.79
				c2.97-2.97,5.95-5.95,8.92-8.92c-5.88-4.15-9.92-10.16-11.76-17.08C263.84,748,251.26,751.43,253.43,759.56L253.43,759.56z"/>
		</g>
	</g>
	<g>
		<g>
			<path class="st10" d="M578.48,757.29c-0.82,3.64-1.64,7.27-2.46,10.91c-0.74,3.28,0.97,7.26,4.55,8.02
				c10.28,2.18,20.47-3.2,23.98-13.19c0.76-2.16-0.13-4.77-1.68-6.34c-4.75-4.82-12.37-6.75-18.72-4.12
				c-3.25,1.35-5.57,4.32-4.55,8.02c0.84,3.07,4.75,5.91,8.02,4.55c2.22-0.92,4.24-1.06,6.03,0.76c-0.56-2.11-1.12-4.23-1.68-6.34
				c-1.07,3.03-5.02,4.71-7.94,4.09c1.52,2.67,3.04,5.35,4.55,8.02c0.82-3.64,1.64-7.27,2.46-10.91
				C592.89,752.58,580.32,749.09,578.48,757.29L578.48,757.29z"/>
		</g>
	</g>
	<g>
		<path class="st10" d="M599.46,701.22c10.73,5.31,25.83-3.05,26.39-14.61c0.56-11.56-13.67-21.22-24.87-16.89
			c11.76-7.39,16.11-23.82,9.44-35.69c-6.66-11.87-23.37-17.44-36.28-12.11c10.61-11.05,10.25-30.12-0.76-40.8
			c-11.01-10.68-30.91-11.24-42.56-1.21c1.32-15.08-10.02-30.27-25.34-33.94s-32.79,4.63-39.02,18.53
			c-2.53-16.26-18-29.8-35.14-30.74c-17.13-0.94-34.11,10.81-38.57,26.69c-0.29-11.3-11.43-21.28-23.22-20.8
			s-22.01,11.32-21.3,22.61c-14.07-6.3-32.34-2.37-42.25,9.09c-9.91,11.46-10.54,29.39-1.46,41.47c-24-7.39-52.02,15.1-48.65,39.04
			c-7.19,6.89-14.21,14.53-16.87,23.93c-2.66,9.4,0.35,20.94,9.31,25.55c8.95,4.61,22.67-2.04,21.65-11.74
			c21.92-1.13,41.85-18.09,45.63-38.81c7.85,8.65,22.06,11.27,32.7,6.04c10.64-5.24,16.7-17.83,13.94-28.98
			c9.95,6.29,23.82,6.27,33.75-0.05c9.93-6.32,15.33-18.56,13.15-29.78c14.69,20.47,54.18,14.6,61.7-9.17
			c-1.91,10.35,4.42,21.56,14.5,25.7c10.08,4.14,22.91,0.78,29.41-7.68c-8.91,9.79-7.94,26.36,2.05,35.14
			c9.99,8.78,27.3,8.27,36.71-1.08c-0.9,25.7,18.98,50.7,45.08,56.68"/>
		<g>
			<path class="st10" d="M596.17,706.85c14.58,6.49,34.43-2.01,36.09-19.06c1.64-16.94-17.72-29.55-33.01-24.36
				c1.67,3.97,3.35,7.94,5.02,11.91c14.17-9.44,20.28-28.59,12.09-44.02c-8.03-15.14-28.23-21.69-43.95-15.69
				c2.11,3.63,4.23,7.26,6.34,10.9c12.64-13.86,13.02-36.65-0.76-50.02c-14.02-13.6-37.06-13.24-51.78-1.21
				c3.71,1.54,7.42,3.07,11.13,4.61c1.16-18.53-12.67-36.45-30.8-40.37c-17.8-3.84-37.76,5.03-45.7,21.68
				c3.97,0.52,7.94,1.04,11.91,1.56c-3.51-19.66-21.78-34.41-41.42-35.52c-19.88-1.12-39.1,12.57-44.85,31.48
				c4.27,0.58,8.54,1.16,12.8,1.73c-0.97-15.15-14.3-27.87-29.74-27.32c-15.19,0.54-28.19,13.87-27.82,29.13
				c3.27-1.88,6.54-3.75,9.81-5.63c-16.41-6.92-36.65-4.22-49.22,9.09c-12.75,13.51-14.19,35.3-3.4,50.39
				c2.45-3.19,4.91-6.38,7.36-9.58c-27.21-7.76-60.39,15.76-56.9,45.32c0.64-1.54,1.27-3.07,1.91-4.61
				c-7.81,7.54-15.57,16.09-18.54,26.81c-2.56,9.24-0.88,19.87,5.38,27.27c5.91,6.99,15.09,9.64,23.83,6.91
				c8.19-2.57,14.98-9.66,14.54-18.63c-2.17,2.17-4.35,4.35-6.52,6.52c24.37-1.64,47.02-19.11,51.91-43.59
				c-3.63,0.96-7.26,1.92-10.9,2.88c10.31,10.7,27.27,13.76,40.6,7.06c13.28-6.68,20.01-22.04,16.94-36.34
				c-3.19,2.45-6.38,4.91-9.58,7.36c12.57,7.47,29.37,7.6,41.55-0.87c11.81-8.22,17.25-22.3,14.93-36.33
				c-3.97,1.67-7.94,3.35-11.91,5.02c18.53,24.75,63.44,19.27,73.62-10.73c-4.19-1.16-8.38-2.31-12.57-3.47
				c-2.09,13.98,4.96,27.86,18.28,33.39c12.43,5.16,27.98,1.42,36.53-9.03c5.24-6.4-3.71-15.65-9.22-9.22
				c-10.82,12.63-10.85,32.95,2.05,44.36c12.91,11.43,33.51,10.56,45.93-1.08c-3.71-1.54-7.42-3.07-11.13-4.61
				c-0.6,29.54,21.53,56.07,49.87,62.97c8.15,1.98,11.63-10.58,3.47-12.57c-22.86-5.57-40.78-26.46-40.3-50.39
				c0.12-5.83-7.12-8.36-11.13-4.61c-7.2,6.75-19.79,7.49-27.49,1.08c-7.5-6.24-8.34-18.58-2.05-25.92
				c-3.07-3.07-6.15-6.15-9.22-9.22c-5.05,6.17-13.37,9.22-21.15,6.68c-7.38-2.41-13.05-10.46-11.87-18.36
				c1.22-8.15-9.81-11.59-12.57-3.47c-6.32,18.61-38.05,23.3-49.79,7.62c-4.47-5.97-13.16-2.47-11.91,5.02
				c3.45,20.79-21,32.18-37.32,22.47c-5.11-3.04-10.74,1.96-9.58,7.36c1.86,8.64-2.96,17.9-10.95,21.62
				c-8.31,3.88-18.58,1.45-24.8-5.02c-3.24-3.36-9.93-1.97-10.9,2.88c-3.72,18.62-20.45,32.75-39.34,34.02
				c-3.38,0.23-6.7,2.8-6.52,6.52c0.19,3.95-3.63,6.18-7.24,6.65c-5.09,0.66-9-3.07-10.61-7.63c-2.04-5.77-0.72-11.79,2.18-17
				c3.49-6.26,9.18-10.17,13.22-15.83c2.04-2.85,1.01-5.81,1.14-9.05c0.1-2.36,0.62-4.67,1.4-6.89c1.76-5.04,5.08-9.4,9-12.96
				c8.14-7.39,19.56-10.85,30.25-7.8c5.12,1.46,10.77-4.81,7.36-9.58c-7.37-10.3-7.63-25.04,1.37-34.59
				c8.19-8.69,22.39-11.71,33.42-7.05c4.29,1.81,9.94-0.18,9.81-5.63c-0.2-8.16,6.53-15.59,14.78-16.09
				c8.01-0.48,16.18,6.17,16.7,14.28c0.46,7.23,10.6,8.98,12.8,1.73c4.13-13.56,18.23-22.77,32.28-21.91
				c14.23,0.87,26.37,12.08,28.85,25.95c0.96,5.38,9.57,6.47,11.91,1.56c5.41-11.33,18.5-18.25,30.98-15.69
				c12.85,2.64,22.04,14.8,21.23,27.8c-0.39,6.18,7.14,7.87,11.13,4.61c9.21-7.52,24.75-7.07,33.35,1.21
				c8.58,8.27,8.7,22.88,0.76,31.58c-4.01,4.4-0.16,13.38,6.34,10.9c10-3.82,22.78-1.05,28.58,8.55c5.5,9.1,1.84,21.59-6.77,27.33
				c-5.82,3.88-2.35,14.42,5.02,11.91c6.7-2.28,17.37,2.26,16.61,10.6c-0.64,7.01-10.43,11.72-16.58,8.98
				C595.15,692.21,588.51,703.44,596.17,706.85L596.17,706.85z"/>
		</g>
	</g>
	<g>
		<g>
			<path d="M403.74,880.71c22.67,15.96,57.47,11.91,75.47-9.34c5.39-6.37-3.79-15.63-9.22-9.22c-14.52,17.14-41.41,20.15-59.67,7.3
				C403.44,864.62,396.92,875.92,403.74,880.71L403.74,880.71z"/>
		</g>
	</g>
	<g>
		<g>
			<path d="M396.81,867.31c-27.02,10.63-46.71,33.56-61.84,57.57c-18.81,29.82-31.96,63.24-42.55,96.75
				c-10.76,34.01-18.81,68.92-24.46,104.14c-4.33,27.03-7.97,54.75-7.2,82.18c0.22,7.64,0.5,15.95,3.12,23.22
				c4.25,11.83,18.29,13.29,29.46,14.25c6.17,0.53,12.4,0.38,18.59,0.37c8.39,0,8.4-13.04,0-13.04c-10.98,0-21.34,0.01-31.92-3.23
				c-1.45-0.45-2.91-0.9-4.34-1.41c-0.82-0.29,1.65,0.95,0.98,0.4c-0.92-0.77,1.48,1.38,0.38,0.29c-1.11-1.1,0.71,1.42,0.15,0.24
				c-0.22-0.47-0.52-0.97-0.79-1.42c-0.7-1.19,0.48,1.67-0.05-0.19c-0.17-0.59-0.38-1.16-0.55-1.75c-0.42-1.51-0.7-3.04-0.98-4.58
				c-0.07-0.4-0.13-0.8-0.19-1.2c-0.24-1.48,0.19,1.58,0,0.05c-0.11-0.9-0.21-1.8-0.3-2.7c-0.21-2.17-0.35-4.36-0.45-6.54
				c-1.11-24.81,1.87-49.99,5.55-74.48c5.04-33.58,12.34-66.88,21.97-99.45c9.59-32.44,21.44-64.55,38.11-94.07
				c14.21-25.16,34.04-52.3,60.75-62.81C407.99,876.85,404.63,864.24,396.81,867.31L396.81,867.31z"/>
		</g>
	</g>
	<g>
		<g>
			<path d="M322.3,1029.26c-8.23,52.78-16.6,105.96-16.89,159.51c-0.02,3.66,3.01,6.33,6.52,6.52c66.58,3.5,133.44,1.14,199.92-3.39
				c18.42-1.26,36.82-2.72,55.21-4.35c3.75-0.33,6.19-2.73,6.52-6.52c4.94-56.99-5.75-113.76-14.48-169.85
				c-1.29-8.27-13.85-4.76-12.57,3.47c8.56,54.98,18.86,110.52,14.02,166.38c2.17-2.17,4.35-4.35,6.52-6.52
				c-66.41,5.89-133.11,9.76-199.8,9.32c-18.45-0.12-36.9-0.61-55.32-1.58c2.17,2.17,4.35,4.35,6.52,6.52
				c0.28-52.4,8.37-104.39,16.42-156.04c0.55-3.51-0.9-6.97-4.55-8.02C327.23,1023.82,322.84,1025.78,322.3,1029.26L322.3,1029.26z"
				/>
		</g>
	</g>
	<g>
		<g>
			<path d="M479.45,875.53c-1.71-0.2,0.82,0.15,1.16,0.23c0.8,0.19,1.59,0.37,2.38,0.59c0.72,0.21,1.42,0.45,2.13,0.69
				c0.36,0.12,0.71,0.26,1.07,0.4c1.41,0.55-0.7-0.34,0.58,0.25c3.43,1.58,6.66,3.59,9.68,5.85c6.22,4.64,13.33,12.37,18.71,19.23
				c15.28,19.45,26.82,41.98,37.02,64.41c25.42,55.93,42.86,116.28,53.28,176.77c5.25,30.49,8.66,61.63,7.26,92.59
				c2.75-2.1,5.5-4.19,8.25-6.29c-2.6-1.06-6.15-0.6-8.88-0.43c-4.82,0.3-9.62,0.83-14.42,1.33c-8.67,0.89-18.1,2.72-26.82,1.6
				c-3.52-0.45-6.49,3.32-6.52,6.52c-0.04,3.89,3.04,6.07,6.52,6.52c8.35,1.08,17.37-0.63,25.67-1.48c4.6-0.47,9.2-0.97,13.81-1.32
				c1.82-0.14,3.66-0.28,5.49-0.28c0.57,0,1.13,0.01,1.69,0.03c1.44,0.06-1.4-0.48-0.01,0.08c4.15,1.69,8.08-2.51,8.25-6.29
				c1.28-28.35-1.57-56.8-5.89-84.8c-4.97-32.2-12.3-64.04-21.4-95.31c-8.89-30.57-19.52-60.67-32.35-89.82
				c-10.52-23.91-22.52-47.68-38.3-68.6c-11.98-15.88-27.47-33.06-48.37-35.52c-3.53-0.42-6.48,3.29-6.52,6.52
				C472.89,872.88,475.97,875.12,479.45,875.53L479.45,875.53z"/>
		</g>
	</g>
	<g>
		<g>
			<path d="M274.93,1237.75c-3.08,21.52,13.84,48.38,37,49.23c8.39,0.31,8.38-12.73,0-13.04c-13.89-0.51-26.29-19.72-24.43-32.73
				c0.5-3.51-0.87-6.96-4.55-8.02C279.9,1232.32,275.43,1234.27,274.93,1237.75L274.93,1237.75z"/>
		</g>
	</g>
	<g>
		<g>
			<path d="M311.66,1191.63c0.57,69.67,1.15,139.34,1.72,209.01c0.03,3.42,2.96,6.66,6.52,6.52c33.89-1.34,67.77-2.67,101.66-4.01
				c2.75-0.11,5.66-1.94,6.29-4.79c7.38-33.48,15.06-66.9,20.88-100.69c-4.19,0-8.38,0-12.57,0c6.35,33.16,14.32,66.17,17.49,99.84
				c0.32,3.36,2.73,6.72,6.52,6.52c36.03-1.88,72.13-1.28,108.17-3.16c3.4-0.18,6.68-2.84,6.52-6.52
				c-3.11-71.08-3.38-142.25-6.49-213.33c-0.37-8.36-13.4-8.4-13.04,0c3.11,71.08,3.38,142.25,6.49,213.33
				c2.17-2.17,4.35-4.35,6.52-6.52c-36.04,1.88-72.14,1.29-108.17,3.16c2.17,2.17,4.35,4.35,6.52,6.52
				c-3.28-34.85-11.38-68.99-17.95-103.3c-1.18-6.16-11.49-6.29-12.57,0c-5.81,33.8-13.5,67.22-20.88,100.69
				c2.1-1.6,4.19-3.19,6.29-4.79c-33.89,1.34-67.77,2.67-101.66,4.01c2.17,2.17,4.35,4.35,6.52,6.52
				c-0.57-69.67-1.15-139.34-1.72-209.01C324.63,1183.25,311.59,1183.23,311.66,1191.63L311.66,1191.63z"/>
		</g>
	</g>
	<g>
		<g>
			<path d="M569.49,1286.74c12.21,2.8,25.6,1.2,34.68-8.18c9.04-9.35,10.61-22.61,7.95-34.86c-1.78-8.19-14.35-4.73-12.57,3.47
				c1.66,7.63,1.06,16.27-4.6,22.18c-5.75,5.99-14.3,6.59-21.99,4.83C564.78,1272.3,561.3,1284.87,569.49,1286.74L569.49,1286.74z"
				/>
		</g>
	</g>
	<g>
		<g>
			<path d="M326.35,1400.13c6.17,59.46,15.12,118.59,21.29,178.05c0.86,8.26,13.9,8.35,13.04,0
				c-6.17-59.46-15.12-118.59-21.29-178.05C338.53,1391.87,325.48,1391.78,326.35,1400.13L326.35,1400.13z"/>
		</g>
	</g>
	<g>
		<g>
			<path d="M407.14,1402.14c-3.13,73.35-6.25,146.71-9.38,220.06c2.17-2.17,4.35-4.35,6.52-6.52c-23.76,2.49-47.56,4.64-71.44,5.58
				c-24.62,0.96-49.27,0.85-73.91,0.85c2.17,2.17,4.35,4.35,6.52,6.52c-0.67-18.33,14.66-27.4,30.82-32.02
				c22.13-6.33,45.94-6.52,68.77-5.72c12.33,0.43,24.65,1.36,36.92,2.59c8.34,0.84,8.28-12.2,0-13.04
				c-24.51-2.47-49.31-3.88-73.92-2.08c-21.58,1.58-47.12,4.97-63.65,20.4c-8.32,7.76-12.39,18.57-11.98,29.87
				c0.13,3.52,2.88,6.52,6.52,6.52c24.63,0,49.29,0.12,73.91-0.85c23.88-0.93,47.68-3.09,71.44-5.58c3.63-0.38,6.36-2.68,6.52-6.52
				c3.13-73.35,6.25-146.71,9.38-220.06C420.53,1393.75,407.49,1393.77,407.14,1402.14L407.14,1402.14z"/>
		</g>
	</g>
	<g>
		<g>
			<path d="M468.08,1402.14c4,62.78,10.41,125.67,18.5,188.05c1.1,8.47,1.94,17.15,3.83,25.5c0.89,3.93,3.01,6.95,6.38,9.16
				c7.82,5.12,19.6,3.26,28.32,2.68c38.07-2.54,76.05-6.74,114.06-10.03c4.63-0.4,6.89-3.82,6.29-8.25
				c-2.59-18.92-21.87-29.22-38.2-34.61c-22.61-7.46-47.45-9.1-71.11-8.29c-13.67,0.47-27.36,1.94-40.77,4.67
				c-8.21,1.68-4.74,14.25,3.47,12.57c21.5-4.39,43.84-5.3,65.7-3.66c19.05,1.43,40.37,4.58,56.58,15.44
				c6.42,4.3,10.74,9.82,11.77,17.34c2.1-2.75,4.19-5.5,6.29-8.25c-35.34,3.06-70.65,6.62-106.01,9.43
				c-7.13,0.57-14.31,1.19-21.47,1.14c-1.1-0.01-2.2-0.03-3.29-0.1c-0.42-0.03-0.85-0.08-1.27-0.1c-1.74-0.06,0.3,0.08,0.1,0.04
				c-0.69-0.15-1.4-0.3-2.1-0.43c-1.33-0.25-1.62-0.92-0.28,0c-0.42-0.29-0.96-0.42-1.35-0.77c-0.8-0.72,1.13,1.51,0-0.07
				c-0.22-0.3-0.7-0.87-1.01-1.06c0,0,1.1,2.98,0.87,1.24c-0.86-6.44-2.43-13.76-3.21-19.56c-3.89-28.99-6.92-58.11-9.87-87.22
				c-3.54-34.9-6.94-69.85-9.16-104.86C480.59,1393.81,467.55,1393.75,468.08,1402.14L468.08,1402.14z"/>
		</g>
	</g>
	<g>
		<g>
			<path d="M547.71,1566.73c-0.3-56.29,7.68-112.27,7.38-168.55c-0.04-8.39-13.08-8.4-13.04,0c0.3,56.29-7.68,112.27-7.38,168.55
				C534.72,1575.12,547.75,1575.13,547.71,1566.73L547.71,1566.73z"/>
		</g>
	</g>
	<g>
		<g>
			<path d="M394.57,852.36c0.58,5.55,1.16,11.11,1.74,16.66c0.37,3.5,2.73,6.52,6.52,6.52c3.24,0,6.89-3,6.52-6.52
				c-0.58-5.55-1.16-11.11-1.74-16.66c-0.37-3.5-2.73-6.52-6.52-6.52C397.85,845.84,394.2,848.83,394.57,852.36L394.57,852.36z"/>
		</g>
	</g>
	<g>
		<g>
			<path d="M464.1,847.36c0.58,7.22,1.16,14.44,1.74,21.65c0.67,8.31,13.71,8.38,13.04,0c-0.58-7.22-1.16-14.44-1.74-21.65
				C476.47,839.05,463.43,838.98,464.1,847.36L464.1,847.36z"/>
		</g>
	</g>
	<g>
		<g>
			<path d="M271.27,701.32c-16.43-0.74-35.77,5.08-39.93,23.13c-2.44,10.59,0.21,20.74,9.31,27.12c8.72,6.12,19.96,6.9,29.6,2.77
				c7.69-3.29,1.06-14.53-6.58-11.26c-5.16,2.21-12.2,0.6-16.47-2.8c-4.8-3.82-4.59-10.79-2.1-15.97
				c4.45-9.27,17.18-10.36,26.18-9.96C279.66,714.74,279.64,701.7,271.27,701.32L271.27,701.32z"/>
		</g>
	</g>
	<g>
		<g>
			<path d="M594.46,718.59c4.36-1.72,8.79-0.63,11.83,3.07c2.99,3.65,2.63,8.88,1.29,13.17c-2.34,7.52-10.05,7.65-16.79,6.68
				c-3.51-0.51-6.96,0.87-8.02,4.55c-0.88,3.05,1.07,7.52,4.55,8.02c7.23,1.04,14.8,1.52,21.57-1.77
				c6.44-3.14,10.48-9.43,11.81-16.36c1.67-8.68,0.77-17.39-5.63-23.97c-6.15-6.31-15.69-9.29-24.08-5.97
				C583.28,709.07,586.64,721.69,594.46,718.59L594.46,718.59z"/>
		</g>
	</g>
	<g>
		<g>
			<path d="M419.73,720.63c-11.73-0.73-22.23,11.71-17.58,23.05c4.03,9.83,17.44,13.71,26.23,7.86c6.95-4.63,0.43-15.92-6.58-11.26
				c-2.1,1.4-6.15,1.56-7.5-1.27c-1.53-3.19,2.81-5.51,5.43-5.35C428.1,734.19,428.07,721.15,419.73,720.63L419.73,720.63z"/>
		</g>
	</g>
	<g>
		<g>
			<path d="M274.31,702.48c23.32-0.13,45.76-16.52,50.7-39.75c-3.19,1.3-6.38,2.6-9.58,3.9c11.75,8.62,29.21,9.43,41.46,1.31
				c12.34-8.18,18.24-23.36,14.62-37.7c-3.63,2.11-7.26,4.23-10.9,6.34c9.94,11.93,27.86,15.59,41.87,9.18
				c14.45-6.61,22.07-23.51,18.16-38.73c-3.97,1.67-7.94,3.35-11.91,5.02c9.22,12.35,24.28,18.66,39.58,15.95
				c14.63-2.59,26.96-14.47,30.27-28.9c1.92-8.39-9.45-11.05-12.57-3.47c-5.39,13.07,1.09,29.26,13.73,35.41
				c13.35,6.5,29.53,1.72,37.99-10.14c4.33-6.06-5.21-13.21-10.24-7.9c-11.96,12.65-11.31,34.22,2.64,45.25
				c13.22,10.46,34.75,8.34,45.4-4.88c-3.41-2.63-6.83-5.27-10.24-7.9c-12.07,27.46,17.23,59.62,43.76,62.93
				c3.52,0.44,6.49-3.31,6.52-6.52c0.04-3.88-3.04-6.08-6.52-6.52c-10.07-1.26-19.33-9.1-25.31-16.84
				c-5.25-6.8-11.04-17.73-7.2-26.48c1.32-3.01,1.09-6.27-1.68-8.41c-2.34-1.81-6.52-2.03-8.56,0.51
				c-6.33,7.86-18.84,10.58-27.39,4.47c-8.42-6.02-9.18-19.04-2.21-26.4c-3.41-2.63-6.83-5.27-10.24-7.9
				c-4.57,6.4-14.47,8.51-21.34,4.86c-7.32-3.89-9.57-12.76-6.55-20.08c-4.19-1.16-8.38-2.31-12.57-3.47
				c-4.76,20.76-33.04,27.23-46.02,9.84c-4.21-5.64-13.88-2.61-11.91,5.02c2.46,9.55-2.77,20.21-12.03,23.92
				c-9.27,3.71-19.96,0.46-26.21-7.05c-4.37-5.25-12.38,0.45-10.9,6.34c2.29,9.07-1.74,18.97-9.86,23.74
				c-8.58,5.04-19.26,3.65-27.08-2.08c-3.31-2.43-8.76,0.07-9.58,3.9c-3.75,17.65-20.28,30.09-38.13,30.18
				C265.92,689.49,265.9,702.53,274.31,702.48L274.31,702.48z"/>
		</g>
	</g>
	<ellipse class="st11" cx="373.54" cy="717.21" rx="9.77" ry="20.24"/>
	<ellipse class="st11" cx="462.59" cy="717.21" rx="9.77" ry="20.24"/>
	<g>
		<g>
			<path d="M243.26,756.75c1.33,18.28,15.82,31.84,33.69,33.93c8.32,0.97,8.25-12.07,0-13.04c-10.43-1.22-19.88-10.3-20.65-20.89
				C255.69,748.43,242.65,748.36,243.26,756.75L243.26,756.75z"/>
		</g>
	</g>
	<g>
		<g>
			<path d="M578.85,784.6c17.89-2.34,32.08-15.58,33.97-33.81c0.86-8.34-12.18-8.28-13.04,0c-1.08,10.46-10.65,19.43-20.93,20.77
				c-3.52,0.46-6.48,2.67-6.52,6.52C572.3,781.26,575.36,785.06,578.85,784.6L578.85,784.6z"/>
		</g>
	</g>
	<g>
		<g>
			<path d="M245.98,699.24c-14.71-10.38-8.83-36.43,7.65-41.43c3.11-0.94,5.86-4.66,4.55-8.02c-3.91-10.01-1.88-21.53,6.39-28.79
				c8.07-7.08,19.62-8.19,29.42-4.49c5.97,2.26,9.35-4.99,7.36-9.58c-9.44-21.82,15.34-47.56,37.29-43.93
				c4.34,0.72,7.96-1.74,8.25-6.29c0.6-9.38,8.86-17.43,18.09-18.57c10.09-1.25,20.19,5.75,22.78,15.45
				c1.72,6.43,10.63,5.96,12.57,0c4.13-12.7,17.49-21.23,30.72-20.39c12.86,0.82,24.26,10.41,27.28,22.87
				c1.35,5.55,9.11,6.24,11.91,1.56c6.75-11.28,21.13-17.6,34.05-14.72c13.28,2.97,23.76,14.89,24.06,28.62
				c0.1,4.48,5.64,8.73,9.81,5.63c10.02-7.46,25.2-7.92,34.73,0.81c8.98,8.23,9.83,23.34,1.98,32.62
				c-3.79,4.48-0.33,13.33,6.34,10.9c9.57-3.5,21.55-1.25,27.8,7.34c6.35,8.72,4.02,20.81-3.59,27.86
				c-4.5,4.17-0.64,10.63,4.61,11.13c9.92,0.93,19.34,9.75,19.28,20.02c-0.05,10.83-9.66,18.65-19.69,20.06
				c-3.51,0.49-5.37,4.93-4.55,8.02c0.99,3.76,4.55,5.04,8.02,4.55c16.05-2.26,30.15-17.36,29.23-33.98
				c-0.95-17.27-15.63-30.14-32.29-31.71c1.54,3.71,3.07,7.42,4.61,11.13c11.81-10.94,14.92-30.28,5.53-43.78
				c-9.2-13.23-27.34-18.72-42.43-13.21c2.11,3.63,4.23,7.26,6.34,10.9c12.12-14.31,12.35-36.36-1-50.1
				c-13.11-13.49-36.53-14.94-51.5-3.8c3.27,1.88,6.54,3.75,9.81,5.63c-0.43-19.29-14.69-36.96-33.64-41.19
				c-18.65-4.17-38.94,4.28-48.77,20.71c3.97,0.52,7.94,1.04,11.91,1.56c-4.4-18.17-21.36-31.41-39.85-32.44
				c-19.15-1.07-37.42,11.9-43.29,29.96c4.19,0,8.38,0,12.57,0c-4.22-15.8-20.48-26.82-36.74-24.85
				c-16.04,1.93-28.71,15.37-29.74,31.44c2.75-2.1,5.5-4.19,8.25-6.29c-33.84-5.6-66.16,30.35-52.01,63.08
				c2.45-3.19,4.91-6.38,7.36-9.58c-14.13-5.34-30.86-2.26-42.1,7.85c-11.32,10.17-15.25,27.36-9.75,41.47
				c1.52-2.67,3.04-5.35,4.55-8.02c-27.85,8.46-34.58,48.46-10.76,65.26C246.27,715.34,252.79,704.04,245.98,699.24L245.98,699.24z"
				/>
		</g>
	</g>
	<g>
		<g>
			<path d="M269.26,695.96c-1.71,25.61-7.35,52.52,2.15,78.02c13.19,35.39,45.28,62.22,81.52,71.47c19.4,4.95,39.66,5.94,59.61,5.69
				c18.75-0.23,37.54-1.22,56.13-3.76c34.09-4.66,70.46-15.76,93.42-43.03c11.6-13.78,18.27-31.55,23.22-48.64
				c5.03-17.39,8.48-35.67,8.79-53.81c0.11-6.5-9.98-6.5-10.09,0c-0.26,14.88-2.84,29.71-6.52,44.11
				c-3.87,15.13-8.99,30.36-17.23,43.72c-17.3,28.03-51.41,40.44-82.26,46.04c-16.95,3.08-34.2,4.3-51.4,4.93
				c-18.83,0.69-37.92,0.88-56.59-2.04c-18.02-2.83-35.43-8.59-50.4-19.23c-14.54-10.35-26.94-24.2-34.97-40.17
				c-13.54-26.93-7.13-55.62-5.29-83.28C279.79,689.48,269.69,689.51,269.26,695.96L269.26,695.96z"/>
		</g>
	</g>
	<g class="st12">
		<path d="M407.84,868.96c19.81-7.71,39.62-15.43,59.43-23.14c-19.56,5.26-40.23,6.68-60.37,4.17c1.01,5.32,2.02,10.64,3.03,15.96"
			/>
		<g>
			<path d="M409.58,875.24c19.81-7.71,39.62-15.43,59.43-23.14c7.65-2.98,4.84-14.75-3.47-12.57c-19.22,5.04-38.91,6.27-58.63,3.93
				c-4.55-0.54-6.98,4.57-6.29,8.25c1.01,5.32,2.02,10.64,3.03,15.96c1.56,8.23,14.13,4.75,12.57-3.47
				c-1.01-5.32-2.02-10.64-3.03-15.96c-2.1,2.75-4.19,5.5-6.29,8.25c20.8,2.47,41.84,0.91,62.1-4.4c-1.16-4.19-2.31-8.38-3.47-12.57
				c-19.81,7.71-39.62,15.43-59.43,23.14C398.38,865.68,401.74,878.29,409.58,875.24L409.58,875.24z"/>
		</g>
	</g>
	<g class="st12">
		<path d="M275.52,707.31c-1.47,37.26,21.75,73.04,54.28,93.5c32.52,20.47,73.02,26.98,111.82,24.22
			c38.8-2.75,76.36-14.16,112.83-27.16c-35.72,36.64-93.72,41.1-146,43.15c-27.9,1.1-57.43,1.84-81.81-11.19
			c-20.21-10.81-34.34-30.05-42.88-50.66c-8.54-20.61-12.06-42.76-15.51-64.69"/>
		<g>
			<path d="M269,707.31c-1.32,43.08,26.77,81.93,63.24,102.55c42.01,23.75,92.44,25.99,139.06,18.04
				c29.03-4.95,57.19-13.9,84.88-23.75c-2.11-3.63-4.23-7.26-6.34-10.9c-31.6,31.95-79.44,37.86-122.15,40.34
				c-23.8,1.38-48.78,3.53-72.36-0.9c-23.76-4.46-43.05-17.39-56.07-37.78c-15.68-24.55-20.26-53.9-24.72-82.16
				c-1.3-8.26-13.87-4.76-12.57,3.47c4.33,27.44,8.99,55.5,22.86,80c12.37,21.84,31.38,38.89,55.6,46.27
				c25.07,7.64,52.17,5.84,77.99,4.63c24.03-1.13,48.26-3.02,71.73-8.59c25.61-6.07,50.21-17.13,68.92-36.05
				c4.35-4.4,0-13.15-6.34-10.9c-44.88,15.96-91.79,29.8-139.94,27.21c-41.44-2.23-83.91-17.39-110.02-51.08
				c-13.38-17.27-21.39-38.44-20.72-60.4C282.3,698.91,269.26,698.92,269,707.31L269,707.31z"/>
		</g>
	</g>
	<g class="st12">
		<path d="M247.88,721.25c2.43,9.84,11.69,17.79,22.17,19.02c-5.36,4.22-13.67,4.55-19.37,0.77c-5.71-3.78-8.33-11.33-6.12-17.63"/>
		<g>
			<path d="M241.59,722.98c3.45,12.29,14.06,21.71,26.72,23.58c-0.52-3.97-1.04-7.94-1.56-11.91c-7.46,5.28-18.91,0.57-15.92-9.5
				c2.39-8.06-10.19-11.5-12.57-3.47c-6.08,20.49,18.03,36.28,35.07,24.22c3.98-2.82,4.55-11.01-1.56-11.91
				c-8.28-1.22-15.29-6.19-17.62-14.47C251.9,711.45,239.32,714.88,241.59,722.98L241.59,722.98z"/>
		</g>
	</g>
	<g class="st12">
		<path d="M258.17,757.47c0.79,7.46,5.56,14.44,12.38,18.12"/>
		<g>
			<path d="M251.65,757.47c1.33,10.1,6.65,18.64,15.61,23.74c7.3,4.16,13.88-7.1,6.58-11.26c-4.57-2.6-8.44-7.09-9.15-12.49
				c-0.46-3.49-2.67-6.52-6.52-6.52C255,750.95,251.19,753.96,251.65,757.47L251.65,757.47z"/>
		</g>
	</g>
	<g class="st12">
		<path d="M581.8,761.51c-1.75,3.68-3.49,7.36-5.24,11.05"/>
		<g>
			<path d="M576.17,758.22c-1.75,3.68-3.49,7.36-5.24,11.05c-1.51,3.18-0.88,7.03,2.34,8.92c2.84,1.66,7.4,0.86,8.92-2.34
				c1.75-3.68,3.49-7.36,5.24-11.05c1.51-3.18,0.88-7.03-2.34-8.92C582.26,754.22,577.69,755.02,576.17,758.22L576.17,758.22z"/>
		</g>
	</g>
	<g class="st12">
		<path d="M387.72,551.2c-57.55,18.52-102.77,68.48-113.78,125.69c-1.95,10.15-4.5,22.47-14.67,25.87
			c-11.24,3.75-22.86-8.47-21.76-19.82c1.1-11.35,10.59-20.34,20.73-26.31c-4.69-9.46-2.83-21.54,4.5-29.3
			c7.33-7.76,19.69-10.74,29.98-7.21c-0.94-28.51,24.64-55.44,54.35-57.22c-0.47-10.24,7.1-20.31,17.38-23.13
			c10.28-2.82,22.27,1.9,27.51,10.83"/>
		<g>
			<path d="M385.99,544.91c-33.73,11.03-63.79,32.05-85.63,60.04c-10.64,13.64-19.22,28.6-25.41,44.76
				c-3.08,8.03-5.47,16.3-7.15,24.74c-1.31,6.57-2.19,16.39-8.03,20.76c-7.04,5.27-15.46-3.08-15.79-10.3
				c-0.48-10.15,9.87-18.01,17.55-22.65c3.23-1.95,3.83-5.67,2.34-8.92c-8-17.45,10.94-31.97,27.11-26.94
				c4.01,1.25,8.33-2.15,8.25-6.29c-0.47-26.06,22.22-48.82,47.83-50.71c3.49-0.26,6.56-2.78,6.52-6.52
				c-0.19-17.63,23.59-23.48,32.75-9.01c4.48,7.07,15.76,0.54,11.26-6.58c-7.17-11.32-21.08-17.15-34.2-13.99
				c-13.35,3.22-22.99,15.96-22.84,29.58c2.17-2.17,4.35-4.35,6.52-6.52c-32.54,2.4-61.47,30.25-60.87,63.74
				c2.75-2.1,5.5-4.19,8.25-6.29c-12.67-3.95-27.81-0.67-36.8,9.43c-9.1,10.22-10.66,24.39-5.04,36.66
				c0.78-2.97,1.56-5.95,2.34-8.92c-16.31,9.86-32.72,30.16-18.63,48.83c5.81,7.7,15.78,12.37,25.29,8.98
				c9.04-3.22,13.84-11.59,16.39-20.37c2.6-8.96,3.8-18.22,6.66-27.14c2.9-9.05,6.69-17.76,11.26-26.1
				c9.41-17.19,21.89-32.48,36.63-45.36c16.55-14.46,36.01-25.52,56.89-32.34C397.4,554.89,394,542.29,385.99,544.91L385.99,544.91z
				"/>
		</g>
	</g>
	<g class="st12">
		<path d="M396.66,881.34c-92.2,89.43-129.39,227.48-93.9,348.5c-9.34-0.52-18.68-1.05-28.02-1.57
			c-7.9-125.59,39.22-253.53,127.64-346.54"/>
		<g>
			<path d="M392.05,876.73c-72.06,70.22-112.37,170.9-108.87,271.46c0.98,28.2,5.42,56.29,13.29,83.38c2.1-2.75,4.19-5.5,6.29-8.25
				c-9.34-0.52-18.68-1.05-28.02-1.57c2.17,2.17,4.35,4.35,6.52,6.52c-5.94-97.24,21.04-194.93,74.07-276.48
				c15.19-23.36,32.5-45.23,51.66-65.45c5.77-6.09-3.43-15.33-9.22-9.22c-69.23,73.08-114.11,167.62-126.82,267.48
				c-3.53,27.74-4.44,55.76-2.73,83.67c0.22,3.67,2.81,6.31,6.52,6.52c9.34,0.52,18.68,1.05,28.02,1.57
				c4.23,0.24,7.42-4.36,6.29-8.25c-27.11-93.25-10.63-196.02,40.57-278.09c14.58-23.38,31.93-44.84,51.66-64.06
				C407.28,880.08,398.06,870.87,392.05,876.73L392.05,876.73z"/>
		</g>
	</g>
	<g class="st12">
		<path d="M333.71,1037.84c-3.94,48.09,33.84,92.13,79.28,112.9c45.44,20.77,97.31,23.23,147.6,25.34
			c-79.67,5.45-159.61,7.42-239.47,5.91c-5.62-45.35-4.25-91.49,4.08-136.45"/>
		<g>
			<path d="M327.19,1037.84c-2.69,36.69,17.24,70.77,44.42,94.04c31.84,27.27,72.51,39.49,113.41,45.06
				c25.06,3.41,50.32,4.6,75.57,5.66c0-4.35,0-8.69,0-13.04c-79.7,5.42-159.6,7.39-239.47,5.91c2.17,2.17,4.35,4.35,6.52,6.52
				c-5.46-44.82-4.28-90.29,3.84-134.72c1.5-8.2-11.06-11.72-12.57-3.47c-8.34,45.6-9.92,92.15-4.31,138.19
				c0.43,3.55,2.64,6.45,6.52,6.52c79.87,1.48,159.77-0.49,239.47-5.91c8.33-0.57,8.45-12.68,0-13.04
				c-73.43-3.08-165.42-8.16-207.4-79.23c-9.44-15.98-14.32-33.91-12.95-52.5C340.85,1029.47,327.81,1029.51,327.19,1037.84
				L327.19,1037.84z"/>
		</g>
	</g>
	<g class="st12">
		<path d="M559.57,1022.53c2.01,72.45,17.51,144.54,45.55,211.85c-10.78-1.84-21.56-3.69-32.34-5.53
			c-4.92-65.41-9.85-130.82-14.77-196.22"/>
		<g>
			<path d="M553.05,1022.53c2.15,73.28,17.7,145.87,45.78,213.59c2.67-2.67,5.35-5.35,8.02-8.02c-10.78-1.84-21.56-3.69-32.34-5.53
				c1.6,2.1,3.19,4.19,4.79,6.29c-4.92-65.41-9.85-130.82-14.77-196.22c-0.63-8.31-13.67-8.38-13.04,0
				c4.92,65.41,9.85,130.82,14.77,196.22c0.2,2.64,1.86,5.79,4.79,6.29c10.78,1.84,21.56,3.69,32.34,5.53
				c4.25,0.73,10.13-2.93,8.02-8.02c-27.65-66.67-43.2-137.95-45.32-210.12C565.84,1014.16,552.8,1014.12,553.05,1022.53
				L553.05,1022.53z"/>
		</g>
	</g>
	<g class="st12">
		<path d="M331.9,1205.81c15.82,65.48,44.93,127.99,85.21,183.01c-29.76-4.45-60.22-4.56-90.02-0.34
			c-0.49-60.91-0.98-121.82-1.48-182.73"/>
		<g>
			<path d="M325.62,1207.54c16.17,66.43,45.59,129.36,85.87,184.57c2.45-3.19,4.91-6.38,7.36-9.58
				c-31.12-4.55-62.33-4.65-93.48-0.34c2.75,2.1,5.5,4.19,8.25,6.29c-0.49-60.91-0.98-121.82-1.48-182.73
				c-0.07-8.39-13.11-8.41-13.04,0c0.49,60.91,0.98,121.82,1.48,182.73c0.04,4.67,4.11,6.86,8.25,6.29
				c28.63-3.97,57.95-3.85,86.55,0.34c4.88,0.71,11.13-4.41,7.36-9.58c-39.69-54.39-68.62-116.01-84.56-181.46
				C336.2,1195.93,323.63,1199.38,325.62,1207.54L325.62,1207.54z"/>
		</g>
	</g>
	<g class="st12">
		<path d="M339.6,1407.74c9.13,57.4,39.98,116.32,58.06,169.86c-13.16-0.57-26.33-1.15-39.49-1.72
			C356.83,1525.5,340.94,1458.11,339.6,1407.74"/>
		<g>
			<path d="M334.15,1409.24c9.68,59.51,38.84,113.28,58.06,169.86c1.82-2.39,3.64-4.77,5.45-7.16c-13.16-0.57-26.33-1.15-39.49-1.72
				c1.88,1.88,3.77,3.77,5.65,5.65c-1.65-56.48-16.92-111.66-18.57-168.14c-0.21-7.26-11.52-7.29-11.31,0
				c1.65,56.48,16.92,111.66,18.57,168.14c0.09,3.16,2.52,5.52,5.65,5.65c13.16,0.57,26.33,1.15,39.49,1.72
				c3.53,0.15,6.61-3.76,5.45-7.16c-19.22-56.58-48.38-110.35-58.06-169.86C343.89,1399.07,332.99,1402.11,334.15,1409.24
				L334.15,1409.24z"/>
		</g>
	</g>
	<g class="st12">
		<path d="M481.2,1405.65c12.7,58.06,26.69,111.07,59.99,161.09c-18.21-4.54-27.49-3.15-46.21-1.38
			c-9.83-48.45-14.94-97.79-15.23-147.15"/>
		<g>
			<path d="M474.91,1407.38c12.49,56.97,28.13,113.48,60.65,162.64c2.45-3.19,4.91-6.38,7.36-9.58
				c-16.24-3.94-31.47-3.19-47.94-1.61c2.1,1.6,4.19,3.19,6.29,4.79c-9.65-47.89-14.64-96.56-15-145.42c-0.06-8.39-13.1-8.4-13.04,0
				c0.36,49.99,5.59,99.87,15.47,148.88c0.52,2.56,3.61,5.04,6.29,4.79c15.25-1.46,29.44-2.5,44.48,1.14
				c5.22,1.27,10.64-4.63,7.36-9.58c-31.94-48.28-47.07-103.59-59.33-159.53C485.69,1395.72,473.12,1399.19,474.91,1407.38
				L474.91,1407.38z"/>
		</g>
	</g>
	<g class="st12">
		<path d="M296.38,1596.43c27.36,19.98,62.96,29.27,97.12,25.35c-43.19,0.79-86.38,1.57-129.57,2.36
			c8.28-11.24,18.95-20.86,31.17-28.1"/>
		<g>
			<path d="M293.09,1602.06c28.76,20.72,65.21,30.06,100.41,26.24c8.14-0.88,8.58-13.19,0-13.04c-43.19,0.79-86.38,1.57-129.57,2.36
				c1.88,3.27,3.75,6.54,5.63,9.81c7.82-10.43,17.7-19.04,28.83-25.76c7.18-4.33,0.63-15.61-6.58-11.26
				c-13.15,7.94-24.3,18.16-33.51,30.44c-3.03,4.04,1.08,9.89,5.63,9.81c43.19-0.79,86.38-1.57,129.57-2.36c0-4.35,0-8.69,0-13.04
				c-33.23,3.6-66.66-4.89-93.83-24.46C292.85,1585.89,286.34,1597.19,293.09,1602.06L293.09,1602.06z"/>
		</g>
	</g>
	<g class="st12">
		<path d="M506.81,1586.02c37.76,16.18,79.72,23.25,120.97,20.39c-27.68,3.46-55.35,6.93-83.03,10.39
			c-11.36,1.42-23.59,2.7-33.65-2.55s-15.37-19.86-7.06-27.42"/>
		<g>
			<path d="M503.52,1591.64c39.21,16.63,81.72,24.08,124.26,21.28c0-4.35,0-8.69,0-13.04c-26.36,3.3-52.72,6.6-79.08,9.9
				c-10.68,1.34-23.36,3.95-33.56-0.8c-5.86-2.73-12.25-11.79-6.5-17.54c5.94-5.94-3.27-15.16-9.22-9.22
				c-8.01,8.01-7.33,20.25-1.05,29.12c7.78,11,21.51,13.72,34.25,13.13c15.26-0.7,30.58-3.48,45.72-5.37
				c16.47-2.06,32.95-4.12,49.42-6.18c8.09-1.01,8.55-13.6,0-13.04c-40.1,2.64-80.64-3.79-117.68-19.5
				c-3.26-1.38-6.95-0.95-8.92,2.34C499.55,1585.45,500.28,1590.27,503.52,1591.64L503.52,1591.64z"/>
		</g>
	</g>
	<g class="st12">
		<path d="M449.82,1300.59c24.98,40.55,66.74,71.31,114.06,84.02c-27.97,2.47-55.94,4.93-83.91,7.4
			c-6.52,0.57-13.85,0.91-18.76-3.23c-4.44-3.74-5.39-9.91-6.06-15.54c-2.53-21.22-5.06-42.45-7.59-63.67"/>
		<g>
			<path d="M444.19,1303.88c26.57,42.72,69.53,73.8,117.95,87.01c0.58-4.27,1.16-8.54,1.73-12.8c-15.61,1.38-31.22,2.75-46.83,4.13
				c-7.48,0.66-14.96,1.32-22.44,1.98c-7.12,0.63-14.4,1.75-21.56,1.62c-6.2-0.11-9.4-2.55-10.73-8.62
				c-1.52-6.95-1.88-14.27-2.72-21.33c-1.84-15.43-3.68-30.87-5.52-46.3c-0.42-3.52-2.7-6.48-6.52-6.52
				c-3.2-0.03-6.94,3.02-6.52,6.52c2.07,17.36,4.14,34.73,6.21,52.09c1.59,13.35,1.34,30.72,16.66,35.84
				c7.01,2.35,14.73,1.14,21.91,0.51c8.46-0.75,16.91-1.49,25.37-2.24c17.56-1.55,35.12-3.1,52.69-4.65
				c7.01-0.62,9.23-10.76,1.73-12.8c-45.17-12.33-85.36-41.14-110.16-81.02C451.03,1290.19,439.74,1296.73,444.19,1303.88
				L444.19,1303.88z"/>
		</g>
	</g>
	<g class="st12">
		<path d="M572.18,1249.49c6.26,9.64,15.26,17.63,25.76,22.88c-7.04,4.47-15.99,6.1-24.25,4.39c-0.94-9.09-1.88-18.18-2.82-27.28"/>
		<g>
			<path d="M566.55,1252.78c7.14,10.7,16.65,19.32,28.1,25.22c0-3.75,0-7.5,0-11.26c-5.84,3.5-12.48,4.95-19.23,3.73
				c1.6,2.1,3.19,4.19,4.79,6.29c-0.94-9.09-1.88-18.18-2.82-27.28c-0.85-8.26-13.9-8.35-13.04,0c0.94,9.09,1.88,18.18,2.82,27.28
				c0.28,2.66,1.81,5.75,4.79,6.29c10.23,1.85,20.3,0.34,29.27-5.05c4.01-2.41,4.46-8.96,0-11.26c-9.46-4.87-17.5-11.66-23.43-20.54
				C573.17,1239.25,561.87,1245.77,566.55,1252.78L566.55,1252.78z"/>
		</g>
	</g>
	<g class="st12">
		<path d="M293.07,1250.73c8.85,6.04,17.71,12.08,26.56,18.12c-3.75,6.93-15.18,6.44-21,0.98c-5.82-5.46-7.51-13.69-8.92-21.38"/>
		<g>
			<path d="M289.78,1256.36c8.85,6.04,17.71,12.08,26.56,18.12c-0.78-2.97-1.56-5.95-2.34-8.92c-2.19,3.51-8.18,1.82-10.76-0.34
				c-5.09-4.25-6.12-12.43-7.24-18.51c-1.52-8.24-14.09-4.75-12.57,3.47c1.96,10.58,5.28,22.66,15.76,27.84
				c8.96,4.42,20.53,3,26.07-5.88c1.96-3.14,0.51-6.98-2.34-8.92c-8.85-6.04-17.71-12.08-26.56-18.12
				C289.41,1240.37,282.88,1251.66,289.78,1256.36L289.78,1256.36z"/>
		</g>
	</g>
	<g class="st13">
		<g>
			<path class="st14" d="M509.09,598.09c31.16,12.36,58.19,39.47,69.54,70.82c2.4,6.62,8.87,11.08,16.04,9.11
				c6.39-1.76,11.51-9.38,9.11-16.04c-14.92-41.23-47.19-72.94-87.75-89.03c-6.55-2.6-14.32,2.84-16.04,9.11
				C497.95,589.46,502.52,595.48,509.09,598.09L509.09,598.09z"/>
		</g>
	</g>
	<g class="st13">
		<g>
			<path class="st14" d="M546.35,720.16c4.03,12.58,2.16,24.59-5.69,35.86c-4.03,5.78-1.06,14.48,4.68,17.84
				c6.49,3.8,13.8,1.12,17.84-4.68c11.21-16.1,14.3-37.29,8.32-55.95c-2.15-6.7-9.05-11.03-16.04-9.11
				C548.87,705.94,544.19,713.43,546.35,720.16L546.35,720.16z"/>
		</g>
	</g>
	<g class="st13">
		<g>
			<path class="st14" d="M473.16,913.27c19.88,14.94,36.45,36.36,45.55,59.14c2.61,6.53,8.71,11.12,16.04,9.11
				c6.21-1.71,11.73-9.46,9.11-16.04c-12.03-30.12-31.63-55.26-57.53-74.72c-5.63-4.23-14.57-0.91-17.84,4.68
				C464.59,902.11,467.52,909.03,473.16,913.27L473.16,913.27z"/>
		</g>
	</g>
	<g class="st13">
		<g>
			<path class="st14" d="M566.26,1079.2c5.67,21.59,11.33,43.18,17,64.78c4.26,16.22,29.41,9.34,25.14-6.93
				c-5.67-21.59-11.33-43.18-17-64.78C587.14,1056.05,561.99,1062.93,566.26,1079.2L566.26,1079.2z"/>
		</g>
	</g>
	<g class="st13">
		<g>
			<path class="st14" d="M513.85,1224.24c3.32,39.15,6.63,78.29,9.95,117.44c0.59,7.02,5.57,13.04,13.04,13.04
				c6.59,0,13.64-5.98,13.04-13.04c-3.32-39.15-6.63-78.29-9.95-117.44c-0.59-7.02-5.57-13.04-13.04-13.04
				C520.29,1211.2,513.25,1217.18,513.85,1224.24L513.85,1224.24z"/>
		</g>
	</g>
	<g class="st13">
		<g>
			<path class="st14" d="M514.82,1417.73c-2.04,33.94-1.03,67.96,2.99,101.73c0.83,6.99,5.4,13.04,13.04,13.04
				c6.4,0,13.88-6,13.04-13.04c-4.02-33.76-5.03-67.79-2.99-101.73c0.42-7.04-6.29-13.04-13.04-13.04
				C520.45,1404.7,515.24,1410.68,514.82,1417.73L514.82,1417.73z"/>
		</g>
	</g>
	<g class="st13">
		<g>
			<path class="st14" d="M379.69,1424.9c0.04,34.39,0.08,68.77,0.11,103.16c0.02,16.78,26.09,16.81,26.07,0
				c-0.04-34.39-0.08-68.77-0.11-103.16C405.74,1408.12,379.67,1408.09,379.69,1424.9L379.69,1424.9z"/>
		</g>
	</g>
	<ellipse class="st15" cx="376.65" cy="710.28" rx="3.11" ry="2.98"/>
	<ellipse class="st15" cx="462.59" cy="710.28" rx="3.11" ry="2.98"/>
	<ellipse class="st16" cx="364.6" cy="750.57" rx="15.16" ry="6.9"/>
	<ellipse class="st16" cx="489.75" cy="748.41" rx="15.16" ry="6.9"/>
	<g>
		<g>
			<path d="M385.47,779.52c7.51,12.61,21.44,21.01,36.27,20.77c14.81-0.23,28.55-8.9,35.68-21.77c3.12-5.63-5.51-10.68-8.63-5.05
				c-11.83,21.36-42.12,22.07-54.68,1C390.82,768.95,382.17,773.97,385.47,779.52L385.47,779.52z"/>
		</g>
	</g>
	<g>
		<g id="Ebene_7_1_">
			<g>
				<path class="st18" d="M618.92,862.86c-13.84,6.2-16.69,28.33-4.85,37.75c-36.9,47.61-32.5,122.52,9.7,165.06
					c13.38,13.49,30.32,23.97,49.04,27.1c34.57,5.79,69.88-15.04,89.25-44.56c7.4-11.27,12.89-23.68,18.34-36.01
					c11.62-26.29,23.23-52.59,34.85-78.88c3.24-7.31,6.53-14.94,6.34-22.93c-0.39-16.66-15.3-28.85-29.52-37.31
					c-34.79-20.71-73.98-33.94-114.2-38.56c-11.48-1.32-23.35-1.91-34.4,1.58c-11.04,3.49-21.21,11.81-24.1,23.1"/>
				<g>
					<path class="st18" d="M619.1,858.84c-16.12,7.68-24.47,32.71-9.16,45.49c0.31-1.71,0.61-3.42,0.92-5.12
						c-26.31,34.27-33.11,81.14-19.99,121.97c14.13,43.98,55.7,83.99,104.59,75.92c22.56-3.72,43.02-16.52,58.53-33.14
						c19.21-20.58,28.95-48.2,40.16-73.55c6.2-14.04,12.4-28.07,18.6-42.11c3.06-6.91,6.23-13.78,9.12-20.77
						c2.55-6.17,4.67-12.84,4.39-19.59c-0.99-24.06-26.9-37.63-45.42-47.23c-25.9-13.43-53.84-22.84-82.56-28
						c-24.92-4.48-55.28-8.58-74.62,12.06c-4.08,4.36-7.16,9.53-8.77,15.31c-0.65,2.33,0.78,3.85,3.11,3.51
						c2.46-0.36,5.17-2.84,5.85-5.26c6.99-24.98,40.57-21.06,59.87-18.27c27.09,3.93,53.55,11.84,78.4,23.3
						c11.37,5.24,22.72,11.04,33.07,18.12c7.95,5.44,16.05,12.55,19.72,21.74c4.81,12.04-0.84,23.46-5.72,34.51
						c-5.71,12.93-11.42,25.85-17.13,38.77c-5.78,13.09-11.54,26.18-17.35,39.26c-5.27,11.87-10.71,23.98-18.31,34.58
						c-11.8,16.45-28.65,29.68-48.04,35.63c-44.54,13.68-86.74-19.23-103.94-58.86c-15.47-35.65-14.6-79.09,4.93-113.19
						c2.38-4.15,5.03-8.09,7.94-11.88c0.82-1.06,2.41-3.88,0.92-5.12c-4.95-4.14-7.23-10.19-6.82-16.62
						c0.33-5.12,2.42-11.05,7.34-13.39c2.18-1.04,4.88-3.29,4.86-5.97C623.59,858.4,621.04,857.92,619.1,858.84L619.1,858.84z"/>
				</g>
			</g>
			<g>
				<g>
					<path class="st18" d="M643.71,1096.5c4.09,1.35,11.29-7,6.8-8.48C646.43,1086.66,639.22,1095.02,643.71,1096.5L643.71,1096.5z"
						/>
				</g>
			</g>
			<g>
				<g>
					<path class="st18" d="M636.37,1096.7c0.86,8.6,6.88,15.94,15.69,17.06c9.18,1.16,18.22-4.81,22.61-12.66
						c0.61-1.1,1.34-4.05-0.59-4.52c-8.95-2.14-17.9-4.27-26.86-6.41c-2.54-0.6-5.04,0.82-6.62,2.83c-0.87,1.11-2.75,5.04-0.18,5.65
						c8.95,2.14,17.9,4.27,26.86,6.41c-0.19-1.5-0.4-3.01-0.59-4.52c-5.73,10.27-20.03,1.36-20.95-7.76
						C645.15,1087.05,635.95,1092.54,636.37,1096.7L636.37,1096.7z"/>
				</g>
			</g>
		</g>
		<g id="Ebene_5_1_">
			<g>
				<path class="st19" d="M826.45,886.12c23.56-72.36,87.67-122.84,150.28-165.71s129.84-85.59,166.32-152.36
					c46.13-84.44,30.56-195.2-28.07-270.85S960.56,180.1,865.1,176.29c-59.5-2.38-120.3,9.11-172.49,38.24
					c-52.19,29.13-106.97,82.15-125.68,139.15c-25.92,78.99,7.78,159.26,31.05,238.84s48.06,163.74,27.51,244.28
					c69.53-8.1,141.79,12.21,196.89,55.33"/>
				<g>
					<path class="st19" d="M830.92,885.25c20.65-62.73,72.15-108.1,124-145.46c52.17-37.59,108.4-70.36,152.77-117.78
						c21.02-22.46,38.64-48.17,50.23-76.79c10.66-26.32,16.07-54.75,16.68-83.08c1.23-57.09-16.57-114.41-49.56-160.67
						c-35.71-50.07-88.39-86.5-145.59-107.51c-58.58-21.52-122.88-27.79-184.61-17.98c-30.76,4.89-61.04,13.97-89.09,27.74
						c-27.67,13.58-53.22,31.6-75.83,52.63c-22.94,21.33-43.51,46.15-57.56,74.34c-13.46,27-19.61,56.92-19.45,87
						c0.33,62.23,24.04,121.39,41.23,180.18c18.27,62.49,37.58,127.07,33.91,193.06c-0.88,15.77-3.15,31.41-7.02,46.73
						c-0.6,2.4,0.68,3.79,3.11,3.51c53.45-6.09,108.29,4.74,155.73,29.85c13.48,7.14,26.34,15.43,38.39,24.81
						c3.68,2.86,11.63-4.81,8.27-7.43c-43.66-33.99-97.36-54.13-152.59-57.36c-15.69-0.92-31.44-0.42-47.06,1.37
						c1.04,1.17,2.07,2.34,3.11,3.51c15.89-63,4.82-128.09-11.39-189.66c-8.11-30.78-17.24-61.29-26.7-91.66
						c-9.17-29.44-18.44-58.98-24.22-89.34c-5.56-29.14-7.64-59.3-2.31-88.71c5.39-29.7,18.85-56.67,37.15-80.47
						c37.25-48.45,90.31-85.02,148.66-102.17c59.26-17.41,123.64-17.78,183.36-3.11c59.1,14.52,115.12,44,157.48,88.26
						c39.53,41.31,64.87,94.97,71.59,152.08c6.7,56.96-6.36,114.95-40.35,161.57c-37.4,51.3-91.88,86.29-143.43,121.49
						C927.45,749.96,873.95,789.49,841,845.15c-7.82,13.21-14.23,27.24-19.03,41.84c-0.77,2.33,0.86,3.84,3.11,3.51
						C827.64,890.14,830.14,887.66,830.92,885.25L830.92,885.25z"/>
				</g>
			</g>
		</g>
		<g id="Ebene_6_1_">
			<g>
				<path class="st20" d="M1093.26,417.19c-18.56-59.33-64.19-129.87-118.65-160.04s-153.17-25.12-211.55-2.94
					c-80.73,30.67-128.26,135.71-128.53,222.4c-0.24,75.08,67.2,128.23,134.65,159.97c67.44,31.75,156.61,49.29,217.61,5.8
					c61.01-43.49,107.82-149.98,106.42-225.03"/>
				<g>
					<path class="st20" d="M1097.83,414.28c-7.85-24.93-19.13-48.72-32.65-71.01c-14.08-23.22-30.87-45.03-50.76-63.5
						c-17.23-15.99-36.84-29.24-59.21-36.71c-22.45-7.5-46.33-10.6-69.93-11.31c-24.91-0.75-50.03,1.14-74.58,5.61
						c-21.64,3.94-43.58,9.7-63.21,19.97c-39.78,20.82-69.26,57.84-88.51,97.92c-9.95,20.71-17.5,42.59-22.43,65.03
						c-4.74,21.57-7.85,44.33-6.48,66.43c2.81,44.95,30.23,82.38,63.94,109.88c35.34,28.83,77.77,50.18,121.3,63.38
						c43.38,13.16,91.26,18.81,135.21,4.49c42.98-14,74.5-49.03,97.71-86.7c24.57-39.87,42-85.74,47.9-132.31
						c1.26-9.97,1.91-20,1.74-30.04c-0.09-5.69-9.43-0.28-9.36,3.91c0.7,43.54-12.52,87.58-31.2,126.57
						c-9.76,20.37-21.39,39.92-35.42,57.63c-12.57,15.87-27.18,30.58-44.59,41.03c-37.9,22.73-84.88,22.61-126.79,14.16
						c-43.51-8.78-85.69-27.06-122.91-51.16c-35.3-22.87-68.98-54.18-82.44-95.35c-6.66-20.36-6.79-41.42-4.63-62.59
						c2.22-21.81,7.11-43.32,14.25-64.05c13.93-40.47,37-79.45,70.89-106.16c16.02-12.63,34.31-21.08,53.79-26.66
						c22.25-6.39,45.36-10.04,68.43-11.51c44.81-2.83,94.22,0.8,132.78,25.87c21.25,13.82,39.32,32.44,54.84,52.42
						c16.12,20.76,29.72,43.54,40.53,67.54c4.85,10.76,9.11,21.79,12.66,33.07C1090.16,424.8,1099.13,418.41,1097.83,414.28
						L1097.83,414.28z"/>
				</g>
			</g>
		</g>
		<g id="Ebene_3">
			<g>
				<g>
					<path class="st21" d="M825.85,900.65c13.91-30.73,32.47-58.9,54.46-84.39c21.51-24.94,45.94-47.14,71.25-68.08
						c26.04-21.53,52.7-42.16,81.08-60.47c27.55-17.78,56.18-35.04,79.26-58.71c40.65-41.68,62.27-99.19,65.17-156.91
						c2.92-58.07-12.63-116.68-44.87-164.82c-34.45-51.42-85.68-90.05-142.4-113.52c-57.67-23.86-121.24-32.31-183.26-24.82
						c-62.71,7.57-124.41,32.25-171.62,75.3c-47.85,43.63-81.21,105.64-83.49,171.18c-1.15,33.19,5.85,65.96,14.93,97.63
						c9.12,31.82,19.96,63.08,28.51,95.08c15.78,58.99,25.12,118.96,26.71,180.13c0.44,17,0.4,34.01,0.02,51.02
						c-0.12,5.64,9.27,0.28,9.36-3.91c1.39-62.37-2.65-124.5-15.51-185.54c-6.36-30.18-14.41-60.02-23.55-89.45
						c-9.72-31.3-20.41-62.44-26.52-94.73c-6.04-31.9-6.54-64.47,1.26-96.18c7.6-30.92,21.86-60.05,40.99-85.43
						c38.09-50.51,93.9-83.65,154.57-98.71c59.98-14.89,123.88-13.3,183.09,3.75c58.41,16.83,113.03,48.5,153.94,93.96
						c38.92,43.26,62.99,98.05,67.85,156.39c4.64,55.6-7.48,113.94-39.68,160.19c-17.95,25.79-41.67,45.09-67.55,62.37
						c-13.79,9.2-27.89,17.91-41.69,27.1c-13.54,9.01-26.43,18.8-39.27,28.78c-51.71,40.23-102.12,83.71-137.84,139.5
						c-8.75,13.67-16.49,27.97-23.19,42.77C814.87,906.75,823.86,905.07,825.85,900.65L825.85,900.65z"/>
				</g>
			</g>
			<g>
				<g>
					<path class="st21" d="M616.47,856.11c0.78,6.58,5.86,12.04,10.67,16.11c7.98,6.75,17.36,11.8,26.75,16.25
						c28.96,13.72,60.31,22.57,91.33,30.22c9.55,2.36,19.13,4.57,28.74,6.64c8.87,1.92,18.26,4.86,27.4,4.74
						c7.5-0.1,15.07-2.12,20.79-7.24c6.01-5.36,8.48-13.39,6.08-21.11c-2.55-8.17-9.04-15.03-15.23-20.6
						c-7.02-6.32-15-11.54-23.28-16.05c-17.64-9.6-36.73-16.86-55.98-22.47c-21.58-6.29-43.82-10.35-66.25-11.99
						c-10.36-0.76-22.09-2.27-32.25,0.69c-9.06,2.65-17.57,10.14-18.16,20.11c-0.15,2.63,2.67,2.77,4.5,2.07
						c2.3-0.88,4.71-3.39,4.86-5.97c0.49-8.32,10.79-8.78,17.07-8.78c9.12,0.01,18.27,0.61,27.34,1.51
						c18.52,1.85,36.86,5.33,54.75,10.46c17.11,4.9,33.9,11.22,49.9,19.04c14.91,7.3,30.39,16.66,39.98,30.67
						c3.04,4.43,7.27,13.2,2.02,17.7c-4.56,3.91-12.73,3.4-18.16,2.5c-17.6-2.91-35.12-7.29-52.4-11.67
						c-28.23-7.16-56.59-15.4-83.16-27.52c-9.49-4.33-19.14-9.14-27.3-15.73c-4.98-4.01-10.11-8.9-10.89-15.42
						c-0.31-2.62-4.35-1.24-5.6-0.46C617.84,851.16,616.16,853.49,616.47,856.11L616.47,856.11z"/>
				</g>
			</g>
			<g>
				<g>
					<path class="st21" d="M621.67,855.76c-18.2,3.57-27.73,24.75-20.43,41.24c9.13,20.63,32.87,27.41,52.48,33.64
						c23.16,7.35,46.77,13.2,70.47,18.49c12.07,2.69,24.16,5.23,36.26,7.74c9.85,2.05,19.83,4.45,29.96,3.2
						c9.85-1.21,17.69-6.66,23.24-14.83c4.54-6.68,8.66-16.4,5.05-24.35c-2.09-4.61-10.9,1.97-9.14,5.84
						c2.47,5.44,0.28,11.73-2.87,16.46c-3.77,5.65-8.62,7.87-15.33,8.28c-8.73,0.54-17.52-1.77-25.99-3.52
						c-10.21-2.12-20.4-4.25-30.59-6.49c-20.5-4.5-40.93-9.39-61.08-15.29c-9.65-2.82-19.26-5.83-28.73-9.22
						c-8.91-3.19-18.03-6.96-25.18-13.34c-6.51-5.81-11.91-14.06-11.89-23.12c0.02-7.04,3.67-14.52,11.02-15.97
						c2.51-0.49,5.15-2.73,5.85-5.26C625.41,856.99,624.08,855.29,621.67,855.76L621.67,855.76z"/>
				</g>
			</g>
			<g>
				<g>
					<path class="st21" d="M602.12,899.36c-5.43,6.59-9.41,14.63-11.99,22.75c-2.45,7.74-3.23,15.49,0.56,22.91
						c10.13,19.76,35.81,22.24,55.06,26.6c23.25,5.27,46.49,10.53,69.74,15.8c11.39,2.58,22.77,5.16,34.16,7.74
						c9.39,2.13,19.36,5.29,29.08,3.53c21.35-3.87,25.79-28.49,25.04-46.71c-0.24-5.72-9.54-0.28-9.36,3.91
						c0.32,7.56-0.01,15.35-2.26,22.63c-2.14,6.94-5.75,11.3-13.31,11.71c-8.59,0.46-17.42-2.44-25.7-4.31
						c-10.44-2.36-20.87-4.73-31.31-7.09c-20.4-4.62-40.8-9.24-61.2-13.86c-10.29-2.33-20.66-4.46-30.88-7.06
						c-8.98-2.28-18.21-5.44-24.91-12.16c-5.85-5.87-8.75-13.22-6.85-21.46c1.82-7.86,5.42-15.86,10.56-22.1
						c1.24-1.51,2.42-4.49,0.18-5.65C606.51,895.37,603.41,897.8,602.12,899.36L602.12,899.36z"/>
				</g>
			</g>
			<g>
				<g>
					<path class="st21" d="M595.23,940.48c-11.78,8.56-16.93,26.06-14.81,40.09c2.92,19.31,28.12,23.06,43.53,26.38
						c24.17,5.2,48.34,10.4,72.51,15.6c11.97,2.57,23.93,5.15,35.89,7.72c9.72,2.09,19.65,4.87,29.69,4.15
						c10.39-0.75,19.3-5.82,24.33-15.15c4.77-8.84,6.27-19.59,5.32-29.49c-0.54-5.74-9.76-0.26-9.36,3.91
						c0.73,7.65,0.12,15.89-2.95,23.04c-1.03,2.4-2.45,5.1-4.74,6.5c-3.16,1.93-7.36,2.4-10.97,2.41
						c-8.91,0.03-17.75-2.43-26.4-4.29c-10.29-2.22-20.58-4.43-30.87-6.64c-20.82-4.48-41.64-8.96-62.46-13.44
						c-10-2.15-20.18-3.92-30.03-6.72c-7.8-2.21-17.38-5.67-22.05-12.86c-3.35-5.16-2.92-12.64-1.86-18.42
						c0.95-5.18,3.3-13.14,7.27-16.03c1.76-1.28,4.4-3.82,3.55-6.3C600.02,938.58,596.74,939.38,595.23,940.48L595.23,940.48z"/>
				</g>
			</g>
			<g>
				<g>
					<path class="st21" d="M587.92,988.39c-12.36,7.78-14.47,26.67-3.38,36.3c6.78,5.89,15.56,8.5,23.89,11.3
						c9.89,3.32,19.78,6.64,29.67,9.96c19.78,6.64,39.57,13.28,59.35,19.93c16.98,5.7,35.33,13.79,53.35,7.76
						c8.49-2.84,15.96-8.96,19.86-17.16c4.52-9.49,4.76-20.02,3.37-30.26c-0.36-2.61-4.33-1.26-5.6-0.46
						c-2.15,1.33-3.9,3.7-3.55,6.3c1.04,7.65,1.13,16.26-2.03,23.49c-2.47,5.66-7.22,8.96-13.09,10.41
						c-15.66,3.88-32.36-4.16-46.9-9.04c-16.33-5.48-32.67-10.97-49-16.45c-16.15-5.42-32.59-10.31-48.5-16.39
						c-6.69-2.56-15.13-6.38-17.73-13.7c-1.48-4.16-2.08-12.44,2.34-15.22c1.82-1.14,4.37-3.91,3.55-6.3
						C592.69,986.39,589.49,987.4,587.92,988.39L587.92,988.39z"/>
				</g>
			</g>
			<g>
				<g>
					<path class="st21" d="M599.21,1032.5c-0.42,12.87,2.23,25.56,9.77,36.12c6.56,9.19,16.18,15.79,26.17,20.71
						c20.94,10.29,45.14,15.03,67.95,8.01c13.65-4.21,25.29-12.82,32.73-25.16c1.12-1.86,0.9-4.39-1.53-4.74
						c-2.59-0.37-5.25,2.19-6.45,4.19c-11.15,18.49-35.15,21.95-54.7,19.33c-10.2-1.36-19.89-4.81-29.18-9.16
						c-9.12-4.27-17.77-9.73-24.32-17.52c-8.44-10.05-11.51-22.71-11.08-35.7C608.76,1022.97,599.34,1028.33,599.21,1032.5
						L599.21,1032.5z"/>
				</g>
			</g>
			<g>
				<path class="st22" d="M637.02,1085.93c-3.8,8.55,2.11,24.46,13.56,26.86c9.09,1.9,24.75-3.66,28.88-12.85"/>
				<g>
					<path class="st21" d="M632.54,1086.79c-4.66,11.56,2.83,27.66,15.11,30.34c12.76,2.8,29.97-5.08,35.81-16.93
						c0.94-1.91,1.03-4.37-1.53-4.74c-2.43-0.35-5.44,2.15-6.45,4.19c-3.63,7.39-16.46,10.97-23.79,8.19
						c-8.04-3.05-13.45-14.66-10.17-22.79c0.94-2.32-0.97-3.82-3.11-3.51C635.69,1081.93,633.5,1084.4,632.54,1086.79
						L632.54,1086.79z"/>
				</g>
			</g>
		</g>
		<g id="Ebene_8_1_">
			<g class="st23">
				<path class="st24" d="M641.27,835.82c-9.54-1.12-15.79,11.76-12.26,20.74c3.53,8.98,12.62,14.24,21.22,18.52
					c36.7,18.33,75.85,31.71,116.1,39.69c19,3.77,39.77,6.08,56.86-3.19c-64.88-10-141.89-21.38-181.18-72.72"/>
				<g>
					<path class="st24" d="M643.73,831.36c-13.04-1-22.65,14.22-19.89,26.14c1.64,7.1,7.44,12.4,13.2,16.29
						c7.41,5.01,15.89,8.62,23.99,12.33c34.77,15.89,71.87,27.97,109.6,34.37c17.45,2.96,36.2,3.63,52.37-4.88
						c2.17-1.14,8.25-7.62,2.64-8.49c-50.43-7.77-104.89-14.79-148.49-43.43c-11.81-7.76-22.35-17.34-31.02-28.55
						c-2.72-3.52-11.1,3.77-8.27,7.43c32.7,42.32,88.23,56.91,138.29,66.16c14.81,2.73,29.69,5.01,44.57,7.3
						c0.88-2.83,1.77-5.66,2.64-8.49c-12.36,6.51-26.26,6.81-39.81,5.17c-15.96-1.93-31.78-5.85-47.24-10.14
						c-16.32-4.52-32.38-9.95-48.1-16.24c-7.97-3.19-15.85-6.6-23.63-10.23c-6.86-3.2-13.94-6.33-20.28-10.51
						c-5.43-3.59-11.44-9.27-11.6-16.3c-0.09-4.04,1.3-9.41,6.11-9.03C642.91,840.6,649.32,831.79,643.73,831.36L643.73,831.36z"/>
				</g>
			</g>
			<g class="st23">
				<path class="st24" d="M616.52,867.69c-9.8,5.44-10.18,20.54-3.56,29.57s17.66,13.4,28.17,17.17
					c44.44,15.9,90.04,28.54,136.32,37.81c11.9,2.38,26.96,3.26,33.41-7.12c-33.48,0.79-177.01-20.65-193.16-80.02"/>
				<g>
					<path class="st24" d="M615.5,864.3c-12.67,7.59-15.07,25.02-6.67,36.67c4.84,6.7,12.44,11.05,19.88,14.22
						c8.76,3.74,17.93,6.65,26.96,9.68c38.13,12.8,77.06,23.23,116.47,31.24c15.41,3.14,32.89,4.15,42.71-10.73
						c1.03-1.56,1.03-4.79-1.53-4.74c-10.04,0.21-20.15-0.91-30.08-2.15c-14.94-1.87-29.8-4.52-44.49-7.83
						c-31.11-7.03-63.9-16.81-90.24-35.43c-11.57-8.17-22.3-19.03-26.22-33.06c-1.31-4.68-10.32,1.65-9.14,5.84
						c7.86,28.1,38.64,44,63.42,54.12c30.47,12.45,63.21,19.93,95.76,24.49c11.89,1.66,24.05,3.21,36.1,2.95
						c-0.51-1.58-1.02-3.16-1.53-4.74c-2.51,3.81-8.41,4.38-12.5,4.45c-6.35,0.12-12.57-1.13-18.76-2.4
						c-17.32-3.55-34.54-7.59-51.64-12.1c-16.71-4.4-33.29-9.26-49.73-14.54c-8.34-2.68-16.64-5.47-24.9-8.38
						c-7.09-2.5-14.31-4.9-20.89-8.61c-6.47-3.65-12.43-8.96-14.48-16.37c-1.42-5.1-1.59-12.75,3.56-15.84
						c1.84-1.1,4.36-3.94,3.55-6.3C620.25,862.29,617.08,863.36,615.5,864.3L615.5,864.3z"/>
				</g>
			</g>
			<g class="st23">
				<path class="st24" d="M604.93,909.63c-11.76,4.15-12.94,21.99-4.99,31.59c7.95,9.6,20.92,12.96,33.03,15.82
					c41.74,9.82,83.48,19.64,125.22,29.46c12.52,2.94,27.99,4.97,36.2-5.04c-54.44-7.48-177.91-23.17-185.76-76.61"/>
				<g>
					<path class="st24" d="M605.11,905.6c-12.92,5.02-18.12,20.71-12.95,33.15c6.51,15.67,25.56,19.73,40.26,23.19
						c40.08,9.43,80.17,18.86,120.24,28.29c15.6,3.67,33.17,6.27,44.96-7.37c1.56-1.8,2.46-5.43-0.76-5.87
						c-27.92-3.83-55.83-7.8-83.32-14.04c-15.08-3.43-30.06-7.55-44.55-12.97c-12.54-4.69-25.18-10.35-35.9-18.52
						c-9.73-7.41-17.93-17.06-19.87-29.54c-0.71-4.57-9.82,1.54-9.14,5.84c3.9,25.1,30.3,39.36,51.37,48.04
						c29.29,12.07,60.92,18.43,92.06,23.59c14.78,2.44,29.61,4.48,44.45,6.52c-0.25-1.96-0.51-3.91-0.76-5.87
						c-3.31,3.83-9.02,4.44-13.75,4.38c-6.59-0.07-13.02-1.52-19.39-3.02c-17.07-4.02-34.16-8.03-51.23-12.05
						c-17.31-4.07-34.63-8.15-51.94-12.22c-8.13-1.92-16.31-3.7-24.4-5.8c-6.95-1.8-14.07-4.02-20.07-8.09
						c-5.71-3.86-9.94-9.48-10.74-16.5c-0.54-4.7,0.11-11.18,5.09-13.11c2.21-0.86,4.87-3.41,4.86-5.97
						C609.6,905.05,607.06,904.85,605.11,905.6L605.11,905.6z"/>
				</g>
			</g>
			<g class="st23">
				<path class="st24" d="M594.59,954.3c-8.05,6.18-8.58,19.06-3.06,27.54c5.52,8.48,15.47,13.07,25.39,14.96
					c9.91,1.89,20.11,1.51,30.17,2.39c23.18,2.02,45.16,10.65,67.59,16.77c22.43,6.12,46.77,9.66,68.66,1.63
					c-43.42-5.4-158.67-17.57-188.54-64.2"/>
				<g>
					<path class="st24" d="M592.39,951.82c-10.86,8.91-12.03,25.36-3.27,36.08c10.19,12.47,27.48,14.37,42.45,15.04
						c8.8,0.39,17.49,0.92,26.16,2.53c9.06,1.67,17.93,4.15,26.75,6.78c15.82,4.72,31.53,9.97,47.86,12.67
						c17.01,2.81,34.42,2.56,50.83-3.3c2.51-0.9,7.99-7.82,2.64-8.49c-24.72-3.07-49.44-6.18-73.89-10.98
						c-28.26-5.55-57.22-12.8-82.7-26.62c-11.72-6.36-22.89-14.49-30.27-25.85c-2.35-3.61-10.81,3.51-8.27,7.43
						c14.17,21.8,41.36,33.06,64.98,40.89c28.26,9.37,57.77,14.86,87.19,19.12c12.66,1.83,25.36,3.36,38.05,4.94
						c0.88-2.83,1.77-5.66,2.64-8.49c-27.65,9.88-57.47,0.78-84.22-7.38c-14.95-4.56-30.03-9.14-45.6-11.03
						c-14.79-1.79-30.66,0.2-44.58-6.05c-6.52-2.93-12.76-7.79-15.26-14.75c-2.06-5.72-2.14-13.42,2.94-17.58
						c1.49-1.22,3.56-4.36,1.93-6.2C597.02,948.66,593.83,950.63,592.39,951.82L592.39,951.82z"/>
				</g>
			</g>
			<g class="st23">
				<path class="st24" d="M590.54,992.23c-6.85,7.16-4.5,19.67,2.33,26.78c6.83,7.12,16.7,10.2,26.13,13.02
					c33.19,9.94,66.38,19.86,99.58,29.8c15.88,4.76,34.71,9.01,47.75-1.38c-63.2-5-132.58-23.16-177.38-68.68"/>
				<g>
					<path class="st24" d="M587.32,990.82c-8.84,9.94-6.33,25.17,3.19,33.6c5.49,4.87,12.29,7.76,19.18,10.02
						c7.99,2.62,16.1,4.88,24.15,7.29c16.6,4.97,33.19,9.94,49.78,14.9c14.93,4.46,29.83,9.72,45.09,12.97
						c14.03,2.98,28.03,2.38,39.83-6.66c1.87-1.44,4.28-6.63,0.25-6.95c-49.53-3.98-100.27-15.14-142.86-41.76
						c-11.91-7.45-22.94-16.18-32.84-26.17c-3.23-3.26-11.42,4.25-8.27,7.43c36.2,36.5,86.22,54.93,135.88,63.9
						c14.29,2.58,28.71,4.36,43.18,5.52c0.08-2.32,0.17-4.63,0.25-6.95c-8.14,6.25-20.16,4.8-29.47,2.93
						c-13.32-2.69-26.33-7.38-39.32-11.27c-14.73-4.41-29.45-8.81-44.18-13.22c-7.48-2.24-14.96-4.47-22.44-6.72
						c-6.44-1.93-13.02-3.66-19.22-6.3c-6.45-2.75-12.91-6.73-16.15-13.23c-2.51-5.05-3.63-11.96,0.41-16.51
						c1.3-1.46,2.37-4.51,0.18-5.65C591.66,986.8,588.68,989.29,587.32,990.82L587.32,990.82z"/>
				</g>
			</g>
			<g class="st23">
				<path class="st24" d="M604.93,1035.22c7.27,21.19,23.33,39.14,43.5,48.62s44.2,10.39,65.11,2.46
					c-38.64-5.98-75.13-24.95-102.28-53.18"/>
				<g>
					<path class="st24" d="M600.36,1038.14c7.52,21.42,23.28,39.51,43.63,49.45c21.55,10.52,46.95,11.05,69.36,2.74
						c2.57-0.96,7.96-7.64,2.64-8.48c-38.13-6.04-73.71-24.67-100.6-52.43c-3.18-3.29-11.39,4.2-8.27,7.43
						c27.83,28.73,64.52,47.68,103.95,53.92c0.88-2.83,1.77-5.66,2.64-8.49c-20.73,7.69-44.3,6.26-63.96-3.69
						c-18.74-9.48-33.27-26.41-40.25-46.28C607.85,1027.62,598.92,1034.07,600.36,1038.14L600.36,1038.14z"/>
				</g>
			</g>
			<g class="st23">
				<path class="st24" d="M639.02,1087.43c-0.8,7.63,2.77,15.55,9,19.94c6.22,4.39,14.86,5.07,21.73,1.71
					c-11.23-4.74-20.47-14.01-25.23-25.29"/>
				<g>
					<path class="st24" d="M634.34,1089.38c-0.68,8.52,2.93,17.02,9.91,21.97c7.39,5.24,17.19,5.46,25.31,1.75
						c2.02-0.92,7.69-6.46,3.59-8.26c-10.73-4.7-19.34-13.17-24.07-23.97c-2.03-4.62-10.86,1.94-9.14,5.84
						c5.23,11.94,14.5,21.39,26.41,26.61c1.2-2.76,2.39-5.51,3.59-8.26c-13.34,6.08-27.34-5.54-26.23-19.59
						c0.21-2.64-2.71-2.75-4.5-2.07C636.87,1084.31,634.55,1086.79,634.34,1089.38L634.34,1089.38z"/>
				</g>
			</g>
		</g>
		<g id="Ebene_4_1_">
			<g>
				<g>
					<path class="st21" d="M642.73,837.77c43.03-32.3,85.47-65.43,126.52-100.24c41.18-34.92,81-71.53,118.39-110.57
						c36.93-38.57,72.33-79.39,102.57-123.53c15.15-22.12,29.4-47.41,30.02-74.94c0.48-20.79-7.91-43.39-24.73-56.13
						c-17.66-13.37-40.16-11.95-58.94-1.42c-22.14,12.43-35.2,35.42-42.55,59.09c-2.01,6.48-3.64,13.07-5.11,19.69
						c-1.37,6.2,6.96,2.69,8.47-0.6c10.43-22.81,21.54-47.23,18.6-72.93c-2.4-20.95-14.51-40.71-35.71-46.22
						c-21.12-5.48-43.77,2.22-60.76,15.16c-18.38,14.01-31.39,33.83-39.53,55.36c-18.19,48.13-10.03,101.2-4.65,150.84
						c5.73,52.9,12.5,105.68,18.16,158.59c5.63,52.66,10.29,105.51,11.42,158.51c0.13,6.42,0.21,12.83,0.24,19.24
						c0.03,5.68,9.38,0.28,9.36-3.91c-0.2-50.35-3.93-100.6-8.87-150.66c-4.98-50.49-11.26-100.83-17.08-151.21
						c-2.85-24.72-5.66-49.46-7.98-74.24c-2.36-25.17-3.73-50.68-0.11-75.82c5.76-40.06,29.14-87.55,73.28-94.12
						c9.95-1.49,20.33-0.3,29.28,4.43c8.85,4.67,15.46,12.76,19.31,21.96c9.12,21.77,3.58,45.28-4.95,66.35
						c-2.48,6.12-5.23,12.12-7.97,18.13c2.82-0.2,5.65-0.4,8.47-0.6c5.17-23.41,12.88-48.71,32.1-64.45
						c15.53-12.72,37.26-16.5,54.64-5.54c17.07,10.77,26.1,32.49,26.27,52.26c0.22,25.98-13.22,50.15-27.52,70.94
						c-28.85,41.96-62.3,81.06-97.34,117.88c-35.23,37.02-72.68,71.87-111.41,105.14c-38.61,33.17-78.49,64.82-119.04,95.55
						c-4.96,3.76-9.93,7.51-14.9,11.24c-1.74,1.31-4.41,3.8-3.55,6.3C637.94,839.65,641.24,838.89,642.73,837.77L642.73,837.77z"/>
				</g>
			</g>
			<g>
				<g>
					<path class="st21" d="M1081.17,347.46c24.69,38.61,31.99,87.75,19.49,132.07c-0.66,2.33,0.78,3.85,3.11,3.51
						c2.47-0.36,5.17-2.85,5.85-5.26c13.09-46.43,5.68-97.31-20.18-137.76C1087.13,336.41,1078.65,343.51,1081.17,347.46
						L1081.17,347.46z"/>
				</g>
			</g>
			<g>
				<g>
					<path class="st21" d="M625.13,384.71c-16.19,38.55-19.98,81.96-11.16,122.72c2.52,11.64,6.1,23.02,10.67,34.01
						c1.93,4.65,10.79-1.89,9.14-5.84c-15.61-37.55-19.33-79.94-10.27-119.76c2.55-11.24,6.12-22.24,10.58-32.87
						c0.97-2.31-1-3.83-3.11-3.51C628.25,379.85,626.13,382.32,625.13,384.71L625.13,384.71z"/>
				</g>
			</g>
		</g>
	</g>
	<g>
		<g>
			<path class="st25" d="M944.82,827.25c3.78,8.1,7.56,16.19,11.34,24.29c4.44,9.51,18.86,12.66,27.36,7.18
				c9.79-6.31,11.92-17.19,7.18-27.36c-3.78-8.1-7.56-16.19-11.34-24.29c-4.44-9.51-18.86-12.66-27.36-7.17
				C942.2,806.2,940.07,817.07,944.82,827.25L944.82,827.25z"/>
		</g>
	</g>
	<g>
		<g>
			<path class="st25" d="M1066.15,758.42c3.78,4.86,7.56,9.72,11.34,14.57c2.92,3.75,9.65,5.86,14.14,5.86
				c4.91,0,10.76-2.18,14.14-5.86c3.5-3.81,6.1-8.82,5.86-14.14c-0.24-1.77-0.48-3.54-0.71-5.32c-0.95-3.39-2.66-6.33-5.14-8.83
				c-3.78-4.86-7.56-9.72-11.34-14.57c-2.92-3.75-9.65-5.86-14.14-5.86c-4.91,0-10.76,2.18-14.14,5.86
				c-3.5,3.81-6.1,8.82-5.86,14.14c0.24,1.77,0.48,3.54,0.71,5.32C1061.96,752.99,1063.68,755.93,1066.15,758.42L1066.15,758.42z"/>
		</g>
	</g>
	<g>
		<g>
			<path class="st25" d="M1156.03,661.15c7.02,3.24,14.03,6.48,21.05,9.72c9.48,4.37,21.99,3,27.36-7.18
				c4.66-8.82,2.97-22.68-7.18-27.36c-7.02-3.24-14.03-6.48-21.05-9.72c-9.48-4.37-21.99-3-27.36,7.18
				C1144.19,642.6,1145.88,656.47,1156.03,661.15L1156.03,661.15z"/>
		</g>
	</g>
	<g>
		<g>
			<path class="st25" d="M1216.32,519.76c8.1,1.08,16.19,2.16,24.29,3.24c10.41,1.39,20.44-10.19,20-20
				c-0.54-12.02-8.84-18.51-20-20c-8.1-1.08-16.19-2.16-24.29-3.24c-10.41-1.39-20.44,10.19-20,20
				C1196.86,511.79,1205.16,518.28,1216.32,519.76L1216.32,519.76z"/>
		</g>
	</g>
	<g>
		<g>
			<path class="st25" d="M1208.68,358.74c7.56-2.7,15.11-5.4,22.67-8.1c9.83-3.51,17.47-13.79,13.97-24.6
				c-3.13-9.68-14.05-17.74-24.6-13.97c-7.56,2.7-15.11,5.4-22.67,8.1c-9.83,3.51-17.47,13.79-13.97,24.6
				C1187.21,354.45,1198.13,362.5,1208.68,358.74L1208.68,358.74z"/>
		</g>
	</g>
	<g>
		<g>
			<path class="st25" d="M1108.9,200.57c3.24-6.48,6.48-12.95,9.72-19.43c4.67-9.35,2.8-22.09-7.18-27.36
				c-9.07-4.79-22.37-2.82-27.36,7.18c-3.24,6.48-6.48,12.95-9.72,19.43c-4.67,9.35-2.8,22.09,7.17,27.36
				C1090.6,212.53,1103.91,210.56,1108.9,200.57L1108.9,200.57z"/>
		</g>
	</g>
	<g>
		<g>
			<path class="st25" d="M978.13,139.11c2.7-8.64,5.4-17.27,8.1-25.91c3.12-9.99-3.68-22.26-13.97-24.6
				c-10.87-2.48-21.26,3.27-24.6,13.97c-2.7,8.64-5.4,17.27-8.1,25.91c-3.12,9.99,3.68,22.26,13.97,24.6
				C964.4,155.56,974.79,149.81,978.13,139.11L978.13,139.11z"/>
		</g>
	</g>
	<g>
		<g>
			<path class="st25" d="M803.96,125.7c0-7.02,0-14.03,0-21.05c0-10.46-9.2-20.48-20-20c-10.84,0.49-20,8.79-20,20
				c0,7.02,0,14.03,0,21.05c0,10.46,9.2,20.48,20,20C794.8,145.21,803.96,136.91,803.96,125.7L803.96,125.7z"/>
		</g>
	</g>
	<g>
		<g>
			<path class="st25" d="M671.68,164.18c-2.7-5.94-5.4-11.88-8.1-17.81c-1.95-4.29-7.59-7.99-11.95-9.19
				c-4.79-1.32-11.16-0.72-15.41,2.02c-4.27,2.75-8.03,6.85-9.19,11.95c-1.26,5.54-0.32,10.26,2.02,15.41
				c2.7,5.94,5.4,11.88,8.1,17.81c1.95,4.29,7.59,7.99,11.95,9.19c4.79,1.32,11.16,0.72,15.41-2.02c4.27-2.75,8.03-6.85,9.19-11.95
				C674.96,174.05,674.02,169.33,671.68,164.18L671.68,164.18z"/>
		</g>
	</g>
	<g>
		<g>
			<path class="st25" d="M556.18,259.82c-8.62-1.69-17.25-3.37-25.87-5.06c-10.24-2-22.08,2.89-24.6,13.97
				c-2.26,9.9,2.99,22.46,13.97,24.6c8.62,1.69,17.25,3.37,25.87,5.06c10.24,2,22.08-2.89,24.6-13.97
				C572.4,274.52,567.16,261.96,556.18,259.82L556.18,259.82z"/>
		</g>
	</g>
	<g>
		<g>
			<path class="st25" d="M502.2,410.13c-8.1,0-16.19,0-24.29,0c-10.46,0-20.48,9.2-20,20c0.49,10.84,8.79,20,20,20
				c8.1,0,16.19,0,24.29,0c10.46,0,20.48-9.2,20-20C521.71,419.3,513.41,410.13,502.2,410.13L502.2,410.13z"/>
		</g>
	</g>
</g>
</svg>
