<?xml version="1.0" encoding="utf-8"?>
<!-- Generator: Adobe Adobe Illustrator 24.2.0, SVG Export Plug-In . SVG Version: 6.00 Build 0)  -->
<svg version="1.1" xmlns="http://www.w3.org/2000/svg" xmlns:xlink="http://www.w3.org/1999/xlink" x="0px" y="0px"
	 viewBox="0 0 170.08 170.08" style="enable-background:new 0 0 170.08 170.08;" xml:space="preserve">
<style type="text/css">
	.st0{fill:#B2A7A7;}
	.st1{opacity:0.2196;enable-background:new    ;}
	.st2{opacity:0.0588;enable-background:new    ;}
	.st3{opacity:0.8196;fill:none;stroke:#000000;stroke-width:0.816;stroke-miterlimit:10;enable-background:new    ;}
	.st4{fill:none;stroke:#000000;stroke-width:0.816;stroke-miterlimit:10;}
	.st5{fill:#EEE6E3;stroke:#EEE6E3;stroke-width:2.244;stroke-linecap:round;stroke-miterlimit:10;}
	.st6{fill:#EEE6E3;stroke:#EEE6E3;stroke-width:1.734;stroke-linecap:round;stroke-miterlimit:10;}
	.st7{fill:#EEE6E3;stroke:#EEE6E3;stroke-width:1.938;stroke-linecap:round;stroke-miterlimit:10;}
	.st8{fill:#EEE6E3;stroke:#EEE6E3;stroke-width:1.836;stroke-linecap:round;stroke-miterlimit:10;}
	.st9{fill:none;stroke:#000000;stroke-width:0.816;stroke-linecap:round;stroke-linejoin:round;stroke-miterlimit:10;}
	.st10{opacity:0.0784;enable-background:new    ;}
	.st11{opacity:0.251;enable-background:new    ;}
	.st12{fill:#CCBABA;}
	.st13{opacity:0.0784;fill:#FFFFFF;enable-background:new    ;}
	.st14{opacity:0.2784;fill:#FFFFFF;enable-background:new    ;}
	.st15{opacity:0.0902;enable-background:new    ;}
	.st16{fill:#EEE6E3;}
	.st17{opacity:0.2392;enable-background:new    ;}
	.st18{fill:#72250A;stroke:#000000;stroke-width:0.816;stroke-linecap:round;stroke-linejoin:round;stroke-miterlimit:10;}
	.st19{fill:#EEE6E3;stroke:#EEE6E3;stroke-width:0.816;stroke-linecap:round;stroke-linejoin:round;stroke-miterlimit:10;}
	.st20{opacity:0.0706;enable-background:new    ;}
	.st21{fill:none;}
	.st22{fill:#B2BCBF;}
	.st23{fill:#798185;}
	.st24{opacity:0.2314;enable-background:new    ;}
	.st25{opacity:0.2;enable-background:new    ;}
	.st26{stroke:#000000;stroke-width:0.816;stroke-linecap:round;stroke-linejoin:round;stroke-miterlimit:10;}
	.st27{fill:none;stroke:#000000;stroke-width:2.04;stroke-linecap:round;stroke-linejoin:round;stroke-miterlimit:10;}
	.st28{opacity:0.3804;fill:#FFFFFF;enable-background:new    ;}
	.st29{opacity:0.2706;fill:#FFFFFF;enable-background:new    ;}
	.st30{fill:#B5A8A8;}
	.st31{fill:none;stroke:#000000;stroke-width:1.7436;stroke-miterlimit:10;}
	.st32{fill:none;stroke:#000000;stroke-width:1.7436;stroke-linecap:round;stroke-linejoin:round;stroke-miterlimit:10;}
	.st33{fill:#BAC5C9;}
	.st34{fill:#6A6D6E;}
	.st35{fill:#594F4F;stroke:#000000;stroke-width:1.7436;stroke-linecap:round;stroke-linejoin:round;stroke-miterlimit:10;}
	.st36{opacity:0.2392;stroke:#FFFFFF;stroke-width:0.2179;stroke-miterlimit:10;enable-background:new    ;}
	.st37{fill:#F0E9E5;}
	.st38{stroke:#000000;stroke-width:1.7436;stroke-linecap:round;stroke-linejoin:round;stroke-miterlimit:10;}
	.st39{fill:#CA8C7F;}
	.st40{fill:#FFFFFF;}
	.st41{opacity:0.2392;}
	.st42{opacity:0.149;}
	.st43{fill:#D15238;}
	.st44{fill:#D15239;}
	.st45{fill:#FFFFFF;stroke:#FFFFFF;stroke-width:0.6784;stroke-miterlimit:10;}
</style>
<g id="Ebene_1">
	<g id="Ebene_21">
		<path class="st0" d="M117.71,112.39c-0.91,10.56,1.26,42.18,1.26,42.18l10.09-0.13l-3.52-43.29
			C125.55,111.15,117.86,110.64,117.71,112.39z"/>
		<path class="st0" d="M86.02,106.59c-1.1,10.83,1.89,35.57,3.3,47.07c0.27,2.15,10.12,0.02,10.12,0.02l-3.45-43.46
			C95.99,110.21,86.09,105.84,86.02,106.59z"/>
	</g>
	<g id="Ebene_33">
		<path class="st1" d="M86.63,119.39c1.4-0.77,1.85-3.22,2.37-4.64c-0.14,2.5,1.93,5.98,4.66,6c0,5.64,0.13,2.37-0.16,11.15
			c-0.19,5.74-2.74,11.37-4.23,16.95C87.46,139.06,87.88,129.19,86.63,119.39z"/>
		<path class="st2" d="M118.04,120.59c0.21,1.26,2.67,1.67,3.82,0.94s1.61-2.06,1.95-3.29c1.19,5.54,1.82,11.22,1.26,16.84
			c-0.56,5.62-2.35,11.2-6,15.87C118.36,140.84,117.54,130.68,118.04,120.59z"/>
	</g>
	<g id="Ebene_23">
		<polygon class="st3" points="86.16,116.72 89.13,149.12 98.69,150.14 96.83,114.93 		"/>
	</g>
	<g id="Ebene_24">
		<polygon class="st4" points="117.49,117.86 118.79,151.8 129.08,151.61 126.54,117.74 		"/>
	</g>
	<g id="Ebene_22">
		<path class="st0" d="M59.91,93.82c-3.63,2.03-6.89,4.73-7.74,8.55c-0.25,1.13,0.27,3.11,0.86,4.12c1.28,2.19,5.06,2.03,7.01,0.3
			c1.95-1.73,2.54-4.34,3.04-6.79c-0.95,2.87-1.75,5.9-1.52,8.9c0.08,1,0.69,2.08,1.46,2.8c1.23,1.14,3.45,0.78,4.71-0.33
			c1.26-1.11,1.79-2.73,2.25-4.27c0.26,2.82,0.27,5.87,1.73,8.36c0.53,0.9,2.1,1.55,3.16,1.87c1.54,0.45,3.2-0.65,3.8-2.03
			c0.6-1.38,0.41-2.92,0.22-4.39c1.48,2.95-0.58,6.83,3.64,8.8c1.99,0.93,4.57-0.21,5.68-1.99c1.11-1.78,1.09-3.97,0.76-6
			c0.15,2.29,0.91,4.54,2.19,6.5c0.52,0.79,1.16,1.56,2.09,1.92c1.85,0.71,4.03-0.65,4.74-2.38c0.71-1.73,0.36-3.65,0.01-5.46
			c0.49,1.81,0.22,3.75,0.74,5.55c0.52,1.81,2.32,3.59,4.3,3.16c2.62-0.56,2.73-3.91,2.23-6.34c0.18,1.77,0.38,3.59,1.32,5.15
			c0.94,1.56,2.81,2.78,4.72,2.49c3.29-0.5,4.06-4.47,4.04-7.53c0.15,1.48,0.32,3.01,1.12,4.3c0.8,1.29,2.41,2.28,3.99,1.97
			c1.46-0.29,2.47-1.62,2.74-2.97c0.27-1.35-0.06-2.74-0.4-4.08c-0.22,2.84,1.25,5.75,3.76,7.43c0.56,0.37,1.18,0.69,1.86,0.75
			c1.99,0.16,4.2-1.59,4.45-3.41c0.24-1.82-0.93-4.06-0.02-5.69c0.04,3.1,4.41,6,7.5,4.75c3.09-1.25,3.61-6.13,1.15-8.25
			c1.44,2.58,4.46,6.14,7.43,5.15c1.66-0.55,2.14-2.79,2.18-4.41c0.03-1.62-0.64-3.17-1.29-4.66c0.79,0.74,1.7,0.78,2.8,1
			s2.79,0.55,3.34-0.35c0.27-0.45-0.31-1.41-0.49-1.78c-0.98-2-3.22-3.43-5.2-4.66c1.14,0.76,2.59,0.68,4,0.64
			c2.45-0.08,4.8-0.73,4.31-2.93c-0.48-2.2-5.17-6.8-4.56-6.65c2.74,0.68,4.93,1.37,7.26-0.58c1.83-1.53-1.93-4.94-3.72-6.51
			c1.17,1.44,4.67,0.76,5.39-0.9c0.72-1.67-0.4-4.15-1.51-5.62c-1.11-1.48-2.92-2.3-3.76-3.92c2,1.79,6.48,0.64,7.44-1.78
			c0.96-2.42-0.86-5.38-2.46-7.49c-1.6-2.11-3.69-3.9-5.09-6.12c0.56,1.58,4.74,1.87,5.9,0.6c1.17-1.26-0.61-3.37-1.74-4.67
			s-2.88-1.99-4.62-2.43c-1.74-0.44-3.49-1.01-5.16-1.65c1.7-0.05,3.33-0.18,4.79-0.99c1.62-3.49-7.87-5.53-11.92-5.53
			c1.41,0.21,2.41,0.67,3.86,0.66s3.87-1.19,3.7-2.51c-0.09-0.71-0.77-1.92-1.39-2.35c-2.91-2.02-7.23-2.03-10.88-1.85
			c3.4-0.63,5.51-4.43,5.27-7.61c-0.44-5.79-4.15-5.33-7.39-6.48c-1.94-0.69-4.49-1.67-6.39-0.88c-3.01,1.25-3.1,4.69-3.2,7.72
			c-1.21-0.27-2.62-0.64-3.83-0.91c1.07-2.36,1.82-4.15,1.73-6.7c-0.02-0.52-0.37-1.68-0.75-2.06c-0.91-0.94-3.05,0.49-3.94,1.46
			c-1.67,1.81-2.79,4.04-3.21,6.38c1.53-2.29,2.7-5.47,1.58-7.95c-0.34-0.76-1.5-2.11-2.36-2.36c-1.82-0.54-3.56,2.37-3.65,4.12
			c-0.1,1.75,0.97,3.25-0.26,4.59c0.28-2,0.36-4.42-0.77-6.16c-1.12-1.74-3.03-2.7-4.99-0.56c-1.83,2,0.33,5.49-0.33,8.04
			c0.16-3.13,0.61-5.53-3.3-8.35c-0.37-0.27-1.57-0.44-2.03-0.34c-0.7,0.14-0.9,0.96-0.92,1.62c-0.07,2.52,0.53,5.05,1.74,7.31
			c-1.31-2.56-1.19-3.93-3.95-7.23c-0.59-0.7-2.19-1.66-3.08-2.01c-2.12-0.82-5,0.44-4.73,3.83c0.16,2.1,1.16,4.04,2.41,5.8
			c-0.73-1.17-1.98-1.93-2.82-3.04c-1.94-2.54-3.24-0.34-3.77,0.91c-0.82,1.95,2.12,3.42,2.91,5.38c-1.67,0.23-3.33,0.45-5,0.68
			c-0.25-4.24-0.87-10.26-5.21-11.75c-3.89-1.33-8.33,2.13-11.22,4.86c-1.43,1.35-2.85,2.92-2.95,4.8c-0.19,3.42,3.81,5.6,7.23,6.97
			c-2.83,0.81-4.3,1.21-6.5,1.92c-2.19,0.71-4.42,1.91-6.19,3.29c-1.77,1.38-4.1,3.84-3.57,5.91c0.53,2.08,4.65,3.79,6.83,3.06
			c-2.41,0.33-4.74,0.55-6.98,1.43c-1.56,0.61-3.81,2.2-4.37,3.86c-0.57,1.67,1.08,4.26,2.98,4.35c0.64,0.03,1.26-0.17,1.86-0.38
			c1.47-0.51,2.93-1.06,4.37-1.65c-3.29,1.11-7.02,2.12-9.5,4.38c-1.17,1.06-1.56,3.46-0.65,4.71c0.75,1.04,2.17,0.2,3.5-0.07
			c1.82-0.37,3.65-0.74,5.29-1.24c-2.43,0.5-5.25,1.21-7.3,2.52c-1.09,0.7-2.09,1.54-2.61,2.66c-0.52,1.12-0.41,2.86,0.8,3.67
			c0.97,0.65,2.94,0.16,4.06-0.23c2.59-0.9,5.1-1.99,7.51-3.25c-4.41,1.67-8.75,3.25-12.42,6.03c-1.08,0.82-1.93,2.41-2.57,3.56
			c-0.64,1.14-0.79,2.6-0.04,3.69c0.9,1.3,2.84,1.73,4.48,1.41c1.64-0.32,3.07-1.23,4.44-2.13c-2.37,0.67-4.11,2.51-5.61,4.32
			c-1.09,1.31-1.63,2.74-1.07,4.31c0.65,1.82,2.63,3.18,4.67,2.76c2.04-0.42,3.87-2.08,5.8-2.86
			C60.14,93.44,60.28,93.61,59.91,93.82z"/>
	</g>
	<g id="Ebene_48">
		<path class="st5" d="M97.08,35.55c1.11,0.78,1.99,1.83,2.52,3.01"/>
		<path class="st6" d="M104.67,33.38c0.67,0.96,1.13,2.03,1.36,3.15"/>
		<path class="st7" d="M110.83,32.86c0.17,1.05,0.34,2.1,0.5,3.15"/>
		<path class="st6" d="M116.61,36.47c0.52-1.09,1.05-2.19,1.57-3.28"/>
		<path class="st8" d="M123.06,38.69c0.47-1.24,1.3-2.36,2.39-3.22"/>
		<path class="st8" d="M129.24,24.16c0.1-0.24,0.21-0.48,0.31-0.72"/>
	</g>
	<g id="Ebene_1_1_">
		<path class="st9" d="M72.37,37.53c-7.24,1.41-18.1,6.19-15.6,11.96c0.88,2.03,6.33,1.71,6.33,1.71s-13.6,1.29-10.64,7.94
			c1.09,2.47,8.26,0.23,8.26,0.23s-11.98,2.43-10.14,7.79c1.15,3.35,10.13-0.9,9.68-0.6c-2.99,2.04-12.19,2.42-10.3,7.99
			c1.49,4.39,16.66-3.62,14.37-2.54c-3.4,1.61-20.75,5.42-16.47,13.65c1.79,3.43,7.75-0.42,7.75-0.42S46.06,90.84,51,95.76
			c2.46,2.45,8.76-2.31,8.76-2.31s-12.62,8.43-5.59,14.03c5.16,4.1,8.77-7.56,8.77-7.56s-4.42,10.93,1.03,12.69
			c3.92,1.27,5.93-5.52,5.93-5.52s-0.49,10.3,5.59,10.64c3.8,0.21,3.87-6.54,3.87-6.54s-1.23,7.77,3.31,8.5
			c7.96,1.27,6.23-7.94,6.23-7.94s-0.1,8.43,4.77,9.02c5.08,0.61,4.42-8.07,4.42-8.07s-0.33,8.75,3.83,8.47
			c5.14-0.35,3.39-6.26,3.39-6.26s-0.14,8.01,5.5,7.72c5.38-0.27,4.9-7.41,4.9-7.41s0.19,1.84,1.01,3.54
			c0.83,1.73,2.32,3.31,4.92,2.69c3.02-0.72,1.37-7.01,1.37-7.01s1.41,8.57,5.24,7.88c6.79-1.21,4.38-8.75,4.38-8.75
			s3.21,6.68,7.43,4.45c4.43-2.35,1.77-8.47,1.77-8.47s4.49,6.52,6.98,5.27c3.82-1.91,1.01-9.29,1.01-9.29s5.23,2.2,6.05,1
			c1.28-1.86-5.62-7.15-5.62-7.15s6.37,2.76,8.25,0.08c1.55-2.2-4.47-8.51-4.47-8.51s5.93,1.44,7.15-0.38
			c1.3-1.93-3.03-6.63-3.03-6.63s3.59,1,4.44-0.26c2.59-3.83-4.36-10.01-4.36-10.01s6.46,2.5,7.21-3.39
			c0.57-4.48-7.9-12.27-7.9-12.27s5.55,3.38,6.1,0.05c1.08-6.55-11.69-8.17-11.69-8.17s5.5,0.37,5.21-2.04
			c-0.45-3.79-12.52-4.18-12.52-4.18s8.1,0.69,7.74-2.14c-0.66-5.21-11.78-4-11.78-4s11.24-8.66-0.74-13.94
			c-13.33-5.87-11.46,6.5-11.46,6.5l-3.83-0.91c0,0,3.89-8.57,0-9.21c-2.83-0.47-5.72,7.79-5.72,7.79s4.11-7.96-1.51-9.93
			c-3.4-1.19-3.56,8.67-3.56,8.67s0.49-8.5-3.82-8.07c-4.15,0.42-2.03,9.17-2.03,9.17s-0.91-9.57-5.5-8.18
			c-1.69,0.51,0.51,8.11,0.51,8.11S99.36,16,92.69,19.12c-3.99,1.87,1.44,9.23,1.44,9.23s-3.89-4.88-5.37-4.05
			c-4.27,2.38,1.5,7.05,1.5,7.05l-5.24,1.02c0,0,0.29-19.59-14.33-8.86C55.99,34.28,76.17,36.79,72.37,37.53z"/>
	</g>
	<g id="Ebene_36">
		<path class="st10" d="M72.15,37.43c-4.13,0.89-8.06,2.57-11.46,4.89c-2.41,1.65-4.75,4.13-4.15,6.84c0.09,0.4,0.25,0.81,0.58,1.09
			c0.33,0.28,0.79,0.39,1.22,0.49c1.72,0.37,3.48,0.6,5.25,0.69c-2.67-0.25-5.32,0.33-7.65,1.55c-1.24,0.65-2.61,1.44-3.37,2.55
			c-0.76,1.11-0.69,3.17,0.29,4.12c1.01,0.97,2.68,0.93,4.12,0.7c1.6-0.25,3.18-0.66,4.69-1.21c-4.04,1.55-7.73,3.87-10.75,6.78
			c-1.59,1.53-3.06,3.34-3.31,5.44c-0.25,2.1,1.15,4.49,3.43,4.81c2.2,0.31,4.15-1.27,6.3-1.77c-2.7,0.91-5.1,2.45-7.19,4.26
			c-1.13,0.98-2.2,2.07-2.71,3.41c-0.52,1.34-0.37,2.97,0.7,4c1.07,1.01,2.81,1.21,4.3,0.85c1.49-0.36,2.78-1.19,4.03-2.01
			c-2.18,1.61-4.42,3.28-5.76,5.54c-0.93,1.56-1.25,3.76,0.22,4.92c1.46,1.15,3.72,0.55,5.38-0.33c1.29-0.68,2.5-1.51,3.58-2.45
			c0,0-0.07,0-0.43,0.22c-1.11,1.25-2.21,2.49-3.32,3.74c-1.52,1.72-3.1,3.53-3.56,5.7s0.6,4.79,2.9,5.44
			c1.92,0.54,4.04-0.48,5.24-1.95c1.21-1.48,1.7-3.33,2.17-5.12c0,0,0.59-0.88,0.48-0.83c-0.42,2.42-0.91,4.83-1.65,7.79
			c-0.52,1.03-0.33,2.31,0.41,3.22c0.74,0.91,1.99,1.44,3.23,1.41c0.42-0.01,0.85-0.08,1.23-0.24c0.4-0.17,0.74-0.44,1.05-0.72
			c1.42-1.29,2.38-3.02,2.67-4.83c0,0,0-0.07,0.01-0.07c-0.32,1.99-0.48,4.04,0.05,5.99c0.52,1.95,1.81,3.81,3.76,4.72
			c0.65,0.3,1.39,0.5,2.11,0.41c1.07-0.14,1.94-0.89,2.43-1.77c0.49-0.88,0.66-1.87,0.86-2.91c-0.01-0.51-0.03-1.02-0.04-1.53
			l-0.03-0.12c0,0,0-0.06,0.14-0.07c-0.23,1.72-0.46,3.5,0.02,5.18c0.48,1.68,1.85,3.27,3.72,3.56c2.03,0.32,4.04-1,4.96-2.69
			c0.92-1.69,0.97-3.66,0.85-5.54c-0.6,2.87,0.14,6.57,2.51,8.52c0.84,0.69,2.38,0.68,3.47,0.42c1.21-0.29,1.88-1.46,2.28-2.55
			c0.6-1.67,0.9-3.44,0.86-5.21c0.05,1.87-0.22,3.8,0.48,5.56c0.69,1.76,2.81,3.25,4.71,2.57c1.11-0.4,1.82-1.44,2.07-2.5
			s0.12-2.17-0.01-3.25c-0.05,1.69,0.19,3.45,1.16,4.9c0.97,1.44,2.79,2.49,4.62,2.25c1.61-0.21,2.93-1.38,3.65-2.72
			c0.72-1.34,0.93-2.86,1.11-4.35c0.13,1.36,0.28,2.78,1.02,3.97c0.74,1.19,2.52,2.53,3.97,2.2c1.19-0.27,2.1-1.27,2.1-2.81
			c0-1.12,0.23-2.23,0.22-3.44c0.27,1.41,0.82,2.73,1.32,4.08c0.58,1.54,2.17,3.16,3.73,3.15c1.82-0.02,3.33-2.34,3.92-3.92
			c0.59-1.58,0.45-3.29,0.3-4.95c1.4,2.11,3.48,5.09,6.15,4.75c1.76-0.23,3.1-1.7,3.52-3.29s0.05-3.84-0.42-5.41
			c1.17,2.03,3.02,4.38,5.35,5.24c-0.08-2.99,0.33-6.74,0.25-9.73C109.21,125.43,39.13,99.59,72.15,37.43z"/>
		<path d="M138.75,117.69c0.01,0.26,0.03,0.53,0.04,0.79"/>
	</g>
	<g id="Ebene_37">
		<path class="st11" d="M72.64,36.9c1.88-4.33,5.71-11.75,8.02-15.37c0.58-0.9-1.81-1.29-2.95-1.29c-3.08,0-5.58,2.16-7.73,4.18
			c-0.77,0.72-1.53,1.44-2.3,2.16c-0.7,0.66-1.41,1.33-1.85,2.15c-0.81,1.5-0.59,3.42,0.55,4.73c1.4,1.61,3.78,2.11,5.83,2.95
			c0.14,0.06,0.3,0.14,0.33,0.28C72.57,36.83,72.33,36.96,72.64,36.9z"/>
		<path class="st11" d="M89.46,24.15c-1.14-0.03-2.22,0.86-2.31,1.91c-0.05,0.55,0.14,1.08,0.33,1.6c0.18,0.5,0.35,0.99,0.53,1.49
			c0.19,0.52,0.38,1.05,0.74,1.48c0.37,0.43,0.95,0.75,1.54,0.68c0.13-0.02,0.28-0.06,0.33-0.18c0.03-0.08,0.01-0.17-0.02-0.26
			c-0.41-1.27-0.83-2.55-1.24-3.82C89.06,26.1,88.76,25.05,89.46,24.15z"/>
		<path class="st11" d="M94.87,18.82c-1.03-0.19-2.16,0.21-2.78,0.98c-0.76,0.93-0.74,2.2-0.53,3.34c0.37,2.01,1.32,4.01,3.04,5.31
			c0.21-0.85-0.1-1.73-0.32-2.58c-0.32-1.24-0.47-2.52-0.42-3.8C93.89,20.87,94.15,19.58,94.87,18.82z"/>
		<path class="st11" d="M104.59,19.7c-0.48-0.13-1.65-0.21-2.12-0.33c-1.44,1.22-0.3,2.75-0.18,4.2c0.11,1.46,0.55,2.88,1.04,4.27
			c0.77-1.19,0.7-2.66,0.64-4.04C103.91,22.42,103.91,20.93,104.59,19.7z"/>
		<path class="st11" d="M110.99,18.72c-0.65-0.39-1.57-0.19-2.14,0.3c-0.57,0.49-0.85,1.19-1.05,1.88
			c-0.62,2.22-0.51,4.62,0.32,6.78c0.36,0,0.48-0.43,0.5-0.76C108.8,24.1,109.42,21.2,110.99,18.72z"/>
		<path class="st11" d="M117.68,17.85c-0.62,0-1.31,0.03-1.76,0.43c-0.21,0.19-0.34,0.44-0.45,0.69c-1.13,2.48-1.67,5.23-1.76,7.91
			c0.81-0.09,1.41,0.24,1.63-0.48c0.4-1.35,1.02-3.89,1.42-5.24C117.03,20.19,117.35,19.18,117.68,17.85z"/>
		<path class="st11" d="M125.88,21.02c-0.17-0.54-0.76-0.92-1.37-0.97c-0.61-0.05-1.22,0.19-1.68,0.55
			c-0.55,0.43-0.91,1.01-1.27,1.59c-1.15,1.85-3.24,3.9-3.12,6.02c0.41,0.19,1.84-0.08,2.13-0.4c0.29-0.32,0.43-0.74,0.6-1.13
			c0.47-1.08,1.26-2.01,2.03-2.93C124.07,22.7,125.03,21.61,125.88,21.02z"/>
		<path class="st11" d="M128.57,30.21c-0.21-1.63-0.26-3.24,0.25-4.81c0.28-0.85,1.16-1.75,1.86-2.35c1.13-0.98,2.92-0.9,4.43-0.59
			c2.23,0.46,4.36,1.3,6.35,2.34c0.91,0.47,1.8,1.01,2.44,1.76c0.64,0.75,1.2,1.78,0.88,2.69c-4.11-0.56-2.94-1.4-13.52,0.55
			C130.3,29.97,128.68,31.13,128.57,30.21z"/>
	</g>
	<g id="Ebene_18">
		<path class="st12" d="M130.19,31.99c2.4,1.97,4.96,3.93,8.4,3.93c3.46,0,5.03-7.36,2.75-9.76c-4.38-4.62-11.78-2.87-11.33,5.15"/>
	</g>
	<g id="Ebene_17">
		<path class="st12" d="M74.47,36.03c3.17-0.77,5.25-1.76,7.84-3.65c1.85-1.35-0.42-9.56-4.16-9.88c-2.51-0.22-7.03,0.19-9.51,5.14
			c-2.62,5.25,2.94,7.74,5.86,8.37"/>
	</g>
	<g id="Ebene_40">
		<path class="st13" d="M144.78,68.23c-5.7,50.77-40.36,27.68-37.86,37.03c1.93,7.2,24.16,1.13,27.78-0.84
			c14.93-8.1,15.4-18.69,15.4-40.47c0-2.94,1.89-3.54,1.03-3.42C147.3,61.05,145.37,62.93,144.78,68.23z"/>
		<path class="st14" d="M136.93,26.42c-0.57,0.43-1.2,0.98-1.09,1.65c0.09,0.56,0.65,0.93,1.09,1.31c1.11,0.95,1.73,2.36,1.65,3.75
			c-0.01,0.24-0.05,0.49,0.03,0.73c0.08,0.23,0.31,0.44,0.58,0.42c0.14-0.01,0.26-0.08,0.37-0.16c1.12-0.79,1.44-2.21,1.51-3.5
			c0.07-1.19-0.04-2.47-0.78-3.45C139.53,26.2,137.94,25.67,136.93,26.42z"/>
		<path class="st14" d="M74.33,25.19c-0.55,0.55-0.92,1.28-0.93,2.03s0.38,1.51,1.07,1.92c1.27,0.75,3.06,0.16,4.38,0.83
			c0.65,0.33,1.09,0.93,1.7,1.32c0.18,0.12,0.39,0.22,0.62,0.21c0.33-0.01,0.6-0.28,0.71-0.56c0.1-0.29,0.07-0.6,0.04-0.91
			c-0.15-1.24-0.41-2.49-1.05-3.59c-0.65-1.1-1.73-2.03-3.06-2.3C76.48,23.89,75.03,24.5,74.33,25.19z"/>
		<path class="st14" d="M156.74,72.6c0.65,9.23,1.3,18.45,1.95,27.68c0.1,1.48,0.42,3.25,1.9,3.83c0.68-1.34,0.63-2.87,0.55-4.34
			c-0.46-8.65-1.35-17.28-2.66-25.86c-0.06-0.42-0.14-0.86-0.45-1.17C157.72,72.43,157.09,72.35,156.74,72.6z"/>
		<path class="st14" d="M141.96,39.7c2.42,0.68,4.88,1.22,7.37,1.61c0.33,0.05,0.67,0.1,0.99,0.01c0.32-0.09,0.59-0.37,0.55-0.67
			c-0.38-0.41-0.95-0.62-1.5-0.8c-2-0.64-4.07-1.07-6.18-1.28c-0.49-0.05-1.04-0.06-1.39,0.25
			C141.44,39.14,141.65,39.87,141.96,39.7z"/>
		<path class="st14" d="M144.82,45.65c2.84,1.58,6.12,2.49,9.44,2.61c0.39,0.01,0.86-0.02,1.07-0.33c0.26-0.4-0.14-0.89-0.54-1.17
			c-1.42-0.98-3.22-1.37-4.97-1.64c-1-0.15-2.01-0.28-3.02-0.4c-0.57-0.07-1.2-0.12-1.65,0.2C144.7,45.24,144.76,46.07,144.82,45.65
			z"/>
		<path class="st14" d="M153.5,52.04c1.95,2.29,4.82,4.17,7.98,4.09c0.33-0.01,0.7-0.06,0.87-0.32c0.23-0.33-0.04-0.76-0.33-1.05
			c-1.73-1.77-4.35-2.56-6.89-3.05c-0.78-0.15-1.81-0.17-2.15,0.49C152.71,52.76,153.12,53.38,153.5,52.04z"/>
		<path class="st14" d="M156.48,60.21c1.47,2.1,2.93,4.21,4.4,6.31c0.53,0.76,1.19,1.6,2.17,1.7c0.2,0.02,0.42,0,0.59-0.1
			c0.44-0.28,0.26-0.91,0.01-1.34c-1.62-2.87-4.07-5.35-7.03-7.11C156.46,60.03,156.5,60.46,156.48,60.21z"/>
	</g>
	<g id="Ebene_25">
		<path class="st0" d="M151.81,60.84c-1.37,13.98-2.75,27.96-4.12,41.95c-0.23,2.33-0.46,4.66-0.46,7c0,2.03,0.16,4.06,0.58,6.05
			c0.28,1.32,0.71,2.68,1.77,3.61c1.05,0.93,2.9,1.22,3.96,0.3c0.65-0.57,0.86-1.43,1.02-2.24c0.62-3.14,0.95-6.33,0.97-9.52
			c-0.43,2.71-0.33,5.49,0.28,8.18c0.18,0.77,0.41,1.57,0.97,2.17c0.56,0.6,1.52,0.96,2.31,0.64c1-0.4,1.24-1.58,1.33-2.57
			c0.2-2.29,0.27-4.59,0.22-6.89c-0.03,1.92,0.23,3.85,0.78,5.7c0.16,0.55,0.8,1.43,1.3,1.77c0.93,0.64,2.08-2.07,2.08-2.07
			s0.84-1.19,0.72-2.25c-1.65-15.3-3.5-30.57-5.56-45.83c-0.14-1.04-2.04,0.96-2.3-0.06l0,0L151.81,60.84z"/>
	</g>
	<g id="Ebene_29">
		<path class="st15" d="M151.13,60.53c-0.32,5.67-0.64,11.35-0.96,17.02c-0.2,3.62-0.41,7.25-0.85,10.86
			c-0.4,3.25-0.98,6.47-1.3,9.73c-0.57,5.78-0.3,11.6,0.05,17.39c0.07,1.2,0.17,2.47,0.92,3.46c0.75,0.99,2.39,1.5,3.4,0.74
			c0.5-0.38,0.73-0.97,0.93-1.53c1.84-5.34,1.91-11.05,1.76-16.65c-0.3-11.55-1.43-23.08-3.39-34.49
			C151.3,64.74,150.87,62.4,151.13,60.53z"/>
	</g>
	<g id="Ebene_2_1_">
		<path class="st9" d="M151.42,60.22c-0.77,10.05-1.54,20.09-2.31,30.14c-0.57,7.41-1.14,14.83-1.17,22.25
			c-0.01,1.55,0.01,3.12,0.4,4.63c0.37,1.45,1.39,3.05,3.02,3.11c1.15,0.04,2.18-0.74,2.69-1.68c0.51-0.94,0.61-2.02,0.7-3.07
			c0.24-2.87,0.49-5.74,0.73-8.61c-0.2,2.79-0.1,5.59,0.31,8.36c0.14,0.95,0.33,1.94,0.99,2.68c0.66,0.74,1.93,1.1,2.77,0.54
			c0.64-0.43,0.82-1.22,0.92-1.94c0.33-2.35,0.34-4.75,0.01-7.1c0.03,2.58,0.19,5.47,2.25,7.24c0.28,0.24,0.65,0.47,1.04,0.41
			c0.36-0.06,0.61-0.36,0.79-0.66c1.33-2.13,1.07-4.76,0.78-7.2c-1.67-13.89-3.33-27.78-5.11-41.67"/>
	</g>
	<g id="Ebene_27">
		<path class="st16" d="M2.94,5.01C2.91,7.1,2.37,9.49,2.59,11.57c0.97,9.42,1.99,18.58,2.96,28c0.04,0.42,0.11,0.9,0.35,1.26
			c0.61,0.95,2.77,0.87,3.97,0.76c15.37-1.37,30.93-0.54,46.22-2.51c1.16-0.15,2.43-0.38,3.14-1.24c0.54-0.66,0.6-1.53,0.64-2.35
			c0.48-9.3,0.55-18.61,0.23-27.92c-0.03-0.99-0.09-2.03-0.66-2.86c-1.22-1.77-4-1.74-6.28-1.53C38.91,4.49,24.52,4.63,10.24,3.6
			C7.64,3.41,4.57,3.36,2.94,5.01z"/>
	</g>
	<g id="Ebene_31">
		<path class="st17" d="M3.02,4.99C3.19,16,3.94,27,5.27,37.94c0.14,1.11,0.36,2.36,1.35,3.01c0.78,0.52,1.83,0.51,2.79,0.48
			c15.15-0.47,30.29-1.09,45.42-1.86c1.62-0.08,3.62-0.42,4.09-1.85c0.38-1.14,2.39-4.99,1.11-4.77c-3.18,0.54-7.27,0.58-9.65,0.59
			c-5.97,0.02-11.98-0.03-17.87-0.97c-5.88-0.94-11.69-2.83-16.42-6.17c-2.29-1.62-4.33-3.6-5.5-6.03
			c-1.32-2.74-1.42-5.81-2.07-8.74C7.87,8.71,6.87,0.12,3.02,4.99z"/>
	</g>
	<g id="Ebene_4">
		<path class="st9" d="M38.15,40.14v-0.07V40.14z"/>
		<path class="st9" d="M38.23,40.14c1.38-0.02,2.76-0.05,4.3,0.01c2.15,0.07,4.31,0,6.85-0.2c2.01-0.26,4.01-0.52,6.02-0.79
			c1.22-0.16,2.6-0.41,3.5-1.4c0.84-1.46,1.01-3.16,1.15-4.8c0.7-8.29,0.87-16.61,0.5-24.92c-0.05-1.06-0.12-2.18-0.77-3.06
			c-1.25-1.69-3.91-1.72-6.13-1.58C39.98,4.24,26.29,4.32,12.63,3.64c-2.7-0.13-5.45-0.3-8.07,0.31c-0.6,0.14-1.23,0.34-1.59,0.79
			c-0.4,0.5-0.4,1.17-0.37,1.8C3.08,17.58,4.07,28.6,5.55,39.57c0.08,0.6,0.19,1.26,0.68,1.67c0.55,0.46,1.39,0.46,2.13,0.42
			c3.46-0.16,6.93-0.32,10.39-0.47"/>
	</g>
	<g id="Ebene_5">
		<path class="st9" d="M50.9,9.41c0.13,4.06,0.27,8.12,0.4,12.19"/>
		<path class="st9" d="M50.71,27.06c0.38-0.25,0.77-0.51,1.15-0.76c0.34,0.28,0.38,0.83,0.06,1.13s-0.94,0.28-1.21-0.07
			c-0.27-0.34-0.08-0.91,0.36-1.03c0.44-0.12,0.96,0.27,0.88,0.69c-0.02,0.11-0.08,0.21-0.17,0.28c-0.22,0.16-0.57,0.04-0.73-0.17
			c-0.16-0.22-0.17-0.49-0.17-0.75c0.24-0.13,0.58-0.08,0.77,0.11c0.19,0.19,0.2,0.51,0.03,0.71c-0.32,0.01-0.63-0.25-0.63-0.55
			c0-0.3,0.32-0.56,0.64-0.52c0.39,0.05,0.6,0.53,0.4,0.84c-0.21,0.3-0.73,0.36-1.03,0.14C50.75,26.88,50.69,26.44,50.71,27.06z"/>
		<path class="st18" d="M39.88,13.41c0-0.87-0.12-1.77-0.63-2.49c-0.51-0.73-1.49-1.23-2.41-1.02c-1.14,0.27-1.71,1.53-1.52,2.59
			s0.93,1.97,1.65,2.82c0.67,0.8,1.35,1.6,2.02,2.4c0.79-0.97,1.69-1.87,2.67-2.69c0.68-0.56,1.4-1.09,1.91-1.79
			c0.5-0.7,0.75-1.62,0.37-2.38C43.55,10.1,42.39,9.68,39.88,13.41z"/>
		<path class="st9" d="M40.08,21.38c0.06,2.75,0.11,5.5,0.17,8.25"/>
		<path class="st9" d="M13.43,9.3c1.42,7.86,2.3,15.8,2.63,23.76"/>
		<path class="st9" d="M15.87,20.34c5.14,0,10.27-0.35,15.35-1.03"/>
		<path class="st9" d="M31.53,8.24c-0.31,6.51,0.01,13.04,0.93,19.49"/>
	</g>
	<g id="Ebene_13">
		<path class="st19" d="M85.39,38.41c-3.39-1.4-7.63-0.75-10.47,1.45c-2.85,2.2-4.26,5.79-3.83,9.19c0.43,3.39,2.63,6.52,5.69,8.46
			c3.93,2.49,9.44,2.96,13.53,0.71c4.09-2.26,6.21-7.35,4.31-11.36c-0.62-1.3-1.58-2.43-2.54-3.54
			C90.07,40.99,87.62,39.33,85.39,38.41z"/>
	</g>
	<g id="Ebene_26">
		<path class="st0" d="M64.11,58.15c-5.31,1.71-13.99,4.22-19.49,3.15c-1.22-0.24-2.48-0.66-3.26-1.55
			c-0.6-0.68-0.85-1.55-1.09-2.39c-1.34-4.74-1.84-9.52-2.12-14.42c-0.12-2.13-0.9-4.28-1.2-6.39c-0.29-2.01-0.4-4.16-1.36-5.99
			c-0.41-0.79-1.42-1.39-2.2-1.89c-0.78-0.51-1.9-0.65-2.67-0.13c-1.04,0.7-0.94,2.13-0.73,3.29c0.4,2.21,0.79,4.43,1.19,6.64
			c-0.29-3.16-0.74-6.63-3.27-8.79c-0.68-0.57-1.32-0.59-2.33-0.44c-0.82,0.13-1.45,0.06-1.78,0.85c-0.21,0.51-0.68,0.76-0.58,1.3
			c0.51,2.68,1.39,5.29,2.61,7.77c-0.7-1.9-1.4-3.8-2.1-5.7c-0.32-0.88-0.67-1.79-1.4-2.43c-0.73-0.64-1.45-0.58-2.22,0.02
			c-0.64,0.5-1.03,1.05-1.06,1.82c-0.44,11.48,1.15,23.06,6.48,34.26c1.83,3.84,4.06,8.96,8.2,9.79c1.77,0.35,5.17,1.25,7.59,1.16
			c8.68-0.31,16.43-3.66,24.34-6.95l-0.26,0.38L64.11,58.15z"/>
	</g>
	<g id="Ebene_30">
		<path class="st20" d="M64.11,71.96c-2.84,1.91-6.34,2.78-9.75,3.6c-4.49,1.08-8.41,2.7-13.05,2.52S30.8,76.9,27.97,73.53
			c-1.63-1.95-2.08-5.5-2.91-7.84c-3.69-10.44-7.03-21.26-6.22-32.21c0.05-0.72,0.13-1.46,0.51-2.1c0.38-0.63,1.13-1.13,1.91-1.04
			c0.54,0.07,1,0.4,1.36,0.77c1.49,1.49,2.56,6.04,2.56,6.04s1.2,6.24,1.68,9.32c0.72,4.63,0.81,8.82,2.68,13.16
			c1.87,4.35,5.02,8.4,9.52,10.59c3.18,1.55,6.85,2.09,10.45,2.08c3.6-0.01,7.17-0.54,10.73-1.03
			C61.86,71.06,63.66,70.89,64.11,71.96z"/>
	</g>
	<g id="Ebene_3">
		<path class="st9" d="M63.69,58.86c-3.36,0.41-8.77,1.71-15.11,2.48c-1.11,0.13-4.73-0.19-5.65-0.79c-2.4-1.56-2.97-4.56-3.35-7.24
			c-0.77-5.54-1.54-11.09-2.31-16.63c-0.36-2.62-0.8-5.39-2.64-7.42c-1.01-1.11-2.88-1.91-4.11-1.01c-0.95,0.7-0.96,1.99-0.86,3.1
			c0.2,2.1,0.51,4.19,0.94,6.26c-0.08-1.27-0.25-2.53-0.51-3.78c-0.32-1.54-0.86-3.18-2.23-4.12c-1.37-0.94-3.77-0.68-4.31,0.81
			c-0.26,0.72-0.03,1.51,0.2,2.24c0.61,1.93,1.22,3.86,1.83,5.79c-0.48-1.82-1.08-3.61-1.8-5.36c-0.52-1.27-1.6-2.77-3.04-2.45
			c-1.07,0.24-1.55,1.38-1.76,2.38c-0.83,3.93-0.16,7.99,0.54,11.94c1.46,8.31,3.03,16.71,6.72,24.42c0.77,1.6,1.64,3.19,2.9,4.5
			c2.67,2.77,6.85,4,10.88,4.09c4.03,0.09,8-0.83,11.91-1.75c2.39-0.56,5.79-1.95,8.13-2.69c1.51-0.47,3.58-1.45,4.65-1.73"/>
	</g>
	<g id="Ebene_28">
		<path class="st21" d="M110.36,166.8c8.61,1.18,17.48-0.6,26.07,0.72c-1.03-2.06-0.73-4.44-0.94-6.69c-0.25-2.7-1.29-5.37-3.2-7.44
			c-1.9-2.07-4.7-3.49-7.65-3.62c-1.36-0.06-2.73,0.15-4.05,0.48c-1.17,0.3-2.35,0.7-3.28,1.42c-0.9,0.69-1.52,1.64-2.09,2.58
			c-1.44,2.41-2.63,4.94-3.8,7.47c-0.72,1.56-1.46,3.21-1.26,4.9C110.17,166.63,110.17,166.65,110.36,166.8z"/>
		<path class="st22" d="M110.32,167.18c5.5,0.48,10.99-0.03,16.67-0.03c3.2,0,6.38,0.7,9.57,0.52c0.17-4.52-0.98-9.07-3.3-13.06
			c-0.42-0.73-0.89-1.46-1.52-2.06c-0.94-0.91-2.21-1.49-3.51-1.86c-2.51-0.7-5.26-0.6-7.71,0.26c-3.25,1.15-6.47,3.53-8.03,6.38
			C110.93,160.2,110.46,163.67,110.32,167.18z"/>
		<path class="st22" d="M73.09,167.18c2.13-0.48,5.12,0.13,7.3-0.07c0,0,4.26-0.37,6.36-0.34c7.27,0.12,14-0.4,21.26-0.73
			c0.63-1.69,0.16-3.55-0.32-5.28c-0.34-1.24-0.7-2.49-1.23-3.67c-1.42-3.15-4.14-5.79-7.49-7.26c-4.1-1.81-9.01-1.82-13.3-0.43
			c-3.85,1.25-7.28,3.61-9.51,6.75C73.95,159.29,72.61,162.75,73.09,167.18z"/>
		<path class="st22" d="M80.39,167.11c-0.29,0.24-0.59-0.29-0.42,0.04"/>
	</g>
	<g id="Ebene_19">
		<polyline class="st23" points="107.64,166.47 73.23,167.55 73.48,169.1 107.75,169.61 		"/>
	</g>
	<g id="Ebene_20">
		<path class="st23" d="M110.36,166.8c0,0-0.99,3.3-0.35,3.28c6.7-0.2,25.87-0.46,25.87-0.46l0.04-1.43l-25.58-0.68"/>
	</g>
	<g id="Ebene_32">
		<path class="st24" d="M102.1,151.47c-4-1.95-9.04-0.83-12.91,1.34c-5.71,3.2-9.89,8.63-11.26,14.65c-0.1,0.44-0.2,0.91-0.51,1.26
			c-0.99,1.12-2.96,0.22-4.51,0.47c-0.13-3.55-0.23-7.23,1.23-10.53c1.45-3.25,4.36-5.85,7.77-7.45c3.41-1.6,7.28-2.24,11.11-2.23
			C95.92,148.98,98.93,149.38,102.1,151.47z"/>
		<path class="st25" d="M130.23,151.8c-3.03-2.08-7.41-2.36-10.73-0.69c-2.17,1.1-3.82,2.89-5.29,4.72
			c-1.25,1.54-2.42,3.16-3.17,4.95c-1.08,2.59-1.23,5.42-1.37,8.19c-0.01,0.3,0,0.65,0.26,0.82c0.19,0.13,0.45,0.12,0.69,0.1
			c1.29-0.09,2.58-0.18,3.87-0.27c1.66-3.71,3.35-7.46,5.85-10.75C122.84,155.58,126.27,152.73,130.23,151.8z"/>
	</g>
	<g id="Ebene_6">
		<path class="st9" d="M73.12,169.49c-0.74-4.01-0.1-8.24,1.97-11.83s5.61-6.49,9.8-7.8c2.37-0.74,4.89-0.99,7.39-1.03
			c2.47-0.05,5.02,0.1,7.27,1.05c2.47,1.04,4.4,2.98,5.68,5.18c1.28,2.2,1.94,4.66,2.36,7.12c0.43,2.53,0.61,5.09,0.54,7.65
			C96.56,169.2,84.96,168.96,73.12,169.49z"/>
		<path class="st9" d="M73.09,167.18c11.52-0.35,23.03-0.69,34.55-1.04"/>
		<path class="st9" d="M80.98,151.8c2.17,2.7,3.28,3.55,5.03,5.55"/>
		<path class="st9" d="M136.26,170.08c0.28-4.08-0.19-8.2-1.36-12.14c-0.34-1.13-0.74-2.26-1.38-3.28
			c-2.22-3.53-7.22-5.15-11.55-4.26c-4.34,0.89-7.91,3.95-9.85,7.62c-1.94,3.67-2.39,7.87-2.11,12.06
			C118.75,169.51,127.54,169.58,136.26,170.08z"/>
		<path class="st9" d="M109.99,167.11c2.15,0.11,4.3,0.17,6.45,0.23c6.64,0.18,13.27,0.37,19.91,0.55"/>
		<path class="st9" d="M120.92,153.62c2.36-0.04,4.73,0.04,7.08,0.25"/>
		<path class="st9" d="M120.92,156.33c2.01,0.2,4.04,0.29,6.07,0.27"/>
	</g>
	<g id="Ebene_8">
		<path class="st26" d="M110.43,47.85c-1.15-1.5-5.36-1.16-7.92,0.76c-3.24,2.44,2.54,6.67,4.66,6.23
			C109.37,54.39,112.74,50.85,110.43,47.85z"/>
		<path class="st27" d="M107.12,54.5c0.13,2.32,0.38,3.06,0.52,5.57"/>
		<path class="st27" d="M106.46,66.79c4.39-0.14,5.64-0.26,9.66-3.95"/>
	</g>
	<g id="Ebene_47">
		<path class="st28" d="M107.26,48.4c0.76-0.28,1.7-0.41,2.36,0.04c0.64,0.43,0.81,1.23,0.81,1.95c0,0.21-0.03,0.46-0.24,0.56
			c-0.19,0.09-0.45-0.01-0.57-0.18c-0.13-0.16-0.18-0.37-0.25-0.56c-0.27-0.72-0.97-1.3-1.78-1.47c-0.15-0.03-0.33-0.06-0.41-0.18
			C107.1,48.44,107.24,48.23,107.26,48.4z"/>
		<path class="st29" d="M106.06,47.82c0,0,1.35-0.28,2.08-0.39c0.41-0.07,0.86-0.13,1.24,0.02c0.35,0.14,0.6,0.45,0.77,0.76
			c0.44,0.85,0.42,1.84,0.24,2.76c-0.11,0.58-0.33,1.22-0.9,1.5c-0.22,0.11-0.51,0.15-0.7,0.01c-0.17-0.13-0.21-0.35-0.22-0.55
			c-0.01-0.21,0.01-0.43,0.06-0.64c0.07-0.33,0.21-0.65,0.26-0.98s-0.03-0.71-0.31-0.93c-0.21-0.16-0.49-0.21-0.76-0.23
			c-0.89-0.05-1.79,0.24-2.68,0.15c-0.19-0.02-0.39-0.06-0.53-0.18c-0.2-0.18-0.17-0.5-0.01-0.71c0.16-0.21,0.42-0.34,0.69-0.43
			C105.5,47.92,105.92,47.84,106.06,47.82z"/>
	</g>
	<g id="Ebene_10">
		<path class="st26" d="M83.37,44.29c-0.98-0.15-2.04,0.27-2.6,1.03c-0.59,0.8-0.58,1.95,0.09,2.7c0.66,0.75,1.95,0.98,2.84,0.47
			c0.61-0.35,0.98-0.97,1.19-1.6c0.21-0.63,0.29-1.35-0.06-1.93C84.48,44.36,83.59,44.03,83.37,44.29z"/>
		<path class="st26" d="M123.62,44.08c-0.52-0.33-1.31-0.25-1.74,0.17c-0.46,0.45-0.49,1.16-0.32,1.76c0.2,0.69,0.66,1.34,1.36,1.65
			s1.64,0.19,2.11-0.38c0.27-0.33,0.35-0.75,0.4-1.16c0.03-0.27,0.06-0.55-0.03-0.82C125.18,44.57,124.21,44.44,123.62,44.08z"/>
		<path class="st26" d="M124.43,45.13c-0.16-0.11-0.34-0.2-0.53-0.24c-0.07,0.15-0.14,0.31-0.13,0.47c0.01,0.16,0.11,0.34,0.28,0.38
			c0.17,0.05,0.38-0.06,0.43-0.22C124.54,45.37,124.49,45.17,124.43,45.13z"/>
	</g>
	<ellipse class="st39" cx="81.95" cy="58.45" rx="8.54" ry="4"/>
	<ellipse class="st39" cx="136.75" cy="58.45" rx="8.54" ry="4"/>
</g>
<g id="Ebene_2">
	<ellipse class="st45" cx="83.79" cy="45.8" rx="0.62" ry="0.51"/>
	<ellipse class="st45" cx="123.92" cy="45.8" rx="0.62" ry="0.51"/>
</g>
</svg>
