<?xml version="1.0" encoding="utf-8"?>
<!-- Generator: Adobe Adobe Illustrator 24.2.0, SVG Export Plug-In . SVG Version: 6.00 Build 0)  -->
<svg version="1.1" xmlns="http://www.w3.org/2000/svg" xmlns:xlink="http://www.w3.org/1999/xlink" x="0px" y="0px"
	 viewBox="0 0 170.08 170.08" style="enable-background:new 0 0 170.08 170.08;" xml:space="preserve">
<style type="text/css">
	.st0{fill:#B5A8A8;}
	.st1{fill:none;stroke:#000000;stroke-width:0.8883;stroke-miterlimit:10;}
	.st2{fill:none;stroke:#000000;stroke-width:0.8883;stroke-linecap:round;stroke-linejoin:round;stroke-miterlimit:10;}
	.st3{fill:#BAC5C9;}
	.st4{fill:#6A6D6E;}
	.st5{fill:#594F4F;stroke:#000000;stroke-width:0.8883;stroke-linecap:round;stroke-linejoin:round;stroke-miterlimit:10;}
	.st6{opacity:0.2392;stroke:#FFFFFF;stroke-width:0.111;stroke-miterlimit:10;enable-background:new    ;}
	.st7{fill:#F0E9E5;}
	.st8{stroke:#000000;stroke-width:0.8883;stroke-linecap:round;stroke-linejoin:round;stroke-miterlimit:10;}
	.st9{fill:#CA8C7F;}
	.st10{fill:#FFFFFF;}
	.st11{opacity:0.2392;enable-background:new    ;}
	.st12{fill:none;}
	.st13{opacity:0.2392;}
	.st14{opacity:0.149;}
	.st15{fill:#D15238;}
	.st16{fill:#D15239;}
	.st17{opacity:0.1882;enable-background:new    ;}
	.st18{opacity:0.2314;enable-background:new    ;}
	.st19{fill:none;stroke:#000000;stroke-width:1.5116;stroke-miterlimit:10;}
	.st20{fill:#BBC5C9;}
	.st21{fill:#859499;}
	.st22{opacity:0.251;enable-background:new    ;}
	.st23{fill:none;stroke:#000000;stroke-width:1.5116;stroke-linecap:round;stroke-linejoin:round;stroke-miterlimit:10;}
	.st24{fill:#E0C2BB;}
	.st25{fill:#FCF5F5;stroke:#FFFFFF;stroke-width:0.1889;stroke-miterlimit:10;}
	.st26{fill:#C3597C;stroke:#FFFFFF;stroke-width:0.1889;stroke-miterlimit:10;}
	.st27{stroke:#000000;stroke-width:1.5116;stroke-linecap:round;stroke-linejoin:round;stroke-miterlimit:10;}
	.st28{fill:#857373;}
	.st29{fill:#F0E9E5;stroke:#F0E9E5;stroke-width:2.2674;stroke-linecap:round;stroke-miterlimit:10;}
	.st30{fill:#F0E9E5;stroke:#F0E9E5;stroke-width:2.4563;stroke-linecap:round;stroke-miterlimit:10;}
	.st31{opacity:0.2392;fill:#FFFFFF;enable-background:new    ;}
	.st32{fill:#C8354F;}
	.st33{fill:#C93550;}
	.st34{opacity:0.0314;}
	.st35{fill:#D1DFEA;}
	.st36{fill:#D3E1ED;}
	.st37{fill:#C8354E;}
	.st38{fill:#F3C058;}
	.st39{fill:#C8AE9D;}
	.st40{opacity:0.0784;}
	.st41{opacity:0.1412;}
	.st42{fill:#6DB671;}
	.st43{fill:#6CB671;}
</style>
<g id="Ebene_1">
</g>
<g id="Ebene_2">
	<g>
		<g id="Ebene_28">
			<g>
				<path class="st0" d="M67.38,111.9c-0.22-0.49-0.43-0.97-0.65-1.46c0.96,6.45,0.93,12.99,1.07,19.49
					c0.15,6.56,0.47,13.13,1.41,19.63c2.31,0,4.62,0,6.94,0c0.49,0,1.05-0.03,1.38-0.37c0.31-0.33,0.31-0.82,0.29-1.26
					c-0.62-12.88-1.24-25.77-1.86-38.65c-0.01-0.3-0.03-0.61-0.22-0.85c-0.32-0.42-0.97-0.42-1.51-0.35
					C71.63,108.39,69.11,109.23,67.38,111.9z"/>
				<path class="st0" d="M97.29,109.84c-0.94,14.25-0.78,28.72,0.39,42.95c2.17,0.02,5.35-0.14,7.52-0.12
					c0.51,0.01,1.08-0.01,1.45-0.35c0.38-0.35,0.4-0.92,0.4-1.43c-0.06-13.95-0.12-27.89-0.18-41.84
					C103.65,109.29,100.43,109.52,97.29,109.84z"/>
				<path class="st17" d="M68.27,110.69c3.75,4.96,5.84,11.06,5.9,17.18c0.05,6.12-1.94,12.25-5.61,17.27
					c-0.59-10.02-1.17-20.04-1.76-30.06C66.7,113.28,66.67,111.26,68.27,110.69z"/>
				<path class="st18" d="M97.1,114.28c0.12,10.83,0.24,21.66,0.37,32.49c2.45-0.65,4.34-2.64,5.34-4.88s1.23-4.72,1.29-7.15
					c0.09-3.87-0.23-7.78-1.34-11.5C101.66,119.52,99.75,115.97,97.1,114.28z"/>
				<path class="st19" d="M66.28,106.73c0.72,14.66,1.44,28.39,2.16,43.05c2.98,0.33,6.34-0.45,9.31-0.13
					c-1.39-43.82-1.02-42.22-2.48-42.59C69.32,105.56,67.78,107.4,66.28,106.73z"/>
				<path class="st19" d="M96.85,108.46c-0.6,14.78,0.13,28.81,0.83,44.34c2.77,0.06,5.54,0.11,8.31,0.17
					c0.35,0.01,0.74,0,0.99-0.23c0.29-0.25,0.3-0.68,0.28-1.05c-0.54-14.63-0.3-28.52-0.83-43.14
					C103.68,108.69,100.15,108.1,96.85,108.46z"/>
				<path class="st20" d="M54,163.17c0.61-5.61,3.41-11.11,8.15-14.47c4.74-3.36,11.47-4.27,16.71-1.67
					c5.66,2.8,8.74,9.23,8.34,15.31C76.27,161.84,65.31,162.09,54,163.17z"/>
				<path class="st20" d="M90.92,161.75c-0.34-3.71,0.32-7.62,2.56-10.66c2.24-3.05,6.24-5.04,10.07-4.39
					c3.04,0.52,5.61,2.59,7.28,5.07c1.67,2.48,2.57,5.36,3.34,8.22c0.25,0.92,0.41,2.07-0.36,2.67c-0.43,0.33-1.01,0.38-1.56,0.41
					c-7.24,0.41-14.49,0.47-21.74,0.16C90.55,162.61,90.58,161.98,90.92,161.75z"/>
				<path class="st21" d="M54.57,163.78c-0.69,0.35-0.56,1.43,0.05,1.89c0.61,0.47,1.46,0.5,2.24,0.51c9.9,0.13,19.8,0.27,29.7,0.4
					c1.27-0.97,0.69-3.09-0.67-3.94c-1.36-0.85-3.11-0.8-4.73-0.72C72.18,162.36,62.23,159.87,54.57,163.78z"/>
				<path class="st21" d="M90.96,163.69c0,0.95,0,1.91,0,2.86c7.29-0.03,14.58-0.05,21.86-0.08c0.39,0,0.8-0.01,1.15-0.18
					c1.05-0.52,0.84-1.99,0.46-3.07C106.59,163.85,98.7,163.93,90.96,163.69z"/>
				<path class="st22" d="M75.11,145.4c-5.52-0.52-11.23,1.4-15.2,5.1s-6.11,9.11-5.71,14.39c0.03,0.35,0.07,0.71,0.28,1
					c0.41,0.58,1.27,0.64,2,0.63c0.88-0.01,1.85-0.04,2.52-0.59c0.53-0.43,0.76-1.1,0.99-1.73C62.71,156.7,68.26,150.16,75.11,145.4
					z"/>
				<path class="st11" d="M107.69,147.85c-2.36-1.12-5.02-1.74-7.64-1.46c-2.62,0.28-5.17,1.53-6.69,3.58
					c-1.58,2.12-1.94,4.83-2.26,7.41c-0.2,1.61-0.39,3.22-0.59,4.83c-0.15,1.24-0.29,2.56,0.29,3.69c0.58,1.12,2.17,1.86,3.24,1.14
					c0.81-0.54,0.98-1.6,1.14-2.53c0.96-5.5,4.44-10.56,9.34-13.6C105.77,150.12,107.27,149.23,107.69,147.85z"/>
				<path class="st23" d="M54.28,166.8c-1.17-4.75,0.35-9.88,3.37-13.82c2.95-3.85,7.42-6.73,12.37-7.38
					c4.95-0.65,10.29,1.1,13.39,4.85c1.82,2.2,2.81,4.95,3.26,7.72s0.42,5.6,0.37,8.4C76.09,166.61,65.14,166.64,54.28,166.8z"/>
				<path class="st23" d="M90.64,166.96c-0.32-3.17-0.64-6.36-0.2-9.52c0.45-3.15,1.75-6.3,4.21-8.44c1.85-1.61,4.3-2.57,6.8-2.69
					c2.56-0.12,5.17,0.64,7.22,2.11c2.77,1.98,4.44,5.12,5.22,8.34s0.77,6.56,0.75,9.87C106.69,166.38,98.74,166.52,90.64,166.96z"
					/>
				<path class="st23" d="M54.36,163.56c10.67-0.96,21.4-1.37,32.12-1.24"/>
				<path class="st23" d="M91.15,163.86c7.64,0.08,15.28-0.12,22.9-0.59"/>
				<path class="st23" d="M101.05,155.89c1.77,0.2,3.54,0.41,5.3,0.61"/>
				<path class="st23" d="M101.11,150.86c0.99,0,1.98,0,2.97,0"/>
				<path class="st23" d="M59.05,152.07c1.47,1.47,2.94,2.94,4.42,4.41"/>
				<path class="st23" d="M61.71,149.3c1.28,1.5,2.56,3.01,3.85,4.51"/>
				<path class="st0" d="M43.49,95.24c0.27,2.5-1.05,4.88-1.65,7.32c-0.6,2.45-0.04,5.63,2.44,6.47c1.71,0.58,3.66-0.27,4.83-1.59
					c1.17-1.32,1.73-3.02,2.26-4.68c-1.17,2.22-1.01,6.84,0.26,9.01c1.27,2.17,3.83,1.62,6.25,0.71c2.42-0.91,3.59-4.22,1.91-6.13
					c-0.19,2.34,0.18,4.83,1.66,6.7c1.48,1.87,3.16,4.45,4.11,2.29c1.07-2.4,4.12-3.33,3.67-6.19c-1.92,2.88-0.06,8.04,3.52,7.92
					s6.75-5.46,4.61-8.2c-0.4,2.03,2.16,6.67,3.62,8.19c1.46,1.52,2.44,0.19,3.2-1.74c0.83-2.12,1.28-3.25,0.45-4.94
					c-1.7,2.92,1.94,7.16,5.44,7.09c3.5-0.07,5.98-4.42,4.16-7.27c-1.34,2.75,1.28,6.44,4.46,6.27c3.17-0.18,5.33-4.14,3.66-6.72
					c-1.15,3.19,3.78,8.01,7.24,7.32c3.46-0.69,1.91-5.74,1.23-9c-0.77,2.94,3.94,6.32,6.84,5.07c2.9-1.24,2.93-5.92,1.08-8.39
					c-0.54,2.17,5.43,5.46,7.39,4.23c2.16-1.35,0.91-2.71,1.28-4.92c0.37-2.2-0.36-4.45-1.35-6.47c0.54,3.5,5.36,6.83,8.39,4.8
					c3.04-2.03,2.87-8.47-0.39-10.16c2.5,1.31,5,2.62,7.5,3.93c1.31-5.37-0.41-11.32-4.41-15.29c0.61,1.5,1.28,3.08,2.65,4.02
					s4.13,1.92,4.9,0.49c0.69-1.3-0.65-3.89-1.48-5.12c-2.62-3.9-5.25-7.81-7.87-11.71c2.03,1.34,3.26,3.68,4.8,5.56
					c1.54,1.88,5.76,3.2,7.24,1.27c1.34-1.76-0.29-5.53-1.91-7.06c-4.08-3.84-7.91-7.87-12.78-10.83c1.42,0.59,2.91,1.19,4.46,1.11
					c1.55-0.07,4.61-1.25,4.84-2.71c0.17-1.07-1.66-2.22-2.32-3.1c-2.38-3.16-6.25-5.08-10.25-5.79c2.1,0.65,6.33-0.99,6.57-3.09
					s-3.06-4.33-4.87-5.55s-3.99-1.77-6.13-2.31c1.29,0.88,2.69,1.8,4.27,1.85c1.59,0.05,4.39-1.51,4.14-3.01
					c-0.22-1.3-2.75-1.7-4.03-2.2c-3.63-1.41-7.25-2.82-10.88-4.23c2.88,1.66,8.19-1.63,8.09-4.84c-0.09-3.21-4.21-5.64-7.12-7.25
					c-2.84-1.58-6.44-2.53-9.4-1.15c-2.96,1.38-4.16,5.87-1.49,7.71c-2.79,0.15-5.63-0.63-7.91-2.17c1.35-0.95,2.72-1.99,3.42-3.45
					c0.7-1.46,0.7-4.42-0.67-5.33c-1.54-1.02-4,0.76-5.12,2.18s-1.4,3.29-1.64,5.06c1.05-1.63,1.93-3.5,1.67-5.4
					c-0.25-1.9-0.52-4.82-2.5-4.55c-1.62,0.22-4.3,2.84-4.59,4.39c-0.29,1.54,0.11,3.12,0.5,4.64c0.52-3.59,0.56-8.14-2.86-8.32
					c-3.42-0.18-5.7,5.6-3.31,7.95c1.8-2.41-1.71-7.17-4.75-6.6c-3.03,0.58-3.1,6.02-0.48,7.59c-0.94-2.46-2.01-5.08-4.26-6.58
					s-3.36-3.06-5.46-1.47c-2.23,1.7,0.09,7.84,2.38,9.46c0.62-2.41-2.6-4.79-4.89-3.61s-1.98,5.06,0.47,5.89
					c-1.45,0.32-2.9,0.63-4.35,0.95c0.68-1.84,1.37-3.73,1.32-5.68c-0.06-1.95-1.03-4.01-2.88-4.83c-2.19-0.98-4.76,0-6.9,1.08
					c-2.63,1.33-4.88,3.17-6.99,5.18c-3.35,3.2-3.97,5.15-2.75,7.74s6.25,4.39,8.81,2.95c-0.09,0.53-0.18,1.07-0.28,1.6
					c-2.8,0.8-5.97,2.25-8.88,2.52c-2.91,0.27-6.58,0.74-8.74,2.62c-2.17,1.88-3.35,3.51-1.6,5.75c1.75,2.24,7.4,2.24,7.96-0.5
					c-3.78,1.62-7.29,3.82-10.33,6.51c-2.18,1.92-5.01,5.29-2.9,7.29c2.05,1.95,6.72-2.14,8.97-3.87c-3.61,1-7.2,5.9-9.6,8.67
					c-2.4,2.76-5.68,6.83-1.93,7.16c3.91,0.35,8.41-1.05,11.79-1.81C33.86,67,30.43,71,25.12,73.67c-1.75,0.88-2.53,3.24-2.04,5.07
					c0.54,2.03,3.05,3.1,5.23,2.85c2.18-0.25,4.09-1.46,5.9-2.64c-3.03,0.24-7.3,5.11-8.27,7.86c-0.96,2.75,1.92,2.48,4.68,3.7
					s5.1-0.91,7.06-2.41c-4.68,0.42-5.19,2.72-7.08,4.86s-2.88,5.22-1.71,7.78c1.17,2.56,5.29,4.64,8.03,2.34
					C39.68,100.79,42.13,97.23,43.49,95.24z"/>
				<path class="st18" d="M54.5,31.74c-5.29,0.31-10.5,1.69-15.21,4.02c-2.35,1.16-4.89,3.26-4.07,5.66
					c0.53,1.56,2.39,2.49,4.1,2.47c1.71-0.03,3.33-0.74,4.88-1.43c-5.04,1.2-9.62,4.09-12.74,8.05c-1.1,1.4-3.04,3.02-2.01,4.46
					c1.4,1.95,5.58,1.26,7.69,0.03c-8.46,10.23-9.13,24.29-9.43,37.32c-0.06,2.41-0.1,4.88,0.76,7.14c0.86,2.26,2.85,4.3,5.36,4.55
					c2.51,0.26,5.19-1.9,4.74-4.27c-0.04,0.68-0.09,1.36-0.13,2.04c1.79-1.99,3.58-3.97,5.38-5.96c-1.31,2.46-2.66,5.09-2.4,7.84
					c0.26,2.75,1.15,6.57,3.98,5.99c3.13-0.64,5.84-5.45,6.21-8.49c-0.68,2.61-1.36,5.39-0.46,7.94s2.72,5.77,5.25,4.59
					c2.55-1.19,4.14-5.71,4.05-8.42c-0.28,2.45-0.53,5.1,0.82,7.21c1.34,2.1,2.52,2.88,4.28,2.88c2.31,0,2.37-6.49,3.74-8.27
					c-0.36,2.1-0.71,4.3,0.03,6.31c0.74,2.01,2.97,3.68,5.12,3.12c1.54-0.41,1.79-2.21,2.14-3.71c0.35-1.49,0.93-2.68,0.7-4.2
					c-0.19,2.27-0.23,4.05,1.28,5.58c1.52,1.53,2.37,4.21,4.16,2.99c1.79-1.23,3.61-5.97,2.22-7.61c-0.48,2.13,0.21,4.54,1.96,5.94
					s3.37,2.83,5.14,1.46c1.77-1.38,3.26-5.51,1.64-7.06c-0.99,3.05,2.11,7.07,5.41,6.54c3.29-0.53,5.04-5.51,2.78-7.86
					c0.31,1.91,0.65,3.88,1.76,5.5c1.1,1.62,3.39,3.6,5.34,3.07c1.8-0.48,2.75-3.07,2.98-4.84c0.24-1.77-0.26-3.55-0.74-5.27
					c-0.86,2.89,2.51,7,5.58,6.35c3.07-0.65,4.31-5.73,2.26-8c-0.27,2.05,4.28,3.87,6.44,3.67c2.16-0.2,1.57-2.01,1.96-4.05
					c0.39-2.03-0.36-4.15-1.61-5.85c-16.71,8.2-36.75,9.25-54.86,4.47c-8.23-2.18-16.36-5.66-22.19-11.62
					c-7.86-8.03-10.62-19.85-8.88-30.71C41.65,50.44,47.47,40.47,54.5,31.74z"/>
				<path class="st23" d="M54.22,31.6c-7.24,1.82-21.48,3.78-19.61,9.76c1.14,3.64,8.36,1.99,9.73,0.97
					c-6.86,2.11-16.46,9.6-15.3,12.18c1.43,3.19,6.08,2.36,9.1-0.24c-4.89,2.59-13.57,9.46-12.31,12.17
					c0.75,1.63,4.49,3.08,12.89-0.21c-5.01,3.8-18.2,7.46-15.86,12.85c2.23,5.13,9.32,0.42,10.89,0.49
					c-3.61,1.59-9.17,5.67-7.56,9.06c1.61,3.39,7.79,1.59,10.68-0.19c-11.35,6.85-8.68,14.08-5.72,15.31
					c6.87,2.84,8.27-3.96,12.33-8.42c-2.45,4.76-2.75,13.01-0.01,14.06c3.6,1.38,5.55-2.16,7.29-6.49
					c-0.24,3.71-0.02,10.59,4.66,10.92c2.68,0.19,5.31-3.85,4.31-6.6c0.96,2.85,2.16,8.83,5.17,8.74c2.33-0.07,2.55-3.39,3.9-6.34
					c0.95,3.36,0.53,7.6,3.97,7.47c3.43-0.13,5.01-4.68,4.14-7.79c1.2,2.83,1.99,8.09,4.63,8.51c2.22,0.35,3.5-4.11,3.37-6.79
					c0.83,3.59,2.11,6.91,5.66,6.73c3.56-0.19,3.47-3.87,2.89-7.17c1.42,3.33,2.36,6.72,5.34,6.65c2.98-0.07,4.55-3.54,3.1-6.85
					c2,3.62,4.57,7.26,6.64,7c3.87-0.49,2.9-5.09,2.33-9.04c1.91,2.85,3.08,6.17,6.19,5.09c3.11-1.08,2.51-3.89,1.33-7.7
					c1.86,2.02,4.33,4.28,7.77,3.28c2.27-0.66,1.02-8.96,0.05-11.03c1.29,2.51,6.02,5.85,8.12,4.55c2.62-1.62,1.71-6.36-0.54-11.04
					c2.34,2.23,6.39,5.55,7.75,4.61c3.32-2.27-2.43-10.97-4.39-15.16c3.57,5.48,6.65,5.94,7.58,4.48
					c1.59-2.52-4.96-10.69-7.22-14.38c5.15,7.06,8.72,5.93,10.06,4.21c2.75-3.53-4.99-10.68-13.89-17.22
					c2.84,1.11,8.04,0.81,8.35-2.1c0.38-3.64-7.45-7.17-12-9.82c2.41,0.97,5.77,0.1,5.99-2.16c0.31-3.2-8.4-7.5-10.76-7.79
					c7.2,1.45,8.33,0.73,8.17-1.22c-0.21-2.57-9.79-5.1-14.5-5.1c5.95-2.57,13.5-6.02,0.64-13.25c-12.95-7.28-12.87,3.38-11.45,6.77
					l-7.17-2.28c1.85-1.77,5.95-7.86,2.34-9.09c-2.87-0.98-5.4,4.76-6.82,7.43c0.88-2.71,2.77-10.1-0.19-10.1
					c-4.11,0-4.54,6.36-4.93,8.92c0.54-2.46,2.38-7.49-2.45-8.19c-3.31-0.48-4.06,5.79-3.4,7.81c-0.5-2.46-2.34-7.06-4.65-6.46
					c-2.4,0.63-2.55,3.22-0.94,7.4c-0.7-2.27-4.91-9.36-8.41-8.29c-3.38,1.03-0.94,6,2.02,10.23c-1.16-1.77-4.13-4.78-6.16-3.71
					c-1.44,0.76-1.5,3.94,1.1,5.72l-4.22,1.32c1.83-10.34-2.13-16.19-11.98-8.48c-16.9,13.23,1.96,14.71,2.01,14.78
					C54.19,30.26,54.46,32.01,54.22,31.6z"/>
				<path class="st0" d="M135.92,68.01c0.59,2.11,2.45,3.62,3.96,5.26c1.5,1.64,2.76,3.93,1.86,5.93c-0.46,1.03-1.42,1.77-2.34,2.47
					c-5.14,3.9-10.27,7.8-15.41,11.69c-0.71,0.54-1.44,1.1-1.88,1.85c-0.44,0.76-0.54,1.76,0.01,2.45c0.65,0.82,1.98,0.89,2.97,0.46
					c0.98-0.43,1.72-1.23,2.49-1.96c0.76-0.73,1.65-1.44,2.72-1.59c-1.83,1.19-3.57,2.51-5.21,3.93c-0.57,0.5-1.18,1.1-1.19,1.84
					c-0.01,1.08,1.32,1.8,2.44,1.65c1.12-0.16,2.04-0.9,2.9-1.59c0.86-0.7,1.82-1.41,2.94-1.5c-0.78,0.76-1.81,1.24-2.78,1.79
					c-0.96,0.55-1.91,1.23-2.35,2.21c-0.44,0.98-0.16,2.33,0.85,2.79c0.85,0.39,1.86,0.05,2.72-0.32
					c9.55-4.06,17.38-11.08,24.33-18.55c1.7-1.83,3.45-3.89,3.59-6.33c0.14-2.43-1.36-4.65-2.87-6.61
					c-6.71-8.68-17-17.45-26.3-24.47"/>
				<path class="st0" d="M46.25,45.29c-9.98,8.54-25.31,24.65-32.04,35.72c-1.13,1.86-2.25,3.92-1.97,6.06
					c0.35,2.7,2.79,4.67,5.16,6.19c8.51,5.45,18.28,8.8,28.04,11.79c0.68,0.21,1.38,0.42,2.09,0.36c0.71-0.05,1.44-0.44,1.68-1.08
					c0.3-0.82-0.29-1.68-0.91-2.32c-1.49-1.55-3.32-2.79-5.35-3.62c2.13,1.09,4.39,1.92,6.73,2.49c0.68,0.16,1.59,0.21,1.9-0.4
					c0.3-0.59-0.27-1.23-0.79-1.65c-1.6-1.29-3.3-2.47-5.07-3.53c2.12,1.58,4.77,2.5,7.46,2.57c0.71,0.02,1.49-0.05,1.98-0.54
					c0.59-0.59,0.5-1.58,0.03-2.26c-0.47-0.68-1.23-1.11-1.96-1.52c-5.94-3.34-11.87-6.67-17.81-10.01
					c-1.94-1.09-4.14-2.63-3.97-4.77c0.1-1.34,1.14-2.42,2.12-3.39c3.77-3.71,7.53-7.41,11.3-11.12l0.07,0.02"/>
				<path class="st18" d="M38.46,51.78c-9.84,7.94-17.2,18.3-23.93,28.79c-1.31,2.04-2.65,4.34-2.2,6.7c0.51,2.65,3.1,4.4,5.52,5.78
					c7.45,4.25,16.23,8.72,24.97,11.33c1.35-0.25,1.74-0.34,3.04,0.08c1.3,0.42,3.25-0.12,3.12-1.42c-0.07-0.74-0.81-1.24-1.48-1.61
					c-1.77-0.98-3.62-1.85-5.51-2.59c2.27,0.64,4.54,1.29,6.81,1.94c0.6,0.17,1.36,0.3,1.76-0.16c0.7-0.81-0.67-1.76-1.72-2.03
					c-5.55-1.42-10.78-4-15.22-7.49c-3.4-2.68-6.49-6.24-6.71-10.44c-0.2-3.77,1.93-7.26,3.98-10.49c2.94-4.62,5.89-9.25,8.84-13.87
					c0.64-1.01,1.3-2.08,1.31-3.25C41.04,51.85,40.05,50.49,38.46,51.78z"/>
				<path class="st11" d="M135.68,68.23c1.9,2.9,4.05,5.66,6.44,8.54c0.58,0.7,1.14,1.4,1.88,2.2c0.2,2.35-0.78,4.7-2.29,6.57
					c-1.51,1.87-3.51,3.32-5.56,4.64c-3.92,2.53-8.21,5.78-12.59,7.48c-0.84,0.33-1.68,0.68-2.26,0.01
					c-0.78-0.91,0.21-3.37,1.24-4.01c5.45-3.42,10.63-7.25,15.46-11.43c1.09-0.94,2.19-1.94,2.77-3.22
					C141.36,77.73,141.3,76.07,135.68,68.23z"/>
				<path class="st23" d="M134.41,67.75c2.67,3.05,6.67,7.63,6.76,10.09c0.16,4.16-22.97,15.52-19.87,19.84
					c1.12,1.56,5.52-2.16,8.23-3.39c-3.71,3.23-7.53,6-6.23,7.24c1.51,1.45,5.91-2.01,8.09-2.98c-3,2.42-7.05,5.16-5.18,6.71
					c4.48,3.72,33.03-19.47,32.1-25.75c-0.74-5.02-13.31-17.91-25.65-28.11"/>
				<path class="st23" d="M38.87,51.39C28.54,60.18,9.53,82.53,11.71,88.15c2.47,6.37,35.41,20.05,37.14,16.22
					c0.99-2.19-4.08-3.97-6.35-5.81c5.14,1.86,8.49,3.17,8.97,1.99c0.62-1.5-4.29-3.7-6.32-5.28c4.21,2.03,9.78,3.09,10.45,1.15
					c1.08-3.16-24.41-12.14-24.71-17.33c-0.17-2.88,9.16-10.37,13.56-14.24"/>
				<path class="st24" d="M66.22,57.55c-2.17-1.03-4.39-2.08-6.79-2.42c-2.4-0.35-5.05,0.11-6.77,1.74
					c-2.31,2.19-2.31,5.74-1.7,8.79c1.79,8.9,7.7,16.92,15.73,21.74c8.03,4.83,18.04,6.45,27.34,4.66
					c9.3-1.79,17.8-6.93,23.68-14.04c4.01-4.85,6.86-10.73,7.11-16.91c0.09-2.35-0.2-4.76-1.27-6.88c-1.07-2.12-2.98-3.92-5.35-4.56
					c-4.08-1.09-8.15,1.33-11.84,3.31C93.91,59.69,77.98,63.13,66.22,57.55z"/>
				<path class="st11" d="M65.84,56.79c-3.6-1.65-8.01-3.28-11.37-1.22c-1.73,1.06-2.78,2.94-3.12,4.88s-0.63,4.52-0.11,6.42
					c3.73,13.68,14.89,22.75,27.85,24.43c13.18,1.71,27.14-1.45,36.86-10.55c4.85-5.22,8.06-11.81,9.12-18.71
					c-8.5,6.6-18.24,11.58-28.06,16.21c-3.57,1.68-7.2,3.34-11.08,4.2c-3.88,0.86-8.08,0.87-11.72-0.68
					c-4.37-1.86-7.53-5.87-8.71-10.3C64.32,67.03,65.02,62.26,65.84,56.79z"/>
				<path class="st25" d="M63.38,56.1c-0.58,2.03-0.91,4.13-0.97,6.24c1.84,0.61,3.73,1.09,5.65,1.42c0.24,0.04,0.49,0.08,0.71-0.01
					c0.4-0.16,0.53-0.63,0.61-1.04c0.29-1.51,0.57-3.03,0.86-4.54C67.9,57.78,65.62,57.07,63.38,56.1z"/>
				<path class="st25" d="M70.64,58.29c-0.24,1.36-0.47,2.71-0.71,4.07c2.2,0.45,4.43,0.82,6.66,1.09c0.35-1.36,0.6-2.74,0.74-4.13
					C75.16,59.17,73.02,58.84,70.64,58.29z"/>
				<path class="st25" d="M94.23,57.71c0.11,2.12,0.6,4.22,1.43,6.19c1.88-0.16,3.75-0.43,5.6-0.81c0.22-0.04,0.45-0.1,0.6-0.26
					c0.19-0.21,0.15-0.53,0.1-0.81c-0.37-2.11-0.75-4.22-1.12-6.33C98.68,56.25,96.53,56.81,94.23,57.71z"/>
				<path class="st25" d="M100.7,55.65c0.35,1.46,0.7,2.92,1.05,4.39c0.07,0.3,0.18,0.65,0.48,0.77c0.21,0.08,0.45,0.03,0.67-0.03
					c1.48-0.38,2.97-0.76,4.45-1.15c0.21-0.05,0.44-0.13,0.53-0.31c0.07-0.15,0.03-0.32-0.01-0.47c-0.49-1.96-0.99-3.91-1.49-5.87
					C104.63,53.96,102.78,54.8,100.7,55.65z"/>
				<path class="st26" d="M64.52,85.24c2.56-4.03,6.88-7.01,11.7-8.05c4.82-1.05,10.06-0.15,14.2,2.43
					c2.97-4.07,7.82-6.85,12.98-7.44c5.16-0.59,10.55,1.02,14.45,4.3c0.25,0.21,0.51,0.45,0.55,0.77c0.04,0.31-0.14,0.61-0.32,0.88
					c-2.97,4.33-7.34,7.7-12.22,9.96c-4.87,2.27-10.23,3.48-15.62,4.02c-4.55,0.46-9.18,0.44-13.64-0.54
					C72.14,90.6,67.86,88.61,64.52,85.24z"/>
				<path class="st22" d="M90.12,80.31c-3.45-2.1-7.64-3.07-11.71-2.72c-4.08,0.35-8.01,2.03-11.01,4.69
					c-1.1,0.98-2.15,2.32-1.83,3.72c0.26,1.13,1.32,1.91,2.36,2.5c4.29,2.45,9.34,3.4,14.33,3.7c6.55,0.4,13.22-0.29,19.36-2.5
					c6.14-2.21,11.73-5.99,15.53-11.1c0.42-0.56,0.83-1.23,0.66-1.9c-0.27-1.03-1.65-1.3-2.76-1.26c-4.25,0.14-8.24,1.84-12.23,3.24
					C98.82,80.08,93.89,82.61,90.12,80.31z"/>
				<path class="st23" d="M52.1,56.98c3.38-4.59,14.96,0.46,18.53,1.21c29.32,6.1,42.5-14.49,50.72-7.75
					c9.69,7.94,1.11,37.51-30.17,41.6C58.68,96.28,46,65.25,52.1,56.98z"/>
				<path class="st23" d="M62.88,56.98c-0.44,4.08-1.39,5.4-0.72,5.62c1.74,0.59,6.47,2,6.87,1.61c0.22-0.21,0.28-0.4,0.34-0.7
					c0.28-1.58,0.56-3.28,0.84-4.86"/>
				<path class="st23" d="M70.21,62.55c0.29-0.12,4.59,0.76,6.38,1.02c0.56,0.08,0.38-1.52,0.65-3.63"/>
				<path class="st23" d="M94.05,58.57c-0.06-0.22,0.02-0.08-0.05-0.31c0.21,1.21,1.09,6,1.3,6.01c1.12,0.05,5.53-0.84,6.63-1.22
					c0.43-0.15-1.11-5.13-1.42-6.82"/>
				<path class="st23" d="M64.52,86.17c2.42-4.21,6.75-7.38,11.64-8.5c4.89-1.12,10.26-0.18,14.41,2.52
					c2.94-4.45,7.64-7.96,13.11-8.54c5.47-0.58,11.17,1.34,15.06,5.06"/>
				<path class="st23" d="M102.22,60.8c1.9-0.66,3.86-1.19,5.85-1.57c-0.62-1.91-1.25-3.81-1.87-5.72"/>
				<path class="st7" d="M69.3,34.48c-3.15-1.82-7.58-1.02-10.03,1.6c-2.45,2.62-2.85,6.71-1.2,9.85c1.64,3.14,5.13,5.25,8.78,5.62
					c2.16,0.22,4.48-0.16,6.13-1.51c1.26-1.02,2.03-2.52,2.39-4.06C76.48,41.21,73.03,36.63,69.3,34.48z"/>
				<path class="st9" d="M64.4,48.01c-2.1-0.07-4.2-0.14-6.3-0.21c-0.96-0.03-1.95-0.06-2.83,0.3c-0.88,0.36-1.61,1.23-1.45,2.13
					c0.11,0.63,0.63,1.15,1.23,1.44c0.6,0.29,1.28,0.39,1.94,0.46c2.91,0.34,5.86,0.39,8.76,0.05c0.65-0.08,1.32-0.18,1.88-0.51
					c0.56-0.33,0.99-0.94,0.9-1.56c-0.13-0.9-1.17-1.35-2.07-1.65C65.75,48.24,65.04,48,64.4,48.01z"/>
				<path class="st9" d="M113.53,45.42c-2.57-0.19-5.28-0.36-7.58,0.75c-0.61,0.29-1.19,0.69-1.52,1.26
					c-0.33,0.57-0.34,1.34,0.12,1.82c0.44,0.47,1.17,0.55,1.83,0.56c2.9,0.03,5.74-0.75,8.43-1.78c0.39-0.15,0.81-0.33,1-0.7
					c0.25-0.5-0.08-1.12-0.57-1.41C114.74,45.64,114.16,45.47,113.53,45.42z"/>
				<path class="st27" d="M68.02,41.03c-0.76-0.94-2.32-1.16-3.33-0.48c-1.01,0.68-1.32,2.15-0.66,3.15c0.66,1,2.19,1.37,3.27,0.78
					C68.37,43.91,69.06,42.32,68.02,41.03z"/>
				<path class="st27" d="M106.04,40.59c-0.69-0.78-2.12-0.75-2.84,0c-0.73,0.75-0.7,2.02-0.02,2.81s1.9,1.06,2.92,0.76
					c0.86-0.26,1.61-0.96,1.69-1.82C107.88,41.48,107.13,40.57,106.04,40.59z"/>
				<line class="st23" x1="103.41" y1="41.85" x2="106.42" y2="42.53"/>
				<path class="st10" d="M67.73,40.86c-0.03-0.09-0.13-0.14-0.22-0.13c-0.09,0.01-0.17,0.08-0.21,0.17s-0.03,0.18,0,0.27
					c0.03,0.07,0.07,0.14,0.13,0.19c0.06,0.05,0.15,0.07,0.23,0.06c0.13-0.03,0.21-0.17,0.2-0.3
					C67.86,40.99,67.78,40.87,67.73,40.86z"/>
				<path class="st10" d="M106.93,40.95c-0.04-0.19-0.3-0.29-0.48-0.21c-0.19,0.08-0.29,0.28-0.28,0.47
					c0.02,0.26,0.24,0.5,0.51,0.53c0.27,0.03,0.55-0.18,0.57-0.44C107.27,41.04,107,40.79,106.93,40.95z"/>
				<path class="st28" d="M56.61,27.94c1.95-1.87,2.87-2.32,4.87-3.63c1.24-0.81,1.77-8.36-1.49-8.98
					c-3.48-0.66-13.29,7.06-10.92,10.48C49.6,26.58,56.02,27.45,56.61,27.94z"/>
				<path class="st28" d="M110.42,24.85c2.53,1.49,6.31,3.16,6.63,3.09c4.26-0.92,6.98-1.96,6.27-5.59
					c-0.44-2.27-7.73-6.39-10.22-5.58C109.67,17.87,109.8,21.41,110.42,24.85z"/>
				<path class="st27" d="M85.16,46.68c-0.52-1.05-1.48-1.84-2.05-2.85s-0.58-2.53,0.47-3.09c0.5-0.27,1.11-0.25,1.69-0.22
					c1.17,0.06,2.34,0.12,3.51,0.18c0.92,0.05,1.97,0.16,2.48,0.89c0.53,0.74,0.22,1.74-0.11,2.59c-0.45,1.18-0.96,2.42-2.03,3.16
					C88.06,48.07,85.9,48.17,85.16,46.68z"/>
				<path class="st23" d="M87.23,47.51c-0.03,1.77-0.06,3.55-0.09,5.32"/>
				<path class="st29" d="M73.88,29.28c0.68,0.64,1.36,1.28,2.03,1.92"/>
				<path class="st29" d="M80.18,26.9c0.41,0.98,0.81,1.95,1.22,2.93"/>
				<path class="st29" d="M88.3,26.24c0.03,1.02,0.06,2.03,0.09,3.05"/>
				<path class="st30" d="M97.36,27.77c-0.44,0.9-0.89,1.8-1.33,2.71"/>
				<path class="st31" d="M118.69,20.49c0.77,0.24,1.56,0.49,2.17,1s1.01,1.32,0.76,2.06c-0.16,0.47-0.55,0.83-0.93,1.16
					c-0.61,0.53-1.24,1.05-1.89,1.55c-0.21,0.16-0.43,0.33-0.68,0.4c-0.26,0.08-0.56,0.05-0.75-0.14c-0.18-0.18-0.21-0.47-0.14-0.71
					c0.07-0.24,0.21-0.46,0.33-0.68c0.63-1.18,0.6-2.66-0.1-3.81c-0.12-0.19-0.25-0.38-0.32-0.59c-0.07-0.21-0.06-0.47,0.1-0.63
					c0.28-0.3,0.81-0.14,1.13,0.12C118.69,20.46,118.98,20.81,118.69,20.49z"/>
				<path class="st31" d="M54.97,19.74c1.07-0.81,2.19-1.57,3.36-2.25c0.43-0.25,0.99-0.49,1.4-0.2c0.3,0.21,0.35,0.61,0.38,0.96
					c0.11,1.27,0.21,2.53,0.32,3.8c0.03,0.4,0.07,0.8-0.07,1.18c-0.14,0.37-0.5,0.7-0.91,0.69c-0.45-0.01-0.79-0.41-0.99-0.8
					s-0.37-0.83-0.74-1.08c-0.49-0.32-1.16-0.21-1.68,0.06c-0.52,0.27-0.96,0.66-1.49,0.92c-0.34,0.16-0.73,0.26-1.09,0.16
					c-0.56-0.15-0.9-0.76-0.83-1.31c0.06-0.55,0.45-1.03,0.93-1.35C54.01,20.19,54.59,20.03,54.97,19.74z"/>
				<path class="st31" d="M131.11,55.57c6.52,8.68,13.71,16.9,21.49,24.57c0.6,0.59,1.42,1.23,2.22,0.92
					c0.61-0.23,0.88-0.97,0.76-1.59c-0.11-0.62-0.51-1.15-0.9-1.66c-6.2-8.12-12.88-15.91-20.31-23.02
					c-0.43-0.41-0.88-0.84-1.45-1.05s-1.29-0.17-1.7,0.26C130.81,54.44,130.91,55.29,131.11,55.57z"/>
				<path class="st31" d="M130.52,77.75c-3.75,5.76-9.05,10.58-15.25,13.88c-3.24,1.73-6.71,3.03-10.02,4.64
					c-3.31,1.6-6.52,3.55-8.89,6.27c-0.78,0.9-1.46,2.22-0.73,3.15c0.53,0.68,1.55,0.77,2.43,0.69c3.61-0.29,6.8-2.25,9.77-4.22
					c5.47-3.63,10.76-7.52,15.85-11.64c3.4-2.76,6.75-5.66,9.28-9.17c0.54-0.75,1.06-1.56,1.19-2.46c0.13-0.9-0.22-1.93-1.06-2.36
					C132.23,76.1,131.22,76.68,130.52,77.75z"/>
				<path class="st31" d="M109.87,55.62c1.51-0.45,3.18-0.23,4.61,0.41c1.43,0.64,2.63,1.69,3.61,2.87c0.68,0.82,1.41,1.79,2.5,1.88
					c1.06,0.08,1.97-0.74,2.46-1.64c1.39-2.5,0.42-5.95-2.08-7.46c-1.6-0.96-3.62-1.14-5.48-0.83c-1.86,0.31-3.61,1.09-5.29,1.91
					c-0.56,0.28-1.13,0.57-1.53,1.04c-0.4,0.47-0.58,1.14-0.29,1.68C108.68,56,109.55,56.21,109.87,55.62z"/>
				<path class="st31" d="M97.3,77.44c2.85-2.54,6.56-4.18,10.43-4.62c0.44-0.05,0.9-0.08,1.31,0.07c0.41,0.15,0.77,0.53,0.73,0.95
					c-0.04,0.47-0.52,0.79-0.95,1.02c-3.02,1.63-6.28,2.86-9.64,3.67c-0.47,0.11-0.96,0.22-1.43,0.1
					C97.28,78.5,96.7,77.97,97.3,77.44z"/>
				<path class="st31" d="M106.45,28.15c5.43,1.32,10.53,3.85,14.77,7.34c0.79,0.65,1.56,1.35,2,2.25c0.44,0.9,0.48,2.04-0.15,2.82
					c-0.67,0.83-1.92,1.06-2.99,0.83c-1.07-0.23-2.01-0.83-2.91-1.42c-4.05-2.63-8.1-5.26-12.15-7.89c-0.62-0.4-1.26-0.82-1.7-1.41
					c-0.43-0.59-0.62-1.4-0.27-2.04C103.41,28,104.42,27.65,106.45,28.15z"/>
				<path class="st31" d="M102.11,14.43c-0.15,1.78-1.22,3.48-2.8,4.43C98.95,17,99.98,14.98,102.11,14.43z"/>
				<path class="st31" d="M95.48,11.9c0.05,1.58-0.31,3.18-1.03,4.61c-0.22,0.43-0.67,0.92-1.13,0.73
					c-0.31-0.13-0.41-0.51-0.44-0.83C92.72,14.62,93.41,12.8,95.48,11.9z"/>
				<path class="st31" d="M87.9,12.53c0.78-0.1,1.57-0.19,2.35-0.29c0.21,1.96-0.34,3.98-1.53,5.58c-0.24,0.33-0.57,0.67-0.99,0.67
					c-0.56,0-0.91-0.59-1.05-1.12c-0.35-1.27-0.26-2.65,0.24-3.88c0.26-0.64,0.69-1.29,1.38-1.53
					C88.98,11.73,89.91,12.13,87.9,12.53z"/>
				<path class="st31" d="M80.84,13.68c1.41,0.51,2.35,2.01,2.14,3.43c-0.08,0.59-0.47,1.25-1.1,1.27
					c-0.41,0.01-0.77-0.25-1.04-0.55C79.76,16.63,79.65,14.72,80.84,13.68z"/>
				<path class="st31" d="M72.49,13.13c1.54,0.81,2.72,2.21,3.23,3.81c0.27,0.88,0.21,2.06-0.68,2.42c-0.55,0.22-1.2,0-1.62-0.4
					s-0.64-0.95-0.83-1.48C72.21,16.36,71.96,15.21,72.49,13.13z"/>
				<path class="st31" d="M68.9,19.29c0.7,0.28,1.43,0.58,1.89,1.15c0.47,0.57,0.55,1.49-0.02,1.96c-0.65,0.53-1.73,0.15-2.18-0.54
					C68.15,21.17,68.15,20.3,68.9,19.29z"/>
				<path class="st31" d="M104.57,118.48c-1.41,2.93-1.62,6.37-0.57,9.44c1.56-3.15,1.72-6.91,0.43-10.17
					C103.89,118.07,103.52,118.64,104.57,118.48z"/>
				<path class="st31" d="M74.33,119.08c-0.77,4.7-0.61,9.53,0.47,14.17c0.95-3.4,1.23-6.97,0.81-10.46
					C75.49,121.77,75.17,120.58,74.33,119.08z"/>
				<path class="st31" d="M72.59,150.98c1.83,2.94,3.75,5.84,5.76,8.68c0.73,1.04,1.83,2.21,3.1,1.89c0.74-0.19,1.25-0.87,1.4-1.58
					c0.15-0.71,0-1.45-0.22-2.15c-0.95-3.02-3.06-5.56-5.13-8.03c-0.65-0.77-1.32-1.57-2.23-2.04s-2.13-0.54-2.93,0.09
					C71.55,148.48,71.81,149.72,72.59,150.98z"/>
				<path class="st31" d="M104.86,150.43c2.23,1.08,3.31,3.52,4.08,5.79c0.77,2.28,1.52,4.74,3.45,6.25
					c-0.08-4.66-2.2-9.26-5.74-12.47c-0.31-0.28-0.67-0.56-1.09-0.52C105.15,149.54,104.86,150.14,104.86,150.43z"/>
				<path class="st31" d="M41.66,60.44c-4.29,1.73-7.71,5.33-9.09,9.58c-0.18,0.56-0.27,1.3,0.25,1.61
					c0.41,0.25,0.95,0.05,1.39-0.17c2.77-1.38,5.22-3.36,7.1-5.74c0.43-0.55,0.84-1.13,0.98-1.8c0.14-0.67-0.04-1.44-0.61-1.85
					C41.11,61.65,40.14,61.8,41.66,60.44z"/>
				<path class="st31" d="M86.79,41.43c0.91,0.05,1.83,0.1,2.74,0.16c0.22,0.01,0.46,0.03,0.62,0.17c0.2,0.17,0.21,0.46,0.21,0.71
					c-0.03,1.02-0.21,2.04-0.56,3.01c-0.09,0.25-0.19,0.51-0.38,0.7c-0.19,0.19-0.48,0.32-0.75,0.25c-0.49-0.13-0.57-0.77-0.47-1.24
					c0.1-0.48,0.27-1.02-0.03-1.41c-0.22-0.28-0.61-0.38-0.98-0.45c-0.5-0.1-0.99-0.2-1.49-0.3c-0.4-0.08-0.86-0.22-0.97-0.59
					c-0.09-0.32,0.15-0.66,0.46-0.8s0.68-0.13,1.02-0.1C86.57,41.55,86.92,41.6,86.79,41.43z"/>
			</g>
		</g>
		<g id="Ebene_33">
			<g>
				<g>
					<path d="M25.74,32.73c0.67,0.39,1.34,0.77,2.02,1.16c1.01,0.58,2.48-1.81,1.45-2.4c-0.67-0.39-1.34-0.77-2.02-1.16
						C26.17,29.75,24.71,32.15,25.74,32.73L25.74,32.73z"/>
				</g>
			</g>
			<g>
				<g>
					<path d="M23.75,36.92c0.94,0.51,1.88,1.02,2.82,1.54c1.03,0.56,2.48-1.84,1.45-2.4c-0.94-0.51-1.88-1.02-2.82-1.54
						C24.17,33.96,22.72,36.35,23.75,36.92L23.75,36.92z"/>
				</g>
			</g>
			<g>
				<g>
					<path d="M22.72,41.74c0.67,0.13,1.34,0.26,2.02,0.39c0.63,0.12,1.25-0.71,1.42-1.19c0.17-0.48,0.25-1.22-0.42-1.35
						c-0.67-0.13-1.34-0.26-2.02-0.39c-0.63-0.12-1.25,0.71-1.42,1.19C22.13,40.86,22.05,41.61,22.72,41.74L22.72,41.74z"/>
				</g>
			</g>
			<g>
				<g>
					<path d="M118.49,118.25c0.36,0.47,0.72,0.93,1.08,1.39c0.39,0.51,1.13,0.04,1.43-0.33c0.35-0.42,0.77-1.25,0.37-1.77
						c-0.36-0.47-0.72-0.93-1.08-1.39c-0.39-0.51-1.13-0.04-1.43,0.33C118.51,116.91,118.09,117.73,118.49,118.25L118.49,118.25z"/>
				</g>
			</g>
			<g>
				<g>
					<path d="M122.12,115.48c0.48,0.47,0.96,0.93,1.44,1.39c0.46,0.44,1.09,0.09,1.43-0.33c0.23-0.28,0.43-0.61,0.48-0.97
						c0.04-0.24,0.08-0.61-0.12-0.8c-0.48-0.47-0.96-0.93-1.44-1.39c-0.46-0.44-1.09-0.09-1.43,0.33c-0.23,0.28-0.43,0.61-0.48,0.97
						C121.97,114.92,121.93,115.29,122.12,115.48L122.12,115.48z"/>
				</g>
			</g>
			<g>
				<g>
					<path d="M126.7,113.02c0.42,0.4,0.85,0.81,1.27,1.21c0.19,0.18,0.37,0.26,0.65,0.2c0.29-0.06,0.6-0.31,0.78-0.53
						c0.23-0.28,0.43-0.61,0.48-0.97c0.04-0.24,0.08-0.61-0.12-0.8c-0.42-0.4-0.85-0.81-1.27-1.21c-0.19-0.18-0.37-0.26-0.65-0.2
						c-0.29,0.06-0.6,0.31-0.78,0.53c-0.23,0.28-0.43,0.61-0.48,0.97C126.54,112.46,126.5,112.83,126.7,113.02L126.7,113.02z"/>
				</g>
			</g>
		</g>
	</g>
	<g>
		<g id="Ebene_2_Kopie_7_">
			<g>
				<path class="st32" d="M135.51,50.91c3.42,1.76,13.82,7.18,15.5,6.36c2.73-1.33,16.5-23.36,15.47-25.66
					c-2.15-4.83-44.21-28.08-49.8-26.27c-5.04,1.64-10.71,25.66-10.02,27.61c1.06,2.94,8.64,5.33,11.42,8.03
					c1.24,1.2,4.49,11.27,6.17,11.97c0.95,0.4,8.11-0.61,11.14-2.08"/>
				<g>
					<path class="st33" d="M135.4,51.14c3.36,1.73,6.73,3.47,10.21,4.94c0.84,0.35,1.68,0.69,2.54,0.98
						c0.64,0.22,1.3,0.43,1.96,0.51c0.41,0.05,0.82,0.06,1.16-0.14c0.26-0.16,0.48-0.37,0.69-0.57c0.7-0.68,1.3-1.45,1.89-2.21
						c0.85-1.1,1.65-2.22,2.43-3.36c1.89-2.75,3.67-5.56,5.36-8.42c1.49-2.52,2.95-5.08,4.15-7.75c0.37-0.83,0.74-1.68,0.94-2.57
						c0.06-0.25,0.1-0.53,0.06-0.8c-0.04-0.23-0.18-0.45-0.32-0.65c-0.41-0.57-0.96-1.08-1.49-1.54c-0.8-0.69-1.64-1.34-2.5-1.96
						c-2.39-1.74-4.9-3.34-7.43-4.9c-3.1-1.9-6.25-3.73-9.43-5.49c-3.3-1.83-6.65-3.59-10.03-5.28c-3.02-1.5-6.08-2.95-9.19-4.25
						c-2.26-0.94-4.58-1.87-6.97-2.42c-0.73-0.17-1.49-0.31-2.23-0.27c-0.77,0.05-1.37,0.43-1.88,0.91
						c-0.82,0.77-1.43,1.74-1.98,2.71c-0.72,1.29-1.33,2.64-1.88,4c-1.28,3.16-2.29,6.43-3.17,9.73c-0.72,2.7-1.39,5.43-1.79,8.21
						c-0.1,0.71-0.24,1.46-0.15,2.19c0.05,0.47,0.36,0.93,0.68,1.3c0.58,0.69,1.33,1.25,2.1,1.76c1.89,1.25,3.96,2.22,5.93,3.35
						c0.87,0.5,1.74,1.03,2.5,1.68c0.26,0.22,0.36,0.3,0.53,0.54c0.13,0.19,0.24,0.38,0.35,0.59c0.75,1.42,1.33,2.92,1.95,4.38
						c0.68,1.61,1.35,3.25,2.19,4.81c0.29,0.53,0.59,1.08,1,1.55c0.31,0.35,0.62,0.54,1.09,0.58c0.71,0.06,1.42-0.02,2.11-0.09
						c1.03-0.11,2.06-0.27,3.07-0.45c1.95-0.36,3.97-0.8,5.72-1.64c0.3-0.15-0.03-0.58-0.33-0.44c-0.85,0.41-1.77,0.69-2.69,0.94
						c-1.04,0.28-2.11,0.51-3.18,0.7c-0.97,0.17-1.95,0.32-2.94,0.41c-0.61,0.06-1.34,0.14-1.92,0.05
						c-0.04-0.01-0.07-0.01-0.11-0.02c-0.1-0.02,0.01,0.01-0.05-0.02c-0.03-0.01-0.06-0.03-0.09-0.05c0.06,0.04-0.06-0.05-0.08-0.06
						c-0.16-0.13-0.27-0.28-0.41-0.47c-0.39-0.53-0.69-1.12-0.98-1.7c-0.81-1.6-1.48-3.25-2.18-4.9c-0.57-1.36-1.11-2.76-1.86-4.06
						c-0.29-0.5-0.65-0.86-1.12-1.24c-0.79-0.62-1.67-1.15-2.55-1.65c-1.94-1.1-3.99-2.06-5.83-3.31c-0.72-0.49-1.44-1.03-1.95-1.72
						c-0.1-0.13-0.19-0.27-0.26-0.41c-0.04-0.08-0.07-0.16-0.11-0.24c-0.01-0.02-0.04-0.14-0.01-0.03
						c-0.02-0.09-0.03-0.19-0.04-0.28c-0.02-0.27,0.01-0.56,0.04-0.9c0.04-0.45,0.1-0.9,0.17-1.35c0.19-1.24,0.44-2.48,0.71-3.7
						c0.71-3.2,1.57-6.36,2.59-9.46c0.96-2.92,2.02-5.86,3.56-8.53c0.52-0.9,1.11-1.82,1.91-2.52c0.24-0.21,0.6-0.45,0.9-0.55
						c0.05-0.02,0.1-0.03,0.16-0.04c0.02-0.01,0.05-0.01,0.07-0.02c0.09-0.02-0.03,0,0.06-0.01c0.13-0.02,0.27-0.03,0.4-0.03
						c0.37,0,0.58,0.02,0.95,0.08c0.43,0.06,0.85,0.16,1.27,0.26c1.04,0.26,2.07,0.6,3.08,0.96c2.8,1.01,5.54,2.22,8.24,3.48
						c3.27,1.53,6.5,3.15,9.69,4.84c3.28,1.73,6.53,3.53,9.74,5.4c2.85,1.66,5.67,3.37,8.42,5.18c1.98,1.31,3.98,2.66,5.76,4.21
						c0.3,0.26,0.6,0.53,0.87,0.82c0.05,0.05,0.05,0.05,0.13,0.14c0.05,0.06,0.11,0.12,0.16,0.18c0.09,0.1,0.17,0.21,0.25,0.32
						c0.03,0.05,0.06,0.09,0.1,0.14c0.02,0.02,0.03,0.05,0.04,0.07c-0.05-0.08,0,0,0.01,0.02c0.02,0.04,0.04,0.08,0.05,0.12
						c0.03,0.07-0.01-0.05,0,0.01c0,0.02,0.01,0.05,0.01,0.07c0,0.03,0.01,0.18,0.01,0.09c0,0.06-0.01,0.13-0.01,0.19
						c-0.02,0.15-0.05,0.3-0.08,0.45c-0.2,0.83-0.58,1.69-0.95,2.51c-0.55,1.21-1.16,2.4-1.8,3.57c-1.54,2.86-3.22,5.65-4.97,8.39
						c-1.58,2.48-3.22,4.95-5.02,7.29c-0.59,0.76-1.18,1.52-1.87,2.2c-0.23,0.23-0.35,0.35-0.61,0.51c-0.11,0.07-0.17,0.09-0.29,0.1
						c-0.23,0.02-0.41,0-0.63-0.04c-0.68-0.11-1.35-0.33-2-0.56c-0.86-0.31-1.71-0.65-2.55-1.01c-1.91-0.82-3.79-1.73-5.66-2.65
						c-1.41-0.7-2.8-1.42-4.2-2.14C135.3,50.52,135.09,50.98,135.4,51.14L135.4,51.14z"/>
				</g>
			</g>
		</g>
		<g id="Ebene_7_6_">
			<g class="st14">
				<g>
					<path class="st10" d="M152.7,26.47c0.99,0.67,2.04,1.26,3.07,1.87c0.28,0.17,0.57,0.34,0.85,0.51
						c0.14,0.08,0.28,0.17,0.41,0.25c0.07,0.04,0.14,0.09,0.21,0.13c0.23,0.14-0.19-0.12,0.04,0.02c0.53,0.34,1.05,0.69,1.56,1.07
						c0.23,0.18,0.46,0.36,0.68,0.55c0.1,0.09,0.2,0.17,0.29,0.26c0.05,0.04,0.09,0.09,0.14,0.13c0.18,0.18-0.12-0.14-0.02-0.02
						c0.15,0.17,0.3,0.34,0.43,0.53c0.03,0.04,0.05,0.09,0.08,0.13c-0.04-0.05-0.13-0.25-0.06-0.09c0.04,0.09,0.07,0.2,0.11,0.28
						c-0.03-0.05-0.06-0.28-0.03-0.12c0.01,0.04,0.01,0.08,0.02,0.12c0.04,0.23,0.04-0.21,0-0.07c-0.02,0.07-0.08,0.33-0.01,0.09
						c0.07-0.24,0.01-0.05-0.01,0.01c-0.02,0.05-0.04,0.11-0.06,0.16c-0.05,0.12-0.1,0.24-0.15,0.35c-0.73,1.6-1.68,3.1-2.6,4.6
						c-1.29,2.13-2.63,4.23-3.96,6.33c-1.26,1.99-2.54,3.97-3.79,5.96c-0.13,0.21-0.26,0.41-0.39,0.62
						c-0.28,0.45,0.06,1.16,0.57,1.38c0.6,0.26,1.14,0.06,1.44-0.42c1.23-1.97,2.48-3.92,3.73-5.88c1.37-2.16,2.75-4.31,4.08-6.49
						c0.99-1.61,2-3.22,2.82-4.92c0.21-0.43,0.47-0.93,0.5-1.43c0.05-1.16-0.79-2.15-1.68-2.94c-1-0.89-2.16-1.61-3.31-2.31
						c-1.06-0.65-2.15-1.26-3.2-1.92c-0.05-0.03-0.1-0.07-0.16-0.1c-0.16-0.1,0.25,0.16,0.06,0.04c-0.1-0.06-0.2-0.13-0.29-0.19
						c-0.48-0.32-1.17-0.41-1.54,0.04C152.21,25.41,152.19,26.12,152.7,26.47L152.7,26.47z"/>
				</g>
			</g>
			<g class="st14">
				<g>
					<path class="st10" d="M147.1,53.13c-0.06,0.21-0.12,0.43-0.18,0.64c0.65-0.1,1.31-0.21,1.96-0.31
						c-0.19-0.27-0.37-0.53-0.56-0.8c-0.16,0.5-0.32,1.01-0.47,1.51c-0.16,0.03-0.3,0.04-0.46-0.01c-0.07-0.01-0.13-0.04-0.18-0.09
						c-0.09-0.07-0.11-0.07-0.04-0.02c-0.09-0.09-0.16-0.18-0.21-0.29c0.03,0.07,0.03,0.06-0.01-0.04
						c-0.03-0.08-0.04-0.17-0.03-0.26c0.32-0.27,0.63-0.53,0.95-0.8c0.02,0,0.28,0.05,0.14,0.01c0.14,0.04,0.24,0.09,0.36,0.17
						c-0.12-0.08,0.08,0.09,0.09,0.1c-0.09-0.1,0.05,0.09,0.06,0.11c0.05,0.11,0.05,0.23,0.04,0.34c0.02-0.18-0.17,0.32-0.16,0.31
						c0.08-0.1-0.08,0.06-0.1,0.08c-0.05,0.02-0.1,0.05-0.15,0.07c-0.18,0.02-0.23,0.03-0.15,0.02c0.13,0-0.26-0.03-0.13-0.01
						c0.06,0.01,0.03,0.01-0.07-0.02c-0.07-0.01-0.12-0.04-0.18-0.08c-0.22-0.13-0.36-0.35-0.35-0.59c0-0.22-0.05,0.09,0.02-0.13
						c0.07-0.22-0.07,0.07,0.05-0.12c0.02-0.05,0.06-0.1,0.12-0.13c0.08-0.06,0.09-0.07,0.05-0.04c-0.08,0.05,0.26-0.08,0.09-0.05
						c0.5,0.31,0.99,0.62,1.49,0.94c-0.02-0.1-0.04-0.2-0.06-0.3c-0.1-0.53-0.62-1.03-1.22-0.98c-0.56,0.04-1.06,0.49-0.95,1.06
						c0.02,0.1,0.04,0.2,0.06,0.3c0.06,0.33,0.23,0.59,0.53,0.78c0.32,0.2,0.61,0.22,0.96,0.15c0.7-0.12,1.13-0.87,1.02-1.52
						c-0.14-0.77-0.93-1.37-1.75-1.29c-0.8,0.08-1.44,0.72-1.27,1.51c0.16,0.77,0.89,1.38,1.74,1.35c0.48-0.02,0.88-0.36,0.95-0.8
						c0.07-0.48-0.14-1.01-0.55-1.34c-0.45-0.36-0.96-0.46-1.5-0.35c-0.7,0.14-0.84,0.99-0.47,1.51c0.19,0.27,0.37,0.53,0.56,0.8
						c0.25,0.36,0.74,0.53,1.15,0.46c0.46-0.07,0.7-0.38,0.81-0.78c0.06-0.21,0.12-0.43,0.18-0.64c0.06-0.23-0.06-0.57-0.2-0.76
						c-0.16-0.22-0.46-0.42-0.73-0.46c-0.28-0.05-0.58-0.02-0.8,0.13C147.29,52.65,147.18,52.85,147.1,53.13L147.1,53.13z"/>
				</g>
			</g>
		</g>
		<g id="Ebene_2_10_">
			<g>
				<g>
					<path d="M132.83,52.36c3.36,1.74,6.74,3.48,10.22,4.95c0.84,0.36,1.69,0.69,2.55,0.99c0.68,0.23,1.39,0.47,2.1,0.56
						c0.55,0.07,1.09,0.07,1.55-0.2c0.29-0.17,0.55-0.41,0.79-0.65c0.7-0.68,1.3-1.45,1.89-2.21c0.85-1.1,1.65-2.23,2.44-3.37
						c1.91-2.77,3.71-5.61,5.42-8.51c1.49-2.52,2.95-5.07,4.14-7.74c0.38-0.85,0.75-1.74,0.95-2.66c0.06-0.29,0.1-0.61,0.05-0.92
						c-0.06-0.32-0.24-0.63-0.44-0.9c-0.44-0.61-1.04-1.15-1.62-1.66c-0.81-0.7-1.66-1.34-2.52-1.97c-2.43-1.77-4.98-3.39-7.55-4.96
						c-3.1-1.9-6.24-3.72-9.43-5.48c-3.3-1.83-6.64-3.59-10.02-5.27c-3.01-1.5-6.06-2.94-9.16-4.24c-2.31-0.97-4.69-1.92-7.13-2.49
						c-0.77-0.18-1.6-0.33-2.38-0.29c-0.9,0.05-1.61,0.47-2.22,1.03c-0.86,0.79-1.49,1.8-2.05,2.8c-0.73,1.28-1.33,2.63-1.88,4
						c-1.29,3.19-2.31,6.49-3.19,9.82c-0.72,2.71-1.38,5.45-1.78,8.24c-0.1,0.74-0.24,1.53-0.15,2.29c0.07,0.56,0.42,1.12,0.8,1.56
						c0.63,0.74,1.42,1.34,2.24,1.88c1.95,1.27,4.05,2.27,6.07,3.43c0.22,0.13,0.44,0.26,0.66,0.39c0.06,0.04,0.12,0.07,0.17,0.11
						c0.03,0.02,0.22,0.14,0.04,0.02c0.11,0.07,0.22,0.14,0.33,0.21c0.4,0.27,0.8,0.55,1.16,0.87c0.07,0.06,0.14,0.12,0.21,0.18
						c0.04,0.04,0.08,0.08,0.12,0.11c0.08,0.06-0.16-0.19-0.1-0.1c0.05,0.07,0.11,0.14,0.17,0.21c0.06,0.09,0.11,0.17,0.17,0.26
						c0.12,0.2-0.08-0.15,0.01,0.02c0.04,0.07,0.08,0.15,0.12,0.22c0.75,1.42,1.33,2.9,1.95,4.36c0.69,1.61,1.36,3.25,2.21,4.8
						c0.31,0.57,0.63,1.16,1.07,1.66c0.21,0.23,0.43,0.46,0.72,0.6c0.29,0.15,0.58,0.18,0.89,0.2c0.72,0.05,1.44-0.02,2.14-0.09
						c1.07-0.11,2.13-0.27,3.18-0.47c1.99-0.36,4.02-0.82,5.8-1.67c0.38-0.18,0.42-0.73,0.17-1.05c-0.29-0.38-0.77-0.43-1.15-0.25
						c-0.05,0.02-0.36,0.16-0.15,0.07c-0.09,0.04-0.19,0.08-0.28,0.12c-0.22,0.09-0.44,0.17-0.67,0.25
						c-0.48,0.17-0.97,0.31-1.47,0.44c-1.04,0.28-2.11,0.5-3.18,0.69c-0.12,0.02-0.23,0.04-0.35,0.06c-0.02,0-0.25,0.04-0.07,0.01
						c-0.07,0.01-0.14,0.02-0.2,0.03c-0.26,0.04-0.53,0.08-0.79,0.12c-0.46,0.06-0.92,0.12-1.39,0.16
						c-0.38,0.03-0.76,0.06-1.14,0.07c-0.14,0-0.29,0-0.43,0c-0.06,0-0.14-0.02-0.2-0.01c0.21-0.04,0.15,0.02,0.02,0
						c-0.04-0.01-0.09-0.02-0.13-0.03c-0.15-0.02,0.14,0.06,0.11,0.04c-0.02-0.02-0.08-0.05-0.1-0.05c0.21,0.05,0.17,0.13,0.06,0.03
						c-0.04-0.03-0.07-0.07-0.11-0.1c-0.13-0.11,0.15,0.17,0.03,0.03c-0.08-0.1-0.16-0.19-0.24-0.29c-0.18-0.24-0.33-0.49-0.48-0.75
						c-0.03-0.05-0.12-0.18,0.01,0.03c-0.02-0.04-0.04-0.08-0.07-0.12c-0.04-0.07-0.08-0.15-0.12-0.22
						c-0.09-0.17-0.18-0.35-0.27-0.52c-0.81-1.6-1.49-3.24-2.18-4.87c-0.6-1.41-1.17-2.85-1.94-4.19c-0.3-0.52-0.69-0.92-1.18-1.3
						c-0.84-0.67-1.78-1.23-2.72-1.77c-0.98-0.56-1.99-1.09-2.98-1.63c-0.49-0.27-0.98-0.54-1.47-0.82
						c-0.22-0.13-0.44-0.26-0.66-0.4c-0.06-0.04-0.12-0.07-0.18-0.11c-0.19-0.12,0.1,0.07-0.01-0.01c-0.12-0.08-0.24-0.16-0.36-0.24
						c-0.39-0.27-0.78-0.55-1.14-0.85c-0.16-0.13-0.3-0.28-0.45-0.42c-0.14-0.13,0.12,0.14,0,0c-0.03-0.04-0.07-0.08-0.1-0.12
						c-0.07-0.08-0.13-0.15-0.19-0.23c-0.06-0.08-0.11-0.15-0.16-0.23c-0.02-0.03-0.03-0.05-0.05-0.08
						c-0.09-0.14,0.08,0.17,0.01,0.02c-0.05-0.11-0.09-0.25-0.15-0.35c0.12,0.19,0.05,0.22,0.04,0.12c0-0.02-0.01-0.04-0.01-0.06
						c-0.01-0.05-0.01-0.11-0.02-0.16c0-0.06,0-0.12-0.01-0.18c-0.01-0.18,0,0.14,0,0.07c0-0.04,0-0.08,0-0.12
						c0.01-0.18,0.02-0.35,0.03-0.53c0.04-0.46,0.1-0.91,0.17-1.36c0.19-1.24,0.43-2.46,0.7-3.68c0.33-1.53,0.71-3.04,1.11-4.54
						c0.22-0.83,0.46-1.66,0.7-2.48c0.06-0.2,0.12-0.39,0.18-0.58c0.02-0.05,0.1-0.34,0.04-0.13c0.04-0.12,0.08-0.25,0.11-0.37
						c0.13-0.41,0.26-0.81,0.39-1.22c0.95-2.91,2.01-5.85,3.55-8.51c0.16-0.27,0.32-0.53,0.49-0.79c0.04-0.06,0.18-0.24,0.01-0.02
						c0.04-0.06,0.08-0.12,0.12-0.18c0.08-0.12,0.16-0.23,0.25-0.34c0.29-0.38,0.61-0.73,0.97-1.05c0.02-0.02,0.04-0.03,0.06-0.05
						c0.01-0.01-0.17,0.14-0.09,0.07c0.04-0.03,0.08-0.07,0.13-0.1c0.08-0.06,0.16-0.12,0.25-0.17c0.07-0.04,0.15-0.08,0.23-0.12
						c0.14-0.07-0.22,0.08-0.04,0.02c0.04-0.01,0.08-0.03,0.12-0.04c0.05-0.02,0.1-0.03,0.15-0.04c0.03-0.01,0.06-0.01,0.09-0.02
						c0.03-0.01-0.26,0.03-0.09,0.02c0.13-0.01,0.27-0.02,0.4-0.02c0.07,0,0.14,0,0.22,0c0.04,0,0.08,0,0.12,0.01
						c0.2,0.01-0.12-0.01-0.06-0.01c0.18,0.02,0.36,0.04,0.53,0.07c0.43,0.07,0.85,0.16,1.27,0.27c0.49,0.12,0.98,0.27,1.47,0.42
						c0.13,0.04,0.25,0.08,0.38,0.12c0.06,0.02,0.12,0.04,0.18,0.06c0.04,0.01,0.07,0.02,0.11,0.04c0.2,0.07-0.17-0.06-0.03-0.01
						c0.29,0.1,0.57,0.2,0.86,0.3c2.8,1.01,5.54,2.22,8.24,3.48c3.25,1.52,6.46,3.13,9.63,4.81c3.29,1.74,6.54,3.54,9.76,5.41
						c1.5,0.87,2.98,1.76,4.46,2.66c0.7,0.43,1.41,0.86,2.1,1.31c-0.19-0.12-0.02-0.01,0.07,0.04c0.09,0.05,0.17,0.11,0.26,0.16
						c0.17,0.11,0.34,0.22,0.5,0.32c0.31,0.2,0.62,0.41,0.93,0.61c1.99,1.31,3.99,2.66,5.78,4.21c0.3,0.26,0.6,0.53,0.88,0.81
						c0.03,0.03,0.05,0.05,0.08,0.08c-0.24-0.23-0.1-0.1-0.04-0.04c0.06,0.06,0.11,0.12,0.16,0.18c0.09,0.11,0.18,0.21,0.26,0.32
						c0.03,0.05,0.07,0.09,0.1,0.14c0.01,0.02,0.03,0.05,0.04,0.07c0.08,0.12-0.11-0.22-0.05-0.09c0.02,0.04,0.04,0.08,0.06,0.12
						c0.08,0.14-0.03-0.25-0.02-0.05c0,0.05,0,0.1,0.01,0.14c-0.04-0.24,0.01-0.14-0.01,0c-0.01,0.14-0.04,0.28-0.07,0.42
						c-0.02,0.08-0.04,0.16-0.06,0.23c-0.01,0.05-0.03,0.09-0.04,0.14c-0.05,0.19,0.06-0.18,0.01-0.03c-0.07,0.2-0.13,0.4-0.21,0.6
						c-0.18,0.49-0.39,0.97-0.61,1.45c-0.54,1.2-1.15,2.37-1.77,3.53c-1.54,2.86-3.22,5.66-4.97,8.41
						c-0.44,0.69-0.88,1.37-1.33,2.05c-0.22,0.33-0.44,0.66-0.66,0.99c-0.02,0.04-0.13,0.19,0,0c-0.02,0.03-0.05,0.07-0.07,0.1
						c-0.05,0.08-0.1,0.15-0.15,0.23c-0.11,0.16-0.22,0.33-0.33,0.49c-0.77,1.11-1.55,2.22-2.38,3.29
						c-0.59,0.76-1.19,1.52-1.88,2.19c-0.11,0.11-0.24,0.21-0.35,0.32c0.23-0.22,0.07-0.05-0.01,0c-0.05,0.03-0.1,0.07-0.15,0.1
						c-0.02,0.01-0.04,0.02-0.06,0.03c-0.1,0.07,0.22-0.06,0.09-0.04c-0.04,0.01-0.08,0.02-0.12,0.03
						c-0.06,0.02-0.14-0.08,0.14-0.02c-0.03-0.01-0.07,0.01-0.09,0.01c-0.1,0-0.2,0-0.3,0c-0.13,0,0.23,0.03,0.09,0.01
						c-0.03-0.01-0.06-0.01-0.1-0.01c-0.07-0.01-0.14-0.02-0.2-0.03c-0.3-0.05-0.61-0.13-0.9-0.21c-0.17-0.05-0.33-0.1-0.5-0.15
						c-0.06-0.02-0.4-0.12-0.12-0.04c-0.1-0.03-0.2-0.07-0.3-0.1c-0.87-0.31-1.73-0.66-2.58-1.03c-1.9-0.82-3.78-1.72-5.63-2.65
						c-1.41-0.7-2.81-1.42-4.21-2.14c-0.4-0.21-0.91-0.04-1.08,0.32C132.22,51.7,132.43,52.15,132.83,52.36L132.83,52.36z"/>
				</g>
			</g>
		</g>
		<g id="Ebene_10_5_">
			<g>
				<g>
					<path class="st10" d="M127.9,17.37c1.73,4.18,3.38,8.38,4.97,12.6c1.56,4.15,3.07,8.31,4.55,12.49
						c0.82,2.32,1.63,4.64,2.44,6.96c0.32,0.91,1.58,1.5,2.49,1.19c0.99-0.34,1.4-1.26,1.07-2.23c-1.44-4.14-2.89-8.28-4.38-12.41
						c-1.52-4.19-3.08-8.38-4.71-12.54c-0.93-2.37-1.88-4.74-2.86-7.1c-0.37-0.9-1.54-1.51-2.49-1.19
						C128.02,15.46,127.5,16.41,127.9,17.37L127.9,17.37z"/>
				</g>
			</g>
			<g>
				<g>
					<path class="st10" d="M119.41,39.19c4.78-1.41,9.54-2.87,14.27-4.42c3.5-1.14,6.98-2.32,10.49-3.44
						c2.33-0.74,4.66-1.45,7.01-2.14c0.93-0.27,1.49-1.32,1.07-2.23c-0.43-0.91-1.49-1.48-2.49-1.19c-3.9,1.15-7.77,2.37-11.63,3.64
						c-3.74,1.23-7.47,2.47-11.23,3.65c-2.96,0.93-5.93,1.83-8.92,2.7c-0.93,0.27-1.49,1.32-1.07,2.23
						C117.35,38.92,118.42,39.48,119.41,39.19L119.41,39.19z"/>
				</g>
			</g>
		</g>
		<g id="Ebene_9_6_">
			<g class="st34">
				<path d="M116.12,5.61c-6.06,12.68,2.47,35.15,9.51,47.9c-1.48-0.31-2.34-2.78-4.26-6.26c-2.71-4.91-1.39-4.72-3.29-6.64
					c-1.58-1.59-3.99-2.52-6.01-3.55c-1.86-0.96-4.08-2.38-4.88-3.82c-1.06-1.89,2.94-17.57,7.48-26.21"/>
				<g>
					<path d="M115.62,5.37c-1.25,2.63-1.85,5.55-2.04,8.49c-0.21,3.26,0.06,6.57,0.6,9.86c0.57,3.48,1.46,6.94,2.53,10.35
						c1.06,3.37,2.31,6.69,3.72,9.97c1.26,2.94,2.65,5.84,4.18,8.68c0.17,0.31,0.34,0.63,0.51,0.94c0.19-0.22,0.39-0.43,0.58-0.65
						c-0.04-0.01-0.08-0.02-0.12-0.03c0.14,0.04,0.02,0.01-0.01-0.01c-0.06-0.03-0.12-0.06-0.19-0.09
						c-0.14-0.07,0.04,0.04-0.09-0.06c-0.07-0.06-0.14-0.11-0.21-0.17c-0.04-0.03-0.07-0.07-0.1-0.1c0.08,0.08,0,0-0.02-0.02
						c-0.06-0.07-0.13-0.14-0.19-0.22c-0.13-0.17-0.25-0.34-0.37-0.52c-0.61-0.94-1.09-1.95-1.6-2.93c-1-1.92-2.13-3.8-2.77-5.84
						c-0.13-0.41-0.23-0.82-0.42-1.22c-0.24-0.49-0.58-0.92-0.96-1.32c-1.89-1.99-4.58-2.89-6.96-4.19
						c-1.09-0.59-2.15-1.27-3.06-2.1c-0.37-0.34-0.7-0.72-0.96-1.14c-0.04-0.06,0.02,0.08-0.01-0.03c-0.01-0.02-0.02-0.05-0.03-0.07
						c-0.03-0.07,0.01-0.1,0.01,0.03c0-0.03-0.02-0.08-0.02-0.11c-0.03-0.17-0.05-0.33-0.05-0.5c0-0.05,0-0.11,0-0.16
						c0-0.04,0-0.21,0-0.04c0-0.11,0.01-0.23,0.01-0.35c0.03-0.57,0.1-1.14,0.18-1.7c0.5-3.48,1.44-6.88,2.46-10.21
						c1.2-3.91,2.58-7.78,4.37-11.45c0.19-0.4,0.39-0.8,0.6-1.19c0.3-0.57-0.71-1.05-1-0.48c-1.89,3.61-3.32,7.47-4.56,11.35
						c-1.15,3.57-2.18,7.21-2.81,10.93c-0.19,1.12-0.38,2.27-0.31,3.42c0.02,0.4,0.11,0.76,0.33,1.12c0.59,0.97,1.58,1.75,2.53,2.4
						c1.11,0.76,2.3,1.39,3.51,1.98c1.25,0.6,2.53,1.18,3.67,1.97c0.28,0.2,0.55,0.4,0.8,0.63c0.11,0.1,0.23,0.2,0.33,0.31
						c0.05,0.05,0.09,0.09,0.13,0.14c0.08,0.08-0.04-0.05,0.05,0.05c0.2,0.21,0.38,0.43,0.55,0.66c0.03,0.04,0.06,0.09,0.09,0.13
						c0.04,0.06,0.08,0.15,0.02,0.03c0.05,0.1,0.1,0.2,0.15,0.3c0.08,0.19,0.15,0.39,0.21,0.58c0.19,0.6,0.37,1.19,0.61,1.78
						c0.46,1.12,1.05,2.19,1.63,3.27c0.63,1.16,1.19,2.34,1.84,3.49c0.42,0.76,0.88,1.59,1.59,2.16c0.3,0.24,0.64,0.41,1.01,0.5
						c0.37,0.09,0.78-0.29,0.58-0.65c-1.52-2.75-2.9-5.56-4.16-8.4c-1.42-3.2-2.69-6.45-3.79-9.74c-1.11-3.35-2.04-6.75-2.69-10.17
						c-0.61-3.25-0.99-6.53-0.9-9.78c0.08-2.92,0.52-5.83,1.6-8.48c0.13-0.32,0.27-0.63,0.41-0.93
						C116.9,5.27,115.9,4.79,115.62,5.37L115.62,5.37z"/>
				</g>
			</g>
		</g>
	</g>
</g>
</svg>
