<?xml version="1.0" encoding="utf-8"?>
<!-- Generator: Adobe Adobe Illustrator 24.2.0, SVG Export Plug-In . SVG Version: 6.00 Build 0)  -->
<svg version="1.1" xmlns="http://www.w3.org/2000/svg" xmlns:xlink="http://www.w3.org/1999/xlink" x="0px" y="0px"
	 viewBox="0 0 170.08 170.08" style="enable-background:new 0 0 170.08 170.08;" xml:space="preserve">
<style type="text/css">
	.st0{fill:#B5A8A8;}
	.st1{fill:none;stroke:#000000;stroke-width:0.8883;stroke-miterlimit:10;}
	.st2{fill:none;stroke:#000000;stroke-width:0.8883;stroke-linecap:round;stroke-linejoin:round;stroke-miterlimit:10;}
	.st3{fill:#BAC5C9;}
	.st4{fill:#6A6D6E;}
	.st5{fill:#594F4F;stroke:#000000;stroke-width:0.8883;stroke-linecap:round;stroke-linejoin:round;stroke-miterlimit:10;}
	.st6{opacity:0.2392;stroke:#FFFFFF;stroke-width:0.111;stroke-miterlimit:10;enable-background:new    ;}
	.st7{fill:#F0E9E5;}
	.st8{stroke:#000000;stroke-width:0.8883;stroke-linecap:round;stroke-linejoin:round;stroke-miterlimit:10;}
	.st9{fill:#CA8C7F;}
	.st10{fill:#FFFFFF;}
	.st11{opacity:0.2392;enable-background:new    ;}
	.st12{fill:none;}
	.st13{opacity:0.2392;}
	.st14{opacity:0.149;}
	.st15{fill:#D15238;}
	.st16{fill:#D15239;}
	.st17{opacity:0.1882;enable-background:new    ;}
	.st18{opacity:0.2314;enable-background:new    ;}
	.st19{fill:none;stroke:#000000;stroke-width:0.8825;stroke-miterlimit:10;}
	.st20{fill:#BBC5C9;}
	.st21{fill:#859499;}
	.st22{opacity:0.251;enable-background:new    ;}
	.st23{fill:none;stroke:#000000;stroke-width:0.8825;stroke-linecap:round;stroke-linejoin:round;stroke-miterlimit:10;}
	.st24{fill:#E0C2BB;}
	.st25{fill:#FCF5F5;stroke:#FFFFFF;stroke-width:0.1103;stroke-miterlimit:10;}
	.st26{fill:#C3597C;stroke:#FFFFFF;stroke-width:0.1103;stroke-miterlimit:10;}
	.st27{stroke:#000000;stroke-width:0.8825;stroke-linecap:round;stroke-linejoin:round;stroke-miterlimit:10;}
	.st28{fill:#857373;}
	.st29{fill:#F0E9E5;stroke:#F0E9E5;stroke-width:1.3238;stroke-linecap:round;stroke-miterlimit:10;}
	.st30{fill:#F0E9E5;stroke:#F0E9E5;stroke-width:1.4341;stroke-linecap:round;stroke-miterlimit:10;}
	.st31{opacity:0.2392;fill:#FFFFFF;enable-background:new    ;}
	.st32{fill:#C8354F;}
	.st33{fill:#C93550;}
	.st34{opacity:0.0314;}
	.st35{fill:#B5A7A7;}
	.st36{fill:#F5F2EC;}
	.st37{fill:#C8A3A0;}
	.st38{opacity:0.2314;fill:#FFFFFF;enable-background:new    ;}
	.st39{fill:none;stroke:#000000;stroke-width:1.6321;stroke-linecap:round;stroke-linejoin:round;stroke-miterlimit:10;}
	.st40{fill:#C8A3A0;stroke:#000000;stroke-width:1.6321;stroke-linecap:round;stroke-linejoin:round;stroke-miterlimit:10;}
	.st41{stroke:#000000;stroke-width:1.6321;stroke-linecap:round;stroke-linejoin:round;stroke-miterlimit:10;}
	.st42{fill:#C3C5B2;stroke:#000000;stroke-width:1.6321;stroke-linecap:round;stroke-linejoin:round;stroke-miterlimit:10;}
	.st43{opacity:0.2118;fill:#FFFFFF;enable-background:new    ;}
	.st44{opacity:0.2118;enable-background:new    ;}
	.st45{fill:#D1DFEA;}
	.st46{fill:#D3E1ED;}
	.st47{fill:#C8354E;}
	.st48{fill:#F3C058;}
	.st49{fill:#C8AE9D;}
	.st50{opacity:0.0784;}
	.st51{opacity:0.1412;}
	.st52{fill:#FFFFFF;stroke:#FFFFFF;stroke-miterlimit:10;}
</style>
<g id="Ebene_1">
</g>
<g id="Ebene_2">
	<g id="Ebene_4">
		<path class="st35" d="M62.77,109.74c-0.2,11.68,0.46,23.37,1.99,34.98c2.72,0.25,5.45,0.5,8.17,0.74
			c0.37-11.25,0.73-22.5,1.1-33.75c6.69,2.69,13.77,4.69,21.02,5.94c0.03,9.43,0.8,18.86,2.29,28.21c3.85,0.16,7.71,0.31,11.56,0.47
			c-0.45-8.49-0.9-16.99-1.36-25.48c-0.33-6.18-0.06-13.46,5.91-17.03c3.47-2.07,7.98-2.26,12.22-2.33
			c4.24-0.07,8.73-0.14,12.32-2.05c3.59-1.91,5.65-6.38,3.03-9.2c-0.47,1.6,1.7,3.13,3.6,2.8c1.9-0.33,3.62-0.85,3.79-2.49
			c0.17-1.64-0.98-4.38-1.84-5.86c0.39,2.14,4.92,2.81,7.23,1.89c2.3-0.92,2.08-2.9,1.42-4.99c-0.66-2.09-2.74-3.7-5.11-4.51
			c1.5,1.23,4.31,0.54,5.27-1.03c0.97-1.57,0.33-2.76-0.92-4.19c-1.24-1.43-2.98-3.22-4.75-4.16c1.31,1.64,4.71,1.08,5.73-0.7
			c1.03-1.78-0.35-3.27-2.05-4.63c-1.69-1.36-3.53-2.79-5.75-3.41c2.67,0.95,7.29-1.07,7.76-3.49c0.47-2.42-2.61-4.82-4.92-6.3
			s-5.15-2.22-7.92-2.92c2.7,1.12,6.81-1.08,6.76-3.63c-0.06-2.54-3.34-4.83-6.18-5.65s-5.93-0.62-8.92-0.41
			c1.57,0.7,5.42-1.82,5.67-3.3c0.25-1.49-2.72-1.59-4.3-2.28c-1.58-0.69-3.43-0.74-5.19-0.61c1.59,0.76,5.38-1.71,5.53-3.26
			s-2.85-1.78-4.51-2.43c-1.66-0.65-3.55-0.69-5.33-0.78c0.78-1.76,2.51-3.05,3.9-4.51c1.39-1.46,2.51-3.41,1.74-5.17
			c-0.82-1.89-3.39-2.7-5.66-3.29c-2.32-0.6-4.65-1.2-6.97-1.81c-1.68-0.43-3.55-0.86-5.13-0.21c-2.01,0.83-2.62,3.01-2.58,4.91
			c0.05,1.9,0.5,3.87-0.31,5.63c-2.61-0.8-5.22-1.61-7.83-2.41c1.93-1.37,3.35-3.25,4.02-5.3c0.23-0.7,0.37-1.49-0.01-2.15
			c-0.59-1.01-2.25-1.3-3.49-0.88c-1.24,0.42-2.12,1.36-2.85,2.3s-1.39,1.96-2.4,2.7c0.41-2.78,2.14-5.56,2.54-8.33
			c0.08-0.54-1.2-1.16-1.66-1.54c-0.77-0.63-2.03,0.03-2.74,0.71c-2,1.9-3.61,4.09-4.73,6.45c-0.87-1.28-0.27-3.21-1.66-4.08
			c-1.19-0.74-3.01,0.01-3.63,1.14c-0.62,1.14-0.4,2.46-0.17,3.7c-1.13-2-2.26-3.99-3.38-5.99c-0.32-0.57-0.68-1.17-1.32-1.49
			c-1.27-0.64-2.99,0.25-3.49,1.42c-0.5,1.18-0.15,2.48,0.22,3.69c0.37,1.21,0.75,2.5,0.29,3.69c-2.03-2.32-4.07-4.63-6.1-6.95
			c-0.49-0.55-1-1.13-1.74-1.43c-0.74-0.3-1.76-0.21-2.19,0.37C68.34,5.65,68.61,6.38,68.9,7c1.27,2.79,2.55,5.59,3.82,8.38
			c-1.34-1.9-3.32-3.47-5.65-4.48c-0.89-0.38-2.03-0.67-2.81-0.15c-0.8,0.53-0.73,1.56-0.49,2.39c0.62,2.09,1.93,4.04,3.74,5.56"/>
		<path class="st35" d="M67.37,18.6c-2.1,0.8-4.2,1.59-6.31,2.39c0.78-1.99-0.92-5.76-0.92-5.76s1.75-4.67-0.18-5.98
			c-3.35-2.27-8.31-1.01-12.08,0.73c-3.24,1.5-9.01,7.16-9.01,7.16s2.92,3.81,4.63,5.34c1.71,1.53,3.9,2.61,6.06,3.66
			c-5.39,1.46-10.89,2.98-15.4,5.87c-1.53,0.98-2.98,2.18-3.6,3.72c-0.62,1.54-0.21,3.48,1.38,4.39c1.59,0.91,4.26,0.18,4.52-1.43
			c-5.12,2.19-8.43,5.23-12.3,8.81c-1.23,1.14-3.8,2.54-3.36,4.04c0.52,1.79,3.26,2.54,5.32,1.96c2.06-0.58,3.57-2.05,4.97-3.45
			c-1.11,1.64-5.13,3.06-5.13,3.06s-3.28,3.18-4.25,4.89c-0.97,1.71-0.76,4.04,1.05,5.15c1.81,1.11,5.03-0.04,4.8-1.92
			c-1.67,1.54-3.94,2.49-6,3.63c-2.06,1.14-2.9,3.34-3.51,5.36c-0.61,2.02-0.35,3.88,2.1,4.08c2.28,0.18,4.12-1.61,4.93-3.42
			c-2.32,2.18-4.3,4.61-5.9,7.22c-0.61,1-1.17,2.21-0.6,3.23c0.67,1.19,2.65,1.49,4.08,0.96c1.43-0.52,2.44-1.62,3.39-2.67
			c-2.71,1.65-6.45,6.5-7.67,9.14c-1.22,2.64,0.94,3.25,4.2,3.87c3.4,0.65,6.24-2.11,8.2-4.56c-3.22,1.79-5.85,4.35-7.49,7.31
			c-0.73,1.31-1.24,2.93-0.33,4.16c1.02,1.38,3.45,1.56,5.16,0.83c1.71-0.74,2.87-2.14,3.92-3.5c1.05-1.36,2.13-2.79,3.77-3.64
			c-1.86,1.57-3.78,3.22-4.59,5.33c-0.81,2.11-0.58,6.12,1.76,7.12c2.01,0.86,5.02-1.13,6.67-2.43s2.59-3.11,3.49-4.86
			c-1.07,1.95-2.16,3.98-2.2,6.13c-0.04,2.15,3.27,6.07,5.67,6.78c2.22,0.66,2.73-1.84,4.33-3.31c1.6-1.46,2.47-3.38,3.3-5.24
			c-2.25,2.41-0.19,7.99,3.32,8.76c3.51,0.77,6.96-3.61,7.04-6.73c0,0.03,0.01,0.05,0.01,0.08"/>
		<path class="st35" d="M62.3,15.54c-0.72-0.1-1.44-0.2-2.16-0.3C60.04,15.35,60.07,15.53,62.3,15.54z"/>
	</g>
	<g id="Ebene_8">
		<path class="st36" d="M59,29.04c-5.13,0.55-9.08,3.96-7.85,9.46c1.58,7.03,9.8,10.3,15.86,7.61c3.07-1.36,4.98-4.17,5.47-7.08
			C74.09,29.62,67.48,28.12,59,29.04z"/>
	</g>
	<g id="Ebene_5">
		<path class="st37" d="M61.09,45.15c-2.59-0.02-5.18,0.51-7.47,1.53c-0.67,0.3-1.34,0.66-1.73,1.21c-0.39,0.55-0.41,1.33,0.13,1.78
			c0.53,0.43,1.37,0.41,2.11,0.34c3.66-0.33,7.28-0.98,10.78-1.93c0.49-0.13,1-0.29,1.32-0.62c0.72-0.76-0.02-1.98-1.09-2.32
			C64.05,44.79,62.86,45.06,61.09,45.15z"/>
		<path class="st37" d="M123.42,38.07c-3.54-0.02-7.08,0.81-10.1,2.38c-0.78,0.4-1.61,1-1.54,1.77c0.06,0.6,0.68,1.07,1.36,1.24
			c0.68,0.17,1.4,0.11,2.11,0.04c3.74-0.35,7.5-0.69,11.19-1.34c0.97-0.17,2.14-0.53,2.26-1.37c0.08-0.54-0.35-1.03-0.82-1.4
			C126.83,38.59,125.45,38.08,123.42,38.07z"/>
	</g>
	<g id="Ebene_3_3_">
		<path class="st36" d="M63.68,68.88c2.41,7.57,4.82,15.13,7.24,22.7c2.52-1.11,5.76-1.08,8.09,0.29c2.33,1.37,3.49,4.11,2.47,6.35
			c-1.03,2.24-4.31,3.61-6.95,2.72c2.49,10.26,6.08,20.32,10.69,30.03c19.92-3.62,40-7.29,58.62-14.3
			c-8.16-20.64-16.31-41.28-24.47-61.92c-19.27,3.36-38.27,7.81-56.84,13.3C62.72,68.59,62.93,69.12,63.68,68.88z"/>
	</g>
	<g id="Ebene_10">
		<path class="st18" d="M62.52,68.05c1.91,7.56,5.26,16,8.24,23.31c2.64-0.19,5.4-0.31,7.85,0.54s4.5,2.98,4.09,5.2
			c-0.28,1.55-1.68,2.82-3.3,3.57c-1.62,0.75-3.47,1.05-5.29,1.35c2.1,9.35,6.03,20.16,10.33,28.96c0.29,0.6,0.04-0.2,0.77,0
			c0.51,0.14,0.99-0.15,1.51-0.27c19.25-4.57,38.49-9.14,57.74-13.72c-46.81,4.99-59.08-10.8-62.59-17.29
			c-1.06-1.96,1.77-4.06,0.23-5.78c-1.46-1.63-3.39-0.73-4.34-2.62c-4.13-8.27-10.04-24.33-10.04-24.33
			C66.15,66.9,63.67,66.52,62.52,68.05z"/>
		<path class="st18" d="M34.6,75.66c0.45-0.99,1.93-1.4,3.15-1.16c1.22,0.24,2.2,0.97,3.09,1.72c3.7,3.11,6.56,6.86,10.12,10.08
			c3.56,3.22,8.14,5.99,13.34,6.25c2.5,0.12,4.98-0.34,7.47-0.57c2.49-0.22,5.14-0.17,7.31,0.88c2.17,1.05,3.66,3.37,2.78,5.35
			c-0.6,1.36-2.18,2.29-3.84,2.66c-1.66,0.36-3.42,0.24-5.12,0.03c-14.16-1.78-26.52-9.52-35.36-19.06
			C35.8,79.96,33.68,77.68,34.6,75.66z"/>
		<path class="st18" d="M63.2,111.94c2.53,5.18,5.09,10.45,5.81,16.03c0.73,5.58-0.61,11.6-5.05,15.76
			C63.34,133.92,62.72,124.11,63.2,111.94z"/>
		<path class="st18" d="M95.62,130.12c1.09,4.97,1.91,9.99,2.43,15.03c2.57-2.23,3.99-5.38,3.81-8.49
			C101.69,133.55,99.93,130.53,95.62,130.12z"/>
		<path class="st18" d="M74.11,144.56c-6.41-3.08-15.02-1.25-20.22,3.17c-5.2,4.42-7.41,10.86-7.68,17.09
			C59.24,163.65,71.05,155.59,74.11,144.56z"/>
		<path class="st18" d="M52.51,9.69c-2.44,0.13-4.91,0.33-7.15,1.16c-2.24,0.82-4.23,2.38-4.8,4.39c-0.56,1.97,0.33,4.08,1.78,5.69
			c1.46,1.61,3.44,2.81,5.39,3.98c0.8,0.48,1.79,0.99,2.7,0.67c0.77-0.27,1.11-1.02,1.36-1.69c1.12-3.04,1.98-6.15,2.56-9.29
			c0.21-1.15,0.39-2.33,0.12-3.47S53.44,8.86,52.51,9.69z"/>
		<path class="st18" d="M125.76,11.1c-2.34,0.01-4.35-1.3-6.47-2.15c-2.12-0.85-5.07-1.08-6.41,0.54c-0.62,0.75-0.72,1.72-0.8,2.64
			c-0.14,1.63-0.27,3.26-0.41,4.88c-0.04,0.53-0.08,1.07,0.16,1.56c0.66,1.31,2.83,1.36,4.44,0.98
			C121.06,18.45,125.17,15.41,125.76,11.1z"/>
		<path class="st18" d="M65.25,9.5c-2.14,2.46-2,6.16,0.31,8.5c0.3,0.3,0.69,0.6,1.15,0.59c0.83-0.03,1.1-0.95,1.07-1.65
			C67.7,14.58,66.83,12.25,65.25,9.5z"/>
		<path class="st18" d="M70.57,4.51c-0.84,3.94,0.54,8.18,3.65,11.2C74.91,11.71,73.92,7.51,70.57,4.51z"/>
		<path class="st18" d="M82.72,4.34c-1.04,0.31-2.07,0.62-3.11,0.93c-0.06,1.93-0.12,3.86-0.17,5.79c-0.02,0.59,0.07,1.31,0.7,1.53
			c0.8,0.28,1.52-0.51,1.84-1.19C82.97,9.28,83.34,6.95,82.72,4.34z"/>
		<path class="st18" d="M88.45,6c-0.31,0.91-1.25,1.53-2.04,2.19c-0.79,0.66-1.53,1.56-1.25,2.48c0.3,0.98,1.76,1.48,2.89,1.16
			c1.13-0.32,1.91-1.25,2.23-2.23C90.59,8.63,90.52,7.59,88.45,6z"/>
		<path class="st18" d="M92.72,10.85c3.98-1.09,7.14-4.08,8.01-7.54c-2.23-0.17-4.53,0.61-6.02,2.02
			C93.21,6.75,92.56,8.78,92.72,10.85z"/>
		<path class="st18" d="M100.19,13.25c2.87-0.65,5.4-2.29,6.9-4.46C104.06,8.94,101.15,10.31,100.19,13.25z"/>
		<path class="st18" d="M49.1,26.44c-5.51,1.21-11.2,2.6-15.45,5.81c-1.41,1.07-2.67,2.38-3.06,3.95s0.28,3.41,1.94,4.17
			c1.66,0.76,4.17-0.06,4.41-1.65c-4.56,2.18-8.85,4.78-12.76,7.75c-1.51,1.15-3.1,2.8-2.34,4.4c0.61,1.3,2.59,1.79,4.19,1.45
			c1.6-0.35,2.89-1.31,4.12-2.24c-3.31,1.65-6.05,4.1-7.82,6.98c-0.91,1.49-1.55,3.32-0.6,4.79c0.95,1.47,4.1,1.66,4.63,0.05
			c-3.56,1.74-6.49,4.38-8.31,7.5c-0.62,1.06-1.1,2.37-0.38,3.39c0.71,1,2.36,1.28,3.67,0.94s2.39-1.15,3.41-1.93
			c-2,1.99-3.79,4.13-5.33,6.39c-0.67,0.99-1.31,2.19-0.72,3.22c0.59,1.03,2.23,1.35,3.52,1.02c1.29-0.34,2.31-1.16,3.28-1.96
			c-2.56,1.92-4.67,4.28-6.16,6.89c-0.58,1-1.07,2.14-0.71,3.22c0.61,1.83,3.5,2.49,5.59,1.79c2.09-0.7,3.53-2.3,4.87-3.83
			c-2.69,2.25-4.84,4.96-6.3,7.91c-0.45,0.91-0.83,1.93-0.44,2.85c0.61,1.45,2.92,1.91,4.61,1.37c1.7-0.54,2.93-1.78,4.13-2.93
			c1.2-1.16,2.54-2.34,4.31-2.7c-3.06,0.54-5.31,3.29-4.85,5.91c0.46,2.61,3.57,4.68,6.68,4.45c3.11-0.23,5.73-2.73,5.66-5.38
			c-2.35,1.84-2.89,5.12-1.24,7.44c1.65,2.32,5.33,3.43,8.34,2.53c3.01-0.9,5.04-3.73,4.61-6.41c-1.89,2.52,0.03,6.43,3.48,7.05
			c3.45,0.63,7.09-2.27,6.58-5.22c-0.73,1.59-0.62,3.5,0.55,4.89c1.17,1.39,3.44,2.11,5.32,1.5c1.88-0.61,3.02-2.62,2.18-4.17
			c-1.46,1.34-0.25,4,1.9,4.01c2.15,0.01,3.25-2.93,1.4-3.86c-7.46-1.24-14.81-3.31-21.27-6.71c-6.47-3.39-12.04-8.18-15.26-14.02
			c-3.46-6.26-4.07-13.39-3.68-20.3C36.62,52.74,41.39,38.93,49.1,26.44z"/>
		<path class="st38" d="M126.24,13.2c-1.38,1.03-2.85,2.3-2.73,3.86c0.13,1.66,2.39,2.88,4.28,2.42s3.06-2.32,2.65-3.95
			C130.03,13.89,127.82,12.02,126.24,13.2z"/>
		<path class="st38" d="M57.86,10.76c-1.29-0.19-2.65-0.04-3.84,0.43c-0.27,1.29-0.52,2.67,0.06,3.88c0.58,1.22,2.35,2.12,3.72,1.51
			c0.83-0.37,1.27-1.17,1.43-1.96C59.55,13.09,58.99,10.93,57.86,10.76z"/>
		<path class="st38" d="M140.48,57.25c-0.94-1.49-1.03-3.25-1.19-4.93c-0.16-1.69-0.47-3.47-1.73-4.78
			c-1.26-1.31-3.78-1.89-5.28-0.77c-1.17,0.88-1.28,2.36-1.26,3.69c0.15,8.95,2.67,17.81,6.64,26.11c0.43,0.9,0.9,1.81,1.69,2.51
			c0.8,0.7,2,1.14,3.1,0.86c1.89-0.47,2.33-2.55,2.32-4.21C144.77,68.9,143.45,61.96,140.48,57.25z"/>
		<path class="st38" d="M71.94,116.21c-3.06,2.96-3.6,7.59-1.29,11c0.27,0.39,0.69,0.82,1.21,0.75c0.54-0.07,0.78-0.61,0.9-1.06
			C73.54,123.96,73.51,120.86,71.94,116.21z"/>
		<path class="st38" d="M105.1,130.26c-0.97,2.97-1.29,6.1-0.92,9.17c0.07,0.62,0.39,1.4,1.12,1.39c0.7-0.01,1.01-0.74,1.1-1.33
			C106.83,136.59,106.46,133.6,105.1,130.26z"/>
		<line class="st12" x1="84.71" y1="99.69" x2="84.17" y2="100.54"/>
	</g>
	<g id="Ebene_2_5_">
		<path class="st39" d="M69.94,91.38c-2.57-7.89-5.13-15.79-7.7-23.68c18.71-5.41,37.8-9.88,57.13-13.37
			c8.24,20.95,16.48,41.9,24.72,62.85c-20.01,4.9-40.03,9.81-60.04,14.71c-3.53-10-7.05-20-10.57-30.01"/>
		<path class="st39" d="M34.28,76.1c7.14,11.47,19.74,20.4,34.32,24.33c2.76,0.74,5.73,1.31,8.51,0.63s5.19-2.99,4.69-5.4
			c-0.39-1.88-2.42-3.28-4.58-3.81c-2.16-0.53-4.47-0.36-6.72-0.19"/>
		<path class="st39" d="M67.11,83.63c-9.03-2.09-16.53-8.38-19.1-16"/>
		<path class="st39" d="M61.28,20.25c-0.6-2.61,1.53-15.42-10.16-10.96c-22.05,8.41-6.57,13.14-1.63,16.81
			c-13.31,3.23-18.91,7.6-19.95,10.35c-0.93,2.46,1.35,5.84,7.36,2.21c-5.67,2.28-10.57,5.91-14.01,10.36
			c-6.5,8.42,6.21,1.57,7.79,1.28c-4.48,1.91-8.09,5.26-9.91,9.23c-1.77,3.84,1.1,4.35,6.55,2.11c-5.43,2.81-11.18,9.03-9.56,11.59
			c0.76,1.21,3.25,2.46,7.46-1.29c-2.85,3.87-8.38,7.86-6.9,10.04c1.85,2.74,6.02-0.03,7.13-0.83c-2.47,2.34-9.36,7.33-6.77,10.43
			c2.8,3.35,8.98-0.83,11.24-2.12c-4.07,3.13-10.53,8.65-6.4,11.25c4.12,2.59,9.4-5.59,11.59-6.59c-0.89,2.33-7.63,9.99-2.83,11.39
			c3.17,0.92,8.24-3.28,10.95-5.74c-1.24,2.16-3.34,11.25,3.39,11.48c3.49,0.12,5.93-3.1,7.05-7.58c0.76,3.62-0.22,7.17,3.89,7.8
			c4.11,0.63,5.44-2.44,6.77-6.16c-0.18,2.19-1.5,8.28,3.37,8.28c4.07,0,4.08-3.35,4.45-5.48c0.76,2.39,1.44,5.27,4.41,5.29"/>
		<path class="st39" d="M126.86,23.96c2.31,2.1,8.52,0.96,9.07,3.15c0.36,1.47-3.83,2.12-5.65,2.58c2.71,0.55,9.23,0.62,9.79,2.66
			c0.45,1.64-3.47,3.08-5.78,3.77c4.06,0.24,16.51,1.42,15.04,6.5c-0.81,2.79-5.59,3.13-7.22,2.78c8.87,4.25,14.04,8.12,13.3,10.07
			c-0.65,1.72-5.61,3.53-7.8,2.54c2.71,1.69,8.26,5.11,8.92,7.12c0.73,2.23-3.28,2.98-7.52,2.86c1.41,1.19,7.16,4.13,7.16,6.5
			c0,2.76-3.18,2.94-5.74,2.28c3.68,1.94,6.48,7.03,4.46,9.26c-1.44,1.6-7,0.02-8.9-1.38c1.24,1.94,3.9,6.08,1.38,8.23
			c-1.93,1.64-3.99,0.47-6.84-3c0.49,3.85,0.87,8.98-2.88,10.91"/>
		<path class="st39" d="M110.78,19.11c1.86-9.12-2.7-12.69,14.75-8.2c14.95,3.84,1.54,8.93,1.19,12.77"/>
		<path class="st39" d="M61.51,20.69c1.8-0.32,3.59-1.39,5.39-1.71c-3.91-4.11-5.25-7.88-2.46-9.07c2.09-0.9,5.02,3.42,8.46,5.87
			c-0.48-3.02-6.78-10.69-3.53-11.73c2.98-0.96,7.73,6.76,9.52,9.17c-1.4-5.17-0.57-9.74,1.39-9.71c3.93,0.04,5.05,6.62,5.71,8.34
			c0.51-2.03,0.29-5.21,2.28-5.54c3.23-0.55,3.21,3.09,3.73,5c0.65-4.49,5.34-8.64,7.16-7.86c3.12,1.33,1.42,5.77,0.06,9.74
			c0.11-1.65,5.66-5.11,7.09-4.47c3.15,1.4-1.32,5.82-3.36,8.28c2.61,0.71,5.22,1.42,7.83,2.12"/>
		<path class="st40" d="M52.9,24.68c-2.63-1.52-13.24-5.76-2.81-10.46c9.28-4.18,8.02,4.24,8.78,7.74
			C57.53,22.56,54.87,24.29,52.9,24.68z"/>
		<path class="st40" d="M115.24,20.69c0.21-4.1-1.11-9.6,7.2-7.33c9.88,2.7,2.36,7.39,1.04,10.32
			C121.71,23.35,117.5,21.68,115.24,20.69z"/>
		<path class="st41" d="M85.81,39.97c1.96-1.8,5.2-3.78,4.7-6.14c-2.12-1.33-6.45-0.08-9.35,1.04c-0.46,0.18-0.95,0.41-1.13,0.81
			c-0.29,0.63,0.31,1.29,0.9,1.75C82.25,38.48,83.71,39.41,85.81,39.97z"/>
		<path class="st39" d="M85.76,40.12c0.32,1.82,0.64,3.65,0.96,5.47"/>
		<path class="st41" d="M60.08,34.72c-2.79,1.12-1.66,4.54,1.13,4.39c1.24-0.07,2.01-1.07,2.3-2.1
			C64.37,33.95,62.23,34.14,60.08,34.72z"/>
		<path class="st39" d="M62.52,109.58c0.43,10.93,0.87,23.92,1.3,34.86"/>
		<path class="st39" d="M73.72,111.95c-0.08,10.55-0.04,21.94-0.12,32.49"/>
		<path class="st39" d="M95.57,129.49c0.38,5.3,1.01,10.59,1.89,15.85"/>
		<path class="st39" d="M108.11,126.74c-0.26,5.9,0.01,11.82,0.79,17.69"/>
		<path class="st42" d="M46.84,165.83c-1.55-4.16-0.46-8.86,2.34-12.52c2.81-3.66,7.19-6.33,11.98-7.94c3.36-1.12,7.09-1.75,10.59-1
			c5.02,1.08,8.73,4.86,10.47,8.99c1.73,4.13,1.8,8.62,1.76,13C71.93,165.45,59.8,165.31,46.84,165.83z"/>
		<path class="st39" d="M46.43,163.91c12.24-0.8,24.54-0.95,36.8-0.47"/>
		<path class="st39" d="M55.85,148.52c1.58,1.31,2.9,2.85,3.88,4.54"/>
		<path class="st39" d="M53.27,150.64c0.82,1.53,1.86,2.98,3.11,4.28"/>
		<path class="st42" d="M88.04,166.42c-0.21-3.01-0.34-6.06,0.26-9.03c0.6-2.98,1.96-5.91,4.4-8.11c3.03-2.74,7.49-4.13,11.92-4.37
			c2.36-0.13,4.84,0.06,6.87,1.09c2.28,1.16,3.71,3.21,4.77,5.27c2.49,4.85,3.47,10.26,2.8,15.52
			C108.94,166.05,98.76,166.07,88.04,166.42z"/>
		<path class="st39" d="M88.08,163.86c10.24-0.34,20.5-0.12,30.7,0.67"/>
		<path class="st39" d="M100.45,148.9c2.4,0,4.8-0.01,7.2-0.01"/>
		<path class="st39" d="M101.07,151.92c2.48-0.3,5.03-0.25,7.49,0.15"/>
		<path class="st39" d="M104.99,33.78c3.95-0.23,7.92-0.23,11.87,0"/>
	</g>
	<g id="Ebene_11">
		<path class="st43" d="M74.32,151.62c-0.7-0.45-1.42-0.91-2.28-1.07c-0.86-0.16-1.88,0.09-2.27,0.76c-0.22,0.38-0.2,0.83-0.15,1.26
			c0.41,3.07,2.51,5.94,5.58,7.61c0.74,0.41,1.63,0.75,2.49,0.57c1.04-0.23,1.65-1.16,1.83-2.06c0.29-1.44-0.23-2.94-1.15-4.18
			C77.47,153.25,75.9,152.65,74.32,151.62z"/>
		<path class="st43" d="M111.67,153.18c-1.09,2.92-0.13,6.33,2.39,8.52c0.36,0.31,0.81,0.62,1.32,0.59
			c0.87-0.05,1.24-0.97,1.28-1.71C116.84,157.3,114.87,154.12,111.67,153.18z"/>
		<path class="st44" d="M68.93,143.92c-5.51,0.01-10.99,1.74-15.15,4.78s-6.99,7.39-7.8,12.01c-0.24,1.38-0.26,2.94,0.8,4.01
			c1.36,1.38,3.93,1.36,5.88,0.66c2.91-1.05,5.01-3.23,6.94-5.36C63.83,155.37,68.02,150.38,68.93,143.92z"/>
		<path class="st44" d="M108.02,145.14c-4.79-0.1-9.97,0.1-13.74,2.61c-2.74,1.82-4.34,4.65-5.05,7.54
			c-0.71,2.89-0.61,5.87-0.52,8.82c0.02,0.59,0.05,1.21,0.41,1.71c0.47,0.66,1.42,0.98,2.33,0.97c0.9,0,1.77-0.29,2.6-0.6
			C103.17,162.71,109.29,154.25,108.02,145.14z"/>
	</g>
	<g>
		<g id="Ebene_13_1_">
			<g>
				<path class="st45" d="M148.11,28.46c-1.48,2.42-2.96,4.83-4.44,7.24c4.5,3.53,9.01,7.05,13.51,10.58c1.23-1.67,2.46-3.33,3.7-5
					c0.34-0.46,0.69-0.97,0.69-1.55c-0.01-0.8-0.67-1.38-1.28-1.85c-4-3.08-8-6.17-12.01-9.25"/>
				<g>
					<path class="st46" d="M147.73,28.22c-1.48,2.42-2.96,4.83-4.44,7.24c-0.14,0.23-0.03,0.5,0.16,0.64
						c3.5,2.74,7.01,5.49,10.51,8.23c1,0.78,2,1.57,3,2.35c0.14,0.11,0.42,0.08,0.53-0.07c1.07-1.44,2.13-2.88,3.2-4.33
						c0.46-0.63,1.08-1.28,1.26-2.08c0.17-0.76-0.12-1.46-0.61-2c-0.51-0.57-1.17-1-1.77-1.46c-0.72-0.55-1.44-1.11-2.16-1.66
						c-1.38-1.06-2.75-2.12-4.13-3.18c-1.59-1.23-3.19-2.46-4.78-3.69c-0.46-0.35-0.89,0.46-0.44,0.81
						c2.63,2.02,5.25,4.05,7.88,6.07c1.31,1.01,2.63,2.02,3.94,3.04c0.45,0.35,1.09,0.77,1.23,1.4c0.15,0.69-0.5,1.35-0.86,1.84
						c-1.13,1.52-2.25,3.04-3.38,4.57c0.18-0.02,0.35-0.05,0.53-0.07c-3.5-2.74-7.01-5.49-10.51-8.23c-1-0.78-2-1.57-3-2.35
						c0.05,0.21,0.1,0.43,0.16,0.64c1.48-2.42,2.96-4.83,4.44-7.24C148.8,28.19,148.04,27.72,147.73,28.22L147.73,28.22z"/>
				</g>
			</g>
		</g>
		<g id="Ebene_14_3_">
			<g>
				<path class="st47" d="M148.96,27.84c4.4,3.7,8.91,7.24,13.52,10.64c1.91-0.86,1.91-3.14,3.69-5.05c1.46-1.58-0.23-4.54-1.5-6.29
					c-1.37-1.89-3.4-3.07-5.37-4.2c-1.42-0.82-2.96-1.65-4.56-1.48c-1.41,0.15-2.67,1.09-3.58,2.27c-0.91,1.18-1.52,2.58-2.11,3.97"
					/>
				<g>
					<path class="st47" d="M148.65,28.17c3.07,2.58,6.2,5.09,9.37,7.52c0.79,0.61,1.59,1.21,2.39,1.81c0.4,0.3,0.8,0.6,1.2,0.89
						c0.18,0.14,0.37,0.28,0.56,0.41c0.24,0.16,0.4,0.14,0.65,0.01c1.3-0.65,1.83-2.11,2.5-3.37c0.19-0.36,0.39-0.71,0.62-1.04
						c0.24-0.34,0.54-0.62,0.77-0.96c0.38-0.55,0.51-1.26,0.44-1.94c-0.15-1.55-0.97-2.97-1.81-4.2c-0.98-1.43-2.2-2.53-3.61-3.46
						c-0.71-0.47-1.44-0.89-2.18-1.31c-0.78-0.45-1.57-0.89-2.41-1.2c-1.64-0.61-3.35-0.47-4.8,0.58c-1.43,1.03-2.36,2.61-3.11,4.24
						c-0.2,0.43-0.38,0.86-0.57,1.29c-0.24,0.54,0.52,1.02,0.75,0.47c0.91-2.12,1.92-4.45,3.95-5.56c2.15-1.18,4.35,0.18,6.26,1.28
						c1.89,1.09,3.7,2.29,4.99,4.17c0.55,0.81,1.08,1.69,1.41,2.64c0.26,0.76,0.47,1.71,0,2.42c-0.15,0.23-0.36,0.42-0.53,0.63
						c-0.19,0.25-0.38,0.51-0.54,0.78c-0.3,0.48-0.55,0.99-0.8,1.51c-0.46,0.94-0.94,1.82-1.89,2.27c0.15,0,0.29,0,0.44,0
						c-3.56-2.62-7.06-5.33-10.49-8.13c-0.99-0.8-1.97-1.62-2.94-2.43c-0.19-0.16-0.43-0.19-0.62,0
						C148.5,27.67,148.47,28.02,148.65,28.17L148.65,28.17z"/>
				</g>
			</g>
		</g>
		<g id="Ebene_15_2_">
			<g>
				<path class="st48" d="M143.08,36.28c-13.57,20.32-28.33,41.25-42.66,60.95c1.18-0.09,2.97-0.53,4.15-0.62
					c0.06,1.62,0.52,4.58,0.52,4.58s3.1-0.24,4.32-0.5c0.11,1.66,0.2,2.96,0.58,4.44c1.3-0.18,3.94-0.83,3.94-0.83
					s0.22,1.61,0.54,3.65c13.89-20.2,28.29-40.48,42.56-61.23c-4.14-3.51-9.2-7.24-13.64-10.56"/>
				<g>
					<path class="st48" d="M142.7,36.05c-2.66,3.99-5.34,7.96-8.04,11.91c-2.74,4.02-5.5,8.03-8.28,12.03
						c-2.78,3.99-5.57,7.98-8.37,11.95c-2.79,3.96-5.6,7.91-8.42,11.84c-2.79,3.9-5.6,7.79-8.42,11.67
						c-0.35,0.48-0.7,0.97-1.06,1.45c-0.21,0.28-0.11,0.84,0.31,0.8c1.39-0.12,2.76-0.5,4.15-0.62c-0.15-0.16-0.29-0.31-0.44-0.47
						c0.06,1.57,0.3,3.15,0.54,4.71c0.03,0.19,0.24,0.36,0.42,0.35c1.48-0.11,2.98-0.21,4.44-0.52c-0.18-0.15-0.37-0.3-0.55-0.45
						c0.1,1.54,0.22,3.07,0.6,4.57c0.04,0.18,0.23,0.37,0.42,0.35c1.36-0.19,2.71-0.52,4.05-0.85c-0.18-0.11-0.36-0.22-0.54-0.33
						c0.17,1.22,0.35,2.44,0.54,3.65c0.07,0.44,0.6,0.4,0.8,0.11c2.72-3.96,5.46-7.92,8.2-11.86c2.75-3.95,5.5-7.9,8.25-11.84
						c2.78-3.98,5.57-7.97,8.35-11.95c2.78-3.99,5.57-7.97,8.34-11.96c2.8-4.03,5.6-8.06,8.38-12.11c0.34-0.5,0.68-0.99,1.03-1.49
						c0.1-0.15,0.07-0.45-0.07-0.57c-3.46-2.93-7.07-5.65-10.69-8.36c-1.01-0.76-2.03-1.52-3.05-2.28c-0.46-0.35-0.9,0.47-0.44,0.81
						c3.59,2.68,7.19,5.35,10.71,8.15c0.96,0.77,1.91,1.54,2.85,2.34c-0.02-0.19-0.05-0.38-0.07-0.57
						c-2.78,4.05-5.58,8.09-8.38,12.12c-2.78,4-5.56,7.99-8.34,11.97c-2.78,3.99-5.57,7.97-8.36,11.96
						c-2.76,3.95-5.51,7.9-8.26,11.85c-2.75,3.95-5.49,7.9-8.22,11.87c-0.33,0.48-0.67,0.97-1,1.45c0.27,0.04,0.53,0.07,0.8,0.11
						c-0.19-1.22-0.38-2.43-0.54-3.65c-0.04-0.26-0.33-0.38-0.54-0.33c-1.26,0.31-2.54,0.64-3.82,0.82
						c0.14,0.12,0.28,0.23,0.42,0.35c-0.36-1.41-0.47-2.86-0.57-4.32c-0.02-0.32-0.26-0.52-0.55-0.45c-1.38,0.3-2.81,0.38-4.2,0.49
						c0.14,0.12,0.28,0.23,0.42,0.35c-0.23-1.47-0.45-2.96-0.51-4.46c-0.01-0.24-0.19-0.49-0.44-0.47c-1.39,0.12-2.76,0.5-4.15,0.62
						c0.1,0.27,0.21,0.53,0.31,0.8c2.82-3.88,5.64-7.78,8.44-11.68c2.83-3.94,5.65-7.9,8.45-11.86c2.82-3.99,5.63-7.98,8.42-11.99
						c2.78-4,5.55-8.01,8.3-12.03c2.72-3.98,5.43-7.97,8.11-11.98c0.33-0.5,0.67-1,1-1.5C143.78,36.03,143.02,35.56,142.7,36.05
						L142.7,36.05z"/>
				</g>
			</g>
		</g>
		<g id="Ebene_16_2_">
			<g>
				<path class="st49" d="M100.49,98.06c0.21,1.61-0.27,3.22-0.61,4.81c-0.35,1.58-0.55,3.33,0.15,4.77
					c0.53,1.09,1.5,1.84,2.44,2.55c0.97,0.74,1.99,1.49,3.16,1.71c1.52,0.28,3.04-0.41,4.39-1.21c1.35-0.8,2.67-1.75,4.18-2.07
					c-0.11-1.27-0.22-2.54-0.33-3.82c-1.45,0.27-2.89,0.55-4.34,0.82c-0.09-1.53-0.17-3.05-0.26-4.58
					c-1.53,0.18-3.06,0.36-4.59,0.55c0.13-1.39-0.07-2.82-0.56-4.11c-1.09,0.16-2.18,0.33-3.26,0.49"/>
				<g>
					<path class="st49" d="M100.05,98.06c0.24,1.97-0.5,3.82-0.79,5.73c-0.27,1.78-0.14,3.57,0.98,5c0.51,0.64,1.15,1.15,1.78,1.64
						c0.68,0.52,1.37,1.06,2.13,1.44c0.77,0.39,1.6,0.61,2.46,0.56c0.89-0.06,1.73-0.35,2.54-0.74c1.74-0.83,3.27-2.19,5.17-2.61
						c0.17-0.04,0.34-0.26,0.32-0.45c-0.11-1.27-0.22-2.54-0.33-3.82c-0.03-0.32-0.25-0.51-0.55-0.45
						c-1.45,0.27-2.89,0.55-4.34,0.82c0.18,0.15,0.37,0.3,0.55,0.45c-0.09-1.53-0.17-3.05-0.26-4.58c-0.01-0.23-0.19-0.5-0.44-0.47
						c-1.53,0.18-3.06,0.36-4.59,0.55c0.15,0.16,0.29,0.31,0.44,0.47c0.12-1.44-0.08-2.9-0.57-4.24c-0.1-0.26-0.28-0.37-0.54-0.33
						c-1.09,0.16-2.18,0.33-3.26,0.49c-0.23,0.04-0.36,0.36-0.3,0.58c0.07,0.27,0.3,0.36,0.54,0.33c1.09-0.16,2.18-0.33,3.26-0.49
						c-0.18-0.11-0.36-0.22-0.54-0.33c0.47,1.27,0.66,2.62,0.54,3.99c-0.02,0.23,0.22,0.5,0.44,0.47c1.53-0.18,3.06-0.36,4.59-0.55
						c-0.15-0.16-0.29-0.31-0.44-0.47c0.09,1.53,0.17,3.05,0.26,4.58c0.02,0.33,0.26,0.51,0.55,0.45c1.45-0.27,2.89-0.55,4.34-0.82
						c-0.18-0.15-0.37-0.3-0.55-0.45c0.11,1.27,0.22,2.54,0.33,3.82c0.11-0.15,0.21-0.3,0.32-0.45c-1.6,0.36-2.96,1.35-4.38,2.17
						c-1.41,0.82-3.03,1.5-4.63,0.92c-0.75-0.27-1.42-0.75-2.06-1.23c-0.59-0.44-1.19-0.88-1.71-1.41c-0.55-0.55-0.97-1.2-1.16-1.99
						c-0.2-0.81-0.17-1.67-0.05-2.49c0.29-2.03,1.09-4,0.84-6.09c-0.03-0.25-0.18-0.47-0.44-0.47
						C100.27,97.59,100.02,97.8,100.05,98.06L100.05,98.06z"/>
				</g>
			</g>
		</g>
		<g id="Ebene_17_2_">
			<g>
				<path d="M99.36,108.56c-0.3,2.5-0.6,5-0.9,7.51c2-1.47,4.24-2.55,6.59-3.17c-1.81-1.48-3.62-2.96-5.44-4.45"/>
				<g>
					<path d="M98.93,108.56c-0.3,2.5-0.6,5-0.9,7.51c-0.04,0.35,0.4,0.59,0.66,0.41c1.98-1.45,4.17-2.51,6.49-3.13
						c0.4-0.11,0.38-0.63,0.1-0.86c-1.81-1.48-3.62-2.96-5.44-4.45c-0.19-0.15-0.49-0.03-0.6,0.17c-0.13,0.24-0.03,0.49,0.16,0.64
						c1.81,1.48,3.62,2.96,5.44,4.45c0.03-0.29,0.07-0.57,0.1-0.86c-2.39,0.64-4.66,1.73-6.69,3.22c0.22,0.14,0.44,0.27,0.66,0.41
						c0.3-2.5,0.6-5,0.9-7.51c0.03-0.25-0.22-0.47-0.44-0.47C99.1,108.09,98.96,108.31,98.93,108.56L98.93,108.56z"/>
				</g>
			</g>
		</g>
		<g id="Ebene_12_1_">
			<g>
				<g>
					<path d="M100.92,97.09c3.41-4.94,6.83-9.89,10.24-14.83c3.4-4.92,6.8-9.85,10.2-14.77c3.41-4.94,6.83-9.89,10.24-14.83
						c3.4-4.92,6.8-9.85,10.2-14.77c3.41-4.94,6.83-9.89,10.24-14.83c0.42-0.61,0.84-1.22,1.26-1.82c0.34-0.49-0.42-0.95-0.75-0.47
						c-3.41,4.94-6.83,9.89-10.24,14.83c-3.4,4.92-6.8,9.85-10.2,14.77c-3.41,4.94-6.83,9.89-10.24,14.83
						c-3.4,4.92-6.8,9.85-10.2,14.77c-3.41,4.94-6.83,9.89-10.24,14.83c-0.42,0.61-0.84,1.22-1.26,1.82
						C99.83,97.1,100.59,97.57,100.92,97.09L100.92,97.09z"/>
				</g>
			</g>
			<g>
				<g>
					<path d="M114.85,108.78c3.42-4.94,6.84-9.87,10.27-14.81c3.42-4.94,6.84-9.87,10.27-14.81c3.42-4.94,6.84-9.87,10.27-14.81
						c3.42-4.94,6.84-9.87,10.27-14.81c3.42-4.94,6.84-9.87,10.27-14.81c0.42-0.61,0.84-1.21,1.26-1.82
						c0.34-0.48-0.42-0.95-0.75-0.47c-3.42,4.94-6.84,9.87-10.27,14.81c-3.42,4.94-6.84,9.87-10.27,14.81
						c-3.42,4.94-6.84,9.87-10.27,14.81c-3.42,4.94-6.84,9.87-10.27,14.81c-3.42,4.94-6.84,9.87-10.27,14.81
						c-0.42,0.61-0.84,1.21-1.26,1.82C113.76,108.79,114.52,109.26,114.85,108.78L114.85,108.78z"/>
				</g>
			</g>
			<g>
				<g>
					<path d="M152.91,21.47c4.9-0.02,9.55,2.71,12.16,7.18c0.7,1.2,1.25,2.5,1.62,3.86c0.16,0.58,1,0.33,0.84-0.25
						c-1.45-5.27-5.32-9.48-10.21-11.05c-1.43-0.46-2.92-0.68-4.41-0.68C152.35,20.53,152.35,21.47,152.91,21.47L152.91,21.47z"/>
				</g>
			</g>
			<g>
				<g>
					<path d="M148.03,28.54c3.59,2.9,7.19,5.8,10.78,8.7c1.02,0.82,2.04,1.65,3.07,2.48c0.19,0.15,0.49,0.03,0.6-0.17
						c0.13-0.24,0.03-0.49-0.16-0.64c-3.59-2.9-7.19-5.8-10.78-8.7c-1.02-0.82-2.04-1.65-3.07-2.48c-0.19-0.15-0.49-0.03-0.6,0.17
						C147.74,28.13,147.84,28.38,148.03,28.54L148.03,28.54z"/>
				</g>
			</g>
			<g>
				<g>
					<path d="M142.86,35.92c3.63,2.92,7.26,5.83,10.89,8.75c1.02,0.82,2.05,1.64,3.07,2.47c0.19,0.15,0.49,0.03,0.6-0.17
						c0.13-0.24,0.03-0.49-0.16-0.64c-3.63-2.92-7.26-5.83-10.89-8.75c-1.02-0.82-2.05-1.64-3.07-2.47
						c-0.19-0.15-0.49-0.03-0.6,0.17C142.57,35.51,142.67,35.77,142.86,35.92L142.86,35.92z"/>
				</g>
			</g>
			<g>
				<g>
					<path d="M146.38,35.57c0.88-1.25,1.76-2.5,2.65-3.75c0.14-0.2,0.03-0.52-0.16-0.64c-0.22-0.14-0.45-0.03-0.6,0.17
						c-0.88,1.25-1.76,2.5-2.65,3.75c-0.14,0.2-0.03,0.52,0.16,0.64C146.01,35.89,146.24,35.77,146.38,35.57L146.38,35.57z"/>
				</g>
			</g>
			<g>
				<g>
					<path d="M148.63,37.45c0.88-1.25,1.76-2.5,2.65-3.75c0.14-0.2,0.03-0.52-0.16-0.64c-0.22-0.14-0.45-0.03-0.6,0.17
						c-0.88,1.25-1.76,2.5-2.65,3.75c-0.14,0.2-0.03,0.52,0.16,0.64C148.25,37.76,148.49,37.65,148.63,37.45L148.63,37.45z"/>
				</g>
			</g>
			<g>
				<g>
					<path d="M151.27,39.5c0.88-1.25,1.76-2.5,2.65-3.75c0.14-0.2,0.03-0.52-0.16-0.64c-0.22-0.14-0.45-0.03-0.6,0.17
						c-0.88,1.25-1.76,2.5-2.65,3.75c-0.14,0.2-0.03,0.52,0.16,0.64C150.9,39.81,151.13,39.7,151.27,39.5L151.27,39.5z"/>
				</g>
			</g>
			<g>
				<g>
					<path d="M153.54,41.37c0.88-1.25,1.76-2.5,2.65-3.75c0.14-0.2,0.03-0.52-0.16-0.64c-0.22-0.14-0.45-0.03-0.6,0.17
						c-0.88,1.25-1.76,2.5-2.65,3.75c-0.14,0.2-0.03,0.52,0.16,0.64C153.16,41.68,153.4,41.57,153.54,41.37L153.54,41.37z"/>
				</g>
			</g>
			<g>
				<g>
					<path d="M155.92,43.25c0.88-1.25,1.76-2.5,2.65-3.75c0.14-0.2,0.03-0.52-0.16-0.64c-0.22-0.14-0.45-0.03-0.6,0.17
						c-0.88,1.25-1.76,2.5-2.65,3.75c-0.14,0.2-0.03,0.52,0.16,0.64C155.55,43.56,155.78,43.45,155.92,43.25L155.92,43.25z"/>
				</g>
			</g>
			<g>
				<g>
					<path d="M100.53,98.05c1.33-0.24,2.66-0.5,4-0.74c-0.18-0.15-0.37-0.3-0.55-0.45c0.16,1.57,0.32,3.14,0.54,4.7
						c0.02,0.18,0.25,0.37,0.42,0.35c1.53-0.22,3.08-0.41,4.59-0.75c-0.18-0.15-0.37-0.3-0.55-0.45c0.06,1.51,0.32,2.99,0.38,4.5
						c0.01,0.3,0.27,0.54,0.55,0.45c1.36-0.4,2.78-0.49,4.14-0.89c-0.18-0.11-0.36-0.22-0.54-0.33c0.26,1.4,0.35,2.83,0.54,4.25
						c0.03,0.25,0.33,0.39,0.54,0.33c0.25-0.08,0.34-0.33,0.3-0.58c-0.19-1.41-0.28-2.84-0.54-4.25c-0.05-0.25-0.32-0.39-0.54-0.33
						c-1.36,0.4-2.78,0.49-4.14,0.89c0.18,0.15,0.37,0.3,0.55,0.45c-0.06-1.51-0.32-2.99-0.38-4.5c-0.01-0.32-0.27-0.52-0.55-0.45
						c-1.44,0.32-2.9,0.52-4.36,0.72c0.14,0.12,0.28,0.23,0.42,0.35c-0.2-1.48-0.35-2.97-0.51-4.46c-0.03-0.32-0.25-0.51-0.55-0.45
						c-1.33,0.24-2.66,0.5-4,0.74C99.75,97.24,99.98,98.15,100.53,98.05L100.53,98.05z"/>
				</g>
			</g>
			<g>
				<g>
					<path d="M99.81,97.24c-0.61,5.13-1.18,10.26-1.77,15.39c-0.16,1.43-0.33,2.85-0.5,4.28c-0.05,0.39,0.4,0.53,0.66,0.41
						c4.32-2.12,8.61-4.3,12.92-6.44c1.19-0.59,2.39-1.19,3.59-1.77c0.22-0.11,0.26-0.44,0.16-0.64c-0.13-0.24-0.38-0.27-0.6-0.17
						c-4.32,2.12-8.61,4.3-12.92,6.44c-1.19,0.59-2.39,1.19-3.59,1.77c0.22,0.14,0.44,0.27,0.66,0.41
						c0.61-5.13,1.18-10.26,1.77-15.39c0.16-1.43,0.33-2.85,0.5-4.28c0.03-0.25-0.22-0.47-0.44-0.47
						C99.98,96.77,99.84,96.98,99.81,97.24L99.81,97.24z"/>
				</g>
			</g>
			<g>
				<g>
					<path d="M99.23,108.57c2.13,1.58,4.21,3.26,6.34,4.85c0.46,0.34,0.9-0.47,0.44-0.81c-2.13-1.58-4.21-3.26-6.34-4.85
						C99.2,107.41,98.77,108.23,99.23,108.57L99.23,108.57z"/>
				</g>
			</g>
		</g>
		<g id="Ebene_18_2_">
			<g class="st50">
				<path d="M154.73,21.45c-8.71,12.9-18.58,27.17-25.65,41.18c-7.07,14.01-12.5,29.18-14.17,45.03c-0.12-1.15-0.6-2.67-0.71-3.82
					c-1.63,0.31-2.42,0.53-4.2,1.29c-0.12-2.42-0.27-4.65-0.27-4.65s-2.49,0.25-4.73,0.57c-0.14-1.71-0.43-4.44-0.43-4.44
					s-2.97,0.41-4.15,0.62c17.08-25.38,35.54-50.66,52.75-76.24C153.12,21.41,154.77,21.04,154.73,21.45"/>
				<g>
					<path d="M154.36,21.21c-3.49,5.17-7.01,10.33-10.44,15.55c-3.51,5.34-6.93,10.74-10.14,16.29c-3.09,5.35-5.96,10.85-8.51,16.53
						c-2.54,5.67-4.78,11.5-6.59,17.49c-1.79,5.96-3.15,12.07-3.94,18.28c-0.1,0.77-0.19,1.53-0.27,2.3c0.29,0,0.58,0,0.87,0
						c-0.14-1.29-0.57-2.53-0.71-3.82c-0.04-0.32-0.25-0.51-0.55-0.45c-1.46,0.28-2.83,0.7-4.2,1.29c0.18,0.15,0.37,0.3,0.55,0.45
						c-0.08-1.55-0.16-3.1-0.27-4.65c-0.02-0.23-0.19-0.49-0.44-0.47c-1.58,0.16-3.15,0.35-4.73,0.57c0.15,0.16,0.29,0.31,0.44,0.47
						c-0.13-1.48-0.28-2.96-0.43-4.44c-0.02-0.23-0.18-0.5-0.44-0.47c-1.42,0.19-2.85,0.38-4.27,0.64c0.16,0.23,0.33,0.46,0.49,0.69
						c3.35-4.98,6.73-9.92,10.14-14.85c3.43-4.96,6.88-9.91,10.34-14.85c3.47-4.96,6.95-9.91,10.42-14.86s6.94-9.92,10.38-14.89
						c3.43-4.96,6.85-9.94,10.23-14.94c0.42-0.62,0.83-1.23,1.24-1.85c-0.27-0.08-0.54-0.16-0.81-0.24
						c0.01,0.48,0.41,0.63,0.79,0.67c0.19,0.02,0.39,0.02,0.58,0.03c0.09,0,0.2,0.03,0.28,0.02c0.25-0.04-0.06,0.38-0.08-0.27
						c0.02,0.6,0.89,0.61,0.87,0c-0.01-0.48-0.41-0.63-0.79-0.67c-0.19-0.02-0.39-0.02-0.58-0.03c-0.09,0-0.2-0.03-0.28-0.02
						c-0.25,0.04,0.06-0.38,0.08,0.27c-0.01-0.49-0.56-0.61-0.81-0.24c-3.37,5.01-6.77,9.98-10.2,14.95
						c-3.44,4.98-6.9,9.94-10.37,14.9c-3.47,4.96-6.95,9.91-10.42,14.86c-3.46,4.94-6.92,9.89-10.35,14.85
						c-3.41,4.93-6.81,9.88-10.17,14.85c-0.41,0.61-0.82,1.22-1.23,1.83c-0.25,0.37,0.16,0.75,0.49,0.69
						c1.34-0.24,2.69-0.42,4.03-0.6c-0.15-0.16-0.29-0.31-0.44-0.47c0.16,1.48,0.3,2.96,0.43,4.44c0.02,0.23,0.19,0.51,0.44,0.47
						c1.57-0.23,3.15-0.41,4.73-0.57c-0.15-0.16-0.29-0.31-0.44-0.47c0.11,1.55,0.19,3.1,0.27,4.65c0.01,0.27,0.27,0.57,0.55,0.45
						c1.37-0.59,2.74-1.02,4.2-1.29c-0.18-0.15-0.37-0.3-0.55-0.45c0.14,1.29,0.57,2.53,0.71,3.82c0.07,0.6,0.81,0.61,0.87,0
						c0.66-6.21,1.9-12.34,3.59-18.32c1.7-6,3.84-11.84,6.3-17.51c2.47-5.68,5.25-11.18,8.28-16.53c3.13-5.53,6.48-10.9,9.93-16.19
						c3.4-5.22,6.9-10.38,10.39-15.53c0.43-0.63,0.85-1.26,1.28-1.89C155.44,21.2,154.68,20.73,154.36,21.21L154.36,21.21z"/>
				</g>
			</g>
			<g class="st50">
				<path d="M102.04,97.79c-2.3,11.05,1.19,15.68,1.19,15.68s-4.26,0.92-4.95,2.73c0.45-6.31,1.18-12.8,2.5-18.97"/>
				<g>
					<path d="M101.62,97.67c-0.7,3.38-1.04,6.89-0.6,10.34c0.22,1.73,0.64,3.48,1.43,5.01c0.14,0.27,0.29,0.54,0.48,0.78
						c0.06-0.26,0.13-0.52,0.19-0.79c-0.78,0.17-1.56,0.42-2.3,0.72c-1.04,0.42-2.43,1.04-2.91,2.22c0.27,0.08,0.54,0.16,0.81,0.24
						c0.36-4.94,0.86-9.88,1.7-14.75c0.23-1.37,0.5-2.73,0.79-4.09c0.13-0.59-0.71-0.84-0.84-0.25c-1.05,4.89-1.71,9.87-2.17,14.87
						c-0.13,1.41-0.24,2.81-0.35,4.22c-0.03,0.45,0.64,0.66,0.81,0.24c0.4-0.99,1.65-1.51,2.56-1.86c0.69-0.27,1.41-0.5,2.13-0.65
						c0.35-0.08,0.38-0.53,0.19-0.79c0.09,0.12,0.03,0.05-0.03-0.05c-0.09-0.13-0.16-0.27-0.24-0.41c-0.12-0.22-0.23-0.45-0.33-0.69
						c-0.03-0.06-0.05-0.13-0.08-0.19c-0.02-0.04-0.03-0.08-0.05-0.12c-0.04-0.1,0.01,0.03-0.02-0.05
						c-0.07-0.17-0.13-0.35-0.19-0.53c-0.74-2.2-0.96-4.58-0.91-6.91c0.05-2.12,0.33-4.22,0.76-6.29
						C102.58,97.33,101.74,97.07,101.62,97.67L101.62,97.67z"/>
				</g>
			</g>
		</g>
		<g id="Ebene_19_2_">
			<g class="st51">
				<g>
					<path class="st10" d="M150.93,46.69c-3.86,5.63-7.72,11.26-11.58,16.88c-3.86,5.63-7.72,11.26-11.58,16.88
						c-2.18,3.18-4.37,6.37-6.55,9.55c-0.36,0.53-0.1,1.42,0.42,1.71c0.61,0.35,1.2,0.12,1.59-0.45
						c3.86-5.63,7.72-11.26,11.58-16.88c3.86-5.63,7.72-11.26,11.58-16.88c2.18-3.18,4.37-6.37,6.55-9.55
						c0.36-0.53,0.1-1.42-0.42-1.71C151.92,45.9,151.32,46.13,150.93,46.69L150.93,46.69z"/>
				</g>
			</g>
			<g class="st51">
				<g>
					<path class="st10" d="M107.89,110.63c1.29-0.72,2.57-1.44,3.86-2.16c0.54-0.3,0.74-1.16,0.42-1.71
						c-0.35-0.59-1.01-0.77-1.59-0.45c-1.29,0.72-2.57,1.44-3.86,2.16c-0.54,0.3-0.74,1.16-0.42,1.71
						C106.65,110.77,107.31,110.95,107.89,110.63L107.89,110.63z"/>
				</g>
			</g>
			<g class="st51">
				<g>
					<path class="st10" d="M158.7,27.27c0.43,0.07,0.92,0.17,1.31,0.39c-0.29-0.16,0.05,0.03,0.11,0.06c0.1,0.05,0.2,0.11,0.3,0.17
						c0.2,0.12,0.38,0.26,0.57,0.4c0.1,0.08,0.09,0.07-0.03-0.03c0.04,0.04,0.09,0.08,0.13,0.12c0.09,0.08,0.17,0.16,0.25,0.25
						c0.14,0.15,0.28,0.3,0.41,0.47c0.04,0.05,0.07,0.09,0.11,0.14c-0.09-0.13-0.1-0.15-0.03-0.04c0.06,0.1,0.13,0.2,0.19,0.3
						c0.12,0.21,0.23,0.42,0.33,0.64c0.02,0.06,0.05,0.11,0.07,0.17c-0.06-0.15-0.06-0.16-0.02-0.03c0.04,0.12,0.08,0.25,0.12,0.37
						c0.07,0.25,0.12,0.51,0.17,0.77c0.02,0.14,0.02,0.13,0-0.04c0.01,0.07,0.01,0.13,0.02,0.2c0.01,0.1,0.01,0.2,0.02,0.3
						c0.01,0.26,0,0.53-0.02,0.79c-0.01,0.07-0.01,0.13-0.02,0.2c0.02-0.17,0.02-0.18,0-0.04c-0.02,0.13-0.04,0.26-0.07,0.39
						c-0.05,0.26-0.12,0.51-0.21,0.76c-0.02,0.06-0.04,0.12-0.07,0.18c0.06-0.15,0.06-0.16,0.01-0.03c-0.05,0.12-0.1,0.24-0.16,0.35
						c-0.12,0.23-0.25,0.45-0.39,0.67c-0.35,0.54-0.1,1.42,0.42,1.71c0.6,0.34,1.21,0.12,1.59-0.45c1.1-1.67,1.45-3.81,1.09-5.8
						c-0.34-1.91-1.48-3.56-2.96-4.64c-0.78-0.57-1.7-0.97-2.63-1.12c-0.6-0.1-1.28,0.16-1.43,0.87
						C157.76,26.32,158.06,27.16,158.7,27.27L158.7,27.27z"/>
				</g>
			</g>
			<g class="st51">
				<g>
					<path class="st10" d="M102.31,114.33c0.24-0.15,0.48-0.31,0.71-0.46c0.25-0.16,0.46-0.44,0.53-0.75
						c0.08-0.3,0.04-0.7-0.12-0.97c-0.34-0.56-1.03-0.81-1.59-0.45c-0.24,0.15-0.48,0.31-0.71,0.46c-0.25,0.16-0.46,0.44-0.53,0.75
						c-0.08,0.3-0.04,0.7,0.12,0.97C101.06,114.44,101.75,114.69,102.31,114.33L102.31,114.33z"/>
				</g>
			</g>
		</g>
	</g>
</g>
<g id="Ebene_4_5_">
	<ellipse class="st52" cx="62.43" cy="36.13" rx="1.07" ry="0.89"/>
</g>
<g id="Ebene_3">
</g>
</svg>
