<?xml version="1.0" encoding="utf-8"?>
<!-- Generator: Adobe Adobe Illustrator 24.2.0, SVG Export Plug-In . SVG Version: 6.00 Build 0)  -->
<svg version="1.1" xmlns="http://www.w3.org/2000/svg" xmlns:xlink="http://www.w3.org/1999/xlink" x="0px" y="0px"
	 viewBox="0 0 283.46 283.46" style="enable-background:new 0 0 283.46 283.46;" xml:space="preserve">
<style type="text/css">
	.st0{fill:#6DB671;}
	.st1{fill:#6CB671;}
	.st2{opacity:0.149;}
	.st3{fill:#FFFFFF;}
	.st4{opacity:0.0314;}
	.st5{fill:#B5A8A8;}
	.st6{opacity:0.1882;enable-background:new    ;}
	.st7{opacity:0.2314;enable-background:new    ;}
	.st8{fill:none;stroke:#000000;stroke-width:2.0329;stroke-miterlimit:10;}
	.st9{fill:#BBC5C9;}
	.st10{fill:#859499;}
	.st11{opacity:0.251;enable-background:new    ;}
	.st12{opacity:0.2392;enable-background:new    ;}
	.st13{fill:none;stroke:#000000;stroke-width:2.0329;stroke-linecap:round;stroke-linejoin:round;stroke-miterlimit:10;}
	.st14{fill:#E0C2BB;}
	.st15{fill:#FCF5F5;stroke:#FFFFFF;stroke-width:0.2541;stroke-miterlimit:10;}
	.st16{fill:#C3597C;stroke:#FFFFFF;stroke-width:0.2541;stroke-miterlimit:10;}
	.st17{fill:#F0E9E5;}
	.st18{fill:#CA8C7F;}
	.st19{stroke:#000000;stroke-width:2.0329;stroke-linecap:round;stroke-linejoin:round;stroke-miterlimit:10;}
	.st20{fill:#857373;}
	.st21{fill:#F0E9E5;stroke:#F0E9E5;stroke-width:3.0493;stroke-linecap:round;stroke-miterlimit:10;}
	.st22{fill:#F0E9E5;stroke:#F0E9E5;stroke-width:3.3035;stroke-linecap:round;stroke-miterlimit:10;}
	.st23{opacity:0.2392;fill:#FFFFFF;enable-background:new    ;}
</style>
<g id="Ebene_2">
	<g>
		<g id="Ebene_2_Kopie">
			<g>
				<path class="st0" d="M212.27,92.69c7.48,1.95,30.24,7.97,33.19,5.52c4.8-3.98,22.38-54.89,19.36-59.05
					c-6.31-8.73-98.95-35.82-109.15-29.53c-9.2,5.67-10.02,56.8-7.81,60.4c3.34,5.44,19.28,6.68,25.89,10.82
					c2.95,1.84,13.67,20.61,17.27,21.24c2.04,0.36,15.68-5.05,21-9.44"/>
				<g>
					<path class="st1" d="M212.16,93.2c7.34,1.91,14.71,3.83,22.19,5.16c1.8,0.32,3.61,0.6,5.42,0.78c1.35,0.14,2.73,0.25,4.07,0.11
						c0.82-0.09,1.63-0.26,2.22-0.84c0.44-0.44,0.79-0.97,1.12-1.48c1.08-1.7,1.93-3.53,2.76-5.35c1.19-2.61,2.28-5.26,3.33-7.93
						c2.53-6.43,4.82-12.94,6.91-19.52c1.85-5.78,3.62-11.63,4.82-17.58c0.37-1.84,0.74-3.74,0.73-5.63c0-0.54-0.03-1.12-0.23-1.64
						c-0.18-0.45-0.54-0.83-0.9-1.16c-1.05-0.97-2.34-1.72-3.6-2.41c-1.86-1.03-3.8-1.93-5.75-2.78
						c-5.45-2.39-11.07-4.44-16.71-6.38c-6.9-2.38-13.88-4.57-20.9-6.62c-7.28-2.13-14.61-4.12-21.98-5.92
						c-6.59-1.61-13.21-3.08-19.89-4.24c-4.85-0.84-9.81-1.62-14.73-1.6c-1.5,0.01-3.07,0.07-4.49,0.51
						c-1.49,0.45-2.5,1.5-3.31,2.71c-1.29,1.94-2.06,4.19-2.72,6.39c-0.87,2.93-1.48,5.94-1.98,8.96
						c-1.15,6.97-1.74,14.05-2.05,21.12c-0.26,5.78-0.39,11.61,0.02,17.4c0.1,1.47,0.16,3.06,0.64,4.5c0.31,0.92,1.11,1.7,1.89,2.31
						c1.44,1.13,3.16,1.9,4.87,2.55c4.26,1.62,8.74,2.61,13.09,3.97c1.93,0.6,3.86,1.26,5.64,2.21c0.61,0.32,0.84,0.43,1.27,0.85
						c0.35,0.33,0.63,0.66,0.93,1.02c2.09,2.51,3.87,5.26,5.72,7.92c2.04,2.94,4.06,5.91,6.38,8.66c0.79,0.94,1.62,1.91,2.62,2.66
						c0.77,0.57,1.45,0.79,2.4,0.65c1.41-0.22,2.78-0.7,4.11-1.18c1.98-0.7,3.93-1.51,5.84-2.36c3.69-1.65,7.45-3.49,10.53-6.01
						c0.53-0.44-0.3-1.16-0.83-0.73c-1.49,1.22-3.18,2.22-4.89,3.16c-1.93,1.06-3.92,2.02-5.95,2.92c-1.83,0.81-3.7,1.56-5.6,2.21
						c-1.17,0.4-2.56,0.92-3.74,1c-0.07,0.01-0.15,0.01-0.22,0.01c-0.2,0.01,0.03,0.01-0.1-0.01c-0.06-0.01-0.13-0.03-0.19-0.05
						c0.14,0.05-0.13-0.07-0.18-0.09c-0.37-0.19-0.66-0.44-1.01-0.76c-0.99-0.9-1.84-1.93-2.66-2.96c-2.27-2.86-4.31-5.87-6.38-8.85
						c-1.71-2.47-3.37-5.05-5.4-7.32c-0.78-0.88-1.65-1.44-2.74-1.96c-1.82-0.88-3.77-1.53-5.71-2.13
						c-4.29-1.31-8.72-2.27-12.89-3.93c-1.61-0.64-3.27-1.4-4.56-2.55c-0.25-0.22-0.48-0.45-0.68-0.71
						c-0.11-0.14-0.21-0.29-0.31-0.43c-0.02-0.03-0.14-0.26-0.04-0.05c-0.08-0.18-0.14-0.36-0.2-0.55
						c-0.15-0.54-0.23-1.14-0.32-1.83c-0.11-0.93-0.18-1.87-0.24-2.81c-0.16-2.6-0.2-5.2-0.19-7.8c0.01-6.78,0.35-13.56,1.02-20.3
						c0.63-6.34,1.45-12.77,3.33-18.88c0.64-2.07,1.4-4.19,2.67-5.99c0.38-0.54,0.99-1.2,1.53-1.54c0.09-0.06,0.19-0.11,0.29-0.16
						c0.05-0.02,0.09-0.04,0.14-0.07c0.16-0.08-0.06,0.02,0.11-0.04c0.25-0.1,0.51-0.18,0.78-0.24c0.72-0.18,1.14-0.23,1.9-0.29
						c0.86-0.07,1.74-0.09,2.61-0.07c2.16,0.03,4.32,0.23,6.47,0.48c5.94,0.71,11.84,1.86,17.7,3.13c7.09,1.54,14.13,3.3,21.13,5.19
						c7.2,1.95,14.36,4.05,21.46,6.31c6.31,2.01,12.59,4.13,18.78,6.49c4.46,1.7,8.96,3.48,13.13,5.77c0.71,0.39,1.4,0.8,2.07,1.24
						c0.13,0.08,0.12,0.08,0.31,0.22c0.13,0.09,0.26,0.19,0.39,0.29c0.22,0.17,0.43,0.34,0.64,0.53c0.09,0.08,0.17,0.16,0.25,0.24
						c0.04,0.04,0.08,0.09,0.12,0.13c-0.13-0.14,0.01,0.01,0.03,0.04c0.05,0.07,0.11,0.14,0.16,0.21c0.09,0.13-0.04-0.1,0.01,0.02
						c0.02,0.05,0.04,0.09,0.05,0.14c0.02,0.06,0.09,0.36,0.06,0.19c0.03,0.13,0.04,0.26,0.06,0.38c0.03,0.31,0.04,0.63,0.03,0.95
						c-0.03,1.76-0.41,3.69-0.79,5.51c-0.56,2.71-1.26,5.39-2,8.05c-1.81,6.5-3.9,12.92-6.16,19.27
						c-2.04,5.76-4.19,11.49-6.73,17.06c-0.82,1.81-1.67,3.62-2.74,5.31c-0.36,0.57-0.53,0.87-0.98,1.31
						c-0.19,0.19-0.3,0.25-0.53,0.33c-0.45,0.14-0.8,0.19-1.26,0.22c-1.38,0.1-2.79-0.03-4.17-0.19c-1.83-0.21-3.64-0.51-5.45-0.84
						c-4.11-0.76-8.19-1.7-12.26-2.69c-3.07-0.75-6.12-1.54-9.17-2.34C211.69,92,211.46,93.01,212.16,93.2L212.16,93.2z"/>
				</g>
			</g>
		</g>
		<g id="Ebene_8_1_">
			<g>
				<g>
					<path class="st1" d="M243.75,56.92c-2.5,7.67-5,15.34-7.5,23.01c-0.27,0.84,0.05,2.02,0.55,2.76c0.52,0.76,1.5,1.47,2.46,1.65
						c1,0.18,2.09,0.11,2.93-0.42c0.88-0.56,1.37-1.29,1.69-2.25c2.5-7.67,5-15.34,7.5-23.01c0.27-0.84-0.05-2.02-0.55-2.76
						c-0.52-0.76-1.5-1.47-2.46-1.65c-1-0.18-2.09-0.11-2.93,0.42C244.56,55.24,244.07,55.96,243.75,56.92L243.75,56.92z"/>
				</g>
			</g>
		</g>
		<g id="Ebene_7_1_">
			<g class="st2">
				<g>
					<path class="st3" d="M234.07,33.67c2.24,0.89,4.55,1.58,6.84,2.33c0.63,0.21,1.26,0.42,1.89,0.63c0.31,0.1,0.61,0.21,0.92,0.32
						c0.15,0.05,0.31,0.11,0.46,0.16c0.5,0.18-0.42-0.16,0.09,0.03c1.19,0.44,2.37,0.9,3.52,1.43c0.53,0.25,1.06,0.51,1.58,0.79
						c0.23,0.13,0.46,0.26,0.69,0.4c0.11,0.07,0.21,0.13,0.32,0.2c0.44,0.28-0.3-0.23-0.04-0.03c0.37,0.28,0.74,0.55,1.07,0.88
						c0.07,0.07,0.13,0.16,0.21,0.22c-0.11-0.09-0.36-0.44-0.15-0.16c0.12,0.16,0.21,0.37,0.35,0.52c-0.07-0.08-0.24-0.54-0.12-0.22
						c0.03,0.08,0.06,0.16,0.09,0.23c0.18,0.45-0.01-0.43-0.02-0.13c0,0.15-0.02,0.71,0.02,0.19c0.04-0.51,0.01-0.1-0.01,0.02
						c-0.01,0.12-0.03,0.23-0.05,0.35c-0.04,0.26-0.09,0.52-0.15,0.78c-0.76,3.57-1.97,7.05-3.12,10.51
						c-1.63,4.9-3.34,9.77-5.07,14.63c-1.63,4.6-3.28,9.2-4.89,13.81c-0.17,0.48-0.33,0.96-0.5,1.43c-0.36,1.03,0.62,2.31,1.72,2.52
						c1.29,0.24,2.26-0.42,2.64-1.53c1.57-4.55,3.2-9.08,4.81-13.61c1.77-5,3.54-10,5.23-15.02c1.25-3.71,2.54-7.44,3.43-11.25
						c0.23-0.98,0.53-2.11,0.36-3.12c-0.4-2.36-2.47-3.96-4.56-5.13c-2.34-1.32-4.95-2.23-7.49-3.11c-2.36-0.81-4.76-1.53-7.12-2.36
						c-0.12-0.04-0.23-0.08-0.35-0.12c-0.35-0.13,0.56,0.21,0.13,0.05c-0.22-0.08-0.44-0.17-0.66-0.25c-1.08-0.43-2.46-0.27-3,0.8
						C232.65,31.76,232.91,33.21,234.07,33.67L234.07,33.67z"/>
				</g>
			</g>
			<g class="st2">
				<g>
					<path class="st3" d="M235.99,91.7c-0.03,0.46-0.05,0.92-0.08,1.37c1.24-0.52,2.48-1.04,3.72-1.56
						c-0.48-0.45-0.96-0.9-1.44-1.35c-0.09,1.09-0.19,2.18-0.28,3.28c-0.3,0.14-0.56,0.22-0.91,0.19c-0.14,0.01-0.27-0.02-0.39-0.09
						c-0.21-0.09-0.25-0.1-0.1-0.03c-0.22-0.14-0.39-0.28-0.54-0.49c0.09,0.13,0.08,0.1-0.03-0.08c-0.1-0.15-0.16-0.32-0.17-0.51
						c0.51-0.69,1.01-1.37,1.52-2.06c0.03-0.01,0.56-0.03,0.28-0.04c0.28,0.01,0.52,0.06,0.78,0.17c-0.26-0.11,0.19,0.14,0.22,0.16
						c-0.22-0.16,0.14,0.16,0.17,0.2c0.14,0.2,0.2,0.44,0.22,0.67c-0.04-0.38-0.2,0.73-0.19,0.7c0.1-0.24-0.12,0.16-0.16,0.2
						c-0.09,0.07-0.18,0.14-0.27,0.21c-0.35,0.13-0.44,0.16-0.28,0.11c0.25-0.06-0.52,0.05-0.26,0.04c0.12,0,0.07,0-0.14-0.01
						c-0.13,0.01-0.26-0.02-0.38-0.08c-0.49-0.17-0.85-0.54-0.95-1.02c-0.09-0.45-0.05,0.21-0.02-0.27
						c0.04-0.47-0.11,0.17,0.06-0.27c0.02-0.12,0.08-0.23,0.18-0.31c0.13-0.15,0.15-0.18,0.08-0.11c-0.13,0.13,0.48-0.29,0.15-0.15
						c1.11,0.4,2.22,0.79,3.33,1.19c-0.08-0.19-0.16-0.39-0.24-0.59c-0.42-1.03-1.66-1.78-2.82-1.4c-1.08,0.35-1.86,1.49-1.41,2.59
						c0.08,0.19,0.16,0.39,0.24,0.59c0.26,0.63,0.7,1.08,1.37,1.33c0.72,0.26,1.3,0.15,1.96-0.14c1.33-0.58,1.85-2.3,1.34-3.55
						c-0.6-1.49-2.42-2.33-4.01-1.78c-1.53,0.53-2.53,2.13-1.86,3.65c0.65,1.47,2.35,2.36,3.99,1.91c0.94-0.26,1.58-1.14,1.52-2.06
						c-0.06-0.99-0.7-1.96-1.66-2.44c-1.04-0.52-2.09-0.47-3.09,0c-1.32,0.62-1.23,2.39-0.28,3.28c0.48,0.45,0.96,0.9,1.44,1.35
						c0.64,0.6,1.68,0.72,2.46,0.39c0.87-0.37,1.21-1.09,1.26-1.95c0.03-0.46,0.05-0.92,0.08-1.37c0.03-0.48-0.36-1.11-0.73-1.44
						c-0.41-0.36-1.07-0.62-1.63-0.59c-0.56,0.04-1.14,0.23-1.51,0.63C236.15,90.64,236.02,91.11,235.99,91.7L235.99,91.7z"/>
				</g>
			</g>
		</g>
		<g id="Ebene_2_2_">
			<g>
				<g>
					<path d="M207.63,96.86c7.35,1.92,14.73,3.84,22.22,5.18c1.8,0.32,3.61,0.6,5.43,0.79c1.45,0.15,2.93,0.29,4.37,0.14
						c1.12-0.12,2.17-0.37,2.96-1.14c0.5-0.49,0.9-1.09,1.27-1.68c1.08-1.7,1.94-3.53,2.77-5.35c1.2-2.61,2.29-5.27,3.34-7.94
						c2.55-6.49,4.87-13.07,6.99-19.71c1.84-5.78,3.61-11.62,4.8-17.57c0.38-1.9,0.74-3.86,0.72-5.8c-0.01-0.62-0.07-1.28-0.3-1.87
						c-0.25-0.63-0.73-1.15-1.25-1.61c-1.14-1.03-2.54-1.84-3.9-2.58c-1.88-1.03-3.84-1.93-5.81-2.79
						c-5.54-2.42-11.25-4.49-16.97-6.46c-6.9-2.38-13.87-4.56-20.88-6.62c-7.27-2.13-14.59-4.11-21.95-5.91
						c-6.56-1.6-13.17-3.08-19.82-4.24c-4.96-0.86-10.05-1.67-15.08-1.66c-1.6,0-3.28,0.08-4.8,0.53c-1.75,0.52-2.96,1.7-3.92,3.12
						c-1.35,1.99-2.16,4.34-2.84,6.61c-0.88,2.93-1.48,5.93-1.98,8.95c-1.16,7.03-1.74,14.18-2.05,21.31
						c-0.25,5.8-0.37,11.65,0.05,17.46c0.11,1.54,0.19,3.2,0.7,4.7c0.38,1.1,1.3,2.05,2.24,2.78c1.55,1.2,3.36,2.03,5.2,2.73
						c4.37,1.65,8.94,2.67,13.4,4.07c0.49,0.15,0.98,0.31,1.46,0.48c0.13,0.04,0.26,0.09,0.39,0.13c0.07,0.02,0.5,0.18,0.08,0.03
						c0.25,0.09,0.49,0.18,0.74,0.28c0.91,0.35,1.8,0.74,2.66,1.2c0.16,0.09,0.32,0.18,0.48,0.27c0.09,0.05,0.18,0.12,0.28,0.17
						c0.19,0.09-0.39-0.31-0.23-0.16c0.13,0.12,0.29,0.23,0.42,0.35c0.15,0.14,0.3,0.3,0.44,0.45c0.32,0.34-0.22-0.26,0.03,0.03
						c0.11,0.13,0.22,0.26,0.33,0.39c2.08,2.51,3.86,5.23,5.71,7.88c2.05,2.93,4.08,5.9,6.41,8.65c0.85,1,1.73,2.04,2.81,2.84
						c0.51,0.37,1.04,0.72,1.68,0.88c0.63,0.16,1.22,0.08,1.84-0.02c1.43-0.24,2.82-0.72,4.16-1.19c2.06-0.73,4.07-1.56,6.05-2.44
						c3.76-1.67,7.54-3.55,10.68-6.11c0.67-0.55,0.51-1.66-0.12-2.21c-0.72-0.64-1.69-0.51-2.36,0.04
						c-0.09,0.07-0.64,0.49-0.26,0.21c-0.17,0.12-0.33,0.25-0.5,0.37c-0.39,0.28-0.79,0.55-1.2,0.81c-0.88,0.56-1.78,1.08-2.7,1.59
						c-1.93,1.05-3.92,2.01-5.95,2.89c-0.22,0.1-0.43,0.19-0.65,0.28c-0.04,0.02-0.47,0.2-0.13,0.06c-0.13,0.05-0.26,0.11-0.39,0.16
						c-0.5,0.21-1,0.41-1.51,0.61c-0.88,0.34-1.77,0.67-2.66,0.98c-0.73,0.25-1.46,0.48-2.21,0.68c-0.28,0.07-0.56,0.14-0.84,0.2
						c-0.12,0.02-0.28,0.03-0.39,0.07c0.4-0.17,0.3-0.04,0.04-0.01c-0.09,0.01-0.18,0-0.27,0.01c-0.31,0.03,0.3,0.06,0.23,0.03
						c-0.05-0.02-0.18-0.06-0.23-0.06c0.44,0.01,0.39,0.17,0.14,0.03c-0.09-0.05-0.17-0.1-0.26-0.15c-0.31-0.17,0.36,0.27,0.08,0.05
						c-0.2-0.16-0.4-0.31-0.59-0.48c-0.45-0.4-0.87-0.84-1.27-1.28c-0.07-0.08-0.31-0.3,0.04,0.05c-0.06-0.06-0.12-0.14-0.18-0.21
						c-0.11-0.13-0.23-0.26-0.34-0.4c-0.26-0.31-0.51-0.62-0.76-0.93c-2.27-2.84-4.32-5.83-6.39-8.8c-1.78-2.56-3.51-5.2-5.62-7.54
						c-0.81-0.91-1.76-1.52-2.88-2.08c-1.94-0.95-4.03-1.64-6.11-2.28c-2.18-0.67-4.37-1.25-6.56-1.88
						c-1.08-0.31-2.16-0.62-3.23-0.96c-0.49-0.16-0.99-0.32-1.47-0.49c-0.13-0.05-0.26-0.09-0.39-0.14
						c-0.42-0.15,0.23,0.09-0.03-0.01c-0.27-0.11-0.54-0.2-0.81-0.31c-0.89-0.35-1.76-0.73-2.6-1.18c-0.36-0.2-0.71-0.41-1.06-0.63
						c-0.33-0.2,0.3,0.23,0,0c-0.08-0.06-0.17-0.12-0.25-0.18c-0.16-0.12-0.32-0.25-0.47-0.38c-0.15-0.13-0.29-0.26-0.42-0.39
						c-0.04-0.04-0.08-0.09-0.13-0.13c-0.24-0.23,0.23,0.3,0.03,0.04c-0.14-0.2-0.28-0.47-0.45-0.64c0.33,0.33,0.19,0.43,0.12,0.23
						c-0.01-0.04-0.03-0.07-0.04-0.11c-0.04-0.1-0.07-0.21-0.1-0.32c-0.03-0.12-0.06-0.23-0.09-0.35c-0.09-0.36,0.05,0.28,0.03,0.14
						c-0.01-0.08-0.03-0.16-0.04-0.24c-0.06-0.36-0.12-0.72-0.16-1.09c-0.12-0.94-0.19-1.88-0.25-2.83
						c-0.16-2.59-0.21-5.17-0.21-7.76c0-3.23,0.08-6.46,0.23-9.69c0.08-1.78,0.19-3.56,0.31-5.33c0.03-0.42,0.06-0.84,0.09-1.26
						c0.01-0.11,0.06-0.73,0.02-0.27c0.02-0.27,0.04-0.54,0.07-0.8c0.07-0.88,0.15-1.76,0.24-2.63c0.62-6.33,1.44-12.74,3.31-18.83
						c0.19-0.62,0.39-1.23,0.62-1.83c0.05-0.13,0.24-0.56,0.02-0.05c0.06-0.14,0.11-0.28,0.17-0.42c0.11-0.27,0.23-0.54,0.35-0.81
						c0.4-0.9,0.87-1.77,1.44-2.58c0.03-0.05,0.07-0.09,0.1-0.14c0.01-0.02-0.28,0.36-0.15,0.19c0.07-0.08,0.13-0.17,0.21-0.25
						c0.13-0.16,0.27-0.31,0.42-0.46c0.13-0.13,0.27-0.24,0.4-0.36c0.24-0.21-0.4,0.27-0.07,0.05c0.08-0.05,0.15-0.1,0.23-0.15
						c0.09-0.05,0.19-0.1,0.28-0.15c0.05-0.03,0.11-0.05,0.17-0.08c0.05-0.03-0.5,0.19-0.18,0.08c0.26-0.09,0.52-0.17,0.79-0.24
						c0.14-0.03,0.28-0.07,0.43-0.09c0.08-0.02,0.16-0.03,0.25-0.04c0.41-0.07-0.24,0.03-0.12,0.02c0.36-0.04,0.72-0.09,1.08-0.12
						c0.87-0.07,1.74-0.08,2.62-0.06c1.02,0.02,2.04,0.07,3.06,0.15c0.27,0.02,0.53,0.04,0.8,0.07c0.12,0.01,0.25,0.02,0.37,0.03
						c0.08,0.01,0.15,0.01,0.23,0.02c0.43,0.04-0.36-0.04-0.07-0.01c0.6,0.06,1.21,0.13,1.81,0.2c5.94,0.72,11.84,1.87,17.69,3.15
						c7.04,1.53,14.03,3.28,20.98,5.16c7.21,1.95,14.38,4.06,21.5,6.32c3.31,1.05,6.62,2.14,9.9,3.27c1.57,0.54,3.14,1.08,4.69,1.65
						c-0.42-0.15-0.04-0.01,0.15,0.06c0.19,0.07,0.38,0.14,0.57,0.21c0.38,0.14,0.75,0.28,1.13,0.42c0.7,0.26,1.4,0.52,2.1,0.79
						c4.47,1.7,8.98,3.48,13.17,5.77c0.71,0.38,1.4,0.79,2.07,1.23c0.06,0.04,0.12,0.09,0.19,0.13c-0.57-0.35-0.23-0.16-0.1-0.07
						c0.13,0.1,0.27,0.19,0.4,0.29c0.22,0.17,0.44,0.35,0.65,0.53c0.09,0.08,0.17,0.16,0.26,0.24c0.04,0.04,0.07,0.08,0.11,0.12
						c0.21,0.2-0.32-0.4-0.14-0.15c0.05,0.07,0.11,0.15,0.17,0.22c0.21,0.25-0.16-0.48-0.05-0.1c0.02,0.09,0.05,0.19,0.08,0.28
						c-0.17-0.46-0.05-0.28-0.01,0c0.04,0.3,0.04,0.59,0.04,0.89c0,0.17-0.01,0.33-0.02,0.5c-0.01,0.1-0.01,0.2-0.02,0.29
						c-0.02,0.42,0.04-0.4,0-0.06c-0.04,0.44-0.09,0.87-0.15,1.3c-0.15,1.08-0.35,2.14-0.57,3.21c-0.55,2.68-1.24,5.33-1.96,7.96
						c-1.8,6.5-3.9,12.93-6.16,19.3c-0.57,1.59-1.14,3.18-1.73,4.77c-0.29,0.77-0.58,1.53-0.87,2.3c-0.03,0.09-0.17,0.43,0,0
						c-0.03,0.08-0.06,0.16-0.09,0.24c-0.07,0.18-0.14,0.36-0.21,0.53c-0.15,0.38-0.3,0.76-0.45,1.14c-1.03,2.61-2.1,5.2-3.26,7.76
						c-0.82,1.81-1.68,3.62-2.74,5.31c-0.17,0.28-0.38,0.53-0.55,0.81c0.35-0.55,0.11-0.14-0.02,0c-0.08,0.09-0.16,0.18-0.25,0.26
						c-0.03,0.04-0.08,0.06-0.11,0.1c-0.16,0.18,0.42-0.23,0.16-0.12c-0.07,0.03-0.16,0.08-0.22,0.12
						c-0.11,0.07-0.31-0.09,0.26-0.11c-0.06,0-0.13,0.05-0.18,0.06c-0.19,0.05-0.39,0.09-0.58,0.14c-0.26,0.06,0.46-0.05,0.18-0.03
						c-0.06,0-0.13,0.02-0.19,0.02c-0.14,0.01-0.27,0.03-0.41,0.03c-0.62,0.04-1.25,0.02-1.87-0.01c-0.35-0.02-0.69-0.04-1.04-0.07
						c-0.13-0.01-0.83-0.06-0.26-0.02c-0.21-0.01-0.42-0.04-0.63-0.07c-1.85-0.21-3.69-0.52-5.52-0.86
						c-4.1-0.76-8.16-1.7-12.21-2.69c-3.07-0.75-6.13-1.54-9.19-2.34c-0.88-0.23-1.8,0.35-1.98,1.15
						C206.14,95.82,206.75,96.63,207.63,96.86L207.63,96.86z"/>
				</g>
			</g>
		</g>
		<g id="Ebene_5_1_">
			<g>
				<g>
					<path class="st3" d="M175.93,54.66c3.66,7.53,7.33,15.05,10.99,22.58c0.53,1.09,1.17,1.88,2.4,2.32
						c1.09,0.39,2.46,0.41,3.43-0.25c6.16-4.2,12.32-8.41,18.49-12.61c6.16-4.2,12.32-8.41,18.49-12.61
						c3.48-2.37,6.96-4.75,10.44-7.12c0.83-0.57,1.46-1.27,1.69-2.25c0.2-0.87,0.02-2-0.55-2.76c-1.15-1.54-3.66-2.41-5.4-1.22
						c-6.16,4.2-12.32,8.41-18.49,12.61c-6.16,4.2-12.32,8.41-18.49,12.61c-3.48,2.37-6.96,4.75-10.44,7.12
						c1.94,0.69,3.89,1.38,5.83,2.08c-3.66-7.53-7.33-15.05-10.99-22.58c-0.44-0.91-0.94-1.65-1.91-2.14
						c-0.86-0.44-2.1-0.61-3.02-0.31c-0.92,0.3-1.81,0.87-2.23,1.72C175.76,52.66,175.5,53.77,175.93,54.66L175.93,54.66z"/>
				</g>
			</g>
		</g>
		<g id="Ebene_9_1_">
			<g class="st4">
				<path d="M154.69,10.44c-6.45,28.42,19.97,69.73,39.29,92.14c-3.04,0.06-5.79-4.51-11.05-10.61c-7.44-8.62-4.76-8.86-9.31-11.84
					c-3.78-2.47-8.92-3.2-13.33-4.34c-4.07-1.05-9.04-2.88-11.23-5.4c-2.89-3.32-1.78-36.83,3.43-56.4"/>
				<g>
					<path d="M153.6,10.2c-1.33,5.9-1.25,12.07-0.35,18.09c1,6.67,2.95,13.23,5.42,19.6c2.62,6.75,5.84,13.31,9.42,19.69
						c3.53,6.29,7.42,12.41,11.6,18.36c3.75,5.33,7.72,10.53,11.95,15.54c0.47,0.55,0.94,1.1,1.41,1.65
						c0.29-0.53,0.58-1.05,0.86-1.58c-0.08,0-0.16,0-0.24-0.01c0.3,0.01,0.05,0.01-0.02-0.01c-0.14-0.03-0.27-0.06-0.4-0.09
						c-0.31-0.08,0.09,0.06-0.2-0.08c-0.17-0.08-0.33-0.16-0.49-0.25c-0.08-0.05-0.16-0.1-0.25-0.15c0.18,0.12-0.01-0.01-0.05-0.04
						c-0.16-0.12-0.31-0.23-0.46-0.36c-0.33-0.27-0.64-0.57-0.95-0.87c-1.61-1.6-2.97-3.42-4.39-5.16
						c-2.78-3.41-5.82-6.65-7.96-10.47c-0.43-0.76-0.81-1.55-1.35-2.25c-0.67-0.88-1.52-1.57-2.45-2.21
						c-4.58-3.13-10.24-3.67-15.48-5.18c-2.39-0.69-4.77-1.55-6.91-2.8c-0.88-0.51-1.69-1.11-2.38-1.84
						c-0.1-0.11,0.08,0.14-0.03-0.05c-0.03-0.04-0.06-0.09-0.09-0.13c-0.09-0.14-0.02-0.2,0.03,0.06c-0.01-0.07-0.07-0.14-0.1-0.21
						c-0.14-0.32-0.23-0.65-0.32-0.98c-0.03-0.11-0.05-0.22-0.08-0.33c-0.02-0.08-0.08-0.42-0.02-0.08
						c-0.04-0.23-0.09-0.47-0.13-0.7c-0.19-1.17-0.3-2.34-0.39-3.52c-0.51-7.25-0.14-14.56,0.43-21.76
						c0.67-8.45,1.73-16.91,3.66-25.16c0.21-0.9,0.43-1.79,0.67-2.69c0.34-1.29-1.84-1.79-2.18-0.49
						c-2.17,8.18-3.31,16.63-4.08,25.05c-0.72,7.74-1.18,15.57-0.82,23.37c0.11,2.34,0.24,4.76,0.86,7.05
						c0.22,0.8,0.54,1.49,1.13,2.11c1.58,1.68,3.86,2.79,6.01,3.66c2.51,1.01,5.12,1.73,7.75,2.34c2.71,0.63,5.49,1.18,8.06,2.25
						c0.63,0.26,1.25,0.56,1.85,0.89c0.27,0.15,0.53,0.3,0.79,0.47c0.11,0.07,0.22,0.14,0.32,0.21c0.19,0.12-0.11-0.08,0.12,0.08
						c0.47,0.33,0.94,0.68,1.36,1.08c0.08,0.07,0.15,0.15,0.22,0.22c0.1,0.1,0.23,0.26,0.06,0.05c0.14,0.18,0.29,0.35,0.41,0.53
						c0.24,0.35,0.45,0.71,0.66,1.08c0.62,1.12,1.25,2.23,1.97,3.29c1.39,2.05,3,3.93,4.61,5.83c1.73,2.04,3.35,4.15,5.11,6.17
						c1.16,1.33,2.41,2.79,4.06,3.61c0.69,0.34,1.43,0.53,2.2,0.52c0.77,0,1.41-0.95,0.86-1.58c-4.16-4.83-8.08-9.84-11.78-14.98
						c-4.17-5.79-8.07-11.75-11.63-17.87c-3.63-6.23-6.91-12.65-9.65-19.25c-2.6-6.26-4.75-12.72-5.97-19.3
						c-1.1-5.92-1.49-12.01-0.51-17.87c0.12-0.7,0.25-1.39,0.41-2.08C156.07,9.39,153.89,8.89,153.6,10.2L153.6,10.2z"/>
				</g>
			</g>
		</g>
	</g>
</g>
<g id="Ebene_1">
	<g id="Ebene_28">
		<g>
			<path class="st5" d="M84.79,198.41c-0.28-0.68-0.57-1.35-0.85-2.03c1.24,8.97,1.21,18.08,1.39,27.14
				c0.19,9.13,0.61,18.28,1.83,27.33c3,0,6.01,0,9.01-0.01c0.64,0,1.36-0.04,1.79-0.52c0.4-0.46,0.4-1.14,0.37-1.76
				c-0.8-17.94-1.61-35.87-2.41-53.81c-0.02-0.41-0.05-0.85-0.28-1.19c-0.42-0.58-1.26-0.58-1.96-0.49
				C90.31,193.52,87.03,194.7,84.79,198.41z"/>
			<path class="st5" d="M123.64,195.55c-1.22,19.84-1.01,39.98,0.51,59.8c2.82,0.03,6.95-0.2,9.77-0.17
				c0.67,0.01,1.41-0.02,1.88-0.49c0.49-0.49,0.52-1.28,0.52-1.98c-0.08-19.42-0.15-38.83-0.23-58.25
				C131.91,194.77,127.72,195.1,123.64,195.55z"/>
			<path class="st6" d="M85.94,196.73c4.88,6.91,7.59,15.39,7.66,23.92c0.07,8.52-2.52,17.05-7.28,24.04
				c-0.76-13.95-1.52-27.9-2.28-41.85C83.9,200.32,83.86,197.52,85.94,196.73z"/>
			<path class="st7" d="M123.4,201.73c0.16,15.08,0.32,30.15,0.48,45.23c3.19-0.91,5.64-3.67,6.94-6.79c1.3-3.12,1.6-6.57,1.67-9.95
				c0.12-5.39-0.3-10.83-1.74-16.01C129.32,209.02,126.84,204.07,123.4,201.73z"/>
			<path class="st8" d="M83.35,191.22c0.94,20.41,1.87,39.52,2.81,59.93c3.87,0.46,8.23-0.63,12.1-0.17
				c-1.81-61.01-1.33-58.78-3.22-59.29C87.31,189.58,85.3,192.15,83.35,191.22z"/>
			<path class="st8" d="M123.07,193.62c-0.78,20.57,0.16,40.1,1.08,61.72c3.6,0.08,7.2,0.15,10.79,0.23c0.45,0.01,0.96,0,1.29-0.31
				c0.37-0.35,0.38-0.94,0.36-1.47c-0.7-20.36-0.39-39.7-1.08-60.06C131.94,193.94,127.37,193.12,123.07,193.62z"/>
			<path class="st9" d="M67.4,269.78c0.79-7.8,4.43-15.47,10.59-20.14c6.16-4.67,14.9-5.94,21.71-2.33
				c7.35,3.9,11.36,12.86,10.83,21.31C96.33,267.93,82.09,268.28,67.4,269.78z"/>
			<path class="st9" d="M115.37,267.8c-0.45-5.16,0.41-10.6,3.32-14.85c2.91-4.24,8.1-7.02,13.09-6.11
				c3.96,0.72,7.29,3.61,9.46,7.06c2.18,3.46,3.34,7.47,4.34,11.45c0.32,1.28,0.54,2.88-0.46,3.72c-0.55,0.46-1.32,0.53-2.03,0.57
				c-9.4,0.58-18.83,0.65-28.24,0.22C114.89,269,114.93,268.13,115.37,267.8z"/>
			<path class="st10" d="M68.14,270.63c-0.9,0.49-0.73,1.99,0.07,2.64s1.9,0.69,2.91,0.71c12.86,0.19,25.72,0.37,38.58,0.56
				c1.65-1.35,0.9-4.31-0.87-5.49c-1.77-1.18-4.04-1.11-6.15-1C91.02,268.65,78.09,265.19,68.14,270.63z"/>
			<path class="st10" d="M115.42,270.51c0,1.33,0,2.66,0,3.98c9.47-0.04,18.94-0.07,28.41-0.11c0.51,0,1.04-0.01,1.5-0.25
				c1.37-0.72,1.09-2.78,0.6-4.27C135.73,270.73,125.48,270.84,115.42,270.51z"/>
			<path class="st11" d="M94.83,245.05c-7.17-0.72-14.59,1.95-19.75,7.1c-5.15,5.15-7.94,12.68-7.42,20.03
				c0.04,0.49,0.09,0.99,0.36,1.4c0.54,0.81,1.65,0.88,2.6,0.88c1.15-0.01,2.4-0.05,3.27-0.82c0.68-0.6,0.98-1.53,1.28-2.4
				C78.72,260.77,85.93,251.67,94.83,245.05z"/>
			<path class="st12" d="M137.15,248.45c-3.06-1.56-6.53-2.42-9.93-2.03c-3.4,0.39-6.71,2.13-8.7,4.98
				c-2.05,2.95-2.52,6.72-2.93,10.31c-0.26,2.24-0.51,4.48-0.77,6.72c-0.2,1.73-0.38,3.57,0.37,5.13c0.75,1.56,2.82,2.59,4.21,1.59
				c1.06-0.75,1.27-2.23,1.48-3.53c1.25-7.66,5.77-14.7,12.13-18.94C134.66,251.62,136.62,250.37,137.15,248.45z"/>
			<path class="st13" d="M67.76,274.84c-1.51-6.61,0.45-13.76,4.37-19.24c3.83-5.36,9.65-9.37,16.07-10.27
				c6.43-0.91,13.37,1.53,17.39,6.75c2.36,3.07,3.64,6.89,4.24,10.75c0.59,3.86,0.54,7.79,0.48,11.7
				C96.1,274.57,81.88,274.61,67.76,274.84z"/>
			<path class="st13" d="M115.01,275.06c-0.42-4.41-0.84-8.86-0.25-13.25c0.58-4.39,2.27-8.77,5.47-11.75
				c2.4-2.24,5.58-3.58,8.83-3.75c3.33-0.17,6.71,0.89,9.38,2.94c3.6,2.76,5.76,7.13,6.78,11.61c1.01,4.48,1,9.14,0.97,13.74
				C135.86,274.25,125.53,274.45,115.01,275.06z"/>
			<path class="st13" d="M67.87,270.32c13.87-1.33,27.81-1.91,41.73-1.72"/>
			<path class="st13" d="M115.66,270.74c9.92,0.11,19.85-0.16,29.75-0.82"/>
			<path class="st13" d="M128.53,259.65c2.3,0.29,4.59,0.57,6.89,0.85"/>
			<path class="st13" d="M128.61,252.65c1.29,0,2.57,0,3.86,0"/>
			<path class="st13" d="M73.96,254.33c1.91,2.05,3.82,4.09,5.74,6.14"/>
			<path class="st13" d="M77.42,250.48c1.67,2.09,3.33,4.19,5,6.28"/>
			<path class="st5" d="M53.74,175.22c0.35,3.48-1.36,6.79-2.14,10.2c-0.77,3.41-0.05,7.83,3.17,9.01c2.22,0.81,4.75-0.37,6.27-2.21
				c1.52-1.84,2.25-4.21,2.93-6.51c-1.52,3.09-1.32,9.52,0.33,12.55c1.65,3.02,4.97,2.25,8.12,0.98s4.66-5.88,2.49-8.53
				c-0.25,3.26,0.23,6.72,2.16,9.33c1.93,2.6,4.1,6.2,5.35,3.19c1.38-3.34,5.36-4.64,4.77-8.61c-2.49,4.02-0.07,11.2,4.57,11.02
				c4.65-0.17,8.77-7.6,5.99-11.42c-0.52,2.82,2.8,9.29,4.7,11.41c1.9,2.12,3.17,0.26,4.15-2.42c1.08-2.95,1.66-4.52,0.59-6.88
				c-2.21,4.07,2.53,9.97,7.07,9.87c4.54-0.1,7.77-6.15,5.4-10.12c-1.75,3.83,1.67,8.97,5.79,8.72c4.12-0.25,6.92-5.76,4.75-9.36
				c-1.5,4.44,4.91,11.15,9.4,10.19c4.5-0.96,2.48-7.98,1.6-12.53c-1,4.1,5.12,8.79,8.89,7.06c3.77-1.73,3.8-8.24,1.41-11.68
				c-0.7,3.03,7.06,7.6,9.6,5.89c2.81-1.88,1.19-3.77,1.67-6.84c0.48-3.07-0.46-6.19-1.75-9.01c0.71,4.87,6.96,9.51,10.91,6.69
				c3.94-2.83,3.73-11.8-0.51-14.14c3.25,1.82,6.5,3.64,9.75,5.47c1.7-7.47-0.53-15.75-5.72-21.28c0.79,2.08,1.67,4.29,3.44,5.59
				c1.77,1.31,5.37,2.68,6.36,0.68c0.9-1.8-0.85-5.42-1.92-7.12c-3.41-5.43-6.81-10.87-10.22-16.3c2.64,1.87,4.24,5.13,6.24,7.74
				c2,2.61,7.49,4.46,9.4,1.77c1.75-2.45-0.38-7.7-2.48-9.83c-5.3-5.35-10.28-10.95-16.61-15.07c1.85,0.82,3.78,1.65,5.8,1.55
				c2.01-0.1,5.98-1.74,6.29-3.77c0.23-1.5-2.16-3.09-3.02-4.32c-3.09-4.4-8.12-7.08-13.32-8.06c2.73,0.9,8.22-1.38,8.53-4.3
				c0.31-2.92-3.97-6.03-6.32-7.72c-2.35-1.69-5.19-2.47-7.97-3.22c1.68,1.23,3.49,2.51,5.55,2.58c2.06,0.07,5.7-2.1,5.37-4.19
				c-0.29-1.81-3.58-2.37-5.24-3.06c-4.71-1.96-9.42-3.93-14.14-5.89c3.74,2.31,10.64-2.26,10.51-6.73
				c-0.12-4.47-5.47-7.85-9.25-10.1c-3.69-2.2-8.37-3.52-12.21-1.6c-3.84,1.92-5.4,8.17-1.94,10.74c-3.63,0.21-7.31-0.87-10.28-3.02
				c1.76-1.32,3.53-2.77,4.44-4.8c0.91-2.03,0.91-6.15-0.87-7.42c-1.99-1.42-5.2,1.05-6.65,3.04c-1.45,1.99-1.82,4.58-2.14,7.04
				c1.36-2.27,2.5-4.87,2.18-7.51c-0.33-2.64-0.68-6.71-3.25-6.33c-2.11,0.31-5.59,3.96-5.97,6.11c-0.37,2.15,0.14,4.34,0.65,6.46
				c0.68-5,0.73-11.33-3.72-11.58c-4.45-0.25-7.4,7.79-4.3,11.06c2.33-3.35-2.23-9.98-6.17-9.18c-3.94,0.8-4.03,8.38-0.62,10.56
				c-1.23-3.43-2.61-7.08-5.54-9.16c-2.93-2.08-4.37-4.26-7.09-2.05c-2.9,2.36,0.12,10.91,3.09,13.17c0.8-3.36-3.38-6.67-6.36-5.03
				s-2.57,7.04,0.61,8.2c-1.88,0.44-3.77,0.88-5.65,1.32c0.89-2.56,1.79-5.2,1.71-7.91c-0.07-2.72-1.34-5.58-3.74-6.73
				c-2.85-1.37-6.18-0.01-8.96,1.5c-3.41,1.86-6.35,4.41-9.08,7.21c-4.35,4.45-5.16,7.17-3.57,10.77c1.6,3.6,8.12,6.11,11.45,4.1
				c-0.12,0.74-0.24,1.49-0.36,2.23c-3.64,1.12-7.76,3.13-11.54,3.5s-8.55,1.03-11.36,3.64c-2.82,2.61-4.36,4.89-2.08,8.01
				c2.27,3.12,9.62,3.12,10.34-0.69c-4.91,2.25-9.47,5.32-13.43,9.06c-2.83,2.67-6.5,7.37-3.77,10.15
				c2.66,2.71,8.73-2.98,11.66-5.39c-4.69,1.4-9.35,8.22-12.47,12.06c-3.12,3.85-7.37,9.5-2.51,9.97
				c5.07,0.49,10.92-1.46,15.32-2.52c-7.04,1.42-11.5,7-18.39,10.71c-2.27,1.22-3.29,4.51-2.66,7.05c0.7,2.83,3.96,4.32,6.79,3.97
				c2.83-0.34,5.31-2.03,7.67-3.67c-3.93,0.33-9.49,7.11-10.74,10.94c-1.25,3.83,2.49,3.46,6.08,5.14c3.58,1.69,6.63-1.27,9.18-3.35
				c-6.08,0.58-6.75,3.79-9.2,6.76c-2.45,2.97-3.74,7.27-2.22,10.83c1.52,3.56,6.87,6.45,10.43,3.26
				C48.79,182.94,51.97,177.98,53.74,175.22z"/>
			<path class="st7" d="M68.05,86.81c-6.87,0.43-13.65,2.35-19.76,5.6c-3.05,1.62-6.36,4.54-5.29,7.87c0.69,2.17,3.1,3.47,5.33,3.43
				c2.23-0.04,4.32-1.03,6.33-2c-6.55,1.67-12.49,5.7-16.55,11.21c-1.43,1.95-3.95,4.2-2.61,6.21c1.81,2.71,7.25,1.75,10,0.04
				C34.52,133.44,33.66,153,33.26,171.15c-0.07,3.35-0.13,6.79,0.99,9.94c1.12,3.15,3.71,5.98,6.96,6.34
				c3.26,0.36,6.74-2.65,6.16-5.95c-0.06,0.95-0.11,1.89-0.17,2.84c2.33-2.77,4.66-5.53,6.99-8.3c-1.71,3.43-3.46,7.09-3.12,10.92
				c0.34,3.83,1.5,9.14,5.17,8.34c4.07-0.88,7.59-7.59,8.07-11.82c-0.88,3.63-1.76,7.51-0.6,11.06s3.53,8.04,6.81,6.39
				c3.31-1.66,5.38-7.95,5.26-11.72c-0.37,3.41-0.68,7.1,1.06,10.03s3.28,4.01,5.56,4.01c3.01,0,3.08-9.03,4.85-11.51
				c-0.47,2.92-0.92,5.99,0.04,8.79c0.96,2.79,3.86,5.13,6.65,4.34c2-0.57,2.32-3.08,2.78-5.16c0.45-2.08,1.21-3.74,0.91-5.84
				c-0.24,3.15-0.3,5.63,1.67,7.77c1.97,2.13,3.08,5.87,5.41,4.16c2.33-1.71,4.69-8.32,2.88-10.59c-0.63,2.97,0.27,6.32,2.55,8.27
				c2.28,1.95,4.38,3.94,6.68,2.03c2.3-1.92,4.23-7.67,2.14-9.82c-1.28,4.24,2.75,9.84,7.02,9.1c4.28-0.74,6.55-7.68,3.61-10.94
				c0.41,2.66,0.85,5.4,2.28,7.65c1.43,2.25,4.41,5.01,6.94,4.28c2.34-0.67,3.57-4.28,3.87-6.74c0.31-2.46-0.33-4.94-0.97-7.33
				c-1.12,4.02,3.27,9.74,7.25,8.84s5.6-7.98,2.94-11.14c-0.35,2.86,5.56,5.39,8.36,5.12s2.04-2.8,2.55-5.64
				c0.51-2.83-0.47-5.78-2.09-8.14c-21.71,11.41-47.75,12.88-71.27,6.22c-10.7-3.03-21.25-7.87-28.83-16.17
				c-10.21-11.17-13.79-27.63-11.54-42.75C51.36,112.85,58.91,98.96,68.05,86.81z"/>
			<path class="st13" d="M67.69,86.63c-9.41,2.53-27.91,5.26-25.48,13.59c1.48,5.07,10.87,2.78,12.64,1.35
				c-8.91,2.94-21.39,13.36-19.88,16.95c1.86,4.44,7.9,3.28,11.83-0.34c-6.35,3.61-17.63,13.17-16,16.94
				c0.98,2.26,5.83,4.29,16.74-0.3c-6.52,5.29-23.64,10.39-20.6,17.88c2.9,7.14,12.11,0.59,14.14,0.68
				c-4.69,2.21-11.92,7.9-9.82,12.61c2.1,4.72,10.12,2.22,13.87-0.26c-14.75,9.54-11.28,19.6-7.43,21.31
				c8.93,3.95,10.75-5.51,16.02-11.72c-3.19,6.62-3.57,18.11-0.01,19.57c4.68,1.92,7.21-3,9.47-9.03
				c-0.31,5.17-0.02,14.74,6.05,15.2c3.48,0.26,6.9-5.36,5.6-9.19c1.24,3.97,2.8,12.3,6.71,12.16c3.02-0.1,3.32-4.71,5.07-8.83
				c1.23,4.68,0.69,10.59,5.15,10.4s6.51-6.51,5.38-10.84c1.56,3.93,2.59,11.26,6.02,11.84c2.88,0.49,4.55-5.72,4.38-9.45
				c1.08,5,2.74,9.62,7.36,9.36c4.62-0.26,4.5-5.39,3.75-9.99c1.84,4.63,3.06,9.35,6.93,9.26c3.87-0.1,5.91-4.93,4.02-9.53
				c2.59,5.04,5.93,10.1,8.62,9.74c5.03-0.68,3.77-7.09,3.02-12.59c2.48,3.97,4,8.59,8.04,7.09s3.26-5.41,1.73-10.72
				c2.41,2.81,5.63,5.95,10.09,4.56c2.95-0.92,1.32-12.47,0.07-15.36c1.68,3.49,7.83,8.14,10.55,6.34c3.41-2.25,2.22-8.86-0.7-15.38
				c3.04,3.11,8.31,7.72,10.08,6.42c4.31-3.15-3.16-15.28-5.7-21.1c4.63,7.62,8.64,8.28,9.84,6.23c2.06-3.51-6.45-14.88-9.38-20.02
				c6.69,9.83,11.33,8.26,13.08,5.86c3.58-4.92-6.48-14.87-18.04-23.97c3.69,1.55,10.45,1.13,10.85-2.92
				c0.49-5.07-9.68-9.98-15.59-13.67c3.13,1.35,7.5,0.14,7.78-3c0.41-4.46-10.92-10.44-13.98-10.85c9.36,2.02,10.82,1.02,10.62-1.7
				c-0.27-3.58-12.73-7.11-18.84-7.11c7.73-3.58,17.54-8.38,0.83-18.44c-16.82-10.13-16.72,4.7-14.88,9.42l-9.32-3.18
				c2.4-2.46,7.73-10.94,3.04-12.65c-3.73-1.36-7.02,6.63-8.86,10.34c1.14-3.77,3.6-14.06-0.24-14.06c-5.34,0-5.9,8.85-6.41,12.41
				c0.7-3.43,3.09-10.43-3.19-11.4c-4.3-0.66-5.27,8.06-4.42,10.87c-0.65-3.43-3.03-9.83-6.05-8.99c-3.12,0.87-3.31,4.48-1.23,10.31
				c-0.91-3.16-6.38-13.03-10.93-11.55c-4.39,1.43-1.22,8.35,2.62,14.24c-1.51-2.47-5.36-6.66-8-5.17
				c-1.87,1.06-1.95,5.48,1.42,7.96l-5.48,1.84c2.38-14.4-2.77-22.54-15.57-11.81c-21.96,18.42,2.55,20.48,2.61,20.58
				C67.64,84.76,68,87.2,67.69,86.63z"/>
			<path class="st5" d="M173.83,137.31c0.77,2.93,3.19,5.03,5.14,7.32c1.95,2.28,3.59,5.47,2.42,8.26c-0.6,1.43-1.84,2.47-3.04,3.44
				c-6.67,5.43-13.35,10.85-20.02,16.28c-0.92,0.75-1.87,1.53-2.44,2.58s-0.7,2.46,0.01,3.41c0.85,1.15,2.57,1.24,3.85,0.64
				c1.28-0.6,2.24-1.72,3.23-2.74c0.99-1.02,2.14-2.01,3.53-2.22c-2.38,1.66-4.64,3.49-6.77,5.47c-0.75,0.69-1.53,1.53-1.54,2.56
				c-0.02,1.5,1.71,2.51,3.16,2.29c1.45-0.22,2.65-1.25,3.77-2.22c1.12-0.97,2.36-1.96,3.83-2.09c-1.01,1.06-2.36,1.72-3.61,2.49
				c-1.25,0.76-2.49,1.71-3.05,3.08c-0.57,1.37-0.2,3.24,1.11,3.88c1.11,0.54,2.42,0.07,3.54-0.44
				c12.41-5.65,22.58-15.43,31.61-25.82c2.21-2.54,4.48-5.41,4.66-8.81c0.18-3.39-1.77-6.47-3.74-9.2
				c-8.72-12.08-22.09-24.29-34.18-34.06"/>
			<path class="st5" d="M57.33,105.67c-12.97,11.89-32.89,34.31-41.63,49.73c-1.47,2.59-2.92,5.46-2.56,8.44
				c0.45,3.76,3.63,6.5,6.71,8.62c11.05,7.59,23.75,12.24,36.43,16.41c0.88,0.29,1.79,0.58,2.72,0.51c0.92-0.07,1.88-0.61,2.18-1.5
				c0.38-1.14-0.38-2.34-1.18-3.23c-1.93-2.16-4.32-3.89-6.95-5.04c2.77,1.51,5.71,2.68,8.75,3.46c0.89,0.23,2.07,0.3,2.47-0.55
				c0.38-0.82-0.35-1.71-1.03-2.3c-2.08-1.79-4.29-3.44-6.59-4.92c2.75,2.21,6.2,3.48,9.7,3.58c0.92,0.03,1.94-0.07,2.58-0.75
				c0.77-0.82,0.65-2.2,0.03-3.14c-0.61-0.94-1.6-1.55-2.55-2.12c-7.71-4.64-15.43-9.29-23.14-13.93c-2.52-1.52-5.38-3.66-5.16-6.64
				c0.14-1.87,1.48-3.37,2.76-4.71c4.89-5.16,9.78-10.32,14.68-15.48l0.1,0.03"/>
			<path class="st7" d="M47.21,114.71c-12.79,11.06-22.35,25.47-31.09,40.08c-1.7,2.85-3.45,6.05-2.85,9.33
				c0.67,3.69,4.02,6.13,7.17,8.05c9.67,5.92,21.08,12.14,32.44,15.77c1.75-0.35,2.26-0.48,3.95,0.11c1.69,0.58,4.22-0.16,4.05-1.98
				c-0.1-1.03-1.05-1.72-1.93-2.24c-2.3-1.37-4.7-2.57-7.16-3.6c2.95,0.9,5.9,1.8,8.85,2.69c0.78,0.24,1.77,0.42,2.29-0.23
				c0.91-1.12-0.87-2.45-2.24-2.83c-7.22-1.98-14.01-5.57-19.77-10.43c-4.41-3.73-8.43-8.69-8.72-14.53
				c-0.26-5.25,2.5-10.11,5.17-14.6c3.83-6.44,7.65-12.87,11.48-19.31c0.83-1.4,1.69-2.89,1.71-4.53
				C50.56,114.82,49.28,112.92,47.21,114.71z"/>
			<path class="st12" d="M173.53,137.61c2.47,4.04,5.26,7.87,8.37,11.89c0.75,0.97,1.48,1.95,2.44,3.07
				c0.27,3.28-1.02,6.54-2.98,9.14c-1.96,2.6-4.56,4.62-7.22,6.47c-5.09,3.52-10.67,8.05-16.36,10.41c-1.1,0.46-2.19,0.95-2.93,0.02
				c-1.01-1.26,0.27-4.69,1.61-5.59c7.08-4.77,13.81-10.09,20.09-15.91c1.41-1.31,2.84-2.69,3.6-4.48
				C180.91,150.84,180.83,148.53,173.53,137.61z"/>
			<path class="st13" d="M171.88,136.94c3.47,4.24,8.66,10.62,8.78,14.04c0.2,5.79-29.84,21.61-25.81,27.62
				c1.45,2.17,7.17-3.01,10.69-4.72c-4.82,4.5-9.78,8.35-8.09,10.08c1.97,2.01,7.68-2.8,10.52-4.15c-3.9,3.38-9.16,7.18-6.73,9.34
				c5.82,5.18,42.91-27.11,41.71-35.85c-0.96-6.99-17.3-24.94-33.33-39.14"/>
			<path class="st13" d="M47.75,114.17c-13.42,12.23-38.12,43.35-35.29,51.17c3.21,8.86,46.01,27.92,48.26,22.57
				c1.29-3.05-5.31-5.52-8.25-8.09c6.68,2.59,11.03,4.41,11.66,2.77c0.8-2.09-5.57-5.15-8.22-7.35c5.47,2.82,12.71,4.31,13.58,1.6
				c1.41-4.4-31.72-16.89-32.11-24.12c-0.22-4.01,11.9-14.43,17.62-19.82"/>
			<path class="st14" d="M83.28,122.75c-2.82-1.43-5.7-2.89-8.82-3.37s-6.56,0.15-8.8,2.43c-3,3.05-3.01,7.99-2.21,12.24
				c2.33,12.39,10,23.55,20.43,30.27c10.43,6.72,23.44,8.98,35.53,6.49c12.08-2.49,23.13-9.65,30.77-19.55
				c5.21-6.75,8.92-14.94,9.24-23.53c0.12-3.28-0.27-6.63-1.66-9.58c-1.39-2.95-3.87-5.46-6.95-6.35c-5.3-1.52-10.6,1.85-15.39,4.61
				C119.25,125.73,98.55,130.51,83.28,122.75z"/>
			<path class="st12" d="M82.79,121.69c-4.68-2.3-10.4-4.57-14.78-1.7c-2.25,1.47-3.61,4.1-4.06,6.79
				c-0.45,2.69-0.82,6.29-0.15,8.93c4.85,19.04,19.34,31.67,36.19,34c17.13,2.38,35.26-2.02,47.89-14.69
				c6.3-7.26,10.47-16.44,11.85-26.05c-11.04,9.19-23.69,16.12-36.45,22.56c-4.64,2.34-9.35,4.65-14.39,5.84
				c-5.04,1.2-10.5,1.21-15.22-0.95c-5.67-2.59-9.79-8.17-11.32-14.34C80.81,135.94,81.72,129.3,82.79,121.69z"/>
			<path class="st15" d="M79.58,120.73c-0.76,2.83-1.18,5.75-1.26,8.69c2.39,0.86,4.85,1.52,7.34,1.98
				c0.31,0.06,0.64,0.11,0.92-0.01c0.52-0.22,0.69-0.88,0.79-1.44c0.37-2.11,0.75-4.21,1.12-6.32
				C85.46,123.06,82.5,122.07,79.58,120.73z"/>
			<path class="st15" d="M89.02,123.77c-0.31,1.89-0.62,3.77-0.92,5.66c2.86,0.63,5.75,1.14,8.65,1.52
				c0.46-1.89,0.78-3.81,0.96-5.75C94.9,125.01,92.11,124.54,89.02,123.77z"/>
			<path class="st15" d="M119.67,122.97c0.15,2.95,0.78,5.87,1.86,8.61c2.44-0.23,4.87-0.6,7.27-1.12c0.28-0.06,0.59-0.14,0.78-0.37
				c0.24-0.3,0.19-0.74,0.13-1.12c-0.48-2.94-0.97-5.87-1.46-8.81C125.45,120.94,122.65,121.72,119.67,122.97z"/>
			<path class="st15" d="M128.08,120.1c0.45,2.04,0.91,4.07,1.36,6.11c0.1,0.42,0.24,0.91,0.63,1.08c0.27,0.12,0.59,0.04,0.88-0.04
				c1.93-0.53,3.85-1.06,5.78-1.6c0.27-0.07,0.57-0.17,0.69-0.43c0.09-0.2,0.05-0.44-0.01-0.66c-0.64-2.72-1.29-5.45-1.93-8.17
				C133.18,117.74,130.78,118.92,128.08,120.1z"/>
			<path class="st16" d="M81.07,161.3c3.33-5.61,8.94-9.76,15.2-11.21c6.26-1.46,13.07-0.2,18.44,3.39
				c3.86-5.67,10.16-9.53,16.86-10.35c6.7-0.82,13.71,1.41,18.77,5.99c0.32,0.29,0.66,0.63,0.72,1.07c0.06,0.44-0.18,0.85-0.42,1.22
				c-3.85,6.03-9.54,10.71-15.88,13.87s-13.3,4.84-20.3,5.59c-5.91,0.63-11.93,0.61-17.72-0.75
				C90.96,168.75,85.41,165.99,81.07,161.3z"/>
			<path class="st11" d="M114.33,154.43c-4.48-2.93-9.92-4.28-15.22-3.79s-10.41,2.83-14.3,6.53c-1.43,1.36-2.79,3.22-2.38,5.18
				c0.33,1.57,1.71,2.66,3.06,3.49c5.57,3.41,12.14,4.74,18.62,5.16c8.51,0.55,17.17-0.41,25.15-3.48
				c7.98-3.08,15.24-8.34,20.17-15.45c0.54-0.78,1.08-1.71,0.86-2.65c-0.35-1.43-2.15-1.81-3.59-1.76
				c-5.52,0.2-10.71,2.56-15.89,4.51C125.64,154.11,119.23,157.63,114.33,154.43z"/>
			<path class="st13" d="M64.93,121.95c4.4-6.38,19.44,0.65,24.08,1.68c38.1,8.49,55.22-20.17,65.9-10.79
				c12.59,11.06,1.44,52.22-39.19,57.91C73.48,176.66,57,133.46,64.93,121.95z"/>
			<path class="st13" d="M78.93,121.95c-0.57,5.69-1.8,7.51-0.93,7.83c2.27,0.83,8.4,2.79,8.93,2.25c0.29-0.3,0.37-0.56,0.44-0.97
				c0.37-2.2,0.73-4.57,1.1-6.77"/>
			<path class="st13" d="M88.46,129.71c0.37-0.17,5.96,1.05,8.29,1.42c0.73,0.12,0.49-2.11,0.85-5.05"/>
			<path class="st13" d="M119.43,124.17c-0.08-0.31,0.02-0.12-0.06-0.43c0.27,1.69,1.42,8.36,1.7,8.37c1.46,0.06,7.18-1.17,8.61-1.7
				c0.56-0.21-1.44-7.14-1.84-9.49"/>
			<path class="st13" d="M81.07,162.59c3.14-5.86,8.77-10.27,15.13-11.83s13.33-0.25,18.73,3.51c3.82-6.19,9.92-11.08,17.03-11.88
				c7.11-0.81,14.52,1.86,19.57,7.04"/>
			<path class="st13" d="M130.05,127.27c2.47-0.92,5.02-1.66,7.6-2.19c-0.81-2.65-1.62-5.3-2.43-7.96"/>
			<path class="st17" d="M87.29,90.63c-4.09-2.53-9.84-1.42-13.03,2.22c-3.18,3.65-3.7,9.34-1.56,13.71
				c2.14,4.37,6.66,7.31,11.41,7.83c2.8,0.31,5.82-0.23,7.97-2.1c1.64-1.42,2.63-3.5,3.1-5.65C96.61,100.01,92.13,93.63,87.29,90.63
				z"/>
			<path class="st18" d="M80.91,109.47c-2.73-0.1-5.46-0.2-8.19-0.29c-1.24-0.04-2.53-0.08-3.68,0.42c-1.14,0.5-2.09,1.71-1.89,2.97
				c0.14,0.88,0.81,1.6,1.59,2c0.78,0.4,1.66,0.54,2.53,0.64c3.78,0.47,7.61,0.54,11.39,0.06c0.85-0.11,1.72-0.25,2.45-0.71
				c0.73-0.46,1.29-1.31,1.17-2.17c-0.17-1.25-1.52-1.88-2.69-2.29C82.67,109.78,81.74,109.46,80.91,109.47z"/>
			<path class="st18" d="M144.74,105.87c-3.34-0.26-6.86-0.5-9.85,1.04c-0.79,0.41-1.55,0.96-1.98,1.75
				c-0.43,0.79-0.44,1.87,0.16,2.54c0.58,0.65,1.52,0.76,2.38,0.77c3.77,0.05,7.46-1.04,10.95-2.48c0.51-0.21,1.06-0.47,1.3-0.97
				c0.33-0.69-0.1-1.56-0.74-1.96C146.32,106.16,145.57,105.93,144.74,105.87z"/>
			<path class="st19" d="M85.61,99.75c-0.98-1.3-3.01-1.62-4.33-0.67c-1.32,0.95-1.72,3-0.86,4.39c0.86,1.39,2.84,1.9,4.25,1.09
				C86.07,103.75,86.97,101.55,85.61,99.75z"/>
			<path class="st19" d="M135.01,99.14c-0.9-1.09-2.75-1.04-3.69,0s-0.91,2.81-0.02,3.91c0.89,1.1,2.47,1.48,3.8,1.05
				c1.12-0.36,2.09-1.34,2.2-2.53C137.41,100.37,136.43,99.11,135.01,99.14z"/>
			<line class="st13" x1="131.6" y1="100.89" x2="135.51" y2="101.84"/>
			<path class="st3" d="M85.24,99.51c-0.03-0.12-0.17-0.2-0.29-0.18s-0.22,0.12-0.27,0.23c-0.05,0.12-0.04,0.25,0,0.37
				c0.03,0.1,0.09,0.2,0.17,0.27c0.08,0.07,0.2,0.1,0.3,0.08c0.17-0.04,0.28-0.23,0.27-0.41C85.41,99.69,85.31,99.53,85.24,99.51z"
				/>
			<path class="st3" d="M136.18,99.64c-0.06-0.26-0.38-0.4-0.63-0.29c-0.24,0.11-0.37,0.39-0.36,0.66c0.02,0.36,0.31,0.69,0.66,0.73
				c0.35,0.04,0.71-0.25,0.74-0.61C136.61,99.76,136.26,99.42,136.18,99.64z"/>
			<path class="st20" d="M70.79,81.52c2.54-2.6,3.72-3.23,6.33-5.06c1.61-1.12,2.29-11.64-1.94-12.5
				C70.66,63.05,57.91,73.79,61,78.56C61.69,79.63,70.03,80.84,70.79,81.52z"/>
			<path class="st20" d="M140.71,77.22c3.29,2.08,8.2,4.4,8.62,4.3c5.54-1.28,9.07-2.74,8.15-7.78c-0.58-3.16-10.04-8.89-13.28-7.77
				C139.73,67.51,139.9,72.44,140.71,77.22z"/>
			<path class="st19" d="M107.89,107.62c-0.67-1.46-1.92-2.56-2.66-3.97s-0.76-3.52,0.62-4.3c0.65-0.37,1.45-0.34,2.19-0.3
				c1.52,0.08,3.04,0.16,4.55,0.25c1.19,0.06,2.56,0.23,3.22,1.24c0.68,1.04,0.28,2.43-0.14,3.6c-0.59,1.64-1.25,3.38-2.63,4.39
				C111.65,109.54,108.84,109.69,107.89,107.62z"/>
			<path class="st13" d="M110.58,108.77c-0.04,2.47-0.08,4.94-0.12,7.41"/>
			<path class="st21" d="M93.23,83.39c0.88,0.89,1.76,1.78,2.64,2.68"/>
			<path class="st21" d="M101.42,80.08c0.53,1.36,1.05,2.71,1.58,4.07"/>
			<path class="st21" d="M111.96,79.15c0.04,1.42,0.08,2.83,0.12,4.25"/>
			<path class="st22" d="M123.74,81.29c-0.58,1.25-1.15,2.51-1.73,3.77"/>
			<path class="st23" d="M151.44,71.15c1,0.34,2.02,0.69,2.82,1.39c0.8,0.7,1.31,1.84,0.99,2.86c-0.21,0.65-0.71,1.15-1.21,1.61
				c-0.8,0.74-1.62,1.46-2.45,2.15c-0.27,0.22-0.55,0.45-0.89,0.56c-0.33,0.11-0.73,0.06-0.98-0.19c-0.24-0.25-0.27-0.65-0.18-0.99
				c0.09-0.34,0.28-0.64,0.43-0.95c0.82-1.64,0.77-3.71-0.13-5.31c-0.15-0.27-0.33-0.53-0.42-0.83c-0.09-0.3-0.07-0.65,0.13-0.88
				c0.37-0.41,1.05-0.19,1.47,0.17C151.45,71.12,151.82,71.61,151.44,71.15z"/>
			<path class="st23" d="M68.65,70.12c1.39-1.13,2.85-2.18,4.37-3.13c0.56-0.35,1.29-0.68,1.82-0.28c0.39,0.29,0.46,0.84,0.5,1.33
				c0.14,1.76,0.28,3.52,0.42,5.29c0.04,0.55,0.09,1.12-0.1,1.64s-0.65,0.98-1.18,0.96c-0.59-0.02-1.02-0.58-1.29-1.12
				s-0.48-1.15-0.97-1.5c-0.63-0.45-1.51-0.29-2.19,0.08c-0.68,0.37-1.25,0.92-1.94,1.28c-0.44,0.22-0.95,0.36-1.42,0.23
				c-0.73-0.21-1.17-1.06-1.08-1.83c0.08-0.77,0.59-1.44,1.21-1.88C67.42,70.74,68.17,70.51,68.65,70.12z"/>
			<path class="st23" d="M167.59,119.98c8.48,12.08,17.82,23.52,27.92,34.21c0.78,0.82,1.85,1.71,2.88,1.28
				c0.79-0.33,1.14-1.34,0.99-2.21c-0.15-0.86-0.66-1.61-1.17-2.31c-8.05-11.3-16.74-22.14-26.38-32.05
				c-0.56-0.58-1.15-1.16-1.89-1.46s-1.68-0.24-2.21,0.37C167.2,118.41,167.32,119.61,167.59,119.98z"/>
			<path class="st23" d="M166.82,150.87c-4.87,8.01-11.76,14.73-19.81,19.33c-4.21,2.4-8.72,4.22-13.02,6.46
				c-4.3,2.23-8.48,4.94-11.55,8.74c-1.01,1.25-1.9,3.09-0.95,4.38c0.69,0.94,2.01,1.07,3.15,0.97c4.68-0.41,8.84-3.13,12.7-5.88
				c7.11-5.06,13.98-10.47,20.59-16.21c4.42-3.84,8.77-7.88,12.06-12.77c0.7-1.04,1.37-2.17,1.54-3.42
				c0.17-1.26-0.29-2.68-1.38-3.29C169.05,148.57,167.73,149.37,166.82,150.87z"/>
			<path class="st23" d="M139.99,120.05c1.96-0.63,4.13-0.33,5.99,0.57c1.86,0.9,3.41,2.35,4.69,3.99c0.88,1.14,1.83,2.49,3.25,2.61
				c1.37,0.12,2.55-1.03,3.2-2.28c1.8-3.48,0.55-8.28-2.71-10.38c-2.08-1.34-4.7-1.59-7.12-1.15c-2.42,0.44-4.68,1.51-6.87,2.67
				c-0.73,0.38-1.46,0.79-1.98,1.44c-0.52,0.65-0.76,1.59-0.38,2.33C138.44,120.59,139.57,120.88,139.99,120.05z"/>
			<path class="st23" d="M123.66,150.43c3.71-3.53,8.53-5.82,13.56-6.43c0.57-0.07,1.16-0.11,1.7,0.09
				c0.54,0.21,0.99,0.74,0.95,1.32c-0.05,0.66-0.67,1.1-1.24,1.42c-3.93,2.26-8.16,3.98-12.53,5.1c-0.61,0.16-1.25,0.3-1.86,0.14
				C123.63,151.91,122.88,151.17,123.66,150.43z"/>
			<path class="st23" d="M135.55,81.82c7.05,1.84,13.68,5.37,19.2,10.22c1.02,0.9,2.03,1.88,2.6,3.13c0.57,1.25,0.63,2.84-0.2,3.93
				c-0.87,1.16-2.5,1.48-3.89,1.16c-1.39-0.32-2.61-1.15-3.79-1.97c-5.26-3.66-10.52-7.32-15.78-10.98
				c-0.81-0.56-1.64-1.15-2.2-1.97c-0.56-0.82-0.8-1.95-0.35-2.84C131.59,81.61,132.91,81.13,135.55,81.82z"/>
			<path class="st23" d="M129.91,62.71c-0.19,2.48-1.58,4.84-3.64,6.17C125.81,66.3,127.15,63.49,129.91,62.71z"/>
			<path class="st23" d="M121.3,59.19c0.06,2.21-0.4,4.43-1.34,6.41c-0.28,0.6-0.87,1.29-1.47,1.02c-0.41-0.18-0.53-0.71-0.57-1.16
				C117.71,62.99,118.6,60.44,121.3,59.19z"/>
			<path class="st23" d="M111.45,60.07c1.02-0.13,2.04-0.27,3.06-0.4c0.28,2.72-0.44,5.54-1.99,7.77c-0.32,0.46-0.74,0.93-1.29,0.93
				c-0.73,0-1.18-0.83-1.36-1.56c-0.45-1.77-0.34-3.69,0.31-5.4c0.34-0.9,0.9-1.8,1.79-2.12C112.84,58.96,114.05,59.52,111.45,60.07
				z"/>
			<path class="st23" d="M102.28,61.67c1.83,0.7,3.05,2.79,2.79,4.77c-0.11,0.83-0.61,1.74-1.43,1.77c-0.53,0.02-1-0.35-1.35-0.77
				C100.87,65.78,100.72,63.12,102.28,61.67z"/>
			<path class="st23" d="M91.43,60.91c2,1.12,3.54,3.07,4.19,5.31c0.36,1.22,0.27,2.87-0.88,3.36c-0.71,0.31-1.56-0.01-2.1-0.56
				c-0.54-0.56-0.84-1.32-1.08-2.06C91.07,65.41,90.73,63.81,91.43,60.91z"/>
			<path class="st23" d="M86.77,69.49c0.91,0.39,1.85,0.8,2.46,1.6c0.61,0.79,0.72,2.07-0.03,2.73c-0.84,0.74-2.25,0.21-2.83-0.75
				C85.78,72.1,85.78,70.89,86.77,69.49z"/>
			<path class="st23" d="M133.1,207.57c-1.84,4.08-2.11,8.87-0.74,13.14c2.03-4.39,2.24-9.62,0.56-14.16
				C132.22,207,131.74,207.79,133.1,207.57z"/>
			<path class="st23" d="M93.81,208.4c-1,6.54-0.8,13.27,0.61,19.73c1.24-4.73,1.6-9.7,1.06-14.57
				C95.32,212.14,94.9,210.49,93.81,208.4z"/>
			<path class="st23" d="M91.56,252.81c2.38,4.1,4.87,8.13,7.48,12.08c0.95,1.45,2.38,3.07,4.03,2.63c0.96-0.26,1.63-1.21,1.82-2.2
				c0.2-0.99-0.01-2.02-0.29-2.99c-1.23-4.21-3.97-7.75-6.66-11.17c-0.84-1.08-1.72-2.18-2.9-2.84s-2.77-0.76-3.8,0.13
				C90.2,249.33,90.54,251.06,91.56,252.81z"/>
			<path class="st23" d="M133.48,252.04c2.9,1.51,4.3,4.9,5.31,8.06c1,3.17,1.97,6.6,4.49,8.7c-0.11-6.49-2.86-12.89-7.46-17.36
				c-0.4-0.38-0.88-0.78-1.42-0.72C133.86,250.8,133.48,251.64,133.48,252.04z"/>
			<path class="st23" d="M51.37,126.77c-5.57,2.41-10.01,7.42-11.82,13.33c-0.24,0.78-0.35,1.81,0.33,2.24
				c0.54,0.34,1.24,0.07,1.8-0.23c3.6-1.92,6.78-4.67,9.23-7.99c0.56-0.76,1.09-1.58,1.28-2.51c0.19-0.93-0.05-2.01-0.79-2.58
				S49.39,128.66,51.37,126.77z"/>
			<path class="st23" d="M110.01,100.3c1.19,0.07,2.37,0.14,3.56,0.22c0.28,0.02,0.59,0.04,0.8,0.24c0.26,0.24,0.28,0.64,0.27,0.99
				c-0.04,1.42-0.28,2.84-0.72,4.19c-0.12,0.35-0.25,0.7-0.49,0.97c-0.24,0.27-0.62,0.44-0.97,0.34c-0.64-0.19-0.74-1.07-0.61-1.73
				c0.13-0.66,0.35-1.42-0.04-1.97c-0.28-0.4-0.8-0.53-1.27-0.63c-0.65-0.14-1.29-0.28-1.93-0.42c-0.51-0.11-1.12-0.31-1.27-0.83
				c-0.12-0.44,0.19-0.92,0.6-1.11c0.41-0.19,0.88-0.17,1.33-0.13C109.71,100.47,110.18,100.54,110.01,100.3z"/>
		</g>
	</g>
	<g id="Ebene_33">
		<g>
			<g>
				<path d="M30.68,88.2c0.87,0.54,1.75,1.07,2.62,1.61c1.32,0.81,3.22-2.52,1.88-3.34c-0.87-0.54-1.75-1.07-2.62-1.61
					C31.25,84.05,29.35,87.38,30.68,88.2L30.68,88.2z"/>
			</g>
		</g>
		<g>
			<g>
				<path d="M28.1,94.02c1.22,0.71,2.45,1.43,3.67,2.14c1.34,0.78,3.23-2.56,1.88-3.34c-1.22-0.71-2.45-1.43-3.67-2.14
					C28.64,89.9,26.76,93.24,28.1,94.02L28.1,94.02z"/>
			</g>
		</g>
		<g>
			<g>
				<path d="M26.76,100.73c0.87,0.18,1.75,0.36,2.62,0.54c0.82,0.17,1.62-0.99,1.84-1.65c0.22-0.66,0.32-1.7-0.55-1.88
					c-0.87-0.18-1.75-0.36-2.62-0.54c-0.82-0.17-1.62,0.99-1.84,1.65C25.99,99.52,25.89,100.55,26.76,100.73L26.76,100.73z"/>
			</g>
		</g>
		<g>
			<g>
				<path d="M151.19,207.24c0.47,0.65,0.93,1.29,1.4,1.94c0.51,0.71,1.47,0.05,1.86-0.46c0.45-0.59,0.99-1.74,0.47-2.46
					c-0.47-0.65-0.93-1.29-1.4-1.94c-0.51-0.71-1.47-0.05-1.86,0.46C151.22,205.38,150.67,206.52,151.19,207.24L151.19,207.24z"/>
			</g>
		</g>
		<g>
			<g>
				<path d="M155.91,203.39c0.63,0.65,1.25,1.29,1.88,1.94c0.6,0.61,1.42,0.13,1.86-0.46c0.3-0.39,0.56-0.85,0.63-1.34
					c0.05-0.33,0.1-0.85-0.15-1.11c-0.63-0.65-1.25-1.29-1.88-1.94c-0.6-0.61-1.42-0.13-1.86,0.46c-0.3,0.39-0.56,0.85-0.63,1.34
					C155.71,202.61,155.66,203.13,155.91,203.39L155.91,203.39z"/>
			</g>
		</g>
		<g>
			<g>
				<path d="M161.85,199.97c0.55,0.56,1.1,1.13,1.65,1.69c0.25,0.26,0.48,0.37,0.85,0.28c0.38-0.09,0.78-0.43,1.01-0.73
					c0.3-0.39,0.56-0.85,0.63-1.34c0.05-0.33,0.1-0.85-0.15-1.11c-0.55-0.56-1.1-1.13-1.65-1.69c-0.25-0.26-0.48-0.37-0.85-0.28
					c-0.38,0.09-0.78,0.43-1.01,0.73c-0.3,0.39-0.56,0.85-0.63,1.34C161.65,199.19,161.59,199.71,161.85,199.97L161.85,199.97z"/>
			</g>
		</g>
	</g>
</g>
</svg>
