<?xml version="1.0" encoding="utf-8"?>
<!-- Generator: Adobe Adobe Illustrator 24.2.0, SVG Export Plug-In . SVG Version: 6.00 Build 0)  -->
<svg version="1.1" xmlns="http://www.w3.org/2000/svg" xmlns:xlink="http://www.w3.org/1999/xlink" x="0px" y="0px"
	 viewBox="0 0 170.08 170.08" style="enable-background:new 0 0 170.08 170.08;" xml:space="preserve">
<style type="text/css">
	.st0{fill:#F0C2A1;}
	.st1{fill:#2E5A81;}
	.st2{fill:#2F5B82;}
	.st3{fill:#91625E;}
	.st4{fill:#91625D;}
	.st5{stroke:#000000;stroke-width:1.2501;stroke-miterlimit:10;}
	.st6{fill:none;stroke:#FFFFFF;stroke-width:1.0589;stroke-miterlimit:10;}
	.st7{opacity:0.0784;}
	.st8{opacity:0.1686;}
	.st9{fill:#FFFFFF;}
	.st10{fill:#ECC9AD;}
	.st11{opacity:0.1608;}
	.st12{fill:#F0F6FA;}
	.st13{opacity:0.149;}
	.st14{opacity:0.0314;}
	.st15{stroke:#000000;stroke-width:0.0638;stroke-miterlimit:10;}
	.st16{fill:#C8354F;}
	.st17{fill:#C93550;}
	.st18{fill:#6DB671;}
	.st19{fill:#6CB671;}
	.st20{fill:#D1DFEA;}
	.st21{fill:#D3E1ED;}
	.st22{fill:#C8354E;}
	.st23{fill:#F3C058;}
	.st24{fill:#C8AE9D;}
	.st25{opacity:0.1412;}
	.st26{fill:#D15238;}
	.st27{fill:#D15239;}
</style>
<g id="Ebene_4_5_">
</g>
<g id="Ebene_6_11_">
</g>
<g id="Ebene_7_5_">
	<g>
		<path class="st0" d="M24.93,56.21C17.71,55.69,11,62.95,12.12,70.09c1.12,7.14,9.73,12.01,16.45,9.31
			c3.68,15,15.55,27.72,30.28,32.47c-1.41,7.61-3.26,13.39-4.68,20.99c7.82,5.32,18.43,8.19,25.88-0.49
			c-0.9-7.19-2.84-11.96-3.73-19.15c14.66-5.43,28.26-19.75,31.61-34.98c6.93,2.69,15.83-0.1,16.2-10.26
			c0.27-7.41-7.41-14.09-14.64-12.37c2.48-23.76-13.33-44.29-42.41-43.17c-34.68,1.33-43,18.05-42.17,44.22"/>
		<g>
			<path class="st0" d="M24.93,55.15c-6.36-0.35-12.33,4.58-13.69,10.73c-1.36,6.12,2.44,11.87,8.02,14.23
				c3.04,1.28,6.49,1.51,9.59,0.32c-0.43-0.25-0.87-0.49-1.3-0.74c3,11.98,10.95,22.48,21.5,28.86c2.99,1.81,6.2,3.26,9.52,4.35
				c-0.25-0.43-0.49-0.87-0.74-1.3c-1.33,7.05-3.35,13.94-4.68,20.99c-0.09,0.49,0.07,0.92,0.49,1.2
				c4.84,3.26,10.78,5.78,16.73,5.07c2.98-0.36,5.71-1.54,8.05-3.41c1.16-0.93,2.83-2.07,2.61-3.68c-0.26-1.95-0.61-3.89-1.03-5.82
				c-0.92-4.23-2.07-8.41-2.62-12.72c-0.26,0.34-0.52,0.68-0.78,1.02c12.15-4.56,22.7-14.08,28.63-25.61
				c1.65-3.2,2.93-6.59,3.72-10.11c-0.43,0.25-0.87,0.49-1.3,0.74c5.24,1.97,11.68,1.04,15.14-3.68c4.17-5.68,2.64-13.85-2.68-18.18
				c-3.07-2.5-6.99-3.68-10.9-2.82c0.45,0.34,0.89,0.68,1.34,1.02c0.97-9.61-0.98-19.61-6.5-27.65
				c-5.58-8.12-14.25-13.44-23.82-15.5c-5.85-1.26-11.82-1.3-17.76-0.8c-5.19,0.44-10.39,1.28-15.34,2.95
				c-7.66,2.59-14.4,7.32-18.35,14.5c-4.57,8.32-5.21,18.25-4.93,27.55c0.04,1.36,2.16,1.37,2.12,0c-0.24-8.04,0.16-16.52,3.42-24
				c3.01-6.91,8.53-11.99,15.43-14.92c4.33-1.84,8.99-2.89,13.63-3.52c5.63-0.76,11.43-1.07,17.09-0.4
				c9.6,1.13,18.74,5.41,24.95,12.93c6.64,8.02,8.97,18.66,7.93,28.87c-0.07,0.72,0.73,1.15,1.34,1.02
				c5.97-1.31,12.08,3.42,13.16,9.27c0.94,5.13-1.86,10.54-7.01,11.88c-2.56,0.67-5.25,0.36-7.7-0.56c-0.52-0.2-1.19,0.22-1.3,0.74
				c-3.47,15.36-16.28,28.77-30.88,34.24c-0.39,0.15-0.84,0.54-0.78,1.02c0.83,6.47,2.9,12.69,3.73,19.15
				c0.1-0.25,0.21-0.5,0.31-0.75c-3.17,3.62-7.39,5.53-12.22,5.17c-4.48-0.33-8.71-2.38-12.38-4.85c0.16,0.4,0.32,0.8,0.49,1.2
				c1.33-7.05,3.35-13.94,4.68-20.99c0.11-0.58-0.16-1.11-0.74-1.3c-14.42-4.71-25.86-17.02-29.54-31.73
				c-0.13-0.52-0.78-0.94-1.3-0.74c-5.87,2.25-13.25-1.36-14.91-7.49c-1.87-6.91,4.65-14,11.56-13.62
				C26.29,57.34,26.29,55.22,24.93,55.15L24.93,55.15z"/>
		</g>
	</g>
</g>
<g id="Ebene_10_4_">
	<g>
		<path class="st1" d="M15.56,157.46c0.71-3.58,2.74-6.78,5.17-9.52c8.12-9.14,20.45-13.47,32.56-15.27
			c0.31,1.09,1.29,1.83,2.23,2.46c4.12,2.72,8.96,4.6,13.9,4.39s9.93-2.8,12.17-7.19c15.92,2.1,30.9,10.56,40.89,23.09
			c1.01,1.27,2.01,2.67,2.1,4.29c-4.06-0.38-8.1,0.63-12.08,1.51c-14.94,3.31-30.24,4.97-45.55,4.94
			c-5.36-0.01-10.72-0.23-16.08-0.45c-2.91-0.12-5.82-0.24-8.69-0.68c-3.01-0.47-5.95-1.29-8.88-2.15
			c-5.8-1.71-11.56-3.57-17.27-5.57"/>
		<g>
			<path class="st2" d="M16.58,157.74c1.63-7.7,8.65-13.55,15.23-17.19c6.7-3.71,14.22-5.72,21.76-6.86
				c-0.43-0.25-0.87-0.49-1.3-0.74c1.01,2.76,4.43,4.29,6.93,5.43c2.94,1.33,6.11,2.2,9.36,2.22c5.58,0.04,11.28-2.69,13.96-7.73
				c-0.4,0.16-0.8,0.32-1.2,0.49c13.21,1.78,25.71,7.83,35.27,17.13c1.32,1.28,2.58,2.62,3.78,4.02c1.27,1.48,2.96,3.18,3.17,5.21
				c0.35-0.35,0.71-0.71,1.06-1.06c-3.4-0.28-6.75,0.31-10.06,1.03c-3.47,0.76-6.94,1.52-10.44,2.15
				c-7.12,1.28-14.3,2.19-21.51,2.72c-7.14,0.52-14.31,0.65-21.47,0.47c-3.57-0.09-7.15-0.23-10.72-0.38
				c-3.62-0.15-7.21-0.38-10.76-1.17c-7.9-1.75-15.68-4.51-23.32-7.18c-1.29-0.45-1.84,1.59-0.56,2.04
				c6.91,2.42,13.9,4.76,20.98,6.61c6.86,1.8,13.92,1.86,20.97,2.09c14.44,0.48,28.83-0.21,43.1-2.51
				c4.02-0.65,8.02-1.41,11.99-2.29c3.9-0.86,7.78-1.8,11.8-1.47c0.53,0.04,1.11-0.52,1.06-1.06c-0.35-3.42-3.26-6.22-5.5-8.62
				c-2.39-2.56-5.01-4.91-7.79-7.04c-5.61-4.3-11.91-7.66-18.59-9.95c-3.86-1.32-7.84-2.25-11.89-2.79
				c-0.46-0.06-0.96,0.04-1.2,0.49c-2.26,4.25-6.97,6.59-11.69,6.68c-2.67,0.05-5.3-0.55-7.77-1.52c-1.34-0.53-2.63-1.19-3.87-1.93
				c-1.08-0.64-2.58-1.38-3.04-2.64c-0.22-0.59-0.69-0.83-1.3-0.74c-7.97,1.2-15.92,3.41-22.94,7.46
				c-6.77,3.9-13.83,10.1-15.52,18.07C14.26,158.51,16.3,159.08,16.58,157.74L16.58,157.74z"/>
		</g>
	</g>
</g>
<g id="Ebene_8_6_">
	<g>
		<path class="st3" d="M25.6,59.44c0.56,10.46,1.23,21.3,6.15,30.55c3.11,5.84,7.76,10.71,12.69,15.14c2.21,1.98,4.51,3.91,7.18,5.2
			c2.14,1.03,4.47,1.62,6.79,2.11c2.95,0.62,5.94,1.1,8.95,1.14c12.39,0.14,23.97-7.49,31.03-17.65s10.19-22.55,11.7-34.82
			c-2.13,7.02-5.43,13.69-9.72,19.64c-2.63,3.65-5.71,7.1-9.66,9.25c-3.95,2.15-8.91,2.84-12.98,0.92c-1.51-0.71-2.84-1.74-4.28-2.6
			c-2.49-1.48-5.42-2.42-8.3-2.05c-4.93,0.63-8.64,4.83-13.36,6.36c-1.21,0.39-2.51,0.6-3.77,0.37c-2.01-0.38-3.63-1.85-5.05-3.33
			c-7.96-8.24-13.68-18.61-16.4-29.72"/>
		<g>
			<path class="st4" d="M24.54,59.44c0.55,10.27,1.19,20.95,5.9,30.31c2.3,4.58,5.58,8.62,9.17,12.25c3.59,3.63,7.54,7.55,12.29,9.6
				c2.36,1.02,4.88,1.6,7.4,2.09c2.72,0.53,5.48,0.92,8.25,0.94c4.52,0.02,8.99-0.98,13.14-2.73c8.49-3.59,15.48-10.16,20.26-17.97
				c6.07-9.91,8.77-21.42,10.2-32.83c0.15-1.22-1.74-1.38-2.08-0.28c-2.37,7.71-6.1,15.17-11.18,21.46
				c-4.6,5.7-12.49,11.37-20.03,7.52c-1.87-0.96-3.5-2.32-5.41-3.21c-1.69-0.79-3.48-1.32-5.34-1.44c-3.61-0.23-6.76,1.5-9.73,3.35
				c-2.93,1.83-6.96,4.78-10.52,2.96c-1.69-0.86-3.01-2.39-4.27-3.77c-1.35-1.48-2.64-3.02-3.85-4.62
				c-5.24-6.97-9.03-14.95-11.13-23.41c-0.33-1.32-2.37-0.76-2.04,0.56c1.98,7.95,5.41,15.52,10.11,22.23
				c2.3,3.28,4.88,6.6,7.9,9.26c1.39,1.22,3,2.22,4.88,2.41c1.96,0.19,3.9-0.46,5.65-1.28c3.36-1.57,6.23-4.25,9.86-5.24
				c2.16-0.59,4.38-0.34,6.46,0.43c2.11,0.78,3.84,2.17,5.78,3.28c7.35,4.21,15.82,0.41,21.17-5.21
				c6.49-6.81,11.01-15.78,13.75-24.71c-0.69-0.09-1.39-0.19-2.08-0.28c-2.28,18.23-8.74,37.88-25.86,47.25
				c-3.82,2.09-8.05,3.55-12.39,4c-4.99,0.52-10.1-0.29-14.91-1.61c-5.06-1.39-8.85-4.59-12.6-8.12c-3.54-3.34-6.87-6.96-9.43-11.11
				c-5.91-9.59-6.6-21.11-7.19-32.07C26.58,58.08,24.46,58.07,24.54,59.44L24.54,59.44z"/>
		</g>
	</g>
</g>
<g id="Ebene_5_10_">
	<g>
		<g>
			<path d="M24,66.25c0.55,12.74,5.46,25.34,13.85,34.97c7.94,9.12,19.46,15.29,31.79,14.27c11.96-0.99,22.29-7.85,29.47-17.23
				c7.43-9.7,11.68-21.87,12.41-34.03c0.48-7.96-0.14-16.37-2.07-24.11c-2-8.05-5.95-15.74-12.48-21.04
				c-8.83-7.15-20.43-9.01-31.49-8.79c-10.4,0.21-21.66,1.93-30.01,8.65c-5.99,4.82-9.29,11.9-10.66,19.34
				c-1.36,7.36-1.13,14.87-0.97,22.32c0.04,1.69,0.07,3.37,0.07,5.06c0,1.36,2.12,1.36,2.12,0c-0.01-6.97-0.47-13.94,0.07-20.91
				c0.54-6.97,2.16-14.11,6.45-19.79c5.36-7.09,14.02-10.34,22.53-11.69c6.29-1,12.84-1.18,19.18-0.56
				c5.3,0.52,10.63,1.77,15.41,4.17c7.47,3.74,12.91,10.17,15.9,17.92c2.68,6.94,3.6,14.41,3.86,21.8
				c0.39,11.02-1.56,21.84-6.59,31.73c-5.12,10.06-13.32,19.07-24.13,23.01c-5.46,1.99-11.43,2.69-17.18,1.68
				c-5.64-0.99-10.89-3.49-15.44-6.94C36.36,98.7,29.9,87.25,27.31,75.42c-0.66-3.02-1.05-6.08-1.19-9.17
				C26.06,64.9,23.95,64.89,24,66.25L24,66.25z"/>
		</g>
	</g>
	<g>
		<g>
			<path d="M23.38,54.92c-4.87,0.12-9.69,1.58-11.72,6.42c-1.23,2.92-1.57,6.63-0.97,9.73c0.6,3.1,2.65,5.73,5.17,7.53
				c3,2.15,6.78,3.06,10.42,2.39c1.34-0.24,0.77-2.29-0.56-2.04c-5.3,0.97-11.46-2.53-12.85-7.85c-0.68-2.59-0.35-5.82,0.5-8.34
				c0.63-1.85,1.82-3.41,3.53-4.36c1.96-1.09,4.28-1.32,6.48-1.38C24.74,57.01,24.75,54.89,23.38,54.92L23.38,54.92z"/>
		</g>
	</g>
	<g>
		<g>
			<path d="M111.91,56.55c5.67-1.54,10.07,2.87,10.8,8.27c0.59,4.4-0.42,10.58-4.76,12.83c-2.74,1.42-6.08,0.98-8.94,0.26
				c-1.32-0.33-1.89,1.71-0.56,2.04c3.14,0.79,6.61,1.18,9.69-0.08c2.45-1,4.27-2.95,5.32-5.35c2.46-5.59,2.25-13.6-2.57-17.89
				c-2.64-2.34-6.15-3.06-9.53-2.14C110.04,54.87,110.6,56.91,111.91,56.55L111.91,56.55z"/>
		</g>
	</g>
	<g>
		<g>
			<path d="M23.75,54.41c2.24,5.94,4.05,11.99,6.67,17.8c1.81,4.02,3.85,7.97,6.41,11.57c2.18,3.05,4.81,6.08,8.23,7.77
				c1.57,0.78,3.38,1.33,5.15,1.23c2.52-0.14,4.86-1.37,7.06-2.49c2.72-1.39,5.47-2.95,8.52-3.48c2.78-0.49,5.5,0.21,7.95,1.51
				c3.76,2,7.02,5.27,11.59,4.12c3.54-0.9,6.75-2.86,9.52-5.2c9.62-8.1,14.42-20.91,16.53-32.96c0.23-1.33-1.81-1.91-2.04-0.56
				c-1.89,10.8-5.85,21.92-13.68,29.89c-2.55,2.6-5.57,4.91-9.01,6.2c-1.53,0.58-3.17,1.11-4.79,0.63
				c-1.99-0.58-3.71-1.96-5.45-3.03c-2.16-1.32-4.46-2.42-6.99-2.76c-2.77-0.37-5.47,0.24-8.03,1.29c-2.63,1.09-5.06,2.58-7.67,3.72
				c-1.88,0.82-3.77,1.27-5.79,0.74c-3.32-0.89-5.95-3.48-8.06-6.08c-2.62-3.24-4.67-6.96-6.48-10.7c-1.95-4.03-3.6-8.19-5.1-12.41
				c-0.87-2.44-1.6-4.94-2.51-7.36C25.31,52.59,23.27,53.14,23.75,54.41L23.75,54.41z"/>
		</g>
	</g>
	<g>
		<g>
			<path d="M59.14,94.52c2.98,5.61,11.98,6.51,15.93,1.48c0.36-0.45,0.43-1.05,0-1.5c-0.36-0.37-1.14-0.45-1.5,0
				c-3.12,3.97-10.21,3.46-12.61-1.05C60.33,92.25,58.5,93.32,59.14,94.52L59.14,94.52z"/>
		</g>
	</g>
	<g>
		<g>
			<path d="M66.37,66.87c0.26-0.07,0.53-0.13,0.8-0.17c-0.23,0.04,0.1-0.01,0.17-0.01c0.15-0.01,0.3-0.02,0.45-0.02
				c0.12,0,0.24,0,0.36,0.01c0.08,0,0.15,0.01,0.23,0.02c0.03,0,0.22,0.03,0.08,0.01c-0.17-0.02,0.13,0.02,0.13,0.02
				c0.06,0.01,0.12,0.02,0.18,0.04c0.15,0.03,0.29,0.07,0.43,0.11c0.11,0.03,0.23,0.08,0.34,0.12c0.19,0.06,0.03,0.01-0.01-0.01
				c0.07,0.03,0.13,0.06,0.2,0.09c0.24,0.12,0.46,0.26,0.68,0.41c0.14,0.1-0.18-0.16,0.03,0.02c0.04,0.04,0.09,0.08,0.13,0.12
				c0.09,0.08,0.17,0.16,0.25,0.25c0.04,0.04,0.08,0.09,0.12,0.13c0,0,0.18,0.22,0.09,0.1c-0.08-0.1,0.03,0.05,0.05,0.08
				c0.05,0.08,0.1,0.15,0.15,0.23c0.07,0.12,0.13,0.24,0.2,0.37c0.02,0.04,0.07,0.19,0.01,0.01c0.02,0.06,0.05,0.12,0.07,0.18
				c0.04,0.12,0.08,0.25,0.11,0.38c0.02,0.08,0.04,0.17,0.05,0.25c0.01,0.06,0.04,0.23,0.02,0.08c0.04,0.3,0.04,0.6,0.03,0.9
				c0.01-0.24-0.01,0-0.03,0.1c-0.01,0.05-0.04,0.1-0.05,0.15c-0.05,0.23,0.1-0.16-0.01,0.04c-0.05,0.1-0.1,0.19-0.16,0.28
				c-0.04,0.06-0.08,0.11-0.12,0.17c-0.09,0.12,0.12-0.13,0.01-0.02c-0.09,0.09-0.17,0.19-0.27,0.28c-0.04,0.04-0.09,0.08-0.13,0.12
				c-0.2,0.19,0.16-0.1-0.07,0.05c-0.23,0.15-0.45,0.28-0.69,0.39c-0.15,0.07,0.14-0.05-0.02,0.01c-0.06,0.02-0.12,0.05-0.19,0.07
				c-0.16,0.05-0.32,0.1-0.49,0.14c-0.08,0.02-0.17,0.03-0.25,0.05c-0.19,0.04,0.03,0-0.09,0.01c-0.18,0.01-0.36,0.03-0.54,0.02
				c-0.19,0-0.38-0.01-0.56-0.03c-0.21-0.02,0.24,0.06-0.12-0.02c-0.1-0.02-0.2-0.04-0.29-0.06c-0.87-0.21-1.6-0.61-2.33-1.15
				c-0.46-0.34-1.18-0.07-1.45,0.38c-0.32,0.54-0.08,1.1,0.38,1.45c1.54,1.16,3.44,1.75,5.36,1.48c1.45-0.21,2.82-0.97,3.64-2.2
				c0.87-1.3,0.69-3.03,0.09-4.41c-0.54-1.24-1.58-2.23-2.82-2.76c-1.48-0.64-3.15-0.74-4.71-0.3C64.5,65.2,65.05,67.25,66.37,66.87
				L66.37,66.87z"/>
		</g>
	</g>
	<g>
		<g>
			<path d="M45.77,50.53c0.93-1.72,2.83-2.57,4.77-2.83c0.85-0.12,1.97-0.1,2.78,0.05c0.44,0.08,0.88,0.2,1.3,0.36
				c0.05,0.02,0.01,0,0.15,0.07c0.1,0.05,0.19,0.09,0.28,0.14c0.09,0.05,0.18,0.1,0.27,0.16c0.03,0.02,0.31,0.22,0.15,0.09
				c0.45,0.35,1.06,0.44,1.5,0c0.37-0.37,0.45-1.14,0-1.5c-1.92-1.5-4.51-1.78-6.86-1.44c-2.46,0.35-4.94,1.56-6.16,3.82
				C43.3,50.66,45.12,51.73,45.77,50.53L45.77,50.53z"/>
		</g>
	</g>
	<g>
		<g>
			<path d="M78.89,49.03c2.93-2.29,8.11-1.63,10.22,1.5c0.76,1.12,2.59,0.07,1.83-1.07c-2.94-4.36-9.5-5.08-13.55-1.93
				c-0.45,0.35-0.37,1.13,0,1.5C77.84,49.47,78.44,49.38,78.89,49.03L78.89,49.03z"/>
		</g>
	</g>
	<ellipse class="st5" cx="54.89" cy="57.44" rx="1.33" ry="3.97"/>
	<ellipse class="st5" cx="79.47" cy="57.44" rx="1.33" ry="3.97"/>
	<g>
		<g>
			<path d="M53.26,133.4c5.95,8.92,22.04,9.53,27.65-0.11c0.69-1.18-1.14-2.25-1.83-1.07c-4.77,8.2-18.91,7.73-23.99,0.11
				C54.33,131.2,52.5,132.26,53.26,133.4L53.26,133.4z"/>
		</g>
	</g>
	<g>
		<g>
			<path d="M54.17,131.8c-13.31-0.43-26.53,5.71-35.07,15.88c-2.42,2.89-4.46,6.06-6.03,9.49c-0.56,1.23,1.26,2.31,1.83,1.07
				c5.31-11.59,16.1-20.18,28.44-23.2c3.55-0.87,7.18-1.24,10.84-1.12C55.54,133.97,55.53,131.85,54.17,131.8L54.17,131.8z"/>
		</g>
	</g>
	<g>
		<g>
			<path d="M80.05,133.43c13.79,0.19,27.52,7.44,37.07,17.11c2.68,2.72,5.06,5.72,6.99,9.02c0.69,1.18,2.52,0.11,1.83-1.07
				c-7.25-12.4-20.56-21.58-34.25-25.43c-3.78-1.06-7.7-1.7-11.63-1.75C78.69,131.3,78.69,133.41,80.05,133.43L80.05,133.43z"/>
		</g>
	</g>
	<g>
		<g>
			<path d="M14.37,159.53c27.9,9.17,58.08,11.04,87.03,6.42c8.08-1.29,16.07-3.11,23.9-5.45c1.3-0.39,0.75-2.43-0.56-2.04
				c-27.74,8.28-57.55,10.07-86.06,5c-8.05-1.43-15.98-3.42-23.75-5.97C13.63,157.06,13.08,159.11,14.37,159.53L14.37,159.53z"/>
		</g>
	</g>
	<g>
		<g>
			<path d="M56.24,114.07c-1.03,6.08-2.05,12.15-3.08,18.23c-0.23,1.33,1.82,1.91,2.04,0.56c1.03-6.08,2.05-12.15,3.08-18.23
				C58.5,113.3,56.46,112.72,56.24,114.07L56.24,114.07z"/>
		</g>
	</g>
	<g>
		<g>
			<path d="M76.73,114.14c0.75,6.08,1.51,12.15,2.26,18.23c0.17,1.33,2.29,1.35,2.12,0c-0.75-6.08-1.51-12.15-2.26-18.23
				C78.69,112.81,76.57,112.79,76.73,114.14L76.73,114.14z"/>
		</g>
	</g>
</g>
<g id="Ebene_11_1_">
	<g>
		<g>
			<path d="M114.48,61.03c0.03,0,0.33,0.04,0.08,0.01c0.09,0.01,0.18,0.03,0.27,0.05c0.17,0.03,0.33,0.07,0.49,0.11
				c0.16,0.04,0.32,0.09,0.48,0.15c0.09,0.03,0.17,0.06,0.26,0.09c0.03,0.01,0.3,0.13,0.09,0.03c0.3,0.15,0.61,0.29,0.89,0.47
				c0.16,0.1,0.31,0.2,0.46,0.31c0.02,0.01,0.22,0.17,0.11,0.08c-0.1-0.07,0.12,0.1,0.14,0.12c0.26,0.22,0.5,0.45,0.73,0.7
				c0.11,0.12,0.22,0.25,0.33,0.38c-0.14-0.17,0.03,0.04,0.06,0.08c0.05,0.07,0.11,0.15,0.16,0.23c0.19,0.28,0.35,0.57,0.5,0.88
				c0.04,0.08,0.08,0.17,0.11,0.25c-0.09-0.22,0.02,0.06,0.03,0.09c0.06,0.17,0.12,0.35,0.17,0.52c0.15,0.53,0.75,0.92,1.3,0.74
				c0.54-0.18,0.9-0.73,0.74-1.3c-0.95-3.34-3.98-5.76-7.41-6.1c-0.55-0.05-1.08,0.53-1.06,1.06
				C113.45,60.59,113.89,60.97,114.48,61.03L114.48,61.03z"/>
		</g>
	</g>
	<g>
		<g>
			<path d="M21.52,59.65c-1.79-0.28-3.59,0.18-4.95,1.4c-1.25,1.11-1.95,2.84-1.87,4.51c0.03,0.55,0.47,1.09,1.06,1.06
				c0.55-0.02,1.09-0.47,1.06-1.06c-0.01-0.17-0.01-0.34,0-0.51c0-0.07,0.01-0.14,0.02-0.21c0.01-0.08,0.01-0.06-0.01,0.07
				c0.01-0.04,0.01-0.08,0.02-0.13c0.06-0.31,0.15-0.61,0.26-0.91c0.04-0.12-0.08,0.16,0.01-0.02c0.04-0.08,0.07-0.15,0.12-0.23
				c0.08-0.15,0.17-0.3,0.27-0.44c0.02-0.02,0.16-0.22,0.07-0.1c-0.09,0.12,0.06-0.07,0.08-0.09c0.11-0.13,0.23-0.25,0.36-0.37
				c0.05-0.05,0.11-0.1,0.16-0.14c0.03-0.03,0.07-0.06,0.1-0.08c-0.09,0.07-0.1,0.08-0.04,0.03c0.14-0.08,0.27-0.18,0.41-0.26
				c0.08-0.04,0.15-0.08,0.23-0.12c0.02-0.01,0.25-0.12,0.11-0.06c-0.13,0.06,0.13-0.05,0.16-0.06c0.07-0.02,0.14-0.05,0.21-0.07
				c0.17-0.05,0.34-0.09,0.51-0.13c0.03-0.01,0.27-0.04,0.12-0.02c-0.15,0.02,0.09-0.01,0.12-0.01c0.18-0.01,0.35-0.02,0.53-0.01
				c0.09,0,0.18,0.01,0.26,0.02c0.23,0.01-0.18-0.03,0.07,0.01c0.54,0.09,1.17-0.14,1.3-0.74C22.38,60.44,22.11,59.74,21.52,59.65
				L21.52,59.65z"/>
		</g>
	</g>
</g>
<g id="Ebene_12_1_">
	<circle class="st6" cx="55.22" cy="55.13" r="0.33"/>
	<circle class="st6" cx="79.47" cy="55.13" r="0.33"/>
</g>
<g id="Ebene_13_1_">
	<g class="st7">
		<path d="M33.94,22.96c-6.41,23.07-1.09,48.55,11.89,68.69c2.08,3.23,4.37,6.37,7.16,9.01c6.56,6.22,15.4,9.34,23.95,12.29
			c-5.2,0.18-10.41,0-15.59-0.54c-3.34-0.35-6.72-0.87-9.74-2.31c-2.51-1.2-4.68-3-6.79-4.8c-5.37-4.59-10.69-9.5-13.94-15.77
			c-3.7-7.12-4.41-15.37-4.9-23.37c-0.46-7.34-0.79-14.73,0.15-22.02s3.23-14.54,7.6-20.46"/>
		<g>
			<path d="M32.92,22.68c-3.85,14.02-3.5,28.93,0.23,42.94c1.88,7.03,4.6,13.85,8.05,20.26c3.51,6.52,7.67,13.09,13.57,17.69
				c6.44,5.03,14.26,7.76,21.9,10.4c0.09-0.69,0.19-1.39,0.28-2.08c-4.23,0.14-8.46,0.05-12.67-0.28
				c-3.93-0.31-8.08-0.63-11.73-2.25c-3.49-1.55-6.39-4.27-9.22-6.77c-2.75-2.44-5.42-4.99-7.74-7.86
				c-4.94-6.11-7.08-13.43-7.94-21.13c-0.9-8.1-1.39-16.45-0.91-24.59c0.52-8.78,2.67-17.6,7.91-24.79c0.8-1.1-1.03-2.16-1.83-1.07
				c-10.04,13.79-8.97,32.37-7.49,48.49c0.72,7.85,2.35,15.65,6.95,22.2c2.2,3.14,4.85,5.94,7.66,8.54
				c2.84,2.63,5.78,5.36,9.05,7.45c3.81,2.44,8.19,3.21,12.62,3.66c5.1,0.52,10.22,0.69,15.35,0.52c1.22-0.04,1.41-1.69,0.28-2.08
				c-6.61-2.28-13.33-4.62-19.17-8.57c-6.11-4.13-10.31-10.22-13.92-16.54C37.17,74.59,32.93,60.7,32.35,46.61
				c-0.32-7.88,0.52-15.76,2.61-23.37C35.32,21.92,33.28,21.36,32.92,22.68L32.92,22.68z"/>
		</g>
	</g>
	<g class="st7">
		<path d="M57.09,124.55c7.66-2.02,15.66-4.22,21.41-9.64c-6.43,0.52-13.03,1.02-19.24-0.75c-0.2-0.06-0.41-0.12-0.61-0.05
			c-0.37,0.12-0.49,0.57-0.54,0.96c-0.41,2.79-0.83,5.58-1.24,8.37"/>
		<g>
			<path d="M57.37,125.57c7.77-2.05,15.85-4.31,21.88-9.91c0.64-0.6,0.17-1.88-0.75-1.81c-5.37,0.43-10.88,0.9-16.22-0.08
				c-1.8-0.33-4.57-1.74-5.18,0.89c-0.63,2.76-0.85,5.69-1.26,8.49c-0.2,1.33,1.84,1.91,2.04,0.56c0.36-2.44,0.72-4.88,1.08-7.32
				c0.04-0.27,0.37-1.36,0.01-1.21c0.32-0.13,1.4,0.36,1.76,0.44c1.14,0.25,2.29,0.42,3.44,0.56c4.76,0.55,9.56,0.17,14.32-0.21
				c-0.25-0.6-0.5-1.21-0.75-1.81c-5.75,5.34-13.55,7.42-20.94,9.37C55.49,123.88,56.05,125.92,57.37,125.57L57.37,125.57z"/>
		</g>
	</g>
	<g class="st7">
		<path d="M31.05,141.25c4.84,4.85,11.41,7.5,17.78,10.03c10.05,3.99,20.16,7.99,30.73,10.29c14.48,3.14,29.68,2.98,44.09-0.48
			c-17.2,3.47-34.69,5.38-52.21,6.18c-3.9,0.18-7.81,0.3-11.71,0.06c-5.32-0.33-10.57-1.34-15.77-2.5
			c-9.61-2.15-19.1-4.83-28.41-8.04c3.28-6.02,7.84-11.34,13.29-15.52"/>
		<g>
			<path d="M30.3,142c4.16,4.1,9.39,6.67,14.73,8.89c6.01,2.5,12.1,4.87,18.24,7.04c12.54,4.42,25.48,7.14,38.83,6.93
				c7.35-0.12,14.68-1.05,21.82-2.75c1.33-0.32,0.76-2.31-0.56-2.04c-14.01,2.82-28.2,4.61-42.44,5.59
				c-7.03,0.49-14.16,1.04-21.2,0.6c-7.15-0.44-14.21-2.08-21.15-3.79c-7.68-1.89-15.27-4.14-22.76-6.71
				c0.21,0.52,0.42,1.04,0.63,1.56c3.28-5.96,7.74-11.14,13.12-15.3c1.08-0.83-0.43-2.32-1.5-1.5c-5.51,4.26-10.09,9.63-13.45,15.73
				c-0.35,0.63-0.02,1.33,0.63,1.56c6.87,2.36,13.83,4.45,20.88,6.24c6.8,1.73,13.7,3.36,20.69,4.09c7.19,0.76,14.47,0.25,21.66-0.2
				c7.22-0.46,14.42-1.11,21.59-1.99c7.99-0.98,15.95-2.25,23.85-3.84c-0.19-0.68-0.38-1.36-0.56-2.04
				c-12.55,2.98-25.68,3.51-38.41,1.45c-12.57-2.04-24.46-6.73-36.23-11.41c-6.04-2.4-12.22-4.97-16.92-9.61
				C30.83,139.55,29.33,141.04,30.3,142L30.3,142z"/>
		</g>
	</g>
	<g class="st7">
		<path d="M15.86,59.62c-0.58,7.86,3.69,15.87,10.55,19.78c-1.31,0.7-2.91,0.35-4.35-0.04c-2.48-0.68-5.13-1.56-6.61-3.66
			c-0.9-1.28-1.25-2.85-1.58-4.38c-0.45-2.11-0.91-4.24-0.91-6.4c0-2.16,0.5-4.38,1.78-6.12"/>
		<g>
			<path d="M14.8,59.62c-0.54,8.29,3.9,16.53,11.07,20.7c0-0.61,0-1.22,0-1.83c-1.12,0.52-2.41,0.16-3.53-0.15
				c-0.96-0.26-1.92-0.54-2.84-0.93c-2.07-0.87-3.48-2.23-4.13-4.41c-0.66-2.22-1.15-4.63-1.31-6.94c-0.16-2.38,0.2-4.74,1.6-6.72
				c0.79-1.12-1.05-2.17-1.83-1.07c-1.63,2.31-2.09,5.2-1.87,7.98c0.12,1.55,0.41,3.09,0.73,4.61c0.28,1.34,0.55,2.7,1.09,3.96
				c1,2.36,2.98,3.78,5.31,4.7c2.41,0.95,5.37,1.95,7.85,0.79c0.74-0.35,0.64-1.46,0-1.83c-6.57-3.82-10.52-11.3-10.02-18.87
				C17.01,58.25,14.89,58.26,14.8,59.62L14.8,59.62z"/>
		</g>
	</g>
	<g class="st7">
		<path d="M111.8,56.49c1.05,6.93,3.17,13.7,6.27,19.98c0.16,0.33,0.31,0.75,0.07,1.02c-0.11,0.12-0.27,0.17-0.43,0.21
			c-2.4,0.62-5.07-0.31-7.36,0.62c-0.41-0.42-0.37-1.08-0.31-1.66c0.7-6.35,0.97-12.75,0.81-19.14"/>
		<g>
			<path d="M110.78,56.77c0.75,4.91,2.02,9.72,3.81,14.35c0.41,1.07,0.85,2.14,1.32,3.19c0.24,0.54,0.49,1.09,0.74,1.62
				c0.07,0.14,0.28,0.79,0.43,0.89c0.08,0.3,0.2,0.25,0.36-0.14c-0.12,0.03-0.24,0.05-0.36,0.08c-2.27,0.09-4.83-0.25-7,0.54
				c0.4,0.16,0.8,0.32,1.2,0.49c-0.4-0.53-0.14-1.36-0.08-1.98c0.09-0.85,0.17-1.7,0.24-2.55c0.15-1.77,0.27-3.54,0.36-5.31
				c0.17-3.48,0.2-6.96,0.12-10.44c-0.03-1.36-2.15-1.37-2.12,0c0.09,3.76,0.04,7.53-0.17,11.29c-0.1,1.84-0.24,3.69-0.41,5.52
				c-0.13,1.39-0.71,3.3,0.22,4.53c0.27,0.35,0.73,0.66,1.2,0.49c2.44-0.89,5.2,0.28,7.6-0.7c1.07-0.44,1.27-1.45,0.87-2.45
				c-0.5-1.27-1.18-2.48-1.71-3.74c-2.2-5.2-3.71-10.67-4.57-16.25C112.61,54.87,110.57,55.44,110.78,56.77L110.78,56.77z"/>
		</g>
	</g>
	<g class="st7">
		<path d="M66.53,71.2c1.67-0.98,3.21-2.18,4.57-3.57c0.65,1.56,1.19,3.62-0.09,4.73c-1.23,1.06-3.12,0.35-4.53-0.44"/>
		<g>
			<path d="M67.07,72.11c1.75-1.02,3.36-2.29,4.78-3.73c-0.59-0.16-1.18-0.31-1.77-0.47c0.23,0.56,0.43,1.14,0.56,1.73
				c0.03,0.15,0.05,0.29,0.08,0.44c0,0.01-0.02-0.23-0.02-0.11c0,0.04,0.01,0.09,0.01,0.13c0.01,0.08,0.01,0.15,0.01,0.23
				c0,0.14,0,0.28-0.01,0.42c0,0.03-0.01,0.06-0.01,0.09c0,0,0.05-0.23,0.02-0.13c-0.02,0.08-0.03,0.16-0.05,0.24
				c-0.02,0.06-0.03,0.12-0.05,0.18c-0.07,0.22,0.09-0.15,0,0c-0.03,0.05-0.05,0.11-0.09,0.16c-0.02,0.04-0.16,0.23-0.05,0.1
				c0.12-0.14-0.05,0.05-0.08,0.08c-0.05,0.05-0.09,0.09-0.14,0.13c-0.14,0.13,0.16-0.1-0.01,0c-0.08,0.05-0.15,0.09-0.23,0.13
				c-0.17,0.09,0.19-0.06,0.01,0c-0.07,0.02-0.15,0.05-0.22,0.06c-0.04,0.01-0.26,0.04-0.09,0.02c0.18-0.02-0.12,0.01-0.16,0.01
				c-0.14,0-0.27,0-0.41-0.01c-0.27-0.02,0.16,0.03-0.03,0c-0.08-0.02-0.16-0.03-0.24-0.05c-0.18-0.04-0.35-0.09-0.53-0.15
				c-0.09-0.03-0.19-0.06-0.28-0.1c-0.04-0.02-0.29-0.12-0.15-0.06c0.13,0.06,0.01,0.01-0.01-0.01c-0.06-0.03-0.11-0.05-0.17-0.08
				c-0.08-0.04-0.16-0.07-0.23-0.11c-0.17-0.09-0.34-0.18-0.51-0.27c-0.48-0.27-1.18-0.13-1.45,0.38c-0.26,0.5-0.14,1.16,0.38,1.45
				c0.7,0.39,1.44,0.73,2.21,0.93c0.79,0.21,1.7,0.29,2.48,0c0.8-0.3,1.5-0.86,1.86-1.65c0.37-0.81,0.4-1.66,0.28-2.54
				c-0.11-0.77-0.35-1.51-0.65-2.23c-0.15-0.35-0.35-0.63-0.74-0.74c-0.36-0.1-0.77,0-1.03,0.27c-0.67,0.68-1.38,1.32-2.13,1.91
				c-0.09,0.07-0.05,0.05,0.01-0.01c-0.04,0.04-0.09,0.07-0.13,0.1c-0.09,0.07-0.18,0.13-0.27,0.2c-0.19,0.14-0.39,0.28-0.59,0.41
				c-0.41,0.28-0.82,0.54-1.25,0.79c-0.48,0.28-0.69,0.97-0.38,1.45C65.93,72.21,66.56,72.41,67.07,72.11L67.07,72.11z"/>
		</g>
	</g>
</g>
<g id="Ebene_14_1_">
	<g class="st8">
		<g>
			<path class="st9" d="M77.51,20.07c7.36,0.04,13.53,5.18,17.63,10.89c4.42,6.16,7.04,13.51,7.49,21.08c0.08,1.35,2.2,1.36,2.12,0
				c-0.5-8.21-3.34-16.23-8.28-22.82c-4.52-6.03-11.1-11.22-18.96-11.26C76.15,17.94,76.15,20.06,77.51,20.07L77.51,20.07z"/>
		</g>
	</g>
	<g class="st8">
		<g>
			<path class="st9" d="M116.6,59.86c0.25,0.28,0.48,0.57,0.71,0.86c-0.06-0.07-0.11-0.14-0.17-0.21c0.54,0.71,1.03,1.45,1.47,2.23
				c0.27,0.48,0.98,0.68,1.45,0.38c0.49-0.32,0.67-0.93,0.38-1.45c-0.66-1.18-1.45-2.29-2.34-3.31c-0.37-0.42-1.13-0.4-1.5,0
				C116.19,58.8,116.21,59.41,116.6,59.86L116.6,59.86z"/>
		</g>
	</g>
	<g class="st8">
		<g>
			<path class="st9" d="M102.89,78.67c-2.6,9.19-8.88,17.07-17.22,21.7c-1.19,0.66-0.13,2.49,1.07,1.83
				c8.81-4.89,15.45-13.27,18.19-22.96C105.3,77.92,103.26,77.36,102.89,78.67L102.89,78.67z"/>
		</g>
	</g>
	<g class="st8">
		<g>
			<path class="st9" d="M83.77,140.27c12.41-0.42,22.24,8.22,30.85,16.04c1.01,0.91,2.51-0.58,1.5-1.5
				c-9.04-8.2-19.35-17.1-32.35-16.66C82.41,138.2,82.4,140.32,83.77,140.27L83.77,140.27z"/>
		</g>
	</g>
	<g>
		<g>
			<path class="st9" d="M158.53,143.36c1.29,0,1.29-2,0-2C157.24,141.36,157.24,143.36,158.53,143.36L158.53,143.36z"/>
		</g>
	</g>
</g>
<g id="Ebene_9_6_">
</g>
<g id="Ebene_3">
	<g>
		<path class="st12" d="M128.91,60.65c4.02,2.63,16.22,10.7,18.36,10c3.47-1.14,22.44-25,21.41-27.89
			c-2.17-6.06-51.39-40.28-58.41-39.03c-6.33,1.13-15.59,28.64-14.92,31.06c1.01,3.65,10.06,7.69,13.2,11.32
			c1.4,1.62,4.41,14.05,6.39,15.15c1.13,0.63,9.98,0.58,13.84-0.68"/>
		<g>
			<path class="st12" d="M128.76,60.9c3.94,2.59,7.9,5.18,12.02,7.48c0.99,0.55,1.99,1.09,3.02,1.57c0.76,0.36,1.54,0.71,2.35,0.92
				c0.49,0.13,1,0.2,1.43,0.02c0.33-0.14,0.63-0.36,0.91-0.57c0.92-0.69,1.73-1.51,2.53-2.32c1.14-1.16,2.23-2.37,3.3-3.59
				c2.57-2.95,5.03-5.99,7.37-9.11c2.07-2.74,4.1-5.53,5.83-8.5c0.53-0.92,1.07-1.87,1.39-2.89c0.09-0.29,0.18-0.61,0.15-0.94
				c-0.03-0.28-0.17-0.56-0.33-0.82c-0.44-0.74-1.07-1.42-1.68-2.07c-0.91-0.95-1.88-1.85-2.87-2.72c-2.76-2.45-5.68-4.74-8.62-6.98
				c-3.61-2.75-7.29-5.41-11.01-8c-3.87-2.69-7.79-5.31-11.77-7.84c-3.55-2.26-7.15-4.46-10.84-6.49c-2.67-1.48-5.43-2.95-8.29-3.97
				c-0.87-0.31-1.8-0.61-2.7-0.67c-0.94-0.07-1.71,0.29-2.39,0.77c-1.08,0.78-1.92,1.84-2.68,2.89c-1.01,1.4-1.88,2.91-2.69,4.44
				c-1.87,3.53-3.43,7.24-4.82,11.01c-1.14,3.07-2.22,6.2-2.98,9.43c-0.19,0.82-0.43,1.69-0.4,2.57c0.02,0.56,0.35,1.16,0.7,1.65
				c0.64,0.91,1.51,1.69,2.39,2.41c2.2,1.78,4.63,3.26,6.93,4.91c1.02,0.73,2.03,1.5,2.9,2.39c0.3,0.3,0.41,0.41,0.6,0.73
				c0.15,0.25,0.25,0.49,0.37,0.75c0.78,1.8,1.35,3.66,1.96,5.5c0.68,2.02,1.34,4.06,2.22,6.04c0.3,0.67,0.61,1.38,1.07,1.99
				c0.35,0.47,0.71,0.74,1.28,0.86c0.86,0.18,1.74,0.21,2.59,0.23c1.27,0.04,2.54,0.01,3.8-0.05c2.43-0.12,4.93-0.32,7.16-1.03
				c0.38-0.12,0.02-0.69-0.36-0.57c-1.07,0.35-2.23,0.53-3.38,0.68c-1.3,0.17-2.63,0.27-3.96,0.32c-1.2,0.05-2.42,0.06-3.64,0.01
				c-0.75-0.03-1.65-0.04-2.35-0.25c-0.04-0.01-0.09-0.03-0.13-0.04c-0.12-0.04,0.02,0.02-0.06-0.03c-0.04-0.02-0.07-0.04-0.1-0.07
				c0.08,0.06-0.07-0.06-0.09-0.09c-0.18-0.18-0.31-0.38-0.46-0.62c-0.42-0.69-0.74-1.43-1.04-2.17c-0.83-2.03-1.5-4.09-2.19-6.14
				c-0.57-1.7-1.09-3.44-1.88-5.1c-0.3-0.64-0.72-1.13-1.26-1.64c-0.91-0.86-1.93-1.62-2.96-2.36c-2.27-1.62-4.68-3.07-6.82-4.85
				c-0.83-0.69-1.66-1.45-2.22-2.35c-0.11-0.17-0.2-0.35-0.28-0.53c-0.04-0.1-0.07-0.2-0.11-0.3c-0.01-0.02-0.03-0.17-0.01-0.04
				c-0.02-0.11-0.02-0.23-0.02-0.34c0.01-0.32,0.06-0.67,0.13-1.06c0.1-0.53,0.21-1.05,0.34-1.57c0.35-1.44,0.78-2.86,1.23-4.26
				c1.17-3.67,2.53-7.27,4.08-10.78c1.46-3.3,3.04-6.61,5.18-9.52c0.73-0.99,1.53-1.97,2.58-2.68c0.32-0.21,0.78-0.44,1.15-0.51
				c0.06-0.01,0.13-0.02,0.2-0.03c0.03,0,0.06,0,0.09-0.01c0.11-0.01-0.04,0,0.07,0c0.16,0,0.33,0.01,0.49,0.03
				c0.45,0.05,0.7,0.12,1.15,0.24c0.51,0.14,1.02,0.32,1.53,0.51c1.25,0.47,2.48,1.03,3.68,1.63c3.34,1.64,6.57,3.51,9.75,5.43
				c3.86,2.33,7.65,4.77,11.4,7.27c3.85,2.58,7.65,5.22,11.4,7.95c3.33,2.42,6.62,4.89,9.8,7.48c2.3,1.86,4.61,3.78,6.65,5.9
				c0.34,0.36,0.68,0.73,0.99,1.11c0.06,0.07,0.06,0.07,0.15,0.18c0.06,0.08,0.12,0.16,0.18,0.24c0.1,0.14,0.19,0.28,0.28,0.42
				c0.04,0.06,0.07,0.12,0.1,0.18c0.02,0.03,0.03,0.06,0.05,0.1c-0.05-0.1,0,0.01,0.01,0.03c0.02,0.05,0.04,0.1,0.05,0.15
				c0.03,0.09,0-0.06,0,0.01c0,0.03,0.01,0.06,0.01,0.08c0,0.03-0.01,0.22,0,0.11c-0.01,0.07-0.02,0.15-0.03,0.22
				c-0.03,0.18-0.09,0.35-0.14,0.52c-0.32,0.95-0.87,1.91-1.4,2.82c-0.79,1.35-1.66,2.65-2.55,3.94c-2.17,3.14-4.49,6.17-6.89,9.14
				c-2.18,2.69-4.41,5.34-6.85,7.82c-0.79,0.8-1.6,1.61-2.51,2.3c-0.31,0.23-0.46,0.36-0.79,0.5c-0.14,0.06-0.22,0.08-0.37,0.07
				c-0.29-0.02-0.5-0.07-0.77-0.15c-0.82-0.24-1.62-0.6-2.39-0.98c-1.03-0.5-2.03-1.04-3.02-1.61c-2.26-1.28-4.47-2.65-6.67-4.04
				c-1.65-1.05-3.3-2.13-4.93-3.2C128.69,60.15,128.38,60.65,128.76,60.9L128.76,60.9z"/>
		</g>
		<g id="Ebene_7_2_">
			<path class="st9" d="M152.3,34.48c1.15,0.95,2.38,1.82,3.58,2.7c0.33,0.24,0.66,0.49,0.99,0.74c0.16,0.12,0.32,0.24,0.48,0.37
				c0.08,0.06,0.16,0.12,0.24,0.18c0.26,0.2-0.22-0.17,0.05,0.04c0.62,0.49,1.22,0.99,1.8,1.52c0.27,0.25,0.53,0.5,0.78,0.76
				c0.11,0.12,0.22,0.24,0.33,0.36c0.05,0.06,0.1,0.12,0.15,0.18c0.21,0.24-0.14-0.19-0.02-0.02c0.17,0.23,0.33,0.45,0.47,0.7
				c0.03,0.05,0.05,0.11,0.08,0.16c-0.05-0.07-0.13-0.31-0.06-0.12c0.04,0.11,0.06,0.24,0.11,0.35c-0.03-0.06-0.04-0.34-0.03-0.15
				c0,0.05,0.01,0.1,0.01,0.15c0.03,0.28,0.07-0.24,0.01-0.08c-0.03,0.08-0.13,0.38-0.02,0.11c0.11-0.27,0.02-0.05-0.01,0.01
				c-0.03,0.06-0.06,0.12-0.09,0.18c-0.07,0.13-0.14,0.26-0.22,0.39c-1.05,1.77-2.36,3.4-3.62,5.03c-1.79,2.31-3.62,4.58-5.46,6.85
				c-1.74,2.15-3.49,4.29-5.21,6.44c-0.18,0.22-0.36,0.45-0.54,0.67c-0.38,0.48-0.04,1.38,0.57,1.73c0.71,0.4,1.39,0.25,1.8-0.27
				c1.69-2.13,3.42-4.24,5.13-6.36c1.89-2.33,3.78-4.67,5.62-7.03c1.36-1.75,2.76-3.49,3.93-5.37c0.3-0.48,0.67-1.03,0.75-1.61
				c0.17-1.36-0.76-2.67-1.77-3.74c-1.14-1.21-2.49-2.25-3.82-3.27c-1.24-0.94-2.51-1.83-3.74-2.78c-0.06-0.05-0.12-0.09-0.18-0.14
				c-0.18-0.14,0.29,0.23,0.07,0.05c-0.11-0.09-0.23-0.18-0.34-0.28c-0.56-0.46-1.39-0.67-1.88-0.2
				C151.81,33.14,151.71,33.98,152.3,34.48L152.3,34.48z"/>
			<g class="st13">
				<g>
					<path class="st9" d="M142.87,65.12c-0.09,0.24-0.19,0.49-0.28,0.73c0.81-0.02,1.62-0.04,2.43-0.06c-0.2-0.35-0.4-0.69-0.6-1.04
						c-0.24,0.57-0.48,1.14-0.73,1.72c-0.2,0.01-0.37,0-0.56-0.09c-0.08-0.03-0.15-0.07-0.21-0.13c-0.11-0.09-0.13-0.1-0.05-0.03
						c-0.11-0.12-0.18-0.23-0.23-0.38c0.03,0.09,0.03,0.07,0-0.05c-0.03-0.11-0.04-0.21-0.01-0.31c0.41-0.26,0.83-0.53,1.24-0.79
						c0.02,0,0.33,0.1,0.17,0.04c0.16,0.07,0.29,0.14,0.42,0.26c-0.13-0.12,0.09,0.12,0.1,0.14c-0.1-0.14,0.06,0.12,0.07,0.14
						c0.05,0.14,0.04,0.28,0.01,0.41c0.04-0.21-0.24,0.36-0.23,0.34c0.1-0.11-0.1,0.06-0.12,0.07c-0.06,0.02-0.13,0.04-0.19,0.06
						c-0.22,0-0.28,0-0.18,0c0.16,0.02-0.31-0.08-0.16-0.03c0.07,0.03,0.04,0.01-0.08-0.04c-0.08-0.02-0.15-0.07-0.21-0.12
						c-0.26-0.19-0.4-0.47-0.38-0.75c0.03-0.26-0.06,0.1,0.04-0.15c0.1-0.25-0.09,0.07,0.08-0.13c0.04-0.06,0.09-0.11,0.16-0.13
						c0.1-0.05,0.12-0.07,0.06-0.04c-0.1,0.04,0.33-0.06,0.12-0.05c0.58,0.45,1.16,0.9,1.73,1.35c-0.01-0.12-0.03-0.25-0.04-0.37
						c-0.07-0.64-0.66-1.31-1.4-1.35c-0.69-0.04-1.34,0.41-1.27,1.1c0.01,0.12,0.03,0.25,0.04,0.37c0.04,0.4,0.22,0.73,0.57,1.01
						c0.37,0.29,0.73,0.35,1.16,0.34c0.87-0.03,1.47-0.85,1.39-1.64c-0.09-0.94-1.01-1.77-2.02-1.81c-0.98-0.04-1.84,0.62-1.71,1.58
						c0.13,0.94,0.96,1.78,2,1.88c0.59,0.06,1.11-0.28,1.24-0.79c0.14-0.55-0.07-1.21-0.54-1.67c-0.52-0.5-1.13-0.7-1.8-0.65
						c-0.87,0.06-1.12,1.03-0.73,1.72c0.2,0.35,0.4,0.69,0.6,1.04c0.27,0.46,0.86,0.74,1.36,0.73c0.57-0.02,0.89-0.33,1.07-0.79
						c0.09-0.24,0.19-0.49,0.28-0.73c0.1-0.26-0.02-0.68-0.18-0.93c-0.18-0.28-0.52-0.56-0.85-0.66c-0.33-0.1-0.7-0.12-0.99,0.02
						C143.15,64.58,143,64.81,142.87,65.12L142.87,65.12z"/>
				</g>
			</g>
		</g>
		<g>
			<path d="M166.52,44.76c0.1-0.34,0.18-0.71,0.15-1.08c-0.04-0.39-0.23-0.78-0.45-1.14c-0.49-0.8-1.16-1.53-1.82-2.22
				c-0.92-0.95-1.9-1.85-2.9-2.74c-2.81-2.48-5.77-4.8-8.76-7.08c-3.61-2.74-7.28-5.4-11.01-7.99c-3.86-2.69-7.78-5.31-11.75-7.84
				c-3.54-2.25-7.13-4.45-10.8-6.48c-2.74-1.51-5.56-3.02-8.48-4.08c-0.93-0.34-1.92-0.65-2.88-0.73c-1.11-0.09-2.01,0.3-2.82,0.86
				c-1.13,0.79-2,1.89-2.78,2.98c-1.01,1.4-1.88,2.9-2.69,4.43c-1.88,3.56-3.45,7.31-4.85,11.11c-1.14,3.09-2.22,6.23-2.97,9.47
				c-0.2,0.86-0.44,1.78-0.4,2.69c0.03,0.67,0.4,1.39,0.83,1.98c0.7,0.97,1.6,1.81,2.56,2.58c2.26,1.81,4.74,3.33,7.09,5.03
				c0.26,0.19,0.51,0.38,0.77,0.57c0.07,0.05,0.14,0.1,0.2,0.15c0.04,0.03,0.26,0.2,0.04,0.03c0.13,0.1,0.26,0.2,0.38,0.31
				c0.47,0.38,0.92,0.78,1.34,1.21c0.08,0.08,0.16,0.17,0.23,0.25c0.04,0.05,0.08,0.11,0.13,0.15c0.1,0.09-0.17-0.25-0.11-0.13
				c0.05,0.09,0.13,0.18,0.18,0.28c0.06,0.11,0.12,0.22,0.18,0.34c0.13,0.25-0.08-0.19,0.01,0.02c0.04,0.09,0.08,0.19,0.12,0.28
				c0.78,1.8,1.35,3.65,1.97,5.47c0.69,2.02,1.36,4.06,2.24,6.04c0.32,0.72,0.65,1.47,1.15,2.13c0.23,0.31,0.48,0.61,0.82,0.83
				c0.34,0.22,0.69,0.3,1.07,0.38c0.87,0.17,1.76,0.21,2.63,0.23c1.32,0.04,2.63,0.02,3.94-0.04c2.47-0.11,4.99-0.33,7.26-1.05
				c0.48-0.15,0.58-0.79,0.31-1.22c-0.31-0.5-0.9-0.63-1.38-0.48c-0.06,0.02-0.45,0.13-0.19,0.06c-0.12,0.03-0.24,0.06-0.35,0.09
				c-0.28,0.07-0.56,0.13-0.84,0.18c-0.61,0.12-1.22,0.21-1.84,0.29c-1.3,0.16-2.63,0.26-3.96,0.31c-0.14,0.01-0.29,0.01-0.43,0.02
				c-0.03,0-0.31,0.01-0.09,0c-0.08,0-0.17,0-0.25,0.01c-0.33,0.01-0.65,0.01-0.98,0.01c-0.57,0-1.14-0.01-1.72-0.03
				c-0.47-0.02-0.93-0.05-1.4-0.1c-0.18-0.02-0.35-0.04-0.53-0.07c-0.07-0.01-0.17-0.05-0.24-0.04c0.26-0.01,0.18,0.04,0.02,0
				c-0.05-0.01-0.11-0.04-0.16-0.05c-0.19-0.05,0.16,0.09,0.13,0.06c-0.02-0.02-0.09-0.07-0.12-0.08c0.25,0.1,0.2,0.18,0.08,0.05
				c-0.04-0.04-0.08-0.09-0.13-0.14c-0.15-0.16,0.16,0.22,0.04,0.05c-0.09-0.13-0.18-0.25-0.26-0.39c-0.19-0.31-0.36-0.64-0.52-0.96
				c-0.03-0.06-0.13-0.23,0.01,0.03c-0.03-0.05-0.05-0.1-0.07-0.15c-0.04-0.09-0.09-0.19-0.13-0.29c-0.1-0.22-0.19-0.44-0.28-0.66
				c-0.83-2.02-1.51-4.07-2.2-6.11c-0.6-1.76-1.15-3.56-1.97-5.27c-0.32-0.66-0.76-1.2-1.32-1.73c-0.97-0.93-2.06-1.74-3.16-2.52
				c-1.15-0.82-2.33-1.6-3.49-2.4c-0.58-0.4-1.15-0.79-1.72-1.21c-0.26-0.19-0.52-0.38-0.77-0.58c-0.07-0.05-0.14-0.1-0.2-0.16
				c-0.22-0.17,0.12,0.1-0.01-0.01c-0.14-0.11-0.28-0.22-0.42-0.34c-0.46-0.38-0.9-0.77-1.31-1.19c-0.18-0.18-0.34-0.37-0.51-0.56
				c-0.16-0.18,0.13,0.19,0,0c-0.04-0.05-0.08-0.1-0.11-0.15c-0.07-0.1-0.14-0.2-0.21-0.3c-0.06-0.1-0.12-0.2-0.18-0.3
				c-0.02-0.03-0.03-0.07-0.05-0.1c-0.1-0.18,0.08,0.21,0.01,0.03c-0.05-0.14-0.08-0.31-0.15-0.44c0.13,0.24,0.04,0.27,0.03,0.15
				c0-0.02,0-0.05-0.01-0.07c-0.01-0.06,0-0.13,0-0.19c0-0.07,0.01-0.14,0.01-0.21c0.01-0.21-0.02,0.16-0.01,0.08
				c0.01-0.05,0.01-0.09,0.01-0.14c0.02-0.21,0.06-0.42,0.09-0.62c0.09-0.53,0.21-1.06,0.34-1.58c0.35-1.43,0.77-2.85,1.21-4.25
				c0.56-1.75,1.16-3.48,1.8-5.2c0.35-0.95,0.72-1.89,1.1-2.82c0.09-0.22,0.18-0.44,0.27-0.66c0.02-0.06,0.16-0.38,0.06-0.14
				c0.06-0.14,0.12-0.28,0.18-0.42c0.19-0.46,0.39-0.92,0.59-1.38c1.45-3.29,3.02-6.6,5.16-9.5c0.22-0.29,0.44-0.58,0.67-0.86
				c0.05-0.06,0.24-0.25,0.02-0.02c0.06-0.06,0.11-0.13,0.17-0.19c0.11-0.12,0.22-0.25,0.34-0.37c0.39-0.4,0.81-0.77,1.28-1.09
				c0.03-0.02,0.06-0.03,0.08-0.05c0.01-0.01-0.23,0.13-0.12,0.07c0.05-0.03,0.11-0.06,0.16-0.09c0.1-0.06,0.21-0.11,0.32-0.16
				c0.1-0.04,0.2-0.07,0.29-0.11c0.17-0.06-0.28,0.06-0.05,0.01c0.05-0.01,0.1-0.02,0.16-0.03c0.06-0.01,0.13-0.02,0.19-0.02
				c0.04,0,0.07,0,0.11-0.01c0.03,0-0.32,0-0.12,0c0.17,0.01,0.33,0.02,0.5,0.04c0.09,0.01,0.18,0.02,0.26,0.04
				c0.05,0.01,0.1,0.02,0.15,0.03c0.25,0.05-0.14-0.03-0.08-0.02c0.22,0.05,0.43,0.1,0.65,0.16c0.52,0.15,1.03,0.33,1.53,0.52
				c0.59,0.23,1.17,0.47,1.75,0.73c0.15,0.07,0.3,0.14,0.45,0.2c0.07,0.03,0.14,0.06,0.21,0.1c0.04,0.02,0.09,0.04,0.13,0.06
				c0.24,0.11-0.2-0.1-0.04-0.02c0.34,0.16,0.68,0.32,1.02,0.49c3.33,1.64,6.56,3.51,9.75,5.44c3.83,2.32,7.6,4.74,11.32,7.23
				c3.86,2.58,7.67,5.23,11.42,7.96c1.75,1.27,3.48,2.56,5.2,3.86c0.82,0.62,1.64,1.25,2.44,1.89c-0.22-0.17-0.02-0.01,0.08,0.06
				c0.1,0.08,0.2,0.16,0.3,0.23c0.19,0.15,0.39,0.31,0.58,0.46c0.36,0.29,0.72,0.58,1.08,0.87c2.31,1.87,4.62,3.78,6.67,5.9
				c0.35,0.36,0.68,0.72,1,1.1c0.03,0.04,0.06,0.07,0.09,0.11c-0.27-0.31-0.11-0.14-0.05-0.06c0.06,0.08,0.12,0.16,0.18,0.24
				c0.1,0.14,0.2,0.28,0.29,0.43c0.04,0.06,0.07,0.12,0.11,0.19c0.02,0.03,0.03,0.06,0.05,0.09c0.09,0.15-0.12-0.28-0.05-0.11
				c0.02,0.05,0.04,0.1,0.06,0.15c0.08,0.18-0.01-0.3-0.01-0.07c0,0.06,0,0.12,0,0.17c-0.02-0.29,0.02-0.16-0.01,0
				c-0.03,0.17-0.08,0.33-0.13,0.49c-0.03,0.09-0.06,0.18-0.09,0.27c-0.02,0.05-0.04,0.1-0.06,0.15c-0.09,0.22,0.09-0.21,0.01-0.03
				c-0.1,0.23-0.2,0.45-0.31,0.67c-0.27,0.55-0.57,1.09-0.88,1.62c-0.78,1.33-1.63,2.62-2.51,3.9c-2.16,3.14-4.49,6.18-6.9,9.15
				c-0.6,0.74-1.21,1.48-1.83,2.22c-0.3,0.35-0.6,0.71-0.9,1.06c-0.03,0.04-0.17,0.2,0,0c-0.03,0.04-0.06,0.07-0.1,0.11
				c-0.07,0.08-0.14,0.16-0.21,0.25c-0.15,0.18-0.3,0.35-0.46,0.52c-1.05,1.19-2.11,2.37-3.23,3.51c-0.79,0.8-1.6,1.61-2.51,2.3
				c-0.15,0.11-0.31,0.21-0.46,0.32c0.3-0.23,0.09-0.05-0.01,0c-0.06,0.03-0.13,0.06-0.19,0.09c-0.03,0.01-0.05,0.02-0.08,0.03
				c-0.13,0.06,0.28-0.04,0.11-0.03c-0.04,0-0.11,0.01-0.15,0.02c-0.07,0.02-0.17-0.11,0.17,0c-0.03-0.01-0.08,0-0.12,0
				c-0.12-0.01-0.24-0.03-0.36-0.05c-0.16-0.02,0.27,0.07,0.11,0.02c-0.04-0.01-0.08-0.02-0.12-0.03c-0.08-0.02-0.16-0.04-0.24-0.07
				c-0.37-0.11-0.73-0.25-1.09-0.4c-0.2-0.08-0.4-0.17-0.59-0.26c-0.08-0.03-0.47-0.21-0.15-0.07c-0.12-0.05-0.24-0.11-0.36-0.17
				c-1.04-0.51-2.06-1.06-3.06-1.63c-2.25-1.28-4.45-2.64-6.64-4.03c-1.66-1.05-3.3-2.13-4.94-3.21c-0.47-0.31-1.11-0.19-1.35,0.2
				c-0.25,0.42-0.04,0.99,0.43,1.3l0,0c3.95,2.59,7.91,5.19,12.03,7.49c0.99,0.55,2,1.09,3.02,1.57c0.82,0.38,1.65,0.78,2.52,1
				c0.67,0.17,1.33,0.26,1.92,0.01c0.38-0.16,0.71-0.4,1.03-0.64c0.92-0.69,1.73-1.5,2.53-2.31c1.14-1.16,2.24-2.37,3.31-3.6"/>
		</g>
		<g id="Ebene_9_2_">
			<g class="st14">
				<path d="M109.55,3.96c-8.64,14.03-0.37,41.97,7.02,58.19c-1.78-0.61-2.59-3.67-4.61-8.08c-2.84-6.24-1.24-5.8-3.38-8.37
					c-1.77-2.14-4.64-3.61-7.01-5.16c-2.19-1.43-4.76-3.47-5.6-5.29c-1.11-2.41,5.29-20.32,11.68-29.82"/>
				<g>
					<path d="M108.96,3.59c-1.79,2.92-2.8,6.27-3.31,9.72c-0.57,3.82-0.56,7.79-0.21,11.76c0.37,4.21,1.11,8.44,2.1,12.65
						c0.97,4.15,2.18,8.29,3.59,12.39c1.26,3.68,2.68,7.33,4.28,10.94c0.18,0.4,0.35,0.8,0.54,1.19c0.26-0.22,0.52-0.45,0.77-0.67
						c-0.05-0.02-0.09-0.04-0.14-0.05c0.17,0.07,0.03,0.01-0.01-0.01c-0.07-0.04-0.15-0.09-0.22-0.14c-0.16-0.11,0.04,0.05-0.1-0.09
						c-0.08-0.08-0.16-0.16-0.24-0.24c-0.04-0.04-0.08-0.09-0.12-0.13c0.08,0.1,0,0-0.02-0.03c-0.07-0.1-0.14-0.19-0.21-0.29
						c-0.15-0.22-0.28-0.44-0.4-0.67c-0.66-1.21-1.14-2.48-1.67-3.72c-1.03-2.43-2.24-4.83-2.83-7.35c-0.12-0.5-0.2-1.01-0.4-1.5
						c-0.24-0.62-0.62-1.17-1.05-1.71c-2.12-2.66-5.32-4.15-8.11-6.07c-1.27-0.88-2.51-1.84-3.54-2.97
						c-0.42-0.46-0.79-0.96-1.07-1.5c-0.04-0.08,0.02,0.09-0.01-0.03c-0.01-0.03-0.02-0.06-0.03-0.09c-0.03-0.09,0.02-0.11,0,0.04
						c0-0.04-0.01-0.09-0.02-0.13c-0.02-0.2-0.02-0.4-0.02-0.6c0-0.06,0.01-0.13,0.01-0.19c0-0.05,0.02-0.24,0-0.05
						c0.01-0.14,0.03-0.27,0.05-0.41c0.09-0.67,0.23-1.33,0.38-1.99c0.95-4.03,2.42-7.91,3.99-11.69c1.84-4.43,3.91-8.79,6.45-12.85
						c0.28-0.44,0.56-0.88,0.85-1.31c0.42-0.63-0.76-1.35-1.18-0.73c-2.66,3.97-4.78,8.31-6.68,12.7
						c-1.75,4.04-3.36,8.18-4.49,12.48c-0.34,1.29-0.68,2.63-0.71,4c-0.01,0.48,0.06,0.92,0.3,1.38c0.63,1.24,1.77,2.33,2.87,3.25
						c1.29,1.08,2.68,2.02,4.11,2.9c1.47,0.91,2.99,1.8,4.3,2.92c0.32,0.28,0.63,0.57,0.92,0.87c0.13,0.14,0.26,0.28,0.38,0.42
						c0.05,0.06,0.1,0.12,0.15,0.18c0.09,0.11-0.05-0.07,0.06,0.07c0.22,0.28,0.43,0.57,0.6,0.87c0.03,0.06,0.06,0.11,0.09,0.17
						c0.04,0.08,0.09,0.19,0.02,0.04c0.05,0.12,0.11,0.25,0.15,0.38c0.08,0.24,0.14,0.48,0.2,0.72c0.17,0.74,0.34,1.47,0.58,2.2
						c0.45,1.4,1.07,2.76,1.68,4.13c0.65,1.47,1.24,2.96,1.91,4.42c0.44,0.96,0.92,2.02,1.74,2.81c0.34,0.33,0.74,0.59,1.19,0.75
						c0.45,0.16,0.98-0.22,0.77-0.67c-1.59-3.49-3.01-7.03-4.28-10.6c-1.43-4.01-2.67-8.06-3.69-12.13
						c-1.04-4.14-1.85-8.31-2.31-12.46c-0.43-3.94-0.58-7.89-0.16-11.71c0.38-3.44,1.19-6.82,2.77-9.78c0.19-0.35,0.39-0.7,0.6-1.04
						C110.54,3.68,109.35,2.95,108.96,3.59L108.96,3.59z"/>
				</g>
			</g>
		</g>
		<g id="Ebene_11">
			
				<ellipse transform="matrix(0.5242 -0.8516 0.8516 0.5242 23.4299 115.5496)" class="st15" cx="115.12" cy="36.81" rx="3.52" ry="4.17"/>
			
				<ellipse transform="matrix(0.5242 -0.8516 0.8516 0.5242 22.832 129.6963)" class="st15" cx="127.48" cy="44.42" rx="3.52" ry="4.17"/>
			
				<ellipse transform="matrix(0.5242 -0.8516 0.8516 0.5242 22.2598 143.2351)" class="st15" cx="139.31" cy="51.7" rx="3.52" ry="4.17"/>
		</g>
	</g>
</g>
</svg>
