<?xml version="1.0" encoding="utf-8"?>
<!-- Generator: Adobe Adobe Illustrator 24.2.0, SVG Export Plug-In . SVG Version: 6.00 Build 0)  -->
<svg version="1.1" xmlns="http://www.w3.org/2000/svg" xmlns:xlink="http://www.w3.org/1999/xlink" x="0px" y="0px"
	 viewBox="0 0 170.08 170.08" style="enable-background:new 0 0 170.08 170.08;" xml:space="preserve">
<style type="text/css">
	.st0{fill:#91625D;}
	.st1{fill:#F0C2A1;}
	.st2{fill:#91625D;stroke:#000000;stroke-width:0.9912;stroke-miterlimit:10;}
	.st3{fill:#438993;}
	.st4{fill:#448893;}
	.st5{stroke:#000000;stroke-width:1.2504;stroke-miterlimit:10;}
	.st6{fill:none;stroke:#FFFFFF;stroke-width:1.0591;stroke-miterlimit:10;}
	.st7{opacity:0.0784;}
	.st8{opacity:0.1098;}
	.st9{opacity:0.1686;}
	.st10{fill:#FFFFFF;}
	.st11{fill:#ECC9AD;}
	.st12{opacity:0.1608;}
	.st13{fill:#F0F6FA;}
	.st14{opacity:0.149;}
	.st15{opacity:0.0314;}
	.st16{stroke:#000000;stroke-width:0.0568;stroke-miterlimit:10;}
	.st17{fill:#C8354F;}
	.st18{fill:#C93550;}
	.st19{fill:#6DB671;}
	.st20{fill:#6CB671;}
	.st21{fill:#D1DFEA;}
	.st22{fill:#D3E1ED;}
	.st23{fill:#C8354E;}
	.st24{fill:#F3C058;}
	.st25{fill:#C8AE9D;}
	.st26{opacity:0.1412;}
	.st27{fill:#D15238;}
	.st28{fill:#D15239;}
	.st29{fill:#ADBECF;}
	.st30{fill:#F3C057;}
	.st31{fill:#F7D98D;}
	.st32{fill:#AEBFCE;}
	.st33{opacity:0.2706;}
	.st34{fill:#3D4C5B;}
</style>
<g id="Ebene_4_5_">
</g>
<g id="Ebene_6_11_">
</g>
<g id="Ebene_15_1_">
	<g>
		<path class="st0" d="M24.75,79.09C28.5,44.06,12.11,9.05,70.18,6c55.47-2.91,42.26,43.52,42.26,72.7
			c-28.76,9.29-58.19,17-86.96,0.35"/>
		<g>
			<path d="M25.75,79.09c1.4-13.24-0.33-26.57,0.87-39.81c0.5-5.52,1.67-11.13,4.51-15.96c3.08-5.23,7.96-8.91,13.47-11.31
				c8.43-3.66,17.99-4.75,27.1-5.09c7.93-0.3,16.35,0.25,23.68,3.57c5.24,2.38,9.58,6.19,12.4,11.22
				c2.76,4.93,4.04,10.59,4.61,16.17c1.25,12.21-0.45,24.47-0.87,36.68c-0.05,1.38-0.07,2.75-0.08,4.13
				c0.24-0.32,0.49-0.64,0.73-0.96c-21.5,6.94-44.61,13.52-67.21,8.08c-6.67-1.61-13.03-4.21-18.98-7.63
				c-1.12-0.64-2.13,1.09-1.01,1.73c10.44,6,22.07,9.34,34.1,9.84c11.62,0.49,23.21-1.5,34.42-4.39c6.47-1.67,12.85-3.65,19.21-5.7
				c0.42-0.14,0.73-0.51,0.73-0.96c0.01-12.5,1.95-24.95,1.21-37.47c-0.69-11.75-4.12-23.9-14.65-30.52
				c-6.31-3.97-13.91-5.4-21.25-5.76C73.53,4.7,68.28,4.99,63.09,5.56c-4.64,0.51-9.27,1.3-13.74,2.63
				C42.92,10.1,36.62,13.23,32.2,18.4c-3.75,4.39-5.84,9.82-6.86,15.45c-1.12,6.23-1.15,12.61-1.08,18.92
				c0.08,7.01,0.31,14.02-0.08,21.03c-0.1,1.77-0.24,3.53-0.42,5.29C23.62,80.37,25.62,80.36,25.75,79.09L25.75,79.09z"/>
		</g>
	</g>
</g>
<g id="Ebene_7_5_">
	<g>
		<path class="st1" d="M26.36,55.72c-7.29-0.52-15.54,8.08-14.41,15.16c1.13,7.08,9.82,11.91,16.59,9.24
			c3.72,14.87,15.69,27.49,30.55,32.2c-1.43,7.54-3.29,13.28-4.72,20.82c7.89,5.27,18.59,8.13,26.11-0.48
			c-0.9-7.13-2.86-11.86-3.77-18.99c14.79-5.38,28.13-19.5,31.51-34.6c6.99,2.66,16.36-0.19,16.72-10.27
			c0.27-7.35-6.85-11.94-14.26-12.41c0-16.71-7.53-36.32-7.53-36.32s-16.52,8.49-71.59,14.29"/>
		<g>
			<path class="st1" d="M26.36,54.66c-6.43-0.35-12.51,4.91-14.74,10.66C9.25,71.46,12.7,77.8,18.45,80.5
				c3.24,1.52,6.99,1.91,10.38,0.63c-0.43-0.25-0.87-0.49-1.3-0.74c3.04,11.95,11.12,22.34,21.68,28.63c3.02,1.8,6.25,3.24,9.6,4.31
				c-0.25-0.43-0.49-0.87-0.74-1.3c-1.34,6.99-3.38,13.82-4.72,20.82c-0.09,0.49,0.07,0.92,0.49,1.2c4.9,3.24,10.88,5.73,16.87,5.03
				c2.99-0.35,5.75-1.52,8.12-3.38c1.16-0.92,2.85-2.04,2.63-3.66c-0.26-1.94-0.62-3.86-1.04-5.77c-0.93-4.2-2.08-8.34-2.64-12.61
				c-0.26,0.34-0.52,0.68-0.78,1.02c12.11-4.47,22.63-13.85,28.55-25.32c1.64-3.17,2.91-6.53,3.71-10.02
				c-0.43,0.25-0.87,0.49-1.3,0.74c5.15,1.91,11.66,1.08,15.28-3.35c4.25-5.2,3.53-13.12-1.65-17.37
				c-3.07-2.52-6.96-3.75-10.88-4.04c0.35,0.35,0.71,0.71,1.06,1.06c-0.03-8.29-1.62-16.56-3.76-24.54
				c-1.09-4.06-2.3-8.13-3.81-12.06c-0.25-0.66-0.9-0.97-1.56-0.63c-0.16,0.08-0.32,0.16-0.49,0.23c-0.21,0.1-0.43,0.19-0.64,0.28
				c0.32-0.14-0.07,0.03-0.19,0.08c-0.17,0.07-0.35,0.14-0.52,0.21c-2.23,0.88-4.51,1.63-6.8,2.32
				c-10.32,3.12-20.97,5.19-31.61,6.94c-10.22,1.68-20.5,2.99-30.81,4.08c-1.34,0.14-1.36,2.26,0,2.12
				c16.22-1.71,32.45-3.9,48.39-7.38c7.05-1.54,14.15-3.26,20.9-5.85c0.95-0.37,1.92-0.73,2.83-1.2c-0.52-0.21-1.04-0.42-1.56-0.63
				c1.47,3.83,2.65,7.78,3.72,11.73c2.14,7.91,3.74,16.09,3.77,24.31c0,0.6,0.49,1.02,1.06,1.06c5.55,0.41,12.23,3.46,13.12,9.61
				c0.76,5.26-2.33,10.26-7.5,11.54c-2.59,0.64-5.31,0.37-7.8-0.55c-0.52-0.19-1.18,0.22-1.3,0.74
				c-3.51,15.29-16.2,28.49-30.77,33.86c-0.39,0.14-0.84,0.54-0.78,1.02c0.84,6.42,2.93,12.58,3.77,18.99
				c0.1-0.25,0.21-0.5,0.31-0.75c-3.21,3.61-7.49,5.48-12.33,5.13c-4.51-0.33-8.77-2.34-12.49-4.81c0.16,0.4,0.32,0.8,0.49,1.2
				c1.34-6.99,3.38-13.82,4.72-20.82c0.11-0.58-0.16-1.12-0.74-1.3c-14.42-4.63-26.06-16.75-29.81-31.46
				c-0.13-0.52-0.77-0.94-1.3-0.74c-6.23,2.35-14.79-1.91-15.34-8.96c-0.52-6.71,6.86-13.71,13.43-13.36
				C27.73,56.85,27.72,54.73,26.36,54.66L26.36,54.66z"/>
		</g>
	</g>
</g>
<g id="Ebene_20">
	<path class="st2" d="M51.22,90.43c-1.08-1.28,6.91-7.19,17.19-7.19c12.29,0,16.61,6.33,16.15,7.09
		c-1.43,2.39-11.48-2.19-16.15-2.19C64.85,88.14,53.25,92.85,51.22,90.43z"/>
</g>
<g id="Ebene_10_4_">
	<g>
		<path class="st3" d="M15.42,157.52c0.71-3.55,2.76-6.73,5.21-9.44c8.19-9.07,20.63-13.36,32.84-15.14
			c0.32,1.08,1.3,1.82,2.25,2.44c4.16,2.7,9.04,4.57,14.03,4.36c4.98-0.21,10.02-2.77,12.28-7.13c16.06,2.08,31.17,10.47,41.25,22.9
			c1.02,1.26,2.03,2.65,2.12,4.25c-4.1-0.38-8.18,0.62-12.19,1.5c-15.07,3.28-30.51,4.93-45.95,4.9
			c-5.41-0.01-10.82-0.23-16.23-0.44c-2.93-0.12-5.87-0.23-8.77-0.68c-3.04-0.46-6.01-1.28-8.96-2.14
			c-5.86-1.69-11.67-3.54-17.43-5.52"/>
		<g>
			<path class="st4" d="M16.44,157.8c1.66-7.68,8.79-13.46,15.37-17.04c6.78-3.69,14.36-5.67,21.95-6.8
				c-0.43-0.25-0.87-0.49-1.3-0.74c1.03,2.76,4.47,4.27,6.98,5.39c2.97,1.32,6.17,2.18,9.44,2.2c5.59,0.04,11.35-2.64,14.07-7.67
				c-0.3,0.17-0.61,0.35-0.91,0.52c8.48,1.13,16.7,4.04,24.05,8.41c3.66,2.18,7.1,4.72,10.24,7.59c1.55,1.42,3.03,2.92,4.43,4.49
				c1.39,1.56,3.36,3.42,3.59,5.61c0.35-0.35,0.71-0.71,1.06-1.06c-3.59-0.29-7.12,0.37-10.62,1.13c-3.48,0.75-6.96,1.48-10.46,2.1
				c-7.11,1.24-14.28,2.12-21.48,2.63c-7.24,0.51-14.49,0.63-21.74,0.45c-7.25-0.18-14.8-0.02-21.9-1.63
				c-7.8-1.77-15.49-4.42-23.05-7.01c-1.29-0.44-1.85,1.6-0.56,2.04c6.82,2.35,13.72,4.59,20.7,6.43c7.09,1.87,14.34,1.96,21.62,2.2
				c14.44,0.48,28.84-0.19,43.13-2.43c4.01-0.63,8-1.37,11.97-2.23c4.09-0.88,8.17-1.9,12.39-1.56c0.53,0.04,1.12-0.52,1.06-1.06
				c-0.36-3.47-3.39-6.29-5.68-8.69c-2.43-2.54-5.07-4.86-7.88-6.96c-5.72-4.3-12.17-7.64-18.97-9.87
				c-3.88-1.27-7.85-2.15-11.89-2.68c-0.35-0.05-0.76,0.23-0.91,0.52c-2.3,4.25-7.08,6.53-11.8,6.62c-2.69,0.05-5.34-0.54-7.84-1.51
				c-1.35-0.53-2.65-1.18-3.9-1.91c-1.08-0.63-2.61-1.36-3.08-2.61c-0.22-0.59-0.69-0.83-1.3-0.74c-8.03,1.19-16.04,3.38-23.15,7.4
				c-6.78,3.84-13.94,9.97-15.65,17.92C14.11,158.57,16.15,159.14,16.44,157.8L16.44,157.8z"/>
		</g>
	</g>
</g>
<g id="Ebene_5_10_">
	<g>
		<g>
			<path d="M30.56,32.48c-4.66,17.56-7.19,37.22-1.08,54.76c3.89,11.17,11.64,20.94,22.66,25.68c10.6,4.56,22.8,3.88,33.13-1.16
				c13.78-6.72,21.57-20.78,24.66-35.31c2.05-9.66,2.65-20.06,1.46-29.87c-1.05-8.66-3.5-17.19-6.61-25.32
				c-0.19-0.5-0.38-1-0.59-1.49c-0.2-0.5-0.71-0.95-1.3-0.74c-4.49,1.63-9.12,2.93-13.73,4.17c-11.07,2.96-22.35,5.21-33.73,6.59
				c-7.92,0.96-15.88,1.49-23.86,1.51c-1.36,0-1.37,2.12,0,2.12c22.67-0.03,45.54-4.01,67.16-10.78c1.58-0.49,3.15-1,4.71-1.56
				c-0.43-0.25-0.87-0.49-1.3-0.74c2.42,5.87,4.28,12.04,5.68,18.22c2.25,9.95,2.45,20.26,1.22,30.37
				c-1.79,14.69-7.66,30.02-20.46,38.5c-9.34,6.19-21.45,8.22-32.19,4.84c-10.61-3.34-18.74-11.54-23.28-21.55
				c-6.94-15.33-5.84-33.37-2.48-49.43c0.58-2.76,1.24-5.51,1.97-8.24C32.95,31.72,30.91,31.16,30.56,32.48L30.56,32.48z"/>
		</g>
	</g>
	<g>
		<g>
			<path d="M26.36,54.66c-5.93,0.03-12.23,1.95-14.78,7.81c-1.28,2.93-1.84,6.87-0.89,9.97c0.98,3.21,3.54,5.77,6.34,7.5
				c3.24,2.01,7.17,3.13,10.97,2.45c1.34-0.24,0.77-2.28-0.56-2.04c-5.4,0.97-12.33-2.69-14.45-7.79c-1.1-2.63-0.65-6.13,0.33-8.75
				c0.85-2.27,2.49-4.1,4.61-5.26c2.57-1.4,5.56-1.77,8.45-1.79C27.73,56.77,27.73,54.65,26.36,54.66L26.36,54.66z"/>
		</g>
	</g>
	<g>
		<g>
			<path d="M112.62,57.46c5.67-1.52,10.18,2.78,10.91,8.23c0.59,4.38-0.47,10.46-4.79,12.67c-2.77,1.42-6.14,0.99-9.05,0.27
				c-1.32-0.33-1.89,1.72-0.56,2.04c3.18,0.78,6.69,1.17,9.8-0.09c2.42-0.98,4.25-2.88,5.31-5.25c2.51-5.59,2.29-13.67-2.67-17.88
				c-2.67-2.26-6.15-2.94-9.51-2.04C110.75,55.77,111.3,57.81,112.62,57.46L112.62,57.46z"/>
		</g>
	</g>
	<g>
		<g>
			<path d="M60.91,92.88c3.03,5.59,12.07,6.45,16.06,1.47c0.36-0.45,0.43-1.06,0-1.5c-0.37-0.37-1.14-0.45-1.5,0
				c-3.14,3.93-10.3,3.45-12.73-1.04C62.09,90.61,60.26,91.68,60.91,92.88L60.91,92.88z"/>
		</g>
	</g>
	<g>
		<g>
			<path d="M66.68,67.69c0.27-0.07,0.54-0.14,0.81-0.17c-0.23,0.03,0.12-0.01,0.18-0.01c0.15-0.01,0.31-0.02,0.46-0.01
				c0.25,0,0.49,0.02,0.74,0.05c-0.25-0.03,0.17,0.04,0.22,0.05c0.15,0.03,0.3,0.07,0.44,0.11c0.12,0.03,0.23,0.08,0.34,0.11
				c0.05,0.02,0.24,0.1,0.04,0.01c0.05,0.02,0.11,0.05,0.16,0.08c0.24,0.12,0.47,0.26,0.7,0.41c0.16,0.11,0.03,0.02,0,0
				c0.05,0.04,0.09,0.08,0.14,0.11c0.1,0.09,0.2,0.18,0.29,0.28c0.03,0.03,0.3,0.34,0.16,0.16c0.08,0.11,0.16,0.22,0.23,0.34
				c0.07,0.12,0.13,0.24,0.2,0.37c0.02,0.03,0.08,0.18,0.01,0.01c0.02,0.06,0.05,0.12,0.07,0.18c0.04,0.12,0.08,0.25,0.11,0.38
				c0.02,0.08,0.04,0.17,0.06,0.25c0.01,0.06,0.04,0.23,0.02,0.08c0.04,0.3,0.05,0.6,0.03,0.9c0.02-0.24-0.01,0-0.04,0.1
				c-0.01,0.05-0.04,0.1-0.05,0.15c-0.05,0.23,0.1-0.16-0.02,0.04c-0.05,0.09-0.1,0.19-0.16,0.28c-0.03,0.05-0.06,0.09-0.09,0.14
				c0.12-0.17,0.04-0.05,0.01-0.02c-0.09,0.1-0.18,0.19-0.27,0.28c-0.04,0.04-0.09,0.08-0.13,0.12c-0.06,0.05-0.05,0.04,0.04-0.02
				c-0.04,0.03-0.07,0.05-0.11,0.08c-0.22,0.15-0.46,0.29-0.7,0.4c0.17-0.08-0.15,0.05-0.21,0.07c-0.16,0.05-0.33,0.1-0.5,0.14
				c-0.07,0.02-0.14,0.03-0.21,0.04c-0.32,0.06,0.18,0-0.15,0.02c-0.18,0.01-0.37,0.02-0.55,0.02c-0.44,0-0.6-0.03-1-0.12
				c-0.86-0.2-1.6-0.61-2.32-1.14c-0.46-0.34-1.18-0.08-1.45,0.38c-0.31,0.54-0.08,1.11,0.38,1.45c1.47,1.09,3.33,1.72,5.16,1.5
				c1.55-0.19,3.03-0.91,3.92-2.23c0.84-1.25,0.69-2.92,0.13-4.25c-0.57-1.34-1.65-2.33-2.98-2.89c-1.46-0.62-3.13-0.69-4.66-0.26
				C64.8,66.02,65.36,68.06,66.68,67.69L66.68,67.69z"/>
		</g>
	</g>
	<g>
		<g>
			<path d="M45.89,51.48c0.94-1.71,2.9-2.56,4.81-2.8c1.8-0.23,3.8-0.04,5.2,1.04c0.45,0.35,1.19,0.07,1.45-0.38
				c0.32-0.55,0.07-1.1-0.38-1.45c-1.85-1.42-4.54-1.58-6.76-1.26c-2.45,0.35-4.92,1.55-6.15,3.79
				C43.41,51.61,45.23,52.68,45.89,51.48L45.89,51.48z"/>
		</g>
	</g>
	<g>
		<g>
			<path d="M79.09,50.16c3.02-2.32,8.28-1.98,10.54,1.32c0.77,1.12,2.6,0.06,1.83-1.07c-2.86-4.17-9.44-5.15-13.44-2.08
				c-0.45,0.35-0.69,0.91-0.38,1.45C77.9,50.23,78.64,50.51,79.09,50.16L79.09,50.16z"/>
		</g>
	</g>
	<ellipse class="st5" cx="55.1" cy="58.33" rx="1.34" ry="3.93"/>
	<ellipse class="st5" cx="79.89" cy="58.33" rx="1.34" ry="3.93"/>
	<g>
		<g>
			<path d="M53.46,133.66c6.01,8.86,22.2,9.48,27.88-0.11c0.7-1.18-1.13-2.24-1.83-1.07c-4.82,8.15-19.08,7.67-24.22,0.11
				C54.53,131.47,52.69,132.53,53.46,133.66L53.46,133.66z"/>
		</g>
	</g>
	<g>
		<g>
			<path d="M54.37,132.07c-13.36-0.43-26.7,5.6-35.37,15.75c-2.44,2.86-4.5,6.01-6.08,9.41c-0.57,1.23,1.25,2.3,1.83,1.07
				c5.39-11.58,16.34-20.03,28.7-23.01c3.58-0.86,7.25-1.23,10.93-1.11C55.74,134.23,55.74,132.11,54.37,132.07L54.37,132.07z"/>
		</g>
	</g>
	<g>
		<g>
			<path d="M80.48,133.7c13.85,0.19,27.72,7.32,37.4,16.96c2.7,2.69,5.1,5.66,7.06,8.94c0.7,1.17,2.53,0.11,1.83-1.07
				c-7.36-12.37-20.82-21.43-34.55-25.22c-3.82-1.06-7.77-1.68-11.74-1.74C79.12,131.57,79.12,133.69,80.48,133.7L80.48,133.7z"/>
		</g>
	</g>
	<g>
		<g>
			<path d="M14.22,159.59c28.1,9.08,58.42,10.93,87.55,6.4c8.23-1.28,16.37-3.1,24.36-5.44c1.31-0.38,0.75-2.43-0.56-2.04
				c-28.08,8.24-58.19,9.99-87.02,4.93c-8.05-1.41-15.99-3.37-23.76-5.88C13.48,157.12,12.93,159.17,14.22,159.59L14.22,159.59z"/>
		</g>
	</g>
	<g>
		<g>
			<path d="M56.46,114.49c-1.04,6.03-2.07,12.05-3.11,18.08c-0.23,1.33,1.81,1.91,2.04,0.56c1.04-6.03,2.07-12.05,3.11-18.08
				C58.74,113.72,56.69,113.14,56.46,114.49L56.46,114.49z"/>
		</g>
	</g>
	<g>
		<g>
			<path d="M77.14,114.56c0.76,6.03,1.52,12.05,2.28,18.08c0.17,1.33,2.29,1.35,2.12,0c-0.76-6.03-1.52-12.05-2.28-18.08
				C79.09,113.23,76.97,113.21,77.14,114.56L77.14,114.56z"/>
		</g>
	</g>
</g>
<g id="Ebene_11_1_">
	<g>
		<g>
			<path d="M115.22,61.9c0.03,0,0.34,0.04,0.09,0.01c0.09,0.01,0.18,0.03,0.27,0.05c0.17,0.03,0.33,0.07,0.5,0.11
				c0.16,0.04,0.33,0.09,0.49,0.15c0.09,0.03,0.17,0.06,0.26,0.09c0.02,0.01,0.3,0.13,0.09,0.03c0.31,0.14,0.61,0.29,0.9,0.47
				c0.16,0.1,0.31,0.2,0.46,0.3c0.06,0.04,0.12,0.09,0.19,0.14c0.06,0.05,0.05,0.04-0.03-0.02c0.04,0.03,0.07,0.06,0.11,0.09
				c0.26,0.22,0.51,0.45,0.74,0.7c0.11,0.12,0.22,0.25,0.33,0.38c0.16,0.19-0.07-0.11,0.06,0.08c0.05,0.07,0.11,0.15,0.16,0.22
				c0.19,0.28,0.36,0.57,0.5,0.87c0.04,0.08,0.08,0.17,0.11,0.25c-0.1-0.22,0.02,0.06,0.03,0.08c0.06,0.17,0.12,0.34,0.17,0.52
				c0.15,0.53,0.75,0.92,1.3,0.74c0.54-0.17,0.9-0.73,0.74-1.3c-0.97-3.34-4.04-5.73-7.47-6.06c-0.55-0.05-1.08,0.52-1.06,1.06
				C114.18,61.46,114.62,61.84,115.22,61.9L115.22,61.9z"/>
		</g>
	</g>
	<g>
		<g>
			<path d="M21.43,60.51c-1.79-0.28-3.57,0.17-4.95,1.36c-1.27,1.09-2,2.83-1.92,4.5c0.03,0.55,0.47,1.09,1.06,1.06
				c0.55-0.02,1.09-0.47,1.06-1.06c-0.01-0.17-0.01-0.35,0-0.52c0-0.07,0.01-0.14,0.02-0.22c0.01-0.13-0.04,0.19,0.01-0.02
				c0.07-0.32,0.15-0.62,0.26-0.92c-0.09,0.23,0.02-0.03,0.04-0.07c0.04-0.08,0.08-0.16,0.12-0.23c0.07-0.13,0.15-0.25,0.23-0.37
				c0.05-0.07,0.16-0.21,0.04-0.07c0.06-0.07,0.11-0.13,0.17-0.2c0.11-0.12,0.22-0.23,0.34-0.34c0.05-0.05,0.11-0.09,0.17-0.14
				c-0.18,0.15,0.04-0.02,0.07-0.04c0.13-0.09,0.27-0.18,0.41-0.25c0.06-0.04,0.13-0.07,0.2-0.1c0.03-0.02,0.3-0.12,0.07-0.04
				c0.15-0.06,0.3-0.11,0.46-0.16c0.16-0.05,0.31-0.08,0.47-0.11c0.06-0.01,0.32-0.04,0.07-0.02c0.07-0.01,0.15-0.02,0.22-0.02
				c0.16-0.01,0.32-0.01,0.49-0.01c0.09,0,0.18,0.01,0.27,0.02c0.23,0.01-0.18-0.03,0.07,0.01c0.55,0.09,1.17-0.14,1.3-0.74
				C22.29,61.31,22.02,60.6,21.43,60.51L21.43,60.51z"/>
		</g>
	</g>
</g>
<g id="Ebene_12_1_">
	<ellipse class="st6" cx="55.43" cy="56.04" rx="0.33" ry="0.33"/>
	<ellipse class="st6" cx="79.89" cy="56.04" rx="0.33" ry="0.33"/>
</g>
<g id="Ebene_13_1_">
	<g class="st7">
		<path d="M36.35,33.06c-3.42,18.78-1.71,39.77,11.38,59.74c2.1,3.21,4.41,6.31,7.23,8.94c6.62,6.17,15.53,9.26,24.16,12.19
			c-5.25,0.18-10.51,0-15.73-0.54c-3.37-0.35-6.78-0.86-9.83-2.3c-2.53-1.19-4.72-2.97-6.85-4.76c-5.42-4.55-9.73-10.44-13.01-16.65
			c-3.73-7.06-5.5-14.23-6-22.16c-0.46-7.28,3.99-27.13,4.94-34.36"/>
		<g>
			<path d="M35.33,32.78c-2.29,12.72-2.15,25.85,1.34,38.34c1.9,6.8,4.75,13.34,8.38,19.39c3.57,5.95,7.75,11.5,13.54,15.45
				c6.13,4.19,13.28,6.62,20.26,8.98c0.09-0.69,0.19-1.39,0.28-2.08c-4.76,0.15-9.52,0.03-14.26-0.4
				c-4.32-0.39-8.72-0.95-12.51-3.23C45.34,105,39.78,98.22,35.75,91.18c-4.18-7.3-6.58-15.44-6.99-23.85
				c-0.26-5.34,0.9-10.84,1.8-16.08c1.03-6.03,2.34-12.04,3.15-18.11c0.18-1.35-1.94-1.33-2.12,0c-0.75,5.6-1.97,11.15-2.93,16.72
				c-0.96,5.55-2.18,11.34-2.03,16.99c0.42,16.62,9.21,32.86,22.49,42.73c4.02,2.99,8.5,4.2,13.42,4.76
				c5.51,0.63,11.07,0.81,16.61,0.64c1.21-0.04,1.41-1.7,0.28-2.08c-6.06-2.05-12.18-4.14-17.69-7.45
				c-5.92-3.55-10.2-8.61-13.85-14.4c-7.08-11.21-11.2-24.02-11.88-37.26c-0.35-6.85,0.17-13.71,1.38-20.45
				C37.61,32.01,35.57,31.44,35.33,32.78L35.33,32.78z"/>
		</g>
	</g>
	<g class="st7">
		<path d="M57.32,124.88c7.72-2,15.8-4.18,21.6-9.56c-6.49,0.51-13.15,1.01-19.41-0.74c-0.2-0.06-0.42-0.12-0.62-0.05
			c-0.37,0.12-0.49,0.57-0.55,0.95c-0.42,2.77-0.83,5.53-1.25,8.3"/>
		<g>
			<path d="M57.6,125.91c7.82-2.03,15.96-4.25,22.07-9.83c0.65-0.59,0.17-1.88-0.75-1.81c-5.42,0.43-10.97,0.89-16.36-0.07
				c-1.8-0.32-4.6-1.73-5.21,0.89c-0.63,2.74-0.85,5.64-1.27,8.42c-0.2,1.33,1.84,1.91,2.04,0.56c0.36-2.42,0.73-4.84,1.09-7.26
				c0.05-0.34,0.07-0.7,0.16-1.04c0.06-0.23,0.07-0.23-0.14-0.16c0.36-0.13,1.38,0.35,1.77,0.43c1.15,0.24,2.31,0.42,3.47,0.55
				c4.8,0.55,9.65,0.17,14.45-0.21c-0.25-0.6-0.5-1.21-0.75-1.81c-5.82,5.32-13.69,7.36-21.13,9.29
				C55.72,124.2,56.28,126.25,57.6,125.91L57.6,125.91z"/>
		</g>
	</g>
	<g class="st7">
		<path d="M31.05,141.45c4.88,4.81,11.51,7.44,17.94,9.95c10.14,3.96,20.34,7.93,31,10.2c14.61,3.12,29.94,2.95,44.48-0.48
			c-17.35,3.44-35,5.33-52.68,6.13c-3.94,0.18-7.88,0.3-11.82,0.06c-5.36-0.33-10.66-1.33-15.91-2.48
			c-9.7-2.13-19.27-4.79-28.66-7.97c3.31-5.97,7.91-11.25,13.4-15.39"/>
		<g>
			<path d="M30.3,142.2c4.22,4.1,9.53,6.65,14.93,8.85c5.98,2.43,12.02,4.76,18.11,6.88c12.66,4.4,25.7,7.13,39.15,6.95
				c7.49-0.1,14.96-1.03,22.26-2.73c1.34-0.31,0.76-2.3-0.56-2.04c-14.08,2.78-28.35,4.55-42.67,5.54
				c-7.14,0.49-14.39,1.04-21.54,0.61c-7.18-0.44-14.27-2.05-21.24-3.74c-7.78-1.88-15.47-4.12-23.05-6.68
				c0.21,0.52,0.42,1.04,0.63,1.56c3.27-5.84,7.7-10.96,13.02-15.01c1.07-0.81,0.02-2.65-1.07-1.83
				c-5.63,4.28-10.33,9.6-13.78,15.77c-0.35,0.62-0.02,1.34,0.63,1.56c6.82,2.3,13.73,4.34,20.72,6.1
				c6.98,1.75,14.05,3.4,21.22,4.15c7.31,0.76,14.72,0.25,22.03-0.21c7.13-0.45,14.25-1.08,21.34-1.93
				c8.15-0.98,16.26-2.25,24.32-3.84c-0.19-0.68-0.38-1.36-0.56-2.04c-12.69,2.96-25.94,3.48-38.81,1.43
				c-12.78-2.04-24.88-6.76-36.88-11.46c-5.96-2.33-12.04-4.86-16.7-9.38C30.82,139.75,29.32,141.25,30.3,142.2L30.3,142.2z"/>
		</g>
	</g>
	<g class="st7">
		<path d="M15.72,60.49c-0.58,7.79,3.73,15.74,10.64,19.62c-1.32,0.7-2.94,0.35-4.39-0.04c-2.5-0.67-5.17-1.55-6.66-3.63
			c-0.91-1.27-1.26-2.83-1.59-4.34c-0.46-2.09-0.92-4.21-0.92-6.35s0.5-4.34,1.8-6.07"/>
		<g>
			<path d="M14.67,60.49c-0.55,8.28,3.99,16.43,11.16,20.54c0-0.61,0-1.22,0-1.83c-1.13,0.52-2.44,0.16-3.57-0.15
				c-0.97-0.26-1.94-0.54-2.87-0.92c-2.07-0.85-3.51-2.2-4.17-4.37c-0.66-2.2-1.16-4.59-1.32-6.88c-0.16-2.37,0.2-4.7,1.61-6.66
				c0.8-1.11-1.04-2.17-1.83-1.07c-1.64,2.29-2.11,5.16-1.89,7.92c0.12,1.54,0.42,3.06,0.74,4.57c0.28,1.31,0.55,2.64,1.08,3.88
				c1.01,2.39,3.02,3.8,5.38,4.72c2.43,0.94,5.41,1.94,7.91,0.79c0.74-0.34,0.64-1.46,0-1.83c-6.57-3.76-10.62-11.14-10.12-18.71
				C16.87,59.13,14.76,59.13,14.67,60.49L14.67,60.49z"/>
		</g>
	</g>
	<g class="st7">
		<path d="M112.51,57.39c1.05,6.87,3.2,13.58,6.33,19.82c0.16,0.32,0.32,0.75,0.07,1.01c-0.11,0.12-0.27,0.17-0.43,0.21
			c-2.42,0.62-5.11-0.31-7.43,0.62c-0.42-0.41-0.38-1.07-0.31-1.65c0.7-6.3,0.97-12.65,0.82-18.98"/>
		<g>
			<path d="M111.49,57.67c0.76,4.87,2.04,9.65,3.84,14.23c0.42,1.06,0.86,2.12,1.33,3.16c0.24,0.54,0.49,1.08,0.75,1.61
				c0.07,0.14,0.28,0.78,0.43,0.89c0.08,0.3,0.2,0.24,0.36-0.16c-0.12,0.03-0.24,0.05-0.37,0.08c-1.17,0.04-2.31,0.09-3.49,0.06
				c-1.22-0.02-2.42,0.06-3.58,0.47c0.4,0.16,0.8,0.32,1.2,0.49c-0.4-0.52-0.14-1.35-0.08-1.96c0.09-0.84,0.17-1.68,0.24-2.52
				c0.15-1.75,0.27-3.51,0.36-5.27c0.17-3.45,0.21-6.9,0.13-10.35c-0.03-1.36-2.15-1.37-2.12,0c0.09,3.73,0.04,7.47-0.17,11.19
				c-0.1,1.83-0.24,3.66-0.41,5.48c-0.13,1.38-0.71,3.28,0.22,4.5c0.27,0.35,0.72,0.66,1.2,0.49c2.46-0.88,5.25,0.28,7.66-0.69
				c1.07-0.43,1.28-1.45,0.88-2.45c-0.5-1.24-1.17-2.42-1.7-3.65c-2.23-5.16-3.77-10.62-4.64-16.17
				C113.32,55.76,111.28,56.34,111.49,57.67L111.49,57.67z"/>
		</g>
	</g>
	<g class="st7">
		<path d="M66.84,71.97c1.69-0.97,3.24-2.16,4.61-3.54c0.65,1.55,1.2,3.59-0.09,4.69c-1.24,1.05-3.15,0.35-4.58-0.43"/>
		<g>
			<path d="M67.38,72.89c1.76-1.01,3.39-2.26,4.82-3.7c-0.59-0.16-1.18-0.31-1.77-0.47c0.23,0.56,0.44,1.13,0.57,1.72
				c0.02,0.08,0.03,0.15,0.05,0.23c0.01,0.04,0.04,0.27,0.02,0.09c-0.02-0.18,0.01,0.07,0.01,0.12c0.01,0.08,0.01,0.15,0.01,0.23
				c0,0.14,0,0.27-0.01,0.41c0,0.03-0.01,0.06-0.01,0.09c-0.01,0.14,0.05-0.23,0.01-0.1c-0.02,0.07-0.03,0.14-0.04,0.21
				c-0.02,0.07-0.04,0.13-0.06,0.2c-0.01,0.03-0.03,0.06-0.03,0.08c0-0.01,0.11-0.2,0.05-0.12c-0.04,0.06-0.06,0.13-0.1,0.18
				c-0.02,0.04-0.16,0.23-0.05,0.09c0.11-0.15-0.05,0.05-0.08,0.08c-0.05,0.05-0.09,0.09-0.14,0.13c-0.09,0.08-0.07-0.01,0.05-0.04
				c-0.03,0.01-0.06,0.04-0.08,0.06c-0.07,0.04-0.13,0.08-0.2,0.11c-0.16,0.09,0.21-0.07-0.02,0c-0.06,0.02-0.12,0.04-0.19,0.05
				c-0.07,0.02-0.15,0.02-0.22,0.04c0,0,0.23-0.02,0.12-0.02c-0.04,0-0.09,0.01-0.13,0.01c-0.15,0.01-0.29,0-0.44-0.01
				c-0.05,0-0.09-0.01-0.14-0.01c0,0,0.23,0.04,0.11,0.01c-0.08-0.02-0.16-0.03-0.24-0.05c-0.37-0.08-0.72-0.21-1.08-0.35
				c-0.11-0.04,0.08,0.03,0.08,0.04c-0.04-0.03-0.09-0.04-0.13-0.06c-0.09-0.04-0.18-0.08-0.26-0.12c-0.17-0.08-0.34-0.17-0.51-0.26
				c-0.49-0.27-1.18-0.14-1.45,0.38c-0.26,0.5-0.14,1.17,0.38,1.45c0.7,0.38,1.45,0.73,2.23,0.93c0.79,0.2,1.69,0.28,2.47,0.01
				c0.81-0.28,1.54-0.86,1.9-1.67c0.32-0.72,0.41-1.48,0.31-2.25c-0.11-0.86-0.35-1.67-0.69-2.47c-0.15-0.35-0.35-0.63-0.74-0.74
				c-0.36-0.1-0.76,0-1.03,0.27c-0.33,0.33-0.67,0.66-1.03,0.97c-0.18,0.16-0.36,0.31-0.54,0.46c-0.1,0.08-0.19,0.16-0.29,0.24
				c-0.04,0.03-0.09,0.07-0.13,0.1c-0.16,0.12,0.09-0.06-0.02,0.01c-0.77,0.58-1.56,1.11-2.39,1.59c-0.48,0.28-0.69,0.97-0.38,1.45
				C66.24,72.99,66.86,73.18,67.38,72.89L67.38,72.89z"/>
		</g>
	</g>
</g>
<g id="Ebene_16_1_">
</g>
<g id="Ebene_17_1_">
</g>
<g id="Ebene_21">
	<g class="st8">
		<path d="M59.63,7.38c-9.11,5.92-17.96,12.44-24.96,20.67S27.61,45,27,55.72c-1.58-0.82-2.59,0.18-2.79,0
			c-0.78-0.71,0.78,1.04,0.93,0c1.68-11.37-1.06-23.93,5.79-32.6S48.6,9.09,59.59,7.2"/>
		<g>
			<path d="M59.13,6.52c-7.37,4.8-14.58,9.97-20.85,16.18c-2.91,2.88-5.76,5.96-7.74,9.57c-1.77,3.23-2.84,6.77-3.43,10.39
				c-0.7,4.32-0.86,8.7-1.1,13.06c0.5-0.29,1-0.58,1.51-0.86c-0.88-0.39-1.73-0.58-2.68-0.34c-0.08,0.02-0.69,0.17-0.71,0.24
				c0.03-0.13,1.02,0.4,0.51,0.01c-0.11-0.09-0.23-0.14-0.36-0.19c-0.79-0.31-1.62,0.78-1.13,1.47c0.61,0.86,2.08,1.53,2.79,0.4
				c0.45-0.71,0.39-1.91,0.47-2.72c0.14-1.34,0.23-2.69,0.3-4.04c0.24-4.88,0.08-9.79,0.73-14.64c0.64-4.78,2.25-9.07,5.47-12.71
				c3.2-3.62,7.08-6.56,11.32-8.85c4.88-2.63,10.19-4.36,15.64-5.32c1.27-0.22,0.73-2.15-0.53-1.93
				c-8.96,1.57-17.69,5.3-24.54,11.37c-3.29,2.92-6.16,6.3-7.74,10.45c-1.58,4.16-1.93,8.71-2.1,13.12c-0.1,2.7-0.12,5.4-0.24,8.09
				c-0.06,1.35-0.14,2.7-0.28,4.04c-0.05,0.51-0.33,1.38-0.22,1.86c-0.01,0.09-0.02,0.18-0.04,0.26c0.88-0.1,1.12-0.25,0.72-0.43
				c-0.06,0.01-0.24-0.26-0.04,0.02c-0.38,0.49-0.75,0.98-1.13,1.47c-0.88-0.34,0.04,0.12,0.22,0.17c0.23,0.07,0.42,0.06,0.65,0.02
				c0.73-0.13,1.11-0.46,1.9-0.12c0.7,0.31,1.46-0.05,1.51-0.86c0.4-7.15,0.45-14.7,3.66-21.28c1.78-3.64,4.44-6.67,7.26-9.54
				c2.92-2.97,6.07-5.72,9.35-8.29c3.81-2.98,7.81-5.72,11.86-8.36C61.21,7.55,60.21,5.81,59.13,6.52L59.13,6.52z"/>
		</g>
	</g>
	<g>
		<g>
			<path d="M57.68,8.21c1.29,0,1.29-2,0-2C56.39,6.2,56.39,8.21,57.68,8.21L57.68,8.21z"/>
		</g>
	</g>
</g>
<g id="Ebene_18_1_">
</g>
<g id="Ebene_14_1_">
	<g class="st9">
		<g>
			<path class="st10" d="M104.34,54.03c1.36,0,1.37-2.12,0-2.12C102.97,51.92,102.97,54.03,104.34,54.03L104.34,54.03z"/>
		</g>
	</g>
	<g class="st9">
		<g>
			<path class="st10" d="M117.36,60.73c0.28,0.32,0.56,0.65,0.82,0.98c-0.06-0.07-0.11-0.14-0.17-0.21
				c0.51,0.66,0.97,1.36,1.38,2.08c0.27,0.48,0.97,0.69,1.45,0.38c0.49-0.31,0.67-0.93,0.38-1.45c-0.66-1.18-1.46-2.27-2.36-3.28
				c-0.37-0.41-1.13-0.41-1.5,0C116.96,59.68,116.97,60.29,117.36,60.73L117.36,60.73z"/>
		</g>
	</g>
	<g class="st9">
		<g>
			<path class="st10" d="M84.23,140.48c12.47-0.42,22.39,8.1,31.13,15.9c1.01,0.91,2.52-0.59,1.5-1.5
				c-9.17-8.18-19.57-16.96-32.63-16.52C82.87,138.41,82.87,140.53,84.23,140.48L84.23,140.48z"/>
		</g>
	</g>
	<g>
		<g>
			<path class="st10" d="M158.53,143.36c1.29,0,1.29-2,0-2C157.24,141.36,157.24,143.36,158.53,143.36L158.53,143.36z"/>
		</g>
	</g>
</g>
<g id="Ebene_9_6_">
</g>
<g id="Ebene_3">
	<g>
		<g id="Ebene_2_Kopie_4_">
			<g>
				<path class="st19" d="M-33.61-1.73c3.92,2.14,15.81,8.7,17.82,7.71c3.26-1.6,20.45-28.08,19.36-30.86
					C1.28-30.7-46.76-58.87-53.39-56.71c-5.98,1.95-13.79,30.88-13.07,33.22c1.09,3.55,9.85,6.45,12.96,9.71
					c1.39,1.45,4.7,13.59,6.62,14.45c1.09,0.49,9.52-0.7,13.13-2.46"/>
				<g>
					<path class="st20" d="M-33.75-1.46c3.84,2.1,7.7,4.21,11.7,5.99c0.96,0.43,1.94,0.84,2.93,1.19c0.74,0.26,1.49,0.52,2.27,0.62
						c0.47,0.06,0.95,0.08,1.36-0.17c0.31-0.19,0.58-0.44,0.84-0.69c0.85-0.82,1.59-1.74,2.32-2.66c1.04-1.32,2.04-2.67,3.01-4.04
						c2.34-3.3,4.56-6.69,6.69-10.13c1.87-3.03,3.7-6.11,5.23-9.32c0.47-1,0.95-2.02,1.22-3.1c0.08-0.31,0.15-0.64,0.11-0.96
						C3.89-25,3.74-25.26,3.59-25.5c-0.45-0.69-1.07-1.3-1.67-1.87c-0.9-0.84-1.85-1.62-2.83-2.37c-2.71-2.11-5.57-4.05-8.45-5.93
						c-3.53-2.31-7.13-4.51-10.76-6.65c-3.78-2.22-7.6-4.35-11.47-6.39c-3.46-1.82-6.97-3.57-10.55-5.15
						c-2.6-1.14-5.27-2.27-8.03-2.94c-0.84-0.2-1.73-0.38-2.59-0.33c-0.9,0.05-1.62,0.51-2.24,1.08c-1,0.92-1.76,2.1-2.44,3.26
						c-0.91,1.55-1.68,3.17-2.4,4.82c-1.65,3.8-3,7.74-4.19,11.71c-0.98,3.25-1.89,6.54-2.49,9.88c-0.15,0.85-0.35,1.76-0.29,2.64
						c0.04,0.57,0.38,1.12,0.73,1.57c0.64,0.84,1.5,1.51,2.36,2.12c2.15,1.51,4.52,2.69,6.77,4.06c0.99,0.61,1.98,1.25,2.84,2.03
						c0.29,0.27,0.41,0.36,0.59,0.66c0.15,0.23,0.26,0.46,0.37,0.71c0.81,1.72,1.41,3.52,2.07,5.29c0.72,1.95,1.42,3.91,2.33,5.8
						c0.31,0.64,0.63,1.31,1.09,1.87c0.35,0.43,0.7,0.65,1.25,0.7c0.82,0.07,1.66-0.02,2.47-0.1c1.21-0.13,2.42-0.31,3.61-0.54
						c2.3-0.43,4.68-0.95,6.77-1.96c0.36-0.17,0-0.7-0.36-0.53c-1.01,0.49-2.1,0.82-3.19,1.12c-1.24,0.34-2.49,0.61-3.76,0.84
						c-1.14,0.21-2.3,0.37-3.46,0.48c-0.71,0.07-1.57,0.17-2.24,0.05c-0.04-0.01-0.08-0.02-0.13-0.03
						c-0.11-0.02,0.02,0.01-0.06-0.02c-0.03-0.02-0.07-0.04-0.1-0.06c0.07,0.05-0.06-0.06-0.09-0.08c-0.18-0.16-0.31-0.34-0.46-0.57
						c-0.43-0.65-0.76-1.35-1.07-2.05c-0.86-1.94-1.57-3.93-2.3-5.91c-0.61-1.64-1.16-3.33-1.97-4.9c-0.31-0.61-0.72-1.04-1.25-1.49
						c-0.89-0.75-1.89-1.39-2.9-1.99c-2.21-1.34-4.56-2.49-6.66-4.01c-0.81-0.59-1.63-1.25-2.19-2.08c-0.11-0.16-0.2-0.32-0.28-0.5
						c-0.04-0.09-0.08-0.19-0.11-0.29c-0.01-0.02-0.04-0.16-0.01-0.03c-0.02-0.11-0.03-0.23-0.03-0.34
						c-0.01-0.33,0.03-0.68,0.09-1.09c0.07-0.55,0.17-1.09,0.27-1.63c0.29-1.5,0.64-2.98,1.01-4.46c0.98-3.85,2.15-7.65,3.49-11.39
						c1.27-3.51,2.65-7.05,4.58-10.26c0.66-1.09,1.39-2.19,2.36-3.03c0.29-0.25,0.73-0.54,1.08-0.66c0.06-0.02,0.12-0.04,0.19-0.05
						c0.03-0.01,0.06-0.01,0.09-0.02c0.1-0.02-0.04,0,0.07-0.01c0.16-0.02,0.31-0.03,0.47-0.03c0.43,0,0.67,0.03,1.11,0.1
						c0.49,0.08,0.99,0.19,1.47,0.32c1.21,0.32,2.39,0.72,3.56,1.17c3.23,1.22,6.37,2.69,9.47,4.22c3.75,1.85,7.45,3.82,11.1,5.86
						c3.76,2.1,7.47,4.28,11.13,6.54c3.25,2.01,6.47,4.08,9.59,6.28c2.26,1.58,4.52,3.21,6.53,5.09c0.34,0.32,0.67,0.65,0.98,0.99
						c0.06,0.06,0.06,0.06,0.14,0.17c0.06,0.07,0.12,0.14,0.18,0.22c0.1,0.13,0.19,0.26,0.28,0.39c0.04,0.06,0.07,0.11,0.1,0.17
						c0.02,0.03,0.03,0.06,0.05,0.09c-0.05-0.1,0,0.01,0.01,0.03c0.02,0.05,0.04,0.09,0.06,0.14c0.03,0.08-0.01-0.06,0,0.01
						c0,0.03,0.01,0.06,0.01,0.08c0,0.03,0,0.22,0.01,0.11c0,0.08-0.01,0.15-0.02,0.23c-0.03,0.18-0.07,0.36-0.12,0.54
						c-0.27,0.99-0.76,2.04-1.23,3.02c-0.71,1.46-1.48,2.89-2.28,4.3c-1.95,3.44-4.05,6.8-6.23,10.1c-1.97,2.99-4.01,5.95-6.23,8.76
						c-0.72,0.91-1.46,1.83-2.3,2.64c-0.28,0.27-0.42,0.42-0.74,0.61c-0.13,0.08-0.2,0.1-0.35,0.11c-0.27,0.02-0.47,0-0.74-0.05
						c-0.79-0.14-1.56-0.4-2.31-0.68c-0.99-0.37-1.97-0.79-2.93-1.23c-2.2-1-4.35-2.09-6.48-3.22c-1.61-0.85-3.21-1.72-4.81-2.59
						C-33.84-2.2-34.11-1.66-33.75-1.46L-33.75-1.46z"/>
				</g>
			</g>
		</g>
		<g id="Ebene_2_5_">
			<g>
				<g>
					<path d="M-36.81,0c3.85,2.1,7.71,4.21,11.71,6c0.96,0.43,1.94,0.84,2.93,1.2c0.79,0.28,1.6,0.57,2.43,0.69
						c0.64,0.09,1.27,0.09,1.82-0.24c0.35-0.21,0.66-0.5,0.96-0.78c0.85-0.81,1.6-1.74,2.32-2.66c1.05-1.32,2.04-2.68,3.02-4.05
						c2.37-3.33,4.61-6.75,6.76-10.23c1.86-3.03,3.7-6.1,5.22-9.31c0.49-1.03,0.97-2.09,1.24-3.2c0.09-0.35,0.15-0.74,0.1-1.11
						c-0.05-0.39-0.25-0.75-0.47-1.09c-0.49-0.74-1.16-1.39-1.81-2c-0.91-0.84-1.87-1.63-2.86-2.38c-2.76-2.14-5.66-4.1-8.59-6.01
						c-3.53-2.3-7.12-4.51-10.76-6.64c-3.77-2.21-7.59-4.35-11.46-6.39c-3.45-1.82-6.94-3.57-10.51-5.14
						c-2.66-1.17-5.39-2.33-8.21-3.03c-0.9-0.22-1.85-0.41-2.77-0.36c-1.06,0.05-1.9,0.56-2.65,1.23c-1.05,0.94-1.83,2.17-2.54,3.36
						c-0.91,1.54-1.68,3.17-2.4,4.81c-1.66,3.83-3.02,7.81-4.22,11.82c-0.97,3.26-1.89,6.56-2.48,9.92
						c-0.16,0.89-0.35,1.85-0.28,2.76c0.05,0.68,0.43,1.35,0.86,1.89c0.7,0.89,1.59,1.62,2.52,2.27c2.21,1.54,4.63,2.75,6.93,4.16
						c0.25,0.15,0.5,0.31,0.75,0.47c0.07,0.04,0.13,0.09,0.2,0.13c0.04,0.02,0.26,0.17,0.04,0.03c0.13,0.09,0.25,0.17,0.37,0.26
						c0.46,0.33,0.9,0.67,1.32,1.05c0.08,0.07,0.16,0.15,0.23,0.22c0.04,0.04,0.08,0.1,0.13,0.13c0.1,0.08-0.17-0.23-0.11-0.12
						c0.06,0.09,0.13,0.17,0.18,0.26c0.07,0.1,0.12,0.21,0.18,0.32c0.13,0.24-0.08-0.18,0.01,0.02c0.04,0.09,0.09,0.18,0.13,0.27
						c0.8,1.71,1.41,3.5,2.07,5.26c0.73,1.95,1.44,3.92,2.35,5.8c0.33,0.68,0.68,1.4,1.17,2c0.23,0.28,0.48,0.55,0.81,0.73
						c0.33,0.18,0.67,0.21,1.03,0.24c0.84,0.06,1.68-0.02,2.51-0.1c1.26-0.13,2.51-0.32,3.74-0.55c2.35-0.43,4.74-0.97,6.87-1.99
						c0.45-0.22,0.52-0.87,0.25-1.27c-0.31-0.46-0.87-0.52-1.33-0.3c-0.06,0.03-0.43,0.19-0.18,0.08c-0.11,0.05-0.22,0.09-0.33,0.14
						c-0.26,0.1-0.52,0.2-0.79,0.29c-0.57,0.2-1.15,0.37-1.74,0.53c-1.23,0.33-2.49,0.6-3.75,0.82c-0.14,0.02-0.27,0.05-0.41,0.07
						c-0.03,0-0.29,0.05-0.08,0.01c-0.08,0.01-0.16,0.03-0.24,0.04c-0.31,0.05-0.62,0.09-0.93,0.14c-0.54,0.07-1.09,0.14-1.63,0.19
						c-0.44,0.04-0.89,0.07-1.34,0.08c-0.17,0-0.33,0-0.5,0c-0.07,0-0.16-0.02-0.23-0.01c0.25-0.04,0.18,0.02,0.02,0
						c-0.05-0.01-0.1-0.02-0.16-0.03c-0.18-0.02,0.16,0.07,0.13,0.05c-0.02-0.02-0.09-0.06-0.12-0.07c0.24,0.06,0.19,0.15,0.07,0.04
						c-0.04-0.04-0.08-0.08-0.12-0.12c-0.15-0.14,0.16,0.21,0.04,0.04c-0.09-0.12-0.18-0.23-0.26-0.36c-0.2-0.29-0.37-0.6-0.53-0.9
						c-0.03-0.06-0.13-0.22,0.02,0.03c-0.03-0.05-0.05-0.1-0.07-0.14c-0.04-0.09-0.09-0.18-0.13-0.27c-0.1-0.21-0.2-0.42-0.29-0.63
						c-0.87-1.93-1.58-3.91-2.32-5.88c-0.63-1.7-1.22-3.44-2.07-5.06c-0.33-0.63-0.77-1.11-1.32-1.58c-0.95-0.81-2.03-1.49-3.1-2.14
						c-1.12-0.68-2.27-1.32-3.41-1.97c-0.56-0.32-1.12-0.65-1.67-0.99c-0.25-0.16-0.51-0.32-0.76-0.48
						c-0.07-0.04-0.13-0.09-0.2-0.13c-0.22-0.14,0.12,0.08-0.01-0.01c-0.14-0.1-0.28-0.19-0.41-0.29c-0.45-0.32-0.88-0.66-1.29-1.03
						c-0.18-0.16-0.34-0.33-0.51-0.5c-0.15-0.16,0.13,0.17,0,0c-0.04-0.05-0.08-0.09-0.11-0.14c-0.07-0.09-0.14-0.18-0.21-0.28
						c-0.06-0.09-0.12-0.19-0.18-0.28c-0.02-0.03-0.03-0.06-0.05-0.09c-0.1-0.17,0.08,0.2,0.01,0.03c-0.05-0.13-0.09-0.31-0.16-0.42
						c0.14,0.23,0.04,0.27,0.04,0.15c0-0.02-0.01-0.05-0.01-0.07c-0.01-0.06-0.01-0.13-0.01-0.19c0-0.07,0-0.14,0-0.21
						c0-0.22-0.01,0.16,0,0.09c0-0.05,0.01-0.09,0.01-0.14c0.02-0.21,0.04-0.43,0.07-0.64c0.07-0.55,0.16-1.1,0.27-1.64
						c0.28-1.49,0.63-2.97,1-4.44c0.47-1.84,0.98-3.66,1.52-5.47c0.3-1,0.62-1.99,0.94-2.98c0.08-0.23,0.15-0.47,0.23-0.7
						c0.02-0.06,0.14-0.41,0.05-0.15c0.05-0.15,0.1-0.3,0.15-0.45c0.17-0.49,0.34-0.98,0.51-1.46c1.26-3.51,2.64-7.04,4.57-10.23
						c0.2-0.32,0.4-0.64,0.61-0.95c0.05-0.07,0.22-0.29,0.02-0.02c0.05-0.07,0.1-0.15,0.16-0.22c0.1-0.14,0.2-0.28,0.31-0.41
						c0.36-0.46,0.74-0.88,1.18-1.27c0.02-0.02,0.05-0.04,0.08-0.06c0.01-0.01-0.21,0.16-0.11,0.09c0.05-0.04,0.1-0.08,0.15-0.12
						c0.1-0.07,0.2-0.14,0.3-0.2c0.09-0.05,0.18-0.1,0.28-0.15c0.16-0.09-0.26,0.1-0.04,0.02c0.05-0.02,0.1-0.04,0.15-0.05
						c0.06-0.02,0.12-0.03,0.18-0.05c0.03-0.01,0.07-0.01,0.11-0.02c0.03-0.01-0.31,0.04-0.11,0.02c0.16-0.01,0.31-0.03,0.47-0.03
						c0.08,0,0.17,0,0.25,0.01c0.05,0,0.1,0.01,0.15,0.01c0.24,0.01-0.14-0.02-0.07-0.01c0.21,0.02,0.42,0.05,0.62,0.08
						c0.5,0.08,0.99,0.2,1.48,0.33c0.57,0.15,1.13,0.32,1.69,0.51c0.15,0.05,0.29,0.1,0.44,0.15c0.07,0.02,0.14,0.05,0.2,0.07
						c0.04,0.01,0.08,0.03,0.12,0.04c0.23,0.08-0.2-0.07-0.04-0.01c0.33,0.12,0.66,0.24,0.99,0.36c3.23,1.23,6.37,2.7,9.47,4.23
						c3.73,1.84,7.4,3.8,11.02,5.83c3.76,2.1,7.48,4.29,11.15,6.55c1.71,1.05,3.4,2.13,5.08,3.23c0.8,0.52,1.6,1.05,2.39,1.59
						c-0.21-0.15-0.02-0.01,0.08,0.05c0.1,0.07,0.19,0.13,0.29,0.2c0.19,0.13,0.38,0.26,0.57,0.39c0.36,0.24,0.71,0.49,1.06,0.74
						c2.26,1.58,4.53,3.22,6.55,5.09c0.34,0.32,0.67,0.64,0.99,0.98c0.03,0.03,0.06,0.07,0.09,0.1c-0.27-0.28-0.11-0.12-0.05-0.05
						c0.06,0.07,0.12,0.15,0.18,0.22c0.1,0.13,0.2,0.26,0.29,0.39c0.04,0.06,0.07,0.11,0.11,0.17c0.02,0.03,0.03,0.06,0.05,0.08
						c0.09,0.14-0.12-0.27-0.05-0.11c0.02,0.05,0.04,0.1,0.06,0.15c0.08,0.17-0.02-0.3-0.02-0.07c0,0.06,0,0.12,0.01,0.17
						c-0.03-0.29,0.01-0.16-0.01,0c-0.02,0.17-0.06,0.34-0.1,0.51c-0.02,0.09-0.05,0.19-0.08,0.28c-0.02,0.05-0.03,0.11-0.05,0.16
						c-0.07,0.23,0.08-0.22,0.01-0.03c-0.09,0.24-0.18,0.48-0.27,0.72c-0.24,0.59-0.5,1.17-0.78,1.74
						c-0.69,1.44-1.46,2.85-2.25,4.25c-1.95,3.45-4.05,6.81-6.23,10.11c-0.55,0.83-1.1,1.65-1.66,2.47C-11.9-2.79-12.17-2.4-12.44-2
						c-0.03,0.04-0.16,0.22,0,0c-0.03,0.04-0.06,0.08-0.09,0.13c-0.06,0.09-0.13,0.18-0.19,0.27c-0.14,0.2-0.28,0.39-0.42,0.59
						c-0.95,1.34-1.93,2.67-2.95,3.95c-0.72,0.91-1.46,1.83-2.3,2.64c-0.14,0.13-0.29,0.25-0.43,0.38c0.28-0.27,0.08-0.06-0.01,0
						C-18.88,6-18.94,6.04-19,6.08c-0.02,0.02-0.05,0.03-0.07,0.04c-0.12,0.08,0.27-0.07,0.11-0.05c-0.04,0.01-0.1,0.02-0.14,0.04
						c-0.07,0.03-0.16-0.09,0.16-0.03c-0.03-0.01-0.08,0.01-0.11,0.01c-0.12,0-0.23,0-0.35,0c-0.15,0,0.26,0.04,0.11,0.01
						c-0.04-0.01-0.07-0.01-0.11-0.01c-0.08-0.01-0.16-0.02-0.24-0.04c-0.35-0.06-0.7-0.16-1.05-0.26
						c-0.19-0.06-0.38-0.12-0.57-0.18c-0.07-0.03-0.46-0.15-0.14-0.05c-0.12-0.04-0.23-0.08-0.34-0.13
						c-1.01-0.38-1.99-0.8-2.97-1.25c-2.19-1-4.33-2.09-6.46-3.21c-1.61-0.85-3.21-1.72-4.81-2.6c-0.46-0.25-1.06-0.05-1.27,0.38
						C-37.49-0.8-37.27-0.25-36.81,0L-36.81,0z"/>
				</g>
			</g>
		</g>
	</g>
	<g>
		<g id="Ebene_2_Kopie_5_">
			<g>
				<path class="st17" d="M127.68,62.51c3.56,2.67,14.35,10.85,16.57,10.01c3.61-1.36,26.06-27.65,25.49-30.71
					c-1.2-6.41-44.47-41.22-51.6-39.61c-6.42,1.45-19.86,31.3-19.57,33.86c0.43,3.87,8.74,7.85,11.27,11.63
					c1.13,1.68,2.16,14.89,3.95,15.99c1.02,0.63,9.77,0.24,13.77-1.26"/>
				<g>
					<path class="st18" d="M127.49,62.79c3.49,2.62,6.99,5.25,10.7,7.56c0.89,0.55,1.8,1.09,2.74,1.57c0.69,0.35,1.41,0.7,2.18,0.89
						c0.47,0.12,0.95,0.18,1.41-0.04c0.35-0.17,0.67-0.41,0.98-0.64c1.02-0.78,1.94-1.68,2.86-2.58c1.31-1.29,2.57-2.62,3.82-3.97
						c3-3.26,5.9-6.61,8.7-10.04c2.47-3.02,4.91-6.09,7.08-9.34c0.67-1.01,1.35-2.04,1.83-3.16c0.14-0.32,0.27-0.66,0.29-1.01
						c0.02-0.3-0.08-0.6-0.19-0.87c-0.32-0.78-0.83-1.49-1.34-2.15c-0.75-0.98-1.57-1.91-2.41-2.81c-2.35-2.52-4.87-4.86-7.43-7.16
						c-3.13-2.81-6.35-5.52-9.63-8.15c-3.4-2.74-6.86-5.4-10.4-7.96c-3.16-2.29-6.37-4.51-9.7-6.55c-2.41-1.48-4.9-2.95-7.57-3.94
						c-0.81-0.3-1.68-0.58-2.56-0.62c-0.92-0.04-1.74,0.37-2.48,0.92c-1.19,0.87-2.18,2.04-3.1,3.2c-1.22,1.54-2.31,3.19-3.35,4.86
						c-2.4,3.86-4.51,7.89-6.48,11.98c-1.61,3.34-3.16,6.73-4.41,10.22c-0.32,0.89-0.69,1.83-0.8,2.77
						c-0.07,0.6,0.17,1.23,0.44,1.74c0.49,0.95,1.23,1.76,1.99,2.49c1.89,1.82,4.07,3.31,6.08,5c0.89,0.75,1.77,1.53,2.49,2.45
						c0.25,0.31,0.34,0.42,0.47,0.76c0.1,0.26,0.17,0.52,0.24,0.79c0.49,1.9,0.76,3.87,1.08,5.82c0.36,2.14,0.7,4.3,1.25,6.39
						c0.19,0.71,0.39,1.45,0.74,2.1c0.27,0.49,0.58,0.76,1.13,0.87c0.82,0.16,1.69,0.15,2.52,0.15c1.25-0.01,2.51-0.08,3.76-0.2
						c2.41-0.22,4.92-0.53,7.23-1.38c0.4-0.15,0.13-0.74-0.26-0.59c-1.12,0.41-2.29,0.66-3.45,0.86c-1.31,0.23-2.64,0.39-3.96,0.5
						c-1.2,0.1-2.4,0.16-3.59,0.15c-0.74,0-1.62,0.02-2.28-0.18c-0.04-0.01-0.08-0.03-0.12-0.04c-0.11-0.04,0.01,0.02-0.05-0.03
						c-0.03-0.02-0.06-0.04-0.09-0.07c0.07,0.06-0.06-0.07-0.08-0.09c-0.15-0.19-0.25-0.39-0.36-0.65
						c-0.31-0.73-0.51-1.51-0.69-2.28c-0.5-2.14-0.84-4.32-1.21-6.5c-0.3-1.8-0.54-3.65-1.06-5.4c-0.2-0.67-0.53-1.18-0.99-1.71
						c-0.76-0.89-1.65-1.67-2.55-2.41c-1.99-1.65-4.15-3.11-5.98-4.94c-0.71-0.71-1.42-1.49-1.82-2.43
						c-0.08-0.18-0.15-0.36-0.19-0.56c-0.02-0.11-0.04-0.21-0.06-0.32c0-0.02-0.01-0.18-0.01-0.04c0-0.12,0.01-0.24,0.03-0.36
						c0.06-0.35,0.16-0.72,0.29-1.14c0.18-0.57,0.38-1.14,0.58-1.7c0.57-1.56,1.21-3.09,1.88-4.62c1.73-3.98,3.63-7.89,5.71-11.71
						c1.95-3.59,4.03-7.2,6.6-10.4c0.87-1.09,1.82-2.17,2.97-2.97c0.35-0.24,0.84-0.5,1.22-0.59c0.07-0.02,0.13-0.03,0.2-0.04
						c0.03,0,0.06-0.01,0.09-0.01c0.11-0.01-0.04,0,0.07,0c0.16,0,0.32,0,0.48,0.02c0.44,0.04,0.68,0.1,1.1,0.22
						c0.49,0.13,0.96,0.3,1.43,0.49c1.16,0.46,2.28,1.01,3.38,1.6c3.04,1.63,5.94,3.51,8.79,5.45c3.45,2.35,6.81,4.82,10.12,7.36
						c3.4,2.61,6.74,5.31,10.02,8.08c2.91,2.47,5.77,4.99,8.52,7.64c1.98,1.91,3.97,3.87,5.64,6.07c0.28,0.37,0.56,0.75,0.81,1.15
						c0.05,0.07,0.05,0.07,0.11,0.19c0.05,0.08,0.09,0.17,0.14,0.25c0.08,0.14,0.15,0.29,0.21,0.44c0.03,0.06,0.05,0.13,0.07,0.19
						c0.01,0.03,0.02,0.07,0.03,0.1c-0.03-0.11,0,0.01,0.01,0.03c0.01,0.05,0.02,0.1,0.03,0.16c0.01,0.09,0.01-0.07,0,0.01
						c0,0.03,0,0.06-0.01,0.09c0,0.04-0.04,0.23-0.02,0.12c-0.02,0.08-0.04,0.16-0.07,0.24c-0.06,0.19-0.14,0.38-0.22,0.56
						c-0.47,1.03-1.16,2.08-1.83,3.07c-0.99,1.48-2.05,2.91-3.13,4.32c-2.63,3.44-5.39,6.79-8.23,10.06
						c-2.57,2.96-5.19,5.89-7.98,8.64c-0.9,0.89-1.83,1.79-2.83,2.56c-0.34,0.26-0.51,0.4-0.86,0.57c-0.15,0.07-0.23,0.09-0.37,0.08
						c-0.28-0.01-0.48-0.05-0.74-0.13c-0.77-0.23-1.5-0.59-2.21-0.96c-0.93-0.5-1.84-1.04-2.74-1.61c-2.03-1.28-4.01-2.67-5.95-4.08
						c-1.47-1.06-2.92-2.15-4.37-3.24C127.54,61.99,127.16,62.54,127.49,62.79L127.49,62.79z"/>
				</g>
			</g>
		</g>
		<g id="Ebene_7_4_">
			<g class="st14">
				<g>
					<path class="st10" d="M154.87,33.56c0.99,0.98,2.06,1.86,3.11,2.76c0.29,0.25,0.58,0.5,0.86,0.76
						c0.14,0.12,0.28,0.25,0.42,0.37c0.07,0.06,0.14,0.13,0.21,0.19c0.23,0.21-0.19-0.18,0.04,0.04c0.53,0.5,1.05,1.01,1.54,1.56
						c0.23,0.25,0.45,0.51,0.65,0.78c0.09,0.12,0.18,0.25,0.27,0.37c0.04,0.06,0.08,0.12,0.12,0.18c0.17,0.25-0.11-0.2-0.01-0.03
						c0.13,0.24,0.26,0.47,0.35,0.73c0.02,0.05,0.03,0.12,0.06,0.17c-0.04-0.07-0.08-0.33-0.04-0.13c0.02,0.12,0.02,0.26,0.06,0.37
						c-0.02-0.06,0.01-0.36-0.01-0.16c0,0.05-0.01,0.1-0.01,0.16c-0.02,0.3,0.1-0.26,0.02-0.08c-0.04,0.09-0.19,0.41-0.04,0.12
						c0.15-0.29,0.03-0.06-0.01,0.01c-0.04,0.06-0.08,0.13-0.11,0.19c-0.09,0.15-0.18,0.29-0.28,0.43
						c-1.32,1.94-2.86,3.74-4.36,5.53c-2.12,2.54-4.29,5.05-6.46,7.56c-2.05,2.37-4.11,4.73-6.15,7.11
						c-0.21,0.25-0.42,0.49-0.63,0.74c-0.45,0.53-0.25,1.48,0.29,1.83c0.64,0.4,1.33,0.21,1.82-0.36c2-2.35,4.04-4.68,6.06-7.01
						c2.23-2.57,4.46-5.14,6.65-7.75c1.62-1.92,3.27-3.85,4.71-5.91c0.37-0.53,0.82-1.13,0.99-1.76c0.38-1.47-0.33-2.83-1.16-3.94
						c-0.93-1.25-2.11-2.32-3.27-3.36c-1.07-0.96-2.19-1.87-3.26-2.84c-0.05-0.05-0.11-0.1-0.16-0.14
						c-0.16-0.15,0.25,0.23,0.06,0.06c-0.1-0.09-0.2-0.19-0.29-0.28c-0.48-0.47-1.27-0.66-1.83-0.14
						C154.58,32.15,154.35,33.06,154.87,33.56L154.87,33.56z"/>
				</g>
			</g>
			<g class="st14">
				<g>
					<path class="st10" d="M140.78,66.77c-0.13,0.26-0.26,0.53-0.39,0.79c0.8-0.05,1.61-0.1,2.41-0.16
						c-0.15-0.36-0.29-0.73-0.43-1.09c-0.33,0.62-0.66,1.24-0.98,1.87c-0.19,0.02-0.36,0.02-0.54-0.07
						c-0.08-0.02-0.14-0.07-0.19-0.13c-0.09-0.1-0.11-0.11-0.05-0.03c-0.09-0.13-0.14-0.24-0.17-0.4c0.01,0.09,0.01,0.08,0-0.05
						c-0.02-0.11,0-0.22,0.04-0.33c0.45-0.3,0.9-0.6,1.35-0.9c0.02,0,0.31,0.1,0.16,0.03c0.15,0.06,0.26,0.14,0.38,0.26
						c-0.11-0.12,0.07,0.12,0.08,0.14c-0.08-0.14,0.04,0.12,0.04,0.15c0.02,0.15-0.01,0.3-0.05,0.44c0.07-0.23-0.29,0.39-0.28,0.37
						c0.12-0.12-0.11,0.07-0.13,0.09c-0.07,0.02-0.13,0.05-0.2,0.07c-0.22,0-0.28,0.01-0.18,0.01c0.15,0.02-0.29-0.07-0.15-0.03
						c0.06,0.02,0.04,0.01-0.07-0.04c-0.07-0.02-0.14-0.06-0.19-0.12c-0.22-0.2-0.32-0.49-0.25-0.79c0.07-0.28-0.08,0.11,0.06-0.16
						c0.14-0.27-0.1,0.08,0.1-0.15c0.04-0.07,0.1-0.12,0.17-0.15c0.11-0.06,0.13-0.08,0.07-0.05c-0.11,0.05,0.33-0.07,0.12-0.06
						c0.5,0.46,1,0.92,1.5,1.38c0.01-0.13,0.01-0.26,0.02-0.39c0.03-0.69-0.44-1.38-1.17-1.4c-0.68-0.01-1.39,0.5-1.42,1.23
						c-0.01,0.13-0.01,0.26-0.02,0.39c-0.02,0.42,0.1,0.78,0.41,1.06c0.32,0.3,0.67,0.35,1.1,0.32c0.87-0.07,1.59-0.97,1.63-1.81
						c0.05-1-0.72-1.86-1.72-1.86c-0.96,0-1.91,0.73-1.93,1.76c-0.02,1,0.67,1.87,1.68,1.93c0.57,0.04,1.14-0.35,1.35-0.9
						c0.22-0.6,0.12-1.3-0.28-1.77c-0.43-0.52-1.01-0.7-1.67-0.63c-0.87,0.09-1.27,1.15-0.98,1.87c0.15,0.36,0.29,0.73,0.43,1.09
						c0.19,0.48,0.73,0.76,1.23,0.73c0.56-0.04,0.93-0.39,1.18-0.89c0.13-0.26,0.26-0.53,0.39-0.79c0.14-0.28,0.09-0.73-0.03-0.99
						c-0.13-0.3-0.42-0.59-0.74-0.68c-0.32-0.09-0.68-0.1-0.98,0.06C141.14,66.18,140.95,66.43,140.78,66.77L140.78,66.77z"/>
				</g>
			</g>
		</g>
		<g id="Ebene_2_6_">
			<g>
				<g>
					<path d="M124.11,64.01c3.49,2.63,7,5.26,10.71,7.57c0.89,0.56,1.8,1.09,2.74,1.57c0.75,0.38,1.51,0.77,2.33,0.98
						c0.63,0.16,1.27,0.23,1.89-0.06c0.4-0.19,0.77-0.46,1.12-0.72c1.02-0.78,1.95-1.68,2.86-2.58c1.31-1.29,2.58-2.63,3.83-3.98
						c3.03-3.29,5.96-6.68,8.79-10.15c2.46-3.02,4.91-6.08,7.06-9.33c0.69-1.04,1.38-2.11,1.86-3.26c0.15-0.37,0.29-0.77,0.31-1.16
						c0.02-0.42-0.11-0.82-0.26-1.2c-0.35-0.84-0.91-1.6-1.45-2.31c-0.76-0.99-1.59-1.92-2.44-2.82c-2.39-2.55-4.95-4.93-7.55-7.25
						c-3.13-2.8-6.35-5.51-9.62-8.14c-3.4-2.73-6.85-5.39-10.38-7.95c-3.15-2.28-6.35-4.49-9.66-6.53
						c-2.47-1.52-5.02-3.03-7.74-4.05c-0.87-0.33-1.8-0.62-2.73-0.67c-1.08-0.05-2.03,0.39-2.91,1.03c-1.24,0.89-2.27,2.11-3.21,3.3
						c-1.22,1.54-2.31,3.18-3.34,4.85c-2.42,3.89-4.54,7.97-6.52,12.09c-1.61,3.35-3.16,6.76-4.41,10.26
						c-0.33,0.93-0.71,1.92-0.81,2.9c-0.08,0.72,0.18,1.47,0.51,2.09c0.54,1.02,1.3,1.88,2.12,2.66c1.95,1.86,4.16,3.39,6.22,5.12
						c0.23,0.19,0.45,0.38,0.67,0.58c0.06,0.05,0.12,0.1,0.18,0.16c0.03,0.03,0.23,0.21,0.04,0.03c0.11,0.1,0.22,0.21,0.33,0.31
						c0.4,0.39,0.79,0.8,1.13,1.25c0.07,0.08,0.13,0.17,0.19,0.26c0.04,0.05,0.07,0.11,0.11,0.15c0.08,0.09-0.13-0.26-0.09-0.14
						c0.04,0.1,0.1,0.19,0.14,0.29c0.05,0.12,0.08,0.24,0.12,0.35c0.09,0.27-0.05-0.2,0.01,0.03c0.03,0.1,0.05,0.2,0.08,0.29
						c0.49,1.89,0.76,3.86,1.09,5.79c0.36,2.14,0.71,4.3,1.27,6.39c0.21,0.76,0.42,1.55,0.8,2.24c0.18,0.32,0.38,0.63,0.68,0.86
						c0.3,0.22,0.64,0.3,1,0.36c0.84,0.15,1.71,0.15,2.56,0.15c1.3-0.01,2.6-0.08,3.89-0.2c2.46-0.22,4.98-0.54,7.33-1.4
						c0.5-0.18,0.7-0.87,0.5-1.32c-0.23-0.52-0.79-0.64-1.29-0.46c-0.07,0.02-0.47,0.16-0.2,0.07c-0.12,0.04-0.24,0.08-0.36,0.11
						c-0.28,0.08-0.57,0.16-0.86,0.23c-0.62,0.15-1.24,0.27-1.86,0.38c-1.31,0.22-2.64,0.38-3.96,0.48
						c-0.14,0.01-0.28,0.02-0.43,0.03c-0.03,0-0.31,0.02-0.09,0.01c-0.08,0.01-0.17,0.01-0.25,0.02c-0.32,0.02-0.65,0.04-0.97,0.05
						c-0.56,0.02-1.13,0.03-1.69,0.03c-0.46,0-0.91-0.02-1.37-0.05c-0.17-0.01-0.34-0.03-0.51-0.05c-0.07-0.01-0.16-0.04-0.23-0.04
						c0.26-0.02,0.17,0.04,0.02,0c-0.05-0.01-0.1-0.04-0.15-0.05c-0.18-0.04,0.15,0.09,0.12,0.06c-0.02-0.02-0.08-0.07-0.11-0.08
						c0.23,0.09,0.17,0.18,0.07,0.05c-0.03-0.05-0.07-0.09-0.1-0.14c-0.13-0.16,0.13,0.23,0.03,0.05c-0.07-0.13-0.14-0.27-0.2-0.4
						c-0.14-0.33-0.26-0.67-0.36-1.01c-0.02-0.06-0.09-0.24,0.01,0.03c-0.02-0.05-0.03-0.11-0.05-0.16c-0.03-0.1-0.06-0.2-0.08-0.3
						c-0.06-0.23-0.12-0.47-0.18-0.7c-0.51-2.13-0.86-4.31-1.22-6.47c-0.32-1.86-0.58-3.77-1.13-5.57c-0.21-0.7-0.57-1.25-1.03-1.81
						c-0.81-0.96-1.77-1.79-2.73-2.58c-1.01-0.84-2.05-1.63-3.08-2.44c-0.51-0.4-1.01-0.81-1.51-1.23
						c-0.23-0.19-0.45-0.39-0.67-0.59c-0.06-0.05-0.12-0.11-0.18-0.16c-0.19-0.17,0.1,0.1-0.01-0.01c-0.12-0.12-0.24-0.23-0.36-0.35
						c-0.39-0.39-0.77-0.79-1.11-1.23c-0.15-0.19-0.28-0.39-0.42-0.59c-0.13-0.18,0.1,0.2,0,0c-0.03-0.05-0.06-0.11-0.09-0.16
						c-0.06-0.1-0.11-0.21-0.16-0.32c-0.05-0.1-0.09-0.21-0.13-0.32c-0.01-0.03-0.02-0.07-0.04-0.11c-0.07-0.19,0.04,0.22,0.01,0.03
						c-0.03-0.14-0.03-0.33-0.08-0.47c0.09,0.26-0.01,0.29,0.01,0.16c0-0.02,0-0.05,0-0.07c0-0.07,0.02-0.14,0.03-0.21
						c0.01-0.08,0.03-0.15,0.04-0.23c0.04-0.23-0.04,0.17-0.02,0.09c0.01-0.05,0.02-0.1,0.04-0.15c0.06-0.22,0.12-0.45,0.19-0.67
						c0.18-0.58,0.37-1.15,0.58-1.71c0.57-1.55,1.2-3.08,1.86-4.6c0.82-1.9,1.69-3.78,2.59-5.64c0.5-1.03,1-2.05,1.52-3.07
						c0.12-0.24,0.25-0.48,0.37-0.72c0.03-0.06,0.22-0.42,0.08-0.16c0.08-0.15,0.16-0.31,0.24-0.46c0.26-0.5,0.53-1,0.8-1.5
						c1.94-3.59,4.01-7.19,6.58-10.38c0.26-0.32,0.52-0.64,0.8-0.95c0.06-0.07,0.28-0.28,0.02-0.02c0.07-0.07,0.13-0.14,0.2-0.22
						c0.13-0.14,0.26-0.27,0.39-0.41c0.45-0.45,0.92-0.86,1.44-1.22c0.03-0.02,0.06-0.04,0.09-0.06c0.01-0.01-0.24,0.15-0.13,0.08
						c0.06-0.03,0.12-0.07,0.18-0.11c0.11-0.07,0.23-0.13,0.34-0.18c0.1-0.05,0.2-0.09,0.31-0.13c0.18-0.08-0.28,0.08-0.05,0.02
						c0.05-0.01,0.11-0.03,0.16-0.04c0.06-0.01,0.13-0.02,0.19-0.03c0.04-0.01,0.07-0.01,0.11-0.01c0.04-0.01-0.32,0.01-0.11,0.01
						c0.16,0,0.32,0,0.49,0.02c0.09,0.01,0.17,0.02,0.26,0.03c0.05,0.01,0.1,0.02,0.15,0.02c0.24,0.04-0.14-0.03-0.07-0.02
						c0.21,0.05,0.41,0.09,0.61,0.15c0.49,0.14,0.96,0.31,1.43,0.5c0.55,0.22,1.09,0.46,1.62,0.71c0.14,0.07,0.28,0.13,0.42,0.2
						c0.06,0.03,0.13,0.06,0.19,0.1c0.04,0.02,0.08,0.04,0.12,0.06c0.22,0.11-0.18-0.1-0.03-0.02c0.31,0.16,0.62,0.32,0.93,0.49
						c3.03,1.63,5.93,3.52,8.78,5.46c3.42,2.34,6.76,4.79,10.05,7.31c3.41,2.62,6.76,5.31,10.04,8.09c1.53,1.29,3.04,2.61,4.53,3.94
						c0.71,0.64,1.42,1.27,2.12,1.93c-0.19-0.18-0.02-0.01,0.07,0.06c0.09,0.08,0.17,0.16,0.26,0.24c0.17,0.16,0.34,0.32,0.51,0.47
						c0.31,0.3,0.63,0.59,0.94,0.89c1.99,1.91,3.98,3.88,5.66,6.07c0.29,0.37,0.56,0.75,0.81,1.14c0.02,0.04,0.05,0.08,0.07,0.11
						c-0.22-0.32-0.09-0.14-0.04-0.06c0.05,0.08,0.1,0.17,0.14,0.25c0.08,0.14,0.15,0.29,0.22,0.45c0.03,0.06,0.05,0.13,0.08,0.19
						c0.01,0.03,0.02,0.06,0.03,0.09c0.06,0.16-0.07-0.3-0.03-0.12c0.01,0.05,0.02,0.11,0.04,0.16c0.05,0.19,0.04-0.32,0-0.07
						c-0.01,0.06-0.02,0.12-0.03,0.18c0.02-0.31,0.04-0.17-0.01,0c-0.06,0.18-0.13,0.36-0.2,0.53c-0.04,0.1-0.09,0.19-0.14,0.29
						c-0.03,0.06-0.06,0.11-0.08,0.17c-0.12,0.24,0.12-0.22,0.02-0.03c-0.13,0.25-0.27,0.49-0.41,0.74
						c-0.35,0.6-0.73,1.19-1.12,1.77c-0.98,1.46-2.02,2.87-3.09,4.27c-2.63,3.45-5.4,6.8-8.24,10.07c-0.71,0.82-1.43,1.64-2.15,2.44
						c-0.35,0.39-0.7,0.78-1.05,1.17c-0.04,0.04-0.2,0.22,0,0c-0.04,0.04-0.07,0.08-0.11,0.12c-0.08,0.09-0.16,0.18-0.25,0.27
						c-0.18,0.19-0.36,0.39-0.53,0.58c-1.22,1.32-2.46,2.63-3.74,3.89c-0.91,0.89-1.83,1.78-2.84,2.56
						c-0.16,0.13-0.34,0.24-0.5,0.36c0.33-0.25,0.09-0.06-0.01,0c-0.07,0.04-0.13,0.07-0.2,0.1c-0.03,0.01-0.06,0.02-0.08,0.04
						c-0.13,0.07,0.28-0.05,0.12-0.04c-0.04,0-0.11,0.01-0.15,0.02c-0.08,0.02-0.15-0.12,0.17-0.01c-0.03-0.01-0.08,0-0.11,0
						c-0.12-0.01-0.23-0.03-0.35-0.04c-0.16-0.02,0.26,0.07,0.11,0.02c-0.04-0.01-0.07-0.02-0.11-0.03
						c-0.08-0.02-0.15-0.04-0.23-0.06c-0.35-0.1-0.68-0.24-1.01-0.38c-0.18-0.08-0.37-0.17-0.55-0.25c-0.07-0.03-0.44-0.2-0.14-0.07
						c-0.11-0.05-0.22-0.11-0.32-0.17c-0.95-0.5-1.86-1.06-2.77-1.63c-2.02-1.28-3.99-2.66-5.93-4.07
						c-1.47-1.07-2.93-2.16-4.38-3.25c-0.42-0.31-1.06-0.16-1.36,0.27C123.57,63.1,123.69,63.7,124.11,64.01L124.11,64.01z"/>
				</g>
			</g>
		</g>
		<g id="Ebene_10_3_">
			<g>
				<g>
					<path class="st10" d="M128.05,18.9c0.88,5.53,1.66,11.08,2.36,16.65c0.69,5.47,1.31,10.96,1.89,16.45
						c0.32,3.05,0.63,6.1,0.94,9.16c0.12,1.2,1.45,2.1,2.61,1.82c1.27-0.31,2.01-1.43,1.89-2.71c-0.54-5.44-1.11-10.89-1.72-16.32
						c-0.62-5.52-1.3-11.04-2.07-16.54c-0.44-3.14-0.9-6.27-1.4-9.39c-0.19-1.19-1.4-2.11-2.61-1.82
						C128.73,16.49,127.85,17.64,128.05,18.9L128.05,18.9z"/>
				</g>
			</g>
			<g>
				<g>
					<path class="st10" d="M111.91,45.6c6.06-1.2,12.1-2.47,18.13-3.84c4.46-1.02,8.91-2.08,13.38-3.06
						c2.96-0.65,5.93-1.27,8.9-1.85c1.18-0.23,2.13-1.5,1.89-2.71c-0.25-1.21-1.35-2.07-2.61-1.82c-4.94,0.98-9.87,2.05-14.78,3.18
						c-4.77,1.1-9.53,2.22-14.31,3.25c-3.76,0.81-7.53,1.58-11.31,2.33c-1.18,0.23-2.13,1.5-1.89,2.71
						C109.55,45,110.65,45.85,111.91,45.6L111.91,45.6z"/>
				</g>
			</g>
		</g>
		<g id="Ebene_9_4_">
			<g class="st15">
				<path d="M117.4,2.48c-10.71,15.37-6.9,45.01-2.13,62.1c-1.66-0.58-1.99-3.83-3.29-8.49c-1.84-6.58-0.32-6.17-2.03-8.85
					c-1.42-2.22-4.02-3.7-6.12-5.27c-1.94-1.45-4.16-3.54-4.71-5.46c-0.72-2.54,8.39-21.98,16.18-32.41"/>
				<g>
					<path d="M116.87,2.12c-2.22,3.19-3.74,6.83-4.78,10.55c-1.15,4.12-1.77,8.37-2.04,12.61c-0.29,4.5-0.22,9.01,0.1,13.48
						c0.31,4.41,0.86,8.8,1.62,13.14c0.67,3.89,1.51,7.76,2.52,11.56c0.11,0.42,0.23,0.84,0.34,1.26c0.29-0.25,0.58-0.5,0.87-0.75
						c-0.04-0.02-0.09-0.03-0.13-0.05c0.16,0.07,0.02,0.01-0.01-0.01c-0.07-0.04-0.13-0.09-0.19-0.14
						c-0.14-0.11,0.03,0.06-0.09-0.09c-0.07-0.08-0.14-0.16-0.2-0.25c-0.03-0.05-0.06-0.09-0.09-0.14c0.07,0.11,0,0-0.02-0.03
						c-0.05-0.1-0.11-0.2-0.16-0.3c-0.11-0.23-0.2-0.46-0.29-0.7c-0.46-1.27-0.74-2.61-1.07-3.92c-0.64-2.57-1.46-5.09-1.65-7.77
						c-0.04-0.53-0.04-1.08-0.16-1.6c-0.14-0.65-0.43-1.24-0.77-1.8c-1.68-2.77-4.61-4.24-7.07-6.2c-1.12-0.89-2.19-1.88-3.03-3.05
						c-0.35-0.48-0.63-1-0.82-1.57c-0.03-0.08,0.01,0.1-0.01-0.04c0-0.03-0.01-0.06-0.01-0.09c-0.02-0.1,0.04-0.12,0,0.04
						c0.01-0.04,0-0.1,0-0.14c0.01-0.22,0.04-0.43,0.08-0.64c0.01-0.07,0.03-0.14,0.04-0.21c0.01-0.05,0.06-0.26,0.01-0.05
						c0.04-0.15,0.07-0.29,0.11-0.44c0.19-0.72,0.43-1.44,0.68-2.14c1.56-4.36,3.62-8.57,5.76-12.68c2.51-4.82,5.23-9.58,8.37-14.02
						c0.34-0.48,0.69-0.96,1.05-1.44c0.51-0.69-0.54-1.42-1.05-0.74c-3.25,4.36-6.02,9.09-8.58,13.87c-2.35,4.4-4.59,8.9-6.38,13.55
						c-0.54,1.4-1.08,2.84-1.32,4.32c-0.08,0.51-0.08,0.98,0.08,1.47c0.43,1.31,1.38,2.43,2.33,3.37c1.1,1.11,2.33,2.06,3.6,2.96
						c1.31,0.92,2.67,1.81,3.79,2.97c0.28,0.28,0.54,0.58,0.78,0.9c0.11,0.14,0.21,0.29,0.31,0.44c0.04,0.06,0.08,0.13,0.12,0.19
						c0.07,0.11-0.04-0.07,0.04,0.07c0.17,0.29,0.34,0.59,0.46,0.91c0.02,0.06,0.04,0.12,0.07,0.18c0.03,0.08,0.06,0.2,0.02,0.04
						c0.03,0.13,0.07,0.26,0.09,0.4c0.04,0.25,0.06,0.51,0.08,0.77c0.05,0.78,0.11,1.56,0.23,2.34c0.23,1.48,0.63,2.92,1.01,4.36
						c0.42,1.55,0.76,3.12,1.2,4.67c0.29,1.02,0.6,2.13,1.28,2.95c0.29,0.34,0.64,0.6,1.06,0.76c0.42,0.16,1-0.27,0.87-0.75
						c-1.03-3.68-1.88-7.43-2.57-11.2c-0.79-4.25-1.38-8.54-1.76-12.86c-0.38-4.4-0.53-8.83-0.34-13.27
						c0.18-4.2,0.66-8.43,1.67-12.55c0.91-3.7,2.24-7.36,4.26-10.59c0.24-0.39,0.49-0.76,0.75-1.14
						C118.42,2.15,117.36,1.41,116.87,2.12L116.87,2.12z"/>
				</g>
			</g>
		</g>
	</g>
</g>
<g id="Ebene_19_1_">
</g>
</svg>
