<?xml version="1.0" encoding="utf-8"?>
<!-- Generator: Adobe Adobe Illustrator 24.2.0, SVG Export Plug-In . SVG Version: 6.00 Build 0)  -->
<svg version="1.1" xmlns="http://www.w3.org/2000/svg" xmlns:xlink="http://www.w3.org/1999/xlink" x="0px" y="0px"
	 viewBox="0 0 170.08 170.08" style="enable-background:new 0 0 170.08 170.08;" xml:space="preserve">
<style type="text/css">
	.st0{fill:#91625D;}
	.st1{fill:#F0C2A1;}
	.st2{fill:#91625D;stroke:#000000;stroke-width:0.9912;stroke-miterlimit:10;}
	.st3{fill:#438993;}
	.st4{fill:#448893;}
	.st5{stroke:#000000;stroke-width:1.2504;stroke-miterlimit:10;}
	.st6{fill:none;stroke:#FFFFFF;stroke-width:1.0591;stroke-miterlimit:10;}
	.st7{opacity:0.0784;}
	.st8{opacity:0.1098;}
	.st9{opacity:0.1686;}
	.st10{fill:#FFFFFF;}
	.st11{fill:#ECC9AD;}
	.st12{opacity:0.1608;}
	.st13{fill:#F0F6FA;}
	.st14{opacity:0.149;}
	.st15{opacity:0.0314;}
	.st16{stroke:#000000;stroke-width:0.0568;stroke-miterlimit:10;}
	.st17{fill:#C8354F;}
	.st18{fill:#C93550;}
	.st19{fill:#6DB671;}
	.st20{fill:#6CB671;}
	.st21{fill:#D1DFEA;}
	.st22{fill:#D3E1ED;}
	.st23{fill:#C8354E;}
	.st24{fill:#F3C058;}
	.st25{fill:#C8AE9D;}
	.st26{opacity:0.1412;}
	.st27{fill:#D15238;}
	.st28{fill:#D15239;}
	.st29{fill:#ADBECF;}
	.st30{fill:#F3C057;}
	.st31{fill:#F7D98D;}
	.st32{fill:#AEBFCE;}
	.st33{opacity:0.2706;}
	.st34{fill:#3D4C5B;}
</style>
<g id="Ebene_4_5_">
</g>
<g id="Ebene_6_11_">
</g>
<g id="Ebene_15_1_">
	<g>
		<path class="st0" d="M24.75,79.09C28.5,44.06,12.11,9.05,70.18,6c55.47-2.91,42.26,43.52,42.26,72.7
			c-28.76,9.29-58.19,17-86.96,0.35"/>
		<g>
			<path d="M25.75,79.09c1.4-13.24-0.33-26.57,0.87-39.81c0.5-5.52,1.67-11.13,4.51-15.96c3.08-5.23,7.96-8.91,13.47-11.31
				c8.43-3.66,17.99-4.75,27.1-5.09c7.93-0.3,16.35,0.25,23.68,3.57c5.24,2.38,9.58,6.19,12.4,11.22
				c2.76,4.93,4.04,10.59,4.61,16.17c1.25,12.21-0.45,24.47-0.87,36.68c-0.05,1.38-0.07,2.75-0.08,4.13
				c0.24-0.32,0.49-0.64,0.73-0.96c-21.5,6.94-44.61,13.52-67.21,8.08c-6.67-1.61-13.03-4.21-18.98-7.63
				c-1.12-0.64-2.13,1.09-1.01,1.73c10.44,6,22.07,9.34,34.1,9.84c11.62,0.49,23.21-1.5,34.42-4.39c6.47-1.67,12.85-3.65,19.21-5.7
				c0.42-0.14,0.73-0.51,0.73-0.96c0.01-12.5,1.95-24.95,1.21-37.47c-0.69-11.75-4.12-23.9-14.65-30.52
				c-6.31-3.97-13.91-5.4-21.25-5.76C73.53,4.7,68.28,4.99,63.09,5.56c-4.64,0.51-9.27,1.3-13.74,2.63
				C42.92,10.1,36.62,13.23,32.2,18.4c-3.75,4.39-5.84,9.82-6.86,15.45c-1.12,6.23-1.15,12.61-1.08,18.92
				c0.08,7.01,0.31,14.02-0.08,21.03c-0.1,1.77-0.24,3.53-0.42,5.29C23.62,80.37,25.62,80.36,25.75,79.09L25.75,79.09z"/>
		</g>
	</g>
</g>
<g id="Ebene_7_5_">
	<g>
		<path class="st1" d="M26.36,55.72c-7.29-0.52-15.54,8.08-14.41,15.16c1.13,7.08,9.82,11.91,16.59,9.24
			c3.72,14.87,15.69,27.49,30.55,32.2c-1.43,7.54-3.29,13.28-4.72,20.82c7.89,5.27,18.59,8.13,26.11-0.48
			c-0.9-7.13-2.86-11.86-3.77-18.99c14.79-5.38,28.13-19.5,31.51-34.6c6.99,2.66,16.36-0.19,16.72-10.27
			c0.27-7.35-6.85-11.94-14.26-12.41c0-16.71-7.53-36.32-7.53-36.32s-16.52,8.49-71.59,14.29"/>
		<g>
			<path class="st1" d="M26.36,54.66c-6.43-0.35-12.51,4.91-14.74,10.66C9.25,71.46,12.7,77.8,18.45,80.5
				c3.24,1.52,6.99,1.91,10.38,0.63c-0.43-0.25-0.87-0.49-1.3-0.74c3.04,11.95,11.12,22.34,21.68,28.63c3.02,1.8,6.25,3.24,9.6,4.31
				c-0.25-0.43-0.49-0.87-0.74-1.3c-1.34,6.99-3.38,13.82-4.72,20.82c-0.09,0.49,0.07,0.92,0.49,1.2c4.9,3.24,10.88,5.73,16.87,5.03
				c2.99-0.35,5.75-1.52,8.12-3.38c1.16-0.92,2.85-2.04,2.63-3.66c-0.26-1.94-0.62-3.86-1.04-5.77c-0.93-4.2-2.08-8.34-2.64-12.61
				c-0.26,0.34-0.52,0.68-0.78,1.02c12.11-4.47,22.63-13.85,28.55-25.32c1.64-3.17,2.91-6.53,3.71-10.02
				c-0.43,0.25-0.87,0.49-1.3,0.74c5.15,1.91,11.66,1.08,15.28-3.35c4.25-5.2,3.53-13.12-1.65-17.37
				c-3.07-2.52-6.96-3.75-10.88-4.04c0.35,0.35,0.71,0.71,1.06,1.06c-0.03-8.29-1.62-16.56-3.76-24.54
				c-1.09-4.06-2.3-8.13-3.81-12.06c-0.25-0.66-0.9-0.97-1.56-0.63c-0.16,0.08-0.32,0.16-0.49,0.23c-0.21,0.1-0.43,0.19-0.64,0.28
				c0.32-0.14-0.07,0.03-0.19,0.08c-0.17,0.07-0.35,0.14-0.52,0.21c-2.23,0.88-4.51,1.63-6.8,2.32
				c-10.32,3.12-20.97,5.19-31.61,6.94c-10.22,1.68-20.5,2.99-30.81,4.08c-1.34,0.14-1.36,2.26,0,2.12
				c16.22-1.71,32.45-3.9,48.39-7.38c7.05-1.54,14.15-3.26,20.9-5.85c0.95-0.37,1.92-0.73,2.83-1.2c-0.52-0.21-1.04-0.42-1.56-0.63
				c1.47,3.83,2.65,7.78,3.72,11.73c2.14,7.91,3.74,16.09,3.77,24.31c0,0.6,0.49,1.02,1.06,1.06c5.55,0.41,12.23,3.46,13.12,9.61
				c0.76,5.26-2.33,10.26-7.5,11.54c-2.59,0.64-5.31,0.37-7.8-0.55c-0.52-0.19-1.18,0.22-1.3,0.74
				c-3.51,15.29-16.2,28.49-30.77,33.86c-0.39,0.14-0.84,0.54-0.78,1.02c0.84,6.42,2.93,12.58,3.77,18.99
				c0.1-0.25,0.21-0.5,0.31-0.75c-3.21,3.61-7.49,5.48-12.33,5.13c-4.51-0.33-8.77-2.34-12.49-4.81c0.16,0.4,0.32,0.8,0.49,1.2
				c1.34-6.99,3.38-13.82,4.72-20.82c0.11-0.58-0.16-1.12-0.74-1.3c-14.42-4.63-26.06-16.75-29.81-31.46
				c-0.13-0.52-0.77-0.94-1.3-0.74c-6.23,2.35-14.79-1.91-15.34-8.96c-0.52-6.71,6.86-13.71,13.43-13.36
				C27.73,56.85,27.72,54.73,26.36,54.66L26.36,54.66z"/>
		</g>
	</g>
</g>
<g id="Ebene_20">
	<path class="st2" d="M51.22,90.43c-1.08-1.28,6.91-7.19,17.19-7.19c12.29,0,16.61,6.33,16.15,7.09
		c-1.43,2.39-11.48-2.19-16.15-2.19C64.85,88.14,53.25,92.85,51.22,90.43z"/>
</g>
<g id="Ebene_10_4_">
	<g>
		<path class="st3" d="M15.42,157.52c0.71-3.55,2.76-6.73,5.21-9.44c8.19-9.07,20.63-13.36,32.84-15.14
			c0.32,1.08,1.3,1.82,2.25,2.44c4.16,2.7,9.04,4.57,14.03,4.36c4.98-0.21,10.02-2.77,12.28-7.13c16.06,2.08,31.17,10.47,41.25,22.9
			c1.02,1.26,2.03,2.65,2.12,4.25c-4.1-0.38-8.18,0.62-12.19,1.5c-15.07,3.28-30.51,4.93-45.95,4.9
			c-5.41-0.01-10.82-0.23-16.23-0.44c-2.93-0.12-5.87-0.23-8.77-0.68c-3.04-0.46-6.01-1.28-8.96-2.14
			c-5.86-1.69-11.67-3.54-17.43-5.52"/>
		<g>
			<path class="st4" d="M16.44,157.8c1.66-7.68,8.79-13.46,15.37-17.04c6.78-3.69,14.36-5.67,21.95-6.8
				c-0.43-0.25-0.87-0.49-1.3-0.74c1.03,2.76,4.47,4.27,6.98,5.39c2.97,1.32,6.17,2.18,9.44,2.2c5.59,0.04,11.35-2.64,14.07-7.67
				c-0.3,0.17-0.61,0.35-0.91,0.52c8.48,1.13,16.7,4.04,24.05,8.41c3.66,2.18,7.1,4.72,10.24,7.59c1.55,1.42,3.03,2.92,4.43,4.49
				c1.39,1.56,3.36,3.42,3.59,5.61c0.35-0.35,0.71-0.71,1.06-1.06c-3.59-0.29-7.12,0.37-10.62,1.13c-3.48,0.75-6.96,1.48-10.46,2.1
				c-7.11,1.24-14.28,2.12-21.48,2.63c-7.24,0.51-14.49,0.63-21.74,0.45c-7.25-0.18-14.8-0.02-21.9-1.63
				c-7.8-1.77-15.49-4.42-23.05-7.01c-1.29-0.44-1.85,1.6-0.56,2.04c6.82,2.35,13.72,4.59,20.7,6.43c7.09,1.87,14.34,1.96,21.62,2.2
				c14.44,0.48,28.84-0.19,43.13-2.43c4.01-0.63,8-1.37,11.97-2.23c4.09-0.88,8.17-1.9,12.39-1.56c0.53,0.04,1.12-0.52,1.06-1.06
				c-0.36-3.47-3.39-6.29-5.68-8.69c-2.43-2.54-5.07-4.86-7.88-6.96c-5.72-4.3-12.17-7.64-18.97-9.87
				c-3.88-1.27-7.85-2.15-11.89-2.68c-0.35-0.05-0.76,0.23-0.91,0.52c-2.3,4.25-7.08,6.53-11.8,6.62c-2.69,0.05-5.34-0.54-7.84-1.51
				c-1.35-0.53-2.65-1.18-3.9-1.91c-1.08-0.63-2.61-1.36-3.08-2.61c-0.22-0.59-0.69-0.83-1.3-0.74c-8.03,1.19-16.04,3.38-23.15,7.4
				c-6.78,3.84-13.94,9.97-15.65,17.92C14.11,158.57,16.15,159.14,16.44,157.8L16.44,157.8z"/>
		</g>
	</g>
</g>
<g id="Ebene_5_10_">
	<g>
		<g>
			<path d="M30.56,32.48c-4.66,17.56-7.19,37.22-1.08,54.76c3.89,11.17,11.64,20.94,22.66,25.68c10.6,4.56,22.8,3.88,33.13-1.16
				c13.78-6.72,21.57-20.78,24.66-35.31c2.05-9.66,2.65-20.06,1.46-29.87c-1.05-8.66-3.5-17.19-6.61-25.32
				c-0.19-0.5-0.38-1-0.59-1.49c-0.2-0.5-0.71-0.95-1.3-0.74c-4.49,1.63-9.12,2.93-13.73,4.17c-11.07,2.96-22.35,5.21-33.73,6.59
				c-7.92,0.96-15.88,1.49-23.86,1.51c-1.36,0-1.37,2.12,0,2.12c22.67-0.03,45.54-4.01,67.16-10.78c1.58-0.49,3.15-1,4.71-1.56
				c-0.43-0.25-0.87-0.49-1.3-0.74c2.42,5.87,4.28,12.04,5.68,18.22c2.25,9.95,2.45,20.26,1.22,30.37
				c-1.79,14.69-7.66,30.02-20.46,38.5c-9.34,6.19-21.45,8.22-32.19,4.84c-10.61-3.34-18.74-11.54-23.28-21.55
				c-6.94-15.33-5.84-33.37-2.48-49.43c0.58-2.76,1.24-5.51,1.97-8.24C32.95,31.72,30.91,31.16,30.56,32.48L30.56,32.48z"/>
		</g>
	</g>
	<g>
		<g>
			<path d="M26.36,54.66c-5.93,0.03-12.23,1.95-14.78,7.81c-1.28,2.93-1.84,6.87-0.89,9.97c0.98,3.21,3.54,5.77,6.34,7.5
				c3.24,2.01,7.17,3.13,10.97,2.45c1.34-0.24,0.77-2.28-0.56-2.04c-5.4,0.97-12.33-2.69-14.45-7.79c-1.1-2.63-0.65-6.13,0.33-8.75
				c0.85-2.27,2.49-4.1,4.61-5.26c2.57-1.4,5.56-1.77,8.45-1.79C27.73,56.77,27.73,54.65,26.36,54.66L26.36,54.66z"/>
		</g>
	</g>
	<g>
		<g>
			<path d="M112.62,57.46c5.67-1.52,10.18,2.78,10.91,8.23c0.59,4.38-0.47,10.46-4.79,12.67c-2.77,1.42-6.14,0.99-9.05,0.27
				c-1.32-0.33-1.89,1.72-0.56,2.04c3.18,0.78,6.69,1.17,9.8-0.09c2.42-0.98,4.25-2.88,5.31-5.25c2.51-5.59,2.29-13.67-2.67-17.88
				c-2.67-2.26-6.15-2.94-9.51-2.04C110.75,55.77,111.3,57.81,112.62,57.46L112.62,57.46z"/>
		</g>
	</g>
	<g>
		<g>
			<path d="M60.91,92.88c3.03,5.59,12.07,6.45,16.06,1.47c0.36-0.45,0.43-1.06,0-1.5c-0.37-0.37-1.14-0.45-1.5,0
				c-3.14,3.93-10.3,3.45-12.73-1.04C62.09,90.61,60.26,91.68,60.91,92.88L60.91,92.88z"/>
		</g>
	</g>
	<g>
		<g>
			<path d="M66.68,67.69c0.27-0.07,0.54-0.14,0.81-0.17c-0.23,0.03,0.12-0.01,0.18-0.01c0.15-0.01,0.31-0.02,0.46-0.01
				c0.25,0,0.49,0.02,0.74,0.05c-0.25-0.03,0.17,0.04,0.22,0.05c0.15,0.03,0.3,0.07,0.44,0.11c0.12,0.03,0.23,0.08,0.34,0.11
				c0.05,0.02,0.24,0.1,0.04,0.01c0.05,0.02,0.11,0.05,0.16,0.08c0.24,0.12,0.47,0.26,0.7,0.41c0.16,0.11,0.03,0.02,0,0
				c0.05,0.04,0.09,0.08,0.14,0.11c0.1,0.09,0.2,0.18,0.29,0.28c0.03,0.03,0.3,0.34,0.16,0.16c0.08,0.11,0.16,0.22,0.23,0.34
				c0.07,0.12,0.13,0.24,0.2,0.37c0.02,0.03,0.08,0.18,0.01,0.01c0.02,0.06,0.05,0.12,0.07,0.18c0.04,0.12,0.08,0.25,0.11,0.38
				c0.02,0.08,0.04,0.17,0.06,0.25c0.01,0.06,0.04,0.23,0.02,0.08c0.04,0.3,0.05,0.6,0.03,0.9c0.02-0.24-0.01,0-0.04,0.1
				c-0.01,0.05-0.04,0.1-0.05,0.15c-0.05,0.23,0.1-0.16-0.02,0.04c-0.05,0.09-0.1,0.19-0.16,0.28c-0.03,0.05-0.06,0.09-0.09,0.14
				c0.12-0.17,0.04-0.05,0.01-0.02c-0.09,0.1-0.18,0.19-0.27,0.28c-0.04,0.04-0.09,0.08-0.13,0.12c-0.06,0.05-0.05,0.04,0.04-0.02
				c-0.04,0.03-0.07,0.05-0.11,0.08c-0.22,0.15-0.46,0.29-0.7,0.4c0.17-0.08-0.15,0.05-0.21,0.07c-0.16,0.05-0.33,0.1-0.5,0.14
				c-0.07,0.02-0.14,0.03-0.21,0.04c-0.32,0.06,0.18,0-0.15,0.02c-0.18,0.01-0.37,0.02-0.55,0.02c-0.44,0-0.6-0.03-1-0.12
				c-0.86-0.2-1.6-0.61-2.32-1.14c-0.46-0.34-1.18-0.08-1.45,0.38c-0.31,0.54-0.08,1.11,0.38,1.45c1.47,1.09,3.33,1.72,5.16,1.5
				c1.55-0.19,3.03-0.91,3.92-2.23c0.84-1.25,0.69-2.92,0.13-4.25c-0.57-1.34-1.65-2.33-2.98-2.89c-1.46-0.62-3.13-0.69-4.66-0.26
				C64.8,66.02,65.36,68.06,66.68,67.69L66.68,67.69z"/>
		</g>
	</g>
	<g>
		<g>
			<path d="M45.89,51.48c0.94-1.71,2.9-2.56,4.81-2.8c1.8-0.23,3.8-0.04,5.2,1.04c0.45,0.35,1.19,0.07,1.45-0.38
				c0.32-0.55,0.07-1.1-0.38-1.45c-1.85-1.42-4.54-1.58-6.76-1.26c-2.45,0.35-4.92,1.55-6.15,3.79
				C43.41,51.61,45.23,52.68,45.89,51.48L45.89,51.48z"/>
		</g>
	</g>
	<g>
		<g>
			<path d="M79.09,50.16c3.02-2.32,8.28-1.98,10.54,1.32c0.77,1.12,2.6,0.06,1.83-1.07c-2.86-4.17-9.44-5.15-13.44-2.08
				c-0.45,0.35-0.69,0.91-0.38,1.45C77.9,50.23,78.64,50.51,79.09,50.16L79.09,50.16z"/>
		</g>
	</g>
	<ellipse class="st5" cx="55.1" cy="58.33" rx="1.34" ry="3.93"/>
	<ellipse class="st5" cx="79.89" cy="58.33" rx="1.34" ry="3.93"/>
	<g>
		<g>
			<path d="M53.46,133.66c6.01,8.86,22.2,9.48,27.88-0.11c0.7-1.18-1.13-2.24-1.83-1.07c-4.82,8.15-19.08,7.67-24.22,0.11
				C54.53,131.47,52.69,132.53,53.46,133.66L53.46,133.66z"/>
		</g>
	</g>
	<g>
		<g>
			<path d="M54.37,132.07c-13.36-0.43-26.7,5.6-35.37,15.75c-2.44,2.86-4.5,6.01-6.08,9.41c-0.57,1.23,1.25,2.3,1.83,1.07
				c5.39-11.58,16.34-20.03,28.7-23.01c3.58-0.86,7.25-1.23,10.93-1.11C55.74,134.23,55.74,132.11,54.37,132.07L54.37,132.07z"/>
		</g>
	</g>
	<g>
		<g>
			<path d="M80.48,133.7c13.85,0.19,27.72,7.32,37.4,16.96c2.7,2.69,5.1,5.66,7.06,8.94c0.7,1.17,2.53,0.11,1.83-1.07
				c-7.36-12.37-20.82-21.43-34.55-25.22c-3.82-1.06-7.77-1.68-11.74-1.74C79.12,131.57,79.12,133.69,80.48,133.7L80.48,133.7z"/>
		</g>
	</g>
	<g>
		<g>
			<path d="M14.22,159.59c28.1,9.08,58.42,10.93,87.55,6.4c8.23-1.28,16.37-3.1,24.36-5.44c1.31-0.38,0.75-2.43-0.56-2.04
				c-28.08,8.24-58.19,9.99-87.02,4.93c-8.05-1.41-15.99-3.37-23.76-5.88C13.48,157.12,12.93,159.17,14.22,159.59L14.22,159.59z"/>
		</g>
	</g>
	<g>
		<g>
			<path d="M56.46,114.49c-1.04,6.03-2.07,12.05-3.11,18.08c-0.23,1.33,1.81,1.91,2.04,0.56c1.04-6.03,2.07-12.05,3.11-18.08
				C58.74,113.72,56.69,113.14,56.46,114.49L56.46,114.49z"/>
		</g>
	</g>
	<g>
		<g>
			<path d="M77.14,114.56c0.76,6.03,1.52,12.05,2.28,18.08c0.17,1.33,2.29,1.35,2.12,0c-0.76-6.03-1.52-12.05-2.28-18.08
				C79.09,113.23,76.97,113.21,77.14,114.56L77.14,114.56z"/>
		</g>
	</g>
</g>
<g id="Ebene_11_1_">
	<g>
		<g>
			<path d="M115.22,61.9c0.03,0,0.34,0.04,0.09,0.01c0.09,0.01,0.18,0.03,0.27,0.05c0.17,0.03,0.33,0.07,0.5,0.11
				c0.16,0.04,0.33,0.09,0.49,0.15c0.09,0.03,0.17,0.06,0.26,0.09c0.02,0.01,0.3,0.13,0.09,0.03c0.31,0.14,0.61,0.29,0.9,0.47
				c0.16,0.1,0.31,0.2,0.46,0.3c0.06,0.04,0.12,0.09,0.19,0.14c0.06,0.05,0.05,0.04-0.03-0.02c0.04,0.03,0.07,0.06,0.11,0.09
				c0.26,0.22,0.51,0.45,0.74,0.7c0.11,0.12,0.22,0.25,0.33,0.38c0.16,0.19-0.07-0.11,0.06,0.08c0.05,0.07,0.11,0.15,0.16,0.22
				c0.19,0.28,0.36,0.57,0.5,0.87c0.04,0.08,0.08,0.17,0.11,0.25c-0.1-0.22,0.02,0.06,0.03,0.08c0.06,0.17,0.12,0.34,0.17,0.52
				c0.15,0.53,0.75,0.92,1.3,0.74c0.54-0.17,0.9-0.73,0.74-1.3c-0.97-3.34-4.04-5.73-7.47-6.06c-0.55-0.05-1.08,0.52-1.06,1.06
				C114.18,61.46,114.62,61.84,115.22,61.9L115.22,61.9z"/>
		</g>
	</g>
	<g>
		<g>
			<path d="M21.43,60.51c-1.79-0.28-3.57,0.17-4.95,1.36c-1.27,1.09-2,2.83-1.92,4.5c0.03,0.55,0.47,1.09,1.06,1.06
				c0.55-0.02,1.09-0.47,1.06-1.06c-0.01-0.17-0.01-0.35,0-0.52c0-0.07,0.01-0.14,0.02-0.22c0.01-0.13-0.04,0.19,0.01-0.02
				c0.07-0.32,0.15-0.62,0.26-0.92c-0.09,0.23,0.02-0.03,0.04-0.07c0.04-0.08,0.08-0.16,0.12-0.23c0.07-0.13,0.15-0.25,0.23-0.37
				c0.05-0.07,0.16-0.21,0.04-0.07c0.06-0.07,0.11-0.13,0.17-0.2c0.11-0.12,0.22-0.23,0.34-0.34c0.05-0.05,0.11-0.09,0.17-0.14
				c-0.18,0.15,0.04-0.02,0.07-0.04c0.13-0.09,0.27-0.18,0.41-0.25c0.06-0.04,0.13-0.07,0.2-0.1c0.03-0.02,0.3-0.12,0.07-0.04
				c0.15-0.06,0.3-0.11,0.46-0.16c0.16-0.05,0.31-0.08,0.47-0.11c0.06-0.01,0.32-0.04,0.07-0.02c0.07-0.01,0.15-0.02,0.22-0.02
				c0.16-0.01,0.32-0.01,0.49-0.01c0.09,0,0.18,0.01,0.27,0.02c0.23,0.01-0.18-0.03,0.07,0.01c0.55,0.09,1.17-0.14,1.3-0.74
				C22.29,61.31,22.02,60.6,21.43,60.51L21.43,60.51z"/>
		</g>
	</g>
</g>
<g id="Ebene_12_1_">
	<ellipse class="st6" cx="55.43" cy="56.04" rx="0.33" ry="0.33"/>
	<ellipse class="st6" cx="79.89" cy="56.04" rx="0.33" ry="0.33"/>
</g>
<g id="Ebene_13_1_">
	<g class="st7">
		<path d="M36.35,33.06c-3.42,18.78-1.71,39.77,11.38,59.74c2.1,3.21,4.41,6.31,7.23,8.94c6.62,6.17,15.53,9.26,24.16,12.19
			c-5.25,0.18-10.51,0-15.73-0.54c-3.37-0.35-6.78-0.86-9.83-2.3c-2.53-1.19-4.72-2.97-6.85-4.76c-5.42-4.55-9.73-10.44-13.01-16.65
			c-3.73-7.06-5.5-14.23-6-22.16c-0.46-7.28,3.99-27.13,4.94-34.36"/>
		<g>
			<path d="M35.33,32.78c-2.29,12.72-2.15,25.85,1.34,38.34c1.9,6.8,4.75,13.34,8.38,19.39c3.57,5.95,7.75,11.5,13.54,15.45
				c6.13,4.19,13.28,6.62,20.26,8.98c0.09-0.69,0.19-1.39,0.28-2.08c-4.76,0.15-9.52,0.03-14.26-0.4
				c-4.32-0.39-8.72-0.95-12.51-3.23C45.34,105,39.78,98.22,35.75,91.18c-4.18-7.3-6.58-15.44-6.99-23.85
				c-0.26-5.34,0.9-10.84,1.8-16.08c1.03-6.03,2.34-12.04,3.15-18.11c0.18-1.35-1.94-1.33-2.12,0c-0.75,5.6-1.97,11.15-2.93,16.72
				c-0.96,5.55-2.18,11.34-2.03,16.99c0.42,16.62,9.21,32.86,22.49,42.73c4.02,2.99,8.5,4.2,13.42,4.76
				c5.51,0.63,11.07,0.81,16.61,0.64c1.21-0.04,1.41-1.7,0.28-2.08c-6.06-2.05-12.18-4.14-17.69-7.45
				c-5.92-3.55-10.2-8.61-13.85-14.4c-7.08-11.21-11.2-24.02-11.88-37.26c-0.35-6.85,0.17-13.71,1.38-20.45
				C37.61,32.01,35.57,31.44,35.33,32.78L35.33,32.78z"/>
		</g>
	</g>
	<g class="st7">
		<path d="M57.32,124.88c7.72-2,15.8-4.18,21.6-9.56c-6.49,0.51-13.15,1.01-19.41-0.74c-0.2-0.06-0.42-0.12-0.62-0.05
			c-0.37,0.12-0.49,0.57-0.55,0.95c-0.42,2.77-0.83,5.53-1.25,8.3"/>
		<g>
			<path d="M57.6,125.91c7.82-2.03,15.96-4.25,22.07-9.83c0.65-0.59,0.17-1.88-0.75-1.81c-5.42,0.43-10.97,0.89-16.36-0.07
				c-1.8-0.32-4.6-1.73-5.21,0.89c-0.63,2.74-0.85,5.64-1.27,8.42c-0.2,1.33,1.84,1.91,2.04,0.56c0.36-2.42,0.73-4.84,1.09-7.26
				c0.05-0.34,0.07-0.7,0.16-1.04c0.06-0.23,0.07-0.23-0.14-0.16c0.36-0.13,1.38,0.35,1.77,0.43c1.15,0.24,2.31,0.42,3.47,0.55
				c4.8,0.55,9.65,0.17,14.45-0.21c-0.25-0.6-0.5-1.21-0.75-1.81c-5.82,5.32-13.69,7.36-21.13,9.29
				C55.72,124.2,56.28,126.25,57.6,125.91L57.6,125.91z"/>
		</g>
	</g>
	<g class="st7">
		<path d="M31.05,141.45c4.88,4.81,11.51,7.44,17.94,9.95c10.14,3.96,20.34,7.93,31,10.2c14.61,3.12,29.94,2.95,44.48-0.48
			c-17.35,3.44-35,5.33-52.68,6.13c-3.94,0.18-7.88,0.3-11.82,0.06c-5.36-0.33-10.66-1.33-15.91-2.48
			c-9.7-2.13-19.27-4.79-28.66-7.97c3.31-5.97,7.91-11.25,13.4-15.39"/>
		<g>
			<path d="M30.3,142.2c4.22,4.1,9.53,6.65,14.93,8.85c5.98,2.43,12.02,4.76,18.11,6.88c12.66,4.4,25.7,7.13,39.15,6.95
				c7.49-0.1,14.96-1.03,22.26-2.73c1.34-0.31,0.76-2.3-0.56-2.04c-14.08,2.78-28.35,4.55-42.67,5.54
				c-7.14,0.49-14.39,1.04-21.54,0.61c-7.18-0.44-14.27-2.05-21.24-3.74c-7.78-1.88-15.47-4.12-23.05-6.68
				c0.21,0.52,0.42,1.04,0.63,1.56c3.27-5.84,7.7-10.96,13.02-15.01c1.07-0.81,0.02-2.65-1.07-1.83
				c-5.63,4.28-10.33,9.6-13.78,15.77c-0.35,0.62-0.02,1.34,0.63,1.56c6.82,2.3,13.73,4.34,20.72,6.1
				c6.98,1.75,14.05,3.4,21.22,4.15c7.31,0.76,14.72,0.25,22.03-0.21c7.13-0.45,14.25-1.08,21.34-1.93
				c8.15-0.98,16.26-2.25,24.32-3.84c-0.19-0.68-0.38-1.36-0.56-2.04c-12.69,2.96-25.94,3.48-38.81,1.43
				c-12.78-2.04-24.88-6.76-36.88-11.46c-5.96-2.33-12.04-4.86-16.7-9.38C30.82,139.75,29.32,141.25,30.3,142.2L30.3,142.2z"/>
		</g>
	</g>
	<g class="st7">
		<path d="M15.72,60.49c-0.58,7.79,3.73,15.74,10.64,19.62c-1.32,0.7-2.94,0.35-4.39-0.04c-2.5-0.67-5.17-1.55-6.66-3.63
			c-0.91-1.27-1.26-2.83-1.59-4.34c-0.46-2.09-0.92-4.21-0.92-6.35s0.5-4.34,1.8-6.07"/>
		<g>
			<path d="M14.67,60.49c-0.55,8.28,3.99,16.43,11.16,20.54c0-0.61,0-1.22,0-1.83c-1.13,0.52-2.44,0.16-3.57-0.15
				c-0.97-0.26-1.94-0.54-2.87-0.92c-2.07-0.85-3.51-2.2-4.17-4.37c-0.66-2.2-1.16-4.59-1.32-6.88c-0.16-2.37,0.2-4.7,1.61-6.66
				c0.8-1.11-1.04-2.17-1.83-1.07c-1.64,2.29-2.11,5.16-1.89,7.92c0.12,1.54,0.42,3.06,0.74,4.57c0.28,1.31,0.55,2.64,1.08,3.88
				c1.01,2.39,3.02,3.8,5.38,4.72c2.43,0.94,5.41,1.94,7.91,0.79c0.74-0.34,0.64-1.46,0-1.83c-6.57-3.76-10.62-11.14-10.12-18.71
				C16.87,59.13,14.76,59.13,14.67,60.49L14.67,60.49z"/>
		</g>
	</g>
	<g class="st7">
		<path d="M112.51,57.39c1.05,6.87,3.2,13.58,6.33,19.82c0.16,0.32,0.32,0.75,0.07,1.01c-0.11,0.12-0.27,0.17-0.43,0.21
			c-2.42,0.62-5.11-0.31-7.43,0.62c-0.42-0.41-0.38-1.07-0.31-1.65c0.7-6.3,0.97-12.65,0.82-18.98"/>
		<g>
			<path d="M111.49,57.67c0.76,4.87,2.04,9.65,3.84,14.23c0.42,1.06,0.86,2.12,1.33,3.16c0.24,0.54,0.49,1.08,0.75,1.61
				c0.07,0.14,0.28,0.78,0.43,0.89c0.08,0.3,0.2,0.24,0.36-0.16c-0.12,0.03-0.24,0.05-0.37,0.08c-1.17,0.04-2.31,0.09-3.49,0.06
				c-1.22-0.02-2.42,0.06-3.58,0.47c0.4,0.16,0.8,0.32,1.2,0.49c-0.4-0.52-0.14-1.35-0.08-1.96c0.09-0.84,0.17-1.68,0.24-2.52
				c0.15-1.75,0.27-3.51,0.36-5.27c0.17-3.45,0.21-6.9,0.13-10.35c-0.03-1.36-2.15-1.37-2.12,0c0.09,3.73,0.04,7.47-0.17,11.19
				c-0.1,1.83-0.24,3.66-0.41,5.48c-0.13,1.38-0.71,3.28,0.22,4.5c0.27,0.35,0.72,0.66,1.2,0.49c2.46-0.88,5.25,0.28,7.66-0.69
				c1.07-0.43,1.28-1.45,0.88-2.45c-0.5-1.24-1.17-2.42-1.7-3.65c-2.23-5.16-3.77-10.62-4.64-16.17
				C113.32,55.76,111.28,56.34,111.49,57.67L111.49,57.67z"/>
		</g>
	</g>
	<g class="st7">
		<path d="M66.84,71.97c1.69-0.97,3.24-2.16,4.61-3.54c0.65,1.55,1.2,3.59-0.09,4.69c-1.24,1.05-3.15,0.35-4.58-0.43"/>
		<g>
			<path d="M67.38,72.89c1.76-1.01,3.39-2.26,4.82-3.7c-0.59-0.16-1.18-0.31-1.77-0.47c0.23,0.56,0.44,1.13,0.57,1.72
				c0.02,0.08,0.03,0.15,0.05,0.23c0.01,0.04,0.04,0.27,0.02,0.09c-0.02-0.18,0.01,0.07,0.01,0.12c0.01,0.08,0.01,0.15,0.01,0.23
				c0,0.14,0,0.27-0.01,0.41c0,0.03-0.01,0.06-0.01,0.09c-0.01,0.14,0.05-0.23,0.01-0.1c-0.02,0.07-0.03,0.14-0.04,0.21
				c-0.02,0.07-0.04,0.13-0.06,0.2c-0.01,0.03-0.03,0.06-0.03,0.08c0-0.01,0.11-0.2,0.05-0.12c-0.04,0.06-0.06,0.13-0.1,0.18
				c-0.02,0.04-0.16,0.23-0.05,0.09c0.11-0.15-0.05,0.05-0.08,0.08c-0.05,0.05-0.09,0.09-0.14,0.13c-0.09,0.08-0.07-0.01,0.05-0.04
				c-0.03,0.01-0.06,0.04-0.08,0.06c-0.07,0.04-0.13,0.08-0.2,0.11c-0.16,0.09,0.21-0.07-0.02,0c-0.06,0.02-0.12,0.04-0.19,0.05
				c-0.07,0.02-0.15,0.02-0.22,0.04c0,0,0.23-0.02,0.12-0.02c-0.04,0-0.09,0.01-0.13,0.01c-0.15,0.01-0.29,0-0.44-0.01
				c-0.05,0-0.09-0.01-0.14-0.01c0,0,0.23,0.04,0.11,0.01c-0.08-0.02-0.16-0.03-0.24-0.05c-0.37-0.08-0.72-0.21-1.08-0.35
				c-0.11-0.04,0.08,0.03,0.08,0.04c-0.04-0.03-0.09-0.04-0.13-0.06c-0.09-0.04-0.18-0.08-0.26-0.12c-0.17-0.08-0.34-0.17-0.51-0.26
				c-0.49-0.27-1.18-0.14-1.45,0.38c-0.26,0.5-0.14,1.17,0.38,1.45c0.7,0.38,1.45,0.73,2.23,0.93c0.79,0.2,1.69,0.28,2.47,0.01
				c0.81-0.28,1.54-0.86,1.9-1.67c0.32-0.72,0.41-1.48,0.31-2.25c-0.11-0.86-0.35-1.67-0.69-2.47c-0.15-0.35-0.35-0.63-0.74-0.74
				c-0.36-0.1-0.76,0-1.03,0.27c-0.33,0.33-0.67,0.66-1.03,0.97c-0.18,0.16-0.36,0.31-0.54,0.46c-0.1,0.08-0.19,0.16-0.29,0.24
				c-0.04,0.03-0.09,0.07-0.13,0.1c-0.16,0.12,0.09-0.06-0.02,0.01c-0.77,0.58-1.56,1.11-2.39,1.59c-0.48,0.28-0.69,0.97-0.38,1.45
				C66.24,72.99,66.86,73.18,67.38,72.89L67.38,72.89z"/>
		</g>
	</g>
</g>
<g id="Ebene_16_1_">
</g>
<g id="Ebene_17_1_">
</g>
<g id="Ebene_21">
	<g class="st8">
		<path d="M59.63,7.38c-9.11,5.92-17.96,12.44-24.96,20.67S27.61,45,27,55.72c-1.58-0.82-2.59,0.18-2.79,0
			c-0.78-0.71,0.78,1.04,0.93,0c1.68-11.37-1.06-23.93,5.79-32.6S48.6,9.09,59.59,7.2"/>
		<g>
			<path d="M59.13,6.52c-7.37,4.8-14.58,9.97-20.85,16.18c-2.91,2.88-5.76,5.96-7.74,9.57c-1.77,3.23-2.84,6.77-3.43,10.39
				c-0.7,4.32-0.86,8.7-1.1,13.06c0.5-0.29,1-0.58,1.51-0.86c-0.88-0.39-1.73-0.58-2.68-0.34c-0.08,0.02-0.69,0.17-0.71,0.24
				c0.03-0.13,1.02,0.4,0.51,0.01c-0.11-0.09-0.23-0.14-0.36-0.19c-0.79-0.31-1.62,0.78-1.13,1.47c0.61,0.86,2.08,1.53,2.79,0.4
				c0.45-0.71,0.39-1.91,0.47-2.72c0.14-1.34,0.23-2.69,0.3-4.04c0.24-4.88,0.08-9.79,0.73-14.64c0.64-4.78,2.25-9.07,5.47-12.71
				c3.2-3.62,7.08-6.56,11.32-8.85c4.88-2.63,10.19-4.36,15.64-5.32c1.27-0.22,0.73-2.15-0.53-1.93
				c-8.96,1.57-17.69,5.3-24.54,11.37c-3.29,2.92-6.16,6.3-7.74,10.45c-1.58,4.16-1.93,8.71-2.1,13.12c-0.1,2.7-0.12,5.4-0.24,8.09
				c-0.06,1.35-0.14,2.7-0.28,4.04c-0.05,0.51-0.33,1.38-0.22,1.86c-0.01,0.09-0.02,0.18-0.04,0.26c0.88-0.1,1.12-0.25,0.72-0.43
				c-0.06,0.01-0.24-0.26-0.04,0.02c-0.38,0.49-0.75,0.98-1.13,1.47c-0.88-0.34,0.04,0.12,0.22,0.17c0.23,0.07,0.42,0.06,0.65,0.02
				c0.73-0.13,1.11-0.46,1.9-0.12c0.7,0.31,1.46-0.05,1.51-0.86c0.4-7.15,0.45-14.7,3.66-21.28c1.78-3.64,4.44-6.67,7.26-9.54
				c2.92-2.97,6.07-5.72,9.35-8.29c3.81-2.98,7.81-5.72,11.86-8.36C61.21,7.55,60.21,5.81,59.13,6.52L59.13,6.52z"/>
		</g>
	</g>
	<g>
		<g>
			<path d="M57.68,8.21c1.29,0,1.29-2,0-2C56.39,6.2,56.39,8.21,57.68,8.21L57.68,8.21z"/>
		</g>
	</g>
</g>
<g id="Ebene_18_1_">
</g>
<g id="Ebene_14_1_">
	<g class="st9">
		<g>
			<path class="st10" d="M104.34,54.03c1.36,0,1.37-2.12,0-2.12C102.97,51.92,102.97,54.03,104.34,54.03L104.34,54.03z"/>
		</g>
	</g>
	<g class="st9">
		<g>
			<path class="st10" d="M117.36,60.73c0.28,0.32,0.56,0.65,0.82,0.98c-0.06-0.07-0.11-0.14-0.17-0.21
				c0.51,0.66,0.97,1.36,1.38,2.08c0.27,0.48,0.97,0.69,1.45,0.38c0.49-0.31,0.67-0.93,0.38-1.45c-0.66-1.18-1.46-2.27-2.36-3.28
				c-0.37-0.41-1.13-0.41-1.5,0C116.96,59.68,116.97,60.29,117.36,60.73L117.36,60.73z"/>
		</g>
	</g>
	<g class="st9">
		<g>
			<path class="st10" d="M84.23,140.48c12.47-0.42,22.39,8.1,31.13,15.9c1.01,0.91,2.52-0.59,1.5-1.5
				c-9.17-8.18-19.57-16.96-32.63-16.52C82.87,138.41,82.87,140.53,84.23,140.48L84.23,140.48z"/>
		</g>
	</g>
	<g>
		<g>
			<path class="st10" d="M158.53,143.36c1.29,0,1.29-2,0-2C157.24,141.36,157.24,143.36,158.53,143.36L158.53,143.36z"/>
		</g>
	</g>
</g>
<g id="Ebene_9_6_">
</g>
<g id="Ebene_3">
	<g>
		<g>
			<g id="Ebene_2_Kopie">
				<g class="st14">
					<path d="M119.23,104.53c3.37,1.51,5.48,5.1,4.99,8.5c-0.49,3.4-3.54,6.33-7.21,6.95c-3.67,0.61-7.69-1.14-9.5-4.15
						c-1.81-3.01-1.27-7.05,1.27-9.55c2.54-2.5,6.9-3.26,10.29-1.81"/>
					<g>
						<path d="M118.91,105c3.16,1.44,5.22,4.69,4.91,7.92c-0.29,3.05-2.92,5.71-6.12,6.46c-3.38,0.79-7.18-0.57-9.23-3.15
							c-2.06-2.6-2.09-6.31-0.11-8.93c2.23-2.94,6.91-3.83,10.4-2.36c0.46,0.19,1.07-0.75,0.64-0.93
							c-3.53-1.48-7.85-0.72-10.58,1.76c-2.8,2.53-3.61,6.7-1.96,9.99c1.61,3.2,5.57,5.15,9.35,4.82c3.86-0.34,7.12-3.14,8.19-6.49
							c1.22-3.83-0.93-8.23-4.84-10.01C119.1,103.86,118.48,104.8,118.91,105L118.91,105z"/>
					</g>
				</g>
				<g class="st14">
					<path d="M107.78,40.71c0.42-3.16,1.38-6.34,3.45-8.88c2.07-2.54,5.4-4.36,8.87-4.2c5.03,0.23,9.02,4.66,9.61,9.25
						s-1.55,9.14-4.5,12.86c-2.94,3.73-6.69,6.86-9.93,10.37c-5.28,5.73-9.25,12.62-10.42,20.06c-0.77,4.89-0.18,10.23,3.1,14.17
						c3.28,3.94,9.78,5.85,14.32,3.22c2.88-1.67,4.46-4.75,5.13-7.82c0.67-3.07,0.58-6.24,0.92-9.36
						c0.71-6.43,3.34-12.66,7.52-17.85c5.18-6.42,12.74-11.36,16.05-18.75c3.51-7.82,1.32-17.3-4.55-23.89
						c-5.87-6.59-14.97-10.4-24.18-11.22c-10.12-0.9-20.67,1.73-28.42,7.72S82.4,31.78,83.26,41.07c0.34,3.66,1.59,7.42,4.43,10.03
						c3.74,3.44,10.05,4.21,14.59,1.78c4.54-2.43,4.47-6.94,5.48-12.05"/>
					<g>
						<path d="M108.22,40.51c0.38-2.81,1.19-5.64,2.94-8.01c1.56-2.12,3.99-3.77,6.77-4.25c5.47-0.94,10.13,3.36,11.19,8
							c1.33,5.8-2.31,11.42-6.22,15.64c-2.11,2.29-4.43,4.41-6.61,6.64c-2.07,2.13-3.98,4.39-5.64,6.82
							c-3.25,4.73-5.57,10.06-6.31,15.65c-0.66,5.01,0.11,10.87,4.12,14.68c3.37,3.2,9.08,4.81,13.49,2.52
							c2.41-1.25,4.07-3.43,5.05-5.77c1.15-2.76,1.36-5.73,1.54-8.66c0.18-3.02,0.49-5.98,1.33-8.91c0.79-2.78,1.95-5.48,3.45-8
							c1.46-2.45,3.24-4.7,5.24-6.81c1.89-1.99,3.9-3.87,5.86-5.81c3.83-3.8,7.42-7.96,8.88-13.05c1.42-4.94,0.85-10.28-1.23-15.01
							c-2.15-4.89-5.88-9.01-10.58-12.03c-4.74-3.05-10.33-4.96-16.03-5.74c-5.78-0.79-11.77-0.41-17.36,1.09
							c-5.57,1.5-10.77,4.13-14.97,7.81c-4.15,3.63-7.25,8.25-8.96,13.27c-1.67,4.9-2.09,10.51-0.33,15.46
							c0.86,2.43,2.32,4.72,4.54,6.32c2.04,1.47,4.63,2.29,7.21,2.4c2.58,0.11,5.2-0.49,7.34-1.82c2.02-1.25,3.22-3.19,3.9-5.3
							c0.71-2.25,0.93-4.62,1.38-6.92c0.14-0.71-0.76-0.31-0.85,0.16c-0.46,2.32-0.67,4.71-1.4,6.97c-0.67,2.09-2,3.78-4.14,4.79
							c-4.62,2.19-10.79,1.12-14.25-2.48c-3.75-3.92-4.39-9.73-3.74-14.69c0.66-5.1,2.92-10.02,6.31-14.09
							c3.47-4.17,8.11-7.37,13.35-9.46c5.3-2.11,11.14-3.09,16.93-2.92c5.7,0.17,11.38,1.45,16.46,3.86
							c5.03,2.38,9.46,5.89,12.39,10.36c2.85,4.35,4.3,9.5,3.85,14.55c-0.22,2.52-0.96,4.97-2.17,7.23
							c-1.22,2.28-2.87,4.35-4.66,6.27c-3.66,3.95-7.91,7.44-11.19,11.69c-3.52,4.56-5.89,9.9-6.86,15.42
							c-0.53,3.01-0.5,6.06-0.84,9.09c-0.3,2.65-0.99,5.34-2.71,7.53c-1.51,1.91-3.79,3.09-6.37,3.24c-2.46,0.14-4.95-0.6-7-1.83
							c-4.77-2.87-6.41-8.32-6.28-13.28c0.14-5.46,2.13-10.84,5.01-15.55c1.48-2.42,3.22-4.71,5.15-6.85
							c2.05-2.26,4.31-4.34,6.46-6.52c4.12-4.16,8.01-9.02,8.56-14.82c0.23-2.48-0.27-4.96-1.62-7.14c-1.22-1.97-3.1-3.69-5.41-4.55
							c-5.36-1.99-10.87,1.3-13.4,5.58c-1.39,2.35-2.09,4.97-2.44,7.61c-0.03,0.25,0.22,0.34,0.43,0.25
							C108.04,41.06,108.19,40.77,108.22,40.51L108.22,40.51z"/>
					</g>
				</g>
				<g class="st14">
					<path d="M113.36,111.83c-1.28-2.03-0.14-4.98,2.24-5.81"/>
					<g>
						<path d="M113.75,111.43c-1.09-1.78-0.24-4.2,1.84-4.95c0.43-0.16,0.69-1.15,0.02-0.91c-2.7,0.97-4.08,4.31-2.64,6.67
							C113.23,112.65,113.99,111.81,113.75,111.43L113.75,111.43z"/>
					</g>
				</g>
				<g class="st14">
					<path d="M112.86,108.81c0.19-0.02,0.33,0.23,0.2,0.36c-0.23-0.13-0.23-0.49,0-0.61"/>
					<g>
						<path d="M112.63,109.31c0.06,0,0.06,0.02,0.02-0.01c0.05,0.04-0.02-0.04,0.01,0c0.02,0.03,0.02,0.06,0.01-0.01
							c0,0.01,0,0.02,0.01,0.03c-0.03-0.16,0.03-0.3,0.18-0.44c0.18-0.06,0.35-0.11,0.53-0.17c-0.02-0.01-0.03-0.02-0.05-0.03
							c0.06,0.05,0.01,0.01,0-0.01c-0.02-0.05,0.02,0.06,0,0.01c-0.03-0.08,0,0.01-0.01,0.01c-0.01,0,0.01-0.05,0-0.06
							c0.01,0.01-0.02,0.11,0,0.04c-0.02,0.07-0.05,0.14-0.1,0.2c-0.01,0.02-0.13,0.12-0.07,0.08c0.22-0.13,0.4-0.46,0.33-0.7
							c-0.08-0.27-0.35-0.19-0.53-0.08c-0.46,0.28-0.78,1.12-0.22,1.47c0.17,0.11,0.43-0.05,0.53-0.17c0.2-0.22,0.35-0.52,0.25-0.82
							c-0.06-0.17-0.22-0.34-0.43-0.33c-0.28,0.01-0.51,0.21-0.61,0.45c-0.05,0.11-0.09,0.24-0.05,0.36
							C112.45,109.21,112.52,109.32,112.63,109.31L112.63,109.31z"/>
					</g>
				</g>
			</g>
			<g id="Ebene_2_4_">
				<g>
					<path class="st27" d="M121.54,102.55c3.37,1.51,5.48,5.1,4.99,8.5c-0.49,3.4-3.54,6.33-7.21,6.95s-7.69-1.14-9.5-4.15
						c-1.81-3.01-1.27-7.05,1.27-9.55c2.54-2.5,6.9-3.26,10.29-1.81"/>
					<g>
						<path d="M121.22,103.02c3.16,1.44,5.22,4.69,4.91,7.92c-0.29,3.05-2.92,5.71-6.12,6.46c-3.38,0.79-7.18-0.57-9.23-3.15
							c-2.06-2.6-2.09-6.31-0.11-8.93c2.23-2.94,6.91-3.83,10.4-2.36c0.46,0.19,1.07-0.75,0.64-0.93
							c-3.53-1.48-7.85-0.72-10.58,1.76c-2.8,2.53-3.61,6.7-1.96,9.99c1.61,3.2,5.57,5.15,9.35,4.82c3.86-0.34,7.12-3.14,8.19-6.49
							c1.22-3.83-0.93-8.23-4.84-10.01C121.41,101.88,120.79,102.82,121.22,103.02L121.22,103.02z"/>
					</g>
				</g>
				<g>
					<path class="st28" d="M111.65,38.58c0.42-3.16,1.38-6.34,3.45-8.88c2.07-2.54,5.4-4.36,8.87-4.2c5.03,0.23,9.02,4.66,9.61,9.25
						s-1.55,9.14-4.5,12.86c-2.94,3.73-6.69,6.86-9.93,10.37c-5.28,5.73-9.25,12.62-10.42,20.06c-0.77,4.89-0.18,10.23,3.1,14.17
						c3.28,3.94,9.78,5.85,14.32,3.22c2.88-1.67,4.46-4.75,5.13-7.82c0.67-3.07,0.58-6.24,0.92-9.36
						c0.71-6.43,3.34-12.66,7.52-17.85c5.18-6.42,12.74-11.36,16.05-18.75c3.51-7.82,1.32-17.3-4.55-23.89
						c-5.87-6.59-14.97-10.4-24.18-11.22c-10.12-0.9-20.67,1.73-28.41,7.71s-12.4,15.38-11.54,24.68c0.34,3.66,1.59,7.42,4.43,10.03
						c3.74,3.44,10.05,4.21,14.59,1.78c4.54-2.43,4.47-6.94,5.48-12.05"/>
					<g>
						<path d="M112.09,38.37c0.38-2.81,1.19-5.64,2.94-8.01c1.56-2.12,3.99-3.77,6.77-4.25c5.47-0.94,10.13,3.36,11.19,8
							c1.33,5.8-2.31,11.42-6.22,15.64c-2.11,2.29-4.43,4.41-6.61,6.64c-2.07,2.13-3.98,4.39-5.64,6.82
							c-3.25,4.73-5.57,10.06-6.31,15.65c-0.66,5.01,0.11,10.87,4.12,14.68c3.37,3.2,9.08,4.81,13.49,2.52
							c2.41-1.25,4.07-3.43,5.05-5.77c1.15-2.76,1.36-5.73,1.54-8.66c0.18-3.02,0.49-5.98,1.33-8.91c0.79-2.78,1.95-5.48,3.45-8
							c1.46-2.45,3.24-4.7,5.24-6.81c1.89-1.99,3.9-3.87,5.86-5.81c3.83-3.8,7.42-7.96,8.88-13.05c1.42-4.94,0.85-10.28-1.23-15.01
							c-2.15-4.89-5.88-9.01-10.58-12.03c-4.74-3.05-10.33-4.96-16.03-5.74c-5.78-0.79-11.77-0.41-17.36,1.09
							c-5.57,1.5-10.77,4.13-14.97,7.81c-4.15,3.63-7.25,8.25-8.96,13.27c-1.67,4.9-2.09,10.51-0.33,15.46
							c0.86,2.43,2.32,4.72,4.54,6.32c2.04,1.47,4.63,2.29,7.21,2.4c2.58,0.11,5.2-0.49,7.34-1.82c2.02-1.25,3.22-3.19,3.9-5.3
							c0.71-2.25,0.93-4.62,1.38-6.92c0.14-0.71-0.76-0.31-0.85,0.16c-0.46,2.32-0.67,4.71-1.4,6.97c-0.67,2.09-2,3.78-4.14,4.79
							c-4.62,2.19-10.79,1.12-14.25-2.48c-3.75-3.92-4.39-9.73-3.74-14.69c0.66-5.1,2.92-10.02,6.31-14.09
							c3.47-4.17,8.11-7.37,13.35-9.46c5.3-2.11,11.14-3.09,16.93-2.92c5.7,0.17,11.38,1.45,16.46,3.86
							c5.03,2.38,9.46,5.89,12.39,10.36c2.85,4.35,4.3,9.5,3.85,14.55c-0.22,2.52-0.96,4.97-2.17,7.23
							c-1.22,2.28-2.87,4.35-4.66,6.27c-3.66,3.95-7.91,7.44-11.19,11.69c-3.52,4.56-5.89,9.9-6.86,15.42
							c-0.53,3.01-0.5,6.06-0.84,9.09c-0.3,2.65-0.99,5.34-2.71,7.53c-1.51,1.91-3.79,3.09-6.37,3.24c-2.46,0.14-4.95-0.6-7-1.83
							c-4.77-2.87-6.41-8.32-6.28-13.28c0.14-5.46,2.13-10.84,5.01-15.55c1.48-2.42,3.22-4.71,5.15-6.85
							c2.05-2.26,4.31-4.34,6.46-6.52c4.12-4.16,8.01-9.02,8.56-14.82c0.23-2.48-0.27-4.96-1.62-7.14c-1.22-1.97-3.1-3.69-5.41-4.55
							c-5.36-1.99-10.87,1.3-13.4,5.58c-1.39,2.35-2.09,4.97-2.44,7.61c-0.03,0.25,0.22,0.34,0.43,0.25
							C111.91,38.92,112.06,38.63,112.09,38.37L112.09,38.37z"/>
					</g>
				</g>
				<g>
					<g>
						<path d="M113.75,111.43c-1.09-1.78-0.24-4.2,1.84-4.95c0.43-0.16,0.69-1.15,0.02-0.91c-2.7,0.97-4.08,4.31-2.64,6.67
							C113.23,112.65,113.99,111.81,113.75,111.43L113.75,111.43z"/>
					</g>
				</g>
				<g>
					<path class="st27" d="M118.3,105.48c0.19-0.02,0.33,0.23,0.2,0.36c-0.23-0.13-0.23-0.49,0-0.61"/>
					<g>
						<path d="M118.07,105.98c0.06,0,0.06,0.02,0.02-0.01c0.05,0.04-0.02-0.04,0.01,0c0.02,0.03,0.02,0.06,0.01-0.01
							c0,0.01,0,0.02,0.01,0.03c-0.03-0.16,0.03-0.3,0.18-0.44c0.18-0.06,0.35-0.11,0.53-0.17c-0.02-0.01-0.03-0.02-0.05-0.03
							c0.06,0.05,0.01,0.01,0-0.01c-0.02-0.05,0.02,0.06,0,0.01c-0.03-0.08,0,0.01-0.01,0.01c-0.01,0,0.01-0.05,0-0.06
							c0.01,0.01-0.02,0.11,0,0.04c-0.02,0.07-0.05,0.14-0.1,0.2c-0.01,0.02-0.13,0.12-0.07,0.08c0.22-0.13,0.4-0.46,0.33-0.7
							c-0.08-0.27-0.35-0.19-0.53-0.08c-0.46,0.28-0.78,1.12-0.22,1.47c0.17,0.11,0.43-0.05,0.53-0.17c0.2-0.22,0.35-0.52,0.25-0.82
							c-0.06-0.17-0.22-0.34-0.43-0.33c-0.28,0.01-0.51,0.21-0.61,0.45c-0.05,0.11-0.09,0.24-0.05,0.36
							C117.89,105.87,117.96,105.98,118.07,105.98L118.07,105.98z"/>
					</g>
				</g>
			</g>
			<g id="Ebene_4_3_">
				<g class="st14">
					<path d="M118.45,101.77c-4.16-0.08-9.31,3.72-9.67,7.53c-0.37,3.8,3.88,8.11,7.99,8.76c-3.43-0.9-6.43-5.27-5.86-8.49
						c0.58-3.22,3.47-6.1,7.67-7.78"/>
					<g>
						<path d="M118.68,101.28c-1.84-0.02-3.62,0.58-5.16,1.47c-1.61,0.93-3.04,2.17-4.03,3.67c-0.95,1.44-1.4,3.08-1.06,4.76
							c0.35,1.69,1.38,3.26,2.66,4.49c1.46,1.41,3.33,2.54,5.44,2.88c0.45,0.07,0.99-0.85,0.46-0.99c-2.72-0.74-4.76-3.33-5.46-5.75
							c-0.35-1.21-0.31-2.41,0.16-3.59c0.49-1.22,1.31-2.29,2.31-3.21c1.3-1.19,2.89-2.09,4.57-2.76c0.25-0.1,0.46-0.41,0.45-0.66
							c0-0.25-0.19-0.35-0.43-0.25c-3.15,1.27-6.06,3.39-7.46,6.34c-0.61,1.29-0.88,2.68-0.62,4.08c0.26,1.43,0.98,2.82,1.93,3.98
							c1.04,1.27,2.42,2.36,4.1,2.82c0.15-0.33,0.3-0.66,0.46-0.99c-3.33-0.55-6.4-3.21-7.44-6.13c-0.51-1.42-0.44-2.83,0.27-4.17
							c0.71-1.34,1.91-2.45,3.21-3.31c1.49-0.98,3.33-1.7,5.19-1.68C118.69,102.28,119.18,101.28,118.68,101.28L118.68,101.28z"/>
					</g>
				</g>
				<g class="st14">
					<path d="M132.43,42.36c-2.83,4.99-6.43,8.21-10.29,12.57c-3.87,4.36-7.45,7.89-10.02,13c-2.56,5.11-4.14,15.04-2.5,20.49
						s7.84,9.9,15.32,7.59c-8.74-4.56-6.73-23.33-3.22-29.54c3.4-6.02,11.89-17.74,11.89-28.75"/>
					<g>
						<path d="M132.05,42.32c-2.68,4.7-6.73,8.51-10.35,12.58c-3.63,4.08-7.45,8.04-9.9,12.87c-0.93,1.83-1.56,3.79-2.05,5.75
							c-0.56,2.22-0.93,4.49-1.12,6.76c-0.33,4-0.25,8.41,2.27,11.87c1.24,1.71,2.98,3.13,5.02,4c2.18,0.93,4.61,1.19,6.97,0.81
							c0.66-0.11,1.31-0.26,1.94-0.46c0.28-0.08,0.88-0.73,0.44-0.96c-3.16-1.67-4.65-5.01-5.38-8.12c-0.9-3.8-0.88-7.77-0.4-11.61
							c0.22-1.77,0.56-3.54,1.04-5.27c0.38-1.35,0.83-2.68,1.52-3.93c0.94-1.71,2.03-3.39,3.04-5.07c1.32-2.18,2.6-4.38,3.77-6.63
							c2.52-4.84,4.64-10.03,5.1-15.43c0.06-0.65,0.08-1.31,0.09-1.96c0-0.24-0.2-0.35-0.43-0.25c-0.25,0.1-0.45,0.41-0.45,0.66
							c-0.01,5.45-1.99,10.73-4.42,15.63c-2.09,4.22-4.69,8.18-7.06,12.26c-1.65,2.86-2.46,6.06-2.94,9.25
							c-0.59,3.91-0.7,7.94,0.03,11.86c0.6,3.25,1.88,6.81,4.83,8.93c0.32,0.23,0.66,0.44,1.01,0.62c0.15-0.32,0.3-0.64,0.44-0.96
							c-2.35,0.71-4.85,0.84-7.23,0.15c-2.1-0.6-3.99-1.83-5.39-3.39c-1.35-1.5-2.23-3.27-2.64-5.16c-0.43-1.99-0.47-4.04-0.37-6.05
							c0.11-2.24,0.43-4.47,0.92-6.67c0.44-1.96,1-3.92,1.84-5.77c2.1-4.63,5.72-8.46,9.16-12.28c1.82-2.02,3.68-4.02,5.52-6.04
							c1.78-1.95,3.47-3.97,4.89-6.16c0.37-0.57,0.72-1.15,1.05-1.74c0.1-0.17,0.11-0.5-0.15-0.55
							C132.37,41.81,132.15,42.14,132.05,42.32L132.05,42.32z"/>
					</g>
				</g>
				<g class="st14">
					<path d="M122.5,6.37c-6.36,0.74-15.31,2.53-20.46,5.72s-10.57,9.63-13.07,14.85c-2.49,5.22-2.45,13.71,0.16,18.92
						c2.61,5.21,7.86,7.56,14.95,5.72c-4.29-1.19-8.6-3.92-9.67-7.91c-1.07-3.99-0.37-8.21,0.99-12.11
						c3.66-10.53,12.79-19.32,26.95-24.88"/>
					<g>
						<path d="M122.62,5.88c-5.57,0.65-11.22,1.73-16.4,3.74c-2.45,0.95-4.68,2.2-6.7,3.79c-2.27,1.8-4.28,3.87-6.08,6.06
							c-1.74,2.13-3.31,4.39-4.55,6.81c-1.12,2.19-1.73,4.55-2.01,6.95c-0.3,2.55-0.24,5.15,0.19,7.69
							c0.39,2.32,1.11,4.65,2.44,6.68c1.2,1.82,2.92,3.35,5.05,4.22c2.3,0.93,4.84,1.06,7.29,0.7c0.71-0.11,1.41-0.25,2.11-0.43
							c0.34-0.09,0.9-0.84,0.35-0.99c-3.78-1.06-7.79-3.34-9.2-6.91c-0.85-2.16-0.9-4.61-0.66-6.86c0.24-2.24,0.85-4.46,1.66-6.58
							c1.23-3.22,2.98-6.25,5.17-9.01c2.32-2.92,5.14-5.51,8.24-7.73c3.45-2.48,7.24-4.52,11.22-6.19c0.53-0.22,1.07-0.44,1.61-0.65
							c0.43-0.17,0.68-1.17,0.02-0.91c-4.24,1.67-8.3,3.73-12.01,6.25c-3.33,2.27-6.37,4.92-8.91,7.93
							c-2.41,2.86-4.39,6.02-5.78,9.4c-1.77,4.31-2.88,9.12-1.81,13.71c0.92,3.96,4.54,6.67,8.5,8.09c0.49,0.17,0.99,0.33,1.49,0.47
							c0.12-0.33,0.23-0.66,0.35-0.99c-2.46,0.63-5.08,0.86-7.59,0.24c-2.13-0.53-4-1.7-5.38-3.28c-1.53-1.76-2.42-3.89-2.96-6.06
							c-0.6-2.4-0.79-4.88-0.67-7.33c0.11-2.36,0.51-4.76,1.42-6.97c0.94-2.29,2.37-4.43,3.88-6.43c3.07-4.06,6.92-7.97,11.84-10.15
							c2.47-1.1,5.09-1.88,7.74-2.52c2.65-0.64,5.35-1.14,8.06-1.51c0.61-0.08,1.21-0.16,1.82-0.23
							C122.82,6.81,123.23,5.81,122.62,5.88L122.62,5.88z"/>
					</g>
				</g>
			</g>
			<g id="Ebene_5_8_">
				<g class="st14">
					<g>
						<path class="st10" d="M133.72,12.99c0.45,0.13,0.89,0.28,1.32,0.44c0.22,0.08,0.43,0.17,0.65,0.25
							c0.11,0.04,0.21,0.09,0.32,0.14c0.05,0.02,0.48,0.22,0.22,0.09c0.83,0.39,1.64,0.84,2.4,1.34c1.55,1.01,2.85,2.15,4.05,3.54
							c2.48,2.87,3.96,6.31,4.2,9.96c0.59,8.71-4.94,16.35-10.02,23.2c-2.94,3.97-5.87,7.96-7.9,12.41
							c-0.09,0.21,0.49,0.45,0.57,0.48c0.42,0.16,0.96,0.23,1.41,0.25c0.61,0.02,1.75,0.06,2.04-0.56
							c3.65-7.99,10.35-14.37,14.45-22.14c2.05-3.87,3.55-8.09,3.51-12.44c-0.04-3.77-1.34-7.47-3.74-10.56
							c-2.59-3.34-6.36-5.92-10.61-7.19c-0.88-0.26-1.95-0.4-2.84-0.12c-0.21,0.07-0.6,0.17-0.61,0.43
							C133.14,12.76,133.52,12.94,133.72,12.99L133.72,12.99z"/>
					</g>
				</g>
				<g class="st14">
					<g>
						<path class="st10" d="M120.38,107.96c0.61,1.42,0.52,3.07-0.03,4.48c-0.27,0.69-0.69,1.33-1.19,1.89
							c-0.58,0.65-1.1,1.03-1.86,1.4c-0.78,0.38,0.29,0.83,0.69,0.91c0.84,0.18,1.97,0.26,2.76-0.12c3.37-1.63,4.94-5.49,3.53-8.75
							c-0.1-0.23-0.72-0.38-0.91-0.42c-0.48-0.11-1.05-0.16-1.55-0.13C121.4,107.25,120.11,107.33,120.38,107.96L120.38,107.96z"/>
					</g>
				</g>
			</g>
		</g>
	</g>
</g>
<g id="Ebene_19_1_">
</g>
</svg>
