<?xml version="1.0" encoding="utf-8"?>
<!-- Generator: Adobe Adobe Illustrator 24.2.0, SVG Export Plug-In . SVG Version: 6.00 Build 0)  -->
<svg version="1.1" xmlns="http://www.w3.org/2000/svg" xmlns:xlink="http://www.w3.org/1999/xlink" x="0px" y="0px"
	 viewBox="0 0 170.08 170.08" style="enable-background:new 0 0 170.08 170.08;" xml:space="preserve">
<style type="text/css">
	.st0{fill:#ADBECF;}
	.st1{fill:#F3C057;}
	.st2{fill:#F7D98D;}
	.st3{fill:#AEBFCE;}
	.st4{opacity:0.2706;}
	.st5{fill:#3D4C5B;}
	.st6{opacity:0.102;}
	.st7{fill:#FFFFFF;}
	.st8{opacity:0.1098;}
	.st9{fill:#F7EBF1;}
	.st10{fill:#F7EBF2;}
	.st11{fill:#F0C1A1;}
	.st12{fill:#CA354F;}
	.st13{fill:#FFFFFF;stroke:#FFFFFF;stroke-width:0.0998;stroke-miterlimit:10;}
	.st14{opacity:0.3098;}
	.st15{fill:#ECC9AD;}
	.st16{opacity:0.1608;}
	.st17{opacity:0.1686;}
	.st18{fill:#F0F6FA;}
	.st19{opacity:0.149;}
	.st20{opacity:0.0314;}
	.st21{stroke:#000000;stroke-width:0.0721;stroke-miterlimit:10;}
	.st22{fill:#C8354F;}
	.st23{fill:#C93550;}
	.st24{fill:#6DB671;}
	.st25{fill:#6CB671;}
	.st26{fill:#D1DFEA;}
	.st27{fill:#D3E1ED;}
	.st28{fill:#C8354E;}
	.st29{fill:#F3C058;}
	.st30{fill:#C8AE9D;}
	.st31{opacity:0.0784;}
	.st32{opacity:0.1412;}
	.st33{fill:#D15238;}
	.st34{fill:#D15239;}
</style>
<g id="Ebene_4_5_">
</g>
<g id="Ebene_8_7_">
	<g>
		<g class="st6">
			<g>
				<path class="st7" d="M24.92,26.12c0.56,0.41,1.12,0.83,1.68,1.25c0.35,0.26,0.71,0.44,1.18,0.44c0.41,0,0.9-0.16,1.18-0.44
					c0.56-0.55,0.72-1.59,0-2.12c-0.56-0.41-1.12-0.83-1.68-1.25c-0.35-0.26-0.71-0.44-1.18-0.44c-0.41,0-0.9,0.16-1.18,0.44
					C24.36,24.55,24.2,25.58,24.92,26.12L24.92,26.12z"/>
			</g>
		</g>
		<g class="st8">
			<g>
				<path class="st7" d="M25.39,50.08c0.82,0,1.52-0.63,1.52-1.36c0-0.74-0.7-1.36-1.52-1.36c-0.82,0-1.52,0.63-1.52,1.36
					C23.87,49.45,24.56,50.08,25.39,50.08L25.39,50.08z"/>
			</g>
		</g>
		<g id="Ebene_14_1_">
			<g>
				<path class="st9" d="M39.17,140.08c-8.63,5.24-19.49,13.47-19.49,23.41c14.94,3.03,31.32,3.25,46.52,2.6
					c22.83-0.97,45.64-2.39,68.42-4.25c-2.48-5.87-5.83-11.33-9.87-16.11c-2.27-2.68-5.09-5.3-8.47-5.42
					c-3.47-0.12-6.45,2.4-9.3,4.52c-10.03,7.45-22.39,11.23-34.59,10.57c-12.19-0.66-24.14-5.76-33.41-14.26"/>
				<g>
					<path class="st10" d="M39.16,139.49c-3.75,2.28-7.39,4.77-10.66,7.68c-3.22,2.86-6.16,6.18-7.91,10.11
						c-0.91,2.05-1.43,4.26-1.44,6.5c0,0.18,0.09,0.33,0.28,0.37c7.06,1.42,14.24,2.21,21.43,2.59c7.23,0.39,14.48,0.38,21.72,0.14
						c7.58-0.25,15.15-0.65,22.72-1.06c7.71-0.41,15.41-0.88,23.12-1.39c7.7-0.51,15.4-1.08,23.1-1.7c0.95-0.08,1.9-0.15,2.86-0.23
						c0.43-0.04,0.95-0.64,0.76-1.09c-1.5-3.54-3.3-6.95-5.42-10.18c-2.04-3.11-4.32-6.26-7.12-8.75c-1.28-1.14-2.74-2.1-4.42-2.57
						c-1.66-0.46-3.4-0.26-4.99,0.36c-1.68,0.66-3.17,1.69-4.61,2.75c-1.52,1.12-3.01,2.26-4.6,3.29
						c-6.35,4.09-13.57,6.83-21.08,7.95c-7.3,1.09-14.78,0.55-21.85-1.5c-7.11-2.06-13.77-5.63-19.45-10.3
						c-0.74-0.61-1.46-1.23-2.16-1.87c-0.49-0.45-1.31,0.72-0.91,1.08c5.4,4.93,11.74,8.83,18.68,11.32
						c6.86,2.46,14.19,3.53,21.48,2.99c7.46-0.55,14.76-2.69,21.34-6.17c1.68-0.89,3.3-1.86,4.88-2.92c1.54-1.04,3-2.19,4.51-3.27
						c1.45-1.04,3.02-2.05,4.79-2.47c1.71-0.41,3.44-0.12,4.99,0.67c1.62,0.83,2.97,2.07,4.19,3.39c1.28,1.39,2.45,2.88,3.56,4.39
						c2.29,3.12,4.28,6.45,5.95,9.92c0.43,0.9,0.84,1.81,1.23,2.73c0.25-0.36,0.51-0.72,0.76-1.09c-7.69,0.63-15.39,1.21-23.1,1.74
						c-7.7,0.53-15.41,1-23.11,1.43c-7.65,0.42-15.29,0.81-22.95,1.12c-7.21,0.29-14.43,0.38-21.65,0.09
						c-7.22-0.29-14.44-0.95-21.55-2.23c-0.86-0.16-1.72-0.32-2.58-0.49c0.09,0.12,0.18,0.25,0.28,0.37
						c0.02-3.84,1.76-7.37,4.12-10.37c2.55-3.24,5.75-5.95,9.1-8.37c1.86-1.35,3.79-2.6,5.76-3.8c0.29-0.18,0.54-0.53,0.52-0.88
						C39.68,139.5,39.44,139.32,39.16,139.49L39.16,139.49z"/>
				</g>
			</g>
		</g>
		<g id="Ebene_27_1_">
			<g>
				<path class="st11" d="M70.11,114.97c0.68,6.48,0.57,10.48-3.01,13.94c-3.57,3.47-8.43,4.93-13.14,6.04
					c-4.71,1.1-9.59,2-13.74,4.63c10.29,9.45,23.84,14.74,37.4,14.62c13.56-0.12,27.02-5.67,37.16-15.3
					c-4.13-2.48-8.9-3.4-13.51-4.56c-4.62-1.16-10.45-0.98-13.98-4.37c-3.53-3.39-4.39-10.82-2.34-15.4
					c-4.76,1.1-9.8,0.77-14.4-0.93"/>
				<g>
					<path class="st11" d="M69.58,115.26c0.27,2.59,0.56,5.29,0.12,7.88c-0.36,2.16-1.38,4.02-3.01,5.53
						c-4.49,4.16-10.8,5.17-16.58,6.56c-3.45,0.83-6.88,1.87-9.89,3.76c-0.26,0.16-0.78,0.82-0.44,1.13
						c7.99,7.31,18.07,12.34,28.88,14.07c10.6,1.7,21.52-0.01,31.2-4.52c5.55-2.59,10.66-6.09,15.08-10.28
						c0.23-0.22,0.64-0.87,0.22-1.12c-2.96-1.76-6.29-2.77-9.62-3.61c-1.61-0.41-3.23-0.83-4.85-1.18c-1.4-0.3-2.82-0.5-4.24-0.73
						c-2.83-0.46-5.82-1.03-8.11-2.84c-2.06-1.62-3.12-4.17-3.62-6.65c-0.57-2.84-0.47-5.98,0.71-8.66
						c0.12-0.27,0.09-0.78-0.34-0.69c-4.7,1.06-9.64,0.74-14.16-0.9c-0.58-0.21-1.27,1.05-0.73,1.24c4.68,1.71,9.77,2.05,14.64,0.95
						c-0.11-0.23-0.23-0.46-0.34-0.69c-1.09,2.49-1.35,5.34-1.04,8.01c0.3,2.59,1.09,5.29,2.81,7.34c1.88,2.24,4.73,3.22,7.53,3.8
						c1.5,0.31,3.03,0.52,4.54,0.77c1.55,0.26,3.07,0.64,4.59,1.01c3.97,0.96,7.97,1.96,11.49,4.06c0.07-0.37,0.15-0.75,0.22-1.12
						c-7.7,7.29-17.49,12.39-28.04,14.31c-10.4,1.89-21.21,0.46-30.83-3.81c-5.53-2.45-10.65-5.8-15.09-9.86
						c-0.15,0.38-0.3,0.76-0.44,1.13c5.6-3.51,12.4-3.87,18.57-5.95c5.14-1.73,10.37-4.94,11.73-10.43c0.73-2.96,0.41-6.12,0.1-9.11
						C70.55,113.83,69.52,114.7,69.58,115.26L69.58,115.26z"/>
				</g>
			</g>
			<g>
				<g>
					<path class="st11" d="M94.48,103.69c0.57,0,1.13-1.31,0.5-1.31C94.41,102.38,93.85,103.69,94.48,103.69L94.48,103.69z"/>
				</g>
			</g>
		</g>
		<g id="Ebene_23">
			<g>
				<g>
					<path d="M69.36,115.27c0.1,2.48,0.18,4.99-0.16,7.45c-0.31,2.26-0.96,4.55-2.47,6.34c-3.15,3.72-8.69,3.9-13.15,4.84
						c-10.28,2.17-20.05,6.88-26.83,14.94c-3.62,4.3-6.26,9.35-7.6,14.77c-0.07,0.28,0.07,0.58,0.4,0.53
						c0.35-0.06,0.57-0.49,0.65-0.78c2.42-9.8,9.4-17.96,18.3-22.83c4.79-2.62,10.04-4.34,15.4-5.42c4.61-0.93,9.74-1.32,13.1-4.96
						c3.8-4.11,3.65-10.27,3.44-15.45c-0.01-0.32-0.26-0.45-0.55-0.31C69.59,114.53,69.35,114.95,69.36,115.27L69.36,115.27z"/>
				</g>
			</g>
			<g>
				<g>
					<path d="M84.24,115.29c-0.19,4.52-0.37,9.79,2.52,13.62c2.86,3.79,7.83,4.47,12.25,5.24c10.44,1.81,20.74,5.93,27.96,13.78
						c3.75,4.07,6.55,8.95,7.92,14.27c0.09,0.33,0.45,0.23,0.65,0.07c0.26-0.2,0.45-0.6,0.36-0.93
						c-2.45-9.49-9.28-17.39-17.85-22.23c-4.71-2.66-9.9-4.45-15.2-5.62c-2.42-0.53-4.88-0.85-7.3-1.38
						c-2.24-0.49-4.49-1.21-6.3-2.65c-4.38-3.48-4.18-9.76-3.96-14.75c0.01-0.32-0.28-0.43-0.54-0.3
						C84.44,114.56,84.26,114.96,84.24,115.29L84.24,115.29z"/>
				</g>
			</g>
			<g>
				<g>
					<path d="M19.31,164.11c6.54,2.65,13.7,2.87,20.68,2.83c7.47-0.05,14.94,0.01,22.42,0.04c7.79,0.03,15.58-0.01,23.37-0.18
						c7.78-0.17,15.56-0.49,23.32-1.04c7.69-0.55,15.37-1.31,23-2.4c0.97-0.14,1.95-0.28,2.92-0.43c0.54-0.08,1-1.4,0.25-1.29
						c-7.65,1.16-15.35,2.01-23.07,2.61c-7.68,0.6-15.38,0.96-23.09,1.16c-7.71,0.21-15.43,0.26-23.14,0.26
						c-7.53-0.01-15.06-0.16-22.59-0.07c-6.96,0.08-14.14,0.24-20.86-1.84c-0.84-0.26-1.67-0.56-2.48-0.89
						C19.47,162.64,18.78,163.9,19.31,164.11L19.31,164.11z"/>
				</g>
			</g>
			<g>
				<g>
					<path d="M39.42,140.94c8.19,7.35,18.52,12.35,29.51,14.02c10.77,1.64,21.85-0.16,31.65-4.77c5.63-2.65,10.8-6.21,15.29-10.46
						c0.23-0.22,0.48-0.6,0.37-0.94c-0.11-0.31-0.45-0.27-0.66-0.07c-7.83,7.42-17.77,12.62-28.49,14.62
						c-10.6,1.97-21.63,0.57-31.47-3.71c-5.67-2.47-10.9-5.85-15.47-9.96C39.75,139.32,38.96,140.53,39.42,140.94L39.42,140.94z"/>
				</g>
			</g>
		</g>
		<g id="Ebene_15_1_">
			<g>
				<path class="st9" d="M80.85,21.84c0.27-0.21,0.54-0.41,0.81-0.62c0.46,1.14,1.84,1.64,2.95,1.29c1.11-0.36,1.94-1.4,2.39-2.55
					c0.44-1.15,0.55-2.41,0.62-3.65c0.07-1.12,0.11-2.27-0.24-3.33c-0.35-1.06-1.18-2.01-2.22-2.12c-1.04-0.11-2.15,0.91-1.95,2.01
					c0.19-0.69-0.45-1.43-1.12-1.44c-0.68-0.01-1.27,0.54-1.55,1.2s-0.3,1.41-0.28,2.13c0.08,2.42,0.62,4.82,1.57,7.02"/>
				<g>
					<path class="st9" d="M81,22.34c0.27-0.21,0.54-0.41,0.81-0.62c-0.22-0.02-0.43-0.05-0.65-0.07c0.56,1.26,1.97,1.93,3.33,1.51
						c1.58-0.49,2.63-2.03,3.1-3.51c0.29-0.89,0.41-1.81,0.49-2.73c0.08-0.95,0.16-1.92,0.08-2.87c-0.12-1.47-0.73-3.25-2.32-3.74
						c-1.69-0.52-3.37,1.24-3.17,2.86c0.11,0.83,0.96,0.02,1.04-0.42c0.21-1.07-0.63-2.21-1.82-1.92c-1.28,0.31-1.97,1.71-2.13,2.88
						c-0.19,1.41,0.02,2.9,0.27,4.29c0.26,1.45,0.69,2.86,1.27,4.22c0.29,0.68,1.23-0.36,1.02-0.86c-0.8-1.87-1.31-3.85-1.49-5.87
						c-0.08-0.87-0.28-2.14,0.22-2.93c0.19-0.3,0.54-0.52,0.91-0.45c0.4,0.07,0.8,0.49,0.72,0.89c0.35-0.14,0.7-0.28,1.04-0.42
						c-0.08-0.63,0.38-1.06,1.03-1.08c0.69-0.01,1.29,0.49,1.66,1.02c0.96,1.36,0.74,3.2,0.62,4.76c-0.11,1.45-0.35,3.23-1.6,4.19
						c-1.04,0.8-2.71,0.57-3.27-0.69c-0.14-0.31-0.41-0.25-0.65-0.07c-0.27,0.21-0.54,0.41-0.81,0.62
						C80.21,21.72,80.24,22.92,81,22.34L81,22.34z"/>
				</g>
			</g>
		</g>
		<g id="Ebene_24">
			<g>
				<path class="st9" d="M55.68,133.11c-1.56-0.57-3.46,0.41-4.01,2.08s0.35,3.71,1.89,4.32c1.55,0.61,3.47-0.33,4.06-1.97
					c0.59-1.65-0.26-3.72-1.79-4.37"/>
				<g>
					<path d="M56.04,132.49c-1.51-0.51-3.1,0.11-4.08,1.3c-1.06,1.28-1.28,3.07-0.56,4.56c0.67,1.4,2.1,2.26,3.69,1.92
						c1.6-0.35,2.85-1.74,3.16-3.29c0.34-1.69-0.41-3.68-2.06-4.43c-0.55-0.25-1.27,1-0.73,1.24c1.3,0.59,2.12,2.2,1.73,3.59
						c-0.37,1.3-2.01,1.99-3.27,1.51c-1.34-0.51-2.16-2.18-1.82-3.54c0.33-1.33,1.93-2.04,3.21-1.61
						C55.9,133.93,56.57,132.67,56.04,132.49L56.04,132.49z"/>
				</g>
			</g>
			<g>
				<path class="st9" d="M57.49,137.76c-0.45,1.71,0.55,3.71,2.14,4.25c1.59,0.53,3.48-0.49,4.03-2.17
					c0.54-1.68-0.36-3.74-1.91-4.37c-1.56-0.63-3.5,0.28-4.13,1.93"/>
				<g>
					<path d="M56.98,137.89c-0.37,1.54,0.14,3.25,1.41,4.26c1.24,0.98,2.94,0.77,4.16-0.12c1.34-0.98,2-2.64,1.73-4.25
						c-0.25-1.49-1.36-2.93-2.97-3.13c-1.86-0.23-3.51,1.11-4.16,2.72c-0.1,0.23-0.12,0.65,0.21,0.7c0.33,0.05,0.62-0.37,0.72-0.61
						c0.52-1.26,2.18-1.87,3.43-1.29c1.32,0.61,2.11,2.35,1.66,3.72c-0.43,1.3-2.11,1.97-3.37,1.44c-1.4-0.58-2.13-2.26-1.79-3.68
						c0.07-0.27-0.07-0.57-0.39-0.52C57.27,137.18,57.05,137.6,56.98,137.89L56.98,137.89z"/>
				</g>
			</g>
			<g>
				<path class="st9" d="M63.55,139.63c-0.36,1.98,0.86,4.16,2.67,4.72c1.81,0.56,3.95-0.61,4.54-2.53
					c0.59-1.92-0.52-4.25-2.32-4.83c-1.81-0.58-3.95,0.74-4.35,2.71"/>
				<g>
					<path d="M63.03,139.76c-0.28,1.76,0.35,3.65,1.84,4.72c1.46,1.06,3.41,0.75,4.76-0.33c1.47-1.17,2.12-3.11,1.65-4.9
						c-0.42-1.59-1.78-3.09-3.57-3.05c-2.07,0.05-3.72,1.73-4.15,3.64c-0.06,0.27,0.07,0.57,0.39,0.52
						c0.34-0.06,0.57-0.48,0.64-0.77c0.26-1.18,1.4-2.03,2.62-2.07c1.34-0.05,2.42,0.93,2.89,2.1c0.47,1.19,0.38,2.57-0.64,3.45
						c-1,0.87-2.47,1.03-3.61,0.35c-1.3-0.79-2.03-2.43-1.79-3.9c0.04-0.27-0.06-0.57-0.39-0.52
						C63.35,139.04,63.08,139.47,63.03,139.76L63.03,139.76z"/>
				</g>
			</g>
			<g>
				<path class="st9" d="M70.95,141.53c0.11,2,1.9,3.71,3.77,3.6c1.87-0.1,3.48-2,3.4-4s-1.84-3.74-3.71-3.68
					c-1.87,0.07-3.51,1.93-3.47,3.93"/>
				<g>
					<path d="M70.42,141.81c0.14,1.7,1.23,3.32,2.95,3.83c1.75,0.52,3.45-0.49,4.4-1.9c1.02-1.51,1.19-3.47,0.21-5.04
						c-0.89-1.42-2.66-2.3-4.33-1.73c-1.96,0.67-3.24,2.71-3.24,4.7c0,0.32,0.27,0.43,0.54,0.3c0.31-0.15,0.52-0.55,0.52-0.88
						c0-1.58,1.29-3.1,2.99-2.99c1.68,0.11,3.06,1.7,3.13,3.3c0.07,1.57-1.24,3.14-2.92,3.06c-1.7-0.08-3.06-1.63-3.19-3.23
						C71.41,140.39,70.37,141.26,70.42,141.81L70.42,141.81z"/>
				</g>
			</g>
			<g>
				<path class="st9" d="M78.15,141.24c0.09-2.23,2.01-4.2,4.1-4.2s4,1.98,4.09,4.21s-1.68,4.36-3.76,4.54
					c-2.08,0.18-4.14-1.62-4.4-3.84"/>
				<g>
					<path d="M78.68,140.95c0.08-1.39,1.05-2.68,2.42-3.11c1.43-0.44,2.9,0.24,3.79,1.36c0.93,1.17,1.22,2.76,0.51,4.11
						c-0.65,1.25-2.03,2.04-3.47,1.79c-1.67-0.29-3.02-1.81-3.24-3.43c-0.11-0.85-1.13,0.02-1.06,0.57
						c0.25,1.87,1.52,3.57,3.43,4.08c1.95,0.52,3.81-0.63,4.85-2.19c1.1-1.65,1.26-3.79,0.23-5.51c-0.96-1.61-2.92-2.65-4.81-2.08
						c-2.17,0.66-3.6,2.81-3.73,4.97c-0.02,0.32,0.28,0.43,0.54,0.3C78.48,141.67,78.66,141.28,78.68,140.95L78.68,140.95z"/>
				</g>
			</g>
			<g>
				<path class="st9" d="M86.41,140.43c0.24,2.08,2.26,3.71,4.19,3.41c1.93-0.31,3.42-2.51,3.07-4.57s-2.45-3.58-4.36-3.14
					c-1.91,0.44-3.26,2.75-2.77,4.77"/>
				<g>
					<path d="M85.88,140.72c0.25,1.78,1.52,3.39,3.39,3.75c1.87,0.36,3.57-0.95,4.38-2.51c0.88-1.7,0.84-3.81-0.54-5.25
						c-1.22-1.28-3.15-1.75-4.72-0.8c-1.82,1.1-2.79,3.38-2.35,5.42c0.07,0.34,0.46,0.22,0.65,0.07c0.26-0.21,0.44-0.6,0.36-0.93
						c-0.27-1.23,0.2-2.63,1.3-3.34c1.15-0.75,2.62-0.41,3.61,0.44c1.07,0.92,1.54,2.39,1.03,3.71c-0.46,1.21-1.65,2.08-3,1.91
						c-1.54-0.19-2.84-1.56-3.05-3.05C86.82,139.3,85.81,140.17,85.88,140.72L85.88,140.72z"/>
				</g>
			</g>
			<g>
				<path class="st9" d="M93.63,138.29c-1.48-1.62-1.45-4.53,0.06-6.12c1.51-1.59,4.23-1.58,5.72,0.02s1.5,4.51,0.01,6.12
					c-1.49,1.61-4.21,1.63-5.72,0.05"/>
				<g>
					<path d="M94.09,137.75c-0.97-1.11-1.29-2.72-0.8-4.1c0.49-1.4,1.91-2.12,3.38-1.99c1.59,0.15,2.8,1.27,3.19,2.76
						c0.35,1.33,0.1,2.99-1.09,3.85c-1.38,1-3.45,0.74-4.62-0.44c-0.47-0.47-1.3,0.69-0.91,1.08c1.37,1.38,3.52,1.68,5.24,0.73
						c1.8-0.98,2.71-3.09,2.56-5.05c-0.14-1.94-1.3-3.67-3.29-4.15c-1.97-0.47-3.98,0.53-4.97,2.21c-1.1,1.87-1.08,4.5,0.39,6.18
						C93.61,139.32,94.45,138.17,94.09,137.75L94.09,137.75z"/>
				</g>
			</g>
			<g>
				<path class="st9" d="M83.34,12.65c-1.23-3.48-4.81-5.82-8.26-5.4c-3.45,0.42-6.45,3.55-6.93,7.23
					c-5.29-3.35-12.08-3.85-17.75-1.29c-1.85,0.83-3.64,2.03-4.76,3.81c-1.13,1.78-1.47,4.24-0.45,6.1
					c-3.99-2.65-9.45-2.53-13.32,0.32c-3.88,2.84-5.96,8.24-5.09,13.18c-4.67-1.12-9.86,0.85-12.82,4.88
					c-2.96,4.02-3.54,9.89-1.42,14.48c-4.43,1.67-7.45,6.84-6.91,11.83s4.58,9.29,9.25,9.83c-2.94,1.71-4.26,5.84-3.31,9.27
					s3.87,6.02,7.13,6.85c3.25,0.83,6.75,0.04,9.67-1.7c-2.46,2.96-2.39,7.93,0.14,10.81c2.54,2.88,7.18,3.24,10.08,0.79
					c-2.24,2.73-2.05,7.35,0.4,9.86c2.45,2.51,6.77,2.52,9.23,0.01c0.42,3.11,2.71,5.83,5.56,6.6c2.85,0.77,6.07-0.48,7.81-3.01
					c0.35,3.38,4.08,4.62,6.86,2.97"/>
				<g>
					<path d="M83.85,12.22c-1.01-2.77-3.42-4.99-6.4-5.55c-2.99-0.57-5.93,0.92-7.75,3.21c-1.09,1.37-1.82,3.01-2.06,4.74
						c0.29-0.25,0.59-0.5,0.88-0.75c-3.68-2.3-8.08-3.3-12.42-2.82c-4.1,0.45-8.77,2.25-10.94,5.9c-1.2,2.01-1.54,4.59-0.43,6.71
						c0.27-0.39,0.55-0.78,0.82-1.16c-3.42-2.23-7.83-2.52-11.56-0.88c-3.68,1.61-6.23,5.07-7.32,8.79
						c-0.63,2.16-0.78,4.42-0.4,6.63c0.25-0.36,0.51-0.72,0.76-1.09c-3.89-0.9-8.02,0.27-11.05,2.76c-3.25,2.66-5,6.7-5.22,10.79
						c-0.12,2.35,0.29,4.74,1.26,6.89c0.21-0.36,0.42-0.72,0.63-1.07c-3.86,1.49-6.52,5.13-7.35,9.04
						c-0.86,4.02,0.46,8.28,3.51,11.12c1.6,1.49,3.6,2.52,5.8,2.79c0.08-0.42,0.16-0.83,0.24-1.25c-3.52,2.12-4.91,6.84-3.71,10.61
						c1.27,4,5.12,6.84,9.38,7.06c2.76,0.14,5.49-0.7,7.85-2.08c-0.09-0.32-0.19-0.64-0.28-0.96c-2.06,2.54-2.62,6.16-1.51,9.2
						c1.09,3,3.9,5.07,7.19,5.06c1.82,0,3.57-0.64,4.96-1.79c-0.14-0.29-0.28-0.58-0.41-0.87c-1.86,2.32-2.34,5.62-1.28,8.37
						c1.07,2.79,3.77,4.61,6.85,4.38c1.69-0.12,3.28-0.83,4.47-2.02c-0.22-0.02-0.43-0.05-0.65-0.07c0.44,3.07,2.64,5.94,5.74,6.81
						c3.17,0.89,6.59-0.69,8.41-3.27c-0.27-0.03-0.53-0.06-0.8-0.09c0.19,1.63,1.08,3.07,2.68,3.7c1.55,0.62,3.29,0.39,4.72-0.43
						c0.29-0.17,0.54-0.54,0.52-0.88c-0.02-0.3-0.26-0.47-0.54-0.3c-2.47,1.42-5.96,0.35-6.32-2.67c-0.06-0.48-0.55-0.44-0.8-0.09
						c-1.65,2.33-4.74,3.57-7.55,2.64c-2.77-0.91-4.64-3.53-5.04-6.29c-0.05-0.33-0.49-0.23-0.65-0.07
						c-2.37,2.35-6.53,2.27-8.78-0.22c-2.1-2.32-2.41-6.3-0.43-8.78c0.17-0.21,0.36-0.59,0.21-0.86c-0.15-0.25-0.43-0.18-0.63-0.01
						c-2.13,1.76-5.27,1.91-7.68,0.59c-2.56-1.4-3.78-4.24-3.67-7.03c0.06-1.54,0.55-3.08,1.54-4.3c0.16-0.19,0.34-0.54,0.24-0.8
						c-0.08-0.22-0.31-0.29-0.52-0.16c-3.57,2.09-8.11,2.79-11.83,0.64c-3.24-1.88-5.27-5.51-4.61-9.21
						c0.33-1.86,1.29-3.65,2.97-4.66c0.28-0.17,0.9-1.17,0.24-1.25c-3.6-0.45-6.64-3.07-8.08-6.26c-1.53-3.39-1.15-7.31,0.9-10.41
						c1.07-1.62,2.63-2.97,4.47-3.68c0.35-0.14,0.82-0.66,0.63-1.07c-1.57-3.47-1.66-7.53-0.25-11.06c1.35-3.37,4.2-5.99,7.75-7.03
						c1.95-0.57,4-0.64,5.98-0.18c0.5,0.12,0.82-0.73,0.76-1.09c-0.58-3.43,0.27-7.15,2.4-9.95c2.19-2.88,5.66-4.51,9.33-4.36
						c2.08,0.08,4.08,0.73,5.81,1.86c0.53,0.35,1.01-0.79,0.82-1.16c-0.88-1.68-0.61-3.77,0.38-5.34c0.99-1.57,2.64-2.63,4.31-3.39
						c3.51-1.61,7.55-1.98,11.33-1.2c2.18,0.45,4.25,1.3,6.13,2.48c0.39,0.25,0.84-0.46,0.88-0.75c0.44-3.2,2.99-6.14,6.38-6.47
						c3.44-0.34,6.66,2.12,7.78,5.2C83.09,13.77,84.04,12.73,83.85,12.22L83.85,12.22z"/>
				</g>
			</g>
			<g>
				<path class="st9" d="M85.42,120.3c3.36,2.76,8.87,1.66,11.08-2.21c2.44,0.87,5.3,0.21,7.19-1.65c1.9-1.86,2.76-4.85,2.17-7.52
					c2.89,1.84,7.06,0.81,8.89-2.2c1.83-3.01,1.04-7.51-1.7-9.59c3.48,1.19,7.58,1.32,10.49-1.03c2.92-2.35,3.65-7.74,0.72-10.07
					c3.39,0.2,7.03,0.34,9.88-1.63c2.85-1.97,4.08-6.92,1.45-9.21c2.88-1.29,4.91-4.51,4.94-7.86c0.02-3.34-1.96-6.6-4.83-7.93
					c0.98-3.5,1.85-7.34,0.57-10.73c-1.28-3.39-5.67-5.57-8.25-3.18c2.51-2.61,2.38-7.54-0.26-9.99c-2.65-2.45-7.22-1.89-9.28,1.15
					c3.01-3.04,1.74-9.06-1.85-11.26c-3.59-2.2-8.38-1.03-11.51,1.87c1.24-3.99-0.14-8.75-3.27-11.28s-7.79-2.65-11.04-0.28
					c1.29-2.06,0.42-5.28-1.7-6.28c-2.12-1-4.93,0.49-5.48,2.9"/>
				<g>
					<path d="M85.05,120.92c3.79,3.05,9.51,1.35,11.82-2.62c-0.25,0.14-0.5,0.27-0.75,0.41c2.82,0.96,5.92,0.1,7.95-2.01
						c2.07-2.15,2.89-5.33,2.29-8.21c-0.29,0.35-0.58,0.7-0.87,1.05c2.51,1.55,5.8,1.09,8.03-0.74c2.41-1.99,3.22-5.31,2.48-8.24
						c-0.4-1.59-1.27-3.03-2.58-4.05c-0.24,0.41-0.49,0.83-0.73,1.24c3.3,1.11,7.2,1.38,10.23-0.6c2.54-1.65,3.98-4.73,3.72-7.71
						c-0.13-1.57-0.75-3.02-2-4.05c-0.21,0.43-0.41,0.85-0.62,1.28c3.28,0.2,6.86,0.33,9.76-1.44c2.34-1.43,3.81-4.15,3.8-6.85
						c0-1.39-0.46-2.78-1.52-3.74c-0.15,0.38-0.3,0.76-0.44,1.13c2.51-1.15,4.31-3.53,5.06-6.11c0.78-2.69,0.34-5.61-1.23-7.95
						c-0.84-1.25-1.99-2.29-3.37-2.95c0.05,0.16,0.1,0.33,0.15,0.49c0.93-3.33,1.79-6.97,0.78-10.38c-0.72-2.43-2.73-4.57-5.35-5
						c-1.38-0.23-2.74,0.18-3.77,1.1c0.14,0.29,0.28,0.58,0.41,0.87c2.15-2.28,2.65-5.93,1.4-8.76c-1.25-2.84-4.28-4.33-7.37-3.61
						c-1.76,0.41-3.21,1.48-4.23,2.94c-0.14,0.2-0.24,0.61-0.03,0.8c0.23,0.2,0.52-0.04,0.68-0.21c2.34-2.42,2.41-6.21,1.01-9.1
						c-0.72-1.48-1.85-2.73-3.35-3.48c-1.69-0.84-3.65-1.02-5.5-0.69c-2.22,0.4-4.29,1.51-5.93,3.01c0.2,0.18,0.41,0.36,0.61,0.54
						c0.96-3.16,0.55-6.66-1.21-9.49c-1.76-2.83-4.93-4.59-8.33-4.46c-1.96,0.07-3.8,0.72-5.37,1.85c0.18,0.24,0.35,0.48,0.52,0.71
						c1.35-2.24,0.88-5.89-1.72-7.12c-2.76-1.3-5.72,1.06-6.36,3.65c-0.07,0.27,0.07,0.57,0.39,0.52c0.34-0.06,0.57-0.48,0.64-0.77
						c0.49-1.98,3.04-3.06,4.84-2.03c1.74,1,2.48,3.61,1.45,5.32c-0.28,0.47-0.08,1.15,0.52,0.71c2.48-1.78,5.9-2.01,8.67-0.75
						c2.76,1.26,4.54,3.9,5.18,6.76c0.36,1.64,0.35,3.39-0.14,5.01c-0.13,0.43,0.13,0.98,0.61,0.54c2.51-2.29,6.31-3.63,9.66-2.4
						c2.86,1.05,4.59,3.87,4.71,6.8c0.06,1.52-0.34,3-1.42,4.12c0.22,0.2,0.43,0.39,0.65,0.59c1.44-2.07,4.47-2.76,6.79-1.84
						c2.53,1.01,3.74,3.65,3.64,6.21c-0.05,1.43-0.55,2.82-1.54,3.88c-0.18,0.19-0.36,0.61-0.21,0.86c0.14,0.25,0.43,0.19,0.63,0.01
						c2.31-2.06,5.73-0.06,7.09,2.11c2.12,3.37,0.91,7.9-0.07,11.43c-0.04,0.15-0.02,0.41,0.15,0.49c2.8,1.34,4.59,4.32,4.66,7.35
						c0.07,2.99-1.62,5.95-4.42,7.23c-0.28,0.13-0.76,0.85-0.44,1.13c2.17,1.95,1.55,5.48-0.29,7.44c-2.52,2.68-6.97,2.4-10.34,2.2
						c-0.53-0.03-1.06,0.92-0.62,1.28c1.9,1.56,2.05,4.36,1.23,6.49c-1.03,2.67-3.73,4.02-6.55,4.16c-1.75,0.08-3.51-0.23-5.17-0.78
						c-0.57-0.19-1.22,0.86-0.73,1.24c2.48,1.93,3.33,5.91,1.77,8.63c-1.6,2.77-5.52,3.6-8.22,1.93c-0.51-0.32-0.95,0.7-0.87,1.05
						c0.48,2.3-0.11,4.89-1.8,6.6c-1.7,1.71-4.4,2.3-6.68,1.52c-0.32-0.11-0.6,0.15-0.75,0.41c-2.05,3.52-7.16,4.35-10.33,1.8
						C85.35,119.33,84.57,120.54,85.05,120.92L85.05,120.92z"/>
				</g>
			</g>
		</g>
		<g id="Ebene_3_2_">
			<g>
				<path class="st11" d="M35.58,53.91c-4.78-1.73-10.58-0.03-13.69,4.02c-3.1,4.05-3.27,10.12-0.4,14.33s8.58,6.24,13.45,4.78
					c2.95,7.83,6.69,15.46,12,21.91s12.29,11.71,20.31,13.97c11.19,3.16,27.19-0.27,34.08-5.47c11.92-9,16.42-30.34,16.42-30.34
					s10.91,0.24,13.91-3.87c3-4.11,2.8-12.45-0.64-16.19c-2.5-2.72-8.21-3.51-14.25-2.85c-2.14-5.02-2.86-9.08-3.13-14
					c-12.76,1.4-25.89-8.26-28.95-20.79c-15.81,21.46-42.4,19.35-42.4,19.35s-0.4,12.95-6.39,15.33"/>
				<g>
					<path class="st11" d="M35.96,53.27c-6.04-2.13-12.98,0.85-15.7,6.48c-2.8,5.78-1.16,13.17,4.55,16.59
						c2.97,1.78,6.67,2.34,10.01,1.37c-0.13-0.07-0.26-0.15-0.4-0.22c3.66,9.67,8.54,19.2,16.18,26.46
						c3.52,3.34,7.56,6.19,12.06,8.12c4.2,1.81,8.67,2.67,13.25,2.74c4.58,0.08,9.19-0.5,13.62-1.62c3.81-0.97,7.69-2.33,10.96-4.51
						c3.1-2.07,5.63-4.9,7.75-7.91c2.18-3.1,3.96-6.46,5.47-9.92c1.92-4.38,3.49-8.98,4.54-13.64c0.02-0.07,0.03-0.15,0.05-0.23
						c-0.26,0.27-0.53,0.54-0.79,0.81c1.81,0.04,3.64-0.1,5.43-0.33c2.79-0.36,5.99-1,8.15-2.9c2.57-2.26,3.28-6.26,3.24-9.47
						c-0.04-3.24-0.89-7.12-3.56-9.29c-1.63-1.32-3.81-1.91-5.86-2.22c-2.64-0.4-5.34-0.33-7.99-0.05c0.13,0.07,0.26,0.15,0.4,0.22
						c-0.95-2.25-1.73-4.56-2.25-6.95c-0.49-2.28-0.74-4.59-0.87-6.91c-0.01-0.26-0.15-0.4-0.42-0.37
						c-10.05,1.06-19.97-4.72-25.23-12.9c-1.52-2.37-2.65-4.95-3.32-7.66c-0.11-0.44-0.64-0.17-0.8,0.06
						c-5.29,7.16-12.62,12.57-21.06,15.7c-5.55,2.06-11.49,3.22-17.43,3.4c-1.12,0.03-2.25,0.05-3.37-0.04
						c-0.48-0.04-0.79,0.59-0.81,0.97c-0.05,1.44-0.22,2.78-0.46,4.23c-0.43,2.59-1.08,5.29-2.48,7.55
						c-0.71,1.14-1.65,2.11-2.92,2.63c-0.54,0.22-0.81,1.56,0.02,1.22c2.73-1.11,4.26-4.01,5.17-6.59c0.89-2.52,1.37-5.17,1.62-7.82
						c0.06-0.6,0.11-1.21,0.13-1.82c-0.27,0.32-0.54,0.65-0.81,0.97c3.36,0.26,6.85-0.08,10.17-0.59
						c7.49-1.14,14.79-3.75,21.07-7.93c4.53-3.01,8.49-6.78,11.7-11.13c-0.27,0.02-0.54,0.04-0.8,0.06
						C86.6,29.67,95.02,37.8,105,40.27c2.78,0.69,5.66,0.89,8.51,0.59c-0.14-0.12-0.28-0.25-0.42-0.37
						c0.13,2.35,0.38,4.71,0.87,7.02c0.52,2.45,1.31,4.82,2.29,7.13c0.08,0.19,0.19,0.25,0.4,0.22c2.27-0.24,4.57-0.3,6.85-0.05
						c1.84,0.2,3.7,0.6,5.33,1.49c2.91,1.58,4.06,4.96,4.34,8.03c0.16,1.71,0.06,3.45-0.33,5.13c-0.31,1.33-0.82,2.79-1.78,3.81
						c-0.82,0.87-1.99,1.4-3.11,1.8c-1.35,0.47-2.75,0.77-4.16,0.98c-1.9,0.28-3.84,0.43-5.76,0.39c-0.42-0.01-0.72,0.46-0.79,0.81
						c-0.79,3.75-2.02,7.39-3.44,10.98c-2.59,6.56-6.11,13.31-11.65,17.95c-2.77,2.32-6.15,3.79-9.59,4.89
						c-4.25,1.35-8.7,2.14-13.16,2.34c-4.39,0.2-8.86-0.15-13.05-1.52c-4.55-1.48-8.73-3.93-12.39-6.93
						c-7.92-6.49-13.21-15.48-17.05-24.73c-0.5-1.2-0.97-2.41-1.43-3.62c-0.06-0.17-0.2-0.28-0.4-0.22
						c-5.52,1.61-11.88-1.27-14.11-6.49c-1.14-2.67-1.3-5.76-0.38-8.51c0.9-2.7,2.82-4.86,5.4-6.16c2.82-1.42,6.23-1.71,9.22-0.66
						C35.8,54.76,36.5,53.46,35.96,53.27L35.96,53.27z"/>
				</g>
			</g>
		</g>
		<g id="Ebene_9_8_">
			<g>
				<path class="st12" d="M83.67,88.8c-0.76-1.57-3.39-1.43-4.25,0.08c-0.87,1.52-0.04,3.62,1.48,4.48
					c1.52,0.86,3.46,0.64,5.01-0.17c1.29-0.67,2.42-1.81,2.75-3.23s-0.33-3.12-1.68-3.66c-1.35-0.54-3.16,0.52-3.11,1.98"/>
				<g>
					<path class="st12" d="M84.14,88.24c-0.96-1.83-3.63-1.43-4.79-0.05c-1.46,1.73-0.87,4.48,0.98,5.7c2.2,1.44,5.32,0.51,7.1-1.15
						c1.69-1.57,2.69-4.43,0.94-6.34c-1.83-1.99-5.05-0.29-5.06,2.19c0,0.33,0.28,0.45,0.56,0.31c0.32-0.15,0.53-0.57,0.53-0.91
						c0-0.65,0.64-1.02,1.24-1.12c0.76-0.13,1.47,0.23,1.92,0.81c1.1,1.4,0.61,3.17-0.69,4.25c-1.39,1.16-3.57,1.73-5.29,0.95
						c-1.26-0.57-2.54-2.35-1.8-3.74c0.68-1.27,2.82-0.91,3.41,0.21C83.49,89.91,84.41,88.76,84.14,88.24L84.14,88.24z"/>
				</g>
			</g>
		</g>
		<g id="Ebene_2_7_">
			<g>
				<g>
					<path d="M36.71,53.31c-5.96-2.61-13.26-0.04-16.36,5.53c-1.58,2.83-2.11,6.19-1.5,9.35c0.6,3.1,2.39,5.83,5,7.67
						c2.89,2.03,6.62,2.85,10.1,2.08c0.55-0.12,1.01-1.5,0.26-1.33c-5.76,1.28-12.01-2.17-13.87-7.66
						c-0.94-2.76-0.85-5.84,0.26-8.53c1.08-2.64,3.19-4.68,5.84-5.81c3-1.28,6.53-1.32,9.52-0.01
						C36.53,54.84,37.26,53.55,36.71,53.31L36.71,53.31z"/>
				</g>
			</g>
			<g>
				<g>
					<path d="M116.5,54.87c3.23-0.35,6.61-0.72,9.77,0.24c2.66,0.81,4.96,2.54,5.97,5.14c0.55,1.4,0.77,2.89,0.85,4.38
						c0.08,1.39,0.07,2.79-0.15,4.17c-0.21,1.33-0.61,2.65-1.36,3.79c-0.74,1.11-1.81,1.97-3,2.6c-3.23,1.7-7.01,1.58-10.57,1.47
						c-0.59-0.02-1.18,1.33-0.52,1.35c3.45,0.11,7,0.18,10.23-1.19c2.94-1.24,5.04-3.61,5.91-6.62c0.84-2.92,0.82-6.3,0.14-9.25
						c-0.69-3.01-2.59-5.38-5.48-6.65c-3.64-1.59-7.69-1.18-11.54-0.76C116.2,53.6,115.72,54.96,116.5,54.87L116.5,54.87z"/>
				</g>
			</g>
			<g>
				<g>
					<path d="M33.56,77.71c2.45,7.67,6.34,14.96,11.53,21.2c5.05,6.07,11.45,11.22,18.96,14.07c7.28,2.76,15.4,3.45,23.03,1.79
						c3.78-0.82,7.44-2.23,10.74-4.22c3.46-2.09,6.48-4.83,9.02-7.93c5.34-6.51,8.55-14.45,10.71-22.46
						c0.26-0.98,0.51-1.97,0.75-2.96c0.07-0.28-0.07-0.59-0.4-0.53c-0.35,0.06-0.59,0.5-0.66,0.8c-1.86,7.82-4.6,15.66-9.34,22.28
						c-2.29,3.2-5.05,6.11-8.29,8.4c-3.06,2.17-6.54,3.76-10.17,4.77c-7.33,2.05-15.32,1.8-22.57-0.5
						c-7.45-2.37-13.93-6.97-19.13-12.66c-5.35-5.86-9.46-12.81-12.19-20.18c-0.34-0.91-0.65-1.82-0.94-2.74
						C34.38,76.11,33.39,77.18,33.56,77.71L33.56,77.71z"/>
				</g>
			</g>
			<g>
				<g>
					<path d="M36.49,54.46c1.92-1.92,3.02-4.56,3.92-7.06c0.86-2.37,1.53-4.82,2.09-7.28c0.11-0.5,0.23-1.01,0.32-1.51
						c-0.26,0.27-0.53,0.54-0.79,0.81c3.36,0.2,6.82-0.21,10.12-0.77c7.47-1.26,14.73-3.95,21-8.15c4.54-3.04,8.51-6.82,11.75-11.17
						c-0.27,0.02-0.54,0.04-0.8,0.06c3.47,9.4,11.54,16.99,21.27,20.04c2.7,0.85,5.49,1.35,8.33,1.44c-0.1-0.13-0.19-0.25-0.29-0.38
						c0.3,4.79,1.1,9.63,2.85,14.13c0.28,0.71,1.25-0.36,1.05-0.88c-1.71-4.41-2.51-9.14-2.81-13.84c-0.01-0.16-0.08-0.37-0.29-0.38
						c-9.97-0.33-19.37-5.7-25.1-13.61c-1.65-2.28-2.99-4.77-3.96-7.4c-0.15-0.4-0.61-0.2-0.8,0.06
						c-5.31,7.14-12.63,12.57-21.02,15.79c-5.53,2.12-11.45,3.39-17.38,3.68c-1.12,0.05-2.26,0.1-3.39,0.03
						c-0.41-0.02-0.73,0.47-0.79,0.81c-0.74,3.87-1.82,7.83-3.53,11.4c-0.53,1.11-1.16,2.27-2.04,3.16
						c-0.23,0.23-0.5,0.61-0.38,0.96C35.92,54.7,36.28,54.67,36.49,54.46L36.49,54.46z"/>
				</g>
			</g>
			<g>
				<g>
					<path d="M73.6,91.13c7.15,1.2,14.66-1.12,19.94-5.95c0.24-0.22,0.49-0.62,0.38-0.96c-0.11-0.32-0.46-0.27-0.67-0.07
						c-5.08,4.64-12.27,6.77-19.12,5.62C73.55,89.68,72.93,91.01,73.6,91.13L73.6,91.13z"/>
				</g>
			</g>
			<g>
				<g>
					<path d="M74.98,65.88c0.96-0.78,2.38-0.93,3.53-0.47c1.21,0.48,2.02,1.58,2.16,2.85c0.13,1.18-0.31,2.32-1.4,2.91
						c-1.14,0.61-2.55,0.55-3.65-0.12c-0.52-0.32-1.29,0.96-0.76,1.28c2.35,1.45,5.4,0.2,6.48-2.17c1.07-2.35,0.11-5.43-2.55-6.19
						c-1.44-0.41-2.97-0.05-4.11,0.88c-0.25,0.2-0.49,0.63-0.38,0.96C74.42,66.13,74.76,66.06,74.98,65.88L74.98,65.88z"/>
				</g>
			</g>
			<g>
				<path d="M68.04,53.99c-0.21-0.96,0.03-1.95,0.21-2.91c0.18-0.96,0.3-2.01-0.14-2.89s-1.62-1.44-2.43-0.88
					c-0.85,0.59-0.73,1.85-0.8,2.88c-0.05,0.82-0.28,1.63-0.41,2.44c-0.12,0.82-0.13,1.69,0.24,2.43c0.37,0.74,1.2,1.29,2.01,1.1
					c0.8-0.18,1.32-1.27,0.8-1.91"/>
				<g>
					<path d="M68.57,53.55c-0.36-1.95,1.01-3.95,0.05-5.86c-0.73-1.44-2.62-1.71-3.59-0.37c-0.48,0.66-0.6,1.45-0.64,2.24
						c-0.05,0.95-0.19,1.85-0.36,2.79c-0.29,1.57-0.28,3.88,1.64,4.44c1.65,0.48,3.31-1.69,2.33-3.1c-0.37-0.54-1.27,0.64-0.94,1.12
						c0.4,0.58-0.25,0.8-0.76,0.66c-0.81-0.23-1.25-1.02-1.33-1.8c-0.1-0.88,0.15-1.74,0.31-2.59c0.14-0.76,0.14-1.5,0.2-2.26
						c0.05-0.59,0.14-1.14,0.88-1.04c0.72,0.1,1.24,0.7,1.42,1.36c0.22,0.81,0.02,1.67-0.14,2.48c-0.18,0.94-0.31,1.86-0.13,2.81
						c0.07,0.35,0.48,0.22,0.67,0.07C68.47,54.29,68.63,53.9,68.57,53.55L68.57,53.55z"/>
				</g>
			</g>
			<g>
				<path d="M87.19,52.39c0.43-0.94,0.86-1.93,0.75-2.96c-0.12-1.02-1.02-2.03-2.03-1.85c-1.1,0.19-1.55,1.51-1.7,2.62
					c-0.15,1.19-0.19,2.39-0.12,3.59c0.06,0.86,0.3,1.87,1.1,2.15c0.71,0.24,1.5-0.28,1.81-0.97c0.32-0.68,0.28-1.47,0.24-2.22"/>
				<g>
					<path d="M87.67,52.44c0.66-1.46,1.4-3.44,0.16-4.83c-1.09-1.21-2.63-0.7-3.42,0.54c-0.91,1.43-0.92,3.37-0.9,4.99
						c0.02,1.18,0.06,3.41,1.71,3.54c0.86,0.07,1.65-0.6,2.07-1.28c0.54-0.89,0.56-1.94,0.51-2.94c-0.02-0.32-0.27-0.45-0.56-0.31
						c-0.3,0.15-0.55,0.58-0.53,0.91c0.03,0.6,0.18,1.55-0.3,2.02c-0.47,0.47-1.15,0.23-1.45-0.29c-0.33-0.57-0.33-1.28-0.35-1.92
						c-0.03-0.86,0-1.72,0.1-2.58c0.11-0.9,0.48-2.65,1.81-1.86c1.49,0.89,0.74,2.73,0.19,3.93c-0.11,0.24-0.11,0.67,0.22,0.72
						C87.28,53.12,87.56,52.69,87.67,52.44L87.67,52.44z"/>
				</g>
			</g>
			<g>
				<g>
					<path d="M84.43,43.2c2.93-0.09,5.75,1.18,7.6,3.4c0.43,0.52,1.31-0.67,0.94-1.12c-1.94-2.34-4.92-3.74-8.01-3.64
						C84.36,41.86,83.79,43.22,84.43,43.2L84.43,43.2z"/>
				</g>
			</g>
			<g>
				<g>
					<path d="M60.7,46.33c1.82-2.1,4.72-3.05,7.47-2.59c0.57,0.1,1.2-1.24,0.52-1.35c-3.21-0.54-6.46,0.77-8.55,3.17
						c-0.18,0.21-0.41,0.68-0.19,0.94C60.18,46.78,60.53,46.53,60.7,46.33L60.7,46.33z"/>
				</g>
			</g>
			<g>
				<g>
					<path d="M120.31,58.44c4.01,0.6,7.29,4.12,7.64,8.07c0.08,0.88,1.14-0.02,1.09-0.59c-0.38-4.32-3.77-8.16-8.21-8.83
						C120.25,57,119.64,58.34,120.31,58.44L120.31,58.44z"/>
				</g>
			</g>
			<g>
				<g>
					<path d="M31.46,55.84c-5,0.66-8.77,5.82-8.24,10.65c0.09,0.87,1.15-0.02,1.09-0.59c-0.45-4.14,2.64-8.16,6.9-8.72
						C31.77,57.1,32.24,55.74,31.46,55.84L31.46,55.84z"/>
				</g>
			</g>
		</g>
		<g id="Ebene_8_8_">
			<ellipse class="st13" cx="67.09" cy="49.04" rx="0.67" ry="0.68"/>
			<ellipse class="st13" cx="86.65" cy="49.62" rx="0.65" ry="0.65"/>
		</g>
		<g id="Ebene_10_5_">
			<g class="st14">
				<path class="st12" d="M62.27,86.88c-0.15-2.35-2.21-4.37-4.53-4.66c-2.33-0.29-4.72,1.02-5.91,3.05
					c-1.2,2.03-1.25,4.63-0.35,6.81c1.01,2.41,3.23,4.34,5.8,4.74c2.57,0.4,5.39-0.88,6.59-3.2c1.2-2.32,0.52-5.53-1.65-6.97"/>
				<g>
					<path class="st12" d="M62.81,86.59c-0.26-3.2-3.33-5.56-6.57-4.99c-3.5,0.62-5.75,3.91-5.93,7.23
						c-0.18,3.28,1.66,6.63,4.73,8.06c2.9,1.36,6.44,0.53,8.45-1.92c2.16-2.62,2.04-6.94-0.91-8.97c-0.49-0.34-1.27,0.92-0.76,1.28
						c2,1.38,2.72,4.37,1.45,6.45c-1.36,2.22-4.48,2.99-6.88,2.12c-2.63-0.95-4.53-3.39-4.93-6.09c-0.41-2.79,0.87-5.71,3.73-6.64
						c2.89-0.94,6.27,0.97,6.52,4.05C61.79,88.05,62.86,87.16,62.81,86.59L62.81,86.59z"/>
				</g>
			</g>
			<g class="st14">
				<path class="st12" d="M107.3,79.53c-0.15-2.35-2.21-4.37-4.53-4.66s-4.72,1.02-5.91,3.05c-1.2,2.03-1.25,4.63-0.35,6.81
					c1,2.41,3.23,4.34,5.8,4.74c2.57,0.4,5.39-0.88,6.59-3.2c1.2-2.32,0.52-5.53-1.65-6.97"/>
				<g>
					<path class="st12" d="M107.85,79.23c-0.26-3.2-3.33-5.56-6.57-4.99c-3.5,0.62-5.75,3.91-5.93,7.23
						c-0.18,3.28,1.66,6.63,4.73,8.06c2.9,1.36,6.44,0.53,8.45-1.92c2.16-2.62,2.04-6.94-0.91-8.97c-0.49-0.34-1.27,0.92-0.76,1.28
						c2,1.38,2.72,4.37,1.45,6.45c-1.36,2.22-4.48,2.99-6.88,2.12c-2.63-0.95-4.53-3.39-4.93-6.09c-0.41-2.79,0.87-5.71,3.73-6.64
						c2.89-0.94,6.27,0.97,6.52,4.05C106.83,80.7,107.9,79.8,107.85,79.23L107.85,79.23z"/>
				</g>
			</g>
		</g>
		<g id="Ebene_13_1_">
			<g class="st6">
				<path d="M23.46,56.56c-0.96,4.04-0.46,8.45,1.36,12.14s4.95,6.61,8.6,8.04c-4.3,0.65-8.86-1.66-11.12-5.63
					c-2.26-3.97-2.07-9.37,0.44-13.15"/>
				<g>
					<path d="M22.05,56.17c-1.58,6.85,0.54,14.47,6.11,19.07c1.48,1.22,3.09,2.16,4.88,2.87c0-0.92,0-1.85,0-2.77
						c0.21-0.03-0.26,0.02-0.32,0.03c-0.18,0.01-0.37,0.02-0.55,0.03c-0.42,0.01-0.84-0.01-1.26-0.05c-0.02,0-0.28-0.04-0.08-0.01
						c-0.08-0.01-0.16-0.03-0.23-0.04c-0.18-0.03-0.36-0.07-0.54-0.11c-0.41-0.09-0.82-0.21-1.22-0.36
						c-1.31-0.46-2.64-1.34-3.68-2.38c-2.27-2.3-3.18-5.53-2.88-8.76c0.16-1.71,0.77-3.5,1.76-5.01c0.43-0.65,0.14-1.58-0.53-1.96
						c-0.71-0.41-1.58-0.14-2.01,0.51c-2.21,3.38-2.77,7.75-1.69,11.6c1.08,3.85,3.89,7.01,7.64,8.54c2.04,0.83,4.2,1.06,6.38,0.74
						c0.63-0.09,1.08-0.81,1.08-1.38c0-0.68-0.47-1.14-1.08-1.38c-0.18-0.07-0.44-0.19-0.72-0.32c-0.33-0.16-0.64-0.33-0.96-0.51
						c-0.58-0.33-1.21-0.75-1.65-1.09c-1.06-0.84-2.09-1.87-2.84-2.88c-1.79-2.41-2.88-5.29-3.14-8.26
						c-0.15-1.79-0.05-3.59,0.36-5.34c0.17-0.76-0.24-1.55-1.02-1.77C23.11,54.97,22.22,55.41,22.05,56.17L22.05,56.17z"/>
				</g>
			</g>
			<g class="st6">
				<path d="M25.37,36.99c-4.47-0.22-8.98,2.21-11.48,6.18c-2.5,3.97-2.92,9.35-1.05,13.7c-4.03,1.83-6.63,6.72-6.05,11.36
					s4.29,8.62,8.63,9.26c-3.29,3.7-3.14,10.27,0.32,13.79c3.46,3.52,9.6,3.36,12.89-0.35c-2,3.21-2.08,7.83,0.23,10.79
					c2.31,2.96,7.02,3.54,9.6,0.84c-1.75,2.99-1.47,7.17,0.65,9.87c2.12,2.7,5.93,3.7,8.98,2.37c5.74,5.08,14.11,6.47,21.03,3.54
					c0.13-0.06,0.07-0.18-0.02-0.29c-5.1-6.33-15.11-7.52-21.2-13.62c-6.2-6.22-13.3-26.23-14.49-25.85
					c-17.32,5.61-22.19-27-3.78-25.8c18.1,1.18-1.11-6.74-3.49-14.86"/>
				<g>
					<path d="M25.37,35.55c-3.93-0.16-7.81,1.48-10.57,4.19c-2.94,2.88-4.47,6.89-4.58,10.93c-0.06,2.24,0.34,4.51,1.21,6.58
						c0.22-0.54,0.45-1.08,0.67-1.62c-3.6,1.68-6.09,5.42-6.67,9.22c-0.63,4.07,0.72,8.22,3.79,11.08c1.6,1.49,3.62,2.6,5.81,2.94
						c-0.22-0.8-0.43-1.6-0.65-2.4c-2.92,3.34-3.59,8.33-1.91,12.38c0.87,2.08,2.29,3.89,4.3,5.04c1.87,1.07,4.13,1.54,6.28,1.3
						c2.53-0.28,4.91-1.37,6.61-3.25c-0.77-0.58-1.54-1.16-2.3-1.74c-1.81,2.96-2.29,6.89-0.95,10.12c0.7,1.68,1.78,3.12,3.35,4.12
						c1.34,0.85,2.99,1.32,4.59,1.29c1.94-0.04,3.8-0.78,5.15-2.15c-0.77-0.58-1.54-1.16-2.3-1.74c-1.56,2.73-1.79,6.2-0.59,9.1
						c1.19,2.88,3.7,5.14,6.88,5.71c1.85,0.33,3.63,0.12,5.36-0.61c-0.59-0.07-1.18-0.15-1.78-0.22c5.98,5.24,14.81,7.03,22.3,3.98
						c0.84-0.34,1.51-0.97,1.25-1.96c-0.14-0.54-0.59-0.97-0.96-1.38c-0.57-0.64-1.2-1.23-1.87-1.77c-1.42-1.15-2.96-2.13-4.58-2.99
						c-3.2-1.72-6.6-3.06-9.74-4.9c-1.59-0.93-2.88-1.82-4.17-3.05c-0.44-0.42-0.86-0.87-1.25-1.33c-0.09-0.1-0.17-0.21-0.26-0.32
						c-0.16-0.2,0.01,0.01,0.03,0.05c-0.04-0.06-0.09-0.11-0.13-0.17c-0.2-0.26-0.4-0.53-0.59-0.79c-1.66-2.33-3.04-4.84-4.35-7.38
						c-2.4-4.66-4.36-9.52-6.78-14.17c-0.32-0.62-0.66-1.26-1.12-1.79c-0.17-0.2-0.36-0.37-0.59-0.49
						c-0.66-0.36-1.27-0.12-1.93,0.06c-0.26,0.07-0.53,0.13-0.79,0.19c-0.13,0.03-0.26,0.05-0.39,0.07
						c-0.12,0.02-0.64,0.08-0.18,0.04c-0.52,0.05-1.04,0.1-1.57,0.09c-0.24,0-0.47-0.01-0.71-0.03c-0.12-0.01-0.23-0.02-0.35-0.03
						c-0.25-0.02,0.11,0.01,0.13,0.02c-0.08-0.01-0.17-0.03-0.25-0.04c-0.45-0.08-0.9-0.18-1.34-0.32
						c-0.22-0.07-0.44-0.16-0.66-0.24c0.28,0.1,0.15,0.07-0.02-0.01c-0.11-0.05-0.22-0.1-0.33-0.16c-0.41-0.2-0.81-0.44-1.19-0.69
						c-0.09-0.06-0.18-0.12-0.27-0.18c-0.28-0.19,0.24,0.2-0.03-0.02c-0.18-0.14-0.36-0.29-0.53-0.44
						c-0.35-0.31-0.67-0.64-0.98-0.98c-0.15-0.16-0.29-0.33-0.43-0.5c-0.12-0.15,0.18,0.25-0.03-0.04
						c-0.08-0.11-0.17-0.22-0.25-0.34c-0.28-0.39-0.53-0.79-0.76-1.2c-0.24-0.42-0.46-0.85-0.66-1.29c-0.05-0.1-0.18-0.45-0.02-0.05
						c-0.04-0.11-0.09-0.21-0.13-0.32c-0.1-0.24-0.19-0.48-0.27-0.73c-0.32-0.92-0.56-1.86-0.72-2.81
						c-0.02-0.11-0.04-0.23-0.06-0.34c-0.01-0.06-0.01-0.12-0.03-0.17c-0.04-0.19,0.03,0.31,0.02,0.12
						c-0.02-0.26-0.06-0.52-0.08-0.78c-0.04-0.47-0.06-0.95-0.06-1.42c0-0.49,0.02-0.97,0.06-1.46c0.02-0.23,0.05-0.45,0.07-0.68
						c0.02-0.2-0.05,0.33,0.01-0.04c0.02-0.14,0.04-0.28,0.07-0.41c0.17-0.92,0.43-1.82,0.77-2.69c0.13-0.33-0.07,0.15,0.01-0.03
						c0.05-0.1,0.09-0.2,0.13-0.29c0.1-0.22,0.21-0.43,0.33-0.64c0.21-0.38,0.45-0.75,0.7-1.1c0.03-0.04,0.26-0.35,0.1-0.14
						c-0.15,0.21,0.1-0.12,0.13-0.16c0.14-0.17,0.3-0.34,0.45-0.49c0.15-0.15,0.3-0.3,0.46-0.44c0.08-0.07,0.16-0.14,0.24-0.21
						c0.05-0.04,0.41-0.31,0.2-0.16c-0.22,0.16,0.1-0.07,0.14-0.1c0.09-0.06,0.18-0.12,0.27-0.18c0.19-0.13,0.39-0.24,0.6-0.35
						c0.21-0.11,0.42-0.21,0.63-0.31c0.05-0.02,0.11-0.04,0.15-0.07c0.16-0.09-0.29,0.09-0.11,0.05c0.12-0.03,0.24-0.09,0.36-0.14
						c0.48-0.17,0.97-0.3,1.46-0.39c0.12-0.02,0.24-0.05,0.37-0.06c0.17-0.03,0.41-0.05,0.08-0.02c0.29-0.03,0.58-0.06,0.88-0.07
						c2.82-0.14,5.76,0.56,8.53-0.23c0.95-0.27,1.9-0.83,2.19-1.81c0.25-0.84-0.02-1.71-0.48-2.43c-1.09-1.71-2.81-3.06-4.3-4.42
						c-0.92-0.84-1.83-1.68-2.71-2.57c-0.44-0.45-0.88-0.91-1.29-1.39c-0.19-0.22-0.38-0.44-0.56-0.67c-0.17-0.2,0,0,0.03,0.04
						c-0.05-0.07-0.11-0.14-0.16-0.21c-0.1-0.13-0.19-0.25-0.28-0.38c-0.31-0.44-0.61-0.9-0.86-1.37c-0.07-0.13-0.13-0.26-0.2-0.39
						c-0.03-0.06-0.05-0.12-0.08-0.17c-0.09-0.17,0.1,0.26,0.03,0.08c-0.08-0.25-0.19-0.49-0.26-0.74
						c-0.53-1.77-3.36-1.02-2.83,0.76c0.64,2.14,2.07,3.98,3.58,5.61c1.5,1.62,3.17,3.08,4.8,4.58c0.67,0.62,1.35,1.24,1.97,1.92
						c0.13,0.14,0.24,0.28,0.37,0.42c0.19,0.22-0.06-0.09-0.04-0.05c0.05,0.07,0.1,0.14,0.15,0.21c0.08,0.12,0.17,0.24,0.24,0.37
						c0.03,0.05,0.05,0.11,0.09,0.16c0.12,0.2-0.1-0.37-0.04-0.09c0.01,0.05,0.02,0.11,0.04,0.15c0.1,0.21-0.03-0.39-0.02-0.2
						c0.01,0.39,0.11-0.34,0.02-0.04c-0.06,0.18,0.2-0.38,0.08-0.19c-0.13,0.21,0.09-0.1,0.13-0.15c-0.03,0.04-0.08,0.08-0.12,0.12
						c-0.1,0.09,0.36-0.2,0.1-0.09c-0.06,0.03-0.14,0.06-0.19,0.1c-0.15,0.11,0.38-0.12,0.1-0.04c-0.17,0.05-0.34,0.11-0.51,0.15
						c-0.11,0.02-0.21,0.05-0.32,0.06c-0.06,0.01-0.42,0.07-0.16,0.03c0.25-0.04-0.14,0.01-0.2,0.02c-0.16,0.02-0.33,0.03-0.49,0.04
						c-2.66,0.18-5.32-0.32-7.97,0.09c-1.92,0.29-3.7,1.09-5.21,2.27c-2.89,2.25-4.23,5.84-4.57,9.34
						c-0.35,3.64,0.45,7.46,2.22,10.69c1.71,3.12,4.58,5.77,8.18,6.57c2.02,0.45,4.12,0.34,6.11-0.19c0.2-0.05,0.6-0.09,0.76-0.22
						c-0.1,0.08-0.61,0.02-0.71,0c0.05,0.01-0.44-0.21-0.27-0.11c-0.36-0.22-0.29-0.24-0.14-0.08c0.18,0.19-0.23-0.35-0.03-0.04
						c0.32,0.49,0.6,0.99,0.87,1.51c2.13,4.14,3.9,8.45,5.99,12.62c1.19,2.39,2.45,4.75,3.88,7.02c1.28,2.02,2.71,3.97,4.55,5.55
						c5.03,4.32,11.69,5.92,17.04,9.73c0.51,0.36,0.98,0.74,1.54,1.25c0.26,0.24,0.51,0.49,0.76,0.74c0.14,0.15,0.28,0.3,0.41,0.45
						c0.05,0.06,0.1,0.11,0.15,0.17c0.23,0.27,0.03,0.24-0.04-0.12c0.13-0.47,0.25-0.93,0.38-1.4c0.31-0.18,0.35-0.21,0.1-0.1
						c-0.11,0.04-0.21,0.08-0.32,0.12c-0.21,0.08-0.43,0.15-0.64,0.22c-0.43,0.14-0.86,0.27-1.3,0.38
						c-0.85,0.21-1.71,0.37-2.44,0.44c-0.9,0.09-1.8,0.12-2.7,0.09c-0.87-0.03-1.65-0.11-2.39-0.23c-3.51-0.6-6.72-2.09-9.34-4.39
						c-0.54-0.47-1.14-0.49-1.78-0.22c0.14-0.06-0.33,0.11-0.39,0.13c-0.2,0.06-0.4,0.11-0.61,0.16c-0.15,0.03-0.31,0.06-0.46,0.08
						c0.22-0.03-0.33,0.02-0.39,0.02c-0.36,0.01-0.73,0-1.09-0.04c0.21,0.02-0.33-0.06-0.39-0.07c-0.15-0.03-0.31-0.07-0.46-0.11
						c-1.28-0.35-2.56-1.17-3.34-2.21c-0.24-0.32-0.45-0.67-0.64-1.03c-0.19-0.36-0.23-0.47-0.36-0.85
						c-0.26-0.76-0.39-1.43-0.43-2.11c-0.09-1.55,0.19-2.94,0.93-4.24c0.8-1.4-1.12-2.94-2.3-1.74c-0.1,0.11-0.21,0.21-0.32,0.31
						c-0.07,0.06-0.15,0.13-0.22,0.19c0.02-0.02,0.14-0.1,0.01-0.01c-0.26,0.18-0.53,0.32-0.8,0.46c-0.01,0-0.22,0.09-0.09,0.04
						c0.15-0.06-0.12,0.04-0.16,0.05c-0.13,0.04-0.27,0.09-0.41,0.12s-0.28,0.06-0.42,0.09c-0.07,0.01-0.14,0.03-0.21,0.04
						c0.21-0.03-0.01,0-0.11,0c-0.29,0.02-0.57,0.02-0.86,0.01c-0.07,0-0.51-0.05-0.25-0.02c-0.17-0.02-0.33-0.06-0.5-0.09
						c-0.28-0.06-0.56-0.15-0.83-0.25c-0.03-0.01-0.31-0.12-0.16-0.06c0.13,0.05-0.09-0.04-0.09-0.05
						c-0.15-0.08-0.31-0.15-0.45-0.24c-0.6-0.34-0.83-0.52-1.32-1.05c-0.35-0.38-0.73-0.98-1.01-1.59c0.06,0.13-0.08-0.2-0.1-0.24
						c-0.06-0.15-0.11-0.3-0.15-0.45c-0.11-0.36-0.2-0.72-0.27-1.09c-0.01-0.05-0.06-0.41-0.04-0.26c-0.02-0.16-0.03-0.32-0.04-0.48
						c-0.02-0.38-0.03-0.76-0.01-1.14c0.07-1.43,0.51-2.92,1.29-4.2c0.84-1.37-1.18-2.98-2.3-1.74c-0.31,0.34-0.63,0.65-0.98,0.94
						c-0.02,0.02-0.22,0.16-0.06,0.05c-0.08,0.06-0.16,0.12-0.24,0.17c-0.21,0.14-0.42,0.27-0.63,0.39
						c-0.22,0.12-0.44,0.23-0.66,0.33c-0.03,0.01-0.26,0.1-0.06,0.03c-0.09,0.04-0.18,0.07-0.28,0.1c-0.44,0.15-0.89,0.27-1.35,0.36
						c-0.1,0.02-0.19,0.03-0.29,0.05c-0.27,0.04,0.34-0.02-0.12,0.01c-0.2,0.01-0.39,0.03-0.59,0.04c-0.46,0.02-0.93,0-1.4-0.06
						c-0.27-0.03,0.33,0.07-0.12-0.02c-0.1-0.02-0.19-0.04-0.29-0.05c-0.19-0.04-0.38-0.08-0.57-0.14c-0.21-0.06-0.42-0.12-0.63-0.2
						c-0.12-0.04-0.23-0.08-0.34-0.13c0.18,0.08-0.06-0.03-0.12-0.06c-3.16-1.55-4.53-4.82-4.31-8.25c0.11-1.71,0.82-3.7,1.92-4.97
						c0.64-0.73,0.54-2.22-0.65-2.4c-0.76-0.12-1.63-0.37-2.13-0.6c-0.35-0.16-0.69-0.35-1.02-0.55c-0.4-0.25-0.64-0.42-0.9-0.64
						c-0.3-0.25-0.59-0.52-0.86-0.8c-0.28-0.28-0.6-0.66-0.74-0.85c-0.46-0.62-0.93-1.41-1.2-2.04c-1.3-2.94-0.91-6.35,0.8-9.1
						c0.93-1.5,2.16-2.65,3.82-3.42c0.52-0.24,0.9-1.08,0.67-1.62c-1.36-3.23-1.46-6.73-0.34-10.03c1.06-3.1,3.35-5.64,6.39-7.05
						c0.39-0.18,0.6-0.26,1.05-0.41c0.45-0.15,0.9-0.27,1.36-0.37c0.84-0.18,1.67-0.24,2.66-0.2c0.79,0.03,1.47-0.68,1.47-1.44
						C26.84,36.19,26.16,35.59,25.37,35.55L25.37,35.55z"/>
				</g>
			</g>
			<g class="st6">
				<path d="M70.96,124.68c4.86-2.44,9.44-5.51,13.61-9.12c-4.02,1.38-8.45,1.33-12.44-0.14c-0.85-0.31-1.87,0.45-1.9,1.41
					c-0.07,2.72-0.14,5.45-0.21,8.17"/>
				<g>
					<path d="M71.7,125.92c5.01-2.53,9.67-5.7,13.91-9.35c1.08-0.93-0.06-2.86-1.43-2.4c-1.92,0.65-3.91,0.98-5.94,0.95
						c-1.01-0.02-2.01-0.12-3-0.32c-1-0.2-1.94-0.6-2.92-0.82c-1.06-0.24-2.16,0.2-2.83,1.01c-0.8,0.95-0.72,2.07-0.75,3.23
						c-0.06,2.26-0.11,4.52-0.17,6.77c-0.05,1.85,2.89,1.85,2.93,0c0.05-2.08,0.1-4.16,0.16-6.23c0.01-0.5,0.03-1,0.04-1.51
						c0.01-0.22-0.03-0.47,0.04-0.48c0.05-0.01-0.3,0.32,0.02,0.03c-0.11,0.07-0.1,0.06,0.05-0.03c-0.14,0.05-0.12,0.04,0.04-0.01
						c-0.15-0.01-0.31-0.06-0.1,0.04c0.45,0.2,0.96,0.33,1.44,0.47c3.84,1.07,8.01,0.95,11.78-0.33c-0.47-0.8-0.95-1.6-1.43-2.4
						c-4.05,3.49-8.52,6.48-13.31,8.9c-0.7,0.36-0.91,1.32-0.53,1.96C70.11,126.1,70.99,126.28,71.7,125.92L71.7,125.92z"/>
				</g>
			</g>
			<g class="st6">
				<path d="M37.79,143.1c6.24,13.08,19.96,21.63,33.66,20.99c20.91-0.97,41.81-1.95,62.71-2.92c-36.8,4.55-74,5.51-110.96,2.85
					c-1.12-0.08-1.98-1.45-1.64-2.59c2.79-9.14,9.3-16.91,17.5-20.86"/>
				<g>
					<path d="M36.52,143.82c2.54,5.3,6.36,10.03,11.03,13.68c4.6,3.58,9.99,6.23,15.77,7.38c2.91,0.58,5.84,0.75,8.81,0.62
						c3.93-0.18,7.87-0.37,11.8-0.55c7.87-0.37,15.74-0.73,23.6-1.1c7.91-0.37,15.81-0.74,23.71-1.1c0.97-0.05,1.95-0.09,2.92-0.14
						c0-0.96,0-1.91,0-2.87c-9.79,1.21-19.6,2.17-29.44,2.87c-9.79,0.7-19.61,1.15-29.43,1.34c-9.82,0.19-19.64,0.13-29.45-0.18
						c-4.93-0.16-9.85-0.38-14.77-0.66c-2.48-0.14-4.96-0.3-7.43-0.48c-0.14-0.01-0.3-0.04-0.44-0.03c0.09,0,0.12,0.01,0.21,0.05
						c-0.08-0.04-0.17-0.08-0.24-0.14c0.1,0.07,0.06,0.09-0.03-0.05c0.14,0.23-0.16-0.26-0.1-0.14c0.07,0.13-0.05-0.14-0.06-0.17
						c-0.05-0.15,0.02,0.13-0.03-0.13c-0.04-0.21,0.01-0.16-0.01-0.06c0.02-0.1,0.06-0.21,0.09-0.31c0.07-0.22,0.14-0.44,0.21-0.66
						c0.16-0.49,0.34-0.98,0.52-1.46c2.55-6.68,7.42-12.71,13.65-16.43c0.78-0.46,1.58-0.89,2.39-1.29
						c0.71-0.34,0.91-1.33,0.53-1.96c-0.42-0.71-1.29-0.86-2.01-0.51c-7.07,3.43-12.74,9.46-16.09,16.41
						c-0.45,0.94-0.86,1.89-1.24,2.86c-0.34,0.88-0.74,1.81-0.91,2.73c-0.2,1.14,0.16,2.3,0.97,3.14c0.89,0.92,2.04,0.97,3.25,1.05
						c5.06,0.35,10.13,0.64,15.21,0.86c10.11,0.44,20.22,0.6,30.34,0.5c10.12-0.1,20.23-0.47,30.32-1.11
						c10.1-0.64,20.18-1.55,30.23-2.72c1.25-0.15,2.5-0.3,3.75-0.45c0.78-0.1,1.47-0.59,1.47-1.44c0-0.75-0.67-1.47-1.47-1.44
						c-7.75,0.36-15.51,0.72-23.27,1.08c-7.75,0.36-15.51,0.72-23.27,1.08c-3.9,0.18-7.79,0.36-11.69,0.54
						c-3.21,0.15-6.42,0.4-9.62,0.03c-0.33-0.04-0.32-0.04-0.72-0.1c-0.37-0.06-0.74-0.12-1.11-0.19c-0.68-0.13-1.37-0.28-2.04-0.45
						c-1.33-0.34-2.64-0.75-3.92-1.24c-1.17-0.45-2.41-1.01-3.64-1.66c-1.25-0.66-2.47-1.39-3.64-2.19
						c-4.59-3.14-8.49-7.43-11.19-12.32c-0.36-0.64-0.69-1.3-1.01-1.96c-0.34-0.7-1.37-0.88-2.01-0.51
						C36.31,142.28,36.18,143.12,36.52,143.82L36.52,143.82z"/>
				</g>
			</g>
		</g>
	</g>
</g>
<g id="Ebene_9_6_">
</g>
<g id="Ebene_3">
	<g>
		<g>
			<g id="Ebene_2_Kopie">
				<g class="st19">
					<path d="M128.94,102.21c3.75,1.37,6.21,4.88,5.83,8.29c-0.38,3.41-3.58,6.47-7.57,7.23c-3.99,0.76-8.45-0.83-10.56-3.77
						c-2.11-2.94-1.7-6.99,0.97-9.59c2.67-2.6,7.39-3.54,11.16-2.23"/>
					<g>
						<path d="M128.61,102.68c3.52,1.31,5.91,4.47,5.71,7.71c-0.19,3.06-2.94,5.82-6.41,6.7c-3.65,0.93-7.87-0.27-10.22-2.77
							c-2.37-2.51-2.56-6.23-0.51-8.92c2.3-3.03,7.38-4.1,11.26-2.78c0.51,0.18,1.14-0.79,0.66-0.96c-3.93-1.34-8.6-0.4-11.49,2.18
							c-2.94,2.64-3.65,6.84-1.7,10.06c1.9,3.14,6.31,4.92,10.43,4.43c4.2-0.49,7.64-3.43,8.66-6.81c1.16-3.88-1.38-8.18-5.73-9.8
							C128.76,101.54,128.13,102.51,128.61,102.68L128.61,102.68z"/>
					</g>
				</g>
				<g class="st19">
					<path d="M113.61,38.91c0.32-3.17,1.23-6.39,3.38-9.01s5.71-4.58,9.5-4.56c5.51,0.03,10.06,4.29,10.91,8.85
						c0.85,4.56-1.29,9.19-4.34,13.03c-3.05,3.84-7,7.12-10.39,10.76c-5.51,5.93-9.55,12.99-10.5,20.47
						c-0.62,4.92,0.25,10.23,4.01,14.04c3.76,3.81,10.94,5.45,15.79,2.63c3.08-1.78,4.67-4.92,5.26-8.02s0.36-6.26,0.6-9.39
						c0.5-6.45,3.09-12.79,7.43-18.13c5.37-6.62,13.41-11.86,16.71-19.38c3.49-7.96,0.67-17.34-6.03-23.69
						c-6.7-6.35-16.81-9.78-26.91-10.23c-11.1-0.49-22.51,2.56-30.7,8.86S85.49,31,86.83,40.25c0.53,3.65,2.07,7.35,5.28,9.84
						c4.23,3.29,11.17,3.8,16.02,1.19s4.58-7.12,5.46-12.26"/>
					<g>
						<path d="M114.08,38.68c0.29-2.82,1.05-5.69,2.85-8.12c1.61-2.18,4.2-3.93,7.2-4.52c5.93-1.16,11.21,2.95,12.58,7.54
							c1.71,5.74-2.02,11.5-6.1,15.88c-2.21,2.37-4.65,4.58-6.93,6.91c-2.17,2.21-4.16,4.55-5.87,7.04
							c-3.34,4.86-5.64,10.28-6.2,15.89c-0.5,5.03,0.6,10.85,5.15,14.5c3.82,3.06,10.13,4.44,14.85,1.97
							c2.58-1.35,4.29-3.6,5.26-5.97c1.14-2.81,1.24-5.78,1.3-8.72c0.06-3.02,0.28-5.99,1.06-8.95c0.74-2.81,1.89-5.56,3.42-8.14
							c1.49-2.51,3.33-4.83,5.42-7.01c1.97-2.07,4.09-4.03,6.14-6.04c4.01-3.95,7.75-8.25,9.13-13.4
							c1.33-4.99,0.47-10.31-2.01-14.95c-2.56-4.8-6.82-8.76-12.09-11.59c-5.32-2.86-11.5-4.54-17.77-5.09
							c-6.35-0.55-12.87,0.06-18.92,1.79c-6.02,1.73-11.59,4.56-16.01,8.41c-4.37,3.8-7.55,8.54-9.2,13.63
							c-1.61,4.97-1.82,10.58,0.32,15.47c1.05,2.39,2.75,4.62,5.24,6.13c2.3,1.39,5.16,2.1,7.98,2.11c2.83,0,5.66-0.69,7.94-2.11
							c2.15-1.33,3.38-3.31,4.02-5.45c0.68-2.28,0.81-4.65,1.2-6.97c0.12-0.72-0.84-0.28-0.93,0.2c-0.39,2.34-0.52,4.73-1.22,7.03
							c-0.64,2.12-2.02,3.85-4.31,4.95c-4.95,2.37-11.74,1.56-15.68-1.91c-4.27-3.76-5.22-9.55-4.74-14.53
							c0.49-5.12,2.75-10.13,6.27-14.33c3.61-4.3,8.53-7.69,14.16-9.99c5.69-2.33,12.04-3.54,18.37-3.6
							c6.23-0.06,12.5,0.99,18.16,3.19c5.6,2.18,10.59,5.5,13.99,9.85c3.3,4.23,5.12,9.32,4.85,14.38c-0.13,2.52-0.83,5-2.05,7.31
							c-1.23,2.33-2.95,4.46-4.81,6.46c-3.83,4.1-8.31,7.76-11.7,12.14c-3.64,4.7-5.99,10.13-6.81,15.69
							c-0.44,3.03-0.28,6.08-0.52,9.12c-0.21,2.66-0.84,5.38-2.63,7.63c-1.56,1.97-4,3.24-6.81,3.49c-2.68,0.24-5.44-0.4-7.73-1.55
							c-5.34-2.68-7.37-8.05-7.45-13.01c-0.09-5.46,1.84-10.91,4.79-15.74c1.51-2.48,3.31-4.84,5.32-7.05
							c2.13-2.34,4.51-4.51,6.77-6.77c4.32-4.33,8.36-9.34,8.69-15.15c0.14-2.49-0.51-4.95-2.08-7.07
							c-1.42-1.92-3.55-3.56-6.11-4.32c-5.95-1.77-11.82,1.74-14.39,6.11c-1.42,2.41-2.06,5.05-2.33,7.71
							c-0.03,0.25,0.26,0.33,0.48,0.23C113.91,39.24,114.06,38.94,114.08,38.68L114.08,38.68z"/>
					</g>
				</g>
				<g class="st19">
					<path d="M122.85,109.74c-1.49-1.98-0.37-4.97,2.19-5.89"/>
					<g>
						<path d="M123.26,109.32c-1.27-1.74-0.45-4.19,1.79-5.02c0.47-0.17,0.7-1.18-0.02-0.91c-2.91,1.08-4.26,4.47-2.59,6.77
							C122.74,110.56,123.53,109.69,123.26,109.32L123.26,109.32z"/>
					</g>
				</g>
				<g class="st19">
					<path d="M122.16,106.74c0.21-0.03,0.37,0.22,0.23,0.35c-0.26-0.12-0.27-0.48-0.03-0.61"/>
					<g>
						<path d="M121.94,107.25c0.07,0,0.06,0.02,0.02-0.01c0.06,0.04-0.03-0.04,0.01,0c0.03,0.03,0.02,0.05,0.01-0.01
							c0,0.01,0.01,0.02,0.01,0.03c-0.04-0.16,0.02-0.31,0.17-0.44c0.19-0.06,0.38-0.13,0.57-0.19c-0.02-0.01-0.04-0.02-0.05-0.03
							c0.07,0.05,0.02,0.01,0-0.01c-0.03-0.05,0.03,0.06,0.01,0.01c-0.03-0.08,0,0.01-0.01,0.01c-0.01,0,0-0.05,0-0.06
							c0.01,0.01-0.02,0.11,0,0.04c-0.02,0.07-0.05,0.14-0.1,0.2c-0.01,0.02-0.14,0.12-0.07,0.08c0.23-0.14,0.41-0.48,0.33-0.72
							c-0.09-0.26-0.4-0.17-0.59-0.06c-0.49,0.3-0.8,1.15-0.18,1.48c0.19,0.1,0.46-0.07,0.57-0.19c0.21-0.23,0.36-0.54,0.24-0.83
							c-0.07-0.17-0.26-0.33-0.49-0.32c-0.31,0.02-0.55,0.23-0.65,0.47c-0.05,0.11-0.08,0.24-0.04,0.36
							C121.73,107.16,121.82,107.26,121.94,107.25L121.94,107.25z"/>
					</g>
				</g>
			</g>
			<g id="Ebene_2_4_">
				<g>
					<path class="st33" d="M131.37,100.13c3.75,1.37,6.21,4.88,5.83,8.29c-0.38,3.41-3.58,6.47-7.57,7.23
						c-3.99,0.76-8.45-0.83-10.56-3.77c-2.11-2.94-1.7-6.99,0.97-9.59c2.67-2.6,7.39-3.54,11.16-2.23"/>
					<g>
						<path d="M131.04,100.61c3.52,1.31,5.91,4.47,5.71,7.71c-0.19,3.06-2.94,5.82-6.41,6.7c-3.65,0.93-7.87-0.27-10.22-2.77
							c-2.37-2.51-2.56-6.23-0.51-8.92c2.3-3.03,7.38-4.1,11.26-2.78c0.51,0.18,1.14-0.79,0.66-0.96c-3.93-1.34-8.6-0.4-11.49,2.18
							c-2.94,2.64-3.65,6.84-1.7,10.06c1.9,3.14,6.31,4.92,10.43,4.43c4.2-0.49,7.64-3.43,8.66-6.81c1.16-3.88-1.38-8.18-5.73-9.8
							C131.2,99.47,130.56,100.43,131.04,100.61L131.04,100.61z"/>
					</g>
				</g>
				<g>
					<path class="st34" d="M117.74,36.61c0.32-3.17,1.23-6.39,3.38-9.01s5.71-4.58,9.5-4.56c5.51,0.03,10.06,4.29,10.91,8.85
						s-1.29,9.19-4.34,13.03c-3.05,3.84-7,7.12-10.39,10.76c-5.51,5.93-9.55,12.99-10.5,20.47c-0.62,4.92,0.25,10.23,4.01,14.04
						c3.76,3.81,10.94,5.45,15.79,2.63c3.08-1.78,4.67-4.92,5.26-8.02c0.6-3.1,0.36-6.26,0.6-9.39c0.5-6.45,3.09-12.79,7.43-18.13
						c5.37-6.62,13.41-11.86,16.71-19.38c3.49-7.96,0.67-17.34-6.03-23.69c-6.7-6.35-16.81-9.78-26.91-10.23
						c-11.1-0.49-22.51,2.56-30.7,8.86S89.62,28.71,90.97,37.96c0.53,3.65,2.07,7.35,5.28,9.84c4.23,3.29,11.17,3.8,16.02,1.19
						c4.85-2.61,4.58-7.12,5.46-12.26"/>
					<g>
						<path d="M118.22,36.39c0.29-2.82,1.05-5.69,2.85-8.12c1.61-2.18,4.2-3.93,7.2-4.52c5.93-1.16,11.21,2.95,12.58,7.54
							c1.71,5.74-2.02,11.5-6.1,15.88c-2.21,2.37-4.65,4.58-6.93,6.91c-2.17,2.21-4.16,4.55-5.87,7.04
							c-3.34,4.86-5.64,10.28-6.2,15.89c-0.5,5.03,0.6,10.85,5.15,14.5c3.82,3.06,10.13,4.44,14.85,1.97
							c2.58-1.35,4.29-3.6,5.26-5.97c1.14-2.81,1.24-5.78,1.3-8.72c0.06-3.02,0.28-5.99,1.06-8.95c0.74-2.81,1.89-5.56,3.42-8.14
							c1.49-2.51,3.33-4.83,5.42-7.01c1.97-2.07,4.09-4.03,6.14-6.04c4.01-3.95,7.75-8.25,9.13-13.4
							c1.33-4.99,0.47-10.31-2.01-14.95c-2.56-4.8-6.82-8.76-12.09-11.59c-5.32-2.86-11.5-4.54-17.77-5.09
							c-6.35-0.55-12.87,0.06-18.92,1.79c-6.02,1.73-11.59,4.56-16.01,8.41c-4.37,3.8-7.55,8.54-9.2,13.63
							c-1.61,4.97-1.82,10.58,0.32,15.47c1.05,2.39,2.75,4.62,5.24,6.13c2.3,1.39,5.16,2.1,7.98,2.11c2.83,0,5.66-0.69,7.94-2.11
							c2.15-1.33,3.38-3.31,4.02-5.45c0.68-2.28,0.81-4.65,1.2-6.97c0.12-0.72-0.84-0.28-0.93,0.2c-0.39,2.34-0.52,4.73-1.22,7.03
							c-0.64,2.12-2.02,3.85-4.31,4.95c-4.95,2.37-11.74,1.56-15.68-1.91c-4.27-3.76-5.22-9.55-4.74-14.53
							c0.49-5.12,2.75-10.13,6.27-14.33c3.61-4.3,8.53-7.69,14.16-9.99c5.69-2.33,12.04-3.54,18.37-3.6
							c6.23-0.06,12.5,0.99,18.16,3.19c5.6,2.18,10.59,5.5,13.99,9.85c3.3,4.23,5.12,9.32,4.85,14.38c-0.13,2.52-0.83,5-2.05,7.31
							c-1.23,2.33-2.95,4.46-4.81,6.46c-3.83,4.1-8.31,7.76-11.7,12.14c-3.64,4.7-5.99,10.13-6.81,15.69
							c-0.44,3.03-0.28,6.08-0.52,9.12c-0.21,2.66-0.84,5.38-2.63,7.63c-1.56,1.97-4,3.24-6.81,3.49c-2.68,0.24-5.44-0.4-7.73-1.55
							c-5.34-2.68-7.37-8.05-7.45-13.01c-0.09-5.46,1.84-10.91,4.79-15.74c1.51-2.48,3.31-4.84,5.32-7.05
							c2.13-2.34,4.51-4.51,6.77-6.77c4.32-4.33,8.36-9.34,8.69-15.15c0.14-2.49-0.51-4.95-2.08-7.07
							c-1.42-1.92-3.55-3.56-6.11-4.32c-5.95-1.77-11.82,1.74-14.39,6.11c-1.42,2.41-2.06,5.05-2.33,7.71
							c-0.03,0.25,0.26,0.33,0.48,0.23C118.05,36.95,118.19,36.65,118.22,36.39L118.22,36.39z"/>
					</g>
				</g>
				<g>
					<g>
						<path d="M123.26,109.32c-1.27-1.74-0.45-4.19,1.79-5.02c0.47-0.17,0.7-1.18-0.02-0.91c-2.91,1.08-4.26,4.47-2.59,6.77
							C122.74,110.56,123.53,109.69,123.26,109.32L123.26,109.32z"/>
					</g>
				</g>
				<g>
					<path class="st33" d="M127.96,103.19c0.21-0.03,0.37,0.22,0.23,0.35c-0.26-0.12-0.27-0.48-0.03-0.61"/>
					<g>
						<path d="M127.73,103.7c0.07,0,0.06,0.02,0.02-0.01c0.06,0.04-0.03-0.04,0.01,0c0.03,0.03,0.02,0.05,0.01-0.01
							c0,0.01,0.01,0.02,0.01,0.03c-0.04-0.16,0.02-0.31,0.17-0.44c0.19-0.06,0.38-0.13,0.57-0.19c-0.02-0.01-0.04-0.02-0.05-0.03
							c0.07,0.05,0.02,0.01,0-0.01c-0.03-0.05,0.03,0.06,0.01,0.01c-0.03-0.08,0,0.01-0.01,0.01c-0.01,0,0-0.05,0-0.06
							c0.01,0.01-0.02,0.11,0,0.04c-0.02,0.07-0.05,0.14-0.1,0.2c-0.01,0.02-0.14,0.12-0.07,0.08c0.23-0.14,0.41-0.48,0.33-0.72
							c-0.09-0.26-0.4-0.17-0.59-0.06c-0.49,0.3-0.8,1.15-0.18,1.48c0.19,0.1,0.46-0.07,0.57-0.19c0.21-0.23,0.36-0.54,0.24-0.83
							c-0.07-0.17-0.26-0.33-0.49-0.32c-0.31,0.02-0.55,0.23-0.65,0.47c-0.05,0.11-0.08,0.24-0.04,0.36
							C127.53,103.6,127.62,103.71,127.73,103.7L127.73,103.7z"/>
					</g>
				</g>
			</g>
			<g id="Ebene_4_3_">
				<g class="st19">
					<path d="M127.96,99.48c-4.55,0.09-10,4.1-10.24,7.91c-0.23,3.81,4.6,7.95,9.12,8.43c-3.78-0.76-7.26-5.01-6.77-8.25
						c0.49-3.24,3.53-6.24,8.03-8.08"/>
					<g>
						<path d="M128.19,98.98c-2.01,0.05-3.93,0.73-5.57,1.68c-1.72,0.99-3.23,2.29-4.24,3.83c-0.97,1.48-1.39,3.13-0.94,4.8
							c0.46,1.68,1.65,3.2,3.11,4.38c1.66,1.35,3.75,2.4,6.07,2.66c0.5,0.06,1.05-0.89,0.45-1.01c-3-0.63-5.35-3.13-6.22-5.52
							c-0.44-1.2-0.44-2.4,0.02-3.59c0.48-1.24,1.33-2.34,2.38-3.3c1.37-1.24,3.07-2.2,4.87-2.95c0.27-0.11,0.48-0.43,0.47-0.68
							c-0.02-0.25-0.23-0.34-0.48-0.23c-3.38,1.4-6.47,3.63-7.87,6.63c-0.61,1.32-0.84,2.71-0.5,4.11c0.35,1.42,1.2,2.78,2.28,3.9
							c1.19,1.23,2.75,2.26,4.61,2.65c0.15-0.34,0.3-0.67,0.45-1.01c-3.66-0.41-7.13-2.95-8.4-5.82c-0.62-1.4-0.61-2.81,0.11-4.18
							c0.71-1.37,1.97-2.53,3.36-3.44c1.59-1.03,3.56-1.83,5.6-1.89C128.25,99.98,128.74,98.96,128.19,98.98L128.19,98.98z"/>
					</g>
				</g>
				<g class="st19">
					<path d="M140.61,39.56c-2.87,5.1-6.66,8.46-10.69,12.98c-4.03,4.51-7.79,8.18-10.37,13.39c-2.58,5.21-3.86,15.2-1.82,20.57
						s9,9.57,17.08,6.97c-9.75-4.2-8.38-23.04-4.83-29.38c3.45-6.15,12.21-18.2,11.72-29.21"/>
					<g>
						<path d="M140.19,39.53c-2.72,4.8-6.97,8.77-10.75,12.99c-3.79,4.23-7.79,8.34-10.25,13.26c-0.93,1.87-1.53,3.85-1.99,5.83
							c-0.51,2.24-0.82,4.52-0.92,6.8c-0.18,4.01,0.1,8.41,3.01,11.77c1.43,1.65,3.4,3.01,5.66,3.79c2.42,0.84,5.09,1,7.64,0.53
							c0.72-0.13,1.42-0.32,2.1-0.53c0.3-0.1,0.93-0.76,0.44-0.98c-3.53-1.54-5.3-4.82-6.24-7.9c-1.15-3.76-1.3-7.73-0.95-11.58
							c0.16-1.78,0.45-3.56,0.91-5.3c0.35-1.37,0.79-2.71,1.49-3.99c0.95-1.75,2.06-3.46,3.1-5.19c1.34-2.23,2.65-4.48,3.83-6.78
							c2.54-4.94,4.62-10.21,4.89-15.62c0.03-0.66,0.03-1.31,0.01-1.96c-0.01-0.24-0.23-0.34-0.48-0.23
							c-0.27,0.11-0.48,0.43-0.47,0.68c0.23,5.44-1.7,10.8-4.14,15.79c-2.1,4.3-4.76,8.36-7.17,12.54c-1.68,2.92-2.42,6.15-2.8,9.36
							c-0.47,3.93-0.41,7.97,0.56,11.84c0.8,3.23,2.35,6.73,5.67,8.73c0.36,0.22,0.74,0.41,1.14,0.58c0.15-0.33,0.3-0.65,0.44-0.98
							c-2.53,0.81-5.26,1.03-7.9,0.44c-2.33-0.52-4.44-1.67-6.04-3.17c-1.54-1.44-2.58-3.17-3.11-5.05
							c-0.56-1.97-0.69-4.02-0.67-6.04c0.02-2.24,0.27-4.48,0.71-6.7c0.39-1.98,0.92-3.95,1.75-5.84c2.08-4.72,5.87-8.68,9.46-12.64
							c1.9-2.1,3.85-4.17,5.76-6.25c1.85-2.02,3.62-4.1,5.07-6.35c0.38-0.59,0.73-1.18,1.07-1.78c0.1-0.18,0.1-0.5-0.19-0.54
							C140.52,39.01,140.29,39.34,140.19,39.53L140.19,39.53z"/>
					</g>
				</g>
				<g class="st19">
					<path d="M128.17,4c-6.92,1-16.61,3.15-22.1,6.54S94.95,20.59,92.46,25.91c-2.49,5.32-2.07,13.8,1.01,18.9s8.92,7.23,16.59,5.11
						c-4.74-1.01-9.57-3.57-10.91-7.51s-0.76-8.19,0.55-12.14c3.54-10.67,13.12-19.82,28.35-25.95"/>
					<g>
						<path d="M128.28,3.5c-6.06,0.88-12.18,2.18-17.75,4.4c-2.64,1.05-5.02,2.38-7.15,4.06c-2.4,1.89-4.5,4.04-6.37,6.3
							c-1.81,2.2-3.42,4.52-4.67,6.99c-1.13,2.24-1.69,4.61-1.89,7.03c-0.22,2.56-0.04,5.15,0.55,7.67c0.53,2.3,1.42,4.6,2.96,6.57
							c1.39,1.77,3.34,3.23,5.71,4.01c2.55,0.84,5.34,0.86,8,0.4c0.77-0.13,1.53-0.31,2.28-0.52c0.36-0.1,0.95-0.87,0.34-1
							c-4.18-0.91-8.66-3.02-10.35-6.53c-1.03-2.12-1.19-4.57-1.03-6.83c0.16-2.25,0.73-4.49,1.52-6.64
							c1.2-3.27,2.98-6.37,5.25-9.21c2.41-3.01,5.37-5.71,8.66-8.06c3.65-2.61,7.71-4.81,11.99-6.64c0.57-0.25,1.15-0.48,1.73-0.72
							c0.46-0.18,0.69-1.2-0.02-0.91c-4.56,1.84-8.91,4.06-12.84,6.73c-3.54,2.4-6.74,5.17-9.38,8.28c-2.51,2.95-4.53,6.19-5.9,9.63
							c-1.75,4.37-2.74,9.23-1.37,13.78c1.18,3.92,5.25,6.48,9.65,7.74c0.54,0.15,1.09,0.29,1.65,0.41c0.11-0.34,0.23-0.67,0.34-1
							c-2.66,0.73-5.51,1.07-8.28,0.55c-2.35-0.44-4.45-1.54-6.02-3.06c-1.75-1.7-2.81-3.78-3.5-5.93
							c-0.76-2.37-1.08-4.84-1.06-7.29c0.02-2.36,0.35-4.78,1.25-7.02c0.93-2.32,2.39-4.52,3.95-6.58
							c3.17-4.18,7.21-8.24,12.48-10.62c2.65-1.19,5.48-2.08,8.35-2.83c2.87-0.75,5.79-1.35,8.74-1.83
							c0.66-0.11,1.32-0.21,1.98-0.31C128.54,4.43,128.95,3.4,128.28,3.5L128.28,3.5z"/>
					</g>
				</g>
			</g>
			<g id="Ebene_5_8_">
				<g class="st19">
					<g>
						<path class="st7" d="M140.72,10.16c0.49,0.12,0.98,0.24,1.47,0.39c0.24,0.07,0.48,0.15,0.72,0.23
							c0.12,0.04,0.24,0.08,0.35,0.12c0.05,0.02,0.54,0.2,0.24,0.09c0.93,0.36,1.83,0.77,2.69,1.24c1.74,0.95,3.21,2.03,4.58,3.37
							c2.83,2.77,4.6,6.15,5.03,9.78c1.02,8.68-4.67,16.53-9.92,23.59c-3.04,4.08-6.06,8.19-8.09,12.72
							c-0.09,0.21,0.55,0.43,0.64,0.46c0.47,0.15,1.06,0.2,1.56,0.19c0.67-0.01,1.92-0.01,2.2-0.65
							c3.64-8.13,10.67-14.78,14.81-22.7c2.06-3.95,3.53-8.23,3.29-12.57c-0.21-3.77-1.79-7.41-4.55-10.4
							c-2.98-3.23-7.21-5.66-11.91-6.75c-0.97-0.22-2.15-0.32-3.11,0c-0.23,0.08-0.64,0.2-0.64,0.46
							C140.07,9.95,140.51,10.11,140.72,10.16L140.72,10.16z"/>
					</g>
				</g>
				<g class="st19">
					<g>
						<path class="st7" d="M130.35,105.59c0.73,1.39,0.7,3.04,0.16,4.48c-0.26,0.7-0.69,1.36-1.22,1.94
							c-0.61,0.67-1.15,1.08-1.97,1.48c-0.84,0.41,0.36,0.81,0.79,0.88c0.93,0.15,2.16,0.18,3.01-0.23
							c3.61-1.76,5.16-5.69,3.47-8.89c-0.12-0.22-0.8-0.35-1.01-0.39c-0.53-0.1-1.15-0.12-1.7-0.06
							C131.42,104.84,130.02,104.97,130.35,105.59L130.35,105.59z"/>
					</g>
				</g>
			</g>
		</g>
	</g>
</g>
</svg>
