<?xml version="1.0" encoding="utf-8"?>
<!-- Generator: Adobe Adobe Illustrator 24.2.0, SVG Export Plug-In . SVG Version: 6.00 Build 0)  -->
<svg version="1.1" xmlns="http://www.w3.org/2000/svg" xmlns:xlink="http://www.w3.org/1999/xlink" x="0px" y="0px"
	 viewBox="0 0 170.08 170.08" style="enable-background:new 0 0 170.08 170.08;" xml:space="preserve">
<style type="text/css">
	.st0{fill:#AEBECE;}
	.st1{fill:#ADBECD;}
	.st2{fill:#EA883C;}
	.st3{fill:#EA883B;}
	.st4{fill:#5C646F;}
	.st5{fill:#5C636F;}
	.st6{fill:#FFFFFF;}
	.st7{fill:#DB7A3A;}
	.st8{fill:#DB7A39;}
	.st9{fill:#DC7A39;}
	.st10{fill:#3D4C59;}
	.st11{fill:#E9EFF5;}
	.st12{fill:#ADBFCE;}
	.st13{fill:#DC7B3A;}
	.st14{opacity:0.1686;}
	.st15{opacity:0.1608;}
	.st16{fill:#F0F6FA;}
	.st17{opacity:0.149;}
	.st18{opacity:0.0314;}
	.st19{stroke:#000000;stroke-width:0.044;stroke-miterlimit:10;}
	.st20{fill:#D15238;}
	.st21{fill:#D15239;}
	.st22{fill:#C8354F;}
	.st23{fill:#C93550;}
	.st24{fill:#6DB671;}
	.st25{fill:#6CB671;}
	.st26{fill:#D1DFEA;}
	.st27{fill:#D3E1ED;}
	.st28{fill:#C8354E;}
	.st29{fill:#F3C058;}
	.st30{fill:#C8AE9D;}
	.st31{opacity:0.0784;}
	.st32{opacity:0.1412;}
</style>
<g id="Ebene_4_5_">
</g>
<g id="Ebene_6_5_">
	<g id="Ebene_8_6_">
		<g>
			<path class="st0" d="M31.58,27.01c-1.51,6.2-1.62,12.66-0.34,18.89c0.2,0.95,0.51,2,1.44,2.5c1.91,1.01,4.55-1.18,6.46-0.17
				c-0.11-7.25,0.16-14.5,0.8-21.73c-2.44-0.57-5.07-0.51-7.48,0.16"/>
			<g>
				<path class="st1" d="M31.01,27.14c-1.01,4.17-1.41,8.47-1.17,12.73c0.12,2.11,0.39,4.21,0.8,6.28c0.3,1.49,0.97,3.19,2.99,3.19
					c0.88,0,1.72-0.27,2.56-0.48c0.84-0.21,1.74-0.4,2.56-0.01c0.52,0.25,1-0.57,0.99-0.92c-0.1-7.25,0.16-14.5,0.8-21.73
					c0.02-0.19-0.11-0.33-0.31-0.37c-2.51-0.57-5.15-0.5-7.62,0.17c-0.37,0.1-0.65,0.45-0.71,0.78c-0.05,0.25,0.06,0.63,0.43,0.52
					c2.4-0.65,4.91-0.69,7.34-0.14c-0.1-0.12-0.2-0.25-0.31-0.37c-0.63,7.23-0.9,14.48-0.8,21.73c0.33-0.31,0.66-0.61,0.99-0.92
					c-1.39-0.68-2.92-0.04-4.32,0.26c-0.71,0.16-1.49,0.26-2.15-0.09c-0.74-0.39-1.01-1.18-1.19-1.89
					c-0.98-3.93-1.13-8.12-0.84-12.13c0.17-2.31,0.54-4.61,1.09-6.87c0.07-0.28-0.07-0.58-0.43-0.52
					C31.34,26.42,31.08,26.84,31.01,27.14L31.01,27.14z"/>
			</g>
		</g>
		<g>
			<path class="st0" d="M131.36,24.49c0.85,6.67,1.17,13.4,0.98,20.11c1.86-1.09,4.96,0.99,6.37-0.55c0.49-0.53,0.49-1.28,0.47-1.97
				c-0.13-4.24-0.26-8.48-0.4-12.72c-0.05-1.57-0.19-3.33-1.51-4.38c-1.45-1.15-3.66-0.93-5.57-0.64"/>
			<g>
				<path class="st1" d="M130.77,24.78c0.84,6.67,1.17,13.39,0.98,20.11c-0.01,0.3,0.3,0.47,0.6,0.31c0.76-0.42,1.7-0.26,2.53-0.13
					c0.86,0.14,1.76,0.34,2.64,0.18c2.72-0.49,2.23-3.59,2.18-5.39c-0.08-2.63-0.16-5.27-0.25-7.9c-0.04-1.25-0.04-2.51-0.13-3.76
					c-0.07-0.99-0.24-2.01-0.78-2.89c-1.34-2.2-4.35-1.97-6.7-1.62c-0.6,0.09-1.1,1.43-0.28,1.31c1.89-0.28,4.37-0.57,5.68,1
					c0.59,0.71,0.8,1.62,0.88,2.49c0.11,1.09,0.1,2.19,0.13,3.28c0.07,2.38,0.15,4.75,0.22,7.13c0.04,1.2,0.09,2.41,0.11,3.62
					c0.01,0.34,0.07,0.86-0.18,1.15c-0.18,0.21-0.53,0.28-0.8,0.3c-1.78,0.15-3.58-0.9-5.27,0.03c0.2,0.1,0.4,0.21,0.6,0.31
					c0.19-6.71-0.14-13.43-0.98-20.11C131.84,23.34,130.7,24.22,130.77,24.78L130.77,24.78z"/>
			</g>
		</g>
		<g>
			<path class="st0" d="M126.1,91.22c1.26,0.87,1.35,2.5,1.51,3.91c0.16,1.42,0.81,3.09,2.38,3.36c1.02,0.17,2-0.35,2.87-0.84
				c2.44-1.39,4.88-2.78,7.32-4.17c0.95-0.54,1.95-1.14,2.35-2.07c0.54-1.26-0.19-2.64-0.96-3.79c-0.75-1.12-1.74-2.33-3.19-2.47
				c-1.09-0.11-2.11,0.41-3.05,0.92c-3.27,1.76-6.55,3.53-9.82,5.29"/>
			<g>
				<path class="st1" d="M125.69,91.85c1.14,0.83,1.18,2.31,1.32,3.51c0.13,1.13,0.44,2.4,1.41,3.21c1.17,0.99,2.73,0.6,3.98-0.06
					c1.68-0.89,3.31-1.88,4.95-2.81c0.85-0.49,1.71-0.97,2.56-1.46c0.64-0.37,1.3-0.72,1.86-1.19c1.25-1.03,1.8-2.44,1.35-3.93
					c-0.39-1.3-1.31-2.71-2.38-3.66c-1.12-0.99-2.49-1.23-3.96-0.69c-0.94,0.35-1.8,0.87-2.67,1.34c-0.96,0.52-1.91,1.03-2.87,1.55
					c-1.91,1.03-3.83,2.06-5.74,3.09c-0.32,0.17-0.6,0.54-0.58,0.89c0.02,0.3,0.29,0.48,0.6,0.31c3.03-1.63,6.05-3.26,9.08-4.89
					c1.23-0.66,2.75-1.7,4.24-1.06c1.17,0.5,1.91,1.63,2.5,2.61c0.37,0.6,0.71,1.27,0.77,1.97c0.05,0.66-0.24,1.14-0.78,1.56
					c-1.16,0.91-2.62,1.57-3.91,2.31c-1.46,0.83-2.93,1.67-4.39,2.5c-1.13,0.65-2.65,1.45-3.79,0.35c-0.92-0.89-1-2.16-1.14-3.29
					c-0.16-1.27-0.43-2.56-1.6-3.41C126.02,90.24,125.16,91.46,125.69,91.85L125.69,91.85z"/>
			</g>
		</g>
		<g>
			<path class="st0" d="M132.8,109.69c0.93,1.18,0.8,2.74,0.96,4.17c0.17,1.43,0.97,3.08,2.57,3.27c0.98,0.12,1.91-0.37,2.75-0.83
				c4.83-2.68,9.65-5.36,14.48-8.04c-1.08-2.49-2.29-4.93-3.61-7.33c-4.74,4.04-10.62,7.01-16.95,8.55"/>
			<g>
				<path class="st1" d="M132.3,110.24c1.02,1.37,0.65,3.1,1,4.63c0.29,1.24,1.09,2.64,2.62,2.91c0.92,0.16,1.84-0.18,2.62-0.58
					c0.94-0.47,1.85-1.01,2.76-1.52c1.93-1.07,3.85-2.14,5.77-3.21c2.17-1.2,4.34-2.41,6.51-3.61c0.32-0.18,0.71-0.67,0.55-1.03
					c-1.1-2.53-2.33-5.01-3.67-7.45c-0.13-0.23-0.53-0.08-0.66,0.04c-4.68,3.97-10.42,6.87-16.65,8.4
					c-0.37,0.09-0.65,0.46-0.71,0.78c-0.05,0.25,0.06,0.62,0.43,0.52c6.44-1.58,12.4-4.59,17.25-8.7c-0.22,0.01-0.44,0.03-0.66,0.04
					c1.3,2.36,2.48,4.77,3.55,7.21c0.18-0.34,0.37-0.69,0.55-1.03c-3.64,2.02-7.27,4.04-10.91,6.06c-0.92,0.51-1.83,1.02-2.75,1.53
					c-0.81,0.45-1.66,1.04-2.61,1.21c-1.64,0.28-2.55-1.17-2.84-2.38c-0.41-1.67-0.02-3.42-1.14-4.93
					C132.91,108.61,131.94,109.77,132.3,110.24L132.3,110.24z"/>
			</g>
		</g>
		<g>
			<path class="st0" d="M26.36,87.65c-0.26,1.41-1.61,2.41-2.72,3.45c-1.1,1.04-2.07,2.55-1.36,3.83c0.37,0.68,1.13,1.11,1.85,1.5
				c3.14,1.71,6.37,3.37,9.93,4.17c1.16,0.26,2.38,0.43,3.55,0.18c1.16-0.25,2.25-1,2.53-2.04c0.29-1.07-0.34-2.2-1.24-2.96
				c-0.9-0.76-2.04-1.23-3.12-1.78c-3.34-1.69-6.15-4.1-8.63-6.71"/>
			<g>
				<path class="st1" d="M25.79,87.78c-0.28,1.33-1.74,2.21-2.68,3.17c-1.03,1.05-1.96,2.56-1.57,3.99c0.4,1.44,2.23,2.16,3.53,2.85
					c1.61,0.85,3.25,1.66,4.97,2.33c2.88,1.11,7.15,2.56,9.69,0.13c1.11-1.06,1.36-2.55,0.64-3.85c-0.76-1.37-2.32-2.11-3.77-2.81
					c-3.48-1.71-6.38-4.14-8.94-6.83c-0.48-0.5-1.42,0.67-1.01,1.1c2.01,2.11,4.22,4.09,6.77,5.68c1.27,0.8,2.67,1.38,3.97,2.13
					c1.1,0.63,2.52,1.82,2.19,3.14c-0.31,1.23-2.22,1.49-3.37,1.42c-1.68-0.1-3.36-0.63-4.9-1.2c-1.52-0.56-2.97-1.24-4.4-1.97
					c-0.71-0.36-1.42-0.74-2.12-1.12c-0.62-0.33-1.29-0.66-1.74-1.18c-1.12-1.3,0.26-2.72,1.28-3.64c1.15-1.04,2.29-2.12,2.6-3.6
					c0.06-0.28-0.07-0.58-0.43-0.52C26.13,87.05,25.86,87.48,25.79,87.78L25.79,87.78z"/>
			</g>
		</g>
		<g>
			<path class="st0" d="M14.13,106.02c-1.12,2.19-2.24,4.39-3.35,6.58c-0.28,0.54-0.56,1.17-0.28,1.72c0.25,0.5,0.89,0.75,1.46,0.94
				c4.66,1.59,9.31,3.18,13.97,4.78c1.39,0.48,2.93,0.95,4.33,0.5c1.65-0.54,2.46-2.16,3.1-3.62c0.47-1.08,0.87-2.5-0.12-3.26
				c-0.46-0.36-1.11-0.45-1.72-0.55c-6.04-0.91-11.81-3.23-16.56-6.67"/>
			<g>
				<path class="st1" d="M13.61,105.98c-0.97,1.91-1.94,3.81-2.91,5.72c-0.43,0.84-1.07,1.8-0.87,2.76c0.17,0.84,1.01,1.2,1.82,1.48
					c4.48,1.54,8.97,3.07,13.46,4.6c1.86,0.64,3.98,1.36,5.83,0.3c1.51-0.87,2.3-2.43,2.93-3.88c0.54-1.25,1.12-3.26-0.5-4.1
					c-0.83-0.43-1.93-0.45-2.85-0.62c-0.97-0.18-1.93-0.39-2.88-0.65c-4.47-1.18-8.66-3.17-12.28-5.77
					c-0.49-0.35-1.35,0.87-0.81,1.26c2.89,2.08,6.13,3.76,9.6,4.95c1.68,0.58,3.42,1.06,5.18,1.41c0.88,0.18,1.79,0.26,2.66,0.47
					c0.82,0.2,1.3,0.72,1.27,1.48c-0.03,0.67-0.34,1.32-0.62,1.94c-0.27,0.59-0.57,1.2-1.02,1.7c-1.26,1.43-3.23,1.06-4.91,0.51
					c-4.02-1.33-8-2.74-12-4.1c-1.02-0.35-2.18-0.62-3.12-1.12c-1.1-0.59-0.33-1.58,0.07-2.36c1-1.96,2-3.93,3-5.89
					c0.12-0.23,0.12-0.66-0.24-0.71C14.03,105.3,13.74,105.73,13.61,105.98L13.61,105.98z"/>
			</g>
		</g>
		<g>
			<path class="st0" d="M52.51,143.04c-0.7,0.48-0.39,1.57,0.35,1.99c0.75,0.42,1.7,0.38,2.58,0.32c2.48-0.17,4.95-0.34,7.43-0.51
				c0.34-0.21,0.2-0.87,0.26-1.95c0.05-0.8-1.64-0.59-2.54-0.61c-2.72-0.06-5.45-0.11-8.17-0.17"/>
			<g>
				<path class="st1" d="M52.35,142.53c-0.66,0.51-0.98,1.31-0.74,2.07c0.24,0.77,0.94,1.21,1.78,1.37c1.05,0.2,2.2,0,3.26-0.07
					c1.2-0.08,2.4-0.16,3.61-0.25c0.57-0.04,1.13-0.08,1.7-0.12c0.53-0.04,0.96-0.02,1.31-0.42c0.51-0.57,0.42-1.34,0.43-2.02
					c0.01-0.64,0.04-1.19-0.76-1.39c-0.65-0.17-1.35-0.08-2.02-0.09c-2.74-0.02-5.48-0.11-8.22-0.17c-0.63-0.01-1.26,1.32-0.56,1.33
					c2.65,0.05,5.3,0.11,7.95,0.16c0.69,0.01,1.53-0.14,2.19,0.07c0.41,0.12,0.24,0.41,0.24,0.75c0,0.2,0,0.4,0,0.61
					c-0.01,0.36-0.1,0.18,0.19-0.03c0.15-0.05,0.29-0.11,0.44-0.16c-2.16,0.15-4.31,0.29-6.47,0.44c-0.91,0.06-1.91,0.22-2.81,0.01
					c-0.39-0.09-0.74-0.26-0.96-0.57c-0.1-0.14-0.15-0.28-0.19-0.44c-0.04-0.14,0.06-0.15-0.04-0.08c0.26-0.21,0.53-0.62,0.41-0.94
					C52.96,142.29,52.59,142.35,52.35,142.53L52.35,142.53z"/>
			</g>
		</g>
		<g>
			<path class="st0" d="M96.36,141.1c-0.59,0.64-0.36,1.3-0.12,2.35c0.21,0.91,1.9,0.72,2.94,0.76c3.52,0.12,6.58,0.03,10.09-0.18
				c-0.24-1.18-0.15-2.59,0-3.85c-4.32,0.13-8.64,0.26-12.96,0.39"/>
			<g>
				<path class="st1" d="M96.06,140.72c-0.41,0.48-0.66,1.02-0.66,1.63c0,0.53,0.12,1.22,0.35,1.71c0.43,0.92,1.89,0.8,2.8,0.8
					c1.7,0.01,3.4,0.07,5.1,0.04c1.78-0.03,3.57-0.11,5.35-0.22c0.56-0.03,0.93-0.63,0.85-1.1c-0.22-1.16-0.13-2.37,0.01-3.54
					c0.02-0.17,0.01-0.54-0.29-0.54c-4.32,0.13-8.64,0.26-12.96,0.39c-0.38,0.01-0.67,0.32-0.8,0.62c-0.08,0.19-0.15,0.72,0.24,0.71
					c4.32-0.13,8.64-0.26,12.96-0.39c-0.1-0.18-0.19-0.36-0.29-0.54c-0.16,1.38-0.26,2.77,0.01,4.15c0.28-0.37,0.56-0.73,0.85-1.1
					c-3.01,0.18-6.02,0.28-9.03,0.21c-0.6-0.01-1.2-0.03-1.8-0.03c-0.45,0-0.96,0.02-1.4-0.11c-0.48-0.14-0.52-0.4-0.61-0.81
					c-0.07-0.31-0.3-0.86-0.06-1.15c0.19-0.22,0.44-0.66,0.21-0.93C96.64,140.29,96.23,140.53,96.06,140.72L96.06,140.72z"/>
			</g>
		</g>
	</g>
	<g id="Ebene_7_6_">
		<g>
			<path class="st2" d="M40.49,24.62c0.74,6.36-0.24,13.17-0.48,19.65c-0.24,6.47,0.79,14.68,6.9,18.18
				c3.82,2.18,8.79,1.37,13.32,1.56c19.57,0.83,39.22,1.67,58.73,0.05c3.14-0.26,6.52-0.68,8.81-2.62c2.76-2.34,3.06-6.11,3.14-9.5
				c0.21-8.33,0.21-16.66,0-24.99c-0.14-5.64-0.71-11.93-5.41-15.69c-3.26-2.61-7.82-3.39-12.15-3.95
				c-12.7-1.61-25.59-2.08-38.4-1.39c-7.27,0.39-14.69,1.2-21.23,4.07S41.6,18.12,40.47,24.54"/>
			<g>
				<path class="st3" d="M39.9,24.91c0.52,4.52,0.2,9.06-0.12,13.58c-0.27,3.81-0.6,7.64-0.21,11.45c0.32,3.23,1.09,6.53,2.95,9.35
					c0.87,1.33,2.02,2.51,3.41,3.42c1.69,1.11,3.71,1.64,5.78,1.83c2.21,0.21,4.43,0.08,6.65,0.09c2.51,0.01,5.02,0.18,7.52,0.28
					c5.27,0.22,10.55,0.42,15.83,0.55c10.58,0.27,21.17,0.27,31.73-0.37c2.42-0.15,4.86-0.29,7.27-0.57
					c2.05-0.24,4.15-0.66,5.91-1.67c3.67-2.1,4.62-5.97,4.84-9.6c0.27-4.5,0.22-9.03,0.22-13.54c0.01-4.64-0.02-9.29-0.18-13.94
					c-0.12-3.52-0.42-7.17-1.94-10.46c-0.73-1.59-1.74-3.07-3.12-4.28c-1.5-1.31-3.31-2.25-5.27-2.89c-2.03-0.67-4.16-1.05-6.3-1.35
					c-2.52-0.35-5.05-0.63-7.58-0.87c-5.21-0.5-10.44-0.81-15.68-0.93S81.11,4.94,75.88,5.21c-4.81,0.25-9.65,0.64-14.34,1.67
					c-8.12,1.79-16.06,5.9-19.85,12.82c-0.86,1.57-1.48,3.23-1.79,4.96c-0.05,0.28,0.06,0.58,0.43,0.52
					c0.36-0.06,0.66-0.49,0.71-0.78c1.27-7.05,7.9-12.24,15.04-14.76c4.33-1.53,8.95-2.28,13.56-2.71
					c4.93-0.46,9.91-0.62,14.86-0.66c10.03-0.08,20.14,0.47,30.05,1.89c4.05,0.58,8.35,1.55,11.24,4.33
					c2.62,2.51,3.69,5.94,4.15,9.27c0.54,3.97,0.46,8.02,0.5,12c0.05,4.55,0.05,9.1-0.02,13.65c-0.03,2.14-0.03,4.29-0.16,6.43
					c-0.1,1.71-0.34,3.45-1.1,5.04c-1.69,3.52-6.08,4.18-9.9,4.51c-10.22,0.87-20.51,1.02-30.77,0.88
					c-5.1-0.07-10.2-0.22-15.29-0.41c-2.58-0.09-5.17-0.2-7.75-0.31c-2.39-0.1-4.79-0.25-7.18-0.24c-4.09,0.02-8.48,0.33-11.88-2.08
					c-2.71-1.92-4.16-4.9-4.94-7.84c-0.83-3.13-0.98-6.39-0.86-9.59c0.17-4.37,0.65-8.73,0.73-13.1c0.04-2.12-0.02-4.25-0.26-6.36
					C40.98,23.47,39.84,24.35,39.9,24.91L39.9,24.91z"/>
			</g>
		</g>
	</g>
	<g id="Ebene_6_7_">
		<g>
			<path class="st4" d="M31.12,26.68c-3.27,1.6-6.14,3.96-7.81,6.93c-1.66,2.98-2.02,6.6-0.55,9.66c1.47,3.06,4.88,5.4,8.61,5.52
				c-2.61-6.94-2.69-14.61-0.23-21.59"/>
			<g>
				<path class="st5" d="M31.11,26.08c-4.09,2.02-7.65,5.2-9.11,9.23c-1.45,4-0.81,8.65,2.74,11.64c1.73,1.46,3.96,2.41,6.36,2.51
					c0.51,0.02,1-0.68,0.85-1.1c-2.54-6.8-2.67-14.26-0.28-21.12c0.08-0.24,0.15-0.65-0.24-0.71c-0.35-0.05-0.71,0.37-0.8,0.62
					c-2.5,7.16-2.48,14.94,0.18,22.07c0.28-0.37,0.56-0.73,0.84-1.1c-3.99-0.17-7.46-2.79-8.68-6.13
					c-1.37-3.76-0.08-7.84,2.71-10.81c1.51-1.61,3.39-2.9,5.44-3.91c0.33-0.16,0.6-0.55,0.58-0.89
					C31.69,26.08,31.42,25.92,31.11,26.08L31.11,26.08z"/>
			</g>
		</g>
		<g>
			<path class="st4" d="M136.92,24.09c3.34,6.28,4.34,13.52,2.83,20.34c3.54,0.02,6.55-2.4,8.36-5.11c1.59-2.38,2.55-5.15,2.34-7.92
				c-0.54-7.07-6.66-7.81-13-7.63"/>
			<g>
				<path class="st5" d="M136.41,24.64c3.26,6.17,4.23,13.23,2.76,19.92c-0.04,0.18,0,0.54,0.29,0.54c2.91-0.01,5.41-1.48,7.29-3.37
					c2.08-2.1,3.54-4.83,4.08-7.59c0.47-2.37,0.28-5.04-1.05-7.18c-0.99-1.59-2.68-2.64-4.59-3.19c-2.4-0.69-4.97-0.72-7.47-0.65
					c-0.63,0.02-1.25,1.35-0.56,1.33c3.61-0.1,8.23-0.1,10.8,2.58c1.45,1.51,1.93,3.58,1.92,5.52c-0.02,2.62-1.11,5.27-2.8,7.39
					c-1.64,2.06-4.1,3.82-7.06,3.84c0.1,0.18,0.19,0.36,0.29,0.54c1.53-6.99,0.51-14.31-2.9-20.76c-0.16-0.31-0.67,0.02-0.8,0.17
					C136.37,23.97,136.25,24.33,136.41,24.64L136.41,24.64z"/>
			</g>
		</g>
		<g>
			<path class="st4" d="M51.91,20.66C51.31,26,50.7,31.34,50.09,36.68c-0.18,1.6-0.32,3.36,0.74,4.66c1.37,1.7,4.09,1.86,6.44,1.84
				c18.38-0.09,36.76-0.78,55.08-2.06c2.4-0.17,5.11-0.49,6.51-2.24c0.92-1.14,1.04-2.63,1.13-4.04c0.25-4,0.5-8,0.75-12
				c0.1-1.57,0.1-3.37-1.19-4.45c-1.11-0.92-2.78-0.98-4.29-0.98c-21.04,0.01-42.07,1.04-62.98,3.07"/>
			<g>
				<path class="st5" d="M51.34,20.79c-0.33,2.92-0.66,5.85-1,8.77c-0.32,2.78-0.73,5.56-0.93,8.35c-0.08,1.12-0.04,2.3,0.5,3.33
					c0.5,0.96,1.4,1.66,2.5,2.04c2.42,0.85,5.28,0.56,7.82,0.54c13.05-0.11,26.09-0.53,39.11-1.24c3.24-0.18,6.47-0.37,9.71-0.59
					c2.55-0.17,5.35-0.12,7.73-1.06c1.12-0.44,2.07-1.16,2.7-2.09c0.68-1.01,0.92-2.18,1.03-3.34c0.27-2.81,0.36-5.65,0.54-8.47
					c0.09-1.43,0.18-2.86,0.27-4.29c0.07-1.09,0.12-2.22-0.22-3.28c-0.31-0.98-1.01-1.81-2.06-2.24c-1.16-0.47-2.46-0.47-3.71-0.47
					c-6.46,0-12.92,0.11-19.38,0.31c-12.96,0.4-25.91,1.17-38.82,2.33c-1.57,0.14-3.14,0.29-4.71,0.44
					c-0.6,0.06-1.12,1.39-0.28,1.31c12.44-1.2,24.93-2.06,37.43-2.55c6.24-0.25,12.48-0.4,18.73-0.47c1.54-0.02,3.09-0.03,4.63-0.03
					c1.33,0,2.7-0.08,4.02,0.09c1.18,0.15,2.27,0.63,2.8,1.64c0.49,0.93,0.46,2.04,0.41,3.04c-0.14,2.7-0.33,5.39-0.5,8.09
					c-0.09,1.4-0.17,2.79-0.26,4.19c-0.07,1.07-0.11,2.25-0.73,3.2c-1.12,1.73-3.9,1.96-5.89,2.11c-3.07,0.23-6.14,0.41-9.21,0.59
					c-12.52,0.74-25.05,1.2-37.59,1.39c-3.01,0.04-6.04,0.12-9.05,0.08c-2.16-0.03-4.94-0.27-5.96-2.27
					c-0.52-1.02-0.46-2.21-0.35-3.3c0.13-1.34,0.3-2.67,0.45-4.01c0.32-2.8,0.64-5.59,0.95-8.39c0.15-1.33,0.3-2.67,0.46-4.01
					C52.59,19.58,51.41,20.16,51.34,20.79L51.34,20.79z"/>
			</g>
		</g>
		<g>
			<path class="st4" d="M32.85,81.67c-1.65,1.6-3.31,3.21-4.96,4.81c2.19,2.66,4.44,5.39,7.54,7.19c1.3,0.75,2.82,1.35,4.35,1.16
				c1.53-0.19,2.98-1.4,2.81-2.78c-0.22-1.78-2.57-2.5-4.33-3.35c-2.78-1.34-4.78-3.9-5.22-6.7"/>
			<g>
				<path class="st5" d="M32.55,81.29c-1.65,1.6-3.31,3.21-4.96,4.81c-0.21,0.21-0.42,0.67-0.21,0.93c1.61,1.97,3.25,3.94,5.26,5.6
					c1.86,1.53,4.38,3.24,7.07,2.84c2.2-0.32,4.18-2.56,3.23-4.54c-0.87-1.81-3.44-2.3-5.12-3.32c-2.29-1.39-3.82-3.62-4.23-6.05
					c-0.06-0.35-0.53-0.22-0.73-0.07c-0.31,0.22-0.46,0.59-0.41,0.94c0.32,1.94,1.35,3.78,2.88,5.19c0.77,0.71,1.65,1.3,2.62,1.76
					c0.86,0.41,1.76,0.75,2.56,1.23c0.71,0.43,1.43,1.04,1.48,1.85c0.04,0.83-0.84,1.41-1.66,1.62c-2.37,0.6-4.88-1.12-6.54-2.43
					c-2.11-1.67-3.78-3.72-5.43-5.73c-0.07,0.31-0.14,0.62-0.21,0.93c1.65-1.6,3.31-3.21,4.96-4.81c0.21-0.21,0.42-0.67,0.21-0.93
					C33.11,80.84,32.73,81.11,32.55,81.29L32.55,81.29z"/>
			</g>
		</g>
		<g>
			<path class="st4" d="M20.87,94.59c-2.79,3.7-7.08,9.33-6.7,10.99c0.45,1.96,13.11,5.91,20.06,7.14c1.35-3.48,2.7-6.95,4.04-10.43
				c-6.68-0.78-13.06-3.48-17.97-7.6"/>
			<g>
				<path class="st5" d="M20.45,94.37c-1.71,2.26-3.44,4.52-4.95,6.9c-0.61,0.96-1.21,1.94-1.62,2.99
					c-0.24,0.62-0.52,1.43-0.14,2.06c0.29,0.49,0.88,0.85,1.39,1.15c0.82,0.48,1.71,0.88,2.6,1.25c2.42,1.01,4.95,1.82,7.48,2.56
					c2.87,0.84,5.78,1.59,8.74,2.12c0.35,0.06,0.7-0.38,0.8-0.62c1.35-3.48,2.7-6.95,4.04-10.43c0.09-0.23,0.15-0.66-0.24-0.71
					c-6.6-0.79-12.88-3.42-17.74-7.49c-0.55-0.46-1.46,0.72-1.01,1.1c5,4.18,11.39,6.91,18.19,7.72c-0.08-0.24-0.16-0.47-0.24-0.71
					c-1.35,3.48-2.7,6.95-4.04,10.43c0.26-0.21,0.53-0.41,0.8-0.62c-5.02-0.9-10.02-2.32-14.73-4.12c-0.99-0.38-1.96-0.78-2.9-1.24
					c-0.62-0.3-1.31-0.65-1.79-1.08c-0.08-0.07-0.16-0.15-0.23-0.23c-0.03-0.04-0.06-0.08-0.09-0.12c-0.05-0.08,0.02,0.07-0.02-0.03
					c-0.01-0.04-0.03-0.12-0.02-0.04c-0.01-0.06-0.01-0.13-0.01-0.19c0-0.02,0,0.01,0.01-0.09c0.02-0.09,0.04-0.19,0.06-0.28
					c0.22-0.79,0.78-1.71,1.25-2.48c1.56-2.54,3.42-4.94,5.24-7.35c0.16-0.21,0.29-0.69-0.02-0.85
					C20.95,93.79,20.6,94.17,20.45,94.37L20.45,94.37z"/>
			</g>
		</g>
		<g>
			<path class="st4" d="M10.06,115.61c-1.55,3.63-1.17,7.94,1.29,11.15s7.01,5.12,11.31,4.49c4.3-0.63,8.01-3.94,8.44-7.8
				c0.08-0.69,0.04-1.45-0.44-2c-0.74-0.85-2.15-0.84-3.36-0.83c-6.24,0.07-12.47-1.91-17.27-5.46"/>
			<g>
				<path class="st5" d="M9.54,115.56c-1.58,3.77-1.32,8.21,1.2,11.62c2.29,3.09,6.51,5.09,10.68,4.83c4.12-0.25,7.78-2.7,9.45-6.04
					c0.4-0.8,0.67-1.65,0.79-2.52c0.12-0.91,0.12-1.99-0.64-2.7c-0.69-0.64-1.71-0.77-2.66-0.79c-1.14-0.02-2.27,0-3.4-0.09
					c-5.31-0.43-10.4-2.31-14.51-5.34c-0.48-0.36-1.35,0.87-0.81,1.26c3.33,2.46,7.31,4.16,11.53,4.97c2.09,0.4,4.18,0.52,6.32,0.53
					c0.86,0,1.94,0.01,2.58,0.61c0.68,0.63,0.52,1.64,0.35,2.42c-0.7,3.16-3.83,5.61-7.31,6.23c-3.78,0.67-7.83-0.78-10.35-3.31
					c-3.11-3.12-3.79-7.73-2.17-11.58c0.1-0.24,0.13-0.65-0.24-0.71C9.98,114.89,9.65,115.31,9.54,115.56L9.54,115.56z"/>
			</g>
		</g>
		<g>
			<path class="st4" d="M123.93,87.37c-0.76,1.29,0.79,2.88,2.42,2.98c1.63,0.1,3.11-0.75,4.47-1.57c2.3-1.39,4.6-2.79,6.91-4.18
				c-1.83-3.02-4.36-5.7-7.38-7.84c-0.96,3.86-3.36,7.43-6.73,10"/>
			<g>
				<path class="st5" d="M123.51,87.16c-0.61,1.14-0.36,2.32,0.72,3.16c1.19,0.92,2.76,0.82,4.14,0.32
					c1.62-0.59,3.05-1.61,4.49-2.49c1.62-0.98,3.25-1.97,4.87-2.95c0.38-0.23,0.75-0.73,0.49-1.15c-1.87-3.06-4.42-5.74-7.48-7.92
					c-0.42-0.3-0.92,0.51-0.98,0.76c-0.92,3.64-3.16,6.93-6.32,9.37c-0.27,0.2-0.53,0.62-0.41,0.94c0.12,0.32,0.49,0.25,0.73,0.07
					c3.59-2.76,6.1-6.52,7.14-10.64c-0.33,0.25-0.65,0.51-0.98,0.76c2.98,2.12,5.45,4.77,7.28,7.76c0.17-0.38,0.33-0.77,0.49-1.15
					c-2.62,1.59-5.2,3.28-7.91,4.76c-1.07,0.59-2.47,1.21-3.75,0.82c-0.51-0.15-0.98-0.45-1.3-0.83c-0.24-0.27-0.59-0.8-0.39-1.17
					c0.12-0.23,0.32-0.68-0.02-0.85C124.03,86.59,123.63,86.94,123.51,87.16L123.51,87.16z"/>
			</g>
		</g>
		<g>
			<path class="st4" d="M129.32,100.54c0.68,2.35,1.35,4.69,2.03,7.04c0.13,0.46,0.29,0.96,0.72,1.24c0.54,0.35,1.3,0.23,1.95,0.07
				c5.71-1.39,11.02-4.07,15.31-7.71c-1.94-3.2-3.87-6.41-5.81-9.61c-4.73,2.8-9.46,5.59-14.19,8.39"/>
			<g>
				<path class="st5" d="M128.75,100.97c0.57,1.98,1.14,3.95,1.7,5.93c0.22,0.76,0.33,1.79,0.98,2.38c0.63,0.57,1.56,0.47,2.36,0.28
					c3.73-0.86,7.32-2.35,10.53-4.23c1.84-1.08,3.57-2.29,5.16-3.64c0.3-0.25,0.56-0.69,0.35-1.05c-1.94-3.2-3.87-6.41-5.81-9.61
					c-0.1-0.16-0.38-0.13-0.52-0.05c-4.73,2.8-9.46,5.59-14.18,8.39c-0.32,0.19-0.6,0.53-0.58,0.89c0.02,0.29,0.29,0.49,0.6,0.31
					c4.73-2.8,9.46-5.59,14.19-8.39c-0.17-0.02-0.34-0.03-0.52-0.05c1.94,3.2,3.87,6.41,5.81,9.61c0.12-0.35,0.23-0.7,0.35-1.05
					c-2.62,2.21-5.6,4.06-8.84,5.48c-1.6,0.7-3.25,1.29-4.95,1.76c-0.74,0.21-1.84,0.66-2.62,0.42c-0.82-0.26-0.91-1.38-1.09-2.02
					c-0.6-2.07-1.19-4.14-1.79-6.2c-0.1-0.33-0.5-0.23-0.73-0.07C128.87,100.24,128.66,100.65,128.75,100.97L128.75,100.97z"/>
			</g>
		</g>
		<g>
			<path class="st4" d="M136.22,118.4c0.13,3.42,2.42,6.74,5.86,8.25c3.44,1.51,7.9,1.04,10.74-1.25c2.44-1.97,3.53-5.03,3.46-7.97
				c-0.07-2.94-1.19-5.78-2.6-8.43c-5.68,3.37-11.65,6.34-17.84,8.89"/>
			<g>
				<path class="st5" d="M135.63,118.69c0.24,5.02,4.68,9.51,10.49,9.5c2.82,0,5.53-1,7.48-2.83c2.04-1.92,3.06-4.56,3.25-7.17
					c0.24-3.4-1.06-6.71-2.66-9.74c-0.09-0.16-0.38-0.13-0.52-0.05c-5.68,3.36-11.65,6.33-17.84,8.89c-0.57,0.23-0.86,1.56,0.02,1.2
					c6.19-2.55,12.15-5.52,17.84-8.89c-0.17-0.02-0.34-0.03-0.52-0.05c2.29,4.33,4.1,10.17,0.47,14.38
					c-3.17,3.67-9.49,3.78-13.27,0.83c-2.14-1.66-3.45-4.14-3.57-6.66c-0.02-0.32-0.29-0.45-0.6-0.31
					C135.88,117.95,135.61,118.37,135.63,118.69L135.63,118.69z"/>
			</g>
		</g>
		<g>
			<path class="st4" d="M96.27,136.33c-0.49,1.22-0.42,2.57,0.35,3.17c1.04,0.81,2.63,0.72,4,0.53c1.37-0.2,2.74-0.55,4.11-0.4
				c1.15,0.13,2.37,0.59,3.41,0.14c0.79-0.34,1.21-1.15,1.28-1.93c0.06-0.78-0.18-1.55-0.42-2.3c-4.21,0.02-8.42,0.05-12.63,0.07"/>
			<g>
				<path class="st5" d="M95.76,136.29c-0.41,1.08-0.71,2.63,0.18,3.6c0.88,0.96,2.47,1.01,3.74,0.89c1.72-0.15,3.4-0.7,5.15-0.43
					c0.8,0.12,1.59,0.34,2.42,0.26c0.74-0.07,1.38-0.42,1.85-0.92c1.25-1.33,0.96-3.03,0.47-4.57c-0.03-0.11-0.15-0.23-0.28-0.23
					c-4.21,0.02-8.42,0.05-12.63,0.07c-0.63,0-1.26,1.33-0.56,1.33c4.21-0.02,8.42-0.05,12.63-0.07c-0.1-0.08-0.19-0.15-0.28-0.23
					c0.33,1.04,1.01,3.13-0.83,3.32c-0.8,0.08-1.62-0.2-2.41-0.3c-0.86-0.11-1.73-0.04-2.59,0.09c-1.47,0.22-3.12,0.69-4.61,0.28
					c-1.54-0.42-1.67-1.78-1.21-2.98c0.09-0.24,0.14-0.65-0.24-0.71C96.2,135.62,95.85,136.04,95.76,136.29L95.76,136.29z"/>
			</g>
		</g>
		<g>
			<path class="st4" d="M96.98,145.78c-0.97,0.5-0.38,1.98,0.68,2.3s2.21-0.07,3.29-0.32c2.56-0.59,5.34-0.38,7.75,0.59
				c0.09-1.33,0.18-2.66,0.27-3.99c-4.11,0.19-8.22,0.38-12.33,0.57"/>
			<g>
				<path class="st5" d="M96.97,145.18c-0.97,0.56-1.34,1.63-0.83,2.57c0.59,1.1,1.9,1.23,3.12,1.02c0.77-0.13,1.52-0.37,2.29-0.5
					c0.76-0.13,1.53-0.18,2.3-0.17c1.53,0.03,3.04,0.33,4.44,0.88c0.55,0.22,0.97-0.54,0.99-0.92c0.09-1.33,0.18-2.66,0.27-3.99
					c0.01-0.15-0.1-0.38-0.31-0.37c-4.11,0.19-8.22,0.38-12.33,0.57c-0.38,0.02-0.67,0.32-0.8,0.62c-0.07,0.18-0.15,0.73,0.24,0.71
					c4.11-0.19,8.22-0.38,12.33-0.57c-0.1-0.12-0.2-0.25-0.31-0.37c-0.09,1.33-0.18,2.66-0.27,3.99c0.33-0.31,0.66-0.61,0.99-0.92
					c-2.23-0.87-4.69-1.15-7.09-0.79c-1.19,0.18-2.47,0.76-3.69,0.57c-0.46-0.07-0.83-0.29-1.06-0.66
					c-0.08-0.13-0.12-0.27-0.17-0.41c-0.09-0.23,0.09-0.16-0.09-0.05c0.32-0.19,0.6-0.53,0.58-0.89
					C97.55,145.2,97.28,145,96.97,145.18L96.97,145.18z"/>
			</g>
		</g>
		<g>
			<path class="st4" d="M53.07,138.51c-1.15,0.6-0.9,2.28,0.13,3.04c1.62,1.18,6.6,0.42,8.98,0.19c1.76-0.17,0.98-2.25,1.14-4.03
				c-3.33-0.05-6.66-0.1-10-0.14"/>
			<g>
				<path class="st5" d="M53.06,137.91c-1.31,0.76-1.68,2.29-0.97,3.5c0.61,1.04,1.86,1.32,3.08,1.41c1.49,0.11,3-0.03,4.48-0.18
					c0.68-0.07,1.35-0.15,2.02-0.22c0.65-0.07,1.2-0.21,1.63-0.68c1.08-1.18,0.49-2.95,0.6-4.33c0.01-0.16-0.1-0.37-0.31-0.37
					c-3.33-0.05-6.66-0.1-10-0.14c-0.63-0.01-1.26,1.32-0.56,1.33c3.33,0.05,6.66,0.1,10,0.14c-0.1-0.12-0.2-0.25-0.31-0.37
					c-0.05,0.7,0.02,1.39,0.04,2.09c0.01,0.27,0.03,0.57-0.05,0.84c-0.03,0.09,0.04,0.09-0.16,0.12c-1.32,0.2-2.67,0.32-4,0.41
					c-1.33,0.09-2.82,0.2-4.12-0.16c-0.57-0.15-1.03-0.45-1.3-0.93c-0.17-0.29-0.46-1.03-0.05-1.26c0.32-0.19,0.6-0.53,0.58-0.89
					C53.64,137.93,53.37,137.73,53.06,137.91L53.06,137.91z"/>
			</g>
		</g>
		<g>
			<path class="st4" d="M52.56,146.54c-0.18,0.97-0.36,1.94-0.54,2.91c3.6-0.46,7.29-0.32,10.83,0.41c0.66-1.44-0.21-3.56-0.87-3.69
				c-1.52-0.31-2.73-0.03-4.36,0.19c-1.63,0.22-3.83-0.08-5.35-0.66"/>
			<g>
				<path class="st5" d="M51.99,146.67c-0.18,0.97-0.36,1.94-0.54,2.91c-0.05,0.28,0.06,0.57,0.43,0.52
					c3.56-0.45,7.18-0.29,10.69,0.42c0.36,0.07,0.7-0.39,0.8-0.62c0.43-1.02,0.4-2.2-0.04-3.23c-0.15-0.36-0.35-0.78-0.71-1.02
					c-0.42-0.29-1.11-0.29-1.63-0.3c-1.43-0.02-2.8,0.4-4.23,0.4c-1.38,0-2.8-0.22-4.08-0.69c-0.63-0.23-1.41,1.04-0.81,1.26
					c1.13,0.41,2.34,0.66,3.56,0.74c1.28,0.08,2.49-0.14,3.76-0.3c0.62-0.08,1.25-0.11,1.87-0.04c0.47,0.05,0.7,0.08,0.94,0.44
					c0.5,0.74,0.68,1.84,0.34,2.65c0.26-0.21,0.53-0.41,0.8-0.62c-3.6-0.74-7.31-0.86-10.97-0.4c0.14,0.17,0.29,0.35,0.43,0.52
					c0.18-0.97,0.36-1.94,0.54-2.91c0.05-0.28-0.06-0.58-0.43-0.52C52.34,145.94,52.05,146.38,51.99,146.67L51.99,146.67z"/>
			</g>
		</g>
	</g>
	<g id="Ebene_3_2_">
		<g>
			<path d="M55.89,22.88c-0.13,2.93-1.64,9.92-0.8,16.11c0.23,1.72,61.78,0.04,61.78-2.95c0-5.75,1.94-10.55-1.21-13.95
				c-2.55-2.75-38.9,0.03-59.64,0.68"/>
			<g>
				<path d="M55.18,23.23c-0.07,1.45-0.31,2.89-0.49,4.33c-0.25,2.03-0.46,4.06-0.54,6.09c-0.04,1.11-0.05,2.21,0.01,3.32
					c0.02,0.51,0.06,1.02,0.11,1.53c0.03,0.33,0.02,0.72,0.13,1.04c0.11,0.31,0.45,0.4,0.76,0.47c0.91,0.22,1.89,0.25,2.82,0.3
					c1.66,0.09,3.33,0.13,5,0.15c4.82,0.06,9.64-0.01,14.46-0.12c5.52-0.13,11.03-0.34,16.54-0.62c4.84-0.25,9.69-0.56,14.51-1.06
					c1.67-0.18,3.34-0.37,4.98-0.66c0.99-0.17,2.07-0.35,2.96-0.79c0.46-0.23,0.85-0.58,1.03-1.03c0.07-0.18,0.09-0.29,0.1-0.47
					c0.03-0.56,0.02-1.13,0.05-1.7c0.06-1.06,0.17-2.11,0.28-3.17c0.18-1.79,0.4-3.61,0.15-5.4c-0.2-1.41-0.71-3.02-1.87-4.07
					c-0.39-0.35-0.95-0.5-1.47-0.63c-0.74-0.18-1.52-0.28-2.28-0.35c-2.39-0.24-4.81-0.26-7.21-0.27
					c-7.03-0.02-14.07,0.31-21.09,0.63c-7.63,0.35-15.26,0.76-22.9,1.07c-1.62,0.07-3.25,0.13-4.87,0.18
					c-0.46,0.01-0.81,0.38-0.96,0.75c-0.09,0.22-0.18,0.86,0.28,0.85c7.23-0.23,14.45-0.61,21.67-0.96
					c7.3-0.35,14.61-0.71,21.93-0.86c2.89-0.06,5.78-0.09,8.66-0.01c1.89,0.06,3.84,0.11,5.7,0.48c0.15,0.03,0.29,0.06,0.44,0.1
					c0.04,0.01,0.25,0.07,0.09,0.02c0.07,0.02,0.13,0.04,0.2,0.06c0.21,0.07,0.4,0.16,0.59,0.26c0.04,0.02,0.07,0.05,0.11,0.08
					c-0.07-0.05-0.09-0.09-0.03-0.02c0.28,0.31,0.53,0.62,0.75,0.97c0.43,0.68,0.68,1.44,0.82,2.21c0.32,1.71,0.1,3.51-0.08,5.22
					c-0.11,1.02-0.22,2.04-0.29,3.06c-0.03,0.5-0.06,1-0.07,1.51c0,0.17,0.07,0.54-0.01,0.69c0.09-0.17-0.02-0.11,0.07-0.32
					c0.01-0.03,0.18-0.28,0.19-0.29c-0.09,0.1,0.24-0.19,0.03-0.04c-0.02,0.02,0.22-0.1,0.01-0.01c-0.07,0.03-0.14,0.07-0.22,0.1
					c-0.03,0.01-0.07,0.03-0.1,0.04c-0.15,0.07,0.19-0.06,0.02-0.01c-0.1,0.03-0.19,0.06-0.29,0.09c-0.23,0.07-0.46,0.13-0.69,0.18
					c-1.35,0.32-2.73,0.51-4.11,0.68c-4.32,0.54-8.69,0.84-13.05,1.1c-5.38,0.32-10.77,0.55-16.17,0.71
					c-5.01,0.15-10.03,0.25-15.04,0.25c-3.24,0-6.54,0.04-9.77-0.29c-0.38-0.04-0.76-0.09-1.13-0.17c-0.18-0.03-0.02,0-0.04-0.01
					c-0.04-0.02-0.1-0.04-0.14-0.05c-0.28-0.05,0.15,0,0.04,0.12c0.02-0.02-0.04-0.34-0.04-0.35c-0.03-0.25-0.05-0.51-0.08-0.76
					c-0.05-0.57-0.08-1.13-0.1-1.7c-0.03-1.05-0.02-2.09,0.03-3.14c0.09-1.95,0.31-3.9,0.55-5.84c0.17-1.38,0.39-2.77,0.46-4.16
					c0.02-0.39-0.37-0.53-0.72-0.37C55.45,22.35,55.2,22.82,55.18,23.23L55.18,23.23z"/>
			</g>
		</g>
		<g>
			<g>
				<path d="M51.43,20.5c-0.55,4.75-1.12,9.49-1.58,14.24c-0.19,1.95-0.48,3.98-0.29,5.95c0.08,0.84,0.31,1.6,0.94,2.25
					c0.68,0.69,1.97,0.71,2.92,0.8c2.18,0.2,4.38,0.24,6.57,0.27c3.13,0.04,6.26,0.02,9.39-0.04c3.68-0.06,7.35-0.16,11.03-0.29
					c3.83-0.14,7.66-0.3,11.48-0.5c3.59-0.19,7.18-0.4,10.76-0.66c2.98-0.21,5.95-0.45,8.92-0.77c1.95-0.21,3.92-0.41,5.83-0.82
					c0.52-0.11,1.09-0.24,1.56-0.48c0.78-0.4,1.14-1.19,1.38-1.93c0.41-1.26,0.59-2.57,0.74-3.87c0.2-1.73,0.31-3.47,0.37-5.22
					c0.11-3.22,0.13-6.52-0.42-9.72c-0.13-0.72-0.25-1.75-0.85-2.31c-0.38-0.36-1.07-0.42-1.58-0.49c-2.31-0.31-4.69-0.29-7.02-0.3
					c-3.79-0.02-7.58,0.06-11.37,0.16c-4.62,0.13-9.23,0.3-13.85,0.5c-4.82,0.21-9.65,0.46-14.46,0.73
					c-4.41,0.25-8.82,0.52-13.22,0.83c-1.8,0.12-3.59,0.26-5.39,0.4c-0.46,0.04-0.8,0.37-0.96,0.75c-0.09,0.21-0.18,0.89,0.28,0.85
					c3.92-0.31,7.84-0.57,11.76-0.82c4.6-0.29,9.19-0.54,13.79-0.78c4.73-0.24,9.46-0.45,14.2-0.63c4.23-0.16,8.46-0.29,12.7-0.36
					c3.18-0.05,6.37-0.08,9.55,0.03c1,0.04,2,0.08,2.99,0.19c0.33,0.04,0.66,0.08,0.98,0.15c0.06,0.01,0.12,0.03,0.17,0.04
					c0.07,0.02-0.12-0.06,0.03,0.01c0.07,0.03,0.15,0.07,0.23,0.1c0.1,0.04,0.02,0.02-0.03-0.04c0.04,0.05,0.09,0.09,0.12,0.14
					c0.04,0.06,0.07,0.12,0.11,0.18c-0.09-0.15,0.03,0.08,0.06,0.14c0.18,0.44,0.28,0.91,0.36,1.37c0.24,1.27,0.33,2.74,0.39,4.11
					c0.14,3.36,0.07,6.79-0.3,10.11c-0.14,1.26-0.31,2.53-0.67,3.76c-0.02,0.05,0.06-0.16,0,0c-0.02,0.05-0.03,0.1-0.05,0.15
					c-0.04,0.1-0.07,0.19-0.12,0.29c-0.02,0.04-0.04,0.08-0.05,0.12c-0.04,0.13,0.12-0.18,0.04-0.07c-0.02,0.02-0.05,0.07-0.06,0.09
					c-0.02,0.08-0.13,0.08,0,0.01c0.1-0.05,0.06-0.08,0-0.02c-0.06,0.07,0.2-0.17,0.11-0.1c-0.12,0.09,0.02-0.03,0.09-0.05
					c-0.07,0.02-0.15,0.07-0.21,0.11c-0.23,0.11,0.13-0.03-0.12,0.04c-0.12,0.03-0.23,0.07-0.35,0.1c-0.3,0.08-0.6,0.14-0.9,0.2
					c-0.84,0.17-1.7,0.29-2.55,0.41c-2.51,0.34-5.04,0.57-7.57,0.78c-3.26,0.27-6.53,0.49-9.8,0.69c-3.71,0.22-7.42,0.41-11.14,0.57
					c-3.72,0.16-7.44,0.29-11.17,0.39c-3.39,0.09-6.79,0.15-10.18,0.16c-2.66,0.01-5.32,0-7.98-0.11c-1.56-0.06-3.21-0.08-4.73-0.43
					c-0.05-0.01-0.1-0.03-0.15-0.04c-0.17-0.04,0.12,0.04-0.02,0c-0.07-0.03-0.15-0.05-0.22-0.08c-0.05-0.02-0.21-0.13-0.1-0.04
					c0.12,0.08-0.07-0.07-0.11-0.11c-0.11-0.11-0.22-0.23-0.31-0.35c-0.05-0.06-0.08-0.13-0.13-0.19c-0.02-0.03-0.04-0.06-0.06-0.1
					c0.01,0.01,0.06,0.14,0.01,0.01c-0.07-0.18-0.13-0.35-0.18-0.53c-0.02-0.1-0.07-0.4-0.04-0.18c-0.02-0.13-0.03-0.25-0.04-0.38
					c-0.06-0.74-0.03-1.49,0-2.24c0.16-3.14,0.56-6.28,0.91-9.41c0.3-2.69,0.61-5.37,0.92-8.06c0.04-0.33-0.06-0.71-0.52-0.63
					C51.87,19.63,51.47,20.15,51.43,20.5L51.43,20.5z"/>
			</g>
		</g>
		<g>
			<path class="st6" d="M84.76,38.09c0.4-5.09,6-10.77,11.96-11.18c5.96-0.41,12.08,4.9,13.44,9.86"/>
			<g>
				<path d="M85.47,37.74c0.34-3.88,3.69-7.52,7.53-9.18c2.04-0.88,4.29-1.11,6.49-0.59c2.29,0.54,4.39,1.82,6.04,3.31
					c1.84,1.67,3.32,3.72,3.97,6c0.11,0.4,0.61,0.28,0.87,0.09c0.34-0.25,0.6-0.73,0.49-1.13c-1.25-4.4-5.43-8.46-10.32-9.77
					c-5.09-1.37-10.15,1.31-13.21,4.85c-1.78,2.06-3.03,4.5-3.26,7.11c-0.03,0.39,0.38,0.52,0.72,0.37
					C85.21,38.61,85.43,38.15,85.47,37.74L85.47,37.74z"/>
			</g>
		</g>
		<g>
			<g>
				<path d="M39.43,30.97c0,4.19-0.1,8.38-0.14,12.57c-0.03,3.46-0.18,6.96,0.69,10.36c0.72,2.83,2.09,5.64,4.39,7.74
					c1.24,1.13,2.75,2.21,4.5,2.6c2.24,0.51,4.6,0.69,6.89,0.9c3.91,0.37,7.84,0.63,11.77,0.84c4.87,0.27,9.74,0.45,14.62,0.57
					c5.14,0.12,10.29,0.15,15.43,0.07c4.77-0.08,9.53-0.26,14.28-0.65c3.68-0.31,7.41-0.7,10.98-1.57c2.31-0.56,4.94-1.34,6.34-3.2
					c0.78-1.03,1.21-2.25,1.58-3.43c0.49-1.57,0.8-3.18,1.06-4.8c0.67-4.32,0.9-8.7,0.92-13.05c0.02-4.7-0.21-9.41-0.82-14.08
					c-0.49-3.81-1.13-7.74-2.65-11.35c-0.51-1.21-1.12-2.46-2.08-3.45c-0.73-0.76-1.68-1.26-2.69-1.67
					c-3.18-1.29-6.74-1.93-10.17-2.47c-4.92-0.78-9.91-1.25-14.9-1.53c-5.66-0.32-11.35-0.4-17.02-0.2
					c-5.59,0.19-11.18,0.64-16.69,1.53c-4.68,0.76-9.38,1.83-13.67,3.69c-5.24,2.26-9.38,6.07-11.25,11.04
					c-1.11,2.95-1.45,6.08-1.34,9.19c0.01,0.38,0.35,0.54,0.72,0.37c0.4-0.18,0.71-0.67,0.69-1.07c-0.12-3.05,0.2-6.14,1.42-9.01
					c1.1-2.61,2.95-4.87,5.37-6.63c1.54-1.12,3.4-2.06,5.33-2.83c2.02-0.81,4.14-1.43,6.27-1.95c5.02-1.23,10.2-1.91,15.38-2.33
					c5.6-0.45,11.23-0.58,16.85-0.47c5.31,0.1,10.61,0.4,15.88,0.97c4.17,0.45,8.37,1.03,12.42,2.05c1.34,0.34,2.69,0.72,3.97,1.27
					c0.48,0.2,0.94,0.43,1.38,0.7c0.45,0.29,0.65,0.46,1.03,0.89c0.91,1.04,1.42,2.15,1.9,3.38c0.65,1.66,1.11,3.37,1.49,5.09
					c0.94,4.27,1.37,8.62,1.6,12.96c0.24,4.57,0.22,9.15-0.11,13.71c-0.14,1.96-0.35,3.9-0.66,5.85c-0.14,0.85-0.3,1.69-0.49,2.53
					c-0.08,0.37-0.17,0.74-0.27,1.11c-0.05,0.17-0.1,0.35-0.15,0.52c-0.02,0.07-0.04,0.15-0.07,0.22c-0.07,0.23,0.03-0.07-0.05,0.16
					c-0.19,0.57-0.4,1.14-0.67,1.69c-0.03,0.06-0.06,0.12-0.09,0.18c-0.06,0.11,0.11-0.19,0,0c-0.07,0.11-0.13,0.22-0.2,0.33
					c-0.06,0.09-0.12,0.18-0.18,0.26c-0.12,0.18,0.12-0.13,0.02-0.03c-0.04,0.04-0.07,0.09-0.11,0.13c-0.07,0.07-0.14,0.14-0.2,0.21
					c0.19-0.21,0.01-0.01-0.09,0.07c-0.07,0.06-0.15,0.12-0.23,0.17c-0.04,0.03-0.09,0.06-0.13,0.09c-0.18,0.13,0.09-0.05-0.01,0.01
					c-0.44,0.26-0.89,0.48-1.37,0.68c-0.12,0.05-0.25,0.1-0.37,0.15c-0.05,0.02-0.23,0.09-0.08,0.03c-0.08,0.03-0.16,0.06-0.24,0.08
					c-0.31,0.11-0.62,0.2-0.93,0.3c-0.68,0.2-1.36,0.37-2.05,0.52c-1.67,0.37-3.37,0.64-5.07,0.86c-4.23,0.55-8.5,0.82-12.76,0.99
					c-4.95,0.2-9.91,0.25-14.86,0.21c-5-0.03-10.01-0.16-15.01-0.36c-4.38-0.18-8.75-0.41-13.12-0.73
					c-3.13-0.23-6.26-0.48-9.36-0.88c-0.9-0.12-1.8-0.24-2.68-0.44c-0.07-0.02-0.14-0.03-0.21-0.05c-0.12-0.03-0.21-0.06-0.08-0.02
					c-0.1-0.03-0.2-0.06-0.3-0.1c-1.35-0.52-2.6-1.4-3.61-2.35c-2.2-2.1-3.47-4.83-4.13-7.61c-0.8-3.36-0.58-6.85-0.55-10.26
					c0.04-4,0.13-8,0.14-12c0-0.38-0.36-0.54-0.72-0.37C39.72,30.09,39.44,30.57,39.43,30.97L39.43,30.97z"/>
			</g>
		</g>
		<g>
			<g>
				<path d="M40.32,25.52c-4,0.01-8.19,0.36-11.81,1.99c-3.39,1.53-5.71,4.25-6.61,7.53c-0.47,1.7-0.53,3.48-0.48,5.23
					c0.03,1.32,0.17,2.67,0.58,3.94c0.69,2.12,2.29,3.7,4.62,4.48c1.65,0.56,3.42,0.78,5.18,0.89c2.47,0.15,4.96,0.09,7.44-0.02
					c0.46-0.02,0.8-0.38,0.96-0.75c0.09-0.22,0.18-0.87-0.28-0.85c-3.67,0.16-7.55,0.34-11.14-0.46c-2.15-0.48-4.08-1.53-5-3.33
					c-0.5-0.99-0.74-2.08-0.85-3.16c-0.15-1.47-0.17-2.99,0.01-4.46c0.35-2.98,1.74-5.5,4.59-7.09c3.56-1.98,8.03-2.34,12.13-2.35
					C40.41,27.11,41.16,25.52,40.32,25.52L40.32,25.52z"/>
			</g>
		</g>
		<g>
			<g>
				<path d="M31.6,26.81c-3.08,5.42-3.69,12.09-2.16,17.97c0.42,1.61,1.04,3.17,1.88,4.65c0.21,0.37,0.8-0.02,0.97-0.21
					c0.28-0.3,0.46-0.74,0.25-1.11c-1.41-2.46-2.11-5.24-2.36-7.98c-0.26-2.89-0.02-5.81,0.75-8.63c0.39-1.43,0.94-2.85,1.69-4.16
					c0.16-0.28,0.37-0.81-0.02-1.02C32.23,26.11,31.75,26.55,31.6,26.81L31.6,26.81z"/>
			</g>
		</g>
		<g>
			<g>
				<path d="M18.12,39.28c1.23-0.06,2.43-0.33,3.66-0.39c0.46-0.02,0.8-0.38,0.96-0.75c0.09-0.22,0.18-0.87-0.28-0.85
					c-1.23,0.06-2.43,0.33-3.66,0.39c-0.46,0.02-0.8,0.38-0.96,0.75C17.75,38.65,17.66,39.31,18.12,39.28L18.12,39.28z"/>
			</g>
		</g>
		<g>
			<path class="st7" d="M18.46,38.48c0-5.21-5.92-5.21-5.92-0.89c0,7.46,6.46,5.49,5.92,1.2"/>
			<g>
				<path d="M19.16,38.13c-0.02-1.77-0.74-3.91-2.9-4.4c-1.89-0.43-3.55,0.98-4.11,2.47c-0.42,1.11-0.36,2.32-0.18,3.47
					c0.15,0.92,0.43,1.87,1.05,2.63c0.89,1.09,2.38,1.4,3.71,0.74c1.78-0.88,2.64-2.86,2.44-4.6c-0.12-1.03-1.49,0.03-1.41,0.7
					c0.02,0.17,0.03,0.34,0.03,0.51c0,0.16-0.01,0.3-0.02,0.37c-0.06,0.39-0.07,0.4-0.22,0.73c-0.02,0.04-0.08,0.16,0.01-0.02
					c-0.03,0.06-0.07,0.12-0.11,0.18c-0.04,0.06-0.08,0.12-0.12,0.18c0.14-0.19,0.01-0.01-0.03,0.03c-0.03,0.04-0.29,0.29-0.12,0.14
					c-0.12,0.1-0.24,0.2-0.37,0.28c0.16-0.1-0.13,0.06-0.17,0.08c-0.2,0.1-0.08,0.05-0.24,0.09c-0.3,0.08-0.39,0.09-0.65,0.08
					c-0.46-0.03-0.89-0.21-1.23-0.51c-1.17-1.05-1.41-3-1.26-4.39c0.04-0.36,0.1-0.58,0.25-0.88c-0.09,0.18,0.27-0.35,0.11-0.16
					c0.05-0.06,0.11-0.12,0.16-0.18c-0.13,0.13,0.07-0.06,0.1-0.08c0.11-0.08,0.38-0.22,0.57-0.27c0.3-0.07,0.5-0.09,0.82-0.05
					c1.86,0.22,2.46,2.15,2.47,3.56c0,0.38,0.36,0.54,0.72,0.37C18.88,39.02,19.17,38.53,19.16,38.13L19.16,38.13z"/>
			</g>
		</g>
		<g>
			<path class="st8" d="M161.8,33.65c0-5.21-5.92-5.21-5.92-0.89c0,7.46,6.46,5.49,5.92,1.2"/>
			<g>
				<path d="M162.51,33.3c-0.02-1.77-0.74-3.91-2.9-4.4c-1.89-0.43-3.55,0.98-4.11,2.47c-0.42,1.11-0.36,2.32-0.18,3.47
					c0.15,0.92,0.43,1.87,1.05,2.63c0.89,1.09,2.38,1.4,3.71,0.74c1.78-0.88,2.64-2.86,2.44-4.6c-0.12-1.03-1.49,0.03-1.41,0.7
					c0.02,0.17,0.03,0.34,0.03,0.51c0,0.16-0.01,0.3-0.02,0.37c-0.06,0.39-0.07,0.4-0.22,0.73c-0.02,0.04-0.08,0.16,0.01-0.02
					c-0.03,0.06-0.07,0.12-0.11,0.19c-0.04,0.06-0.08,0.12-0.12,0.18c0.14-0.19,0.01-0.01-0.03,0.03c-0.03,0.04-0.29,0.29-0.12,0.14
					c-0.12,0.1-0.24,0.2-0.37,0.28c0.16-0.1-0.13,0.06-0.17,0.08c-0.2,0.1-0.08,0.05-0.24,0.09c-0.3,0.08-0.39,0.09-0.65,0.08
					c-0.46-0.03-0.89-0.21-1.23-0.51c-1.17-1.05-1.41-3-1.26-4.39c0.04-0.36,0.1-0.58,0.25-0.88c-0.09,0.18,0.27-0.35,0.11-0.16
					c0.05-0.06,0.11-0.12,0.16-0.18c-0.13,0.13,0.07-0.06,0.1-0.08c0.11-0.08,0.38-0.22,0.57-0.27c0.3-0.07,0.5-0.09,0.82-0.05
					c1.86,0.22,2.46,2.15,2.47,3.56c0,0.38,0.36,0.54,0.72,0.37C162.22,34.18,162.52,33.7,162.51,33.3L162.51,33.3z"/>
			</g>
		</g>
		<g>
			<g>
				<path d="M130.64,24.95c2.68-0.44,5.45-0.53,8.19-0.36c3.28,0.21,7.2,0.86,9.38,3.29c1.28,1.42,1.48,3.09,1.5,4.86
					c0.02,2.03-0.19,4.12-1.02,6.01c-0.28,0.64-0.71,1.34-1.13,1.82c-0.5,0.58-0.85,0.9-1.53,1.36c-0.46,0.31-1.2,0.69-1.85,0.94
					c-0.58,0.23-1.34,0.44-2.02,0.59c-2.89,0.62-5.86,0.52-8.81,0.64c-0.32,0.01-0.64,0.03-0.96,0.05c-0.46,0.03-0.8,0.37-0.96,0.75
					c-0.09,0.21-0.18,0.88,0.28,0.85c3.09-0.2,6.2-0.04,9.26-0.56c3.44-0.58,6.49-2.17,8.22-4.95c1.13-1.82,1.64-3.87,1.84-5.92
					c0.2-2.13,0.31-4.52-0.74-6.5c-1.62-3.05-5.55-4.23-9.04-4.66c-3.18-0.39-6.48-0.29-9.65,0.13c-0.21,0.03-0.42,0.06-0.63,0.09
					C130.25,23.5,129.65,25.11,130.64,24.95L130.64,24.95z"/>
			</g>
		</g>
		<g>
			<g>
				<path d="M136.15,24.82c1.37,1.99,1.97,4.43,2.41,6.71c0.52,2.68,0.76,5.42,0.62,8.14c-0.03,0.65-0.09,1.3-0.19,1.94
					c-0.04,0.28-0.1,0.57-0.16,0.85c-0.03,0.14-0.06,0.28-0.1,0.42c-0.02,0.07-0.1,0.37-0.08,0.31c-0.09,0.29-0.18,0.78,0.28,0.85
					c0.41,0.06,0.86-0.45,0.96-0.75c0.78-2.45,0.82-5.07,0.68-7.6c-0.16-2.88-0.61-5.79-1.52-8.56c-0.41-1.25-0.93-2.5-1.69-3.62
					C136.92,22.86,135.75,24.24,136.15,24.82L136.15,24.82z"/>
			</g>
		</g>
		<g>
			<g>
				<path d="M150.43,33.67c1.71,0.06,3.42,0.09,5.12,0.16c0.76,0.03,1.52-1.57,0.67-1.6c-1.71-0.06-3.42-0.09-5.12-0.16
					C150.34,32.05,149.58,33.64,150.43,33.67L150.43,33.67z"/>
			</g>
		</g>
		<g>
			<path class="st9" d="M64.98,65.4c-12.52,16.76-25.46,34.62-26.13,54.49c-0.19,5.55,1.03,11.79,6.25,15.11
				c4.53,2.88,10.69,2.71,16.33,2.42c15.79-0.82,31.59-1.64,47.39-2.45c4.86-0.25,10.08-0.61,13.87-3.23
				c3.33-2.3,4.97-6.01,5.26-9.66c0.29-3.64-0.62-7.27-1.6-10.83c-4.31-15.7-9.73-29.99-15.4-45.36"/>
			<g>
				<path d="M64.47,65.14c-4.43,5.94-8.84,11.9-12.8,18.1c-3.9,6.12-7.4,12.5-9.86,19.2c-1.22,3.32-2.2,6.71-2.83,10.16
					c-0.6,3.24-0.97,6.57-0.83,9.87c0.12,2.94,0.68,5.91,2.11,8.58c1.42,2.66,3.81,4.8,6.87,5.95c3.39,1.28,7.15,1.44,10.78,1.35
					c4.24-0.11,8.47-0.4,12.7-0.62c9.05-0.47,18.1-0.94,27.15-1.41c4.34-0.22,8.68-0.39,13.01-0.69c3.62-0.25,7.37-0.7,10.56-2.36
					c3.16-1.64,5.37-4.39,6.45-7.48c1.22-3.45,1.04-7.08,0.33-10.6c-0.77-3.83-1.96-7.61-3.09-11.37c-1.12-3.71-2.31-7.4-3.55-11.08
					c-2.48-7.35-5.16-14.64-7.85-21.92c-0.67-1.82-1.35-3.64-2.02-5.45c-0.31-0.84-1.59,0.42-1.36,1.04
					c2.64,7.16,5.32,14.32,7.85,21.51c2.52,7.16,4.88,14.37,6.94,21.65c1.77,6.24,4.34,14.15-0.59,19.81
					c-2.19,2.5-5.51,3.66-8.92,4.21c-3.87,0.62-7.87,0.66-11.79,0.86c-8.76,0.45-17.53,0.91-26.29,1.36
					c-4.4,0.23-8.8,0.46-13.2,0.68c-3.73,0.19-7.51,0.49-11.24,0.09c-3.38-0.36-6.73-1.4-9.12-3.65c-2.17-2.05-3.33-4.73-3.9-7.47
					c-0.61-2.95-0.53-6-0.23-8.98c0.33-3.35,1.02-6.67,1.97-9.92c1.92-6.56,4.98-12.84,8.53-18.82c3.63-6.14,7.8-12.01,12.07-17.8
					c1.05-1.42,2.11-2.84,3.17-4.26c0.19-0.26,0.35-0.82-0.02-1.02C65.08,64.43,64.65,64.9,64.47,65.14L64.47,65.14z"/>
			</g>
		</g>
		<g>
			<path class="st10" d="M57.08,82.72c-2.02,17.31-3.91,40.35,0.16,45.71c4.39,5.78,53.24,2.86,57.07-0.56
				c3.06-2.73,2.63-45.55-3.73-49.58c-3.15-1.99-31.99-1.15-41.41-0.79c-4.36,0.16-11.93,1.07-11.93,4.8"/>
			<g>
				<path d="M56.26,82.91c-0.65,5.59-1.23,11.18-1.65,16.79c-0.41,5.33-0.7,10.69-0.6,16.04c0.04,2.16,0.14,4.32,0.4,6.47
					c0.2,1.66,0.47,3.34,1.04,4.94c0.35,0.98,0.8,2,1.7,2.68c0.71,0.54,1.6,0.86,2.47,1.13c2.81,0.85,5.82,1.16,8.77,1.39
					c3.93,0.3,7.88,0.37,11.81,0.34c4.26-0.03,8.53-0.2,12.78-0.47c3.84-0.25,7.67-0.58,11.48-1.07c2.61-0.34,5.28-0.7,7.79-1.46
					c0.78-0.24,1.6-0.52,2.24-1c0.63-0.49,0.96-1.21,1.19-1.91c0.71-2.18,0.87-4.5,1.04-6.75c0.25-3.28,0.32-6.57,0.3-9.86
					c-0.02-3.78-0.16-7.56-0.43-11.33c-0.26-3.58-0.63-7.15-1.23-10.7c-0.45-2.63-0.97-5.33-2.06-7.82
					c-0.36-0.82-0.79-1.69-1.44-2.36c-0.6-0.62-1.3-0.86-2.18-1.05c-1.34-0.29-2.72-0.4-4.09-0.5c-1.95-0.14-3.91-0.21-5.86-0.26
					c-4.75-0.11-9.5-0.08-14.24-0.01c-4.32,0.07-8.63,0.18-12.95,0.32c-4.14,0.14-8.57,0.15-12.39,1.77
					c-2.02,0.85-3.68,2.43-3.72,4.51c-0.01,0.45,0.44,0.65,0.86,0.44c0.49-0.24,0.82-0.79,0.83-1.28c0-0.05,0-0.09,0-0.14
					c0.02-0.15-0.02,0.11,0-0.04c0.01-0.09,0.03-0.17,0.05-0.26c0.03-0.11-0.01,0.03-0.01,0.04c0.02-0.05,0.05-0.11,0.07-0.16
					c0.05-0.16-0.09,0.11,0.05-0.09c0.04-0.05,0.22-0.29,0.06-0.1c0.06-0.07,0.12-0.14,0.18-0.21c0.13-0.14-0.08,0.05,0.08-0.08
					c0.1-0.09,0.2-0.17,0.31-0.25c0.65-0.47,1.69-0.88,2.61-1.14c2.2-0.63,4.53-0.88,6.82-0.99c3.62-0.17,7.25-0.25,10.88-0.34
					c4.69-0.11,9.38-0.18,14.07-0.17c4.07,0.01,8.16,0.05,12.21,0.39c1.25,0.1,2.51,0.23,3.72,0.52c0.05,0.01,0.09,0.02,0.14,0.04
					c-0.12-0.03-0.08-0.03,0.01,0.01c0.09,0.03,0.18,0.06,0.27,0.09c0.14,0.06,0.27,0.12,0.4,0.2c0.06,0.04,0.11,0.08,0.17,0.12
					c0.09,0.06-0.13-0.11-0.02-0.01c0.03,0.03,0.07,0.06,0.1,0.09c0.13,0.12,0.25,0.25,0.36,0.39c0.27,0.33,0.48,0.68,0.68,1.04
					c0.04,0.07,0.09,0.16,0.02,0.04c0.02,0.05,0.05,0.09,0.07,0.14c0.06,0.11,0.11,0.23,0.16,0.34c0.11,0.24,0.21,0.48,0.31,0.72
					c0.46,1.16,0.79,2.35,1.08,3.55c0.76,3.13,1.17,6.16,1.51,9.34c0.39,3.67,0.62,7.35,0.74,11.04c0.12,3.51,0.14,7.02,0.02,10.53
					c-0.05,1.5-0.12,3-0.24,4.5c-0.03,0.33-0.05,0.67-0.09,1c-0.01,0.07-0.01,0.14-0.02,0.22c0,0.05-0.01,0.09-0.01,0.14
					c0-0.01,0.02-0.16,0.01-0.06c-0.02,0.16-0.03,0.32-0.05,0.48c-0.06,0.56-0.13,1.13-0.22,1.69c-0.07,0.47-0.16,0.94-0.26,1.41
					c-0.04,0.2-0.09,0.39-0.14,0.59c-0.02,0.09-0.05,0.17-0.07,0.26c-0.07,0.24,0.09-0.24-0.01,0.04c-0.05,0.14-0.1,0.28-0.16,0.42
					c-0.02,0.05-0.06,0.1-0.07,0.16c0-0.01,0.16-0.28,0.03-0.07c-0.03,0.05-0.16,0.23,0,0.02c0.18-0.25-0.15,0.1,0.08-0.09
					c0.2-0.16,0.03-0.03-0.02,0.01c-0.19,0.14,0.02-0.01,0.03-0.01c-0.29,0.12-0.57,0.28-0.87,0.4c-0.13,0.05,0.22-0.07,0.03-0.01
					c-0.04,0.01-0.08,0.03-0.13,0.04c-0.1,0.03-0.21,0.07-0.31,0.1c-0.22,0.07-0.45,0.13-0.67,0.19c-1.15,0.31-2.32,0.54-3.5,0.74
					c-3.28,0.57-6.61,0.93-9.94,1.23c-4.03,0.36-8.07,0.59-12.11,0.73c-4.07,0.14-8.15,0.17-12.22,0.04
					c-3.41-0.11-6.84-0.31-10.21-0.84c-0.66-0.11-1.32-0.23-1.98-0.37c-0.28-0.06-0.57-0.13-0.85-0.2
					c-0.07-0.02-0.14-0.04-0.22-0.06c-0.04-0.01,0.07,0.02-0.06-0.02c-0.13-0.04-0.27-0.08-0.4-0.12c-0.46-0.15-0.91-0.31-1.34-0.52
					c-0.18-0.09-0.36-0.18-0.54-0.29c-0.08-0.05-0.15-0.09-0.22-0.15c-0.05-0.03-0.25-0.19-0.16-0.12c0.09,0.07-0.08-0.07-0.12-0.11
					c-0.06-0.06-0.11-0.11-0.16-0.17c-0.15-0.18-0.28-0.38-0.4-0.59c-0.04-0.06-0.07-0.13-0.11-0.19c-0.07-0.12,0.03,0.06-0.03-0.06
					c-0.07-0.14-0.13-0.28-0.2-0.43c-0.13-0.3-0.24-0.61-0.34-0.93c-0.51-1.58-0.75-3.18-0.93-4.8c-0.5-4.64-0.4-9.33-0.2-13.99
					c0.23-5.52,0.69-11.04,1.25-16.54c0.26-2.56,0.54-5.11,0.84-7.66c0.04-0.38-0.07-0.86-0.62-0.75
					C56.78,81.87,56.31,82.47,56.26,82.91L56.26,82.91z"/>
			</g>
		</g>
		<g>
			<path class="st11" d="M59.5,82.93c-0.78,30.74-0.4,38.35,3.01,42.92c4.66,6.25,46.06,1.66,48.6-0.9
				c2.72-2.73,0.46-41.89-1.41-43.83c-2.08-2.16-35.74,1.19-50.2,1.25"/>
			<g>
				<path d="M58.56,83.4c-0.14,5.7-0.28,11.39-0.32,17.09c-0.03,3.9-0.04,7.8,0.13,11.69c0.11,2.59,0.29,5.18,0.72,7.74
					c0.27,1.61,0.66,3.22,1.38,4.73c0.66,1.4,1.46,2.68,3.01,3.43c2.39,1.16,5.32,1.48,7.99,1.71c3.75,0.32,7.53,0.31,11.29,0.19
					c4.07-0.13,8.13-0.43,12.17-0.85c3.4-0.35,6.8-0.79,10.16-1.41c1.18-0.22,2.37-0.46,3.53-0.78c0.77-0.21,1.58-0.44,2.26-0.83
					c1.62-0.92,1.84-2.89,2.03-4.45c0.33-2.68,0.4-5.38,0.42-8.07c0.03-3.43-0.06-6.86-0.2-10.29c-0.14-3.48-0.34-6.96-0.62-10.44
					c-0.22-2.77-0.47-5.55-0.88-8.31c-0.14-0.95-0.29-1.9-0.51-2.84c-0.12-0.47-0.24-1.07-0.58-1.46c-0.44-0.51-1.37-0.62-2.03-0.71
					c-1.21-0.16-2.45-0.19-3.67-0.21c-3.86-0.05-7.72,0.13-11.57,0.32c-4.78,0.24-9.55,0.53-14.32,0.81
					c-4.54,0.27-9.08,0.53-13.63,0.7c-1.78,0.07-3.56,0.12-5.34,0.12c-0.61,0-1.08,0.52-1.28,1c-0.13,0.31-0.24,1.14,0.38,1.13
					c3.96-0.02,7.91-0.22,11.86-0.42c4.73-0.25,9.47-0.55,14.2-0.82c4.41-0.26,8.83-0.51,13.24-0.65c2.97-0.09,6.03-0.24,8.99,0.1
					c0.4,0.05,0.79,0.11,1.18,0.21c-0.14-0.03-0.09-0.03,0.05,0.02c0.06,0.02,0.12,0.05,0.18,0.07c0.05,0.02,0.1,0.06,0.15,0.08
					c0.16,0.07-0.03-0.03-0.03-0.03c0.01,0.04,0.09,0.15,0.12,0.17c-0.06-0.05-0.09-0.21-0.03-0.05c0.02,0.05,0.04,0.11,0.07,0.16
					c0.1,0.26,0.17,0.54,0.24,0.81c0.09,0.38,0.17,0.77,0.24,1.16c0.04,0.23,0.08,0.46,0.12,0.7c0.02,0.12,0.04,0.23,0.06,0.35
					c-0.04-0.24,0.02,0.16,0.04,0.26c0.18,1.23,0.32,2.45,0.45,3.68c0.33,3.16,0.57,6.33,0.76,9.51c0.21,3.5,0.36,7,0.43,10.5
					c0.06,3.11,0.08,6.21-0.06,9.32c-0.03,0.63-0.06,1.27-0.11,1.9c-0.02,0.29-0.04,0.57-0.07,0.86c-0.01,0.06-0.01,0.13-0.02,0.19
					c-0.02,0.19,0.02-0.19,0-0.01c-0.02,0.13-0.03,0.26-0.04,0.39c-0.05,0.46-0.12,0.91-0.2,1.36c-0.03,0.19-0.07,0.38-0.12,0.57
					c-0.02,0.08-0.04,0.16-0.06,0.23c-0.02,0.06-0.11,0.37-0.03,0.13c0.07-0.23,0,0.01-0.03,0.07c-0.03,0.07-0.05,0.13-0.08,0.2
					c-0.13,0.33,0.2-0.27-0.02,0.03c-0.08,0.11,0.26-0.31,0.11-0.14c-0.13,0.14,0.28-0.25,0.11-0.1c-0.04,0.04-0.23,0.15-0.02,0.02
					c0.21-0.13,0.01-0.01-0.05,0.02c-0.13,0.06-0.26,0.13-0.4,0.18c-0.08,0.03-0.16,0.06-0.24,0.09c0.18-0.07,0.11-0.04-0.07,0.02
					c-0.43,0.15-0.87,0.27-1.31,0.38c-2.72,0.7-5.54,1.12-8.33,1.5c-3.73,0.51-7.48,0.88-11.25,1.13
					c-3.91,0.26-7.83,0.41-11.75,0.33c-3.23-0.06-6.52-0.22-9.67-0.9c-0.31-0.07-0.62-0.14-0.93-0.22
					c-0.03-0.01-0.22-0.06-0.14-0.04c0.07,0.02-0.12-0.03-0.16-0.05c-0.14-0.04-0.28-0.08-0.41-0.13c-0.49-0.16-0.98-0.35-1.44-0.59
					c-0.2-0.1-0.39-0.22-0.58-0.34c-0.08-0.05-0.16-0.11-0.23-0.17c-0.13-0.09,0.05,0.04,0.01,0.01c-0.04-0.03-0.08-0.07-0.12-0.1
					c-0.25-0.24-0.45-0.5-0.64-0.78c-0.18-0.26-0.35-0.53-0.5-0.81c-0.04-0.07-0.07-0.13-0.11-0.2c-0.12-0.21,0.06,0.13-0.04-0.09
					c-0.07-0.15-0.15-0.31-0.22-0.46c-0.31-0.68-0.55-1.38-0.75-2.09c-0.24-0.87-0.42-1.76-0.57-2.65c-0.01-0.07-0.02-0.14-0.03-0.2
					c-0.01-0.05,0.02,0.17,0-0.01c-0.02-0.13-0.04-0.26-0.06-0.39c-0.04-0.27-0.07-0.55-0.11-0.82c-0.07-0.6-0.13-1.2-0.18-1.8
					c-0.27-3.17-0.34-6.35-0.37-9.52c-0.04-4.73,0.03-9.46,0.13-14.2c0.06-2.96,0.13-5.93,0.2-8.89c0.01-0.5-0.49-0.72-0.96-0.49
					C58.93,82.24,58.58,82.85,58.56,83.4L58.56,83.4z"/>
			</g>
		</g>
		<g>
			<path class="st0" d="M63.79,65.69c-4.91-1.08-10.12-1.38-15.04-0.34c-4.92,1.03-9.52,3.47-12.3,7.09
				c-2.78,3.61-3.53,8.43-1.43,12.36c2.1,3.93,7.2,6.68,12.23,6.16"/>
			<g>
				<path d="M64.13,64.89c-8.39-1.82-17.92-1.29-24.75,3.88c-3.09,2.34-5.33,5.54-6.03,9.12c-0.67,3.43,0.13,7.09,2.69,9.79
					c2.71,2.86,6.87,4.47,11.06,4.06c0.73-0.07,1.34-1.67,0.33-1.57c-3.38,0.33-6.88-0.9-9.31-2.99c-2.6-2.24-3.84-5.38-3.54-8.58
					c0.62-6.7,7.34-11.13,14.22-12.52c4.83-0.98,9.89-0.64,14.67,0.4C64.18,66.65,65,65.08,64.13,64.89L64.13,64.89z"/>
			</g>
		</g>
		<g>
			<g>
				<path d="M48.39,69.24c-5.09,2.15-8.19,7.76-6.51,12.63c0.29,0.85,1.57-0.41,1.36-1.04c-1.39-4.02,0.97-8.37,5.18-10.15
					c0.4-0.17,0.71-0.68,0.69-1.07S48.77,69.08,48.39,69.24L48.39,69.24z"/>
			</g>
		</g>
		<g>
			<g>
				<path d="M43.38,85.21c0.76,0,1.51-1.6,0.67-1.6C43.3,83.61,42.55,85.21,43.38,85.21L43.38,85.21z"/>
			</g>
		</g>
		<g>
			<g>
				<path d="M33.12,80.46c-5.85,5-10.97,10.66-15.15,16.85c-2.08,3.07-3.92,6.26-5.52,9.55c-1.66,3.42-3.25,7.02-4.03,10.7
					c-0.76,3.56-0.47,7.3,1.94,10.33c2.05,2.58,5.32,4.34,8.88,4.54c3.62,0.2,7.28-1.08,9.58-3.61c1.26-1.38,2.1-3.02,2.77-4.69
					c0.76-1.87,1.41-3.77,2.11-5.66c2.98-8.08,5.96-16.15,8.94-24.23c0.37-1.01,0.74-2.02,1.12-3.03c0.11-0.29,0.17-0.78-0.28-0.85
					c-0.42-0.06-0.85,0.45-0.96,0.75c-2.86,7.74-5.71,15.48-8.57,23.22c-0.71,1.93-1.42,3.86-2.13,5.78
					c-0.63,1.7-1.2,3.43-1.98,5.09c-0.67,1.42-1.56,2.78-2.92,3.77c-1.27,0.93-2.84,1.49-4.45,1.74c-3.39,0.54-6.91-0.45-9.4-2.58
					c-2.73-2.33-3.86-5.52-3.6-8.84c0.28-3.57,1.83-7.09,3.31-10.39c1.41-3.13,3.05-6.17,4.92-9.11
					c3.77-5.94,8.41-11.46,13.78-16.33c0.67-0.6,1.34-1.2,2.03-1.79c0.31-0.26,0.64-0.73,0.49-1.13
					C33.85,80.17,33.39,80.22,33.12,80.46L33.12,80.46z"/>
			</g>
		</g>
		<g>
			<g>
				<path d="M27,87.05c2.71,4.46,8,7.85,13.46,9.09c0.72,0.16,1.55-1.4,0.67-1.6c-5.26-1.2-10.32-4.53-12.92-8.81
					c-0.22-0.36-0.79,0.01-0.97,0.21C26.98,86.23,26.78,86.69,27,87.05L27,87.05z"/>
			</g>
		</g>
		<g>
			<g>
				<path d="M20.53,95.82c4.8,3.89,11.26,6.34,17.69,6.97c0.75,0.07,1.54-1.51,0.67-1.6c-6.34-0.63-12.65-3.06-17.39-6.89
					C20.96,93.86,19.92,95.32,20.53,95.82L20.53,95.82z"/>
			</g>
		</g>
		<g>
			<g>
				<path d="M13.56,106.24c4.16,3.79,9.91,6.4,15.82,7.06c1.66,0.18,3.32,0.19,4.98,0.01c0.73-0.08,1.34-1.68,0.33-1.57
					c-5.68,0.61-11.59-1.24-16.24-4.08c-1.32-0.81-2.56-1.71-3.68-2.73C14.15,104.35,13.04,105.77,13.56,106.24L13.56,106.24z"/>
			</g>
		</g>
		<g>
			<g>
				<path d="M9.74,116.41c2.42,1.46,5.14,2.51,7.88,3.38c3,0.95,6.11,1.68,9.26,2.09c1.57,0.21,3.17,0.33,4.76,0.31
					c0.46-0.01,0.81-0.39,0.96-0.75c0.1-0.23,0.18-0.86-0.28-0.85c-2.88,0.05-5.77-0.37-8.57-0.97c-3.07-0.65-6.09-1.54-8.95-2.72
					c-1.41-0.58-2.78-1.23-4.07-2C10.07,114.51,9.06,116,9.74,116.41L9.74,116.41z"/>
			</g>
		</g>
		<g>
			<path class="st12" d="M111.48,66.49c2.8,0.07,7.36,0.25,10.06,0.89s5.29,1.9,6.83,3.9c1.61,2.11,1.87,4.81,1.31,7.28
				c-1.01,4.43-4.62,8.38-9.41,10.28"/>
			<g>
				<path d="M111.15,67.29c2.61,0.06,5.24,0.17,7.82,0.5c2.61,0.34,5.18,1.08,7.23,2.61c4.38,3.26,3.52,9.15,0.55,12.95
					c-1.63,2.09-3.9,3.72-6.5,4.77c-0.69,0.28-1.03,1.87,0.03,1.44c5.2-2.1,9.26-6.57,10.18-11.63c0.49-2.68,0.08-5.62-1.88-7.79
					c-1.81-2-4.59-3.17-7.37-3.7c-3.07-0.59-6.27-0.67-9.4-0.75C111.06,65.67,110.3,67.27,111.15,67.29L111.15,67.29z"/>
			</g>
		</g>
		<g>
			<g>
				<path d="M120.9,74.33c1.13,1.3,1.82,2.84,1.92,4.48c0.02,0.37,0.34,0.54,0.72,0.37c0.39-0.18,0.72-0.68,0.69-1.07
					c-0.12-1.86-0.84-3.63-2.12-5.1C121.58,72.39,120.43,73.79,120.9,74.33L120.9,74.33z"/>
			</g>
		</g>
		<g>
			<g>
				<path d="M122.92,87.64c3.07,8.29,6.14,16.59,9.21,24.88c0.74,2,1.46,4,2.22,5.99c0.56,1.47,1.18,2.93,1.98,4.31
					c1.56,2.69,4.05,5.08,7.55,5.57c3.59,0.5,7.28-1.04,9.64-3.41c2.69-2.7,3.6-6.53,3.22-10.05c-0.38-3.44-2.06-6.57-3.81-9.61
					c-1.81-3.14-3.67-6.26-5.56-9.37c-4-6.6-8.39-13.11-14.23-18.56c-0.73-0.68-1.49-1.35-2.26-2c-0.66-0.55-1.75,0.87-1.21,1.32
					c5.95,4.98,10.51,11.06,14.5,17.36c1.95,3.08,3.76,6.22,5.63,9.34c1.74,2.91,3.61,5.83,4.76,8.98c1.12,3.06,1.29,6.66-0.26,9.63
					c-1.42,2.72-4.53,4.65-7.9,4.84c-7.98,0.45-10.24-8.18-12.17-13.39c-2.96-7.99-5.91-15.98-8.87-23.96
					c-0.36-0.98-0.72-1.95-1.08-2.93C123.97,85.75,122.69,87.02,122.92,87.64L122.92,87.64z"/>
			</g>
		</g>
		<g>
			<g>
				<path d="M124.83,91.68c2.56-0.24,5.04-1.24,7.22-2.42c2.2-1.18,4.34-2.66,5.87-4.53c0.23-0.28,0.53-0.79,0.25-1.11
					c-0.27-0.31-0.77-0.03-0.97,0.21c-1.38,1.69-3.32,3.01-5.32,4.07c-2.05,1.09-4.32,1.99-6.72,2.21
					C124.44,90.17,123.82,91.77,124.83,91.68L124.83,91.68z"/>
			</g>
		</g>
		<g>
			<g>
				<path d="M128.73,100.62c2.74-0.89,5.31-2.17,7.75-3.57c2.45-1.41,4.82-2.98,6.85-4.86c0.26-0.24,0.51-0.81,0.25-1.11
					c-0.29-0.34-0.74,0-0.97,0.21c-1.85,1.71-4.07,3.13-6.3,4.41c-2.28,1.31-4.69,2.53-7.25,3.36c-0.44,0.14-0.77,0.53-0.85,0.94
					C128.15,100.26,128.28,100.76,128.73,100.62L128.73,100.62z"/>
			</g>
		</g>
		<g>
			<g>
				<path d="M132.29,109.72c3.02-0.77,5.94-1.89,8.67-3.26c2.7-1.36,5.29-2.99,7.46-4.97c0.3-0.27,0.64-0.72,0.49-1.13
					c-0.14-0.36-0.6-0.33-0.87-0.09c-4.14,3.78-9.76,6.44-15.42,7.88c-0.45,0.11-0.77,0.55-0.85,0.94
					C131.71,109.39,131.84,109.84,132.29,109.72L132.29,109.72z"/>
			</g>
		</g>
		<g>
			<g>
				<path d="M135.49,118.9c6.45-1.68,12.48-4.55,17.59-8.45c0.32-0.24,0.63-0.74,0.49-1.13c-0.15-0.39-0.59-0.3-0.87-0.09
					c-4.9,3.74-10.69,6.48-16.88,8.09c-0.45,0.12-0.77,0.55-0.85,0.94C134.91,118.57,135.04,119.01,135.49,118.9L135.49,118.9z"/>
			</g>
		</g>
		<g>
			<g>
				<path d="M51.83,138.79c-0.15,3.64-0.3,7.29-0.45,10.93c-0.02,0.38,0.37,0.53,0.72,0.37c0.42-0.19,0.68-0.66,0.69-1.07
					c0.15-3.64,0.3-7.29,0.45-10.93c0.02-0.38-0.37-0.53-0.72-0.37C52.1,137.91,51.85,138.38,51.83,138.79L51.83,138.79z"/>
			</g>
		</g>
		<g>
			<g>
				<path d="M62.53,138.11c-0.08,4,0,7.99-0.08,11.99c-0.01,0.38,0.36,0.53,0.72,0.37c0.41-0.19,0.68-0.67,0.69-1.07
					c0.08-4,0-7.99,0.08-11.99c0.01-0.38-0.36-0.53-0.72-0.37C62.81,137.23,62.54,137.71,62.53,138.11L62.53,138.11z"/>
			</g>
		</g>
		<g>
			<g>
				<path d="M51.98,142.69c0.76,0,1.51-1.6,0.67-1.6C51.89,141.09,51.15,142.69,51.98,142.69L51.98,142.69z"/>
			</g>
		</g>
		<g>
			<g>
				<path d="M52.5,142.49c3.28,0.77,6.96,0.64,10.22-0.13c0.45-0.11,0.77-0.55,0.85-0.94c0.06-0.31-0.07-0.74-0.52-0.63
					c-3.17,0.75-6.7,0.85-9.88,0.1C52.46,140.73,51.62,142.29,52.5,142.49L52.5,142.49z"/>
			</g>
		</g>
		<g>
			<g>
				<path d="M52.2,146.52c3.36,0.76,7.13,0.8,10.52,0.18c0.72-0.13,1.31-1.75,0.33-1.57c-3.29,0.6-6.93,0.53-10.18-0.21
					C52.16,144.76,51.33,146.32,52.2,146.52L52.2,146.52z"/>
			</g>
		</g>
		<g>
			<g>
				<path d="M95.23,136.6c0,3.99-0.02,7.99,0.64,11.94c0.07,0.41,0.64,0.27,0.87,0.09c0.37-0.28,0.56-0.71,0.49-1.13
					c-0.64-3.83-0.59-7.73-0.59-11.6c0-0.38-0.36-0.54-0.72-0.37C95.51,135.72,95.23,136.2,95.23,136.6L95.23,136.6z"/>
			</g>
		</g>
		<g>
			<g>
				<path d="M108.5,136.15c0.41,4.06,0,8.16-0.01,12.22c0,0.38,0.36,0.53,0.72,0.37c0.41-0.19,0.69-0.67,0.69-1.07
					c0.01-4.07,0.42-8.16,0.01-12.22c-0.04-0.37-0.33-0.55-0.72-0.37C108.81,135.25,108.46,135.76,108.5,136.15L108.5,136.15z"/>
			</g>
		</g>
		<g>
			<g>
				<path d="M95.84,140.74c2.15,0.45,4.41,0.53,6.61,0.49c2.22-0.04,4.49-0.19,6.66-0.66c0.45-0.1,0.77-0.56,0.85-0.94
					c0.06-0.31-0.07-0.73-0.52-0.63c-2.11,0.46-4.32,0.6-6.49,0.63c-2.15,0.03-4.35-0.05-6.44-0.49
					C95.79,138.99,94.97,140.55,95.84,140.74L95.84,140.74z"/>
			</g>
		</g>
		<g>
			<g>
				<path d="M96.3,145.73c4.07,0.09,8.12-0.76,12.19-0.67c0.76,0.02,1.52-1.58,0.67-1.6c-4.07-0.09-8.12,0.76-12.19,0.67
					C96.21,144.11,95.46,145.71,96.3,145.73L96.3,145.73z"/>
			</g>
		</g>
		<g>
			<path class="st13" d="M38.18,167.63c-1.36-11.32,9.73-19.27,21.71-18.27c9.02,0.75,12.07,12.17,11.33,18.04"/>
			<g>
				<path d="M38.89,167.28c-0.42-3.6,0.43-7.25,2.79-10.24c2.26-2.86,5.63-4.95,9.35-6.03c1.99-0.58,4.08-0.9,6.17-0.93
					c1.85-0.02,3.72,0.1,5.41,0.83c3.13,1.35,5.14,4.13,6.34,6.95c1.29,3.02,1.98,6.56,1.6,9.69c-0.04,0.33,0.06,0.7,0.52,0.63
					c0.42-0.07,0.81-0.59,0.85-0.94c0.39-3.13-0.11-6.39-1.19-9.37c-1.12-3.1-3.04-6.26-6.23-8.03c-1.66-0.92-3.51-1.28-5.44-1.35
					c-2.22-0.08-4.46,0.14-6.61,0.65c-4.17,1-8,3.13-10.74,6.11c-3.26,3.56-4.75,8.15-4.22,12.72
					C37.59,169.02,38.96,167.96,38.89,167.28L38.89,167.28z"/>
			</g>
		</g>
		<g>
			<g>
				<path d="M37.84,168.43c8.56-0.59,17.16-0.77,25.75-0.53c2.43,0.07,4.86,0.17,7.29,0.3c0.76,0.04,1.53-1.55,0.67-1.6
					c-8.57-0.47-17.17-0.53-25.75-0.17c-2.43,0.1-4.86,0.24-7.29,0.4c-0.46,0.03-0.8,0.37-0.96,0.75
					C37.47,167.79,37.38,168.46,37.84,168.43L37.84,168.43z"/>
			</g>
		</g>
		<g>
			<g>
				<path d="M37.82,165.54c8.45,0.07,16.89-0.13,25.34-0.18c2.42-0.01,4.84-0.01,7.26,0.01c0.76,0.01,1.51-1.59,0.67-1.6
					c-8.45-0.07-16.89,0.13-25.34,0.18c-2.42,0.01-4.84,0.01-7.26-0.01C37.73,163.94,36.98,165.54,37.82,165.54L37.82,165.54z"/>
			</g>
		</g>
		<g>
			<g>
				<path d="M52.88,153.62c2.47-0.19,4.95-0.38,7.42-0.58c0.46-0.04,0.8-0.37,0.96-0.75c0.09-0.21,0.18-0.89-0.28-0.85
					c-2.47,0.19-4.95,0.38-7.42,0.58c-0.46,0.04-0.8,0.37-0.96,0.75C52.51,152.97,52.42,153.65,52.88,153.62L52.88,153.62z"/>
			</g>
		</g>
		<g>
			<g>
				<path d="M53.11,156.11c2.25-0.06,4.5-0.13,6.74-0.19c0.46-0.01,0.81-0.39,0.96-0.75c0.09-0.22,0.18-0.86-0.28-0.85
					c-2.25,0.06-4.5,0.13-6.74,0.19c-0.46,0.01-0.81,0.39-0.96,0.75C52.73,155.48,52.64,156.12,53.11,156.11L53.11,156.11z"/>
			</g>
		</g>
		<g>
			<path class="st8" d="M84.25,166.23c1.75-5.17,2.99-10.73,7.53-14.47c4.55-3.74,11.82-5.53,17.35-2.92
				c3.37,1.59,5.62,4.55,6.78,7.69c1.16,3.13,1.36,6.46,1.51,9.74"/>
			<g>
				<path d="M84.87,166.28c1.06-3.15,1.9-6.41,3.49-9.39c1.56-2.9,3.94-5.23,7.14-6.74c3.07-1.46,6.7-2.14,10.14-1.51
					c3.6,0.66,6.44,2.86,8.23,5.66c2.38,3.73,2.65,8.13,2.84,12.31c0.02,0.38,0.35,0.54,0.72,0.37c0.4-0.18,0.71-0.67,0.69-1.07
					c-0.18-4.03-0.47-8.18-2.43-11.88c-1.62-3.06-4.39-5.65-8.07-6.68c-3.62-1.02-7.55-0.5-10.97,0.85
					c-3.58,1.41-6.54,3.81-8.51,6.83c-2.25,3.45-3.24,7.37-4.52,11.16c-0.1,0.29-0.18,0.78,0.28,0.85
					C84.33,167.09,84.77,166.58,84.87,166.28L84.87,166.28z"/>
			</g>
		</g>
		<g>
			<g>
				<path d="M83.91,167.03c8.61,0.12,17.23,0.3,25.84,0.44c2.44,0.04,4.89,0.08,7.33,0.11c0.76,0.01,1.52-1.59,0.67-1.6
					c-8.61-0.12-17.23-0.3-25.84-0.44c-2.44-0.04-4.89-0.08-7.33-0.11C83.82,165.42,83.07,167.02,83.91,167.03L83.91,167.03z"/>
			</g>
		</g>
		<g>
			<g>
				<path d="M85.09,163.91c7.96-1.62,16.16-2.08,24.29-1.37c2.33,0.2,4.64,0.5,6.94,0.87c0.74,0.12,1.55-1.45,0.67-1.6
					c-8.11-1.32-16.4-1.57-24.58-0.6c-2.35,0.28-4.68,0.66-6.99,1.13c-0.45,0.09-0.78,0.56-0.85,0.94
					C84.51,163.6,84.64,164,85.09,163.91L85.09,163.91z"/>
			</g>
		</g>
		<g>
			<g>
				<path d="M99.42,152.66c1.8,0,3.6,0,5.4,0c0.76,0,1.51-1.6,0.67-1.6c-1.8,0-3.6,0-5.4,0C99.33,151.06,98.58,152.66,99.42,152.66
					L99.42,152.66z"/>
			</g>
		</g>
		<g>
			<g>
				<path d="M98.97,155.92c2.4-0.13,4.8-0.26,7.19-0.38c0.46-0.02,0.8-0.38,0.96-0.75c0.09-0.22,0.18-0.87-0.28-0.85
					c-2.4,0.13-4.8,0.26-7.19,0.38c-0.46,0.02-0.8,0.38-0.96,0.75C98.6,155.28,98.5,155.94,98.97,155.92L98.97,155.92z"/>
			</g>
		</g>
	</g>
	<g id="Ebene_9_5_">
		<g>
			<path d="M85.26,163.12c-0.19,1-0.78,1.96-0.96,2.96c10.82-0.2,21.36-0.13,32.18-0.33c0.89-0.74,0.4-2.18-0.63-2.77
				c-1.02-0.59-2.32-0.57-3.54-0.53c-9.17,0.28-17.4,0.29-26.56,0.57"/>
			<g>
				<path d="M84.69,163.25c-0.21,1.01-0.75,1.94-0.96,2.96c-0.04,0.18,0,0.54,0.29,0.54c9.39-0.17,18.79-0.15,28.19-0.27
					c1.19-0.02,2.37-0.03,3.56-0.05c0.55-0.01,0.84-0.07,1.19-0.47c0.27-0.31,0.46-0.69,0.53-1.08c0.29-1.55-1.02-2.71-2.62-2.99
					c-0.99-0.18-2.02-0.1-3.02-0.07c-1.17,0.03-2.34,0.06-3.51,0.09c-2.28,0.05-4.57,0.1-6.86,0.14c-5.15,0.09-10.3,0.17-15.44,0.32
					c-0.38,0.01-0.67,0.32-0.8,0.62c-0.08,0.19-0.15,0.72,0.24,0.71c4.53-0.14,9.06-0.22,13.59-0.29c4.5-0.08,9-0.23,13.5-0.29
					c1.01-0.01,2.15,0.01,3,0.58c0.47,0.31,1.14,1.22,0.62,1.69c0.19-0.1,0.39-0.19,0.58-0.29c-8.36,0.15-16.71,0.15-25.07,0.23
					c-2.37,0.02-4.74,0.06-7.11,0.1c0.1,0.18,0.19,0.36,0.29,0.54c0.21-1.01,0.75-1.94,0.96-2.96c0.06-0.28-0.07-0.58-0.43-0.52
					C85.03,162.53,84.75,162.96,84.69,163.25L84.69,163.25z"/>
			</g>
		</g>
		<g>
			<path d="M38.62,165.06c-0.5,0.64,0.02,1.58,0.8,1.92c0.78,0.34,1.7,0.26,2.56,0.17c9.6-0.93,19.32-0.95,28.93-0.07
				c0.68-0.35,0.53-1.35-0.09-1.78c-0.62-0.43-1.47-0.45-2.26-0.46c-9.56-0.05-19.11-0.11-28.67-0.16"/>
			<g>
				<path d="M38.2,164.84c-0.46,0.67-0.48,1.51,0.04,2.16c0.56,0.7,1.52,0.9,2.43,0.89c1.17-0.02,2.36-0.2,3.52-0.29
					c1.24-0.1,2.47-0.18,3.71-0.25c4.93-0.28,9.87-0.31,14.8-0.12c2.43,0.1,4.86,0.25,7.28,0.46c0.56,0.05,0.93,0.09,1.34-0.3
					c0.32-0.3,0.52-0.68,0.59-1.08c0.12-0.69-0.22-1.4-0.9-1.76c-0.89-0.47-2.05-0.37-3.04-0.37c-1.22-0.01-2.44-0.01-3.66-0.02
					c-2.48-0.01-4.96-0.03-7.44-0.04c-5.57-0.03-11.14-0.06-16.7-0.09c-0.63,0-1.26,1.33-0.56,1.33c8.87,0.05,17.75,0.1,26.62,0.15
					c1.01,0.01,2.07-0.06,3.07,0.06c0.38,0.05,0.81,0.14,1.11,0.38c0.12,0.09,0.22,0.22,0.28,0.34c0.03,0.06,0.04,0.31,0.08,0.35
					c-0.01-0.01,0.23-0.16,0.2-0.22c0-0.01-0.46-0.04-0.43-0.04c-0.25-0.02-0.5-0.04-0.75-0.06c-0.57-0.05-1.14-0.09-1.71-0.13
					c-1.11-0.08-2.21-0.15-3.32-0.2c-4.39-0.22-8.8-0.25-13.2-0.09c-2.44,0.09-4.88,0.23-7.32,0.43c-1.14,0.09-2.34,0.32-3.49,0.24
					c-0.51-0.03-1.03-0.15-1.39-0.5c-0.16-0.16-0.48-0.56-0.33-0.77c0.15-0.22,0.3-0.68-0.02-0.85
					C38.71,164.26,38.34,164.63,38.2,164.84L38.2,164.84z"/>
			</g>
		</g>
	</g>
	<g id="Ebene_10_4_">
		<g>
			<g>
				<path d="M100.19,31.62c0.12,0.07,0.07,0.08,0.14,0.17c-0.05-0.07,0,0.07,0-0.04c0,0.05-0.07,0.17,0,0.04
					c0.05-0.09,0.06-0.1,0.01-0.03c0.02-0.02,0.04-0.05,0.06-0.07c-0.12,0.1,0.07-0.1,0.05-0.03c0,0.01-0.02,0-0.01,0
					c-0.01,0-0.16-0.03-0.1-0.01c-0.11-0.04-0.14-0.06-0.18-0.14c0.04,0.07-0.03-0.07-0.03-0.09c-0.01-0.04-0.01-0.03,0,0.02
					c0-0.03,0-0.07,0-0.1c-0.01,0.11-0.01,0,0.01-0.04c-0.01,0.01-0.13,0.22-0.04,0.11c-0.05,0.07-0.14,0.11-0.19,0.18
					c0.06-0.03,0.06-0.03,0,0c0.04-0.01,0.07-0.01,0.11-0.02c0.6-0.06,1.12-1.39,0.28-1.31c-0.73,0.08-1.22,0.81-1.32,1.4
					c-0.09,0.52,0.08,1.17,0.73,1.31c1.33,0.3,2.51-1.93,1.3-2.6C100.44,30.05,99.61,31.3,100.19,31.62L100.19,31.62z"/>
			</g>
		</g>
	</g>
	<g id="Ebene_14_1_">
		<g class="st14">
			<path d="M28.03,28.49c-2.16,2.3-4.27,4.72-5.46,7.53c-1.19,2.81-1.37,6.1,0.28,8.72c1.64,2.62,5.38,4.27,8.54,3.24
				c-3.31-2.2-5.57-5.62-6.11-9.27c-0.54-3.65,0.64-7.48,3.2-10.37"/>
			<g>
				<path d="M27.73,28.11c-2.89,3.08-5.75,6.47-6.49,10.53c-0.65,3.55,0.47,7.47,4.15,9.37c1.76,0.91,3.91,1.23,5.86,0.62
					c0.45-0.14,1.07-0.93,0.55-1.28c-4.94-3.32-7.27-9.22-5.41-14.52c0.52-1.49,1.32-2.88,2.4-4.11c0.2-0.22,0.44-0.66,0.21-0.93
					c-0.23-0.27-0.64-0.02-0.8,0.17c-4.29,4.9-4.83,11.81-0.99,17.05c1.02,1.39,2.31,2.6,3.79,3.59c0.18-0.43,0.36-0.86,0.55-1.28
					c-3.27,1.02-6.86-0.78-8.35-3.42c-1.82-3.22-0.83-7.05,1.07-10.04c1.14-1.8,2.6-3.42,4.08-5c0.2-0.22,0.43-0.66,0.21-0.93
					C28.3,27.67,27.9,27.93,27.73,28.11L27.73,28.11z"/>
			</g>
		</g>
		<g class="st14">
			<path d="M32.44,28.45c-1.53,4.19-2.28,8.6-2.2,13c0.03,1.85,0.28,3.87,1.72,5.21c2.01,1.87,5.36,1.64,8.23,1.28
				c-5.44-5.04-8.2-12.28-7.32-19.23"/>
			<g>
				<path d="M31.92,28.4c-1.41,3.89-2.19,7.95-2.27,12.05c-0.03,1.7-0.05,3.54,0.69,5.14c0.68,1.48,1.97,2.5,3.68,2.95
					c1.95,0.5,4.06,0.28,6.04,0.04c0.42-0.05,1-0.87,0.64-1.2c-4.14-3.86-6.75-8.96-7.29-14.28c-0.15-1.51-0.15-3.03,0.04-4.53
					c0.12-0.94-1.07-0.37-1.14,0.26c-0.68,5.53,0.77,11.18,4.09,15.89c0.95,1.35,2.06,2.61,3.29,3.76c0.21-0.4,0.43-0.8,0.64-1.2
					c-3.05,0.38-7.09,0.64-8.72-2.26c-0.82-1.45-0.81-3.19-0.79-4.78c0.02-1.84,0.18-3.68,0.49-5.5c0.36-2.12,0.91-4.21,1.65-6.25
					c0.09-0.24,0.14-0.65-0.24-0.71C32.37,27.73,32.01,28.15,31.92,28.4L31.92,28.4z"/>
			</g>
		</g>
		<g class="st14">
			<path d="M45.98,14.86c-6.59,8.26-6.39,20.64-5.54,31.26c0.36,4.48,1.32,9.17,4.58,12.59c5.07,5.32,13.89,5.93,21.72,6.14
				c15.05,0.4,29.57,0.34,45.16,0.13c5.54-0.07,9.78-2.82,15.42-2.9c-13.75,0.74-26.16,0.92-39.46,1.1
				c-13.3,0.18-27.77-2.2-36.6-11.07c-9.24-9.29-9.6-25.21-5.43-37.06"/>
			<g>
				<path d="M45.68,14.48c-4.89,6.17-6.11,13.95-6.24,21.33c-0.07,3.84,0.11,7.71,0.5,11.53c0.38,3.8,1.24,7.74,3.72,10.92
					c4.7,6.02,13.63,6.92,21.19,7.19c10.1,0.36,20.22,0.37,30.32,0.33c5.23-0.02,10.46-0.07,15.68-0.14
					c2.3-0.03,4.46-0.35,6.66-0.93c2.07-0.55,4.09-1.22,6.21-1.62c1.09-0.21,2.19-0.33,3.3-0.35c0.19-0.44,0.37-0.89,0.56-1.33
					c-9.51,0.51-19.03,0.77-28.55,0.94c-8.34,0.14-16.75,0.54-25-0.76c-7.32-1.15-14.58-3.58-20.15-8.1
					c-5.36-4.36-8.27-10.39-9.43-16.69c-1.18-6.46-0.65-13.21,1.18-19.53c0.21-0.73,0.45-1.46,0.7-2.18
					c0.08-0.24,0.14-0.65-0.24-0.71c-0.35-0.05-0.71,0.37-0.8,0.62c-2.22,6.32-3.1,13.08-2.4,19.68c0.67,6.39,2.89,12.91,7.69,17.82
					c5.02,5.14,12.06,8.18,19.39,9.77c3.78,0.82,7.66,1.27,11.54,1.46c4.32,0.22,8.65,0.07,12.97,0.01
					c9.63-0.14,19.27-0.35,28.89-0.81c1.21-0.06,2.43-0.12,3.64-0.19c0.38-0.02,0.67-0.31,0.8-0.62c0.08-0.19,0.15-0.71-0.24-0.71
					c-4.38,0.08-8.27,1.87-12.51,2.61c-2.37,0.41-4.81,0.31-7.21,0.34c-2.58,0.03-5.16,0.06-7.74,0.07
					c-10.03,0.07-20.07,0.04-30.1-0.19c-4.14-0.09-8.31-0.15-12.4-0.76c-3.74-0.56-7.49-1.64-10.44-3.85
					c-3.23-2.41-4.84-5.95-5.59-9.57c-0.39-1.88-0.55-3.78-0.69-5.68c-0.14-1.88-0.24-3.75-0.29-5.63
					c-0.18-7.16,0.26-14.94,4.17-21.38c0.45-0.74,0.94-1.46,1.48-2.15c0.18-0.23,0.44-0.65,0.21-0.93
					C46.26,14.05,45.84,14.28,45.68,14.48L45.68,14.48z"/>
			</g>
		</g>
		<g class="st14">
			<path d="M45.72,66.81c-4.9,2.24-7.56,7.58-6.68,12.42c0.88,4.85,3.23,9.24,8.31,11.12c-5.82,0.63-10.13-3.06-11.91-8.04
				c-1.78-4.98,1.54-12.08,6.69-14.57"/>
			<g>
				<path d="M45.71,66.21c-3.98,1.85-6.62,5.59-7.26,9.51c-0.33,1.99-0.07,3.95,0.47,5.89c0.52,1.88,1.33,3.73,2.56,5.34
					c1.36,1.78,3.24,3.19,5.47,4.03c0.18-0.43,0.36-0.86,0.55-1.28c-4.63,0.47-8.46-2.1-10.49-5.65c-1-1.75-1.55-3.61-1.44-5.58
					c0.11-1.93,0.77-3.86,1.79-5.56c1.12-1.86,2.7-3.55,4.8-4.58c0.33-0.16,0.6-0.55,0.58-0.89c-0.02-0.31-0.28-0.46-0.6-0.31
					c-4.25,2.09-6.99,6.52-7.61,10.73c-0.32,2.19-0.01,4.28,0.97,6.31c0.94,1.95,2.32,3.74,4.22,5.05c2.16,1.48,4.82,2.06,7.52,1.79
					c0.43-0.04,1.11-1.07,0.55-1.28c-3.79-1.43-6.16-4.41-7.35-7.84c-0.6-1.72-1.02-3.54-0.93-5.35c0.09-1.77,0.65-3.53,1.62-5.07
					c1.08-1.73,2.67-3.14,4.64-4.06c0.33-0.15,0.6-0.56,0.58-0.89C46.29,66.21,46.02,66.07,45.71,66.21L45.71,66.21z"/>
			</g>
		</g>
		<g class="st14">
			<path d="M32.3,82.78c-9.8,7.93-17.2,18.2-21.23,29.45c-1.31,3.66-2.27,7.65-0.96,11.32c1.64,4.6,7.06,7.88,12.46,7.54
				c-3.03-16.27,1.2-33.53,11.56-47.19"/>
			<g>
				<path d="M32.14,82.28c-6.92,5.62-12.69,12.36-16.93,19.81c-2.14,3.77-3.96,7.73-5.23,11.81c-1.28,4.1-1.82,8.74,0.84,12.52
					c2.41,3.41,6.94,5.6,11.47,5.34c0.57-0.03,0.93-0.63,0.85-1.1c-1.16-6.27-1.24-12.69-0.28-18.98
					c0.95-6.29,2.92-12.44,5.85-18.23c1.65-3.25,3.62-6.38,5.85-9.33c0.16-0.21,0.29-0.69-0.02-0.85c-0.33-0.17-0.68,0.21-0.83,0.41
					c-4.09,5.4-7.25,11.36-9.37,17.6c-2.13,6.23-3.26,12.73-3.31,19.25c-0.02,3.68,0.31,7.36,0.98,11c0.28-0.37,0.56-0.73,0.85-1.1
					c-3.9,0.22-7.77-1.39-10.21-4.1c-3.02-3.35-2.93-7.67-1.83-11.65c1.08-3.89,2.79-7.7,4.77-11.29c1.94-3.54,4.22-6.93,6.83-10.11
					c2.97-3.62,6.33-6.97,10.05-9.98c0.26-0.21,0.53-0.61,0.41-0.94C32.75,82.03,32.37,82.09,32.14,82.28L32.14,82.28z"/>
			</g>
		</g>
		<g class="st14">
			<path d="M65.51,64.8c-10.18,13.67-21.44,29.17-25.52,45.18c-1.44,5.67-2.12,11.74,0.19,17.17c2.31,5.43,8.32,9.95,14.81,9.41
				c-7.06-11.03-7.72-24.61-4.74-37.03s10.09-23.02,16.41-34.4"/>
			<g>
				<path d="M65.09,64.59c-3.65,4.91-7.28,9.83-10.68,14.89c-3.45,5.14-6.67,10.41-9.38,15.9c-2.64,5.33-4.8,10.89-6.05,16.62
					c-1.22,5.59-1.55,11.76,1.33,17.01c2.32,4.22,6.96,7.82,12.36,8.23c0.68,0.05,1.36,0.05,2.04-0.01
					c0.56-0.04,1.08-0.75,0.79-1.21c-5.3-8.32-6.92-18.09-6.15-27.54c0.4-4.83,1.4-9.65,2.99-14.28c1.62-4.73,3.79-9.29,6.19-13.74
					c2.74-5.08,5.75-10.05,8.56-15.1c0.13-0.23,0.31-0.68-0.02-0.85c-0.31-0.16-0.71,0.19-0.83,0.41
					c-5.07,9.11-10.83,18.01-14.41,27.71c-3.44,9.31-4.79,19.41-3.16,29.14c0.9,5.38,2.8,10.61,5.82,15.34
					c0.26-0.4,0.52-0.81,0.79-1.21c-5.42,0.42-10.32-2.63-13.09-6.61c-3.33-4.78-3.34-10.78-2.34-16.17
					c2.1-11.32,7.95-21.89,14.41-31.69c3.68-5.59,7.67-11.01,11.69-16.41c0.16-0.21,0.29-0.69-0.02-0.85
					C65.59,64,65.24,64.38,65.09,64.59L65.09,64.59z"/>
			</g>
		</g>
		<g class="st14">
			<path d="M60.43,84.86c0.5,4.86-0.26,9.74-0.92,14.58s-1.25,9.76-0.41,14.58c0.83,4.82,3.25,9.6,7.59,12.57s11.67,4.56,16.18,1.8
				c-4.22,0.1-9.05-3.01-11.63-5.99c-2.58-2.97-4-6.61-5.16-10.23c-2.97-9.21-4.63-18.76-4.91-28.35"/>
			<g>
				<path d="M59.84,85.15c0.9,9.09-2.48,18.02-1.61,27.11c0.36,3.77,1.48,7.52,3.76,10.73c2.11,2.98,5.19,5.23,8.9,6.45
					c3.8,1.26,8.46,1.64,11.98-0.46c0.28-0.17,0.5-0.43,0.56-0.73c0.03-0.18,0-0.54-0.29-0.54c-3.3,0.05-6.41-1.61-8.83-3.47
					c-2.7-2.07-4.56-4.78-5.88-7.71c-1.44-3.21-2.42-6.6-3.31-9.96c-0.95-3.56-1.7-7.15-2.26-10.78c-0.62-4.07-0.99-8.17-1.11-12.28
					c-0.01-0.32-0.29-0.44-0.6-0.31c-0.33,0.15-0.59,0.56-0.58,0.89c0.23,7.45,1.27,14.89,3.11,22.16c0.88,3.49,1.88,7,3.28,10.35
					c1.26,3.02,2.98,5.89,5.61,8.14c2.64,2.25,6.22,4.34,10.01,4.29c0.09-0.42,0.18-0.84,0.27-1.26c-3.03,1.82-7.04,1.59-10.38,0.64
					c-3.63-1.04-6.75-3.04-8.94-5.83c-5.32-6.77-4.53-15.42-3.46-23.19c0.68-4.92,1.44-9.87,0.95-14.83
					C60.93,83.71,59.79,84.59,59.84,85.15L59.84,85.15z"/>
			</g>
		</g>
		<g class="st14">
			<path d="M53.38,139.03c1.36,4.25,4.94,7.88,9.48,9.63c-3.48-0.05-6.97-0.11-10.46-0.16c0.17-3.18,0.35-6.36,0.52-9.54"/>
			<g>
				<path d="M52.82,139.46c1.41,4.34,5,8.01,9.64,9.83c0.23-0.43,0.46-0.86,0.69-1.29c-3.48-0.05-6.97-0.11-10.46-0.16
					c0.1,0.12,0.2,0.25,0.31,0.37c0.17-3.18,0.35-6.36,0.52-9.54c0.02-0.32-0.31-0.44-0.6-0.31c-0.35,0.16-0.56,0.55-0.58,0.89
					c-0.17,3.18-0.35,6.36-0.52,9.54c-0.01,0.16,0.1,0.37,0.31,0.37c3.48,0.05,6.97,0.11,10.46,0.16c0.49,0.01,1.31-1.05,0.69-1.29
					c-4.48-1.75-7.96-5.24-9.33-9.43C53.72,137.89,52.65,138.94,52.82,139.46L52.82,139.46z"/>
			</g>
		</g>
		<g class="st14">
			<path d="M96.5,137.14c0.03,2.79,0.05,5.57,0.08,8.36c0.01,0.56,0.02,1.17,0.39,1.63c0.8,1.02,2.54,0.68,3.9,0.4
				c2.79-0.58,5.77-0.42,8.47,0.46c-5.17-2.87-9.49-6.95-12.42-11.71"/>
			<g>
				<path d="M95.91,137.43c0.02,1.61,0.03,3.23,0.05,4.84c0.01,0.79,0.02,1.58,0.02,2.37c0.01,0.73-0.05,1.49,0.11,2.21
					c0.28,1.23,1.48,1.69,2.78,1.61c1.49-0.1,2.91-0.54,4.42-0.6c1.91-0.07,3.83,0.18,5.63,0.75c0.61,0.19,1.4-0.93,0.81-1.26
					c-5.14-2.88-9.39-6.89-12.32-11.63c-0.33-0.54-1.32,0.6-1.01,1.1c2.97,4.8,7.31,8.88,12.51,11.79c0.27-0.42,0.54-0.84,0.81-1.26
					c-1.89-0.6-3.88-0.9-5.89-0.82c-1.01,0.04-2.01,0.17-2.99,0.37c-0.75,0.15-1.53,0.32-2.3,0.22c-0.89-0.12-1.32-0.68-1.38-1.45
					c-0.07-0.94-0.03-1.9-0.04-2.84c-0.02-1.99-0.04-3.99-0.06-5.98c0-0.32-0.3-0.44-0.6-0.31
					C96.15,136.69,95.91,137.1,95.91,137.43L95.91,137.43z"/>
			</g>
		</g>
		<g class="st14">
			<path d="M48.81,151.26c-2.45,2.68-0.96,7.56,1.63,10.13c2.58,2.57,6.34,3.89,9.95,5.13c-6.2,0.31-12.41,0.61-18.61,0.92
				c-0.92,0.05-2.01,0.01-2.51-0.68c-0.27-0.37-1.01-0.94-0.99-1.38c0.25-5.86,4.6-11.79,10.53-14.32"/>
			<g>
				<path d="M48.51,150.89c-1.96,2.2-1.83,5.25-0.75,7.77c1.21,2.84,3.61,4.85,6.55,6.29c1.81,0.89,3.74,1.56,5.67,2.22
					c0.23-0.43,0.46-0.86,0.69-1.29c-3.32,0.16-6.64,0.33-9.95,0.49c-1.59,0.08-3.17,0.16-4.76,0.23c-1.53,0.08-3.11,0.26-4.64,0.2
					c-0.52-0.02-1.09-0.09-1.45-0.46c-0.14-0.15-0.26-0.31-0.4-0.46c-0.19-0.2-0.51-0.45-0.58-0.71c-0.12-0.42,0.06-1.03,0.13-1.45
					c0.09-0.52,0.2-1.04,0.35-1.55c0.6-2.12,1.73-4.14,3.21-5.87c1.67-1.94,3.78-3.55,6.25-4.62c0.56-0.24,0.85-1.57-0.02-1.2
					c-4.86,2.1-8.6,6.23-10.22,10.8c-0.41,1.15-0.7,2.34-0.82,3.54c-0.05,0.48-0.15,0.98,0.1,1.43c0.25,0.45,0.71,0.91,1.09,1.28
					c0.93,0.89,2.66,0.59,3.86,0.53c1.73-0.09,3.46-0.17,5.19-0.26c4.04-0.2,8.08-0.4,12.12-0.6c0.35-0.02,0.61-0.26,0.75-0.53
					c0.09-0.18,0.25-0.65-0.06-0.76c-3.02-1.04-6.13-2.11-8.63-4c-2.21-1.66-3.71-4.11-3.97-6.69c-0.12-1.24,0.03-2.56,0.92-3.57
					c0.2-0.22,0.43-0.66,0.21-0.93C49.08,150.45,48.67,150.7,48.51,150.89L48.51,150.89z"/>
			</g>
		</g>
		<g class="st14">
			<path d="M96.93,148.81c-7.52,2.92-13.33,17.42-10.15,17.27c7.05-0.33,14.12-0.19,21.17-0.28c-4.21-0.48-8.1-2.84-10.15-6.16
				c-2.05-3.32-2.2-7.51-0.4-10.94"/>
			<g>
				<path d="M96.92,148.21c-2.42,0.96-4.35,2.79-5.9,4.65c-1.72,2.07-3.11,4.35-4.19,6.74c-0.77,1.71-1.58,3.66-1.52,5.54
					c0.02,0.5,0.1,1.16,0.61,1.46c0.34,0.2,0.74,0.14,1.12,0.12c1.26-0.05,2.52-0.09,3.78-0.12c5.62-0.13,11.24-0.06,16.86-0.14
					c0.58-0.01,1.32-1.24,0.56-1.33c-3.01-0.36-5.87-1.66-7.96-3.64c-2.26-2.13-3.51-4.96-3.54-7.89c-0.01-1.68,0.39-3.33,1.18-4.86
					c0.12-0.23,0.12-0.66-0.24-0.71c-0.38-0.05-0.67,0.38-0.8,0.62c-1.51,2.93-1.74,6.38-0.61,9.44c1.05,2.86,3.3,5.27,6.21,6.78
					c1.59,0.83,3.36,1.36,5.19,1.58c0.19-0.44,0.37-0.89,0.56-1.33c-4.72,0.06-9.44,0.02-14.16,0.09c-1.19,0.02-2.38,0.04-3.56,0.07
					c-1.15,0.03-2.33,0.16-3.47,0.13c-0.06,0-0.3-0.04-0.17-0.01c-0.04-0.01-0.08-0.03-0.12-0.05c-0.11-0.07,0.04,0.06-0.05-0.04
					c-0.05-0.06-0.14-0.21-0.1-0.13c-0.05-0.1-0.08-0.22-0.1-0.33c-0.01-0.06,0,0.04-0.01-0.09c-0.01-0.07-0.01-0.13-0.01-0.2
					c-0.01-0.16,0-0.32,0.01-0.48c0.01-0.09,0.02-0.24,0.05-0.41c0.03-0.2,0.07-0.4,0.12-0.6c0.2-0.9,0.5-1.75,0.86-2.62
					c0.89-2.17,2.08-4.25,3.54-6.16c1.5-1.97,3.39-3.92,5.88-4.9C97.52,149.19,97.81,147.86,96.92,148.21L96.92,148.21z"/>
			</g>
		</g>
		<g class="st14">
			<path d="M112.54,68.7c1.96,5.43,3.93,10.85,5.89,16.27c0.32,0.89,0.7,1.85,1.59,2.34c0.95,0.53,2.23,0.35,3.18-0.19
				s1.63-1.36,2.29-2.17c-5.78-4.72-10.17-10.78-12.62-17.43"/>
			<g>
				<path d="M111.97,69.13c1.33,3.69,2.67,7.37,4,11.06c0.65,1.8,1.29,3.61,1.96,5.41c0.51,1.37,1.38,2.74,3.22,2.69
					c2.09-0.06,3.49-1.57,4.62-2.96c0.23-0.28,0.45-0.72,0.11-1.01c-4.44-3.64-8.07-8.1-10.59-12.98c-0.71-1.38-1.33-2.8-1.87-4.25
					c-0.26-0.7-1.32,0.35-1.13,0.87c1.94,5.24,5.04,10.12,9.11,14.28c1.15,1.18,2.38,2.29,3.67,3.34c0.04-0.34,0.07-0.67,0.11-1.01
					c-0.9,1.1-1.99,2.46-3.71,2.38c-1.77-0.07-2.23-1.73-2.68-2.97c-1.21-3.35-2.43-6.7-3.64-10.06c-0.68-1.89-1.37-3.78-2.05-5.67
					C112.85,67.56,111.78,68.61,111.97,69.13L111.97,69.13z"/>
			</g>
		</g>
		<g class="st14">
			<path d="M125.33,88.77c3.26,9.93,6.52,19.87,10.63,29.54c1.34,3.15,3.17,6.62,6.75,7.67c2.33,0.69,4.94,0.14,7.05-0.98
				c2.11-1.12,3.79-2.77,5.38-4.44c-5.07,0.55-9.29-3.29-12.41-6.9c-7.21-8.37-13.4-17.43-18.43-26.97"/>
			<g>
				<path d="M124.77,89.21c2.51,7.64,5.01,15.29,7.91,22.82c0.73,1.9,1.48,3.79,2.27,5.67c0.62,1.48,1.25,2.97,2.08,4.37
					c1.55,2.62,4.05,4.9,7.59,4.9c4.61-0.01,8.04-3.1,10.82-6.01c0.27-0.28,0.52-1.1-0.16-1.03c-2.94,0.29-5.63-1.01-7.79-2.66
					c-2.38-1.81-4.24-4.1-6.09-6.33c-4.1-4.95-7.86-10.14-11.23-15.51c-1.91-3.03-3.69-6.13-5.35-9.27
					c-0.17-0.31-0.67,0.02-0.8,0.17c-0.24,0.26-0.37,0.62-0.21,0.93c3.01,5.71,6.43,11.24,10.24,16.55c1.9,2.66,3.9,5.26,5.99,7.8
					c1.88,2.28,3.77,4.6,6.13,6.51c2.45,1.99,5.45,3.45,8.85,3.11c-0.05-0.34-0.11-0.69-0.16-1.03c-2.4,2.51-5.28,5.2-9.22,5.42
					c-3.51,0.2-5.95-1.96-7.51-4.53c-0.79-1.31-1.38-2.7-1.96-4.08c-0.75-1.79-1.47-3.59-2.17-5.4c-1.4-3.61-2.71-7.26-3.97-10.91
					c-1.41-4.11-2.77-8.23-4.12-12.35C125.67,87.64,124.6,88.68,124.77,89.21L124.77,89.21z"/>
			</g>
		</g>
		<g class="st14">
			<path d="M132.28,25.58c0.91,7.14,5.61,13.82,12.42,17.65c-2.64,0.71-5.41,1.05-8.17,1.02c-1.46-0.02-3.1-0.22-3.98-1.25
				c-0.65-0.77-0.72-1.8-0.76-2.76c-0.19-4.55-0.38-9.09-0.57-13.64"/>
			<g>
				<path d="M131.69,25.87c0.74,5.67,3.72,11.04,8.35,15c1.31,1.12,2.73,2.12,4.25,2.99c0.18-0.43,0.36-0.86,0.55-1.28
					c-2.01,0.53-4.07,0.87-6.16,0.97c-1.59,0.08-3.58,0.23-4.99-0.59c-1.59-0.92-1.31-3-1.37-4.45c-0.08-1.89-0.16-3.78-0.24-5.67
					c-0.09-2.18-0.18-4.35-0.27-6.53c-0.01-0.32-0.29-0.44-0.6-0.31c-0.33,0.15-0.59,0.56-0.58,0.89c0.17,4.07,0.34,8.13,0.51,12.2
					c0.07,1.55-0.16,3.58,1.21,4.76c1.28,1.1,3.27,1.1,4.93,1.06c2.46-0.06,4.91-0.4,7.27-1.03c0.43-0.11,1.09-0.97,0.55-1.28
					c-5.21-2.96-9.18-7.55-11.11-12.78c-0.54-1.47-0.93-2.99-1.13-4.53C132.75,24.44,131.62,25.32,131.69,25.87L131.69,25.87z"/>
			</g>
		</g>
	</g>
	<g id="Ebene_15_1_">
		<g class="st15">
			<g>
				<path class="st6" d="M104.81,11.38c1.55,0.33,3.15,0.49,4.74,0.58c0.87,0.05,1.74,0.08,2.62,0.11c-0.03,0,0.64,0.03,0.32,0.01
					s0.35,0.02,0.32,0.02c0.41,0.02,0.81,0.04,1.22,0.07c0.38,0.03,0.76,0.06,1.13,0.1c0.11,0.01,0.22,0.03,0.32,0.04
					c-0.49-0.06,0.06,0.01,0.13,0.02c0.27,0.04,0.54,0.09,0.81,0.15c0.16,0.03,0.32,0.07,0.48,0.1c-0.33-0.08,0.13,0.04,0.19,0.05
					c1.14,0.31,2.01,0.66,2.99,1.31c2.06,1.36,2.82,3.56,3.08,5.74c0.31,2.65,0.28,5.36,0.29,8.02c0,3.2-0.11,6.39-0.33,9.58
					c-0.02,0.25,0.46,0.42,0.64,0.48c0.46,0.15,1.05,0.21,1.54,0.2c0.46-0.01,2.13-0.02,2.17-0.68c0.2-2.93,0.31-5.87,0.33-8.81
					c0.01-2.79,0.02-5.61-0.24-8.38c-0.22-2.34-0.94-4.71-3-6.31c-2.08-1.62-4.81-2.36-7.5-2.72c-1.83-0.24-3.67-0.3-5.51-0.37
					c-0.67-0.03,0.44,0.02-0.24-0.01c-0.2-0.01-0.41-0.02-0.61-0.03c-0.47-0.03-0.95-0.06-1.42-0.1c-0.17-0.01-0.34-0.03-0.5-0.05
					c-0.07-0.01-0.71-0.09-0.39-0.04c-0.47-0.07-0.93-0.15-1.39-0.25c-0.87-0.19-2.19-0.21-2.97,0.24
					C103.22,10.92,104.37,11.29,104.81,11.38L104.81,11.38z"/>
			</g>
		</g>
		<g class="st15">
			<g>
				<path class="st6" d="M34.1,29.82c0.94,1.99,1.4,4.14,1.42,6.3c0.01,0.64,1.72,0.68,2.17,0.68c0.51-0.01,1.05-0.04,1.54-0.2
					c0.23-0.07,0.64-0.21,0.64-0.48c-0.02-2.31-0.58-4.54-1.58-6.66c-0.11-0.23-0.8-0.37-1-0.4c-0.53-0.1-1.14-0.12-1.67-0.07
					C35.15,29.03,33.79,29.17,34.1,29.82L34.1,29.82z"/>
			</g>
		</g>
		<g class="st15">
			<g>
				<path class="st6" d="M138.07,27.92c2.29,0.73,3.95,3.11,3.85,5.42c-0.01,0.25,0.45,0.42,0.64,0.48c0.46,0.15,1.05,0.21,1.54,0.2
					c0.51-0.01,1.05-0.04,1.54-0.2c0.24-0.08,0.62-0.21,0.64-0.48c0.13-2.9-2.12-5.43-5.12-6.38c-0.93-0.29-2.14-0.3-3.07,0
					c-0.23,0.07-0.64,0.21-0.64,0.48C137.43,27.7,137.86,27.85,138.07,27.92L138.07,27.92z"/>
			</g>
		</g>
		<g class="st15">
			<g>
				<path class="st6" d="M84.61,24.59c5.04-0.09,10.08-0.17,15.13-0.26c1.3-0.02,2.59-0.04,3.89-0.07c0.56-0.01,1.12-0.02,1.67-0.03
					c0.47-0.01,1.01-0.06,1.48,0.01c-0.59-0.09,0.2,0.02,0.33,0.03c0.11,0.01,0.22,0.02,0.33,0.03c0.32,0.02-0.46-0.09,0.05,0.01
					c0.21,0.04,0.42,0.07,0.63,0.12c-0.07-0.02-0.29-0.09,0.02,0.01c0.15,0.05,0.3,0.09,0.44,0.15c-0.14-0.05,0.31,0.15,0.36,0.18
					c0.14,0.08,0.29,0.16,0.42,0.25c0.36,0.26,0.66,0.6,0.91,0.95c1.1,1.6,0.89,3.71,0.71,5.49c-0.02,0.25,0.47,0.42,0.64,0.48
					c0.46,0.15,1.05,0.21,1.54,0.2c0.48-0.01,2.11-0.02,2.17-0.68c0.18-1.78,0.28-3.63-0.55-5.31c-0.92-1.85-3.11-2.72-5.24-3.03
					c-2.51-0.37-5.08-0.22-7.62-0.17c-2.74,0.05-5.47,0.09-8.21,0.14c-3.03,0.05-6.05,0.1-9.08,0.15c-0.48,0.01-2.13,0.02-2.17,0.68
					C82.4,24.53,84.27,24.59,84.61,24.59L84.61,24.59z"/>
			</g>
		</g>
	</g>
</g>
<g id="Ebene_7_7_">
</g>
<g id="Ebene_8_7_">
	<g>
		<g>
			<path d="M62.37,52.73c10.88,10.08,28.12,10.69,41.17,4.8c3.67-1.66,7.06-3.93,9.92-6.76c1.37-1.36-0.75-3.48-2.12-2.12
				c-9.46,9.35-25.08,12-37.44,7.59c-3.47-1.24-6.7-3.13-9.4-5.63C63.08,49.3,60.95,51.41,62.37,52.73L62.37,52.73z"/>
		</g>
	</g>
</g>
<g id="Ebene_3">
	<g>
		<g id="Ebene_2_Kopie_3_">
			<g>
				<path class="st16" d="M92.75,116.78c2.94,0.11,11.9,0.47,12.79-0.86c1.45-2.16,3.68-25.61,2.21-27.09
					c-3.08-3.11-39.74-5.71-43-2.03c-2.94,3.31,1.07,25.23,2.19,26.55c1.7,2,7.72,0.98,10.52,2.11c1.25,0.5,6.81,7.48,8.2,7.4
					c0.79-0.04,5.39-3.67,7-6.07"/>
				<g>
					<path class="st16" d="M92.75,117c2.89,0.1,5.78,0.21,8.67,0.05c0.69-0.04,1.39-0.09,2.08-0.19c0.51-0.07,1.03-0.16,1.52-0.35
						c0.3-0.12,0.58-0.27,0.75-0.57c0.13-0.23,0.21-0.49,0.29-0.74c0.26-0.83,0.42-1.7,0.57-2.55c0.22-1.23,0.4-2.47,0.57-3.71
						c0.4-2.99,0.7-5.99,0.92-9c0.2-2.65,0.36-5.32,0.31-7.98c-0.02-0.82-0.04-1.67-0.2-2.48c-0.05-0.23-0.1-0.48-0.22-0.68
						c-0.1-0.18-0.27-0.3-0.43-0.41c-0.47-0.31-1.01-0.51-1.54-0.68c-0.78-0.26-1.57-0.45-2.37-0.63c-2.23-0.49-4.48-0.82-6.74-1.11
						c-2.76-0.35-5.54-0.61-8.31-0.8c-2.88-0.2-5.77-0.34-8.66-0.4c-2.58-0.05-5.16-0.04-7.74,0.12c-1.87,0.11-3.78,0.26-5.6,0.74
						c-0.56,0.15-1.13,0.33-1.62,0.65c-0.51,0.34-0.8,0.88-1,1.48c-0.32,0.95-0.41,1.99-0.47,2.99c-0.08,1.34-0.05,2.68,0.02,4.02
						c0.16,3.09,0.54,6.17,1.02,9.22c0.39,2.49,0.83,4.99,1.47,7.43c0.16,0.62,0.32,1.29,0.62,1.86c0.19,0.36,0.56,0.62,0.9,0.8
						c0.63,0.34,1.33,0.51,2.02,0.62c1.72,0.28,3.46,0.27,5.19,0.43c0.77,0.07,1.54,0.17,2.28,0.4c0.25,0.08,0.35,0.1,0.54,0.24
						c0.16,0.11,0.29,0.22,0.43,0.34c0.99,0.87,1.88,1.87,2.79,2.83c1,1.06,2,2.13,3.1,3.08c0.37,0.32,0.76,0.66,1.2,0.88
						c0.33,0.17,0.6,0.2,0.94,0.04c0.51-0.23,0.97-0.57,1.43-0.9c0.68-0.49,1.33-1.02,1.97-1.57c1.23-1.06,2.47-2.21,3.4-3.59
						c0.16-0.24-0.21-0.47-0.37-0.23c-0.45,0.66-0.99,1.26-1.55,1.82c-0.63,0.64-1.29,1.24-1.96,1.82
						c-0.61,0.52-1.24,1.02-1.89,1.49c-0.4,0.28-0.87,0.64-1.3,0.79c-0.03,0.01-0.05,0.02-0.08,0.03c-0.07,0.02,0.01,0-0.04,0.01
						c-0.02,0-0.05,0-0.07,0c0.06,0.01-0.05-0.02-0.08-0.02c-0.15-0.05-0.28-0.12-0.44-0.23c-0.44-0.29-0.85-0.65-1.24-1.01
						c-1.08-1-2.09-2.09-3.11-3.16c-0.84-0.89-1.68-1.83-2.62-2.6c-0.36-0.3-0.74-0.45-1.18-0.57c-0.75-0.2-1.53-0.29-2.3-0.35
						c-1.7-0.15-3.43-0.12-5.11-0.43c-0.65-0.12-1.33-0.28-1.91-0.65c-0.11-0.07-0.22-0.15-0.31-0.24c-0.05-0.05-0.1-0.1-0.15-0.15
						c-0.01-0.01-0.07-0.1-0.02-0.02c-0.05-0.07-0.08-0.14-0.12-0.22c-0.1-0.22-0.18-0.46-0.27-0.75c-0.12-0.39-0.23-0.78-0.33-1.17
						c-0.28-1.09-0.51-2.2-0.73-3.31c-0.57-2.9-1.01-5.83-1.33-8.77c-0.3-2.77-0.54-5.6-0.35-8.38c0.06-0.95,0.17-1.92,0.49-2.82
						c0.1-0.27,0.27-0.61,0.44-0.8c0.03-0.03,0.06-0.07,0.09-0.1c0.01-0.01,0.03-0.03,0.05-0.04c0.05-0.05-0.02,0.01,0.04-0.03
						c0.09-0.07,0.18-0.13,0.27-0.18c0.25-0.15,0.41-0.21,0.68-0.31c0.31-0.11,0.64-0.2,0.96-0.28c0.8-0.2,1.62-0.32,2.44-0.42
						c2.27-0.27,4.55-0.35,6.83-0.38c2.76-0.03,5.52,0.04,8.28,0.17c2.84,0.14,5.67,0.34,8.5,0.61c2.51,0.24,5.02,0.54,7.52,0.95
						c1.8,0.3,3.62,0.62,5.36,1.19c0.29,0.1,0.59,0.2,0.87,0.33c0.05,0.02,0.05,0.02,0.13,0.06c0.06,0.03,0.11,0.06,0.17,0.09
						c0.1,0.05,0.19,0.1,0.28,0.16c0.04,0.03,0.08,0.05,0.11,0.08c0.02,0.01,0.04,0.03,0.06,0.04c-0.06-0.05,0,0,0.02,0.01
						c0.03,0.02,0.05,0.05,0.08,0.08c0.04,0.05-0.02-0.04,0,0.01c0.01,0.02,0.02,0.03,0.03,0.05c0.01,0.02,0.06,0.15,0.04,0.07
						c0.02,0.05,0.04,0.1,0.05,0.16c0.04,0.13,0.07,0.27,0.09,0.4c0.14,0.75,0.16,1.62,0.17,2.43c0.02,1.21-0.01,2.42-0.06,3.63
						c-0.12,2.95-0.36,5.89-0.66,8.83c-0.27,2.66-0.59,5.31-1.06,7.94c-0.15,0.85-0.32,1.71-0.57,2.53
						c-0.09,0.28-0.12,0.42-0.25,0.65c-0.06,0.1-0.09,0.14-0.17,0.19c-0.15,0.1-0.28,0.16-0.45,0.22c-0.5,0.17-1.04,0.26-1.56,0.32
						c-0.7,0.09-1.39,0.13-2.09,0.17c-1.59,0.07-3.18,0.07-4.77,0.04c-1.2-0.02-2.4-0.06-3.6-0.11
						C92.48,116.54,92.48,116.99,92.75,117L92.75,117z"/>
				</g>
			</g>
		</g>
		<g id="Ebene_7_2_">
			<g class="st17">
				<g>
					<path class="st6" d="M96.55,90.01c0.9,0.16,1.82,0.23,2.73,0.33c0.25,0.03,0.5,0.05,0.76,0.09c0.12,0.01,0.25,0.03,0.37,0.05
						c0.06,0.01,0.12,0.02,0.18,0.02c0.2,0.03-0.17-0.03,0.03,0c0.48,0.07,0.96,0.15,1.43,0.27c0.22,0.05,0.44,0.11,0.65,0.18
						c0.1,0.03,0.19,0.07,0.29,0.1c0.05,0.02,0.09,0.04,0.14,0.05c0.19,0.07-0.13-0.07-0.02-0.01c0.16,0.08,0.32,0.16,0.47,0.27
						c0.03,0.02,0.06,0.05,0.1,0.07c-0.05-0.03-0.17-0.15-0.07-0.05c0.06,0.06,0.11,0.14,0.17,0.19c-0.03-0.03-0.13-0.21-0.06-0.08
						c0.02,0.03,0.03,0.06,0.05,0.09c0.1,0.17-0.04-0.18-0.02-0.05c0.01,0.07,0.05,0.3,0.02,0.08c-0.03-0.22-0.01-0.04,0,0.01
						c0,0.05,0.01,0.1,0.01,0.15c0.01,0.12,0.01,0.23,0.01,0.35c0.02,1.6-0.14,3.2-0.27,4.79c-0.19,2.25-0.42,4.49-0.65,6.74
						c-0.22,2.12-0.44,4.24-0.65,6.37c-0.02,0.22-0.04,0.44-0.06,0.66c-0.05,0.47,0.42,0.93,0.85,0.91c0.5-0.02,0.8-0.4,0.85-0.91
						c0.2-2.09,0.42-4.19,0.64-6.28c0.24-2.31,0.47-4.61,0.68-6.92c0.15-1.71,0.32-3.42,0.32-5.14c0-0.44,0.02-0.95-0.13-1.37
						c-0.35-0.97-1.25-1.45-2.13-1.75c-0.98-0.34-2.02-0.47-3.04-0.6c-0.95-0.12-1.9-0.19-2.84-0.32c-0.05-0.01-0.09-0.01-0.14-0.02
						c-0.14-0.02,0.22,0.03,0.05,0.01c-0.09-0.01-0.18-0.03-0.27-0.04c-0.44-0.08-0.94,0.12-1.05,0.63
						C95.86,89.33,96.08,89.93,96.55,90.01L96.55,90.01z"/>
				</g>
			</g>
			<g class="st17">
				<g>
					<path class="st6" d="M101.47,114.06c0.03,0.2,0.06,0.4,0.09,0.59c0.42-0.34,0.83-0.68,1.25-1.03
						c-0.22-0.15-0.43-0.29-0.65-0.44c0.06,0.48,0.11,0.95,0.17,1.43c-0.1,0.09-0.19,0.15-0.32,0.17c-0.05,0.02-0.1,0.02-0.15,0
						c-0.09-0.02-0.1-0.02-0.04,0c-0.09-0.04-0.17-0.08-0.24-0.16c0.04,0.05,0.04,0.04-0.02-0.03c-0.05-0.06-0.09-0.12-0.11-0.2
						c0.13-0.34,0.26-0.68,0.39-1.03c0.01-0.01,0.21-0.07,0.1-0.04c0.11-0.02,0.2-0.02,0.3,0c-0.11-0.02,0.08,0.04,0.1,0.05
						c-0.1-0.05,0.07,0.05,0.08,0.07c0.07,0.07,0.11,0.17,0.14,0.27c-0.05-0.16-0.01,0.33-0.01,0.32c0.02-0.11-0.03,0.08-0.04,0.1
						c-0.03,0.04-0.06,0.08-0.08,0.12c-0.12,0.09-0.15,0.11-0.09,0.08c0.09-0.05-0.19,0.07-0.09,0.04c0.04-0.01,0.03-0.01-0.05,0.01
						c-0.05,0.02-0.1,0.02-0.15,0c-0.2-0.02-0.36-0.15-0.44-0.34c-0.07-0.18,0,0.09-0.03-0.11c-0.03-0.2-0.03,0.08,0-0.12
						c0-0.05,0.01-0.1,0.04-0.15c0.03-0.08,0.04-0.09,0.02-0.05c-0.04,0.07,0.15-0.17,0.04-0.08c0.45,0.06,0.89,0.12,1.34,0.18
						c-0.05-0.08-0.09-0.15-0.14-0.23c-0.24-0.4-0.76-0.6-1.16-0.33c-0.37,0.26-0.57,0.82-0.31,1.24c0.05,0.08,0.09,0.15,0.14,0.23
						c0.15,0.24,0.35,0.39,0.62,0.43c0.29,0.04,0.49-0.06,0.71-0.25c0.44-0.38,0.49-1.16,0.2-1.65c-0.35-0.58-1.09-0.76-1.64-0.37
						c-0.52,0.37-0.76,1.15-0.38,1.74c0.37,0.57,1.07,0.78,1.64,0.43c0.33-0.2,0.49-0.64,0.39-1.03c-0.11-0.42-0.42-0.77-0.82-0.88
						c-0.43-0.12-0.81,0-1.15,0.3c-0.44,0.39-0.25,1.14,0.17,1.43c0.22,0.15,0.43,0.29,0.65,0.44c0.29,0.19,0.69,0.14,0.94-0.07
						c0.29-0.24,0.36-0.58,0.31-0.95c-0.03-0.2-0.06-0.4-0.09-0.59c-0.03-0.21-0.23-0.44-0.39-0.54c-0.18-0.11-0.45-0.16-0.66-0.09
						c-0.21,0.07-0.4,0.21-0.51,0.42C101.44,113.59,101.44,113.8,101.47,114.06L101.47,114.06z"/>
				</g>
			</g>
		</g>
		<g id="Ebene_2_4_">
			<g>
				<g>
					<path d="M91.38,119.01c2.89,0.11,5.79,0.21,8.68,0.06c0.7-0.04,1.39-0.09,2.08-0.19c0.55-0.08,1.11-0.16,1.64-0.36
						c0.41-0.16,0.77-0.37,1-0.77c0.15-0.26,0.24-0.55,0.33-0.84c0.26-0.83,0.42-1.7,0.58-2.55c0.22-1.23,0.41-2.47,0.57-3.72
						c0.4-3.02,0.71-6.05,0.93-9.1c0.2-2.65,0.36-5.31,0.3-7.97c-0.02-0.85-0.05-1.72-0.22-2.55c-0.05-0.26-0.13-0.54-0.27-0.77
						c-0.15-0.24-0.37-0.42-0.6-0.57c-0.51-0.33-1.1-0.54-1.66-0.72c-0.78-0.26-1.59-0.45-2.39-0.63c-2.26-0.49-4.55-0.83-6.84-1.11
						c-2.76-0.35-5.53-0.6-8.31-0.8c-2.88-0.2-5.76-0.34-8.64-0.4c-2.57-0.05-5.15-0.04-7.71,0.11c-1.91,0.11-3.87,0.26-5.74,0.75
						c-0.59,0.16-1.21,0.35-1.74,0.69c-0.61,0.39-0.95,1.01-1.19,1.71c-0.33,0.98-0.43,2.06-0.5,3.1c-0.08,1.34-0.05,2.68,0.02,4.01
						c0.16,3.12,0.55,6.22,1.04,9.3c0.4,2.5,0.84,5.01,1.49,7.45c0.17,0.65,0.34,1.35,0.66,1.94c0.23,0.43,0.66,0.75,1.06,0.97
						c0.68,0.36,1.42,0.54,2.16,0.66c1.76,0.28,3.54,0.27,5.31,0.44c0.19,0.02,0.39,0.04,0.58,0.06c0.05,0.01,0.1,0.01,0.15,0.02
						c0.03,0,0.2,0.03,0.03,0c0.1,0.01,0.2,0.03,0.3,0.05c0.37,0.06,0.73,0.14,1.09,0.26c0.07,0.02,0.14,0.04,0.2,0.07
						c0.04,0.01,0.08,0.04,0.12,0.04c0.08,0.02-0.17-0.09-0.1-0.04c0.06,0.04,0.13,0.07,0.18,0.11c0.07,0.05,0.14,0.1,0.2,0.15
						c0.15,0.12-0.1-0.09,0.01,0.01c0.05,0.04,0.1,0.09,0.15,0.13c0.98,0.87,1.87,1.86,2.78,2.81c1.01,1.05,2.01,2.13,3.11,3.07
						c0.4,0.34,0.81,0.71,1.28,0.94c0.22,0.11,0.45,0.21,0.7,0.21c0.25,0.01,0.46-0.08,0.68-0.19c0.51-0.24,0.98-0.58,1.45-0.91
						c0.7-0.51,1.38-1.06,2.04-1.63c1.25-1.08,2.5-2.24,3.45-3.64c0.2-0.3,0.05-0.76-0.23-0.93c-0.32-0.2-0.67-0.05-0.87,0.24
						c-0.03,0.04-0.2,0.27-0.08,0.12c-0.05,0.07-0.1,0.14-0.16,0.21c-0.12,0.16-0.25,0.31-0.38,0.46c-0.28,0.32-0.57,0.64-0.87,0.94
						c-0.63,0.64-1.29,1.24-1.97,1.81c-0.07,0.06-0.15,0.12-0.22,0.18c-0.01,0.01-0.16,0.13-0.04,0.04
						c-0.04,0.04-0.09,0.07-0.13,0.11c-0.17,0.14-0.34,0.27-0.51,0.41c-0.3,0.23-0.6,0.46-0.91,0.68c-0.25,0.18-0.5,0.35-0.76,0.5
						c-0.1,0.06-0.2,0.12-0.3,0.17c-0.04,0.02-0.1,0.04-0.14,0.07c0.13-0.11,0.11-0.04,0.01-0.01c-0.03,0.01-0.07,0.02-0.1,0.03
						c-0.11,0.04,0.12,0,0.09-0.01c-0.02,0-0.07-0.01-0.09,0c0.16-0.04,0.16,0.04,0.05,0c-0.04-0.01-0.07-0.03-0.11-0.04
						c-0.13-0.04,0.16,0.08,0.03,0.02c-0.09-0.05-0.18-0.09-0.26-0.15c-0.2-0.13-0.39-0.27-0.58-0.42c-0.03-0.03-0.14-0.1,0.02,0.02
						c-0.03-0.02-0.06-0.05-0.08-0.07c-0.05-0.04-0.11-0.09-0.16-0.14c-0.12-0.11-0.24-0.21-0.36-0.32
						c-1.08-0.99-2.09-2.07-3.11-3.14c-0.88-0.92-1.74-1.88-2.72-2.67c-0.38-0.31-0.78-0.48-1.24-0.61
						c-0.8-0.22-1.64-0.31-2.46-0.38c-0.86-0.07-1.73-0.11-2.59-0.17c-0.43-0.03-0.86-0.06-1.28-0.1c-0.2-0.02-0.39-0.04-0.59-0.07
						c-0.05-0.01-0.1-0.01-0.16-0.02c-0.17-0.02,0.09,0.02-0.01,0c-0.11-0.02-0.22-0.03-0.33-0.05c-0.36-0.06-0.72-0.14-1.07-0.25
						c-0.15-0.05-0.3-0.11-0.45-0.16c-0.14-0.05,0.13,0.07,0,0c-0.04-0.02-0.07-0.04-0.11-0.05c-0.07-0.04-0.14-0.07-0.21-0.12
						c-0.07-0.04-0.13-0.08-0.19-0.13c-0.02-0.01-0.04-0.03-0.06-0.04c-0.11-0.08,0.11,0.11,0.02,0.01
						c-0.07-0.07-0.14-0.17-0.22-0.23c0.15,0.11,0.11,0.16,0.07,0.09c-0.01-0.01-0.02-0.03-0.03-0.04
						c-0.02-0.04-0.04-0.08-0.06-0.12c-0.02-0.05-0.04-0.09-0.06-0.14c-0.06-0.14,0.04,0.11,0.02,0.06
						c-0.01-0.03-0.02-0.06-0.04-0.1c-0.05-0.15-0.1-0.3-0.15-0.45c-0.12-0.39-0.23-0.79-0.33-1.18c-0.28-1.09-0.51-2.19-0.73-3.29
						c-0.27-1.38-0.51-2.77-0.73-4.16c-0.12-0.77-0.23-1.54-0.33-2.31c-0.02-0.18-0.05-0.37-0.07-0.55
						c-0.01-0.05-0.04-0.32-0.02-0.12c-0.01-0.12-0.03-0.23-0.04-0.35c-0.05-0.38-0.09-0.76-0.13-1.15
						c-0.3-2.76-0.54-5.58-0.36-8.36c0.02-0.28,0.04-0.56,0.07-0.84c0.01-0.06,0.04-0.26,0-0.02c0.01-0.07,0.02-0.13,0.03-0.2
						c0.02-0.13,0.04-0.25,0.06-0.38c0.07-0.42,0.18-0.84,0.32-1.24c0.01-0.02,0.02-0.04,0.03-0.07c0-0.01-0.08,0.18-0.04,0.1
						c0.02-0.04,0.04-0.09,0.05-0.13c0.04-0.08,0.08-0.16,0.12-0.24c0.04-0.07,0.08-0.13,0.12-0.19c0.07-0.11-0.12,0.15-0.02,0.03
						c0.02-0.03,0.05-0.06,0.07-0.09c0.03-0.03,0.06-0.06,0.09-0.09c0.02-0.02,0.04-0.03,0.06-0.05c0.02-0.02-0.17,0.13-0.06,0.05
						c0.09-0.06,0.18-0.12,0.27-0.18c0.05-0.03,0.1-0.06,0.15-0.08c0.03-0.01,0.06-0.03,0.09-0.04c0.14-0.07-0.09,0.04-0.04,0.02
						c0.13-0.05,0.26-0.11,0.39-0.15c0.32-0.11,0.64-0.2,0.97-0.28c0.38-0.09,0.76-0.17,1.15-0.23c0.1-0.02,0.2-0.03,0.3-0.05
						c0.05-0.01,0.09-0.01,0.14-0.02c0.03,0,0.06-0.01,0.09-0.01c0.16-0.02-0.14,0.02-0.03,0c0.23-0.03,0.46-0.06,0.69-0.09
						c2.27-0.27,4.55-0.35,6.83-0.37c2.74-0.03,5.48,0.04,8.22,0.17c2.84,0.14,5.68,0.34,8.51,0.61c1.32,0.13,2.64,0.27,3.95,0.44
						c0.63,0.08,1.25,0.16,1.88,0.25c-0.17-0.03-0.01,0,0.06,0.01c0.08,0.01,0.15,0.02,0.23,0.03c0.15,0.02,0.3,0.04,0.45,0.07
						c0.28,0.04,0.56,0.09,0.84,0.13c1.8,0.29,3.63,0.62,5.37,1.19c0.29,0.1,0.59,0.2,0.87,0.32c0.03,0.01,0.05,0.02,0.08,0.04
						c-0.24-0.1-0.1-0.05-0.04-0.02c0.06,0.03,0.12,0.06,0.17,0.09c0.1,0.05,0.19,0.1,0.29,0.16c0.04,0.03,0.08,0.05,0.12,0.08
						c0.02,0.01,0.03,0.03,0.05,0.04c0.09,0.07-0.15-0.14-0.06-0.05c0.03,0.03,0.05,0.05,0.08,0.08c0.1,0.09-0.1-0.19-0.03-0.04
						c0.02,0.04,0.03,0.08,0.05,0.11c-0.1-0.18-0.04-0.11-0.01,0c0.04,0.12,0.07,0.25,0.09,0.38c0.01,0.07,0.03,0.14,0.04,0.22
						c0.01,0.04,0.01,0.08,0.02,0.13c0.03,0.18-0.02-0.17,0-0.02c0.02,0.19,0.04,0.38,0.05,0.57c0.04,0.47,0.05,0.95,0.06,1.42
						c0.02,1.2-0.01,2.39-0.06,3.59c-0.12,2.95-0.36,5.9-0.66,8.84c-0.08,0.74-0.16,1.47-0.24,2.2c-0.04,0.36-0.08,0.71-0.13,1.06
						c-0.01,0.04-0.03,0.2,0,0c0,0.04-0.01,0.08-0.01,0.11c-0.01,0.08-0.02,0.16-0.03,0.25c-0.02,0.18-0.05,0.35-0.07,0.53
						c-0.16,1.21-0.34,2.42-0.56,3.63c-0.15,0.85-0.32,1.71-0.57,2.53c-0.04,0.13-0.09,0.26-0.14,0.4c0.08-0.27,0.03-0.07-0.01,0
						c-0.02,0.05-0.05,0.09-0.07,0.14c-0.01,0.02-0.02,0.03-0.03,0.05c-0.05,0.09,0.13-0.14,0.05-0.07
						c-0.02,0.02-0.05,0.05-0.07,0.07c-0.03,0.04-0.12-0.01,0.09-0.07c-0.02,0.01-0.04,0.03-0.06,0.04
						c-0.07,0.04-0.14,0.08-0.21,0.11c-0.09,0.05,0.17-0.06,0.07-0.03c-0.02,0.01-0.05,0.02-0.07,0.03
						c-0.05,0.02-0.1,0.04-0.15,0.05c-0.23,0.08-0.46,0.13-0.69,0.18c-0.13,0.03-0.26,0.05-0.39,0.07c-0.05,0.01-0.31,0.06-0.1,0.02
						c-0.08,0.01-0.16,0.02-0.24,0.03c-0.7,0.09-1.41,0.13-2.12,0.17c-1.58,0.07-3.17,0.07-4.76,0.04c-1.2-0.02-2.4-0.07-3.61-0.11
						c-0.34-0.01-0.64,0.32-0.64,0.68C90.74,118.71,91.03,118.99,91.38,119.01L91.38,119.01z"/>
				</g>
			</g>
		</g>
		<g id="Ebene_9_2_">
			<g class="st18">
				<path d="M64.45,87.24c0,12.76,13.29,27.84,22.34,35.54c-1.12,0.32-2.53-1.37-5-3.46c-3.49-2.96-2.51-3.32-4.45-4.15
					c-1.61-0.69-3.58-0.5-5.31-0.56c-1.6-0.05-3.6-0.36-4.62-1.22c-1.35-1.14-3.76-15.55-3.48-24.41"/>
				<g>
					<path d="M64.03,87.24c0,2.65,0.55,5.27,1.39,7.76c0.93,2.75,2.21,5.36,3.66,7.84c1.54,2.63,3.29,5.12,5.15,7.5
						c1.84,2.34,3.8,4.58,5.85,6.71c1.84,1.91,3.75,3.75,5.74,5.48c0.22,0.19,0.44,0.38,0.66,0.57c0.06-0.25,0.13-0.51,0.19-0.76
						c-0.03,0.01-0.06,0.01-0.09,0.02c0.11-0.02,0.02,0-0.01,0c-0.05,0-0.1,0-0.16,0c-0.12-0.01,0.04,0.02-0.08-0.01
						c-0.07-0.02-0.14-0.04-0.2-0.06c-0.03-0.01-0.07-0.03-0.1-0.04c0.08,0.03,0,0-0.02-0.01c-0.07-0.03-0.13-0.07-0.2-0.11
						c-0.15-0.08-0.29-0.18-0.42-0.28c-0.73-0.53-1.39-1.17-2.07-1.78c-1.32-1.19-2.72-2.28-3.84-3.7
						c-0.22-0.28-0.43-0.58-0.69-0.83c-0.32-0.31-0.7-0.52-1.1-0.71c-1.96-0.89-4.11-0.57-6.18-0.71c-0.94-0.06-1.9-0.2-2.8-0.52
						c-0.37-0.13-0.72-0.31-1.04-0.56c-0.05-0.04,0.04,0.05-0.02-0.02c-0.01-0.02-0.03-0.03-0.04-0.05
						c-0.05-0.05-0.03-0.08,0.01,0.02c-0.01-0.03-0.04-0.05-0.05-0.08c-0.08-0.12-0.14-0.26-0.2-0.39
						c-0.02-0.04-0.04-0.09-0.06-0.13c-0.01-0.03-0.07-0.17-0.01-0.03c-0.04-0.1-0.07-0.19-0.11-0.29
						c-0.17-0.48-0.31-0.97-0.44-1.46c-0.8-3.05-1.28-6.2-1.67-9.33c-0.46-3.67-0.78-7.39-0.76-11.1c0-0.4,0.01-0.81,0.02-1.21
						c0.02-0.58-0.83-0.58-0.85,0c-0.12,3.7,0.17,7.42,0.59,11.09c0.39,3.37,0.87,6.76,1.67,10.06c0.24,0.99,0.49,2.01,0.91,2.93
						c0.15,0.32,0.33,0.58,0.6,0.79c0.73,0.56,1.67,0.82,2.54,0.98c1.02,0.19,2.04,0.24,3.08,0.25c1.06,0.01,2.14-0.03,3.18,0.18
						c0.26,0.05,0.51,0.12,0.76,0.2c0.11,0.04,0.22,0.08,0.33,0.12c0.05,0.02,0.09,0.04,0.14,0.06c0.08,0.03-0.05-0.02,0.05,0.02
						c0.2,0.1,0.41,0.2,0.59,0.33c0.03,0.02,0.07,0.05,0.1,0.07c0.05,0.03,0.11,0.09,0.03,0.02c0.07,0.06,0.14,0.12,0.2,0.19
						c0.12,0.12,0.23,0.26,0.33,0.4c0.33,0.42,0.65,0.83,1.01,1.22c0.69,0.74,1.45,1.39,2.2,2.04c0.81,0.7,1.59,1.45,2.42,2.14
						c0.54,0.46,1.13,0.96,1.81,1.15c0.28,0.08,0.57,0.09,0.86,0.01c0.29-0.08,0.44-0.54,0.19-0.76c-1.95-1.66-3.83-3.42-5.64-5.26
						c-2.03-2.07-3.98-4.23-5.82-6.5c-1.87-2.31-3.63-4.73-5.2-7.29c-1.49-2.42-2.83-4.97-3.84-7.66c-0.91-2.42-1.57-4.98-1.69-7.58
						c-0.02-0.31-0.02-0.62-0.02-0.93C64.88,86.65,64.03,86.65,64.03,87.24L64.03,87.24z"/>
				</g>
			</g>
		</g>
		<g id="Ebene_11">
			<ellipse class="st19" cx="77.91" cy="106.65" rx="2.55" ry="2.73"/>
			<ellipse class="st19" cx="86.8" cy="106.65" rx="2.55" ry="2.73"/>
			<ellipse class="st19" cx="95.31" cy="106.65" rx="2.55" ry="2.73"/>
		</g>
	</g>
</g>
<g id="Ebene_5_6_">
</g>
</svg>
