<?xml version="1.0" encoding="utf-8"?>
<!-- Generator: Adobe Adobe Illustrator 24.2.0, SVG Export Plug-In . SVG Version: 6.00 Build 0)  -->
<svg version="1.1" xmlns="http://www.w3.org/2000/svg" xmlns:xlink="http://www.w3.org/1999/xlink" x="0px" y="0px"
	 viewBox="0 0 2000 2000" style="enable-background:new 0 0 2000 2000;" xml:space="preserve">
<style type="text/css">
	.st0{fill:#C8354F;}
	.st1{fill:#C93550;}
	.st2{opacity:0.149;}
	.st3{fill:#FFFFFF;}
	.st4{opacity:0.0314;}
	.st5{fill:#2E1B12;}
	.st6{fill:#F1BD56;stroke:#000000;stroke-width:7.9483;stroke-miterlimit:10;}
	.st7{fill:#F1BD56;}
	.st8{fill:#F3C057;}
	.st9{fill:#CA344E;}
	.st10{fill:#B22E45;}
	.st11{fill:#91615D;}
	.st12{fill:#F0C1A1;}
	.st13{fill:#FFFFFF;stroke:#FFFFFF;stroke-width:0.8142;stroke-miterlimit:10;}
	.st14{opacity:0.102;}
</style>
<g id="Ebene_19">
	<g>
		<g id="Ebene_2_Kopie">
			<g>
				<path class="st0" d="M1601.61,775.27c69.13,2.35,279.59,10.37,300.51-18.94c33.98-47.62,86.52-563.8,52.01-596.52
					c-72.32-68.57-934.1-125.63-1010.66-44.72c-69.03,72.96,25.04,555.45,51.45,584.56c39.92,44,181.38,21.66,247.28,46.44
					c29.38,11.05,160.03,164.64,192.7,162.89c18.54-0.99,126.77-80.9,164.53-133.56"/>
				<g>
					<path class="st1" d="M1601.61,780.28c67.85,2.31,135.93,4.62,203.78,1.16c16.32-0.83,32.65-2.04,48.85-4.2
						c12.01-1.6,24.31-3.46,35.73-7.66c7.02-2.58,13.73-5.97,17.67-12.58c3-5.05,4.99-10.78,6.82-16.34
						c6.03-18.29,9.86-37.35,13.5-56.24c5.21-27.07,9.47-54.33,13.34-81.62c9.32-65.82,16.4-131.97,21.68-198.23
						c4.65-58.32,8.54-117.07,7.25-175.61c-0.4-18.13-0.97-36.72-4.74-54.51c-1.07-5.07-2.45-10.49-5.24-14.92
						c-2.44-3.88-6.35-6.61-10.18-8.99c-11.04-6.87-23.84-11.15-36.18-14.98c-18.28-5.67-36.98-10-55.71-13.87
						c-52.31-10.83-105.37-18.09-158.39-24.34c-64.95-7.66-130.14-13.36-195.4-17.7c-67.74-4.51-135.58-7.54-203.46-8.73
						c-60.63-1.06-121.37-0.79-181.94,2.62c-43.93,2.47-88.82,5.71-131.65,16.4c-13.05,3.26-26.61,7.25-38.15,14.35
						c-12.07,7.43-18.85,19.46-23.47,32.57c-7.41,20.98-9.71,43.84-11.05,65.92c-1.79,29.44-1.11,59.02,0.51,88.46
						c3.75,68.03,12.65,135.83,23.91,202.99c9.2,54.87,19.6,109.94,34.64,163.55c3.82,13.63,7.48,28.47,14.48,40.91
						c4.51,8,13.07,13.64,21.05,17.69c14.77,7.51,31.29,11.13,47.56,13.62c40.37,6.19,81.39,5.89,122.01,9.37
						c18,1.54,36.19,3.64,53.57,8.75c5.92,1.74,8.14,2.28,12.79,5.25c3.67,2.34,6.83,4.86,10.13,7.59
						c23.18,19.18,44.14,41.16,65.55,62.26c23.58,23.25,47.09,46.89,72.77,67.85c8.74,7.13,17.89,14.53,28.14,19.4
						c7.8,3.7,14.22,4.37,22.2,0.95c11.9-5.09,22.88-12.55,33.53-19.82c15.91-10.86,31.28-22.53,46.25-34.66
						c28.88-23.39,58.1-48.69,79.97-78.99c3.78-5.23-4.91-10.24-8.65-5.06c-10.56,14.64-23.35,27.7-36.37,40.14
						c-14.74,14.09-30.23,27.4-46.16,40.13c-14.38,11.49-29.17,22.53-44.49,32.74c-9.42,6.27-20.54,14.09-30.67,17.39
						c-0.64,0.21-1.29,0.38-1.94,0.56c-1.73,0.48,0.32,0.07-0.9,0.13c-0.58,0.03-1.17-0.03-1.75-0.09c1.35,0.14-1.29-0.34-1.79-0.48
						c-3.59-1.03-6.64-2.73-10.33-4.96c-10.44-6.3-19.89-14.21-29.09-22.16c-25.47-22-49.23-45.96-73.18-69.58
						c-19.85-19.58-39.41-40.26-61.57-57.29c-8.56-6.58-17.28-9.98-27.81-12.61c-17.65-4.42-35.93-6.34-54.04-7.79
						c-39.99-3.2-80.56-2.72-120.2-9.45c-15.36-2.61-31.34-6.2-44.86-14.26c-2.59-1.54-5.1-3.23-7.37-5.2
						c-1.25-1.08-2.39-2.25-3.56-3.41c-0.27-0.27-1.69-2.12-0.43-0.39c-1.09-1.49-1.97-3.1-2.79-4.75
						c-2.36-4.75-4.28-10.22-6.39-16.57c-2.83-8.54-5.31-17.19-7.66-25.87c-6.53-24.1-12.03-48.48-17.13-72.91
						c-13.31-63.8-23.82-128.27-31.33-193.01c-7.07-60.96-12.61-123.19-8.33-184.57c1.46-20.83,3.92-42.36,11.48-61.98
						c2.28-5.9,6.26-13.39,10.29-17.71c0.7-0.76,1.44-1.48,2.21-2.17c0.35-0.31,0.71-0.61,1.07-0.91c1.25-1.06-0.52,0.32,0.84-0.65
						c2.03-1.44,4.13-2.76,6.31-3.95c5.93-3.23,9.53-4.59,16-6.78c7.4-2.51,14.97-4.51,22.58-6.25c18.91-4.32,38.16-7.1,57.43-9.28
						c53.25-6.03,107-7.79,160.56-8.36c64.89-0.69,129.79,0.85,194.61,3.74c66.66,2.98,133.27,7.44,199.73,13.51
						c59.05,5.39,118.04,11.94,176.65,20.97c42.28,6.51,85.05,13.63,126,26.27c6.93,2.14,13.8,4.49,20.52,7.24
						c1.26,0.52,1.21,0.49,3.17,1.37c1.34,0.6,2.68,1.23,3.99,1.88c2.25,1.12,4.46,2.31,6.59,3.63c0.9,0.56,1.77,1.15,2.65,1.75
						c0.44,0.3,0.87,0.63,1.3,0.96c-1.37-1.04,0.07,0.06,0.38,0.33c0.61,0.55,1.2,1.09,1.78,1.67c1.01,1.01-0.51-0.85,0.11,0.13
						c0.25,0.39,0.52,0.76,0.73,1.17c0.27,0.5,1.52,3.22,0.87,1.64c0.47,1.14,0.88,2.31,1.25,3.48c0.91,2.89,1.58,5.86,2.15,8.84
						c3.19,16.61,3.74,35.58,4.04,53.49c0.46,26.67-0.3,53.35-1.49,79.99c-2.89,64.92-8.46,129.75-15.54,194.34
						c-6.41,58.47-13.82,117.01-24.95,174.79c-3.61,18.74-7.42,37.64-13.36,55.81c-2.01,6.14-2.91,9.27-5.95,14.37
						c-1.3,2.18-2.09,3.03-3.99,4.23c-3.63,2.3-6.6,3.46-10.59,4.75c-11.85,3.84-24.38,5.68-36.71,7.13
						c-16.34,1.92-32.77,2.97-49.2,3.7c-37.38,1.65-74.83,1.54-112.23,0.89c-28.23-0.49-56.44-1.41-84.65-2.38
						C1595.16,770.04,1595.17,780.06,1601.61,780.28L1601.61,780.28z"/>
				</g>
			</g>
		</g>
		<g id="Ebene_7">
			<g class="st2">
				<g>
					<path class="st3" d="M1690.92,185.91c21.27,3.56,42.84,5.15,64.28,7.3c5.92,0.59,11.84,1.21,17.75,1.88
						c2.88,0.33,5.76,0.66,8.64,1.02c1.44,0.18,2.88,0.36,4.32,0.54c4.74,0.6-4.01-0.58,0.82,0.11c11.24,1.59,22.46,3.4,33.53,5.92
						c5.15,1.17,10.27,2.49,15.31,4.04c2.27,0.7,4.53,1.44,6.77,2.25c1.08,0.39,2.14,0.8,3.21,1.2c4.38,1.65-3.1-1.51-0.41-0.2
						c3.78,1.84,7.53,3.62,11.03,5.97c0.74,0.5,1.48,1.19,2.26,1.61c-1.11-0.59-3.98-3.37-1.67-1.21c1.34,1.26,2.6,3.01,4.04,4.12
						c-0.79-0.61-3.11-4.53-1.48-1.84c0.4,0.67,0.81,1.35,1.23,2.01c2.43,3.83-0.96-4.05-0.44-1.21c0.26,1.44,1.21,6.71,0.55,1.79
						c-0.65-4.87-0.14-0.93-0.03,0.25c0.1,1.12,0.18,2.24,0.25,3.35c0.15,2.56,0.22,5.12,0.25,7.69
						c0.47,35.15-3.25,70.52-6.42,105.47c-4.49,49.51-9.81,98.95-15.22,148.37c-5.11,46.74-10.42,93.46-15.3,140.23
						c-0.51,4.84-1,9.69-1.5,14.54c-1.06,10.44,9.95,20.45,20,20c11.74-0.53,18.87-8.81,20-20c4.68-46.1,9.91-92.15,14.98-138.21
						c5.58-50.76,11.11-101.54,15.88-152.39c3.52-37.54,7.44-75.38,7.6-113.12c0.04-9.66,0.46-20.95-3.02-30.08
						c-8.15-21.36-29.4-31.94-49.95-38.54c-23.07-7.41-47.56-10.44-71.54-13.25c-22.23-2.6-44.57-4.22-66.78-6.95
						c-1.1-0.13-2.2-0.28-3.3-0.42c-3.34-0.42,5.26,0.76,1.26,0.16c-2.1-0.31-4.19-0.62-6.28-0.97c-10.28-1.72-22.04,2.7-24.6,13.97
						C1674.75,170.97,1679.88,184.06,1690.92,185.91L1690.92,185.91z"/>
				</g>
			</g>
			<g class="st2">
				<g>
					<path class="st3" d="M1806.56,715.34c0.67,4.37,1.34,8.74,2.01,13.1c9.79-7.53,19.59-15.06,29.38-22.59
						c-5.08-3.22-10.15-6.44-15.23-9.66c1.35,10.47,2.7,20.94,4.05,31.41c-2.3,1.93-4.47,3.31-7.52,3.75
						c-1.18,0.35-2.37,0.35-3.55-0.01c-2.05-0.37-2.35-0.38-0.89-0.04c-2.23-0.83-3.93-1.83-5.71-3.42c1.01,1.03,0.86,0.8-0.43-0.69
						c-1.19-1.24-2.02-2.71-2.49-4.4c3.06-7.53,6.13-15.06,9.19-22.59c0.28-0.16,4.84-1.5,2.33-0.99c2.48-0.5,4.62-0.55,7.11-0.05
						c-2.53-0.51,1.94,0.92,2.25,1.07c-2.28-1.06,1.58,1.21,1.89,1.52c1.6,1.6,2.59,3.74,3.25,5.87c-1.08-3.46-0.29,7.33-0.24,7
						c0.42-2.52-0.73,1.79-0.96,2.2c-0.65,0.86-1.3,1.72-1.95,2.57c-2.77,1.93-3.49,2.48-2.18,1.66c2.1-1.07-4.4,1.6-2.17,0.91
						c1.03-0.24,0.6-0.19-1.27,0.17c-1.15,0.35-2.31,0.38-3.47,0.09c-4.59-0.52-8.52-3.29-10.3-7.58c-1.68-4.05-0.03,2.05-0.66-2.46
						c-0.62-4.47-0.59,1.86-0.04-2.63c-0.03-1.2,0.28-2.31,0.91-3.33c0.81-1.67,0.97-2.06,0.48-1.18c-0.89,1.53,3.58-3.76,1.05-1.76
						c10.47,1.35,20.94,2.7,31.41,4.05c-1.09-1.66-2.18-3.33-3.27-4.99c-5.72-8.74-17.97-13.23-27.36-7.17
						c-8.73,5.63-13.3,18-7.18,27.36c1.09,1.66,2.18,3.33,3.27,4.99c3.51,5.36,8.24,8.69,14.61,9.55c6.76,0.91,11.61-1.39,16.8-5.5
						c10.43-8.26,11.6-25.54,4.69-36.28c-8.21-12.77-25.71-16.76-38.47-8.22c-12.31,8.23-17.85,25.38-8.96,38.27
						c8.6,12.46,25.2,17.21,38.62,9.41c7.67-4.46,11.5-14.06,9.19-22.59c-2.49-9.22-9.98-16.97-19.3-19.43
						c-10.11-2.67-19.13,0.01-26.95,6.58c-10.3,8.64-5.98,25.05,4.05,31.41c5.08,3.22,10.15,6.44,15.23,9.66
						c6.77,4.29,16.11,3.15,22.21-1.56c6.84-5.29,8.43-12.8,7.17-21.02c-0.67-4.37-1.34-8.74-2.01-13.1
						c-0.71-4.62-5.34-9.7-9.19-11.95c-4.29-2.51-10.6-3.57-15.41-2.02c-4.84,1.57-9.51,4.57-11.95,9.19
						C1805.9,704.99,1805.7,709.72,1806.56,715.34L1806.56,715.34z"/>
				</g>
			</g>
		</g>
		<g id="Ebene_2_1_">
			<g>
				<g>
					<path d="M1569.35,824.37c67.94,2.34,136.11,4.67,204.05,1.26c16.34-0.82,32.69-2.02,48.92-4.15c12.9-1.7,26.14-3.48,38.43-7.97
						c9.52-3.48,18.21-8.09,23.59-17.02c3.43-5.69,5.71-12.2,7.8-18.48c6.08-18.27,9.93-37.34,13.58-56.22
						c5.25-27.13,9.52-54.46,13.4-81.82c9.43-66.49,16.64-133.31,21.95-200.26c4.62-58.25,8.51-116.95,7.07-175.41
						c-0.46-18.65-1.2-37.82-5.23-56.1c-1.28-5.82-3.13-11.92-6.35-16.97c-3.43-5.37-8.68-9.24-14.06-12.5
						c-11.97-7.25-25.77-11.85-39.09-15.93c-18.45-5.64-37.3-9.95-56.19-13.82c-53.13-10.88-107.02-18.17-160.86-24.49
						c-64.91-7.62-130.04-13.3-195.25-17.64c-67.65-4.5-135.41-7.55-203.19-8.76c-60.43-1.08-120.96-0.85-181.32,2.47
						c-44.97,2.47-90.95,5.76-134.82,16.53c-13.95,3.43-28.44,7.76-40.81,15.23c-14.28,8.62-22.43,22.28-28.04,37.66
						c-7.87,21.6-10.22,45.39-11.65,68.18c-1.85,29.4-1.17,58.95,0.46,88.35c3.79,68.62,12.89,137.01,24.33,204.74
						c9.29,55.04,19.79,110.29,35.04,164.03c4.04,14.23,8.03,29.72,15.42,42.66c5.45,9.54,15.4,16.53,25.03,21.33
						c15.9,7.93,33.32,11.96,50.79,14.56c41.38,6.17,83.3,6.02,124.92,9.67c4.57,0.4,9.14,0.85,13.7,1.37
						c1.21,0.14,2.43,0.28,3.64,0.43c0.65,0.08,4.73,0.63,0.79,0.09c2.34,0.32,4.67,0.66,7,1.03c8.62,1.38,17.2,3.12,25.56,5.64
						c1.59,0.48,3.18,0.99,4.75,1.53c0.89,0.31,1.83,0.78,2.74,0.98c1.86,0.41-4-2.06-2.35-0.99c1.38,0.89,2.94,1.54,4.33,2.42
						c1.63,1.03,3.18,2.17,4.74,3.29c3.51,2.54-2.42-1.99,0.34,0.24c1.21,0.98,2.43,1.95,3.63,2.95
						c23.08,19.13,44.04,40.9,65.42,61.86c23.67,23.19,47.26,46.8,73.07,67.64c9.37,7.57,19.13,15.53,30.13,20.67
						c5.19,2.43,10.53,4.53,16.35,4.67c5.83,0.14,10.79-1.84,16.01-4.13c12.02-5.28,23.15-12.74,33.97-20.11
						c16.49-11.23,32.41-23.33,47.93-35.85c29.45-23.75,58.75-49.42,81.09-80.19c4.76-6.56,1.12-16.72-5.38-20.52
						c-7.58-4.43-15.75-1.19-20.52,5.38c-0.64,0.88-4.59,5.94-1.87,2.56c-1.21,1.51-2.42,3.03-3.65,4.52
						c-2.88,3.46-5.85,6.85-8.89,10.17c-6.54,7.14-13.39,14-20.41,20.67c-14.76,14.03-30.26,27.27-46.2,39.92
						c-1.71,1.36-3.42,2.7-5.14,4.05c-0.32,0.25-3.74,2.89-1.05,0.82c-1.01,0.78-2.03,1.56-3.05,2.33
						c-3.96,3.02-7.95,5.99-11.97,8.93c-7,5.11-14.08,10.09-21.31,14.87c-5.86,3.88-11.81,7.65-17.93,11.11
						c-2.29,1.29-4.6,2.54-6.96,3.7c-0.99,0.48-2.41,0.85-3.27,1.53c3.16-2.48,2.58-0.99,0.28-0.2c-0.78,0.27-1.6,0.43-2.37,0.7
						c-2.63,0.96,2.71-0.09,2.08-0.24c-0.44-0.1-1.66-0.18-2.09-0.08c3.83-0.86,3.75,0.79,1.27-0.01c-0.85-0.27-1.71-0.58-2.57-0.84
						c-3.03-0.91,3.69,1.8,0.81,0.34c-2.07-1.05-4.13-2.08-6.13-3.27c-4.76-2.82-9.23-6.05-13.66-9.35
						c-0.81-0.6-3.29-2.21,0.43,0.35c-0.69-0.47-1.34-1.04-1.99-1.56c-1.25-0.99-2.5-1.99-3.73-3c-2.86-2.33-5.69-4.7-8.49-7.1
						c-25.46-21.84-49.21-45.64-73.15-69.11c-20.62-20.22-40.95-41.35-63.97-58.89c-8.9-6.79-18.37-10.57-29.26-13.36
						c-18.84-4.83-38.45-6.85-57.8-8.4c-20.3-1.62-40.64-2.45-60.97-3.64c-10.05-0.59-20.1-1.26-30.13-2.17
						c-4.62-0.42-9.23-0.89-13.83-1.44c-1.23-0.15-2.45-0.3-3.68-0.45c-3.97-0.49,2.2,0.37-0.25-0.03c-2.56-0.42-5.14-0.75-7.7-1.17
						c-8.44-1.39-16.84-3.14-25.04-5.59c-3.57-1.06-7.01-2.38-10.52-3.63c-3.23-1.15,3.06,1.51,0.03,0.01
						c-0.84-0.42-1.72-0.78-2.56-1.19c-1.65-0.8-3.27-1.65-4.85-2.56c-1.53-0.88-3.02-1.81-4.47-2.81c-0.47-0.32-0.92-0.68-1.4-0.99
						c-2.58-1.68,2.57,2.38,0.37,0.27c-1.6-1.54-3.39-3.82-5.2-5.04c3.49,2.36,2.5,3.62,1.54,1.93c-0.18-0.32-0.4-0.63-0.6-0.94
						c-0.55-0.89-1.03-1.82-1.51-2.75c-0.52-1.03-0.98-2.08-1.47-3.13c-1.48-3.19,0.99,2.49,0.54,1.3
						c-0.27-0.72-0.58-1.42-0.86-2.13c-1.28-3.25-2.44-6.55-3.55-9.86c-2.88-8.59-5.41-17.31-7.8-26.05
						c-6.55-23.96-12.07-48.2-17.19-72.5c-6.4-30.4-12.08-60.95-17.16-91.59c-2.8-16.89-5.42-33.82-7.85-50.77
						c-0.57-4.02-1.14-8.04-1.69-12.06c-0.14-1.05-0.94-6.97-0.36-2.6c-0.34-2.56-0.68-5.13-1.02-7.69
						c-1.1-8.42-2.14-16.84-3.13-25.28c-7.12-60.79-12.71-122.88-8.36-184.09c0.44-6.19,1.01-12.37,1.75-18.53
						c0.16-1.35,1.02-5.82,0.04-0.48c0.26-1.44,0.41-2.91,0.62-4.35c0.42-2.79,0.89-5.58,1.41-8.36c1.74-9.32,4.12-18.47,7.49-27.34
						c0.19-0.5,0.46-0.99,0.61-1.5c0.06-0.21-1.77,3.96-0.89,2.12c0.44-0.93,0.84-1.89,1.29-2.82c0.85-1.77,1.77-3.51,2.78-5.2
						c0.86-1.45,1.84-2.81,2.77-4.22c1.65-2.5-2.93,3.35-0.47,0.63c0.56-0.62,1.1-1.27,1.68-1.88c0.68-0.71,1.41-1.37,2.14-2.04
						c0.42-0.38,0.9-0.7,1.31-1.09c0.39-0.38-3.96,2.81-1.38,1.1c2.09-1.38,4.17-2.73,6.38-3.92c1.17-0.63,2.35-1.22,3.55-1.78
						c0.69-0.32,1.38-0.63,2.07-0.95c3.4-1.57-2.01,0.8-1.05,0.43c3.05-1.18,6.08-2.37,9.18-3.4c7.45-2.48,15.06-4.46,22.72-6.19
						c8.94-2.01,17.96-3.66,27.01-5.09c2.37-0.38,4.74-0.73,7.11-1.08c1.1-0.16,2.21-0.32,3.31-0.47c0.67-0.09,1.34-0.19,2.01-0.28
						c3.8-0.53-3.21,0.41-0.6,0.08c5.39-0.69,10.79-1.36,16.2-1.97c53.26-5.92,106.99-7.64,160.54-8.17
						c64.45-0.63,128.91,0.9,193.29,3.78c66.77,2.98,133.48,7.44,200.05,13.5c31,2.82,61.97,6,92.88,9.64
						c14.74,1.73,29.49,3.47,44.18,5.55c-3.94-0.56-0.33-0.04,1.46,0.2c1.8,0.25,3.6,0.49,5.4,0.74c3.55,0.49,7.11,0.99,10.66,1.5
						c6.62,0.95,13.25,1.93,19.86,2.94c42.37,6.49,85.21,13.59,126.29,26.12c6.93,2.11,13.81,4.42,20.53,7.13
						c0.63,0.25,1.26,0.54,1.89,0.78c-5.66-2.11-2.37-1.02-1.04-0.42c1.36,0.61,2.72,1.22,4.06,1.88c2.29,1.11,4.55,2.3,6.73,3.62
						c0.92,0.56,1.83,1.13,2.71,1.74c0.41,0.28,0.81,0.6,1.23,0.87c2.2,1.46-3.54-3.07-1.49-1.15c0.61,0.57,1.26,1.17,1.91,1.7
						c2.33,1.9-2.36-4.19-0.68-0.84c0.4,0.81,0.82,1.72,1.29,2.48c-2.43-3.97-0.97-2.52-0.12,0.07c0.89,2.7,1.56,5.48,2.12,8.27
						c0.32,1.57,0.6,3.15,0.86,4.74c0.15,0.93,0.29,1.86,0.43,2.79c0.62,3.98-0.46-3.8-0.07-0.55c0.5,4.19,0.94,8.38,1.28,12.58
						c0.83,10.43,1.22,20.9,1.41,31.37c0.49,26.34-0.23,52.71-1.38,79.03c-2.83,65-8.4,129.9-15.5,194.57
						c-1.78,16.19-3.67,32.37-5.69,48.53c-0.98,7.82-1.99,15.63-3.02,23.44c-0.12,0.88-0.6,4.44,0,0.02
						c-0.11,0.83-0.22,1.66-0.34,2.49c-0.25,1.82-0.49,3.63-0.74,5.45c-0.54,3.91-1.09,7.81-1.64,11.71
						c-3.81,26.71-8,53.39-13.12,79.88c-3.62,18.73-7.45,37.64-13.43,55.79c-0.98,2.96-2.23,5.81-3.22,8.76
						c1.99-5.96,0.66-1.55-0.14,0.08c-0.51,1.03-1.07,2.01-1.63,3.01c-0.22,0.4-0.53,0.75-0.74,1.16c-1.06,2.07,3.17-3.05,1.13-1.47
						c-0.53,0.41-1.23,1.06-1.66,1.57c-0.78,0.92-2.88-0.17,2.06-1.59c-0.48,0.14-1,0.73-1.45,0.98c-1.6,0.89-3.2,1.69-4.83,2.52
						c-2.17,1.09,3.89-1.42,1.53-0.66c-0.55,0.18-1.09,0.42-1.64,0.62c-1.16,0.42-2.34,0.82-3.52,1.19
						c-5.34,1.68-10.82,2.89-16.31,3.93c-3.07,0.58-6.14,1.09-9.23,1.55c-1.2,0.18-7.35,1.25-2.31,0.35
						c-1.85,0.33-3.77,0.48-5.64,0.7c-16.55,1.93-33.2,2.97-49.85,3.68c-37.23,1.59-74.54,1.47-111.8,0.8
						c-28.26-0.5-56.51-1.44-84.77-2.41c-8.1-0.28-15,7.09-15,15C1554.35,817.73,1561.22,824.09,1569.35,824.37L1569.35,824.37z"/>
				</g>
			</g>
		</g>
		<g id="Ebene_10">
			<g>
				<g>
					<path class="st3" d="M1218.37,235.5c60.47,60.49,119.78,122.12,178.24,184.55c57.5,61.41,114.18,123.58,170.42,186.15
						c31.26,34.77,62.37,69.67,93.43,104.62c12.2,13.73,37.23,13.37,49.5,0c13.45-14.65,13.01-34.85,0-49.5
						C1654.58,599,1599,536.85,1542.81,475.25c-57.1-62.6-114.82-124.63-173.52-185.72c-33.47-34.84-67.26-69.36-101.41-103.52
						c-12.96-12.97-36.71-13.93-49.5,0C1205.54,199.97,1204.54,221.66,1218.37,235.5L1218.37,235.5z"/>
				</g>
			</g>
			<g>
				<g>
					<path class="st3" d="M1249.87,702.49c66.65-66.66,132.43-134.16,197.09-202.76c47.87-50.78,95.21-102.06,143.48-152.46
						c31.98-33.39,64.35-66.41,97.04-99.11c12.96-12.97,13.93-36.71,0-49.5c-13.97-12.82-35.66-13.84-49.5,0
						c-54.38,54.39-107.67,109.83-160.27,165.94c-51.05,54.45-101.93,109.04-153.76,162.74c-40.8,42.27-82.04,84.11-123.58,125.66
						c-12.96,12.96-13.93,36.71,0,49.5C1214.34,715.32,1236.04,716.33,1249.87,702.49L1249.87,702.49z"/>
				</g>
			</g>
		</g>
		<g id="Ebene_9">
			<g class="st4">
				<path d="M936.43,124.88c0,281,312.26,612.99,525.2,782.43c-26.36,7.04-59.46-30.06-117.44-76.2
					c-81.95-65.2-59.06-73.17-104.65-91.42c-37.87-15.16-84.13-11.05-124.91-12.35c-37.58-1.19-84.58-7.83-108.65-26.8
					c-31.75-25.02-88.42-342.47-81.78-537.55"/>
				<g>
					<path d="M926.43,124.88c0.09,58.33,12.98,116.13,32.75,170.79c21.92,60.61,51.91,118.12,86.08,172.67
						c36.25,57.87,77.34,112.69,121.16,165.03c43.23,51.62,89.31,100.85,137.53,147.83c43.24,42.12,88.22,82.51,135.02,120.63
						c5.17,4.21,10.36,8.39,15.58,12.54c1.47-5.57,2.94-11.14,4.41-16.71c-0.71,0.18-1.42,0.32-2.13,0.47
						c2.65-0.55,0.41-0.03-0.23-0.02c-1.24,0.02-2.46,0.04-3.7-0.03c-2.84-0.14,0.92,0.39-1.92-0.31c-1.6-0.39-3.18-0.8-4.75-1.33
						c-0.82-0.28-1.63-0.59-2.44-0.9c1.8,0.71-0.08-0.03-0.52-0.24c-1.59-0.76-3.16-1.53-4.71-2.36c-3.43-1.86-6.74-3.95-9.98-6.14
						c-17.2-11.63-32.69-25.78-48.55-39.12c-31.04-26.11-63.96-50.14-90.15-81.42c-5.22-6.24-10.13-12.87-16.21-18.32
						c-7.61-6.82-16.42-11.55-25.76-15.53c-46.11-19.63-96.58-12.66-145.27-15.64c-22.2-1.36-44.66-4.36-65.8-11.54
						c-8.68-2.95-16.95-6.84-24.38-12.25c-1.1-0.8,0.95,1.18-0.4-0.4c-0.31-0.36-0.67-0.72-1.01-1.05c-1.09-1.07-0.6-1.82,0.34,0.52
						c-0.24-0.6-0.88-1.21-1.25-1.76c-1.82-2.71-3.33-5.63-4.73-8.58c-0.46-0.96-0.9-1.93-1.33-2.9c-0.32-0.73-1.54-3.74-0.34-0.74
						c-0.84-2.1-1.7-4.2-2.5-6.32c-3.98-10.56-7.28-21.39-10.33-32.25c-18.82-67.05-30.02-136.56-39.3-205.48
						c-10.89-80.86-18.4-162.71-17.93-244.37c0.05-8.9,0.22-17.79,0.52-26.69c0.43-12.87-19.57-12.86-20,0
						c-2.71,81.49,4.09,163.42,13.98,244.25c9.08,74.3,20.55,148.9,39.14,221.48c5.57,21.78,11.47,44.22,21.48,64.46
						c3.48,7.03,7.68,12.81,14.06,17.44c17.08,12.42,39.22,17.99,59.7,21.55c23.91,4.16,48.05,5.36,72.28,5.47
						c24.88,0.12,50.2-0.58,74.78,3.99c6.04,1.12,12.03,2.55,17.89,4.38c2.64,0.82,5.25,1.73,7.83,2.72
						c1.09,0.42,2.16,0.86,3.24,1.29c1.89,0.77-1.11-0.51,1.2,0.51c4.8,2.12,9.54,4.4,13.97,7.22c0.81,0.52,1.61,1.05,2.39,1.6
						c1.07,0.75,2.49,1.99,0.6,0.39c1.58,1.35,3.18,2.65,4.67,4.11c2.81,2.73,5.36,5.72,7.86,8.73c7.64,9.19,15.3,18.28,23.72,26.77
						c16.14,16.27,33.97,30.55,51.74,44.96c19.1,15.49,37.46,31.91,56.78,47.14c12.72,10.03,26.58,21.11,42.59,25.25
						c6.65,1.72,13.51,1.93,20.19,0.25c6.74-1.69,10.4-11.95,4.41-16.71c-45.87-36.53-89.98-75.28-132.45-115.71
						c-47.83-45.52-93.63-93.22-136.83-143.16c-44.02-50.86-85.35-104.16-122.32-160.4c-35.04-53.3-66.6-109.43-90.32-168.74
						c-21.31-53.3-36.82-109.75-39.81-166.89c-0.36-6.8-0.53-13.61-0.54-20.42C946.41,112.02,926.41,111.99,926.43,124.88
						L926.43,124.88z"/>
				</g>
			</g>
		</g>
	</g>
</g>
<g id="Ebene_24_Kopie_2">
	<g>
		<path class="st3" d="M1166.13,1768.9c-15-90.79-83.45-166.46-165.06-209.59s-175.31-57.78-267.5-63.82
			c-94.39-6.19-192.78-3.24-278.03,37.59c-103.55,49.6-173.56,147.67-238.99,241.75c315.09,53.32,639.5,51.56,953.98-5.17"/>
		<g>
			<path d="M1170.42,1765.21c-11.78-69.89-54.65-130.44-109.33-174.03c-62.12-49.51-139.23-75.52-216.68-89
				c-41.49-7.22-83.53-11.13-125.57-13.34c-41.62-2.19-83.42-2.26-124.91,2.07c-40.74,4.26-81.09,13.04-119.09,28.52
				c-35.07,14.29-67.39,34.38-96.68,58.31c-58.61,47.9-104.47,109.22-147.74,170.75c-5.41,7.69-10.79,15.41-16.16,23.13
				c-1.42,2.04-4.24,8.13,0.15,8.87c123.12,20.79,247.62,33.26,372.42,37.28c124.52,4.02,249.28-0.37,373.22-13.02
				c70.15-7.16,140.02-17.03,209.41-29.52c4.55-0.82,8.36-12.25,2.1-11.12c-123.17,22.18-247.81,36-372.85,41.3
				c-124.1,5.26-248.56,2.21-372.26-9.15c-69.58-6.39-138.9-15.44-207.79-27.08c0.05,2.96,0.1,5.91,0.15,8.87
				c42.32-60.84,85.44-122.4,140.17-172.9c26.96-24.88,56.68-46.75,89.43-63.4c36.12-18.36,75.4-29.68,115.32-36.03
				c40.41-6.42,81.48-7.8,122.33-6.7c41.1,1.1,82.29,4.19,123.04,9.71c78.48,10.62,157.65,31.97,223.81,76.99
				c56.94,38.74,104.66,94.94,123.42,162.12c2.28,8.15,4.09,16.42,5.49,24.76c0.5,2.94,3.97,1.86,5.5,0.62
				C1169.66,1771.34,1170.91,1768.12,1170.42,1765.21L1170.42,1765.21z"/>
		</g>
	</g>
	<g>
		<g>
			<path d="M666.32,1643.12c19.22-20.42,35.06-43.8,54.28-64.22c-2.18,0.52-4.36,1.04-6.55,1.56c15.76,18.4,31.53,36.8,47.29,55.21
				c3.9,4.55,11.54-6.12,8.22-10.01c-15.76-18.4-31.53-36.8-47.29-55.21c-2.05-2.4-4.95-0.14-6.55,1.56
				c-19.22,20.42-35.06,43.8-54.28,64.22c-1.7,1.8-3.5,6.2-1.67,8.44C661.79,1647.16,664.77,1644.77,666.32,1643.12L666.32,1643.12z
				"/>
		</g>
	</g>
	<g>
		<g>
			<path d="M765.55,1636.13c48.36-21.74,92.57-59.39,120.29-104.71c0.99-1.62,2.62-6.66-0.13-7.72
				c-18.69-7.23-37.37-14.47-56.06-21.7c-5.19-2.01-11.44,9.61-6.62,11.47c18.69,7.23,37.37,14.47,56.06,21.7
				c-0.04-2.57-0.09-5.15-0.13-7.72c-26.06,42.61-68.24,77.38-113.59,97.77C760.71,1627.3,758.37,1639.36,765.55,1636.13
				L765.55,1636.13z"/>
		</g>
	</g>
	<g>
		<g>
			<path d="M613.01,1493.85c-18.08,6.7-36.16,13.4-54.24,20.1c-3.45,1.28-7.04,6.02-5.72,9.91
				c17.67,52.04,55.29,96.57,104.37,121.56c4.89,2.49,11.4-9.04,6.62-11.47c-47.71-24.3-84.6-67.33-101.8-117.99
				c-1.91,3.3-3.81,6.6-5.72,9.91c18.08-6.7,36.16-13.4,54.24-20.1c2.98-1.1,5.23-3.99,5.77-7.14
				C616.88,1496.55,616.05,1492.72,613.01,1493.85L613.01,1493.85z"/>
		</g>
	</g>
	<g>
		<g>
			<path d="M709.89,1584.27c2.13,73.87,3.77,148.08-2.13,221.82c-0.24,2.98,2.58,3.93,4.87,2.81c2.95-1.44,4.44-5.05,4.68-8.11
				c5.91-73.75,4.26-147.95,2.13-221.82c-0.08-2.9-2.36-4.04-4.87-2.81C711.87,1577.49,709.81,1581.3,709.89,1584.27L709.89,1584.27
				z"/>
		</g>
	</g>
</g>
<g id="Ebene_31">
	<g>
		<path class="st5" d="M441.73,1543.49c-93.31,51-169.84,133.36-214.82,231.18c83.36,9.01,167.21,14.18,250.09,27.03
			c49.41,7.66,65.04-31.08,68.09-66.73s-14.13-69.92-34.84-98.79s-45.56-54.95-61.77-86.68"/>
		<g>
			<path class="st5" d="M441.64,1538.03c-74.46,40.86-137.73,100.77-183.77,172.05c-13.26,20.53-24.92,42.01-35.16,64.19
				c-0.92,2-1.04,6.13,1.92,6.45c45.28,4.88,90.67,8.65,135.99,13.12c22.49,2.22,44.97,4.61,67.39,7.41
				c11.37,1.42,22.74,2.94,34.08,4.59c9.44,1.38,18.88,3.32,28.47,2.77c29.11-1.67,47.41-23.91,54.86-50.49
				c4.18-14.92,5.89-30.93,4.07-46.33c-2.34-19.77-9.62-38.42-19.23-55.75c-22.09-39.8-56.7-71.02-77.67-111.56
				c-2.53-4.89-10.6,5.4-8.22,10.01c32.58,63,108.36,114.81,94.48,194.08c-1.97,11.27-5.4,22.98-12.53,32.14
				c-7.47,9.59-18.43,14.82-30.48,15.74c-8.85,0.68-17.56-1-26.28-2.29c-10.69-1.58-21.4-3.04-32.12-4.41
				c-21.12-2.69-42.28-5.01-63.46-7.15c-48.24-4.87-96.58-8.81-144.79-14c0.64,2.15,1.28,4.3,1.92,6.45
				c34.27-74.2,87.25-139.43,152.51-188.59c18.46-13.91,37.95-26.4,58.21-37.52c2.67-1.47,4.84-5.03,4.68-8.11
				C446.36,1538.02,444.2,1536.62,441.64,1538.03L441.64,1538.03z"/>
		</g>
	</g>
	<g>
		<path class="st5" d="M992.06,1562.1c-39.05,17.29-70.21,52.26-83.4,93.58c-13.19,41.32,2.09,106.16,23.66,143.63
			c74.54-9.1,149.08-18.19,223.62-27.29c4.86-0.59,8.5-6.17,7.17-10.98c-23.31-84.23-84.4-156.72-162.5-192.81"/>
		<g>
			<path class="st5" d="M991.96,1556.63c-35.47,15.93-63.94,45.29-80.33,80.38c-7.72,16.52-11.99,33.71-12.58,51.94
				c-0.62,19.3,2.14,38.79,6.73,57.51c4.93,20.09,12.16,39.84,22.41,57.84c0.62,1.08,1.95,1.08,2.99,0.95
				c39.58-4.83,79.16-9.66,118.73-14.49c19.79-2.41,39.58-4.83,59.37-7.24c9.89-1.21,19.79-2.42,29.68-3.62
				c7.96-0.97,17.78-0.25,23.71-6.49c5.25-5.52,6.23-12.16,4.19-19.24c-2.09-7.27-4.47-14.46-7.12-21.55
				c-5.24-14.03-11.54-27.7-18.76-40.82c-14.51-26.38-32.9-50.62-54.4-71.7c-24.15-23.67-52-43.33-82.67-57.61
				c-5-2.33-11.43,9.23-6.62,11.47c51.28,23.87,94.65,62.76,125.09,110.34c15.27,23.87,27.17,49.82,35.09,77.04
				c0.33,1.12,1.54,3.46,1.11,4.53c0.16-0.4-1.19,0.09-1.53,0.18c-4.63,1.25-10.09,1.23-14.84,1.81c-9.23,1.13-18.47,2.25-27.7,3.38
				c-18.47,2.25-36.94,4.51-55.41,6.76c-41.89,5.11-83.77,10.22-125.66,15.34c1,0.32,1.99,0.64,2.99,0.95
				c-16.97-29.78-26.63-65.51-27.79-99.71c-0.57-16.78,1.57-32.86,7.8-48.49c6.45-16.18,15.97-31.03,27.68-43.91
				c13.42-14.76,29.87-26.48,48.05-34.64C996.81,1565.46,999.15,1553.41,991.96,1556.63L991.96,1556.63z"/>
		</g>
	</g>
</g>
<g id="Ebene_32">
	<ellipse class="st6" cx="443.6" cy="1610.59" rx="19.67" ry="20.09"/>
	<ellipse class="st6" cx="488.18" cy="1680.7" rx="19.67" ry="20.09"/>
	<ellipse class="st6" cx="498.94" cy="1766.37" rx="19.67" ry="20.09"/>
	<ellipse class="st6" cx="1011.73" cy="1607.57" rx="19.67" ry="20.09"/>
	<ellipse class="st6" cx="964.66" cy="1680.7" rx="19.67" ry="20.09"/>
	<ellipse class="st6" cx="957.6" cy="1753.1" rx="19.67" ry="20.09"/>
</g>
<g id="Ebene_24">
	<g>
		<path class="st7" d="M958.94,1554.38c-42.26,21.33-75.31,60.91-89.25,106.89s-8.57,97.7,14.5,139.68
			c12.69-0.99,25.37-1.97,38.06-2.96c-27.37-35.32-32.65-90.29-9.05-128.34c24-38.7,51.62-66.78,78.85-107.55
			c-11.5-4.51-23-9.01-34.5-13.52"/>
		<g>
			<path class="st8" d="M958.85,1548.92c-69.97,35.71-110.2,114.69-99.85,192.24c3.04,22.75,10.13,44.62,21.09,64.79
				c0.45,0.63,1.06,0.98,1.83,1.06c12.69-0.99,25.37-1.97,38.06-2.96c4.09-0.32,9.42-7.09,6.39-11.06
				c-18.79-24.61-27-57.41-21.93-87.99c2.69-16.23,9.6-29.75,18.62-43.33c10.2-15.34,21.59-29.85,32.97-44.33
				c13.66-17.39,27.15-34.88,39.48-53.25c1.07-1.6,2.56-6.67-0.13-7.72c-11.5-4.51-23-9.01-34.5-13.52
				c-5.18-2.03-11.44,9.58-6.62,11.47c11.5,4.51,23,9.01,34.5,13.52c-0.04-2.57-0.09-5.15-0.13-7.72
				c-22.43,33.43-49.6,63.35-71.95,96.83c-9.73,14.57-17.41,29.49-20.86,46.81c-3.22,16.13-3.01,32.87,0.11,49
				c3.51,18.13,11.02,35.55,22.24,50.24c2.13-3.69,4.26-7.38,6.39-11.06c-5.71,0.44-11.42,0.89-17.13,1.33
				c-2.85,0.22-5.71,0.44-8.56,0.67c-2.11,0.16-8.55,1.71-10.47,0.81c-3.07-1.43-5.3-9.04-6.65-12.16
				c-2.14-4.92-4.05-9.93-5.73-15.02c-6.63-20.03-9.68-41.1-9.07-62.19c1.14-39.41,16.18-77.22,42.18-106.82
				c14.02-15.96,31.02-29.06,49.93-38.71c2.7-1.38,4.84-5.09,4.68-8.11C963.57,1548.84,961.43,1547.6,958.85,1548.92L958.85,1548.92
				z"/>
		</g>
	</g>
	<g>
		<path class="st7" d="M449.84,1548.58c38.53,47.77,67.56,76.31,87.83,111.61c23.76,41.37,4.23,99.04-13.98,143.25
			c20.38,2.89,48.15,9.77,56.21-21.23c21.43-82.45,6.59-161.57-52.44-210.38c-7.71-6.38-13.15-15.09-19.43-22.94
			s-14.05-15.25-23.77-17.28c-9.72-2.03-25.41,7.6-36.23,14.45"/>
		<g>
			<path class="st8" d="M445.73,1553.58c23.82,29.48,50.08,57.2,72.35,87.89c9.69,13.35,19.31,27.37,23.23,43.6
				c4.42,18.26,2.64,37.5-1.22,55.69c-4.55,21.44-12.29,42.06-20.61,62.29c-0.86,2.1-1.08,6.02,1.92,6.45
				c20.06,2.89,42.93,6.88,56.21-12.51c8.21-11.98,10.25-28.46,12.58-42.48c2.44-14.72,3.79-29.68,3.78-44.61
				c-0.02-28.06-4.97-56.44-16.44-82.15c-5.59-12.54-12.53-24.41-20.97-35.25c-4.31-5.53-8.99-10.79-13.98-15.72
				c-5.09-5.03-10.92-9.34-15.85-14.52c-11.67-12.24-19.46-30.11-36.67-35.74c-14.56-4.77-30.42,6.68-42.12,14.07
				c-2.62,1.65-4.85,4.9-4.68,8.11c0.14,2.67,2.34,4.4,4.87,2.81c5.57-3.52,11.19-7.01,17.13-9.89c5.03-2.44,11.02-5.06,16.73-3.96
				c14.32,2.76,22.85,17.76,31.12,28.25c8.29,10.53,19.38,18.29,28.3,28.28c8.27,9.27,15.47,19.48,21.42,30.38
				c25.61,46.86,25.99,103.15,13.65,153.97c-1.4,5.76-2.84,11.87-7.39,16.03c-3.42,3.14-8.06,4.51-12.56,5.16
				c-10.11,1.45-20.58-0.92-30.57-2.35c0.64,2.15,1.28,4.3,1.92,6.45c14.76-35.91,29.72-76.21,24.6-115.7
				c-4.52-34.8-30.27-63.33-52.08-89.21c-15.53-18.42-31.31-36.61-46.45-55.35C450.21,1538.95,442.5,1549.59,445.73,1553.58
				L445.73,1553.58z"/>
		</g>
	</g>
</g>
<g id="Ebene_21">
	<g>
		<path class="st9" d="M713.52,1593.05c-14.37,54.77-38.83,109.43-71.74,155.1c13.01,3.05,49.18,4.94,49.18,4.94
			s15.76-18.26,16.01-31.89c0.79-43.53,1.58-87.05,2.38-130.58"/>
		<g>
			<path d="M708.88,1594.23c-14.15,53.56-37.2,105.39-69.54,150.48c-1.68,2.35-4.42,8.47,0.16,9.5c11.43,2.58,23.42,3.2,35.08,4.04
				c4.21,0.31,8.45,0.71,12.68,0.82c3.28,0.08,5.2-1.4,7.25-3.88c7.6-9.2,15.25-20.88,16.93-32.92c1.34-9.58,0.6-19.77,0.77-29.44
				c0.2-10.88,0.4-21.76,0.59-32.64c0.44-24.07,0.88-48.14,1.31-72.21c0.05-2.94-2.45-3.99-4.87-2.81c-2.82,1.38-4.63,5.1-4.68,8.11
				c-0.59,32.64-1.19,65.29-1.78,97.93c-0.15,8.24-0.3,16.49-0.45,24.73c-0.11,5.95-0.08,10.99-2.55,16.48
				c-2.79,6.21-6.84,12.06-11.26,17.22c1.57-0.87,3.14-1.75,4.72-2.62c-16.28-0.86-33.24-1.34-49.18-4.94
				c0.05,3.17,0.11,6.33,0.16,9.5c34.45-48.04,58.87-102.66,73.95-159.73c0.67-2.52-0.68-5.28-3.52-4.78
				C711.5,1587.65,709.59,1591.53,708.88,1594.23L708.88,1594.23z"/>
		</g>
	</g>
	<g>
		<path class="st10" d="M712.19,1592.73c-0.03,43.56-8.91,87.1-25.91,127.05c16.06,11.19,41.56,7.23,41.56,7.23
			s17.68-27.55,16.15-43.79c-1.53-16.24-8.38-31.39-14.99-46.24c-6.61-14.85-13.18-30.19-14.08-46.48"/>
		<g>
			<path d="M707.41,1595.38c-0.15,42.62-8.76,84.75-25.33,124.01c-0.79,1.86-1.04,4.84,0.89,6.13c10.54,7.02,23.88,8.75,36.3,8.13
				c2.93-0.15,6.73,0.12,9.27-1.59c2.43-1.64,4.05-5.11,5.49-7.61c5.79-10.05,11.05-20.82,13.65-32.18
				c3.55-15.46-2.42-31.77-8.29-45.93c-7.86-18.97-18.27-37.6-19.69-58.48c-0.53-7.83-9.9,0.21-9.55,5.3
				c2.11,30.96,22.14,56.08,28.06,85.99c2.17,10.96-0.54,20.08-5.16,30.05c-2.52,5.44-5.42,10.78-8.65,15.84
				c1.52-1.32,3.04-2.65,4.56-3.97c-13.03,1.97-28.26,0.38-39.37-7.01c0.3,2.04,0.59,4.08,0.89,6.13
				c17.36-41.12,26.33-85.46,26.49-130.09c0.01-2.93-2.43-4.01-4.87-2.81C709.31,1588.63,707.42,1592.37,707.41,1595.38
				L707.41,1595.38z"/>
		</g>
	</g>
	<g>
		<path class="st10" d="M715.79,1596.63c5.53,33.44,11.05,66.87,16.58,100.31c1.91,11.54,5.04,20.25,16.48,19.57
			c11.44-0.68,31.37-8.69,41.16-14.76c-8.97-47.29-35.6-90.86-73.26-119.87"/>
		<g>
			<path d="M711.19,1600.58c3.14,19.01,6.28,38.03,9.43,57.04c1.52,9.18,3.03,18.36,4.55,27.54c1.29,7.78,2.01,15.89,4.28,23.46
				c1.41,4.71,3.79,9.65,8.27,12.14c4.8,2.66,10.57,1.95,15.72,0.94c12.67-2.48,25.63-7.79,36.66-14.47
				c3.09-1.87,5.21-5.79,4.5-9.41c-9.3-47.95-35.96-91.68-74.55-121.66c-4.09-3.18-11.03,8.05-6.62,11.47
				c37.41,29.06,62.98,71.67,71.98,118.09c1.5-3.14,3-6.27,4.5-9.41c-10.04,6.09-21.5,10.73-32.98,13.22
				c-4.6,1-10.35,2.08-14.24-1.35c-3.72-3.29-4.67-9.19-5.5-13.8c-6.12-33.79-11.21-67.8-16.81-101.68
				c-0.52-3.16-4.26-1.99-5.9-0.66C712,1594.03,710.67,1597.46,711.19,1600.58L711.19,1600.58z"/>
		</g>
	</g>
</g>
<g id="Ebene_23">
	<g>
		<g>
			<g>
				<path d="M441.03,1547.05c25.37,35.09,49.07,71.34,74.27,106.55c10.18,14.21,17.85,28.64,21.56,45.88
					c3.59,16.7,3.5,34.18,0.06,50.9c-3.78,18.35-11.85,35.55-24.28,49.63c-1.65,1.86-3.53,6.16-1.67,8.44
					c1.98,2.43,5.04,0.14,6.55-1.56c24.05-27.25,34.73-65.53,30.76-101.44c-1.97-17.81-7.35-35.23-16.85-50.49
					c-5.53-8.89-12.09-17.2-18.1-25.77c-6.62-9.45-13.17-18.96-19.71-28.47c-14.65-21.32-29.21-42.71-44.37-63.67
					C445.82,1532.3,438,1542.86,441.03,1547.05L441.03,1547.05z"/>
			</g>
		</g>
		<g>
			<g>
				<path d="M483.17,1527.06c27.1,31.11,59.47,58.79,81.62,93.9c22.08,34.99,29.68,78.25,24.73,119.07
					c-2.86,23.57-9.84,46.52-21.02,67.49c-1.08,2.03-2.52,6.19,0.13,7.72c2.55,1.47,5.71-1.79,6.75-3.75
					c20.86-39.13,29.12-84.42,23.12-128.39c-2.86-20.97-8.77-41.45-18.62-60.23c-9.49-18.1-22.37-34.08-36.02-49.18
					c-17.26-19.09-35.56-37.21-52.48-56.63C487.44,1512.53,479.82,1523.21,483.17,1527.06L483.17,1527.06z"/>
			</g>
		</g>
	</g>
	<g>
		<g>
			<g>
				<path d="M441.03,1547.05c25.37,35.09,49.07,71.34,74.27,106.55c10.18,14.21,17.85,28.64,21.56,45.88
					c3.59,16.7,3.5,34.18,0.06,50.9c-3.78,18.35-11.85,35.55-24.28,49.63c-1.65,1.86-3.53,6.16-1.67,8.44
					c1.98,2.43,5.04,0.14,6.55-1.56c24.05-27.25,34.73-65.53,30.76-101.44c-1.97-17.81-7.35-35.23-16.85-50.49
					c-5.53-8.89-12.09-17.2-18.1-25.77c-6.62-9.45-13.17-18.96-19.71-28.47c-14.65-21.32-29.21-42.71-44.37-63.67
					C445.82,1532.3,438,1542.86,441.03,1547.05L441.03,1547.05z"/>
			</g>
		</g>
		<g>
			<g>
				<path d="M483.17,1527.06c27.1,31.11,59.47,58.79,81.62,93.9c22.08,34.99,29.68,78.25,24.73,119.07
					c-2.86,23.57-9.84,46.52-21.02,67.49c-1.08,2.03-2.52,6.19,0.13,7.72c2.55,1.47,5.71-1.79,6.75-3.75
					c20.86-39.13,29.12-84.42,23.12-128.39c-2.86-20.97-8.77-41.45-18.62-60.23c-9.49-18.1-22.37-34.08-36.02-49.18
					c-17.26-19.09-35.56-37.21-52.48-56.63C487.44,1512.53,479.82,1523.21,483.17,1527.06L483.17,1527.06z"/>
			</g>
		</g>
	</g>
	<g>
		<g>
			<g>
				<path d="M441.03,1547.05c25.37,35.09,49.07,71.34,74.27,106.55c10.18,14.21,17.85,28.64,21.56,45.88
					c3.59,16.7,3.5,34.18,0.06,50.9c-3.78,18.35-11.85,35.55-24.28,49.63c-1.65,1.86-3.53,6.16-1.67,8.44
					c1.98,2.43,5.04,0.14,6.55-1.56c24.05-27.25,34.73-65.53,30.76-101.44c-1.97-17.81-7.35-35.23-16.85-50.49
					c-5.53-8.89-12.09-17.2-18.1-25.77c-6.62-9.45-13.17-18.96-19.71-28.47c-14.65-21.32-29.21-42.71-44.37-63.67
					C445.82,1532.3,438,1542.86,441.03,1547.05L441.03,1547.05z"/>
			</g>
		</g>
		<g>
			<g>
				<path d="M483.17,1527.06c27.1,31.11,59.47,58.79,81.62,93.9c22.08,34.99,29.68,78.25,24.73,119.07
					c-2.86,23.57-9.84,46.52-21.02,67.49c-1.08,2.03-2.52,6.19,0.13,7.72c2.55,1.47,5.71-1.79,6.75-3.75
					c20.86-39.13,29.12-84.42,23.12-128.39c-2.86-20.97-8.77-41.45-18.62-60.23c-9.49-18.1-22.37-34.08-36.02-49.18
					c-17.26-19.09-35.56-37.21-52.48-56.63C487.44,1512.53,479.82,1523.21,483.17,1527.06L483.17,1527.06z"/>
			</g>
		</g>
	</g>
	<g>
		<g>
			<g>
				<path d="M441.03,1547.05c25.37,35.09,49.07,71.34,74.27,106.55c10.18,14.21,17.85,28.64,21.56,45.88
					c3.59,16.7,3.5,34.18,0.06,50.9c-3.78,18.35-11.85,35.55-24.28,49.63c-1.65,1.86-3.53,6.16-1.67,8.44
					c1.98,2.43,5.04,0.14,6.55-1.56c24.05-27.25,34.73-65.53,30.76-101.44c-1.97-17.81-7.35-35.23-16.85-50.49
					c-5.53-8.89-12.09-17.2-18.1-25.77c-6.62-9.45-13.17-18.96-19.71-28.47c-14.65-21.32-29.21-42.71-44.37-63.67
					C445.82,1532.3,438,1542.86,441.03,1547.05L441.03,1547.05z"/>
			</g>
		</g>
		<g>
			<g>
				<path d="M483.17,1527.06c27.1,31.11,59.47,58.79,81.62,93.9c22.08,34.99,29.68,78.25,24.73,119.07
					c-2.86,23.57-9.84,46.52-21.02,67.49c-1.08,2.03-2.52,6.19,0.13,7.72c2.55,1.47,5.71-1.79,6.75-3.75
					c20.86-39.13,29.12-84.42,23.12-128.39c-2.86-20.97-8.77-41.45-18.62-60.23c-9.49-18.1-22.37-34.08-36.02-49.18
					c-17.26-19.09-35.56-37.21-52.48-56.63C487.44,1512.53,479.82,1523.21,483.17,1527.06L483.17,1527.06z"/>
			</g>
		</g>
	</g>
	<g>
		<g>
			<g>
				<path d="M441.03,1547.05c25.37,35.09,49.07,71.34,74.27,106.55c10.18,14.21,17.85,28.64,21.56,45.88
					c3.59,16.7,3.5,34.18,0.06,50.9c-3.78,18.35-11.85,35.55-24.28,49.63c-1.65,1.86-3.53,6.16-1.67,8.44
					c1.98,2.43,5.04,0.14,6.55-1.56c24.05-27.25,34.73-65.53,30.76-101.44c-1.97-17.81-7.35-35.23-16.85-50.49
					c-5.53-8.89-12.09-17.2-18.1-25.77c-6.62-9.45-13.17-18.96-19.71-28.47c-14.65-21.32-29.21-42.71-44.37-63.67
					C445.82,1532.3,438,1542.86,441.03,1547.05L441.03,1547.05z"/>
			</g>
		</g>
		<g>
			<g>
				<path d="M483.17,1527.06c27.1,31.11,59.47,58.79,81.62,93.9c22.08,34.99,29.68,78.25,24.73,119.07
					c-2.86,23.57-9.84,46.52-21.02,67.49c-1.08,2.03-2.52,6.19,0.13,7.72c2.55,1.47,5.71-1.79,6.75-3.75
					c20.86-39.13,29.12-84.42,23.12-128.39c-2.86-20.97-8.77-41.45-18.62-60.23c-9.49-18.1-22.37-34.08-36.02-49.18
					c-17.26-19.09-35.56-37.21-52.48-56.63C487.44,1512.53,479.82,1523.21,483.17,1527.06L483.17,1527.06z"/>
			</g>
		</g>
	</g>
	<g>
		<g>
			<g>
				<path d="M441.03,1547.05c25.37,35.09,49.07,71.34,74.27,106.55c10.18,14.21,17.85,28.64,21.56,45.88
					c3.59,16.7,3.5,34.18,0.06,50.9c-3.78,18.35-11.85,35.55-24.28,49.63c-1.65,1.86-3.53,6.16-1.67,8.44
					c1.98,2.43,5.04,0.14,6.55-1.56c24.05-27.25,34.73-65.53,30.76-101.44c-1.97-17.81-7.35-35.23-16.85-50.49
					c-5.53-8.89-12.09-17.2-18.1-25.77c-6.62-9.45-13.17-18.96-19.71-28.47c-14.65-21.32-29.21-42.71-44.37-63.67
					C445.82,1532.3,438,1542.86,441.03,1547.05L441.03,1547.05z"/>
			</g>
		</g>
		<g>
			<g>
				<path d="M483.17,1527.06c27.1,31.11,59.47,58.79,81.62,93.9c22.08,34.99,29.68,78.25,24.73,119.07
					c-2.86,23.57-9.84,46.52-21.02,67.49c-1.08,2.03-2.52,6.19,0.13,7.72c2.55,1.47,5.71-1.79,6.75-3.75
					c20.86-39.13,29.12-84.42,23.12-128.39c-2.86-20.97-8.77-41.45-18.62-60.23c-9.49-18.1-22.37-34.08-36.02-49.18
					c-17.26-19.09-35.56-37.21-52.48-56.63C487.44,1512.53,479.82,1523.21,483.17,1527.06L483.17,1527.06z"/>
			</g>
		</g>
	</g>
	<g>
		<g>
			<g>
				<path d="M992.86,1559.71c-24.93,33.32-48.57,67.6-73.15,101.18c-19.47,26.6-25.35,61.3-17.99,93.23
					c4.07,17.68,12.4,34.41,24.65,47.84c3.71,4.07,10.63-5.71,7.5-9.14c-20.8-22.8-29.93-55.11-25.46-85.55
					c2.15-14.61,7.37-28.74,16.17-40.66c11.56-15.66,22.95-31.44,34.23-47.3c12.7-17.87,25.37-35.76,38.5-53.31
					c1.38-1.84,3.3-5.52,1.52-7.71C997.11,1556.16,994.11,1558.03,992.86,1559.71L992.86,1559.71z"/>
			</g>
		</g>
		<g>
			<g>
				<path d="M953.71,1541.77c-26.6,29.48-58.45,55.51-79.34,89.69c-20.3,33.22-26.99,74.12-21.81,112.44
					c3.02,22.32,10.1,43.76,20.98,63.49c2.46,4.46,9.79-4.98,7.5-9.14c-18.38-33.33-25.39-72.73-19.33-110.34
					c2.88-17.9,8.54-35.22,17.77-50.87c8.81-14.92,20.31-28.05,32.19-40.58c15.39-16.24,31.49-31.78,46.49-48.4
					C962.35,1543.41,959.1,1535.81,953.71,1541.77L953.71,1541.77z"/>
			</g>
		</g>
	</g>
</g>
<g id="Ebene_24_Kopie_3">
	<g>
		<g>
			<path d="M1170.42,1765.21c-11.78-69.89-54.65-130.44-109.33-174.03c-62.12-49.51-139.23-75.52-216.68-89
				c-41.49-7.22-83.53-11.13-125.57-13.34c-41.62-2.19-83.42-2.26-124.91,2.07c-40.74,4.26-81.09,13.04-119.09,28.52
				c-35.07,14.29-67.39,34.38-96.68,58.31c-58.61,47.9-104.47,109.22-147.74,170.75c-5.41,7.69-10.79,15.41-16.16,23.13
				c-1.42,2.04-4.24,8.13,0.15,8.87c123.12,20.79,247.62,33.26,372.42,37.28c124.52,4.02,249.28-0.37,373.22-13.02
				c70.15-7.16,140.02-17.03,209.41-29.52c4.55-0.82,8.36-12.25,2.1-11.12c-123.17,22.18-247.81,36-372.85,41.3
				c-124.1,5.26-248.56,2.21-372.26-9.15c-69.58-6.39-138.9-15.44-207.79-27.08c0.05,2.96,0.1,5.91,0.15,8.87
				c42.32-60.84,85.44-122.4,140.17-172.9c26.96-24.88,56.68-46.75,89.43-63.4c36.12-18.36,75.4-29.68,115.32-36.03
				c40.41-6.42,81.48-7.8,122.33-6.7c41.1,1.1,82.29,4.19,123.04,9.71c78.48,10.62,157.65,31.97,223.81,76.99
				c56.94,38.74,104.66,94.94,123.42,162.12c2.28,8.15,4.09,16.42,5.49,24.76c0.5,2.94,3.97,1.86,5.5,0.62
				C1169.66,1771.34,1170.91,1768.12,1170.42,1765.21L1170.42,1765.21z"/>
		</g>
	</g>
	<g>
		<g>
			<path d="M666.32,1643.12c19.22-20.42,35.06-43.8,54.28-64.22c-2.18,0.52-4.36,1.04-6.55,1.56c15.76,18.4,31.53,36.8,47.29,55.21
				c3.9,4.55,11.54-6.12,8.22-10.01c-15.76-18.4-31.53-36.8-47.29-55.21c-2.05-2.4-4.95-0.14-6.55,1.56
				c-19.22,20.42-35.06,43.8-54.28,64.22c-1.7,1.8-3.5,6.2-1.67,8.44C661.79,1647.16,664.77,1644.77,666.32,1643.12L666.32,1643.12z
				"/>
		</g>
	</g>
	<g>
		<g>
			<path d="M765.55,1636.13c48.36-21.74,92.57-59.39,120.29-104.71c0.99-1.62,2.62-6.66-0.13-7.72
				c-18.69-7.23-37.37-14.47-56.06-21.7c-5.19-2.01-11.44,9.61-6.62,11.47c18.69,7.23,37.37,14.47,56.06,21.7
				c-0.04-2.57-0.09-5.15-0.13-7.72c-26.06,42.61-68.24,77.38-113.59,97.77C760.71,1627.3,758.37,1639.36,765.55,1636.13
				L765.55,1636.13z"/>
		</g>
	</g>
	<g>
		<g>
			<path d="M613.01,1493.85c-18.08,6.7-36.16,13.4-54.24,20.1c-3.45,1.28-7.04,6.02-5.72,9.91
				c17.67,52.04,55.29,96.57,104.37,121.56c4.89,2.49,11.4-9.04,6.62-11.47c-47.71-24.3-84.6-67.33-101.8-117.99
				c-1.91,3.3-3.81,6.6-5.72,9.91c18.08-6.7,36.16-13.4,54.24-20.1c2.98-1.1,5.23-3.99,5.77-7.14
				C616.88,1496.55,616.05,1492.72,613.01,1493.85L613.01,1493.85z"/>
		</g>
	</g>
</g>
<g id="Ebene_4">
	<g>
		<path class="st11" d="M1090.78,960.31c0,31.57-19.64,63.98-56.08,66.58c-233.72,16.64-374.96,56.99-616.28,8.62
			c-33.28-6.67-50.75-44.94-50.27-74.44c0.82-50.36-3.33-47.12,0-77.68c12.14-111.35,7.31-167.89,53.66-269.19
			c44.44-97.13,157.65-179.16,278.6-179.16c201.93,0,403.99,85.86,390.38,423.53"/>
		<g>
			<path d="M1086.73,962.55c-0.14,16.26-5.52,33-17.29,44.61c-14.77,14.56-33.98,14.6-53.42,16.13
				c-44.21,3.47-88.32,8.02-132.4,12.75c-80.03,8.6-160.17,17.51-240.78,17.33c-42.74-0.1-85.46-2.68-127.9-7.76
				c-23.91-2.86-47.73-6.5-71.42-10.81c-10.58-1.92-22.19-2.96-32.15-7.21c-7.46-3.18-14.04-8.13-19.4-14.19
				c-10.94-12.37-17.62-28.77-19.34-45.14c-0.98-9.33-0.26-18.83-0.35-28.2c-0.07-7.07-0.29-14.14-0.67-21.2
				c-1.63-30.38,3.04-60.37,5.67-90.61c3.2-36.73,5.94-73.63,13.29-109.82c7.83-38.53,20.84-76.8,38.65-111.87
				c34.42-67.77,97.8-120.81,168.54-147.44c35.88-13.51,73.2-19.45,111.46-18.86c26.17,0.4,52.34,2.29,78.24,6.1
				c50.31,7.41,99.94,22.3,143.85,48.37c45.29,26.9,82.24,65.38,107.56,111.56c32.29,58.89,45.09,126.71,47.89,193.24
				c0.86,20.42,0.76,40.86-0.04,61.28c-0.1,2.51,2.12,3.37,4.13,2.38c2.43-1.19,3.87-4.31,3.97-6.88
				c2.92-74.45-3.36-151.38-31.36-221.1c-20.9-52.04-54.26-98.18-99.25-131.97c-41.78-31.37-91.29-50.85-142.15-61.66
				c-26.28-5.59-53.02-8.92-79.83-10.52c-33.76-2.02-67.5-1.77-100.69,5.5c-77.28,16.93-148.63,64.59-194.85,128.68
				c-23.63,32.76-39.81,70.48-51.97,108.85c-11.25,35.5-17.32,72.04-21.06,109.02c-2,19.73-3.56,39.49-5.33,59.24
				c-1.73,19.33-4.63,38.69-5.43,58.08c-0.43,10.35,0.6,20.68,0.98,31.02c0.65,17.74-1.42,35.91,2.65,53.34
				c3.79,16.23,11.9,31.92,24.47,43.05c15.86,14.04,38.13,15.43,58.13,18.9c45.75,7.96,91.95,13.31,138.34,15.58
				c82.85,4.05,165.44-2.58,247.78-11.23c43.65-4.59,87.25-9.51,130.95-13.59c12.24-1.14,24.48-2.22,36.74-3.22
				c11.66-0.95,23.56-1.19,35.15-2.83c17.27-2.45,32.38-12.56,42.3-26.75c9.54-13.66,14.3-30.07,14.44-46.67
				c0.02-2.49-2.06-3.39-4.13-2.38C1088.34,956.84,1086.76,960,1086.73,962.55L1086.73,962.55z"/>
		</g>
	</g>
</g>
<g id="Ebene_5">
	<g>
		<path class="st12" d="M808.57,1357.45c3.8,42.04,7.6,84.07,11.4,126.11c1.37,15.15,2.58,31.22-4.11,44.81
			c-11.1,22.56-38.88,29.55-63.35,33.17c-35.94,5.33-77.79,6.77-102.77-20.14c-21.3-22.94-22.2-58.47-17.52-89.71
			c4.69-31.24,13.67-62.93,7.57-93.91c54.55,9.62,110.71,9.69,165.29,0.2"/>
		<g>
			<path class="st12" d="M804.17,1359.89c3.74,41.38,7.49,82.76,11.22,124.14c1.46,16.16,4.07,35.57-6.89,49.18
				c-9.12,11.31-24.01,16.43-37.68,19.63c-14.92,3.5-30.48,5.47-45.79,6.09c-15.31,0.62-31.3-0.27-45.81-5.59
				c-14.48-5.3-26.63-14.92-34.35-28.35c-7.82-13.61-10.37-29.72-10.54-45.22c-0.47-42.33,17.66-83.1,9.7-125.62
				c-2.11,3.08-4.23,6.15-6.34,9.23c55,9.59,111.34,9.56,166.35,0.11c4.5-0.77,8.27-12.05,2.07-10.98
				c-54.33,9.33-109.93,9.17-164.22-0.3c-4.19-0.73-6.94,6.02-6.34,9.23c7.55,40.33-9.7,79.91-10.04,120.15
				c-0.27,32.74,11.03,66.45,43.03,80.51c29.4,12.92,65.46,9.01,96.04,2.66c14.9-3.09,30.21-8.16,41.83-18.37
				c13.33-11.71,18.81-28.27,19.01-45.67c0.13-11.14-1.31-22.31-2.31-33.39c-1.13-12.48-2.26-24.96-3.39-37.44
				c-2.26-24.96-4.51-49.92-6.77-74.88C812.32,1347.79,803.74,1355.19,804.17,1359.89L804.17,1359.89z"/>
		</g>
	</g>
</g>
<g id="Ebene_3">
	<g>
		<path class="st12" d="M1056.45,864.06c38.73-14.23,85.71-0.22,110.86,33.05c25.15,33.27,26.5,83.23,3.2,117.87
			c-23.3,34.64-69.45,51.29-108.89,39.27c-23.91,64.41-54.2,127.1-97.19,180.18c-42.99,53.09-99.52,96.29-164.47,114.9
			c-90.59,25.96-220.74-1.36-276.02-45.01c-55.93-44.16-133-249.49-133-249.49s-88.35,1.97-112.67-31.84
			c-24.32-33.81-22.65-102.36,5.22-133.17c20.25-22.39,66.5-28.9,115.42-23.46c17.31-41.29,23.16-74.63,25.38-115.11
			c267.66-306.71,577.8-11.87,577.8-11.87s3.25,106.5,51.78,126.02"/>
		<g>
			<path class="st12" d="M1055.41,869.55c44.28-15.86,96.75,4.92,117.42,47.36c10.36,21.27,12.62,46.52,6.64,69.36
				c-5.96,22.77-20.95,41.73-41.33,53.37c-22.49,12.84-49.55,16.39-74.43,9.03c-2.58-0.76-5.31,3.45-5.97,5.23
				c-30,80.61-70.44,160.1-134.56,219.03c-29.81,27.4-64.31,50.22-102.37,64.39c-35.13,13.09-72.37,17.5-109.71,16.36
				c-37.3-1.14-74.77-7.25-110.37-18.5c-15.88-5.01-31.48-11.12-46.28-18.77c-11.18-5.78-22.46-12.42-31.75-21
				c-16.73-15.47-29.18-35.91-40.61-55.39c-14.51-24.72-27.33-50.43-39.44-76.4c-16.91-36.24-32.55-73.16-46.77-110.53
				c-0.24-0.63-0.48-1.26-0.71-1.88c-0.33-0.87-1.03-1.97-2.14-1.94c-12.95,0.28-26.02-0.62-38.86-2.13
				c-21.35-2.51-45.01-6.66-62.8-19.57c-20.12-14.6-25.45-44.68-25.74-67.89c-0.3-24.17,4.8-54.96,24.87-71.04
				c12.54-10.05,29.43-14.2,45-16.48c20.27-2.98,40.99-2.39,61.3-0.2c2.83,0.31,5.07-3.05,5.97-5.23
				c15.77-37.88,23.61-77.04,25.91-117.91c-0.72,1.87-1.44,3.74-2.15,5.62c53.48-61.08,121.22-111.07,201.45-129.28
				c60.65-13.76,124.09-8.26,183.03,10.61c47.8,15.3,92.93,38.62,134.3,66.91c13.35,9.13,26.34,18.79,38.81,29.07
				c3.62,2.98,7.2,6.02,10.71,9.13c0.99,0.88,1.98,1.76,2.95,2.66c-1.34-1.22,0.45,0.17,0.48,0.45c-0.53-4.95-0.51-0.11-0.45,0.99
				c0.18,3.27,0.43,6.55,0.73,9.81c1.03,11.29,2.59,22.55,4.77,33.68c4.96,25.33,13.04,54.26,32.56,72.44
				c4.42,4.11,9.33,7.48,14.92,9.8c4.73,1.96,10.55-8.73,6.11-10.58c-27.23-11.29-37.71-45.42-43.58-71.65
				c-2.75-12.29-4.66-24.76-5.85-37.3c-0.35-3.69-0.64-7.39-0.85-11.1c-0.09-1.65,0.11-3.87-0.77-5.31c-1.03-1.69-3.52-3.24-5-4.55
				c-3.99-3.54-8.07-6.97-12.2-10.34c-14.46-11.81-29.58-22.82-45.16-33.1c-47.55-31.38-99.96-56.24-155.42-69.82
				c-68.55-16.79-140.93-14.01-206.71,12.47c-40.47,16.29-77.36,40.29-110.1,69.01c-9.42,8.27-18.5,16.93-27.27,25.9
				c-4.54,4.64-9,9.34-13.37,14.13c-4.05,4.43-9.94,9.01-10.75,15.24c-1.64,12.56-1.81,25.28-3.68,37.85
				c-1.82,12.19-4.33,24.28-7.64,36.15c-3.65,13.05-8.32,25.8-13.52,38.3c1.99-1.74,3.98-3.48,5.97-5.23
				c-33.54-3.63-72.92-4.16-103.29,12.88c-25.33,14.22-36.68,43.59-39.84,71.2c-3.15,27.5-0.18,60.18,16.86,83.11
				c13.7,18.44,40.14,24.7,61.53,28.36c17.25,2.95,35.05,4.47,52.56,4.09c-0.71-0.65-1.42-1.3-2.14-1.94
				c12.36,32.91,26.1,65.36,40.58,97.38c12.1,26.74,24.84,53.23,39.03,78.93c12.13,21.96,25.17,44.27,42.09,62.95
				c18.05,19.94,43.28,32.27,68.06,41.7c34.9,13.28,72.02,21.09,109.2,24.19c37.24,3.11,75.78,1.68,111.94-8.43
				c39.32-10.99,75.7-31.09,107.61-56.37c69.08-54.73,115.02-132.51,148.1-213.01c4.24-10.33,8.29-20.74,12.18-31.21
				c-1.99,1.74-3.98,3.48-5.97,5.23c49.58,14.66,104.08-13.81,123.63-60.88c20.23-48.71,2.97-108.93-44.72-133.99
				c-24.72-12.99-54.53-15.86-80.94-6.4c-2.75,0.99-4.83,3.7-5.32,6.58C1051.84,867.09,1052.61,870.56,1055.41,869.55
				L1055.41,869.55z"/>
		</g>
	</g>
</g>
<g id="Ebene_2">
	<g>
		<g>
			<path d="M1050.38,869.42c43.56-19.33,98.21-1,121.66,40.28c11.93,20.99,15.82,46.57,11.12,70.21
				c-4.55,22.9-17.93,42.86-37.26,55.94c-21.94,14.84-49.33,20.53-75.24,14.73c-4.54-1.02-9.66,9.95-4.2,11.17
				c51.46,11.54,105.96-21.5,121.93-71.25c16.22-50.51-4.87-109.39-54.87-131.09c-26.52-11.51-56.84-11.81-83.31-0.07
				C1045.9,861.26,1043.74,872.37,1050.38,869.42L1050.38,869.42z"/>
		</g>
	</g>
	<g>
		<g>
			<path d="M402.13,860.91c-27.77-3.07-56.91-6.2-83.96,2.83c-23.47,7.84-42.75,23.92-52.17,47.09c-9.53,23.44-10.47,52-6.83,76.8
				c3.7,25.2,15.94,47.22,38.37,60.19c27.64,15.98,60.41,15.36,91.29,14.37c4.75-0.15,9.35-11.34,4.2-11.17
				c-25.8,0.82-52.87,1.8-77.3-7.95c-22.04-8.79-38.46-25.29-45.04-48.32c-6.31-22.08-6.02-47.91-0.98-70.23
				c5.2-23.05,20.16-39.66,42.07-48.25c27.43-10.75,57.62-7.35,86.15-4.2C402.63,872.6,407.54,861.5,402.13,860.91L402.13,860.91z"
				/>
		</g>
	</g>
	<g>
		<g>
			<path d="M1064.69,1055.81c-19.37,61.55-49.89,119.85-90.76,169.88c-39.94,48.9-90.64,90.43-149.95,113.3
				c-57.47,22.16-121.37,27.77-181.67,14.85c-30.14-6.45-59.24-17.7-85.6-33.72c-27.39-16.64-51.14-38.47-71.23-63.37
				c-42.09-52.18-67.39-115.83-84.41-180.1c-2.08-7.87-4.04-15.77-5.9-23.7c-0.66-2.83-3.81-1.92-5.44-0.61
				c-2.17,1.75-3.69,5.11-3.04,7.89c15.57,66.32,38.64,132.54,78.25,188.58c19.05,26.95,42.06,51.47,68.9,70.79
				c25.42,18.29,54.06,31.65,84.11,40.35c60.47,17.49,126.42,15.39,186.25-3.74c61.88-19.79,115.56-58.49,158.91-106.36
				c44.48-49.11,78.63-107.8,101.38-169.93c2.83-7.74,5.47-15.54,7.94-23.4C1074.86,1048.82,1066.59,1049.75,1064.69,1055.81
				L1064.69,1055.81z"/>
		</g>
	</g>
	<g>
		<g>
			<path d="M1054.08,859.77c-10.84-11.05-17.79-25.7-23.58-39.86c-6.51-15.94-11.62-32.45-16.04-49.08
				c-2.83-10.65-5.4-21.39-7.58-32.19c-0.51-2.54-0.79-3.66-2.63-5.36c-22.93-21.21-48.51-39.81-74.82-56.56
				C881.2,646,828.22,621.65,772.24,609.19c-67.04-14.93-136.92-10.37-200.2,17.08c-38.5,16.7-73.38,41.1-103.99,69.66
				c-8.82,8.22-17.3,16.81-25.49,25.66c-4.32,4.67-8.55,9.41-12.69,14.24c-3.87,4.5-9.86,9.58-11.94,15.18
				c-1.09,2.95-0.77,6.64-1,9.74c-0.23,3.06-0.49,6.12-0.78,9.18c-0.63,6.54-1.4,13.06-2.3,19.56c-1.83,13.14-4.21,26.21-7.3,39.11
				c-3.04,12.71-6.84,25.2-11.51,37.41c-0.76,1.99-1,5.5,1.77,5.95c2.73,0.44,5.17-3.14,5.97-5.23
				c14.36-37.56,20.92-77.81,23.42-117.81c-0.72,1.87-1.44,3.74-2.15,5.62c49.45-60.83,112.79-112.04,189.6-132.61
				c58.77-15.74,120.62-12.13,178.73,4.66c48.96,14.15,95.25,37.22,137.78,65.11c23.39,15.34,46.09,32.16,66.78,51.03
				c0.75,0.68-0.79-0.31,0.36,0.34c0.28,0.16,0.5,0.49,0.75,0.7c0.35,0.31-0.16-1.51,0.04,0.49c0.8,8.21,3.57,16.71,5.55,24.68
				c7.18,28.9,15.82,58.97,31.28,84.67c3.32,5.52,7.08,10.79,11.6,15.39C1050.43,873,1057.34,863.09,1054.08,859.77L1054.08,859.77z
				"/>
		</g>
	</g>
	<g>
		<g>
			<path d="M806.43,1358.74c3.69,38.64,7.38,77.28,11.06,115.92c1.58,16.55,6.15,36.81-1.92,52.33
				c-6.93,13.32-21.16,21.55-34.49,27.29c-31.62,13.59-68.99,16.04-101.47,3.94c-13.68-5.09-26.82-12.91-36.53-23.94
				c-11.28-12.82-15.77-28.47-15.68-45.37c0.11-21.02,4.19-42.24,6.81-63.05c2.75-21.78,5.49-43.55,8.24-65.33
				c1-7.93-7.9-3.08-8.56,2.17c-2.62,20.8-5.25,41.6-7.87,62.41c-2.53,20.08-5.86,40.25-7.13,60.45
				c-1.11,17.81,1.06,35.92,11.25,51.01c8.72,12.92,21.82,22.65,35.87,29.11c33.01,15.19,72.17,14.63,105.98,2.35
				c15.46-5.62,30.48-13.44,41.68-25.74c12.23-13.43,15.82-30.43,14.81-48.16c-1.32-23.2-4.29-46.41-6.5-69.54
				c-2.25-23.58-4.5-47.15-6.75-70.73C814.54,1346.63,805.98,1354.03,806.43,1358.74L806.43,1358.74z"/>
		</g>
	</g>
	<g>
		<g>
			<path d="M618.2,1195.27c19.87,22.65,45.64,41.85,76.14,46.3c26.86,3.92,53.39-5.55,73.52-23.36
				c13.5-11.94,24.07-26.89,32.21-42.9c1.31-2.58,3.1-7.54-0.16-9.52c-3.07-1.87-7.11,2.24-8.33,4.62
				c-11.72,23.04-29.41,44.31-54.6,52.91c-23.51,8.03-48.6,3.66-69.99-8.23c-14.79-8.23-27.53-19.47-38.66-32.15
				C623.45,1177.36,614.05,1190.54,618.2,1195.27L618.2,1195.27z"/>
		</g>
	</g>
	<g>
		<g>
			<path d="M741.62,952.96c-10.61-8.73-25.69-9.73-37.9-3.81c-12.45,6.03-20.1,19.3-21.26,32.81c-1.12,13.13,4.11,26.45,15.61,33.5
				c11.3,6.94,26.02,6.78,37.23-0.2c2.42-1.51,4.47-4.53,4.32-7.48c-0.13-2.48-2.16-4.04-4.49-2.59
				c-18.7,11.64-43.8-2.07-44.04-24.05c-0.26-23.74,27.85-31.24,44.42-17.61C739.16,966.53,745.61,956.24,741.62,952.96
				L741.62,952.96z"/>
		</g>
	</g>
	<g>
		<path d="M793.54,864.73c1.7-7.88-0.26-16.03-1.74-23.95c-1.48-7.92-2.41-16.51,1.11-23.73c3.52-7.22,13.14-11.82,19.66-7.27
			c6.9,4.82,5.91,15.18,6.44,23.7c0.42,6.78,2.3,13.37,3.29,20.08c1,6.72,1.05,13.89-1.96,19.95c-3,6.06-9.76,10.58-16.25,9.09
			c-6.49-1.49-10.66-10.43-6.48-15.72"/>
		<g>
			<path d="M797.82,863.65c1.28-7.08,0.54-13.96-0.73-20.99c-1.19-6.57-3.06-13.5-1.92-20.22c0.9-5.31,5.03-9.69,10.85-8.79
				c5.74,0.89,7.59,6.78,8.08,11.78c0.57,5.74,0.4,11.47,1.29,17.2c1.09,7,3.15,13.9,3.11,21.04c-0.04,6.12-2.28,13.24-9.52,13.63
				c-3.43,0.18-10.95-4.48-8.19-8.58c1.18-1.76,2.19-5.79-0.12-7.12c-2.49-1.44-5.08,1.76-6.23,3.46
				c-6.66,9.89-0.32,25.32,12.79,23.21c15.68-2.52,21.22-21.03,19.79-34.61c-0.87-8.29-3.36-16.32-3.71-24.67
				c-0.26-6.17-0.04-12.8-2.75-18.51c-6.11-12.89-21.61-8.09-28.6,1.22c-5.07,6.75-6.41,15.52-5.69,23.75
				c0.88,10.12,4.83,20.17,2.98,30.37c-0.42,2.32,0.49,4.89,3.25,4.4C795.25,869.74,797.37,866.13,797.82,863.65L797.82,863.65z"/>
		</g>
	</g>
	<g>
		<path d="M638.47,851.59c-3.45-7.71-6.99-15.91-6.04-24.33c0.95-8.42,8.28-16.7,16.46-15.25c8.88,1.58,12.59,12.42,13.75,21.55
			c1.24,9.77,1.56,19.67,0.94,29.5c-0.44,7.04-2.39,15.42-8.93,17.69c-5.75,2-12.12-2.34-14.68-7.96s-2.3-12.1-1.98-18.29"/>
		<g>
			<path d="M642.71,847.94c-3.2-7.18-12.66-28.02,1.15-30.41c10.45-1.81,13.76,13.02,14.61,20.42c0.75,6.52,1.08,13.1,1,19.67
				c-0.06,4.52,0.65,12.16-2.18,16.13c-3.22,4.5-9.78,0.27-12.1-3.1c-3.7-5.34-3.1-12.45-2.8-18.61c0.13-2.73-2.32-3.65-4.49-2.59
				c-2.66,1.3-4.18,4.68-4.32,7.48c-0.54,11.12,0.99,29.85,16.28,29.89c12.99,0.03,17.41-15.95,18.12-26.21
				c0.94-13.7,1.33-30.39-4.51-43.18c-5.03-11.02-16.74-14.69-26.21-6.22c-13.53,12.1-9.52,29.44-3.03,44.02
				C636.81,861.01,644.57,852.13,642.71,847.94L642.71,847.94z"/>
		</g>
	</g>
	<g>
		<g>
			<path d="M660.82,764.83c-26.16-0.84-51.06,11.21-67.56,31.37c-1.46,1.79-3.29,5.62-1.54,7.78c1.78,2.2,4.71,0.18,6.04-1.44
				c14.31-17.49,36.31-27.27,58.86-26.55C661.37,776.16,666.11,765,660.82,764.83L660.82,764.83z"/>
		</g>
	</g>
	<g>
		<g>
			<path d="M859.03,793.97c-16.66-19.44-42.38-28.87-67.64-24.56c-4.5,0.77-8.28,12.04-2.07,10.98
				c23.03-3.92,46.99,5.14,62.13,22.81C855.05,807.39,862.1,797.55,859.03,793.97L859.03,793.97z"/>
		</g>
	</g>
	<g>
		<g>
			<path d="M369.18,890.24c-37.68,5.78-66.3,40.25-69.59,77.42c-0.24,2.75,2.39,3.62,4.49,2.59c2.74-1.34,4.07-4.65,4.32-7.48
				c2.75-31.03,28.23-56.87,58.72-61.55C371.62,900.53,375.43,889.28,369.18,890.24L369.18,890.24z"/>
		</g>
	</g>
	<g>
		<g>
			<path d="M1088.68,891.02c34.87,4.7,62.83,40.03,59.12,75.15c-0.84,7.94,8,3.11,8.56-2.17c4.12-39.02-23.67-78.78-63.48-84.15
				C1088.21,879.22,1083.25,890.29,1088.68,891.02L1088.68,891.02z"/>
		</g>
	</g>
</g>
<g id="Ebene_8">
	<ellipse class="st13" cx="801.26" cy="823.98" rx="5.44" ry="5.55"/>
	<ellipse class="st13" cx="642.84" cy="828.75" rx="5.24" ry="5.35"/>
</g>
<g id="Ebene_30">
	<g>
		<path class="st11" d="M1039.81,754.29c-28.03-96.75-62.71-173.48-130.77-244.21S748.43,392.35,653.31,393.99
			s-190.75,56.59-234.1,146.71c-20.11,41.81-18.48,94.58,4.17,134.89c22.65,40.31,68.19,83.13,109.67,67.76
			c155.78-57.7,334.7-53.01,505.57,10.79"/>
		<g>
			<path d="M1044.97,749.85c-14.81-50.99-32.87-101.3-58.83-147.78c-25.9-46.39-59.69-88.56-99.71-123.54
				c-41.19-36-89.58-63.97-142.24-79.24c-49.35-14.32-101.97-16.38-151.83-3.38c-47.64,12.42-92.27,37.55-127,72.52
				c-36.69,36.94-65.51,85.06-65.54,138.41c-0.01,26.91,6.82,53.7,20.41,76.96c12.98,22.21,30.88,43.03,52.83,56.78
				c9.88,6.19,21.03,10.93,32.67,12.37c12.93,1.59,23.93-2.23,35.93-6.45c27.83-9.78,56.35-17.58,85.26-23.42
				c59.01-11.93,119.52-15.57,179.58-11.84c62.25,3.87,123.96,15.59,183.52,34.03c15.1,4.68,30.06,9.83,44.87,15.34
				c5.87,2.19,12.86-10.88,7.45-12.9c-112.85-41.99-234.49-60.5-354.51-47.14c-28.6,3.18-57,8.19-84.95,15.06
				c-13.61,3.35-27.1,7.14-40.46,11.38c-6.67,2.12-13.3,4.34-19.9,6.68c-6.22,2.2-12.3,4.77-18.88,5.68
				c-23.85,3.26-46.94-11.83-63.37-27.53c-18.41-17.6-33.91-39.8-42.09-64.03c-8.46-25.05-9.93-52.32-4.19-78.13
				c5.36-24.07,18.12-46.38,32.84-65.95c28.73-38.21,68.69-67.6,113.23-84.81c46.46-17.95,96.52-22.3,145.53-13.75
				c52.58,9.17,102.1,32.31,145.08,63.65c42.6,31.06,79.06,70.64,108.05,114.6c27.97,42.41,48.22,89.14,64.14,137.26
				c4.17,12.61,8.06,25.32,11.77,38.08C1036.74,765.96,1046.53,755.22,1044.97,749.85L1044.97,749.85z"/>
		</g>
	</g>
</g>
<g id="Ebene_14">
	<g class="st14">
		<path d="M291.49,882.58c-29.55,33.5-34.73,86.97-12.18,125.73c22.54,38.76,71.01,59.7,113.95,49.25
			c-35.29-11.51-65.97-37.13-84.02-70.16c-18.05-33.03-23.29-73.14-14.35-109.85"/>
		<g>
			<path d="M289.05,879.14c-24.54,28.25-33.84,68.35-25.49,104.69c8.2,35.7,35.13,64.5,69.65,76.35
				c19.01,6.53,39.31,7.95,58.92,3.33c3.01-0.71,9.39-10.04,4.43-11.69c-54.29-18.04-94.08-67.08-100.26-124.04
				c-1.87-17.25-0.78-34.55,3.22-51.42c0.6-2.52-0.63-5.29-3.52-4.78c-3.1,0.55-5.13,4.44-5.77,7.14
				c-14.29,60.2,7.58,124.96,57.24,162.33c12.86,9.68,27.2,17.17,42.46,22.24c1.48-3.9,2.96-7.79,4.43-11.69
				c-32.02,7.54-66.5-2.38-91.02-23.98c-25.67-22.61-37.1-57.57-32.14-91.16c2.76-18.65,10.31-36.18,22.71-50.44
				c1.63-1.88,3.54-6.15,1.67-8.44C293.63,875.16,290.54,877.43,289.05,879.14L289.05,879.14z"/>
		</g>
	</g>
	<g class="st14">
		<path d="M402.23,661.49c-22.42,59.94-33.1,124.44-31.22,188.58c0.25,8.39,8.21,15.71,16.41,15.08s15-9.08,14.01-17.41
			c-7.31-61.89-4.79-124.98,7.43-186.05"/>
		<g>
			<path d="M398.03,661.1c-20.99,56.42-31.95,116.46-32.01,176.68c-0.01,12.16-1.27,27.4,12.73,32.43
				c11.3,4.06,22.24-5.03,26.03-15.27c2.16-5.85,1.2-11.49,0.57-17.51c-0.87-8.31-1.57-16.63-2.08-24.97
				c-0.96-15.39-1.31-30.82-1.07-46.24c0.56-35.51,4.4-70.87,11.31-105.7c0.5-2.52-0.57-5.3-3.52-4.78
				c-3.02,0.53-5.23,4.44-5.77,7.14c-10.85,54.68-14.22,110.85-9.67,166.43c0.55,6.73,1.33,13.42,2,20.14
				c0.54,5.48-2.24,9.68-8.21,9.69c-4.75,0.01-9.27-3.33-11.38-7.46c-2.76-5.39-1.39-14.26-1.37-20.13
				c0.08-27.24,2.44-54.43,7.03-81.27c5.16-30.15,13.15-59.72,23.82-88.38c0.81-2.17,1.09-5.97-1.92-6.45
				C401.56,654.96,398.87,658.83,398.03,661.1L398.03,661.1z"/>
		</g>
	</g>
	<g class="st14">
		<path d="M417.84,543.91c-18.51,51.01-6.1,112.29,30.7,151.62s96.2,54.78,146.94,38.21c142.21-46.41,299.87-41.75,439.21,12.98
			c-49.21-54.39-120.5-82.38-191.37-98.11s-143.79-21-214.07-39.25s-140.13-51.75-183.49-111.11"/>
		<g>
			<path d="M413.64,543.52c-15.53,43.55-10.74,93.33,12.9,133.11c23.6,39.71,66.39,65.23,112.22,69.21
				c11.27,0.98,22.66,0.61,33.84-1.04c12.19-1.8,23.66-5.84,35.41-9.38c26.22-7.9,52.94-14.1,79.95-18.59
				c54.19-9.01,109.5-11.03,164.22-6.21c61.35,5.4,121.84,19.41,179.21,41.85c4.51,1.76,10.72-7.12,7.42-10.74
				c-56.64-62.17-139.22-89.35-219.63-104.57c-88.83-16.82-181.56-22.1-264.48-61.21c-40.75-19.22-77.94-46.16-104.82-82.68
				c-3.48-4.73-11.28,5.84-8.22,10.01c48.76,66.26,127.94,99.57,205.91,117.15c89.27,20.12,182.68,23.19,268.7,56.59
				c42.81,16.63,83.19,40.56,114.32,74.73c2.47-3.58,4.95-7.16,7.42-10.74c-99.57-38.95-208.03-52.78-314.23-40.76
				c-26.6,3.01-53.02,7.65-79.05,13.93c-13.03,3.14-25.95,6.69-38.75,10.65c-11.29,3.49-22.31,7-34.09,8.48
				c-44.83,5.61-92.46-12.03-122.25-46.09c-33.48-38.27-44.71-94.93-27.6-142.9c0.78-2.18,1.12-5.96-1.92-6.45
				C417.2,537.38,414.45,541.25,413.64,543.52L413.64,543.52z"/>
		</g>
	</g>
	<g class="st14">
		<path d="M1021.75,761.13c9.73,35.65,33.43,67.11,64.69,85.86c-11.15,11.55-31.13,9.74-43.4-0.57s-18.04-26.71-20.45-42.74
			s-2.04-32.42-4.78-48.39"/>
		<g>
			<path d="M1017.15,765.08c10.11,36.27,33.74,68.06,65.97,87.65c0.67-3.45,1.34-6.9,2.01-10.35c-7.01,6.87-17.36,7.82-26.48,5.03
				c-10.58-3.23-18.3-11.46-23.38-21.01c-12.14-22.8-8.82-50.34-12.87-75.06c-0.52-3.16-4.26-1.98-5.9-0.66
				c-2.49,2.01-3.81,5.44-3.3,8.56c4.52,27.54,0.53,58.18,17.03,82.47c12.61,18.55,39.93,27.11,57.5,9.9
				c2.05-2.01,5.8-8.05,2.01-10.35c-30.96-18.81-53.68-49.22-63.4-84.07C1024.55,750.76,1015.81,760.3,1017.15,765.08
				L1017.15,765.08z"/>
		</g>
	</g>
	<g class="st14">
		<path d="M392.69,1063.72c33.22,107.5,116.69,197.55,219.99,237.34s224.22,28.47,318.71-29.84
			c-79.55,78.97-202.59,108.85-308.44,74.88s-190.04-130.33-211.05-241.57"/>
		<g>
			<path d="M388.09,1067.67c24.9,79.96,76.93,150.71,145.55,198.68c73.21,51.19,163.49,72.34,251.98,61.29
				c51.52-6.44,101.6-23.79,145.86-50.96c-0.46-3.36-0.93-6.71-1.39-10.07c-62.98,62.19-153.24,93.79-241.28,86.14
				c-85.51-7.42-162.96-53.97-214.25-122.14c-28.86-38.36-49.04-82.85-58.07-130.03c-0.6-3.12-4.21-2.02-5.9-0.66
				c-2.43,1.97-3.89,5.48-3.3,8.56c16.35,85.43,69.27,162.68,142.18,209.91c75.07,48.63,168.69,59.73,253.95,33.79
				c48.39-14.72,93.23-40.78,129.26-76.35c1.98-1.96,3.96-4.96,3.39-7.91c-0.47-2.38-2.49-3.56-4.78-2.16
				c-77.2,47.38-171.79,63.51-260.48,45.51c-82.28-16.71-156.05-64.15-208.36-129.44c-29.05-36.26-51.35-77.68-65.16-122.06
				C395.29,1053.34,386.61,1062.91,388.09,1067.67L388.09,1067.67z"/>
		</g>
	</g>
	<g class="st14">
		<path d="M634.69,1459.87c64.47-23.47,125.2-57.64,179.08-100.75c-58.18,9.4-117.29,12.8-176.13,10.13
			c-2.32,30.06-4.65,60.12-6.97,90.17"/>
		<g>
			<path d="M633.57,1465.82c65.6-23.99,126.91-58.54,181.5-102.09c2.56-2.04,6.2-11.59-0.18-10.57
				c-57.83,9.28-116.46,12.61-174.98,10.02c-4.3-0.19-6.78,5.17-7.05,8.71c-2.32,30.06-4.65,60.12-6.97,90.17
				c-0.23,2.98,2.57,3.93,4.87,2.81c2.95-1.44,4.45-5.05,4.68-8.11c2.32-30.06,4.65-60.12,6.97-90.17c-2.35,2.9-4.7,5.81-7.05,8.71
				c59.27,2.62,118.71-0.84,177.29-10.23c-0.06-3.52-0.12-7.04-0.18-10.57c-53.08,42.35-112.88,76.08-176.66,99.4
				c-2.98,1.09-5.23,4-5.77,7.14C629.7,1463.13,630.53,1466.93,633.57,1465.82L633.57,1465.82z"/>
		</g>
	</g>
	<g class="st14">
		<path d="M293.4,1676.32c62.55,69.41,149.91,114.99,241.66,126.08c-103.29,11.56-205.53-28.82-309.42-30.87
			c22.35-31.51,44.69-63.03,67.04-94.54"/>
		<g>
			<path d="M289.29,1681.33c49.11,54.26,112.86,94.22,183.11,114.72c19.76,5.77,39.95,9.9,60.37,12.41
				c1.13-4.01,2.27-8.01,3.4-12.02c-80.84,8.8-160.42-13.83-239.83-25.01c-22.69-3.19-45.51-5.46-68.43-5.96
				c0.05,3.17,0.11,6.33,0.16,9.5c22.35-31.51,44.69-63.03,67.04-94.54c1.46-2.06,3.65-6.01,1.67-8.44
				c-1.86-2.29-5.21-0.32-6.55,1.56c-22.35,31.51-44.69,63.03-67.04,94.54c-1.23,1.73-4.71,9.39,0.16,9.5
				c82.1,1.79,161.38,26.82,243.13,32.03c22.49,1.43,45.03,1.17,67.44-1.27c4.07-0.44,9.17-11.31,3.4-12.02
				c-71.05-8.74-138.9-37.88-194.77-82.56c-16.15-12.92-31.18-27.12-45.06-42.45C293.46,1666.85,285.88,1677.56,289.29,1681.33
				L289.29,1681.33z"/>
		</g>
	</g>
	<g class="st14">
		<path d="M438.74,1599.47c3.4,8.48,6.8,16.95,10.2,25.43c-7.61,2.83-17.06-1.69-19.79-9.48c-2.73-7.79,1.76-17.41,9.4-20.15"/>
		<g>
			<path d="M434.14,1603.42c3.4,8.48,6.8,16.95,10.2,25.43c1.91-3.3,3.81-6.6,5.72-9.91c-5.72,1.82-12.21-0.41-15.39-5.64
				c-3.1-5.1-1.4-10.35,3.96-12.58c4.73-1.96,7.1-13.94-0.18-10.92c-10.1,4.19-16.85,16.97-14.4,27.69
				c2.39,10.48,13.62,16.59,23.77,13.36c3.36-1.07,7.2-6.22,5.72-9.91c-3.4-8.48-6.8-16.95-10.2-25.43
				C440.79,1589.18,432.28,1598.8,434.14,1603.42L434.14,1603.42z"/>
		</g>
	</g>
	<g class="st14">
		<path d="M481.15,1673.75c4.05,8.06,8.1,16.12,12.15,24.17c-7.52,2.23-16.36-2.46-18.89-10.03s1.65-16.8,8.94-19.73"/>
		<g>
			<path d="M477.04,1678.75c4.05,8.06,8.1,16.12,12.15,24.17c1.74-3.65,3.49-7.31,5.23-10.96c-5.53,1.35-11.58-1.14-14.49-6.11
				c-2.83-4.83-1.53-9.92,3.51-12.24c4.63-2.13,6.96-14.21-0.18-10.92c-9.72,4.47-16.18,16.65-13.93,27.22
				c2.21,10.34,12.75,16.43,22.84,13.97c4.18-1.02,7.15-7.14,5.23-10.96c-4.05-8.06-8.1-16.12-12.15-24.17
				c-1.41-2.8-5.38,0.19-6.55,1.56C476.77,1672.58,475.64,1675.97,477.04,1678.75L477.04,1678.75z"/>
		</g>
	</g>
	<g class="st14">
		<path d="M489.61,1758.18c4.52,7.54,9.05,15.08,13.57,22.62c-6.77,1.51-14.31-2.26-17.3-8.64c-2.99-6.38-1.12-14.74,4.28-19.17"/>
		<g>
			<path d="M485.5,1763.18c4.52,7.54,9.05,15.08,13.57,22.62c1.74-3.65,3.49-7.31,5.23-10.96c-4.85,0.83-9.99-1.27-12.89-5.28
				c-2.46-3.41-3.36-8.87,0.05-11.96c2.13-1.93,4.3-5.58,3.3-8.56c-0.96-2.87-4.02-2.36-5.9-0.66c-7.1,6.44-11.35,16.98-8.11,26.43
				c3.07,8.96,12.27,13.49,21.3,11.95c4.03-0.69,7.35-7.42,5.23-10.96c-4.52-7.54-9.05-15.08-13.57-22.62
				C490.8,1748.31,482.83,1758.72,485.5,1763.18L485.5,1763.18z"/>
		</g>
	</g>
	<g class="st14">
		<path d="M516.79,1517.01c39.06,111.06,102.24,213.19,183.65,296.94c-40.34-2.75-80.69-5.49-121.03-8.24
			c20.66-49.14,23.15-106,6.87-156.83c-16.29-50.83-51.21-95.19-96.33-122.36c5.94-3.58,11.87-7.17,17.81-10.75"/>
		<g>
			<path d="M512.2,1520.96c30.52,86.49,75.4,167.85,132.63,239.54c16.21,20.31,33.42,39.8,51.51,58.45
				c2.13-3.69,4.26-7.38,6.39-11.06c-40.34-2.75-80.69-5.49-121.03-8.24c0.64,2.15,1.28,4.3,1.92,6.45
				c33.51-80.6,19.35-176.12-38.56-241.86c-14.96-16.99-32.44-31.71-51.79-43.45c-1.07,3.73-2.15,7.46-3.22,11.2
				c5.94-3.58,11.87-7.17,17.81-10.75c2.64-1.59,4.85-4.94,4.68-8.11c-0.14-2.72-2.33-4.34-4.87-2.81
				c-5.94,3.58-11.87,7.17-17.81,10.75c-2.74,1.65-7.38,8.67-3.22,11.2c69.4,42.14,109.88,120.97,105.1,201.84
				c-1.45,24.49-7.12,48.58-16.53,71.22c-0.8,1.93-1.13,6.24,1.92,6.45c40.34,2.75,80.69,5.49,121.03,8.24
				c3.96,0.27,9.62-7.73,6.39-11.06c-63.6-65.55-116.01-141.91-154.33-224.82c-10.73-23.22-20.32-46.95-28.83-71.07
				C519.13,1506.67,510.54,1516.26,512.2,1520.96L512.2,1520.96z"/>
		</g>
	</g>
	<g class="st14">
		<path d="M568.09,1528.75c36.18,29.56,72.35,59.12,108.53,88.68c2.82,11.62-12.39,22.78-22.28,16.34
			c-39.23-25.53-69.54-65.06-84.41-110.07"/>
		<g>
			<path d="M564.78,1534.49c35.13,28.7,71.01,56.69,105.47,86.18c5.82,4.98-4.65,9.7-9.3,8.75c-3.78-0.78-7.32-4.02-10.39-6.22
				c-3.81-2.72-7.53-5.58-11.15-8.56c-14.04-11.57-26.44-25.1-36.97-39.92c-11.98-16.86-21.35-35.36-27.91-54.97
				c-2.14-6.41-10.77,3.17-9.19,7.9c13.25,39.6,37.74,74.96,70.49,100.92c6.39,5.07,14.72,13.32,23.42,13.12
				c8.28-0.19,15.61-6.14,19.52-13.12c2.12-3.78,3.28-8.26,2.86-12.59c-0.53-5.39-6.97-8.6-10.86-11.78
				c-10.19-8.33-20.38-16.65-30.57-24.98c-22.93-18.74-45.86-37.47-68.79-56.21C567.44,1519.77,560.45,1530.95,564.78,1534.49
				L564.78,1534.49z"/>
		</g>
	</g>
	<g class="st14">
		<path d="M733.28,1578.65c34.73,12.28,74.05,10.41,107.51-5.13c-8.85,13.05-18.87,25.67-31.93,34.27
			c-13.07,8.6-29.68,12.74-44.46,7.82c-14.78-4.92-26.5-20.32-24.53-36.06"/>
		<g>
			<path d="M729.97,1584.38c36.35,12.59,75.94,10.57,110.92-5.4c-1.18-2.48-2.36-4.97-3.53-7.45
				c-12.39,18.16-28.34,36.36-51.33,39.69c-10.22,1.48-20.7-0.72-28.93-7.07c-7.66-5.91-13.56-15.85-12.57-25.79
				c0.85-8.62-8.72-3.39-9.29,2.36c-2.58,26.07,20.22,45.17,45.37,42.78c28.61-2.72,48.48-25.78,63.64-48
				c2.22-3.26,1.63-9.81-3.53-7.45c-32.5,14.84-70.37,16.54-104.11,4.85C731.32,1571.08,725.17,1582.72,729.97,1584.38
				L729.97,1584.38z"/>
		</g>
	</g>
	<g class="st14">
		<path d="M720.44,1594.58c8.11,40.84,26.86,79.42,53.82,110.71c-5.34,6.47-14.5,9.34-22.47,7.05c-7.97-2.29-14.33-9.62-15.59-17.97
			c-4.52-30.03-9.04-60.06-13.56-90.09"/>
		<g>
			<path d="M715.84,1598.53c8.31,41.12,27.03,79.86,54.3,111.76c0.56-2.81,1.11-5.63,1.67-8.44c-6.37,7.17-17.87,6.48-24.66,0.37
				c-7.94-7.15-7.54-19.63-9.02-29.43c-3.64-24.16-7.27-48.31-10.91-72.47c-0.48-3.17-4.29-1.96-5.9-0.66
				c-2.51,2.03-3.77,5.43-3.3,8.56c4.32,28.73,8.65,57.45,12.97,86.18c1.6,10.61,6.56,20.23,17.46,23.68
				c10.55,3.34,21.18-1.42,28.22-9.35c1.59-1.79,3.56-6.23,1.67-8.44c-26.86-31.4-45.14-69.16-53.33-109.65
				c-0.63-3.11-4.19-2.04-5.9-0.66C716.73,1591.92,715.22,1595.46,715.84,1598.53L715.84,1598.53z"/>
		</g>
	</g>
	<g class="st14">
		<path d="M713.89,1630.28c-2.63,34.78-5.26,69.56-7.89,104.34c-14.12-35.82-8.32-79.07,14.72-109.69"/>
		<g>
			<path d="M709.11,1632.93c-2.63,34.78-5.26,69.56-7.89,104.34c3.12-2.2,6.25-4.4,9.37-6.6c-12.91-33.49-9-73.19,12.56-102.3
				c1.5-2.02,3.63-6.04,1.67-8.44c-1.89-2.32-5.18-0.29-6.55,1.56c-24.6,33.22-31.85,78.26-16.88,117.08
				c0.98,2.53,3.27,2.45,5.29,1.09c2.55-1.72,3.85-4.71,4.08-7.69c2.63-34.78,5.26-69.56,7.89-104.34c0.23-2.98-2.57-3.94-4.87-2.81
				C710.85,1626.26,709.34,1629.87,709.11,1632.93L709.11,1632.93z"/>
		</g>
	</g>
	<g class="st14">
		<path d="M692.59,1662.99c-8.08,27.75-16.15,55.5-24.23,83.24c-8.38,4.22-19.22-6.88-15.07-15.42c15.11-31.1,30.22-62.2,45.32-93.3
			"/>
		<g>
			<path d="M688.39,1662.6c-8.08,27.75-16.15,55.5-24.23,83.24c1.37-1.69,2.74-3.38,4.11-5.07c-5.81,2.46-12.52-5.48-10.23-10.67
				c4.56-10.31,9.89-20.36,14.82-30.5c9.73-20.04,19.47-40.07,29.2-60.11c1-2.07,2.57-6.17-0.13-7.72c-2.5-1.44-5.78,1.75-6.75,3.75
				c-15.1,31.09-30.63,62.02-45.32,93.3c-4.41,9.38-1.05,21.94,10.29,24.16c6.95,1.36,11.41-2.89,13.24-9.19
				c2.39-8.2,4.77-16.4,7.16-24.59c5.41-18.6,10.83-37.21,16.24-55.81c0.64-2.2,1.21-5.95-1.92-6.45
				C692.06,1656.48,689.06,1660.3,688.39,1662.6L688.39,1662.6z"/>
		</g>
	</g>
	<g class="st14">
		<path d="M723.86,1726.1c-0.52,29.27,10.78,58.58,30.69,79.64c-9.11,6.99-23.06,4.45-31.16-3.73
			c-8.11-8.19-11.02-20.57-10.29-32.19c0.73-11.62,4.66-22.74,8.55-33.68"/>
		<g>
			<path d="M719.08,1728.76c-0.31,30.13,10.78,59.9,31.35,81.99c0.94-3.2,1.87-6.41,2.81-9.61c-12.74,9.06-28.73-3.77-33.02-15.73
				c-5.88-16.36,0.09-33.33,5.62-48.88c0.77-2.18,1.12-5.96-1.92-6.45c-2.92-0.47-5.67,3.4-6.48,5.67
				c-6.9,19.4-14.07,41.51-4.81,61.41c7.8,16.75,27.53,24.35,43.21,13.2c2.08-1.48,5.1-7.15,2.81-9.61
				c-19.52-20.96-30.31-48.64-30.02-77.29c0.03-2.94-2.44-4-4.87-2.81C720.97,1722.01,719.11,1725.75,719.08,1728.76L719.08,1728.76
				z"/>
		</g>
	</g>
	<g class="st14">
		<path d="M1013.13,1595.97c-4.01,9.17-8.02,18.34-12.02,27.51c-9.09-12.4,0.47-33.54,15.61-34.51"/>
		<g>
			<path d="M1008.93,1595.58c-4.01,9.17-8.02,18.34-12.02,27.51c2.77-1.54,5.54-3.07,8.31-4.61c-6.48-9.47-1.24-22.41,10.38-23.55
				c4.91-0.48,9.11-12.59,2.25-11.91c-19.61,1.92-31.8,29.46-20.84,45.47c2.71,3.96,7.37-2.46,8.31-4.61
				c4.01-9.17,8.02-18.34,12.02-27.51c0.93-2.14,1.01-5.98-1.92-6.45C1012.36,1589.42,1009.9,1593.34,1008.93,1595.58
				L1008.93,1595.58z"/>
		</g>
	</g>
	<g class="st14">
		<path d="M962.6,1668.15c-0.71,9.39-1.42,18.77-2.12,28.16c-9.9-6.74-11.34-23.23-2.77-31.65"/>
		<g>
			<path d="M957.82,1670.8c-0.71,9.39-1.42,18.77-2.12,28.16c2.7-2.8,5.39-5.59,8.09-8.39c-6.73-4.95-9.81-15.97-3.65-22.48
				c1.7-1.8,3.5-6.2,1.67-8.44c-2.01-2.47-4.99-0.08-6.55,1.56c-10.61,11.21-11.09,31.27,1.9,40.83c4.09,3.01,7.88-5.7,8.09-8.39
				c0.71-9.39,1.42-18.77,2.12-28.16c0.22-2.98-2.57-3.94-4.87-2.81C959.56,1664.13,958.05,1667.74,957.82,1670.8L957.82,1670.8z"/>
		</g>
	</g>
	<g class="st14">
		<path d="M956.75,1744.31c-0.91,7.95-1.81,15.9-2.72,23.86c-10.78-4.31-12.26-22.39-2.33-28.46"/>
		<g>
			<path d="M952.11,1745.49c-0.91,7.95-1.81,15.9-2.72,23.86c2.65-2.31,5.3-4.61,7.96-6.92c-3.86-1.74-6.37-4.91-7.23-9.09
				c-0.52-2.52-0.79-6.52,1.68-8.18c2.59-1.74,4.85-4.83,4.68-8.11c-0.13-2.6-2.37-4.49-4.87-2.81
				c-12.46,8.38-17.23,32.29-0.89,39.66c3.75,1.69,7.59-3.73,7.96-6.92c0.91-7.95,1.81-15.9,2.72-23.86
				C962.38,1734.52,952.76,1739.77,952.11,1745.49L952.11,1745.49z"/>
		</g>
	</g>
	<g class="st14">
		<g>
			<path d="M1404.26,1195.44c5.16,0,10.22-12.12,4.56-12.12C1403.66,1183.32,1398.6,1195.44,1404.26,1195.44L1404.26,1195.44z"/>
		</g>
	</g>
	<g class="st14">
		<g>
			<path d="M683.39,968.68c-3.18,14.13,1.04,28.04,10.64,38.75c9.71,10.84,23.31,15.08,37.44,13.16c7.1-0.97,10.97-10.06,9.25-16.3
				c-2.1-7.65-9.18-10.22-16.3-9.25c2.71-0.37-3.6-0.44-0.76-0.04c-1.07-0.15-2.11-0.46-3.14-0.76c-0.25-0.07-2.46-0.97-1.45-0.5
				c0.78,0.36-3.32-2.03-2.73-1.61c0.81,0.58-1.04-0.89-1.23-1.06c-0.82-0.76-1.58-1.55-2.35-2.37c-0.83-0.89-2.96-4.6-3.23-5.62
				c-0.23-0.85-0.46-1.7-0.7-2.55c-0.98-3.57-0.08,1-0.14-1.05c-0.03-0.89-0.04-1.76,0.01-2.65c0.13-2.27-0.66,2.87,0.23-1.11
				c1.57-6.97-2.12-14.34-9.25-16.3C693.02,957.6,684.96,961.67,683.39,968.68L683.39,968.68z"/>
		</g>
	</g>
</g>
<g id="Ebene_15">
	<g class="st14">
		<g>
			<path class="st3" d="M679.92,458.02c1.45,0.19,2.95,0.31,4.38,0.59c-4.7-0.94-1.97-0.3-0.91-0.12c2.42,0.41,4.84,0.8,7.25,1.24
				c5.31,0.98,10.58,2.11,15.83,3.37c2.38,0.57,4.76,1.18,7.13,1.81c-4.17-1.12,0.6,0.19,1.2,0.37c0.94,0.27,1.88,0.55,2.82,0.83
				c5.17,1.54,10.3,3.23,15.39,5.04c4.63,1.65,9.21,3.41,13.76,5.27c5.8,2.38,8.27,3.48,12.73,5.61
				c9.34,4.45,18.46,9.36,27.33,14.68c35.32,21.2,66.29,49.07,91.16,81.91c14.13,18.66,26.15,38.84,35.84,60.14
				c1.21,2.65,8.04,4.17,10.15,4.62c5.35,1.14,11.58,1.41,17.01,0.78c4.54-0.53,18.77-2.15,15.42-9.51
				C920.06,554.78,850.38,492.3,768.4,461.75c-24.77-9.23-50.55-15.21-76.74-18.63c-5.36-0.7-11.73-0.34-17.01,0.78
				c-2.77,0.59-8.31,1.89-10.15,4.62C659.86,455.41,677.18,457.66,679.92,458.02L679.92,458.02z"/>
		</g>
	</g>
	<g class="st14">
		<g>
			<path class="st3" d="M967.28,579.48c31.89,48.96,54.7,103.22,67.41,160.25c2.78,12.47,46.08,8.64,44.16,0
				c-12.99-58.33-36.36-114.28-68.98-164.36c-1.78-2.73-7.44-4.04-10.15-4.62c-5.35-1.14-11.58-1.41-17.01-0.78
				C979.13,570.39,962.82,572.64,967.28,579.48L967.28,579.48z"/>
		</g>
	</g>
	<g class="st14">
		<g>
			<path class="st3" d="M1113.9,888.15c18.34,20.54,28.61,46.45,29.53,73.96c0.25,7.36,17.34,7.8,22.08,7.73
				c5.22-0.08,10.67-0.45,15.61-2.26c2.26-0.83,6.57-2.45,6.47-5.46c-0.95-28.59-12.03-56.71-31.1-78.06
				c-5.82-6.51-19.27-6.31-27.16-5.4C1126.67,878.95,1108.45,882.05,1113.9,888.15L1113.9,888.15z"/>
		</g>
	</g>
	<g class="st14">
		<g>
			<path class="st3" d="M980.09,1069.71c-14.99,58.22-46.75,111.75-90.26,153.21c-12.02,11.45-24.97,21.78-38.72,31.08
				c-7.83,5.29,3.06,9.64,7.92,10.57c8.72,1.67,22.31,2.57,30.21-2.77c51.57-34.86,92.67-84.19,117.5-141.28
				c7.15-16.45,13.04-33.44,17.51-50.81C1026.32,1061.66,983.36,1056.99,980.09,1069.71L980.09,1069.71z"/>
		</g>
	</g>
	<g class="st14">
		<g>
			<path class="st3" d="M758.17,1443.22c0,20.62,0,41.24,0,61.86c0,2.92,4.48,4.73,6.47,5.46c4.72,1.74,10.65,2.34,15.61,2.26
				c5.22-0.08,10.67-0.45,15.61-2.26c2.33-0.85,6.47-2.42,6.47-5.46c0-20.62,0-41.24,0-61.86c0-2.92-4.48-4.73-6.47-5.46
				c-4.72-1.74-10.65-2.34-15.61-2.26c-5.22,0.08-10.67,0.45-15.61,2.26C762.31,1438.61,758.17,1440.17,758.17,1443.22
				L758.17,1443.22z"/>
		</g>
	</g>
	<g class="st14">
		<g>
			<path class="st3" d="M1041.24,1640.46c26.94,28.76,43.09,65.8,46.04,105.07c0.56,7.41,17.1,7.81,22.08,7.73
				c5.22-0.08,10.67-0.45,15.61-2.26c2.18-0.8,6.69-2.48,6.47-5.46c-3.03-40.38-19.91-79.6-47.62-109.18
				c-6.03-6.43-19.12-6.33-27.16-5.4C1054.14,1631.25,1035.65,1634.49,1041.24,1640.46L1041.24,1640.46z"/>
		</g>
	</g>
	<g class="st14">
		<g>
			<path class="st3" d="M1015.86,1606.74c5.03,0,10.83-0.5,15.61-2.26c1.99-0.73,6.47-2.54,6.47-5.46c0-7.25-18.25-7.73-22.08-7.73
				c-5.03,0-10.83,0.5-15.61,2.26c-1.99,0.73-6.47,2.54-6.47,5.46C993.78,1606.26,1012.03,1606.74,1015.86,1606.74L1015.86,1606.74z
				"/>
		</g>
	</g>
	<g class="st14">
		<g>
			<path class="st3" d="M964.25,1675.48c5.03,0,10.83-0.5,15.61-2.26c1.99-0.73,6.47-2.54,6.47-5.46c0-7.25-18.25-7.73-22.08-7.73
				c-5.03,0-10.83,0.5-15.61,2.26c-1.99,0.73-6.47,2.54-6.47,5.46C942.17,1675,960.42,1675.48,964.25,1675.48L964.25,1675.48z"/>
		</g>
	</g>
	<g class="st14">
		<g>
			<path class="st3" d="M955.27,1755.67c5.03,0,10.83-0.5,15.61-2.26c1.99-0.73,6.47-2.54,6.47-5.46c0-7.25-18.25-7.73-22.08-7.73
				c-5.03,0-10.83,0.5-15.61,2.26c-1.99,0.73-6.47,2.54-6.47,5.46C933.19,1755.19,951.44,1755.67,955.27,1755.67L955.27,1755.67z"/>
		</g>
	</g>
	<g class="st14">
		<g>
			<path class="st3" d="M489.43,1578.37c41.85,51.01,65.49,115.09,67.4,181c0.21,7.35,17.36,7.8,22.08,7.73
				c5.22-0.08,10.67-0.45,15.61-2.26c2.27-0.83,6.55-2.44,6.47-5.46c-1.94-67.03-26.41-133.24-68.97-185.11
				c-5.44-6.63-19.55-6.28-27.16-5.4C501.96,1569.2,484.24,1572.05,489.43,1578.37L489.43,1578.37z"/>
		</g>
	</g>
	<g class="st14">
		<g>
			<path class="st3" d="M901.51,1600.95c-15.66,29.05-31.31,58.1-46.97,87.15c-3.83,7.11,11.36,9.17,15.42,9.51
				c5.62,0.46,11.5,0.5,17.01-0.78c3.03-0.7,8.53-1.62,10.15-4.62c15.66-29.05,31.31-58.1,46.97-87.15
				c3.83-7.11-11.37-9.17-15.42-9.51c-5.62-0.46-11.5-0.5-17.01,0.78C908.63,1597.03,903.12,1597.95,901.51,1600.95L901.51,1600.95z
				"/>
		</g>
	</g>
</g>
<g id="Ebene_16">
</g>
<g id="Ebene_17">
</g>
<g id="Ebene_18">
</g>
</svg>
