<?xml version="1.0" encoding="utf-8"?>
<!-- Generator: Adobe Adobe Illustrator 24.2.0, SVG Export Plug-In . SVG Version: 6.00 Build 0)  -->
<svg version="1.1" xmlns="http://www.w3.org/2000/svg" xmlns:xlink="http://www.w3.org/1999/xlink" x="0px" y="0px"
	 viewBox="0 0 1700.79 1700.79" style="enable-background:new 0 0 1700.79 1700.79;" xml:space="preserve">
<style type="text/css">
	.st0{fill:#6DB571;}
	.st1{fill:#99C154;stroke:#000000;stroke-width:1.1206;stroke-miterlimit:10;}
	.st2{fill:#99C154;}
	.st3{opacity:0.149;}
	.st4{fill:#F4F5E9;}
	.st5{fill:#F4F6E7;}
</style>
<g id="Ebene_7">
</g>
<g id="Ebene_3">
</g>
<g id="Ebene_4">
</g>
<g id="Ebene_5">
	<g>
		<g>
			<path class="st0" d="M544.25,1433.43c149.3-32.88,303.24-44.58,455.8-34.66c-135.7-286.35-223.21-592.68-310.11-897.41
				c-51.1,151.4-62.04,300-95.29,456.29s-56.12,295.04-84.6,477.94"/>
			<g>
				<path class="st0" d="M546.24,1440.66c115.94-25.46,234.54-38.16,353.25-37.8c33.54,0.1,67.08,1.26,100.55,3.41
					c6.14,0.4,8.72-6.55,6.48-11.29c-52.79-111.49-98.38-226.24-139.37-342.55C826.09,935.9,789.59,817.82,754.76,699.3
					c-19.55-66.54-38.58-133.23-57.6-199.92c-2.1-7.37-12.15-6.88-14.46,0c-20.62,61.29-35.33,124.3-47.33,187.79
					c-11.96,63.26-21.47,126.95-32.79,190.33c-10.69,59.84-24.05,119.15-35.66,178.82c-10.9,56.02-20.96,112.2-30.49,168.47
					c-10.35,61.11-20.09,122.31-29.67,183.54c-1.32,8.43-2.63,16.86-3.95,25.28c-0.63,4.03,1.03,8.02,5.24,9.23
					c3.55,1.02,8.6-1.24,9.23-5.24c9.7-62.3,19.52-124.58,29.91-186.76c9.49-56.83,19.47-113.58,30.28-170.18
					c11.21-58.7,24.34-117.01,35.3-175.75c11.79-63.15,21.29-126.7,32.67-189.92c11.39-63.29,24.85-126.29,43.98-187.74
					c2.49-7.99,5.08-15.95,7.74-23.88c-4.82,0-9.64,0-14.46,0c34.07,119.45,68.16,238.92,105.25,357.48
					c36.84,117.79,76.66,234.71,122.26,349.42c25.81,64.93,53.46,129.14,83.37,192.3c2.16-3.76,4.32-7.52,6.48-11.29
					c-119.8-7.72-240.3-2.16-358.91,16.35c-33.14,5.17-66.12,11.38-98.88,18.58C532.83,1428.27,536.82,1442.73,546.24,1440.66
					L546.24,1440.66z"/>
			</g>
		</g>
		<g>
			<g>
				<path d="M680.09,487.22c8.17,88.01,15.78,176.08,22.02,264.25c4.73,66.85,8.6,133.77,11.38,200.73
					c2.53,60.86,4.16,121.74,5.5,182.64c1.55,70.3,2.81,140.6,4.4,210.9c2.15,95.31,4.82,190.61,8.05,285.89
					c0.48,14.27,0.98,28.54,1.48,42.81c0.34,9.6,15.3,9.64,14.95,0c-3.52-99.41-6.48-198.84-8.83-298.29
					c-1.72-72.74-3.07-145.49-4.6-218.24c-1.29-61.22-2.78-122.44-5.12-183.63c-2.49-65.2-5.99-130.36-10.38-195.46
					c-5.7-84.72-12.77-169.34-20.44-253.89c-1.14-12.57-2.3-25.14-3.46-37.7C694.16,477.72,679.2,477.63,680.09,487.22
					L680.09,487.22z"/>
			</g>
		</g>
		<g>
			<g>
				<path d="M500.07,1443.1c83.91-5.7,167.8-11.71,251.61-18.69c50.34-4.19,100.65-8.79,151.01-12.82
					c34.94-2.79,69.91-5.33,104.89-7.7c4.29-0.29,9.24-4.65,7.23-9.49c-32.08-77.44-63.41-155.21-93.33-233.51
					c-23.26-60.86-45.65-122.05-66.88-183.65c-17.86-51.82-34.87-103.93-51.3-156.22c-15.82-50.32-31.15-100.79-46.61-151.22
					c-17.27-56.32-34.75-112.58-52.8-168.65c-2.52-7.81-5.04-15.62-7.58-23.42c-2.13-6.56-12.92-7.69-14.46,0
					c-24.93,123.95-49.36,248.01-73.69,372.08c-24.33,124.06-48.55,248.13-73.04,372.16c-13.72,69.48-27.53,138.95-41.5,208.39
					c-1.9,9.43,12.56,13.46,14.46,3.99c24.93-123.95,49.36-248.01,73.69-372.08c24.33-124.06,48.55-248.13,73.04-372.16
					c13.72-69.48,27.53-138.95,41.5-208.39c-4.82,0-9.64,0-14.46,0c18.62,57.31,36.63,114.81,54.34,172.41
					c15.6,50.72,30.99,101.51,46.79,152.17c16.11,51.65,32.7,103.14,50.12,154.36c20.42,60.03,41.93,119.68,64.34,178.99
					c28.63,75.81,58.64,151.1,89.43,226.05c4.48,10.9,8.97,21.79,13.49,32.68c2.41-3.16,4.82-6.33,7.23-9.49
					c-56.73,3.86-113.41,8.26-170.06,13.16c-58,5.01-116,9.96-174.04,14.38c-54.45,4.14-108.92,7.98-163.4,11.68
					C490.49,1428.75,490.42,1443.76,500.07,1443.1L500.07,1443.1z"/>
			</g>
		</g>
		<ellipse class="st1" cx="423.38" cy="895.93" rx="350" ry="360"/>
		<g>
			<g>
				<path class="st2" d="M349.58,1633.39c7.72,15.91,15.45,31.82,23.17,47.73c3.45,7.1,12.62,10.53,19.93,9.55
					c7.79-1.05,14.48-6.62,16.63-14.33c4.6-16.55,9.21-33.1,13.81-49.65c-12.86,0-25.71,0-38.57,0
					c3.76,18.89,11.94,37.22,23.71,52.48c5.07,6.58,11.14,10.73,19.93,9.55c8.25-1.11,13.85-6.67,16.63-14.33
					c5.57-15.37,11.15-30.74,16.72-46.11c-12.18,1.59-24.37,3.19-36.55,4.78c3.66,4.99,6.37,10.26,9.34,15.65
					c1.48,2.68-1.49-4.22,0.36,0.82c0.5,1.36,1,2.72,1.45,4.1c1,3.04,1.8,6.11,2.49,9.23c2.27,10.23,14.69,17.18,24.6,13.97
					c10.74-3.48,16.4-13.65,13.97-24.6c-3.11-14.06-9.15-27.73-17.68-39.35c-4.88-6.66-11.32-10.7-19.93-9.55
					c-8.25,1.11-13.85,6.67-16.63,14.33c-5.57,15.37-11.15,30.74-16.72,46.11c12.18-1.59,24.37-3.19,36.56-4.78
					c-5.28-6.85-9.44-14.1-13.33-21.79c-0.93-2.1-0.94-2.07-0.03,0.09c-0.43-1.05-0.85-2.11-1.25-3.18c-0.6-1.6-1.16-3.21-1.68-4.83
					c-1.4-4.34-2.5-8.75-3.39-13.22c-1.64-8.22-11.02-15.05-19.29-14.68c-8.84,0.4-16.85,5.93-19.29,14.68
					c-4.6,16.55-9.21,33.1-13.81,49.65c12.18-1.59,24.37-3.19,36.55-4.78c-7.72-15.91-15.45-31.82-23.17-47.73
					c-4.58-9.44-18.77-12.72-27.36-7.18C347.08,1612.27,344.68,1623.3,349.58,1633.39L349.58,1633.39z"/>
			</g>
		</g>
		<g>
			<g>
				<path class="st2" d="M480.02,1631.29c1.35,11.12,2.7,22.24,4.04,33.36c0.88,7.25,3.26,13.38,9.91,17.27
					c5.58,3.26,14.72,4.21,20.19,0c5.69-4.38,10.68-9.02,13.9-15.59c2.54-5.18,4.38-10.61,6.16-16.07c0.16-0.49,1.28-3.05,1.13-3.34
					c0.31,0.56-1.86,3.6-0.32,0.84c0.08-0.15,2.16-3.83,2.24-3.76c0.08,0.07-2.57,3.18-0.4,0.72c2.82-3.19-2.23,1.29-0.32,0.16
					c1.32-0.75,0.72-0.53-1.8,0.68c-0.92,0.09-1.84,0.17-2.77,0.26c3.71-0.15-3.07-0.72-1.2-0.2c2.03,0.57-4.79-2.38-1.89-0.67
					c-0.18-0.11-3.99-3.18-2.04-1.43c1.95,1.76-1.41-2.73-1.24-1.53c0.05,0.34,0.79,1.83,1.12,2.08c-0.74-0.57-1.73-4.9-0.71-1.53
					c0.99,3.29,1.91,6.58,2.82,9.9c2.52,9.18,6.28,19.08,13.85,25.32c11.63,9.59,28.62,6.44,33.43-8.83
					c2.72-8.64,5.45-17.29,8.17-25.93c-13.1-1.77-26.19-3.54-39.29-5.32c1.89,15.18,7.48,29.08,19.16,39.47
					c7.81,6.95,20.69,8.28,28.28,0c6.98-7.6,8.35-20.86,0-28.28c-1.25-1.11-3.7-2.79-4.34-4.37c1.52,2.04,1.64,2.16,0.36,0.34
					c-0.56-0.86-1.1-1.74-1.59-2.64c-0.5-0.9-0.96-1.82-1.38-2.76c1.01,2.41,1.13,2.57,0.36,0.46c-0.24-1.1-1.55-7.77-0.86-2.22
					c-1.24-10-6.67-18.21-17.34-19.64c-9.99-1.34-18.92,4.74-21.94,14.33c-2.72,8.64-5.45,17.29-8.17,25.93
					c11.14-2.94,22.29-5.88,33.43-8.83c-0.42-0.35-1.74-1.9-2.2-2.07c1.02,0.36,2.58,4.25,1.05,1.17c-0.38-0.76-1.84-4.24-0.64-0.87
					c1.19,3.34,0.1,0.14-0.17-0.61c-1.33-3.82-2.2-7.78-3.31-11.66c-3.56-12.39-10.19-23.49-22.96-27.91
					c-16.4-5.68-32.16,3.73-40.8,17.49c-3.32,5.29-5.22,11.41-7.15,17.3c-0.37,1.13-0.8,2.25-1.14,3.38
					c-1.24,4.19,1.75-3.09-0.11,0.42c-0.18,0.33-2.08,3.27-2.04,3.56c0.49-0.64,0.98-1.28,1.47-1.92c-1.54,1.49-1.2,1.35,1.01-0.4
					c10.03,5.76,20.06,11.51,30.09,17.27c-1.35-11.12-2.7-22.24-4.04-33.36c-1.25-10.35-8.3-20.52-20-20
					C490.27,1611.72,478.68,1620.16,480.02,1631.29L480.02,1631.29z"/>
			</g>
		</g>
		<g>
			<g>
				<path class="st2" d="M590.61,1626.41c4.64,15.43,9.27,30.86,13.91,46.29c2.88,9.58,12.04,15.66,21.94,14.33
					c8.92-1.2,18.46-9.75,17.34-19.64c-0.29-2.59-0.49-5.17-0.51-7.78c0-0.67-0.26-7.51,0.4-7.78c-0.25,0.11-0.71,4.01-0.06,0.68
					c0.25-1.28,0.49-2.55,0.79-3.82c0.59-2.54,1.32-5.03,2.19-7.49c0.48-1.36,0.56-4.14-0.01-0.3c0.13-0.89,0.92-2.02,1.32-2.83
					c1.15-2.33,2.43-4.6,3.83-6.79c0.7-1.1,1.49-2.13,2.19-3.22c1.52-2.36-3.04,3.41,0.24-0.25c1.74-1.94,3.5-3.83,5.39-5.63
					c-11.14-2.94-22.29-5.88-33.43-8.83c3.87,18.28,7.75,36.57,11.62,54.85c1.74,8.21,10.95,15.06,19.29,14.68
					c8.96-0.4,16.67-5.95,19.29-14.68c5.18-17.3,10.36-34.6,15.53-51.89c3-10.02-3.6-22.24-13.97-24.6
					c-10.77-2.45-21.39,3.24-24.6,13.97c-5.18,17.3-10.36,34.6-15.53,51.89c12.86,0,25.71,0,38.57,0
					c-3.87-18.28-7.75-36.57-11.62-54.85c-3.23-15.26-23.11-18.63-33.43-8.83c-19.49,18.51-30.52,46.64-27.49,73.5
					c13.1-1.77,26.19-3.54,39.29-5.32c-4.64-15.43-9.27-30.86-13.91-46.29c-3.01-10.01-14.16-17.35-24.6-13.97
					C594.46,1605.08,587.39,1615.68,590.61,1626.41L590.61,1626.41z"/>
			</g>
		</g>
		<g>
			<g>
				<path class="st2" d="M689.7,1652.7c3.59,8.67,7.17,17.34,10.76,26c3.85,9.32,11.26,15.76,21.94,14.33
					c9.54-1.28,17.6-9.64,17.34-19.64c-0.04-1.64-0.06-3.28,0.02-4.92c0.03-0.6,0.6-5.14,0.13-2.23c-0.47,2.93,0.38-1.62,0.51-2.18
					c0.37-1.6,0.81-3.18,1.31-4.74c0.17-0.51,1.8-4.77,0.73-2.21c-1.08,2.55,0.82-1.59,1.08-2.07c1.54-2.91,3.36-5.63,5.35-8.24
					c-11.51,0-23.03,0-34.54,0c1.41,2.53,2.71,5.1,3.92,7.73c-1.19-2.59-0.31-0.75,0.28,0.84c0.5,1.36,0.98,2.72,1.41,4.1
					c0.79,2.48,1.46,5,2.03,7.53c0.32,1.41,0.55,2.84,0.86,4.25c0.92,4.32-0.29-3.24,0.22,1.56c0.87,8.17,4.33,14.92,12.29,18.28
					c6.85,2.89,16.73,1.94,21.85-4.14c10.61-12.59,21.23-25.19,31.84-37.78c-11.14-2.94-22.29-5.88-33.43-8.83
					c2.45,10.19,4.9,20.39,7.35,30.58c3.35,13.93,23.66,20.26,33.43,8.83c10.2-11.94,20.39-23.87,30.59-35.81
					c6.79-7.95,8.39-20.59,0-28.28c-7.47-6.86-21.03-8.49-28.28,0c-10.2,11.94-20.39,23.87-30.59,35.81
					c11.14,2.94,22.29,5.88,33.43,8.83c-2.45-10.19-4.9-20.39-7.35-30.58c-3.33-13.86-23.72-20.35-33.43-8.83
					c-10.61,12.59-21.23,25.19-31.84,37.78c11.38,4.71,22.76,9.43,34.14,14.14c-1.75-16.44-6.1-31.69-14.18-46.21
					c-3.41-6.12-10.34-9.91-17.27-9.91c-7.72,0-12.85,4.1-17.27,9.91c-10.03,13.18-15.01,30.31-14.59,46.79
					c13.1-1.77,26.19-3.54,39.29-5.32c-3.59-8.67-7.17-17.34-10.76-26c-2.08-5.03-4.3-9.09-9.19-11.95
					c-4.29-2.51-10.61-3.57-15.41-2.02C694.4,1631.1,685.42,1642.35,689.7,1652.7L689.7,1652.7z"/>
			</g>
		</g>
		<g>
			<g>
				<path d="M678.44,805.73c-19.1-41.51-42.84-81.02-72.66-115.75c-24.55-28.58-53.48-53.71-86.18-72.57
					c-28.88-16.65-60.71-28.37-93.62-33.77c-31.91-5.23-64.31-4.84-96.14,0.76c-31.52,5.54-62.05,16.35-90.43,31.08
					c-28.78,14.94-55.4,34.17-78.93,56.45c-24.01,22.74-44.92,48.93-61.79,77.37c-17.28,29.13-30.43,60.87-38.58,93.76
					c-8.53,34.42-11.71,70.23-9.3,105.61c2.64,38.7,11.63,76.81,26.02,112.81c15.4,38.53,36.11,76.41,62.46,108.59
					c18.53,22.63,41.81,41.31,67.36,55.45c26.46,14.65,55.44,24.71,85.05,30.68c30.91,6.22,62.63,8.31,94.1,6.69
					c32.29-1.67,64.46-7.06,95.52-16.03c30.96-8.94,61.04-21.45,88.97-37.56c27.3-15.74,52.77-35.09,74.56-57.89
					c21.53-22.52,39.63-48.51,52.31-77.02c13.49-30.32,21.01-62.83,22.44-95.99c1.62-37.7-4.6-75.6-15.89-111.51
					c-6.47-20.58-14.63-40.61-23.9-60.08c-4.15-8.71-17.08-1.11-12.95,7.57c17.17,36.06,30.25,74.59,35.5,114.3
					c4.37,33.05,3.19,66.51-4.71,98.51c-7.3,29.59-19.73,56.59-37.23,81.75c-16.5,23.74-38.63,46.12-61.66,63.56
					c-24.25,18.36-51.86,33.89-79.4,45.24c-29.09,11.99-59.6,20.54-90.66,25.6c-29.38,4.79-60.87,6.3-91.33,4.06
					c-28.9-2.13-57.96-7.85-85.93-17.96c-25.42-9.18-51.75-23.5-72.46-40.72c-26.54-22.07-45.04-49.09-62.17-78.94
					c-19.87-34.62-35.04-71.87-43.7-110.89c-7.65-34.45-9.93-69.99-6.59-105.14c3.1-32.51,11.53-65.45,24.25-95.67
					c12.24-29.09,29.19-57.32,48.95-81.68c19.76-24.36,43-46.37,68.28-64.22c25.38-17.93,52.98-32.31,81.97-42.1
					c29.22-9.87,58.5-15.08,89.02-15.25c31.31-0.17,61.45,5.04,91.15,15.85c31.12,11.33,60.52,29.09,85.94,50.76
					c30.63,26.1,56.18,57.6,77.35,91.73c11.98,19.32,22.57,39.46,32.07,60.1C669.52,822.06,682.45,814.44,678.44,805.73
					L678.44,805.73z"/>
			</g>
		</g>
		<g>
			<g>
				<path d="M709.51,661.62c-41.79-53.65-106.19-87.47-171.5-102.99c-32.84-7.81-67.06-11.38-100.77-8.89
					c-36.48,2.7-72.03,12.03-105.46,26.78c-65.24,28.78-120.42,78.7-155.88,140.51c-34.56,60.24-51.28,131.02-46.59,200.36
					c4.58,67.8,30.13,131.9,73.14,184.46c41.71,50.96,98.64,89.83,161.71,109.05c63.71,19.41,132.48,16.69,194.94-6.11
					c62.1-22.67,117.42-63.81,154.85-118.54c36.41-53.22,54.32-118.7,59.25-182.46c5.17-66.9-4.86-136.2-34.62-196.74
					c-7.13-14.5-15.46-28.37-24.93-41.47c-2.39-3.31-6.5-4.83-10.26-2.69c-3.26,1.86-5.06,6.99-2.69,10.26
					c37.89,52.43,55.87,116.68,58.44,180.84c2.48,62.08-8.29,126.1-34.42,182.69c-26.6,57.6-71.97,104.21-127.52,134.54
					c-55.39,30.24-120.31,43.88-183.07,35.38c-62.36-8.44-121.25-37.72-167.57-80.01c-47.29-43.17-81.44-99.61-95.46-162.24
					c-14.52-64.86-7.74-133.69,16.42-195.41c24.65-62.99,68.59-117.5,125.37-154.34c57.98-37.62,126.55-55.76,195.5-49.18
					c64.04,6.12,129.29,30.57,178.24,72.92c11.82,10.23,22.66,21.54,32.27,33.88c2.51,3.22,7.97,2.58,10.61,0
					C712.7,669.11,711.98,664.8,709.51,661.62L709.51,661.62z"/>
			</g>
		</g>
		<g>
			<g>
				<path d="M423.41,895.4c1.64,93.41-0.65,186.81-4.24,280.15c-3.74,97.09-8.48,194.13-11.21,291.26
					c-1.76,62.53-2.73,125.08-2.74,187.63c0,9.65,15,9.67,15,0c0.02-106.82,3.08-213.59,7.4-320.32
					c3.78-93.32,8.33-186.61,10.33-279.99c1.13-52.9,1.4-105.82,0.47-158.73C438.24,885.76,423.24,885.73,423.41,895.4L423.41,895.4
					z"/>
			</g>
		</g>
		<g>
			<g>
				<path d="M438.14,1188.41c24.82-74.59,56.32-146.51,86.3-219.11c9.86-23.87,19.51-47.83,28.88-71.91
					c1.48-3.8-1.63-8.19-5.24-9.23c-4.23-1.21-7.76,1.48-9.23,5.24c-29.61,76.07-63.36,150.48-92.32,226.8
					c-8.06,21.25-15.68,42.65-22.86,64.22C420.62,1193.6,435.11,1197.54,438.14,1188.41L438.14,1188.41z"/>
			</g>
		</g>
	</g>
</g>
<g id="Ebene_6">
	<g>
		<g id="Ebene_3_1_">
			<g class="st3">
				<g>
					<path d="M727.87,789.78c2.93,0,5.81-7.3,2.59-7.3C727.53,782.48,724.65,789.78,727.87,789.78L727.87,789.78z"/>
				</g>
			</g>
			<g class="st3">
				<path d="M722.77,784.44c3.4,57.05,6.8,114.11,10.19,171.16c50.67-41.27,101.35-82.53,152.02-123.8
					c28.25-23.01,54.93-59.15,91.55-57.12c37.96,2.11,82.03,1.71,118.3,3.72c87.4,4.85,155.66,0.03,242.37-12.52
					c26.53-3.84,67.27-29.46,87.07-48.56c24.12-23.26,26.75-48.67,29.05-83.14c8.88-133.61-13.23-267.71-47.76-396.56
					c-8.56-31.95-19.99-66.58-47.09-83.29c-24-14.8-53.89-11.46-81.35-7.12c-217.88,34.37-430.95,102.77-630.18,202.31
					c-21.98,10.99-45.29,23.87-56.09,46.93c-8.53,18.21-10.01,39.94-6.14,59.85c16.45,84.63,25.29,140.56,37.72,229.39
					c3.51,25.08,12.4,64.39,32.95,77.38c20.11,12.71,42.83,12.55,65.06,9.9c1.85,3.84,3.71,7.67,5.57,11.51"/>
				<g>
					<path d="M720.06,786.03c3.4,57.05,6.8,114.11,10.19,171.16c0.14,2.37,1.96,2.39,3.46,1.18c38.81-31.6,77.61-63.2,116.41-94.8
						c17.19-14,34.8-27.55,51.11-42.7c13.44-12.5,26.69-25.93,42.71-34.71c7.96-4.36,16.7-7.39,25.7-7.84
						c10.41-0.53,21.07,0.77,31.49,1.09c21.96,0.68,43.92,0.91,65.88,1.56c22.14,0.65,44.25,2.15,66.4,2.65
						c22.11,0.5,44.24,0.33,66.34-0.57c44.1-1.81,88.02-6.63,131.75-12.85c17.23-2.45,32.98-9.03,48.31-17.58
						c15.32-8.54,30.29-18.65,43.35-30.75c12.81-11.87,22.18-26.64,26.88-44.01c5.03-18.58,5.74-38.43,6.75-57.62
						c2.61-49.99,0.96-100.17-3.97-149.95c-4.86-49.02-12.84-97.66-23.07-145.73c-5.15-24.22-10.88-48.3-17.06-72.24
						c-5.16-19.96-10.18-40.18-18.52-58.98c-7.35-16.57-17.7-32.09-32.7-41.76c-17.35-11.18-38.24-12.71-58.03-11.16
						c-21.67,1.69-43.25,5.96-64.67,9.74c-22.52,3.99-44.99,8.33-67.38,13.04c-89.05,18.72-177.05,43.15-263.34,73.07
						c-86.01,29.83-170.35,65.1-252.37,105.63c-16.96,8.38-34.51,16.66-48.84,29.7c-14.46,13.16-23.21,30.99-25.88,50.95
						c-3.06,22.91,2.96,45.15,7.14,67.44c3.93,20.97,7.71,41.98,11.26,63.02c7.29,43.11,13.64,86.38,19.72,129.7
						c4.48,31.91,11.3,73.96,42.61,88.24c18.39,8.39,38.61,7.89,58.13,5.61c-0.57-0.19-1.13-0.38-1.7-0.57
						c1.85,3.84,3.71,7.67,5.57,11.51c1.43,2.95,6.02-3.25,4.67-6.03c-1.85-3.84-3.71-7.67-5.57-11.51
						c-0.32-0.67-1.14-0.64-1.7-0.57c-20.89,2.44-42.88,2.52-61.79-8.54c-14.08-8.23-21.3-24.78-26.16-40.29
						c-5.42-17.27-7.77-35.16-10.31-53.09c-3.08-21.78-6.23-43.55-9.56-65.28c-6.28-40.98-13.3-81.82-20.99-122.53
						c-4.27-22.61-9.85-44.78-4.34-67.76c4.9-20.45,17.87-34.72,34.52-45.46c17.01-10.97,35.71-19.23,53.82-27.94
						c20.06-9.65,40.25-18.98,60.56-28.01c41.39-18.38,83.31-35.43,125.67-51.15c83.16-30.86,168.02-56.57,254-76.96
						c43.52-10.32,87.32-19.27,131.34-26.83c20.91-3.59,42.14-7.99,63.37-8.33c19.61-0.31,39.23,3.86,54.62,17.45
						c13.63,12.03,22.2,29.41,28.41,46.69c7.23,20.11,12.18,41.2,17.35,61.98c11.73,47.15,21.6,94.85,28.73,143.03
						c7.12,48.05,11.47,96.6,12.18,145.25c0.36,24.44-0.22,48.9-1.8,73.29c-1.19,18.13-2.26,37.05-9.24,53.91
						c-6.73,16.25-19.25,28.03-32.59,38.19c-14.6,11.13-30.55,20.87-47.24,28.03c-17.69,7.59-36.47,9.15-55.27,11.56
						c-21.91,2.81-43.87,5.18-65.88,6.88c-42.96,3.32-86.05,3.89-129.08,2.02c-42.51-1.86-85.08-2.12-127.57-4.17
						c-8.86-0.43-17.29-0.47-25.89,2.19c-7.63,2.36-14.83,6.12-21.55,10.61c-14.92,9.97-27.66,23.05-40.97,35.2
						c-16.7,15.24-34.76,28.92-52.23,43.15c-18.72,15.24-37.43,30.49-56.15,45.73c-18.26,14.87-36.52,29.74-54.78,44.61
						c1.15,0.39,2.31,0.79,3.46,1.18c-3.4-57.05-6.8-114.11-10.19-171.16C725.21,778.13,719.88,782.97,720.06,786.03L720.06,786.03z
						"/>
				</g>
			</g>
			<g class="st3">
				<g>
					<path d="M1405.53,923.52c2.93,0,5.81-7.3,2.59-7.3C1405.19,916.22,1402.31,923.52,1405.53,923.52L1405.53,923.52z"/>
				</g>
			</g>
		</g>
		<g id="Ebene_3_Kopie">
			<g>
				<g>
					<path class="st4" d="M745.46,765.31c2.93,0,5.81-7.3,2.59-7.3C745.12,758.01,742.24,765.31,745.46,765.31L745.46,765.31z"/>
				</g>
			</g>
			<g>
				<path class="st5" d="M740.37,759.97c3.4,57.05,6.8,114.11,10.19,171.16c50.67-41.27,101.35-82.53,152.02-123.8
					c28.25-23.01,54.93-59.15,91.55-57.12c37.96,2.11,82.03,1.71,118.3,3.72c87.4,4.85,155.66,0.03,242.37-12.52
					c26.53-3.84,67.27-29.46,87.07-48.56c24.12-23.26,26.75-48.67,29.05-83.14c8.88-133.61-13.23-267.71-47.76-396.56
					c-8.56-31.95-19.99-66.58-47.09-83.29c-24-14.8-53.89-11.46-81.35-7.12c-217.88,34.37-430.95,102.77-630.18,202.31
					c-21.98,10.98-45.29,23.86-56.09,46.92c-8.53,18.21-10.01,39.94-6.14,59.85c16.45,84.63,25.29,140.56,37.72,229.39
					c3.51,25.08,15.98,59.5,32.95,77.38c16.97,17.87,46.09,25.36,65.06,9.9c1.85,3.84,3.71,7.67,5.57,11.51"/>
				<g>
					<path class="st4" d="M737.65,761.57c3.4,57.05,6.8,114.11,10.19,171.16c0.14,2.37,1.96,2.39,3.46,1.18
						c38.81-31.6,77.61-63.2,116.41-94.8c17.54-14.28,35.46-28.12,52.07-43.61c13.4-12.49,26.72-25.86,42.83-34.39
						c7.85-4.16,16.43-6.93,25.23-7.29c10.22-0.42,20.65,0.81,30.87,1.12c22.46,0.7,44.94,0.92,67.4,1.6
						c22.17,0.68,44.31,2.17,66.49,2.64c22.34,0.47,44.69,0.26,67.02-0.71c44.19-1.91,88.19-6.83,131.99-13.12
						c17.06-2.45,33.08-9.92,48.12-18.55c14.88-8.53,29.5-18.49,42.14-30.48c12.86-12.21,21.83-27.41,26.3-45.08
						c4.83-19.05,5.42-39.44,6.36-59.03c2.41-50,0.58-100.18-4.5-149.93c-5.07-49.59-13.31-98.79-23.83-147.4
						c-5.23-24.2-11.03-48.25-17.28-72.18c-5.05-19.35-10.13-38.86-18.58-56.92c-7.83-16.73-19.09-32.07-34.95-40.88
						c-17.78-9.88-38.44-10.52-58.02-8.67c-22.31,2.11-44.53,6.45-66.6,10.42c-22.25,4-44.44,8.35-66.56,13.05
						c-89.55,19.03-178.01,43.83-264.73,74.2c-86.19,30.17-170.68,65.83-252.82,106.75c-16.66,8.3-33.79,17.1-46.97,31.06
						c-13.53,14.34-20.51,33.42-21.89,53.48c-0.78,11.27,0.57,22.23,2.7,33.25c2.25,11.63,4.46,23.26,6.62,34.91
						c3.85,20.76,7.54,41.55,11.01,62.39c3.47,20.82,6.74,41.68,9.86,62.57c3.43,22.92,6.12,46.01,9.95,68.85
						c3.12,18.66,9.41,37.12,18.22,53.61c8.7,16.27,20.76,30.05,37.81,36.27c15.19,5.54,31.65,4.55,44.78-5.79
						c-1.02,0.08-2.05,0.16-3.07,0.23c1.85,3.84,3.71,7.67,5.57,11.51c1.43,2.95,6.02-3.25,4.67-6.03
						c-1.85-3.84-3.71-7.67-5.57-11.51c-0.64-1.32-2.37-0.32-3.07,0.23c-14.36,11.32-34.27,8.59-49.14-0.09
						c-15.76-9.2-25.78-25.81-33-42.79c-7.72-18.15-11.49-36.81-14.25-56.39c-3.09-21.94-6.26-43.86-9.6-65.76
						c-6.28-41.18-13.29-82.21-20.99-123.12c-4.19-22.28-10.05-44.34-5.46-67.11c4.19-20.81,16.29-35.83,32.95-47.04
						c16.87-11.35,35.71-19.6,53.85-28.35c20.29-9.79,40.72-19.26,61.27-28.41c40.89-18.19,82.28-35.08,124.11-50.68
						c83.62-31.18,168.97-57.14,255.47-77.72c43.51-10.35,87.31-19.34,131.32-26.93c20.95-3.61,42.22-8.02,63.49-8.57
						c19.65-0.51,39.46,3.25,55.14,16.58c13.82,11.76,22.59,29.01,28.9,46.24c7.4,20.21,12.38,41.48,17.6,62.41
						c11.68,46.86,21.52,94.26,28.68,142.14c7.23,48.33,11.67,97.18,12.43,146.12c0.38,24.44-0.17,48.9-1.73,73.29
						c-1.16,18.03-2.18,36.81-8.85,53.68c-6.48,16.39-18.76,28.29-32.05,38.55c-14.63,11.3-30.66,21.12-47.41,28.43
						c-17.95,7.83-36.96,9.47-56.08,11.92c-21.66,2.78-43.36,5.13-65.12,6.83c-42.93,3.35-85.99,3.96-129,2.11
						c-21.45-0.92-42.86-1.95-64.33-2.4c-21.36-0.45-42.73-0.77-64.07-1.8c-8.65-0.42-16.9-0.48-25.31,2.02
						c-7.85,2.33-15.24,6.19-22.12,10.78c-14.92,9.96-27.66,23.05-40.97,35.2c-16.7,15.24-34.76,28.92-52.23,43.15
						c-18.72,15.24-37.43,30.49-56.15,45.73c-18.26,14.87-36.52,29.74-54.78,44.61c1.15,0.39,2.31,0.79,3.46,1.18
						c-3.4-57.05-6.8-114.11-10.19-171.16C742.8,753.66,737.47,758.5,737.65,761.57L737.65,761.57z"/>
				</g>
			</g>
			<g>
				<g>
					<path class="st4" d="M1423.12,899.05c2.93,0,5.81-7.3,2.59-7.3C1422.77,891.75,1419.9,899.05,1423.12,899.05L1423.12,899.05z"
						/>
				</g>
			</g>
		</g>
		<g id="Ebene_2_1_">
			<g>
				<g>
					<path d="M738.98,750.72c-14.76,1.84-30.16,2.84-44.73-0.96c-7.03-1.84-13.85-5.02-19.49-9.89
						c-6.35-5.49-11.07-13.23-14.91-20.81c-8.29-16.35-12.32-34.72-15.81-52.77c-4.09-21.15-7.97-42.36-11.94-63.54
						c-8.15-43.42-16.3-86.84-24.44-130.26c-6.72-35.83-16.07-78.89,7.24-110.4c10.04-13.57,23.98-23.18,38.25-31.09
						c15.86-8.8,32.52-16.04,49-23.41c36.49-16.32,73.5-31.35,110.84-45.33c74.22-27.79,149.77-51.41,225.84-72.8
						c75.95-21.36,152.44-40.49,228.97-59.36c18.48-4.56,37.03-10.05,55.87-12.64c17.83-2.45,36.32-1,51.62,9.85
						c27.2,19.29,37.43,57.5,47.17,88.59c24.8,79.21,40.56,161.58,46.83,244.77c3.01,39.96,4.36,80.42,2.32,120.49
						c-1.71,33.64-6.73,68.9-23.56,98.13c-17.61,30.57-47.33,47.35-79.41,55.56c-35.29,9.02-72.41,10.22-108.51,12.24
						c-77.14,4.3-154.37,3.58-231.56,1.78c-19.68-0.46-39.36-0.97-59.04-1.47c-2.93-0.07-5.85,7.22-2.59,7.3
						c80.52,2.04,161.09,4.35,241.63,1.81c39.49-1.25,79.2-2.99,118.51-7.45c33.02-3.75,67.12-11.11,94.51-32.16
						c57.04-43.83,57.27-128.91,56.09-196.07c-1.51-85.68-13.02-171.21-34.14-253.93c-5.35-20.97-11.33-41.76-17.91-62.34
						c-5.47-17.07-11.04-34.29-19.16-50.18c-7.21-14.11-16.83-27.39-29.99-35.73c-15.34-9.73-33.4-10.75-50.74-8.47
						c-19.38,2.55-38.45,8.26-57.44,12.94c-19.99,4.93-39.99,9.88-59.96,14.88c-39.71,9.94-79.37,20.1-118.92,30.73
						c-78.71,21.17-157,44.27-234.07,71.44c-38.59,13.6-76.87,28.22-114.68,44.11c-18.51,7.78-36.92,15.85-55.19,24.25
						c-15.83,7.28-31.85,14.54-46.42,24.43c-13.48,9.16-25.75,20.72-33.68,35.65c-8.7,16.37-11.31,35.23-10.62,53.8
						c0.73,19.73,4.74,39.15,8.36,58.45c4.19,22.31,8.37,44.62,12.56,66.94c8.22,43.81,15.7,87.87,24.8,131.48
						c3.74,17.91,8.63,35.96,17.92,51.63c8.47,14.28,19.99,23.23,35.63,26.7c14.34,3.19,29.26,2.06,43.69,0.27
						C740.49,757.55,742.87,750.23,738.98,750.72L738.98,750.72z"/>
				</g>
			</g>
			<g>
				<g>
					<path d="M735.25,716.06c1.35,28.52,2.46,57.05,3.55,85.59c1.17,30.52,2.3,61.04,3.53,91.56c0.62,15.38,1.27,30.76,2,46.14
						c0.08,1.55,1.34,2.72,2.77,1.69c34.86-25.18,69.01-51.47,102.32-78.89c34.32-28.26,67.8-57.74,99.78-88.93
						c17.08-16.66,33.71-33.83,49.7-51.67c0.99-1.11,1.95-3.7,0.95-5.09c-1.11-1.53-2.87-0.01-3.72,0.94
						c-28.6,31.91-59.35,61.64-91.02,90.09c-32.96,29.6-67.04,57.8-101.89,84.87c-18.51,14.38-37.26,28.42-56.22,42.11
						c0.92,0.56,1.84,1.13,2.77,1.69c-1.35-28.52-2.46-57.05-3.55-85.59c-1.17-30.52-2.3-61.04-3.53-91.56
						c-0.62-15.38-1.27-30.76-2-46.14c-0.08-1.73-1.32-2.45-2.77-1.69C736.39,711.97,735.16,714.27,735.25,716.06L735.25,716.06z"/>
				</g>
			</g>
			<g>
				<g>
					<path d="M1494.65,614.26c-1.79,33.28-13.49,65.81-32.86,92.05c-19.94,27.01-47.81,46.56-78.83,56.19
						c-17.7,5.5-36.17,7.76-54.58,6.54c-2.92-0.19-5.89,7.08-2.59,7.3c34.14,2.26,68.74-7.25,97.67-26.57
						c28.62-19.11,50.83-47.59,63.94-80.56c7.33-18.46,11.62-38.17,12.7-58.15c0.1-1.78-1.44-2.39-2.77-1.69
						C1495.67,610.23,1494.75,612.41,1494.65,614.26L1494.65,614.26z"/>
				</g>
			</g>
		</g>
		<g id="Ebene_4_1_">
			<g>
				<g>
					<path d="M867.94,324.87c-2.15,51.12-4.31,102.25-6.47,153.37s-4.31,102.25-6.47,153.37c-1.21,28.66-2.42,57.31-3.62,85.97
						c-0.16,3.81,14.89,4.18,15.07,0c2.16-51.12,4.31-102.25,6.47-153.37c2.15-51.12,4.31-102.25,6.47-153.37
						c1.21-28.66,2.42-57.31,3.62-85.97C883.18,321.06,868.12,320.7,867.94,324.87L867.94,324.87z"/>
				</g>
			</g>
			<g>
				<g>
					<path d="M1067.33,324.94c-3.39,50.87-6.77,101.73-10.15,152.59c-3.38,50.87-6.77,101.73-10.15,152.59
						c-1.9,28.61-3.81,57.22-5.71,85.83c-0.25,3.72,14.79,4.25,15.07,0c3.39-50.87,6.77-101.73,10.15-152.59
						c3.39-50.87,6.77-101.73,10.15-152.59c1.9-28.61,3.81-57.22,5.71-85.83C1082.65,321.23,1067.61,320.7,1067.33,324.94
						L1067.33,324.94z"/>
				</g>
			</g>
			<g>
				<g>
					<path d="M876.27,523.57c46.8-2.33,93.77-2.15,140.51,0.74c13.27,0.82,26.53,1.86,39.77,3.09c1.9,0.18,3.93,0.14,5.81-0.28
						c0.8-0.18,2.98-0.7,3.46-1.67c1.29-2.58-4.02-3.32-5.26-3.44c-47.84-4.46-95.91-6.3-143.93-5.42
						c-13.46,0.24-26.91,0.71-40.36,1.38c-1.67,0.09-7.4,0.05-7.53,2.79C868.61,523.33,875.08,523.63,876.27,523.57L876.27,523.57z"
						/>
				</g>
			</g>
			<g>
				<g>
					<path d="M1164,519.56c-2.98,52.9-5.97,105.8-8.95,158.69c-0.83,14.81-1.67,29.62-2.51,44.43c-0.21,3.76,14.83,4.22,15.07,0
						c2.98-52.9,5.97-105.8,8.95-158.69c0.83-14.81,1.67-29.62,2.51-44.43C1179.28,515.8,1164.24,515.34,1164,519.56L1164,519.56z"
						/>
				</g>
			</g>
			<g>
				<g>
					<path d="M1183.14,416.29c-6.86-7.5-20.09-7.41-28.52-3.22c-7.42,3.69-11.75,11.68-13.82,19.79c-1.92,7.53-1.68,15.7,1.45,22.83
						c3.43,7.81,10.71,12.34,18.51,13.8c17.54,3.3,35.92-4.43,44.46-21.37c7.07-14.04,7.11-31.65-1.51-44.96
						c-11.14-17.21-32.28-23.12-50.95-19.86c-1.76,0.31-5.27,1.88-2.7,3.82c2.63,1.99,7.36,1.52,10.31,1
						c-0.95,0.16,0.75-0.09,1.02-0.12c1.43-0.19-0.61-0.06,0.83-0.06c0.35,0,0.71,0,1.06,0c1.23-0.01-1.1-0.1,0.12-0.01
						c0.82,0.06,1.65,0.14,2.47,0.26c-0.97-0.14,0.72,0.16,0.99,0.22c0.69,0.15,1.39,0.31,2.07,0.51c0.67,0.2,2.73,0.97,3.86,1.47
						c5.29,2.33,10.07,6.12,13.79,10.71c8.08,9.92,10.47,23.29,7.57,35.91c-2.72,11.79-10.85,23.61-22.06,27.04
						c-0.34,0.11-1.19,0.3-1.72,0.42c-0.78,0.18-0.16,0.06,0.01,0.03c-0.36,0.06-0.72,0.08-1.07,0.13
						c-0.88,0.11,0.06,0.03,0.21,0.02c-0.36,0.02-0.71,0.01-1.07,0.01c-0.9,0,0.1,0.03,0.23,0.02c-0.24-0.02-0.47-0.05-0.7-0.07
						c0.52,0.1,0.54,0.1,0.06,0.01c-1.9-0.37-4.36-1.55-6.25-3.23c-4.6-4.11-6.7-10.43-7.07-16.63c-0.43-7.21,1.22-14.66,4.81-20.81
						c1.8-3.09,4.25-6.25,7.49-7.73c0.57-0.26,0.67-0.11,0.94-0.28c0.53-0.34,0.27,0.03-0.06,0.03c-0.28,0-1.15-0.06-1.44,0.03
						c-0.55,0.19-0.34-0.18,0.26,0.23c0.71,0.5,1.31,0.9,1.91,1.56c2.13,2.33,6.46,2.25,9.27,1.95
						C1178.71,419.63,1185.07,418.4,1183.14,416.29L1183.14,416.29z"/>
				</g>
			</g>
		</g>
	</g>
</g>
</svg>
