<?xml version="1.0" encoding="utf-8"?>
<!-- Generator: Adobe Adobe Illustrator 24.2.0, SVG Export Plug-In . SVG Version: 6.00 Build 0)  -->
<svg version="1.1" xmlns="http://www.w3.org/2000/svg" xmlns:xlink="http://www.w3.org/1999/xlink" x="0px" y="0px"
	 viewBox="0 0 1700.79 1700.79" style="enable-background:new 0 0 1700.79 1700.79;" xml:space="preserve">
<style type="text/css">
	.st0{fill:#6DB571;}
	.st1{fill:#99C154;stroke:#000000;stroke-width:1.1206;stroke-miterlimit:10;}
	.st2{fill:#99C154;}
	.st3{fill:#C8354F;}
	.st4{fill:#C93550;}
	.st5{opacity:0.149;}
	.st6{fill:#FFFFFF;}
	.st7{opacity:0.0314;}
</style>
<g id="Ebene_7">
</g>
<g id="Ebene_3">
</g>
<g id="Ebene_4">
</g>
<g id="Ebene_5">
	<g>
		<g>
			<path class="st0" d="M544.25,1433.43c149.3-32.88,303.24-44.58,455.8-34.66c-135.7-286.35-223.21-592.68-310.11-897.41
				c-51.1,151.4-62.04,300-95.29,456.29s-56.12,295.04-84.6,477.94"/>
			<g>
				<path class="st0" d="M546.24,1440.66c115.94-25.46,234.54-38.16,353.25-37.8c33.54,0.1,67.08,1.26,100.55,3.41
					c6.14,0.4,8.72-6.55,6.48-11.29c-52.79-111.49-98.38-226.24-139.37-342.55C826.09,935.9,789.59,817.82,754.76,699.3
					c-19.55-66.54-38.58-133.23-57.6-199.92c-2.1-7.37-12.15-6.88-14.46,0c-20.62,61.29-35.33,124.3-47.33,187.79
					c-11.96,63.26-21.47,126.95-32.79,190.33c-10.69,59.84-24.05,119.15-35.66,178.82c-10.9,56.02-20.96,112.2-30.49,168.47
					c-10.35,61.11-20.09,122.31-29.67,183.54c-1.32,8.43-2.63,16.86-3.95,25.28c-0.63,4.03,1.03,8.02,5.24,9.23
					c3.55,1.02,8.6-1.24,9.23-5.24c9.7-62.3,19.52-124.58,29.91-186.76c9.49-56.83,19.47-113.58,30.28-170.18
					c11.21-58.7,24.34-117.01,35.3-175.75c11.79-63.15,21.29-126.7,32.67-189.92c11.39-63.29,24.85-126.29,43.98-187.74
					c2.49-7.99,5.08-15.95,7.74-23.88c-4.82,0-9.64,0-14.46,0c34.07,119.45,68.16,238.92,105.25,357.48
					c36.84,117.79,76.66,234.71,122.26,349.42c25.81,64.93,53.46,129.14,83.37,192.3c2.16-3.76,4.32-7.52,6.48-11.29
					c-119.8-7.72-240.3-2.16-358.91,16.35c-33.14,5.17-66.12,11.38-98.88,18.58C532.83,1428.27,536.82,1442.73,546.24,1440.66
					L546.24,1440.66z"/>
			</g>
		</g>
		<g>
			<g>
				<path d="M680.09,487.22c8.17,88.01,15.78,176.08,22.02,264.25c4.73,66.85,8.6,133.77,11.38,200.73
					c2.53,60.86,4.16,121.74,5.5,182.64c1.55,70.3,2.81,140.6,4.4,210.9c2.15,95.31,4.82,190.61,8.05,285.89
					c0.48,14.27,0.98,28.54,1.48,42.81c0.34,9.6,15.3,9.64,14.95,0c-3.52-99.41-6.48-198.84-8.83-298.29
					c-1.72-72.74-3.07-145.49-4.6-218.24c-1.29-61.22-2.78-122.44-5.12-183.63c-2.49-65.2-5.99-130.36-10.38-195.46
					c-5.7-84.72-12.77-169.34-20.44-253.89c-1.14-12.57-2.3-25.14-3.46-37.7C694.16,477.72,679.2,477.63,680.09,487.22
					L680.09,487.22z"/>
			</g>
		</g>
		<g>
			<g>
				<path d="M500.07,1443.1c83.91-5.7,167.8-11.71,251.61-18.69c50.34-4.19,100.65-8.79,151.01-12.82
					c34.94-2.79,69.91-5.33,104.89-7.7c4.29-0.29,9.24-4.65,7.23-9.49c-32.08-77.44-63.41-155.21-93.33-233.51
					c-23.26-60.86-45.65-122.05-66.88-183.65c-17.86-51.82-34.87-103.93-51.3-156.22c-15.82-50.32-31.15-100.79-46.61-151.22
					c-17.27-56.32-34.75-112.58-52.8-168.65c-2.52-7.81-5.04-15.62-7.58-23.42c-2.13-6.56-12.92-7.69-14.46,0
					c-24.93,123.95-49.36,248.01-73.69,372.08c-24.33,124.06-48.55,248.13-73.04,372.16c-13.72,69.48-27.53,138.95-41.5,208.39
					c-1.9,9.43,12.56,13.46,14.46,3.99c24.93-123.95,49.36-248.01,73.69-372.08c24.33-124.06,48.55-248.13,73.04-372.16
					c13.72-69.48,27.53-138.95,41.5-208.39c-4.82,0-9.64,0-14.46,0c18.62,57.31,36.63,114.81,54.34,172.41
					c15.6,50.72,30.99,101.51,46.79,152.17c16.11,51.65,32.7,103.14,50.12,154.36c20.42,60.03,41.93,119.68,64.34,178.99
					c28.63,75.81,58.64,151.1,89.43,226.05c4.48,10.9,8.97,21.79,13.49,32.68c2.41-3.16,4.82-6.33,7.23-9.49
					c-56.73,3.86-113.41,8.26-170.06,13.16c-58,5.01-116,9.96-174.04,14.38c-54.45,4.14-108.92,7.98-163.4,11.68
					C490.49,1428.75,490.42,1443.76,500.07,1443.1L500.07,1443.1z"/>
			</g>
		</g>
		<ellipse class="st1" cx="423.38" cy="895.93" rx="350" ry="360"/>
		<g>
			<g>
				<path class="st2" d="M349.58,1633.39c7.72,15.91,15.45,31.82,23.17,47.73c3.45,7.1,12.62,10.53,19.93,9.55
					c7.79-1.05,14.48-6.62,16.63-14.33c4.6-16.55,9.21-33.1,13.81-49.65c-12.86,0-25.71,0-38.57,0
					c3.76,18.89,11.94,37.22,23.71,52.48c5.07,6.58,11.14,10.73,19.93,9.55c8.25-1.11,13.85-6.67,16.63-14.33
					c5.57-15.37,11.15-30.74,16.72-46.11c-12.18,1.59-24.37,3.19-36.55,4.78c3.66,4.99,6.37,10.26,9.34,15.65
					c1.48,2.68-1.49-4.22,0.36,0.82c0.5,1.36,1,2.72,1.45,4.1c1,3.04,1.8,6.11,2.49,9.23c2.27,10.23,14.69,17.18,24.6,13.97
					c10.74-3.48,16.4-13.65,13.97-24.6c-3.11-14.06-9.15-27.73-17.68-39.35c-4.88-6.66-11.32-10.7-19.93-9.55
					c-8.25,1.11-13.85,6.67-16.63,14.33c-5.57,15.37-11.15,30.74-16.72,46.11c12.18-1.59,24.37-3.19,36.56-4.78
					c-5.28-6.85-9.44-14.1-13.33-21.79c-0.93-2.1-0.94-2.07-0.03,0.09c-0.43-1.05-0.85-2.11-1.25-3.18c-0.6-1.6-1.16-3.21-1.68-4.83
					c-1.4-4.34-2.5-8.75-3.39-13.22c-1.64-8.22-11.02-15.05-19.29-14.68c-8.84,0.4-16.85,5.93-19.29,14.68
					c-4.6,16.55-9.21,33.1-13.81,49.65c12.18-1.59,24.37-3.19,36.55-4.78c-7.72-15.91-15.45-31.82-23.17-47.73
					c-4.58-9.44-18.77-12.72-27.36-7.18C347.08,1612.27,344.68,1623.3,349.58,1633.39L349.58,1633.39z"/>
			</g>
		</g>
		<g>
			<g>
				<path class="st2" d="M480.02,1631.29c1.35,11.12,2.7,22.24,4.04,33.36c0.88,7.25,3.26,13.38,9.91,17.27
					c5.58,3.26,14.72,4.21,20.19,0c5.69-4.38,10.68-9.02,13.9-15.59c2.54-5.18,4.38-10.61,6.16-16.07c0.16-0.49,1.28-3.05,1.13-3.34
					c0.31,0.56-1.86,3.6-0.32,0.84c0.08-0.15,2.16-3.83,2.24-3.76c0.08,0.07-2.57,3.18-0.4,0.72c2.82-3.19-2.23,1.29-0.32,0.16
					c1.32-0.75,0.72-0.53-1.8,0.68c-0.92,0.09-1.84,0.17-2.77,0.26c3.71-0.15-3.07-0.72-1.2-0.2c2.03,0.57-4.79-2.38-1.89-0.67
					c-0.18-0.11-3.99-3.18-2.04-1.43c1.95,1.76-1.41-2.73-1.24-1.53c0.05,0.34,0.79,1.83,1.12,2.08c-0.74-0.57-1.73-4.9-0.71-1.53
					c0.99,3.29,1.91,6.58,2.82,9.9c2.52,9.18,6.28,19.08,13.85,25.32c11.63,9.59,28.62,6.44,33.43-8.83
					c2.72-8.64,5.45-17.29,8.17-25.93c-13.1-1.77-26.19-3.54-39.29-5.32c1.89,15.18,7.48,29.08,19.16,39.47
					c7.81,6.95,20.69,8.28,28.28,0c6.98-7.6,8.35-20.86,0-28.28c-1.25-1.11-3.7-2.79-4.34-4.37c1.52,2.04,1.64,2.16,0.36,0.34
					c-0.56-0.86-1.1-1.74-1.59-2.64c-0.5-0.9-0.96-1.82-1.38-2.76c1.01,2.41,1.13,2.57,0.36,0.46c-0.24-1.1-1.55-7.77-0.86-2.22
					c-1.24-10-6.67-18.21-17.34-19.64c-9.99-1.34-18.92,4.74-21.94,14.33c-2.72,8.64-5.45,17.29-8.17,25.93
					c11.14-2.94,22.29-5.88,33.43-8.83c-0.42-0.35-1.74-1.9-2.2-2.07c1.02,0.36,2.58,4.25,1.05,1.17c-0.38-0.76-1.84-4.24-0.64-0.87
					c1.19,3.34,0.1,0.14-0.17-0.61c-1.33-3.82-2.2-7.78-3.31-11.66c-3.56-12.39-10.19-23.49-22.96-27.91
					c-16.4-5.68-32.16,3.73-40.8,17.49c-3.32,5.29-5.22,11.41-7.15,17.3c-0.37,1.13-0.8,2.25-1.14,3.38
					c-1.24,4.19,1.75-3.09-0.11,0.42c-0.18,0.33-2.08,3.27-2.04,3.56c0.49-0.64,0.98-1.28,1.47-1.92c-1.54,1.49-1.2,1.35,1.01-0.4
					c10.03,5.76,20.06,11.51,30.09,17.27c-1.35-11.12-2.7-22.24-4.04-33.36c-1.25-10.35-8.3-20.52-20-20
					C490.27,1611.72,478.68,1620.16,480.02,1631.29L480.02,1631.29z"/>
			</g>
		</g>
		<g>
			<g>
				<path class="st2" d="M590.61,1626.41c4.64,15.43,9.27,30.86,13.91,46.29c2.88,9.58,12.04,15.66,21.94,14.33
					c8.92-1.2,18.46-9.75,17.34-19.64c-0.29-2.59-0.49-5.17-0.51-7.78c0-0.67-0.26-7.51,0.4-7.78c-0.25,0.11-0.71,4.01-0.06,0.68
					c0.25-1.28,0.49-2.55,0.79-3.82c0.59-2.54,1.32-5.03,2.19-7.49c0.48-1.36,0.56-4.14-0.01-0.3c0.13-0.89,0.92-2.02,1.32-2.83
					c1.15-2.33,2.43-4.6,3.83-6.79c0.7-1.1,1.49-2.13,2.19-3.22c1.52-2.36-3.04,3.41,0.24-0.25c1.74-1.94,3.5-3.83,5.39-5.63
					c-11.14-2.94-22.29-5.88-33.43-8.83c3.87,18.28,7.75,36.57,11.62,54.85c1.74,8.21,10.95,15.06,19.29,14.68
					c8.96-0.4,16.67-5.95,19.29-14.68c5.18-17.3,10.36-34.6,15.53-51.89c3-10.02-3.6-22.24-13.97-24.6
					c-10.77-2.45-21.39,3.24-24.6,13.97c-5.18,17.3-10.36,34.6-15.53,51.89c12.86,0,25.71,0,38.57,0
					c-3.87-18.28-7.75-36.57-11.62-54.85c-3.23-15.26-23.11-18.63-33.43-8.83c-19.49,18.51-30.52,46.64-27.49,73.5
					c13.1-1.77,26.19-3.54,39.29-5.32c-4.64-15.43-9.27-30.86-13.91-46.29c-3.01-10.01-14.16-17.35-24.6-13.97
					C594.46,1605.08,587.39,1615.68,590.61,1626.41L590.61,1626.41z"/>
			</g>
		</g>
		<g>
			<g>
				<path class="st2" d="M689.7,1652.7c3.59,8.67,7.17,17.34,10.76,26c3.85,9.32,11.26,15.76,21.94,14.33
					c9.54-1.28,17.6-9.64,17.34-19.64c-0.04-1.64-0.06-3.28,0.02-4.92c0.03-0.6,0.6-5.14,0.13-2.23c-0.47,2.93,0.38-1.62,0.51-2.18
					c0.37-1.6,0.81-3.18,1.31-4.74c0.17-0.51,1.8-4.77,0.73-2.21c-1.08,2.55,0.82-1.59,1.08-2.07c1.54-2.91,3.36-5.63,5.35-8.24
					c-11.51,0-23.03,0-34.54,0c1.41,2.53,2.71,5.1,3.92,7.73c-1.19-2.59-0.31-0.75,0.28,0.84c0.5,1.36,0.98,2.72,1.41,4.1
					c0.79,2.48,1.46,5,2.03,7.53c0.32,1.41,0.55,2.84,0.86,4.25c0.92,4.32-0.29-3.24,0.22,1.56c0.87,8.17,4.33,14.92,12.29,18.28
					c6.85,2.89,16.73,1.94,21.85-4.14c10.61-12.59,21.23-25.19,31.84-37.78c-11.14-2.94-22.29-5.88-33.43-8.83
					c2.45,10.19,4.9,20.39,7.35,30.58c3.35,13.93,23.66,20.26,33.43,8.83c10.2-11.94,20.39-23.87,30.59-35.81
					c6.79-7.95,8.39-20.59,0-28.28c-7.47-6.86-21.03-8.49-28.28,0c-10.2,11.94-20.39,23.87-30.59,35.81
					c11.14,2.94,22.29,5.88,33.43,8.83c-2.45-10.19-4.9-20.39-7.35-30.58c-3.33-13.86-23.72-20.35-33.43-8.83
					c-10.61,12.59-21.23,25.19-31.84,37.78c11.38,4.71,22.76,9.43,34.14,14.14c-1.75-16.44-6.1-31.69-14.18-46.21
					c-3.41-6.12-10.34-9.91-17.27-9.91c-7.72,0-12.85,4.1-17.27,9.91c-10.03,13.18-15.01,30.31-14.59,46.79
					c13.1-1.77,26.19-3.54,39.29-5.32c-3.59-8.67-7.17-17.34-10.76-26c-2.08-5.03-4.3-9.09-9.19-11.95
					c-4.29-2.51-10.61-3.57-15.41-2.02C694.4,1631.1,685.42,1642.35,689.7,1652.7L689.7,1652.7z"/>
			</g>
		</g>
		<g>
			<g>
				<path d="M678.44,805.73c-19.1-41.51-42.84-81.02-72.66-115.75c-24.55-28.58-53.48-53.71-86.18-72.57
					c-28.88-16.65-60.71-28.37-93.62-33.77c-31.91-5.23-64.31-4.84-96.14,0.76c-31.52,5.54-62.05,16.35-90.43,31.08
					c-28.78,14.94-55.4,34.17-78.93,56.45c-24.01,22.74-44.92,48.93-61.79,77.37c-17.28,29.13-30.43,60.87-38.58,93.76
					c-8.53,34.42-11.71,70.23-9.3,105.61c2.64,38.7,11.63,76.81,26.02,112.81c15.4,38.53,36.11,76.41,62.46,108.59
					c18.53,22.63,41.81,41.31,67.36,55.45c26.46,14.65,55.44,24.71,85.05,30.68c30.91,6.22,62.63,8.31,94.1,6.69
					c32.29-1.67,64.46-7.06,95.52-16.03c30.96-8.94,61.04-21.45,88.97-37.56c27.3-15.74,52.77-35.09,74.56-57.89
					c21.53-22.52,39.63-48.51,52.31-77.02c13.49-30.32,21.01-62.83,22.44-95.99c1.62-37.7-4.6-75.6-15.89-111.51
					c-6.47-20.58-14.63-40.61-23.9-60.08c-4.15-8.71-17.08-1.11-12.95,7.57c17.17,36.06,30.25,74.59,35.5,114.3
					c4.37,33.05,3.19,66.51-4.71,98.51c-7.3,29.59-19.73,56.59-37.23,81.75c-16.5,23.74-38.63,46.12-61.66,63.56
					c-24.25,18.36-51.86,33.89-79.4,45.24c-29.09,11.99-59.6,20.54-90.66,25.6c-29.38,4.79-60.87,6.3-91.33,4.06
					c-28.9-2.13-57.96-7.85-85.93-17.96c-25.42-9.18-51.75-23.5-72.46-40.72c-26.54-22.07-45.04-49.09-62.17-78.94
					c-19.87-34.62-35.04-71.87-43.7-110.89c-7.65-34.45-9.93-69.99-6.59-105.14c3.1-32.51,11.53-65.45,24.25-95.67
					c12.24-29.09,29.19-57.32,48.95-81.68c19.76-24.36,43-46.37,68.28-64.22c25.38-17.93,52.98-32.31,81.97-42.1
					c29.22-9.87,58.5-15.08,89.02-15.25c31.31-0.17,61.45,5.04,91.15,15.85c31.12,11.33,60.52,29.09,85.94,50.76
					c30.63,26.1,56.18,57.6,77.35,91.73c11.98,19.32,22.57,39.46,32.07,60.1C669.52,822.06,682.45,814.44,678.44,805.73
					L678.44,805.73z"/>
			</g>
		</g>
		<g>
			<g>
				<path d="M709.51,661.62c-41.79-53.65-106.19-87.47-171.5-102.99c-32.84-7.81-67.06-11.38-100.77-8.89
					c-36.48,2.7-72.03,12.03-105.46,26.78c-65.24,28.78-120.42,78.7-155.88,140.51c-34.56,60.24-51.28,131.02-46.59,200.36
					c4.58,67.8,30.13,131.9,73.14,184.46c41.71,50.96,98.64,89.83,161.71,109.05c63.71,19.41,132.48,16.69,194.94-6.11
					c62.1-22.67,117.42-63.81,154.85-118.54c36.41-53.22,54.32-118.7,59.25-182.46c5.17-66.9-4.86-136.2-34.62-196.74
					c-7.13-14.5-15.46-28.37-24.93-41.47c-2.39-3.31-6.5-4.83-10.26-2.69c-3.26,1.86-5.06,6.99-2.69,10.26
					c37.89,52.43,55.87,116.68,58.44,180.84c2.48,62.08-8.29,126.1-34.42,182.69c-26.6,57.6-71.97,104.21-127.52,134.54
					c-55.39,30.24-120.31,43.88-183.07,35.38c-62.36-8.44-121.25-37.72-167.57-80.01c-47.29-43.17-81.44-99.61-95.46-162.24
					c-14.52-64.86-7.74-133.69,16.42-195.41c24.65-62.99,68.59-117.5,125.37-154.34c57.98-37.62,126.55-55.76,195.5-49.18
					c64.04,6.12,129.29,30.57,178.24,72.92c11.82,10.23,22.66,21.54,32.27,33.88c2.51,3.22,7.97,2.58,10.61,0
					C712.7,669.11,711.98,664.8,709.51,661.62L709.51,661.62z"/>
			</g>
		</g>
		<g>
			<g>
				<path d="M423.41,895.4c1.64,93.41-0.65,186.81-4.24,280.15c-3.74,97.09-8.48,194.13-11.21,291.26
					c-1.76,62.53-2.73,125.08-2.74,187.63c0,9.65,15,9.67,15,0c0.02-106.82,3.08-213.59,7.4-320.32
					c3.78-93.32,8.33-186.61,10.33-279.99c1.13-52.9,1.4-105.82,0.47-158.73C438.24,885.76,423.24,885.73,423.41,895.4L423.41,895.4
					z"/>
			</g>
		</g>
		<g>
			<g>
				<path d="M438.14,1188.41c24.82-74.59,56.32-146.51,86.3-219.11c9.86-23.87,19.51-47.83,28.88-71.91
					c1.48-3.8-1.63-8.19-5.24-9.23c-4.23-1.21-7.76,1.48-9.23,5.24c-29.61,76.07-63.36,150.48-92.32,226.8
					c-8.06,21.25-15.68,42.65-22.86,64.22C420.62,1193.6,435.11,1197.54,438.14,1188.41L438.14,1188.41z"/>
			</g>
		</g>
	</g>
</g>
<g id="Ebene_6">
	<g>
		<g id="Ebene_2_Kopie">
			<g>
				<path class="st3" d="M1088.79,782.03c45.75,8.39,184.97,34.48,201.67,17.93c27.14-26.88,111.28-349.69,91.44-373.93
					c-41.57-50.79-609.3-173.01-667.93-129.22c-52.87,39.48-36.28,355.51-21.49,376.64c22.36,31.95,118.57,31.86,160.04,54.18
					c18.49,9.95,90.75,120.6,112.64,122.74c12.43,1.22,92.02-38.77,122.16-68.47"/>
				<g>
					<path class="st4" d="M1088.31,785.21c44.91,8.24,89.97,16.49,135.42,21.06c10.93,1.1,21.91,1.96,32.89,2.2
						c8.14,0.18,16.5,0.23,24.49-1.3c4.91-0.94,9.7-2.42,12.95-6.23c2.48-2.91,4.35-6.35,6.09-9.7
						c5.75-11.02,10.12-22.75,14.34-34.4c6.05-16.68,11.48-33.58,16.65-50.54c12.47-40.9,23.48-82.24,33.31-123.82
						c8.65-36.6,16.84-73.55,21.56-110.88c1.46-11.56,2.85-23.43,2.04-35.12c-0.23-3.33-0.63-6.91-2.06-10
						c-1.25-2.71-3.59-4.83-5.91-6.73c-6.69-5.47-14.79-9.46-22.64-13.13c-11.62-5.43-23.64-10.04-35.73-14.37
						c-33.76-12.1-68.36-22.01-103.03-31.27c-42.47-11.35-85.28-21.47-128.27-30.74c-44.62-9.62-89.46-18.31-134.49-25.84
						c-40.22-6.72-80.65-12.61-121.26-16.48c-29.45-2.81-59.62-5.23-89.12-2.71c-8.99,0.77-18.39,1.95-26.74,5.32
						c-8.74,3.52-14.39,10.49-18.71,18.36c-6.93,12.59-10.64,26.89-13.63,40.79c-4,18.53-6.36,37.4-8.09,56.27
						c-3.99,43.61-4.53,87.59-3.44,131.39c0.89,35.79,2.56,71.83,7.45,107.4c1.24,9.04,2.26,18.84,5.73,27.44
						c2.24,5.53,7.39,9.97,12.31,13.34c9.11,6.25,19.75,10.19,30.33,13.4c26.26,7.96,53.57,11.86,80.26,18.12
						c11.83,2.77,23.72,5.92,34.8,10.9c3.77,1.7,5.2,2.26,8.01,4.61c2.22,1.85,4.08,3.77,6.01,5.83
						c13.59,14.5,25.43,30.56,37.66,46.11c13.47,17.13,26.85,34.5,41.93,50.38c5.13,5.4,10.51,11.02,16.87,15.14
						c4.84,3.13,9.04,4.2,14.67,2.82c8.4-2.05,16.41-5.69,24.19-9.25c11.62-5.32,22.95-11.2,34.06-17.42
						c21.44-11.98,43.28-25.15,60.72-42.23c3.01-2.95-2.29-7-5.27-4.08c-8.42,8.25-18.17,15.28-28.02,21.88
						c-11.15,7.48-22.72,14.4-34.53,20.9c-10.66,5.87-21.55,11.41-32.71,16.37c-6.86,3.05-15,6.91-22.06,7.99
						c-0.45,0.07-0.89,0.11-1.34,0.16c-1.2,0.13,0.21,0.08-0.61-0.01c-0.39-0.04-0.78-0.14-1.16-0.23c0.88,0.22-0.83-0.34-1.14-0.48
						c-2.29-1.01-4.16-2.4-6.4-4.18c-6.34-5.05-11.87-11.01-17.24-16.98c-14.84-16.52-28.36-34.12-42.04-51.52
						c-11.34-14.42-22.37-29.52-35.49-42.55c-5.07-5.04-10.54-8.07-17.29-10.79c-11.32-4.57-23.29-7.61-35.2-10.34
						c-26.29-6.02-53.32-9.76-79.04-17.99c-9.97-3.19-20.25-7.07-28.48-13.54c-1.58-1.24-3.08-2.56-4.41-4.04
						c-0.73-0.81-1.38-1.67-2.04-2.52c-0.15-0.2-0.92-1.52-0.25-0.29c-0.58-1.06-1.01-2.17-1.4-3.3c-1.12-3.25-1.87-6.92-2.67-11.17
						c-1.07-5.71-1.89-11.45-2.63-17.21c-2.05-15.97-3.38-32.01-4.44-48.05c-2.77-41.88-3.62-83.9-2.44-125.79
						c1.11-39.45,3.35-79.55,12.05-118.13c2.96-13.09,6.64-26.53,13.54-38.25c2.08-3.52,5.44-7.89,8.53-10.23
						c0.54-0.41,1.1-0.8,1.68-1.16c0.26-0.16,0.53-0.32,0.8-0.47c0.93-0.55-0.38,0.15,0.62-0.33c1.49-0.71,3.01-1.34,4.57-1.88
						c4.25-1.46,6.78-1.97,11.29-2.71c5.16-0.86,10.39-1.37,15.61-1.72c12.99-0.86,26.06-0.71,39.08-0.17
						c35.99,1.48,71.91,5.72,107.59,10.7c43.22,6.03,86.24,13.48,129.08,21.79c44.05,8.54,87.93,18.02,131.55,28.51
						c38.76,9.31,77.37,19.36,115.49,30.95c27.5,8.35,55.27,17.14,81.3,29.26c4.41,2.05,8.75,4.23,12.96,6.65
						c0.79,0.46,0.76,0.43,1.98,1.19c0.83,0.51,1.67,1.05,2.47,1.59c1.39,0.94,2.75,1.91,4.04,2.96c0.55,0.45,1.07,0.91,1.6,1.38
						c0.26,0.23,0.52,0.49,0.77,0.74c-0.81-0.8,0.04,0.05,0.22,0.25c0.35,0.41,0.69,0.81,1.02,1.24c0.58,0.74-0.26-0.59,0.06,0.09
						c0.13,0.27,0.27,0.53,0.37,0.82c0.13,0.34,0.7,2.2,0.42,1.13c0.2,0.77,0.37,1.56,0.5,2.34c0.33,1.93,0.49,3.88,0.59,5.83
						c0.54,10.87-0.9,22.99-2.41,34.4c-2.24,17-5.28,33.88-8.61,50.69c-8.11,40.97-17.99,81.62-28.86,121.96
						c-9.84,36.52-20.34,72.99-33.25,108.6c-4.19,11.55-8.52,23.18-14.2,34.14c-1.92,3.7-2.82,5.6-5.33,8.54
						c-1.07,1.26-1.68,1.72-3.06,2.29c-2.63,1.1-4.72,1.54-7.5,1.96c-8.25,1.26-16.76,1.18-25.1,0.87
						c-11.05-0.41-22.08-1.38-33.08-2.56c-25.02-2.68-49.92-6.48-74.73-10.63c-18.73-3.13-37.4-6.53-56.07-9.96
						C1085,778.06,1084.05,784.43,1088.31,785.21L1088.31,785.21z"/>
				</g>
			</g>
		</g>
		<g id="Ebene_7_1_">
			<g class="st5">
				<g>
					<path class="st6" d="M1204.36,416.37c13.81,4.38,28,7.55,42.06,11.05c3.88,0.97,7.76,1.95,11.63,2.97
						c1.88,0.5,3.77,0.99,5.65,1.51c0.94,0.26,1.88,0.52,2.82,0.77c3.1,0.85-2.61-0.77,0.53,0.15c7.32,2.13,14.61,4.4,21.74,7.11
						c3.31,1.26,6.59,2.61,9.8,4.09c1.44,0.67,2.88,1.37,4.29,2.11c0.68,0.36,1.35,0.72,2.02,1.08c2.76,1.49-1.92-1.27-0.25-0.17
						c2.34,1.55,4.66,3.05,6.77,4.89c0.44,0.39,0.87,0.9,1.35,1.25c-0.68-0.49-2.33-2.54-1-0.94c0.77,0.93,1.44,2.17,2.29,3.02
						c-0.47-0.47-1.64-3.19-0.81-1.32c0.2,0.47,0.41,0.94,0.63,1.4c1.25,2.68-0.25-2.67-0.18-0.81c0.04,0.94,0.17,4.39,0.2,1.19
						c0.03-3.16,0-0.61-0.04,0.16c-0.04,0.72-0.09,1.44-0.15,2.15c-0.14,1.64-0.34,3.28-0.57,4.91
						c-3.04,22.39-8.88,44.49-14.32,66.39c-7.7,31.02-15.95,61.91-24.26,92.78c-7.85,29.2-15.84,58.36-23.54,87.6
						c-0.8,3.03-1.59,6.06-2.38,9.09c-1.7,6.53,4.67,13.99,11.4,14.71c7.86,0.83,13.39-3.72,15.21-10.72
						c7.51-28.83,15.37-57.58,23.13-86.34c8.55-31.7,17.07-63.42,25.08-95.27c5.92-23.51,12.13-47.17,15.84-71.13
						c0.95-6.14,2.3-13.27,0.86-19.42c-3.38-14.39-16.51-23.23-29.55-29.48c-14.64-7.01-30.64-11.38-46.32-15.56
						c-14.54-3.87-29.24-7.13-43.75-11.08c-0.72-0.19-1.44-0.4-2.15-0.6c-2.18-0.6,3.43,1.01,0.82,0.23
						c-1.37-0.41-2.73-0.81-4.08-1.24c-6.67-2.12-14.92-0.48-17.69,6.43C1195.03,405.26,1197.19,414.09,1204.36,416.37
						L1204.36,416.37z"/>
				</g>
			</g>
			<g class="st5">
				<g>
					<path class="st6" d="M1230.81,764.38c0.03,2.84,0.06,5.69,0.09,8.53c7.23-3.81,14.46-7.62,21.69-11.43
						c-3.07-2.55-6.14-5.11-9.21-7.66c-0.1,6.79-0.2,13.58-0.3,20.37c-1.71,1-3.29,1.66-5.36,1.63c-0.82,0.1-1.61-0.01-2.36-0.36
						c-1.33-0.44-1.53-0.48-0.59-0.11c-1.4-0.75-2.44-1.55-3.47-2.74c0.57,0.76,0.5,0.59-0.22-0.48c-0.67-0.91-1.09-1.92-1.24-3.04
						c2.75-4.48,5.51-8.96,8.27-13.44c0.2-0.07,3.36-0.47,1.64-0.4c1.7-0.07,3.13,0.11,4.73,0.68c-1.63-0.58,1.2,0.78,1.39,0.9
						c-1.42-0.9,0.94,0.93,1.11,1.15c0.91,1.18,1.37,2.64,1.6,4.05c-0.39-2.31-0.89,4.63-0.83,4.42c0.52-1.56-0.66,1.06-0.85,1.3
						c-0.51,0.48-1.03,0.96-1.54,1.44c-2.03,0.95-2.56,1.23-1.61,0.84c1.5-0.47-3.08,0.58-1.53,0.36c0.71-0.05,0.42-0.06-0.86-0.02
						c-0.8,0.11-1.57,0.01-2.32-0.29c-3-0.79-5.35-2.94-6.13-5.84c-0.73-2.74-0.22,1.3-0.2-1.63c0.01-2.9-0.57,1.12,0.22-1.68
						c0.09-0.77,0.41-1.44,0.92-2.03c0.7-0.98,0.84-1.21,0.43-0.7c-0.74,0.88,2.74-2.03,0.87-1.01c6.83,1.9,13.67,3.8,20.5,5.71
						c-0.57-1.16-1.13-2.33-1.7-3.5c-2.97-6.13-10.69-10.2-17.51-7.29c-6.34,2.71-10.56,10.11-7.38,16.67
						c0.57,1.16,1.13,2.33,1.7,3.5c1.82,3.76,4.65,6.34,8.81,7.53c4.41,1.25,7.85,0.27,11.7-1.82c7.72-4.21,10.15-15.07,6.58-22.59
						c-4.24-8.93-15.5-13.22-24.8-9.06c-8.97,4-14.29,14.35-9.61,23.43c4.53,8.78,15.12,13.45,24.79,9.83
						c5.53-2.07,8.99-7.79,8.27-13.44c-0.78-6.11-5.02-11.78-10.98-14.27c-6.47-2.71-12.72-1.9-18.55,1.49
						c-7.67,4.46-6.36,15.32-0.3,20.37c3.07,2.55,6.14,5.11,9.21,7.66c4.09,3.4,10.41,3.61,14.92,1.22
						c5.05-2.68,6.83-7.29,6.77-12.64c-0.03-2.84-0.06-5.69-0.09-8.53c-0.03-3.01-2.63-6.7-4.97-8.51
						c-2.61-2.02-6.71-3.33-10.06-2.82c-3.37,0.52-6.76,1.96-8.82,4.65C1231.36,757.74,1230.78,760.72,1230.81,764.38
						L1230.81,764.38z"/>
				</g>
			</g>
		</g>
		<g id="Ebene_2_1_">
			<g>
				<g>
					<path d="M1062.65,810.01c44.96,8.26,90.08,16.54,135.59,21.15c10.95,1.11,21.93,1.98,32.93,2.24
						c8.74,0.21,17.72,0.4,26.32-1.23c6.66-1.26,12.88-3.33,17.31-8.46c2.82-3.27,4.96-7.18,6.95-10.97
						c5.79-11.01,10.16-22.74,14.39-34.38c6.08-16.72,11.52-33.66,16.71-50.66c12.61-41.32,23.77-83.06,33.68-125.08
						c8.62-36.56,16.81-73.48,21.42-110.78c1.47-11.9,2.81-24.16,1.87-36.18c-0.3-3.83-0.95-7.89-2.61-11.42
						c-1.77-3.75-4.89-6.74-8.16-9.35c-7.27-5.8-16.01-10.1-24.48-14.02c-11.73-5.42-23.86-10.04-36.05-14.39
						c-34.3-12.21-69.45-22.22-104.65-31.61c-42.45-11.32-85.22-21.42-128.18-30.68c-44.57-9.61-89.34-18.3-134.31-25.83
						c-40.09-6.71-80.37-12.6-120.83-16.51c-30.15-2.92-61.04-5.41-91.24-2.94c-9.61,0.79-19.66,2.1-28.59,5.61
						c-10.32,4.05-17.04,11.92-22.24,21.14c-7.29,12.94-11.12,27.83-14.25,42.17c-4.03,18.5-6.4,37.35-8.11,56.2
						c-4.02,43.99-4.48,88.36-3.33,132.55c0.93,35.91,2.65,72.07,7.67,107.74c1.33,9.45,2.51,19.69,6.19,28.65
						c2.72,6.61,8.67,12.04,14.61,16.05c9.82,6.63,21.02,10.92,32.39,14.32c26.93,8.05,54.83,12.13,82.16,18.6
						c3,0.71,6,1.45,8.98,2.24c0.79,0.21,1.59,0.42,2.38,0.64c0.42,0.12,3.09,0.87,0.52,0.14c1.53,0.44,3.04,0.89,4.56,1.35
						c5.6,1.74,11.14,3.7,16.46,6.13c1.01,0.46,2.02,0.95,3.01,1.45c0.56,0.29,1.14,0.68,1.73,0.9c1.2,0.45-2.46-1.71-1.47-0.86
						c0.83,0.7,1.81,1.27,2.65,1.97c0.99,0.82,1.91,1.7,2.84,2.56c2.09,1.96-1.42-1.51,0.2,0.19c0.71,0.74,1.43,1.48,2.13,2.24
						c13.53,14.46,25.39,30.39,37.62,45.84c13.53,17.1,26.97,34.46,42.15,50.28c5.51,5.75,11.24,11.78,18.07,16.14
						c3.22,2.06,6.57,3.93,10.43,4.6c3.86,0.67,7.35-0.09,11.04-1.03c8.5-2.16,16.61-5.79,24.51-9.39
						c12.04-5.49,23.78-11.59,35.29-18c21.85-12.16,43.78-25.55,61.58-42.88c3.79-3.69,2.34-10.51-1.62-13.58
						c-4.62-3.57-10.36-2.33-14.16,1.37c-0.51,0.5-3.62,3.32-1.49,1.44c-0.95,0.84-1.9,1.68-2.86,2.51
						c-2.25,1.91-4.54,3.77-6.88,5.58c-5.03,3.89-10.24,7.56-15.54,11.1c-11.15,7.44-22.72,14.31-34.53,20.76
						c-1.27,0.69-2.53,1.37-3.8,2.06c-0.24,0.13-2.76,1.46-0.78,0.42c-0.75,0.39-1.5,0.79-2.25,1.18c-2.92,1.52-5.86,3.01-8.81,4.48
						c-5.14,2.55-10.33,5.01-15.59,7.33c-4.27,1.88-8.58,3.68-12.98,5.27c-1.65,0.59-3.3,1.16-4.98,1.66
						c-0.7,0.21-1.68,0.3-2.32,0.65c2.34-1.26,1.81-0.37,0.21-0.1c-0.54,0.09-1.11,0.11-1.64,0.21c-1.84,0.35,1.81,0.21,1.41,0.05
						c-0.28-0.11-1.09-0.28-1.38-0.26c2.63-0.16,2.42,0.88,0.85,0.12c-0.54-0.26-1.08-0.54-1.63-0.79c-1.93-0.88,2.28,1.51,0.51,0.3
						c-1.28-0.87-2.55-1.73-3.77-2.69c-2.9-2.27-5.56-4.77-8.19-7.3c-0.48-0.46-1.98-1.73,0.25,0.27c-0.41-0.37-0.79-0.79-1.17-1.19
						c-0.74-0.75-1.47-1.51-2.19-2.28c-1.68-1.77-3.34-3.55-4.97-5.36c-14.85-16.42-28.38-33.91-42.07-51.22
						c-11.79-14.91-23.3-30.36-36.93-43.81c-5.27-5.2-11.21-8.55-18.19-11.41c-12.07-4.95-24.92-8.19-37.64-11.1
						c-13.35-3.05-26.8-5.61-40.2-8.39c-6.63-1.38-13.25-2.81-19.83-4.38c-3.03-0.73-6.05-1.49-9.06-2.29
						c-0.8-0.22-1.6-0.43-2.4-0.65c-2.59-0.71,1.43,0.45-0.16-0.04c-1.66-0.52-3.35-0.99-5.01-1.51c-5.48-1.73-10.9-3.68-16.12-6.05
						c-2.27-1.03-4.44-2.21-6.65-3.36c-2.04-1.05,1.89,1.26,0.02,0.01c-0.52-0.35-1.07-0.67-1.59-1.01
						c-1.02-0.67-2.02-1.37-2.98-2.11c-0.93-0.71-1.84-1.45-2.71-2.23c-0.28-0.25-0.55-0.52-0.84-0.77
						c-1.56-1.33,1.48,1.77,0.22,0.21c-0.92-1.14-1.89-2.77-2.98-3.72c2.1,1.85,1.32,2.55,0.84,1.38c-0.09-0.22-0.21-0.44-0.31-0.66
						c-0.28-0.62-0.51-1.26-0.74-1.9c-0.25-0.71-0.45-1.42-0.68-2.14c-0.68-2.17,0.42,1.68,0.24,0.88
						c-0.11-0.48-0.25-0.96-0.37-1.44c-0.54-2.19-1-4.41-1.42-6.62c-1.1-5.75-1.95-11.54-2.71-17.33
						c-2.07-15.88-3.43-31.84-4.52-47.79c-1.36-19.96-2.23-39.94-2.68-59.92c-0.25-11.01-0.38-22.03-0.38-33.05
						c0-2.61,0.01-5.22,0.03-7.83c0.01-0.68,0.04-4.52,0.01-1.69c0.02-1.66,0.04-3.33,0.05-4.99c0.07-5.46,0.18-10.92,0.33-16.38
						c1.06-39.34,3.26-79.36,11.98-117.83c0.88-3.89,1.85-7.76,2.93-11.6c0.24-0.84,1.23-3.6,0.07-0.3c0.31-0.89,0.55-1.81,0.83-2.7
						c0.55-1.73,1.12-3.46,1.73-5.17c2.05-5.75,4.5-11.33,7.59-16.63c0.17-0.3,0.4-0.58,0.55-0.89c0.06-0.13-1.55,2.34-0.79,1.26
						c0.38-0.55,0.74-1.12,1.13-1.66c0.73-1.04,1.51-2.05,2.34-3.03c0.71-0.84,1.49-1.6,2.24-2.41c1.34-1.42-2.27,1.84-0.37,0.35
						c0.43-0.34,0.85-0.7,1.3-1.03c0.52-0.38,1.07-0.73,1.62-1.08c0.32-0.2,0.67-0.36,0.98-0.56c0.3-0.2-2.9,1.39-1.02,0.56
						c1.52-0.67,3.03-1.32,4.62-1.86c0.84-0.28,1.68-0.54,2.53-0.78c0.49-0.13,0.98-0.26,1.47-0.4c2.41-0.66-1.41,0.31-0.74,0.17
						c2.14-0.45,4.27-0.9,6.43-1.25c5.19-0.83,10.44-1.33,15.7-1.67c6.14-0.39,12.29-0.53,18.45-0.54c1.61-0.01,3.22,0.01,4.83,0.02
						c0.75,0.01,1.5,0.02,2.25,0.03c0.45,0.01,0.91,0.01,1.36,0.02c2.58,0.04-2.17-0.06-0.41-0.01c3.65,0.1,7.31,0.21,10.96,0.36
						c35.99,1.55,71.89,5.82,107.55,10.82c42.93,6.03,85.65,13.43,128.2,21.68c44.12,8.55,88.07,18.04,131.77,28.53
						c20.35,4.88,40.64,9.99,60.86,15.39c9.64,2.57,19.28,5.15,28.86,7.93c-2.57-0.75-0.22-0.06,0.95,0.27
						c1.17,0.34,2.35,0.67,3.52,1.01c2.31,0.67,4.63,1.34,6.95,2.02c4.31,1.26,8.63,2.55,12.93,3.85
						c27.56,8.35,55.38,17.14,81.51,29.2c4.41,2.03,8.76,4.19,12.98,6.58c0.4,0.22,0.79,0.47,1.18,0.68
						c-3.56-1.91-1.48-0.88-0.65-0.37c0.85,0.52,1.69,1.05,2.52,1.6c1.42,0.93,2.81,1.92,4.13,2.97c0.56,0.45,1.11,0.9,1.64,1.38
						c0.25,0.22,0.48,0.46,0.74,0.68c1.32,1.15-2.06-2.3-0.88-0.88c0.35,0.42,0.73,0.87,1.11,1.27c1.37,1.44-1.17-2.9-0.37-0.6
						c0.19,0.55,0.38,1.17,0.62,1.7c-1.24-2.77-0.4-1.7-0.09,0.03c0.33,1.8,0.52,3.64,0.62,5.47c0.06,1.03,0.1,2.06,0.12,3.1
						c0.01,0.61,0.02,1.21,0.02,1.82c0.03,2.59,0.06-2.46,0.01-0.36c-0.07,2.71-0.17,5.42-0.35,8.12
						c-0.44,6.71-1.18,13.4-2.05,20.08c-2.18,16.79-5.18,33.48-8.45,50.09c-8.08,41.03-17.97,81.72-28.85,122.11
						c-2.73,10.11-5.53,20.21-8.41,30.28c-1.4,4.87-2.81,9.74-4.24,14.6c-0.16,0.55-0.82,2.76,0,0.01c-0.15,0.52-0.3,1.03-0.46,1.55
						c-0.34,1.13-0.67,2.26-1.01,3.39c-0.73,2.43-1.47,4.85-2.21,7.28c-5.08,16.6-10.41,33.13-16.34,49.46
						c-4.19,11.54-8.54,23.18-14.25,34.12c-0.93,1.78-2.04,3.47-2.98,5.25c1.89-3.59,0.59-0.92-0.1,0.04
						c-0.44,0.6-0.9,1.17-1.37,1.75c-0.18,0.23-0.42,0.42-0.6,0.66c-0.9,1.21,2.4-1.62,0.89-0.82c-0.39,0.21-0.92,0.55-1.25,0.83
						c-0.61,0.51-1.9-0.4,1.52-0.81c-0.33,0.04-0.73,0.36-1.06,0.48c-1.15,0.41-2.29,0.75-3.45,1.12c-1.55,0.48,2.72-0.51,1.08-0.27
						c-0.38,0.06-0.77,0.16-1.15,0.23c-0.81,0.15-1.63,0.29-2.45,0.41c-3.71,0.54-7.47,0.76-11.22,0.87
						c-2.1,0.06-4.19,0.08-6.29,0.06c-0.82-0.01-5.01,0.06-1.57-0.01c-1.26,0.03-2.55-0.07-3.82-0.12
						c-11.19-0.42-22.36-1.42-33.51-2.63c-24.91-2.7-49.72-6.5-74.43-10.64c-18.75-3.14-37.45-6.55-56.15-9.99
						c-5.36-0.99-10.65,3.01-11.41,8.04C1053.31,804.3,1057.27,809.02,1062.65,810.01L1062.65,810.01z"/>
				</g>
			</g>
		</g>
		<g id="Ebene_10">
			<g>
				<g>
					<path class="st6" d="M885.34,400.76c34.45,44.47,68.03,89.56,100.96,135.07c32.39,44.76,64.16,89.93,95.61,135.3
						c17.48,25.22,34.84,50.5,52.17,75.81c6.81,9.94,23.49,12.21,32.92,4.94c10.34-7.97,11.97-20.85,4.72-31.46
						c-30.89-45.13-61.94-90.17-93.44-134.93c-32.01-45.48-64.49-90.66-97.71-135.34c-18.94-25.48-38.12-50.79-57.58-75.91
						c-7.38-9.54-23.09-12.51-32.92-4.94C880.19,376.9,877.46,390.58,885.34,400.76L885.34,400.76z"/>
				</g>
			</g>
			<g>
				<g>
					<path class="st6" d="M861.78,700.69c50.68-35.72,100.87-72.06,150.41-109.21c36.68-27.5,73.05-55.37,109.96-82.58
						c24.45-18.03,49.13-35.79,73.99-53.31c9.86-6.95,12.76-21.94,4.72-31.46c-8.07-9.54-22.4-12.35-32.92-4.94
						c-41.35,29.14-82.08,59.06-122.41,89.48c-39.14,29.51-78.19,59.13-117.78,88.09c-31.16,22.8-62.58,45.27-94.17,67.54
						c-9.85,6.94-12.76,21.94-4.72,31.46C836.93,705.3,851.27,708.11,861.78,700.69L861.78,700.69z"/>
				</g>
			</g>
		</g>
		<g id="Ebene_9">
			<g class="st7">
				<path d="M708.36,302.33c-26.78,178.59,149.27,420.72,274.74,549.65c-18.2,1.85-36.68-25.03-70.85-60.14
					c-48.29-49.61-32.31-52.39-60.89-68.54c-23.74-13.41-54.9-15.41-81.9-20.31c-24.88-4.5-55.51-13.41-69.71-27.87
					c-18.73-19.07-26.17-226.47-3.16-349.79"/>
				<g>
					<path d="M701.71,301.34c-5.5,37.08-2.43,75.1,5.51,111.81c8.8,40.71,23.27,80.25,40.8,118.32
						c18.59,40.39,40.7,79.33,64.86,116.97c23.83,37.12,49.79,73,77.38,107.67c24.74,31.08,50.81,61.24,78.31,90.13
						c3.04,3.19,6.09,6.37,9.17,9.52c1.51-3.39,3.02-6.79,4.53-10.18c-0.49,0.04-0.97,0.06-1.46,0.09c1.81-0.09,0.28,0.02-0.15-0.04
						c-0.83-0.11-1.64-0.22-2.46-0.39c-1.88-0.37,0.57,0.34-1.25-0.39c-1.03-0.41-2.04-0.83-3.03-1.32
						c-0.52-0.26-1.03-0.54-1.54-0.82c1.13,0.63-0.05-0.03-0.32-0.2c-0.99-0.64-1.96-1.29-2.91-1.97c-2.1-1.52-4.11-3.18-6.05-4.9
						c-10.33-9.11-19.29-19.64-28.56-29.7c-18.16-19.69-37.76-38.25-52.2-60.74c-2.88-4.49-5.51-9.19-9.04-13.26
						c-4.41-5.09-9.82-8.98-15.65-12.44c-28.8-17.07-63.03-17.68-95.13-24.43c-14.64-3.08-29.29-7.23-42.66-13.9
						c-5.49-2.74-10.62-6.04-15.05-10.22c-0.66-0.62,0.52,0.84-0.23-0.29c-0.17-0.26-0.38-0.52-0.57-0.77
						c-0.62-0.79-0.23-1.22,0.18,0.36c-0.1-0.41-0.47-0.86-0.66-1.24c-0.95-1.9-1.68-3.91-2.33-5.92c-0.21-0.66-0.41-1.32-0.61-1.98
						c-0.14-0.5-0.67-2.53-0.16-0.5c-0.36-1.42-0.73-2.84-1.06-4.27c-1.64-7.11-2.8-14.32-3.8-21.53
						c-6.13-44.49-6.95-89.78-6.56-134.51c0.46-52.48,3.27-105.24,11.36-157.1c0.88-5.65,1.84-11.28,2.89-16.91
						c1.51-8.14-11.79-10.12-13.3-1.99c-9.57,51.52-12.85,104.27-13.98,156.63c-1.04,48.13-0.52,96.68,4.92,144.66
						c1.63,14.4,3.41,29.25,8.14,43.11c1.64,4.81,3.89,8.91,7.69,12.49c10.18,9.6,24.37,15.34,37.65,19.65
						c15.51,5.03,31.45,8.2,47.55,10.69c16.54,2.56,33.44,4.64,49.36,9.99c3.91,1.31,7.76,2.82,11.48,4.57
						c1.68,0.78,3.33,1.62,4.95,2.51c0.68,0.38,1.35,0.76,2.03,1.14c1.18,0.68-0.69-0.43,0.75,0.44c2.99,1.83,5.93,3.75,8.6,5.98
						c0.49,0.41,0.97,0.83,1.44,1.26c0.64,0.58,1.47,1.51,0.36,0.31c0.92,1.02,1.86,2,2.71,3.08c1.61,2.02,3.02,4.17,4.4,6.33
						c4.21,6.6,8.43,13.14,13.22,19.38c9.18,11.95,19.68,22.8,30.13,33.73c11.23,11.75,21.87,24.02,33.27,35.62
						c7.5,7.64,15.67,16.07,25.92,20.3c4.26,1.76,8.8,2.57,13.4,2.17c4.64-0.4,8.06-6.56,4.53-10.18
						c-27.03-27.79-52.67-56.82-77.07-86.75c-27.47-33.7-53.39-68.58-77.36-104.63c-24.43-36.71-46.84-74.71-66.07-114.14
						c-18.23-37.37-33.87-76.19-43.99-116.25c-9.09-36-14.03-73.42-10.57-110.04c0.41-4.36,0.94-8.7,1.59-13.03
						C716.22,295.16,702.93,293.14,701.71,301.34L701.71,301.34z"/>
				</g>
			</g>
		</g>
	</g>
</g>
</svg>
