<?xml version="1.0" encoding="utf-8"?>
<!-- Generator: Adobe Adobe Illustrator 24.2.0, SVG Export Plug-In . SVG Version: 6.00 Build 0)  -->
<svg version="1.1" xmlns="http://www.w3.org/2000/svg" xmlns:xlink="http://www.w3.org/1999/xlink" x="0px" y="0px"
	 viewBox="0 0 1700.79 1700.79" style="enable-background:new 0 0 1700.79 1700.79;"
	 xml:space="preserve">
<style type="text/css">
	.st0{fill:#6DB571;}
	.st1{fill:#99C154;stroke:#000000;stroke-width:1.1206;stroke-miterlimit:10;}
	.st2{fill:#99C154;}
	.st3{fill:#ADBECF;stroke:#F3C057;stroke-miterlimit:10;}
	.st4{fill:#F3C057;stroke:#F3C057;stroke-miterlimit:10;}
	.st5{fill:#F7D98D;stroke:#F3C057;stroke-miterlimit:10;}
	.st6{stroke:#F3C057;stroke-miterlimit:10;}
	.st7{fill:#AEBFCE;stroke:#F3C057;stroke-miterlimit:10;}
	.st8{opacity:0.2706;}
	.st9{fill:#3D4C5B;stroke:#F3C057;stroke-miterlimit:10;}
	.st10{fill:#F3C057;}
</style>
<g id="Ebene_7">
</g>
<g id="Ebene_3">
</g>
<g id="Ebene_4">
</g>
<g id="Ebene_5">
	<g>
		<g>
			<path class="st0" d="M544.25,1433.43c149.3-32.88,303.24-44.58,455.8-34.66c-135.7-286.35-223.21-592.68-310.11-897.41
				c-51.1,151.4-62.04,300-95.29,456.29s-56.12,295.04-84.6,477.94"/>
			<g>
				<path class="st0" d="M546.24,1440.66c115.94-25.46,234.54-38.16,353.25-37.8c33.54,0.1,67.08,1.26,100.55,3.41
					c6.14,0.4,8.72-6.55,6.48-11.29c-52.79-111.49-98.38-226.24-139.37-342.55C826.09,935.9,789.59,817.82,754.76,699.3
					c-19.55-66.54-38.58-133.23-57.6-199.92c-2.1-7.37-12.15-6.88-14.46,0c-20.62,61.29-35.33,124.3-47.33,187.79
					c-11.96,63.26-21.47,126.95-32.79,190.33c-10.69,59.84-24.05,119.15-35.66,178.82c-10.9,56.02-20.96,112.2-30.49,168.47
					c-10.35,61.11-20.09,122.31-29.67,183.54c-1.32,8.43-2.63,16.86-3.95,25.28c-0.63,4.03,1.03,8.02,5.24,9.23
					c3.55,1.02,8.6-1.24,9.23-5.24c9.7-62.3,19.52-124.58,29.91-186.76c9.49-56.83,19.47-113.58,30.28-170.18
					c11.21-58.7,24.34-117.01,35.3-175.75c11.79-63.15,21.29-126.7,32.67-189.92c11.39-63.29,24.85-126.29,43.98-187.74
					c2.49-7.99,5.08-15.95,7.74-23.88c-4.82,0-9.64,0-14.46,0c34.07,119.45,68.16,238.92,105.25,357.48
					c36.84,117.79,76.66,234.71,122.26,349.42c25.81,64.93,53.46,129.14,83.37,192.3c2.16-3.76,4.32-7.52,6.48-11.29
					c-119.8-7.72-240.3-2.16-358.91,16.35c-33.14,5.17-66.12,11.38-98.88,18.58C532.83,1428.27,536.82,1442.73,546.24,1440.66
					L546.24,1440.66z"/>
			</g>
		</g>
		<g>
			<g>
				<path d="M680.09,487.22c8.17,88.01,15.78,176.08,22.02,264.25c4.73,66.85,8.6,133.77,11.38,200.73
					c2.53,60.86,4.16,121.74,5.5,182.64c1.55,70.3,2.81,140.6,4.4,210.9c2.15,95.31,4.82,190.61,8.05,285.89
					c0.48,14.27,0.98,28.54,1.48,42.81c0.34,9.6,15.3,9.64,14.95,0c-3.52-99.41-6.48-198.84-8.83-298.29
					c-1.72-72.74-3.07-145.49-4.6-218.24c-1.29-61.22-2.78-122.44-5.12-183.63c-2.49-65.2-5.99-130.36-10.38-195.46
					c-5.7-84.72-12.77-169.34-20.44-253.89c-1.14-12.57-2.3-25.14-3.46-37.7C694.16,477.72,679.2,477.63,680.09,487.22
					L680.09,487.22z"/>
			</g>
		</g>
		<g>
			<g>
				<path d="M500.07,1443.1c83.91-5.7,167.8-11.71,251.61-18.69c50.34-4.19,100.65-8.79,151.01-12.82
					c34.94-2.79,69.91-5.33,104.89-7.7c4.29-0.29,9.24-4.65,7.23-9.49c-32.08-77.44-63.41-155.21-93.33-233.51
					c-23.26-60.86-45.65-122.05-66.88-183.65c-17.86-51.82-34.87-103.93-51.3-156.22c-15.82-50.32-31.15-100.79-46.61-151.22
					c-17.27-56.32-34.75-112.58-52.8-168.65c-2.52-7.81-5.04-15.62-7.58-23.42c-2.13-6.56-12.92-7.69-14.46,0
					c-24.93,123.95-49.36,248.01-73.69,372.08c-24.33,124.06-48.55,248.13-73.04,372.16c-13.72,69.48-27.53,138.95-41.5,208.39
					c-1.9,9.43,12.56,13.46,14.46,3.99c24.93-123.95,49.36-248.01,73.69-372.08c24.33-124.06,48.55-248.13,73.04-372.16
					c13.72-69.48,27.53-138.95,41.5-208.39c-4.82,0-9.64,0-14.46,0c18.62,57.31,36.63,114.81,54.34,172.41
					c15.6,50.72,30.99,101.51,46.79,152.17c16.11,51.65,32.7,103.14,50.12,154.36c20.42,60.03,41.93,119.68,64.34,178.99
					c28.63,75.81,58.64,151.1,89.43,226.05c4.48,10.9,8.97,21.79,13.49,32.68c2.41-3.16,4.82-6.33,7.23-9.49
					c-56.73,3.86-113.41,8.26-170.06,13.16c-58,5.01-116,9.96-174.04,14.38c-54.45,4.14-108.92,7.98-163.4,11.68
					C490.49,1428.75,490.42,1443.76,500.07,1443.1L500.07,1443.1z"/>
			</g>
		</g>
		<ellipse class="st1" cx="423.38" cy="895.93" rx="350" ry="360"/>
		<g>
			<g>
				<path class="st2" d="M349.58,1633.39c7.72,15.91,15.45,31.82,23.17,47.73c3.45,7.1,12.62,10.53,19.93,9.55
					c7.79-1.05,14.48-6.62,16.63-14.33c4.6-16.55,9.21-33.1,13.81-49.65c-12.86,0-25.71,0-38.57,0
					c3.76,18.89,11.94,37.22,23.71,52.48c5.07,6.58,11.14,10.73,19.93,9.55c8.25-1.11,13.85-6.67,16.63-14.33
					c5.57-15.37,11.15-30.74,16.72-46.11c-12.18,1.59-24.37,3.19-36.55,4.78c3.66,4.99,6.37,10.26,9.34,15.65
					c1.48,2.68-1.49-4.22,0.36,0.82c0.5,1.36,1,2.72,1.45,4.1c1,3.04,1.8,6.11,2.49,9.23c2.27,10.23,14.69,17.18,24.6,13.97
					c10.74-3.48,16.4-13.65,13.97-24.6c-3.11-14.06-9.15-27.73-17.68-39.35c-4.88-6.66-11.32-10.7-19.93-9.55
					c-8.25,1.11-13.85,6.67-16.63,14.33c-5.57,15.37-11.15,30.74-16.72,46.11c12.18-1.59,24.37-3.19,36.56-4.78
					c-5.28-6.85-9.44-14.1-13.33-21.79c-0.93-2.1-0.94-2.07-0.03,0.09c-0.43-1.05-0.85-2.11-1.25-3.18c-0.6-1.6-1.16-3.21-1.68-4.83
					c-1.4-4.34-2.5-8.75-3.39-13.22c-1.64-8.22-11.02-15.05-19.29-14.68c-8.84,0.4-16.85,5.93-19.29,14.68
					c-4.6,16.55-9.21,33.1-13.81,49.65c12.18-1.59,24.37-3.19,36.55-4.78c-7.72-15.91-15.45-31.82-23.17-47.73
					c-4.58-9.44-18.77-12.72-27.36-7.18C347.08,1612.27,344.68,1623.3,349.58,1633.39L349.58,1633.39z"/>
			</g>
		</g>
		<g>
			<g>
				<path class="st2" d="M480.02,1631.29c1.35,11.12,2.7,22.24,4.04,33.36c0.88,7.25,3.26,13.38,9.91,17.27
					c5.58,3.26,14.72,4.21,20.19,0c5.69-4.38,10.68-9.02,13.9-15.59c2.54-5.18,4.38-10.61,6.16-16.07c0.16-0.49,1.28-3.05,1.13-3.34
					c0.31,0.56-1.86,3.6-0.32,0.84c0.08-0.15,2.16-3.83,2.24-3.76c0.08,0.07-2.57,3.18-0.4,0.72c2.82-3.19-2.23,1.29-0.32,0.16
					c1.32-0.75,0.72-0.53-1.8,0.68c-0.92,0.09-1.84,0.17-2.77,0.26c3.71-0.15-3.07-0.72-1.2-0.2c2.03,0.57-4.79-2.38-1.89-0.67
					c-0.18-0.11-3.99-3.18-2.04-1.43c1.95,1.76-1.41-2.73-1.24-1.53c0.05,0.34,0.79,1.83,1.12,2.08c-0.74-0.57-1.73-4.9-0.71-1.53
					c0.99,3.29,1.91,6.58,2.82,9.9c2.52,9.18,6.28,19.08,13.85,25.32c11.63,9.59,28.62,6.44,33.43-8.83
					c2.72-8.64,5.45-17.29,8.17-25.93c-13.1-1.77-26.19-3.54-39.29-5.32c1.89,15.18,7.48,29.08,19.16,39.47
					c7.81,6.95,20.69,8.28,28.28,0c6.98-7.6,8.35-20.86,0-28.28c-1.25-1.11-3.7-2.79-4.34-4.37c1.52,2.04,1.64,2.16,0.36,0.34
					c-0.56-0.86-1.1-1.74-1.59-2.64c-0.5-0.9-0.96-1.82-1.38-2.76c1.01,2.41,1.13,2.57,0.36,0.46c-0.24-1.1-1.55-7.77-0.86-2.22
					c-1.24-10-6.67-18.21-17.34-19.64c-9.99-1.34-18.92,4.74-21.94,14.33c-2.72,8.64-5.45,17.29-8.17,25.93
					c11.14-2.94,22.29-5.88,33.43-8.83c-0.42-0.35-1.74-1.9-2.2-2.07c1.02,0.36,2.58,4.25,1.05,1.17c-0.38-0.76-1.84-4.24-0.64-0.87
					c1.19,3.34,0.1,0.14-0.17-0.61c-1.33-3.82-2.2-7.78-3.31-11.66c-3.56-12.39-10.19-23.49-22.96-27.91
					c-16.4-5.68-32.16,3.73-40.8,17.49c-3.32,5.29-5.22,11.41-7.15,17.3c-0.37,1.13-0.8,2.25-1.14,3.38
					c-1.24,4.19,1.75-3.09-0.11,0.42c-0.18,0.33-2.08,3.27-2.04,3.56c0.49-0.64,0.98-1.28,1.47-1.92c-1.54,1.49-1.2,1.35,1.01-0.4
					c10.03,5.76,20.06,11.51,30.09,17.27c-1.35-11.12-2.7-22.24-4.04-33.36c-1.25-10.35-8.3-20.52-20-20
					C490.27,1611.72,478.68,1620.16,480.02,1631.29L480.02,1631.29z"/>
			</g>
		</g>
		<g>
			<g>
				<path class="st2" d="M590.61,1626.41c4.64,15.43,9.27,30.86,13.91,46.29c2.88,9.58,12.04,15.66,21.94,14.33
					c8.92-1.2,18.46-9.75,17.34-19.64c-0.29-2.59-0.49-5.17-0.51-7.78c0-0.67-0.26-7.51,0.4-7.78c-0.25,0.11-0.71,4.01-0.06,0.68
					c0.25-1.28,0.49-2.55,0.79-3.82c0.59-2.54,1.32-5.03,2.19-7.49c0.48-1.36,0.56-4.14-0.01-0.3c0.13-0.89,0.92-2.02,1.32-2.83
					c1.15-2.33,2.43-4.6,3.83-6.79c0.7-1.1,1.49-2.13,2.19-3.22c1.52-2.36-3.04,3.41,0.24-0.25c1.74-1.94,3.5-3.83,5.39-5.63
					c-11.14-2.94-22.29-5.88-33.43-8.83c3.87,18.28,7.75,36.57,11.62,54.85c1.74,8.21,10.95,15.06,19.29,14.68
					c8.96-0.4,16.67-5.95,19.29-14.68c5.18-17.3,10.36-34.6,15.53-51.89c3-10.02-3.6-22.24-13.97-24.6
					c-10.77-2.45-21.39,3.24-24.6,13.97c-5.18,17.3-10.36,34.6-15.53,51.89c12.86,0,25.71,0,38.57,0
					c-3.87-18.28-7.75-36.57-11.62-54.85c-3.23-15.26-23.11-18.63-33.43-8.83c-19.49,18.51-30.52,46.64-27.49,73.5
					c13.1-1.77,26.19-3.54,39.29-5.32c-4.64-15.43-9.27-30.86-13.91-46.29c-3.01-10.01-14.16-17.35-24.6-13.97
					C594.46,1605.08,587.39,1615.68,590.61,1626.41L590.61,1626.41z"/>
			</g>
		</g>
		<g>
			<g>
				<path class="st2" d="M689.7,1652.7c3.59,8.67,7.17,17.34,10.76,26c3.85,9.32,11.26,15.76,21.94,14.33
					c9.54-1.28,17.6-9.64,17.34-19.64c-0.04-1.64-0.06-3.28,0.02-4.92c0.03-0.6,0.6-5.14,0.13-2.23c-0.47,2.93,0.38-1.62,0.51-2.18
					c0.37-1.6,0.81-3.18,1.31-4.74c0.17-0.51,1.8-4.77,0.73-2.21c-1.08,2.55,0.82-1.59,1.08-2.07c1.54-2.91,3.36-5.63,5.35-8.24
					c-11.51,0-23.03,0-34.54,0c1.41,2.53,2.71,5.1,3.92,7.73c-1.19-2.59-0.31-0.75,0.28,0.84c0.5,1.36,0.98,2.72,1.41,4.1
					c0.79,2.48,1.46,5,2.03,7.53c0.32,1.41,0.55,2.84,0.86,4.25c0.92,4.32-0.29-3.24,0.22,1.56c0.87,8.17,4.33,14.92,12.29,18.28
					c6.85,2.89,16.73,1.94,21.85-4.14c10.61-12.59,21.23-25.19,31.84-37.78c-11.14-2.94-22.29-5.88-33.43-8.83
					c2.45,10.19,4.9,20.39,7.35,30.58c3.35,13.93,23.66,20.26,33.43,8.83c10.2-11.94,20.39-23.87,30.59-35.81
					c6.79-7.95,8.39-20.59,0-28.28c-7.47-6.86-21.03-8.49-28.28,0c-10.2,11.94-20.39,23.87-30.59,35.81
					c11.14,2.94,22.29,5.88,33.43,8.83c-2.45-10.19-4.9-20.39-7.35-30.58c-3.33-13.86-23.72-20.35-33.43-8.83
					c-10.61,12.59-21.23,25.19-31.84,37.78c11.38,4.71,22.76,9.43,34.14,14.14c-1.75-16.44-6.1-31.69-14.18-46.21
					c-3.41-6.12-10.34-9.91-17.27-9.91c-7.72,0-12.85,4.1-17.27,9.91c-10.03,13.18-15.01,30.31-14.59,46.79
					c13.1-1.77,26.19-3.54,39.29-5.32c-3.59-8.67-7.17-17.34-10.76-26c-2.08-5.03-4.3-9.09-9.19-11.95
					c-4.29-2.51-10.61-3.57-15.41-2.02C694.4,1631.1,685.42,1642.35,689.7,1652.7L689.7,1652.7z"/>
			</g>
		</g>
		<g>
			<g>
				<path d="M678.44,805.73c-19.1-41.51-42.84-81.02-72.66-115.75c-24.55-28.58-53.48-53.71-86.18-72.57
					c-28.88-16.65-60.71-28.37-93.62-33.77c-31.91-5.23-64.31-4.84-96.14,0.76c-31.52,5.54-62.05,16.35-90.43,31.08
					c-28.78,14.94-55.4,34.17-78.93,56.45c-24.01,22.74-44.92,48.93-61.79,77.37c-17.28,29.13-30.43,60.87-38.58,93.76
					c-8.53,34.42-11.71,70.23-9.3,105.61c2.64,38.7,11.63,76.81,26.02,112.81c15.4,38.53,36.11,76.41,62.46,108.59
					c18.53,22.63,41.81,41.31,67.36,55.45c26.46,14.65,55.44,24.71,85.05,30.68c30.91,6.22,62.63,8.31,94.1,6.69
					c32.29-1.67,64.46-7.06,95.52-16.03c30.96-8.94,61.04-21.45,88.97-37.56c27.3-15.74,52.77-35.09,74.56-57.89
					c21.53-22.52,39.63-48.51,52.31-77.02c13.49-30.32,21.01-62.83,22.44-95.99c1.62-37.7-4.6-75.6-15.89-111.51
					c-6.47-20.58-14.63-40.61-23.9-60.08c-4.15-8.71-17.08-1.11-12.95,7.57c17.17,36.06,30.25,74.59,35.5,114.3
					c4.37,33.05,3.19,66.51-4.71,98.51c-7.3,29.59-19.73,56.59-37.23,81.75c-16.5,23.74-38.63,46.12-61.66,63.56
					c-24.25,18.36-51.86,33.89-79.4,45.24c-29.09,11.99-59.6,20.54-90.66,25.6c-29.38,4.79-60.87,6.3-91.33,4.06
					c-28.9-2.13-57.96-7.85-85.93-17.96c-25.42-9.18-51.75-23.5-72.46-40.72c-26.54-22.07-45.04-49.09-62.17-78.94
					c-19.87-34.62-35.04-71.87-43.7-110.89c-7.65-34.45-9.93-69.99-6.59-105.14c3.1-32.51,11.53-65.45,24.25-95.67
					c12.24-29.09,29.19-57.32,48.95-81.68c19.76-24.36,43-46.37,68.28-64.22c25.38-17.93,52.98-32.31,81.97-42.1
					c29.22-9.87,58.5-15.08,89.02-15.25c31.31-0.17,61.45,5.04,91.15,15.85c31.12,11.33,60.52,29.09,85.94,50.76
					c30.63,26.1,56.18,57.6,77.35,91.73c11.98,19.32,22.57,39.46,32.07,60.1C669.52,822.06,682.45,814.44,678.44,805.73
					L678.44,805.73z"/>
			</g>
		</g>
		<g>
			<g>
				<path d="M709.51,661.62c-41.79-53.65-106.19-87.47-171.5-102.99c-32.84-7.81-67.06-11.38-100.77-8.89
					c-36.48,2.7-72.03,12.03-105.46,26.78c-65.24,28.78-120.42,78.7-155.88,140.51c-34.56,60.24-51.28,131.02-46.59,200.36
					c4.58,67.8,30.13,131.9,73.14,184.46c41.71,50.96,98.64,89.83,161.71,109.05c63.71,19.41,132.48,16.69,194.94-6.11
					c62.1-22.67,117.42-63.81,154.85-118.54c36.41-53.22,54.32-118.7,59.25-182.46c5.17-66.9-4.86-136.2-34.62-196.74
					c-7.13-14.5-15.46-28.37-24.93-41.47c-2.39-3.31-6.5-4.83-10.26-2.69c-3.26,1.86-5.06,6.99-2.69,10.26
					c37.89,52.43,55.87,116.68,58.44,180.84c2.48,62.08-8.29,126.1-34.42,182.69c-26.6,57.6-71.97,104.21-127.52,134.54
					c-55.39,30.24-120.31,43.88-183.07,35.38c-62.36-8.44-121.25-37.72-167.57-80.01c-47.29-43.17-81.44-99.61-95.46-162.24
					c-14.52-64.86-7.74-133.69,16.42-195.41c24.65-62.99,68.59-117.5,125.37-154.34c57.98-37.62,126.55-55.76,195.5-49.18
					c64.04,6.12,129.29,30.57,178.24,72.92c11.82,10.23,22.66,21.54,32.27,33.88c2.51,3.22,7.97,2.58,10.61,0
					C712.7,669.11,711.98,664.8,709.51,661.62L709.51,661.62z"/>
			</g>
		</g>
		<g>
			<g>
				<path d="M423.41,895.4c1.64,93.41-0.65,186.81-4.24,280.15c-3.74,97.09-8.48,194.13-11.21,291.26
					c-1.76,62.53-2.73,125.08-2.74,187.63c0,9.65,15,9.67,15,0c0.02-106.82,3.08-213.59,7.4-320.32
					c3.78-93.32,8.33-186.61,10.33-279.99c1.13-52.9,1.4-105.82,0.47-158.73C438.24,885.76,423.24,885.73,423.41,895.4L423.41,895.4
					z"/>
			</g>
		</g>
		<g>
			<g>
				<path d="M438.14,1188.41c24.82-74.59,56.32-146.51,86.3-219.11c9.86-23.87,19.51-47.83,28.88-71.91
					c1.48-3.8-1.63-8.19-5.24-9.23c-4.23-1.21-7.76,1.48-9.23,5.24c-29.61,76.07-63.36,150.48-92.32,226.8
					c-8.06,21.25-15.68,42.65-22.86,64.22C420.62,1193.6,435.11,1197.54,438.14,1188.41L438.14,1188.41z"/>
			</g>
		</g>
	</g>
</g>
<g id="Ebene_6">
	<g>
		<g id="Ebene_7_1_">
			<g>
				<path class="st3" d="M814.88,1010.15c-13.9,5.61-16.51,26.79-4.44,36.13c-36.68,44.8-31.33,116.85,11.78,158.75
					c13.67,13.29,30.9,23.77,49.84,27.25c34.98,6.42,70.38-12.7,89.58-40.57c7.33-10.64,12.72-22.42,18.08-34.13
					c11.41-24.96,22.82-49.92,34.24-74.88c3.18-6.94,6.41-14.18,6.12-21.86c-0.6-16.01-15.79-28.08-30.26-36.57
					c-35.38-20.75-75.11-34.44-115.77-39.89c-11.61-1.55-23.6-2.42-34.71,0.66s-21.27,10.82-24.06,21.58"/>
				<g>
					<path class="st3" d="M815.02,1006.29c-16.18,6.97-24.31,30.8-8.7,43.45c0.29-1.63,0.57-3.27,0.86-4.9
						c-26.15,32.25-32.45,77.09-18.71,116.63c14.8,42.59,57.26,82.05,106.52,75.52c22.73-3.01,43.23-14.79,58.7-30.36
						c19.15-19.29,28.65-45.56,39.66-69.63c6.09-13.33,12.19-26.65,18.27-39.98c3-6.56,6.13-13.08,8.95-19.72
						c2.5-5.86,4.56-12.21,4.2-18.7c-1.29-23.13-27.61-36.81-46.43-46.49c-26.32-13.55-54.64-23.28-83.69-28.95
						c-25.21-4.92-55.92-9.62-75.2,9.72c-4.07,4.09-7.12,8.97-8.67,14.48c-0.63,2.22,0.83,3.72,3.19,3.45
						c2.48-0.28,5.19-2.6,5.84-4.9c6.75-23.82,40.71-19.22,60.23-16.05c27.4,4.45,54.21,12.71,79.44,24.34
						c11.54,5.31,23.08,11.17,33.61,18.23c8.09,5.42,16.36,12.45,20.17,21.37c5,11.68-0.56,22.51-5.35,33
						c-5.61,12.27-11.22,24.54-16.83,36.81c-5.68,12.42-11.34,24.86-17.04,37.27c-5.18,11.27-10.52,22.76-18.06,32.75
						c-11.71,15.5-28.57,27.79-48.08,33.01c-44.8,12.02-87.82-20.63-105.66-59.12c-16.05-34.62-15.7-76.32,3.61-108.58
						c2.35-3.93,4.98-7.64,7.87-11.21c0.81-1,2.38-3.67,0.86-4.9c-5.05-4.09-7.43-9.97-7.09-16.13c0.27-4.91,2.31-10.56,7.25-12.68
						c2.19-0.94,4.89-3.04,4.84-5.61C819.55,1005.99,816.96,1005.46,815.02,1006.29L815.02,1006.29z"/>
				</g>
			</g>
			<g>
				<g>
					<path class="st3" d="M842.73,1235.14c4.14,1.4,11.31-6.44,6.76-7.98C845.36,1225.76,838.19,1233.6,842.73,1235.14
						L842.73,1235.14z"/>
				</g>
			</g>
			<g>
				<g>
					<path class="st3" d="M835.32,1235.14c0.98,8.28,7.14,15.48,16.04,16.78c9.28,1.34,18.34-4.16,22.67-11.59
						c0.6-1.04,1.3-3.86-0.65-4.35c-9.06-2.28-18.13-4.55-27.19-6.83c-2.57-0.64-5.08,0.66-6.65,2.56
						c-0.87,1.05-2.71,4.77-0.11,5.42c9.06,2.28,18.13,4.55,27.19,6.83c-0.21-1.45-0.44-2.9-0.65-4.35
						c-5.66,9.72-20.21,0.8-21.25-7.98C844.08,1226.09,834.85,1231.14,835.32,1235.14L835.32,1235.14z"/>
				</g>
			</g>
		</g>
		<g id="Ebene_5_1_">
			<g>
				<path class="st4" d="M1024.7,1037.67c22.92-68.9,87.03-115.77,149.73-155.38c62.7-39.6,130.06-78.95,166.09-142.16
					c45.56-79.93,28.5-186.69-31.62-260.8s-157.32-116.32-253.75-122.36c-60.11-3.77-121.35,5.75-173.69,32.42
					c-52.34,26.67-107.01,76.22-125.21,130.49c-25.22,75.2,9.78,153.14,34.23,230.14s50.5,158.44,30.72,235.27
					c70.1-6.04,143.3,15.26,199.46,58.05"/>
				<g>
					<path class="st4" d="M1029.21,1036.95c20.09-59.73,71.55-102,123.45-136.59c52.22-34.8,108.6-64.87,152.82-109.29
						c20.95-21.04,38.43-45.29,49.79-72.49c10.45-25.01,15.56-52.17,15.84-79.37c0.55-54.79-18.11-110.29-51.98-155.53
						c-36.66-48.97-90.29-85.27-148.3-106.88c-59.4-22.13-124.4-29.76-186.62-21.88c-30.99,3.93-61.46,11.89-89.62,24.41
						c-27.78,12.35-53.35,29.01-75.93,48.65c-22.9,19.91-43.37,43.24-57.22,69.95c-13.27,25.6-19.11,54.18-18.59,83.06
						c1.09,59.77,25.73,117.17,43.8,174.06c19.21,60.47,39.48,122.97,36.57,186.24c-0.7,15.12-2.8,30.08-6.52,44.7
						c-0.58,2.29,0.73,3.66,3.19,3.45c53.9-4.52,109.39,7.25,157.6,32.55c13.7,7.19,26.78,15.48,39.06,24.78
						c3.75,2.84,11.69-4.33,8.26-6.93c-44.5-33.73-98.96-54.41-154.76-58.9c-15.86-1.27-31.75-1.19-47.5,0.14
						c1.06,1.15,2.12,2.3,3.19,3.45c15.28-60.1,3.32-122.89-13.79-182.41c-8.56-29.76-18.15-59.29-28.07-88.69
						c-9.61-28.5-19.33-57.1-25.54-86.4c-5.96-28.13-8.43-57.14-3.4-85.24c5.08-28.39,18.35-53.95,36.54-76.35
						c37.02-45.59,90.16-79.39,148.86-94.4c59.62-15.24,124.62-13.99,185.1,1.59c59.85,15.42,116.77,45.13,160.07,88.69
						c40.41,40.66,66.65,92.82,74.12,147.83c7.45,54.86-5.04,110.23-38.79,154.15c-37.15,48.33-91.72,80.58-143.35,113.09
						c-52.44,33.02-105.97,69.65-138.57,122.27c-7.73,12.49-14.04,25.81-18.71,39.7c-0.75,2.22,0.91,3.71,3.19,3.45
						C1025.95,1041.56,1028.44,1039.24,1029.21,1036.95L1029.21,1036.95z"/>
				</g>
			</g>
		</g>
		<g id="Ebene_6_1_">
			<g>
				<path class="st5" d="M1288.43,594.01c-19.46-57.44-66.37-126.32-121.73-156.65s-154.96-27.95-213.63-8.11
					c-81.14,27.43-127.86,127.12-127.09,210.37c0.67,72.09,69.39,124.81,137.88,156.99c68.48,32.18,158.72,51.24,219.79,11.01
					s107.06-141.33,104.74-213.44"/>
				<g>
					<path class="st5" d="M1293,591.33c-8.23-24.14-19.91-47.27-33.83-69.01c-14.5-22.65-31.71-44.02-52.02-62.24
						c-17.59-15.79-37.55-29-60.23-36.73c-22.76-7.76-46.91-11.34-70.75-12.61c-25.16-1.35-50.5-0.15-75.23,3.53
						c-21.8,3.24-43.89,8.23-63.58,17.6c-39.91,19-69.23,53.81-88.18,91.83c-9.79,19.64-17.15,40.46-21.86,61.89
						c-4.52,20.6-7.39,42.37-5.74,63.64c3.38,43.24,31.51,79.87,65.89,107.12c36.04,28.57,79.13,50.13,123.23,63.89
						c43.96,13.72,92.37,20.34,136.57,7.69c43.22-12.37,74.63-45.22,97.61-80.82c24.32-37.67,41.37-81.29,46.77-125.86
						c1.16-9.54,1.68-19.16,1.4-28.81c-0.16-5.47-9.53-0.51-9.41,3.52c1.23,41.83-11.58,83.79-29.98,120.77
						c-9.61,19.32-21.12,37.81-35.07,54.46c-12.5,14.92-27.07,28.69-44.52,38.29c-37.99,20.89-85.42,19.6-127.84,10.43
						c-44.04-9.52-86.85-28.13-124.71-52.2c-35.91-22.84-70.3-53.75-84.39-93.62c-6.97-19.72-7.35-39.95-5.43-60.22
						c1.98-20.89,6.66-41.43,13.61-61.15c13.58-38.52,36.4-75.37,70.29-100.18c16.02-11.73,34.39-19.39,53.99-24.26
						c22.39-5.58,45.68-8.51,68.95-9.34c45.21-1.6,95.14,3.12,134.37,28.16c21.62,13.8,40.09,32.13,56,51.71
						c16.52,20.34,30.54,42.55,41.74,65.87c5.03,10.46,9.46,21.16,13.18,32.07C1285.39,601.24,1294.37,595.33,1293,591.33
						L1293,591.33z"/>
				</g>
			</g>
		</g>
		<g id="Ebene_3_1_">
			<g>
				<g>
					<path class="st6" d="M1024.27,1051.61c13.67-29.16,32.08-55.76,53.97-79.69c21.41-23.41,45.81-44.12,71.12-63.6
						c26.03-20.02,52.7-39.17,81.13-56.05c27.6-16.38,56.3-32.25,79.32-54.4c40.54-39.02,61.68-93.7,63.9-149.05
						c2.24-55.69-14.16-112.36-47.3-159.4c-35.4-50.24-87.59-88.62-145.15-112.57c-58.51-24.35-122.81-34.06-185.33-28.41
						c-63.22,5.71-125.23,27.87-172.37,68.03c-47.79,40.71-80.72,99.42-82.23,162.3c-0.76,31.84,6.7,63.49,16.26,94.13
						c9.6,30.79,20.91,61.08,29.93,92.02c16.64,57.04,26.8,114.87,29.15,173.65c0.65,16.34,0.81,32.67,0.64,48.99
						c-0.06,5.42,9.36,0.5,9.41-3.52c0.65-59.86-4.18-119.62-17.9-178.57c-6.79-29.15-15.27-57.99-24.86-86.49
						c-10.19-30.3-21.36-60.47-27.92-91.64c-6.48-30.78-7.38-62.07,0.11-92.33c7.3-29.5,21.35-57.12,40.36-81.01
						c37.85-47.56,93.8-77.99,154.87-90.93c60.38-12.8,124.92-9.68,184.9,8.18c59.18,17.62,114.71,49.4,156.56,94.07
						c39.82,42.51,64.78,95.73,70.4,151.88c5.35,53.51-6.18,109.23-38.13,152.84c-17.81,24.32-41.53,42.26-67.45,58.2
						c-13.81,8.49-27.94,16.51-41.77,24.98c-13.56,8.31-26.46,17.39-39.3,26.66c-51.72,37.35-102.1,77.84-137.49,130.52
						c-8.67,12.91-16.31,26.45-22.89,40.49C1013.26,1057.19,1022.32,1055.8,1024.27,1051.61L1024.27,1051.61z"/>
				</g>
			</g>
			<g>
				<g>
					<path class="st6" d="M812.33,1003.6c0.87,6.34,6.06,11.71,10.97,15.74c8.14,6.68,17.67,11.76,27.21,16.27
						c29.41,13.89,61.17,23.18,92.58,31.3c9.67,2.5,19.37,4.86,29.1,7.09c8.98,2.06,18.5,5.12,27.72,5.24
						c7.57,0.09,15.19-1.66,20.91-6.43c6-5,8.4-12.65,5.89-20.12c-2.67-7.91-9.31-14.66-15.63-20.16
						c-7.17-6.24-15.29-11.46-23.7-15.99c-17.93-9.66-37.29-17.11-56.79-22.98c-21.86-6.58-44.37-11.04-67.04-13.17
						c-10.47-0.99-22.34-2.73-32.55-0.14c-9.12,2.32-17.62,9.3-18.1,18.86c-0.12,2.52,2.73,2.72,4.57,2.1
						c2.31-0.78,4.72-3.14,4.84-5.61c0.39-7.98,10.79-8.16,17.13-8c9.21,0.23,18.45,1.04,27.62,2.14
						c18.72,2.24,37.28,6.04,55.41,11.41c17.34,5.14,34.36,11.62,50.61,19.53c15.14,7.38,30.88,16.76,40.74,30.45
						c3.12,4.33,7.5,12.85,2.25,17.04c-4.55,3.65-12.82,2.95-18.31,1.95c-17.81-3.24-35.55-7.88-53.05-12.51
						c-28.59-7.58-57.33-16.21-84.29-28.5c-9.64-4.39-19.43-9.26-27.76-15.79c-5.07-3.98-10.32-8.8-11.18-15.08
						c-0.35-2.53-4.4-1.3-5.66-0.58C813.65,998.88,811.98,1001.09,812.33,1003.6L812.33,1003.6z"/>
				</g>
			</g>
			<g>
				<g>
					<path class="st6" d="M817.58,1003.4c-18.33,2.98-27.7,23.08-20.13,39.09c9.46,20.04,33.51,27.14,53.4,33.62
						c23.48,7.64,47.38,13.85,71.38,19.52c12.22,2.89,24.46,5.62,36.71,8.34c9.97,2.21,20.07,4.76,30.28,3.82
						c9.93-0.92,17.78-5.95,23.29-13.67c4.5-6.3,8.55-15.53,4.8-23.26c-2.17-4.48-10.98,1.62-9.16,5.38
						c2.56,5.29,0.42,11.27-2.7,15.74c-3.73,5.34-8.6,7.34-15.38,7.57c-8.8,0.3-17.71-2.14-26.28-4.03
						c-10.33-2.29-20.65-4.59-30.96-6.99c-20.75-4.83-41.44-10.04-61.85-16.21c-9.78-2.95-19.52-6.08-29.12-9.57
						c-9.04-3.29-18.29-7.13-25.59-13.44c-6.64-5.75-12.2-13.8-12.28-22.5c-0.07-6.76,3.53-13.85,10.93-15.06
						c2.52-0.41,5.17-2.5,5.84-4.9C821.37,1004.68,820,1003.01,817.58,1003.4L817.58,1003.4z"/>
				</g>
			</g>
			<g>
				<g>
					<path class="st6" d="M798.36,1044.79c-5.4,6.19-9.33,13.82-11.83,21.55c-2.38,7.38-3.08,14.8,0.85,22.01
						c10.47,19.23,36.43,22.25,55.92,26.92c23.53,5.64,47.07,11.28,70.61,16.92c11.53,2.76,23.05,5.52,34.58,8.28
						c9.51,2.28,19.61,5.57,29.4,4.11c21.51-3.18,25.7-26.71,24.72-44.23c-0.31-5.5-9.63-0.5-9.41,3.52
						c0.41,7.26,0.18,14.74-2,21.68c-2.08,6.61-5.67,10.71-13.3,10.91c-8.67,0.22-17.61-2.78-26-4.78
						c-10.57-2.53-21.13-5.06-31.7-7.59c-20.65-4.94-41.31-9.89-61.96-14.84c-10.42-2.5-20.91-4.8-31.27-7.55
						c-9.1-2.42-18.45-5.68-25.29-12.3c-5.98-5.78-9-12.92-7.18-20.78c1.74-7.5,5.28-15.09,10.39-20.96
						c1.24-1.42,2.39-4.25,0.11-5.42C802.74,1041.06,799.65,1043.31,798.36,1044.79L798.36,1044.79z"/>
				</g>
			</g>
			<g>
				<g>
					<path class="st6" d="M791.9,1084.1c-11.79,7.93-16.78,24.61-14.47,38.13c3.18,18.62,28.67,22.85,44.27,26.42
						c24.47,5.6,48.93,11.19,73.4,16.79c12.11,2.77,24.22,5.54,36.34,8.31c9.84,2.25,19.9,5.17,30.03,4.73
						c10.48-0.46,19.41-5.11,24.38-13.94c4.71-8.37,6.09-18.66,5.02-28.18c-0.62-5.52-9.86-0.49-9.41,3.52
						c0.82,7.37,0.32,15.26-2.7,22.05c-1.01,2.28-2.41,4.83-4.71,6.13c-3.16,1.77-7.4,2.12-11.05,2.04
						c-9-0.19-17.95-2.78-26.71-4.78c-10.42-2.38-20.83-4.77-31.25-7.15c-21.08-4.82-42.15-9.65-63.23-14.47
						c-10.13-2.32-20.43-4.27-30.4-7.2c-7.9-2.32-17.62-5.88-22.41-12.9c-3.44-5.03-3.1-12.21-2.1-17.74
						c0.9-4.95,3.17-12.54,7.14-15.21c1.76-1.19,4.4-3.56,3.5-5.97C796.71,1082.39,793.42,1083.08,791.9,1084.1L791.9,1084.1z"/>
				</g>
			</g>
			<g>
				<g>
					<path class="st6" d="M785.11,1129.92c-12.38,7.16-14.29,25.25-2.98,34.77c6.91,5.82,15.81,8.55,24.25,11.45
						c10.02,3.43,20.05,6.88,30.08,10.31c20.05,6.87,40.11,13.74,60.17,20.62c17.21,5.89,35.84,14.13,53.96,8.78
						c8.54-2.52,16-8.21,19.84-15.98c4.45-9,4.57-19.11,3.04-28.97c-0.39-2.52-4.38-1.31-5.66-0.58c-2.15,1.23-3.89,3.46-3.5,5.97
						c1.14,7.37,1.33,15.64-1.76,22.51c-2.43,5.37-7.18,8.43-13.09,9.67c-15.77,3.33-32.73-4.8-47.46-9.85
						c-16.56-5.67-33.12-11.35-49.67-17.02c-16.37-5.61-33.03-10.71-49.17-16.95c-6.79-2.63-15.35-6.51-18.07-13.6
						c-1.55-4.04-2.25-12,2.18-14.56c1.82-1.05,4.37-3.65,3.5-5.97C789.89,1128.13,786.67,1129.02,785.11,1129.92L785.11,1129.92z"
						/>
				</g>
			</g>
			<g>
				<g>
					<path class="st6" d="M797.03,1172.57c-0.27,12.35,2.56,24.6,10.3,34.94c6.74,8.99,16.52,15.57,26.68,20.54
						c21.26,10.41,45.76,15.57,68.7,9.39c13.73-3.7,25.38-11.68,32.74-23.34c1.11-1.76,0.86-4.19-1.6-4.59
						c-2.62-0.42-5.27,1.98-6.46,3.86c-11.03,17.48-35.23,20.2-55,17.2c-10.32-1.56-20.14-5.12-29.57-9.52
						c-9.26-4.33-18.06-9.78-24.76-17.43c-8.65-9.86-11.9-22.1-11.62-34.56C806.56,1163.66,797.12,1168.56,797.03,1172.57
						L797.03,1172.57z"/>
				</g>
			</g>
			<g>
				<path class="st7" d="M835.85,1224.82c-3.73,8.12,2.43,23.54,14.01,26.13c9.2,2.06,24.95-2.9,29.01-11.62"/>
				<g>
					<path class="st6" d="M831.34,1225.54c-4.56,10.98,3.19,26.63,15.62,29.51c12.92,3,30.2-4.13,35.95-15.37
						c0.93-1.81,0.99-4.17-1.6-4.59c-2.46-0.39-5.47,1.92-6.46,3.86c-3.58,7.01-16.48,10.13-23.93,7.27
						c-8.15-3.13-13.76-14.41-10.55-22.14c0.92-2.2-1.03-3.7-3.19-3.45C834.47,1220.95,832.29,1223.26,831.34,1225.54
						L831.34,1225.54z"/>
				</g>
			</g>
		</g>
		<g id="Ebene_8">
			<g class="st8">
				<path class="st9" d="M837.12,984.74c-9.64-1.31-15.8,10.9-12.13,19.61s12.92,13.99,21.64,18.32
					c37.28,18.52,76.97,32.35,117.7,41.01c19.22,4.09,40.22,6.83,57.37-1.64c-65.63-11.22-143.53-24.07-183.81-74.36"/>
				<g>
					<path class="st9" d="M839.55,980.52c-13.18-1.29-22.7,13.09-19.77,24.61c1.74,6.86,7.66,12.09,13.52,15.97
						c7.54,4.99,16.15,8.67,24.37,12.44c35.3,16.13,72.9,28.66,111.08,35.75c17.66,3.28,36.6,4.39,52.82-3.38
						c2.17-1.04,8.24-7.11,2.57-8.08c-51.01-8.72-106.08-16.82-150.45-45.41c-12.02-7.75-22.78-17.21-31.66-28.19
						c-2.79-3.44-11.16,3.35-8.26,6.93c33.53,41.45,89.77,56.86,140.42,66.99c14.98,3,30.04,5.55,45.09,8.13
						c0.85-2.7,1.71-5.39,2.57-8.08c-12.4,5.94-26.43,5.88-40.13,3.97c-16.13-2.25-32.16-6.41-47.82-10.92
						c-16.53-4.75-32.82-10.36-48.76-16.8c-8.08-3.26-16.08-6.73-23.99-10.41c-6.96-3.24-14.15-6.42-20.6-10.6
						c-5.53-3.58-11.66-9.19-11.91-15.94c-0.14-3.88,1.2-9,6.06-8.52C838.84,989.38,845.2,981.08,839.55,980.52L839.55,980.52z"/>
				</g>
			</g>
			<g class="st8">
				<path class="st9" d="M812.52,1014.73c-9.83,4.98-10.03,19.47-3.24,28.31c6.79,8.83,17.99,13.31,28.65,17.19
					c45.06,16.38,91.26,29.66,138.09,39.72c12.04,2.59,27.26,3.81,33.64-6c-33.79-0.08-178.97-24.25-196-81.67"/>
				<g>
					<path class="st9" d="M811.45,1011.45c-12.7,6.97-14.91,23.65-6.29,35.05c4.97,6.56,12.7,10.92,20.25,14.15
						c8.89,3.81,18.18,6.83,27.33,9.97c38.65,13.24,78.08,24.23,117.97,32.91c15.6,3.4,33.26,4.81,43-9.24
						c1.02-1.47,0.98-4.57-1.6-4.59c-10.13-0.04-20.35-1.38-30.4-2.82c-15.11-2.17-30.14-5.08-45.02-8.63
						c-31.5-7.53-64.72-17.74-91.54-36.28c-11.78-8.14-22.74-18.83-26.88-32.41c-1.38-4.53-10.4,1.33-9.16,5.38
						c8.27,27.18,39.55,43.22,64.69,53.56c30.92,12.72,64.06,20.72,96.98,25.91c12.03,1.9,24.32,3.68,36.48,3.73
						c-0.54-1.53-1.07-3.06-1.6-4.59c-2.49,3.59-8.44,4-12.57,3.96c-6.41-0.05-12.7-1.4-18.97-2.77
						c-17.53-3.84-34.97-8.15-52.29-12.91c-16.92-4.64-33.72-9.72-50.39-15.21c-8.45-2.78-16.87-5.67-25.25-8.67
						c-7.19-2.57-14.51-5.07-21.19-8.79c-6.58-3.67-12.66-8.91-14.82-16.08c-1.49-4.94-1.76-12.29,3.4-15.12
						c1.84-1.01,4.35-3.68,3.5-5.97C816.22,1009.63,813.03,1010.58,811.45,1011.45L811.45,1011.45z"/>
				</g>
			</g>
			<g class="st8">
				<path class="st9" d="M801.32,1054.71c-11.83,3.69-12.8,20.8-4.66,30.21s21.28,12.97,33.54,16.01
					c42.26,10.48,84.53,20.95,126.79,31.42c12.68,3.14,28.32,5.48,36.49-3.93c-55.06-8.54-179.91-26.69-188.49-78.21"/>
				<g>
					<path class="st9" d="M801.46,1050.85c-12.98,4.5-18.05,19.44-12.68,31.51c6.76,15.21,26.05,19.59,40.92,23.27
						c40.58,10.06,81.17,20.11,121.75,30.17c15.79,3.91,33.57,6.85,45.31-5.95c1.55-1.69,2.42-5.15-0.84-5.66
						c-28.23-4.38-56.46-8.88-84.3-15.57c-15.27-3.67-30.44-8-45.14-13.57c-12.72-4.82-25.55-10.57-36.47-18.68
						c-9.92-7.36-18.31-16.83-20.42-28.86c-0.77-4.4-9.89,1.23-9.16,5.38c4.24,24.2,31.06,38.56,52.45,47.42
						c29.72,12.33,61.73,19.22,93.24,24.95c14.95,2.72,29.95,5.05,44.95,7.37c-0.28-1.89-0.56-3.77-0.84-5.66
						c-3.3,3.59-9.05,4.04-13.83,3.87c-6.65-0.23-13.16-1.78-19.61-3.38c-17.29-4.28-34.58-8.57-51.87-12.86
						c-17.53-4.34-35.06-8.69-52.59-13.03c-8.23-2.04-16.51-3.96-24.7-6.18c-7.04-1.9-14.25-4.22-20.36-8.27
						c-5.82-3.85-10.15-9.35-11.04-16.11c-0.6-4.52-0.02-10.74,4.98-12.47c2.23-0.77,4.88-3.16,4.84-5.61
						C805.98,1050.43,803.42,1050.18,801.46,1050.85L801.46,1050.85z"/>
				</g>
			</g>
			<g class="st8">
				<path class="st9" d="M791.43,1097.36c-8.05,5.73-8.43,18.08-2.76,26.37c5.67,8.28,15.78,12.94,25.82,15
					c10.03,2.06,20.33,1.95,30.49,3.04c23.43,2.52,45.72,11.36,68.45,17.79c22.72,6.44,47.34,10.44,69.35,3.28
					c-43.9-6.27-160.42-20.83-191.14-66.36"/>
				<g>
					<path class="st9" d="M789.17,1094.91c-10.86,8.29-11.84,24.05-2.87,34.57c10.44,12.23,27.92,14.48,43.04,15.51
						c8.89,0.6,17.67,1.32,26.44,3.08c9.17,1.83,18.15,4.43,27.09,7.18c16.03,4.93,31.96,10.36,48.48,13.36
						c17.21,3.13,34.78,3.32,51.28-1.9c2.53-0.8,7.98-7.31,2.57-8.08c-25-3.57-49.99-7.17-74.74-12.39
						c-28.6-6.04-57.93-13.72-83.82-27.63c-11.91-6.4-23.28-14.49-30.88-25.58c-2.42-3.53-10.88,3.1-8.26,6.93
						c14.57,21.29,42.16,32.78,66.1,40.89c28.65,9.71,58.51,15.71,88.27,20.54c12.8,2.07,25.65,3.86,38.47,5.69
						c0.85-2.7,1.71-5.39,2.57-8.08c-27.8,8.79-58.02-0.69-85.13-9.19c-15.15-4.75-30.43-9.53-46.18-11.73
						c-14.96-2.09-30.95-0.58-45.09-6.92c-6.62-2.97-12.97-7.8-15.59-14.54c-2.15-5.55-2.32-12.94,2.75-16.81
						c1.49-1.14,3.54-4.1,1.87-5.91C793.81,1092,790.62,1093.82,789.17,1094.91L789.17,1094.91z"/>
				</g>
			</g>
			<g class="st8">
				<path class="st9" d="M787.79,1133.68c-6.83,6.71-4.3,18.77,2.68,25.78c6.98,7,16.99,10.21,26.54,13.16
					c33.64,10.37,67.27,20.73,100.9,31.1c16.09,4.96,35.16,9.52,48.2-0.14c-63.87-6.38-134.14-25.56-179.93-70.38"/>
				<g>
					<path class="st9" d="M784.52,1132.24c-8.81,9.32-6.08,24.01,3.63,32.35c5.6,4.81,12.5,7.76,19.49,10.1
						c8.1,2.71,16.31,5.09,24.48,7.6c16.82,5.19,33.64,10.37,50.45,15.55c15.12,4.66,30.23,10.08,45.68,13.58
						c14.21,3.21,28.33,2.98,40.13-5.41c1.87-1.34,4.24-6.26,0.17-6.66c-50.06-5.06-101.43-17.04-144.75-43.67
						c-12.11-7.45-23.36-16.11-33.48-25.95c-3.3-3.21-11.48,3.79-8.26,6.93c36.99,35.96,87.72,54.9,137.96,64.76
						c14.46,2.83,29.04,4.9,43.67,6.38c0.06-2.22,0.12-4.45,0.17-6.66c-8.15,5.8-20.3,4.11-29.72,2.07
						c-13.48-2.91-26.67-7.75-39.83-11.8c-14.92-4.6-29.85-9.2-44.77-13.8c-7.58-2.34-15.16-4.67-22.74-7.01
						c-6.53-2.02-13.19-3.84-19.49-6.53c-6.54-2.8-13.12-6.79-16.47-13.11c-2.6-4.91-3.81-11.58,0.22-15.84
						c1.3-1.37,2.34-4.27,0.11-5.42C788.86,1128.49,785.88,1130.8,784.52,1132.24L784.52,1132.24z"/>
				</g>
			</g>
			<g class="st8">
				<path class="st9" d="M802.84,1175.32c7.6,20.53,24.03,38.17,44.51,47.78s44.75,11.08,65.77,3.99
					c-39.09-6.71-76.16-25.83-103.91-53.62"/>
				<g>
					<path class="st9" d="M798.26,1178.02c7.85,20.76,23.98,38.53,44.65,48.57c21.88,10.64,47.54,11.78,70.06,4.36
						c2.59-0.85,7.94-7.14,2.57-8.08c-38.57-6.76-74.72-25.53-102.2-52.86c-3.25-3.24-11.45,3.75-8.26,6.93
						c28.45,28.28,65.72,47.4,105.61,54.38c0.85-2.7,1.71-5.39,2.57-8.08c-20.83,6.87-44.65,4.9-64.62-5.14
						c-19.04-9.58-33.91-26.2-41.2-45.45C805.7,1168.1,796.76,1174.06,798.26,1178.02L798.26,1178.02z"/>
				</g>
			</g>
			<g class="st8">
				<path class="st9" d="M837.89,1226.31c-0.72,7.31,2.99,15,9.32,19.38c6.34,4.37,15.06,5.24,21.96,2.19
					c-11.39-4.84-20.84-13.97-25.78-24.92"/>
				<g>
					<path class="st9" d="M833.19,1228.07c-0.58,8.17,3.17,16.42,10.27,21.35c7.52,5.21,17.42,5.67,25.58,2.32
						c2.03-0.83,7.69-6.01,3.52-7.84c-10.89-4.78-19.68-13.13-24.59-23.62c-2.1-4.49-10.94,1.59-9.16,5.38
						c5.42,11.6,14.9,20.9,26.98,26.21c1.17-2.62,2.35-5.23,3.52-7.84c-13.39,5.5-27.68-6.01-26.72-19.46
						c0.18-2.53-2.77-2.71-4.57-2.1C835.68,1223.26,833.37,1225.59,833.19,1228.07L833.19,1228.07z"/>
				</g>
			</g>
		</g>
		<g id="Ebene_4_1_">
			<g>
				<g>
					<path class="st6" d="M838.63,986.65c43.06-29.94,85.5-60.7,126.53-93.11c41.15-32.51,80.92-66.67,118.2-103.22
						c36.83-36.11,72.07-74.43,102.07-116.07c15.03-20.86,29.11-44.79,29.4-71.22c0.23-19.95-8.51-41.87-25.65-54.52
						c-17.99-13.28-40.69-12.48-59.52-2.83c-22.2,11.38-35.11,33.14-42.25,55.68c-1.96,6.17-3.52,12.46-4.92,18.78
						c-1.31,5.92,7.06,2.76,8.55-0.36c10.26-21.64,21.18-44.82,17.9-69.57c-2.67-20.18-15.14-39.46-36.62-45.28
						c-21.39-5.79-44.17,1.04-61.16,13.04c-18.39,13-31.29,31.71-39.24,52.17c-17.79,45.77-8.91,96.93-2.88,144.73
						c6.43,50.94,13.9,101.79,20.25,152.75c6.32,50.71,11.67,101.58,13.44,152.5c0.21,6.16,0.37,12.33,0.48,18.49
						c0.1,5.45,9.47,0.5,9.41-3.52c-0.81-48.35-5.19-96.7-10.78-144.9c-5.64-48.61-12.59-97.11-19.07-145.64
						c-3.18-23.81-6.32-47.64-8.96-71.49c-2.69-24.23-4.38-48.76-1.03-72.82c5.33-38.33,28.37-83.35,72.85-88.56
						c10.03-1.18,20.52,0.22,29.62,4.99c8.99,4.71,15.76,12.64,19.77,21.57c9.47,21.14,4.16,43.57-4.2,63.59
						c-2.43,5.81-5.14,11.51-7.83,17.21c2.85-0.12,5.7-0.24,8.55-0.36c4.94-22.36,12.41-46.45,31.63-61.09
						c15.53-11.83,37.42-14.92,55.1-3.95c17.37,10.77,26.75,31.85,27.15,50.84c0.53,24.95-12.74,47.83-26.93,67.44
						c-28.63,39.57-61.93,76.28-96.86,110.78c-35.12,34.68-72.52,67.2-111.21,98.19c-38.58,30.89-78.47,60.28-119.04,88.79
						c-4.96,3.49-9.94,6.96-14.91,10.42c-1.74,1.21-4.41,3.54-3.5,5.97C833.81,988.34,837.13,987.69,838.63,986.65L838.63,986.65z"
						/>
				</g>
			</g>
			<g>
				<g>
					<path class="st6" d="M1275.38,526.75c25.39,37.69,33.35,85.06,21.28,127.32c-0.64,2.22,0.83,3.72,3.19,3.45
						c2.49-0.28,5.18-2.6,5.84-4.9c12.65-44.26,4.56-93.3-22.04-132.8C1281.27,516.28,1272.79,522.89,1275.38,526.75L1275.38,526.75
						z"/>
				</g>
			</g>
			<g>
				<g>
					<path class="st6" d="M815.38,551.13c-15.89,36.62-19.18,78.21-9.79,117.57c2.68,11.25,6.44,22.25,11.18,32.92
						c2,4.51,10.87-1.55,9.16-5.38c-16.22-36.45-20.48-77.25-11.82-115.26c2.44-10.73,5.91-21.2,10.29-31.3
						c0.95-2.2-1.06-3.7-3.19-3.45C818.47,546.54,816.36,548.86,815.38,551.13L815.38,551.13z"/>
				</g>
			</g>
		</g>
	</g>
	<g>
		<g>
			<path class="st10" d="M1141.07,988.45c5.93,14.88,11.85,29.77,17.78,44.65c2.5,6.27,5.45,11.41,11.49,14.94
				c5.36,3.14,13.26,4.46,19.26,2.52c11.73-3.79,22.64-17.74,17.46-30.75c-5.93-14.88-11.85-29.77-17.78-44.65
				c-2.5-6.27-5.45-11.41-11.49-14.94c-5.36-3.14-13.26-4.46-19.26-2.52C1146.81,961.49,1135.89,975.44,1141.07,988.45
				L1141.07,988.45z"/>
		</g>
	</g>
	<g>
		<g>
			<path class="st10" d="M1281.1,919.45c7.86,8.98,15.73,17.97,23.59,26.95c8.64,9.87,26.64,9.5,35.36,0
				c9.66-10.53,9.22-24.82,0-35.36c-7.86-8.98-15.73-17.97-23.59-26.95c-8.64-9.87-26.64-9.5-35.36,0
				C1271.44,894.62,1271.88,908.92,1281.1,919.45L1281.1,919.45z"/>
		</g>
	</g>
	<g>
		<g>
			<path class="st10" d="M1400.29,801.51c10.91,0.99,21.81,1.98,32.72,2.97c13.06,1.19,25.57-12.35,25-25
				c-0.65-14.56-11.01-23.73-25-25c-10.91-0.99-21.81-1.98-32.72-2.97c-13.06-1.19-25.57,12.35-25,25
				C1375.94,791.07,1386.3,800.23,1400.29,801.51L1400.29,801.51z"/>
		</g>
	</g>
	<g>
		<g>
			<path class="st10" d="M1441.87,589.03c0.56-0.54,5.22-5.21,2.22-2.15c-2.74,2.8,1.05-0.6,1.99-1.18
				c1.57-0.97,3.21-1.77,4.82-2.64c4.21-2.29-5.1,1.65-0.16,0.12c1.51-0.47,2.98-0.97,4.52-1.36c0.96-0.25,3.85-0.29,4.61-0.96
				c-4.06,0.49-4.71,0.61-1.97,0.34c0.52-0.03,1.05-0.06,1.57-0.09c2.1-0.09,4.19-0.03,6.28,0.11c13.08,0.82,25.58-12.09,25-25
				c-0.64-14.25-10.99-24.12-25-25c-21.89-1.37-43.51,7.47-59.24,22.47c-9.48,9.05-9.79,26.37,0,35.36
				C1416.69,598.37,1431.75,598.68,1441.87,589.03L1441.87,589.03z"/>
		</g>
	</g>
	<g>
		<g>
			<path class="st10" d="M1373.35,434.24c6.94-8.92,13.88-17.85,20.82-26.77c4.26-5.47,7.32-10.43,7.32-17.68
				c0-6.13-2.72-13.46-7.32-17.68c-8.96-8.22-26.78-11.02-35.36,0c-6.94,8.92-13.88,17.85-20.82,26.77
				c-4.26,5.47-7.32,10.43-7.32,17.68c0,6.13,2.72,13.46,7.32,17.68C1346.95,442.46,1364.77,445.26,1373.35,434.24L1373.35,434.24z"
				/>
		</g>
	</g>
	<g>
		<g>
			<path class="st10" d="M1230.61,301.07c4.99-12.88,9.98-25.76,14.96-38.64c4.73-12.22-5.21-27.96-17.46-30.75
				c-14.32-3.26-25.68,4.37-30.75,17.46c-4.99,12.88-9.98,25.76-14.96,38.64c-4.73,12.22,5.21,27.96,17.46,30.75
				C1214.18,321.8,1225.54,314.16,1230.61,301.07L1230.61,301.07z"/>
		</g>
	</g>
	<g>
		<g>
			<path class="st10" d="M990.08,290.92c-1.98-9.92-3.97-19.83-5.95-29.75c-2.57-12.85-18.54-21.41-30.75-17.46
				c-13.64,4.42-20.21,16.99-17.46,30.75c1.98,9.92,3.97,19.83,5.95,29.75c2.57,12.85,18.54,21.41,30.75,17.46
				C986.26,317.26,992.83,304.69,990.08,290.92L990.08,290.92z"/>
		</g>
	</g>
	<g>
		<g>
			<path class="st10" d="M788.25,344.45c-6.94-12.89-13.88-25.78-20.82-38.67c-6.21-11.53-23.13-16.11-34.2-8.97
				c-11.71,7.55-15.61,21.87-8.97,34.2c6.94,12.89,13.88,25.78,20.82,38.67c6.21,11.53,23.13,16.11,34.2,8.97
				C790.99,371.1,794.89,356.78,788.25,344.45L788.25,344.45z"/>
		</g>
	</g>
	<g>
		<g>
			<path class="st10" d="M704.91,403.9c-8.92-4.96-17.85-9.92-26.77-14.87c-11.43-6.35-27.8-3.14-34.2,8.97
				c-6.22,11.77-3.24,27.42,8.97,34.2c8.92,4.96,17.85,9.92,26.77,14.87c11.43,6.35,27.8,3.14,34.2-8.97
				C720.1,426.34,717.12,410.68,704.91,403.9L704.91,403.9z"/>
		</g>
	</g>
</g>
</svg>
