<?xml version="1.0" encoding="utf-8"?>
<!-- Generator: Adobe Adobe Illustrator 24.2.0, SVG Export Plug-In . SVG Version: 6.00 Build 0)  -->
<svg version="1.1" xmlns="http://www.w3.org/2000/svg" xmlns:xlink="http://www.w3.org/1999/xlink" x="0px" y="0px"
	 viewBox="0 0 1700.79 1700.79" style="enable-background:new 0 0 1700.79 1700.79;" xml:space="preserve">
<style type="text/css">
	.st0{fill:#6DB571;}
	.st1{fill:#99C154;stroke:#000000;stroke-width:1.1206;stroke-miterlimit:10;}
	.st2{fill:#99C154;}
	.st3{opacity:0.149;}
	.st4{fill:#D15238;}
	.st5{fill:#D15239;}
	.st6{fill:#FFFFFF;}
</style>
<g id="Ebene_7">
</g>
<g id="Ebene_3">
</g>
<g id="Ebene_4">
</g>
<g id="Ebene_5">
	<g>
		<g>
			<path class="st0" d="M544.25,1433.43c149.3-32.88,303.24-44.58,455.8-34.66c-135.7-286.35-223.21-592.68-310.11-897.41
				c-51.1,151.4-62.04,300-95.29,456.29s-56.12,295.04-84.6,477.94"/>
			<g>
				<path class="st0" d="M546.24,1440.66c115.94-25.46,234.54-38.16,353.25-37.8c33.54,0.1,67.08,1.26,100.55,3.41
					c6.14,0.4,8.72-6.55,6.48-11.29c-52.79-111.49-98.38-226.24-139.37-342.55C826.09,935.9,789.59,817.82,754.76,699.3
					c-19.55-66.54-38.58-133.23-57.6-199.92c-2.1-7.37-12.15-6.88-14.46,0c-20.62,61.29-35.33,124.3-47.33,187.79
					c-11.96,63.26-21.47,126.95-32.79,190.33c-10.69,59.84-24.05,119.15-35.66,178.82c-10.9,56.02-20.96,112.2-30.49,168.47
					c-10.35,61.11-20.09,122.31-29.67,183.54c-1.32,8.43-2.63,16.86-3.95,25.28c-0.63,4.03,1.03,8.02,5.24,9.23
					c3.55,1.02,8.6-1.24,9.23-5.24c9.7-62.3,19.52-124.58,29.91-186.76c9.49-56.83,19.47-113.58,30.28-170.18
					c11.21-58.7,24.34-117.01,35.3-175.75c11.79-63.15,21.29-126.7,32.67-189.92c11.39-63.29,24.85-126.29,43.98-187.74
					c2.49-7.99,5.08-15.95,7.74-23.88c-4.82,0-9.64,0-14.46,0c34.07,119.45,68.16,238.92,105.25,357.48
					c36.84,117.79,76.66,234.71,122.26,349.42c25.81,64.93,53.46,129.14,83.37,192.3c2.16-3.76,4.32-7.52,6.48-11.29
					c-119.8-7.72-240.3-2.16-358.91,16.35c-33.14,5.17-66.12,11.38-98.88,18.58C532.83,1428.27,536.82,1442.73,546.24,1440.66
					L546.24,1440.66z"/>
			</g>
		</g>
		<g>
			<g>
				<path d="M680.09,487.22c8.17,88.01,15.78,176.08,22.02,264.25c4.73,66.85,8.6,133.77,11.38,200.73
					c2.53,60.86,4.16,121.74,5.5,182.64c1.55,70.3,2.81,140.6,4.4,210.9c2.15,95.31,4.82,190.61,8.05,285.89
					c0.48,14.27,0.98,28.54,1.48,42.81c0.34,9.6,15.3,9.64,14.95,0c-3.52-99.41-6.48-198.84-8.83-298.29
					c-1.72-72.74-3.07-145.49-4.6-218.24c-1.29-61.22-2.78-122.44-5.12-183.63c-2.49-65.2-5.99-130.36-10.38-195.46
					c-5.7-84.72-12.77-169.34-20.44-253.89c-1.14-12.57-2.3-25.14-3.46-37.7C694.16,477.72,679.2,477.63,680.09,487.22
					L680.09,487.22z"/>
			</g>
		</g>
		<g>
			<g>
				<path d="M500.07,1443.1c83.91-5.7,167.8-11.71,251.61-18.69c50.34-4.19,100.65-8.79,151.01-12.82
					c34.94-2.79,69.91-5.33,104.89-7.7c4.29-0.29,9.24-4.65,7.23-9.49c-32.08-77.44-63.41-155.21-93.33-233.51
					c-23.26-60.86-45.65-122.05-66.88-183.65c-17.86-51.82-34.87-103.93-51.3-156.22c-15.82-50.32-31.15-100.79-46.61-151.22
					c-17.27-56.32-34.75-112.58-52.8-168.65c-2.52-7.81-5.04-15.62-7.58-23.42c-2.13-6.56-12.92-7.69-14.46,0
					c-24.93,123.95-49.36,248.01-73.69,372.08c-24.33,124.06-48.55,248.13-73.04,372.16c-13.72,69.48-27.53,138.95-41.5,208.39
					c-1.9,9.43,12.56,13.46,14.46,3.99c24.93-123.95,49.36-248.01,73.69-372.08c24.33-124.06,48.55-248.13,73.04-372.16
					c13.72-69.48,27.53-138.95,41.5-208.39c-4.82,0-9.64,0-14.46,0c18.62,57.31,36.63,114.81,54.34,172.41
					c15.6,50.72,30.99,101.51,46.79,152.17c16.11,51.65,32.7,103.14,50.12,154.36c20.42,60.03,41.93,119.68,64.34,178.99
					c28.63,75.81,58.64,151.1,89.43,226.05c4.48,10.9,8.97,21.79,13.49,32.68c2.41-3.16,4.82-6.33,7.23-9.49
					c-56.73,3.86-113.41,8.26-170.06,13.16c-58,5.01-116,9.96-174.04,14.38c-54.45,4.14-108.92,7.98-163.4,11.68
					C490.49,1428.75,490.42,1443.76,500.07,1443.1L500.07,1443.1z"/>
			</g>
		</g>
		<ellipse class="st1" cx="423.38" cy="895.93" rx="350" ry="360"/>
		<g>
			<g>
				<path class="st2" d="M349.58,1633.39c7.72,15.91,15.45,31.82,23.17,47.73c3.45,7.1,12.62,10.53,19.93,9.55
					c7.79-1.05,14.48-6.62,16.63-14.33c4.6-16.55,9.21-33.1,13.81-49.65c-12.86,0-25.71,0-38.57,0
					c3.76,18.89,11.94,37.22,23.71,52.48c5.07,6.58,11.14,10.73,19.93,9.55c8.25-1.11,13.85-6.67,16.63-14.33
					c5.57-15.37,11.15-30.74,16.72-46.11c-12.18,1.59-24.37,3.19-36.55,4.78c3.66,4.99,6.37,10.26,9.34,15.65
					c1.48,2.68-1.49-4.22,0.36,0.82c0.5,1.36,1,2.72,1.45,4.1c1,3.04,1.8,6.11,2.49,9.23c2.27,10.23,14.69,17.18,24.6,13.97
					c10.74-3.48,16.4-13.65,13.97-24.6c-3.11-14.06-9.15-27.73-17.68-39.35c-4.88-6.66-11.32-10.7-19.93-9.55
					c-8.25,1.11-13.85,6.67-16.63,14.33c-5.57,15.37-11.15,30.74-16.72,46.11c12.18-1.59,24.37-3.19,36.56-4.78
					c-5.28-6.85-9.44-14.1-13.33-21.79c-0.93-2.1-0.94-2.07-0.03,0.09c-0.43-1.05-0.85-2.11-1.25-3.18c-0.6-1.6-1.16-3.21-1.68-4.83
					c-1.4-4.34-2.5-8.75-3.39-13.22c-1.64-8.22-11.02-15.05-19.29-14.68c-8.84,0.4-16.85,5.93-19.29,14.68
					c-4.6,16.55-9.21,33.1-13.81,49.65c12.18-1.59,24.37-3.19,36.55-4.78c-7.72-15.91-15.45-31.82-23.17-47.73
					c-4.58-9.44-18.77-12.72-27.36-7.18C347.08,1612.27,344.68,1623.3,349.58,1633.39L349.58,1633.39z"/>
			</g>
		</g>
		<g>
			<g>
				<path class="st2" d="M480.02,1631.29c1.35,11.12,2.7,22.24,4.04,33.36c0.88,7.25,3.26,13.38,9.91,17.27
					c5.58,3.26,14.72,4.21,20.19,0c5.69-4.38,10.68-9.02,13.9-15.59c2.54-5.18,4.38-10.61,6.16-16.07c0.16-0.49,1.28-3.05,1.13-3.34
					c0.31,0.56-1.86,3.6-0.32,0.84c0.08-0.15,2.16-3.83,2.24-3.76c0.08,0.07-2.57,3.18-0.4,0.72c2.82-3.19-2.23,1.29-0.32,0.16
					c1.32-0.75,0.72-0.53-1.8,0.68c-0.92,0.09-1.84,0.17-2.77,0.26c3.71-0.15-3.07-0.72-1.2-0.2c2.03,0.57-4.79-2.38-1.89-0.67
					c-0.18-0.11-3.99-3.18-2.04-1.43c1.95,1.76-1.41-2.73-1.24-1.53c0.05,0.34,0.79,1.83,1.12,2.08c-0.74-0.57-1.73-4.9-0.71-1.53
					c0.99,3.29,1.91,6.58,2.82,9.9c2.52,9.18,6.28,19.08,13.85,25.32c11.63,9.59,28.62,6.44,33.43-8.83
					c2.72-8.64,5.45-17.29,8.17-25.93c-13.1-1.77-26.19-3.54-39.29-5.32c1.89,15.18,7.48,29.08,19.16,39.47
					c7.81,6.95,20.69,8.28,28.28,0c6.98-7.6,8.35-20.86,0-28.28c-1.25-1.11-3.7-2.79-4.34-4.37c1.52,2.04,1.64,2.16,0.36,0.34
					c-0.56-0.86-1.1-1.74-1.59-2.64c-0.5-0.9-0.96-1.82-1.38-2.76c1.01,2.41,1.13,2.57,0.36,0.46c-0.24-1.1-1.55-7.77-0.86-2.22
					c-1.24-10-6.67-18.21-17.34-19.64c-9.99-1.34-18.92,4.74-21.94,14.33c-2.72,8.64-5.45,17.29-8.17,25.93
					c11.14-2.94,22.29-5.88,33.43-8.83c-0.42-0.35-1.74-1.9-2.2-2.07c1.02,0.36,2.58,4.25,1.05,1.17c-0.38-0.76-1.84-4.24-0.64-0.87
					c1.19,3.34,0.1,0.14-0.17-0.61c-1.33-3.82-2.2-7.78-3.31-11.66c-3.56-12.39-10.19-23.49-22.96-27.91
					c-16.4-5.68-32.16,3.73-40.8,17.49c-3.32,5.29-5.22,11.41-7.15,17.3c-0.37,1.13-0.8,2.25-1.14,3.38
					c-1.24,4.19,1.75-3.09-0.11,0.42c-0.18,0.33-2.08,3.27-2.04,3.56c0.49-0.64,0.98-1.28,1.47-1.92c-1.54,1.49-1.2,1.35,1.01-0.4
					c10.03,5.76,20.06,11.51,30.09,17.27c-1.35-11.12-2.7-22.24-4.04-33.36c-1.25-10.35-8.3-20.52-20-20
					C490.27,1611.72,478.68,1620.16,480.02,1631.29L480.02,1631.29z"/>
			</g>
		</g>
		<g>
			<g>
				<path class="st2" d="M590.61,1626.41c4.64,15.43,9.27,30.86,13.91,46.29c2.88,9.58,12.04,15.66,21.94,14.33
					c8.92-1.2,18.46-9.75,17.34-19.64c-0.29-2.59-0.49-5.17-0.51-7.78c0-0.67-0.26-7.51,0.4-7.78c-0.25,0.11-0.71,4.01-0.06,0.68
					c0.25-1.28,0.49-2.55,0.79-3.82c0.59-2.54,1.32-5.03,2.19-7.49c0.48-1.36,0.56-4.14-0.01-0.3c0.13-0.89,0.92-2.02,1.32-2.83
					c1.15-2.33,2.43-4.6,3.83-6.79c0.7-1.1,1.49-2.13,2.19-3.22c1.52-2.36-3.04,3.41,0.24-0.25c1.74-1.94,3.5-3.83,5.39-5.63
					c-11.14-2.94-22.29-5.88-33.43-8.83c3.87,18.28,7.75,36.57,11.62,54.85c1.74,8.21,10.95,15.06,19.29,14.68
					c8.96-0.4,16.67-5.95,19.29-14.68c5.18-17.3,10.36-34.6,15.53-51.89c3-10.02-3.6-22.24-13.97-24.6
					c-10.77-2.45-21.39,3.24-24.6,13.97c-5.18,17.3-10.36,34.6-15.53,51.89c12.86,0,25.71,0,38.57,0
					c-3.87-18.28-7.75-36.57-11.62-54.85c-3.23-15.26-23.11-18.63-33.43-8.83c-19.49,18.51-30.52,46.64-27.49,73.5
					c13.1-1.77,26.19-3.54,39.29-5.32c-4.64-15.43-9.27-30.86-13.91-46.29c-3.01-10.01-14.16-17.35-24.6-13.97
					C594.46,1605.08,587.39,1615.68,590.61,1626.41L590.61,1626.41z"/>
			</g>
		</g>
		<g>
			<g>
				<path class="st2" d="M689.7,1652.7c3.59,8.67,7.17,17.34,10.76,26c3.85,9.32,11.26,15.76,21.94,14.33
					c9.54-1.28,17.6-9.64,17.34-19.64c-0.04-1.64-0.06-3.28,0.02-4.92c0.03-0.6,0.6-5.14,0.13-2.23c-0.47,2.93,0.38-1.62,0.51-2.18
					c0.37-1.6,0.81-3.18,1.31-4.74c0.17-0.51,1.8-4.77,0.73-2.21c-1.08,2.55,0.82-1.59,1.08-2.07c1.54-2.91,3.36-5.63,5.35-8.24
					c-11.51,0-23.03,0-34.54,0c1.41,2.53,2.71,5.1,3.92,7.73c-1.19-2.59-0.31-0.75,0.28,0.84c0.5,1.36,0.98,2.72,1.41,4.1
					c0.79,2.48,1.46,5,2.03,7.53c0.32,1.41,0.55,2.84,0.86,4.25c0.92,4.32-0.29-3.24,0.22,1.56c0.87,8.17,4.33,14.92,12.29,18.28
					c6.85,2.89,16.73,1.94,21.85-4.14c10.61-12.59,21.23-25.19,31.84-37.78c-11.14-2.94-22.29-5.88-33.43-8.83
					c2.45,10.19,4.9,20.39,7.35,30.58c3.35,13.93,23.66,20.26,33.43,8.83c10.2-11.94,20.39-23.87,30.59-35.81
					c6.79-7.95,8.39-20.59,0-28.28c-7.47-6.86-21.03-8.49-28.28,0c-10.2,11.94-20.39,23.87-30.59,35.81
					c11.14,2.94,22.29,5.88,33.43,8.83c-2.45-10.19-4.9-20.39-7.35-30.58c-3.33-13.86-23.72-20.35-33.43-8.83
					c-10.61,12.59-21.23,25.19-31.84,37.78c11.38,4.71,22.76,9.43,34.14,14.14c-1.75-16.44-6.1-31.69-14.18-46.21
					c-3.41-6.12-10.34-9.91-17.27-9.91c-7.72,0-12.85,4.1-17.27,9.91c-10.03,13.18-15.01,30.31-14.59,46.79
					c13.1-1.77,26.19-3.54,39.29-5.32c-3.59-8.67-7.17-17.34-10.76-26c-2.08-5.03-4.3-9.09-9.19-11.95
					c-4.29-2.51-10.61-3.57-15.41-2.02C694.4,1631.1,685.42,1642.35,689.7,1652.7L689.7,1652.7z"/>
			</g>
		</g>
		<g>
			<g>
				<path d="M678.44,805.73c-19.1-41.51-42.84-81.02-72.66-115.75c-24.55-28.58-53.48-53.71-86.18-72.57
					c-28.88-16.65-60.71-28.37-93.62-33.77c-31.91-5.23-64.31-4.84-96.14,0.76c-31.52,5.54-62.05,16.35-90.43,31.08
					c-28.78,14.94-55.4,34.17-78.93,56.45c-24.01,22.74-44.92,48.93-61.79,77.37c-17.28,29.13-30.43,60.87-38.58,93.76
					c-8.53,34.42-11.71,70.23-9.3,105.61c2.64,38.7,11.63,76.81,26.02,112.81c15.4,38.53,36.11,76.41,62.46,108.59
					c18.53,22.63,41.81,41.31,67.36,55.45c26.46,14.65,55.44,24.71,85.05,30.68c30.91,6.22,62.63,8.31,94.1,6.69
					c32.29-1.67,64.46-7.06,95.52-16.03c30.96-8.94,61.04-21.45,88.97-37.56c27.3-15.74,52.77-35.09,74.56-57.89
					c21.53-22.52,39.63-48.51,52.31-77.02c13.49-30.32,21.01-62.83,22.44-95.99c1.62-37.7-4.6-75.6-15.89-111.51
					c-6.47-20.58-14.63-40.61-23.9-60.08c-4.15-8.71-17.08-1.11-12.95,7.57c17.17,36.06,30.25,74.59,35.5,114.3
					c4.37,33.05,3.19,66.51-4.71,98.51c-7.3,29.59-19.73,56.59-37.23,81.75c-16.5,23.74-38.63,46.12-61.66,63.56
					c-24.25,18.36-51.86,33.89-79.4,45.24c-29.09,11.99-59.6,20.54-90.66,25.6c-29.38,4.79-60.87,6.3-91.33,4.06
					c-28.9-2.13-57.96-7.85-85.93-17.96c-25.42-9.18-51.75-23.5-72.46-40.72c-26.54-22.07-45.04-49.09-62.17-78.94
					c-19.87-34.62-35.04-71.87-43.7-110.89c-7.65-34.45-9.93-69.99-6.59-105.14c3.1-32.51,11.53-65.45,24.25-95.67
					c12.24-29.09,29.19-57.32,48.95-81.68c19.76-24.36,43-46.37,68.28-64.22c25.38-17.93,52.98-32.31,81.97-42.1
					c29.22-9.87,58.5-15.08,89.02-15.25c31.31-0.17,61.45,5.04,91.15,15.85c31.12,11.33,60.52,29.09,85.94,50.76
					c30.63,26.1,56.18,57.6,77.35,91.73c11.98,19.32,22.57,39.46,32.07,60.1C669.52,822.06,682.45,814.44,678.44,805.73
					L678.44,805.73z"/>
			</g>
		</g>
		<g>
			<g>
				<path d="M709.51,661.62c-41.79-53.65-106.19-87.47-171.5-102.99c-32.84-7.81-67.06-11.38-100.77-8.89
					c-36.48,2.7-72.03,12.03-105.46,26.78c-65.24,28.78-120.42,78.7-155.88,140.51c-34.56,60.24-51.28,131.02-46.59,200.36
					c4.58,67.8,30.13,131.9,73.14,184.46c41.71,50.96,98.64,89.83,161.71,109.05c63.71,19.41,132.48,16.69,194.94-6.11
					c62.1-22.67,117.42-63.81,154.85-118.54c36.41-53.22,54.32-118.7,59.25-182.46c5.17-66.9-4.86-136.2-34.62-196.74
					c-7.13-14.5-15.46-28.37-24.93-41.47c-2.39-3.31-6.5-4.83-10.26-2.69c-3.26,1.86-5.06,6.99-2.69,10.26
					c37.89,52.43,55.87,116.68,58.44,180.84c2.48,62.08-8.29,126.1-34.42,182.69c-26.6,57.6-71.97,104.21-127.52,134.54
					c-55.39,30.24-120.31,43.88-183.07,35.38c-62.36-8.44-121.25-37.72-167.57-80.01c-47.29-43.17-81.44-99.61-95.46-162.24
					c-14.52-64.86-7.74-133.69,16.42-195.41c24.65-62.99,68.59-117.5,125.37-154.34c57.98-37.62,126.55-55.76,195.5-49.18
					c64.04,6.12,129.29,30.57,178.24,72.92c11.82,10.23,22.66,21.54,32.27,33.88c2.51,3.22,7.97,2.58,10.61,0
					C712.7,669.11,711.98,664.8,709.51,661.62L709.51,661.62z"/>
			</g>
		</g>
		<g>
			<g>
				<path d="M423.41,895.4c1.64,93.41-0.65,186.81-4.24,280.15c-3.74,97.09-8.48,194.13-11.21,291.26
					c-1.76,62.53-2.73,125.08-2.74,187.63c0,9.65,15,9.67,15,0c0.02-106.82,3.08-213.59,7.4-320.32
					c3.78-93.32,8.33-186.61,10.33-279.99c1.13-52.9,1.4-105.82,0.47-158.73C438.24,885.76,423.24,885.73,423.41,895.4L423.41,895.4
					z"/>
			</g>
		</g>
		<g>
			<g>
				<path d="M438.14,1188.41c24.82-74.59,56.32-146.51,86.3-219.11c9.86-23.87,19.51-47.83,28.88-71.91
					c1.48-3.8-1.63-8.19-5.24-9.23c-4.23-1.21-7.76,1.48-9.23,5.24c-29.61,76.07-63.36,150.48-92.32,226.8
					c-8.06,21.25-15.68,42.65-22.86,64.22C420.62,1193.6,435.11,1197.54,438.14,1188.41L438.14,1188.41z"/>
			</g>
		</g>
	</g>
	<g>
		<g id="Ebene_2_Kopie">
			<g class="st3">
				<path d="M1032.1,1006.98c34.26,12.17,56.8,43.27,53.3,73.53c-3.5,30.26-32.78,57.4-69.24,64.16
					c-36.45,6.76-77.3-7.38-96.59-33.42c-19.29-26.04-15.55-62.01,8.84-85.05c24.39-23.04,67.58-31.4,102.12-19.76"/>
				<g>
					<path d="M1029.08,1011.23c32.17,11.65,54.02,39.66,52.22,68.4c-1.7,27.18-26.89,51.62-58.59,59.42
						c-33.43,8.24-71.98-2.43-93.49-24.58c-21.64-22.28-23.42-55.22-4.69-79.12c21.06-26.88,67.47-36.38,102.98-24.67
						c4.69,1.55,10.43-7.05,6.04-8.5c-35.91-11.85-78.69-3.53-105.05,19.37c-26.92,23.4-33.34,60.69-15.53,89.21
						c17.37,27.81,57.76,43.62,95.36,39.33c38.39-4.38,69.91-30.39,79.17-60.41c10.62-34.4-12.64-72.56-52.39-86.96
						C1030.5,1001.06,1024.69,1009.64,1029.08,1011.23L1029.08,1011.23z"/>
				</g>
			</g>
			<g class="st3">
				<path d="M891.9,445.53c2.9-28.15,11.24-56.66,30.92-79.94c19.69-23.28,52.19-40.62,86.94-40.44
					c50.37,0.26,92.05,38.04,99.81,78.51c7.76,40.47-11.82,81.51-39.73,115.6c-27.91,34.09-64.04,63.16-95,95.47
					c-50.43,52.64-87.36,115.17-96,181.53c-5.67,43.59,2.32,90.73,36.71,124.49c34.39,33.76,100.1,48.3,144.43,23.36
					c28.13-15.82,42.68-43.66,48.15-71.11c5.47-27.45,3.26-55.5,5.46-83.26c4.53-57.25,28.26-113.42,67.95-160.85
					c49.15-58.74,122.67-105.22,152.81-171.9c31.91-70.59,6.17-153.81-55.12-210.13c-61.28-56.32-153.73-86.79-246.09-90.76
					c-101.5-4.37-205.87,22.72-280.81,78.56s-117.62,140.77-105.3,222.8c4.85,32.34,18.89,65.15,48.29,87.27
					c38.73,29.14,102.13,33.68,146.54,10.51s41.86-63.14,49.91-108.78"/>
				<g>
					<path d="M896.25,443.57c2.66-25.04,9.63-50.44,26.09-72.01c14.75-19.33,38.38-34.86,65.9-40.09
						c54.27-10.33,102.56,26.12,115.08,66.89c15.65,50.94-18.5,102-55.81,140.87c-20.19,21.04-42.51,40.65-63.35,61.25
						c-19.86,19.63-38.04,40.38-53.65,62.43c-30.51,43.12-51.61,91.17-56.69,140.94c-4.56,44.66,5.46,96.26,47.11,128.58
						c34.96,27.12,92.68,39.37,135.78,17.51c23.62-11.98,39.26-31.89,48.08-52.98c10.39-24.88,11.31-51.29,11.87-77.31
						c0.58-26.8,2.52-53.16,9.66-79.41c6.79-24.93,17.27-49.29,31.25-72.17c13.59-22.26,30.5-42.81,49.57-62.19
						c18.04-18.33,37.45-35.71,56.16-53.58c36.69-35.03,70.91-73.16,83.47-118.88c12.15-44.25,4.3-91.43-18.39-132.61
						c-23.44-42.53-62.4-77.7-110.54-102.79c-48.62-25.33-105.21-40.29-162.51-45.14c-58.11-4.92-117.73,0.54-173.02,15.91
						c-55.09,15.31-105.97,40.47-146.47,74.61c-39.95,33.69-69.07,75.72-84.17,120.85c-14.75,44.06-16.62,93.86,2.97,137.17
						c9.59,21.2,25.14,41.01,47.91,54.38c20.99,12.32,47.18,18.67,72.99,18.69c25.87,0.02,51.78-6.16,72.66-18.74
						c19.65-11.84,30.93-29.4,36.78-48.36c6.23-20.2,7.42-41.24,11-61.81c1.11-6.36-7.73-2.45-8.47,1.75
						c-3.61,20.73-4.78,41.96-11.16,62.31c-5.89,18.79-18.43,34.18-39.38,43.91c-45.28,21.03-107.4,13.81-143.39-16.91
						c-39.1-33.38-47.75-84.67-43.35-128.86c4.52-45.43,25.14-89.89,57.37-127.09c33.04-38.15,78.05-68.21,129.55-88.63
						c52.08-20.64,110.1-31.37,167.98-31.92c56.98-0.54,114.29,8.75,166.06,28.27c51.19,19.31,96.89,48.8,127.99,87.36
						c30.22,37.49,46.8,82.65,44.35,127.57c-1.22,22.39-7.58,44.35-18.71,64.84c-11.22,20.67-26.94,39.54-44.01,57.27
						c-34.99,36.35-76.02,68.78-107.04,107.64c-33.3,41.7-54.81,89.8-62.28,139.15c-4.06,26.88-2.55,53.92-4.76,80.88
						c-1.92,23.56-7.7,47.68-24.03,67.66c-14.29,17.5-36.61,28.72-62.31,30.97c-24.51,2.14-49.71-3.51-70.69-13.72
						c-48.82-23.75-67.39-71.4-68.15-115.4c-0.84-48.4,16.85-96.8,43.78-139.63c13.84-22,30.24-42.91,48.7-62.54
						c19.53-20.76,41.28-40.03,61.9-60.07c39.47-38.36,76.44-82.8,79.52-134.42c1.32-22.06-4.69-43.87-19.04-62.72
						c-12.95-17.03-32.49-31.6-55.92-38.35c-54.4-15.67-108.09,15.42-131.61,54.24c-12.94,21.36-18.85,44.76-21.35,68.35
						c-0.23,2.21,2.36,2.91,4.43,2.08C894.69,448.5,896.01,445.84,896.25,443.57L896.25,443.57z"/>
				</g>
			</g>
			<g class="st3">
				<path d="M976.45,1073.78c-13.59-17.55-3.4-44.12,20.07-52.28"/>
				<g>
					<path d="M980.19,1070.07c-11.59-15.42-4.08-37.13,16.4-44.52c4.26-1.54,6.39-10.46-0.17-8.1c-26.62,9.59-39,39.69-23.73,60.03
						C975.4,1081.08,982.65,1073.36,980.19,1070.07L980.19,1070.07z"/>
				</g>
			</g>
			<g class="st3">
				<path d="M970.15,1047.23c1.88-0.26,3.39,1.96,2.12,3.12c-2.34-1.05-2.48-4.24-0.23-5.43"/>
				<g>
					<path d="M968.08,1051.72c0.61-0.04,0.56,0.16,0.18-0.1c0.56,0.37-0.24-0.35,0.06-0.04c0.26,0.27,0.21,0.48,0.08-0.06
						c0.03,0.08,0.06,0.15,0.09,0.23c-0.35-1.39,0.18-2.71,1.58-3.94c1.75-0.57,3.49-1.13,5.24-1.7c-0.18-0.09-0.34-0.18-0.5-0.28
						c0.64,0.41,0.14,0.08,0.04-0.09c-0.23-0.43,0.24,0.57,0.05,0.12c-0.29-0.67-0.04,0.13-0.07,0.12c-0.09-0.03,0.04-0.45-0.02-0.5
						c0.06,0.05-0.14,0.98,0,0.35c-0.14,0.65-0.47,1.24-0.93,1.79c-0.13,0.15-1.26,1.09-0.64,0.73c2.12-1.24,3.77-4.25,3-6.34
						c-0.86-2.32-3.62-1.51-5.38-0.49c-4.52,2.63-7.31,10.23-1.6,13.09c1.76,0.88,4.23-0.62,5.24-1.7c1.91-2.05,3.32-4.77,2.21-7.35
						c-0.64-1.51-2.37-2.96-4.48-2.81c-2.8,0.19-5.01,2.07-5.9,4.2c-0.43,1.01-0.76,2.16-0.36,3.22
						C966.23,1050.87,967.02,1051.8,968.08,1051.72L968.08,1051.72z"/>
				</g>
			</g>
		</g>
		<g id="Ebene_2_1_">
			<g>
				<path class="st4" d="M1054.39,988.6c34.26,12.17,56.8,43.27,53.3,73.53s-32.78,57.4-69.24,64.16
					c-36.45,6.76-77.3-7.38-96.59-33.42c-19.29-26.04-15.55-62.01,8.84-85.05c24.39-23.04,67.58-31.4,102.12-19.76"/>
				<g>
					<path d="M1051.38,992.85c32.17,11.65,54.02,39.66,52.22,68.4c-1.7,27.18-26.89,51.62-58.59,59.42
						c-33.43,8.24-71.98-2.43-93.49-24.58c-21.64-22.28-23.42-55.22-4.69-79.12c21.06-26.88,67.47-36.38,102.98-24.67
						c4.69,1.55,10.43-7.05,6.04-8.5c-35.91-11.85-78.69-3.53-105.05,19.37c-26.92,23.4-33.34,60.69-15.53,89.21
						c17.37,27.81,57.76,43.62,95.36,39.33c38.39-4.38,69.91-30.39,79.17-60.41c10.62-34.4-12.64-72.56-52.39-86.96
						C1052.8,982.68,1046.98,991.26,1051.38,992.85L1051.38,992.85z"/>
				</g>
			</g>
			<g>
				<path class="st5" d="M929.71,425.2c2.9-28.15,11.24-56.66,30.92-79.94c19.69-23.28,52.19-40.62,86.94-40.44
					c50.37,0.26,92.05,38.04,99.81,78.51c7.76,40.47-11.82,81.51-39.73,115.6c-27.91,34.09-64.04,63.16-95,95.47
					c-50.43,52.64-87.36,115.17-96,181.53c-5.67,43.59,2.32,90.73,36.71,124.49s100.1,48.3,144.43,23.36
					c28.13-15.82,42.68-43.66,48.15-71.11c5.47-27.45,3.26-55.5,5.46-83.26c4.53-57.25,28.26-113.42,67.95-160.85
					c49.15-58.74,122.67-105.22,152.81-171.9c31.91-70.59,6.17-153.81-55.12-210.13c-61.28-56.32-153.73-86.79-246.09-90.76
					c-101.48-4.38-205.85,22.71-280.78,78.55S672.51,355.09,684.82,437.13c4.85,32.34,18.89,65.15,48.29,87.27
					c38.73,29.14,102.13,33.68,146.54,10.51c44.41-23.17,41.86-63.14,49.91-108.78"/>
				<g>
					<path d="M934.06,423.24c2.66-25.04,9.63-50.44,26.09-72.01c14.75-19.33,38.38-34.86,65.9-40.09
						c54.27-10.33,102.56,26.12,115.08,66.89c15.65,50.94-18.5,102-55.81,140.87c-20.19,21.04-42.51,40.65-63.35,61.25
						c-19.86,19.63-38.04,40.38-53.65,62.43c-30.51,43.12-51.61,91.17-56.69,140.94c-4.56,44.66,5.46,96.26,47.11,128.58
						c34.96,27.12,92.68,39.37,135.78,17.51c23.62-11.98,39.26-31.89,48.08-52.98c10.39-24.88,11.31-51.29,11.87-77.31
						c0.58-26.8,2.52-53.16,9.66-79.41c6.79-24.93,17.27-49.29,31.25-72.17c13.59-22.26,30.5-42.81,49.57-62.19
						c18.04-18.33,37.45-35.71,56.16-53.58c36.69-35.03,70.91-73.16,83.47-118.88c12.15-44.25,4.3-91.43-18.39-132.61
						c-23.44-42.53-62.4-77.7-110.54-102.79c-48.62-25.33-105.21-40.29-162.51-45.14c-58.11-4.92-117.73,0.54-173.02,15.91
						c-55.09,15.31-105.97,40.47-146.47,74.61c-39.95,33.69-69.07,75.72-84.17,120.85c-14.75,44.06-16.62,93.86,2.97,137.17
						c9.59,21.2,25.14,41.01,47.91,54.38c20.99,12.32,47.18,18.67,72.99,18.69c25.87,0.02,51.78-6.16,72.66-18.74
						c19.65-11.84,30.93-29.4,36.78-48.36c6.23-20.2,7.42-41.24,11-61.81c1.11-6.36-7.73-2.45-8.47,1.75
						c-3.61,20.73-4.78,41.96-11.16,62.31c-5.89,18.79-18.43,34.18-39.38,43.91c-45.28,21.03-107.4,13.81-143.39-16.91
						c-39.1-33.38-47.75-84.67-43.35-128.86c4.52-45.43,25.14-89.89,57.37-127.09c33.04-38.15,78.05-68.21,129.55-88.63
						c52.08-20.64,110.1-31.37,167.98-31.92c56.98-0.54,114.29,8.75,166.06,28.27c51.19,19.31,96.89,48.8,127.99,87.36
						c30.22,37.49,46.8,82.65,44.35,127.57c-1.22,22.39-7.58,44.35-18.71,64.84c-11.22,20.67-26.94,39.54-44.01,57.27
						c-34.99,36.35-76.02,68.78-107.04,107.64c-33.3,41.7-54.81,89.8-62.28,139.15c-4.06,26.88-2.55,53.92-4.76,80.88
						c-1.92,23.56-7.7,47.68-24.03,67.66c-14.29,17.5-36.61,28.72-62.31,30.97c-24.51,2.14-49.71-3.51-70.69-13.72
						c-48.82-23.75-67.39-71.4-68.15-115.4c-0.84-48.4,16.85-96.8,43.78-139.63c13.84-22,30.24-42.91,48.7-62.54
						c19.53-20.76,41.28-40.03,61.9-60.07c39.47-38.36,76.44-82.8,79.52-134.42c1.32-22.06-4.69-43.87-19.04-62.72
						c-12.95-17.03-32.49-31.6-55.92-38.35c-54.4-15.67-108.09,15.42-131.61,54.24c-12.94,21.36-18.85,44.76-21.35,68.35
						c-0.23,2.21,2.36,2.91,4.43,2.08C932.5,428.18,933.82,425.51,934.06,423.24L934.06,423.24z"/>
				</g>
			</g>
			<g>
				<g>
					<path d="M980.19,1070.07c-11.59-15.42-4.08-37.13,16.4-44.52c4.26-1.54,6.39-10.46-0.17-8.1c-26.62,9.59-39,39.69-23.73,60.03
						C975.4,1081.08,982.65,1073.36,980.19,1070.07L980.19,1070.07z"/>
				</g>
			</g>
			<g>
				<path class="st4" d="M1023.18,1015.74c1.88-0.26,3.39,1.96,2.12,3.12c-2.34-1.05-2.48-4.24-0.23-5.43"/>
				<g>
					<path d="M1021.1,1020.23c0.61-0.04,0.56,0.16,0.18-0.1c0.56,0.37-0.24-0.35,0.06-0.04c0.26,0.27,0.21,0.48,0.08-0.06
						c0.03,0.08,0.06,0.15,0.09,0.23c-0.35-1.39,0.18-2.71,1.58-3.94c1.75-0.57,3.49-1.13,5.24-1.7c-0.18-0.09-0.34-0.18-0.5-0.28
						c0.64,0.41,0.14,0.08,0.04-0.09c-0.23-0.43,0.24,0.57,0.05,0.12c-0.29-0.67-0.04,0.13-0.07,0.12c-0.09-0.03,0.04-0.45-0.02-0.5
						c0.06,0.05-0.14,0.98,0,0.35c-0.14,0.65-0.47,1.24-0.93,1.79c-0.13,0.15-1.26,1.09-0.64,0.73c2.12-1.24,3.77-4.25,3-6.34
						c-0.86-2.32-3.62-1.51-5.38-0.49c-4.52,2.63-7.31,10.23-1.6,13.09c1.76,0.88,4.23-0.62,5.24-1.7c1.91-2.05,3.32-4.77,2.21-7.35
						c-0.64-1.51-2.37-2.96-4.48-2.81c-2.8,0.19-5.01,2.07-5.9,4.2c-0.43,1.01-0.76,2.16-0.36,3.22
						C1019.25,1019.37,1020.05,1020.3,1021.1,1020.23L1021.1,1020.23z"/>
				</g>
			</g>
		</g>
		<g id="Ebene_4_1_">
			<g class="st3">
				<path d="M1023.18,982.84c-41.64,0.79-91.49,36.35-93.62,70.16c-2.12,33.82,42.06,70.51,83.38,74.74
					c-34.6-6.74-66.41-44.42-61.94-73.13s32.24-55.33,73.46-71.68"/>
				<g>
					<path d="M1025.26,978.35c-18.38,0.47-35.95,6.47-50.96,14.87c-15.71,8.79-29.53,20.33-38.74,33.98
						c-8.86,13.13-12.76,27.79-8.62,42.56c4.17,14.87,15.11,28.36,28.44,38.87c15.15,11.95,34.3,21.29,55.48,23.6
						c4.53,0.49,9.56-7.88,4.15-8.98c-27.45-5.58-48.9-27.8-56.9-48.98c-4.01-10.62-4.04-21.29,0.17-31.87
						c4.38-11.01,12.15-20.8,21.75-29.27c12.49-11.03,28.05-19.54,44.53-26.14c2.46-0.99,4.41-3.8,4.27-6.01
						c-0.14-2.17-2.08-3.02-4.43-2.08c-30.92,12.38-59.19,32.23-71.97,58.85c-5.6,11.68-7.72,24.07-4.57,36.41
						c3.21,12.61,10.93,24.61,20.88,34.56c10.9,10.9,25.15,20.06,42.14,23.51c1.38-2.99,2.77-5.99,4.15-8.98
						c-33.51-3.65-65.2-26.14-76.85-51.63c-5.67-12.4-5.56-24.96,0.97-37.09c6.53-12.11,18.05-22.43,30.77-30.48
						c14.5-9.18,32.56-16.24,51.19-16.72C1025.8,987.21,1030.34,978.22,1025.26,978.35L1025.26,978.35z"/>
				</g>
			</g>
			<g class="st3">
				<path d="M1138.84,451.32c-26.26,45.22-60.9,75.08-97.76,115.11c-36.86,40.03-71.29,72.57-94.86,118.76
					c-23.56,46.19-35.29,134.79-16.67,182.44c18.63,47.66,82.36,84.88,156.19,61.79c-89.16-37.24-76.67-204.38-44.16-260.59
					c31.57-54.58,111.65-161.46,107.16-259.07"/>
				<g>
					<path d="M1135.02,451.03c-24.86,42.6-63.76,77.83-98.33,115.2c-34.67,37.47-71.22,73.94-93.72,117.57
						c-8.53,16.54-14.04,34.14-18.17,51.73c-4.68,19.88-7.49,40.1-8.44,60.32c-1.69,35.55,0.88,74.59,27.49,104.39
						c13.1,14.67,31.07,26.67,51.72,33.61c22.16,7.45,46.55,8.89,69.92,4.7c6.56-1.18,12.97-2.79,19.24-4.73
						c2.75-0.85,8.53-6.77,4.04-8.67c-32.28-13.63-48.44-42.73-57.05-70.07c-10.5-33.32-11.9-68.57-8.7-102.74
						c1.48-15.79,4.16-31.56,8.3-47.04c3.24-12.12,7.24-24.05,13.64-35.4c8.72-15.48,18.88-30.73,28.36-46.02
						c12.28-19.8,24.21-39.75,35-60.13c23.21-43.82,42.26-90.54,44.73-138.57c0.3-5.81,0.31-11.62,0.06-17.43
						c-0.09-2.14-2.14-3-4.43-2.08c-2.45,0.99-4.36,3.8-4.27,6.01c2.08,48.29-15.54,95.82-37.83,140.06
						c-19.2,38.13-43.54,74.14-65.54,111.19c-15.38,25.9-22.1,54.56-25.6,83.02c-4.29,34.87-3.74,70.66,5.08,105.06
						c7.35,28.63,21.53,59.71,51.84,77.44c3.3,1.93,6.77,3.65,10.38,5.17c1.34-2.89,2.7-5.78,4.04-8.67
						c-23.16,7.14-48.12,9.15-72.21,3.94c-21.27-4.6-40.65-14.77-55.26-28.08c-14.06-12.79-23.62-28.14-28.48-44.81
						c-5.09-17.46-6.29-35.64-6.09-53.53c0.23-19.9,2.47-39.78,6.47-59.41c3.57-17.55,8.41-35.07,16.03-51.77
						c19.06-41.83,53.73-77.02,86.56-112.12c17.4-18.6,35.17-36.94,52.7-55.47c16.96-17.91,33.1-36.41,46.36-56.32
						c3.47-5.2,6.7-10.49,9.82-15.83c0.92-1.56,0.87-4.44-1.75-4.78C1138.09,446.45,1135.98,449.39,1135.02,451.03L1135.02,451.03z"
						/>
				</g>
			</g>
			<g class="st3">
				<path d="M1025.09,135.91c-63.3,8.85-151.92,27.91-202.1,57.99c-50.18,30.09-101.75,89.15-124.55,136.33
					c-22.79,47.19-18.91,122.38,9.28,167.6c28.19,45.22,81.61,64.16,151.7,45.37c-43.36-9-87.55-31.65-99.83-66.64
					s-6.97-72.64,5.01-107.7c32.36-94.63,119.98-175.81,259.27-230.13"/>
				<g>
					<path d="M1026.11,131.5c-55.4,7.78-111.4,19.35-162.36,38.99c-24.11,9.29-45.92,21.14-65.37,36
						c-21.94,16.76-41.19,35.81-58.29,55.92c-16.56,19.49-31.32,40.13-42.68,61.97c-10.31,19.83-15.44,40.93-17.32,62.36
						c-2,22.7-0.32,45.7,5,68.04c4.85,20.4,12.97,40.83,27.09,58.3c12.68,15.69,30.56,28.67,52.21,35.55
						c23.32,7.42,48.83,7.66,73.14,3.57c7.07-1.19,14.02-2.76,20.88-4.58c3.33-0.88,8.67-7.74,3.1-8.91
						c-38.22-8.04-79.18-26.81-94.7-57.95c-9.38-18.81-10.9-40.54-9.4-60.59c1.5-19.97,6.67-39.84,13.89-58.93
						c10.95-29,27.25-56.47,48.02-81.66c22.05-26.73,49.15-50.63,79.23-71.49c33.43-23.19,70.56-42.65,109.63-58.92
						c5.23-2.18,10.5-4.29,15.8-6.37c4.18-1.64,6.29-10.62-0.17-8.1c-41.69,16.3-81.45,36-117.45,59.67
						c-32.36,21.28-61.65,45.85-85.82,73.43c-22.94,26.18-41.4,54.92-53.97,85.41c-15.99,38.8-25.05,81.87-12.52,122.19
						c10.8,34.77,48.05,57.51,88.23,68.64c4.97,1.37,9.99,2.59,15.07,3.66c1.03-2.97,2.07-5.94,3.1-8.91
						c-24.35,6.46-50.43,9.49-75.7,4.89c-21.46-3.91-40.69-13.66-55.03-27.15c-15.98-15.04-25.74-33.57-32.03-52.61
						c-6.94-21.03-9.88-42.93-9.68-64.68c0.19-20.96,3.17-42.35,11.4-62.29c8.5-20.6,21.84-40.07,36.14-58.35
						c29.01-37.09,65.94-73.09,114.17-94.18c24.21-10.59,50.12-18.48,76.33-25.11c26.23-6.64,52.97-11.98,79.93-16.27
						c6.02-0.96,12.06-1.86,18.1-2.71C1028.51,139.7,1032.24,130.64,1026.11,131.5L1026.11,131.5z"/>
				</g>
			</g>
		</g>
		<g id="Ebene_5_1_">
			<g class="st3">
				<g>
					<path class="st6" d="M1139.86,190.57c4.52,1.02,8.99,2.15,13.4,3.44c2.21,0.64,4.39,1.32,6.56,2.02
						c1.09,0.35,2.17,0.71,3.24,1.09c0.47,0.16,4.93,1.78,2.21,0.76c8.5,3.18,16.72,6.87,24.57,11
						c15.93,8.39,29.35,17.99,41.9,29.89c25.91,24.54,42.08,54.52,46,86.74c9.37,76.97-42.76,146.64-90.77,209.22
						c-27.79,36.22-55.43,72.66-73.95,112.8c-0.86,1.87,5.06,3.8,5.89,4.05c4.3,1.29,9.71,1.73,14.23,1.68
						c6.13-0.08,17.53-0.1,20.12-5.73c33.28-72.13,97.58-131.08,135.46-201.36c18.87-35.01,32.24-72.99,30.07-111.53
						c-1.88-33.44-16.4-65.76-41.59-92.26c-27.21-28.63-65.95-50.22-108.89-59.9c-8.87-2-19.68-2.84-28.46,0
						c-2.11,0.68-5.89,1.75-5.89,4.05C1133.96,188.68,1137.92,190.14,1139.86,190.57L1139.86,190.57z"/>
				</g>
			</g>
			<g class="st3">
				<g>
					<path class="st6" d="M1045.02,1036.97c6.71,12.36,6.44,27,1.48,39.73c-2.41,6.18-6.33,12.02-11.14,17.19
						c-5.54,5.94-10.55,9.55-18.05,13.1c-7.65,3.62,3.27,7.22,7.22,7.83c8.46,1.32,19.76,1.62,27.53-2.05
						c33.02-15.62,47.17-50.45,31.76-78.84c-1.06-1.96-7.36-3.1-9.25-3.42c-4.88-0.84-10.56-1.05-15.5-0.58
						C1054.86,1030.32,1042.05,1031.5,1045.02,1036.97L1045.02,1036.97z"/>
				</g>
			</g>
		</g>
	</g>
	<g>
		<g id="Ebene_2_Kopie_1_">
			<g class="st3">
				<path d="M1426.49,1116.19c22.84,7.16,37.87,25.45,35.53,43.25c-2.33,17.8-21.86,33.76-46.16,37.74
					c-24.3,3.98-51.53-4.34-64.4-19.66c-12.86-15.32-10.37-36.48,5.89-50.03c16.26-13.55,45.05-18.47,68.08-11.63"/>
				<g>
					<path d="M1424.48,1118.69c21.45,6.85,36.01,23.33,34.81,40.24c-1.13,15.99-17.93,30.36-39.06,34.96
						c-22.28,4.85-47.99-1.43-62.33-14.46c-14.43-13.11-15.61-32.48-3.13-46.54c14.04-15.81,44.98-21.4,68.65-14.51
						c3.13,0.91,6.95-4.15,4.02-5c-23.94-6.97-52.46-2.07-70.03,11.4c-17.95,13.77-22.23,35.7-10.35,52.48
						c11.58,16.36,38.51,25.66,63.58,23.13c25.59-2.58,46.61-17.87,52.78-35.54c7.08-20.24-8.42-42.68-34.93-51.15
						C1425.43,1112.71,1421.55,1117.76,1424.48,1118.69L1424.48,1118.69z"/>
				</g>
			</g>
			<g class="st3">
				<path d="M1333.03,785.93c1.93-16.56,7.49-33.33,20.62-47.02c13.13-13.69,34.79-23.89,57.96-23.79
					c33.58,0.15,61.36,22.37,66.54,46.18c5.17,23.81-7.88,47.95-26.49,68s-42.7,37.15-63.33,56.16
					c-33.62,30.96-58.24,67.75-64,106.78c-3.78,25.64,1.55,53.37,24.47,73.23c22.93,19.86,66.73,28.41,96.29,13.74
					c18.75-9.31,28.46-25.68,32.1-41.83c3.64-16.15,2.17-32.65,3.64-48.98c3.02-33.68,18.84-66.72,45.3-94.62
					c32.76-34.55,81.78-61.9,101.87-101.12c21.27-41.52,4.12-90.48-36.75-123.61c-40.86-33.13-102.49-51.05-164.06-53.39
					c-67.67-2.57-137.25,13.37-187.21,46.21s-78.41,82.8-70.2,131.06c3.24,19.02,12.59,38.32,32.2,51.34
					c25.82,17.14,68.09,19.81,97.69,6.18c29.6-13.63,27.91-37.14,33.27-63.99"/>
				<g>
					<path d="M1335.92,784.78c1.77-14.73,6.42-29.67,17.4-42.36c9.84-11.37,25.58-20.5,43.93-23.58
						c36.18-6.07,68.37,15.36,76.72,39.35c10.43,29.97-12.33,60-37.21,82.86c-13.46,12.38-28.34,23.91-42.24,36.03
						c-13.24,11.55-25.36,23.75-35.76,36.72c-20.34,25.37-34.41,53.63-37.79,82.9c-3.04,26.27,3.64,56.62,31.41,75.64
						c23.3,15.95,61.79,23.16,90.52,10.3c15.74-7.05,26.17-18.76,32.05-31.17c6.93-14.64,7.54-30.17,7.91-45.48
						c0.39-15.76,1.68-31.27,6.44-46.71c4.52-14.67,11.52-29,20.83-42.46c9.06-13.09,20.33-25.19,33.05-36.58
						c12.03-10.78,24.97-21.01,37.44-31.52c24.46-20.61,47.27-43.04,55.64-69.93c8.1-26.03,2.87-53.78-12.26-78
						c-15.63-25.02-41.6-45.71-73.7-60.46c-32.41-14.9-70.14-23.7-108.34-26.55c-38.74-2.9-78.49,0.32-115.35,9.36
						c-36.73,9-70.65,23.81-97.64,43.89c-26.64,19.81-46.04,44.54-56.11,71.09c-9.83,25.92-11.08,55.21,1.98,80.69
						c6.4,12.47,16.76,24.13,31.94,31.99c13.99,7.25,31.46,10.98,48.66,10.99c17.25,0.01,34.52-3.63,48.44-11.03
						c13.1-6.96,20.62-17.29,24.52-28.45c4.15-11.88,4.95-24.26,7.34-36.36c0.74-3.74-5.15-1.44-5.64,1.03
						c-2.41,12.19-3.19,24.68-7.44,36.65c-3.93,11.05-12.29,20.1-26.26,25.83c-30.19,12.37-71.6,8.12-95.59-9.95
						c-26.07-19.64-31.84-49.81-28.9-75.8c3.02-26.72,16.76-52.88,38.25-74.76c22.03-22.44,52.03-40.13,86.36-52.13
						c34.72-12.14,73.4-18.46,111.99-18.78c37.99-0.32,76.2,5.15,110.7,16.63c34.13,11.36,64.59,28.7,85.32,51.39
						c20.15,22.05,31.2,48.61,29.57,75.04c-0.81,13.17-5.05,26.09-12.48,38.14c-7.48,12.16-17.96,23.26-29.34,33.69
						c-23.33,21.38-50.68,40.46-71.36,63.32c-22.2,24.53-36.54,52.83-41.52,81.85c-2.71,15.81-1.7,31.72-3.17,47.58
						c-1.28,13.86-5.14,28.05-16.02,39.8c-9.53,10.29-24.41,16.9-41.54,18.22c-16.34,1.26-33.14-2.07-47.12-8.07
						c-32.54-13.97-44.92-42-45.43-67.88c-0.56-28.47,11.24-56.94,29.19-82.13c9.22-12.94,20.16-25.24,32.46-36.79
						c13.02-12.21,27.52-23.55,41.26-35.33c26.31-22.57,50.96-48.71,53.02-79.07c0.88-12.98-3.13-25.8-12.69-36.9
						c-8.63-10.02-21.66-18.59-37.28-22.56c-36.27-9.22-72.06,9.07-87.74,31.9c-8.63,12.57-12.57,26.33-14.24,40.21
						c-0.16,1.3,1.57,1.71,2.96,1.22C1334.88,787.68,1335.76,786.11,1335.92,784.78L1335.92,784.78z"/>
				</g>
			</g>
			<g class="st3">
				<path d="M1389.39,1155.49c-9.06-10.33-2.26-25.96,13.38-30.75"/>
				<g>
					<path d="M1391.89,1153.31c-7.73-9.07-2.72-21.84,10.94-26.19c2.84-0.9,4.26-6.15-0.11-4.76c-17.75,5.64-26,23.35-15.82,35.31
						C1388.69,1159.78,1393.53,1155.24,1391.89,1153.31L1391.89,1153.31z"/>
				</g>
			</g>
			<g class="st3">
				<path d="M1385.19,1139.87c1.26-0.15,2.26,1.15,1.41,1.84c-1.56-0.62-1.65-2.49-0.16-3.19"/>
				<g>
					<path d="M1383.81,1142.51c0.41-0.02,0.38,0.09,0.12-0.06c0.37,0.22-0.16-0.21,0.04-0.02c0.17,0.16,0.14,0.28,0.05-0.03
						c0.02,0.05,0.04,0.09,0.06,0.13c-0.23-0.82,0.12-1.59,1.05-2.32c1.16-0.33,2.33-0.67,3.49-1c-0.12-0.05-0.23-0.1-0.33-0.17
						c0.43,0.24,0.09,0.05,0.03-0.05c-0.16-0.25,0.16,0.33,0.03,0.07c-0.19-0.39-0.03,0.08-0.05,0.07
						c-0.06-0.02,0.03-0.26-0.02-0.29c0.04,0.03-0.09,0.58,0,0.21c-0.09,0.38-0.32,0.73-0.62,1.05c-0.09,0.09-0.84,0.64-0.42,0.43
						c1.42-0.73,2.52-2.5,2-3.73c-0.57-1.37-2.41-0.89-3.58-0.29c-3.01,1.55-4.87,6.02-1.07,7.7c1.18,0.52,2.82-0.36,3.49-1
						c1.27-1.21,2.21-2.81,1.48-4.32c-0.43-0.89-1.58-1.74-2.98-1.65c-1.87,0.11-3.34,1.22-3.93,2.47c-0.28,0.6-0.5,1.27-0.24,1.89
						C1382.58,1142.01,1383.1,1142.56,1383.81,1142.51L1383.81,1142.51z"/>
				</g>
			</g>
		</g>
		<g id="Ebene_2_2_">
			<g>
				<path class="st4" d="M1441.35,1105.38c22.84,7.16,37.87,25.45,35.53,43.25c-2.33,17.8-21.86,33.76-46.16,37.74
					s-51.53-4.34-64.4-19.66c-12.86-15.32-10.37-36.48,5.89-50.03c16.26-13.55,45.05-18.47,68.08-11.63"/>
				<g>
					<path d="M1439.34,1107.88c21.45,6.85,36.01,23.33,34.81,40.24c-1.13,15.99-17.93,30.36-39.06,34.96
						c-22.28,4.85-47.99-1.43-62.33-14.46c-14.43-13.11-15.61-32.48-3.13-46.54c14.04-15.81,44.98-21.4,68.65-14.51
						c3.13,0.91,6.95-4.15,4.02-5c-23.94-6.97-52.46-2.08-70.03,11.4c-17.95,13.77-22.23,35.7-10.35,52.48
						c11.58,16.36,38.51,25.66,63.58,23.13c25.59-2.58,46.61-17.87,52.78-35.54c7.08-20.24-8.42-42.68-34.93-51.15
						C1440.29,1101.9,1436.41,1106.95,1439.34,1107.88L1439.34,1107.88z"/>
				</g>
			</g>
			<g>
				<path class="st5" d="M1358.23,773.97c1.93-16.56,7.49-33.33,20.62-47.02s34.79-23.89,57.96-23.79
					c33.58,0.15,61.36,22.37,66.54,46.18c5.17,23.81-7.88,47.95-26.49,68c-18.61,20.05-42.7,37.15-63.33,56.16
					c-33.62,30.96-58.24,67.75-64,106.78c-3.78,25.64,1.55,53.37,24.47,73.23c22.93,19.86,66.73,28.41,96.29,13.74
					c18.75-9.31,28.46-25.68,32.1-41.83c3.64-16.15,2.17-32.65,3.64-48.98c3.02-33.68,18.84-66.72,45.3-94.62
					c32.76-34.55,81.78-61.9,101.87-101.12c21.27-41.52,4.12-90.48-36.75-123.61c-40.86-33.13-102.49-51.05-164.06-53.39
					c-67.65-2.58-137.23,13.36-187.19,46.2c-49.96,32.85-78.43,82.81-70.22,131.07c3.24,19.02,12.59,38.32,32.2,51.34
					c25.82,17.14,68.09,19.81,97.69,6.18c29.6-13.63,27.91-37.14,33.27-63.99"/>
				<g>
					<path d="M1361.13,772.82c1.77-14.73,6.42-29.67,17.4-42.36c9.84-11.37,25.58-20.5,43.93-23.58
						c36.18-6.07,68.37,15.36,76.72,39.35c10.43,29.97-12.33,60-37.21,82.86c-13.46,12.38-28.34,23.91-42.24,36.03
						c-13.24,11.55-25.36,23.75-35.76,36.72c-20.34,25.37-34.41,53.63-37.79,82.9c-3.04,26.27,3.64,56.62,31.41,75.64
						c23.3,15.95,61.79,23.16,90.52,10.3c15.74-7.05,26.17-18.76,32.05-31.17c6.93-14.64,7.54-30.17,7.91-45.48
						c0.39-15.76,1.68-31.27,6.44-46.71c4.52-14.67,11.52-29,20.83-42.46c9.06-13.09,20.33-25.19,33.05-36.58
						c12.03-10.78,24.97-21.01,37.44-31.52c24.46-20.61,47.27-43.04,55.64-69.93c8.1-26.03,2.87-53.79-12.26-78
						c-15.63-25.02-41.6-45.71-73.7-60.46c-32.41-14.9-70.14-23.7-108.34-26.55c-38.74-2.9-78.49,0.32-115.35,9.36
						c-36.73,9-70.65,23.81-97.64,43.89c-26.64,19.81-46.04,44.54-56.11,71.09c-9.83,25.92-11.08,55.21,1.98,80.69
						c6.4,12.47,16.76,24.13,31.94,31.99c13.99,7.25,31.45,10.98,48.66,10.99c17.25,0.01,34.52-3.63,48.44-11.03
						c13.1-6.96,20.62-17.29,24.52-28.45c4.15-11.88,4.95-24.26,7.34-36.36c0.74-3.74-5.15-1.44-5.65,1.03
						c-2.41,12.19-3.19,24.68-7.44,36.65c-3.93,11.05-12.29,20.1-26.26,25.83c-30.19,12.37-71.6,8.12-95.59-9.95
						c-26.07-19.64-31.84-49.81-28.9-75.8c3.02-26.72,16.76-52.88,38.25-74.76c22.03-22.44,52.03-40.13,86.36-52.13
						c34.72-12.14,73.4-18.46,111.99-18.78c37.99-0.32,76.2,5.15,110.7,16.63c34.13,11.36,64.59,28.7,85.32,51.39
						c20.15,22.05,31.2,48.61,29.57,75.04c-0.81,13.17-5.05,26.09-12.48,38.14c-7.48,12.16-17.96,23.26-29.34,33.69
						c-23.33,21.38-50.68,40.46-71.36,63.32c-22.2,24.53-36.54,52.83-41.52,81.85c-2.71,15.81-1.7,31.72-3.17,47.58
						c-1.28,13.86-5.14,28.05-16.02,39.8c-9.53,10.29-24.41,16.9-41.54,18.22c-16.34,1.26-33.14-2.07-47.12-8.07
						c-32.54-13.97-44.92-42-45.43-67.88c-0.56-28.47,11.24-56.94,29.19-82.13c9.22-12.94,20.16-25.24,32.46-36.79
						c13.02-12.21,27.52-23.55,41.26-35.33c26.31-22.57,50.96-48.71,53.02-79.07c0.88-12.98-3.13-25.8-12.69-36.9
						c-8.63-10.02-21.66-18.59-37.28-22.56c-36.27-9.22-72.06,9.07-87.74,31.9c-8.63,12.57-12.57,26.33-14.24,40.21
						c-0.16,1.3,1.57,1.71,2.96,1.22C1360.09,775.72,1360.97,774.15,1361.13,772.82L1361.13,772.82z"/>
				</g>
			</g>
			<g>
				<g>
					<path d="M1391.89,1153.31c-7.73-9.07-2.72-21.84,10.94-26.19c2.84-0.9,4.26-6.15-0.11-4.76c-17.75,5.64-26,23.35-15.82,35.31
						C1388.69,1159.78,1393.53,1155.24,1391.89,1153.31L1391.89,1153.31z"/>
				</g>
			</g>
			<g>
				<path class="st4" d="M1420.54,1121.35c1.26-0.15,2.26,1.15,1.41,1.84c-1.56-0.62-1.65-2.49-0.16-3.19"/>
				<g>
					<path d="M1419.16,1123.99c0.41-0.02,0.38,0.09,0.12-0.06c0.37,0.22-0.16-0.21,0.04-0.02c0.17,0.16,0.14,0.28,0.05-0.03
						c0.02,0.05,0.04,0.09,0.06,0.13c-0.23-0.82,0.12-1.59,1.05-2.32c1.16-0.33,2.33-0.67,3.49-1c-0.12-0.05-0.23-0.1-0.33-0.17
						c0.43,0.24,0.09,0.05,0.03-0.05c-0.16-0.25,0.16,0.33,0.03,0.07c-0.19-0.39-0.03,0.08-0.05,0.07
						c-0.06-0.02,0.03-0.26-0.02-0.29c0.04,0.03-0.09,0.58,0,0.21c-0.09,0.38-0.32,0.73-0.62,1.05c-0.09,0.09-0.84,0.64-0.42,0.43
						c1.42-0.73,2.52-2.5,2-3.73c-0.57-1.37-2.41-0.89-3.58-0.29c-3.01,1.55-4.87,6.02-1.07,7.7c1.18,0.52,2.82-0.36,3.49-1
						c1.27-1.21,2.21-2.81,1.48-4.32c-0.43-0.89-1.58-1.74-2.98-1.65c-1.87,0.11-3.34,1.22-3.93,2.47c-0.28,0.6-0.5,1.27-0.24,1.89
						C1417.93,1123.48,1418.46,1124.03,1419.16,1123.99L1419.16,1123.99z"/>
				</g>
			</g>
		</g>
		<g id="Ebene_4_2_">
			<g class="st3">
				<path d="M1420.54,1101.99c-27.76,0.46-60.99,21.38-62.41,41.27s28.04,41.48,55.59,43.96c-23.07-3.97-44.27-26.13-41.29-43.02
					c2.98-16.89,21.5-32.55,48.97-42.16"/>
				<g>
					<path d="M1421.93,1099.35c-12.26,0.28-23.97,3.81-33.97,8.75c-10.47,5.17-19.69,11.96-25.83,19.99
						c-5.91,7.73-8.51,16.35-5.75,25.03c2.78,8.75,10.07,16.68,18.96,22.87c10.1,7.03,22.87,12.52,36.99,13.88
						c3.02,0.29,6.37-4.64,2.77-5.28c-18.3-3.28-32.6-16.35-37.93-28.81c-2.67-6.24-2.69-12.52,0.11-18.75
						c2.92-6.48,8.1-12.23,14.5-17.22c8.33-6.49,18.7-11.5,29.68-15.38c1.64-0.58,2.94-2.23,2.84-3.54
						c-0.09-1.28-1.38-1.78-2.96-1.22c-20.61,7.28-39.46,18.96-47.98,34.62c-3.73,6.87-5.15,14.16-3.05,21.42
						c2.14,7.42,7.29,14.48,13.92,20.33c7.27,6.41,16.77,11.8,28.09,13.83c0.92-1.76,1.85-3.52,2.77-5.28
						c-22.34-2.15-43.47-15.38-51.23-30.37c-3.78-7.29-3.71-14.68,0.65-21.82c4.35-7.13,12.03-13.19,20.51-17.93
						c9.67-5.4,21.71-9.56,34.13-9.84C1422.29,1104.56,1425.32,1099.27,1421.93,1099.35L1421.93,1099.35z"/>
				</g>
			</g>
			<g class="st3">
				<path d="M1497.65,789.33c-17.5,26.6-40.6,44.16-65.17,67.71c-24.58,23.55-47.53,42.69-63.24,69.86
					c-15.71,27.17-23.53,79.29-11.11,107.32c12.42,28.03,54.91,49.93,104.13,36.35c-59.44-21.91-51.11-120.22-29.44-153.29
					c21.05-32.11,74.43-94.98,71.44-152.4"/>
				<g>
					<path d="M1495.1,789.16c-16.58,25.06-42.5,45.78-65.56,67.76c-23.11,22.04-47.48,43.49-62.48,69.16
						c-5.69,9.73-9.36,20.08-12.12,30.43c-3.12,11.7-4.99,23.59-5.63,35.48c-1.13,20.91,0.58,43.88,18.33,61.4
						c8.74,8.63,20.71,15.69,34.48,19.77c14.77,4.38,31.04,5.23,46.61,2.76c4.37-0.69,8.64-1.64,12.83-2.78
						c1.84-0.5,5.69-3.98,2.69-5.1c-21.52-8.02-32.29-25.14-38.03-41.22c-7-19.6-7.94-40.33-5.8-60.43
						c0.99-9.29,2.77-18.56,5.53-27.67c2.16-7.13,4.83-14.15,9.1-20.82c5.82-9.1,12.59-18.08,18.91-27.07
						c8.19-11.65,16.14-23.38,23.33-35.37c15.48-25.78,28.18-53.26,29.82-81.51c0.2-3.42,0.21-6.84,0.04-10.25
						c-0.06-1.26-1.43-1.77-2.96-1.22c-1.64,0.58-2.91,2.24-2.84,3.54c1.38,28.4-10.36,56.36-25.22,82.39
						c-12.8,22.43-29.03,43.61-43.69,65.41c-10.25,15.24-14.73,32.09-17.07,48.84c-2.86,20.51-2.5,41.57,3.39,61.8
						c4.9,16.84,14.35,35.13,34.56,45.55c2.2,1.14,4.51,2.14,6.92,3.04c0.9-1.7,1.8-3.4,2.69-5.1c-15.44,4.2-32.08,5.38-48.14,2.32
						c-14.18-2.71-27.1-8.69-36.84-16.52c-9.37-7.53-15.74-16.55-18.98-26.36c-3.4-10.27-4.2-20.96-4.06-31.49
						c0.15-11.7,1.65-23.4,4.31-34.94c2.38-10.32,5.61-20.63,10.68-30.46c12.71-24.6,35.82-45.3,57.71-65.95
						c11.6-10.94,23.45-21.73,35.14-32.63c11.31-10.54,22.06-21.42,30.91-33.13c2.31-3.06,4.47-6.17,6.55-9.31
						c0.61-0.92,0.58-2.61-1.16-2.81C1497.15,786.47,1495.74,788.2,1495.1,789.16L1495.1,789.16z"/>
				</g>
			</g>
			<g class="st3">
				<path d="M1421.82,603.8c-42.2,5.21-101.28,16.42-134.73,34.11c-33.45,17.7-67.84,52.44-83.03,80.19
					c-15.2,27.76-12.6,71.99,6.19,98.59c18.79,26.6,54.41,37.74,101.13,26.69c-28.91-5.29-58.37-18.62-66.55-39.2
					c-8.19-20.58-4.65-42.73,3.34-63.35c21.57-55.67,79.98-103.42,172.85-135.37"/>
				<g>
					<path d="M1422.5,601.2c-36.93,4.58-74.26,11.38-108.24,22.94c-16.07,5.47-30.61,12.43-43.58,21.18
						c-14.63,9.86-27.46,21.07-38.86,32.9c-11.04,11.46-20.88,23.61-28.46,36.45c-6.87,11.66-10.29,24.08-11.55,36.68
						c-1.33,13.35-0.21,26.88,3.33,40.03c3.24,12,8.65,24.01,18.06,34.29c8.45,9.23,20.37,16.86,34.8,20.91
						c15.55,4.36,32.55,4.51,48.76,2.1c4.71-0.7,9.35-1.62,13.92-2.69c2.22-0.52,5.78-4.55,2.07-5.24
						c-25.48-4.73-52.78-15.77-63.14-34.09c-6.25-11.06-7.27-23.85-6.27-35.64c1-11.75,4.45-23.43,9.26-34.67
						c7.3-17.06,18.17-33.22,32.01-48.04c14.7-15.73,32.77-29.78,52.82-42.05c22.28-13.64,47.04-25.09,73.08-34.66
						c3.49-1.28,7-2.53,10.53-3.75c2.78-0.96,4.19-6.24-0.11-4.76c-27.79,9.59-54.3,21.17-78.3,35.1
						c-21.57,12.52-41.1,26.97-57.21,43.19c-15.29,15.4-27.6,32.3-35.98,50.24c-10.66,22.82-16.7,48.16-8.35,71.88
						c7.2,20.45,32.03,33.83,58.82,40.38c3.31,0.81,6.66,1.52,10.04,2.15c0.69-1.75,1.38-3.49,2.07-5.24
						c-16.23,3.8-33.62,5.58-50.47,2.88c-14.31-2.3-27.12-8.03-36.69-15.97c-10.65-8.85-17.16-19.75-21.35-30.94
						c-4.63-12.37-6.58-25.25-6.46-38.05c0.12-12.33,2.11-24.91,7.6-36.64c5.67-12.12,14.56-23.57,24.09-34.32
						c19.34-21.82,43.96-42.99,76.11-55.4c16.14-6.23,33.41-10.87,50.89-14.77c17.49-3.91,35.31-7.05,53.28-9.57
						c4.01-0.57,8.04-1.09,12.07-1.59C1424.1,606.03,1426.58,600.7,1422.5,601.2L1422.5,601.2z"/>
				</g>
			</g>
		</g>
		<g id="Ebene_5_2_">
			<g class="st3">
				<g>
					<path class="st6" d="M1498.33,635.96c3.01,0.6,5.99,1.27,8.93,2.02c1.47,0.38,2.93,0.77,4.37,1.19
						c0.72,0.21,1.44,0.42,2.16,0.64c0.32,0.1,3.29,1.05,1.47,0.45c5.67,1.87,11.15,4.04,16.38,6.47
						c10.62,4.94,19.56,10.58,27.94,17.58c17.27,14.44,28.05,32.07,30.67,51.02c6.25,45.28-28.5,86.26-60.51,123.07
						c-18.53,21.31-36.96,42.74-49.3,66.35c-0.57,1.1,3.38,2.24,3.93,2.38c2.87,0.76,6.47,1.02,9.49,0.99
						c4.08-0.05,11.69-0.06,13.41-3.37c22.19-42.43,65.05-77.1,90.31-118.45c12.58-20.59,21.5-42.93,20.05-65.61
						c-1.26-19.67-10.94-38.68-27.73-54.27c-18.14-16.84-43.97-29.54-72.6-35.24c-5.91-1.17-13.12-1.67-18.97,0
						c-1.41,0.4-3.93,1.03-3.93,2.38C1494.4,634.84,1497.04,635.7,1498.33,635.96L1498.33,635.96z"/>
				</g>
			</g>
			<g class="st3">
				<g>
					<path class="st6" d="M1435.1,1133.84c4.48,7.27,4.29,15.88,0.99,23.37c-1.6,3.64-4.22,7.07-7.43,10.11
						c-3.69,3.49-7.03,5.62-12.03,7.7c-5.1,2.13,2.18,4.25,4.81,4.61c5.64,0.78,13.17,0.95,18.35-1.21
						c22.02-9.19,31.45-29.68,21.17-46.37c-0.71-1.16-4.91-1.82-6.17-2.01c-3.25-0.5-7.04-0.62-10.33-0.34
						C1441.66,1129.93,1433.12,1130.62,1435.1,1133.84L1435.1,1133.84z"/>
				</g>
			</g>
		</g>
	</g>
</g>
</svg>
