<?xml version="1.0" encoding="utf-8"?>
<!-- Generator: Adobe Adobe Illustrator 24.2.0, SVG Export Plug-In . SVG Version: 6.00 Build 0)  -->
<svg version="1.1" xmlns="http://www.w3.org/2000/svg" xmlns:xlink="http://www.w3.org/1999/xlink" x="0px" y="0px"
	 viewBox="0 0 1700.79 1700.79" style="enable-background:new 0 0 1700.79 1700.79;" xml:space="preserve">
<style type="text/css">
	.st0{fill:#C8354F;}
	.st1{opacity:0.7608;}
	.st2{fill:#F3C15A;}
	.st3{fill:#DB7B39;}
	.st4{fill:#DC7B3A;}
	.st5{stroke:#000000;stroke-miterlimit:10;}
	.st6{fill:#FFFFFF;}
	.st7{fill:#A22E49;}
	.st8{opacity:0.149;}
	.st9{fill:#F4F5E9;}
	.st10{fill:#F4F6E7;}
</style>
<g id="Ebene_7">
</g>
<g id="Ebene_4">
</g>
<g id="Ebene_5">
</g>
<g id="Ebene_9">
</g>
<g id="Ebene_6">
</g>
<g id="Ebene_8">
</g>
<g id="Ebene_10">
	<g>
		<g>
			<path class="st0" d="M370.6,843.12c47.03-139.68,43.39-161.58,26.31-158.76c-170.61,28.2-640.35,1022.99,246.64,928.5
				c636.06-67.75,335.18-476.04,297.38-589.89c-74.5-224.41,81.37-307.35,27.05-329.7c-32.53-13.38-215.11,250.85-228.09,247.23
				c-34.44-9.62,184.88-363.65,157.94-392.94C863.8,510.58,706.5,731.28,679.28,716.61C625.25,687.51,889.19,428.28,859.39,391
				c-20.46-25.59-166.28,42.9-299.86,175.55c-78.41,77.87-127.88,184.83-188.75,277.06"/>
			<g>
				<path d="M380.26,845.7c11.97-35.61,24-71.48,32.53-108.11c2.17-9.32,4.17-18.76,5.06-28.29c0.52-5.51,0.99-11.61-0.53-17.02
					c-6.16-21.9-35.59-12.23-49.39-4.98c-18.47,9.7-34.49,24.05-48.91,38.94c-19.29,19.92-36.33,42.01-52.04,64.82
					c-18.95,27.52-35.99,56.38-51.54,85.95c-17.11,32.53-32.38,66.03-45.8,100.24c-14.01,35.69-26.03,72.18-35.65,109.3
					c-9.54,36.8-16.75,74.26-20.76,112.08c-3.88,36.65-4.79,73.76-1.42,110.49c3.18,34.65,10.28,69.07,22.66,101.63
					c12.13,31.91,29.22,61.94,51.41,87.94c24.13,28.26,53.52,51.62,86.07,69.48c38.85,21.32,81.34,35.29,124.72,43.91
					c54.73,10.88,110.8,13.84,166.5,12.15c73.07-2.22,146.79-11.05,217.99-27.75c55.96-13.12,112.08-31.74,160.91-62.66
					c34.78-22.02,65.25-50.41,85.59-86.48c17.07-30.27,25.55-64.47,26.77-99.08c1.23-34.74-4.09-69.37-12.98-102.89
					c-8.77-33.09-20.93-65.19-34.54-96.57c-11.91-27.47-25.09-54.35-37.88-81.41c-2.17-4.6-4.76-10.12-7.26-15.66
					c-2.2-4.88-4.36-9.79-6.38-14.75c-9.44-23.1-15.7-47.73-20.04-72.25c-10.34-58.39-4.88-117.46,17.95-172.25
					c7.25-17.41,16.13-34,24.74-50.76c5.08-9.88,11.99-21.42,11.33-32.97c-0.68-11.91-14.05-20.15-24.88-21.3
					c-13.08-1.4-24.6,8.76-33.72,16.78c-15.15,13.33-28.72,28.49-41.99,43.65c-16.89,19.3-33.14,39.15-49.21,59.14
					c-28.8,35.8-56.47,72.58-86.11,107.71c-4.33,5.13-8.7,10.26-13.39,15.07c-1.53,1.57-3.12,3.05-4.74,4.53
					c-1.02,0.93-1.37,1.39-0.75,0.66c-0.25,0.29-1.02,0.67-1.4,0.74c3.89-0.67,8.56-0.21,11.66,1.48c-0.25-0.14,2.72,1.51,1.52,1.2
					c-0.05-0.01,0.13,1.08-0.09-0.37c-0.12-0.77-0.28-1.52-0.38-2.3c-0.2-1.6-0.14,0.45-0.01-1.42c0.08-1.1,0.19-2.19,0.34-3.28
					c0.36-2.5,0.92-4.97,1.56-7.41c3.84-14.84,10.07-29.12,16.22-43.12c8.79-20.01,18.31-39.68,27.97-59.28
					c22.56-45.79,46.11-91.09,68.54-136.95c9.97-20.4,19.77-40.9,28.8-61.74c6.7-15.46,13.33-31.19,17.69-47.5
					c2.13-7.98,5.5-19.78,0.17-27.23c-9.4-13.16-28.98-11.14-41.65-4.99c-17.36,8.43-32.4,22.27-46.42,35.27
					c-18.38,17.05-35.75,35.16-53.08,53.27c-16.56,17.32-32.96,34.84-50.18,51.51c-11.02,10.67-22.5,22.6-36.07,28.59
					c-1.62,0.72,0.63-0.18-0.19,0.1c-0.42,0.14-0.87,0.16-1.28,0.3c-1.53,0.52,1.96-0.01,0.46-0.04c-0.61-0.01,2.42,0.29,3.09,0.45
					c-0.41-0.1,2.6,1.03,3.03,1.27c-0.64-0.34-1.06-1.19-0.43-0.21c1,1.58-0.41-0.39-0.43-0.44c-0.54-1.32,0.87,1.37-0.11-0.11
					c-1.59-2.41-1.22-1.2-1.9-4.37c-0.62-2.89-0.51-3.35-0.28-5.83c1.29-14.27,9.21-28.19,16.17-40.36
					c23.22-40.55,52.95-77.51,81.19-114.6c27.32-35.89,56.23-71.54,78.69-110.78c6.05-10.58,13.41-23.01,13.6-35.58
					c0.23-15.41-16.87-20.71-29.75-21.02c-20.82-0.51-42.1,8.19-60.81,16.36c-31.09,13.58-60.5,31.05-88.67,49.87
					c-36.04,24.06-70.28,50.82-102.63,79.64c-33.79,30.1-65.02,62.25-92.07,98.59c-50.71,68.13-89.02,144.32-135.66,215.12
					c-4.32,6.56,14.37,12.97,17.94,7.56c47.76-72.51,86.79-150.72,139.36-220.05c27-35.61,58.23-67.08,91.69-96.62
					c32.19-28.42,66.21-54.9,102.12-78.46c27.24-17.88,55.65-34.49,85.66-47.33c10.55-4.52,21.35-8.63,32.52-11.34
					c2-0.48,4.01-0.93,6.03-1.31c1.07-0.2,2.15-0.37,3.23-0.55c1.24-0.2,2.57-0.34,2.02-0.29c1.73-0.17,3.46-0.22,5.19-0.27
					c0.72-0.02,3.35,0.24,0.69-0.03c0.76,0.08,1.54,0.2,2.3,0.25c1.44,0.09-2.36-0.71,0.01,0c2.02,0.61-0.61-0.3-0.41-0.19
					c2,1.06-0.25-0.3-0.11-0.14c1.33,1.55-0.33-0.35,0.17,0.05c1.15,0.91-0.01-0.14,0.04-0.08c0.27,0.3,0.59,0.69,0.76,1.06
					c0.38,0.78,0.36,0.73,0-0.15c0.19,0.45,0.4,0.92,0.5,1.4c0.89,4.08,0.47,7.13-0.99,12.19c-4.19,14.51-12.77,27.89-20.87,40.46
					c-25.48,39.54-55.15,76.36-83.51,113.83c-26.34,34.8-54.47,70.05-74.03,109.28c-5.3,10.63-11.63,23.83-9.56,36.09
					c2.17,12.92,17.31,19.97,29.25,16.74c13.88-3.76,25.93-16.35,36.07-25.86c16.83-15.77,32.65-32.61,48.57-49.28
					c17.25-18.06,34.47-36.18,52.49-53.49c14.3-13.73,29.19-28.04,46.38-38.14c3.13-1.84,6.35-3.44,9.7-4.83
					c2.19-0.91,0.54-0.42,2.89-0.95c1.18-0.27,4.48-1.15,2.38-0.52c0.31-0.09,2.64-0.56,0.88-0.08c-1.23,0.33-0.26,0.06,0.56,0.11
					c-2.62-0.16-2.17-0.48-1.35-0.25c0.83,0.23,1.05,0.64-1.31-0.48c1.95,0.93-1.26-0.93-0.27-0.21c1.31,0.96-0.4,0.09-0.01-0.06
					c-0.13,0.05,2.79,2.12,0.19,0.02c0.65,0.53,1.17,2.32,0.48,0.49c1.6,4.24,1.15,6.03,0.6,10.16c-0.78,5.91-2.39,11.72-4.14,17.4
					c-11.94,38.62-31.04,75.38-48.85,111.53c-22.18,45.01-45.32,89.54-67.39,134.61c-9.33,19.05-18.53,38.19-26.93,57.68
					c-5.73,13.3-11.63,26.95-14.88,41.12c-2.14,9.36-2.72,18.84,7.52,23.29c12.45,5.4,19.72-3.48,27.27-11.86
					c27.88-30.94,52.67-64.84,78.57-97.42c29.96-37.69,59.88-76.07,93.88-110.26c9.99-10.05,20.1-20,32.06-25.85
					c2.25-1.1-0.5,0.55,1.35-0.47c0.36-0.2,0.94-0.16,1.34-0.25c-2.32,0.51-0.05,0.24-1.53,0.1c-0.19-0.02-3.33-0.6-2.44-0.37
					c0.54,0.14-3.14-1.13-0.81-0.2c1.79,0.71-0.32-0.21-0.21-0.14c0.58,0.35,1.17,0.69,1.76,1.03c1.78,1.04-0.9-0.73-0.05-0.06
					c0.36,0.29,0.71,0.59,1.04,0.91c1.18,1.13,0.1,0.08,0.03-0.01c0.32,0.44,0.67,0.84,0.95,1.31c1.1,1.85,0.2-0.21,0.63,1.25
					c0.27,0.92,0.48,1.81,0.65,2.75c0.21,1.13,0.12,2.2,0.13,1.82c-0.05,1.1-0.18,2.18-0.36,3.26c-0.42,2.49-1.17,4.93-2.01,7.3
					c-2.15,6.07-5.06,11.86-7.97,17.58c-8.24,16.19-16.92,32.14-24.1,48.85c-22.56,52.44-29.54,109.2-21.65,165.72
					c5.47,39.15,17.12,75.97,33.77,111.55c12.22,26.12,24.71,51.34,36.33,77.56c13.6,30.7,25.94,62.05,35.23,94.34
					c9.42,32.75,15.89,66.75,15.98,100.93c0.1,33.66-6.5,67.45-21.28,97.81c-17.01,34.94-44.67,63.77-76.36,85.84
					c-44.9,31.26-97.57,50.62-150.19,64.28c-69.96,18.17-142.63,27.68-214.77,31.09c-55,2.6-110.43,0.95-164.74-8.6
					c-20.91-3.68-43.38-9.12-64.64-16.07c-4.55-1.49-8.17-2.75-13.74-4.83c-4.77-1.78-9.51-3.66-14.21-5.62
					c-8.73-3.66-18.9-8.42-25.72-12c-31.58-16.55-59.81-37.67-83.09-64.14c-22.06-25.09-39.41-54.1-51.58-85.19
					c-12.48-31.88-19.83-65.6-23.33-99.61c-3.67-35.72-3.09-71.76,0.4-107.47c3.67-37.51,10.53-74.68,19.73-111.21
					c9.22-36.64,20.79-72.68,34.32-107.96c13.02-33.96,27.85-67.23,44.48-99.58c15.09-29.36,31.66-57.98,50.08-85.37
					c15.54-23.1,32.38-45.47,51.35-65.88c7.83-8.42,16.04-16.51,24.8-23.95c8.06-6.85,13.9-11.24,22.29-16.13
					c3.55-2.07,7.21-3.96,10.99-5.57c1.77-0.75,3.56-1.42,5.37-2.06c1.39-0.5-1.43,0.43-0.29,0.09c0.44-0.13,0.87-0.28,1.31-0.39
					c0.86-0.23,1.72-0.48,2.58-0.69c0.79-0.19,1.59-0.34,2.39-0.52c1.71-0.38,2.92,0.35,0.64-0.2c1.51,0.36,1.96,0.19-0.36-0.15
					c1.71,0.25-0.94-0.21-1.41-0.34c1.88,0.52-1.55-0.6-1.29-0.49c-0.74-0.31-1.42-0.69-2.04-1.25c1,0.9-0.19-1.53,0.23,0.32
					c0.42,1.84,0-0.67,0.49,0.98c0.27,0.92,0.54,1.82,0.73,2.76c2.64,13.5-2.41,30.61-5.73,44.39
					c-8.54,35.42-20.11,70.15-31.71,104.66C358.79,846.91,377.98,852.49,380.26,845.7L380.26,845.7z"/>
			</g>
		</g>
		<g class="st1">
			<path class="st2" d="M349.82,1050.64c-4.54-38.4-24.04-92.8-28.58-131.19c-0.74-6.26-2.76-13.99-8.95-15.17
				c-6.73-1.29-11.44,6.32-13.99,12.69c-31.47,78.56-58.63,158.85-81.33,240.38c-14.12,50.71-74.17,390.24,287.55,418.86
				c311.57,24.65,513.96-182.1,460.72-333.61c-24.07-68.49-91.6-328.16-117.73-337.31c-31.8-11.13-121.6,170.94-158.07,164.19
				c-67.84-23.75,91.81-316.24,70.16-337.89c-29.31-29.31-177.67,198.69-210.55,178.12c-25.03-15.66,36.85-138.07,61.85-206.09
				c25-68.01,130.79-180.1,108.09-187.89c-75.25-25.81-288.93,328.61-365.56,531.88"/>
			<g>
				<path class="st3" d="M359.82,1050.64c-3.4-27.78-11.25-54.75-18.14-81.81c-3.28-12.87-6.46-25.79-8.81-38.87
					c-2.08-11.57-1.59-26.85-13.28-33.52c-14.59-8.33-26.01,5.84-30.94,17.86c-6.47,15.78-12.52,31.76-18.51,47.72
					c-11.75,31.31-22.82,62.88-33.2,94.67c-10.38,31.79-20.08,63.8-29.07,96.02c-1.5,5.37-2.8,10.78-3.94,16.23
					c-3.58,17.18-5.96,34.65-7.53,52.12c-4.44,49.53-1.65,100.43,11.44,148.54c16.18,59.5,49.44,112.65,98.79,150.09
					c69.2,52.52,159.82,68,244.72,68.5c97.95,0.58,197.93-21.86,281.96-73.41c62.81-38.53,120.2-95.65,142.12-167.69
					c9.08-29.86,11.07-61.94,3.79-92.41c-2.91-12.17-7.54-23.95-11.3-35.88c-4.66-14.78-9.11-29.62-13.54-44.47
					c-21.82-73.16-41.88-147.28-68.89-218.76c-4.8-12.7-9.81-25.43-15.95-37.55c-3.72-7.33-8.24-16.2-15.51-20.64
					c-8.81-5.38-19.29-1.5-26.94,4.05c-10.73,7.78-19.44,18.03-27.7,28.29c-22.37,27.78-41.93,57.69-63.46,86.11
					c-7.77,10.25-17.73,22.9-28.16,32.94c-2.06,1.98-4.23,3.82-6.39,5.69c-1.69,1.46,1.38-1,0.23-0.16
					c-0.42,0.31-0.83,0.63-1.26,0.93c-1.13,0.78-2.25,1.56-3.43,2.26c-0.92,0.55-1.9,0.99-2.82,1.51c-1.67,0.95,2.35-0.76,0.57-0.23
					c-0.45,0.13-0.87,0.35-1.33,0.46c-1.63,0.41-3.22-0.06-0.32,0.29c-0.79-0.1-2-0.04-2.8,0.02c1.78-0.14,2.56,0.28,1.04-0.07
					c2.75,0.64,1.61,0.82,0.76,0.29c-0.72-0.45-1.52-0.87-2.26-1.29c-2.5-1.39,1.08,1.35-0.35-0.25c-0.55-0.61-1.2-1.27-1.81-1.82
					c-1.62-1.45,1.18,2.12-0.3-0.39c-0.46-0.78-0.96-1.52-1.39-2.31c-0.45-0.83-1.55-3.92-0.37-0.58c-0.38-1.09-0.8-2.15-1.13-3.26
					c-0.61-2.05-0.99-4.13-1.38-6.23c-0.39-2.06,0.19,2.54,0.05,0.41c-0.04-0.58-0.13-1.16-0.19-1.74
					c-0.13-1.41-0.22-2.82-0.28-4.23c-0.21-5.42,0.07-10.85,0.6-16.25c0.15-1.48,0.32-2.97,0.5-4.45c0.31-2.6-0.33,2.24,0.05-0.38
					c0.11-0.77,0.22-1.55,0.34-2.32c0.53-3.49,1.15-6.97,1.83-10.44c1.36-6.94,2.97-13.83,4.74-20.68
					c4.02-15.62,8.83-31.04,13.94-46.34c10.99-32.86,23.52-65.19,35.86-97.56c9.71-25.47,20.07-51.02,27.17-77.38
					c3.76-13.98,9.81-38.42-10.24-42.85c-9.4-2.08-18.96,2.91-26.49,8.04c-10.54,7.17-19.98,15.96-29.02,24.91
					c-23.26,23.01-44.52,48.02-66.21,72.49c-19.8,22.33-39.54,45.57-62.52,64.74c-1.05,0.88-2.12,1.73-3.19,2.59
					c-1.81,1.46,1.79-1.33-0.04,0.04c-0.51,0.38-1.01,0.76-1.52,1.13c-2.02,1.48-4.1,2.91-6.25,4.2c-1.71,1.02-3.53,1.8-5.25,2.77
					c2.91-1.64,0.95-0.33-0.04-0.05c-0.86,0.24-1.83,0.42-2.66,0.73c-2.05,0.77,2.89-0.18,0.2-0.05c-1.08,0.05-3.57-0.43,0.41,0.22
					c-0.61-0.1-1.18-0.28-1.76-0.49c3.19,1.15,2.09,0.93,1.31,0.49c-1.92-1.1,1.48,1.51,0.33,0.31c-2.1-2.19,0.81,1.55-0.43-0.52
					c-1.13-1.87,0.32,2.15-0.37-0.91c-0.19-0.84-0.77-4.66-0.44-1.35c-0.16-1.56-0.25-3.11-0.25-4.67c0-1.24,0.06-2.48,0.14-3.72
					c0.05-0.76,0.58-5.39,0.26-3.05c0.56-4.04,1.39-8.05,2.33-12.02c2.18-9.25,5.03-18.34,8.09-27.33
					c7.23-21.27,15.75-42.09,24.37-62.83c8.62-20.74,17.5-41.38,25.79-62.26c7.07-17.82,12.85-32.63,22.68-49.58
					c21.09-36.32,46.99-69.51,70.74-104.07c8.47-12.32,42.87-56.56,11.69-63.8c-20.75-4.83-41.06,8.5-56.62,20.61
					c-24.2,18.83-44.65,42.42-63.81,66.2c-26.22,32.55-50.21,66.87-72.99,101.9c-50.18,77.18-95.14,158.04-134.75,241.14
					c-17.13,35.94-33.26,72.43-47.33,109.68c-1.91,5.05,2.12,10.96,6.98,12.3c5.62,1.54,10.39-1.91,12.3-6.98
					c30.06-79.59,69.11-156.67,110.87-231.17c41.45-73.95,86.85-148.12,139.76-213.6c18.8-23.27,38.87-46.38,62.53-64.88
					c-2.07,1.62,1.47-1.1,2.05-1.52c1.13-0.83,2.27-1.64,3.43-2.44c2.35-1.62,4.75-3.18,7.22-4.64c1.92-1.13,3.87-2.21,5.87-3.2
					c1.03-0.51,2.07-0.98,3.1-1.46c1.88-0.88-2.27,0.87-0.36,0.15c0.67-0.25,1.33-0.52,2-0.77c1.75-0.63,3.52-1.19,5.33-1.63
					c0.93-0.22,1.87-0.36,2.8-0.58c0.89-0.21,2.35,0.01-0.83,0.09c0.6-0.01,1.19-0.15,1.79-0.17c1.56-0.04,3.2,0.17,4.74,0.06
					c1.66-0.12-2.54-0.74-1-0.14c0.37,0.14,0.83,0.12,1.22,0.23c0.73,0.2,2.03,0.8,2.76,0.76c-0.93,0.05-2.99-1.87-2.43-1.31
					c-1.76-1.77-1.5-2.04-0.94-1.09c-1.37-2.31-0.89-2.33-0.62-1.26c0.15,0.56-0.17-3.09-0.19-0.62c-0.01,1.18-0.67,1.28,0.2-1.08
					c-0.2,0.55-0.19,1.19-0.37,1.75c-0.31,0.98-0.61,1.97-0.93,2.95c-0.17,0.55-0.42,1.07-0.62,1.61c1.07-2.78,0.3-0.68,0.02-0.11
					c-1.29,2.6-2.56,5.19-3.99,7.73c-8.34,14.82-18.45,28.67-28.28,42.52c-23.79,33.49-49.22,66.68-67.72,103.52
					c-8.6,17.12-14.61,35.48-21.89,53.17c-8.78,21.33-17.89,42.53-26.56,63.91c-7.91,19.49-15.65,39.14-21.69,59.31
					c-4.31,14.41-8.89,30.52-6.44,45.66c1.74,10.74,9.81,19.51,21.19,18.94c9.27-0.46,17.74-6,24.93-11.42
					c22.77-17.16,41.87-39.23,60.8-60.38c22.04-24.64,43.46-49.87,66.42-73.68c9.03-9.37,18.33-18.48,28.4-26.74
					c0.52-0.43,1.05-0.84,1.58-1.26c-2.18,1.72-0.4,0.3,0.05-0.02c1-0.73,1.99-1.47,3.01-2.18c1.84-1.28,3.72-2.5,5.68-3.61
					c0.87-0.49,1.77-0.92,2.65-1.4c2.7-1.48-1.61,0.33,0.54-0.27c0.78-0.22,1.59-0.51,2.36-0.77c0.36-0.12,0.78-0.13,1.13-0.27
					c1.91-0.75-1.9-0.23-0.86,0.08c0.49,0.15,1.17-0.15,1.7-0.05c2.11,0.4-2.98-0.77-0.47-0.04c2.43,0.7-2.17-1.21-0.41-0.22
					c2.16,1.22-1.76-1.95-0.04-0.07c1.12,1.22-1.74-2.67-0.72-0.88c0.85,1.5-1.15-2.83-0.47-1.14c0.18,0.46,0.31,1.01,0.38,1.5
					c-0.11-0.82-0.05-2.7-0.1-0.28c-0.03,1.39,0,2.75-0.11,4.14c-0.06,0.76-0.19,1.51-0.24,2.27c0.27-3.94-0.02-0.06-0.2,0.96
					c-0.78,4.37-1.86,8.69-3.04,12.98c-7.22,26.25-17.51,51.71-27.2,77.12c-11.98,31.41-24.11,62.78-34.84,94.65
					c-9.66,28.7-18.72,58.04-22.37,88.21c-2.34,19.3-2.61,44.78,15.33,57.13c21.13,14.54,43.74-12,56.12-26.53
					c22.57-26.47,41.77-55.67,62.32-83.68c9.14-12.45,16.76-22.79,27.52-34.55c3.89-4.24,7.97-8.24,12.39-11.92
					c1.69-1.4-1.88,1.31-0.12,0.1c0.47-0.32,0.92-0.67,1.4-0.99c0.88-0.6,1.78-1.17,2.71-1.69c1.04-0.58,3.86-1.3,0.61-0.46
					c0.76-0.2,1.73-0.46,2.44-0.79c1.9-0.89-2.67-0.08,0.01,0c2.82,0.09-2.31-0.6-0.18-0.07c2.54,0.63-2.26-1.13-0.67-0.31
					c1.92,0.98-0.54-0.58-0.48-0.45c0.44,0.9,2.09,2.29,2.83,3.02c-2.49-2.48-0.44-0.56,0.19,0.36c0.63,0.92,1.24,1.86,1.82,2.82
					c2.51,4.1,4.68,8.41,6.73,12.75c1.14,2.42,2.24,4.86,3.31,7.31c0.29,0.67,2.08,4.89,1.17,2.7c0.75,1.8,1.49,3.6,2.22,5.41
					c12.9,31.96,23.35,64.94,33.64,97.81c11.79,37.67,22.95,75.54,34.17,113.38c8.33,28.1,16.32,56.38,25.91,84.09
					c2.27,6.55,4.27,13.16,5.72,19.94c0.69,3.23,1.26,6.48,1.75,9.75c0.44,2.96-0.23-2.06,0.12,0.91c0.1,0.9,0.21,1.79,0.3,2.69
					c0.22,2.09,0.39,4.19,0.52,6.29c0.45,7.26,0.39,14.54-0.14,21.79c-0.13,1.83-0.3,3.66-0.49,5.49c-0.1,0.92-0.21,1.83-0.32,2.75
					c-0.36,3.04,0.31-2.03-0.13,1.01c-0.54,3.69-1.18,7.37-1.95,11.02c-6.67,31.96-20.73,59.6-40.48,86.27
					c-46.88,63.31-120.95,107.24-196.33,131.31c-47.55,15.18-97.13,23.27-146.98,25.02c-49.12,1.72-99.07-1.64-146.89-13.44
					c-36.42-8.99-70.25-22.53-101.38-43.64c-12.8-8.68-23.8-17.71-35.36-29.27c-10.95-10.96-19.42-21.23-27.42-32.86
					c-8.21-11.94-15.4-24.58-21.55-37.7c-1.35-2.89-2.65-5.8-3.91-8.73c-1.14-2.65,0.76,1.86-0.34-0.8c-0.33-0.8-0.66-1.6-0.98-2.4
					c-0.75-1.86-1.48-3.73-2.2-5.61c-2.42-6.38-4.63-12.84-6.63-19.37c-3.9-12.75-7-25.75-9.38-38.87
					c-0.58-3.21-1.12-6.42-1.62-9.64c-0.25-1.6-0.48-3.19-0.71-4.79c-0.08-0.53-0.15-1.06-0.22-1.59c-0.24-1.73,0.19,1.58-0.17-1.32
					c-0.77-6.27-1.45-12.55-1.95-18.85c-1.86-23.17-1.82-46.5-0.14-69.68c0.69-9.56,1.71-19.09,2.93-28.59
					c-0.47,3.62,0.04-0.25,0.16-1.08c0.15-1.04,0.3-2.08,0.45-3.11c0.3-1.99,0.61-3.97,0.93-5.95c0.61-3.73,1.27-7.46,1.98-11.17
					c5.76-29.91,15.64-59.08,24.7-88.1c9.86-31.6,20.39-62.99,31.6-94.14c5.66-15.73,11.49-31.41,17.49-47.02
					c2.69-7.01,5.42-14,8.18-20.98c1.28-3.23,2.44-6.57,3.91-9.71c0.29-0.63,3.23-5.03,3.08-5.29c-0.05-0.09-1.8-0.6-1.81-0.6
					c-0.01,0.01,0.54,0.32,0.57,0.86c0.1,1.53,1.12,3.81,1.33,5.05c1.09,6.28,1.73,12.62,2.92,18.9c2.4,12.6,5.49,25.07,8.67,37.5
					c6.3,24.66,13.9,49.47,17,74.8c0.66,5.36,4.13,10,10,10C354.71,1060.64,360.48,1056.04,359.82,1050.64L359.82,1050.64z"/>
			</g>
		</g>
		<g>
			<g>
				<path class="st3" d="M869.12,876.32c13.73-21.3,27.28-42.75,40.34-64.47c6.65-11.06-10.64-21.13-17.27-10.09
					c-13.05,21.72-26.61,43.17-40.34,64.47C844.86,877.08,862.16,887.12,869.12,876.32L869.12,876.32z"/>
			</g>
		</g>
		<g>
			<g>
				<path class="st4" d="M789.87,697.74c9.09-12.62,20.39-23.62,29.01-36.63c7.13-10.76-10.18-20.79-17.27-10.09
					C793,664,781.7,675.01,772.6,687.64c-3.16,4.39-0.76,11.14,3.59,13.68C781.22,704.27,786.7,702.13,789.87,697.74L789.87,697.74z
					"/>
			</g>
		</g>
		<g>
			<g>
				<path class="st3" d="M757.69,485.73c12.91-11.74,23.99-25.42,36.9-37.17c9.54-8.68-4.63-22.79-14.14-14.14
					c-12.91,11.74-23.99,25.42-36.9,37.17C734,480.27,748.18,494.38,757.69,485.73L757.69,485.73z"/>
			</g>
		</g>
		<g>
			<g>
				<path class="st3" d="M327.4,857.44c5.67-11.82,8.31-24.78,12.14-37.25c5.25-17.11,12.55-33.07,22.91-47.71
					c3.12-4.41,0.79-11.12-3.59-13.68c-5.01-2.93-10.55-0.83-13.68,3.59c-10.73,15.17-18.44,32.06-24.07,49.73
					c-2.17,6.81-4.01,13.71-5.98,20.57c-0.84,2.93-1.7,5.85-2.68,8.74c-1.03,3.05-1.5,4.21-2.33,5.93
					c-2.33,4.87-1.34,10.8,3.59,13.68C318.09,863.58,325.05,862.33,327.4,857.44L327.4,857.44z"/>
			</g>
		</g>
		<ellipse class="st5" cx="523.05" cy="1219.04" rx="26" ry="48"/>
		<ellipse class="st5" cx="635.05" cy="1219.04" rx="26" ry="48"/>
		<g>
			<g>
				<path d="M431.89,1365.29c22.79,41.57,66.29,68.65,112.29,77.08c50.38,9.24,101.5-3.81,144.84-30.15
					c25.04-15.21,47.56-34.54,67.1-56.32c8.57-9.56-5.53-23.75-14.14-14.14c-31.94,35.61-72.35,64.99-118.99,77.57
					c-41.89,11.3-87.19,7-124.99-14.92c-20.41-11.84-37.47-28.47-48.84-49.21C442.97,1343.91,425.69,1353.99,431.89,1365.29
					L431.89,1365.29z"/>
			</g>
		</g>
		<circle class="st6" cx="531.55" cy="1198.04" r="8.5"/>
		<circle class="st6" cx="531.55" cy="1198.04" r="8.5"/>
		<circle class="st6" cx="643.55" cy="1198.04" r="8.5"/>
		<ellipse class="st7" cx="465.58" cy="1289.5" rx="44" ry="19"/>
		<ellipse class="st7" cx="465.58" cy="1289.5" rx="44" ry="19"/>
		<ellipse class="st7" cx="465.58" cy="1289.5" rx="44" ry="19"/>
		<ellipse class="st7" cx="706.12" cy="1286.04" rx="44.5" ry="19"/>
	</g>
</g>
<g id="Ebene_11">
	<g>
		<g id="Ebene_3">
			<g class="st8">
				<g>
					<path d="M695.46,935.92c3.76,0,7.45-8.76,3.32-8.76C695.02,927.16,691.33,935.92,695.46,935.92L695.46,935.92z"/>
				</g>
			</g>
			<g class="st8">
				<path d="M688.92,929.51c4.36,68.46,8.72,136.93,13.07,205.39c64.99-49.52,129.99-99.04,194.98-148.56
					c36.24-27.61,70.45-70.98,117.42-68.55c48.69,2.53,105.21,2.05,151.73,4.46c112.1,5.82,199.65,0.03,310.87-15.03
					c34.03-4.61,86.28-35.35,111.68-58.27c30.93-27.91,34.32-58.41,37.25-99.76c11.38-160.33-16.96-321.26-61.26-475.87
					c-10.99-38.34-25.64-79.89-60.4-99.95c-30.78-17.76-69.12-13.75-104.34-8.55c-279.45,41.25-552.74,123.33-808.27,242.78
					c-28.19,13.18-58.09,28.64-71.94,56.31c-10.94,21.85-12.84,47.92-7.88,71.82c21.09,101.56,32.44,168.67,48.37,275.27
					c4.5,30.09,15.9,77.27,42.26,92.85c25.79,15.25,54.94,15.06,83.44,11.88c2.38,4.6,4.76,9.21,7.14,13.81"/>
				<g>
					<path d="M685.44,931.43c4.36,68.46,8.72,136.93,13.07,205.39c0.18,2.84,2.52,2.87,4.43,1.42
						c49.77-37.92,99.54-75.84,149.31-113.76c22.05-16.8,44.64-33.05,65.55-51.24c17.23-15,34.24-31.12,54.78-41.65
						c10.21-5.24,21.42-8.86,32.96-9.41c13.35-0.64,27.02,0.93,40.39,1.31c28.16,0.82,56.33,1.09,84.49,1.87
						c28.4,0.79,56.76,2.58,85.16,3.18c28.36,0.6,56.74,0.4,85.09-0.69c56.56-2.17,112.9-7.96,168.98-15.43
						c22.09-2.94,42.3-10.83,61.96-21.1c19.65-10.25,38.84-22.39,55.6-36.9c16.44-14.24,28.45-31.97,34.48-52.81
						c6.45-22.3,7.36-46.12,8.65-69.15c3.35-59.99,1.23-120.21-5.1-179.94c-6.23-58.82-16.47-117.19-29.59-174.87
						c-6.61-29.06-13.95-57.96-21.89-86.69c-6.62-23.96-13.06-48.22-23.76-70.78c-9.43-19.89-22.71-38.51-41.94-50.11
						c-22.25-13.41-49.05-15.25-74.44-13.4c-27.8,2.03-55.47,7.15-82.94,11.69c-28.88,4.78-57.7,10-86.43,15.64
						c-114.22,22.47-227.08,51.77-337.76,87.68c-110.32,35.79-218.49,78.12-323.7,126.76c-21.76,10.06-44.26,19.99-62.64,35.64
						c-18.54,15.8-29.77,37.18-33.19,61.14c-3.93,27.49,3.79,54.17,9.16,80.93c5.04,25.17,9.88,50.38,14.45,75.63
						c9.35,51.73,17.49,103.66,25.29,155.64c5.74,38.3,14.5,88.75,54.65,105.89c23.58,10.06,49.53,9.47,74.55,6.73
						c-0.73-0.23-1.45-0.46-2.18-0.69c2.38,4.6,4.76,9.21,7.14,13.81c1.83,3.54,7.72-3.89,5.99-7.23c-2.38-4.6-4.76-9.21-7.14-13.81
						c-0.41-0.8-1.46-0.77-2.18-0.69c-26.8,2.93-55,3.02-79.26-10.25c-18.05-9.88-27.32-29.73-33.56-48.35
						c-6.95-20.72-9.97-42.2-13.22-63.71c-3.95-26.13-8-52.26-12.27-78.34c-8.05-49.18-17.05-98.19-26.92-147.04
						c-5.48-27.14-12.63-53.73-5.56-81.32c6.29-24.54,22.92-41.67,44.27-54.55c21.82-13.17,45.8-23.07,69.02-33.53
						c25.73-11.58,51.62-22.78,77.68-33.61c53.09-22.06,106.86-42.52,161.18-61.38c106.66-37.03,215.5-67.89,325.78-92.36
						c55.82-12.38,112-23.12,168.46-32.2c26.82-4.31,54.04-9.58,81.28-9.99c25.15-0.38,50.31,4.64,70.05,20.94
						c17.48,14.44,28.47,35.29,36.44,56.03c9.27,24.13,15.62,49.44,22.25,74.38c15.04,56.58,27.7,113.82,36.85,171.64
						c9.13,57.66,14.72,115.92,15.62,174.3c0.46,29.33-0.28,58.68-2.31,87.95c-1.52,21.76-2.9,44.46-11.86,64.7
						c-8.63,19.5-24.69,33.64-41.8,45.83c-18.73,13.36-39.19,25.05-60.6,33.64c-22.69,9.1-46.78,10.98-70.89,13.87
						c-28.1,3.37-56.27,6.22-84.5,8.26c-55.1,3.98-110.36,4.67-165.56,2.42c-54.52-2.23-109.12-2.54-163.62-5
						c-11.37-0.51-22.18-0.56-33.21,2.62c-9.79,2.83-19.03,7.35-27.63,12.73c-19.14,11.97-35.48,27.66-52.55,42.24
						c-21.42,18.29-44.59,34.71-66.99,51.78c-24.01,18.29-48.01,36.58-72.02,54.87c-23.42,17.85-46.84,35.69-70.26,53.54
						c1.48,0.47,2.96,0.94,4.43,1.42c-4.36-68.46-8.72-136.93-13.07-205.39C692.05,921.94,685.21,927.75,685.44,931.43
						L685.44,931.43z"/>
				</g>
			</g>
			<g class="st8">
				<g>
					<path d="M1564.63,1096.41c3.76,0,7.45-8.76,3.32-8.76C1564.19,1087.65,1560.5,1096.41,1564.63,1096.41L1564.63,1096.41z"/>
				</g>
			</g>
		</g>
		<g id="Ebene_3_Kopie">
			<g>
				<g>
					<path class="st9" d="M718.02,906.56c3.76,0,7.45-8.76,3.32-8.76C717.58,897.8,713.89,906.56,718.02,906.56L718.02,906.56z"/>
				</g>
			</g>
			<g>
				<path class="st10" d="M711.49,900.15c4.36,68.46,8.72,136.93,13.07,205.39c64.99-49.52,129.99-99.04,194.98-148.56
					c36.24-27.61,70.45-70.98,117.42-68.55c48.69,2.53,105.21,2.05,151.73,4.46c112.1,5.82,199.65,0.03,310.87-15.03
					c34.03-4.61,86.28-35.35,111.68-58.27c30.93-27.91,34.32-58.41,37.25-99.76c11.38-160.33-16.96-321.26-61.26-475.87
					c-10.99-38.34-25.64-79.89-60.4-99.95c-30.78-17.76-69.12-13.75-104.34-8.55c-279.45,41.25-552.74,123.33-808.27,242.78
					c-28.19,13.18-58.09,28.64-71.94,56.31c-10.94,21.85-12.84,47.92-7.88,71.82c21.09,101.56,32.44,168.67,48.37,275.27
					c4.5,30.09,20.5,71.4,42.26,92.85c21.76,21.45,59.12,30.44,83.44,11.88c2.38,4.6,4.76,9.21,7.14,13.81"/>
				<g>
					<path class="st9" d="M708,902.06c4.36,68.46,8.72,136.93,13.07,205.39c0.18,2.84,2.52,2.87,4.43,1.42
						c49.77-37.92,99.54-75.84,149.31-113.76c22.49-17.14,45.48-33.74,66.79-52.33c17.19-14.99,34.27-31.04,54.93-41.27
						c10.06-4.99,21.07-8.31,32.36-8.75c13.11-0.5,26.48,0.97,39.6,1.35c28.81,0.84,57.64,1.1,86.45,1.92
						c28.44,0.81,56.83,2.6,85.28,3.17c28.65,0.57,57.32,0.31,85.96-0.85c56.67-2.29,113.11-8.2,169.3-15.74
						c21.89-2.94,42.43-11.91,61.72-22.26c19.09-10.24,37.84-22.19,54.04-36.58c16.5-14.65,27.99-32.89,33.74-54.09
						c6.19-22.86,6.95-47.32,8.16-70.83c3.09-60,0.75-120.21-5.77-179.92c-6.5-59.51-17.07-118.55-30.57-176.88
						c-6.71-29.04-14.15-57.9-22.16-86.62c-6.48-23.22-13-46.63-23.83-68.3c-10.04-20.07-24.48-38.48-44.82-49.05
						c-22.81-11.85-49.31-12.62-74.42-10.4c-28.62,2.53-57.12,7.74-85.43,12.5c-28.54,4.79-56.99,10.02-85.38,15.66
						c-114.86,22.84-228.32,52.6-339.55,89.04c-110.54,36.21-218.91,79-324.27,128.1c-21.37,9.96-43.34,20.52-60.24,37.27
						c-17.36,17.21-26.3,40.1-28.07,64.18c-1,13.53,0.73,26.68,3.46,39.9c2.89,13.95,5.72,27.91,8.49,41.89
						c4.94,24.91,9.66,49.87,14.12,74.87c4.45,24.98,8.64,50.02,12.65,75.08c4.39,27.5,7.85,55.21,12.76,82.62
						c4,22.39,12.07,44.55,23.37,64.33c11.15,19.52,26.62,36.06,48.49,43.53c19.48,6.65,40.6,5.47,57.44-6.95
						c-1.31,0.1-2.63,0.19-3.94,0.28c2.38,4.6,4.76,9.21,7.14,13.81c1.83,3.54,7.72-3.89,5.99-7.23c-2.38-4.6-4.76-9.21-7.14-13.81
						c-0.82-1.59-3.03-0.39-3.94,0.28c-18.42,13.58-43.95,10.31-63.03-0.11c-20.22-11.04-33.07-30.97-42.32-51.35
						c-9.9-21.78-14.74-44.18-18.28-67.67c-3.97-26.32-8.03-52.64-12.31-78.91c-8.05-49.41-17.04-98.66-26.93-147.74
						c-5.38-26.74-12.89-53.21-7-80.54c5.38-24.97,20.89-43,42.26-56.45c21.64-13.62,45.8-23.52,69.07-34.02
						c26.02-11.75,52.23-23.11,78.59-34.09c52.44-21.83,105.54-42.09,159.19-60.82c107.25-37.41,216.72-68.57,327.67-93.26
						c55.8-12.42,111.99-23.2,168.43-32.31c26.87-4.34,54.15-9.63,81.43-10.28c25.2-0.61,50.62,3.89,70.72,19.9
						c17.73,14.12,28.97,34.81,37.07,55.49c9.5,24.26,15.88,49.78,22.58,74.89c14.98,56.23,27.6,113.11,36.79,170.57
						c9.28,58,14.97,116.61,15.94,175.34c0.48,29.33-0.21,58.68-2.22,87.95c-1.49,21.64-2.79,44.18-11.35,64.42
						c-8.31,19.67-24.06,33.95-41.11,46.26c-18.76,13.55-39.33,25.34-60.81,34.11c-23.03,9.4-47.41,11.36-71.93,14.3
						c-27.78,3.33-55.62,6.15-83.52,8.19c-55.07,4.02-110.3,4.75-165.46,2.53c-27.51-1.1-54.98-2.34-82.51-2.89
						c-27.4-0.54-54.8-0.92-82.18-2.16c-11.09-0.5-21.67-0.58-32.47,2.42c-10.06,2.8-19.55,7.43-28.37,12.94
						c-19.14,11.95-35.48,27.66-52.55,42.24c-21.42,18.29-44.59,34.71-66.99,51.78c-24.01,18.29-48.01,36.58-72.02,54.87
						c-23.42,17.85-46.84,35.69-70.26,53.54c1.48,0.47,2.96,0.94,4.43,1.42c-4.36-68.46-8.72-136.93-13.07-205.39
						C714.61,892.58,707.77,898.39,708,902.06L708,902.06z"/>
				</g>
			</g>
			<g>
				<g>
					<path class="st9" d="M1587.19,1067.04c3.76,0,7.45-8.76,3.32-8.76C1586.75,1058.28,1583.06,1067.04,1587.19,1067.04
						L1587.19,1067.04z"/>
				</g>
			</g>
		</g>
		<g id="Ebene_2_1_">
			<g>
				<g>
					<path d="M709.7,889.05c-18.94,2.2-38.68,3.41-57.37-1.16c-9.01-2.2-17.76-6.02-24.99-11.86c-8.14-6.58-14.19-15.88-19.12-24.97
						c-10.63-19.61-15.8-41.67-20.28-63.32c-5.25-25.39-10.22-50.84-15.32-76.25c-10.45-52.1-20.9-104.21-31.35-156.31
						c-8.62-43-20.61-94.67,9.29-132.48c12.88-16.29,30.76-27.82,49.06-37.31c20.34-10.55,41.71-19.24,62.85-28.09
						c46.8-19.59,94.27-37.62,142.16-54.4c95.19-33.35,192.1-61.7,289.66-87.36c97.42-25.63,195.53-48.59,293.68-71.23
						c23.7-5.47,47.5-12.06,71.67-15.16c22.87-2.94,46.58-1.2,66.21,11.82c34.89,23.15,48.01,68.99,60.51,106.31
						c31.81,95.05,52.03,193.9,60.06,293.72c3.86,47.96,5.59,96.51,2.98,144.58c-2.19,40.36-8.63,82.68-30.22,117.75
						c-22.58,36.68-60.71,56.82-101.86,66.67c-45.26,10.82-92.87,12.27-139.18,14.69c-98.94,5.17-197.99,4.3-297,2.14
						c-25.24-0.55-50.48-1.16-75.72-1.76c-3.76-0.09-7.5,8.66-3.32,8.76c103.28,2.45,206.62,5.22,309.92,2.18
						c50.65-1.49,101.59-3.59,152-8.95c42.35-4.49,86.09-13.34,121.22-38.6c73.15-52.6,73.46-154.69,71.94-235.29
						c-1.93-102.82-16.7-205.45-43.79-304.72c-6.87-25.16-14.53-50.11-22.98-74.8c-7.01-20.48-14.16-41.14-24.58-60.21
						c-9.25-16.93-21.58-32.87-38.47-42.88c-19.68-11.67-42.83-12.9-65.08-10.16c-24.85,3.06-49.32,9.91-73.67,15.53
						c-25.64,5.92-51.29,11.86-76.91,17.86c-50.93,11.93-101.81,24.12-152.53,36.88c-100.95,25.41-201.37,53.12-300.22,85.72
						c-49.5,16.32-98.59,33.86-147.09,52.93c-23.74,9.33-47.35,19.02-70.78,29.1c-20.31,8.74-40.85,17.44-59.54,29.32
						c-17.29,10.99-33.03,24.87-43.2,42.78c-11.15,19.64-14.5,42.28-13.63,64.56c0.93,23.68,6.08,46.98,10.73,70.14
						c5.37,26.78,10.74,53.55,16.11,80.33c10.55,52.57,20.13,105.44,31.8,157.77c4.79,21.5,11.07,43.15,22.99,61.95
						c10.86,17.14,25.64,27.88,45.7,32.05c18.39,3.82,37.52,2.48,56.04,0.33C711.65,897.24,714.7,888.47,709.7,889.05L709.7,889.05z
						"/>
				</g>
			</g>
			<g>
				<g>
					<path d="M704.92,847.46c1.73,34.22,3.15,68.46,4.56,102.71c1.5,36.62,2.94,73.25,4.53,109.88c0.8,18.46,1.63,36.92,2.57,55.37
						c0.1,1.86,1.72,3.27,3.55,2.03c44.71-30.21,88.51-61.76,131.24-94.67c44.02-33.92,86.95-69.29,127.98-106.72
						c21.91-19.99,43.24-40.6,63.75-62.01c1.28-1.33,2.51-4.44,1.22-6.1c-1.42-1.84-3.69-0.01-4.77,1.13
						c-36.68,38.3-76.12,73.97-116.74,108.11c-42.27,35.52-85.99,69.36-130.69,101.84c-23.74,17.25-47.79,34.1-72.11,50.54
						c1.19,0.68,2.36,1.35,3.55,2.03c-1.73-34.22-3.15-68.46-4.56-102.71c-1.5-36.62-2.94-73.25-4.53-109.88
						c-0.8-18.46-1.63-36.92-2.57-55.37c-0.1-2.08-1.69-2.94-3.55-2.03C706.39,842.55,704.81,845.31,704.92,847.46L704.92,847.46z"
						/>
				</g>
			</g>
			<g>
				<g>
					<path d="M1678.94,725.3c-2.3,39.93-17.31,78.97-42.15,110.46c-25.57,32.42-61.32,55.87-101.11,67.43
						c-22.71,6.6-46.4,9.31-70.01,7.85c-3.75-0.23-7.55,8.5-3.32,8.76c43.79,2.71,88.17-8.7,125.27-31.89
						c36.71-22.93,65.2-57.11,82.01-96.67c9.41-22.15,14.9-45.8,16.29-69.78c0.12-2.14-1.85-2.87-3.55-2.03
						C1680.24,720.47,1679.06,723.08,1678.94,725.3L1678.94,725.3z"/>
				</g>
			</g>
		</g>
		<g id="Ebene_4_1_">
			<g>
				<g>
					<path d="M875.12,378.03c-2.76,61.35-5.53,122.7-8.29,184.04s-5.53,122.7-8.29,184.04c-1.55,34.39-3.1,68.78-4.65,103.17
						c-0.21,4.58,19.1,5.01,19.33,0c2.76-61.35,5.53-122.7,8.29-184.04s5.53-122.7,8.29-184.04c1.55-34.39,3.1-68.78,4.65-103.17
						C894.65,373.46,875.35,373.03,875.12,378.03L875.12,378.03z"/>
				</g>
			</g>
			<g>
				<g>
					<path d="M1130.86,378.12c-4.34,61.04-8.69,122.07-13.02,183.11c-4.34,61.04-8.69,122.07-13.02,183.11
						c-2.44,34.33-4.88,68.67-7.33,103c-0.32,4.46,18.97,5.1,19.33,0c4.34-61.04,8.69-122.07,13.02-183.11
						c4.34-61.04,8.69-122.07,13.02-183.11c2.44-34.33,4.88-68.67,7.33-103C1150.5,373.66,1131.22,373.02,1130.86,378.12
						L1130.86,378.12z"/>
				</g>
			</g>
			<g>
				<g>
					<path d="M885.8,616.47c60.03-2.8,120.27-2.59,180.22,0.89c17.02,0.99,34.03,2.23,51.02,3.71c2.44,0.21,5.04,0.17,7.45-0.34
						c1.02-0.22,3.82-0.84,4.44-2c1.65-3.1-5.16-3.98-6.75-4.12c-61.36-5.35-123.02-7.56-184.6-6.5
						c-17.26,0.29-34.52,0.86-51.76,1.66c-2.14,0.1-9.49,0.06-9.66,3.35C875.97,616.18,884.28,616.54,885.8,616.47L885.8,616.47z"/>
				</g>
			</g>
			<g>
				<g>
					<path d="M1254.84,611.66c-3.83,63.48-7.65,126.96-11.48,190.43c-1.07,17.78-2.15,35.54-3.22,53.32
						c-0.27,4.51,19.03,5.06,19.33,0c3.83-63.48,7.65-126.96,11.48-190.43c1.07-17.78,2.15-35.54,3.21-53.32
						C1274.44,607.15,1255.15,606.6,1254.84,611.66L1254.84,611.66z"/>
				</g>
			</g>
			<g>
				<g>
					<path d="M1279.39,487.73c-8.8-9-25.77-8.89-36.58-3.86c-9.52,4.42-15.08,14.02-17.72,23.75c-2.46,9.04-2.16,18.84,1.86,27.4
						c4.4,9.37,13.74,14.81,23.74,16.56c22.5,3.96,46.07-5.31,57.03-25.64c9.07-16.84,9.12-37.98-1.93-53.96
						c-14.29-20.65-41.4-27.75-65.34-23.83c-2.26,0.37-6.77,2.25-3.47,4.58c3.37,2.39,9.45,1.82,13.22,1.2
						c-1.22,0.2,0.96-0.1,1.31-0.15c1.83-0.23-0.78-0.07,1.06-0.08c0.45,0,0.91,0,1.36,0c1.57-0.01-1.41-0.12,0.15-0.01
						c1.06,0.07,2.11,0.17,3.16,0.31c-1.25-0.17,0.93,0.19,1.28,0.26c0.89,0.18,1.78,0.37,2.66,0.61c0.86,0.24,3.5,1.16,4.95,1.76
						c6.78,2.8,12.91,7.35,17.69,12.85c10.36,11.91,13.43,27.95,9.7,43.1c-3.49,14.15-13.91,28.33-28.3,32.45
						c-0.44,0.13-1.53,0.36-2.21,0.5c-1.01,0.21-0.21,0.07,0.01,0.04c-0.46,0.07-0.92,0.1-1.38,0.15c-1.13,0.13,0.07,0.03,0.27,0.03
						c-0.46,0.02-0.91,0.01-1.37,0.01c-1.16,0,0.12,0.03,0.29,0.02c-0.3-0.03-0.6-0.06-0.9-0.08c0.67,0.12,0.69,0.12,0.08,0.01
						c-2.44-0.44-5.59-1.86-8.02-3.88c-5.9-4.94-8.59-12.51-9.07-19.96c-0.55-8.65,1.56-17.59,6.17-24.98
						c2.31-3.71,5.46-7.5,9.61-9.28c0.73-0.31,0.86-0.13,1.21-0.34c0.68-0.4,0.34,0.04-0.08,0.03c-0.36,0-1.47-0.08-1.85,0.04
						c-0.71,0.22-0.44-0.22,0.33,0.28c0.91,0.6,1.68,1.09,2.45,1.87c2.73,2.8,8.29,2.69,11.89,2.34
						C1273.72,491.75,1281.87,490.27,1279.39,487.73L1279.39,487.73z"/>
				</g>
			</g>
		</g>
	</g>
</g>
</svg>
