<?xml version="1.0" encoding="utf-8"?>
<!-- Generator: Adobe Adobe Illustrator 24.2.0, SVG Export Plug-In . SVG Version: 6.00 Build 0)  -->
<svg version="1.1" xmlns="http://www.w3.org/2000/svg" xmlns:xlink="http://www.w3.org/1999/xlink" x="0px" y="0px"
	 viewBox="0 0 1700.79 1700.79" style="enable-background:new 0 0 1700.79 1700.79;" xml:space="preserve">
<style type="text/css">
	.st0{fill:#C8354F;}
	.st1{opacity:0.7608;}
	.st2{fill:#F3C15A;}
	.st3{fill:#DB7B39;}
	.st4{fill:#DC7B3A;}
	.st5{stroke:#000000;stroke-miterlimit:10;}
	.st6{fill:#FFFFFF;}
	.st7{fill:#A22E49;}
	.st8{fill:#C93550;}
	.st9{opacity:0.149;}
	.st10{opacity:0.0314;}
</style>
<g id="Ebene_7">
</g>
<g id="Ebene_4">
</g>
<g id="Ebene_5">
</g>
<g id="Ebene_9">
</g>
<g id="Ebene_6">
</g>
<g id="Ebene_8">
</g>
<g id="Ebene_10">
	<g>
		<g>
			<path class="st0" d="M370.6,843.12c47.03-139.68,43.39-161.58,26.31-158.76c-170.61,28.2-640.35,1022.99,246.64,928.5
				c636.06-67.75,335.18-476.04,297.38-589.89c-74.5-224.41,81.37-307.35,27.05-329.7c-32.53-13.38-215.11,250.85-228.09,247.23
				c-34.44-9.62,184.88-363.65,157.94-392.94C863.8,510.58,706.5,731.28,679.28,716.61C625.25,687.51,889.19,428.28,859.39,391
				c-20.46-25.59-166.28,42.9-299.86,175.55c-78.41,77.87-127.88,184.83-188.75,277.06"/>
			<g>
				<path d="M380.26,845.7c11.97-35.61,24-71.48,32.53-108.11c2.17-9.32,4.17-18.76,5.06-28.29c0.52-5.51,0.99-11.61-0.53-17.02
					c-6.16-21.9-35.59-12.23-49.39-4.98c-18.47,9.7-34.49,24.05-48.91,38.94c-19.29,19.92-36.33,42.01-52.04,64.82
					c-18.95,27.52-35.99,56.38-51.54,85.95c-17.11,32.53-32.38,66.03-45.8,100.24c-14.01,35.69-26.03,72.18-35.65,109.3
					c-9.54,36.8-16.75,74.26-20.76,112.08c-3.88,36.65-4.79,73.76-1.42,110.49c3.18,34.65,10.28,69.07,22.66,101.63
					c12.13,31.91,29.22,61.94,51.41,87.94c24.13,28.26,53.52,51.62,86.07,69.48c38.85,21.32,81.34,35.29,124.72,43.91
					c54.73,10.88,110.8,13.84,166.5,12.15c73.07-2.22,146.79-11.05,217.99-27.75c55.96-13.12,112.08-31.74,160.91-62.66
					c34.78-22.02,65.25-50.41,85.59-86.48c17.07-30.27,25.55-64.47,26.77-99.08c1.23-34.74-4.09-69.37-12.98-102.89
					c-8.77-33.09-20.93-65.19-34.54-96.57c-11.91-27.47-25.09-54.35-37.88-81.41c-2.17-4.6-4.76-10.12-7.26-15.66
					c-2.2-4.88-4.36-9.79-6.38-14.75c-9.44-23.1-15.7-47.73-20.04-72.25c-10.34-58.39-4.88-117.46,17.95-172.25
					c7.25-17.41,16.13-34,24.74-50.76c5.08-9.88,11.99-21.42,11.33-32.97c-0.68-11.91-14.05-20.15-24.88-21.3
					c-13.08-1.4-24.6,8.76-33.72,16.78c-15.15,13.33-28.72,28.49-41.99,43.65c-16.89,19.3-33.14,39.15-49.21,59.14
					c-28.8,35.8-56.47,72.58-86.11,107.71c-4.33,5.13-8.7,10.26-13.39,15.07c-1.53,1.57-3.12,3.05-4.74,4.53
					c-1.02,0.93-1.37,1.39-0.75,0.66c-0.25,0.29-1.02,0.67-1.4,0.74c3.89-0.67,8.56-0.21,11.66,1.48c-0.25-0.14,2.72,1.51,1.52,1.2
					c-0.05-0.01,0.13,1.08-0.09-0.37c-0.12-0.77-0.28-1.52-0.38-2.3c-0.2-1.6-0.14,0.45-0.01-1.42c0.08-1.1,0.19-2.19,0.34-3.28
					c0.36-2.5,0.92-4.97,1.56-7.41c3.84-14.84,10.07-29.12,16.22-43.12c8.79-20.01,18.31-39.68,27.97-59.28
					c22.56-45.79,46.11-91.09,68.54-136.95c9.97-20.4,19.77-40.9,28.8-61.74c6.7-15.46,13.33-31.19,17.69-47.5
					c2.13-7.98,5.5-19.78,0.17-27.23c-9.4-13.16-28.98-11.14-41.65-4.99c-17.36,8.43-32.4,22.27-46.42,35.27
					c-18.38,17.05-35.75,35.16-53.08,53.27c-16.56,17.32-32.96,34.84-50.18,51.51c-11.02,10.67-22.5,22.6-36.07,28.59
					c-1.62,0.72,0.63-0.18-0.19,0.1c-0.42,0.14-0.87,0.16-1.28,0.3c-1.53,0.52,1.96-0.01,0.46-0.04c-0.61-0.01,2.42,0.29,3.09,0.45
					c-0.41-0.1,2.6,1.03,3.03,1.27c-0.64-0.34-1.06-1.19-0.43-0.21c1,1.58-0.41-0.39-0.43-0.44c-0.54-1.32,0.87,1.37-0.11-0.11
					c-1.59-2.41-1.22-1.2-1.9-4.37c-0.62-2.89-0.51-3.35-0.28-5.83c1.29-14.27,9.21-28.19,16.17-40.36
					c23.22-40.55,52.95-77.51,81.19-114.6c27.32-35.89,56.23-71.54,78.69-110.78c6.05-10.58,13.41-23.01,13.6-35.58
					c0.23-15.41-16.87-20.71-29.75-21.02c-20.82-0.51-42.1,8.19-60.81,16.36c-31.09,13.58-60.5,31.05-88.67,49.87
					c-36.04,24.06-70.28,50.82-102.63,79.64c-33.79,30.1-65.02,62.25-92.07,98.59c-50.71,68.13-89.02,144.32-135.66,215.12
					c-4.32,6.56,14.37,12.97,17.94,7.56c47.76-72.51,86.79-150.72,139.36-220.05c27-35.61,58.23-67.08,91.69-96.62
					c32.19-28.42,66.21-54.9,102.12-78.46c27.24-17.88,55.65-34.49,85.66-47.33c10.55-4.52,21.35-8.63,32.52-11.34
					c2-0.48,4.01-0.93,6.03-1.31c1.07-0.2,2.15-0.37,3.23-0.55c1.24-0.2,2.57-0.34,2.02-0.29c1.73-0.17,3.46-0.22,5.19-0.27
					c0.72-0.02,3.35,0.24,0.69-0.03c0.76,0.08,1.54,0.2,2.3,0.25c1.44,0.09-2.36-0.71,0.01,0c2.02,0.61-0.61-0.3-0.41-0.19
					c2,1.06-0.25-0.3-0.11-0.14c1.33,1.55-0.33-0.35,0.17,0.05c1.15,0.91-0.01-0.14,0.04-0.08c0.27,0.3,0.59,0.69,0.76,1.06
					c0.38,0.78,0.36,0.73,0-0.15c0.19,0.45,0.4,0.92,0.5,1.4c0.89,4.08,0.47,7.13-0.99,12.19c-4.19,14.51-12.77,27.89-20.87,40.46
					c-25.48,39.54-55.15,76.36-83.51,113.83c-26.34,34.8-54.47,70.05-74.03,109.28c-5.3,10.63-11.63,23.83-9.56,36.09
					c2.17,12.92,17.31,19.97,29.25,16.74c13.88-3.76,25.93-16.35,36.07-25.86c16.83-15.77,32.65-32.61,48.57-49.28
					c17.25-18.06,34.47-36.18,52.49-53.49c14.3-13.73,29.19-28.04,46.38-38.14c3.13-1.84,6.35-3.44,9.7-4.83
					c2.19-0.91,0.54-0.42,2.89-0.95c1.18-0.27,4.48-1.15,2.38-0.52c0.31-0.09,2.64-0.56,0.88-0.08c-1.23,0.33-0.26,0.06,0.56,0.11
					c-2.62-0.16-2.17-0.48-1.35-0.25c0.83,0.23,1.05,0.64-1.31-0.48c1.95,0.93-1.26-0.93-0.27-0.21c1.31,0.96-0.4,0.09-0.01-0.06
					c-0.13,0.05,2.79,2.12,0.19,0.02c0.65,0.53,1.17,2.32,0.48,0.49c1.6,4.24,1.15,6.03,0.6,10.16c-0.78,5.91-2.39,11.72-4.14,17.4
					c-11.94,38.62-31.04,75.38-48.85,111.53c-22.18,45.01-45.32,89.54-67.39,134.61c-9.33,19.05-18.53,38.19-26.93,57.68
					c-5.73,13.3-11.63,26.95-14.88,41.12c-2.14,9.36-2.72,18.84,7.52,23.29c12.45,5.4,19.72-3.48,27.27-11.86
					c27.88-30.94,52.67-64.84,78.57-97.42c29.96-37.69,59.88-76.07,93.88-110.26c9.99-10.05,20.1-20,32.06-25.85
					c2.25-1.1-0.5,0.55,1.35-0.47c0.36-0.2,0.94-0.16,1.34-0.25c-2.32,0.51-0.05,0.24-1.53,0.1c-0.19-0.02-3.33-0.6-2.44-0.37
					c0.54,0.14-3.14-1.13-0.81-0.2c1.79,0.71-0.32-0.21-0.21-0.14c0.58,0.35,1.17,0.69,1.76,1.03c1.78,1.04-0.9-0.73-0.05-0.06
					c0.36,0.29,0.71,0.59,1.04,0.91c1.18,1.13,0.1,0.08,0.03-0.01c0.32,0.44,0.67,0.84,0.95,1.31c1.1,1.85,0.2-0.21,0.63,1.25
					c0.27,0.92,0.48,1.81,0.65,2.75c0.21,1.13,0.12,2.2,0.13,1.82c-0.05,1.1-0.18,2.18-0.36,3.26c-0.42,2.49-1.17,4.93-2.01,7.3
					c-2.15,6.07-5.06,11.86-7.97,17.58c-8.24,16.19-16.92,32.14-24.1,48.85c-22.56,52.44-29.54,109.2-21.65,165.72
					c5.47,39.15,17.12,75.97,33.77,111.55c12.22,26.12,24.71,51.34,36.33,77.56c13.6,30.7,25.94,62.05,35.23,94.34
					c9.42,32.75,15.89,66.75,15.98,100.93c0.1,33.66-6.5,67.45-21.28,97.81c-17.01,34.94-44.67,63.77-76.36,85.84
					c-44.9,31.26-97.57,50.62-150.19,64.28c-69.96,18.17-142.63,27.68-214.77,31.09c-55,2.6-110.43,0.95-164.74-8.6
					c-20.91-3.68-43.38-9.12-64.64-16.07c-4.55-1.49-8.17-2.75-13.74-4.83c-4.77-1.78-9.51-3.66-14.21-5.62
					c-8.73-3.66-18.9-8.42-25.72-12c-31.58-16.55-59.81-37.67-83.09-64.14c-22.06-25.09-39.41-54.1-51.58-85.19
					c-12.48-31.88-19.83-65.6-23.33-99.61c-3.67-35.72-3.09-71.76,0.4-107.47c3.67-37.51,10.53-74.68,19.73-111.21
					c9.22-36.64,20.79-72.68,34.32-107.96c13.02-33.96,27.85-67.23,44.48-99.58c15.09-29.36,31.66-57.98,50.08-85.37
					c15.54-23.1,32.38-45.47,51.35-65.88c7.83-8.42,16.04-16.51,24.8-23.95c8.06-6.85,13.9-11.24,22.29-16.13
					c3.55-2.07,7.21-3.96,10.99-5.57c1.77-0.75,3.56-1.42,5.37-2.06c1.39-0.5-1.43,0.43-0.29,0.09c0.44-0.13,0.87-0.28,1.31-0.39
					c0.86-0.23,1.72-0.48,2.58-0.69c0.79-0.19,1.59-0.34,2.39-0.52c1.71-0.38,2.92,0.35,0.64-0.2c1.51,0.36,1.96,0.19-0.36-0.15
					c1.71,0.25-0.94-0.21-1.41-0.34c1.88,0.52-1.55-0.6-1.29-0.49c-0.74-0.31-1.42-0.69-2.04-1.25c1,0.9-0.19-1.53,0.23,0.32
					c0.42,1.84,0-0.67,0.49,0.98c0.27,0.92,0.54,1.82,0.73,2.76c2.64,13.5-2.41,30.61-5.73,44.39
					c-8.54,35.42-20.11,70.15-31.71,104.66C358.79,846.91,377.98,852.49,380.26,845.7L380.26,845.7z"/>
			</g>
		</g>
		<g class="st1">
			<path class="st2" d="M349.82,1050.64c-4.54-38.4-24.04-92.8-28.58-131.19c-0.74-6.26-2.76-13.99-8.95-15.17
				c-6.73-1.29-11.44,6.32-13.99,12.69c-31.47,78.56-58.63,158.85-81.33,240.38c-14.12,50.71-74.17,390.24,287.55,418.86
				c311.57,24.65,513.96-182.1,460.72-333.61c-24.07-68.49-91.6-328.16-117.73-337.31c-31.8-11.13-121.6,170.94-158.07,164.19
				c-67.84-23.75,91.81-316.24,70.16-337.89c-29.31-29.31-177.67,198.69-210.55,178.12c-25.03-15.66,36.85-138.07,61.85-206.09
				c25-68.01,130.79-180.1,108.09-187.89c-75.25-25.81-288.93,328.61-365.56,531.88"/>
			<g>
				<path class="st3" d="M359.82,1050.64c-3.4-27.78-11.25-54.75-18.14-81.81c-3.28-12.87-6.46-25.79-8.81-38.87
					c-2.08-11.57-1.59-26.85-13.28-33.52c-14.59-8.33-26.01,5.84-30.94,17.86c-6.47,15.78-12.52,31.76-18.51,47.72
					c-11.75,31.31-22.82,62.88-33.2,94.67c-10.38,31.79-20.08,63.8-29.07,96.02c-1.5,5.37-2.8,10.78-3.94,16.23
					c-3.58,17.18-5.96,34.65-7.53,52.12c-4.44,49.53-1.65,100.43,11.44,148.54c16.18,59.5,49.44,112.65,98.79,150.09
					c69.2,52.52,159.82,68,244.72,68.5c97.95,0.58,197.93-21.86,281.96-73.41c62.81-38.53,120.2-95.65,142.12-167.69
					c9.08-29.86,11.07-61.94,3.79-92.41c-2.91-12.17-7.54-23.95-11.3-35.88c-4.66-14.78-9.11-29.62-13.54-44.47
					c-21.82-73.16-41.88-147.28-68.89-218.76c-4.8-12.7-9.81-25.43-15.95-37.55c-3.72-7.33-8.24-16.2-15.51-20.64
					c-8.81-5.38-19.29-1.5-26.94,4.05c-10.73,7.78-19.44,18.03-27.7,28.29c-22.37,27.78-41.93,57.69-63.46,86.11
					c-7.77,10.25-17.73,22.9-28.16,32.94c-2.06,1.98-4.23,3.82-6.39,5.69c-1.69,1.46,1.38-1,0.23-0.16
					c-0.42,0.31-0.83,0.63-1.26,0.93c-1.13,0.78-2.25,1.56-3.43,2.26c-0.92,0.55-1.9,0.99-2.82,1.51c-1.67,0.95,2.35-0.76,0.57-0.23
					c-0.45,0.13-0.87,0.35-1.33,0.46c-1.63,0.41-3.22-0.06-0.32,0.29c-0.79-0.1-2-0.04-2.8,0.02c1.78-0.14,2.56,0.28,1.04-0.07
					c2.75,0.64,1.61,0.82,0.76,0.29c-0.72-0.45-1.52-0.87-2.26-1.29c-2.5-1.39,1.08,1.35-0.35-0.25c-0.55-0.61-1.2-1.27-1.81-1.82
					c-1.62-1.45,1.18,2.12-0.3-0.39c-0.46-0.78-0.96-1.52-1.39-2.31c-0.45-0.83-1.55-3.92-0.37-0.58c-0.38-1.09-0.8-2.15-1.13-3.26
					c-0.61-2.05-0.99-4.13-1.38-6.23c-0.39-2.06,0.19,2.54,0.05,0.41c-0.04-0.58-0.13-1.16-0.19-1.74
					c-0.13-1.41-0.22-2.82-0.28-4.23c-0.21-5.42,0.07-10.85,0.6-16.25c0.15-1.48,0.32-2.97,0.5-4.45c0.31-2.6-0.33,2.24,0.05-0.38
					c0.11-0.77,0.22-1.55,0.34-2.32c0.53-3.49,1.15-6.97,1.83-10.44c1.36-6.94,2.97-13.83,4.74-20.68
					c4.02-15.62,8.83-31.04,13.94-46.34c10.99-32.86,23.52-65.19,35.86-97.56c9.71-25.47,20.07-51.02,27.17-77.38
					c3.76-13.98,9.81-38.42-10.24-42.85c-9.4-2.08-18.96,2.91-26.49,8.04c-10.54,7.17-19.98,15.96-29.02,24.91
					c-23.26,23.01-44.52,48.02-66.21,72.49c-19.8,22.33-39.54,45.57-62.52,64.74c-1.05,0.88-2.12,1.73-3.19,2.59
					c-1.81,1.46,1.79-1.33-0.04,0.04c-0.51,0.38-1.01,0.76-1.52,1.13c-2.02,1.48-4.1,2.91-6.25,4.2c-1.71,1.02-3.53,1.8-5.25,2.77
					c2.91-1.64,0.95-0.33-0.04-0.05c-0.86,0.24-1.83,0.42-2.66,0.73c-2.05,0.77,2.89-0.18,0.2-0.05c-1.08,0.05-3.57-0.43,0.41,0.22
					c-0.61-0.1-1.18-0.28-1.76-0.49c3.19,1.15,2.09,0.93,1.31,0.49c-1.92-1.1,1.48,1.51,0.33,0.31c-2.1-2.19,0.81,1.55-0.43-0.52
					c-1.13-1.87,0.32,2.15-0.37-0.91c-0.19-0.84-0.77-4.66-0.44-1.35c-0.16-1.56-0.25-3.11-0.25-4.67c0-1.24,0.06-2.48,0.14-3.72
					c0.05-0.76,0.58-5.39,0.26-3.05c0.56-4.04,1.39-8.05,2.33-12.02c2.18-9.25,5.03-18.34,8.09-27.33
					c7.23-21.27,15.75-42.09,24.37-62.83c8.62-20.74,17.5-41.38,25.79-62.26c7.07-17.82,12.85-32.63,22.68-49.58
					c21.09-36.32,46.99-69.51,70.74-104.07c8.47-12.32,42.87-56.56,11.69-63.8c-20.75-4.83-41.06,8.5-56.62,20.61
					c-24.2,18.83-44.65,42.42-63.81,66.2c-26.22,32.55-50.21,66.87-72.99,101.9c-50.18,77.18-95.14,158.04-134.75,241.14
					c-17.13,35.94-33.26,72.43-47.33,109.68c-1.91,5.05,2.12,10.96,6.98,12.3c5.62,1.54,10.39-1.91,12.3-6.98
					c30.06-79.59,69.11-156.67,110.87-231.17c41.45-73.95,86.85-148.12,139.76-213.6c18.8-23.27,38.87-46.38,62.53-64.88
					c-2.07,1.62,1.47-1.1,2.05-1.52c1.13-0.83,2.27-1.64,3.43-2.44c2.35-1.62,4.75-3.18,7.22-4.64c1.92-1.13,3.87-2.21,5.87-3.2
					c1.03-0.51,2.07-0.98,3.1-1.46c1.88-0.88-2.27,0.87-0.36,0.15c0.67-0.25,1.33-0.52,2-0.77c1.75-0.63,3.52-1.19,5.33-1.63
					c0.93-0.22,1.87-0.36,2.8-0.58c0.89-0.21,2.35,0.01-0.83,0.09c0.6-0.01,1.19-0.15,1.79-0.17c1.56-0.04,3.2,0.17,4.74,0.06
					c1.66-0.12-2.54-0.74-1-0.14c0.37,0.14,0.83,0.12,1.22,0.23c0.73,0.2,2.03,0.8,2.76,0.76c-0.93,0.05-2.99-1.87-2.43-1.31
					c-1.76-1.77-1.5-2.04-0.94-1.09c-1.37-2.31-0.89-2.33-0.62-1.26c0.15,0.56-0.17-3.09-0.19-0.62c-0.01,1.18-0.67,1.28,0.2-1.08
					c-0.2,0.55-0.19,1.19-0.37,1.75c-0.31,0.98-0.61,1.97-0.93,2.95c-0.17,0.55-0.42,1.07-0.62,1.61c1.07-2.78,0.3-0.68,0.02-0.11
					c-1.29,2.6-2.56,5.19-3.99,7.73c-8.34,14.82-18.45,28.67-28.28,42.52c-23.79,33.49-49.22,66.68-67.72,103.52
					c-8.6,17.12-14.61,35.48-21.89,53.17c-8.78,21.33-17.89,42.53-26.56,63.91c-7.91,19.49-15.65,39.14-21.69,59.31
					c-4.31,14.41-8.89,30.52-6.44,45.66c1.74,10.74,9.81,19.51,21.19,18.94c9.27-0.46,17.74-6,24.93-11.42
					c22.77-17.16,41.87-39.23,60.8-60.38c22.04-24.64,43.46-49.87,66.42-73.68c9.03-9.37,18.33-18.48,28.4-26.74
					c0.52-0.43,1.05-0.84,1.58-1.26c-2.18,1.72-0.4,0.3,0.05-0.02c1-0.73,1.99-1.47,3.01-2.18c1.84-1.28,3.72-2.5,5.68-3.61
					c0.87-0.49,1.77-0.92,2.65-1.4c2.7-1.48-1.61,0.33,0.54-0.27c0.78-0.22,1.59-0.51,2.36-0.77c0.36-0.12,0.78-0.13,1.13-0.27
					c1.91-0.75-1.9-0.23-0.86,0.08c0.49,0.15,1.17-0.15,1.7-0.05c2.11,0.4-2.98-0.77-0.47-0.04c2.43,0.7-2.17-1.21-0.41-0.22
					c2.16,1.22-1.76-1.95-0.04-0.07c1.12,1.22-1.74-2.67-0.72-0.88c0.85,1.5-1.15-2.83-0.47-1.14c0.18,0.46,0.31,1.01,0.38,1.5
					c-0.11-0.82-0.05-2.7-0.1-0.28c-0.03,1.39,0,2.75-0.11,4.14c-0.06,0.76-0.19,1.51-0.24,2.27c0.27-3.94-0.02-0.06-0.2,0.96
					c-0.78,4.37-1.86,8.69-3.04,12.98c-7.22,26.25-17.51,51.71-27.2,77.12c-11.98,31.41-24.11,62.78-34.84,94.65
					c-9.66,28.7-18.72,58.04-22.37,88.21c-2.34,19.3-2.61,44.78,15.33,57.13c21.13,14.54,43.74-12,56.12-26.53
					c22.57-26.47,41.77-55.67,62.32-83.68c9.14-12.45,16.76-22.79,27.52-34.55c3.89-4.24,7.97-8.24,12.39-11.92
					c1.69-1.4-1.88,1.31-0.12,0.1c0.47-0.32,0.92-0.67,1.4-0.99c0.88-0.6,1.78-1.17,2.71-1.69c1.04-0.58,3.86-1.3,0.61-0.46
					c0.76-0.2,1.73-0.46,2.44-0.79c1.9-0.89-2.67-0.08,0.01,0c2.82,0.09-2.31-0.6-0.18-0.07c2.54,0.63-2.26-1.13-0.67-0.31
					c1.92,0.98-0.54-0.58-0.48-0.45c0.44,0.9,2.09,2.29,2.83,3.02c-2.49-2.48-0.44-0.56,0.19,0.36c0.63,0.92,1.24,1.86,1.82,2.82
					c2.51,4.1,4.68,8.41,6.73,12.75c1.14,2.42,2.24,4.86,3.31,7.31c0.29,0.67,2.08,4.89,1.17,2.7c0.75,1.8,1.49,3.6,2.22,5.41
					c12.9,31.96,23.35,64.94,33.64,97.81c11.79,37.67,22.95,75.54,34.17,113.38c8.33,28.1,16.32,56.38,25.91,84.09
					c2.27,6.55,4.27,13.16,5.72,19.94c0.69,3.23,1.26,6.48,1.75,9.75c0.44,2.96-0.23-2.06,0.12,0.91c0.1,0.9,0.21,1.79,0.3,2.69
					c0.22,2.09,0.39,4.19,0.52,6.29c0.45,7.26,0.39,14.54-0.14,21.79c-0.13,1.83-0.3,3.66-0.49,5.49c-0.1,0.92-0.21,1.83-0.32,2.75
					c-0.36,3.04,0.31-2.03-0.13,1.01c-0.54,3.69-1.18,7.37-1.95,11.02c-6.67,31.96-20.73,59.6-40.48,86.27
					c-46.88,63.31-120.95,107.24-196.33,131.31c-47.55,15.18-97.13,23.27-146.98,25.02c-49.12,1.72-99.07-1.64-146.89-13.44
					c-36.42-8.99-70.25-22.53-101.38-43.64c-12.8-8.68-23.8-17.71-35.36-29.27c-10.95-10.96-19.42-21.23-27.42-32.86
					c-8.21-11.94-15.4-24.58-21.55-37.7c-1.35-2.89-2.65-5.8-3.91-8.73c-1.14-2.65,0.76,1.86-0.34-0.8c-0.33-0.8-0.66-1.6-0.98-2.4
					c-0.75-1.86-1.48-3.73-2.2-5.61c-2.42-6.38-4.63-12.84-6.63-19.37c-3.9-12.75-7-25.75-9.38-38.87
					c-0.58-3.21-1.12-6.42-1.62-9.64c-0.25-1.6-0.48-3.19-0.71-4.79c-0.08-0.53-0.15-1.06-0.22-1.59c-0.24-1.73,0.19,1.58-0.17-1.32
					c-0.77-6.27-1.45-12.55-1.95-18.85c-1.86-23.17-1.82-46.5-0.14-69.68c0.69-9.56,1.71-19.09,2.93-28.59
					c-0.47,3.62,0.04-0.25,0.16-1.08c0.15-1.04,0.3-2.08,0.45-3.11c0.3-1.99,0.61-3.97,0.93-5.95c0.61-3.73,1.27-7.46,1.98-11.17
					c5.76-29.91,15.64-59.08,24.7-88.1c9.86-31.6,20.39-62.99,31.6-94.14c5.66-15.73,11.49-31.41,17.49-47.02
					c2.69-7.01,5.42-14,8.18-20.98c1.28-3.23,2.44-6.57,3.91-9.71c0.29-0.63,3.23-5.03,3.08-5.29c-0.05-0.09-1.8-0.6-1.81-0.6
					c-0.01,0.01,0.54,0.32,0.57,0.86c0.1,1.53,1.12,3.81,1.33,5.05c1.09,6.28,1.73,12.62,2.92,18.9c2.4,12.6,5.49,25.07,8.67,37.5
					c6.3,24.66,13.9,49.47,17,74.8c0.66,5.36,4.13,10,10,10C354.71,1060.64,360.48,1056.04,359.82,1050.64L359.82,1050.64z"/>
			</g>
		</g>
		<g>
			<g>
				<path class="st3" d="M869.12,876.32c13.73-21.3,27.28-42.75,40.34-64.47c6.65-11.06-10.64-21.13-17.27-10.09
					c-13.05,21.72-26.61,43.17-40.34,64.47C844.86,877.08,862.16,887.12,869.12,876.32L869.12,876.32z"/>
			</g>
		</g>
		<g>
			<g>
				<path class="st4" d="M789.87,697.74c9.09-12.62,20.39-23.62,29.01-36.63c7.13-10.76-10.18-20.79-17.27-10.09
					C793,664,781.7,675.01,772.6,687.64c-3.16,4.39-0.76,11.14,3.59,13.68C781.22,704.27,786.7,702.13,789.87,697.74L789.87,697.74z
					"/>
			</g>
		</g>
		<g>
			<g>
				<path class="st3" d="M757.69,485.73c12.91-11.74,23.99-25.42,36.9-37.17c9.54-8.68-4.63-22.79-14.14-14.14
					c-12.91,11.74-23.99,25.42-36.9,37.17C734,480.27,748.18,494.38,757.69,485.73L757.69,485.73z"/>
			</g>
		</g>
		<g>
			<g>
				<path class="st3" d="M327.4,857.44c5.67-11.82,8.31-24.78,12.14-37.25c5.25-17.11,12.55-33.07,22.91-47.71
					c3.12-4.41,0.79-11.12-3.59-13.68c-5.01-2.93-10.55-0.83-13.68,3.59c-10.73,15.17-18.44,32.06-24.07,49.73
					c-2.17,6.81-4.01,13.71-5.98,20.57c-0.84,2.93-1.7,5.85-2.68,8.74c-1.03,3.05-1.5,4.21-2.33,5.93
					c-2.33,4.87-1.34,10.8,3.59,13.68C318.09,863.58,325.05,862.33,327.4,857.44L327.4,857.44z"/>
			</g>
		</g>
		<ellipse class="st5" cx="523.05" cy="1219.04" rx="26" ry="48"/>
		<ellipse class="st5" cx="635.05" cy="1219.04" rx="26" ry="48"/>
		<g>
			<g>
				<path d="M431.89,1365.29c22.79,41.57,66.29,68.65,112.29,77.08c50.38,9.24,101.5-3.81,144.84-30.15
					c25.04-15.21,47.56-34.54,67.1-56.32c8.57-9.56-5.53-23.75-14.14-14.14c-31.94,35.61-72.35,64.99-118.99,77.57
					c-41.89,11.3-87.19,7-124.99-14.92c-20.41-11.84-37.47-28.47-48.84-49.21C442.97,1343.91,425.69,1353.99,431.89,1365.29
					L431.89,1365.29z"/>
			</g>
		</g>
		<circle class="st6" cx="531.55" cy="1198.04" r="8.5"/>
		<circle class="st6" cx="531.55" cy="1198.04" r="8.5"/>
		<circle class="st6" cx="643.55" cy="1198.04" r="8.5"/>
		<ellipse class="st7" cx="465.58" cy="1289.5" rx="44" ry="19"/>
		<ellipse class="st7" cx="465.58" cy="1289.5" rx="44" ry="19"/>
		<ellipse class="st7" cx="465.58" cy="1289.5" rx="44" ry="19"/>
		<ellipse class="st7" cx="706.12" cy="1286.04" rx="44.5" ry="19"/>
	</g>
</g>
<g id="Ebene_11">
	<g>
		<g id="Ebene_2_Kopie">
			<g>
				<path class="st0" d="M1160.95,878.43c49.61,8.28,200.56,34.15,218.61,13.15c29.31-34.11,119.37-433.24,97.79-462.06
					c-45.22-60.4-660.87-185.3-724.25-129.1c-57.15,50.68-38.08,437.09-21.98,462.34c24.34,38.16,128.6,33.84,173.62,59.37
					c20.07,11.38,98.76,143.77,122.49,145.44c13.47,0.95,99.59-51.52,132.14-89.22"/>
				<g>
					<path class="st8" d="M1160.45,882.35c48.69,8.13,97.55,16.27,146.83,19.88c11.85,0.87,23.75,1.44,35.65,1.26
						c8.82-0.13,17.88-0.44,26.54-2.67c5.32-1.37,10.5-3.39,14.01-8.2c2.67-3.67,4.69-7.97,6.57-12.15
						c6.2-13.75,10.88-28.32,15.42-42.76c6.49-20.7,12.32-41.64,17.87-62.64c13.37-50.65,25.16-101.77,35.67-153.14
						c9.25-45.22,17.99-90.84,22.97-136.78c1.54-14.23,3.01-28.83,2.09-43.11c-0.26-4.07-0.71-8.44-2.27-12.17
						c-1.37-3.26-3.91-5.76-6.43-7.98c-7.27-6.41-16.06-10.95-24.57-15.09c-12.61-6.14-25.66-11.27-38.77-16.04
						c-36.63-13.35-74.15-23.97-111.75-33.8c-46.06-12.04-92.49-22.57-139.11-32.05c-48.39-9.84-97-18.52-145.83-25.78
						c-43.61-6.47-87.44-11.92-131.46-14.89c-31.93-2.16-64.62-3.8-96.59,0.58c-9.74,1.34-19.92,3.2-28.96,7.68
						c-9.45,4.69-15.56,13.48-20.22,23.31c-7.46,15.73-11.43,33.41-14.63,50.57c-4.27,22.88-6.76,46.09-8.57,69.29
						c-4.17,53.6-4.61,107.49-3.27,161.11c1.09,43.8,3.02,87.88,8.45,131.24c1.38,11.02,2.52,22.98,6.31,33.37
						c2.44,6.68,8.05,11.89,13.39,15.81c9.89,7.25,21.44,11.62,32.92,15.09c28.48,8.6,58.09,12.19,87.03,18.69
						c12.82,2.88,25.73,6.22,37.74,11.84c4.09,1.91,5.64,2.54,8.69,5.3c2.41,2.17,4.43,4.44,6.54,6.88
						c14.78,17.17,27.67,36.33,40.97,54.83c14.65,20.39,29.22,41.09,45.62,59.88c5.58,6.39,11.43,13.04,18.33,17.8
						c5.25,3.62,9.81,4.74,15.91,2.81c9.1-2.88,17.77-7.69,26.18-12.39c12.57-7.02,24.83-14.72,36.85-22.82
						c23.19-15.62,46.82-32.7,65.65-54.38c3.25-3.74-2.51-8.47-5.73-4.77c-9.09,10.48-19.64,19.51-30.28,28.03
						c-12.05,9.66-24.57,18.63-37.34,27.11c-11.53,7.65-23.31,14.92-35.39,21.48c-7.43,4.03-16.23,9.12-23.87,10.76
						c-0.48,0.1-0.97,0.18-1.46,0.26c-1.3,0.21,0.22,0.08-0.66,0.02c-0.42-0.03-0.84-0.13-1.25-0.23c0.96,0.24-0.9-0.39-1.24-0.54
						c-2.48-1.14-4.51-2.76-6.95-4.84c-6.89-5.9-12.91-12.97-18.74-20.05c-16.14-19.59-30.85-40.56-45.74-61.27
						c-12.33-17.17-24.35-35.18-38.61-50.57c-5.51-5.95-11.45-9.42-18.78-12.46c-12.28-5.1-25.27-8.31-38.18-11.13
						c-28.51-6.23-57.82-9.63-85.72-18.59c-10.81-3.47-21.97-7.77-30.91-15.34c-1.71-1.45-3.35-3-4.79-4.76
						c-0.79-0.96-1.5-1.98-2.22-3c-0.17-0.24-1-1.82-0.27-0.35c-0.64-1.27-1.11-2.61-1.53-3.98c-1.22-3.94-2.05-8.4-2.93-13.56
						c-1.18-6.95-2.09-13.95-2.91-20.96c-2.27-19.47-3.78-39.07-4.98-58.66c-3.15-51.18-4.21-102.62-3.09-153.99
						c1.06-48.37,3.36-97.6,12.65-145.24c3.16-16.17,7.11-32.79,14.54-47.44c2.24-4.41,5.87-9.9,9.21-12.9
						c0.58-0.53,1.19-1.02,1.81-1.49c0.28-0.21,0.57-0.41,0.86-0.61c1.01-0.71-0.41,0.2,0.67-0.43c1.61-0.94,3.26-1.78,4.95-2.5
						c4.6-1.98,7.34-2.71,12.22-3.82c5.59-1.28,11.25-2.14,16.91-2.79c14.07-1.62,28.23-2,42.35-1.92
						c39.01,0.24,77.94,3.86,116.62,8.41c46.86,5.5,93.5,12.75,139.95,21.05c47.77,8.54,95.35,18.23,142.66,29.17
						c42.04,9.72,83.91,20.34,125.26,32.86c29.83,9.03,59.95,18.59,88.2,32.29c4.78,2.32,9.5,4.8,14.06,7.58
						c0.86,0.52,0.82,0.5,2.15,1.37c0.91,0.59,1.81,1.21,2.69,1.84c1.51,1.09,2.98,2.22,4.39,3.45c0.59,0.52,1.16,1.06,1.73,1.62
						c0.29,0.28,0.56,0.57,0.84,0.87c-0.88-0.94,0.04,0.05,0.24,0.29c0.38,0.49,0.76,0.96,1.11,1.47c0.63,0.88-0.28-0.71,0.07,0.11
						c0.14,0.33,0.3,0.64,0.41,0.98c0.14,0.42,0.77,2.66,0.46,1.36c0.22,0.94,0.4,1.89,0.55,2.84c0.36,2.35,0.55,4.73,0.66,7.12
						c0.62,13.3-0.9,28.2-2.49,42.24c-2.36,20.92-5.61,41.73-9.16,62.47c-8.64,50.54-19.21,100.77-30.85,150.67
						c-10.53,45.17-21.79,90.3-35.66,134.49c-4.5,14.33-9.15,28.77-15.27,42.44c-2.07,4.62-3.04,6.98-5.74,10.69
						c-1.16,1.59-1.81,2.18-3.3,2.94c-2.85,1.46-5.11,2.09-8.12,2.73c-8.93,1.9-18.15,2.18-27.19,2.16
						c-11.98-0.02-23.93-0.73-35.85-1.68c-27.12-2.19-54.11-5.76-81.02-9.75c-20.31-3.01-40.56-6.36-60.8-9.74
						C1156.83,873.73,1155.83,881.58,1160.45,882.35L1160.45,882.35z"/>
				</g>
			</g>
		</g>
		<g id="Ebene_7_1_">
			<g class="st9">
				<g>
					<path class="st6" d="M1284.91,425.44c14.98,4.77,30.37,8.02,45.61,11.7c4.21,1.01,8.42,2.05,12.61,3.12
						c2.04,0.53,4.09,1.05,6.13,1.6c1.02,0.27,2.04,0.55,3.06,0.82c3.36,0.91-2.83-0.83,0.58,0.16c7.94,2.29,15.85,4.75,23.58,7.76
						c3.6,1.4,7.15,2.91,10.63,4.59c1.57,0.76,3.12,1.55,4.65,2.39c0.74,0.41,1.46,0.83,2.19,1.24c2.99,1.7-2.08-1.47-0.28-0.19
						c2.54,1.79,5.06,3.53,7.35,5.7c0.48,0.46,0.95,1.07,1.47,1.47c-0.74-0.57-2.53-3.01-1.08-1.1c0.84,1.11,1.57,2.6,2.5,3.6
						c-0.51-0.55-1.78-3.84-0.88-1.58c0.22,0.56,0.45,1.13,0.68,1.69c1.37,3.22-0.28-3.26-0.19-0.99c0.04,1.15,0.19,5.36,0.22,1.45
						c0.02-3.87-0.01-0.74-0.05,0.19c-0.04,0.89-0.1,1.77-0.16,2.65c-0.15,2.02-0.36,4.03-0.6,6.04
						c-3.21,27.56-9.47,54.89-15.29,81.96c-8.24,38.33-17.07,76.54-25.97,114.71c-8.41,36.11-16.96,72.18-25.2,108.34
						c-0.86,3.74-1.7,7.49-2.55,11.24c-1.82,8.07,5.11,16.93,12.4,17.52c8.52,0.68,14.5-5.14,16.44-13.79
						c8.03-35.65,16.46-71.2,24.77-106.78c9.15-39.21,18.27-78.44,26.85-117.8c6.33-29.06,12.98-58.31,16.91-87.83
						c1.01-7.56,2.45-16.36,0.86-23.83c-3.72-17.48-17.97-27.74-32.12-34.82c-15.89-7.95-33.24-12.6-50.25-17.03
						c-15.77-4.1-31.71-7.45-47.45-11.66c-0.78-0.2-1.56-0.42-2.34-0.64c-2.37-0.64,3.72,1.08,0.89,0.24
						c-1.48-0.44-2.96-0.88-4.43-1.34c-7.24-2.3-16.17,0.06-19.15,8.64C1274.76,412.24,1277.14,422.96,1284.91,425.44
						L1284.91,425.44z"/>
				</g>
			</g>
			<g class="st9">
				<g>
					<path class="st6" d="M1314.8,850.6c0.04,3.48,0.08,6.97,0.13,10.44c7.82-4.98,15.65-9.96,23.47-14.95
						c-3.34-2.99-6.67-5.99-10.01-8.98c-0.08,8.32-0.17,16.64-0.25,24.96c-1.85,1.3-3.56,2.17-5.8,2.24
						c-0.89,0.16-1.74,0.05-2.56-0.34c-1.44-0.48-1.66-0.52-0.64-0.11c-1.52-0.86-2.65-1.8-3.77-3.21c0.62,0.9,0.54,0.71-0.24-0.58
						c-0.73-1.08-1.18-2.31-1.35-3.68c2.97-5.61,5.94-11.22,8.91-16.83c0.22-0.1,3.64-0.72,1.78-0.56c1.84-0.16,3.39,0,5.13,0.62
						c-1.77-0.63,1.31,0.9,1.51,1.05c-1.54-1.04,1.02,1.09,1.21,1.37c0.99,1.4,1.49,3.17,1.75,4.9c-0.43-2.81-0.95,5.71-0.88,5.46
						c0.56-1.93-0.71,1.33-0.91,1.63c-0.56,0.61-1.11,1.23-1.67,1.83c-2.19,1.25-2.77,1.62-1.74,1.1c1.62-0.64-3.33,0.84-1.66,0.51
						c0.77-0.09,0.45-0.09-0.93,0.01c-0.86,0.17-1.7,0.08-2.51-0.25c-3.26-0.83-5.81-3.37-6.66-6.89c-0.8-3.33-0.23,1.6-0.23-1.99
						c0-3.56-0.61,1.4,0.24-2.06c0.1-0.94,0.44-1.78,0.99-2.52c0.75-1.23,0.91-1.52,0.47-0.88c-0.8,1.11,2.96-2.61,0.94-1.28
						c7.41,2.03,14.83,4.06,22.24,6.09c-0.62-1.4-1.24-2.81-1.85-4.21c-3.24-7.37-11.62-12.03-19-8.16
						c-6.86,3.59-11.41,12.85-7.94,20.75c0.62,1.4,1.24,2.81,1.85,4.21c1.99,4.52,5.06,7.57,9.57,8.84
						c4.78,1.34,8.51-0.01,12.67-2.74c8.36-5.49,10.95-18.91,7.05-27.96c-4.63-10.76-16.85-15.51-26.91-10.02
						c-9.71,5.3-15.44,18.2-10.33,29.12c4.94,10.55,16.43,15.82,26.9,10.96c5.98-2.78,9.71-9.93,8.91-16.83
						c-0.86-7.45-5.48-14.21-11.95-17.01c-7.02-3.03-13.8-1.77-20.1,2.64c-8.3,5.8-6.84,19.05-0.25,24.96
						c3.34,2.99,6.67,5.99,10.01,8.98c4.45,3.99,11.3,3.97,16.17,0.85c5.47-3.5,7.37-9.23,7.29-15.79
						c-0.04-3.48-0.08-6.97-0.13-10.44c-0.05-3.68-2.87-8.09-5.42-10.21c-2.84-2.36-7.28-3.78-10.91-3.02
						c-3.65,0.78-7.32,2.69-9.55,6.08C1315.37,842.44,1314.74,846.12,1314.8,850.6L1314.8,850.6z"/>
				</g>
			</g>
		</g>
		<g id="Ebene_2_1_">
			<g>
				<g>
					<path d="M1132.73,913.86c48.75,8.16,97.67,16.33,147.01,19.98c11.87,0.88,23.78,1.46,35.69,1.31
						c9.47-0.13,19.2-0.29,28.52-2.66c7.22-1.84,13.95-4.64,18.73-11.13c3.05-4.13,5.35-9.02,7.49-13.74
						c6.23-13.73,10.93-28.3,15.47-42.74c6.53-20.75,12.37-41.74,17.93-62.79c13.52-51.16,25.47-102.79,36.07-154.7
						c9.22-45.16,17.96-90.75,22.83-136.64c1.55-14.64,2.96-29.71,1.9-44.4c-0.33-4.67-1.05-9.62-2.86-13.87
						c-1.93-4.52-5.33-8.04-8.88-11.09c-7.9-6.79-17.38-11.67-26.58-16.11c-12.73-6.13-25.89-11.26-39.12-16.05
						c-37.21-13.46-75.33-24.19-113.52-34.15c-46.04-12.01-92.43-22.52-139.01-31.99c-48.33-9.82-96.88-18.52-145.63-25.77
						c-43.47-6.47-87.14-11.93-131-14.95c-32.68-2.25-66.16-3.96-98.89,0.39c-10.41,1.39-21.29,3.43-30.97,8.12
						c-11.17,5.42-18.43,15.35-24.03,26.87c-7.86,16.17-11.96,34.58-15.29,52.28c-4.31,22.84-6.8,46.03-8.6,69.2
						c-4.2,54.06-4.55,108.44-3.15,162.52c1.14,43.95,3.12,88.17,8.69,131.65c1.48,11.51,2.79,24.01,6.81,34.83
						c2.97,7.97,9.43,14.37,15.89,19.03c10.66,7.69,22.82,12.46,35.15,16.13c29.21,8.68,59.46,12.47,89.1,19.2
						c3.25,0.74,6.5,1.52,9.74,2.35c0.86,0.22,1.72,0.45,2.58,0.68c0.46,0.12,3.35,0.93,0.56,0.14c1.66,0.47,3.3,0.95,4.94,1.46
						c6.08,1.88,12.09,4.04,17.86,6.79c1.1,0.52,2.19,1.07,3.27,1.64c0.61,0.33,1.24,0.78,1.88,1.02c1.3,0.49-2.68-1.98-1.59-0.99
						c0.91,0.83,1.96,1.48,2.88,2.3c1.07,0.96,2.07,1.99,3.09,3.02c2.27,2.31-1.54-1.78,0.22,0.22c0.77,0.88,1.56,1.75,2.32,2.65
						c14.71,17.12,27.62,36.11,40.92,54.51c14.72,20.35,29.35,41.03,45.85,59.75c5.99,6.8,12.22,13.94,19.64,18.98
						c3.5,2.39,7.14,4.53,11.32,5.18c4.19,0.65,7.97-0.44,11.96-1.74c9.2-3.01,17.98-7.82,26.53-12.58
						c13.03-7.25,25.73-15.24,38.18-23.6c23.64-15.85,47.36-33.21,66.58-55.22c4.1-4.69,2.5-12.98-1.81-16.56
						c-5.02-4.17-11.24-2.4-15.34,2.3c-0.55,0.63-3.91,4.22-1.61,1.83c-1.03,1.07-2.05,2.15-3.09,3.2
						c-2.43,2.44-4.91,4.82-7.44,7.13c-5.44,4.98-11.07,9.71-16.81,14.28c-12.06,9.61-24.58,18.53-37.35,26.94
						c-1.37,0.91-2.74,1.79-4.12,2.69c-0.26,0.17-2.99,1.91-0.84,0.54c-0.81,0.52-1.62,1.03-2.43,1.54c-3.16,2-6.34,3.95-9.53,5.88
						c-5.56,3.35-11.17,6.59-16.87,9.66c-4.62,2.49-9.29,4.89-14.05,7.03c-1.78,0.8-3.57,1.56-5.39,2.25
						c-0.76,0.28-1.82,0.44-2.51,0.89c2.53-1.65,1.96-0.53,0.22-0.13c-0.59,0.14-1.2,0.19-1.78,0.33c-1.99,0.51,1.96,0.18,1.52,0.01
						c-0.31-0.12-1.18-0.3-1.5-0.26c2.85-0.32,2.62,0.97,0.92,0.11c-0.59-0.29-1.17-0.61-1.77-0.9c-2.09-0.99,2.48,1.75,0.55,0.34
						c-1.39-1.01-2.77-2.01-4.09-3.13c-3.15-2.65-6.04-5.59-8.91-8.59c-0.52-0.55-2.15-2.04,0.27,0.31
						c-0.45-0.43-0.86-0.94-1.28-1.41c-0.8-0.89-1.6-1.79-2.39-2.7c-1.83-2.09-3.63-4.21-5.4-6.35
						c-16.15-19.46-30.87-40.3-45.76-60.9c-12.83-17.75-25.35-36.18-40.18-52.05c-5.73-6.14-12.18-9.98-19.75-13.18
						c-13.1-5.53-27.03-8.94-40.83-11.96c-14.47-3.16-29.06-5.7-43.6-8.53c-7.19-1.4-14.37-2.86-21.51-4.5
						c-3.29-0.76-6.57-1.56-9.83-2.41c-0.87-0.23-1.74-0.46-2.61-0.69c-2.81-0.75,1.55,0.49-0.18-0.05
						c-1.8-0.57-3.63-1.07-5.43-1.63c-5.95-1.87-11.83-4.03-17.49-6.71c-2.47-1.16-4.81-2.52-7.22-3.82
						c-2.21-1.2,2.05,1.47,0.02,0.01c-0.56-0.41-1.16-0.77-1.73-1.17c-1.11-0.78-2.19-1.6-3.24-2.46c-1.01-0.83-1.99-1.7-2.94-2.62
						c-0.31-0.29-0.59-0.62-0.91-0.91c-1.69-1.56,1.61,2.1,0.24,0.25c-1-1.35-2.06-3.31-3.24-4.43c2.28,2.17,1.44,3.07,0.92,1.65
						c-0.1-0.27-0.22-0.53-0.34-0.79c-0.31-0.75-0.56-1.52-0.81-2.29c-0.27-0.85-0.5-1.72-0.74-2.59c-0.74-2.63,0.46,2.04,0.26,1.07
						c-0.12-0.59-0.27-1.17-0.4-1.75c-0.59-2.66-1.1-5.35-1.56-8.05c-1.21-6.99-2.15-14.05-2.99-21.12
						c-2.3-19.36-3.83-38.85-5.07-58.35c-1.54-24.39-2.55-48.83-3.12-73.29c-0.31-13.48-0.49-26.98-0.53-40.47c0-3.2-0.01-6.4,0-9.6
						c0.01-0.83,0.03-5.54,0-2.07c0.01-2.04,0.03-4.08,0.04-6.11c0.06-6.69,0.16-13.38,0.3-20.08
						c1.01-48.24,3.25-97.36,12.58-144.87c0.94-4.8,1.98-9.59,3.13-14.34c0.25-1.04,1.32-4.46,0.08-0.37
						c0.33-1.1,0.59-2.24,0.89-3.35c0.58-2.14,1.21-4.28,1.86-6.41c2.2-7.13,4.84-14.07,8.16-20.7c0.19-0.37,0.43-0.73,0.59-1.12
						c0.06-0.16-1.68,2.93-0.86,1.58c0.41-0.69,0.8-1.4,1.22-2.09c0.79-1.31,1.63-2.58,2.53-3.81c0.77-1.05,1.61-2.03,2.42-3.05
						c1.44-1.8-2.45,2.35-0.4,0.45c0.47-0.43,0.92-0.89,1.4-1.32c0.56-0.49,1.16-0.94,1.75-1.4c0.34-0.26,0.72-0.46,1.05-0.73
						c0.32-0.26-3.14,1.83-1.11,0.73c1.65-0.89,3.28-1.75,5-2.47c0.91-0.38,1.82-0.74,2.74-1.06c0.53-0.19,1.06-0.36,1.59-0.55
						c2.61-0.91-1.53,0.44-0.8,0.24c2.32-0.64,4.62-1.29,6.96-1.81c5.62-1.25,11.31-2.09,17.01-2.73
						c6.65-0.74,13.32-1.19,19.99-1.47c1.75-0.08,3.49-0.13,5.24-0.18c0.81-0.02,1.63-0.04,2.43-0.06c0.49-0.01,0.99-0.02,1.48-0.03
						c2.79-0.06-2.36,0.02-0.44,0.01c3.96-0.04,7.92-0.06,11.88-0.03c39,0.32,77.92,3.98,116.59,8.55
						c46.54,5.51,92.86,12.71,139,20.95c47.85,8.55,95.5,18.25,142.89,29.19c22.07,5.09,44.08,10.47,66,16.19
						c10.45,2.73,20.91,5.46,31.3,8.46c-2.78-0.81-0.23-0.06,1.03,0.29c1.27,0.36,2.55,0.72,3.82,1.08
						c2.51,0.71,5.03,1.44,7.54,2.17c4.68,1.36,9.36,2.74,14.02,4.15c29.9,9.02,60.07,18.57,88.43,32.2
						c4.78,2.3,9.51,4.75,14.08,7.49c0.43,0.25,0.85,0.54,1.28,0.79c-3.87-2.18-1.61-1.02-0.71-0.43c0.92,0.6,1.84,1.21,2.74,1.85
						c1.54,1.08,3.05,2.22,4.49,3.46c0.61,0.52,1.21,1.05,1.78,1.61c0.27,0.26,0.52,0.55,0.8,0.8c1.44,1.35-2.24-2.73-0.96-1.04
						c0.38,0.5,0.79,1.03,1.21,1.51c1.49,1.7-1.28-3.5-0.41-0.72c0.21,0.67,0.42,1.42,0.68,2.06c-1.35-3.33-0.44-2.06-0.09,0.04
						c0.37,2.2,0.57,4.43,0.69,6.67c0.07,1.26,0.11,2.52,0.14,3.79c0.01,0.74,0.02,1.48,0.03,2.22c0.04,3.17,0.05-3.02,0.01-0.44
						c-0.06,3.33-0.17,6.65-0.35,9.97c-0.46,8.24-1.23,16.47-2.15,24.69c-2.31,20.66-5.49,41.24-8.98,61.73
						c-8.61,50.61-19.18,100.89-30.84,150.85c-2.92,12.51-5.92,24.99-9.01,37.46c-1.5,6.03-3.01,12.05-4.55,18.07
						c-0.18,0.68-0.88,3.42,0,0.02c-0.16,0.64-0.33,1.28-0.5,1.92c-0.36,1.4-0.72,2.8-1.08,4.2c-0.78,3.01-1.58,6.01-2.37,9.01
						c-5.45,20.55-11.16,41.04-17.53,61.3c-4.5,14.32-9.18,28.77-15.32,42.42c-1.01,2.23-2.2,4.34-3.21,6.56
						c2.04-4.48,0.63-1.15-0.11,0.05c-0.47,0.76-0.97,1.47-1.48,2.2c-0.2,0.29-0.46,0.54-0.65,0.84c-0.97,1.52,2.59-2.09,0.96-1.05
						c-0.42,0.27-0.99,0.72-1.36,1.07c-0.66,0.65-2.06-0.4,1.65-1.05c-0.36,0.06-0.79,0.48-1.14,0.63
						c-1.24,0.55-2.48,1.02-3.74,1.52c-1.67,0.65,2.95-0.75,1.17-0.37c-0.41,0.09-0.83,0.23-1.25,0.33
						c-0.88,0.22-1.77,0.42-2.66,0.6c-4.02,0.82-8.09,1.25-12.16,1.56c-2.27,0.17-4.54,0.28-6.81,0.35
						c-0.88,0.03-5.43,0.29-1.7,0.06c-1.37,0.09-2.77,0.02-4.14,0.02c-12.13-0.03-24.24-0.77-36.32-1.76
						c-27.01-2.22-53.9-5.79-80.7-9.78c-20.33-3.02-40.6-6.39-60.88-9.78c-5.81-0.97-11.53,4.15-12.33,10.34
						C1122.58,907.26,1126.9,912.88,1132.73,913.86L1132.73,913.86z"/>
				</g>
			</g>
		</g>
		<g id="Ebene_10_1_">
			<g>
				<g>
					<path class="st6" d="M939.16,420.26c37.49,52.98,74.03,106.74,109.88,161.05c35.26,53.42,69.84,107.36,104.07,161.57
						c19.03,30.13,37.93,60.34,56.8,90.59c7.41,11.88,25.49,13.93,35.69,4.61c11.18-10.21,12.9-26.07,5-38.74
						c-33.64-53.93-67.43-107.76-101.72-161.2c-34.85-54.31-70.2-108.24-106.35-161.52c-20.61-30.39-41.49-60.55-62.66-90.47
						c-8.03-11.36-25.06-14.32-35.69-4.61C933.49,391.25,930.58,408.14,939.16,420.26L939.16,420.26z"/>
				</g>
			</g>
			<g>
				<g>
					<path class="st6" d="M914.68,788.71c54.8-45.97,109.05-92.68,162.61-140.35c39.65-35.29,78.97-71.02,118.87-105.97
						c26.43-23.16,53.11-45.99,79.99-68.54c10.66-8.95,13.75-27.44,5-38.74c-8.78-11.34-24.32-14.15-35.69-4.61
						c-44.71,37.51-88.74,75.94-132.34,114.96c-42.31,37.87-84.52,75.86-127.32,113.06c-33.69,29.29-67.66,58.2-101.81,86.85
						c-10.66,8.94-13.75,27.44-5,38.74C887.76,795.45,903.3,798.26,914.68,788.71L914.68,788.71z"/>
				</g>
			</g>
		</g>
		<g id="Ebene_9_1_">
			<g class="st10">
				<path d="M747.03,307.43c-28.4,219.94,163.22,508.87,299.64,661.32c-19.72,3.06-39.84-29.06-76.98-70.58
					c-52.5-58.66-35.19-62.77-66.22-81.3c-25.78-15.39-59.55-16.48-88.82-21.3c-26.98-4.43-60.2-14-75.64-31.09
					c-20.37-22.54-29.15-276.29-4.65-428.36"/>
				<g>
					<path d="M739.82,306.49c-5.83,45.66-2.38,92.11,6.36,136.73c9.68,49.48,25.49,97.29,44.62,143.17
						c20.29,48.67,44.38,95.41,70.69,140.45c25.96,44.43,54.21,87.25,84.23,128.51c26.92,36.99,55.28,72.8,85.17,106.99
						c3.3,3.78,6.62,7.53,9.97,11.27c1.62-4.22,3.25-8.45,4.87-12.67c-0.53,0.07-1.06,0.12-1.58,0.17c1.97-0.18,0.3,0.01-0.16-0.04
						c-0.9-0.1-1.78-0.2-2.67-0.37c-2.03-0.37,0.62,0.39-1.35-0.42c-1.11-0.45-2.21-0.92-3.29-1.48c-0.56-0.3-1.12-0.61-1.67-0.93
						c1.23,0.72-0.05-0.03-0.35-0.24c-1.07-0.74-2.12-1.49-3.16-2.29c-2.29-1.78-4.46-3.72-6.58-5.74
						c-11.23-10.7-20.97-23.22-31.06-35.14c-19.74-23.33-41.05-45.2-56.78-72.12c-3.13-5.37-6-11.02-9.84-15.85
						c-4.8-6.05-10.67-10.57-17.01-14.55c-31.27-19.66-68.36-18.9-103.17-25.77c-15.87-3.13-31.76-7.57-46.28-15.16
						c-5.96-3.12-11.53-6.93-16.34-11.86c-0.71-0.73,0.57,1.01-0.25-0.35c-0.19-0.31-0.41-0.63-0.62-0.92
						c-0.68-0.94-0.25-1.48,0.19,0.44c-0.11-0.49-0.51-1.03-0.72-1.49c-1.04-2.29-1.83-4.72-2.54-7.16
						c-0.23-0.79-0.45-1.59-0.67-2.39c-0.16-0.6-0.73-3.07-0.17-0.61c-0.39-1.72-0.8-3.45-1.16-5.18c-1.8-8.64-3.09-17.42-4.19-26.2
						c-6.79-54.23-7.85-109.68-7.57-164.49c0.32-64.3,3.18-129.07,11.77-192.94c0.94-6.96,1.96-13.9,3.07-20.84
						c1.61-10.03-12.81-11.89-14.42-1.86c-10.19,63.53-13.57,128.29-14.6,192.48c-0.96,59-0.23,118.46,5.84,177
						c1.82,17.57,3.8,35.68,8.97,52.45c1.8,5.83,4.24,10.74,8.38,14.96c11.06,11.31,26.46,17.73,40.87,22.43
						c16.82,5.48,34.11,8.67,51.57,11.01c17.93,2.41,36.26,4.22,53.52,10.09c4.24,1.44,8.42,3.12,12.46,5.09
						c1.82,0.89,3.61,1.84,5.37,2.86c0.74,0.43,1.47,0.87,2.21,1.31c1.29,0.78-0.75-0.5,0.81,0.51c3.25,2.11,6.43,4.33,9.34,6.95
						c0.53,0.48,1.05,0.97,1.56,1.47c0.7,0.69,1.59,1.79,0.39,0.36c1,1.2,2.03,2.37,2.95,3.65c1.75,2.4,3.29,4.98,4.79,7.56
						c4.58,7.9,9.19,15.73,14.4,23.16c9.99,14.24,21.41,27.07,32.77,40.01c12.21,13.9,23.79,28.46,36.18,42.18
						c8.16,9.03,17.03,19,28.16,23.73c4.62,1.97,9.55,2.77,14.53,2.08c5.03-0.7,8.71-8.39,4.87-12.67
						c-29.38-32.86-57.28-67.3-83.81-102.9c-29.89-40.08-58.09-81.68-84.2-124.79c-26.6-43.91-51.02-89.47-71.99-136.94
						c-19.88-44.98-36.97-91.85-48.08-140.48c-9.98-43.7-15.46-89.33-11.84-134.33c0.43-5.36,0.99-10.7,1.67-16.03
						C755.53,298.29,741.11,296.4,739.82,306.49L739.82,306.49z"/>
				</g>
			</g>
		</g>
	</g>
</g>
</svg>
