<?xml version="1.0" encoding="utf-8"?>
<!-- Generator: Adobe Adobe Illustrator 24.2.0, SVG Export Plug-In . SVG Version: 6.00 Build 0)  -->
<svg version="1.1" xmlns="http://www.w3.org/2000/svg" xmlns:xlink="http://www.w3.org/1999/xlink" x="0px" y="0px"
	 viewBox="0 0 1700.79 1700.79" style="enable-background:new 0 0 1700.79 1700.79;" xml:space="preserve">
<style type="text/css">
	.st0{fill:#C8354F;}
	.st1{opacity:0.7608;}
	.st2{fill:#F3C15A;}
	.st3{fill:#DB7B39;}
	.st4{fill:#DC7B3A;}
	.st5{stroke:#000000;stroke-miterlimit:10;}
	.st6{fill:#FFFFFF;}
	.st7{fill:#A22E49;}
	.st8{fill:#ADBECF;stroke:#F3C057;stroke-miterlimit:10;}
	.st9{fill:#F3C057;stroke:#F3C057;stroke-miterlimit:10;}
	.st10{fill:#F7D98D;stroke:#F3C057;stroke-miterlimit:10;}
	.st11{stroke:#F3C057;stroke-miterlimit:10;}
	.st12{fill:#AEBFCE;stroke:#F3C057;stroke-miterlimit:10;}
	.st13{opacity:0.2706;}
	.st14{fill:#3D4C5B;stroke:#F3C057;stroke-miterlimit:10;}
	.st15{fill:#F3C057;}
</style>
<g id="Ebene_7">
</g>
<g id="Ebene_4">
</g>
<g id="Ebene_5">
</g>
<g id="Ebene_9">
</g>
<g id="Ebene_6">
</g>
<g id="Ebene_8">
</g>
<g id="Ebene_10">
	<g>
		<g>
			<path class="st0" d="M370.6,843.12c47.03-139.68,43.39-161.58,26.31-158.76c-170.61,28.2-640.35,1022.99,246.64,928.5
				c636.06-67.75,335.18-476.04,297.38-589.89c-74.5-224.41,81.37-307.35,27.05-329.7c-32.53-13.38-215.11,250.85-228.09,247.23
				c-34.44-9.62,184.88-363.65,157.94-392.94C863.8,510.58,706.5,731.28,679.28,716.61C625.25,687.51,889.19,428.28,859.39,391
				c-20.46-25.59-166.28,42.9-299.86,175.55c-78.41,77.87-127.88,184.83-188.75,277.06"/>
			<g>
				<path d="M380.26,845.7c11.97-35.61,24-71.48,32.53-108.11c2.17-9.32,4.17-18.76,5.06-28.29c0.52-5.51,0.99-11.61-0.53-17.02
					c-6.16-21.9-35.59-12.23-49.39-4.98c-18.47,9.7-34.49,24.05-48.91,38.94c-19.29,19.92-36.33,42.01-52.04,64.82
					c-18.95,27.52-35.99,56.38-51.54,85.95c-17.11,32.53-32.38,66.03-45.8,100.24c-14.01,35.69-26.03,72.18-35.65,109.3
					c-9.54,36.8-16.75,74.26-20.76,112.08c-3.88,36.65-4.79,73.76-1.42,110.49c3.18,34.65,10.28,69.07,22.66,101.63
					c12.13,31.91,29.22,61.94,51.41,87.94c24.13,28.26,53.52,51.62,86.07,69.48c38.85,21.32,81.34,35.29,124.72,43.91
					c54.73,10.88,110.8,13.84,166.5,12.15c73.07-2.22,146.79-11.05,217.99-27.75c55.96-13.12,112.08-31.74,160.91-62.66
					c34.78-22.02,65.25-50.41,85.59-86.48c17.07-30.27,25.55-64.47,26.77-99.08c1.23-34.74-4.09-69.37-12.98-102.89
					c-8.77-33.09-20.93-65.19-34.54-96.57c-11.91-27.47-25.09-54.35-37.88-81.41c-2.17-4.6-4.76-10.12-7.26-15.66
					c-2.2-4.88-4.36-9.79-6.38-14.75c-9.44-23.1-15.7-47.73-20.04-72.25c-10.34-58.39-4.88-117.46,17.95-172.25
					c7.25-17.41,16.13-34,24.74-50.76c5.08-9.88,11.99-21.42,11.33-32.97c-0.68-11.91-14.05-20.15-24.88-21.3
					c-13.08-1.4-24.6,8.76-33.72,16.78c-15.15,13.33-28.72,28.49-41.99,43.65c-16.89,19.3-33.14,39.15-49.21,59.14
					c-28.8,35.8-56.47,72.58-86.11,107.71c-4.33,5.13-8.7,10.26-13.39,15.07c-1.53,1.57-3.12,3.05-4.74,4.53
					c-1.02,0.93-1.37,1.39-0.75,0.66c-0.25,0.29-1.02,0.67-1.4,0.74c3.89-0.67,8.56-0.21,11.66,1.48c-0.25-0.14,2.72,1.51,1.52,1.2
					c-0.05-0.01,0.13,1.08-0.09-0.37c-0.12-0.77-0.28-1.52-0.38-2.3c-0.2-1.6-0.14,0.45-0.01-1.42c0.08-1.1,0.19-2.19,0.34-3.28
					c0.36-2.5,0.92-4.97,1.56-7.41c3.84-14.84,10.07-29.12,16.22-43.12c8.79-20.01,18.31-39.68,27.97-59.28
					c22.56-45.79,46.11-91.09,68.54-136.95c9.97-20.4,19.77-40.9,28.8-61.74c6.7-15.46,13.33-31.19,17.69-47.5
					c2.13-7.98,5.5-19.78,0.17-27.23c-9.4-13.16-28.98-11.14-41.65-4.99c-17.36,8.43-32.4,22.27-46.42,35.27
					c-18.38,17.05-35.75,35.16-53.08,53.27c-16.56,17.32-32.96,34.84-50.18,51.51c-11.02,10.67-22.5,22.6-36.07,28.59
					c-1.62,0.72,0.63-0.18-0.19,0.1c-0.42,0.14-0.87,0.16-1.28,0.3c-1.53,0.52,1.96-0.01,0.46-0.04c-0.61-0.01,2.42,0.29,3.09,0.45
					c-0.41-0.1,2.6,1.03,3.03,1.27c-0.64-0.34-1.06-1.19-0.43-0.21c1,1.58-0.41-0.39-0.43-0.44c-0.54-1.32,0.87,1.37-0.11-0.11
					c-1.59-2.41-1.22-1.2-1.9-4.37c-0.62-2.89-0.51-3.35-0.28-5.83c1.29-14.27,9.21-28.19,16.17-40.36
					c23.22-40.55,52.95-77.51,81.19-114.6c27.32-35.89,56.23-71.54,78.69-110.78c6.05-10.58,13.41-23.01,13.6-35.58
					c0.23-15.41-16.87-20.71-29.75-21.02c-20.82-0.51-42.1,8.19-60.81,16.36c-31.09,13.58-60.5,31.05-88.67,49.87
					c-36.04,24.06-70.28,50.82-102.63,79.64c-33.79,30.1-65.02,62.25-92.07,98.59c-50.71,68.13-89.02,144.32-135.66,215.12
					c-4.32,6.56,14.37,12.97,17.94,7.56c47.76-72.51,86.79-150.72,139.36-220.05c27-35.61,58.23-67.08,91.69-96.62
					c32.19-28.42,66.21-54.9,102.12-78.46c27.24-17.88,55.65-34.49,85.66-47.33c10.55-4.52,21.35-8.63,32.52-11.34
					c2-0.48,4.01-0.93,6.03-1.31c1.07-0.2,2.15-0.37,3.23-0.55c1.24-0.2,2.57-0.34,2.02-0.29c1.73-0.17,3.46-0.22,5.19-0.27
					c0.72-0.02,3.35,0.24,0.69-0.03c0.76,0.08,1.54,0.2,2.3,0.25c1.44,0.09-2.36-0.71,0.01,0c2.02,0.61-0.61-0.3-0.41-0.19
					c2,1.06-0.25-0.3-0.11-0.14c1.33,1.55-0.33-0.35,0.17,0.05c1.15,0.91-0.01-0.14,0.04-0.08c0.27,0.3,0.59,0.69,0.76,1.06
					c0.38,0.78,0.36,0.73,0-0.15c0.19,0.45,0.4,0.92,0.5,1.4c0.89,4.08,0.47,7.13-0.99,12.19c-4.19,14.51-12.77,27.89-20.87,40.46
					c-25.48,39.54-55.15,76.36-83.51,113.83c-26.34,34.8-54.47,70.05-74.03,109.28c-5.3,10.63-11.63,23.83-9.56,36.09
					c2.17,12.92,17.31,19.97,29.25,16.74c13.88-3.76,25.93-16.35,36.07-25.86c16.83-15.77,32.65-32.61,48.57-49.28
					c17.25-18.06,34.47-36.18,52.49-53.49c14.3-13.73,29.19-28.04,46.38-38.14c3.13-1.84,6.35-3.44,9.7-4.83
					c2.19-0.91,0.54-0.42,2.89-0.95c1.18-0.27,4.48-1.15,2.38-0.52c0.31-0.09,2.64-0.56,0.88-0.08c-1.23,0.33-0.26,0.06,0.56,0.11
					c-2.62-0.16-2.17-0.48-1.35-0.25c0.83,0.23,1.05,0.64-1.31-0.48c1.95,0.93-1.26-0.93-0.27-0.21c1.31,0.96-0.4,0.09-0.01-0.06
					c-0.13,0.05,2.79,2.12,0.19,0.02c0.65,0.53,1.17,2.32,0.48,0.49c1.6,4.24,1.15,6.03,0.6,10.16c-0.78,5.91-2.39,11.72-4.14,17.4
					c-11.94,38.62-31.04,75.38-48.85,111.53c-22.18,45.01-45.32,89.54-67.39,134.61c-9.33,19.05-18.53,38.19-26.93,57.68
					c-5.73,13.3-11.63,26.95-14.88,41.12c-2.14,9.36-2.72,18.84,7.52,23.29c12.45,5.4,19.72-3.48,27.27-11.86
					c27.88-30.94,52.67-64.84,78.57-97.42c29.96-37.69,59.88-76.07,93.88-110.26c9.99-10.05,20.1-20,32.06-25.85
					c2.25-1.1-0.5,0.55,1.35-0.47c0.36-0.2,0.94-0.16,1.34-0.25c-2.32,0.51-0.05,0.24-1.53,0.1c-0.19-0.02-3.33-0.6-2.44-0.37
					c0.54,0.14-3.14-1.13-0.81-0.2c1.79,0.71-0.32-0.21-0.21-0.14c0.58,0.35,1.17,0.69,1.76,1.03c1.78,1.04-0.9-0.73-0.05-0.06
					c0.36,0.29,0.71,0.59,1.04,0.91c1.18,1.13,0.1,0.08,0.03-0.01c0.32,0.44,0.67,0.84,0.95,1.31c1.1,1.85,0.2-0.21,0.63,1.25
					c0.27,0.92,0.48,1.81,0.65,2.75c0.21,1.13,0.12,2.2,0.13,1.82c-0.05,1.1-0.18,2.18-0.36,3.26c-0.42,2.49-1.17,4.93-2.01,7.3
					c-2.15,6.07-5.06,11.86-7.97,17.58c-8.24,16.19-16.92,32.14-24.1,48.85c-22.56,52.44-29.54,109.2-21.65,165.72
					c5.47,39.15,17.12,75.97,33.77,111.55c12.22,26.12,24.71,51.34,36.33,77.56c13.6,30.7,25.94,62.05,35.23,94.34
					c9.42,32.75,15.89,66.75,15.98,100.93c0.1,33.66-6.5,67.45-21.28,97.81c-17.01,34.94-44.67,63.77-76.36,85.84
					c-44.9,31.26-97.57,50.62-150.19,64.28c-69.96,18.17-142.63,27.68-214.77,31.09c-55,2.6-110.43,0.95-164.74-8.6
					c-20.91-3.68-43.38-9.12-64.64-16.07c-4.55-1.49-8.17-2.75-13.74-4.83c-4.77-1.78-9.51-3.66-14.21-5.62
					c-8.73-3.66-18.9-8.42-25.72-12c-31.58-16.55-59.81-37.67-83.09-64.14c-22.06-25.09-39.41-54.1-51.58-85.19
					c-12.48-31.88-19.83-65.6-23.33-99.61c-3.67-35.72-3.09-71.76,0.4-107.47c3.67-37.51,10.53-74.68,19.73-111.21
					c9.22-36.64,20.79-72.68,34.32-107.96c13.02-33.96,27.85-67.23,44.48-99.58c15.09-29.36,31.66-57.98,50.08-85.37
					c15.54-23.1,32.38-45.47,51.35-65.88c7.83-8.42,16.04-16.51,24.8-23.95c8.06-6.85,13.9-11.24,22.29-16.13
					c3.55-2.07,7.21-3.96,10.99-5.57c1.77-0.75,3.56-1.42,5.37-2.06c1.39-0.5-1.43,0.43-0.29,0.09c0.44-0.13,0.87-0.28,1.31-0.39
					c0.86-0.23,1.72-0.48,2.58-0.69c0.79-0.19,1.59-0.34,2.39-0.52c1.71-0.38,2.92,0.35,0.64-0.2c1.51,0.36,1.96,0.19-0.36-0.15
					c1.71,0.25-0.94-0.21-1.41-0.34c1.88,0.52-1.55-0.6-1.29-0.49c-0.74-0.31-1.42-0.69-2.04-1.25c1,0.9-0.19-1.53,0.23,0.32
					c0.42,1.84,0-0.67,0.49,0.98c0.27,0.92,0.54,1.82,0.73,2.76c2.64,13.5-2.41,30.61-5.73,44.39
					c-8.54,35.42-20.11,70.15-31.71,104.66C358.79,846.91,377.98,852.49,380.26,845.7L380.26,845.7z"/>
			</g>
		</g>
		<g class="st1">
			<path class="st2" d="M349.82,1050.64c-4.54-38.4-24.04-92.8-28.58-131.19c-0.74-6.26-2.76-13.99-8.95-15.17
				c-6.73-1.29-11.44,6.32-13.99,12.69c-31.47,78.56-58.63,158.85-81.33,240.38c-14.12,50.71-74.17,390.24,287.55,418.86
				c311.57,24.65,513.96-182.1,460.72-333.61c-24.07-68.49-91.6-328.16-117.73-337.31c-31.8-11.13-121.6,170.94-158.07,164.19
				c-67.84-23.75,91.81-316.24,70.16-337.89c-29.31-29.31-177.67,198.69-210.55,178.12c-25.03-15.66,36.85-138.07,61.85-206.09
				c25-68.01,130.79-180.1,108.09-187.89c-75.25-25.81-288.93,328.61-365.56,531.88"/>
			<g>
				<path class="st3" d="M359.82,1050.64c-3.4-27.78-11.25-54.75-18.14-81.81c-3.28-12.87-6.46-25.79-8.81-38.87
					c-2.08-11.57-1.59-26.85-13.28-33.52c-14.59-8.33-26.01,5.84-30.94,17.86c-6.47,15.78-12.52,31.76-18.51,47.72
					c-11.75,31.31-22.82,62.88-33.2,94.67c-10.38,31.79-20.08,63.8-29.07,96.02c-1.5,5.37-2.8,10.78-3.94,16.23
					c-3.58,17.18-5.96,34.65-7.53,52.12c-4.44,49.53-1.65,100.43,11.44,148.54c16.18,59.5,49.44,112.65,98.79,150.09
					c69.2,52.52,159.82,68,244.72,68.5c97.95,0.58,197.93-21.86,281.96-73.41c62.81-38.53,120.2-95.65,142.12-167.69
					c9.08-29.86,11.07-61.94,3.79-92.41c-2.91-12.17-7.54-23.95-11.3-35.88c-4.66-14.78-9.11-29.62-13.54-44.47
					c-21.82-73.16-41.88-147.28-68.89-218.76c-4.8-12.7-9.81-25.43-15.95-37.55c-3.72-7.33-8.24-16.2-15.51-20.64
					c-8.81-5.38-19.29-1.5-26.94,4.05c-10.73,7.78-19.44,18.03-27.7,28.29c-22.37,27.78-41.93,57.69-63.46,86.11
					c-7.77,10.25-17.73,22.9-28.16,32.94c-2.06,1.98-4.23,3.82-6.39,5.69c-1.69,1.46,1.38-1,0.23-0.16
					c-0.42,0.31-0.83,0.63-1.26,0.93c-1.13,0.78-2.25,1.56-3.43,2.26c-0.92,0.55-1.9,0.99-2.82,1.51c-1.67,0.95,2.35-0.76,0.57-0.23
					c-0.45,0.13-0.87,0.35-1.33,0.46c-1.63,0.41-3.22-0.06-0.32,0.29c-0.79-0.1-2-0.04-2.8,0.02c1.78-0.14,2.56,0.28,1.04-0.07
					c2.75,0.64,1.61,0.82,0.76,0.29c-0.72-0.45-1.52-0.87-2.26-1.29c-2.5-1.39,1.08,1.35-0.35-0.25c-0.55-0.61-1.2-1.27-1.81-1.82
					c-1.62-1.45,1.18,2.12-0.3-0.39c-0.46-0.78-0.96-1.52-1.39-2.31c-0.45-0.83-1.55-3.92-0.37-0.58c-0.38-1.09-0.8-2.15-1.13-3.26
					c-0.61-2.05-0.99-4.13-1.38-6.23c-0.39-2.06,0.19,2.54,0.05,0.41c-0.04-0.58-0.13-1.16-0.19-1.74
					c-0.13-1.41-0.22-2.82-0.28-4.23c-0.21-5.42,0.07-10.85,0.6-16.25c0.15-1.48,0.32-2.97,0.5-4.45c0.31-2.6-0.33,2.24,0.05-0.38
					c0.11-0.77,0.22-1.55,0.34-2.32c0.53-3.49,1.15-6.97,1.83-10.44c1.36-6.94,2.97-13.83,4.74-20.68
					c4.02-15.62,8.83-31.04,13.94-46.34c10.99-32.86,23.52-65.19,35.86-97.56c9.71-25.47,20.07-51.02,27.17-77.38
					c3.76-13.98,9.81-38.42-10.24-42.85c-9.4-2.08-18.96,2.91-26.49,8.04c-10.54,7.17-19.98,15.96-29.02,24.91
					c-23.26,23.01-44.52,48.02-66.21,72.49c-19.8,22.33-39.54,45.57-62.52,64.74c-1.05,0.88-2.12,1.73-3.19,2.59
					c-1.81,1.46,1.79-1.33-0.04,0.04c-0.51,0.38-1.01,0.76-1.52,1.13c-2.02,1.48-4.1,2.91-6.25,4.2c-1.71,1.02-3.53,1.8-5.25,2.77
					c2.91-1.64,0.95-0.33-0.04-0.05c-0.86,0.24-1.83,0.42-2.66,0.73c-2.05,0.77,2.89-0.18,0.2-0.05c-1.08,0.05-3.57-0.43,0.41,0.22
					c-0.61-0.1-1.18-0.28-1.76-0.49c3.19,1.15,2.09,0.93,1.31,0.49c-1.92-1.1,1.48,1.51,0.33,0.31c-2.1-2.19,0.81,1.55-0.43-0.52
					c-1.13-1.87,0.32,2.15-0.37-0.91c-0.19-0.84-0.77-4.66-0.44-1.35c-0.16-1.56-0.25-3.11-0.25-4.67c0-1.24,0.06-2.48,0.14-3.72
					c0.05-0.76,0.58-5.39,0.26-3.05c0.56-4.04,1.39-8.05,2.33-12.02c2.18-9.25,5.03-18.34,8.09-27.33
					c7.23-21.27,15.75-42.09,24.37-62.83c8.62-20.74,17.5-41.38,25.79-62.26c7.07-17.82,12.85-32.63,22.68-49.58
					c21.09-36.32,46.99-69.51,70.74-104.07c8.47-12.32,42.87-56.56,11.69-63.8c-20.75-4.83-41.06,8.5-56.62,20.61
					c-24.2,18.83-44.65,42.42-63.81,66.2c-26.22,32.55-50.21,66.87-72.99,101.9c-50.18,77.18-95.14,158.04-134.75,241.14
					c-17.13,35.94-33.26,72.43-47.33,109.68c-1.91,5.05,2.12,10.96,6.98,12.3c5.62,1.54,10.39-1.91,12.3-6.98
					c30.06-79.59,69.11-156.67,110.87-231.17c41.45-73.95,86.85-148.12,139.76-213.6c18.8-23.27,38.87-46.38,62.53-64.88
					c-2.07,1.62,1.47-1.1,2.05-1.52c1.13-0.83,2.27-1.64,3.43-2.44c2.35-1.62,4.75-3.18,7.22-4.64c1.92-1.13,3.87-2.21,5.87-3.2
					c1.03-0.51,2.07-0.98,3.1-1.46c1.88-0.88-2.27,0.87-0.36,0.15c0.67-0.25,1.33-0.52,2-0.77c1.75-0.63,3.52-1.19,5.33-1.63
					c0.93-0.22,1.87-0.36,2.8-0.58c0.89-0.21,2.35,0.01-0.83,0.09c0.6-0.01,1.19-0.15,1.79-0.17c1.56-0.04,3.2,0.17,4.74,0.06
					c1.66-0.12-2.54-0.74-1-0.14c0.37,0.14,0.83,0.12,1.22,0.23c0.73,0.2,2.03,0.8,2.76,0.76c-0.93,0.05-2.99-1.87-2.43-1.31
					c-1.76-1.77-1.5-2.04-0.94-1.09c-1.37-2.31-0.89-2.33-0.62-1.26c0.15,0.56-0.17-3.09-0.19-0.62c-0.01,1.18-0.67,1.28,0.2-1.08
					c-0.2,0.55-0.19,1.19-0.37,1.75c-0.31,0.98-0.61,1.97-0.93,2.95c-0.17,0.55-0.42,1.07-0.62,1.61c1.07-2.78,0.3-0.68,0.02-0.11
					c-1.29,2.6-2.56,5.19-3.99,7.73c-8.34,14.82-18.45,28.67-28.28,42.52c-23.79,33.49-49.22,66.68-67.72,103.52
					c-8.6,17.12-14.61,35.48-21.89,53.17c-8.78,21.33-17.89,42.53-26.56,63.91c-7.91,19.49-15.65,39.14-21.69,59.31
					c-4.31,14.41-8.89,30.52-6.44,45.66c1.74,10.74,9.81,19.51,21.19,18.94c9.27-0.46,17.74-6,24.93-11.42
					c22.77-17.16,41.87-39.23,60.8-60.38c22.04-24.64,43.46-49.87,66.42-73.68c9.03-9.37,18.33-18.48,28.4-26.74
					c0.52-0.43,1.05-0.84,1.58-1.26c-2.18,1.72-0.4,0.3,0.05-0.02c1-0.73,1.99-1.47,3.01-2.18c1.84-1.28,3.72-2.5,5.68-3.61
					c0.87-0.49,1.77-0.92,2.65-1.4c2.7-1.48-1.61,0.33,0.54-0.27c0.78-0.22,1.59-0.51,2.36-0.77c0.36-0.12,0.78-0.13,1.13-0.27
					c1.91-0.75-1.9-0.23-0.86,0.08c0.49,0.15,1.17-0.15,1.7-0.05c2.11,0.4-2.98-0.77-0.47-0.04c2.43,0.7-2.17-1.21-0.41-0.22
					c2.16,1.22-1.76-1.95-0.04-0.07c1.12,1.22-1.74-2.67-0.72-0.88c0.85,1.5-1.15-2.83-0.47-1.14c0.18,0.46,0.31,1.01,0.38,1.5
					c-0.11-0.82-0.05-2.7-0.1-0.28c-0.03,1.39,0,2.75-0.11,4.14c-0.06,0.76-0.19,1.51-0.24,2.27c0.27-3.94-0.02-0.06-0.2,0.96
					c-0.78,4.37-1.86,8.69-3.04,12.98c-7.22,26.25-17.51,51.71-27.2,77.12c-11.98,31.41-24.11,62.78-34.84,94.65
					c-9.66,28.7-18.72,58.04-22.37,88.21c-2.34,19.3-2.61,44.78,15.33,57.13c21.13,14.54,43.74-12,56.12-26.53
					c22.57-26.47,41.77-55.67,62.32-83.68c9.14-12.45,16.76-22.79,27.52-34.55c3.89-4.24,7.97-8.24,12.39-11.92
					c1.69-1.4-1.88,1.31-0.12,0.1c0.47-0.32,0.92-0.67,1.4-0.99c0.88-0.6,1.78-1.17,2.71-1.69c1.04-0.58,3.86-1.3,0.61-0.46
					c0.76-0.2,1.73-0.46,2.44-0.79c1.9-0.89-2.67-0.08,0.01,0c2.82,0.09-2.31-0.6-0.18-0.07c2.54,0.63-2.26-1.13-0.67-0.31
					c1.92,0.98-0.54-0.58-0.48-0.45c0.44,0.9,2.09,2.29,2.83,3.02c-2.49-2.48-0.44-0.56,0.19,0.36c0.63,0.92,1.24,1.86,1.82,2.82
					c2.51,4.1,4.68,8.41,6.73,12.75c1.14,2.42,2.24,4.86,3.31,7.31c0.29,0.67,2.08,4.89,1.17,2.7c0.75,1.8,1.49,3.6,2.22,5.41
					c12.9,31.96,23.35,64.94,33.64,97.81c11.79,37.67,22.95,75.54,34.17,113.38c8.33,28.1,16.32,56.38,25.91,84.09
					c2.27,6.55,4.27,13.16,5.72,19.94c0.69,3.23,1.26,6.48,1.75,9.75c0.44,2.96-0.23-2.06,0.12,0.91c0.1,0.9,0.21,1.79,0.3,2.69
					c0.22,2.09,0.39,4.19,0.52,6.29c0.45,7.26,0.39,14.54-0.14,21.79c-0.13,1.83-0.3,3.66-0.49,5.49c-0.1,0.92-0.21,1.83-0.32,2.75
					c-0.36,3.04,0.31-2.03-0.13,1.01c-0.54,3.69-1.18,7.37-1.95,11.02c-6.67,31.96-20.73,59.6-40.48,86.27
					c-46.88,63.31-120.95,107.24-196.33,131.31c-47.55,15.18-97.13,23.27-146.98,25.02c-49.12,1.72-99.07-1.64-146.89-13.44
					c-36.42-8.99-70.25-22.53-101.38-43.64c-12.8-8.68-23.8-17.71-35.36-29.27c-10.95-10.96-19.42-21.23-27.42-32.86
					c-8.21-11.94-15.4-24.58-21.55-37.7c-1.35-2.89-2.65-5.8-3.91-8.73c-1.14-2.65,0.76,1.86-0.34-0.8c-0.33-0.8-0.66-1.6-0.98-2.4
					c-0.75-1.86-1.48-3.73-2.2-5.61c-2.42-6.38-4.63-12.84-6.63-19.37c-3.9-12.75-7-25.75-9.38-38.87
					c-0.58-3.21-1.12-6.42-1.62-9.64c-0.25-1.6-0.48-3.19-0.71-4.79c-0.08-0.53-0.15-1.06-0.22-1.59c-0.24-1.73,0.19,1.58-0.17-1.32
					c-0.77-6.27-1.45-12.55-1.95-18.85c-1.86-23.17-1.82-46.5-0.14-69.68c0.69-9.56,1.71-19.09,2.93-28.59
					c-0.47,3.62,0.04-0.25,0.16-1.08c0.15-1.04,0.3-2.08,0.45-3.11c0.3-1.99,0.61-3.97,0.93-5.95c0.61-3.73,1.27-7.46,1.98-11.17
					c5.76-29.91,15.64-59.08,24.7-88.1c9.86-31.6,20.39-62.99,31.6-94.14c5.66-15.73,11.49-31.41,17.49-47.02
					c2.69-7.01,5.42-14,8.18-20.98c1.28-3.23,2.44-6.57,3.91-9.71c0.29-0.63,3.23-5.03,3.08-5.29c-0.05-0.09-1.8-0.6-1.81-0.6
					c-0.01,0.01,0.54,0.32,0.57,0.86c0.1,1.53,1.12,3.81,1.33,5.05c1.09,6.28,1.73,12.62,2.92,18.9c2.4,12.6,5.49,25.07,8.67,37.5
					c6.3,24.66,13.9,49.47,17,74.8c0.66,5.36,4.13,10,10,10C354.71,1060.64,360.48,1056.04,359.82,1050.64L359.82,1050.64z"/>
			</g>
		</g>
		<g>
			<g>
				<path class="st3" d="M869.12,876.32c13.73-21.3,27.28-42.75,40.34-64.47c6.65-11.06-10.64-21.13-17.27-10.09
					c-13.05,21.72-26.61,43.17-40.34,64.47C844.86,877.08,862.16,887.12,869.12,876.32L869.12,876.32z"/>
			</g>
		</g>
		<g>
			<g>
				<path class="st4" d="M789.87,697.74c9.09-12.62,20.39-23.62,29.01-36.63c7.13-10.76-10.18-20.79-17.27-10.09
					C793,664,781.7,675.01,772.6,687.64c-3.16,4.39-0.76,11.14,3.59,13.68C781.22,704.27,786.7,702.13,789.87,697.74L789.87,697.74z
					"/>
			</g>
		</g>
		<g>
			<g>
				<path class="st3" d="M757.69,485.73c12.91-11.74,23.99-25.42,36.9-37.17c9.54-8.68-4.63-22.79-14.14-14.14
					c-12.91,11.74-23.99,25.42-36.9,37.17C734,480.27,748.18,494.38,757.69,485.73L757.69,485.73z"/>
			</g>
		</g>
		<g>
			<g>
				<path class="st3" d="M327.4,857.44c5.67-11.82,8.31-24.78,12.14-37.25c5.25-17.11,12.55-33.07,22.91-47.71
					c3.12-4.41,0.79-11.12-3.59-13.68c-5.01-2.93-10.55-0.83-13.68,3.59c-10.73,15.17-18.44,32.06-24.07,49.73
					c-2.17,6.81-4.01,13.71-5.98,20.57c-0.84,2.93-1.7,5.85-2.68,8.74c-1.03,3.05-1.5,4.21-2.33,5.93
					c-2.33,4.87-1.34,10.8,3.59,13.68C318.09,863.58,325.05,862.33,327.4,857.44L327.4,857.44z"/>
			</g>
		</g>
		<ellipse class="st5" cx="523.05" cy="1219.04" rx="26" ry="48"/>
		<ellipse class="st5" cx="635.05" cy="1219.04" rx="26" ry="48"/>
		<g>
			<g>
				<path d="M431.89,1365.29c22.79,41.57,66.29,68.65,112.29,77.08c50.38,9.24,101.5-3.81,144.84-30.15
					c25.04-15.21,47.56-34.54,67.1-56.32c8.57-9.56-5.53-23.75-14.14-14.14c-31.94,35.61-72.35,64.99-118.99,77.57
					c-41.89,11.3-87.19,7-124.99-14.92c-20.41-11.84-37.47-28.47-48.84-49.21C442.97,1343.91,425.69,1353.99,431.89,1365.29
					L431.89,1365.29z"/>
			</g>
		</g>
		<circle class="st6" cx="531.55" cy="1198.04" r="8.5"/>
		<circle class="st6" cx="531.55" cy="1198.04" r="8.5"/>
		<circle class="st6" cx="643.55" cy="1198.04" r="8.5"/>
		<ellipse class="st7" cx="465.58" cy="1289.5" rx="44" ry="19"/>
		<ellipse class="st7" cx="465.58" cy="1289.5" rx="44" ry="19"/>
		<ellipse class="st7" cx="465.58" cy="1289.5" rx="44" ry="19"/>
		<ellipse class="st7" cx="706.12" cy="1286.04" rx="44.5" ry="19"/>
	</g>
</g>
<g id="Ebene_11">
	<g>
		<g id="Ebene_7_1_">
			<g>
				<path class="st8" d="M863.46,960.33c-14,6-18.53,28.83-7.72,38.93c-39.78,48.18-41.43,125.85-3.63,171.15
					c11.98,14.37,27.68,25.72,45.7,29.53c33.27,7.03,69.37-13.47,90.62-43.45c8.11-11.45,14.45-24.12,20.75-36.73
					c13.42-26.87,26.84-53.74,40.26-80.6c3.74-7.47,7.55-15.27,8-23.54c0.94-17.26-12.64-30.32-25.84-39.51
					c-32.3-22.48-69.49-37.36-108.36-43.35c-11.1-1.71-22.63-2.68-33.68,0.61c-11.05,3.29-21.63,11.59-25.35,23.18"/>
				<g>
					<path class="st8" d="M863.96,956.17c-16.33,7.46-26.47,33.12-12.54,46.81c0.43-1.76,0.86-3.52,1.3-5.28
						c-28.39,34.68-38.74,83-29.18,125.65c10.3,45.95,47.68,88.62,96.02,81.74c22.31-3.17,43.28-15.81,59.73-32.54
						c20.37-20.73,32.07-49.02,45.01-74.93c7.16-14.35,14.33-28.69,21.49-43.03c3.53-7.06,7.17-14.08,10.54-21.22
						c2.98-6.31,5.57-13.15,5.84-20.15c0.94-24.93-23.26-39.76-40.56-50.25c-24.21-14.68-50.72-25.26-78.33-31.46
						c-23.96-5.38-53.25-10.55-73.76,10.24c-4.33,4.39-7.74,9.65-9.77,15.58c-0.82,2.4,0.45,4.01,2.76,3.73
						c2.43-0.3,5.27-2.79,6.12-5.27c8.8-25.65,41.25-20.59,59.86-17.11c26.12,4.88,51.3,13.87,74.65,26.48
						c10.67,5.76,21.29,12.11,30.83,19.75c7.32,5.87,14.66,13.47,17.52,23.09c3.74,12.61-2.68,24.26-8.31,35.55
						c-6.59,13.21-13.19,26.41-19.79,39.62c-6.68,13.37-13.34,26.76-20.04,40.12c-6.09,12.13-12.35,24.5-20.6,35.24
						c-12.81,16.68-30.31,29.86-49.7,35.44c-44.54,12.82-83.11-22.51-96.74-64.05c-12.27-37.37-7.98-82.31,13.79-117.02
						c2.65-4.22,5.55-8.22,8.69-12.06c0.88-1.07,2.65-3.95,1.3-5.28c-4.5-4.43-6.25-10.77-5.33-17.41
						c0.72-5.29,3.24-11.37,8.23-13.64c2.21-1.01,5.02-3.26,5.22-6.04C868.38,955.85,865.92,955.28,863.96,956.17L863.96,956.17z"/>
				</g>
			</g>
			<g>
				<g>
					<path class="st8" d="M869.11,1202.92c3.88,1.52,11.57-6.91,7.31-8.58C872.55,1192.82,864.86,1201.26,869.11,1202.92
						L869.11,1202.92z"/>
				</g>
			</g>
			<g>
				<g>
					<path class="st8" d="M861.94,1202.91c0.16,8.92,5.45,16.71,13.95,18.13c8.87,1.48,18.16-4.43,23.06-12.42
						c0.68-1.12,1.63-4.16-0.22-4.69c-8.56-2.48-17.13-4.96-25.69-7.45c-2.43-0.7-4.98,0.7-6.68,2.74
						c-0.94,1.13-3.08,5.13-0.62,5.84c8.56,2.48,17.13,4.96,25.69,7.45c-0.07-1.56-0.15-3.13-0.22-4.69
						c-6.41,10.46-19.65,0.8-19.82-8.67C871.27,1193.18,861.86,1198.59,861.94,1202.91L861.94,1202.91z"/>
				</g>
			</g>
		</g>
		<g id="Ebene_5_1_">
			<g>
				<path class="st9" d="M1064.09,990.65c28.73-74.19,95.28-124.52,159.76-167.02c64.49-42.5,133.47-84.7,174.36-152.72
					c51.71-86.02,45.3-201.14-5.9-281.21s-141.36-125.87-234.2-132.68c-57.86-4.25-118.09,5.82-171.32,34.4
					s-110.88,81.82-133.65,140.26c-31.56,80.98-5.05,165.09,11.34,248.17s33.9,170.94,7.46,253.69
					c68.48-6.3,137.36,16.9,187.7,63.19"/>
				<g>
					<path class="st9" d="M1068.53,989.88c25.13-64.32,78.97-109.73,132.52-146.85c53.89-37.35,111.34-69.58,158.39-117.33
						c22.28-22.61,41.52-48.7,55.1-77.98c12.49-26.92,20.02-56.19,22.87-85.5c5.73-59.06-7.09-118.93-35.61-167.81
						c-30.86-52.9-79.37-92.19-133.52-115.66c-55.44-24.03-117.68-32.46-178.69-24.16c-30.39,4.14-60.66,12.63-89.12,26.03
						c-28.08,13.23-54.43,31.11-78.16,52.2c-24.07,21.39-46.11,46.47-62.06,75.22c-15.28,27.55-23.65,58.34-25.88,89.47
						c-4.61,64.43,13.82,126.38,25.93,187.75c12.87,65.23,26.59,132.67,17.76,200.86c-2.11,16.3-5.56,32.42-10.55,48.16
						c-0.78,2.46,0.36,3.94,2.76,3.73c52.64-4.7,105.28,8.16,149.57,35.58c12.59,7.79,24.47,16.76,35.48,26.83
						c3.36,3.07,11.73-4.63,8.66-7.44c-39.9-36.5-90.7-58.95-144.33-63.96c-15.24-1.42-30.64-1.38-46.02,0
						c0.92,1.24,1.84,2.49,2.76,3.73c20.5-64.74,14.87-132.45,3.94-196.66c-5.47-32.1-11.96-63.96-18.78-95.68
						c-6.61-30.75-13.31-61.61-16.55-93.21c-3.11-30.34-2.75-61.62,4.78-91.89c7.61-30.58,22.89-58.1,42.63-82.18
						c40.18-49.03,94.85-85.3,153.14-101.29c59.2-16.24,122.04-14.69,179.14,2.29c56.51,16.81,108.83,49,146.64,96.1
						c35.29,43.95,55.76,100.26,57.78,159.57c2.02,59.16-15.33,118.8-52.19,166.03c-40.56,51.98-96.49,86.57-149.58,121.45
						c-53.92,35.43-109.25,74.74-145.82,131.37c-8.67,13.44-16.05,27.77-21.89,42.74c-0.93,2.39,0.53,4,2.76,3.73
						C1064.94,994.83,1067.57,992.35,1068.53,989.88L1068.53,989.88z"/>
				</g>
			</g>
		</g>
		<g id="Ebene_6_1_">
			<g>
				<path class="st10" d="M1361.6,513.25c-13.41-61.98-52.32-136.37-103.07-169.23s-147.45-30.6-206.17-9.4
					c-81.2,29.32-135.9,136.62-143.05,226.36c-6.19,77.71,55.39,134.75,118.68,169.64c63.28,34.89,148.88,55.73,211.85,12.54
					s117.1-152.01,121.68-229.74"/>
				<g>
					<path class="st10" d="M1366.29,510.37c-5.69-26.04-14.8-51.01-26.22-74.49c-11.9-24.46-26.54-47.54-44.49-67.25
						c-15.55-17.07-33.62-31.37-54.86-39.78c-21.31-8.44-44.36-12.37-67.33-13.81c-24.25-1.53-48.9-0.32-73.21,3.57
						c-21.42,3.43-43.29,8.73-63.25,18.77c-40.46,20.35-72.16,57.79-94.12,98.7c-11.35,21.14-20.45,43.56-27.04,66.65
						c-6.33,22.19-11.18,45.65-11.59,68.57c-0.83,46.62,22.96,86.19,53.67,115.66c32.2,30.91,71.9,54.28,113.31,69.25
						c41.28,14.92,87.54,22.22,131.56,8.71c43.04-13.2,76.57-48.51,102.21-86.81c27.13-40.53,47.77-87.49,57.23-135.52
						c2.02-10.28,3.45-20.65,4.09-31.05c0.36-5.89-9.18-0.58-9.45,3.76c-2.77,45.09-19.16,90.28-40.49,130.08
						c-11.14,20.79-24.04,40.68-39.13,58.6c-13.53,16.05-28.94,30.84-46.76,41.13c-38.78,22.39-84.6,20.86-124.82,10.85
						c-41.76-10.4-81.46-30.59-115.85-56.65c-32.62-24.73-63-58.15-72.87-101.18c-4.88-21.27-3.34-43.08,0.45-64.93
						c3.9-22.51,10.38-44.63,18.98-65.87c16.81-41.47,42.41-81.13,77.58-107.76c16.63-12.59,35.15-20.79,54.59-25.98
						c22.22-5.94,45.06-9.03,67.67-9.85c43.94-1.58,91.86,3.66,127.49,30.77c19.63,14.94,35.79,34.76,49.34,55.91
						c14.08,21.97,25.55,45.96,34.19,71.13c3.88,11.29,7.16,22.83,9.72,34.61C1357.98,521.03,1367.24,514.69,1366.29,510.37
						L1366.29,510.37z"/>
				</g>
			</g>
		</g>
		<g id="Ebene_3">
			<g>
				<g>
					<path class="st11" d="M1062.36,1005.66c16.01-31.39,36.36-60,59.83-85.72c22.96-25.17,48.56-47.42,74.92-68.33
						c27.11-21.5,54.76-42.06,83.9-60.16c28.29-17.57,57.59-34.58,81.99-58.39c42.97-41.93,68.63-100.8,76.03-160.46
						c7.45-60.02-3.06-121.16-30.71-171.97c-29.53-54.26-76.45-95.79-129.93-121.79c-54.37-26.43-115.73-37.09-176.83-31.2
						c-61.78,5.96-123.94,29.65-173.41,72.79C878,364.15,840.54,427.33,833.12,495.1c-3.76,34.32,0.48,68.45,6.83,101.51
						c6.38,33.22,14.47,65.9,20.27,99.28c10.71,61.54,15.07,123.9,11.77,187.27c-0.92,17.61-2.31,35.22-4.03,52.81
						c-0.57,5.84,9.02,0.56,9.45-3.76c6.3-64.52,7.29-128.95-0.41-192.53c-3.81-31.44-9.29-62.56-15.88-93.3
						c-7-32.69-14.96-65.24-18.36-98.86c-3.36-33.2-1.27-66.93,8.86-99.52c9.87-31.78,26.09-61.51,46.77-87.2
						c41.17-51.14,98.25-83.77,158.63-97.53c59.7-13.61,121.92-10.05,178.33,9.39c55.65,19.17,106.43,53.6,142.74,101.89
						c34.54,45.95,53.68,103.39,53.79,163.93c0.11,57.7-16.34,117.72-51.42,164.62c-19.56,26.16-44.23,45.42-70.86,62.53
						c-14.18,9.11-28.63,17.71-42.82,26.8c-13.92,8.92-27.28,18.67-40.59,28.61c-53.64,40.09-106.28,83.58-145.55,140.26
						c-9.63,13.89-18.31,28.46-26.01,43.57C1051.17,1011.64,1060.07,1010.18,1062.36,1005.66L1062.36,1005.66z"/>
				</g>
			</g>
			<g>
				<g>
					<path class="st11" d="M861.61,953.26c0.24,6.84,4.76,12.64,9.13,17c7.25,7.22,16,12.73,24.81,17.62
						c27.17,15.07,57.05,25.17,86.71,34.03c9.13,2.73,18.3,5.3,27.51,7.73c8.5,2.25,17.43,5.58,26.36,5.73
						c7.33,0.12,14.87-1.74,20.86-6.87c6.29-5.37,9.34-13.61,7.61-21.67c-1.84-8.54-7.63-15.83-13.23-21.78
						c-6.35-6.75-13.72-12.4-21.44-17.31c-16.45-10.47-34.49-18.56-52.84-24.95c-20.55-7.16-41.93-12.04-63.69-14.4
						c-10.05-1.1-21.38-3.01-31.52-0.26c-9.05,2.47-17.95,9.97-19.32,20.28c-0.36,2.72,2.39,2.94,4.22,2.28
						c2.31-0.84,4.87-3.37,5.22-6.04c1.14-8.6,11.23-8.76,17.35-8.57c8.9,0.28,17.77,1.18,26.55,2.39
						c17.92,2.47,35.54,6.62,52.59,12.47c16.31,5.59,32.18,12.63,47.17,21.21c13.96,8,28.32,18.16,36.58,32.95
						c2.61,4.67,6.04,13.88,0.57,18.38c-4.76,3.92-12.69,3.14-17.92,2.04c-16.94-3.55-33.69-8.6-50.2-13.65
						c-26.98-8.26-53.99-17.65-78.95-30.98c-8.92-4.77-17.95-10.04-25.39-17.11c-4.54-4.3-9.16-9.51-9.4-16.29
						c-0.1-2.72-4.14-1.41-5.42-0.65C863.34,948.18,861.51,950.55,861.61,953.26L861.61,953.26z"/>
				</g>
			</g>
			<g>
				<g>
					<path class="st11" d="M866.71,953.06c-18.04,3.15-29.02,24.79-23.21,42.08c7.27,21.63,29.89,29.36,48.54,36.4
						c22.02,8.31,44.58,15.07,67.29,21.26c11.56,3.15,23.16,6.14,34.76,9.1c9.45,2.41,18.99,5.2,28.97,4.21
						c9.71-0.96,17.78-6.36,23.85-14.66c4.96-6.78,9.75-16.72,6.86-25.06c-1.68-4.83-10.79,1.71-9.38,5.77
						c1.98,5.71-0.66,12.15-4.11,16.96c-4.12,5.74-9.03,7.89-15.61,8.11c-8.56,0.29-16.95-2.36-25.07-4.43
						c-9.79-2.5-19.57-5.02-29.33-7.63c-19.64-5.27-39.19-10.95-58.37-17.66c-9.19-3.21-18.33-6.61-27.3-10.41
						c-8.44-3.57-17.04-7.75-23.51-14.57c-5.89-6.21-10.51-14.92-9.76-24.29c0.58-7.29,4.73-14.92,12.01-16.2
						c2.48-0.44,5.24-2.67,6.12-5.27C870.27,954.45,869.1,952.64,866.71,953.06L866.71,953.06z"/>
				</g>
			</g>
			<g>
				<g>
					<path class="st11" d="M844.18,997.61c-5.82,6.66-10.34,14.87-13.5,23.19c-3.01,7.94-4.39,15.94-1.27,23.73
						c8.32,20.76,33.18,24.1,51.61,29.19c22.26,6.15,44.53,12.3,66.79,18.45c10.91,3.01,21.81,6.03,32.71,9.04
						c8.99,2.49,18.47,6.06,28.09,4.53c21.14-3.36,27.42-28.72,28.13-47.6c0.22-5.92-9.28-0.57-9.45,3.76
						c-0.29,7.83-1.23,15.89-4,23.36c-2.64,7.12-6.51,11.52-13.92,11.72c-8.42,0.22-16.8-3.05-24.73-5.23
						c-9.99-2.76-19.99-5.52-29.98-8.28c-19.53-5.39-39.07-10.79-58.61-16.18c-9.86-2.72-19.8-5.24-29.57-8.24
						c-8.58-2.63-17.34-6.18-23.33-13.33c-5.24-6.25-7.49-13.95-4.98-22.42c2.4-8.08,6.54-16.25,12.05-22.56
						c1.33-1.52,2.72-4.57,0.62-5.84C848.78,993.61,845.56,996.03,844.18,997.61L844.18,997.61z"/>
				</g>
			</g>
			<g>
				<g>
					<path class="st11" d="M834.2,1039.96c-12.17,8.51-18.59,26.47-17.63,41.06c1.32,20.08,25.6,24.72,40.38,28.62
						c23.17,6.11,46.34,12.22,69.5,18.32c11.47,3.02,22.94,6.05,34.41,9.07c9.32,2.45,18.79,5.64,28.64,5.19
						c10.19-0.46,19.29-5.45,24.94-14.95c5.36-9.01,7.67-20.09,7.53-30.36c-0.07-5.96-9.5-0.56-9.45,3.76
						c0.1,7.94-1.14,16.45-4.71,23.76c-1.2,2.46-2.79,5.2-5.14,6.59c-3.23,1.9-7.37,2.26-10.9,2.16c-8.7-0.24-17.13-3.05-25.42-5.24
						c-9.87-2.6-19.72-5.2-29.59-7.8c-19.96-5.26-39.91-10.53-59.87-15.79c-9.59-2.53-19.38-4.67-28.76-7.86
						c-7.44-2.53-16.51-6.39-20.49-13.97c-2.86-5.44-1.85-13.17-0.35-19.13c1.34-5.34,4.26-13.51,8.36-16.38
						c1.82-1.27,4.6-3.82,3.96-6.42C839.02,1038.14,835.76,1038.87,834.2,1039.96L834.2,1039.96z"/>
				</g>
			</g>
			<g>
				<g>
					<path class="st11" d="M823.27,1089.34c-12.67,7.68-16.23,27.17-6.18,37.47c6.14,6.3,14.5,9.26,22.41,12.41
						c9.39,3.73,18.77,7.47,28.16,11.2c18.77,7.47,37.55,14.94,56.32,22.41c16.11,6.41,33.37,15.34,51.44,9.64
						c8.51-2.69,16.28-8.8,20.73-17.16c5.16-9.69,6.23-20.59,5.69-31.22c-0.14-2.71-4.12-1.43-5.42-0.65
						c-2.2,1.31-4.1,3.72-3.96,6.42c0.4,7.95-0.19,16.87-3.84,24.26c-2.86,5.78-7.76,9.06-13.6,10.38
						c-15.59,3.54-31.24-5.28-45.04-10.77c-15.5-6.17-31-12.33-46.5-18.5c-15.32-6.1-30.98-11.65-46.02-18.43
						c-6.33-2.85-14.25-7.06-16.21-14.72c-1.11-4.35-1.04-12.94,3.49-15.68c1.87-1.13,4.57-3.92,3.96-6.42
						C828.07,1087.42,824.87,1088.37,823.27,1089.34L823.27,1089.34z"/>
				</g>
			</g>
			<g>
				<g>
					<path class="st11" d="M830.78,1135.34c-1.43,13.31,0.15,26.53,6.67,37.69c5.67,9.71,14.53,16.83,23.89,22.22
						c19.61,11.28,42.85,16.92,65.66,10.33c13.65-3.94,25.69-12.51,33.93-25.06c1.24-1.89,1.23-4.51-1.12-4.95
						c-2.49-0.46-5.29,2.11-6.62,4.14c-12.34,18.8-36.04,21.67-54.91,18.37c-9.84-1.72-19.03-5.58-27.74-10.36
						c-8.56-4.69-16.57-10.6-22.34-18.86c-7.44-10.66-9.43-23.86-7.98-37.29C840.85,1125.76,831.24,1131.02,830.78,1135.34
						L830.78,1135.34z"/>
				</g>
			</g>
			<g>
				<path class="st12" d="M863.43,1191.78c-4.38,8.74,0.12,25.38,11.09,28.21c8.72,2.24,24.44-3.05,29.2-12.44"/>
				<g>
					<path class="st11" d="M858.99,1192.54c-5.46,11.83,0.56,28.71,12.33,31.86c12.23,3.28,29.65-4.36,36.28-16.45
						c1.07-1.95,1.35-4.49-1.12-4.95c-2.34-0.43-5.48,2.06-6.62,4.14c-4.13,7.54-16.93,10.86-23.86,7.77
						c-7.6-3.4-11.96-15.58-8.12-23.89c1.1-2.37-0.65-3.99-2.76-3.73C862.45,1187.6,860.12,1190.09,858.99,1192.54L858.99,1192.54z"
						/>
				</g>
			</g>
		</g>
		<g id="Ebene_8_1_">
			<g class="st13">
				<path class="st14" d="M887.41,933.01c-9.21-1.45-16.33,11.7-13.6,21.1c2.73,9.4,11.19,15.12,19.23,19.81
					c34.35,20.08,71.49,35.11,110.12,44.57c18.23,4.47,38.32,7.48,55.73-1.59c-62.51-12.3-136.74-26.39-171-80.72"/>
				<g>
					<path class="st14" d="M890.17,928.47c-12.64-1.43-23.23,14.04-21.48,26.46c1.03,7.4,6.27,13.06,11.58,17.25
						c6.83,5.41,14.82,9.4,22.43,13.48c32.66,17.49,67.9,31.12,104.21,38.87c16.79,3.59,35.03,4.85,51.48-3.48
						c2.2-1.11,8.65-7.64,3.25-8.71c-48.59-9.56-101.16-18.46-141.43-49.41c-10.91-8.39-20.43-18.62-28-30.48
						c-2.37-3.72-11.13,3.57-8.66,7.44c28.55,44.79,81.56,61.57,129.67,72.64c14.23,3.28,28.57,6.08,42.91,8.9
						c1.08-2.9,2.17-5.8,3.25-8.71c-12.58,6.36-26.16,6.26-39.25,4.16c-15.42-2.47-30.54-7.01-45.29-11.91
						c-15.56-5.17-30.81-11.27-45.64-18.25c-7.52-3.54-14.94-7.31-22.25-11.3c-6.44-3.52-13.1-6.97-18.95-11.49
						c-5.01-3.88-10.42-9.94-10.03-17.22c0.23-4.19,2.01-9.7,6.67-9.17C888.64,938.01,895.59,929.08,890.17,928.47L890.17,928.47z"
						/>
				</g>
			</g>
			<g class="st13">
				<path class="st14" d="M860.75,965.26c-9.99,5.34-11.56,20.96-5.82,30.5s16.17,14.41,26.12,18.62
					c42.09,17.79,85.58,32.25,130,43.24c11.42,2.83,26.04,4.19,33.16-6.36c-32.72-0.19-171.06-26.7-182.11-88.64"/>
				<g>
					<path class="st14" d="M860.02,961.72c-12.96,7.47-16.68,25.45-9.42,37.76c4.19,7.08,11.26,11.81,18.27,15.32
						c8.25,4.14,16.96,7.42,25.53,10.83c36.19,14.4,73.34,26.36,111.15,35.84c14.79,3.71,31.76,5.29,42.52-9.83
						c1.13-1.59,1.38-4.93-1.12-4.95c-9.81-0.08-19.58-1.55-29.18-3.13c-14.43-2.38-28.72-5.57-42.79-9.44
						c-29.8-8.21-61.01-19.33-85.24-39.39c-10.64-8.81-20.24-20.37-22.96-35.01c-0.91-4.88-10.2,1.4-9.38,5.77
						c5.44,29.32,34.21,46.71,57.58,57.93c28.74,13.81,60.09,22.53,91.49,28.23c11.47,2.08,23.21,4.04,34.98,4.14
						c-0.37-1.65-0.75-3.3-1.12-4.95c-2.75,3.87-8.55,4.28-12.55,4.23c-6.21-0.07-12.17-1.55-18.11-3.04
						c-16.62-4.19-33.1-8.89-49.42-14.07c-15.95-5.06-31.74-10.58-47.37-16.55c-7.92-3.03-15.8-6.17-23.63-9.42
						c-6.72-2.8-13.58-5.51-19.7-9.54c-6.03-3.98-11.41-9.64-12.83-17.38c-0.98-5.33-0.54-13.25,4.73-16.29
						c1.88-1.08,4.56-3.95,3.96-6.42C864.81,959.78,861.63,960.79,860.02,961.72L860.02,961.72z"/>
				</g>
			</g>
			<g class="st13">
				<path class="st14" d="M846.11,1008.32c-11.81,3.94-14.37,22.38-7.38,32.55c6.99,10.17,19.39,14.05,30.97,17.36
					c39.94,11.42,79.89,22.84,119.84,34.26c11.98,3.42,26.91,5.99,35.72-4.13c-52.53-9.38-171.74-29.33-175.16-84.88"/>
				<g>
					<path class="st14" d="M846.6,1004.16c-13,4.81-19.32,20.9-15.27,33.92c5.1,16.41,23.38,21.19,37.44,25.21
						c38.35,10.97,76.72,21.93,115.07,32.9c14.93,4.27,31.87,7.49,44.45-6.28c1.66-1.82,2.83-5.55-0.28-6.1
						c-26.93-4.81-53.85-9.75-80.18-17.04c-14.44-4-28.73-8.72-42.44-14.77c-11.86-5.23-23.75-11.47-33.56-20.24
						c-8.91-7.96-16.14-18.2-17.04-31.17c-0.33-4.75-9.7,1.3-9.38,5.77c1.82,26.1,26.43,41.66,46.31,51.28
						c27.62,13.38,57.97,20.9,87.95,27.18c14.22,2.97,28.53,5.53,42.85,8.08c-0.09-2.04-0.19-4.07-0.28-6.1
						c-3.53,3.86-9.15,4.32-13.76,4.13c-6.42-0.27-12.58-1.96-18.68-3.71c-16.34-4.67-32.69-9.34-49.02-14.02
						c-16.57-4.73-33.14-9.48-49.71-14.21c-7.78-2.23-15.62-4.32-23.34-6.74c-6.64-2.07-13.41-4.59-18.94-8.98
						c-5.27-4.17-8.94-10.11-9.17-17.4c-0.15-4.88,1-11.57,6-13.42c2.23-0.82,5.02-3.39,5.22-6.04
						C851.02,1003.72,848.57,1003.44,846.6,1004.16L846.6,1004.16z"/>
				</g>
			</g>
			<g class="st13">
				<path class="st14" d="M832.48,1054.25c-8.34,6.15-9.88,19.47-5.17,28.42c4.71,8.95,14.06,14,23.59,16.25
					c9.52,2.25,19.5,2.16,29.25,3.38c22.45,2.79,43.21,12.39,64.62,19.39c21.4,7.01,44.86,11.41,66.86,3.75
					c-41.93-6.9-153.41-22.95-178.85-72.12"/>
				<g>
					<path class="st14" d="M830.52,1051.61c-11.3,8.9-13.75,25.89-6.05,37.25c8.95,13.22,25.67,15.7,40.22,16.85
						c8.55,0.67,16.99,1.48,25.32,3.4c8.71,2,17.16,4.83,25.56,7.82c15.06,5.36,29.97,11.27,45.69,14.55
						c16.38,3.42,33.38,3.68,49.86-1.89c2.52-0.85,8.42-7.85,3.25-8.71c-23.88-3.93-47.74-7.88-71.22-13.59
						c-27.13-6.6-54.81-14.97-78.57-30.04c-10.93-6.94-21.18-15.69-27.48-27.67c-2.01-3.81-10.83,3.31-8.66,7.44
						c12.1,22.99,37.73,35.47,60.15,44.28c26.83,10.55,55.19,17.11,83.55,22.41c12.21,2.28,24.48,4.24,36.73,6.25
						c1.08-2.9,2.17-5.8,3.25-8.71c-27.76,9.39-56.13-0.92-81.59-10.17c-14.22-5.17-28.57-10.36-43.62-12.79
						c-14.29-2.3-29.93-0.72-43.02-7.6c-6.13-3.22-11.83-8.45-13.72-15.72c-1.56-5.99-1.02-13.95,4.26-18.11
						c1.55-1.22,3.82-4.41,2.38-6.36C835.29,1048.49,832.03,1050.43,830.52,1051.61L830.52,1051.61z"/>
				</g>
			</g>
			<g class="st13">
				<path class="st14" d="M825.51,1093.39c-7.25,7.21-5.95,20.22,0.15,27.79c6.1,7.57,15.48,11.06,24.46,14.27
					c31.6,11.28,63.19,22.56,94.79,33.84c15.12,5.4,33.15,10.37,46.7,0c-61.26-7.08-127.51-27.96-167.61-76.42"/>
				<g>
					<path class="st14" d="M822.48,1091.83c-9.41,10.02-8.17,25.86,0.45,34.88c4.97,5.21,11.37,8.4,17.92,10.95
						c7.58,2.95,15.32,5.54,22.99,8.27c15.8,5.64,31.6,11.28,47.39,16.92c14.21,5.07,28.33,10.96,42.96,14.78
						c13.46,3.51,27.16,3.3,39.39-5.7c1.94-1.43,4.7-6.73,0.8-7.18c-48.01-5.61-96.63-18.69-136.07-47.52
						c-11.03-8.07-21.1-17.44-29.97-28.08c-2.89-3.47-11.48,4.05-8.66,7.44c32.43,38.87,79.76,59.45,127.5,70.23
						c13.74,3.1,27.67,5.38,41.69,7.01c0.26-2.4,0.54-4.79,0.8-7.18c-8.44,6.22-20.05,4.37-28.99,2.14
						c-12.78-3.18-25.1-8.43-37.47-12.85c-14.02-5-28.04-10.01-42.05-15.02c-7.12-2.55-14.24-5.08-21.36-7.63
						c-6.13-2.19-12.41-4.18-18.26-7.09c-6.07-3.04-12.06-7.36-14.71-14.18c-2.05-5.3-2.59-12.49,1.71-17.08
						c1.39-1.47,2.67-4.6,0.62-5.84C827.04,1087.8,823.93,1090.29,822.48,1091.83L822.48,1091.83z"/>
				</g>
			</g>
			<g class="st13">
				<path class="st14" d="M836.14,1138.33c5.42,22.15,19.65,41.21,38.58,51.64s42.3,12.09,63.33,4.5
					c-37.23-7.35-71.32-28.08-95.57-58.12"/>
				<g>
					<path class="st14" d="M831.45,1141.22c5.64,22.4,19.58,41.6,38.64,52.5c20.19,11.53,44.93,12.85,67.45,4.92
						c2.59-0.91,8.37-7.67,3.25-8.7c-36.72-7.4-69.96-27.75-93.99-57.29c-2.84-3.5-11.45,4.01-8.66,7.44
						c24.87,30.58,59.17,51.29,97.14,58.94c1.08-2.9,2.17-5.8,3.25-8.71c-20.83,7.34-43.72,5.15-62.11-5.74
						c-17.54-10.38-30.37-28.34-35.6-49.12C839.6,1130.55,830.37,1136.95,831.45,1141.22L831.45,1141.22z"/>
				</g>
			</g>
			<g class="st13">
				<path class="st14" d="M865.26,1193.4c-1.39,7.88,1.47,16.18,7.19,20.91s14.09,5.69,21.06,2.42
					c-10.58-5.25-18.86-15.12-22.61-26.94"/>
				<g>
					<path class="st14" d="M860.54,1195.28c-1.34,8.8,1.51,17.71,7.92,23.04c6.79,5.64,16.34,6.17,24.56,2.58
						c2.04-0.89,8.02-6.46,4.15-8.44c-10.1-5.18-17.82-14.21-21.58-25.53c-1.61-4.85-10.74,1.68-9.38,5.77
						c4.15,12.52,12.45,22.58,23.65,28.34c1.39-2.82,2.77-5.63,4.15-8.44c-13.49,5.89-26.24-6.56-24.04-21.06
						c0.41-2.72-2.42-2.93-4.22-2.28C863.41,1190.1,860.95,1192.6,860.54,1195.28L860.54,1195.28z"/>
				</g>
			</g>
		</g>
		<g id="Ebene_4_1_">
			<g>
				<g>
					<path class="st11" d="M888.69,935.07c44.55-32.14,88.58-65.16,131.39-99.97c42.94-34.91,84.7-71.61,124.27-110.9
						c39.09-38.81,76.87-80.01,109.88-124.79c16.53-22.44,32.44-48.19,35.23-76.68c2.11-21.51-4.28-45.16-19.68-58.84
						c-16.17-14.37-38.24-13.58-57.39-3.24c-22.58,12.2-37.15,35.61-46.2,59.89c-2.48,6.65-4.59,13.42-6.55,20.23
						c-1.83,6.38,6.58,2.99,8.31-0.36c11.99-23.29,24.76-48.25,23.93-74.93c-0.68-21.76-10.92-42.58-31.18-48.91
						c-20.17-6.31-42.88,0.98-60.48,13.87c-19.05,13.95-33.31,34.08-42.96,56.11c-21.57,49.28-17.82,104.45-16.51,156
						c1.39,54.93,3.82,109.77,5.14,164.71c1.32,54.68,1.67,109.53-1.44,164.42c-0.38,6.65-0.81,13.29-1.29,19.93
						c-0.42,5.88,9.13,0.57,9.45-3.76c3.8-52.12,4.14-104.25,3.3-156.22c-0.86-52.41-2.99-104.71-4.67-157.04
						c-0.82-25.67-1.6-51.37-1.9-77.09c-0.31-26.13,0.38-52.57,5.9-78.49c8.79-41.3,35.38-89.75,78.96-95.23
						c9.83-1.24,19.86,0.3,28.21,5.47c8.27,5.1,14.07,13.68,17.1,23.32c7.17,22.81-0.1,46.98-10.09,68.53
						c-2.9,6.26-6.07,12.39-9.22,18.53c2.77-0.13,5.54-0.24,8.31-0.36c6.91-24.08,16.43-50.03,36.43-65.75
						c16.16-12.7,37.66-15.96,53.74-4.09c15.8,11.66,22.89,34.42,21.48,54.88c-1.85,26.9-16.88,51.52-32.47,72.6
						c-31.48,42.57-67.21,82.03-104.32,119.1c-37.31,37.27-76.61,72.21-117.04,105.49c-40.3,33.18-81.72,64.73-123.72,95.33
						c-5.13,3.74-10.28,7.47-15.43,11.18c-1.8,1.3-4.6,3.8-3.96,6.42C883.86,936.87,887.14,936.19,888.69,935.07L888.69,935.07z"/>
				</g>
			</g>
			<g>
				<g>
					<path class="st11" d="M1355.35,440.7c21.02,40.71,24.25,91.79,8.54,137.3c-0.83,2.39,0.45,4.01,2.76,3.73
						c2.44-0.3,5.27-2.79,6.12-5.27c16.45-47.67,13.26-100.56-8.76-143.21C1362.04,429.44,1353.2,436.54,1355.35,440.7
						L1355.35,440.7z"/>
				</g>
			</g>
			<g>
				<g>
					<path class="st11" d="M907.45,465.56c-18.86,39.42-25.99,84.24-20.63,126.7c1.53,12.13,4.13,24.01,7.71,35.52
						c1.51,4.87,10.67-1.63,9.38-5.77c-12.25-39.34-12.52-83.33-0.52-124.27c3.38-11.56,7.73-22.83,12.93-33.7
						c1.13-2.37-0.67-3.99-2.76-3.73C910.89,460.62,908.62,463.12,907.45,465.56L907.45,465.56z"/>
				</g>
			</g>
		</g>
	</g>
	<g>
		<g>
			<path class="st15" d="M1183.54,984.88c4.23,26.97,14.14,53.21,28.25,76.56c6.76,11.19,22.74,16.36,34.2,8.97
				c11.25-7.25,16.2-22.23,8.97-34.2c-3.18-5.27-6.15-10.66-8.84-16.21c-0.64-1.32-1.26-2.64-1.87-3.98
				c-0.13-0.28-2.39-5.55-0.85-1.85c1.49,3.61-0.44-1.14-0.73-1.9c-0.64-1.64-1.26-3.29-1.85-4.94c-4.17-11.6-7.15-23.57-9.06-35.74
				c-0.91-5.79-6.66-12.11-11.49-14.94c-5.36-3.14-13.26-4.46-19.26-2.52c-6.05,1.96-11.89,5.71-14.94,11.49
				C1182.73,971.93,1182.44,977.87,1183.54,984.88L1183.54,984.88z"/>
		</g>
	</g>
	<g>
		<g>
			<path class="st15" d="M1347.5,866.86c10.8,16.15,21.59,32.3,32.39,48.45c7.26,10.85,22.38,16.59,34.2,8.97
				c10.82-6.98,16.74-22.58,8.97-34.2c-10.8-16.15-21.59-32.3-32.39-48.45c-7.26-10.85-22.38-16.59-34.2-8.97
				C1345.65,839.63,1339.72,855.23,1347.5,866.86L1347.5,866.86z"/>
		</g>
	</g>
	<g>
		<g>
			<path class="st15" d="M1486.35,743.15c5.4,1.76,10.8,3.52,16.2,5.29c12.44,4.06,27.85-4.72,30.75-17.46
				c3.13-13.73-4.14-26.41-17.46-30.75c-5.4-1.76-10.8-3.52-16.2-5.29c-12.44-4.06-27.85,4.72-30.75,17.46
				C1465.77,726.13,1473.03,738.81,1486.35,743.15L1486.35,743.15z"/>
		</g>
	</g>
	<g>
		<g>
			<path class="st15" d="M1531.76,544.44c16.16-3.59,32.33-7.18,48.49-10.78c12.78-2.84,21.47-18.35,17.46-30.75
				c-4.34-13.42-17.06-20.5-30.75-17.46c-16.16,3.59-32.33,7.18-48.49,10.78c-12.78,2.84-21.47,18.35-17.46,30.75
				C1505.35,540.4,1518.07,547.49,1531.76,544.44L1531.76,544.44z"/>
		</g>
	</g>
	<g>
		<g>
			<path class="st15" d="M1461.98,317.11c3.29-3.78,6.72-7.44,10.35-10.9c3.61-3.44,7.87-6.33,11.36-9.85
				c-0.97,0.98-3.7,2.75-1.07,0.87c0.91-0.65,1.8-1.31,2.71-1.95c2.05-1.44,4.14-2.83,6.25-4.17c4.47-2.83,9.09-5.41,13.82-7.8
				c11.7-5.91,15.98-23.34,8.97-34.2c-7.71-11.95-21.69-15.29-34.2-8.97c-20.2,10.2-38.69,24.56-53.55,41.62
				c-8.58,9.86-10.42,25.79,0,35.36C1436.03,325.75,1452.81,327.65,1461.98,317.11L1461.98,317.11z"/>
		</g>
	</g>
	<g>
		<g>
			<path class="st15" d="M1291.5,191.68c0-21.55,0-43.1,0-64.65c0-13.08-11.5-25.6-25-25c-13.55,0.61-25,10.98-25,25
				c0,21.55,0,43.1,0,64.65c0,13.08,11.5,25.6,25,25C1280.05,216.07,1291.5,205.69,1291.5,191.68L1291.5,191.68z"/>
		</g>
	</g>
	<g>
		<g>
			<path class="st15" d="M1031.99,174.26c-5.39-14.37-10.78-28.74-16.16-43.1c-2.34-6.24-5.56-11.47-11.49-14.94
				c-5.36-3.14-13.26-4.46-19.26-2.52c-11.94,3.86-22.38,17.64-17.46,30.75c5.39,14.37,10.78,28.74,16.16,43.1
				c2.34,6.24,5.56,11.47,11.49,14.94c5.36,3.14,13.26,4.46,19.26,2.52C1026.47,201.15,1036.91,187.37,1031.99,174.26
				L1031.99,174.26z"/>
		</g>
	</g>
	<g>
		<g>
			<path class="st15" d="M873.57,259.62c-10.75-14.39-21.5-28.77-32.25-43.16c-4.04-5.41-8.17-9.63-14.94-11.49
				c-5.98-1.65-13.95-0.9-19.26,2.52c-10.33,6.66-17.34,23-8.97,34.2c10.75,14.39,21.5,28.77,32.25,43.16
				c4.04,5.41,8.17,9.63,14.94,11.49c5.98,1.65,13.95,0.9,19.26-2.52C874.93,287.17,881.94,270.83,873.57,259.62L873.57,259.62z"/>
		</g>
	</g>
</g>
</svg>
