<?xml version="1.0" encoding="utf-8"?>
<!-- Generator: Adobe Adobe Illustrator 24.2.0, SVG Export Plug-In . SVG Version: 6.00 Build 0)  -->
<svg version="1.1" xmlns="http://www.w3.org/2000/svg" xmlns:xlink="http://www.w3.org/1999/xlink" x="0px" y="0px"
	 viewBox="0 0 1700.79 1700.79" style="enable-background:new 0 0 1700.79 1700.79;" xml:space="preserve">
<style type="text/css">
	.st0{fill:#C8354F;}
	.st1{opacity:0.7608;}
	.st2{fill:#F3C15A;}
	.st3{fill:#DB7B39;}
	.st4{fill:#DC7B3A;}
	.st5{stroke:#000000;stroke-miterlimit:10;}
	.st6{fill:#FFFFFF;}
	.st7{fill:#A22E49;}
	.st8{opacity:0.149;}
	.st9{fill:#C9316B;}
	.st10{fill:#F4F5E8;}
	.st11{fill:#6379B8;}
	.st12{fill:#F3C057;stroke:#000000;stroke-width:3.8312;stroke-miterlimit:10;}
	.st13{fill:#C8316B;}
	.st14{fill:#6478B7;}
	.st15{fill:#6378B7;}
</style>
<g id="Ebene_7">
</g>
<g id="Ebene_4">
</g>
<g id="Ebene_5">
</g>
<g id="Ebene_9">
</g>
<g id="Ebene_6">
</g>
<g id="Ebene_8">
</g>
<g id="Ebene_10">
	<g>
		<g>
			<path class="st0" d="M370.6,843.12c47.03-139.68,43.39-161.58,26.31-158.76c-170.61,28.2-640.35,1022.99,246.64,928.5
				c636.06-67.75,335.18-476.04,297.38-589.89c-74.5-224.41,81.37-307.35,27.05-329.7c-32.53-13.38-215.11,250.85-228.09,247.23
				c-34.44-9.62,184.88-363.65,157.94-392.94C863.8,510.58,706.5,731.28,679.28,716.61C625.25,687.51,889.19,428.28,859.39,391
				c-20.46-25.59-166.28,42.9-299.86,175.55c-78.41,77.87-127.88,184.83-188.75,277.06"/>
			<g>
				<path d="M380.26,845.7c11.97-35.61,24-71.48,32.53-108.11c2.17-9.32,4.17-18.76,5.06-28.29c0.52-5.51,0.99-11.61-0.53-17.02
					c-6.16-21.9-35.59-12.23-49.39-4.98c-18.47,9.7-34.49,24.05-48.91,38.94c-19.29,19.92-36.33,42.01-52.04,64.82
					c-18.95,27.52-35.99,56.38-51.54,85.95c-17.11,32.53-32.38,66.03-45.8,100.24c-14.01,35.69-26.03,72.18-35.65,109.3
					c-9.54,36.8-16.75,74.26-20.76,112.08c-3.88,36.65-4.79,73.76-1.42,110.49c3.18,34.65,10.28,69.07,22.66,101.63
					c12.13,31.91,29.22,61.94,51.41,87.94c24.13,28.26,53.52,51.62,86.07,69.48c38.85,21.32,81.34,35.29,124.72,43.91
					c54.73,10.88,110.8,13.84,166.5,12.15c73.07-2.22,146.79-11.05,217.99-27.75c55.96-13.12,112.08-31.74,160.91-62.66
					c34.78-22.02,65.25-50.41,85.59-86.48c17.07-30.27,25.55-64.47,26.77-99.08c1.23-34.74-4.09-69.37-12.98-102.89
					c-8.77-33.09-20.93-65.19-34.54-96.57c-11.91-27.47-25.09-54.35-37.88-81.41c-2.17-4.6-4.76-10.12-7.26-15.66
					c-2.2-4.88-4.36-9.79-6.38-14.75c-9.44-23.1-15.7-47.73-20.04-72.25c-10.34-58.39-4.88-117.46,17.95-172.25
					c7.25-17.41,16.13-34,24.74-50.76c5.08-9.88,11.99-21.42,11.33-32.97c-0.68-11.91-14.05-20.15-24.88-21.3
					c-13.08-1.4-24.6,8.76-33.72,16.78c-15.15,13.33-28.72,28.49-41.99,43.65c-16.89,19.3-33.14,39.15-49.21,59.14
					c-28.8,35.8-56.47,72.58-86.11,107.71c-4.33,5.13-8.7,10.26-13.39,15.07c-1.53,1.57-3.12,3.05-4.74,4.53
					c-1.02,0.93-1.37,1.39-0.75,0.66c-0.25,0.29-1.02,0.67-1.4,0.74c3.89-0.67,8.56-0.21,11.66,1.48c-0.25-0.14,2.72,1.51,1.52,1.2
					c-0.05-0.01,0.13,1.08-0.09-0.37c-0.12-0.77-0.28-1.52-0.38-2.3c-0.2-1.6-0.14,0.45-0.01-1.42c0.08-1.1,0.19-2.19,0.34-3.28
					c0.36-2.5,0.92-4.97,1.56-7.41c3.84-14.84,10.07-29.12,16.22-43.12c8.79-20.01,18.31-39.68,27.97-59.28
					c22.56-45.79,46.11-91.09,68.54-136.95c9.97-20.4,19.77-40.9,28.8-61.74c6.7-15.46,13.33-31.19,17.69-47.5
					c2.13-7.98,5.5-19.78,0.17-27.23c-9.4-13.16-28.98-11.14-41.65-4.99c-17.36,8.43-32.4,22.27-46.42,35.27
					c-18.38,17.05-35.75,35.16-53.08,53.27c-16.56,17.32-32.96,34.84-50.18,51.51c-11.02,10.67-22.5,22.6-36.07,28.59
					c-1.62,0.72,0.63-0.18-0.19,0.1c-0.42,0.14-0.87,0.16-1.28,0.3c-1.53,0.52,1.96-0.01,0.46-0.04c-0.61-0.01,2.42,0.29,3.09,0.45
					c-0.41-0.1,2.6,1.03,3.03,1.27c-0.64-0.34-1.06-1.19-0.43-0.21c1,1.58-0.41-0.39-0.43-0.44c-0.54-1.32,0.87,1.37-0.11-0.11
					c-1.59-2.41-1.22-1.2-1.9-4.37c-0.62-2.89-0.51-3.35-0.28-5.83c1.29-14.27,9.21-28.19,16.17-40.36
					c23.22-40.55,52.95-77.51,81.19-114.6c27.32-35.89,56.23-71.54,78.69-110.78c6.05-10.58,13.41-23.01,13.6-35.58
					c0.23-15.41-16.87-20.71-29.75-21.02c-20.82-0.51-42.1,8.19-60.81,16.36c-31.09,13.58-60.5,31.05-88.67,49.87
					c-36.04,24.06-70.28,50.82-102.63,79.64c-33.79,30.1-65.02,62.25-92.07,98.59c-50.71,68.13-89.02,144.32-135.66,215.12
					c-4.32,6.56,14.37,12.97,17.94,7.56c47.76-72.51,86.79-150.72,139.36-220.05c27-35.61,58.23-67.08,91.69-96.62
					c32.19-28.42,66.21-54.9,102.12-78.46c27.24-17.88,55.65-34.49,85.66-47.33c10.55-4.52,21.35-8.63,32.52-11.34
					c2-0.48,4.01-0.93,6.03-1.31c1.07-0.2,2.15-0.37,3.23-0.55c1.24-0.2,2.57-0.34,2.02-0.29c1.73-0.17,3.46-0.22,5.19-0.27
					c0.72-0.02,3.35,0.24,0.69-0.03c0.76,0.08,1.54,0.2,2.3,0.25c1.44,0.09-2.36-0.71,0.01,0c2.02,0.61-0.61-0.3-0.41-0.19
					c2,1.06-0.25-0.3-0.11-0.14c1.33,1.55-0.33-0.35,0.17,0.05c1.15,0.91-0.01-0.14,0.04-0.08c0.27,0.3,0.59,0.69,0.76,1.06
					c0.38,0.78,0.36,0.73,0-0.15c0.19,0.45,0.4,0.92,0.5,1.4c0.89,4.08,0.47,7.13-0.99,12.19c-4.19,14.51-12.77,27.89-20.87,40.46
					c-25.48,39.54-55.15,76.36-83.51,113.83c-26.34,34.8-54.47,70.05-74.03,109.28c-5.3,10.63-11.63,23.83-9.56,36.09
					c2.17,12.92,17.31,19.97,29.25,16.74c13.88-3.76,25.93-16.35,36.07-25.86c16.83-15.77,32.65-32.61,48.57-49.28
					c17.25-18.06,34.47-36.18,52.49-53.49c14.3-13.73,29.19-28.04,46.38-38.14c3.13-1.84,6.35-3.44,9.7-4.83
					c2.19-0.91,0.54-0.42,2.89-0.95c1.18-0.27,4.48-1.15,2.38-0.52c0.31-0.09,2.64-0.56,0.88-0.08c-1.23,0.33-0.26,0.06,0.56,0.11
					c-2.62-0.16-2.17-0.48-1.35-0.25c0.83,0.23,1.05,0.64-1.31-0.48c1.95,0.93-1.26-0.93-0.27-0.21c1.31,0.96-0.4,0.09-0.01-0.06
					c-0.13,0.05,2.79,2.12,0.19,0.02c0.65,0.53,1.17,2.32,0.48,0.49c1.6,4.24,1.15,6.03,0.6,10.16c-0.78,5.91-2.39,11.72-4.14,17.4
					c-11.94,38.62-31.04,75.38-48.85,111.53c-22.18,45.01-45.32,89.54-67.39,134.61c-9.33,19.05-18.53,38.19-26.93,57.68
					c-5.73,13.3-11.63,26.95-14.88,41.12c-2.14,9.36-2.72,18.84,7.52,23.29c12.45,5.4,19.72-3.48,27.27-11.86
					c27.88-30.94,52.67-64.84,78.57-97.42c29.96-37.69,59.88-76.07,93.88-110.26c9.99-10.05,20.1-20,32.06-25.85
					c2.25-1.1-0.5,0.55,1.35-0.47c0.36-0.2,0.94-0.16,1.34-0.25c-2.32,0.51-0.05,0.24-1.53,0.1c-0.19-0.02-3.33-0.6-2.44-0.37
					c0.54,0.14-3.14-1.13-0.81-0.2c1.79,0.71-0.32-0.21-0.21-0.14c0.58,0.35,1.17,0.69,1.76,1.03c1.78,1.04-0.9-0.73-0.05-0.06
					c0.36,0.29,0.71,0.59,1.04,0.91c1.18,1.13,0.1,0.08,0.03-0.01c0.32,0.44,0.67,0.84,0.95,1.31c1.1,1.85,0.2-0.21,0.63,1.25
					c0.27,0.92,0.48,1.81,0.65,2.75c0.21,1.13,0.12,2.2,0.13,1.82c-0.05,1.1-0.18,2.18-0.36,3.26c-0.42,2.49-1.17,4.93-2.01,7.3
					c-2.15,6.07-5.06,11.86-7.97,17.58c-8.24,16.19-16.92,32.14-24.1,48.85c-22.56,52.44-29.54,109.2-21.65,165.72
					c5.47,39.15,17.12,75.97,33.77,111.55c12.22,26.12,24.71,51.34,36.33,77.56c13.6,30.7,25.94,62.05,35.23,94.34
					c9.42,32.75,15.89,66.75,15.98,100.93c0.1,33.66-6.5,67.45-21.28,97.81c-17.01,34.94-44.67,63.77-76.36,85.84
					c-44.9,31.26-97.57,50.62-150.19,64.28c-69.96,18.17-142.63,27.68-214.77,31.09c-55,2.6-110.43,0.95-164.74-8.6
					c-20.91-3.68-43.38-9.12-64.64-16.07c-4.55-1.49-8.17-2.75-13.74-4.83c-4.77-1.78-9.51-3.66-14.21-5.62
					c-8.73-3.66-18.9-8.42-25.72-12c-31.58-16.55-59.81-37.67-83.09-64.14c-22.06-25.09-39.41-54.1-51.58-85.19
					c-12.48-31.88-19.83-65.6-23.33-99.61c-3.67-35.72-3.09-71.76,0.4-107.47c3.67-37.51,10.53-74.68,19.73-111.21
					c9.22-36.64,20.79-72.68,34.32-107.96c13.02-33.96,27.85-67.23,44.48-99.58c15.09-29.36,31.66-57.98,50.08-85.37
					c15.54-23.1,32.38-45.47,51.35-65.88c7.83-8.42,16.04-16.51,24.8-23.95c8.06-6.85,13.9-11.24,22.29-16.13
					c3.55-2.07,7.21-3.96,10.99-5.57c1.77-0.75,3.56-1.42,5.37-2.06c1.39-0.5-1.43,0.43-0.29,0.09c0.44-0.13,0.87-0.28,1.31-0.39
					c0.86-0.23,1.72-0.48,2.58-0.69c0.79-0.19,1.59-0.34,2.39-0.52c1.71-0.38,2.92,0.35,0.64-0.2c1.51,0.36,1.96,0.19-0.36-0.15
					c1.71,0.25-0.94-0.21-1.41-0.34c1.88,0.52-1.55-0.6-1.29-0.49c-0.74-0.31-1.42-0.69-2.04-1.25c1,0.9-0.19-1.53,0.23,0.32
					c0.42,1.84,0-0.67,0.49,0.98c0.27,0.92,0.54,1.82,0.73,2.76c2.64,13.5-2.41,30.61-5.73,44.39
					c-8.54,35.42-20.11,70.15-31.71,104.66C358.79,846.91,377.98,852.49,380.26,845.7L380.26,845.7z"/>
			</g>
		</g>
		<g class="st1">
			<path class="st2" d="M349.82,1050.64c-4.54-38.4-24.04-92.8-28.58-131.19c-0.74-6.26-2.76-13.99-8.95-15.17
				c-6.73-1.29-11.44,6.32-13.99,12.69c-31.47,78.56-58.63,158.85-81.33,240.38c-14.12,50.71-74.17,390.24,287.55,418.86
				c311.57,24.65,513.96-182.1,460.72-333.61c-24.07-68.49-91.6-328.16-117.73-337.31c-31.8-11.13-121.6,170.94-158.07,164.19
				c-67.84-23.75,91.81-316.24,70.16-337.89c-29.31-29.31-177.67,198.69-210.55,178.12c-25.03-15.66,36.85-138.07,61.85-206.09
				c25-68.01,130.79-180.1,108.09-187.89c-75.25-25.81-288.93,328.61-365.56,531.88"/>
			<g>
				<path class="st3" d="M359.82,1050.64c-3.4-27.78-11.25-54.75-18.14-81.81c-3.28-12.87-6.46-25.79-8.81-38.87
					c-2.08-11.57-1.59-26.85-13.28-33.52c-14.59-8.33-26.01,5.84-30.94,17.86c-6.47,15.78-12.52,31.76-18.51,47.72
					c-11.75,31.31-22.82,62.88-33.2,94.67c-10.38,31.79-20.08,63.8-29.07,96.02c-1.5,5.37-2.8,10.78-3.94,16.23
					c-3.58,17.18-5.96,34.65-7.53,52.12c-4.44,49.53-1.65,100.43,11.44,148.54c16.18,59.5,49.44,112.65,98.79,150.09
					c69.2,52.52,159.82,68,244.72,68.5c97.95,0.58,197.93-21.86,281.96-73.41c62.81-38.53,120.2-95.65,142.12-167.69
					c9.08-29.86,11.07-61.94,3.79-92.41c-2.91-12.17-7.54-23.95-11.3-35.88c-4.66-14.78-9.11-29.62-13.54-44.47
					c-21.82-73.16-41.88-147.28-68.89-218.76c-4.8-12.7-9.81-25.43-15.95-37.55c-3.72-7.33-8.24-16.2-15.51-20.64
					c-8.81-5.38-19.29-1.5-26.94,4.05c-10.73,7.78-19.44,18.03-27.7,28.29c-22.37,27.78-41.93,57.69-63.46,86.11
					c-7.77,10.25-17.73,22.9-28.16,32.94c-2.06,1.98-4.23,3.82-6.39,5.69c-1.69,1.46,1.38-1,0.23-0.16
					c-0.42,0.31-0.83,0.63-1.26,0.93c-1.13,0.78-2.25,1.56-3.43,2.26c-0.92,0.55-1.9,0.99-2.82,1.51c-1.67,0.95,2.35-0.76,0.57-0.23
					c-0.45,0.13-0.87,0.35-1.33,0.46c-1.63,0.41-3.22-0.06-0.32,0.29c-0.79-0.1-2-0.04-2.8,0.02c1.78-0.14,2.56,0.28,1.04-0.07
					c2.75,0.64,1.61,0.82,0.76,0.29c-0.72-0.45-1.52-0.87-2.26-1.29c-2.5-1.39,1.08,1.35-0.35-0.25c-0.55-0.61-1.2-1.27-1.81-1.82
					c-1.62-1.45,1.18,2.12-0.3-0.39c-0.46-0.78-0.96-1.52-1.39-2.31c-0.45-0.83-1.55-3.92-0.37-0.58c-0.38-1.09-0.8-2.15-1.13-3.26
					c-0.61-2.05-0.99-4.13-1.38-6.23c-0.39-2.06,0.19,2.54,0.05,0.41c-0.04-0.58-0.13-1.16-0.19-1.74
					c-0.13-1.41-0.22-2.82-0.28-4.23c-0.21-5.42,0.07-10.85,0.6-16.25c0.15-1.48,0.32-2.97,0.5-4.45c0.31-2.6-0.33,2.24,0.05-0.38
					c0.11-0.77,0.22-1.55,0.34-2.32c0.53-3.49,1.15-6.97,1.83-10.44c1.36-6.94,2.97-13.83,4.74-20.68
					c4.02-15.62,8.83-31.04,13.94-46.34c10.99-32.86,23.52-65.19,35.86-97.56c9.71-25.47,20.07-51.02,27.17-77.38
					c3.76-13.98,9.81-38.42-10.24-42.85c-9.4-2.08-18.96,2.91-26.49,8.04c-10.54,7.17-19.98,15.96-29.02,24.91
					c-23.26,23.01-44.52,48.02-66.21,72.49c-19.8,22.33-39.54,45.57-62.52,64.74c-1.05,0.88-2.12,1.73-3.19,2.59
					c-1.81,1.46,1.79-1.33-0.04,0.04c-0.51,0.38-1.01,0.76-1.52,1.13c-2.02,1.48-4.1,2.91-6.25,4.2c-1.71,1.02-3.53,1.8-5.25,2.77
					c2.91-1.64,0.95-0.33-0.04-0.05c-0.86,0.24-1.83,0.42-2.66,0.73c-2.05,0.77,2.89-0.18,0.2-0.05c-1.08,0.05-3.57-0.43,0.41,0.22
					c-0.61-0.1-1.18-0.28-1.76-0.49c3.19,1.15,2.09,0.93,1.31,0.49c-1.92-1.1,1.48,1.51,0.33,0.31c-2.1-2.19,0.81,1.55-0.43-0.52
					c-1.13-1.87,0.32,2.15-0.37-0.91c-0.19-0.84-0.77-4.66-0.44-1.35c-0.16-1.56-0.25-3.11-0.25-4.67c0-1.24,0.06-2.48,0.14-3.72
					c0.05-0.76,0.58-5.39,0.26-3.05c0.56-4.04,1.39-8.05,2.33-12.02c2.18-9.25,5.03-18.34,8.09-27.33
					c7.23-21.27,15.75-42.09,24.37-62.83c8.62-20.74,17.5-41.38,25.79-62.26c7.07-17.82,12.85-32.63,22.68-49.58
					c21.09-36.32,46.99-69.51,70.74-104.07c8.47-12.32,42.87-56.56,11.69-63.8c-20.75-4.83-41.06,8.5-56.62,20.61
					c-24.2,18.83-44.65,42.42-63.81,66.2c-26.22,32.55-50.21,66.87-72.99,101.9c-50.18,77.18-95.14,158.04-134.75,241.14
					c-17.13,35.94-33.26,72.43-47.33,109.68c-1.91,5.05,2.12,10.96,6.98,12.3c5.62,1.54,10.39-1.91,12.3-6.98
					c30.06-79.59,69.11-156.67,110.87-231.17c41.45-73.95,86.85-148.12,139.76-213.6c18.8-23.27,38.87-46.38,62.53-64.88
					c-2.07,1.62,1.47-1.1,2.05-1.52c1.13-0.83,2.27-1.64,3.43-2.44c2.35-1.62,4.75-3.18,7.22-4.64c1.92-1.13,3.87-2.21,5.87-3.2
					c1.03-0.51,2.07-0.98,3.1-1.46c1.88-0.88-2.27,0.87-0.36,0.15c0.67-0.25,1.33-0.52,2-0.77c1.75-0.63,3.52-1.19,5.33-1.63
					c0.93-0.22,1.87-0.36,2.8-0.58c0.89-0.21,2.35,0.01-0.83,0.09c0.6-0.01,1.19-0.15,1.79-0.17c1.56-0.04,3.2,0.17,4.74,0.06
					c1.66-0.12-2.54-0.74-1-0.14c0.37,0.14,0.83,0.12,1.22,0.23c0.73,0.2,2.03,0.8,2.76,0.76c-0.93,0.05-2.99-1.87-2.43-1.31
					c-1.76-1.77-1.5-2.04-0.94-1.09c-1.37-2.31-0.89-2.33-0.62-1.26c0.15,0.56-0.17-3.09-0.19-0.62c-0.01,1.18-0.67,1.28,0.2-1.08
					c-0.2,0.55-0.19,1.19-0.37,1.75c-0.31,0.98-0.61,1.97-0.93,2.95c-0.17,0.55-0.42,1.07-0.62,1.61c1.07-2.78,0.3-0.68,0.02-0.11
					c-1.29,2.6-2.56,5.19-3.99,7.73c-8.34,14.82-18.45,28.67-28.28,42.52c-23.79,33.49-49.22,66.68-67.72,103.52
					c-8.6,17.12-14.61,35.48-21.89,53.17c-8.78,21.33-17.89,42.53-26.56,63.91c-7.91,19.49-15.65,39.14-21.69,59.31
					c-4.31,14.41-8.89,30.52-6.44,45.66c1.74,10.74,9.81,19.51,21.19,18.94c9.27-0.46,17.74-6,24.93-11.42
					c22.77-17.16,41.87-39.23,60.8-60.38c22.04-24.64,43.46-49.87,66.42-73.68c9.03-9.37,18.33-18.48,28.4-26.74
					c0.52-0.43,1.05-0.84,1.58-1.26c-2.18,1.72-0.4,0.3,0.05-0.02c1-0.73,1.99-1.47,3.01-2.18c1.84-1.28,3.72-2.5,5.68-3.61
					c0.87-0.49,1.77-0.92,2.65-1.4c2.7-1.48-1.61,0.33,0.54-0.27c0.78-0.22,1.59-0.51,2.36-0.77c0.36-0.12,0.78-0.13,1.13-0.27
					c1.91-0.75-1.9-0.23-0.86,0.08c0.49,0.15,1.17-0.15,1.7-0.05c2.11,0.4-2.98-0.77-0.47-0.04c2.43,0.7-2.17-1.21-0.41-0.22
					c2.16,1.22-1.76-1.95-0.04-0.07c1.12,1.22-1.74-2.67-0.72-0.88c0.85,1.5-1.15-2.83-0.47-1.14c0.18,0.46,0.31,1.01,0.38,1.5
					c-0.11-0.82-0.05-2.7-0.1-0.28c-0.03,1.39,0,2.75-0.11,4.14c-0.06,0.76-0.19,1.51-0.24,2.27c0.27-3.94-0.02-0.06-0.2,0.96
					c-0.78,4.37-1.86,8.69-3.04,12.98c-7.22,26.25-17.51,51.71-27.2,77.12c-11.98,31.41-24.11,62.78-34.84,94.65
					c-9.66,28.7-18.72,58.04-22.37,88.21c-2.34,19.3-2.61,44.78,15.33,57.13c21.13,14.54,43.74-12,56.12-26.53
					c22.57-26.47,41.77-55.67,62.32-83.68c9.14-12.45,16.76-22.79,27.52-34.55c3.89-4.24,7.97-8.24,12.39-11.92
					c1.69-1.4-1.88,1.31-0.12,0.1c0.47-0.32,0.92-0.67,1.4-0.99c0.88-0.6,1.78-1.17,2.71-1.69c1.04-0.58,3.86-1.3,0.61-0.46
					c0.76-0.2,1.73-0.46,2.44-0.79c1.9-0.89-2.67-0.08,0.01,0c2.82,0.09-2.31-0.6-0.18-0.07c2.54,0.63-2.26-1.13-0.67-0.31
					c1.92,0.98-0.54-0.58-0.48-0.45c0.44,0.9,2.09,2.29,2.83,3.02c-2.49-2.48-0.44-0.56,0.19,0.36c0.63,0.92,1.24,1.86,1.82,2.82
					c2.51,4.1,4.68,8.41,6.73,12.75c1.14,2.42,2.24,4.86,3.31,7.31c0.29,0.67,2.08,4.89,1.17,2.7c0.75,1.8,1.49,3.6,2.22,5.41
					c12.9,31.96,23.35,64.94,33.64,97.81c11.79,37.67,22.95,75.54,34.17,113.38c8.33,28.1,16.32,56.38,25.91,84.09
					c2.27,6.55,4.27,13.16,5.72,19.94c0.69,3.23,1.26,6.48,1.75,9.75c0.44,2.96-0.23-2.06,0.12,0.91c0.1,0.9,0.21,1.79,0.3,2.69
					c0.22,2.09,0.39,4.19,0.52,6.29c0.45,7.26,0.39,14.54-0.14,21.79c-0.13,1.83-0.3,3.66-0.49,5.49c-0.1,0.92-0.21,1.83-0.32,2.75
					c-0.36,3.04,0.31-2.03-0.13,1.01c-0.54,3.69-1.18,7.37-1.95,11.02c-6.67,31.96-20.73,59.6-40.48,86.27
					c-46.88,63.31-120.95,107.24-196.33,131.31c-47.55,15.18-97.13,23.27-146.98,25.02c-49.12,1.72-99.07-1.64-146.89-13.44
					c-36.42-8.99-70.25-22.53-101.38-43.64c-12.8-8.68-23.8-17.71-35.36-29.27c-10.95-10.96-19.42-21.23-27.42-32.86
					c-8.21-11.94-15.4-24.58-21.55-37.7c-1.35-2.89-2.65-5.8-3.91-8.73c-1.14-2.65,0.76,1.86-0.34-0.8c-0.33-0.8-0.66-1.6-0.98-2.4
					c-0.75-1.86-1.48-3.73-2.2-5.61c-2.42-6.38-4.63-12.84-6.63-19.37c-3.9-12.75-7-25.75-9.38-38.87
					c-0.58-3.21-1.12-6.42-1.62-9.64c-0.25-1.6-0.48-3.19-0.71-4.79c-0.08-0.53-0.15-1.06-0.22-1.59c-0.24-1.73,0.19,1.58-0.17-1.32
					c-0.77-6.27-1.45-12.55-1.95-18.85c-1.86-23.17-1.82-46.5-0.14-69.68c0.69-9.56,1.71-19.09,2.93-28.59
					c-0.47,3.62,0.04-0.25,0.16-1.08c0.15-1.04,0.3-2.08,0.45-3.11c0.3-1.99,0.61-3.97,0.93-5.95c0.61-3.73,1.27-7.46,1.98-11.17
					c5.76-29.91,15.64-59.08,24.7-88.1c9.86-31.6,20.39-62.99,31.6-94.14c5.66-15.73,11.49-31.41,17.49-47.02
					c2.69-7.01,5.42-14,8.18-20.98c1.28-3.23,2.44-6.57,3.91-9.71c0.29-0.63,3.23-5.03,3.08-5.29c-0.05-0.09-1.8-0.6-1.81-0.6
					c-0.01,0.01,0.54,0.32,0.57,0.86c0.1,1.53,1.12,3.81,1.33,5.05c1.09,6.28,1.73,12.62,2.92,18.9c2.4,12.6,5.49,25.07,8.67,37.5
					c6.3,24.66,13.9,49.47,17,74.8c0.66,5.36,4.13,10,10,10C354.71,1060.64,360.48,1056.04,359.82,1050.64L359.82,1050.64z"/>
			</g>
		</g>
		<g>
			<g>
				<path class="st3" d="M869.12,876.32c13.73-21.3,27.28-42.75,40.34-64.47c6.65-11.06-10.64-21.13-17.27-10.09
					c-13.05,21.72-26.61,43.17-40.34,64.47C844.86,877.08,862.16,887.12,869.12,876.32L869.12,876.32z"/>
			</g>
		</g>
		<g>
			<g>
				<path class="st4" d="M789.87,697.74c9.09-12.62,20.39-23.62,29.01-36.63c7.13-10.76-10.18-20.79-17.27-10.09
					C793,664,781.7,675.01,772.6,687.64c-3.16,4.39-0.76,11.14,3.59,13.68C781.22,704.27,786.7,702.13,789.87,697.74L789.87,697.74z
					"/>
			</g>
		</g>
		<g>
			<g>
				<path class="st3" d="M757.69,485.73c12.91-11.74,23.99-25.42,36.9-37.17c9.54-8.68-4.63-22.79-14.14-14.14
					c-12.91,11.74-23.99,25.42-36.9,37.17C734,480.27,748.18,494.38,757.69,485.73L757.69,485.73z"/>
			</g>
		</g>
		<g>
			<g>
				<path class="st3" d="M327.4,857.44c5.67-11.82,8.31-24.78,12.14-37.25c5.25-17.11,12.55-33.07,22.91-47.71
					c3.12-4.41,0.79-11.12-3.59-13.68c-5.01-2.93-10.55-0.83-13.68,3.59c-10.73,15.17-18.44,32.06-24.07,49.73
					c-2.17,6.81-4.01,13.71-5.98,20.57c-0.84,2.93-1.7,5.85-2.68,8.74c-1.03,3.05-1.5,4.21-2.33,5.93
					c-2.33,4.87-1.34,10.8,3.59,13.68C318.09,863.58,325.05,862.33,327.4,857.44L327.4,857.44z"/>
			</g>
		</g>
		<ellipse class="st5" cx="523.05" cy="1219.04" rx="26" ry="48"/>
		<ellipse class="st5" cx="635.05" cy="1219.04" rx="26" ry="48"/>
		<g>
			<g>
				<path d="M431.89,1365.29c22.79,41.57,66.29,68.65,112.29,77.08c50.38,9.24,101.5-3.81,144.84-30.15
					c25.04-15.21,47.56-34.54,67.1-56.32c8.57-9.56-5.53-23.75-14.14-14.14c-31.94,35.61-72.35,64.99-118.99,77.57
					c-41.89,11.3-87.19,7-124.99-14.92c-20.41-11.84-37.47-28.47-48.84-49.21C442.97,1343.91,425.69,1353.99,431.89,1365.29
					L431.89,1365.29z"/>
			</g>
		</g>
		<circle class="st6" cx="531.55" cy="1198.04" r="8.5"/>
		<circle class="st6" cx="531.55" cy="1198.04" r="8.5"/>
		<circle class="st6" cx="643.55" cy="1198.04" r="8.5"/>
		<ellipse class="st7" cx="465.58" cy="1289.5" rx="44" ry="19"/>
		<ellipse class="st7" cx="465.58" cy="1289.5" rx="44" ry="19"/>
		<ellipse class="st7" cx="465.58" cy="1289.5" rx="44" ry="19"/>
		<ellipse class="st7" cx="706.12" cy="1286.04" rx="44.5" ry="19"/>
	</g>
</g>
<g id="Ebene_11">
	<g>
		<g id="Ebene_3_Kopie">
			<g class="st8">
				<path d="M732.09,921.36c0.97,70.64-12.46,141.38-39.66,208.89c99.01-43.36,186.79-101.7,256.82-170.65"/>
				<g>
					<path d="M728.09,923.36c0.69,54.75-7.29,109.42-23.43,162.21c-4.58,14.98-9.88,29.78-15.75,44.38
						c-1.02,2.53-0.07,6.02,3.59,4.41c38.5-16.89,75.71-36.16,111.16-57.81c34.68-21.19,67.74-44.54,98.58-70.09
						c17.04-14.11,33.41-28.9,49.04-44.27c1.44-1.42,2.89-4.61,1.4-6.37c-1.61-1.9-4.25-0.04-5.49,1.18
						c-27.47,27.01-57.33,52.01-89.04,74.94c-32.37,23.42-66.68,44.62-102.46,63.59c-20.66,10.95-41.8,21.14-63.36,30.59
						c1.2,1.47,2.4,2.94,3.59,4.41c21.2-52.76,34.36-108,38.66-163.99c1.21-15.71,1.69-31.45,1.49-47.19
						c-0.03-2.19-2.01-3.04-4.08-2.12C729.71,918.26,728.06,921.09,728.09,923.36L728.09,923.36z"/>
				</g>
			</g>
			<g class="st8">
				<path d="M914.42,989.28c99.56,1.13,200.26-11.67,292.18-46.11c91.92-34.44,174.76-91.43,227.79-167.26
					c53.02-75.82,74.21-171,48.57-257.56c-27.23-91.92-105.43-168.12-200.35-210.03c-94.92-41.91-204.91-51.52-309.6-38.22
					c-117.83,14.97-232.82,59.55-317,135.22S521.3,589.15,532.68,695.72c11.38,106.57,89.35,207.95,200.86,245.3"/>
				<g>
					<path d="M912.75,993.29c96.74,1.02,194.7-10.8,284.94-43.21c77.81-27.94,149.41-71.3,203.65-129.1
						c56.46-60.16,91.96-136.03,95.67-215.02c1.81-38.49-4.26-77.28-18.81-113.56c-13.35-33.31-33.41-64.32-58.23-91.75
						c-52.92-58.48-125.78-99.44-205.78-120.89c-88.31-23.68-183.38-24.4-273.45-8.59C856.27,286,774.55,316.3,705.56,362.93
						c-68.51,46.3-122.55,109.18-152.6,181.56c-28.79,69.35-34.5,146.55-8.83,217.39c23.67,65.32,71.76,124.24,136.9,160.72
						c15.84,8.87,32.62,16.3,50.09,22.2c3.83,1.3,8.4-6.38,4.86-7.58c-70.68-23.86-127.68-73.18-162.69-132.84
						c-37.26-63.51-47.11-136.62-31.07-206.75c16.86-73.68,60.29-142.01,120.3-194.16c61.08-53.09,137.74-90.14,218.88-111.73
						c84.82-22.57,175.79-29.57,263.35-17.31c83.86,11.74,164.13,42.44,227.64,93.64c58.77,47.38,101.5,111.08,113.95,181.65
						c13.65,77.35-8.14,158.31-54.06,224.28c-43.73,62.82-108.53,112.39-181.09,146.7c-82.21,38.87-174.64,57.88-266.92,63.09
						c-22.7,1.28-45.44,1.73-68.18,1.49C912.31,985.24,908.57,993.25,912.75,993.29L912.75,993.29z"/>
				</g>
			</g>
			<g class="st8">
				<path class="st9" d="M994.73,610.57c6.14-50.11-35.16-100.54-89.52-112.78c-54.36-12.24-115.44,12.96-143.42,56.64
					s-22.64,101.93,10.28,142.73c27.02,33.49,68.79,54.4,109.67,73.37c58.21,27.02,117.42,52.27,177.5,75.71
					c7.4,2.89,15.4,5.81,23.3,4.31c10.03-1.9,16.69-10.24,22.34-17.94c42.75-58.26,85.5-116.52,128.25-174.77
					c22.58-30.78,45.95-63.65,47.34-100.51c1.17-31.12-14.29-61.84-38.81-83.81c-41.7-37.37-109.91-48.25-163.35-26.06
					c-53.44,22.19-88.5,75.95-83.95,128.75"/>
				<g>
					<path d="M998.14,609.8c5.34-45.48-25.47-90.77-71.32-109.7c-46.54-19.22-102.53-7.19-139.94,22.72
						c-40.7,32.52-54.94,84.08-41.86,130.96c6.74,24.16,20.72,45.92,40.04,63.69c20.16,18.54,44.62,32.69,69.74,45.16
						c28.29,14.06,57.38,26.9,86.44,39.61c30.58,13.38,61.42,26.28,92.5,38.69c8.04,3.22,16.08,6.43,24.18,9.54
						c7.14,2.74,14.71,5.29,22.6,4.21c14.22-1.94,22.53-14.83,29.72-24.64c19.24-26.22,38.48-52.43,57.71-78.65
						c19.24-26.22,38.48-52.43,57.71-78.65c17.35-23.64,35.79-47.18,47.52-73.65c10.91-24.61,14.29-51.2,5.98-76.86
						c-7.77-23.98-24.13-45.47-45.73-61.07c-40.19-29.03-98.27-37.35-146.41-20.64c-48.62,16.87-84.34,58.1-94,103.84
						c-2.33,11.05-3.09,22.37-2.17,33.59c0.42,5.17,7.29-0.14,7.01-3.5c-3.61-43.94,20.43-88.35,60.78-113.28
						c41.11-25.4,96.13-27.31,140.91-8.58c47.93,20.05,83.4,66.32,76.66,114.99c-3.59,25.88-17.58,49.3-32.76,71.09
						c-17.23,24.73-35.6,48.86-53.47,73.22c-18.41,25.08-36.81,50.17-55.22,75.25c-9.26,12.62-18.52,25.25-27.79,37.87
						c-6.77,9.22-14.31,22.69-28.69,21.93c-8.28-0.44-16.07-4.24-23.54-7.17c-7.31-2.87-14.61-5.77-21.89-8.7
						c-14.95-6-29.85-12.12-44.68-18.36c-29.67-12.46-59.11-25.37-88.3-38.72c-48.48-22.17-102.19-45.63-131.37-89.06
						c-26.34-39.19-29.48-92.07-2.52-131.68c24.9-36.58,74.73-58.51,122.1-53.91c48.2,4.69,89.34,38.92,100.78,81
						c2.75,10.11,3.69,20.66,2.47,31.02C990.65,617.05,997.7,613.58,998.14,609.8L998.14,609.8z"/>
				</g>
			</g>
			<g class="st8">
				<g>
					<path d="M1419.52,580.93c10.01,40.07,6.71,82.43-9.53,120.82c-0.6,1.43-0.8,3.94,1.41,4.26c2.17,0.32,4.12-2.25,4.75-3.75
						c17.02-40.23,20.6-84.56,10.12-126.56c-0.51-2.04-3.05-1.37-4.33-0.44C1420.21,576.54,1419.02,578.93,1419.52,580.93
						L1419.52,580.93z"/>
				</g>
			</g>
			<g class="st8">
				<g>
					<path d="M1397.32,748.89c-19.29,31.2-45.96,58.27-77.95,79.38c-3.41,2.25-3.22,9.48,1.91,6.09
						c33.27-21.95,61.04-50.41,81.09-82.85c0.82-1.32,1.83-4.1-0.1-5.11C1400.38,745.43,1398.11,747.6,1397.32,748.89
						L1397.32,748.89z"/>
				</g>
			</g>
			<g class="st8">
				<g>
					<path d="M615.71,618.98c1.32-40.12,13.87-79.78,36.16-114.54c6.38-9.94,13.53-19.44,21.41-28.46c1.17-1.34,2.59-3.97,1.23-5.58
						c-1.36-1.6-3.81-0.12-4.81,1.03c-29.2,33.41-48.99,73.31-57.03,115.21c-2.27,11.84-3.58,23.84-3.98,35.84
						c-0.06,1.94,1.82,2.64,3.57,1.86C614.36,623.42,615.65,620.99,615.71,618.98L615.71,618.98z"/>
				</g>
			</g>
		</g>
		<g id="Ebene_3">
			<g>
				<path class="st10" d="M771,880.51c0.97,70.64-12.46,141.38-39.66,208.89c99.01-43.36,186.79-101.7,256.82-170.65"/>
				<g>
					<path d="M767,882.51c0.69,54.75-7.29,109.42-23.43,162.21c-4.58,14.98-9.88,29.78-15.75,44.38c-1.02,2.53-0.07,6.02,3.59,4.41
						c38.5-16.89,75.71-36.16,111.16-57.81c34.68-21.19,67.74-44.54,98.58-70.09c17.04-14.11,33.41-28.9,49.04-44.27
						c1.44-1.42,2.89-4.61,1.4-6.37c-1.61-1.9-4.25-0.04-5.49,1.18c-27.47,27.01-57.33,52.01-89.04,74.94
						c-32.38,23.42-66.68,44.62-102.46,63.59c-20.66,10.95-41.8,21.14-63.36,30.59c1.2,1.47,2.4,2.94,3.59,4.41
						c21.2-52.76,34.36-108,38.66-163.99c1.21-15.71,1.69-31.45,1.49-47.19c-0.03-2.19-2.01-3.04-4.08-2.12
						C768.62,877.42,766.97,880.25,767,882.51L767,882.51z"/>
				</g>
			</g>
			<g>
				<path class="st10" d="M953.34,948.44c99.56,1.13,200.26-11.67,292.18-46.11c91.92-34.44,174.76-91.43,227.79-167.26
					s74.21-171,48.57-257.56c-27.23-91.92-105.43-168.12-200.35-210.03c-94.92-41.91-204.91-51.52-309.6-38.22
					c-117.83,14.97-232.82,59.55-317,135.22S560.21,548.3,571.59,654.87c11.38,106.57,89.35,207.95,200.86,245.3"/>
				<g>
					<path d="M951.66,952.44c96.74,1.02,194.7-10.8,284.94-43.21c77.81-27.94,149.41-71.3,203.65-129.1
						c56.46-60.16,91.96-136.03,95.67-215.02c1.81-38.49-4.26-77.28-18.81-113.56c-13.35-33.31-33.41-64.32-58.23-91.75
						c-52.92-58.48-125.78-99.44-205.78-120.89c-88.31-23.68-183.38-24.4-273.45-8.59c-84.48,14.83-166.19,45.13-235.19,91.76
						c-68.51,46.3-122.55,109.18-152.6,181.56c-28.79,69.35-34.5,146.55-8.83,217.39c23.67,65.32,71.76,124.24,136.9,160.72
						c15.84,8.87,32.62,16.3,50.09,22.2c3.83,1.3,8.4-6.38,4.86-7.58c-70.68-23.86-127.68-73.18-162.69-132.84
						c-37.26-63.51-47.11-136.62-31.07-206.75c16.86-73.68,60.29-142.01,120.3-194.16c61.08-53.09,137.74-90.14,218.88-111.73
						c84.82-22.57,175.79-29.57,263.35-17.31c83.86,11.74,164.13,42.44,227.64,93.64c58.77,47.38,101.5,111.08,113.95,181.65
						c13.65,77.35-8.14,158.31-54.06,224.28c-43.73,62.82-108.53,112.39-181.09,146.7c-82.21,38.87-174.64,57.88-266.92,63.09
						c-22.7,1.28-45.44,1.73-68.18,1.49C951.22,944.4,947.48,952.4,951.66,952.44L951.66,952.44z"/>
				</g>
			</g>
			<g>
				<path class="st9" d="M1033.64,569.73c6.14-50.11-35.16-100.54-89.52-112.78c-54.36-12.24-115.44,12.96-143.42,56.64
					c-27.98,43.68-22.64,101.93,10.28,142.73c27.02,33.49,68.79,54.4,109.67,73.37c58.21,27.02,117.42,52.27,177.5,75.71
					c7.4,2.89,15.4,5.81,23.3,4.31c10.03-1.9,16.69-10.24,22.34-17.94c42.75-58.26,85.5-116.52,128.25-174.77
					c22.58-30.78,45.95-63.65,47.34-100.51c1.17-31.12-14.29-61.84-38.81-83.81c-41.7-37.37-109.91-48.25-163.35-26.06
					c-53.44,22.19-88.5,75.95-83.95,128.75"/>
				<g>
					<path d="M1037.05,568.95c5.34-45.48-25.47-90.77-71.32-109.7c-46.54-19.22-102.53-7.19-139.94,22.72
						c-40.7,32.52-54.94,84.08-41.86,130.96c6.74,24.16,20.72,45.92,40.04,63.69c20.16,18.54,44.62,32.69,69.74,45.16
						c28.29,14.06,57.38,26.9,86.44,39.61c30.58,13.38,61.42,26.28,92.5,38.69c8.04,3.21,16.08,6.43,24.18,9.54
						c7.14,2.74,14.71,5.29,22.6,4.21c14.22-1.94,22.53-14.83,29.72-24.64c19.24-26.22,38.48-52.43,57.71-78.65
						c19.24-26.22,38.48-52.43,57.71-78.65c17.35-23.64,35.79-47.18,47.52-73.65c10.91-24.61,14.29-51.19,5.98-76.86
						c-7.77-23.98-24.13-45.47-45.73-61.07c-40.19-29.03-98.27-37.35-146.41-20.64c-48.62,16.87-84.34,58.1-94,103.84
						c-2.33,11.05-3.09,22.37-2.17,33.59c0.42,5.17,7.29-0.14,7.01-3.5c-3.61-43.94,20.43-88.35,60.78-113.28
						c41.11-25.4,96.13-27.31,140.91-8.58c47.93,20.05,83.4,66.32,76.66,114.99c-3.59,25.88-17.58,49.3-32.76,71.09
						c-17.23,24.73-35.6,48.86-53.47,73.22c-18.41,25.08-36.81,50.17-55.22,75.25c-9.26,12.62-18.52,25.25-27.79,37.87
						c-6.77,9.22-14.31,22.69-28.69,21.93c-8.28-0.44-16.07-4.24-23.54-7.17c-7.31-2.87-14.61-5.77-21.89-8.7
						c-14.95-6-29.85-12.12-44.68-18.36c-29.67-12.46-59.11-25.37-88.3-38.72c-48.48-22.17-102.19-45.63-131.37-89.06
						c-26.34-39.19-29.48-92.07-2.52-131.68c24.9-36.58,74.73-58.51,122.1-53.91c48.2,4.69,89.34,38.92,100.78,81
						c2.75,10.11,3.69,20.66,2.47,31.02C1029.57,576.21,1036.61,572.74,1037.05,568.95L1037.05,568.95z"/>
				</g>
			</g>
			<g>
				<g>
					<path d="M1458.44,540.08c10.01,40.07,6.71,82.43-9.53,120.82c-0.6,1.43-0.8,3.94,1.41,4.26c2.17,0.32,4.12-2.25,4.75-3.75
						c17.02-40.23,20.6-84.56,10.12-126.56c-0.51-2.04-3.05-1.37-4.33-0.44C1459.12,535.69,1457.93,538.08,1458.44,540.08
						L1458.44,540.08z"/>
				</g>
			</g>
			<g>
				<g>
					<path d="M1436.23,708.04c-19.29,31.2-45.96,58.27-77.95,79.38c-3.41,2.25-3.22,9.48,1.91,6.09
						c33.27-21.95,61.04-50.41,81.09-82.85c0.82-1.32,1.83-4.1-0.1-5.11C1439.29,704.58,1437.02,706.76,1436.23,708.04
						L1436.23,708.04z"/>
				</g>
			</g>
			<g>
				<g>
					<path d="M654.63,578.14c1.32-40.12,13.87-79.78,36.16-114.54c6.38-9.94,13.53-19.44,21.41-28.46c1.17-1.34,2.59-3.97,1.23-5.58
						c-1.36-1.6-3.81-0.12-4.81,1.03c-29.2,33.41-48.99,73.31-57.03,115.22c-2.27,11.84-3.58,23.84-3.98,35.84
						c-0.06,1.94,1.82,2.64,3.57,1.86C653.27,582.57,654.56,580.14,654.63,578.14L654.63,578.14z"/>
				</g>
			</g>
			<g>
				<path class="st9" d="M1576.63,229.99c8.32-6.96,10.39-19.23,4.73-28.08c-5.66-8.86-18.48-13.43-29.35-10.47
					c-12.99,3.55-20.79,16.07-22.17,28.22c-1.37,12.15,2.3,24.24,5.16,36.18c2.86,11.94,4.89,24.63,0.41,36.16
					c27.94-13.07,54.19-29.06,78.05-47.55c8.96-6.94,18.41-16.86,14.62-26.93c-3.34-8.88-16.04-12.44-26.1-9.97
					c-10.05,2.47-17.98,9.24-25.46,15.76"/>
				<g>
					<path d="M1577.59,233.04c9.1-7.92,13.4-20.7,8.37-31.52c-4.55-9.79-16.24-15.77-27.91-14.87
						c-12.82,0.99-22.34,10.05-27.45,20.07c-6.06,11.87-5.06,25.05-2.38,37.56c3.29,15.35,9.87,31.94,4.1,47.47
						c-0.8,2.14-0.1,5.39,3.15,3.87c26.34-12.37,51.22-27.26,74.04-44.39c10.15-7.61,22.48-17.26,22.91-30.16
						c0.35-10.56-9.46-17.55-20.51-18.23c-14.7-0.9-26.55,8.88-36.36,17.43c-1.52,1.33-3.17,3.64-2.42,5.65
						c0.69,1.86,2.98,1.62,4.33,0.44c7.63-6.65,16.51-14.76,27.74-15.53c8.77-0.6,20.06,3.75,20.21,12.87
						c0.08,5.12-3.86,9.57-7.54,13.12c-4.18,4.04-9.13,7.5-13.89,10.99c-9.97,7.31-20.31,14.2-31.02,20.6
						c-12.15,7.26-24.72,13.92-37.65,19.99c1.05,1.29,2.1,2.58,3.15,3.87c4.24-11.42,3.31-23.26,0.82-34.92
						c-2.6-12.14-6.86-24.19-6.19-36.68c0.46-8.58,4.23-18.02,12.52-22.93c8.74-5.18,20.47-3.68,28.17,2.43
						c8.28,6.58,10.17,19.54,1.85,26.78c-1.52,1.33-3.17,3.64-2.42,5.65C1573.95,234.45,1576.24,234.21,1577.59,233.04
						L1577.59,233.04z"/>
				</g>
			</g>
			<g>
				<path class="st11" d="M1604.67,372.23c-2.31,18.68-15.41,36.01-33.87,44.8c8.8-3.51,19.49-2.91,27.72,1.58
					c8.24,4.49,13.79,12.73,14.41,21.37c1.55-17.39,15.75-33.31,34.28-38.44c-19.21,3.94-40.36-10.6-41.18-28.32"/>
				<g>
					<path d="M1601.26,373.01c-2.27,17.14-13.63,32.21-30.53,40.41c-3.15,1.52-5.32,9.29,0.14,7.22
						c17.09-6.49,37.06,4.54,38.56,21.09c0.45,4.94,6.63,0.32,6.92-2.53c1.57-15.57,13.44-28.96,30.04-33.73
						c2.2-0.63,3.85-2.7,4.23-4.71c0.3-1.63-0.34-3.58-2.59-3.16c-17.78,3.39-37.45-9.66-38.5-26.13c-0.12-1.9-1.7-2.7-3.57-1.86
						c-1.95,0.86-3.56,3.41-3.44,5.36c1.23,19.33,22.65,34.54,43.87,30.5c0.55-2.63,1.1-5.25,1.65-7.87
						c-20.73,5.96-36.54,23.62-38.5,43.15c2.31-0.85,4.61-1.69,6.92-2.53c-0.84-9.21-5.97-17.83-14.67-22.94
						c-9.3-5.46-21-5.67-31.04-1.86c0.05,2.4,0.09,4.81,0.14,7.22c20.19-9.8,34.5-28.68,37.22-49.19
						C1608.83,365.77,1601.76,369.24,1601.26,373.01L1601.26,373.01z"/>
				</g>
			</g>
			<path class="st12" d="M1652.14,803.64l10,27.74c0.43,1.19,1.67,2,3.05,2h32.38c3.11,0,4.41,3.58,1.89,5.23l-26.2,17.16
				c-1.12,0.74-1.6,2.04-1.17,3.23l10.01,27.76c0.96,2.67-2.43,4.88-4.95,3.23l-26.18-17.14c-1.13-0.74-2.65-0.74-3.78,0
				l-26.18,17.14c-2.52,1.65-5.91-0.57-4.95-3.23l10.01-27.76c0.43-1.19-0.04-2.49-1.17-3.23l-26.2-17.16
				c-2.52-1.65-1.22-5.23,1.89-5.23h32.38c1.39,0,2.63-0.81,3.05-2l10-27.74C1646.98,800.97,1651.18,800.97,1652.14,803.64z"/>
			<path class="st12" d="M837.4,136.77l10,27.74c0.43,1.19,1.67,2,3.05,2h32.37c3.11,0,4.41,3.58,1.89,5.23l-26.2,17.16
				c-1.12,0.74-1.6,2.04-1.17,3.23l10.01,27.76c0.96,2.67-2.43,4.88-4.95,3.23l-26.18-17.14c-1.13-0.74-2.65-0.74-3.78,0
				l-26.18,17.14c-2.52,1.65-5.91-0.57-4.95-3.23l10.01-27.76c0.43-1.19-0.04-2.49-1.17-3.23l-26.2-17.16
				c-2.52-1.65-1.22-5.23,1.89-5.23h32.37c1.39,0,2.63-0.81,3.05-2l10-27.74C832.24,134.11,836.44,134.11,837.4,136.77z"/>
			<path class="st12" d="M545.56,825.28l10,27.74c0.43,1.19,1.67,2,3.05,2h32.38c3.11,0,4.41,3.58,1.89,5.23l-26.2,17.16
				c-1.12,0.74-1.6,2.04-1.17,3.23l10.01,27.76c0.96,2.67-2.43,4.88-4.95,3.23l-26.18-17.14c-1.13-0.74-2.65-0.74-3.78,0
				l-26.18,17.14c-2.52,1.65-5.91-0.57-4.95-3.23l10.01-27.76c0.43-1.19-0.04-2.49-1.17-3.23l-26.2-17.16
				c-2.52-1.65-1.22-5.23,1.89-5.23h32.38c1.39,0,2.63-0.81,3.05-2l10-27.74C540.4,822.62,544.6,822.62,545.56,825.28z"/>
			<g>
				<path class="st13" d="M1447.4,1020.86c-2.17-12.05-15.05-21.78-28.62-21.59c-13.57,0.18-26.13,10.23-27.91,22.34
					c-1.87,12.77,7.33,25.16,19.22,32.33c11.89,7.17,26.16,10.23,39.99,13.55c13.83,3.32,28.01,7.25,38.83,15.68
					c3.98-24.5,7.96-49,11.95-73.5c1.89-11.65,2.83-25.64-7.43-32.95c-10.58-7.55-27.36-2.34-35.24,7.54
					c-7.87,9.88-9.24,22.66-10.34,34.77"/>
				<g>
					<path d="M1450.77,1018.25c-2.35-11.72-13.57-21.31-26.73-22.81c-13.66-1.55-26.91,6.5-33.03,17.17
						c-6.9,12.04-3.82,25.92,5.59,36.13c10.21,11.07,25.34,16.16,40.3,19.96c17.25,4.37,35.52,7.53,49.57,18.25
						c2.41,1.84,5.6-3.07,5.84-4.57c2.49-15.31,4.98-30.63,7.47-45.94c1.28-7.85,2.55-15.7,3.83-23.54
						c0.96-5.89,1.97-11.81,1.95-17.78c-0.05-10.25-3.92-21.72-15.94-25.1c-11.47-3.23-24.1,2.36-31.6,10.12
						c-10.71,11.09-12.38,26.63-13.66,40.63c-0.18,1.97,1.89,2.6,3.57,1.86c2.17-0.97,3.26-3.33,3.44-5.36
						c0.96-10.47,1.79-22.67,9.13-31.37c5.69-6.74,17.07-11.02,26.17-7.68c10.39,3.8,12.24,14.39,11.8,23.33
						c-0.28,5.68-1.43,11.32-2.33,16.94c-1.06,6.51-2.11,13.02-3.17,19.52c-2.49,15.31-4.98,30.63-7.47,45.94
						c1.95-1.52,3.9-3.05,5.84-4.57c-22.21-16.96-53.93-14.8-77.88-28.67c-10.4-6.02-19.75-16.51-19.33-28.18
						c0.38-10.26,10.51-18.34,21.58-19.18c13.44-1.02,25.95,8.45,28.3,20.14c0.42,2.07,3.11,1.32,4.33,0.44
						C1450.15,1022.6,1451.19,1020.3,1450.77,1018.25L1450.77,1018.25z"/>
				</g>
			</g>
			<g>
				<path class="st14" d="M1250.39,995.8c1.12,17.84-9.1,35.91-25.79,45.61c21.35-6.16,46.81,2.57,58.19,19.94
					c-8.64-17.85-1.69-40.72,15.86-52.12c-16.93,5.43-37.55-0.78-47.45-14.28"/>
				<g>
					<path d="M1246.88,997.55c0.83,15.86-7.51,31.46-22.34,40.25c-1.82,1.08-3.24,2.87-3.39,4.87c-0.11,1.39,0.64,3.23,2.63,2.67
						c20.88-5.81,44.73,2.51,56,19.31c2.16,3.21,7.56-3.44,6.39-5.92c-7.65-16.27-2.52-35.86,13.44-46.46
						c1.46-0.97,2.65-3.15,2.56-4.8c-0.08-1.25-1.03-2.69-2.68-2.18c-16.45,5.06-35.5-0.7-45.25-13.65
						c-2.39-3.17-8.17,3.78-6.03,6.61c10.66,14.14,31.68,20.43,49.64,14.91c-0.05-2.33-0.08-4.66-0.13-6.98
						c-19.18,12.74-27.66,37.84-18.29,57.78c2.13-1.97,4.26-3.94,6.39-5.92c-12.11-18.06-38.03-26.79-60.39-20.57
						c-0.25,2.51-0.51,5.03-0.76,7.54c18.66-11.07,30.28-30.78,29.22-50.97c-0.1-1.9-1.71-2.69-3.57-1.86
						C1248.37,993.07,1246.79,995.59,1246.88,997.55L1246.88,997.55z"/>
				</g>
			</g>
			<g>
				<path class="st15" d="M619.16,940.15c3.61,18.59-5.06,38.69-21.65,50.22c16.65-4.77,36.58,3.1,43.95,17.35
					c-1.45-16.54,7.08-33.5,21.84-43.45c-17.94,2.96-37.46-6.48-44.63-21.56"/>
				<g>
					<path d="M615.79,942.76c3.08,16.77-4.42,34.08-19.24,44.57c-1.44,1.02-2.65,3.11-2.55,4.8c0.08,1.29,1.02,2.64,2.68,2.18
						c16.23-4.43,34.44,3.05,41.76,16.72c0.77,1.44,3.11,0.38,3.97-0.26c1.45-1.07,2.68-3.08,2.55-4.8
						c-1.15-15.05,5.95-29.48,19.29-38.64c1.92-1.32,4.51-7.69-0.13-6.98c-16.86,2.58-35.13-6.11-42.08-20.24
						c-2.04-4.15-8.23,2.21-6.75,5.22c7.99,16.24,27.67,25.87,47.18,22.88c-0.05-2.33-0.08-4.66-0.13-6.98
						c-16.27,11.17-25.81,29.85-24.39,48.24c2.17-1.69,4.35-3.37,6.52-5.06c-8.04-15.01-28.52-22.8-46.14-17.98
						c0.05,2.33,0.08,4.66,0.13,6.98c18.47-13.08,27.91-35.06,24.08-55.88c-0.38-2.08-3.13-1.31-4.33-0.44
						C616.38,938.43,615.4,940.7,615.79,942.76L615.79,942.76z"/>
				</g>
			</g>
			<g>
				<path class="st11" d="M542.34,256.23c4.04,17.32-0.96,36.16-13.26,49.98c18.04-10.84,44.7-7.87,59.26,6.59
					c-13.3-13.63-13.3-36.2,0.01-49.83c-16.17,4.69-35.09,0.53-47.04-10.34"/>
				<g>
					<path d="M538.97,258.84c3.52,15.71-0.62,32.47-11.67,45.09c-1.07,1.22-2.19,3.26-1.58,4.88c0.5,1.34,2.11,1.78,3.44,1
						c17.32-10.15,42.11-7.36,56.18,6.29c3.02,2.93,8.46-4.06,6.03-6.61c-11.64-12.24-13.15-31.72-1.22-44.25
						c1.27-1.34,3.13-7.35-0.97-6.21c-15.54,4.32-33.22,0.62-44.85-9.72c-3.18-2.82-8.66,4.28-6.03,6.61
						c12.84,11.41,31.92,15.79,49.23,10.97c-0.32-2.07-0.64-4.14-0.97-6.21c-14.55,15.28-16.06,39.82-1.23,55.41
						c2.01-2.21,4.02-4.41,6.03-6.61c-15.72-15.26-42.95-18.26-62.35-6.9c0.62,1.96,1.24,3.92,1.86,5.88
						c13.5-15.43,19.16-35.56,14.85-54.86c-0.46-2.05-3.08-1.35-4.33-0.44C539.62,254.48,538.52,256.82,538.97,258.84L538.97,258.84
						z"/>
				</g>
			</g>
		</g>
	</g>
</g>
</svg>
