<?xml version="1.0" encoding="utf-8"?>
<!-- Generator: Adobe Adobe Illustrator 24.2.0, SVG Export Plug-In . SVG Version: 6.00 Build 0)  -->
<svg version="1.1" xmlns="http://www.w3.org/2000/svg" xmlns:xlink="http://www.w3.org/1999/xlink" x="0px" y="0px"
	 viewBox="0 0 1700.79 1700.79" style="enable-background:new 0 0 1700.79 1700.79;" xml:space="preserve">
<style type="text/css">
	.st0{fill:#C8354F;}
	.st1{opacity:0.7608;}
	.st2{fill:#F3C15A;}
	.st3{fill:#DB7B39;}
	.st4{fill:#DC7B3A;}
	.st5{stroke:#000000;stroke-miterlimit:10;}
	.st6{fill:#FFFFFF;}
	.st7{fill:#A22E49;}
	.st8{opacity:0.149;}
	.st9{fill:#D15238;}
	.st10{fill:#D15239;}
</style>
<g id="Ebene_7">
</g>
<g id="Ebene_4">
</g>
<g id="Ebene_5">
</g>
<g id="Ebene_9">
</g>
<g id="Ebene_6">
</g>
<g id="Ebene_8">
</g>
<g id="Ebene_10">
	<g>
		<g>
			<path class="st0" d="M370.6,843.12c47.03-139.68,43.39-161.58,26.31-158.76c-170.61,28.2-640.35,1022.99,246.64,928.5
				c636.06-67.75,335.18-476.04,297.38-589.89c-74.5-224.41,81.37-307.35,27.05-329.7c-32.53-13.38-215.11,250.85-228.09,247.23
				c-34.44-9.62,184.88-363.65,157.94-392.94C863.8,510.58,706.5,731.28,679.28,716.61C625.25,687.51,889.19,428.28,859.39,391
				c-20.46-25.59-166.28,42.9-299.86,175.55c-78.41,77.87-127.88,184.83-188.75,277.06"/>
			<g>
				<path d="M380.26,845.7c11.97-35.61,24-71.48,32.53-108.11c2.17-9.32,4.17-18.76,5.06-28.29c0.52-5.51,0.99-11.61-0.53-17.02
					c-6.16-21.9-35.59-12.23-49.39-4.98c-18.47,9.7-34.49,24.05-48.91,38.94c-19.29,19.92-36.33,42.01-52.04,64.82
					c-18.95,27.52-35.99,56.38-51.54,85.95c-17.11,32.53-32.38,66.03-45.8,100.24c-14.01,35.69-26.03,72.18-35.65,109.3
					c-9.54,36.8-16.75,74.26-20.76,112.08c-3.88,36.65-4.79,73.76-1.42,110.49c3.18,34.65,10.28,69.07,22.66,101.63
					c12.13,31.91,29.22,61.94,51.41,87.94c24.13,28.26,53.52,51.62,86.07,69.48c38.85,21.32,81.34,35.29,124.72,43.91
					c54.73,10.88,110.8,13.84,166.5,12.15c73.07-2.22,146.79-11.05,217.99-27.75c55.96-13.12,112.08-31.74,160.91-62.66
					c34.78-22.02,65.25-50.41,85.59-86.48c17.07-30.27,25.55-64.47,26.77-99.08c1.23-34.74-4.09-69.37-12.98-102.89
					c-8.77-33.09-20.93-65.19-34.54-96.57c-11.91-27.47-25.09-54.35-37.88-81.41c-2.17-4.6-4.76-10.12-7.26-15.66
					c-2.2-4.88-4.36-9.79-6.38-14.75c-9.44-23.1-15.7-47.73-20.04-72.25c-10.34-58.39-4.88-117.46,17.95-172.25
					c7.25-17.41,16.13-34,24.74-50.76c5.08-9.88,11.99-21.42,11.33-32.97c-0.68-11.91-14.05-20.15-24.88-21.3
					c-13.08-1.4-24.6,8.76-33.72,16.78c-15.15,13.33-28.72,28.49-41.99,43.65c-16.89,19.3-33.14,39.15-49.21,59.14
					c-28.8,35.8-56.47,72.58-86.11,107.71c-4.33,5.13-8.7,10.26-13.39,15.07c-1.53,1.57-3.12,3.05-4.74,4.53
					c-1.02,0.93-1.37,1.39-0.75,0.66c-0.25,0.29-1.02,0.67-1.4,0.74c3.89-0.67,8.56-0.21,11.66,1.48c-0.25-0.14,2.72,1.51,1.52,1.2
					c-0.05-0.01,0.13,1.08-0.09-0.37c-0.12-0.77-0.28-1.52-0.38-2.3c-0.2-1.6-0.14,0.45-0.01-1.42c0.08-1.1,0.19-2.19,0.34-3.28
					c0.36-2.5,0.92-4.97,1.56-7.41c3.84-14.84,10.07-29.12,16.22-43.12c8.79-20.01,18.31-39.68,27.97-59.28
					c22.56-45.79,46.11-91.09,68.54-136.95c9.97-20.4,19.77-40.9,28.8-61.74c6.7-15.46,13.33-31.19,17.69-47.5
					c2.13-7.98,5.5-19.78,0.17-27.23c-9.4-13.16-28.98-11.14-41.65-4.99c-17.36,8.43-32.4,22.27-46.42,35.27
					c-18.38,17.05-35.75,35.16-53.08,53.27c-16.56,17.32-32.96,34.84-50.18,51.51c-11.02,10.67-22.5,22.6-36.07,28.59
					c-1.62,0.72,0.63-0.18-0.19,0.1c-0.42,0.14-0.87,0.16-1.28,0.3c-1.53,0.52,1.96-0.01,0.46-0.04c-0.61-0.01,2.42,0.29,3.09,0.45
					c-0.41-0.1,2.6,1.03,3.03,1.27c-0.64-0.34-1.06-1.19-0.43-0.21c1,1.58-0.41-0.39-0.43-0.44c-0.54-1.32,0.87,1.37-0.11-0.11
					c-1.59-2.41-1.22-1.2-1.9-4.37c-0.62-2.89-0.51-3.35-0.28-5.83c1.29-14.27,9.21-28.19,16.17-40.36
					c23.22-40.55,52.95-77.51,81.19-114.6c27.32-35.89,56.23-71.54,78.69-110.78c6.05-10.58,13.41-23.01,13.6-35.58
					c0.23-15.41-16.87-20.71-29.75-21.02c-20.82-0.51-42.1,8.19-60.81,16.36c-31.09,13.58-60.5,31.05-88.67,49.87
					c-36.04,24.06-70.28,50.82-102.63,79.64c-33.79,30.1-65.02,62.25-92.07,98.59c-50.71,68.13-89.02,144.32-135.66,215.12
					c-4.32,6.56,14.37,12.97,17.94,7.56c47.76-72.51,86.79-150.72,139.36-220.05c27-35.61,58.23-67.08,91.69-96.62
					c32.19-28.42,66.21-54.9,102.12-78.46c27.24-17.88,55.65-34.49,85.66-47.33c10.55-4.52,21.35-8.63,32.52-11.34
					c2-0.48,4.01-0.93,6.03-1.31c1.07-0.2,2.15-0.37,3.23-0.55c1.24-0.2,2.57-0.34,2.02-0.29c1.73-0.17,3.46-0.22,5.19-0.27
					c0.72-0.02,3.35,0.24,0.69-0.03c0.76,0.08,1.54,0.2,2.3,0.25c1.44,0.09-2.36-0.71,0.01,0c2.02,0.61-0.61-0.3-0.41-0.19
					c2,1.06-0.25-0.3-0.11-0.14c1.33,1.55-0.33-0.35,0.17,0.05c1.15,0.91-0.01-0.14,0.04-0.08c0.27,0.3,0.59,0.69,0.76,1.06
					c0.38,0.78,0.36,0.73,0-0.15c0.19,0.45,0.4,0.92,0.5,1.4c0.89,4.08,0.47,7.13-0.99,12.19c-4.19,14.51-12.77,27.89-20.87,40.46
					c-25.48,39.54-55.15,76.36-83.51,113.83c-26.34,34.8-54.47,70.05-74.03,109.28c-5.3,10.63-11.63,23.83-9.56,36.09
					c2.17,12.92,17.31,19.97,29.25,16.74c13.88-3.76,25.93-16.35,36.07-25.86c16.83-15.77,32.65-32.61,48.57-49.28
					c17.25-18.06,34.47-36.18,52.49-53.49c14.3-13.73,29.19-28.04,46.38-38.14c3.13-1.84,6.35-3.44,9.7-4.83
					c2.19-0.91,0.54-0.42,2.89-0.95c1.18-0.27,4.48-1.15,2.38-0.52c0.31-0.09,2.64-0.56,0.88-0.08c-1.23,0.33-0.26,0.06,0.56,0.11
					c-2.62-0.16-2.17-0.48-1.35-0.25c0.83,0.23,1.05,0.64-1.31-0.48c1.95,0.93-1.26-0.93-0.27-0.21c1.31,0.96-0.4,0.09-0.01-0.06
					c-0.13,0.05,2.79,2.12,0.19,0.02c0.65,0.53,1.17,2.32,0.48,0.49c1.6,4.24,1.15,6.03,0.6,10.16c-0.78,5.91-2.39,11.72-4.14,17.4
					c-11.94,38.62-31.04,75.38-48.85,111.53c-22.18,45.01-45.32,89.54-67.39,134.61c-9.33,19.05-18.53,38.19-26.93,57.68
					c-5.73,13.3-11.63,26.95-14.88,41.12c-2.14,9.36-2.72,18.84,7.52,23.29c12.45,5.4,19.72-3.48,27.27-11.86
					c27.88-30.94,52.67-64.84,78.57-97.42c29.96-37.69,59.88-76.07,93.88-110.26c9.99-10.05,20.1-20,32.06-25.85
					c2.25-1.1-0.5,0.55,1.35-0.47c0.36-0.2,0.94-0.16,1.34-0.25c-2.32,0.51-0.05,0.24-1.53,0.1c-0.19-0.02-3.33-0.6-2.44-0.37
					c0.54,0.14-3.14-1.13-0.81-0.2c1.79,0.71-0.32-0.21-0.21-0.14c0.58,0.35,1.17,0.69,1.76,1.03c1.78,1.04-0.9-0.73-0.05-0.06
					c0.36,0.29,0.71,0.59,1.04,0.91c1.18,1.13,0.1,0.08,0.03-0.01c0.32,0.44,0.67,0.84,0.95,1.31c1.1,1.85,0.2-0.21,0.63,1.25
					c0.27,0.92,0.48,1.81,0.65,2.75c0.21,1.13,0.12,2.2,0.13,1.82c-0.05,1.1-0.18,2.18-0.36,3.26c-0.42,2.49-1.17,4.93-2.01,7.3
					c-2.15,6.07-5.06,11.86-7.97,17.58c-8.24,16.19-16.92,32.14-24.1,48.85c-22.56,52.44-29.54,109.2-21.65,165.72
					c5.47,39.15,17.12,75.97,33.77,111.55c12.22,26.12,24.71,51.34,36.33,77.56c13.6,30.7,25.94,62.05,35.23,94.34
					c9.42,32.75,15.89,66.75,15.98,100.93c0.1,33.66-6.5,67.45-21.28,97.81c-17.01,34.94-44.67,63.77-76.36,85.84
					c-44.9,31.26-97.57,50.62-150.19,64.28c-69.96,18.17-142.63,27.68-214.77,31.09c-55,2.6-110.43,0.95-164.74-8.6
					c-20.91-3.68-43.38-9.12-64.64-16.07c-4.55-1.49-8.17-2.75-13.74-4.83c-4.77-1.78-9.51-3.66-14.21-5.62
					c-8.73-3.66-18.9-8.42-25.72-12c-31.58-16.55-59.81-37.67-83.09-64.14c-22.06-25.09-39.41-54.1-51.58-85.19
					c-12.48-31.88-19.83-65.6-23.33-99.61c-3.67-35.72-3.09-71.76,0.4-107.47c3.67-37.51,10.53-74.68,19.73-111.21
					c9.22-36.64,20.79-72.68,34.32-107.96c13.02-33.96,27.85-67.23,44.48-99.58c15.09-29.36,31.66-57.98,50.08-85.37
					c15.54-23.1,32.38-45.47,51.35-65.88c7.83-8.42,16.04-16.51,24.8-23.95c8.06-6.85,13.9-11.24,22.29-16.13
					c3.55-2.07,7.21-3.96,10.99-5.57c1.77-0.75,3.56-1.42,5.37-2.06c1.39-0.5-1.43,0.43-0.29,0.09c0.44-0.13,0.87-0.28,1.31-0.39
					c0.86-0.23,1.72-0.48,2.58-0.69c0.79-0.19,1.59-0.34,2.39-0.52c1.71-0.38,2.92,0.35,0.64-0.2c1.51,0.36,1.96,0.19-0.36-0.15
					c1.71,0.25-0.94-0.21-1.41-0.34c1.88,0.52-1.55-0.6-1.29-0.49c-0.74-0.31-1.42-0.69-2.04-1.25c1,0.9-0.19-1.53,0.23,0.32
					c0.42,1.84,0-0.67,0.49,0.98c0.27,0.92,0.54,1.82,0.73,2.76c2.64,13.5-2.41,30.61-5.73,44.39
					c-8.54,35.42-20.11,70.15-31.71,104.66C358.79,846.91,377.98,852.49,380.26,845.7L380.26,845.7z"/>
			</g>
		</g>
		<g class="st1">
			<path class="st2" d="M349.82,1050.64c-4.54-38.4-24.04-92.8-28.58-131.19c-0.74-6.26-2.76-13.99-8.95-15.17
				c-6.73-1.29-11.44,6.32-13.99,12.69c-31.47,78.56-58.63,158.85-81.33,240.38c-14.12,50.71-74.17,390.24,287.55,418.86
				c311.57,24.65,513.96-182.1,460.72-333.61c-24.07-68.49-91.6-328.16-117.73-337.31c-31.8-11.13-121.6,170.94-158.07,164.19
				c-67.84-23.75,91.81-316.24,70.16-337.89c-29.31-29.31-177.67,198.69-210.55,178.12c-25.03-15.66,36.85-138.07,61.85-206.09
				c25-68.01,130.79-180.1,108.09-187.89c-75.25-25.81-288.93,328.61-365.56,531.88"/>
			<g>
				<path class="st3" d="M359.82,1050.64c-3.4-27.78-11.25-54.75-18.14-81.81c-3.28-12.87-6.46-25.79-8.81-38.87
					c-2.08-11.57-1.59-26.85-13.28-33.52c-14.59-8.33-26.01,5.84-30.94,17.86c-6.47,15.78-12.52,31.76-18.51,47.72
					c-11.75,31.31-22.82,62.88-33.2,94.67c-10.38,31.79-20.08,63.8-29.07,96.02c-1.5,5.37-2.8,10.78-3.94,16.23
					c-3.58,17.18-5.96,34.65-7.53,52.12c-4.44,49.53-1.65,100.43,11.44,148.54c16.18,59.5,49.44,112.65,98.79,150.09
					c69.2,52.52,159.82,68,244.72,68.5c97.95,0.58,197.93-21.86,281.96-73.41c62.81-38.53,120.2-95.65,142.12-167.69
					c9.08-29.86,11.07-61.94,3.79-92.41c-2.91-12.17-7.54-23.95-11.3-35.88c-4.66-14.78-9.11-29.62-13.54-44.47
					c-21.82-73.16-41.88-147.28-68.89-218.76c-4.8-12.7-9.81-25.43-15.95-37.55c-3.72-7.33-8.24-16.2-15.51-20.64
					c-8.81-5.38-19.29-1.5-26.94,4.05c-10.73,7.78-19.44,18.03-27.7,28.29c-22.37,27.78-41.93,57.69-63.46,86.11
					c-7.77,10.25-17.73,22.9-28.16,32.94c-2.06,1.98-4.23,3.82-6.39,5.69c-1.69,1.46,1.38-1,0.23-0.16
					c-0.42,0.31-0.83,0.63-1.26,0.93c-1.13,0.78-2.25,1.56-3.43,2.26c-0.92,0.55-1.9,0.99-2.82,1.51c-1.67,0.95,2.35-0.76,0.57-0.23
					c-0.45,0.13-0.87,0.35-1.33,0.46c-1.63,0.41-3.22-0.06-0.32,0.29c-0.79-0.1-2-0.04-2.8,0.02c1.78-0.14,2.56,0.28,1.04-0.07
					c2.75,0.64,1.61,0.82,0.76,0.29c-0.72-0.45-1.52-0.87-2.26-1.29c-2.5-1.39,1.08,1.35-0.35-0.25c-0.55-0.61-1.2-1.27-1.81-1.82
					c-1.62-1.45,1.18,2.12-0.3-0.39c-0.46-0.78-0.96-1.52-1.39-2.31c-0.45-0.83-1.55-3.92-0.37-0.58c-0.38-1.09-0.8-2.15-1.13-3.26
					c-0.61-2.05-0.99-4.13-1.38-6.23c-0.39-2.06,0.19,2.54,0.05,0.41c-0.04-0.58-0.13-1.16-0.19-1.74
					c-0.13-1.41-0.22-2.82-0.28-4.23c-0.21-5.42,0.07-10.85,0.6-16.25c0.15-1.48,0.32-2.97,0.5-4.45c0.31-2.6-0.33,2.24,0.05-0.38
					c0.11-0.77,0.22-1.55,0.34-2.32c0.53-3.49,1.15-6.97,1.83-10.44c1.36-6.94,2.97-13.83,4.74-20.68
					c4.02-15.62,8.83-31.04,13.94-46.34c10.99-32.86,23.52-65.19,35.86-97.56c9.71-25.47,20.07-51.02,27.17-77.38
					c3.76-13.98,9.81-38.42-10.24-42.85c-9.4-2.08-18.96,2.91-26.49,8.04c-10.54,7.17-19.98,15.96-29.02,24.91
					c-23.26,23.01-44.52,48.02-66.21,72.49c-19.8,22.33-39.54,45.57-62.52,64.74c-1.05,0.88-2.12,1.73-3.19,2.59
					c-1.81,1.46,1.79-1.33-0.04,0.04c-0.51,0.38-1.01,0.76-1.52,1.13c-2.02,1.48-4.1,2.91-6.25,4.2c-1.71,1.02-3.53,1.8-5.25,2.77
					c2.91-1.64,0.95-0.33-0.04-0.05c-0.86,0.24-1.83,0.42-2.66,0.73c-2.05,0.77,2.89-0.18,0.2-0.05c-1.08,0.05-3.57-0.43,0.41,0.22
					c-0.61-0.1-1.18-0.28-1.76-0.49c3.19,1.15,2.09,0.93,1.31,0.49c-1.92-1.1,1.48,1.51,0.33,0.31c-2.1-2.19,0.81,1.55-0.43-0.52
					c-1.13-1.87,0.32,2.15-0.37-0.91c-0.19-0.84-0.77-4.66-0.44-1.35c-0.16-1.56-0.25-3.11-0.25-4.67c0-1.24,0.06-2.48,0.14-3.72
					c0.05-0.76,0.58-5.39,0.26-3.05c0.56-4.04,1.39-8.05,2.33-12.02c2.18-9.25,5.03-18.34,8.09-27.33
					c7.23-21.27,15.75-42.09,24.37-62.83c8.62-20.74,17.5-41.38,25.79-62.26c7.07-17.82,12.85-32.63,22.68-49.58
					c21.09-36.32,46.99-69.51,70.74-104.07c8.47-12.32,42.87-56.56,11.69-63.8c-20.75-4.83-41.06,8.5-56.62,20.61
					c-24.2,18.83-44.65,42.42-63.81,66.2c-26.22,32.55-50.21,66.87-72.99,101.9c-50.18,77.18-95.14,158.04-134.75,241.14
					c-17.13,35.94-33.26,72.43-47.33,109.68c-1.91,5.05,2.12,10.96,6.98,12.3c5.62,1.54,10.39-1.91,12.3-6.98
					c30.06-79.59,69.11-156.67,110.87-231.17c41.45-73.95,86.85-148.12,139.76-213.6c18.8-23.27,38.87-46.38,62.53-64.88
					c-2.07,1.62,1.47-1.1,2.05-1.52c1.13-0.83,2.27-1.64,3.43-2.44c2.35-1.62,4.75-3.18,7.22-4.64c1.92-1.13,3.87-2.21,5.87-3.2
					c1.03-0.51,2.07-0.98,3.1-1.46c1.88-0.88-2.27,0.87-0.36,0.15c0.67-0.25,1.33-0.52,2-0.77c1.75-0.63,3.52-1.19,5.33-1.63
					c0.93-0.22,1.87-0.36,2.8-0.58c0.89-0.21,2.35,0.01-0.83,0.09c0.6-0.01,1.19-0.15,1.79-0.17c1.56-0.04,3.2,0.17,4.74,0.06
					c1.66-0.12-2.54-0.74-1-0.14c0.37,0.14,0.83,0.12,1.22,0.23c0.73,0.2,2.03,0.8,2.76,0.76c-0.93,0.05-2.99-1.87-2.43-1.31
					c-1.76-1.77-1.5-2.04-0.94-1.09c-1.37-2.31-0.89-2.33-0.62-1.26c0.15,0.56-0.17-3.09-0.19-0.62c-0.01,1.18-0.67,1.28,0.2-1.08
					c-0.2,0.55-0.19,1.19-0.37,1.75c-0.31,0.98-0.61,1.97-0.93,2.95c-0.17,0.55-0.42,1.07-0.62,1.61c1.07-2.78,0.3-0.68,0.02-0.11
					c-1.29,2.6-2.56,5.19-3.99,7.73c-8.34,14.82-18.45,28.67-28.28,42.52c-23.79,33.49-49.22,66.68-67.72,103.52
					c-8.6,17.12-14.61,35.48-21.89,53.17c-8.78,21.33-17.89,42.53-26.56,63.91c-7.91,19.49-15.65,39.14-21.69,59.31
					c-4.31,14.41-8.89,30.52-6.44,45.66c1.74,10.74,9.81,19.51,21.19,18.94c9.27-0.46,17.74-6,24.93-11.42
					c22.77-17.16,41.87-39.23,60.8-60.38c22.04-24.64,43.46-49.87,66.42-73.68c9.03-9.37,18.33-18.48,28.4-26.74
					c0.52-0.43,1.05-0.84,1.58-1.26c-2.18,1.72-0.4,0.3,0.05-0.02c1-0.73,1.99-1.47,3.01-2.18c1.84-1.28,3.72-2.5,5.68-3.61
					c0.87-0.49,1.77-0.92,2.65-1.4c2.7-1.48-1.61,0.33,0.54-0.27c0.78-0.22,1.59-0.51,2.36-0.77c0.36-0.12,0.78-0.13,1.13-0.27
					c1.91-0.75-1.9-0.23-0.86,0.08c0.49,0.15,1.17-0.15,1.7-0.05c2.11,0.4-2.98-0.77-0.47-0.04c2.43,0.7-2.17-1.21-0.41-0.22
					c2.16,1.22-1.76-1.95-0.04-0.07c1.12,1.22-1.74-2.67-0.72-0.88c0.85,1.5-1.15-2.83-0.47-1.14c0.18,0.46,0.31,1.01,0.38,1.5
					c-0.11-0.82-0.05-2.7-0.1-0.28c-0.03,1.39,0,2.75-0.11,4.14c-0.06,0.76-0.19,1.51-0.24,2.27c0.27-3.94-0.02-0.06-0.2,0.96
					c-0.78,4.37-1.86,8.69-3.04,12.98c-7.22,26.25-17.51,51.71-27.2,77.12c-11.98,31.41-24.11,62.78-34.84,94.65
					c-9.66,28.7-18.72,58.04-22.37,88.21c-2.34,19.3-2.61,44.78,15.33,57.13c21.13,14.54,43.74-12,56.12-26.53
					c22.57-26.47,41.77-55.67,62.32-83.68c9.14-12.45,16.76-22.79,27.52-34.55c3.89-4.24,7.97-8.24,12.39-11.92
					c1.69-1.4-1.88,1.31-0.12,0.1c0.47-0.32,0.92-0.67,1.4-0.99c0.88-0.6,1.78-1.17,2.71-1.69c1.04-0.58,3.86-1.3,0.61-0.46
					c0.76-0.2,1.73-0.46,2.44-0.79c1.9-0.89-2.67-0.08,0.01,0c2.82,0.09-2.31-0.6-0.18-0.07c2.54,0.63-2.26-1.13-0.67-0.31
					c1.92,0.98-0.54-0.58-0.48-0.45c0.44,0.9,2.09,2.29,2.83,3.02c-2.49-2.48-0.44-0.56,0.19,0.36c0.63,0.92,1.24,1.86,1.82,2.82
					c2.51,4.1,4.68,8.41,6.73,12.75c1.14,2.42,2.24,4.86,3.31,7.31c0.29,0.67,2.08,4.89,1.17,2.7c0.75,1.8,1.49,3.6,2.22,5.41
					c12.9,31.96,23.35,64.94,33.64,97.81c11.79,37.67,22.95,75.54,34.17,113.38c8.33,28.1,16.32,56.38,25.91,84.09
					c2.27,6.55,4.27,13.16,5.72,19.94c0.69,3.23,1.26,6.48,1.75,9.75c0.44,2.96-0.23-2.06,0.12,0.91c0.1,0.9,0.21,1.79,0.3,2.69
					c0.22,2.09,0.39,4.19,0.52,6.29c0.45,7.26,0.39,14.54-0.14,21.79c-0.13,1.83-0.3,3.66-0.49,5.49c-0.1,0.92-0.21,1.83-0.32,2.75
					c-0.36,3.04,0.31-2.03-0.13,1.01c-0.54,3.69-1.18,7.37-1.95,11.02c-6.67,31.96-20.73,59.6-40.48,86.27
					c-46.88,63.31-120.95,107.24-196.33,131.31c-47.55,15.18-97.13,23.27-146.98,25.02c-49.12,1.72-99.07-1.64-146.89-13.44
					c-36.42-8.99-70.25-22.53-101.38-43.64c-12.8-8.68-23.8-17.71-35.36-29.27c-10.95-10.96-19.42-21.23-27.42-32.86
					c-8.21-11.94-15.4-24.58-21.55-37.7c-1.35-2.89-2.65-5.8-3.91-8.73c-1.14-2.65,0.76,1.86-0.34-0.8c-0.33-0.8-0.66-1.6-0.98-2.4
					c-0.75-1.86-1.48-3.73-2.2-5.61c-2.42-6.38-4.63-12.84-6.63-19.37c-3.9-12.75-7-25.75-9.38-38.87
					c-0.58-3.21-1.12-6.42-1.62-9.64c-0.25-1.6-0.48-3.19-0.71-4.79c-0.08-0.53-0.15-1.06-0.22-1.59c-0.24-1.73,0.19,1.58-0.17-1.32
					c-0.77-6.27-1.45-12.55-1.95-18.85c-1.86-23.17-1.82-46.5-0.14-69.68c0.69-9.56,1.71-19.09,2.93-28.59
					c-0.47,3.62,0.04-0.25,0.16-1.08c0.15-1.04,0.3-2.08,0.45-3.11c0.3-1.99,0.61-3.97,0.93-5.95c0.61-3.73,1.27-7.46,1.98-11.17
					c5.76-29.91,15.64-59.08,24.7-88.1c9.86-31.6,20.39-62.99,31.6-94.14c5.66-15.73,11.49-31.41,17.49-47.02
					c2.69-7.01,5.42-14,8.18-20.98c1.28-3.23,2.44-6.57,3.91-9.71c0.29-0.63,3.23-5.03,3.08-5.29c-0.05-0.09-1.8-0.6-1.81-0.6
					c-0.01,0.01,0.54,0.32,0.57,0.86c0.1,1.53,1.12,3.81,1.33,5.05c1.09,6.28,1.73,12.62,2.92,18.9c2.4,12.6,5.49,25.07,8.67,37.5
					c6.3,24.66,13.9,49.47,17,74.8c0.66,5.36,4.13,10,10,10C354.71,1060.64,360.48,1056.04,359.82,1050.64L359.82,1050.64z"/>
			</g>
		</g>
		<g>
			<g>
				<path class="st3" d="M869.12,876.32c13.73-21.3,27.28-42.75,40.34-64.47c6.65-11.06-10.64-21.13-17.27-10.09
					c-13.05,21.72-26.61,43.17-40.34,64.47C844.86,877.08,862.16,887.12,869.12,876.32L869.12,876.32z"/>
			</g>
		</g>
		<g>
			<g>
				<path class="st4" d="M789.87,697.74c9.09-12.62,20.39-23.62,29.01-36.63c7.13-10.76-10.18-20.79-17.27-10.09
					C793,664,781.7,675.01,772.6,687.64c-3.16,4.39-0.76,11.14,3.59,13.68C781.22,704.27,786.7,702.13,789.87,697.74L789.87,697.74z
					"/>
			</g>
		</g>
		<g>
			<g>
				<path class="st3" d="M757.69,485.73c12.91-11.74,23.99-25.42,36.9-37.17c9.54-8.68-4.63-22.79-14.14-14.14
					c-12.91,11.74-23.99,25.42-36.9,37.17C734,480.27,748.18,494.38,757.69,485.73L757.69,485.73z"/>
			</g>
		</g>
		<g>
			<g>
				<path class="st3" d="M327.4,857.44c5.67-11.82,8.31-24.78,12.14-37.25c5.25-17.11,12.55-33.07,22.91-47.71
					c3.12-4.41,0.79-11.12-3.59-13.68c-5.01-2.93-10.55-0.83-13.68,3.59c-10.73,15.17-18.44,32.06-24.07,49.73
					c-2.17,6.81-4.01,13.71-5.98,20.57c-0.84,2.93-1.7,5.85-2.68,8.74c-1.03,3.05-1.5,4.21-2.33,5.93
					c-2.33,4.87-1.34,10.8,3.59,13.68C318.09,863.58,325.05,862.33,327.4,857.44L327.4,857.44z"/>
			</g>
		</g>
		<ellipse class="st5" cx="523.05" cy="1219.04" rx="26" ry="48"/>
		<ellipse class="st5" cx="635.05" cy="1219.04" rx="26" ry="48"/>
		<g>
			<g>
				<path d="M431.89,1365.29c22.79,41.57,66.29,68.65,112.29,77.08c50.38,9.24,101.5-3.81,144.84-30.15
					c25.04-15.21,47.56-34.54,67.1-56.32c8.57-9.56-5.53-23.75-14.14-14.14c-31.94,35.61-72.35,64.99-118.99,77.57
					c-41.89,11.3-87.19,7-124.99-14.92c-20.41-11.84-37.47-28.47-48.84-49.21C442.97,1343.91,425.69,1353.99,431.89,1365.29
					L431.89,1365.29z"/>
			</g>
		</g>
		<circle class="st6" cx="531.55" cy="1198.04" r="8.5"/>
		<circle class="st6" cx="531.55" cy="1198.04" r="8.5"/>
		<circle class="st6" cx="643.55" cy="1198.04" r="8.5"/>
		<ellipse class="st7" cx="465.58" cy="1289.5" rx="44" ry="19"/>
		<ellipse class="st7" cx="465.58" cy="1289.5" rx="44" ry="19"/>
		<ellipse class="st7" cx="465.58" cy="1289.5" rx="44" ry="19"/>
		<ellipse class="st7" cx="706.12" cy="1286.04" rx="44.5" ry="19"/>
	</g>
</g>
<g id="Ebene_11">
	<g>
		<g id="Ebene_2_Kopie">
			<g class="st8">
				<path d="M1068.52,994.69c28.32,11.57,46.96,41.15,44.06,69.92c-2.89,28.78-27.1,54.58-57.24,61.01
					c-30.13,6.43-63.9-7.01-79.85-31.78c-15.95-24.76-12.85-58.97,7.31-80.88c20.16-21.91,55.86-29.86,84.42-18.8"/>
				<g>
					<path d="M1066.02,998.73c26.59,11.08,44.65,37.72,43.17,65.05c-1.4,25.85-22.23,49.09-48.43,56.51
						c-27.63,7.84-59.5-2.32-77.28-23.38c-17.89-21.19-19.36-52.51-3.88-75.25c17.41-25.56,55.78-34.6,85.13-23.46
						c3.88,1.48,8.62-6.7,4.99-8.08c-29.68-11.27-65.05-3.35-86.84,18.42c-22.26,22.26-27.56,57.71-12.84,84.84
						c14.36,26.45,47.75,41.48,78.83,37.4c31.73-4.16,57.79-28.9,65.45-57.45c8.78-32.72-10.45-69-43.31-82.7
						C1067.2,989.05,1062.39,997.21,1066.02,998.73L1066.02,998.73z"/>
				</g>
			</g>
			<g class="st8">
				<path d="M952.62,460.76c2.4-26.77,9.29-53.89,25.56-76.02c16.28-22.14,43.14-38.62,71.87-38.46
					c41.64,0.25,76.09,36.17,82.51,74.66s-9.77,77.52-32.84,109.94c-23.08,32.42-52.94,60.07-78.53,90.79
					c-41.69,50.06-72.22,109.53-79.36,172.63c-4.69,41.46,1.92,86.29,30.35,118.39c28.43,32.11,82.75,45.93,119.39,22.21
					c23.25-15.05,35.28-41.52,39.8-67.63c4.52-26.11,2.69-52.78,4.51-79.18c3.75-54.45,23.36-107.86,56.17-152.96
					c40.63-55.86,101.41-100.07,126.32-163.47c26.38-67.13,5.1-146.27-45.56-199.83c-50.66-53.56-127.09-82.53-203.44-86.31
					c-83.91-4.15-170.19,21.61-232.14,74.71S740,394.09,750.18,472.1c4.01,30.75,15.62,61.96,39.92,82.99
					c32.02,27.71,84.43,32.03,121.14,10c36.71-22.04,34.61-60.04,41.26-103.45"/>
				<g>
					<path d="M956.22,458.89c2.2-23.81,7.96-47.97,21.57-68.48c12.2-18.39,31.72-33.15,54.47-38.13
						c44.87-9.82,84.78,24.84,95.14,63.61c12.93,48.45-15.29,97-46.14,133.96c-16.69,20.01-35.14,38.66-52.37,58.25
						c-16.42,18.67-31.45,38.4-44.35,59.37c-25.22,41.01-42.66,86.7-46.86,134.03c-3.77,42.47,4.51,91.54,38.94,122.28
						c28.9,25.79,76.62,37.44,112.25,16.65c19.52-11.39,32.46-30.32,39.74-50.39c8.59-23.66,9.35-48.78,9.81-73.52
						c0.48-25.49,2.08-50.56,7.98-75.52c5.61-23.71,14.28-46.88,25.83-68.64c11.24-21.17,25.21-40.72,40.98-59.14
						c14.91-17.43,30.96-33.96,46.42-50.95c30.33-33.32,58.62-69.58,69-113.05c10.05-42.08,3.55-86.95-15.2-126.11
						c-19.38-40.45-51.59-73.89-91.38-97.75c-40.19-24.09-86.98-38.31-134.35-42.93c-48.04-4.68-97.32,0.52-143.03,15.13
						c-45.54,14.56-87.6,38.49-121.08,70.96c-33.03,32.03-57.1,72.01-69.58,114.93c-12.19,41.9-13.74,89.26,2.46,130.45
						c7.93,20.17,20.78,39,39.6,51.71c17.35,11.72,39,17.76,60.34,17.78c21.39,0.02,42.8-5.86,60.06-17.82
						c16.24-11.26,25.57-27.96,30.41-45.99c5.15-19.21,6.13-39.22,9.1-58.78c0.92-6.05-6.39-2.33-7,1.66
						c-2.99,19.71-3.95,39.9-9.23,59.26c-4.87,17.87-15.24,32.5-32.56,41.76c-37.43,20-88.79,13.13-118.54-16.08
						c-32.32-31.75-39.48-80.52-35.84-122.54c3.74-43.2,20.79-85.48,47.43-120.86c27.31-36.28,64.52-64.87,107.09-84.28
						c43.05-19.62,91.02-29.84,138.86-30.36c47.1-0.52,94.48,8.32,137.27,26.89c42.32,18.37,80.1,46.4,105.8,83.08
						c24.98,35.65,38.68,78.59,36.66,121.31c-1,21.29-6.27,42.17-15.47,61.67c-9.28,19.65-22.27,37.6-36.38,54.46
						c-28.92,34.57-62.84,65.41-88.49,102.36c-27.53,39.66-45.31,85.4-51.49,132.33c-3.36,25.56-2.11,51.28-3.93,76.92
						c-1.59,22.41-6.37,45.35-19.86,64.34c-11.82,16.64-30.27,27.32-51.51,29.45c-20.26,2.04-41.09-3.34-58.43-13.04
						c-40.35-22.59-55.71-67.9-56.34-109.74c-0.69-46.03,13.93-92.06,36.19-132.78c11.44-20.92,25-40.81,40.26-59.47
						c16.14-19.74,34.13-38.07,51.17-57.12c32.63-36.48,63.19-78.74,65.74-127.83c1.09-20.98-3.88-41.72-15.74-59.65
						c-10.71-16.19-26.85-30.05-46.22-36.47c-44.97-14.91-89.35,14.66-108.8,51.58c-10.7,20.31-15.58,42.56-17.65,65
						c-0.19,2.1,1.95,2.77,3.67,1.98C954.93,463.59,956.02,461.05,956.22,458.89L956.22,458.89z"/>
				</g>
			</g>
			<g class="st8">
				<path d="M1022.51,1058.21c-11.24-16.69-2.81-41.96,16.59-49.72"/>
				<g>
					<path d="M1025.61,1054.68c-9.58-14.66-3.37-35.31,13.56-42.34c3.52-1.46,5.28-9.95-0.14-7.7c-22,9.12-32.24,37.75-19.62,57.08
						C1021.65,1065.16,1027.64,1057.82,1025.61,1054.68L1025.61,1054.68z"/>
				</g>
			</g>
			<g class="st8">
				<path d="M1017.31,1032.97c1.56-0.24,2.8,1.87,1.75,2.97c-1.94-1-2.05-4.03-0.19-5.16"/>
				<g>
					<path d="M1015.59,1037.24c0.51-0.04,0.47,0.15,0.15-0.1c0.46,0.35-0.2-0.34,0.05-0.04c0.21,0.26,0.17,0.46,0.07-0.06
						c0.03,0.07,0.05,0.14,0.07,0.22c-0.29-1.33,0.15-2.58,1.3-3.75c1.44-0.54,2.89-1.08,4.33-1.62c-0.15-0.08-0.28-0.17-0.41-0.27
						c0.53,0.39,0.11,0.07,0.03-0.09c-0.19-0.4,0.2,0.54,0.04,0.12c-0.24-0.63-0.03,0.12-0.06,0.11c-0.07-0.02,0.03-0.42-0.02-0.47
						c0.05,0.05-0.11,0.93,0,0.34c-0.11,0.62-0.39,1.18-0.77,1.7c-0.11,0.14-1.04,1.04-0.53,0.69c1.76-1.18,3.12-4.05,2.48-6.03
						c-0.71-2.21-2.99-1.44-4.44-0.47c-3.73,2.5-6.04,9.73-1.32,12.45c1.46,0.84,3.5-0.59,4.33-1.62c1.58-1.95,2.74-4.54,1.83-6.99
						c-0.53-1.43-1.96-2.81-3.7-2.67c-2.32,0.18-4.15,1.97-4.88,4c-0.35,0.96-0.63,2.05-0.3,3.06
						C1014.06,1036.43,1014.72,1037.31,1015.59,1037.24L1015.59,1037.24z"/>
				</g>
			</g>
		</g>
		<g id="Ebene_2_1_">
			<g>
				<path class="st9" d="M1086.95,977.2c28.32,11.57,46.96,41.15,44.06,69.92c-2.89,28.78-27.1,54.58-57.24,61.01
					c-30.13,6.43-63.9-7.01-79.85-31.78c-15.95-24.76-12.86-58.97,7.31-80.88c20.16-21.91,55.86-29.86,84.42-18.8"/>
				<g>
					<path d="M1084.45,981.25c26.59,11.08,44.65,37.72,43.17,65.05c-1.4,25.85-22.23,49.09-48.43,56.51
						c-27.63,7.84-59.5-2.32-77.28-23.38c-17.89-21.19-19.36-52.51-3.88-75.25c17.41-25.56,55.78-34.6,85.13-23.46
						c3.88,1.48,8.62-6.7,4.99-8.08c-29.68-11.27-65.05-3.35-86.84,18.42c-22.26,22.26-27.56,57.71-12.84,84.84
						c14.36,26.45,47.75,41.48,78.83,37.4c31.73-4.16,57.79-28.9,65.45-57.45c8.78-32.72-10.45-69-43.31-82.7
						C1085.63,971.58,1080.82,979.74,1084.45,981.25L1084.45,981.25z"/>
				</g>
			</g>
			<g>
				<path class="st10" d="M983.88,441.43c2.4-26.77,9.29-53.89,25.56-76.02c16.28-22.14,43.14-38.62,71.87-38.46
					c41.64,0.25,76.09,36.17,82.51,74.66c6.41,38.49-9.77,77.52-32.84,109.94c-23.08,32.42-52.94,60.07-78.53,90.79
					c-41.69,50.06-72.22,109.53-79.36,172.63c-4.69,41.46,1.92,86.29,30.35,118.39c28.43,32.1,82.75,45.93,119.39,22.21
					c23.25-15.05,35.28-41.52,39.8-67.63c4.52-26.11,2.69-52.78,4.51-79.18c3.75-54.45,23.36-107.86,56.17-152.96
					c40.63-55.86,101.41-100.07,126.32-163.47c26.38-67.13,5.1-146.27-45.56-199.83c-50.66-53.56-127.09-82.53-203.44-86.31
					c-83.89-4.16-170.17,21.6-232.12,74.7s-97.25,133.88-87.07,211.89c4.01,30.75,15.62,61.96,39.92,82.99
					c32.02,27.71,84.43,32.03,121.14,10c36.71-22.04,34.61-60.04,41.26-103.45"/>
				<g>
					<path d="M987.48,439.56c2.2-23.81,7.96-47.97,21.57-68.48c12.2-18.39,31.73-33.15,54.47-38.13
						c44.87-9.82,84.78,24.84,95.14,63.61c12.93,48.45-15.29,97-46.14,133.96c-16.69,20.01-35.14,38.66-52.37,58.25
						c-16.42,18.67-31.45,38.4-44.35,59.37c-25.22,41.01-42.66,86.7-46.86,134.03c-3.77,42.47,4.51,91.54,38.94,122.28
						c28.9,25.79,76.62,37.44,112.25,16.65c19.52-11.39,32.46-30.32,39.74-50.39c8.59-23.66,9.35-48.78,9.81-73.52
						c0.48-25.49,2.08-50.56,7.98-75.52c5.61-23.71,14.28-46.88,25.83-68.64c11.24-21.17,25.21-40.72,40.98-59.14
						c14.91-17.43,30.96-33.96,46.42-50.95c30.33-33.32,58.62-69.58,69-113.05c10.05-42.08,3.55-86.95-15.2-126.11
						c-19.38-40.45-51.59-73.89-91.38-97.75c-40.19-24.09-86.98-38.31-134.35-42.93c-48.04-4.68-97.32,0.52-143.03,15.13
						c-45.54,14.56-87.6,38.49-121.08,70.96c-33.03,32.03-57.1,72.01-69.58,114.93c-12.19,41.9-13.74,89.26,2.46,130.45
						c7.93,20.17,20.78,39,39.6,51.71c17.35,11.72,39,17.76,60.34,17.78c21.39,0.02,42.8-5.86,60.06-17.82
						c16.24-11.26,25.57-27.96,30.41-45.99c5.15-19.21,6.13-39.22,9.1-58.78c0.92-6.05-6.39-2.33-7,1.66
						c-2.99,19.71-3.95,39.9-9.23,59.26c-4.87,17.87-15.24,32.5-32.56,41.76c-37.43,20-88.79,13.13-118.54-16.08
						c-32.32-31.75-39.48-80.52-35.84-122.54c3.74-43.2,20.79-85.48,47.43-120.86c27.31-36.28,64.52-64.87,107.09-84.28
						c43.05-19.62,91.02-29.84,138.86-30.36c47.1-0.52,94.48,8.32,137.27,26.89c42.32,18.37,80.1,46.4,105.8,83.08
						c24.98,35.65,38.68,78.59,36.66,121.31c-1,21.29-6.27,42.17-15.47,61.67c-9.28,19.65-22.27,37.6-36.38,54.46
						c-28.92,34.57-62.84,65.41-88.49,102.36c-27.53,39.66-45.31,85.4-51.49,132.33c-3.36,25.56-2.11,51.28-3.93,76.92
						c-1.59,22.41-6.37,45.35-19.86,64.34c-11.82,16.64-30.27,27.32-51.51,29.45c-20.26,2.04-41.09-3.34-58.43-13.04
						c-40.35-22.59-55.71-67.9-56.34-109.74c-0.69-46.03,13.93-92.06,36.19-132.78c11.44-20.92,25-40.81,40.26-59.47
						c16.14-19.74,34.13-38.07,51.17-57.12c32.63-36.48,63.19-78.74,65.74-127.83c1.09-20.98-3.88-41.72-15.74-59.65
						c-10.71-16.19-26.85-30.05-46.22-36.47c-44.97-14.91-89.35,14.66-108.8,51.58c-10.7,20.31-15.58,42.56-17.65,65
						c-0.19,2.1,1.95,2.77,3.67,1.98C986.19,444.26,987.28,441.72,987.48,439.56L987.48,439.56z"/>
				</g>
			</g>
			<g>
				<g>
					<path d="M1025.61,1054.68c-9.58-14.66-3.37-35.31,13.56-42.34c3.52-1.46,5.28-9.95-0.14-7.7c-22,9.12-32.24,37.75-19.62,57.08
						C1021.65,1065.16,1027.64,1057.82,1025.61,1054.68L1025.61,1054.68z"/>
				</g>
			</g>
			<g>
				<path class="st9" d="M1061.15,1003.01c1.56-0.24,2.8,1.87,1.75,2.97c-1.94-1-2.05-4.03-0.19-5.16"/>
				<g>
					<path d="M1059.43,1007.28c0.51-0.04,0.47,0.15,0.15-0.1c0.46,0.35-0.2-0.34,0.05-0.04c0.21,0.26,0.17,0.46,0.07-0.06
						c0.03,0.07,0.05,0.14,0.07,0.22c-0.29-1.33,0.15-2.58,1.3-3.75c1.44-0.54,2.89-1.08,4.33-1.62c-0.15-0.08-0.28-0.17-0.41-0.27
						c0.53,0.39,0.11,0.07,0.03-0.09c-0.19-0.4,0.2,0.54,0.04,0.12c-0.24-0.63-0.03,0.12-0.06,0.11c-0.07-0.02,0.03-0.42-0.02-0.47
						c0.05,0.05-0.11,0.93,0,0.34c-0.11,0.62-0.39,1.18-0.77,1.7c-0.11,0.14-1.04,1.04-0.53,0.69c1.76-1.18,3.12-4.05,2.48-6.03
						c-0.71-2.21-2.99-1.44-4.44-0.47c-3.73,2.5-6.04,9.73-1.32,12.45c1.46,0.84,3.5-0.59,4.33-1.62c1.58-1.95,2.74-4.54,1.83-6.99
						c-0.53-1.43-1.96-2.81-3.7-2.67c-2.32,0.18-4.15,1.97-4.88,4c-0.35,0.96-0.63,2.05-0.3,3.06
						C1057.9,1006.47,1058.56,1007.35,1059.43,1007.28L1059.43,1007.28z"/>
				</g>
			</g>
		</g>
		<g id="Ebene_4_1_">
			<g class="st8">
				<path d="M1061.15,971.73c-34.42,0.75-75.63,34.57-77.39,66.73c-1.76,32.16,34.77,67.05,68.93,71.08
					c-28.6-6.41-54.9-42.25-51.2-69.54c3.7-27.3,26.65-52.62,60.73-68.16"/>
				<g>
					<path d="M1062.86,967.46c-15.2,0.45-29.72,6.16-42.12,14.14c-12.99,8.36-24.41,19.33-32.02,32.31
						c-7.33,12.49-10.55,26.43-7.13,40.47c3.45,14.14,12.49,26.97,23.51,36.97c12.52,11.36,28.36,20.25,45.86,22.44
						c3.75,0.47,7.9-7.49,3.43-8.54c-22.69-5.3-40.42-26.44-47.04-46.58c-3.31-10.09-3.34-20.25,0.14-30.31
						c3.62-10.47,10.04-19.78,17.98-27.84c10.33-10.49,23.19-18.58,36.81-24.86c2.04-0.94,3.65-3.61,3.53-5.72
						c-0.11-2.07-1.72-2.88-3.67-1.98c-25.56,11.77-48.93,30.65-59.49,55.96c-4.63,11.11-6.38,22.89-3.78,34.63
						c2.65,11.99,9.04,23.41,17.26,32.87c9.01,10.36,20.79,19.08,34.83,22.36c1.14-2.84,2.29-5.69,3.43-8.54
						c-27.7-3.47-53.9-24.86-63.53-49.1c-4.68-11.79-4.6-23.74,0.81-35.28c5.4-11.52,14.92-21.33,25.44-28.98
						c11.99-8.73,26.91-15.45,42.32-15.9C1063.32,975.89,1067.07,967.33,1062.86,967.46L1062.86,967.46z"/>
				</g>
			</g>
			<g class="st8">
				<path d="M1156.76,466.26c-21.7,43.01-50.34,71.4-80.82,109.46c-30.47,38.06-58.93,69.01-78.41,112.94
					c-19.48,43.93-29.18,128.18-13.78,173.5s68.09,80.72,129.12,58.76c-73.7-35.41-63.38-194.36-36.5-247.82
					c26.1-51.91,92.29-153.55,88.59-246.37"/>
				<g>
					<path d="M1153.6,465.99c-20.55,40.51-52.7,74.01-81.29,109.55c-28.66,35.64-58.87,70.32-77.48,111.81
						c-7.05,15.73-11.6,32.47-15.02,49.19c-3.87,18.91-6.19,38.13-6.98,57.36c-1.4,33.81,0.73,70.93,22.73,99.27
						c10.83,13.95,25.68,25.36,42.76,31.97c18.32,7.08,38.49,8.45,57.8,4.47c5.42-1.12,10.72-2.66,15.91-4.5
						c2.28-0.81,7.05-6.44,3.34-8.24c-26.68-12.96-40.04-40.64-47.16-66.63c-8.68-31.69-9.84-65.21-7.19-97.7
						c1.22-15.02,3.44-30.01,6.86-44.74c2.67-11.53,5.99-22.87,11.28-33.66c7.21-14.72,15.61-29.23,23.45-43.77
						c10.15-18.83,20.01-37.8,28.93-57.18c19.19-41.67,34.94-86.1,36.97-131.78c0.25-5.53,0.26-11.05,0.05-16.57
						c-0.07-2.04-1.77-2.86-3.67-1.98c-2.03,0.94-3.61,3.62-3.53,5.72c1.72,45.92-12.85,91.12-31.27,133.2
						c-15.88,36.26-36,70.51-54.18,105.74c-12.72,24.63-18.27,51.88-21.17,78.95c-3.55,33.16-3.09,67.2,4.2,99.91
						c6.07,27.22,17.8,56.79,42.86,73.65c2.73,1.84,5.6,3.47,8.58,4.92c1.11-2.74,2.23-5.5,3.34-8.24
						c-19.14,6.79-39.78,8.7-59.7,3.75c-17.59-4.38-33.6-14.05-45.68-26.7c-11.62-12.17-19.52-26.76-23.54-42.61
						c-4.21-16.61-5.2-33.89-5.04-50.9c0.19-18.92,2.04-37.83,5.35-56.49c2.95-16.69,6.95-33.35,13.25-49.24
						c15.76-39.78,44.41-73.24,71.55-106.63c14.39-17.69,29.08-35.13,43.57-52.75c14.02-17.03,27.36-34.62,38.33-53.56
						c2.87-4.95,5.54-9.98,8.12-15.06c0.76-1.49,0.72-4.22-1.44-4.54C1156.14,461.64,1154.39,464.43,1153.6,465.99L1153.6,465.99z"
						/>
				</g>
			</g>
			<g class="st8">
				<path d="M1062.72,166.32c-52.33,8.42-125.59,26.54-167.07,55.15s-84.12,84.78-102.96,129.65
					c-18.84,44.87-15.63,116.38,7.67,159.38s67.46,61.02,125.4,43.14c-35.84-8.56-72.37-30.1-82.53-63.37
					c-10.15-33.27-5.76-69.08,4.15-102.42c26.75-90,99.18-167.19,214.33-218.85"/>
				<g>
					<path d="M1063.57,162.12c-45.8,7.4-92.09,18.4-134.22,37.08c-19.93,8.84-37.96,20.1-54.04,34.24
						c-18.14,15.94-34.05,34.06-48.19,53.18c-13.69,18.53-25.89,38.16-35.28,58.93c-8.52,18.86-12.76,38.92-14.32,59.3
						c-1.65,21.58-0.27,43.46,4.13,64.71c4.01,19.4,10.73,38.82,22.4,55.44c10.48,14.92,25.26,27.26,43.16,33.81
						c19.28,7.05,40.37,7.29,60.46,3.39c5.84-1.13,11.59-2.63,17.26-4.36c2.75-0.84,7.17-7.36,2.56-8.47
						c-31.6-7.64-65.45-25.5-78.29-55.11c-7.75-17.89-9.01-38.56-7.77-57.62c1.24-18.99,5.52-37.88,11.48-56.05
						c9.06-27.58,22.53-53.7,39.7-77.66c18.22-25.42,40.63-48.15,65.5-67.99c27.63-22.05,58.33-40.56,90.62-56.03
						c4.32-2.07,8.68-4.08,13.06-6.06c3.45-1.56,5.2-10.09-0.14-7.7c-34.46,15.5-67.33,34.23-97.09,56.74
						c-26.75,20.23-50.96,43.6-70.94,69.83c-18.96,24.9-34.22,52.22-44.61,81.23c-13.21,36.89-20.71,77.86-10.35,116.2
						c8.93,33.07,39.72,54.69,72.94,65.27c4.11,1.31,8.26,2.46,12.46,3.48c0.85-2.83,1.71-5.64,2.56-8.47
						c-20.13,6.14-41.69,9.02-62.58,4.65c-17.74-3.72-33.63-12.99-45.49-25.82c-13.21-14.3-21.28-31.92-26.48-50.03
						c-5.74-20-8.16-40.82-8-61.51c0.15-19.93,2.62-40.27,9.42-59.24c7.03-19.59,18.06-38.11,29.88-55.48
						c23.98-35.27,54.51-69.51,94.38-89.57c20.01-10.07,41.43-17.58,63.1-23.88c21.68-6.32,43.79-11.39,66.07-15.47
						c4.98-0.91,9.97-1.77,14.96-2.58C1065.55,169.92,1068.63,161.3,1063.57,162.12L1063.57,162.12z"/>
				</g>
			</g>
		</g>
		<g id="Ebene_5_1_">
			<g class="st8">
				<g>
					<path class="st6" d="M1157.6,218.3c3.73,0.97,7.43,2.05,11.08,3.27c1.82,0.61,3.63,1.25,5.42,1.92
						c0.9,0.34,1.79,0.68,2.68,1.03c0.39,0.16,4.08,1.69,1.82,0.72c7.03,3.02,13.82,6.53,20.31,10.46
						c13.17,7.98,24.26,17.11,34.64,28.42c21.42,23.34,34.79,51.84,38.03,82.48c7.74,73.2-35.34,139.45-75.03,198.96
						c-22.98,34.45-45.82,69.1-61.13,107.27c-0.71,1.78,4.19,3.62,4.87,3.85c3.55,1.23,8.02,1.65,11.76,1.59
						c5.06-0.07,14.49-0.1,16.63-5.45c27.51-68.59,80.66-124.65,111.98-191.49c15.6-33.29,26.66-69.41,24.86-106.07
						c-1.56-31.8-13.56-62.54-34.38-87.74c-22.5-27.23-54.52-47.76-90.02-56.97c-7.33-1.9-16.27-2.7-23.53,0
						c-1.74,0.65-4.87,1.66-4.87,3.85C1152.73,216.5,1156,217.89,1157.6,218.3L1157.6,218.3z"/>
				</g>
			</g>
			<g class="st8">
				<g>
					<path class="st6" d="M1079.2,1023.21c5.55,11.76,5.32,25.68,1.22,37.78c-1.99,5.88-5.23,11.43-9.21,16.34
						c-4.58,5.64-8.72,9.08-14.92,12.45c-6.32,3.44,2.7,6.86,5.97,7.45c6.99,1.26,16.33,1.54,22.76-1.95
						c27.3-14.85,39-47.98,26.26-74.97c-0.88-1.87-6.09-2.94-7.65-3.26c-4.03-0.8-8.73-1-12.82-0.55
						C1087.34,1016.89,1076.74,1018.01,1079.2,1023.21L1079.2,1023.21z"/>
				</g>
			</g>
		</g>
	</g>
	<g>
		<g id="Ebene_2_Kopie_1_">
			<g class="st8">
				<path d="M1447.68,1154.24c24.21,7.4,40.14,26.3,37.67,44.69c-2.47,18.39-23.17,34.89-48.93,39
					c-25.76,4.11-54.63-4.48-68.26-20.31c-13.63-15.83-10.99-37.69,6.25-51.7s47.76-19.09,72.16-12.01"/>
				<g>
					<path d="M1445.54,1156.82c22.73,7.08,38.17,24.11,36.9,41.58c-1.2,16.52-19,31.38-41.4,36.12
						c-23.62,5.01-50.87-1.48-66.06-14.94c-15.29-13.55-16.55-33.56-3.32-48.1c14.89-16.34,47.68-22.11,72.77-14.99
						c3.32,0.94,7.37-4.28,4.27-5.17c-25.37-7.2-55.61-2.14-74.23,11.78c-19.03,14.23-23.56,36.89-10.97,54.23
						c12.27,16.91,40.82,26.51,67.39,23.9c27.13-2.66,49.4-18.47,55.95-36.72c7.5-20.91-8.93-44.11-37.02-52.86
						C1446.55,1150.64,1442.44,1155.86,1445.54,1156.82L1445.54,1156.82z"/>
				</g>
			</g>
			<g class="st8">
				<path d="M1348.61,812.97c2.05-17.11,7.94-34.44,21.85-48.59c13.91-14.15,36.88-24.69,61.43-24.58
					c35.59,0.16,65.05,23.12,70.53,47.72c5.48,24.6-8.35,49.55-28.08,70.27c-19.73,20.72-45.26,38.39-67.13,58.03
					c-35.64,32-61.74,70.01-67.84,110.34c-4.01,26.5,1.64,55.15,25.94,75.67c24.3,20.52,70.73,29.36,102.06,14.2
					c19.88-9.62,30.16-26.54,34.02-43.23c3.86-16.69,2.3-33.74,3.86-50.61c3.2-34.8,19.97-68.94,48.02-97.77
					c34.73-35.7,86.69-63.96,107.98-104.49c22.55-42.91,4.36-93.49-38.95-127.73c-43.31-34.24-108.64-52.75-173.91-55.17
					c-71.73-2.65-145.48,13.81-198.44,47.75s-83.12,85.56-74.41,135.43c3.43,19.66,13.35,39.6,34.13,53.05
					c27.37,17.71,72.17,20.48,103.55,6.39c31.38-14.09,29.58-38.38,35.27-66.12"/>
				<g>
					<path d="M1351.68,811.78c1.88-15.22,6.81-30.66,18.44-43.77c10.43-11.75,27.12-21.19,46.57-24.37
						c38.35-6.28,72.47,15.88,81.33,40.66c11.06,30.97-13.07,62-39.44,85.62c-14.27,12.79-30.04,24.71-44.77,37.23
						c-14.04,11.93-26.88,24.54-37.91,37.95c-21.56,26.21-36.47,55.42-40.06,85.67c-3.22,27.15,3.86,58.51,33.29,78.16
						c24.7,16.49,65.5,23.93,95.95,10.65c16.69-7.28,27.75-19.38,33.97-32.21c7.34-15.12,7.99-31.18,8.39-46.99
						c0.41-16.29,1.78-32.31,6.83-48.27c4.79-15.16,12.21-29.96,22.08-43.87c9.61-13.53,21.55-26.02,35.03-37.8
						c12.75-11.14,26.47-21.71,39.68-32.57c25.93-21.29,50.11-44.47,58.98-72.26c8.59-26.9,3.04-55.58-13-80.6
						c-16.56-25.85-44.1-47.23-78.12-62.48c-34.35-15.4-74.35-24.49-114.84-27.44c-41.07-2.99-83.2,0.33-122.27,9.67
						c-38.93,9.3-74.89,24.6-103.5,45.35c-28.23,20.48-48.81,46.03-59.48,73.46c-10.42,26.78-11.75,57.05,2.1,83.38
						c6.78,12.89,17.76,24.93,33.85,33.05c14.83,7.49,33.34,11.35,51.58,11.36c18.28,0.01,36.59-3.75,51.34-11.39
						c13.88-7.2,21.86-17.87,25.99-29.4c4.4-12.28,5.24-25.07,7.78-37.57c0.78-3.87-5.46-1.49-5.98,1.06
						c-2.55,12.6-3.38,25.5-7.89,37.88c-4.16,11.42-13.03,20.77-27.83,26.69c-32,12.78-75.9,8.39-101.33-10.28
						c-27.63-20.29-33.75-51.47-30.63-78.32c3.2-27.61,17.77-54.64,40.54-77.25c23.35-23.19,55.16-41.46,91.55-53.87
						c36.8-12.54,77.8-19.07,118.71-19.41c40.26-0.33,80.77,5.32,117.35,17.19c36.17,11.74,68.47,29.66,90.44,53.1
						c21.36,22.79,33.07,50.24,31.34,77.54c-0.86,13.61-5.36,26.96-13.22,39.41c-7.93,12.56-19.04,24.03-31.1,34.81
						c-24.73,22.09-53.72,41.81-75.64,65.43c-23.53,25.35-38.73,54.59-44.01,84.58c-2.87,16.34-1.8,32.78-3.36,49.17
						c-1.36,14.32-5.44,28.98-16.98,41.13c-10.1,10.64-25.87,17.46-44.03,18.82c-17.32,1.3-35.13-2.14-49.95-8.34
						c-34.5-14.44-47.62-43.4-48.16-70.15c-0.59-29.42,11.91-58.84,30.94-84.87c9.78-13.37,21.37-26.08,34.41-38.01
						c13.8-12.62,29.17-24.33,43.74-36.51c27.89-23.32,54.02-50.33,56.2-81.71c0.93-13.41-3.32-26.67-13.45-38.13
						c-9.15-10.35-22.96-19.21-39.51-23.31c-38.44-9.53-76.38,9.37-93,32.97c-9.15,12.98-13.32,27.21-15.09,41.55
						c-0.16,1.34,1.67,1.77,3.13,1.27C1350.57,814.77,1351.51,813.16,1351.68,811.78L1351.68,811.78z"/>
				</g>
			</g>
			<g class="st8">
				<path d="M1408.35,1194.84c-9.61-10.67-2.4-26.82,14.18-31.78"/>
				<g>
					<path d="M1411,1192.59c-8.19-9.37-2.88-22.57,11.59-27.06c3.01-0.93,4.52-6.36-0.12-4.92c-18.81,5.83-27.56,24.13-16.77,36.49
						C1407.61,1199.28,1412.74,1194.59,1411,1192.59L1411,1192.59z"/>
				</g>
			</g>
			<g class="st8">
				<path d="M1403.9,1178.71c1.33-0.16,2.39,1.19,1.5,1.9c-1.66-0.64-1.75-2.58-0.16-3.3"/>
				<g>
					<path d="M1402.44,1181.44c0.43-0.02,0.4,0.1,0.13-0.06c0.39,0.23-0.17-0.21,0.04-0.02c0.18,0.17,0.15,0.29,0.06-0.04
						c0.02,0.05,0.04,0.09,0.06,0.14c-0.24-0.85,0.13-1.65,1.11-2.39c1.23-0.35,2.47-0.69,3.7-1.03c-0.13-0.05-0.24-0.11-0.35-0.17
						c0.46,0.25,0.1,0.05,0.03-0.06c-0.16-0.26,0.17,0.35,0.03,0.08c-0.2-0.41-0.03,0.08-0.05,0.07c-0.06-0.02,0.03-0.27-0.02-0.3
						c0.05,0.03-0.1,0.6,0,0.21c-0.1,0.39-0.34,0.76-0.65,1.09c-0.09,0.09-0.89,0.66-0.45,0.44c1.5-0.75,2.67-2.59,2.12-3.85
						c-0.61-1.41-2.56-0.92-3.8-0.3c-3.19,1.6-5.16,6.22-1.13,7.96c1.25,0.54,2.99-0.37,3.7-1.03c1.35-1.25,2.34-2.9,1.56-4.47
						c-0.46-0.92-1.67-1.8-3.16-1.71c-1.98,0.12-3.54,1.26-4.17,2.55c-0.3,0.62-0.53,1.31-0.26,1.96
						C1401.13,1180.92,1401.68,1181.48,1402.44,1181.44L1402.44,1181.44z"/>
				</g>
			</g>
		</g>
		<g id="Ebene_2_2_">
			<g>
				<path class="st9" d="M1463.43,1143.07c24.21,7.4,40.14,26.3,37.67,44.69c-2.47,18.39-23.17,34.89-48.93,39
					s-54.63-4.48-68.26-20.31c-13.63-15.83-10.99-37.69,6.25-51.7s47.76-19.09,72.16-12.01"/>
				<g>
					<path d="M1461.3,1145.65c22.73,7.08,38.17,24.11,36.9,41.58c-1.2,16.52-19,31.38-41.4,36.12
						c-23.62,5.01-50.87-1.48-66.06-14.94c-15.29-13.55-16.55-33.56-3.32-48.1c14.89-16.34,47.68-22.11,72.77-14.99
						c3.32,0.94,7.37-4.28,4.27-5.17c-25.37-7.2-55.61-2.14-74.23,11.78c-19.03,14.23-23.56,36.89-10.97,54.23
						c12.27,16.91,40.82,26.51,67.39,23.9c27.13-2.66,49.4-18.47,55.95-36.72c7.5-20.91-8.93-44.1-37.02-52.86
						C1462.31,1139.47,1458.19,1144.69,1461.3,1145.65L1461.3,1145.65z"/>
				</g>
			</g>
			<g>
				<path class="st10" d="M1375.32,800.61c2.05-17.11,7.94-34.44,21.85-48.59c13.91-14.15,36.88-24.69,61.43-24.58
					c35.59,0.16,65.05,23.12,70.53,47.72c5.48,24.6-8.35,49.55-28.08,70.27s-45.26,38.39-67.13,58.03
					c-35.64,32-61.74,70.01-67.84,110.34c-4.01,26.5,1.64,55.15,25.94,75.67c24.3,20.52,70.73,29.36,102.06,14.2
					c19.88-9.62,30.16-26.54,34.02-43.23c3.86-16.69,2.3-33.74,3.86-50.61c3.2-34.8,19.97-68.94,48.02-97.77
					c34.73-35.7,86.69-63.96,107.98-104.49c22.55-42.91,4.36-93.49-38.95-127.73c-43.31-34.24-108.64-52.75-173.91-55.17
					c-71.71-2.66-145.47,13.8-198.42,47.74c-52.95,33.94-83.13,85.57-74.43,135.44c3.43,19.66,13.35,39.6,34.13,53.05
					c27.37,17.71,72.17,20.48,103.55,6.39c31.38-14.09,29.58-38.38,35.27-66.12"/>
				<g>
					<path d="M1378.4,799.42c1.88-15.22,6.81-30.66,18.44-43.77c10.43-11.75,27.12-21.19,46.57-24.37
						c38.35-6.28,72.47,15.88,81.33,40.66c11.06,30.97-13.07,62-39.44,85.62c-14.27,12.79-30.04,24.71-44.77,37.23
						c-14.04,11.93-26.88,24.54-37.91,37.95c-21.56,26.21-36.47,55.42-40.06,85.67c-3.22,27.15,3.86,58.51,33.29,78.16
						c24.7,16.49,65.5,23.93,95.95,10.65c16.69-7.28,27.75-19.38,33.97-32.21c7.34-15.12,7.99-31.18,8.39-46.99
						c0.41-16.29,1.78-32.31,6.83-48.27c4.79-15.16,12.21-29.96,22.08-43.87c9.61-13.53,21.55-26.02,35.03-37.8
						c12.75-11.14,26.47-21.71,39.68-32.57c25.93-21.29,50.11-44.47,58.98-72.26c8.59-26.9,3.04-55.58-13-80.6
						c-16.56-25.85-44.1-47.23-78.12-62.48c-34.35-15.4-74.35-24.49-114.84-27.44c-41.07-2.99-83.2,0.33-122.27,9.67
						c-38.93,9.3-74.89,24.6-103.5,45.35c-28.23,20.48-48.81,46.03-59.48,73.46c-10.42,26.78-11.75,57.05,2.1,83.38
						c6.78,12.89,17.76,24.93,33.85,33.05c14.83,7.49,33.34,11.35,51.58,11.36c18.28,0.01,36.59-3.75,51.34-11.39
						c13.88-7.2,21.86-17.87,25.99-29.4c4.4-12.28,5.24-25.07,7.78-37.57c0.78-3.87-5.46-1.49-5.98,1.06
						c-2.55,12.6-3.38,25.5-7.89,37.88c-4.16,11.42-13.03,20.77-27.83,26.69c-32,12.78-75.9,8.39-101.33-10.28
						c-27.63-20.29-33.75-51.47-30.63-78.32c3.2-27.61,17.77-54.64,40.54-77.25c23.35-23.19,55.16-41.46,91.55-53.87
						c36.8-12.54,77.8-19.07,118.71-19.41c40.26-0.33,80.77,5.32,117.35,17.19c36.17,11.74,68.47,29.66,90.44,53.1
						c21.36,22.79,33.07,50.24,31.34,77.54c-0.86,13.61-5.36,26.96-13.22,39.41c-7.93,12.56-19.04,24.03-31.1,34.81
						c-24.73,22.09-53.72,41.81-75.64,65.43c-23.53,25.35-38.73,54.59-44.01,84.58c-2.87,16.34-1.8,32.78-3.36,49.17
						c-1.36,14.32-5.44,28.98-16.98,41.13c-10.1,10.64-25.87,17.46-44.03,18.82c-17.32,1.3-35.13-2.14-49.95-8.34
						c-34.5-14.44-47.62-43.4-48.16-70.15c-0.59-29.42,11.91-58.84,30.94-84.87c9.78-13.37,21.37-26.08,34.41-38.01
						c13.8-12.62,29.17-24.33,43.74-36.51c27.89-23.32,54.02-50.33,56.2-81.71c0.93-13.41-3.32-26.67-13.45-38.13
						c-9.15-10.35-22.96-19.21-39.51-23.31c-38.44-9.53-76.38,9.37-93,32.97c-9.15,12.98-13.32,27.21-15.09,41.55
						c-0.17,1.34,1.67,1.77,3.13,1.27C1377.3,802.42,1378.23,800.8,1378.4,799.42L1378.4,799.42z"/>
				</g>
			</g>
			<g>
				<g>
					<path d="M1411,1192.59c-8.19-9.37-2.88-22.57,11.59-27.06c3.01-0.93,4.52-6.36-0.12-4.92c-18.81,5.83-27.56,24.13-16.77,36.49
						C1407.61,1199.28,1412.74,1194.59,1411,1192.59L1411,1192.59z"/>
				</g>
			</g>
			<g>
				<path class="st9" d="M1441.37,1159.56c1.33-0.16,2.39,1.19,1.5,1.9c-1.66-0.64-1.75-2.58-0.17-3.3"/>
				<g>
					<path d="M1439.91,1162.29c0.43-0.02,0.4,0.1,0.13-0.06c0.39,0.23-0.17-0.21,0.04-0.02c0.18,0.17,0.15,0.29,0.06-0.04
						c0.02,0.05,0.04,0.09,0.06,0.14c-0.24-0.85,0.13-1.65,1.11-2.39c1.23-0.35,2.47-0.69,3.7-1.03c-0.13-0.05-0.24-0.11-0.35-0.17
						c0.46,0.25,0.1,0.05,0.03-0.06c-0.17-0.26,0.17,0.35,0.03,0.08c-0.2-0.41-0.03,0.08-0.05,0.07c-0.06-0.02,0.03-0.27-0.02-0.3
						c0.05,0.03-0.1,0.6,0,0.21c-0.1,0.39-0.34,0.76-0.65,1.09c-0.09,0.09-0.89,0.66-0.45,0.44c1.5-0.75,2.67-2.59,2.12-3.85
						c-0.61-1.41-2.56-0.92-3.8-0.3c-3.19,1.6-5.16,6.22-1.13,7.96c1.25,0.54,2.99-0.37,3.7-1.03c1.35-1.25,2.34-2.9,1.56-4.47
						c-0.45-0.91-1.67-1.8-3.16-1.71c-1.98,0.12-3.54,1.26-4.17,2.55c-0.3,0.62-0.53,1.31-0.26,1.96
						C1438.6,1161.77,1439.16,1162.34,1439.91,1162.29L1439.91,1162.29z"/>
				</g>
			</g>
		</g>
		<g id="Ebene_4_2_">
			<g class="st8">
				<path d="M1441.37,1139.57c-29.42,0.48-64.65,22.09-66.16,42.65c-1.5,20.55,29.72,42.86,58.92,45.43
					c-24.45-4.1-46.93-27-43.77-44.45c3.16-17.45,22.79-33.63,51.91-43.57"/>
				<g>
					<path d="M1442.84,1136.84c-12.99,0.29-25.41,3.93-36.01,9.04c-11.1,5.34-20.87,12.36-27.38,20.65
						c-6.26,7.98-9.02,16.89-6.09,25.87c2.95,9.04,10.68,17.24,20.1,23.63c10.7,7.26,24.24,12.94,39.21,14.34
						c3.2,0.3,6.76-4.79,2.94-5.46c-19.4-3.39-34.55-16.9-40.21-29.77c-2.83-6.45-2.86-12.94,0.12-19.37
						c3.09-6.69,8.58-12.64,15.37-17.79c8.83-6.71,19.82-11.88,31.47-15.89c1.74-0.6,3.12-2.31,3.01-3.66
						c-0.1-1.32-1.47-1.84-3.13-1.27c-21.85,7.52-41.83,19.59-50.86,35.77c-3.96,7.1-5.45,14.63-3.23,22.13
						c2.27,7.67,7.72,14.96,14.75,21.01c7.7,6.62,17.77,12.19,29.78,14.29c0.98-1.82,1.96-3.64,2.93-5.46
						c-23.68-2.22-46.08-15.89-54.31-31.38c-4-7.53-3.93-15.17,0.69-22.55c4.61-7.36,12.75-13.63,21.74-18.53
						c10.25-5.58,23.01-9.87,36.17-10.16C1443.23,1142.22,1446.44,1136.76,1442.84,1136.84L1442.84,1136.84z"/>
				</g>
			</g>
			<g class="st8">
				<path d="M1523.11,816.49c-18.55,27.49-43.03,45.64-69.08,69.97c-26.05,24.33-50.38,44.11-67.03,72.19
					c-16.65,28.08-24.94,81.93-11.78,110.9c13.16,28.97,58.2,51.6,110.37,37.56c-63-22.64-54.18-124.23-31.2-158.4
					c22.31-33.18,78.9-98.14,75.73-157.48"/>
				<g>
					<path d="M1520.41,816.31c-17.57,25.89-45.05,47.31-69.49,70.02c-24.5,22.78-50.33,44.94-66.23,71.47
						c-6.03,10.06-9.92,20.75-12.84,31.44c-3.3,12.09-5.29,24.37-5.97,36.67c-1.19,21.61,0.62,45.34,19.43,63.45
						c9.26,8.91,21.96,16.21,36.55,20.43c15.66,4.53,32.9,5.4,49.41,2.86c4.64-0.72,9.16-1.7,13.6-2.88
						c1.95-0.52,6.03-4.11,2.86-5.27c-22.81-8.29-34.23-25.97-40.32-42.59c-7.42-20.25-8.41-41.68-6.15-62.45
						c1.05-9.6,2.94-19.18,5.86-28.59c2.29-7.37,5.12-14.62,9.64-21.52c6.17-9.41,13.34-18.68,20.04-27.97
						c8.68-12.03,17.11-24.16,24.73-36.55c16.4-26.64,29.87-55.03,31.61-84.23c0.21-3.53,0.22-7.07,0.05-10.59
						c-0.06-1.3-1.51-1.83-3.13-1.27c-1.73,0.6-3.08,2.31-3.01,3.66c1.47,29.35-10.98,58.24-26.73,85.14
						c-13.57,23.18-30.77,45.07-46.32,67.59c-10.87,15.75-15.62,33.16-18.09,50.47c-3.03,21.2-2.64,42.95,3.59,63.86
						c5.19,17.4,15.22,36.3,36.64,47.07c2.33,1.17,4.78,2.22,7.34,3.14c0.95-1.75,1.91-3.51,2.86-5.27
						c-16.36,4.34-34.01,5.56-51.03,2.39c-15.03-2.8-28.72-8.98-39.05-17.07c-9.94-7.78-16.69-17.11-20.12-27.24
						c-3.6-10.61-4.45-21.66-4.31-32.54c0.16-12.09,1.75-24.18,4.57-36.11c2.53-10.67,5.94-21.32,11.32-31.47
						c13.47-25.42,37.97-46.81,61.17-68.15c12.3-11.31,24.86-22.46,37.24-33.71c11.98-10.89,23.39-22.13,32.76-34.23
						c2.45-3.16,4.74-6.38,6.94-9.62c0.65-0.95,0.61-2.7-1.23-2.9C1522.58,813.53,1521.08,815.31,1520.41,816.31L1520.41,816.31z"/>
				</g>
			</g>
			<g class="st8">
				<path d="M1442.72,624.77c-44.73,5.38-107.36,16.96-142.82,35.25c-35.46,18.29-71.91,54.19-88.01,82.87
					c-16.11,28.68-13.36,74.39,6.56,101.87s57.67,39,107.2,27.58c-30.64-5.47-61.87-19.24-70.55-40.5s-4.93-44.15,3.54-65.46
					c22.87-57.52,84.78-106.86,183.22-139.88"/>
				<g>
					<path d="M1443.45,622.08c-39.15,4.73-78.72,11.76-114.74,23.7c-17.04,5.65-32.45,12.85-46.2,21.88
						c-15.51,10.19-29.11,21.77-41.19,33.99c-11.71,11.85-22.13,24.39-30.16,37.67c-7.29,12.05-10.91,24.88-12.24,37.9
						c-1.41,13.8-0.23,27.78,3.53,41.36c3.43,12.4,9.17,24.82,19.15,35.44c8.96,9.54,21.6,17.42,36.89,21.61
						c16.48,4.51,34.51,4.66,51.69,2.17c4.99-0.72,9.91-1.68,14.75-2.78c2.35-0.54,6.13-4.7,2.19-5.41
						c-27.01-4.89-55.95-16.3-66.92-35.23c-6.63-11.43-7.7-24.64-6.64-36.83c1.06-12.14,4.72-24.21,9.82-35.82
						c7.74-17.63,19.26-34.33,33.93-49.64c15.58-16.25,34.74-30.77,55.99-43.46c23.62-14.09,49.86-25.93,77.47-35.81
						c3.7-1.32,7.42-2.61,11.17-3.87c2.95-0.99,4.44-6.45-0.12-4.92c-29.46,9.91-57.56,21.88-83,36.27
						c-22.87,12.93-43.56,27.87-60.64,44.63c-16.21,15.91-29.25,33.38-38.14,51.92c-11.3,23.58-17.7,49.77-8.85,74.27
						c7.63,21.14,33.96,34.96,62.35,41.72c3.51,0.84,7.06,1.58,10.65,2.22c0.73-1.81,1.46-3.61,2.19-5.41
						c-17.21,3.93-35.63,5.77-53.49,2.97c-15.16-2.37-28.75-8.3-38.89-16.51c-11.29-9.14-18.19-20.4-22.63-31.98
						c-4.9-12.79-6.98-26.09-6.84-39.32c0.13-12.74,2.24-25.74,8.05-37.86c6.01-12.52,15.44-24.36,25.54-35.46
						c20.5-22.54,46.59-44.43,80.68-57.25c17.11-6.44,35.42-11.23,53.94-15.26c18.54-4.04,37.43-7.28,56.48-9.89
						c4.25-0.58,8.52-1.13,12.79-1.65C1445.14,627.07,1447.77,621.56,1443.45,622.08L1443.45,622.08z"/>
				</g>
			</g>
		</g>
		<g id="Ebene_5_2_">
			<g class="st8">
				<g>
					<path class="st6" d="M1523.83,657.99c3.19,0.62,6.35,1.31,9.47,2.09c1.56,0.39,3.11,0.8,4.64,1.23
						c0.77,0.21,1.53,0.43,2.29,0.66c0.34,0.1,3.49,1.08,1.56,0.46c6.01,1.93,11.81,4.17,17.36,6.69
						c11.26,5.1,20.74,10.94,29.61,18.17c18.31,14.92,29.74,33.14,32.51,52.72c6.62,46.79-30.21,89.13-64.14,127.17
						c-19.64,22.02-39.17,44.16-52.26,68.56c-0.61,1.14,3.58,2.31,4.16,2.46c3.04,0.78,6.86,1.05,10.06,1.02
						c4.33-0.05,12.39-0.06,14.22-3.48c23.52-43.84,68.95-79.67,95.73-122.39c13.34-21.28,22.79-44.36,21.25-67.79
						c-1.33-20.33-11.59-39.97-29.39-56.08c-19.23-17.4-46.61-30.53-76.95-36.41c-6.27-1.21-13.91-1.73-20.11,0
						c-1.49,0.41-4.16,1.06-4.16,2.46C1519.66,656.84,1522.46,657.73,1523.83,657.99L1523.83,657.99z"/>
				</g>
			</g>
			<g class="st8">
				<g>
					<path class="st6" d="M1456.81,1172.47c4.74,7.51,4.55,16.41,1.05,24.15c-1.7,3.76-4.47,7.31-7.87,10.45
						c-3.91,3.61-7.46,5.8-12.75,7.96c-5.4,2.2,2.31,4.39,5.1,4.76c5.98,0.8,13.96,0.99,19.45-1.25
						c23.34-9.49,33.34-30.67,22.44-47.92c-0.75-1.19-5.2-1.88-6.54-2.08c-3.45-0.51-7.46-0.64-10.95-0.35
						C1463.76,1168.43,1454.71,1169.15,1456.81,1172.47L1456.81,1172.47z"/>
				</g>
			</g>
		</g>
	</g>
</g>
</svg>
