<?xml version="1.0" encoding="utf-8"?>
<!-- Generator: Adobe Adobe Illustrator 24.2.0, SVG Export Plug-In . SVG Version: 6.00 Build 0)  -->
<svg version="1.1" xmlns="http://www.w3.org/2000/svg" xmlns:xlink="http://www.w3.org/1999/xlink" x="0px" y="0px"
	 viewBox="0 0 1700.79 1700.79" style="enable-background:new 0 0 1700.79 1700.79;" xml:space="preserve">
<style type="text/css">
	.st0{fill:#98CFEA;}
	.st1{stroke:#000000;stroke-miterlimit:10;}
	.st2{opacity:0.149;}
	.st3{opacity:0.1216;}
	.st4{fill:#FFFFFF;stroke:#FFFFFF;stroke-miterlimit:10;}
	.st5{fill:#CC5B7B;stroke:#CA5B7A;stroke-miterlimit:10;}
	.st6{fill:#FFFFFF;}
	.st7{fill:#F4F5E9;}
	.st8{fill:#F4F6E7;}
	.st9{stroke:#000000;stroke-width:0.7278;stroke-miterlimit:10;}
</style>
<g id="Ebene_2">
	<g>
		<path class="st0" d="M401.57,315.04c41.55,57.22,47.53,134.75,29.47,203.12s-57.58,129.08-100.97,184.92
			s-91.35,108.31-130.06,167.5c-56.04,85.68-91.86,185.91-93.65,288.27c-1.79,102.36,32.04,206.52,100.49,282.66
			c58.9,65.53,140.62,107.96,226.14,129.18c109.08,27.07,227.65,20.47,329.76-26.5s186.03-135.66,219.45-242.97
			c37.54-120.54,10.01-253.81-47.48-366.21S791.98,727.25,707.7,633.25C608.11,522.2,502.53,429.15,402.94,318.09"/>
		<g>
			<path d="M395.09,318.83c30.5,42.49,41.16,95.21,37.3,146.8c-4.12,55.14-25.71,107.33-53.78,154.42
				c-59.97,100.61-149.17,180.12-206.74,282.41c-54.49,96.81-83.8,210.16-69.37,321.28c13.75,105.84,64.88,204.33,149.93,270.04
				c85.44,66.01,195.62,98.83,302.88,100.29c108.57,1.47,216.7-31.24,301.7-99.73c78.61-63.35,132.79-153.79,146.21-254.27
				c14.93-111.84-16.89-225.66-69.82-323.69c-54.93-101.73-131.7-189.39-208.41-275.06c-81.51-91.03-170.4-174.69-255.2-262.56
				c-20.88-21.64-41.44-43.58-61.53-65.96c-6.46-7.2-17.04,3.44-10.61,10.61c80.52,89.69,169.03,171.63,252.32,258.66
				c40.52,42.35,79.62,86.14,117.96,130.47c37.22,43.03,73.2,87.23,105.28,134.27c62.74,91.97,110.68,196.86,117.79,309.29
				c3.41,53.98-2.91,108.45-21.51,159.38c-16.49,45.16-42.47,86.82-74.63,122.47c-69.63,77.18-166.4,124.45-269.16,137.29
				c-106.77,13.34-219.77-7.03-313.75-59.98c-45.21-25.47-86.12-59.08-117.61-100.51c-31.62-41.6-53.95-89.75-66.95-140.27
				c-27.27-105.99-11.2-218.47,33.59-317.38c23.72-52.39,55.42-100.12,90.89-145.24c35.91-45.68,74.48-89.29,108.33-136.57
				c61.18-85.44,108.58-191.54,79.09-298.04c-6.53-23.58-16.95-46.07-31.23-65.97C402.46,303.48,389.45,310.96,395.09,318.83
				L395.09,318.83z"/>
		</g>
	</g>
	<ellipse class="st1" cx="457.06" cy="1074.32" rx="27" ry="67"/>
	<ellipse class="st1" cx="643.06" cy="1084.32" rx="27" ry="67"/>
	<g>
		<path class="st0" d="M412.88,1225.29c11.09,57.63,62.98,104.9,121.39,110.59s118.45-30.69,140.45-85.1"/>
		<g>
			<path d="M405.65,1227.28c9.38,47.29,44.31,87.47,88.46,105.97c45.36,19.02,97.77,11.26,137.45-17.27
				c22.43-16.13,39.89-37.64,50.4-63.21c1.55-3.77-1.68-8.21-5.24-9.23c-4.29-1.23-7.69,1.51-9.23,5.24
				c-16.63,40.45-55.53,69.73-98.03,78c-43.01,8.37-86.77-8.45-116.41-39.98c-16.65-17.72-28.21-39.64-32.94-63.51
				C418.24,1213.83,403.78,1217.84,405.65,1227.28L405.65,1227.28z"/>
		</g>
	</g>
	<g>
		<path class="st0" d="M563.4,1145.5c-20.28-8.07-45.83,10.86-44.01,32.61c1.82,21.75,30.15,36.18,48.81,24.86"/>
		<g>
			<path d="M565.4,1138.27c-26.4-9.77-57.36,15.21-53.11,43.04c4.01,26.24,37.08,41.17,59.7,28.14c8.36-4.82,0.82-17.78-7.57-12.95
				c-13.84,7.97-35.28-1.77-37.49-17.99c-2.42-17.81,18.71-31.61,34.48-25.77C570.47,1156.09,574.39,1141.6,565.4,1138.27
				L565.4,1138.27z"/>
		</g>
	</g>
</g>
<g id="Ebene_6">
	<g class="st2">
		<path d="M414.46,343.66c60.24,29.88,85.68,188.92,57.6,250.01C327.15,908.86-133.79,1619.02,892.6,1444.5
			c-89.02,85.93-210.76,138.06-334.48,139.41c-123.72,1.35-247.88-49.05-332.99-138.85s-128.9-218.22-112.76-340.89
			c17.79-135.17,102.06-251.4,188.91-356.49c47.37-57.32,97.1-114.5,126.16-182.95s34.25-151.83-6.38-214.1"/>
		<g>
			<path d="M410.68,350.14c13.56,6.89,23.31,19.08,30.96,31.92c9.9,16.61,16.69,34.89,21.88,53.46
				c10.82,38.72,15.82,80.88,10.65,120.92c-3.16,24.48-14.04,45.46-24.61,67.36c-9.68,20.05-19.58,39.99-29.51,59.92
				c-22.19,44.56-44.48,89.08-65.71,134.11c-22.41,47.55-43.73,95.67-62.47,144.8c-17.84,46.77-33.47,94.58-43.96,143.57
				c-9.41,43.96-15.04,89.47-11.34,134.44c3.33,40.42,14.41,80.49,36.93,114.57c24.32,36.79,59.95,64.15,99.77,82.44
				c54.96,25.25,115.81,35.41,175.77,39.5c88.43,6.03,177.54-1.32,265.19-13.13c26.86-3.62,53.64-7.75,80.35-12.28
				c-2.43-4.18-4.86-8.36-7.3-12.54c-91.58,88.04-217.61,140.28-345.14,137.1c-124.25-3.09-247.16-58.89-327.59-154.3
				c-80.3-95.25-115.38-226.58-89.28-348.73c27.88-130.45,113.33-238.32,196.52-338.66c42.64-51.42,85.68-104.12,112.1-166.09
				c23.99-56.26,33.18-122.5,13.06-181.37c-4.84-14.16-11.33-27.72-19.44-40.3c-5.21-8.09-18.2-0.58-12.95,7.57
				c34.48,53.54,34.31,121.14,15.88,180.36c-20.34,65.36-63.25,121.11-106.11,173.3c-84.2,102.54-172.98,208.14-208.17,339.02
				c-33.17,123.36-6.84,257.42,68.25,360.56c74.88,102.85,194.09,167.38,319.9,181.1c128.02,13.96,258.41-28.36,358.51-108.2
				c12.16-9.7,23.84-19.98,35.05-30.76c5.83-5.61-0.39-13.71-7.3-12.54c-95.2,16.15-191.85,27.83-288.55,26.88
				c-64.77-0.63-130.91-6.69-192.47-28.01c-42.18-14.61-81.4-37.14-110.33-71.38c-5.88-6.96-11.23-14.34-16.55-23.03
				c-5.02-8.21-9.44-16.79-13.26-25.63c-1.02-2.36-3.39-8.43-4.82-12.51c-1.59-4.54-3.03-9.12-4.33-13.75
				c-2.71-9.64-4.81-19.45-6.38-29.35c-1.39-8.77-2.45-19.23-2.99-29.55c-0.56-10.69-0.6-21.41-0.22-32.11
				c0.81-22.64,3.32-43.72,7.13-65.42c8.54-48.61,22.8-96.12,39.48-142.5c17.6-48.94,37.97-96.4,59.74-143.59
				c21.05-45.62,43.35-90.65,65.76-135.61c10.19-20.44,20.4-40.88,30.45-61.39c9.29-18.94,19.22-37.86,27.2-57.4
				c13.87-33.93,12.22-74.84,7.63-110.47c-5.03-38.96-14.99-80.05-36.83-113.28c-8.45-12.85-19.14-24.95-33.04-32.01
				C409.66,332.82,402.06,345.76,410.68,350.14L410.68,350.14z"/>
		</g>
	</g>
	<g class="st3">
		<path d="M421.55,350.8c58.7,79.35,26.57,254.13-23.49,317.19C149.52,981.04-75.92,1777.49,892.6,1444.5
			c-351.13,327.53-948.65,49.92-740.63-473.93c95.15-239.62,321.16-290.91,278.09-617.77"/>
		<g>
			<path d="M415.08,354.59c25.08,34.28,30.94,79.4,30.53,120.79c-0.45,45.65-8.86,91.83-24.96,134.57
				c-6.43,17.07-14.36,33.86-24.95,48.77c-6.95,9.78-14.71,19.01-21.83,28.68c-14.48,19.67-28.12,39.95-41.05,60.66
				c-27.81,44.56-52.38,91.14-73.8,139.09c-22.17,49.62-41.13,100.75-55.57,153.16c-13.75,49.89-23.54,101.13-26.74,152.83
				c-2.87,46.42-0.29,93.81,11.91,138.85c11.26,41.58,31.29,80.81,61.01,112.24c32.33,34.19,74.57,57.13,119.4,70.45
				c59.91,17.8,123.93,19.76,185.87,15.04c89.33-6.81,177.38-27.39,262.97-53.18c25.74-7.76,51.32-16.07,76.75-24.8
				c-2.43-4.18-4.86-8.36-7.3-12.54c-47.97,44.64-103.91,80.89-165.02,104.76c-56.39,22.02-116.58,33.8-177.14,34.14
				c-57.56,0.32-115.03-9.64-168.94-29.9c-51.57-19.37-99.69-48.57-139.85-86.35c-40.35-37.97-72.53-84.56-92.74-136.22
				c-22.53-57.59-30.26-119.74-25.81-181.27c5.27-72.9,26.53-146.21,59.24-211.48c29.57-59.01,70.34-110.62,112.52-160.99
				c39.37-47.02,79.64-94.17,108.1-148.88c32.89-63.2,46.78-133.19,45.15-204.2c-0.51-22.08-2.4-44.1-5.26-65.99
				c-0.53-4.05-3.07-7.45-7.5-7.5c-3.65-0.04-8.02,3.48-7.5,7.5c10.03,76.91,6.97,155.59-22.01,228.29
				c-22.97,57.61-60.86,107.23-100.17,154.56c-41.71,50.23-84.68,99.67-117.99,156.11c-37.99,64.37-63.68,137.33-74.89,211.22
				c-9.76,64.33-7.8,130.56,10.34,193.28c16.16,55.87,44.83,107.61,83.48,151.06c37.43,42.08,83.93,75.98,134.78,100.04
				c53.09,25.12,110.63,39.88,169.16,44.32c60.43,4.59,121.78-2.11,179.9-19.22c63.16-18.6,122.19-49.49,174.16-89.82
				c13.35-10.36,26.22-21.33,38.59-32.85c5.35-4.98-0.18-14.98-7.3-12.54c-91.88,31.55-186.2,58.26-282.59,71.71
				c-65.63,9.16-134.33,12.27-199.18-0.11c-24.73-4.72-50.82-12.35-72.53-22.11c-10.53-4.73-20.77-10.12-30.6-16.19
				c-4.71-2.91-9.33-5.98-13.83-9.21c-4.94-3.54-7.12-5.22-11.88-9.18c-8.13-6.77-15.79-14.1-22.9-21.93
				c-7.61-8.38-12.37-14.45-18.51-23.47c-5.85-8.58-11.12-17.55-15.83-26.81c-5.19-10.21-8.24-17.35-12.03-27.73
				c-15.66-42.96-20.55-85.84-20.07-131.24c0.54-50.7,7.96-98.68,19.81-147.99c12.51-52.03,29.71-102.9,50.25-152.29
				c19.75-47.52,43.78-95.67,70.3-140.77c12.57-21.38,25.86-42.34,39.95-62.76c6.67-9.67,13.53-19.21,20.58-28.61
				c7.7-10.25,16.12-19.93,23.36-31.89c21.75-35.93,33.62-78.43,40.22-119.61c7.21-44.95,8.71-92.41-2.91-136.78
				c-4.96-18.91-12.61-37.45-24.21-53.29C422.39,339.3,409.36,346.78,415.08,354.59L415.08,354.59z"/>
		</g>
	</g>
</g>
<g id="Ebene_4">
	<ellipse class="st4" cx="464.56" cy="1040.5" rx="7.5" ry="11"/>
	<ellipse class="st4" cx="464.56" cy="1040.5" rx="7.5" ry="11"/>
	<ellipse class="st4" cx="464.56" cy="1040.5" rx="7.5" ry="11"/>
	<ellipse class="st4" cx="464.56" cy="1040.5" rx="7.5" ry="11"/>
	<ellipse class="st4" cx="650.56" cy="1045.5" rx="7.5" ry="11"/>
</g>
<g id="Ebene_5">
	<ellipse class="st5" cx="416.07" cy="1179.13" rx="55.99" ry="27.8"/>
	<ellipse class="st5" cx="416.07" cy="1179.13" rx="55.99" ry="27.8"/>
	<ellipse class="st5" cx="706.55" cy="1179.13" rx="55.99" ry="27.8"/>
</g>
<g id="Ebene_7">
	<g class="st2">
		<g>
			<path class="st6" d="M563.3,657.67c31.9,33.96,63.79,67.94,94.54,102.95c15.35,17.48,30.42,35.22,45.03,53.33
				c3.6,4.46,7.18,8.94,10.72,13.45c1.49,1.9,2.97,3.8,4.46,5.7c3.68,4.71-2.35-3.08-0.04-0.05c1.28,1.68,2.57,3.35,3.85,5.03
				c6.93,9.12,13.74,18.33,20.38,27.66c26.7,37.47,50.93,76.76,70.99,118.2c4.9,10.11,9.77,20.33,13.96,30.76
				c-2.58-6.41,0.63,1.58,1.23,3.06c1,2.47,1.99,4.94,2.96,7.43c2.16,5.51,4.24,11.05,6.24,16.62c7.68,21.37,14.17,43.17,19.25,65.3
				c2.82,12.3,5.21,24.7,7.12,37.17c0.18,1.16,0.35,2.32,0.52,3.48c0.17,1.16,0.33,2.32,0.49,3.48c-0.14-1.05-0.28-2.11-0.42-3.16
				c0.8,3.32,0.88,7.06,1.25,10.46c0.66,6.11,1.21,12.23,1.63,18.36c1.75,25.45,1.3,51.01-1.43,76.38
				c-0.64,5.97,3.25,13.61,7.32,17.68c4.34,4.34,11.45,7.6,17.68,7.32c14.75-0.66,23.49-11.02,25-25
				c10.24-95.09-12.53-190.42-51.36-276.85c-39.05-86.92-96.51-164.19-158.39-236.11c-34.73-40.37-71.18-79.21-107.64-118.02
				c-8.97-9.55-26.42-9.74-35.36,0C553.9,632.55,553.72,647.48,563.3,657.67L563.3,657.67z"/>
		</g>
	</g>
	<g class="st2">
		<g>
			<path class="st6" d="M852.28,1352.92c-0.16,2.85-0.32,5.71-0.48,8.56c10.55-8.04,21.1-16.07,31.65-24.11
				c-0.36-0.09-0.71-0.21-1.05-0.36c1.99,0.84,3.98,1.68,5.97,2.52c-0.5-0.26-0.92-0.52-1.38-0.87c1.69,1.3,3.37,2.61,5.06,3.91
				c-0.42-0.38-0.76-0.75-1.12-1.18c1.3,1.69,2.61,3.37,3.91,5.06c-0.43-0.62-0.76-1.24-1.06-1.93c0.84,1.99,1.68,3.98,2.52,5.97
				c-0.25-0.72-0.42-1.42-0.54-2.17c0.3,2.22,0.6,4.43,0.89,6.65c-0.07-0.75-0.06-1.47,0.02-2.23c-0.3,2.22-0.6,4.43-0.89,6.65
				c0.13-0.74,0.32-1.4,0.61-2.09c-0.84,1.99-1.68,3.98-2.52,5.97c0.26-0.5,0.52-0.92,0.86-1.37c-1.3,1.69-2.61,3.37-3.91,5.06
				c0.23-0.28,0.49-0.54,0.78-0.78c-1.69,1.3-3.37,2.61-5.06,3.91c0.15-0.11,0.3-0.23,0.45-0.34c-10.1-1.3-20.2-2.61-30.3-3.91
				c0.35,0.33,0.68,0.69,0.98,1.07c-1.3-1.69-2.61-3.37-3.91-5.06c0.58,0.8,1.04,1.6,1.43,2.5c-0.84-1.99-1.68-3.98-2.52-5.97
				c0.34,0.93,0.56,1.83,0.71,2.81c-0.3-2.22-0.6-4.43-0.89-6.65c0.08,0.98,0.07,1.92-0.04,2.9c0.3-2.22,0.6-4.43,0.89-6.65
				c-0.18,0.97-0.43,1.86-0.81,2.77c0.84-1.99,1.68-3.98,2.52-5.97c-0.2,0.44-0.44,0.86-0.7,1.27c4.98-3.83,9.96-7.66,14.94-11.49
				c-0.19,0.05-0.38,0.09-0.58,0.14c2.22-0.3,4.43-0.6,6.65-0.89c-0.19,0.01-0.38,0.01-0.57,0.02c2.22,0.3,4.43,0.6,6.65,0.89
				c-0.38-0.03-0.75-0.12-1.1-0.28c1.99,0.84,3.98,1.68,5.97,2.52c-0.36-0.16-0.69-0.37-0.99-0.63c1.69,1.3,3.37,2.61,5.06,3.91
				c-0.3-0.26-0.57-0.56-0.8-0.89c1.3,1.69,2.61,3.37,3.91,5.06c-0.23-0.33-0.41-0.68-0.54-1.06c0.84,1.99,1.68,3.98,2.52,5.97
				c-0.05-0.19-0.1-0.38-0.15-0.56c0.3,2.22,0.6,4.43,0.89,6.65c-0.07-0.38-0.07-0.76-0.01-1.14c-0.3,2.22-0.6,4.43-0.89,6.65
				c0.05-0.18,0.1-0.37,0.15-0.55c-0.84,1.99-1.68,3.98-2.52,5.97c0.09-0.18,0.18-0.35,0.27-0.53c3.08-5.95,4.33-12.68,2.52-19.26
				c-1.6-5.8-6.08-12.08-11.49-14.94c-5.8-3.07-12.83-4.6-19.26-2.52c-6.02,1.95-11.94,5.7-14.94,11.49
				c-3.48,6.73-4.89,14.04-2.94,21.48c1.31,4.99,4.01,9.37,7.48,13.12c9.98,10.77,28.54,11.66,39.02,1.17
				c13.18-13.18,10.94-36.05-1.57-48.67c-3.89-3.92-8.96-6.15-14.35-6.88c-5.03-0.68-11.71-0.22-15.94,2.97
				c-4.32,3.25-7.08,5.64-10.19,10.09c-1.61,2.31-2.73,5.2-3.59,7.85c-1.82,5.6-1.59,11.72-0.37,17.39
				c2.44,11.38,11.53,20.47,22.56,23.7c7.66,2.25,15.62,0.29,21.79-4.47c6.43-4.96,9.4-11.57,9.85-19.63
				c0.16-2.85,0.32-5.71,0.48-8.56c0.35-6.18-3.04-13.39-7.32-17.68c-4.34-4.34-11.45-7.6-17.68-7.32
				c-6.47,0.29-13.17,2.41-17.68,7.32C854.97,1340.29,852.67,1346.03,852.28,1352.92L852.28,1352.92z"/>
		</g>
	</g>
</g>
<g id="Ebene_8">
	<g>
		<g id="Ebene_3_1_">
			<g class="st2">
				<g>
					<path d="M737.24,848.21c3.66,0,7.25-8.5,3.23-8.5C736.81,839.71,733.22,848.21,737.24,848.21L737.24,848.21z"/>
				</g>
			</g>
			<g class="st2">
				<path d="M730.88,841.99c4.24,66.45,8.48,132.9,12.72,199.35c63.22-48.06,126.46-96.13,189.68-144.19
					c35.25-26.8,68.53-68.89,114.23-66.53c47.37,2.45,102.36,1.99,147.61,4.33c109.05,5.65,194.23,0.03,302.42-14.59
					c33.11-4.47,83.93-34.31,108.64-56.55c30.09-27.09,33.38-56.69,36.24-96.83c11.08-155.61-16.5-311.81-59.6-461.87
					c-10.69-37.21-24.94-77.54-58.76-97.01c-29.94-17.23-67.24-13.34-101.51-8.3c-271.86,40.03-537.72,119.7-786.32,235.63
					c-27.43,12.8-56.51,27.8-69.99,54.66c-10.64,21.21-12.49,46.51-7.67,69.7c20.52,98.57,31.56,163.71,47.06,267.17
					c4.38,29.21,15.47,75,41.11,90.12c25.09,14.8,53.45,14.62,81.18,11.53c2.31,4.47,4.63,8.94,6.94,13.4"/>
				<g>
					<path d="M727.49,843.85c4.24,66.45,8.48,132.9,12.72,199.35c0.18,2.76,2.45,2.79,4.31,1.38
						c48.42-36.8,96.83-73.61,145.25-110.42c21.45-16.3,43.42-32.08,63.77-49.74c16.77-14.56,33.31-30.2,53.29-40.43
						c9.93-5.08,20.83-8.6,32.07-9.13c12.99-0.62,26.29,0.9,39.29,1.27c27.4,0.79,54.8,1.06,82.2,1.82
						c27.63,0.76,55.21,2.5,82.85,3.09c27.59,0.58,55.2,0.38,82.77-0.67c55.03-2.11,109.83-7.72,164.39-14.97
						c21.49-2.86,41.15-10.52,60.28-20.47c19.12-9.95,37.79-21.73,54.09-35.81c15.99-13.82,27.67-31.03,33.54-51.26
						c6.27-21.64,7.16-44.76,8.42-67.11c3.26-58.22,1.2-116.67-4.96-174.64c-6.06-57.09-16.03-113.74-28.79-169.73
						c-6.43-28.21-13.57-56.26-21.29-84.14c-6.44-23.25-12.71-46.8-23.11-68.69c-9.17-19.3-22.09-37.38-40.8-48.63
						c-21.65-13.02-47.72-14.8-72.41-13c-27.04,1.97-53.97,6.94-80.69,11.35c-28.1,4.64-56.14,9.7-84.08,15.18
						c-111.12,21.81-220.91,50.25-328.59,85.1c-107.33,34.74-212.56,75.83-314.9,123.03c-21.17,9.76-43.06,19.4-60.94,34.59
						c-18.04,15.33-28.96,36.09-32.29,59.34c-3.82,26.68,3.69,52.58,8.91,78.55c4.91,24.43,9.62,48.89,14.05,73.4
						c9.09,50.21,17.02,100.61,24.6,151.06c5.58,37.17,14.1,86.14,53.16,102.77c22.94,9.77,48.18,9.19,72.53,6.53
						c-0.71-0.22-1.41-0.45-2.12-0.67c2.31,4.47,4.63,8.94,6.94,13.4c1.78,3.43,7.51-3.78,5.83-7.02c-2.31-4.47-4.63-8.94-6.94-13.4
						c-0.4-0.77-1.42-0.74-2.12-0.67c-26.07,2.84-53.51,2.93-77.1-9.95c-17.56-9.59-26.58-28.86-32.64-46.92
						c-6.76-20.12-9.7-40.96-12.86-61.83c-3.84-25.36-7.78-50.72-11.93-76.04c-7.83-47.73-16.59-95.3-26.19-142.72
						c-5.33-26.34-12.29-52.15-5.41-78.92c6.12-23.82,22.3-40.44,43.07-52.95c21.23-12.78,44.56-22.4,67.15-32.54
						c25.03-11.24,50.22-22.11,75.57-32.62c51.65-21.41,103.95-41.27,156.81-59.57c103.76-35.94,209.64-65.89,316.93-89.64
						c54.3-12.02,108.96-22.44,163.88-31.25c26.09-4.18,52.58-9.3,79.08-9.7c24.47-0.37,48.95,4.5,68.15,20.32
						c17.01,14.01,27.7,34.25,35.45,54.38c9.02,23.42,15.19,47.99,21.64,72.19c14.64,54.92,26.95,110.47,35.85,166.59
						c8.88,55.97,14.32,112.51,15.2,169.17c0.44,28.47-0.27,56.96-2.25,85.36c-1.48,21.12-2.82,43.15-11.53,62.79
						c-8.39,18.93-24.02,32.65-40.66,44.48c-18.22,12.96-38.12,24.31-58.95,32.65c-22.08,8.84-45.51,10.66-68.96,13.47
						c-27.34,3.27-54.74,6.04-82.2,8.02c-53.6,3.87-107.36,4.54-161.06,2.35c-53.04-2.16-106.15-2.47-159.17-4.85
						c-11.06-0.5-21.57-0.55-32.31,2.55c-9.52,2.75-18.51,7.13-26.88,12.36c-18.62,11.61-34.51,26.85-51.12,40.99
						c-20.84,17.75-43.37,33.69-65.17,50.26c-23.35,17.75-46.71,35.51-70.06,53.26c-22.78,17.32-45.57,34.64-68.35,51.96
						c1.44,0.46,2.88,0.92,4.31,1.38c-4.24-66.45-8.48-132.9-12.72-199.35C733.92,834.64,727.26,840.28,727.49,843.85L727.49,843.85
						z"/>
				</g>
			</g>
			<g class="st2">
				<g>
					<path d="M1582.79,1003.97c3.66,0,7.25-8.5,3.23-8.5C1582.37,995.47,1578.78,1003.97,1582.79,1003.97L1582.79,1003.97z"/>
				</g>
			</g>
		</g>
		<g id="Ebene_3_Kopie">
			<g>
				<g>
					<path class="st7" d="M759.18,819.71c3.66,0,7.25-8.5,3.23-8.5C758.76,811.21,755.17,819.71,759.18,819.71L759.18,819.71z"/>
				</g>
			</g>
			<g>
				<path class="st8" d="M752.83,813.49c4.24,66.45,8.48,132.9,12.72,199.35c63.22-48.06,126.46-96.13,189.68-144.19
					c35.25-26.8,68.53-68.89,114.23-66.53c47.37,2.45,102.36,1.99,147.61,4.33c109.05,5.65,194.23,0.03,302.42-14.59
					c33.11-4.47,83.93-34.31,108.64-56.55c30.09-27.09,33.38-56.69,36.24-96.83c11.08-155.61-16.5-311.81-59.6-461.87
					c-10.69-37.21-24.94-77.54-58.76-97.01c-29.94-17.23-67.24-13.34-101.51-8.3C1172.66,111.33,906.79,191,658.2,306.94
					c-27.43,12.79-56.51,27.79-69.99,54.65c-10.64,21.21-12.49,46.51-7.67,69.7c20.52,98.57,31.56,163.71,47.06,267.17
					c4.38,29.21,19.94,69.3,41.11,90.12c21.17,20.82,57.51,29.54,81.18,11.53c2.31,4.47,4.63,8.94,6.94,13.4"/>
				<g>
					<path class="st7" d="M749.44,815.35c4.24,66.45,8.48,132.9,12.72,199.35c0.18,2.76,2.45,2.79,4.31,1.38
						c48.42-36.8,96.83-73.61,145.25-110.42c21.88-16.63,44.25-32.75,64.97-50.79c16.72-14.55,33.34-30.12,53.44-40.06
						c9.79-4.84,20.5-8.07,31.48-8.49c12.76-0.49,25.76,0.94,38.52,1.31c28.03,0.81,56.07,1.07,84.1,1.87
						c27.67,0.79,55.29,2.53,82.96,3.08c27.87,0.55,55.77,0.3,83.62-0.82c55.13-2.22,110.04-7.96,164.7-15.28
						c21.29-2.86,41.27-11.56,60.05-21.6c18.57-9.94,36.81-21.54,52.58-35.5c16.05-14.22,27.23-31.92,32.82-52.5
						c6.02-22.19,6.76-45.93,7.94-68.75c3.01-58.23,0.73-116.68-5.62-174.63c-6.32-57.76-16.61-115.06-29.74-171.68
						c-6.53-28.18-13.76-56.2-21.56-84.07c-6.31-22.53-12.64-45.26-23.19-66.29c-9.77-19.48-23.82-37.35-43.61-47.61
						c-22.19-11.5-47.97-12.25-72.39-10.09c-27.84,2.46-55.57,7.52-83.11,12.13c-27.76,4.65-55.45,9.72-83.06,15.2
						c-111.74,22.17-222.12,51.05-330.32,86.42c-107.54,35.14-212.97,76.68-315.46,124.34c-20.79,9.67-42.16,19.92-58.61,36.18
						c-16.89,16.7-25.59,38.92-27.31,62.29c-0.97,13.13,0.71,25.89,3.37,38.73c2.81,13.54,5.57,27.09,8.26,40.66
						c4.81,24.18,9.4,48.4,13.74,72.67c4.33,24.25,8.41,48.55,12.3,72.87c4.27,26.69,7.64,53.59,12.41,80.19
						c3.89,21.73,11.74,43.24,22.73,62.44c10.85,18.95,25.9,35,47.17,42.24c18.95,6.45,39.49,5.3,55.88-6.74
						c-1.28,0.09-2.56,0.19-3.84,0.27c2.31,4.47,4.63,8.94,6.94,13.4c1.78,3.43,7.51-3.78,5.83-7.02c-2.31-4.47-4.63-8.94-6.94-13.4
						c-0.8-1.54-2.95-0.38-3.84,0.27c-17.92,13.18-42.76,10-61.31-0.11c-19.67-10.71-32.17-30.06-41.17-49.84
						c-9.63-21.14-14.33-42.88-17.78-65.68c-3.86-25.55-7.81-51.09-11.98-76.59c-7.83-47.96-16.58-95.76-26.19-143.4
						c-5.23-25.95-12.54-51.65-6.81-78.17c5.23-24.24,20.32-41.74,41.11-54.79c21.05-13.22,44.56-22.82,67.19-33.02
						c25.32-11.4,50.81-22.43,76.46-33.09c51.01-21.19,102.67-40.86,154.86-59.03c104.34-36.31,210.84-66.56,318.76-90.52
						c54.29-12.05,108.94-22.52,163.86-31.36c26.14-4.21,52.68-9.35,79.21-9.98c24.52-0.59,49.24,3.78,68.8,19.32
						c17.25,13.7,28.19,33.79,36.07,53.86c9.24,23.54,15.45,48.31,21.96,72.69c14.57,54.58,26.85,109.79,35.79,165.55
						c9.03,56.29,14.56,113.18,15.51,170.18c0.47,28.47-0.21,56.96-2.16,85.36c-1.45,21-2.71,42.88-11.04,62.52
						c-8.09,19.09-23.41,32.95-40,44.9c-18.25,13.16-38.26,24.6-59.16,33.11c-22.4,9.12-46.12,11.03-69.98,13.88
						c-27.02,3.23-54.1,5.97-81.25,7.95c-53.57,3.9-107.3,4.61-160.97,2.46c-26.76-1.07-53.48-2.27-80.27-2.8
						c-26.65-0.53-53.32-0.89-79.95-2.09c-10.79-0.48-21.09-0.56-31.58,2.35c-9.79,2.71-19.02,7.21-27.6,12.56
						c-18.62,11.6-34.51,26.85-51.12,40.99c-20.84,17.75-43.37,33.69-65.17,50.26c-23.35,17.75-46.71,35.51-70.06,53.26
						c-22.78,17.32-45.57,34.64-68.35,51.96c1.44,0.46,2.88,0.92,4.31,1.38c-4.24-66.45-8.48-132.9-12.72-199.35
						C755.86,806.14,749.21,811.78,749.44,815.35L749.44,815.35z"/>
				</g>
			</g>
			<g>
				<g>
					<path class="st7" d="M1604.74,975.47c3.66,0,7.25-8.5,3.23-8.5C1604.31,966.97,1600.72,975.47,1604.74,975.47L1604.74,975.47z"
						/>
				</g>
			</g>
		</g>
		<g id="Ebene_2_1_">
			<g>
				<g>
					<path d="M751.09,802.71c-18.42,2.14-37.63,3.31-55.82-1.12c-8.77-2.14-17.28-5.84-24.31-11.51
						c-7.92-6.39-13.81-15.41-18.6-24.24c-10.34-19.04-15.38-40.44-19.73-61.46c-5.11-24.64-9.94-49.34-14.9-74.01
						c-10.17-50.57-20.33-101.14-30.5-151.71c-8.39-41.73-20.05-91.88,9.04-128.58c12.53-15.81,29.92-27,47.73-36.22
						c19.79-10.24,40.58-18.68,61.14-27.26c45.53-19.01,91.71-36.51,138.3-52.8c92.6-32.37,186.88-59.88,281.79-84.79
						c94.77-24.87,190.21-47.16,285.71-69.13c23.06-5.31,46.21-11.71,69.72-14.72c22.25-2.85,45.32-1.17,64.42,11.48
						c33.94,22.47,46.71,66.96,58.86,103.19c30.94,92.25,50.61,188.2,58.43,285.08c3.75,46.55,5.43,93.67,2.9,140.33
						c-2.13,39.18-8.39,80.25-29.4,114.29c-21.97,35.6-59.06,55.15-99.09,64.71c-44.03,10.5-90.35,11.9-135.39,14.25
						c-96.25,5.01-192.61,4.17-288.93,2.08c-24.56-0.53-49.11-1.13-73.67-1.71c-3.66-0.09-7.3,8.41-3.23,8.5
						c100.48,2.37,201.01,5.07,301.5,2.11c49.28-1.45,98.83-3.48,147.87-8.68c41.2-4.36,83.75-12.95,117.93-37.46
						c71.17-51.05,71.46-150.14,69.99-228.37c-1.88-99.8-16.25-199.41-42.6-295.76c-6.68-24.42-14.13-48.64-22.35-72.6
						c-6.82-19.88-13.77-39.93-23.91-58.44c-9-16.43-21-31.9-37.43-41.62c-19.14-11.33-41.67-12.52-63.31-9.86
						c-24.18,2.97-47.98,9.62-71.67,15.07c-24.95,5.74-49.89,11.51-74.82,17.33c-49.55,11.58-99.04,23.41-148.39,35.79
						c-98.21,24.66-195.9,51.56-292.06,83.2c-48.15,15.84-95.91,32.87-143.09,51.37c-23.1,9.06-46.06,18.46-68.86,28.25
						c-19.76,8.48-39.74,16.93-57.92,28.46c-16.82,10.67-32.13,24.14-42.03,41.53c-10.85,19.06-14.11,41.04-13.26,62.66
						c0.91,22.98,5.92,45.6,10.44,68.08c5.23,25.99,10.45,51.97,15.68,77.96c10.26,51.03,19.59,102.34,30.94,153.13
						c4.66,20.87,10.77,41.89,22.36,60.13c10.57,16.63,24.94,27.06,44.46,31.1c17.89,3.71,36.5,2.4,54.52,0.32
						C752.99,810.67,755.95,802.15,751.09,802.71L751.09,802.71z"/>
				</g>
			</g>
			<g>
				<g>
					<path d="M746.44,762.35c1.69,33.22,3.07,66.45,4.43,99.68c1.46,35.55,2.86,71.1,4.41,106.64c0.78,17.92,1.59,35.83,2.5,53.74
						c0.09,1.8,1.67,3.17,3.45,1.97c43.5-29.32,86.11-59.94,127.67-91.89c42.82-32.92,84.59-67.25,124.51-103.58
						c21.31-19.4,42.06-39.41,62.02-60.19c1.24-1.3,2.44-4.31,1.18-5.92c-1.38-1.78-3.59-0.01-4.64,1.1
						c-35.68,37.17-74.05,71.79-113.57,104.93c-41.12,34.48-83.65,67.32-127.14,98.85c-23.1,16.74-46.49,33.1-70.15,49.05
						c1.15,0.66,2.3,1.31,3.45,1.97c-1.69-33.22-3.07-66.45-4.43-99.68c-1.46-35.55-2.86-71.1-4.41-106.64
						c-0.78-17.92-1.59-35.83-2.5-53.74c-0.1-2.02-1.65-2.86-3.45-1.97C747.87,757.58,746.33,760.27,746.44,762.35L746.44,762.35z"
						/>
				</g>
			</g>
			<g>
				<g>
					<path d="M1694,643.78c-2.24,38.76-16.84,76.64-41.01,107.21c-24.88,31.46-59.66,54.22-98.36,65.45
						c-22.09,6.41-45.14,9.04-68.11,7.62c-3.65-0.22-7.35,8.25-3.23,8.5c42.6,2.63,85.77-8.45,121.87-30.95
						c35.71-22.26,63.43-55.43,79.78-93.83c9.15-21.5,14.5-44.45,15.85-67.73c0.12-2.08-1.8-2.78-3.45-1.97
						C1695.27,639.1,1694.12,641.63,1694,643.78L1694,643.78z"/>
				</g>
			</g>
		</g>
		<g id="Ebene_5_1_">
			<ellipse class="st9" cx="866.72" cy="630.38" rx="45.04" ry="46.48"/>
			<ellipse class="st9" cx="1073.69" cy="630.38" rx="45.04" ry="46.48"/>
			<ellipse class="st9" cx="1267.99" cy="630.38" rx="45.04" ry="46.48"/>
		</g>
	</g>
</g>
<g id="Ebene_3">
</g>
</svg>
