<?xml version="1.0" encoding="utf-8"?>
<!-- Generator: Adobe Adobe Illustrator 24.2.0, SVG Export Plug-In . SVG Version: 6.00 Build 0)  -->
<svg version="1.1" xmlns="http://www.w3.org/2000/svg" xmlns:xlink="http://www.w3.org/1999/xlink" x="0px" y="0px"
	 viewBox="0 0 2000 2000" style="enable-background:new 0 0 2000 2000;" xml:space="preserve">
<style type="text/css">
	.st0{fill:#D2E0EC;}
	.st1{fill:#6CB571;}
	.st2{fill:#885E5B;}
	.st3{fill:#F0C1A1;}
	.st4{fill:#FFFFFF;stroke:#FFFFFF;stroke-width:0.814;stroke-miterlimit:10;}
	.st5{opacity:0.4;}
	.st6{fill:#CA354F;}
	.st7{display:none;}
	.st8{fill:#6BB571;}
	.st9{fill:#C9344E;}
	.st10{fill:#F3C058;}
	.st11{opacity:0.1098;}
	.st12{fill:#ADBECF;}
	.st13{fill:#F3C057;}
	.st14{fill:#F7D98D;}
	.st15{fill:#AEBFCE;}
	.st16{opacity:0.2706;}
	.st17{fill:#3D4C5B;}
</style>
<g id="Ebene_24_Kopie">
	<g>
		<path class="st0" d="M1067.76,1857.7c-15.19-89.6-84.52-164.28-167.19-206.84c-82.67-42.56-177.57-57.02-270.95-62.99
			c-95.61-6.1-195.27-3.2-281.61,37.1c-104.89,48.95-175.8,145.74-242.07,238.58c319.15,52.62,647.74,50.89,966.28-5.1"/>
		<g>
			<path d="M1072.05,1854.01c-12.14-70.17-56.64-130.23-112.25-172.94c-63.85-49.04-142.51-74.18-221.1-87.2
				c-41.53-6.88-83.57-10.61-125.59-12.72c-41.64-2.09-83.45-2.1-124.96,2.13c-41.14,4.19-82.02,12.77-120.51,28.11
				c-35.3,14.07-67.93,33.72-97.65,57.34c-59.3,47.12-105.99,107.87-150.04,168.9c-5.45,7.56-10.88,15.14-16.29,22.72
				c-1.44,2.02-4.23,8.15,0.15,8.87c125.18,20.6,251.69,32.91,378.5,36.83c125.9,3.9,252.03-0.46,377.37-12.96
				c70.83-7.06,141.38-16.78,211.49-29.08c4.55-0.8,8.37-12.22,2.1-11.12c-124.59,21.86-250.59,35.48-376.98,40.73
				c-126.13,5.24-252.61,2.23-378.35-9.06c-70.25-6.31-140.27-15.22-209.87-26.67c0.05,2.96,0.1,5.91,0.15,8.87
				c43.06-60.32,86.96-121.27,142.4-171c27.29-24.48,57.31-45.92,90.22-62.21c36.24-17.94,75.51-29.03,115.37-35.31
				c41.01-6.46,82.67-7.9,124.12-6.87c41.4,1.03,82.88,4.04,123.95,9.36c78.98,10.24,158.84,30.74,226.23,74.67
				c58.17,37.92,107.89,93.69,127.36,161.41c2.32,8.08,4.17,16.29,5.6,24.57c0.51,2.94,3.96,1.86,5.5,0.62
				C1071.28,1860.14,1072.55,1856.91,1072.05,1854.01L1072.05,1854.01z"/>
		</g>
	</g>
	<g>
		<g>
			<path d="M552.15,1734.82c19.44-20.12,35.53-43.25,54.98-63.38c-2.18,0.52-4.36,1.04-6.55,1.56
				c15.97,18.16,31.93,36.32,47.9,54.48c3.97,4.51,11.58-6.17,8.22-10c-15.97-18.16-31.93-36.32-47.9-54.48
				c-2.1-2.38-4.9-0.14-6.55,1.56c-19.44,20.12-35.53,43.25-54.98,63.38c-1.72,1.78-3.48,6.22-1.67,8.44
				C547.63,1738.87,550.59,1736.44,552.15,1734.82L552.15,1734.82z"/>
		</g>
	</g>
	<g>
		<g>
			<path d="M652.69,1727.95c48.65-21.31,93.48-58.29,121.8-103.39c1-1.6,2.61-6.69-0.13-7.72c-18.93-7.14-37.86-14.28-56.78-21.42
				c-5.21-1.97-11.44,9.65-6.62,11.47c18.93,7.14,37.86,14.28,56.78,21.42c-0.04-2.57-0.09-5.15-0.13-7.72
				c-26.6,42.37-69.52,76.48-115.1,96.44C647.82,1719.08,645.47,1731.11,652.69,1727.95L652.69,1727.95z"/>
		</g>
	</g>
	<g>
		<g>
			<path d="M498.17,1587.38c-18.31,6.61-36.63,13.23-54.94,19.84c-3.44,1.24-7.06,6.05-5.72,9.9
				c18.07,51.86,56.48,95.57,105.7,119.99c4.92,2.44,11.41-9.09,6.62-11.47c-47.83-23.73-85.53-65.94-103.13-116.42
				c-1.91,3.3-3.81,6.6-5.72,9.9c18.31-6.61,36.63-13.23,54.94-19.84c2.98-1.08,5.23-4.01,5.76-7.13
				C502.05,1590.06,501.21,1586.28,498.17,1587.38L498.17,1587.38z"/>
		</g>
	</g>
	<g>
		<g>
			<path d="M596.38,1676.73c2.15,72.9,3.82,146.15-2.16,218.92c-0.25,2.98,2.58,3.93,4.87,2.81c2.96-1.45,4.43-5.05,4.68-8.11
				c5.98-72.77,4.31-146.02,2.16-218.92c-0.09-2.9-2.36-4.04-4.87-2.81C598.35,1669.94,596.29,1673.75,596.38,1676.73
				L596.38,1676.73z"/>
		</g>
	</g>
	<g>
		<g>
			<path d="M466.26,1670.65c3.37,73.9-1.86,149.07-18.56,221.23c-0.58,2.52,0.62,5.29,3.52,4.78c3.08-0.54,5.14-4.44,5.76-7.13
				c16.91-73.05,22.23-149.36,18.83-224.18c-0.13-2.89-2.33-4.05-4.87-2.81C468.27,1663.85,466.13,1667.69,466.26,1670.65
				L466.26,1670.65z"/>
		</g>
	</g>
	<g>
		<g>
			<path d="M389.35,1619.95c12.39,70.8,13.89,143.92,5.43,215.26c-2.35,19.78-5.52,39.46-9.54,58.97c-0.52,2.52,0.58,5.29,3.52,4.78
				c3.03-0.53,5.21-4.44,5.76-7.13c14.82-71.81,18.47-146.24,11.98-219.24c-1.8-20.28-4.45-40.48-7.96-60.53
				c-0.55-3.14-4.24-2-5.9-0.66C390.18,1613.38,388.81,1616.84,389.35,1619.95L389.35,1619.95z"/>
		</g>
	</g>
	<g>
		<g>
			<path d="M730.34,1675.26c-8.73,73.45-8.49,149.42,8.6,221.69c0.73,3.07,4.13,2.09,5.9,0.66c2.34-1.9,4.01-5.54,3.3-8.56
				c-16.65-70.38-17.01-144.6-8.51-216.15C740.65,1664.29,731.02,1669.54,730.34,1675.26L730.34,1675.26z"/>
		</g>
	</g>
	<g>
		<g>
			<path d="M801.64,1623.99c-10.91,68.16-7.74,138.34,9.47,205.2c4.95,19.22,11.08,38.1,18.29,56.59c2.48,6.36,11-3.25,9.19-7.9
				c-24.6-63.09-36.07-130.9-33.44-198.57c0.75-19.33,2.71-38.58,5.77-57.68c0.4-2.51-0.5-5.31-3.52-4.78
				C804.47,1617.37,802.07,1621.3,801.64,1623.99L801.64,1623.99z"/>
		</g>
	</g>
</g>
<g id="Ebene_35">
	<g>
		<path class="st1" d="M399.64,1614.86c14.75,89.93,14.12,182.33-1.85,272.05c17.29,0.93,34.58,1.87,51.88,2.8
			c0.19-47.34,12.25-93.81,16.4-140.97s-0.85-98.08-30.21-135.33c11.39-9.37,24.96-16.11,39.35-19.51
			c-24.64,5.95-49.28,11.91-73.93,17.86"/>
		<g>
			<path class="st1" d="M395.04,1618.81c11.27,69.21,13.51,140,6.42,209.77c-2.03,19.93-4.82,39.78-8.31,59.51
				c-0.31,1.75-0.01,4.75,2.36,4.88c17.29,0.93,34.58,1.87,51.88,2.8c4.12,0.22,7.03-5.19,7.05-8.71
				c0.56-76.02,31.08-151.9,10.48-227.61c-5.01-18.42-13.22-35.95-24.96-51.05c-0.94,3.2-1.87,6.41-2.81,9.61
				c10.87-8.78,23.37-14.83,36.92-18.17c4.77-1.18,8.79-13.49,2.24-11.91c-24.64,5.95-49.28,11.91-73.93,17.86
				c-4.8,1.16-8.78,13.49-2.24,11.91c24.64-5.95,49.28-11.91,73.93-17.86c0.75-3.97,1.5-7.94,2.24-11.91
				c-15.37,3.78-29.47,10.92-41.77,20.86c-2.19,1.77-4.96,6.85-2.81,9.61c46.03,59.2,29.36,138.76,19.28,206.68
				c-3.31,22.29-5.97,44.72-6.13,67.27c2.35-2.9,4.7-5.81,7.05-8.71c-17.29-0.93-34.58-1.87-51.88-2.8
				c0.79,1.63,1.58,3.25,2.36,4.88c12.52-70.81,15.78-143.23,9.39-214.87c-1.79-20.07-4.35-40.06-7.59-59.95
				c-0.51-3.16-4.26-1.98-5.9-0.66C395.85,1612.27,394.53,1615.69,395.04,1618.81L395.04,1618.81z"/>
		</g>
	</g>
	<g>
		<path class="st1" d="M740.06,1670.89c-3.16,62.84-2.47,125.87,2.06,188.63c0.49,6.8,1.16,13.97,5.14,19.51
			c8.33,11.62,25.38,5.52,39.71,6.07c20.76,0.79,28.99-9.92,41.7-3.31c-26.27-85.04-52.63-176.3-26.6-261.41
			c-16.16-5.22-32.32-10.44-48.48-15.66c8.54,4.06,17.08,8.12,25.63,12.18c-13.21,17.77-26.43,35.55-39.64,53.32"/>
		<g>
			<path class="st1" d="M735.29,1673.55c-2.29,45.98-2.57,92.05-0.76,138.05c0.46,11.58,1.04,23.16,1.76,34.73
				c0.6,9.68,0.29,20.29,3.08,29.66c2.31,7.77,7.39,13.61,15.4,15.5c7.93,1.87,16.26,0.14,24.26-0.25
				c9.08-0.44,17.49-0.31,26.35-2.77c6.85-1.9,13.18-4.24,19.98-0.93c4.58,2.23,9.04-6.03,7.91-9.68
				c-19.97-64.7-40.36-131.86-36.72-200.36c1.02-19.19,4.17-38.31,9.72-56.71c0.42-1.4,1.35-5.4-0.89-6.13
				c-16.16-5.22-32.32-10.44-48.48-15.66c-5-1.62-11.62,9.09-6.62,11.47c8.54,4.06,17.09,8.12,25.63,12.18
				c0.29-3.06,0.58-6.12,0.87-9.18c-13.21,17.77-26.43,35.55-39.64,53.32c-1.5,2.02-3.62,6.04-1.67,8.44
				c1.89,2.32,5.17,0.28,6.55-1.56c13.21-17.77,26.43-35.55,39.64-53.32c1.31-1.76,4.28-7.56,0.87-9.18
				c-8.54-4.06-17.09-8.12-25.63-12.18c-2.21,3.82-4.41,7.65-6.62,11.47c16.16,5.22,32.32,10.44,48.48,15.66
				c-0.3-2.04-0.59-4.08-0.89-6.13c-20.56,68.2-9.33,139.57,8.89,206.95c5.34,19.73,11.28,39.28,17.31,58.8
				c2.64-3.23,5.27-6.46,7.91-9.68c-12.34-6.02-24.31,1.96-36.86,2.89c-8.32,0.62-16.85,0.8-25.2,1.14
				c-7.39,0.31-15.27-0.37-19.42-7.37c-4.92-8.32-3.96-20.42-4.55-29.73c-0.69-10.91-1.26-21.82-1.72-32.74
				c-0.93-22.17-1.38-44.36-1.35-66.54c0.03-25.17,0.7-50.33,1.95-75.47c0.15-2.96-2.52-3.96-4.87-2.81
				C737.08,1666.85,735.44,1670.5,735.29,1673.55L735.29,1673.55z"/>
		</g>
	</g>
</g>
<g id="Ebene_24_Kopie_2">
	<g>
		<g>
			<path d="M1072.05,1854.01c-12.14-70.17-56.64-130.23-112.25-172.94c-63.85-49.04-142.51-74.18-221.1-87.2
				c-41.53-6.88-83.57-10.61-125.59-12.72c-41.64-2.09-83.45-2.1-124.96,2.13c-41.14,4.19-82.02,12.77-120.51,28.11
				c-35.3,14.07-67.93,33.72-97.65,57.34c-59.3,47.12-105.99,107.87-150.04,168.9c-5.45,7.56-10.88,15.14-16.29,22.72
				c-1.44,2.02-4.23,8.15,0.15,8.87c125.18,20.6,251.69,32.91,378.5,36.83c125.9,3.9,252.03-0.46,377.37-12.96
				c70.83-7.06,141.38-16.78,211.49-29.08c4.55-0.8,8.37-12.22,2.1-11.12c-124.59,21.86-250.59,35.48-376.98,40.73
				c-126.13,5.24-252.61,2.23-378.35-9.06c-70.25-6.31-140.27-15.22-209.87-26.67c0.05,2.96,0.1,5.91,0.15,8.87
				c43.06-60.32,86.96-121.27,142.4-171c27.29-24.48,57.31-45.92,90.22-62.21c36.24-17.94,75.51-29.03,115.37-35.31
				c41.01-6.46,82.67-7.9,124.12-6.87c41.4,1.03,82.88,4.04,123.95,9.36c78.98,10.24,158.84,30.74,226.23,74.67
				c58.17,37.92,107.89,93.69,127.36,161.41c2.32,8.08,4.17,16.29,5.6,24.57c0.51,2.94,3.96,1.86,5.5,0.62
				C1071.28,1860.14,1072.55,1856.91,1072.05,1854.01L1072.05,1854.01z"/>
		</g>
	</g>
	<g>
		<g>
			<path d="M552.15,1734.82c19.44-20.12,35.53-43.25,54.98-63.38c-2.18,0.52-4.36,1.04-6.55,1.56
				c15.97,18.16,31.93,36.32,47.9,54.48c3.97,4.51,11.58-6.17,8.22-10c-15.97-18.16-31.93-36.32-47.9-54.48
				c-2.1-2.38-4.9-0.14-6.55,1.56c-19.44,20.12-35.53,43.25-54.98,63.38c-1.72,1.78-3.48,6.22-1.67,8.44
				C547.63,1738.87,550.59,1736.44,552.15,1734.82L552.15,1734.82z"/>
		</g>
	</g>
	<g>
		<g>
			<path d="M652.69,1727.95c48.65-21.31,93.48-58.29,121.8-103.39c1-1.6,2.61-6.69-0.13-7.72c-18.93-7.14-37.86-14.28-56.78-21.42
				c-5.21-1.97-11.44,9.65-6.62,11.47c18.93,7.14,37.86,14.28,56.78,21.42c-0.04-2.57-0.09-5.15-0.13-7.72
				c-26.6,42.37-69.52,76.48-115.1,96.44C647.82,1719.08,645.47,1731.11,652.69,1727.95L652.69,1727.95z"/>
		</g>
	</g>
	<g>
		<g>
			<path d="M498.17,1587.38c-18.31,6.61-36.63,13.23-54.94,19.84c-3.44,1.24-7.06,6.05-5.72,9.9
				c18.07,51.86,56.48,95.57,105.7,119.99c4.92,2.44,11.41-9.09,6.62-11.47c-47.83-23.73-85.53-65.94-103.13-116.42
				c-1.91,3.3-3.81,6.6-5.72,9.9c18.31-6.61,36.63-13.23,54.94-19.84c2.98-1.08,5.23-4.01,5.76-7.13
				C502.05,1590.06,501.21,1586.28,498.17,1587.38L498.17,1587.38z"/>
		</g>
	</g>
	<g>
		<g>
			<path d="M596.38,1676.73c2.15,72.9,3.82,146.15-2.16,218.92c-0.25,2.98,2.58,3.93,4.87,2.81c2.96-1.45,4.43-5.05,4.68-8.11
				c5.98-72.77,4.31-146.02,2.16-218.92c-0.09-2.9-2.36-4.04-4.87-2.81C598.35,1669.94,596.29,1673.75,596.38,1676.73
				L596.38,1676.73z"/>
		</g>
	</g>
	<g>
		<g>
			<path d="M466.26,1670.65c3.37,73.9-1.86,149.07-18.56,221.23c-0.58,2.52,0.62,5.29,3.52,4.78c3.08-0.54,5.14-4.44,5.76-7.13
				c16.91-73.05,22.23-149.36,18.83-224.18c-0.13-2.89-2.33-4.05-4.87-2.81C468.27,1663.85,466.13,1667.69,466.26,1670.65
				L466.26,1670.65z"/>
		</g>
	</g>
	<g>
		<g>
			<path d="M389.35,1619.95c12.39,70.8,13.89,143.92,5.43,215.26c-2.35,19.78-5.52,39.46-9.54,58.97c-0.52,2.52,0.58,5.29,3.52,4.78
				c3.03-0.53,5.21-4.44,5.76-7.13c14.82-71.81,18.47-146.24,11.98-219.24c-1.8-20.28-4.45-40.48-7.96-60.53
				c-0.55-3.14-4.24-2-5.9-0.66C390.18,1613.38,388.81,1616.84,389.35,1619.95L389.35,1619.95z"/>
		</g>
	</g>
	<g>
		<g>
			<path d="M730.34,1675.26c-8.73,73.45-8.49,149.42,8.6,221.69c0.73,3.07,4.13,2.09,5.9,0.66c2.34-1.9,4.01-5.54,3.3-8.56
				c-16.65-70.38-17.01-144.6-8.51-216.15C740.65,1664.29,731.02,1669.54,730.34,1675.26L730.34,1675.26z"/>
		</g>
	</g>
	<g>
		<g>
			<path d="M801.64,1623.99c-10.91,68.16-7.74,138.34,9.47,205.2c4.95,19.22,11.08,38.1,18.29,56.59c2.48,6.36,11-3.25,9.19-7.9
				c-24.6-63.09-36.07-130.9-33.44-198.57c0.75-19.33,2.71-38.58,5.77-57.68c0.4-2.51-0.5-5.31-3.52-4.78
				C804.47,1617.37,802.07,1621.3,801.64,1623.99L801.64,1623.99z"/>
		</g>
	</g>
</g>
<g id="Ebene_4">
	<g>
		<path class="st2" d="M982.11,1060.9c0,31.16-19.9,63.15-56.81,65.71c-236.73,16.42-379.79,56.24-624.22,8.51
			c-33.71-6.58-51.41-44.35-50.92-73.47c0.83-49.71-3.38-46.51,0-76.66c12.3-109.89,7.4-165.69,54.35-265.66
			c45.01-95.86,159.68-176.81,282.19-176.81c204.53,0,395.41,130.97,395.41,417.98"/>
		<g>
			<path d="M978.07,1063.14c-0.13,15.38-5.16,30.92-15.85,42.24c-5.65,5.98-12.83,10.56-20.63,13.17
				c-9.48,3.18-19.53,3.25-29.41,3.99c-43.18,3.22-86.28,7.44-129.35,11.92c-77.22,8.04-154.49,16.8-232.2,18.04
				c-40.53,0.65-81.07-0.74-121.44-4.37c-21.91-1.97-43.76-4.58-65.52-7.78c-11.23-1.65-22.43-3.45-33.6-5.4
				c-11.11-1.94-23.19-3.04-33.84-6.85c-15.27-5.46-26.67-18.01-33.67-32.32c-3.39-6.93-5.75-14.43-7.14-22.01
				c-1.64-8.94-1.07-17.97-1.07-27c0-12.59-0.77-25.1-1.3-37.67c-0.53-12.67,1.12-25.14,2.44-37.72
				c3.9-37.26,6.14-74.72,11.09-111.87c4.65-34.94,12.76-69.06,25.35-102.02c13.34-34.94,30.05-67.62,54.33-96.25
				c23.85-28.12,52.8-51.9,84.64-70.43c32.95-19.18,69.13-32.77,106.75-39.17c32.47-5.52,65.72-4.83,98.37-1.23
				c55.46,6.13,109.83,22.66,158.19,50.73c49.41,28.68,91.16,69.1,121.36,117.6c35.12,56.4,53.7,121.7,59.93,187.53
				c1.78,18.76,2.57,37.59,2.6,56.44c0,2.48,2.05,3.4,4.13,2.38c2.35-1.15,3.97-4.33,3.97-6.88
				c-0.09-72.06-12.14-144.71-43.1-210.21c-25.59-54.14-64.19-101.51-112.7-136.72c-46.48-33.73-100.87-55.59-157.17-66.19
				c-28.84-5.43-58.33-8.07-87.69-7.74c-39.56,0.45-78.6,9.24-115.06,24.43c-68.36,28.5-129.85,80.53-164.3,146.64
				c-18.02,34.58-31.55,72.14-39.99,110.19c-7.74,34.88-10.8,70.52-13.95,106.04c-1.87,21.04-3.93,42.04-6.15,63.05
				c-1.12,10.58-1.42,20.98-0.81,31.6c0.91,15.64,0.64,31.21,0.89,46.86c0.24,15.68,4.97,31.52,13.2,44.86
				c8.6,13.95,21.72,24.94,37.86,28.75c23.5,5.54,47.84,8.81,71.73,12.13c42.9,5.97,86.12,9.57,129.42,10.64
				c79.63,1.97,158.97-5.16,238.09-13.37c42.99-4.46,85.96-9.11,129.02-12.91c11.5-1.01,23-1.97,34.51-2.86
				c10.7-0.83,21.8-0.78,32.35-2.86c16.67-3.28,30.93-13.53,40.41-27.48c8.88-13.07,13.32-28.73,13.45-44.47
				c0.02-2.49-2.06-3.39-4.13-2.38C979.67,1057.43,978.09,1060.59,978.07,1063.14L978.07,1063.14z"/>
		</g>
	</g>
</g>
<g id="Ebene_5">
	<g>
		<path class="st3" d="M696.27,1452.84c3.85,41.49,7.7,82.97,11.55,124.46c1.39,14.95,2.61,30.81-4.16,44.23
			c-11.25,22.26-39.38,29.16-64.17,32.74c-36.41,5.26-78.79,6.68-104.1-19.88c-21.57-22.64-22.49-57.7-17.74-88.54
			s13.85-62.1,7.67-92.68c55.26,9.5,112.14,9.57,167.42,0.2"/>
		<g>
			<path class="st3" d="M691.86,1455.28c3.79,40.83,7.58,81.65,11.37,122.48c1.55,16.74,4.1,36.56-8.32,50
				c-9.74,10.55-24.7,15.17-38.3,18.15c-14.83,3.25-30.18,5.13-45.34,5.7c-15.08,0.57-30.75-0.28-45.14-5.2
				c-14.49-4.96-27.03-14.1-35.1-27.24c-8.27-13.48-11.08-29.57-11.32-45.17c-0.64-41.97,17.92-82.31,9.82-124.48
				c-2.11,3.08-4.22,6.15-6.34,9.23c55.72,9.47,112.74,9.44,168.48,0.1c4.5-0.75,8.28-12.02,2.07-10.98
				c-55.05,9.22-111.34,9.05-166.35-0.3c-4.18-0.71-6.96,6-6.34,9.23c7.72,40.21-10.13,79.63-10.17,119.77
				c-0.02,16.49,2.63,33.27,10.38,48c7.33,13.94,19.65,24.71,34.16,30.69c29.36,12.11,64.48,8.41,94.88,2.5
				c15.14-2.94,30.56-7.73,42.73-17.57c13.59-10.99,19.72-27.24,20.21-44.39c0.32-11.27-1.2-22.59-2.24-33.79
				c-1.13-12.18-2.26-24.36-3.39-36.55c-2.32-25.02-4.64-50.05-6.97-75.07C700,1443.18,691.43,1450.58,691.86,1455.28
				L691.86,1455.28z"/>
		</g>
	</g>
</g>
<g id="Ebene_3">
	<g>
		<path class="st3" d="M947.34,965.91c39.23-14.04,86.82-0.22,112.29,32.62c25.47,32.84,26.84,82.14,3.24,116.33
			c-23.6,34.19-70.35,50.62-110.3,38.76c-24.22,63.56-54.9,125.43-98.44,177.82c-43.54,52.39-100.8,95.03-166.59,113.4
			c-91.76,25.62-223.59-1.34-279.58-44.42c-56.65-43.58-134.71-246.23-134.71-246.23s-89.49,1.94-114.12-31.42
			s-22.94-101.02,5.29-131.43c20.51-22.1,67.36-28.52,116.91-23.16c17.53-40.75,23.46-73.65,25.71-113.6
			c104.69,11.33,212.37-67,237.45-168.75c129.7,174.18,347.79,157.04,347.79,157.04s3.29,105.1,52.44,124.37"/>
		<g>
			<path class="st3" d="M946.3,971.4c44.38-15.49,97.67,4.26,118.97,46.73c10.47,20.87,12.82,45.9,6.73,68.41
				c-6.14,22.69-21.48,41.22-41.91,52.59c-22.86,12.72-50.25,16.15-75.42,8.9c-2.6-0.75-5.29,3.44-5.97,5.22
				c-30.68,80.31-72.17,159.01-137.19,216.88c-30.18,26.86-64.93,49.03-103.01,62.82c-35.17,12.74-72.32,17.1-109.59,16.12
				c-37.17-0.98-74.42-6.78-110.08-17.36c-28.05-8.32-58.13-19.72-80.71-38.93c-17.1-14.55-29.78-34.86-41.33-53.84
				c-14.9-24.49-28.03-50.04-40.44-75.86c-17.42-36.24-33.51-73.19-48.14-110.64c-0.25-0.63-0.49-1.26-0.74-1.89
				c-0.34-0.87-1.02-1.97-2.14-1.94c-12.81,0.27-25.74-0.59-38.46-2c-21.66-2.41-45.59-6.37-63.92-18.99
				c-20.44-14.07-26.26-43.45-26.68-66.64c-0.44-24.52,5.01-55.79,26.06-71.41c12.73-9.44,29.28-13.39,44.69-15.6
				c20.57-2.94,41.57-2.37,62.19-0.2c2.85,0.3,5.04-3.05,5.97-5.22c15.95-37.33,23.9-75.98,26.24-116.4
				c-2.17,2.68-4.33,5.35-6.5,8.03c85.11,8.88,169.41-39.03,215.14-109.53c13.12-20.23,22.84-42.51,28.7-65.9
				c-2.69,1.9-5.38,3.8-8.07,5.7C585.08,749.8,646.1,794.2,715.43,820.01c46.65,17.37,96.4,27.12,146.15,28.71
				c9.5,0.3,19.11,0.48,28.59-0.26c-0.77-1.05-1.53-2.09-2.3-3.14c0.41,12.73,2.08,25.52,4.23,38.06
				c3.89,22.69,10.07,46.3,22.86,65.74c6.59,10.02,15.45,18.86,26.7,23.41c4.75,1.92,10.55-8.78,6.11-10.57
				c-20.44-8.26-31.42-29.73-38.18-49.47c-6.52-19.05-10.14-39.13-12.02-59.14c-0.4-4.29-0.76-8.6-0.9-12.91
				c-0.04-1.2-0.69-3.27-2.3-3.14c-26.8,2.09-54.49-0.58-80.97-4.49c-60.28-8.9-119.1-29.35-170.34-62.62
				c-36.65-23.8-68.63-53.97-94.79-88.95c-3.02-4.03-7.47,3.32-8.07,5.7c-19.41,77.54-87.49,139.04-164.29,157.52
				c-21.88,5.27-44.4,6.89-66.79,4.56c-3.89-0.41-6.32,4.94-6.5,8.03c-2.23,38.52-9.99,75.24-25.18,110.8
				c1.99-1.74,3.98-3.48,5.97-5.22c-33.88-3.57-73.37-4.14-104.25,12.54c-25.77,13.92-37.52,43.26-40.7,71.1
				c-3.1,27.14,0,60.51,17.93,82.52c14.43,17.71,40.72,23.57,62.12,27.08c17.29,2.84,35.09,4.31,52.63,3.94
				c-0.71-0.65-1.42-1.3-2.14-1.94c12.71,32.97,26.86,65.45,41.75,97.49c12.39,26.66,25.46,53.05,40.06,78.58
				c12.35,21.6,25.65,43.64,42.98,61.68c18.84,19.61,45.01,31.49,70.22,40.58c35.14,12.66,72.27,20.11,109.48,22.99
				c37.18,2.88,75.55,1.38,111.68-8.46c39.36-10.72,75.93-30.29,108.2-55.07c69.82-53.6,116.8-130.49,150.61-210.58
				c4.34-10.28,8.47-20.64,12.45-31.06c-1.99,1.74-3.98,3.48-5.97,5.22c49.63,14.3,105.02-12.91,125.14-60.15
				c10.15-23.83,11.25-51.68,3.05-76.24c-8.13-24.37-25.49-44.37-48.34-56.06c-25.11-12.86-55.21-15.65-81.95-6.32
				c-2.75,0.96-4.83,3.72-5.31,6.58C942.73,968.96,943.5,972.38,946.3,971.4L946.3,971.4z"/>
		</g>
	</g>
</g>
<g id="Ebene_2">
	<g>
		<g>
			<path d="M941.19,971.27c43.79-18.93,99.38-1.46,123.39,39.94c12.13,20.92,16.02,46.52,10.94,70.13
				c-4.88,22.66-18.91,42.07-38.35,54.56c-22.27,14.31-49.54,19.69-75.46,14.03c-4.55-0.99-9.66,9.98-4.2,11.17
				c50.98,11.14,106.08-19.89,123.03-69.22c8.53-24.81,7.94-52.83-2.11-77.12c-10.01-24.2-28.94-43.29-53.07-53.49
				c-26.9-11.38-57.5-11.67-84.34-0.06C936.69,963.07,934.52,974.15,941.19,971.27L941.19,971.27z"/>
		</g>
	</g>
	<g>
		<g>
			<path d="M284.56,962.73c-28.13-3.03-57.59-6.13-85.02,2.8c-23.54,7.66-43.13,23.4-52.78,46.54
				c-9.62,23.07-10.58,51.37-6.91,75.85c3.76,25.12,16.39,46.77,38.85,59.43c28.09,15.83,61.22,15.16,92.45,14.19
				c4.75-0.15,9.35-11.33,4.2-11.17c-26.12,0.81-53.51,1.8-78.31-7.84c-22.05-8.57-38.9-24.68-45.64-47.67
				c-6.37-21.74-6.09-47.29-0.99-69.27c5.33-23.01,20.79-39.21,42.68-47.53c27.87-10.6,58.35-7.26,87.28-4.14
				C285.07,974.4,289.97,963.31,284.56,962.73L284.56,962.73z"/>
		</g>
	</g>
	<g>
		<g>
			<path d="M955.73,1155.15c-19.69,60.98-50.75,118.47-91.95,167.62c-40.66,48.51-92.09,89.27-151.7,111.7
				c-58.08,21.86-122.35,27.44-183.2,14.96c-62.41-12.8-117.64-45.6-158.59-94.42c-43-51.26-69.11-114.42-86.59-178.41
				c-2.2-8.07-4.27-16.17-6.22-24.31c-1.43-5.92-9.54,2.84-8.47,7.28c15.9,66,39.57,131.83,79.94,187.06
				c19.49,26.67,42.96,50.8,70.15,69.67c25.7,17.83,54.51,30.81,84.6,39.22c61.06,17.08,127.38,15.05,187.82-3.72
				c62.19-19.32,116.53-57.16,160.72-104.53c45.1-48.35,79.97-106.49,103.2-168.31c2.87-7.63,5.54-15.33,8.05-23.09
				C965.96,1148.17,957.68,1149.11,955.73,1155.15L955.73,1155.15z"/>
		</g>
	</g>
	<g>
		<g>
			<path d="M944.89,961.62c-14.59-14.49-22.8-35.16-29.63-54.16c-6.62-18.41-11.87-37.34-16.22-56.41
				c-0.9-3.93-1.77-7.87-2.54-11.82c-0.16-0.85-1.17-2-2.14-1.94c-26.73,1.54-54.23-1.6-80.53-5.91
				c-60.32-9.89-119.04-31.1-170.25-64.74c-36.5-23.97-68.46-54.11-94.71-89c-2.58-3.43-6.83,2.03-7.66,4.25
				c-27.85,74.61-92.93,132.58-168.59,155.98c-21.41,6.62-43.62,10.48-66.02,11.23c-3.95,0.13-6.28,4.53-6.5,8.03
				c-2.41,37.6-8.85,75.5-22.66,110.69c-0.78,1.99-0.98,5.51,1.77,5.95c2.75,0.44,5.15-3.14,5.97-5.22
				c14.51-37,21.18-76.78,23.72-116.3c-2.17,2.68-4.33,5.35-6.5,8.03c83.78-2.79,163.94-47.43,212.89-115.13
				c13.94-19.27,25.34-40.24,33.66-62.54c-2.55,1.42-5.1,2.83-7.66,4.25c44.65,59.34,105.71,103.94,174.9,130.51
				c46.38,17.82,95.88,28.31,145.51,30.8c9.45,0.48,19.01,0.83,28.46,0.28c-0.71-0.65-1.42-1.3-2.14-1.94
				c6.33,32.87,15.77,66.39,30.58,96.46c4.94,10.02,10.72,19.95,18.7,27.87C941.3,974.8,948.18,964.88,944.89,961.62L944.89,961.62z
				"/>
		</g>
	</g>
	<g>
		<g>
			<path d="M694.15,1454.14c3.76,38.39,7.52,76.78,11.28,115.17c1.65,16.85,6.29,37.39-3.15,52.74
				c-7.82,12.72-22.49,20.47-35.95,25.8c-31.72,12.57-68.42,14.77-100.74,3.04c-13.77-5-27.12-12.67-37.01-23.61
				c-11.12-12.31-15.85-27.39-15.89-43.85c-0.06-20.93,4.19-42.12,6.87-62.83c2.79-21.59,5.59-43.17,8.38-64.76
				c1.03-7.93-7.88-3.08-8.56,2.17c-2.71,20.93-5.42,41.86-8.13,62.8c-2.59,20-6.1,40.13-7.17,60.28
				c-0.92,17.31,1.71,34.74,11.91,49.16c8.89,12.55,21.98,21.9,35.9,28.15c33.02,14.8,71.92,14.46,105.84,2.84
				c15.35-5.26,30.61-12.62,42.1-24.34c12.86-13.11,17.49-29.7,16.61-47.78c-1.12-23.01-4.31-46.07-6.55-69
				c-2.31-23.63-4.63-47.25-6.94-70.88C702.25,1442.04,693.69,1449.44,694.15,1454.14L694.15,1454.14z"/>
		</g>
	</g>
	<g>
		<g>
			<path d="M713.25,1238.9c-20.76,26.08-47.59,48.56-81.24,54.54c-29.49,5.24-59.11-3.83-84.39-18.83
				c-16.72-9.92-31.85-22.36-45.64-36.01c-5.33-5.28-14.53,7.98-10.13,12.33c24.65,24.4,53.52,45.79,87.47,54.88
				c30.92,8.28,63.26,3.19,90.58-13.35c19.23-11.64,35.43-27.58,49.37-45.08c1.98-2.48,4.35-7.42,2.06-10.41
				C719.02,1233.97,714.94,1236.77,713.25,1238.9L713.25,1238.9z"/>
		</g>
	</g>
	<g>
		<g>
			<path d="M628.41,1053.58c-10.79-8.65-26.01-9.61-38.34-3.76c-12.45,5.91-20.3,18.96-21.48,32.47
				c-1.14,13.1,4.27,26.22,15.8,33.11c11.47,6.86,26.29,6.7,37.66-0.2c2.43-1.47,4.47-4.55,4.32-7.48c-0.13-2.5-2.15-4.01-4.49-2.59
				c-18.52,11.24-44.41-1.5-44.67-23.71c-0.27-23.88,28.73-30.39,45.09-17.28C626.01,1067.12,632.44,1056.8,628.41,1053.58
				L628.41,1053.58z"/>
		</g>
	</g>
	<g>
		<path d="M681.04,966.58c1.73-7.77-0.26-15.82-1.76-23.64c-1.5-7.82-2.44-16.29,1.13-23.42s13.31-11.66,19.91-7.17
			c6.99,4.75,5.99,14.98,6.53,23.39c0.43,6.69,2.33,13.19,3.34,19.82c1.01,6.63,1.06,13.7-1.98,19.69s-9.88,10.44-16.46,8.97
			c-6.57-1.47-10.79-10.3-6.56-15.51"/>
		<g>
			<path d="M685.32,965.49c1.24-6.69,0.64-13.19-0.57-19.84c-1.23-6.75-3.33-13.92-2.11-20.83c0.92-5.18,4.92-9.09,10.48-8.63
				c5.81,0.48,8.09,5.85,8.75,10.94c0.68,5.27,0.36,10.6,1.1,15.87c1.02,7.24,3.31,14.36,3.42,21.71c0.08,5.92-1.4,12.39-8.01,13.91
				c-2.81,0.65-5.76,0.06-7.89-1.96c-0.85-0.81-1.63-1.92-2.07-3c-0.22-0.54-0.27-2.86-0.99-1.81c1.33-1.92,3.37-5.52,1.54-7.78
				c-1.7-2.1-4.83-0.31-6.03,1.44c-3.45,4.99-5.11,10.72-2.51,16.5c2.51,5.57,7.91,8.63,13.97,7.89
				c15.56-1.91,21.85-19.93,20.6-33.46c-0.76-8.26-3.38-16.22-3.82-24.51c-0.33-6.17,0-12.72-2.59-18.49
				c-5.79-12.93-21.38-8.93-28.71,0.23c-5.37,6.72-6.88,15.63-6.13,24.02c0.89,9.98,4.89,19.89,3.02,29.96
				c-0.43,2.32,0.5,4.89,3.25,4.4C682.76,971.58,684.86,967.97,685.32,965.49L685.32,965.49z"/>
		</g>
	</g>
	<g>
		<path d="M523.97,953.6c-3.5-7.61-7.08-15.7-6.12-24.01c0.96-8.31,8.38-16.49,16.67-15.05c9,1.55,12.75,12.26,13.93,21.27
			c1.26,9.64,1.58,19.41,0.95,29.11c-0.45,6.95-2.42,15.21-9.05,17.45c-5.82,1.97-12.28-2.31-14.87-7.86s-2.33-11.94-2.01-18.05"/>
		<g>
			<path d="M528.21,949.96c-3.31-7.24-12.72-27.55,1.24-29.89c10.89-1.83,14.09,13.41,14.95,21.08c0.72,6.44,1.01,12.93,0.89,19.42
				c-0.08,4.04,0.6,11.95-2.44,15.3c-3.49,3.84-9.86-0.35-12.11-3.51c-3.74-5.23-3.15-12.26-2.85-18.34
				c0.14-2.73-2.32-3.65-4.49-2.59c-2.66,1.3-4.18,4.67-4.32,7.48c-0.56,11.23,1.17,29.52,16.46,29.53
				c12.95,0.02,17.54-15.63,18.26-25.97c0.95-13.49,1.31-29.9-4.48-42.46c-5.11-11.09-16.96-14.76-26.56-6.32
				c-13.6,11.97-9.64,29.08-3.03,43.54C522.37,963.01,530.12,954.13,528.21,949.96L528.21,949.96z"/>
		</g>
	</g>
	<g>
		<g>
			<path d="M546.58,867.91c-26.31-0.82-51.49,10.89-68.37,30.99c-1.48,1.77-3.28,5.64-1.54,7.78c1.79,2.21,4.69,0.16,6.03-1.44
				c14.63-17.42,37.04-26.87,59.68-26.17C547.13,879.23,551.87,868.08,546.58,867.91L546.58,867.91z"/>
		</g>
	</g>
	<g>
		<g>
			<path d="M747.33,896.68c-17.04-19.37-43.06-28.47-68.47-24.25c-4.5,0.75-8.28,12.01-2.07,10.98c23.15-3.84,47.48,4.89,62.97,22.5
				C743.41,910.06,750.43,900.21,747.33,896.68L747.33,896.68z"/>
		</g>
	</g>
	<g>
		<g>
			<path d="M251.2,991.68c-36.63,5.48-66.95,38.39-70.3,75.15c-0.72,7.95,8.08,3.13,8.56-2.17c2.89-31.73,28.4-57.32,59.67-62
				C253.65,1001.98,257.45,990.74,251.2,991.68L251.2,991.68z"/>
		</g>
	</g>
	<g>
		<g>
			<path d="M980.01,992.59c34.59,4.55,63.74,38.79,59.91,74.11c-0.86,7.94,7.99,3.11,8.56-2.17c4.25-39.24-24.7-77.9-64.27-83.1
				C979.54,980.81,974.59,991.88,980.01,992.59L980.01,992.59z"/>
		</g>
	</g>
</g>
<g id="Ebene_8">
	<ellipse class="st4" cx="688.86" cy="926.35" rx="5.51" ry="5.48"/>
	<ellipse class="st4" cx="528.4" cy="931.07" rx="5.3" ry="5.28"/>
	<g class="st5">
		<g>
			<path class="st6" d="M998.86,1397.45c4.76,0,9.42-11.17,4.2-11.17C998.3,1386.28,993.64,1397.45,998.86,1397.45L998.86,1397.45z"
				/>
		</g>
	</g>
</g>
<g id="Ebene_19">
	<g>
		<g>
			<path d="M702.64,1523.49c4.76,0,9.42-11.17,4.2-11.17C702.08,1512.32,697.41,1523.49,702.64,1523.49L702.64,1523.49z"/>
		</g>
	</g>
</g>
<g id="Ebene_27_Kopie" class="st7">
</g>
<g id="Ebene_32">
	<g>
		<path class="st1" d="M383.74,567.49c-79.15,9.7-156.33,35.05-225.73,74.15c-25.62,14.44-52.53,34.18-56.79,63.17
			c-3.27,22.28,8.46,44.72,25.32,59.73c16.86,15.02,38.29,23.83,59.56,31.52c248.33,89.82,533.24,71.89,794.44,5.59
			c78.58-19.95,136.78-38.7,124.54-124.07c-5.02-35.02-46.54-53.49-78.23-69.53c-42.34-21.43-81.27-40.19-128.75-38.83
			c0,0-79.94,18.26-91.93-17.51c-14.03-41.85-30.54-92.73-44.42-134.15c-7.32-21.83-11.86-50-34.95-48.73
			c-23.72,1.3-56.7,31.82-80.21,35.23c-26.38,3.82-49.25-16.76-68.4-35.22s-44-37.72-69.71-30.7
			c-22.97,6.27-35.12,30.59-44.47,52.38C439,448.82,413.97,507.11,388.95,565.4"/>
		<g>
			<path class="st8" d="M384.86,561.54c-48.57,6.02-96.36,17.78-142.14,35.09c-22.99,8.69-45.49,18.7-67.29,30.06
				c-18.81,9.8-38.04,20.21-53.53,34.93c-14.51,13.78-25.54,31.71-25.98,52.21c-0.46,21.57,11.06,41.78,26.72,55.91
				c17.11,15.44,38.77,24.32,60.16,32.07c22.27,8.07,44.87,15.26,67.68,21.65c93.28,26.13,190.12,38.27,286.86,39.91
				c98.03,1.66,196.15-7.3,292.72-23.89c48.4-8.32,96.47-18.57,144.1-30.53c31.96-8.03,66.3-15.6,94.49-33.48
				c25.46-16.15,40.51-41.06,42.58-71.2c1.17-17.01,0.01-36.09-9.12-50.92c-9.38-15.23-25.07-25.87-40.3-34.58
				c-18.05-10.32-37-19.45-55.77-28.38c-20.49-9.76-41.65-18.44-63.9-23.26c-14.58-3.16-31.39-6.06-46.21-3.16
				c-9.48,1.85-19.11,3.12-28.76,3.63c-12.79,0.68-26.74,0.58-38.88-4.01c-5.1-1.92-10.13-4.69-13.63-8.95
				c-5.18-6.31-6.73-15.38-9.25-22.94c-14.57-43.81-29.68-87.52-43.28-131.64c-4.32-13.99-9.9-32.76-26.12-36.68
				c-15.98-3.86-33.86,7.82-46.98,15.39c-15.41,8.89-32.3,21.36-51.02,19.49c-22.02-2.19-39.93-19.27-55.12-33.85
				c-15.51-14.89-33.89-31.09-56.2-33.52c-20.53-2.24-37.84,9.82-49.23,25.94c-12.99,18.4-20.67,40.37-29.49,60.92
				c-10.67,24.85-21.34,49.7-32.01,74.55c-10.41,24.24-20.81,48.47-31.22,72.71c-0.92,2.14-1.02,5.98,1.92,6.45
				c3.03,0.49,5.52-3.43,6.48-5.67c20.68-48.17,41.36-96.33,62.04-144.5c4.91-11.44,9.73-22.93,14.76-34.32
				c3.82-8.66,8.03-17.37,13.65-25.02c5.15-7,11.58-13.24,19.76-16.53c10.19-4.1,21.59-3.15,31.66,0.8
				c20.74,8.14,35.52,25.08,51.81,39.48c14.98,13.23,33.37,26.15,54.35,24.77c17.05-1.12,32.44-11.76,46.79-20.07
				c7.87-4.56,15.86-9.29,24.4-12.5c6.54-2.45,14.29-4.52,21.07-1.74c14.2,5.82,17.79,26.35,21.78,39.28
				c6.57,21.27,13.99,42.32,20.96,63.46c7.29,22.14,14.57,44.28,21.94,66.4c2.28,6.84,3.97,14.39,8.85,19.95
				c3.76,4.29,8.61,7.39,13.87,9.48c21.31,8.49,46.95,5.72,69.01,1.85c2.27-0.4,4.57-1.07,6.86-1.33
				c8.78-1.01,18.65,0.38,27.37,1.59c22.36,3.09,43.67,10.66,64.19,19.85c18.91,8.47,37.48,17.92,55.85,27.52
				c15.56,8.14,31.71,17.19,43.41,30.57c12.01,13.73,14.58,30.25,14.41,48.01c-0.13,13.75-2.86,27.52-10.19,39.32
				c-14.4,23.2-43.15,34.04-67.92,41.91c-39.75,12.63-80.94,21.58-121.71,30.18c-93.23,19.67-188.03,32.58-283.28,36.21
				c-93.65,3.56-187.87-1.84-280-19.42c-45.53-8.69-90.52-20.34-134.38-35.36c-38.71-13.25-91.22-31.4-98.45-78.28
				c-6.64-43.09,44.74-67.21,76.04-83.04c42.18-21.33,86.86-37.64,132.83-48.64c22.33-5.34,44.95-9.4,67.73-12.22
				C387.53,572.84,391.69,560.69,384.86,561.54L384.86,561.54z"/>
		</g>
	</g>
</g>
<g id="Ebene_31">
	<g>
		<path class="st9" d="M350.87,682.25c1.71,24.02-10.76,59.12-21.83,80.53c88.24-37.62,218.48-148.11,287.38-121.32
			c117.65,45.76,239.34,106.01,239.34,106.01s-27.87-121.55-43.86-121.55c-27.04,0-54.49-13.43-79.29-20.34
			c-131.36-36.63-202.29-3.45-377.94,80.74"/>
		<g>
			<path class="st9" d="M346.1,684.9c0.79,13.16-2.01,26.43-5.78,38.98c-3.81,12.68-8.67,25.13-14.72,36.92
				c-1.73,3.38-1.93,9.79,3.53,7.45c73.4-31.47,135.61-85.15,210.5-113.59c15-5.69,30.95-10.57,47.08-11.2
				c18.39-0.72,33.86,6.59,50.63,13.35c47.71,19.23,94.82,39.93,141.53,61.47c24.65,11.37,49.24,22.89,73.57,34.93
				c4.75,2.35,8.73-6.08,7.91-9.68c-5.43-23.67-11.65-47.24-18.86-70.44c-4.42-14.21-9-28.79-16.04-41.96
				c-1.94-3.63-4.35-8.04-8.01-10.21c-2.81-1.67-6.34-1.06-9.45-1.28c-7.76-0.55-15.42-2.07-22.94-4.04
				c-15.08-3.95-29.58-9.8-44.47-14.39c-11.48-3.54-23.22-6.41-34.97-8.9c-20.37-4.31-41.1-7.06-61.93-7.5
				c-40.49-0.85-80.14,7.58-118.27,20.71c-50.89,17.53-99.57,41.27-148.06,64.43c-7.59,3.63-15.19,7.27-22.78,10.9
				c-4.59,2.2-6.9,14.32,0.18,10.92c50.16-24.04,100.25-48.98,152.38-68.57c37.64-14.14,76.87-24.97,117.27-26.22
				c44.69-1.38,88.7,8.29,130.74,22.76c14.28,4.92,28.8,9.82,43.87,11.58c3.52,0.41,7.1,0.25,10.6,0.64
				c1.25,0.14-0.17-0.36,1.07,0.32c1.24,0.68,1.79,1.42,2.99,3.03c7.62,10.21,11.49,23.84,15.45,35.75
				c5.26,15.85,9.78,31.95,14.03,48.11c2.67,10.16,4.64,20.63,7.65,30.69c0.15,0.5,0.24,1.03,0.36,1.54
				c2.64-3.23,5.27-6.46,7.91-9.68c-65.38-32.36-132.11-62.35-199.58-90.08c-13.2-5.43-26.4-10.93-39.77-15.92
				c-6.31-2.36-12.82-3.83-19.55-4.29c-15.59-1.06-31.33,2.32-46.1,7.03c-37.8,12.06-72.72,32.65-106.68,52.76
				c-38.78,22.96-76.91,48.28-118.45,66.09c1.18,2.48,2.36,4.96,3.53,7.45c6.83-13.33,12.49-27.28,16.69-41.66
				c4.1-14.04,7.36-28.79,6.47-43.51C355.18,671.78,345.79,679.81,346.1,684.9L346.1,684.9z"/>
		</g>
	</g>
</g>
<g id="Ebene_33">
	<g>
		<path class="st10" d="M873.73,735.28c48.31-70.51,96.63-141.03,144.94-211.54c8.41-12.27,17.21-26.94,12.57-41.05
			c-4.83-14.69-23.12-21.49-38.35-18.44c-15.23,3.06-27.84,13.41-39.16,23.99c-33.95,31.73-63.09,69.35-80.29,112.42
			c-17.2,43.07-21.82,91.9-7.87,136.11"/>
		<g>
			<path class="st10" d="M877.17,737.26c29.03-42.36,58.05-84.72,87.08-127.09c14.42-21.04,28.84-42.09,43.26-63.13
				c6.83-9.97,14.16-19.76,20.32-30.16c5.64-9.52,10.47-20.63,9.28-31.94c-1.84-17.6-18.79-27.84-35.45-27.46
				c-21.15,0.48-38.43,15.77-52.88,29.61c-31.14,29.82-57.96,64.41-75.61,103.92c-20.81,46.58-27.43,100.5-12.18,149.71
				c1.99,6.42,10.66-3.14,9.19-7.9c-12.66-40.87-9.64-85.13,4.93-125.1c13.67-37.5,36.93-70.74,64.34-99.48
				c13.12-13.76,28.18-30.49,46.75-36.55c14.14-4.61,35.1-1.14,40.46,14.95c3.46,10.41-2.13,20.69-7.56,29.29
				c-6.01,9.52-12.66,18.67-19.03,27.96c-13.3,19.4-26.59,38.81-39.89,58.21c-29.96,43.73-59.92,87.46-89.88,131.19
				c-1.3,1.89-2.37,6.28,0.13,7.72C873.13,742.57,875.91,739.1,877.17,737.26L877.17,737.26z"/>
		</g>
	</g>
</g>
<g id="Ebene_29">
	<g>
		<g>
			<path d="M333.69,761.61c19.31-78.39,43.9-155.54,73.41-230.69c14.78-37.65,30.82-74.84,48.49-111.23
				c7.9-16.27,15.59-32.95,25.44-48.15c8.21-12.67,19.09-25.92,33.69-31.31c28.41-10.49,48.54,14.93,64.62,34.05
				c8.18,9.73,16.91,19.83,28.13,26.15c11.49,6.47,24.57,7.44,37.22,4.14c13.74-3.58,26.2-10.92,38.63-17.54
				c11.48-6.11,24.28-13.07,37.7-12.45c15.32,0.71,25.97,11.72,32.18,24.93c3.66,7.77,6.06,16.09,8.53,24.29
				c3.27,10.82,6.54,21.64,9.81,32.46c25.87,85.61,51.74,171.21,77.61,256.82c3.17,10.5,6.35,21,9.52,31.51
				c1.94,6.42,10.63-3.13,9.19-7.9c-26.64-88.15-53.28-176.31-79.91-264.46c-6.47-21.4-12.7-42.89-19.43-64.21
				c-4.74-15.02-11.17-31.65-25.32-40.21c-25.74-15.55-54.48,6.07-77.19,17.32c-12.45,6.17-26.21,11.34-40.27,8.37
				c-12.71-2.69-22.82-11.89-31.27-21.23c-16.73-18.49-32.92-45.43-60.78-46.51c-34.27-1.32-56.87,34.57-70.56,61.11
				c-18.74,36.32-35.79,73.51-51.49,111.23c-32.07,77.08-58.64,156.5-79.94,237.22c-2.52,9.53-4.95,19.09-7.31,28.66
				c-0.62,2.52,0.65,5.28,3.52,4.78C331.04,768.19,333.02,764.3,333.69,761.61L333.69,761.61z"/>
		</g>
	</g>
	<g>
		<g>
			<path d="M230.8,752.05c36.84,25.76,86.16,23.52,126.74,8.45c47.17-17.51,86.01-50.23,128.51-76.16
				c21.59-13.17,44.44-24.83,68.97-31.39c23.52-6.29,47.68-7.05,71.46-1.67c47.41,10.72,87.16,41.11,128.01,65.74
				c45.5,27.43,101.84,51.86,155.12,33.07c2.99-1.05,5.24-4.03,5.76-7.13c0.36-2.12-0.48-5.85-3.52-4.78
				c-47.58,16.78-97.76-2.49-139.42-26.02c-41.66-23.52-79.86-54.05-125.99-68.76c-22.35-7.13-45.52-9.73-68.82-6.51
				c-24.12,3.33-47.19,12.32-68.71,23.48c-44.11,22.86-81.97,55.99-126.43,78.23c-44.43,22.22-101.75,32.28-145.07,1.98
				C233.1,737.55,226.25,748.87,230.8,752.05L230.8,752.05z"/>
		</g>
	</g>
	<g>
		<g>
			<path d="M391.85,556.48c-67.08,11.27-134.92,25.71-197.85,52.19c-33.81,14.23-71.61,33.47-91.49,65.84
				c-6.69,10.89-10.82,23.71-10.07,36.58c0.74,12.61,5.85,24.42,13.2,34.57c20.78,28.67,55.43,46.54,87.2,60.08
				c56.6,24.13,117.96,37.9,178.62,46.8c86.13,12.64,173.51,13.36,260.25,7.81c87.7-5.61,174.86-17.28,261.91-28.93
				c35.85-4.8,71.55-11.63,106-22.8c25.16-8.15,50.13-18.51,72.09-33.42c29.59-20.08,56.34-51.96,48.83-90.08
				c-3.46-17.6-13.96-33.18-26.27-45.87c-17.19-17.71-38.29-31.3-60.11-42.59c-13.52-7-27.48-13.1-41.66-18.63
				c-5.19-2.02-11.44,9.59-6.62,11.47c26.24,10.23,52.02,22.44,75.1,38.71c16.35,11.52,31.78,25.38,41.93,42.83
				c7.42,12.76,11.21,27.82,8.53,42.03c-2.75,14.58-11.59,27.21-23.32,38.05c-16.64,15.38-37.05,26.3-57.78,35.08
				c-28.85,12.21-59.49,20.18-90.18,26.15c-40.32,7.84-81.4,12.2-122.13,17.39c-42.04,5.36-84.13,10.32-126.34,14.17
				c-84.19,7.67-169.06,10.74-253.41,3.66c-69.2-5.82-138.89-17.81-204.75-40.31c-36.66-12.53-74.84-28.48-104.11-54.57
				c-9.44-8.41-18.49-18.93-23.34-30.39c-2.08-4.92-3.67-10.93-4.01-15.29c-0.48-6.06-0.17-9.36,1.34-15.25
				c0.19-0.74-0.18,0.49,0.26-0.89c0.21-0.66,0.43-1.32,0.66-1.97c0.5-1.42,1.08-2.8,1.67-4.18c0.66-1.55-0.37,0.66,0.4-0.86
				c0.33-0.66,0.67-1.31,1.02-1.96c0.76-1.42,1.58-2.8,2.43-4.16c1.34-2.12,0.69-1.19,1.99-2.94c1.04-1.41,2.11-2.79,3.22-4.14
				c2.37-2.87,4.46-5.12,6.7-7.3c12.92-12.59,28.41-22.28,44.32-30.61c51.71-27.09,109.94-41.85,166.74-53.73
				c18.85-3.94,37.8-7.44,56.79-10.64C394.48,567.57,398.58,555.35,391.85,556.48L391.85,556.48z"/>
		</g>
	</g>
	<g>
		<g>
			<path d="M871.18,739.65c15.88-68.91,44.56-134.59,84.05-193.24c11.25-16.71,23.47-32.75,36.41-48.18
				c1.6-1.91,3.56-6.12,1.67-8.44c-1.95-2.39-5.08-0.18-6.55,1.56c-47.27,56.35-84.11,121.42-107.9,191.03
				c-6.69,19.56-12.33,39.48-16.97,59.63c-0.58,2.52,0.62,5.29,3.52,4.78C868.49,746.24,870.56,742.35,871.18,739.65L871.18,739.65z
				"/>
		</g>
	</g>
	<g>
		<g>
			<path d="M863.84,730.38c-14.67-76.28,10.21-157.69,62.95-214.34c13.49-14.49,29.22-28.3,46.56-37.99
				c16.32-9.12,42.12-13.38,53.75,5.53c11.71,19.03-6.29,42.04-17.32,56.76c-15.73,20.99-31.46,41.98-47.19,62.96
				c-35.24,47.02-70.49,94.05-105.73,141.07c-1.51,2.01-3.62,6.05-1.67,8.44c1.89,2.32,5.17,0.28,6.55-1.56
				c34.05-45.43,68.1-90.86,102.14-136.29c16.92-22.58,33.85-45.16,50.77-67.75c13.05-17.42,29.52-39.72,24.92-62.94
				c-4.21-21.22-27.11-29.3-46.35-25.12c-21.71,4.72-41.16,21.09-57.12,35.82c-30.92,28.55-54.62,64.69-69.21,104.13
				c-16.41,44.33-21.2,92.68-12.26,139.17c0.6,3.12,4.21,2.02,5.9,0.66C862.98,736.97,864.44,733.46,863.84,730.38L863.84,730.38z"
				/>
		</g>
	</g>
	<g>
		<g>
			<path d="M955.27,510.71c1.09,6.86,2.18,13.72,3.27,20.58c0.5,3.16,4.27,1.98,5.9,0.66c2.5-2.02,3.79-5.43,3.3-8.56
				c-1.09-6.86-2.18-13.72-3.27-20.58c-0.5-3.16-4.27-1.98-5.9-0.66C956.07,504.17,954.77,507.59,955.27,510.71L955.27,510.71z"/>
		</g>
	</g>
	<g>
		<g>
			<path d="M929.13,539.96c1.45,10.47,2.9,20.94,4.36,31.42c0.44,3.18,4.31,1.95,5.9,0.66c2.54-2.05,3.73-5.41,3.3-8.56
				c-1.45-10.47-2.9-20.94-4.36-31.42c-0.44-3.18-4.31-1.95-5.9-0.66C929.89,533.45,928.7,536.81,929.13,539.96L929.13,539.96z"/>
		</g>
	</g>
	<g>
		<g>
			<path d="M892.11,597.38c2.54,9.75,5.08,19.5,7.62,29.25c0.79,3.03,4.09,2.12,5.9,0.66c2.3-1.86,4.07-5.58,3.3-8.56
				c-2.54-9.75-5.08-19.5-7.62-29.25c-0.79-3.03-4.09-2.12-5.9-0.66C893.11,590.68,891.33,594.39,892.11,597.38L892.11,597.38z"/>
		</g>
	</g>
	<g>
		<g>
			<path d="M870.33,646.13c2.54,6.86,5.08,13.72,7.62,20.58c2.36,6.38,10.92-3.22,9.19-7.9c-2.54-6.86-5.08-13.72-7.62-20.58
				C877.16,631.85,868.6,641.45,870.33,646.13L870.33,646.13z"/>
		</g>
	</g>
	<g>
		<g>
			<path d="M903.2,652.46c5.44-1.44,10.89-2.89,16.33-4.33c3.02-0.8,5.23-4.2,5.76-7.13c0.42-2.33-0.48-5.58-3.52-4.78
				c-5.44,1.44-10.89,2.89-16.33,4.33c-3.02,0.8-5.23,4.2-5.76,7.13C899.26,650.02,900.17,653.27,903.2,652.46L903.2,652.46z"/>
		</g>
	</g>
	<g>
		<g>
			<path d="M927.16,602.63c6.17-1.08,12.34-2.17,18.51-3.25c4.87-0.86,8.96-13.09,2.24-11.91c-6.17,1.08-12.34,2.17-18.51,3.25
				C924.53,591.58,920.44,603.81,927.16,602.63L927.16,602.63z"/>
		</g>
	</g>
	<g>
		<g>
			<path d="M963.1,551.72c5.44-0.72,10.89-1.44,16.33-2.17c4.9-0.65,9.06-12.81,2.24-11.91c-5.44,0.72-10.89,1.44-16.33,2.17
				C960.44,540.46,956.29,552.62,963.1,551.72L963.1,551.72z"/>
		</g>
	</g>
	<g>
		<g>
			<path d="M984.87,520.3c4.36-0.72,8.71-1.44,13.07-2.17c4.88-0.81,8.99-13.03,2.24-11.91c-4.36,0.72-8.71,1.44-13.07,2.17
				C982.24,509.2,978.13,521.42,984.87,520.3L984.87,520.3z"/>
		</g>
	</g>
	<g>
		<g>
			<path d="M806.07,564.94c26.71,0.03,53.17,2.6,79.83,3.55c5.15,0.18,10.3-11.91,4.56-12.12c-26.66-0.95-53.12-3.53-79.83-3.55
				C805.47,552.82,800.41,564.94,806.07,564.94L806.07,564.94z"/>
		</g>
	</g>
	<g>
		<g>
			<path d="M356.71,683.54c30.12-10.66,60.18-21.14,88.41-36.3c28.16-15.12,56.59-30.05,86.58-41.27
				c30.07-11.26,60.38-17.64,92.59-15.71c30.45,1.83,60.17,9.32,89.64,16.75c17.04,4.3,34.09,8.61,51.35,11.96
				c17.53,3.4,34.91,4.76,52.77,4.01c5.15-0.21,10.11-12.35,4.56-12.12c-62.81,2.61-121.46-25.64-183.34-31.88
				c-31.6-3.18-62.21,0.44-92.32,10.47c-30.35,10.11-59.18,24.18-87.43,39.09c-15.83,8.35-31.45,16.85-48.01,23.71
				c-17.25,7.15-34.96,13.15-52.56,19.38c-2.98,1.06-5.24,4.02-5.76,7.13C352.83,680.88,353.67,684.62,356.71,683.54L356.71,683.54z
				"/>
		</g>
	</g>
</g>
<g id="Ebene_36">
	<g class="st11">
		<path d="M521.65,1569.02c60.29-31.73,117.02-70.13,168.81-114.28c-53.11,13.68-108.73,17.66-163.27,11.68
			c-7.57,32.93-10.74,66.85-9.37,100.6"/>
		<g>
			<path d="M528.34,1580.46c61.26-32.32,118.73-71.47,171.49-116.35c10.52-8.95-0.83-25.22-12.89-22.14
				c-52.17,13.32-106.22,16.96-159.75,11.21c-5.49-0.59-11.59,4.51-12.77,9.72c-7.76,34.1-11.17,69.17-9.84,104.12
				c0.27,7.15,5.89,13.24,13.24,13.24c6.97,0,13.52-6.06,13.24-13.24c-1.24-32.67,1.65-65.19,8.9-97.08
				c-4.26,3.24-8.51,6.48-12.77,9.72c55.76,5.99,112.46,1.71,166.79-12.16c-4.3-7.38-8.59-14.76-12.89-22.14
				c-51.03,43.41-106.87,80.95-166.13,112.21c-6.32,3.34-8.25,12.14-4.75,18.12C513.96,1582.11,521.99,1583.81,528.34,1580.46
				L528.34,1580.46z"/>
		</g>
	</g>
	<g class="st11">
		<path d="M169.1,997.17c-0.13,34.58,3.82,71.06,25.28,98.27s39.94,45.16,73.73,53.25c-37.63,9.02-67.53-3.86-91.4-34.17
			c-23.87-30.31-28.05-74.67-10.25-108.86"/>
		<g>
			<path d="M155.86,997.17c-0.05,29.53,2.81,59.65,15.72,86.6c6.21,12.97,15.5,24.22,24.96,34.95c8.27,9.39,17.38,17.91,27.66,25.08
				c12.12,8.45,26.09,14.15,40.39,17.66c0-8.51,0-17.03,0-25.54c-7,1.63-10.82,2.24-18,2.34c-7.45,0.11-10.21-0.16-16.9-1.84
				c-6.72-1.69-9.41-2.76-14.88-5.74c-5.69-3.1-9.81-6.06-13.78-9.56c-20.1-17.72-31.69-41.26-32.26-67.14
				c-0.32-14.62,2.65-28.91,9.14-41.62c3.25-6.37,1.67-14.37-4.75-18.12c-5.91-3.46-14.86-1.64-18.12,4.75
				c-15.09,29.58-17.01,65.33-4.42,96.18c12.07,29.55,36.64,55.68,67.53,65.52c17.36,5.53,35.92,4.87,53.49,0.78
				c12.72-2.95,12.53-22.47,0-25.54c-7.44-1.83-14.81-4.25-20.21-6.87c-6.01-2.91-11.75-6.41-17.06-10.45
				c1.62,1.23-2.15-1.78-2.5-2.07c-1.36-1.16-2.7-2.34-4.02-3.55c-2.69-2.48-5.28-5.07-7.79-7.73c-5.22-5.53-10.1-11.38-14.84-17.33
				c-20.06-25.18-22.92-59.08-22.86-90.74C182.38,980.12,155.89,980.09,155.86,997.17L155.86,997.17z"/>
		</g>
	</g>
	<g class="st11">
		<path d="M242.31,742.74c26.36,12.88,57.49,15.79,85.8,8.03"/>
		<g>
			<path d="M235.62,754.18c29.96,14.36,63.82,17.93,96.01,9.36c16.46-4.38,9.48-29.94-7.04-25.54c-24.97,6.65-52.01,4.62-75.6-6.69
				c-6.45-3.09-14.3-1.77-18.12,4.75C227.49,741.84,229.14,751.07,235.62,754.18L235.62,754.18z"/>
		</g>
	</g>
	<g class="st11">
		<path d="M874.48,740.59c10.52,1.02,21.04,2.04,31.55,3.06"/>
		<g>
			<path d="M874.48,753.83c10.52,1.02,21.04,2.04,31.55,3.06c7.13,0.69,13.24-6.58,13.24-13.24c0-7.74-6.09-12.55-13.24-13.24
				c-10.52-1.02-21.04-2.04-31.55-3.06c-7.13-0.69-13.24,6.58-13.24,13.24C861.24,748.33,867.33,753.14,874.48,753.83L874.48,753.83
				z"/>
		</g>
	</g>
	<g class="st11">
		<path d="M367.65,674.03c122.13-99.96,301.04-125.78,446.68-64.47"/>
		<g>
			<path d="M377.02,683.4c45.74-37.29,100.7-64.06,158.18-79.09c29.87-7.81,57.98-12.2,88.32-13.81c15.11-0.8,30.25-0.85,45.36-0.13
				c14.7,0.69,29.86,2.15,43.1,4.19c33.93,5.23,67.17,14.52,98.84,27.78c6.6,2.76,14.57-2.98,16.29-9.25
				c2.1-7.64-2.62-13.52-9.25-16.29c-58.24-24.39-122.07-35.23-185.12-33.18c-63.66,2.07-126.57,17.06-184.24,44.08
				c-32.36,15.16-62.52,34.4-90.21,56.97c-5.55,4.52-4.7,14.03,0,18.73C363.77,688.88,371.45,687.93,377.02,683.4L377.02,683.4z"/>
		</g>
	</g>
	<g class="st11">
		<path d="M521.64,336.82C432.33,457.96,372.4,600.39,348.32,748.7"/>
		<g>
			<path d="M510.2,330.13c-34.98,47.54-65.54,98.29-91.15,151.48c-25.71,53.37-46.71,109.06-62.33,166.2
				c-8.76,32.06-15.81,64.57-21.17,97.37c-1.15,7.05,1.83,14.25,9.25,16.29c6.32,1.74,15.13-2.15,16.29-9.25
				c9.41-57.63,24.12-114.34,43.91-169.27c19.61-54.43,44.36-106.96,73.64-156.86c16.69-28.45,34.88-56.01,54.43-82.58
				c4.24-5.77,0.96-14.78-4.75-18.12C521.6,321.45,514.45,324.35,510.2,330.13L510.2,330.13z"/>
		</g>
	</g>
	<g class="st11">
		<path d="M1010.88,471.72c-77.3,37.96-132.44,117.32-140.82,202.67"/>
		<g>
			<path d="M1004.19,460.29c-63.32,31.34-112.06,88.97-134.88,155.59c-6.5,18.96-10.48,38.59-12.5,58.52
				c-0.72,7.13,6.6,13.24,13.24,13.24c7.76,0,12.52-6.1,13.24-13.24c0.77-7.56,1.72-13.79,3.48-22.16
				c1.68-7.99,3.75-15.9,6.22-23.68c4.99-15.77,10.52-28.58,18.55-43.2c15.7-28.57,35.69-52.71,61.22-73.64
				c12.74-10.45,28.89-20.69,44.79-28.56c6.41-3.17,8.18-12.25,4.75-18.12C1018.49,458.51,1010.62,457.1,1004.19,460.29
				L1004.19,460.29z"/>
		</g>
	</g>
	<g class="st11">
		<path d="M863.84,684.73c-1.3,13.56-2.6,27.11-3.89,40.67"/>
		<g>
			<path d="M850.59,684.73c-1.3,13.56-2.6,27.11-3.89,40.67c-0.68,7.13,6.58,13.24,13.24,13.24c7.73,0,12.56-6.09,13.24-13.24
				c1.3-13.56,2.6-27.11,3.89-40.67c0.68-7.13-6.58-13.24-13.24-13.24C856.11,671.48,851.28,677.58,850.59,684.73L850.59,684.73z"/>
		</g>
	</g>
	<g class="st11">
		<path d="M983.95,482.05c-45.74,21.1-82.72,60.31-100.98,107.06"/>
		<g>
			<path d="M977.27,470.61c-49.04,22.86-87.25,64.85-107.07,114.98c-2.63,6.65,2.88,14.54,9.25,16.29
				c7.52,2.07,13.65-2.57,16.29-9.25c3.75-9.49,9.75-21,15.92-30.64c6.6-10.3,12.92-18.31,21.38-27.22
				c16.71-17.59,35.32-30.91,57.59-41.29c6.48-3.02,8.12-12.36,4.75-18.12C991.5,468.71,983.77,467.58,977.27,470.61L977.27,470.61z
				"/>
		</g>
	</g>
	<g class="st11">
		<path d="M125.66,670.26c21.03,62.5,76.03,112.51,140.48,127.76c267.24,63.24,548.59,24.6,814.87-42.54
			c-284.13,108.63-605.15,118.99-895.77,28.93c-50.64-15.69-82.46-75.67-66.91-126.12"/>
		<g>
			<path d="M112.89,673.79c18.32,53.7,59.02,99.22,110.55,123.16c29.57,13.73,62,19.47,93.86,25.36
				c35.19,6.51,70.7,11.4,106.33,14.86c70.25,6.81,141.01,7.75,211.48,4.16c71.85-3.66,143.42-12.02,214.41-23.59
				c70.29-11.45,140.02-26.18,209.2-43.07c8.61-2.1,17.22-4.24,25.82-6.41c-2.35-8.51-4.69-17.03-7.04-25.54
				c-67.57,25.78-137.17,46.09-207.98,60.78c-69.99,14.52-141.05,23.45-212.44,26.86c-72.26,3.45-144.8,1.29-216.72-6.52
				c-71-7.7-141.41-21.2-210.28-40.12c-8.93-2.45-17.84-5-26.72-7.64c-7.01-2.08-16.26-4.61-21.81-7.02
				c-4.42-1.92-11.39-5.99-16.33-9.51c-0.22-0.15-2.4-1.8-1.32-0.96c0.95,0.74-0.75-0.62-0.75-0.61c-1.36-1.15-2.72-2.28-4.03-3.48
				c-2.47-2.24-4.82-4.61-7.07-7.07c-1.05-1.15-2.07-2.33-3.07-3.53c-0.57-0.68-1.14-1.37-1.68-2.08c0.36,0.47,1.17,1.63-0.36-0.51
				c-2.08-2.91-4.08-5.85-5.9-8.93c-3.67-6.19-5.85-10.83-7.76-16.18c-2.24-6.29-3.84-12.76-4.93-19.35
				c-0.06-0.37-0.31-2.6-0.06-0.43c-0.07-0.66-0.15-1.32-0.21-1.98c-0.12-1.54-0.26-3.08-0.34-4.63c-0.17-3.53-0.15-7.07,0.07-10.6
				c0.1-1.55,0.24-3.08,0.41-4.62c0.24-2.24-0.31,1.8,0.06-0.43c0.11-0.66,0.21-1.31,0.33-1.97c0.63-3.51,1.49-6.96,2.52-10.38
				c2.05-6.85-2.47-14.43-9.25-16.29c-7.05-1.94-14.23,2.37-16.29,9.25c-17.43,58.15,18.78,124.13,76.16,142.42
				c70.49,22.46,143.58,37.94,216.83,47.97c74.06,10.14,148.81,14.61,223.55,12.91c74.69-1.69,149.28-9.4,222.76-22.85
				c72.59-13.29,144.13-32.41,213.6-57.32c8.72-3.13,17.4-6.35,26.06-9.65c6.68-2.55,11.28-8.92,9.25-16.29
				c-1.94-7.04-9.33-11-16.29-9.25c-67.78,17.07-136.06,32.23-204.9,44.36c-68.27,12.04-137.07,21.05-206.23,25.87
				c-68.88,4.8-138.11,5.45-207.01,0.69c-33.96-2.35-67.83-5.97-101.47-11.18c-17.13-2.65-34.19-5.68-51.18-9.1
				c-15.93-3.21-32.1-6.28-47.68-10.96c-49.51-14.89-91.64-51.68-113.99-99.14c-2.7-5.73-4.32-9.85-6.59-16.51
				c-2.31-6.77-9.1-11.23-16.29-9.25C115.54,659.3,110.57,666.99,112.89,673.79L112.89,673.79z"/>
		</g>
	</g>
	<g class="st11">
		<path d="M277.2,847.41c-7.38,36.32-8.36,73.92-2.9,110.57c-7.33-20.55-8.17-43.34-2.38-64.37"/>
		<g>
			<path d="M264.43,843.89c-7.79,38.95-8.63,78.34-2.9,117.61c8.51-2.35,17.03-4.69,25.54-7.04c-6.47-18.66-7.47-38.2-2.38-57.32
				c4.39-16.49-21.16-23.53-25.54-7.04c-6.23,23.43-5.57,48.47,2.38,71.41c2.34,6.76,9.07,11.23,16.29,9.25
				c7.6-2.09,10.29-9.19,9.25-16.29c-5-34.26-3.88-69.61,2.9-103.53c1.4-7.01-2.01-14.3-9.25-16.29
				C274.2,832.85,265.84,836.84,264.43,843.89L264.43,843.89z"/>
		</g>
	</g>
	<g class="st11">
		<path d="M307.76,868.13c5.21,33.07-1.25,67.84-17.98,96.88c23.26-24.82,33.69-60.97,27.2-94.29"/>
		<g>
			<path d="M294.99,871.66c4.46,29.47-1.8,60.55-16.64,86.68c-7.26,12.79,10.36,27.37,20.8,16.05
				c26.64-28.87,37.8-68.65,30.61-107.18c-1.31-7.04-9.81-11.03-16.29-9.25c-7.38,2.03-10.57,9.24-9.25,16.29
				c5.26,28.18-3.79,59.73-23.8,81.4c6.93,5.35,13.87,10.7,20.8,16.05c18.55-32.65,24.91-70.09,19.31-107.09
				c-1.07-7.08-9.98-10.98-16.29-9.25C296.67,857.44,293.92,864.56,294.99,871.66L294.99,871.66z"/>
		</g>
	</g>
	<g class="st11">
		<path d="M455.13,1622.06c34.24,29.65,74.54,52.34,117.71,66.28c0.1,16.8-20.85,27.4-37.17,23.05s-28.04-18.29-37.64-32.12
			s-18.79-28.83-33.3-37.43"/>
		<g>
			<path d="M445.76,1631.42c36.22,31.21,78.08,54.88,123.56,69.68c-3.24-4.26-6.48-8.51-9.72-12.77c-0.07,3.06,0.78-1.4-0.07,1.21
				c-0.31,0.93-1.35,3.13-0.27,1.17c-0.55,1.01-1.11,2.03-1.81,2.95c1.67-2.19-1.07,0.83-1.49,1.22c-0.7,0.6-0.59,0.54,0.34-0.19
				c-0.49,0.36-1,0.7-1.52,1.02c-1.07,0.61-2.12,1.25-3.23,1.79c-0.84,0.4-0.74,0.36,0.3-0.11c-0.59,0.22-1.18,0.42-1.78,0.6
				c-1.22,0.32-2.42,0.67-3.66,0.93c-0.96,0.17-0.82,0.17,0.41,0c-0.63,0.07-1.25,0.12-1.88,0.14c-1.47,0.01-2.91,0.05-4.38-0.08
				c2.35,0.2-0.61-0.19-1.36-0.38c-1.46-0.38-2.94-0.83-4.34-1.42c-3.64-1.53-8.19-4.85-11.71-8.21
				c-18.7-17.83-28.28-44.22-51.73-58.59c-14.57-8.93-27.9,13.97-13.37,22.87c11.84,7.26,19.54,19.65,27.65,31.38
				c8.81,12.75,18.64,25.44,32.2,33.46c12.77,7.55,28.16,9.87,42.16,4.37c14.62-5.75,25.64-17.9,26.04-34.15
				c0.15-6.01-4.25-10.99-9.72-12.77c-40.95-13.33-79.23-34.75-111.87-62.87c-5.42-4.67-13.41-5.32-18.73,0
				C440.99,1617.47,440.32,1626.73,445.76,1631.42L445.76,1631.42z"/>
		</g>
	</g>
	<g class="st11">
		<path d="M621.98,1672.3c49.14,15.07,106.8-3.27,138.04-43.91c-27.4,23.72-54.8,47.44-82.2,71.16c-8.2,7.1-20.81,8.66-30.51,3.76
			c-9.7-4.9-15.88-15.94-14.96-26.72"/>
		<g>
			<path d="M618.46,1685.07c53.54,16.05,116.42-3.01,150.93-47.31c4.39-5.64,5.5-13.23,0-18.73c-5.37-5.37-13.31-4.7-18.73,0
				c-22.67,19.62-45.33,39.25-68,58.87c-2.74,2.37-5.48,4.74-8.22,7.12c-2,1.73-5.21,4.62-6.26,5.3c-2.61,1.69-2.94,1.65-5.65,2.34
				c-2.3,0.59-0.12,0.32-2.35,0.25c0.03,0-4.12-0.28-2.36-0.01c-2.83-0.44-3.85-0.98-5.66-2.06c-0.73-0.51-0.8-0.5-0.19,0.04
				c-0.55-0.44-1.08-0.91-1.58-1.41c-0.34-0.33-2.19-2.26-1.19-1.02c-0.88-1.08-1.57-2.38-2.24-3.59c-1.39-2.49-0.15,0.73-0.79-2.05
				c-0.1-0.43-0.8-4.18-0.57-2c-0.15-1.4-0.07-2.82,0-4.22c0.41-7.15-6.38-13.24-13.24-13.24c-7.51,0-12.84,6.07-13.24,13.24
				c-0.87,15.35,7.84,31.01,21.52,38.15c15.85,8.27,34.05,4.78,47.31-6.48c27.37-23.24,54.3-47.01,81.45-70.51
				c-6.24-6.24-12.49-12.49-18.73-18.73c-7.39,9.49-16.32,18.02-25.16,24.05c-10.37,7.07-20.33,11.9-31.3,15.39
				c-22.91,7.27-45.89,7.9-68.69,1.06c-6.85-2.05-14.43,2.47-16.29,9.25C607.27,1675.83,611.58,1683.01,618.46,1685.07
				L618.46,1685.07z"/>
		</g>
	</g>
	<g class="st11">
		<path d="M605.9,1690.88c-9.2,72.95,17.62,149.55,70.38,201.03c-22.26-0.63-44.52-1.27-66.78-1.9c8.33-45.7,9.56-92.68,3.63-138.75
			"/>
		<g>
			<path d="M592.66,1690.88c-7.26,59.26,8.28,121.29,41.51,170.79c9.56,14.24,20.52,27.59,32.76,39.61
				c3.12-7.54,6.24-15.07,9.37-22.61c-22.26-0.63-44.52-1.27-66.78-1.9c4.26,5.59,8.51,11.18,12.77,16.77
				c8.46-46.99,10.1-94.88,4.1-142.27c-0.9-7.1-5.44-13.24-13.24-13.24c-6.46,0-14.15,6.1-13.24,13.24
				c5.68,44.92,4.87,90.64-3.16,135.22c-1.54,8.55,3.58,16.5,12.77,16.77c22.26,0.63,44.52,1.27,66.78,1.9
				c11.52,0.33,17.42-14.7,9.37-22.61c-19.81-19.46-35.31-41.71-47.16-67.17c-10.8-23.21-18.26-51.43-20.33-76.6
				c-1.31-15.96-0.96-32.01,0.99-47.9c0.87-7.11-6.71-13.24-13.24-13.24C598.02,1677.64,593.53,1683.75,592.66,1690.88
				L592.66,1690.88z"/>
		</g>
	</g>
	<g class="st11">
		<path d="M395.61,1616.52c26,87.57,41.25,178.29,45.31,269.51c-12.57-2.21-25.15-4.43-37.72-6.64
			c11.02-61.72,15.21-124.64,12.48-187.27"/>
		<g>
			<path d="M382.84,1620.05c19.87,67.15,33.65,136.11,40.53,205.81c1.98,20.02,3.4,40.09,4.31,60.18
				c5.59-4.26,11.18-8.51,16.77-12.77c-12.57-2.21-25.15-4.43-37.72-6.64c3.08,5.43,6.17,10.86,9.25,16.29
				c11.16-62.94,15.66-126.92,12.95-190.79c-0.3-7.15-5.87-13.24-13.24-13.24c-6.94,0-13.55,6.06-13.24,13.24
				c2.61,61.48-1.26,123.16-12,183.75c-1.16,6.52,1.69,14.96,9.25,16.29c12.57,2.21,25.15,4.43,37.72,6.64
				c8.01,1.41,17.19-3.48,16.77-12.77c-3.27-71.97-13.26-143.71-29.95-213.8c-4.74-19.89-10.03-39.63-15.83-59.23
				c-2.03-6.86-9.3-11.17-16.29-9.25C385.27,1605.63,380.8,1613.16,382.84,1620.05L382.84,1620.05z"/>
		</g>
	</g>
	<g class="st11">
		<path d="M757.26,1652.66c-9.98,81.83,13.91,167.24,64.95,232.17c-14.94,3.57-30.48,7.15-45.53,4.04
			c-15.05-3.12-29.44-14.99-30.1-30.27c-2.68-61.79-5.36-123.58-8.03-185.37"/>
		<g>
			<path d="M744.02,1652.66c-7.89,66.21,5.78,134.52,37.08,193.28c9.09,17.07,19.84,33.03,31.74,48.25
				c1.95-7.38,3.9-14.76,5.84-22.14c-8.21,1.95-16.49,4.07-24.93,4.6c-3.81,0.24-7.75,0.34-11.54-0.19
				c-1.59-0.22-3.19-0.61-4.74-1.04c-0.68-0.19-1.35-0.4-2.02-0.62c-0.48-0.16-2.94-1.17-1.45-0.49c-2.32-1.04-5.88-3.2-7.08-4.15
				c-2-1.6-3.63-3.38-4.89-5.45c-1.22-1.99-1.84-3.36-2.14-5.15c0.22,1.27-0.07-0.92-0.07-0.97c-0.06-1.33-0.12-2.66-0.17-3.99
				c-0.1-2.33-0.2-4.65-0.3-6.98c-1.61-37.21-3.23-74.41-4.84-111.62c-0.91-20.93-1.81-41.86-2.72-62.79
				c-0.31-7.15-5.87-13.24-13.24-13.24c-6.93,0-13.56,6.06-13.24,13.24c1.76,40.53,3.51,81.06,5.27,121.59
				c0.89,20.6,1.71,41.2,2.68,61.79c0.82,17.37,10.48,32.07,26.11,39.96c21.08,10.64,44.43,6.26,66.38,1.03
				c4.45-1.06,8.06-4.92,9.25-9.25c1.37-4.99-0.4-9.04-3.41-12.89c-37.54-48.03-59.64-108.99-62.85-169.36
				c-0.95-17.84-0.33-35.71,1.79-53.45c0.85-7.11-6.69-13.24-13.24-13.24C749.4,1639.42,744.87,1645.53,744.02,1652.66
				L744.02,1652.66z"/>
		</g>
	</g>
	<g class="st11">
		<path d="M243.3,1711.43c-1.55,41.09,21.42,80.05,52.13,107.57c30.71,27.51,68.66,45.46,106.03,63.03
			c-92.83-8.56-185.66-17.11-278.49-25.67c38.41-48.14,76.82-96.28,115.22-144.42"/>
		<g>
			<path d="M230.05,1711.43c-0.99,33.02,11.98,64.77,31.87,90.66c21.35,27.78,49.92,48.47,80.39,65.29
				c17.1,9.44,34.79,17.78,52.46,26.08c2.23-8.23,4.46-16.45,6.68-24.68c-72.27-6.66-144.55-13.32-216.82-19.98
				c-20.56-1.89-41.11-3.79-61.67-5.68c3.12,7.54,6.24,15.07,9.37,22.61c38.41-48.14,76.82-96.28,115.22-144.41
				c4.46-5.59,5.46-13.28,0-18.73c-4.62-4.62-14.25-5.62-18.73,0c-38.41,48.14-76.82,96.28-115.22,144.41
				c-7.37,9.24-2.6,21.51,9.37,22.61c72.27,6.66,144.55,13.32,216.82,19.98c20.56,1.89,41.11,3.79,61.67,5.68
				c12.88,1.19,18.36-19.19,6.68-24.68c-55.31-26-116.28-54.86-142.57-113.46c-6.37-14.2-9.51-29.83-9.04-45.7
				c0.22-7.16-6.24-13.24-13.24-13.24C235.94,1698.18,230.27,1704.25,230.05,1711.43L230.05,1711.43z"/>
		</g>
	</g>
</g>
<g id="Ebene_37">
	<g class="st11">
		<g>
			<path d="M272.26,1158c5.73,91.83,52.55,179.62,124.5,236.8c36.92,29.34,79.53,50.67,125.59,61.23
				c47.1,10.8,96.2,10.98,143.53,1.46c53.24-10.71,103.39-34.49,145.15-69.2c5.5-4.58,4.73-14,0-18.73
				c-5.45-5.45-13.21-4.59-18.73,0c-33.55,27.9-74.32,47.77-117.06,58.65c-41.7,10.62-87.52,12.82-129.39,5.58
				c-86.09-14.89-159.65-67.77-204.24-141.66c-12.8-21.21-22.19-41.66-29.53-64.6c-3.71-11.59-6.75-23.41-9.04-35.36
				c-2.35-12.24-3.47-21.29-4.28-34.17c-0.45-7.14-5.77-13.24-13.24-13.24C278.68,1144.75,271.81,1150.82,272.26,1158L272.26,1158z"
				/>
		</g>
	</g>
	<g class="st11">
		<g>
			<path d="M573.05,1063.04c-8.98,11.88-9.66,29.33-2.23,42.13c7.23,12.45,21.77,20.19,36.12,19.29
				c7.14-0.45,13.24-5.77,13.24-13.24c0-6.82-6.07-13.69-13.24-13.24c-0.96,0.06-1.9,0.08-2.86,0.09c-0.57,0.01-2.13-0.26-0.73-0.01
				c-0.94-0.17-1.85-0.45-2.77-0.71c-0.39-0.11-2-0.85-0.81-0.27c-0.85-0.41-1.69-0.9-2.49-1.41c-0.3-0.19-1.69-1.35-0.73-0.51
				c-1.93-1.68-1.8-1.52-2.87-3.36c-1.56-2.69-1.75-4.03-1.44-7.64c0.01-0.16,0.4-2.18,0.66-2.88c0.35-0.94,1.97-3.5,3.02-4.88
				c4.32-5.71,0.91-14.81-4.75-18.12C584.38,1054.32,577.37,1057.31,573.05,1063.04L573.05,1063.04z"/>
		</g>
	</g>
</g>
<g id="Ebene_17">
	<g>
		<g id="Ebene_7">
			<g>
				<path class="st12" d="M883.87,895.63c-15.04,5.07-18.3,26.87-5.56,37.18c-40.34,44.46-36.2,119.34,9.12,164.99
					c14.37,14.48,32.62,26.24,52.86,30.84c37.38,8.49,75.77-9.44,96.99-37.28c8.1-10.63,14.15-22.54,20.15-34.38
					c12.79-25.24,25.59-50.49,38.39-75.73c3.56-7.02,7.19-14.35,7.05-22.31c-0.28-16.61-16.32-29.91-31.65-39.46
					c-37.49-23.35-79.8-39.62-123.31-47.4c-12.42-2.22-25.27-3.75-37.25-1.14s-23.06,10.08-26.29,21.07"/>
				<g>
					<path class="st12" d="M884.1,891.64c-17.51,6.36-26.76,30.61-10.29,44.53c0.35-1.67,0.69-3.35,1.03-5.03
						c-28.77,32.02-36.52,78.12-22.66,119.78c14.93,44.88,59.6,87.98,112.59,83.81c24.45-1.92,46.7-13.04,63.64-28.34
						c20.97-18.96,31.74-45.67,44.08-70.01c6.83-13.48,13.66-26.95,20.49-40.43c3.37-6.64,6.86-13.22,10.04-19.94
						c2.81-5.94,5.16-12.4,4.92-19.15c-0.87-24.01-28.8-39.57-48.77-50.58c-27.93-15.41-58.1-26.98-89.14-34.38
						c-26.94-6.42-59.77-12.91-80.88,6.1c-4.46,4.02-7.83,8.92-9.63,14.54c-0.73,2.27,0.81,3.89,3.34,3.74
						c2.67-0.16,5.62-2.42,6.37-4.77c7.77-24.3,44.09-17.75,64.96-13.44c29.3,6.05,57.87,16.02,84.68,29.39
						c12.26,6.11,24.51,12.78,35.65,20.64c8.56,6.04,17.27,13.76,21.17,23.19c5.1,12.36-1.1,23.28-6.48,33.89
						c-6.29,12.41-12.58,24.82-18.87,37.23c-6.37,12.56-12.71,25.14-19.11,37.69c-5.81,11.4-11.79,23.02-20.1,32.96
						c-12.91,15.44-31.26,27.27-52.3,31.65c-48.33,10.09-93.74-25.99-112.03-66.78c-16.45-36.7-15.15-79.85,6.28-112.23
						c2.61-3.94,5.51-7.65,8.69-11.2c0.89-0.99,2.64-3.67,1.03-5.03c-5.32-4.51-7.75-10.71-7.24-17.08
						c0.39-5.07,2.71-10.81,8.06-12.75c2.37-0.86,5.31-2.89,5.31-5.56C888.96,891.56,886.2,890.88,884.1,891.64L884.1,891.64z"/>
				</g>
			</g>
			<g>
				<g>
					<path class="st12" d="M908.76,1130.05c4.41,1.66,12.28-6.08,7.43-7.9C911.78,1120.48,903.92,1128.23,908.76,1130.05
						L908.76,1130.05z"/>
				</g>
			</g>
			<g>
				<g>
					<path class="st12" d="M900.81,1129.67c0.86,8.62,7.31,16.41,16.84,18.21c9.93,1.88,19.77-3.34,24.58-10.81
						c0.67-1.05,1.48-3.93-0.6-4.54c-9.67-2.84-19.35-5.67-29.02-8.5c-2.74-0.8-5.46,0.42-7.19,2.3c-0.95,1.04-3.02,4.79-0.24,5.61
						c9.67,2.84,19.35,5.67,29.02,8.5c-0.2-1.51-0.4-3.02-0.6-4.54c-6.29,9.77-21.7-0.23-22.61-9.38
						C910.4,1120.76,900.39,1125.5,900.81,1129.67L900.81,1129.67z"/>
				</g>
			</g>
		</g>
		<g id="Ebene_5_1_">
			<g>
				<path class="st13" d="M1108.33,935.18c26.11-70.13,95.93-115.29,164.06-152.99s141.27-74.9,181.32-138.45
					c50.65-80.36,34.71-191.8-28.13-271.71s-166.18-128.73-269.49-140.07c-64.39-7.07-130.3-0.44-187.04,24.42
					s-116.48,73.28-137.21,128.51c-28.72,76.54,7.09,159.08,31.62,240.1c24.53,81.02,50.66,166.72,27.74,245.23
					c75.33-2.56,153.39,23.35,212.68,70.62"/>
				<g>
					<path class="st13" d="M1113.18,934.67c22.88-60.79,79.01-101.85,135.45-134.93c56.79-33.28,117.94-61.44,166.36-105.11
						c22.94-20.68,42.23-44.87,55.01-72.43c11.76-25.34,17.85-53.2,18.75-81.35c1.8-56.7-16.99-115.15-52.32-163.78
						c-38.24-52.64-94.96-93.05-156.71-118.48c-63.23-26.04-132.79-37.36-199.7-32.48c-33.33,2.43-66.2,9.08-96.68,20.55
						c-30.07,11.33-57.88,27.23-82.53,46.37c-25.01,19.41-47.49,42.48-62.93,69.42c-14.8,25.8-21.7,55.09-21.78,85.03
						c-0.16,61.94,25.01,122.68,43.13,182.54c19.26,63.62,39.62,129.4,35.1,194.77c-1.09,15.62-3.67,31-7.99,45.94
						c-0.67,2.34,0.71,3.82,3.34,3.74c57.92-1.84,117.19,13.27,168.33,42.01c14.54,8.17,28.39,17.44,41.35,27.72
						c3.96,3.14,12.63-3.87,9.01-6.74c-46.98-37.27-104.95-61.55-164.71-69.14c-16.98-2.15-34.03-2.9-50.96-2.36
						c1.12,1.25,2.23,2.49,3.34,3.74c17.73-61.43,6.29-127.07-10.75-189.6c-8.52-31.26-18.16-62.34-28.14-93.31
						c-9.68-30.02-19.47-60.14-25.48-90.81c-5.77-29.44-7.78-59.61-1.76-88.44c6.08-29.13,20.88-54.9,40.89-77.13
						c40.72-45.26,98.47-77.46,161.78-89.9c64.29-12.64,133.99-7.92,198.52,11.4c63.86,19.12,124.26,52.88,169.74,100.27
						c42.44,44.23,69.44,99.62,76.23,156.97c6.77,57.2-7.85,113.87-45.03,157.57c-40.92,48.08-100.18,78.6-156.28,109.54
						c-56.98,31.43-115.22,66.53-151.36,119.3c-8.57,12.52-15.63,25.98-20.95,40.12c-0.85,2.25,0.9,3.89,3.34,3.74
						C1109.59,939.27,1112.31,937,1113.18,934.67L1113.18,934.67z"/>
				</g>
			</g>
		</g>
		<g id="Ebene_6">
			<g>
				<path class="st14" d="M1401.07,489.7c-19.6-60.5-68.4-134.3-127.11-168.61c-58.71-34.32-165.6-37.1-228.99-19.65
					c-87.65,24.13-139.98,124.88-140.99,211.13c-0.88,74.68,71.67,132.89,144.43,169.81c72.74,36.92,169.12,61.42,235.53,22.98
					c66.4-38.44,117.97-140.7,117.08-215.49"/>
				<g>
					<path class="st14" d="M1406.04,487.16c-8.3-25.43-20.31-49.99-34.76-73.23c-15.05-24.21-33.04-47.25-54.42-67.19
						c-18.52-17.27-39.64-32-63.79-41.2c-24.24-9.24-50.07-14.21-75.61-16.79c-26.96-2.72-54.17-2.82-80.78-0.31
						c-23.46,2.21-47.26,6.21-68.59,14.87c-43.24,17.57-75.46,52.07-96.63,90.43c-10.94,19.82-19.29,40.99-24.82,62.93
						c-5.31,21.09-8.87,43.49-7.56,65.59c2.66,44.95,32.04,84.36,68.3,114.38c38.02,31.48,83.78,56.08,130.78,72.65
						c46.85,16.52,98.63,25.93,146.33,15.16c46.64-10.53,81.06-42.89,106.5-78.54c26.93-37.73,46.18-81.99,52.96-127.85
						c1.45-9.82,2.23-19.75,2.14-29.75c-0.05-5.67-10.21-1.03-10.17,3.15c0.39,43.38-14.28,86.15-34.83,123.47
						c-10.74,19.49-23.49,38.03-38.83,54.54c-13.74,14.79-29.68,28.28-48.61,37.3c-41.22,19.62-92.07,15.79-137.37,4.06
						c-47.03-12.18-92.54-33.7-132.62-60.62c-38.02-25.54-74.22-59.36-88.45-101.39c-7.04-20.78-7-41.75-4.49-62.64
						c2.59-21.52,8.06-42.54,15.95-62.6c15.42-39.16,40.72-76.13,77.62-100.02c17.45-11.3,37.32-18.26,58.45-22.28
						c24.14-4.6,49.19-6.41,74.17-6.04c48.53,0.72,101.99,8.24,143.52,36.24c22.89,15.43,42.3,35.38,58.93,56.49
						c17.28,21.93,31.82,45.67,43.31,70.41c5.16,11.09,9.68,22.4,13.42,33.9C1397.65,497.02,1407.42,491.37,1406.04,487.16
						L1406.04,487.16z"/>
				</g>
			</g>
		</g>
		<g id="Ebene_3_1_">
			<g>
				<g>
					<path d="M1107.57,949.59c15.31-29.47,35.65-56.04,59.66-79.67c23.49-23.11,50.12-43.27,77.7-62.1
						c28.37-19.36,57.4-37.78,88.27-53.76c29.97-15.51,61.11-30.42,86.29-52.15c44.36-38.26,68.24-93.77,71.85-150.97
						c3.64-57.55-12.7-117.09-47.2-167.54c-36.86-53.89-92-96.37-153.21-124.21c-62.23-28.3-130.98-41.73-198.18-39.18
						c-67.95,2.58-134.95,22.25-186.41,61.36c-52.17,39.63-88.79,98.69-91.8,163.72c-1.52,32.93,5.79,66.09,15.35,98.32
						c9.61,32.38,21.08,64.34,30.07,96.86c16.59,59.94,26.2,120.35,27.42,181.34c0.34,16.95,0.15,33.87-0.4,50.76
						c-0.18,5.6,10.03,1.01,10.17-3.15c2.02-61.95-1.83-124.08-15.25-185.84c-6.64-30.54-15.09-60.85-24.75-90.87
						c-10.26-31.91-21.57-63.74-27.92-96.36c-6.27-32.22-6.54-64.66,2.17-95.59c8.49-30.16,24.17-58.02,45.09-81.76
						c41.66-47.25,102.34-75.81,168.15-85.99c65.05-10.07,134.22-3.44,198.17,18.21c63.09,21.36,121.96,57.19,165.86,105.66
						c41.78,46.12,67.37,102.54,72.15,160.97c4.56,55.69-9.05,112.77-44.29,156.25c-19.65,24.24-45.48,41.57-73.65,56.71
						c-15,8.07-30.34,15.62-45.36,23.67c-14.73,7.89-28.77,16.62-42.75,25.53c-56.31,35.94-111.25,75.22-150.38,127.9
						c-9.59,12.91-18.08,26.53-25.46,40.72C1095.63,954.78,1105.37,953.82,1107.57,949.59L1107.57,949.59z"/>
				</g>
			</g>
			<g>
				<g>
					<path d="M881.27,888.72c0.79,6.61,6.25,12.45,11.42,16.87c8.58,7.34,18.7,13.11,28.83,18.28
						c31.24,15.94,65.1,27.22,98.62,37.29c10.31,3.1,20.67,6.06,31.05,8.87c9.59,2.61,19.73,6.28,29.62,6.88
						c8.12,0.5,16.33-0.92,22.57-5.56c6.55-4.86,9.3-12.66,6.76-20.53c-2.69-8.33-9.66-15.67-16.32-21.7
						c-7.55-6.84-16.14-12.67-25.07-17.81c-19.02-10.94-39.62-19.68-60.41-26.79c-23.3-7.96-47.35-13.77-71.62-17.17
						c-11.21-1.58-23.9-4.01-34.92-1.86c-9.83,1.92-19.11,8.7-19.83,18.58c-0.19,2.61,2.87,2.96,4.85,2.42
						c2.49-0.69,5.13-3.01,5.31-5.56c0.6-8.24,11.76-7.88,18.55-7.39c9.87,0.73,19.77,2.05,29.58,3.67
						c20.03,3.3,39.86,8.22,59.18,14.73c18.49,6.23,36.6,13.84,53.86,22.89c16.08,8.44,32.75,18.98,43.03,33.67
						c3.25,4.65,7.76,13.7,2.04,17.77c-4.97,3.53-13.81,2.37-19.68,1.05c-19.03-4.29-37.96-10.03-56.63-15.75
						c-30.5-9.35-61.13-19.8-89.79-33.95c-10.24-5.06-20.64-10.61-29.42-17.81c-5.35-4.38-10.87-9.65-11.66-16.21
						c-0.32-2.63-4.69-1.58-6.05-0.9C882.8,883.9,880.96,886.09,881.27,888.72L881.27,888.72z"/>
				</g>
			</g>
			<g>
				<g>
					<path d="M886.91,888.78c-19.73,2.12-30.22,22.44-22.46,39.42c9.71,21.24,35.35,29.87,56.53,37.62
						c25.01,9.15,50.52,16.83,76.14,23.97c13.04,3.63,26.11,7.11,39.19,10.57c10.65,2.81,21.43,5.99,32.4,5.55
						c10.67-0.43,19.2-5.23,25.28-12.92c4.97-6.29,9.51-15.63,5.67-23.83c-2.23-4.75-11.81,1.1-9.94,5.09
						c2.63,5.61,0.21,11.69-3.25,16.15c-4.12,5.33-9.39,7.15-16.66,7.03c-9.45-0.15-18.95-3.15-28.1-5.56
						c-11.03-2.91-22.05-5.84-33.06-8.87c-22.15-6.09-44.23-12.58-65.99-20.04c-10.42-3.57-20.8-7.32-31.02-11.45
						c-9.62-3.88-19.47-8.35-27.15-15.27c-6.99-6.3-12.78-14.93-12.67-23.95c0.08-7,4.09-14.16,12.06-15.02
						c2.72-0.29,5.6-2.31,6.37-4.77C890.95,890.31,889.52,888.5,886.91,888.78L886.91,888.78z"/>
				</g>
			</g>
			<g>
				<g>
					<path d="M865.38,930.62c-5.93,6.13-10.31,13.82-13.17,21.69c-2.72,7.51-3.63,15.16,0.42,22.84
						c10.8,20.46,38.58,24.96,59.39,30.82c25.12,7.08,50.24,14.15,75.37,21.24c12.31,3.46,24.61,6.93,36.92,10.4
						c10.15,2.86,20.91,6.8,31.45,5.81c23.15-2.16,28.16-26.31,27.49-44.5c-0.21-5.71-10.32-1.03-10.17,3.15
						c0.28,7.54-0.14,15.28-2.63,22.34c-2.38,6.74-6.32,10.79-14.51,10.6c-9.3-0.22-18.83-3.8-27.78-6.32
						c-11.28-3.18-22.56-6.36-33.83-9.53c-22.04-6.21-44.09-12.42-66.13-18.63c-11.12-3.13-22.33-6.07-33.37-9.47
						c-9.7-2.98-19.67-6.85-26.86-14.07c-6.28-6.3-9.37-13.85-7.24-21.89c2.03-7.68,6-15.35,11.61-21.15
						c1.36-1.4,2.66-4.27,0.24-5.61C870.16,926.99,866.79,929.16,865.38,930.62L865.38,930.62z"/>
				</g>
			</g>
			<g>
				<g>
					<path d="M857.58,970.98c-12.82,7.59-18.55,24.59-16.37,38.72c3,19.45,30.25,25.17,46.9,29.69
						c26.12,7.08,52.24,14.17,78.36,21.25c12.93,3.51,25.86,7.02,38.79,10.52c10.51,2.85,21.23,6.4,32.1,6.48
						c11.25,0.08,20.94-4.27,26.46-13.15c5.24-8.42,6.95-19,6.01-28.92c-0.54-5.75-10.56-1.03-10.17,3.15
						c0.72,7.67,0,15.82-3.39,22.69c-1.14,2.31-2.69,4.88-5.19,6.1c-3.43,1.67-7.99,1.8-11.9,1.53c-9.65-0.68-19.2-3.82-28.54-6.36
						c-11.12-3.02-22.24-6.03-33.36-9.05c-22.5-6.1-45-12.21-67.5-18.31c-10.81-2.93-21.82-5.5-32.45-9.06
						c-8.43-2.82-18.77-7.02-23.76-14.53c-3.58-5.39-3.06-12.8-1.86-18.48c1.07-5.08,3.68-12.82,8-15.38
						c1.91-1.14,4.8-3.45,3.89-5.99C862.77,969.47,859.22,970.01,857.58,970.98L857.58,970.98z"/>
				</g>
			</g>
			<g>
				<g>
					<path d="M849.27,1018.08c-13.44,6.76-15.88,25.39-3.96,35.85c7.29,6.39,16.77,9.68,25.76,13.13
						c10.68,4.08,21.36,8.18,32.04,12.26c21.36,8.18,42.72,16.34,64.08,24.52c18.33,7.01,38.13,16.51,57.69,11.94
						c9.22-2.16,17.35-7.66,21.64-15.5c4.97-9.09,5.32-19.55,3.9-29.84c-0.36-2.63-4.67-1.59-6.05-0.9
						c-2.33,1.16-4.25,3.38-3.89,5.99c1.06,7.7,1.09,16.27-2.39,23.21c-2.72,5.43-7.89,8.35-14.26,9.32
						c-16.99,2.62-35-6.69-50.7-12.7c-17.64-6.75-35.27-13.49-52.9-20.24c-17.43-6.67-35.19-12.83-52.37-20.15
						c-7.23-3.08-16.33-7.55-19.08-15.03c-1.57-4.26-2.14-12.55,2.66-14.96c1.98-0.99,4.76-3.55,3.89-5.99
						C854.44,1016.47,850.97,1017.22,849.27,1018.08L849.27,1018.08z"/>
				</g>
			</g>
			<g>
				<g>
					<path d="M861.12,1062.86c-0.56,12.77,2.2,25.61,10.27,36.72c7.03,9.67,17.38,16.99,28.16,22.67
						c22.58,11.9,48.74,18.53,73.49,13.34c14.81-3.11,27.48-10.76,35.64-22.45c1.23-1.76,1.02-4.29-1.62-4.83
						c-2.8-0.57-5.7,1.77-7.01,3.66c-12.22,17.51-38.24,19.06-59.38,14.91c-11.03-2.16-21.49-6.36-31.51-11.42
						c-9.84-4.97-19.16-11.08-26.18-19.35c-9.06-10.67-12.27-23.51-11.7-36.4C871.54,1054.13,861.3,1058.72,861.12,1062.86
						L861.12,1062.86z"/>
				</g>
			</g>
			<g>
				<path class="st15" d="M901.6,1119c-4.18,8.21,2.09,24.5,14.45,27.79c9.83,2.61,26.82-1.69,31.38-10.51"/>
				<g>
					<path d="M896.75,1119.51c-5.14,11.13,2.83,27.74,16.1,31.38c13.79,3.79,32.49-2.69,38.9-14.02c1.03-1.83,1.15-4.26-1.62-4.83
						c-2.63-0.54-5.91,1.71-7.01,3.66c-4,7.07-17.91,9.62-25.83,6.27c-8.68-3.67-14.44-15.65-10.82-23.48
						c1.03-2.23-1.02-3.88-3.34-3.74C900.2,1114.92,897.81,1117.21,896.75,1119.51L896.75,1119.51z"/>
				</g>
			</g>
		</g>
		<g id="Ebene_8_1_">
			<g class="st16">
				<path class="st17" d="M908.29,870.49c-10.31-1.87-17.19,10.45-13.44,19.67c3.74,9.22,13.55,15.16,22.81,20.11
					c39.58,21.14,81.85,37.55,125.35,48.67c20.53,5.25,43,9.19,61.58,1.33c-70.16-15.08-153.43-32.49-195.53-86.68"/>
				<g>
					<path class="st17" d="M910.99,866.25c-14.11-2.03-24.64,12.36-21.75,24.44c1.71,7.19,7.95,12.92,14.15,17.25
						c7.98,5.57,17.13,9.83,25.87,14.16c37.5,18.56,77.57,33.51,118.36,42.86c18.87,4.32,39.16,6.48,56.73-0.71
						c2.36-0.96,8.99-6.93,2.93-8.23c-54.53-11.72-113.42-23-160.38-54.95c-12.72-8.65-24.05-19.02-33.34-30.85
						c-2.91-3.71-12.04,2.88-9.01,6.74c35.05,44.69,95.04,63.6,149.15,76.76c16,3.89,32.1,7.33,48.19,10.79
						c0.98-2.75,1.96-5.49,2.93-8.23c-13.44,5.5-28.49,4.7-43.14,2c-17.26-3.18-34.36-8.33-51.06-13.82
						c-17.63-5.79-34.97-12.46-51.94-19.96c-8.6-3.81-17.1-7.82-25.5-12.05c-7.4-3.73-15.04-7.4-21.86-12.06
						c-5.85-4-12.31-10.13-12.42-17.13c-0.07-4.03,1.48-9.26,6.69-8.51C910.03,875.38,917.04,867.12,910.99,866.25L910.99,866.25z"
						/>
				</g>
			</g>
			<g class="st16">
				<path class="st17" d="M881.24,900.24c-10.66,4.64-11.19,19.64-4.1,29.14c7.09,9.5,19.01,14.73,30.35,19.31
					c47.97,19.33,97.23,35.52,147.25,48.4c12.86,3.31,29.15,5.38,36.22-4.44c-36.25-1.86-191.44-34.54-208.44-94.89"/>
				<g>
					<path class="st17" d="M880.16,896.79c-13.77,6.55-16.52,23.71-7.53,35.96c5.18,7.05,13.38,11.98,21.4,15.72
						c9.46,4.42,19.35,8.03,29.1,11.77c41.17,15.75,83.22,29.2,125.82,40.29c16.66,4.34,35.57,6.73,46.33-7.3
						c1.12-1.47,1.15-4.68-1.62-4.83c-10.87-0.58-21.8-2.5-32.55-4.52c-16.16-3.04-32.22-6.85-48.1-11.31
						c-33.62-9.45-69.03-21.78-97.4-42.38c-12.46-9.05-23.98-20.7-28.11-34.97c-1.38-4.76-11.18,0.83-9.94,5.09
						c8.27,28.58,41.46,46.83,68.2,58.86c32.88,14.8,68.26,24.83,103.46,31.94c12.86,2.6,26.01,5.09,39.05,5.79
						c-0.54-1.61-1.08-3.22-1.62-4.83c-2.75,3.59-9.14,3.69-13.57,3.44c-6.88-0.39-13.59-2.12-20.28-3.87
						c-18.72-4.9-37.33-10.28-55.8-16.12c-18.05-5.7-35.96-11.84-53.72-18.4c-9-3.33-17.97-6.76-26.89-10.31
						c-7.65-3.04-15.46-6.01-22.54-10.22c-6.98-4.15-13.38-9.89-15.54-17.43c-1.49-5.19-1.62-12.82,3.98-15.48
						c2-0.95,4.75-3.58,3.89-5.99C885.31,895.16,881.87,895.98,880.16,896.79L880.16,896.79z"/>
				</g>
			</g>
			<g class="st16">
				<path class="st17" d="M868.33,941.05c-12.77,3.2-14.19,20.86-5.67,31.04c8.53,10.18,22.54,14.55,35.63,18.35
					c45.1,13.07,90.21,26.14,135.31,39.22c13.53,3.92,30.26,7.16,39.23-2.15c-58.88-11.75-192.4-37.12-200.46-90.91"/>
				<g>
					<path class="st17" d="M868.56,937.07c-14.03,3.97-19.79,19.18-14.3,31.96c6.91,16.1,27.51,21.65,43.38,26.25
						c43.31,12.55,86.63,25.1,129.93,37.65c16.86,4.88,35.86,8.86,48.73-3.78c1.7-1.67,2.71-5.21-0.78-5.9
						c-30.19-6.02-60.37-12.17-90.08-20.56c-16.3-4.6-32.48-9.89-48.12-16.43c-13.53-5.66-27.18-12.29-38.71-21.26
						c-10.47-8.14-19.27-18.39-21.26-30.96c-0.73-4.6-10.64,0.75-9.94,5.09c4.02,25.29,32.47,41.56,55.21,51.86
						c31.61,14.33,65.79,23.15,99.47,30.75c15.98,3.6,32.02,6.8,48.06,10c-0.26-1.97-0.52-3.93-0.78-5.9
						c-3.62,3.54-9.8,3.7-14.92,3.28c-7.13-0.59-14.08-2.54-20.96-4.54c-18.45-5.34-36.91-10.69-55.36-16.04
						c-18.71-5.42-37.42-10.85-56.13-16.26c-8.79-2.55-17.62-4.97-26.36-7.7c-7.51-2.34-15.2-5.12-21.66-9.64
						c-6.15-4.3-10.68-10.22-11.49-17.26c-0.54-4.72,0.22-11.12,5.62-12.65c2.4-0.68,5.3-3.01,5.31-5.56
						C873.43,936.86,870.69,936.47,868.56,937.07L868.56,937.07z"/>
				</g>
			</g>
			<g class="st16">
				<path class="st17" d="M856.78,984.69c-8.77,5.51-9.44,18.28-3.54,27.16c5.9,8.88,16.64,14.23,27.36,16.89
					c10.71,2.66,21.76,3.09,32.64,4.76c25.07,3.84,48.8,14.17,73.03,22.03c24.23,7.86,50.55,13.31,74.31,7.05
					c-46.95-8.81-171.62-30.02-203.57-78.78"/>
				<g>
					<path class="st17" d="M854.41,982.04c-11.83,8.01-13.23,24.28-3.84,35.64c10.93,13.21,29.63,16.47,45.82,18.32
						c9.52,1.09,18.93,2.3,28.3,4.58c9.79,2.38,19.38,5.55,28.9,8.86c17.08,5.95,34.05,12.42,51.7,16.39
						c18.39,4.15,37.24,5.27,55.06,0.74c2.73-0.69,8.72-7.15,2.93-8.23c-26.74-5.01-53.46-10.06-79.9-16.77
						c-30.54-7.76-61.84-17.26-89.3-33.03c-12.64-7.26-24.65-16.23-32.55-28.11c-2.52-3.78-11.74,2.64-9.01,6.74
						c15.16,22.81,44.5,36.17,70,45.82c30.52,11.56,62.42,19.35,94.23,25.92c13.69,2.82,27.42,5.34,41.15,7.92
						c0.98-2.75,1.96-5.49,2.93-8.23c-30.02,7.64-62.22-3.77-91.11-14c-16.14-5.72-32.43-11.47-49.27-14.58
						c-16-2.95-33.19-2.23-48.21-9.54c-7.03-3.43-13.75-8.76-16.4-15.88c-2.18-5.86-2.2-13.52,3.33-17.26
						c1.62-1.1,3.89-4.06,2.14-6.02C859.45,979.27,855.98,980.98,854.41,982.04L854.41,982.04z"/>
				</g>
			</g>
			<g class="st16">
				<path class="st17" d="M852.07,1022.1c-7.47,6.59-5.03,19.21,2.3,26.83c7.33,7.62,17.99,11.47,28.18,15.02
					c35.85,12.51,71.7,25.01,107.55,37.52c17.16,5.99,37.5,11.7,51.7,2.4c-68.37-9.97-143.33-33.53-191.45-82.35"/>
				<g>
					<path class="st17" d="M848.59,1020.44c-9.65,9.19-7.06,24.54,3.18,33.69c5.9,5.28,13.24,8.69,20.68,11.49
						c8.62,3.24,17.39,6.13,26.09,9.16c17.93,6.26,35.85,12.51,53.77,18.76c16.12,5.62,32.21,12.03,48.7,16.47
						c15.17,4.08,30.33,4.58,43.17-3.48c2.04-1.28,4.69-6.25,0.33-6.89c-53.59-7.88-108.42-22.99-154.31-52.84
						c-12.83-8.35-24.7-17.91-35.33-28.63c-3.47-3.49-12.4,3.32-9.01,6.74c38.89,39.18,92.88,61.47,146.56,74.32
						c15.45,3.7,31.05,6.61,46.7,8.91c0.11-2.3,0.22-4.6,0.33-6.89c-8.87,5.57-21.87,3.18-31.93,0.58
						c-14.39-3.73-28.44-9.43-42.47-14.32c-15.91-5.55-31.81-11.1-47.72-16.65c-8.08-2.82-16.16-5.64-24.24-8.46
						c-6.96-2.43-14.06-4.67-20.76-7.78c-6.96-3.24-13.92-7.72-17.37-14.44c-2.68-5.22-3.83-12.19,0.58-16.39
						c1.42-1.35,2.61-4.3,0.24-5.61C853.33,1016.79,850.08,1019.03,848.59,1020.44L848.59,1020.44z"/>
				</g>
			</g>
			<g class="st16">
				<path class="st17" d="M867.29,1066.02c7.7,21.66,24.93,40.78,46.68,51.82c21.76,11.03,47.76,13.83,70.46,7.59
					c-41.78-9-81.13-30.76-110.27-60.99"/>
				<g>
					<path class="st17" d="M862.31,1068.56c7.97,21.91,24.87,41.15,46.82,52.65c23.24,12.17,50.74,14.71,75.06,8.21
						c2.79-0.75,8.68-6.97,2.93-8.23c-41.23-9.03-79.59-30.38-108.47-60.12c-3.42-3.52-12.37,3.28-9.01,6.74
						c29.89,30.79,69.45,52.54,112.08,61.87c0.98-2.75,1.96-5.49,2.93-8.23c-22.5,6.01-48.01,2.73-69.2-8.73
						c-20.21-10.92-35.8-28.91-43.19-49.23C870.52,1058.69,860.8,1064.4,862.31,1068.56L862.31,1068.56z"/>
				</g>
			</g>
			<g class="st16">
				<path class="st17" d="M903.76,1120.66c-0.93,7.53,2.87,15.69,9.57,20.55c6.7,4.86,16.04,6.22,23.51,3.42
					c-12.11-5.61-22.04-15.56-27.11-27.16"/>
				<g>
					<path class="st17" d="M898.68,1122.23c-0.81,8.43,3.03,17.17,10.54,22.64c7.95,5.79,18.56,6.79,27.39,3.75
						c2.19-0.76,8.38-5.82,3.95-7.94c-11.58-5.52-20.82-14.63-25.85-25.75c-2.16-4.76-11.77,1.07-9.94,5.09
						c5.56,12.3,15.52,22.43,28.36,28.56c1.32-2.65,2.63-5.29,3.95-7.94c-14.49,4.99-29.56-7.68-28.23-21.56
						c0.25-2.61-2.91-2.95-4.85-2.42C901.46,1117.38,898.92,1119.67,898.68,1122.23L898.68,1122.23z"/>
				</g>
			</g>
		</g>
		<g id="Ebene_4_1_">
			<g>
				<g>
					<path d="M909.86,872.54c46.86-28.74,93.07-58.35,137.8-89.74c44.87-31.49,88.28-64.77,129.08-100.65
						c40.3-35.45,78.96-73.27,112.07-114.8c16.58-20.81,32.22-44.85,33.12-72.2c0.69-20.65-8.21-43.8-26.31-57.8
						c-19-14.7-43.38-15.07-63.79-6.07c-24.07,10.62-38.4,32.46-46.55,55.43c-2.23,6.29-4.05,12.71-5.69,19.19
						c-1.54,6.06,7.52,3.23,9.18,0.08c11.48-21.87,23.71-45.29,20.74-71.09c-2.42-21.03-15.37-41.66-38.28-48.81
						c-22.82-7.12-47.41-1.25-65.9,10.28c-20.02,12.49-34.27,31.18-43.25,51.95c-20.1,46.45-11.7,99.89-6.29,149.71
						c5.76,53.09,12.66,106.13,18.34,159.23c5.66,52.84,10.26,105.79,11.04,158.61c0.09,6.39,0.12,12.78,0.1,19.17
						c-0.02,5.65,10.15,1.02,10.17-3.15c0.21-50.11-3.42-100.4-8.35-150.6c-4.97-50.63-11.35-101.21-17.23-151.8
						c-2.88-24.82-5.72-49.66-8.02-74.5c-2.34-25.23-3.61-50.72,0.51-75.45c6.57-39.41,32.28-84.8,80.11-87.86
						c10.79-0.69,22.01,1.31,31.66,6.72c9.54,5.35,16.63,13.92,20.72,23.38c9.69,22.39,3.5,45.34-5.91,65.63
						c-2.73,5.89-5.77,11.65-8.78,17.41c3.06,0.02,6.12,0.05,9.18,0.08c5.8-22.89,14.34-47.45,35.29-61.59
						c16.92-11.43,40.47-13.48,59.19-1.19c18.39,12.07,27.99,34.39,28,54.07c0.02,25.86-14.73,48.85-30.38,68.41
						c-31.58,39.47-68.12,75.72-106.36,109.6c-38.45,34.05-79.28,65.76-121.48,95.81c-42.07,29.96-85.51,58.28-129.66,85.66
						c-5.4,3.35-10.81,6.68-16.22,10c-1.9,1.16-4.81,3.43-3.89,5.99C904.65,874.04,908.23,873.55,909.86,872.54L909.86,872.54z"/>
				</g>
			</g>
			<g>
				<g>
					<path d="M1388.57,419.36c26.4,40.37,33.89,89.84,20,132.95c-0.73,2.27,0.81,3.89,3.34,3.74c2.68-0.16,5.62-2.42,6.37-4.77
						c14.55-45.17,6.96-96.37-20.7-138.67C1395.11,408.83,1385.87,415.23,1388.57,419.36L1388.57,419.36z"/>
				</g>
			</g>
			<g>
				<g>
					<path d="M894.57,420.37c-17.85,37.08-22.31,79.97-13.11,121.22c2.63,11.78,6.42,23.38,11.27,34.68
						c2.05,4.78,11.69-1.03,9.94-5.09c-16.59-38.6-20.26-81.06-10.12-119.97c2.86-10.99,6.81-21.64,11.73-31.86
						c1.07-2.23-1.05-3.89-3.34-3.74C897.99,415.78,895.68,418.07,894.57,420.37L894.57,420.37z"/>
				</g>
			</g>
		</g>
	</g>
</g>
</svg>
