<?xml version="1.0" encoding="utf-8"?>
<!-- Generator: Adobe Adobe Illustrator 24.2.0, SVG Export Plug-In . SVG Version: 6.00 Build 0)  -->
<svg version="1.1" xmlns="http://www.w3.org/2000/svg" xmlns:xlink="http://www.w3.org/1999/xlink" x="0px" y="0px"
	 viewBox="0 0 2000 2000" style="enable-background:new 0 0 2000 2000;" xml:space="preserve">
<style type="text/css">
	.st0{fill:#D2E0EC;}
	.st1{fill:#6CB571;}
	.st2{fill:#885E5B;}
	.st3{fill:#F0C1A1;}
	.st4{fill:#FFFFFF;stroke:#FFFFFF;stroke-width:0.814;stroke-miterlimit:10;}
	.st5{opacity:0.4;}
	.st6{fill:#CA354F;}
	.st7{display:none;}
	.st8{fill:#6BB571;}
	.st9{fill:#C9344E;}
	.st10{fill:#F3C058;}
	.st11{opacity:0.1098;}
	.st12{opacity:0.149;}
	.st13{fill:#D15238;}
	.st14{fill:#D15239;}
	.st15{fill:#FFFFFF;}
</style>
<g id="Ebene_24_Kopie">
	<g>
		<path class="st0" d="M1197.76,1807.7c-15.19-89.6-84.52-164.28-167.19-206.84c-82.67-42.56-177.57-57.02-270.95-62.99
			c-95.61-6.1-195.27-3.2-281.61,37.1c-104.89,48.95-175.8,145.74-242.07,238.58c319.15,52.62,647.74,50.89,966.28-5.1"/>
		<g>
			<path d="M1202.05,1804.01c-12.14-70.17-56.64-130.23-112.25-172.94c-63.85-49.04-142.51-74.18-221.1-87.2
				c-41.53-6.88-83.57-10.61-125.59-12.72c-41.64-2.09-83.45-2.1-124.96,2.13c-41.14,4.19-82.02,12.77-120.51,28.11
				c-35.3,14.07-67.93,33.72-97.65,57.34c-59.3,47.12-105.99,107.87-150.04,168.9c-5.45,7.56-10.88,15.14-16.29,22.72
				c-1.44,2.02-4.23,8.15,0.15,8.87c125.18,20.6,251.69,32.91,378.5,36.83c125.9,3.9,252.03-0.46,377.37-12.96
				c70.83-7.06,141.38-16.78,211.49-29.08c4.55-0.8,8.37-12.22,2.1-11.12c-124.59,21.86-250.59,35.48-376.98,40.73
				c-126.13,5.24-252.61,2.23-378.35-9.06c-70.25-6.31-140.27-15.22-209.87-26.67c0.05,2.96,0.1,5.91,0.15,8.87
				c43.06-60.32,86.96-121.27,142.4-171c27.29-24.48,57.31-45.92,90.22-62.21c36.24-17.94,75.51-29.03,115.37-35.31
				c41.01-6.46,82.67-7.9,124.12-6.87c41.4,1.03,82.88,4.04,123.95,9.36c78.98,10.24,158.84,30.74,226.23,74.67
				c58.17,37.92,107.89,93.69,127.36,161.41c2.32,8.08,4.17,16.29,5.6,24.57c0.51,2.94,3.96,1.86,5.5,0.62
				C1201.28,1810.14,1202.55,1806.91,1202.05,1804.01L1202.05,1804.01z"/>
		</g>
	</g>
	<g>
		<g>
			<path d="M682.15,1684.82c19.44-20.12,35.53-43.25,54.98-63.38c-2.18,0.52-4.36,1.04-6.55,1.56
				c15.97,18.16,31.93,36.32,47.9,54.48c3.97,4.51,11.58-6.17,8.22-10c-15.97-18.16-31.93-36.32-47.9-54.48
				c-2.1-2.38-4.9-0.14-6.55,1.56c-19.44,20.12-35.53,43.25-54.98,63.38c-1.72,1.78-3.48,6.22-1.67,8.44
				C677.63,1688.87,680.59,1686.44,682.15,1684.82L682.15,1684.82z"/>
		</g>
	</g>
	<g>
		<g>
			<path d="M782.69,1677.95c48.65-21.31,93.48-58.29,121.8-103.39c1-1.6,2.61-6.69-0.13-7.72c-18.93-7.14-37.86-14.28-56.78-21.42
				c-5.21-1.97-11.44,9.65-6.62,11.47c18.93,7.14,37.86,14.28,56.78,21.42c-0.04-2.57-0.09-5.15-0.13-7.72
				c-26.6,42.37-69.52,76.48-115.1,96.44C777.82,1669.08,775.47,1681.11,782.69,1677.95L782.69,1677.95z"/>
		</g>
	</g>
	<g>
		<g>
			<path d="M628.17,1537.38c-18.31,6.61-36.63,13.23-54.94,19.84c-3.44,1.24-7.06,6.05-5.72,9.9
				c18.07,51.86,56.48,95.57,105.7,119.99c4.92,2.44,11.41-9.09,6.62-11.47c-47.83-23.73-85.53-65.94-103.13-116.42
				c-1.91,3.3-3.81,6.6-5.72,9.9c18.31-6.61,36.63-13.23,54.94-19.84c2.98-1.08,5.23-4.01,5.76-7.13
				C632.05,1540.06,631.21,1536.28,628.17,1537.38L628.17,1537.38z"/>
		</g>
	</g>
	<g>
		<g>
			<path d="M726.38,1626.73c2.15,72.9,3.82,146.15-2.16,218.92c-0.25,2.98,2.58,3.93,4.87,2.81c2.96-1.45,4.43-5.05,4.68-8.11
				c5.98-72.77,4.31-146.02,2.16-218.92c-0.09-2.9-2.36-4.04-4.87-2.81C728.35,1619.94,726.29,1623.75,726.38,1626.73
				L726.38,1626.73z"/>
		</g>
	</g>
	<g>
		<g>
			<path d="M596.26,1620.65c3.37,73.9-1.86,149.07-18.56,221.23c-0.58,2.52,0.62,5.29,3.52,4.78c3.08-0.54,5.14-4.44,5.76-7.13
				c16.91-73.05,22.23-149.36,18.83-224.18c-0.13-2.89-2.33-4.05-4.87-2.81C598.27,1613.85,596.13,1617.69,596.26,1620.65
				L596.26,1620.65z"/>
		</g>
	</g>
	<g>
		<g>
			<path d="M519.35,1569.95c12.39,70.8,13.89,143.92,5.43,215.26c-2.35,19.78-5.52,39.46-9.54,58.97c-0.52,2.52,0.58,5.29,3.52,4.78
				c3.03-0.53,5.21-4.44,5.76-7.13c14.82-71.81,18.47-146.24,11.98-219.24c-1.8-20.28-4.45-40.48-7.96-60.53
				c-0.55-3.14-4.24-2-5.9-0.66C520.18,1563.38,518.81,1566.84,519.35,1569.95L519.35,1569.95z"/>
		</g>
	</g>
	<g>
		<g>
			<path d="M860.34,1625.26c-8.73,73.45-8.49,149.42,8.6,221.69c0.73,3.07,4.13,2.09,5.9,0.66c2.34-1.9,4.01-5.54,3.3-8.56
				c-16.65-70.38-17.01-144.6-8.51-216.15C870.65,1614.29,861.02,1619.54,860.34,1625.26L860.34,1625.26z"/>
		</g>
	</g>
	<g>
		<g>
			<path d="M931.64,1573.99c-10.91,68.16-7.74,138.34,9.47,205.2c4.95,19.22,11.08,38.1,18.29,56.59c2.48,6.36,11-3.25,9.19-7.9
				c-24.6-63.09-36.07-130.9-33.44-198.57c0.75-19.33,2.71-38.58,5.77-57.68c0.4-2.51-0.5-5.31-3.52-4.78
				C934.47,1567.37,932.07,1571.3,931.64,1573.99L931.64,1573.99z"/>
		</g>
	</g>
</g>
<g id="Ebene_35">
	<g>
		<path class="st1" d="M529.64,1564.86c14.75,89.93,14.12,182.33-1.85,272.05c17.29,0.93,34.58,1.87,51.88,2.8
			c0.19-47.34,12.25-93.81,16.4-140.97c4.15-47.16-0.85-98.08-30.21-135.33c11.39-9.37,24.96-16.11,39.35-19.51
			c-24.64,5.95-49.28,11.91-73.93,17.86"/>
		<g>
			<path class="st1" d="M525.04,1568.81c11.27,69.21,13.51,140,6.42,209.77c-2.03,19.93-4.82,39.78-8.31,59.51
				c-0.31,1.75-0.01,4.75,2.36,4.88c17.29,0.93,34.58,1.87,51.88,2.8c4.12,0.22,7.03-5.19,7.05-8.71
				c0.56-76.02,31.08-151.9,10.48-227.61c-5.01-18.42-13.22-35.95-24.96-51.05c-0.94,3.2-1.87,6.41-2.81,9.61
				c10.87-8.78,23.37-14.83,36.92-18.17c4.77-1.18,8.79-13.49,2.24-11.91c-24.64,5.95-49.28,11.91-73.93,17.86
				c-4.8,1.16-8.78,13.49-2.24,11.91c24.64-5.95,49.28-11.91,73.93-17.86c0.75-3.97,1.5-7.94,2.24-11.91
				c-15.37,3.78-29.47,10.92-41.77,20.86c-2.19,1.77-4.96,6.85-2.81,9.61c46.03,59.2,29.36,138.76,19.28,206.68
				c-3.31,22.29-5.97,44.72-6.13,67.27c2.35-2.9,4.7-5.81,7.05-8.71c-17.29-0.93-34.58-1.87-51.88-2.8
				c0.79,1.63,1.58,3.25,2.36,4.88c12.52-70.81,15.78-143.23,9.39-214.87c-1.79-20.07-4.35-40.06-7.59-59.95
				c-0.51-3.16-4.26-1.98-5.9-0.66C525.85,1562.27,524.53,1565.69,525.04,1568.81L525.04,1568.81z"/>
		</g>
	</g>
	<g>
		<path class="st1" d="M870.06,1620.89c-3.16,62.84-2.47,125.87,2.06,188.63c0.49,6.8,1.16,13.97,5.14,19.51
			c8.33,11.62,25.38,5.52,39.71,6.07c20.76,0.79,28.99-9.92,41.7-3.31c-26.27-85.04-52.63-176.3-26.6-261.41
			c-16.16-5.22-32.32-10.44-48.48-15.66c8.54,4.06,17.08,8.12,25.63,12.18c-13.21,17.77-26.43,35.55-39.64,53.32"/>
		<g>
			<path class="st1" d="M865.29,1623.55c-2.29,45.98-2.57,92.05-0.76,138.05c0.46,11.58,1.04,23.16,1.76,34.73
				c0.6,9.68,0.29,20.29,3.08,29.66c2.31,7.77,7.39,13.61,15.4,15.5c7.93,1.87,16.26,0.14,24.26-0.25
				c9.08-0.44,17.49-0.31,26.35-2.77c6.85-1.9,13.18-4.24,19.98-0.93c4.58,2.23,9.04-6.03,7.91-9.68
				c-19.97-64.7-40.36-131.86-36.72-200.36c1.02-19.19,4.17-38.31,9.72-56.71c0.42-1.4,1.35-5.4-0.89-6.13
				c-16.16-5.22-32.32-10.44-48.48-15.66c-5-1.62-11.62,9.09-6.62,11.47c8.54,4.06,17.09,8.12,25.63,12.18
				c0.29-3.06,0.58-6.12,0.87-9.18c-13.21,17.77-26.43,35.55-39.64,53.32c-1.5,2.02-3.62,6.04-1.67,8.44
				c1.89,2.32,5.17,0.28,6.55-1.56c13.21-17.77,26.43-35.55,39.64-53.32c1.31-1.76,4.28-7.56,0.87-9.18
				c-8.54-4.06-17.09-8.12-25.63-12.18c-2.21,3.82-4.41,7.65-6.62,11.47c16.16,5.22,32.32,10.44,48.48,15.66
				c-0.3-2.04-0.59-4.08-0.89-6.13c-20.56,68.2-9.33,139.57,8.89,206.95c5.34,19.73,11.28,39.28,17.31,58.8
				c2.64-3.23,5.27-6.46,7.91-9.68c-12.34-6.02-24.31,1.96-36.86,2.89c-8.32,0.62-16.85,0.8-25.2,1.14
				c-7.39,0.31-15.27-0.37-19.42-7.37c-4.92-8.32-3.96-20.42-4.55-29.73c-0.69-10.91-1.26-21.82-1.72-32.74
				c-0.93-22.17-1.38-44.36-1.35-66.54c0.03-25.17,0.7-50.33,1.95-75.47c0.15-2.96-2.52-3.96-4.87-2.81
				C867.08,1616.85,865.44,1620.5,865.29,1623.55L865.29,1623.55z"/>
		</g>
	</g>
</g>
<g id="Ebene_24_Kopie_2">
	<g>
		<g>
			<path d="M1202.05,1804.01c-12.14-70.17-56.64-130.23-112.25-172.94c-63.85-49.04-142.51-74.18-221.1-87.2
				c-41.53-6.88-83.57-10.61-125.59-12.72c-41.64-2.09-83.45-2.1-124.96,2.13c-41.14,4.19-82.02,12.77-120.51,28.11
				c-35.3,14.07-67.93,33.72-97.65,57.34c-59.3,47.12-105.99,107.87-150.04,168.9c-5.45,7.56-10.88,15.14-16.29,22.72
				c-1.44,2.02-4.23,8.15,0.15,8.87c125.18,20.6,251.69,32.91,378.5,36.83c125.9,3.9,252.03-0.46,377.37-12.96
				c70.83-7.06,141.38-16.78,211.49-29.08c4.55-0.8,8.37-12.22,2.1-11.12c-124.59,21.86-250.59,35.48-376.98,40.73
				c-126.13,5.24-252.61,2.23-378.35-9.06c-70.25-6.31-140.27-15.22-209.87-26.67c0.05,2.96,0.1,5.91,0.15,8.87
				c43.06-60.32,86.96-121.27,142.4-171c27.29-24.48,57.31-45.92,90.22-62.21c36.24-17.94,75.51-29.03,115.37-35.31
				c41.01-6.46,82.67-7.9,124.12-6.87c41.4,1.03,82.88,4.04,123.95,9.36c78.98,10.24,158.84,30.74,226.23,74.67
				c58.17,37.92,107.89,93.69,127.36,161.41c2.32,8.08,4.17,16.29,5.6,24.57c0.51,2.94,3.96,1.86,5.5,0.62
				C1201.28,1810.14,1202.55,1806.91,1202.05,1804.01L1202.05,1804.01z"/>
		</g>
	</g>
	<g>
		<g>
			<path d="M682.15,1684.82c19.44-20.12,35.53-43.25,54.98-63.38c-2.18,0.52-4.36,1.04-6.55,1.56
				c15.97,18.16,31.93,36.32,47.9,54.48c3.97,4.51,11.58-6.17,8.22-10c-15.97-18.16-31.93-36.32-47.9-54.48
				c-2.1-2.38-4.9-0.14-6.55,1.56c-19.44,20.12-35.53,43.25-54.98,63.38c-1.72,1.78-3.48,6.22-1.67,8.44
				C677.63,1688.87,680.59,1686.44,682.15,1684.82L682.15,1684.82z"/>
		</g>
	</g>
	<g>
		<g>
			<path d="M782.69,1677.95c48.65-21.31,93.48-58.29,121.8-103.39c1-1.6,2.61-6.69-0.13-7.72c-18.93-7.14-37.86-14.28-56.78-21.42
				c-5.21-1.97-11.44,9.65-6.62,11.47c18.93,7.14,37.86,14.28,56.78,21.42c-0.04-2.57-0.09-5.15-0.13-7.72
				c-26.6,42.37-69.52,76.48-115.1,96.44C777.82,1669.08,775.47,1681.11,782.69,1677.95L782.69,1677.95z"/>
		</g>
	</g>
	<g>
		<g>
			<path d="M628.17,1537.38c-18.31,6.61-36.63,13.23-54.94,19.84c-3.44,1.24-7.06,6.05-5.72,9.9
				c18.07,51.86,56.48,95.57,105.7,119.99c4.92,2.44,11.41-9.09,6.62-11.47c-47.83-23.73-85.53-65.94-103.13-116.42
				c-1.91,3.3-3.81,6.6-5.72,9.9c18.31-6.61,36.63-13.23,54.94-19.84c2.98-1.08,5.23-4.01,5.76-7.13
				C632.05,1540.06,631.21,1536.28,628.17,1537.38L628.17,1537.38z"/>
		</g>
	</g>
	<g>
		<g>
			<path d="M726.38,1626.73c2.15,72.9,3.82,146.15-2.16,218.92c-0.25,2.98,2.58,3.93,4.87,2.81c2.96-1.45,4.43-5.05,4.68-8.11
				c5.98-72.77,4.31-146.02,2.16-218.92c-0.09-2.9-2.36-4.04-4.87-2.81C728.35,1619.94,726.29,1623.75,726.38,1626.73
				L726.38,1626.73z"/>
		</g>
	</g>
	<g>
		<g>
			<path d="M596.26,1620.65c3.37,73.9-1.86,149.07-18.56,221.23c-0.58,2.52,0.62,5.29,3.52,4.78c3.08-0.54,5.14-4.44,5.76-7.13
				c16.91-73.05,22.23-149.36,18.83-224.18c-0.13-2.89-2.33-4.05-4.87-2.81C598.27,1613.85,596.13,1617.69,596.26,1620.65
				L596.26,1620.65z"/>
		</g>
	</g>
	<g>
		<g>
			<path d="M519.35,1569.95c12.39,70.8,13.89,143.92,5.43,215.26c-2.35,19.78-5.52,39.46-9.54,58.97c-0.52,2.52,0.58,5.29,3.52,4.78
				c3.03-0.53,5.21-4.44,5.76-7.13c14.82-71.81,18.47-146.24,11.98-219.24c-1.8-20.28-4.45-40.48-7.96-60.53
				c-0.55-3.14-4.24-2-5.9-0.66C520.18,1563.38,518.81,1566.84,519.35,1569.95L519.35,1569.95z"/>
		</g>
	</g>
	<g>
		<g>
			<path d="M860.34,1625.26c-8.73,73.45-8.49,149.42,8.6,221.69c0.73,3.07,4.13,2.09,5.9,0.66c2.34-1.9,4.01-5.54,3.3-8.56
				c-16.65-70.38-17.01-144.6-8.51-216.15C870.65,1614.29,861.02,1619.54,860.34,1625.26L860.34,1625.26z"/>
		</g>
	</g>
	<g>
		<g>
			<path d="M931.64,1573.99c-10.91,68.16-7.74,138.34,9.47,205.2c4.95,19.22,11.08,38.1,18.29,56.59c2.48,6.36,11-3.25,9.19-7.9
				c-24.6-63.09-36.07-130.9-33.44-198.57c0.75-19.33,2.71-38.58,5.77-57.68c0.4-2.51-0.5-5.31-3.52-4.78
				C934.47,1567.37,932.07,1571.3,931.64,1573.99L931.64,1573.99z"/>
		</g>
	</g>
</g>
<g id="Ebene_4">
	<g>
		<path class="st2" d="M1112.11,1010.9c0,31.16-19.9,63.15-56.81,65.71c-236.73,16.42-379.79,56.24-624.22,8.51
			c-33.71-6.58-51.41-44.35-50.92-73.47c0.83-49.71-3.38-46.51,0-76.66c12.3-109.89,7.4-165.69,54.35-265.66
			c45.01-95.86,159.68-176.81,282.19-176.81c204.53,0,395.41,130.97,395.41,417.98"/>
		<g>
			<path d="M1108.07,1013.14c-0.13,15.38-5.16,30.92-15.85,42.24c-5.65,5.98-12.83,10.56-20.63,13.17
				c-9.48,3.18-19.53,3.25-29.41,3.99c-43.18,3.22-86.28,7.44-129.35,11.92c-77.22,8.04-154.49,16.8-232.2,18.04
				c-40.53,0.65-81.07-0.74-121.44-4.37c-21.91-1.97-43.76-4.58-65.52-7.78c-11.23-1.65-22.43-3.45-33.6-5.4
				c-11.11-1.94-23.19-3.04-33.84-6.85c-15.27-5.46-26.67-18.01-33.67-32.32c-3.39-6.93-5.75-14.43-7.14-22.01
				c-1.64-8.94-1.07-17.97-1.07-27c0-12.59-0.77-25.1-1.3-37.67c-0.53-12.67,1.12-25.14,2.44-37.72
				c3.9-37.26,6.14-74.72,11.09-111.87c4.65-34.94,12.76-69.06,25.35-102.02c13.34-34.94,30.05-67.62,54.33-96.25
				c23.85-28.12,52.8-51.9,84.64-70.43c32.95-19.18,69.13-32.77,106.75-39.17c32.47-5.52,65.72-4.83,98.37-1.23
				c55.46,6.13,109.83,22.66,158.19,50.73c49.41,28.68,91.16,69.1,121.36,117.6c35.12,56.4,53.7,121.7,59.93,187.53
				c1.78,18.76,2.57,37.59,2.6,56.44c0,2.48,2.05,3.4,4.13,2.38c2.35-1.15,3.97-4.33,3.97-6.88
				c-0.09-72.06-12.14-144.71-43.1-210.21c-25.59-54.14-64.19-101.51-112.7-136.72c-46.48-33.73-100.87-55.59-157.17-66.19
				c-28.84-5.43-58.33-8.07-87.69-7.74c-39.56,0.45-78.6,9.24-115.06,24.43c-68.36,28.5-129.85,80.53-164.3,146.64
				c-18.02,34.58-31.55,72.14-39.99,110.19c-7.74,34.88-10.8,70.52-13.95,106.04c-1.87,21.04-3.93,42.04-6.15,63.05
				c-1.12,10.58-1.42,20.98-0.81,31.6c0.91,15.64,0.64,31.21,0.89,46.86c0.24,15.68,4.97,31.52,13.2,44.86
				c8.6,13.95,21.72,24.94,37.86,28.75c23.5,5.54,47.84,8.81,71.73,12.13c42.9,5.97,86.12,9.57,129.42,10.64
				c79.63,1.97,158.97-5.16,238.09-13.37c42.99-4.46,85.96-9.11,129.02-12.91c11.5-1.01,23-1.97,34.51-2.86
				c10.7-0.83,21.8-0.78,32.35-2.86c16.67-3.28,30.93-13.53,40.41-27.48c8.88-13.07,13.32-28.73,13.45-44.47
				c0.02-2.49-2.06-3.39-4.13-2.38C1109.67,1007.43,1108.09,1010.59,1108.07,1013.14L1108.07,1013.14z"/>
		</g>
	</g>
</g>
<g id="Ebene_5">
	<g>
		<path class="st3" d="M826.27,1402.84c3.85,41.49,7.7,82.97,11.55,124.46c1.39,14.95,2.61,30.81-4.16,44.23
			c-11.25,22.26-39.38,29.16-64.17,32.74c-36.41,5.26-78.79,6.68-104.1-19.88c-21.57-22.64-22.49-57.7-17.74-88.54
			s13.85-62.1,7.67-92.68c55.26,9.5,112.14,9.57,167.42,0.2"/>
		<g>
			<path class="st3" d="M821.86,1405.28c3.79,40.83,7.58,81.65,11.37,122.48c1.55,16.74,4.1,36.56-8.32,50
				c-9.74,10.55-24.7,15.17-38.3,18.15c-14.83,3.25-30.18,5.13-45.34,5.7c-15.08,0.57-30.75-0.28-45.14-5.2
				c-14.49-4.96-27.03-14.1-35.1-27.24c-8.27-13.48-11.08-29.57-11.32-45.17c-0.64-41.97,17.92-82.31,9.82-124.48
				c-2.11,3.08-4.22,6.15-6.34,9.23c55.72,9.47,112.74,9.44,168.48,0.1c4.5-0.75,8.28-12.02,2.07-10.98
				c-55.05,9.22-111.34,9.05-166.35-0.3c-4.18-0.71-6.96,6-6.34,9.23c7.72,40.21-10.13,79.63-10.17,119.77
				c-0.02,16.49,2.63,33.27,10.38,48c7.33,13.94,19.65,24.71,34.16,30.69c29.36,12.11,64.48,8.41,94.88,2.5
				c15.14-2.94,30.56-7.73,42.73-17.57c13.59-10.99,19.72-27.24,20.21-44.39c0.32-11.27-1.2-22.59-2.24-33.79
				c-1.13-12.18-2.26-24.36-3.39-36.55c-2.32-25.02-4.64-50.05-6.97-75.07C830,1393.18,821.43,1400.58,821.86,1405.28
				L821.86,1405.28z"/>
		</g>
	</g>
</g>
<g id="Ebene_3">
	<g>
		<path class="st3" d="M1077.34,915.91c39.23-14.04,86.82-0.22,112.29,32.62s26.84,82.14,3.24,116.33
			c-23.6,34.19-70.35,50.62-110.3,38.76c-24.22,63.56-54.9,125.43-98.44,177.82c-43.54,52.39-100.8,95.03-166.59,113.4
			c-91.76,25.62-223.59-1.34-279.58-44.42c-56.65-43.58-134.71-246.23-134.71-246.23s-89.49,1.94-114.12-31.42
			c-24.63-33.36-22.94-101.02,5.29-131.43c20.51-22.1,67.36-28.52,116.91-23.16c17.53-40.75,23.46-73.65,25.71-113.6
			c104.69,11.33,212.37-67,237.45-168.75c129.7,174.18,347.79,157.04,347.79,157.04s3.29,105.1,52.44,124.37"/>
		<g>
			<path class="st3" d="M1076.3,921.4c44.38-15.49,97.67,4.26,118.97,46.73c10.47,20.87,12.82,45.9,6.73,68.41
				c-6.14,22.69-21.48,41.22-41.91,52.59c-22.86,12.72-50.25,16.15-75.42,8.9c-2.6-0.75-5.29,3.44-5.97,5.22
				c-30.68,80.31-72.17,159.01-137.19,216.88c-30.18,26.86-64.93,49.03-103.01,62.82c-35.17,12.74-72.32,17.1-109.59,16.12
				c-37.17-0.98-74.42-6.78-110.08-17.36c-28.05-8.32-58.13-19.72-80.71-38.93c-17.1-14.55-29.78-34.86-41.33-53.84
				c-14.9-24.49-28.03-50.04-40.44-75.86c-17.42-36.24-33.51-73.19-48.14-110.64c-0.25-0.63-0.49-1.26-0.74-1.89
				c-0.34-0.87-1.02-1.97-2.14-1.94c-12.81,0.27-25.74-0.59-38.46-2c-21.66-2.41-45.59-6.37-63.92-18.99
				c-20.44-14.07-26.26-43.45-26.68-66.64c-0.44-24.52,5.01-55.79,26.06-71.41c12.73-9.44,29.28-13.39,44.69-15.6
				c20.57-2.94,41.57-2.37,62.19-0.2c2.85,0.3,5.04-3.05,5.97-5.22c15.95-37.33,23.9-75.98,26.24-116.4
				c-2.17,2.68-4.33,5.35-6.5,8.03c85.11,8.88,169.41-39.03,215.14-109.53c13.12-20.23,22.84-42.51,28.7-65.9
				c-2.69,1.9-5.38,3.8-8.07,5.7C715.08,699.8,776.1,744.2,845.43,770.01c46.65,17.37,96.4,27.12,146.15,28.71
				c9.5,0.3,19.11,0.48,28.59-0.26c-0.77-1.05-1.53-2.09-2.3-3.14c0.41,12.73,2.08,25.52,4.23,38.06
				c3.89,22.69,10.07,46.3,22.86,65.74c6.59,10.02,15.45,18.86,26.7,23.41c4.75,1.92,10.55-8.78,6.1-10.57
				c-20.44-8.26-31.42-29.73-38.18-49.47c-6.52-19.05-10.14-39.13-12.02-59.14c-0.4-4.29-0.76-8.6-0.9-12.91
				c-0.04-1.2-0.69-3.27-2.3-3.14c-26.8,2.09-54.49-0.58-80.97-4.49c-60.28-8.9-119.1-29.35-170.34-62.62
				c-36.65-23.8-68.63-53.97-94.79-88.95c-3.02-4.03-7.47,3.32-8.07,5.7c-19.41,77.54-87.49,139.04-164.29,157.52
				c-21.88,5.27-44.4,6.89-66.79,4.56c-3.89-0.41-6.32,4.94-6.5,8.03c-2.23,38.52-9.99,75.24-25.18,110.8
				c1.99-1.74,3.98-3.48,5.97-5.22c-33.88-3.57-73.37-4.14-104.25,12.54c-25.77,13.92-37.52,43.26-40.7,71.1
				c-3.1,27.14,0,60.51,17.93,82.52c14.43,17.71,40.72,23.57,62.12,27.08c17.29,2.84,35.09,4.31,52.63,3.94
				c-0.71-0.65-1.42-1.3-2.14-1.94c12.71,32.97,26.86,65.45,41.75,97.49c12.39,26.66,25.46,53.05,40.06,78.58
				c12.35,21.6,25.65,43.64,42.98,61.68c18.84,19.61,45.01,31.49,70.22,40.58c35.14,12.66,72.27,20.11,109.48,22.99
				c37.18,2.88,75.55,1.38,111.68-8.46c39.36-10.72,75.93-30.29,108.2-55.07c69.82-53.6,116.8-130.49,150.61-210.58
				c4.34-10.28,8.47-20.64,12.45-31.06c-1.99,1.74-3.98,3.48-5.97,5.22c49.63,14.3,105.02-12.91,125.14-60.15
				c10.15-23.83,11.25-51.68,3.05-76.24c-8.13-24.37-25.49-44.37-48.34-56.06c-25.11-12.86-55.21-15.65-81.95-6.32
				c-2.75,0.96-4.83,3.72-5.31,6.58C1072.73,918.96,1073.5,922.38,1076.3,921.4L1076.3,921.4z"/>
		</g>
	</g>
</g>
<g id="Ebene_2">
	<g>
		<g>
			<path d="M1071.19,921.27c43.79-18.93,99.38-1.46,123.39,39.94c12.13,20.92,16.02,46.52,10.94,70.13
				c-4.88,22.66-18.91,42.07-38.35,54.56c-22.27,14.31-49.54,19.69-75.46,14.03c-4.55-0.99-9.66,9.98-4.2,11.17
				c50.98,11.14,106.08-19.89,123.03-69.22c8.53-24.81,7.94-52.83-2.11-77.12c-10.01-24.2-28.94-43.29-53.07-53.49
				c-26.9-11.38-57.5-11.67-84.34-0.06C1066.69,913.07,1064.52,924.15,1071.19,921.27L1071.19,921.27z"/>
		</g>
	</g>
	<g>
		<g>
			<path d="M414.56,912.73c-28.13-3.03-57.59-6.13-85.02,2.8c-23.54,7.66-43.13,23.4-52.78,46.54
				c-9.62,23.07-10.58,51.37-6.91,75.85c3.76,25.12,16.39,46.77,38.85,59.43c28.09,15.83,61.22,15.16,92.45,14.19
				c4.75-0.15,9.35-11.33,4.2-11.17c-26.12,0.81-53.51,1.8-78.31-7.84c-22.05-8.57-38.9-24.68-45.64-47.67
				c-6.37-21.74-6.09-47.29-0.99-69.27c5.33-23.01,20.79-39.21,42.68-47.53c27.87-10.6,58.35-7.26,87.28-4.14
				C415.07,924.4,419.97,913.31,414.56,912.73L414.56,912.73z"/>
		</g>
	</g>
	<g>
		<g>
			<path d="M1085.73,1105.15c-19.69,60.98-50.75,118.47-91.95,167.62c-40.66,48.51-92.09,89.27-151.7,111.7
				c-58.08,21.86-122.35,27.44-183.2,14.96c-62.41-12.8-117.64-45.6-158.59-94.42c-43-51.26-69.11-114.42-86.59-178.41
				c-2.2-8.07-4.27-16.17-6.22-24.31c-1.43-5.92-9.54,2.84-8.47,7.28c15.9,66,39.57,131.83,79.94,187.06
				c19.49,26.67,42.96,50.8,70.15,69.67c25.7,17.83,54.51,30.81,84.6,39.22c61.06,17.08,127.38,15.05,187.82-3.72
				c62.19-19.32,116.53-57.16,160.72-104.53c45.1-48.35,79.97-106.49,103.2-168.31c2.87-7.63,5.54-15.33,8.05-23.09
				C1095.96,1098.17,1087.68,1099.11,1085.73,1105.15L1085.73,1105.15z"/>
		</g>
	</g>
	<g>
		<g>
			<path d="M1074.89,911.62c-14.59-14.49-22.8-35.16-29.63-54.16c-6.62-18.41-11.87-37.34-16.22-56.41
				c-0.9-3.93-1.77-7.87-2.54-11.82c-0.16-0.85-1.17-2-2.14-1.94c-26.73,1.54-54.23-1.6-80.53-5.91
				c-60.32-9.89-119.04-31.1-170.25-64.74c-36.5-23.97-68.46-54.11-94.71-89c-2.58-3.43-6.83,2.03-7.66,4.25
				c-27.85,74.61-92.93,132.58-168.59,155.98c-21.41,6.62-43.62,10.48-66.02,11.23c-3.95,0.13-6.28,4.53-6.5,8.03
				c-2.41,37.6-8.85,75.5-22.66,110.69c-0.78,1.99-0.98,5.51,1.77,5.95c2.75,0.44,5.15-3.14,5.97-5.22
				c14.51-37,21.18-76.78,23.72-116.3c-2.17,2.68-4.33,5.35-6.5,8.03c83.78-2.79,163.94-47.43,212.89-115.13
				c13.94-19.27,25.34-40.24,33.66-62.54c-2.55,1.42-5.1,2.83-7.66,4.25c44.65,59.34,105.71,103.94,174.9,130.51
				c46.38,17.82,95.88,28.31,145.51,30.8c9.45,0.48,19.01,0.83,28.46,0.28c-0.71-0.65-1.42-1.3-2.14-1.94
				c6.33,32.87,15.77,66.39,30.58,96.46c4.94,10.02,10.72,19.95,18.7,27.87C1071.3,924.8,1078.18,914.88,1074.89,911.62
				L1074.89,911.62z"/>
		</g>
	</g>
	<g>
		<g>
			<path d="M824.15,1404.14c3.76,38.39,7.52,76.78,11.28,115.17c1.65,16.85,6.29,37.39-3.15,52.74
				c-7.82,12.72-22.49,20.47-35.95,25.8c-31.72,12.57-68.42,14.77-100.74,3.04c-13.77-5-27.12-12.67-37.01-23.61
				c-11.12-12.31-15.85-27.39-15.89-43.85c-0.06-20.93,4.19-42.12,6.87-62.83c2.79-21.59,5.59-43.17,8.38-64.76
				c1.03-7.93-7.88-3.08-8.56,2.17c-2.71,20.93-5.42,41.86-8.13,62.8c-2.59,20-6.1,40.13-7.17,60.28
				c-0.92,17.31,1.71,34.74,11.91,49.16c8.89,12.55,21.98,21.9,35.9,28.15c33.02,14.8,71.92,14.46,105.84,2.84
				c15.35-5.26,30.61-12.62,42.1-24.34c12.86-13.11,17.49-29.7,16.61-47.78c-1.12-23.01-4.31-46.07-6.55-69
				c-2.31-23.63-4.63-47.25-6.94-70.88C832.25,1392.04,823.69,1399.44,824.15,1404.14L824.15,1404.14z"/>
		</g>
	</g>
	<g>
		<g>
			<path d="M783.98,1189.91c-24.36,3.66-48.3,5.19-72.68,1.12c-26.86-4.48-53.27-8.86-80.55-10.32
				c-6.34-0.34-12.74,14.56-5.62,14.94c22.99,1.22,45.68,3.97,68.31,8.12c15.72,2.89,31.28,5.25,47.32,4.83
				c13.55-0.35,27.06-2,40.46-4.01C787.24,1203.69,792.33,1188.66,783.98,1189.91L783.98,1189.91z"/>
		</g>
	</g>
	<g>
		<g>
			<path d="M758.41,1003.58c-10.79-8.65-26.01-9.61-38.34-3.76c-12.45,5.91-20.3,18.96-21.48,32.47
				c-1.14,13.1,4.27,26.22,15.8,33.11c11.47,6.86,26.29,6.7,37.66-0.2c2.43-1.47,4.47-4.55,4.32-7.48c-0.13-2.5-2.15-4.01-4.49-2.59
				c-18.52,11.24-44.41-1.5-44.67-23.71c-0.27-23.88,28.73-30.39,45.09-17.28C756.01,1017.12,762.44,1006.8,758.41,1003.58
				L758.41,1003.58z"/>
		</g>
	</g>
	<g>
		<path d="M811.04,916.58c1.73-7.77-0.26-15.82-1.76-23.64c-1.5-7.82-2.44-16.29,1.13-23.42s13.31-11.66,19.91-7.17
			c6.99,4.75,5.99,14.98,6.53,23.39c0.43,6.69,2.33,13.19,3.34,19.82c1.01,6.63,1.06,13.7-1.98,19.69s-9.88,10.44-16.46,8.97
			c-6.57-1.47-10.79-10.3-6.56-15.51"/>
		<g>
			<path d="M815.32,915.49c1.24-6.69,0.64-13.19-0.57-19.84c-1.23-6.75-3.33-13.92-2.11-20.83c0.92-5.18,4.92-9.09,10.48-8.63
				c5.81,0.48,8.09,5.85,8.75,10.94c0.68,5.27,0.36,10.6,1.1,15.87c1.02,7.24,3.31,14.36,3.42,21.71c0.08,5.92-1.4,12.39-8.01,13.91
				c-2.81,0.65-5.76,0.06-7.89-1.96c-0.85-0.81-1.63-1.92-2.07-3c-0.22-0.54-0.27-2.86-0.99-1.81c1.33-1.92,3.37-5.52,1.54-7.78
				c-1.7-2.1-4.83-0.31-6.03,1.44c-3.45,4.99-5.11,10.72-2.51,16.5c2.51,5.57,7.91,8.63,13.97,7.89
				c15.56-1.91,21.85-19.93,20.6-33.46c-0.76-8.26-3.38-16.22-3.82-24.51c-0.33-6.17,0-12.72-2.59-18.49
				c-5.79-12.93-21.38-8.93-28.71,0.23c-5.37,6.72-6.88,15.63-6.13,24.02c0.89,9.98,4.89,19.89,3.02,29.96
				c-0.43,2.32,0.5,4.89,3.25,4.4C812.76,921.58,814.86,917.97,815.32,915.49L815.32,915.49z"/>
		</g>
	</g>
	<g>
		<path d="M653.97,903.6c-3.5-7.61-7.08-15.7-6.12-24.01c0.96-8.31,8.38-16.49,16.67-15.05c9,1.55,12.75,12.26,13.93,21.27
			c1.26,9.64,1.58,19.41,0.95,29.11c-0.45,6.95-2.42,15.21-9.05,17.45c-5.82,1.97-12.28-2.31-14.87-7.86s-2.33-11.94-2.01-18.05"/>
		<g>
			<path d="M658.21,899.96c-3.31-7.24-12.72-27.55,1.24-29.89c10.89-1.83,14.09,13.41,14.95,21.08c0.72,6.44,1.01,12.93,0.89,19.42
				c-0.08,4.04,0.6,11.95-2.44,15.3c-3.49,3.84-9.86-0.35-12.11-3.51c-3.74-5.23-3.15-12.26-2.85-18.34
				c0.14-2.73-2.32-3.65-4.49-2.59c-2.66,1.3-4.18,4.67-4.32,7.48c-0.56,11.23,1.17,29.52,16.46,29.53
				c12.95,0.02,17.54-15.63,18.26-25.97c0.95-13.49,1.31-29.9-4.48-42.46c-5.11-11.09-16.96-14.76-26.56-6.32
				c-13.6,11.97-9.64,29.08-3.03,43.54C652.37,913.01,660.12,904.13,658.21,899.96L658.21,899.96z"/>
		</g>
	</g>
	<g>
		<g>
			<path d="M676.58,817.91c-26.31-0.82-51.49,10.89-68.37,30.99c-1.48,1.77-3.28,5.64-1.54,7.78c1.79,2.21,4.69,0.16,6.03-1.44
				c14.63-17.42,37.04-26.87,59.68-26.17C677.13,829.23,681.87,818.08,676.58,817.91L676.58,817.91z"/>
		</g>
	</g>
	<g>
		<g>
			<path d="M877.33,846.68c-17.04-19.37-43.06-28.47-68.47-24.25c-4.5,0.75-8.28,12.01-2.07,10.98c23.15-3.84,47.48,4.89,62.97,22.5
				C873.41,860.06,880.43,850.21,877.33,846.68L877.33,846.68z"/>
		</g>
	</g>
	<g>
		<g>
			<path d="M381.2,941.68c-36.63,5.48-66.95,38.39-70.3,75.15c-0.72,7.95,8.08,3.13,8.56-2.17c2.89-31.73,28.4-57.32,59.67-62
				C383.65,951.98,387.45,940.74,381.2,941.68L381.2,941.68z"/>
		</g>
	</g>
	<g>
		<g>
			<path d="M1110.01,942.59c34.59,4.55,63.74,38.79,59.91,74.11c-0.86,7.94,7.99,3.11,8.56-2.17c4.25-39.24-24.7-77.9-64.27-83.1
				C1109.54,930.81,1104.59,941.88,1110.01,942.59L1110.01,942.59z"/>
		</g>
	</g>
</g>
<g id="Ebene_8">
	<ellipse class="st4" cx="818.86" cy="876.35" rx="5.51" ry="5.48"/>
	<ellipse class="st4" cx="658.4" cy="881.07" rx="5.3" ry="5.28"/>
	<g class="st5">
		<g>
			<path class="st6" d="M1128.86,1347.45c4.76,0,9.42-11.17,4.2-11.17C1128.3,1336.28,1123.64,1347.45,1128.86,1347.45
				L1128.86,1347.45z"/>
		</g>
	</g>
</g>
<g id="Ebene_19">
	<g>
		<g>
			<path d="M832.64,1473.49c4.76,0,9.42-11.17,4.2-11.17C832.08,1462.32,827.41,1473.49,832.64,1473.49L832.64,1473.49z"/>
		</g>
	</g>
</g>
<g id="Ebene_27_Kopie" class="st7">
</g>
<g id="Ebene_32">
	<g>
		<path class="st1" d="M513.74,517.49c-79.15,9.7-156.33,35.05-225.73,74.15c-25.62,14.44-52.53,34.18-56.79,63.17
			c-3.27,22.28,8.46,44.72,25.32,59.73c16.86,15.02,38.29,23.83,59.56,31.52c248.33,89.82,533.24,71.89,794.44,5.59
			c78.58-19.95,136.78-38.7,124.54-124.07c-5.02-35.02-46.54-53.49-78.23-69.53c-42.34-21.43-81.27-40.19-128.75-38.83
			c0,0-79.94,18.26-91.93-17.51c-14.03-41.85-30.54-92.73-44.42-134.15c-7.32-21.83-11.86-50-34.95-48.73
			c-23.72,1.3-56.7,31.82-80.21,35.23c-26.38,3.82-49.25-16.76-68.4-35.22s-44-37.72-69.71-30.7
			c-22.97,6.27-35.12,30.59-44.47,52.38C569,398.82,543.97,457.11,518.95,515.4"/>
		<g>
			<path class="st8" d="M514.86,511.54c-48.57,6.02-96.36,17.78-142.14,35.09c-22.99,8.69-45.49,18.7-67.29,30.06
				c-18.81,9.8-38.04,20.21-53.53,34.93c-14.51,13.78-25.54,31.71-25.98,52.21c-0.46,21.57,11.06,41.78,26.72,55.91
				c17.11,15.44,38.77,24.32,60.16,32.07c22.27,8.07,44.87,15.26,67.68,21.65c93.28,26.13,190.12,38.27,286.86,39.91
				c98.03,1.66,196.15-7.3,292.72-23.89c48.4-8.32,96.47-18.57,144.1-30.53c31.96-8.03,66.3-15.6,94.49-33.48
				c25.46-16.15,40.51-41.06,42.58-71.2c1.17-17.01,0.01-36.09-9.12-50.92c-9.38-15.23-25.07-25.87-40.3-34.58
				c-18.05-10.32-37-19.45-55.77-28.38c-20.49-9.76-41.65-18.44-63.9-23.26c-14.58-3.16-31.39-6.06-46.21-3.16
				c-9.48,1.85-19.11,3.12-28.76,3.63c-12.79,0.68-26.74,0.58-38.88-4.01c-5.1-1.92-10.13-4.69-13.63-8.95
				c-5.18-6.31-6.73-15.38-9.25-22.94c-14.57-43.81-29.68-87.52-43.28-131.64c-4.32-13.99-9.9-32.76-26.12-36.68
				c-15.98-3.86-33.86,7.82-46.98,15.39c-15.41,8.89-32.3,21.36-51.02,19.49c-22.02-2.19-39.93-19.27-55.12-33.85
				c-15.51-14.89-33.89-31.09-56.2-33.52c-20.53-2.24-37.84,9.82-49.23,25.94c-12.99,18.4-20.67,40.37-29.49,60.92
				c-10.67,24.85-21.34,49.7-32.01,74.55c-10.41,24.24-20.81,48.47-31.22,72.71c-0.92,2.14-1.02,5.98,1.92,6.45
				c3.03,0.49,5.52-3.43,6.48-5.67c20.68-48.17,41.36-96.33,62.04-144.5c4.91-11.44,9.73-22.93,14.76-34.32
				c3.82-8.66,8.03-17.37,13.65-25.02c5.15-7,11.58-13.24,19.76-16.53c10.19-4.1,21.59-3.15,31.66,0.8
				c20.74,8.14,35.52,25.08,51.81,39.48c14.98,13.23,33.37,26.15,54.35,24.77c17.05-1.12,32.44-11.76,46.79-20.07
				c7.87-4.56,15.86-9.29,24.4-12.5c6.54-2.45,14.29-4.52,21.07-1.74c14.2,5.82,17.79,26.35,21.78,39.28
				c6.57,21.27,13.99,42.32,20.96,63.46c7.29,22.14,14.57,44.28,21.94,66.4c2.28,6.84,3.97,14.39,8.85,19.95
				c3.76,4.29,8.61,7.39,13.87,9.48c21.31,8.49,46.95,5.72,69.01,1.85c2.27-0.4,4.57-1.07,6.86-1.33
				c8.78-1.01,18.65,0.38,27.37,1.59c22.36,3.09,43.67,10.66,64.19,19.85c18.91,8.47,37.48,17.92,55.85,27.52
				c15.56,8.14,31.71,17.19,43.41,30.57c12.01,13.73,14.58,30.25,14.41,48.01c-0.13,13.75-2.86,27.52-10.19,39.32
				c-14.4,23.2-43.15,34.04-67.92,41.91c-39.75,12.63-80.94,21.58-121.71,30.18c-93.23,19.67-188.03,32.58-283.28,36.21
				c-93.65,3.56-187.87-1.84-280-19.42c-45.53-8.69-90.52-20.34-134.38-35.36c-38.71-13.25-91.22-31.4-98.45-78.28
				c-6.64-43.09,44.74-67.21,76.04-83.04c42.18-21.33,86.86-37.64,132.83-48.64c22.33-5.34,44.95-9.4,67.73-12.22
				C517.53,522.84,521.69,510.69,514.86,511.54L514.86,511.54z"/>
		</g>
	</g>
</g>
<g id="Ebene_31">
	<g>
		<path class="st9" d="M480.87,632.25c1.71,24.02-10.76,59.12-21.83,80.53c88.24-37.62,218.48-148.11,287.38-121.32
			c117.65,45.76,239.34,106.01,239.34,106.01s-27.87-121.55-43.86-121.55c-27.04,0-54.49-13.43-79.29-20.34
			c-131.36-36.63-202.29-3.45-377.94,80.74"/>
		<g>
			<path class="st9" d="M476.1,634.9c0.79,13.16-2.01,26.43-5.78,38.98c-3.81,12.68-8.67,25.13-14.72,36.92
				c-1.73,3.38-1.93,9.79,3.53,7.45c73.4-31.47,135.61-85.15,210.5-113.59c15-5.69,30.95-10.57,47.08-11.2
				c18.39-0.72,33.86,6.59,50.63,13.35c47.71,19.23,94.82,39.93,141.53,61.47c24.65,11.37,49.24,22.89,73.57,34.93
				c4.75,2.35,8.73-6.08,7.91-9.68c-5.43-23.67-11.65-47.24-18.86-70.44c-4.42-14.21-9-28.79-16.04-41.96
				c-1.94-3.63-4.35-8.04-8.01-10.21c-2.81-1.67-6.34-1.06-9.45-1.28c-7.76-0.55-15.42-2.07-22.94-4.04
				c-15.08-3.95-29.58-9.8-44.47-14.39c-11.48-3.54-23.22-6.41-34.97-8.9c-20.37-4.31-41.1-7.06-61.93-7.5
				c-40.49-0.85-80.14,7.58-118.27,20.71c-50.89,17.53-99.57,41.27-148.06,64.43c-7.59,3.63-15.19,7.27-22.78,10.9
				c-4.59,2.2-6.9,14.32,0.18,10.92c50.16-24.04,100.25-48.98,152.38-68.57c37.64-14.14,76.87-24.97,117.27-26.22
				c44.69-1.38,88.7,8.29,130.74,22.76c14.28,4.92,28.8,9.82,43.87,11.58c3.52,0.41,7.1,0.25,10.6,0.64
				c1.25,0.14-0.17-0.36,1.07,0.32c1.24,0.68,1.79,1.42,2.99,3.03c7.62,10.21,11.49,23.84,15.45,35.75
				c5.26,15.85,9.78,31.95,14.03,48.11c2.67,10.16,4.64,20.63,7.65,30.69c0.15,0.5,0.24,1.03,0.36,1.54
				c2.64-3.23,5.27-6.46,7.91-9.68c-65.38-32.36-132.11-62.35-199.58-90.08c-13.2-5.43-26.4-10.93-39.77-15.92
				c-6.31-2.36-12.82-3.83-19.55-4.29c-15.59-1.06-31.33,2.32-46.1,7.03c-37.8,12.06-72.72,32.65-106.68,52.76
				c-38.78,22.96-76.91,48.28-118.45,66.09c1.18,2.48,2.36,4.96,3.53,7.45c6.83-13.33,12.49-27.28,16.69-41.66
				c4.1-14.04,7.36-28.79,6.47-43.51C485.18,621.78,475.79,629.81,476.1,634.9L476.1,634.9z"/>
		</g>
	</g>
</g>
<g id="Ebene_33">
	<g>
		<path class="st10" d="M1003.73,685.28c48.31-70.51,96.63-141.03,144.94-211.54c8.41-12.27,17.21-26.94,12.57-41.05
			c-4.83-14.69-23.12-21.49-38.35-18.44c-15.23,3.06-27.84,13.41-39.16,23.99c-33.95,31.73-63.09,69.35-80.29,112.42
			c-17.2,43.07-21.82,91.9-7.87,136.11"/>
		<g>
			<path class="st10" d="M1007.17,687.26c29.03-42.36,58.05-84.72,87.08-127.09c14.42-21.04,28.84-42.09,43.26-63.13
				c6.83-9.97,14.16-19.76,20.32-30.16c5.64-9.52,10.47-20.63,9.28-31.94c-1.84-17.6-18.79-27.84-35.45-27.46
				c-21.15,0.48-38.43,15.77-52.88,29.61c-31.14,29.82-57.96,64.41-75.61,103.92c-20.81,46.58-27.43,100.5-12.18,149.71
				c1.99,6.42,10.66-3.14,9.19-7.9c-12.66-40.87-9.64-85.13,4.93-125.1c13.67-37.5,36.93-70.74,64.34-99.48
				c13.12-13.76,28.18-30.49,46.75-36.55c14.14-4.61,35.1-1.14,40.46,14.95c3.46,10.41-2.13,20.69-7.56,29.29
				c-6.01,9.52-12.66,18.67-19.03,27.96c-13.3,19.4-26.59,38.81-39.89,58.21c-29.96,43.73-59.92,87.46-89.88,131.19
				c-1.3,1.89-2.37,6.28,0.13,7.72C1003.13,692.57,1005.91,689.1,1007.17,687.26L1007.17,687.26z"/>
		</g>
	</g>
</g>
<g id="Ebene_29">
	<g>
		<g>
			<path d="M463.69,711.61c19.31-78.39,43.9-155.54,73.41-230.69c14.78-37.65,30.82-74.84,48.49-111.23
				c7.9-16.27,15.59-32.95,25.44-48.15c8.21-12.67,19.09-25.92,33.69-31.31c28.41-10.49,48.54,14.93,64.62,34.05
				c8.18,9.73,16.91,19.83,28.13,26.15c11.49,6.47,24.57,7.44,37.22,4.14c13.74-3.58,26.2-10.92,38.63-17.54
				c11.48-6.11,24.28-13.07,37.7-12.45c15.32,0.71,25.97,11.72,32.18,24.93c3.66,7.77,6.06,16.09,8.53,24.29
				c3.27,10.82,6.54,21.64,9.81,32.46c25.87,85.61,51.74,171.21,77.61,256.82c3.17,10.5,6.35,21,9.52,31.51
				c1.94,6.42,10.63-3.13,9.19-7.9c-26.64-88.15-53.28-176.31-79.91-264.46c-6.47-21.4-12.7-42.89-19.43-64.21
				c-4.74-15.02-11.17-31.65-25.32-40.21c-25.74-15.55-54.48,6.07-77.19,17.32c-12.45,6.17-26.21,11.34-40.27,8.37
				c-12.71-2.69-22.82-11.89-31.27-21.23c-16.73-18.49-32.92-45.43-60.78-46.51c-34.27-1.32-56.87,34.57-70.56,61.11
				c-18.74,36.32-35.79,73.51-51.49,111.23c-32.07,77.08-58.64,156.5-79.94,237.22c-2.52,9.53-4.95,19.09-7.31,28.66
				c-0.62,2.52,0.65,5.28,3.52,4.78C461.04,718.19,463.02,714.3,463.69,711.61L463.69,711.61z"/>
		</g>
	</g>
	<g>
		<g>
			<path d="M360.8,702.05c36.84,25.76,86.16,23.52,126.74,8.45c47.17-17.51,86.01-50.23,128.51-76.16
				c21.59-13.17,44.44-24.83,68.97-31.39c23.52-6.29,47.68-7.05,71.46-1.67c47.41,10.72,87.16,41.11,128.01,65.74
				c45.5,27.43,101.84,51.86,155.12,33.07c2.99-1.05,5.24-4.03,5.76-7.13c0.36-2.12-0.48-5.85-3.52-4.78
				c-47.58,16.78-97.76-2.49-139.42-26.02c-41.66-23.52-79.86-54.05-125.99-68.76c-22.35-7.13-45.52-9.73-68.82-6.51
				c-24.12,3.33-47.19,12.32-68.71,23.48c-44.11,22.86-81.97,55.99-126.43,78.23c-44.43,22.22-101.75,32.28-145.07,1.98
				C363.1,687.55,356.25,698.87,360.8,702.05L360.8,702.05z"/>
		</g>
	</g>
	<g>
		<g>
			<path d="M521.85,506.48c-67.08,11.27-134.92,25.71-197.85,52.19c-33.81,14.23-71.61,33.47-91.49,65.84
				c-6.69,10.89-10.82,23.71-10.07,36.58c0.74,12.61,5.85,24.42,13.2,34.57c20.78,28.67,55.43,46.54,87.2,60.08
				c56.6,24.13,117.96,37.9,178.62,46.8c86.13,12.64,173.51,13.36,260.25,7.81c87.7-5.61,174.86-17.28,261.91-28.93
				c35.85-4.8,71.55-11.63,106-22.8c25.16-8.15,50.13-18.51,72.09-33.42c29.59-20.08,56.34-51.96,48.83-90.08
				c-3.46-17.6-13.96-33.18-26.27-45.87c-17.19-17.71-38.29-31.3-60.11-42.59c-13.52-7-27.48-13.1-41.66-18.63
				c-5.19-2.02-11.44,9.59-6.62,11.47c26.24,10.23,52.02,22.44,75.1,38.71c16.35,11.52,31.78,25.38,41.93,42.83
				c7.42,12.76,11.21,27.82,8.53,42.03c-2.75,14.58-11.59,27.21-23.32,38.05c-16.64,15.38-37.05,26.3-57.78,35.08
				c-28.85,12.21-59.49,20.18-90.18,26.15c-40.32,7.84-81.4,12.2-122.13,17.39c-42.04,5.36-84.13,10.32-126.34,14.17
				c-84.19,7.67-169.06,10.74-253.41,3.66c-69.2-5.82-138.89-17.81-204.75-40.31c-36.66-12.53-74.84-28.48-104.11-54.57
				c-9.44-8.41-18.49-18.93-23.34-30.39c-2.08-4.92-3.67-10.93-4.01-15.29c-0.48-6.06-0.17-9.36,1.34-15.25
				c0.19-0.74-0.18,0.49,0.26-0.89c0.21-0.66,0.43-1.32,0.66-1.97c0.5-1.42,1.08-2.8,1.67-4.18c0.66-1.55-0.37,0.66,0.4-0.86
				c0.33-0.66,0.67-1.31,1.02-1.96c0.76-1.42,1.58-2.8,2.43-4.16c1.34-2.12,0.69-1.19,1.99-2.94c1.04-1.41,2.11-2.79,3.22-4.14
				c2.37-2.87,4.46-5.12,6.7-7.3c12.92-12.59,28.41-22.28,44.32-30.61c51.71-27.09,109.94-41.85,166.74-53.73
				c18.85-3.94,37.8-7.44,56.79-10.64C524.48,517.57,528.58,505.35,521.85,506.48L521.85,506.48z"/>
		</g>
	</g>
	<g>
		<g>
			<path d="M1001.18,689.65c15.88-68.91,44.56-134.59,84.05-193.24c11.25-16.71,23.47-32.75,36.41-48.18
				c1.6-1.91,3.56-6.12,1.67-8.44c-1.95-2.39-5.08-0.18-6.55,1.56c-47.27,56.35-84.11,121.42-107.9,191.03
				c-6.69,19.56-12.33,39.48-16.97,59.63c-0.58,2.52,0.62,5.29,3.52,4.78C998.49,696.24,1000.56,692.35,1001.18,689.65
				L1001.18,689.65z"/>
		</g>
	</g>
	<g>
		<g>
			<path d="M993.84,680.38c-14.67-76.28,10.21-157.69,62.95-214.34c13.49-14.49,29.22-28.3,46.56-37.99
				c16.32-9.12,42.12-13.38,53.75,5.53c11.71,19.03-6.29,42.04-17.32,56.76c-15.73,20.99-31.46,41.98-47.19,62.96
				c-35.24,47.02-70.49,94.05-105.73,141.07c-1.51,2.01-3.62,6.05-1.67,8.44c1.89,2.32,5.17,0.28,6.55-1.56
				c34.05-45.43,68.1-90.86,102.14-136.29c16.92-22.58,33.85-45.16,50.77-67.75c13.05-17.42,29.53-39.72,24.92-62.94
				c-4.21-21.22-27.11-29.3-46.35-25.12c-21.71,4.72-41.16,21.09-57.12,35.82c-30.92,28.55-54.62,64.69-69.21,104.13
				c-16.41,44.33-21.2,92.68-12.26,139.17c0.6,3.12,4.21,2.02,5.9,0.66C992.98,686.97,994.44,683.46,993.84,680.38L993.84,680.38z"
				/>
		</g>
	</g>
	<g>
		<g>
			<path d="M1085.27,460.71c1.09,6.86,2.18,13.72,3.27,20.58c0.5,3.16,4.27,1.98,5.9,0.66c2.5-2.02,3.79-5.43,3.3-8.56
				c-1.09-6.86-2.18-13.72-3.27-20.58c-0.5-3.16-4.27-1.98-5.9-0.66C1086.07,454.17,1084.77,457.59,1085.27,460.71L1085.27,460.71z"
				/>
		</g>
	</g>
	<g>
		<g>
			<path d="M1059.13,489.96c1.45,10.47,2.9,20.94,4.36,31.42c0.44,3.18,4.31,1.95,5.9,0.66c2.54-2.05,3.73-5.41,3.3-8.56
				c-1.45-10.47-2.9-20.94-4.36-31.42c-0.44-3.18-4.31-1.95-5.9-0.66C1059.89,483.45,1058.7,486.81,1059.13,489.96L1059.13,489.96z"
				/>
		</g>
	</g>
	<g>
		<g>
			<path d="M1022.11,547.38c2.54,9.75,5.08,19.5,7.62,29.25c0.79,3.03,4.09,2.12,5.9,0.66c2.3-1.86,4.07-5.58,3.3-8.56
				c-2.54-9.75-5.08-19.5-7.62-29.25c-0.79-3.03-4.09-2.12-5.9-0.66C1023.11,540.68,1021.33,544.39,1022.11,547.38L1022.11,547.38z"
				/>
		</g>
	</g>
	<g>
		<g>
			<path d="M1000.33,596.13c2.54,6.86,5.08,13.72,7.62,20.58c2.36,6.38,10.92-3.22,9.19-7.9c-2.54-6.86-5.08-13.72-7.62-20.58
				C1007.16,581.85,998.6,591.45,1000.33,596.13L1000.33,596.13z"/>
		</g>
	</g>
	<g>
		<g>
			<path d="M1033.2,602.46c5.44-1.44,10.89-2.89,16.33-4.33c3.02-0.8,5.23-4.2,5.76-7.13c0.42-2.33-0.48-5.58-3.52-4.78
				c-5.44,1.44-10.89,2.89-16.33,4.33c-3.02,0.8-5.23,4.2-5.76,7.13C1029.26,600.02,1030.17,603.27,1033.2,602.46L1033.2,602.46z"/>
		</g>
	</g>
	<g>
		<g>
			<path d="M1057.16,552.63c6.17-1.08,12.34-2.17,18.51-3.25c4.87-0.86,8.96-13.09,2.24-11.91c-6.17,1.08-12.34,2.17-18.51,3.25
				C1054.53,541.58,1050.44,553.81,1057.16,552.63L1057.16,552.63z"/>
		</g>
	</g>
	<g>
		<g>
			<path d="M1093.1,501.72c5.44-0.72,10.89-1.44,16.33-2.17c4.9-0.65,9.06-12.81,2.24-11.91c-5.44,0.72-10.89,1.44-16.33,2.17
				C1090.44,490.46,1086.29,502.62,1093.1,501.72L1093.1,501.72z"/>
		</g>
	</g>
	<g>
		<g>
			<path d="M1114.87,470.3c4.36-0.72,8.71-1.44,13.07-2.17c4.88-0.81,8.99-13.03,2.24-11.91c-4.36,0.72-8.71,1.44-13.07,2.17
				C1112.24,459.2,1108.13,471.42,1114.87,470.3L1114.87,470.3z"/>
		</g>
	</g>
	<g>
		<g>
			<path d="M936.07,514.94c26.71,0.03,53.17,2.6,79.83,3.55c5.15,0.18,10.3-11.91,4.56-12.12c-26.66-0.95-53.12-3.53-79.83-3.55
				C935.47,502.82,930.41,514.94,936.07,514.94L936.07,514.94z"/>
		</g>
	</g>
	<g>
		<g>
			<path d="M486.71,633.54c30.12-10.66,60.18-21.14,88.41-36.3c28.16-15.12,56.59-30.05,86.58-41.27
				c30.07-11.26,60.38-17.64,92.59-15.71c30.45,1.83,60.17,9.32,89.64,16.75c17.04,4.3,34.09,8.61,51.35,11.96
				c17.53,3.4,34.91,4.76,52.77,4.01c5.15-0.21,10.11-12.35,4.56-12.12c-62.81,2.61-121.46-25.64-183.34-31.88
				c-31.6-3.18-62.21,0.44-92.32,10.47c-30.35,10.11-59.18,24.18-87.43,39.09c-15.83,8.35-31.45,16.85-48.01,23.71
				c-17.25,7.15-34.96,13.15-52.56,19.38c-2.98,1.06-5.24,4.02-5.76,7.13C482.83,630.88,483.67,634.62,486.71,633.54L486.71,633.54z
				"/>
		</g>
	</g>
</g>
<g id="Ebene_36">
	<g class="st11">
		<path d="M651.65,1519.02c60.29-31.73,117.02-70.13,168.81-114.28c-53.11,13.68-108.73,17.66-163.27,11.68
			c-7.57,32.93-10.74,66.85-9.37,100.6"/>
		<g>
			<path d="M658.34,1530.46c61.26-32.32,118.73-71.47,171.49-116.35c10.52-8.95-0.83-25.22-12.89-22.14
				c-52.17,13.32-106.22,16.96-159.75,11.21c-5.49-0.59-11.59,4.51-12.77,9.72c-7.76,34.1-11.17,69.17-9.84,104.12
				c0.27,7.15,5.89,13.24,13.24,13.24c6.97,0,13.52-6.06,13.24-13.24c-1.24-32.67,1.65-65.19,8.9-97.08
				c-4.26,3.24-8.51,6.48-12.77,9.72c55.76,5.99,112.46,1.71,166.79-12.16c-4.3-7.38-8.59-14.76-12.89-22.14
				c-51.03,43.41-106.87,80.95-166.13,112.21c-6.32,3.34-8.25,12.14-4.75,18.12C643.96,1532.11,651.99,1533.81,658.34,1530.46
				L658.34,1530.46z"/>
		</g>
	</g>
	<g class="st11">
		<path d="M299.1,947.17c-0.13,34.58,3.82,71.06,25.28,98.27c21.46,27.2,39.94,45.16,73.73,53.25c-37.63,9.02-67.53-3.86-91.4-34.17
			c-23.87-30.31-28.05-74.67-10.25-108.86"/>
		<g>
			<path d="M285.86,947.17c-0.05,29.53,2.81,59.65,15.72,86.6c6.21,12.97,15.5,24.22,24.96,34.95c8.27,9.39,17.38,17.91,27.66,25.08
				c12.12,8.45,26.09,14.15,40.39,17.66c0-8.51,0-17.03,0-25.54c-7,1.63-10.82,2.24-18,2.34c-7.45,0.11-10.21-0.16-16.9-1.84
				c-6.72-1.69-9.41-2.76-14.88-5.74c-5.69-3.1-9.81-6.06-13.78-9.56c-20.1-17.72-31.69-41.26-32.26-67.14
				c-0.32-14.62,2.65-28.91,9.14-41.62c3.25-6.37,1.67-14.37-4.75-18.12c-5.91-3.46-14.86-1.64-18.12,4.75
				c-15.09,29.58-17.01,65.33-4.42,96.18c12.07,29.55,36.64,55.68,67.53,65.52c17.36,5.53,35.92,4.87,53.49,0.78
				c12.72-2.95,12.53-22.47,0-25.54c-7.44-1.83-14.81-4.25-20.21-6.87c-6.01-2.91-11.75-6.41-17.06-10.45
				c1.62,1.23-2.15-1.78-2.5-2.07c-1.36-1.16-2.7-2.34-4.02-3.55c-2.69-2.48-5.28-5.07-7.79-7.73c-5.22-5.53-10.1-11.38-14.84-17.33
				c-20.06-25.18-22.92-59.08-22.86-90.74C312.38,930.12,285.89,930.09,285.86,947.17L285.86,947.17z"/>
		</g>
	</g>
	<g class="st11">
		<path d="M372.31,692.74c26.36,12.88,57.49,15.79,85.8,8.03"/>
		<g>
			<path d="M365.62,704.18c29.96,14.36,63.82,17.93,96.01,9.36c16.46-4.38,9.48-29.94-7.04-25.54c-24.97,6.65-52.01,4.62-75.6-6.69
				c-6.45-3.09-14.3-1.77-18.12,4.75C357.49,691.84,359.14,701.07,365.62,704.18L365.62,704.18z"/>
		</g>
	</g>
	<g class="st11">
		<path d="M1004.48,690.59c10.52,1.02,21.04,2.04,31.55,3.06"/>
		<g>
			<path d="M1004.48,703.83c10.52,1.02,21.04,2.04,31.55,3.06c7.13,0.69,13.24-6.58,13.24-13.24c0-7.74-6.09-12.55-13.24-13.24
				c-10.52-1.02-21.04-2.04-31.55-3.06c-7.13-0.69-13.24,6.58-13.24,13.24C991.24,698.33,997.33,703.14,1004.48,703.83
				L1004.48,703.83z"/>
		</g>
	</g>
	<g class="st11">
		<path d="M497.65,624.03c122.13-99.96,301.04-125.78,446.68-64.47"/>
		<g>
			<path d="M507.02,633.4c45.74-37.29,100.7-64.06,158.18-79.09c29.87-7.81,57.98-12.2,88.32-13.81c15.11-0.8,30.25-0.85,45.36-0.13
				c14.7,0.69,29.86,2.15,43.1,4.19c33.93,5.23,67.17,14.52,98.84,27.78c6.6,2.76,14.57-2.98,16.29-9.25
				c2.1-7.64-2.62-13.52-9.25-16.29c-58.24-24.39-122.07-35.23-185.12-33.18c-63.66,2.07-126.57,17.06-184.24,44.08
				c-32.36,15.16-62.52,34.4-90.21,56.97c-5.55,4.52-4.7,14.03,0,18.73C493.77,638.88,501.45,637.93,507.02,633.4L507.02,633.4z"/>
		</g>
	</g>
	<g class="st11">
		<path d="M651.64,286.82C562.33,407.96,502.4,550.39,478.32,698.7"/>
		<g>
			<path d="M640.2,280.13c-34.98,47.54-65.54,98.29-91.15,151.48c-25.71,53.37-46.71,109.06-62.33,166.2
				c-8.76,32.06-15.81,64.57-21.17,97.37c-1.15,7.05,1.83,14.25,9.25,16.29c6.32,1.74,15.13-2.15,16.29-9.25
				c9.41-57.63,24.12-114.34,43.91-169.27c19.61-54.43,44.36-106.96,73.64-156.86c16.69-28.45,34.88-56.01,54.43-82.58
				c4.24-5.77,0.96-14.78-4.75-18.12C651.6,271.45,644.45,274.35,640.2,280.13L640.2,280.13z"/>
		</g>
	</g>
	<g class="st11">
		<path d="M1140.88,421.72c-77.3,37.96-132.44,117.32-140.82,202.67"/>
		<g>
			<path d="M1134.19,410.29c-63.32,31.34-112.06,88.97-134.88,155.59c-6.5,18.96-10.48,38.59-12.5,58.52
				c-0.72,7.13,6.6,13.24,13.24,13.24c7.76,0,12.52-6.1,13.24-13.24c0.77-7.56,1.72-13.79,3.48-22.16
				c1.68-7.99,3.75-15.9,6.22-23.68c4.99-15.77,10.52-28.58,18.55-43.2c15.7-28.57,35.69-52.71,61.22-73.64
				c12.74-10.45,28.89-20.69,44.79-28.56c6.41-3.17,8.18-12.25,4.75-18.12C1148.49,408.51,1140.62,407.1,1134.19,410.29
				L1134.19,410.29z"/>
		</g>
	</g>
	<g class="st11">
		<path d="M993.84,634.73c-1.3,13.56-2.6,27.11-3.89,40.67"/>
		<g>
			<path d="M980.59,634.73c-1.3,13.56-2.6,27.11-3.89,40.67c-0.68,7.13,6.58,13.24,13.24,13.24c7.73,0,12.56-6.09,13.24-13.24
				c1.3-13.56,2.6-27.11,3.89-40.67c0.68-7.13-6.58-13.24-13.24-13.24C986.11,621.48,981.28,627.58,980.59,634.73L980.59,634.73z"/>
		</g>
	</g>
	<g class="st11">
		<path d="M1113.95,432.05c-45.74,21.1-82.72,60.31-100.98,107.06"/>
		<g>
			<path d="M1107.27,420.61c-49.04,22.86-87.25,64.85-107.07,114.98c-2.63,6.65,2.88,14.54,9.25,16.29
				c7.52,2.07,13.65-2.57,16.29-9.25c3.75-9.49,9.74-21,15.92-30.64c6.6-10.3,12.92-18.31,21.38-27.22
				c16.71-17.59,35.32-30.91,57.59-41.29c6.48-3.02,8.12-12.36,4.75-18.12C1121.5,418.71,1113.77,417.58,1107.27,420.61
				L1107.27,420.61z"/>
		</g>
	</g>
	<g class="st11">
		<path d="M255.66,620.26c21.03,62.5,76.03,112.51,140.48,127.76c267.24,63.24,548.59,24.6,814.87-42.54
			c-284.13,108.63-605.15,118.99-895.77,28.93c-50.64-15.69-82.46-75.67-66.91-126.12"/>
		<g>
			<path d="M242.89,623.79c18.32,53.7,59.02,99.22,110.55,123.16c29.57,13.73,62,19.47,93.86,25.36
				c35.19,6.51,70.7,11.4,106.33,14.86c70.25,6.81,141.01,7.75,211.48,4.16c71.85-3.66,143.42-12.02,214.41-23.59
				c70.29-11.45,140.02-26.18,209.2-43.07c8.61-2.1,17.22-4.24,25.82-6.41c-2.35-8.51-4.69-17.03-7.04-25.54
				c-67.57,25.78-137.17,46.09-207.98,60.78c-69.99,14.52-141.05,23.45-212.44,26.86c-72.26,3.45-144.8,1.29-216.72-6.52
				c-71-7.7-141.41-21.2-210.28-40.12c-8.93-2.45-17.84-5-26.72-7.64c-7.01-2.08-16.26-4.61-21.81-7.02
				c-4.42-1.92-11.39-5.99-16.33-9.51c-0.22-0.15-2.4-1.8-1.32-0.96c0.95,0.74-0.75-0.62-0.75-0.61c-1.36-1.15-2.72-2.28-4.03-3.48
				c-2.47-2.24-4.82-4.61-7.07-7.07c-1.05-1.15-2.07-2.33-3.07-3.53c-0.57-0.68-1.14-1.37-1.68-2.08c0.36,0.47,1.17,1.63-0.36-0.51
				c-2.08-2.91-4.08-5.85-5.9-8.93c-3.67-6.19-5.85-10.83-7.76-16.18c-2.24-6.29-3.84-12.76-4.93-19.35
				c-0.06-0.37-0.31-2.6-0.06-0.43c-0.07-0.66-0.15-1.32-0.21-1.98c-0.12-1.54-0.26-3.08-0.34-4.63c-0.17-3.53-0.15-7.07,0.07-10.6
				c0.1-1.55,0.24-3.08,0.41-4.62c0.24-2.24-0.31,1.8,0.06-0.43c0.11-0.66,0.21-1.31,0.33-1.97c0.63-3.51,1.49-6.96,2.52-10.38
				c2.05-6.85-2.47-14.43-9.25-16.29c-7.05-1.94-14.23,2.37-16.29,9.25c-17.43,58.15,18.78,124.13,76.16,142.42
				c70.49,22.46,143.58,37.94,216.83,47.97c74.06,10.14,148.81,14.61,223.55,12.91c74.69-1.69,149.28-9.4,222.76-22.85
				c72.59-13.29,144.13-32.41,213.6-57.32c8.72-3.13,17.4-6.35,26.06-9.65c6.68-2.55,11.28-8.92,9.25-16.29
				c-1.94-7.04-9.33-11-16.29-9.25c-67.78,17.07-136.06,32.23-204.9,44.36c-68.27,12.04-137.07,21.05-206.23,25.87
				c-68.88,4.8-138.11,5.45-207.01,0.69c-33.96-2.35-67.83-5.97-101.47-11.18c-17.13-2.65-34.19-5.68-51.18-9.1
				c-15.93-3.21-32.1-6.28-47.68-10.96c-49.51-14.89-91.64-51.68-113.99-99.14c-2.7-5.73-4.32-9.85-6.59-16.51
				c-2.31-6.77-9.1-11.23-16.29-9.25C245.54,609.3,240.57,616.99,242.89,623.79L242.89,623.79z"/>
		</g>
	</g>
	<g class="st11">
		<path d="M407.2,797.41c-7.38,36.32-8.36,73.92-2.9,110.57c-7.33-20.55-8.17-43.34-2.38-64.37"/>
		<g>
			<path d="M394.43,793.89c-7.79,38.95-8.63,78.34-2.9,117.61c8.51-2.35,17.03-4.69,25.54-7.04c-6.47-18.66-7.47-38.2-2.38-57.32
				c4.39-16.49-21.16-23.53-25.54-7.04c-6.23,23.43-5.57,48.47,2.38,71.41c2.34,6.76,9.07,11.23,16.29,9.25
				c7.6-2.09,10.29-9.19,9.25-16.29c-5-34.26-3.88-69.61,2.9-103.53c1.4-7.01-2.01-14.3-9.25-16.29
				C404.2,782.85,395.84,786.84,394.43,793.89L394.43,793.89z"/>
		</g>
	</g>
	<g class="st11">
		<path d="M437.76,818.13c5.21,33.07-1.25,67.84-17.98,96.88c23.26-24.82,33.69-60.97,27.2-94.29"/>
		<g>
			<path d="M424.99,821.66c4.46,29.47-1.8,60.55-16.64,86.68c-7.26,12.79,10.36,27.37,20.8,16.05
				c26.64-28.87,37.8-68.65,30.61-107.18c-1.31-7.04-9.81-11.03-16.29-9.25c-7.38,2.03-10.57,9.24-9.25,16.29
				c5.26,28.18-3.79,59.73-23.8,81.4c6.93,5.35,13.87,10.7,20.8,16.05c18.55-32.65,24.91-70.09,19.31-107.09
				c-1.07-7.08-9.98-10.98-16.29-9.25C426.67,807.44,423.92,814.56,424.99,821.66L424.99,821.66z"/>
		</g>
	</g>
	<g class="st11">
		<path d="M585.13,1572.06c34.24,29.65,74.54,52.34,117.71,66.28c0.1,16.8-20.85,27.4-37.17,23.05s-28.04-18.29-37.64-32.12
			c-9.61-13.82-18.79-28.83-33.3-37.43"/>
		<g>
			<path d="M575.76,1581.42c36.22,31.21,78.08,54.88,123.56,69.68c-3.24-4.26-6.48-8.51-9.72-12.77c-0.07,3.06,0.78-1.4-0.07,1.21
				c-0.31,0.93-1.35,3.13-0.27,1.17c-0.55,1.01-1.11,2.03-1.81,2.95c1.67-2.19-1.07,0.83-1.49,1.22c-0.7,0.6-0.59,0.54,0.34-0.19
				c-0.49,0.36-1,0.7-1.52,1.02c-1.07,0.61-2.12,1.25-3.23,1.79c-0.84,0.4-0.74,0.36,0.3-0.11c-0.59,0.22-1.18,0.42-1.78,0.6
				c-1.22,0.32-2.42,0.67-3.66,0.93c-0.96,0.17-0.82,0.17,0.41,0c-0.63,0.07-1.25,0.12-1.88,0.14c-1.47,0.01-2.91,0.05-4.38-0.08
				c2.35,0.2-0.61-0.19-1.36-0.38c-1.46-0.38-2.94-0.83-4.34-1.42c-3.64-1.53-8.19-4.85-11.71-8.21
				c-18.7-17.83-28.28-44.22-51.73-58.59c-14.57-8.93-27.9,13.97-13.37,22.87c11.84,7.26,19.54,19.65,27.65,31.38
				c8.81,12.75,18.64,25.44,32.2,33.46c12.77,7.55,28.16,9.87,42.16,4.37c14.62-5.75,25.64-17.9,26.04-34.15
				c0.15-6.01-4.25-10.99-9.72-12.77c-40.95-13.33-79.23-34.75-111.87-62.87c-5.42-4.67-13.41-5.32-18.73,0
				C570.99,1567.47,570.32,1576.73,575.76,1581.42L575.76,1581.42z"/>
		</g>
	</g>
	<g class="st11">
		<path d="M751.98,1622.3c49.14,15.07,106.8-3.27,138.04-43.91c-27.4,23.72-54.8,47.44-82.2,71.16c-8.2,7.1-20.81,8.66-30.51,3.76
			c-9.7-4.9-15.88-15.94-14.96-26.72"/>
		<g>
			<path d="M748.46,1635.07c53.54,16.05,116.42-3.01,150.93-47.31c4.39-5.64,5.5-13.23,0-18.73c-5.37-5.37-13.31-4.7-18.73,0
				c-22.67,19.62-45.33,39.25-68,58.87c-2.74,2.37-5.48,4.74-8.22,7.12c-2,1.73-5.21,4.62-6.26,5.3c-2.61,1.69-2.94,1.65-5.65,2.34
				c-2.3,0.59-0.12,0.32-2.35,0.25c0.03,0-4.12-0.28-2.36-0.01c-2.83-0.44-3.85-0.98-5.66-2.06c-0.73-0.51-0.8-0.5-0.19,0.04
				c-0.55-0.44-1.08-0.91-1.58-1.41c-0.34-0.33-2.19-2.26-1.19-1.02c-0.88-1.08-1.57-2.38-2.24-3.59c-1.39-2.49-0.15,0.73-0.79-2.05
				c-0.1-0.43-0.8-4.18-0.57-2c-0.15-1.4-0.07-2.82,0-4.22c0.41-7.15-6.38-13.24-13.24-13.24c-7.51,0-12.84,6.07-13.24,13.24
				c-0.87,15.35,7.84,31.01,21.52,38.15c15.85,8.27,34.05,4.78,47.31-6.48c27.37-23.24,54.3-47.01,81.45-70.51
				c-6.24-6.24-12.49-12.49-18.73-18.73c-7.39,9.49-16.32,18.02-25.16,24.05c-10.37,7.07-20.33,11.9-31.3,15.39
				c-22.91,7.27-45.89,7.9-68.69,1.06c-6.85-2.05-14.43,2.47-16.29,9.25C737.27,1625.83,741.58,1633.01,748.46,1635.07
				L748.46,1635.07z"/>
		</g>
	</g>
	<g class="st11">
		<path d="M735.9,1640.88c-9.2,72.95,17.62,149.55,70.38,201.03c-22.26-0.63-44.52-1.27-66.78-1.9c8.33-45.7,9.56-92.68,3.63-138.75
			"/>
		<g>
			<path d="M722.66,1640.88c-7.26,59.26,8.28,121.29,41.51,170.79c9.56,14.24,20.52,27.59,32.76,39.61
				c3.12-7.54,6.24-15.07,9.37-22.61c-22.26-0.63-44.52-1.27-66.78-1.9c4.26,5.59,8.51,11.18,12.77,16.77
				c8.46-46.99,10.1-94.88,4.1-142.27c-0.9-7.1-5.44-13.24-13.24-13.24c-6.46,0-14.15,6.1-13.24,13.24
				c5.68,44.92,4.87,90.64-3.16,135.22c-1.54,8.55,3.58,16.5,12.77,16.77c22.26,0.63,44.52,1.27,66.78,1.9
				c11.52,0.33,17.42-14.7,9.37-22.61c-19.81-19.46-35.31-41.71-47.16-67.17c-10.8-23.21-18.26-51.43-20.33-76.6
				c-1.31-15.96-0.96-32.01,0.99-47.9c0.87-7.11-6.71-13.24-13.24-13.24C728.02,1627.64,723.53,1633.75,722.66,1640.88
				L722.66,1640.88z"/>
		</g>
	</g>
	<g class="st11">
		<path d="M525.61,1566.52c26,87.57,41.25,178.29,45.31,269.51c-12.57-2.21-25.15-4.43-37.72-6.64
			c11.02-61.72,15.21-124.64,12.48-187.27"/>
		<g>
			<path d="M512.84,1570.05c19.87,67.15,33.65,136.11,40.53,205.81c1.98,20.02,3.4,40.09,4.31,60.18
				c5.59-4.26,11.18-8.51,16.77-12.77c-12.57-2.21-25.15-4.43-37.72-6.64c3.08,5.43,6.17,10.86,9.25,16.29
				c11.16-62.94,15.66-126.92,12.95-190.79c-0.3-7.15-5.87-13.24-13.24-13.24c-6.94,0-13.55,6.06-13.24,13.24
				c2.61,61.48-1.26,123.16-12,183.75c-1.16,6.52,1.69,14.96,9.25,16.29c12.57,2.21,25.15,4.43,37.72,6.64
				c8.01,1.41,17.19-3.48,16.77-12.77c-3.27-71.97-13.26-143.71-29.95-213.8c-4.74-19.89-10.03-39.63-15.83-59.23
				c-2.03-6.86-9.3-11.17-16.29-9.25C515.27,1555.63,510.8,1563.16,512.84,1570.05L512.84,1570.05z"/>
		</g>
	</g>
	<g class="st11">
		<path d="M887.26,1602.66c-9.98,81.83,13.91,167.24,64.95,232.17c-14.94,3.57-30.48,7.15-45.53,4.04
			c-15.05-3.12-29.44-14.99-30.1-30.27c-2.68-61.79-5.36-123.58-8.03-185.37"/>
		<g>
			<path d="M874.02,1602.66c-7.89,66.21,5.78,134.52,37.08,193.28c9.09,17.07,19.84,33.03,31.74,48.25
				c1.95-7.38,3.9-14.76,5.84-22.14c-8.21,1.95-16.49,4.07-24.93,4.6c-3.81,0.24-7.75,0.34-11.54-0.19
				c-1.59-0.22-3.19-0.61-4.74-1.04c-0.68-0.19-1.35-0.4-2.02-0.62c-0.48-0.16-2.94-1.17-1.45-0.49c-2.32-1.04-5.88-3.2-7.08-4.15
				c-2-1.6-3.63-3.38-4.89-5.45c-1.22-1.99-1.84-3.36-2.14-5.15c0.22,1.27-0.07-0.92-0.07-0.97c-0.06-1.33-0.12-2.66-0.17-3.99
				c-0.1-2.33-0.2-4.65-0.3-6.98c-1.61-37.21-3.23-74.41-4.84-111.62c-0.91-20.93-1.81-41.86-2.72-62.79
				c-0.31-7.15-5.87-13.24-13.24-13.24c-6.93,0-13.56,6.06-13.24,13.24c1.76,40.53,3.51,81.06,5.27,121.59
				c0.89,20.6,1.71,41.2,2.68,61.79c0.82,17.37,10.48,32.07,26.11,39.96c21.08,10.64,44.43,6.26,66.38,1.03
				c4.45-1.06,8.06-4.92,9.25-9.25c1.37-4.99-0.4-9.04-3.41-12.89c-37.54-48.03-59.64-108.99-62.85-169.36
				c-0.95-17.84-0.33-35.71,1.79-53.45c0.85-7.11-6.69-13.24-13.24-13.24C879.4,1589.42,874.87,1595.53,874.02,1602.66
				L874.02,1602.66z"/>
		</g>
	</g>
	<g class="st11">
		<path d="M373.3,1661.43c-1.55,41.09,21.42,80.05,52.13,107.57c30.71,27.51,68.66,45.46,106.03,63.03
			c-92.83-8.56-185.66-17.11-278.49-25.67c38.41-48.14,76.82-96.28,115.22-144.42"/>
		<g>
			<path d="M360.05,1661.43c-0.99,33.02,11.98,64.77,31.87,90.66c21.35,27.78,49.92,48.47,80.39,65.29
				c17.1,9.44,34.79,17.78,52.46,26.08c2.23-8.23,4.46-16.45,6.68-24.68c-72.27-6.66-144.55-13.32-216.82-19.98
				c-20.56-1.89-41.11-3.79-61.67-5.68c3.12,7.54,6.24,15.07,9.37,22.61c38.41-48.14,76.82-96.28,115.22-144.41
				c4.46-5.59,5.46-13.28,0-18.73c-4.62-4.62-14.25-5.62-18.73,0c-38.41,48.14-76.82,96.28-115.22,144.41
				c-7.37,9.24-2.6,21.51,9.37,22.61c72.27,6.66,144.55,13.32,216.82,19.98c20.56,1.89,41.11,3.79,61.67,5.68
				c12.88,1.19,18.36-19.19,6.68-24.68c-55.31-26-116.28-54.86-142.57-113.46c-6.37-14.2-9.51-29.83-9.04-45.7
				c0.22-7.16-6.24-13.24-13.24-13.24C365.94,1648.18,360.27,1654.25,360.05,1661.43L360.05,1661.43z"/>
		</g>
	</g>
</g>
<g id="Ebene_37">
	<g class="st11">
		<g>
			<path d="M402.26,1108c5.73,91.83,52.55,179.62,124.5,236.8c36.92,29.34,79.53,50.67,125.59,61.23
				c47.1,10.8,96.2,10.98,143.53,1.46c53.24-10.71,103.39-34.49,145.15-69.2c5.5-4.58,4.73-14,0-18.73
				c-5.45-5.45-13.21-4.59-18.73,0c-33.55,27.9-74.32,47.77-117.06,58.65c-41.7,10.62-87.52,12.82-129.39,5.58
				c-86.09-14.89-159.65-67.77-204.24-141.66c-12.8-21.21-22.19-41.66-29.53-64.6c-3.71-11.59-6.75-23.41-9.04-35.36
				c-2.35-12.24-3.47-21.29-4.28-34.17c-0.45-7.14-5.77-13.24-13.24-13.24C408.68,1094.75,401.81,1100.82,402.26,1108L402.26,1108z"
				/>
		</g>
	</g>
	<g class="st11">
		<g>
			<path d="M703.05,1013.04c-8.98,11.88-9.66,29.33-2.23,42.13c7.23,12.45,21.77,20.19,36.12,19.29
				c7.14-0.45,13.24-5.77,13.24-13.24c0-6.82-6.07-13.69-13.24-13.24c-0.96,0.06-1.9,0.08-2.86,0.09c-0.57,0.01-2.13-0.26-0.73-0.01
				c-0.94-0.17-1.85-0.45-2.77-0.71c-0.39-0.11-2-0.85-0.81-0.27c-0.85-0.41-1.69-0.9-2.49-1.41c-0.3-0.19-1.69-1.35-0.73-0.51
				c-1.93-1.68-1.8-1.52-2.87-3.36c-1.56-2.69-1.75-4.03-1.44-7.64c0.01-0.16,0.4-2.18,0.66-2.88c0.35-0.94,1.97-3.5,3.02-4.88
				c4.32-5.71,0.91-14.81-4.75-18.12C714.38,1004.32,707.37,1007.31,703.05,1013.04L703.05,1013.04z"/>
		</g>
	</g>
</g>
<g id="Ebene_17">
</g>
<g id="Ebene_18">
	<g>
		<g id="Ebene_2_Kopie">
			<g class="st12">
				<path d="M1156.62,980.11c34.13,20.57,51.59,59.42,41.31,91.85c-10.29,32.43-47.56,55.98-88.12,55.69
					c-40.56-0.29-81.33-24.41-96.41-57.03c-15.08-32.62-3.3-71.25,27.84-91.35c31.14-20.1,79.27-20.14,113.81-0.09"/>
				<g>
					<path d="M1152.46,984.13c32,19.56,49.38,54.88,41.25,86c-7.69,29.43-39.99,50.89-75.68,52.75
						c-37.64,1.97-76.69-17.88-94.98-46.69c-18.41-29-13.21-65.47,12.04-87.71c28.4-25.01,80.23-25.62,115.79-5.28
						c4.7,2.69,12.71-5.52,8.31-8.04c-35.96-20.58-83.66-20.49-116.87-0.96c-33.93,19.96-48.86,59.47-35.91,94.49
						c12.63,34.15,52.54,60.01,93.81,63.25c42.12,3.31,81.56-18.53,97.97-49.49c18.81-35.47,2.11-82.2-37.43-106.37
						C1156.19,973.28,1148.09,981.45,1152.46,984.13L1152.46,984.13z"/>
				</g>
			</g>
			<g class="st12">
				<path d="M1127.41,335.14c9.19-30.25,24.28-59.73,50.43-81.08s64.75-33.49,101.99-25.96c53.98,10.93,90.53,61.14,90.12,107.13
					c-0.41,46-30.27,86.84-67.57,118.31s-82.34,55.7-122.52,84.56c-65.46,47.04-118.58,107.77-142.16,178.68
					c-15.5,46.58-17.1,99.94,12.51,144.2c29.61,44.27,96.95,74.08,149.89,56.11c33.59-11.4,55.21-38.83,67-67.77
					c11.79-28.94,15.48-60.15,23.83-90.1c17.22-61.79,54.8-118.34,107.61-161.93c65.4-53.99,154.31-89.41,201.03-156.12
					c49.46-70.63,39.82-167.27-13.77-241.95c-53.58-74.68-146.18-127.6-244.4-151.46c-107.94-26.23-225.75-18.59-318.19,26.78
					S866.64,203.96,862.14,296.47c-1.77,36.47,6.2,75.4,32.97,105.85c35.26,40.12,102.29,58.5,154.93,42.48
					c52.64-16.02,58.53-60.35,77.02-108.68"/>
				<g>
					<path d="M1132.5,333.9c8.25-26.88,21.22-53.25,43.54-73.41c20-18.07,48.69-30.1,79.34-30.02
						c60.45,0.15,104.38,50.29,109.01,97.63c5.79,59.14-41.86,107.88-90.28,142.6c-26.2,18.79-54.37,35.57-81.18,53.75
						c-25.55,17.32-49.52,36.22-71.02,57.09c-42.04,40.82-75.04,89.02-91.23,142.49c-14.53,47.99-14.92,106.65,22.78,150.88
						c31.64,37.11,90.93,62.73,141.88,47.88c27.92-8.14,49-26.65,63.01-47.92c16.52-25.08,23.2-53.83,29.42-82.23
						c6.41-29.25,14.18-57.73,27.5-85c12.66-25.9,29.17-50.38,49.1-72.5c19.39-21.52,41.96-40.48,66.6-57.69
						c23.31-16.28,47.88-31.23,71.81-46.86c46.92-30.65,91.86-65.21,115.2-112.66c22.59-45.93,24.35-99.31,8.89-149.22
						c-15.96-51.57-50.17-98.35-96.4-136.01c-46.68-38.03-104.17-66.38-164.59-83.8c-61.28-17.67-126.41-24.28-189.04-19.11
						c-62.41,5.14-122.41,21.97-173.22,50.84c-50.13,28.48-90.43,68.4-116.37,114.67c-25.33,45.17-38.09,99.36-26.42,150.97
						c5.72,25.27,18.11,50.26,39.65,69.72c19.86,17.94,46.58,30.43,74.26,35.91c27.75,5.49,56.87,4.18,81.99-5.19
						c23.63-8.83,39.53-25.69,49.9-45.24c11.04-20.83,16.86-43.64,25.14-65.42c2.56-6.74-7.76-4.32-9.46,0.13
						c-8.35,21.95-14.19,44.98-25.43,65.94c-10.38,19.35-27.15,33.56-51.72,39.8c-53.12,13.48-118.2-7.56-150.17-48.83
						c-34.74-44.85-32.95-102.89-18.69-150.39c14.66-48.83,46.38-93.21,88.98-127.17c43.68-34.84,98.45-58.27,158.1-69.77
						c60.32-11.61,124.88-11.13,187.09,0.5c61.24,11.44,120.72,33.74,172.03,66.07c50.75,31.98,93.41,73.95,118.44,122.79
						c24.33,47.47,32.36,100.47,20.04,149.18c-6.14,24.28-17.71,47-34.07,67.12c-16.5,20.28-37.43,37.64-59.57,53.47
						c-45.38,32.45-96.4,59.33-138.06,95.36c-44.72,38.67-78.18,86.85-96.85,139.35c-10.16,28.6-14.38,58.56-22.56,87.65
						c-7.15,25.42-18.56,50.63-40.38,69.08c-19.11,16.16-45.48,23.75-73.52,20.78c-26.75-2.83-52.57-14.35-72.87-29.97
						c-47.24-36.34-56.87-92.49-48.2-140.88c9.55-53.23,38.97-102.53,77.1-143.79c19.59-21.19,41.7-40.64,65.74-58.26
						c25.43-18.63,52.93-35.16,79.36-52.76c50.62-33.71,99.87-74.6,114.32-130.53c6.18-23.9,4.44-49.07-6.88-72.77
						c-10.22-21.4-28.03-41.5-51.7-53.85c-54.98-28.67-119.28-5.94-152.89,31.64c-18.49,20.68-29.88,45.07-37.66,70.4
						c-0.73,2.38,1.9,3.69,4.31,3.22C1129.76,338.98,1131.75,336.34,1132.5,333.9L1132.5,333.9z"/>
				</g>
			</g>
			<g class="st12">
				<path d="M1082.5,1041.57c-10.79-22.11,5.88-49.08,32.81-53.06"/>
				<g>
					<path d="M1087.32,1038.29c-9.11-19.35,3.64-41.56,27.21-45.33c4.9-0.79,9.11-10.11,1.57-8.91
						c-30.62,4.89-50.41,35.26-38.41,60.78C1079.8,1049.35,1089.25,1042.42,1087.32,1038.29L1087.32,1038.29z"/>
				</g>
			</g>
			<g class="st12">
				<path d="M1081.48,1011.14c2.08,0.12,3.21,2.87,1.6,3.87c-2.29-1.64-1.74-5.17,0.92-6"/>
				<g>
					<path d="M1078.28,1015.62c0.66,0.09,0.57,0.29,0.21-0.08c0.52,0.53-0.18-0.44,0.07-0.03c0.22,0.36,0.12,0.57,0.1-0.05
						c0.02,0.09,0.03,0.18,0.05,0.27c-0.07-1.6,0.77-2.93,2.54-3.98c2-0.26,3.99-0.5,5.99-0.76c-0.17-0.13-0.32-0.27-0.47-0.41
						c0.6,0.59,0.13,0.11,0.06-0.09c-0.16-0.52,0.14,0.68,0.03,0.15c-0.17-0.79-0.07,0.13-0.1,0.11c-0.09-0.05,0.14-0.48,0.08-0.55
						c0.06,0.07-0.36,1.05-0.08,0.39c-0.29,0.68-0.78,1.26-1.38,1.76c-0.17,0.14-1.59,0.93-0.84,0.66c2.55-0.91,4.97-3.86,4.59-6.32
						c-0.42-2.73-3.56-2.42-5.66-1.67c-5.41,1.93-10.05,9.67-4.54,14.01c1.7,1.34,4.67,0.22,5.99-0.76
						c2.49-1.85,4.59-4.53,3.96-7.59c-0.37-1.79-1.9-3.74-4.19-4.02c-3.05-0.38-5.83,1.21-7.24,3.36c-0.68,1.02-1.28,2.21-1.08,3.45
						C1076.48,1014.3,1077.13,1015.48,1078.28,1015.62L1078.28,1015.62z"/>
				</g>
			</g>
		</g>
		<g id="Ebene_2_1_">
			<g>
				<path class="st13" d="M1184.5,964.67c34.13,20.57,51.59,59.42,41.31,91.85c-10.29,32.43-47.56,55.98-88.12,55.69
					s-81.33-24.41-96.41-57.03c-15.08-32.62-3.3-71.25,27.84-91.35c31.14-20.1,79.27-20.14,113.81-0.09"/>
				<g>
					<path d="M1180.35,968.69c32,19.56,49.38,54.88,41.25,86c-7.69,29.43-39.99,50.89-75.68,52.75
						c-37.64,1.97-76.69-17.88-94.98-46.69c-18.41-29-13.21-65.47,12.04-87.71c28.4-25.01,80.23-25.62,115.79-5.28
						c4.7,2.69,12.71-5.52,8.31-8.04c-35.96-20.58-83.66-20.49-116.87-0.96c-33.93,19.96-48.86,59.47-35.91,94.49
						c12.63,34.15,52.54,60.01,93.81,63.25c42.12,3.31,81.56-18.53,97.97-49.49c18.81-35.47,2.11-82.2-37.43-106.37
						C1184.07,957.85,1175.98,966.02,1180.35,968.69L1180.35,968.69z"/>
				</g>
			</g>
			<g>
				<path class="st14" d="M1172.36,320.84c9.19-30.25,24.28-59.73,50.43-81.08s64.75-33.49,101.99-25.96
					c53.98,10.93,90.53,61.14,90.12,107.13c-0.41,46-30.27,86.84-67.57,118.31c-37.3,31.47-82.34,55.7-122.52,84.56
					c-65.46,47.04-118.58,107.77-142.16,178.68c-15.5,46.58-17.1,99.94,12.51,144.2c29.61,44.26,96.95,74.08,149.89,56.11
					c33.59-11.4,55.21-38.83,67-67.77c11.79-28.94,15.48-60.15,23.83-90.1c17.22-61.79,54.8-118.34,107.61-161.93
					c65.4-53.99,154.31-89.41,201.03-156.12c49.46-70.63,39.82-167.27-13.77-241.95c-53.58-74.68-146.18-127.6-244.4-151.46
					c-107.92-26.24-225.72-18.6-318.16,26.77c-92.44,45.37-156.59,129.44-161.08,221.96c-1.77,36.47,6.2,75.4,32.97,105.85
					c35.26,40.12,102.29,58.5,154.93,42.48c52.64-16.02,58.53-60.35,77.02-108.68"/>
				<g>
					<path d="M1177.45,319.61c8.25-26.88,21.22-53.25,43.54-73.41c20-18.07,48.69-30.1,79.34-30.02
						c60.45,0.15,104.38,50.29,109.01,97.63c5.79,59.14-41.86,107.88-90.28,142.6c-26.2,18.79-54.37,35.57-81.18,53.75
						c-25.55,17.32-49.52,36.22-71.02,57.09c-42.04,40.82-75.04,89.02-91.23,142.49c-14.53,47.99-14.92,106.65,22.78,150.88
						c31.64,37.11,90.93,62.73,141.88,47.88c27.92-8.14,49-26.65,63.01-47.92c16.52-25.08,23.2-53.83,29.42-82.23
						c6.41-29.25,14.18-57.73,27.5-85c12.66-25.9,29.17-50.38,49.1-72.5c19.39-21.52,41.96-40.48,66.6-57.69
						c23.31-16.28,47.88-31.23,71.81-46.86c46.92-30.65,91.86-65.21,115.2-112.66c22.59-45.93,24.35-99.31,8.89-149.22
						c-15.96-51.57-50.17-98.35-96.4-136.01c-46.68-38.03-104.17-66.38-164.59-83.8c-61.28-17.67-126.41-24.28-189.04-19.11
						c-62.41,5.14-122.41,21.97-173.22,50.84c-50.13,28.48-90.43,68.4-116.37,114.67c-25.33,45.17-38.09,99.36-26.42,150.97
						c5.72,25.27,18.11,50.26,39.65,69.72c19.86,17.94,46.58,30.43,74.26,35.91c27.75,5.49,56.87,4.18,81.99-5.19
						c23.63-8.83,39.53-25.69,49.9-45.24c11.04-20.83,16.86-43.64,25.14-65.42c2.56-6.74-7.76-4.32-9.46,0.13
						c-8.35,21.95-14.19,44.98-25.43,65.94c-10.38,19.35-27.15,33.56-51.72,39.8c-53.12,13.48-118.2-7.56-150.17-48.83
						c-34.74-44.85-32.95-102.89-18.69-150.39c14.66-48.83,46.38-93.21,88.98-127.17c43.68-34.84,98.45-58.27,158.1-69.77
						c60.32-11.61,124.88-11.13,187.09,0.5c61.24,11.44,120.72,33.74,172.03,66.07c50.75,31.98,93.41,73.95,118.44,122.79
						c24.33,47.47,32.36,100.47,20.04,149.18c-6.14,24.28-17.71,47-34.07,67.12c-16.5,20.28-37.43,37.64-59.57,53.47
						c-45.38,32.45-96.4,59.33-138.06,95.36c-44.72,38.67-78.18,86.85-96.85,139.35c-10.16,28.6-14.38,58.56-22.56,87.65
						c-7.15,25.42-18.56,50.63-40.38,69.08c-19.11,16.16-45.48,23.75-73.52,20.78c-26.75-2.83-52.57-14.35-72.87-29.97
						c-47.24-36.34-56.87-92.49-48.2-140.88c9.55-53.23,38.97-102.53,77.1-143.79c19.59-21.19,41.7-40.64,65.74-58.26
						c25.43-18.63,52.93-35.16,79.36-52.76c50.62-33.71,99.87-74.6,114.32-130.53c6.18-23.9,4.44-49.07-6.88-72.77
						c-10.22-21.4-28.03-41.5-51.7-53.85c-54.98-28.67-119.28-5.94-152.89,31.64c-18.49,20.68-29.88,45.07-37.66,70.4
						c-0.73,2.38,1.9,3.69,4.31,3.22C1174.71,324.69,1176.7,322.05,1177.45,319.61L1177.45,319.61z"/>
				</g>
			</g>
			<g>
				<g>
					<path d="M1087.32,1038.29c-9.11-19.35,3.64-41.56,27.21-45.33c4.9-0.79,9.11-10.11,1.57-8.91
						c-30.62,4.89-50.41,35.26-38.41,60.78C1079.8,1049.35,1089.25,1042.42,1087.32,1038.29L1087.32,1038.29z"/>
				</g>
			</g>
			<g>
				<path class="st13" d="M1145.16,987.82c2.08,0.12,3.21,2.87,1.6,3.87c-2.29-1.64-1.74-5.17,0.92-6"/>
				<g>
					<path d="M1141.96,992.3c0.66,0.09,0.57,0.29,0.21-0.08c0.52,0.53-0.18-0.44,0.07-0.03c0.22,0.36,0.12,0.57,0.1-0.05
						c0.02,0.09,0.03,0.18,0.05,0.27c-0.07-1.6,0.77-2.93,2.54-3.98c2-0.26,3.99-0.5,5.99-0.76c-0.17-0.13-0.32-0.27-0.47-0.41
						c0.6,0.59,0.13,0.11,0.06-0.09c-0.16-0.52,0.14,0.68,0.03,0.15c-0.17-0.79-0.07,0.13-0.1,0.11c-0.09-0.05,0.14-0.48,0.08-0.55
						c0.06,0.07-0.36,1.05-0.08,0.39c-0.29,0.68-0.78,1.26-1.38,1.76c-0.17,0.14-1.59,0.93-0.84,0.66c2.55-0.91,4.97-3.86,4.59-6.32
						c-0.42-2.73-3.56-2.42-5.66-1.67c-5.41,1.93-10.05,9.67-4.54,14.01c1.7,1.34,4.67,0.22,5.99-0.76
						c2.49-1.85,4.59-4.53,3.96-7.59c-0.37-1.79-1.9-3.74-4.19-4.02c-3.05-0.38-5.83,1.21-7.24,3.36c-0.68,1.02-1.28,2.21-1.08,3.45
						C1140.16,990.97,1140.82,992.16,1141.96,992.3L1141.96,992.3z"/>
				</g>
			</g>
		</g>
		<g id="Ebene_4_1_">
			<g class="st12">
				<path d="M1152.26,951.76c-44.83-7.94-105.99,20.51-115.57,57.12c-9.58,36.61,29.9,86.17,73.31,99.53
					c-35.66-14.7-61.65-62.72-50.66-93.24c11-30.52,46.53-53.83,94.28-63.04"/>
				<g>
					<path d="M1155.46,947.28c-19.82-3.37-39.97-0.5-57.87,5.53c-18.75,6.31-36.07,16.04-48.89,29.06
						c-12.34,12.52-19.68,27.77-18.43,44.82c1.26,17.18,10.09,34.27,22.12,48.62c13.67,16.3,32.2,30.58,54.42,37.59
						c4.76,1.5,11.96-6.62,6.39-8.96c-28.24-11.91-46.45-40.8-50.46-65.7c-2.01-12.48,0.26-24.19,7.06-34.9
						c7.07-11.14,17.52-20.23,29.65-27.49c15.78-9.45,34.31-15.49,53.41-19.24c2.86-0.56,5.55-3.23,5.87-5.69
						c0.32-2.41-1.57-3.75-4.31-3.22c-35.84,7.03-70.45,22.81-89.9,49.3c-8.53,11.62-13.48,24.75-12.76,38.94
						c0.72,14.5,6.41,29.29,14.94,42.29c9.34,14.25,22.65,27.3,40.12,34.67c2.13-2.99,4.26-5.98,6.39-8.96
						c-35.16-11.08-64.3-42.42-71.3-72.82c-3.4-14.78-0.58-28.53,9.05-40.45c9.62-11.9,24.2-20.77,39.59-26.9
						c17.54-6.99,38.43-10.93,58.52-7.51C1154.13,957.11,1160.94,948.21,1155.46,947.28L1155.46,947.28z"/>
				</g>
			</g>
			<g class="st12">
				<path d="M1391.06,393.65c-37.93,44.02-81.53,69.42-129.72,105.5c-48.18,36.08-92.14,64.47-127.39,110.12
					c-35.24,45.65-66.95,140.27-57.26,196.44c9.69,56.17,70.03,110.43,154.21,100.72c-87.6-59.65-38.13-240.2,8.88-294.94
					c45.64-53.15,154.62-153.38,170.88-261.31"/>
				<g>
					<path d="M1387.02,392.52c-35.87,41.44-85.19,71.83-130.35,105.48c-45.28,33.75-92.36,65.99-125.92,109.06
						c-12.72,16.33-22.43,34.46-30.66,52.86c-9.31,20.8-16.68,42.37-22.08,64.33c-9.49,38.61-15.16,81.94,6.96,120.22
						c10.89,18.84,27.57,35.79,48.23,47.77c22.16,12.84,48.02,19.58,73.99,19.92c7.29,0.09,14.51-0.32,21.67-1.12
						c3.14-0.35,10.61-5.61,6.2-8.64c-31.68-21.76-42.74-57.07-46.08-88.85c-4.08-38.74,2.03-77.67,12.84-114.44
						c5-17,11.28-33.71,19.06-49.81c6.09-12.6,12.96-24.83,22.28-35.92c12.7-15.12,26.89-29.7,40.36-44.45
						c17.45-19.1,34.55-38.45,50.52-58.5c34.36-43.13,64.88-90.3,77.89-142.42c1.57-6.31,2.85-12.67,3.83-19.09
						c0.37-2.36-1.65-3.74-4.31-3.22c-2.85,0.56-5.5,3.25-5.87,5.69c-8.19,53.36-37.35,101.74-70.81,145.52
						c-28.83,37.73-62.71,72.06-94.31,108.02c-22.09,25.14-35.49,55.12-45.39,85.59c-12.13,37.31-19.27,76.66-17.23,116.22
						c1.7,32.93,10.21,69.99,38.9,95.83c3.12,2.81,6.47,5.43,10.02,7.86c2.06-2.88,4.14-5.76,6.2-8.64
						c-26.38,2.93-53.6-0.14-78.32-10.94c-21.83-9.54-40.41-24.78-53.22-42.45c-12.32-16.99-19.26-35.83-20.88-55.13
						c-1.7-20.21,0.94-40.39,5.02-59.95c4.54-21.76,11.24-43.08,19.76-63.74c7.62-18.48,16.59-36.66,28.37-53.36
						c29.47-41.82,74.26-73.06,117.05-104.6c22.68-16.71,45.71-33.06,68.51-49.66c22.06-16.05,43.36-32.91,61.89-51.93
						c4.84-4.97,9.46-10.08,13.95-15.28c1.32-1.52,1.89-4.68-0.84-5.61C1391.31,388.16,1388.41,390.92,1387.02,392.52
						L1387.02,392.52z"/>
				</g>
			</g>
			<g class="st12">
				<path d="M1337.11,23.93c-69.81-3.67-169-1.51-229.31,20.86c-60.32,22.37-128.4,76.21-163.03,123.11
					c-34.64,46.9-46.7,130.14-26.22,185.65s73.69,87.56,152.94,81.77c-44.57-19.02-87.08-53.18-92.71-94.13
					c-5.62-40.94,8.2-81.09,28.63-116.98c55.14-96.89,166.65-167.34,327.8-197.45"/>
				<g>
					<path d="M1339.16,19.3c-61.11-3.18-123.67-2.33-182.59,8.44c-27.87,5.09-53.82,13.47-77.9,25.65
						c-27.15,13.73-51.92,30.55-74.6,48.98c-21.98,17.86-42.26,37.37-59.16,58.9c-15.34,19.56-25.4,41.6-32.04,64.68
						c-7.04,24.45-10.21,50.02-9.33,75.63c0.8,23.38,5.11,47.49,16.48,69.62c10.21,19.87,26.6,37.87,48.33,49.99
						c23.41,13.05,50.73,18.72,77.69,19.36c7.84,0.19,15.64-0.06,23.39-0.61c3.77-0.26,10.97-6.65,5.25-9.11
						c-39.27-16.88-79.15-46.11-89.08-83.52c-6-22.6-2.94-46.74,2.99-68.39c5.92-21.58,15.76-42.25,27.62-61.66
						c18.01-29.47,41.43-56.14,69.14-79.36c29.42-24.64,63.66-45.11,100.43-61.62c40.86-18.35,84.89-31.84,130.32-41.42
						c6.08-1.28,12.19-2.49,18.32-3.64c4.83-0.91,9.03-10.31,1.57-8.91c-48.23,9.05-95.14,22.24-138.87,40.58
						c-39.3,16.48-76.03,37.23-107.91,62.35c-30.26,23.85-56.26,51.44-76.33,82.21c-25.52,39.14-44.54,84.44-39.81,131.27
						c4.08,40.39,39.13,73.19,79.83,93.87c5.03,2.56,10.16,4.95,15.37,7.19c1.75-3.04,3.5-6.07,5.25-9.11
						c-27.51,1.94-56.14-0.25-82.26-10.63c-22.18-8.82-40.7-23.57-53.17-41.39c-13.89-19.86-20.37-42.23-23-64.42
						c-2.9-24.52-1.33-49.13,3.57-72.94c4.72-22.93,12.54-45.75,25.67-65.86c13.56-20.78,32.08-39.31,51.36-56.31
						c39.12-34.52,86.51-66.18,142.8-79.11c28.26-6.49,57.75-9.67,87.3-11.4c29.57-1.74,59.41-1.94,89.25-0.95
						c6.67,0.22,13.34,0.51,20,0.85C1339.97,28.8,1345.92,19.66,1339.16,19.3L1339.16,19.3z"/>
				</g>
			</g>
		</g>
		<g id="Ebene_5_1_">
			<g class="st12">
				<g>
					<path class="st15" d="M1448.43,108.08c4.62,2.07,9.18,4.26,13.63,6.6c2.23,1.17,4.43,2.37,6.6,3.6
						c1.09,0.62,2.17,1.24,3.25,1.88c0.47,0.28,4.91,2.99,2.2,1.3c8.43,5.28,16.45,11.06,23.98,17.25
						c15.28,12.56,27.6,25.92,38.5,41.61c22.5,32.37,33.37,68.64,30.62,104.78c-6.56,86.34-77.52,151.68-142.53,210.13
						c-37.63,33.83-75.15,67.92-103.68,108c-1.33,1.87,4.61,5.24,5.45,5.68c4.33,2.32,10.04,3.95,14.9,4.84
						c6.59,1.21,18.83,3.59,22.82-2.03c51.27-72.02,132.97-123.05,188.78-192.07c27.8-34.38,50.34-73.18,56.33-115.89
						c5.2-37.05-3.4-75.54-24.7-109.9c-23.01-37.13-59.91-68.98-103.88-88.66c-9.08-4.06-20.5-7.27-30.53-6.01
						c-2.41,0.3-6.7,0.67-7.19,3.2C1442.52,104.76,1446.44,107.19,1448.43,108.08L1448.43,108.08z"/>
				</g>
			</g>
			<g class="st12">
				<g>
					<path class="st15" d="M1164,1015.71c4.53,14.97,1.08,30.96-6.99,43.86c-3.92,6.27-9.38,11.84-15.66,16.48
						c-7.22,5.34-13.38,8.24-22.18,10.54c-8.98,2.35,1.95,8.6,6.05,10.11c8.79,3.24,20.85,5.95,29.97,3.56
						c38.8-10.14,61.5-45.33,51.09-79.7c-0.72-2.38-7.23-4.95-9.18-5.71c-5.05-1.96-11.1-3.38-16.51-3.91
						C1176,1010.5,1162,1009.09,1164,1015.71L1164,1015.71z"/>
				</g>
			</g>
		</g>
	</g>
	<g>
		<g id="Ebene_2_Kopie_1_">
			<g class="st12">
				<path d="M1632.05,1217.18c23.74,9.18,39.35,32.65,36.92,55.49c-2.43,22.84-22.71,43.32-47.96,48.42
					c-25.25,5.1-53.55-5.57-66.91-25.22s-10.77-46.8,6.12-64.19c16.89-17.39,46.81-23.7,70.74-14.92"/>
				<g>
					<path d="M1629.96,1220.39c22.29,8.79,37.42,29.93,36.18,51.62c-1.18,20.51-18.63,38.95-40.59,44.85
						c-23.16,6.22-49.86-1.84-64.76-18.55c-14.99-16.82-16.23-41.67-3.25-59.71c14.59-20.29,46.74-27.46,71.34-18.62
						c3.25,1.17,7.23-5.32,4.18-6.42c-24.87-8.94-54.51-2.66-72.77,14.62c-18.65,17.66-23.09,45.8-10.76,67.33
						c12.03,20.99,40.01,32.92,66.06,29.68c26.59-3.3,48.43-22.93,54.84-45.59c7.35-25.96-8.75-54.76-36.29-65.63
						C1630.95,1212.71,1626.92,1219.18,1629.96,1220.39L1629.96,1220.39z"/>
				</g>
			</g>
			<g class="st12">
				<path d="M1534.93,793.46c2.01-21.25,7.78-42.76,21.42-60.33s36.15-30.65,60.22-30.52c34.89,0.2,63.76,28.71,69.14,59.25
					c5.37,30.54-8.19,61.52-27.52,87.24s-44.37,47.67-65.81,72.05c-34.94,39.73-60.52,86.92-66.5,137
					c-3.93,32.9,1.61,68.48,25.43,93.95c23.82,25.48,69.34,36.45,100.05,17.63c19.49-11.94,29.57-32.95,33.35-53.67
					c3.79-20.72,2.26-41.89,3.78-62.84c3.14-43.21,19.58-85.6,47.07-121.39c34.05-44.33,84.98-79.41,105.85-129.73
					c22.1-53.27,4.28-116.08-38.18-158.59c-42.45-42.51-106.5-65.5-170.48-68.5c-70.32-3.29-142.62,17.15-194.53,59.29
					c-51.91,42.14-81.48,106.24-72.95,168.15c3.36,24.4,13.09,49.17,33.45,65.86c26.83,21.99,70.75,25.42,101.51,7.93
					s29-47.65,34.57-82.09"/>
				<g>
					<path d="M1537.94,791.98c1.84-18.9,6.67-38.07,18.08-54.35c10.22-14.59,26.58-26.31,45.65-30.26
						c37.6-7.79,71.05,19.71,79.72,50.48c10.84,38.45-12.81,76.98-38.66,106.31c-13.99,15.88-29.45,30.68-43.89,46.23
						c-13.76,14.81-26.35,30.47-37.16,47.11c-21.14,32.54-35.75,68.81-39.27,106.36c-3.16,33.7,3.78,72.64,32.63,97.04
						c24.22,20.47,64.2,29.71,94.06,13.22c16.36-9.04,27.2-24.06,33.3-39.99c7.2-18.78,7.83-38.71,8.22-58.35
						c0.4-20.23,1.75-40.12,6.69-59.93c4.7-18.82,11.97-37.2,21.64-54.47c9.42-16.8,21.13-32.31,34.34-46.94
						c12.5-13.83,25.94-26.95,38.9-40.44c25.41-26.44,49.12-55.21,57.82-89.71c8.42-33.39,2.98-69-12.74-100.08
						c-16.24-32.1-43.23-58.64-76.58-77.57c-33.68-19.11-72.89-30.41-112.58-34.07c-40.26-3.71-81.56,0.41-119.86,12.01
						c-38.17,11.55-73.41,30.54-101.46,56.31c-27.68,25.42-47.85,57.15-58.31,91.21c-10.21,33.25-11.51,70.84,2.06,103.52
						c6.65,16,17.41,30.95,33.19,41.04c14.54,9.3,32.68,14.09,50.56,14.11c17.92,0.01,35.87-4.65,50.33-14.15
						c13.61-8.93,21.43-22.19,25.48-36.5c4.32-15.25,5.14-31.13,7.62-46.65c0.77-4.8-5.35-1.85-5.87,1.32
						c-2.5,15.64-3.31,31.66-7.73,47.03c-4.08,14.18-12.77,25.79-27.28,33.14c-31.37,15.87-74.4,10.42-99.33-12.76
						c-27.09-25.19-33.08-63.9-30.03-97.25c3.13-34.28,17.42-67.84,39.74-95.91c22.89-28.8,54.07-51.48,89.74-66.89
						c36.07-15.57,76.27-23.68,116.36-24.09c39.47-0.41,79.17,6.6,115.03,21.34c35.46,14.58,67.12,36.83,88.66,65.93
						c20.94,28.29,32.42,62.37,30.72,96.27c-0.84,16.9-5.25,33.47-12.96,48.94c-7.77,15.6-18.66,29.84-30.49,43.22
						c-24.24,27.43-52.66,51.91-74.15,81.23c-23.07,31.47-37.97,67.77-43.14,105.02c-2.82,20.28-1.77,40.69-3.3,61.04
						c-1.33,17.78-5.34,35.99-16.64,51.06c-9.9,13.21-25.36,21.68-43.16,23.37c-16.98,1.62-34.44-2.65-48.97-10.35
						c-33.82-17.92-46.68-53.89-47.21-87.09c-0.58-36.53,11.68-73.05,30.33-105.38c9.58-16.61,20.95-32.39,33.73-47.2
						c13.53-15.67,28.6-30.21,42.88-45.33c27.34-28.95,52.95-62.49,55.09-101.44c0.91-16.65-3.25-33.11-13.19-47.34
						c-8.97-12.85-22.5-23.85-38.73-28.94c-37.69-11.83-74.88,11.64-91.17,40.93c-8.97,16.12-13.06,33.78-14.79,51.58
						c-0.16,1.67,1.63,2.2,3.07,1.57C1536.86,795.7,1537.78,793.69,1537.94,791.98L1537.94,791.98z"/>
				</g>
			</g>
			<g class="st12">
				<path d="M1593.5,1267.59c-9.42-13.25-2.35-33.3,13.9-39.45"/>
				<g>
					<path d="M1596.09,1264.79c-8.03-11.64-2.83-28.02,11.36-33.6c2.95-1.16,4.43-7.89-0.12-6.11
						c-18.44,7.24-27.02,29.96-16.44,45.3C1592.78,1273.11,1597.8,1267.28,1596.09,1264.79L1596.09,1264.79z"/>
				</g>
			</g>
			<g class="st12">
				<path d="M1589.14,1247.56c1.3-0.19,2.35,1.48,1.47,2.36c-1.62-0.79-1.72-3.2-0.16-4.09"/>
				<g>
					<path d="M1587.7,1250.95c0.42-0.03,0.39,0.12,0.12-0.08c0.38,0.28-0.17-0.27,0.04-0.03c0.18,0.21,0.15,0.37,0.06-0.04
						c0.02,0.06,0.04,0.11,0.06,0.17c-0.24-1.05,0.12-2.04,1.09-2.97c1.21-0.43,2.42-0.85,3.63-1.28c-0.12-0.06-0.23-0.13-0.35-0.21
						c0.45,0.31,0.09,0.06,0.03-0.07c-0.16-0.32,0.17,0.43,0.03,0.09c-0.2-0.5-0.03,0.1-0.05,0.09c-0.06-0.02,0.03-0.34-0.02-0.38
						c0.04,0.04-0.09,0.74,0,0.27c-0.09,0.49-0.33,0.94-0.64,1.35c-0.09,0.11-0.88,0.82-0.44,0.55c1.47-0.93,2.61-3.21,2.08-4.79
						c-0.6-1.75-2.51-1.14-3.72-0.37c-3.13,1.99-5.06,7.72-1.11,9.88c1.22,0.67,2.93-0.46,3.63-1.28c1.32-1.55,2.3-3.6,1.53-5.55
						c-0.45-1.14-1.64-2.23-3.1-2.12c-1.94,0.14-3.47,1.57-4.09,3.17c-0.3,0.77-0.52,1.63-0.25,2.43
						C1586.42,1250.31,1586.97,1251,1587.7,1250.95L1587.7,1250.95z"/>
				</g>
			</g>
		</g>
		<g id="Ebene_2_2_">
			<g>
				<path class="st13" d="M1647.5,1203.31c23.74,9.18,39.35,32.65,36.92,55.49s-22.71,43.32-47.96,48.42
					c-25.25,5.1-53.55-5.57-66.91-25.22c-13.36-19.65-10.77-46.8,6.12-64.19s46.81-23.7,70.74-14.92"/>
				<g>
					<path d="M1645.4,1206.52c22.29,8.79,37.42,29.93,36.18,51.62c-1.18,20.51-18.63,38.95-40.59,44.85
						c-23.16,6.22-49.86-1.84-64.76-18.55c-14.99-16.82-16.23-41.67-3.25-59.71c14.59-20.29,46.74-27.46,71.34-18.62
						c3.25,1.17,7.23-5.32,4.18-6.42c-24.87-8.94-54.51-2.66-72.77,14.62c-18.65,17.66-23.09,45.8-10.76,67.33
						c12.03,20.99,40.01,32.92,66.06,29.68c26.59-3.3,48.43-22.93,54.84-45.59c7.35-25.96-8.75-54.76-36.29-65.63
						C1646.39,1198.84,1642.36,1205.32,1645.4,1206.52L1645.4,1206.52z"/>
				</g>
			</g>
			<g>
				<path class="st14" d="M1561.12,778.12c2.01-21.25,7.78-42.76,21.42-60.33c13.64-17.57,36.15-30.65,60.22-30.52
					c34.89,0.2,63.76,28.71,69.14,59.25c5.38,30.54-8.19,61.52-27.52,87.24c-19.34,25.73-44.37,47.67-65.81,72.05
					c-34.94,39.73-60.52,86.92-66.5,137c-3.93,32.9,1.61,68.48,25.43,93.95c23.82,25.48,69.34,36.45,100.05,17.63
					c19.49-11.94,29.57-32.95,33.35-53.67c3.79-20.72,2.26-41.89,3.78-62.84c3.14-43.21,19.58-85.6,47.07-121.39
					c34.05-44.33,84.98-79.41,105.85-129.73c22.1-53.27,4.28-116.08-38.18-158.59c-42.45-42.51-106.5-65.5-170.48-68.5
					c-70.3-3.3-142.6,17.14-194.51,59.28c-51.91,42.14-81.49,106.25-72.96,168.16c3.36,24.4,13.09,49.17,33.45,65.86
					c26.83,21.99,70.75,25.42,101.51,7.93c30.76-17.49,29-47.65,34.57-82.09"/>
				<g>
					<path d="M1564.14,776.64c1.84-18.9,6.67-38.07,18.08-54.35c10.22-14.59,26.58-26.31,45.65-30.26
						c37.6-7.79,71.05,19.71,79.72,50.48c10.84,38.45-12.81,76.98-38.66,106.31c-13.99,15.88-29.45,30.68-43.89,46.23
						c-13.76,14.81-26.35,30.47-37.16,47.11c-21.14,32.54-35.75,68.81-39.27,106.36c-3.16,33.7,3.78,72.64,32.63,97.04
						c24.22,20.47,64.2,29.71,94.06,13.22c16.36-9.04,27.2-24.06,33.3-39.99c7.2-18.78,7.83-38.71,8.22-58.35
						c0.4-20.23,1.75-40.12,6.69-59.93c4.7-18.82,11.97-37.2,21.64-54.47c9.42-16.8,21.13-32.31,34.34-46.94
						c12.5-13.83,25.94-26.95,38.9-40.44c25.41-26.44,49.12-55.21,57.82-89.71c8.42-33.39,2.98-69-12.74-100.08
						c-16.24-32.1-43.23-58.64-76.58-77.57c-33.68-19.11-72.89-30.41-112.58-34.07c-40.26-3.71-81.56,0.41-119.86,12.01
						c-38.17,11.55-73.41,30.54-101.46,56.31c-27.68,25.42-47.85,57.15-58.31,91.21c-10.21,33.25-11.51,70.84,2.06,103.52
						c6.65,16,17.41,30.95,33.19,41.04c14.54,9.3,32.68,14.09,50.56,14.11c17.92,0.01,35.87-4.65,50.33-14.15
						c13.61-8.93,21.43-22.19,25.48-36.5c4.32-15.25,5.14-31.13,7.62-46.65c0.77-4.8-5.35-1.85-5.87,1.32
						c-2.5,15.64-3.31,31.66-7.73,47.03c-4.08,14.18-12.77,25.79-27.28,33.14c-31.37,15.87-74.4,10.42-99.33-12.76
						c-27.09-25.19-33.08-63.9-30.03-97.25c3.13-34.28,17.42-67.84,39.74-95.91c22.89-28.8,54.07-51.48,89.74-66.89
						c36.07-15.57,76.27-23.68,116.36-24.09c39.47-0.41,79.17,6.6,115.03,21.34c35.46,14.58,67.12,36.83,88.66,65.93
						c20.94,28.29,32.42,62.37,30.72,96.27c-0.84,16.9-5.25,33.47-12.96,48.94c-7.77,15.6-18.66,29.84-30.49,43.22
						c-24.24,27.43-52.66,51.91-74.15,81.23c-23.07,31.47-37.97,67.77-43.14,105.02c-2.82,20.29-1.77,40.69-3.3,61.04
						c-1.33,17.78-5.34,35.99-16.64,51.06c-9.9,13.21-25.36,21.68-43.16,23.37c-16.98,1.62-34.44-2.65-48.97-10.35
						c-33.82-17.92-46.68-53.89-47.21-87.09c-0.58-36.53,11.68-73.05,30.33-105.38c9.58-16.61,20.95-32.39,33.73-47.2
						c13.53-15.67,28.6-30.21,42.88-45.33c27.34-28.95,52.95-62.49,55.09-101.44c0.91-16.65-3.25-33.11-13.19-47.34
						c-8.97-12.85-22.5-23.85-38.73-28.94c-37.69-11.83-74.88,11.64-91.17,40.93c-8.97,16.12-13.06,33.78-14.79,51.58
						c-0.16,1.67,1.63,2.2,3.07,1.57C1563.06,780.36,1563.97,778.35,1564.14,776.64L1564.14,776.64z"/>
				</g>
			</g>
			<g>
				<g>
					<path d="M1596.09,1264.79c-8.03-11.64-2.83-28.02,11.36-33.6c2.95-1.16,4.43-7.89-0.12-6.11
						c-18.44,7.24-27.02,29.96-16.44,45.3C1592.78,1273.11,1597.8,1267.28,1596.09,1264.79L1596.09,1264.79z"/>
				</g>
			</g>
			<g>
				<path class="st13" d="M1625.87,1223.79c1.3-0.19,2.35,1.48,1.47,2.36c-1.62-0.79-1.72-3.2-0.16-4.09"/>
				<g>
					<path d="M1624.43,1227.18c0.42-0.03,0.39,0.12,0.12-0.08c0.38,0.28-0.17-0.27,0.04-0.03c0.18,0.21,0.14,0.37,0.06-0.04
						c0.02,0.06,0.04,0.11,0.06,0.17c-0.24-1.05,0.12-2.04,1.09-2.97c1.21-0.43,2.42-0.85,3.63-1.28c-0.12-0.06-0.23-0.13-0.35-0.21
						c0.45,0.31,0.09,0.06,0.03-0.07c-0.16-0.32,0.17,0.43,0.03,0.09c-0.2-0.5-0.03,0.1-0.05,0.09c-0.06-0.02,0.03-0.34-0.02-0.38
						c0.04,0.04-0.09,0.74,0,0.27c-0.09,0.49-0.33,0.94-0.64,1.35c-0.09,0.11-0.88,0.82-0.44,0.55c1.47-0.93,2.61-3.21,2.08-4.79
						c-0.6-1.75-2.51-1.14-3.72-0.37c-3.13,1.99-5.06,7.72-1.11,9.88c1.22,0.67,2.93-0.46,3.63-1.28c1.32-1.55,2.3-3.6,1.53-5.55
						c-0.45-1.14-1.64-2.23-3.1-2.12c-1.94,0.14-3.47,1.57-4.09,3.17c-0.3,0.77-0.52,1.63-0.25,2.43
						C1623.15,1226.53,1623.7,1227.23,1624.43,1227.18L1624.43,1227.18z"/>
				</g>
			</g>
		</g>
		<g id="Ebene_4_2_">
			<g class="st12">
				<path d="M1625.87,1198.96c-28.84,0.59-63.38,27.43-64.85,52.95c-1.47,25.52,29.14,53.21,57.76,56.4
					c-23.97-5.09-46.01-33.53-42.9-55.19c3.1-21.66,22.34-41.76,50.89-54.09"/>
				<g>
					<path d="M1627.31,1195.57c-12.73,0.36-24.91,4.88-35.3,11.22c-10.88,6.63-20.46,15.34-26.84,25.64
						c-6.14,9.91-8.84,20.98-5.97,32.12c2.89,11.22,10.47,21.4,19.7,29.34c10.49,9.02,23.76,16.07,38.43,17.81
						c3.14,0.37,6.62-5.95,2.88-6.78c-19.01-4.21-33.87-20.98-39.41-36.96c-2.78-8.01-2.8-16.07,0.12-24.05
						c3.03-8.31,8.41-15.7,15.07-22.09c8.65-8.33,19.43-14.75,30.84-19.73c1.71-0.75,3.06-2.86,2.96-4.54
						c-0.09-1.64-1.44-2.28-3.07-1.57c-21.42,9.34-41,24.32-49.85,44.41c-3.88,8.82-5.35,18.17-3.17,27.48
						c2.22,9.52,7.57,18.58,14.46,26.08c7.55,8.22,17.42,15.14,29.19,17.75c0.96-2.26,1.92-4.52,2.88-6.78
						c-23.21-2.76-45.17-19.73-53.24-38.96c-3.93-9.35-3.85-18.84,0.67-27.99c4.52-9.14,12.5-16.93,21.32-23
						c10.05-6.92,22.55-12.26,35.46-12.62C1627.69,1202.26,1630.84,1195.47,1627.31,1195.57L1627.31,1195.57z"/>
				</g>
			</g>
			<g class="st12">
				<path d="M1706,797.83c-18.19,34.13-42.19,56.66-67.72,86.87c-25.54,30.21-49.38,54.77-65.71,89.63
					c-16.32,34.86-24.45,101.72-11.55,137.69s57.06,64.06,108.2,46.63c-61.76-28.1-53.11-154.24-30.59-196.67
					c21.87-41.19,77.34-121.85,74.23-195.52"/>
				<g>
					<path d="M1703.35,797.61c-17.22,32.15-44.17,58.74-68.12,86.94c-24.01,28.28-49.33,55.8-64.92,88.73
						c-5.91,12.49-9.72,25.77-12.59,39.04c-3.24,15.01-5.19,30.26-5.85,45.52c-1.17,26.83,0.61,56.29,19.05,78.78
						c9.08,11.07,21.52,20.13,35.83,25.37c15.35,5.62,32.25,6.71,48.44,3.55c4.54-0.89,8.98-2.11,13.33-3.57
						c1.91-0.64,5.91-5.11,2.8-6.54c-22.36-10.29-33.55-32.25-39.52-52.88c-7.28-25.15-8.25-51.75-6.03-77.53
						c1.03-11.92,2.88-23.82,5.75-35.5c2.24-9.15,5.02-18.15,9.45-26.72c6.04-11.68,13.08-23.19,19.65-34.73
						c8.51-14.94,16.77-30,24.24-45.38c16.08-33.07,29.28-68.33,30.98-104.58c0.21-4.39,0.22-8.77,0.04-13.15
						c-0.06-1.62-1.48-2.27-3.07-1.57c-1.7,0.75-3.02,2.87-2.96,4.54c1.44,36.44-10.77,72.31-26.21,105.7
						c-13.3,28.78-30.16,55.96-45.4,83.92c-10.66,19.55-15.31,41.17-17.74,62.66c-2.97,26.32-2.59,53.33,3.52,79.29
						c5.09,21.6,14.92,45.06,35.91,58.44c2.29,1.46,4.69,2.75,7.19,3.9c0.93-2.18,1.87-4.36,2.8-6.54
						c-16.04,5.39-33.34,6.9-50.03,2.97c-14.74-3.47-28.16-11.15-38.28-21.19c-9.74-9.66-16.36-21.24-19.73-33.82
						c-3.53-13.18-4.36-26.89-4.22-40.4c0.16-15.01,1.71-30.02,4.48-44.83c2.48-13.24,5.83-26.47,11.1-39.07
						c13.2-31.57,37.22-58.12,59.96-84.62c12.05-14.04,24.37-27.88,36.51-41.86c11.75-13.52,22.93-27.48,32.12-42.5
						c2.4-3.93,4.64-7.92,6.8-11.95c0.64-1.18,0.6-3.35-1.21-3.61C1705.48,794.16,1704.01,796.37,1703.35,797.61L1703.35,797.61z"/>
				</g>
			</g>
			<g class="st12">
				<path d="M1627.19,559.8c-43.85,6.68-105.24,21.06-140,43.77c-34.76,22.71-70.49,67.28-86.28,102.89
					c-15.79,35.61-13.1,92.36,6.43,126.49c19.53,34.12,56.53,48.42,105.09,34.24c-30.04-6.79-60.65-23.89-69.16-50.29
					s-4.83-54.82,3.47-81.28c22.41-71.42,83.11-132.68,179.6-173.67"/>
				<g>
					<path d="M1627.9,556.46c-38.38,5.87-77.17,14.6-112.47,29.43c-16.7,7.01-31.81,15.95-45.29,27.17
						c-15.2,12.65-28.54,27.03-40.38,42.2c-11.47,14.71-21.7,30.29-29.57,46.77c-7.14,14.97-10.69,30.89-12,47.06
						c-1.38,17.13-0.22,34.49,3.46,51.35c3.36,15.4,8.99,30.81,18.77,44c8.78,11.84,21.17,21.63,36.16,26.83
						c16.15,5.6,33.83,5.78,50.67,2.69c4.9-0.9,9.71-2.08,14.46-3.46c2.31-0.67,6.01-5.84,2.15-6.72
						c-26.48-6.07-54.85-20.24-65.6-43.74c-6.5-14.2-7.55-30.6-6.51-45.73c1.04-15.07,4.62-30.06,9.62-44.48
						c7.59-21.89,18.88-42.62,33.26-61.63c15.27-20.18,34.05-38.21,54.89-53.96c23.16-17.5,48.88-32.19,75.94-44.47
						c3.62-1.64,7.28-3.24,10.95-4.81c2.89-1.23,4.35-8.01-0.12-6.11c-28.88,12.3-56.42,27.17-81.36,45.03
						c-22.41,16.06-42.7,34.6-59.45,55.42c-15.89,19.76-28.68,41.44-37.39,64.46c-11.07,29.28-17.35,61.79-8.68,92.21
						c7.48,26.24,33.29,43.41,61.12,51.8c3.44,1.04,6.92,1.96,10.44,2.76c0.71-2.24,1.43-4.48,2.15-6.72
						c-16.87,4.87-34.93,7.16-52.44,3.69c-14.86-2.95-28.19-10.31-38.12-20.49c-11.07-11.35-17.83-25.33-22.19-39.7
						c-4.81-15.87-6.84-32.4-6.71-48.81c0.13-15.82,2.2-31.96,7.9-47.01c5.89-15.55,15.13-30.24,25.03-44.03
						c20.09-27.99,45.68-55.16,79.09-71.08c16.77-7.99,34.72-13.95,52.87-18.95c18.17-5.01,36.69-9.04,55.37-12.28
						c4.17-0.73,8.35-1.4,12.54-2.04C1629.56,562.66,1632.15,555.82,1627.9,556.46L1627.9,556.46z"/>
				</g>
			</g>
		</g>
		<g id="Ebene_5_2_">
			<g class="st12">
				<g>
					<path class="st15" d="M1706.7,601.05c3.13,0.77,6.23,1.62,9.28,2.59c1.53,0.48,3.04,0.99,4.54,1.53
						c0.75,0.27,1.5,0.54,2.25,0.82c0.33,0.12,3.42,1.34,1.53,0.57c5.89,2.4,11.58,5.18,17.02,8.3
						c11.03,6.33,20.33,13.58,29.03,22.56c17.95,18.52,29.15,41.14,31.87,65.46c6.49,58.09-29.62,110.67-62.88,157.89
						c-19.25,27.34-38.4,54.83-51.23,85.13c-0.6,1.41,3.51,2.87,4.08,3.06c2.98,0.97,6.72,1.31,9.86,1.26
						c4.24-0.06,12.14-0.08,13.94-4.32c23.06-54.43,67.59-98.92,93.84-151.96c13.07-26.42,22.34-55.08,20.83-84.17
						c-1.3-25.24-11.36-49.63-28.81-69.63c-18.85-21.61-45.69-37.9-75.43-45.21c-6.14-1.51-13.63-2.14-19.72,0
						c-1.46,0.51-4.08,1.32-4.08,3.06C1702.62,599.62,1705.35,600.72,1706.7,601.05L1706.7,601.05z"/>
				</g>
			</g>
			<g class="st12">
				<g>
					<path class="st15" d="M1641,1239.82c4.65,9.33,4.46,20.38,1.03,29.99c-1.67,4.67-4.38,9.07-7.72,12.97
						c-3.84,4.48-7.31,7.21-12.5,9.88c-5.3,2.73,2.26,5.45,5,5.91c5.86,1,13.69,1.22,19.07-1.55c22.88-11.78,32.68-38.08,22-59.5
						c-0.74-1.48-5.1-2.34-6.41-2.58c-3.38-0.64-7.32-0.79-10.74-0.43C1647.82,1234.8,1638.94,1235.69,1641,1239.82L1641,1239.82z"
						/>
				</g>
			</g>
		</g>
	</g>
</g>
</svg>
