<?xml version="1.0" encoding="utf-8"?>
<!-- Generator: Adobe Adobe Illustrator 24.2.0, SVG Export Plug-In . SVG Version: 6.00 Build 0)  -->
<svg version="1.1" xmlns="http://www.w3.org/2000/svg" xmlns:xlink="http://www.w3.org/1999/xlink" x="0px" y="0px"
	 viewBox="0 0 1080 1080" style="enable-background:new 0 0 1080 1080;" xml:space="preserve">
<style type="text/css">
	.st0{fill:#FFFFFF;stroke:#000000;stroke-width:8;stroke-linecap:round;stroke-linejoin:round;stroke-miterlimit:10;}
	.st1{fill:#FFBABA;}
	.st2{opacity:0.0706;}
	.st3{opacity:0.0706;fill:none;stroke:#000000;stroke-width:30;stroke-linecap:round;stroke-linejoin:round;stroke-miterlimit:10;}
	.st4{fill:none;stroke:#FFFFFF;stroke-width:20;stroke-linecap:round;stroke-linejoin:round;stroke-miterlimit:10;}
	.st5{stroke:#000000;stroke-width:8;stroke-linecap:round;stroke-linejoin:round;stroke-miterlimit:10;}
	.st6{fill:#FFFFFF;}
	.st7{fill:#ADBECF;}
	.st8{fill:#F3C057;}
	.st9{fill:#F7D98D;}
	.st10{fill:#AEBFCE;}
	.st11{opacity:0.2706;}
	.st12{fill:#3D4C5B;}
</style>
<g id="Ebene_2">
	<path class="st0" d="M207.76,360.83c-198.99,69.78-86.69,341.75,101.2,291.26c3.05,25.7,84.24,42.25,108.18,8.96
		c15.44,35.11,156.97,88.69,217.42,4.61c28.2,41.06,124.93,68.59,184.54,17.75c262.78,86.73,252-343.83,49.12-325.17
		c11.32-57-104.56-95.15-138.26-63.81c-10.22-162.94-262.1-145.81-277.39-50.56C376.29,191.13,230.14,221.42,207.76,360.83z"/>
	<path class="st0" d="M423.8,424.48c-8.85,36.54,12.01,77.98,46.64,92.62c34.63,14.64,78.89,0.74,98.94-31.07"/>
</g>
<g id="Ebene_4">
	<path class="st1" d="M276.32,429.69c3.02,31.3,122.2,15.34,119.93-21.17C394.01,372.47,271.89,383.86,276.32,429.69z"/>
	<path class="st1" d="M635.28,425.84c-6.9,30.67,111.29,52.73,120.54,17.34C764.96,408.23,645.39,380.92,635.28,425.84z"/>
</g>
<g id="Ebene_9">
	<path class="st3" d="M437.93,266.21c-36.49-18.77-81.64-19.74-118.9-2.56s-65.85,52.13-75.29,92.07"/>
	<path class="st3" d="M212.88,390.84c-163.69,82.59-37.61,260.82,74.6,233.74"/>
	<path class="st3" d="M483.36,256.3c60.86-86.68,190.02-51.1,212.3,25.67"/>
	<path class="st3" d="M445.02,646.99c44.66,44.66,110.34,48.92,161.6,3.21"/>
	<path class="st3" d="M661.84,657.29c34.68,31.02,90.56,35.18,129.45,9.64"/>
	<path class="st3" d="M881.81,390.84c144.41,0,167.78,313.34-36.81,273.83"/>
</g>
<g id="Ebene_10">
	<path class="st4" d="M727.65,301.5c6.53-8.99,16.74-14.92,27.54-17.52s22.18-2.05,33.06,0.17c18.82,3.85,36.5,12.68,51.36,24.85
		c8.08,6.62,15.45,14.36,20.23,23.65c4.79,9.29,6.81,20.27,4.09,30.35"/>
</g>
<g id="Ebene_19">
	
		<ellipse transform="matrix(0.3806 -0.9248 0.9248 0.3806 -17.0468 670.1672)" class="st5" cx="491.72" cy="347.81" rx="53.42" ry="13.5"/>
	
		<ellipse transform="matrix(0.3806 -0.9248 0.9248 0.3806 -17.0468 670.1672)" class="st5" cx="491.72" cy="347.81" rx="53.42" ry="13.5"/>
	
		<ellipse transform="matrix(0.3806 -0.9248 0.9248 0.3806 -0.5721 751.5234)" class="st5" cx="560.68" cy="376.19" rx="53.42" ry="13.5"/>
</g>
<g id="Ebene_20">
</g>
<g id="Ebene_21">
	<circle class="st6" cx="503.46" cy="316.16" r="6.47"/>
	<circle class="st6" cx="503.46" cy="316.16" r="6.47"/>
	<ellipse class="st6" cx="572.28" cy="344.49" rx="6" ry="6.5"/>
</g>
<g id="Ebene_22">
	<g>
		<g id="Ebene_7_1_">
			<g>
				<path class="st7" d="M733.82,319.32c-5.22,0.7-7.56,7.56-3.99,11.7c-15.81,11.87-18.82,36.4-6.64,54.04
					c3.86,5.6,9.15,10.55,15.52,13.32c11.75,5.1,25.37,1.7,33.95-5.99c3.27-2.94,5.95-6.41,8.61-9.88
					c5.66-7.38,11.33-14.75,16.99-22.13c1.58-2.05,3.19-4.2,3.61-6.79c0.88-5.4-3.6-10.72-8.06-14.77
					c-10.92-9.92-23.83-17.85-37.62-23.11c-3.94-1.5-8.06-2.8-12.13-2.71c-4.08,0.09-8.14,1.82-9.84,5.18"/>
				<g>
					<path class="st7" d="M734.13,318.04c-6.11,0.96-10.55,8.24-5.97,13.78c0.21-0.52,0.42-1.04,0.63-1.56
						c-11.29,8.57-16.52,23.02-14.41,37.39c2.27,15.48,14.39,32.25,31.99,34.23c8.12,0.91,16.06-1.29,22.5-5.18
						c7.97-4.83,13.06-12.8,18.53-19.92c3.02-3.94,6.05-7.87,9.07-11.81c1.49-1.94,3.02-3.85,4.45-5.83
						c1.27-1.75,2.41-3.7,2.73-5.89c1.12-7.84-7.13-14.63-13.02-19.46c-8.25-6.75-17.46-12.39-27.19-16.74
						c-8.45-3.77-18.83-7.94-26.85-3.11c-1.69,1.02-3.09,2.4-4,4.11c-0.37,0.69,0.04,1.31,0.88,1.42c0.88,0.11,1.98-0.43,2.37-1.14
						c3.96-7.39,15.48-2.98,22.06-0.27c9.24,3.8,18.02,8.83,26.02,14.84c3.66,2.75,7.28,5.68,10.47,8.93
						c2.45,2.49,4.85,5.54,5.58,8.84c0.95,4.33-1.72,7.47-4.1,10.57c-2.78,3.63-5.57,7.25-8.35,10.88
						c-2.82,3.67-5.63,7.35-8.46,11.01c-2.57,3.33-5.2,6.72-8.51,9.42c-5.13,4.19-11.83,6.87-18.98,6.97
						c-16.42,0.23-29.19-14.31-32.8-28.68c-3.25-12.93-0.3-26.83,8.61-35.97c1.08-1.11,2.25-2.13,3.5-3.08
						c0.35-0.26,1.08-1.02,0.63-1.56c-1.48-1.79-1.91-3.96-1.38-5.99c0.43-1.62,1.52-3.33,3.38-3.62c0.83-0.13,1.91-0.6,2.07-1.47
						C735.72,318.32,734.86,317.92,734.13,318.04L734.13,318.04z"/>
				</g>
			</g>
			<g>
				<g>
					<path class="st7" d="M728.29,396.85c1.35,0.82,4.38-1.2,2.9-2.09C729.84,393.93,726.81,395.95,728.29,396.85L728.29,396.85z"/>
				</g>
			</g>
			<g>
				<g>
					<path class="st7" d="M725.71,396.22c-0.22,2.85,1.44,5.78,4.45,6.96c3.14,1.23,6.67,0.16,8.68-1.96
						c0.28-0.3,0.71-1.18,0.07-1.51c-3-1.53-6.01-3.05-9.01-4.58c-0.85-0.43-1.81-0.21-2.49,0.29c-0.37,0.28-1.27,1.36-0.41,1.8
						c3,1.53,6.01,3.05,9.01,4.58c0.02-0.5,0.04-1.01,0.07-1.51c-2.63,2.77-7.09-1.44-6.86-4.46
						C729.37,393.94,725.81,394.84,725.71,396.22L725.71,396.22z"/>
				</g>
			</g>
		</g>
		<g id="Ebene_5">
			<g>
				<path class="st8" d="M805.04,346.24c12.65-21.09,38.15-31.33,62.67-39.27s50.65-15.39,67.47-33.47
					c21.28-22.86,22.56-59.97,6.64-89.81s-46.92-52.16-80.1-62.33c-20.68-6.34-42.66-8.33-62.69-3.84
					c-20.04,4.49-42.43,16.43-52.44,33.02c-13.87,23-6.96,51.99-3.65,79.79c3.31,27.8,6.87,57.21-5.22,81.21
					c24.83,3.9,48.88,17.21,65.54,36.25"/>
				<g>
					<path class="st8" d="M806.65,346.38c11.04-18.26,31.83-28.04,52.24-35.21c20.55-7.22,42.22-12.5,60.63-23.6
						c8.72-5.26,16.45-11.89,22.25-20.01c5.33-7.47,8.95-16.12,10.89-25.18c3.9-18.26,1.16-38.38-7.58-56.36
						c-9.45-19.46-25.68-36.12-44.42-48.24c-19.19-12.41-41.32-20.45-63.52-23.08c-11.06-1.31-22.21-1.22-32.87,0.58
						c-10.51,1.78-20.55,5.19-29.74,9.84c-9.33,4.72-18.03,10.78-24.67,18.54c-6.35,7.43-10.32,16.49-12.1,26.18
						c-3.67,20.06,1.03,41.33,3.47,61.86c2.6,21.83,5.43,44.42,0.13,65.32c-1.27,4.99-3.01,9.82-5.3,14.39
						c-0.36,0.71,0.01,1.28,0.88,1.42c19.08,3.04,37.61,11.67,52.69,24.19c4.29,3.56,8.28,7.43,11.93,11.58
						c1.11,1.27,4.36-0.46,3.35-1.62c-13.22-15.03-30.78-26.54-49.92-32.76c-5.44-1.76-10.98-3.08-16.55-3.97
						c0.29,0.47,0.58,0.95,0.88,1.42c9.39-18.79,9.47-40.78,7.55-62.12c-0.97-10.67-2.31-21.34-3.77-32
						c-1.42-10.34-2.87-20.71-3.05-31.03c-0.17-9.9,0.93-19.8,4.58-28.77c3.69-9.06,10.04-16.48,17.9-22.42
						c15.98-12.11,36.78-18.91,58.24-18.96c21.8-0.05,44.35,5.86,64.36,16.17c19.8,10.21,37.62,24.94,49.75,43.16
						c11.32,17,16.93,36.65,15.81,55.66c-1.12,18.96-9.22,36.4-23.95,48.23c-16.21,13.01-37.4,19.17-57.59,25.67
						c-20.5,6.6-41.63,14.32-56.54,29.15c-3.54,3.52-6.64,7.44-9.2,11.68c-0.41,0.68,0.07,1.32,0.88,1.42
						C805.21,347.64,806.23,347.08,806.65,346.38L806.65,346.38z"/>
				</g>
			</g>
		</g>
		<g id="Ebene_6_1_">
			<g>
				<path class="st9" d="M926.93,220.28c-2.89-20.84-14.57-47.82-31.8-62.63c-17.23-14.81-52.08-22.43-73.86-20.76
					c-30.12,2.31-53.14,31.67-58.51,59.55c-4.65,24.14,15.72,47.57,37.4,64.1c21.67,16.54,51.81,30.53,75.81,22.25
					c23.99-8.28,46.86-38.18,50.93-62.47"/>
				<g>
					<path class="st9" d="M928.7,219.77c-1.23-8.76-3.73-17.48-7.11-25.92c-3.52-8.79-8.07-17.39-13.91-25.19
						c-5.06-6.76-11.12-12.86-18.49-17.36c-7.4-4.52-15.57-7.75-23.79-10.19c-8.67-2.58-17.58-4.32-26.44-5.18
						c-7.81-0.76-15.84-0.96-23.34,0.51c-15.19,2.97-27.76,12.13-36.93,23.23c-4.74,5.74-8.71,12.07-11.8,18.83
						c-2.97,6.5-5.44,13.53-6.31,20.78c-1.75,14.73,5.57,29.35,15.7,41.36c10.62,12.59,24.17,23.44,38.6,31.76
						c14.38,8.3,30.8,14.6,47.05,14.11c15.89-0.48,29.05-8.8,39.47-18.76c11.02-10.53,19.91-23.67,24.81-38.1
						c1.05-3.09,1.88-6.26,2.44-9.51c0.31-1.84-3.28-0.97-3.52,0.38c-2.4,14.08-9.71,27.02-18.62,37.82
						c-4.65,5.64-9.92,10.85-15.9,15.23c-5.37,3.93-11.37,7.3-18.1,9.03c-14.65,3.77-31.08-0.67-45.23-7.32
						c-14.69-6.9-28.35-16.74-39.91-27.98c-10.96-10.67-20.85-23.9-23.06-38.41c-1.09-7.18,0.14-13.97,2.19-20.58
						c2.1-6.81,5.12-13.28,8.88-19.28c7.34-11.72,17.78-22.11,31.26-27.53c6.37-2.56,13.29-3.57,20.45-3.55
						c8.18,0.03,16.49,1.02,24.65,2.71c15.85,3.28,32.93,9.08,44.9,20.76c6.6,6.44,11.79,14.12,16.01,22.01
						c4.38,8.19,7.76,16.8,10.08,25.54c1.04,3.92,1.86,7.87,2.42,11.83C925.38,222.44,928.91,221.23,928.7,219.77L928.7,219.77z"/>
				</g>
			</g>
		</g>
		<g id="Ebene_3">
			<g>
				<g>
					<path d="M803.94,350.86c6.74-8.59,14.95-15.92,24.19-22.07c9.04-6.01,18.94-10.87,29.08-15.24
						c10.42-4.49,21.01-8.63,32.05-11.87c10.72-3.14,21.79-6.02,31.31-11.48c16.76-9.61,27.83-26.1,32.35-44.4
						c4.55-18.42,2.67-38.74-5.68-57.26c-8.93-19.78-24.51-37.01-42.94-49.88c-18.73-13.08-40.47-21.76-62.63-25.15
						c-22.41-3.43-45.5-1.27-64.64,8.17c-19.4,9.56-34.85,26.4-39.63,47.28c-2.42,10.57-1.96,21.78-0.71,32.82
						c1.26,11.1,3.15,22.17,4.2,33.28c1.93,20.47,1.56,40.65-1.6,60.48c-0.88,5.51-1.93,10.98-3.09,16.42
						c-0.39,1.8,3.23,0.96,3.52-0.38c4.28-19.95,6.64-40.32,5.85-61.18c-0.39-10.31-1.39-20.67-2.8-31
						c-1.5-10.98-3.35-22.01-3.52-32.98c-0.17-10.83,1.63-21.36,6.29-30.84c4.54-9.24,11.3-17.28,19.54-23.66
						c16.4-12.69,37.95-18.13,60.1-17.3c21.9,0.83,44.17,7.32,63.85,18.36c19.42,10.89,36.61,26.2,48.16,44.66
						c10.99,17.57,16.08,37.46,14.24,56.7c-1.76,18.33-9.55,35.98-23.63,47.85c-7.85,6.62-17.32,10.61-27.43,13.75
						c-5.39,1.67-10.85,3.15-16.24,4.82c-5.29,1.63-10.39,3.58-15.49,5.59c-20.54,8.11-40.83,17.38-56.72,31.99
						c-3.89,3.58-7.47,7.46-10.71,11.59C799.73,351.8,802.98,352.1,803.94,350.86L803.94,350.86z"/>
				</g>
			</g>
			<g>
				<g>
					<path d="M733.37,316.91c-0.13,2.19,1.32,4.43,2.76,6.18c2.38,2.92,5.36,5.42,8.38,7.74c9.3,7.13,19.74,12.91,30.13,18.28
						c3.2,1.65,6.42,3.26,9.65,4.83c2.99,1.45,6.1,3.27,9.3,4.09c2.63,0.67,5.4,0.73,7.72-0.38c2.43-1.16,3.78-3.52,3.41-6.23
						c-0.39-2.87-2.25-5.69-4.08-8.06c-2.07-2.69-4.55-5.12-7.17-7.35c-5.59-4.74-11.83-8.87-18.23-12.48
						c-7.17-4.05-14.71-7.44-22.46-10.06c-3.58-1.21-7.59-2.8-11.33-2.8c-3.33,0-6.77,1.62-7.58,4.77
						c-0.21,0.83,0.77,1.14,1.45,1.09c0.86-0.07,1.86-0.65,2.07-1.47c0.68-2.63,4.31-1.81,6.51-1.23c3.19,0.86,6.36,1.91,9.48,3.05
						c6.37,2.33,12.58,5.17,18.53,8.49c5.69,3.18,11.18,6.78,16.31,10.8c4.77,3.74,9.62,8.21,12.13,13.62
						c0.79,1.71,1.74,4.93-0.37,5.89c-1.83,0.83-4.66-0.1-6.51-0.9c-5.98-2.59-11.85-5.64-17.63-8.66
						c-9.45-4.95-18.87-10.26-27.43-16.65c-3.06-2.28-6.14-4.74-8.6-7.62c-1.5-1.76-3-3.81-2.87-5.98c0.05-0.87-1.45-0.81-1.93-0.67
						C734.15,315.45,733.42,316.04,733.37,316.91L733.37,316.91z"/>
				</g>
			</g>
			<g>
				<g>
					<path d="M735.21,317.29c-6.59-0.55-11.21,5.37-9.66,11.36c1.94,7.49,9.84,11.9,16.32,15.74c7.66,4.54,15.57,8.63,23.54,12.55
						c4.06,2,8.14,3.95,12.22,5.89c3.32,1.58,6.67,3.29,10.29,3.84c3.52,0.53,6.6-0.49,9.04-2.6c1.99-1.73,4.03-4.47,3.25-7.37
						c-0.45-1.68-3.93-0.39-3.55,1.02c0.53,1.98-0.61,3.8-2.01,5.03c-1.66,1.47-3.49,1.73-5.87,1.23c-3.09-0.64-6.02-2.21-8.88-3.57
						c-3.44-1.64-6.88-3.28-10.31-4.95c-6.9-3.37-13.75-6.86-20.45-10.64c-3.21-1.81-6.39-3.68-9.49-5.66
						c-2.93-1.86-5.89-3.93-8-6.65c-1.92-2.48-3.31-5.64-2.75-8.56c0.43-2.26,2.17-4.33,4.83-4.11c0.91,0.08,1.97-0.4,2.37-1.14
						C736.45,318.04,736.08,317.36,735.21,317.29L735.21,317.29z"/>
				</g>
			</g>
			<g>
				<g>
					<path d="M725.72,329.49c-2.3,1.61-4.18,3.83-5.58,6.2c-1.33,2.26-2.07,4.68-1.2,7.43c2.34,7.31,11.18,10.51,17.65,13.72
						c7.82,3.87,15.63,7.74,23.45,11.62c3.83,1.9,7.66,3.79,11.49,5.69c3.16,1.56,6.45,3.52,9.96,3.86
						c7.71,0.75,10.76-6.76,11.6-12.69c0.26-1.86-3.32-0.98-3.52,0.38c-0.35,2.46-0.94,4.94-2.17,7.07c-1.17,2.03-2.7,3.1-5.37,2.52
						c-3.03-0.66-5.95-2.42-8.73-3.79c-3.51-1.74-7.02-3.48-10.53-5.22c-6.86-3.4-13.72-6.8-20.58-10.19
						c-3.46-1.71-6.96-3.37-10.38-5.17c-3-1.58-6.04-3.46-7.98-6.25c-1.69-2.44-2.26-5.08-1.09-7.55c1.11-2.36,2.86-4.6,5.04-6.12
						c0.53-0.37,1.12-1.22,0.41-1.8C727.5,328.62,726.27,329.11,725.72,329.49L725.72,329.49z"/>
				</g>
			</g>
			<g>
				<g>
					<path d="M720.81,342.08c-4.64,1.65-7.51,6.8-7.62,11.52c-0.15,6.49,8.44,10.06,13.63,12.57c8.14,3.94,16.29,7.87,24.43,11.81
						c4.03,1.95,8.06,3.9,12.09,5.85c3.28,1.58,6.58,3.41,10.14,4.12c3.68,0.73,7.11-0.07,9.44-2.6c2.21-2.4,3.39-5.72,3.66-8.99
						c0.16-1.9-3.4-1-3.52,0.38c-0.21,2.53-0.92,5.13-2.43,7.14c-0.51,0.68-1.17,1.41-2.06,1.65c-1.22,0.33-2.72,0.08-3.99-0.25
						c-3.12-0.83-6.07-2.45-8.98-3.85c-3.47-1.68-6.93-3.35-10.4-5.03c-7.02-3.39-14.03-6.78-21.04-10.18
						c-3.37-1.63-6.83-3.15-10.1-4.97c-2.6-1.44-5.74-3.45-6.93-6.2c-0.86-1.97-0.25-4.34,0.47-6.1c0.65-1.58,1.95-3.92,3.52-4.48
						c0.69-0.25,1.77-0.82,1.62-1.7C722.6,341.92,721.4,341.87,720.81,342.08L720.81,342.08z"/>
				</g>
			</g>
			<g>
				<g>
					<path d="M715.34,356.82c-4.8,1.35-6.68,7.23-3.39,11.37c2.01,2.53,4.93,4.19,7.67,5.87c3.26,1.99,6.52,3.99,9.78,5.99
						c6.52,3.99,13.04,7.98,19.56,11.97c5.6,3.42,11.53,7.75,18.2,7.49c3.15-0.12,6.13-1.39,7.99-3.66c2.16-2.63,2.88-6,3.02-9.42
						c0.03-0.87-1.44-0.81-1.93-0.67c-0.83,0.23-1.59,0.83-1.62,1.7c-0.1,2.56-0.59,5.34-2.14,7.37c-1.21,1.59-3.07,2.21-5.22,2.13
						c-5.72-0.22-11.07-4.37-15.87-7.3c-5.38-3.29-10.77-6.59-16.15-9.88c-5.32-3.26-10.78-6.37-15.98-9.82
						c-2.19-1.45-4.91-3.47-5.37-6.07c-0.27-1.48,0.03-4.2,1.74-4.68c0.71-0.2,1.77-0.85,1.62-1.7
						C717.13,356.62,715.95,356.65,715.34,356.82L715.34,356.82z"/>
				</g>
			</g>
			<g>
				<g>
					<path d="M716.6,372.08c-0.93,4.1-0.77,8.44,1.22,12.54c1.74,3.57,4.7,6.6,7.9,9.12c6.7,5.27,14.88,9.07,23.29,8.94
						c5.03-0.08,9.63-1.76,12.98-5.03c0.51-0.49,0.58-1.33-0.25-1.67c-0.88-0.36-1.97,0.21-2.51,0.74
						c-5.03,4.91-13.64,3.77-20.32,1.1c-3.49-1.39-6.67-3.41-9.65-5.68c-2.93-2.23-5.63-4.8-7.45-7.92
						c-2.34-4.03-2.65-8.39-1.71-12.53C720.53,369.9,716.91,370.75,716.6,372.08L716.6,372.08z"/>
				</g>
			</g>
			<g>
				<path class="st10" d="M726.59,392.82c-1.85,2.4-0.75,8.07,3.11,9.91c3.07,1.46,8.89,1.14,10.89-1.43"/>
				<g>
					<path d="M724.97,392.67c-2.33,3.28-0.69,9.17,3.44,11.18c4.3,2.09,10.8,1.17,13.56-2.1c0.45-0.53,0.63-1.31-0.25-1.67
						c-0.83-0.34-2.03,0.18-2.51,0.74c-1.72,2.04-6.43,1.99-8.83,0.41c-2.63-1.73-3.82-5.98-2.18-8.29
						c0.47-0.66-0.11-1.32-0.88-1.42C726.37,391.41,725.45,391.99,724.97,392.67L724.97,392.67z"/>
				</g>
			</g>
		</g>
		<g id="Ebene_8_1_">
			<g class="st11">
				<path class="st12" d="M743.28,312.71c-3.27-1.25-6.24,2.31-5.55,5.53c0.69,3.22,3.55,5.76,6.3,7.95
					c11.73,9.34,24.62,17.31,38.22,23.65c6.42,2.99,13.55,5.68,20.09,4.3c-22.1-9.3-48.36-20.17-58.99-40.38"/>
				<g>
					<path class="st12" d="M744.42,311.5c-4.5-1.54-8.79,2.46-8.55,6.55c0.14,2.44,1.85,4.69,3.63,6.48
						c2.29,2.31,5.04,4.26,7.65,6.21c11.2,8.37,23.45,15.74,36.27,21.33c5.93,2.59,12.45,4.56,18.63,3.33
						c0.83-0.16,3.35-1.68,1.44-2.48c-17.18-7.23-35.81-14.58-49.33-27.89c-3.66-3.6-6.77-7.67-9.12-12.09
						c-0.74-1.39-4.11,0.18-3.35,1.62c8.87,16.68,27.42,26.58,44.38,34.25c5.02,2.27,10.09,4.39,15.16,6.53
						c0.48-0.83,0.96-1.66,1.44-2.48c-4.72,0.94-9.61-0.27-14.25-2.06c-5.47-2.11-10.77-4.86-15.92-7.69
						c-5.44-2.98-10.73-6.24-15.85-9.73c-2.59-1.77-5.15-3.61-7.65-5.51c-2.2-1.67-4.49-3.34-6.46-5.28
						c-1.68-1.66-3.44-4.06-3.07-6.33c0.21-1.31,1.03-2.91,2.69-2.34C743.57,314.4,746.35,312.16,744.42,311.5L744.42,311.5z"/>
				</g>
			</g>
			<g class="st11">
				<path class="st12" d="M732.69,320.65c-3.76,0.83-4.81,5.66-3.04,9.18c1.77,3.52,5.37,5.97,8.82,8.16
					c14.59,9.28,29.78,17.62,45.41,24.94c4.02,1.88,9.24,3.58,12.12,0.84c-11.76-2.88-60.69-23.23-62.74-43.85"/>
				<g>
					<path class="st12" d="M732.53,319.46c-4.89,1.26-6.79,6.64-4.56,11.18c1.29,2.61,3.68,4.72,6.09,6.44
						c2.84,2.03,5.87,3.82,8.85,5.64c12.57,7.69,25.56,14.69,38.86,20.96c5.2,2.45,11.26,4.42,15.6,0.55
						c0.45-0.41,0.65-1.45-0.25-1.67c-3.53-0.87-7-2.18-10.4-3.51c-5.12-2-10.16-4.24-15.1-6.69c-10.46-5.18-21.34-11.4-29.43-19.86
						c-3.55-3.71-6.65-8.21-7.17-13.1c-0.17-1.63-3.71-0.43-3.55,1.02c1.04,9.78,10.85,17.78,18.91,23.36
						c9.91,6.86,20.91,12.34,32.03,16.85c4.06,1.65,8.22,3.28,12.45,4.33c-0.08-0.56-0.17-1.11-0.25-1.67
						c-1.11,0.99-3.21,0.62-4.65,0.26c-2.23-0.56-4.33-1.54-6.42-2.53c-5.85-2.76-11.63-5.68-17.34-8.73
						c-5.58-2.98-11.09-6.1-16.52-9.34c-2.76-1.64-5.49-3.32-8.21-5.03c-2.33-1.47-4.71-2.92-6.79-4.73
						c-2.04-1.78-3.8-4.05-4.07-6.63c-0.19-1.78,0.22-4.25,2.21-4.77c0.71-0.18,1.76-0.86,1.62-1.7
						C734.32,319.26,733.14,319.31,732.53,319.46L732.53,319.46z"/>
				</g>
			</g>
			<g class="st11">
				<path class="st12" d="M726.08,333.06c-4.37,0.23-5.87,5.87-3.67,9.7s6.54,6.13,10.6,8.18c14.01,7.07,28.02,14.14,42.04,21.21
					c4.2,2.12,9.49,4.22,12.98,1.77c-18.6-7.51-60.86-24.12-60.36-42.06"/>
				<g>
					<path class="st12" d="M726.38,331.78c-4.83,0.41-7.6,4.97-6.55,9.46c1.32,5.65,7.75,8.75,12.68,11.23
						c13.45,6.79,26.91,13.58,40.36,20.37c5.24,2.64,11.23,5.12,16.18,1.84c0.65-0.43,1.19-1.52,0.09-1.96
						c-9.54-3.85-19.07-7.74-28.31-12.32c-5.07-2.52-10.06-5.24-14.8-8.35c-4.1-2.68-8.19-5.69-11.44-9.32
						c-2.96-3.3-5.24-7.17-5.16-11.37c0.03-1.54-3.53-0.42-3.55,1.02c-0.16,8.45,8.21,15.51,15.06,20.28
						c9.52,6.63,20.2,11.64,30.79,16.22c5.02,2.17,10.09,4.22,15.16,6.26c0.03-0.65,0.06-1.31,0.09-1.96
						c-1.39,0.92-3.43,0.58-5.08,0.12c-2.3-0.64-4.46-1.71-6.6-2.79c-5.73-2.89-11.47-5.78-17.2-8.68
						c-5.81-2.93-11.62-5.87-17.44-8.8c-2.73-1.38-5.48-2.72-8.19-4.15c-2.32-1.23-4.68-2.61-6.53-4.48
						c-1.77-1.78-2.9-3.98-2.75-6.32c0.1-1.56,0.72-3.59,2.58-3.75c0.83-0.07,1.91-0.64,2.07-1.47
						C727.99,332.02,727.11,331.72,726.38,331.78L726.38,331.78z"/>
				</g>
			</g>
			<g class="st11">
				<path class="st12" d="M719.74,346.47c-3.19,1.24-4.16,5.33-2.75,8.58c1.42,3.25,4.62,5.66,7.98,7.19
					c3.35,1.54,6.95,2.37,10.41,3.59c7.99,2.82,15.16,7.66,22.64,11.73c7.48,4.07,15.78,7.49,23.93,6.96
					c-14.87-5.81-54.47-20.52-62.08-38.32"/>
				<g>
					<path class="st12" d="M719.12,345.47c-4.34,1.85-5.75,7.04-3.34,11.31c2.81,4.97,8.74,7.2,13.94,8.82
						c3.06,0.95,6.07,1.94,9,3.26c3.07,1.39,6.02,3.01,8.95,4.69c5.25,3,10.43,6.16,15.98,8.56c5.78,2.5,11.89,4.05,17.99,3.7
						c0.93-0.05,3.27-1.77,1.44-2.48c-8.47-3.31-16.93-6.62-25.19-10.45c-9.55-4.43-19.25-9.48-27.33-16.31
						c-3.72-3.15-7.13-6.81-9.02-11.16c-0.6-1.38-4,0.12-3.35,1.62c3.63,8.34,12.47,14.52,20.25,19.25
						c9.32,5.66,19.32,10.19,29.35,14.32c4.32,1.78,8.67,3.46,13.02,5.15c0.48-0.83,0.96-1.66,1.44-2.48
						c-10.28,0.59-20.16-5.13-29.03-10.26c-4.95-2.87-9.95-5.75-15.29-7.82c-5.07-1.96-10.74-2.81-15.24-6.12
						c-2.1-1.55-3.99-3.7-4.45-6.18c-0.37-2.04,0.07-4.52,2.1-5.38c0.6-0.25,1.51-1.07,1.05-1.82
						C720.94,344.88,719.7,345.22,719.12,345.47L719.12,345.47z"/>
				</g>
			</g>
			<g class="st11">
				<path class="st12" d="M716.02,358.3c-2.83,1.66-2.77,5.91-0.81,8.84s5.22,4.85,8.35,6.64c11.01,6.31,22.03,12.61,33.04,18.92
					c5.27,3.02,11.6,6.15,16.8,4.03c-21.81-7.53-44.99-19.87-57.91-38.72"/>
				<g>
					<path class="st12" d="M714.98,357.55c-3.7,2.37-3.74,7.51-0.93,11.12c1.63,2.08,3.83,3.65,6.1,5.02
						c2.64,1.59,5.34,3.08,8.01,4.61c5.51,3.15,11.01,6.31,16.52,9.46c4.95,2.83,9.85,5.92,14.99,8.4
						c4.73,2.27,9.67,3.39,14.34,1.58c0.74-0.29,1.9-1.73,0.51-2.21c-17.09-5.92-34.17-14.26-47.46-26.82
						c-3.72-3.51-7.05-7.36-9.9-11.5c-0.93-1.35-4.26,0.3-3.35,1.62c10.45,15.14,26.84,25.76,43.67,33.29
						c4.84,2.17,9.78,4.09,14.78,5.82c0.17-0.74,0.34-1.48,0.51-2.21c-3.23,1.25-7.35-0.34-10.49-1.82
						c-4.5-2.11-8.77-4.84-13.08-7.31c-4.89-2.8-9.77-5.59-14.66-8.39c-2.48-1.42-4.96-2.84-7.45-4.26
						c-2.14-1.23-4.33-2.4-6.35-3.83c-2.09-1.49-4.11-3.38-4.85-5.77c-0.57-1.86-0.54-4.19,1.15-5.28c0.55-0.35,1.1-1.23,0.41-1.8
						C716.74,356.66,715.55,357.18,714.98,357.55L714.98,357.55z"/>
				</g>
			</g>
			<g class="st11">
				<path class="st12" d="M718.44,373.49c1.26,7.5,5.78,14.78,12.27,19.72c6.48,4.94,14.84,7.48,22.64,6.89
					c-13.16-5.54-24.78-15.07-32.56-26.7"/>
				<g>
					<path class="st12" d="M716.66,374c1.33,7.6,5.75,14.9,12.26,20c6.9,5.4,15.76,7.95,24.11,7.38c0.96-0.07,3.25-1.71,1.44-2.48
						c-12.98-5.52-24.3-14.85-32.02-26.3c-0.91-1.36-4.24,0.29-3.35,1.62c7.99,11.85,19.68,21.39,33.1,27.09
						c0.48-0.83,0.96-1.66,1.44-2.48c-7.72,0.53-15.89-2.13-22.16-7.18c-5.98-4.81-10.04-11.62-11.27-18.67
						C719.93,371.32,716.41,372.55,716.66,374L716.66,374z"/>
				</g>
			</g>
			<g class="st11">
				<path class="st12" d="M727.2,393.49c-0.75,2.38,0.03,5.27,1.94,7.26s4.89,3.02,7.5,2.59c-3.64-2.58-6.31-6.43-7.29-10.5"/>
				<g>
					<path class="st12" d="M725.44,393.68c-0.76,2.68-0.01,5.75,2.13,8c2.27,2.38,5.68,3.37,8.75,2.94
						c0.76-0.11,3.09-1.36,1.76-2.32c-3.47-2.52-5.97-6.05-6.97-9.97c-0.43-1.68-3.92-0.39-3.55,1.02c1.1,4.33,3.77,8.24,7.62,11.04
						c0.59-0.78,1.17-1.55,1.76-2.32c-5.04,0.71-9.23-4.35-7.99-8.76c0.23-0.83-0.78-1.14-1.45-1.09
						C726.64,392.28,725.67,392.86,725.44,393.68L725.44,393.68z"/>
				</g>
			</g>
		</g>
		<g id="Ebene_4_1_">
			<g>
				<g>
					<path d="M743.68,313.47c17.03-6.37,33.89-13.06,50.38-20.42c16.53-7.38,32.7-15.44,48.16-24.5
						c15.27-8.95,30.14-18.78,43.41-30.16c6.65-5.7,13.17-12.51,15.06-21.31c1.43-6.65-0.13-14.71-5.24-20.38
						c-5.37-5.96-13.33-7.61-20.54-5.98c-8.5,1.93-14.47,8.11-18.48,15.04c-1.1,1.9-2.07,3.86-2.99,5.86c-0.86,1.87,2.27,1.52,3,0.6
						c5.04-6.36,10.41-13.19,10.94-21.73c0.43-6.97-2.6-14.46-9.69-18.22c-7.06-3.74-15.46-3.39-22.19-0.81
						c-7.29,2.79-13.04,7.95-17.2,14.12c-9.29,13.79-9.66,31.63-10.8,48.12c-1.21,17.57-2.05,35.19-3.29,52.75
						c-1.23,17.48-2.81,34.93-5.64,52.09c-0.34,2.08-0.71,4.15-1.08,6.22c-0.34,1.83,3.27,0.97,3.52-0.38
						c2.99-16.22,4.74-32.75,6.05-49.33c1.33-16.72,2.19-33.51,3.22-50.27c0.5-8.22,1.03-16.45,1.72-24.64
						c0.7-8.32,1.78-16.66,4.57-24.42c4.45-12.36,15.52-25.45,31.37-23.43c3.57,0.45,7.13,1.81,9.98,4.17
						c2.81,2.33,4.63,5.56,5.42,8.88c1.87,7.86-1.5,14.91-5.77,20.89c-1.24,1.74-2.57,3.41-3.89,5.09c1,0.2,2,0.4,3,0.6
						c3.23-7.05,7.47-14.47,15.15-17.74c6.21-2.64,14.04-1.82,19.46,3.33c5.32,5.07,7.16,12.9,6.02,19.28
						c-1.5,8.38-7.68,14.91-13.94,20.26c-12.65,10.8-26.73,20.26-41.24,28.83c-14.58,8.62-29.81,16.33-45.38,23.41
						c-15.53,7.06-31.41,13.51-47.47,19.61c-1.96,0.75-3.93,1.49-5.9,2.22c-0.69,0.26-1.77,0.81-1.62,1.7
						C741.88,313.63,743.09,313.69,743.68,313.47L743.68,313.47z"/>
				</g>
			</g>
			<g>
				<g>
					<path d="M926.94,196.7c6.29,14.74,5.86,31.24-1.21,44.34c-0.37,0.69,0.04,1.31,0.88,1.42c0.89,0.12,1.98-0.43,2.37-1.14
						c7.4-13.72,7.9-30.79,1.31-46.24C929.69,193.7,926.29,195.2,926.94,196.7L926.94,196.7z"/>
				</g>
			</g>
			<g>
				<g>
					<path d="M765.06,165.98c-8.01,10.89-11.97,24.51-11.37,38.46c0.17,3.98,0.74,7.98,1.67,11.95c0.39,1.68,3.89,0.4,3.55-1.02
						c-3.18-13.55-1.9-27.54,3.69-39.51c1.58-3.38,3.49-6.58,5.7-9.59c0.48-0.65-0.12-1.33-0.88-1.42
						C766.45,164.71,765.56,165.31,765.06,165.98L765.06,165.98z"/>
				</g>
			</g>
		</g>
	</g>
</g>
<g id="Ebene_23">
	<g>
		<g>
			<path class="st8" d="M887.86,331.06c2.87,5.03,5.75,10.06,8.62,15.08c2.66,4.66,10.6-1.27,8.23-5.41
				c-2.87-5.03-5.75-10.06-8.62-15.08C893.43,320.99,885.5,326.91,887.86,331.06L887.86,331.06z"/>
		</g>
	</g>
	<g>
		<g>
			<path class="st8" d="M946.62,301.72c3.95,5.03,7.9,10.06,11.85,15.08c3.02,3.85,10.18-3.12,7.07-7.07
				c-3.95-5.03-7.9-10.06-11.85-15.08C950.67,290.8,943.52,297.76,946.62,301.72L946.62,301.72z"/>
		</g>
	</g>
	<g>
		<g>
			<path class="st8" d="M973.24,241.14c8.26-1.08,16.52-2.15,24.78-3.23c4.78-0.62,7.43-9.56,1.25-8.75
				c-8.26,1.08-16.52,2.15-24.78,3.23C969.7,233.02,967.06,241.95,973.24,241.14L973.24,241.14z"/>
		</g>
	</g>
	<g>
		<g>
			<path class="st8" d="M963.63,170.23c6.82-5.39,13.65-10.77,20.47-16.16c1.73-1.37,3.66-3.86,2.5-6.2
				c-1.05-2.1-4.04-2.13-5.73-0.79c-6.82,5.39-13.65,10.77-20.47,16.16c-1.73,1.37-3.66,3.86-2.5,6.2
				C958.94,171.54,961.93,171.57,963.63,170.23L963.63,170.23z"/>
		</g>
	</g>
	<g>
		<g>
			<path class="st8" d="M922.41,119.87c3.95-5.75,7.9-11.49,11.85-17.24c1.23-1.78,1.38-4.63-0.79-5.73
				c-2.24-1.14-4.98,0.72-6.2,2.5c-3.95,5.75-7.9,11.49-11.85,17.24c-1.23,1.78-1.38,4.63,0.79,5.73
				C918.45,123.5,921.19,121.64,922.41,119.87L922.41,119.87z"/>
		</g>
	</g>
	<g>
		<g>
			<path class="st8" d="M862.95,98.23c1.44-8.26,2.87-16.52,4.31-24.78c1.06-6.11-7.93-3.48-8.75,1.25
				c-1.44,8.26-2.87,16.52-4.31,24.78C853.14,105.59,862.13,102.96,862.95,98.23L862.95,98.23z"/>
		</g>
	</g>
	<g>
		<g>
			<path class="st8" d="M786.47,91.75c-1.08-6.82-2.15-13.65-3.23-20.47c-0.9-5.71-9.52-1.24-8.78,3.43
				c1.08,6.82,2.15,13.65,3.23,20.47C778.59,100.89,787.21,96.42,786.47,91.75L786.47,91.75z"/>
		</g>
	</g>
	<g>
		<g>
			<path class="st8" d="M735.55,118.78c-2.87-4.67-5.75-9.34-8.62-14.01c-2.82-4.57-10.72,1.36-8.23,5.41
				c2.87,4.67,5.75,9.34,8.62,14.01C730.14,128.76,738.04,122.82,735.55,118.78L735.55,118.78z"/>
		</g>
	</g>
	<g>
		<g>
			<path class="st8" d="M701.82,160.47c-5.39-3.59-10.77-7.18-16.16-10.77c-3.92-2.61-9.89,5.24-5.41,8.23
				c5.39,3.59,10.77,7.18,16.16,10.77C700.33,171.31,706.3,163.45,701.82,160.47L701.82,160.47z"/>
		</g>
	</g>
	<g>
		<g>
			<path class="st8" d="M713.67,207.87c-3.59-1.08-7.18-2.15-10.77-3.23c-2.41-0.72-4.83,0.4-6.2,2.5c-0.98,1.51-1.64,5,0.79,5.73
				c3.59,1.08,7.18,2.15,10.77,3.23c2.41,0.72,4.83-0.4,6.2-2.5C715.45,212.1,716.1,208.6,713.67,207.87L713.67,207.87z"/>
		</g>
	</g>
</g>
</svg>
