<?xml version="1.0" encoding="utf-8"?>
<!-- Generator: Adobe Adobe Illustrator 24.2.0, SVG Export Plug-In . SVG Version: 6.00 Build 0)  -->
<svg version="1.1" xmlns="http://www.w3.org/2000/svg" xmlns:xlink="http://www.w3.org/1999/xlink" x="0px" y="0px"
	 viewBox="0 0 1080 1080" style="enable-background:new 0 0 1080 1080;" xml:space="preserve">
<style type="text/css">
	.st0{fill:none;stroke:#000000;stroke-miterlimit:10;}
	.st1{fill:#B6A8A8;stroke:#000000;stroke-width:8.9956;stroke-linecap:round;stroke-linejoin:round;stroke-miterlimit:10;}
	.st2{fill:#B9C5C9;stroke:#000000;stroke-width:8.9956;stroke-linecap:round;stroke-linejoin:round;stroke-miterlimit:10;}
	.st3{fill:#FFF8F7;}
	.st4{fill:#FFF8F7;stroke:#FFF8F7;stroke-width:22.4891;stroke-linecap:round;stroke-miterlimit:10;}
	.st5{fill:none;stroke:#000000;stroke-width:8.9956;stroke-linecap:round;stroke-linejoin:round;stroke-miterlimit:10;}
	.st6{fill:#C8A3A0;stroke:#000000;stroke-width:8.9956;stroke-linecap:round;stroke-linejoin:round;stroke-miterlimit:10;}
	.st7{fill:#C7A3A0;stroke:#000000;stroke-width:8.9956;stroke-linecap:round;stroke-linejoin:round;stroke-miterlimit:10;}
	.st8{opacity:0.2392;}
	.st9{opacity:0.2392;fill:#FFFFFF;}
	.st10{fill:#BD9592;}
	.st11{opacity:0.149;}
	.st12{fill:#CA354E;}
	.st13{fill:#FFFFFF;}
</style>
<g id="Ebene_4">
	<path class="st1" d="M275.79,710.62c3.27,78.03,6.54,156.06,9.81,234.09c13.06,1.87,29.61,2.04,35.68-9.95
		c2.34-4.62,2.4-10.04,2.41-15.24c0.15-71.89,0.3-143.79,0.45-215.68C307.37,702.7,290.4,704.61,275.79,710.62z"/>
	<path class="st1" d="M427.42,713.16c-4.18,80.58-0.88,161.55,9.84,241.47c15.69-3.13,31.37-6.26,47.06-9.38
		c-2.1-74.37-4.2-148.75-6.3-223.12c-0.11-3.81-0.25-7.78-2.01-11.14c-4.28-8.21-15.64-8.86-24.45-6.52
		C442.74,706.82,433.75,711.08,427.42,713.16z"/>
</g>
<g id="Ebene_9">
</g>
<g id="Ebene_5">
	<path class="st2" d="M208.86,1035.29c-3.55-26.01,3.14-53.35,18.25-74.62c15.11-21.27,38.48-36.24,63.79-40.85
		c19.3-3.52,40.35-0.8,56.16,11.01c14.6,10.9,23.38,28.44,27.45,46.46c4.07,18.02,3.89,36.72,3.69,55.22
		C322.4,1033.36,266.58,1034.21,208.86,1035.29z"/>
	<path class="st2" d="M208.34,1022.75c54.66-0.96,109.33-1.92,163.99-2.88"/>
	<path class="st2" d="M253.72,937.96c6.05,8.64,12.1,17.28,18.15,25.92"/>
	<path class="st2" d="M237.86,952.98c3.53,8.62,9.13,16.35,16.17,22.31"/>
	<path class="st2" d="M398.43,1035.25c-7.45-27.39-6.63-58.26,7.83-82.58s44.38-39.87,71.11-32.03c20.8,6.1,36.28,24.71,44.42,45.2
		c8.14,20.49,10.05,42.92,11.88,64.96C488.96,1029.05,444.03,1033.01,398.43,1035.25z"/>
	<path class="st2" d="M393.96,1015.12c44.32,2.29,88.8,1.31,133-2.93"/>
	<path class="st2" d="M447.65,941.91c8.19-0.63,16.37-1.25,24.56-1.88"/>
	<path class="st2" d="M448.48,964.64c8.96-1.69,17.91-3.38,26.87-5.06"/>
</g>
<g id="Ebene_2">
	<path class="st1" d="M270.91,259.72c-24.34-66.75-49.27-66.09-77.07-32.8c-49.68,59.46-12.77,64.96,19.81,76.37
		c-43.93,5.09-76.92,27.44-82.17,38.71c-3.76,8.06-0.8,23.79,22.83,20.62c-24.4,14.68-75.37,54.07-65.29,71.53
		c4.27,7.4,12.29,8.46,41.88-10.96c-17.41,13.73-32.44,30.63-44.15,49.66c-3.83,6.23-7.36,14.22-3.79,20.61
		c6.24,11.2,26.63-0.84,33.42-9.62c-14.96,16.16-47.54,48.2-41.55,59.82c3.78,7.34,11.23,14.15,35.06,0.7
		c-12.23,8.65-46.77,31.43-31.37,46.52c4.98,4.88,23.27,3.03,30.28-3.03c-6.58,12.95-32.37,41.35-27.97,51.41
		c5.27,12.04,30.36,8.4,39.41,1.29c-11.19,12.43-19.26,43.5-9.58,48.21c14.36,6.99,35.19-8.17,38.66-22.65
		c-3.89,21.29-12.34,40.5,5.08,48.73s29.93-10,39.69-27.58c-1.93,16.08-8.34,26.49-3.05,38.8c14.69,34.15,45.32,17.31,52.49-9.45
		c-2.18,18.78,3.15,36.47,19.7,38.29c16.55,1.82,20.68-16.09,27.34-33.11c-0.72,17.63,0.39,33.87,15.61,35.9
		c15.22,2.03,17.74-13.9,24.2-30.6c-0.63,15.53,4.2,33.14,19.36,33.46c15.15,0.32,23.79-15.95,20.82-32.6
		c3.1,16.44,7.94,33.4,23.65,34.42s30.21-15.19,27.82-31.09c1.74,18.39,7.86,30.83,22.31,29.83c14.45-1,24.77-19.4,18.29-32.63
		c7.47,17.23,10.42,34.06,26.66,32.92c16.24-1.14,28.3-20.98,22.12-36.35c0.66,17.05,17.79,31.4,34.29,28.7
		c16.49-2.7,28.45-21.79,23.93-38.22c5.79,13.23,4.68,24.44,16.29,24.2c11.61-0.24,21.04-11.33,22.8-23.06
		c1.76-11.74-2.6-23.59-8.63-33.73c7.8,7.38,13.05,20.06,23.3,15.23c10.25-4.83,14.45-18.24,12.17-29.52s-9.57-20.76-17.2-29.23
		c9.17,7.22,15.1,16.4,24.29,11.05c9.2-5.36,12.71-17.64,11.06-28.32c-1.65-10.68-5.32-19.61-14.11-29.35
		c6.7,7.43,29.96,16.87,37.03,8.39c11.99-14.39-3.9-37.92-16.7-49.02c9.12,4.43,29.8,13.31,36.76,1.15
		c1.73-23.63-19.48-35.64-39-48.38c9.22,3.23,30.39,8.33,33.73-2.57c2.64-26.64-23.79-41.21-49.69-45.19
		c9.42,0.82,30.54,5,35.39-8.61c-0.27-29.6-49.53-50.64-58.1-52.37c12.28,1.08,21.03-5.15,19.35-15.8
		c-1.68-10.65-11.54-17.81-21.19-22.16s-18.53-10.05-27.69-15.17c9.32,0.38,24.81-3.26,25.17-11.9
		c-0.59-22.83-22.31-26.53-44.59-24.78c11.21-4.43,23.99-10.51,19.2-19.15c-4.69-8.46-31.11-6.49-43.86-1.93
		c35.95-16.69,48.51-57.34,3.27-78.01c-52.65-24.05-71.98,13.5-65.54,50.03c-9.12-5.84-18.23-11.68-27.35-17.52
		c7.72-11.96,25.79-35.5,16.25-40.37c-10.03-5.12-33.94,12.25-37.74,24.89c1.22-12.72,11.61-43.4-5.07-44.75
		c-20.07-1.63-15.8,29.91-18.79,39.1c-1.9-8.1-3.42-37.1-16.56-36.74c-9.01,0.25-16.31,25.63-18.57,36.32
		c-4.94-16.15-8.09-37.45-21.93-36.35s-11.43,25.38-9.97,39.32c-3.99-11.14-19.67-47.95-29.83-45.09
		c-16.68,4.7-0.36,41.27-0.41,58.82c-5.25-8.84-24.07-26.98-31.45-21.13c-9.36,7.42-17,21.06,7.98,40.97
		C283.53,257.38,277.34,259.99,270.91,259.72z"/>
</g>
<g id="Ebene_7">
	<path class="st3" d="M336.79,337.44c1.19-22.11-12.4-44.09-32.22-52.99s-44.55-4.46-60.65,10.37c-16.1,14.84-22.99,39.14-17.7,60.6
		c2.81,11.38,9.16,22.28,19.08,28.19c14.53,8.66,33,4.99,48.88-0.74c10.51-3.79,20.99-8.55,29-16.47
		C331.19,358.47,336.29,346.8,336.79,337.44z"/>
</g>
<g id="Ebene_8">
	<path class="st4" d="M328.06,271.14c3.49,3.06,6.99,6.12,10.48,9.18"/>
	<path class="st4" d="M371.99,258.32c0.75,4.9,1.51,9.79,2.26,14.69"/>
	<path class="st4" d="M410.05,257.56c0.34,4.88,0.68,9.77,1.01,14.65"/>
	<path class="st4" d="M443.25,289.83c4.03-5.48,8.06-10.96,12.09-16.44"/>
</g>
<g id="Ebene_3">
	<path class="st1" d="M523.64,530.27c5.8,74.47,9.71,149.1,11.73,223.78c0.2,7.26,0.42,14.73,3.29,21.37
		c2.87,6.64,9.08,12.31,16.18,12.17c7.91-0.16,14.27-7.52,16.18-15.37c1.91-7.85,0.4-16.09-1.12-24.03
		c4.08,10.88-2.51,26.26,6.71,33.11c6.8,5.06,17.15-0.34,20.44-8.27c3.29-7.93,1.69-16.97,0.04-25.41
		c-0.16,6.59-0.28,13.38,2.07,19.51c2.35,6.13,7.83,11.5,14.28,11.52c6.56,0.02,12.16-5.5,14.46-11.78
		c2.31-6.28,2.02-13.2,1.66-19.9c-3.97-73.58-13.03-146.86-27.1-219.11"/>
	<path class="st1" d="M124.94,512.54c39.53,1.62,79.21-0.61,118.34-6.65c15-2.31,31.16-5.89,41-17.7
		c10.39-12.47,10.73-30.41,10.53-46.78c-0.37-31.13-0.73-62.27-1.1-93.4c-0.12-9.81-0.18-19.92,3.44-29.01
		c3.61-9.09,11.88-16.99,21.48-16.91s18.42,10.98,14.42,19.9c-1.37-12.2,0.78-25.19,7.91-35.09c7.13-9.9,19.75-16.05,31.48-13.42
		c11.74,2.63,21.05,15.18,18.61,27.22c-5.92-9.7,2.45-23.56,13.43-25.83s22.11,4.04,29.73,12.4c14.54,15.95,19.59,38.38,24.08,59.7
		c7.4,35.1,14.82,71.34,8.28,106.64c-7.64,41.28-34.42,77.48-68.72,100.69s-75.53,34.17-116.56,36.36s-82.09-4.03-122.22-12.96"/>
	<path class="st5" d="M255.32,329.17c11.94-0.71,23.88-1.43,35.82-2.14"/>
	<path class="st5" d="M486.42,325.89c14.86-4.46,30.46-6.27,45.91-5.34"/>
	<path class="st6" d="M504.5,261.97c2.51-9.88,5.02-19.75,7.53-29.63c0.59-2.34,1.3-4.85,3.18-6.32c2.95-2.31,7.18-0.94,10.57,0.6
		c8.13,3.69,16.05,7.87,23.7,12.52c2.62,1.59,5.52,3.78,5.52,6.9c0,2.16-1.44,4-2.8,5.65c-4.98,6.02-9.95,12.04-14.93,18.05
		c-2.33,2.82-4.87,5.78-8.35,6.75C520.27,278.89,513.45,268.09,504.5,261.97z"/>
	<path class="st7" d="M230.31,286.17c-10.58-3.78-20.6-9.19-29.62-16c-2.07-1.56-4.19-3.35-4.92-5.87
		c-0.97-3.35,0.83-6.84,2.72-9.76c5.25-8.06,11.8-15.24,19.31-21.15c2.8-2.21,6.38-4.34,9.68-3.07c2,0.77,3.38,2.62,4.64,4.38
		c4.84,6.75,9.69,13.49,14.53,20.24c2.28,3.18,4.68,6.83,4.07,10.72C249.37,274.15,235.31,276.38,230.31,286.17z"/>
</g>
<g id="Ebene_10">
	<path class="st8" d="M212.82,303.39c-8.99-1.84-18.14-3.73-26.14-8.3c-8-4.57-14.8-12.32-15.95-21.62
		c-1.02-8.31,2.52-16.51,6.82-23.66c5.55-9.22,12.52-17.56,20.56-24.61c3.81-3.34,8.36-6.56,13.37-6.17
		c4.68,0.36,8.66,3.94,10.81,8.2c2.15,4.26,2.76,9.14,3.16,13.92C227.23,262.62,225.34,284.41,212.82,303.39z"/>
	<path class="st8" d="M484.91,260.03c-1.17-8.9-2.35-17.91-1.32-26.83s4.51-17.89,11.23-23.69c7.1-6.13,16.99-8.01,26.23-7.09
		c9.24,0.92,18.04,4.34,26.69,7.78c6.66,2.65,14.33,6.65,15.08,13.91c0.75,7.3-6.04,12.91-12.3,16.51
		C530.08,252.37,506.93,259.13,484.91,260.03z"/>
	<path class="st8" d="M288.9,254.84c-1.75-5.59-5.58-10.2-8.61-15.19s-5.35-11.06-3.6-16.66c1.74-5.6,9.2-9.3,13.56-5.47
		c2.42,2.13,3.06,5.64,3.44,8.88C294.75,235.69,294.82,245.09,288.9,254.84z"/>
	<path class="st8" d="M316.82,230.26c-4.18-12.91-6.94-26.3-8.22-39.84c-0.37-3.89-0.13-8.72,3.29-10.46
		c2.68-1.37,6.08,0.12,7.86,2.57c1.77,2.46,2.29,5.61,2.62,8.65C323.98,205.92,322.48,221,316.82,230.26z"/>
	<path class="st8" d="M344.97,223.25c1.33-5.63-0.28-11.47-1.36-17.15c-1.08-5.68-1.49-12.06,1.8-16.78
		c3.29-4.72,11.57-5.72,14.14-0.57c1.4,2.8,0.65,6.19-0.28,9.19C356.63,206.52,352.73,214.69,344.97,223.25z"/>
	<path class="st8" d="M378.85,218.62c-0.42-9.66,2.01-19.44,6.91-27.73c2.22-3.75,6.08-7.62,10.17-6.31c2.8,0.9,4.43,4.08,4.43,7.09
		s-1.31,5.84-2.76,8.45C393.18,208.09,387.09,215.09,378.85,218.62z"/>
	<path class="st8" d="M413.57,219.42c-0.74-10.01,1.03-20.21,5.1-29.35c2.1-4.73,6.89-9.88,11.4-7.51c4.39,2.31,3.3,9.03,1.11,13.56
		C426.94,204.89,420.99,212.8,413.57,219.42z"/>
	<path class="st8" d="M437.66,229.03c4.47-10.46,12.39-19.35,22.16-24.88c4.15-2.35,10.56-3.42,12.58,0.95
		c1.73,3.75-1.62,7.83-4.84,10.38C459.93,221.54,451.34,226.32,437.66,229.03z"/>
	<path class="st8" d="M214.28,304.68c-23.89,3.19-49.02,6.88-68.13,21.9c-7.66,6.02-14.49,15.14-12.92,24.87s15.98,15.66,21.26,7.4
		c-22.37,12.27-42.87,28.12-60.5,46.8c-6.1,6.46-12.29,15.09-9.58,23.62c2.7,8.49,13.42,11.87,21.82,9.4s14.94-9.07,21.09-15.43
		c-15,12.82-28.93,26.96-41.58,42.21c-5.8,7-11.64,16.48-7.68,24.7c3.2,6.64,11.82,8.93,18.85,7.1s12.83-6.77,18.37-11.56
		c-11.79,6.04-23.97,12.4-32.18,22.96c-8.21,10.56-11.25,26.59-3.44,37.43s27.81,10.3,32.08-2.46
		c-5.01,7.61-14.13,10.91-21.81,15.64s-14.94,13.46-12.21,22.18c2.04,6.49,9.13,10.18,15.81,10.28c6.67,0.1,13.05-2.6,19.2-5.26
		c-9.15,7.37-18.58,15.08-23.85,25.7c-5.27,10.62-5.15,25.02,3.46,33s25.82,4.02,27.41-7.77c-6,9.11-12.19,18.73-13.18,29.66
		s5.25,23.36,15.84,25.09c14.03,2.28,23.72-13.58,29.3-26.94c-14.65,10.3-13.48,36.71,2.03,45.54s38.14-4,39.04-22.14
		c-7.59,10.19-10.07,24.5-5.12,36.24s17.69,19.91,30.08,18.11c12.39-1.8,22.73-14.34,21.24-27.04c-5.69,15.54,6.56,34.9,22.75,35.97
		s30.83-16.52,27.19-32.68c-8.35,13.14,1.25,33.75,16.48,35.39c15.23,1.63,28.87-16.49,23.42-31.1
		c-8.33,13.91,2.18,35.1,18.08,36.42c15.89,1.32,29.69-17.85,23.71-32.95c-3.17,14.9,9.75,31.01,24.65,30.74
		c14.91-0.26,27.33-16.82,23.7-31.6c-4.64,15.89,9.53,34.24,25.72,33.31c16.2-0.93,28.34-20.78,22.05-36.05
		c-5.35,14,6,31.65,20.69,32.17c14.68,0.52,27.26-16.29,22.92-30.63c0.89,5.29,1.85,10.76,4.79,15.22
		c2.93,4.45,8.41,7.63,13.46,6.11c8.04-2.41,9.18-13.71,7.06-21.99c-2.11-8.28-5.79-17.35-1.88-24.93
		c-57.46,12.92-117.89,6.7-174.28-10.3c-56.39-16.99-109.21-44.42-160.26-74.18c-20-11.66-40.68-24.62-51.97-45.13
		c-13.88-25.24-10.64-56.46-4.92-84.85C154.83,423.01,177.26,363.24,214.28,304.68z"/>
	<path class="st8" d="M527.36,530.13c19.55,24.61,23.98,57.96,27.55,89.48c4.95,43.74,9.68,87.5,14.18,131.29
		c0.66,6.39,1.3,12.97-0.4,19.17c-1.7,6.19-6.31,12-12.52,13.07c-6.79,1.17-13.46-3.71-16.74-9.88c-3.28-6.18-3.93-13.42-4.51-20.43
		c-4.46-53.97-8.92-107.95-13.39-161.92"/>
	<path class="st8" d="M276.12,745.02c20.19,43.15,31.26,90.74,32.23,138.59c0.16,8.05-0.06,16.51-3.96,23.5
		c-3.9,7-12.69,11.8-19.87,8.51C281.18,861.27,277.83,806.91,276.12,745.02z"/>
	<path class="st8" d="M423.95,756.78c21.42,34.5,33.11,75.26,33.31,116.15c0.05,9.21-0.52,18.63-4.01,27.13
		c-3.49,8.5-10.37,16-19.16,18C431.78,867.01,429.48,815.95,423.95,756.78z"/>
	<path class="st8" d="M312.7,923.47c-25.18-9.76-54.92,0.74-73.65,20.57s-27.88,47.31-31.7,74.59c-0.6,4.27-0.92,9.12,1.82,12.39
		c3.23,3.86,9.07,3.64,13.97,2.74c24.03-4.4,46.46-17.52,62.35-36.49C301.38,978.31,310.62,953.64,312.7,923.47z"/>
	<path class="st8" d="M465.99,922.03c-23.31-4.54-47.67,9.81-59.68,30.76c-12.01,20.95-13.09,46.99-7.71,70.61
		c1.01,4.42,2.75,9.4,6.92,10.96c5.07,1.89,10.18-2.39,13.95-6.34c13.8-14.44,27.55-29.29,37.27-46.86
		C466.47,963.59,471.93,942.78,465.99,922.03z"/>
	<path class="st8" d="M159.2,571.35c61.79,25.16,137.15,11.1,186.37-34.77c49.22-45.87,69.88-121.29,51.08-186.5
		c-3.73-12.95-8.91-25.7-9.46-39.19c-0.54-13.49,4.89-28.41,16.88-34.09c12.24-5.79,27.34,0.13,36.32,10.38
		c8.98,10.25,13.15,23.89,16.73,37.16c16.1,59.72,24.14,127.12-6.15,180.86c-26.83,47.59-79.69,75.12-132.81,83.16
		C265.04,596.41,211,587.55,159.2,571.35z"/>
	<path class="st9" d="M226.45,225.41c4.64,5.21,5.76,12.69,9.05,18.88c3.29,6.19,11.26,11.27,16.84,7.12
		c4.81-3.57,4.09-11.04,2.44-16.87c-1.51-5.34-3.46-10.71-7.01-14.92c-3.55-4.21-8.99-7.11-14.37-6.28
		C228.02,214.18,222.05,220.46,226.45,225.41z"/>
	<path class="st9" d="M560.09,241.88c-8.54,6.16-15.1,15.15-18.44,25.27c-1.2,3.62-1.46,8.61,1.92,10.23
		c2.52,1.2,5.43-0.38,7.68-2.04c6.28-4.62,11.79-10.33,16.23-16.81c2.82-4.11,5.28-9.33,3.42-13.97
		C569.06,239.92,560.83,239.16,560.09,241.88z"/>
	<path class="st9" d="M575,320.8c4.6-2.36,9.58-4.79,14.67-4.01c5.09,0.78,9.72,6.37,7.62,11.17c-1.54,3.52-5.95,4.92-9.65,4.16
		S580.81,328.98,575,320.8z"/>
	<path class="st9" d="M601.29,368.08c9.54,1.98,17.99,8.77,22.13,17.77C615.87,389.85,605.3,385.45,601.29,368.08z"/>
	<path class="st9" d="M629.84,421.12c8.6,3.62,16.59,8.73,23.53,15.05c2.33,2.12,4.68,4.65,4.97,7.83
		c0.61,6.77-9.05,10.29-14.7,6.71C637.99,447.12,635.76,439.98,629.84,421.12z"/>
	<path class="st9" d="M653.73,477.32c5.43,1.32,11.26,2.89,14.74,7.34s2.57,12.67-2.83,14.12c-3.99,1.08-8.09-2.19-9.54-6.14
		C654.66,488.71,655.18,484.33,653.73,477.32z"/>
	<path class="st9" d="M676.14,536.52c-3.88-2.22-4.97-7.26-6.53-11.52c-1.56-4.26-5.29-8.81-9.58-7.58
		c-3.98,1.14-5.14,6.41-4.64,10.6c0.58,4.87,2.6,9.81,6.5,12.66c3.9,2.86,9.9,2.96,13.18-0.64
		C678.34,536.45,677.03,529.36,676.14,536.52z"/>
	<path class="st9" d="M660.93,574.16c-3.26-4.44-6.51-8.87-9.77-13.31c-2.06,3.78-4.17,7.76-4.2,12.09
		c-0.03,4.32,2.83,8.99,7.05,9.29c1.06,0.08,2.15-0.13,3.11-0.59c3.18-1.52,4.59-5.56,4.18-9.12S659.07,565.75,660.93,574.16z"/>
	<path class="st9" d="M632.77,610.51c2.61,3.18,0.68,7.91,0.11,12.02c-0.57,4.12,3.16,9.66,6.43,7.18c1.37-1.04,1.66-2.97,1.79-4.71
		C641.65,617.69,641.14,610.3,632.77,610.51z"/>
	<path class="st9" d="M552.69,317.85c24.05,47.29,48.2,94.79,65.15,145.21c3.47,10.31,5.51,24.18-3.54,29.96
		c-8.08,5.17-18.54-0.67-25.53-7.27c-32.33-30.57-43.21-77.85-48.58-122.56c-0.91-7.57-1.67-15.48,0.86-22.66
		S550.43,327.15,552.69,317.85z"/>
	<path class="st9" d="M586.26,538.27c-10.9,68.53-4.57,139.82,18.19,205.17c16.51-57.68,3.33-119.3-9.9-177.8
		c-0.75-3.3-1.56-6.74-3.76-9.28S584.58,552.6,586.26,538.27z"/>
	<path class="st9" d="M461.91,774.88c-9.01,34.55-6.35,72.16,7.45,104.98C479.46,841.93,477.57,800.79,461.91,774.88z"/>
	<path class="st9" d="M308.33,766.41c-4.18,32.07-1.74,65.01,7.11,96.04C322.66,832.38,322.06,800.4,308.33,766.41z"/>
	<path class="st9" d="M340.08,955.81c-2.95,18.59,0.43,38.16,9.43,54.58c1.94,3.54,5.03,7.38,8.96,6.81
		c4.63-0.68,6.16-6.68,6.31-11.46c0.51-16.5-2.84-33.1-9.71-48.02c-2.37-5.15-5.26-10.23-9.66-13.71
		C341,940.53,342.85,938.33,340.08,955.81z"/>
	<path class="st9" d="M477.3,959.45c-0.02,17.14,5.79,34.23,16.21,47.64c2.59,3.34,6.26,6.75,10.36,5.95
		c5.98-1.17,6.92-9.44,6.42-15.65c-0.91-11.39-1.88-23.03-6.45-33.46c-4.56-10.43-13.49-19.58-24.57-21.09
		C477.91,946.64,477.31,950.39,477.3,959.45z"/>
</g>
<g id="Ebene_11">
	<path class="st10" d="M267.65,373.28c-20.98-1.45-42.33,2.79-61.27,12.17c-3.97,1.96-7.97,4.27-10.54,7.93
		c-2.57,3.66-3.3,9.03-0.6,12.59c2.11,2.78,5.69,3.84,9.04,4.64c13.86,3.29,28.12,4.84,42.35,4.6c9.19-0.16,18.69-1.16,26.67-5.83
		s14.06-13.82,12.75-23.11C284.74,376.97,274.09,369.58,267.65,373.28z"/>
	<path class="st10" d="M550.57,356.15c-17.77,0.44-35.45,4.3-51.86,11.31c-5.73,2.45-12.36,7.8-9.99,13.66
		c1.58,3.92,6.34,5.16,10.46,5.74c18.21,2.56,36.81,2.26,54.95-0.9c5.2-0.91,10.49-2.1,14.91-5.04c4.42-2.94,7.84-8,7.53-13.38
		c-0.38-6.68-6.41-11.87-12.79-13.4S550.73,353.93,550.57,356.15z"/>
</g>
<g id="Ebene_6">
</g>
<g id="Ebene_12">
	<g>
		<g id="Ebene_5_1_">
			<g class="st11">
				<path d="M760.3,157.58c-7.9-5.71-9.91-9.8-22.87-15.26c-8.55-3.61-43.21,0.28-52.36,4.92c-3.29,1.67-4.59,0.34-15.37-2.41
					c-6.08-1.55-11.98-4.5-18.17-4.5c-9.14-0.01-16.62,3.29-22.03,9.42c-21.86,24.73-37.05,56.75-45.64,87.82
					c-2.82,10.19-4.45,22.17,3.3,30.96c5,5.67,11.72,11.41,19.51,12.7c16.04,2.67,13.86,11.67,20.73,31.07
					c1.22,3.44,18.57,24.12,15.82,44.47c-2.88,21.34-12.27,44.85-17.95,62.28c-3.99,12.26-10.56,30.33-0.67,40.76
					c6.8,7.17,21.74,6.59,31.53,4.8c9.79-1.79,19.55-6.42,23.98-14.17c19.7-34.46,26.06-53.13,35.23-92.86
					c24.9,3.59,45.11,12.49,67.85,18.87c10.07,2.82,21.99,1.99,31.71-0.42c10.61-2.63,21.24-13.25,23.42-22.82
					c2.19-9.58-4.62-21.29-8.8-26.2c24.28-1.1,29.41-30.28,17.61-48.67c13.95-1.05,17.16-13.36,17.63-24.22s-3.89-16.3-13.68-26.68
					c10.23-0.77,13.94-11.59,9.61-20.19c-4.32-8.6-13.46-15.45-22.41-20.71c-24.16-14.18-47.52-21.35-77.91-30.41"/>
				<g>
					<path d="M761.57,156.54c-3.92-2.85-7.32-6.21-11.28-9.02c-2.17-1.55-4.5-2.92-6.91-4.13c-2.12-1.07-4.34-2.24-6.67-2.82
						c-3.7-0.91-7.61-0.96-11.33-0.93c-4.95,0.04-9.87,0.4-14.73,0.92c-4.92,0.53-9.8,1.24-14.59,2.24
						c-3.58,0.74-7.25,1.58-10.49,3.04c-1.02,0.46-1.83,0.93-3.06,0.85c-1.66-0.1-3.37-0.73-4.97-1.19
						c-3.16-0.91-6.37-1.66-9.51-2.63c-3.56-1.1-7.04-2.44-10.69-3.21c-6.01-1.27-12.48-0.44-17.78,1.74
						c-5.55,2.27-9.49,5.97-13.09,10.2c-8.56,10.04-15.88,20.94-22.18,32.3c-6.37,11.49-11.7,23.48-16.1,35.77
						c-2.17,6.04-4.12,12.17-5.81,18.36c-1.38,5.05-2.43,10.28-2.3,15.59c0.12,5.02,1.42,10.12,4.69,14.53
						c3.82,5.13,9.58,10.18,15.89,12.81c4.63,1.93,10.03,1.72,14.14,4.81c3.13,2.35,4.55,5.79,5.65,9.09
						c1.7,5.08,2.89,10.25,4.55,15.34c0.9,2.74,2.04,4.84,3.64,7.33c4.95,7.67,9.42,15.61,11.78,24.09
						c3.3,11.84,0.38,23.35-2.59,34.55c-3.21,12.09-7.43,23.87-11.49,35.69c-3.19,9.31-6.82,18.75-8.05,28.58
						c-1.06,8.44,0.13,19.44,10.36,24.05c5.59,2.52,12.13,2.77,18.02,2.46c6.16-0.32,12.28-1.38,17.84-3.44
						c5.62-2.08,10.8-5.2,14.46-9.48c2.04-2.39,3.43-5.18,4.94-7.86c1.55-2.76,3.06-5.52,4.55-8.31c5.21-9.77,9.95-19.76,13.9-30.05
						c3.95-10.29,7.09-20.86,9.85-31.52c1.63-6.28,3.13-12.59,4.59-18.92c-0.71,0.5-1.43,0.99-2.14,1.49
						c13.59,1.99,26.78,5.81,39.85,10.06c6.22,2.02,12.41,4.11,18.66,6.06c6.02,1.88,12.04,3.79,18.32,4.32
						c6.01,0.5,12.06,0.1,17.84-0.91c4.93-0.86,9.49-2.15,13.6-4.58c7.76-4.58,14.51-11.93,16.69-20.2
						c2.39-9.09-2.35-19.92-8.83-27.64c-0.54,0.76-1.07,1.53-1.61,2.29c20.51-1.09,27.86-20.83,24.8-36.87
						c-0.92-4.8-2.66-9.51-5.42-13.87c-0.59,0.69-1.18,1.37-1.77,2.06c10-0.87,15.81-7.66,18.01-15.79
						c2.09-7.7,2.61-16.74-1.81-24.37c-2.75-4.75-6.78-8.93-10.64-13.03c-0.54,0.76-1.07,1.53-1.61,2.29
						c7.71-0.71,12.5-6.55,13.14-13.09c0.78-7.95-4.97-15.39-11.39-21c-7.5-6.55-16.74-11.57-25.81-16.09
						c-9.32-4.64-19.01-8.57-28.86-12.05c-12.01-4.25-24.23-7.89-36.43-11.53c-1.36-0.41-3.52,1.95-2.02,2.39
						c19.34,5.77,38.81,11.53,57.22,19.77c8.83,3.95,17.62,8.4,25.59,13.7c7.28,4.84,14.92,11.18,17.83,18.93
						c2.55,6.79,0.26,15.66-8.57,16.47c-0.93,0.08-2.44,1.4-1.61,2.29c5.72,6.08,11.95,12.5,13.18,20.39
						c0.6,3.85,0.33,7.79-0.27,11.54c-0.59,3.72-1.62,7.48-3.81,10.63c-2.53,3.65-6.52,5.62-11.45,6.04
						c-0.79,0.07-2.31,1.21-1.77,2.06c4.5,7.11,6.42,15.23,5.95,23.01c-0.43,7.25-3.1,14.78-9.27,19.46
						c-3.45,2.62-7.86,3.89-12.52,4.14c-1,0.05-2.36,1.4-1.61,2.29c5.52,6.57,9.66,15.54,8.94,23.43
						c-0.75,8.18-7.44,15.71-14.66,20.12c-3.95,2.41-8.36,3.6-13.16,4.39c-5.69,0.94-11.58,1.28-17.48,0.68
						c-5.95-0.61-11.69-2.52-17.4-4.31c-5.9-1.85-11.76-3.82-17.64-5.73c-13.39-4.36-26.9-8.27-40.82-10.31
						c-0.92-0.14-1.98,0.78-2.14,1.49c-5.02,21.73-10.67,43.29-20.01,63.64c-2.35,5.13-4.88,10.19-7.53,15.19
						c-1.41,2.67-2.86,5.33-4.33,7.97c-1.48,2.67-2.82,5.53-4.74,7.96c-7.03,8.85-20.97,12.02-33.17,11.93
						c-5.77-0.04-12.58-0.84-17.16-4.7c-3.73-3.15-5.41-7.69-5.89-11.95c-1.07-9.42,2.23-18.64,5.08-27.32
						c3.53-10.77,7.44-21.42,10.85-32.23c1.89-5.96,3.63-11.98,5.07-18.07c1.32-5.59,2.68-11.35,2.9-17.15
						c0.36-9.46-3.11-19.03-7.84-27.78c-1.77-3.28-3.76-6.47-5.81-9.63c-1.62-2.51-2.68-4.6-3.58-7.38
						c-1.59-4.87-2.75-9.81-4.34-14.69c-1.06-3.25-2.43-6.69-5.24-9.21c-2.97-2.67-6.89-3.68-10.79-4.42
						c-7.42-1.42-13.37-6.37-18.1-11.53c-8.2-8.95-6.84-20.32-4.22-30.16c3.23-12.16,7.5-24.07,12.61-35.6
						c5.17-11.67,11.26-22.98,18.44-33.68c3.56-5.31,7.41-10.47,11.56-15.42c3.55-4.24,7.21-8.16,12.91-10.25
						c6.06-2.23,12.59-2.14,19.09-0.13c6.04,1.86,12.06,3.71,18.17,5.35c3.02,0.81,5.11,0.84,7.77-0.38
						c3.02-1.39,6.44-2.17,9.78-2.87c9.24-1.92,18.95-3.04,28.61-3.13c3.56-0.03,7.42-0.06,10.95,0.85c2.33,0.6,4.57,1.81,6.69,2.9
						c2.41,1.23,4.71,2.62,6.85,4.2c3.66,2.7,6.88,5.82,10.56,8.5C760.25,159.51,762.7,157.37,761.57,156.54L761.57,156.54z"/>
				</g>
			</g>
		</g>
		<g id="Ebene_5_Kopie">
			<g>
				<path class="st12" d="M775.41,156.66c-7.9-5.71-9.91-9.8-22.87-15.26c-8.55-3.61-43.21,0.28-52.36,4.92
					c-3.29,1.67-4.59,0.34-15.37-2.41c-6.08-1.55-11.98-4.5-18.17-4.5c-9.14-0.01-16.62,3.29-22.03,9.42
					c-21.85,24.73-37.05,56.75-45.64,87.82c-2.82,10.19-4.45,22.17,3.3,30.96c5,5.67,11.72,11.41,19.51,12.7
					c16.04,2.67,13.86,11.67,20.73,31.07c1.22,3.44,18.57,24.12,15.82,44.47c-2.88,21.34-12.27,44.85-17.95,62.28
					c-3.99,12.26-10.56,30.33-0.67,40.76c6.8,7.17,21.74,6.59,31.53,4.8c9.79-1.79,19.55-6.42,23.98-14.17
					c19.7-34.46,26.06-53.13,35.23-92.86c24.9,3.59,45.11,12.49,67.85,18.87c10.07,2.82,21.99,1.99,31.71-0.42
					c10.61-2.63,21.24-13.25,23.42-22.82c2.19-9.58-4.62-21.29-8.8-26.2c24.28-1.1,29.53-26.57,17.73-44.96
					c13.95-1.05,17.03-17.07,17.51-27.92c0.47-10.86-3.89-16.3-13.68-26.68c10.23-0.77,13.94-11.59,9.61-20.19
					s-13.46-15.45-22.41-20.71c-24.16-14.18-47.52-21.35-77.91-30.41"/>
				<g>
					<path class="st12" d="M776.67,155.62c-3.92-2.85-7.32-6.21-11.28-9.02c-2.17-1.55-4.5-2.92-6.91-4.13
						c-2.12-1.07-4.34-2.24-6.67-2.82c-3.7-0.91-7.61-0.96-11.33-0.93c-4.95,0.04-9.87,0.4-14.73,0.92
						c-4.92,0.53-9.8,1.24-14.59,2.24c-3.58,0.74-7.25,1.58-10.49,3.04c-1.02,0.46-1.83,0.93-3.06,0.85
						c-1.66-0.1-3.37-0.73-4.97-1.19c-3.16-0.91-6.37-1.66-9.51-2.63c-3.56-1.1-7.04-2.44-10.69-3.21
						c-6.01-1.27-12.48-0.44-17.78,1.74c-5.55,2.27-9.49,5.97-13.09,10.2c-8.56,10.04-15.88,20.94-22.18,32.3
						c-6.37,11.49-11.7,23.48-16.1,35.77c-2.17,6.04-4.12,12.17-5.81,18.36c-1.38,5.05-2.43,10.28-2.3,15.59
						c0.12,5.02,1.42,10.12,4.69,14.53c3.82,5.13,9.58,10.18,15.89,12.81c4.63,1.93,10.03,1.72,14.14,4.81
						c3.13,2.35,4.55,5.79,5.65,9.09c1.7,5.08,2.89,10.25,4.55,15.34c0.9,2.74,2.03,4.84,3.64,7.33
						c4.95,7.67,9.42,15.61,11.78,24.09c3.3,11.84,0.38,23.35-2.59,34.55c-3.21,12.09-7.43,23.87-11.49,35.69
						c-3.19,9.31-6.82,18.75-8.05,28.58c-1.06,8.44,0.13,19.44,10.36,24.05c5.59,2.52,12.13,2.77,18.02,2.46
						c6.16-0.32,12.28-1.38,17.84-3.44c5.62-2.08,10.8-5.2,14.46-9.48c2.04-2.39,3.43-5.18,4.94-7.86c1.55-2.76,3.06-5.52,4.55-8.31
						c5.21-9.77,9.95-19.76,13.9-30.05c3.95-10.29,7.09-20.86,9.85-31.52c1.63-6.28,3.13-12.59,4.59-18.92
						c-0.71,0.5-1.43,0.99-2.14,1.49c13.59,1.99,26.78,5.81,39.85,10.06c6.22,2.02,12.41,4.11,18.66,6.06
						c6.02,1.88,12.04,3.79,18.32,4.32c6.01,0.5,12.06,0.1,17.84-0.91c4.93-0.86,9.49-2.15,13.6-4.58
						c7.76-4.58,14.51-11.93,16.69-20.2c2.39-9.09-2.35-19.92-8.83-27.64c-0.54,0.76-1.07,1.53-1.61,2.29
						c8.97-0.47,16.63-4.48,21.1-11.09c4.39-6.5,5.36-14.72,3.83-22.46c-0.92-4.68-2.73-9.23-5.42-13.47
						c-0.59,0.69-1.18,1.37-1.77,2.06c10.26-0.9,15.39-9.21,17.55-17.23c2.14-7.93,3.3-17.54-0.88-25.56
						c-2.71-5.19-7.09-9.71-11.23-14.11c-0.54,0.76-1.07,1.53-1.61,2.29c7.71-0.71,12.5-6.55,13.14-13.09
						c0.78-7.95-4.97-15.39-11.39-21c-7.5-6.55-16.74-11.57-25.81-16.09c-9.32-4.64-19.01-8.57-28.86-12.05
						c-12.01-4.25-24.23-7.89-36.43-11.53c-1.36-0.41-3.52,1.95-2.02,2.39c19.34,5.77,38.81,11.53,57.22,19.77
						c8.83,3.95,17.62,8.4,25.59,13.7c7.28,4.84,14.92,11.18,17.83,18.93c2.55,6.79,0.26,15.66-8.57,16.47
						c-0.93,0.08-2.44,1.4-1.61,2.29c6.37,6.77,12.79,13.66,13.42,22.5c0.29,4.04-0.14,8.15-0.87,12.06
						c-0.72,3.87-1.85,7.73-3.96,11.11c-2.3,3.7-5.85,6.21-10.81,6.65c-0.79,0.07-2.31,1.21-1.77,2.06
						c7.65,12.08,9.55,30.66-3.31,39.16c-3.62,2.39-8.03,3.5-12.65,3.74c-1,0.05-2.36,1.4-1.61,2.29
						c5.52,6.58,9.66,15.54,8.94,23.43c-0.75,8.18-7.44,15.71-14.66,20.12c-3.95,2.41-8.36,3.6-13.16,4.39
						c-5.69,0.94-11.58,1.28-17.48,0.68c-5.95-0.61-11.69-2.52-17.4-4.31c-5.9-1.85-11.76-3.82-17.64-5.73
						c-13.39-4.36-26.9-8.27-40.82-10.31c-0.92-0.14-1.98,0.78-2.14,1.49c-5.02,21.73-10.67,43.29-20.01,63.64
						c-2.35,5.13-4.88,10.19-7.53,15.19c-1.41,2.67-2.86,5.33-4.33,7.97c-1.48,2.67-2.82,5.53-4.74,7.96
						c-7.03,8.85-20.97,12.02-33.17,11.93c-5.77-0.04-12.58-0.84-17.16-4.7c-3.73-3.15-5.41-7.69-5.89-11.95
						c-1.07-9.42,2.23-18.64,5.08-27.32c3.53-10.77,7.44-21.42,10.85-32.23c1.89-5.96,3.63-11.98,5.07-18.07
						c1.32-5.59,2.68-11.35,2.9-17.15c0.36-9.46-3.11-19.03-7.84-27.78c-1.77-3.28-3.76-6.47-5.81-9.63
						c-1.62-2.51-2.68-4.6-3.58-7.38c-1.59-4.87-2.75-9.81-4.34-14.69c-1.06-3.25-2.43-6.69-5.24-9.21
						c-2.97-2.67-6.89-3.68-10.79-4.42c-7.42-1.42-13.37-6.37-18.1-11.53c-8.2-8.95-6.84-20.32-4.23-30.16
						c3.23-12.16,7.5-24.07,12.61-35.6c5.17-11.67,11.26-22.98,18.44-33.68c3.56-5.31,7.41-10.47,11.56-15.42
						c3.55-4.24,7.21-8.16,12.91-10.25c6.06-2.23,12.59-2.14,19.09-0.13c6.04,1.86,12.06,3.71,18.17,5.35
						c3.02,0.81,5.11,0.84,7.77-0.38c3.02-1.39,6.44-2.17,9.78-2.87c9.24-1.92,18.95-3.04,28.61-3.13
						c3.56-0.03,7.42-0.06,10.95,0.85c2.33,0.6,4.57,1.81,6.69,2.9c2.41,1.23,4.71,2.62,6.85,4.2c3.66,2.7,6.88,5.82,10.56,8.5
						C775.36,158.59,777.81,156.45,776.67,155.62L776.67,155.62z"/>
				</g>
			</g>
		</g>
		<g id="Ebene_2_1_">
			<g>
				<g>
					<path d="M655.92,231.04c-9.82,7.69-16.82,17.91-20.57,29.19c-3.73,11.21-4.22,23.47-1.18,35.33
						c1.55,6.05,4.11,11.84,7.38,17.44c3.48,5.97,7.5,11.72,10.66,17.81c3.3,6.39,5.21,12.94,5.1,19.76
						c-0.12,7.16-2.03,14.06-4.09,20.82c-4.6,15.12-9.34,30.19-14.01,45.29c-2.17,7-4.7,13.97-6.35,21.12
						c-1.36,5.86-1.76,12.45,2.02,18.1c6.87,10.29,22.45,12.65,33.79,10.01c14.19-3.29,25.01-12.51,32.42-23.17
						c4.28-6.16,7.57-12.84,10.52-19.63c3.09-7.14,5.92-14.38,8.48-21.71c5.16-14.73,9.25-29.83,12.24-45.17
						c0.74-3.78,1.4-7.58,2.01-11.39c0.29-1.85-2.69-0.75-2.88,0.45c-2.4,15.09-5.83,29.98-10.3,44.55
						c-2.24,7.29-4.73,14.5-7.48,21.61c-2.67,6.91-5.49,13.8-8.88,20.43c-5.92,11.58-14.22,22.75-27.27,28.71
						c-10.53,4.81-25.46,5.93-35.76-2.11c-5.24-4.09-7.2-9.79-6.88-15.53c0.38-6.73,3.03-13.21,4.99-19.56
						c4.57-14.78,9.15-29.56,13.72-44.33c4-12.92,9.25-26.62,5.26-40.62c-3.55-12.46-13.26-22.98-18.52-34.93
						c-4.91-11.18-6.29-23.27-4.37-34.64c1.92-11.34,7.02-22.04,15.14-30.63c1.95-2.07,4.09-3.98,6.37-5.76
						c0.45-0.35,1.07-1.23,0.49-1.77C657.36,230.17,656.35,230.7,655.92,231.04L655.92,231.04z"/>
				</g>
			</g>
			<g>
				<g>
					<path d="M787.99,333.74c-14.57-5.54-29.22-10.9-43.65-16.79c-7.16-2.93-14.27-5.98-21.24-9.29c-5.48-2.6-10.97-5.57-15.14-9.78
						c-4.14-4.17-6.24-9.52-4.58-14.64c1.62-4.98,6.29-8.81,11.5-10.89c12.31-4.92,27.56-1.82,40.47,2.07
						c15.54,4.68,30.64,10.96,44.88,18.51c12.64,6.7,25.23,14.34,35.38,23.98c9.43,8.97,16.54,20.18,16.56,32.19
						c0.01,6.09-1.8,12.15-5.81,16.88c-3.58,4.21-8.76,7.06-14.45,8.74c-13.46,3.98-28.43,1.25-42.11-3.06
						c-7.69-2.42-15.14-5.51-22.83-7.91c-7.15-2.23-14.47-3.85-21.79-5.4c-3.94-0.83-7.89-1.65-11.83-2.51
						c-0.84-0.18-1.62,0.21-2.09,0.78c-0.26,0.31-0.78,1.43,0.07,1.62c8.02,1.76,16.09,3.29,24.06,5.26
						c7.92,1.96,15.47,4.7,23.14,7.43c14.69,5.23,30.35,9.82,45.74,7.74c6.41-0.87,12.65-2.86,17.75-6.2
						c5.48-3.59,9.43-8.55,11.48-14.4c4.13-11.81,0.06-24.87-8.22-35.46c-8.38-10.7-20.32-18.93-32.4-26.12
						c-14.58-8.67-30.17-15.9-46.36-21.51c-13.85-4.79-29.16-9.3-43.58-7.06c-6.63,1.03-12.78,3.59-17.25,7.89
						c-4.17,4.02-6.79,9.41-5.5,15.22c1.22,5.46,5.68,9.94,10.66,13.31c5.67,3.84,12.14,6.65,18.46,9.45
						c15.04,6.66,30.48,12.46,45.9,18.26c3.59,1.35,7.19,2.7,10.78,4.07C787.29,336.64,789.5,334.31,787.99,333.74L787.99,333.74z"
						/>
				</g>
			</g>
			<g>
				<g>
					<path d="M729.35,267.63c-6.31-5.25-12.53-11.83-14.02-19.41c-0.99-4.99,0.5-9.77,3.91-13.36c2.72-2.86,6.87-5.13,11.39-5.83
						c3.97-0.62,8.16-0.49,12.23-0.19c4.85,0.36,9.69,1.08,14.49,2c21.14,4.06,41.38,12.67,60.22,22.62
						c9.67,5.11,18.77,10.89,27.88,16.76c7.2,4.64,14.96,9.63,19.38,16.63c4.38,6.95,4.77,15.1,2.41,22.19
						c-2.15,6.49-6.9,12.52-14.05,15.19c-1.81,0.68-3.7,1.11-5.68,1.34c-0.8,0.09-1.62,0.78-1.79,1.48
						c-0.16,0.67,0.32,1.11,1.09,1.02c18-2.09,27.6-20.02,24.08-35.19c-1.92-8.26-8.38-14.7-15.78-19.97
						c-3.97-2.82-8.14-5.4-12.24-8.06c-4.77-3.11-9.6-6.14-14.56-8.99c-10.67-6.12-21.79-11.59-33.23-16.33
						c-9.83-4.07-19.84-7.56-30.23-9.94c-9.66-2.21-19.77-3.94-29.54-3.45c-5.94,0.3-11.19,2.06-15.54,5.4
						c-4.39,3.37-7.34,8.14-7.69,13.48c-0.46,6.94,3.67,13.69,8.77,19.12c1.85,1.96,3.86,3.8,5.97,5.55
						C727.95,270.65,730.45,268.54,729.35,267.63L729.35,267.63z"/>
				</g>
			</g>
			<g>
				<g>
					<path d="M744.43,226.51c-3.9-3.56-7-7.98-9.4-12.37c-2.96-5.42-5.21-11.76-3.65-17.49c1.82-6.68,8.96-10.05,16.34-10.86
						c9.66-1.05,19.78,1.94,29.23,4.37c20.36,5.26,40.58,11.6,59.64,20.41c16.93,7.83,34.62,17.96,41.75,34.44
						c1.53,3.54,2.42,7.26,2.11,10.93c-0.23,2.78-0.99,5.55-1.94,8.15c-2,5.5-5.48,10.85-11.07,13.91c-1.46,0.8-3.06,1.43-4.74,1.86
						c-0.8,0.2-1.61,0.71-1.79,1.48c-0.14,0.59,0.32,1.22,1.09,1.02c7.57-1.92,13.12-6.79,16.64-12.82c1.6-2.73,2.79-5.67,3.63-8.69
						c0.85-3.08,1.42-6.28,1.08-9.54c-0.85-8.01-5.87-15.73-11.82-22.01c-6.7-7.07-15.45-12.37-24.35-16.95
						c-19.81-10.18-41.18-17.35-62.75-23.15c-5.36-1.44-10.74-2.86-16.15-4.08c-5.18-1.17-10.45-2.1-15.71-2.07
						c-8.49,0.05-17.2,2.8-21.71,9.12c-7.41,10.38,0.46,24.92,8.83,34.17c0.7,0.77,1.43,1.53,2.21,2.24
						C742.98,229.57,745.5,227.49,744.43,226.51L744.43,226.51z"/>
				</g>
			</g>
			<g>
				<g>
					<path d="M752.88,182.34c-4.97-7.59-3.38-17.43,3.29-22.97c9.01-7.47,23.6-3.03,34.53,0.26c14.54,4.39,28.75,9.9,42.38,16.44
						c6.6,3.17,13.1,6.56,19.39,10.22c5.37,3.12,10.61,6.57,14.93,10.84c4.56,4.51,7.85,9.88,8.32,15.77
						c0.42,5.22-1.27,10.69-6.3,13.46c-0.57,0.31-1.33,1.1-1.01,1.79c0.33,0.71,1.35,0.43,1.83,0.16
						c10.33-5.68,10.54-18.83,4.12-28.02c-3.58-5.14-8.68-9.3-14.15-12.88c-6.19-4.04-12.81-7.58-19.45-10.94
						c-14.45-7.32-29.58-13.47-45.13-18.33c-12.22-3.83-27.65-8.85-38.67-1.9c-8.21,5.18-12.31,15.41-8.62,24.52
						c0.45,1.11,1.02,2.17,1.69,3.2C750.89,185.28,753.59,183.42,752.88,182.34L752.88,182.34z"/>
				</g>
			</g>
			<g>
				<g>
					<path d="M779,153.8c-9.08-8.99-22.75-13.85-35.55-15.73c-13.35-1.97-26.82-0.12-38.46,4.82c-6.76,2.87-12.9,6.72-18.06,11.45
						c-0.42,0.38-1.09,1.2-0.49,1.77c0.57,0.53,1.63,0.05,2.04-0.32c8.65-7.92,20.13-13.23,32.73-15.17
						c12.38-1.92,25.64-0.26,37.66,4.41c6.55,2.55,12.76,6.07,17.61,10.86C777.48,156.88,780.03,154.82,779,153.8L779,153.8z"/>
				</g>
			</g>
			<g>
				<g>
					<path d="M699.81,144.89c-11-4.56-23.07-9.27-35.05-8.33c-3.77,0.3-7.62,1.17-10.74,2.93c-1.82,1.02-3.46,2.29-5,3.61
						c-4.24,3.63-7.9,7.8-11.33,12.05c-4.51,5.59-8.61,11.44-12.46,17.43c-8.65,13.44-16.08,27.63-21.79,42.41
						c-2.69,6.96-4.98,14.07-6.51,21.38c-1.31,6.27-2.14,12.76-1.61,19.27c0.45,5.4,1.63,11.64,6.39,15.75
						c3.48,3.01,7.86,5.21,12.12,7.16c4.45,2.04,9.03,3.79,13.59,5.58c1.83,0.72,3.66,1.44,5.46,2.22c1.29,0.56,3.52-1.74,2.02-2.39
						c-8.44-3.68-17.34-6.42-25.34-10.98c-3.31-1.89-6.94-4.3-8.53-7.57c-1.1-2.27-1.82-4.67-2.25-7.06
						c-1.07-5.9-0.73-11.88,0.16-17.64c1.08-7.01,3-13.85,5.32-20.53c5.07-14.63,12.09-28.63,20.19-41.96
						c6.64-10.93,13.99-21.85,23.31-31.08c0.37-0.36-0.23,0.22,0.14-0.13c0.11-0.11,0.22-0.21,0.33-0.32
						c0.18-0.17,0.36-0.35,0.54-0.52c0.45-0.43,0.92-0.85,1.39-1.26c0.76-0.66,1.53-1.3,2.34-1.91c0.19-0.15,0.39-0.29,0.59-0.43
						c0.09-0.07,0.19-0.14,0.29-0.2c-0.39,0.27-0.06,0.04,0.02-0.01c0.36-0.24,0.73-0.48,1.11-0.7c0.32-0.19,0.64-0.37,0.97-0.54
						c0.12-0.06,0.72-0.33,0.22-0.11c0.19-0.08,0.38-0.17,0.57-0.24c10.37-4.1,23-0.58,33.48,3.32c2.71,1.01,5.39,2.1,8.06,3.2
						C699.09,147.82,701.31,145.51,699.81,144.89L699.81,144.89z"/>
				</g>
			</g>
		</g>
		<g id="Ebene_7_1_">
			<g class="st11">
				<path d="M658.48,232.6c-10.52,8.03-26.07,34.91-24.66,47.71c1.41,12.81,6.34,30.72,15.1,41.53c9.59,11.82,10.58,20.8,9.3,33.42
					c-3.65,35.92-27.11,77.3-22.9,98.17c0.73,3.63,6.16,6.11,8.93,9c2.77,2.89,27.37,5.44,25.66,2.02
					c-16.86-33.86-7.23-67.55,0.24-99.62c9.48-40.7-31.6-80.07-11.37-133.51"/>
				<g>
					<path d="M657.7,231.87c-5.97,4.6-10.31,10.98-14.1,17.1c-4.31,6.95-8.06,14.41-10.16,22.26c-0.81,3.03-1.43,6.23-1.13,9.43
						c0.43,4.57,1.34,9.16,2.46,13.69c2.36,9.57,5.88,19.54,12.36,27.88c3.09,3.98,5.94,7.98,7.72,12.51
						c1.59,4.03,2.25,8.18,2.33,12.33c0.18,9.6-1.75,19.13-4.04,28.3c-4.72,18.86-12.3,36.87-17.12,55.69
						c-1.73,6.75-3.34,13.94-2.47,21.07c0.21,1.74,0.56,3.31,1.78,4.82c1.42,1.75,3.45,3.06,5.27,4.47
						c1.18,0.91,2.17,2.12,3.53,2.82c1.05,0.54,2.25,0.86,3.4,1.15c3.41,0.86,6.92,1.36,10.4,1.68c3.14,0.29,6.47,0.54,9.53,0.08
						c1.11-0.17,2.23-0.48,3.05-1.15c1.12-0.93,1.07-1.84,0.47-3.09c-2.44-5.02-4.38-10.19-5.8-15.44
						c-5.52-20.39-2.88-40.99,1.3-60.66c1.03-4.85,2.16-9.67,3.3-14.5c1-4.24,2.16-8.47,2.75-12.81c0.95-7,0.57-14.16-0.65-21.28
						c-2.57-14.95-8.33-29.51-12.36-44.27c-4.5-16.49-6.56-33.28-3.19-49.53c0.94-4.54,2.26-8.98,3.89-13.32
						c0.25-0.66-0.4-1.1-1.09-1.02c-0.86,0.09-1.53,0.8-1.79,1.48c-6.07,16.14-7.04,33.41-3.77,50.78
						c2.84,15.05,8.43,29.69,12.5,44.58c1.9,6.93,3.41,13.94,3.88,20.97c0.24,3.51,0.21,7.01-0.13,10.47
						c-0.39,3.95-1.36,7.77-2.26,11.61c-4.53,19.18-9.29,38.64-8.37,58.73c0.46,10.07,2.43,20.22,6.33,29.96
						c0.49,1.23,1.02,2.46,1.57,3.68c0.28,0.62,0.57,1.23,0.86,1.84c0.12,0.26,0.36,1.13,0.6,1.24c-0.15-0.08,0.09-0.5,0.23-0.69
						c0.14-0.18,0.29-0.35,0.5-0.35c-0.55,0-0.5,0.19-1.13,0.28c-2.92,0.44-6.1,0.15-9.08-0.14c-3.34-0.32-6.75-0.78-10.02-1.66
						c-1.04-0.28-2.19-0.58-3.12-1.14c-0.21-0.12-0.73-0.65-1.06-0.96c-0.88-0.81-1.86-1.53-2.83-2.25
						c-1.68-1.26-3.66-2.61-4.7-4.37c-0.8-1.36-0.86-3.01-0.97-4.47c-0.23-3.29,0.05-6.57,0.56-9.78
						c1.29-8.21,3.79-16.18,6.34-24.06c3.01-9.3,6.24-18.52,9.09-27.87c2.88-9.43,5.42-19,6.8-28.8c1.17-8.33,1.88-17.08-1.24-25.47
						c-1.62-4.36-4.21-8.44-7.22-12.24c-3.16-3.99-5.65-8.21-7.65-12.68c-4.11-9.18-6.59-18.92-7.7-28.52
						c-0.79-6.84,2-13.71,4.77-19.74c3.35-7.31,7.55-14.38,12.74-20.71c1.9-2.32,3.95-4.58,6.4-6.47c0.45-0.35,1.06-1.23,0.49-1.77
						C659.14,231,658.14,231.54,657.7,231.87L657.7,231.87z"/>
				</g>
			</g>
			<g class="st11">
				<path d="M656.3,139.58c-31.12,24.33-49.27,61.49-57.66,98.31c-1.66,7.31-1.38,16.74,0.59,24.26
					c1.97,7.52,19.34,16.23,27.66,20.19C621.43,231.6,626.87,179.75,656.3,139.58"/>
				<g>
					<path d="M655.52,138.85c-9.92,7.78-18.54,16.8-25.88,26.59c-7.48,9.98-13.69,20.72-18.79,31.91
						c-5.07,11.11-9.08,22.66-12.13,34.46c-1.52,5.89-2.73,11.74-2.65,17.92c0.04,3.07,0.31,6.15,0.86,9.21
						c0.39,2.2,0.73,4.49,2.04,6.5c2.47,3.79,6.62,6.71,10.58,9.24c4.33,2.77,8.9,5.2,13.54,7.48c0.93,0.46,1.86,0.9,2.79,1.35
						c1.04,0.5,2.59-0.86,2.49-1.73c-2.1-19.65-2.61-39.36-0.67-58.75c1.9-19.04,6.2-37.84,13.85-55.35
						c4.24-9.71,9.5-19.03,15.83-27.7c0.33-0.45,0.72-1.26-0.07-1.62c-0.72-0.33-1.75,0.31-2.09,0.78
						c-11.49,15.73-19.52,33.37-24.53,51.88c-5.08,18.78-7.15,38.35-7.16,57.99c-0.01,11.25,0.67,22.55,1.88,33.84
						c0.83-0.58,1.66-1.16,2.49-1.73c-4.23-2.01-8.41-4.12-12.44-6.46c-4.29-2.49-8.67-5.28-11.99-8.8c-1.25-1.33-2.32-2.8-2.8-4.45
						c-0.83-2.86-1.21-5.83-1.45-8.73c-0.5-6.09,0.08-11.93,1.49-17.76c2.78-11.54,6.45-22.87,11.15-33.79
						c4.72-10.94,10.44-21.54,17.41-31.39c6.86-9.71,14.89-18.74,24.26-26.6c1.16-0.97,2.34-1.93,3.53-2.86
						c0.45-0.35,1.07-1.23,0.49-1.77C656.97,137.98,655.96,138.51,655.52,138.85L655.52,138.85z"/>
				</g>
			</g>
			<g class="st11">
				<path d="M755.21,143.08c-11.98-1.76-24.04-0.35-35.29,2.55c-11.26,2.89-21.84,7.23-32.43,11.45
					c14.04-16.12,40.91-22.23,63.94-14.55"/>
				<g>
					<path d="M755.91,141.81c-18.99-2.72-37.25,2.2-53.88,8.41c-4.9,1.83-9.73,3.78-14.58,5.71c0.37,0.52,0.74,1.05,1.11,1.57
						c10.62-12.1,28.66-18.16,46.61-16.81c5.16,0.39,10.28,1.4,15.23,3.04c1.35,0.45,3.53-1.9,2.02-2.39
						c-18.58-6.14-39.41-3.61-54.57,5.73c-4.35,2.68-8.21,5.9-11.46,9.6c-0.71,0.81-0.24,2.11,1.11,1.57
						c16.38-6.53,33.07-13.46,51.71-14.53c5.06-0.29,10.2-0.08,15.29,0.65C755.86,144.53,757.77,142.08,755.91,141.81L755.91,141.81
						z"/>
				</g>
			</g>
			<g class="st11">
				<path d="M760.3,157.58c7.45,17.74,80.95,39.49,107.56,67.32c-27.14-13.37-67.9-30.59-97.46-37.64
					c-4.72-1.13-18.53-2.94-18.53-2.94s-3.15-7.58-3.66-11.81c-0.83-6.95,6.01-11.98,12.15-16.4"/>
				<g>
					<path d="M758.88,158.39c1.96,4.59,6.86,8.16,11.19,11.06c6.65,4.46,13.86,8.21,21.05,11.86c17.55,8.91,35.63,17.05,52.42,27.19
						c8.32,5.02,16.5,10.6,23.06,17.44c0.76-0.75,1.52-1.49,2.27-2.24c-16.1-7.92-32.58-15.19-49.34-21.79
						c-8.78-3.46-17.65-6.72-26.62-9.67c-7.6-2.49-15.38-4.99-23.22-6.56c-5.66-1.14-11.41-1.88-17.12-2.63
						c0.24,0.15,0.48,0.3,0.72,0.45c-1.52-3.67-3.1-7.59-3.59-11.42c-0.87-6.92,6.24-11.52,11.43-15.26
						c0.46-0.33,1.05-1.24,0.49-1.77c-0.61-0.57-1.59,0-2.04,0.32c-5.76,4.14-13.12,9.3-12.92,16.77c0.07,2.7,1.05,5.51,1.96,8.13
						c0.56,1.63,1.16,3.24,1.82,4.85c0.12,0.28,0.42,0.41,0.72,0.45c5.01,0.66,10.03,1.36,15.02,2.24
						c7.43,1.31,14.79,3.64,21.97,5.94c17.85,5.7,35.3,12.65,52.41,20.15c8.85,3.88,17.62,7.93,26.28,12.19
						c1.14,0.56,3.2-1.28,2.27-2.24c-5.77-6.01-12.82-11.03-20.05-15.58c-8.26-5.2-16.93-9.84-25.68-14.3
						c-8.75-4.46-17.61-8.71-26.39-13.1c-7.48-3.74-15.01-7.53-22.04-11.96c-3.02-1.9-5.99-3.94-8.6-6.29
						c-1.92-1.73-3.69-3.62-4.64-5.86C761.15,155.42,758.37,157.2,758.88,158.39L758.88,158.39z"/>
				</g>
			</g>
			<g class="st11">
				<path d="M742.52,185.63c-8.61,2.84-14.18,13.9-11.76,20.73c2.42,6.83,7.6,21.73,15.48,21.46c7.51-0.26,19.63,4.38,27.54,5.58
					c35.12,5.32,59.32,29.25,91.12,46.94c-0.4-12.45-25.76-35.91-38.49-41.91c-30.4-14.35-64.56-27.45-82.84-53.08"/>
				<g>
					<path d="M742.49,184.48c-5.13,1.75-8.96,5.64-11.29,9.92c-2.08,3.81-3.33,8.48-1.83,12.87c1.54,4.5,3.24,9.04,5.66,13.3
						c1.93,3.4,4.93,7.98,9.65,8.48c1.21,0.13,2.43,0.01,3.65,0.12c1.48,0.13,2.96,0.37,4.43,0.66c3.21,0.62,6.37,1.49,9.53,2.32
						c2.98,0.79,5.97,1.59,8.99,2.18c3.47,0.68,6.94,1.17,10.39,2.04c14.2,3.56,27.21,10.36,39.39,17.97
						c12.69,7.92,24.77,16.62,37.7,24.24c1.7,1,3.41,1.98,5.13,2.94c1.04,0.58,2.53-0.92,2.49-1.73c-0.13-3.26-1.61-6.49-3.34-9.44
						c-2.23-3.79-5.04-7.36-8.05-10.74c-6.11-6.87-13.22-13.33-21.11-18.62c-3.57-2.4-7.36-4.21-11.3-6.04
						c-5.61-2.6-11.25-5.16-16.86-7.78c-11.05-5.16-22.06-10.56-32.27-17.06c-11.13-7.09-21.25-15.56-28.61-25.82
						c-0.76-1.06-3.37,0.9-2.53,2.08c13.27,18.51,34.88,30.55,56.12,40.71c5.48,2.62,11.01,5.15,16.53,7.68
						c4.58,2.1,9.37,4.03,13.68,6.58c7.84,4.65,14.8,10.86,20.91,17.2c3.59,3.72,6.99,7.67,9.71,11.9
						c2.05,3.19,4.01,6.79,4.16,10.41c0.83-0.58,1.66-1.16,2.49-1.73c-12.88-7.18-24.82-15.61-37.11-23.56
						c-11.6-7.5-23.69-14.65-37.01-19.2c-3.39-1.16-6.84-2.14-10.33-2.93c-3.18-0.72-6.38-1.13-9.57-1.8
						c-6.07-1.28-11.98-3.26-18.08-4.41c-1.41-0.27-2.82-0.49-4.24-0.61c-1.17-0.1-2.33,0.01-3.49-0.11
						c-1.93-0.21-3.55-1.51-4.78-2.8c-3.46-3.61-5.39-8.35-7.09-12.68c-0.77-1.95-1.56-3.93-2.16-5.91
						c-0.58-1.95-0.44-4.01-0.01-5.9c0.98-4.24,3.54-8.43,7.44-10.96c0.95-0.62,1.97-1.11,3.08-1.49c0.7-0.24,1.51-0.95,1.45-1.68
						C743.94,184.35,743.11,184.27,742.49,184.48L742.49,184.48z"/>
				</g>
			</g>
			<g class="st11">
				<path d="M740.78,227.42c-17.66-2.95-25.68,8.73-25.63,19.46c0.03,6.86,6.76,17.25,13.52,21.15c4.8,2.77,11.55,1.76,17.07,2.44
					c34.32,4.19,77.42,31.81,101.12,55.43c3.61,3.6-8.36-23.37-25.87-35.61c-22.14-15.48-76.34-20.33-78.83-59.37"/>
				<g>
					<path d="M741.48,226.15c-6.22-1.01-12.57-0.34-17.61,2.67c-4.4,2.64-7.42,6.67-8.99,11.19c-1.68,4.86-1.54,9.95,0.69,14.94
						c1.36,3.05,3.25,5.99,5.52,8.63c2.03,2.37,4.55,4.78,7.58,6.15c3.63,1.64,7.81,1.59,11.65,1.7c3.59,0.1,7.12,0.54,10.69,1.23
						c6.93,1.33,13.74,3.45,20.33,5.97c14.49,5.53,28.18,13.04,40.91,21.49c6.26,4.15,12.3,8.57,18.1,13.23
						c2.75,2.22,5.45,4.49,8.07,6.83c2.46,2.19,4.7,4.6,7.18,6.75c1.25,1.08,2.99,0.23,3.33-1.08c0.24-0.91-0.29-2.03-0.63-2.91
						c-1.57-4-3.83-7.88-6.19-11.61c-6.06-9.56-13.77-18.98-24.45-24.95c-8.47-4.73-17.87-7.94-26.92-11.5
						c-9.77-3.85-19.67-7.96-28.2-13.9c-8.57-5.95-15.06-13.71-17.63-22.94c-0.7-2.54-1.09-5.1-1.26-7.67
						c-0.11-1.62-3.04-0.13-2.96,1.07c0.63,9.45,4.61,18.5,12.17,25.8c7.05,6.81,16.2,11.66,25.38,15.7
						c9.18,4.05,18.71,7.32,27.93,11.27c3.95,1.69,7.89,3.51,11.52,5.76c4.99,3.08,9.23,7.11,12.94,11.36
						c3.93,4.49,7.33,9.31,10.29,14.31c1.89,3.19,3.86,6.56,4.94,10c0.06,0.2,0.13,0.4,0.17,0.61c-0.09-0.39,0.03,0.26,0.01,0.26
						c-0.31-0.13,2.22-1.65,2.2-1.52c0.01-0.06,0.24,0.26,0.07,0.03c-0.06-0.09-0.2-0.19-0.28-0.27c-2.31-2.19-4.56-4.41-6.95-6.53
						c-5.13-4.58-10.53-8.92-16.13-13.05c-11.88-8.77-24.67-16.67-38.21-23.15c-12.41-5.94-25.77-10.9-39.49-12.71
						c-3.88-0.51-7.74-0.26-11.61-0.71c-3.62-0.42-6.49-1.79-9.12-4.13c-4.82-4.28-8.83-10.45-9.72-16.3
						c-1.33-8.73,4.29-18,14.17-19.64c2.98-0.49,6.07-0.34,9.13,0.15C741.42,228.9,743.34,226.45,741.48,226.15L741.48,226.15z"/>
				</g>
			</g>
			<g class="st11">
				<path d="M715.91,270.81c-9.42,3.22-16.8,16.1-12.91,23.19c2.19,4.01,9.81,10.23,14.23,12.4c26.34,12.96,42.08,15.06,68.41,28.02
					c-15.92-9.03-53.98-27.41-68.52-62.46"/>
				<g>
					<path d="M715.88,269.66c-6.63,2.33-11.51,7.9-13.93,13.7c-1.11,2.65-1.84,5.63-1.32,8.57c0.52,2.96,2.52,5.38,4.8,7.62
						c2.72,2.69,5.84,5.16,9.22,7.18c1.98,1.18,4.14,2.12,6.24,3.1c2.38,1.11,4.79,2.18,7.21,3.22c8.46,3.62,17.14,6.68,25.81,9.8
						c10.48,3.77,20.78,7.88,30.74,12.77c1.24,0.61,3.47-1.58,2.02-2.39c-8.7-4.93-17.51-9.62-25.8-15.13
						c-11.22-7.46-21.59-16.1-29.79-26.19c-5.22-6.44-9.45-13.42-12.51-20.75c-0.56-1.35-3.35,0.43-2.85,1.63
						c5.33,12.77,14.25,24.3,25.22,34.09c9.15,8.17,19.58,15.09,30.42,21.33c4.39,2.53,8.88,4.92,13.29,7.42
						c0.67-0.8,1.35-1.6,2.02-2.39c-8.56-4.2-17.38-7.87-26.36-11.18c-8.05-2.96-16.17-5.72-24.14-8.89
						c-4.47-1.78-8.89-3.68-13.25-5.71c-3.79-1.77-7.26-3.55-10.51-6.08c-2.8-2.18-5.78-4.7-7.62-7.58
						c-1.44-2.25-1.59-4.8-1.11-7.17c1.2-6.04,5.77-12.36,12.28-14.65c0.7-0.25,1.51-0.95,1.45-1.68
						C717.33,269.53,716.49,269.45,715.88,269.66L715.88,269.66z"/>
				</g>
			</g>
			<g class="st11">
				<path d="M734.68,347.52c-2.41,1.44-1.95,4.99,0.12,7.08c2.07,2.09,5.16,3.07,8.09,3.96c18.22,5.53,36.44,11.06,54.66,16.59
					c7.08,2.15,14.31,4.32,21.61,4.4c7.3,0.08,14.81-2.31,18.44-7.63c-34.71-5.19-69.08-13.75-102.27-25.48"/>
				<g>
					<path d="M734.26,346.54c-2.57,1.68-3.45,4.63-1.96,7.42c1.6,3.01,5.31,4.47,8.61,5.5c8.79,2.75,17.62,5.35,26.43,8.03
						c8.88,2.69,17.76,5.39,26.63,8.08c8.17,2.48,16.64,5.33,25.18,5.24c7.69-0.08,15.5-2.75,19.52-8.48
						c0.38-0.54,0.74-1.52-0.38-1.68c-26.95-4.04-53.67-10.1-79.82-18.11c-7.43-2.28-14.81-4.72-22.14-7.3
						c-1.34-0.47-3.53,1.86-2.02,2.39c25.97,9.17,52.65,16.4,79.66,21.62c7.62,1.47,15.26,2.78,22.92,3.93
						c-0.13-0.56-0.25-1.12-0.38-1.68c-3.11,4.44-8.96,6.46-14.89,6.76c-7.62,0.38-15.32-1.95-22.63-4.17
						c-16.05-4.86-32.1-9.74-48.14-14.61c-2.32-0.7-4.63-1.4-6.95-2.11c-1.85-0.57-3.73-1.14-5.43-2.05
						c-1.56-0.83-2.94-1.99-3.57-3.52c-0.37-0.89-0.78-2.67,0.19-3.31c0.54-0.36,1.35-1.07,1.01-1.79
						C735.78,346.02,734.73,346.24,734.26,346.54L734.26,346.54z"/>
				</g>
			</g>
			<g class="st11">
				<g>
					<path d="M614.67,280.33c1.36,0.41,3.52-1.95,2.02-2.39C615.33,277.53,613.17,279.89,614.67,280.33L614.67,280.33z"/>
				</g>
			</g>
		</g>
		<g id="Ebene_8_1_">
			<g class="st11">
				<g>
					<path class="st13" d="M818.03,180.7c-1.72-0.43-0.1-0.02,0.27,0.08c0.48,0.13,0.95,0.26,1.42,0.4
						c0.81,0.24,1.62,0.48,2.43,0.74c0.4,0.13,0.8,0.28,1.2,0.4c-1.61-0.49-0.31-0.1,0.07,0.03c0.86,0.31,1.72,0.64,2.57,0.98
						c0.84,0.33,1.72,0.65,2.53,1.06c-1.31-0.65-0.02,0,0.2,0.1c0.38,0.18,0.76,0.35,1.14,0.54c1.65,0.79,3.26,1.63,4.85,2.51
						c1.22,0.67-0.84-0.5,0.36,0.2c0.36,0.21,0.72,0.42,1.08,0.64c0.78,0.47,1.54,0.95,2.3,1.44c1.46,0.95,2.88,1.94,4.27,2.97
						c0.33,0.25,0.66,0.5,0.99,0.75c-0.43-0.33,0.55,0.43,0.66,0.52c0.7,0.56,1.38,1.13,2.06,1.71c1.35,1.16,2.65,2.37,3.91,3.61
						c1.81,1.79,5.26,2.77,7.78,3.01c1.26,0.12,4.67,0.06,2.81-1.78c-12.07-11.91-28.03-19.98-44.99-24.21
						c-0.92-0.23-5.47-0.94-4.71,0.94c0.32,0.81,1.61,1.48,2.37,1.85C815.01,179.88,816.49,180.32,818.03,180.7L818.03,180.7z"/>
				</g>
			</g>
			<g class="st11">
				<g>
					<path class="st13" d="M819.78,215.08c-1.82-0.46-0.19-0.05,0.26,0.08c0.49,0.13,0.97,0.27,1.45,0.41
						c0.48,0.14,0.96,0.29,1.44,0.44c0.24,0.08,0.48,0.16,0.72,0.23c0.8,0.26-0.22-0.07-0.46-0.16c0.94,0.35,1.89,0.68,2.82,1.04
						c0.47,0.18,0.93,0.37,1.4,0.56c0.23,0.1,0.46,0.19,0.69,0.29c0.18,0.08,1.17,0.56,0.36,0.15c-0.81-0.4,0.5,0.23,0.7,0.33
						c0.45,0.21,0.91,0.43,1.35,0.65c0.95,0.47,1.9,0.95,2.83,1.46c0.22,0.12,0.44,0.24,0.66,0.36c0.14,0.08,0.85,0.48,0.27,0.15
						c-0.58-0.33,0.12,0.07,0.26,0.15c0.21,0.12,0.43,0.25,0.64,0.38c0.91,0.54,1.8,1.1,2.68,1.68c3.63,2.38,5.69,3.98,8.79,6.83
						c2.85,2.61,5.57,5.5,7.84,8.44c2.56,3.31,4.81,6.99,6.6,10.71c0.38,0.79,1.59,1.46,2.37,1.85c1.34,0.68,2.96,1.23,4.44,1.52
						c0.82,0.16,5.61,0.91,4.71-0.94c-7.24-15.01-21.22-27.55-37.68-34.97c-5.56-2.51-11.3-4.46-17.23-5.94
						c-0.92-0.23-5.47-0.94-4.71,0.94c0.32,0.81,1.61,1.48,2.37,1.85C816.76,214.26,818.24,214.7,819.78,215.08L819.78,215.08z"/>
				</g>
			</g>
			<g class="st11">
				<g>
					<path class="st13" d="M790.79,247.25c1.12,0.42,2.23,0.85,3.33,1.3c0.61,0.25,1.22,0.5,1.83,0.76c0.24,0.1,0.49,0.21,0.73,0.31
						c1.27,0.54-1.14-0.52,0.11,0.05c2.23,1.01,4.43,2.06,6.59,3.19c1.05,0.55,2.09,1.11,3.13,1.68c0.29,0.16,0.57,0.32,0.86,0.48
						c-0.15-0.08-0.86-0.5-0.07-0.04c0.57,0.33,1.13,0.66,1.69,1c2.14,1.28,4.23,2.63,6.27,4.03c0.97,0.66,1.93,1.34,2.87,2.03
						c0.47,0.34,0.94,0.69,1.41,1.04c0.26,0.2,0.52,0.39,0.78,0.59c0.11,0.08,0.97,0.75,0.43,0.33c1.84,1.44,3.62,2.93,5.36,4.46
						c3.67,3.23,7.1,6.67,10.28,10.27c3.43,3.9,6.5,7.99,9.24,12.27c1.24,1.93,4.56,2.93,6.8,3.36c0.64,0.12,5.85,0.82,4.71-0.94
						c-10.79-16.83-26.69-30.94-45.39-41.01c-5.4-2.91-11.06-5.45-16.84-7.62c-1.45-0.54-3.01-0.99-4.54-1.16
						c-0.77-0.08-2.32-0.22-2.99,0.25C785.69,245.07,790.06,246.98,790.79,247.25L790.79,247.25z"/>
				</g>
			</g>
			<g class="st11">
				<g>
					<path class="st13" d="M775.39,300.25c0.58,0.14,1.34,0.43,1.93,0.47c-0.12-0.01-1.45-0.38-0.41-0.1
						c0.26,0.07,0.51,0.14,0.77,0.21c1.28,0.35,2.55,0.72,3.82,1.11c0.63,0.2,1.27,0.4,1.89,0.6c0.25,0.08,0.5,0.17,0.76,0.25
						c1.05,0.35-0.34-0.08-0.4-0.14c0.3,0.28,1.46,0.52,1.87,0.67c0.62,0.23,1.24,0.46,1.86,0.7c1.11,0.43,2.21,0.88,3.31,1.34
						c0.24,0.1,0.49,0.21,0.73,0.31c0.09,0.04,1.27,0.58,0.42,0.18c-0.86-0.4,0.33,0.15,0.41,0.19c0.36,0.16,0.72,0.33,1.08,0.5
						c2.27,1.06,4.5,2.2,6.69,3.4c0.46,0.25,0.92,0.51,1.38,0.77c-0.92-0.52-0.13-0.07,0.1,0.06c0.28,0.17,0.57,0.33,0.85,0.5
						c1.07,0.64,2.13,1.29,3.18,1.96c2.09,1.34,4.14,2.74,6.13,4.21c0.47,0.35,0.94,0.7,1.4,1.05c0.21,0.16,0.41,0.31,0.62,0.47
						c-0.51-0.4,0.14,0.11,0.27,0.21c0.96,0.76,1.91,1.54,2.85,2.33c1.87,1.58,3.67,3.22,5.41,4.92c3.84,3.74,7.37,7.74,10.46,11.97
						c1.4,1.91,4.45,2.91,6.8,3.36c1.2,0.23,2.56,0.49,3.72,0.23c0.52-0.11,1.48-0.51,0.99-1.18
						c-12.49-17.09-30.78-30.52-51.58-38.83c-6.29-2.51-12.78-4.5-19.38-6.06c-0.92-0.22-5.47-0.95-4.71,0.94
						c0.32,0.81,1.61,1.48,2.37,1.85C772.37,299.42,773.86,299.88,775.39,300.25L775.39,300.25z"/>
				</g>
			</g>
			<g class="st11">
				<g>
					<path class="st13" d="M715.65,157.25c3.02-1.3,6.25-2.17,9.63-2.65c1.9-0.27,2.54-0.32,4.49-0.35
						c0.93-0.02,1.86,0.01,2.79,0.04c1.33,0.05-0.99-0.1,0.34,0.03c0.53,0.05,1.06,0.1,1.6,0.16c1.2,0.14,4.69,0,2.81-1.78
						c-1.87-1.76-5.25-2.72-7.78-3.01c-8.68-1-17.25,0.02-24.81,3.27c-0.74,0.32-0.17,1.16,0.18,1.53c0.77,0.8,2.21,1.45,3.24,1.84
						C710.29,157.16,713.48,158.18,715.65,157.25L715.65,157.25z"/>
				</g>
			</g>
			<g class="st11">
				<g>
					<path class="st13" d="M672.95,150.02c1.61,0.2,3.21,0.4,4.82,0.6c0.75,0.09,2.34,0.22,2.99-0.25c0.6-0.43,0.32-1.05-0.18-1.53
						c-1.88-1.78-5.24-2.69-7.78-3.01c-1.61-0.2-3.21-0.4-4.82-0.6c-0.75-0.09-2.34-0.22-2.99,0.25c-0.6,0.43-0.32,1.05,0.18,1.53
						C667.04,148.79,670.4,149.71,672.95,150.02L672.95,150.02z"/>
				</g>
			</g>
			<g class="st11">
				<g>
					<path class="st13" d="M709.24,348.14c-3.12,13.55-6.67,27-10.63,40.33c-2,6.73-4.11,13.42-6.33,20.09
						c-1.91,5.74-3.79,11.53-6.46,17c-2.82,5.78-6.58,11.11-12.25,14.92c-1.71,1.15,2.57,3.05,3.43,3.37c1.45,0.55,3,1.02,4.54,1.16
						c0.93,0.09,2.24,0.26,2.99-0.25c10.51-7.07,14.7-18.82,18.4-29.77c4.5-13.3,8.57-26.74,12.21-40.3
						c2.05-7.65,3.97-15.35,5.75-23.07c0.16-0.69-0.82-1.4-1.34-1.75c-1.13-0.77-2.65-1.37-3.97-1.74
						c-1.37-0.39-2.86-0.77-4.27-0.72C710.67,347.43,709.4,347.43,709.24,348.14L709.24,348.14z"/>
				</g>
			</g>
		</g>
	</g>
</g>
</svg>
