<?xml version="1.0" encoding="utf-8"?>
<!-- Generator: Adobe Adobe Illustrator 24.2.0, SVG Export Plug-In . SVG Version: 6.00 Build 0)  -->
<svg version="1.1" xmlns="http://www.w3.org/2000/svg" xmlns:xlink="http://www.w3.org/1999/xlink" x="0px" y="0px"
	 viewBox="0 0 1080 1080" style="enable-background:new 0 0 1080 1080;" xml:space="preserve">
<style type="text/css">
	.st0{fill:#B5A7A7;}
	.st1{fill:#F5F2EC;}
	.st2{fill:#C8A3A0;}
	.st3{opacity:0.2314;}
	.st4{opacity:0.2314;fill:#FFFFFF;}
	.st5{fill:#FFFFFF;stroke:#000000;stroke-width:8;stroke-linecap:round;stroke-linejoin:round;stroke-miterlimit:10;}
	.st6{fill:none;stroke:#000000;stroke-width:8;stroke-linecap:round;stroke-linejoin:round;stroke-miterlimit:10;}
	.st7{fill:#C8A3A0;stroke:#000000;stroke-width:8;stroke-linecap:round;stroke-linejoin:round;stroke-miterlimit:10;}
	.st8{stroke:#000000;stroke-width:8;stroke-linecap:round;stroke-linejoin:round;stroke-miterlimit:10;}
	.st9{fill:#C3C5B2;stroke:#000000;stroke-width:8;stroke-linecap:round;stroke-linejoin:round;stroke-miterlimit:10;}
	.st10{opacity:0.2118;fill:#FFFFFF;}
	.st11{opacity:0.2118;}
	.st12{opacity:0.1608;}
	.st13{fill:#F4F5E7;}
	.st14{fill:#F3C057;}
	.st15{fill:#7F8D9C;}
	.st16{fill:#CA334D;}
	.st17{fill:#CA344E;}
	.st18{opacity:0.149;}
	.st19{fill:#FFFFFF;}
</style>
<g id="Ebene_4">
	<path class="st0" d="M292.98,750.42c-0.91,62.18,2.08,124.41,8.97,186.21c12.29,1.32,24.58,2.64,36.87,3.96
		c1.65-59.89,3.31-119.79,4.96-179.68c30.19,14.32,62.12,24.97,94.86,31.65c0.14,50.22,3.6,100.43,10.35,150.2
		c17.39,0.83,34.78,1.67,52.17,2.5c-2.04-45.22-4.08-90.45-6.12-135.67c-1.49-32.91-0.27-71.68,26.66-90.66
		c15.64-11.02,36.01-12.03,55.14-12.38s39.38-0.75,55.6-10.9c16.22-10.15,25.5-33.95,13.67-49c-2.14,8.5,7.67,16.65,16.25,14.89
		c8.59-1.76,16.33-4.54,17.09-13.27c0.77-8.73-4.42-23.33-8.29-31.2c1.74,11.37,22.21,14.97,32.61,10.06
		c10.4-4.91,9.37-15.44,6.39-26.55c-2.99-11.11-12.38-19.72-23.05-24.01c6.79,6.57,19.44,2.89,23.8-5.49
		c4.36-8.38,1.48-14.71-4.14-22.31c-5.61-7.6-13.44-17.13-21.44-22.17c5.89,8.74,21.24,5.74,25.88-3.72
		c4.64-9.46-1.6-17.4-9.24-24.66c-7.64-7.26-15.93-14.86-25.95-18.16c12.05,5.05,32.9-5.67,35.02-18.57s-11.79-25.64-22.19-33.56
		c-10.4-7.92-23.22-11.81-35.75-15.54c12.17,5.94,30.74-5.77,30.49-19.3s-15.07-25.74-27.9-30.08c-12.83-4.34-26.77-3.29-40.26-2.18
		c7.07,3.72,24.45-9.67,25.57-17.58c1.12-7.91-12.29-8.49-19.4-12.14s-15.47-3.92-23.43-3.23c7.19,4.06,24.3-9.11,24.96-17.34
		c0.66-8.23-12.86-9.48-20.36-12.94s-16.04-3.67-24.05-4.15c3.5-9.35,11.34-16.26,17.62-24.02c6.28-7.76,11.32-18.14,7.86-27.5
		c-3.72-10.05-15.29-14.37-25.54-17.5c-10.49-3.2-20.98-6.4-31.47-9.61c-7.58-2.31-16.03-4.58-23.17-1.12
		c-9.08,4.4-11.84,16.05-11.63,26.13c0.21,10.09,2.25,20.58-1.38,29.99c-11.78-4.28-23.55-8.56-35.33-12.84
		c8.7-7.3,15.12-17.28,18.16-28.22c1.05-3.75,1.66-7.93-0.06-11.43c-2.67-5.4-10.15-6.91-15.74-4.66
		c-5.58,2.25-9.57,7.22-12.87,12.25s-6.27,10.44-10.83,14.37c1.84-14.79,9.64-29.58,11.48-44.37c0.36-2.87-5.4-6.2-7.48-8.22
		c-3.48-3.37-9.15,0.16-12.38,3.77c-9.02,10.09-16.28,21.76-21.34,34.32c-3.91-6.79-1.21-17.07-7.51-21.72
		c-5.37-3.96-13.59,0.03-16.39,6.08s-1.8,13.11-0.75,19.7c-5.09-10.63-10.18-21.25-15.27-31.88c-1.45-3.03-3.06-6.24-5.96-7.95
		c-5.74-3.39-13.51,1.31-15.77,7.57c-2.26,6.27-0.67,13.2,0.99,19.65s3.37,13.32,1.33,19.66c-9.18-12.34-18.37-24.67-27.55-37.01
		c-2.2-2.95-4.53-6.01-7.84-7.6c-3.32-1.59-7.93-1.14-9.89,1.97c-1.89,2.99-0.66,6.9,0.62,10.2c5.75,14.87,11.5,29.74,17.25,44.6
		c-6.05-10.11-14.98-18.48-25.48-23.84c-4-2.04-9.16-3.55-12.7-0.79c-3.6,2.81-3.31,8.31-2.19,12.74c2.81,11.15,8.7,21.5,16.86,29.6
		"/>
	<path class="st0" d="M313.74,265.19c-9.49,4.24-18.97,8.49-28.46,12.73c3.52-10.6-4.16-30.64-4.16-30.64s7.89-24.87-0.83-31.85
		c-15.1-12.09-37.5-5.37-54.5,3.87c-14.64,7.96-40.65,38.1-40.65,38.1s13.16,20.26,20.9,28.42c7.73,8.16,17.62,13.89,27.36,19.5
		c-24.31,7.79-49.15,15.84-69.48,31.27c-6.91,5.24-13.43,11.62-16.25,19.81c-2.82,8.2-0.94,18.52,6.25,23.36s19.23,0.98,20.39-7.62
		c-23.12,11.65-38.05,27.82-55.52,46.92c-5.55,6.06-17.13,13.53-15.18,21.51c2.33,9.52,14.69,13.5,23.99,10.42
		c9.3-3.08,16.11-10.9,22.43-18.39c-5,8.74-23.17,16.3-23.17,16.3s-14.81,16.93-19.16,26.01c-4.36,9.08-3.43,21.51,4.74,27.4
		s22.71-0.21,21.68-10.23c-7.55,8.18-17.77,13.25-27.08,19.34c-9.31,6.09-13.08,17.77-15.84,28.55s-1.59,20.65,9.49,21.7
		c10.27,0.97,18.57-8.59,22.27-18.23c-10.45,11.61-19.42,24.56-26.62,38.43c-2.77,5.34-5.3,11.75-2.72,17.19
		c3.03,6.36,11.95,7.91,18.42,5.11c6.47-2.79,11.03-8.62,15.31-14.23c-12.25,8.79-29.09,34.62-34.61,48.65s4.24,17.28,18.95,20.62
		c15.35,3.48,28.18-11.25,37.01-24.28c-14.55,9.53-26.39,23.15-33.78,38.9c-3.29,7-5.6,15.62-1.49,22.17
		c4.6,7.35,15.55,8.33,23.27,4.4c7.73-3.94,12.94-11.39,17.69-18.65c4.75-7.26,9.61-14.86,17-19.39
		c-8.38,8.35-17.04,17.14-20.7,28.39c-3.66,11.25-2.62,32.58,7.94,37.91c9.08,4.59,22.66-5.99,30.09-12.94
		c7.43-6.95,11.7-16.55,15.77-25.87c-4.83,10.39-9.75,21.17-9.95,32.63c-0.2,11.46,14.76,32.29,25.58,36.07
		c10.02,3.5,12.3-9.82,19.52-17.6s11.13-17.98,14.88-27.91c-10.17,12.82-0.87,42.55,14.98,46.64c15.85,4.09,31.41-19.21,31.78-35.85
		c0.02,0.14,0.04,0.27,0.06,0.41"/>
	<path class="st0" d="M290.87,248.88c-3.25-0.53-6.5-1.07-9.75-1.6C280.67,247.9,280.8,248.87,290.87,248.88z"/>
</g>
<g id="Ebene_8">
	<path class="st1" d="M275.96,320.77c-23.17,2.95-40.99,21.07-35.42,50.37c7.11,37.41,44.22,54.81,71.59,40.5
		c13.85-7.24,22.47-22.2,24.7-37.67C344.06,323.87,314.23,315.9,275.96,320.77z"/>
</g>
<g id="Ebene_7">
</g>
<g id="Ebene_6">
</g>
<g id="Ebene_5">
	<path class="st2" d="M285.41,406.53c-11.68-0.13-23.38,2.69-33.72,8.12c-3.03,1.59-6.05,3.51-7.82,6.43
		c-1.76,2.93-1.87,7.1,0.59,9.47c2.4,2.31,6.18,2.18,9.5,1.83c16.51-1.75,32.85-5.2,48.65-10.29c2.19-0.71,4.5-1.52,5.95-3.31
		c3.26-4.02-0.07-10.54-4.93-12.34S293.39,406.07,285.41,406.53z"/>
	<path class="st2" d="M566.67,368.85c-15.97-0.1-31.93,4.33-45.56,12.65c-3.51,2.14-7.25,5.3-6.93,9.4
		c0.25,3.18,3.06,5.69,6.12,6.61c3.06,0.92,6.33,0.58,9.51,0.23c16.9-1.85,33.83-3.7,50.49-7.11c4.39-0.9,9.65-2.84,10.18-7.29
		c0.34-2.86-1.58-5.49-3.7-7.43C582.09,371.63,575.85,368.91,566.67,368.85z"/>
</g>
<g id="Ebene_3">
	<path class="st1" d="M297.07,532.9c10.88,40.29,21.76,80.57,32.65,120.86c11.35-5.92,25.98-5.77,36.5,1.53
		c10.52,7.3,15.77,21.89,11.14,33.83c-4.63,11.93-19.46,19.2-31.35,14.47c11.25,54.6,27.43,108.18,48.26,159.88
		c89.88-19.28,180.51-38.8,264.52-76.14c-36.81-109.89-73.61-219.77-110.42-329.66c-86.94,17.88-172.7,41.56-256.51,70.8
		C292.77,531.32,293.69,534.16,297.07,532.9z"/>
</g>
<g id="Ebene_9">
</g>
<g id="Ebene_10">
	<path class="st3" d="M291.86,528.47c8.63,40.24,23.75,85.18,37.19,124.08c11.93-0.99,24.37-1.66,35.44,2.89
		c11.07,4.55,20.29,15.87,18.47,27.7c-1.27,8.24-7.57,15.02-14.9,18.99c-7.33,3.97-15.67,5.6-23.87,7.17
		c9.46,49.78,27.2,107.35,46.6,154.16c1.33,3.21,0.16-1.08,3.47,0c2.29,0.75,4.49-0.81,6.81-1.46
		c86.85-24.34,173.7-48.68,260.55-73.02c-211.22,26.59-266.63-57.48-282.44-92.04c-4.78-10.44,7.97-21.64,1.02-30.78
		c-6.6-8.68-15.32-3.89-19.57-13.93c-18.63-44.04-45.32-129.51-45.32-129.51C308.25,522.33,297.05,520.29,291.86,528.47z"/>
	<path class="st3" d="M165.84,568.99c2.02-5.26,8.72-7.46,14.21-6.17c5.49,1.3,9.95,5.19,13.96,9.16
		c16.7,16.54,29.61,36.51,45.68,53.65s36.75,31.91,60.21,33.26c11.28,0.65,22.47-1.83,33.7-3.02c11.23-1.19,23.19-0.92,32.99,4.68
		s16.5,17.92,12.53,28.5c-2.73,7.26-9.82,12.21-17.33,14.15c-7.51,1.94-15.43,1.27-23.1,0.14
		c-63.88-9.46-119.69-50.68-159.56-101.47C171.28,591.88,161.72,579.73,165.84,568.99z"/>
	<path class="st3" d="M294.94,762.12c11.42,27.6,22.95,55.66,26.24,85.35s-2.75,61.76-22.8,83.9
		C295.57,879.14,292.77,826.89,294.94,762.12z"/>
	<path class="st3" d="M441.24,858.92c4.94,26.47,8.6,53.19,10.95,80.01c11.6-11.85,17.99-28.63,17.2-45.19
		C468.61,877.18,460.67,861.08,441.24,858.92z"/>
	<path class="st3" d="M344.17,935.81c-28.92-16.38-67.77-6.64-91.25,16.89s-33.44,57.8-34.64,91.01
		C277.06,1037.44,330.35,994.52,344.17,935.81z"/>
	<path class="st3" d="M246.7,217.78c-10.99,0.7-22.18,1.77-32.28,6.17c-10.1,4.39-19.08,12.67-21.65,23.38
		c-2.53,10.5,1.47,21.72,8.05,30.28c6.59,8.56,15.53,14.95,24.33,21.21c3.61,2.56,8.09,5.25,12.18,3.56
		c3.48-1.44,5.02-5.42,6.15-9.01c5.07-16.18,8.93-32.73,11.55-49.48c0.96-6.13,1.75-12.41,0.56-18.49S250.9,213.35,246.7,217.78z"/>
	<path class="st3" d="M577.22,225.28c-10.56,0.05-19.64-6.91-29.19-11.43c-9.55-4.52-22.89-5.76-28.94,2.89
		c-2.8,4.01-3.25,9.15-3.6,14.03c-0.62,8.66-1.24,17.33-1.87,25.99c-0.2,2.8-0.38,5.72,0.72,8.3c2.97,6.95,12.76,7.22,20.05,5.23
		C556.02,264.39,574.58,248.22,577.22,225.28z"/>
	<path class="st3" d="M304.16,216.73c-9.65,13.11-9.03,32.79,1.41,45.27c1.35,1.61,3.11,3.22,5.21,3.13
		c3.73-0.16,4.97-5.06,4.85-8.79C315.24,243.79,311.32,231.38,304.16,216.73z"/>
	<path class="st3" d="M328.18,190.19c-3.81,20.99,2.43,43.57,16.47,59.64C347.78,228.51,343.28,206.15,328.18,190.19z"/>
	<path class="st3" d="M383.02,189.3c-4.68,1.65-9.35,3.29-14.03,4.94c-0.26,10.28-0.52,20.56-0.78,30.84
		c-0.08,3.12,0.3,6.98,3.18,8.17c3.61,1.48,6.88-2.72,8.31-6.34C384.16,215.59,385.83,203.18,383.02,189.3z"/>
	<path class="st3" d="M408.85,198.12c-1.38,4.82-5.62,8.15-9.19,11.66c-3.58,3.51-6.89,8.33-5.64,13.18
		c1.34,5.23,7.92,7.88,13.04,6.18c5.12-1.69,8.63-6.64,10.06-11.85C418.54,212.1,418.23,206.59,408.85,198.12z"/>
	<path class="st3" d="M428.14,223.95c17.94-5.82,32.23-21.7,36.14-40.15c-10.07-0.88-20.45,3.23-27.18,10.77
		C430.36,202.11,427.44,212.89,428.14,223.95z"/>
	<path class="st3" d="M461.84,236.73c12.93-3.46,24.38-12.17,31.15-23.72C479.33,213.77,466.18,221.04,461.84,236.73z"/>
	<path class="st3" d="M231.31,306.91c-24.85,6.46-50.55,13.85-69.71,30.95c-6.37,5.68-12.04,12.68-13.83,21.02s1.25,18.13,8.75,22.2
		c7.5,4.06,18.83-0.32,19.91-8.78c-20.6,11.61-39.94,25.47-57.56,41.24c-6.81,6.1-13.97,14.91-10.57,23.4
		c2.77,6.91,11.71,9.55,18.92,7.71c7.21-1.84,13.05-6.97,18.6-11.93c-14.92,8.77-27.3,21.82-35.28,37.17
		c-4.12,7.91-7.01,17.7-2.72,25.52c4.29,7.82,18.52,8.85,20.91,0.25c-16.05,9.25-29.28,23.33-37.49,39.94
		c-2.8,5.66-4.97,12.63-1.72,18.05c3.19,5.34,10.63,6.8,16.58,4.99c5.95-1.81,10.77-6.11,15.37-10.29
		c-9.04,10.58-17.1,21.98-24.07,34.03c-3.03,5.25-5.91,11.67-3.25,17.12c2.67,5.48,10.07,7.21,15.9,5.42
		c5.83-1.79,10.44-6.17,14.82-10.42c-11.56,10.23-21.07,22.77-27.81,36.66c-2.6,5.35-4.83,11.41-3.2,17.13
		c2.77,9.75,15.8,13.26,25.22,9.54s15.95-12.25,21.99-20.39c-12.13,11.97-21.86,26.38-28.43,42.1c-2.02,4.82-3.75,10.26-1.98,15.17
		c2.77,7.71,13.16,10.18,20.82,7.29s13.23-9.46,18.64-15.61c5.41-6.15,11.47-12.44,19.43-14.4c-13.79,2.86-23.98,17.51-21.89,31.44
		c2.09,13.92,16.11,24.94,30.14,23.69s25.88-14.55,25.53-28.62c-10.59,9.8-13.06,27.24-5.6,39.59
		c7.46,12.35,24.04,18.28,37.64,13.47c13.6-4.81,22.76-19.86,20.79-34.15c-8.55,13.42,0.14,34.21,15.7,37.54
		c15.56,3.34,32.01-12.06,29.71-27.81c-3.31,8.46-2.78,18.62,2.49,26.02s15.53,11.24,24.02,8.01c8.49-3.23,13.63-13.96,9.86-22.22
		c-6.58,7.12-1.11,21.32,8.59,21.37s14.66-15.61,6.31-20.55c-33.68-6.62-66.82-17.63-96-35.7c-29.19-18.07-54.33-43.53-68.87-74.62
		c-15.6-33.34-18.38-71.3-16.6-108.06C174.99,446.97,196.52,373.45,231.31,306.91z"/>
	<path class="st4" d="M579.42,236.42c-6.23,5.47-12.88,12.27-12.33,20.53c0.59,8.85,10.8,15.33,19.33,12.89s13.8-12.35,11.95-21.03
		C596.52,240.14,586.56,230.16,579.42,236.42z"/>
	<path class="st4" d="M270.83,223.47c-5.83-1.02-11.96-0.21-17.32,2.28c-1.2,6.89-2.36,14.2,0.27,20.68
		c2.63,6.48,10.59,11.31,16.77,8.04c3.74-1.98,5.73-6.25,6.47-10.42C278.47,235.87,275.92,224.36,270.83,223.47z"/>
	<path class="st4" d="M643.66,470.95c-4.25-7.94-4.64-17.29-5.38-26.27c-0.73-8.98-2.11-18.45-7.79-25.43
		c-5.68-6.99-17.08-10.06-23.83-4.08c-5.27,4.67-5.78,12.59-5.68,19.63c0.69,47.67,12.03,94.83,29.95,139.01
		c1.94,4.78,4.04,9.66,7.63,13.36c3.59,3.71,9.04,6.06,13.99,4.6c8.52-2.51,10.5-13.55,10.49-22.43
		C663.03,532.96,657.09,496.04,643.66,470.95z"/>
	<path class="st4" d="M334.38,784.86c-13.8,15.75-16.25,40.42-5.81,58.57c1.2,2.09,3.11,4.36,5.48,3.98
		c2.44-0.38,3.52-3.23,4.06-5.64C341.57,826.09,341.45,809.63,334.38,784.86z"/>
	<path class="st4" d="M484,859.68c-4.39,15.83-5.8,32.47-4.14,48.81c0.33,3.28,1.75,7.45,5.05,7.41c3.17-0.04,4.57-3.96,4.97-7.1
		C491.81,893.35,490.13,877.46,484,859.68z"/>
	<line class="st3" x1="392.01" y1="696.93" x2="389.58" y2="701.45"/>
</g>
<g id="Ebene_2">
	<path class="st6" d="M325.33,652.65c-11.59-42.02-23.17-84.04-34.76-126.06C375,497.78,461.14,474,548.4,455.41
		c37.18,111.53,74.37,223.07,111.55,334.6c-90.32,26.11-180.63,52.21-270.95,78.32c-15.91-53.25-31.82-106.5-47.72-159.76"/>
	<path class="st6" d="M164.41,571.33c32.2,61.05,89.09,108.63,154.88,129.52c12.44,3.95,25.88,6.98,38.42,3.38
		s23.44-15.92,21.17-28.77c-1.77-10.02-10.91-17.44-20.68-20.27s-20.19-1.93-30.32-1.02"/>
	<path class="st6" d="M312.59,611.38c-40.74-11.12-74.6-44.59-86.2-85.19"/>
	<path class="st6" d="M286.27,273.99c-2.7-13.89,6.92-82.08-45.86-58.33c-99.49,44.77-29.66,69.95-7.34,89.51
		c-60.07,17.18-85.32,40.45-90.03,55.12c-4.19,13.08,6.09,31.08,33.23,11.76c-25.58,12.15-47.72,31.47-63.23,55.17
		c-29.32,44.81,28.03,8.38,35.15,6.79c-20.23,10.18-36.49,28.03-44.72,49.13c-7.98,20.45,4.97,23.15,29.57,11.25
		c-24.52,14.96-50.45,48.08-43.16,61.7c3.44,6.44,14.67,13.1,33.67-6.86c-12.85,20.61-37.81,41.85-31.15,53.46
		c8.35,14.57,27.16-0.15,32.16-4.4c-11.14,12.44-42.22,39.02-30.53,55.54c12.62,17.84,40.51-4.4,50.72-11.27
		c-18.37,16.67-47.53,46.04-28.88,59.89c18.58,13.8,42.43-29.74,52.31-35.1c-4.03,12.39-34.43,53.21-12.76,60.66
		c14.32,4.92,37.18-17.45,49.43-30.57c-5.59,11.48-15.09,59.91,15.28,61.1c15.74,0.62,26.78-16.52,31.83-40.38
		c3.43,19.27-1.01,38.16,17.54,41.52c18.55,3.36,24.53-12.99,30.55-32.8c-0.81,11.68-6.76,44.1,15.21,44.1
		c18.38,0,18.4-17.83,20.06-29.17c3.45,12.74,6.48,28.05,19.89,28.16"/>
	<path class="st6" d="M582.22,293.73c10.41,11.17,38.46,5.09,40.93,16.79c1.64,7.8-17.29,11.3-25.51,13.71
		c12.21,2.95,41.64,3.28,44.18,14.15c2.04,8.75-15.64,16.39-26.07,20.07c18.32,1.29,74.52,7.55,67.87,34.62
		c-3.65,14.86-25.22,16.64-32.58,14.8c40.03,22.6,63.35,43.21,60.02,53.61c-2.94,9.18-25.32,18.8-35.21,13.53
		c12.25,9.01,37.28,27.2,40.25,37.88c3.3,11.86-14.79,15.87-33.94,15.22c6.35,6.32,32.32,21.99,32.32,34.58
		c0,14.67-14.36,15.63-25.92,12.13c16.62,10.34,29.24,37.4,20.13,49.31c-6.51,8.5-31.59,0.11-40.17-7.37
		c5.58,10.32,17.61,32.39,6.21,43.8c-8.71,8.71-18,2.52-30.88-15.98c2.19,20.51,3.93,47.81-13,58.09"/>
	<path class="st6" d="M509.66,267.89c8.39-48.56-12.19-67.54,66.57-43.65c67.45,20.46,6.96,47.56,5.38,68"/>
	<path class="st6" d="M287.3,276.32c8.11-1.7,16.22-7.39,24.33-9.09c-17.65-21.89-23.67-41.94-11.11-48.3
		c9.44-4.78,22.66,18.22,38.18,31.24c-2.18-16.09-30.58-56.89-15.95-62.46c13.46-5.13,34.88,35.99,42.95,48.83
		c-6.33-27.52-2.57-51.83,6.29-51.71c17.74,0.23,22.77,35.26,25.79,44.39c2.28-10.82,1.29-27.73,10.28-29.52
		c14.59-2.91,14.47,16.47,16.83,26.63c2.95-23.91,24.12-45.98,32.33-41.86c14.08,7.07,6.41,30.72,0.26,51.86
		c0.49-8.81,25.55-27.22,32.01-23.82c14.21,7.47-5.95,30.99-15.16,44.07c11.77,3.77,23.55,7.54,35.32,11.31"/>
	<path class="st7" d="M248.46,297.56c-11.89-8.11-59.77-30.69-12.68-55.69c41.86-22.23,36.21,22.57,39.62,41.22
		C269.36,286.29,257.34,295.49,248.46,297.56z"/>
	<path class="st7" d="M529.76,276.32c0.94-21.82-5.01-51.12,32.51-39c44.6,14.4,10.67,39.34,4.7,54.93
		C558.97,290.49,539.97,281.59,529.76,276.32z"/>
	<path class="st8" d="M396.98,378.98c8.83-9.6,23.48-20.15,21.2-32.69c-9.56-7.08-29.09-0.43-42.18,5.54
		c-2.08,0.95-4.28,2.17-5.11,4.3c-1.32,3.36,1.41,6.86,4.05,9.33C380.91,371.05,387.5,375.99,396.98,378.98z"/>
	<path class="st6" d="M396.75,379.78c1.44,9.71,2.88,19.41,4.32,29.12"/>
	<path class="st8" d="M280.85,351.04c-12.59,5.96-7.48,24.19,5.09,23.38c5.6-0.36,9.07-5.7,10.37-11.16
		C300.21,346.91,290.55,347.91,280.85,351.04z"/>
	<path class="st6" d="M291.86,749.53c1.96,58.21,3.92,127.36,5.88,185.58"/>
	<path class="st6" d="M342.4,762.15c-0.34,56.16-0.18,116.8-0.53,172.96"/>
	<path class="st6" d="M441.02,855.58c1.72,28.23,4.55,56.38,8.51,84.38"/>
	<path class="st6" d="M497.57,840.94c-1.17,31.42,0.03,62.93,3.56,94.17"/>
	<path class="st9" d="M221.1,1049.04c-6.99-22.16-2.08-47.15,10.58-66.65s32.44-33.72,54.05-42.25c15.15-5.98,31.98-9.33,47.77-5.34
		c22.64,5.73,39.41,25.87,47.23,47.87c7.82,22,8.11,45.87,7.92,69.22C334.32,1046.99,279.6,1046.28,221.1,1049.04z"/>
	<path class="st6" d="M219.23,1038.8c55.23-4.24,110.73-5.07,166.06-2.48"/>
	<path class="st6" d="M261.77,956.88c7.15,6.98,13.1,15.19,17.51,24.16"/>
	<path class="st6" d="M250.11,968.17c3.68,8.16,8.41,15.85,14.05,22.8"/>
	<path class="st9" d="M407.01,1052.14c-0.97-16.04-1.52-32.25,1.17-48.09c2.69-15.85,8.85-31.46,19.84-43.19
		c13.67-14.6,33.81-21.98,53.77-23.28c10.65-0.69,21.82,0.34,30.98,5.82c10.29,6.15,16.74,17.08,21.53,28.08
		c11.25,25.84,15.65,54.63,12.63,82.65C501.35,1050.2,455.42,1050.31,407.01,1052.14z"/>
	<path class="st6" d="M407.2,1038.55c46.19-1.82,92.5-0.63,138.54,3.56"/>
	<path class="st6" d="M463.04,958.87c10.84-0.02,21.68-0.04,32.51-0.06"/>
	<path class="st6" d="M465.83,974.99c11.21-1.62,22.69-1.35,33.82,0.8"/>
	<path class="st6" d="M483.5,346.03c17.82-1.23,35.73-1.22,53.55,0.02"/>
</g>
<g id="Ebene_11">
	<path class="st10" d="M345.12,973.37c-3.14-2.4-6.42-4.87-10.28-5.7c-3.86-0.83-8.49,0.48-10.24,4.03
		c-1.01,2.04-0.91,4.44-0.66,6.7c1.83,16.33,11.34,31.63,25.18,40.5c3.36,2.16,7.37,4,11.24,3.01c4.7-1.2,7.46-6.2,8.27-10.98
		c1.31-7.69-1.03-15.67-5.18-22.28C359.31,982.05,352.25,978.83,345.12,973.37z"/>
	<path class="st10" d="M513.67,981.69c-4.92,15.57-0.6,33.69,10.8,45.38c1.62,1.66,3.64,3.3,5.96,3.15
		c3.93-0.26,5.58-5.15,5.76-9.08C536.99,1003.6,528.08,986.66,513.67,981.69z"/>
	<path class="st11" d="M320.8,932.38c-24.85,0.03-49.58,9.24-68.39,25.47s-31.55,39.34-35.22,63.92c-1.1,7.36-1.17,15.63,3.59,21.35
		c6.13,7.36,17.74,7.26,26.54,3.51c13.14-5.6,22.59-17.22,31.33-28.53C297.77,993.34,316.68,966.75,320.8,932.38z"/>
	<path class="st11" d="M497.19,938.86c-21.62-0.54-44.99,0.52-62.01,13.87c-12.35,9.69-19.57,24.76-22.77,40.13
		c-3.2,15.37-2.77,31.24-2.33,46.94c0.09,3.13,0.22,6.42,1.84,9.11c2.11,3.5,6.42,5.21,10.5,5.18c4.08-0.02,8.01-1.52,11.73-3.2
		C475.28,1032.4,502.91,987.38,497.19,938.86z"/>
</g>
<g id="Ebene_12">
	<g>
		<g id="Ebene_8_1_">
			<g class="st12">
				<path d="M497.55,701.3c-4.58,33.58-6.49,65.01-11.42,101.11c32.91-23.53,67.46-51.34,92.06-85.5
					c16.34-22.7,28.23-49.12,40.73-74.88c26.51-54.61,56.27-107.06,89.04-156.89c-5.28,0.1-8.55-7.8-7.01-13.49s5.96-9.5,9.95-13.27
					c3.99-3.77,8.01-8.43,8.25-14.44c-9.39-12.34-19.06-26.74-32.8-30.71c-15.09-4.36-14.8-6.92-27.5,17.4
					c-1.31,2.51-8.5,15.33-10.05,20.13c-19.08,59-11.93,43.53-20.52,36.78"/>
				<g>
					<path d="M496.57,701.34c-3.5,25.73-5.6,51.74-8.51,77.58c-0.88,7.86-1.84,15.7-2.91,23.52c-0.13,0.96,0.29,2.05,1.22,1.39
						c19.15-13.7,37.93-28.14,55.39-44.47c17.45-16.33,33.51-34.58,46.47-55.74c13.45-21.94,24.04-45.98,35.55-69.3
						c11.93-24.17,24.5-47.91,37.69-71.18c13.23-23.33,27.08-46.19,41.53-68.52c1.8-2.78,3.61-5.56,5.43-8.33
						c0.39-0.59,1.04-2.82-0.21-2.84c-4.22-0.06-6.81-5.32-6.64-9.66c0.21-5.64,5.05-9.77,8.49-13c3.68-3.45,7.45-7.21,9.19-12.45
						c0.42-1.26,0.7-2.59,0.82-3.94c0.15-1.62-0.36-2.14-1.28-3.36c-1.66-2.2-3.3-4.4-4.97-6.59c-6.49-8.48-13.72-17.19-23.05-21.41
						c-3.54-1.6-7.39-2.59-11.08-3.58c-2.21-0.59-4.53-1.1-6.73-0.43c-2.28,0.7-4.07,2.61-5.55,4.59c-2.74,3.66-4.91,7.91-7.1,12.02
						c-3.84,7.23-8.04,14.32-11.32,21.92c-2.18,5.06-3.62,10.63-5.31,15.94c-1.5,4.73-2.99,9.46-4.48,14.19
						c-0.96,3.05-1.92,6.11-2.93,9.14c-0.35,1.04-0.7,2.08-1.07,3.11c-0.13,0.37-0.27,0.73-0.41,1.09c-0.06,0.17-0.13,0.34-0.2,0.51
						c0.18-0.44-0.05,0.1-0.09,0.19c-0.11,0.25-0.23,0.48-0.34,0.73c-0.04,0.09-0.09,0.17-0.14,0.26c-0.19,0.36,0.19-0.3-0.01,0.02
						c-0.22,0.35-0.06,0.06-0.05,0.1c0.02,0.11,0.09-0.02-0.05,0.03c0.23-0.08,0.11-0.1,0.15-0.02c-0.14-0.21-0.34-0.41-0.49-0.62
						c-0.1-0.15-0.19-0.32-0.46-0.8c-0.25-0.43-0.49-0.87-0.75-1.29c-0.6-1-1.25-1.96-2.02-2.8c-0.42-0.46-0.88-0.88-1.36-1.26
						c-1.19-0.94-2.45,2.15-1.47,2.92c0.79,0.63,1.5,1.36,2.13,2.19c0.56,0.73,1.02,1.47,1.34,2.03c0.51,0.9,1.13,2.57,2.13,2.9
						c1.52,0.51,2.52-2.06,3.01-3.23c1.57-3.76,2.73-7.76,3.97-11.68c2.58-8.15,5.14-16.3,7.75-24.43c1.21-3.78,2.4-7.39,4.1-10.9
						c1.62-3.33,3.35-6.58,5.09-9.82c3.42-6.34,6.52-13.06,10.53-18.94c1.21-1.77,2.57-3.63,4.44-4.51
						c1.56-0.74,3.31-0.62,4.98-0.28c2.55,0.52,5.06,1.41,7.57,2.16c3.92,1.17,7.57,2.77,11.05,5.24
						c7.28,5.19,13.08,12.78,18.63,20.14c1.39,1.84,2.77,3.69,4.16,5.52c-0.09-0.33-0.19-0.66-0.28-0.99
						c-0.31,5.37-4.13,9.34-7.48,12.53c-3.39,3.22-7,6.37-9.23,10.82c-1.87,3.74-2.46,8.05-1.1,12.28c1.18,3.67,3.81,6.71,7.36,6.76
						c-0.07-0.95-0.14-1.89-0.21-2.84c-14.52,22.09-28.46,44.69-41.79,67.76c-13.31,23.04-26.01,46.56-38.08,70.51
						c-11.74,23.3-22.31,47.47-35.07,70.07c-12.4,21.97-27.63,41.12-44.94,58.14c-17.09,16.8-35.67,31.58-54.69,45.47
						c-2.33,1.7-4.67,3.39-7.01,5.06c0.41,0.46,0.82,0.92,1.22,1.39c3.56-26.17,5.76-52.6,8.69-78.89
						c0.83-7.42,1.73-14.83,2.73-22.21C498.84,698.96,496.82,699.56,496.57,701.34L496.57,701.34z"/>
				</g>
			</g>
		</g>
		<g id="Ebene_3_1_">
			<g>
				<g>
					<path d="M501.64,751.1c-0.67,17.21-2.36,34.3-5.06,51.15c-0.15,0.93,0.31,2.11,1.22,1.39c11.87-9.39,23.75-18.77,35.62-28.16
						c0.55-0.44,1.25-2.25,0.49-2.89c-9.99-8.5-19.98-17.01-29.97-25.51c-1.16-0.99-2.43,2.11-1.47,2.92
						c9.99,8.5,19.98,17.01,29.97,25.51c0.16-0.96,0.33-1.93,0.49-2.89c-11.87,9.39-23.75,18.77-35.62,28.16
						c0.41,0.46,0.82,0.92,1.22,1.39c2.74-17.13,4.46-34.52,5.13-52.01c0.03-0.68-0.36-1.37-1-1.13
						C501.98,749.27,501.66,750.36,501.64,751.1L501.64,751.1z"/>
				</g>
			</g>
		</g>
		<g id="Ebene_4_1_">
			<g>
				<path class="st13" d="M509.82,699.39c0.42,8.57-2.27,16.73-3.87,25.02s-1.91,17.76,2.58,24.84c3.33,5.25,8.69,8.22,13.12,12.3
					c4.5,4.15,8.84,9.89,14.51,9.89c3.42,0,6.42-2.19,9.21-4.3c9.12-6.91,18.25-13.81,27.37-20.72
					c-21.61-13.03-42.22-28.35-61.46-45.68"/>
				<g>
					<path class="st13" d="M508.8,699.86c0.41,9.62-3.02,18.43-4.35,27.7c-1.25,8.65-0.79,18.42,4.94,25.33
						c2.66,3.2,5.99,5.51,9.11,8.05c2.91,2.37,5.45,5.22,8.26,7.74c2.59,2.32,5.51,4.32,8.83,4.43c4.4,0.15,8.1-3.09,11.52-5.68
						c8.62-6.53,17.25-13.05,25.87-19.58c0.68-0.52,1.24-2.48,0.28-3.06c-16.81-10.14-33.01-21.65-48.43-34.43
						c-4.34-3.59-8.61-7.29-12.82-11.08c-1.13-1.01-2.42,2.07-1.47,2.92c15.05,13.55,30.93,25.88,47.47,36.86
						c4.68,3.11,9.42,6.1,14.2,8.98c0.09-1.02,0.19-2.04,0.28-3.06c-7.35,5.56-14.69,11.12-22.03,16.67
						c-1.83,1.39-3.66,2.78-5.5,4.16c-1.74,1.31-3.51,2.6-5.51,3.37c-3.42,1.3-6.79,0.12-9.76-2.2c-2.79-2.18-5.16-5-7.83-7.37
						c-2.91-2.59-6.12-4.73-8.95-7.45c-2.93-2.82-5.16-6.3-6.19-10.51c-1.04-4.26-1-8.72-0.48-13c1.24-10.01,5.03-19.4,4.59-29.75
						C510.73,696.61,508.73,698.34,508.8,699.86L508.8,699.86z"/>
				</g>
			</g>
		</g>
		<g id="Ebene_5_1_">
			<g>
				<path class="st14" d="M629.15,499.5c-37.86,61.23-75.83,119.36-111.66,182.2c-2.16,3.79-7.11,12.7-6.16,17.23
					c1,4.82,9.28,6.74,12.82,9.71c15.22,12.79,25.14,18.4,42.26,31.29c1.38,1.04,8.91,11.08,14.99-0.79
					c32.46-63.34,108.82-205.49,108.22-207.91c-0.48-1.94-1.77-3.72-3.37-4.59c-14.74-8.04-28.26-21.14-43.83-28.3
					c-4.9-2.26-12.09-3.04-13.64,2.55"/>
				<g>
					<path class="st14" d="M628.66,498.33c-8.16,13.2-16.38,26.34-24.62,39.48c-8.14,12.97-16.29,25.92-24.41,38.9
						c-8.1,12.95-16.17,25.93-24.17,38.98c-8.06,13.16-16.04,26.37-23.89,39.69c-3.95,6.71-7.88,13.45-11.77,20.21
						c-2.82,4.92-5.79,9.78-7.91,15.18c-0.9,2.29-1.75,4.87-1.72,7.46c0.03,2.33,1.04,4.2,2.69,5.6c1.88,1.6,4.06,2.64,6.18,3.71
						c1.04,0.53,2.08,1.05,3.08,1.67c1.16,0.71,2.18,1.65,3.25,2.53c9.55,7.87,19.63,14.74,29.61,21.85
						c2.84,2.03,5.67,4.08,8.48,6.16c1.44,1.07,2.68,2.15,4,3.38c2.8,2.61,6.42,4.57,9.81,2.56c3.77-2.24,5.62-7.32,7.68-11.34
						c1.8-3.5,3.61-6.99,5.42-10.48c4.11-7.92,8.24-15.83,12.38-23.73c4.54-8.67,9.09-17.32,13.65-25.98
						c4.77-9.07,9.55-18.13,14.33-27.19c4.73-8.96,9.46-17.92,14.18-26.88c4.49-8.51,8.98-17.03,13.46-25.55
						c3.98-7.56,7.95-15.13,11.91-22.7c3.27-6.25,6.53-12.52,9.77-18.8c2.3-4.47,4.59-8.93,6.83-13.44
						c1.18-2.39,2.48-4.78,3.41-7.33c0.88-2.43-0.72-5.09-2.51-6.55c-1.21-0.98-2.66-1.61-3.97-2.39c-1.39-0.83-2.77-1.69-4.14-2.58
						c-2.77-1.8-5.48-3.7-8.18-5.64c-5.46-3.91-10.85-7.96-16.45-11.59c-2.79-1.81-5.63-3.52-8.54-5.05
						c-2.49-1.31-5.01-2.57-7.7-3.14c-4.39-0.93-9.34-0.17-10.92,5.15c-0.17,0.57-0.32,1.72,0.35,2.03c0.65,0.3,1.23-0.68,1.4-1.23
						c0.64-2.15,2.7-2.82,4.55-2.95c2.31-0.17,4.65,0.37,6.85,1.26c5.72,2.31,11.16,5.89,16.37,9.45
						c5.42,3.71,10.68,7.7,16.07,11.47c2.6,1.82,5.23,3.59,7.91,5.24c2.5,1.54,5.86,2.6,7.06,5.84c0.19,0.52,0.1,0.68,0.14,0.16
						c0.02-0.29,0.06-0.54,0.02-0.32c0.07-0.4,0.15-0.47,0.02-0.15c-0.05,0.13-0.11,0.27-0.15,0.41c-0.08,0.26,0.22-0.5,0.06-0.16
						c-0.04,0.1-0.08,0.2-0.12,0.29c-0.47,1.08-0.97,2.13-1.48,3.19c-1.82,3.79-3.73,7.52-5.63,11.25
						c-2.84,5.56-5.71,11.1-8.59,16.63c-3.63,6.96-7.27,13.92-10.92,20.87c-4.21,8.02-8.43,16.04-12.65,24.05
						c-4.54,8.61-9.08,17.21-13.62,25.82c-4.68,8.88-9.37,17.76-14.05,26.64c-4.57,8.67-9.14,17.35-13.7,26.03
						c-4.26,8.11-8.52,16.23-12.76,24.36c-3.75,7.19-7.5,14.39-11.22,21.61c-0.82,1.58-1.63,3.16-2.44,4.75
						c-1.13,2.21-2.32,4.64-4.47,5.71c-3.12,1.55-6.31-0.86-8.68-3.21c-1.55-1.53-3.31-2.72-5.02-3.98
						c-2.66-1.96-5.34-3.89-8.03-5.81c-4.82-3.42-9.67-6.76-14.46-10.23c-5.02-3.63-9.94-7.42-14.75-11.42
						c-1.86-1.55-3.74-2.71-5.84-3.77c-2.05-1.04-4.26-2.01-6.04-3.62c-1.5-1.36-2.08-2.81-1.72-4.89c0.43-2.44,1.44-4.74,2.46-6.9
						c2.59-5.49,5.78-10.61,8.77-15.8c7.59-13.15,15.33-26.18,23.16-39.14c7.74-12.82,15.58-25.56,23.47-38.26
						c7.92-12.75,15.89-25.45,23.86-38.15c7.98-12.71,15.96-25.41,23.91-38.15c3.89-6.23,7.77-12.47,11.63-18.72
						c0.38-0.62,0.77-1.59,0.4-2.37C629.71,497.6,629,497.78,628.66,498.33L628.66,498.33z"/>
				</g>
			</g>
		</g>
		<g id="Ebene_6_1_">
			<g>
				<path class="st15" d="M646.84,448.79c-6.48,9.37-12.16,19.47-16.94,30.13c-1.19,2.66-2.35,5.67-1.61,8.62
					c0.84,3.33,3.77,5.38,6.45,7.08c16.26,10.31,33.07,19.19,49.32,29.5c3.35,2.12,6.66,5.75,10.18,4.41
					c2.89-1.1,5.69-3.81,6.2-7.26c1.46-9.84,7.98-18.56,12.3-23.67c2.01-2.38,3.02-6.01,2.53-9.36c-0.63-4.32-4.32-7.18-7.67-9.43
					c-19.23-12.87-39.31-24-59.98-33.25"/>
				<g>
					<path class="st15" d="M646.35,447.63c-5.1,7.39-9.74,15.21-13.81,23.41c-1.03,2.08-2.03,4.18-3,6.31
						c-0.9,1.99-1.78,3.99-2.23,6.2c-0.42,2.02-0.38,4.24,0.41,6.19c0.75,1.84,2.07,3.27,3.51,4.42c3.41,2.73,7.3,4.81,10.97,7.03
						c3.98,2.41,7.99,4.76,12,7.1c8.02,4.67,16.07,9.28,24.02,14.15c1.91,1.17,3.84,2.32,5.71,3.57c1.52,1.01,2.94,2.22,4.49,3.16
						c1.36,0.82,2.9,1.47,4.43,1.3c1.63-0.18,3.19-1.13,4.49-2.18c1.33-1.08,2.48-2.53,3.22-4.2c0.77-1.75,0.91-3.67,1.38-5.54
						c0.97-3.84,2.66-7.38,4.61-10.64c1.7-2.84,3.66-5.48,5.72-7.99c1.13-1.38,2.19-2.72,2.92-4.45c0.78-1.87,1.23-3.95,1.21-6.06
						c-0.03-4.21-2.13-7.42-5.08-9.85c-3.27-2.7-6.94-4.85-10.45-7.1c-15.14-9.68-30.78-18.3-46.79-25.79
						c-1.97-0.92-3.95-1.83-5.93-2.71c-1.19-0.53-2.24,2.72-1.05,3.25c15.14,6.79,29.97,14.56,44.37,23.3
						c3.66,2.22,7.29,4.5,10.89,6.84c3.13,2.03,6.58,3.93,9.24,6.75c1.21,1.28,2.27,2.83,2.62,4.68c0.35,1.81,0.11,3.76-0.57,5.39
						c-0.62,1.48-1.65,2.56-2.6,3.73c-0.93,1.14-1.82,2.31-2.69,3.5c-4.09,5.66-7.62,12.19-8.84,19.57
						c-0.53,3.18-3.49,6.04-6.38,6.18c-3.02,0.14-5.79-2.83-8.28-4.48c-7.31-4.81-14.9-9.1-22.41-13.46
						c-7.61-4.42-15.23-8.81-22.75-13.44c-1.76-1.09-3.53-2.16-5.27-3.31c-1.49-0.98-2.97-2.09-4.08-3.62
						c-2.64-3.64-0.35-7.8,1.2-11.16c3.62-7.84,7.74-15.39,12.32-22.52c1.13-1.75,2.29-3.49,3.47-5.2c0.41-0.59,0.76-1.62,0.4-2.37
						C647.39,446.88,646.71,447.11,646.35,447.63L646.35,447.63z"/>
				</g>
			</g>
		</g>
		<g id="Ebene_7_1_">
			<g>
				<path class="st16" d="M656.56,446.35c1.9-12.71,8.89-22.12,14.52-32.62c0.85-1.59,4.21-2.15,5.79-2.68
					c1.74-0.59,3.61,0.45,5.27,1.45c13.67,8.29,27.34,16.59,41.01,24.88c2.62,1.59,5.6,3.78,5.78,7.11c0.11,2-0.88,3.79-1.82,5.43
					c-4.34,7.5-8.68,15-13.02,22.5c-1,1.73-2.14,3.58-3.91,4.13c-1.95,0.6-4.02-0.57-5.85-1.7c-16.02-9.93-32.05-19.87-48.07-29.8"
					/>
				<g>
					<path class="st17" d="M657.53,446.3c0.94-6.11,3.18-11.66,5.91-16.9c1.37-2.63,2.84-5.18,4.31-7.73
						c0.65-1.13,1.3-2.25,1.95-3.38c0.35-0.62,0.7-1.24,1.05-1.86c0.17-0.31,0.35-0.62,0.52-0.94c0.11-0.21,0.23-0.42,0.34-0.63
						c0.2-0.35,0.23-0.41,0.08-0.19c0.66-0.73,1.77-1.01,2.64-1.28c1.02-0.32,2.18-0.8,3.25-0.84c1.41-0.04,2.79,0.83,4.02,1.57
						c1.59,0.96,3.17,1.93,4.76,2.89c5.98,3.63,11.96,7.26,17.94,10.89c6.1,3.7,12.22,7.37,18.31,11.11
						c1.97,1.21,4.78,2.93,5.25,5.67c0.24,1.42-0.48,2.68-1.1,3.8c-0.9,1.62-1.85,3.21-2.78,4.82c-3.58,6.2-7.11,12.44-10.76,18.59
						c-0.65,1.09-1.37,2.26-2.46,2.82c-1.4,0.71-2.98,0.13-4.33-0.58c-3.05-1.59-5.96-3.64-8.91-5.46
						c-13.58-8.42-27.15-16.84-40.73-25.25c-1.08-0.67-2.21,2.53-1.05,3.25c13.03,8.08,26.05,16.15,39.08,24.23
						c3.2,1.98,6.38,4.03,9.61,5.95c2.69,1.6,5.57,2.28,7.92-0.13c1.08-1.11,1.87-2.49,2.67-3.86c0.96-1.65,1.91-3.3,2.87-4.96
						c1.95-3.37,3.9-6.74,5.85-10.1c0.99-1.71,1.99-3.43,2.98-5.15c0.88-1.53,1.83-3.02,2.5-4.7c1.18-2.98,0.94-6.26-1.18-8.76
						c-2.12-2.5-5.19-3.94-7.83-5.54c-3.23-1.96-6.47-3.93-9.7-5.89c-6.47-3.93-12.94-7.85-19.41-11.78
						c-3.21-1.95-6.39-4.12-9.7-5.84c-1.32-0.69-2.76-1.15-4.17-0.79c-1.08,0.28-2.18,0.59-3.24,0.95
						c-1.01,0.34-2.04,0.78-2.84,1.58c-0.99,1-1.6,2.58-2.31,3.84c-1.54,2.73-3.14,5.42-4.67,8.15c-3.09,5.5-5.96,11.27-7.58,17.63
						c-0.41,1.61-0.75,3.23-1,4.89c-0.09,0.6-0.01,1.61,0.7,1.63C656.97,448.04,657.44,446.92,657.53,446.3L657.53,446.3z"/>
				</g>
			</g>
		</g>
		<g id="Ebene_2_1_">
			<g>
				<g>
					<path d="M646.85,444.03c-4.39,8.42-8.79,16.83-13.19,25.24c-1.13,2.16-2.26,4.32-3.39,6.48c-1.02,1.96-2.27,3.9-2.97,6.06
						c-1.15,3.55-0.66,7.75,1.56,10.8c1.26,1.73,2.97,2.63,4.68,3.62c2.21,1.28,4.41,2.57,6.6,3.86c4.38,2.58,8.75,5.18,13.11,7.78
						c8.67,5.17,17.33,10.36,26.05,15.43c2.17,1.26,4.34,2.51,6.52,3.76c1.03,0.59,2.06,1.17,3.08,1.75
						c1.01,0.57,2.03,1.29,3.12,1.6c3.71,1.05,6.57-2.29,7.81-5.84c1.13-3.25,2.02-6.63,3.44-9.73c1.28-2.82,3.01-5.23,4.7-7.72
						c1.47-2.16,2.8-4.47,4.08-6.79c1.46-2.64,2.91-5.38,3.89-8.32c0.35-1.06,0.66-2.2,0.63-3.35c-0.04-2.1-0.96-4.16-2.12-5.79
						c-1.26-1.78-2.9-3.1-4.58-4.33c-1.95-1.42-3.91-2.82-5.89-4.19c-15.79-10.98-32.33-20.46-49.27-28.72
						c-2.12-1.03-4.25-2.05-6.38-3.05c-1.18-0.55-2.24,2.69-1.05,3.25c16.21,7.58,32.08,16.21,47.34,26.17
						c3.85,2.51,7.66,5.11,11.43,7.79c3.09,2.2,7.37,4.69,8.35,9.07c0.07,0.3,0.12,0.61,0.14,0.92c0.01,0.22,0.04-0.19-0.03,0.25
						c-0.06,0.37-0.01,0.11-0.07,0.36c-0.08,0.31-0.18,0.61-0.28,0.91c-0.41,1.21-0.94,2.35-1.48,3.48
						c-1.28,2.65-2.71,5.2-4.21,7.68c-1.32,2.17-2.83,4.16-4.17,6.3c-1.52,2.42-2.77,4.98-3.78,7.73c-0.57,1.57-1.09,3.17-1.62,4.76
						c-0.58,1.76-1,3.71-2.32,4.93c-1.24,1.14-2.85,1.36-4.36,0.64c-2.13-1.02-4.2-2.36-6.27-3.55
						c-16.61-9.52-32.99-19.58-49.53-29.24c-1.77-1.03-3.85-1.89-5.34-3.45c-1.13-1.19-1.94-2.74-2.24-4.43
						c-0.29-1.61-0.08-3.17,0.62-4.56c1.01-2.02,2.09-4,3.14-6.01c4.24-8.11,8.49-16.22,12.72-24.34c0.97-1.87,1.95-3.73,2.92-5.6
						c0.3-0.57,0.55-1.72,0.04-2.28C647.75,442.8,647.1,443.54,646.85,444.03L646.85,444.03z"/>
				</g>
			</g>
			<g>
				<g>
					<path d="M654.89,448.08c4.79-10.22,8.88-21.13,14.85-30.53c1.1-1.73,2.27-3.47,3.7-4.86c0.94-0.91,1.94-1.72,3.19-1.64
						c1.58,0.11,3.23,1.01,4.67,1.74c2.14,1.09,4.21,2.36,6.26,3.65c3.68,2.33,7.24,4.92,10.94,7.2c5.1,3.15,10.57,5.57,15.81,8.38
						c2.83,1.51,5.63,3.1,8.39,4.77c1.53,0.92,3.18,1.77,4.6,2.91c0.83,0.67,1.45,1.5,1.59,2.65c0.15,1.24,0,2.53,0,3.77
						c0,0.41,0.01,0.81,0.02,1.22c0.01,0.37,0.01,0.01,0,0.09c-0.01,0.13-0.1,0.49-0.02,0.17c-0.06,0.24-0.14,0.47-0.22,0.7
						c-0.66,1.9-1.87,4.02-2.94,5.87c-2.3,3.98-4.86,7.71-7.42,11.47c-2.54,3.73-4.78,7.55-6.79,11.7c-0.7,1.44-1.4,2.88-2.11,4.31
						c-0.29,0.58-0.56,1.71-0.04,2.28c0.53,0.57,1.19-0.15,1.44-0.64c2.14-4.34,4.13-8.76,6.75-12.74c2.76-4.2,5.66-8.26,8.29-12.58
						c1.31-2.16,2.61-4.37,3.68-6.71c0.43-0.94,0.84-1.91,1.12-2.93c0.31-1.16,0.26-2.26,0.27-3.47c0.02-2.52,0.35-5.34-1.41-7.36
						c-1.14-1.32-2.77-2.11-4.17-2.97c-1.57-0.97-3.16-1.92-4.76-2.84c-5.7-3.28-11.55-6.16-17.33-9.23
						c-3.98-2.12-7.69-4.69-11.5-7.2c-3.98-2.62-8.13-5.58-12.54-7.08c-1.4-0.48-2.72-0.67-4.05,0c-1.61,0.81-2.92,2.27-4.08,3.73
						c-3.36,4.23-5.91,9.36-8.34,14.34c-2.69,5.52-5.15,11.18-7.7,16.78c-0.52,1.14-1.04,2.29-1.57,3.42
						c-0.28,0.59-0.57,1.7-0.04,2.28C653.97,449.3,654.65,448.59,654.89,448.08L654.89,448.08z"/>
				</g>
			</g>
			<g>
				<g>
					<path d="M631.4,491.81c-9.82,16.84-19.92,33.46-30.14,49.96c-10.17,16.42-20.47,32.73-30.76,49.05
						c-10.3,16.35-20.59,32.71-30.72,49.21c-5.05,8.22-10.06,16.47-15.01,24.76c-2.53,4.23-5.04,8.48-7.54,12.73
						c-1.66,2.82-3.35,5.63-4.82,8.6c-1.39,2.82-2.82,5.94-3.17,9.24c-0.39,3.73,1.56,6.39,4.21,8.47
						c3.68,2.91,7.56,5.52,11.33,8.26c4.03,2.92,8.05,5.84,12.08,8.76c7.99,5.8,15.99,11.6,23.98,17.4
						c1.98,1.44,3.97,2.88,5.95,4.32c1.65,1.2,3.32,2.44,5.17,3.18c3.56,1.43,6.77,0.19,9.1-2.91c2.49-3.31,4.12-7.57,5.97-11.36
						c2.11-4.32,4.22-8.63,6.34-12.94c4.19-8.53,8.41-17.04,12.65-25.54c8.3-16.63,16.7-33.19,25.18-49.7
						c8.49-16.52,17.07-32.97,25.72-49.38c8.93-16.94,17.93-33.84,26.98-50.7c2.3-4.29,4.61-8.58,6.92-12.87
						c0.31-0.57,0.55-1.72,0.04-2.28c-0.54-0.58-1.18,0.16-1.44,0.64c-9.06,16.83-18.08,33.68-27.03,50.59
						c-8.57,16.18-17.08,32.4-25.51,48.67c-8.34,16.11-16.61,32.26-24.78,48.49c-8.37,16.61-16.64,33.29-24.82,50.03
						c-1.97,4.03-3.8,8.2-5.95,12.09c-0.82,1.48-1.81,2.98-3.21,3.8c-1.64,0.96-3.52,0.78-5.26,0.04c-1.85-0.78-3.52-2.04-5.19-3.25
						c-1.92-1.4-3.85-2.79-5.77-4.18c-3.91-2.83-7.81-5.67-11.72-8.5c-7.87-5.71-15.75-11.42-23.62-17.13
						c-3.82-2.77-7.7-5.45-11.46-8.33c-1.43-1.09-3.13-2.53-3.75-4.44c-0.3-0.93-0.1-1.98,0.12-2.89c0.74-3.08,2.26-5.91,3.72-8.58
						c1.82-3.32,3.78-6.55,5.69-9.79c4.85-8.23,9.76-16.41,14.72-24.55c9.89-16.26,19.97-32.37,30.08-48.44
						c10.12-16.09,20.28-32.13,30.34-48.26c10.02-16.05,19.94-32.19,29.63-48.5c2.4-4.04,4.79-8.09,7.16-12.15
						c0.32-0.55,0.54-1.73,0.04-2.28C632.29,490.57,631.68,491.34,631.4,491.81L631.4,491.81z"/>
				</g>
			</g>
			<g>
				<g>
					<path d="M508.11,695.98c-2,13.7-3.81,27.44-5.48,41.21c-1.78,14.64-3.4,29.31-4.82,44.02c-0.76,7.85-1.46,15.71-2.08,23.59
						c-0.07,0.93,0.6,1.48,1.26,0.96c20.51-16.24,41.07-32.43,62.23-47.61c5.71-4.1,11.46-8.11,17.27-12.03
						c1.01-0.68,1.06-3.91-0.49-2.87c-21.13,14.25-41.53,29.82-61.74,45.65c-5.93,4.65-11.85,9.32-17.76,14
						c0.42,0.32,0.84,0.64,1.26,0.96c1.11-14.14,2.49-28.23,4.01-42.3c1.56-14.45,3.29-28.86,5.19-43.24
						c0.98-7.48,2.01-14.95,3.11-22.41c0.09-0.6,0.01-1.61-0.7-1.63C508.67,694.24,508.2,695.36,508.11,695.98L508.11,695.98z"/>
				</g>
			</g>
			<g>
				<path d="M502.48,746.63c9.19,6.46,25.39,22.53,33.86,26.83c-12.52,8.62-25.04,19.88-38.57,29.2
					c1.56-30.02,3.79-49.37,4.54-54.49"/>
				<g>
					<path d="M501.95,748.26c4.56,3.22,8.82,7.02,13.09,10.71c4.66,4.02,9.31,8.09,14.19,11.78c2.11,1.6,4.27,3.16,6.58,4.34
						c0.09-1.02,0.19-2.04,0.28-3.06c-13.22,9.12-25.35,20.07-38.57,29.2c0.42,0.32,0.84,0.64,1.26,0.96
						c0.85-16.28,1.95-32.56,3.82-48.68c0.21-1.8,0.42-3.59,0.68-5.38c0.09-0.6,0.01-1.61-0.7-1.63c-0.69-0.02-1.16,1.09-1.25,1.72
						c-1.75,12.05-2.61,24.36-3.46,36.57c-0.43,6.11-0.79,12.22-1.11,18.35c-0.05,0.97,0.57,1.43,1.26,0.96
						c13.22-9.13,25.35-20.07,38.57-29.2c0.66-0.46,1.26-2.56,0.28-3.06c-4.5-2.32-8.59-5.83-12.57-9.16
						c-4.82-4.03-9.52-8.23-14.34-12.24c-2.27-1.89-4.56-3.75-6.94-5.43C501.98,744.28,500.82,747.46,501.95,748.26L501.95,748.26z"
						/>
				</g>
			</g>
		</g>
		<g id="Ebene_9_1_">
			<g class="st18">
				<g>
					<path d="M675.61,411.26c1.18-0.18,1.85-3.55,0.55-3.35C674.97,408.1,674.31,411.47,675.61,411.26L675.61,411.26z"/>
				</g>
			</g>
			<g class="st18">
				<path d="M674.36,411.65c3.64,24.11,16.31,46.68,34.14,60.87c1.56,1.25,3.19,4.09,1.54,5.02c-0.75,0.43-1.67-0.06-2.44-0.54
					c-15.88-9.9-31.76-19.8-47.64-29.71c-1.31-0.81-2.72-1.77-3.24-3.35c-0.55-1.69,0.12-3.49,0.81-5.06
					c4.58-10.43,10.43-20.09,17.33-28.65"/>
				<g>
					<path d="M673.38,412.51c3.38,22.07,14.1,42.89,29.54,57.28c0.87,0.81,1.76,1.61,2.66,2.38c0.97,0.83,2.09,1.57,2.96,2.55
						c0.31,0.34,0.6,0.72,0.82,1.14c0.09,0.17,0.24,0.83,0.36,0.94c0.11-0.29,0.23-0.58,0.34-0.86c-0.23,0.11-0.46,0.13-0.7,0.05
						c-0.26-0.05-0.54-0.21-0.78-0.34c-0.78-0.42-1.52-0.93-2.28-1.4c-5.38-3.35-10.75-6.7-16.12-10.05
						c-5.38-3.35-10.75-6.7-16.12-10.05c-2.69-1.68-5.38-3.35-8.06-5.03c-1.22-0.76-2.44-1.52-3.66-2.28
						c-1.25-0.78-2.71-1.49-3.78-2.6c-1.13-1.18-1.12-2.43-0.56-3.89c0.58-1.51,1.3-2.96,1.99-4.4c1.39-2.92,2.89-5.77,4.47-8.54
						c3.24-5.67,6.9-10.99,10.9-15.97c0.44-0.54,0.74-1.65,0.4-2.37c-0.35-0.75-1-0.44-1.38,0.04c-3.85,4.79-7.37,9.91-10.54,15.31
						c-1.55,2.64-3.02,5.35-4.39,8.12c-1.33,2.68-2.95,5.52-3.66,8.54c-0.34,1.43-0.42,3.02,0.18,4.43c0.55,1.3,1.58,2.17,2.64,2.9
						c2.77,1.92,5.7,3.58,8.54,5.35c5.74,3.58,11.48,7.16,17.22,10.74c5.74,3.58,11.48,7.16,17.22,10.74
						c1.47,0.91,2.93,1.83,4.4,2.74c1.12,0.7,2.46,1.78,3.76,1.32c2.24-0.8,2.4-4.04,1.26-6.06c-1.25-2.22-3.51-3.53-5.3-5.13
						c-2.13-1.9-4.17-3.92-6.13-6.06c-3.83-4.18-7.3-8.78-10.37-13.69c-7.01-11.22-11.81-24.16-13.86-37.55
						c-0.12-0.77-0.72-0.97-1.23-0.56C673.54,410.68,673.26,411.72,673.38,412.51L673.38,412.51z"/>
				</g>
			</g>
			<g class="st18">
				<path d="M646.45,446.55c-1.31,8.25-7.02,14.3-11.51,20.81c-4.48,6.51-7.96,15.64-4.32,23.17c2.05,4.24,5.9,6.91,9.57,9.34
					c16.42,10.86,33.11,21.14,50.05,30.84c0.87,0.5,1.86,1.02,2.77,0.7c1.34-0.45,1.74-2.52,1.16-4.01
					c-0.57-1.49-1.79-2.53-2.95-3.5c-11.39-9.55-22.41-20.06-30.69-33.12s-13.65-28.99-12.57-44.67"/>
				<g>
					<path d="M645.47,446.59c-1.16,6.94-5.66,12.18-9.44,17.38c-4.02,5.52-7.71,12.01-7.94,19.54c-0.11,3.52,0.75,6.98,2.59,9.92
						c1.92,3.05,4.75,5.19,7.53,7.09c6.66,4.55,13.47,8.83,20.26,13.08c6.9,4.32,13.84,8.55,20.82,12.67
						c3.51,2.07,7.02,4.17,10.57,6.14c1.33,0.74,2.8,1.14,4.01,0.05c1.11-1,1.63-2.82,1.56-4.42c-0.17-3.74-3.77-5.84-6.11-7.85
						c-2.88-2.47-5.72-5.01-8.49-7.64c-5.47-5.21-10.67-10.81-15.28-17.02c-9.21-12.39-16.19-27.84-16.68-44.02
						c-0.06-1.97-0.02-3.93,0.11-5.89c0.04-0.68-0.37-1.36-1-1.13c-0.7,0.26-0.98,1.35-1.03,2.08c-1,15.25,3.81,30.57,11.43,43.35
						c7.71,12.94,18.14,23.43,29.02,32.81c1.33,1.15,2.71,2.24,4.02,3.43c0.62,0.57,2.47,2.28,1.96,3.4
						c-0.51,1.11-3.27-0.86-3.89-1.21c-1.68-0.97-3.36-1.94-5.03-2.92c-6.7-3.91-13.37-7.91-19.99-12.01
						c-6.68-4.13-13.32-8.35-19.92-12.67c-5.27-3.45-12.55-7.11-14.12-14.52c-1.45-6.85,2.04-13.57,5.57-18.56
						c3.67-5.2,7.86-10.08,10.15-16.36c0.57-1.55,0.98-3.17,1.26-4.83c0.1-0.6,0-1.61-0.7-1.63
						C646.03,444.85,645.58,445.97,645.47,446.59L645.47,446.59z"/>
				</g>
			</g>
			<g class="st18">
				<path d="M629.62,498.97c-38.83,60.47-76.76,121.71-113.76,183.7c-2.2,3.68-4.49,7.87-3.75,12.36c0.83,5.07,5.14,8.42,9.06,11.13
					c17.36,12.04,34.73,24.08,52.09,36.12c1.21,0.84,2.58,1.71,3.92,1.39c2.68-0.65,2.73-4.91,2.25-8.03
					c-4.53-29.39-2.66-59.4,2.45-88.22c5.11-28.81,13.39-56.61,21.74-84.28c6.8-22.52,13.96-45.6,27.81-63.19"/>
				<g>
					<path d="M629.14,497.8c-10.45,16.27-20.83,32.6-31.15,48.98c-10.28,16.32-20.49,32.7-30.64,49.13
						c-10.18,16.48-20.3,33.02-30.35,49.62c-4.99,8.24-9.96,16.49-14.92,24.75c-2.46,4.1-4.95,8.19-7.37,12.32
						c-1.96,3.35-3.88,7.22-3.76,11.45c0.12,4.14,2.22,7.52,5.01,10.1c3.19,2.94,6.9,5.17,10.38,7.59
						c7.97,5.53,15.94,11.05,23.9,16.58c3.93,2.72,7.85,5.44,11.77,8.16c2.02,1.4,4.04,2.8,6.06,4.21c1.87,1.3,3.71,2.72,5.65,3.88
						c1.5,0.9,3.21,1.21,4.61,0.09c1.19-0.93,1.82-2.55,2.11-4.13c0.72-3.89-0.45-8.17-0.93-12.07
						c-2.39-19.42-2.07-39.08,0.03-58.31c2.13-19.49,6.05-38.59,10.84-57.32c4.75-18.6,10.27-36.92,15.86-55.17
						c4.98-16.26,10.4-32.56,18.91-46.78c2.05-3.42,4.31-6.68,6.73-9.77c0.43-0.55,0.75-1.65,0.4-2.37c-0.35-0.74-1-0.45-1.38,0.04
						c-9.92,12.65-16.53,28.14-21.89,43.96c-2.75,8.1-5.2,16.34-7.68,24.57c-2.75,9.14-5.47,18.29-8.06,27.5
						c-5.13,18.25-9.73,36.74-12.93,55.64c-3.17,18.77-4.95,37.99-4.46,57.29c0.24,9.54,1.06,19.08,2.49,28.54
						c0.21,1.43,0.42,3.02,0.09,4.42c-0.36,1.54-1.79,1.54-2.96,1.01c-1.93-0.88-3.73-2.43-5.5-3.66c-1.96-1.36-3.93-2.72-5.89-4.08
						c-7.85-5.44-15.7-10.89-23.55-16.33c-3.86-2.68-7.73-5.36-11.6-8.04c-3.6-2.49-7.4-4.8-10.79-7.68c-2.7-2.3-5.4-5.48-5.23-9.53
						c0.18-4.05,2.79-7.61,4.68-10.77c4.91-8.21,9.83-16.41,14.77-24.6c9.81-16.26,19.68-32.46,29.61-48.61
						c9.97-16.21,20-32.36,30.1-48.46c10.1-16.1,20.26-32.15,30.48-48.14c2.49-3.89,4.98-7.78,7.47-11.67
						c0.39-0.61,0.77-1.6,0.4-2.37C630.19,497.06,629.48,497.26,629.14,497.8L629.14,497.8z"/>
				</g>
			</g>
			<g class="st18">
				<path d="M509.9,698.46c-6.46,33.91-10.36,68.57-11.65,103.48c5.13-0.57,9.17-5.3,11.05-10.7c1.88-5.4,2-11.43,2.09-17.32
					c0.41-25.32,0.81-50.63,1.22-75.95"/>
				<g>
					<path d="M508.92,698.51c-5.05,26.55-8.53,53.55-10.45,80.78c-0.54,7.7-0.95,15.41-1.24,23.13c-0.02,0.46,0.21,1.27,0.74,1.2
						c5.45-0.69,9.55-5.38,11.75-10.8c2.56-6.33,2.59-13.59,2.71-20.53c0.26-15.92,0.51-31.84,0.77-47.76
						c0.15-9.01,0.29-18.02,0.43-27.03c0.01-0.68-0.35-1.37-1-1.13c-0.67,0.25-1.02,1.35-1.03,2.08
						c-0.24,15.07-0.49,30.13-0.73,45.2c-0.12,7.61-0.25,15.22-0.37,22.83c-0.11,6.81,0.22,13.92-1.06,20.56
						c-1.21,6.28-4.89,12.46-10.92,13.23c0.25,0.4,0.5,0.8,0.74,1.2c1.01-27.12,3.59-54.07,7.74-80.66
						c1.17-7.5,2.46-14.97,3.88-22.4c0.11-0.6-0.01-1.61-0.7-1.63C509.46,696.77,509.03,697.89,508.92,698.51L508.92,698.51z"/>
				</g>
			</g>
		</g>
		<g id="Ebene_10_1_">
			<g class="st18">
				<g>
					<path class="st19" d="M694.39,430.84c4.87,3.73,10.48,5.51,15.54,8.77c0.37,0.24-0.31-0.23,0.05,0.03
						c0.1,0.07,0.2,0.15,0.3,0.22c0.23,0.17,0.45,0.35,0.67,0.53c0.43,0.37,0.85,0.78,1.22,1.23c0.16,0.2,0.32,0.4,0.46,0.62
						c0.06,0.09,0.38,0.67,0.22,0.33c0.26,0.53,0.43,1.12,0.54,1.71c0.55,2.93-0.45,5.78-1.45,8.36c-1.43,3.68-3.19,7.17-4.26,11.03
						c-0.56,2.01,2.96,2.01,3.92,1.95c1.31-0.08,2.66-0.28,3.87-0.81c0.66-0.29,1.9-0.73,2.14-1.58c0.96-3.46,2.48-6.63,3.81-9.9
						c1.17-2.86,2.39-6.06,2.24-9.35c-0.27-6.14-6.62-8.73-10.81-10.77c-3.03-1.47-6.29-3.01-8.86-4.98
						c-1.79-1.37-4.53-1.02-6.45-0.45C697.06,427.93,692.79,429.61,694.39,430.84L694.39,430.84z"/>
				</g>
			</g>
			<g class="st18">
				<g>
					<path class="st19" d="M696.13,490.98c-2.52,4.32-5.05,8.64-7.57,12.96c-0.39,0.67,0.31,1.25,0.75,1.49
						c0.9,0.48,2.24,0.52,3.17,0.46c1.86-0.11,4.87-0.45,6.01-2.39c2.52-4.32,5.05-8.64,7.57-12.96c0.39-0.67-0.31-1.25-0.75-1.49
						c-0.9-0.48-2.24-0.52-3.17-0.46C700.27,488.7,697.26,489.03,696.13,490.98L696.13,490.98z"/>
				</g>
			</g>
			<g class="st18">
				<g>
					<path class="st19" d="M666.33,536.81c-11.18,20.78-22.47,41.48-33.8,62.14c-10.77,19.64-21.57,39.27-32.3,58.94
						c-6.2,11.37-12.38,22.75-18.52,34.17c-0.99,1.84,3.29,1.99,3.92,1.95c1.31-0.08,2.66-0.28,3.87-0.81
						c0.78-0.34,1.68-0.73,2.14-1.58c10.81-20.09,21.74-40.1,32.7-60.09c10.88-19.83,21.78-39.65,32.6-59.51
						c6.47-11.86,12.91-23.74,19.31-35.65c0.99-1.84-3.29-1.99-3.92-1.95c-1.31,0.08-2.66,0.28-3.87,0.81
						C667.68,535.57,666.78,535.96,666.33,536.81L666.33,536.81z"/>
				</g>
			</g>
			<g class="st18">
				<g>
					<path class="st19" d="M517.12,779.3c10.32-9.18,20.99-17.57,32.02-25.14c3.21-2.2,6.45-4.34,9.73-6.43
						c0.42-0.27,1.38-0.89,1.26-1.67c-0.12-0.76-1.22-1.1-1.71-1.21c-2.26-0.49-5.17-0.15-7.16,1.12
						c-11.79,7.5-23.18,15.78-34.08,24.81c-3.08,2.55-6.11,5.16-9.11,7.82c-1.76,1.56,1.25,2.43,2.25,2.5
						C512.54,781.25,515.33,780.89,517.12,779.3L517.12,779.3z"/>
				</g>
			</g>
		</g>
	</g>
</g>
</svg>
