<?xml version="1.0" encoding="utf-8"?>
<!-- Generator: Adobe Adobe Illustrator 24.2.0, SVG Export Plug-In . SVG Version: 6.00 Build 0)  -->
<svg version="1.1" xmlns="http://www.w3.org/2000/svg" xmlns:xlink="http://www.w3.org/1999/xlink" x="0px" y="0px"
	 viewBox="0 0 1080 1080" style="enable-background:new 0 0 1080 1080;" xml:space="preserve">
<style type="text/css">
	.st0{fill:#FFFFFF;stroke:#000000;stroke-width:8;stroke-linecap:round;stroke-linejoin:round;stroke-miterlimit:10;}
	.st1{fill:#FFBABA;}
	.st2{opacity:0.0706;}
	.st3{opacity:0.0706;fill:none;stroke:#000000;stroke-width:30;stroke-linecap:round;stroke-linejoin:round;stroke-miterlimit:10;}
	.st4{fill:#E89E9E;}
	.st5{stroke:#000000;stroke-width:8;stroke-linecap:round;stroke-linejoin:round;stroke-miterlimit:10;}
	.st6{fill:none;stroke:#000000;stroke-width:8;stroke-linecap:round;stroke-linejoin:round;stroke-miterlimit:10;}
	.st7{opacity:0.2392;fill:none;stroke:#FFFFFF;stroke-width:20;stroke-linecap:round;stroke-linejoin:round;stroke-miterlimit:10;}
	.st8{opacity:0.2392;fill:none;stroke:#000000;stroke-width:20;stroke-linecap:round;stroke-linejoin:round;stroke-miterlimit:10;}
	.st9{fill:none;stroke:#000000;stroke-width:20;stroke-linecap:round;stroke-linejoin:round;stroke-miterlimit:10;}
	.st10{fill:#FFFFFF;}
	.st11{opacity:0.149;}
	.st12{fill:#F4F5E9;}
	.st13{fill:#F4F6E7;}
	.st14{stroke:#000000;stroke-width:0.3462;stroke-miterlimit:10;}
	.st15{fill:#6378B7;}
	.st16{fill:#C93269;}
	.st17{fill:#C9316B;}
	.st18{fill:#6478B8;}
	.st19{fill:#F3C057;stroke:#000000;stroke-width:1.216;stroke-miterlimit:10;}
</style>
<g id="Ebene_2">
	<path class="st0" d="M125.15,502.65c-198.99,69.78-86.69,341.75,101.2,291.26c3.05,25.7,84.24,42.25,108.18,8.96
		c15.44,35.11,156.97,88.69,217.42,4.61c28.19,41.06,124.93,68.59,184.54,17.75c262.78,86.73,252-343.83,49.12-325.17
		c11.32-57-104.56-95.15-138.26-63.81c-10.22-162.94-262.1-145.81-277.39-50.56C293.69,332.95,147.53,363.24,125.15,502.65z"/>
</g>
<g id="Ebene_4">
	<path class="st1" d="M193.32,571.69c3.02,31.3,122.2,15.34,119.93-21.17C311.01,514.47,188.89,525.86,193.32,571.69z"/>
	<path class="st1" d="M552.28,567.84c-6.9,30.67,111.29,52.73,120.54,17.34C681.96,550.23,562.39,522.92,552.28,567.84z"/>
</g>
<g id="Ebene_9">
	<path class="st3" d="M354.93,408.21c-36.49-18.77-81.64-19.74-118.9-2.56s-65.85,52.13-75.29,92.07"/>
	<path class="st3" d="M129.88,532.84c-163.69,82.59-37.61,260.82,74.6,233.74"/>
	<path class="st3" d="M400.36,398.3c60.86-86.68,190.02-51.1,212.3,25.67"/>
	<path class="st3" d="M660.85,461.9c39.27-14.61,95.69,8.91,99.15,48.01"/>
	<path class="st3" d="M362.02,788.99c44.66,44.66,110.34,48.92,161.6,3.21"/>
	<path class="st3" d="M578.84,799.29c34.68,31.02,90.56,35.18,129.45,9.64"/>
	<path class="st3" d="M798.81,532.84c144.41,0,167.78,313.34-36.81,273.83"/>
</g>
<g id="Ebene_16">
	<path d="M291.51,559.2c38.92,31.52,88.43,48.85,138.41,52.1c49.98,3.25,100.36-7.13,146.53-26.53
		c-7.22,27.18-14.51,54.54-26.54,79.96c-12.03,25.42-29.21,49.07-52.7,64.53c-28.51,18.76-64.41,24.04-98.29,19.94
		c-28.55-3.45-56.67-13.46-79.26-31.25c-22.59-17.79-39.29-43.72-43.31-72.19C272.25,616.74,281.13,587.61,291.51,559.2z"/>
</g>
<g id="Ebene_15">
	<path class="st4" d="M306.87,699.46c19.75-17.69,45.83-28.16,72.32-29.05c26.5-0.88,53.22,7.83,74.1,24.16
		c21.21-36.97,62.95-61.22,105.57-61.34c-2.66,30.84-16.6,60.59-38.6,82.36c-22,21.78-51.88,35.42-82.75,37.77
		c-17.42,1.33-34.96-0.82-52.02-4.59c-15.83-3.5-31.49-8.45-45.51-16.57C325.95,724.08,313.58,712.59,306.87,699.46z"/>
</g>
<g id="Ebene_13">
	
		<ellipse transform="matrix(0.0774 -0.997 0.997 0.0774 -116.7125 875.7769)" class="st5" cx="414.86" cy="500.95" rx="43.42" ry="14.5"/>
	
		<ellipse transform="matrix(0.0774 -0.997 0.997 0.0774 -62.5525 952.2207)" class="st5" cx="483.24" cy="509.91" rx="43.42" ry="14.5"/>
	<path class="st6" d="M290.88,554.65c26.22,42.31,119.66,53.59,146.77,55.75c35.39,2.81,100.01-4.12,141.2-27.13
		c-35.2,104.45-35.01,108.27-70.99,141.68c-29.51,27.41-74.04,32.35-113.74,25.6c-40.99-6.97-78.66-29.29-102.87-63.09
		C254.72,636.49,286.06,577.78,290.88,554.65z"/>
	<path class="st6" d="M303.82,701.39c19.41-19.25,46.2-30.87,73.51-31.87c27.32-1.01,54.89,8.61,75.66,26.38
		c17.34-35.81,65.68-62.44,105.46-63.32"/>
</g>
<g id="Ebene_17">
	<path class="st7" d="M419.91,631.52c44.46,4.29,90.03-3.49,130.55-22.29"/>
	<path class="st8" d="M310.09,696.68c32.57,35.06,166.72,85.92,223.75-12.23c9.31-16.02,21.17-51.54,21.27-51.15"/>
</g>
<g id="Ebene_18">
	<circle class="st10" cx="421.14" cy="474.96" r="4.75"/>
	<circle class="st10" cx="421.14" cy="474.96" r="4.75"/>
	<ellipse class="st10" cx="489.97" cy="474.96" rx="4.78" ry="4.75"/>
</g>
<g id="Ebene_10">
	<g>
		<g id="Ebene_3">
			<g class="st11">
				<g>
					<path d="M571.26,351.05c1.56,0.63,4.66-2.63,2.95-3.32C572.66,347.09,569.55,350.36,571.26,351.05L571.26,351.05z"/>
				</g>
			</g>
			<g class="st11">
				<path d="M569.71,347.11c-10.52,31.08-21.03,62.16-31.55,93.25c35.81-11.04,71.61-22.07,107.42-33.11
					c19.96-6.15,41.92-19.63,60.93-10.66c19.69,9.3,43.17,18.58,61.99,27.47c45.34,21.41,82.61,33.55,131.35,45.56
					c14.91,3.67,42.06-1.18,56.7-7.07c17.82-7.18,24.71-20.13,33.37-37.97c33.56-69.16,50.79-145.26,60.28-221.25
					c2.35-18.84,3.77-39.72-7.01-54.45c-9.54-13.04-26.13-17.7-41.64-21.32C878.47,98.9,750.61,89.38,623.37,99.41
					c-14.04,1.11-29.19,2.94-39.9,12.88c-8.46,7.85-13.94,19.09-16.18,30.51c-9.55,48.56-16.93,80.22-29.51,130.15
					c-3.55,14.1-7.32,36.92,0.78,48.26c7.93,11.09,20.02,15.91,32.39,19.28c0.16,2.44,0.31,4.88,0.47,7.32"/>
				<g>
					<path d="M567.92,347.38c-10.52,31.08-21.03,62.16-31.55,93.25c-0.44,1.29,0.53,1.7,1.58,1.37
						c27.42-8.45,54.84-16.9,82.26-25.35c12.15-3.74,24.42-7.16,36.35-11.71c9.83-3.75,19.77-8.04,30.16-9.26
						c5.17-0.61,10.46-0.33,15.33,1.36c5.64,1.96,11.02,4.95,16.48,7.36c11.51,5.09,23.11,9.95,34.63,15.02
						c11.61,5.12,23.02,10.68,34.67,15.71c11.63,5.03,23.41,9.71,35.33,13.99c23.8,8.54,48.15,15.44,72.7,21.55
						c9.67,2.41,19.45,2.3,29.44,1.06c9.98-1.24,20.1-3.4,29.65-7.02c9.36-3.55,17.52-9.39,23.77-17.62
						c6.68-8.8,11.35-19.21,16.02-29.2c12.18-26.03,22.14-53.08,30.27-80.62c8.01-27.12,14.27-54.72,19.22-82.49
						c2.49-13.99,4.66-28.04,6.54-42.11c1.57-11.73,3.27-23.57,2.91-35.37c-0.32-10.4-2.47-20.89-8.34-29.26
						c-6.8-9.68-17.55-15-28.39-18.44c-11.87-3.77-24.24-6.15-36.43-8.75c-12.81-2.73-25.68-5.26-38.58-7.58
						c-51.31-9.23-103.29-15.19-155.55-17.87c-52.09-2.66-104.48-2.07-156.76,1.82c-10.81,0.8-21.91,1.43-32.33,5.28
						c-10.52,3.89-19.01,11.48-24.74,21.53c-6.57,11.52-8.18,24.65-10.77,37.42c-2.44,12-4.97,23.99-7.63,35.95
						c-5.44,24.5-11.41,48.89-17.54,73.24c-4.52,17.94-9.97,41.78,3.56,56.12c7.95,8.42,18.79,12.52,29.64,15.51
						c-0.26-0.22-0.52-0.45-0.78-0.67c0.16,2.44,0.31,4.88,0.47,7.32c0.12,1.88,3.89-0.43,3.78-2.2c-0.16-2.44-0.31-4.88-0.47-7.32
						c-0.03-0.42-0.47-0.59-0.78-0.67c-11.62-3.2-23.31-7.9-30.95-17.86c-5.69-7.41-5.95-17.77-5.19-27.07
						c0.86-10.35,3.47-20.38,5.99-30.46c3.07-12.25,6.09-24.51,9.02-36.79c5.52-23.15,10.61-46.39,15.32-69.71
						c2.62-12.95,4.44-25.94,12.33-36.98c7.02-9.82,16.98-14.62,28.14-16.75c11.4-2.17,23.11-2.54,34.6-3.27
						c12.73-0.81,25.46-1.43,38.19-1.85c25.94-0.86,51.87-0.9,77.75-0.13c50.8,1.5,101.39,6.1,151.43,13.78
						c25.33,3.89,50.51,8.56,75.51,14.02c11.87,2.59,24.09,4.83,35.44,9.22c10.48,4.06,19.99,10.51,25.22,21.05
						c4.64,9.34,5.43,20.43,5,30.96c-0.51,12.26-2.43,24.54-4.18,36.71c-3.96,27.61-9.02,55.11-15.64,82.28
						c-6.6,27.09-14.77,53.86-24.9,79.89c-5.09,13.08-10.67,25.97-16.78,38.6c-4.54,9.39-9.2,19.22-16.55,26.69
						c-7.08,7.19-16.27,10.76-25.54,13.3c-10.15,2.78-20.72,4.52-31.13,4.73c-11.03,0.22-21.33-2.99-31.83-5.76
						c-12.24-3.23-24.4-6.69-36.45-10.53c-23.52-7.49-46.51-16.47-68.95-26.74c-22.16-10.15-44.7-19.46-66.81-29.7
						c-4.61-2.14-9.08-3.97-14.21-4.41c-4.56-0.39-9.2,0.06-13.73,1c-10.07,2.09-19.66,6.3-29.35,9.9
						c-12.16,4.51-24.7,7.9-37.04,11.7c-13.23,4.08-26.45,8.15-39.68,12.23c-12.9,3.98-25.81,7.95-38.71,11.93
						c0.53,0.46,1.05,0.92,1.58,1.37c10.52-31.08,21.03-62.16,31.55-93.25C572.36,344.28,568.49,345.7,567.92,347.38L567.92,347.38z
						"/>
				</g>
			</g>
			<g class="st11">
				<g>
					<path d="M902.06,568.19c1.56,0.63,4.66-2.63,2.95-3.32C903.45,564.23,900.35,567.5,902.06,568.19L902.06,568.19z"/>
				</g>
			</g>
		</g>
		<g id="Ebene_3_Kopie">
			<g>
				<g>
					<path class="st12" d="M585.88,341.82c1.56,0.63,4.66-2.63,2.95-3.32C587.27,337.87,584.17,341.13,585.88,341.82L585.88,341.82z
						"/>
				</g>
			</g>
			<g>
				<path class="st13" d="M584.33,337.88c-10.52,31.08-21.03,62.16-31.55,93.25c35.81-11.04,71.61-22.07,107.42-33.11
					c19.96-6.15,41.92-19.63,60.93-10.66c19.69,9.3,43.17,18.58,61.99,27.47c45.34,21.41,82.61,33.55,131.35,45.56
					c14.91,3.67,42.06-1.18,56.7-7.07c17.82-7.18,24.71-20.13,33.37-37.97c33.56-69.16,50.79-145.26,60.28-221.25
					c2.35-18.84,3.77-39.72-7.01-54.45c-9.54-13.04-26.13-17.7-41.64-21.32C893.09,89.67,765.23,80.15,637.99,90.18
					c-14.04,1.11-29.19,2.94-39.9,12.88c-8.46,7.85-13.94,19.09-16.18,30.51c-9.55,48.56-16.93,80.22-29.51,130.15
					c-3.55,14.1-4.37,35.09,0.78,48.26c5.15,13.16,18.99,23.42,32.39,19.28c0.16,2.44,0.31,4.88,0.47,7.32"/>
				<g>
					<path class="st12" d="M582.54,338.15c-10.52,31.08-21.03,62.16-31.55,93.25c-0.44,1.29,0.53,1.7,1.58,1.37
						c27.42-8.45,54.84-16.9,82.26-25.35c12.39-3.82,24.89-7.32,37.05-11.98c9.81-3.76,19.77-8,30.16-9.07
						c5.06-0.52,10.21-0.15,14.97,1.56c5.52,1.98,10.78,4.88,16.14,7.25c11.77,5.21,23.65,10.17,35.43,15.37
						c11.62,5.14,23.05,10.7,34.72,15.73c11.75,5.06,23.67,9.77,35.72,14.06c23.86,8.5,48.28,15.37,72.89,21.46
						c9.59,2.37,19.7,1.85,29.55,0.5c9.74-1.33,19.65-3.48,28.95-7.14c9.46-3.72,17.5-9.88,23.69-18.31
						c6.68-9.09,11.39-19.81,16.12-30.03c12.08-26.08,21.94-53.17,29.99-80.73c8.02-27.47,14.27-55.42,19.18-83.54
						c2.45-14,4.56-28.05,6.41-42.12c1.5-11.38,3.01-22.85,2.43-34.28c-0.54-10.58-3.21-21.17-9.72-29.28
						c-7.31-9.08-18.13-13.88-28.92-17.11c-12.3-3.68-25.03-6.16-37.6-8.81c-12.67-2.67-25.39-5.13-38.15-7.4
						c-51.64-9.17-103.95-15.04-156.53-17.57c-52.26-2.52-104.81-1.75-157.24,2.32c-10.64,0.83-21.63,1.82-31.64,6.4
						c-10.28,4.71-18.1,13.36-23.17,23.74c-2.85,5.83-4.5,11.95-5.75,18.27c-1.32,6.67-2.66,13.34-4.02,20
						c-2.44,11.87-4.97,23.73-7.63,35.56c-2.65,11.82-5.43,23.62-8.28,35.41c-3.13,12.93-6.68,25.79-9.59,38.77
						c-2.37,10.6-3.02,21.77-1.91,32.44c1.1,10.53,4.53,20.46,12.23,27.44c6.86,6.22,15.82,9.24,25.02,6.57
						c-0.56-0.18-1.12-0.36-1.68-0.54c0.16,2.44,0.31,4.88,0.47,7.32c0.12,1.88,3.89-0.43,3.78-2.2c-0.16-2.44-0.31-4.88-0.47-7.32
						c-0.06-0.84-1.19-0.68-1.68-0.54c-10.07,2.93-20.04-2.81-26.06-10.63c-6.38-8.29-8.11-19.28-8.28-29.87
						c-0.18-11.32,1.85-22.06,4.61-33.07c3.09-12.34,6.15-24.68,9.1-37.05c5.56-23.26,10.7-46.6,15.44-70.02
						c2.59-12.76,4.24-25.75,11.59-36.88c6.72-10.17,16.38-15.55,27.65-17.93c11.41-2.4,23.19-2.73,34.7-3.48
						c12.88-0.84,25.77-1.47,38.66-1.91c25.63-0.87,51.25-0.93,76.82-0.22c51.11,1.43,102.02,6.01,152.38,13.7
						c25.33,3.87,50.52,8.53,75.52,13.97c11.9,2.59,24.14,4.83,35.55,9.12c10.54,3.96,20.25,10.23,25.68,20.7
						c4.8,9.24,5.73,20.3,5.36,30.83c-0.43,12.35-2.38,24.73-4.13,36.99c-3.92,27.44-8.93,54.78-15.47,81.79
						c-6.6,27.27-14.79,54.21-24.95,80.41c-5.08,13.08-10.65,25.98-16.75,38.62c-4.51,9.34-9.1,19.11-16.29,26.65
						c-6.98,7.32-16.07,11.01-25.34,13.6c-10.2,2.86-20.83,4.63-31.3,4.91c-11.22,0.3-21.66-2.93-32.34-5.74
						c-12.09-3.19-24.12-6.61-36.04-10.4c-23.51-7.47-46.5-16.42-68.93-26.67c-11.19-5.11-22.33-10.27-33.62-15.14
						c-11.24-4.84-22.51-9.61-33.62-14.76c-4.5-2.08-8.86-3.9-13.87-4.38c-4.67-0.45-9.43,0.01-14.07,0.97
						c-10.07,2.08-19.66,6.3-29.35,9.9c-12.16,4.51-24.7,7.9-37.04,11.7c-13.23,4.08-26.45,8.15-39.68,12.23
						c-12.9,3.98-25.81,7.95-38.71,11.93c0.53,0.46,1.05,0.92,1.58,1.37c10.52-31.08,21.03-62.16,31.55-93.25
						C586.98,335.05,583.11,336.48,582.54,338.15L582.54,338.15z"/>
				</g>
			</g>
			<g>
				<g>
					<path class="st12" d="M916.68,558.96c1.56,0.63,4.66-2.63,2.95-3.32C918.07,555.01,914.97,558.27,916.68,558.96L916.68,558.96z
						"/>
				</g>
			</g>
		</g>
		<g id="Ebene_2_1_">
			<g>
				<g>
					<path d="M585.59,332.66c-8.23-2.2-16.62-4.99-23.53-10.15c-3.33-2.49-6.27-5.65-8.21-9.46c-2.19-4.29-3.02-9.42-3.42-14.28
						c-0.87-10.48,0.96-21.13,3-31.48c2.4-12.14,4.92-24.25,7.38-36.38c5.05-24.85,10.1-49.71,15.15-74.56
						c4.17-20.51,8.51-45.43,27.68-57.17c8.26-5.06,17.73-7.17,27.02-8.3c10.32-1.26,20.72-1.52,31.06-1.89
						c22.89-0.82,45.78-0.84,68.62-0.23c45.39,1.21,90.6,4.92,135.59,9.93c44.93,5,89.66,11.3,134.35,17.76
						c10.79,1.56,21.83,2.63,32.39,5.32c9.99,2.54,19.49,7.29,25.27,16.36c10.27,16.12,7.45,38.65,5.91,57.29
						c-3.94,47.48-13.36,94.7-28,140.3c-7.03,21.91-15.05,43.72-24.78,64.59c-8.17,17.53-18.45,35.2-33.69,47.13
						c-15.95,12.47-35.35,14.99-54.15,12.45c-20.68-2.81-40.64-10.16-60.24-16.87c-41.87-14.33-82.71-31.35-123.29-48.94
						c-10.35-4.48-20.68-8.99-31.02-13.5c-1.54-0.67-4.66,2.58-2.95,3.32c42.3,18.43,84.56,37.02,127.86,53.02
						c21.23,7.85,42.68,15.47,64.51,21.57c18.33,5.12,38.03,8.55,57.11,3.25c39.74-11.03,58.23-56.24,72.11-92.22
						c17.7-45.91,30.06-93.88,36.71-142.44c1.69-12.31,3.01-24.66,3.95-37.02c0.78-10.26,1.55-20.62,0.66-30.82
						c-0.78-9.06-3.02-18.2-8.2-25.47c-6.04-8.48-15.4-12.91-25.1-15.44c-10.84-2.82-22.19-3.89-33.28-5.49
						c-11.68-1.68-23.36-3.36-35.04-5c-23.22-3.27-46.47-6.41-69.76-9.27c-46.35-5.69-92.89-10.28-139.66-12.43
						c-23.42-1.08-46.89-1.55-70.39-1.24c-11.5,0.15-23.02,0.48-34.53,1.01c-9.98,0.46-20.04,0.87-29.91,3
						c-9.13,1.97-18.14,5.48-25.58,11.71c-8.15,6.83-13.61,16.31-17.26,26.33c-3.87,10.65-5.94,21.85-8.18,32.9
						c-2.59,12.77-5.19,25.54-7.79,38.32c-5.1,25.08-10.64,50.12-15.23,75.28c-1.88,10.34-3.18,20.99-1.63,31.32
						c1.41,9.42,5.59,16.66,13.15,21.88c6.92,4.78,15.08,7.4,23.13,9.56C584.92,336.62,587.76,333.24,585.59,332.66L585.59,332.66z"
						/>
				</g>
			</g>
			<g>
				<g>
					<path d="M591.09,313.42c-5.44,15.46-11.02,30.88-16.6,46.29c-5.97,16.49-11.96,32.97-17.9,49.47
						c-2.99,8.32-5.97,16.64-8.9,24.98c-0.29,0.84,0.12,1.74,1.1,1.5c23.94-5.88,47.74-12.51,71.34-19.92
						c24.32-7.64,48.45-16.11,72.17-25.81c12.66-5.18,25.2-10.74,37.54-16.78c0.77-0.38,1.84-1.55,1.6-2.5
						c-0.26-1.05-1.52-0.62-2.18-0.3c-22.07,10.82-44.81,20-67.76,28.31c-23.89,8.65-48.07,16.31-72.41,23.2
						c-12.93,3.66-25.91,7.09-38.93,10.29c0.37,0.5,0.73,1,1.1,1.5c5.44-15.46,11.02-30.88,16.6-46.29
						c5.97-16.49,11.96-32.97,17.9-49.47c2.99-8.32,5.97-16.64,8.9-24.98c0.33-0.94-0.17-1.59-1.1-1.5
						C592.58,311.49,591.43,312.45,591.09,313.42L591.09,313.42z"/>
				</g>
			</g>
			<g>
				<g>
					<path d="M1016.14,422.88c-8.14,17.31-21.37,32.1-37.32,41.89c-16.42,10.07-35.43,14.47-53.97,12.91
						c-10.58-0.89-20.87-3.67-30.38-8.28c-1.51-0.73-4.65,2.5-2.95,3.32c17.63,8.56,38.05,10.95,57.58,6.91
						c19.32-4,37.26-14.36,51.33-29.08c7.88-8.24,14.41-17.8,19.3-28.2c0.44-0.93-0.25-1.58-1.1-1.5
						C1017.55,420.96,1016.59,421.92,1016.14,422.88L1016.14,422.88z"/>
				</g>
			</g>
		</g>
		<g id="Ebene_5">
			
				<ellipse transform="matrix(0.3761 -0.9266 0.9266 0.3761 162.158 788.6611)" class="st14" cx="666.72" cy="273.92" rx="22.91" ry="20.68"/>
			
				<ellipse transform="matrix(0.3761 -0.9266 0.9266 0.3761 183.9724 892.5312)" class="st14" cx="754.76" cy="309.65" rx="22.91" ry="20.68"/>
			
				<ellipse transform="matrix(0.3761 -0.9266 0.9266 0.3761 204.4524 990.0471)" class="st14" cx="837.41" cy="343.2" rx="22.91" ry="20.68"/>
		</g>
	</g>
</g>
<g id="Ebene_11">
	<g>
		<path class="st15" d="M981.23,493.54c-4.56,6.51-9.12,13.03-13.68,19.54c8.5-4.49,20.6,2.1,21.43,11.69
			c-3.5-9.11,0.81-20.5,9.45-25.02c-6.46,3.01-15.05-0.02-18.2-6.41"/>
		<g>
			<path d="M979.88,493.51c-4.56,6.51-9.12,13.03-13.68,19.54c-0.3,0.42,0.07,0.72,0.46,0.82c0.6,0.15,1.26-0.09,1.79-0.36
				c3.83-1.96,8.52-0.96,12.08,1.14c3.8,2.25,6.56,6.07,7,10.5c0.97-0.26,1.93-0.52,2.9-0.78c-3.3-8.84,0.51-19.71,8.9-24.2
				c0.43-0.23,0.75-0.68,0.35-1.06c-0.41-0.39-1.4-0.15-1.82,0.04c-5.9,2.65-13.32-0.6-16.18-6.21c-0.5-0.99-3.32-0.06-2.9,0.78
				c3.67,7.21,13,9.86,20.22,6.62c-0.49-0.34-0.98-0.68-1.47-1.02c-8.96,4.79-13.58,16.24-10,25.84c0.37,1,3,0.27,2.9-0.78
				c-0.51-5.17-4.13-9.45-8.68-11.72c-4.77-2.38-10.35-2.44-15.1-0.01c0.75,0.15,1.5,0.31,2.25,0.46
				c4.56-6.51,9.12-13.03,13.68-19.54c0.4-0.57-0.34-0.83-0.79-0.85C981.15,492.68,980.26,492.96,979.88,493.51L979.88,493.51z"/>
		</g>
	</g>
	<g>
		<path class="st16" d="M1056.42,356.57c1.35-4.68-6.15-8.06-9.73-4.76s-2.68,9.53,0.57,13.15c3.25,3.62,8.09,5.29,12.71,6.83
			c6.37-5.94,10.6-14.14,11.74-22.78c-5.93-3.81-15.21,1.23-15.24,8.28"/>
		<g>
			<path d="M1057.87,356.39c0.64-2.51-0.91-4.65-3.08-5.77c-2.45-1.27-5.61-1.28-8.03,0.08c-2.67,1.5-3.91,4.5-3.82,7.46
				c0.1,3.41,1.81,6.54,4.37,8.73c3.29,2.82,7.46,4.25,11.5,5.59c0.73,0.24,1.73,0.08,2.31-0.46c6.5-6.13,10.81-14.34,12.03-23.2
				c0.04-0.26-0.08-0.39-0.3-0.52c-6.66-4.1-17.65,1.08-17.84,9.16c-0.03,1.19,2.87,0.6,2.9-0.36c0.15-6.14,7.18-10.76,12.64-7.4
				c-0.1-0.17-0.2-0.35-0.3-0.52c-1.17,8.51-5.19,16.46-11.45,22.36c0.77-0.15,1.54-0.31,2.31-0.46
				c-6.67-2.22-15.74-5.74-15.27-14.31c0.15-2.75,1.72-5.95,4.89-5.36c2.51,0.46,4.92,2.61,4.23,5.34
				C1054.7,357.81,1057.62,357.38,1057.87,356.39L1057.87,356.39z"/>
		</g>
	</g>
	<g>
		<path class="st17" d="M532.58,177.39c1.85-5.72-7.35-10.12-11.82-6.11c-4.47,4.01-3.43,11.73,0.57,16.21
			c4,4.48,9.98,6.54,15.69,8.43c4.94-4.2,10.09-8.69,12.25-14.81c2.16-6.11,0.01-14.26-6.13-16.38c-6.13-2.11-13.39,6.22-9.07,11.06
			"/>
		<g>
			<path d="M534.03,177.21c0.97-3.28-1.31-6.11-4.2-7.4c-3.19-1.42-7.25-1.21-10.02,1.05c-3.14,2.58-3.94,6.91-3.1,10.73
				c0.98,4.42,3.97,7.77,7.71,10.15c2.09,1.33,4.36,2.34,6.68,3.22c1.07,0.41,2.16,0.79,3.24,1.15c1.21,0.41,2.37,0.97,3.58,0.24
				c0.99-0.6,1.87-1.56,2.74-2.32c0.97-0.86,1.93-1.73,2.86-2.64c1.75-1.72,3.4-3.56,4.76-5.6c2.38-3.58,3.7-7.66,3.14-11.97
				c-0.48-3.68-2.37-7.31-5.7-9.15c-3.7-2.04-8.26-0.92-11.28,1.84c-2.76,2.52-4.37,6.71-1.69,9.87c0.64,0.76,3.42-0.27,2.69-1.13
				c-2.03-2.39-1.16-5.62,0.81-7.75c2.16-2.34,4.97-2.89,7.68-1.1c2.74,1.8,4.18,5.05,4.59,8.21c0.5,3.79-0.59,7.43-2.61,10.63
				c-2.6,4.13-6.36,7.34-10.04,10.47c0.77-0.15,1.54-0.31,2.31-0.46c-6.85-2.27-15.19-5.06-17.98-12.45
				c-1.13-2.98-1.36-6.61,0.29-9.45c1.47-2.54,3.81-3.31,6.54-2.31c2.72,1,5.01,3.53,4.12,6.57
				C530.84,178.59,533.74,178.2,534.03,177.21L534.03,177.21z"/>
		</g>
	</g>
	<g>
		<path class="st18" d="M1024.54,69.41c-5.58,7.77-13.88,13.54-23.11,16.06c10.98-1.46,22.3,7.22,23.72,18.21
			c3.51-9.12,11.02-16.62,20.15-20.11c-9.18,5.07-22.26-4.99-19.71-15.16"/>
		<g>
			<path d="M1023.19,69.38c-5.37,7.41-13.13,12.91-21.96,15.37c-0.4,0.11-1.3,0.46-1.25,1.01c0.05,0.56,0.84,0.57,1.25,0.52
				c10.64-1.31,21.01,7.37,22.47,17.79c0.16,1.12,2.64,0.08,2.9-0.57c3.43-8.77,10.49-15.91,19.27-19.33
				c-0.49-0.34-0.98-0.68-1.47-1.02c-4.13,2.21-9.28,0.34-12.61-2.49c-3.6-3.05-5.87-7.68-4.75-12.43c0.25-1.07-2.66-0.63-2.9,0.36
				c-1.31,5.56,1.7,10.97,6.19,14.14c4.7,3.32,10.74,4.01,15.87,1.27c0.43-0.23,0.75-0.68,0.35-1.06c-0.42-0.4-1.38-0.13-1.82,0.04
				c-9.55,3.71-17.29,11.34-21.02,20.88c0.97-0.19,1.93-0.38,2.9-0.57c-1.63-11.68-13.45-20.04-24.97-18.62c0,0.51,0,1.02,0,1.53
				c9.71-2.7,18.35-8.59,24.27-16.75c0.41-0.56-0.35-0.83-0.79-0.85C1024.45,68.56,1023.59,68.84,1023.19,69.38L1023.19,69.38z"/>
		</g>
	</g>
	<g>
		<g>
			<path d="M544.55,110.23c-1.02,5.76-2.03,11.51-3.05,17.27c-0.2,1.11,2.72,0.63,2.9-0.36c1.02-5.76,2.03-11.51,3.05-17.27
				C547.64,108.76,544.73,109.24,544.55,110.23L544.55,110.23z"/>
		</g>
	</g>
	<g>
		<g>
			<path d="M551.66,112.27c-1.02,5.76-2.03,11.51-3.05,17.27c-0.2,1.11,2.72,0.63,2.9-0.36c1.02-5.76,2.03-11.51,3.05-17.27
				C554.76,110.79,551.84,111.28,551.66,112.27L551.66,112.27z"/>
		</g>
	</g>
	<g>
		<g>
			<path d="M541.11,118.91c6.1-1.35,12.19-2.71,18.29-4.06c0.43-0.09,1.41-0.52,1.25-1.11c-0.16-0.61-1.24-0.43-1.64-0.34
				c-6.1,1.35-12.19,2.71-18.29,4.06c-0.43,0.09-1.41,0.52-1.25,1.11C539.63,119.18,540.71,118.99,541.11,118.91L541.11,118.91z"/>
		</g>
	</g>
	<g>
		<g>
			<path d="M541.11,125c6.77-1.35,13.55-2.71,20.32-4.06c0.43-0.09,1.41-0.53,1.25-1.11c-0.16-0.62-1.24-0.42-1.64-0.34
				c-6.77,1.35-13.55,2.71-20.32,4.06c-0.43,0.09-1.41,0.53-1.25,1.11C539.64,125.28,540.71,125.08,541.11,125L541.11,125z"/>
		</g>
	</g>
	<g>
		<g>
			<path d="M1042.39,398.27c-1.69,8.13-3.39,16.26-5.08,24.38c-0.23,1.09,2.69,0.63,2.9-0.36c1.69-8.13,3.39-16.26,5.08-24.38
				C1045.52,396.82,1042.6,397.28,1042.39,398.27L1042.39,398.27z"/>
		</g>
	</g>
	<g>
		<g>
			<path d="M1050.52,402.34c-2.03,6.77-4.06,13.55-6.1,20.32c-0.3,1.01,2.6,0.62,2.9-0.36c2.03-6.77,4.06-13.55,6.1-20.32
				C1053.72,400.96,1050.82,401.35,1050.52,402.34L1050.52,402.34z"/>
		</g>
	</g>
	<g>
		<g>
			<path d="M1036.92,409.99c7.11-1.69,14.22-3.39,21.34-5.08c0.42-0.1,1.41-0.52,1.25-1.11c-0.16-0.61-1.24-0.43-1.64-0.34
				c-7.11,1.69-14.22,3.39-21.34,5.08c-0.42,0.1-1.41,0.52-1.25,1.11C1035.44,410.26,1036.53,410.09,1036.92,409.99L1036.92,409.99z
				"/>
		</g>
	</g>
	<g>
		<g>
			<path d="M1036.92,418.12c7.11-2.03,14.22-4.06,21.34-6.1c0.42-0.12,1.42-0.51,1.25-1.11c-0.16-0.59-1.25-0.45-1.64-0.34
				c-7.11,2.03-14.22,4.06-21.34,6.1c-0.42,0.12-1.42,0.51-1.25,1.11C1035.44,418.37,1036.53,418.23,1036.92,418.12L1036.92,418.12z
				"/>
		</g>
	</g>
	<g>
		<g>
			<path d="M930.86,507.16c0.43,3.31-1.52,6.66-4.48,8.15c-2.79,1.41-5.83,0.29-7.7-2.05c-3.29-4.11-2.63-12.44,3.81-12.76
				c3.21-0.16,6.49,1.66,7.8,4.63c0.1-0.21,0.19-0.42,0.29-0.63c-3.72,2.98-2.91,8.9,0.55,11.77c4.52,3.74,11.39,1.13,14.65-3
				c4.07-5.15,2.49-12.23-1.18-17.12c-3.41-4.54-8.69-7.39-14.24-8.36c-11.01-1.93-23.05,3.03-27.55,13.64
				c-4.28,10.09-1.23,23.05,8.1,29.2c9.18,6.05,22.61,4.67,30.81-2.45c1.02-0.88,1.94-1.87,2.79-2.92c0.44-0.55-0.38-0.83-0.79-0.85
				c-0.68-0.04-1.48,0.26-1.91,0.79c-5.97,7.41-16.85,9.51-25.45,5.74c-9.07-3.98-13.58-14.12-12.32-23.69
				c0.62-4.72,2.62-9.32,6.08-12.65c3.4-3.27,7.88-5.1,12.56-5.5c9.95-0.87,21.22,5.45,22.53,16.07c0.37,3.04-0.41,6.14-2.47,8.45
				c-1.79,2.01-4.53,3.42-7.23,2.48c-4.14-1.43-6.32-8.16-2.62-11.13c0.14-0.11,0.38-0.42,0.29-0.63
				c-3.09-7.04-14.85-7.44-18.43-0.6c-1.71,3.26-1.15,7.37,0.97,10.3c2.43,3.35,6.69,4.24,10.5,2.96c4.46-1.49,8.17-5.74,7.53-10.64
				C933.63,505.42,930.71,506.07,930.86,507.16L930.86,507.16z"/>
		</g>
	</g>
	<g>
		<g>
			<path d="M955.64,79.47c0.39,3.69-2.4,7.81-6.21,8.33c-3.64,0.5-6.49-2.75-7.33-5.98c-0.81-3.1,0.02-6.99,3.14-8.48
				c2.91-1.39,6.77-0.14,8.76,2.24c0.59,0.71,0.83,1.18,0.76,2.09c-0.06,0.71,0,1.43,0.23,2.11c0.42,1.3,1.33,2.4,2.42,3.21
				c2.52,1.88,5.91,2.46,8.95,1.76c8.28-1.9,8.95-12,5.9-18.43c-6.41-13.49-25.64-16.8-37.65-9.18
				c-12.52,7.93-14.53,26.95-4.88,37.93c9.74,11.07,28.93,9.67,38.71-0.63c1.22-1.28,2.29-2.68,3.19-4.2
				c0.69-1.16-2.21-0.88-2.7-0.06c-7.26,12.32-26.03,14.84-35.97,4.34c-9.78-10.33-8.38-29.98,4.52-37.16
				c12.33-6.86,31.37,0.31,33.49,15c0.51,3.51-0.17,8.03-3.3,10.22c-2.27,1.6-5.74,0.7-7.77-0.88c-1.06-0.83-1.9-1.93-2.16-3.27
				c-0.14-0.72,0.09-1.33,0.07-2.03c-0.02-0.7-0.76-1.56-1.2-2.07c-2.12-2.43-5.55-3.39-8.68-3.15c-3.28,0.25-6.63,1.91-8.14,4.95
				c-1.42,2.86-1.08,6.33,0.51,9.05c3.94,6.74,13.9,4.81,17.26-1.51c0.83-1.56,1.17-3.23,0.98-4.98
				C958.43,77.74,955.52,78.37,955.64,79.47L955.64,79.47z"/>
		</g>
	</g>
	<path class="st19" d="M878.37,36.08l6.69,16.24c0.17,0.42,0.59,0.7,1.05,0.7h20.97c1.16,0,1.57,1.54,0.56,2.11l-16.47,9.43
		c-0.49,0.28-0.7,0.89-0.48,1.41l6.39,15.51c0.41,1-0.67,1.95-1.61,1.41l-17.59-10.08c-0.35-0.2-0.78-0.2-1.12,0L859.18,82.9
		c-0.93,0.54-2.02-0.42-1.61-1.41l6.39-15.51c0.22-0.53,0.01-1.13-0.48-1.41l-16.47-9.43c-1.01-0.58-0.6-2.11,0.56-2.11h20.97
		c0.46,0,0.87-0.28,1.05-0.7l6.69-16.24C876.67,35.15,877.99,35.15,878.37,36.08z"/>
	<path class="st19" d="M495.8,180.38l6.69,16.24c0.17,0.42,0.59,0.7,1.05,0.7h20.97c1.16,0,1.57,1.54,0.56,2.11l-16.47,9.43
		c-0.49,0.28-0.7,0.89-0.48,1.41l6.39,15.51c0.41,1-0.67,1.95-1.61,1.41l-17.59-10.08c-0.35-0.2-0.78-0.2-1.12,0l-17.59,10.08
		c-0.93,0.54-2.02-0.42-1.61-1.41l6.39-15.51c0.22-0.53,0.01-1.13-0.48-1.41l-16.47-9.43c-1.01-0.58-0.6-2.11,0.56-2.11h20.97
		c0.46,0,0.87-0.28,1.05-0.7l6.69-16.24C494.09,179.44,495.41,179.44,495.8,180.38z"/>
	<path class="st19" d="M973.63,535.65l6.69,16.24c0.17,0.42,0.59,0.7,1.05,0.7h20.97c1.16,0,1.57,1.54,0.56,2.11l-16.47,9.43
		c-0.49,0.28-0.7,0.89-0.48,1.41l6.39,15.51c0.41,1-0.67,1.95-1.61,1.41l-17.59-10.08c-0.35-0.2-0.78-0.2-1.12,0l-17.59,10.08
		c-0.93,0.54-2.02-0.42-1.61-1.41l6.39-15.51c0.22-0.53,0.01-1.13-0.48-1.41l-16.47-9.43c-1.01-0.58-0.6-2.11,0.56-2.11h20.97
		c0.46,0,0.87-0.28,1.05-0.7l6.69-16.24C971.92,534.72,973.24,534.72,973.63,535.65z"/>
	<path class="st19" d="M1037.77,442.36l6.69,16.24c0.17,0.42,0.59,0.7,1.05,0.7h20.97c1.16,0,1.57,1.54,0.56,2.11l-16.47,9.43
		c-0.49,0.28-0.7,0.89-0.48,1.41l6.39,15.51c0.41,1-0.67,1.95-1.61,1.41l-17.59-10.08c-0.35-0.2-0.78-0.2-1.12,0l-17.59,10.08
		c-0.93,0.54-2.02-0.42-1.61-1.41l6.39-15.51c0.22-0.53,0.01-1.13-0.48-1.41l-16.47-9.43c-1.01-0.58-0.6-2.11,0.56-2.11h20.97
		c0.46,0,0.87-0.28,1.05-0.7l6.69-16.24C1036.07,441.43,1037.39,441.43,1037.77,442.36z"/>
	<path class="st19" d="M1037.77,442.36l6.69,16.24c0.17,0.42,0.59,0.7,1.05,0.7h20.97c1.16,0,1.57,1.54,0.56,2.11l-16.47,9.43
		c-0.49,0.28-0.7,0.89-0.48,1.41l6.39,15.51c0.41,1-0.67,1.95-1.61,1.41l-17.59-10.08c-0.35-0.2-0.78-0.2-1.12,0l-17.59,10.08
		c-0.93,0.54-2.02-0.42-1.61-1.41l6.39-15.51c0.22-0.53,0.01-1.13-0.48-1.41l-16.47-9.43c-1.01-0.58-0.6-2.11,0.56-2.11h20.97
		c0.46,0,0.87-0.28,1.05-0.7l6.69-16.24C1036.07,441.43,1037.39,441.43,1037.77,442.36z"/>
</g>
</svg>
