<?xml version="1.0" encoding="utf-8"?>
<!-- Generator: Adobe Adobe Illustrator 24.2.0, SVG Export Plug-In . SVG Version: 6.00 Build 0)  -->
<svg version="1.1" xmlns="http://www.w3.org/2000/svg" xmlns:xlink="http://www.w3.org/1999/xlink" x="0px" y="0px"
	 viewBox="0 0 1080 1080" style="enable-background:new 0 0 1080 1080;" xml:space="preserve">
<style type="text/css">
	.st0{fill:#B5A8A8;}
	.st1{fill:none;stroke:#000000;stroke-width:8;stroke-miterlimit:10;}
	.st2{fill:none;stroke:#000000;stroke-width:8;stroke-linecap:round;stroke-linejoin:round;stroke-miterlimit:10;}
	.st3{fill:#BAC5C9;}
	.st4{fill:#6A6D6E;}
	.st5{stroke:#FFFFFF;stroke-miterlimit:10;}
	.st6{fill:#594F4F;stroke:#000000;stroke-width:8;stroke-linecap:round;stroke-linejoin:round;stroke-miterlimit:10;}
	.st7{opacity:0.2392;stroke:#FFFFFF;stroke-miterlimit:10;}
	.st8{fill:#F0E9E5;}
	.st9{fill:#E4C8A1;}
	.st10{stroke:#000000;stroke-width:8;stroke-linecap:round;stroke-linejoin:round;stroke-miterlimit:10;}
	.st11{fill:#CA8C7F;}
	.st12{fill:#FFFFFF;}
	.st13{opacity:0.2392;}
	.st14{opacity:0.149;}
	.st15{fill:#D15238;}
	.st16{fill:#D15239;}
</style>
<g id="Ebene_14">
	<path class="st0" d="M440.56,676.51c2.39,65.32,1.45,130.43,3.83,195.75c0.17,4.69,3.23,17.62,1.31,21.9
		c-3.08,6.87,23.35,0.55,33.78-0.9c-1.09-73.34,1.78-146.74,8.59-219.77C475.4,676.59,462.22,677.6,440.56,676.51z"/>
	<path class="st0" d="M573,694.9c0.43,62.84,0.86,125.69,1.29,188.53c0.04,5.17,0.22,10.78,3.46,14.81
		c4.75,5.9,13.71,5.76,21.16,4.35c7.44-1.41,15.59-3.47,22.24,0.15c-5.22-72.18-6.04-144.68,0.06-216.3
		C605.31,689.23,589.42,692.02,573,694.9z"/>
</g>
<g id="Ebene_3">
	<path class="st1" d="M438.5,676.75c0.25,72.52,2.65,145.03,7.2,217.41c11.62,0.06,23.24,0.13,34.86,0.19
		c-3.17-73.57-0.97-147.37,6.57-220.62C471.31,674.43,455.48,675.14,438.5,676.75z"/>
	<path class="st2" d="M570.04,693.39c1.71,69.48,3.42,138.96,5.13,208.44c15.13,0.97,30.25,1.93,45.38,2.9
		c-4.77-73.03-4.73-146.38,0.12-219.4C603.82,692.56,585.07,695.32,570.04,693.39z"/>
</g>
<g id="Ebene_18">
	<path class="st3" d="M377.23,966.23c-0.42-1.9-0.84-3.8-1.27-5.7"/>
	<path class="st3" d="M374.76,954.17c-1.33-12.09,2.07-24.43,8.25-34.91c6.19-10.48,15.03-19.19,24.81-26.43
		c15.72-11.63,34.57-19.77,54.13-20.03s39.7,8.21,50.88,24.24c10.72,15.37,12.17,35.15,13.25,53.86
		C476.29,957.22,429.17,954.17,374.76,954.17z"/>
	<path class="st3" d="M541.85,955.09c-0.97-24.54,5.09-50.27,21.43-68.61c16.34-18.34,44.2-27.34,66.66-17.4
		c15.19,6.72,26.08,20.88,32.41,36.23c6.33,15.35,8.64,32.01,10.9,48.47C629.6,954.77,585.95,955.75,541.85,955.09z"/>
	<path class="st4" d="M542.8,971.12c-1.16-4.37-1.55-8.94-0.3-13.89c0.99,2.04,0.21,4.44-0.3,6.65c-0.5,2.21-0.5,4.97,1.4,6.22
		c0.82,0.54,1.83,0.66,2.79,0.77c6.49,0.75,12.99,1.51,19.52,1.63c12.7,0.24,25.3-1.9,37.96-2.91c23.35-1.86,46.82,0.14,70.16,2.13
		c0.25-5.43,0.49-10.85,0.74-16.28c-44.15-2.43-88.49-1.47-132.49,2.86"/>
	<path class="st4" d="M374.13,953.75c-0.47,5.25,0.37,10.62,2.44,15.46c28.88-0.74,57.77-1.48,86.65-2.22
		c21.99-0.56,44.15-1.12,65.83,2.59c-0.06-5.43-0.13-10.86-0.19-16.3C477.6,949.77,426.07,950.26,374.13,953.75z"/>
</g>
<g id="Ebene_4">
	<path class="st2" d="M377.25,969.34c-6.07-15.78-3.88-34.06,3.94-49.05c7.82-14.99,20.84-26.84,35.52-35.22
		c13.1-7.48,27.84-12.43,42.91-12.8s30.48,4.09,42.13,13.67c11.89,9.78,19.21,24.22,23.07,39.13c3.86,14.9,4.55,30.42,5.23,45.8
		C480.24,964.6,429.6,964.91,377.25,969.34z"/>
	<path class="st2" d="M543.42,970.98c-4.79-23.96-3.06-50.01,9.33-71.07c12.39-21.06,36.71-35.87,60.95-32.81
		c22.32,2.83,40.94,19.98,50.64,40.28c9.7,20.3,11.73,43.4,11.61,65.89C631.92,969.84,587.65,969.45,543.42,970.98z"/>
	<path class="st2" d="M541.17,957.16c43.67-2.37,87.45-2.84,131.16-1.43"/>
	<path class="st2" d="M376.16,954.59c49.91-0.77,99.81-1.54,149.72-2.3"/>
	<path class="st2" d="M414.54,885.87c5.22,7.22,10.43,14.44,15.65,21.66"/>
	<path class="st2" d="M402.17,895.34c4.66,6.83,9.32,13.65,13.98,20.48"/>
	<path class="st2" d="M579.1,920.92c10.6,1.03,21.21,2.06,31.81,3.09"/>
	<path class="st2" d="M583.65,903.46c9.26-0.44,18.52-0.89,27.78-1.33"/>
</g>
<g id="Ebene_15">
	<path class="st0" d="M305.75,486.45c-12.58,11.17-25.16,22.33-37.74,33.5c-4.22,3.75-8.85,8.67-7.61,14.17
		c1.71,7.55,12.68,8.33,19.44,4.56s12.19-10.23,19.74-11.94c-16.6,8.14-30.63,21.44-39.64,37.59c-2.74,4.92-5.02,11.05-2.32,15.99
		c4.06,7.44,15.68,5.73,22.19,0.31c6.51-5.42,10.96-13.38,18.49-17.28c-15.08,13.43-25.97,31.49-30.81,51.09
		c-1.52,6.14-1.71,14.1,3.81,17.19c3.35,1.88,7.53,1.07,11.2-0.04c12.2-3.71,23.49-10.39,32.61-19.31
		c-13.27,7.52-24.33,18.87-31.51,32.32c-2.61,4.9-4.76,10.55-3.31,15.91c2.27,8.37,12.8,12.24,21.18,10
		c8.38-2.24,14.83-8.83,20.28-15.57c5.45-6.75,10.51-14.08,17.74-18.87c-7.86,8.22-15.96,16.84-19.37,27.68s-0.57,24.56,9.39,30.03
		c9.85,5.41,22.8,0.63,30.16-7.86c7.37-8.49,10.49-19.75,13.39-30.61c0.08,8.64-2.65,17.01-4.72,25.4s-3.47,17.34-0.81,25.56
		c2.66,8.22,10.52,15.32,19.11,14.44c9.94-1.02,16.06-11.52,18.23-21.27s-0.99-8.28,4.2-16.82c-4.93,15.5-1.4,20.58,4.16,35.87
		c1.89,5.21,4.95,10.72,10.27,12.27c9.35,2.73,16.92-8.58,17.7-18.29c0.78-9.71-1.4-20.34,3.77-28.59
		c-1.18,10.46-2.32,21.36,1.25,31.26c3.57,9.9,13.37,18.41,23.78,16.83c8.85-1.35,15.39-9.54,17.61-18.21
		c2.21-8.67,0.98-17.8-0.27-26.67c6.21,6.77,4.67,17.23,4.76,26.42s4.97,20.61,14.15,20.08c7.92-0.45,12.15-9.7,12.78-17.61
		s-0.36-16.56,4.14-23.1c6.08,11.07-1.13,27.36,7.88,36.22c7.16,7.04,17.96,9.88,26.08-4.87c4.84-8.8,6.62-18.8,7.14-28.83
		c-1.54,7.37-3.09,14.98-1.68,22.38c1.41,7.4,6.53,14.63,13.91,16.13c8.33,1.69,16.65-4.52,20.24-12.22
		c3.6-7.7,3.6-16.54,3.53-25.04c-0.49,7.07,10.86,41.73,22.37,40.51c24.77-2.63,16.32-49.4,23.06-47.23
		c9.58,3.09-11.27,39.66-6.73,30.68c4.55-8.98,4.62-19.48,4.59-29.54c-2.32,10.26-0.77,21.81,6.01,29.85
		c6.78,8.04,19.33,11.4,28.4,6.06c9.06-5.34,13.7-16.81,13.56-28.28c-0.07-5.54,3.66-9.43,5.84-14.51
		c-5.92,10.15,3.17,30.88,14.45,34.18c11.27,3.3,15.73-13.16,19.31-24.35s-1.67-24.22-11.35-30.87c0.53,8.48,7.87,16.01,16.33,16.76
		c8.46,0.75,20.97,2.3,22.98-5.95c3.82-15.66-9.35-36.68-15.34-53.74c-3.06-8.71,10.03,16.61,19.12,15.01s21.82,1.82,22.04-7.4
		c0.22-9.23-10.27-36.53-17.93-41.69c1.87,10.52,24.31,17.56,32.5,10.71c8.19-6.86,1.11-17.16-3.08-26.99
		c-4.19-9.82-12.37-17.31-20.5-24.24c7.66,8.28,26.34,17.68,33.62,9.06c6.15-7.27-2.92-21.65-10.51-27.4s-19.85-9.13-20.62-18.62
		c4.63,9.41,28.09,3.96,32.6-5.51c4.51-9.47-7.93-17.99-16.14-24.52s-18.82-9.04-29.05-11.37c10.29,7.57,34.21,3.87,37.13-8.56
		c2.93-12.44-12.19-30.19-22.61-37.59s-22.76-17.2-35.22-20.02c8.09,2.63,28.7,9.11,38.66-3.31c7.79-9.71-10.31-16.4-21.09-22.61
		c-10.78-6.22-24.14-4.93-36.5-3.46c7.97,5.75,26.98-5.97,27.44-12.92c0.61-9.22-16.38-17.47-25.95-19.73
		c-9.57-2.26-19.56-0.21-29.18,1.84c16.02,1.17,37.37-6.32,45.64-20.09c-19.78-8.24-47.28-10.8-68-5.37
		c12.19-3.76,28.62-16.15,30.19-28.81c1.57-12.66-11.7-24.93-22.4-31.89c-11.93-7.76-29.54-12.7-41.25-4.62
		c-11.71,8.09-17.1,28.53-15.43,42.67c-10.26-3.63-20.51-7.27-30.77-10.9c7.74-5.6,15.82-11.6,19.73-20.31
		c3.92-8.72,7.29-23.39-1.42-27.33c-7.54-3.42-22.27,3.3-27.2,9.95c-4.93,6.65-6.58,15.11-8.1,23.25
		c0.06-11.55,5.48-23.6,5.55-35.15c0.02-3.48-5.48-6.88-7.97-9.31c-5.76-5.63-14.85,3-16.22,10.94s-1.19,17.87-8.31,21.63
		c10.17-9.63,3.04-35.69-10.96-35.18c-13.99,0.51-23.64,26.47-13.72,36.35c-6.79-13.52-2.3-36.5-20.38-40.57
		c-9.5,13.33-13.48,30.47-10.81,46.62c-2.3-16.84-8.32-43.28-21.25-45.49c-13.8,2.65-12.05,32.63-9.21,49.54
		c5.43-7.15-2.06-15.2-9.76-19.81c-14.35-8.58-12.64,7.41-12.04,16.37s6.24,12.56,12.91,19.22c-8.39,3.49-16.78,6.97-25.17,10.46
		c7.6-13.61-13.03-44.39-13.03-44.39s-31.62,10.94-43.91,20.53C363.37,278.47,348,289,350.6,303.83c2.6,14.84,23.7,25.62,37.02,18.6
		c-6.59,8.18-21.17,7.95-31.06,11.48c-9.89,3.53-17.56,8.9-27.01,13.48c-9.45,4.57-27.23,17.61-30.88,27.45
		c-3.65,9.85,4.47,20.58,19.63,23.92c10.25,2.26,23.26-1.5,23.19-12c-17.37,12.8-36.97,24.65-52.4,39.73
		c-5.27,5.15-10.72,15.86-9.35,23.1c1.45,7.7,13.58,9.9,21.33,8.76c7.75-1.14,14.33-6.08,20.54-10.86
		c-17.57,11.66-35.13,23.33-52.7,34.99c-6.32,4.2-13.52,10.72-11.12,17.92c2.93,8.78,16.2,7.28,23.68,1.84
		S296.25,488.78,305.75,486.45z"/>
	<path class="st0" d="M750.51,730.39c0.52-1.02,1.05-2.03,1.57-3.05"/>
	<path class="st0" d="M686.14,695.71c2.41,1,4.82,2,7.23,3l17.02-38.4"/>
</g>
<g id="Ebene_17">
</g>
<g id="Ebene_30">
</g>
<g id="Ebene_29">
</g>
<g id="Ebene_2">
	<path class="st2" d="M434.93,294.95c-6.56-43.23-5.57-64.29-58.86-29.65c-58.31,37.91-9.48,50.55,10.76,58.06
		c-46.97,13.03-96.13,42.79-89.59,62.93c7.56,23.3,37.5,3.19,44.73-3.49c-31.24,21.55-68.39,51.18-63.63,68.14
		c1.24,4.42,11.01,9.79,42.02-1.04c-24.03,14.12-69.55,31.47-64.58,50.74c0.69,15.79,33.2-6.63,53.49-15.24
		c-29.1,23.4-52.93,41.43-49.76,50.92c2.56,7.65,14.55,5.02,37.09-11.37c-15.7,19.55-43.37,41.74-39.58,53.53
		c2.47,7.69,16.42,7.27,36.51-12.82c-7.92,13.32-32.97,49.51-25.34,60.8c6.11,9.05,17.64,5.8,43.08-9.89
		c-38.07,25.23-33.74,40.22-25.16,50.34c11.17,13.18,32.72-13.39,44.15-24.82c-15.55,10.65-17.04,45.63,0.16,53.34
		c17.2,7.71,34.86-13.83,41.37-34.73c-2.16,16.29-13.11,53.18,10.36,60.02c21.08,6.14,17.97-16.45,26.96-38.1
		c0.78,11.83,4.01,48.74,16.71,50.61c11.9,1.76,10.26-12.69,19.21-43.7c4.16,18.47,2.1,43.97,20.07,45.19
		c17.98,1.22,15.31-17.13,23.31-42.25c-1.36,17.72,0.91,39.75,18.27,41.84c17.36,2.09,10.98-15.69,17.35-37.56
		c1.4,16.63,8.36,39.4,19.45,40.36c11.61,1.01,11.89-17.15,19.63-37.66c0.62,15.63,0.98,34.61,16.95,34.92s15.26-15.72,18.28-34.24
		c1.39,12.99,13.18,34.89,23.97,36.42c9.4,1.34,20.37-15.77,23.71-45.02c-4.91,16.43,9.16,41.32,26.3,41.32
		c13.14,0,16.11-23.32,23.72-44.51c-1.57,11.31,7.86,30.71,19.58,30.71c13.36,0,25.97-24.74,6.93-53.73
		c7.64,6.78,25.79,21.93,33.71,14.01c8.14-8.14,2.39-35.25-14.05-57.33c9.47,5.75,32.3,19.34,39.48,12.15
		c7.59-7.59-4.74-25.93-16.87-47.46c6.92,8.42,28.06,18.45,35.57,10.37c7.28-7.84-9.04-41.26-19.77-49.58
		c20.04,15.92,25.75,12.81,30.24,8.31c6.57-6.57-12.06-34.37-34.02-48.31c9.88,4.17,33.19,5.05,34.63-6.04
		c1.42-10.91-19.55-31.51-44.07-40.36c8.24,5.38,28.72,8.18,33.85,1.35c11.22-14.94-25.4-50.46-56.08-61.36
		c11.9,4.06,35.63,12.01,38.87-4.23c0-23.2-35.96-25.07-62.71-28.02c18.44-2.28,34.44-0.75,33.35-9.34
		c-2.53-19.85-41.54-21.31-54.44-23.38c31.47,0,42.45-5.78,42.26-13.48c-0.37-15.06-28.93-3.99-61.77-6.48
		c36.69-21.29,38.24-45.1-3.37-64.79c-45.32-21.44-44.71,15.03-46.91,38.77c-10.66-4.02-21.31-8.04-31.97-12.06
		c31.98-22.93,24.02-35.33,17.49-42.83c-5.42-6.22-17.37,1.38-37.54,27.63c1.86-13.56,12.49-34.68,2.41-41.16
		c-5.01-3.22-19.66,9.2-24.37,32.8c-0.86-12.23-0.52-33.78-12.1-34.24c-19.18-0.77-16.84,24.52-16.6,34.47
		c-4.21-14.81-2.35-37.99-17.14-37.99c-8.5,0-15.12,11.53-13.06,44.29c-0.67-12.32-9.38-50.52-26.8-43.47
		c-11.59,4.69-0.82,38.46-0.66,53.39c-1.92-4.24-14.57-33.48-23.18-26.79c-7.84,6.09-5.8,20.65,10.49,38.92
		C447.46,282.39,444.81,289.71,434.93,294.95z"/>
</g>
<g id="Ebene_6">
	<path class="st0" d="M647.85,482.87c1.78,74.66,3.56,149.36,9.18,223.83c1.02,13.56,2.32,27.58,8.97,39.44
		c2.87,5.11,8.01,10.19,13.72,8.9c5.23-1.18,7.84-7.02,9.03-12.25c3.04-13.29,1.98-27.49-3.01-40.19
		c1.65,12.36,4.51,24.55,8.53,36.35c1.7,4.99,5.83,11,10.73,9.08c3.15-1.24,4.2-5.11,4.66-8.46c1.54-11.16,1.25-22.57-0.85-33.64
		c-1.99,14.32,1.55,29.34,9.74,41.26c7.77-7.22,9.1-18.85,9.85-29.43c5.72-80.65,6.11-161.57,6.49-242.42"/>
</g>
<g id="Ebene_5">
	<path class="st2" d="M648.11,481.9c-5.07,188.33,8.73,275.52,27.85,273.19c17.17-2.1,13.07-41.85,10.28-51.5
		c3.66,20.95,5.05,45.4,15.88,46.67c7.84,0.92,4.49-30.2,8.69-42.37c4.46,45.83,3.93,39.4,11.42,39.4
		c11.15,0,15.58-185.55,13.18-267.26"/>
</g>
<g id="Ebene_20">
	<path class="st6" d="M397.47,317.09c-6.47-6.27-12.59-12.89-18.33-19.83c-2.1-2.54-4.28-5.52-3.87-8.79
		c0.45-3.61,3.82-6.03,6.9-7.96c7.28-4.56,14.69-8.93,22.2-13.11c3.14-1.75,7.23-3.42,10.08-1.23c1.74,1.34,2.33,3.66,2.79,5.81
		c2.09,9.57,4.18,19.15,6.28,28.72c0.48,2.2,0.91,4.68-0.35,6.55c-0.93,1.38-2.57,2.07-4.12,2.69
		C412.68,312.49,406.3,315.04,397.47,317.09z"/>
	<path class="st6" d="M644.98,296.46c0.28-8.58,1.27-17.14,2.96-25.56c0.42-2.12,0.97-4.36,2.56-5.82
		c2.98-2.74,7.73-1.31,11.42,0.35c7.38,3.33,14.59,7.04,21.59,11.11c2.76,1.61,5.78,3.68,6.22,6.84c0.41,2.92-1.55,5.59-3.4,7.89
		c-4.12,5.13-8.25,10.26-12.37,15.39c-1.78,2.21-3.81,4.57-6.61,5.01c-2.33,0.36-4.61-0.72-6.68-1.84
		C655.12,306.82,649.9,303.24,644.98,296.46z"/>
</g>
<g id="Ebene_21">
	<path class="st7" d="M384.65,326.59c-27.01,5.8-52.44,18.84-72.92,37.38c-6.87,6.23-13.72,15.14-10.74,23.92
		c2.68,7.88,12.54,11.34,20.7,9.67c8.16-1.68,14.95-7.12,21.4-12.39c-18.03,11.02-34.69,24.26-49.49,39.35
		c-4.78,4.87-9.72,11.23-7.95,17.82c1.85,6.91,10.56,9.95,17.5,8.25c6.94-1.7,12.51-6.71,17.94-11.36
		c5.43-4.65,11.48-9.28,18.6-9.95c-27.81,15.42-53.63,34.44-76.59,56.44c-5.34,5.11-10.54,14.1-4.96,18.94
		c3.8,3.3,9.66,1.51,14.21-0.64c13.88-6.55,26.87-15,38.5-25.04c-16.44,10.69-31.46,23.56-44.53,38.18
		c-4.26,4.76-8.59,10.88-6.8,17.02c1.99,6.8,10.87,9.43,17.61,7.26c6.74-2.17,11.82-7.61,16.76-12.7
		c4.93-5.08,10.47-10.24,17.44-11.52c-16.52,12.15-31.93,25.82-45.96,40.79c-4.64,4.94-9.46,11.36-7.53,17.86
		c2.02,6.82,10.93,9.51,17.68,7.26s11.7-7.93,16.14-13.48c4.45-5.55,4.68-10.54,1.88-4c-8.33,19.45-12.86,19.57-20.69,37.84
		c-3.14,7.34-5.6,15.99-1.91,23.06c4.87,9.33,17.8,7.66,24.71-0.28c5.7-6.56,21.63-15,12.6-9.6c-9.82,5.87-9.76,12.41-20.22,22.42
		c-3.95,3.79-8.16,8.06-8.68,13.51c-0.86,8.99,9.52,15.82,18.48,14.66c8.96-1.16,16.23-7.65,22.42-14.22s0.39-3.69,8.74-7.13
		c-10.35,5.62-8.09,3.54-12.59,14.43c-4.49,10.89-2.54,24.98,6.79,32.17c10.3,7.94,25.95,4.95,35.92-3.4
		c9.97-8.34,7.81-16.35,12.67-28.4c-12.68,9.56-11.39,22.37-8.1,37.91c2.1,9.92,9.36,19.89,19.48,20.54
		c8.08,0.52,15.53-5.18,19.51-12.23c3.98-7.05,5.18-15.28,6.31-23.3c-4.09,12.75-1.84,21.9,4.93,31.77
		c6.77,9.88,9.32,21.1,19.62,14.99c10.3-6.11,17.41-27.92,11.37-38.26c0.25,8.37,0.55,17.02,4.1,24.61
		c3.54,7.59,11.21,13.92,19.55,13.19c7.8-0.68,14.05-7.32,16.68-14.7c2.63-7.38,2.37-15.43,2.07-23.25
		c-0.69,8.51-1.33,17.37,1.72,25.34c3.06,7.98,10.97,14.78,19.44,13.63c7.36-1,12.91-7.71,14.89-14.88
		c1.98-7.17,1.1-14.77,0.21-22.15c-1.22,7.31-2.44,14.82-0.87,22.06c1.57,7.24,6.61,14.23,13.83,15.84
		c8.07,1.8,14.32,2.12,14.32,2.12s11.13-28.64,11.93-36.87c-7.71,12.16,6.48,37.33,20.87,37.04c14.4-0.28,20.72-25.86,12.54-37.7
		c0.81,12.15,18.16,35.02,29.33,39.88c9.85,4.29,6.75-10.5,12.22-19.75c5.47-9.25,6.17-20.45,6.73-31.19
		c1.01,11.58,4.31,22.96,9.65,33.29c-1.59-14.64-3.17-29.29-4.76-43.93c-48.06,7.91-97.5,10.84-145.38,1.89
		s-94.32-30.49-127.61-66.05c-47.4-50.62-63.21-128.59-39.27-193.67C348.81,385.04,368.84,357.03,384.65,326.59z"/>
</g>
<g id="Ebene_22">
	<path class="st8" d="M479.47,380.62c-4.65-16.29-23.67-26.06-40.28-22.69c-16.6,3.37-29.67,17.82-34.06,34.18
		c-4.21,15.71-0.94,33.46,9.37,46.04c10.32,12.57,27.65,19.28,43.58,15.99c15.93-3.29,29.45-16.9,31.74-33.01
		C492.21,404.34,481.81,388.81,479.47,380.62z"/>
</g>
<g id="Ebene_16">
	<path class="st0" d="M338.06,433.07c-27.29,7.13-58.18-1.96-77.28-22.72c-7.99-8.69-14.19-20.43-11.79-31.99
		c1.86-8.93,8.63-16.21,16.5-20.81s16.83-6.92,25.67-9.18c16.42-4.2,32.84-8.41,49.26-12.61c10.09-2.58,21.65-6.44,25.16-16.26
		c2.51-7.03-0.26-15.09-5.12-20.76c-4.85-5.68-11.5-9.46-20.33-15.21c11.35,3.75,23.46,7.53,35.03,4.58s21.5-15.58,17.02-26.66
		c-3.57-8.84-13.9-12.47-23.07-15.1c-25.2-7.23-50.91-14.52-77.11-13.54c-17.96,0.67-35.68,5.27-52.07,12.66
		c-50.96,22.97-87.86,74.48-93.24,130.12c-2.04,21.17,0.24,42.91,8.08,62.68c7.84,19.77,21.39,37.46,39.28,48.95
		c20.73,13.32,46.2,17.77,70.81,16.63s48.66-7.5,72.31-14.4l-5.23,9.77"/>
</g>
<g id="Ebene_7">
	<path class="st2" d="M339.46,433.21c-20.37,0.52-41.58,0.87-60.08-7.68c-18.5-8.55-33.26-28.88-28.47-48.69
		c4.13-17.07,21.06-28.21,38.07-32.6c17-4.38,34.89-3.74,52.2-6.68c8.55-1.45,17.73-4.33,22.39-11.65
		c5.13-8.06,2.84-19.13-2.9-26.77c-5.74-7.63-14.25-12.6-22.53-17.37c10.59,4.32,21.77,8.72,33.13,7.31s22.58-10.87,21.63-22.27
		c-0.98-11.74-13.26-18.83-24.35-22.82c-51.83-18.63-112.66-13.13-158.13,17.95s-73.01,88.1-65.2,142.62
		c4.99,34.81,24.87,68.36,55.9,84.89c19.42,10.34,41.98,13.63,63.97,12.9c21.99-0.73,43.65-5.27,65.19-9.8"/>
</g>
<g id="Ebene_8">
</g>
<g id="Ebene_9">
	<path class="st10" d="M538.08,415.83c-4.37-3.51-7.6-8.24-10.26-13.17c-1.46-2.7-2.77-5.97-1.44-8.73c1.41-2.9,5.05-3.83,8.25-4.21
		c4.24-0.5,8.53-0.64,12.8-0.4c3.71,0.21,8.06,1.16,9.52,4.57c1.43,3.34-0.76,7.07-3.07,9.88
		C549.87,408.67,545.21,413.03,538.08,415.83z"/>
	<path class="st2" d="M539.23,416.77c-0.05,5.83-0.1,11.66-0.15,17.49"/>
</g>
<g id="Ebene_10">
	<path class="st10" d="M461.24,398.4c0.2-3.61-3.08-6.89-6.68-7.14s-7.1,2.2-8.56,5.5c-1.59,3.58-0.84,8.14,2,10.84
		c2.84,2.69,7.65,3.13,10.78,0.77C461.9,406.03,462.74,401.04,461.24,398.4z"/>
	<path class="st10" d="M648.83,394.04c-1.02-4.05-5.56-6.77-9.66-6.01s-7.3,4.72-7.45,8.89s2.6,8.23,6.42,9.9
		c3.77,1.64,8.64,0.87,11.27-2.28C652.04,401.38,651.65,395.96,648.83,394.04z"/>
</g>
<g id="Ebene_11">
	<path class="st10" d="M555.81,484.6c-0.01-6.1-2.08-12.38-6.52-16.56c-4.44-4.18-11.44-5.82-16.91-3.12
		c-5.5,2.71-8.39,9.01-9.09,15.1c-0.58,5.05,0.08,10.3,2.35,14.85s6.2,8.34,11,10c3.73,1.29,8.03,1.22,11.46-0.73
		c3.51-1.99,5.76-5.73,6.78-9.63C555.9,490.63,555.81,486.53,555.81,484.6z"/>
</g>
<g id="Ebene_19">
</g>
<g id="Ebene_24">
	<g>
		<g>
			<path class="st8" d="M502.2,326.37c0.66,0.91,1.25,1.86,1.92,2.76c1.19,1.59,2.29,2.72,3.89,3.91c1.07,0.8,3.01,0.89,4.24,0.55
				c1.28-0.35,2.66-1.34,3.29-2.53c0.67-1.28,1.01-2.82,0.55-4.24c-0.47-1.45-1.32-2.39-2.53-3.29c0.16,0.12,0.9,0.79,0.4,0.28
				c-0.18-0.18-0.36-0.35-0.53-0.54c-0.14-0.15-0.26-0.31-0.39-0.46c-0.42-0.47,0.82,1.16,0.22,0.27c-0.51-0.76-1.03-1.53-1.56-2.27
				c-0.86-1.19-1.82-2.12-3.29-2.53c-1.32-0.36-3.07-0.2-4.24,0.55C501.86,320.34,500.39,323.88,502.2,326.37L502.2,326.37z"/>
		</g>
	</g>
	<g>
		<g>
			<path class="st8" d="M525.25,323.39c0.03,0.07,0.06,0.14,0.09,0.21c-0.18-0.44-0.37-0.88-0.55-1.31c0.28,0.7,0.48,1.43,0.76,2.13
				c0.61,1.56,1.2,2.64,2.28,3.93c0.85,1.02,2.61,1.61,3.89,1.61c1.35,0,2.96-0.6,3.89-1.61c0.96-1.05,1.68-2.42,1.61-3.89
				c-0.07-1.53-0.63-2.71-1.61-3.89c-0.05-0.06-0.1-0.12-0.15-0.17c0.29,0.37,0.57,0.74,0.86,1.11c-0.28-0.38-0.49-0.78-0.67-1.22
				c0.18,0.44,0.37,0.88,0.55,1.31c-0.49-1.26-0.91-2.52-1.45-3.76c-0.51-1.18-2.11-2.2-3.29-2.53c-1.32-0.36-3.07-0.2-4.24,0.55
				c-1.17,0.76-2.21,1.88-2.53,3.29c-0.07,0.49-0.13,0.97-0.2,1.46C524.5,321.6,524.75,322.53,525.25,323.39L525.25,323.39z"/>
		</g>
	</g>
	<g>
		<g>
			<path class="st8" d="M542,320.61c-0.03,1.34,0.04,2.64,0.29,3.96c0.17,0.91,0.63,1.72,0.76,2.63c0.18,1.27,1.48,2.67,2.53,3.29
				c1.18,0.69,2.92,0.98,4.24,0.55c1.33-0.43,2.61-1.26,3.29-2.53c0.74-1.4,0.78-2.69,0.55-4.24c-0.11-0.78-0.46-1.52-0.69-2.27
				c-0.09-0.48-0.09-0.47-0.01,0.02c0.06,0.5,0.08,0.5,0.04,0.02c0.02-0.48-0.01-0.96,0-1.44c0.07-2.88-2.58-5.63-5.5-5.5
				C544.46,315.25,542.08,317.53,542,320.61L542,320.61z"/>
		</g>
	</g>
	<g>
		<g>
			<path class="st8" d="M575.73,333.04c1.71-1.71,3.42-3.42,5.12-5.12c2.04-2.04,2.19-5.77,0-7.78c-2.2-2.02-5.6-2.17-7.78,0
				c-1.71,1.71-3.42,3.42-5.12,5.12c-2.04,2.04-2.19,5.77,0,7.78C570.15,335.05,573.55,335.21,575.73,333.04L575.73,333.04z"/>
		</g>
	</g>
	<g>
		<g>
			<path class="st8" d="M436.02,434.35c-7.74-1.89-15.26-3.44-23.29-2.38c-8.07,1.07-17.44,2.55-23.38,8.58
				c-4.97,5.05,2.8,12.83,7.78,7.78c4.17-4.24,12.91-5.28,18.6-5.71c6-0.46,11.62,0.93,17.36,2.34
				C439.97,446.64,442.9,436.03,436.02,434.35L436.02,434.35z"/>
		</g>
	</g>
	<g>
		<g>
			<path class="st11" d="M442.09,429.69c-17.78-2.36-37.96-0.82-54.5,6.5c-3.39,1.5-7.01,2.95-8.62,6.55
				c-1.57,3.51-0.74,7.55,1.43,10.63c4.45,6.27,14.34,7.08,21.27,7.86c16.84,1.91,35.68,5.52,51.15-3.8
				c6.15-3.71,9.64-9.13,7.49-16.53c-2.13-7.37-9.95-11-17.07-11.21c-7.08-0.21-7.07,10.79,0,11c2.9,0.08,8.9,2.48,5.88,6.01
				c-2.93,3.43-9.53,4.53-13.69,5.22c-11.52,1.91-23.25-0.5-34.69-1.8c-2.73-0.31-5.34-0.8-7.96-1.66
				c-1.11-0.37-2.21-0.66-3.17-1.36c-0.28-0.21-1.41,0.29,0.96-0.28c2.39-0.58,4.63-1.98,7.06-2.62c2.84-0.75,5.68-1.54,8.53-2.28
				c11.25-2.92,24.46-2.76,35.93-1.23C449.08,441.62,449.01,430.61,442.09,429.69L442.09,429.69z"/>
		</g>
	</g>
	<g>
		<g>
			<path class="st11" d="M391.78,453.13c9.02,1.48,18.16,2.45,27.28,3.09c4.13,0.29,8.25,0.15,12.38,0.05
				c4.33-0.1,8.52,0.24,12.71-1.01c5.46-1.63,13.74-5.03,13.75-11.89c0.01-6.79-7.38-8.4-12.72-9.1c-8.62-1.13-17.8-1.41-26.47-0.83
				c-8.31,0.55-17.18,1.13-25.16,3.7c-5.08,1.63-14.47,6.69-9.68,13.32c4.04,5.6,15,3.57,20.87,3.3c9.65-0.44,19.27-1.29,28.92-1.75
				c6.36-0.3,14.45,1.36,18.78-4.26c1.25-1.62,0.75-3.89,0-5.55c-3.44-7.62-15.8-5-22.32-4.75c-5.93,0.23-11.87,0.24-17.74,1.19
				c-4.5,0.73-9.69,0.83-14.05,2.2c-3.89,1.22-6.64,4.95-4.79,8.98c1.7,3.71,5.89,4.24,9.54,4.06c5.93-0.3,14.9,0.48,17.39-6.06
				c1.11-2.91-1.26-5.86-3.84-6.77c-4.06-1.43-10.94,0.14-14.67,2.03c-6.31,3.2-0.75,12.7,5.55,9.5c1.13-0.58,5.06-1.32,6.19-0.93
				c-1.28-2.26-2.56-4.51-3.84-6.77c0.87-0.94,1.73-1.88,2.6-2.83c-0.27,0.06-0.54,0.13-0.82,0.19c-0.43-0.16-1.44,0.08-1.91,0.1
				c-0.92,0.05-1.84,0.01-2.75,0.08c-0.98,0.08-1.96,0.27-2.94,0.36c-0.72,0.06-1.74-0.1-2.39,0.12c-0.18-0.01-0.36-0.01-0.54,0
				c-2.08,0.08-1.16,1.87,2.75,5.36c-0.84,1.1-1.69,2.19-2.53,3.29c1.46-1.1,5.67-0.98,7.57-1.26c5.19-0.77,10.08-1.35,15.31-1.53
				c4.12-0.14,8.26-0.33,12.37-0.58c1.38-0.08,2.75-0.22,4.13-0.22c0.63,0,1.32,0.11,1.95,0.05c1.55-0.14,0.91,1.09,0.29-0.28
				c0-1.85,0-3.7,0-5.55c1.01-1.31,2.57-0.84,0.83-1.37c-0.63-0.19-1.86-0.09-2.57-0.11c-1.6-0.04-3.15,0.03-4.76,0.13
				c-5.55,0.35-11.11,0.17-16.65,0.61c-5.03,0.4-10.02,1.06-15.06,1.29c-2.3,0.11-4.6,0.11-6.9,0.15c-1.24,0.03-2.48,0.11-3.73,0.11
				c-0.57,0-2.76-0.45-2.03,0.21c0.54,1.3,1.07,2.59,1.61,3.89c0.03-0.26,0.06-0.51,0.1-0.77c-0.54,1.3-1.07,2.59-1.61,3.89
				c2.31-2.87,7.25-3.36,10.66-3.94c4.99-0.85,9.87-1.49,14.92-1.8c5.01-0.31,9.85-0.32,14.86,0c2.39,0.15,4.78,0.16,7.18,0.27
				c2.24,0.1,4.82,0.98,6.99,0.85c1.66-0.1,1.78,2.03,0.99-1.73c-0.83-3.93-0.08-1.51-1.87-1.1c-1.82,0.42-3.57,1.67-5.45,2.1
				c-4.42,1.03-9.79,0.45-14.35,0.5c-10.42,0.12-21.14-1.18-31.41-2.86C387.78,441.39,384.8,451.99,391.78,453.13L391.78,453.13z"/>
		</g>
	</g>
	<g>
		<g>
			<path class="st11" d="M667.06,430.54c-10.77-0.88-22.54-0.97-32.86,2.69c-6.63,2.35-17.54,8.35-13.31,17.06
				c3.37,6.95,15.99,6.88,22.36,7.33c5.66,0.4,11.36,0.82,17.03,1.05c6.06,0.24,12.07-0.76,18.06-1.59
				c7.89-1.1,18.83-6.36,13.26-16.19c-2.34-4.12-6.39-6.69-10.88-7.93c-4.73-1.31-10.02-2.58-14.91-3.03
				c-10.46-0.97-20.92-1.65-30.78,2.73c-5.53,2.46-17.93,6.26-12.1,14.82c2.96,4.35,8.6,4.3,13.27,5.05
				c5.95,0.96,11.74,1.32,17.77,1.21c6.24-0.12,12.25-0.1,18.43-0.87c4.28-0.53,8.56-0.56,11.81-3.82c2.04-2.05,2.18-5.74,0-7.78
				c-5.05-4.72-11.72-5.46-18.31-6.29c-8.19-1.03-17.19-1.27-25.31,0.47c-4.66,1-10.93,4.23-9.13,10.11
				c2.09,6.84,11.17,6.24,16.71,6.96c7.66,0.99,15.58,2.17,23.28,0.9c5.24-0.87,11.49-5.11,7.59-11.12
				c-2.98-4.58-9.38-4.25-14.2-4.28c-5.19-0.03-13.46-0.84-17.95,2.35c-5.72,4.07-0.24,13.61,5.55,9.5
				c2.02-1.43,7.58-0.84,9.84-0.86c1.73-0.02,3.46-0.01,5.18,0.03c0.53,0.01,1.33,0.18,1.83,0.06c2.57-0.62-0.78,3-0.26-2.59
				c0.54-1.3,1.07-2.59,1.61-3.89c-0.08,0.08-5.36,0.35-6.64,0.34c-3.2-0.04-6.4-0.32-9.58-0.65c-3-0.32-5.97-0.85-8.97-1.12
				c-0.34-0.03-4.3-0.63-4.46-0.53c0.08,2,0.16,3.99,0.23,5.99c0.34-0.11,0.69-0.21,1.04-0.3c1.67,0.54,6.11-0.84,8.03-0.93
				c3.38-0.15,6.77-0.14,10.15,0.05c4.52,0.25,12.47,0.28,15.99,3.58c0-2.59,0-5.19,0-7.78c-1.17,1.18-7.02,1.08-8.54,1.24
				c-3.99,0.43-8.09,0.12-12.1,0.19c-4.99,0.09-9.92,0.24-14.88-0.48c-2.04-0.3-4.07-0.68-6.11-0.98c-0.6-0.08-1.19-0.16-1.79-0.24
				c-2.27-0.63-2.73,1.04-1.39,5.01c2.29,0.37,6.89-3.05,9.01-3.87c3.77-1.45,8-2.07,12.03-2.14c8.17-0.13,17.29,1.19,25.11,3.57
				c1.08,0.21,2.07,0.63,2.98,1.26c0.69,1.31,1.2,1.32,1.53,0.02c-0.63,0.74-2.43,0.88-3.33,1.08c-4.72,1.02-10.12,1.66-14.95,1.81
				c-9.32,0.28-19.52-0.53-28.69-2.05c-0.88-0.15-1.77-0.27-2.64-0.45c-0.68-0.12-1.36-0.28-2.02-0.47
				c-1.3-0.59-1.24,0.27,0.19,2.57c0.28,0.1,2.83-1.77,3.24-2c1.96-1.08,3.87-1.82,6.03-2.42c8.62-2.39,18.1-2.1,26.93-1.37
				C674.12,442.12,674.08,431.12,667.06,430.54L667.06,430.54z"/>
		</g>
	</g>
</g>
<g id="Ebene_34">
	<path class="st12" d="M459.63,393.11c-0.13-0.66-0.9-1.06-1.55-0.9c-0.65,0.16-1.12,0.78-1.23,1.44c-0.16,0.95,0.41,2,1.32,2.31
		c0.91,0.32,2.05-0.19,2.36-1.1C460.83,393.95,460.19,392.82,459.63,393.11z"/>
	<path class="st12" d="M647.39,390.88c0.01-0.94-0.82-1.77-1.74-1.88c-0.93-0.12-1.87,0.41-2.38,1.2c-0.5,0.79-0.6,1.79-0.39,2.7
		c0.22,0.93,0.76,1.8,1.55,2.33c0.8,0.53,1.85,0.68,2.73,0.3c1.24-0.53,1.91-2.04,1.63-3.36
		C648.53,390.86,647.44,389.79,647.39,390.88z"/>
</g>
<g id="Ebene_31">
</g>
<g id="Ebene_32">
	<path class="st13" d="M479.57,878.83c-22.06-1.41-42.68,12.05-57.05,28.85c-14.37,16.79-24.09,36.99-36.41,55.33
		c-1.84,2.74-4.3,5.74-7.6,5.67c-5.21-0.12-6.8-7.15-6.36-12.35c2.01-23.36,13.45-45.77,31.18-61.12
		c17.73-15.35,41.55-23.45,64.96-22.09C473.55,873.43,479.31,874.47,479.57,878.83z"/>
	<line class="st13" x1="617.68" y1="870.79" x2="617.75" y2="869.71"/>
	<path class="st13" d="M600.1,867.66c-20.37,2.19-38.19,16.57-47.78,34.68c-9.58,18.11-11.7,39.43-9.49,59.8
		c0.58,5.31,3.27,12.1,8.57,11.46c4.12-0.49,6.03-5.27,7.08-9.28c4.91-18.72,9.36-37.78,18.15-55.03s22.6-32.82,40.83-39.32
		C611.27,865.78,602.89,865.06,600.1,867.66z"/>
	<path class="st13" d="M441.39,709.87c1.41,51.19,2.83,102.37,4.24,153.56c0.08,2.77,0.56,6.16,3.14,7.17
		c2.12,0.83,4.58-0.59,5.69-2.58c1.11-1.99,1.19-4.36,1.25-6.64C456.92,809.26,453.54,757.03,441.39,709.87z"/>
	<path class="st13" d="M572.24,738.02c1.58,45.12,3.16,90.23,4.73,135.35c7.26-6.47,8.86-17.07,9.55-26.78
		C589.2,809.13,585.23,771.21,572.24,738.02z"/>
	<path class="st13" d="M649.07,484.15c-4.99,71.03-2.81,142.55,6.49,213.14c2.02,15.36,4.47,30.96,11.26,44.89
		c3.38,6.92,10.71,14.25,17.63,10.87c5.68-2.78,6.16-10.55,5.81-16.86C685.85,655.75,677.68,575.52,649.07,484.15z"/>
	<path class="st13" d="M146.34,397.3c4.88,16.92,9.88,33.93,17.87,49.63c7.99,15.7,19.21,30.17,34.22,39.37
		c16.73,10.26,36.9,13.29,56.52,13.89c21.43,0.65,42.94-1.34,63.88-5.93c6.01-1.32,13.1-4.01,14.08-10.08
		c0.64-4.01-1.93-7.99-5.33-10.21s-7.49-3.07-11.47-3.86c-31.17-6.23-62.55-12.46-92.12-24.13S166.43,416.79,146.34,397.3z"/>
	<path class="st13" d="M478.25,221.3c-2.73,0.59-4.57,3.31-5.07,6.05c-0.49,2.75,0.07,5.56,0.55,8.31
		c1.72,9.96,2.23,20.12,1.52,30.2c-0.11,1.55-0.54,3.46-2.05,3.83c-1.95,0.48-3.17-2.04-3.55-4.01
		c-2.33-12.04-3.29-24.34-2.87-36.59c0.1-2.93,0.34-6.02,2.02-8.42C470.48,218.29,474.13,217.04,478.25,221.3z"/>
	<path class="st13" d="M452.04,247.79c-2.49,1.69-3.48,4.98-3.21,7.98s1.58,5.78,2.87,8.5c2.88,6.06,5.77,12.12,8.65,18.18
		c-5.14-1.15-9.2-5.3-11.55-10s-3.27-9.99-4.16-15.18c-0.42-2.44-0.83-4.97-0.16-7.35C445.16,247.52,447.24,245.35,452.04,247.79z"
		/>
	<path class="st13" d="M518.13,221.74c-5.92-0.72-11,4.8-12.49,10.57s-0.53,11.85-0.66,17.81c-0.13,5.96-1.81,12.53-6.83,15.74
		c-0.99-10.72-0.46-21.58,1.57-32.15c0.67-3.5,1.54-7.05,3.57-9.98S508.71,218.59,518.13,221.74z"/>
	<path class="st13" d="M548.03,226.01c-3.77-4.01-11.02-2.08-14.22,2.39c-3.2,4.47-3.43,10.36-3.36,15.85
		c0.07,5.5,0.27,11.28-2.29,16.15c-1.31-8.2-2.6-16.72-0.27-24.69S537.29,220.52,548.03,226.01z"/>
	<path class="st13" d="M585.74,228.04c-4.02-0.4-7.99,1.55-10.93,4.32c-2.94,2.77-5.03,6.3-7.08,9.79
		c-3.08,5.23-6.15,10.46-9.23,15.69c-2.1-11.12,1.71-23.18,9.8-31.09c2.27-2.22,5.05-4.2,8.22-4.43S583.18,224.21,585.74,228.04z"/>
	<path class="st13" d="M620.78,245.27c-8.05-0.8-16.12,1.97-23,6.22c-6.88,4.25-12.73,9.94-18.53,15.58
		c1.78-8.94,6.11-17.35,12.36-23.99c3.61-3.84,8.05-7.18,13.22-8.2C610,233.86,615.97,235.67,620.78,245.27z"/>
	<path class="st13" d="M688.22,261.16c-6.52-5.12-14.47-9.38-22.7-8.44c-8.99,1.02-16.18,8-21.18,15.54
		c-5,7.54-8.6,16.03-14.46,22.92c0.75-8.84,2.23-17.62,4.42-26.22c1.61-6.31,3.86-12.91,8.96-16.97c5.53-4.4,13.41-4.83,20.19-2.86
		S676.18,251.18,688.22,261.16z"/>
</g>
<g id="Ebene_26">
	<g class="st13">
		<g>
			<path class="st12" d="M548.22,397.97c0.4-0.11,0.81-0.2,1.22-0.3c1.16-0.28-1.08,0.02,0.18-0.04c0.31-0.01,1.26,0.13,1.53,0
				c-0.09,0.05-1.32-0.17-0.52-0.03c0.83,0.15-0.55-0.26-0.82-0.47c-0.85-0.68-1-1.28-1.06-2.28c0.07-0.37,0.07-0.39-0.01-0.08
				c-0.13,0.44-0.06,0.29,0.2-0.43c-0.01,0-0.34,0.51-0.36,0.55c-1.05,1.53-1.59,2.94-1.84,4.81c-0.38,2.86,2.8,5.62,5.5,5.5
				c3.3-0.15,5.09-2.43,5.5-5.5c-0.36,2.7-0.74,2.31-0.09,1.35c0.2-0.3,0.43-0.58,0.62-0.88c0.59-0.93,1-2.03,1.21-3.11
				c0.62-3.21-0.37-6.54-3-8.56c-3.15-2.43-7.54-2.15-11.18-1.12c-2.77,0.78-4.76,3.93-3.84,6.77
				C542.37,396.95,545.26,398.81,548.22,397.97L548.22,397.97z"/>
		</g>
	</g>
	<g class="st13">
		<g>
			<path class="st12" d="M537.73,474.37c3.1,1.6,6.08,2.6,7.03,6.21c1.16,4.41,0.03,8.23-1.03,12.51c1.28-1.28,2.56-2.56,3.84-3.84
				c-0.11,0.02-0.22,0.05-0.33,0.07c-6.92,1.45-3.99,12.06,2.92,10.61c0.11-0.02,0.22-0.05,0.33-0.07c1.81-0.38,3.41-2.08,3.84-3.84
				c1.6-6.47,3-12.91,0.78-19.45c-2.03-5.98-6.49-8.92-11.84-11.69C537.01,461.63,531.44,471.12,537.73,474.37L537.73,474.37z"/>
		</g>
	</g>
	<g class="st13">
		<g>
			<path class="st12" d="M665.93,283.53c1.51,0.39,3.78,0.88,4.61,1.86c-0.19-0.22-0.06-0.93-0.19-0.51
				c-0.19,0.62-0.22,1.31-0.48,1.91c-0.53,1.23-1.57,2.81-2.45,3.79c-4.73,5.24,3.02,13.05,7.78,7.78
				c3.82-4.23,7.47-10.7,5.67-16.59c-1.63-5.34-7.09-7.58-12.02-8.86C662,271.14,659.08,281.75,665.93,283.53L665.93,283.53z"/>
		</g>
	</g>
	<g class="st13">
		<g>
			<path class="st12" d="M401.14,285.41c0.92-0.02,2.07-0.05,2.84-0.04c1.24,0.01,0.34,0.35,0.03-0.15
				c0.18,0.29,0.21-0.25,0.31,0.44c0.33,2.23,1.68,4.28,1.98,6.59c0.38,2.95,2.26,5.5,5.5,5.5c2.68,0,5.88-2.53,5.5-5.5
				c-0.54-4.26-1.52-9.12-3.89-12.79c-2.84-4.4-7.42-5.16-12.26-5.04C394.08,274.58,394.05,285.58,401.14,285.41L401.14,285.41z"/>
		</g>
	</g>
	<g class="st13">
		<g>
			<path class="st12" d="M740.09,388.68c4.88,0.32,9.6,1.6,13.99,3.76c3.03,1.49,5.03,4.48,8.36,5.26
				c6.88,1.62,9.82-8.98,2.92-10.61c1.22,0.29,0.55,0.29-0.34-0.54c-0.77-0.72-1.63-1.43-2.51-2.02c-1.96-1.3-4.18-2.25-6.34-3.16
				c-5.18-2.18-10.48-3.34-16.08-3.71C733.02,377.22,733.05,388.22,740.09,388.68L740.09,388.68z"/>
		</g>
	</g>
	<g class="st13">
		<g>
			<path class="st12" d="M753.22,432.27c7.96,1.65,16.36,7.15,21.29,13.6c4.24,5.55,13.8,0.07,9.5-5.55
				c-6.67-8.71-16.95-16.39-27.87-18.66C749.24,420.23,746.28,430.83,753.22,432.27L753.22,432.27z"/>
		</g>
	</g>
	<g class="st13">
		<g>
			<path class="st12" d="M763.97,480.66c3.88,0.85,6.58,1.75,9.29,4.79c1.24,1.39,2.35,2.9,3.62,4.26c0.48,0.52,0.98,1.02,1.5,1.5
				c0.44,0.4,0.91,0.79,1.39,1.14c0.96,0.82,0.81,0.51-0.45-0.94c1.64,6.88,12.25,3.97,10.61-2.92c-0.66-2.75-2.25-3.64-4.16-5.42
				c-1.91-1.79-3.38-3.97-5.16-5.88c-3.82-4.09-8.35-5.96-13.72-7.13C760,468.54,757.05,479.14,763.97,480.66L763.97,480.66z"/>
		</g>
	</g>
	<g class="st13">
		<g>
			<path class="st12" d="M768.04,523.11c4.72,2.17,8.74,5,11.84,9.22c2.67,3.65,4.39,8.85,9.44,9.76c6.92,1.25,9.89-9.35,2.92-10.61
				c0.51,0.5,0.53,0.51,0.08,0.03c-0.28-0.41-0.54-0.82-0.78-1.25c-0.46-0.72-0.83-1.49-1.29-2.21c-1.33-2.09-2.93-4.13-4.62-5.95
				c-3.39-3.65-7.54-6.43-12.04-8.5C767.2,510.68,761.61,520.15,768.04,523.11L768.04,523.11z"/>
		</g>
	</g>
	<g class="st13">
		<g>
			<path class="st12" d="M767.6,558.01c3.84,5.79,9.02,12.41,10.2,19.42c1.17,6.97,11.77,4.01,10.61-2.92
				c-1.34-7.97-6.94-15.46-11.31-22.05C773.2,546.58,763.67,552.09,767.6,558.01L767.6,558.01z"/>
		</g>
	</g>
	<g class="st13">
		<g>
			<path class="st12" d="M752.24,600.25c1.96,3.64,4.37,7.17,5.9,11.02c1.34,3.35,1.85,6.38,4.17,9.3c1.87,2.34,5.82,1.91,7.78,0
				c2.32-2.27,1.84-5.47,0-7.78c-0.51-0.63-0.58-2.21-0.83-3.01c-0.56-1.78-1.33-3.52-2.13-5.2c-1.62-3.39-3.62-6.58-5.39-9.88
				C758.39,588.46,748.89,594.01,752.24,600.25L752.24,600.25z"/>
		</g>
	</g>
	<g class="st13">
		<g>
			<path class="st12" d="M737.09,650.4c0.83,2.02,1.6,4.07,2.3,6.14c0.92,2.72,3.83,4.79,6.77,3.84c2.7-0.87,4.83-3.85,3.84-6.77
				c-0.7-2.07-1.47-4.12-2.3-6.14c-0.57-1.38-1.18-2.5-2.53-3.29c-1.18-0.69-2.92-0.98-4.24-0.55
				C738.38,644.46,735.92,647.55,737.09,650.4L737.09,650.4z"/>
		</g>
	</g>
	<g class="st13">
		<g>
			<path class="st12" d="M713.08,489.95c-1.58,14.45-1.64,29.05-2.35,43.55c-0.71,14.47-0.71,28.93-0.71,43.41
				c-0.01,14.1,0.77,28.14,0.74,42.24c-0.03,15.31,0.01,30.61,0.02,45.92c0,7.08,11,7.09,11,0c0-14.97-0.05-29.95-0.02-44.92
				c0.03-14.43-0.74-28.81-0.74-43.24c0.01-14.16-0.01-28.29,0.66-42.43c0.7-14.83,0.78-29.76,2.39-44.53
				C724.85,482.92,713.85,482.97,713.08,489.95L713.08,489.95z"/>
		</g>
	</g>
	<g class="st13">
		<g>
			<path class="st12" d="M630.33,691.26c-0.67,3.55-1.41,7.07-1.73,10.68c-0.26,2.87,2.71,5.62,5.5,5.5c3.2-0.14,5.22-2.42,5.5-5.5
				c0.23-2.55,0.85-5.15,1.34-7.75c0.53-2.82-0.78-6.07-3.84-6.77C634.38,686.8,630.9,688.23,630.33,691.26L630.33,691.26z"/>
		</g>
	</g>
	<g class="st13">
		<g>
			<path class="st12" d="M625.17,320.34c16.76,8.66,35.03,17.74,46.65,33.22c5.36,7.14,11.99,12.79,16.58,20.49
				c2.66,4.46,5.06,8.89,7.06,13.69c1.67,4.03,4.18,7.91,4.76,12.27c0.94,6.98,11.54,4.01,10.61-2.92
				c-0.63-4.69-3.26-8.76-5.09-13.05c-2.06-4.84-4.2-9.37-6.87-13.91c-2.61-4.41-5.15-8.77-8.74-12.46
				c-3.48-3.58-6.76-6.96-9.77-10.96c-12.45-16.55-31.65-26.57-49.63-35.86C624.45,307.6,618.88,317.08,625.17,320.34L625.17,320.34
				z"/>
		</g>
	</g>
	<g class="st13">
		<g>
			<path class="st12" d="M605.53,249.83c-2.33,3.57-4.61,7.17-6.91,10.75c-1.6,2.5-0.52,6.07,1.97,7.53
				c2.66,1.56,5.92,0.53,7.53-1.97c2.3-3.59,4.59-7.18,6.91-10.75c1.62-2.49,0.5-6.08-1.97-7.53
				C610.38,246.29,607.16,247.34,605.53,249.83L605.53,249.83z"/>
		</g>
	</g>
	<g class="st13">
		<g>
			<path class="st12" d="M565.81,235.02c-0.99,5.13-1.93,10.27-3.07,15.36c-1.55,6.89,9.05,9.84,10.61,2.92
				c1.15-5.1,2.09-10.23,3.07-15.36c0.56-2.91-0.82-5.93-3.84-6.77C569.88,230.43,566.37,232.08,565.81,235.02L565.81,235.02z"/>
		</g>
	</g>
	<g class="st13">
		<g>
			<path class="st12" d="M535.66,236.48c-0.12,3.85,0.25,7.66,0.96,11.45c0.55,2.92,4.07,4.58,6.77,3.84
				c3.06-0.84,4.39-3.84,3.84-6.77c-0.53-2.82-0.66-5.66-0.57-8.52c0.1-2.97-2.6-5.5-5.5-5.5
				C538.1,230.98,535.75,233.5,535.66,236.48L535.66,236.48z"/>
		</g>
	</g>
	<g class="st13">
		<g>
			<path class="st12" d="M507.43,236.4c0.41,2.48,0.56,5.11,0.57,7.75c0.01,2.88,2.52,5.63,5.5,5.5c2.97-0.13,5.51-2.42,5.5-5.5
				c-0.01-3.59-0.38-7.14-0.96-10.68c-0.48-2.93-4.12-4.57-6.77-3.84C508.16,230.49,506.95,233.46,507.43,236.4L507.43,236.4z"/>
		</g>
	</g>
	<g class="st13">
		<g>
			<path class="st12" d="M473.64,236.4c0.82,2.8,1.59,5.62,2.3,8.45c0.71,2.79,3.98,4.74,6.77,3.84c2.88-0.93,4.6-3.78,3.84-6.77
				c-0.72-2.83-1.48-5.65-2.3-8.45c-0.81-2.76-3.91-4.77-6.77-3.84C474.68,230.54,472.77,233.45,473.64,236.4L473.64,236.4z"/>
		</g>
	</g>
	<g class="st13">
		<g>
			<path class="st12" d="M451.15,265.37c0.77,1.02,1.54,2.05,2.3,3.07c0.89,1.19,1.8,2.12,3.29,2.53c1.32,0.36,3.07,0.2,4.24-0.55
				c1.17-0.76,2.21-1.88,2.53-3.29c0.31-1.35,0.31-3.08-0.55-4.24c-0.77-1.02-1.54-2.05-2.3-3.07c-0.89-1.19-1.8-2.12-3.29-2.53
				c-1.32-0.36-3.07-0.2-4.24,0.55c-1.17,0.76-2.21,1.88-2.53,3.29C450.29,262.48,450.28,264.21,451.15,265.37L451.15,265.37z"/>
		</g>
	</g>
	<g class="st13">
		<g>
			<path class="st12" d="M177.12,348.89c2.27-9.39,5.62-17.82,10.17-26.34c4.43-8.29,8.9-16.7,14.72-24.13
				c5.61-7.17,12.29-12.6,20.05-17.3c8.33-5.04,16.43-10.66,25.6-14.09c18.3-6.85,37.35-10.58,56.87-10.99
				c10.3-0.22,19.88,0.83,30.01,2.5c4.97,0.82,9.99,1.27,14.98,1.97c4.44,0.62,9,2.06,13.48,2.02c7.07-0.06,7.09-11.06,0-11
				c-3.75,0.03-7.75-1.24-11.49-1.76c-4.36-0.61-8.76-1.02-13.11-1.69c-8.29-1.28-16.26-2.95-24.68-3.07
				c-16.39-0.23-33.04,0.88-48.91,5.21c-7.29,1.99-14.65,4.05-21.7,6.81c-7.6,2.97-14.37,7.14-21.3,11.39
				c-6.43,3.94-12.96,7.64-18.64,12.65c-5.46,4.83-10.08,10.62-14.17,16.64c-9.94,14.65-18.31,30.97-22.48,48.22
				C164.85,352.84,175.46,355.78,177.12,348.89L177.12,348.89z"/>
		</g>
	</g>
	<g class="st13">
		<g>
			<path class="st12" d="M598.07,745.52c-0.54,11.39-2.43,22.79-3.58,34.14c-1.16,11.55-2.26,23.08-2.5,34.69
				c-0.14,7.08,10.86,7.08,11,0c0.23-11.62,1.33-23.14,2.5-34.69c1.14-11.35,3.04-22.76,3.58-34.14
				C609.4,738.45,598.4,738.47,598.07,745.52L598.07,745.52z"/>
		</g>
	</g>
	<g class="st13">
		<g>
			<path class="st12" d="M461.41,755.65c-0.19,7.54-0.61,15.07-0.85,22.61c-0.24,7.45,0.44,15.15-0.98,22.5
				c-1.34,6.92,9.26,9.88,10.61,2.92c1.51-7.8,1.1-15.64,1.32-23.54c0.22-8.17,0.7-16.32,0.9-24.49
				C472.59,748.57,461.59,748.57,461.41,755.65L461.41,755.65z"/>
		</g>
	</g>
	<g class="st13">
		<g>
			<path class="st12" d="M607.88,883.9c9.49,4.83,19.23,10.85,25.12,20c3.46,5.39,4.86,11.71,7.1,17.64
				c0.87,2.3,2.03,4.61,2.42,7.05c0.41,2.58,0.16,4.76,1.85,6.98c4.24,5.55,13.8,0.08,9.5-5.55c-1.05-1.38-0.79-4.96-1.39-6.79
				c-1.12-3.41-2.57-6.73-3.73-10.13c-2.08-6.09-4.07-11.91-7.91-17.15c-6.99-9.53-16.99-16.25-27.4-21.55
				C607.13,871.19,601.56,880.68,607.88,883.9L607.88,883.9z"/>
		</g>
	</g>
</g>
<g id="Ebene_27">
</g>
<g id="Ebene_28">
</g>
<g id="Ebene_33">
	<g>
		<g id="Ebene_2_Kopie">
			<g class="st14">
				<path d="M702.87,370.8c9.64,6.63,14.04,17.97,10.41,26.8c-3.62,8.84-15,14.51-26.91,13.4c-11.9-1.1-23.42-8.9-27.24-18.43
					c-3.82-9.53,0.36-20.07,9.87-24.92c9.51-4.86,23.65-3.65,33.41,2.84"/>
				<g>
					<path d="M701.58,371.82c9.03,6.29,13.47,16.64,10.51,25.16c-2.81,8.06-12.69,13.27-23.2,12.89
						c-11.08-0.4-22.18-6.95-27.01-15.49c-4.86-8.6-2.66-18.7,5.17-24.3c8.8-6.3,24.03-5.17,34.09,1.43
						c1.33,0.87,3.83-1.23,2.59-2.05c-10.17-6.68-24.18-7.85-34.29-3.21c-10.33,4.75-15.45,15.45-12.3,25.6
						c3.07,9.9,14.31,18.16,26.36,20.1c12.3,1.99,24.29-3.15,29.68-11.41c6.18-9.47,2.15-23-9.01-30.78
						C702.88,368.87,700.35,370.96,701.58,371.82L701.58,371.82z"/>
				</g>
			</g>
			<g class="st14">
				<path d="M706.32,189.15c3.26-8.25,8.24-16.14,16.31-21.47s19.63-7.76,30.42-4.71c15.64,4.42,25.44,19.43,24.46,32.32
					c-0.98,12.89-10.5,23.6-22.04,31.48s-25.21,13.55-37.54,20.63c-20.09,11.55-36.82,27.24-45.06,46.54
					c-5.42,12.68-6.88,27.6,0.99,40.76c7.87,13.16,27.08,23.22,42.96,19.51c10.07-2.35,16.93-9.5,20.93-17.32
					c4-7.82,5.66-16.48,8.67-24.67c6.21-16.9,18.29-31.81,34.61-42.71c20.2-13.5,46.96-21.19,61.92-38.73
					c15.84-18.57,14.81-45.92,0.47-68.22c-14.34-22.3-40.53-39.47-68.92-48.64c-31.2-10.08-65.92-10.9-93.9-0.5
					s-48.37,32.36-51.41,58.2c-1.2,10.18,0.42,21.31,7.71,30.52c9.6,12.14,28.94,18.98,44.69,15.82s18.31-15.46,24.63-28.54"/>
				<g>
					<path d="M707.83,188.93c2.92-7.33,7.22-14.4,14.15-19.5c6.21-4.57,14.85-7.22,23.85-6.42c17.74,1.56,29.7,16.74,30.18,30.13
						c0.6,16.73-14.3,29.21-29.16,37.73c-8.04,4.61-16.62,8.61-24.83,13.03c-7.82,4.21-15.21,8.91-21.91,14.23
						c-13.1,10.39-23.69,23.08-29.44,37.67c-5.16,13.09-6.37,29.54,3.88,42.9c8.6,11.21,25.52,19.88,40.76,17
						c8.35-1.58,14.88-6.24,19.39-11.85c5.32-6.62,7.81-14.51,10.17-22.32c2.43-8.04,5.24-15.84,9.66-23.15
						c4.2-6.94,9.5-13.4,15.76-19.1c6.09-5.55,13.07-10.3,20.63-14.51c7.14-3.98,14.64-7.55,21.95-11.34
						c14.34-7.42,28.18-15.98,35.91-28.7c7.49-12.31,9-27.24,5.39-41.63c-3.72-14.87-12.89-28.85-25.76-40.58
						c-13-11.84-29.34-21.24-46.75-27.65c-17.66-6.5-36.66-9.99-55.14-10.12c-18.41-0.13-36.34,3.08-51.8,9.9
						c-15.25,6.73-27.82,16.91-36.3,29.24c-8.28,12.03-13.03,26.91-10.57,41.68c1.21,7.23,4.38,14.55,10.34,20.56
						c5.5,5.53,13.11,9.71,21.13,11.94c8.04,2.24,16.62,2.61,24.16,0.61c7.1-1.88,12.08-6.21,15.49-11.43
						c3.63-5.56,5.76-11.82,8.6-17.72c0.88-1.83-2.2-1.41-2.78-0.2c-2.86,5.95-5,12.26-8.69,17.85c-3.41,5.17-8.6,8.73-15.93,9.86
						c-15.84,2.44-34.56-5.1-43.17-17.48c-9.36-13.46-7.76-29.69-2.68-42.65c5.21-13.33,15.35-24.98,28.49-33.43
						c13.47-8.67,29.99-13.87,47.71-15.59c17.92-1.74,36.87,0.02,54.91,4.85c17.76,4.75,34.81,12.5,49.27,22.86
						c14.3,10.25,26.04,23.1,32.48,37.43c6.26,13.93,7.63,29,3.1,42.35c-2.25,6.66-6.07,12.74-11.25,17.97
						c-5.22,5.27-11.69,9.62-18.48,13.5c-13.93,7.96-29.4,14.21-42.3,23.27c-13.85,9.72-24.57,22.39-31.03,36.65
						c-3.52,7.77-5.31,16.06-8.26,24.02c-2.57,6.95-6.39,13.74-13.14,18.36c-5.91,4.05-13.79,5.52-21.97,3.98
						c-7.8-1.47-15.16-5.35-20.83-10.24c-13.19-11.38-14.97-27.38-11.52-40.73c3.8-14.69,13.35-27.78,25.31-38.39
						c6.15-5.45,13-10.35,20.38-14.69c7.81-4.58,16.19-8.53,24.28-12.8c15.49-8.18,30.71-18.41,35.99-33.73
						c2.26-6.55,2.22-13.65-0.66-20.58c-2.6-6.26-7.45-12.35-14.17-16.41c-15.6-9.43-34.9-4.67-45.47,5.03
						c-5.81,5.33-9.61,11.89-12.37,18.8c-0.26,0.65,0.49,1.08,1.2,1.01C706.94,190.29,707.57,189.59,707.83,188.93L707.83,188.93z"
						/>
				</g>
			</g>
			<g class="st14">
				<path d="M679.97,386.17c-2.76-6.47,2.64-13.62,10.62-14.06"/>
				<g>
					<path d="M681.45,385.37c-2.31-5.66,1.84-11.57,8.83-12.03c1.45-0.1,2.86-2.61,0.63-2.46c-9.08,0.6-15.45,8.62-12.41,16.08
						C679.04,388.29,681.94,386.58,681.45,385.37L681.45,385.37z"/>
				</g>
			</g>
			<g class="st14">
				<path d="M680.24,377.61c0.61,0.09,0.89,0.89,0.4,1.13c-0.64-0.52-0.42-1.49,0.38-1.66"/>
				<g>
					<path d="M679.22,378.79c0.19,0.04,0.16,0.1,0.06-0.02c0.14,0.16-0.05-0.13,0.02-0.01c0.06,0.11,0.02,0.16,0.03-0.01
						c0,0.03,0,0.05,0.01,0.08c0.01-0.45,0.28-0.8,0.82-1.05c0.59-0.02,1.18-0.04,1.77-0.06c-0.05-0.04-0.09-0.08-0.13-0.13
						c0.17,0.18,0.04,0.04,0.02-0.02c-0.04-0.15,0.03,0.19,0,0.04c-0.03-0.23-0.02,0.04-0.03,0.03c-0.03-0.02,0.05-0.13,0.03-0.15
						c0.02,0.02-0.12,0.28-0.03,0.11c-0.1,0.18-0.25,0.33-0.44,0.46c-0.05,0.03-0.48,0.22-0.26,0.16c0.76-0.19,1.53-0.96,1.46-1.66
						c-0.07-0.78-1-0.77-1.63-0.61c-1.62,0.4-3.13,2.46-1.59,3.81c0.47,0.42,1.37,0.18,1.77-0.06c0.77-0.46,1.43-1.15,1.3-2.03
						c-0.07-0.51-0.49-1.1-1.16-1.23c-0.89-0.18-1.73,0.19-2.19,0.76c-0.22,0.27-0.42,0.59-0.38,0.94
						C678.71,378.37,678.88,378.72,679.22,378.79L679.22,378.79z"/>
				</g>
			</g>
		</g>
		<g id="Ebene_2_1_">
			<g>
				<path class="st15" d="M711.35,367.17c9.64,6.63,14.04,17.97,10.41,26.8c-3.62,8.84-15,14.51-26.91,13.4
					c-11.9-1.1-23.42-8.9-27.24-18.43s0.36-20.07,9.87-24.92c9.51-4.86,23.65-3.65,33.41,2.84"/>
				<g>
					<path d="M710.05,368.19c9.03,6.29,13.47,16.64,10.51,25.16c-2.81,8.06-12.69,13.27-23.2,12.89
						c-11.08-0.4-22.18-6.95-27.01-15.49c-4.86-8.6-2.66-18.7,5.17-24.3c8.8-6.3,24.03-5.17,34.09,1.43
						c1.33,0.87,3.83-1.23,2.59-2.05c-10.17-6.68-24.18-7.85-34.29-3.21c-10.33,4.75-15.45,15.45-12.3,25.6
						c3.07,9.9,14.31,18.16,26.36,20.1c12.3,1.99,24.29-3.15,29.68-11.41c6.18-9.47,2.15-23-9.01-30.78
						C711.35,365.25,708.82,367.34,710.05,368.19L710.05,368.19z"/>
				</g>
			</g>
			<g>
				<path class="st16" d="M719.78,186.27c3.26-8.25,8.24-16.14,16.31-21.47c8.07-5.33,19.63-7.76,30.42-4.71
					c15.64,4.42,25.44,19.43,24.46,32.32c-0.98,12.89-10.5,23.6-22.04,31.48c-11.54,7.89-25.21,13.55-37.54,20.63
					c-20.09,11.55-36.82,27.24-45.06,46.54c-5.42,12.68-6.88,27.6,0.99,40.76c7.87,13.16,27.08,23.22,42.96,19.51
					c10.07-2.35,16.93-9.5,20.93-17.32c4-7.82,5.66-16.48,8.67-24.67c6.21-16.9,18.29-31.81,34.61-42.71
					c20.2-13.5,46.96-21.19,61.92-38.73c15.84-18.57,14.81-45.92,0.47-68.22c-14.34-22.3-40.53-39.47-68.92-48.64
					c-31.19-10.08-65.91-10.9-93.9-0.5c-27.98,10.4-48.38,32.37-51.42,58.2c-1.2,10.18,0.42,21.31,7.71,30.52
					c9.6,12.14,28.94,18.98,44.69,15.82s18.31-15.46,24.63-28.54"/>
				<g>
					<path d="M721.3,186.05c2.92-7.33,7.22-14.4,14.15-19.5c6.21-4.57,14.85-7.22,23.85-6.42c17.74,1.56,29.7,16.74,30.18,30.13
						c0.6,16.73-14.3,29.21-29.16,37.73c-8.04,4.61-16.62,8.61-24.83,13.03c-7.82,4.21-15.21,8.91-21.91,14.23
						c-13.1,10.39-23.69,23.08-29.44,37.67c-5.16,13.09-6.37,29.54,3.88,42.9c8.6,11.21,25.52,19.88,40.76,17
						c8.35-1.58,14.88-6.24,19.39-11.85c5.32-6.62,7.81-14.51,10.17-22.32c2.43-8.04,5.24-15.84,9.66-23.15
						c4.2-6.94,9.5-13.4,15.76-19.1c6.09-5.55,13.07-10.3,20.63-14.51c7.14-3.98,14.64-7.55,21.95-11.34
						c14.34-7.42,28.18-15.98,35.91-28.7c7.49-12.31,9-27.24,5.39-41.63c-3.72-14.87-12.89-28.85-25.76-40.58
						c-13-11.84-29.34-21.24-46.75-27.65c-17.66-6.5-36.66-9.99-55.14-10.12c-18.41-0.13-36.34,3.08-51.8,9.9
						c-15.25,6.73-27.82,16.91-36.3,29.24c-8.28,12.03-13.03,26.91-10.57,41.68c1.21,7.23,4.38,14.56,10.34,20.56
						c5.5,5.53,13.11,9.71,21.13,11.94c8.04,2.24,16.62,2.61,24.16,0.61c7.1-1.88,12.08-6.21,15.49-11.43
						c3.63-5.56,5.76-11.82,8.6-17.72c0.88-1.83-2.2-1.41-2.78-0.2c-2.86,5.95-5,12.26-8.69,17.85c-3.41,5.17-8.6,8.73-15.93,9.86
						c-15.84,2.44-34.56-5.1-43.17-17.48c-9.36-13.46-7.76-29.69-2.68-42.65c5.21-13.33,15.35-24.98,28.49-33.43
						c13.47-8.67,29.99-13.87,47.71-15.59c17.92-1.74,36.87,0.02,54.91,4.85c17.76,4.75,34.81,12.5,49.27,22.86
						c14.3,10.25,26.04,23.1,32.48,37.43c6.26,13.93,7.63,29,3.1,42.35c-2.25,6.66-6.07,12.74-11.25,17.97
						c-5.22,5.27-11.69,9.62-18.48,13.5c-13.93,7.96-29.4,14.21-42.3,23.27c-13.85,9.72-24.57,22.39-31.03,36.65
						c-3.52,7.77-5.31,16.06-8.26,24.02c-2.57,6.95-6.39,13.74-13.14,18.36c-5.91,4.05-13.79,5.52-21.97,3.98
						c-7.8-1.47-15.16-5.35-20.83-10.24c-13.19-11.38-14.97-27.38-11.52-40.73c3.8-14.69,13.35-27.78,25.31-38.39
						c6.15-5.45,13-10.35,20.38-14.69c7.81-4.58,16.19-8.53,24.28-12.8c15.49-8.18,30.71-18.41,35.99-33.73
						c2.26-6.55,2.22-13.65-0.66-20.58c-2.6-6.26-7.45-12.35-14.17-16.41c-15.6-9.43-34.9-4.67-45.47,5.03
						c-5.81,5.33-9.61,11.89-12.37,18.8c-0.26,0.65,0.49,1.08,1.2,1.01C720.4,187.41,721.03,186.72,721.3,186.05L721.3,186.05z"/>
				</g>
			</g>
			<g>
				<g>
					<path d="M681.45,385.37c-2.31-5.66,1.84-11.57,8.83-12.03c1.45-0.1,2.86-2.61,0.63-2.46c-9.08,0.6-15.45,8.62-12.41,16.08
						C679.04,388.29,681.94,386.58,681.45,385.37L681.45,385.37z"/>
				</g>
			</g>
			<g>
				<path class="st15" d="M699.37,372.67c0.61,0.09,0.89,0.89,0.4,1.13c-0.64-0.52-0.42-1.49,0.38-1.66"/>
				<g>
					<path d="M698.35,373.85c0.19,0.04,0.16,0.1,0.06-0.02c0.14,0.16-0.05-0.13,0.02-0.01c0.06,0.11,0.02,0.16,0.03-0.01
						c0,0.03,0,0.05,0.01,0.08c0.01-0.45,0.28-0.8,0.82-1.05c0.59-0.02,1.18-0.04,1.77-0.06c-0.05-0.04-0.09-0.08-0.13-0.13
						c0.17,0.18,0.04,0.04,0.02-0.02c-0.04-0.15,0.03,0.19,0,0.04c-0.03-0.23-0.02,0.04-0.03,0.03c-0.03-0.02,0.05-0.13,0.03-0.15
						c0.02,0.02-0.12,0.28-0.03,0.11c-0.1,0.18-0.25,0.33-0.44,0.46c-0.05,0.03-0.48,0.22-0.26,0.16c0.76-0.19,1.53-0.96,1.46-1.66
						c-0.07-0.78-1-0.77-1.63-0.61c-1.62,0.4-3.13,2.46-1.59,3.81c0.47,0.42,1.37,0.18,1.77-0.06c0.77-0.46,1.43-1.15,1.3-2.03
						c-0.07-0.51-0.49-1.1-1.16-1.23c-0.89-0.18-1.73,0.19-2.19,0.76c-0.22,0.27-0.42,0.59-0.38,0.94
						C697.84,373.43,698.01,373.78,698.35,373.85L698.35,373.85z"/>
				</g>
			</g>
		</g>
		<g id="Ebene_4_1_">
			<g class="st14">
				<path d="M702.12,362.74c-13.01-3.35-31.5,3.08-34.99,13.11s7.17,24.92,19.67,29.76c-10.2-5.02-16.93-19.15-13.13-27.43
					c3.8-8.28,14.66-13.93,28.85-15.31"/>
				<g>
					<path d="M703.15,361.56c-5.76-1.44-11.72-1.15-17.09,0.09c-5.62,1.3-10.89,3.59-14.89,6.92c-3.86,3.2-6.3,7.29-6.25,12.11
						c0.05,4.85,2.32,9.87,5.59,14.19c3.71,4.92,8.88,9.39,15.28,11.91c1.37,0.54,3.63-1.55,2.04-2.35
						c-8.07-4.05-12.88-12.61-13.59-19.7c-0.36-3.55,0.53-6.78,2.72-9.61c2.28-2.95,5.52-5.23,9.22-6.96
						c4.81-2.25,10.36-3.48,16.04-4.05c0.85-0.09,1.69-0.77,1.83-1.45c0.14-0.67-0.39-1.09-1.2-1.01
						c-10.65,1.07-21.11,4.63-27.31,11.56c-2.72,3.04-4.42,6.6-4.47,10.6c-0.06,4.09,1.34,8.38,3.6,12.24
						c2.48,4.23,6.14,8.23,11.13,10.74c0.68-0.78,1.36-1.57,2.04-2.35c-10.11-3.99-18.09-13.52-19.57-22.22
						c-0.72-4.23,0.36-8.02,3.41-11.12c3.04-3.1,7.49-5.22,12.12-6.55c5.28-1.52,11.49-2.1,17.32-0.63
						C702.57,364.28,704.74,361.96,703.15,361.56L703.15,361.56z"/>
				</g>
			</g>
			<g class="st14">
				<path d="M782.62,212.2c-11.95,11.39-25.23,17.42-40.04,26.33c-14.82,8.91-28.25,15.76-39.45,27.68
					c-11.2,11.92-22.27,37.66-20.47,53.66c1.8,16,18.5,32.74,43.39,32.13c-24.6-18.94-6.72-68.34,8.1-82.51
					c14.39-13.76,48.25-39.13,55.03-69"/>
				<g>
					<path d="M781.46,211.78c-11.3,10.72-26.35,18-40.23,26.31c-13.92,8.33-28.34,16.19-38.99,27.42c-4.04,4.26-7.23,9.1-9.99,14.05
						c-3.12,5.6-5.69,11.46-7.68,17.49c-3.5,10.59-5.98,22.6-0.2,33.9c2.85,5.56,7.43,10.73,13.27,14.61
						c6.27,4.16,13.73,6.7,21.35,7.45c2.14,0.21,4.27,0.27,6.38,0.23c0.93-0.02,3.22-1.31,1.98-2.27
						c-8.89-6.9-11.48-17.08-11.87-26.08c-0.47-10.97,2.04-21.73,5.9-31.78c1.78-4.64,3.94-9.17,6.52-13.49
						c2.02-3.38,4.27-6.64,7.21-9.51c4.01-3.92,8.45-7.65,12.68-11.45c5.48-4.92,10.86-9.92,15.92-15.14
						c10.89-11.23,20.73-23.7,25.52-37.99c0.58-1.73,1.07-3.48,1.48-5.26c0.15-0.65-0.41-1.09-1.2-1.01
						c-0.85,0.09-1.68,0.77-1.83,1.45c-3.4,14.76-12.86,27.6-23.5,39.03c-9.17,9.86-19.75,18.63-29.7,27.93
						c-6.95,6.5-11.44,14.57-14.92,22.86c-4.26,10.16-7.08,21.02-7.22,32.17c-0.11,9.28,1.69,19.89,9.63,27.86
						c0.86,0.87,1.8,1.68,2.8,2.46c0.66-0.76,1.32-1.51,1.98-2.27c-7.8,0.16-15.73-1.39-22.79-5.04
						c-6.23-3.22-11.4-7.97-14.83-13.25c-3.3-5.08-4.99-10.54-5.1-15.99c-0.12-5.71,1.03-11.3,2.59-16.69
						c1.74-5.99,4.1-11.8,6.99-17.38c2.58-4.99,5.55-9.87,9.32-14.25c9.43-10.99,23.16-18.62,36.31-26.39
						c6.97-4.12,14.03-8.12,21.04-12.2c6.77-3.95,13.34-8.14,19.14-13.01c1.51-1.27,2.96-2.59,4.38-3.93
						c0.42-0.39,0.64-1.27-0.14-1.59C782.8,210.67,781.89,211.37,781.46,211.78L781.46,211.78z"/>
				</g>
			</g>
			<g class="st14">
				<path d="M773.68,107.13c-20.42-2.79-49.58-4.68-67.7,0.08c-18.12,4.76-39.11,18.14-50.15,30.43
					c-11.04,12.28-16.13,35.33-11.16,51.42c4.98,16.09,20,26.42,43.37,26.79c-12.73-6.46-24.57-17.11-25.46-28.74
					c-0.89-11.63,3.92-22.54,10.58-32.09c17.99-25.79,52.04-42.74,99.9-47.13"/>
				<g>
					<path d="M774.36,105.89c-17.88-2.43-36.26-3.77-53.76-2.23c-8.27,0.73-16.05,2.42-23.34,5.23
						c-8.23,3.17-15.81,7.26-22.81,11.86c-6.78,4.46-13.1,9.42-18.47,15.03c-4.87,5.1-8.23,11.03-10.61,17.34
						c-2.52,6.68-3.93,13.77-4.15,20.98c-0.2,6.58,0.61,13.45,3.54,19.94c2.63,5.83,7.1,11.29,13.26,15.24
						c6.63,4.25,14.54,6.53,22.45,7.39c2.3,0.25,4.59,0.38,6.88,0.42c1.11,0.02,3.34-1.59,1.71-2.42
						c-11.21-5.72-22.37-14.93-24.59-25.67c-1.34-6.49,0.01-13.18,2.15-19.11c2.14-5.9,5.41-11.46,9.26-16.6
						c5.84-7.81,13.21-14.7,21.77-20.52c9.1-6.17,19.53-11.05,30.63-14.76c12.34-4.12,25.51-6.79,39.03-8.34
						c1.81-0.21,3.63-0.39,5.45-0.56c1.44-0.13,2.84-2.66,0.63-2.46c-14.33,1.33-28.34,3.84-41.52,7.89
						c-11.84,3.63-23.01,8.53-32.84,14.77c-9.33,5.93-17.47,13.01-23.94,21.14c-8.22,10.34-14.65,22.56-14.13,35.82
						c0.45,11.43,10.12,21.51,21.69,28.34c1.43,0.84,2.89,1.64,4.38,2.4c0.57-0.81,1.14-1.61,1.71-2.42
						c-8.11-0.15-16.48-1.48-23.95-5.05c-6.35-3.03-11.51-7.63-14.84-12.95c-3.71-5.92-5.19-12.36-5.55-18.65
						c-0.4-6.95,0.53-13.82,2.41-20.37c1.81-6.31,4.53-12.52,8.76-17.83c4.37-5.49,10.15-10.22,16.13-14.5
						c12.13-8.7,26.63-16.38,43.39-18.59c8.42-1.11,17.13-1.26,25.84-1c8.71,0.26,17.48,0.95,26.22,1.98
						c1.95,0.23,3.91,0.48,5.86,0.74C774.42,108.57,776.34,106.16,774.36,105.89L774.36,105.89z"/>
				</g>
			</g>
		</g>
		<g id="Ebene_5_1_">
			<g class="st14">
				<g>
					<path class="st12" d="M804.78,133.54c1.32,0.7,2.62,1.43,3.88,2.19c0.63,0.38,1.26,0.78,1.87,1.18c0.31,0.2,0.61,0.4,0.92,0.61
						c0.13,0.09,1.39,0.96,0.62,0.42c2.38,1.69,4.62,3.52,6.72,5.44c4.25,3.91,7.62,7.96,10.53,12.64c6,9.65,8.52,20.09,7.04,30.16
						c-3.54,24.05-25.58,40.6-45.75,55.35c-11.68,8.54-23.33,17.16-32.45,27.68c-0.42,0.49,1.26,1.59,1.49,1.73
						c1.23,0.76,2.87,1.36,4.28,1.73c1.91,0.5,5.46,1.48,6.74,0.01c16.39-18.91,41.32-31.17,58.99-49.12
						c8.8-8.94,16.14-19.26,18.7-31.09c2.22-10.26,0.41-21.27-5.2-31.45c-6.06-10.99-16.3-20.86-28.84-27.48
						c-2.59-1.37-5.88-2.56-8.85-2.46c-0.71,0.02-1.98,0.02-2.17,0.72C803.11,132.46,804.22,133.24,804.78,133.54L804.78,133.54z"/>
				</g>
			</g>
			<g class="st14">
				<g>
					<path class="st12" d="M704.38,380.97c1.05,4.31-0.26,8.71-2.87,12.13c-1.27,1.66-2.97,3.08-4.9,4.23
						c-2.22,1.31-4.08,1.97-6.71,2.4c-2.68,0.43,0.41,2.46,1.59,2.99c2.52,1.13,6.01,2.19,8.73,1.75
						c11.58-1.87,18.9-11.17,16.48-21.07c-0.17-0.68-2.03-1.57-2.59-1.83c-1.45-0.68-3.2-1.23-4.77-1.51
						C708,379.81,703.91,379.06,704.38,380.97L704.38,380.97z"/>
				</g>
			</g>
		</g>
	</g>
	<g>
		<g id="Ebene_2_Kopie_1_">
			<g class="st14">
				<path d="M846.49,457.69c7.22,3.29,11.52,10.38,10.16,16.77c-1.36,6.39-8.27,11.59-16.35,12.3s-16.69-3.13-20.38-9.08
					c-3.69-5.95-2.16-13.55,3.6-17.98c5.77-4.43,15.34-5.34,22.63-2.16"/>
				<g>
					<path d="M845.75,458.54c6.78,3.14,10.98,9.55,10.02,15.65c-0.91,5.77-6.88,10.48-13.93,11.5c-7.44,1.09-15.63-1.97-19.88-7.13
						c-4.27-5.19-4.01-12.26,0.54-16.99c5.12-5.31,15.41-6.41,22.91-3.19c0.99,0.43,2.41-1.29,1.48-1.69
						c-7.59-3.25-17.07-2.34-23.26,2.02c-6.33,4.45-8.46,12.28-5.14,18.73c3.23,6.29,11.72,10.48,19.99,10.32
						c8.45-0.16,15.83-5.08,18.44-11.3c2.99-7.13-1.32-15.74-9.69-19.62C846.26,456.4,844.83,458.11,845.75,458.54L845.75,458.54z"
						/>
				</g>
			</g>
			<g class="st14">
				<path d="M827.05,335.01c1.19-5.95,3.57-11.87,8.31-16.44c4.75-4.57,12.17-7.62,19.73-6.88c10.96,1.07,19.3,9.98,20.19,18.77
					s-4.18,17.16-10.94,23.88c-6.75,6.71-15.2,12.19-22.58,18.46c-12.02,10.22-21.3,22.82-24.49,36.82
					c-2.1,9.19-1.29,19.42,5.54,27.31c6.82,7.9,20.85,12.33,30.99,7.9c6.44-2.81,10.16-8.46,11.89-14.21
					c1.73-5.75,1.81-11.78,2.83-17.66c2.12-12.13,8.4-23.64,17.98-32.97c11.86-11.55,28.8-19.99,36.68-33.62
					c8.34-14.43,4.38-32.71-7.85-45.97c-12.23-13.26-31.77-21.63-51.8-24.33c-22.02-2.98-45.29,0.7-62.71,11.11
					c-17.42,10.41-28.4,27.68-27.34,45.44c0.42,7,2.83,14.29,8.79,19.6c7.86,7,21.58,9.25,31.71,5.2
					c10.13-4.05,10.36-12.63,13.02-22.21"/>
				<g>
					<path d="M828.04,334.68c1.07-5.29,3.09-10.57,7.11-14.85c3.6-3.83,9.05-6.67,15.14-7.23c12.02-1.11,21.82,7.64,23.74,16.6
						c2.4,11.19-6.04,21.4-14.94,28.95c-4.81,4.08-10.06,7.82-15.01,11.8c-4.71,3.79-9.08,7.85-12.92,12.25
						c-7.5,8.59-13.04,18.42-15.13,28.94c-1.87,9.44-0.71,20.66,7.72,28.4c7.08,6.49,19.41,10.27,29.23,6.48
						c5.38-2.08,9.18-6.02,11.52-10.34c2.75-5.1,3.48-10.72,4.11-16.26c0.66-5.71,1.6-11.3,3.67-16.76
						c1.97-5.19,4.74-10.17,8.23-14.78c3.4-4.48,7.49-8.52,12.03-12.28c4.29-3.55,8.86-6.87,13.29-10.31
						c8.68-6.74,16.89-14.19,20.53-23.69c3.52-9.2,2.74-19.43-1.39-28.68c-4.26-9.55-12.06-17.85-22.04-24.17
						c-10.09-6.39-22.12-10.72-34.5-12.91c-12.56-2.22-25.65-2.26-38-0.09c-12.3,2.16-23.88,6.5-33.37,12.98
						c-9.37,6.39-16.54,14.77-20.72,24.1c-4.08,9.11-5.47,19.7-2.06,29.34c1.67,4.72,4.66,9.26,9.36,12.57
						c4.33,3.05,9.91,4.94,15.53,5.46c5.63,0.53,11.4-0.27,16.19-2.54c4.51-2.13,7.32-5.65,8.97-9.58
						c1.76-4.19,2.43-8.65,3.62-12.97c0.37-1.34-1.63-0.68-1.88,0.2c-1.2,4.35-1.87,8.86-3.66,13.08c-1.65,3.89-4.69,6.92-9.44,8.58
						c-10.28,3.58-23.66,0.78-30.9-6.5c-7.86-7.91-8.73-19.04-6.9-28.38c1.88-9.61,7.25-18.68,15.01-25.97
						c7.95-7.48,18.35-12.99,29.96-16.31c11.75-3.36,24.6-4.48,37.22-3.43c12.42,1.03,24.72,4.17,35.61,9.38
						c10.77,5.15,20.14,12.37,26.15,21.23c5.84,8.61,8.56,18.59,7.14,28.13c-0.71,4.75-2.53,9.31-5.36,13.46
						c-2.85,4.19-6.65,7.9-10.72,11.34c-8.34,7.05-17.92,13.15-25.44,20.82c-8.08,8.23-13.71,18.07-16.31,28.45
						c-1.42,5.66-1.62,11.46-2.63,17.17c-0.88,4.99-2.62,10.02-6.57,13.96c-3.46,3.45-8.54,5.39-14.18,5.36
						c-5.38-0.04-10.76-1.75-15.12-4.35c-10.16-6.05-13.27-16.6-12.56-26.01c0.77-10.35,5.58-20.32,12.29-28.92
						c3.45-4.42,7.43-8.55,11.84-12.37c4.66-4.04,9.78-7.71,14.67-11.57c9.35-7.39,18.28-16.13,19.97-27.09
						c0.72-4.68-0.16-9.46-2.91-13.77c-2.48-3.9-6.45-7.4-11.42-9.31c-11.54-4.44-23.85,1.11-29.73,8.92
						c-3.24,4.3-4.99,9.17-6,14.16c-0.09,0.47,0.46,0.67,0.92,0.53C827.6,335.71,827.94,335.16,828.04,334.68L828.04,334.68z"/>
				</g>
			</g>
			<g class="st14">
				<path d="M833.05,470.83c-2.61-4.02,0.13-9.49,5.4-10.76"/>
				<g>
					<path d="M833.94,470.11c-2.22-3.53-0.16-8.01,4.45-9.17c0.96-0.24,1.6-2.1,0.12-1.73c-5.99,1.51-9.28,7.69-6.35,12.34
						C832.68,472.37,834.41,470.87,833.94,470.11L833.94,470.11z"/>
				</g>
			</g>
			<g class="st14">
				<path d="M832.21,465.04c0.42-0.02,0.7,0.49,0.4,0.71c-0.49-0.27-0.46-0.96,0.06-1.16"/>
				<g>
					<path d="M831.67,465.95c0.13,0,0.12,0.04,0.04-0.02c0.11,0.09-0.05-0.08,0.01-0.01c0.05,0.06,0.04,0.11,0.02-0.01
						c0.01,0.02,0.01,0.03,0.01,0.05c-0.05-0.3,0.09-0.57,0.42-0.81c0.39-0.09,0.78-0.17,1.17-0.26c-0.04-0.02-0.07-0.04-0.1-0.07
						c0.13,0.1,0.03,0.02,0.01-0.02c-0.04-0.1,0.04,0.13,0.01,0.03c-0.05-0.15-0.01,0.03-0.02,0.02c-0.02-0.01,0.02-0.09,0-0.11
						c0.01,0.01-0.05,0.21-0.01,0.08c-0.04,0.14-0.13,0.26-0.24,0.36c-0.03,0.03-0.3,0.21-0.15,0.14c0.49-0.22,0.91-0.83,0.78-1.29
						c-0.14-0.51-0.76-0.4-1.16-0.21c-1.04,0.47-1.79,2.04-0.61,2.76c0.37,0.22,0.93-0.05,1.17-0.26c0.46-0.4,0.82-0.95,0.63-1.52
						c-0.11-0.33-0.46-0.68-0.92-0.69c-0.61-0.02-1.13,0.34-1.37,0.78c-0.11,0.21-0.21,0.45-0.14,0.68
						C831.28,465.73,831.43,465.95,831.67,465.95L831.67,465.95z"/>
				</g>
			</g>
		</g>
		<g id="Ebene_2_2_">
			<g>
				<path class="st15" d="M851.71,454.22c7.22,3.29,11.52,10.38,10.16,16.77c-1.36,6.39-8.27,11.59-16.35,12.3
					s-16.69-3.13-20.38-9.08c-3.69-5.95-2.16-13.55,3.61-17.98c5.77-4.43,15.34-5.34,22.63-2.16"/>
				<g>
					<path d="M850.97,455.06c6.78,3.14,10.98,9.55,10.02,15.65c-0.91,5.77-6.88,10.48-13.93,11.5c-7.44,1.09-15.63-1.97-19.88-7.13
						c-4.27-5.19-4.01-12.26,0.54-16.99c5.12-5.31,15.41-6.41,22.91-3.19c0.99,0.43,2.41-1.29,1.48-1.69
						c-7.59-3.25-17.07-2.34-23.26,2.02c-6.33,4.45-8.46,12.28-5.14,18.73c3.23,6.29,11.72,10.48,19.99,10.32
						c8.45-0.16,15.83-5.08,18.44-11.3c2.99-7.13-1.32-15.74-9.69-19.62C851.48,452.92,850.05,454.64,850.97,455.06L850.97,455.06z"
						/>
				</g>
			</g>
			<g>
				<path class="st16" d="M835.69,331.44c1.19-5.95,3.57-11.87,8.31-16.44c4.75-4.57,12.17-7.62,19.73-6.88
					c10.96,1.07,19.3,9.97,20.19,18.77s-4.18,17.16-10.94,23.88c-6.75,6.71-15.2,12.19-22.58,18.46
					c-12.02,10.22-21.3,22.82-24.49,36.82c-2.1,9.19-1.29,19.42,5.54,27.31s20.85,12.33,30.99,7.9c6.44-2.81,10.16-8.46,11.89-14.21
					c1.73-5.75,1.81-11.78,2.83-17.66c2.12-12.13,8.4-23.64,17.98-32.97c11.86-11.55,28.8-19.99,36.68-33.62
					c8.34-14.43,4.38-32.71-7.85-45.97c-12.23-13.26-31.77-21.63-51.8-24.33c-22.01-2.98-45.28,0.7-62.7,11.11
					c-17.42,10.41-28.4,27.68-27.34,45.44c0.42,7,2.83,14.29,8.79,19.6c7.86,7,21.58,9.25,31.71,5.2
					c10.13-4.05,10.36-12.63,13.02-22.21"/>
				<g>
					<path d="M836.67,331.11c1.07-5.29,3.09-10.57,7.11-14.85c3.6-3.83,9.05-6.67,15.14-7.23c12.02-1.11,21.82,7.64,23.74,16.6
						c2.4,11.19-6.04,21.4-14.94,28.95c-4.81,4.08-10.06,7.82-15.01,11.8c-4.71,3.79-9.08,7.85-12.92,12.25
						c-7.5,8.59-13.04,18.42-15.13,28.94c-1.87,9.44-0.71,20.66,7.72,28.4c7.08,6.49,19.41,10.27,29.23,6.48
						c5.38-2.08,9.18-6.02,11.52-10.34c2.75-5.1,3.48-10.72,4.11-16.26c0.66-5.71,1.6-11.3,3.67-16.76
						c1.97-5.19,4.74-10.17,8.23-14.78c3.4-4.48,7.49-8.52,12.03-12.28c4.29-3.55,8.86-6.87,13.29-10.31
						c8.68-6.74,16.89-14.19,20.53-23.69c3.52-9.2,2.74-19.43-1.39-28.68c-4.26-9.55-12.06-17.85-22.04-24.17
						c-10.09-6.39-22.12-10.72-34.5-12.91c-12.56-2.22-25.65-2.26-38-0.09c-12.3,2.16-23.88,6.5-33.37,12.98
						c-9.37,6.39-16.54,14.77-20.72,24.1c-4.08,9.11-5.47,19.7-2.06,29.34c1.67,4.72,4.66,9.26,9.36,12.57
						c4.33,3.05,9.91,4.94,15.53,5.46c5.63,0.53,11.4-0.27,16.19-2.54c4.51-2.13,7.32-5.65,8.97-9.58
						c1.76-4.19,2.43-8.65,3.62-12.97c0.37-1.34-1.63-0.68-1.88,0.2c-1.2,4.35-1.87,8.86-3.66,13.08c-1.65,3.89-4.69,6.92-9.44,8.58
						c-10.28,3.58-23.66,0.78-30.9-6.5c-7.86-7.91-8.73-19.04-6.9-28.38c1.88-9.61,7.25-18.68,15.01-25.97
						c7.95-7.48,18.35-12.99,29.96-16.31c11.75-3.36,24.6-4.48,37.22-3.43c12.42,1.03,24.72,4.17,35.61,9.38
						c10.77,5.15,20.14,12.37,26.15,21.23c5.84,8.61,8.56,18.59,7.14,28.13c-0.71,4.75-2.53,9.31-5.36,13.46
						c-2.85,4.19-6.65,7.9-10.72,11.34c-8.34,7.05-17.92,13.15-25.44,20.82c-8.08,8.23-13.71,18.07-16.31,28.45
						c-1.42,5.66-1.62,11.46-2.63,17.17c-0.88,4.99-2.62,10.02-6.57,13.96c-3.46,3.45-8.54,5.39-14.18,5.36
						c-5.38-0.04-10.76-1.75-15.12-4.35c-10.16-6.05-13.27-16.6-12.56-26.01c0.77-10.35,5.58-20.32,12.29-28.92
						c3.45-4.42,7.43-8.55,11.84-12.37c4.66-4.04,9.78-7.71,14.67-11.57c9.35-7.39,18.28-16.13,19.97-27.09
						c0.72-4.68-0.16-9.46-2.91-13.77c-2.48-3.9-6.45-7.4-11.42-9.31c-11.54-4.44-23.85,1.11-29.73,8.92
						c-3.24,4.3-4.99,9.17-6,14.16c-0.09,0.47,0.46,0.67,0.92,0.53C836.24,332.13,836.58,331.59,836.67,331.11L836.67,331.11z"/>
				</g>
			</g>
			<g>
				<g>
					<path d="M833.94,470.11c-2.22-3.53-0.16-8.01,4.45-9.17c0.96-0.24,1.6-2.1,0.12-1.73c-5.99,1.51-9.28,7.69-6.35,12.34
						C832.68,472.37,834.41,470.87,833.94,470.11L833.94,470.11z"/>
				</g>
			</g>
			<g>
				<path class="st15" d="M844.38,459.38c0.42-0.02,0.7,0.49,0.4,0.71c-0.49-0.27-0.46-0.96,0.06-1.16"/>
				<g>
					<path d="M843.84,460.3c0.13,0,0.12,0.04,0.04-0.02c0.11,0.09-0.05-0.08,0.01-0.01c0.05,0.06,0.04,0.11,0.02-0.01
						c0.01,0.02,0.01,0.03,0.01,0.05c-0.05-0.3,0.09-0.57,0.42-0.81c0.39-0.09,0.78-0.17,1.17-0.26c-0.04-0.02-0.07-0.04-0.1-0.07
						c0.13,0.1,0.03,0.02,0.01-0.02c-0.04-0.1,0.04,0.13,0.01,0.03c-0.05-0.15-0.01,0.03-0.02,0.02c-0.02-0.01,0.02-0.09,0-0.11
						c0.01,0.01-0.05,0.21-0.01,0.08c-0.04,0.14-0.13,0.26-0.24,0.36c-0.03,0.03-0.3,0.21-0.15,0.14c0.49-0.22,0.91-0.83,0.78-1.29
						c-0.14-0.51-0.76-0.4-1.16-0.21c-1.04,0.47-1.79,2.04-0.61,2.76c0.37,0.22,0.93-0.05,1.17-0.26c0.46-0.4,0.82-0.95,0.63-1.52
						c-0.11-0.33-0.46-0.68-0.92-0.69c-0.61-0.02-1.13,0.34-1.37,0.78c-0.11,0.21-0.21,0.45-0.14,0.68
						C843.45,460.08,843.61,460.29,843.84,460.3L843.84,460.3z"/>
				</g>
			</g>
		</g>
		<g id="Ebene_4_2_">
			<g class="st14">
				<path d="M845.03,452.36c-9.08-0.67-20.64,5.92-21.77,13.09c-1.13,7.18,7.77,15.9,16.68,17.64c-7.4-2.14-13.59-10.82-12.04-16.86
					c1.54-6.04,8.12-11.16,17.42-13.82"/>
				<g>
					<path d="M845.57,451.44c-4.01-0.27-7.96,0.66-11.39,2.15c-3.6,1.56-6.83,3.74-9.11,6.47c-2.19,2.63-3.33,5.68-2.72,8.91
						c0.61,3.26,2.73,6.36,5.43,8.87c3.06,2.86,7.05,5.24,11.62,6.16c0.98,0.2,2.24-1.49,1.08-1.83c-5.87-1.74-10.1-6.92-11.42-11.6
						c-0.66-2.35-0.46-4.63,0.67-6.8c1.17-2.26,3.06-4.2,5.31-5.81c2.94-2.1,6.5-3.61,10.21-4.68c0.56-0.16,1.04-0.72,1.05-1.2
						c0.01-0.47-0.39-0.69-0.92-0.53c-6.98,2.02-13.53,5.69-16.84,11.11c-1.45,2.38-2.16,4.98-1.72,7.68
						c0.45,2.76,1.89,5.47,3.86,7.8c2.16,2.55,5.08,4.79,8.71,5.87c0.36-0.61,0.72-1.22,1.08-1.83
						c-7.23-1.45-13.68-6.89-15.72-12.57c-0.99-2.76-0.72-5.44,0.94-7.9c1.66-2.45,4.37-4.42,7.3-5.89
						c3.34-1.67,7.41-2.81,11.48-2.54C845.51,453.34,846.68,451.52,845.57,451.44L845.57,451.44z"/>
				</g>
			</g>
			<g class="st14">
				<path d="M880.72,341.23c-6.61,9.12-14.75,14.8-23.57,22.6c-8.82,7.8-16.96,14.05-23,23.44c-6.04,9.39-10.35,28.06-7.23,38.61
					c3.11,10.55,16.26,19.78,32.8,16.34c-18.68-9.75-12.66-45.17-4.47-56.52c7.95-11.02,27.51-32.22,28.46-53.14"/>
				<g>
					<path d="M879.89,341.09c-6.26,8.59-15.42,15.33-23.69,22.61c-8.29,7.3-16.97,14.35-22.73,23.21
						c-2.18,3.36-3.73,7.01-4.98,10.68c-1.41,4.15-2.42,8.41-3.03,12.71c-1.07,7.55-1.28,15.94,3.93,22.84
						c2.56,3.39,6.24,6.32,10.6,8.22c4.68,2.04,9.96,2.84,15.14,2.41c1.45-0.12,2.88-0.34,4.28-0.62c0.62-0.13,1.99-1.27,1.05-1.77
						c-6.76-3.56-9.71-10.1-11.04-16.11c-1.63-7.32-1.24-14.88,0.13-22.11c0.63-3.34,1.53-6.65,2.74-9.87
						c0.94-2.52,2.05-4.99,3.67-7.28c2.21-3.13,4.72-6.18,7.09-9.25c3.07-3.98,6.06-8,8.81-12.13c5.92-8.89,10.99-18.48,12.48-28.68
						c0.18-1.23,0.3-2.47,0.36-3.72c0.02-0.46-0.41-0.68-0.92-0.53c-0.55,0.16-1.03,0.72-1.05,1.2
						c-0.5,10.35-5.28,20.14-11.01,29.14c-4.94,7.75-10.95,14.95-16.47,22.42c-3.86,5.22-5.89,11.2-7.22,17.21
						c-1.62,7.36-2.21,15.01-0.97,22.53c1.03,6.26,3.51,13.18,9.76,17.58c0.68,0.48,1.4,0.91,2.16,1.31
						c0.35-0.59,0.7-1.18,1.05-1.77c-5.18,1.06-10.66,0.98-15.81-0.61c-4.54-1.41-8.56-3.97-11.48-7.11
						c-2.81-3.01-4.59-6.48-5.32-10.14c-0.76-3.83-0.67-7.73-0.27-11.55c0.44-4.24,1.32-8.44,2.58-12.55
						c1.12-3.67,2.52-7.32,4.51-10.73c4.98-8.54,13.22-15.36,21.07-22.19c4.16-3.62,8.39-7.18,12.57-10.78
						c4.05-3.48,7.93-7.1,11.21-11.09c0.86-1.04,1.67-2.1,2.45-3.18c0.23-0.32,0.28-0.93-0.29-1.06
						C880.65,340.17,880.13,340.76,879.89,341.09L879.89,341.09z"/>
				</g>
			</g>
			<g class="st14">
				<path d="M862.18,271.61c-13.96,0.61-33.64,2.89-45.16,8.31c-11.52,5.41-23.92,16.98-29.82,26.59
					c-5.9,9.61-6.54,25.74-1.29,35.96c5.25,10.22,16.51,15.34,32.14,12.74c-9.27-2.79-18.44-8.52-20.43-16.24
					s-0.08-15.65,3.22-22.89c8.92-19.55,29.6-35.11,61.01-43.9"/>
				<g>
					<path d="M862.49,270.68c-12.22,0.54-24.64,1.88-36.13,5.05c-5.43,1.5-10.42,3.59-14.95,6.37c-5.11,3.14-9.68,6.81-13.8,10.76
						c-3.99,3.83-7.61,7.94-10.52,12.37c-2.64,4.03-4.17,8.43-5,12.96c-0.88,4.8-0.97,9.75-0.26,14.63
						c0.65,4.45,2.02,8.98,4.75,12.99c2.45,3.6,6.09,6.74,10.67,8.64c4.93,2.05,10.48,2.62,15.86,2.24
						c1.56-0.11,3.11-0.31,4.64-0.56c0.74-0.12,2.04-1.48,0.85-1.84c-8.17-2.49-16.71-7.32-19.48-14.28
						c-1.67-4.2-1.57-8.87-0.85-13.12c0.72-4.23,2.24-8.37,4.19-12.3c2.96-5.97,7.05-11.51,12.07-16.46
						c5.33-5.26,11.71-9.82,18.67-13.66c7.74-4.28,16.21-7.68,25.04-10.37c1.18-0.36,2.37-0.7,3.57-1.04
						c0.94-0.27,1.58-2.14,0.12-1.73c-9.4,2.64-18.45,6.04-26.76,10.37c-7.47,3.89-14.33,8.55-20.14,13.95
						c-5.51,5.13-10.1,10.89-13.44,17.15c-4.25,7.96-7.07,16.97-5.14,25.83c1.67,7.64,9.33,13.25,17.86,16.43
						c1.05,0.39,2.12,0.75,3.21,1.08c0.28-0.61,0.57-1.23,0.85-1.84c-5.43,0.89-11.17,1.01-16.58-0.48
						c-4.6-1.27-8.59-3.74-11.45-6.91c-3.18-3.53-4.94-7.68-5.94-11.88c-1.1-4.63-1.3-9.36-0.83-14c0.45-4.47,1.53-8.98,3.71-13.07
						c2.26-4.23,5.55-8.11,9.02-11.73c7.05-7.33,15.8-14.27,26.72-17.8c5.48-1.77,11.28-2.94,17.12-3.82
						c5.84-0.89,11.77-1.49,17.73-1.86c1.33-0.08,2.66-0.15,4-0.21C862.85,272.48,863.84,270.62,862.49,270.68L862.49,270.68z"/>
				</g>
			</g>
		</g>
		<g id="Ebene_5_2_">
			<g class="st14">
				<g>
					<path class="st12" d="M886.09,285.59c0.96,0.31,1.92,0.64,2.85,1c0.47,0.18,0.93,0.37,1.39,0.56c0.23,0.1,0.46,0.2,0.68,0.3
						c0.1,0.04,1.04,0.48,0.47,0.21c1.79,0.85,3.51,1.8,5.13,2.84c3.3,2.11,6.04,4.43,8.54,7.22c5.16,5.76,8.09,12.49,8.3,19.44
						c0.52,16.62-12.21,30.44-23.9,42.83c-6.77,7.17-13.51,14.39-18.33,22.59c-0.22,0.38,1.03,0.91,1.2,0.98
						c0.91,0.36,2.08,0.57,3.07,0.64c1.34,0.11,3.82,0.33,4.5-0.82c8.67-14.73,23.84-26.01,33.48-40.25
						c4.8-7.09,8.46-14.93,8.75-23.2c0.25-7.18-2.27-14.37-7.23-20.53c-5.36-6.66-13.37-12.05-22.53-14.98
						c-1.89-0.6-4.23-1-6.2-0.57c-0.47,0.1-1.32,0.25-1.36,0.75C884.85,285.06,885.68,285.45,886.09,285.59L886.09,285.59z"/>
				</g>
			</g>
			<g class="st14">
				<g>
					<path class="st12" d="M848.71,464.36c1.22,2.77,0.87,5.89-0.46,8.51c-0.65,1.27-1.62,2.44-2.77,3.44
						c-1.32,1.16-2.49,1.83-4.19,2.43c-1.74,0.62,0.57,1.61,1.42,1.82c1.82,0.45,4.27,0.74,6.04,0.12
						c7.5-2.67,11.27-9.82,8.47-16.19c-0.19-0.44-1.54-0.81-1.95-0.92c-1.05-0.28-2.28-0.44-3.36-0.44
						C850.99,463.13,848.18,463.13,848.71,464.36L848.71,464.36z"/>
				</g>
			</g>
		</g>
	</g>
</g>
</svg>
