<?xml version="1.0" encoding="utf-8"?>
<!-- Generator: Adobe Adobe Illustrator 24.2.0, SVG Export Plug-In . SVG Version: 6.00 Build 0)  -->
<svg version="1.1" xmlns="http://www.w3.org/2000/svg" xmlns:xlink="http://www.w3.org/1999/xlink" x="0px" y="0px"
	 viewBox="0 0 1080 1080" style="enable-background:new 0 0 1080 1080;" xml:space="preserve">
<style type="text/css">
	.st0{fill:#FFFFFF;stroke:#000000;stroke-width:8;stroke-linecap:round;stroke-linejoin:round;stroke-miterlimit:10;}
	.st1{fill:#FFBABA;}
	.st2{opacity:0.0706;}
	.st3{opacity:0.0706;fill:none;stroke:#000000;stroke-width:30;stroke-linecap:round;stroke-linejoin:round;stroke-miterlimit:10;}
	.st4{fill:none;stroke:#FFFFFF;stroke-width:20;stroke-linecap:round;stroke-linejoin:round;stroke-miterlimit:10;}
	.st5{fill:none;stroke:#000000;stroke-width:8;stroke-linecap:round;stroke-linejoin:round;stroke-miterlimit:10;}
	.st6{stroke:#000000;stroke-width:8;stroke-linecap:round;stroke-linejoin:round;stroke-miterlimit:10;}
	.st7{fill:#FFFFFF;}
	.st8{opacity:0.7882;}
	.st9{opacity:0.149;}
	.st10{fill:#C9316B;}
	.st11{fill:#F4F5E8;}
	.st12{fill:#6379B8;}
	.st13{fill:#F3C057;stroke:#000000;stroke-width:1.6579;stroke-miterlimit:10;}
	.st14{fill:#C8316B;}
	.st15{fill:#6478B7;}
	.st16{fill:#6378B7;}
</style>
<g id="Ebene_2">
	<path class="st0" d="M127.76,434.83c-198.99,69.78-86.69,341.75,101.2,291.26c3.05,25.7,84.24,42.25,108.18,8.96
		c15.44,35.11,156.97,88.69,217.42,4.61c28.2,41.06,124.93,68.59,184.54,17.75c262.78,86.73,252-343.83,49.12-325.17
		c11.32-57-104.56-95.15-138.26-63.81c-10.22-162.94-262.1-145.81-277.39-50.56C296.29,265.13,150.14,295.42,127.76,434.83z"/>
	<path class="st0" d="M343.8,498.48c-8.85,36.54,12.01,77.98,46.64,92.62s78.89,0.74,98.94-31.07"/>
</g>
<g id="Ebene_4">
	<path class="st1" d="M196.32,503.69c3.02,31.3,122.2,15.34,119.93-21.17C314.01,446.47,191.89,457.86,196.32,503.69z"/>
	<path class="st1" d="M555.28,499.84c-6.9,30.67,111.29,52.73,120.54,17.34C684.96,482.23,565.39,454.92,555.28,499.84z"/>
</g>
<g id="Ebene_9">
	<path class="st3" d="M357.93,340.21c-36.49-18.77-81.64-19.74-118.9-2.56s-65.85,52.13-75.29,92.07"/>
	<path class="st3" d="M132.88,464.84c-163.69,82.59-37.61,260.82,74.6,233.74"/>
	<path class="st3" d="M403.36,330.3c60.86-86.68,190.02-51.1,212.3,25.67"/>
	<path class="st3" d="M365.02,720.99c44.66,44.66,110.34,48.92,161.6,3.21"/>
	<path class="st3" d="M581.84,731.29c34.68,31.02,90.56,35.18,129.45,9.64"/>
	<path class="st3" d="M801.81,464.84c144.41,0,167.78,313.34-36.81,273.83"/>
</g>
<g id="Ebene_10">
	<path class="st4" d="M647.65,375.5c6.53-8.99,16.74-14.92,27.54-17.52s22.18-2.05,33.06,0.17c18.82,3.85,36.5,12.68,51.36,24.85
		c8.08,6.62,15.45,14.36,20.23,23.65c4.79,9.29,6.81,20.27,4.09,30.35"/>
</g>
<g id="Ebene_13">
	<path class="st5" d="M648.43,355.47c1.12,4.01,0.95,8.45,0.95,8.45"/>
	<path class="st5" d="M797.47,431.69c-3.31,0-5.91,0.1-9.21,0.29"/>
</g>
<g id="Ebene_19">
	
		<ellipse transform="matrix(0.3806 -0.9248 0.9248 0.3806 -135.0341 642.0253)" class="st6" cx="411.72" cy="421.81" rx="53.42" ry="13.5"/>
	
		<ellipse transform="matrix(0.3806 -0.9248 0.9248 0.3806 -135.0341 642.0253)" class="st6" cx="411.72" cy="421.81" rx="53.42" ry="13.5"/>
	
		<ellipse transform="matrix(0.3806 -0.9248 0.9248 0.3806 -118.5595 723.3815)" class="st6" cx="480.68" cy="450.19" rx="53.42" ry="13.5"/>
</g>
<g id="Ebene_21">
	<circle class="st7" cx="423.46" cy="390.16" r="6.47"/>
	<circle class="st7" cx="423.46" cy="390.16" r="6.47"/>
	<ellipse class="st7" cx="492.28" cy="418.49" rx="6" ry="6.5"/>
</g>
<g id="Ebene_8">
</g>
<g id="Ebene_12">
	<g class="st8">
		<g id="Ebene_3_Kopie">
			<g class="st9">
				<path d="M684.85,381.39c-2.02,30.18-10.32,59.89-24.51,87.74c44.66-15.01,84.95-36.8,117.87-63.75"/>
				<g>
					<path d="M683.04,382.1c-1.59,23.39-6.96,46.44-15.82,68.4c-2.51,6.23-5.34,12.36-8.4,18.38c-0.53,1.04-0.24,2.57,1.41,2.01
						c17.37-5.85,34.26-12.76,50.46-20.74c15.85-7.82,31.07-16.61,45.4-26.43c7.92-5.42,15.56-11.15,22.91-17.16
						c0.68-0.55,1.42-1.86,0.83-2.67c-0.64-0.87-1.85-0.16-2.43,0.31c-12.91,10.56-26.79,20.17-41.41,28.83
						c-14.92,8.85-30.61,16.69-46.87,23.52c-9.38,3.94-18.96,7.54-28.68,10.82c0.47,0.67,0.94,1.34,1.41,2.01
						c11.07-21.77,18.71-44.88,22.52-68.62c1.07-6.66,1.83-13.36,2.28-20.09c0.06-0.94-0.77-1.37-1.71-1.05
						C683.92,379.99,683.11,381.14,683.04,382.1L683.04,382.1z"/>
				</g>
			</g>
			<g class="st9">
				<path d="M762,416.82c43.37,4,87.71,2.09,128.98-9.36s79.35-32.85,105.09-63.33c25.74-30.48,38.26-70.35,30.08-108.19
					c-8.69-40.19-40.15-75.47-80.08-96.71s-87.55-29.22-133.65-27.25c-51.89,2.23-103.56,17.19-142.88,46.51
					c-39.32,29.32-65.09,73.69-63.81,119.57c1.28,45.88,31.76,91.9,79.09,111.77"/>
				<g>
					<path d="M761.13,418.47c42.14,3.85,85.26,2.27,125.72-8.37c34.89-9.18,67.6-25.15,93.25-47.9
						c26.69-23.68,44.79-54.8,49.14-88.38c2.12-16.36,0.81-33.13-4.27-49.12c-4.67-14.68-12.34-28.63-22.21-41.21
						c-21.05-26.83-51.4-46.88-85.53-58.86c-37.68-13.22-79.1-16.89-118.92-13.32c-37.34,3.34-74.02,13.39-105.71,30.85
						c-31.47,17.34-57.2,42.26-72.81,72.09c-14.95,28.58-20.11,61.32-11.37,92.46c8.06,28.71,26.99,55.55,54.13,73.42
						c6.6,4.34,13.66,8.11,21.07,11.24c1.63,0.69,3.88-2.43,2.38-3.06c-29.99-12.68-53.14-35.74-66.33-62.44
						c-14.05-28.42-15.81-59.97-6.4-89.33c9.9-30.85,31.2-58.47,59.16-78.61c28.46-20.5,63.17-33.6,99.29-39.95
						c37.76-6.64,77.66-6.41,115.41,1.91c36.16,7.97,70.09,23.91,96.01,48c23.98,22.29,40.41,50.99,43.4,81.54
						c3.28,33.49-9.02,67.27-31.32,93.8c-21.24,25.27-51.2,44.13-84.02,56.21c-37.18,13.68-78.14,18.53-118.55,17.5
						c-9.94-0.25-19.87-0.87-29.78-1.77C761.22,415.02,759.31,418.3,761.13,418.47L761.13,418.47z"/>
				</g>
			</g>
			<g class="st9">
				<path class="st10" d="M810.1,258.04c4.41-21.17-11.85-44.15-35.13-51.29c-23.28-7.14-50.78,1.45-64.48,19.1
					s-13.39,42.7-0.45,61.27c10.62,15.24,28.11,25.64,45.28,35.18c24.44,13.58,49.38,26.45,74.77,38.58
					c3.13,1.49,6.51,3.02,10.01,2.66c4.44-0.46,7.63-3.78,10.36-6.87c20.65-23.35,41.3-46.7,61.95-70.05
					c10.91-12.34,22.23-25.54,24.11-41.22c1.59-13.24-4.09-26.9-14.02-37.14c-16.89-17.42-46.25-24.47-70.31-16.89
					s-41.21,29.29-41.05,51.98"/>
				<g>
					<path d="M811.61,257.83c3.9-19.22-7.97-39.63-27.3-49.33c-19.63-9.85-44.45-6.69-61.8,4.75
						c-18.87,12.44-26.86,33.94-22.78,54.41c2.1,10.55,7.45,20.33,15.25,28.59c8.15,8.63,18.32,15.52,28.84,21.74
						c11.85,7,24.09,13.51,36.31,19.96c12.87,6.79,25.87,13.38,38.99,19.78c3.39,1.66,6.79,3.31,10.21,4.93
						c3.02,1.42,6.23,2.78,9.71,2.6c6.26-0.32,10.34-5.53,13.81-9.47c9.29-10.51,18.59-21.02,27.88-31.52
						c9.29-10.51,18.59-21.02,27.88-31.52c8.38-9.48,17.24-18.87,23.27-29.75c5.61-10.11,8-21.34,5.26-32.59
						c-2.56-10.51-8.95-20.25-17.83-27.68c-16.52-13.81-41.55-19.41-63.12-13.98c-21.78,5.48-38.78,21.82-44.57,40.99
						c-1.4,4.63-2.12,9.44-2.11,14.26c0.01,2.22,3.18,0.2,3.18-1.25c-0.05-18.88,11.96-36.98,30.42-46.2
						c18.8-9.39,42.85-8.26,61.73,1.31c20.2,10.25,34.07,31.25,29.44,51.78c-2.46,10.92-9.37,20.42-16.74,29.18
						c-8.37,9.95-17.21,19.59-25.84,29.36c-8.89,10.05-17.78,20.11-26.67,30.16c-4.47,5.06-8.95,10.12-13.42,15.18
						c-3.27,3.7-7.02,9.18-13.27,8.34c-3.6-0.48-6.86-2.38-10.01-3.89c-3.09-1.48-6.17-2.98-9.24-4.49
						c-6.31-3.09-12.59-6.23-18.85-9.41c-12.5-6.37-24.89-12.91-37.16-19.64c-20.37-11.17-42.97-23.08-54.19-42.64
						c-10.13-17.65-9.67-40.33,3.46-56.28c12.12-14.73,34.6-22.33,55.1-18.69c20.85,3.7,37.6,19.76,41.13,38.13
						c0.85,4.41,0.89,8.94,0,13.33C808.1,260.66,811.29,259.43,811.61,257.83L811.61,257.83z"/>
				</g>
			</g>
			<g class="st9">
				<g>
					<path d="M996.32,260.4c2.98,17.45,0.08,35.41-8.33,51.22c-0.31,0.59-0.48,1.66,0.47,1.87c0.94,0.21,1.88-0.82,2.2-1.43
						c8.81-16.56,11.91-35.36,8.79-53.65c-0.15-0.89-1.28-0.69-1.87-0.34C996.77,258.55,996.17,259.52,996.32,260.4L996.32,260.4z"
						/>
				</g>
			</g>
			<g class="st9">
				<g>
					<path d="M980.84,331.29c-9.49,12.63-22.05,23.24-36.73,31.12c-1.56,0.84-1.73,3.93,0.62,2.67
						c15.26-8.19,28.35-19.36,38.22-32.49c0.4-0.54,0.94-1.69,0.13-2.18C982.29,329.92,981.23,330.77,980.84,331.29L980.84,331.29z"
						/>
				</g>
			</g>
			<g class="st9">
				<g>
					<path d="M644.57,248.24c1.96-17.07,8.81-33.56,19.72-47.6c3.12-4.02,6.57-7.82,10.32-11.39c0.56-0.53,1.27-1.6,0.73-2.34
						c-0.54-0.73-1.66-0.18-2.13,0.27c-13.89,13.23-23.89,29.56-28.85,47.15c-1.4,4.97-2.38,10.05-2.97,15.16
						c-0.1,0.83,0.7,1.19,1.49,0.92C643.83,250.09,644.47,249.1,644.57,248.24L644.57,248.24z"/>
				</g>
			</g>
		</g>
		<g id="Ebene_3">
			<g>
				<path class="st11" d="M703.23,365.34c-2.02,30.18-10.32,59.89-24.51,87.74c44.66-15.01,84.95-36.8,117.87-63.75"/>
				<g>
					<path d="M701.42,366.05c-1.59,23.39-6.96,46.44-15.82,68.4c-2.51,6.23-5.34,12.36-8.4,18.38c-0.53,1.04-0.24,2.57,1.41,2.01
						c17.37-5.85,34.26-12.76,50.46-20.74c15.85-7.82,31.07-16.61,45.4-26.43c7.92-5.42,15.56-11.15,22.91-17.16
						c0.68-0.55,1.42-1.86,0.83-2.67c-0.64-0.87-1.85-0.17-2.43,0.31c-12.91,10.56-26.79,20.17-41.41,28.83
						c-14.92,8.85-30.61,16.69-46.87,23.52c-9.38,3.94-18.96,7.54-28.68,10.82c0.47,0.67,0.94,1.34,1.41,2.01
						c11.07-21.77,18.71-44.88,22.52-68.62c1.07-6.66,1.83-13.36,2.28-20.09c0.06-0.94-0.77-1.37-1.71-1.05
						C702.3,363.93,701.48,365.08,701.42,366.05L701.42,366.05z"/>
				</g>
			</g>
			<g>
				<path class="st11" d="M780.37,400.76c43.37,4,87.71,2.09,128.98-9.36s79.35-32.85,105.09-63.33
					c25.74-30.48,38.26-70.35,30.08-108.19c-8.69-40.19-40.15-75.47-80.08-96.71c-39.93-21.24-87.55-29.22-133.65-27.25
					c-51.89,2.23-103.56,17.19-142.88,46.51S622.82,216.12,624.1,262s31.76,91.9,79.09,111.77"/>
				<g>
					<path d="M779.51,402.41c42.14,3.85,85.26,2.27,125.72-8.37c34.89-9.18,67.6-25.15,93.25-47.9
						c26.69-23.68,44.79-54.8,49.14-88.38c2.12-16.36,0.81-33.13-4.27-49.12c-4.67-14.68-12.34-28.63-22.21-41.21
						c-21.05-26.83-51.4-46.88-85.53-58.86c-37.68-13.22-79.1-16.89-118.92-13.32c-37.34,3.34-74.02,13.39-105.71,30.85
						c-31.47,17.34-57.2,42.26-72.81,72.09c-14.95,28.58-20.11,61.32-11.37,92.46c8.06,28.71,26.99,55.55,54.13,73.42
						c6.6,4.34,13.66,8.11,21.07,11.24c1.63,0.69,3.88-2.43,2.38-3.06c-29.99-12.68-53.14-35.74-66.33-62.44
						c-14.05-28.42-15.81-59.97-6.4-89.33c9.9-30.85,31.2-58.47,59.16-78.61c28.46-20.5,63.17-33.6,99.29-39.95
						c37.76-6.64,77.66-6.41,115.41,1.91c36.16,7.97,70.09,23.91,96.01,48c23.98,22.29,40.41,50.99,43.4,81.54
						c3.28,33.49-9.02,67.27-31.32,93.8c-21.24,25.27-51.2,44.13-84.02,56.21c-37.18,13.68-78.14,18.53-118.55,17.5
						c-9.94-0.25-19.87-0.87-29.78-1.77C779.59,398.96,777.68,402.25,779.51,402.41L779.51,402.41z"/>
				</g>
			</g>
			<g>
				<path class="st10" d="M828.48,241.99c4.41-21.17-11.85-44.15-35.13-51.29s-50.78,1.45-64.48,19.1
					c-13.71,17.65-13.39,42.7-0.45,61.27c10.62,15.24,28.11,25.64,45.28,35.18c24.44,13.58,49.38,26.45,74.77,38.58
					c3.13,1.49,6.51,3.02,10.01,2.66c4.44-0.46,7.63-3.78,10.36-6.87c20.65-23.35,41.3-46.7,61.95-70.05
					c10.91-12.34,22.23-25.54,24.11-41.22c1.59-13.24-4.09-26.9-14.02-37.14c-16.89-17.42-46.25-24.47-70.31-16.89
					s-41.21,29.29-41.05,51.98"/>
				<g>
					<path d="M829.99,241.78c3.9-19.22-7.97-39.63-27.3-49.33c-19.63-9.85-44.45-6.69-61.8,4.75
						c-18.87,12.44-26.86,33.94-22.78,54.41c2.1,10.55,7.45,20.33,15.25,28.59c8.15,8.63,18.32,15.52,28.84,21.74
						c11.85,7,24.09,13.51,36.31,19.96c12.87,6.79,25.87,13.38,38.99,19.78c3.39,1.66,6.79,3.31,10.21,4.93
						c3.02,1.42,6.23,2.78,9.71,2.6c6.26-0.32,10.34-5.53,13.81-9.47c9.29-10.51,18.59-21.02,27.88-31.52
						c9.29-10.51,18.59-21.02,27.88-31.52c8.38-9.48,17.24-18.87,23.27-29.75c5.61-10.11,8-21.34,5.26-32.59
						c-2.56-10.51-8.95-20.25-17.83-27.68c-16.52-13.81-41.55-19.41-63.12-13.98c-21.78,5.48-38.78,21.82-44.57,40.99
						c-1.4,4.63-2.12,9.44-2.11,14.26c0.01,2.22,3.18,0.2,3.18-1.25c-0.05-18.88,11.96-36.98,30.42-46.2
						c18.8-9.39,42.85-8.26,61.73,1.31c20.2,10.25,34.07,31.25,29.44,51.78c-2.46,10.92-9.37,20.42-16.74,29.18
						c-8.37,9.95-17.21,19.59-25.84,29.36c-8.89,10.05-17.78,20.11-26.67,30.16c-4.47,5.06-8.95,10.12-13.42,15.18
						c-3.27,3.7-7.02,9.18-13.27,8.34c-3.6-0.48-6.86-2.38-10.01-3.89c-3.09-1.48-6.17-2.98-9.24-4.49
						c-6.31-3.09-12.59-6.23-18.85-9.41c-12.5-6.37-24.89-12.91-37.16-19.64c-20.37-11.17-42.97-23.08-54.19-42.64
						c-10.13-17.65-9.67-40.33,3.46-56.28c12.12-14.73,34.6-22.33,55.1-18.69c20.85,3.7,37.6,19.76,41.13,38.13
						c0.85,4.41,0.89,8.94,0,13.33C826.48,244.61,829.67,243.38,829.99,241.78L829.99,241.78z"/>
				</g>
			</g>
			<g>
				<g>
					<path d="M1014.7,244.34c2.98,17.45,0.08,35.41-8.33,51.22c-0.31,0.59-0.48,1.66,0.47,1.87c0.94,0.21,1.88-0.82,2.2-1.43
						c8.81-16.56,11.91-35.36,8.79-53.65c-0.15-0.89-1.28-0.69-1.87-0.34C1015.15,242.49,1014.55,243.47,1014.7,244.34
						L1014.7,244.34z"/>
				</g>
			</g>
			<g>
				<g>
					<path d="M999.21,315.23c-9.49,12.63-22.05,23.24-36.73,31.12c-1.56,0.84-1.73,3.93,0.62,2.67
						c15.26-8.19,28.35-19.36,38.22-32.49c0.4-0.54,0.94-1.69,0.13-2.18C1000.67,313.86,999.6,314.71,999.21,315.23L999.21,315.23z"
						/>
				</g>
			</g>
			<g>
				<g>
					<path d="M662.95,232.19c1.96-17.07,8.81-33.56,19.72-47.6c3.12-4.02,6.57-7.82,10.32-11.39c0.56-0.53,1.27-1.6,0.73-2.34
						c-0.54-0.73-1.66-0.18-2.13,0.27c-13.89,13.23-23.89,29.56-28.85,47.15c-1.4,4.97-2.38,10.05-2.97,15.16
						c-0.1,0.83,0.7,1.19,1.49,0.92C662.2,234.03,662.85,233.04,662.95,232.19L662.95,232.19z"/>
				</g>
			</g>
			<g>
				<path class="st10" d="M1076.95,116.19c3.87-2.67,5.19-7.84,3.03-11.82s-7.59-6.38-12.43-5.5c-5.79,1.06-9.62,6.12-10.64,11.26
					c-1.02,5.14,0.16,10.42,1,15.62c0.83,5.2,1.28,10.69-1.07,15.45c12.63-4.59,24.63-10.49,35.67-17.54
					c4.14-2.65,8.61-6.54,7.31-10.98c-1.15-3.91-6.56-5.88-11.03-5.18c-4.47,0.7-8.16,3.31-11.65,5.83"/>
				<g>
					<path d="M1077.26,117.52c4.24-3.06,6.56-8.36,4.74-13.16c-1.64-4.34-6.53-7.3-11.65-7.33c-5.62-0.03-10.09,3.5-12.66,7.59
						c-3.05,4.85-3.07,10.51-2.34,15.94c0.9,6.67,3.2,13.98,0.15,20.4c-0.42,0.89-0.23,2.3,1.24,1.76
						c11.91-4.35,23.27-9.82,33.82-16.33c4.69-2.89,10.4-6.57,11.03-12.06c0.52-4.49-3.52-7.82-8.31-8.51
						c-6.38-0.91-11.88,2.85-16.45,6.15c-0.71,0.51-1.51,1.44-1.25,2.33c0.24,0.82,1.24,0.79,1.87,0.34
						c3.55-2.57,7.71-5.72,12.63-5.65c3.85,0.06,8.62,2.31,8.37,6.2c-0.14,2.19-2.01,3.95-3.74,5.33c-1.96,1.58-4.24,2.88-6.43,4.2
						c-4.6,2.77-9.35,5.34-14.24,7.7c-5.55,2.67-11.26,5.07-17.1,7.2c0.41,0.59,0.83,1.17,1.24,1.76c2.24-4.73,2.25-9.81,1.57-14.87
						c-0.71-5.27-2.16-10.57-1.43-15.87c0.5-3.64,2.47-7.54,6.25-9.34c3.99-1.9,9.05-0.85,12.2,2.03c3.38,3.1,3.76,8.7-0.12,11.49
						c-0.71,0.51-1.51,1.44-1.25,2.33C1075.63,118,1076.63,117.97,1077.26,117.52L1077.26,117.52z"/>
				</g>
			</g>
			<g>
				<path class="st12" d="M1084.26,177.88c-1.65,7.89-7.96,14.82-16.32,17.92c3.96-1.19,8.6-0.55,12.03,1.65s5.57,5.92,5.54,9.63
					c1.28-7.37,8.02-13.66,16.27-15.19c-8.51,1-17.23-5.95-16.98-13.54"/>
				<g>
					<path d="M1082.74,178.09c-1.58,7.24-7.06,13.26-14.71,16.17c-1.42,0.54-2.64,3.78-0.19,3.08c7.67-2.17,16,3.25,16.08,10.36
						c0.02,2.12,2.88,0.37,3.1-0.84c1.22-6.59,6.86-11.88,14.26-13.33c0.98-0.19,1.77-1.02,2.01-1.86c0.19-0.68-0.03-1.54-1.02-1.44
						c-7.87,0.82-15.99-5.44-15.88-12.51c0.01-0.81-0.65-1.21-1.49-0.92c-0.88,0.3-1.67,1.33-1.68,2.17
						c-0.13,8.29,8.68,15.54,18.07,14.56c0.33-1.1,0.66-2.2,0.99-3.3c-9.24,1.81-16.75,8.79-18.28,17.06
						c1.04-0.28,2.07-0.56,3.1-0.84c-0.05-3.96-1.98-7.82-5.6-10.31c-3.87-2.66-8.96-3.16-13.47-1.89
						c-0.06,1.03-0.13,2.06-0.19,3.08c9.14-3.47,16.03-11.02,17.93-19.68C1086.3,175.26,1083.09,176.5,1082.74,178.09
						L1082.74,178.09z"/>
				</g>
			</g>
			<path class="st13" d="M1090.04,363.65l3.4,12.19c0.15,0.52,0.66,0.91,1.26,0.96l14.11,1.14c1.36,0.11,1.8,1.68,0.64,2.3
				l-12.02,6.4c-0.51,0.27-0.77,0.82-0.62,1.34l3.4,12.2c0.33,1.17-1.23,2-2.27,1.2l-10.82-8.24c-0.47-0.36-1.13-0.41-1.65-0.13
				l-12.01,6.39c-1.15,0.62-2.56-0.45-2.05-1.55l5.32-11.49c0.23-0.49,0.07-1.06-0.4-1.42l-10.83-8.25
				c-1.04-0.79-0.35-2.27,1.01-2.16l14.11,1.14c0.61,0.05,1.17-0.25,1.4-0.75l5.32-11.49
				C1087.88,362.33,1089.71,362.48,1090.04,363.65z"/>
			<path class="st13" d="M757.89,50.29l3.4,12.19c0.15,0.52,0.66,0.91,1.26,0.96l14.11,1.14c1.36,0.11,1.8,1.68,0.64,2.3l-12.02,6.4
				c-0.51,0.27-0.77,0.82-0.62,1.34l3.4,12.2c0.33,1.17-1.23,2-2.27,1.2l-10.82-8.24c-0.47-0.36-1.13-0.41-1.65-0.13l-12.01,6.39
				c-1.15,0.62-2.56-0.45-2.05-1.55L744.61,73c0.23-0.49,0.07-1.06-0.4-1.42l-10.83-8.25c-1.04-0.79-0.35-2.27,1.01-2.16l14.11,1.14
				c0.61,0.05,1.17-0.25,1.4-0.75l5.32-11.49C755.73,48.97,757.56,49.12,757.89,50.29z"/>
			<path class="st13" d="M606.85,333.8l3.4,12.19c0.15,0.52,0.66,0.91,1.26,0.96l14.11,1.14c1.36,0.11,1.8,1.68,0.64,2.3l-12.02,6.4
				c-0.51,0.27-0.77,0.82-0.62,1.34l3.4,12.2c0.33,1.17-1.23,2-2.27,1.2l-10.82-8.24c-0.47-0.36-1.13-0.41-1.65-0.13l-12.01,6.39
				c-1.15,0.62-2.56-0.45-2.05-1.55l5.32-11.49c0.23-0.49,0.07-1.06-0.4-1.42l-10.83-8.25c-1.04-0.79-0.35-2.27,1.01-2.16
				l14.11,1.14c0.61,0.05,1.17-0.25,1.4-0.75l5.32-11.49C604.7,332.48,606.53,332.63,606.85,333.8z"/>
			<g>
				<path class="st14" d="M993.27,449.12c-0.53-5.22-5.81-9.82-11.73-10.23c-5.92-0.4-11.75,3.44-12.94,8.55
					c-1.26,5.38,2.33,11,7.26,14.47c4.94,3.48,11.05,5.29,16.97,7.19c5.92,1.91,11.96,4.08,16.39,8.06
					c2.58-10.31,5.17-20.63,7.75-30.94c1.23-4.9,2.12-10.84-2.1-14.32c-4.35-3.6-11.85-1.96-15.62,1.97
					c-3.77,3.94-4.81,9.34-5.71,14.47"/>
				<g>
					<path d="M994.83,448.12c-0.62-5.08-5.18-9.58-10.86-10.68c-5.9-1.14-11.96,1.82-14.99,6.16c-3.42,4.9-2.56,10.93,1.19,15.62
						c4.07,5.09,10.49,7.79,16.88,9.94c7.37,2.47,15.23,4.47,20.98,9.54c0.99,0.87,2.55-1.11,2.71-1.74
						c1.62-6.45,3.23-12.89,4.85-19.34c0.83-3.3,1.65-6.61,2.48-9.91c0.62-2.48,1.27-4.97,1.46-7.52c0.33-4.38-0.96-9.41-6.08-11.27
						c-4.89-1.78-10.59,0.15-14.12,3.2c-5.05,4.36-6.32,10.93-7.36,16.86c-0.15,0.83,0.74,1.18,1.49,0.92
						c0.98-0.34,1.53-1.3,1.68-2.17c0.78-4.44,1.56-9.61,5.07-13.07c2.71-2.68,7.82-4.1,11.67-2.36c4.4,1.99,4.84,6.58,4.34,10.37
						c-0.32,2.42-1.01,4.78-1.6,7.15c-0.69,2.74-1.37,5.48-2.06,8.22c-1.62,6.45-3.23,12.89-4.85,19.34c0.9-0.58,1.8-1.16,2.71-1.74
						c-9.1-8.02-23-8.22-32.96-14.99c-4.32-2.94-8.04-7.74-7.45-12.71c0.52-4.37,5.22-7.46,10.07-7.42
						c5.89,0.04,11.02,4.52,11.64,9.59c0.11,0.9,1.31,0.67,1.87,0.34C994.41,449.96,994.94,449.01,994.83,448.12L994.83,448.12z"/>
				</g>
			</g>
			<g>
				<path class="st15" d="M908.24,431.47c-0.13,7.65-5.21,15-12.82,18.55c9.52-1.87,20.32,2.75,24.68,10.57
					c-3.15-7.92,0.67-17.44,8.72-21.68c-7.57,1.72-16.34-1.66-20.19-7.77"/>
				<g>
					<path d="M906.65,432.09c-0.19,6.8-4.36,13.16-11.13,16.39c-0.83,0.4-1.51,1.11-1.65,1.96c-0.1,0.59,0.17,1.4,1.06,1.23
						c9.31-1.74,19.41,2.65,23.75,10.22c0.83,1.45,3.41-1.2,2.99-2.3c-2.77-7.21,0.14-15.39,7.47-19.35
						c0.67-0.36,1.27-1.25,1.28-1.96c0.01-0.54-0.36-1.18-1.1-1.03c-7.35,1.58-15.45-1.55-19.26-7.42
						c-0.93-1.44-3.69,1.32-2.86,2.61c4.16,6.41,13.11,9.84,21.13,8.12c0.06-1,0.12-1.99,0.18-2.99
						c-8.8,4.76-13.37,15.17-9.97,24.01c1-0.77,1.99-1.53,2.99-2.3c-4.66-8.14-15.65-12.78-25.61-10.91
						c-0.2,1.06-0.39,2.13-0.59,3.19c8.52-4.06,14.27-12.07,14.5-20.72c0.02-0.82-0.65-1.21-1.49-0.92
						C907.46,430.23,906.68,431.25,906.65,432.09L906.65,432.09z"/>
				</g>
			</g>
			<g>
				<path class="st16" d="M634.97,385.42c0.93,8.06-3.54,16.33-11.18,20.67c7.43-1.45,15.84,2.61,18.56,8.96
					c-0.06-7.11,4.25-14.05,11.02-17.77c-7.92,0.63-16.11-4.09-18.71-10.78"/>
				<g>
					<path d="M633.41,386.42c0.76,7.27-3.11,14.39-9.93,18.34c-0.66,0.38-1.26,1.23-1.28,1.96c-0.01,0.55,0.36,1.16,1.1,1.03
						c7.23-1.32,14.91,2.52,17.63,8.61c0.29,0.64,1.34,0.27,1.74,0.03c0.67-0.4,1.28-1.22,1.28-1.96
						c0.02-6.46,3.61-12.37,9.74-15.81c0.88-0.49,2.23-3.12,0.18-2.99c-7.44,0.51-15.1-3.85-17.64-10.12
						c-0.75-1.84-3.66,0.65-3.12,1.99c2.92,7.21,11.17,12.02,19.78,11.43c0.06-1,0.12-1.99,0.18-2.99
						c-7.48,4.19-12.28,11.83-12.3,19.73c1.01-0.64,2.01-1.29,3.02-1.93c-2.99-6.69-11.64-10.74-19.5-9.3
						c-0.06,1-0.12,1.99-0.18,2.99c8.5-4.93,13.38-13.97,12.43-23c-0.09-0.9-1.32-0.67-1.87-0.34
						C633.82,384.59,633.31,385.53,633.41,386.42L633.41,386.42z"/>
				</g>
			</g>
			<g>
				<path class="st12" d="M625.13,90.85c1.16,7.53-1.67,15.4-7.51,20.86c8.24-3.99,19.76-1.78,25.61,4.91
					c-5.33-6.29-4.55-15.92,1.73-21.26c-7.21,1.43-15.32-1.02-20.15-6.07"/>
				<g>
					<path d="M623.57,91.85c0.99,6.83-1.39,13.83-6.65,18.83c-0.51,0.48-1.07,1.31-0.86,2.03c0.17,0.59,0.86,0.83,1.47,0.55
						c7.9-3.72,18.61-1.65,24.27,4.67c1.21,1.36,3.83-1.43,2.86-2.61c-4.65-5.63-4.64-14,1-18.93c0.6-0.53,1.62-3.02-0.21-2.68
						c-6.92,1.3-14.51-0.91-19.22-5.73c-1.29-1.32-3.92,1.52-2.86,2.61c5.2,5.32,13.37,7.87,21.08,6.42
						c-0.07-0.9-0.14-1.79-0.21-2.68c-6.87,6.01-8.38,16.43-2.45,23.6c0.95-0.87,1.91-1.74,2.86-2.61
						c-6.33-7.07-18.09-9.31-26.94-5.15c0.2,0.86,0.4,1.72,0.61,2.58c6.42-6.11,9.58-14.5,8.37-22.89c-0.13-0.89-1.3-0.68-1.87-0.34
						C624,90.01,623.44,90.97,623.57,91.85L623.57,91.85z"/>
				</g>
			</g>
		</g>
	</g>
</g>
</svg>
