<?xml version="1.0" encoding="utf-8"?>
<!-- Generator: Adobe Adobe Illustrator 24.2.0, SVG Export Plug-In . SVG Version: 6.00 Build 0)  -->
<svg version="1.1" xmlns="http://www.w3.org/2000/svg" xmlns:xlink="http://www.w3.org/1999/xlink" x="0px" y="0px"
	 viewBox="0 0 1080 1080" style="enable-background:new 0 0 1080 1080;" xml:space="preserve">
<style type="text/css">
	.st0{fill:#FFFFFF;stroke:#000000;stroke-width:8;stroke-linecap:round;stroke-linejoin:round;stroke-miterlimit:10;}
	.st1{fill:#FFBABA;}
	.st2{opacity:0.0706;}
	.st3{opacity:0.0706;fill:none;stroke:#000000;stroke-width:30;stroke-linecap:round;stroke-linejoin:round;stroke-miterlimit:10;}
	.st4{fill:none;stroke:#FFFFFF;stroke-width:20;stroke-linecap:round;stroke-linejoin:round;stroke-miterlimit:10;}
	.st5{fill:none;stroke:#000000;stroke-width:8;stroke-linecap:round;stroke-linejoin:round;stroke-miterlimit:10;}
	.st6{opacity:0.149;}
	.st7{fill:#D15238;}
	.st8{fill:#D15239;}
	.st9{fill:#FFFFFF;}
</style>
<g id="Ebene_2">
	<path class="st0" d="M208.15,360.65C9.17,430.43,121.46,702.4,309.35,651.91c3.05,25.7,84.24,42.25,108.18,8.96
		c15.44,35.11,156.97,88.69,217.42,4.61c28.19,41.06,124.93,68.59,184.54,17.75c262.78,86.73,252-343.83,49.12-325.17
		c11.32-57-104.56-95.15-138.26-63.81c-10.22-162.94-262.1-145.81-277.39-50.56C376.69,190.95,230.53,221.24,208.15,360.65z"/>
	<path class="st0" d="M464.86,464.35c29.44,4.88,35.11,6.67,52.45,10.62"/>
	<path class="st0" d="M457.66,308.14c12.59,18.93,25.18,37.86,37.77,56.79c-24.47,5.71-48.85,11.8-73.13,18.26"/>
	<path class="st0" d="M640.36,360.89c-26.43,8.03-52.86,16.07-79.29,24.1c14.64,18.37,27.57,38.11,38.56,58.87"/>
</g>
<g id="Ebene_4">
	<path class="st1" d="M276.32,429.69c3.02,31.3,122.2,15.34,119.93-21.17C394.01,372.47,271.89,383.86,276.32,429.69z"/>
	<path class="st1" d="M635.28,425.84c-6.9,30.67,111.29,52.73,120.54,17.34C764.96,408.23,645.39,380.92,635.28,425.84z"/>
</g>
<g id="Ebene_9">
	<path class="st3" d="M437.93,266.21c-36.49-18.77-81.64-19.74-118.9-2.56s-65.85,52.13-75.29,92.07"/>
	<path class="st3" d="M212.88,390.84c-163.69,82.59-37.61,260.82,74.6,233.74"/>
	<path class="st3" d="M483.36,256.3c60.86-86.68,190.02-51.1,212.3,25.67"/>
	<path class="st3" d="M445.02,646.99c44.66,44.66,110.34,48.92,161.6,3.21"/>
	<path class="st3" d="M661.84,657.29c34.68,31.02,90.56,35.18,129.45,9.64"/>
	<path class="st3" d="M881.81,390.84c144.41,0,167.78,313.34-36.81,273.83"/>
</g>
<g id="Ebene_10">
	<path class="st4" d="M727.65,301.5c6.53-8.99,16.74-14.92,27.54-17.52s22.18-2.05,33.06,0.17c18.82,3.85,36.5,12.68,51.36,24.85
		c8.08,6.62,15.45,14.36,20.23,23.65c4.79,9.29,6.81,20.27,4.09,30.35"/>
</g>
<g id="Ebene_13">
	<path class="st5" d="M728.96,281.17c0.95,4.36,1.09,9.13,1.09,9.13"/>
	<path class="st5" d="M876.07,357.57c-3.3,0.2-4.51,0.22-7.81,0.42"/>
</g>
<g id="Ebene_6">
	<g>
		<g id="Ebene_2_Kopie">
			<g class="st6">
				<path d="M773.51,354.28c11.28,8.08,16.24,21.46,11.74,31.66c-4.5,10.19-18.13,16.42-32.22,14.72
					c-14.09-1.7-27.58-11.2-31.89-22.46s0.88-23.42,12.28-28.76c11.4-5.34,28.13-3.45,39.57,4.47"/>
				<g>
					<path d="M771.95,355.42c10.57,7.66,15.6,19.89,11.89,29.74c-3.51,9.32-15.35,15.05-27.81,14.25
						c-13.14-0.85-26.15-8.88-31.69-19.02c-5.57-10.21-2.73-21.92,6.69-28.19c10.58-7.05,28.62-5.2,40.4,2.86
						c1.56,1.07,4.58-1.3,3.12-2.3c-11.91-8.15-28.5-10.01-40.6-4.94c-12.37,5.18-18.68,17.51-15.18,29.47
						c3.42,11.66,16.56,21.69,30.81,24.39c14.55,2.75,28.88-2.83,35.47-12.3c7.55-10.85,3.07-26.78-9.98-36.25
						C773.55,352.03,770.5,354.38,771.95,355.42L771.95,355.42z"/>
				</g>
			</g>
			<g class="st6">
				<path d="M781.73,142.3c4.06-9.52,10.14-18.56,19.84-24.51c9.7-5.95,23.46-8.38,36.19-4.45c18.45,5.71,29.73,23.56,28.28,38.58
					c-1.45,15.02-13,27.19-26.86,36c-13.86,8.81-30.21,14.95-45,22.79c-24.1,12.78-44.29,30.53-54.51,52.78
					c-6.71,14.61-8.79,31.99,0.24,47.63c9.03,15.64,31.59,28.05,50.51,24.27c12-2.4,20.3-10.51,25.22-19.5
					c4.92-8.99,7.09-19.05,10.85-28.51c7.75-19.52,22.42-36.51,42.02-48.67c24.27-15.06,56.19-23.12,74.33-43.08
					c19.21-21.13,18.61-53.1,2.11-79.63c-16.5-26.53-47.18-47.49-80.65-59.18C827.53,43.99,786.36,41.82,752.93,53
					c-33.43,11.17-58.11,36.11-62.31,66.17c-1.66,11.85,0.01,24.89,8.44,35.9c11.11,14.51,33.89,23.17,52.65,20.01
					c18.76-3.15,22.07-17.41,29.87-32.47"/>
				<g>
					<path d="M783.54,142.1c3.64-8.46,8.9-16.56,17.23-22.27c7.47-5.12,17.78-7.91,28.44-6.67c21.01,2.44,34.85,20.57,35.12,36.22
						c0.33,19.56-17.63,33.61-35.45,43.04c-9.65,5.11-19.92,9.48-29.75,14.36c-9.37,4.65-18.25,9.88-26.32,15.85
						c-15.78,11.68-28.62,26.13-35.78,42.97c-6.42,15.11-8.23,34.27,3.62,50.22c9.94,13.38,29.82,24.1,47.96,21.26
						c9.94-1.56,17.79-6.77,23.27-13.17c6.46-7.54,9.6-16.68,12.57-25.71c3.06-9.31,6.57-18.31,11.98-26.69
						c5.14-7.96,11.58-15.31,19.13-21.76c7.35-6.27,15.74-11.57,24.8-16.22c8.57-4.4,17.54-8.31,26.3-12.48
						c17.18-8.16,33.79-17.68,43.26-32.26c9.16-14.12,11.29-31.5,7.34-48.42c-4.08-17.49-14.64-34.13-29.64-48.27
						c-15.15-14.28-34.32-25.82-54.83-33.91c-20.8-8.2-43.25-12.94-65.17-13.73c-21.84-0.79-43.18,2.34-61.67,9.76
						c-18.24,7.32-33.39,18.78-43.72,32.88c-10.09,13.76-16.07,30.97-13.49,48.3c1.27,8.49,4.86,17.15,11.8,24.36
						c6.39,6.65,15.33,11.79,24.79,14.67c9.49,2.89,19.65,3.62,28.65,1.55c8.47-1.95,14.47-6.83,18.64-12.81
						c4.43-6.37,7.11-13.6,10.61-20.39c1.08-2.1-2.57-1.72-3.29-0.33c-3.53,6.85-6.21,14.14-10.72,20.55
						c-4.16,5.91-10.39,9.9-19.12,10.96c-18.85,2.3-40.87-7.15-50.81-21.9c-10.8-16.03-8.52-34.94-2.21-49.9
						c6.49-15.38,18.78-28.63,34.56-38.05c16.18-9.66,35.89-15.15,56.95-16.55c21.3-1.41,43.73,1.3,65.03,7.57
						c20.96,6.16,41.01,15.8,57.92,28.4c16.73,12.46,30.36,27.87,37.67,44.82c7.11,16.48,8.39,34.12,2.71,49.56
						c-2.83,7.69-7.49,14.66-13.76,20.59c-6.31,5.98-14.09,10.82-22.23,15.12c-16.7,8.81-35.2,15.58-50.71,25.71
						c-16.65,10.87-29.65,25.29-37.64,41.72c-4.35,8.95-6.67,18.57-10.34,27.76c-3.21,8.02-7.89,15.82-16.01,20.98
						c-7.1,4.53-16.49,5.96-26.15,3.88c-9.22-1.98-17.87-6.77-24.48-12.68c-15.39-13.75-17.14-32.48-12.74-47.95
						c4.84-17.02,16.47-31.97,30.9-43.95c7.41-6.15,15.66-11.63,24.51-16.44c9.37-5.08,19.4-9.4,29.09-14.1
						c18.56-9.01,36.85-20.43,43.46-38.14c2.83-7.57,2.94-15.86-0.32-24.06c-2.94-7.4-8.56-14.67-16.44-19.65
						c-18.29-11.55-41.3-6.66-54.05,4.29c-7.02,6.03-11.67,13.55-15.1,21.52c-0.32,0.75,0.56,1.28,1.41,1.22
						C782.44,143.65,783.21,142.87,783.54,142.1L783.54,142.1z"/>
				</g>
			</g>
			<g class="st6">
				<path d="M745.99,371.43c-3.12-7.65,3.44-15.81,12.92-16.04"/>
				<g>
					<path d="M747.76,370.55c-2.61-6.68,2.45-13.44,10.75-13.74c1.73-0.06,3.46-2.94,0.8-2.85c-10.79,0.39-18.53,9.53-15.09,18.35
						C744.83,373.87,748.31,371.98,747.76,370.55L747.76,370.55z"/>
				</g>
			</g>
			<g class="st6">
				<path d="M746.5,361.45c0.72,0.12,1.03,1.06,0.44,1.33c-0.75-0.63-0.46-1.76,0.49-1.92"/>
				<g>
					<path d="M745.26,362.78c0.23,0.05,0.19,0.12,0.08-0.02c0.16,0.19-0.05-0.15,0.02-0.01c0.07,0.12,0.03,0.19,0.04-0.01
						c0,0.03,0,0.06,0.01,0.09c0.02-0.53,0.35-0.93,1-1.2c0.7,0,1.4-0.01,2.1-0.01c-0.06-0.05-0.11-0.1-0.15-0.15
						c0.19,0.22,0.04,0.04,0.02-0.03c-0.04-0.17,0.03,0.23,0,0.05c-0.04-0.27-0.03,0.04-0.04,0.03c-0.03-0.02,0.06-0.15,0.04-0.18
						c0.02,0.03-0.15,0.33-0.04,0.12c-0.12,0.21-0.31,0.38-0.53,0.52c-0.06,0.04-0.58,0.24-0.31,0.18c0.91-0.2,1.84-1.07,1.78-1.88
						c-0.07-0.91-1.17-0.93-1.92-0.77c-1.94,0.42-3.77,2.76-1.98,4.4c0.55,0.51,1.62,0.26,2.1-0.01c0.92-0.51,1.72-1.3,1.59-2.32
						c-0.08-0.6-0.55-1.3-1.34-1.48c-1.05-0.25-2.06,0.17-2.61,0.81c-0.26,0.31-0.51,0.67-0.48,1.09
						C744.67,362.28,744.86,362.69,745.26,362.78L745.26,362.78z"/>
				</g>
			</g>
		</g>
		<g id="Ebene_2_1_">
			<g>
				<path class="st7" d="M783.64,350.33c11.28,8.08,16.24,21.46,11.74,31.66s-18.13,16.42-32.22,14.72s-27.58-11.2-31.89-22.46
					c-4.31-11.26,0.88-23.42,12.28-28.76s28.13-3.45,39.57,4.47"/>
				<g>
					<path d="M782.08,351.48c10.57,7.66,15.6,19.89,11.89,29.74c-3.51,9.32-15.35,15.05-27.81,14.25
						c-13.14-0.85-26.15-8.88-31.69-19.02c-5.57-10.21-2.73-21.92,6.69-28.19c10.58-7.05,28.62-5.2,40.4,2.86
						c1.56,1.07,4.58-1.3,3.12-2.3c-11.91-8.15-28.5-10.01-40.6-4.94c-12.37,5.18-18.68,17.51-15.18,29.47
						c3.42,11.66,16.56,21.69,30.81,24.39c14.55,2.75,28.88-2.83,35.47-12.3c7.55-10.85,3.07-26.78-9.98-36.25
						C783.68,348.09,780.64,350.44,782.08,351.48L782.08,351.48z"/>
				</g>
			</g>
			<g>
				<path class="st8" d="M797.77,139.41c4.06-9.52,10.14-18.56,19.84-24.51c9.7-5.95,23.46-8.38,36.19-4.45
					c18.45,5.71,29.73,23.56,28.28,38.58c-1.45,15.02-13,27.19-26.86,36c-13.86,8.81-30.21,14.95-45,22.79
					c-24.1,12.78-44.29,30.53-54.51,52.78c-6.71,14.61-8.79,31.99,0.24,47.63c9.03,15.64,31.59,28.05,50.51,24.27
					c12-2.4,20.3-10.51,25.22-19.5c4.92-8.99,7.09-19.05,10.85-28.51c7.75-19.52,22.42-36.51,42.02-48.67
					c24.27-15.06,56.19-23.12,74.33-43.08c19.21-21.13,18.61-53.1,2.11-79.63c-16.5-26.53-47.18-47.49-80.65-59.18
					c-36.77-12.85-77.94-15.01-111.37-3.84c-33.43,11.17-58.12,36.11-62.32,66.18c-1.66,11.85,0.01,24.89,8.44,35.9
					c11.11,14.51,33.89,23.17,52.65,20.01c18.76-3.15,22.07-17.41,29.87-32.47"/>
				<g>
					<path d="M799.57,139.21c3.64-8.46,8.9-16.56,17.23-22.27c7.47-5.12,17.79-7.91,28.44-6.67c21.01,2.44,34.85,20.57,35.12,36.22
						c0.33,19.56-17.63,33.61-35.45,43.04c-9.65,5.11-19.92,9.48-29.75,14.36c-9.37,4.65-18.25,9.88-26.32,15.85
						c-15.78,11.68-28.62,26.13-35.78,42.97c-6.42,15.11-8.23,34.27,3.62,50.22c9.94,13.38,29.82,24.1,47.96,21.26
						c9.94-1.56,17.79-6.77,23.27-13.17c6.46-7.54,9.6-16.68,12.57-25.71c3.06-9.31,6.57-18.31,11.98-26.69
						c5.14-7.96,11.58-15.31,19.13-21.76c7.35-6.27,15.74-11.57,24.8-16.22c8.57-4.4,17.54-8.31,26.3-12.48
						c17.18-8.16,33.79-17.68,43.26-32.26c9.16-14.12,11.29-31.5,7.34-48.42c-4.08-17.49-14.64-34.13-29.64-48.27
						c-15.15-14.28-34.32-25.82-54.83-33.91c-20.8-8.2-43.25-12.94-65.17-13.73c-21.84-0.79-43.18,2.34-61.67,9.76
						c-18.24,7.32-33.39,18.78-43.72,32.88c-10.09,13.76-16.07,30.97-13.49,48.3c1.27,8.49,4.86,17.15,11.8,24.36
						c6.39,6.65,15.33,11.79,24.79,14.67c9.49,2.89,19.65,3.62,28.65,1.55c8.47-1.95,14.47-6.83,18.64-12.81
						c4.43-6.37,7.11-13.6,10.61-20.39c1.08-2.1-2.57-1.72-3.29-0.33c-3.53,6.85-6.21,14.14-10.72,20.55
						c-4.16,5.91-10.39,9.9-19.12,10.96c-18.85,2.3-40.87-7.15-50.81-21.9c-10.8-16.03-8.52-34.94-2.21-49.9
						c6.49-15.38,18.78-28.63,34.56-38.05c16.18-9.66,35.89-15.15,56.95-16.55c21.3-1.41,43.73,1.3,65.03,7.57
						c20.96,6.16,41.01,15.8,57.92,28.4c16.73,12.46,30.36,27.87,37.67,44.82c7.11,16.48,8.39,34.12,2.71,49.56
						c-2.83,7.69-7.49,14.66-13.76,20.59c-6.31,5.98-14.09,10.82-22.23,15.12c-16.7,8.81-35.2,15.58-50.71,25.71
						c-16.65,10.87-29.65,25.29-37.64,41.72c-4.35,8.95-6.67,18.57-10.34,27.76c-3.21,8.02-7.89,15.82-16.01,20.98
						c-7.1,4.53-16.49,5.96-26.15,3.88c-9.22-1.98-17.87-6.77-24.48-12.68c-15.39-13.75-17.14-32.48-12.74-47.95
						c4.84-17.02,16.47-31.97,30.9-43.95c7.41-6.15,15.66-11.64,24.51-16.44c9.37-5.08,19.4-9.4,29.09-14.1
						c18.56-9.01,36.85-20.43,43.46-38.14c2.83-7.57,2.94-15.86-0.32-24.06c-2.94-7.4-8.56-14.67-16.44-19.65
						c-18.29-11.55-41.3-6.66-54.05,4.29c-7.02,6.03-11.67,13.55-15.1,21.52c-0.32,0.75,0.56,1.28,1.41,1.22
						C798.48,140.76,799.24,139.98,799.57,139.21L799.57,139.21z"/>
				</g>
			</g>
			<g>
				<g>
					<path d="M747.76,370.55c-2.61-6.68,2.45-13.44,10.75-13.74c1.73-0.06,3.46-2.94,0.8-2.85c-10.79,0.39-18.53,9.53-15.09,18.35
						C744.83,373.87,748.31,371.98,747.76,370.55L747.76,370.55z"/>
				</g>
			</g>
			<g>
				<path class="st7" d="M769.3,356.34c0.72,0.12,1.03,1.06,0.44,1.33c-0.75-0.63-0.46-1.76,0.49-1.92"/>
				<g>
					<path d="M768.06,357.68c0.23,0.05,0.19,0.12,0.08-0.02c0.16,0.19-0.05-0.15,0.02-0.01c0.07,0.12,0.03,0.19,0.04-0.01
						c0,0.03,0,0.06,0.01,0.09c0.02-0.53,0.35-0.93,1-1.2c0.7,0,1.4-0.01,2.1-0.01c-0.06-0.05-0.11-0.1-0.15-0.15
						c0.19,0.22,0.04,0.04,0.02-0.03c-0.04-0.17,0.03,0.23,0,0.05c-0.04-0.27-0.03,0.04-0.04,0.03c-0.03-0.02,0.06-0.15,0.04-0.18
						c0.02,0.03-0.15,0.33-0.04,0.12c-0.12,0.21-0.31,0.38-0.53,0.52c-0.06,0.04-0.58,0.24-0.31,0.18c0.91-0.2,1.84-1.07,1.78-1.88
						c-0.07-0.91-1.17-0.93-1.92-0.77c-1.94,0.42-3.77,2.76-1.98,4.4c0.55,0.51,1.62,0.26,2.1-0.01c0.92-0.51,1.72-1.3,1.59-2.32
						c-0.08-0.6-0.55-1.3-1.34-1.48c-1.05-0.25-2.06,0.17-2.61,0.81c-0.26,0.31-0.51,0.67-0.48,1.09
						C767.48,357.18,767.67,357.59,768.06,357.68L768.06,357.68z"/>
				</g>
			</g>
		</g>
		<g id="Ebene_4_1_">
			<g class="st6">
				<path d="M772.8,344.84c-15.36-4.37-37.43,2.51-41.8,14.1c-4.37,11.59,7.94,29.35,22.65,35.43
					c-11.98-6.22-19.65-22.94-14.95-32.48c4.69-9.54,17.71-15.75,34.57-16.87"/>
				<g>
					<path d="M774.04,343.5c-6.8-1.89-13.88-1.75-20.28-0.48c-6.7,1.32-13,3.82-17.82,7.56c-4.65,3.61-7.63,8.3-7.69,13.92
						c-0.05,5.66,2.53,11.6,6.31,16.77c4.29,5.87,10.32,11.27,17.85,14.44c1.61,0.68,4.35-1.69,2.48-2.68
						c-9.48-5.01-14.99-15.17-15.67-23.47c-0.34-4.16,0.78-7.9,3.45-11.13c2.78-3.36,6.67-5.92,11.09-7.81
						c5.76-2.47,12.37-3.71,19.11-4.18c1.01-0.07,2.02-0.84,2.2-1.63c0.18-0.78-0.44-1.29-1.41-1.22
						c-12.66,0.88-25.14,4.67-32.66,12.56c-3.3,3.46-5.39,7.56-5.55,12.22c-0.16,4.77,1.39,9.83,3.99,14.41
						c2.84,5.03,7.1,9.82,12.96,12.92c0.83-0.89,1.65-1.79,2.48-2.68c-11.91-5.01-21.15-16.41-22.71-26.62
						c-0.76-4.97,0.61-9.35,4.3-12.86c3.68-3.51,9-5.83,14.53-7.23c6.3-1.59,13.67-2.05,20.56-0.14
						C773.3,346.66,775.92,344.02,774.04,343.5L774.04,343.5z"/>
				</g>
			</g>
			<g class="st6">
				<path d="M871.72,171.86c-14.44,12.89-30.32,19.47-48.1,29.35c-17.78,9.89-33.87,17.43-47.42,30.95
					c-13.55,13.53-27.27,43.2-25.5,61.94s21.2,38.87,50.74,39.02c-28.75-22.96-6.41-80.02,11.49-96.05
					c17.38-15.57,58.12-44.01,66.85-78.65"/>
				<g>
					<path d="M870.35,171.33c-13.65,12.12-31.66,20.11-48.32,29.32c-16.7,9.24-33.99,17.92-46.88,30.67
						c-4.89,4.83-8.78,10.37-12.17,16.06c-3.83,6.43-7.01,13.19-9.51,20.15c-4.4,12.24-7.6,26.18-1.01,39.57
						c3.25,6.59,8.57,12.79,15.4,17.52c7.34,5.08,16.14,8.3,25.15,9.44c2.53,0.32,5.05,0.47,7.56,0.49c1.1,0.01,3.85-1.42,2.4-2.58
						c-10.39-8.37-13.23-20.34-13.49-30.86c-0.31-12.82,2.92-25.31,7.73-36.9c2.22-5.36,4.88-10.57,8.04-15.53
						c2.48-3.88,5.21-7.6,8.77-10.86c4.85-4.44,10.19-8.64,15.3-12.93c6.61-5.55,13.11-11.2,19.23-17.12
						c13.17-12.74,25.13-26.95,31.14-43.47c0.73-2,1.35-4.03,1.88-6.09c0.19-0.76-0.47-1.29-1.41-1.22c-1.01,0.07-2,0.84-2.2,1.63
						c-4.37,17.12-15.89,31.78-28.76,44.76c-11.1,11.19-23.86,21.07-35.86,31.58c-8.4,7.34-13.91,16.61-18.22,26.18
						c-5.28,11.72-8.88,24.29-9.3,37.31c-0.35,10.83,1.55,23.28,10.79,32.86c1.01,1.04,2.1,2.03,3.26,2.97
						c0.8-0.86,1.6-1.72,2.4-2.58c-9.26-0.09-18.63-2.17-26.91-6.67c-7.32-3.98-13.34-9.7-17.29-15.98
						c-3.8-6.04-5.67-12.47-5.69-18.85c-0.01-6.67,1.48-13.16,3.45-19.4c2.2-6.93,5.13-13.63,8.69-20.05
						c3.18-5.74,6.81-11.33,11.38-16.32c11.44-12.5,27.9-20.94,43.67-29.56c8.36-4.56,16.83-9,25.23-13.52
						c8.13-4.37,16.01-9.04,23-14.52c1.83-1.43,3.57-2.92,5.29-4.44c0.5-0.44,0.79-1.45-0.13-1.87
						C871.97,170.08,870.88,170.87,870.35,171.33L870.35,171.33z"/>
				</g>
			</g>
			<g class="st6">
				<path d="M863.5,48.88c-24.16-3.96-58.71-7.18-80.31-2.25s-46.81,19.83-60.19,33.79c-13.38,13.96-19.94,40.69-14.41,59.65
					c5.54,18.96,23.12,31.54,50.84,32.78c-14.95-7.98-28.76-20.83-29.55-34.43s5.16-26.18,13.29-37.1
					c21.93-29.49,62.7-48.1,119.58-51.57"/>
				<g>
					<path d="M864.35,47.45c-21.15-3.46-42.93-5.66-63.72-4.47c-9.83,0.56-19.09,2.27-27.81,5.3c-9.83,3.41-18.92,7.93-27.33,13.06
						c-8.15,4.97-15.76,10.54-22.25,16.91c-5.89,5.78-10.01,12.59-12.98,19.88c-3.14,7.71-4.97,15.95-5.4,24.35
						c-0.39,7.67,0.42,15.72,3.74,23.41c2.98,6.9,8.17,13.43,15.38,18.25c7.77,5.19,17.1,8.12,26.46,9.4
						c2.72,0.37,5.44,0.6,8.15,0.73c1.32,0.06,4-1.74,2.08-2.77c-13.17-7.07-26.2-18.2-28.59-30.83
						c-1.44-7.62,0.31-15.39,2.99-22.24c2.67-6.82,6.68-13.19,11.36-19.06c7.1-8.92,16-16.71,26.3-23.2
						c10.93-6.89,23.42-12.22,36.67-16.17c14.73-4.38,30.42-7.05,46.48-8.38c2.15-0.18,4.31-0.33,6.47-0.47
						c1.71-0.11,3.43-3.01,0.8-2.85c-17.03,1.05-33.71,3.51-49.43,7.77c-14.13,3.83-27.49,9.16-39.29,16.11
						c-11.2,6.6-21.02,14.59-28.88,23.85c-9.99,11.78-17.89,25.84-17.58,41.33c0.27,13.36,11.52,25.47,25.08,33.84
						c1.68,1.03,3.39,2.02,5.14,2.96c0.69-0.92,1.39-1.85,2.08-2.77c-9.62-0.46-19.51-2.3-28.29-6.73
						c-7.46-3.76-13.48-9.31-17.31-15.63c-4.26-7.04-5.88-14.61-6.16-21.97c-0.31-8.13,0.94-16.11,3.32-23.7
						c2.29-7.31,5.66-14.46,10.8-20.51c5.31-6.26,12.27-11.58,19.46-16.37c14.58-9.74,31.96-18.21,51.9-20.21
						c10.01-1,20.35-0.87,30.67-0.27c10.33,0.6,20.71,1.72,31.05,3.22c2.31,0.33,4.62,0.69,6.93,1.07
						C864.36,50.59,866.69,47.83,864.35,47.45L864.35,47.45z"/>
				</g>
			</g>
		</g>
		<g id="Ebene_5">
			<g class="st6">
				<g>
					<path class="st9" d="M899.81,80.79c1.55,0.86,3.07,1.76,4.55,2.7c0.74,0.47,1.47,0.95,2.19,1.44c0.36,0.24,0.72,0.49,1.07,0.74
						c0.16,0.11,1.62,1.17,0.73,0.51c2.78,2.06,5.4,4.26,7.84,6.59c4.95,4.71,8.86,9.56,12.2,15.12c6.9,11.47,9.65,23.76,7.66,35.46
						c-4.74,27.96-31.27,46.51-55.54,63.04c-14.05,9.57-28.06,19.23-39.12,31.2c-0.51,0.56,1.45,1.89,1.73,2.07
						c1.44,0.93,3.38,1.69,5.04,2.17c2.26,0.66,6.44,1.92,7.99,0.24c19.88-21.51,49.73-34.96,71.1-55.31
						c10.65-10.14,19.59-21.93,22.89-35.65c2.86-11.91,0.97-24.83-5.45-36.9c-6.94-13.05-18.86-24.92-33.59-33.09
						c-3.04-1.69-6.92-3.19-10.44-3.17c-0.85,0-2.35-0.05-2.59,0.76C897.84,79.47,899.14,80.42,899.81,80.79L899.81,80.79z"/>
				</g>
			</g>
			<g class="st6">
				<g>
					<path class="st9" d="M775.06,366.2c1.15,5.07-0.51,10.16-3.68,14.06c-1.54,1.89-3.6,3.5-5.91,4.77
						c-2.66,1.46-4.89,2.16-8.01,2.57c-3.19,0.41,0.43,2.89,1.82,3.54c2.96,1.41,7.08,2.77,10.32,2.35
						c13.78-1.78,22.67-12.38,20.03-24.03c-0.18-0.81-2.37-1.9-3.03-2.23c-1.7-0.84-3.76-1.54-5.63-1.93
						C779.38,364.98,774.55,363.96,775.06,366.2L775.06,366.2z"/>
				</g>
			</g>
		</g>
	</g>
	<g>
		<g id="Ebene_2_Kopie_1_">
			<g class="st6">
				<path d="M927.86,485.44c8.87,5.07,13.68,15.44,11.39,24.52s-11.53,16.18-21.83,16.79c-10.3,0.61-20.89-5.32-25.04-14.02
					c-4.15-8.7-1.54-19.51,6.17-25.56c7.71-6.05,19.93-6.88,28.9-1.97"/>
				<g>
					<path d="M926.84,486.62c8.32,4.83,13.08,14.23,11.32,22.91c-1.66,8.21-9.66,14.66-18.7,15.78c-9.54,1.18-19.65-3.6-24.58-11.2
						c-4.96-7.65-4-17.75,2.2-24.29c6.97-7.35,20.12-8.4,29.35-3.42c1.22,0.66,3.17-1.73,2.03-2.35c-9.33-5.04-21.45-4.2-29.69,1.73
						c-8.42,6.06-11.83,17.16-8.19,26.56c3.54,9.16,13.93,15.58,24.44,15.77c10.73,0.19,20.53-6.48,24.39-15.26
						c4.43-10.06-0.27-22.61-10.55-28.57C927.68,483.58,925.71,485.96,926.84,486.62L926.84,486.62z"/>
				</g>
			</g>
			<g class="st6">
				<path d="M914.12,308.84c2.04-8.46,5.58-16.82,12.01-23.13c6.43-6.31,16.12-10.3,25.65-8.87c13.81,2.08,23.59,15.24,23.94,27.88
					s-6.84,24.36-16,33.64c-9.16,9.28-20.36,16.7-30.28,25.31c-16.16,14.03-29.06,31.62-34.35,51.49
					c-3.48,13.05-3.36,27.73,4.59,39.38c7.95,11.65,25.35,18.69,38.61,12.85c8.42-3.7,13.64-11.6,16.35-19.75
					c2.71-8.15,3.34-16.78,5.17-25.15c3.77-17.26,12.76-33.43,25.74-46.3c16.08-15.94,38.31-27.18,49.52-46.3
					c11.87-20.24,8.47-46.61-5.87-66.2c-14.34-19.59-38.37-32.54-63.55-37.42c-27.67-5.36-57.51-1.25-80.54,12.78
					c-23.03,14.03-38.49,38.21-38.73,63.69c-0.09,10.04,2.31,20.6,9.41,28.5c9.35,10.42,26.55,14.32,39.76,9.02
					c13.21-5.3,14.27-17.57,18.49-31.16"/>
				<g>
					<path d="M915.4,308.41c1.83-7.52,4.87-14.98,10.34-20.9c4.9-5.3,12.07-9.09,19.85-9.6c15.35-0.99,27,12.03,28.64,24.95
						c2.05,16.14-9.57,30.34-21.53,40.7c-6.47,5.61-13.46,10.69-20.09,16.14c-6.32,5.19-12.22,10.79-17.48,16.89
						c-10.28,11.92-18.18,25.72-21.77,40.68c-3.22,13.42-2.74,29.54,7.26,41.04c8.4,9.65,23.71,15.67,36.5,10.73
						c7.01-2.71,12.18-8.15,15.53-14.23c3.95-7.17,5.36-15.18,6.67-23.08c1.34-8.14,3.03-16.09,6.15-23.81
						c2.96-7.33,6.91-14.33,11.76-20.75c4.71-6.24,10.26-11.83,16.35-16.98c5.76-4.87,11.85-9.39,17.78-14.09
						c11.61-9.22,22.69-19.47,28.15-32.9c5.29-13,5.21-27.68,0.8-41.13c-4.56-13.89-13.7-26.15-25.81-35.7
						c-12.23-9.65-27.1-16.45-42.62-20.2c-15.73-3.81-32.34-4.51-48.19-2.02c-15.8,2.48-30.87,8.12-43.49,16.91
						c-12.45,8.67-22.3,20.32-28.43,33.47c-5.99,12.84-8.7,27.93-5.23,41.91c1.7,6.84,5.09,13.49,10.75,18.47
						c5.22,4.59,12.13,7.56,19.21,8.59c7.1,1.03,14.48,0.18,20.77-2.82c5.91-2.83,9.79-7.73,12.23-13.27
						c2.6-5.91,3.85-12.27,5.74-18.39c0.59-1.89-2.01-1.05-2.4,0.2c-1.91,6.17-3.16,12.59-5.81,18.54
						c-2.45,5.49-6.57,9.68-12.75,11.81c-13.36,4.61-30.09-0.06-38.61-10.85c-9.26-11.72-9.38-27.69-6.22-40.98
						c3.24-13.66,10.86-26.39,21.35-36.44c10.75-10.31,24.43-17.68,39.47-21.85c15.2-4.22,31.6-5.19,47.52-3.05
						c15.66,2.1,30.99,7.2,44.33,15.21c13.2,7.92,24.45,18.71,31.28,31.7c6.64,12.62,9.2,27.04,6.55,40.62
						c-1.32,6.77-4.04,13.21-7.99,19.01c-3.99,5.85-9.14,10.97-14.6,15.7c-11.21,9.68-23.9,17.93-34.13,28.54
						c-10.98,11.38-19,25.18-23.23,39.92c-2.3,8.03-3.08,16.32-4.87,24.45c-1.57,7.1-4.22,14.22-9.58,19.66
						c-4.7,4.76-11.32,7.3-18.47,6.96c-6.82-0.32-13.49-3.04-18.8-6.99c-12.35-9.17-15.35-24.43-13.62-37.86
						c1.9-14.78,8.89-28.82,18.17-40.8c4.77-6.15,10.19-11.87,16.12-17.12c6.27-5.55,13.1-10.56,19.64-15.84
						c12.53-10.12,24.63-22.19,27.75-37.79c1.33-6.67,0.65-13.55-2.46-19.86c-2.8-5.7-7.52-10.92-13.66-13.9
						c-14.24-6.94-30.35,0.4-38.52,11.3c-4.49,5.99-7.15,12.89-8.87,19.97c-0.16,0.66,0.52,0.98,1.13,0.81
						C914.76,309.86,915.23,309.1,915.4,308.41L915.4,308.41z"/>
				</g>
			</g>
			<g class="st6">
				<path d="M909.64,503.58c-2.96-5.89,1.01-13.58,7.81-15.13"/>
				<g>
					<path d="M910.83,502.6c-2.5-5.16,0.52-11.47,6.47-12.91c1.24-0.3,2.22-2.93,0.31-2.47c-7.73,1.87-12.46,10.54-9.16,17.34
						C909.03,505.77,911.36,503.7,910.83,502.6L910.83,502.6z"/>
				</g>
			</g>
			<g class="st6">
				<path d="M909.08,495.25c0.53,0,0.84,0.73,0.44,1.04c-0.6-0.41-0.49-1.39,0.18-1.66"/>
				<g>
					<path d="M908.31,496.53c0.17,0.01,0.15,0.07,0.05-0.02c0.14,0.14-0.05-0.12,0.02-0.01c0.06,0.09,0.04,0.16,0.02-0.01
						c0.01,0.03,0.01,0.05,0.01,0.07c-0.03-0.44,0.17-0.82,0.61-1.14c0.5-0.1,1.01-0.21,1.51-0.31c-0.04-0.03-0.09-0.07-0.12-0.11
						c0.16,0.15,0.03,0.03,0.02-0.03c-0.05-0.14,0.04,0.18,0.01,0.04c-0.05-0.21-0.02,0.04-0.03,0.03
						c-0.02-0.01,0.03-0.13,0.02-0.15c0.02,0.02-0.08,0.29-0.02,0.11c-0.07,0.19-0.19,0.36-0.33,0.51c-0.04,0.04-0.4,0.28-0.21,0.2
						c0.64-0.29,1.22-1.15,1.1-1.81c-0.13-0.74-0.93-0.6-1.45-0.36c-1.36,0.62-2.46,2.83-1.02,3.92c0.44,0.34,1.19-0.02,1.51-0.31
						c0.61-0.55,1.12-1.32,0.93-2.15c-0.11-0.48-0.52-1-1.1-1.03c-0.78-0.05-1.47,0.43-1.8,1.05c-0.16,0.29-0.3,0.63-0.24,0.97
						C907.84,496.2,908.02,496.51,908.31,496.53L908.31,496.53z"/>
				</g>
			</g>
		</g>
		<g id="Ebene_2_2_">
			<g>
				<path class="st7" d="M934.79,480.73c8.87,5.07,13.68,15.44,11.39,24.52c-2.29,9.08-11.53,16.18-21.83,16.79
					s-20.89-5.32-25.04-14.02c-4.15-8.7-1.54-19.51,6.17-25.56s19.93-6.88,28.9-1.97"/>
				<g>
					<path d="M933.77,481.91c8.32,4.83,13.08,14.23,11.32,22.91c-1.66,8.21-9.66,14.66-18.7,15.78c-9.54,1.18-19.65-3.6-24.58-11.2
						c-4.96-7.65-4-17.75,2.2-24.29c6.97-7.35,20.12-8.4,29.35-3.42c1.22,0.66,3.17-1.73,2.03-2.35c-9.33-5.04-21.45-4.2-29.69,1.73
						c-8.42,6.06-11.83,17.16-8.19,26.56c3.54,9.16,13.93,15.58,24.44,15.77c10.73,0.19,20.53-6.48,24.39-15.26
						c4.43-10.06-0.27-22.61-10.55-28.57C934.61,478.86,932.64,481.25,933.77,481.91L933.77,481.91z"/>
				</g>
			</g>
			<g>
				<path class="st8" d="M925.39,304.15c2.04-8.46,5.58-16.82,12.01-23.13c6.43-6.31,16.12-10.3,25.65-8.87
					c13.81,2.08,23.59,15.24,23.94,27.88c0.35,12.64-6.84,24.36-16,33.64c-9.16,9.28-20.36,16.7-30.28,25.31
					c-16.16,14.03-29.06,31.62-34.35,51.49c-3.48,13.05-3.36,27.73,4.59,39.38s25.35,18.69,38.61,12.85
					c8.42-3.7,13.64-11.6,16.35-19.75c2.71-8.15,3.34-16.78,5.17-25.15c3.77-17.26,12.76-33.43,25.74-46.3
					c16.08-15.94,38.31-27.18,49.52-46.3c11.87-20.24,8.47-46.61-5.87-66.2c-14.34-19.59-38.37-32.54-63.55-37.42
					c-27.66-5.36-57.5-1.26-80.53,12.78c-23.03,14.03-38.5,38.21-38.73,63.7c-0.09,10.04,2.31,20.6,9.41,28.5
					c9.35,10.42,26.55,14.32,39.76,9.02c13.21-5.3,14.27-17.57,18.49-31.16"/>
				<g>
					<path d="M926.68,303.72c1.83-7.52,4.87-14.98,10.34-20.9c4.9-5.3,12.07-9.09,19.85-9.6c15.35-0.99,27,12.03,28.64,24.95
						c2.05,16.14-9.57,30.34-21.53,40.7c-6.47,5.61-13.46,10.69-20.09,16.14c-6.32,5.19-12.22,10.79-17.48,16.89
						c-10.28,11.92-18.18,25.72-21.77,40.68c-3.22,13.42-2.74,29.54,7.26,41.04c8.4,9.65,23.71,15.67,36.5,10.73
						c7.01-2.71,12.18-8.15,15.53-14.23c3.95-7.17,5.36-15.18,6.67-23.08c1.34-8.14,3.03-16.09,6.15-23.81
						c2.96-7.33,6.91-14.33,11.76-20.75c4.71-6.24,10.26-11.83,16.35-16.98c5.76-4.87,11.85-9.39,17.78-14.09
						c11.61-9.22,22.69-19.47,28.15-32.9c5.29-13,5.21-27.68,0.8-41.13c-4.56-13.89-13.7-26.15-25.81-35.7
						c-12.23-9.65-27.1-16.45-42.62-20.2c-15.73-3.81-32.34-4.51-48.19-2.02c-15.8,2.48-30.87,8.12-43.49,16.91
						c-12.45,8.67-22.3,20.32-28.43,33.47c-5.99,12.84-8.7,27.93-5.23,41.91c1.7,6.84,5.09,13.49,10.75,18.47
						c5.22,4.59,12.13,7.56,19.21,8.59c7.1,1.03,14.48,0.18,20.77-2.82c5.91-2.83,9.79-7.73,12.23-13.27
						c2.6-5.91,3.85-12.27,5.74-18.39c0.59-1.89-2.01-1.05-2.4,0.2c-1.91,6.17-3.16,12.59-5.81,18.54
						c-2.45,5.49-6.57,9.68-12.75,11.81c-13.36,4.61-30.09-0.06-38.61-10.85c-9.26-11.72-9.38-27.69-6.22-40.98
						c3.24-13.66,10.86-26.39,21.35-36.44c10.75-10.31,24.43-17.68,39.47-21.85c15.2-4.22,31.6-5.19,47.52-3.05
						c15.66,2.1,30.99,7.2,44.33,15.21c13.2,7.92,24.45,18.71,31.28,31.7c6.64,12.62,9.2,27.04,6.55,40.62
						c-1.32,6.77-4.04,13.21-7.99,19.01c-3.99,5.85-9.14,10.97-14.6,15.7c-11.21,9.68-23.9,17.93-34.13,28.54
						c-10.98,11.38-19,25.18-23.23,39.92c-2.3,8.03-3.08,16.32-4.87,24.45c-1.57,7.1-4.22,14.22-9.58,19.66
						c-4.7,4.76-11.32,7.3-18.47,6.96c-6.82-0.32-13.49-3.04-18.8-6.99c-12.35-9.17-15.35-24.43-13.62-37.86
						c1.9-14.78,8.89-28.82,18.17-40.8c4.77-6.15,10.19-11.87,16.12-17.12c6.27-5.55,13.1-10.56,19.64-15.84
						c12.53-10.12,24.63-22.19,27.75-37.79c1.33-6.67,0.65-13.55-2.46-19.86c-2.8-5.7-7.52-10.92-13.66-13.9
						c-14.24-6.94-30.35,0.4-38.52,11.3c-4.49,5.99-7.15,12.89-8.87,19.97c-0.16,0.66,0.52,0.98,1.13,0.81
						C926.03,305.16,926.51,304.41,926.68,303.72L926.68,303.72z"/>
				</g>
			</g>
			<g>
				<g>
					<path d="M910.83,502.6c-2.5-5.16,0.52-11.47,6.47-12.91c1.24-0.3,2.22-2.93,0.31-2.47c-7.73,1.87-12.46,10.54-9.16,17.34
						C909.03,505.77,911.36,503.7,910.83,502.6L910.83,502.6z"/>
				</g>
			</g>
			<g>
				<path class="st7" d="M925.02,487.76c0.53,0,0.84,0.73,0.44,1.04c-0.6-0.41-0.49-1.39,0.18-1.66"/>
				<g>
					<path d="M924.26,489.04c0.17,0.01,0.15,0.07,0.05-0.02c0.14,0.14-0.05-0.12,0.02-0.01c0.06,0.09,0.04,0.16,0.02-0.01
						c0.01,0.03,0.01,0.05,0.01,0.07c-0.03-0.44,0.17-0.82,0.61-1.14c0.5-0.1,1.01-0.21,1.51-0.31c-0.04-0.03-0.08-0.07-0.12-0.11
						c0.16,0.15,0.03,0.03,0.02-0.03c-0.05-0.14,0.04,0.18,0.01,0.04c-0.05-0.21-0.02,0.04-0.03,0.03
						c-0.02-0.01,0.03-0.13,0.02-0.15c0.02,0.02-0.08,0.29-0.02,0.11c-0.07,0.19-0.19,0.36-0.33,0.51c-0.04,0.04-0.4,0.28-0.21,0.2
						c0.64-0.29,1.22-1.15,1.1-1.81c-0.13-0.74-0.93-0.6-1.45-0.36c-1.36,0.62-2.46,2.83-1.02,3.92c0.44,0.34,1.19-0.02,1.51-0.31
						c0.61-0.55,1.12-1.32,0.93-2.15c-0.11-0.48-0.52-1-1.1-1.03c-0.78-0.05-1.47,0.43-1.8,1.05c-0.16,0.29-0.3,0.63-0.24,0.97
						C923.79,488.71,923.96,489.02,924.26,489.04L924.26,489.04z"/>
				</g>
			</g>
		</g>
		<g id="Ebene_4_2_">
			<g class="st6">
				<path d="M926.47,477.74c-11.46-1.41-26.72,7.44-28.79,17.66c-2.07,10.22,8.44,23.15,19.59,26.08
					c-9.2-3.43-16.27-16.17-13.78-24.74s11.29-15.57,23.32-18.92"/>
				<g>
					<path d="M927.24,476.45c-5.07-0.59-10.15,0.54-14.64,2.51c-4.7,2.05-9,5.02-12.13,8.81c-3.01,3.65-4.73,7.96-4.24,12.62
						c0.49,4.7,2.9,9.24,6.09,12.97c3.63,4.24,8.48,7.85,14.19,9.39c1.22,0.33,2.97-2.02,1.54-2.57
						c-7.29-2.79-12.2-10.41-13.46-17.18c-0.63-3.39-0.17-6.65,1.45-9.7c1.69-3.18,4.25-5.85,7.26-8.05
						c3.92-2.87,8.56-4.84,13.37-6.19c0.72-0.2,1.38-0.98,1.44-1.66c0.06-0.67-0.44-1-1.13-0.81c-9.03,2.54-17.67,7.47-22.35,15.07
						c-2.05,3.34-3.18,7.03-2.86,10.91c0.33,3.97,1.92,7.93,4.21,11.36c2.51,3.75,6.02,7.11,10.53,8.84
						c0.51-0.86,1.02-1.71,1.54-2.57c-9.04-2.44-16.75-10.55-18.82-18.78c-1.01-4-0.43-7.82,1.9-11.26
						c2.33-3.43,5.94-6.12,9.79-8.06c4.39-2.22,9.65-3.66,14.79-3.06C927,479.17,928.64,476.61,927.24,476.45L927.24,476.45z"/>
				</g>
			</g>
			<g class="st6">
				<path d="M981.65,320.41c-9.2,12.73-20.03,20.45-31.91,31.18c-11.88,10.73-22.77,19.28-31.27,32.41
					c-8.5,13.14-15.63,39.66-12.62,54.92c3.01,15.26,18.87,29.13,40.15,25.03c-22.83-14.89-12.04-65.31-0.63-81.14
					c11.07-15.37,37.76-44.75,40.83-74.67"/>
				<g>
					<path d="M980.61,320.17c-8.7,11.99-20.93,21.18-32.07,31.19c-11.17,10.04-22.81,19.7-30.91,32.1
						c-3.07,4.7-5.36,9.84-7.27,15.04c-2.16,5.87-3.82,11.92-4.98,18.04c-2.03,10.76-3.05,22.76,2.95,32.89
						c2.95,4.99,7.35,9.36,12.72,12.29c5.75,3.15,12.39,4.56,18.99,4.21c1.85-0.1,3.68-0.34,5.49-0.68
						c0.79-0.15,2.64-1.72,1.49-2.48c-8.26-5.43-11.41-14.94-12.57-23.61c-1.41-10.57-0.25-21.36,2.14-31.64
						c1.1-4.75,2.53-9.45,4.35-14c1.42-3.56,3.05-7.04,5.31-10.24c3.08-4.37,6.54-8.61,9.81-12.89c4.24-5.54,8.4-11.15,12.26-16.93
						c8.3-12.43,15.59-25.9,18.38-40.44c0.34-1.76,0.6-3.53,0.79-5.31c0.07-0.66-0.46-1-1.13-0.81c-0.72,0.2-1.37,0.99-1.44,1.66
						c-1.56,14.79-8.49,28.57-16.56,41.17c-6.95,10.85-15.22,20.86-22.89,31.27c-5.36,7.28-8.47,15.74-10.69,24.28
						c-2.71,10.45-4.14,21.38-3.24,32.21c0.76,9.01,3.28,19.05,10.82,25.65c0.82,0.72,1.7,1.38,2.62,1.99
						c0.5-0.83,0.99-1.65,1.49-2.48c-6.67,1.26-13.61,0.88-20-1.67c-5.64-2.25-10.51-6.11-13.93-10.75
						c-3.3-4.46-5.24-9.51-5.84-14.78c-0.63-5.52-0.16-11.11,0.69-16.55c0.94-6.05,2.43-12.02,4.39-17.84
						c1.75-5.2,3.85-10.35,6.68-15.14c7.08-11.98,18.14-21.33,28.7-30.72c5.6-4.98,11.28-9.86,16.91-14.8
						c5.44-4.78,10.69-9.78,15.21-15.31c1.18-1.45,2.3-2.93,3.39-4.43c0.32-0.44,0.43-1.32-0.27-1.52
						C981.66,318.9,980.95,319.71,980.61,320.17L980.61,320.17z"/>
				</g>
			</g>
			<g class="st6">
				<path d="M964.33,219.81c-17.76,0.18-42.93,2.47-58.03,9.64c-15.1,7.17-31.86,23.12-40.2,36.58
					c-8.34,13.47-10.58,36.53-4.84,51.43c5.74,14.89,19.57,22.79,39.64,19.85c-11.51-4.46-22.64-13.12-24.47-24.26
					c-1.83-11.15,1.29-22.41,6.12-32.61c13.05-27.54,40.68-48.79,81.31-59.81"/>
				<g>
					<path d="M964.8,218.5c-15.55,0.17-31.43,1.47-46.29,5.43c-7.03,1.87-13.54,4.62-19.53,8.37c-6.76,4.23-12.89,9.27-18.46,14.72
						c-5.41,5.28-10.37,10.98-14.45,17.18c-3.7,5.63-6.04,11.86-7.5,18.31c-1.55,6.83-2.1,13.91-1.63,20.93
						c0.43,6.41,1.76,12.95,4.87,18.84c2.79,5.28,7.13,9.95,12.76,12.9c6.07,3.18,13.07,4.27,19.92,3.99
						c1.99-0.08,3.97-0.28,5.93-0.57c0.95-0.14,2.72-2.01,1.24-2.59c-10.14-3.97-20.55-11.31-23.44-21.42
						c-1.74-6.1-1.2-12.78,0.09-18.83c1.29-6.03,3.59-11.87,6.41-17.4c4.29-8.4,9.97-16.12,16.78-22.97
						c7.23-7.27,15.72-13.47,24.9-18.63c10.2-5.74,21.25-10.19,32.69-13.6c1.53-0.46,3.07-0.89,4.62-1.31
						c1.22-0.33,2.19-2.98,0.31-2.47c-12.16,3.31-23.94,7.73-34.87,13.51c-9.82,5.2-18.94,11.52-26.79,18.96
						c-7.45,7.06-13.78,15.09-18.58,23.88c-6.1,11.18-10.48,23.95-8.82,36.73c1.43,11.02,10.65,19.43,21.19,24.41
						c1.3,0.62,2.63,1.19,3.97,1.71c0.41-0.86,0.83-1.73,1.24-2.59c-6.97,1-14.26,0.89-20.99-1.52
						c-5.72-2.04-10.57-5.78-13.91-10.46c-3.72-5.22-5.59-11.25-6.47-17.3c-0.98-6.68-0.82-13.47,0.19-20.09
						c0.97-6.38,2.74-12.78,5.87-18.52c3.24-5.94,7.76-11.34,12.49-16.34c9.6-10.15,21.32-19.65,35.49-24.16
						c7.11-2.26,14.57-3.64,22.06-4.62c7.49-0.98,15.07-1.54,22.66-1.78c1.7-0.05,3.39-0.09,5.09-0.11
						C965.1,221.1,966.52,218.48,964.8,218.5L964.8,218.5z"/>
				</g>
			</g>
		</g>
		<g id="Ebene_5_1_">
			<g class="st6">
				<g>
					<path class="st9" d="M993.42,241.02c1.19,0.49,2.37,1.01,3.53,1.58c0.58,0.28,1.15,0.58,1.71,0.88
						c0.28,0.15,0.56,0.3,0.84,0.46c0.12,0.07,1.28,0.74,0.57,0.32c2.19,1.31,4.29,2.76,6.26,4.33c4,3.19,7.26,6.65,10.18,10.77
						c6.03,8.51,9.15,18.28,8.8,28.25c-0.82,23.82-18.2,42.97-34.14,60.13c-9.23,9.93-18.42,19.93-25.27,31.42
						c-0.32,0.54,1.22,1.36,1.44,1.47c1.12,0.56,2.59,0.91,3.83,1.08c1.68,0.22,4.82,0.66,5.78-0.95
						c12.31-20.65,32.56-36.06,46.06-55.96c6.72-9.91,12.07-20.95,13.17-32.78c0.96-10.26-1.6-20.68-7.35-29.76
						c-6.21-9.8-15.89-17.92-27.25-22.57c-2.35-0.96-5.28-1.65-7.81-1.13c-0.61,0.12-1.69,0.3-1.8,1
						C991.89,240.21,992.91,240.81,993.42,241.02L993.42,241.02z"/>
				</g>
			</g>
			<g class="st6">
				<g>
					<path class="st9" d="M930.08,495.1c1.3,4.03,0.58,8.48-1.34,12.16c-0.93,1.79-2.27,3.41-3.82,4.79
						c-1.78,1.59-3.32,2.49-5.53,3.27c-2.26,0.8,0.58,2.33,1.64,2.67c2.26,0.74,5.35,1.28,7.65,0.47
						c9.75-3.45,15.17-13.5,12.19-22.76c-0.21-0.64-1.89-1.24-2.39-1.41c-1.3-0.45-2.85-0.74-4.23-0.79
						C933.08,493.46,929.51,493.31,930.08,495.1L930.08,495.1z"/>
				</g>
			</g>
		</g>
	</g>
</g>
</svg>
