<?xml version="1.0" encoding="utf-8"?>
<!-- Generator: Adobe Adobe Illustrator 24.2.0, SVG Export Plug-In . SVG Version: 6.00 Build 0)  -->
<svg version="1.1" xmlns="http://www.w3.org/2000/svg" xmlns:xlink="http://www.w3.org/1999/xlink" x="0px" y="0px"
	 viewBox="0 0 1080 1080" style="enable-background:new 0 0 1080 1080;" xml:space="preserve">
<style type="text/css">
	.st0{fill:#FFFFFF;stroke:#000000;stroke-width:8;stroke-linecap:round;stroke-linejoin:round;stroke-miterlimit:10;}
	.st1{fill:#FFBABA;}
	.st2{opacity:0.0706;}
	.st3{opacity:0.0706;fill:none;stroke:#000000;stroke-width:30;stroke-linecap:round;stroke-linejoin:round;stroke-miterlimit:10;}
	.st4{stroke:#000000;stroke-width:8;stroke-linecap:round;stroke-linejoin:round;stroke-miterlimit:10;}
	.st5{fill:#FFFFFF;}
	.st6{fill:#FFFFFF;stroke:#FFFFFF;stroke-miterlimit:10;}
	.st7{fill:none;stroke:#000000;stroke-width:20;stroke-linecap:round;stroke-linejoin:round;stroke-miterlimit:10;}
	.st8{opacity:0.149;}
	.st9{fill:#CA354E;}
</style>
<g id="Ebene_2">
	<path class="st0" d="M154.15,466.65c-198.99,69.78-86.69,341.75,101.2,291.26c3.05,25.7,84.24,42.25,108.18,8.96
		c15.44,35.11,156.97,88.69,217.42,4.61c28.19,41.06,124.93,68.59,184.54,17.75c262.78,86.73,252-343.83,49.12-325.17
		c11.32-57-104.56-95.15-138.26-63.81c-10.22-162.94-262.1-145.81-277.39-50.56C322.69,296.95,176.53,327.24,154.15,466.65z"/>
</g>
<g id="Ebene_4">
	<path class="st1" d="M222.32,535.69c3.02,31.3,122.2,15.34,119.93-21.17C340.01,478.47,217.89,489.86,222.32,535.69z"/>
	<path class="st1" d="M581.28,531.84c-6.9,30.67,111.29,52.73,120.54,17.34C710.96,514.23,591.39,486.92,581.28,531.84z"/>
</g>
<g id="Ebene_9">
	<path class="st3" d="M383.93,372.21c-36.49-18.77-81.64-19.74-118.9-2.56s-65.85,52.13-75.29,92.07"/>
	<path class="st3" d="M158.88,496.84c-163.69,82.59-37.61,260.82,74.6,233.74"/>
	<path class="st3" d="M429.36,362.3c60.86-86.68,190.02-51.1,212.3,25.67"/>
	<path class="st3" d="M689.85,425.9c39.27-14.61,95.69,8.91,99.15,48.01"/>
	<path class="st3" d="M391.02,752.99c44.66,44.66,110.34,48.92,161.6,3.21"/>
	<path class="st3" d="M607.84,763.29c34.68,31.02,90.56,35.18,129.45,9.64"/>
	<path class="st3" d="M827.81,496.84c144.41,0,167.78,313.34-36.81,273.83"/>
</g>
<g id="Ebene_13">
	
		<ellipse transform="matrix(0.3102 -0.9507 0.9507 0.3102 -135.8562 742.6617)" class="st4" cx="443.86" cy="464.95" rx="43.42" ry="14.5"/>
	
		<ellipse transform="matrix(0.9884 -0.1517 0.1517 0.9884 -65.9707 83.202)" class="st4" cx="512.24" cy="473.91" rx="14.5" ry="43.42"/>
</g>
<g id="Ebene_18">
	<circle class="st5" cx="450.14" cy="438.96" r="4.75"/>
	<circle class="st5" cx="450.14" cy="438.96" r="4.75"/>
	<ellipse class="st6" cx="512.24" cy="443.71" rx="4.78" ry="4.75"/>
</g>
<g id="Ebene_19">
	<path class="st7" d="M379.25,555.17c55.51,5.76,111.36,8.19,167.16,7.45c-0.19,0.19-0.39,0.39-0.58,0.58"/>
</g>
<g id="Ebene_7">
	<g>
		<g id="Ebene_5">
			<g class="st8">
				<path d="M889.48,360.37c-10.1-5.92-12.96-10.46-29.1-15.67c-10.65-3.43-51.79,3.98-62.26,10.1c-3.77,2.2-5.47,0.78-18.7-1.48
					c-7.46-1.27-14.87-4.17-22.29-3.65c-10.97,0.76-19.57,5.2-25.38,12.72c-23.5,30.36-38.21,68.56-45.11,105.1
					c-2.26,11.98-2.9,25.94,7.36,35.42c6.62,6.11,15.31,12.16,24.8,13c19.52,1.72,17.9,12.29,28.26,34.07
					c1.84,3.86,24.91,26.24,23.85,49.93c-1.12,24.85-9.79,52.74-14.7,73.32c-3.45,14.47-9.34,35.86,3.66,47.05
					c8.94,7.69,26.8,5.76,38.34,2.87c11.54-2.89,22.74-9.06,27.21-18.37c19.85-41.39,25.42-63.45,32.07-110.03
					c30.26,2.04,55.48,10.59,83.44,16.02c12.38,2.41,26.59,0.44,37.98-3.16c12.43-3.93,24.02-17.07,25.59-28.29
					c1.57-11.23-7.88-24.15-13.43-29.47c29-3.32,31.94-37.4,15.78-57.6c16.62-2.39,19.11-16.85,18.49-29.41
					c-0.63-12.56-6.46-18.46-19.33-29.61c12.18-1.75,15.44-14.54,9.31-24.09s-17.84-16.68-29.15-21.98
					c-30.53-14.31-59.33-20.6-96.77-28.48"/>
				<g>
					<path d="M890.88,359.06c-5.01-2.96-9.46-6.54-14.51-9.45c-2.78-1.6-5.72-2.98-8.74-4.18c-2.66-1.05-5.45-2.22-8.31-2.69
						c-4.53-0.74-9.23-0.46-13.69-0.11c-5.93,0.47-11.79,1.29-17.57,2.31c-5.84,1.03-11.62,2.26-17.25,3.81
						c-4.21,1.16-8.52,2.43-12.25,4.39c-1.18,0.62-2.1,1.22-3.58,1.24c-2.01,0.02-4.12-0.56-6.09-0.95
						c-3.89-0.78-7.82-1.38-11.7-2.23c-4.39-0.97-8.71-2.22-13.17-2.8c-7.35-0.96-15.01,0.55-21.13,3.5
						c-6.4,3.09-10.73,7.69-14.59,12.86c-9.17,12.3-16.75,25.49-23.06,39.11c-6.38,13.78-11.45,28.06-15.39,42.6
						c-1.94,7.15-3.6,14.37-4.95,21.65c-1.1,5.94-1.79,12.05-1.05,18.17c0.7,5.78,2.81,11.55,7.22,16.35
						c5.14,5.6,12.61,10.93,20.46,13.43c5.77,1.83,12.22,1.13,17.49,4.35c4.01,2.45,6.09,6.29,7.78,10.01
						c2.59,5.71,4.59,11.57,7.14,17.3c1.38,3.08,2.97,5.41,5.17,8.14c6.77,8.43,13.01,17.21,16.77,26.77
						c5.26,13.37,3.02,26.88,0.68,40.05c-2.53,14.21-6.29,28.14-9.86,42.12c-2.81,11-6.12,22.19-6.52,33.63
						c-0.35,9.82,2.29,22.4,15.06,26.85c6.98,2.43,14.85,2.16,21.88,1.31c7.35-0.89,14.57-2.63,21.02-5.47
						c6.52-2.87,12.39-6.91,16.3-12.15c2.19-2.93,3.55-6.26,5.06-9.48c1.55-3.31,3.07-6.63,4.54-9.96
						c5.17-11.7,9.76-23.62,13.37-35.82c3.61-12.2,6.21-24.64,8.35-37.17c1.26-7.38,2.37-14.78,3.43-22.2
						c-0.8,0.63-1.6,1.27-2.4,1.9c16.52,1.15,32.76,4.44,48.9,8.23c7.68,1.81,15.34,3.69,23.04,5.4c7.43,1.65,14.85,3.36,22.45,3.43
						c7.27,0.07,14.47-0.91,21.29-2.56c5.82-1.4,11.15-3.28,15.81-6.43c8.81-5.93,16.09-14.98,17.8-24.7
						c1.87-10.68-5-22.77-13.62-31.11c-0.56,0.93-1.12,1.85-1.68,2.78c24.48-2.99,31.13-26.37,25.7-44.6
						c-1.63-5.46-4.23-10.74-8.02-15.53c-0.63,0.84-1.26,1.68-1.9,2.53c11.9-1.85,18.12-10.17,19.87-19.72
						c1.66-9.05,1.29-19.52-4.85-27.94c-3.82-5.24-9.11-9.72-14.19-14.13c-0.56,0.93-1.12,1.85-1.68,2.78
						c9.16-1.47,14.27-8.6,14.33-16.2c0.06-9.23-7.65-17.32-15.97-23.25c-9.71-6.92-21.34-11.92-32.72-16.37
						c-11.68-4.56-23.73-8.27-35.93-11.46c-14.86-3.88-29.92-7.05-44.96-10.21c-1.68-0.35-4,2.54-2.16,2.93
						c23.82,5.02,47.81,10.01,70.79,17.96c11.02,3.81,22.05,8.19,32.2,13.63c9.26,4.96,19.12,11.63,23.46,20.32
						c3.8,7.62,2.03,18.03-8.47,19.71c-1.1,0.18-2.77,1.82-1.68,2.78c7.53,6.52,15.7,13.4,18.04,22.39
						c1.14,4.38,1.25,8.96,0.94,13.33c-0.31,4.33-1.13,8.76-3.4,12.58c-2.64,4.43-7.2,7.03-13.07,7.94
						c-0.94,0.15-2.63,1.59-1.9,2.53c6.18,7.82,9.37,17.01,9.66,26.02c0.28,8.4-2.09,17.3-8.98,23.21c-3.85,3.31-9,5.15-14.56,5.83
						c-1.19,0.14-2.68,1.81-1.68,2.78c7.35,7.11,13.28,17.1,13.29,26.26c0,9.49-7.2,18.74-15.38,24.43
						c-4.48,3.12-9.63,4.86-15.3,6.18c-6.72,1.56-13.75,2.45-20.89,2.26c-7.2-0.2-14.29-1.92-21.34-3.5
						c-7.28-1.63-14.52-3.41-21.78-5.12c-16.53-3.89-33.17-7.26-50.08-8.44c-1.12-0.08-2.28,1.06-2.4,1.9
						c-3.64,25.47-8.05,50.8-17.01,75.06c-2.26,6.12-4.74,12.16-7.37,18.15c-1.4,3.2-2.85,6.38-4.32,9.56
						c-1.49,3.2-2.77,6.62-4.82,9.58c-7.46,10.8-23.83,15.63-38.48,16.55c-6.92,0.44-15.19,0.09-21.09-3.97
						c-4.82-3.31-7.33-8.41-8.37-13.28c-2.31-10.77,0.63-21.67,3.1-31.93c3.06-12.72,6.57-25.33,9.48-38.08
						c1.61-7.04,3.04-14.12,4.1-21.26c0.97-6.55,1.97-13.31,1.6-20.01c-0.61-10.93-5.81-21.68-12.45-31.37
						c-2.49-3.63-5.22-7.14-8.02-10.62c-2.22-2.76-3.72-5.08-5.1-8.2c-2.44-5.48-4.37-11.08-6.81-16.56
						c-1.63-3.65-3.65-7.51-7.29-10.18c-3.85-2.82-8.67-3.66-13.43-4.19c-9.05-1.01-16.74-6.22-22.97-11.77
						c-10.82-9.63-10.43-22.84-8.37-34.41c2.54-14.29,6.36-28.39,11.21-42.1c4.92-13.89,10.98-27.44,18.42-40.38
						c3.69-6.43,7.74-12.69,12.17-18.75c3.79-5.19,7.75-10.02,14.35-12.91c7.03-3.08,14.86-3.53,22.88-1.76
						c7.45,1.64,14.87,3.25,22.37,4.63c3.7,0.68,6.22,0.54,9.28-1.1c3.47-1.86,7.48-3.05,11.41-4.14c10.87-3,22.39-5.11,33.97-6.02
						c4.26-0.34,8.89-0.7,13.23,0.06c2.86,0.5,5.68,1.7,8.34,2.77c3.03,1.21,5.93,2.62,8.68,4.27c4.68,2.81,8.89,6.13,13.6,8.91
						C889.63,362.6,892.33,359.92,890.88,359.06L890.88,359.06z"/>
				</g>
			</g>
		</g>
		<g id="Ebene_5_Kopie">
			<g>
				<path class="st9" d="M907.49,358.03c-10.1-5.92-12.96-10.46-29.1-15.67c-10.65-3.43-51.79,3.98-62.26,10.1
					c-3.77,2.2-5.47,0.78-18.7-1.48c-7.46-1.27-14.87-4.17-22.29-3.65c-10.97,0.76-19.57,5.2-25.38,12.72
					c-23.5,30.35-38.2,68.56-45.1,105.1c-2.26,11.98-2.9,25.94,7.36,35.42c6.62,6.11,15.31,12.16,24.8,13
					c19.52,1.72,17.9,12.29,28.26,34.07c1.84,3.86,24.91,26.24,23.85,49.93c-1.12,24.85-9.79,52.74-14.7,73.32
					c-3.45,14.47-9.34,35.86,3.66,47.05c8.94,7.69,26.8,5.76,38.34,2.87c11.54-2.89,22.74-9.06,27.21-18.37
					c19.85-41.39,25.42-63.45,32.07-110.03c30.26,2.04,55.48,10.59,83.44,16.02c12.38,2.41,26.59,0.44,37.98-3.16
					c12.43-3.93,24.02-17.07,25.59-28.29c1.57-11.23-7.88-24.15-13.43-29.47c29-3.32,32.5-33.13,16.34-53.33
					c16.62-2.39,18.56-21.12,17.93-33.67c-0.62-12.56-6.46-18.46-19.33-29.61c12.18-1.75,15.44-14.54,9.31-24.09
					c-6.13-9.55-17.84-16.68-29.15-21.98c-30.53-14.31-59.33-20.6-96.77-28.48"/>
				<g>
					<path class="st9" d="M908.89,356.72c-5.01-2.96-9.46-6.54-14.51-9.45c-2.78-1.6-5.72-2.98-8.74-4.18
						c-2.66-1.05-5.45-2.22-8.31-2.69c-4.53-0.74-9.23-0.46-13.69-0.11c-5.93,0.47-11.79,1.29-17.57,2.31
						c-5.84,1.03-11.62,2.26-17.25,3.81c-4.21,1.16-8.52,2.43-12.25,4.39c-1.18,0.62-2.1,1.22-3.58,1.24
						c-2.01,0.02-4.12-0.56-6.09-0.95c-3.89-0.78-7.82-1.38-11.7-2.23c-4.39-0.97-8.71-2.22-13.17-2.8
						c-7.35-0.96-15.01,0.55-21.13,3.5c-6.4,3.09-10.73,7.69-14.59,12.86c-9.17,12.3-16.75,25.49-23.06,39.11
						c-6.38,13.78-11.45,28.06-15.39,42.6c-1.94,7.15-3.6,14.37-4.95,21.65c-1.1,5.94-1.79,12.05-1.05,18.17
						c0.7,5.78,2.81,11.55,7.22,16.35c5.14,5.6,12.61,10.93,20.46,13.43c5.77,1.83,12.22,1.13,17.49,4.35
						c4.01,2.45,6.09,6.29,7.78,10.01c2.59,5.71,4.59,11.57,7.14,17.3c1.38,3.08,2.97,5.41,5.17,8.14
						c6.77,8.43,13.01,17.21,16.77,26.77c5.26,13.37,3.02,26.88,0.68,40.05c-2.53,14.21-6.29,28.14-9.86,42.12
						c-2.81,11-6.12,22.19-6.52,33.63c-0.35,9.82,2.29,22.4,15.06,26.85c6.98,2.43,14.85,2.16,21.88,1.31
						c7.35-0.89,14.57-2.63,21.02-5.47c6.52-2.87,12.39-6.91,16.3-12.15c2.19-2.93,3.55-6.26,5.06-9.48
						c1.55-3.31,3.07-6.63,4.54-9.96c5.17-11.7,9.76-23.62,13.37-35.82c3.61-12.2,6.21-24.64,8.35-37.17
						c1.26-7.38,2.37-14.78,3.43-22.2c-0.8,0.63-1.6,1.27-2.4,1.9c16.52,1.15,32.76,4.44,48.9,8.23c7.68,1.81,15.34,3.69,23.04,5.4
						c7.43,1.65,14.85,3.36,22.45,3.43c7.27,0.07,14.47-0.91,21.29-2.56c5.82-1.4,11.15-3.28,15.81-6.43
						c8.81-5.93,16.09-14.98,17.8-24.7c1.87-10.68-5-22.77-13.62-31.11c-0.56,0.93-1.12,1.85-1.68,2.78
						c10.71-1.3,19.45-6.57,24.09-14.57c4.55-7.86,4.81-17.42,2.13-26.22c-1.62-5.32-4.29-10.41-7.98-15.07
						c-0.63,0.84-1.26,1.68-1.9,2.53c12.2-1.91,17.45-11.91,19.16-21.35c1.69-9.32,2.03-20.5-3.86-29.39
						c-3.82-5.76-9.57-10.6-15.02-15.32c-0.56,0.93-1.12,1.85-1.68,2.78c9.16-1.47,14.27-8.6,14.33-16.2
						c0.06-9.23-7.65-17.32-15.97-23.25c-9.71-6.92-21.34-11.92-32.72-16.37c-11.68-4.56-23.73-8.27-35.93-11.46
						c-14.86-3.88-29.92-7.05-44.96-10.21c-1.68-0.35-4,2.54-2.16,2.93c23.82,5.02,47.81,10.01,70.79,17.96
						c11.02,3.81,22.05,8.19,32.2,13.63c9.26,4.96,19.12,11.63,23.46,20.32c3.8,7.62,2.03,18.03-8.47,19.71
						c-1.1,0.18-2.77,1.82-1.68,2.78c8.38,7.26,16.83,14.67,18.56,24.81c0.79,4.63,0.72,9.41,0.27,13.98
						c-0.44,4.52-1.37,9.07-3.52,13.14c-2.36,4.46-6.34,7.65-12.24,8.57c-0.94,0.15-2.63,1.59-1.9,2.53
						c10.5,13.28,14.81,34.54,0.32,45.43c-4.08,3.06-9.24,4.71-14.76,5.38c-1.19,0.14-2.68,1.81-1.68,2.78
						c7.35,7.11,13.28,17.1,13.29,26.26c0,9.49-7.2,18.74-15.38,24.43c-4.48,3.12-9.63,4.86-15.3,6.18
						c-6.72,1.56-13.75,2.45-20.89,2.26c-7.2-0.2-14.29-1.92-21.34-3.5c-7.28-1.63-14.52-3.41-21.78-5.12
						c-16.53-3.89-33.17-7.26-50.08-8.44c-1.12-0.08-2.28,1.06-2.4,1.9c-3.64,25.47-8.05,50.8-17.01,75.06
						c-2.26,6.12-4.74,12.16-7.37,18.15c-1.4,3.2-2.85,6.38-4.32,9.56c-1.49,3.2-2.77,6.62-4.82,9.58
						c-7.46,10.8-23.83,15.63-38.48,16.55c-6.92,0.44-15.19,0.09-21.09-3.97c-4.82-3.31-7.33-8.41-8.37-13.28
						c-2.31-10.77,0.63-21.67,3.1-31.93c3.06-12.72,6.57-25.33,9.48-38.08c1.61-7.04,3.04-14.12,4.1-21.26
						c0.97-6.55,1.97-13.31,1.6-20.01c-0.61-10.93-5.81-21.68-12.45-31.37c-2.49-3.63-5.22-7.14-8.02-10.62
						c-2.22-2.76-3.72-5.08-5.1-8.2c-2.44-5.48-4.37-11.08-6.81-16.56c-1.63-3.65-3.65-7.51-7.29-10.18
						c-3.85-2.82-8.67-3.66-13.43-4.19c-9.05-1.01-16.74-6.22-22.97-11.77c-10.82-9.63-10.43-22.84-8.38-34.41
						c2.54-14.29,6.36-28.39,11.21-42.1c4.92-13.89,10.98-27.44,18.42-40.38c3.69-6.43,7.74-12.69,12.17-18.75
						c3.79-5.19,7.75-10.02,14.35-12.91c7.03-3.08,14.86-3.53,22.88-1.76c7.45,1.64,14.87,3.25,22.37,4.63
						c3.7,0.68,6.22,0.54,9.28-1.1c3.47-1.86,7.48-3.05,11.41-4.14c10.87-3,22.39-5.11,33.97-6.02c4.26-0.34,8.89-0.7,13.23,0.06
						c2.86,0.5,5.68,1.7,8.34,2.77c3.03,1.21,5.93,2.62,8.68,4.27c4.68,2.81,8.89,6.13,13.6,8.91
						C907.64,360.26,910.35,357.58,908.89,356.72L908.89,356.72z"/>
				</g>
			</g>
		</g>
		<g id="Ebene_2_1_">
			<g>
				<g>
					<path d="M772.35,453.88c-10.93,9.69-18.2,22.07-21.47,35.39c-3.24,13.24-2.48,27.41,2.46,40.83
						c2.52,6.84,6.23,13.3,10.76,19.48c4.83,6.59,10.29,12.87,14.73,19.64c4.66,7.09,7.67,14.47,8.28,22.35
						c0.64,8.27-0.9,16.38-2.62,24.34c-3.86,17.82-7.89,35.6-11.84,53.4c-1.83,8.25-4.1,16.5-5.3,24.88
						c-0.98,6.88-0.74,14.5,4.4,20.7c9.37,11.28,28.31,12.69,41.62,8.69c16.66-5,28.63-16.54,36.34-29.45
						c4.46-7.46,7.67-15.44,10.46-23.52c2.93-8.49,5.52-17.08,7.79-25.74c4.57-17.42,7.82-35.17,9.72-53.11
						c0.47-4.42,0.85-8.86,1.16-13.3c0.15-2.15-3.31-0.64-3.4,0.76c-1.22,17.6-3.7,35.05-7.47,52.24
						c-1.88,8.59-4.08,17.11-6.6,25.55c-2.44,8.2-5.07,16.38-8.41,24.3c-5.83,13.85-14.56,27.43-29.56,35.4
						c-12.1,6.43-29.88,8.99-43.12,0.59c-6.73-4.27-9.71-10.67-9.96-17.33c-0.29-7.79,2.18-15.49,3.84-22.97
						c3.86-17.42,7.73-34.85,11.59-52.27c3.38-15.24,8.17-31.47,1.85-47.28c-5.62-14.07-18.43-25.37-26.04-38.71
						c-7.12-12.47-10.1-26.29-9.04-39.56c1.06-13.24,6-26,14.79-36.59c2.11-2.55,4.47-4.93,7.01-7.18c0.5-0.44,1.14-1.5,0.39-2.08
						C773.98,452.75,772.83,453.45,772.35,453.88L772.35,453.88z"/>
				</g>
			</g>
			<g>
				<g>
					<path d="M942.01,561.12c-18.09-5.15-36.24-10.09-54.19-15.67c-8.91-2.77-17.77-5.69-26.49-8.91
						c-6.85-2.53-13.77-5.5-19.23-9.99c-5.42-4.46-8.53-10.45-7.1-16.49c1.4-5.88,6.58-10.69,12.6-13.52
						c14.23-6.71,32.85-4.43,48.76-1.04c19.15,4.08,37.95,10.05,55.85,17.55c15.9,6.66,31.83,14.4,45.06,24.66
						c12.3,9.54,22.05,21.87,23.39,35.71c0.68,7.02-0.82,14.16-5.12,19.95c-3.83,5.16-9.73,8.88-16.37,11.3
						c-15.71,5.73-33.96,3.84-50.83,0.03c-9.49-2.14-18.76-5.07-28.25-7.19c-8.83-1.97-17.78-3.22-26.72-4.38
						c-4.82-0.63-9.64-1.23-14.46-1.9c-1.03-0.14-1.92,0.38-2.42,1.07c-0.28,0.38-0.78,1.71,0.26,1.86
						c9.81,1.35,19.65,2.43,29.44,4.03c9.71,1.58,19.07,4.11,28.56,6.61c18.19,4.79,37.48,8.76,55.7,5.06
						c7.59-1.54,14.86-4.36,20.61-8.65c6.18-4.6,10.37-10.66,12.19-17.57c3.66-13.97-2.65-28.68-13.75-40.18
						c-11.22-11.63-26.45-20.11-41.73-27.37c-18.43-8.76-37.93-15.79-57.96-20.88c-17.13-4.36-35.99-8.26-53.04-4.46
						c-7.84,1.75-14.94,5.22-19.82,10.55c-4.57,4.99-7.11,11.42-4.92,18.01c2.06,6.19,7.9,10.98,14.24,14.45
						c7.23,3.95,15.29,6.64,23.17,9.33c18.77,6.4,37.92,11.78,57.05,17.17c4.46,1.26,8.92,2.51,13.37,3.78
						C941.48,564.52,943.87,561.65,942.01,561.12L942.01,561.12z"/>
				</g>
			</g>
			<g>
				<g>
					<path d="M864.42,489.85c-8.15-5.52-16.32-12.57-18.95-21.19c-1.73-5.66-0.48-11.3,3.23-15.73c2.95-3.53,7.68-6.49,13.02-7.68
						c4.69-1.05,9.73-1.26,14.65-1.25c5.85,0.01,11.74,0.43,17.6,1.09c25.79,2.9,51.02,11.12,74.7,21
						c12.15,5.07,23.7,10.97,35.28,16.97c9.14,4.74,19,9.84,25.07,17.54c6.02,7.64,7.38,17,5.33,25.38
						c-1.87,7.67-6.9,15.01-15.19,18.7c-2.09,0.93-4.32,1.59-6.67,2.02c-0.95,0.18-1.86,1.03-1.98,1.85
						c-0.12,0.79,0.51,1.25,1.42,1.08c21.36-3.93,30.9-25.41,25.02-42.6c-3.21-9.36-11.66-16.24-21.11-21.69
						c-5.07-2.92-10.35-5.53-15.56-8.26c-6.07-3.18-12.18-6.26-18.45-9.13c-13.46-6.15-27.4-11.53-41.65-16.02
						c-12.23-3.86-24.62-7.04-37.35-8.91c-11.82-1.73-24.14-2.87-35.81-1.48c-7.09,0.85-13.19,3.32-18.05,7.54
						c-4.89,4.26-7.91,10-7.75,16.19c0.21,8.04,5.9,15.47,12.62,21.3c2.43,2.11,5.05,4.05,7.76,5.89
						C863.08,493.46,865.84,490.82,864.42,489.85L864.42,489.85z"/>
				</g>
			</g>
			<g>
				<g>
					<path d="M878,441.18c-5.07-3.78-9.27-8.6-12.63-13.47c-4.14-6-7.54-13.12-6.3-19.86c1.45-7.86,9.64-12.35,18.41-13.9
						c11.47-2.03,23.94,0.56,35.53,2.57c25,4.34,49.93,9.94,73.76,18.49c21.17,7.6,43.49,17.78,53.85,36.17
						c2.22,3.95,3.69,8.17,3.73,12.43c0.03,3.23-0.58,6.48-1.43,9.56c-1.8,6.51-5.38,12.97-11.75,16.98
						c-1.66,1.05-3.52,1.91-5.48,2.54c-0.94,0.3-1.85,0.95-1.98,1.85c-0.1,0.69,0.52,1.38,1.42,1.08
						c8.87-2.85,14.99-8.94,18.55-16.18c1.62-3.28,2.73-6.78,3.4-10.33c0.68-3.62,1.02-7.36,0.25-11.09
						c-1.9-9.17-8.77-17.64-16.59-24.38c-8.81-7.59-19.89-12.96-31.07-17.48c-24.87-10.06-51.3-16.52-77.8-21.39
						c-6.58-1.21-13.19-2.39-19.81-3.33c-6.34-0.91-12.76-1.54-19.07-1.06c-10.17,0.78-20.33,4.68-25.04,12.35
						c-7.75,12.59,3.28,28.69,14.34,38.65c0.93,0.83,1.88,1.64,2.9,2.4C876.59,444.83,879.39,442.21,878,441.18L878,441.18z"/>
				</g>
			</g>
			<g>
				<g>
					<path d="M883.29,389.54c-6.79-8.34-5.97-19.81,1.43-26.76c9.99-9.38,27.97-5.49,41.43-2.61c17.92,3.83,35.56,8.98,52.63,15.37
						c8.27,3.09,16.43,6.46,24.38,10.15c6.78,3.15,13.45,6.68,19.1,11.23c5.96,4.81,10.5,10.73,11.7,17.48
						c1.07,5.98-0.35,12.43-6.08,16.05c-0.65,0.41-1.48,1.38-1.02,2.14c0.48,0.79,1.66,0.38,2.22,0.03
						c11.77-7.42,10.57-22.6,1.87-32.65c-4.86-5.62-11.44-9.99-18.39-13.65c-7.86-4.14-16.19-7.65-24.53-10.97
						c-18.13-7.22-36.96-13.03-56.13-17.32c-15.08-3.38-34.13-7.87-46.59,1.08c-9.28,6.67-13.08,18.81-7.65,29
						c0.66,1.24,1.46,2.42,2.38,3.55C881.23,393.1,884.25,390.73,883.29,389.54L883.29,389.54z"/>
				</g>
			</g>
			<g>
				<g>
					<path d="M911.48,354.43c-11.88-9.6-28.81-14.04-44.36-15.14c-16.23-1.14-32.18,2.13-45.6,8.81
						c-7.79,3.88-14.73,8.84-20.41,14.72c-0.46,0.47-1.17,1.48-0.39,2.08c0.74,0.57,1.96-0.08,2.41-0.54
						c9.51-9.86,22.7-16.95,37.59-20.26c14.64-3.25,30.72-2.47,45.65,1.91c8.14,2.39,15.97,5.91,22.31,11.04
						C910,358.11,912.83,355.52,911.48,354.43L911.48,354.43z"/>
				</g>
			</g>
			<g>
				<g>
					<path d="M815.54,350.85c-13.69-4.33-28.69-8.74-42.94-6.65c-4.49,0.66-9.01,2-12.56,4.29c-2.07,1.33-3.9,2.93-5.61,4.58
						c-4.69,4.54-8.62,9.66-12.27,14.85c-4.79,6.82-9.07,13.92-13.03,21.14c-8.9,16.23-16.26,33.22-21.48,50.74
						c-2.46,8.25-4.43,16.65-5.47,25.19c-0.89,7.34-1.17,14.89,0.19,22.36c1.13,6.18,3.23,13.28,9.39,17.62
						c4.51,3.17,10,5.34,15.32,7.23c5.56,1.97,11.24,3.61,16.91,5.28c2.27,0.67,4.54,1.35,6.79,2.1c1.6,0.54,4.04-2.3,2.16-2.93
						c-10.53-3.54-21.5-5.94-31.59-10.52c-4.17-1.9-8.8-4.37-11.07-8.01c-1.57-2.52-2.69-5.23-3.47-7.95
						c-1.93-6.71-2.18-13.64-1.74-20.35c0.53-8.17,2.08-16.22,4.13-24.12c4.48-17.29,11.36-34.03,19.61-50.08
						c6.76-13.16,14.38-26.37,24.55-37.8c0.4-0.45-0.25,0.28,0.15-0.16c0.12-0.13,0.24-0.27,0.36-0.4c0.2-0.21,0.4-0.43,0.6-0.64
						c0.5-0.53,1.01-1.05,1.53-1.57c0.83-0.83,1.7-1.63,2.6-2.4c0.22-0.18,0.44-0.36,0.65-0.55c0.11-0.09,0.22-0.17,0.32-0.26
						c-0.44,0.35-0.07,0.05,0.02-0.01c0.41-0.31,0.82-0.61,1.25-0.9c0.36-0.24,0.73-0.48,1.1-0.7c0.13-0.08,0.82-0.44,0.25-0.14
						c0.22-0.11,0.44-0.22,0.66-0.33c11.99-5.61,27.52-2.61,40.51,1c3.36,0.93,6.7,1.96,10.02,3.01
						C814.99,354.29,817.41,351.44,815.54,350.85L815.54,350.85z"/>
				</g>
			</g>
		</g>
		<g id="Ebene_7_1_">
			<g class="st8">
				<path d="M775.58,455.46c-11.74,10.15-27.43,42.45-24.34,57.09c3.09,14.65,10.97,34.89,22.67,46.61
					c12.79,12.82,14.97,23.08,14.82,37.74c-0.43,41.72-24.03,91.41-16.7,115.11c1.27,4.12,8.06,6.53,11.69,9.63
					s33.42,3.96,30.99,0.16c-23.94-37.61-16.08-77.27-10.64-114.87c6.9-47.73-46.68-89.64-28.28-152.96"/>
				<g>
					<path d="M774.57,454.69c-6.66,5.81-11.16,13.53-15.03,20.9c-4.4,8.37-8.09,17.29-9.75,26.52c-0.64,3.56-1.03,7.31-0.32,10.97
						c1.01,5.23,2.62,10.45,4.45,15.57c3.88,10.83,9.19,22.03,17.88,31.1c4.15,4.33,7.99,8.7,10.63,13.77
						c2.34,4.51,3.59,9.24,4.15,14.02c1.28,11.06,0,22.2-1.74,32.97c-3.59,22.15-10.71,43.54-14.42,65.65
						c-1.33,7.93-2.47,16.35-0.65,24.5c0.44,1.99,1.03,3.77,2.66,5.4c1.9,1.89,4.47,3.24,6.81,4.7c1.52,0.95,2.83,2.27,4.54,2.95
						c1.32,0.53,2.79,0.8,4.2,1.04c4.19,0.7,8.45,0.98,12.66,1.06c3.79,0.07,7.81,0.08,11.44-0.72c1.32-0.29,2.62-0.74,3.53-1.59
						c1.24-1.17,1.08-2.22,0.22-3.6c-3.48-5.58-6.37-11.38-8.65-17.31c-8.86-23.04-7.95-47.02-5.09-70.04
						c0.71-5.68,1.53-11.34,2.37-16.99c0.74-4.98,1.66-9.95,1.89-15c0.37-8.15-0.87-16.37-3.12-24.47
						c-4.73-17.02-13.23-33.32-19.68-50c-7.2-18.63-11.52-37.81-9.26-56.84c0.63-5.31,1.73-10.55,3.21-15.68
						c0.22-0.78-0.6-1.23-1.42-1.08c-1.02,0.18-1.75,1.05-1.98,1.85c-5.51,19.12-4.78,39.11,1.05,58.86
						c5.06,17.11,13.37,33.52,19.88,50.33c3.03,7.83,5.61,15.78,6.95,23.85c0.67,4.02,1.02,8.06,0.99,12.08
						c-0.04,4.59-0.78,9.07-1.44,13.58c-3.33,22.5-6.9,45.33-3.59,68.42c1.66,11.57,5.14,23.11,10.88,34
						c0.73,1.38,1.49,2.75,2.28,4.11c0.4,0.69,0.81,1.37,1.23,2.05c0.18,0.29,0.56,1.27,0.85,1.38c-0.19-0.07,0.05-0.58,0.21-0.81
						c0.15-0.22,0.31-0.43,0.56-0.45c-0.66,0.05-0.58,0.26-1.33,0.42c-3.45,0.75-7.3,0.69-10.91,0.61
						c-4.05-0.09-8.18-0.32-12.2-1.06c-1.27-0.23-2.69-0.49-3.86-1.05c-0.26-0.12-0.95-0.69-1.37-1.01
						c-1.15-0.86-2.4-1.61-3.64-2.36c-2.16-1.32-4.67-2.7-6.11-4.64c-1.11-1.5-1.37-3.4-1.65-5.08c-0.64-3.78-0.66-7.58-0.4-11.33
						c0.64-9.58,2.77-18.97,4.96-28.27c2.58-10.97,5.45-21.88,7.85-32.89c2.42-11.11,4.42-22.36,4.99-33.77
						c0.49-9.7,0.39-19.85-4.28-29.26c-2.42-4.89-5.97-9.37-10-13.51c-4.23-4.33-7.67-8.98-10.57-13.98
						c-5.93-10.23-9.97-21.25-12.36-32.23c-1.7-7.82,0.9-15.97,3.55-23.16c3.22-8.71,7.48-17.21,13.01-24.95
						c2.03-2.84,4.23-5.62,6.96-8c0.5-0.44,1.14-1.5,0.39-2.08C776.21,453.56,775.06,454.26,774.57,454.69L774.57,454.69z"/>
				</g>
			</g>
			<g class="st8">
				<path d="M762.77,348.4c-34.65,30.68-52.35,75.05-58.37,118.21c-1.19,8.57,0.18,19.42,3.37,27.92
					c3.19,8.5,24.98,17.08,35.39,20.94C731.04,457.44,731.88,397.2,762.77,348.4"/>
				<g>
					<path d="M761.76,347.63c-11.05,9.81-20.39,20.94-28.12,32.84c-7.87,12.14-14.15,25.05-19.04,38.38
						c-4.86,13.24-8.4,26.89-10.76,40.75c-1.18,6.92-1.99,13.76-1.21,20.88c0.38,3.53,1.05,7.06,2.04,10.55
						c0.71,2.5,1.36,5.12,3.16,7.33c3.38,4.16,8.67,7.18,13.7,9.76c5.49,2.82,11.24,5.25,17.06,7.48c1.16,0.45,2.32,0.88,3.49,1.32
						c1.3,0.48,3.01-1.21,2.8-2.21c-4.68-22.48-7.44-45.16-7.25-67.67c0.19-22.11,3.29-44.15,10.54-64.98
						c4.02-11.56,9.3-22.74,15.95-33.28c0.34-0.54,0.72-1.51-0.26-1.86c-0.9-0.32-2.07,0.51-2.42,1.07
						c-12.05,19.1-19.75,40.12-23.73,61.88c-4.03,22.08-4.37,44.81-2.23,67.45c1.23,12.97,3.28,25.95,5.97,38.86
						c0.93-0.74,1.87-1.47,2.8-2.21c-5.29-1.96-10.53-4.04-15.62-6.39c-5.42-2.51-10.98-5.35-15.34-9.14
						c-1.65-1.43-3.09-3.03-3.85-4.9c-1.31-3.23-2.09-6.62-2.69-9.94c-1.27-6.98-1.21-13.76-0.16-20.6
						c2.07-13.54,5.22-26.91,9.67-39.89c4.46-13.02,10.16-25.71,17.44-37.66c7.16-11.77,15.81-22.86,26.17-32.72
						c1.28-1.22,2.59-2.42,3.92-3.6c0.5-0.44,1.14-1.5,0.39-2.08C763.39,346.5,762.24,347.2,761.76,347.63L761.76,347.63z"/>
				</g>
			</g>
			<g class="st8">
				<path d="M881.78,344.08c-14.56-1.01-28.87,1.63-42.05,5.92c-13.18,4.29-25.4,10.18-37.64,15.95
					c15.07-19.76,46.63-29.08,75.08-22.17"/>
				<g>
					<path d="M882.48,342.56c-23.08-1.54-44.43,5.68-63.7,14.24c-5.68,2.52-11.26,5.18-16.86,7.81c0.5,0.57,1,1.14,1.51,1.71
						c11.41-14.84,32.38-23.36,54.06-23.31c6.23,0.01,12.48,0.75,18.6,2.21c1.67,0.4,4.02-2.49,2.16-2.93
						c-22.96-5.51-47.66-0.83-64.82,11.22c-4.92,3.46-9.2,7.5-12.69,12.03c-0.77,1-0.06,2.45,1.51,1.71
						c18.93-8.91,38.18-18.31,60.42-21.12c6.03-0.76,12.22-0.96,18.41-0.55C882.71,345.71,884.73,342.71,882.48,342.56
						L882.48,342.56z"/>
				</g>
			</g>
			<g class="st8">
				<path d="M889.48,360.37c10.88,19.82,101.41,38.68,136.39,68.53c-34.02-13.12-84.79-29.53-121.01-35.16
					c-5.78-0.9-22.54-1.82-22.54-1.82s-4.61-8.47-5.68-13.31c-1.75-7.94,5.89-14.32,12.78-19.93"/>
				<g>
					<path d="M887.86,361.43c2.86,5.13,9.13,8.83,14.64,11.81c8.46,4.58,17.52,8.3,26.55,11.9c22.03,8.79,44.6,16.65,65.85,26.91
						c10.52,5.08,20.95,10.83,29.57,18.16c0.83-0.92,1.65-1.85,2.48-2.77c-20.17-7.77-40.75-14.76-61.56-20.95
						c-10.91-3.24-21.9-6.26-32.99-8.89c-9.39-2.23-18.99-4.45-28.57-5.6c-6.92-0.83-13.9-1.21-20.82-1.59
						c0.31,0.15,0.61,0.31,0.92,0.46c-2.23-4.1-4.56-8.49-5.56-12.86c-1.8-7.9,6.22-13.81,12.04-18.55
						c0.52-0.42,1.13-1.51,0.39-2.08c-0.79-0.6-1.9,0.13-2.41,0.54c-6.45,5.26-14.72,11.83-13.66,20.42
						c0.38,3.11,1.87,6.26,3.24,9.21c0.85,1.83,1.75,3.64,2.72,5.43c0.17,0.32,0.54,0.44,0.92,0.46c6.08,0.33,12.18,0.72,18.26,1.31
						c9.05,0.89,18.13,2.95,27,4.99c22.03,5.06,43.72,11.61,65.06,18.8c11.04,3.72,22.01,7.65,32.85,11.83
						c1.43,0.55,3.7-1.74,2.48-2.77c-7.58-6.44-16.58-11.64-25.75-16.27c-10.48-5.3-21.38-9.92-32.37-14.32
						c-10.98-4.4-22.07-8.56-33.09-12.87c-9.38-3.68-18.82-7.41-27.74-11.92c-3.84-1.94-7.62-4.04-11.01-6.52
						c-2.49-1.83-4.82-3.87-6.21-6.36C890.26,357.81,887.12,360.09,887.86,361.43L887.86,361.43z"/>
				</g>
			</g>
			<g class="st8">
				<path d="M871.23,394.21c-10.01,4-15.48,17.22-11.83,24.89c3.65,7.67,11.49,24.41,20.92,23.43c8.98-0.94,24.02,3.39,33.64,4.1
					c42.7,3.17,74.35,28.71,114.43,46.42c-1.85-14.32-34.84-39.22-50.75-45.07c-38.04-13.97-80.44-26.2-105.17-54.2"/>
				<g>
					<path d="M871.07,392.89c-5.96,2.45-10.12,7.26-12.45,12.39c-2.07,4.57-3.07,10.05-0.78,14.99c2.34,5.06,4.87,10.15,8.24,14.85
						c2.69,3.75,6.79,8.78,12.51,8.97c1.47,0.05,2.92-0.19,4.39-0.16c1.79,0.03,3.59,0.18,5.39,0.39c3.92,0.45,7.8,1.18,11.69,1.87
						c3.66,0.66,7.33,1.33,11.02,1.76c4.24,0.49,8.46,0.76,12.68,1.47c17.42,2.9,33.77,9.65,49.22,17.39
						c16.09,8.06,31.53,17.07,47.87,24.76c2.14,1.01,4.3,1.99,6.47,2.96c1.32,0.58,2.93-1.27,2.8-2.21
						c-0.52-3.75-2.64-7.35-5.04-10.6c-3.09-4.18-6.85-8.06-10.83-11.7c-8.08-7.4-17.32-14.25-27.36-19.68
						c-4.55-2.46-9.29-4.23-14.22-6.01c-7.02-2.53-14.06-5-21.07-7.54c-13.82-5.02-27.61-10.31-40.57-16.94
						c-14.13-7.23-27.19-16.14-37.15-27.35c-1.02-1.15-3.95,1.33-2.8,2.62c17.95,20.22,45.18,32.28,71.77,42.19
						c6.86,2.56,13.77,5,20.67,7.46c5.72,2.04,11.68,3.85,17.13,6.44c9.91,4.69,18.95,11.27,26.96,18.06
						c4.71,3.99,9.22,8.25,12.95,12.9c2.8,3.5,5.55,7.49,6.13,11.64c0.93-0.74,1.87-1.47,2.8-2.21
						c-16.23-7.19-31.47-15.89-47.09-24.03c-14.73-7.67-30.02-14.88-46.5-19c-4.19-1.05-8.43-1.89-12.71-2.5
						c-3.89-0.56-7.78-0.76-11.67-1.27c-7.42-0.96-14.73-2.75-22.17-3.56c-1.71-0.19-3.44-0.32-5.15-0.34
						c-1.41-0.02-2.8,0.21-4.2,0.17c-2.34-0.07-4.42-1.45-6.04-2.83c-4.54-3.87-7.38-9.17-9.9-14.01c-1.13-2.18-2.3-4.4-3.23-6.63
						c-0.91-2.2-0.97-4.59-0.66-6.8c0.71-4.97,3.32-10.02,7.72-13.27c1.07-0.79,2.24-1.44,3.53-1.98c0.81-0.33,1.71-1.22,1.55-2.06
						C872.79,392.61,871.78,392.59,871.07,392.89L871.07,392.89z"/>
				</g>
			</g>
			<g class="st8">
				<path d="M873.72,442.53c-21.5-1.91-29.84,12.24-28.6,24.6c0.79,7.9,10,19.32,18.53,23.24c6.06,2.79,14.04,1.06,20.74,1.37
					c41.62,1.93,96.34,30.14,127.35,55.36c4.72,3.84-12.59-26.24-34.93-38.87c-28.25-15.97-93.78-16.98-101.05-61.79"/>
				<g>
					<path d="M874.42,441.01c-7.58-0.64-15.11,0.66-20.82,4.57c-4.99,3.41-8.17,8.31-9.56,13.66c-1.49,5.75-0.76,11.6,2.46,17.17
						c1.97,3.4,4.56,6.63,7.57,9.49c2.7,2.56,5.98,5.13,9.76,6.45c4.53,1.58,9.54,1.18,14.16,0.98c4.32-0.19,8.6,0.03,12.96,0.51
						c8.46,0.95,16.86,2.82,25.04,5.16c17.99,5.15,35.22,12.65,51.42,21.31c7.96,4.26,15.7,8.84,23.16,13.72
						c3.54,2.32,7.03,4.72,10.43,7.19c3.19,2.32,6.14,4.9,9.36,7.18c1.62,1.14,3.61,0.01,3.88-1.53c0.18-1.06-0.56-2.32-1.07-3.3
						c-2.32-4.48-5.46-8.76-8.7-12.86c-8.32-10.51-18.59-20.72-32.06-26.7c-10.68-4.74-22.3-7.64-33.55-10.99
						c-12.13-3.61-24.46-7.52-35.35-13.64c-10.93-6.14-19.57-14.53-23.66-24.96c-1.12-2.86-1.86-5.79-2.35-8.74
						c-0.31-1.86-3.66,0.11-3.43,1.49c1.8,10.84,7.56,20.94,17.42,28.72c9.2,7.25,20.71,12.07,32.16,15.96
						c11.46,3.89,23.24,6.85,34.73,10.63c4.92,1.62,9.85,3.38,14.45,5.66c6.33,3.13,11.85,7.42,16.76,12
						c5.2,4.84,9.81,10.12,13.91,15.62c2.62,3.52,5.35,7.23,7.02,11.11c0.1,0.23,0.2,0.45,0.27,0.68c-0.15-0.45,0.07,0.3,0.05,0.3
						c-0.38-0.12,2.48-2.09,2.47-1.94c0-0.07,0.32,0.28,0.09,0.03c-0.09-0.09-0.27-0.21-0.37-0.28c-3.01-2.32-5.96-4.69-9.05-6.94
						c-6.66-4.84-13.61-9.39-20.77-13.68c-15.21-9.1-31.42-17.14-48.36-23.46c-15.53-5.8-32.1-10.38-48.75-11.32
						c-4.71-0.26-9.31,0.35-14.01,0.17c-4.39-0.17-7.97-1.51-11.39-3.99c-6.25-4.52-11.74-11.3-13.45-17.97
						c-2.55-9.95,3.17-21.12,14.84-23.84c3.52-0.82,7.24-0.91,10.96-0.6C874.65,444.18,876.68,441.2,874.42,441.01L874.42,441.01z"
						/>
				</g>
			</g>
			<g class="st8">
				<path d="M848.65,494.66c-10.95,4.51-18.38,19.98-12.94,27.83c3.07,4.43,12.89,10.96,18.42,13.09
					c33.01,12.72,52.11,13.81,85.12,26.53c-20.08-9.06-67.74-27.04-89.02-66.22"/>
				<g>
					<path d="M848.49,493.34c-7.7,3.25-12.94,10.07-15.21,16.98c-1.03,3.15-1.59,6.64-0.65,9.99c0.95,3.37,3.61,5.98,6.59,8.38
						c3.56,2.87,7.57,5.46,11.84,7.5c2.5,1.19,5.2,2.1,7.83,3.05c2.98,1.08,5.98,2.11,8.99,3.1c10.54,3.46,21.29,6.25,32.03,9.12
						c12.98,3.46,25.78,7.33,38.26,12.12c1.55,0.6,3.99-2.11,2.16-2.93c-10.97-4.95-22.06-9.61-32.6-15.26
						c-14.27-7.65-27.66-16.73-38.6-27.68c-6.97-6.98-12.81-14.67-17.28-22.86c-0.82-1.51-3.97,0.78-3.23,2.12
						c7.79,14.27,19.75,26.81,33.99,37.17c11.87,8.64,25.14,15.74,38.82,22.02c5.55,2.54,11.18,4.93,16.75,7.44
						c0.72-0.98,1.44-1.95,2.16-2.93c-10.73-4.12-21.71-7.61-32.85-10.66c-9.97-2.74-20.02-5.23-29.92-8.21
						c-5.56-1.68-11.07-3.49-16.52-5.47c-4.74-1.72-9.1-3.48-13.27-6.13c-3.59-2.28-7.44-4.93-9.97-8.09
						c-1.97-2.47-2.43-5.4-2.12-8.17c0.78-7.06,5.56-14.73,13.12-17.92c0.81-0.34,1.71-1.22,1.55-2.06
						C850.21,493.07,849.2,493.04,848.49,493.34L848.49,493.34z"/>
				</g>
			</g>
			<g class="st8">
				<path d="M879.58,581.51c-2.73,1.86-1.8,5.92,0.92,8.15c2.72,2.23,6.53,3.1,10.14,3.88c22.46,4.83,44.91,9.67,67.37,14.5
					c8.72,1.88,17.63,3.77,26.4,3.24c8.76-0.53,17.51-3.92,21.28-10.36c-42.2-3.05-84.36-10.02-125.45-20.74"/>
				<g>
					<path d="M878.98,580.42c-2.9,2.15-3.62,5.62-1.54,8.72c2.25,3.34,6.85,4.7,10.93,5.61c10.84,2.43,21.72,4.68,32.58,7.02
						c10.94,2.36,21.88,4.71,32.83,7.07c10.06,2.17,20.54,4.74,30.77,3.91c9.21-0.74,18.29-4.48,22.48-11.42
						c0.4-0.66,0.72-1.81-0.64-1.91c-32.76-2.38-65.48-7.11-97.71-14.14c-9.16-2-18.28-4.19-27.36-6.55
						c-1.65-0.43-4.03,2.45-2.16,2.93c32.16,8.37,64.94,14.46,97.91,18.2c9.3,1.05,18.61,1.91,27.92,2.59
						c-0.21-0.64-0.43-1.27-0.64-1.91c-3.24,5.39-10.04,8.2-17.12,9.05c-9.1,1.09-18.58-0.96-27.6-2.9
						c-19.78-4.25-39.56-8.52-59.34-12.77c-2.85-0.62-5.71-1.23-8.56-1.84c-2.28-0.5-4.59-1-6.74-1.9
						c-1.97-0.82-3.74-2.05-4.66-3.75c-0.54-1-1.23-3.02-0.14-3.83c0.61-0.46,1.5-1.35,1.02-2.14
						C880.74,579.69,879.5,580.03,878.98,580.42L878.98,580.42z"/>
				</g>
			</g>
			<g class="st8">
				<g>
					<path d="M728.28,514.19c1.68,0.35,4-2.54,2.16-2.93C728.77,510.91,726.43,513.8,728.28,514.19L728.28,514.19z"/>
				</g>
			</g>
		</g>
		<g id="Ebene_8">
			<g class="st8">
				<g>
					<path class="st5" d="M961.24,382.15c-2.11-0.35-0.12-0.02,0.34,0.07c0.59,0.11,1.17,0.22,1.75,0.34c1,0.2,2,0.42,2.99,0.65
						c0.49,0.12,0.99,0.25,1.49,0.36c-1.99-0.43-0.39-0.09,0.08,0.03c1.07,0.29,2.13,0.59,3.19,0.91c1.04,0.31,2.14,0.61,3.15,1
						c-1.64-0.64-0.02,0,0.25,0.09c0.48,0.17,0.96,0.34,1.43,0.52c2.06,0.77,4.09,1.6,6.1,2.48c1.54,0.67-1.06-0.51,0.45,0.21
						c0.46,0.21,0.91,0.43,1.37,0.65c0.98,0.48,1.95,0.96,2.92,1.47c1.85,0.97,3.67,1.99,5.44,3.06c0.43,0.26,0.85,0.52,1.27,0.78
						c-0.55-0.34,0.71,0.45,0.84,0.55c0.9,0.59,1.78,1.19,2.65,1.8c1.74,1.23,3.44,2.51,5.08,3.83c2.37,1.91,6.61,2.75,9.67,2.81
						c1.53,0.03,5.61-0.32,3.17-2.29c-15.78-12.71-35.81-20.67-56.61-24.12c-1.13-0.19-6.66-0.62-5.55,1.49
						c0.48,0.9,2.09,1.57,3.04,1.93C957.53,381.46,959.36,381.84,961.24,382.15L961.24,382.15z"/>
				</g>
			</g>
			<g class="st8">
				<g>
					<path class="st5" d="M967.11,421.64c-2.23-0.37-0.23-0.04,0.32,0.07c0.6,0.11,1.19,0.23,1.78,0.36
						c0.59,0.13,1.19,0.25,1.78,0.39c0.29,0.07,0.59,0.14,0.89,0.21c0.99,0.23-0.27-0.06-0.57-0.15c1.17,0.33,2.34,0.62,3.5,0.96
						c0.58,0.17,1.16,0.35,1.74,0.53c0.29,0.09,0.58,0.18,0.86,0.28c0.23,0.07,1.47,0.54,0.45,0.15c-1.01-0.39,0.62,0.23,0.87,0.32
						c0.57,0.21,1.13,0.42,1.69,0.63c1.2,0.46,2.38,0.94,3.55,1.45c0.27,0.12,0.55,0.24,0.83,0.36c0.18,0.08,1.07,0.48,0.33,0.15
						c-0.73-0.33,0.15,0.07,0.33,0.16c0.27,0.13,0.54,0.25,0.81,0.39c1.15,0.55,2.28,1.12,3.4,1.71c4.61,2.44,7.26,4.11,11.3,7.13
						c3.71,2.77,7.28,5.88,10.33,9.07c3.44,3.6,6.54,7.66,9.09,11.79c0.54,0.88,2.07,1.54,3.04,1.93c1.68,0.67,3.69,1.17,5.49,1.37
						c1,0.11,6.83,0.58,5.55-1.49c-10.33-16.69-28.47-29.97-49.02-37.13c-6.95-2.42-14.04-4.18-21.32-5.4
						c-1.13-0.19-6.66-0.62-5.55,1.49c0.48,0.9,2.09,1.57,3.04,1.93C963.4,420.94,965.23,421.32,967.11,421.64L967.11,421.64z"/>
				</g>
			</g>
			<g class="st8">
				<g>
					<path class="st5" d="M935.88,461.17c1.38,0.39,2.76,0.79,4.14,1.21c0.76,0.23,1.52,0.48,2.28,0.72c0.3,0.1,0.61,0.2,0.91,0.3
						c1.58,0.52-1.43-0.5,0.14,0.04c2.78,0.97,5.53,2,8.25,3.12c1.32,0.54,2.63,1.1,3.94,1.68c0.36,0.16,0.72,0.32,1.08,0.48
						c-0.19-0.08-1.09-0.5-0.09-0.04c0.72,0.33,1.43,0.67,2.14,1.01c2.7,1.3,5.36,2.67,7.96,4.12c1.23,0.68,2.46,1.38,3.66,2.1
						c0.61,0.36,1.21,0.72,1.81,1.08c0.33,0.2,0.66,0.41,1,0.61c0.14,0.09,1.25,0.79,0.55,0.34c2.36,1.5,4.67,3.07,6.92,4.69
						c4.75,3.42,9.25,7.09,13.45,10.98c4.54,4.2,8.67,8.67,12.43,13.36c1.7,2.12,5.79,2.99,8.53,3.3c0.78,0.09,7.1,0.45,5.55-1.49
						c-14.78-18.49-35.4-33.41-58.93-43.44c-6.8-2.9-13.86-5.35-21.03-7.36c-1.8-0.5-3.71-0.89-5.57-0.96
						c-0.94-0.03-2.81-0.06-3.56,0.54C929.52,459.08,934.97,460.92,935.88,461.17L935.88,461.17z"/>
				</g>
			</g>
			<g class="st8">
				<g>
					<path class="st5" d="M923.22,523.57c0.71,0.11,1.66,0.39,2.37,0.38c-0.14,0-1.79-0.32-0.51-0.08c0.31,0.06,0.63,0.11,0.94,0.17
						c1.57,0.29,3.14,0.61,4.7,0.96c0.78,0.17,1.56,0.35,2.34,0.54c0.31,0.08,0.62,0.15,0.93,0.23c1.3,0.32-0.42-0.06-0.5-0.12
						c0.39,0.29,1.81,0.48,2.32,0.61c0.77,0.21,1.54,0.43,2.3,0.65c1.38,0.4,2.75,0.83,4.11,1.27c0.3,0.1,0.61,0.2,0.91,0.3
						c0.11,0.03,1.59,0.56,0.52,0.17c-1.07-0.39,0.42,0.15,0.52,0.19c0.45,0.16,0.9,0.32,1.35,0.48c2.84,1.03,5.64,2.15,8.4,3.36
						c0.58,0.25,1.16,0.51,1.74,0.77c-1.16-0.53-0.17-0.07,0.12,0.06c0.36,0.17,0.72,0.34,1.07,0.5c1.35,0.65,2.7,1.31,4.03,1.99
						c2.66,1.37,5.26,2.81,7.81,4.33c0.6,0.36,1.2,0.72,1.8,1.09c0.27,0.16,0.53,0.33,0.79,0.49c-0.66-0.42,0.18,0.12,0.34,0.22
						c1.24,0.8,2.46,1.61,3.67,2.45c2.41,1.67,4.76,3.41,7.03,5.21c5.02,3.99,9.69,8.3,13.86,12.92c1.89,2.09,5.65,2.98,8.53,3.3
						c1.46,0.16,3.12,0.35,4.49-0.05c0.61-0.18,1.72-0.71,1.06-1.44c-16.85-18.65-40.26-32.59-66.12-40.41
						c-7.82-2.37-15.82-4.11-23.91-5.34c-1.13-0.17-6.66-0.63-5.55,1.49c0.48,0.9,2.09,1.57,3.04,1.93
						C919.51,522.87,921.34,523.28,923.22,523.57L923.22,523.57z"/>
				</g>
			</g>
			<g class="st8">
				<g>
					<path class="st5" d="M835.89,363.77c3.47-1.75,7.26-3.03,11.26-3.87c2.24-0.47,3.02-0.58,5.34-0.78
						c1.11-0.1,2.23-0.15,3.35-0.19c1.6-0.05-1.2-0.04,0.4,0c0.64,0.01,1.29,0.03,1.93,0.05c1.45,0.06,5.62-0.39,3.17-2.29
						c-2.43-1.88-6.6-2.69-9.67-2.81c-10.52-0.41-20.69,1.48-29.4,5.86c-0.85,0.43-0.08,1.36,0.39,1.75
						c1.01,0.85,2.81,1.49,4.09,1.85C829.45,364.11,833.39,365.02,835.89,363.77L835.89,363.77z"/>
				</g>
			</g>
			<g class="st8">
				<g>
					<path class="st5" d="M783.88,359.04c1.95,0.09,3.9,0.19,5.84,0.28c0.91,0.04,2.83,0.06,3.56-0.54
						c0.67-0.55,0.27-1.24-0.39-1.75c-2.45-1.89-6.58-2.66-9.67-2.81c-1.95-0.09-3.9-0.19-5.84-0.28c-0.91-0.04-2.83-0.06-3.56,0.54
						c-0.67,0.55-0.27,1.24,0.39,1.75C776.66,358.12,780.79,358.89,783.88,359.04L783.88,359.04z"/>
				</g>
			</g>
			<g class="st8">
				<g>
					<path class="st5" d="M849.14,584.37c-2.26,15.89-5.03,31.69-8.33,47.39c-1.66,7.93-3.46,15.82-5.39,23.69
						c-1.66,6.78-3.28,13.62-5.88,20.15c-2.74,6.9-6.67,13.36-13.05,18.24c-1.92,1.47,3.42,3.3,4.48,3.6
						c1.8,0.51,3.71,0.92,5.57,0.96c1.12,0.02,2.71,0.11,3.56-0.54c11.83-9.04,15.57-22.94,18.81-35.88
						c3.94-15.72,7.35-31.56,10.23-47.5c1.62-9,3.08-18.03,4.36-27.08c0.12-0.8-1.14-1.54-1.79-1.91c-1.44-0.79-3.33-1.35-4.95-1.67
						c-1.68-0.33-3.52-0.65-5.2-0.46C850.78,583.44,849.25,583.54,849.14,584.37L849.14,584.37z"/>
				</g>
			</g>
		</g>
	</g>
</g>
</svg>
