<?xml version="1.0" encoding="utf-8"?>
<!-- Generator: Adobe Adobe Illustrator 24.2.0, SVG Export Plug-In . SVG Version: 6.00 Build 0)  -->
<svg version="1.1" xmlns="http://www.w3.org/2000/svg" xmlns:xlink="http://www.w3.org/1999/xlink" x="0px" y="0px"
	 viewBox="0 0 1700.79 1700.79" style="enable-background:new 0 0 1700.79 1700.79;" xml:space="preserve">
<style type="text/css">
	.st0{fill:#CCCCCC;}
	.st1{fill:#3D4D5A;}
	.st2{fill:#EBF0F2;}
	.st3{stroke:#000000;stroke-width:1.3068;stroke-miterlimit:10;}
	.st4{stroke:#000000;stroke-width:0.3392;stroke-miterlimit:10;}
	.st5{fill:#FFFFFF;stroke:#FFFFFF;stroke-width:0.4472;stroke-miterlimit:10;}
	.st6{fill:#FFFFFF;stroke:#FFFFFF;stroke-width:0.1277;stroke-miterlimit:10;}
	.st7{opacity:0.149;}
	.st8{fill:#FFFFFF;}
	.st9{fill:#DFB2AD;}
	.st10{fill:#E8B1C9;stroke:#E8B1C9;stroke-width:0.9104;stroke-miterlimit:10;}
	.st11{fill:#C9316B;}
	.st12{fill:#F4F5E8;}
	.st13{fill:#6379B8;}
	.st14{fill:#F3C057;stroke:#000000;stroke-width:3.1187;stroke-miterlimit:10;}
	.st15{fill:#C8316B;}
	.st16{fill:#6478B7;}
	.st17{fill:#6378B7;}
</style>
<g id="Ebene_7">
	<g>
		<path class="st0" d="M598.08,1039.36c21.07,27.48,35.93,68.15,60.94,93.81c20.3-19.33,94.34-72.33,124.03-82.05
			c-12.71-20.88-26.86-41.46-42.33-61.56c-3.18-4.13-33.18-33.08-38.3-35.26c-7.83-3.33,35.93-8.94-50.81,73.98"/>
		<g>
			<path class="st0" d="M593.29,1042.16c22.88,30.16,35.3,67.36,61.8,94.93c2.12,2.2,5.7,2.03,7.85,0
				c12.73-12.04,27.19-22.42,41.41-32.6c17.98-12.88,36.42-25.31,55.67-36.23c7.85-4.45,15.91-8.92,24.5-11.8
				c3.31-1.11,5.27-4.95,3.32-8.15c-8.61-14.09-17.71-27.87-27.31-41.31c-6.29-8.81-12.41-18.05-20-25.81
				c-6.2-6.33-12.64-12.45-19.17-18.44c-4.75-4.36-10.08-10.39-16.01-13.19c-0.78-0.37-0.36-0.46-0.18,0.03
				c0.38,1.07,1.81,1.73,1.81,3.81c0,1.97-1.06,3.43-2.44,4.34c0.31-0.2-1.75,0.69-0.78,0.37c-0.64,0.21-2.13,0.02-1.41,0.12
				c0,0-1.54-0.7-0.82-0.37c0.26,0.12-1.27-1.01-0.26-0.22c0.12,0.09-0.11-1.06-0.26-0.58c-0.01,0.04,0.15,0.66,0.17,0.67
				c-0.55-0.23,0.34-1.2-0.06,0.12c-0.52,1.73,0.23-0.4-0.04,0.81c-0.99,4.32-1.97,6.13-4.44,10.32
				c-12.44,21.01-31.49,38.64-48.94,55.36c-5.17,4.95,2.69,12.79,7.85,7.85c17.88-17.14,36.88-35.17,49.97-56.44
				c3.92-6.38,9.65-16.55,5.14-24.04c-2.97-4.94-12.56-6.99-14.55,0.09c-1.23,4.37,2.17,6.31,5.18,8.29
				c6.79,4.46,13.71,11.79,19.92,17.7c7.97,7.59,15.2,15.04,21.77,23.87c12.55,16.87,24.32,34.31,35.29,52.25
				c1.11-2.72,2.21-5.43,3.32-8.15c-17.83,5.96-34.31,16.73-50.01,26.82c-19.08,12.26-37.64,25.37-55.56,39.26
				c-7.16,5.54-14.32,11.17-20.9,17.4c2.62,0,5.23,0,7.85,0c-25.78-26.81-37.79-63.32-60.07-92.69
				C598.61,1030.94,588.97,1036.47,593.29,1042.16L593.29,1042.16z"/>
		</g>
	</g>
</g>
<g id="Ebene_2">
	<g>
		<defs>
			<path id="SVGID_1_" d="M244.64,948.48c67.9,85.36,190.06,103.81,289.8,66.62c395.19-147.34,288.67-823.55-129.99-664.79
				C189.38,431.88,97.48,744.99,258.37,943.74"/>
		</defs>
		<clipPath id="SVGID_2_">
			<use xlink:href="#SVGID_1_"  style="overflow:visible;"/>
		</clipPath>
	</g>
	<g>
		<path class="st0" d="M611.67,1069.48C179.65,1220.43-120.2,647.3,308.17,380.65c399.83-248.88,786.1,319.42,438.8,607.07"/>
		<g>
			<path d="M609.86,1062.95c-38.23,13.3-78.09,21.98-118.56,24.13c-36.3,1.93-72.77-1.24-108.06-10.02
				c-33.23-8.26-65.09-21.31-94.57-38.73c-28.58-16.88-54.67-37.7-77.64-61.66c-22.9-23.88-42.5-50.77-58.37-79.79
				c-15.88-29.03-27.85-60.08-35.57-92.26c-7.79-32.48-11.06-65.92-9.66-99.3c1.45-34.42,8.06-68.5,19.39-101.03
				c12.14-34.87,29.87-67.67,51.64-97.46c24.37-33.33,54.09-62.72,86.63-88.06c35.08-27.33,73.89-50.96,115.31-67.32
				c36.26-14.32,74.66-23.3,113.65-25.14c35.81-1.69,71.66,2.5,106.12,12.4c33.53,9.63,65.33,24.52,94.55,43.54
				c29.24,19.04,55.67,42.22,78.82,68.31c23.15,26.09,42.85,55.19,58.7,86.25c15.92,31.19,27.77,64.43,35.02,98.69
				c7.26,34.24,9.66,69.48,6.85,104.38c-2.85,35.4-11.4,70.47-25.25,103.19c-15.05,35.56-36.39,68.4-62.13,97.14
				c-13.75,15.35-28.72,29.57-44.57,42.73c-6.71,5.58,2.92,15.12,9.58,9.58c32.42-26.93,61.04-58.49,83.48-94.22
				c20.19-32.16,35.21-67.66,43.99-104.62c8.41-35.43,11.25-72.19,8.65-108.51c-2.6-36.25-10.33-72.1-22.69-106.26
				c-12.32-34.06-28.97-66.55-49.53-96.37c-20.5-29.74-44.67-56.99-72.12-80.49c-27.3-23.38-57.67-43.24-90.42-58.11
				c-33.39-15.16-68.76-25.15-105.2-29.35c-38.05-4.39-76.73-2-114.1,6.27c-42.03,9.31-82.26,26.2-119.29,48.03
				c-39.28,23.16-76.08,51.3-107.91,83.99c-28.03,28.78-52.34,61.4-70.92,97.06c-16.9,32.44-29.19,67.32-35.87,103.3
				c-6.38,34.39-7.92,69.63-4.35,104.43c3.5,34.2,11.53,67.85,24.03,99.88c12.44,31.88,28.9,62.11,49.2,89.67
				c20.36,27.63,44.17,52.63,71.13,73.9c27.61,21.78,57.95,39.57,90.51,52.89c33.77,13.81,69.54,22.27,105.86,25.6
				c39.22,3.6,78.88,0.84,117.44-7.03c20.3-4.14,40.27-9.76,59.84-16.56C621.65,1073.17,618.13,1060.07,609.86,1062.95
				L609.86,1062.95z"/>
		</g>
	</g>
	<g>
		<g>
			<path d="M605.81,1072.9c16.59,26.52,36,51.16,52.59,77.68c4.61,7.38,16.34,0.58,11.7-6.84c-16.59-26.52-36-51.16-52.59-77.68
				C612.9,1058.69,601.17,1065.48,605.81,1072.9L605.81,1072.9z"/>
		</g>
	</g>
	<g>
		<g>
			<path d="M741.12,991.15c13.03,23.32,28.1,45.42,41.13,68.74c4.26,7.61,15.96,0.79,11.7-6.84c-13.03-23.32-28.1-45.42-41.13-68.74
				C748.56,976.7,736.85,983.52,741.12,991.15L741.12,991.15z"/>
		</g>
	</g>
	<g>
		<path class="st1" d="M718.28,1093.69c-48.52,33.14-72.26,72.45-69.44,121.48c2.82,49.03,28.41,92.51,53.23,133.6
			c44.74,74.05,89.49,148.1,134.23,222.15c8.18,13.53,17.04,27.72,30.69,34.56c25.72,12.87,55.3-5.28,78.87-22.71
			c36.88-27.28,77.44-61.11,80.6-108.77c1.87-28.11-10.16-54.77-22.1-79.73c-49.48-103.39-102.97-204.55-160.29-303.14
			c-8.97-15.42-19.14-31.77-35.13-37.92c-31.08-11.96-60.59,17.39-90.44,39.51"/>
		<g>
			<path d="M714.86,1087.84c-32.58,22.41-61.58,52.62-70.14,92.45c-9.61,44.73,6.39,90.15,27.03,129.38
				c11.64,22.13,24.98,43.34,37.9,64.73c14.11,23.35,28.22,46.71,42.33,70.06c14.11,23.35,28.22,46.71,42.33,70.06
				c13.68,22.64,26.89,45.67,41.16,67.94c11.77,18.38,27.64,34.48,51,34.12c22.84-0.35,43.68-13.96,61.47-26.99
				c32.38-23.73,66.95-51.27,80.39-90.64c16.45-48.2-11.87-95.59-32.41-137.68c-23.26-47.67-47.4-94.9-72.42-141.67
				c-24.69-46.16-49.73-92.34-76.71-137.21c-10.61-17.65-24.29-35.21-46.04-38.21c-21.64-2.99-41.47,9.33-58.16,21.62
				c-9.3,6.85-18.25,14.16-27.52,21.06c-6.92,5.15-0.17,16.92,6.84,11.7c17.25-12.84,33.8-28.55,53.78-37.14
				c8.02-3.45,17.07-5.41,25.72-3.44c9.74,2.22,17.22,8.48,23.42,16.08c6.36,7.81,11.25,16.78,16.28,25.47
				c6.27,10.81,12.49,21.65,18.66,32.52c12.19,21.47,24.2,43.06,36.02,64.74c23.98,44.01,47.19,88.43,69.62,133.25
				c11.09,22.16,21.98,44.41,32.68,66.76c9.98,20.85,20.35,42.8,21.65,66.26c2.27,40.88-26.09,72.6-55.61,97.02
				c-15.64,12.94-32.21,26.01-50.4,35.17c-9.35,4.7-19.71,8.29-30.3,7.74c-9.81-0.51-18.24-5.43-24.92-12.39
				c-7.25-7.55-12.51-16.76-17.89-25.66c-6.71-11.11-13.42-22.21-20.13-33.32c-13.25-21.93-26.5-43.86-39.75-65.79
				c-26.37-43.63-52.94-87.15-79.08-130.92c-22.68-38-45.25-79.27-46.22-124.64c-0.78-36.32,16.02-67.78,42.42-91.94
				c7.49-6.85,15.5-13.02,23.86-18.77C728.84,1094.63,722.07,1082.88,714.86,1087.84L714.86,1087.84z"/>
		</g>
	</g>
</g>
<g id="Ebene_6">
	<g>
		<path class="st2" d="M215.47,875.09c102.03,160.67,307.88,195.62,435.15,111.73c170.57-112.43,204.33-284.3,111.02-461.83
			c-60.07-114.3-267.41-200.84-430.9-95.53C112.73,569.89,169.17,802.88,214.28,873.18"/>
		<g>
			<path d="M209.61,878.51c38.91,61,95.83,108.61,163.09,135.4c60.94,24.27,129.45,30.72,193.52,15.9
				c30.31-7.01,59.7-18.97,85.86-35.86c33.75-21.78,65.11-48.07,91.2-78.67c46.8-54.89,74.41-123.1,75.97-195.45
				c0.8-36.99-4.93-74.08-15.34-109.53c-5.73-19.5-12.91-38.54-21.13-57.12c-7.32-16.54-15.15-33.15-25.2-48.23
				c-37.66-56.52-100.1-94.94-164.12-114.61c-74.32-22.84-155.65-20.14-226.85,11.92c-36.98,16.66-71.06,41.12-100.29,69.14
				c-24.98,23.94-46.54,51.65-62.87,82.2c-27.8,52.03-39.95,111.29-37.4,170.08c1.98,45.49,11.8,91.71,31.43,132.97
				c3.26,6.86,6.86,13.57,10.95,19.97c4.68,7.33,16.42,0.54,11.7-6.84c-9.18-14.36-15.53-29.05-21.02-44.56
				c-7.4-20.91-12.65-42.59-15.97-64.52c-7.95-52.52-4.02-107.11,13.31-157.42c22.16-64.33,66.66-118.13,121.83-157.22
				c32.93-23.33,69.06-40.81,108.49-49.88c35.98-8.27,73.59-9.59,110.14-4.55c66.95,9.24,133.29,38.9,181.4,86.93
				c10.34,10.32,19.81,21.51,27.88,33.7c9.9,14.95,17.64,31.39,24.89,47.76c15.16,34.27,26.29,70.59,31.54,107.73
				c9.62,68.04-3.18,137.45-38.87,196.38c-19.15,31.62-43.99,59.43-72.01,83.45c-26.07,22.35-54.92,42.75-86.86,55.8
				c-57.38,23.44-121.91,26.41-181.96,12.19c-65.71-15.56-125.53-51.47-170.24-102.07c-11.56-13.09-21.98-27.09-31.37-41.82
				C216.64,864.34,204.91,871.13,209.61,878.51L209.61,878.51z"/>
		</g>
	</g>
	<ellipse class="st3" cx="387.43" cy="753.81" rx="40.15" ry="35.89"/>
	<ellipse class="st4" cx="602.8" cy="642.34" rx="44" ry="37.5"/>
	<ellipse class="st5" cx="399.04" cy="738.81" rx="13.5" ry="12.5"/>
	<ellipse class="st5" cx="611.67" cy="629.84" rx="13.5" ry="12.5"/>
	<ellipse class="st6" cx="383.04" cy="759.31" rx="2.5" ry="5.5"/>
	<ellipse class="st6" cx="598.08" cy="654.31" rx="2.5" ry="5.5"/>
</g>
<g id="Ebene_5">
	<g class="st7">
		<path d="M653.48,1188.91c81.44,144.89,206.59,260.85,352.36,326.45c-18.31,23.95-37.13,48.39-61.83,64.46s-56.85,22.44-82.27,8.29
			c-17.81-9.91-29.95-28.22-41.13-46.05c-68.06-108.5-126.39-224.03-173.97-344.53"/>
		<g>
			<path d="M647.63,1192.33c31.83,56.5,70.47,109.18,114.91,156.41c43.54,46.28,92.73,87.35,146.23,121.65
				c29.93,19.19,61.24,36.19,93.65,50.82c-0.81-3.09-1.62-6.18-2.43-9.27c-22.28,29.14-47.02,62.25-83.66,73.54
				c-16.75,5.16-35.51,5.5-51.17-3.22c-15.9-8.86-26.55-24.5-36.1-39.5c-44.33-69.62-83.93-142.44-119.36-216.97
				c-20.3-42.7-39.14-86.09-56.52-130.06c-3.17-8.02-16.28-4.52-13.07,3.6c32.38,81.92,69.68,161.89,111.94,239.18
				c20.73,37.91,42.48,75.36,65.74,111.77c10.16,15.9,21.55,31.92,37.83,42.09c16.15,10.08,35.63,12.14,54.08,8.71
				c45.52-8.46,75.54-47.73,101.98-82.3c2.07-2.71,0.61-7.9-2.43-9.27c-56.88-25.67-110.44-58.69-159-97.89
				c-49.08-39.61-93.45-85.27-131.54-135.55c-21.83-28.81-41.65-59.1-59.39-90.59C655.05,1177.9,643.34,1184.72,647.63,1192.33
				L647.63,1192.33z"/>
		</g>
	</g>
</g>
<g id="Ebene_8">
	<g class="st7">
		<g>
			<path class="st8" d="M353.9,494.85c-2.1,2.75,0.76-0.95,1.46-1.81c1.13-1.4,2.28-2.78,3.44-4.14c2.65-3.11,5.39-6.15,8.22-9.11
				c5.26-5.52,10.81-10.76,16.61-15.7c1.35-1.15,2.71-2.28,4.09-3.4c0.91-0.74,4.44-3.45,1.7-1.39c3.23-2.42,6.48-4.8,9.81-7.07
				c6.22-4.23,12.66-8.15,19.28-11.73c3.08-1.67,6.19-3.26,9.34-4.78c1.8-0.87,3.61-1.71,5.42-2.53c0.68-0.31,1.37-0.59,2.05-0.91
				c1.98-0.93-2.72,1.08,0.5-0.22c6.91-2.78,13.91-5.29,21.06-7.4c7.1-2.09,14.31-3.82,21.6-5.17c1.69-0.31,3.39-0.6,5.09-0.87
				c1.45-0.23,5.52-0.74,1.77-0.29c3.9-0.47,7.81-0.87,11.73-1.14c7.34-0.5,14.7-0.6,22.05-0.28c3.43,0.15,6.85,0.39,10.27,0.72
				c1.71,0.17,3.41,0.38,5.12,0.57c2.71,0.29-3.12-0.51-0.42-0.05c1.21,0.21,2.43,0.37,3.64,0.57c13.78,2.31,27.28,6.16,40.25,11.35
				c0.54,0.22,3.38,1.37,1.13,0.44c-2.1-0.86,0.13,0.06,0.46,0.21c1.74,0.77,3.48,1.55,5.2,2.35c3.23,1.52,6.43,3.12,9.58,4.8
				c6.33,3.38,12.5,7.08,18.46,11.06c3,2,5.95,4.08,8.84,6.23c0.58,0.43,1.15,0.87,1.73,1.3c2.13,1.56-2.28-1.84-0.22-0.17
				c1.5,1.22,3.02,2.41,4.51,3.64c5.6,4.64,10.97,9.55,16.1,14.71c5.68,5.7,11.05,11.7,16.11,17.97c0.61,0.76,1.22,1.53,1.83,2.3
				c-1.55-1.94-0.73-0.96,0.31,0.42c1.18,1.57,2.34,3.15,3.47,4.75c2.42,3.41,4.76,6.88,6.99,10.41c4.49,7.1,8.6,14.45,12.28,22
				c0.87,1.79,1.72,3.58,2.54,5.39c0.55,1.21,2.58,5.97,1.16,2.53c1.72,4.16,3.32,8.35,4.81,12.6c3.12,8.9,12.49,15.77,22.23,12.62
				c8.79-2.84,15.97-12.68,12.62-22.23c-21.54-61.33-66.98-114.7-126.41-142.14c-29.62-13.68-61.64-21.2-94.36-20.64
				c-33.73,0.57-66.71,9.06-97.07,23.57c-34.76,16.62-64.29,41.92-87.59,72.42c-5.76,7.54-1.42,20.55,6.48,24.72
				C338.74,506.37,347.75,502.9,353.9,494.85L353.9,494.85z"/>
		</g>
	</g>
	<g class="st7">
		<g>
			<path class="st8" d="M743.21,619.48c9.45,0,18.5-8.31,18.07-18.07c-0.44-9.79-7.94-18.07-18.07-18.07
				c-9.45,0-18.5,8.31-18.07,18.07C725.58,611.2,733.09,619.48,743.21,619.48L743.21,619.48z"/>
		</g>
	</g>
	<g class="st7">
		<path class="st9" d="M788.31,1081.67c57.37,102.73,114.74,205.46,172.1,308.2"/>
		<g>
			<path class="st8" d="M772.71,1090.79c44.73,80.1,89.45,160.19,134.18,240.29c12.64,22.64,25.28,45.27,37.92,67.91
				c4.61,8.26,16.63,11.7,24.72,6.48c8.36-5.39,11.42-15.89,6.48-24.72c-44.73-80.1-89.45-160.19-134.18-240.29
				c-12.64-22.64-25.28-45.27-37.92-67.91c-4.61-8.26-16.63-11.7-24.72-6.48C770.83,1071.46,767.77,1081.95,772.71,1090.79
				L772.71,1090.79z"/>
		</g>
	</g>
	<g class="st7">
		<g>
			<path class="st8" d="M976.29,1457.87c9.45,0,18.5-8.31,18.07-18.07c-0.44-9.79-7.94-18.07-18.07-18.07
				c-9.45,0-18.5,8.31-18.07,18.07C958.66,1449.59,966.16,1457.87,976.29,1457.87L976.29,1457.87z"/>
		</g>
	</g>
</g>
<g id="Ebene_13">
</g>
<g id="Ebene_11">
	
		<ellipse transform="matrix(0.8994 -0.4372 0.4372 0.8994 -323.3112 249.5771)" class="st10" cx="380.54" cy="827.17" rx="40" ry="17"/>
	
		<ellipse transform="matrix(0.8994 -0.4372 0.4372 0.8994 -223.312 366.8746)" class="st10" cx="685.36" cy="668.57" rx="40" ry="17"/>
	<g>
		<g>
			<path d="M565.27,608.78c5.02-6.71,13.16-10.49,21.43-10.69c9.64-0.24,9.67-15.24,0-15c-13.99,0.34-26.06,7-34.38,18.12
				c-2.44,3.27-0.5,8.35,2.69,10.26C558.82,613.75,562.86,612.01,565.27,608.78L565.27,608.78z"/>
		</g>
	</g>
	<g>
		<g>
			<path d="M344.78,712.17c4.39-8.02,12.31-12.86,21.48-12.86c9.65,0,9.67-15,0-15c-14.28,0-27.56,7.74-34.43,20.29
				C327.19,713.07,340.14,720.65,344.78,712.17L344.78,712.17z"/>
		</g>
	</g>
	<g>
		<g>
			<path d="M468.65,851.01c27.64,23.65,67.2,31.21,101.79,19.93c34.5-11.25,59.66-41.02,67.24-76.28
				c4.22-19.62,3.21-40.36-4.11-59.13c-1.47-3.76-5.04-6.41-9.23-5.24c-3.59,1.01-6.72,5.42-5.24,9.23
				c11.17,28.65,6.37,61.43-11.29,86.46c-18.36,26.03-50.07,37.8-81.2,34.51c-17.23-1.82-34.19-8.82-47.36-20.09
				C471.96,834.15,461.3,844.72,468.65,851.01L468.65,851.01z"/>
		</g>
	</g>
</g>
<g id="Ebene_9">
</g>
<g id="Ebene_10">
	<g>
		<g id="Ebene_3_Kopie">
			<g class="st7">
				<path d="M817.52,621.25c0.82,54.87-10.63,109.82-33.84,162.25c84.46-33.68,159.35-78.99,219.1-132.55"/>
				<g>
					<path d="M814.11,622.81c0.59,42.53-6.22,84.99-19.99,126c-3.91,11.63-8.43,23.13-13.44,34.47c-0.87,1.97-0.06,4.68,3.07,3.43
						c32.85-13.12,64.59-28.09,94.83-44.9c29.59-16.46,57.79-34.59,84.1-54.44c14.54-10.96,28.5-22.45,41.84-34.39
						c1.23-1.1,2.47-3.58,1.2-4.94c-1.38-1.47-3.62-0.03-4.68,0.92c-23.43,20.98-48.91,40.39-75.96,58.21
						c-27.62,18.19-56.88,34.66-87.41,49.4c-17.62,8.51-35.66,16.42-54.05,23.76c1.02,1.14,2.05,2.28,3.07,3.43
						c18.09-40.98,29.31-83.89,32.98-127.38c1.03-12.2,1.44-24.43,1.27-36.66c-0.02-1.7-1.72-2.36-3.48-1.65
						C815.49,618.85,814.08,621.05,814.11,622.81L814.11,622.81z"/>
				</g>
			</g>
			<g class="st7">
				<path d="M973.07,674.02c84.94,0.88,170.85-9.06,249.26-35.81c78.42-26.75,149.09-71.02,194.33-129.91s63.31-132.82,41.43-200.05
					c-23.23-71.39-89.94-130.58-170.92-163.14s-174.81-40.02-264.12-29.69c-100.52,11.62-198.62,46.26-270.43,105.03
					S637.7,363.22,647.41,445.99c9.71,82.78,76.22,161.52,171.36,190.53"/>
				<g>
					<path d="M971.65,677.13c82.53,0.79,166.1-8.39,243.09-33.56c66.38-21.7,127.46-55.38,173.74-100.27
						c48.16-46.73,78.45-105.66,81.61-167.01c1.54-29.9-3.64-60.03-16.04-88.2c-11.39-25.87-28.5-49.96-49.67-71.27
						c-45.15-45.43-107.31-77.24-175.55-93.9c-75.34-18.39-156.44-18.95-233.28-6.67c-72.07,11.52-141.78,35.05-200.64,71.27
						c-58.44,35.96-104.55,84.81-130.19,141.02c-24.56,53.87-29.43,113.83-7.54,168.86c20.19,50.73,61.22,96.5,116.79,124.83
						c13.52,6.89,27.83,12.66,42.73,17.24c3.27,1.01,7.16-4.96,4.15-5.89c-60.3-18.53-108.93-56.84-138.79-103.18
						c-31.79-49.33-40.19-106.12-26.51-160.59c14.38-57.23,51.44-110.31,102.63-150.81c52.11-41.23,117.5-70.01,186.73-86.78
						c72.36-17.53,149.97-22.96,224.66-13.45c71.54,9.12,140.02,32.96,194.2,72.74c50.14,36.8,86.59,86.28,97.22,141.09
						c11.65,60.08-6.94,122.96-46.12,174.21c-37.31,48.8-92.58,87.3-154.49,113.95c-70.13,30.19-148.99,44.95-227.71,49.01
						c-19.36,1-38.77,1.35-58.17,1.16C971.27,670.88,968.08,677.09,971.65,677.13L971.65,677.13z"/>
				</g>
			</g>
			<g class="st7">
				<path class="st11" d="M1041.58,379.86c5.24-38.92-30-78.09-76.37-87.6c-46.38-9.5-98.48,10.07-122.35,43.99
					s-19.31,79.18,8.77,110.87c23.05,26.01,58.69,42.25,93.56,56.99c49.66,20.98,100.17,40.6,151.43,58.81
					c6.31,2.24,13.14,4.51,19.87,3.35c8.56-1.48,14.24-7.95,19.05-13.94c36.47-45.25,72.94-90.5,109.41-135.75
					c19.26-23.91,39.2-49.44,40.38-78.07c1-24.17-12.19-48.04-33.11-65.1c-35.58-29.02-93.76-37.48-139.35-20.24
					s-75.5,58.99-71.62,100.01"/>
				<g>
					<path d="M1044.49,379.26c4.55-35.32-21.73-70.5-60.84-85.21c-39.7-14.93-87.47-5.58-119.39,17.64
						c-34.72,25.26-46.87,65.31-35.71,101.72c5.75,18.77,17.68,35.67,34.16,49.47c17.2,14.4,38.07,25.39,59.49,35.08
						c24.13,10.92,48.95,20.9,73.74,30.77c26.09,10.39,52.4,20.41,78.91,30.05c6.86,2.5,13.72,4.99,20.63,7.41
						c6.09,2.13,12.55,4.11,19.28,3.27c12.13-1.5,19.22-11.52,25.36-19.14c16.41-20.36,32.83-40.73,49.24-61.09
						c16.41-20.36,32.83-40.73,49.24-61.09c14.8-18.36,30.54-36.65,40.54-57.2c9.31-19.11,12.19-39.76,5.1-59.7
						c-6.63-18.62-20.59-35.31-39.02-47.43c-34.29-22.55-83.84-29.01-124.91-16.03c-41.48,13.11-71.95,45.13-80.19,80.65
						c-1.99,8.58-2.64,17.38-1.85,26.09c0.36,4.02,6.22-0.11,5.98-2.72c-3.08-34.13,17.43-68.62,51.85-87.99
						c35.07-19.73,82.01-21.21,120.21-6.67c40.89,15.57,71.15,51.51,65.4,89.31c-3.06,20.1-14.99,38.29-27.95,55.22
						c-14.7,19.21-30.37,37.95-45.62,56.87c-15.7,19.48-31.4,38.97-47.11,58.45c-7.9,9.8-15.8,19.61-23.71,29.41
						c-5.78,7.17-12.21,17.62-24.48,17.03c-7.07-0.34-13.71-3.29-20.08-5.57c-6.24-2.23-12.46-4.48-18.67-6.76
						c-12.75-4.66-25.46-9.42-38.12-14.26c-25.31-9.68-50.43-19.71-75.33-30.08c-41.36-17.22-87.18-35.45-112.07-69.17
						c-22.47-30.44-25.15-71.51-2.15-102.28c21.25-28.42,63.75-45.45,104.16-41.87c41.12,3.64,76.21,30.23,85.97,62.92
						c2.35,7.85,3.15,16.04,2.11,24.1C1038.1,384.89,1044.11,382.2,1044.49,379.26L1044.49,379.26z"/>
				</g>
			</g>
			<g class="st7">
				<g>
					<path d="M1403.98,356.83c8.54,31.13,5.73,64.03-8.13,93.85c-0.51,1.11-0.68,3.06,1.2,3.31c1.85,0.24,3.52-1.75,4.06-2.91
						c14.52-31.24,17.58-65.68,8.63-98.3c-0.43-1.58-2.6-1.06-3.7-0.34C1404.56,353.42,1403.55,355.28,1403.98,356.83
						L1403.98,356.83z"/>
				</g>
			</g>
			<g class="st7">
				<g>
					<path d="M1385.03,487.29c-16.45,24.23-39.2,45.26-66.5,61.66c-2.91,1.74-2.75,7.36,1.63,4.73
						c28.38-17.05,52.07-39.16,69.18-64.35c0.7-1.03,1.56-3.19-0.08-3.97C1387.65,484.61,1385.71,486.3,1385.03,487.29
						L1385.03,487.29z"/>
				</g>
			</g>
			<g class="st7">
				<g>
					<path d="M718.24,386.39c1.13-31.16,11.83-61.97,30.84-88.97c5.44-7.72,11.54-15.1,18.27-22.11c1-1.04,2.21-3.08,1.05-4.33
						c-1.16-1.24-3.25-0.09-4.1,0.8c-24.91,25.95-41.79,56.95-48.65,89.49c-1.94,9.2-3.05,18.51-3.39,27.84
						c-0.06,1.51,1.55,2.05,3.05,1.44C717.08,389.83,718.19,387.95,718.24,386.39L718.24,386.39z"/>
				</g>
			</g>
		</g>
		<g id="Ebene_3">
			<g>
				<path class="st12" d="M850.72,589.53c0.82,54.87-10.63,109.82-33.84,162.25c84.46-33.68,159.35-78.99,219.1-132.55"/>
				<g>
					<path d="M847.3,591.08c0.59,42.53-6.22,84.99-19.99,126c-3.91,11.63-8.43,23.13-13.44,34.47c-0.87,1.97-0.06,4.68,3.07,3.43
						c32.85-13.12,64.59-28.09,94.83-44.9c29.59-16.46,57.79-34.59,84.1-54.44c14.54-10.96,28.5-22.45,41.84-34.39
						c1.23-1.1,2.47-3.58,1.2-4.94c-1.38-1.47-3.62-0.03-4.68,0.92c-23.43,20.98-48.91,40.39-75.96,58.21
						c-27.62,18.19-56.88,34.66-87.41,49.4c-17.62,8.51-35.66,16.42-54.05,23.76c1.02,1.14,2.05,2.28,3.07,3.43
						c18.09-40.98,29.31-83.89,32.98-127.38c1.03-12.2,1.44-24.43,1.27-36.66c-0.02-1.7-1.72-2.36-3.48-1.65
						C848.69,587.13,847.28,589.33,847.3,591.08L847.3,591.08z"/>
				</g>
			</g>
			<g>
				<path class="st12" d="M1006.27,642.29c84.94,0.88,170.85-9.06,249.26-35.81c78.42-26.75,149.09-71.02,194.33-129.91
					c45.24-58.9,63.31-132.82,41.43-200.05c-23.23-71.39-89.94-130.58-170.92-163.14s-174.81-40.02-264.12-29.69
					c-100.52,11.62-198.62,46.26-270.43,105.03S670.89,331.49,680.6,414.27c9.71,82.77,76.22,161.52,171.36,190.53"/>
				<g>
					<path d="M1004.84,645.4c82.53,0.79,166.1-8.39,243.09-33.56c66.38-21.7,127.46-55.38,173.74-100.27
						c48.16-46.73,78.45-105.66,81.61-167.01c1.54-29.9-3.63-60.03-16.04-88.2c-11.39-25.87-28.5-49.96-49.67-71.27
						c-45.15-45.43-107.31-77.24-175.55-93.9c-75.34-18.39-156.44-18.95-233.28-6.67c-72.07,11.52-141.78,35.05-200.64,71.27
						c-58.44,35.96-104.55,84.81-130.19,141.02c-24.56,53.87-29.43,113.83-7.54,168.86c20.19,50.73,61.22,96.5,116.79,124.83
						c13.52,6.89,27.83,12.66,42.73,17.24c3.27,1.01,7.16-4.96,4.15-5.89c-60.3-18.53-108.93-56.84-138.79-103.18
						c-31.79-49.33-40.19-106.12-26.51-160.59c14.38-57.23,51.44-110.31,102.63-150.81c52.11-41.23,117.5-70.01,186.73-86.78
						c72.36-17.53,149.97-22.96,224.66-13.45c71.54,9.12,140.02,32.96,194.2,72.74c50.14,36.8,86.59,86.28,97.22,141.09
						c11.65,60.08-6.94,122.96-46.12,174.21c-37.31,48.8-92.58,87.3-154.49,113.95c-70.13,30.19-148.99,44.95-227.71,49.01
						c-19.36,1-38.77,1.35-58.17,1.16C1004.47,639.15,1001.27,645.37,1004.84,645.4L1004.84,645.4z"/>
				</g>
			</g>
			<g>
				<path class="st11" d="M1074.78,348.13c5.24-38.92-30-78.09-76.37-87.6c-46.38-9.5-98.48,10.07-122.35,43.99
					s-19.31,79.18,8.77,110.87c23.05,26.01,58.69,42.25,93.56,56.99c49.66,20.98,100.17,40.6,151.43,58.81
					c6.31,2.24,13.14,4.51,19.87,3.35c8.56-1.48,14.24-7.95,19.05-13.94c36.47-45.25,72.94-90.5,109.41-135.75
					c19.26-23.91,39.2-49.44,40.38-78.07c1-24.17-12.19-48.04-33.11-65.1c-35.58-29.02-93.76-37.48-139.35-20.24
					c-45.59,17.24-75.5,58.99-71.62,100.01"/>
				<g>
					<path d="M1077.69,347.53c4.55-35.32-21.73-70.5-60.84-85.21c-39.7-14.93-87.47-5.58-119.39,17.64
						c-34.72,25.26-46.87,65.31-35.71,101.72c5.75,18.77,17.68,35.67,34.16,49.47c17.2,14.4,38.07,25.39,59.49,35.08
						c24.13,10.92,48.95,20.9,73.74,30.77c26.09,10.39,52.4,20.41,78.91,30.05c6.86,2.5,13.72,4.99,20.63,7.41
						c6.09,2.13,12.55,4.11,19.28,3.27c12.13-1.5,19.22-11.52,25.36-19.14c16.41-20.36,32.83-40.73,49.24-61.09
						c16.41-20.36,32.83-40.73,49.24-61.09c14.8-18.36,30.54-36.65,40.54-57.2c9.31-19.11,12.19-39.76,5.1-59.7
						c-6.63-18.62-20.59-35.31-39.02-47.43c-34.29-22.55-83.84-29.01-124.91-16.03c-41.48,13.11-71.95,45.13-80.19,80.65
						c-1.99,8.58-2.64,17.38-1.85,26.09c0.36,4.02,6.22-0.11,5.98-2.72c-3.08-34.13,17.43-68.62,51.85-87.99
						c35.07-19.73,82.01-21.21,120.21-6.67c40.89,15.57,71.15,51.51,65.4,89.31c-3.06,20.1-14.99,38.29-27.95,55.22
						c-14.7,19.21-30.37,37.95-45.62,56.87c-15.7,19.48-31.4,38.97-47.11,58.45c-7.9,9.8-15.8,19.61-23.71,29.41
						c-5.78,7.17-12.21,17.62-24.48,17.03c-7.07-0.34-13.71-3.29-20.08-5.57c-6.24-2.23-12.46-4.48-18.67-6.76
						c-12.75-4.66-25.46-9.42-38.12-14.26c-25.31-9.68-50.43-19.71-75.33-30.08c-41.36-17.22-87.18-35.45-112.07-69.17
						c-22.47-30.44-25.15-71.51-2.15-102.28c21.25-28.42,63.75-45.45,104.16-41.87c41.12,3.64,76.21,30.23,85.97,62.92
						c2.35,7.85,3.15,16.04,2.11,24.1C1071.3,353.16,1077.31,350.47,1077.69,347.53L1077.69,347.53z"/>
				</g>
			</g>
			<g>
				<g>
					<path d="M1437.17,325.11c8.54,31.13,5.73,64.03-8.13,93.85c-0.51,1.11-0.68,3.06,1.2,3.31c1.85,0.24,3.52-1.75,4.06-2.91
						c14.52-31.24,17.58-65.68,8.63-98.3c-0.43-1.58-2.6-1.06-3.7-0.34C1437.76,321.7,1436.74,323.55,1437.17,325.11L1437.17,325.11
						z"/>
				</g>
			</g>
			<g>
				<g>
					<path d="M1418.23,455.57c-16.45,24.23-39.2,45.26-66.5,61.66c-2.91,1.74-2.75,7.36,1.63,4.73
						c28.38-17.05,52.07-39.16,69.18-64.35c0.7-1.03,1.56-3.19-0.08-3.97C1420.84,452.88,1418.91,454.57,1418.23,455.57
						L1418.23,455.57z"/>
				</g>
			</g>
			<g>
				<g>
					<path d="M751.44,354.66c1.13-31.16,11.83-61.97,30.84-88.97c5.44-7.72,11.54-15.1,18.27-22.11c1-1.04,2.21-3.08,1.05-4.33
						c-1.16-1.24-3.25-0.09-4.1,0.8c-24.91,25.95-41.79,56.95-48.65,89.49c-1.94,9.2-3.05,18.51-3.39,27.84
						c-0.06,1.51,1.55,2.05,3.05,1.44C750.28,358.11,751.38,356.22,751.44,354.66L751.44,354.66z"/>
				</g>
			</g>
			<g>
				<path class="st11" d="M1538.01,84.25c7.1-5.4,8.86-14.93,4.03-21.81c-4.83-6.88-15.76-10.43-25.04-8.13
					c-11.08,2.76-17.74,12.48-18.91,21.92c-1.17,9.44,1.96,18.83,4.4,28.1c2.44,9.27,4.17,19.13,0.35,28.09
					c23.83-10.15,46.23-22.57,66.59-36.94c7.64-5.39,15.71-13.09,12.48-20.92c-2.85-6.9-13.69-9.66-22.26-7.75
					c-8.58,1.92-15.34,7.17-21.72,12.24"/>
				<g>
					<path d="M1538.83,86.61c7.76-6.15,11.43-16.08,7.14-24.48c-3.88-7.6-13.85-12.25-23.81-11.55
						c-10.93,0.77-19.05,7.81-23.41,15.59c-5.17,9.22-4.32,19.46-2.03,29.17c2.81,11.92,8.42,24.81,3.5,36.87
						c-0.68,1.66-0.09,4.19,2.69,3c22.47-9.61,43.7-21.17,63.17-34.48c8.66-5.91,19.18-13.41,19.55-23.43
						c0.3-8.2-8.07-13.63-17.49-14.16c-12.54-0.7-22.65,6.9-31.02,13.54c-1.3,1.03-2.71,2.83-2.06,4.39
						c0.59,1.44,2.54,1.26,3.7,0.34c6.51-5.16,14.08-11.47,23.67-12.06c7.49-0.46,17.11,2.91,17.24,9.99
						c0.07,3.97-3.29,7.43-6.43,10.19c-3.57,3.14-7.79,5.83-11.85,8.53c-8.5,5.67-17.33,11.03-26.46,16
						c-10.36,5.64-21.09,10.81-32.12,15.53c0.9,1,1.79,2,2.69,3c3.62-8.87,2.83-18.07,0.7-27.12c-2.22-9.43-5.85-18.79-5.28-28.49
						c0.39-6.66,3.61-14,10.68-17.81c7.45-4.02,17.47-2.86,24.03,1.89c7.07,5.11,8.68,15.18,1.58,20.8
						c-1.3,1.03-2.71,2.83-2.06,4.39C1535.72,87.71,1537.67,87.53,1538.83,86.61L1538.83,86.61z"/>
				</g>
			</g>
			<g>
				<path class="st13" d="M1561.93,194.73c-1.97,14.51-13.15,27.97-28.9,34.8c7.51-2.73,16.63-2.26,23.65,1.23
					c7.03,3.49,11.77,9.88,12.29,16.6c1.32-13.51,13.43-25.87,29.24-29.86c-16.39,3.06-34.44-8.23-35.13-21.99"/>
				<g>
					<path d="M1559.02,195.34c-1.94,13.32-11.63,25.02-26.05,31.39c-2.68,1.18-4.54,7.22,0.12,5.61
						c14.58-5.04,31.61,3.53,32.89,16.38c0.38,3.84,5.65,0.25,5.9-1.97c1.34-12.1,11.46-22.49,25.63-26.2
						c1.88-0.49,3.29-2.1,3.61-3.66c0.26-1.26-0.29-2.78-2.21-2.45c-15.17,2.63-31.95-7.5-32.84-20.29
						c-0.11-1.47-1.45-2.09-3.05-1.44c-1.66,0.67-3.04,2.65-2.93,4.17c1.05,15.01,19.33,26.83,37.42,23.69
						c0.47-2.04,0.93-4.07,1.41-6.11c-17.68,4.63-31.17,18.35-32.85,33.52c1.97-0.66,3.93-1.31,5.9-1.97
						c-0.71-7.16-5.09-13.85-12.52-17.82c-7.93-4.24-17.91-4.41-26.48-1.45c0.04,1.87,0.08,3.74,0.12,5.61
						c17.22-7.61,29.43-22.28,31.75-38.21C1565.48,189.71,1559.45,192.41,1559.02,195.34L1559.02,195.34z"/>
				</g>
			</g>
			<path class="st14" d="M1602.42,529.82l8.53,21.55c0.37,0.92,1.42,1.55,2.61,1.55h27.62c2.66,0,3.76,2.78,1.62,4.06l-22.35,13.33
				c-0.96,0.57-1.36,1.59-1,2.51l8.54,21.56c0.82,2.07-2.07,3.79-4.22,2.51l-22.34-13.32c-0.96-0.58-2.26-0.58-3.23,0l-22.34,13.32
				c-2.15,1.28-5.04-0.44-4.22-2.51l8.54-21.56c0.37-0.92-0.03-1.94-1-2.51l-22.35-13.33c-2.15-1.28-1.04-4.06,1.62-4.06h27.62
				c1.19,0,2.24-0.63,2.61-1.55l8.53-21.55C1598.02,527.75,1601.6,527.75,1602.42,529.82z"/>
			<path class="st14" d="M907.36,11.84l8.53,21.55c0.37,0.92,1.42,1.55,2.61,1.55h27.62c2.66,0,3.76,2.78,1.62,4.06l-22.35,13.33
				c-0.96,0.57-1.36,1.59-1,2.51l8.54,21.56c0.82,2.07-2.07,3.79-4.22,2.51L906.36,65.6c-0.96-0.58-2.26-0.58-3.23,0L880.8,78.92
				c-2.15,1.28-5.04-0.44-4.22-2.51l8.54-21.56c0.37-0.92-0.03-1.94-1-2.51l-22.35-13.33c-2.15-1.28-1.04-4.06,1.62-4.06h27.62
				c1.19,0,2.24-0.63,2.61-1.55l8.53-21.55C902.96,9.77,906.54,9.77,907.36,11.84z"/>
			<path class="st14" d="M658.39,546.63l8.53,21.55c0.37,0.92,1.42,1.55,2.61,1.55h27.62c2.66,0,3.76,2.78,1.62,4.06l-22.35,13.33
				c-0.96,0.57-1.36,1.59-1,2.51l8.54,21.56c0.82,2.07-2.07,3.79-4.22,2.51l-22.34-13.32c-0.96-0.58-2.26-0.58-3.23,0l-22.34,13.32
				c-2.15,1.28-5.04-0.44-4.22-2.51l8.54-21.56c0.37-0.92-0.03-1.94-1-2.51L612.8,573.8c-2.15-1.28-1.04-4.06,1.62-4.06h27.62
				c1.19,0,2.24-0.63,2.61-1.55l8.53-21.55C653.99,544.56,657.57,544.56,658.39,546.63z"/>
			<g>
				<path class="st15" d="M1427.76,698.54c-1.85-9.36-12.84-16.91-24.42-16.77s-22.29,7.95-23.81,17.35
					c-1.6,9.92,6.25,19.54,16.4,25.11c10.15,5.57,22.32,7.94,34.11,10.52c11.8,2.58,23.9,5.63,33.12,12.18
					c3.4-19.03,6.79-38.06,10.2-57.09c1.62-9.05,2.41-19.91-6.33-25.59c-9.03-5.86-23.34-1.82-30.06,5.86
					c-6.71,7.67-7.88,17.6-8.82,27.01"/>
				<g>
					<path d="M1430.64,696.51c-2-9.1-11.58-16.56-22.8-17.72c-11.66-1.21-22.96,5.05-28.18,13.33c-5.89,9.35-3.26,20.14,4.77,28.06
						c8.71,8.6,21.62,12.55,34.38,15.5c14.72,3.39,30.3,5.85,42.29,14.18c2.05,1.43,4.77-2.38,4.98-3.55
						c2.12-11.89,4.25-23.79,6.37-35.68c1.09-6.1,2.17-12.19,3.26-18.29c0.82-4.58,1.68-9.17,1.66-13.81
						c-0.04-7.96-3.34-16.87-13.6-19.49c-9.79-2.51-20.56,1.83-26.96,7.86c-9.14,8.62-10.56,20.68-11.66,31.56
						c-0.16,1.53,1.62,2.02,3.05,1.44c1.85-0.75,2.78-2.58,2.93-4.17c0.82-8.14,1.53-17.61,7.79-24.37
						c4.85-5.23,14.56-8.56,22.32-5.97c8.86,2.95,10.44,11.18,10.07,18.12c-0.24,4.41-1.22,8.79-1.99,13.16
						c-0.9,5.05-1.8,10.11-2.71,15.16c-2.12,11.89-4.25,23.79-6.37,35.68c1.66-1.18,3.33-2.37,4.98-3.55
						c-18.95-13.17-46-11.49-66.44-22.27c-8.87-4.68-16.85-12.82-16.49-21.89c0.32-7.97,8.97-14.25,18.41-14.9
						c11.46-0.79,22.14,6.56,24.14,15.64c0.35,1.61,2.65,1.03,3.7,0.34C1430.11,699.89,1430.99,698.11,1430.64,696.51
						L1430.64,696.51z"/>
				</g>
			</g>
			<g>
				<path class="st16" d="M1259.69,679.08c0.96,13.86-7.76,27.9-22,35.43c18.21-4.78,39.93,1.99,49.65,15.49
					c-7.38-13.86-1.44-31.63,13.53-40.48c-14.44,4.21-32.03-0.6-40.48-11.09"/>
				<g>
					<path d="M1256.7,680.44c0.71,12.32-6.41,24.43-19.06,31.26c-1.55,0.84-2.76,2.23-2.89,3.78c-0.09,1.08,0.55,2.51,2.25,2.08
						c17.82-4.51,38.16,1.95,47.78,15c1.84,2.5,6.45-2.67,5.46-4.6c-6.53-12.64-2.15-27.85,11.47-36.09
						c1.24-0.75,2.26-2.44,2.18-3.73c-0.07-0.97-0.88-2.09-2.29-1.7c-14.04,3.93-30.29-0.54-38.61-10.6
						c-2.04-2.46-6.97,2.93-5.15,5.13c9.09,10.98,27.03,15.87,42.35,11.58c-0.04-1.81-0.07-3.62-0.11-5.42
						c-16.37,9.89-23.6,29.4-15.6,44.88c1.82-1.53,3.63-3.06,5.46-4.6c-10.34-14.03-32.44-20.81-51.52-15.98
						c-0.22,1.95-0.43,3.91-0.65,5.86c15.92-8.6,25.83-23.91,24.93-39.59c-0.08-1.48-1.46-2.09-3.05-1.44
						C1257.96,676.95,1256.61,678.92,1256.7,680.44L1256.7,680.44z"/>
				</g>
			</g>
			<g>
				<path class="st17" d="M721.18,635.85c3.08,14.44-4.32,30.05-18.47,39.01c14.21-3.71,31.21,2.41,37.5,13.48
					c-1.23-12.84,6.04-26.02,18.63-33.75c-15.3,2.3-31.96-5.03-38.08-16.75"/>
				<g>
					<path d="M718.3,637.88c2.63,13.03-3.77,26.47-16.41,34.62c-1.23,0.79-2.26,2.42-2.17,3.73c0.07,1,0.87,2.05,2.29,1.7
						c13.85-3.44,29.38,2.37,35.63,12.99c0.66,1.12,2.65,0.29,3.39-0.2c1.23-0.83,2.29-2.39,2.17-3.73
						c-0.98-11.69,5.07-22.9,16.45-30.02c1.64-1.02,3.85-5.97-0.11-5.42c-14.39,2.01-29.97-4.75-35.9-15.72
						c-1.74-3.22-7.02,1.72-5.76,4.06c6.82,12.61,23.61,20.1,40.25,17.78c-0.04-1.81-0.07-3.62-0.11-5.42
						c-13.88,8.68-22.01,23.19-20.81,37.47c1.85-1.31,3.71-2.62,5.57-3.93c-6.86-11.66-24.33-17.71-39.37-13.97
						c0.04,1.81,0.07,3.62,0.11,5.42c15.76-10.16,23.81-27.23,20.54-43.4c-0.33-1.62-2.67-1.02-3.7-0.34
						C718.81,634.52,717.98,636.28,718.3,637.88L718.3,637.88z"/>
				</g>
			</g>
			<g>
				<path class="st13" d="M655.65,104.63c3.45,13.45-0.82,28.09-11.31,38.82c15.39-8.42,38.13-6.11,50.56,5.12
					c-11.35-10.59-11.35-28.12,0.01-38.7c-13.79,3.64-29.94,0.41-40.13-8.03"/>
				<g>
					<path d="M652.77,106.66c3,12.21-0.53,25.22-9.96,35.02c-0.91,0.95-1.87,2.53-1.35,3.79c0.43,1.04,1.8,1.38,2.94,0.77
						c14.77-7.89,35.92-5.72,47.92,4.89c2.57,2.28,7.21-3.15,5.15-5.13c-9.93-9.5-11.22-24.64-1.04-34.37
						c1.08-1.04,2.67-5.71-0.82-4.82c-13.26,3.36-28.34,0.48-38.26-7.55c-2.71-2.19-7.39,3.33-5.15,5.13
						c10.95,8.86,27.23,12.26,42,8.52c-0.28-1.61-0.55-3.21-0.82-4.82c-12.42,11.87-13.7,30.93-1.05,43.04
						c1.72-1.71,3.43-3.42,5.15-5.13c-13.41-11.85-36.64-14.19-53.19-5.36c0.53,1.52,1.06,3.05,1.59,4.57
						c11.52-11.98,16.34-27.62,12.66-42.61c-0.39-1.6-2.63-1.05-3.7-0.34C653.33,103.27,652.39,105.08,652.77,106.66L652.77,106.66z
						"/>
				</g>
			</g>
		</g>
	</g>
</g>
</svg>
