<?xml version="1.0" encoding="utf-8"?>
<!-- Generator: Adobe Adobe Illustrator 24.2.0, SVG Export Plug-In . SVG Version: 6.00 Build 0)  -->
<svg version="1.1" xmlns="http://www.w3.org/2000/svg" xmlns:xlink="http://www.w3.org/1999/xlink" x="0px" y="0px"
	 viewBox="0 0 1700.79 1700.79" style="enable-background:new 0 0 1700.79 1700.79;" xml:space="preserve">
<style type="text/css">
	.st0{fill:#CCCCCC;}
	.st1{fill:#3D4D5A;}
	.st2{fill:#EBF0F2;}
	.st3{stroke:#000000;stroke-width:1.3068;stroke-miterlimit:10;}
	.st4{stroke:#000000;stroke-width:0.3392;stroke-miterlimit:10;}
	.st5{fill:#FFFFFF;stroke:#FFFFFF;stroke-width:0.4472;stroke-miterlimit:10;}
	.st6{fill:#FFFFFF;stroke:#FFFFFF;stroke-width:0.1277;stroke-miterlimit:10;}
	.st7{opacity:0.149;}
	.st8{fill:#FFFFFF;}
	.st9{fill:#DFB2AD;}
	.st10{fill:#E8B1C9;stroke:#E8B1C9;stroke-width:0.9104;stroke-miterlimit:10;}
	.st11{fill:#ADBECF;stroke:#F3C057;stroke-miterlimit:10;}
	.st12{fill:#F3C057;stroke:#F3C057;stroke-miterlimit:10;}
	.st13{fill:#F7D98D;stroke:#F3C057;stroke-miterlimit:10;}
	.st14{stroke:#F3C057;stroke-miterlimit:10;}
	.st15{fill:#AEBFCE;stroke:#F3C057;stroke-miterlimit:10;}
	.st16{opacity:0.2706;}
	.st17{fill:#3D4C5B;stroke:#F3C057;stroke-miterlimit:10;}
	.st18{fill:#F3C057;}
</style>
<g id="Ebene_7">
	<g>
		<path class="st0" d="M598.08,1039.36c21.07,27.48,35.93,68.15,60.94,93.81c20.3-19.33,94.34-72.33,124.03-82.05
			c-12.71-20.88-26.86-41.46-42.33-61.56c-3.18-4.13-33.18-33.08-38.3-35.26c-7.83-3.33,35.93-8.94-50.81,73.98"/>
		<g>
			<path class="st0" d="M593.29,1042.16c22.88,30.16,35.3,67.36,61.8,94.93c2.12,2.2,5.7,2.03,7.85,0
				c12.73-12.04,27.19-22.42,41.41-32.6c17.98-12.88,36.42-25.31,55.67-36.23c7.85-4.45,15.91-8.92,24.5-11.8
				c3.31-1.11,5.27-4.95,3.32-8.15c-8.61-14.09-17.71-27.87-27.31-41.31c-6.29-8.81-12.41-18.05-20-25.81
				c-6.2-6.33-12.64-12.45-19.17-18.44c-4.75-4.36-10.08-10.39-16.01-13.19c-0.78-0.37-0.36-0.46-0.18,0.03
				c0.38,1.07,1.81,1.73,1.81,3.81c0,1.97-1.06,3.43-2.44,4.34c0.31-0.2-1.75,0.69-0.78,0.37c-0.64,0.21-2.13,0.02-1.41,0.12
				c0,0-1.54-0.7-0.82-0.37c0.26,0.12-1.27-1.01-0.26-0.22c0.12,0.09-0.11-1.06-0.26-0.58c-0.01,0.04,0.15,0.66,0.17,0.67
				c-0.55-0.23,0.34-1.2-0.06,0.12c-0.52,1.73,0.23-0.4-0.04,0.81c-0.99,4.32-1.97,6.13-4.44,10.32
				c-12.44,21.01-31.49,38.64-48.94,55.36c-5.17,4.95,2.69,12.79,7.85,7.85c17.88-17.14,36.88-35.17,49.97-56.44
				c3.92-6.38,9.65-16.55,5.14-24.04c-2.97-4.94-12.56-6.99-14.55,0.09c-1.23,4.37,2.17,6.31,5.18,8.29
				c6.79,4.46,13.71,11.79,19.92,17.7c7.97,7.59,15.2,15.04,21.77,23.87c12.55,16.87,24.32,34.31,35.29,52.25
				c1.11-2.72,2.21-5.43,3.32-8.15c-17.83,5.96-34.31,16.73-50.01,26.82c-19.08,12.26-37.64,25.37-55.56,39.26
				c-7.16,5.54-14.32,11.17-20.9,17.4c2.62,0,5.23,0,7.85,0c-25.78-26.81-37.79-63.32-60.07-92.69
				C598.61,1030.94,588.97,1036.47,593.29,1042.16L593.29,1042.16z"/>
		</g>
	</g>
</g>
<g id="Ebene_2">
	<g>
		<defs>
			<path id="SVGID_1_" d="M244.64,948.48c67.9,85.36,190.06,103.81,289.8,66.62c395.19-147.34,288.67-823.55-129.99-664.79
				C189.38,431.88,97.48,744.99,258.37,943.74"/>
		</defs>
		<clipPath id="SVGID_2_">
			<use xlink:href="#SVGID_1_"  style="overflow:visible;"/>
		</clipPath>
	</g>
	<g>
		<path class="st0" d="M611.67,1069.48C179.65,1220.43-120.2,647.3,308.17,380.65c399.83-248.88,786.1,319.42,438.8,607.07"/>
		<g>
			<path d="M609.86,1062.95c-38.23,13.3-78.09,21.98-118.56,24.13c-36.3,1.93-72.77-1.24-108.06-10.02
				c-33.23-8.26-65.09-21.31-94.57-38.73c-28.58-16.88-54.67-37.7-77.64-61.66c-22.9-23.88-42.5-50.77-58.37-79.79
				c-15.88-29.03-27.85-60.08-35.57-92.26c-7.79-32.48-11.06-65.92-9.66-99.3c1.45-34.42,8.06-68.5,19.39-101.03
				c12.14-34.87,29.87-67.67,51.64-97.46c24.37-33.33,54.09-62.72,86.63-88.06c35.08-27.33,73.89-50.96,115.31-67.32
				c36.26-14.32,74.66-23.3,113.65-25.14c35.81-1.69,71.66,2.5,106.12,12.4c33.53,9.63,65.33,24.52,94.55,43.54
				c29.24,19.04,55.67,42.22,78.82,68.31c23.15,26.09,42.85,55.19,58.7,86.25c15.92,31.19,27.77,64.43,35.02,98.69
				c7.26,34.24,9.66,69.48,6.85,104.38c-2.85,35.4-11.4,70.47-25.25,103.19c-15.05,35.56-36.39,68.4-62.13,97.14
				c-13.75,15.35-28.72,29.57-44.57,42.73c-6.71,5.58,2.92,15.12,9.58,9.58c32.42-26.93,61.04-58.49,83.48-94.22
				c20.19-32.16,35.21-67.66,43.99-104.62c8.41-35.43,11.25-72.19,8.65-108.51c-2.6-36.25-10.33-72.1-22.69-106.26
				c-12.32-34.06-28.97-66.55-49.53-96.37c-20.5-29.74-44.67-56.99-72.12-80.49c-27.3-23.38-57.67-43.24-90.42-58.11
				c-33.39-15.16-68.76-25.15-105.2-29.35c-38.05-4.39-76.73-2-114.1,6.27c-42.03,9.31-82.26,26.2-119.29,48.03
				c-39.28,23.16-76.08,51.3-107.91,83.99c-28.03,28.78-52.34,61.4-70.92,97.06c-16.9,32.44-29.19,67.32-35.87,103.3
				c-6.38,34.39-7.92,69.63-4.35,104.43c3.5,34.2,11.53,67.85,24.03,99.88c12.44,31.88,28.9,62.11,49.2,89.67
				c20.36,27.63,44.17,52.63,71.13,73.9c27.61,21.78,57.95,39.57,90.51,52.89c33.77,13.81,69.54,22.27,105.86,25.6
				c39.22,3.6,78.88,0.84,117.44-7.03c20.3-4.14,40.27-9.76,59.84-16.56C621.65,1073.17,618.13,1060.07,609.86,1062.95
				L609.86,1062.95z"/>
		</g>
	</g>
	<g>
		<g>
			<path d="M605.81,1072.9c16.59,26.52,36,51.16,52.59,77.68c4.61,7.38,16.34,0.58,11.7-6.84c-16.59-26.52-36-51.16-52.59-77.68
				C612.9,1058.69,601.17,1065.48,605.81,1072.9L605.81,1072.9z"/>
		</g>
	</g>
	<g>
		<g>
			<path d="M741.12,991.15c13.03,23.32,28.1,45.42,41.13,68.74c4.26,7.61,15.96,0.79,11.7-6.84c-13.03-23.32-28.1-45.42-41.13-68.74
				C748.56,976.7,736.85,983.52,741.12,991.15L741.12,991.15z"/>
		</g>
	</g>
	<g>
		<path class="st1" d="M718.28,1093.69c-48.52,33.14-72.26,72.45-69.44,121.48c2.82,49.03,28.41,92.51,53.23,133.6
			c44.74,74.05,89.49,148.1,134.23,222.15c8.18,13.53,17.04,27.72,30.69,34.56c25.72,12.87,55.3-5.28,78.87-22.71
			c36.88-27.28,77.44-61.11,80.6-108.77c1.87-28.11-10.16-54.77-22.1-79.73c-49.48-103.39-102.97-204.55-160.29-303.14
			c-8.97-15.42-19.14-31.77-35.13-37.92c-31.08-11.96-60.59,17.39-90.44,39.51"/>
		<g>
			<path d="M714.86,1087.84c-32.58,22.41-61.58,52.62-70.14,92.45c-9.61,44.73,6.39,90.15,27.03,129.38
				c11.64,22.13,24.98,43.34,37.9,64.73c14.11,23.35,28.22,46.71,42.33,70.06c14.11,23.35,28.22,46.71,42.33,70.06
				c13.68,22.64,26.89,45.67,41.16,67.94c11.77,18.38,27.64,34.48,51,34.12c22.84-0.35,43.68-13.96,61.47-26.99
				c32.38-23.73,66.95-51.27,80.39-90.64c16.45-48.2-11.87-95.59-32.41-137.68c-23.26-47.67-47.4-94.9-72.42-141.67
				c-24.69-46.16-49.73-92.34-76.71-137.21c-10.61-17.65-24.29-35.21-46.04-38.21c-21.64-2.99-41.47,9.33-58.16,21.62
				c-9.3,6.85-18.25,14.16-27.52,21.06c-6.92,5.15-0.17,16.92,6.84,11.7c17.25-12.84,33.8-28.55,53.78-37.14
				c8.02-3.45,17.07-5.41,25.72-3.44c9.74,2.22,17.22,8.48,23.42,16.08c6.36,7.81,11.25,16.78,16.28,25.47
				c6.27,10.81,12.49,21.65,18.66,32.52c12.19,21.47,24.2,43.06,36.02,64.74c23.98,44.01,47.19,88.43,69.62,133.25
				c11.09,22.16,21.98,44.41,32.68,66.76c9.98,20.85,20.35,42.8,21.65,66.26c2.27,40.88-26.09,72.6-55.61,97.02
				c-15.64,12.94-32.21,26.01-50.4,35.17c-9.35,4.7-19.71,8.29-30.3,7.74c-9.81-0.51-18.24-5.43-24.92-12.39
				c-7.25-7.55-12.51-16.76-17.89-25.66c-6.71-11.11-13.42-22.21-20.13-33.32c-13.25-21.93-26.5-43.86-39.75-65.79
				c-26.37-43.63-52.94-87.15-79.08-130.92c-22.68-38-45.25-79.27-46.22-124.64c-0.78-36.32,16.02-67.78,42.42-91.94
				c7.49-6.85,15.5-13.02,23.86-18.77C728.84,1094.63,722.07,1082.88,714.86,1087.84L714.86,1087.84z"/>
		</g>
	</g>
</g>
<g id="Ebene_6">
	<g>
		<path class="st2" d="M215.47,875.09c102.03,160.67,307.88,195.62,435.15,111.73c170.57-112.43,204.33-284.3,111.02-461.83
			c-60.07-114.3-267.41-200.84-430.9-95.53C112.73,569.89,169.17,802.88,214.28,873.18"/>
		<g>
			<path d="M209.61,878.51c38.91,61,95.83,108.61,163.09,135.4c60.94,24.27,129.45,30.72,193.52,15.9
				c30.31-7.01,59.7-18.97,85.86-35.86c33.75-21.78,65.11-48.07,91.2-78.67c46.8-54.89,74.41-123.1,75.97-195.45
				c0.8-36.99-4.93-74.08-15.34-109.53c-5.73-19.5-12.91-38.54-21.13-57.12c-7.32-16.54-15.15-33.15-25.2-48.23
				c-37.66-56.52-100.1-94.94-164.12-114.61c-74.32-22.84-155.65-20.14-226.85,11.92c-36.98,16.66-71.06,41.12-100.29,69.14
				c-24.98,23.94-46.54,51.65-62.87,82.2c-27.8,52.03-39.95,111.29-37.4,170.08c1.98,45.49,11.8,91.71,31.43,132.97
				c3.26,6.86,6.86,13.57,10.95,19.97c4.68,7.33,16.42,0.54,11.7-6.84c-9.18-14.36-15.53-29.05-21.02-44.56
				c-7.4-20.91-12.65-42.59-15.97-64.52c-7.95-52.52-4.02-107.11,13.31-157.42c22.16-64.33,66.66-118.13,121.83-157.22
				c32.93-23.33,69.06-40.81,108.49-49.88c35.98-8.27,73.59-9.59,110.14-4.55c66.95,9.24,133.29,38.9,181.4,86.93
				c10.34,10.32,19.81,21.51,27.88,33.7c9.9,14.95,17.64,31.39,24.89,47.76c15.16,34.27,26.29,70.59,31.54,107.73
				c9.62,68.04-3.18,137.45-38.87,196.38c-19.15,31.62-43.99,59.43-72.01,83.45c-26.07,22.35-54.92,42.75-86.86,55.8
				c-57.38,23.44-121.91,26.41-181.96,12.19c-65.71-15.56-125.53-51.47-170.24-102.07c-11.56-13.09-21.98-27.09-31.37-41.82
				C216.64,864.34,204.91,871.13,209.61,878.51L209.61,878.51z"/>
		</g>
	</g>
	<ellipse class="st3" cx="387.43" cy="753.81" rx="40.15" ry="35.89"/>
	<ellipse class="st4" cx="602.8" cy="642.34" rx="44" ry="37.5"/>
	<ellipse class="st5" cx="399.04" cy="738.81" rx="13.5" ry="12.5"/>
	<ellipse class="st5" cx="611.67" cy="629.84" rx="13.5" ry="12.5"/>
	<ellipse class="st6" cx="383.04" cy="759.31" rx="2.5" ry="5.5"/>
	<ellipse class="st6" cx="598.08" cy="654.31" rx="2.5" ry="5.5"/>
</g>
<g id="Ebene_5">
	<g class="st7">
		<path d="M653.48,1188.91c81.44,144.89,206.59,260.85,352.36,326.45c-18.31,23.95-37.13,48.39-61.83,64.46s-56.85,22.44-82.27,8.29
			c-17.81-9.91-29.95-28.22-41.13-46.05c-68.06-108.5-126.39-224.03-173.97-344.53"/>
		<g>
			<path d="M647.63,1192.33c31.83,56.5,70.47,109.18,114.91,156.41c43.54,46.28,92.73,87.35,146.23,121.65
				c29.93,19.19,61.24,36.19,93.65,50.82c-0.81-3.09-1.62-6.18-2.43-9.27c-22.28,29.14-47.02,62.25-83.66,73.54
				c-16.75,5.16-35.51,5.5-51.17-3.22c-15.9-8.86-26.55-24.5-36.1-39.5c-44.33-69.62-83.93-142.44-119.36-216.97
				c-20.3-42.7-39.14-86.09-56.52-130.06c-3.17-8.02-16.28-4.52-13.07,3.6c32.38,81.92,69.68,161.89,111.94,239.18
				c20.73,37.91,42.48,75.36,65.74,111.77c10.16,15.9,21.55,31.92,37.83,42.09c16.15,10.08,35.63,12.14,54.08,8.71
				c45.52-8.46,75.54-47.73,101.98-82.3c2.07-2.71,0.61-7.9-2.43-9.27c-56.88-25.67-110.44-58.69-159-97.89
				c-49.08-39.61-93.45-85.27-131.54-135.55c-21.83-28.81-41.65-59.1-59.39-90.59C655.05,1177.9,643.34,1184.72,647.63,1192.33
				L647.63,1192.33z"/>
		</g>
	</g>
</g>
<g id="Ebene_8">
	<g class="st7">
		<g>
			<path class="st8" d="M353.9,494.85c-2.1,2.75,0.76-0.95,1.46-1.81c1.13-1.4,2.28-2.78,3.44-4.14c2.65-3.11,5.39-6.15,8.22-9.11
				c5.26-5.52,10.81-10.76,16.61-15.7c1.35-1.15,2.71-2.28,4.09-3.4c0.91-0.74,4.44-3.45,1.7-1.39c3.23-2.42,6.48-4.8,9.81-7.07
				c6.22-4.23,12.66-8.15,19.28-11.73c3.08-1.67,6.19-3.26,9.34-4.78c1.8-0.87,3.61-1.71,5.42-2.53c0.68-0.31,1.37-0.59,2.05-0.91
				c1.98-0.93-2.72,1.08,0.5-0.22c6.91-2.78,13.91-5.29,21.06-7.4c7.1-2.09,14.31-3.82,21.6-5.17c1.69-0.31,3.39-0.6,5.09-0.87
				c1.45-0.23,5.52-0.74,1.77-0.29c3.9-0.47,7.81-0.87,11.73-1.14c7.34-0.5,14.7-0.6,22.05-0.28c3.43,0.15,6.85,0.39,10.27,0.72
				c1.71,0.17,3.41,0.38,5.12,0.57c2.71,0.29-3.12-0.51-0.42-0.05c1.21,0.21,2.43,0.37,3.64,0.57c13.78,2.31,27.28,6.16,40.25,11.35
				c0.54,0.22,3.38,1.37,1.13,0.44c-2.1-0.86,0.13,0.06,0.46,0.21c1.74,0.77,3.48,1.55,5.2,2.35c3.23,1.52,6.43,3.12,9.58,4.8
				c6.33,3.38,12.5,7.08,18.46,11.06c3,2,5.95,4.08,8.84,6.23c0.58,0.43,1.15,0.87,1.73,1.3c2.13,1.56-2.28-1.84-0.22-0.17
				c1.5,1.22,3.02,2.41,4.51,3.64c5.6,4.64,10.97,9.55,16.1,14.71c5.68,5.7,11.05,11.7,16.11,17.97c0.61,0.76,1.22,1.53,1.83,2.3
				c-1.55-1.94-0.73-0.96,0.31,0.42c1.18,1.57,2.34,3.15,3.47,4.75c2.42,3.41,4.76,6.88,6.99,10.41c4.49,7.1,8.6,14.45,12.28,22
				c0.87,1.79,1.72,3.58,2.54,5.39c0.55,1.21,2.58,5.97,1.16,2.53c1.72,4.16,3.32,8.35,4.81,12.6c3.12,8.9,12.49,15.77,22.23,12.62
				c8.79-2.84,15.97-12.68,12.62-22.23c-21.54-61.33-66.98-114.7-126.41-142.14c-29.62-13.68-61.64-21.2-94.36-20.64
				c-33.73,0.57-66.71,9.06-97.07,23.57c-34.76,16.62-64.29,41.92-87.59,72.42c-5.76,7.54-1.42,20.55,6.48,24.72
				C338.74,506.37,347.75,502.9,353.9,494.85L353.9,494.85z"/>
		</g>
	</g>
	<g class="st7">
		<g>
			<path class="st8" d="M743.21,619.48c9.45,0,18.5-8.31,18.07-18.07c-0.44-9.79-7.94-18.07-18.07-18.07
				c-9.45,0-18.5,8.31-18.07,18.07C725.58,611.2,733.09,619.48,743.21,619.48L743.21,619.48z"/>
		</g>
	</g>
	<g class="st7">
		<path class="st9" d="M788.31,1081.67c57.37,102.73,114.74,205.46,172.1,308.2"/>
		<g>
			<path class="st8" d="M772.71,1090.79c44.73,80.1,89.45,160.19,134.18,240.29c12.64,22.64,25.28,45.27,37.92,67.91
				c4.61,8.26,16.63,11.7,24.72,6.48c8.36-5.39,11.42-15.89,6.48-24.72c-44.73-80.1-89.45-160.19-134.18-240.29
				c-12.64-22.64-25.28-45.27-37.92-67.91c-4.61-8.26-16.63-11.7-24.72-6.48C770.83,1071.46,767.77,1081.95,772.71,1090.79
				L772.71,1090.79z"/>
		</g>
	</g>
	<g class="st7">
		<g>
			<path class="st8" d="M976.29,1457.87c9.45,0,18.5-8.31,18.07-18.07c-0.44-9.79-7.94-18.07-18.07-18.07
				c-9.45,0-18.5,8.31-18.07,18.07C958.66,1449.59,966.16,1457.87,976.29,1457.87L976.29,1457.87z"/>
		</g>
	</g>
</g>
<g id="Ebene_13">
</g>
<g id="Ebene_11">
	
		<ellipse transform="matrix(0.8994 -0.4372 0.4372 0.8994 -323.3112 249.5771)" class="st10" cx="380.54" cy="827.17" rx="40" ry="17"/>
	
		<ellipse transform="matrix(0.8994 -0.4372 0.4372 0.8994 -223.312 366.8746)" class="st10" cx="685.36" cy="668.57" rx="40" ry="17"/>
	<g>
		<g>
			<path d="M565.27,608.78c5.02-6.71,13.16-10.49,21.43-10.69c9.64-0.24,9.67-15.24,0-15c-13.99,0.34-26.06,7-34.38,18.12
				c-2.44,3.27-0.5,8.35,2.69,10.26C558.82,613.75,562.86,612.01,565.27,608.78L565.27,608.78z"/>
		</g>
	</g>
	<g>
		<g>
			<path d="M344.78,712.17c4.39-8.02,12.31-12.86,21.48-12.86c9.65,0,9.67-15,0-15c-14.28,0-27.56,7.74-34.43,20.29
				C327.19,713.07,340.14,720.65,344.78,712.17L344.78,712.17z"/>
		</g>
	</g>
	<g>
		<g>
			<path d="M468.65,851.01c27.64,23.65,67.2,31.21,101.79,19.93c34.5-11.25,59.66-41.02,67.24-76.28
				c4.22-19.62,3.21-40.36-4.11-59.13c-1.47-3.76-5.04-6.41-9.23-5.24c-3.59,1.01-6.72,5.42-5.24,9.23
				c11.17,28.65,6.37,61.43-11.29,86.46c-18.36,26.03-50.07,37.8-81.2,34.51c-17.23-1.82-34.19-8.82-47.36-20.09
				C471.96,834.15,461.3,844.72,468.65,851.01L468.65,851.01z"/>
		</g>
	</g>
</g>
<g id="Ebene_9">
</g>
<g id="Ebene_10">
	<g>
		<g id="Ebene_7_1_">
			<g>
				<path class="st11" d="M814.13,926.39c-14.91,9.53-13.08,34.46,3.13,42.51c-32.44,59.63-9.67,141.25,50.17,179.83
					c18.98,12.24,41.45,20.47,64.31,20.26c42.21-0.38,79.06-30.22,95.03-66.5c6.1-13.86,9.68-28.59,13.22-43.23
					c7.56-31.22,15.12-62.44,22.69-93.65c2.11-8.68,4.21-17.72,2.12-26.48c-4.37-18.26-24.84-28.77-43.64-35.31
					c-45.97-16-95.39-22.92-144.01-20.15c-13.88,0.79-28.05,2.46-40.28,8.46c-12.23,6.01-22.3,17.15-23.07,30.14"/>
				<g>
					<path class="st11" d="M813.41,921.93c-17.24,11.6-21.25,40.79-0.16,51.87c-0.04-1.94-0.08-3.88-0.12-5.82
						c-23.05,42.87-20.1,95.81,4.98,138.19c27.02,45.67,85.53,81.6,141.41,63.16c25.79-8.5,46.96-26.59,61.4-47.92
						c17.88-26.41,22.91-58.72,30.21-88.83c4.03-16.67,8.08-33.33,12.11-50c1.99-8.21,4.13-16.39,5.9-24.65
						c1.56-7.29,2.51-15.05,0.6-22.43c-6.81-26.29-40.61-36.18-64.75-43.13c-33.76-9.73-68.99-14.63-104.13-14.7
						c-30.5-0.06-67.35,1.35-85.36,27.85c-3.8,5.6-6.23,11.89-6.78,18.57c-0.23,2.7,1.82,4.09,4.5,3.26
						c2.82-0.88,5.45-4.14,5.68-6.93c2.4-28.87,43-31.12,66.47-31.81c32.94-0.97,66.06,2.58,98.12,10.34
						c14.66,3.54,29.44,7.72,43.33,13.49c10.67,4.43,21.91,10.68,28.4,20.08c8.51,12.32,4.51,25.99,1.34,39.11
						c-3.71,15.35-7.44,30.69-11.15,46.04c-3.77,15.54-7.5,31.08-11.3,46.61c-3.45,14.1-7.03,28.5-13.52,41.65
						c-10.08,20.42-26.9,38.27-48.42,48.61c-49.43,23.76-107.02-4.23-136.64-44.5c-26.64-36.23-35.81-84.22-20.72-125.59
						c1.84-5.03,4.04-9.89,6.6-14.64c0.71-1.33,1.93-4.74-0.12-5.82c-6.82-3.59-10.94-9.81-11.96-16.97
						c-0.82-5.7,0.27-12.64,5.54-16.18c2.33-1.57,4.99-4.58,4.35-7.52C818.61,920.57,815.48,920.54,813.41,921.93L813.41,921.93z"/>
				</g>
			</g>
			<g>
				<g>
					<path class="st11" d="M898.22,1178.79c5.14,0.69,11.69-9.92,6.05-10.67C899.13,1167.43,892.57,1178.04,898.22,1178.79
						L898.22,1178.79z"/>
				</g>
			</g>
			<g>
				<g>
					<path class="st11" d="M889.59,1180.44c3.04,9.3,11.87,16.21,22.54,15.72c11.12-0.52,20.41-8.85,23.75-18.35
						c0.46-1.33,0.63-4.73-1.75-4.86c-11.08-0.61-22.16-1.21-33.24-1.82c-3.14-0.17-5.77,1.89-7.16,4.41
						c-0.77,1.39-2.07,6.08,1.11,6.25c11.08,0.61,22.16,1.21,33.24,1.82c-0.58-1.62-1.17-3.23-1.75-4.86
						c-4.37,12.43-23.36,5.41-26.58-4.46C897.71,1168.1,888.12,1175.95,889.59,1180.44L889.59,1180.44z"/>
				</g>
			</g>
		</g>
		<g id="Ebene_5_1_">
			<g>
				<path class="st12" d="M1064.85,911.47c10.88-84.27,74.8-152.37,138.74-211.8c63.94-59.43,133.37-119.6,160.83-200.24
					c34.72-101.98-9.66-220.88-96.69-292.72c-87.04-71.84-209.95-98.77-323.66-84.32c-70.88,9.01-140.03,33.53-194.88,75.8
					c-54.85,42.27-107.15,111.35-115.89,177.75c-12.11,92.03,46.54,173.83,92.7,256.9c46.16,83.07,95.2,170.89,89.79,263.58
					c80.27-22.5,170.42-14.26,245.66,22.45"/>
				<g>
					<path class="st12" d="M1069.93,909.64c9.69-73.1,59.92-133.11,112.43-184.38c52.84-51.58,111.61-98.65,152.92-159.52
						c19.57-28.83,34.36-60.58,41.35-94.36c6.43-31.06,6.15-63.41,0.23-94.73c-11.94-63.09-46.41-122.73-96.25-167.22
						c-53.94-48.15-124.74-77.97-197.27-89.92c-74.27-12.25-151.73-6.59-222.39,16.27c-35.2,11.39-68.86,27.31-98.79,47.94
						c-29.52,20.36-55.49,45.19-77.27,72.76c-22.11,27.97-40.6,59.32-50.6,93.09c-9.58,32.36-9.83,66.5-2.59,99.59
						c14.99,68.45,56.87,128.95,90.98,190.33c36.25,65.23,74.21,132.56,85.34,205.93c2.66,17.53,3.64,35.2,2.66,52.82
						c-0.15,2.76,1.69,4.04,4.5,3.26c61.74-17.15,129.09-15.94,191.04,2.44c17.61,5.23,34.75,11.84,51.18,19.81
						c5.02,2.43,12.62-7.57,8.03-9.79c-59.57-28.9-127.75-40.57-193.79-33.34c-18.76,2.06-37.25,5.68-55.3,10.7
						c1.5,1.09,3,2.17,4.5,3.26c4.01-72.47-24.34-141.97-57.93-206.59c-16.8-32.3-34.75-64.11-53.05-95.7
						c-17.74-30.63-35.62-61.33-49.58-93.63c-13.4-31-22.94-63.8-23.53-97.22c-0.6-33.75,8.99-66.08,25.04-95.86
						c32.66-60.62,86.79-111.25,151.72-141.53c65.95-30.74,141.95-43.73,215.96-39.25c73.25,4.44,146.37,25.95,206.8,66.41
						c56.4,37.77,98.94,91.89,120.27,153.45c21.27,61.4,19.44,127.8-9.8,185.77c-32.17,63.78-88.34,112.96-141.01,161.78
						c-53.5,49.59-107.45,103.56-133.34,171.28c-6.14,16.07-10.43,32.78-12.68,49.78c-0.36,2.71,1.91,4.06,4.5,3.26
						C1067.19,915.65,1069.57,912.44,1069.93,909.64L1069.93,909.64z"/>
				</g>
			</g>
		</g>
		<g id="Ebene_6_1_">
			<g>
				<path class="st13" d="M1270.19,343.05c-35.85-61.7-106.31-130.45-177.76-153.02s-186.91,2.27-250.7,38.09
					c-88.21,49.54-119.76,174.47-99.74,269.98c17.33,82.71,109.48,128.05,196.64,149.83c87.15,21.78,196.64,23.67,258.53-36.12
					c61.9-59.79,92.25-186.19,73-268.55"/>
				<g>
					<path class="st13" d="M1274.91,338.95c-15.13-25.91-34.04-49.91-55.24-71.8c-22.09-22.81-47.04-43.55-74.88-59.99
						c-24.12-14.24-50.39-25-78.59-28.85c-28.29-3.87-57.24-2.62-85.3,1.2c-29.62,4.04-58.86,11.03-86.82,20.75
						c-24.65,8.56-49.23,19.2-70.01,34.33c-42.13,30.69-68.29,77.21-81.63,125.1c-6.9,24.75-10.69,50.31-11.25,75.98
						c-0.54,24.68,1.11,50.34,7.93,74.41c13.86,48.95,55.04,84.8,101.33,108.49c48.53,24.84,103.68,40.06,158.21,46.08
						c54.35,6.01,112.26,2.88,160.84-21.47c47.51-23.81,76.55-68.53,95.14-114.54c19.68-48.7,29.52-102.6,25.59-155.03
						c-0.84-11.22-2.44-22.4-4.98-33.42c-1.44-6.25-11.21,1.53-10.15,6.13c11.04,47.8,5.74,98.87-7.2,145.45
						c-6.76,24.33-15.92,48.14-28.35,70.37c-11.14,19.93-24.95,38.98-43.07,53.88c-39.46,32.43-95,41.48-146.52,40.36
						c-53.48-1.17-107.61-13.05-157.25-32.32c-47.08-18.28-94.22-46.17-119.79-88.87c-12.64-21.11-17.74-44.28-20.15-68.01
						c-2.49-24.44-1.76-49.09,1.81-73.3c6.98-47.28,25.1-94.7,58.88-130.73c15.97-17.03,35.61-29.91,57.31-39.86
						c24.8-11.38,51.26-19.92,78.17-26.03c52.29-11.87,111.53-17.53,162.98,2.55c28.35,11.07,54.08,28.03,77.1,47
						c23.92,19.71,45.34,42.13,63.74,66.45c8.26,10.9,15.87,22.22,22.71,33.93C1268.31,352.03,1277.42,343.25,1274.91,338.95
						L1274.91,338.95z"/>
				</g>
			</g>
		</g>
		<g id="Ebene_3">
			<g>
				<g>
					<path class="st14" d="M1067.55,927.58c9.23-36.55,24.56-71.2,44.57-103.56c19.57-31.66,43.23-60.88,68.24-88.88
						c25.72-28.79,52.4-56.71,81.64-82.42c28.38-24.95,58.17-49.55,79.9-80.13c38.27-53.84,50.33-121.37,40.22-185.49
						c-10.17-64.5-42.29-126-91.68-172.71c-52.77-49.89-122.37-82.41-194.91-97.17c-73.74-15-150.86-11.89-222.39,8.47
						c-72.33,20.59-139.47,59.81-185.16,116.43c-46.32,57.39-71.2,132.17-58.52,204.77c6.42,36.76,22.38,71.48,40.54,104.57
						c18.25,33.25,38.38,65.56,55.99,99.12c32.48,61.87,57.58,126.07,73.81,193.11c4.51,18.63,8.45,37.37,11.99,56.17
						c1.18,6.24,11.02-1.51,10.15-6.13c-12.99-68.94-32.33-136.55-61.84-201.25c-14.6-31.99-31.1-63.26-48.81-93.89
						c-18.82-32.56-38.76-64.75-53.56-99.12c-14.61-33.94-22.84-69.7-21.06-106.14c1.73-35.52,11.75-70.39,28.41-102.07
						c33.17-63.06,91.35-110.44,159.52-138.87c67.39-28.11,143.29-38.85,217.25-31.63c72.98,7.11,144.96,31.32,203.96,73.38
						c56.14,40.02,97.43,95.65,116.87,158.93c18.52,60.31,17.88,126.91-9.33,184.12c-15.16,31.9-38.67,57.78-65.21,81.86
						c-14.14,12.83-28.75,25.17-42.91,37.98c-13.89,12.56-26.83,25.86-39.66,39.36c-51.68,54.4-101.06,112.12-130.18,180.51
						c-7.14,16.76-12.93,34.02-17.37,51.61C1056,936.43,1066.23,932.83,1067.55,927.58L1067.55,927.58z"/>
				</g>
			</g>
			<g>
				<g>
					<path class="st14" d="M809.65,919.44c2.47,7.1,9.75,12.12,16.39,15.65c11.02,5.87,23.28,9.6,35.43,12.66
						c37.44,9.44,76.57,13.06,115.02,15.43c11.83,0.73,23.67,1.29,35.52,1.69c10.93,0.38,22.72,1.78,33.49-0.13
						c8.84-1.57,17.31-5.28,22.88-12.03c5.85-7.07,6.89-16.4,2.24-24.43c-4.93-8.5-14.21-14.78-22.83-19.71
						c-9.78-5.59-20.44-9.78-31.28-13.12c-23.1-7.12-47.36-11.39-71.43-13.81c-26.97-2.71-54.22-2.84-81.11-0.26
						c-12.42,1.19-26.64,1.82-37.95,7.06c-10.09,4.68-18.39,14.6-16.75,25.69c0.43,2.93,3.81,2.52,5.8,1.4
						c2.51-1.41,4.77-4.66,4.35-7.52c-1.37-9.26,10.7-11.77,18.11-13c10.78-1.77,21.73-2.9,32.66-3.67
						c22.32-1.58,44.81-1.33,67.15,0.82c21.38,2.06,42.69,5.73,63.44,11.22c19.33,5.12,39.82,12.41,54.44,25.95
						c4.63,4.28,11.68,13.11,6.54,19.09c-4.47,5.2-14.25,6.23-20.88,6.3c-21.48,0.23-43.22-1.16-64.67-2.61
						c-35.04-2.36-70.49-5.9-104.73-14.05c-12.23-2.91-24.76-6.33-35.96-11.99c-6.82-3.44-14.04-7.82-16.49-14.85
						c-0.99-2.82-5.43-0.51-6.72,0.58C810.11,913.72,808.68,916.62,809.65,919.44L809.65,919.44z"/>
				</g>
			</g>
			<g>
				<g>
					<path class="st14" d="M815.72,918.04c-20.67,7.49-26.97,32.67-14.48,49.4c15.62,20.93,45.27,23.76,69.91,26.79
						c29.1,3.57,58.37,5.4,87.62,6.59c14.89,0.61,29.78,1.04,44.67,1.44c12.12,0.33,24.47,1.02,36.15-2.33
						c11.35-3.26,19.34-10.79,23.99-20.87c3.8-8.24,6.39-19.75,0.26-27.8c-3.56-4.66-12.42,4.3-9.43,8.22
						c4.2,5.51,3.08,12.86,0.47,18.69c-3.12,6.96-8.34,10.35-16.17,12.11c-10.19,2.3-21.12,1.47-31.54,1.2
						c-12.56-0.34-25.11-0.7-37.67-1.17c-25.28-0.95-50.57-2.34-75.76-4.9c-12.06-1.22-24.13-2.66-36.11-4.54
						c-11.28-1.77-22.95-4.14-32.89-9.77c-9.05-5.13-17.38-13.16-19.47-23.14c-1.63-7.75,0.93-16.7,9.27-19.73
						c2.85-1.03,5.45-4.02,5.68-6.93C820.43,918.67,818.45,917.05,815.72,918.04L815.72,918.04z"/>
				</g>
			</g>
			<g>
				<g>
					<path class="st14" d="M802.84,969.87c-4.87,8.32-7.69,17.95-8.83,27.39c-1.08,9.01-0.19,17.69,6.04,25.11
						c16.61,19.78,47.54,17.49,71.31,18.53c28.71,1.26,57.42,2.51,86.12,3.77c14.06,0.61,28.12,1.23,42.18,1.85
						c11.6,0.51,24.12,2.05,35.19-1.8c24.33-8.43,23.8-36.4,18.64-56.32c-1.62-6.25-11.33,1.56-10.15,6.13
						c2.14,8.26,3.59,16.91,2.64,25.36c-0.9,8.06-4.15,13.57-12.98,15.49c-10.04,2.18-21.15,0.72-31.38,0.27
						c-12.89-0.56-25.78-1.13-38.66-1.69c-25.19-1.1-50.39-2.2-75.57-3.3c-12.71-0.56-25.46-0.88-38.16-1.74
						c-11.15-0.76-22.8-2.43-32.28-8.52c-8.29-5.32-13.45-12.85-13.13-22.28c0.3-9.01,2.68-18.52,7.29-26.39
						c1.11-1.9,1.81-5.41-1.11-6.25C807.09,964.61,804,967.89,802.84,969.87L802.84,969.87z"/>
				</g>
			</g>
			<g>
				<g>
					<path class="st14" d="M804.34,1016.48c-11.91,11.73-13.9,32-8.1,47.04c7.98,20.69,38.64,19.9,57.63,20.54
						c29.78,1,59.56,2,89.35,3.01c14.74,0.49,29.49,1,44.23,1.49c11.98,0.4,24.37,1.53,36.06-1.23c12.1-2.85,21.44-10.18,25.2-21.43
						c3.56-10.67,2.82-22.79-0.62-33.51c-1.99-6.21-11.59,1.62-10.15,6.13c2.65,8.28,3.87,17.47,1.91,25.94
						c-0.66,2.85-1.7,6.09-4.08,8.09c-3.28,2.74-8.14,4.08-12.4,4.79c-10.53,1.77-21.55,0.79-32.21,0.43
						c-12.68-0.43-25.36-0.86-38.04-1.28c-25.66-0.86-51.31-1.73-76.97-2.59c-12.33-0.41-24.77-0.38-37.06-1.53
						c-9.74-0.91-21.87-2.85-29.07-9.85c-5.17-5.02-6.41-13.34-6.51-19.92c-0.09-5.89,0.81-15.11,4.83-19.07
						c1.78-1.75,4.31-5.06,2.71-7.63C809.55,1013.45,805.87,1014.98,804.34,1016.48L804.34,1016.48z"/>
				</g>
			</g>
			<g>
				<g>
					<path class="st14" d="M806.94,1070.66c-12.78,10.98-10.85,32.19,4.52,40.62c9.39,5.16,20.38,6.31,30.88,7.77
						c12.46,1.72,24.94,3.45,37.4,5.17c24.94,3.45,49.88,6.89,74.81,10.34c21.4,2.95,44.98,8.28,64.87-1.88
						c9.37-4.79,16.76-12.99,19.44-22.77c3.12-11.34,0.93-22.98-3.11-33.97c-1.03-2.81-5.41-0.54-6.72,0.58
						c-2.22,1.89-3.74,4.84-2.71,7.63c3.02,8.22,5.15,17.68,3.11,26.26c-1.59,6.71-6.43,11.28-13.03,14.02
						c-17.6,7.33-39.22,1.75-57.55-0.79c-20.59-2.85-41.18-5.69-61.76-8.54c-20.35-2.81-40.93-4.98-61.16-8.57
						c-8.51-1.51-19.38-4.07-24.17-11.62c-2.73-4.29-5.37-13.3-0.81-17.21c1.88-1.61,4.25-5.16,2.71-7.63
						C812.1,1067.53,808.56,1069.27,806.94,1070.66L806.94,1070.66z"/>
				</g>
			</g>
			<g>
				<g>
					<path class="st14" d="M830.62,1117.02c2.52,14.25,8.63,27.71,20.02,37.86c9.91,8.84,22.82,14.23,35.79,17.69
						c27.16,7.24,56.87,7.73,82.18-4.46c15.15-7.3,26.88-19.06,32.78-34.09c0.89-2.26,0.04-5-2.92-4.91
						c-3.14,0.1-5.69,3.44-6.64,5.87c-8.84,22.53-36.39,31.04-60.12,31.97c-12.37,0.49-24.64-1.41-36.63-4.38
						c-11.78-2.92-23.29-7.24-32.85-14.53c-12.34-9.42-18.93-22.76-21.47-37.15C839.68,1104.66,829.81,1112.4,830.62,1117.02
						L830.62,1117.02z"/>
				</g>
			</g>
			<g>
				<path class="st15" d="M887.84,1168.46c-2.48,10.16,8.23,26.52,22.32,26.92c11.19,0.32,28.39-8.87,31.12-19.8"/>
				<g>
					<path class="st14" d="M882.74,1170.29c-2.8,13.64,9.83,29.9,24.97,30.45c15.74,0.58,34.23-11.45,38.35-25.64
						c0.66-2.29,0.19-5.01-2.92-4.91c-2.95,0.09-5.93,3.43-6.64,5.87c-2.56,8.85-16.88,15.3-26.2,13.67
						c-10.21-1.79-19.34-13.51-17.37-23.1c0.56-2.74-2.05-4.02-4.5-3.26C885.33,1164.32,883.33,1167.46,882.74,1170.29
						L882.74,1170.29z"/>
				</g>
			</g>
		</g>
		<g id="Ebene_8_1_">
			<g class="st16">
				<path class="st17" d="M834.2,892.26c-11.53,0.63-15.9,16.03-9.62,25.23c6.28,9.2,18.26,13.21,29.42,16.25
					c47.67,13.01,97.08,20.1,146.51,21.02c23.33,0.43,48.42-1.08,66.45-14.62c-79.02,1.66-172.7,4.19-231.17-44.67"/>
				<g>
					<path class="st17" d="M836.07,886.87c-15.65,1.44-23.43,20.09-17.37,32.67c3.6,7.5,11.7,12.2,19.41,15.35
						c9.93,4.07,20.8,6.39,31.24,8.88c44.81,10.7,91.49,16.76,137.59,16.43c21.32-0.15,43.64-3.07,60.75-15.6
						c2.29-1.68,7.96-10,1.14-9.86c-61.42,1.29-127.42,4.21-185.67-18.8c-15.78-6.24-30.48-14.72-43.35-25.37
						c-4.04-3.34-12.23,6.32-8.03,9.79c48.57,40.2,117.61,45.43,178.94,45.83c18.14,0.12,36.27-0.28,54.39-0.67
						c0.38-3.29,0.76-6.57,1.14-9.86c-13.08,9.58-29.44,12.63-45.83,13.47c-19.31,1-38.93-0.23-58.21-1.93
						c-20.34-1.79-40.6-4.63-60.66-8.48c-10.17-1.96-20.28-4.17-30.33-6.65c-8.85-2.18-17.96-4.24-26.43-7.61
						c-7.26-2.89-15.69-7.97-17.53-15.68c-1.06-4.43-0.67-10.61,5.1-11.14C837.27,897.2,842.78,886.25,836.07,886.87L836.07,886.87z
						"/>
				</g>
			</g>
			<g class="st16">
				<path class="st17" d="M812.44,932.18c-10.31,7.91-7.21,24.61,2.73,33.25c9.94,8.64,24.02,11.31,37.32,13.4
					c56.24,8.82,113.1,13.84,169.96,15c14.62,0.3,32.62-1.67,37.81-14.36c-39.38,7.41-214.03,11.84-247.04-50.37"/>
				<g>
					<path class="st17" d="M810.43,928.65c-13.19,10.83-11.94,30.49,0.72,41.68c7.29,6.43,17.3,9.73,26.83,11.77
						c11.23,2.41,22.75,3.82,34.13,5.4c48.06,6.64,96.51,10.52,144.97,11.65c18.95,0.44,39.85-1.85,47.96-20.16
						c0.85-1.92,0.09-5.47-2.92-4.91c-11.81,2.2-24.02,2.94-36.06,3.51c-18.1,0.87-36.28,0.85-54.42,0.07
						c-38.42-1.66-79.46-6.03-114.96-21.38c-15.59-6.74-30.81-16.6-38.74-31.28c-2.65-4.89-11.81,3.84-9.43,8.22
						c15.87,29.4,55.98,40.9,87.64,47.2c38.93,7.76,79.38,9.6,118.91,8.25c14.45-0.49,29.18-1.17,43.35-3.8
						c-0.97-1.64-1.95-3.28-2.92-4.91c-2.08,4.68-8.91,6.46-13.73,7.34c-7.48,1.37-15.12,1.21-22.73,1.03
						c-21.3-0.52-42.6-1.61-63.87-3.23c-20.78-1.58-41.51-3.69-62.18-6.29c-10.48-1.32-20.95-2.78-31.4-4.36
						c-8.96-1.36-18.07-2.6-26.7-5.4c-8.51-2.76-16.79-7.43-20.95-15.2c-2.87-5.34-4.87-13.73,0.49-18.13
						c1.91-1.57,4.22-5.19,2.71-7.63C815.57,925.51,812.07,927.31,810.43,928.65L810.43,928.65z"/>
				</g>
			</g>
			<g class="st16">
				<path class="st17" d="M808.57,980.62c-12.93,6.87-10.14,26.74,1.51,35.76s27.77,10.19,42.74,10.96
					c51.63,2.66,103.27,5.32,154.9,7.98c15.48,0.79,34.24,0.01,41.6-12.62c-66.1,2.4-215.68,9.24-237.5-48.06"/>
				<g>
					<path class="st17" d="M807.84,976.16c-14.09,8.05-16.56,26.35-7.54,39.03c11.36,15.98,34.84,16.73,53.01,17.67
						c49.58,2.55,99.16,5.1,148.74,7.66c19.29,0.99,40.67,0.42,51.41-16.9c1.42-2.29,1.63-6.46-2.28-6.32
						c-33.89,1.23-67.81,2.32-101.76,0.82c-18.63-0.83-37.29-2.44-55.69-5.58c-15.92-2.72-32.19-6.48-46.77-13.37
						c-13.24-6.26-25.19-15.28-30.41-28.64c-1.91-4.89-11.24,3.61-9.43,8.22c10.5,26.88,45.03,37.42,71.97,42.86
						c37.45,7.57,76.31,8.39,114.33,7.99c18.04-0.2,36.04-0.85,54.05-1.51c-0.76-2.11-1.52-4.21-2.28-6.32
						c-3.01,4.86-9.62,6.65-15.22,7.51c-7.8,1.21-15.74,0.87-23.62,0.46c-21.12-1.09-42.25-2.17-63.37-3.26
						c-21.41-1.1-42.84-2.21-64.25-3.31c-10.06-0.52-20.14-0.89-30.19-1.62c-8.64-0.63-17.57-1.68-25.62-4.99
						c-7.66-3.14-13.96-8.49-16.56-16.07c-1.74-5.07-2.49-12.33,2.94-15.43c2.42-1.38,4.96-4.71,4.35-7.52
						C813.01,974.66,809.97,974.94,807.84,976.16L807.84,976.16z"/>
				</g>
			</g>
			<g class="st16">
				<path class="st17" d="M806.83,1031.83c-8.06,8.38-5.67,22.66,2.84,30.92c8.51,8.26,21.35,11.37,33.52,11.51
					c12.16,0.14,24.12-2.27,36.21-3.27c27.87-2.31,55.87,2.91,83.81,5.26c27.94,2.35,57.53,1.5,81.53-11.62
					c-52.58,2.53-191.64,11.66-237.87-33.85"/>
				<g>
					<path class="st17" d="M803.64,1029.52c-10.74,11.93-8.27,30.27,4.59,40.37c14.97,11.74,35.85,10.45,53.69,8.27
						c10.49-1.29,20.89-2.4,31.51-2.33c11.1,0.07,22.16,1.07,33.2,2.24c19.8,2.11,39.6,4.82,59.53,4.6
						c20.77-0.23,41.28-3.91,59.3-13.56c2.76-1.48,7.61-10.17,1.14-9.86c-29.94,1.44-59.87,2.86-89.9,2.35
						c-34.7-0.6-70.62-2.91-103.98-13.16c-15.35-4.71-30.45-11.49-41.84-22.55c-3.63-3.52-11.96,5.97-8.03,9.79
						c21.86,21.23,56.64,28.32,86.38,32.33c35.6,4.8,71.76,5.07,107.53,4.02c15.39-0.46,30.76-1.26,46.12-2
						c0.38-3.29,0.76-6.57,1.14-9.86c-30.37,16.28-67.74,12.09-101.27,8.33c-18.73-2.1-37.63-4.2-56.48-3.23
						c-17.9,0.92-36.19,6.21-54.11,2.05c-8.39-1.95-16.9-6.08-21.5-13.25c-3.78-5.9-5.67-14.36-0.65-19.93
						c1.47-1.64,3.18-5.5,0.83-7.21C808.38,1025.14,805.07,1027.94,803.64,1029.52L803.64,1029.52z"/>
				</g>
			</g>
			<g class="st16">
				<path class="st17" d="M810.93,1074.38c-6.41,9.22-0.7,22.53,9.04,29.03c9.74,6.5,22.13,7.97,33.94,9.23
					c41.56,4.45,83.11,8.9,124.67,13.35c19.89,2.13,43.13,3.13,56.11-10.85c-75.86,6.84-162.11,0.4-225.73-40.96"/>
				<g>
					<path class="st17" d="M806.8,1073.45c-8.12,12.67-1.57,28.95,11.65,36.37c7.63,4.29,16.34,6.14,25.02,7.28
						c10.05,1.32,20.17,2.23,30.25,3.31c20.78,2.23,41.56,4.45,62.33,6.68c18.69,2,37.53,4.88,56.32,5.47
						c17.28,0.54,33.69-2.86,45.5-15.12c1.87-1.95,3.5-8.13-1.33-7.7c-59.47,5.29-122.05,2.92-178.63-18.07
						c-15.82-5.87-30.91-13.33-44.95-22.4c-4.58-2.95-12.5,6.91-8.03,9.79c51.35,33.12,114.78,43.63,175.56,43.81
						c17.49,0.05,34.95-0.81,52.33-2.36c-0.45-2.57-0.88-5.14-1.33-7.7c-8.16,8.47-22.7,9.23-34.14,8.98
						c-16.37-0.36-32.84-2.98-49.11-4.73c-18.44-1.97-36.88-3.95-55.31-5.93c-9.37-1.01-18.73-2-28.1-3.01
						c-8.07-0.87-16.24-1.49-24.19-3.18c-8.26-1.76-16.84-4.89-22.19-11.42c-4.16-5.07-7.1-12.46-3.38-18.26
						c1.2-1.86,1.75-5.43-1.11-6.25C810.99,1068.18,808.04,1071.5,806.8,1073.45L806.8,1073.45z"/>
				</g>
			</g>
			<g class="st16">
				<path class="st17" d="M838.02,1118.9c13.57,21.91,36.75,38.53,62.81,45.04c26.06,6.5,54.67,2.81,77.52-10.01
					c-47.07,0.97-94.64-12.79-133.34-38.57"/>
				<g>
					<path class="st17" d="M833.3,1123.01c13.91,22.11,36.78,38.95,63.16,45.92c27.93,7.37,58.08,2.99,82.61-10.54
						c2.82-1.56,7.61-9.97,1.13-9.85c-46.48,0.79-92.9-12.76-131.18-38.07c-4.53-3-12.48,6.85-8.03,9.79
						c39.63,26.19,87.43,39.89,135.5,39.06c0.38-3.29,0.76-6.57,1.14-9.86c-22.69,12.51-50.89,15.55-76.45,8.43
						c-24.38-6.78-45.52-22.58-58.42-43.1C839.7,1109.96,830.65,1118.8,833.3,1123.01L833.3,1123.01z"/>
				</g>
			</g>
			<g class="st16">
				<path class="st17" d="M890.55,1169.72c0.84,8.56,6.92,16.58,15.31,20.2c8.38,3.62,18.75,2.68,26.08-2.36
					c-14.38-3.03-27.48-11.43-35.75-22.92"/>
				<g>
					<path class="st17" d="M885.48,1172.78c1.2,9.52,7.46,18.17,16.86,22.26c9.96,4.32,21.59,2.65,30.33-3.01
						c2.17-1.41,7.58-8.62,2.3-9.8c-13.78-3.08-25.94-10.72-34.06-21.69c-3.48-4.7-12.37,4.25-9.43,8.22
						c8.98,12.13,22.15,20.72,37.45,24.14c0.77-3.27,1.53-6.53,2.3-9.8c-14.34,9.3-33.62-0.76-35.59-16.44
						c-0.37-2.94-3.84-2.5-5.8-1.4C887.28,1166.7,885.12,1169.89,885.48,1172.78L885.48,1172.78z"/>
				</g>
			</g>
		</g>
		<g id="Ebene_4">
			<g>
				<g>
					<path class="st14" d="M836.39,894.12c43.28-43.97,85.66-88.74,126.01-135.08c40.47-46.49,78.95-94.58,113.98-144.86
						c34.6-49.68,66.86-101.54,92.25-156.05c12.71-27.31,23.62-57.94,17.9-88.38c-4.31-22.98-19.53-46.23-42.39-56.97
						c-24-11.27-50.27-5.31-69.98,9.96c-23.25,18.01-33.29,45.88-36.43,73.37c-0.86,7.53-1.24,15.1-1.42,22.68
						c-0.17,7.1,8.86,1.6,9.87-2.31c6.98-27.15,14.38-56.21,4.88-83.93c-7.74-22.6-26.69-41.99-53.04-43.91
						c-26.25-1.91-51.21,10.99-68.25,28.56c-18.44,19.02-29.17,43.38-33.73,68.67c-10.21,56.55,11.87,113.38,29.87,166.98
						c19.18,57.12,39.56,113.91,58.65,171.06c19,56.88,36.91,114.16,50.66,172.29c1.66,7.04,3.26,14.08,4.8,21.14
						c1.36,6.25,11.15-1.52,10.15-6.13c-12.04-55.39-28.24-109.99-45.81-164.14c-17.73-54.61-36.96-108.81-55.65-163.15
						c-9.17-26.66-18.29-53.35-26.84-80.18c-8.69-27.25-16.29-55.07-17.92-83.46c-2.59-45.24,13.91-102.08,64.52-117.94
						c11.41-3.58,23.95-4.3,35.64-0.84c11.56,3.41,21.26,11.03,27.97,20.41c15.89,22.19,14.85,49.15,9.71,74.02
						c-1.49,7.22-3.34,14.37-5.17,21.52c3.29-0.77,6.58-1.54,9.87-2.31c0.62-26.79,3.79-56.14,22.82-77.23
						c15.37-17.04,40.16-25.45,63.27-16.77c22.7,8.52,38.47,30.67,43.3,52.4c6.35,28.56-3.86,57.8-15.88,83.48
						c-24.26,51.83-54.62,101.41-87.39,148.81c-32.95,47.65-69.04,93.33-107,137.53c-37.85,44.07-77.56,86.7-118.27,128.46
						c-4.98,5.11-9.98,10.2-14.97,15.28c-1.75,1.78-4.32,5.04-2.71,7.63C831.17,897.12,834.89,895.65,836.39,894.12L836.39,894.12z"
						/>
				</g>
			</g>
			<g>
				<g>
					<path class="st14" d="M1239.56,268.63c38.23,37.68,58.38,90.36,54.01,141.6c-0.23,2.7,1.82,4.09,4.51,3.26
						c2.83-0.88,5.44-4.14,5.68-6.93c4.58-53.68-16.11-108.24-56.16-147.74C1244.01,255.3,1235.65,264.78,1239.56,268.63
						L1239.56,268.63z"/>
				</g>
			</g>
			<g>
				<g>
					<path class="st14" d="M709.34,398.74c-10.1,45.61-4.39,94.15,15.59,137.3c5.71,12.33,12.61,24.15,20.58,35.36
						c3.37,4.74,12.3-4.19,9.43-8.22c-27.26-38.3-41.59-84.23-40.22-129.84c0.38-12.88,2.02-25.68,4.8-38.25
						c0.61-2.74-2.08-4.02-4.5-3.26C711.89,392.78,709.97,395.91,709.34,398.74L709.34,398.74z"/>
				</g>
			</g>
		</g>
	</g>
	<g>
		<g>
			<path class="st18" d="M1213.27,859.58c12.4,27.52,24.81,55.03,37.21,82.55c4.31,9.57,18.95,12.6,27.36,7.18
				c9.89-6.38,11.79-17.13,7.18-27.36c-12.4-27.52-24.81-55.03-37.21-82.55c-4.31-9.57-18.95-12.6-27.36-7.17
				C1210.55,838.6,1208.65,849.35,1213.27,859.58L1213.27,859.58z"/>
		</g>
	</g>
	<g>
		<g>
			<path class="st18" d="M1374.13,730.92c18,16.4,36,32.79,54,49.19c7.73,7.05,20.74,8.21,28.28,0c7.05-7.68,8.26-20.76,0-28.28
				c-18-16.4-36-32.79-54-49.19c-7.73-7.05-20.75-8.21-28.28,0C1367.08,710.31,1365.87,723.39,1374.13,730.92L1374.13,730.92z"/>
		</g>
	</g>
	<g>
		<g>
			<path class="st18" d="M1488.21,484.57c15.14-5.51,30.28-11.01,45.42-16.52c9.81-3.57,17.48-13.75,13.97-24.6
				c-3.12-9.64-14.08-17.8-24.6-13.97c-15.14,5.51-30.28,11.01-45.42,16.52c-9.81,3.57-17.48,13.75-13.97,24.6
				C1466.73,480.24,1477.69,488.4,1488.21,484.57L1488.21,484.57z"/>
		</g>
	</g>
	<g>
		<g>
			<path class="st18" d="M1397.86,235.75c10.99-12.4,21.99-24.8,32.98-37.2c6.94-7.82,8.29-20.68,0-28.28
				c-7.59-6.97-20.87-8.36-28.28,0c-10.99,12.4-21.99,24.8-32.98,37.2c-6.94,7.82-8.29,20.68,0,28.28
				C1377.16,242.72,1390.45,244.11,1397.86,235.75L1397.86,235.75z"/>
		</g>
	</g>
	<g>
		<g>
			<path class="st18" d="M1198.76,83.14c4.13-8.26,8.26-16.52,12.39-24.77c4.67-9.35,2.8-22.09-7.18-27.36
				c-9.07-4.79-22.37-2.82-27.36,7.18c-4.13,8.26-8.26,16.52-12.39,24.77c-4.67,9.35-2.8,22.09,7.18,27.36
				C1180.46,95.11,1193.77,93.13,1198.76,83.14L1198.76,83.14z"/>
		</g>
	</g>
	<g>
		<g>
			<path class="st18" d="M892.44,40.1c1.33,11.02,2.66,22.03,3.99,33.05c1.25,10.35,8.3,20.52,20,20c9.76-0.44,21.34-8.88,20-20
				c-1.33-11.02-2.66-22.03-3.99-33.05c-1.25-10.35-8.3-20.52-20-20C902.68,20.54,891.1,28.98,892.44,40.1L892.44,40.1z"/>
		</g>
	</g>
	<g>
		<g>
			<path class="st18" d="M681.15,83.14c6.88,15.14,13.76,30.28,20.64,45.42c4.34,9.56,18.93,12.61,27.36,7.18
				c9.87-6.36,11.82-17.14,7.18-27.36c-6.88-15.14-13.76-30.28-20.64-45.42c-4.34-9.56-18.93-12.61-27.36-7.18
				C678.46,62.14,676.51,72.92,681.15,83.14L681.15,83.14z"/>
		</g>
	</g>
	<g>
		<g>
			<path class="st18" d="M527.32,214.16c22.1,13.63,44.2,27.26,66.31,40.89c8.92,5.5,22.4,2.22,27.36-7.18
				c5.17-9.78,2.34-21.49-7.18-27.36c-22.1-13.63-44.2-27.26-66.31-40.89c-8.92-5.5-22.4-2.22-27.36,7.18
				C514.98,196.57,517.8,208.29,527.32,214.16L527.32,214.16z"/>
		</g>
	</g>
</g>
</svg>
