<?xml version="1.0" encoding="utf-8"?>
<!-- Generator: Adobe Adobe Illustrator 24.2.0, SVG Export Plug-In . SVG Version: 6.00 Build 0)  -->
<svg version="1.1" xmlns="http://www.w3.org/2000/svg" xmlns:xlink="http://www.w3.org/1999/xlink" x="0px" y="0px"
	 viewBox="0 0 1700.79 1700.79" style="enable-background:new 0 0 1700.79 1700.79;" xml:space="preserve">
<style type="text/css">
	.st0{fill:#CCCCCC;}
	.st1{fill:#3D4D5A;}
	.st2{fill:#EBF0F2;}
	.st3{stroke:#000000;stroke-width:1.3068;stroke-miterlimit:10;}
	.st4{stroke:#000000;stroke-width:0.3392;stroke-miterlimit:10;}
	.st5{fill:#FFFFFF;stroke:#FFFFFF;stroke-width:0.4472;stroke-miterlimit:10;}
	.st6{fill:#FFFFFF;stroke:#FFFFFF;stroke-width:0.1277;stroke-miterlimit:10;}
	.st7{opacity:0.149;}
	.st8{fill:#FFFFFF;}
	.st9{fill:#DFB2AD;}
	.st10{fill:#E8B1C9;stroke:#E8B1C9;stroke-width:0.9104;stroke-miterlimit:10;}
	.st11{fill:#D15238;}
	.st12{fill:#D15239;}
</style>
<g id="Ebene_7">
	<g>
		<path class="st0" d="M598.08,1039.36c21.07,27.48,35.93,68.15,60.94,93.81c20.3-19.33,94.34-72.33,124.03-82.05
			c-12.71-20.88-26.86-41.46-42.33-61.56c-3.18-4.13-33.18-33.08-38.3-35.26c-7.83-3.33,35.93-8.94-50.81,73.98"/>
		<g>
			<path class="st0" d="M593.29,1042.16c22.88,30.16,35.3,67.36,61.8,94.93c2.12,2.2,5.7,2.03,7.85,0
				c12.73-12.04,27.19-22.42,41.41-32.6c17.98-12.88,36.42-25.31,55.67-36.23c7.85-4.45,15.91-8.92,24.5-11.8
				c3.31-1.11,5.27-4.95,3.32-8.15c-8.61-14.09-17.71-27.87-27.31-41.31c-6.29-8.81-12.41-18.05-20-25.81
				c-6.2-6.33-12.64-12.45-19.17-18.44c-4.75-4.36-10.08-10.39-16.01-13.19c-0.78-0.37-0.36-0.46-0.18,0.03
				c0.38,1.07,1.81,1.73,1.81,3.81c0,1.97-1.06,3.43-2.44,4.34c0.31-0.2-1.75,0.69-0.78,0.37c-0.64,0.21-2.13,0.02-1.41,0.12
				c0,0-1.54-0.7-0.82-0.37c0.26,0.12-1.27-1.01-0.26-0.22c0.12,0.09-0.11-1.06-0.26-0.58c-0.01,0.04,0.15,0.66,0.17,0.67
				c-0.55-0.23,0.34-1.2-0.06,0.12c-0.52,1.73,0.23-0.4-0.04,0.81c-0.99,4.32-1.97,6.13-4.44,10.32
				c-12.44,21.01-31.49,38.64-48.94,55.36c-5.17,4.95,2.69,12.79,7.85,7.85c17.88-17.14,36.88-35.17,49.97-56.44
				c3.92-6.38,9.65-16.55,5.14-24.04c-2.97-4.94-12.56-6.99-14.55,0.09c-1.23,4.37,2.17,6.31,5.18,8.29
				c6.79,4.46,13.71,11.79,19.92,17.7c7.97,7.59,15.2,15.04,21.77,23.87c12.55,16.87,24.32,34.31,35.29,52.25
				c1.11-2.72,2.21-5.43,3.32-8.15c-17.83,5.96-34.31,16.73-50.01,26.82c-19.08,12.26-37.64,25.37-55.56,39.26
				c-7.16,5.54-14.32,11.17-20.9,17.4c2.62,0,5.23,0,7.85,0c-25.78-26.81-37.79-63.32-60.07-92.69
				C598.61,1030.94,588.97,1036.47,593.29,1042.16L593.29,1042.16z"/>
		</g>
	</g>
</g>
<g id="Ebene_2">
	<g>
		<defs>
			<path id="SVGID_1_" d="M244.64,948.48c67.9,85.36,190.06,103.81,289.8,66.62c395.19-147.34,288.67-823.55-129.99-664.79
				C189.38,431.88,97.48,744.99,258.37,943.74"/>
		</defs>
		<clipPath id="SVGID_2_">
			<use xlink:href="#SVGID_1_"  style="overflow:visible;"/>
		</clipPath>
	</g>
	<g>
		<path class="st0" d="M611.67,1069.48C179.65,1220.43-120.2,647.3,308.17,380.65c399.83-248.88,786.1,319.42,438.8,607.07"/>
		<g>
			<path d="M609.86,1062.95c-38.23,13.3-78.09,21.98-118.56,24.13c-36.3,1.93-72.77-1.24-108.06-10.02
				c-33.23-8.26-65.09-21.31-94.57-38.73c-28.58-16.88-54.67-37.7-77.64-61.66c-22.9-23.88-42.5-50.77-58.37-79.79
				c-15.88-29.03-27.85-60.08-35.57-92.26c-7.79-32.48-11.06-65.92-9.66-99.3c1.45-34.42,8.06-68.5,19.39-101.03
				c12.14-34.87,29.87-67.67,51.64-97.46c24.37-33.33,54.09-62.72,86.63-88.06c35.08-27.33,73.89-50.96,115.31-67.32
				c36.26-14.32,74.66-23.3,113.65-25.14c35.81-1.69,71.66,2.5,106.12,12.4c33.53,9.63,65.33,24.52,94.55,43.54
				c29.24,19.04,55.67,42.22,78.82,68.31c23.15,26.09,42.85,55.19,58.7,86.25c15.92,31.19,27.77,64.43,35.02,98.69
				c7.26,34.24,9.66,69.48,6.85,104.38c-2.85,35.4-11.4,70.47-25.25,103.19c-15.05,35.56-36.39,68.4-62.13,97.14
				c-13.75,15.35-28.72,29.57-44.57,42.73c-6.71,5.58,2.92,15.12,9.58,9.58c32.42-26.93,61.04-58.49,83.48-94.22
				c20.19-32.16,35.21-67.66,43.99-104.62c8.41-35.43,11.25-72.19,8.65-108.51c-2.6-36.25-10.33-72.1-22.69-106.26
				c-12.32-34.06-28.97-66.55-49.53-96.37c-20.5-29.74-44.67-56.99-72.12-80.49c-27.3-23.38-57.67-43.24-90.42-58.11
				c-33.39-15.16-68.76-25.15-105.2-29.35c-38.05-4.39-76.73-2-114.1,6.27c-42.03,9.31-82.26,26.2-119.29,48.03
				c-39.28,23.16-76.08,51.3-107.91,83.99c-28.03,28.78-52.34,61.4-70.92,97.06c-16.9,32.44-29.19,67.32-35.87,103.3
				c-6.38,34.39-7.92,69.63-4.35,104.43c3.5,34.2,11.53,67.85,24.03,99.88c12.44,31.88,28.9,62.11,49.2,89.67
				c20.36,27.63,44.17,52.63,71.13,73.9c27.61,21.78,57.95,39.57,90.51,52.89c33.77,13.81,69.54,22.27,105.86,25.6
				c39.22,3.6,78.88,0.84,117.44-7.03c20.3-4.14,40.27-9.76,59.84-16.56C621.65,1073.17,618.13,1060.07,609.86,1062.95
				L609.86,1062.95z"/>
		</g>
	</g>
	<g>
		<g>
			<path d="M605.81,1072.9c16.59,26.52,36,51.16,52.59,77.68c4.61,7.38,16.34,0.58,11.7-6.84c-16.59-26.52-36-51.16-52.59-77.68
				C612.9,1058.69,601.17,1065.48,605.81,1072.9L605.81,1072.9z"/>
		</g>
	</g>
	<g>
		<g>
			<path d="M741.12,991.15c13.03,23.32,28.1,45.42,41.13,68.74c4.26,7.61,15.96,0.79,11.7-6.84c-13.03-23.32-28.1-45.42-41.13-68.74
				C748.56,976.7,736.85,983.52,741.12,991.15L741.12,991.15z"/>
		</g>
	</g>
	<g>
		<path class="st1" d="M718.28,1093.69c-48.52,33.14-72.26,72.45-69.44,121.48c2.82,49.03,28.41,92.51,53.23,133.6
			c44.74,74.05,89.49,148.1,134.23,222.15c8.18,13.53,17.04,27.72,30.69,34.56c25.72,12.87,55.3-5.28,78.87-22.71
			c36.88-27.28,77.44-61.11,80.6-108.77c1.87-28.11-10.16-54.77-22.1-79.73c-49.48-103.39-102.97-204.55-160.29-303.14
			c-8.97-15.42-19.14-31.77-35.13-37.92c-31.08-11.96-60.59,17.39-90.44,39.51"/>
		<g>
			<path d="M714.86,1087.84c-32.58,22.41-61.58,52.62-70.14,92.45c-9.61,44.73,6.39,90.15,27.03,129.38
				c11.64,22.13,24.98,43.34,37.9,64.73c14.11,23.35,28.22,46.71,42.33,70.06c14.11,23.35,28.22,46.71,42.33,70.06
				c13.68,22.64,26.89,45.67,41.16,67.94c11.77,18.38,27.64,34.48,51,34.12c22.84-0.35,43.68-13.96,61.47-26.99
				c32.38-23.73,66.95-51.27,80.39-90.64c16.45-48.2-11.87-95.59-32.41-137.68c-23.26-47.67-47.4-94.9-72.42-141.67
				c-24.69-46.16-49.73-92.34-76.71-137.21c-10.61-17.65-24.29-35.21-46.04-38.21c-21.64-2.99-41.47,9.33-58.16,21.62
				c-9.3,6.85-18.25,14.16-27.52,21.06c-6.92,5.15-0.17,16.92,6.84,11.7c17.25-12.84,33.8-28.55,53.78-37.14
				c8.02-3.45,17.07-5.41,25.72-3.44c9.74,2.22,17.22,8.48,23.42,16.08c6.36,7.81,11.25,16.78,16.28,25.47
				c6.27,10.81,12.49,21.65,18.66,32.52c12.19,21.47,24.2,43.06,36.02,64.74c23.98,44.01,47.19,88.43,69.62,133.25
				c11.09,22.16,21.98,44.41,32.68,66.76c9.98,20.85,20.35,42.8,21.65,66.26c2.27,40.88-26.09,72.6-55.61,97.02
				c-15.64,12.94-32.21,26.01-50.4,35.17c-9.35,4.7-19.71,8.29-30.3,7.74c-9.81-0.51-18.24-5.43-24.92-12.39
				c-7.25-7.55-12.51-16.76-17.89-25.66c-6.71-11.11-13.42-22.21-20.13-33.32c-13.25-21.93-26.5-43.86-39.75-65.79
				c-26.37-43.63-52.94-87.15-79.08-130.92c-22.68-38-45.25-79.27-46.22-124.64c-0.78-36.32,16.02-67.78,42.42-91.94
				c7.49-6.85,15.5-13.02,23.86-18.77C728.84,1094.63,722.07,1082.88,714.86,1087.84L714.86,1087.84z"/>
		</g>
	</g>
</g>
<g id="Ebene_6">
	<g>
		<path class="st2" d="M215.47,875.09c102.03,160.67,307.88,195.62,435.15,111.73c170.57-112.43,204.33-284.3,111.02-461.83
			c-60.07-114.3-267.41-200.84-430.9-95.53C112.73,569.89,169.17,802.88,214.28,873.18"/>
		<g>
			<path d="M209.61,878.51c38.91,61,95.83,108.61,163.09,135.4c60.94,24.27,129.45,30.72,193.52,15.9
				c30.31-7.01,59.7-18.97,85.86-35.86c33.75-21.78,65.11-48.07,91.2-78.67c46.8-54.89,74.41-123.1,75.97-195.45
				c0.8-36.99-4.93-74.08-15.34-109.53c-5.73-19.5-12.91-38.54-21.13-57.12c-7.32-16.54-15.15-33.15-25.2-48.23
				c-37.66-56.52-100.1-94.94-164.12-114.61c-74.32-22.84-155.65-20.14-226.85,11.92c-36.98,16.66-71.06,41.12-100.29,69.14
				c-24.98,23.94-46.54,51.65-62.87,82.2c-27.8,52.03-39.95,111.29-37.4,170.08c1.98,45.49,11.8,91.71,31.43,132.97
				c3.26,6.86,6.86,13.57,10.95,19.97c4.68,7.33,16.42,0.54,11.7-6.84c-9.18-14.36-15.53-29.05-21.02-44.56
				c-7.4-20.91-12.65-42.59-15.97-64.52c-7.95-52.52-4.02-107.11,13.31-157.42c22.16-64.33,66.66-118.13,121.83-157.22
				c32.93-23.33,69.06-40.81,108.49-49.88c35.98-8.27,73.59-9.59,110.14-4.55c66.95,9.24,133.29,38.9,181.4,86.93
				c10.34,10.32,19.81,21.51,27.88,33.7c9.9,14.95,17.64,31.39,24.89,47.76c15.16,34.27,26.29,70.59,31.54,107.73
				c9.62,68.04-3.18,137.45-38.87,196.38c-19.15,31.62-43.99,59.43-72.01,83.45c-26.07,22.35-54.92,42.75-86.86,55.8
				c-57.38,23.44-121.91,26.41-181.96,12.19c-65.71-15.56-125.53-51.47-170.24-102.07c-11.56-13.09-21.98-27.09-31.37-41.82
				C216.64,864.34,204.91,871.13,209.61,878.51L209.61,878.51z"/>
		</g>
	</g>
	<ellipse class="st3" cx="387.43" cy="753.81" rx="40.15" ry="35.89"/>
	<ellipse class="st4" cx="602.8" cy="642.34" rx="44" ry="37.5"/>
	<ellipse class="st5" cx="399.04" cy="738.81" rx="13.5" ry="12.5"/>
	<ellipse class="st5" cx="611.67" cy="629.84" rx="13.5" ry="12.5"/>
	<ellipse class="st6" cx="383.04" cy="759.31" rx="2.5" ry="5.5"/>
	<ellipse class="st6" cx="598.08" cy="654.31" rx="2.5" ry="5.5"/>
</g>
<g id="Ebene_5">
	<g class="st7">
		<path d="M653.48,1188.91c81.44,144.89,206.59,260.85,352.36,326.45c-18.31,23.95-37.13,48.39-61.83,64.46s-56.85,22.44-82.27,8.29
			c-17.81-9.91-29.95-28.22-41.13-46.05c-68.06-108.5-126.39-224.03-173.97-344.53"/>
		<g>
			<path d="M647.63,1192.33c31.83,56.5,70.47,109.18,114.91,156.41c43.54,46.28,92.73,87.35,146.23,121.65
				c29.93,19.19,61.24,36.19,93.65,50.82c-0.81-3.09-1.62-6.18-2.43-9.27c-22.28,29.14-47.02,62.25-83.66,73.54
				c-16.75,5.16-35.51,5.5-51.17-3.22c-15.9-8.86-26.55-24.5-36.1-39.5c-44.33-69.62-83.93-142.44-119.36-216.97
				c-20.3-42.7-39.14-86.09-56.52-130.06c-3.17-8.02-16.28-4.52-13.07,3.6c32.38,81.92,69.68,161.89,111.94,239.18
				c20.73,37.91,42.48,75.36,65.74,111.77c10.16,15.9,21.55,31.92,37.83,42.09c16.15,10.08,35.63,12.14,54.08,8.71
				c45.52-8.46,75.54-47.73,101.98-82.3c2.07-2.71,0.61-7.9-2.43-9.27c-56.88-25.67-110.44-58.69-159-97.89
				c-49.08-39.61-93.45-85.27-131.54-135.55c-21.83-28.81-41.65-59.1-59.39-90.59C655.05,1177.9,643.34,1184.72,647.63,1192.33
				L647.63,1192.33z"/>
		</g>
	</g>
</g>
<g id="Ebene_8">
	<g class="st7">
		<g>
			<path class="st8" d="M353.9,494.85c-2.1,2.75,0.76-0.95,1.46-1.81c1.13-1.4,2.28-2.78,3.44-4.14c2.65-3.11,5.39-6.15,8.22-9.11
				c5.26-5.52,10.81-10.76,16.61-15.7c1.35-1.15,2.71-2.28,4.09-3.4c0.91-0.74,4.44-3.45,1.7-1.39c3.23-2.42,6.48-4.8,9.81-7.07
				c6.22-4.23,12.66-8.15,19.28-11.73c3.08-1.67,6.19-3.26,9.34-4.78c1.8-0.87,3.61-1.71,5.42-2.53c0.68-0.31,1.37-0.59,2.05-0.91
				c1.98-0.93-2.72,1.08,0.5-0.22c6.91-2.78,13.91-5.29,21.06-7.4c7.1-2.09,14.31-3.82,21.6-5.17c1.69-0.31,3.39-0.6,5.09-0.87
				c1.45-0.23,5.52-0.74,1.77-0.29c3.9-0.47,7.81-0.87,11.73-1.14c7.34-0.5,14.7-0.6,22.05-0.28c3.43,0.15,6.85,0.39,10.27,0.72
				c1.71,0.17,3.41,0.38,5.12,0.57c2.71,0.29-3.12-0.51-0.42-0.05c1.21,0.21,2.43,0.37,3.64,0.57c13.78,2.31,27.28,6.16,40.25,11.35
				c0.54,0.22,3.38,1.37,1.13,0.44c-2.1-0.86,0.13,0.06,0.46,0.21c1.74,0.77,3.48,1.55,5.2,2.35c3.23,1.52,6.43,3.12,9.58,4.8
				c6.33,3.38,12.5,7.08,18.46,11.06c3,2,5.95,4.08,8.84,6.23c0.58,0.43,1.15,0.87,1.73,1.3c2.13,1.56-2.28-1.84-0.22-0.17
				c1.5,1.22,3.02,2.41,4.51,3.64c5.6,4.64,10.97,9.55,16.1,14.71c5.68,5.7,11.05,11.7,16.11,17.97c0.61,0.76,1.22,1.53,1.83,2.3
				c-1.55-1.94-0.73-0.96,0.31,0.42c1.18,1.57,2.34,3.15,3.47,4.75c2.42,3.41,4.76,6.88,6.99,10.41c4.49,7.1,8.6,14.45,12.28,22
				c0.87,1.79,1.72,3.58,2.54,5.39c0.55,1.21,2.58,5.97,1.16,2.53c1.72,4.16,3.32,8.35,4.81,12.6c3.12,8.9,12.49,15.77,22.23,12.62
				c8.79-2.84,15.97-12.68,12.62-22.23c-21.54-61.33-66.98-114.7-126.41-142.14c-29.62-13.68-61.64-21.2-94.36-20.64
				c-33.73,0.57-66.71,9.06-97.07,23.57c-34.76,16.62-64.29,41.92-87.59,72.42c-5.76,7.54-1.42,20.55,6.48,24.72
				C338.74,506.37,347.75,502.9,353.9,494.85L353.9,494.85z"/>
		</g>
	</g>
	<g class="st7">
		<g>
			<path class="st8" d="M743.21,619.48c9.45,0,18.5-8.31,18.07-18.07c-0.44-9.79-7.94-18.07-18.07-18.07
				c-9.45,0-18.5,8.31-18.07,18.07C725.58,611.2,733.09,619.48,743.21,619.48L743.21,619.48z"/>
		</g>
	</g>
	<g class="st7">
		<path class="st9" d="M788.31,1081.67c57.37,102.73,114.74,205.46,172.1,308.2"/>
		<g>
			<path class="st8" d="M772.71,1090.79c44.73,80.1,89.45,160.19,134.18,240.29c12.64,22.64,25.28,45.27,37.92,67.91
				c4.61,8.26,16.63,11.7,24.72,6.48c8.36-5.39,11.42-15.89,6.48-24.72c-44.73-80.1-89.45-160.19-134.18-240.29
				c-12.64-22.64-25.28-45.27-37.92-67.91c-4.61-8.26-16.63-11.7-24.72-6.48C770.83,1071.46,767.77,1081.95,772.71,1090.79
				L772.71,1090.79z"/>
		</g>
	</g>
	<g class="st7">
		<g>
			<path class="st8" d="M976.29,1457.87c9.45,0,18.5-8.31,18.07-18.07c-0.44-9.79-7.94-18.07-18.07-18.07
				c-9.45,0-18.5,8.31-18.07,18.07C958.66,1449.59,966.16,1457.87,976.29,1457.87L976.29,1457.87z"/>
		</g>
	</g>
</g>
<g id="Ebene_13">
</g>
<g id="Ebene_11">
	
		<ellipse transform="matrix(0.8994 -0.4372 0.4372 0.8994 -323.3112 249.5771)" class="st10" cx="380.54" cy="827.17" rx="40" ry="17"/>
	
		<ellipse transform="matrix(0.8994 -0.4372 0.4372 0.8994 -223.312 366.8746)" class="st10" cx="685.36" cy="668.57" rx="40" ry="17"/>
	<g>
		<g>
			<path d="M565.27,608.78c5.02-6.71,13.16-10.49,21.43-10.69c9.64-0.24,9.67-15.24,0-15c-13.99,0.34-26.06,7-34.38,18.12
				c-2.44,3.27-0.5,8.35,2.69,10.26C558.82,613.75,562.86,612.01,565.27,608.78L565.27,608.78z"/>
		</g>
	</g>
	<g>
		<g>
			<path d="M344.78,712.17c4.39-8.02,12.31-12.86,21.48-12.86c9.65,0,9.67-15,0-15c-14.28,0-27.56,7.74-34.43,20.29
				C327.19,713.07,340.14,720.65,344.78,712.17L344.78,712.17z"/>
		</g>
	</g>
	<g>
		<g>
			<path d="M468.65,851.01c27.64,23.65,67.2,31.21,101.79,19.93c34.5-11.25,59.66-41.02,67.24-76.28
				c4.22-19.62,3.21-40.36-4.11-59.13c-1.47-3.76-5.04-6.41-9.23-5.24c-3.59,1.01-6.72,5.42-5.24,9.23
				c11.17,28.65,6.37,61.43-11.29,86.46c-18.36,26.03-50.07,37.8-81.2,34.51c-17.23-1.82-34.19-8.82-47.36-20.09
				C471.96,834.15,461.3,844.72,468.65,851.01L468.65,851.01z"/>
		</g>
	</g>
</g>
<g id="Ebene_9">
</g>
<g id="Ebene_10">
	<g>
		<g id="Ebene_2_Kopie">
			<g class="st7">
				<path d="M932.58,987.3c35.68,12.29,59.16,43.71,55.51,74.28s-34.14,57.99-72.11,64.82c-37.96,6.83-80.51-7.45-100.6-33.76
					s-16.2-62.65,9.2-85.93c25.4-23.28,70.38-31.72,106.35-19.97"/>
				<g>
					<path d="M929.43,991.59c33.51,11.77,56.26,40.07,54.39,69.11c-1.77,27.46-28.01,52.15-61.02,60.04
						c-34.81,8.32-74.97-2.46-97.36-24.83c-22.54-22.51-24.39-55.78-4.89-79.94c21.94-27.16,70.27-36.76,107.25-24.92
						c4.89,1.57,10.86-7.12,6.29-8.59c-37.39-11.97-81.96-3.56-109.4,19.57c-28.04,23.64-34.72,61.31-16.17,90.13
						c18.09,28.1,60.15,44.07,99.32,39.73c39.98-4.42,72.81-30.7,82.45-61.03c11.06-34.76-13.16-73.31-54.56-87.85
						C930.92,981.32,924.86,989.98,929.43,991.59L929.43,991.59z"/>
				</g>
			</g>
			<g class="st7">
				<path d="M786.57,420.08c3.02-28.44,11.7-57.25,32.21-80.76c20.5-23.52,54.35-41.03,90.54-40.86
					c52.46,0.26,95.86,38.43,103.94,79.32s-12.31,82.35-41.38,116.79c-29.07,34.44-66.7,63.81-98.94,96.45
					c-52.53,53.18-90.98,116.36-99.98,183.39c-5.91,44.04,2.41,91.67,38.23,125.77c35.82,34.11,104.25,48.8,150.42,23.6
					c29.3-15.99,44.45-44.11,50.14-71.85c5.69-27.74,3.39-56.08,5.68-84.12c4.72-57.84,29.43-114.58,70.77-162.5
					c51.18-59.34,127.76-106.31,159.14-173.67c33.23-71.32,6.43-155.39-57.4-212.3c-63.82-56.9-160.11-87.68-256.3-91.69
					c-105.71-4.41-214.41,22.96-292.45,79.37S518.7,349.24,531.53,432.12c5.05,32.67,19.67,65.82,50.3,88.17
					c40.34,29.44,106.37,34.03,152.61,10.62s43.6-63.79,51.98-109.9"/>
				<g>
					<path d="M791.1,418.09c2.77-25.3,10.03-50.96,27.18-72.75c15.37-19.53,39.97-35.22,68.63-40.5
						c56.52-10.43,106.81,26.39,119.85,67.58c16.3,51.47-19.26,103.05-58.12,142.31c-21.03,21.26-44.27,41.07-65.98,61.88
						c-20.69,19.83-39.62,40.8-55.87,63.07c-31.78,43.57-53.75,92.11-59.04,142.39c-4.74,45.12,5.68,97.25,49.06,129.9
						c36.41,27.4,96.53,39.77,141.41,17.69c24.59-12.1,40.89-32.21,50.07-53.53c10.82-25.14,11.78-51.82,12.36-78.11
						c0.6-27.08,2.62-53.71,10.06-80.23c7.07-25.19,17.99-49.8,32.54-72.92c14.16-22.49,31.76-43.26,51.63-62.83
						c18.79-18.52,39-36.08,58.49-54.13c38.21-35.39,73.85-73.91,86.93-120.1c12.66-44.7,4.48-92.38-19.15-133.97
						c-24.41-42.97-64.99-78.5-115.13-103.85c-50.63-25.59-109.58-40.7-169.25-45.6c-60.52-4.97-122.61,0.55-180.19,16.07
						c-57.38,15.47-110.36,40.89-152.54,75.38c-41.61,34.03-71.93,76.5-87.66,122.1c-15.36,44.51-17.31,94.83,3.09,138.59
						c9.99,21.42,26.18,41.44,49.89,54.94c21.86,12.45,49.14,18.86,76.01,18.88c26.94,0.02,53.93-6.23,75.67-18.94
						c20.46-11.96,32.21-29.7,38.31-48.86c6.49-20.41,7.73-41.67,11.46-62.44c1.16-6.43-8.05-2.48-8.82,1.77
						c-3.76,20.94-4.98,42.39-11.63,62.95c-6.14,18.98-19.2,34.53-41.02,44.36c-47.16,21.24-111.86,13.95-149.34-17.09
						c-40.72-33.73-49.73-85.54-45.15-130.18c4.71-45.89,26.19-90.81,59.75-128.4c34.41-38.55,81.29-68.92,134.92-89.54
						c54.24-20.85,114.67-31.7,174.94-32.25c59.34-0.55,119.03,8.84,172.94,28.56c53.31,19.51,100.91,49.3,133.29,88.26
						c31.48,37.87,48.74,83.5,46.19,128.88c-1.27,22.62-7.9,44.8-19.49,65.51c-11.69,20.88-28.06,39.94-45.84,57.86
						c-36.44,36.72-79.17,69.49-111.48,108.75c-34.68,42.13-57.09,90.73-64.86,140.58c-4.23,27.16-2.66,54.48-4.95,81.72
						c-2,23.8-8.02,48.17-25.02,68.35c-14.89,17.68-38.13,29.02-64.89,31.29c-25.52,2.16-51.77-3.55-73.62-13.86
						c-50.84-23.99-70.18-72.14-70.98-116.59c-0.87-48.9,17.55-97.8,45.59-141.07c14.41-22.23,31.49-43.35,50.71-63.18
						c20.34-20.97,42.99-40.45,64.46-60.68c41.11-38.76,79.61-83.65,82.82-135.8c1.37-22.29-4.89-44.32-19.82-63.37
						c-13.49-17.2-33.83-31.93-58.23-38.75c-56.66-15.84-112.57,15.58-137.06,54.79c-13.48,21.58-19.63,45.22-22.24,69.05
						c-0.24,2.23,2.46,2.94,4.62,2.1C789.47,423.08,790.85,420.39,791.1,418.09L791.1,418.09z"/>
				</g>
			</g>
			<g class="st7">
				<path d="M874.62,1054.79c-14.16-17.73-3.54-44.58,20.9-52.82"/>
				<g>
					<path d="M878.52,1051.04c-12.07-15.58-4.25-37.52,17.08-44.98c4.43-1.55,6.66-10.57-0.18-8.18
						c-27.72,9.69-40.62,40.1-24.71,60.64C873.53,1062.17,881.08,1054.36,878.52,1051.04L878.52,1051.04z"/>
				</g>
			</g>
			<g class="st7">
				<path d="M868.07,1027.97c1.96-0.26,3.53,1.98,2.2,3.15c-2.44-1.06-2.58-4.28-0.24-5.48"/>
				<g>
					<path d="M865.9,1032.5c0.64-0.04,0.59,0.16,0.18-0.11c0.58,0.38-0.25-0.36,0.06-0.04c0.27,0.28,0.22,0.49,0.08-0.06
						c0.03,0.08,0.06,0.15,0.09,0.23c-0.36-1.41,0.18-2.74,1.64-3.98c1.82-0.58,3.64-1.14,5.46-1.72c-0.18-0.09-0.35-0.18-0.52-0.28
						c0.67,0.42,0.14,0.08,0.04-0.09c-0.24-0.43,0.25,0.58,0.05,0.13c-0.3-0.67-0.04,0.13-0.08,0.12c-0.09-0.03,0.04-0.45-0.03-0.5
						c0.07,0.05-0.14,0.99,0,0.36c-0.14,0.65-0.49,1.26-0.96,1.81c-0.13,0.15-1.32,1.1-0.66,0.73c2.21-1.25,3.93-4.3,3.13-6.41
						c-0.9-2.35-3.77-1.53-5.6-0.5c-4.7,2.66-7.61,10.33-1.67,13.22c1.84,0.89,4.41-0.62,5.46-1.72c1.99-2.08,3.45-4.82,2.31-7.43
						c-0.67-1.52-2.46-2.99-4.66-2.84c-2.92,0.19-5.22,2.1-6.14,4.24c-0.44,1.02-0.79,2.18-0.38,3.25
						C863.97,1031.65,864.8,1032.58,865.9,1032.5L865.9,1032.5z"/>
				</g>
			</g>
		</g>
		<g id="Ebene_2_1_">
			<g>
				<path class="st11" d="M955.8,968.73c35.68,12.29,59.16,43.71,55.51,74.28c-3.65,30.57-34.14,57.99-72.11,64.82
					c-37.96,6.83-80.51-7.45-100.6-33.76c-20.09-26.31-16.2-62.65,9.2-85.93c25.4-23.28,70.38-31.72,106.35-19.97"/>
				<g>
					<path d="M952.65,973.02c33.51,11.77,56.26,40.07,54.39,69.11c-1.77,27.46-28.01,52.15-61.02,60.04
						c-34.81,8.32-74.97-2.46-97.36-24.83c-22.54-22.51-24.39-55.78-4.89-79.94c21.94-27.16,70.27-36.76,107.25-24.92
						c4.89,1.57,10.86-7.12,6.29-8.59c-37.39-11.97-81.96-3.56-109.4,19.57c-28.04,23.64-34.72,61.31-16.17,90.13
						c18.09,28.1,60.15,44.07,99.32,39.73c39.98-4.42,72.81-30.7,82.45-61.03c11.06-34.76-13.16-73.31-54.56-87.85
						C954.14,962.75,948.08,971.42,952.65,973.02L952.65,973.02z"/>
				</g>
			</g>
			<g>
				<path class="st12" d="M825.94,399.54c3.02-28.44,11.7-57.25,32.21-80.76s54.35-41.03,90.54-40.86
					c52.46,0.26,95.86,38.43,103.94,79.32s-12.31,82.35-41.38,116.79c-29.07,34.44-66.7,63.81-98.94,96.45
					c-52.53,53.18-90.98,116.36-99.98,183.39c-5.91,44.04,2.41,91.67,38.23,125.77s104.25,48.8,150.42,23.6
					c29.3-15.99,44.45-44.11,50.14-71.85s3.4-56.08,5.68-84.12c4.72-57.84,29.43-114.58,70.77-162.5
					c51.18-59.34,127.76-106.31,159.14-173.67c33.23-71.32,6.43-155.39-57.4-212.3c-63.82-56.9-160.11-87.68-256.3-91.69
					c-105.69-4.42-214.38,22.94-292.43,79.36S558.08,328.71,570.9,411.59c5.05,32.67,19.67,65.82,50.3,88.17
					c40.34,29.44,106.37,34.03,152.61,10.62c46.25-23.41,43.6-63.79,51.98-109.9"/>
				<g>
					<path d="M830.48,397.56c2.77-25.3,10.03-50.96,27.18-72.75c15.37-19.53,39.97-35.22,68.63-40.5
						c56.52-10.43,106.81,26.39,119.85,67.58c16.3,51.47-19.26,103.05-58.12,142.31c-21.03,21.26-44.27,41.07-65.98,61.88
						c-20.69,19.83-39.62,40.8-55.87,63.07c-31.78,43.57-53.75,92.11-59.04,142.39c-4.74,45.12,5.68,97.25,49.06,129.9
						c36.41,27.4,96.53,39.77,141.41,17.69c24.59-12.1,40.89-32.21,50.07-53.53c10.82-25.14,11.78-51.82,12.36-78.11
						c0.6-27.08,2.62-53.71,10.06-80.23c7.07-25.19,17.99-49.8,32.54-72.92c14.16-22.49,31.76-43.26,51.63-62.83
						c18.79-18.52,39-36.08,58.49-54.13c38.21-35.39,73.85-73.91,86.93-120.1c12.66-44.7,4.48-92.38-19.15-133.97
						c-24.41-42.97-64.99-78.5-115.13-103.85c-50.63-25.59-109.58-40.7-169.25-45.6c-60.52-4.97-122.61,0.55-180.19,16.07
						c-57.38,15.47-110.36,40.89-152.54,75.38c-41.61,34.03-71.93,76.5-87.66,122.1c-15.36,44.51-17.31,94.83,3.09,138.59
						c9.99,21.42,26.18,41.44,49.89,54.94c21.86,12.45,49.14,18.86,76.01,18.88c26.94,0.02,53.93-6.23,75.67-18.94
						c20.46-11.96,32.21-29.7,38.31-48.86c6.49-20.41,7.73-41.67,11.46-62.44c1.16-6.43-8.05-2.48-8.82,1.77
						c-3.76,20.94-4.98,42.39-11.63,62.95c-6.14,18.98-19.2,34.53-41.02,44.36c-47.16,21.24-111.86,13.95-149.34-17.09
						c-40.72-33.73-49.73-85.54-45.15-130.18c4.71-45.89,26.19-90.81,59.75-128.4c34.41-38.55,81.29-68.92,134.92-89.54
						c54.24-20.85,114.67-31.7,174.94-32.25c59.34-0.55,119.03,8.84,172.94,28.56c53.31,19.51,100.91,49.3,133.29,88.26
						c31.48,37.87,48.74,83.5,46.19,128.88c-1.27,22.62-7.9,44.8-19.49,65.51c-11.69,20.88-28.06,39.94-45.84,57.86
						c-36.44,36.72-79.17,69.49-111.48,108.75c-34.68,42.13-57.09,90.73-64.86,140.58c-4.23,27.16-2.66,54.48-4.95,81.72
						c-2,23.8-8.02,48.17-25.02,68.35c-14.89,17.68-38.13,29.02-64.89,31.29c-25.52,2.16-51.77-3.55-73.62-13.86
						c-50.84-23.99-70.18-72.14-70.98-116.59c-0.87-48.9,17.55-97.8,45.59-141.07c14.41-22.23,31.49-43.35,50.71-63.18
						c20.34-20.97,42.99-40.45,64.46-60.68c41.11-38.76,79.61-83.65,82.82-135.8c1.37-22.29-4.89-44.32-19.82-63.37
						c-13.49-17.2-33.83-31.93-58.23-38.75c-56.66-15.84-112.57,15.58-137.06,54.79c-13.48,21.58-19.63,45.22-22.24,69.05
						c-0.24,2.23,2.46,2.94,4.62,2.1C828.85,402.54,830.23,399.85,830.48,397.56L830.48,397.56z"/>
				</g>
			</g>
			<g>
				<g>
					<path d="M878.52,1051.04c-12.07-15.58-4.25-37.52,17.08-44.98c4.43-1.55,6.66-10.57-0.18-8.18
						c-27.72,9.69-40.62,40.1-24.71,60.64C873.53,1062.17,881.08,1054.36,878.52,1051.04L878.52,1051.04z"/>
				</g>
			</g>
			<g>
				<path class="st11" d="M923.29,996.15c1.96-0.26,3.53,1.98,2.2,3.15c-2.44-1.06-2.58-4.28-0.24-5.48"/>
				<g>
					<path d="M921.13,1000.68c0.64-0.04,0.59,0.16,0.18-0.11c0.58,0.38-0.25-0.36,0.06-0.04c0.27,0.28,0.22,0.49,0.08-0.06
						c0.03,0.08,0.06,0.15,0.09,0.23c-0.36-1.41,0.18-2.74,1.64-3.98c1.82-0.58,3.64-1.14,5.46-1.72c-0.18-0.09-0.35-0.18-0.52-0.28
						c0.67,0.42,0.14,0.08,0.04-0.09c-0.24-0.43,0.25,0.58,0.05,0.13c-0.3-0.67-0.04,0.13-0.08,0.12c-0.09-0.03,0.04-0.45-0.03-0.5
						c0.07,0.05-0.14,0.99,0,0.36c-0.14,0.65-0.49,1.26-0.96,1.81c-0.13,0.15-1.32,1.1-0.66,0.73c2.21-1.25,3.93-4.3,3.13-6.41
						c-0.9-2.35-3.77-1.53-5.6-0.5c-4.7,2.66-7.61,10.33-1.67,13.22c1.84,0.89,4.41-0.62,5.46-1.72c1.99-2.08,3.45-4.82,2.31-7.43
						c-0.67-1.52-2.46-2.99-4.66-2.84c-2.92,0.19-5.22,2.1-6.14,4.24c-0.44,1.02-0.79,2.18-0.38,3.25
						C919.2,999.82,920.03,1000.75,921.13,1000.68L921.13,1000.68z"/>
				</g>
			</g>
		</g>
		<g id="Ebene_4">
			<g class="st7">
				<path d="M923.29,962.91c-43.36,0.79-95.28,36.72-97.5,70.89c-2.21,34.16,43.81,71.24,86.84,75.51
					c-36.04-6.81-69.16-44.88-64.5-73.88c4.66-29,33.58-55.9,76.51-72.41"/>
				<g>
					<path d="M925.45,958.37c-19.15,0.48-37.45,6.54-53.07,15.02c-16.36,8.88-30.76,20.54-40.35,34.33
						c-9.23,13.27-13.29,28.08-8.98,43c4.34,15.02,15.73,28.65,29.62,39.27c15.78,12.07,35.73,21.51,57.78,23.84
						c4.72,0.5,9.96-7.96,4.33-9.07c-28.58-5.63-50.92-28.09-59.26-49.48c-4.17-10.72-4.21-21.51,0.18-32.2
						c4.56-11.12,12.65-21.01,22.65-29.58c13.01-11.15,29.21-19.74,46.37-26.41c2.57-1,4.59-3.83,4.44-6.08
						c-0.14-2.2-2.16-3.05-4.62-2.1c-32.2,12.5-61.65,32.56-74.95,59.45c-5.83,11.8-8.04,24.32-4.76,36.79
						c3.34,12.74,11.38,24.87,21.74,34.92c11.35,11.01,26.2,20.27,43.88,23.76c1.44-3.02,2.88-6.05,4.33-9.07
						c-34.9-3.69-67.91-26.41-80.04-52.16c-5.9-12.52-5.79-25.22,1.01-37.48c6.8-12.24,18.79-22.66,32.05-30.79
						c15.11-9.27,33.91-16.41,53.31-16.89C926.02,967.32,930.75,958.24,925.45,958.37L925.45,958.37z"/>
				</g>
			</g>
			<g class="st7">
				<path d="M1043.75,425.92c-27.34,45.69-63.42,75.85-101.81,116.29c-38.39,40.44-74.24,73.31-98.79,119.98
					c-24.54,46.67-36.76,136.17-17.36,184.32c19.4,48.15,85.78,85.76,162.66,62.42c-92.85-37.62-79.84-206.48-45.99-263.27
					c32.88-55.14,116.27-163.12,111.61-261.74"/>
				<g>
					<path d="M1039.77,425.63c-25.89,43.04-66.4,78.63-102.41,116.38c-36.1,37.86-74.17,74.7-97.61,118.78
						c-8.89,16.71-14.62,34.49-18.93,52.26c-4.87,20.09-7.8,40.51-8.79,60.94c-1.76,35.92,0.91,75.36,28.63,105.46
						c13.65,14.82,32.36,26.94,53.87,33.96c23.08,7.52,48.48,8.98,72.82,4.75c6.83-1.19,13.5-2.82,20.04-4.78
						c2.87-0.86,8.89-6.84,4.21-8.75c-33.61-13.77-50.45-43.17-59.42-70.79c-10.94-33.66-12.4-69.27-9.06-103.79
						c1.54-15.95,4.33-31.88,8.64-47.53c3.37-12.25,7.54-24.3,14.21-35.76c9.09-15.64,19.67-31.05,29.54-46.5
						c12.79-20,25.21-40.16,36.45-60.74c24.18-44.27,44.02-91.47,46.58-139.99c0.31-5.87,0.33-11.74,0.07-17.61
						c-0.09-2.16-2.23-3.03-4.62-2.1c-2.56,1-4.54,3.84-4.44,6.08c2.16,48.78-16.19,96.81-39.4,141.5
						c-20,38.52-45.35,74.91-68.26,112.34c-16.02,26.17-23.02,55.12-26.67,83.88c-4.47,35.23-3.9,71.39,5.29,106.14
						c7.65,28.92,22.42,60.33,53.99,78.24c3.44,1.95,7.05,3.68,10.81,5.22c1.4-2.92,2.81-5.84,4.21-8.75
						c-24.12,7.21-50.12,9.24-75.21,3.98c-22.16-4.65-42.33-14.92-57.55-28.37c-14.64-12.93-24.59-28.43-29.66-45.27
						c-5.31-17.64-6.56-36-6.35-54.08c0.23-20.1,2.57-40.19,6.74-60.02c3.72-17.73,8.76-35.43,16.69-52.31
						c19.85-42.26,55.95-77.81,90.15-113.28c18.12-18.79,36.63-37.32,54.89-56.04c17.66-18.1,34.47-36.78,48.28-56.9
						c3.61-5.26,6.98-10.6,10.23-15.99c0.96-1.58,0.91-4.48-1.82-4.83C1042.97,421.01,1040.76,423.97,1039.77,425.63L1039.77,425.63
						z"/>
				</g>
			</g>
			<g class="st7">
				<path d="M925.28,107.27c-65.92,8.95-158.22,28.19-210.48,58.59c-52.26,30.39-105.97,90.07-129.71,137.73
					c-23.74,47.67-19.69,123.64,9.67,169.32c29.36,45.68,84.99,64.82,157.99,45.83c-45.16-9.09-91.18-31.98-103.97-67.32
					s-7.26-73.39,5.22-108.81c33.7-95.61,124.95-177.62,270.02-232.49"/>
				<g>
					<path d="M926.34,102.81c-57.7,7.86-116.01,19.54-169.09,39.39c-25.11,9.39-47.82,21.36-68.08,36.37
						c-22.85,16.93-42.9,36.18-60.71,56.5c-17.25,19.69-32.62,40.54-44.45,62.61c-10.74,20.03-16.08,41.35-18.04,63
						c-2.08,22.93-0.34,46.17,5.21,68.74c5.05,20.61,13.51,41.25,28.22,58.9c13.2,15.85,31.83,28.96,54.37,35.92
						c24.28,7.49,50.86,7.74,76.17,3.6c7.36-1.2,14.6-2.79,21.74-4.63c3.47-0.89,9.03-7.82,3.23-9
						c-39.81-8.12-82.46-27.09-98.63-58.55c-9.77-19-11.35-40.96-9.79-61.21c1.56-20.18,6.95-40.25,14.47-59.54
						c11.41-29.3,28.38-57.05,50.01-82.5c22.96-27.01,51.19-51.15,82.52-72.23c34.81-23.43,73.48-43.09,114.17-59.53
						c5.45-2.2,10.94-4.34,16.45-6.43c4.35-1.65,6.55-10.72-0.18-8.18c-43.41,16.46-84.82,36.37-122.32,60.28
						c-33.7,21.5-64.2,46.32-89.38,74.19c-23.89,26.45-43.11,55.48-56.21,86.29c-16.65,39.2-26.09,82.72-13.04,123.44
						c11.25,35.13,50.04,58.11,91.89,69.35c5.17,1.39,10.4,2.62,15.69,3.7c1.07-3,2.15-6,3.23-9c-25.36,6.53-52.52,9.59-78.84,4.94
						c-22.35-3.95-42.37-13.8-57.31-27.43c-16.64-15.19-26.81-33.91-33.35-53.15c-7.23-21.25-10.29-43.37-10.08-65.35
						c0.19-21.17,3.3-42.79,11.87-62.93c8.85-20.81,22.75-40.48,37.64-58.95c30.21-37.47,68.67-73.84,118.9-95.15
						c25.21-10.7,52.2-18.67,79.49-25.37c27.32-6.71,55.17-12.1,83.24-16.44c6.27-0.97,12.56-1.88,18.85-2.74
						C928.84,111.1,932.72,101.94,926.34,102.81L926.34,102.81z"/>
				</g>
			</g>
		</g>
		<g id="Ebene_5_1_">
			<g class="st7">
				<g>
					<path class="st8" d="M1044.8,162.5c4.7,1.03,9.36,2.18,13.96,3.47c2.3,0.65,4.58,1.33,6.83,2.04c1.13,0.36,2.25,0.72,3.38,1.1
						c0.49,0.17,5.14,1.8,2.3,0.77c8.85,3.21,17.41,6.94,25.58,11.11c16.59,8.48,30.56,18.18,43.64,30.2
						c26.98,24.79,43.82,55.08,47.91,87.63c9.76,77.76-44.53,148.15-94.53,211.37c-28.95,36.6-57.73,73.41-77.02,113.96
						c-0.9,1.89,5.27,3.84,6.14,4.09c4.48,1.3,10.11,1.75,14.82,1.69c6.38-0.08,18.26-0.11,20.96-5.79
						c34.66-72.87,101.62-132.42,141.08-203.43c19.66-35.37,33.58-73.74,31.32-112.68c-1.96-33.79-17.08-66.44-43.31-93.21
						c-28.34-28.93-68.69-50.74-113.41-60.52c-9.24-2.02-20.5-2.87-29.64,0c-2.2,0.69-6.14,1.77-6.14,4.09
						C1038.67,160.58,1042.78,162.05,1044.8,162.5L1044.8,162.5z"/>
				</g>
			</g>
			<g class="st7">
				<g>
					<path class="st8" d="M946.03,1017.6c6.99,12.49,6.71,27.28,1.54,40.14c-2.51,6.25-6.59,12.15-11.6,17.36
						c-5.77,6-10.99,9.65-18.79,13.23c-7.96,3.66,3.4,7.29,7.52,7.91c8.81,1.34,20.58,1.64,28.67-2.08
						c34.39-15.78,49.13-50.97,33.08-79.65c-1.11-1.98-7.67-3.13-9.63-3.46c-5.08-0.85-11-1.06-16.14-0.58
						C956.28,1010.88,942.94,1012.07,946.03,1017.6L946.03,1017.6z"/>
				</g>
			</g>
		</g>
	</g>
	<g>
		<g id="Ebene_2_Kopie_1_">
			<g class="st7">
				<path d="M1317.49,1093.29c24.21,7.47,40.14,26.55,37.67,45.12c-2.47,18.57-23.17,35.22-48.93,39.37s-54.63-4.53-68.26-20.51
					c-13.63-15.98-10.99-38.05,6.25-52.2c17.23-14.14,47.76-19.27,72.16-12.13"/>
				<g>
					<path d="M1315.36,1095.89c22.73,7.15,38.17,24.34,36.9,41.98c-1.2,16.68-19,31.68-41.4,36.47
						c-23.62,5.06-50.87-1.49-66.06-15.09c-15.29-13.68-16.55-33.89-3.32-48.56c14.89-16.49,47.68-22.33,72.77-15.14
						c3.32,0.95,7.37-4.33,4.27-5.22c-25.37-7.27-55.61-2.16-74.23,11.89c-19.03,14.36-23.56,37.24-10.97,54.75
						c12.27,17.07,40.82,26.77,67.39,24.13c27.13-2.69,49.4-18.65,55.95-37.07c7.5-21.11-8.93-44.53-37.02-53.36
						C1316.37,1089.65,1312.25,1094.92,1315.36,1095.89L1315.36,1095.89z"/>
				</g>
			</g>
			<g class="st7">
				<path d="M1218.42,748.74c2.05-17.28,7.94-34.77,21.85-49.06c13.91-14.29,36.88-24.92,61.43-24.82
					c35.59,0.16,65.05,23.34,70.53,48.18c5.48,24.84-8.35,50.02-28.08,70.94c-19.73,20.92-45.26,38.76-67.13,58.59
					c-35.64,32.3-61.74,70.68-67.84,111.4c-4.01,26.75,1.64,55.68,25.94,76.4c24.3,20.72,70.73,29.64,102.06,14.33
					c19.88-9.71,30.16-26.79,34.02-43.64c3.86-16.85,2.3-34.06,3.86-51.1c3.2-35.13,19.97-69.6,48.02-98.71
					c34.73-36.05,86.69-64.57,107.98-105.49c22.55-43.32,4.36-94.39-38.95-128.95c-43.31-34.56-108.64-53.26-173.91-55.7
					c-71.73-2.68-145.48,13.94-198.44,48.21s-83.12,86.39-74.41,136.73c3.43,19.84,13.35,39.98,34.13,53.56
					c27.37,17.88,72.17,20.67,103.55,6.45s29.58-38.75,35.27-66.75"/>
				<g>
					<path d="M1221.49,747.53c1.88-15.37,6.81-30.95,18.44-44.19c10.43-11.86,27.12-21.39,46.57-24.6
						c38.35-6.34,72.47,16.03,81.33,41.05c11.06,31.26-13.07,62.59-39.44,86.45c-14.27,12.91-30.04,24.95-44.77,37.59
						c-14.04,12.04-26.88,24.78-37.91,38.31c-21.56,26.46-36.47,55.95-40.06,86.49c-3.22,27.41,3.86,59.07,33.29,78.91
						c24.7,16.64,65.5,24.16,95.95,10.75c16.69-7.35,27.75-19.57,33.97-32.52c7.34-15.27,7.99-31.48,8.39-47.44
						c0.41-16.45,1.78-32.62,6.83-48.73c4.79-15.3,12.21-30.25,22.08-44.29c9.61-13.66,21.55-26.27,35.03-38.17
						c12.75-11.25,26.47-21.92,39.68-32.88c25.93-21.5,50.11-44.9,58.98-72.95c8.59-27.15,3.04-56.11-13-81.38
						c-16.56-26.1-44.1-47.69-78.12-63.08c-34.35-15.54-74.35-24.72-114.84-27.7c-41.07-3.02-83.2,0.33-122.27,9.76
						c-38.93,9.39-74.89,24.84-103.5,45.79c-28.23,20.67-48.81,46.47-59.48,74.16c-10.42,27.04-11.75,57.6,2.1,84.18
						c6.78,13.01,17.76,25.17,33.85,33.37c14.83,7.56,33.34,11.46,51.58,11.47c18.28,0.01,36.59-3.78,51.34-11.5
						c13.88-7.27,21.86-18.04,25.99-29.68c4.4-12.4,5.24-25.31,7.78-37.93c0.78-3.9-5.46-1.51-5.98,1.07
						c-2.55,12.72-3.38,25.75-7.89,38.24c-4.16,11.53-13.03,20.97-27.83,26.95c-32,12.9-75.9,8.47-101.33-10.38
						c-27.63-20.49-33.75-51.96-30.63-79.08c3.2-27.88,17.77-55.16,40.54-77.99c23.35-23.41,55.16-41.86,91.55-54.39
						c36.8-12.66,77.8-19.25,118.71-19.59c40.26-0.33,80.77,5.37,117.35,17.35c36.17,11.85,68.47,29.95,90.44,53.61
						c21.36,23.01,33.07,50.72,31.34,78.29c-0.86,13.74-5.36,27.21-13.22,39.79c-7.93,12.68-19.04,24.26-31.1,35.15
						c-24.73,22.31-53.72,42.21-75.64,66.06c-23.53,25.59-38.73,55.11-44.01,85.39c-2.87,16.49-1.8,33.09-3.36,49.64
						c-1.36,14.46-5.44,29.26-16.98,41.52c-10.1,10.74-25.87,17.63-44.03,19.01c-17.32,1.31-35.13-2.16-49.95-8.42
						c-34.5-14.58-47.62-43.82-48.16-70.82c-0.59-29.7,11.91-59.4,30.94-85.69c9.78-13.5,21.37-26.33,34.41-38.38
						c13.8-12.74,29.17-24.57,43.74-36.86c27.89-23.54,54.02-50.81,56.2-82.49c0.93-13.54-3.32-26.92-13.45-38.49
						c-9.15-10.45-22.96-19.39-39.51-23.54c-38.44-9.62-76.38,9.46-93,33.28c-9.15,13.11-13.32,27.47-15.09,41.95
						c-0.16,1.36,1.67,1.79,3.13,1.28C1220.39,750.56,1221.32,748.93,1221.49,747.53L1221.49,747.53z"/>
				</g>
			</g>
			<g class="st7">
				<path d="M1278.17,1134.28c-9.61-10.77-2.4-27.08,14.18-32.08"/>
				<g>
					<path d="M1280.81,1132c-8.19-9.46-2.88-22.79,11.59-27.32c3.01-0.94,4.52-6.42-0.12-4.97c-18.81,5.89-27.56,24.36-16.77,36.84
						C1277.43,1138.76,1282.55,1134.02,1280.81,1132L1280.81,1132z"/>
				</g>
			</g>
			<g class="st7">
				<path d="M1273.72,1117.99c1.33-0.16,2.39,1.2,1.5,1.92c-1.66-0.64-1.75-2.6-0.17-3.33"/>
				<g>
					<path d="M1272.25,1120.75c0.43-0.02,0.4,0.1,0.13-0.06c0.39,0.23-0.17-0.22,0.04-0.02c0.18,0.17,0.15,0.3,0.06-0.04
						c0.02,0.05,0.04,0.09,0.06,0.14c-0.24-0.86,0.13-1.66,1.11-2.42c1.23-0.35,2.47-0.69,3.7-1.04c-0.13-0.05-0.24-0.11-0.35-0.17
						c0.46,0.25,0.1,0.05,0.03-0.06c-0.17-0.26,0.17,0.35,0.03,0.08c-0.2-0.41-0.03,0.08-0.05,0.07c-0.06-0.02,0.03-0.27-0.02-0.31
						c0.05,0.03-0.1,0.6,0,0.22c-0.1,0.4-0.34,0.76-0.65,1.1c-0.09,0.09-0.89,0.67-0.45,0.45c1.5-0.76,2.67-2.61,2.12-3.89
						c-0.61-1.43-2.56-0.93-3.8-0.3c-3.19,1.61-5.16,6.28-1.13,8.03c1.25,0.54,2.99-0.38,3.7-1.04c1.35-1.26,2.34-2.93,1.56-4.51
						c-0.45-0.92-1.67-1.82-3.16-1.72c-1.98,0.12-3.54,1.27-4.17,2.58c-0.3,0.62-0.53,1.33-0.26,1.98
						C1270.94,1120.22,1271.5,1120.79,1272.25,1120.75L1272.25,1120.75z"/>
				</g>
			</g>
		</g>
		<g id="Ebene_2_2_">
			<g>
				<path class="st11" d="M1333.25,1082.01c24.21,7.47,40.14,26.55,37.67,45.12c-2.47,18.57-23.17,35.22-48.93,39.37
					c-25.76,4.15-54.63-4.53-68.26-20.51c-13.63-15.98-10.99-38.05,6.25-52.2c17.23-14.14,47.76-19.27,72.16-12.13"/>
				<g>
					<path d="M1331.11,1084.62c22.73,7.15,38.17,24.34,36.9,41.98c-1.2,16.68-19,31.68-41.4,36.47
						c-23.62,5.06-50.87-1.49-66.06-15.09c-15.29-13.68-16.55-33.89-3.32-48.56c14.89-16.49,47.68-22.33,72.77-15.14
						c3.32,0.95,7.37-4.33,4.27-5.22c-25.37-7.27-55.61-2.16-74.23,11.89c-19.03,14.36-23.56,37.24-10.97,54.75
						c12.27,17.07,40.82,26.77,67.39,24.13c27.13-2.69,49.4-18.65,55.95-37.07c7.5-21.11-8.93-44.53-37.02-53.36
						C1332.12,1078.38,1328.01,1083.64,1331.11,1084.62L1331.11,1084.62z"/>
				</g>
			</g>
			<g>
				<path class="st12" d="M1245.14,736.26c2.05-17.28,7.94-34.77,21.85-49.06c13.91-14.29,36.88-24.92,61.43-24.82
					c35.59,0.16,65.05,23.34,70.53,48.18c5.48,24.84-8.35,50.02-28.08,70.94c-19.73,20.92-45.26,38.76-67.13,58.59
					c-35.64,32.3-61.74,70.68-67.84,111.4c-4.01,26.75,1.64,55.68,25.94,76.4c24.3,20.72,70.73,29.64,102.06,14.33
					c19.88-9.71,30.16-26.79,34.02-43.64c3.86-16.85,2.3-34.06,3.86-51.1c3.2-35.13,19.97-69.6,48.02-98.71
					c34.73-36.05,86.69-64.57,107.98-105.49c22.55-43.32,4.36-94.39-38.95-128.95c-43.31-34.56-108.64-53.26-173.91-55.7
					c-71.71-2.69-145.47,13.94-198.42,48.2s-83.13,86.39-74.43,136.74c3.43,19.84,13.35,39.98,34.13,53.56
					c27.37,17.88,72.17,20.67,103.55,6.45s29.58-38.74,35.27-66.75"/>
				<g>
					<path d="M1248.21,735.06c1.88-15.37,6.81-30.95,18.44-44.19c10.43-11.86,27.12-21.39,46.57-24.6
						c38.35-6.34,72.47,16.03,81.33,41.05c11.06,31.26-13.07,62.59-39.44,86.45c-14.27,12.91-30.04,24.95-44.77,37.59
						c-14.04,12.04-26.88,24.78-37.91,38.31c-21.56,26.46-36.47,55.95-40.06,86.49c-3.22,27.41,3.86,59.07,33.29,78.91
						c24.7,16.64,65.5,24.16,95.95,10.75c16.69-7.35,27.75-19.57,33.97-32.52c7.34-15.27,7.99-31.48,8.39-47.44
						c0.41-16.45,1.78-32.62,6.83-48.73c4.79-15.3,12.21-30.25,22.08-44.29c9.61-13.66,21.55-26.27,35.03-38.17
						c12.75-11.25,26.47-21.92,39.68-32.88c25.93-21.5,50.11-44.9,58.98-72.95c8.59-27.15,3.04-56.11-13-81.38
						c-16.56-26.1-44.1-47.69-78.12-63.08c-34.35-15.54-74.35-24.72-114.84-27.7c-41.07-3.02-83.2,0.33-122.27,9.76
						c-38.93,9.39-74.89,24.84-103.5,45.79c-28.23,20.67-48.81,46.47-59.48,74.16c-10.42,27.04-11.75,57.6,2.1,84.18
						c6.78,13.01,17.76,25.17,33.85,33.37c14.83,7.56,33.34,11.46,51.58,11.47c18.28,0.01,36.59-3.78,51.34-11.5
						c13.88-7.27,21.86-18.04,25.99-29.68c4.4-12.4,5.24-25.31,7.78-37.93c0.78-3.9-5.46-1.51-5.98,1.07
						c-2.55,12.72-3.38,25.75-7.89,38.24c-4.16,11.53-13.03,20.97-27.83,26.95c-32,12.9-75.9,8.47-101.33-10.38
						c-27.63-20.49-33.75-51.96-30.63-79.08c3.2-27.88,17.77-55.16,40.54-77.99c23.35-23.41,55.16-41.86,91.55-54.39
						c36.8-12.66,77.8-19.25,118.71-19.59c40.26-0.33,80.77,5.37,117.35,17.35c36.17,11.85,68.47,29.95,90.44,53.61
						c21.36,23.01,33.07,50.72,31.34,78.29c-0.86,13.74-5.36,27.21-13.22,39.79c-7.93,12.68-19.04,24.26-31.1,35.15
						c-24.73,22.31-53.72,42.21-75.64,66.06c-23.53,25.59-38.73,55.11-44.01,85.39c-2.87,16.49-1.8,33.09-3.36,49.64
						c-1.36,14.46-5.44,29.26-16.98,41.52c-10.1,10.74-25.87,17.63-44.03,19.01c-17.32,1.31-35.13-2.16-49.95-8.42
						c-34.5-14.58-47.62-43.82-48.16-70.82c-0.59-29.7,11.91-59.4,30.94-85.69c9.78-13.5,21.37-26.33,34.41-38.38
						c13.8-12.74,29.17-24.57,43.74-36.86c27.89-23.54,54.02-50.81,56.2-82.49c0.93-13.54-3.32-26.92-13.45-38.49
						c-9.15-10.45-22.96-19.39-39.51-23.54c-38.44-9.62-76.38,9.46-93,33.28c-9.15,13.11-13.32,27.47-15.09,41.95
						c-0.16,1.36,1.67,1.79,3.13,1.28C1247.11,738.09,1248.04,736.45,1248.21,735.06L1248.21,735.06z"/>
				</g>
			</g>
			<g>
				<g>
					<path d="M1280.81,1132c-8.19-9.46-2.88-22.79,11.59-27.32c3.01-0.94,4.52-6.42-0.12-4.97c-18.81,5.89-27.56,24.36-16.77,36.84
						C1277.43,1138.76,1282.55,1134.02,1280.81,1132L1280.81,1132z"/>
				</g>
			</g>
			<g>
				<path class="st11" d="M1311.19,1098.66c1.33-0.16,2.39,1.2,1.5,1.92c-1.66-0.64-1.75-2.6-0.17-3.33"/>
				<g>
					<path d="M1309.72,1101.42c0.43-0.02,0.4,0.1,0.13-0.06c0.39,0.23-0.17-0.22,0.04-0.02c0.18,0.17,0.15,0.3,0.06-0.04
						c0.02,0.05,0.04,0.09,0.06,0.14c-0.24-0.86,0.13-1.66,1.11-2.42c1.23-0.35,2.47-0.69,3.7-1.04c-0.13-0.05-0.24-0.11-0.35-0.17
						c0.46,0.25,0.1,0.05,0.03-0.06c-0.17-0.26,0.17,0.35,0.03,0.08c-0.2-0.41-0.03,0.08-0.05,0.07c-0.06-0.02,0.03-0.27-0.02-0.31
						c0.05,0.03-0.1,0.6,0,0.22c-0.1,0.4-0.34,0.76-0.65,1.1c-0.09,0.09-0.89,0.67-0.45,0.45c1.5-0.76,2.67-2.61,2.12-3.89
						c-0.61-1.43-2.56-0.93-3.8-0.3c-3.19,1.61-5.16,6.28-1.13,8.03c1.25,0.54,2.99-0.38,3.7-1.04c1.35-1.26,2.34-2.93,1.56-4.51
						c-0.46-0.92-1.67-1.82-3.16-1.72c-1.98,0.12-3.54,1.27-4.17,2.58c-0.3,0.62-0.53,1.33-0.26,1.98
						C1308.41,1100.89,1308.98,1101.46,1309.72,1101.42L1309.72,1101.42z"/>
				</g>
			</g>
		</g>
		<g id="Ebene_4_1_">
			<g class="st7">
				<path d="M1311.19,1078.47c-29.42,0.48-64.65,22.31-66.16,43.06s29.72,43.27,58.92,45.87c-24.45-4.14-46.93-27.26-43.77-44.88
					c3.16-17.62,22.79-33.95,51.91-43.99"/>
				<g>
					<path d="M1312.66,1075.72c-12.99,0.29-25.41,3.97-36.01,9.12c-11.1,5.39-20.87,12.47-27.38,20.85
						c-6.26,8.06-9.02,17.06-6.09,26.12c2.95,9.12,10.68,17.4,20.1,23.86c10.7,7.33,24.24,13.06,39.21,14.48
						c3.2,0.3,6.76-4.84,2.93-5.51c-19.4-3.42-34.55-17.06-40.21-30.06c-2.83-6.51-2.86-13.06,0.12-19.56
						c3.09-6.76,8.58-12.76,15.37-17.96c8.83-6.77,19.82-11.99,31.47-16.04c1.74-0.61,3.12-2.33,3.01-3.69
						c-0.1-1.33-1.47-1.86-3.13-1.28c-21.85,7.59-41.83,19.78-50.86,36.11c-3.96,7.17-5.45,14.77-3.23,22.35
						c2.27,7.74,7.72,15.11,14.75,21.21c7.7,6.69,17.77,12.31,29.78,14.43c0.98-1.84,1.96-3.67,2.94-5.51
						c-23.68-2.24-46.08-16.04-54.31-31.68c-4-7.61-3.93-15.32,0.69-22.76c4.61-7.43,12.75-13.76,21.74-18.7
						c10.25-5.63,23.01-9.97,36.17-10.26C1313.04,1081.15,1316.25,1075.64,1312.66,1075.72L1312.66,1075.72z"/>
				</g>
			</g>
			<g class="st7">
				<path d="M1392.92,752.29c-18.55,27.75-43.03,46.07-69.08,70.64c-26.05,24.56-50.38,44.53-67.03,72.88
					c-16.65,28.35-24.94,82.72-11.78,111.96c13.16,29.25,58.2,52.09,110.37,37.92c-63-22.85-54.18-125.42-31.2-159.92
					c22.31-33.5,78.9-99.09,75.73-158.99"/>
				<g>
					<path d="M1390.22,752.11c-17.57,26.14-45.05,47.76-69.49,70.69c-24.5,23-50.33,45.38-66.23,72.15
						c-6.03,10.15-9.92,20.95-12.84,31.74c-3.3,12.2-5.29,24.61-5.97,37.02c-1.19,21.82,0.62,45.77,19.43,64.06
						c9.26,9,21.96,16.37,36.55,20.63c15.66,4.57,32.9,5.45,49.41,2.88c4.64-0.72,9.16-1.71,13.6-2.9c1.95-0.52,6.03-4.15,2.86-5.32
						c-22.81-8.37-34.23-26.22-40.32-43c-7.42-20.45-8.41-42.08-6.15-63.05c1.05-9.69,2.94-19.37,5.86-28.87
						c2.29-7.44,5.12-14.76,9.64-21.72c6.17-9.5,13.34-18.86,20.04-28.24c8.68-12.15,17.11-24.39,24.73-36.9
						c16.4-26.89,29.87-55.56,31.61-85.04c0.21-3.57,0.22-7.13,0.05-10.7c-0.06-1.31-1.51-1.84-3.13-1.28
						c-1.73,0.61-3.08,2.33-3.01,3.69c1.47,29.63-10.98,58.8-26.73,85.95c-13.57,23.4-30.77,45.5-46.32,68.24
						c-10.87,15.9-15.62,33.48-18.09,50.95c-3.03,21.4-2.64,43.36,3.59,64.47c5.19,17.57,15.22,36.64,36.64,47.52
						c2.33,1.18,4.78,2.24,7.34,3.17c0.95-1.77,1.91-3.55,2.86-5.32c-16.36,4.38-34.01,5.61-51.03,2.42
						c-15.03-2.82-28.72-9.06-39.05-17.23c-9.94-7.85-16.69-17.27-20.12-27.5c-3.6-10.72-4.45-21.87-4.31-32.85
						c0.16-12.21,1.75-24.41,4.57-36.46c2.53-10.77,5.94-21.52,11.32-31.77c13.47-25.67,37.97-47.26,61.17-68.81
						c12.3-11.41,24.86-22.67,37.24-34.04c11.98-10.99,23.39-22.34,32.76-34.56c2.45-3.19,4.74-6.44,6.94-9.72
						c0.65-0.96,0.61-2.72-1.23-2.93C1392.4,749.31,1390.9,751.11,1390.22,752.11L1390.22,752.11z"/>
				</g>
			</g>
			<g class="st7">
				<path d="M1312.54,558.73c-44.73,5.43-107.36,17.13-142.82,35.59c-35.46,18.46-71.91,54.71-88.01,83.66
					c-16.11,28.96-13.36,75.1,6.56,102.85c19.92,27.75,57.67,39.38,107.2,27.84c-30.64-5.52-61.87-19.42-70.55-40.89
					s-4.93-44.58,3.54-66.09c22.87-58.08,84.78-107.89,183.22-141.22"/>
				<g>
					<path d="M1313.26,556.02c-39.15,4.78-78.72,11.87-114.74,23.93c-17.04,5.7-32.45,12.97-46.2,22.09
						c-15.51,10.29-29.11,21.98-41.19,34.32c-11.71,11.96-22.13,24.63-30.16,38.03c-7.29,12.17-10.91,25.12-12.24,38.27
						c-1.41,13.93-0.23,28.05,3.53,41.76c3.43,12.52,9.17,25.05,19.15,35.78c8.96,9.63,21.6,17.59,36.89,21.82
						c16.48,4.55,34.51,4.7,51.69,2.19c4.99-0.73,9.91-1.69,14.75-2.81c2.35-0.54,6.13-4.75,2.19-5.47
						c-27.01-4.93-55.95-16.45-66.92-35.56c-6.63-11.54-7.7-24.88-6.64-37.18c1.06-12.26,4.72-24.45,9.82-36.17
						c7.74-17.8,19.26-34.66,33.93-50.12c15.58-16.41,34.74-31.07,55.99-43.87c23.62-14.23,49.86-26.17,77.47-36.16
						c3.7-1.34,7.42-2.63,11.17-3.91c2.95-1,4.44-6.51-0.12-4.97c-29.46,10-57.56,22.09-83,36.62
						c-22.87,13.06-43.56,28.14-60.64,45.06c-16.21,16.07-29.25,33.7-38.14,52.42c-11.3,23.81-17.7,50.24-8.85,74.98
						c7.63,21.34,33.96,35.29,62.35,42.12c3.51,0.84,7.06,1.59,10.65,2.25c0.73-1.82,1.46-3.64,2.19-5.47
						c-17.21,3.96-35.63,5.82-53.49,3c-15.16-2.4-28.75-8.38-38.89-16.66c-11.29-9.23-18.19-20.6-22.63-32.28
						c-4.9-12.91-6.98-26.34-6.84-39.69c0.13-12.86,2.24-25.99,8.05-38.23c6.01-12.64,15.44-24.59,25.54-35.81
						c20.5-22.76,46.59-44.85,80.68-57.8c17.11-6.5,35.42-11.34,53.94-15.41c18.54-4.08,37.43-7.35,56.48-9.98
						c4.25-0.59,8.52-1.14,12.79-1.66C1314.96,561.06,1317.59,555.5,1313.26,556.02L1313.26,556.02z"/>
				</g>
			</g>
		</g>
		<g id="Ebene_5_2_">
			<g class="st7">
				<g>
					<path class="st8" d="M1393.64,592.28c3.19,0.63,6.35,1.32,9.47,2.11c1.56,0.39,3.11,0.81,4.64,1.24
						c0.77,0.22,1.53,0.44,2.29,0.67c0.34,0.1,3.49,1.09,1.56,0.47c6.01,1.95,11.81,4.21,17.36,6.75
						c11.26,5.15,20.74,11.04,29.61,18.34c18.31,15.06,29.74,33.46,32.51,53.23c6.62,47.24-30.21,89.99-64.14,128.39
						c-19.64,22.23-39.17,44.59-52.26,69.22c-0.61,1.15,3.58,2.33,4.16,2.49c3.04,0.79,6.86,1.06,10.06,1.03
						c4.33-0.05,12.39-0.06,14.22-3.51c23.52-44.26,68.95-80.44,95.73-123.57c13.34-21.48,22.79-44.79,21.25-68.45
						c-1.33-20.52-11.59-40.36-29.39-56.62c-19.23-17.57-46.61-30.82-76.95-36.76c-6.27-1.22-13.91-1.74-20.11,0
						c-1.49,0.42-4.16,1.07-4.16,2.49C1389.48,591.12,1392.27,592.01,1393.64,592.28L1393.64,592.28z"/>
				</g>
			</g>
			<g class="st7">
				<g>
					<path class="st8" d="M1326.62,1111.69c4.74,7.59,4.55,16.57,1.05,24.38c-1.7,3.8-4.47,7.38-7.87,10.55
						c-3.91,3.64-7.46,5.86-12.75,8.04c-5.4,2.22,2.31,4.43,5.1,4.81c5.98,0.81,13.96,1,19.45-1.26
						c23.34-9.58,33.34-30.96,22.44-48.38c-0.75-1.2-5.2-1.9-6.54-2.1c-3.45-0.52-7.46-0.64-10.95-0.35
						C1333.58,1107.61,1324.52,1108.34,1326.62,1111.69L1326.62,1111.69z"/>
				</g>
			</g>
		</g>
	</g>
</g>
</svg>
