<?xml version="1.0" encoding="utf-8"?>
<!-- Generator: Adobe Adobe Illustrator 24.2.0, SVG Export Plug-In . SVG Version: 6.00 Build 0)  -->
<svg version="1.1" xmlns="http://www.w3.org/2000/svg" xmlns:xlink="http://www.w3.org/1999/xlink" x="0px" y="0px"
	 viewBox="0 0 1700.79 1700.79" style="enable-background:new 0 0 1700.79 1700.79;" xml:space="preserve">
<style type="text/css">
	.st0{fill:#808D9C;}
	.st1{fill:#7F8E9C;}
	.st2{fill:#F4F5E9;}
	.st3{fill:#F4F6E8;}
	.st4{fill:#C0CEDA;}
	.st5{fill:#C2D0DC;}
	.st6{opacity:0.1804;}
	.st7{opacity:0.149;}
	.st8{fill:#F4F6E7;}
	.st9{stroke:#000000;stroke-width:0.7356;stroke-miterlimit:10;}
</style>
<g id="Ebene_4">
</g>
<g id="Ebene_5">
	<g>
		<path class="st0" d="M78.87,626.74c11.69,80.84,56.21,423.09,146.52,461.25c51.35,21.7,910.45-131.48,943.6-165.31
			c93.83-95.74-50.55-672.65-119.47-743.94c-54.23-56.09-734.38,87.92-734.38,87.92s-192.2,48.31-230.33,151.52"/>
		<g>
			<path class="st1" d="M74.48,628.45c8.4,58.12,16.95,116.18,28.16,173.84c7.46,38.36,15.88,76.57,26.18,114.28
				c9.29,34.03,19.88,67.95,34.37,100.16c10.62,23.6,23.71,49.03,44.09,65.76c9.74,7.99,18.66,11.51,30.91,11.9
				c35.43,1.14,71.47-4.06,106.54-8.27c57.81-6.95,115.43-15.51,172.94-24.53c68.22-10.7,136.3-22.23,204.28-34.36
				c66.72-11.91,133.34-24.39,199.79-37.73c53.33-10.71,106.62-21.81,159.47-34.66c18.04-4.39,36.06-8.95,53.86-14.25
				c10.55-3.15,21.63-6.23,31.34-11.56c11.63-6.37,18.54-21.29,23.11-33.07c8.47-21.83,11.69-45.64,13.35-68.86
				c4.67-65.2-2.61-131.37-12.19-195.81c-11-74.02-26.62-147.42-45.78-219.76c-15.85-59.85-33.54-119.9-58.03-176.86
				c-7.64-17.78-15.9-35.81-27.31-51.55c-3.27-4.51-6.72-8.85-11.55-11.75c-4.89-2.93-10.57-4.52-16.08-5.79
				c-17.2-3.95-35.3-4.25-52.86-4.2c-25.16,0.07-50.31,1.65-75.37,3.78c-64.18,5.45-128.07,14.42-191.71,24.26
				c-66.59,10.3-132.99,21.87-199.24,34.13c-50.14,9.28-100.2,18.98-150.17,29.1c-17.88,3.62-36.09,6.58-53.68,11.48
				c-57.35,15.99-115.31,39.85-163.37,75.38c-27.37,20.24-52.64,45.75-64.79,78.17c-2.29,6.12,6.33,5.86,8.15,1.01
				c12.52-33.4,40-58.78,68.8-78.53c29.13-19.98,61.23-35.42,94.06-48.27c19.94-7.81,40.28-14.74,60.95-20.37
				c1.68-0.46-0.48,0.08,1.13-0.3c0.23-0.05,0.46-0.13,0.69-0.18c0.42-0.09,0.84-0.17,1.26-0.27c3.04-0.67,6.1-1.28,9.14-1.91
				c35.97-7.48,72-14.66,108.07-21.66c60.21-11.69,120.54-22.83,180.99-33.2c66.37-11.39,132.91-21.95,199.71-30.46
				c54.29-6.91,109.24-13.45,164.05-13.38c17,0.02,34.54,0.4,51.17,4.3c4.59,1.08,9.91,2.69,14.42,5.59
				c0.85,0.55-0.27-0.28,0.74,0.53c0.34,0.27,0.68,0.53,1,0.83c0.95,0.88,1.83,1.83,2.68,2.8c2.06,2.34,4.13,5.07,5.77,7.45
				c11.06,15.99,19.12,34.2,26.65,52.04c10.99,26.03,20.39,52.72,29.1,79.59c21.77,67.15,39.19,135.76,53.53,204.86
				c14.63,70.54,26.32,142.07,30.86,214.03c1.87,29.67,2.56,59.55,0.21,89.21c-1.76,22.23-4.88,45.1-13.44,65.86
				c-3,7.29-7.41,15.33-12.1,20.6c-0.78,0.88-1.59,1.74-2.43,2.57c0.9-0.87,0.54-0.31-0.46,0.28c-0.59,0.34-1.16,0.71-1.75,1.05
				c-1.14,0.67-0.07,0.05-0.21,0.12c-0.42,0.21-0.83,0.42-1.26,0.62c-10.56,4.84-21.83,8.14-32.96,11.36
				c-42.01,12.14-84.91,21.41-127.64,30.6c-61.13,13.14-122.5,25.19-183.95,36.74c-68.03,12.78-136.18,24.89-204.45,36.34
				c-63.31,10.61-126.71,20.7-190.27,29.69c-46.88,6.63-93.91,13.06-141.13,16.77c-13.92,1.1-27.64,2.1-40.91,1.61
				c-3.87-0.14-7.78-0.38-11.56-1.26c-0.9-0.21,0.61,0.31-0.84-0.27c-1.67-0.67-3.29-1.45-4.87-2.3c-4.34-2.34-8.27-5.29-11.94-8.57
				c-19.9-17.82-32.43-43.45-42.85-67.57c-14.06-32.56-24.5-66.66-33.57-100.9c-18.62-70.24-31.49-141.97-42.47-213.76
				c-3.35-21.95-6.43-43.94-9.6-65.92C82.44,619.32,73.81,623.78,74.48,628.45L74.48,628.45z"/>
		</g>
	</g>
</g>
<g id="Ebene_6">
	<g>
		<g>
			<path class="st1" d="M220.01,1138.74c2.5,0,4.9-1.46,5.79-3.89c0.66-1.81,0.19-4.9-2.36-4.9c-2.5,0-4.9,1.46-5.79,3.89
				C216.99,1135.65,217.46,1138.74,220.01,1138.74L220.01,1138.74z"/>
		</g>
	</g>
	<g>
		<path class="st0" d="M213.11,1126.27c-45.8,107.44-54.12,230.43-23.21,343.05c14.08,51.29,37.85,102.7,80.85,134.01
			c68.39,49.8,162.51,35.3,245.44,18.58c215.01-43.35,430.03-86.69,645.04-130.04c37.46-7.55,75.4-15.26,109.69-32.13
			c34.29-16.86,60.58-47.52,73.3-83.55c31.23-88.43-60.35-275.57-111.42-394.07c-11.21-26.01-61.43-53.03-118.38-42.94
			c-300.04,53.18-599.51,116.62-887.52,167.66"/>
		<g>
			<path class="st1" d="M209.03,1125.77c-40.82,96.3-52.31,204.68-32.38,307.38c9,46.38,23.4,93.54,50.82,132.57
				c26.57,37.81,65.26,62.31,110.45,71.43c45.88,9.26,93.71,4.18,139.41-3.65c55.08-9.43,109.76-21.63,164.53-32.67
				c115.78-23.34,231.55-46.68,347.33-70.02c57.83-11.66,115.66-23.3,173.49-34.98c48.68-9.83,102.03-19.86,140.77-53.24
				c28.65-24.69,48.74-60.58,51.15-98.6c2.28-35.91-5.72-72.11-15.34-106.47c-23.28-83.1-60.23-161.76-94.73-240.6
				c-3.37-7.7-6.15-16.11-10.69-23.22c-4.32-6.78-10.14-12.47-16.56-17.26c-16.89-12.61-37.53-19.88-58.32-22.62
				c-27.1-3.57-53.47,2.66-80.01,7.43c-28.57,5.14-57.13,10.36-85.67,15.65c-115.29,21.37-230.37,43.82-345.47,66.22
				c-113.21,22.04-226.43,44.05-339.88,64.84c-26.79,4.91-53.59,9.75-80.41,14.5c-4.72,0.84-7.36,9.83-1.25,8.75
				c109.9-19.49,219.53-40.4,329.11-61.62c111.78-21.65,223.5-43.64,335.35-64.91c56.27-10.7,112.57-21.22,168.93-31.43
				c14.28-2.59,28.57-5.15,42.85-7.7c13.17-2.35,26.15-4.53,39.59-4.07c22.01,0.76,44.18,6.63,62.89,18.45
				c7.23,4.57,14.09,10.26,19.21,17.16c4.8,6.45,7.4,14.48,10.59,21.79c7.93,18.16,15.98,36.27,23.93,54.42
				c17.31,39.5,34.28,79.18,49.26,119.63c14.05,37.94,26.83,76.77,33.79,116.71c5.45,31.27,7.76,64.36-4.8,94.24
				c-8.5,20.23-21.63,38.39-38.16,52.81c-18.85,16.44-42.16,26.25-65.77,33.75c-25.48,8.09-51.79,13.12-77.96,18.4
				c-28.57,5.76-57.14,11.52-85.7,17.28c-112.77,22.73-225.54,45.47-338.31,68.2c-56.38,11.37-112.77,22.73-169.15,34.1
				c-48.45,9.77-97.05,21.04-146.52,24.05c-45.09,2.75-92.19-2.16-131.43-26.23c-39.38-24.16-64.08-65.02-79.71-107.47
				c-34.97-94.96-36.76-203.04-11.49-300.5c6.33-24.41,14.56-48.31,24.4-71.52C219.73,1120.76,211.04,1121.04,209.03,1125.77
				L209.03,1125.77z"/>
		</g>
	</g>
</g>
<g id="Ebene_8">
	<g>
		<path class="st2" d="M258.49,1165.62c0,0-28.6,107.35,8.83,195.95c4.5,10.65,522.31,4.48,914.24-142.77
			c84.19-31.63-21.79-201.7-31.16-215.8c-11.92-17.94-88.09-16.89-112.8-12.46c-98.17,17.59-550.14,94.5-767.13,165.04"/>
		<g>
			<path class="st3" d="M254.12,1166.25c-7.62,28.71-10.31,59.33-10.46,88.91c-0.14,26.79,2.55,53.76,9.54,79.67
				c1.82,6.77,3.9,13.47,6.31,20.05c1.14,3.11,2.04,8.05,4.46,10.46c1.07,1.06,2.76,1.4,4.15,1.71c12.24,2.78,25.84,2.1,38.29,2.24
				c25.94,0.3,51.9-0.35,77.82-1.35c36.57-1.4,73.11-3.63,109.6-6.47c44.4-3.45,88.73-7.83,132.96-13.08
				c50.06-5.95,99.98-13.03,149.7-21.36c52.66-8.82,105.09-19.04,157.13-30.95c53.09-12.15,105.8-26.05,157.8-42.22
				c25.54-7.94,50.9-16.44,76.04-25.59c15.98-5.82,31.51-11.24,41.17-26.18c16.65-25.74,9.07-60.74,0.71-87.95
				c-9.5-30.91-23.77-60.39-39.61-88.51c-4.48-7.96-9.1-15.86-14.05-23.55c-6.92-10.76-20.38-13.59-32.26-15.61
				c-31.55-5.37-64.55-3.97-95.94,1.6c-24.91,4.42-49.82,8.79-74.72,13.23c-35.78,6.38-71.54,12.87-107.27,19.49
				c-43.06,7.98-86.09,16.17-129.06,24.62c-46.03,9.05-92,18.41-137.87,28.21c-45.52,9.72-90.96,19.87-136.22,30.75
				c-40.71,9.79-81.31,20.13-121.57,31.67c-17.02,4.88-33.97,9.99-50.81,15.46c-4.95,1.61-5.2,10.16,1.01,8.15
				c35.94-11.67,72.38-21.8,108.96-31.28c42.56-11.04,85.35-21.18,128.24-30.84c45.06-10.15,90.23-19.76,135.48-29.02
				c44.25-9.06,88.58-17.77,132.94-26.24c39.49-7.54,79.01-14.88,118.57-22.07c30.99-5.63,62-11.17,93.01-16.65
				c21.4-3.78,43.05-8.86,64.75-10.49c19.33-1.45,39-1.34,58.26,0.94c11.17,1.32,29.38,3.2,35.78,12.72
				c12.67,18.84,23.32,39.46,33.06,59.92c14.02,29.43,27.29,61.56,29.24,94.47c0.76,12.8-0.49,26.72-7.62,37.75
				c-9.36,14.47-27.3,18.46-42.53,23.92c-50.29,18.02-101.48,33.54-153.15,47.11c-51.31,13.48-103.1,25.08-155.17,35.2
				c-50.3,9.77-100.87,18.15-151.61,25.31c-46.47,6.56-93.08,12.11-139.79,16.68c-40.09,3.92-80.26,7.12-120.48,9.5
				c-31.2,1.84-62.43,3.21-93.68,3.78c-19.54,0.35-39.16,0.55-58.69-0.53c-4.75-0.26-9.49-0.61-14.19-1.38
				c-0.35-0.06-0.7-0.14-1.04-0.22c-1.03-0.23,0.84,0.08,0.02,0.01c-0.45-0.03-1.86-0.79-0.26,0.08c-0.54-0.29,0.45,0.39,0.35,0.56
				c0.56-0.92-3.5-8.84-3.99-10.18c-2.44-6.72-4.55-13.56-6.31-20.49c-11.58-45.4-10.84-93.74-3.09-139.73
				c1.32-7.86,2.77-15.76,4.82-23.48c0.62-2.34-1.66-3.98-3.75-3.75C256.47,1161.54,254.75,1163.88,254.12,1166.25L254.12,1166.25z"
				/>
		</g>
	</g>
	<g>
		<path class="st2" d="M624.36,1451.02c-5.04-23.92-5.19-50.03,4.97-52.33c25.73-5.82,52.48-12.21,75.37-14.57
			c58.58-6.04,117.16-12.07,175.74-18.11c5.56-0.57,11.21-1.14,16.72-0.18c13.19,2.31,23.55,13.27,28.83,25.57
			c5.28,12.31,6.34,25.95,7.33,39.3c-94.62,17.06-189.24,34.12-283.87,51.18c-5.88,1.06-12.25,2.05-17.57-0.66
			s-2.06-18.62-5.5-23.53"/>
		<g>
			<path class="st3" d="M628.75,1449.3c-2.35-11.44-4.18-23.5-3.08-35.19c0.28-2.98,0.43-7.85,2.52-10.21
				c0.98-1.11,0.94-0.67,2.35-1.25c3.35-1.37,7.54-1.71,11.09-2.52c25.99-5.89,51.73-10.53,78.24-13.26
				c28.3-2.92,56.61-5.83,84.91-8.75c14.48-1.49,28.96-2.98,43.44-4.48c6.58-0.68,13.16-1.36,19.75-2.03
				c7.23-0.74,14.65-2.03,21.93-1.89c12.83,0.23,23.23,8.36,29.41,19.23c7.47,13.16,8.52,28.72,9.62,43.48
				c1.67-2.03,3.34-4.06,5.02-6.09c-90.71,16.35-181.41,32.71-272.12,49.06c-5.78,1.04-11.61,2.39-17.46,2.98
				c-3.67,0.37-9.53,0.84-10.82-3.45c-1.91-6.38,0.52-13.98-3.05-19.93c-2.76-4.61-10.68,1.33-8.23,5.41
				c3.01,5.01,1.26,12.37,2.49,17.95c1.79,8.06,9.27,9.4,16.71,8.92c11.27-0.74,22.68-3.77,33.78-5.77
				c11.75-2.12,23.49-4.24,35.24-6.35c47.31-8.53,94.62-17.06,141.93-25.59c26.76-4.82,53.51-9.65,80.27-14.47
				c2.81-0.51,5.24-3.15,5.02-6.09c-1.79-23.98-5.74-54.47-31.06-65.25c-12.83-5.46-28.05-1.85-41.38-0.48
				c-15.8,1.63-31.59,3.26-47.39,4.88c-30.94,3.19-61.87,6.38-92.81,9.56c-14.64,1.51-29.25,2.93-43.74,5.57
				c-14.75,2.68-29.38,6.04-44,9.36c-5.15,1.17-10.53,1.63-14.32,5.68c-3.35,3.58-4.81,8.56-5.61,13.28
				c-2.29,13.48-0.15,27.9,2.57,41.13C621.13,1458.41,629.7,1453.94,628.75,1449.3L628.75,1449.3z"/>
		</g>
	</g>
	<g>
		<g>
			<path class="st3" d="M1172.03,1055.3c2.5,0,4.9-1.46,5.79-3.89c0.66-1.81,0.19-4.9-2.36-4.9c-2.5,0-4.9,1.46-5.79,3.89
				C1169.01,1052.22,1169.48,1055.3,1172.03,1055.3L1172.03,1055.3z"/>
		</g>
	</g>
</g>
<g id="Ebene_7">
	<g>
		<path class="st4" d="M144.29,625.45c55.9,197.37,100.24,396.13,155.49,390.63c136.35-13.58,683.27-103.98,781.54-145.22
			c26.47-11.11,29.55-78.49,27.16-107.1c-12.05-143.82-31.98-286.98-59.68-428.61c-6.7-34.25-17.58-73.27-49.44-87.49
			c-97.37-43.46-730.17,70.1-834.04,151.89c-31.72,24.97-35.15,73.13-34.5,113.49s10.69,79.91,20.67,119.02"/>
		<g>
			<path class="st5" d="M140.17,628.16c22.2,78.44,42.23,157.55,66.37,235.44c9.39,30.31,19.34,60.6,31.96,89.74
				c8.24,19.02,17.64,39.33,32.27,54.39c4.83,4.97,10.61,9.48,17.31,11.56c6.09,1.9,12.09,1.08,18.3,0.41
				c14.14-1.52,28.25-3.29,42.36-5.14c39.68-5.2,79.28-11.06,118.84-17.13c49.25-7.56,98.44-15.53,147.57-23.82
				c52.13-8.79,104.2-17.94,156.19-27.55c48.32-8.94,96.58-18.24,144.67-28.34c38.11-8,76.19-16.35,113.82-26.38
				c12.84-3.42,25.65-7.01,38.24-11.28c4.62-1.57,9.3-3.14,13.76-5.13c9.71-4.33,15.85-13.14,20.07-22.6
				c10.23-22.93,11.83-50.19,11.62-74.96c-0.13-15.6-1.98-31.18-3.4-46.7c-1.98-21.56-4.14-43.1-6.47-64.62
				c-9.26-85.44-21.31-170.57-36.12-255.22c-3.73-21.32-7.64-42.62-11.72-63.88c-3.11-16.19-6.13-32.43-11.24-48.13
				c-7.74-23.79-21.59-47.93-46.39-56.83c-22.4-8.04-48-8.18-71.48-8.31c-37.67-0.22-75.35,2.47-112.83,6.05
				c-46.33,4.42-92.49,10.49-138.49,17.51c-49.71,7.58-99.24,16.33-148.55,26.15c-47.96,9.55-95.73,20.11-143.14,32.09
				c-40.68,10.28-81.2,21.49-120.95,34.97c-28.57,9.69-57.49,20.25-83.69,35.4c-15.76,9.12-28.95,20.81-37.47,37.28
				c-14.32,27.65-15.63,60.41-15.16,90.92c0.63,40.75,10.66,80.46,20.68,119.72c1.43,5.62,9.95,1.15,8.78-3.43
				c-10.14-39.74-20.19-79.87-20.7-121.12c-0.37-29.93,0.85-63.79,17.37-89.86c15.2-24,45.33-35.57,70.48-45.75
				c34-13.77,69.16-24.67,104.42-34.68c43.88-12.45,88.22-23.23,132.75-33.07c48.12-10.64,96.49-20.13,145.03-28.6
				c47.51-8.29,95.19-15.61,143.05-21.62c41.61-5.23,83.37-9.55,125.25-11.81c30.42-1.64,61.32-2.67,91.66,0.78
				c9.58,1.09,19.38,2.62,27.92,5.74c25.35,9.26,37.78,35.04,44.91,59.33c5.02,17.1,7.91,34.82,11.22,52.31
				c3.9,20.63,7.63,41.29,11.19,61.97c7.19,41.7,13.71,83.51,19.55,125.42c5.85,41.91,11.02,83.91,15.52,125.98
				c2.23,20.87,4.3,41.76,6.19,62.67c1.34,14.76,3.02,29.53,3.05,44.37c0.03,12.86-0.85,25.78-2.8,38.49
				c-1.79,11.65-4.35,23.86-10.08,34.28c-3.77,6.86-8.43,10.69-15.58,13.44c-4.84,1.86-9.76,3.53-14.7,5.12
				c-30.25,9.73-61.34,16.92-92.31,23.93c-43.73,9.91-87.69,18.82-131.71,27.36c-50.14,9.72-100.39,18.9-150.69,27.73
				c-50.5,8.86-101.07,17.36-151.69,25.5c-44.1,7.09-88.24,13.93-132.46,20.29c-31.64,4.55-63.32,9-95.1,12.42
				c-5.39,0.58-10.49,1.48-15.71-0.42c-6.53-2.37-11.82-7.23-16.35-12.34c-14.4-16.24-23.53-37.33-31.75-57.15
				c-12.06-29.07-21.78-59.09-30.99-89.17c-11.38-37.17-21.76-74.64-32.07-112.12c-10.73-39.02-21.34-78.07-32.36-117.01
				C147,617.81,138.88,623.59,140.17,628.16L140.17,628.16z"/>
		</g>
	</g>
</g>
<g id="Ebene_3">
	<g>
		<g>
			<path d="M230.75,1251.13c0.37,16.37,1.19,32.76,3.47,48.98c2.34,16.63,5.94,34.02,14.17,48.84c4.68,8.42,10.92,14.06,19.54,18.3
				c21.14,10.39,46.61,12.51,69.75,13.93c35.87,2.2,71.98,0.82,107.8-1.58c44.78-3,89.42-7.97,133.89-13.92
				c49.28-6.6,98.4-14.47,147.34-23.27c49.34-8.87,98.51-18.68,147.48-29.44c45.65-10.03,91.14-20.87,136.32-32.87
				c37.29-9.91,74.45-20.5,111.01-32.87c25.27-8.55,50.81-17.64,74.31-30.41c6.95-3.78,14.03-8,19.67-13.62
				c9.55-9.51,11.18-24.06,10.6-36.91c-1.1-24.24-9.75-48.28-19.01-70.46c-10.2-24.45-22.55-48.08-36.49-70.6
				c-5.58-9.01-11.44-17.89-17.81-26.36c-4.06-5.41-8.34-11.12-13.61-15.42c-5.07-4.14-11.47-5.05-17.82-5.55
				c-23.38-1.85-47.45,1.21-70.65,3.86c-37.07,4.23-73.98,9.99-110.78,16.14c-45.81,7.65-91.48,16.08-137.08,24.89
				c-49.3,9.53-98.5,19.55-147.63,29.92c-47.5,10.03-94.94,20.41-142.28,31.16c-40.93,9.3-81.8,18.86-122.54,28.94
				c-29.29,7.25-58.59,14.64-87.56,23.1c-8.51,2.49-17.03,5.02-25.36,8.07c-9.35,3.42-16.06,8.09-23.05,15.7
				c-22.85,24.86-23.73,59.25-23.68,91.16c0,2.51,3.07,3.03,4.9,2.36c2.45-0.89,3.89-3.28,3.89-5.79
				c-0.05-31.54,0.54-71.56,29.98-91.29c0.55-0.37,2.77-1.56,0.92-0.64c0.96-0.48,1.94-0.93,2.93-1.35
				c2.75-1.17,5.57-2.18,8.39-3.16c21.54-7.45,43.75-13.12,65.79-18.86c35.65-9.29,71.46-17.94,107.32-26.36
				c44.37-10.42,88.84-20.44,133.37-30.16c48.18-10.52,96.44-20.69,144.78-30.47c47.1-9.53,94.27-18.69,141.55-27.27
				c41.12-7.46,82.32-14.53,123.68-20.58c30.24-4.42,60.65-8.59,91.17-10.39c9.86-0.58,18.22-0.97,28.04-0.24
				c3.17,0.24,6.32,0.62,9.42,1.33c1.4,0.32-0.33-0.17,0.79,0.22c0.54,0.19,1.09,0.36,1.62,0.6c1.73,0.76,1.81,0.86,3.11,1.97
				c12.87,11.09,22.25,27.28,31.02,41.58c13.7,22.33,25.85,45.73,35.88,69.94c9.01,21.76,17.43,45.3,18.08,69.1
				c0.21,7.6-0.45,16.34-4.4,23.05c-0.26,0.44-0.57,0.84-0.84,1.28c-1,1.6,0.49-0.4-0.53,0.68c-0.96,1.02-1.92,2-2.96,2.94
				c-0.29,0.27-0.6,0.52-0.89,0.77c-1.07,0.93,0.35-0.27-0.13,0.11c-0.69,0.54-1.38,1.07-2.08,1.58c-1.56,1.14-3.16,2.21-4.79,3.25
				c-1.78,1.13-3.6,2.21-5.44,3.26c-0.96,0.55-1.94,1.09-2.91,1.61c-0.48,0.26-0.95,0.51-1.43,0.77c-1.15,0.61-0.7,0.37-1.11,0.58
				c-10.53,5.42-21.46,10.05-32.46,14.39c-30.92,12.2-62.74,22.16-94.64,31.48c-41.01,11.98-82.4,22.64-123.95,32.56
				c-46.98,11.22-94.19,21.45-141.56,30.85c-48.71,9.66-97.61,18.44-146.67,26.16c-46.38,7.3-92.93,13.68-139.63,18.56
				c-40.01,4.18-80.21,7.37-120.45,8.04c-29.44,0.49-59.5,0.05-88.51-5.5c-9.87-1.89-19.02-4.17-28.18-8.58
				c-8.61-4.15-13.89-9.31-18.1-17.39c-7.61-14.59-10.88-31.22-13.01-47.39c-2.05-15.51-2.82-31.15-3.17-46.77
				C239.41,1242.05,230.65,1246.47,230.75,1251.13L230.75,1251.13z"/>
		</g>
	</g>
	<g>
		<g>
			<path d="M240.31,1101.86c-19.55,0.53-32.82,18.39-40.93,34.19c-12.75,24.85-18.77,53.21-23.1,80.6
				c-11.35,71.91-10.51,147.22,0.16,219.15c4.65,31.36,11.3,63.13,23.59,92.48c16.95,40.49,46.86,77.23,85.41,98.79
				c50.77,28.39,108.22,19.76,162.76,9.42c63.02-11.95,126.03-23.92,189.04-35.88c124.55-23.64,249.09-47.27,373.64-70.91
				c31.14-5.91,62.27-11.82,93.41-17.73c29.69-5.63,59.56-10.74,88.86-18.23c49.84-12.76,99.28-34.27,132.12-75.46
				c15.82-19.85,25.96-43.53,29.56-68.65c3.88-27.1,0.51-54.77-5.95-81.2c-6.68-27.35-16.56-53.78-26.87-79.93
				c-11.51-29.19-23.04-58.37-34.57-87.56c-11.4-28.86-22.61-57.81-34.21-86.59c-8.5-21.1-18.23-42.72-34-59.48
				c-17.22-18.3-39.98-25.72-64.8-24.79c-14.3,0.54-28.38,3.35-42.4,6.02c-15.5,2.95-30.99,5.89-46.49,8.84
				c-122.55,23.31-245.1,46.61-367.64,69.92c-122.32,23.26-244.65,46.53-366.97,69.79C300.72,1090.38,270.51,1096.12,240.31,1101.86
				c-4.69,0.89-7.34,9.91-1.25,8.75c119.65-22.76,239.3-45.51,358.95-68.27c118.79-22.59,237.58-45.18,356.37-67.78
				c30.02-5.71,60.03-11.42,90.05-17.13c29.5-5.61,58.99-12.12,88.68-16.61c26.15-3.95,52.77-2.74,73.42,15.61
				c16.87,14.98,27.08,35.98,35.66,56.45c23.05,54.97,43.93,110.96,65.82,166.41c20.16,51.05,43.68,105.83,39.13,161.96
				c-2.1,25.89-10.97,50.37-26.76,71.06c-14.57,19.09-33.98,34.2-54.87,45.8c-50.04,27.79-109,35.41-164.43,45.93
				c-121.58,23.07-243.16,46.15-364.74,69.22c-60.42,11.47-120.84,22.93-181.26,34.4c-30.4,5.77-60.79,11.54-91.19,17.31
				c-29.02,5.51-58.17,11.7-87.77,12.82c-27.16,1.03-54.15-3.28-78.61-15.45c-20.93-10.42-39.2-25.56-54.43-43.22
				c-23.5-27.25-38.38-59.6-47.39-94.17c-17.77-68.18-21.21-141.25-16.88-211.33c1.99-32.33,5.79-64.9,13.97-96.3
				c5.29-20.28,12.46-44.31,28.32-59.06c4.92-4.58,10.76-7.48,17.93-7.67C243.92,1110.48,246.54,1101.7,240.31,1101.86
				L240.31,1101.86z"/>
		</g>
	</g>
	<g>
		<g>
			<path d="M194.3,1507.46c75.95,2.2,151.97,1.55,227.87-1.91c76.74-3.5,153.36-9.89,229.63-19.11
				c76.79-9.28,153.23-21.44,229.11-36.47c75.05-14.87,149.54-32.57,223.25-53.1c73.57-20.49,146.36-43.83,218.07-70.11
				c8.92-3.27,17.82-6.59,26.71-9.95c4.84-1.83,5.11-10.46-1.01-8.15c-71.05,26.84-143.16,50.81-216.11,71.92
				c-73.39,21.24-147.62,39.58-222.42,55.11c-75.03,15.58-150.66,28.33-226.64,38.26c-75.86,9.92-152.1,17.02-228.49,21.28
				c-75.93,4.23-152,5.65-228.03,4.14c-9.5-0.19-19-0.42-28.5-0.7C193.08,1498.55,188.63,1507.3,194.3,1507.46L194.3,1507.46z"/>
		</g>
	</g>
	<g>
		<g>
			<path d="M629.29,1478.79c-1.02-17.56-5.98-34.64-6.42-52.3c-0.33-13.23,1.4-29.41,16.96-31.88c18.74-2.98,37.54-5.68,56.3-8.51
				c34.67-5.24,69.34-10.48,104.01-15.73c27.03-4.09,54.07-8.18,81.1-12.26c5.2-0.79,11.78-2.78,16.84-0.69
				c8.43,3.49,12.79,13.99,15.86,21.86c4.57,11.72,7.46,24.04,10.41,36.24c1.44,5.97,2.87,11.93,4.43,17.87
				c1.47,5.61,9.98,1.14,8.78-3.43c-3.31-12.66-6.07-25.46-9.58-38.07c-3.07-11.02-6.45-22.52-12.9-32.1
				c-5-7.42-12.11-12.88-21.45-12.08c-1.54,0.13-3.08,0.43-4.61,0.66c-24.84,3.76-49.67,7.51-74.51,11.27
				c-36.33,5.49-72.66,10.99-108.99,16.48c-21.31,3.22-42.65,6.34-63.95,9.67c-39.49,6.18-26.32,59.13-22.29,85.92
				c0.52,3.49,1.01,6.99,1.22,10.51C620.84,1487.91,629.56,1483.47,629.29,1478.79L629.29,1478.79z"/>
		</g>
	</g>
	<g>
		<g>
			<path d="M753.86,1378.04c5.19,28.48,6.08,57.58,11.27,86.06c1.04,5.69,9.63,1.22,8.78-3.43c-5.19-28.48-6.08-57.58-11.27-86.06
				C761.61,1368.92,753.02,1373.39,753.86,1378.04L753.86,1378.04z"/>
		</g>
	</g>
	<g>
		<g>
			<path d="M311.65,1368.75c-9.34-60.83-6.91-124.39,3.6-184.91c2.85-16.41,6.44-32.7,11.15-48.68c1.84-6.25-6.67-6.03-8.15-1.01
				c-17.71,60.11-23.05,124.68-20.26,187.12c0.76,17.04,2.29,34.05,4.88,50.91C303.74,1377.88,312.37,1373.42,311.65,1368.75
				L311.65,1368.75z"/>
		</g>
	</g>
	<g>
		<g>
			<path d="M398.94,1373.91c-7.53-32.81-10.33-66.64-10.72-100.25c-0.41-35.55,2.07-71.21,7.43-106.36
				c2.76-18.11,6.34-36.09,11.04-53.8c0.62-2.34-1.66-3.98-3.75-3.75c-2.65,0.29-4.37,2.64-5,5
				c-8.72,32.89-13.74,66.74-16.41,100.63c-2.81,35.58-3.06,71.49,0.15,107.05c1.67,18.46,4.33,36.84,8.48,54.91
				C391.45,1382.99,400,1378.52,398.94,1373.91L398.94,1373.91z"/>
		</g>
	</g>
	<g>
		<g>
			<path d="M477.41,1365.6c-9.44-33.04-13.01-67.76-14.09-102.01c-1.16-36.4,0.84-72.97,5.8-109.04
				c2.55-18.57,5.95-37.03,10.51-55.22c0.59-2.34-1.64-3.98-3.75-3.75c-2.62,0.29-4.41,2.63-5,5
				c-8.55,34.12-13.19,69.22-15.35,104.3c-2.27,36.95-1.86,74.27,2.71,111.04c2.31,18.61,5.8,37.05,10.95,55.09
				C470.59,1375.95,478.72,1370.17,477.41,1365.6L477.41,1365.6z"/>
		</g>
	</g>
	<g>
		<g>
			<path d="M540.16,1360.44c-6.23-34.66-8.02-70.1-8.41-105.27c-0.43-38.4,1.15-76.83,4.3-115.1c1.57-19.13,3.56-38.22,6.15-57.24
				c0.84-6.16-8.1-3.54-8.75,1.25c-9.98,73.42-13.59,148.86-8.69,222.83c1.26,19.08,3.24,38.13,6.62,56.95
				C532.4,1369.56,541,1365.1,540.16,1360.44L540.16,1360.44z"/>
		</g>
	</g>
	<g>
		<g>
			<path d="M625.65,1349.96c-8.42-34.59-12.58-70.23-15.23-105.68c-2.92-39.08-3.79-78.41-1.82-117.55
				c0.95-18.86,2.56-37.72,5.52-56.38c0.97-6.13-8-3.51-8.75,1.25c-5.58,35.27-6.78,71.24-6.55,106.89
				c0.26,39.33,2.63,78.73,7.75,117.73c2.52,19.2,5.72,38.34,10.3,57.17C618.24,1359.03,626.77,1354.55,625.65,1349.96
				L625.65,1349.96z"/>
		</g>
	</g>
	<g>
		<g>
			<path d="M681.15,1281.27c-6.39-29.59-9.29-59.93-10.84-90.13c-1.6-31.2-1.63-62.54,0.37-93.73c0.93-14.45,2.29-28.89,4.61-43.18
				c1-6.13-7.98-3.5-8.75,1.25c-4.43,27.25-5.71,55.03-6.07,82.6c-0.43,32.36,0.77,64.82,4.2,97.01c1.77,16.65,4.16,33.25,7.7,49.62
				C673.59,1290.36,682.15,1285.89,681.15,1281.27L681.15,1281.27z"/>
		</g>
	</g>
	<g>
		<g>
			<path d="M749.17,1263.34c-6.07-26.44-9.5-53.55-12.93-80.43c-4.03-31.66-7.45-63.41-10.43-95.19
				c-1.29-13.81-2.51-27.64-3.5-41.47c-0.41-5.69-9.12-1.25-8.78,3.43c4.24,58.87,10.5,117.87,19.42,176.21
				c2.09,13.69,4.34,27.38,7.44,40.88C741.69,1272.42,750.23,1267.95,749.17,1263.34L749.17,1263.34z"/>
		</g>
	</g>
	<g>
		<g>
			<path d="M822.38,1244.04c-8.56-56.4-24.51-111.71-38.85-166.84c-3.56-13.68-7.1-27.36-10.44-41.09c-1.37-5.64-9.9-1.17-8.78,3.43
				c13.33,54.88,29.06,109.16,41.05,164.36c3.14,14.44,6.02,28.95,8.24,43.57C814.46,1253.18,823.09,1248.72,822.38,1244.04
				L822.38,1244.04z"/>
		</g>
	</g>
	<g>
		<g>
			<path d="M822.93,1029.86c15.73,31.67,27.12,65.49,37.28,99.3c11.28,37.54,20.73,75.65,28.95,113.98
				c4,18.65,7.68,37.36,10.95,56.15c0.99,5.7,9.59,1.23,8.78-3.43c-12.84-73.73-30.24-147.67-55.54-218.18
				c-6.49-18.1-13.65-35.99-22.2-53.22C828.78,1019.67,820.8,1025.57,822.93,1029.86L822.93,1029.86z"/>
		</g>
	</g>
	<g>
		<g>
			<path d="M887.18,1013.29c18.61,30.92,33.45,64.05,46.31,97.72c13.65,35.73,25.06,72.36,34.03,109.54
				c4.62,19.14,8.57,38.45,11.58,57.91c0.88,5.71,9.51,1.24,8.78-3.43c-5.54-35.81-14.17-71.12-24.56-105.82
				c-11.06-36.93-24.27-73.32-40.3-108.4c-8.28-18.11-17.35-35.87-27.61-52.93C892.64,1003.28,884.73,1009.22,887.18,1013.29
				L887.18,1013.29z"/>
		</g>
	</g>
	<g>
		<g>
			<path d="M956.92,1002.36c20.42,28.07,34.8,60.62,47.44,92.77c14.1,35.86,25.78,72.71,35.54,109.97
				c4.69,17.89,8.93,35.9,12.49,54.06c1.11,5.68,9.69,1.21,8.78-3.43c-6.84-34.88-16.01-69.33-26.61-103.25
				c-11.61-37.16-25.02-74.01-42.19-109c-8.22-16.75-17.39-33.08-28.38-48.19C961.14,991.36,953.97,998.3,956.92,1002.36
				L956.92,1002.36z"/>
		</g>
	</g>
	<g>
		<g>
			<path d="M1028.74,990.94c17.55,28.95,31.04,60.29,43.31,91.78c13.13,33.71,24.67,68.01,35.82,102.42
				c5.69,17.57,11.26,35.18,16.92,52.76c1.59,4.94,9.69-0.87,8.23-5.41c-21.48-66.66-41.71-134.16-70.68-198.06
				c-7.58-16.73-15.84-33.18-25.36-48.89C1034.18,980.94,1026.27,986.87,1028.74,990.94L1028.74,990.94z"/>
		</g>
	</g>
	<g>
		<g>
			<path d="M1089.87,985.01c15.49,27.1,28.31,55.72,40.39,84.46c13.24,31.5,25.42,63.46,36.86,95.66c5.6,15.75,11,31.57,16.17,47.47
				c1.6,4.94,9.7-0.87,8.23-5.41c-20.19-62.12-43.03-123.83-70.65-183.05c-7.05-15.11-14.49-30.06-22.77-44.54
				C1095.43,974.95,1087.5,980.87,1089.87,985.01L1089.87,985.01z"/>
		</g>
	</g>
	<g>
		<g>
			<path d="M247.3,1191.01c59.06-1.78,118.05-5.64,176.87-11.25c60.76-5.79,121.34-13.44,181.67-22.73
				c61.03-9.4,121.81-20.49,182.24-33.2c59.7-12.56,119.06-26.72,177.99-42.5c57.4-15.37,114.39-32.31,170.79-51.03
				c7.01-2.33,14-4.68,20.99-7.06c4.92-1.67,5.18-10.25-1.01-8.15c-55.67,18.96-111.94,36.16-168.63,51.79
				c-59.06,16.29-118.6,30.85-178.48,43.83c-60.06,13.02-120.47,24.42-181.14,34.17c-60.12,9.66-120.5,17.7-181.07,23.92
				c-59.08,6.07-118.34,10.43-177.69,12.71c-7.09,0.27-14.18,0.51-21.28,0.73C243.68,1182.4,241.06,1191.19,247.3,1191.01
				L247.3,1191.01z"/>
		</g>
	</g>
	<g>
		<g>
			<path d="M233.71,1263.79c61.71,0.24,123.41-2.36,184.92-7.28c63.98-5.12,127.75-12.73,191.18-22.47
				c64.68-9.94,129.02-22.11,192.87-36.4c62.98-14.09,125.51-30.25,187.4-48.56c59.53-17.62,118.48-37.24,176.54-59.23
				c7.12-2.7,14.23-5.43,21.32-8.2c4.81-1.88,5.08-10.52-1.01-8.15c-57.19,22.3-115.28,42.28-173.97,60.24
				c-61.33,18.77-123.33,35.34-185.8,49.85c-63.17,14.68-126.83,27.27-190.84,37.7c-63.28,10.31-126.91,18.5-190.76,24.28
				c-61.97,5.61-124.18,8.97-186.41,9.41c-7.34,0.05-14.68,0.06-22.02,0.03c-2.49-0.01-4.91,1.46-5.79,3.89
				C230.69,1260.71,231.17,1263.78,233.71,1263.79L233.71,1263.79z"/>
		</g>
	</g>
	<g>
		<g>
			<path d="M247.77,1332.61c63.37,0,126.69-3.49,189.73-9.86c64.03-6.48,127.75-15.86,191.06-27.39
				c63.8-11.62,127.19-25.43,190.2-40.76c62.74-15.26,125.11-32.03,187.2-49.73c61.64-17.56,123-36.05,184.25-54.92
				c7.46-2.3,14.91-4.6,22.37-6.91c4.98-1.54,5.22-10.08-1.01-8.15c-60.48,18.72-121.05,37.14-181.86,54.73
				c-62.15,17.97-124.55,35.07-187.33,50.72c-62.33,15.53-125.02,29.65-188.12,41.71c-62.67,11.98-125.75,21.93-189.15,29.13
				c-63.25,7.18-126.85,11.65-190.52,12.51c-7.79,0.11-15.59,0.15-23.39,0.15c-2.5,0-4.9,1.46-5.79,3.89
				C244.75,1329.52,245.23,1332.61,247.77,1332.61L247.77,1332.61z"/>
		</g>
	</g>
	<g>
		<g>
			<path d="M242.39,1102.13c-32.65-16.42-54.2-50.18-70.3-81.72c-22.82-44.7-37.86-93.31-49.88-141.88
				c-13.68-55.26-23.24-111.53-30.08-168.02c-6.46-53.4-10.53-107.17-11.42-160.96c-0.67-40.03-0.27-80.8,6.29-120.4
				c1.98-11.96,4.2-23.24,9.4-34.2c4.69-9.89,12.71-19.08,21.48-27.16c24.18-22.28,55.61-38.14,85.89-51.48
				c41.6-18.33,84.98-32.57,128.64-45.11c50.65-14.55,102-26.6,153.61-37.21c53.79-11.06,107.9-20.5,162.21-28.61
				c51.24-7.65,102.67-14.14,154.24-19.21c43.17-4.25,86.47-7.6,129.83-9.02c29.32-0.96,59.16-1.6,88.34,2.03
				c8.37,1.04,16.18,2.14,23.07,5.21c3.44,1.53,3.52,1.64,6.21,4.32c2.8,2.78,5.37,6.28,7.14,8.95
				c16.11,24.34,26.32,53.07,36.11,80.37c15.09,42.07,27.69,85.05,39.08,128.25c13.29,50.4,24.82,101.28,34.55,152.49
				c9.6,50.51,17.53,101.4,22.43,152.59c4.07,42.56,6.54,85.78,2.68,128.45c-1.44,15.9-3.71,31.94-8.36,47.25
				c-1.91,6.3-4.22,12.5-7.16,18.39c-0.85,1.69-2.5,4.61-3.96,6.85c-0.75,1.15-1.53,2.27-2.35,3.37c-1.26,1.69-0.85,1.2-2.06,2.55
				c-6.3,7.04-12.94,11.16-22.31,12.44c-4.78,0.65-7.42,9.59-1.25,8.75c25.04-3.43,39.19-26.47,46.38-48.6
				c11.18-34.39,12.13-72.01,11.6-107.85c-0.73-48.58-5.98-97.09-12.96-145.13c-7.69-52.91-17.76-105.48-29.54-157.63
				c-11.07-49-23.65-97.69-38.24-145.77c-11.2-36.92-23.3-73.88-39.05-109.15c-5.06-11.33-10.48-22.69-17.37-33.04
				c-4.08-6.13-8.69-12.55-15.54-15.79c-7.44-3.52-16.12-4.79-24.19-5.86c-12.64-1.67-25.41-2.28-38.15-2.6
				c-37.64-0.94-75.37,0.9-112.91,3.47c-48.75,3.34-97.39,8.31-145.87,14.33c-54.36,6.75-108.56,14.88-162.51,24.4
				c-54.33,9.6-108.42,20.6-162.03,33.65c-48.8,11.88-97.31,25.34-144.69,42.07c-38.15,13.47-76.2,28.92-110.83,50.03
				c-23.58,14.37-48.2,32.61-60.4,58.19c-5.38,11.28-7.88,24.02-9.91,36.26c-2.96,17.84-4.42,35.93-5.34,53.97
				c-2.51,49.03-0.92,98.3,2.54,147.25c4.06,57.3,11,114.45,21.16,170.99c9.77,54.34,22.4,108.49,40.81,160.6
				c14.56,41.21,32.82,83.48,61.85,116.74c10.66,12.21,23.16,23.09,37.71,30.41C241.24,1112.5,247.17,1104.53,242.39,1102.13
				L242.39,1102.13z"/>
		</g>
	</g>
	<g>
		<g>
			<path d="M642.83,969.75c88.15-15.24,176.6-28.62,264.73-43.95c28.22-4.91,56.44-10.05,84.33-16.61
				c20.42-4.81,40.87-10.27,60.28-18.32c26.85-11.13,52.34-28.83,64.07-56.46c4.12-9.71,3.97-21.68,4.28-32.01
				c0.59-19.35-0.04-38.75-0.99-58.08c-2.72-55.51-8.38-110.91-15.41-166.03c-7.68-60.24-17.13-120.37-30.05-179.72
				c-5.62-25.85-11.92-51.58-19.67-76.88c-5.87-19.17-12.46-38.39-21.7-56.23c-5.77-11.12-13.01-23.51-24.28-29.86
				c-9.36-5.27-21.03-6.89-31.52-8.18c-38.49-4.72-78.13-2.29-116.67,0.4c-55.61,3.88-111.03,10.65-166.18,18.76
				c-62.12,9.14-123.98,20.18-185.42,33.1c-58.33,12.26-116.38,26.16-173.56,43.02c-45.33,13.37-90.92,28.18-133.36,49.22
				c-25.94,12.85-55.23,28.68-66.6,56.94c-7.61,18.93-9.91,39.91-10.74,60.14c-1.11,26.86,0.62,53.81,3.54,80.51
				c7.03,64.14,20.79,127.6,37.42,189.89c15.31,57.38,33.05,114.47,55.8,169.38c7.75,18.71,16.02,37.43,26.45,54.84
				c6.31,10.53,13.04,19.72,23.49,26.33c20.47,12.94,44.38,13.23,67.8,11.16c20.9-1.85,41.67-5.33,62.34-8.86
				c32.91-5.61,65.73-11.74,98.58-17.7c46.03-8.35,92.09-16.52,138.21-24.37c4.73-0.81,7.37-9.79,1.25-8.75
				c-79.33,13.51-158.37,28.73-237.7,42.23c-20.37,3.47-40.84,6.89-61.44,8.7c-12.78,1.13-25.09,1.72-37.87-0.51
				c-9.07-1.58-17.67-4.97-26.06-10.32c-9.04-5.76-15.76-15.39-21.52-25.26c-10.36-17.74-18.67-36.7-26.45-55.68
				c-10.43-25.45-19.68-51.39-28.26-77.53c-19.94-60.77-36.4-122.8-48.86-185.54c-11.06-55.75-20.45-113.58-17.95-170.61
				c0.86-19.63,2.96-40.11,10.66-58.39c4.71-11.19,12.24-18.92,21.5-25.98c29.94-22.84,67.04-36.79,102.14-49.43
				c51.03-18.37,103.46-32.82,156.12-45.68c59.99-14.66,120.54-27.09,181.35-37.84c58.63-10.36,117.56-19.19,176.73-25.85
				c47.19-5.31,94.75-9.65,142.27-9.85c16.52-0.07,33.13,0.31,49.55,2.32c10.56,1.3,20.62,2.56,29.66,7.69
				c9.78,5.55,17.08,18.43,22.4,29.04c9.04,18.01,15.55,37.28,21.37,56.53c16.01,53.04,26.39,107.85,35.38,162.45
				c9.75,59.23,17.34,118.84,22.86,178.61c4.07,44.1,8,88.81,6.64,133.14c-0.19,6.32-0.51,12.65-1.29,18.92
				c-0.29,2.37-0.69,4.71-1.17,7.05c-0.39,1.9,0.11,0.05-0.42,1.6c-0.25,0.74-0.5,1.46-0.81,2.18c-2.22,5.24-5.55,10.6-9.42,15.76
				c-2.01,2.69-3.07,3.95-5.73,6.76c-2.23,2.36-4.6,4.57-7.06,6.69c-10.25,8.82-24.57,16.13-38.13,21.49
				c-19.42,7.68-39.73,12.97-60.05,17.6c-66.2,15.09-133.72,24.57-200.7,35.45c-47.68,7.75-95.33,15.62-142.93,23.85
				C639.36,961.81,636.72,970.8,642.83,969.75L642.83,969.75z"/>
		</g>
	</g>
</g>
<g id="Ebene_9">
</g>
<g id="Ebene_10">
	<g class="st6">
		<path d="M254.03,1334.95c14.28,13.89,31.02,25.23,49.2,33.35c-21.45-4.64-45.51-16.33-51.24-38.09"/>
		<g>
			<path d="M250.5,1338.48c14.63,14.08,31.53,25.56,50.03,33.93c1.47-2.84,2.95-5.67,4.42-8.51c-20.17-4.49-42.75-14.88-48.84-36.4
				c-1.4-4.94-9.52,0.84-8.23,5.41c6.67,23.53,31.68,34.89,53.64,39.77c3.91,0.87,8.99-6.44,4.42-8.51
				c-17.94-8.12-34.18-19.12-48.37-32.77C253.97,1327.95,246.9,1335.02,250.5,1338.48L250.5,1338.48z"/>
		</g>
	</g>
	<g class="st6">
		<path d="M238.81,1266.36c14.7,20.11,39.5,41.94,59.81,56.37c-22.3,0.9-49.96-0.33-49.96-0.33s-12.51-42.27-10.09-59.17"/>
		<g>
			<path d="M235.27,1269.89c16.26,21.98,37.66,40.54,59.81,56.37c1.39-2.64,2.77-5.27,4.16-7.91c-16.27,0.62-32.61,0.37-48.87-0.34
				c0.8,0.56,1.6,1.12,2.4,1.69c-2.17-7.34-4.01-14.79-5.67-22.26c-2.46-11.06-5.6-23.43-4.16-34.83c0.78-6.18-8.14-3.55-8.75,1.25
				c-1.55,12.2,1.49,25.16,4.12,37.01c1.81,8.14,3.87,16.24,6.23,24.24c0.26,0.87,1.55,1.65,2.4,1.69
				c16.99,0.74,34.06,0.95,51.05,0.31c2.77-0.11,7.36-5.62,4.16-7.91c-22.16-15.83-43.55-34.39-59.81-56.37
				C239.45,1258.91,232.28,1265.86,235.27,1269.89L235.27,1269.89z"/>
		</g>
	</g>
	<g class="st6">
		<path d="M247.1,1194.48c11.58,23.86,27.84,40.1,51.15,59.83c-22.94,0.5-57.1-1.45-57.1-1.45s-5.4-25.73-1.79-35.06
			c3.61-9.33,6.73-15.32,6.24-25.31"/>
		<g>
			<path d="M242.98,1197.19c12.06,24.5,31.15,43.19,51.72,60.66c1.39-2.64,2.77-5.27,4.16-7.91c-18.66,0.37-37.39-0.41-56.02-1.46
				c0.89,0.89,1.78,1.78,2.68,2.68c-1.59-7.66-2.75-15.54-3-23.37c-0.19-6.07,1.28-10.31,3.46-15.95
				c2.67-6.93,4.19-13.59,3.99-21.05c-0.15-5.66-8.91-1.23-8.78,3.43c0.23,8.53-3.28,15.25-5.92,23.09
				c-1.52,4.5-1.67,9.19-1.52,13.9c0.25,7.83,1.4,15.71,3,23.37c0.28,1.35,1.16,2.59,2.68,2.68c19.36,1.1,38.8,1.82,58.19,1.43
				c2.99-0.06,7.09-5.43,4.16-7.91c-20.06-17.02-38.81-35.1-50.57-59C248.86,1186.99,240.87,1192.89,242.98,1197.19L242.98,1197.19z
				"/>
		</g>
	</g>
	<g class="st6">
		<path d="M270.72,1161.31c9.03,11.04,22.48,18.36,36.66,19.94c-18.77,0.36-37.54,0.72-56.31,1.08c2.02-10.83,7.98-18.7,18.37-22.35
			"/>
		<g>
			<path d="M267.18,1164.84c9.77,11.58,23.47,18.89,38.48,20.8c0.78-2.92,1.56-5.84,2.34-8.77c-18.77,0.36-37.54,0.72-56.31,1.08
				c1.25,1.25,2.5,2.5,3.75,3.75c1.74-8.49,6.31-14.57,14.5-17.65c4.84-1.82,5.11-10.45-1.01-8.15
				c-12.22,4.6-19.65,14.43-22.24,27.05c-0.51,2.5,1.58,3.79,3.75,3.75c18.77-0.36,37.54-0.72,56.31-1.08
				c4.03-0.08,7.7-8.09,2.34-8.77c-13.76-1.75-25.91-8.5-34.84-19.08C271.07,1154,263.94,1161,267.18,1164.84L267.18,1164.84z"/>
		</g>
	</g>
	<g class="st6">
		<path d="M323.71,1139.9c16.8,16.71,40.56,32.3,63.8,36.9c-24.32,0.46-48.64,0.93-72.96,1.39c2.82-11.99,3.82-27.64,6.64-39.62"/>
		<g>
			<path d="M320.17,1143.44c18.05,17.76,40.57,32.53,65.62,37.75c0.78-2.92,1.56-5.84,2.34-8.77c-24.32,0.46-48.64,0.93-72.96,1.39
				c1.25,1.25,2.5,2.5,3.75,3.75c2.96-13.08,3.68-26.55,6.64-39.62c0.53-2.35-1.6-3.99-3.75-3.75c-2.58,0.28-4.46,2.63-5,5
				c-2.96,13.08-3.68,26.55-6.64,39.62c-0.57,2.5,1.63,3.79,3.75,3.75c24.32-0.46,48.64-0.93,72.96-1.39
				c4.13-0.08,7.58-7.67,2.34-8.77c-23.67-4.93-44.97-19.3-61.98-36.04C323.68,1132.86,316.61,1139.93,320.17,1143.44
				L320.17,1143.44z"/>
		</g>
	</g>
	<g class="st6">
		<path d="M312.02,1190.25c12.92,25.87,42.62,49.33,69.95,58.79c-26.15,0.98-52.29,1.96-78.44,2.94
			c6.07-21.12,0.24-40.24,6.31-61.36"/>
		<g>
			<path d="M307.91,1192.95c14.23,27.86,42.13,49.85,71.36,60.2c1.11-2.83,2.22-5.66,3.33-8.49c-26.15,0.98-52.29,1.96-78.44,2.94
				c1.15,1.63,2.3,3.25,3.45,4.88c5.47-20.16,0.86-41.28,6.31-61.36c1.7-6.27-6.78-6.07-8.15-1.01
				c-5.47,20.16-0.86,41.28-6.31,61.36c-0.77,2.82,0.3,5,3.45,4.88c26.15-0.98,52.29-1.96,78.44-2.94c3.24-0.12,7.76-6.92,3.33-8.49
				c-27.98-9.91-54.89-30.66-68.54-57.38C313.71,1182.78,305.73,1188.69,307.91,1192.95L307.91,1192.95z"/>
		</g>
	</g>
	<g class="st6">
		<path d="M304.6,1263.17c22.21,23.88,49.53,42.99,79.58,55.65c-23.45-11.59-59.89,20.29-75.75-0.52
			c-7.03-9.22,1.12-31.45-1.44-49.53"/>
		<g>
			<path d="M301.06,1266.71c22.58,24.1,50.03,43.29,80.41,56.23c4.36,1.85,10.28-5.96,5.41-8.23c-19.25-8.96-39.53,4.65-58.8,6.31
				c-9.32,0.8-17.33-3.59-18.09-13.51c-1.03-13.5,3.09-26.85,1.39-40.44c-0.71-5.71-9.37-1.25-8.78,3.43
				c1.74,13.94-2.88,27.77-1.28,41.64c1.13,9.87,8.65,16.66,18.44,17.66c10.35,1.07,20.79-2.76,30.59-5.51
				c9.93-2.78,21.27-5.94,31.12-1.35c1.8-2.74,3.61-5.49,5.41-8.23c-29.84-12.7-56.58-31.4-78.75-55.07
				C304.73,1256.01,297.63,1263.04,301.06,1266.71L301.06,1266.71z"/>
		</g>
	</g>
	<g class="st6">
		<path d="M309.98,1333.73c23.07,20.3,51.43,34.55,81.49,40.93c-27.15,4.21-55.05,3.59-81.99-1.82c-1.33-12.62-2.66-25.25-4-37.87"
			/>
		<g>
			<path d="M306.45,1337.26c23.84,20.77,52.43,35.07,83.31,41.79c0.78-2.92,1.56-5.84,2.34-8.77c-26.93,4.06-54.17,3.42-80.9-1.84
				c0.89,0.89,1.78,1.78,2.68,2.68c-1.33-12.62-2.66-25.25-4-37.87c-0.6-5.71-9.28-1.26-8.78,3.43c1.33,12.62,2.66,25.25,4,37.87
				c0.16,1.51,1.27,2.4,2.68,2.68c27.39,5.38,55.48,5.97,83.08,1.81c3.86-0.58,7.83-7.57,2.34-8.77
				c-29.48-6.41-56.94-20.26-79.67-40.07C309.74,1326.9,302.71,1334,306.45,1337.26L306.45,1337.26z"/>
		</g>
	</g>
	<g class="st6">
		<path d="M391.1,1329.5c21.21,17.63,52.36,32.69,78.92,40.12c-25.31,1.41-50.63,2.81-75.94,4.22c0.6-16.18-5.37-29.8-4.77-45.98"/>
		<g>
			<path d="M387.56,1333.04c23.06,18.95,51.12,32.56,79.75,40.7c1.11-2.83,2.22-5.66,3.33-8.49c-25.31,1.41-50.63,2.81-75.94,4.22
				c1.25,1.25,2.5,2.5,3.75,3.75c0.34-15.56-5.11-30.47-4.77-45.98c0.14-6.23-8.64-3.63-8.75,1.25
				c-0.34,15.56,5.11,30.47,4.77,45.98c-0.05,2.44,1.2,3.89,3.75,3.75c25.31-1.41,50.63-2.81,75.94-4.22
				c3.11-0.17,7.89-7.19,3.33-8.49c-27.93-7.94-55.58-21.05-78.09-39.55C390.76,1322.78,383.75,1329.91,387.56,1333.04
				L387.56,1333.04z"/>
		</g>
	</g>
	<g class="st6">
		<path d="M385.57,1262.67c16.8,19.45,44.45,40.35,68.13,50.33c-21.41,1.56-42.82,3.11-64.23,4.67
			c-4.66-18.47-3.92-36.09-5.66-55.06"/>
		<g>
			<path d="M382.04,1266.21c18.6,21.31,42.92,39.74,68.96,50.91c1.11-2.83,2.22-5.66,3.33-8.49c-21.41,1.56-42.82,3.11-64.23,4.67
				c1.26,0.89,2.51,1.77,3.77,2.66c-4.39-18.07-4.04-36.65-5.66-55.06c-0.5-5.7-9.19-1.26-8.78,3.43
				c1.62,18.41,1.27,36.99,5.66,55.06c0.47,1.95,1.8,2.8,3.77,2.66c21.41-1.56,42.82-3.11,64.23-4.67c3.29-0.24,7.68-6.62,3.33-8.49
				c-25.52-10.94-49.07-28.87-67.3-49.75C385.85,1255.41,378.73,1262.42,382.04,1266.21L382.04,1266.21z"/>
		</g>
	</g>
	<g class="st6">
		<path d="M389.64,1184.87c11.35,25.47,38.11,48.74,62.73,61.83c-15.61-9.4-66.36,3.33-66.36,3.33S389.81,1222.25,389.64,1184.87"/>
		<g>
			<path d="M385.52,1187.57c12.6,27.58,37.86,49.09,64.14,63.24c4.19,2.26,10.08-5.57,5.41-8.23c-11.3-6.42-27.79-3.88-40-2.27
				c-9.55,1.26-19.09,3-28.44,5.34c1.25,1.25,2.5,2.5,3.75,3.75c2.98-21.88,3.71-44.19,3.65-66.24c-0.01-2.51-3.06-3.03-4.9-2.36
				c-2.44,0.89-3.89,3.29-3.89,5.79c0.06,21.32-0.74,42.91-3.62,64.06c-0.29,2.12,1.41,4.33,3.75,3.75
				c8.63-2.15,17.42-3.78,26.22-5.03c11.45-1.62,27.42-4.6,38.06,1.45c1.8-2.74,3.61-5.49,5.41-8.23
				c-25.07-13.5-49.29-34.1-61.32-60.42C391.54,1177.33,383.53,1183.21,385.52,1187.57L385.52,1187.57z"/>
		</g>
	</g>
	<g class="st6">
		<path d="M403.9,1118.76c13.33,18.47,34.82,38.48,55.66,47.67c-23.6,1.97-47.2,3.93-70.8,5.9c5.36-17.11,7.69-35.91,13.05-53.02"/>
		<g>
			<path d="M400.36,1122.3c14.5,19.86,33.9,38.04,56.49,48.25c1.11-2.83,2.22-5.66,3.33-8.49c-23.6,1.97-47.2,3.93-70.8,5.9
				c1.15,1.63,2.3,3.25,3.45,4.88c5.34-17.43,7.71-35.6,13.05-53.02c1.91-6.23-6.62-6-8.15-1.01c-5.34,17.43-7.71,35.6-13.05,53.02
				c-0.83,2.71,0.35,5.14,3.45,4.88c23.6-1.97,47.2-3.93,70.8-5.9c3.32-0.28,7.64-6.54,3.33-8.49
				c-22.01-9.95-40.71-27.74-54.83-47.09C404.57,1111.31,397.4,1118.24,400.36,1122.3L400.36,1122.3z"/>
		</g>
	</g>
	<g class="st6">
		<path d="M479.54,1100.36c6.25,23.69,25.49,44.45,44.22,58.64c-21.26,2.85-55.66,7.4-55.66,7.4s-1.1-24.17,1.75-32.4
			c2.85-8.23,9.49-23.71,8.11-32.31"/>
		<g>
			<path d="M475.15,1102.08c6.89,24.96,24.89,45.02,45.08,60.47c1.39-2.64,2.77-5.27,4.16-7.91c-18.55,2.49-37.11,4.95-55.66,7.4
				c1.26,0.89,2.51,1.77,3.77,2.66c-0.4-9.09-0.8-18.68,0.86-27.66c2.3-12.48,10.6-23.8,9-37.04c-0.69-5.71-9.35-1.25-8.78,3.43
				c1.55,12.78-7.62,24.45-9.25,36.82c-1.21,9.17-1.01,18.66-0.6,27.89c0.09,1.91,2.09,2.88,3.77,2.66
				c18.56-2.45,37.11-4.91,55.66-7.4c2.7-0.36,7.41-5.42,4.16-7.91c-18.87-14.44-36.88-33.36-43.36-56.82
				C482.39,1093.06,473.89,1097.53,475.15,1102.08L475.15,1102.08z"/>
		</g>
	</g>
	<g class="st6">
		<path d="M468.76,1173.75c8.21,25.94,27.02,48.35,51.14,60.94c-20.48,3.57-40.97,7.13-61.45,10.7c2.08-21.95,4.17-43.91,6.25-65.86
			"/>
		<g>
			<path d="M464.65,1176.45c8.69,26.73,27.76,49.17,52.55,62.35c1.11-2.83,2.22-5.66,3.33-8.49c-20.48,3.57-40.97,7.13-61.45,10.7
				c1.25,1.25,2.5,2.5,3.75,3.75c2.08-21.95,4.17-43.91,6.25-65.86c0.59-6.21-8.29-3.58-8.75,1.25
				c-2.08,21.95-4.17,43.91-6.25,65.86c-0.21,2.24,1.34,4.17,3.75,3.75c20.48-3.57,40.97-7.13,61.45-10.7
				c3.3-0.57,7.63-6.2,3.33-8.49c-23.67-12.58-41.45-34.06-49.73-59.53C471.27,1166.1,463.17,1171.91,464.65,1176.45L464.65,1176.45
				z"/>
		</g>
	</g>
	<g class="st6">
		<path d="M461.63,1251.88c3.35,22.67,40.56,42.31,63.36,50.52c-20.13,2.63-40.26,5.26-60.39,7.9c-5.04-18.55-6.45-38.08-4.14-57.16
			"/>
		<g>
			<path d="M457.24,1253.59c2.38,13.92,13.67,24.3,24.68,32.1c12.38,8.77,26.13,15.63,40.37,20.82c1.11-2.83,2.22-5.66,3.33-8.49
				c-20.13,2.63-40.26,5.26-60.39,7.9c1.26,0.89,2.51,1.77,3.77,2.66c-4.86-18.34-6.32-37.21-4.15-56.07
				c0.71-6.19-8.2-3.56-8.75,1.25c-2.25,19.55-0.92,39.22,4.12,58.25c0.49,1.85,1.79,2.92,3.77,2.66
				c20.13-2.63,40.26-5.26,60.39-7.9c3.02-0.39,7.95-6.81,3.33-8.49c-13.03-4.75-25.74-10.88-37.24-18.66
				c-10.19-6.88-22.23-16.6-24.43-29.47C465.05,1244.47,456.45,1248.93,457.24,1253.59L457.24,1253.59z"/>
		</g>
	</g>
	<g class="st6">
		<path d="M470.73,1320.97c20.18,13.12,40.36,26.25,60.54,39.37c-18.92,1.8-37.84,3.61-56.76,5.41c-2.66-13.9-5.31-27.81-7.97-41.71
			"/>
		<g>
			<path d="M468.03,1325.08c20.18,13.12,40.36,26.25,60.54,39.37c1.11-2.83,2.22-5.66,3.33-8.49c-18.92,1.8-37.84,3.61-56.76,5.41
				c1.26,0.89,2.51,1.77,3.77,2.66c-2.66-13.9-5.31-27.81-7.97-41.71c-1.09-5.69-9.67-1.22-8.78,3.43
				c2.66,13.9,5.31,27.81,7.97,41.71c0.37,1.93,1.88,2.84,3.77,2.66c18.92-1.8,37.84-3.61,56.76-5.41c3.76-0.36,7.12-6.03,3.33-8.49
				c-20.18-13.12-40.36-26.25-60.54-39.37C469.48,1314.28,463.51,1322.15,468.03,1325.08L468.03,1325.08z"/>
		</g>
	</g>
	<g class="st6">
		<path d="M534.11,1312.84c25.02,20.25,54.95,34.4,86.49,40.87c-14.13-0.98-28.02,3.21-42,5.49c-13.98,2.27-39.88,2.19-39.88,2.19
			s-1.5-38.38-7.71-49.89"/>
		<g>
			<path d="M530.57,1316.37c25.79,20.7,55.94,34.94,88.31,41.73c1.14-2.93,2.29-5.85,3.43-8.78c-17.69-0.95-34.5,5.03-51.96,6.55
				c-9.93,0.86-19.95,1.15-29.92,1.13c0.89,0.89,1.78,1.78,2.68,2.68c-0.28-7.08-0.84-14.15-1.58-21.19
				c-1.03-9.72-1.87-20.85-6.4-29.69c-2.44-4.76-10.41,1.15-8.23,5.41c4.39,8.56,5,19.43,5.96,28.83c0.68,6.67,1.2,13.37,1.47,20.07
				c0.05,1.3,1.34,2.67,2.68,2.68c9.83,0.02,19.7-0.23,29.5-0.95c17.56-1.3,34.69-7.67,52.38-6.72c4.47,0.24,9.32-7.55,3.43-8.78
				c-30.92-6.48-60.03-20.24-84.67-40.01C533.73,1306.16,526.73,1313.29,530.57,1316.37L530.57,1316.37z"/>
		</g>
	</g>
	<g class="st6">
		<path d="M529.9,1244.26c19.43,22.7,50.94,43.46,80.4,48.41c-27.61,3.69-55.23,7.38-82.84,11.08c-0.66-18.38,2.42-38.25,1.75-56.63
			"/>
		<g>
			<path d="M526.36,1247.79c20.89,24.12,50.49,43.65,82.22,49.26c0.78-2.92,1.56-5.84,2.34-8.77c-27.61,3.69-55.23,7.38-82.84,11.08
				c1.26,0.89,2.51,1.77,3.77,2.66c-0.56-18.9,2.31-37.72,1.75-56.63c-0.17-5.66-8.92-1.23-8.78,3.43
				c0.56,18.9-2.31,37.72-1.75,56.63c0.06,1.91,2.11,2.88,3.77,2.66c27.61-3.69,55.23-7.38,82.84-11.08
				c3.82-0.51,7.88-7.79,2.34-8.77c-30.41-5.38-58.61-24.49-78.58-47.55C530.2,1236.99,523.07,1243.99,526.36,1247.79
				L526.36,1247.79z"/>
		</g>
	</g>
	<g class="st6">
		<path d="M538.76,1169.69c18.32,24.44,42.41,44.53,69.74,58.18c-25.93,3.32-51.86,6.63-77.79,9.95
			c-3.08-23.38-1.94-47.3,3.34-70.28"/>
		<g>
			<path d="M535.23,1173.22c18.7,24.72,42.9,44.8,70.57,58.76c1.11-2.83,2.22-5.66,3.33-8.49c-25.93,3.32-51.86,6.63-77.79,9.95
				c1.26,0.89,2.51,1.77,3.77,2.66c-2.93-23.16-1.79-46.42,3.33-69.19c0.53-2.35-1.59-3.99-3.75-3.75c-2.58,0.28-4.47,2.63-5,5
				c-5.26,23.43-6.38,47.55-3.36,71.37c0.24,1.9,1.97,2.89,3.77,2.66c25.93-3.32,51.86-6.63,77.79-9.95
				c3.34-0.43,7.6-6.33,3.33-8.49c-27.11-13.68-50.59-33.39-68.91-57.6C539.36,1162.26,532.19,1169.22,535.23,1173.22
				L535.23,1173.22z"/>
		</g>
	</g>
	<g class="st6">
		<path d="M541.91,1085.86c14.11,24.65,29.51,69.76,60.09,66.43c-24.72,1.34-49.45,2.68-74.17,4.02c2.87-22.3,5.74-44.61,8.61-66.91
			"/>
		<g>
			<path d="M537.8,1088.57c8.57,15.1,15.16,31.27,25.14,45.55c9.12,13.04,21.54,24.07,38.43,22.55c4.81-0.43,7.5-9.09,1.25-8.75
				c-24.72,1.34-49.45,2.68-74.17,4.02c1.25,1.25,2.5,2.5,3.75,3.75c2.87-22.3,5.74-44.61,8.61-66.91c0.79-6.17-8.13-3.55-8.75,1.25
				c-2.87,22.3-5.74,44.61-8.61,66.91c-0.32,2.45,1.42,3.88,3.75,3.75c24.72-1.34,49.45-2.68,74.17-4.02
				c0.42-2.92,0.83-5.83,1.25-8.75c-15.35,1.38-26.5-11.4-34.1-23.12c-8.6-13.27-14.71-27.91-22.5-41.64
				C543.38,1078.5,535.44,1084.42,537.8,1088.57L537.8,1088.57z"/>
		</g>
	</g>
	<g class="st6">
		<path d="M613.57,1072.23c2.44,24.97,20.15,57.52,42.05,69.74c-26.32,2.62-48.12,4.05-48.12,4.05s7.25-52.32,4.52-73.51"/>
		<g>
			<path d="M609.18,1073.94c2.95,27.52,19.3,58.08,43.74,72.14c1.11-2.83,2.22-5.66,3.33-8.49c-16.02,1.58-32.06,2.99-48.12,4.05
				c1.25,1.25,2.5,2.5,3.75,3.75c1.35-9.77,2.43-19.58,3.34-29.4c1.37-14.84,2.99-30.33,1.2-45.2c-0.69-5.71-9.35-1.25-8.78,3.43
				c1.76,14.56,0.09,29.67-1.27,44.2c-0.89,9.42-1.93,18.84-3.23,28.22c-0.34,2.43,1.43,3.9,3.75,3.75
				c16.06-1.06,32.1-2.47,48.12-4.05c3.57-0.35,7.34-6.18,3.33-8.49c-22.6-13.01-37.65-42.01-40.37-67.34
				C617.34,1064.8,608.67,1069.26,609.18,1073.94L609.18,1073.94z"/>
		</g>
	</g>
	<g class="st6">
		<path d="M605.05,1157.32c9.48,24.8,32.6,49.06,56.03,61.55c-14.39-6.09-31.05,11.41-45.33,5.08c-11.18-4.96-9.39-20.2-9.07-32.43
			c0.36-13.76-3.71-22.1-3.4-34.35"/>
		<g>
			<path d="M600.94,1160.03c10.48,26.67,32.43,49.39,57.44,62.96c1.8-2.74,3.61-5.49,5.41-8.23c-8.58-3.25-17.04-0.54-25.28,2.44
				c-7.79,2.82-19.31,7.35-24.95-1.64c-4.68-7.47-2.52-18.37-2.47-26.67c0.06-11.29-3.52-22.15-3.41-33.43
				c0.03-2.51-3.09-3.02-4.9-2.36c-2.47,0.9-3.86,3.28-3.89,5.79c-0.13,12.09,3.72,23.69,3.33,35.83c-0.29,8.88-1.41,19.36,3.7,27.2
				c5.26,8.07,15.1,8.88,23.69,6.67c8.97-2.3,19.36-9.15,28.76-5.6c4.34,1.64,10.24-5.61,5.41-8.23
				c-23.86-12.95-44.63-34.74-54.62-60.14C607.24,1149.72,599.18,1155.57,600.94,1160.03L600.94,1160.03z"/>
		</g>
	</g>
	<g class="st6">
		<path d="M608.89,1233.49c16.32,15.73,37.4,39.47,58.7,47.21c-11.41,11.11-52.75,8.69-52.75,8.69s-6.73-38.44-9.62-54.94"/>
		<g>
			<path d="M605.36,1237.02c17.93,17.36,35.57,38.71,59.53,47.79c0.02-2.26,0.04-4.51,0.05-6.77c-6.71,6.17-19.97,6.34-28.46,6.85
				c-6.62,0.4-13.3,0.47-19.93,0.09c0.89,0.89,1.78,1.78,2.68,2.68c-3.21-18.31-6.41-36.62-9.62-54.94c-1-5.7-9.6-1.23-8.78,3.43
				c3.2,18.31,6.41,36.62,9.62,54.94c0.24,1.35,1.2,2.59,2.68,2.68c8.06,0.46,16.23,0.32,24.28-0.27
				c11.11-0.82,24.27-2.28,32.84-10.16c1.62-1.49,2.96-5.66,0.05-6.77c-23.33-8.84-40.41-29.74-57.87-46.64
				C608.84,1226.47,601.77,1233.55,605.36,1237.02L605.36,1237.02z"/>
		</g>
	</g>
	<g class="st6">
		<path d="M618.24,1297.01c40.79,26.7,91.68,34.45,140.3,30.88c48.62-3.57,95.78-17.64,142.48-31.62
			c-86.02,31.63-184.29,44.93-275.47,54.28c-6.31-17.22-6.64-38.13-12.95-55.35"/>
		<g>
			<path d="M615.54,1301.12c65.14,42.17,147.04,35.95,219.01,18.09c22.52-5.59,44.76-12.22,66.98-18.87
				c-0.34-2.72-0.67-5.43-1.01-8.15c-68.66,25.13-141.19,37.98-213.52,47.1c-20.24,2.55-40.52,4.79-60.82,6.88
				c1.16,0.56,2.33,1.11,3.49,1.67c-6.35-17.94-6.59-37.38-12.95-55.35c-1.74-4.93-9.82,0.9-8.23,5.41
				c6.35,17.94,6.59,37.38,12.95,55.35c0.5,1.41,2.19,1.8,3.49,1.67c73.13-7.52,146.4-16.99,217.55-36.03
				c19.94-5.34,39.66-11.46,59.05-18.55c4.85-1.78,5.28-10.03-1.01-8.15c-72.37,21.67-149.3,44.06-224.8,24.59
				c-19.39-5-37.95-13-54.77-23.88C616.98,1290.33,611.02,1298.19,615.54,1301.12L615.54,1301.12z"/>
		</g>
	</g>
	<g class="st6">
		<path d="M632.1,1401.71c40.84,25.8,85.27,45.92,131.61,59.59c-33.38,3.34-66.75,6.69-100.13,10.03
			c-8.11,0.81-42.62,10.22-38.69,9.18c12.03-3.17-2.84-28.99-2.91-41.43c-0.07-12.44-2.53-27.45,2.09-39"/>
		<g>
			<path d="M629.4,1405.82c40.94,25.76,85.24,45.82,131.61,59.59c1.11-2.83,2.22-5.66,3.33-8.49c-33.42,3.35-67.04,5.9-100.37,10.06
				c-13.32,1.66-27.06,5.63-39.89,9.53c-3.99,1.21-5.75,9.67-0.12,8.45c14.57-3.16,9.45-20.3,6.48-30.13
				c-2.19-7.27-3.89-13.84-4.16-21.44c-0.38-10.88-2.01-22.36,1.87-32.81c2.27-6.13-6.35-5.87-8.15-1.01
				c-3.05,8.24-3.33,16.92-3.03,25.61c0.26,7.51-0.06,15.43,1.69,22.78c1.51,6.3,3.82,12.39,5.34,18.69c0.6,2.48,1.3,5.22,1.19,7.8
				c-0.02,0.48-0.1,2.35-0.09,1.85c0.01-0.29,0.31-0.13,0.1-0.08c-0.04,2.82-0.08,5.63-0.12,8.45c12.46-3.79,25.88-7.66,38.85-9.06
				c33.02-3.56,66.1-6.62,99.15-9.93c3-0.3,7.98-7.11,3.33-8.49c-46.37-13.77-90.67-33.83-131.61-59.59
				C630.8,1395.07,624.84,1402.95,629.4,1405.82L629.4,1405.82z"/>
		</g>
	</g>
	<g class="st6">
		<path d="M762.15,1376.91c36.42,42.2,110.11,55.16,166.26,55.56c-43.45,7.34-99.07,19.95-142.52,27.29
			c-9.59,1.62-16.8-10.11-11.81-1.76c0.32,0.53-7.91-20.73-7.88-27.41c0.11-18.31-5.2-33.13-5.09-51.44"/>
		<g>
			<path d="M758.61,1380.44c31.27,35.75,82.47,48.87,127.86,54.02c13.36,1.51,26.79,2.28,40.23,2.4c0.78-2.92,1.56-5.84,2.34-8.77
				c-28.19,4.78-56.18,10.63-84.21,16.25c-13.95,2.8-27.91,5.56-41.9,8.14c-3.42,0.63-6.85,1.25-10.28,1.85
				c-2.79,0.49-5.82,1.46-8.66,1.07c-3.61-0.5-5.63-3.62-8.8-4.54c-2.9-0.84-5.62,0.89-6.78,3.61c-1.01,2.37,0.39,4.29,1.55,6.24
				c1.57,2.63,4.9,1.83,6.77-0.05c0,0,0,0,0.01-0.01c1.48-1.49,2.06-3.37,1.46-5.36c-2.5-8.29-6.67-16.41-7.53-25.14
				c-0.81-8.18-0.96-16.26-2.22-24.43c-1.45-9.41-2.91-18.75-2.95-28.29c-0.01-2.51-3.06-3.03-4.9-2.36
				c-2.44,0.89-3.9,3.29-3.89,5.79c0.04,9.54,1.5,18.88,2.95,28.29c1.29,8.39,1.26,16.81,2.31,25.17c1.15,9.14,5.36,17.65,8,26.38
				c0.49-1.79,0.98-3.57,1.46-5.36c0,0,0,0-0.01,0.01c2.26-0.02,4.51-0.04,6.77-0.05c-0.56-0.94-1.28-1.89-1.62-2.94
				c-0.01,1.07-0.03,2.14-0.04,3.21c0.01-0.03,0.02-0.06,0.04-0.09c-2.26,1.2-4.52,2.41-6.78,3.61c1.8,0.52,5.71,3.79,8.66,4.6
				c5.72,1.58,11.97-0.42,17.65-1.44c14.71-2.64,29.38-5.53,44.04-8.46c29.18-5.83,58.31-11.96,87.65-16.94
				c3.57-0.61,7.97-8.72,2.34-8.77c-30.09-0.27-60.53-3.59-89.54-11.83c-27.85-7.91-55.53-20.73-74.9-42.88
				C762.43,1369.65,755.31,1376.66,758.61,1380.44L758.61,1380.44z"/>
		</g>
	</g>
	<g class="st6">
		<path d="M676.89,1226.27c19.17,15.73,41.5,27.58,65.27,34.64c-22.54,5.94-63.5,13.74-63.5,13.74s-8.13-32.24-4.68-49.53"/>
		<g>
			<path d="M673.36,1229.8c19.59,15.92,41.93,27.91,66.1,35.22c1.11-2.83,2.22-5.66,3.33-8.49c-20.94,5.48-42.25,9.69-63.5,13.74
				c1.26,0.89,2.51,1.77,3.77,2.66c-3.82-15.23-7.56-32.81-4.69-48.44c1.12-6.09-7.88-3.47-8.75,1.25
				c-3.01,16.37,0.66,34.66,4.66,50.62c0.44,1.76,1.83,3.03,3.77,2.66c21.25-4.05,42.57-8.27,63.5-13.74
				c2.5-0.65,8.37-6.96,3.33-8.49c-23.5-7.1-45.38-18.58-64.44-34.06C676.54,1219.57,669.53,1226.69,673.36,1229.8L673.36,1229.8z"
				/>
		</g>
	</g>
	<g class="st6">
		<path d="M671.06,1146.92c2.4,31.8,23.75,52.8,59.96,57.47c-38.5,8.28-60.47,9.42-60.47,9.42s-0.24-53.87-3.04-64.17"/>
		<g>
			<path d="M666.67,1148.64c1.28,15.27,7.01,29.96,18.16,40.73c12.01,11.59,28.21,17.21,44.47,19.42c0.78-2.92,1.56-5.84,2.34-8.77
				c-19.82,4.23-40.18,8.34-60.47,9.42c1.26,0.89,2.51,1.77,3.77,2.66c-0.04-9.41-0.21-18.82-0.47-28.22
				c-0.32-11.65,0.34-24.57-2.57-35.95c-1.44-5.62-9.95-1.15-8.78,3.43c2.91,11.38,2.25,24.3,2.57,35.95
				c0.26,9.41,0.43,18.82,0.47,28.22c0.01,2.02,2.14,2.75,3.77,2.66c20.3-1.09,40.66-5.19,60.47-9.42c3.47-0.74,8.15-7.98,2.34-8.77
				c-14.92-2.03-29.8-7.06-40.83-17.71c-10.23-9.88-15.27-23.09-16.45-37.09C674.97,1139.51,666.27,1143.95,666.67,1148.64
				L666.67,1148.64z"/>
		</g>
	</g>
	<g class="st6">
		<path d="M676.19,1058.96c11.18,24.56,28.8,52.86,49.17,70.57c-18.76,0.68-37.79,8.16-56.55,8.84c1.43-23.51,1.73-56.05,3.16-79.56
			"/>
		<g>
			<path d="M672.07,1061.67c12.02,26.19,27.95,52.19,49.74,71.4c1.39-2.64,2.77-5.27,4.16-7.91c-19.16,0.92-37.39,7.93-56.55,8.84
				c1.25,1.25,2.5,2.5,3.75,3.75c1.58-26.5,1.58-53.06,3.16-79.56c0.37-6.22-8.46-3.61-8.75,1.25c-1.58,26.5-1.58,53.06-3.16,79.56
				c-0.15,2.46,1.28,3.87,3.75,3.75c19.16-0.92,37.39-7.93,56.55-8.84c3.01-0.14,7.07-5.35,4.16-7.91
				c-21.36-18.82-36.81-44.07-48.59-69.73C678.08,1051.43,670.07,1057.31,672.07,1061.67L672.07,1061.67z"/>
		</g>
	</g>
	<g class="st6">
		<path d="M722.13,1047.11c13.18,27.18,36.45,57.78,63.4,71.43c-19.76,2-39.51,4.01-59.27,6.01c-2.82-22.31-2.86-51.73-5.68-74.04"
			/>
		<g>
			<path d="M718.01,1049.81c14.18,28.95,35.65,57.74,64.81,72.84c1.11-2.83,2.22-5.66,3.33-8.49c-19.76,2-39.51,4.01-59.27,6.01
				c1.26,0.89,2.51,1.77,3.77,2.66c-3.02-24.59-2.66-49.45-5.68-74.04c-0.7-5.71-9.36-1.25-8.78,3.43
				c3.02,24.59,2.66,49.45,5.68,74.04c0.24,1.94,1.97,2.84,3.77,2.66c19.76-2,39.51-4.01,59.27-6.01c3.43-0.35,7.51-6.33,3.33-8.49
				c-27.93-14.46-48.43-42.33-61.99-70.02C723.9,1039.61,715.91,1045.51,718.01,1049.81L718.01,1049.81z"/>
		</g>
	</g>
	<g class="st6">
		<path d="M729.83,1137.89c18.86,23.42,42.66,43.65,71.36,52.61c-26.3,5.53-63.77,10.31-63.77,10.31s-2.19-39.55-7.09-55.08"/>
		<g>
			<path d="M726.3,1141.42c19.06,23.51,42.99,43.84,72.19,53.19c1.11-2.83,2.22-5.66,3.33-8.49c-21.07,4.39-42.43,7.58-63.77,10.31
				c1.26,0.89,2.51,1.77,3.77,2.66c-1.04-18.54-1.93-38.23-7.37-56.07c-1.51-4.94-9.62,0.86-8.23,5.41
				c3.22,10.55,4.1,22.03,5.16,32.96c0.68,7.03,1.26,14.08,1.65,21.13c0.11,1.92,2.07,2.88,3.77,2.66
				c21.34-2.73,42.7-5.93,63.77-10.31c2.71-0.56,8.21-6.93,3.33-8.49c-28.68-9.18-51.82-28.96-70.53-52.04
				C730.27,1130.54,723.13,1137.52,726.3,1141.42L726.3,1141.42z"/>
		</g>
	</g>
	<g class="st6">
		<path d="M740,1209.78c20.25,20.12,47.44,33.11,75.82,36.22c-22.65,9.17-47.21,13.58-71.64,12.86
			c-2.44-15.16-4.88-30.31-7.32-45.47"/>
		<g>
			<path d="M736.46,1213.32c21,20.6,48.42,33.68,77.64,37.07c0.4-2.82,0.81-5.64,1.21-8.47c-22.08,8.81-45.64,13.12-69.42,12.54
				c0.89,0.89,1.78,1.78,2.68,2.68c-2.44-15.16-4.88-30.31-7.32-45.47c-0.92-5.7-9.53-1.24-8.78,3.43
				c2.44,15.16,4.88,30.31,7.32,45.47c0.21,1.32,1.21,2.64,2.68,2.68c25.31,0.62,50.33-3.79,73.86-13.18
				c2.96-1.18,6.42-7.86,1.21-8.47c-27.91-3.24-53.94-15.69-74-35.36C739.97,1202.75,732.89,1209.82,736.46,1213.32L736.46,1213.32z
				"/>
		</g>
	</g>
	<g class="st6">
		<path d="M816.92,1200.17c20.61,15.25,45.52,24.61,71.07,26.71c-20.55,8.79-42.79,13.63-65.13,14.16
			c-6.47-16.12-9.92-33.44-10.13-50.8"/>
		<g>
			<path d="M813.38,1203.7c21.41,15.64,46.45,25.23,72.89,27.57c0.4-2.82,0.81-5.64,1.21-8.47c-20.36,8.58-41.92,13.22-64,13.86
				c1.16,0.56,2.33,1.11,3.49,1.67c-6.28-15.95-9.54-32.68-9.85-49.81c-0.1-5.65-8.87-1.23-8.78,3.43
				c0.33,17.8,3.89,35.23,10.41,51.79c0.58,1.47,2.13,1.71,3.49,1.67c22.8-0.67,45.24-5.6,66.26-14.46c2.82-1.19,6.52-8,1.21-8.47
				c-24.97-2.21-48.98-11.05-69.25-25.85C816.41,1193.68,809.45,1200.83,813.38,1203.7L813.38,1203.7z"/>
		</g>
	</g>
	<g class="st6">
		<path d="M799.64,1124.55c18.06,22.52,43.07,39.4,70.72,47.72c-19.47,4.82-38.93,9.64-58.4,14.46c-6.1-22.9-12.19-45.8-18.29-68.7"
			/>
		<g>
			<path d="M796.1,1128.09c18.48,22.77,43.52,39.68,71.55,48.3c1.11-2.83,2.22-5.66,3.33-8.49c-19.47,4.82-38.93,9.64-58.4,14.46
				c1.26,0.89,2.51,1.77,3.77,2.66c-6.1-22.9-12.19-45.8-18.29-68.7c-1.49-5.61-10-1.13-8.78,3.43c6.1,22.9,12.19,45.8,18.29,68.7
				c0.44,1.67,1.83,3.14,3.77,2.66c19.47-4.82,38.93-9.64,58.4-14.46c2.56-0.63,8.33-6.95,3.33-8.49
				c-27.51-8.46-51.75-24.79-69.88-47.14C800.08,1117.2,792.93,1124.18,796.1,1128.09L796.1,1128.09z"/>
		</g>
	</g>
	<g class="st6">
		<path d="M772.41,1037.38c7.33,27.79,34.85,58.56,77.22,63.64c-14.37,16.07-57.39,11.62-57.39,11.62s-15.14-54-21.84-74.87"/>
		<g>
			<path d="M768.01,1039.09c9.91,36.38,43.2,61.62,79.9,66.31c-0.31-2.35-0.62-4.7-0.94-7.04c-7.7,8.22-21.29,9.51-31.89,10.18
				c-7.01,0.44-14.14,0.41-21.13-0.3c0.8,0.56,1.6,1.12,2.4,1.69c-7.01-25.02-13.92-50.12-21.84-74.87
				c-1.58-4.94-9.68,0.87-8.23,5.41c7.92,24.75,14.83,49.85,21.84,74.87c0.26,0.91,1.55,1.6,2.4,1.69
				c8.42,0.85,17.06,0.79,25.49,0.11c12.68-1.02,27.18-3.78,36.26-13.47c1.87-1.99,2.93-6.55-0.94-7.04
				c-33.51-4.29-65.41-27.43-74.55-60.96C775.27,1030.07,766.77,1034.54,768.01,1039.09L768.01,1039.09z"/>
		</g>
	</g>
	<g class="st6">
		<path d="M831.87,1026.25c13.16,27.14,42.97,55.79,88.62,60.76c-21.84-2.05-59.6,9.48-59.6,9.48s-18.54-50.34-30.55-68.42"/>
		<g>
			<path d="M827.75,1028.96c17.34,35.24,52.36,57.97,91.02,62.45c1.14-2.93,2.29-5.85,3.43-8.78c-20.52-1.7-42.29,3.86-61.82,9.8
				c1.54,0.46,3.08,0.91,4.62,1.37c-3.4-9.22-7.02-18.35-10.77-27.43c-5.75-13.9-11.51-28.35-19.78-40.99
				c-2.94-4.5-10.82,1.45-8.23,5.41c8.27,12.64,14.03,27.09,19.78,40.99c3.75,9.08,7.37,18.22,10.77,27.43
				c0.71,1.91,3.07,1.84,4.62,1.37c18.04-5.49,38.44-10.73,57.38-9.17c4.6,0.38,9.21-8.11,3.43-8.78
				c-36.61-4.24-69.79-25.69-86.22-59.08C833.63,1018.76,825.64,1024.66,827.75,1028.96L827.75,1028.96z"/>
		</g>
	</g>
	<g class="st6">
		<path d="M864.47,1110.12c21.28,20.51,53.47,36.08,82.44,41.98c-22.77,9.53-66.26,17.46-66.26,17.46s-10.3-39.84-19.51-58.06"/>
		<g>
			<path d="M860.94,1113.65c22.98,21.87,53.35,36.37,84.26,42.84c0.4-2.82,0.81-5.64,1.21-8.47c-20.64,8.51-43.23,13.16-65.13,17.16
				c1.26,0.89,2.51,1.77,3.77,2.66c-5.15-19.88-10.62-40.61-19.79-59.05c-2.38-4.78-10.36,1.12-8.23,5.41
				c8.88,17.84,14.25,37.84,19.24,57.07c0.46,1.77,1.81,3.02,3.77,2.66c22.64-4.14,46.06-8.97,67.39-17.77
				c3.2-1.32,6.23-7.42,1.21-8.47c-29.52-6.17-58.68-20.25-80.62-41.12C864.38,1103.13,857.32,1110.21,860.94,1113.65
				L860.94,1113.65z"/>
		</g>
	</g>
	<g class="st6">
		<path d="M886.33,1181.7c23.7,16.37,52.48,25.28,81.28,25.16c-12.58,2.55-72.78,15.84-72.78,15.84s-3.64-21.67-10.52-35.71"/>
		<g>
			<path d="M883.63,1185.81c24.19,16.49,52.99,25.37,82.27,25.44c0.78-2.92,1.56-5.84,2.34-8.77
				c-24.33,4.95-48.54,10.49-72.78,15.84c1.26,0.89,2.51,1.77,3.77,2.66c-2.12-12.47-5.35-25.26-10.79-36.7
				c-2.29-4.81-10.29,1.08-8.23,5.41c5.17,10.87,8.22,22.89,10.24,34.72c0.3,1.75,1.94,3.06,3.77,2.66
				c24.24-5.35,48.45-10.9,72.78-15.84c2.25-0.46,4.31-2.15,4.85-4.43c0.41-1.74-0.22-4.33-2.51-4.33
				c-28.73-0.06-56.56-8.7-80.29-24.88C885.15,1174.94,879.18,1182.78,883.63,1185.81L883.63,1185.81z"/>
		</g>
	</g>
	<g class="st6">
		<path d="M900.58,1238.33c22.16,19.81,49.36,33.93,78.32,40.63c-22.92,3.9-45.92,14.26-68.84,18.16
			c-9.73-18.61-15.1-45.89-15.73-66.89"/>
		<g>
			<path d="M897.05,1241.86c22.92,20.29,50.37,34.44,80.14,41.49c0.78-2.92,1.56-5.84,2.34-8.77c-23.44,4.16-45.41,14-68.84,18.16
				c1.16,0.56,2.33,1.11,3.49,1.67c-10.28-20.08-14.67-43.49-15.45-65.9c-0.2-5.66-8.94-1.24-8.78,3.43
				c0.8,23.01,5.44,47.26,16.01,67.88c0.66,1.29,2.06,1.92,3.49,1.67c23.44-4.16,45.41-14,68.84-18.16
				c3.83-0.68,7.85-7.46,2.34-8.77c-28.36-6.71-54.69-20.46-76.5-39.78C900.36,1231.47,893.33,1238.57,897.05,1241.86
				L897.05,1241.86z"/>
		</g>
	</g>
	<g class="st6">
		<path d="M977.2,1215.14c16.11,20.52,46.09,37.77,71.45,43.9c-19.24,8.12-61.54,16.76-61.54,16.76s-13.14-47.45-12.14-66.29"/>
		<g>
			<path d="M973.67,1218.67c17.9,22.39,45.72,37.9,73.27,44.75c0.4-2.82,0.81-5.64,1.21-8.47c-19.16,7.95-40.14,12.31-60.41,16.46
				c1.26,0.89,2.51,1.77,3.77,2.66c-2.33-8.44-4.41-16.96-6.32-25.51c-2.85-12.75-6.4-26.53-5.84-39.69
				c0.26-6.23-8.54-3.62-8.75,1.25c-0.57,13.63,2.63,27.49,5.55,40.72c1.97,8.93,4.14,17.84,6.57,26.66
				c0.48,1.73,1.8,3.06,3.77,2.66c21-4.3,42.82-8.83,62.67-17.06c3.32-1.38,6.12-7.24,1.21-8.47
				c-26.26-6.53-52.63-21.78-69.63-43.04C977.68,1207.77,970.53,1214.75,973.67,1218.67L973.67,1218.67z"/>
		</g>
	</g>
	<g class="st6">
		<path d="M959.15,1162.15c25.07,7.67,50.13,15.33,75.2,23c-14.2,10.78-30.72,21.88-48.33,19.1c-20.73-3.27-34.36-29.02-25.4-47.99"
			/>
		<g>
			<path d="M956.44,1166.26c25.07,7.67,50.13,15.33,75.2,23c0.36-2.54,0.72-5.07,1.09-7.61c-14.65,11.07-35.18,25.59-53.88,15.01
				c-13.4-7.58-20.52-25.61-14.16-39.9c2.65-5.96-6.07-5.69-8.15-1.01c-7.72,17.34-0.19,38.74,15.84,48.51
				c21.56,13.14,46.33-2.57,63.59-15.62c1.74-1.31,4.92-6.44,1.09-7.61c-25.07-7.67-50.13-15.33-75.2-23
				C957.31,1156.65,951.48,1164.75,956.44,1166.26L956.44,1166.26z"/>
		</g>
	</g>
	<g class="st6">
		<path d="M933.22,1091.08c13.25,25.15,51,46.71,85.66,43.41c-22.04,5.61-44.08,11.23-66.12,16.84
			c-5.32-18.03-14.8-42.07-20.12-60.09"/>
		<g>
			<path d="M929.11,1093.79c16.53,30.49,55.37,47.95,89.15,45.08c0.42-2.92,0.83-5.83,1.25-8.75
				c-22.04,5.61-44.08,11.23-66.12,16.84c1.16,0.56,2.33,1.11,3.49,1.67c-6.04-20.25-14.08-39.84-20.12-60.09
				c-1.47-4.94-9.59,0.85-8.23,5.41c6.04,20.25,14.08,39.84,20.12,60.09c0.39,1.29,2.29,1.98,3.49,1.67
				c22.04-5.61,44.08-11.23,66.12-16.84c4.29-1.09,7.81-9.31,1.25-8.75c-30.83,2.62-67.11-13.95-82.17-41.74
				C934.78,1083.67,926.83,1089.58,929.11,1093.79L929.11,1093.79z"/>
		</g>
	</g>
	<g class="st6">
		<path d="M898.36,1013.94c15.07,30.59,53.55,55.52,95.73,55.42c-20.91,6.84-43.14,9.64-65.09,8.19
			c-8.85-19.67-24.91-43.37-33.77-63.04"/>
		<g>
			<path d="M894.25,1016.64c18,35.75,58.93,56.9,98.13,57.11c0.4-2.82,0.81-5.64,1.21-8.47c-20.31,6.52-41.59,9.16-62.87,7.87
				c0.8,0.56,1.6,1.12,2.4,1.69c-9.91-21.72-23.86-41.32-33.77-63.04c-2.21-4.84-10.22,1.05-8.23,5.41
				c9.91,21.72,23.86,41.32,33.77,63.04c0.4,0.88,1.42,1.63,2.4,1.69c22.85,1.38,45.52-1.51,67.31-8.51
				c2.99-0.96,6.35-8.44,1.21-8.47c-37.14-0.19-76.2-19.71-93.33-53.73C900.07,1006.46,892.09,1012.36,894.25,1016.64
				L894.25,1016.64z"/>
		</g>
	</g>
	<g class="st6">
		<path d="M967.15,1001.59c15.53,25.17,60.31,38.27,89.15,43.94c-19.7,0.92-55.42,16.3-55.42,16.3s-24.28-44.96-36.79-57.9"/>
		<g>
			<path d="M963.03,1004.3c9.27,14.57,24.83,23.73,40.35,30.42c16.36,7.05,33.75,11.75,51.2,15.22c0.78-2.92,1.56-5.84,2.34-8.77
				c-19.26,1.12-38.96,9.05-56.55,16.6c1.54,0.46,3.08,0.91,4.62,1.37c-4.49-8.3-9.18-16.49-14-24.6
				c-6.94-11.67-13.97-24.22-23.37-34.13c-3.42-3.61-10.52,3.43-7.07,7.07c9.22,9.71,16.02,22.02,22.81,33.47
				c4.61,7.78,9.11,15.64,13.41,23.6c0.9,1.67,2.93,2.09,4.62,1.37c16.93-7.27,35.75-14.92,54.29-16c4.05-0.24,7.67-7.71,2.34-8.77
				c-16.35-3.25-32.55-7.63-47.93-14.11c-14.54-6.12-30.11-14.45-38.82-28.15C968.38,994.36,960.49,1000.3,963.03,1004.3
				L963.03,1004.3z"/>
		</g>
	</g>
	<g class="st6">
		<path d="M1010.21,1070.79c18.83,22.48,44.91,33.58,73.4,40.51c-17.66,8.95-57.12,17.25-57.12,17.25s-13.94-37.47-22.5-54.93"/>
		<g>
			<path d="M1006.67,1074.33c19.38,22.76,46.79,34.36,75.22,41.37c0.4-2.82,0.81-5.64,1.21-8.47
				c-17.29,8.58-37.18,12.98-55.99,16.95c1.16,0.56,2.33,1.11,3.49,1.67c-6.89-18.5-13.87-37.17-22.5-54.93
				c-2.33-4.8-10.32,1.1-8.23,5.41c8.64,17.76,15.61,36.43,22.5,54.93c0.49,1.31,2.21,1.94,3.49,1.67
				c19.53-4.12,40.3-8.64,58.25-17.55c3.09-1.53,6.3-7.21,1.21-8.47c-27.14-6.69-53.11-17.96-71.58-39.66
				C1010.54,1063.5,1003.41,1070.5,1006.67,1074.33L1006.67,1074.33z"/>
		</g>
	</g>
	<g class="st6">
		<path d="M1032.67,1136.39c24.42,9.35,48.84,18.7,73.25,28.04c-13.35,11.91-32.04,19.63-49.24,14.75
			c-17.21-4.88-29.71-25.79-21.49-41.68"/>
		<g>
			<path d="M1029.97,1140.5c24.42,9.35,48.84,18.7,73.25,28.04c0.02-2.26,0.04-4.51,0.05-6.77c-12.6,10.99-31.81,19.18-48.18,11.7
				c-12.8-5.86-22.4-21.84-15.83-35.46c0.98-2.04-0.09-4.53-2.36-4.9c-2.58-0.42-4.78,1.8-5.79,3.89
				c-8.16,16.93,2.29,37.23,18.57,44.7c20.18,9.26,43.46-1.15,58.89-14.62c1.68-1.47,2.91-5.67,0.05-6.77
				c-24.42-9.35-48.84-18.7-73.25-28.04C1030.92,1130.57,1025.05,1138.62,1029.97,1140.5L1029.97,1140.5z"/>
		</g>
	</g>
	<g class="st6">
		<path d="M1048.63,1194.27c21.93,18.62,48.01,32.31,75.78,39.79c-21.95,6.79-43.91,13.58-65.86,20.37
			c-7.8-21.57-12.63-44.22-14.31-67.09"/>
		<g>
			<path d="M1045.09,1197.81c22.69,19.09,49.02,32.81,77.6,40.65c0.4-2.82,0.81-5.64,1.21-8.47c-21.95,6.79-43.91,13.58-65.86,20.37
				c1.54,0.46,3.08,0.91,4.62,1.37c-7.63-21.34-12.29-43.51-14.03-66.1c-0.44-5.7-9.14-1.25-8.78,3.43
				c1.8,23.27,6.73,46.11,14.59,68.08c0.68,1.91,3.08,1.85,4.62,1.37c21.95-6.79,43.91-13.58,65.86-20.37
				c3.69-1.14,5.8-7.21,1.21-8.47c-27.14-7.44-52.44-20.83-73.96-38.93C1048.33,1187.51,1041.31,1194.63,1045.09,1197.81
				L1045.09,1197.81z"/>
		</g>
	</g>
	<g class="st6">
		<path d="M1116.16,1178.65c19.58,16.56,43.03,28.52,67.94,34.63c-17.42,10.5-37.36,16.8-57.65,18.23
			c-4.73-21.68-9.46-43.37-14.2-65.05"/>
		<g>
			<path d="M1112.62,1182.19c20.34,17.03,44.04,29.03,69.76,35.49c0.03-2.63,0.06-5.26,0.1-7.89
				c-16.93,10.04-35.8,15.84-55.41,17.35c1.26,0.89,2.51,1.77,3.77,2.66c-4.73-21.68-9.46-43.37-14.2-65.05
				c-1.24-5.66-9.79-1.19-8.78,3.43c4.73,21.68,9.46,43.37,14.2,65.05c0.43,1.95,1.83,2.81,3.77,2.66
				c21.23-1.64,41.6-8.25,59.89-19.1c2.98-1.77,4.19-6.86,0.1-7.89c-24.28-6.09-46.93-17.71-66.12-33.78
				C1115.85,1171.9,1108.83,1179.01,1112.62,1182.19L1112.62,1182.19z"/>
		</g>
	</g>
	<g class="st6">
		<path d="M1093.65,1117.38c15.64,15.05,43.6,31.16,65.15,33.75c-11.97,10.74-46.36,13.5-46.36,13.5s-11.96-30.87-19.67-46.74"/>
		<g>
			<path d="M1090.12,1120.91c17.82,16.89,42.33,31.35,66.97,34.6c-0.31-2.35-0.62-4.7-0.94-7.04c-6.8,5.82-17.51,7.75-26.03,9.37
				c-5.63,1.07-11.34,1.93-17.06,2.4c1.16,0.56,2.33,1.11,3.49,1.67c-6.1-15.74-12.34-31.53-19.67-46.74
				c-2.32-4.8-10.31,1.09-8.23,5.41c7.34,15.21,13.57,31,19.67,46.74c0.55,1.43,2.15,1.78,3.49,1.67
				c16.46-1.35,36.72-4.16,49.64-15.22c2.18-1.87,2.7-6.56-0.94-7.04c-23.26-3.07-46.51-16.96-63.33-32.89
				C1093.56,1110.4,1086.5,1117.48,1090.12,1120.91L1090.12,1120.91z"/>
		</g>
	</g>
	<g class="st6">
		<path d="M1068.25,1053.07c17.79,22.95,46.3,31.32,70.19,40.84c-23.21,6.12-47.78,12.59-47.78,12.59s-17.77-35.77-25.22-53.38"/>
		<g>
			<path d="M1064.72,1056.6c17.83,22.48,45.35,31.25,71.02,41.42c1.11-2.83,2.22-5.66,3.33-8.49c-15.93,4.2-31.86,8.4-47.78,12.59
				c1.16,0.56,2.33,1.11,3.49,1.67c-8.74-17.61-17.52-35.28-25.22-53.38c-2.07-4.87-10.11,1-8.23,5.41
				c7.71,18.09,16.48,35.77,25.22,53.38c0.61,1.22,2.12,2.03,3.49,1.67c15.93-4.2,31.86-8.4,47.78-12.59
				c2.72-0.72,8.19-6.56,3.33-8.49c-25.08-9.94-51.94-18.29-69.36-40.26C1068.75,1045.69,1061.59,1052.66,1064.72,1056.6
				L1064.72,1056.6z"/>
		</g>
	</g>
	<g class="st6">
		<path d="M1039.59,992.47c13.86,21.09,42.38,35.56,75.29,39.43c-28.63,6.06-49.22,11.31-49.22,11.31s-14.79-33.48-28.43-51.01"/>
		<g>
			<path d="M1035.47,995.17c17.16,25.53,48.2,37.48,77.69,41.12c0.78-2.92,1.56-5.84,2.34-8.77c-16.46,3.49-32.91,7.16-49.22,11.31
				c1.16,0.56,2.33,1.11,3.49,1.67c-7.95-17.97-17.02-36.21-29.01-51.84c-2.97-3.87-10.13,3.08-7.07,7.07
				c11.55,15.06,20.19,32.86,27.85,50.17c0.55,1.25,2.16,2.01,3.49,1.67c16.31-4.16,32.75-7.82,49.22-11.31
				c3.45-0.73,8.16-8.05,2.34-8.77c-27.09-3.35-57-14.12-72.89-37.75C1040.7,985.31,1032.84,991.26,1035.47,995.17L1035.47,995.17z"
				/>
		</g>
	</g>
	<g class="st6">
		<path d="M1099.86,984.61c4.48,17.01,32.37,31.93,54.34,32.62c-18.04,1.41-35.01,9.23-35.01,9.23s-15.33-27.49-23.01-40.28"/>
		<g>
			<path d="M1095.74,987.32c3.06,10.5,12.35,18.12,21.41,23.48c10.61,6.27,22.98,10.28,35.32,10.83c0.78-2.92,1.56-5.84,2.34-8.77
				c-12.3,1.11-24.87,4.39-36.14,9.53c1.54,0.46,3.08,0.91,4.62,1.37c-7.53-13.5-15.07-27.01-23.01-40.28
				c-2.76-4.61-10.67,1.32-8.23,5.41c7.94,13.27,15.48,26.78,23.01,40.28c0.91,1.63,2.94,2.14,4.62,1.37
				c10.62-4.84,22.27-7.88,33.88-8.93c3.86-0.35,7.81-8.53,2.34-8.77c-11.3-0.5-22.29-4-32.11-9.56c-8.48-4.79-17-11.68-19.83-21.37
				C1102.53,976.97,1094.41,982.75,1095.74,987.32L1095.74,987.32z"/>
		</g>
	</g>
	<g class="st6">
		<path d="M1127.21,1035.97c17.91,14.83,37.58,32.06,59.28,40.4c-19.65,5.97-40.63,9.81-40.63,9.81s-15.66-36.55-24.74-49.8"/>
		<g>
			<path d="M1123.68,1039.51c18.61,15.43,37.34,31.99,60.11,40.97c0.73-2.73,1.47-5.46,2.2-8.19c-12.96,3.89-26.19,7.05-39.5,9.51
				c1.16,0.56,2.33,1.11,3.49,1.67c-7.22-16.84-14.47-34.57-24.74-49.8c-3-4.45-10.87,1.49-8.23,5.41
				c10.27,15.23,17.52,32.96,24.74,49.8c0.56,1.32,2.14,1.92,3.49,1.67c14.07-2.59,28.05-6,41.76-10.11
				c2.74-0.82,6.12-6.64,2.2-8.19c-22.2-8.76-40.31-24.78-58.45-39.82C1126.89,1029.24,1119.88,1036.36,1123.68,1039.51
				L1123.68,1039.51z"/>
		</g>
	</g>
	<g class="st6">
		<path d="M1148.88,1098.97c11.27,19.86,31.1,38.93,58.88,38.39c-11.89,8.14-39.46,8.5-39.46,8.5s-15.14-32.92-20.53-46.16"/>
		<g>
			<path d="M1144.77,1101.67c12.95,22.48,34.24,40.24,61.28,40.07c0.03-2.63,0.07-5.26,0.1-7.89c-10.25,6.67-25.27,7.44-37.22,7.62
				c1.16,0.56,2.33,1.11,3.49,1.67c-7.03-15.29-14.15-30.59-20.53-46.16c-2-4.89-10.05,0.97-8.23,5.41
				c6.38,15.58,13.5,30.87,20.53,46.16c0.68,1.47,2.05,1.69,3.49,1.67c13.75-0.21,29.94-1.73,41.71-9.38
				c2.2-1.43,4.75-7.92,0.1-7.89c-24.95,0.16-44.48-15.88-56.48-36.7C1150.32,1091.62,1142.39,1097.54,1144.77,1101.67
				L1144.77,1101.67z"/>
		</g>
	</g>
	<g class="st6">
		<path d="M1175.17,1157.23c11.47,11.57,22.9,24.84,38.3,30.15c-0.03,9.45-11.21,17.55-21.26,21.26
			c-10.9-13.98-13.68-33.96-21.56-50.21"/>
		<g>
			<path d="M1171.63,1160.77c11.66,11.82,23.11,24.9,39.13,30.73c-0.56-1.16-1.11-2.33-1.67-3.49
				c-0.49,8.73-10.17,13.76-17.39,16.56c1.35,0.18,2.69,0.36,4.04,0.54c-10.89-14.43-13.37-33.3-20.98-49.38
				c-2.28-4.81-10.28,1.08-8.23,5.41c7.97,16.84,10.72,35.91,22.14,51.04c0.88,1.17,2.88,0.99,4.04,0.54
				c11-4.26,24.4-12.88,25.13-25.95c0.07-1.32-0.21-2.96-1.67-3.49c-15.42-5.61-26.25-18.2-37.47-29.57
				C1175.2,1150.15,1168.12,1157.2,1171.63,1160.77L1171.63,1160.77z"/>
		</g>
	</g>
	<g class="st6">
		<path d="M208.87,1503.74c204.12,150.26,373.47,82.52,1134.43-128.27c-7.4,53.61-65.32,83.18-116.96,99.35
			c-80.05,25.07-162.9,39.8-245.49,54.47c-180.9,32.13-361.8,64.26-542.7,96.39c-51.27,9.11-98.08,17.68-145.38-4.1
			c-35-16.12-69.07-58.37-93.76-109.46"/>
		<g>
			<path d="M205.33,1507.27c19.08,14.03,38.93,27.05,59.83,38.22c19.54,10.45,39.96,19.23,61.08,25.94
				c21.63,6.87,43.89,11.64,66.42,14.42c24.83,3.07,49.89,3.79,74.88,3.05c28.95-0.85,57.83-3.74,86.51-7.72
				c34.24-4.76,68.25-11.09,102.07-18.17c40.59-8.5,80.95-18.12,121.17-28.2c47.94-12.02,95.7-24.74,143.4-37.69
				c56.64-15.38,113.17-31.12,169.7-46.91c66.46-18.56,132.89-37.18,199.37-55.67c18.02-5.01,36.04-10.02,54.06-15.01
				c-1.63-1.15-3.25-2.3-4.88-3.45c-4.61,31.26-27.57,53.68-53.68,69.2c-30.6,18.19-65.55,27.94-99.66,37.17
				c-84.77,22.95-171.79,36.71-258.16,52.05c-88.57,15.73-177.15,31.46-265.72,47.19c-44.29,7.87-88.57,15.73-132.86,23.6
				c-42.84,7.61-85.67,16.4-128.77,22.4c-38.07,5.3-78.64,5.27-112.91-14.56c-30.25-17.51-52.78-47.92-70.12-77.55
				c-4.99-8.54-9.61-17.28-13.93-26.18c-2.33-4.8-10.33,1.1-8.23,5.41c16.47,33.84,37.63,67.39,66.53,92.01
				c28.02,23.86,63.57,33.4,99.97,32.79c20.4-0.34,40.6-3.39,60.67-6.85c22.43-3.87,44.84-7.94,67.25-11.92
				c45.79-8.13,91.58-16.26,137.37-24.4c91.58-16.26,183.15-32.53,274.73-48.79c89.21-15.85,179.14-29.81,267-52.26
				c36.54-9.34,73.97-18.97,107.68-36.29c27.16-13.95,53.49-33.85,65.69-62.77c2.9-6.87,4.81-14.13,5.9-21.5
				c0.47-3.2-2.34-4.15-4.88-3.45c-68.47,18.97-136.9,38.1-205.33,57.24c-58.69,16.41-117.39,32.83-176.16,48.97
				c-49.55,13.61-99.16,27.04-148.92,39.86c-41.83,10.78-83.78,21.15-125.95,30.53c-35.03,7.79-70.23,14.92-105.66,20.63
				c-29.79,4.8-59.77,8.61-89.89,10.52c-25.4,1.61-50.91,1.82-76.3-0.18c-22.81-1.8-45.49-5.42-67.62-11.27
				c-21.01-5.55-41.45-13.24-61.04-22.62c-20.7-9.91-40.44-21.72-59.34-34.73c-4.79-3.29-9.51-6.68-14.19-10.12
				C208.37,1497.23,201.41,1504.39,205.33,1507.27L205.33,1507.27z"/>
		</g>
	</g>
	<g class="st6">
		<path d="M213.33,1121.18c-26.05,72.76-31.96,185.68-1.23,256.59c30.73,70.91,100.41,93.52,171.31,124.26
			c-44.78,1.5-94.95,0.57-139.73,2.06c-15.06,0.5-34.66,4.72-44.88-6.35c-6.23-6.74-8.39-23.05-9.89-32.11
			c-17.17-103.98-16.07-222.6,16.38-332.46"/>
		<g>
			<path d="M209.26,1120.67c-10.58,29.77-16.75,61.1-19.93,92.48c-3.36,33.12-3.45,66.83,0.99,99.85
				c4.05,30.2,11.84,61.05,27.95,87.22c15.86,25.75,38.91,45.36,64.73,60.65c30.93,18.32,64.81,31.02,97.71,45.26
				c1.11-2.83,2.22-5.66,3.33-8.49c-37.85,1.24-75.73,0.83-113.58,1.44c-9.16,0.15-18.33,0.26-27.49,0.68
				c-7.27,0.33-14.54,1.35-21.83,1.1c-6.84-0.23-14.52-1.46-19.15-7.05c-4.24-5.13-5.62-12.7-6.85-19.04
				c-6.52-33.65-9.97-68.18-11.75-102.38c-1.95-37.54-1.32-75.21,2.19-112.64c4-42.64,11.71-84.96,23.78-126.07
				c1.84-6.25-6.67-6.03-8.15-1.01c-22.11,75.26-30.14,154.12-27.1,232.39c1.41,36.41,5.33,72.68,11.42,108.59
				c2.18,12.84,4.88,28.23,18.54,33.5c13.96,5.38,30.68,1.54,45.19,1.13c44.49-1.26,89.02-0.42,133.51-1.87
				c3.38-0.11,7.59-6.65,3.33-8.49c-54.08-23.41-115.89-43.6-152.6-92.75c-18.19-24.35-27.52-54.09-32.61-83.74
				c-5.49-31.97-6.32-64.73-3.92-97.04c2.58-34.82,8.72-69.74,20.43-102.7C219.59,1115.52,211,1115.78,209.26,1120.67
				L209.26,1120.67z"/>
		</g>
	</g>
	<g class="st6">
		<path d="M110.57,369.62c-2.34,65.05-24.75,231.51-7.98,327.39s57.88,254.4,123.83,326s159.78,45.78,256.71,36.93
			c-73.67,12.43-181.33,34.52-251.28,37.54c-10.33,0.45-55.47-70.8-64.56-75.72c-7.33-3.97-74.48-269.5-75.39-277.78
			c-19.23-174.66-12.37-292.65,2.08-352.74"/>
		<g>
			<path d="M106.2,370.24c-0.88,23.85-3.15,47.66-5.12,71.43c-2.63,31.8-5.17,63.6-6.9,95.46c-1.78,32.92-2.83,65.95-1.76,98.91
				c0.93,28.67,4.38,56.68,9.88,84.82c12.31,63.06,28.86,125.82,52.33,185.69c11.45,29.21,24.67,57.99,41.52,84.52
				c16.2,25.51,35.96,49.01,62.54,64.15c59.22,33.71,132.61,19.28,196.61,11.94c9.06-1.04,18.13-2.01,27.21-2.85
				c0.42-2.92,0.83-5.83,1.25-8.75c-48.62,8.22-97.04,17.63-145.75,25.34c-24.19,3.83-48.46,7.32-72.84,9.76
				c-5.16,0.52-10.33,0.98-15.5,1.38c-5.11,0.4-11.05,1.59-16.14,1.02c-0.75-0.08-1.54-0.49-2.74-1.4c-2.02-1.53-3.8-3.43-5.52-5.27
				c-10.57-11.29-19.56-24.12-28.74-36.52c-4.51-6.09-9-12.2-13.63-18.19c-3.17-4.1-6.35-8.59-10.25-12.06
				c-0.44-0.39-0.9-0.75-1.36-1.11c-1.47-1.17-0.95-0.78-0.69-0.47c-0.56-0.66,0.3,0.94,0.09,0.15c-0.08-0.31-0.36-0.63-0.49-0.93
				c-0.94-2.21-1.84-4.41-2.65-6.68c-2.83-8-5.24-16.15-7.65-24.28c-16.71-56.57-31.22-113.83-45.74-170.99
				c-5.36-21.1-10.74-42.21-15.75-63.4c-1.71-7.24-2.61-13.98-3.4-21.46c-2.99-28.5-5.45-57.05-7.25-85.65
				c-2.94-46.68-4.26-93.53-2.54-140.28c1.19-32.4,3.63-64.96,9.54-96.88c1.06-5.7,2.24-11.38,3.59-17.02
				c0.56-2.34-1.62-3.98-3.75-3.75c-2.6,0.28-4.43,2.63-5,5c-6.83,28.57-9.89,58.04-11.79,87.31c-2.84,43.73-2.62,87.65-0.8,131.42
				c1.15,27.8,3,55.58,5.4,83.3c1.29,14.98,2.75,29.94,4.35,44.89c0.36,3.34,0.63,6.62,1.34,9.89c3.87,17.77,8.53,35.4,12.97,53.03
				c14.79,58.71,29.84,117.4,46.44,175.63c2.89,10.13,5.82,20.25,9.02,30.28c1.66,5.19,3.07,11.09,5.85,15.84
				c1.53,2.61,2.46,2.43,4.5,4.52c3.87,3.97,7.21,8.49,10.57,12.88c10.07,13.18,19.64,26.75,29.93,39.77
				c4.18,5.29,8.44,10.64,13.28,15.35c2.6,2.54,5.69,5.52,9.48,5.89c4.99,0.49,10.57-0.5,15.56-0.87c5.6-0.41,11.2-0.9,16.78-1.45
				c12.04-1.18,24.05-2.64,36.04-4.26c50.71-6.84,101.02-16.32,151.39-25.3c10.86-1.93,21.72-3.84,32.6-5.68
				c4.63-0.78,7.58-9.33,1.25-8.75c-35.08,3.24-69.94,8.79-105.11,11c-32.01,2.01-65.26,1.11-95.54-10.57
				c-58.14-22.43-89.75-82.45-112.81-136.66c-25.16-59.13-42.47-121.68-55.67-184.48c-5.69-27.07-10.62-54.15-12.42-81.8
				c-2.09-32.07-1.6-64.29-0.26-96.38c2.43-58.01,8.8-115.71,12.32-173.65c0.28-4.68,0.53-9.35,0.7-14.04
				C115.18,362.77,106.38,365.37,106.2,370.24L106.2,370.24z"/>
		</g>
	</g>
	<g class="st6">
		<path d="M150.47,410.91c32.4,180.61,179.86,350.12,353.72,408.79c130.5,44.03,272.21,34.18,409.54,23.82
			c178.15-13.44,195.52-18.58,196.05-4.78c0.15,3.9-73.64,56.04-100.04,61.77C861.64,932.66,771,949.86,606.3,966.56
			c-81.37,8.25-150.48,37.49-231.85,45.74c-29.55,3-70.44,9.19-94.14-8.71c-22.83-17.25-49.77-45.52-114.75-292.06
			c-41.05-155.73-38.58-228.12-28.41-265.82"/>
		<g>
			<path d="M146.08,412.62c8.87,49,25.74,96.36,48.69,140.51c23.35,44.91,52.91,86.65,87.12,123.93
				c34.32,37.39,73.5,70.38,116.49,97.38c44.3,27.82,92.37,48.19,143.03,61.15c60.24,15.42,122.58,20.76,184.62,21.13
				c62.47,0.38,124.83-4.14,187.08-8.83c46.63-3.52,93.22-7.6,139.85-11.03c11.19-0.82,22.41-1.7,33.63-1.87
				c2.53-0.04,6.26-0.02,9.27,0.2c1.25,0.09,2.5,0.21,3.74,0.41c0.73,0.12,3.07,0.74,2.02,0.39c0.72,0.24,1.4,0.52,2.09,0.83
				c1.2,0.55-0.28-0.48,0.76,0.57c0.46,0.46,0.65,1.1,0.74,1.33c0.59,1.62-0.1,2.13,0.68-0.71c0.06-0.22,0.91-0.97,0.01-0.2
				c-0.67,0.57-1.28,1.23-1.94,1.81c-4.29,3.81-9.45,7.51-14.37,11.07c-14.99,10.82-30.51,21-46.53,30.24
				c-7.38,4.26-14.89,8.36-22.73,11.71c-8.76,3.74-18.05,5.25-27.32,7.25c-51.88,11.18-103.86,22-156.12,31.26
				c-51.68,9.15-103.62,16.66-155.73,22.88c-30.88,3.69-61.99,6.07-92.79,10.41c-30.23,4.26-59.94,11.32-89.54,18.67
				c-29.44,7.31-58.86,14.83-88.77,19.98c-14.32,2.47-28.71,4.15-43.16,5.69c-12.77,1.36-25.61,2.75-38.47,2.62
				c-17.06-0.17-34.12-2.87-47.73-13.81c-3.41-2.74-6.62-5.71-9.58-8.94c-9.49-10.36-16.15-22.43-22.48-35.39
				c-12.33-25.22-21.79-51.86-30.68-78.45c-16.01-47.86-29.68-96.5-42.74-145.23c-14.31-53.39-27.53-107.24-34.93-162.08
				c-4.19-31.07-6.92-62.9-3.76-94.2c0.91-8.98,2.53-19.01,4.7-27.11c1.68-6.28-6.79-6.07-8.15-1.01
				c-6.11,22.82-7.18,46.64-6.45,70.15c1.33,43.1,8.76,85.99,17.77,128.08c12.51,58.44,28.65,116.23,45.56,173.53
				c10.91,36.97,22.39,73.92,36.56,109.79c7.43,18.8,15.49,37.78,26.65,54.73c5.8,8.8,12.48,16.81,20.73,23.4
				c14.04,11.21,31.14,14.85,48.83,15.27c12.68,0.3,25.34-0.78,37.93-2.09c14.28-1.49,28.53-3.01,42.71-5.31
				c61.01-9.89,119.81-30.19,181-39.16c31.11-4.56,62.59-6.89,93.82-10.6c27.51-3.27,54.98-6.87,82.39-10.91
				c50.76-7.48,101.24-16.58,151.53-26.73c27.74-5.6,55.42-11.47,83.09-17.44c9.07-1.96,18-3.6,26.55-7.29
				c7.94-3.43,15.59-7.57,23.1-11.85c16.4-9.37,32.28-19.76,47.6-30.8c5.41-3.9,10.79-7.87,15.86-12.2c2.8-2.4,6.01-5.03,5.87-9.05
				c-0.34-9.14-10.51-10.19-17.63-10.46c-25.28-0.94-51.02,2.47-76.16,4.5c-56.65,4.57-113.29,9.3-170.01,12.95
				c-63.62,4.11-127.57,6.4-191.21,1.41c-60.31-4.73-120.7-16-176.97-38.7c-47.22-19.04-91.22-45.73-130.77-77.72
				c-40.37-32.65-76.3-70.82-106.59-112.98c-29.9-41.61-54.28-87.41-71.24-135.78c-8.08-23.06-14.37-46.7-18.73-70.75
				C153.83,403.5,145.23,407.97,146.08,412.62L146.08,412.62z"/>
		</g>
	</g>
</g>
<g id="Ebene_12">
	<g>
		<g id="Ebene_3_1_">
			<g class="st7">
				<g>
					<path d="M715.14,900.31c3.56,0,7.05-8.93,3.15-8.93C714.72,891.37,711.23,900.31,715.14,900.31L715.14,900.31z"/>
				</g>
			</g>
			<g class="st7">
				<path d="M708.95,893.77c4.12,69.81,8.25,139.61,12.37,209.42c61.48-50.49,122.97-100.98,184.46-151.47
					c34.28-28.15,66.65-72.37,111.09-69.89c46.06,2.58,99.54,2.09,143.54,4.55c106.05,5.93,188.88,0.03,294.09-15.32
					c32.2-4.7,81.62-36.05,105.65-59.41c29.26-28.46,32.46-59.55,35.24-101.72c10.77-163.47-16.05-327.56-57.95-485.2
					c-10.39-39.09-24.25-81.46-57.14-101.91c-29.12-18.1-65.39-14.02-98.71-8.72c-264.37,42.05-522.91,125.75-764.66,247.53
					c-26.67,13.44-54.96,29.2-68.06,57.42c-10.35,22.28-12.15,48.86-7.45,73.22c19.96,103.55,30.69,171.98,45.76,280.66
					c4.25,30.68,15.04,78.78,39.98,94.67c24.4,15.55,51.97,15.36,78.94,12.11c2.25,4.69,4.5,9.39,6.75,14.08"/>
				<g>
					<path d="M705.66,895.72c4.12,69.81,8.25,139.61,12.37,209.42c0.17,2.9,2.38,2.93,4.19,1.45
						c47.09-38.66,94.17-77.33,141.25-115.99c20.86-17.13,42.23-33.7,62.01-52.25c16.3-15.29,32.39-31.73,51.82-42.47
						c9.66-5.34,20.26-9.04,31.18-9.6c12.63-0.65,25.56,0.94,38.21,1.33c26.64,0.83,53.29,1.11,79.93,1.91
						c26.87,0.8,53.69,2.63,80.57,3.24c26.83,0.61,53.68,0.4,80.49-0.7c53.51-2.21,106.81-8.11,159.86-15.73
						c20.9-3,40.02-11.05,58.62-21.51c18.59-10.46,36.75-22.82,52.6-37.62c15.55-14.52,26.91-32.6,32.62-53.85
						c6.1-22.73,6.97-47.02,8.19-70.5c3.17-61.16,1.16-122.56-4.82-183.46c-5.89-59.98-15.59-119.48-28-178.3
						c-6.25-29.63-13.2-59.1-20.71-88.39c-6.26-24.43-12.36-49.16-22.47-72.16c-8.92-20.28-21.48-39.27-39.68-51.09
						c-21.05-13.68-46.4-15.55-70.42-13.66c-26.3,2.07-52.48,7.29-78.46,11.92c-27.33,4.88-54.59,10.19-81.76,15.95
						c-108.06,22.91-214.83,52.79-319.53,89.4c-104.37,36.49-206.7,79.66-306.23,129.24c-20.58,10.25-41.87,20.38-59.26,36.34
						c-17.54,16.11-28.16,37.91-31.4,62.34c-3.72,28.03,3.59,55.24,8.67,82.52c4.77,25.66,9.35,51.36,13.67,77.11
						c8.84,52.74,16.55,105.69,23.92,158.69c5.43,39.05,13.71,90.49,51.7,107.96c22.31,10.26,46.85,9.65,70.53,6.86
						c-0.69-0.23-1.37-0.47-2.06-0.7c2.25,4.69,4.5,9.39,6.75,14.08c1.73,3.61,7.3-3.97,5.67-7.38c-2.25-4.69-4.5-9.39-6.75-14.08
						c-0.39-0.81-1.38-0.78-2.06-0.7c-25.35,2.99-52.04,3.08-74.98-10.46c-17.08-10.07-25.84-30.32-31.74-49.29
						c-6.57-21.13-9.43-43.02-12.51-64.96c-3.74-26.65-7.56-53.28-11.61-79.88c-7.62-50.14-16.13-100.11-25.47-149.92
						c-5.18-27.67-11.95-54.79-5.26-82.91c5.95-25.02,21.68-42.48,41.88-55.62c20.64-13.42,43.33-23.53,65.3-34.18
						c24.34-11.81,48.84-23.23,73.48-34.27c50.23-22.49,101.09-43.35,152.49-62.58c100.9-37.76,203.87-69.22,308.2-94.17
						c52.8-12.62,105.95-23.57,159.37-32.83c25.37-4.39,51.13-9.77,76.9-10.19c23.8-0.38,47.6,4.73,66.27,21.35
						c16.54,14.72,26.94,35.98,34.48,57.13c8.77,24.61,14.78,50.41,21.05,75.83c14.23,57.69,26.2,116.05,34.86,175
						c8.64,58.79,13.92,118.19,14.78,177.72c0.43,29.91-0.26,59.83-2.19,89.67c-1.44,22.19-2.74,45.33-11.22,65.97
						c-8.16,19.88-23.36,34.29-39.54,46.73c-17.72,13.62-37.07,25.54-57.33,34.29c-21.47,9.28-44.25,11.2-67.06,14.15
						c-26.59,3.44-53.23,6.34-79.94,8.42c-52.13,4.06-104.41,4.77-156.62,2.47c-51.58-2.27-103.23-2.59-154.79-5.1
						c-10.75-0.52-20.98-0.57-31.42,2.68c-9.26,2.88-18,7.49-26.14,12.98c-18.11,12.2-33.56,28.2-49.71,43.06
						c-20.27,18.64-42.18,35.39-63.38,52.8c-22.71,18.65-45.42,37.3-68.13,55.95c-22.16,18.2-44.31,36.39-66.47,54.59
						c1.4,0.48,2.8,0.96,4.19,1.45c-4.12-69.81-8.25-139.61-12.37-209.42C711.91,886.05,705.44,891.97,705.66,895.72L705.66,895.72z
						"/>
				</g>
			</g>
			<g class="st7">
				<g>
					<path d="M1537.4,1063.93c3.56,0,7.05-8.93,3.15-8.93C1536.99,1055,1533.49,1063.93,1537.4,1063.93L1537.4,1063.93z"/>
				</g>
			</g>
		</g>
		<g id="Ebene_3_Kopie">
			<g>
				<g>
					<path class="st2" d="M736.48,870.37c3.56,0,7.05-8.93,3.15-8.93C736.06,861.43,732.57,870.37,736.48,870.37L736.48,870.37z"/>
				</g>
			</g>
			<g>
				<path class="st8" d="M730.3,863.83c4.12,69.81,8.25,139.61,12.37,209.42c61.48-50.49,122.97-100.98,184.46-151.47
					c34.28-28.15,66.65-72.37,111.09-69.89c46.06,2.58,99.54,2.09,143.54,4.55c106.05,5.93,188.88,0.03,294.09-15.32
					c32.2-4.7,81.62-36.05,105.65-59.41c29.26-28.46,32.46-59.55,35.24-101.72c10.77-163.47-16.05-327.56-57.95-485.2
					c-10.39-39.09-24.25-81.46-57.14-101.91c-29.12-18.1-65.39-14.02-98.71-8.72c-264.37,42.05-522.91,125.75-764.66,247.53
					c-26.67,13.44-54.96,29.2-68.06,57.41c-10.35,22.28-12.15,48.86-7.45,73.22c19.96,103.55,30.69,171.98,45.76,280.66
					c4.25,30.68,19.39,72.8,39.98,94.67c20.59,21.87,55.93,31.03,78.94,12.11c2.25,4.69,4.5,9.39,6.75,14.08"/>
				<g>
					<path class="st2" d="M727,865.78c4.12,69.81,8.25,139.61,12.37,209.42c0.17,2.9,2.38,2.93,4.19,1.45
						c47.09-38.66,94.17-77.33,141.25-115.99c21.28-17.47,43.03-34.41,63.18-53.36c16.26-15.29,32.42-31.64,51.97-42.08
						c9.52-5.08,19.93-8.48,30.62-8.92c12.4-0.51,25.05,0.99,37.46,1.37c27.26,0.85,54.53,1.13,81.78,1.96
						c26.9,0.83,53.77,2.66,80.68,3.24c27.11,0.58,54.23,0.32,81.32-0.87c53.61-2.34,107.01-8.36,160.16-16.05
						c20.71-3,40.14-12.14,58.39-22.69c18.06-10.44,35.8-22.63,51.13-37.3c15.61-14.93,26.48-33.53,31.92-55.15
						c5.86-23.31,6.57-48.25,7.72-72.22c2.93-61.17,0.71-122.57-5.46-183.44c-6.15-60.68-16.15-120.87-28.92-180.35
						c-6.35-29.61-13.39-59.04-20.97-88.31c-6.13-23.67-12.29-47.54-22.55-69.64c-9.5-20.47-23.16-39.24-42.4-50.02
						c-21.58-12.08-46.65-12.87-70.4-10.6c-27.08,2.58-54.03,7.9-80.82,12.75c-27,4.89-53.92,10.21-80.77,15.97
						c-108.66,23.29-216,53.63-321.22,90.78c-104.58,36.92-207.1,80.55-306.77,130.62c-20.22,10.16-41,20.92-56.99,38.01
						c-16.42,17.54-24.88,40.89-26.56,65.44c-0.94,13.79,0.69,27.2,3.27,40.68c2.73,14.22,5.41,28.46,8.03,42.71
						c4.68,25.4,9.14,50.84,13.36,76.34c4.21,25.47,8.17,51,11.97,76.55c4.16,28.04,7.43,56.29,12.07,84.24
						c3.79,22.83,11.42,45.42,22.11,65.59c10.55,19.91,25.19,36.77,45.87,44.38c18.43,6.78,38.41,5.57,54.34-7.08
						c-1.24,0.1-2.49,0.2-3.73,0.29c2.25,4.69,4.5,9.39,6.75,14.08c1.73,3.61,7.3-3.97,5.67-7.38c-2.25-4.69-4.5-9.39-6.75-14.08
						c-0.78-1.62-2.87-0.4-3.73,0.29c-17.43,13.85-41.58,10.51-59.62-0.11c-19.13-11.26-31.28-31.58-40.04-52.35
						c-9.37-22.21-13.94-45.04-17.29-68.99c-3.75-26.84-7.59-53.67-11.65-80.46c-7.62-50.38-16.12-100.59-25.47-150.64
						c-5.09-27.26-12.19-54.25-6.63-82.12c5.09-25.46,19.76-43.84,39.98-57.55c20.47-13.89,43.33-23.98,65.34-34.69
						c24.62-11.98,49.41-23.57,74.35-34.76c49.61-22.26,99.84-42.92,150.6-62.01c101.46-38.15,205.03-69.92,309.98-95.09
						c52.79-12.66,105.94-23.66,159.34-32.95c25.42-4.42,51.22-9.82,77.03-10.48c23.84-0.62,47.88,3.97,66.9,20.29
						c16.77,14.39,27.41,35.49,35.07,56.58c8.98,24.73,15.03,50.75,21.36,76.36c14.17,57.33,26.11,115.33,34.8,173.91
						c8.78,59.14,14.16,118.9,15.08,178.78c0.46,29.91-0.2,59.83-2.1,89.67c-1.41,22.06-2.64,45.04-10.73,65.68
						c-7.86,20.05-22.77,34.61-38.89,47.17c-17.75,13.82-37.21,25.84-57.53,34.78c-21.78,9.58-44.85,11.59-68.05,14.58
						c-26.28,3.4-52.61,6.28-79.01,8.35c-52.1,4.09-104.35,4.84-156.53,2.58c-26.03-1.13-52.01-2.38-78.06-2.94
						c-25.92-0.55-51.85-0.94-77.75-2.2c-10.5-0.51-20.5-0.59-30.71,2.47c-9.52,2.85-18.49,7.57-26.84,13.19
						c-18.11,12.19-33.56,28.2-49.71,43.06c-20.27,18.64-42.18,35.39-63.38,52.8c-22.71,18.65-45.42,37.3-68.13,55.95
						c-22.16,18.2-44.31,36.39-66.47,54.59c1.4,0.48,2.8,0.96,4.19,1.45c-4.12-69.81-8.25-139.61-12.37-209.42
						C733.25,856.11,726.78,862.03,727,865.78L727,865.78z"/>
				</g>
			</g>
			<g>
				<g>
					<path class="st2" d="M1558.75,1033.99c3.56,0,7.05-8.93,3.15-8.93C1558.33,1025.06,1554.83,1033.99,1558.75,1033.99
						L1558.75,1033.99z"/>
				</g>
			</g>
		</g>
		<g id="Ebene_2_1_">
			<g>
				<g>
					<path d="M728.61,852.51c-17.91,2.25-36.6,3.48-54.28-1.18c-8.53-2.25-16.8-6.14-23.64-12.1c-7.7-6.71-13.43-16.19-18.09-25.46
						c-10.06-20-14.95-42.48-19.19-64.56c-4.97-25.88-9.67-51.83-14.49-77.75c-9.89-53.12-19.77-106.25-29.66-159.37
						c-8.16-43.84-19.5-96.52,8.79-135.08c12.18-16.61,29.1-28.36,46.42-38.04c19.24-10.76,39.46-19.62,59.45-28.64
						c44.28-19.97,89.18-38.36,134.49-55.46c90.05-34,181.73-62.91,274.03-89.07c92.16-26.13,184.97-49.54,277.84-72.63
						c22.42-5.58,44.93-12.3,67.8-15.46c21.64-2.99,44.07-1.22,62.64,12.06c33.01,23.61,45.42,70.35,57.24,108.4
						c30.09,96.91,49.22,197.7,56.82,299.48c3.65,48.9,5.28,98.4,2.82,147.42c-2.07,41.16-8.16,84.3-28.59,120.06
						c-21.36,37.4-57.43,57.94-96.36,67.98c-42.82,11.03-87.86,12.51-131.66,14.97c-93.6,5.27-187.31,4.38-280.97,2.18
						c-23.88-0.56-47.76-1.18-71.64-1.8c-3.56-0.09-7.09,8.83-3.15,8.93c97.71,2.49,195.47,5.33,293.2,2.22
						c47.92-1.52,96.1-3.66,143.79-9.12c40.06-4.58,81.45-13.6,114.68-39.35c69.21-53.63,69.49-157.72,68.06-239.9
						c-1.83-104.84-15.8-209.48-41.43-310.69c-6.5-25.66-13.74-51.1-21.74-76.27c-6.63-20.88-13.39-41.95-23.25-61.4
						c-8.75-17.26-20.42-33.51-36.4-43.72c-18.62-11.9-40.52-13.15-61.57-10.36c-23.51,3.12-46.66,10.1-69.69,15.83
						c-24.26,6.03-48.52,12.09-72.76,18.21c-48.18,12.17-96.31,24.59-144.3,37.6c-95.5,25.9-190.5,54.16-284.02,87.4
						c-46.82,16.64-93.27,34.53-139.15,53.97c-22.46,9.52-44.79,19.39-66.96,29.67c-19.21,8.91-38.64,17.79-56.33,29.89
						c-16.36,11.21-31.24,25.36-40.87,43.62c-10.55,20.02-13.72,43.11-12.89,65.82c0.88,24.15,5.75,47.9,10.15,71.52
						c5.08,27.3,10.16,54.6,15.24,81.9c9.98,53.6,19.05,107.51,30.09,160.87c4.53,21.92,10.47,44,21.75,63.17
						c10.28,17.47,24.25,28.42,43.23,32.67c17.4,3.9,35.5,2.53,53.02,0.33C730.45,860.87,733.33,851.92,728.61,852.51L728.61,852.51
						z"/>
				</g>
			</g>
			<g>
				<g>
					<path d="M724.09,810.1c1.64,34.89,2.98,69.81,4.31,104.72c1.42,37.34,2.79,74.69,4.28,112.03c0.76,18.82,1.54,37.64,2.43,56.45
						c0.09,1.89,1.63,3.33,3.36,2.07c42.3-30.81,83.74-62.97,124.16-96.53c41.64-34.58,82.26-70.65,121.08-108.81
						c20.72-20.38,40.91-41.4,60.31-63.22c1.21-1.36,2.37-4.52,1.15-6.22c-1.34-1.87-3.49-0.01-4.52,1.15
						c-34.7,39.05-72.01,75.42-110.44,110.23c-39.99,36.22-81.35,70.72-123.64,103.84c-22.46,17.59-45.21,34.77-68.22,51.53
						c1.12,0.69,2.24,1.38,3.36,2.07c-1.64-34.89-2.98-69.81-4.31-104.72c-1.42-37.34-2.79-74.69-4.28-112.03
						c-0.76-18.82-1.54-37.64-2.43-56.45c-0.1-2.12-1.6-3-3.36-2.07C725.48,805.1,723.98,807.92,724.09,810.1L724.09,810.1z"/>
				</g>
			</g>
			<g>
				<g>
					<path d="M1645.54,685.55c-2.18,40.71-16.37,80.52-39.88,112.63c-24.19,33.05-58.02,56.96-95.65,68.75
						c-21.48,6.73-43.89,9.49-66.23,8c-3.55-0.23-7.14,8.66-3.15,8.93c41.42,2.76,83.41-8.87,118.51-32.51
						c34.72-23.38,61.68-58.23,77.58-98.57c8.9-22.58,14.1-46.7,15.41-71.15c0.12-2.18-1.75-2.92-3.36-2.07
						C1646.77,680.63,1645.66,683.29,1645.54,685.55L1645.54,685.55z"/>
				</g>
			</g>
		</g>
		<g id="Ebene_5_1_">
			<ellipse class="st9" cx="841.05" cy="671.47" rx="43.8" ry="48.82"/>
			<ellipse class="st9" cx="1042.32" cy="671.47" rx="43.8" ry="48.82"/>
			<ellipse class="st9" cx="1231.27" cy="671.47" rx="43.8" ry="48.82"/>
		</g>
	</g>
</g>
<g id="Ebene_14">
</g>
</svg>
