<?xml version="1.0" encoding="utf-8"?>
<!-- Generator: Adobe Adobe Illustrator 24.2.0, SVG Export Plug-In . SVG Version: 6.00 Build 0)  -->
<svg version="1.1" xmlns="http://www.w3.org/2000/svg" xmlns:xlink="http://www.w3.org/1999/xlink" x="0px" y="0px"
	 viewBox="0 0 1700.79 1700.79" style="enable-background:new 0 0 1700.79 1700.79;" xml:space="preserve">
<style type="text/css">
	.st0{fill:#D2E1EC;}
	.st1{fill:#3D4C5B;}
	.st2{fill:#3D4D5B;}
	.st3{fill:#F3C159;}
	.st4{fill:#F3C157;}
	.st5{fill:#C9316B;stroke:#C9316B;stroke-miterlimit:10;}
	.st6{fill:#C7354F;}
	.st7{fill:#C9354F;}
	.st8{display:none;}
	.st9{display:inline;opacity:0.149;}
	.st10{stroke:#000000;stroke-width:0.7786;stroke-miterlimit:10;}
	.st11{stroke:#000000;stroke-width:0.7753;stroke-miterlimit:10;}
	.st12{fill:#FFFFFF;stroke:#FFFFFF;stroke-width:0.2337;stroke-miterlimit:10;}
	.st13{fill:#FFFFFF;stroke:#FFFFFF;stroke-width:0.2295;stroke-miterlimit:10;}
	.st14{fill:#6DB671;}
	.st15{fill:#6CB671;}
	.st16{opacity:0.149;}
	.st17{fill:#FFFFFF;}
	.st18{opacity:0.0314;}
</style>
<g id="Ebene_5">
	<g>
		<path class="st0" d="M716.12,1232.3c14.17,47.81,45.79,88.91,85.78,111.52c-6.72,67.94-0.81,137.61,17.22,203.21
			c-2.85,15.32-21.21,20.7-34.02,14.41c-12.81-6.29-21.38-19.9-30.11-32.24c-29.47-41.64-68.01-75.08-111.18-96.49
			c6.88-55.07-1.53-112.65-23.75-162.7c32.95-3.48,65.09-15.35,93.35-34.48"/>
		<g>
			<path class="st0" d="M709.14,1234.22c14.36,47.73,45.49,90.91,89.11,115.84c-1.2-2.08-2.39-4.17-3.59-6.25
				c-6.67,68.71-0.7,138.54,17.48,205.14c0-1.28,0-2.57,0-3.85c-2.27,10.42-14.13,14.19-23.38,10.08
				c-13.1-5.82-21.01-20.62-29-31.72c-18.82-26.14-41.23-49.33-66.9-68.8c-14.23-10.79-29.43-20.23-45.4-28.22
				c1.2,2.08,2.39,4.17,3.59,6.25c6.88-56.48-1.82-114.31-24.74-166.35c-2.08,3.63-4.17,7.26-6.25,10.9
				c34.79-3.83,67.93-15.96,97-35.47c7.7-5.17,0.46-17.72-7.31-12.51c-26.83,18-57.49,29.95-89.69,33.49
				c-5.78,0.64-8.59,5.59-6.25,10.9c21.88,49.69,29.32,105.25,22.76,159.04c-0.28,2.33,1.55,5.24,3.59,6.25
				c25.81,12.89,49.44,29.63,70.28,49.57c10.69,10.23,20.66,21.24,29.8,32.88c8.63,11,15.78,23.24,25.19,33.61
				c8.33,9.18,19.47,16.82,32.37,16.2c11.56-0.55,22.49-6.79,26.92-17.79c2.99-7.43-0.36-14.66-2.19-22.06
				c-2.05-8.28-3.9-16.6-5.56-24.96c-3.27-16.44-5.79-33.03-7.51-49.71c-3.88-37.51-3.96-75.36-0.31-112.89
				c0.24-2.45-1.54-5.08-3.59-6.25c-40.39-23.09-69.16-62.99-82.46-107.19C720.43,1221.47,706.44,1225.26,709.14,1234.22
				L709.14,1234.22z"/>
		</g>
	</g>
</g>
<g id="Ebene_7">
	<g>
		<path class="st1" d="M752.96,1432.06c0.39-13.78,13.2-34.83,6-46.07c-7.2-11.24-37.41-8.44-43.55,3.4
			c-5.79,11.19,2.71,25.48,12.57,32.39c9.86,6.91,21.86,10.85,29.02,21.17"/>
		<g>
			<path class="st2" d="M760.21,1432.06c0.67-13.06,8.56-24.85,8.17-38.17c-0.36-12.62-9.42-20.05-21.33-21.73
				c-11.04-1.55-23.94,0.37-32.79,7.6c-11.09,9.06-9.18,25.26-1.86,36.09c4.74,7.03,11.06,11.96,18.31,16.2
				c7.06,4.13,15.08,7.77,20.05,14.56c2.33,3.18,6.26,4.67,9.91,2.6c3.13-1.78,4.9-6.76,2.6-9.91c-5.02-6.86-11.38-11.74-18.69-16
				c-6.2-3.62-12.89-6.74-17.7-12.22c-3.81-4.35-7.72-11.27-5.53-17.23c1.3-3.56,5.75-5.4,9.64-6.47c6.88-1.89,21.73-3.16,22.9,5.59
				c0.78,5.88-1.79,12.44-3.46,17.96c-2.1,6.93-4.32,13.84-4.7,21.13C745.24,1441.37,759.73,1441.35,760.21,1432.06L760.21,1432.06z
				"/>
		</g>
	</g>
</g>
<g id="Ebene_8">
	<g>
		<g>
			<path d="M420.16,507.06c9.65,0,9.67-15,0-15C410.51,492.06,410.49,507.06,420.16,507.06L420.16,507.06z"/>
		</g>
	</g>
	<g>
		<path class="st3" d="M628.92,966.08c-24.54,24.54-50.91,37.78-78.76,53.76c-15.65,8.98-37.54,14.31-54.02,6.96
			c-12.4-5.53-20.67-18.77-27.69-31.58c-108.3-197.45-188.51-359.87-253.5-614.28c-10.26-40.16-8.59-84.39,3.57-123.55
			s42.56-73.38,79.4-75.61c28.2-1.7,55.49,15.36,75.01,38.68c19.53,23.32,32.52,52.46,44.8,81.34
			c89.09,209.41,157.45,423.67,218.48,662.83"/>
		<g>
			<path class="st4" d="M623.8,960.96c-22.78,22.57-51.2,38.67-79.29,53.73c-12.22,6.56-27.78,10.84-41.49,6.91
				c-13.98-4-21.76-18.16-28.32-30.04c-28.4-51.52-56.15-103.44-82.48-156.06c-25.42-50.8-49.4-102.35-71.11-154.85
				c-23.2-56.11-43.88-113.25-62.13-171.16c-10.03-31.83-19.35-63.89-28.04-96.11c-4.48-16.62-9.46-33.31-12.43-50.28
				c-2.92-16.69-3.66-33.79-2.67-50.7c1.8-30.83,9.04-62.96,27.15-88.49c15-21.15,38.71-37.6,65.62-34.67
				c30.54,3.33,54.91,27.79,70.85,52.25c18.18,27.89,30.29,59.52,43.01,90.13c25.76,61.94,49.83,124.58,72.33,187.78
				c22.72,63.82,43.85,128.2,63.62,192.99c20.52,67.27,39.59,134.99,57.52,203c4.49,17.03,8.91,34.08,13.27,51.14
				c2.3,9.02,16.28,5.2,13.97-3.85c-18.2-71.26-37.52-142.24-58.37-212.78c-19.99-67.61-41.38-134.8-64.47-201.42
				c-22.77-65.69-47.19-130.81-73.41-195.21c-12.95-31.79-25.43-64.17-41.04-94.77c-14.85-29.13-34.8-57.65-64.29-73.42
				c-26.41-14.13-57.04-14.15-82.2,2.7c-24.57,16.45-40.73,43.1-48.92,71.08c-9.89,33.78-12.01,69.76-6.54,104.5
				c2.82,17.92,8.08,35.47,12.79,52.97c4.54,16.86,9.25,33.68,14.15,50.45c18.01,61.68,38.58,122.6,62.04,182.43
				c21.77,55.53,45.98,110.07,72.04,163.71c26.34,54.2,54.49,107.5,83.28,160.44c13.77,25.32,26.81,60.15,59.54,63.8
				c15.6,1.74,31.82-3.17,45.35-10.7c14.14-7.87,28.36-15.76,41.98-24.49c13.96-8.95,27.12-19.1,38.9-30.77
				C640.67,964.64,630.43,954.39,623.8,960.96L623.8,960.96z"/>
		</g>
	</g>
	<g>
		<g>
			<path d="M475.49,897.29c3.97,22.54,25.14,39.26,47.54,40.74c22.76,1.51,41.87-15.18,47.92-36.4c3.44-12.05,2.45-24.86-3.27-36.03
				c-2.93-5.73-11.56-0.68-8.63,5.05c10.15,19.83-0.36,47.77-21.49,55.45c-22.4,8.14-48.4-8.6-52.42-31.46
				C484.02,888.31,474.38,890.99,475.49,897.29L475.49,897.29z"/>
		</g>
	</g>
</g>
<g id="Ebene_12">
</g>
<g id="Ebene_13">
	
		<ellipse transform="matrix(0.915 -0.4034 0.4034 0.915 -312.8689 258.1279)" class="st5" cx="456.32" cy="871.77" rx="17" ry="8.5"/>
	
		<ellipse transform="matrix(0.915 -0.4034 0.4034 0.915 -285.3582 297.7175)" class="st5" cx="564.06" cy="826.26" rx="17" ry="8.5"/>
</g>
<g id="Ebene_9">
	<g>
		<path class="st6" d="M638.87,974.34c17.93,72.36,48.55,136.07,66.48,208.43c1.67,6.74,7.84,21.65,6.74,28.5
			c-2.33,14.5-32.87,23.36-44.74,29.41c-14.27,7.27-37.22,26.46-51.88,19.83c-11.22-5.07-28.69-39.76-28.69-39.76
			c-34.57-59.45-58.98-119.55-93.55-179.01c55.42,0,100.33-40.61,145.99-71.21"/>
		<g>
			<path class="st7" d="M631.89,976.26c11.52,46.16,28.73,90.52,44.26,135.41c7.7,22.26,14.95,44.7,20.83,67.52
				c2.1,8.15,5.04,16.06,7.04,24.23c1.56,6.37,1.05,9.21-4.38,13.46c-11.18,8.75-25.62,11.86-37.9,18.59
				c-7.69,4.21-14.87,9.28-22.59,13.43c-5.52,2.96-13.79,7.61-20.26,5.2c-3.36-1.25-7.38-6.69-10.13-10.56
				c-4.05-5.7-7.66-11.7-11.08-17.8c-7.62-13.59-15.24-27.2-22.53-40.97c-25.73-48.64-48.04-99.04-75.66-146.68
				c-2.08,3.63-4.17,7.26-6.25,10.9c58.36-0.41,103.87-41.42,149.64-72.2c7.69-5.17,0.45-17.73-7.31-12.51
				c-43.21,29.06-87.17,69.84-142.33,70.22c-5.49,0.04-9.02,6.12-6.25,10.9c26.01,44.86,47.32,92.17,71.19,138.15
				c8.26,15.92,17.11,31.51,25.74,47.22c6.56,11.95,14.09,26.61,25.54,34.56c14.85,10.32,34.55-2.12,47.42-10.03
				c6.51-4.01,12.9-8.03,19.96-11.03c7.5-3.2,15.13-6.14,22.32-10.02c6.63-3.58,13.63-8.17,17.52-14.83
				c4.38-7.5,2.57-15.84,0.28-23.72c-6.14-21.14-11.83-42.43-18.6-63.38c-17.26-53.4-38.88-105.36-52.48-159.91
				C643.6,963.37,629.63,967.2,631.89,976.26L631.89,976.26z"/>
		</g>
	</g>
</g>
<g id="Ebene_4">
	<g>
		<g>
			<path d="M807.38,1334.1c-31.44-13.91-50.91-43.4-64.93-73.6c-13.61-29.31-22.53-60.59-31.76-91.48
				c-16.48-55.15-31.93-110.61-47.24-166.1c-16.81-60.94-33.4-121.95-50.38-182.85c-17.1-61.33-34.57-122.57-53.12-183.48
				c-17.41-57.19-35.73-114.13-56.1-170.34c-17.61-48.61-36.67-96.86-59.32-143.36c-17.42-35.75-37-71.24-62.71-101.78
				c-17.38-20.64-39.87-41.22-67.23-46.6c-26.06-5.12-51.32,5.26-70.68,22.55c-19.03,17.01-30.46,40.87-36.2,65.43
				c-7.04,30.14-6.85,61.71-3.86,92.35c3.75,38.38,11.85,76.27,21.89,113.46c11.6,42.98,25.89,85.22,41.54,126.88
				c17.1,45.53,35.9,90.41,55.69,134.83c20.19,45.32,41.47,90.15,63.48,134.61c21.27,42.96,43.23,85.57,65.7,127.91
				c20.38,38.4,41.17,76.58,62.27,114.58c17.3,31.16,34.81,62.19,52.41,93.18c12.34,21.73,24.78,43.4,36.93,65.23
				c3.66,6.58,7.32,13.17,10.79,19.86c1.11,2.15,2.18,4.31,3.22,6.49c0.18,0.38,0.34,0.78,0.53,1.16c0.56,1.17-0.72-2.13-0.22-0.51
				c1.54,4.9,3.25,9.73,4.65,14.67c11.43,40.15,11.59,81.68,4.83,122.66c-1.51,9.12,12.45,13.04,13.97,3.85
				c6.89-41.74,7.42-83.96-3.39-125.11c-2.68-10.19-5.65-19.92-10.43-29.25c-8.13-15.9-17.15-31.36-25.96-46.89
				c-14.82-26.14-29.72-52.25-44.48-78.43c-19.2-34.04-38.21-68.19-56.93-102.49c-21.79-39.93-43.19-80.07-64.07-120.49
				c-22.4-43.36-44.21-87.03-65.18-131.1c-21.06-44.27-41.33-88.93-60.24-134.16c-17.99-43.03-34.84-86.56-49.67-130.78
				c-13.31-39.68-25.09-79.98-33.57-120.99c-6.98-33.78-11.83-67.87-11.13-102.52c0.3-14.95,1.48-27.89,4.44-41.78
				c1.36-6.39,3.07-12.71,5.2-18.89c2.23-6.48,3.53-9.63,6.78-15.86c5.82-11.16,11.22-18.49,20.36-26.86
				c8.03-7.36,19.37-14.5,29.79-17.79c10.5-3.32,20.64-3.62,30.54-1.22c11.29,2.74,21.61,8.45,31.12,15.76
				c25.78,19.82,45.5,49.44,62.08,77.81c23.53,40.25,42.54,83.11,59.86,126.33c21.1,52.66,39.63,106.33,57.06,160.31
				c19.08,59.1,36.76,118.64,53.86,178.34c17.5,61.09,34.35,122.36,51.17,183.64c15.92,58,31.77,116.03,48.26,173.87
				c7.5,26.32,15.14,52.6,23.05,78.79c9.71,32.17,19.63,64.59,35.13,94.54c14.58,28.18,35.19,54.94,64.89,68.09
				C808.52,1350.34,815.9,1337.86,807.38,1334.1L807.38,1334.1z"/>
		</g>
	</g>
	<g>
		<g>
			<path d="M796.49,1340.35c-7.36,56.54-4.31,115.08,7.68,170.77c3.33,15.44,7.48,30.69,12.62,45.63c1.11-2.73,2.22-5.45,3.33-8.18
				c-13.6,6.52-25.93,15.29-39.54,21.8c3.3,0.87,6.61,1.73,9.91,2.6c-22.39-52.45-62.87-94.34-110.66-124.6
				c-13.39-8.47-27.33-16.03-41.63-22.85c-8.37-3.99-15.73,8.49-7.31,12.51c48.49,23.13,93.69,55.65,124.27,100.48
				c8.97,13.14,16.57,27.14,22.82,41.77c1.62,3.8,6.75,4.11,9.91,2.6c13.6-6.52,25.93-15.29,39.54-21.8c2.71-1.3,4.3-5.35,3.33-8.18
				c-23.12-67.23-28.94-142.22-19.78-212.55c0.51-3.91-3.69-7.2-7.24-7.24C799.4,1333.06,796.99,1336.49,796.49,1340.35
				L796.49,1340.35z"/>
		</g>
	</g>
	<g>
		<g>
			<path d="M807.57,1556.27c-11.3-29.18-22.76-58.35-32.92-87.95c-1.74-5.08-3.52-10.19-4.87-15.4c-0.17-0.66-0.32-1.32-0.48-1.98
				c-0.1-0.42-0.38-2.3-0.19-0.81c0.17,1.38-0.04-1.87-0.04-2.59c0-1.66,0.07-3.32,0.14-4.98c0.86-19.21,3.59-40.57-3.44-58.99
				c-3.46-9.05-9.72-16.98-19.61-19.18c-13.13-2.92-28.62,3.75-38.42,12.12c-14.05,12.01-11.26,30.17-1.81,44.07
				c12.75,18.75,32.06,32.87,50.66,45.33c7.77,5.2,15.02-7.34,7.31-12.51c-15.52-10.39-31.35-21.96-43-36.75
				c-6.62-8.41-13.36-20.44-3.81-29.12c4.75-4.32,11.3-7.14,17.5-8.65c3.84-0.93,6.87-1.07,10.22,0.17
				c-1.33-0.49,0.66,0.35,1.09,0.6c1.67,1,0.09-0.2,1.25,0.86c1.95,1.79,1.57,1.26,2.68,3.13c1.07,1.79,1.77,3.23,2.1,4.1
				c0.78,2.09,1.39,4.23,1.89,6.41c3.63,15.85,1.27,34.17,0.81,51.18c-0.24,8.91,2.72,17,5.55,25.34
				c10.24,30.12,21.94,59.78,33.43,89.44C796.93,1568.72,810.94,1564.99,807.57,1556.27L807.57,1556.27z"/>
		</g>
	</g>
	<g>
		<g>
			<path d="M709.77,1207.48c-19.89,29.33-58.78,49.03-94.3,45.79c-9.28-0.85-9.22,13.64,0,14.48c40.67,3.71,84.22-19.64,106.8-52.96
				C727.52,1207.05,714.97,1199.79,709.77,1207.48L709.77,1207.48z"/>
		</g>
	</g>
	<g>
		<g>
			<path d="M638.56,952.69c-41.57,38.9-96.98,75.27-156.12,73.8c-9.32-0.23-9.32,14.25,0,14.48c63,1.57,122.02-36.55,166.36-78.04
				C655.62,956.55,645.36,946.32,638.56,952.69L638.56,952.69z"/>
		</g>
	</g>
</g>
<g id="Ebene_10" class="st8">
	<g class="st9">
		<path d="M615.1,1267.3c34.87,0.88,69.7-13.84,95.26-40.26"/>
		<g>
			<path d="M615.1,1274.54c37.83,0.7,74.06-15.51,100.38-42.38c6.53-6.66-3.71-16.92-10.24-10.24
				c-23.75,24.26-55.99,38.77-90.14,38.14C605.78,1259.88,605.78,1274.37,615.1,1274.54L615.1,1274.54z"/>
		</g>
	</g>
	<g class="st9">
		<path d="M254.66,210.5C232.62,523.75,484.7,1002.04,654.7,1247.55c-5.85,11.05-29.49,19.93-39.23,12.95
			c-9.74-6.98-157.4-272.96-236.93-445.3c-63.01-136.53-151.26-270.01-161.69-422.86c-4.01-58.83,8.5-151.04,37.67-191.78"/>
		<g>
			<path d="M247.42,210.5c-4.64,67.1,2.97,134.71,15.89,200.53c14.7,74.89,36.78,148.26,62.67,220
				c27.34,75.74,59.1,149.87,93.79,222.52c33.55,70.28,69.92,139.22,108.73,206.73c33.81,58.8,69.44,116.58,107.48,172.74
				c4.12,6.08,8.27,12.15,12.46,18.19c0-2.44,0-4.87,0-7.31c-3.91,6.79-13.39,10.77-20.86,11.7c-3.44,0.43-5.46-0.34-8.46-1.35
				c0.12,0.04,2.04,1.45,0.98,0.69c-0.23-0.16-0.35-0.53-0.58-0.66c-1.18-0.65,0.89,1.22,0.42,0.56c-0.25-0.35-0.52-0.68-0.76-1.03
				c-0.68-0.98-1.37-1.96-2.03-2.95c-1.73-2.6-3.39-5.24-5.04-7.9c-11.99-19.33-23.17-39.18-34.33-58.99
				c-37.04-65.71-72.67-132.24-107.37-199.21c-19.23-37.11-38.13-74.4-56.47-111.96c-18.95-38.81-36.7-78.19-55.99-116.83
				c-44.46-89.04-93.7-177.25-118.89-274.22c-11.53-44.38-17.54-89.9-15.03-135.76c1.19-21.62,3.81-43.18,8.1-64.41
				c3.87-19.19,8.88-38.57,16.94-56.47c3.29-7.29,7.09-14.33,11.71-20.87c5.39-7.63-7.16-14.87-12.51-7.31
				c-10.81,15.3-17.6,33.41-22.87,51.27c-6.19,20.97-10.11,42.56-12.83,64.24c-5.69,45.28-4.2,90.3,4.06,135.19
				c18.75,101.84,67.62,194.79,113.98,286.25c20.91,41.25,40.41,83.11,60.42,124.79C409.46,897,428.55,935.02,448,972.86
				c36.25,70.55,73.63,140.55,112.41,209.74c12.14,21.67,24.33,43.34,37.28,64.54c3.06,5.01,6.1,10.09,9.6,14.82
				c7.41,10,20.91,9.56,31.81,5.59c8.58-3.12,17.18-8.22,21.85-16.34c1.22-2.12,1.45-5.21,0-7.31
				c-37.48-54.16-72.56-109.97-105.9-166.76c-38.87-66.21-75.33-133.84-109.15-202.76c-35.18-71.69-67.55-144.82-95.74-219.55
				c-27.04-71.69-50.45-144.96-67.06-219.81c-14.65-66.03-24.22-133.77-22.32-201.54c0.21-7.67,0.59-15.33,1.12-22.98
				C262.55,201.2,248.06,201.24,247.42,210.5L247.42,210.5z"/>
		</g>
	</g>
	<g class="st9">
		<path d="M638.11,1404.95c56.51,32.38,132.11,94.43,168.52,153.04c-3.15,2.59-19.24,16.06-22.39,18.64
			c-38.65-79.04-77.61-120.92-144.83-150.44"/>
		<g>
			<path d="M634.45,1411.2c51.03,29.36,98.54,67.93,137.27,112.29c10.48,12.01,20.2,24.63,28.65,38.15
				c0.38-2.93,0.75-5.85,1.13-8.78c-7.5,6.17-14.89,12.47-22.39,18.64c3.79,0.49,7.58,0.98,11.37,1.47
				c-25.22-51.41-57.36-99.37-106.13-131.02c-13.11-8.51-27-15.7-41.29-22.01c-3.6-1.59-7.74-1.02-9.91,2.6
				c-1.83,3.06-0.97,8.33,2.6,9.91c23.75,10.49,46.45,23.55,66.1,40.64c19.99,17.39,36.5,38.15,50.53,60.55
				c9.42,15.04,17.79,30.71,25.61,46.64c2.23,4.55,8.06,4.2,11.37,1.47c7.5-6.17,14.89-12.47,22.39-18.64
				c2.39-1.96,2.71-6.25,1.13-8.78c-15.97-25.53-36.2-48.34-57.76-69.26c-22.69-22.02-47.27-42.17-73.07-60.45
				c-13.03-9.24-26.44-17.95-40.28-25.92C633.67,1394.04,626.37,1406.55,634.45,1411.2L634.45,1411.2z"/>
		</g>
	</g>
	<g class="st9">
		<path d="M728.22,1379.09c16.12,18.5,27.23,42.48,31.45,67.88c0.85-15.4,1.67-31.13-1.95-46.07c-3.62-14.94-2.9-14.5-15.92-19.44"
			/>
		<g>
			<path d="M723.1,1384.22c15.76,18.34,25.5,40.96,29.59,64.69c1.45,8.41,13.8,5.82,14.22-1.93c0.99-18.1,0.97-35.51-3.47-53.2
				c-1.12-4.44-2.45-9.08-5.87-12.35c-3.75-3.59-9.11-5.15-13.85-6.94c-8.72-3.31-12.49,10.68-3.85,13.97
				c1.91,0.73,3.89,1.38,5.73,2.29c0.66,0.33,1.27,0.77,1.93,1.08c0.09,0.04,0.09,0.07,0.05,0.02c-0.78-0.76,0.89,1.81,0.31,0.41
				c0.32,0.77,0.55,1.58,0.79,2.37c0.67,2.22,1.17,4.51,1.71,6.77c3.59,15.02,2.88,30.29,2.04,45.59c4.74-0.64,9.48-1.28,14.22-1.93
				c-4.52-26.24-15.95-50.87-33.31-71.08C727.25,1366.89,717.05,1377.18,723.1,1384.22L723.1,1384.22z"/>
		</g>
	</g>
</g>
<g id="Ebene_11">
	
		<ellipse transform="matrix(0.9062 -0.4229 0.4229 0.9062 -306.741 273.2854)" class="st10" cx="462.51" cy="827.92" rx="24.71" ry="26.95"/>
	
		<ellipse transform="matrix(0.9062 -0.4229 0.4229 0.9062 -291.4148 293.2385)" class="st11" cx="515.14" cy="803.36" rx="24.5" ry="26.95"/>
	
		<ellipse transform="matrix(0.9062 -0.4229 0.4229 0.9062 -300.3901 274.7817)" class="st12" cx="469.06" cy="814.35" rx="7.5" ry="8"/>
	
		<ellipse transform="matrix(0.9062 -0.4229 0.4229 0.9062 -300.3901 274.7817)" class="st12" cx="469.06" cy="814.35" rx="7.5" ry="8"/>
	
		<ellipse transform="matrix(0.9062 -0.4229 0.4229 0.9062 -285.8672 293.6891)" class="st12" cx="518.93" cy="791.08" rx="7.5" ry="8"/>
	
		<ellipse transform="matrix(0.9062 -0.4229 0.4229 0.9062 -306.7409 273.2853)" class="st13" cx="462.51" cy="827.92" rx="2.26" ry="2.64"/>
	
		<ellipse transform="matrix(0.9062 -0.4229 0.4229 0.9062 -291.5594 293.3495)" class="st13" cx="515.32" cy="803.74" rx="2.26" ry="2.64"/>
</g>
<g id="Ebene_15">
</g>
<g id="Ebene_16">
</g>
<g id="Ebene_17">
	<g>
		<g id="Ebene_2_Kopie">
			<g>
				<path class="st14" d="M953.44,713.23c55.31,11.9,223.58,48.81,244.58,28.76c34.13-32.57,149.84-431.56,126.72-462.35
					c-48.46-64.53-734.02-234.73-807.15-182.12c-65.94,47.44-58.85,441.2-41.74,467.97c25.87,40.46,142.92,43.43,192.44,72.52
					c22.08,12.97,105.39,152.95,131.94,156.32c15.06,1.91,113.55-45.3,151.43-81.3"/>
				<g>
					<path class="st15" d="M952.73,717.18c54.29,11.68,108.76,23.4,163.86,30.53c13.25,1.72,26.57,3.14,39.92,3.79
						c9.89,0.49,20.06,0.81,29.85-0.84c6.02-1.01,11.9-2.71,16.01-7.34c3.13-3.54,5.55-7.77,7.81-11.88
						c7.46-13.53,13.25-27.99,18.87-42.34c8.04-20.57,15.35-41.42,22.35-62.36c16.86-50.5,31.97-101.58,45.65-153
						c12.04-45.27,23.53-90.98,30.82-137.28c2.26-14.34,4.44-29.07,3.94-43.63c-0.14-4.15-0.48-8.62-2.1-12.51
						c-1.41-3.41-4.17-6.13-6.92-8.56c-7.91-7.02-17.6-12.25-26.99-17.06c-13.91-7.12-28.34-13.25-42.87-19.02
						c-40.57-16.13-82.24-29.57-124.03-42.2c-51.19-15.47-102.85-29.44-154.77-42.34c-53.88-13.4-108.06-25.65-162.53-36.45
						c-48.65-9.65-97.58-18.26-146.82-24.38c-35.71-4.44-72.31-8.41-108.3-6.22c-10.97,0.67-22.45,1.84-32.75,5.76
						c-10.77,4.1-17.94,12.59-23.52,22.25c-8.95,15.45-14.05,33.12-18.27,50.32c-5.63,22.93-9.29,46.33-12.17,69.76
						c-6.66,54.14-9.14,108.84-9.63,163.38c-0.4,44.56,0.14,89.45,4.62,133.87c1.14,11.29,1.97,23.51,5.84,34.33
						c2.49,6.96,8.58,12.64,14.43,16.99c10.82,8.06,23.6,13.32,36.35,17.64c31.61,10.74,64.68,16.47,96.88,25.11
						c14.27,3.83,28.61,8.13,41.88,14.68c4.52,2.23,6.23,2.98,9.55,5.99c2.62,2.38,4.81,4.82,7.07,7.45
						c15.93,18.48,29.68,38.84,43.91,58.57c15.67,21.74,31.23,43.78,48.92,64.03c6.02,6.89,12.33,14.05,19.89,19.37
						c5.75,4.05,10.82,5.51,17.73,3.98c10.3-2.28,20.2-6.56,29.81-10.74c14.35-6.24,28.38-13.2,42.16-20.58
						c26.57-14.23,53.69-29.91,75.61-50.6c3.79-3.57-2.5-8.78-6.24-5.24c-10.58,10-22.74,18.43-34.99,26.33
						c-13.87,8.96-28.23,17.19-42.86,24.9c-13.21,6.96-26.68,13.51-40.47,19.32c-8.47,3.57-18.54,8.11-27.16,9.24
						c-0.55,0.07-1.09,0.11-1.64,0.16c-1.46,0.13,0.25,0.1-0.74-0.03c-0.47-0.06-0.94-0.19-1.4-0.33c1.07,0.31-0.99-0.46-1.37-0.64
						c-2.74-1.33-4.96-3.12-7.61-5.41c-7.51-6.48-13.99-14.08-20.26-21.68c-17.37-21.03-33.09-43.36-49.01-65.45
						c-13.19-18.31-26-37.44-41.41-54.08c-5.95-6.43-12.49-10.37-20.59-13.98c-13.58-6.05-28.02-10.22-42.39-13.99
						c-31.73-8.33-64.46-13.85-95.41-24.91c-11.99-4.29-24.34-9.44-34.08-17.75c-1.87-1.59-3.65-3.29-5.19-5.17
						c-0.85-1.03-1.6-2.12-2.38-3.2c-0.18-0.25-1.06-1.92-0.29-0.37c-0.67-1.33-1.14-2.73-1.57-4.15
						c-1.22-4.08-1.99-8.67-2.79-13.98c-1.06-7.14-1.83-14.31-2.49-21.49c-1.83-19.93-2.79-39.94-3.42-59.92
						c-1.64-52.19-0.93-104.51,2.24-156.6c2.98-49.05,7.37-98.88,19.55-146.61c4.14-16.2,9.18-32.8,18.06-47.16
						c2.67-4.32,6.94-9.64,10.8-12.46c0.67-0.5,1.37-0.96,2.09-1.39c0.33-0.19,0.66-0.38,0.99-0.56c1.16-0.65-0.46,0.18,0.77-0.39
						c1.84-0.84,3.72-1.57,5.64-2.19c5.23-1.68,8.32-2.23,13.84-3.02c6.31-0.9,12.69-1.38,19.06-1.64
						c15.84-0.65,31.73-0.05,47.55,1.04c43.72,2.99,87.24,9.42,130.43,16.75c52.33,8.89,104.35,19.53,156.12,31.23
						c53.23,12.04,106.22,25.23,158.85,39.67c46.76,12.83,93.32,26.56,139.21,42.19c33.11,11.27,66.52,23.1,97.69,39.01
						c5.27,2.69,10.47,5.54,15.49,8.69c0.94,0.59,0.9,0.56,2.36,1.54c0.99,0.67,1.98,1.36,2.94,2.06c1.65,1.21,3.26,2.47,4.79,3.82
						c0.64,0.57,1.26,1.16,1.88,1.76c0.31,0.3,0.61,0.62,0.91,0.95c-0.95-1.02,0.05,0.06,0.26,0.32c0.41,0.52,0.81,1.03,1.2,1.57
						c0.67,0.94-0.29-0.74,0.07,0.12c0.15,0.34,0.31,0.67,0.42,1.03c0.15,0.43,0.77,2.76,0.47,1.42c0.22,0.97,0.38,1.95,0.51,2.92
						c0.32,2.41,0.44,4.85,0.47,7.28c0.2,13.55-2.05,28.57-4.36,42.72c-3.42,21.08-7.83,41.98-12.58,62.8
						c-11.56,50.72-25.27,100.98-40.15,150.83c-13.48,45.13-27.77,90.17-44.95,134.06c-5.57,14.24-11.33,28.57-18.69,42.02
						c-2.49,4.54-3.66,6.88-6.83,10.46c-1.36,1.53-2.11,2.08-3.81,2.75c-3.25,1.28-5.8,1.77-9.2,2.2
						c-10.08,1.3-20.43,0.93-30.56,0.28c-13.43-0.86-26.8-2.42-40.13-4.24c-30.32-4.13-60.45-9.66-90.46-15.61
						c-22.65-4.49-45.23-9.31-67.8-14.18C949,708.17,947.58,716.07,952.73,717.18L952.73,717.18z"/>
				</g>
			</g>
		</g>
		<g id="Ebene_8_1_">
			<g>
				<g>
					<path class="st15" d="M1174.91,425.05c-16.34,60.04-32.69,120.07-49.02,180.12c-1.79,6.58,0.87,15.55,4.73,20.99
						c4.02,5.66,11.39,10.71,18.46,11.67c7.34,0.99,15.32,0.02,21.38-4.48c6.32-4.69,9.72-10.49,11.77-18.01
						c16.34-60.04,32.69-120.07,49.02-180.12c1.79-6.58-0.87-15.55-4.73-20.99c-4.02-5.66-11.39-10.71-18.46-11.67
						c-7.34-0.99-15.32-0.02-21.38,4.48C1180.37,411.74,1176.96,417.53,1174.91,425.05L1174.91,425.05z"/>
				</g>
			</g>
		</g>
		<g id="Ebene_7_1_">
			<g class="st16">
				<g>
					<path class="st17" d="M1097.99,250.16c16.61,5.9,33.75,10.28,50.7,15.09c4.68,1.33,9.36,2.67,14.02,4.06
						c2.27,0.68,4.54,1.36,6.81,2.06c1.13,0.35,2.27,0.7,3.4,1.05c3.73,1.16-3.15-1.04,0.64,0.21c8.82,2.89,17.6,5.94,26.15,9.54
						c3.98,1.67,7.91,3.45,11.75,5.41c1.73,0.88,3.44,1.79,5.13,2.76c0.81,0.46,1.61,0.94,2.41,1.41c3.29,1.94-2.28-1.64-0.3-0.22
						c2.78,2,5.55,3.95,8.03,6.31c0.52,0.5,1.02,1.15,1.59,1.6c-0.81-0.63-2.72-3.23-1.17-1.2c0.9,1.19,1.66,2.75,2.67,3.83
						c-0.55-0.6-1.86-4.02-0.93-1.66c0.23,0.59,0.46,1.18,0.7,1.76c1.41,3.37-0.2-3.33-0.18-1.02c0,1.17,0.02,5.46,0.19,1.49
						c0.17-3.93,0.02-0.75-0.06,0.19c-0.08,0.9-0.17,1.79-0.28,2.68c-0.24,2.04-0.55,4.07-0.89,6.09
						c-4.62,27.76-12.65,55.08-20.17,82.15c-10.66,38.35-21.97,76.52-33.36,114.67c-10.76,36.08-21.68,72.11-32.26,108.24
						c-1.1,3.74-2.18,7.49-3.28,11.24c-2.34,8.07,5.1,17.56,13.25,18.66c9.53,1.29,16.44-4.2,18.94-12.85
						c10.32-35.64,21.08-71.15,31.72-106.7c11.71-39.18,23.39-78.37,34.46-117.74c8.17-29.06,16.71-58.3,22.21-88.01
						c1.41-7.6,3.35-16.44,1.85-24.13c-3.52-18.01-19.12-29.43-34.72-37.62c-17.52-9.19-36.8-15.14-55.7-20.84
						c-17.52-5.28-35.28-9.8-52.77-15.18c-0.87-0.26-1.73-0.54-2.6-0.81c-2.63-0.82,4.13,1.36,0.99,0.31
						c-1.65-0.55-3.28-1.1-4.92-1.68c-8.03-2.85-18.12-1.08-21.79,7.43C1087.1,236.04,1089.37,247.1,1097.99,250.16L1097.99,250.16z
						"/>
				</g>
			</g>
			<g class="st16">
				<g>
					<path class="st17" d="M1126.94,695.81c-0.08,3.54-0.16,7.08-0.25,10.61c8.95-4.51,17.91-9.02,26.86-13.53
						c-3.63-3.27-7.25-6.55-10.89-9.82c-0.4,8.44-0.81,16.89-1.21,25.33c-2.13,1.19-4.07,1.96-6.59,1.86c-1,0.1-1.96-0.07-2.86-0.52
						c-1.6-0.59-1.84-0.64-0.71-0.16c-1.68-0.98-2.9-2.01-4.11-3.52c0.67,0.96,0.58,0.76-0.25-0.61c-0.78-1.15-1.24-2.43-1.38-3.83
						c3.53-5.49,7.08-10.97,10.61-16.46c0.25-0.09,4.11-0.48,2.02-0.44c2.07-0.03,3.8,0.24,5.73,0.99
						c-1.96-0.77,1.43,1.01,1.66,1.17c-1.68-1.17,1.1,1.18,1.31,1.47c1.06,1.49,1.55,3.32,1.78,5.1c-0.38-2.88-1.28,5.73-1.19,5.48
						c0.7-1.92-0.84,1.3-1.09,1.59c-0.65,0.58-1.29,1.17-1.94,1.74c-2.5,1.12-3.16,1.45-1.99,0.99c1.84-0.54-3.77,0.62-1.88,0.4
						c0.86-0.04,0.51-0.06-1.05-0.05c-0.98,0.11-1.91-0.04-2.81-0.43c-3.62-1.08-6.39-3.83-7.21-7.47
						c-0.78-3.43-0.32,1.61-0.18-2.03c0.14-3.61-0.74,1.38,0.34-2.08c0.15-0.95,0.55-1.78,1.21-2.49c0.89-1.2,1.07-1.48,0.55-0.86
						c-0.93,1.08,3.42-2.44,1.1-1.23c8.24,2.59,16.47,5.17,24.71,7.76c-0.64-1.47-1.28-2.94-1.92-4.41
						c-3.36-7.72-12.58-13.03-21-9.62c-7.83,3.17-13.27,12.25-9.67,20.51c0.64,1.47,1.28,2.94,1.92,4.41
						c2.06,4.73,5.4,8.04,10.4,9.65c5.31,1.7,9.54,0.59,14.31-1.89c9.57-4.99,12.97-18.43,8.94-27.9
						c-4.79-11.25-18.31-16.94-29.8-12.07c-11.08,4.69-17.98,17.4-12.66,28.84c5.15,11.07,17.84,17.22,29.75,13.03
						c6.81-2.4,11.26-9.4,10.61-16.46c-0.69-7.62-5.62-14.82-12.77-18.11c-7.76-3.57-15.4-2.77-22.63,1.27
						c-9.52,5.31-8.38,18.86-1.21,25.33c3.63,3.27,7.25,6.55,10.89,9.82c4.84,4.36,12.52,4.82,18.1,2
						c6.26-3.17,8.61-8.86,8.76-15.52c0.08-3.54,0.16-7.08,0.25-10.61c0.09-3.74-2.92-8.42-5.7-10.75c-3.1-2.6-8.02-4.35-12.12-3.83
						c-4.12,0.53-8.3,2.22-10.93,5.5C1127.88,687.56,1127.05,691.26,1126.94,695.81L1126.94,695.81z"/>
				</g>
			</g>
		</g>
		<g id="Ebene_2_1_">
			<g>
				<g>
					<path d="M920.49,747.22c54.35,11.72,108.9,23.46,164.07,30.65c13.27,1.73,26.6,3.16,39.97,3.84
						c10.63,0.54,21.54,1.06,32.07-0.69c8.16-1.36,15.81-3.73,21.41-9.98c3.57-3.98,6.33-8.78,8.91-13.42
						c7.49-13.51,13.3-27.97,18.93-42.31c8.08-20.61,15.41-41.52,22.42-62.51c17.05-51.01,32.36-102.6,46.15-154.56
						c12-45.21,23.49-90.89,30.64-137.15c2.28-14.76,4.41-29.97,3.77-44.95c-0.2-4.77-0.82-9.84-2.7-14.29
						c-2-4.73-5.67-8.54-9.54-11.89c-8.6-7.45-19.06-13.08-29.2-18.23c-14.05-7.12-28.61-13.26-43.26-19.05
						c-41.22-16.29-83.56-29.87-126-42.67c-51.16-15.44-102.78-29.38-154.65-42.27c-53.81-13.38-107.92-25.63-162.31-36.43
						c-48.49-9.63-97.24-18.25-146.3-24.41c-36.55-4.59-74.03-8.68-110.87-6.57c-11.72,0.67-24,1.98-35.02,6.07
						c-12.72,4.71-21.22,14.29-27.93,25.59c-9.41,15.87-14.68,34.27-19.08,52.02c-5.67,22.89-9.33,46.27-12.2,69.66
						c-6.71,54.61-9.11,109.8-9.54,164.82c-0.35,44.71,0.24,89.76,4.87,134.31c1.23,11.8,2.24,24.58,6.34,35.85
						c3.03,8.31,10.04,15.26,17.11,20.44c11.67,8.56,25.12,14.26,38.81,18.85c32.43,10.87,66.19,16.85,99.18,25.77
						c3.62,0.98,7.24,2,10.83,3.07c0.95,0.29,1.92,0.57,2.87,0.87c0.51,0.16,3.72,1.18,0.62,0.19c1.84,0.59,3.67,1.2,5.49,1.83
						c6.74,2.34,13.4,4.96,19.77,8.16c1.21,0.61,2.42,1.24,3.61,1.9c0.67,0.37,1.36,0.88,2.07,1.17c1.44,0.59-2.93-2.2-1.75-1.12
						c0.98,0.9,2.15,1.64,3.14,2.54c1.17,1.05,2.25,2.17,3.35,3.28c2.46,2.51-1.66-1.92,0.24,0.24c0.83,0.95,1.68,1.89,2.5,2.85
						c15.86,18.42,29.63,38.62,43.86,58.24c15.75,21.71,31.38,43.74,49.2,63.9c6.47,7.33,13.19,15.01,21.31,20.66
						c3.83,2.67,7.83,5.1,12.5,6.06c4.67,0.96,8.95,0.12,13.47-0.93c10.43-2.41,20.45-6.67,30.2-10.9
						c14.87-6.45,29.41-13.67,43.68-21.27c27.08-14.43,54.32-30.39,76.68-51.38c4.76-4.48,3.28-13.01-1.41-16.95
						c-5.47-4.59-12.51-3.23-17.28,1.26c-0.64,0.6-4.54,4.01-1.87,1.74c-1.19,1.01-2.38,2.04-3.58,3.03
						c-2.81,2.31-5.68,4.55-8.6,6.72c-6.28,4.67-12.77,9.08-19.37,13.32c-13.88,8.91-28.24,17.08-42.87,24.73
						c-1.57,0.82-3.14,1.63-4.71,2.44c-0.29,0.15-3.42,1.73-0.96,0.49c-0.92,0.47-1.86,0.93-2.79,1.39
						c-3.62,1.8-7.25,3.56-10.91,5.29c-6.36,3.01-12.77,5.9-19.27,8.62c-5.27,2.2-10.59,4.31-16.01,6.15
						c-2.03,0.68-4.06,1.33-6.13,1.9c-0.87,0.23-2.06,0.32-2.85,0.73c2.9-1.49,2.22-0.4,0.25-0.12c-0.67,0.1-1.35,0.11-2.01,0.21
						c-2.25,0.37,2.19,0.32,1.71,0.11c-0.34-0.14-1.31-0.38-1.67-0.37c3.21-0.12,2.91,1.17,1.02,0.18
						c-0.65-0.34-1.29-0.71-1.95-1.04c-2.31-1.16,2.71,1.95,0.6,0.39c-1.52-1.13-3.03-2.24-4.47-3.47
						c-3.43-2.91-6.57-6.11-9.67-9.35c-0.57-0.59-2.33-2.22,0.3,0.34c-0.49-0.47-0.93-1.01-1.38-1.52
						c-0.87-0.96-1.73-1.93-2.58-2.91c-1.97-2.25-3.91-4.53-5.82-6.83c-17.39-20.9-33.12-43.11-49.05-65.07
						c-13.72-18.93-27.08-38.53-43.12-55.69c-6.2-6.64-13.28-11-21.65-14.78c-14.48-6.54-29.98-10.98-45.33-15.02
						c-16.11-4.23-32.36-7.84-48.56-11.73c-8.01-1.93-16-3.91-23.94-6.09c-3.66-1-7.3-2.04-10.93-3.14c-0.97-0.3-1.93-0.59-2.9-0.89
						c-3.13-0.96,1.72,0.61-0.2-0.06c-2-0.7-4.03-1.34-6.03-2.04c-6.6-2.32-13.11-4.92-19.36-8.04c-2.72-1.35-5.3-2.89-7.95-4.39
						c-2.44-1.38,2.25,1.63,0.02,0.01c-0.62-0.45-1.27-0.86-1.89-1.31c-1.21-0.87-2.4-1.78-3.54-2.72c-1.11-0.92-2.17-1.86-3.2-2.86
						c-0.33-0.32-0.64-0.67-0.99-0.98c-1.84-1.7,1.73,2.25,0.26,0.27c-1.07-1.45-2.19-3.5-3.47-4.73c2.47,2.37,1.5,3.22,0.97,1.74
						c-0.1-0.28-0.23-0.55-0.35-0.83c-0.32-0.78-0.57-1.58-0.82-2.39c-0.27-0.89-0.49-1.78-0.74-2.68c-0.74-2.73,0.44,2.11,0.25,1.1
						c-0.11-0.61-0.26-1.2-0.39-1.8c-0.57-2.75-1.03-5.51-1.45-8.28c-1.1-7.19-1.89-14.42-2.57-21.65
						c-1.86-19.83-2.86-39.72-3.52-59.61c-0.83-24.88-1.05-49.77-0.78-74.64c0.15-13.71,0.45-27.43,0.9-41.14
						c0.11-3.25,0.23-6.5,0.36-9.75c0.04-0.85,0.23-5.63,0.08-2.1c0.09-2.07,0.18-4.14,0.27-6.21c0.31-6.79,0.67-13.58,1.08-20.37
						c2.92-48.92,7.25-98.65,19.46-146.23c1.23-4.81,2.57-9.6,4.04-14.34c0.32-1.04,1.65-4.44,0.1-0.37
						c0.41-1.1,0.74-2.23,1.12-3.34c0.73-2.14,1.51-4.27,2.32-6.38c2.73-7.09,5.94-13.95,9.92-20.45c0.22-0.37,0.51-0.71,0.7-1.09
						c0.08-0.16-1.99,2.86-1.02,1.54c0.49-0.67,0.94-1.37,1.44-2.03c0.94-1.27,1.92-2.51,2.98-3.69c0.9-1.02,1.88-1.95,2.83-2.92
						c1.68-1.73-2.83,2.21-0.47,0.43c0.54-0.41,1.07-0.84,1.62-1.24c0.65-0.46,1.33-0.87,2.01-1.3c0.39-0.24,0.82-0.42,1.21-0.67
						c0.37-0.24-3.59,1.64-1.27,0.67c1.88-0.78,3.74-1.54,5.69-2.16c1.03-0.33,2.07-0.62,3.11-0.89c0.6-0.15,1.2-0.3,1.8-0.45
						c2.96-0.74-1.73,0.34-0.91,0.19c2.62-0.49,5.23-0.98,7.87-1.34c6.35-0.87,12.76-1.32,19.17-1.57
						c7.48-0.28,14.98-0.27,22.47-0.08c1.96,0.05,3.92,0.11,5.88,0.18c0.91,0.03,1.82,0.07,2.73,0.11c0.55,0.03,1.11,0.05,1.66,0.07
						c3.13,0.13-2.64-0.14-0.49-0.02c4.44,0.24,8.88,0.5,13.32,0.8c43.71,3.08,87.21,9.53,130.39,16.9
						c51.97,8.87,103.64,19.45,155.05,31.07c53.32,12.05,106.38,25.26,159.11,39.71c24.55,6.73,49.03,13.73,73.39,21.09
						c11.62,3.51,23.24,7.02,34.77,10.79c-3.09-1.01-0.26-0.08,1.15,0.37c1.41,0.46,2.83,0.91,4.24,1.37
						c2.79,0.9,5.58,1.81,8.37,2.73c5.19,1.71,10.39,3.45,15.57,5.2c33.18,11.27,66.66,23.09,97.94,38.93
						c5.28,2.67,10.49,5.49,15.51,8.6c0.47,0.29,0.94,0.61,1.41,0.89c-4.26-2.48-1.76-1.15-0.78-0.48c1.01,0.68,2.02,1.36,3,2.07
						c1.69,1.21,3.34,2.47,4.9,3.83c0.66,0.57,1.31,1.16,1.93,1.76c0.29,0.28,0.57,0.59,0.87,0.86c1.56,1.47-2.41-2.93-1.04-1.12
						c0.41,0.54,0.85,1.1,1.3,1.62c1.61,1.84-1.3-3.64-0.43-0.76c0.21,0.7,0.42,1.47,0.69,2.14c-1.39-3.48-0.42-2.13-0.11,0.04
						c0.33,2.26,0.48,4.54,0.53,6.82c0.03,1.28,0.03,2.57,0.02,3.86c-0.01,0.75-0.03,1.51-0.05,2.26c-0.07,3.23,0.17-3.06,0.02-0.44
						c-0.19,3.37-0.44,6.74-0.76,10.1c-0.82,8.34-1.99,16.64-3.33,24.92c-3.35,20.82-7.68,41.49-12.35,62.06
						c-11.52,50.79-25.24,101.11-40.15,151.02c-3.74,12.49-7.56,24.97-11.48,37.4c-1.9,6.02-3.83,12.02-5.77,18.03
						c-0.22,0.68-1.11,3.41,0,0.02c-0.21,0.64-0.41,1.28-0.63,1.91c-0.46,1.4-0.91,2.79-1.37,4.19c-0.99,3-1.99,5.99-2.99,8.99
						c-6.87,20.49-14.03,40.9-21.92,61.02c-5.58,14.23-11.35,28.57-18.75,42c-1.21,2.19-2.62,4.25-3.84,6.43
						c2.45-4.41,0.75-1.13-0.12,0.04c-0.56,0.74-1.15,1.43-1.74,2.13c-0.23,0.28-0.53,0.51-0.76,0.81
						c-1.15,1.48,2.99-1.94,1.12-0.99c-0.48,0.25-1.14,0.66-1.56,1c-0.76,0.61-2.29-0.55,1.88-0.95c-0.41,0.04-0.91,0.43-1.31,0.56
						c-1.41,0.47-2.82,0.87-4.25,1.28c-1.9,0.54,3.33-0.55,1.33-0.3c-0.47,0.06-0.94,0.17-1.41,0.25c-0.99,0.16-2,0.31-3,0.43
						c-4.54,0.55-9.12,0.7-13.69,0.73c-2.55,0.01-5.1-0.03-7.65-0.12c-0.99-0.03-6.09-0.08-1.91-0.06c-1.54-0.01-3.1-0.17-4.64-0.27
						c-13.6-0.89-27.15-2.49-40.65-4.35c-30.19-4.16-60.21-9.68-90.11-15.62c-22.68-4.5-45.28-9.35-67.89-14.22
						c-6.48-1.4-13.08,3.4-14.21,9.64C909.36,739.81,913.99,745.82,920.49,747.22L920.49,747.22z"/>
				</g>
			</g>
		</g>
		<g id="Ebene_5_1_">
			<g>
				<g>
					<path class="st17" d="M677.5,435.6c28.76,56.41,57.52,112.81,86.28,169.21c4.18,8.2,9.08,13.96,18.21,16.88
						c8.09,2.58,18.11,2.17,25.03-3.31c44.06-34.88,88.12-69.77,132.19-104.65c44.06-34.88,88.12-69.77,132.19-104.65
						c24.88-19.69,49.75-39.39,74.63-59.08c5.96-4.72,10.4-10.39,11.77-18.01c1.22-6.76-0.39-15.39-4.73-20.99
						c-8.85-11.4-27.46-17-39.84-7.19c-44.06,34.88-88.12,69.77-132.19,104.65c-44.06,34.88-88.12,69.77-132.19,104.65
						c-24.88,19.69-49.75,39.39-74.63,59.08c14.41,4.52,28.83,9.05,43.24,13.57c-28.76-56.41-57.52-112.81-86.28-169.21
						c-3.46-6.79-7.31-12.28-14.55-15.71c-6.42-3.04-15.54-3.84-22.21-1.14c-6.7,2.71-13.01,7.4-15.92,14.14
						C675.71,420.33,674.12,428.98,677.5,435.6L677.5,435.6z"/>
				</g>
			</g>
		</g>
		<g id="Ebene_9_1_">
			<g class="st18">
				<path d="M510.53,104.2c-39.97,221.36,164.16,528.27,311.46,692.7c-22.22,1.71-43.59-32.32-83.69-77.1
					c-56.69-63.27-37.13-66.22-71.23-87.23c-28.33-17.45-66.15-20.93-98.79-27.88c-30.08-6.4-66.97-18.46-83.64-36.9
					c-22-24.32-22.46-282.63,10.64-435.34"/>
				<g>
					<path d="M502.48,102.75c-8.22,45.96-6.07,93.37,2.07,139.3c9.02,50.93,24.98,100.59,44.73,148.53
						c20.95,50.86,46.22,100.01,74.05,147.61c27.45,46.95,57.54,92.43,89.67,136.44c28.81,39.46,59.27,77.82,91.52,114.65
						c3.56,4.07,7.15,8.11,10.76,12.14c1.98-4.17,3.95-8.35,5.93-12.52c-0.6,0.04-1.19,0.05-1.78,0.06
						c2.21-0.05,0.33,0.04-0.18-0.05c-1-0.16-1.99-0.33-2.97-0.56c-2.27-0.52,0.69,0.44-1.5-0.52c-1.23-0.54-2.45-1.09-3.63-1.74
						c-0.62-0.34-1.23-0.7-1.84-1.06c1.35,0.82-0.06-0.04-0.38-0.26c-1.17-0.83-2.33-1.66-3.46-2.54c-2.5-1.96-4.86-4.09-7.16-6.29
						c-12.19-11.66-22.65-25.06-33.52-37.87c-21.27-25.08-44.35-48.79-60.98-77.24c-3.31-5.67-6.32-11.61-10.44-16.79
						c-5.16-6.48-11.57-11.49-18.53-15.98c-34.32-22.17-75.94-24.01-114.71-33.43c-17.68-4.3-35.33-9.93-51.32-18.65
						c-6.57-3.59-12.67-7.85-17.88-13.19c-0.77-0.79,0.6,1.07-0.27-0.37c-0.2-0.33-0.44-0.66-0.66-0.97c-0.73-1-0.22-1.52,0.2,0.46
						c-0.11-0.51-0.54-1.08-0.76-1.57c-1.08-2.4-1.88-4.92-2.59-7.45c-0.23-0.82-0.45-1.65-0.66-2.48
						c-0.15-0.62-0.71-3.17-0.17-0.63c-0.38-1.78-0.77-3.56-1.11-5.34c-1.7-8.9-2.82-17.91-3.73-26.91
						c-5.61-55.55-4.74-111.94-2.41-167.58c2.74-65.28,8.33-130.85,20.33-195.11c1.31-7,2.71-13.98,4.22-20.95
						c2.18-10.08-13.92-12.97-16.1-2.91c-13.77,63.8-19.95,129.33-23.49,194.44c-3.26,59.85-4.64,120.28,0,180.16
						c1.39,17.97,2.94,36.5,8.12,53.9c1.8,6.04,4.36,11.21,8.84,15.78c11.98,12.27,29.01,19.87,44.99,25.65
						c18.65,6.75,37.91,11.21,57.4,14.81c20.01,3.71,40.49,6.84,59.63,14.01c4.7,1.76,9.32,3.76,13.78,6.05
						c2.01,1.03,3.98,2.13,5.92,3.28c0.82,0.49,1.62,0.99,2.42,1.49c1.41,0.88-0.82-0.56,0.89,0.58c3.56,2.37,7.05,4.85,10.22,7.72
						c0.58,0.53,1.15,1.06,1.7,1.61c0.75,0.75,1.72,1.93,0.43,0.39c1.08,1.29,2.18,2.55,3.17,3.92c1.87,2.56,3.5,5.28,5.09,8.02
						c4.84,8.35,9.72,16.62,15.29,24.54c10.68,15.16,23,29,35.25,42.94c13.17,14.98,25.61,30.58,39,45.39
						c8.81,9.75,18.39,20.49,30.69,26.08c5.11,2.32,10.6,3.48,16.22,3.13c5.67-0.35,10.07-7.9,5.93-12.52
						c-31.73-35.44-61.72-72.38-90.15-110.4c-32.03-42.81-62.11-87.04-89.78-132.66c-28.2-46.46-53.89-94.46-75.64-144.13
						c-20.62-47.08-38.04-95.88-48.7-146.05c-9.57-45.08-14.03-91.81-8.31-137.25c0.68-5.41,1.51-10.8,2.47-16.16
						C520.39,95.52,504.3,92.59,502.48,102.75L502.48,102.75z"/>
				</g>
			</g>
		</g>
	</g>
</g>
<g id="Ebene_14">
</g>
</svg>
