<?xml version="1.0" encoding="utf-8"?>
<!-- Generator: Adobe Adobe Illustrator 24.2.0, SVG Export Plug-In . SVG Version: 6.00 Build 0)  -->
<svg version="1.1" xmlns="http://www.w3.org/2000/svg" xmlns:xlink="http://www.w3.org/1999/xlink" x="0px" y="0px"
	 viewBox="0 0 1700.79 1700.79" style="enable-background:new 0 0 1700.79 1700.79;" xml:space="preserve">
<style type="text/css">
	.st0{fill:#D2E1EC;}
	.st1{fill:#3D4C5B;}
	.st2{fill:#3D4D5B;}
	.st3{fill:#F3C159;}
	.st4{fill:#F3C157;}
	.st5{fill:#C9316B;stroke:#C9316B;stroke-miterlimit:10;}
	.st6{fill:#C7354F;}
	.st7{fill:#C9354F;}
	.st8{display:none;}
	.st9{display:inline;opacity:0.149;}
	.st10{stroke:#000000;stroke-width:0.7786;stroke-miterlimit:10;}
	.st11{stroke:#000000;stroke-width:0.7753;stroke-miterlimit:10;}
	.st12{fill:#FFFFFF;stroke:#FFFFFF;stroke-width:0.2337;stroke-miterlimit:10;}
	.st13{fill:#FFFFFF;stroke:#FFFFFF;stroke-width:0.2295;stroke-miterlimit:10;}
	.st14{opacity:0.149;}
	.st15{fill:#D15238;}
	.st16{fill:#D15239;}
	.st17{fill:#FFFFFF;}
</style>
<g id="Ebene_5">
	<g>
		<path class="st0" d="M716.12,1232.3c14.17,47.81,45.79,88.91,85.78,111.52c-6.72,67.94-0.81,137.61,17.22,203.21
			c-2.85,15.32-21.21,20.7-34.02,14.41c-12.81-6.29-21.38-19.9-30.11-32.24c-29.47-41.64-68.01-75.08-111.18-96.49
			c6.88-55.07-1.53-112.65-23.75-162.7c32.95-3.48,65.09-15.35,93.35-34.48"/>
		<g>
			<path class="st0" d="M709.14,1234.22c14.36,47.73,45.49,90.91,89.11,115.84c-1.2-2.08-2.39-4.17-3.59-6.25
				c-6.67,68.71-0.7,138.54,17.48,205.14c0-1.28,0-2.57,0-3.85c-2.27,10.42-14.13,14.19-23.38,10.08
				c-13.1-5.82-21.01-20.62-29-31.72c-18.82-26.14-41.23-49.33-66.9-68.8c-14.23-10.79-29.43-20.23-45.4-28.22
				c1.2,2.08,2.39,4.17,3.59,6.25c6.88-56.48-1.82-114.31-24.74-166.35c-2.08,3.63-4.17,7.26-6.25,10.9
				c34.79-3.83,67.93-15.96,97-35.47c7.7-5.17,0.46-17.72-7.31-12.51c-26.83,18-57.49,29.95-89.69,33.49
				c-5.78,0.64-8.59,5.59-6.25,10.9c21.88,49.69,29.32,105.25,22.76,159.04c-0.28,2.33,1.55,5.24,3.59,6.25
				c25.81,12.89,49.44,29.63,70.28,49.57c10.69,10.23,20.66,21.24,29.8,32.88c8.63,11,15.78,23.24,25.19,33.61
				c8.33,9.18,19.47,16.82,32.37,16.2c11.56-0.55,22.49-6.79,26.92-17.79c2.99-7.43-0.36-14.66-2.19-22.06
				c-2.05-8.28-3.9-16.6-5.56-24.96c-3.27-16.44-5.79-33.03-7.51-49.71c-3.88-37.51-3.96-75.36-0.31-112.89
				c0.24-2.45-1.54-5.08-3.59-6.25c-40.39-23.09-69.16-62.99-82.46-107.19C720.43,1221.47,706.44,1225.26,709.14,1234.22
				L709.14,1234.22z"/>
		</g>
	</g>
</g>
<g id="Ebene_7">
	<g>
		<path class="st1" d="M752.96,1432.06c0.39-13.78,13.2-34.83,6-46.07c-7.2-11.24-37.41-8.44-43.55,3.4
			c-5.79,11.19,2.71,25.48,12.57,32.39c9.86,6.91,21.86,10.85,29.02,21.17"/>
		<g>
			<path class="st2" d="M760.21,1432.06c0.67-13.06,8.56-24.85,8.17-38.17c-0.36-12.62-9.42-20.05-21.33-21.73
				c-11.04-1.55-23.94,0.37-32.79,7.6c-11.09,9.06-9.18,25.26-1.86,36.09c4.74,7.03,11.06,11.96,18.31,16.2
				c7.06,4.13,15.08,7.77,20.05,14.56c2.33,3.18,6.26,4.67,9.91,2.6c3.13-1.78,4.9-6.76,2.6-9.91c-5.02-6.86-11.38-11.74-18.69-16
				c-6.2-3.62-12.89-6.74-17.7-12.22c-3.81-4.35-7.72-11.27-5.53-17.23c1.3-3.56,5.75-5.4,9.64-6.47c6.88-1.89,21.73-3.16,22.9,5.59
				c0.78,5.88-1.79,12.44-3.46,17.96c-2.1,6.93-4.32,13.84-4.7,21.13C745.24,1441.37,759.73,1441.35,760.21,1432.06L760.21,1432.06z
				"/>
		</g>
	</g>
</g>
<g id="Ebene_8">
	<g>
		<g>
			<path d="M420.16,507.06c9.65,0,9.67-15,0-15C410.51,492.06,410.49,507.06,420.16,507.06L420.16,507.06z"/>
		</g>
	</g>
	<g>
		<path class="st3" d="M628.92,966.08c-24.54,24.54-50.91,37.78-78.76,53.76c-15.65,8.98-37.54,14.31-54.02,6.96
			c-12.4-5.53-20.67-18.77-27.69-31.58c-108.3-197.45-188.51-359.87-253.5-614.28c-10.26-40.16-8.59-84.39,3.57-123.55
			s42.56-73.38,79.4-75.61c28.2-1.7,55.49,15.36,75.01,38.68c19.53,23.32,32.52,52.46,44.8,81.34
			c89.09,209.41,157.45,423.67,218.48,662.83"/>
		<g>
			<path class="st4" d="M623.8,960.96c-22.78,22.57-51.2,38.67-79.29,53.73c-12.22,6.56-27.78,10.84-41.49,6.91
				c-13.98-4-21.76-18.16-28.32-30.04c-28.4-51.52-56.15-103.44-82.48-156.06c-25.42-50.8-49.4-102.35-71.11-154.85
				c-23.2-56.11-43.88-113.25-62.13-171.16c-10.03-31.83-19.35-63.89-28.04-96.11c-4.48-16.62-9.46-33.31-12.43-50.28
				c-2.92-16.69-3.66-33.79-2.67-50.7c1.8-30.83,9.04-62.96,27.15-88.49c15-21.15,38.71-37.6,65.62-34.67
				c30.54,3.33,54.91,27.79,70.85,52.25c18.18,27.89,30.29,59.52,43.01,90.13c25.76,61.94,49.83,124.58,72.33,187.78
				c22.72,63.82,43.85,128.2,63.62,192.99c20.52,67.27,39.59,134.99,57.52,203c4.49,17.03,8.91,34.08,13.27,51.14
				c2.3,9.02,16.28,5.2,13.97-3.85c-18.2-71.26-37.52-142.24-58.37-212.78c-19.99-67.61-41.38-134.8-64.47-201.42
				c-22.77-65.69-47.19-130.81-73.41-195.21c-12.95-31.79-25.43-64.17-41.04-94.77c-14.85-29.13-34.8-57.65-64.29-73.42
				c-26.41-14.13-57.04-14.15-82.2,2.7c-24.57,16.45-40.73,43.1-48.92,71.08c-9.89,33.78-12.01,69.76-6.54,104.5
				c2.82,17.92,8.08,35.47,12.79,52.97c4.54,16.86,9.25,33.68,14.15,50.45c18.01,61.68,38.58,122.6,62.04,182.43
				c21.77,55.53,45.98,110.07,72.04,163.71c26.34,54.2,54.49,107.5,83.28,160.44c13.77,25.32,26.81,60.15,59.54,63.8
				c15.6,1.74,31.82-3.17,45.35-10.7c14.14-7.87,28.36-15.76,41.98-24.49c13.96-8.95,27.12-19.1,38.9-30.77
				C640.67,964.64,630.43,954.39,623.8,960.96L623.8,960.96z"/>
		</g>
	</g>
	<g>
		<g>
			<path d="M475.49,897.29c3.97,22.54,25.14,39.26,47.54,40.74c22.76,1.51,41.87-15.18,47.92-36.4c3.44-12.05,2.45-24.86-3.27-36.03
				c-2.93-5.73-11.56-0.68-8.63,5.05c10.15,19.83-0.36,47.77-21.49,55.45c-22.4,8.14-48.4-8.6-52.42-31.46
				C484.02,888.31,474.38,890.99,475.49,897.29L475.49,897.29z"/>
		</g>
	</g>
</g>
<g id="Ebene_12">
</g>
<g id="Ebene_13">
	
		<ellipse transform="matrix(0.915 -0.4034 0.4034 0.915 -312.8689 258.1279)" class="st5" cx="456.32" cy="871.77" rx="17" ry="8.5"/>
	
		<ellipse transform="matrix(0.915 -0.4034 0.4034 0.915 -285.3582 297.7175)" class="st5" cx="564.06" cy="826.26" rx="17" ry="8.5"/>
</g>
<g id="Ebene_9">
	<g>
		<path class="st6" d="M638.87,974.34c17.93,72.36,48.55,136.07,66.48,208.43c1.67,6.74,7.84,21.65,6.74,28.5
			c-2.33,14.5-32.87,23.36-44.74,29.41c-14.27,7.27-37.22,26.46-51.88,19.83c-11.22-5.07-28.69-39.76-28.69-39.76
			c-34.57-59.45-58.98-119.55-93.55-179.01c55.42,0,100.33-40.61,145.99-71.21"/>
		<g>
			<path class="st7" d="M631.89,976.26c11.52,46.16,28.73,90.52,44.26,135.41c7.7,22.26,14.95,44.7,20.83,67.52
				c2.1,8.15,5.04,16.06,7.04,24.23c1.56,6.37,1.05,9.21-4.38,13.46c-11.18,8.75-25.62,11.86-37.9,18.59
				c-7.69,4.21-14.87,9.28-22.59,13.43c-5.52,2.96-13.79,7.61-20.26,5.2c-3.36-1.25-7.38-6.69-10.13-10.56
				c-4.05-5.7-7.66-11.7-11.08-17.8c-7.62-13.59-15.24-27.2-22.53-40.97c-25.73-48.64-48.04-99.04-75.66-146.68
				c-2.08,3.63-4.17,7.26-6.25,10.9c58.36-0.41,103.87-41.42,149.64-72.2c7.69-5.17,0.45-17.73-7.31-12.51
				c-43.21,29.06-87.17,69.84-142.33,70.22c-5.49,0.04-9.02,6.12-6.25,10.9c26.01,44.86,47.32,92.17,71.19,138.15
				c8.26,15.92,17.11,31.51,25.74,47.22c6.56,11.95,14.09,26.61,25.54,34.56c14.85,10.32,34.55-2.12,47.42-10.03
				c6.51-4.01,12.9-8.03,19.96-11.03c7.5-3.2,15.13-6.14,22.32-10.02c6.63-3.58,13.63-8.17,17.52-14.83
				c4.38-7.5,2.57-15.84,0.28-23.72c-6.14-21.14-11.83-42.43-18.6-63.38c-17.26-53.4-38.88-105.36-52.48-159.91
				C643.6,963.37,629.63,967.2,631.89,976.26L631.89,976.26z"/>
		</g>
	</g>
</g>
<g id="Ebene_4">
	<g>
		<g>
			<path d="M807.38,1334.1c-31.44-13.91-50.91-43.4-64.93-73.6c-13.61-29.31-22.53-60.59-31.76-91.48
				c-16.48-55.15-31.93-110.61-47.24-166.1c-16.81-60.94-33.4-121.95-50.38-182.85c-17.1-61.33-34.57-122.57-53.12-183.48
				c-17.41-57.19-35.73-114.13-56.1-170.34c-17.61-48.61-36.67-96.86-59.32-143.36c-17.42-35.75-37-71.24-62.71-101.78
				c-17.38-20.64-39.87-41.22-67.23-46.6c-26.06-5.12-51.32,5.26-70.68,22.55c-19.03,17.01-30.46,40.87-36.2,65.43
				c-7.04,30.14-6.85,61.71-3.86,92.35c3.75,38.38,11.85,76.27,21.89,113.46c11.6,42.98,25.89,85.22,41.54,126.88
				c17.1,45.53,35.9,90.41,55.69,134.83c20.19,45.32,41.47,90.15,63.48,134.61c21.27,42.96,43.23,85.57,65.7,127.91
				c20.38,38.4,41.17,76.58,62.27,114.58c17.3,31.16,34.81,62.19,52.41,93.18c12.34,21.73,24.78,43.4,36.93,65.23
				c3.66,6.58,7.32,13.17,10.79,19.86c1.11,2.15,2.18,4.31,3.22,6.49c0.18,0.38,0.34,0.78,0.53,1.16c0.56,1.17-0.72-2.13-0.22-0.51
				c1.54,4.9,3.25,9.73,4.65,14.67c11.43,40.15,11.59,81.68,4.83,122.66c-1.51,9.12,12.45,13.04,13.97,3.85
				c6.89-41.74,7.42-83.96-3.39-125.11c-2.68-10.19-5.65-19.92-10.43-29.25c-8.13-15.9-17.15-31.36-25.96-46.89
				c-14.82-26.14-29.72-52.25-44.48-78.43c-19.2-34.04-38.21-68.19-56.93-102.49c-21.79-39.93-43.19-80.07-64.07-120.49
				c-22.4-43.36-44.21-87.03-65.18-131.1c-21.06-44.27-41.33-88.93-60.24-134.16c-17.99-43.03-34.84-86.56-49.67-130.78
				c-13.31-39.68-25.09-79.98-33.57-120.99c-6.98-33.78-11.83-67.87-11.13-102.52c0.3-14.95,1.48-27.89,4.44-41.78
				c1.36-6.39,3.07-12.71,5.2-18.89c2.23-6.48,3.53-9.63,6.78-15.86c5.82-11.16,11.22-18.49,20.36-26.86
				c8.03-7.36,19.37-14.5,29.79-17.79c10.5-3.32,20.64-3.62,30.54-1.22c11.29,2.74,21.61,8.45,31.12,15.76
				c25.78,19.82,45.5,49.44,62.08,77.81c23.53,40.25,42.54,83.11,59.86,126.33c21.1,52.66,39.63,106.33,57.06,160.31
				c19.08,59.1,36.76,118.64,53.86,178.34c17.5,61.09,34.35,122.36,51.17,183.64c15.92,58,31.77,116.03,48.26,173.87
				c7.5,26.32,15.14,52.6,23.05,78.79c9.71,32.17,19.63,64.59,35.13,94.54c14.58,28.18,35.19,54.94,64.89,68.09
				C808.52,1350.34,815.9,1337.86,807.38,1334.1L807.38,1334.1z"/>
		</g>
	</g>
	<g>
		<g>
			<path d="M796.49,1340.35c-7.36,56.54-4.31,115.08,7.68,170.77c3.33,15.44,7.48,30.69,12.62,45.63c1.11-2.73,2.22-5.45,3.33-8.18
				c-13.6,6.52-25.93,15.29-39.54,21.8c3.3,0.87,6.61,1.73,9.91,2.6c-22.39-52.45-62.87-94.34-110.66-124.6
				c-13.39-8.47-27.33-16.03-41.63-22.85c-8.37-3.99-15.73,8.49-7.31,12.51c48.49,23.13,93.69,55.65,124.27,100.48
				c8.97,13.14,16.57,27.14,22.82,41.77c1.62,3.8,6.75,4.11,9.91,2.6c13.6-6.52,25.93-15.29,39.54-21.8c2.71-1.3,4.3-5.35,3.33-8.18
				c-23.12-67.23-28.94-142.22-19.78-212.55c0.51-3.91-3.69-7.2-7.24-7.24C799.4,1333.06,796.99,1336.49,796.49,1340.35
				L796.49,1340.35z"/>
		</g>
	</g>
	<g>
		<g>
			<path d="M807.57,1556.27c-11.3-29.18-22.76-58.35-32.92-87.95c-1.74-5.08-3.52-10.19-4.87-15.4c-0.17-0.66-0.32-1.32-0.48-1.98
				c-0.1-0.42-0.38-2.3-0.19-0.81c0.17,1.38-0.04-1.87-0.04-2.59c0-1.66,0.07-3.32,0.14-4.98c0.86-19.21,3.59-40.57-3.44-58.99
				c-3.46-9.05-9.72-16.98-19.61-19.18c-13.13-2.92-28.62,3.75-38.42,12.12c-14.05,12.01-11.26,30.17-1.81,44.07
				c12.75,18.75,32.06,32.87,50.66,45.33c7.77,5.2,15.02-7.34,7.31-12.51c-15.52-10.39-31.35-21.96-43-36.75
				c-6.62-8.41-13.36-20.44-3.81-29.12c4.75-4.32,11.3-7.14,17.5-8.65c3.84-0.93,6.87-1.07,10.22,0.17
				c-1.33-0.49,0.66,0.35,1.09,0.6c1.67,1,0.09-0.2,1.25,0.86c1.95,1.79,1.57,1.26,2.68,3.13c1.07,1.79,1.77,3.23,2.1,4.1
				c0.78,2.09,1.39,4.23,1.89,6.41c3.63,15.85,1.27,34.17,0.81,51.18c-0.24,8.91,2.72,17,5.55,25.34
				c10.24,30.12,21.94,59.78,33.43,89.44C796.93,1568.72,810.94,1564.99,807.57,1556.27L807.57,1556.27z"/>
		</g>
	</g>
	<g>
		<g>
			<path d="M709.77,1207.48c-19.89,29.33-58.78,49.03-94.3,45.79c-9.28-0.85-9.22,13.64,0,14.48c40.67,3.71,84.22-19.64,106.8-52.96
				C727.52,1207.05,714.97,1199.79,709.77,1207.48L709.77,1207.48z"/>
		</g>
	</g>
	<g>
		<g>
			<path d="M638.56,952.69c-41.57,38.9-96.98,75.27-156.12,73.8c-9.32-0.23-9.32,14.25,0,14.48c63,1.57,122.02-36.55,166.36-78.04
				C655.62,956.55,645.36,946.32,638.56,952.69L638.56,952.69z"/>
		</g>
	</g>
</g>
<g id="Ebene_10" class="st8">
	<g class="st9">
		<path d="M615.1,1267.3c34.87,0.88,69.7-13.84,95.26-40.26"/>
		<g>
			<path d="M615.1,1274.54c37.83,0.7,74.06-15.51,100.38-42.38c6.53-6.66-3.71-16.92-10.24-10.24
				c-23.75,24.26-55.99,38.77-90.14,38.14C605.78,1259.88,605.78,1274.37,615.1,1274.54L615.1,1274.54z"/>
		</g>
	</g>
	<g class="st9">
		<path d="M254.66,210.5C232.62,523.75,484.7,1002.04,654.7,1247.55c-5.85,11.05-29.49,19.93-39.23,12.95
			c-9.74-6.98-157.4-272.96-236.93-445.3c-63.01-136.53-151.26-270.01-161.69-422.86c-4.01-58.83,8.5-151.04,37.67-191.78"/>
		<g>
			<path d="M247.42,210.5c-4.64,67.1,2.97,134.71,15.89,200.53c14.7,74.89,36.78,148.26,62.67,220
				c27.34,75.74,59.1,149.87,93.79,222.52c33.55,70.28,69.92,139.22,108.73,206.73c33.81,58.8,69.44,116.58,107.48,172.74
				c4.12,6.08,8.27,12.15,12.46,18.19c0-2.44,0-4.87,0-7.31c-3.91,6.79-13.39,10.77-20.86,11.7c-3.44,0.43-5.46-0.34-8.46-1.35
				c0.12,0.04,2.04,1.45,0.98,0.69c-0.23-0.16-0.35-0.53-0.58-0.66c-1.18-0.65,0.89,1.22,0.42,0.56c-0.25-0.35-0.52-0.68-0.76-1.03
				c-0.68-0.98-1.37-1.96-2.03-2.95c-1.73-2.6-3.39-5.24-5.04-7.9c-11.99-19.33-23.17-39.18-34.33-58.99
				c-37.04-65.71-72.67-132.24-107.37-199.21c-19.23-37.11-38.13-74.4-56.47-111.96c-18.95-38.81-36.7-78.19-55.99-116.83
				c-44.46-89.04-93.7-177.25-118.89-274.22c-11.53-44.38-17.54-89.9-15.03-135.76c1.19-21.62,3.81-43.18,8.1-64.41
				c3.87-19.19,8.88-38.57,16.94-56.47c3.29-7.29,7.09-14.33,11.71-20.87c5.39-7.63-7.16-14.87-12.51-7.31
				c-10.81,15.3-17.6,33.41-22.87,51.27c-6.19,20.97-10.11,42.56-12.83,64.24c-5.69,45.28-4.2,90.3,4.06,135.19
				c18.75,101.84,67.62,194.79,113.98,286.25c20.91,41.25,40.41,83.11,60.42,124.79C409.46,897,428.55,935.02,448,972.86
				c36.25,70.55,73.63,140.55,112.41,209.74c12.14,21.67,24.33,43.34,37.28,64.54c3.06,5.01,6.1,10.09,9.6,14.82
				c7.41,10,20.91,9.56,31.81,5.59c8.58-3.12,17.18-8.22,21.85-16.34c1.22-2.12,1.45-5.21,0-7.31
				c-37.48-54.16-72.56-109.97-105.9-166.76c-38.87-66.21-75.33-133.84-109.15-202.76c-35.18-71.69-67.55-144.82-95.74-219.55
				c-27.04-71.69-50.45-144.96-67.06-219.81c-14.65-66.03-24.22-133.77-22.32-201.54c0.21-7.67,0.59-15.33,1.12-22.98
				C262.55,201.2,248.06,201.24,247.42,210.5L247.42,210.5z"/>
		</g>
	</g>
	<g class="st9">
		<path d="M638.11,1404.95c56.51,32.38,132.11,94.43,168.52,153.04c-3.15,2.59-19.24,16.06-22.39,18.64
			c-38.65-79.04-77.61-120.92-144.83-150.44"/>
		<g>
			<path d="M634.45,1411.2c51.03,29.36,98.54,67.93,137.27,112.29c10.48,12.01,20.2,24.63,28.65,38.15
				c0.38-2.93,0.75-5.85,1.13-8.78c-7.5,6.17-14.89,12.47-22.39,18.64c3.79,0.49,7.58,0.98,11.37,1.47
				c-25.22-51.41-57.36-99.37-106.13-131.02c-13.11-8.51-27-15.7-41.29-22.01c-3.6-1.59-7.74-1.02-9.91,2.6
				c-1.83,3.06-0.97,8.33,2.6,9.91c23.75,10.49,46.45,23.55,66.1,40.64c19.99,17.39,36.5,38.15,50.53,60.55
				c9.42,15.04,17.79,30.71,25.61,46.64c2.23,4.55,8.06,4.2,11.37,1.47c7.5-6.17,14.89-12.47,22.39-18.64
				c2.39-1.96,2.71-6.25,1.13-8.78c-15.97-25.53-36.2-48.34-57.76-69.26c-22.69-22.02-47.27-42.17-73.07-60.45
				c-13.03-9.24-26.44-17.95-40.28-25.92C633.67,1394.04,626.37,1406.55,634.45,1411.2L634.45,1411.2z"/>
		</g>
	</g>
	<g class="st9">
		<path d="M728.22,1379.09c16.12,18.5,27.23,42.48,31.45,67.88c0.85-15.4,1.67-31.13-1.95-46.07c-3.62-14.94-2.9-14.5-15.92-19.44"
			/>
		<g>
			<path d="M723.1,1384.22c15.76,18.34,25.5,40.96,29.59,64.69c1.45,8.41,13.8,5.82,14.22-1.93c0.99-18.1,0.97-35.51-3.47-53.2
				c-1.12-4.44-2.45-9.08-5.87-12.35c-3.75-3.59-9.11-5.15-13.85-6.94c-8.72-3.31-12.49,10.68-3.85,13.97
				c1.91,0.73,3.89,1.38,5.73,2.29c0.66,0.33,1.27,0.77,1.93,1.08c0.09,0.04,0.09,0.07,0.05,0.02c-0.78-0.76,0.89,1.81,0.31,0.41
				c0.32,0.77,0.55,1.58,0.79,2.37c0.67,2.22,1.17,4.51,1.71,6.77c3.59,15.02,2.88,30.29,2.04,45.59c4.74-0.64,9.48-1.28,14.22-1.93
				c-4.52-26.24-15.95-50.87-33.31-71.08C727.25,1366.89,717.05,1377.18,723.1,1384.22L723.1,1384.22z"/>
		</g>
	</g>
</g>
<g id="Ebene_11">
	
		<ellipse transform="matrix(0.9062 -0.4229 0.4229 0.9062 -306.741 273.2854)" class="st10" cx="462.51" cy="827.92" rx="24.71" ry="26.95"/>
	
		<ellipse transform="matrix(0.9062 -0.4229 0.4229 0.9062 -291.4148 293.2385)" class="st11" cx="515.14" cy="803.36" rx="24.5" ry="26.95"/>
	
		<ellipse transform="matrix(0.9062 -0.4229 0.4229 0.9062 -300.3901 274.7817)" class="st12" cx="469.06" cy="814.35" rx="7.5" ry="8"/>
	
		<ellipse transform="matrix(0.9062 -0.4229 0.4229 0.9062 -300.3901 274.7817)" class="st12" cx="469.06" cy="814.35" rx="7.5" ry="8"/>
	
		<ellipse transform="matrix(0.9062 -0.4229 0.4229 0.9062 -285.8672 293.6891)" class="st12" cx="518.93" cy="791.08" rx="7.5" ry="8"/>
	
		<ellipse transform="matrix(0.9062 -0.4229 0.4229 0.9062 -306.7409 273.2853)" class="st13" cx="462.51" cy="827.92" rx="2.26" ry="2.64"/>
	
		<ellipse transform="matrix(0.9062 -0.4229 0.4229 0.9062 -291.5594 293.3495)" class="st13" cx="515.32" cy="803.74" rx="2.26" ry="2.64"/>
</g>
<g id="Ebene_15">
</g>
<g id="Ebene_16">
</g>
<g id="Ebene_17">
	<g>
		<g id="Ebene_2_Kopie">
			<g class="st14">
				<path d="M680.55,839.38c30.15,10.02,49.98,35.63,46.9,60.55c-3.08,24.92-28.85,47.27-60.93,52.83
					c-32.08,5.57-68.03-6.07-85-27.52c-16.98-21.45-13.68-51.07,7.78-70.04c21.46-18.98,59.47-25.86,89.86-16.28"/>
				<g>
					<path d="M677.89,842.88c28.31,9.59,47.53,32.66,45.95,56.33c-1.49,22.38-23.66,42.51-51.56,48.94
						c-29.42,6.79-63.34-2-82.27-20.24c-19.05-18.35-20.61-45.47-4.13-65.16c18.54-22.14,59.38-29.96,90.62-20.31
						c4.13,1.28,9.18-5.8,5.31-7c-31.6-9.76-69.25-2.91-92.44,15.95c-23.69,19.27-29.34,49.98-13.66,73.47
						c15.29,22.91,50.83,35.92,83.92,32.39c33.78-3.61,61.52-25.02,69.67-49.75c9.34-28.33-11.12-59.76-46.1-71.61
						C679.15,834.5,674.03,841.57,677.89,842.88L677.89,842.88z"/>
				</g>
			</g>
			<g class="st14">
				<path d="M557.18,377.01c2.55-23.19,9.89-46.66,27.21-65.83c17.33-19.17,45.93-33.45,76.5-33.3c44.33,0.22,81,31.32,87.83,64.65
					c6.83,33.33-10.4,67.13-34.96,95.2c-24.56,28.07-56.36,52.02-83.6,78.62c-44.38,43.35-76.88,94.85-84.48,149.49
					c-4.99,35.9,2.04,74.72,32.31,102.52c30.27,27.81,88.08,39.78,127.1,19.24c24.76-13.03,37.56-35.95,42.37-58.56
					c4.81-22.61,2.87-45.71,4.8-68.57c3.99-47.15,24.87-93.4,59.79-132.46c43.25-48.37,107.95-86.65,134.47-141.56
					c28.08-58.13,5.43-126.67-48.5-173.05c-53.93-46.38-135.29-71.47-216.56-74.74c-89.32-3.59-181.17,18.71-247.11,64.7
					s-103.5,115.93-92.67,183.49c4.27,26.63,16.62,53.65,42.5,71.87c34.08,24,89.88,27.74,128.95,8.66s36.84-51.99,43.92-89.58"/>
				<g>
					<path d="M561,375.4c2.34-20.62,8.48-41.54,22.96-59.3c12.98-15.92,33.77-28.71,57.99-33.02c47.76-8.5,90.25,21.51,101.27,55.09
						c13.77,41.95-16.28,84-49.11,116.01c-17.77,17.33-37.41,33.48-55.75,50.44c-17.48,16.16-33.47,33.25-47.21,51.41
						c-26.85,35.51-45.42,75.08-49.89,116.07c-4.01,36.78,4.8,79.27,41.46,105.89c30.76,22.33,81.56,32.42,119.49,14.42
						c20.78-9.86,34.55-26.26,42.31-43.63c9.14-20.49,9.95-42.24,10.45-63.67c0.51-22.07,2.22-43.78,8.5-65.4
						c5.97-20.53,15.2-40.59,27.5-59.44c11.96-18.33,26.84-35.26,43.62-51.22c15.87-15.1,32.96-29.41,49.42-44.13
						c32.28-28.85,62.4-60.25,73.45-97.9c10.7-36.44,3.78-75.3-16.18-109.21c-20.63-35.03-54.91-63.99-97.28-84.65
						c-42.78-20.86-92.59-33.18-143.01-37.17c-51.14-4.05-103.6,0.45-152.26,13.1c-48.48,12.61-93.25,33.33-128.89,61.45
						c-35.16,27.74-60.78,62.36-74.07,99.53c-12.98,36.28-14.63,77.3,2.61,112.97c8.44,17.46,22.12,33.78,42.16,44.78
						c18.47,10.15,41.52,15.38,64.23,15.39c22.76,0.02,45.57-5.08,63.94-15.44c17.29-9.75,27.22-24.21,32.37-39.83
						c5.48-16.64,6.53-33.97,9.68-50.9c0.98-5.24-6.8-2.02-7.45,1.44c-3.18,17.07-4.21,34.55-9.82,51.32
						c-5.18,15.47-16.22,28.14-34.66,36.16c-39.85,17.32-94.52,11.37-126.18-13.93c-34.41-27.49-42.02-69.73-38.15-106.12
						c3.98-37.41,22.13-74.03,50.49-104.66c29.08-31.42,68.68-56.18,114-72.99c45.83-16.99,96.89-25.84,147.82-26.29
						c50.14-0.45,100.58,7.21,146.13,23.28c45.05,15.9,85.27,40.19,112.63,71.95c26.6,30.87,41.18,68.06,39.03,105.06
						c-1.07,18.44-6.67,36.52-16.47,53.4c-9.87,17.02-23.71,32.56-38.73,47.16c-30.79,29.93-66.9,56.65-94.2,88.64
						c-29.3,34.34-48.24,73.96-54.81,114.6c-3.58,22.14-2.25,44.41-4.19,66.61c-1.69,19.4-6.78,39.27-21.14,55.72
						c-12.58,14.41-32.22,23.66-54.83,25.5c-21.57,1.76-43.74-2.89-62.2-11.3c-42.96-19.56-59.3-58.8-59.97-95.04
						c-0.74-39.86,14.83-79.72,38.52-114.99c12.18-18.12,26.61-35.34,42.85-51.5c17.18-17.1,36.33-32.97,54.47-49.47
						c34.74-31.59,67.27-68.19,69.98-110.7c1.16-18.17-4.13-36.13-16.75-51.65c-11.4-14.02-28.59-26.03-49.21-31.58
						c-47.87-12.91-95.12,12.7-115.81,44.66c-11.39,17.59-16.59,36.86-18.79,56.29c-0.21,1.82,2.08,2.4,3.9,1.71
						C559.63,379.46,560.79,377.27,561,375.4L561,375.4z"/>
				</g>
			</g>
			<g class="st14">
				<path d="M631.58,894.39c-11.96-14.46-2.99-36.34,17.66-43.05"/>
				<g>
					<path d="M634.87,891.34c-10.2-12.7-3.59-30.58,14.44-36.67c3.75-1.27,5.62-8.61-0.15-6.67c-23.42,7.9-34.32,32.69-20.88,49.43
						C630.66,900.41,637.04,894.05,634.87,891.34L634.87,891.34z"/>
				</g>
			</g>
			<g class="st14">
				<path d="M626.04,872.53c1.66-0.21,2.98,1.62,1.86,2.57c-2.06-0.86-2.18-3.49-0.21-4.47"/>
				<g>
					<path d="M624.21,876.23c0.54-0.03,0.5,0.13,0.16-0.09c0.49,0.31-0.21-0.29,0.05-0.03c0.23,0.23,0.18,0.4,0.07-0.05
						c0.03,0.06,0.05,0.12,0.08,0.19c-0.3-1.15,0.16-2.23,1.39-3.24c1.54-0.47,3.07-0.93,4.61-1.4c-0.16-0.07-0.3-0.15-0.44-0.23
						c0.57,0.34,0.12,0.06,0.04-0.08c-0.21-0.35,0.21,0.47,0.04,0.1c-0.26-0.55-0.04,0.11-0.06,0.1c-0.08-0.02,0.04-0.37-0.02-0.41
						c0.06,0.04-0.12,0.81,0,0.29c-0.12,0.53-0.42,1.02-0.81,1.47c-0.11,0.12-1.11,0.9-0.56,0.6c1.87-1.02,3.32-3.5,2.64-5.22
						c-0.76-1.91-3.19-1.25-4.73-0.4c-3.97,2.17-6.43,8.42-1.41,10.78c1.55,0.73,3.73-0.51,4.61-1.4c1.68-1.69,2.92-3.93,1.95-6.05
						c-0.57-1.24-2.08-2.44-3.94-2.31c-2.46,0.16-4.41,1.71-5.19,3.46c-0.38,0.84-0.67,1.78-0.32,2.65
						C622.58,875.53,623.28,876.29,624.21,876.23L624.21,876.23z"/>
				</g>
			</g>
		</g>
		<g id="Ebene_2_1_">
			<g>
				<path class="st15" d="M700.17,824.24c30.15,10.02,49.98,35.63,46.9,60.55c-3.08,24.92-28.85,47.27-60.93,52.83
					c-32.08,5.57-68.03-6.07-85-27.52c-16.98-21.45-13.68-51.07,7.78-70.04s59.47-25.86,89.86-16.28"/>
				<g>
					<path d="M697.51,827.74c28.31,9.59,47.53,32.66,45.95,56.33c-1.49,22.38-23.66,42.51-51.56,48.94
						c-29.42,6.79-63.34-2-82.27-20.24c-19.05-18.35-20.61-45.47-4.13-65.16c18.54-22.14,59.38-29.96,90.62-20.31
						c4.13,1.28,9.18-5.8,5.31-7c-31.6-9.76-69.25-2.91-92.44,15.95c-23.69,19.27-29.34,49.98-13.66,73.47
						c15.29,22.91,50.83,35.92,83.92,32.39c33.78-3.61,61.52-25.02,69.67-49.75c9.34-28.33-11.12-59.76-46.1-71.61
						C698.77,819.37,693.65,826.44,697.51,827.74L697.51,827.74z"/>
				</g>
			</g>
			<g>
				<path class="st16" d="M590.45,360.27c2.55-23.19,9.89-46.66,27.21-65.83s45.93-33.45,76.5-33.3c44.33,0.22,81,31.32,87.83,64.65
					c6.83,33.33-10.4,67.13-34.96,95.2c-24.56,28.07-56.36,52.02-83.6,78.62c-44.38,43.35-76.88,94.85-84.48,149.49
					c-4.99,35.9,2.04,74.72,32.31,102.52s88.08,39.78,127.1,19.24c24.76-13.03,37.56-35.95,42.37-58.56
					c4.81-22.61,2.87-45.71,4.8-68.57c3.99-47.15,24.87-93.4,59.79-132.46c43.25-48.37,107.95-86.65,134.47-141.56
					c28.08-58.13,5.43-126.67-48.5-173.05c-53.93-46.38-135.29-71.47-216.56-74.74c-89.3-3.61-181.15,18.7-247.09,64.69
					s-103.53,115.94-92.69,183.5c4.27,26.63,16.62,53.65,42.5,71.87c34.08,24,89.88,27.74,128.95,8.66
					c39.08-19.08,36.84-51.99,43.92-89.58"/>
				<g>
					<path d="M594.28,358.66c2.34-20.62,8.48-41.54,22.96-59.3c12.98-15.92,33.77-28.71,57.99-33.02
						c47.76-8.5,90.25,21.51,101.27,55.09c13.77,41.95-16.28,84-49.11,116.01c-17.77,17.33-37.41,33.48-55.75,50.44
						c-17.48,16.16-33.47,33.25-47.21,51.41c-26.85,35.51-45.42,75.08-49.89,116.07c-4.01,36.78,4.8,79.27,41.46,105.89
						c30.76,22.33,81.56,32.42,119.49,14.42c20.78-9.86,34.55-26.26,42.31-43.63c9.14-20.49,9.95-42.24,10.45-63.67
						c0.51-22.07,2.22-43.78,8.5-65.4c5.97-20.53,15.2-40.59,27.5-59.44c11.96-18.33,26.84-35.26,43.62-51.22
						c15.87-15.1,32.96-29.41,49.42-44.13c32.28-28.85,62.4-60.25,73.45-97.9c10.7-36.44,3.78-75.3-16.18-109.21
						c-20.63-35.03-54.91-63.99-97.28-84.65c-42.78-20.86-92.59-33.18-143.01-37.17c-51.14-4.05-103.6,0.45-152.26,13.1
						c-48.48,12.61-93.25,33.33-128.89,61.45c-35.16,27.74-60.78,62.36-74.07,99.53c-12.98,36.28-14.63,77.3,2.61,112.97
						c8.44,17.46,22.12,33.78,42.16,44.78c18.47,10.15,41.52,15.38,64.23,15.39c22.76,0.02,45.57-5.08,63.94-15.44
						c17.29-9.75,27.22-24.21,32.37-39.83c5.48-16.64,6.53-33.97,9.68-50.9c0.98-5.24-6.8-2.02-7.45,1.44
						c-3.18,17.07-4.21,34.55-9.82,51.32c-5.18,15.47-16.22,28.14-34.66,36.16c-39.85,17.32-94.52,11.37-126.18-13.93
						c-34.41-27.49-42.02-69.73-38.15-106.12c3.98-37.41,22.13-74.03,50.49-104.66c29.08-31.42,68.68-56.18,114-72.99
						c45.83-16.99,96.89-25.84,147.82-26.29c50.14-0.45,100.58,7.21,146.13,23.28c45.05,15.9,85.27,40.19,112.63,71.95
						c26.6,30.87,41.18,68.06,39.03,105.06c-1.07,18.44-6.67,36.52-16.47,53.4c-9.87,17.02-23.71,32.56-38.73,47.16
						c-30.79,29.93-66.9,56.65-94.2,88.64c-29.3,34.34-48.24,73.96-54.81,114.59c-3.58,22.14-2.25,44.41-4.19,66.61
						c-1.69,19.4-6.78,39.27-21.14,55.72c-12.58,14.41-32.22,23.66-54.83,25.5c-21.57,1.76-43.74-2.89-62.2-11.3
						c-42.96-19.56-59.3-58.8-59.97-95.04c-0.74-39.86,14.83-79.72,38.52-114.99c12.18-18.12,26.61-35.34,42.85-51.5
						c17.18-17.1,36.33-32.97,54.47-49.47c34.74-31.59,67.27-68.19,69.98-110.7c1.16-18.17-4.13-36.13-16.75-51.65
						c-11.4-14.02-28.59-26.03-49.21-31.58c-47.87-12.91-95.12,12.7-115.81,44.66c-11.39,17.59-16.59,36.86-18.79,56.29
						c-0.21,1.82,2.08,2.4,3.9,1.71C592.91,362.72,594.07,360.53,594.28,358.66L594.28,358.66z"/>
				</g>
			</g>
			<g>
				<g>
					<path d="M634.87,891.34c-10.2-12.7-3.59-30.58,14.44-36.67c3.75-1.27,5.62-8.61-0.15-6.67c-23.42,7.9-34.32,32.69-20.88,49.43
						C630.66,900.41,637.04,894.05,634.87,891.34L634.87,891.34z"/>
				</g>
			</g>
			<g>
				<path class="st15" d="M672.7,846.59c1.66-0.21,2.98,1.62,1.86,2.57c-2.06-0.86-2.18-3.49-0.21-4.47"/>
				<g>
					<path d="M670.88,850.29c0.54-0.03,0.5,0.13,0.16-0.09c0.49,0.31-0.21-0.29,0.05-0.03c0.23,0.23,0.18,0.4,0.07-0.05
						c0.03,0.06,0.05,0.12,0.08,0.19c-0.3-1.15,0.16-2.23,1.39-3.24c1.54-0.47,3.07-0.93,4.61-1.4c-0.16-0.07-0.3-0.15-0.44-0.23
						c0.57,0.34,0.12,0.06,0.04-0.08c-0.21-0.35,0.21,0.47,0.04,0.1c-0.25-0.55-0.04,0.11-0.06,0.1c-0.08-0.02,0.04-0.37-0.02-0.41
						c0.06,0.04-0.12,0.81,0,0.29c-0.12,0.53-0.42,1.02-0.81,1.47c-0.11,0.12-1.11,0.9-0.56,0.6c1.87-1.02,3.32-3.5,2.64-5.22
						c-0.76-1.91-3.19-1.24-4.73-0.4c-3.97,2.17-6.43,8.42-1.41,10.78c1.55,0.73,3.73-0.51,4.61-1.4c1.68-1.69,2.92-3.93,1.95-6.05
						c-0.57-1.24-2.08-2.44-3.94-2.31c-2.46,0.16-4.41,1.71-5.19,3.46c-0.38,0.84-0.67,1.78-0.32,2.65
						C669.25,849.58,669.95,850.35,670.88,850.29L670.88,850.29z"/>
				</g>
			</g>
		</g>
		<g id="Ebene_4_1_">
			<g class="st14">
				<path d="M672.7,819.5c-36.64,0.65-80.51,29.93-82.38,57.78c-1.87,27.85,37.02,58.07,73.37,61.55
					c-30.45-5.55-58.44-36.59-54.5-60.22c3.94-23.64,28.37-45.56,64.65-59.03"/>
				<g>
					<path d="M674.53,815.8c-16.18,0.39-31.64,5.33-44.84,12.25c-13.83,7.24-25.99,16.74-34.09,27.98
						c-7.8,10.82-11.23,22.89-7.59,35.05c3.67,12.25,13.29,23.35,25.03,32.01c13.33,9.84,30.19,17.53,48.82,19.44
						c3.99,0.4,8.41-6.49,3.65-7.39c-24.15-4.59-43.03-22.9-50.07-40.34c-3.53-8.74-3.56-17.53,0.15-26.25
						c3.85-9.07,10.69-17.13,19.14-24.11c10.99-9.09,24.68-16.09,39.18-21.53c2.17-0.81,3.88-3.13,3.75-4.95
						c-0.12-1.79-1.83-2.49-3.9-1.71c-27.21,10.19-52.09,26.54-63.33,48.46c-4.93,9.62-6.79,19.82-4.02,29.99
						c2.83,10.39,9.62,20.27,18.37,28.46c9.59,8.97,22.13,16.52,37.08,19.37c1.22-2.46,2.44-4.93,3.65-7.39
						c-29.49-3.01-57.38-21.53-67.63-42.52c-4.99-10.21-4.89-20.56,0.86-30.55c5.74-9.98,15.88-18.47,27.08-25.1
						c12.76-7.56,28.65-13.38,45.05-13.77C675.01,823.1,679.01,815.69,674.53,815.8L674.53,815.8z"/>
				</g>
			</g>
			<g class="st14">
				<path d="M774.49,381.78c-23.1,37.24-53.59,61.83-86.03,94.79c-32.44,32.96-62.73,59.76-83.47,97.8
					c-20.73,38.04-31.06,111-14.67,150.25c16.39,39.25,72.48,69.9,137.45,50.88c-78.46-30.67-67.47-168.31-38.86-214.61
					c27.78-44.95,98.25-132.97,94.3-213.36"/>
				<g>
					<path d="M771.12,381.54c-21.88,35.08-56.1,64.09-86.53,94.87c-30.51,30.86-62.67,60.89-82.47,96.83
						c-7.51,13.63-12.35,28.12-15.99,42.6c-4.12,16.37-6.59,33.02-7.43,49.68c-1.49,29.28,0.77,61.43,24.2,85.97
						c11.53,12.08,27.34,21.96,45.52,27.68c19.5,6.13,40.97,7.32,61.53,3.87c5.77-0.97,11.41-2.3,16.94-3.9
						c2.42-0.7,7.51-5.57,3.56-7.14c-28.4-11.23-42.63-35.19-50.2-57.7c-9.24-27.44-10.48-56.47-7.66-84.61
						c1.3-13.01,3.66-25.99,7.3-38.74c2.85-9.98,6.37-19.81,12.01-29.15c7.68-12.75,16.62-25.31,24.96-37.9
						c10.81-16.3,21.31-32.74,30.8-49.51c20.43-36.09,37.19-74.56,39.36-114.12c0.26-4.79,0.28-9.57,0.06-14.35
						c-0.08-1.76-1.88-2.47-3.9-1.71c-2.16,0.81-3.84,3.13-3.75,4.95c1.83,39.76-13.68,78.91-33.29,115.34
						c-16.9,31.4-38.32,61.06-57.68,91.57c-13.54,21.33-19.45,44.93-22.53,68.37c-3.78,28.72-3.29,58.19,4.47,86.52
						c6.47,23.57,18.95,49.18,45.62,63.78c2.9,1.59,5.96,3,9.14,4.26c1.18-2.38,2.37-4.76,3.56-7.14
						c-20.38,5.88-42.35,7.53-63.55,3.24c-18.72-3.79-35.77-12.16-48.63-23.12c-12.37-10.54-20.78-23.18-25.06-36.9
						c-4.48-14.38-5.54-29.35-5.36-44.08c0.2-16.38,2.17-32.76,5.69-48.92c3.14-14.45,7.4-28.88,14.1-42.64
						c16.77-34.45,47.28-63.43,76.17-92.34c15.31-15.32,30.95-30.42,46.38-45.68c14.92-14.75,29.13-29.98,40.8-46.38
						c3.05-4.28,5.9-8.64,8.64-13.04c0.81-1.29,0.76-3.65-1.54-3.93C773.83,377.77,771.96,380.19,771.12,381.54L771.12,381.54z"/>
				</g>
			</g>
			<g class="st14">
				<path d="M674.38,122.03c-55.7,7.29-133.69,22.98-177.85,47.76s-89.54,73.42-109.6,112.27c-20.06,38.86-16.64,100.79,8.17,138.02
					s71.81,52.84,133.49,37.36c-38.16-7.41-77.04-26.06-87.85-54.88c-10.81-28.81-6.13-59.82,4.41-88.69
					c28.47-77.93,105.58-144.78,228.16-189.52"/>
				<g>
					<path d="M675.28,118.4c-48.75,6.41-98.03,15.93-142.88,32.11c-21.21,7.65-40.41,17.41-57.53,29.65
						c-19.31,13.8-36.25,29.49-51.3,46.05c-14.58,16.05-27.56,33.05-37.56,51.03c-9.07,16.33-13.59,33.71-15.24,51.35
						c-1.76,18.69-0.28,37.64,4.4,56.04c4.27,16.8,11.42,33.62,23.84,48.01c11.16,12.92,26.89,23.61,45.94,29.28
						c20.52,6.11,42.97,6.31,64.36,2.94c6.22-0.98,12.34-2.27,18.37-3.77c2.93-0.73,7.63-6.37,2.73-7.34
						c-33.64-6.62-69.68-22.08-83.34-47.73c-8.25-15.49-9.59-33.39-8.27-49.9c1.32-16.45,5.87-32.81,12.23-48.53
						c9.64-23.88,23.98-46.51,42.26-67.25c19.4-22.02,43.26-41.69,69.73-58.88c29.42-19.1,62.09-35.12,96.47-48.52
						c4.6-1.79,9.24-3.54,13.9-5.24c3.68-1.35,5.53-8.74-0.15-6.67c-36.68,13.42-71.67,29.64-103.36,49.14
						c-28.47,17.52-54.25,37.76-75.52,60.47c-20.19,21.56-36.43,45.22-47.49,70.34c-14.07,31.95-22.04,67.42-11.02,100.62
						c9.51,28.64,42.29,47.36,77.64,56.53c4.37,1.13,8.79,2.13,13.26,3.01c0.91-2.45,1.82-4.89,2.73-7.34
						c-21.43,5.32-44.38,7.82-66.62,4.03c-18.88-3.22-35.8-11.25-48.43-22.36c-14.06-12.39-22.65-27.64-28.18-43.32
						c-6.11-17.32-8.69-35.35-8.52-53.27c0.16-17.26,2.79-34.88,10.03-51.3c7.48-16.97,19.22-33,31.8-48.05
						c25.53-30.54,58.02-60.19,100.47-77.56c21.31-8.72,44.11-15.22,67.17-20.68c23.08-5.47,46.61-9.86,70.33-13.4
						c5.3-0.79,10.61-1.53,15.93-2.23C677.39,125.15,680.67,117.69,675.28,118.4L675.28,118.4z"/>
				</g>
			</g>
		</g>
		<g id="Ebene_5_1_">
			<g class="st14">
				<g>
					<path class="st17" d="M775.38,167.05c3.97,0.84,7.91,1.77,11.79,2.83c1.94,0.53,3.87,1.08,5.77,1.67
						c0.96,0.29,1.91,0.59,2.85,0.89c0.42,0.13,4.34,1.47,1.94,0.63c7.48,2.62,14.71,5.65,21.62,9.06
						c14.02,6.91,25.82,14.82,36.87,24.61c22.8,20.21,37.03,44.9,40.48,71.43c8.24,63.39-37.62,120.76-79.88,172.3
						c-24.46,29.83-48.78,59.84-65.08,92.89c-0.76,1.54,4.46,3.13,5.18,3.34c3.78,1.06,8.54,1.43,12.52,1.38
						c5.39-0.06,15.43-0.09,17.71-4.72c29.29-59.4,85.87-107.94,119.21-165.82c16.61-28.83,28.37-60.11,26.46-91.85
						c-1.66-27.54-14.44-54.16-36.6-75.98c-23.95-23.58-58.04-41.36-95.83-49.33c-7.81-1.64-17.32-2.34-25.05,0
						c-1.86,0.56-5.18,1.44-5.18,3.34C770.19,165.49,773.67,166.69,775.38,167.05L775.38,167.05z"/>
				</g>
			</g>
			<g class="st14">
				<g>
					<path class="st17" d="M691.92,864.08c5.91,10.18,5.67,22.24,1.3,32.72c-2.12,5.09-5.57,9.9-9.8,14.15
						c-4.87,4.89-9.29,7.86-15.88,10.78c-6.73,2.98,2.88,5.94,6.35,6.45c7.44,1.09,17.39,1.34,24.22-1.69
						c29.06-12.86,41.51-41.55,27.95-64.92c-0.93-1.62-6.48-2.55-8.14-2.82c-4.29-0.7-9.29-0.86-13.64-0.47
						C700.58,858.61,689.31,859.58,691.92,864.08L691.92,864.08z"/>
				</g>
			</g>
		</g>
	</g>
	<g>
		<g id="Ebene_2_Kopie_1_">
			<g class="st14">
				<path d="M1067.02,995.71c23.3,6.8,38.62,24.18,36.24,41.09c-2.38,16.91-22.29,32.07-47.08,35.85
					c-24.79,3.78-52.57-4.12-65.68-18.67c-13.12-14.55-10.57-34.65,6.01-47.53c16.58-12.88,45.95-17.55,69.44-11.04"/>
				<g>
					<path d="M1064.97,998.09c21.88,6.51,36.73,22.16,35.51,38.23c-1.15,15.19-18.29,28.84-39.84,33.21
						c-22.73,4.6-48.95-1.36-63.57-13.74c-14.72-12.45-15.93-30.86-3.19-44.22c14.32-15.02,45.88-20.33,70.02-13.78
						c3.19,0.87,7.09-3.94,4.1-4.75c-24.42-6.62-53.51-1.97-71.43,10.83c-18.31,13.08-22.67,33.91-10.56,49.85
						c11.81,15.54,39.28,24.38,64.85,21.98c26.1-2.45,47.54-16.98,53.83-33.76c7.22-19.23-8.59-40.55-35.63-48.59
						C1065.94,992.4,1061.98,997.2,1064.97,998.09L1064.97,998.09z"/>
				</g>
			</g>
			<g class="st14">
				<path d="M971.69,681.96c1.97-15.73,7.64-31.66,21.03-44.67s35.49-22.7,59.12-22.6c34.25,0.15,62.59,21.26,67.87,43.87
					c5.28,22.62-8.03,45.55-27.02,64.6c-18.98,19.05-43.55,35.3-64.6,53.35c-34.3,29.42-59.41,64.36-65.28,101.44
					c-3.86,24.36,1.58,50.7,24.96,69.57c23.39,18.87,68.07,26.99,98.21,13.05c19.13-8.84,29.02-24.4,32.74-39.74
					s2.22-31.02,3.71-46.53c3.08-31.99,19.22-63.38,46.21-89.88c33.42-32.82,83.42-58.8,103.91-96.06
					c21.7-39.45,4.2-85.95-37.48-117.43c-41.67-31.47-104.54-48.5-167.34-50.72c-69.02-2.44-139.99,12.7-190.95,43.9
					c-50.96,31.2-79.98,78.66-71.61,124.51c3.3,18.07,12.85,36.41,32.84,48.77c26.34,16.29,69.45,18.82,99.65,5.87
					c30.2-12.95,28.47-35.28,33.94-60.79"/>
				<g>
					<path d="M974.65,680.87c1.81-13.99,6.55-28.19,17.74-40.24c10.03-10.8,26.1-19.48,44.81-22.4
						c36.91-5.77,69.74,14.6,78.26,37.38c10.64,28.47-12.58,57-37.95,78.72c-13.73,11.76-28.9,22.72-43.08,34.23
						c-13.51,10.97-25.87,22.57-36.48,34.89c-20.75,24.1-35.09,50.95-38.55,78.76c-3.1,24.96,3.71,53.79,32.03,71.85
						c23.77,15.16,63.02,22,92.33,9.79c16.06-6.69,26.7-17.82,32.69-29.61c7.07-13.9,7.69-28.66,8.07-43.2
						c0.39-14.98,1.71-29.71,6.57-44.38c4.61-13.93,11.75-27.55,21.25-40.33c9.24-12.44,20.74-23.93,33.71-34.76
						c12.27-10.24,25.47-19.96,38.19-29.94c24.95-19.58,48.22-40.88,56.76-66.43c8.26-24.73,2.92-51.1-12.51-74.1
						c-15.94-23.77-42.43-43.42-75.17-57.44c-33.06-14.15-71.55-22.51-110.51-25.22c-39.52-2.75-80.06,0.3-117.65,8.89
						c-37.46,8.55-72.06,22.62-99.6,41.7c-27.17,18.82-46.97,42.31-57.23,67.54c-10.03,24.62-11.3,52.45,2.02,76.66
						c6.52,11.85,17.09,22.92,32.58,30.39c14.27,6.89,32.08,10.43,49.63,10.45c17.59,0.01,35.21-3.45,49.41-10.47
						c13.36-6.62,21.03-16.43,25.01-27.03c4.24-11.29,5.05-23.05,7.48-34.54c0.76-3.55-5.25-1.37-5.76,0.98
						c-2.46,11.58-3.25,23.45-7.59,34.82c-4.01,10.5-12.53,19.1-26.78,24.54c-30.79,11.75-73.03,7.72-97.51-9.45
						c-26.59-18.66-32.47-47.32-29.48-72.01c3.08-25.39,17.1-50.23,39.01-71.02c22.47-21.32,53.07-38.12,88.09-49.53
						c35.41-11.53,74.87-17.53,114.23-17.84c38.75-0.3,77.72,4.89,112.92,15.8c34.81,10.79,65.89,27.27,87.03,48.82
						c20.55,20.95,31.82,46.18,30.16,71.29c-0.83,12.51-5.16,24.78-12.73,36.24c-7.63,11.55-18.32,22.09-29.93,32
						c-23.79,20.31-51.69,38.44-72.79,60.15c-22.64,23.3-37.27,50.19-42.35,77.76c-2.76,15.02-1.74,30.13-3.23,45.2
						c-1.31,13.17-5.24,26.65-16.34,37.81c-9.72,9.78-24.9,16.05-42.37,17.31c-16.67,1.2-33.8-1.96-48.07-7.67
						c-33.2-13.27-45.82-39.9-46.34-64.49c-0.57-27.05,11.46-54.09,29.77-78.03c9.41-12.3,20.56-23.98,33.11-34.95
						c13.28-11.6,28.07-22.37,42.09-33.57c26.84-21.44,51.98-46.27,54.08-75.12c0.9-12.33-3.19-24.51-12.94-35.05
						c-8.81-9.52-22.09-17.66-38.02-21.43c-36.99-8.76-73.5,8.62-89.49,30.31c-8.8,11.94-12.82,25.01-14.52,38.2
						c-0.16,1.24,1.6,1.63,3.02,1.16C973.58,683.62,974.48,682.14,974.65,680.87L974.65,680.87z"/>
				</g>
			</g>
			<g class="st14">
				<path d="M1029.18,1033.04c-9.24-9.81-2.31-24.66,13.64-29.21"/>
				<g>
					<path d="M1031.73,1030.97c-7.88-8.62-2.77-20.75,11.15-24.88c2.9-0.86,4.35-5.84-0.11-4.52c-18.1,5.36-26.52,22.18-16.14,33.54
						C1028.47,1037.13,1033.4,1032.81,1031.73,1030.97L1031.73,1030.97z"/>
				</g>
			</g>
			<g class="st14">
				<path d="M1024.9,1018.21c1.28-0.14,2.3,1.1,1.44,1.74c-1.59-0.59-1.69-2.37-0.16-3.03"/>
				<g>
					<path d="M1023.49,1020.72c0.42-0.02,0.38,0.09,0.12-0.06c0.38,0.21-0.16-0.2,0.04-0.02c0.18,0.15,0.14,0.27,0.05-0.03
						c0.02,0.04,0.04,0.08,0.06,0.13c-0.24-0.78,0.12-1.51,1.07-2.2c1.19-0.32,2.38-0.63,3.56-0.95c-0.12-0.05-0.23-0.1-0.34-0.16
						c0.44,0.23,0.09,0.04,0.03-0.05c-0.16-0.24,0.16,0.32,0.03,0.07c-0.2-0.37-0.03,0.07-0.05,0.07c-0.06-0.01,0.03-0.25-0.02-0.28
						c0.04,0.03-0.09,0.55,0,0.2c-0.09,0.36-0.32,0.69-0.63,1c-0.09,0.08-0.86,0.61-0.43,0.41c1.44-0.69,2.57-2.38,2.04-3.54
						c-0.59-1.3-2.46-0.84-3.66-0.27c-3.07,1.47-4.97,5.72-1.09,7.31c1.2,0.49,2.88-0.34,3.56-0.95c1.3-1.15,2.26-2.67,1.51-4.11
						c-0.44-0.84-1.61-1.65-3.04-1.57c-1.9,0.11-3.41,1.16-4.01,2.35c-0.29,0.57-0.51,1.21-0.25,1.8
						C1022.23,1020.24,1022.77,1020.76,1023.49,1020.72L1023.49,1020.72z"/>
				</g>
			</g>
		</g>
		<g id="Ebene_2_2_">
			<g>
				<path class="st15" d="M1082.18,985.44c23.3,6.8,38.62,24.18,36.24,41.09c-2.38,16.91-22.29,32.07-47.08,35.85
					s-52.56-4.12-65.68-18.67s-10.57-34.65,6.01-47.53c16.58-12.88,45.95-17.55,69.44-11.04"/>
				<g>
					<path d="M1080.13,987.82c21.88,6.51,36.73,22.16,35.51,38.23c-1.15,15.19-18.29,28.84-39.84,33.21
						c-22.73,4.6-48.95-1.36-63.57-13.74c-14.72-12.45-15.93-30.86-3.19-44.22c14.32-15.02,45.88-20.33,70.02-13.78
						c3.19,0.87,7.09-3.94,4.1-4.75c-24.42-6.62-53.51-1.97-71.43,10.83c-18.31,13.08-22.67,33.91-10.56,49.85
						c11.81,15.54,39.28,24.38,64.85,21.98c26.1-2.45,47.54-16.98,53.83-33.76c7.22-19.23-8.59-40.55-35.63-48.59
						C1081.1,982.13,1077.14,986.93,1080.13,987.82L1080.13,987.82z"/>
				</g>
			</g>
			<g>
				<path class="st16" d="M997.4,670.6c1.97-15.73,7.64-31.66,21.03-44.67c13.39-13.01,35.49-22.7,59.12-22.6
					c34.25,0.15,62.59,21.26,67.87,43.87c5.28,22.62-8.03,45.55-27.02,64.6c-18.98,19.05-43.55,35.3-64.6,53.35
					c-34.3,29.42-59.41,64.36-65.28,101.44c-3.86,24.36,1.58,50.7,24.96,69.57s68.07,26.99,98.21,13.05
					c19.13-8.84,29.02-24.4,32.74-39.74c3.72-15.34,2.22-31.02,3.71-46.53c3.08-31.99,19.22-63.38,46.21-89.88
					c33.42-32.82,83.42-58.8,103.91-96.06c21.7-39.45,4.2-85.95-37.48-117.43c-41.67-31.47-104.54-48.5-167.34-50.72
					c-69.01-2.45-139.98,12.69-190.93,43.89c-50.96,31.2-80,78.67-71.62,124.52c3.3,18.07,12.85,36.41,32.84,48.77
					c26.34,16.29,69.45,18.82,99.65,5.87c30.2-12.95,28.47-35.28,33.94-60.79"/>
				<g>
					<path d="M1000.36,669.51c1.81-13.99,6.55-28.19,17.74-40.24c10.03-10.8,26.1-19.48,44.81-22.4
						c36.91-5.77,69.74,14.6,78.26,37.38c10.64,28.47-12.58,57-37.95,78.72c-13.73,11.76-28.9,22.72-43.08,34.23
						c-13.51,10.97-25.87,22.57-36.48,34.89c-20.75,24.1-35.09,50.95-38.55,78.76c-3.1,24.96,3.71,53.79,32.03,71.85
						c23.77,15.16,63.02,22,92.33,9.79c16.06-6.69,26.7-17.82,32.69-29.61c7.07-13.9,7.69-28.66,8.07-43.2
						c0.39-14.98,1.71-29.71,6.57-44.38c4.61-13.93,11.75-27.55,21.25-40.33c9.24-12.44,20.74-23.93,33.71-34.76
						c12.27-10.24,25.47-19.96,38.19-29.94c24.95-19.58,48.22-40.88,56.76-66.43c8.26-24.73,2.92-51.1-12.51-74.1
						c-15.94-23.77-42.43-43.42-75.17-57.44c-33.06-14.15-71.55-22.51-110.51-25.22c-39.52-2.75-80.06,0.3-117.65,8.89
						c-37.46,8.55-72.06,22.62-99.6,41.7c-27.17,18.82-46.97,42.31-57.23,67.54c-10.03,24.62-11.3,52.45,2.02,76.66
						c6.52,11.85,17.09,22.92,32.58,30.39c14.27,6.89,32.08,10.43,49.63,10.45c17.59,0.01,35.21-3.45,49.41-10.47
						c13.36-6.62,21.03-16.43,25.01-27.03c4.24-11.29,5.05-23.05,7.48-34.54c0.76-3.55-5.25-1.37-5.76,0.98
						c-2.46,11.58-3.25,23.45-7.59,34.82c-4.01,10.5-12.53,19.1-26.78,24.54c-30.79,11.75-73.03,7.72-97.51-9.45
						c-26.59-18.66-32.47-47.32-29.48-72.01c3.08-25.39,17.1-50.23,39.01-71.02c22.47-21.32,53.07-38.12,88.09-49.53
						c35.41-11.53,74.87-17.53,114.23-17.84c38.75-0.3,77.72,4.89,112.92,15.8c34.81,10.79,65.89,27.27,87.03,48.82
						c20.55,20.95,31.82,46.18,30.16,71.29c-0.83,12.51-5.16,24.78-12.73,36.24c-7.63,11.55-18.32,22.09-29.93,32
						c-23.79,20.31-51.69,38.44-72.79,60.15c-22.64,23.3-37.27,50.19-42.35,77.76c-2.76,15.02-1.74,30.13-3.23,45.2
						c-1.31,13.17-5.24,26.65-16.34,37.81c-9.72,9.78-24.9,16.05-42.37,17.31c-16.67,1.2-33.8-1.96-48.07-7.67
						c-33.2-13.27-45.82-39.9-46.34-64.49c-0.57-27.05,11.46-54.09,29.77-78.03c9.41-12.3,20.56-23.98,33.11-34.95
						c13.28-11.6,28.07-22.37,42.09-33.57c26.84-21.44,51.98-46.27,54.08-75.12c0.9-12.33-3.19-24.51-12.94-35.05
						c-8.81-9.52-22.09-17.66-38.02-21.43c-36.99-8.76-73.5,8.62-89.49,30.31c-8.8,11.94-12.82,25.01-14.52,38.2
						c-0.16,1.24,1.6,1.63,3.02,1.16C999.3,672.27,1000.2,670.78,1000.36,669.51L1000.36,669.51z"/>
				</g>
			</g>
			<g>
				<g>
					<path d="M1031.73,1030.97c-7.88-8.62-2.77-20.75,11.15-24.88c2.9-0.86,4.35-5.84-0.11-4.52c-18.1,5.36-26.52,22.18-16.14,33.54
						C1028.47,1037.13,1033.4,1032.81,1031.73,1030.97L1031.73,1030.97z"/>
				</g>
			</g>
			<g>
				<path class="st15" d="M1060.96,1000.61c1.28-0.14,2.3,1.1,1.44,1.74c-1.59-0.59-1.69-2.37-0.16-3.03"/>
				<g>
					<path d="M1059.55,1003.12c0.42-0.02,0.38,0.09,0.12-0.06c0.38,0.21-0.16-0.2,0.04-0.02c0.18,0.15,0.14,0.27,0.05-0.03
						c0.02,0.04,0.04,0.08,0.06,0.13c-0.24-0.78,0.12-1.51,1.07-2.2c1.19-0.32,2.38-0.63,3.56-0.95c-0.12-0.05-0.23-0.1-0.34-0.16
						c0.44,0.23,0.09,0.04,0.03-0.05c-0.16-0.24,0.16,0.32,0.03,0.07c-0.2-0.37-0.03,0.07-0.05,0.07c-0.06-0.01,0.03-0.25-0.02-0.28
						c0.04,0.03-0.09,0.55,0,0.2c-0.09,0.36-0.32,0.69-0.63,1c-0.09,0.08-0.86,0.61-0.43,0.41c1.44-0.69,2.57-2.38,2.04-3.54
						c-0.59-1.3-2.46-0.84-3.66-0.27c-3.07,1.47-4.97,5.72-1.09,7.31c1.2,0.49,2.88-0.34,3.56-0.95c1.3-1.15,2.25-2.67,1.51-4.11
						c-0.44-0.84-1.61-1.65-3.04-1.57c-1.9,0.11-3.41,1.16-4.01,2.35c-0.29,0.57-0.51,1.21-0.25,1.8
						C1058.29,1002.64,1058.83,1003.16,1059.55,1003.12L1059.55,1003.12z"/>
				</g>
			</g>
		</g>
		<g id="Ebene_4_2_">
			<g class="st14">
				<path d="M1060.96,982.22c-28.31,0.44-62.21,20.31-63.66,39.21c-1.44,18.9,28.6,39.4,56.7,41.77
					c-23.53-3.77-45.16-24.83-42.12-40.87c3.04-16.04,21.93-30.92,49.95-40.05"/>
				<g>
					<path d="M1062.37,979.71c-12.5,0.26-24.45,3.62-34.65,8.31c-10.68,4.91-20.08,11.36-26.34,18.99
						c-6.03,7.34-8.68,15.53-5.86,23.78c2.84,8.31,10.27,15.85,19.34,21.72c10.3,6.68,23.33,11.9,37.73,13.19
						c3.08,0.27,6.5-4.4,2.82-5.02c-18.66-3.12-33.25-15.54-38.69-27.37c-2.73-5.93-2.75-11.9,0.11-17.81
						c2.98-6.15,8.26-11.62,14.79-16.36c8.49-6.17,19.07-10.92,30.28-14.61c1.67-0.55,3-2.12,2.9-3.36
						c-0.09-1.21-1.41-1.69-3.02-1.16c-21.02,6.92-40.25,18.01-48.94,32.89c-3.81,6.53-5.25,13.45-3.11,20.35
						c2.18,7.05,7.43,13.75,14.2,19.31c7.41,6.09,17.1,11.21,28.65,13.14c0.94-1.67,1.88-3.35,2.82-5.02
						c-22.79-2.04-44.34-14.61-52.26-28.85c-3.85-6.93-3.78-13.95,0.66-20.73c4.44-6.77,12.27-12.53,20.92-17.03
						c9.86-5.13,22.14-9.08,34.81-9.34C1062.74,984.67,1065.83,979.64,1062.37,979.71L1062.37,979.71z"/>
				</g>
			</g>
			<g class="st14">
				<path d="M1139.61,685.2c-17.85,25.27-41.41,41.96-66.48,64.32c-25.07,22.37-48.48,40.55-64.5,66.36
					c-16.02,25.81-24,75.32-11.34,101.95c12.67,26.63,56.01,47.43,106.21,34.53c-60.63-20.81-52.13-114.21-30.03-145.63
					c21.47-30.5,75.92-90.23,72.87-144.78"/>
				<g>
					<path d="M1137.01,685.04c-16.91,23.81-43.35,43.49-66.87,64.38c-23.57,20.94-48.43,41.32-63.73,65.7
						c-5.8,9.25-9.55,19.08-12.36,28.91c-3.18,11.11-5.09,22.41-5.74,33.71c-1.15,19.87,0.6,41.68,18.7,58.33
						c8.91,8.2,21.13,14.9,35.17,18.78c15.07,4.16,31.66,4.97,47.55,2.63c4.46-0.66,8.82-1.56,13.09-2.64
						c1.87-0.48,5.8-3.78,2.75-4.84c-21.95-7.62-32.94-23.88-38.79-39.15c-7.14-18.62-8.09-38.32-5.92-57.41
						c1.01-8.82,2.83-17.64,5.64-26.29c2.2-6.77,4.93-13.44,9.28-19.78c5.93-8.65,12.84-17.17,19.29-25.72
						c8.35-11.06,16.46-22.21,23.8-33.6c15.78-24.49,28.74-50.59,30.41-77.44c0.2-3.25,0.21-6.5,0.04-9.74
						c-0.06-1.2-1.46-1.68-3.02-1.16c-1.67,0.55-2.97,2.12-2.9,3.36c1.41,26.98-10.57,53.55-25.72,78.27
						c-13.06,21.31-29.61,41.43-44.57,62.14c-10.46,14.48-15.03,30.49-17.41,46.4c-2.92,19.49-2.55,39.49,3.45,58.71
						c5,16,14.64,33.37,35.25,43.28c2.24,1.08,4.6,2.04,7.06,2.89c0.91-1.61,1.83-3.23,2.75-4.84c-15.75,3.99-32.72,5.11-49.11,2.2
						c-14.47-2.57-27.64-8.25-37.58-15.69c-9.56-7.15-16.06-15.73-19.36-25.04c-3.46-9.76-4.28-19.91-4.14-29.91
						c0.15-11.12,1.68-22.23,4.4-33.2c2.43-9.81,5.72-19.6,10.9-28.93c12.96-23.37,36.53-43.04,58.86-62.66
						c11.83-10.39,23.92-20.65,35.84-31c11.53-10.01,22.51-20.35,31.53-31.47c2.36-2.91,4.56-5.86,6.68-8.85
						c0.62-0.87,0.59-2.48-1.19-2.67C1139.1,682.48,1137.66,684.12,1137.01,685.04L1137.01,685.04z"/>
				</g>
			</g>
			<g class="st14">
				<path d="M1062.26,508.94c-43.04,4.95-103.31,15.59-137.43,32.41c-34.12,16.81-69.19,49.82-84.69,76.18
					c-15.5,26.37-12.86,68.39,6.31,93.66s55.49,35.86,103.15,25.35c-29.48-5.03-59.53-17.69-67.88-37.24
					c-8.35-19.55-4.74-40.59,3.41-60.18c22-52.88,81.58-98.25,176.3-128.6"/>
				<g>
					<path d="M1062.95,506.47c-37.67,4.35-75.75,10.81-110.41,21.79c-16.39,5.19-31.22,11.81-44.45,20.12
						c-14.92,9.37-28.01,20.01-39.64,31.25c-11.26,10.89-21.3,22.43-29.02,34.63c-7.01,11.08-10.5,22.87-11.78,34.85
						c-1.36,12.68-0.22,25.54,3.4,38.02c3.3,11.4,8.82,22.81,18.42,32.58c8.62,8.77,20.78,16.02,35.5,19.87
						c15.86,4.14,33.21,4.28,49.74,1.99c4.81-0.67,9.53-1.54,14.2-2.56c2.27-0.49,5.89-4.32,2.11-4.98
						c-25.99-4.49-53.84-14.98-64.4-32.39c-6.38-10.51-7.41-22.66-6.39-33.86c1.02-11.16,4.54-22.26,9.45-32.93
						c7.45-16.21,18.53-31.56,32.65-45.64c14.99-14.94,33.43-28.29,53.88-39.95c22.73-12.96,47.98-23.83,74.55-32.93
						c3.56-1.22,7.14-2.4,10.74-3.56c2.84-0.91,4.27-5.93-0.11-4.52c-28.35,9.11-55.38,20.11-79.87,33.34
						c-22,11.89-41.92,25.62-58.36,41.03c-15.6,14.63-28.15,30.69-36.7,47.73c-10.87,21.68-17.03,45.75-8.52,68.28
						c7.35,19.43,32.68,32.14,60,38.36c3.38,0.77,6.79,1.45,10.25,2.04c0.7-1.66,1.41-3.32,2.11-4.98
						c-16.56,3.61-34.29,5.3-51.48,2.73c-14.59-2.18-27.67-7.63-37.42-15.17c-10.86-8.4-17.5-18.76-21.78-29.4
						c-4.72-11.75-6.72-23.99-6.58-36.14c0.13-11.71,2.16-23.67,7.75-34.81c5.78-11.51,14.85-22.39,24.57-32.6
						c19.73-20.73,44.84-40.84,77.63-52.63c16.46-5.92,34.08-10.33,51.9-14.03c17.84-3.71,36.02-6.69,54.35-9.09
						c4.09-0.54,8.2-1.04,12.31-1.51C1064.58,511.06,1067.12,505.99,1062.95,506.47L1062.95,506.47z"/>
				</g>
			</g>
		</g>
		<g id="Ebene_5_2_">
			<g class="st14">
				<g>
					<path class="st17" d="M1140.3,539.49c3.07,0.57,6.11,1.2,9.11,1.92c1.5,0.36,2.99,0.74,4.46,1.13c0.74,0.2,1.47,0.4,2.21,0.61
						c0.32,0.09,3.36,0.99,1.5,0.42c5.78,1.78,11.37,3.84,16.7,6.15c10.83,4.69,19.96,10.05,28.49,16.7
						c17.62,13.71,28.61,30.47,31.28,48.47c6.37,43.01-29.07,81.94-61.72,116.92c-18.9,20.24-37.69,40.6-50.29,63.03
						c-0.59,1.05,3.44,2.12,4.01,2.26c2.92,0.72,6.6,0.97,9.68,0.94c4.17-0.04,11.92-0.06,13.68-3.2
						c22.63-40.31,66.35-73.25,92.11-112.52c12.83-19.56,21.93-40.79,20.45-62.33c-1.28-18.69-11.15-36.75-28.28-51.56
						c-18.51-16-44.85-28.07-74.05-33.47c-6.03-1.12-13.38-1.59-19.35,0c-1.43,0.38-4.01,0.98-4.01,2.26
						C1136.29,538.43,1138.98,539.24,1140.3,539.49L1140.3,539.49z"/>
				</g>
			</g>
			<g class="st14">
				<g>
					<path class="st17" d="M1075.81,1012.48c4.56,6.91,4.38,15.09,1.01,22.2c-1.64,3.46-4.3,6.72-7.57,9.6
						c-3.77,3.32-7.18,5.34-12.27,7.32c-5.2,2.02,2.22,4.03,4.91,4.38c5.75,0.74,13.44,0.91,18.72-1.15
						c22.46-8.73,32.08-28.19,21.6-44.06c-0.72-1.1-5.01-1.73-6.29-1.91c-3.32-0.47-7.18-0.59-10.54-0.32
						C1082.5,1008.76,1073.79,1009.42,1075.81,1012.48L1075.81,1012.48z"/>
				</g>
			</g>
		</g>
	</g>
</g>
<g id="Ebene_14">
</g>
</svg>
