<?xml version="1.0" encoding="utf-8"?>
<!-- Generator: Adobe Adobe Illustrator 24.2.0, SVG Export Plug-In . SVG Version: 6.00 Build 0)  -->
<svg version="1.1" xmlns="http://www.w3.org/2000/svg" xmlns:xlink="http://www.w3.org/1999/xlink" x="0px" y="0px"
	 viewBox="0 0 1700.79 1700.79" style="enable-background:new 0 0 1700.79 1700.79;" xml:space="preserve">
<style type="text/css">
	.st0{fill:#DFB2AD;}
	.st1{fill:#EDEDED;}
	.st2{opacity:0.1608;}
	.st3{stroke:#000000;stroke-miterlimit:10;}
	.st4{opacity:0.3686;}
	.st5{fill:#FFFFFF;}
	.st6{fill:#D2E0EC;}
	.st7{opacity:0.2706;}
	.st8{opacity:0.149;}
	.st9{stroke:#000000;stroke-width:11;stroke-miterlimit:10;}
	.st10{fill:#FFFFFF;stroke:#FFFFFF;stroke-width:4.0888;stroke-miterlimit:10;}
	.st11{fill:#FFFFFF;stroke:#FFFFFF;stroke-width:1.7375;stroke-miterlimit:10;}
	.st12{fill:#E8B1C9;stroke:#E8B1C9;stroke-width:1.7375;stroke-miterlimit:10;}
	.st13{fill:#F4F5E9;}
	.st14{fill:#F4F6E7;}
</style>
<g id="Ebene_3">
</g>
<g id="Ebene_7">
	<g>
		<path class="st0" d="M112.41,716.37c21.28,270.81,71.85,832.86,109.41,886.79c25.58,36.73,58.89,42.85,732.62-24.83
			c29.29-2.94,66.21-4.9,79.97-30.92c33.72-63.74-22.61-934.22-58.25-961.32c-43.21-32.86-260.94-4.99-400.31-1.82
			c-92.76,2.1-185.51,4.21-278.27,6.31c-66.21,1.5-200.5,6.69-184.8,124.78"/>
		<g>
			<path d="M107.41,716.37c5.88,74.86,12.2,149.7,18.92,224.49c7.74,86.27,16,172.49,25.17,258.62
				c8.31,78.08,17.22,156.13,28.32,233.87c4.26,29.81,8.82,59.58,14.34,89.18c3.8,20.41,7.82,40.96,13.95,60.82
				c4.35,14.08,10.36,27.43,22.42,36.41c10.53,7.84,24.01,10.76,36.76,12.54c27.12,3.79,54.86,3.24,82.16,2.48
				c51.59-1.44,103.13-5.26,154.57-9.31c85.03-6.7,169.95-14.68,254.85-22.85c57.85-5.57,115.68-11.29,173.5-17.08
				c23.89-2.39,49.4-2.81,72.44-10.17c14.78-4.72,29.52-13.75,35.42-28.82c3.84-9.81,4.77-20.96,5.84-31.34
				c1.8-17.46,2.53-35.03,3.03-52.56c1.48-51.89,0.51-103.85-0.93-155.73c-1.81-64.91-4.75-129.78-8.37-194.61
				c-3.77-67.6-8.29-135.16-13.68-202.65c-4.71-58.98-10-117.93-16.75-176.71c-4.55-39.63-9.01-79.69-17.69-118.68
				c-2.04-9.18-4-19.54-8.85-27.76c-2.86-4.85-7.85-7.47-12.89-9.66c-11.87-5.18-24.91-7.23-37.68-8.77
				c-38.55-4.63-77.94-3.13-116.64-1.57c-47.65,1.93-95.23,5.31-142.83,8.21c-50.59,3.08-101.12,4.63-151.79,5.78
				c-65,1.47-130,2.95-194.99,4.42c-34.44,0.78-69.03,0.9-103.14,6.32c-30.51,4.85-62.37,14.03-86.04,34.83
				c-25.77,22.65-33.32,56.21-29.07,89.27c0.81,6.29,10.82,6.38,10,0c-2.3-17.92-1.81-36.56,5.19-53.45
				c5.51-13.29,14.94-24.67,26.45-33.21c24.88-18.45,56.98-25.65,87.18-29.36c38.32-4.7,77.3-4.13,115.83-5.01
				c63.64-1.44,127.29-2.89,190.93-4.33c48.2-1.09,96.27-3.2,144.39-6.2c46.82-2.92,93.64-6.16,140.54-7.76
				c36.67-1.25,74.45-2.67,110.85,2.98c10.67,1.66,22.22,3.78,31.48,9.33c0.89,0.54,1.82,1.08,2.63,1.74
				c-1.09-0.88-0.43-0.28-0.19-0.13c0.19,0.12,0.34,0.36,0.5,0.53c0.81,0.84-0.76-1.19-0.11-0.14c0.73,1.16,1.36,2.33,1.96,3.55
				c0.19,0.39,0.81,1.92,0.1,0.19c0.18,0.43,0.36,0.86,0.52,1.3c0.35,0.96,0.72,1.92,1.05,2.9c0.78,2.3,1.47,4.63,2.12,6.98
				c1.64,5.94,2.98,11.97,4.22,18.01c3.55,17.29,6.23,34.75,8.71,52.22c7.21,50.85,12.35,102,17.07,153.12
				c5.92,64.22,10.84,128.54,15.09,192.89c4.41,66.69,8.1,133.44,10.9,200.22c2.45,58.57,4.31,117.18,4.57,175.8
				c0.18,39.78,0.44,80.02-3.88,119.63c-0.66,6.03-1.1,9.87-2.43,16.42c-0.44,2.18-0.94,4.35-1.56,6.49
				c-0.24,0.82-0.51,1.63-0.78,2.44c-0.13,0.4-0.29,0.79-0.44,1.19c-0.47,1.28,0.45-0.89-0.02,0.06
				c-8.6,17.31-28.2,23.05-45.91,26.04c-26.27,4.43-53.27,5.83-79.77,8.47c-100.87,10.06-201.76,19.95-302.74,28.91
				c-64.41,5.71-128.87,11.19-193.42,14.93c-36.63,2.12-73.48,4.05-110.18,2.73c-5.88-0.21-11.77-0.53-17.63-1.02
				c-2.56-0.21-5.12-0.46-7.67-0.76c-1.09-0.12-2.17-0.26-3.26-0.4c-1.32-0.17,1.03,0.15-0.66-0.09c-0.55-0.08-1.11-0.16-1.66-0.24
				c-7.1-1.07-14.21-2.54-20.95-5.07c-0.62-0.23-1.24-0.48-1.86-0.73c-1.03-0.41,1.31,0.6,0.06,0.02c-0.36-0.17-0.73-0.32-1.09-0.49
				c-1.12-0.54-2.24-1.09-3.33-1.7c-1.06-0.59-2.09-1.22-3.1-1.9c-0.44-0.3-0.87-0.61-1.3-0.91c-1.59-1.09,0.62,0.58-0.55-0.42
				c-1.61-1.37-3.17-2.78-4.61-4.34c-0.71-0.78-1.38-1.58-2.06-2.39c-0.31-0.37-0.6-0.76-0.9-1.13c1.37,1.72,0.04,0.05-0.29-0.41
				c-2.08-2.88-3.82-5.83-5.29-9.07c-0.69-1.52,0.03,0.13-0.47-1.08c-0.24-0.58-0.47-1.17-0.7-1.75c-0.65-1.66-1.25-3.34-1.82-5.03
				c-1.19-3.48-2.26-7-3.26-10.53c-5.94-20.87-10.03-42.28-13.87-63.62c-11.99-66.6-20.38-133.87-28.35-201.05
				c-9.9-83.43-18.51-167.02-26.56-250.65c-7.87-81.72-15.17-163.51-22.01-245.32c-2.74-32.79-5.41-65.59-7.99-98.39
				C116.9,709.99,106.9,709.94,107.41,716.37L107.41,716.37z"/>
		</g>
	</g>
</g>
<g id="Ebene_8">
	<g>
		<path class="st1" d="M146.23,717.97c115.62,852.83,103.69,835.25,139.28,861.81c27.85,20.78,711.42-34.96,723.28-57.38
			c1.93-3.65-9.85-862.58-64.76-901.34c-72.74-51.35-744.15,20.61-772.94,37.77c-19.78,11.79-26.29,28.37-23.93,58.37"/>
		<g>
			<path d="M141.41,719.3c9.4,69.37,18.75,138.75,28.03,208.14c7.55,56.43,15.05,112.86,22.52,169.3
				c6.02,45.48,12.03,90.97,18.05,136.45c4.71,35.6,9.43,71.19,14.22,106.78c3.64,27.03,7.31,54.06,11.14,81.07
				c2.79,19.68,5.65,39.36,8.78,58.99c2.16,13.58,4.43,27.15,7.12,40.64c1.78,8.9,3.7,17.8,6.27,26.52
				c1.72,5.84,3.75,11.67,6.55,17.09c1.97,3.81,4.46,7.38,7.44,10.48c2.7,2.81,5.83,5.15,8.93,7.48c6.75,5.07,15.13,5.49,23.34,6.11
				c19.86,1.51,39.91,1.13,59.81,0.75c30.08-0.57,60.14-1.87,90.18-3.4c36.44-1.86,72.86-4.13,109.26-6.65
				c38.92-2.69,77.82-5.68,116.7-8.93c38.06-3.18,76.09-6.61,114.09-10.38c33.19-3.29,66.36-6.81,99.47-10.82
				c25.21-3.06,50.43-6.29,75.47-10.54c12.85-2.18,27.71-3.63,39.57-9.51c6.82-3.39,5.6-9.95,5.61-16.47
				c0.02-14.61-0.16-29.22-0.35-43.82c-0.31-24.21-0.73-48.43-1.21-72.64c-0.63-31.42-1.36-62.84-2.2-94.25
				c-0.96-36.1-2.05-72.19-3.29-108.27c-1.33-38.73-2.83-77.46-4.54-116.18c-1.71-38.7-3.63-77.39-5.87-116.06
				c-2.12-36.65-4.51-73.28-7.38-109.88c-2.51-32.08-5.36-64.13-8.98-96.11c-2.87-25.33-6.11-50.67-10.74-75.75
				c-3.02-16.34-6.28-33.15-12.87-48.48c-1.89-4.4-4.15-8.96-7.65-12.32c-4.45-4.27-10.93-6.63-16.67-8.52
				c-19.74-6.53-41.29-8.28-61.9-9.8c-30.5-2.26-61.14-2.6-91.71-2.38c-37.49,0.28-74.98,1.59-112.43,3.41
				c-40.49,1.97-80.95,4.58-121.37,7.63c-40.21,3.03-80.39,6.49-120.52,10.35c-36.12,3.47-72.22,7.26-108.26,11.48
				c-28.55,3.34-57.08,6.91-85.51,11.09c-17.22,2.53-34.64,4.94-51.56,9.09c-4.69,1.15-9,2.51-13.06,5.19
				c-8.9,5.88-15.93,13.71-19.9,23.67c-4.69,11.76-4.76,24.9-3.84,37.34c0.47,6.38,10.47,6.43,10,0
				c-0.9-12.26-1.19-25.79,4.61-37.02c3.92-7.59,10.2-13.18,17.54-17.4c1.13-0.65-0.97,0.36-0.19,0.07c0.36-0.13,0.71-0.28,1.07-0.4
				c0.93-0.29,1.85-0.6,2.79-0.87c2.51-0.72,5.05-1.31,7.59-1.87c18.18-4.02,36.71-6.64,55.14-9.27
				c28.81-4.11,57.7-7.64,86.61-10.95c36.18-4.14,72.41-7.87,108.66-11.29c39.99-3.77,80.02-7.14,120.08-10.07
				c39.94-2.92,79.92-5.41,119.93-7.26c36.58-1.69,73.2-2.86,109.82-2.99c29.86-0.1,59.79,0.36,89.56,2.81
				c19.14,1.58,38.67,3.22,57.02,10.04c2.42,0.9,1.42,0.45,3.54,1.46c1.32,0.63,2.61,1.29,3.86,2.05c0.51,0.31,1,0.65,1.5,0.97
				c1.17,0.76-0.79-0.82,0.16,0.13c0.63,0.63,1.23,1.26,1.82,1.93c-0.16-0.18-0.53-0.81,0.14,0.22c0.3,0.47,0.62,0.92,0.92,1.39
				c0.61,0.98,1.17,1.99,1.69,3.01c0.62,1.21,1.18,2.44,1.72,3.68c-0.4-0.91,0.08,0.17,0.37,0.93c0.29,0.76,0.59,1.51,0.87,2.27
				c6.07,16.41,9.24,33.97,12.2,51.16c4.37,25.44,7.5,51.09,10.25,76.75c3.46,32.25,6.22,64.58,8.66,96.93
				c2.75,36.48,5.06,73,7.11,109.53c2.17,38.6,4.04,77.21,5.7,115.84c1.64,38.09,3.08,76.18,4.36,114.28
				c1.19,35.47,2.24,70.94,3.17,106.41c0.8,30.69,1.51,61.39,2.1,92.09c0.45,23.37,0.85,46.75,1.14,70.12
				c0.17,13.92,0.35,27.85,0.31,41.78c-0.01,2.53-0.57,5.66-0.12,8.15c-0.15-0.81,1.01-2.52,1.42-2.7
				c-0.55,0.23-1.13,0.68-1.66,0.97c-0.25,0.14-1.57,0.71-0.58,0.28c0.99-0.43-0.58,0.23-0.88,0.33
				c-13.85,4.77-28.73,6.89-43.14,9.21c-25.48,4.09-51.1,7.3-76.72,10.32c-33.73,3.97-67.51,7.48-101.31,10.76
				c-37.81,3.67-75.64,7.02-113.5,10.13c-38.45,3.16-76.91,6.06-115.4,8.66c-35.66,2.41-71.35,4.59-107.05,6.33
				c-28.99,1.42-58,2.61-87.03,3.06c-18.89,0.29-37.98,0.63-56.82-1.07c-1.51-0.14-3.03-0.3-4.54-0.48
				c-1.46-0.17,0.83,0.15-0.75-0.1c-0.63-0.1-1.26-0.19-1.89-0.3c-1.85-0.33-3.64-0.76-5.42-1.36c0.69,0.23,0.53,0.44-0.49-0.35
				c-0.39-0.3-0.79-0.59-1.18-0.88c-0.75-0.55-1.49-1.11-2.23-1.66c-0.35-0.26-0.7-0.53-1.05-0.8c0.54,0.41,0.88,0.72-0.08-0.07
				c-0.66-0.55-1.34-1.08-1.99-1.64c-1.3-1.12-2.54-2.3-3.7-3.57c-0.6-0.66-1.16-1.36-1.73-2.05c1.35,1.64-0.43-0.61-0.94-1.38
				c-1.18-1.78-2.21-3.65-3.14-5.57c-0.27-0.56-0.52-1.12-0.78-1.69c-0.12-0.26-0.23-0.53-0.35-0.79c-0.48-1.07,0.54,1.35,0.05,0.12
				c-0.52-1.31-1.04-2.61-1.51-3.94c-1.13-3.15-2.11-6.36-3.01-9.59c-2.53-9.07-4.46-18.31-6.25-27.55
				c-2.69-13.92-4.99-27.91-7.19-41.91c-3.15-20.07-6.05-40.19-8.88-60.31c-3.82-27.13-7.5-54.27-11.15-81.43
				c-4.82-35.9-9.58-71.82-14.33-107.73c-6.07-45.91-12.14-91.82-18.22-137.73c-7.52-56.76-15.07-113.52-22.67-170.27
				c-8.85-66.16-17.76-132.31-26.73-198.45C150.19,710.3,140.56,713,141.41,719.3L141.41,719.3z"/>
		</g>
	</g>
</g>
<g id="Ebene_20">
	<g class="st2">
		<path d="M156.96,678.62c32.72,233.97,65.44,467.94,98.16,701.9c7.13,50.95,17.84,107.94,60.34,136.92
			c32.7,22.3,75.36,21.43,114.91,19.73c192.27-8.26,384.55-16.52,576.82-24.77c-207.52,46.68-421.21,57.29-633.66,67.72
			c-33.64,1.65-70.94,2.13-96.46-19.86c-24.9-21.45-30.39-57.27-34.26-89.92c-31.23-263.56-62.46-527.13-93.68-790.69"/>
		<g>
			<path d="M152.13,679.95c14.93,106.77,29.86,213.54,44.79,320.31s29.86,213.54,44.79,320.31c3.46,24.75,6.67,49.55,10.46,74.26
				c3.05,19.91,6.85,39.83,13.32,58.94c6.03,17.82,14.4,34.9,26.62,49.32c13.17,15.54,30.7,26.49,50.09,32.51
				c20.97,6.51,43.33,7.61,65.14,7.31c25.3-0.35,50.62-1.91,75.9-3c53.56-2.3,107.11-4.6,160.67-6.9
				c107.78-4.63,215.56-9.26,323.34-13.89c13.31-0.57,26.61-1.14,39.92-1.71c-0.44-3.27-0.89-6.55-1.33-9.82
				c-105.18,23.6-212.15,38.06-319.45,47.81c-106.6,9.69-213.75,15.9-320.7,20.09c-21.3,0.83-43.43,0.88-63.72-6.48
				c-20.55-7.45-34.96-23.62-42.66-43.78c-7.78-20.36-10.02-42.3-12.57-63.78c-3.25-27.41-6.5-54.83-9.74-82.24
				c-12.99-109.65-25.98-219.31-38.98-328.96C185,940.26,171.97,830.27,158.94,720.29c-1.6-13.54-3.21-27.08-4.81-40.62
				c-0.75-6.31-10.76-6.39-10,0c13.23,111.63,26.45,223.27,39.68,334.9c13.23,111.63,26.45,223.27,39.68,334.9
				c3.33,28.07,6.65,56.15,9.98,84.22c2.86,24.14,4.69,48.74,9.91,72.53c4.37,19.95,12.03,40.01,26.88,54.57
				c15.46,15.16,36.34,21.68,57.43,23.95c23.86,2.57,48.12,0.27,72-0.91c27.47-1.36,54.94-2.74,82.4-4.23
				c54.29-2.95,108.56-6.3,162.76-10.66c108.59-8.74,217.03-21.56,323.86-43.21c13.3-2.7,26.57-5.54,39.81-8.51
				c5.47-1.23,4.32-10.06-1.33-9.82c-106.45,4.57-212.9,9.14-319.35,13.72c-53.22,2.29-106.45,4.57-159.67,6.86
				c-26.61,1.14-53.22,2.29-79.84,3.43c-22.96,0.99-46.06,2.54-69.03,0.77c-21.56-1.65-43.25-6.71-61.32-19.05
				c-15.68-10.7-27.15-26.24-35.27-43.22c-18.07-37.77-21.48-81.45-27.2-122.35c-14.7-105.12-29.4-210.24-44.1-315.36
				c-14.7-105.12-29.4-210.24-44.1-315.36c-1.84-13.18-3.69-26.36-5.53-39.54C160.89,670.95,151.25,673.65,152.13,679.95
				L152.13,679.95z"/>
		</g>
	</g>
	<g class="st2">
		<path d="M120.51,650.55c86.28,873,77.27,900.21,137.32,947.83c39.09,31,90.51,17.48,140.25,13.57
			c211.4-16.62,422.79-33.23,634.19-49.85c-241.16,36.62-484.89,56.35-728.8,58.99c-20.16,0.22-41.42,0.04-58.84-10.09
			c-28.21-16.4-36.82-52.45-42.48-84.6c-50.83-288.65-78.27-581.42-81.95-874.49"/>
		<g>
			<path d="M115.51,650.55c9.76,98.76,19.36,197.54,28.87,296.32c7.2,74.73,14.33,149.47,21.59,224.2
				c5.24,53.95,10.53,107.9,16.27,161.79c3.99,37.45,8.16,74.9,13.25,112.22c3.27,23.98,6.84,47.98,12.04,71.63
				c3.3,14.98,7.28,29.9,13.47,43.97c4.23,9.59,9.76,18.5,16.81,26.28c16.69,18.42,39.14,31.28,63.89,34.77
				c22.21,3.13,44.63,0.72,66.77-1.76c25.72-2.88,51.52-4.75,77.32-6.78c56.33-4.43,112.66-8.85,168.98-13.28
				c111.99-8.8,223.99-17.61,335.98-26.41c27.17-2.14,54.34-4.27,81.51-6.41c-0.44-3.27-0.89-6.55-1.33-9.82
				c-116.89,17.73-234.36,31.49-352.18,41.25c-117.28,9.72-234.88,15.48-352.54,17.26c-13.77,0.21-27.62,0.74-41.39,0.11
				c-12.4-0.56-25.17-2.39-36.21-8.4c-19.24-10.46-29.01-31.05-34.79-51.26c-6.88-24.03-10.06-49.22-14.19-73.82
				c-4.89-29.1-9.53-58.24-13.94-87.41c-17.53-115.93-31.26-232.43-41.23-349.26c-9.95-116.62-16.14-233.55-18.55-350.57
				c-0.3-14.42-0.53-28.85-0.72-43.27c-0.08-6.43-10.08-6.45-10,0c1.52,119.33,6.94,238.6,16.29,357.57
				c9.29,118.11,22.44,235.91,39.38,353.16c8.37,57.93,16.91,116.06,28.01,173.54c4.01,20.74,9.55,42.5,22.24,59.8
				c14.23,19.39,35.13,27.82,58.63,29.61c13.79,1.05,27.71,0.46,41.52,0.26c14.83-0.21,29.66-0.49,44.49-0.82
				c29.99-0.68,59.97-1.62,89.94-2.82c59.62-2.38,119.19-5.79,178.69-10.21c119.12-8.85,237.92-21.79,356.16-38.74
				c14.36-2.06,28.7-4.18,43.04-6.35c5.53-0.84,4.28-10.26-1.33-9.82c-111.33,8.75-222.66,17.5-333.99,26.25
				c-55.67,4.38-111.33,8.75-167,13.13c-53.7,4.22-107.63,7.3-161.16,13.31c-37.52,4.22-79.01,9.04-110.51-16.36
				c-3.6-2.91-7.14-5.91-10.46-9.14c-1.62-1.57-3.19-3.2-4.69-4.88c-0.76-0.85-1.5-1.71-2.23-2.59c-0.35-0.42-0.69-0.85-1.03-1.28
				c-1.05-1.3,0.56,0.79-0.44-0.57c-2.96-4.02-5.61-8.22-7.92-12.65c-1.3-2.51-2.48-5.07-3.62-7.66c-0.5-1.15,0.19,0.46,0,0.01
				c-0.14-0.33-0.28-0.67-0.41-1c-0.3-0.75-0.61-1.51-0.9-2.26c-0.59-1.51-1.15-3.03-1.69-4.55c-2.52-7.09-4.58-14.34-6.42-21.63
				c-5.3-21.09-8.82-42.62-12.01-64.12c-4.88-32.89-8.76-66.31-12.48-99.97c-5.48-49.53-10.42-99.12-15.3-148.72
				c-6.76-68.81-13.34-137.65-19.95-206.47c-8.85-92.09-17.74-184.18-26.77-276.25c-2.59-26.39-5.18-52.77-7.79-79.16
				C124.88,644.2,114.87,644.14,115.51,650.55L115.51,650.55z"/>
		</g>
	</g>
</g>
<g id="Ebene_9">
	
		<ellipse transform="matrix(0.9969 -0.0783 0.0783 0.9969 -58.2985 19.1895)" class="st3" cx="215.46" cy="752.73" rx="36.5" ry="43.5"/>
	
		<ellipse transform="matrix(0.9969 -0.0783 0.0783 0.9969 -71.6286 21.2776)" class="st3" cx="235.41" cy="923.69" rx="36.5" ry="43.5"/>
	
		<ellipse transform="matrix(0.9969 -0.0783 0.0783 0.9969 -84.9633 23.3269)" class="st3" cx="254.87" cy="1094.69" rx="36.5" ry="43.5"/>
	
		<ellipse transform="matrix(0.9969 -0.0783 0.0783 0.9969 -100.5736 26.1581)" class="st3" cx="283.15" cy="1295.09" rx="36.5" ry="43.5"/>
	
		<ellipse transform="matrix(0.9969 -0.0783 0.0783 0.9969 -114.6361 28.7274)" class="st3" cx="308.87" cy="1475.63" rx="36.5" ry="43.5"/>
</g>
<g id="Ebene_11">
	<g class="st4">
		<g>
			<path class="st5" d="M216.89,735c12.76,4.65,16.32,25.08,6.94,34.48c-9.11,9.12,5.03,23.27,14.14,14.14
				c20.65-20.68,11.11-58.1-15.77-67.9c-5.07-1.85-10.95,2.08-12.3,6.98C208.38,728.27,211.8,733.15,216.89,735L216.89,735z"/>
		</g>
	</g>
	<g class="st4">
		<g>
			<path class="st5" d="M235.64,908.01c12.76,6.68,15.57,25.54,5.53,35.39c-9.2,9.03,4.94,23.17,14.14,14.14
				c19.06-18.7,14.27-54.32-9.58-66.8C234.34,884.78,224.22,902.03,235.64,908.01L235.64,908.01z"/>
		</g>
	</g>
	<g class="st4">
		<g>
			<path class="st5" d="M253.56,1078.7c13.01,6.77,17.35,26.13,7.78,36.97c-3.57,4.05-3.99,10.15,0,14.14
				c3.64,3.64,10.56,4.07,14.14,0c17.95-20.36,12.82-55.55-11.83-68.39C252.25,1055.5,242.12,1072.75,253.56,1078.7L253.56,1078.7z"
				/>
		</g>
	</g>
	<g class="st4">
		<g>
			<path class="st5" d="M279.55,1281.84c9.79,6.9,10.76,23.15,2.9,31.59c-8.76,9.41,5.35,23.59,14.14,14.14
				c17.17-18.44,13.42-48.65-6.95-63c-4.42-3.11-11.12-0.79-13.68,3.59C273.03,1273.16,275.12,1278.72,279.55,1281.84
				L279.55,1281.84z"/>
		</g>
	</g>
	<g class="st4">
		<g>
			<path class="st5" d="M302.43,1457.52c11.64,9.24,13.69,27.3,3.08,37.98c-9.08,9.14,5.06,23.29,14.14,14.14
				c17.64-17.77,16.92-50.4-3.08-66.27c-4.23-3.35-10.02-4.13-14.14,0C298.95,1446.86,298.18,1454.15,302.43,1457.52L302.43,1457.52
				z"/>
		</g>
	</g>
	<g class="st4">
		<g>
			<path class="st5" d="M64.93,670.1c12.87,0,12.89-20,0-20C52.06,650.1,52.04,670.1,64.93,670.1L64.93,670.1z"/>
		</g>
	</g>
	<g class="st4">
		<g>
			<path class="st5" d="M64.93,670.1c12.87,0,12.89-20,0-20C52.06,650.1,52.04,670.1,64.93,670.1L64.93,670.1z"/>
		</g>
	</g>
</g>
<g id="Ebene_5">
	<g>
		<path class="st6" d="M176.08,729.28c25.33-1.06,68.8,1.02,47.75,20.1c-5.61,5.08-50.68,10.12-65.98,11.97
			c-22,2.66-66.15,8.69-69.57,35.81c-1.44,11.44,17.45,20.81,32.32,19.97c-0.35,12.37,3.28,28.43,2.94,40.79
			c-21.03-1.27-52.66-8.88-66.99-20.43c-14.33-11.55-21.9-28.33-18.18-44.49c4.79-20.82,27.13-37.74,52.21-46.81
			c25.08-9.07,57.38-14.91,84.58-17.34"/>
		<g>
			<path d="M176.08,733.45c9.82-0.39,19.7-0.37,29.49,0.61c4.21,0.42,8.44,1.05,12.52,2.22c1.88,0.54,6.44,1.59,7.13,3.86
				c0.5,1.66-2.3,4.41-3.49,5.5c-1.18,1.08-3.46,1.88-5.91,2.56c-8.71,2.42-17.77,3.69-26.7,4.99c-16.75,2.44-33.7,3.75-50.37,6.73
				c-16.98,3.04-37.6,8.01-48.65,22.46c-5.83,7.63-8.63,18.16-2.08,26.21c7.47,9.18,21.16,13.11,32.58,12.7
				c-1.39-1.39-2.78-2.78-4.17-4.17c-0.21,13.67,3.15,27.12,2.94,40.79c1.39-1.39,2.78-2.78,4.17-4.17
				c-16.33-1.07-32.91-4.62-48.15-10.65c-15.13-5.98-28.63-17.02-32.75-33.43c-4.19-16.71,5.34-31.66,17.74-42.04
				c14.36-12.01,32.22-18.46,50.05-23.3c21.15-5.75,42.92-9.33,64.73-11.33c5.3-0.49,5.35-8.82,0-8.33
				c-21.71,1.99-43.38,5.45-64.48,10.98c-19.67,5.16-39.04,12.2-55.02,25.14c-13.54,10.96-24.14,26.98-22.12,45.07
				c2,17.94,14.76,33.27,30.54,41.26c18.12,9.17,39.29,13.65,59.46,14.97c2.27,0.15,4.13-2.03,4.17-4.17
				c0.21-13.67-3.15-27.12-2.94-40.79c0.03-2.19-1.94-4.25-4.17-4.17c-5.6,0.2-11.17-0.75-16.35-2.91
				c-4.33-1.8-10.4-5.09-11.66-10.06c-2.02-8.02,6.52-16.19,12.46-19.98c15.15-9.67,34.45-12.26,51.94-14.39
				c17.63-2.15,35.36-3.99,52.79-7.48c6.01-1.2,13.21-2.22,17.83-6.6c4.47-4.24,8.18-10.74,4.19-16.52
				c-4.65-6.75-15.42-7.96-22.8-8.9c-10.9-1.38-21.96-1.44-32.92-1C170.74,725.33,170.71,733.66,176.08,733.45L176.08,733.45z"/>
		</g>
	</g>
</g>
<g id="Ebene_5_Kopie">
	<g>
		<path class="st6" d="M189.88,904.91c25.33-1.06,68.8,1.02,47.75,20.1c-5.61,5.08-50.68,10.12-65.98,11.97
			c-22,2.66-66.15,8.69-69.57,35.81c-1.44,11.44,17.45,20.81,32.32,19.97c-0.35,12.37,3.28,28.43,2.94,40.79
			c-21.03-1.27-52.66-8.88-66.99-20.43c-14.33-11.55-21.9-28.33-18.18-44.49c4.79-20.82,27.13-37.74,52.21-46.81
			s57.38-14.91,84.58-17.34"/>
		<g>
			<path d="M189.88,909.07c9.82-0.39,19.7-0.37,29.49,0.61c4.21,0.42,8.44,1.05,12.52,2.22c1.88,0.54,6.44,1.59,7.13,3.86
				c0.5,1.66-2.3,4.41-3.49,5.5c-1.18,1.08-3.46,1.88-5.91,2.56c-8.71,2.42-17.77,3.69-26.7,4.99c-16.75,2.44-33.7,3.75-50.37,6.73
				c-16.98,3.04-37.6,8.01-48.65,22.46c-5.83,7.63-8.63,18.16-2.08,26.21c7.47,9.18,21.16,13.11,32.58,12.7
				c-1.39-1.39-2.78-2.78-4.17-4.17c-0.21,13.67,3.15,27.12,2.94,40.79c1.39-1.39,2.78-2.78,4.17-4.17
				c-16.33-1.07-32.91-4.62-48.15-10.65c-15.13-5.98-28.63-17.02-32.75-33.43c-4.19-16.71,5.34-31.66,17.74-42.04
				c14.36-12.01,32.22-18.46,50.05-23.3c21.15-5.75,42.92-9.33,64.73-11.33c5.3-0.49,5.35-8.82,0-8.33
				c-21.71,1.99-43.38,5.45-64.48,10.98c-19.67,5.16-39.04,12.2-55.02,25.14c-13.54,10.96-24.14,26.98-22.12,45.07
				c2,17.94,14.76,33.27,30.54,41.26c18.12,9.17,39.29,13.65,59.46,14.97c2.27,0.15,4.13-2.03,4.17-4.17
				c0.21-13.67-3.15-27.12-2.94-40.79c0.03-2.19-1.94-4.25-4.17-4.17c-5.6,0.2-11.17-0.75-16.35-2.92
				c-4.33-1.8-10.4-5.09-11.66-10.06c-2.02-8.02,6.52-16.19,12.46-19.98c15.15-9.67,34.45-12.26,51.94-14.39
				c17.63-2.15,35.36-3.99,52.79-7.48c6.01-1.2,13.21-2.22,17.83-6.6c4.47-4.24,8.18-10.74,4.19-16.52
				c-4.65-6.75-15.42-7.96-22.8-8.9c-10.9-1.38-21.96-1.44-32.92-1C184.53,900.95,184.51,909.29,189.88,909.07L189.88,909.07z"/>
		</g>
	</g>
</g>
<g id="Ebene_5_Kopie_2">
	<g>
		<path class="st6" d="M204.73,1093.89c25.33-1.06,68.8,1.02,47.75,20.1c-5.61,5.08-50.68,10.12-65.98,11.97
			c-22,2.66-66.15,8.69-69.57,35.81c-1.44,11.44,23.15,23.83,38.01,22.99c1.19,26.24,2.62,27.44,4.41,41.19
			c-21.03-1.27-59.83-12.3-74.16-23.85s-21.9-28.33-18.18-44.49c4.79-20.82,27.13-37.74,52.21-46.81s57.38-14.91,84.58-17.34"/>
		<g>
			<path d="M204.73,1098.05c10.01-0.4,20.09-0.37,30.06,0.67c4.31,0.45,8.67,1.13,12.82,2.42c1.73,0.54,5.65,1.59,6.23,3.59
				c0.56,1.92-3.19,5.52-4.18,6.19c-1.49,1.02-5,1.85-7.26,2.42c-9.29,2.31-18.83,3.65-28.3,4.97c-17.23,2.41-34.71,3.67-51.77,7.18
				c-16.91,3.48-38.93,9.82-46.94,26.91c-4.64,9.91-2.21,18.31,6.3,25c9.09,7.15,21.6,11.91,33.25,11.51
				c-1.39-1.39-2.78-2.78-4.17-4.17c0.65,13.95,2.58,27.4,4.41,41.19c1.39-1.39,2.78-2.78,4.17-4.17
				c-16.07-1.08-32.24-5.45-47.35-10.87c-15.35-5.51-29.68-12.99-37.5-28.09c-8.65-16.7-2.65-34.07,10.12-46.58
				c13.82-13.53,32.11-20.9,50.4-26.16c22.41-6.44,45.59-10.34,68.79-12.47c5.3-0.49,5.35-8.82,0-8.33
				c-22.83,2.09-45.64,5.78-67.76,11.86c-20.34,5.58-40.67,13.49-56.25,28.19c-13.53,12.76-21.61,30.72-15.97,49.26
				c5.38,17.67,19.65,29.4,36.03,36.44c18.6,7.99,39.24,13.73,59.49,15.08c2.04,0.14,4.45-2.03,4.17-4.17
				c-1.83-13.8-3.76-27.25-4.41-41.19c-0.1-2.19-1.83-4.25-4.17-4.17c-10.25,0.35-21.99-4-29.57-10.92
				c-3.13-2.86-4.93-5.58-3.85-9.84c1.06-4.18,3.39-7.76,6.46-10.75c13.3-12.94,35.49-15.96,53.08-18.29
				c17.89-2.37,35.87-4.09,53.64-7.34c6.27-1.15,14.18-1.99,19.62-5.66c5.28-3.56,10.25-11.24,6.61-17.49
				c-4.12-7.06-14.91-8.46-22.16-9.44c-11.26-1.52-22.69-1.6-34.03-1.15C199.38,1089.93,199.36,1098.27,204.73,1098.05
				L204.73,1098.05z"/>
		</g>
	</g>
</g>
<g id="Ebene_5_Kopie_3">
	<g>
		<path class="st6" d="M225.38,1281.26c25.33-1.06,68.8,1.02,47.75,20.1c-5.61,5.08-50.68,10.12-65.98,11.97
			c-22,2.66-66.15,8.69-69.57,35.81c-1.44,11.44,23.26,17.24,38.12,16.41c1.72,21.92,6.77,36.17,6.42,48.53
			c-21.03-1.27-61.95-13.05-76.28-24.6s-21.9-28.33-18.18-44.49c4.79-20.82,27.13-37.74,52.21-46.81
			c25.08-9.07,57.38-14.91,84.58-17.34"/>
		<g>
			<path d="M225.38,1285.42c10.01-0.4,20.09-0.37,30.06,0.67c4.31,0.45,8.67,1.13,12.82,2.42c1.71,0.53,5.64,1.59,6.24,3.6
				c0.56,1.87-3.2,5.52-4.19,6.19c-1.38,0.94-4.71,1.77-6.83,2.31c-9.22,2.34-18.72,3.67-28.12,4.99
				c-17.24,2.42-34.73,3.69-51.81,7.15c-16.8,3.4-38.64,9.51-47.08,26.14c-4.63,9.13-3.9,17.91,5.24,23.54
				c9.69,5.97,22.79,7.77,33.99,7.27c-1.39-1.39-2.78-2.78-4.17-4.17c0.78,9.26,2.21,18.42,3.88,27.56
				c1.26,6.94,2.65,13.89,2.54,20.97c1.39-1.39,2.78-2.78,4.17-4.17c-15.94-1.07-31.96-5.5-46.99-10.75
				c-15.19-5.3-29.92-11.99-38.52-26.36c-9.97-16.66-5.45-34.8,7.63-48.16c13.69-13.97,32.17-21.59,50.63-26.96
				c22.65-6.59,46.12-10.55,69.59-12.7c5.3-0.49,5.35-8.82,0-8.33c-23.11,2.12-46.2,5.87-68.58,12.08
				c-20.5,5.69-41.05,13.85-56.5,28.99c-13.68,13.4-21.07,32.33-13.96,50.99c6.69,17.57,21.15,27.95,37.89,34.85
				c18.45,7.6,38.83,13.34,58.81,14.68c2.27,0.15,4.13-2.03,4.17-4.17c0.25-16.23-5.07-32.38-6.42-48.53
				c-0.18-2.17-1.76-4.27-4.17-4.17c-9.82,0.44-21.83-0.84-30.22-6.41c-7.49-4.98-1.5-14.12,3.51-18.86
				c13.46-12.73,35.6-15.7,53.19-18c17.92-2.35,35.93-4.09,53.71-7.38c6.22-1.15,14.26-1.98,19.49-5.88
				c5.01-3.73,9.79-10.99,6.18-17.17c-4.11-7.05-14.92-8.46-22.16-9.44c-11.26-1.52-22.69-1.6-34.03-1.15
				C220.04,1277.3,220.01,1285.64,225.38,1285.42L225.38,1285.42z"/>
		</g>
	</g>
</g>
<g id="Ebene_5_Kopie_4">
	<g>
		<path class="st6" d="M260.29,1456.38c25.33-1.06,68.8,1.02,47.75,20.1c-5.61,5.08-50.68,10.12-65.98,11.97
			c-22,2.66-66.15,8.69-69.57,35.81c-1.44,11.44,29.3,11.5,29.3,11.5s8.18,33.78,12.71,51.14c-21.03-1.27-59.42-10.75-73.75-22.3
			s-21.9-28.33-18.18-44.49c4.79-20.82,27.13-37.74,52.21-46.81s57.38-14.91,84.58-17.34"/>
		<g>
			<path d="M260.29,1460.54c10.2-0.41,20.49-0.38,30.64,0.73c3.59,0.39,17.78,1.47,18.51,6.17c0.37,2.34-3.89,5.78-4.66,6.2
				c-2.57,1.41-5.78,1.96-8.61,2.61c-9.96,2.29-20.14,3.7-30.26,5.06c-17.92,2.4-36.14,3.66-53.74,7.95
				c-17.01,4.14-39.28,12.4-43.36,31.83c-3.6,17.15,21.26,18.76,32.98,18.81c-1.34-1.02-2.68-2.04-4.02-3.06
				c4.13,17.07,8.28,34.15,12.71,51.14c1.34-1.76,2.68-3.52,4.02-5.27c-15.94-1.05-31.96-4.8-47.08-9.85
				c-15.46-5.16-29.54-12.46-37.36-27.56c-8.65-16.7-2.65-34.07,10.12-46.58c13.82-13.53,32.11-20.9,50.4-26.16
				c22.41-6.44,45.59-10.34,68.79-12.47c5.3-0.49,5.35-8.82,0-8.33c-22.83,2.09-45.64,5.78-67.76,11.86
				c-20.34,5.58-40.67,13.49-56.25,28.19c-13.53,12.76-21.61,30.72-15.97,49.26c5.34,17.52,19.38,29.3,35.75,36.08
				c18.6,7.7,39.27,12.58,59.36,13.9c2.76,0.18,4.66-2.8,4.02-5.27c-4.43-17-8.58-34.07-12.71-51.14c-0.43-1.78-2.23-3.05-4.02-3.06
				c-5.3-0.02-10.7-0.5-15.88-1.69c-2.43-0.56-7.7-1.48-9.01-4.02c-1.31-2.54,1.3-7.19,2.63-9.37c4.81-7.92,14.02-12.47,22.43-15.52
				c9.58-3.47,19.65-5.49,29.71-7c18.37-2.77,36.89-4.31,55.21-7.45c7.11-1.22,15.72-2.04,22.11-5.7
				c5.47-3.13,10.95-10.94,7.86-17.32c-3.56-7.34-14.27-8.98-21.41-10.01c-11.62-1.66-23.44-1.77-35.14-1.3
				C254.95,1452.42,254.92,1460.76,260.29,1460.54L260.29,1460.54z"/>
		</g>
	</g>
</g>
<g id="Ebene_12">
	<g class="st7">
		<path d="M88.32,747.03c-45.66,22.63-29.14,96.93,28.53,86.24c-0.71,4.57,3.12,15.81,2.41,20.38
			c-29.47-2.54-65.71-12.76-74.04-40.48s15.88-55.34,43.42-66.26"/>
		<g>
			<path d="M85.79,742.72c-17.53,8.91-28.64,26.66-28.77,46.37c-0.11,18.1,9.23,36.34,25.63,44.78c11.07,5.69,23.42,6.36,35.52,4.24
				c-2.11-1.61-4.22-3.21-6.33-4.82c-0.65,6.88,3.06,13.54,2.41,20.38c1.67-1.67,3.33-3.33,5-5c-23.13-2.08-54.5-8.19-66.65-30.63
				c-15.12-27.92,13.24-56.45,37.36-66.29c5.88-2.4,3.31-12.07-2.66-9.64c-23.59,9.62-46.8,30.09-48.67,57.08
				c-1.76,25.3,18.24,42.51,39.86,50.83c13.01,5.01,26.92,7.41,40.76,8.66c2.87,0.26,4.76-2.51,5-5c0.65-6.88-3.06-13.54-2.41-20.38
				c0.33-3.52-3.44-5.33-6.33-4.82c-16.19,2.85-33.04-1.86-42.09-16.33c-7.71-12.33-8.61-28.76-2.02-41.78
				c4.27-8.44,11.05-14.73,19.44-18.99C96.58,748.43,91.52,739.8,85.79,742.72L85.79,742.72z"/>
		</g>
	</g>
</g>
<g id="Ebene_12_Kopie">
	<g class="st7">
		<path d="M99.57,926.58c-45.66,22.63-26.24,97.43,31.42,86.74c-0.71,4.57,3.12,15.81,2.41,20.38
			c-29.47-2.54-65.71-12.76-74.04-40.48s11.47-53.48,40.22-66.55"/>
		<g>
			<path d="M97.04,922.26c-17.52,8.91-28.3,26.85-27.79,46.54c0.48,18.41,10.49,36.6,27.19,45.05c11.22,5.67,23.64,6.45,35.87,4.3
				c-2.11-1.61-4.22-3.21-6.33-4.82c-0.65,6.88,3.06,13.54,2.41,20.38c1.67-1.67,3.33-3.33,5-5c-23.35-2.1-55.67-8.39-67.22-31.71
				c-14.12-28.52,11.92-54.86,35.91-66.01c5.83-2.71,0.76-11.33-5.05-8.63c-22.57,10.49-44.07,30.72-44.61,57.22
				c-0.51,25.23,18.26,42.03,40.2,50.47c13.01,5.01,26.92,7.41,40.76,8.66c2.87,0.26,4.76-2.51,5-5c0.65-6.88-3.06-13.54-2.41-20.38
				c0.33-3.52-3.44-5.33-6.33-4.82c-16.46,2.89-33.58-2.1-43.08-16.5c-8.08-12.23-9.87-28.65-3.57-42.05
				c4-8.51,10.77-14.82,19.08-19.05C107.83,927.98,102.77,919.35,97.04,922.26L97.04,922.26z"/>
		</g>
	</g>
</g>
<g id="Ebene_12_Kopie_2">
	<g class="st7">
		<path d="M114.37,1114.98c-45.66,22.63-15.76,93.1,41.9,82.42c-0.71,4.57,1.81,21.93,1.1,26.5c-29.47-2.54-74.88-14.55-83.21-42.27
			s13.48-61.17,41.78-67.24"/>
		<g>
			<path d="M111.85,1110.67c-17.13,8.73-26.87,26.07-24.22,45.26c2.57,18.62,15.63,34.98,32.74,42.49
				c11.84,5.2,24.58,6.03,37.24,3.81c-2.11-1.61-4.22-3.21-6.33-4.82c-1.03,8.79,2.13,17.71,1.1,26.5c1.67-1.67,3.33-3.33,5-5
				c-21.6-1.94-45.04-7.17-63.13-19.67c-8.41-5.81-14.82-13.73-16.45-24.03c-1.8-11.41,1.76-23.17,7.84-32.79
				c7.21-11.42,18.4-20.16,31.64-23.2c6.27-1.44,3.62-11.08-2.66-9.64c-26.33,6.05-47.02,32.2-47.25,59.18
				c-0.24,27.57,23.06,42.89,46.54,51.12c13.99,4.9,28.72,7.71,43.47,9.03c2.91,0.26,4.71-2.52,5-5c1.03-8.79-2.13-17.71-1.1-26.5
				c0.41-3.52-3.51-5.32-6.33-4.82c-21.76,3.82-44.13-5.59-53.85-26c-8.72-18.3-2.27-38.07,15.8-47.28
				C122.63,1116.38,117.58,1107.75,111.85,1110.67L111.85,1110.67z"/>
		</g>
	</g>
</g>
<g id="Ebene_12_Kopie_3">
	<g class="st7">
		<path d="M139.23,1300.94c-49.53,22.93-27.87,99.06,34.57,88c-0.8,4.58,3.27,15.8,2.48,20.38c-31.86-2.35-71-12.35-79.84-40.03
			s11.16-62.5,41.82-68.75"/>
		<g>
			<path d="M136.6,1296.45c-18.39,8.73-30.6,26.89-29.84,47.51c0.72,19.37,12.25,37.61,29.93,45.84c12.16,5.66,25.4,6.36,38.48,4.16
				c-2.19-1.67-4.39-3.34-6.58-5.02c-0.75,6.89,3.22,13.54,2.48,20.38c1.73-1.73,3.47-3.47,5.2-5.2
				c-21.68-1.67-47.65-5.79-64.43-20.9c-16.76-15.09-14.7-39.53-2.72-56.97c7.22-10.51,18.06-17.96,30.52-20.68
				c6.54-1.43,3.77-11.46-2.77-10.03c-25.59,5.58-44.88,28.93-47.46,54.71c-1.24,12.4,1.91,24.9,9.75,34.68
				c7.88,9.83,19.33,16.05,30.95,20.4c14.73,5.52,30.53,8,46.16,9.2c3.02,0.23,4.92-2.59,5.2-5.2c0.75-6.89-3.22-13.54-2.48-20.38
				c0.4-3.68-3.63-5.51-6.58-5.02c-17.55,2.96-36.4-1.68-47.18-16.69c-8.68-12.09-10.92-28.84-4.17-42.35
				c4.45-8.92,11.87-15.22,20.79-19.45C147.9,1302.56,142.63,1293.59,136.6,1296.45L136.6,1296.45z"/>
		</g>
	</g>
</g>
<g id="Ebene_12_Kopie_4">
	<g class="st7">
		<path d="M172.92,1484.31c-45.66,22.63-29.91,91.7,27.75,81.01c-0.71,4.57,3.12,15.81,2.41,20.38
			c-29.47-2.54-65.71-12.76-74.04-40.48s11.5-54.5,39.8-60.56"/>
		<g>
			<path d="M170.4,1480c-17.02,8.65-28.81,25.43-29.04,44.81c-0.2,17.31,9.35,34.24,25.2,41.74c11.19,5.29,23.41,5.73,35.44,3.61
				c-2.11-1.61-4.22-3.21-6.33-4.82c-0.65,6.88,3.06,13.54,2.41,20.38c1.67-1.67,3.33-3.33,5-5c-23.3-2.09-55-8.3-66.94-31.17
				c-6-11.49-5.05-25.73,1.28-36.84c6.97-12.24,19.2-20.13,32.75-23.22c6.27-1.43,3.62-11.07-2.66-9.64
				c-24.06,5.47-44.49,25.54-45.36,51.02c-0.88,25.54,17.98,42.65,40.18,51.19c13.01,5.01,26.92,7.41,40.76,8.66
				c2.87,0.26,4.76-2.51,5-5c0.65-6.88-3.06-13.54-2.41-20.38c0.33-3.52-3.44-5.33-6.33-4.82c-19.83,3.49-40.79-4.15-46.59-24.94
				c-5.42-19.44,5.35-38.12,22.69-46.93C181.18,1485.71,176.13,1477.08,170.4,1480L170.4,1480z"/>
		</g>
	</g>
</g>
<g id="Ebene_6">
</g>
<g id="Ebene_10">
</g>
<g id="Ebene_19">
	<g class="st2">
		<g>
			<path class="st5" d="M945.84,605.9c23.71,10.22,24.82,43.98,27.95,65.77c4.95,34.45,9.16,69,12.65,103.63
				c1.95,19.34,3.67,38.7,5.19,58.08c0.5,6.37,10.5,6.43,10,0c-2.84-36.46-6.45-72.85-10.87-109.15
				c-2.16-17.78-4.51-35.53-7.05-53.25c-2.05-14.32-3.5-29.09-8.1-42.88c-4.31-12.91-11.77-25.24-24.73-30.82
				C945.04,594.75,939.94,603.36,945.84,605.9L945.84,605.9z"/>
		</g>
	</g>
	<g class="st2">
		<g>
			<path class="st5" d="M1005.12,878.15c6.43,0,6.45-10,0-10C998.68,868.15,998.67,878.15,1005.12,878.15L1005.12,878.15z"/>
		</g>
	</g>
	<g class="st2">
		<g>
			<path class="st5" d="M932.48,661c7.21,122.7,14.42,245.4,21.63,368.09c2.03,34.49,4.05,68.98,6.08,103.46
				c0.38,6.4,10.38,6.44,10,0c-7.21-122.7-14.42-245.4-21.63-368.09c-2.03-34.49-4.05-68.98-6.08-103.46
				C942.1,654.61,932.1,654.56,932.48,661L932.48,661z"/>
		</g>
	</g>
	<g class="st2">
		<g>
			<path class="st5" d="M973.39,1182.43c6.43,0,6.45-10,0-10C966.95,1172.43,966.94,1182.43,973.39,1182.43L973.39,1182.43z"/>
		</g>
	</g>
</g>
<g id="Ebene_24">
</g>
<g id="Ebene_21">
	<g>
		<g>
			<path d="M391.6,925.75c132.15-9.39,264.29-18.78,396.44-28.17c37.19-2.64,74.37-5.29,111.56-7.93c9.57-0.68,9.65-15.69,0-15
				c-132.15,9.39-264.29,18.78-396.44,28.17c-37.19,2.64-74.37,5.29-111.56,7.93C382.03,911.43,381.95,926.44,391.6,925.75
				L391.6,925.75z"/>
		</g>
	</g>
	<g>
		<g>
			<path d="M392.29,1318.01c132.15-9.39,264.29-18.78,396.44-28.17c37.19-2.64,74.37-5.29,111.56-7.93c9.57-0.68,9.65-15.69,0-15
				c-132.15,9.39-264.29,18.78-396.44,28.17c-37.19,2.64-74.37,5.29-111.56,7.93C382.72,1303.7,382.64,1318.7,392.29,1318.01
				L392.29,1318.01z"/>
		</g>
	</g>
	<g>
		<g>
			<path d="M390.78,1065.32c66.6-4.96,133.19-9.92,199.79-14.88c66.6-4.96,133.19-9.92,199.79-14.88
				c37.77-2.81,75.54-5.63,113.31-8.44c9.57-0.71,9.65-15.72,0-15c-66.6,4.96-133.19,9.92-199.79,14.88s-133.19,9.92-199.79,14.88
				c-37.77,2.81-75.54,5.63-113.31,8.44C381.21,1051.04,381.14,1066.04,390.78,1065.32L390.78,1065.32z"/>
		</g>
	</g>
	<g>
		<g>
			<path d="M398.76,1432.43c66.6-4.96,133.19-9.92,199.79-14.88s133.19-9.92,199.79-14.88c37.77-2.81,75.54-5.63,113.31-8.44
				c9.57-0.71,9.65-15.72,0-15c-66.6,4.96-133.19,9.92-199.79,14.88c-66.6,4.96-133.19,9.92-199.79,14.88
				c-37.77,2.81-75.54,5.63-113.31,8.44C389.19,1418.15,389.11,1433.15,398.76,1432.43L398.76,1432.43z"/>
		</g>
	</g>
	<g>
		<g>
			<path d="M386.09,1213.4c68.94-11.08,138-21.44,207.16-31.07c69.48-9.67,139.06-18.58,208.74-26.76
				c39.11-4.59,78.25-8.95,117.42-13.08c4.03-0.42,7.5-3.14,7.5-7.5c0-3.73-3.45-7.93-7.5-7.5c-70.1,7.39-140.12,15.52-210.05,24.39
				c-69.94,8.88-139.78,18.49-209.51,28.84c-39.28,5.83-78.53,11.9-117.74,18.2c-3.99,0.64-6.25,5.63-5.24,9.23
				C378.05,1212.41,382.06,1214.04,386.09,1213.4L386.09,1213.4z"/>
		</g>
	</g>
</g>
<g id="Ebene_22">
	<g class="st8">
		<g>
			<path class="st5" d="M114.14,763.35c25.05-3.07,50.1-6.14,75.15-9.21c4.02-0.49,7.5-3.09,7.5-7.5c0-3.67-3.45-8-7.5-7.5
				c-25.05,3.07-50.1,6.14-75.15,9.21c-4.02,0.49-7.5,3.09-7.5,7.5C106.64,759.52,110.09,763.85,114.14,763.35L114.14,763.35z"/>
		</g>
	</g>
	<g class="st8">
		<g>
			<path class="st5" d="M124.95,939.58c24.76-7.76,50.29-12.03,76.23-12.62c9.64-0.22,9.67-15.22,0-15
				c-27.21,0.63-54.25,5.02-80.22,13.16C111.78,927.99,115.7,942.48,124.95,939.58L124.95,939.58z"/>
		</g>
	</g>
	<g class="st8">
		<g>
			<path class="st5" d="M141.5,1128.79c24.91-4.77,49.83-9.53,74.74-14.3c9.47-1.81,5.46-16.27-3.99-14.46
				c-24.91,4.77-49.83,9.53-74.74,14.3C128.04,1116.14,132.05,1130.6,141.5,1128.79L141.5,1128.79z"/>
		</g>
	</g>
	<g class="st8">
		<g>
			<path class="st5" d="M162.95,1315.93c24.01-8.46,48.98-13.28,74.43-14.17c9.63-0.33,9.67-15.34,0-15
				c-26.73,0.93-53.18,5.82-78.41,14.7C149.92,1304.65,153.81,1319.15,162.95,1315.93L162.95,1315.93z"/>
		</g>
	</g>
	<g class="st8">
		<g>
			<path class="st5" d="M206.76,1487.56c24.4-4.17,48.8-8.34,73.2-12.51c9.5-1.62,5.47-16.08-3.99-14.46
				c-24.4,4.17-48.8,8.34-73.2,12.51C193.28,1474.72,197.3,1489.18,206.76,1487.56L206.76,1487.56z"/>
		</g>
	</g>
	<g class="st8">
		<g>
			<path class="st5" d="M1581.85,912.28c9.65,0,9.67-15,0-15C1572.2,897.28,1572.18,912.28,1581.85,912.28L1581.85,912.28z"/>
		</g>
	</g>
	<g class="st8">
		<g>
			<path class="st5" d="M827.61,1432.42c9.65,0,9.67-15,0-15C817.96,1417.42,817.94,1432.42,827.61,1432.42L827.61,1432.42z"/>
		</g>
	</g>
</g>
<g id="Ebene_23">
</g>
<g id="Ebene_25">
	<circle class="st9" cx="559.66" cy="728.85" r="40.25"/>
	<circle class="st9" cx="713.66" cy="717.48" r="40.25"/>
	<ellipse class="st10" cx="729.16" cy="703.04" rx="15.5" ry="14.44"/>
	<ellipse class="st10" cx="569.16" cy="710.92" rx="15.5" ry="14.44"/>
	<ellipse class="st11" cx="553.66" cy="738.16" rx="4.5" ry="5.06"/>
	<ellipse class="st11" cx="709.16" cy="725.36" rx="4.5" ry="5.06"/>
	
		<ellipse transform="matrix(0.998 -0.0634 0.0634 0.998 -49.283 34.2467)" class="st12" cx="514.78" cy="793.39" rx="38.95" ry="15"/>
	
		<ellipse transform="matrix(0.998 -0.0634 0.0634 0.998 -47.693 50.662)" class="st12" cx="774.14" cy="776.55" rx="38.95" ry="15"/>
	<g>
		<g>
			<path d="M586.97,796.45c6.39,28.1,35.22,49.53,64.15,46.07c28.87-3.45,51.89-29.06,52.73-58.03c0.28-9.66-14.72-9.65-15,0
				c-0.61,21.06-17.96,40.76-39.12,43.19c-22.12,2.54-43.46-13.92-48.3-35.22C599.29,783.05,584.83,787.03,586.97,796.45
				L586.97,796.45z"/>
		</g>
	</g>
</g>
<g id="Ebene_26">
</g>
<g id="Ebene_27">
	<g>
		<g id="Ebene_3_1_">
			<g class="st8">
				<g>
					<path d="M767.61,625.9c3.33,0,6.6-6.49,2.94-6.49C767.22,619.4,763.96,625.9,767.61,625.9L767.61,625.9z"/>
				</g>
			</g>
			<g class="st8">
				<path d="M761.83,621.15c3.85,50.74,7.71,101.49,11.57,152.23c57.5-36.7,115.01-73.41,172.51-110.11
					c32.06-20.46,62.33-52.61,103.89-50.81c43.08,1.87,93.09,1.52,134.24,3.31c99.18,4.31,176.64,0.02,275.04-11.14
					c30.11-3.42,76.33-26.2,98.81-43.19c27.37-20.68,30.36-43.29,32.96-73.94c10.07-118.83-15.01-238.11-54.2-352.7
					c-9.72-28.42-22.68-59.21-53.44-74.08c-27.23-13.16-61.15-10.19-92.32-6.34c-247.24,30.57-489.03,91.41-715.12,179.94
					c-24.95,9.77-51.4,21.23-63.65,41.74c-9.68,16.19-11.36,35.52-6.97,53.23c18.66,75.27,28.7,125.02,42.8,204.02
					c3.98,22.3,14.07,57.27,37.39,68.82c22.82,11.3,48.61,11.16,73.83,8.8c2.1,3.41,4.21,6.82,6.32,10.24"/>
				<g>
					<path d="M758.75,622.57c3.85,50.74,7.71,101.49,11.57,152.23c0.16,2.11,2.23,2.13,3.92,1.05
						c44.04-28.1,88.07-56.21,132.1-84.32c19.51-12.45,39.49-24.5,58-37.98c15.25-11.12,30.29-23.07,48.46-30.87
						c9.04-3.88,18.95-6.57,29.16-6.98c11.81-0.47,23.91,0.69,35.74,0.97c24.92,0.61,49.84,0.81,74.76,1.39
						c25.13,0.58,50.21,1.91,75.35,2.36c25.09,0.44,50.2,0.29,75.28-0.51c50.04-1.61,99.89-5.9,149.5-11.43
						c19.55-2.18,37.42-8.03,54.82-15.64c17.39-7.6,34.37-16.59,49.19-27.35c14.54-10.55,25.17-23.69,30.5-39.15
						c5.71-16.53,6.52-34.18,7.66-51.25c2.96-44.46,1.09-89.09-4.51-133.36c-5.51-43.6-14.58-86.86-26.18-129.61
						c-5.85-21.54-12.34-42.96-19.36-64.25c-5.85-17.76-11.55-35.74-21.02-52.46c-8.34-14.74-20.09-28.54-37.11-37.14
						c-19.69-9.94-43.4-11.3-65.86-9.93c-24.59,1.5-49.08,5.3-73.38,8.66c-25.55,3.54-51.05,7.41-76.47,11.59
						c-101.06,16.65-200.91,38.37-298.83,64.99c-97.61,26.53-193.31,57.9-286.39,93.95c-19.25,7.45-39.16,14.82-55.42,26.42
						c-16.41,11.71-26.34,27.56-29.36,45.32c-3.48,20.37,3.36,40.15,8.11,59.99c4.46,18.65,8.74,37.34,12.78,56.05
						c8.27,38.34,15.48,76.83,22.37,115.35c5.08,28.38,12.83,65.78,48.35,78.48c20.86,7.46,43.82,7.02,65.96,4.99
						c-0.64-0.17-1.28-0.34-1.93-0.51c2.1,3.41,4.21,6.82,6.32,10.24c1.62,2.62,6.83-2.89,5.3-5.36c-2.1-3.41-4.21-6.82-6.32-10.24
						c-0.36-0.59-1.29-0.57-1.93-0.51c-23.71,2.17-48.66,2.24-70.12-7.6c-15.97-7.32-24.17-22.04-29.69-35.83
						c-6.15-15.36-8.82-31.28-11.7-47.22c-3.49-19.37-7.07-38.73-10.85-58.06c-7.13-36.45-15.09-72.77-23.82-108.98
						c-4.85-20.11-11.17-39.83-4.92-60.27c5.56-18.19,20.28-30.88,39.17-40.43c19.31-9.76,40.52-17.1,61.07-24.85
						c22.76-8.58,45.67-16.88,68.72-24.91c46.97-16.35,94.54-31.51,142.61-45.49c94.36-27.45,190.66-50.32,288.24-68.45
						c49.38-9.18,99.09-17.14,149.04-23.86c23.73-3.19,47.82-7.1,71.92-7.41c22.25-0.28,44.51,3.44,61.98,15.52
						c15.47,10.7,25.19,26.16,32.24,41.53c8.2,17.89,13.82,36.65,19.68,55.13c13.31,41.94,24.51,84.36,32.6,127.21
						c8.08,42.74,13.02,85.92,13.82,129.19c0.4,21.74-0.25,43.49-2.05,65.19c-1.35,16.13-2.57,32.95-10.49,47.95
						c-7.63,14.45-21.84,24.93-36.98,33.97c-16.57,9.9-34.67,18.56-53.61,24.93c-20.08,6.75-41.39,8.14-62.72,10.28
						c-24.87,2.5-49.78,4.61-74.76,6.12c-48.75,2.95-97.64,3.46-146.48,1.79c-48.24-1.65-96.54-1.88-144.76-3.71
						c-10.06-0.38-19.62-0.42-29.38,1.94c-8.66,2.1-16.83,5.45-24.45,9.44c-16.94,8.87-31.39,20.5-46.49,31.3
						c-18.95,13.55-39.45,25.72-59.27,38.38c-21.24,13.56-42.48,27.12-63.72,40.67c-20.72,13.23-41.44,26.45-62.16,39.68
						c1.31,0.35,2.62,0.7,3.92,1.05c-3.85-50.74-7.71-101.49-11.57-152.23C764.59,615.53,758.54,619.84,758.75,622.57L758.75,622.57
						z"/>
				</g>
			</g>
			<g class="st8">
				<g>
					<path d="M1536.6,744.84c3.33,0,6.6-6.49,2.94-6.49C1536.22,738.35,1532.95,744.84,1536.6,744.84L1536.6,744.84z"/>
				</g>
			</g>
		</g>
		<g id="Ebene_3_Kopie">
			<g>
				<g>
					<path class="st13" d="M787.57,604.13c3.33,0,6.6-6.49,2.94-6.49C787.18,597.64,783.91,604.13,787.57,604.13L787.57,604.13z"/>
				</g>
			</g>
			<g>
				<path class="st14" d="M781.79,599.38c3.85,50.74,7.71,101.49,11.57,152.23c57.5-36.7,115.01-73.41,172.51-110.11
					c32.06-20.46,62.33-52.61,103.89-50.81c43.08,1.87,93.09,1.52,134.24,3.31c99.18,4.31,176.64,0.02,275.04-11.14
					c30.11-3.42,76.33-26.2,98.81-43.19c27.37-20.68,30.36-43.29,32.96-73.94c10.07-118.83-15.01-238.11-54.2-352.7
					c-9.72-28.42-22.68-59.21-53.44-74.08c-27.23-13.16-61.15-10.19-92.32-6.34c-247.24,30.57-489.03,91.41-715.12,179.94
					c-24.95,9.77-51.39,21.22-63.65,41.73c-9.68,16.19-11.36,35.52-6.97,53.23c18.66,75.27,28.7,125.02,42.8,204.02
					c3.98,22.3,18.13,52.92,37.39,68.82c19.26,15.9,52.31,22.56,73.83,8.8c2.1,3.41,4.21,6.82,6.32,10.24"/>
				<g>
					<path class="st13" d="M778.7,600.8c3.85,50.74,7.71,101.49,11.57,152.23c0.16,2.11,2.23,2.13,3.92,1.05
						c44.04-28.1,88.07-56.21,132.1-84.32c19.9-12.7,40.24-25.01,59.09-38.79c15.21-11.11,30.32-23,48.6-30.59
						c8.9-3.7,18.64-6.16,28.63-6.48c11.6-0.37,23.43,0.72,35.03,1c25.49,0.62,51,0.82,76.48,1.42c25.16,0.6,50.28,1.93,75.45,2.35
						c25.35,0.42,50.72,0.23,76.05-0.63c50.14-1.7,100.08-6.08,149.78-11.67c19.36-2.18,37.54-8.83,54.61-16.5
						c16.89-7.59,33.48-16.45,47.82-27.11c14.6-10.86,24.77-24.38,29.85-40.09c5.48-16.94,6.15-35.08,7.22-52.5
						c2.74-44.47,0.66-89.1-5.11-133.35c-5.75-44.11-15.11-87.86-27.04-131.1c-5.94-21.52-12.52-42.92-19.61-64.2
						c-5.73-17.21-11.5-34.56-21.09-50.62c-8.88-14.88-21.66-28.52-39.66-36.36c-20.18-8.78-43.63-9.36-65.84-7.71
						c-25.32,1.88-50.53,5.74-75.58,9.27c-25.25,3.55-50.43,7.42-75.54,11.61c-101.62,16.93-202.01,38.98-300.41,65.99
						c-97.8,26.84-193.68,58.55-286.9,94.95c-18.91,7.38-38.35,15.21-53.3,27.63c-15.36,12.75-23.27,29.72-24.84,47.57
						c-0.88,10.03,0.64,19.77,3.06,29.57c2.55,10.34,5.06,20.69,7.51,31.05c4.37,18.47,8.55,36.96,12.5,55.49
						c3.94,18.52,7.64,37.07,11.19,55.65c3.89,20.38,6.95,40.92,11.29,61.24c3.54,16.6,10.68,33.02,20.68,47.68
						c9.87,14.47,23.55,26.73,42.9,32.26c17.23,4.93,35.92,4.05,50.82-5.15c-1.16,0.07-2.33,0.14-3.49,0.21
						c2.1,3.41,4.21,6.82,6.32,10.24c1.62,2.62,6.83-2.89,5.3-5.36c-2.1-3.41-4.21-6.82-6.32-10.24c-0.73-1.18-2.68-0.29-3.49,0.21
						c-16.3,10.07-38.89,7.64-55.76-0.08c-17.89-8.18-29.25-22.96-37.45-38.06c-8.76-16.15-13.04-32.74-16.17-50.15
						c-3.51-19.51-7.1-39.01-10.89-58.49c-7.13-36.62-15.08-73.12-23.82-109.5c-4.76-19.82-11.4-39.44-6.2-59.69
						c4.76-18.51,18.48-31.87,37.39-41.84c19.15-10.09,40.52-17.43,61.11-25.21c23.02-8.71,46.21-17.13,69.53-25.27
						c46.4-16.18,93.37-31.2,140.84-45.07c94.89-27.73,191.74-50.82,289.9-69.12c49.37-9.2,99.08-17.2,149.02-23.95
						c23.78-3.21,47.91-7.14,72.04-7.62c22.3-0.45,44.78,2.89,62.57,14.75c15.69,10.46,25.63,25.8,32.8,41.13
						c8.4,17.98,14.05,36.89,19.97,55.51c13.25,41.68,24.42,83.84,32.55,126.42c8.21,42.99,13.24,86.43,14.1,129.96
						c0.43,21.74-0.19,43.49-1.97,65.19c-1.32,16.04-2.47,32.74-10.04,47.74c-7.35,14.58-21.29,25.16-36.37,34.29
						c-16.6,10.05-34.8,18.78-53.8,25.28c-20.37,6.97-41.94,8.42-63.64,10.6c-24.57,2.47-49.21,4.56-73.89,6.07
						c-48.72,2.98-97.59,3.52-146.39,1.88c-24.34-0.82-48.64-1.73-73-2.14c-24.24-0.4-48.49-0.68-72.71-1.6
						c-9.82-0.37-19.18-0.43-28.72,1.79c-8.9,2.07-17.3,5.5-25.1,9.59c-16.94,8.86-31.39,20.5-46.49,31.3
						c-18.95,13.55-39.45,25.72-59.27,38.38c-21.24,13.56-42.48,27.12-63.72,40.67c-20.72,13.23-41.44,26.45-62.16,39.68
						c1.31,0.35,2.62,0.7,3.92,1.05c-3.85-50.74-7.71-101.49-11.57-152.23C784.55,593.77,778.5,598.08,778.7,600.8L778.7,600.8z"/>
				</g>
			</g>
			<g>
				<g>
					<path class="st13" d="M1556.57,723.08c3.33,0,6.6-6.49,2.94-6.49C1556.17,716.59,1552.91,723.08,1556.57,723.08L1556.57,723.08
						z"/>
				</g>
			</g>
		</g>
		<g id="Ebene_2_1_">
			<g>
				<g>
					<path d="M780.21,591.15c-16.75,1.63-34.23,2.53-50.76-0.86c-7.97-1.63-15.72-4.46-22.11-8.79
						c-7.21-4.88-12.56-11.77-16.92-18.51c-9.41-14.54-13.98-30.88-17.94-46.93c-4.65-18.82-9.04-37.68-13.55-56.52
						c-9.25-38.62-18.49-77.24-27.74-115.85c-7.63-31.87-18.24-70.17,8.22-98.19c11.4-12.07,27.21-20.62,43.41-27.66
						c18-7.82,36.9-14.26,55.6-20.82c41.41-14.52,83.4-27.88,125.78-40.32c84.22-24.72,169.96-45.73,256.28-64.75
						c86.19-19,172.99-36.01,259.84-52.79c20.97-4.06,42.02-8.94,63.41-11.24c20.24-2.18,41.21-0.89,58.58,8.76
						c30.87,17.16,42.48,51.14,53.53,78.8c28.14,70.45,46.03,143.71,53.14,217.7c3.41,35.54,4.94,71.53,2.63,107.16
						c-1.94,29.92-7.63,61.28-26.73,87.28c-19.98,27.19-53.71,42.12-90.12,49.41c-40.05,8.02-82.17,9.09-123.13,10.88
						c-87.54,3.83-175.17,3.18-262.77,1.59c-22.33-0.41-44.66-0.86-67-1.31c-3.33-0.07-6.64,6.42-2.94,6.49
						c91.38,1.81,182.81,3.87,274.2,1.61c44.82-1.11,89.88-2.66,134.48-6.63c37.47-3.33,76.17-9.89,107.25-28.61
						c64.72-38.98,64.99-114.65,63.65-174.39c-1.71-76.21-14.78-152.27-38.75-225.85c-6.08-18.65-12.85-37.14-20.33-55.44
						c-6.2-15.18-12.52-30.49-21.75-44.63c-8.19-12.55-19.1-24.36-34.04-31.78c-17.41-8.65-37.9-9.56-57.58-7.53
						c-21.99,2.27-43.64,7.34-65.18,11.51c-22.69,4.39-45.38,8.79-68.05,13.24c-45.06,8.84-90.07,17.87-134.95,27.33
						c-89.31,18.83-178.16,39.37-265.62,63.54c-43.79,12.1-87.23,25.1-130.13,39.23c-21.01,6.92-41.89,14.1-62.62,21.57
						c-17.97,6.48-36.14,12.93-52.68,21.73c-15.3,8.15-29.22,18.43-38.22,31.71c-9.87,14.56-12.83,31.34-12.06,47.85
						c0.83,17.55,5.38,34.82,9.49,51.99c4.75,19.85,9.5,39.69,14.26,59.54c9.33,38.97,17.81,78.15,28.14,116.94
						c4.24,15.93,9.79,31.99,20.34,45.92c9.61,12.7,22.68,20.66,40.43,23.75c16.27,2.83,33.2,1.84,49.58,0.24
						C781.93,597.23,784.63,590.72,780.21,591.15L780.21,591.15z"/>
				</g>
			</g>
			<g>
				<g>
					<path d="M775.98,560.33c1.53,25.36,2.79,50.74,4.03,76.12c1.33,27.14,2.61,54.29,4.01,81.44c0.71,13.68,1.44,27.36,2.27,41.04
						c0.09,1.38,1.52,2.42,3.14,1.5c39.56-22.39,78.31-45.78,116.11-70.17c38.95-25.14,76.93-51.35,113.23-79.1
						c19.38-14.82,38.26-30.09,56.4-45.96c1.13-0.99,2.22-3.29,1.08-4.52c-1.25-1.36-3.26-0.01-4.22,0.84
						c-32.45,28.38-67.34,54.82-103.29,80.13c-37.4,26.33-76.08,51.41-115.63,75.48c-21.01,12.79-42.28,25.27-63.8,37.46
						c1.05,0.5,2.09,1,3.14,1.5c-1.53-25.36-2.79-50.74-4.03-76.12c-1.33-27.14-2.61-54.29-4.01-81.44
						c-0.71-13.68-1.44-27.36-2.27-41.04c-0.09-1.54-1.5-2.18-3.14-1.5C777.28,556.69,775.88,558.74,775.98,560.33L775.98,560.33z"
						/>
				</g>
			</g>
			<g>
				<g>
					<path d="M1637.74,469.78c-2.04,29.6-15.31,58.53-37.29,81.87c-22.62,24.03-54.26,41.41-89.46,49.98
						c-20.09,4.89-41.05,6.9-61.94,5.82c-3.32-0.17-6.68,6.3-2.94,6.49c38.74,2.01,78-6.45,110.83-23.63
						c32.48-17,57.68-42.33,72.55-71.65c8.32-16.42,13.19-33.94,14.41-51.72c0.11-1.59-1.64-2.12-3.14-1.5
						C1638.89,466.21,1637.85,468.14,1637.74,469.78L1637.74,469.78z"/>
				</g>
			</g>
		</g>
		<g id="Ebene_4">
			<g>
				<g>
					<path d="M926.56,212.4c-2.45,45.47-4.89,90.94-7.34,136.41c-2.45,45.47-4.89,90.94-7.34,136.41
						c-1.37,25.49-2.74,50.98-4.11,76.46c-0.18,3.39,16.9,3.71,17.1,0c2.45-45.47,4.89-90.94,7.34-136.41
						c2.45-45.47,4.89-90.94,7.34-136.41c1.37-25.49,2.74-50.98,4.11-76.46C943.85,209.01,926.76,208.69,926.56,212.4L926.56,212.4z
						"/>
				</g>
			</g>
			<g>
				<g>
					<path d="M1152.82,212.46c-3.84,45.24-7.68,90.48-11.52,135.72s-7.68,90.48-11.52,135.72c-2.16,25.45-4.32,50.9-6.48,76.34
						c-0.28,3.31,16.78,3.78,17.1,0c3.84-45.24,7.68-90.48,11.52-135.72c3.84-45.24,7.68-90.48,11.52-135.72
						c2.16-25.45,4.32-50.9,6.48-76.34C1170.2,209.16,1153.14,208.69,1152.82,212.46L1152.82,212.46z"/>
				</g>
			</g>
			<g>
				<g>
					<path d="M936.01,389.12c53.11-2.07,106.4-1.92,159.45,0.66c15.06,0.73,30.1,1.65,45.14,2.75c2.15,0.16,4.46,0.12,6.59-0.25
						c0.91-0.16,3.38-0.62,3.93-1.49c1.46-2.3-4.57-2.95-5.97-3.06c-54.29-3.97-108.84-5.6-163.33-4.82
						c-15.27,0.22-30.54,0.63-45.8,1.23c-1.89,0.08-8.4,0.04-8.55,2.48C927.31,388.91,934.66,389.18,936.01,389.12L936.01,389.12z"
						/>
				</g>
			</g>
			<g>
				<g>
					<path d="M1262.52,385.56c-3.39,47.05-6.77,94.1-10.16,141.14c-0.95,13.17-1.9,26.34-2.84,39.52c-0.24,3.35,16.83,3.75,17.1,0
						c3.39-47.05,6.77-94.1,10.16-141.14c0.95-13.17,1.9-26.34,2.84-39.52C1279.86,382.22,1262.79,381.81,1262.52,385.56
						L1262.52,385.56z"/>
				</g>
			</g>
			<g>
				<g>
					<path d="M1284.23,293.71c-7.79-6.67-22.8-6.59-32.36-2.86c-8.42,3.28-13.34,10.39-15.68,17.6c-2.18,6.7-1.91,13.96,1.65,20.31
						c3.89,6.94,12.15,10.97,21.01,12.28c19.91,2.93,40.76-3.94,50.45-19c8.03-12.48,8.07-28.15-1.71-39.99
						c-12.64-15.3-36.63-20.57-57.81-17.67c-2,0.27-5.99,1.67-3.07,3.4c2.98,1.77,8.36,1.35,11.7,0.89
						c-1.08,0.15,0.85-0.08,1.16-0.11c1.62-0.17-0.69-0.05,0.94-0.06c0.4,0,0.8,0,1.2,0c1.39-0.01-1.25-0.09,0.14-0.01
						c0.93,0.05,1.87,0.12,2.8,0.23c-1.11-0.13,0.82,0.14,1.13,0.19c0.79,0.13,1.58,0.27,2.35,0.45c0.76,0.18,3.1,0.86,4.38,1.31
						c6,2.07,11.42,5.45,15.65,9.52c9.17,8.83,11.89,20.72,8.58,31.94c-3.09,10.49-12.31,21-25.04,24.05
						c-0.39,0.09-1.35,0.26-1.96,0.37c-0.89,0.16-0.18,0.05,0.01,0.03c-0.4,0.05-0.82,0.07-1.22,0.11c-1,0.1,0.06,0.02,0.24,0.02
						c-0.4,0.01-0.81,0.01-1.21,0.01c-1.03,0,0.11,0.02,0.26,0.01c-0.27-0.02-0.53-0.04-0.8-0.06c0.59,0.09,0.61,0.09,0.07,0
						c-2.15-0.33-4.95-1.38-7.09-2.88c-5.22-3.66-7.6-9.28-8.03-14.79c-0.49-6.41,1.38-13.04,5.46-18.51
						c2.05-2.75,4.83-5.56,8.5-6.88c0.64-0.23,0.76-0.09,1.07-0.25c0.6-0.3,0.3,0.03-0.07,0.02c-0.32,0-1.3-0.06-1.64,0.03
						c-0.63,0.17-0.39-0.16,0.29,0.21c0.81,0.44,1.48,0.8,2.17,1.39c2.42,2.07,7.33,2,10.52,1.74
						C1279.22,296.68,1286.43,295.59,1284.23,293.71L1284.23,293.71z"/>
				</g>
			</g>
		</g>
	</g>
</g>
</svg>
