<?xml version="1.0" encoding="utf-8"?>
<!-- Generator: Adobe Adobe Illustrator 24.2.0, SVG Export Plug-In . SVG Version: 6.00 Build 0)  -->
<svg version="1.1" xmlns="http://www.w3.org/2000/svg" xmlns:xlink="http://www.w3.org/1999/xlink" x="0px" y="0px"
	 viewBox="0 0 1700.79 1700.79" style="enable-background:new 0 0 1700.79 1700.79;" xml:space="preserve">
<style type="text/css">
	.st0{fill:#3E4C5B;stroke:#5B636E;stroke-width:1.0618;stroke-miterlimit:10;}
	.st1{fill:#D3E1EC;stroke:#000000;stroke-width:13.8184;stroke-miterlimit:10;}
	.st2{stroke:#000000;stroke-width:13.8184;stroke-miterlimit:10;}
	.st3{fill:none;stroke:#000000;stroke-width:13.8184;stroke-miterlimit:10;}
	.st4{fill:#3E4C5B;stroke:#000000;stroke-width:19.1554;stroke-miterlimit:10;}
	.st5{fill:#808D9C;stroke:#000000;stroke-width:16.2963;stroke-miterlimit:10;}
	.st6{stroke:#000000;stroke-width:1.431;stroke-miterlimit:10;}
	.st7{opacity:0.302;}
	.st8{fill:#6DB671;}
	.st9{fill:#6CB671;}
	.st10{opacity:0.149;}
	.st11{fill:#FFFFFF;}
	.st12{opacity:0.0314;}
</style>
<g id="Ebene_4">
</g>
<g id="Ebene_8">
	<path class="st0" d="M643.28,393.65c55.04-21.27,92.64-78.63,90.6-135.83s-42.64-110.59-97.72-130.78s-121.48-6.94-165.52,31.61
		s-64.45,100.27-53.28,156.39c10.55,53.04,68.64,92.27,123.94,83.03c-2.33-9.32-4.67-18.64-7-27.96
		c-42.37-1.62-78.2-39.11-81.2-80.1c-3-40.99,23.77-81.52,61.55-100.56s84.31-17.9,123.13-1.65c32.69,13.69,55.08,47.54,54.35,82.18
		c-0.73,34.64-24.54,67.99-57.8,80.95C637.72,365.23,641.11,379.51,643.28,393.65z"/>
</g>
<g id="Ebene_6">
	<path class="st1" d="M547.04,420.7c-2.91-19.76-6.43-43.66-9.34-63.43c35.54-6.83,91.21-18.66,91.21-18.66s7.43,38.09,15.3,69.7"/>
	<path class="st1" d="M495.46,576.17c-1.51-3.57-3.02-17.75-3.08-21.38c-0.32-20.38,0.54-40.32,25.89-43.99l187.2-32.42
		c17.8-2.58,20.13,8.68,27.57,24.48c3.7,7.85,7.52,17.18,10.72,27.57"/>
	<path class="st2" d="M530.88,506.6c4.5-23.54,6.73-55.2,11.22-78.74c34.44-6.46,108.84-20.51,108.84-20.51s27.01,46,41.36,73.32"/>
	<path class="st3" d="M635.94,351.19c88.31-16.84,88.43-204.95-86.22-171.66c-162.02,30.89-96.31,204-15.45,192.28"/>
	<path class="st3" d="M640.61,383.44C812.25,343.62,743.82,93.39,554,120.91C341,161.13,391.04,422.79,539.68,401.24"/>
	<path class="st2" d="M687.93,1044.85c-32.51,4.71-26.22,46.16,4.89,39.8C721.73,1078.74,721.11,1038.33,687.93,1044.85z"/>
	<path class="st2" d="M662.99,869.37c-15.23,62.14-8.16,127.63,24.38,179.72C707.69,987.19,693.66,931.09,662.99,869.37z"/>
	<path class="st2" d="M675.55,1065.11c-47.09-5.02-66.43-5.36-133.66,21.17C607.68,1090.1,629.44,1087.41,675.55,1065.11z"/>
</g>
<g id="Ebene_5">
	
		<ellipse transform="matrix(0.9897 -0.1435 0.1435 0.9897 -144.041 112.5266)" class="st4" cx="708.28" cy="1055.09" rx="545" ry="522.38"/>
	
		<ellipse transform="matrix(0.9897 -0.1435 0.1435 0.9897 -144.0408 112.5265)" class="st5" cx="708.28" cy="1055.09" rx="458.66" ry="449.25"/>
	
		<ellipse transform="matrix(0.9897 -0.1435 0.1435 0.9897 -144.6084 113.4455)" class="st1" cx="714.37" cy="1059.49" rx="388.51" ry="381.34"/>
</g>
<g id="Ebene_7">
	<path class="st3" d="M736.01,1385.6c-1.6-39.43-4.15-77.98-5.75-117.42"/>
	<path class="st3" d="M764.95,1380.2c-12.98-40.7-22.09-74.12-32.22-112.37"/>
	<path class="st3" d="M704.71,1269.5c6.6,45.5,9.78,78.12,16.74,118.22"/>
	<path class="st3" d="M585.66,1375.97c11.09-38.49,22.19-76.98,33.28-115.48"/>
	<path class="st3" d="M528.58,1354.63c17.24-43.25,24.24-58.34,44.52-109.24"/>
	<path class="st3" d="M542.89,1359.86c18.02-42.98,31.3-73.77,45.99-108.8"/>
	<path class="st3" d="M556.22,1365.46c20.81-34.65,41.62-69.3,62.43-103.95"/>
	<path class="st3" d="M887.19,1328.04c-19.03-35.91-25.43-47.97-57.1-107.71"/>
	<path class="st3" d="M880.48,1155.51c37.6,16.73,75.21,33.45,112.81,50.18"/>
	<path class="st3" d="M887.08,1142.53c36.74,16.26,75.76,33.24,112.5,49.5"/>
	<path class="st3" d="M893.8,1129.59c50.84,21.64,59.24,26.42,111.76,48.78"/>
	<path class="st3" d="M899.61,1116.04c44.23,20.21,69.39,29.65,112.4,49.31"/>
	<path class="st3" d="M912.58,1309.04c-25.78-28.7-55.69-58.1-81.47-86.8"/>
	<path class="st3" d="M904.2,1013.03c49.09-5.66,82.45-11.61,123.99-16.4"/>
	<path class="st3" d="M906.34,1027.74c41.36-5.25,82.72-10.5,124.08-15.74"/>
	<path class="st3" d="M908.5,1042.69c45.62-6.61,78.97-9.11,124.09-15.65"/>
	<path class="st3" d="M867.07,928.92c32.59-22.23,65.17-44.47,97.76-66.7"/>
	<path class="st3" d="M858.3,917.01c32.14-21.7,65.65-45.19,97.79-66.89"/>
	<path class="st3" d="M770.18,859.35c20.58-51.93,21.41-54.59,44.15-111.95"/>
	<path class="st3" d="M613.96,738.29c16.47,38.37,28.7,69.61,45.18,107.98"/>
	<path class="st3" d="M630.22,850.46c4.07-41.68,7-78.74,11.07-120.42"/>
	<path class="st3" d="M657.19,727.74c6.75,38.19,13.51,76.39,20.26,114.58"/>
	<path class="st3" d="M672.28,725.55c7.28,37.9,15.73,76.28,23.01,114.18"/>
	<path class="st3" d="M462.56,815.36c33.56,25.24,63.23,49.32,96.79,74.56"/>
	<path class="st3" d="M533.69,909.24c-16.29-38.02-32.58-76.05-48.87-114.07"/>
	<path class="st3" d="M498.22,785.01c24.74,30.71,49.48,61.42,74.22,92.13"/>
	<path class="st3" d="M365.68,951.87c39.03,5.96,85.68,11.87,124.71,17.83"/>
	<path class="st3" d="M477.85,995.03c-33.3-25.31-66.61-50.61-99.91-75.92"/>
	<path class="st3" d="M355.24,1110.53c36.98-13.94,73.96-27.89,110.93-41.83"/>
	<path class="st3" d="M352.18,1081.42c40.72,4.07,79.18,11.64,119.91,15.71"/>
	<path class="st3" d="M358.59,1125.65c38.02-3.73,76.04-7.45,114.06-11.18"/>
	<path class="st3" d="M424.02,1269.08c36.25-19.28,68.76-38.02,105.01-57.3"/>
	<path class="st3" d="M414.18,1256.67c31.56-22.88,63.13-45.77,94.69-68.65"/>
	<path class="st3" d="M403.64,1244.03c30.05-23.1,63.3-46.66,93.35-69.76"/>
	<path class="st3" d="M393.1,1231.49c42.74-31.67,47.69-35.94,94.32-70.49"/>
	<path class="st3" d="M448.81,1295.7c28.19-28.98,48.73-52.95,78.77-83.84"/>
</g>
<g id="Ebene_9">
	<g>
		<g>
			<path d="M672.92,866.52c10.07,65.25,20.14,130.5,30.2,195.75c0.59,3.81,5.14,2.37,7.09,0.79c3.01-2.44,4.54-6.53,3.96-10.29
				c-10.07-65.25-20.14-130.5-30.2-195.75c-0.59-3.81-5.14-2.37-7.09-0.79C673.87,858.66,672.34,862.76,672.92,866.52L672.92,866.52
				z"/>
		</g>
	</g>
	<g>
		<g>
			<path d="M715.47,1083.57c47.64-10.45,95.25-21.14,143.55-28.18c5.89-0.86,10.86-15.51,2.7-14.32
				c-48.29,7.04-95.9,17.74-143.55,28.18C712.36,1070.52,707.53,1085.31,715.47,1083.57L715.47,1083.57z"/>
		</g>
	</g>
	
		<ellipse transform="matrix(0.9897 -0.1435 0.1435 0.9897 -145.4488 112.4151)" class="st6" cx="706.8" cy="1064.79" rx="32.25" ry="34.42"/>
</g>
<g id="Ebene_10">
	<g class="st7">
		<path d="M417.87,628.44c-95.32,175.61-146.32,402.76-61.23,581.65s304.59,303.34,503.44,345.4
			c-495.35,71.81-756.2-267.35-677.1-592.57c33.94-139.55,103.38-248.8,226.23-341.43"/>
		<g>
			<path d="M413.73,626.05c-41.5,76.61-73.31,158.93-91.16,244.3c-17.31,82.79-21.31,169.56-2.86,252.52
				c17.09,76.88,55.02,146.28,107.46,204.72c52.04,58,115.64,105.17,183.61,142.88c68.95,38.25,143.23,67.31,219.78,86.17
				c8.89,2.19,17.82,4.23,26.78,6.13c1.36-4.82,2.73-9.63,4.09-14.45c-58.43,8.42-117.64,11.73-176.6,8.17
				c-51.81-3.13-103.37-11.56-153.14-26.39c-44.4-13.23-87.33-31.79-127.08-55.64c-36.88-22.12-71.03-48.85-100.88-79.83
				c-28.38-29.46-52.91-62.6-72.64-98.44c-19.32-35.1-33.85-72.76-43.33-111.68c-9.58-39.34-13.82-79.86-12.88-120.33
				c1.02-43.99,8.63-87.38,20.8-129.62c15.43-53.58,37.62-105.07,67.68-152.1c30.56-47.81,68.98-90.18,112.03-127.03
				c11.5-9.84,23.32-19.28,35.39-28.4c2.7-2.04,5.1-6.9,3.96-10.29c-1.23-3.65-4.72-2.59-7.09-0.79
				c-47.65,36.01-91.31,77.6-127.31,125.38c-34.3,45.52-61.38,96.1-80.89,149.63c-16.94,46.47-29.34,95.05-33.95,144.36
				c-3.9,41.71-2.54,83.69,4.33,125.02c6.73,40.48,18.85,80.02,36,117.3c17.33,37.66,39.54,72.93,66.17,104.72
				c27.63,32.97,59.8,62.14,95.07,86.75c38,26.51,79.6,47.7,123.08,63.63c47.96,17.57,98.08,28.92,148.79,34.78
				c57.6,6.66,115.83,6.27,173.5,0.72c15.48-1.49,30.91-3.38,46.3-5.59c4.92-0.71,11.03-12.97,4.09-14.45
				c-75.3-16-148.46-42.23-217.04-77.15c-68.89-35.09-134.05-79.31-188.68-134.27c-53.31-53.64-95.58-117.56-117.65-190.26
				c-24.16-79.6-25.08-164.64-11.8-246.29c13.68-84.11,41.9-165.86,80.03-241.95c4.62-9.23,9.41-18.37,14.32-27.45
				c1.32-2.43,3.02-7.45-0.16-9.29C418.77,619.76,415.01,623.7,413.73,626.05L413.73,626.05z"/>
		</g>
	</g>
	<g class="st7">
		<path d="M508.66,522.3c10.22,34.8,204.21-4.67,223.07-0.57c-17.38,0.52-216.22,42.63-232.37,44.97
			c-13.42,1.95-2.32-37.93,9.48-44.49c4.02,2.23-0.17,15.55,3.85,17.78"/>
		<g>
			<path d="M503.13,527.05c3.27,10.43,15.97,13.44,25.43,15.03c16.43,2.77,33.48,2.23,50.06,1.41
				c38.98-1.92,77.67-7.43,116.38-12.08c7.25-0.87,15.05-1.8,21.71-2.31c3.96-0.3,8.34-0.89,12.28-0.08
				c1.83-4.86,3.65-9.71,5.48-14.57c-12.29,0.45-24.8,3.66-36.83,5.92c-22.34,4.19-44.63,8.65-66.92,13.13
				c-40.71,8.18-81.34,16.85-122.13,24.63c-2.24,0.43-4.48,0.87-6.73,1.23c-2.06,0.34-2.47-0.32-2.8-2.45
				c-0.85-5.47,1.19-11.7,3.1-16.75c1.11-2.94,2.22-5.36,3.91-8.06c0.83-1.32,2.18-2.89,2.88-3.31c-1.36,0.11-2.73,0.22-4.09,0.33
				c1.02,0.76,0.12,7.15,0.18,8.44c0.17,3.59,0.65,7.06,3.67,9.34c5,3.77,13.32-9.76,7.96-13.79c-1.02-0.76-0.12-7.15-0.18-8.44
				c-0.17-3.59-0.65-7.06-3.67-9.34c-1.07-0.81-3.1-0.26-4.09,0.33c-11.14,6.69-16.74,21.41-19.67,33.42
				c-1.85,7.61-4.43,26.02,8.34,24.86c12.9-1.18,25.95-4.9,38.61-7.46c48.76-9.85,97.47-19.98,146.33-29.38
				c10.28-1.98,20.57-3.93,30.89-5.72c3.56-0.62,7.12-1.22,10.69-1.74c1.19-0.17,2.39-0.33,3.58-0.48c0.46-0.06,0.93-0.1,1.39-0.15
				c-1.94,0.2-0.36,0.04,0.09,0.02c5.56-0.2,13.07-13.03,5.48-14.57c-3.29-0.67-6.88-0.28-10.2-0.07c-6.18,0.4-12.35,1.07-18.5,1.77
				c-17.02,1.93-34.01,4.2-51.02,6.23c-36.79,4.4-75.04,9.76-112.13,6.23c-6.58-0.63-13.86-1.63-19.55-3.91
				c-2.3-0.92-4.55-2.06-6.48-3.64c-0.6-0.49-2.26-3.01-2.42-3.52C511.77,509.84,501.34,521.34,503.13,527.05L503.13,527.05z"/>
		</g>
	</g>
</g>
<g id="Ebene_12">
	<g>
		<g id="Ebene_2_Kopie">
			<g>
				<path class="st8" d="M1173.38,678.03c47.25,6.88,191.02,28.41,207.55,10.61c26.85-28.91,101.27-366.65,80.03-390.97
					c-44.51-50.97-631.41-155.15-689.95-107.48c-52.78,42.99-24.13,369.71-8.17,391.02c24.11,32.21,122.81,28.32,166.17,49.8
					c19.33,9.58,97.53,121.34,120.07,122.7c12.79,0.77,92.97-43.8,122.79-75.76"/>
				<g>
					<path class="st9" d="M1173,681.34c46.37,6.76,92.9,13.53,139.7,16.47c11.26,0.71,22.55,1.16,33.82,0.98
						c8.36-0.13,16.93-0.42,25.08-2.32c5.01-1.17,9.86-2.9,13.06-6.97c2.43-3.11,4.22-6.75,5.89-10.29
						c5.5-11.65,9.54-23.97,13.44-36.2c5.59-17.52,10.54-35.24,15.22-53.02c11.29-42.86,21.06-86.12,29.61-129.58
						c7.53-38.26,14.56-76.86,18.03-115.72c1.07-12.04,2.07-24.39,0.8-36.46c-0.36-3.44-0.9-7.13-2.48-10.28
						c-1.39-2.76-3.86-4.87-6.31-6.74c-7.06-5.4-15.52-9.22-23.7-12.71c-12.12-5.16-24.62-9.47-37.18-13.48
						c-35.08-11.2-70.93-20.1-106.84-28.32c-43.98-10.08-88.28-18.87-132.72-26.77c-46.13-8.21-92.44-15.44-138.92-21.46
						c-41.51-5.37-83.2-9.87-125-12.28c-30.32-1.75-61.35-3.06-91.53,0.72c-9.19,1.15-18.79,2.75-27.24,6.56
						c-8.83,3.99-14.38,11.43-18.52,19.76c-6.64,13.32-9.92,28.28-12.48,42.8c-3.42,19.36-5.15,38.99-6.23,58.61
						c-2.49,45.33-1.42,90.91,1.31,136.25c2.23,37.04,5.27,74.31,11.6,110.96c1.61,9.32,3.01,19.43,6.89,28.2
						c2.5,5.64,7.95,10.04,13.12,13.33c9.57,6.11,20.64,9.78,31.61,12.68c27.23,7.21,55.39,10.17,83,15.6
						c12.23,2.41,24.55,5.2,36.1,9.92c3.93,1.61,5.41,2.14,8.38,4.46c2.34,1.83,4.32,3.74,6.38,5.81
						c14.47,14.49,27.22,30.65,40.34,46.27c14.45,17.21,28.82,34.68,44.87,50.53c5.47,5.39,11.19,11,17.86,15.01
						c5.08,3.05,9.43,3.99,15.16,2.34c8.54-2.45,16.63-6.55,24.47-10.54c11.72-5.97,23.13-12.51,34.3-19.39
						c21.55-13.26,43.47-27.76,60.73-46.14c2.98-3.17-2.61-7.16-5.56-4.02c-8.33,8.88-18.08,16.54-27.93,23.78
						c-11.16,8.19-22.77,15.81-34.65,23.02c-10.72,6.5-21.68,12.67-32.95,18.25c-6.93,3.43-15.14,7.75-22.33,9.15
						c-0.45,0.09-0.91,0.15-1.37,0.22c-1.22,0.18,0.21,0.07-0.63,0.02c-0.4-0.02-0.8-0.11-1.19-0.19c0.92,0.2-0.86-0.32-1.19-0.46
						c-2.39-0.96-4.35-2.32-6.72-4.08c-6.69-4.98-12.59-10.94-18.31-16.91c-15.84-16.53-30.35-34.22-45.02-51.71
						c-12.16-14.49-24.04-29.69-37.97-42.68c-5.38-5.02-11.11-7.94-18.14-10.49c-11.78-4.29-24.18-6.97-36.49-9.32
						c-27.19-5.2-55.06-8.01-81.75-15.52c-10.34-2.91-21.04-6.52-29.71-12.9c-1.66-1.22-3.26-2.53-4.67-4.01
						c-0.78-0.81-1.47-1.67-2.19-2.53c-0.17-0.2-1-1.53-0.27-0.29c-0.64-1.07-1.12-2.2-1.56-3.36c-1.27-3.33-2.18-7.1-3.15-11.46
						c-1.31-5.87-2.36-11.79-3.33-17.72c-2.69-16.46-4.65-33.03-6.33-49.6c-4.39-43.27-6.8-86.77-7.14-130.21
						c-0.32-40.91,0.51-82.54,8.01-122.85c2.55-13.68,5.84-27.75,12.48-40.15c2-3.73,5.29-8.38,8.38-10.93
						c0.54-0.45,1.1-0.87,1.68-1.27c0.26-0.18,0.53-0.35,0.8-0.52c0.94-0.61-0.38,0.17,0.62-0.37c1.5-0.8,3.04-1.51,4.62-2.13
						c4.31-1.68,6.88-2.3,11.48-3.26c5.26-1.09,10.6-1.83,15.95-2.4c13.29-1.4,26.7-1.76,40.08-1.72
						c36.98,0.11,73.98,3.09,110.76,6.83c44.56,4.54,88.97,10.56,133.22,17.47c45.5,7.11,90.86,15.19,136,24.33
						c40.11,8.12,80.08,17,119.62,27.5c28.52,7.57,57.33,15.58,84.48,27.1c4.59,1.95,9.13,4.04,13.54,6.37
						c0.83,0.44,0.79,0.42,2.07,1.15c0.87,0.5,1.75,1.02,2.6,1.55c1.46,0.91,2.89,1.87,4.25,2.91c0.58,0.44,1.13,0.9,1.69,1.36
						c0.28,0.23,0.55,0.48,0.82,0.74c-0.86-0.79,0.04,0.05,0.24,0.25c0.38,0.41,0.74,0.81,1.1,1.24c0.62,0.75-0.29-0.6,0.07,0.09
						c0.14,0.28,0.3,0.54,0.41,0.83c0.15,0.35,0.8,2.25,0.47,1.15c0.24,0.79,0.43,1.6,0.6,2.4c0.41,1.98,0.65,4,0.82,6.02
						c0.95,11.24-0.08,23.85-1.21,35.73c-1.67,17.69-4.17,35.3-6.97,52.85c-6.81,42.76-15.45,85.26-25.11,127.48
						c-8.74,38.22-18.18,76.41-30.11,113.81c-3.87,12.13-7.89,24.35-13.31,35.92c-1.84,3.91-2.69,5.91-5.15,9.06
						c-1.05,1.34-1.66,1.85-3.05,2.49c-2.66,1.24-4.78,1.78-7.62,2.33c-8.41,1.63-17.15,1.88-25.71,1.89
						c-11.35,0.01-22.7-0.56-34.02-1.34c-25.76-1.79-51.44-4.75-77.05-8.06c-19.33-2.5-38.61-5.28-57.89-8.1
						C1169.34,674.07,1168.6,680.7,1173,681.34L1173,681.34z"/>
				</g>
			</g>
		</g>
		<g id="Ebene_8_1_">
			<g>
				<g>
					<path class="st9" d="M1343.2,426.6c-10.3,50.77-20.6,101.52-30.89,152.29c-1.12,5.56,1.63,12.87,5.19,17.18
						c3.71,4.49,10.2,8.28,16.22,8.69c6.24,0.43,12.9-0.82,17.74-4.88c5.05-4.24,7.58-9.24,8.87-15.6
						c10.3-50.77,20.6-101.52,30.89-152.29c1.12-5.56-1.63-12.87-5.19-17.18c-3.71-4.49-10.2-8.28-16.22-8.69
						c-6.24-0.43-12.9,0.82-17.74,4.88C1347.03,415.25,1344.49,420.25,1343.2,426.6L1343.2,426.6z"/>
				</g>
			</g>
		</g>
		<g id="Ebene_7_1_">
			<g class="st10">
				<g>
					<path class="st11" d="M1268.38,285.49c14.33,4,29,6.71,43.55,9.79c4.02,0.85,8.03,1.71,12.04,2.61
						c1.95,0.44,3.9,0.88,5.85,1.34c0.97,0.23,1.95,0.46,2.92,0.69c3.21,0.76-2.71-0.69,0.55,0.14c7.59,1.92,15.15,3.98,22.56,6.5
						c3.45,1.17,6.86,2.44,10.2,3.85c1.51,0.64,3,1.3,4.48,2.01c0.71,0.34,1.41,0.69,2.11,1.04c2.88,1.43-2.01-1.24-0.27-0.16
						c2.46,1.51,4.9,2.98,7.12,4.8c0.47,0.39,0.93,0.9,1.43,1.24c-0.72-0.48-2.48-2.54-1.06-0.93c0.83,0.94,1.56,2.19,2.46,3.04
						c-0.5-0.46-1.8-3.24-0.88-1.33c0.22,0.47,0.46,0.96,0.69,1.43c1.38,2.72-0.36-2.76-0.21-0.84c0.07,0.97,0.33,4.54,0.24,1.23
						c-0.08-3.27-0.03-0.63-0.04,0.16c-0.01,0.75-0.04,1.5-0.08,2.24c-0.09,1.71-0.23,3.41-0.4,5.11
						c-2.29,23.31-7.47,46.44-12.25,69.34c-6.76,32.44-14.09,64.76-21.47,97.07c-6.98,30.55-14.1,61.08-20.92,91.67
						c-0.71,3.17-1.41,6.34-2.11,9.51c-1.5,6.83,5.3,14.31,12.23,14.78c8.09,0.55,13.6-4.38,15.21-11.7
						c6.64-30.16,13.65-60.25,20.55-90.36c7.6-33.18,15.17-66.38,22.22-99.68c5.21-24.59,10.71-49.34,13.62-74.32
						c0.75-6.39,1.87-13.84,0.17-20.15c-4-14.77-17.79-23.41-31.4-29.37c-15.27-6.68-31.85-10.58-48.09-14.29
						c-15.06-3.43-30.26-6.23-45.29-9.75c-0.74-0.17-1.49-0.35-2.23-0.53c-2.26-0.54,3.55,0.91,0.85,0.2
						c-1.42-0.37-2.83-0.73-4.24-1.13c-6.92-1.93-15.32,0.09-17.91,7.35C1258.4,274.35,1260.94,283.42,1268.38,285.49
						L1268.38,285.49z"/>
				</g>
			</g>
			<g class="st10">
				<g>
					<path class="st11" d="M1318.42,654.13c0.13,2.95,0.27,5.89,0.4,8.83c7.28-4.23,14.56-8.46,21.83-12.69
						c-3.25-2.52-6.48-5.05-9.73-7.57c0.15,7.04,0.29,14.07,0.44,21.11c-1.72,1.1-3.31,1.85-5.44,1.9
						c-0.84,0.14-1.65,0.05-2.43-0.28c-1.38-0.4-1.58-0.43-0.61-0.1c-1.47-0.72-2.56-1.51-3.66-2.7c0.62,0.76,0.53,0.6-0.24-0.49
						c-0.72-0.91-1.18-1.95-1.38-3.11c2.66-4.75,5.32-9.5,7.98-14.25c0.2-0.08,3.43-0.62,1.67-0.48c1.74-0.14,3.21-0.01,4.88,0.51
						c-1.7-0.53,1.26,0.76,1.46,0.88c-1.49-0.88,0.99,0.92,1.18,1.15c0.98,1.18,1.5,2.68,1.79,4.14c-0.48-2.37-0.74,4.83-0.69,4.62
						c0.48-1.64-0.63,1.13-0.82,1.38c-0.51,0.52-1.02,1.04-1.53,1.55c-2.04,1.06-2.58,1.37-1.62,0.93c1.52-0.55-3.14,0.72-1.56,0.44
						c0.72-0.08,0.43-0.08-0.88,0.01c-0.81,0.14-1.61,0.07-2.39-0.21c-3.11-0.7-5.6-2.83-6.5-5.81c-0.85-2.81-0.17,1.36-0.27-1.68
						c-0.09-3.01-0.54,1.19,0.17-1.74c0.07-0.8,0.36-1.51,0.87-2.13c0.68-1.04,0.82-1.29,0.42-0.74c-0.72,0.94,2.74-2.21,0.85-1.08
						c7.08,1.7,14.16,3.4,21.24,5.1c-0.62-1.18-1.25-2.37-1.87-3.56c-3.27-6.23-11.34-10.14-18.23-6.86
						c-6.41,3.06-10.46,10.89-6.96,17.56c0.62,1.18,1.25,2.37,1.87,3.56c2.01,3.82,5.01,6.39,9.31,7.45
						c4.57,1.12,8.07-0.03,11.93-2.35c7.77-4.67,9.86-16.02,5.91-23.66c-4.68-9.09-16.39-13.08-25.78-8.41
						c-9.06,4.5-14.13,15.43-8.99,24.65c4.97,8.91,16.01,13.34,25.79,9.21c5.59-2.36,8.93-8.42,7.98-14.25
						c-1.02-6.3-5.58-12.01-11.79-14.35c-6.74-2.55-13.12-1.47-18.98,2.28c-7.71,4.93-5.96,16.13,0.44,21.11
						c3.25,2.52,6.48,5.05,9.73,7.57c4.32,3.36,10.82,3.33,15.35,0.68c5.09-2.98,6.73-7.83,6.48-13.37
						c-0.13-2.95-0.27-5.89-0.4-8.83c-0.14-3.11-2.94-6.83-5.42-8.62c-2.76-1.99-7.01-3.18-10.42-2.52
						c-3.44,0.67-6.86,2.29-8.88,5.16C1318.74,647.23,1318.25,650.35,1318.42,654.13L1318.42,654.13z"/>
				</g>
			</g>
		</g>
		<g id="Ebene_2_1_">
			<g>
				<g>
					<path d="M1147.6,708.05c46.43,6.78,93.02,13.58,139.88,16.56c11.27,0.72,22.57,1.18,33.87,1.02
						c8.98-0.13,18.19-0.29,26.95-2.32c6.79-1.57,13.09-3.95,17.45-9.45c2.78-3.5,4.82-7.64,6.72-11.64
						c5.53-11.63,9.59-23.96,13.5-36.18c5.62-17.56,10.58-35.33,15.28-53.14c11.41-43.3,21.33-86.99,29.95-130.91
						c7.5-38.21,14.53-76.78,17.89-115.6c1.07-12.38,1.99-25.13,0.58-37.55c-0.45-3.95-1.26-8.13-3.09-11.73
						c-1.95-3.82-5.27-6.79-8.72-9.36c-7.67-5.72-16.8-9.83-25.63-13.56c-12.24-5.16-24.85-9.46-37.52-13.48
						c-35.64-11.3-72.06-20.28-108.52-28.61c-43.96-10.05-88.21-18.83-132.62-26.72c-46.07-8.19-92.32-15.43-138.73-21.46
						c-41.37-5.37-82.91-9.88-124.56-12.33c-31.03-1.83-62.82-3.19-93.71,0.56c-9.82,1.2-20.09,2.95-29.13,6.94
						c-10.44,4.61-17.04,13.02-22.03,22.78c-7,13.7-10.39,29.27-13.06,44.25c-3.46,19.32-5.19,38.94-6.25,58.54
						c-2.5,45.73-1.35,91.71,1.47,137.44c2.28,37.16,5.37,74.55,11.84,111.31c1.71,9.73,3.3,20.3,7.41,29.43
						c3.03,6.74,9.33,12.13,15.58,16.05c10.32,6.48,21.97,10.49,33.76,13.55c27.93,7.27,56.69,10.4,84.97,16.03
						c3.11,0.62,6.21,1.27,9.3,1.96c0.82,0.19,1.65,0.37,2.46,0.57c0.44,0.1,3.2,0.78,0.54,0.12c1.58,0.39,3.15,0.8,4.73,1.22
						c5.81,1.58,11.57,3.39,17.11,5.7c1.05,0.44,2.11,0.9,3.14,1.38c0.59,0.27,1.2,0.66,1.81,0.86c1.25,0.41-2.59-1.67-1.54-0.84
						c0.88,0.7,1.9,1.25,2.79,1.94c1.04,0.81,2.02,1.68,3.01,2.54c2.22,1.95-1.51-1.5,0.22,0.19c0.76,0.74,1.52,1.48,2.27,2.23
						c14.41,14.44,27.17,30.47,40.28,46c14.51,17.18,28.94,34.63,45.09,50.42c5.86,5.73,11.97,11.76,19.13,16.01
						c3.38,2.01,6.89,3.81,10.87,4.35c3.99,0.54,7.54-0.39,11.29-1.5c8.64-2.57,16.83-6.65,24.8-10.7
						c12.15-6.17,23.97-12.95,35.54-20.04c21.97-13.46,43.97-28.2,61.59-46.85c3.75-3.98,2.01-10.98-2.16-14
						c-4.87-3.52-10.72-2-14.48,1.98c-0.5,0.53-3.59,3.58-1.47,1.55c-0.94,0.91-1.89,1.82-2.84,2.71c-2.23,2.07-4.52,4.08-6.85,6.05
						c-5.02,4.22-10.23,8.24-15.54,12.11c-11.17,8.15-22.78,15.73-34.66,22.87c-1.27,0.77-2.55,1.52-3.83,2.29
						c-0.24,0.14-2.78,1.63-0.78,0.46c-0.75,0.44-1.51,0.88-2.27,1.31c-2.94,1.69-5.9,3.35-8.87,4.99
						c-5.18,2.84-10.41,5.6-15.72,8.2c-4.31,2.12-8.67,4.16-13.13,5.97c-1.67,0.68-3.34,1.33-5.05,1.91
						c-0.71,0.24-1.72,0.38-2.36,0.76c2.35-1.4,1.84-0.46,0.21-0.11c-0.56,0.12-1.13,0.16-1.68,0.28c-1.88,0.43,1.87,0.15,1.44,0
						c-0.29-0.1-1.13-0.25-1.43-0.21c2.69-0.27,2.51,0.81,0.87,0.09c-0.56-0.24-1.13-0.52-1.7-0.75c-2.01-0.84,2.4,1.48,0.53,0.29
						c-1.34-0.85-2.68-1.7-3.96-2.64c-3.06-2.23-5.88-4.72-8.67-7.24c-0.51-0.46-2.09-1.72,0.27,0.26
						c-0.44-0.36-0.84-0.79-1.25-1.19c-0.78-0.75-1.57-1.51-2.34-2.27c-1.79-1.76-3.55-3.55-5.3-5.36
						c-15.84-16.42-30.36-34.01-45.04-51.4c-12.64-14.98-25.02-30.53-39.5-43.92c-5.6-5.18-11.82-8.41-19.08-11.1
						c-12.56-4.65-25.87-7.5-39.02-10.02c-13.8-2.64-27.7-4.75-41.55-7.11c-6.85-1.16-13.69-2.38-20.51-3.76
						c-3.14-0.63-6.27-1.3-9.38-2.02c-0.83-0.19-1.66-0.39-2.49-0.58c-2.69-0.63,1.48,0.41-0.17-0.04
						c-1.72-0.48-3.47-0.89-5.19-1.37c-5.69-1.57-11.32-3.38-16.76-5.63c-2.37-0.98-4.63-2.12-6.95-3.21
						c-2.13-1.01,1.99,1.24,0.02,0.01c-0.54-0.34-1.12-0.65-1.67-0.99c-1.07-0.66-2.12-1.34-3.14-2.07
						c-0.98-0.7-1.94-1.43-2.86-2.21c-0.3-0.25-0.58-0.52-0.89-0.76c-1.64-1.31,1.59,1.77,0.23,0.21c-0.98-1.14-2.04-2.79-3.19-3.74
						c2.22,1.83,1.45,2.59,0.91,1.4c-0.1-0.23-0.23-0.45-0.34-0.67c-0.31-0.63-0.57-1.28-0.83-1.94c-0.28-0.72-0.52-1.45-0.78-2.19
						c-0.78-2.23,0.49,1.72,0.27,0.9c-0.13-0.5-0.29-0.98-0.43-1.48c-0.64-2.25-1.19-4.52-1.7-6.8c-1.34-5.91-2.42-11.88-3.41-17.85
						c-2.71-16.37-4.7-32.84-6.4-49.33c-2.13-20.62-3.75-41.29-4.96-61.97c-0.66-11.4-1.2-22.81-1.61-34.22
						c-0.09-2.71-0.18-5.41-0.26-8.12c-0.02-0.71-0.13-4.69-0.05-1.75c-0.04-1.72-0.09-3.45-0.13-5.17
						c-0.13-5.66-0.22-11.32-0.27-16.98c-0.36-40.8,0.42-82.34,7.95-122.54c0.76-4.06,1.61-8.11,2.58-12.13
						c0.21-0.88,1.13-3.78,0.06-0.31c0.29-0.93,0.5-1.9,0.75-2.83c0.5-1.82,1.03-3.63,1.59-5.43c1.89-6.04,4.2-11.91,7.17-17.53
						c0.17-0.32,0.39-0.62,0.53-0.95c0.06-0.13-1.51,2.49-0.77,1.34c0.37-0.58,0.72-1.19,1.09-1.77c0.71-1.11,1.48-2.19,2.29-3.23
						c0.7-0.89,1.47-1.72,2.21-2.58c1.32-1.53-2.26,1.99-0.37,0.38c0.43-0.37,0.85-0.76,1.29-1.12c0.52-0.42,1.07-0.8,1.62-1.19
						c0.32-0.22,0.67-0.39,0.98-0.62c0.3-0.22-2.93,1.56-1.03,0.62c1.54-0.75,3.06-1.49,4.67-2.1c0.85-0.33,1.7-0.63,2.57-0.91
						c0.5-0.16,0.99-0.31,1.49-0.47c2.45-0.78-1.44,0.37-0.75,0.2c2.18-0.55,4.35-1.1,6.55-1.54c5.29-1.07,10.66-1.79,16.05-2.35
						c6.28-0.64,12.59-1.04,18.91-1.29c1.65-0.07,3.31-0.12,4.96-0.17c0.77-0.02,1.54-0.04,2.31-0.06c0.47-0.01,0.93-0.02,1.4-0.03
						c2.65-0.06-2.23,0.02-0.42,0.01c3.75-0.04,7.5-0.07,11.26-0.06c36.97,0.18,73.96,3.18,110.73,6.96
						c44.26,4.55,88.36,10.53,132.31,17.39c45.58,7.12,91.01,15.21,136.22,24.35c21.06,4.26,42.06,8.75,63,13.54
						c9.98,2.28,19.97,4.57,29.89,7.08c-2.66-0.67-0.22-0.05,0.99,0.24c1.22,0.3,2.43,0.6,3.65,0.91c2.4,0.6,4.8,1.2,7.2,1.81
						c4.47,1.14,8.95,2.3,13.4,3.48c28.58,7.56,57.44,15.56,84.69,27.03c4.6,1.93,9.14,3.99,13.55,6.3
						c0.41,0.21,0.82,0.45,1.24,0.66c-3.73-1.83-1.55-0.86-0.68-0.36c0.89,0.51,1.78,1.02,2.65,1.56c1.49,0.91,2.95,1.87,4.35,2.92
						c0.59,0.44,1.17,0.89,1.73,1.36c0.26,0.22,0.51,0.46,0.78,0.67c1.4,1.14-2.2-2.31-0.94-0.88c0.38,0.42,0.78,0.87,1.18,1.27
						c1.46,1.44-1.31-2.96-0.4-0.61c0.21,0.57,0.43,1.2,0.7,1.74c-1.37-2.82-0.48-1.74-0.09,0.04c0.41,1.86,0.66,3.75,0.84,5.64
						c0.1,1.06,0.18,2.13,0.24,3.2c0.03,0.63,0.06,1.25,0.09,1.88c0.13,2.68-0.03-2.55-0.01-0.37c0.03,2.81,0.02,5.62-0.06,8.43
						c-0.21,6.97-0.72,13.93-1.37,20.88c-1.62,17.48-4.08,34.88-6.82,52.22c-6.77,42.82-15.42,85.36-25.1,127.64
						c-2.42,10.58-4.92,21.15-7.51,31.7c-1.25,5.1-2.53,10.2-3.81,15.29c-0.15,0.57-0.74,2.89,0,0.01
						c-0.14,0.54-0.27,1.08-0.42,1.62c-0.31,1.19-0.61,2.37-0.91,3.55c-0.66,2.55-1.33,5.09-2,7.63
						c-4.6,17.39-9.46,34.74-14.94,51.88c-3.88,12.12-7.91,24.35-13.36,35.91c-0.89,1.88-1.96,3.68-2.86,5.55
						c1.81-3.79,0.57-0.98-0.1,0.04c-0.43,0.64-0.88,1.25-1.34,1.87c-0.18,0.25-0.42,0.46-0.59,0.71c-0.88,1.29,2.4-1.78,0.88-0.89
						c-0.39,0.23-0.92,0.61-1.26,0.91c-0.6,0.55-1.96-0.33,1.53-0.89c-0.34,0.06-0.74,0.41-1.07,0.54c-1.16,0.47-2.32,0.87-3.5,1.3
						c-1.57,0.55,2.77-0.64,1.1-0.32c-0.39,0.08-0.78,0.19-1.17,0.28c-0.83,0.19-1.67,0.36-2.5,0.52c-3.79,0.7-7.64,1.08-11.48,1.35
						c-2.15,0.15-4.29,0.25-6.45,0.32c-0.84,0.03-5.13,0.26-1.61,0.05c-1.29,0.08-2.62,0.03-3.92,0.03c-11.5,0-22.99-0.59-34.47-1.4
						c-25.66-1.82-51.24-4.77-76.75-8.08c-19.35-2.51-38.66-5.31-57.97-8.13c-5.54-0.81-10.82,3.54-11.4,8.78
						C1137.8,702.5,1142.04,707.24,1147.6,708.05L1147.6,708.05z"/>
				</g>
			</g>
		</g>
		<g id="Ebene_5_1_">
			<g>
				<g>
					<path class="st11" d="M925.1,462.37c27.46,45.3,54.92,90.59,82.38,135.89c3.99,6.58,8.45,11.11,16.3,13.03
						c6.96,1.71,15.37,0.82,20.88-4.11c35.08-31.37,70.16-62.74,105.24-94.11c35.08-31.37,70.16-62.74,105.24-94.11
						c19.81-17.71,39.61-35.42,59.42-53.13c4.74-4.24,8.15-9.2,8.87-15.6c0.64-5.68-1.21-12.77-5.19-17.18
						c-8.1-8.99-24.09-12.63-33.96-3.81c-35.08,31.37-70.16,62.74-105.24,94.11c-35.08,31.37-70.16,62.74-105.24,94.11
						c-19.81,17.71-39.61,35.42-59.42,53.13c12.39,2.97,24.79,5.95,37.18,8.92c-27.46-45.3-54.92-90.59-82.38-135.89
						c-3.31-5.45-6.86-9.81-13.15-12.26c-5.58-2.18-13.3-2.35-18.76,0.26c-5.48,2.62-10.53,6.86-12.59,12.61
						C922.7,449.78,921.87,457.05,925.1,462.37L925.1,462.37z"/>
				</g>
			</g>
		</g>
		<g id="Ebene_9_1_">
			<g class="st12">
				<path d="M765.45,196.13c-20.89,186.06,168.62,429.94,302.09,558.54c-18.61,2.63-38.55-24.48-74.89-59.5
					c-51.37-49.49-35.07-53-64.99-68.6c-24.85-12.96-56.89-13.8-84.76-17.8c-25.69-3.68-57.44-11.7-72.54-26.12
					c-19.92-19.01-35.19-233.57-16.13-362.23"/>
				<g>
					<path d="M758.59,195.36c-4.28,38.63,0.27,77.89,9.77,115.61c10.53,41.82,26.83,82.21,46.21,120.96
						c20.56,41.11,44.67,80.57,70.84,118.61c25.82,37.51,53.76,73.66,83.35,108.48c26.53,31.22,54.38,61.43,83.65,90.28
						c3.23,3.19,6.48,6.35,9.75,9.5c1.42-3.57,2.84-7.15,4.27-10.72c-0.5,0.06-1,0.1-1.5,0.15c1.86-0.16,0.28,0.01-0.16-0.03
						c-0.85-0.08-1.69-0.16-2.54-0.3c-1.94-0.31,0.6,0.33-1.29-0.35c-1.07-0.38-2.12-0.77-3.16-1.25c-0.54-0.25-1.07-0.52-1.61-0.78
						c1.18,0.61-0.05-0.03-0.34-0.2c-1.03-0.63-2.05-1.26-3.06-1.93c-2.21-1.5-4.33-3.13-6.39-4.83
						c-10.93-9.03-20.51-19.59-30.39-29.64c-19.35-19.68-40.15-38.13-55.79-60.86c-3.12-4.53-5.99-9.3-9.76-13.38
						c-4.71-5.1-10.4-8.91-16.52-12.27c-30.17-16.55-65.31-15.82-98.49-21.55c-15.13-2.61-30.31-6.33-44.28-12.71
						c-5.73-2.62-11.12-5.83-15.81-9.99c-0.7-0.61,0.56,0.85-0.24-0.3c-0.19-0.26-0.41-0.53-0.61-0.77
						c-0.67-0.79-0.28-1.25,0.19,0.37c-0.12-0.42-0.51-0.87-0.73-1.26c-1.05-1.93-1.87-3.98-2.61-6.05
						c-0.24-0.67-0.47-1.35-0.7-2.02c-0.17-0.51-0.78-2.6-0.18-0.52c-0.42-1.46-0.85-2.91-1.24-4.38c-1.94-7.3-3.4-14.72-4.69-22.15
						c-7.92-45.85-10.44-92.73-11.68-139.08c-1.46-54.38-0.52-109.15,5.87-163.19c0.7-5.89,1.47-11.76,2.34-17.63
						c1.25-8.49-12.47-10.02-13.72-1.54c-7.92,53.75-9.35,108.52-8.57,162.8c0.7,49.9,3.02,100.18,10.38,149.67
						c2.2,14.85,4.58,30.16,9.94,44.34c1.86,4.92,4.32,9.07,8.35,12.63c10.79,9.54,25.57,14.93,39.35,18.87
						c16.09,4.6,32.56,7.25,49.17,9.19c17.06,2,34.48,3.48,51,8.4c4.06,1.21,8.06,2.62,11.95,4.28c1.75,0.75,3.47,1.55,5.17,2.4
						c0.72,0.36,1.42,0.74,2.13,1.1c1.24,0.66-0.72-0.42,0.79,0.43c3.13,1.77,6.22,3.65,9.05,5.86c0.52,0.41,1.03,0.82,1.52,1.24
						c0.68,0.58,1.56,1.51,0.38,0.3c0.98,1.02,1.98,2,2.9,3.08c1.72,2.02,3.25,4.2,4.74,6.39c4.56,6.67,9.14,13.28,14.28,19.55
						c9.86,12.02,21.03,22.85,32.15,33.76c11.95,11.73,23.32,24.01,35.44,35.59c7.98,7.62,16.66,16.03,27.34,20
						c4.43,1.65,9.12,2.32,13.83,1.72c4.75-0.6,8.02-7.11,4.27-10.72c-28.75-27.72-56.13-56.78-82.25-86.82
						c-29.42-33.83-57.29-68.94-83.21-105.33c-26.41-37.07-50.8-75.54-71.98-115.63c-20.07-37.99-37.55-77.59-49.41-118.69
						c-10.65-36.93-17.1-75.51-14.9-113.57c0.26-4.53,0.65-9.05,1.15-13.56C773.25,188.38,759.54,186.82,758.59,195.36
						L758.59,195.36z"/>
				</g>
			</g>
		</g>
	</g>
</g>
</svg>
