<?xml version="1.0" encoding="utf-8"?>
<!-- Generator: Adobe Adobe Illustrator 24.2.0, SVG Export Plug-In . SVG Version: 6.00 Build 0)  -->
<svg version="1.1" xmlns="http://www.w3.org/2000/svg" xmlns:xlink="http://www.w3.org/1999/xlink" x="0px" y="0px"
	 viewBox="0 0 1700.79 1700.79" style="enable-background:new 0 0 1700.79 1700.79;" xml:space="preserve">
<style type="text/css">
	.st0{fill:#3E4C5B;stroke:#5B636E;stroke-width:1.0618;stroke-miterlimit:10;}
	.st1{fill:#D3E1EC;stroke:#000000;stroke-width:13.8184;stroke-miterlimit:10;}
	.st2{stroke:#000000;stroke-width:13.8184;stroke-miterlimit:10;}
	.st3{fill:none;stroke:#000000;stroke-width:13.8184;stroke-miterlimit:10;}
	.st4{fill:#3E4C5B;stroke:#000000;stroke-width:19.1554;stroke-miterlimit:10;}
	.st5{fill:#808D9C;stroke:#000000;stroke-width:16.2963;stroke-miterlimit:10;}
	.st6{stroke:#000000;stroke-width:1.431;stroke-miterlimit:10;}
	.st7{opacity:0.302;}
	.st8{opacity:0.1686;}
	.st9{fill:#FFFFFF;}
	.st10{opacity:0.1608;}
	.st11{fill:#F4F5E7;}
	.st12{fill:#F3C057;}
	.st13{fill:#7F8D9C;}
	.st14{fill:#CA334D;}
	.st15{fill:#CA344E;}
	.st16{opacity:0.149;}
</style>
<g id="Ebene_4">
</g>
<g id="Ebene_8">
	<path class="st0" d="M643.28,393.65c55.04-21.27,92.64-78.63,90.6-135.83s-42.64-110.59-97.72-130.78s-121.48-6.94-165.52,31.61
		s-64.45,100.27-53.28,156.39c10.55,53.04,68.64,92.27,123.94,83.03c-2.33-9.32-4.67-18.64-7-27.96
		c-42.37-1.62-78.2-39.11-81.2-80.1c-3-40.99,23.77-81.52,61.55-100.56s84.31-17.9,123.13-1.65c32.69,13.69,55.08,47.54,54.35,82.18
		c-0.73,34.64-24.54,67.99-57.8,80.95C637.72,365.23,641.11,379.51,643.28,393.65z"/>
</g>
<g id="Ebene_6">
	<path class="st1" d="M547.04,420.7c-2.91-19.76-6.43-43.66-9.34-63.43c35.54-6.83,91.21-18.66,91.21-18.66s7.43,38.09,15.3,69.7"/>
	<path class="st1" d="M495.46,576.17c-1.51-3.57-3.02-17.75-3.08-21.38c-0.32-20.38,0.54-40.32,25.89-43.99l187.2-32.42
		c17.8-2.58,20.13,8.68,27.57,24.48c3.7,7.85,7.52,17.18,10.72,27.57"/>
	<path class="st2" d="M530.88,506.6c4.5-23.54,6.73-55.2,11.22-78.74c34.44-6.46,108.84-20.51,108.84-20.51s27.01,46,41.36,73.32"/>
	<path class="st3" d="M635.94,351.19c88.31-16.84,88.43-204.95-86.22-171.66c-162.02,30.89-96.31,204-15.45,192.28"/>
	<path class="st3" d="M640.61,383.44C812.25,343.62,743.82,93.39,554,120.91C341,161.13,391.04,422.79,539.68,401.24"/>
	<path class="st2" d="M687.93,1044.85c-32.51,4.71-26.22,46.16,4.89,39.8C721.73,1078.74,721.11,1038.33,687.93,1044.85z"/>
	<path class="st2" d="M662.99,869.37c-15.23,62.14-8.16,127.63,24.38,179.72C707.69,987.19,693.66,931.09,662.99,869.37z"/>
	<path class="st2" d="M675.55,1065.11c-47.09-5.02-66.43-5.36-133.66,21.17C607.68,1090.1,629.44,1087.41,675.55,1065.11z"/>
</g>
<g id="Ebene_5">
	
		<ellipse transform="matrix(0.9897 -0.1435 0.1435 0.9897 -144.041 112.5266)" class="st4" cx="708.28" cy="1055.09" rx="545" ry="522.38"/>
	
		<ellipse transform="matrix(0.9897 -0.1435 0.1435 0.9897 -144.0408 112.5265)" class="st5" cx="708.28" cy="1055.09" rx="458.66" ry="449.25"/>
	
		<ellipse transform="matrix(0.9897 -0.1435 0.1435 0.9897 -144.6084 113.4455)" class="st1" cx="714.37" cy="1059.49" rx="388.51" ry="381.34"/>
</g>
<g id="Ebene_7">
	<path class="st3" d="M736.01,1385.6c-1.6-39.43-4.15-77.98-5.75-117.42"/>
	<path class="st3" d="M764.95,1380.2c-12.98-40.7-22.09-74.12-32.22-112.37"/>
	<path class="st3" d="M704.71,1269.5c6.6,45.5,9.78,78.12,16.74,118.22"/>
	<path class="st3" d="M585.66,1375.97c11.09-38.49,22.19-76.98,33.28-115.48"/>
	<path class="st3" d="M528.58,1354.63c17.24-43.25,24.24-58.34,44.52-109.24"/>
	<path class="st3" d="M542.89,1359.86c18.02-42.98,31.3-73.77,45.99-108.8"/>
	<path class="st3" d="M556.22,1365.46c20.81-34.65,41.62-69.3,62.43-103.95"/>
	<path class="st3" d="M887.19,1328.04c-19.03-35.91-25.43-47.97-57.1-107.71"/>
	<path class="st3" d="M880.48,1155.51c37.6,16.73,75.21,33.45,112.81,50.18"/>
	<path class="st3" d="M887.08,1142.53c36.74,16.26,75.76,33.24,112.5,49.5"/>
	<path class="st3" d="M893.8,1129.59c50.84,21.64,59.24,26.42,111.76,48.78"/>
	<path class="st3" d="M899.61,1116.04c44.23,20.21,69.39,29.65,112.4,49.31"/>
	<path class="st3" d="M912.58,1309.04c-25.78-28.7-55.69-58.1-81.47-86.8"/>
	<path class="st3" d="M904.2,1013.03c49.09-5.66,82.45-11.61,123.99-16.4"/>
	<path class="st3" d="M906.34,1027.74c41.36-5.25,82.72-10.5,124.08-15.74"/>
	<path class="st3" d="M908.5,1042.69c45.62-6.61,78.97-9.11,124.09-15.65"/>
	<path class="st3" d="M867.07,928.92c32.59-22.23,65.17-44.47,97.76-66.7"/>
	<path class="st3" d="M858.3,917.01c32.14-21.7,65.65-45.19,97.79-66.89"/>
	<path class="st3" d="M770.18,859.35c20.58-51.93,21.41-54.59,44.15-111.95"/>
	<path class="st3" d="M613.96,738.29c16.47,38.37,28.7,69.61,45.18,107.98"/>
	<path class="st3" d="M630.22,850.46c4.07-41.68,7-78.74,11.07-120.42"/>
	<path class="st3" d="M657.19,727.74c6.75,38.19,13.51,76.39,20.26,114.58"/>
	<path class="st3" d="M672.28,725.55c7.28,37.9,15.73,76.28,23.01,114.18"/>
	<path class="st3" d="M462.56,815.36c33.56,25.24,63.23,49.32,96.79,74.56"/>
	<path class="st3" d="M533.69,909.24c-16.29-38.02-32.58-76.05-48.87-114.07"/>
	<path class="st3" d="M498.22,785.01c24.74,30.71,49.48,61.42,74.22,92.13"/>
	<path class="st3" d="M365.68,951.87c39.03,5.96,85.68,11.87,124.71,17.83"/>
	<path class="st3" d="M477.85,995.03c-33.3-25.31-66.61-50.61-99.91-75.92"/>
	<path class="st3" d="M355.24,1110.53c36.98-13.94,73.96-27.89,110.93-41.83"/>
	<path class="st3" d="M352.18,1081.42c40.72,4.07,79.18,11.64,119.91,15.71"/>
	<path class="st3" d="M358.59,1125.65c38.02-3.73,76.04-7.45,114.06-11.18"/>
	<path class="st3" d="M424.02,1269.08c36.25-19.28,68.76-38.02,105.01-57.3"/>
	<path class="st3" d="M414.18,1256.67c31.56-22.88,63.13-45.77,94.69-68.65"/>
	<path class="st3" d="M403.64,1244.03c30.05-23.1,63.3-46.66,93.35-69.76"/>
	<path class="st3" d="M393.1,1231.49c42.74-31.67,47.69-35.94,94.32-70.49"/>
	<path class="st3" d="M448.81,1295.7c28.19-28.98,48.73-52.95,78.77-83.84"/>
</g>
<g id="Ebene_9">
	<g>
		<g>
			<path d="M672.92,866.52c10.07,65.25,20.14,130.5,30.2,195.75c0.59,3.81,5.14,2.37,7.09,0.79c3.01-2.44,4.54-6.53,3.96-10.29
				c-10.07-65.25-20.14-130.5-30.2-195.75c-0.59-3.81-5.14-2.37-7.09-0.79C673.87,858.66,672.34,862.76,672.92,866.52L672.92,866.52
				z"/>
		</g>
	</g>
	<g>
		<g>
			<path d="M715.47,1083.57c47.64-10.45,95.25-21.14,143.55-28.18c5.89-0.86,10.86-15.51,2.7-14.32
				c-48.29,7.04-95.9,17.74-143.55,28.18C712.36,1070.52,707.53,1085.31,715.47,1083.57L715.47,1083.57z"/>
		</g>
	</g>
	
		<ellipse transform="matrix(0.9897 -0.1435 0.1435 0.9897 -145.4488 112.4151)" class="st6" cx="706.8" cy="1064.79" rx="32.25" ry="34.42"/>
</g>
<g id="Ebene_10">
	<g class="st7">
		<path d="M417.87,628.44c-95.32,175.61-146.32,402.76-61.23,581.65s304.59,303.34,503.44,345.4
			c-495.35,71.81-756.2-267.35-677.1-592.57c33.94-139.55,103.38-248.8,226.23-341.43"/>
		<g>
			<path d="M413.73,626.05c-41.5,76.61-73.31,158.93-91.16,244.3c-17.31,82.79-21.31,169.56-2.86,252.52
				c17.09,76.88,55.02,146.28,107.46,204.72c52.04,58,115.64,105.17,183.61,142.88c68.95,38.25,143.23,67.31,219.78,86.17
				c8.89,2.19,17.82,4.23,26.78,6.13c1.36-4.82,2.73-9.63,4.09-14.45c-58.43,8.42-117.64,11.73-176.6,8.17
				c-51.81-3.13-103.37-11.56-153.14-26.39c-44.4-13.23-87.33-31.79-127.08-55.64c-36.88-22.12-71.03-48.85-100.88-79.83
				c-28.38-29.46-52.91-62.6-72.64-98.44c-19.32-35.1-33.85-72.76-43.33-111.68c-9.58-39.34-13.82-79.86-12.88-120.33
				c1.02-43.99,8.63-87.38,20.8-129.62c15.43-53.58,37.62-105.07,67.68-152.1c30.56-47.81,68.98-90.18,112.03-127.03
				c11.5-9.84,23.32-19.28,35.39-28.4c2.7-2.04,5.1-6.9,3.96-10.29c-1.23-3.65-4.72-2.59-7.09-0.79
				c-47.65,36.01-91.31,77.6-127.31,125.38c-34.3,45.52-61.38,96.1-80.89,149.63c-16.94,46.47-29.34,95.05-33.95,144.36
				c-3.9,41.71-2.54,83.69,4.33,125.02c6.73,40.48,18.85,80.02,36,117.3c17.33,37.66,39.54,72.93,66.17,104.72
				c27.63,32.97,59.8,62.14,95.07,86.75c38,26.51,79.6,47.7,123.08,63.63c47.96,17.57,98.08,28.92,148.79,34.78
				c57.6,6.66,115.83,6.27,173.5,0.72c15.48-1.49,30.91-3.38,46.3-5.59c4.92-0.71,11.03-12.97,4.09-14.45
				c-75.3-16-148.46-42.23-217.04-77.15c-68.89-35.09-134.05-79.31-188.68-134.27c-53.31-53.64-95.58-117.56-117.65-190.26
				c-24.16-79.6-25.08-164.64-11.8-246.29c13.68-84.11,41.9-165.86,80.03-241.95c4.62-9.23,9.41-18.37,14.32-27.45
				c1.32-2.43,3.02-7.45-0.16-9.29C418.77,619.76,415.01,623.7,413.73,626.05L413.73,626.05z"/>
		</g>
	</g>
	<g class="st7">
		<path d="M508.66,522.3c10.22,34.8,204.21-4.67,223.07-0.57c-17.38,0.52-216.22,42.63-232.37,44.97
			c-13.42,1.95-2.32-37.93,9.48-44.49c4.02,2.23-0.17,15.55,3.85,17.78"/>
		<g>
			<path d="M503.13,527.05c3.27,10.43,15.97,13.44,25.43,15.03c16.43,2.77,33.48,2.23,50.06,1.41
				c38.98-1.92,77.67-7.43,116.38-12.08c7.25-0.87,15.05-1.8,21.71-2.31c3.96-0.3,8.34-0.89,12.28-0.08
				c1.83-4.86,3.65-9.71,5.48-14.57c-12.29,0.45-24.8,3.66-36.83,5.92c-22.34,4.19-44.63,8.65-66.92,13.13
				c-40.71,8.18-81.34,16.85-122.13,24.63c-2.24,0.43-4.48,0.87-6.73,1.23c-2.06,0.34-2.47-0.32-2.8-2.45
				c-0.85-5.47,1.19-11.7,3.1-16.75c1.11-2.94,2.22-5.36,3.91-8.06c0.83-1.32,2.18-2.89,2.88-3.31c-1.36,0.11-2.73,0.22-4.09,0.33
				c1.02,0.76,0.12,7.15,0.18,8.44c0.17,3.59,0.65,7.06,3.67,9.34c5,3.77,13.32-9.76,7.96-13.79c-1.02-0.76-0.12-7.15-0.18-8.44
				c-0.17-3.59-0.65-7.06-3.67-9.34c-1.07-0.81-3.1-0.26-4.09,0.33c-11.14,6.69-16.74,21.41-19.67,33.42
				c-1.85,7.61-4.43,26.02,8.34,24.86c12.9-1.18,25.95-4.9,38.61-7.46c48.76-9.85,97.47-19.98,146.33-29.38
				c10.28-1.98,20.57-3.93,30.89-5.72c3.56-0.62,7.12-1.22,10.69-1.74c1.19-0.17,2.39-0.33,3.58-0.48c0.46-0.06,0.93-0.1,1.39-0.15
				c-1.94,0.2-0.36,0.04,0.09,0.02c5.56-0.2,13.07-13.03,5.48-14.57c-3.29-0.67-6.88-0.28-10.2-0.07c-6.18,0.4-12.35,1.07-18.5,1.77
				c-17.02,1.93-34.01,4.2-51.02,6.23c-36.79,4.4-75.04,9.76-112.13,6.23c-6.58-0.63-13.86-1.63-19.55-3.91
				c-2.3-0.92-4.55-2.06-6.48-3.64c-0.6-0.49-2.26-3.01-2.42-3.52C511.77,509.84,501.34,521.34,503.13,527.05L503.13,527.05z"/>
		</g>
	</g>
</g>
<g id="Ebene_11">
	<g class="st8">
		<g>
			<path class="st9" d="M751.13,572.71c98.63,11,193.41,51.24,269.86,114.54c78.7,65.17,134.49,155.06,158.77,254.26
				c13.8,56.37,17.35,115.24,9.73,172.8c-0.4,3,0.54,6.42,4.23,5.74c3.46-0.63,6.5-5.34,6.93-8.58
				c13.84-104.59-7.43-212.42-59.29-304.26c-50.14-88.79-129.02-159.3-221.04-202.65c-51.55-24.29-107.08-40.13-163.72-46.44
				C750.48,557.46,744.08,571.93,751.13,572.71L751.13,572.71z"/>
		</g>
	</g>
	<g class="st8">
		<g>
			<path class="st9" d="M790.38,657.82c78.89,18.66,152.83,59.17,210.69,116c60.78,59.7,102.22,136.8,118.66,220.4
				c9.41,47.86,10.4,97.33,2.71,145.5c-0.48,3.01,0.6,6.41,4.23,5.74c3.53-0.65,6.41-5.33,6.93-8.58
				c14.08-88.22,0.1-179.76-39.28-259.92c-37.13-75.58-97.23-138.55-169.44-181.56c-40.04-23.85-83.68-41.42-129.04-52.15
				C789.97,641.85,783.26,656.13,790.38,657.82L790.38,657.82z"/>
		</g>
	</g>
	<g class="st8">
		<g>
			<path class="st9" d="M588.87,153.88c33.58,6.23,67.71,20.14,91.68,45.21c21.48,22.47,32.67,53.35,26.24,84.28
				c-3.29,15.83-11.55,29.68-24.34,39.62c-2.68,2.08-5.11,6.87-3.96,10.29c1.22,3.62,4.73,2.62,7.09,0.79
				c27.56-21.4,38.39-57.84,33.06-91.55c-5.73-36.21-31.7-64.67-62.97-81.97c-19.01-10.52-40.01-17.3-61.32-21.25
				C588.34,138.19,581.75,152.56,588.87,153.88L588.87,153.88z"/>
		</g>
	</g>
	<g class="st8">
		<g>
			<path class="st9" d="M632.08,434.77c5.16,12.82,10.31,25.64,15.47,38.46c3.07,7.63,13.29-3.94,11.05-9.5
				c-5.16-12.82-10.31-25.64-15.47-38.46C640.06,417.64,629.84,429.21,632.08,434.77L632.08,434.77z"/>
		</g>
	</g>
	<g>
		<g id="Ebene_8_1_">
			<g class="st10">
				<path d="M1038.82,1271.41c108.34,52.02,212.25,92.14,328.72,148.06c-44.57-143.19-101.85-296.81-191.04-421.39
					c-59.25-82.76-135.76-153.45-209.39-225.65c-156.09-153.07-301.46-315.58-434.84-486.1c-5.24,19.09-35.31,22.48-52.85,10.92
					c-17.55-11.56-25.74-31.48-34.23-49.81s-19.97-37.73-39.96-44.94C353.75,223.2,295,242.72,267.13,287.9
					c-30.62,49.63-38.93,45.86,29.63,117.26c7.08,7.37,42.71,46.79,57.23,57.43c178.74,131.02,134.13,88.96,102.32,112.68"/>
				<g>
					<path d="M1037.94,1274.98c83.04,39.82,168.46,74.9,252.51,112.7c25.55,11.5,50.97,23.25,76.21,35.35
						c3.11,1.49,7.22,1.13,5.96-2.93c-25.96-83.33-54.82-166.12-91.45-246.16c-36.61-80.01-81.19-157.04-138.81-226.03
						c-59.76-71.55-129.61-135.06-196.07-201.12C877.42,678.31,810.67,608,746.17,535.96c-64.67-72.23-127.09-146.2-187.13-221.8
						c-7.48-9.42-14.93-18.87-22.34-28.34c-1.57-2.01-8.41-6.72-9.79-2.24c-4.66,15.1-25.13,18.82-39.56,13.66
						c-18.8-6.73-27.59-28.5-34.85-44.26c-7.77-16.87-16.44-34.41-32.26-46.22c-3.81-2.84-7.98-5.26-12.42-7.14
						c-5.3-2.25-7.59-0.95-12.67,1.06c-9.15,3.63-18.32,7.2-27.45,10.9c-35.44,14.35-72.42,31.13-96.5,60.18
						c-9.14,11.02-16.52,23.82-23.75,36.04c-4.34,7.33-8.49,15.12-8.56,23.73c-0.06,8.95,4.51,17.38,9.62,24.82
						c9.45,13.72,21.48,26.04,33.03,38.23c20.3,21.45,39.78,44.04,61.93,63.87c14.75,13.2,32,24.26,48.12,35.96
						c14.34,10.4,28.72,20.76,43.08,31.13c9.27,6.69,18.55,13.37,27.71,20.19c3.14,2.35,6.28,4.7,9.34,7.12
						c1.09,0.86,2.17,1.74,3.25,2.62c0.5,0.41,1,0.83,1.5,1.25c-1.28-1.1,0.3,0.28,0.56,0.51c0.71,0.66,1.39,1.33,2.1,2
						c0.26,0.25,0.49,0.52,0.74,0.77c1.01,1.07-0.81-0.98,0.06,0.06c0.96,1.16,0.14,0.28,0.27,0.29c0.39,0.03,0.04-0.36,0.04,0.19
						c-0.01-0.92-0.21-0.49,0.09-0.58c-0.87,0.27-1.75,0.8-2.62,1.11c-0.6,0.21-1.28,0.35-3.18,0.82c-1.72,0.43-3.44,0.84-5.15,1.32
						c-4,1.1-7.92,2.42-11.55,4.31c-2,1.04-3.9,2.23-5.7,3.55c-4.44,3.27,4.67,11.07,8.3,8.39c2.94-2.17,6.17-3.95,9.62-5.35
						c3.06-1.25,6.03-2.1,8.26-2.66c3.57-0.89,9.84-1.35,12.01-4.57c3.32-4.94-4.28-11.22-7.73-14.22
						c-11.02-9.6-23.29-18.02-35.17-26.63c-24.73-17.9-49.52-35.72-74.17-53.71c-11.46-8.36-22.37-16.44-32.39-26.28
						c-9.51-9.34-18.64-19-27.71-28.69c-17.78-19.01-37.14-37.25-52.72-57.88c-4.68-6.2-9.51-13.09-10.52-20.74
						c-0.84-6.39,1.4-12.56,4.3-18.2c4.43-8.62,10.1-16.69,15.27-24.92c8.06-12.84,17.31-24.28,29.32-34.15
						c25.16-20.69,56.87-33.48,87.54-45.63c7.67-3.04,15.36-6.05,23.01-9.11c-1.2-0.01-2.41-0.03-3.62-0.04
						c17.78,6.81,27.14,24.72,34.34,40.15c7.27,15.58,14.08,31.91,26.73,44.61c10.64,10.68,24.54,17.36,40.23,16.95
						c13.62-0.36,26.64-6.61,30.56-19.29c-3.27-0.75-6.53-1.49-9.79-2.24c59.14,75.57,120.59,149.59,184.28,221.91
						c63.62,72.24,129.48,142.78,197.47,211.52c66.15,66.87,136.46,130.45,199.16,200.2c60.95,67.8,109.45,142.85,148.52,223.08
						c38.59,79.22,68.81,161.63,95.53,244.71c3.27,10.17,6.49,20.36,9.66,30.55c1.99-0.98,3.97-1.95,5.96-2.93
						c-84.46-40.5-171.2-76.37-256.74-114.73c-24.14-10.83-48.16-21.9-71.98-33.32C1032.31,1264.3,1032.19,1272.22,1037.94,1274.98
						L1037.94,1274.98z"/>
				</g>
			</g>
		</g>
		<g id="Ebene_3">
			<g>
				<g>
					<path d="M1210.97,1309.44c57.3,20.61,113.11,44.79,167.07,72.32c2.97,1.51,7.43,1.1,5.96-2.93
						c-19.11-52.61-38.22-105.23-57.33-157.84c-0.89-2.44-6.28-6.86-9.24-4.83c-39.2,26.9-78.4,53.8-117.59,80.7
						c-4.54,3.11,4.54,10.97,8.3,8.39c39.2-26.9,78.4-53.8,117.59-80.7c-3.08-1.61-6.16-3.22-9.24-4.83
						c19.11,52.61,38.22,105.23,57.33,157.84c1.99-0.98,3.97-1.95,5.96-2.93c-54.85-27.99-111.64-52.55-169.88-73.5
						c-2.27-0.82-4.99-0.17-4.87,2.41C1205.16,1306.26,1208.53,1308.57,1210.97,1309.44L1210.97,1309.44z"/>
				</g>
			</g>
		</g>
		<g id="Ebene_4_1_">
			<g>
				<path class="st11" d="M1045.32,1225.31c29.32,7.57,54,25.86,80.26,40.38c26.26,14.52,57.84,25.68,86.45,17.02
					c21.21-6.41,36.89-22.54,55.3-34.12c18.72-11.78,42.67-21.29,48.63-41.67c3.6-12.28-0.61-25.39-4.78-37.66
					c-13.65-40.1-27.29-80.21-40.94-120.31c-66.71,63.89-140.09,121.75-218.8,172.56"/>
				<g>
					<path class="st11" d="M1045.85,1229.47c32.86,8.69,58.94,30.35,88.78,44.97c27.84,13.64,61.24,22.35,90.58,9.06
						c13.6-6.16,24.89-15.7,36.74-24.23c11.06-7.96,23.36-14.07,34.8-21.5c10.54-6.84,20.38-15.24,24.25-27.04
						c5.14-15.65-1.87-32.4-6.98-47.42c-12.89-37.9-25.8-75.8-38.69-113.71c-1.02-2.99-7.05-7.08-10.01-4.25
						c-51.92,49.67-107.79,95.74-167.15,137.62c-16.69,11.78-33.66,23.22-50.87,34.35c-4.6,2.98,4.44,10.89,8.3,8.39
						c61.55-39.77,119.88-83.77,174.31-131.62c15.41-13.54,30.49-27.39,45.27-41.53c-3.34-1.42-6.67-2.83-10.01-4.25
						c10.98,32.28,21.97,64.56,32.95,96.84c2.74,8.06,5.49,16.1,8.22,24.16c2.58,7.62,5.07,15.37,5.53,23.37
						c0.78,13.66-6.76,24.54-17.72,32.76c-10.3,7.73-22.3,13.27-33.11,20.34c-11.82,7.73-22.39,17-34.57,24.28
						c-12.61,7.55-26.68,11.88-41.97,11.12c-15.44-0.77-30.46-5.63-44.3-12.04c-32.45-15.04-60.06-38.63-95.41-47.97
						C1036.92,1219.07,1040.64,1228.09,1045.85,1229.47L1045.85,1229.47z"/>
				</g>
			</g>
		</g>
		<g id="Ebene_5_1_">
			<g>
				<path class="st12" d="M497.52,584.83c166.42,200.88,322.26,398.9,496.26,594.19c10.5,11.78,35.31,38.98,51.55,40.39
					c17.3,1.49,32.5-26.22,46.25-35.79c59.16-41.15,88.53-70.87,150.07-118.77c4.96-3.86,46.74-20.31,13.17-54.71
					c-179.22-183.7-577.77-608.61-586.54-609.03c-7.03-0.34-14.38,2.41-19.02,7.24c-42.65,44.46-101.06,79.18-141.64,127.56
					c-12.78,15.22-23.01,40.25-5.8,51.73"/>
				<g>
					<path class="st12" d="M493.08,585.35c35.87,43.31,71.5,86.77,107.07,130.29c35.12,42.97,70.18,85.97,105.35,128.89
						c35.11,42.83,70.34,85.58,105.87,128.11c35.83,42.89,71.96,85.56,108.57,127.88c18.45,21.32,37,42.55,55.7,63.68
						c13.59,15.35,26.86,31.17,42.83,44.49c6.78,5.66,14.57,11.45,23.34,14.07c7.9,2.36,15.24,0.71,21.72-3.74
						c7.38-5.07,13.18-11.81,19.04-18.3c2.87-3.17,5.72-6.35,8.86-9.29c3.63-3.4,7.88-6.09,11.96-9
						c36.61-25.98,70.4-54.95,104.87-83.29c9.83-8.08,19.73-16.08,29.73-23.97c5.13-4.05,10.09-7.37,15.62-10.81
						c11.74-7.3,22.17-18.25,18.97-32.54c-3.58-15.92-18.76-27.94-30.11-39.62c-9.89-10.18-19.75-20.38-29.6-30.58
						c-22.35-23.16-44.65-46.38-66.91-69.62c-24.42-25.49-48.79-51.01-73.15-76.55c-25.52-26.76-51.02-53.52-76.53-80.3
						c-25.22-26.48-50.43-52.96-75.64-79.44c-23.96-25.15-47.91-50.3-71.9-75.42c-21.29-22.3-42.6-44.6-63.95-66.84
						c-17.63-18.37-35.3-36.72-53.04-55c-12.62-12.99-25.26-25.97-38.11-38.77c-6.8-6.77-13.49-13.99-21.1-20
						c-7.25-5.73-17.91-2.8-24.73,2.09c-4.59,3.3-8.23,7.86-12.23,11.74c-4.26,4.14-8.63,8.17-13.06,12.14
						c-8.98,8.03-18.26,15.78-27.62,23.42c-18.95,15.47-38.27,30.57-56.43,46.85c-9.05,8.11-17.81,16.5-26.03,25.35
						c-7.03,7.56-13.94,15.29-18.69,24.35c-7.77,14.81-10.43,33.37,5.82,44.71c1.74,1.22,5.46,2.97,7.2,0.9
						c1.69-2.02-0.98-5.14-2.67-6.31c-6.58-4.58-6.65-12.68-5.15-19.47c1.87-8.46,6.17-16.33,11.48-23.29
						c13.82-18.1,31.64-33.89,49.13-48.84c18.21-15.54,37.22-30.25,55.6-45.62c8.88-7.42,17.61-14.99,26-22.88
						c7.83-7.37,14.96-18.3,27.13-19.2c1.96-0.14,2.39,0.34,0.69-0.34c-0.94-0.38-1.76-0.78-1.06-0.41
						c-1.28-0.66-1.44-1.03-0.49-0.24c0.4,0.34,0.8,0.68,1.22,0.99c0.77,0.57-1.46-1.31-0.46-0.4c0.28,0.26,0.57,0.5,0.86,0.76
						c3.13,2.83,6.17,5.75,9.19,8.69c10.84,10.56,21.41,21.35,31.97,32.14c15.74,16.09,31.37,32.27,46.97,48.47
						c19.65,20.41,39.24,40.85,58.81,61.32c22.59,23.62,45.15,47.28,67.69,70.93c24.22,25.42,48.43,50.84,72.64,76.27
						c24.98,26.24,49.96,52.47,74.96,78.71c24.4,25.61,48.82,51.21,73.26,76.78c22.85,23.91,45.72,47.8,68.64,71.65
						c20.28,21.1,40.6,42.19,61,63.2c4.47,4.61,8.95,9.2,13.42,13.8c6.24,6.41,13.19,13.23,14.53,22.11
						c1.93,12.84-9.56,21.77-19.96,27.8c-6.8,3.94-12.65,9.01-18.73,13.84c-9.43,7.49-18.76,15.08-28.04,22.73
						c-16.6,13.69-33,27.6-49.73,41.15c-17.53,14.19-35.49,27.89-54.04,40.93c-7.19,5.06-13.08,10.59-18.88,17
						c-5.65,6.26-11.27,13.19-18.59,17.86c-6.16,3.94-11.66,4.5-18.29,1c-7.78-4.12-14.46-10.21-20.66-16.16
						c-15.76-15.12-29.67-31.99-44-48.26c-36.3-41.21-72.08-82.8-107.5-124.66c-35.03-41.4-69.7-83.06-104.17-124.87
						c-34.6-41.96-69.02-84.05-103.4-126.16c-34.41-42.13-68.8-84.27-103.34-126.31c-16.9-20.57-33.84-41.12-50.83-61.62
						c-1.68-2.03-4.55-4.45-7.55-3.96C491.73,580.79,491.58,583.55,493.08,585.35L493.08,585.35z"/>
				</g>
			</g>
		</g>
		<g id="Ebene_6_1_">
			<g>
				<path class="st13" d="M345.3,467.58c24.73,33.22,52.78,64.32,83.67,92.77c7.71,7.1,16.62,14.46,27.36,14.93
					c12.11,0.52,22.11-7.84,30.67-15.67c51.9-47.51,99.56-98.55,151.47-146.06c10.69-9.79,26.4-17.84,25.59-31.92
					c-0.67-11.57-6.84-24.49-17.92-29.98c-31.62-15.66-54.14-48.34-66.79-69.27c-5.89-9.75-17.07-17.2-28.87-18.98
					c-15.23-2.29-28.76,7.92-39.87,17.6c-63.66,55.49-122.35,115.88-175.34,180.38"/>
				<g>
					<path class="st13" d="M340.85,468.11c19.52,26.17,41.01,51.09,64.34,74.44c5.92,5.92,11.95,11.74,18.1,17.46
						c5.74,5.34,11.59,10.62,18.53,14.58c6.36,3.64,13.87,5.85,21.3,5.08c6.98-0.74,13.23-3.99,18.62-7.94
						c12.81-9.38,23.9-21.15,35.25-31.98c12.31-11.76,24.46-23.68,36.57-35.62c24.21-23.9,48.24-47.95,73.02-71.34
						c5.97-5.63,11.89-11.34,18.07-16.76c5.01-4.39,10.58-8.22,15.41-12.8c4.21-4,8.01-8.89,9.05-14.56
						c1.12-6.04-0.42-12.67-2.62-18.43c-2.25-5.92-5.91-11.59-10.76-16.02c-5.07-4.63-11.42-7.16-17.21-10.83
						c-11.92-7.56-22.07-17.36-31.01-27.84c-7.78-9.12-14.6-18.95-20.89-29c-3.46-5.53-6.85-10.76-11.93-15.21
						c-5.48-4.79-12.02-8.6-19.15-10.78c-14.21-4.35-27.25-0.19-38.58,7.84c-12.56,8.9-23.67,19.81-34.95,30.06
						c-48.62,44.17-94.17,91.26-136.3,140.89c-5.19,6.11-10.32,12.26-15.41,18.45c-3.06,3.72,6.79,10.93,9.86,7.21
						c38.85-47.24,80.7-92.29,125.35-134.82c11.34-10.8,22.86-21.44,34.55-31.91c10.14-9.09,20.17-19.48,32.51-26.06
						c5.58-2.98,11.92-5.17,18.53-4.48c6.47,0.67,12.79,3.59,17.56,7.75c4.33,3.78,6.88,8.63,9.84,13.31
						c2.86,4.53,5.85,9,8.97,13.38c14.77,20.68,33.05,40.31,56.64,52.51c10.17,5.26,16.68,18.94,14.08,29.48
						c-2.72,11-15.64,17.8-23.83,25.04c-23.93,21.19-46.38,43.92-69.01,66.3c-22.92,22.67-45.76,45.42-69.3,67.54
						c-5.52,5.18-11.02,10.4-16.7,15.43c-4.88,4.31-10.17,8.47-16.49,10.85c-15.06,5.65-26.67-7-36.36-16.13
						c-22.61-21.33-43.69-44.09-62.9-68.12c-4.72-5.91-9.34-11.91-13.86-17.96c-1.55-2.08-4.65-4.44-7.55-3.96
						C339.42,463.57,339.48,466.27,340.85,468.11L340.85,468.11z"/>
				</g>
			</g>
		</g>
		<g id="Ebene_7_1_">
			<g>
				<path class="st14" d="M347.31,430.06c-40.83-20.3-65.19-55.36-94.61-86.73c-4.45-4.73-2.8-17.42-2.93-23.64
					c-0.14-6.88,5.31-12.52,10.44-17.39c42.38-40.36,84.76-80.71,127.14-121.07c8.12-7.74,18.65-16.13,30.05-13.27
					c6.86,1.72,11.86,7.16,16.39,12.3c20.7,23.53,41.39,47.07,62.08,70.59c4.77,5.43,9.8,11.49,9.78,18.43
					c-0.03,7.66-6.16,13.85-11.92,19.23c-50.39,47.08-100.78,94.15-151.18,141.23"/>
				<g>
					<path class="st15" d="M348.18,426.5c-19.59-9.85-35.95-23.76-50.74-39.13c-7.41-7.7-14.46-15.69-21.49-23.68
						c-3.11-3.54-6.22-7.07-9.35-10.59c-1.71-1.92-3.43-3.84-5.17-5.74c-0.87-0.95-1.74-1.91-2.61-2.85
						c-0.58-0.63-1.17-1.26-1.75-1.89c-0.97-1.1-1.15-1.27-0.56-0.51c-1.77-3.14-1.54-7.42-1.54-10.83c0-4.01-0.4-8.7,0.62-12.58
						c1.34-5.11,5.74-9.16,9.54-12.8c4.9-4.7,9.84-9.36,14.76-14.05c18.54-17.66,37.08-35.31,55.63-52.97
						c18.92-18.01,37.75-36.12,56.76-54.05c6.15-5.8,14.92-14.08,24.66-12.85c5.06,0.64,8.51,4.56,11.63,7.99
						c4.51,4.97,8.87,10.06,13.3,15.1c17.1,19.44,34.43,38.74,51.31,58.35c3,3.48,6.18,7.34,6.9,11.83
						c0.93,5.78-2.72,10.84-6.53,14.96c-8.56,9.27-18.56,17.58-27.82,26.25c-42.7,39.88-85.4,79.78-128.09,119.66
						c-3.41,3.18,6.21,10.62,9.86,7.21c40.97-38.27,81.93-76.54,122.91-114.81c10.06-9.4,20.32-18.65,30.19-28.23
						c8.23-7.98,13.57-17.6,7.92-28.61c-2.59-5.05-6.4-9.36-10.2-13.68c-4.56-5.18-9.12-10.37-13.68-15.55
						c-9.3-10.57-18.59-21.14-27.89-31.71c-4.73-5.39-9.47-10.77-14.2-16.15c-4.21-4.79-8.24-9.79-13.19-13.95
						c-8.81-7.4-20.11-10-30.76-5.02c-10.67,4.99-18.77,14.48-26.94,22.26c-10.03,9.55-20.06,19.1-30.08,28.64
						c-20.06,19.1-40.11,38.19-60.17,57.29c-9.96,9.48-20.63,18.61-29.92,28.67c-3.71,4.03-6.79,8.7-7.06,14.17
						c-0.21,4.19-0.3,8.45-0.22,12.64c0.09,4,0.47,8.17,2.34,11.87c2.33,4.61,7.02,8.47,10.5,12.35
						c7.58,8.43,14.96,17.01,22.54,25.43c15.27,16.94,31.7,33.37,51.43,45.9c4.99,3.16,10.11,6.11,15.41,8.77
						c1.92,0.97,5.41,1.73,6.22-0.81C353.46,430.35,350.19,427.5,348.18,426.5L348.18,426.5z"/>
				</g>
			</g>
		</g>
		<g id="Ebene_2_1_">
			<g>
				<g>
					<path d="M329.25,462.5c23.75,24.68,47.45,49.4,71.15,74.11c6.09,6.35,12.18,12.7,18.27,19.05c5.52,5.75,10.76,12.31,17.3,17.1
						c10.76,7.89,25.42,10.57,38.03,5.82c7.15-2.69,11.99-7.9,17.15-12.99c6.64-6.57,13.31-13.11,19.99-19.65
						c13.31-13.01,26.68-25.96,40.07-38.9c26.58-25.68,53.21-51.33,79.48-77.29c6.54-6.46,13.06-12.94,19.54-19.45
						c3.06-3.07,6.11-6.15,9.16-9.23c2.99-3.02,6.48-5.93,8.68-9.53c7.44-12.24-0.77-26.04-11.43-34.26
						c-9.75-7.51-20.21-14.29-29.17-22.66c-8.14-7.6-14.46-16.36-21.07-25.08c-5.75-7.57-12.1-14.8-18.56-21.85
						c-7.36-8.03-15.06-16.14-23.92-22.77c-3.19-2.38-6.7-4.69-10.63-5.83c-7.14-2.07-15.01-0.96-21.75,1.49
						c-7.34,2.66-13.52,7.15-19.41,11.88c-6.85,5.5-13.63,11.07-20.34,16.72c-53.68,45.11-103.07,94.55-148.79,146.69
						c-5.72,6.52-11.38,13.09-17,19.7c-3.11,3.66,6.71,10.91,9.86,7.21c42.66-50.22,88.49-98.15,138.15-142.46
						c12.53-11.18,25.3-22.13,38.32-32.82c10.69-8.77,23.6-21.52,39.39-20.41c1.09,0.08,2.18,0.21,3.23,0.47
						c0.77,0.19-0.59-0.36,0.82,0.37c1.18,0.61,0.37,0.15,1.13,0.63c0.96,0.62,1.88,1.29,2.78,1.98c3.64,2.75,6.94,5.86,10.16,9.02
						c7.57,7.39,14.66,15.23,21.43,23.27c5.92,7.02,11.05,14.56,16.85,21.65c6.57,8.02,13.85,15.2,22.08,21.77
						c4.68,3.73,9.52,7.28,14.34,10.85c5.33,3.93,11.44,7.51,14.16,13.57c2.54,5.66,1.58,11.67-2.46,16.35
						c-5.67,6.59-12.38,12.59-18.57,18.78c-49.6,49.63-100.81,97.83-150.82,147.09c-5.35,5.27-10.44,11.83-17.26,15.52
						c-5.19,2.81-11.27,4.08-17.32,3.37c-5.73-0.67-10.77-3.07-14.72-7.04c-5.75-5.79-11.29-11.76-16.93-17.64
						c-22.87-23.84-45.72-47.68-68.6-71.5c-5.26-5.48-10.52-10.95-15.78-16.42c-1.62-1.68-5.2-3.81-7.64-2.54
						C326.07,457.95,327.86,461.06,329.25,462.5L329.25,462.5z"/>
				</g>
			</g>
			<g>
				<g>
					<path d="M351.41,437.89c-29.4-28.05-61.86-54.27-87.22-85.7c-4.66-5.77-9.3-11.84-12.47-18.44c-2.08-4.33-3.75-8.81-2.16-13.2
						c2.03-5.58,6.8-10.54,10.8-14.94c5.93-6.52,12.38-12.63,18.92-18.63c11.74-10.76,24.21-20.82,35.8-31.7
						c15.99-15.01,29.93-32.08,44.93-47.95c8.09-8.56,16.38-16.95,24.92-25.12c4.72-4.51,9.33-9.57,14.67-13.45
						c3.14-2.28,6.57-3.64,10.62-2.9c4.34,0.79,8.53,2.67,12.72,3.98c1.37,0.43,2.75,0.82,4.12,1.21c1.26,0.36,0.03-0.03,0.29,0.08
						c0.44,0.18,1.53,0.89,0.54,0.25c0.75,0.47,1.45,1,2.14,1.54c5.73,4.38,11.56,10.98,16.67,16.78
						c10.98,12.46,20.87,25.63,30.82,38.79c9.9,13.09,20.42,25.17,32.26,36.78c4.11,4.03,8.22,8.08,12.3,12.13
						c1.67,1.66,5.17,3.83,7.64,2.54c2.49-1.29,0.77-4.43-0.66-5.85c-12.36-12.29-25.17-24.11-35.82-37.73
						c-11.25-14.37-21.86-29.09-33.65-43.1c-5.9-7.01-11.96-14-18.72-20.32c-2.71-2.53-5.53-5.05-8.68-7.11
						c-3.59-2.35-7.32-3.34-11.42-4.66c-8.48-2.73-17.64-6.9-26.28-2.73c-5.64,2.71-10.03,7.71-14.42,11.83
						c-4.94,4.63-9.8,9.32-14.59,14.09c-17.08,17-32.94,35-49.4,52.5c-11.35,12.06-23.91,22.7-36.4,33.72
						c-13.04,11.51-27.38,23.33-37.09,37.58c-3.08,4.53-5.15,9.07-4.28,14.57c1.04,6.63,4.58,12.9,8.27,18.6
						c10.7,16.57,25.3,31.16,39.52,45.16c15.76,15.5,32.23,30.36,48.45,45.43c3.31,3.07,6.61,6.16,9.87,9.28
						c1.7,1.63,5.14,3.84,7.64,2.54C354.53,442.47,352.87,439.28,351.41,437.89L351.41,437.89z"/>
				</g>
			</g>
			<g>
				<g>
					<path d="M474.01,568.59c46.38,53.12,91.74,106.99,136.59,161.23c44.6,53.95,88.71,108.23,132.88,162.48
						c44.23,54.34,88.53,108.63,133.42,162.51c22.37,26.84,44.89,53.58,67.62,80.17c11.6,13.57,23.25,27.09,34.97,40.56
						c7.77,8.94,15.44,18,23.89,26.41c8.04,8,17.06,16.43,27.81,21.18c12.16,5.36,23.18,1.14,33-6.15
						c13.69-10.16,26.59-21.32,39.8-31.99c14.09-11.38,28.19-22.76,42.28-34.14c27.98-22.6,55.96-45.19,83.94-67.79
						c6.94-5.6,13.88-11.21,20.83-16.82c5.78-4.67,11.74-9.35,16.19-15.21c8.57-11.27,7.79-24.15-0.19-35.79
						c-8.52-12.44-21.18-22.81-32.01-33.48c-12.33-12.14-24.65-24.3-36.93-36.48c-24.32-24.09-48.56-48.26-72.72-72.5
						c-47.29-47.44-94.26-95.16-140.93-143.12c-46.71-48.01-93.12-96.26-139.3-144.72c-47.68-50.03-95.12-100.26-142.41-150.62
						c-12.04-12.82-24.06-25.65-36.08-38.48c-1.59-1.7-5.22-3.79-7.64-2.54c-2.54,1.31-0.7,4.4,0.66,5.85
						c47.16,50.36,94.45,100.63,141.97,150.71c45.48,47.93,91.16,95.69,137.13,143.22c45.48,47.03,91.22,93.84,137.28,140.38
						c47.16,47.66,94.63,95.06,142.42,142.17c11.49,11.33,23.62,22.33,34.48,34.18c4.12,4.49,8.14,9.68,9.42,15.55
						c1.51,6.92-1.09,13.48-5.4,18.96c-4.59,5.83-10.6,10.51-16.41,15.21c-6.73,5.44-13.46,10.87-20.19,16.31
						c-13.68,11.04-27.34,22.08-41.02,33.13c-27.56,22.25-55.11,44.51-82.67,66.77c-13.36,10.79-26.49,21.92-40.16,32.38
						c-5.2,3.98-11.81,8.57-18.91,8.77c-3.45,0.1-6.79-1.73-9.6-3.47c-9.59-5.93-17.55-14.38-25-22.44
						c-9.28-10.05-18.07-20.5-27-30.82c-22.61-26.14-44.99-52.46-67.2-78.88c-44.35-52.77-88.01-106.04-131.52-159.4
						c-43.53-53.4-86.9-106.9-130.65-160.15c-43.54-52.99-87.45-105.73-132.21-157.84c-11.08-12.9-22.21-25.76-33.4-38.58
						c-1.52-1.74-5.28-3.77-7.64-2.54C470.76,564.08,472.7,567.11,474.01,568.59L474.01,568.59z"/>
				</g>
			</g>
			<g>
				<g>
					<path d="M1032.05,1227.85c44.05,21.69,88.45,42.74,133.1,63.32c47.47,21.88,95.22,43.24,143.29,63.91
						c25.66,11.04,51.42,21.87,77.31,32.43c3.05,1.24,5.63-0.57,4.56-3.52c-33.08-90.92-65.96-181.95-94.81-274.06
						c-7.79-24.85-15.25-49.78-22.33-74.8c-1.23-4.34-12.06-7.96-10.17-1.27c25.73,91.04,56.69,180.82,88.7,270.21
						c9.4,26.24,18.9,52.45,28.44,78.65c1.52-1.18,3.03-2.34,4.56-3.52c-46.47-18.96-92.53-38.83-138.34-59.2
						c-47.04-20.92-93.81-42.39-140.27-64.41c-24.18-11.46-48.27-23.07-72.26-34.88c-1.93-0.95-5.4-1.75-6.22,0.81
						C1026.78,1223.98,1030.04,1226.86,1032.05,1227.85L1032.05,1227.85z"/>
				</g>
			</g>
			<g>
				<path d="M1196.81,1301.7c31.47-26.2,102.71-67.41,126.16-93.29c15.84,54.11,40.57,111.05,57.7,169.55
					c-99.52-37.38-162.38-65.88-178.86-73.99"/>
				<g>
					<path d="M1201.74,1305.31c15.66-12.98,32.96-24.26,49.9-35.72c18.48-12.51,37.11-24.91,54.68-38.51
						c7.61-5.89,15.15-12.02,21.58-19.05c-3.34-1.42-6.67-2.83-10.01-4.25c16.81,57.17,40.9,112.36,57.7,169.55
						c1.52-1.18,3.03-2.34,4.56-3.52c-53.96-20.28-107.68-41.48-160.05-65.25c-5.84-2.65-11.66-5.32-17.41-8.14
						c-1.93-0.95-5.4-1.75-6.22,0.81c-0.79,2.45,2.46,5.34,4.48,6.32c38.77,19.05,79.36,35.18,119.6,51.15
						c20.14,8,40.37,15.79,60.67,23.42c3.22,1.21,5.43-0.54,4.56-3.52c-16.8-57.18-40.9-112.37-57.7-169.55
						c-0.84-2.87-7.28-7.23-10.01-4.25c-12.56,13.73-28.73,24.71-44.13,35.49c-18.65,13.04-37.77,25.52-56.39,38.6
						c-8.75,6.15-17.43,12.42-25.62,19.2C1188.36,1301.01,1197.86,1308.52,1201.74,1305.31L1201.74,1305.31z"/>
				</g>
			</g>
		</g>
		<g id="Ebene_9_1_">
			<g class="st16">
				<g>
					<path d="M249.17,324.45c0.63-4.45-10.02-10.39-10.71-5.52C237.84,323.38,248.48,329.34,249.17,324.45L249.17,324.45z"/>
				</g>
			</g>
			<g class="st16">
				<path d="M249.14,329.34c85.09,12.42,174.54-9.2,241.19-58.27c5.85-4.3,17.16-7.14,18.56-0.23c0.64,3.16-1.97,5.95-4.38,8.19
					c-50.13,46.6-100.27,93.2-150.4,139.8c-4.12,3.84-8.83,7.92-14.72,8.09c-6.28,0.18-11.64-4.14-16.19-8.27
					c-30.3-27.51-56.71-58.75-78.27-92.59"/>
				<g>
					<path d="M251.03,333.79c77.96,11.21,159.44-5.28,224.24-45.53c3.66-2.28,7.27-4.63,10.82-7.05c3.83-2.62,7.5-5.86,11.71-7.95
						c1.48-0.74,3.06-1.38,4.7-1.74c0.66-0.15,3.05,0.01,3.57-0.3c-0.85-0.72-1.71-1.43-2.55-2.15c0.14,0.93-0.06,1.79-0.57,2.58
						c-0.44,0.9-1.29,1.7-1.98,2.43c-2.24,2.35-4.75,4.49-7.14,6.7c-16.97,15.77-33.93,31.55-50.9,47.31
						c-16.97,15.77-33.93,31.55-50.9,47.31c-8.49,7.89-16.97,15.77-25.45,23.66c-3.85,3.59-7.72,7.17-11.57,10.75
						c-3.96,3.68-7.87,8.16-12.77,10.82c-5.16,2.81-9.38,1.45-13.71-2.1c-4.48-3.67-8.6-7.82-12.73-11.82
						c-8.36-8.1-16.39-16.48-24.07-25.12c-15.67-17.64-29.76-36.45-42.32-56.09c-1.36-2.14-4.78-4.42-7.55-3.96
						c-2.9,0.48-2.53,3.11-1.33,5c12.08,18.91,25.63,36.96,40.48,54.1c7.26,8.38,14.85,16.52,22.73,24.39
						c7.64,7.62,15.5,16.45,24.93,22.19c4.47,2.73,9.73,4.7,15.11,4.05c4.96-0.6,8.98-3.38,12.55-6.4
						c9.39-7.93,18.06-16.71,27.03-25.04c18.13-16.84,36.25-33.7,54.37-50.54c18.13-16.84,36.25-33.7,54.37-50.54
						c4.62-4.3,9.26-8.6,13.88-12.9c3.53-3.28,8.59-6.94,8.41-12.11c-0.32-8.9-11.07-12.91-19.1-10.95
						c-8.81,2.15-15.61,8.88-22.88,13.61c-8.65,5.63-17.63,10.84-26.88,15.61c-18.12,9.33-37.28,16.95-57.09,22.78
						c-45.21,13.31-93.88,16.88-141.18,10.08c-2.72-0.39-4.03,1.57-3.2,3.83C245,331.28,248.23,333.39,251.03,333.79L251.03,333.79z
						"/>
				</g>
			</g>
			<g class="st16">
				<path d="M337.32,466.58c26.41,13.45,40.78,40.37,58,63.38c17.22,23.01,44.32,45.16,73.54,40.05
					c16.44-2.88,29.51-13.88,41.57-24.52c53.91-47.52,106.2-96.63,156.76-147.23c2.61-2.61,5.39-5.61,5.3-9.22
					c-0.12-5.28-6.65-8.9-12.29-8.42c-5.64,0.48-10.42,3.76-14.91,6.89c-44.21,30.82-91.27,59.31-144.02,75.25
					s-112.12,18.39-163.83-2.12"/>
				<g>
					<path d="M336.45,470.16c22.18,11.53,35.09,33.22,48.62,52.32c14.37,20.29,32.36,40.41,57.5,49.21
						c11.76,4.11,24.32,4.71,36.16,1.18c12.3-3.67,22.5-11.58,31.83-19.55c22.35-19.11,43.96-39.06,65.48-58.97
						c21.85-20.21,43.42-40.69,64.68-61.42c10.68-10.42,21.46-20.8,31.86-31.48c3.91-4.01,6.8-8.85,4.4-14.38
						c-2.19-5.05-7.77-8.84-13.25-10.28c-12.78-3.35-23.65,7.36-32.91,13.66c-11.37,7.74-22.92,15.26-34.72,22.42
						c-23.32,14.14-47.71,26.91-73.48,36.91c-51.49,19.98-110.91,28.73-165.96,13.35c-6.7-1.87-13.27-4.1-19.72-6.63
						c-2.26-0.89-4.99-0.11-4.87,2.41c0.14,2.78,3.5,4.95,5.93,5.91c50.33,19.74,107.04,18.65,158.18,4.81
						c51.77-14.02,98.11-40.39,141.21-69.59c5.27-3.57,10.4-7.38,15.79-10.81c2.57-1.63,10.3-6.48,13.54-3.46
						c3.22,3-6.34,10.84-8.18,12.69c-5.03,5.02-10.08,10.02-15.14,15.01c-20.25,19.95-40.77,39.67-61.56,59.13
						c-20.97,19.64-42.21,39.04-63.71,58.18c-17.17,15.29-37.22,37.59-63.85,35.38c-24.61-2.04-43.59-21.71-56.69-39.65
						c-13.65-18.71-25.68-38.9-44.41-53.81c-4.61-3.67-9.66-6.89-14.95-9.64c-1.91-0.99-5.42-1.72-6.22,0.81
						C331.16,466.31,334.45,469.11,336.45,470.16L336.45,470.16z"/>
				</g>
			</g>
			<g class="st16">
				<path d="M496.23,582.56c162.84,203.57,329.23,404.72,499.1,603.31c10.08,11.79,21.79,24.45,37.68,26.56
					c17.98,2.38,33.79-9.58,47.07-20.78c58.9-49.66,117.8-99.33,176.71-148.99c4.1-3.46,8.49-7.45,8.81-12.64
					c0.63-10.32-13.67-15.01-24.7-16.59c-103.85-14.82-203.02-53.32-294.74-102.17S769.5,803.23,685.06,743.92
					c-68.72-48.25-138.98-98.44-183.63-166.84"/>
				<g>
					<path d="M491.79,583.07c43.82,54.77,87.89,109.38,132.21,163.8c44.16,54.22,88.58,108.26,133.25,162.12
						c44.82,54.04,89.88,107.9,135.21,161.59c22.5,26.65,45.07,53.26,67.69,79.82c11.23,13.18,22.37,26.44,33.75,39.51
						c9.21,10.58,20.23,21.58,34.63,25.63c14.06,3.95,27.69,0,39.32-7.33c13.26-8.35,24.71-19.32,36.53-29.3
						c27.03-22.79,54.06-45.58,81.09-68.37c13.32-11.23,26.62-22.45,39.94-33.67c6.86-5.78,13.72-11.57,20.57-17.35
						c6.34-5.34,13.1-10.45,19.02-16.19c4.6-4.46,7.45-10.25,5.19-16.49c-1.9-5.25-6.67-9.24-11.69-11.97
						c-12.34-6.72-28.02-7.04-41.66-9.44c-67.98-11.95-133.92-33.93-196.49-61.83c-63.44-28.29-123.68-62.61-181.76-99.64
						C780.94,807.22,725.03,768,669.39,728.59c-49.55-35.1-98.79-71.83-137.69-117.49c-9.37-10.99-17.98-22.55-25.83-34.51
						c-1.4-2.13-4.76-4.42-7.55-3.96c-2.88,0.47-2.56,3.12-1.33,5c32.18,49.07,77.39,89.19,125.06,125.22
						c24.41,18.45,49.59,35.99,74.7,53.59c27.9,19.56,55.87,39.04,84.18,58.08c56.09,37.73,113.56,73.88,173.9,105.35
						c59.92,31.26,122.83,58,188.4,76.66c32.41,9.22,65.42,16.39,98.81,21.27c5.03,0.74,10.63,1.69,15,4.35
						c4.82,2.92,3.31,8.08,0.27,11.72c-5.02,6.01-12.11,10.82-18.15,15.91c-6.66,5.61-13.32,11.23-19.97,16.84
						c-26.62,22.45-53.26,44.9-79.88,67.35c-13.11,11.05-26.22,22.11-39.33,33.17c-12.21,10.3-24,21.52-37.28,30.63
						c-10.6,7.28-24.16,13.63-37.63,8.71c-13.47-4.92-22.7-18.1-31.36-28.23c-22.5-26.33-44.95-52.7-67.33-79.11
						c-44.45-52.46-88.65-105.09-132.6-157.89c-44.1-52.98-87.96-106.14-131.58-159.47s-86.98-106.83-130.1-160.51
						c-10.5-13.06-20.97-26.13-31.43-39.21c-1.64-2.05-4.59-4.45-7.55-3.96C490.42,578.52,490.34,581.26,491.79,583.07
						L491.79,583.07z"/>
				</g>
			</g>
			<g class="st16">
				<path d="M1042.29,1224.05c107.49,59.11,220.19,109.81,336.49,151.4c3.49-19.03-8.19-38.56-24.4-51.04
					c-16.22-12.48-36.42-19.29-56.15-25.86c-84.9-28.26-169.8-56.52-254.7-84.78"/>
				<g>
					<path d="M1041.42,1227.63c84.17,46.25,171.49,87.36,261.24,123.05c25.37,10.09,50.93,19.72,76.65,28.94
						c1.52,0.54,4.48,0.6,4.83-1.4c3.41-20.32-8.06-40.04-24.01-53.65c-18.65-15.92-43.06-23.71-66.35-31.46
						c-53.39-17.77-106.77-35.54-160.17-53.31c-30.21-10.06-60.42-20.11-90.63-30.17c-2.28-0.76-4.99-0.21-4.87,2.41
						c0.13,2.67,3.49,5.1,5.93,5.91c50.52,16.82,101.05,33.64,151.57,50.45c25.52,8.5,51.04,16.99,76.56,25.48
						c22.84,7.6,47.14,13.93,68.17,25.56c19.89,11,36.84,30.78,33.07,53.27c1.61-0.46,3.21-0.94,4.83-1.4
						c-90.33-32.34-178.46-70.14-263.68-113.17c-24.04-12.14-47.84-24.69-71.4-37.64c-1.9-1.04-5.42-1.68-6.22,0.81
						C1036.12,1223.82,1039.44,1226.54,1041.42,1227.63L1041.42,1227.63z"/>
				</g>
			</g>
		</g>
		<g id="Ebene_10_1_">
			<g class="st16">
				<g>
					<path class="st9" d="M334.97,277.65c17.71-13.56,29.63-31.83,45.95-46.58c1.2-1.09-1.09,0.86,0.15-0.13
						c0.36-0.28,0.71-0.58,1.07-0.85c0.82-0.63,1.65-1.24,2.5-1.83c1.71-1.16,3.51-2.23,5.42-3.09c0.84-0.38,1.7-0.72,2.58-1
						c0.35-0.11,2.66-0.67,1.36-0.44c2.07-0.38,4.23-0.35,6.33-0.12c10.46,1.14,19,7.74,26.63,14.06
						c10.88,9.02,20.81,19.05,32.68,27c6.2,4.14,9.89-8.52,10.7-12.05c1.12-4.78,1.86-9.84,1.34-14.76
						c-0.28-2.67-0.47-7.61-3.06-9.35c-10.64-7.12-19.74-15.92-29.34-24.17c-8.4-7.22-17.92-14.99-29.13-17.95
						c-20.97-5.52-36.41,14.55-47.7,27.45c-8.16,9.31-16.79,19.42-26.14,26.58c-6.51,4.98-8.2,15.19-8.31,22.7
						C327.99,264.98,329.14,282.11,334.97,277.65L334.97,277.65z"/>
				</g>
			</g>
			<g class="st16">
				<g>
					<path class="st9" d="M539.49,335.07c11.9,13.64,23.79,27.28,35.69,40.92c1.84,2.12,4.54,0.21,5.8-1.14
						c2.55-2.73,4.11-7.49,4.9-10.91c1.59-6.82,3.64-17.98-1.71-24.11c-11.9-13.64-23.79-27.28-35.69-40.92
						c-1.84-2.12-4.54-0.21-5.8,1.14c-2.55,2.73-4.11,7.49-4.9,10.91C536.18,317.77,534.13,328.93,539.49,335.07L539.49,335.07z"/>
				</g>
			</g>
			<g class="st16">
				<g>
					<path class="st9" d="M662.51,490.7c58.23,62.17,116.08,124.67,173.78,187.27c54.84,59.5,109.59,119.08,164.58,178.47
						c31.78,34.32,63.63,68.57,95.62,102.72c5.16,5.51,10.17-9.74,10.7-12.05c1.12-4.78,1.86-9.84,1.34-14.76
						c-0.33-3.16-0.69-6.83-3.06-9.35c-56.31-60.12-112.22-120.58-168.01-181.12C882.09,681.79,826.8,621.65,771.28,561.7
						c-33.16-35.8-66.4-71.53-99.77-107.15c-5.16-5.51-10.17,9.74-10.7,12.05c-1.12,4.78-1.86,9.84-1.34,14.76
						C659.78,484.51,660.14,488.18,662.51,490.7L662.51,490.7z"/>
				</g>
			</g>
			<g class="st16">
				<g>
					<path class="st9" d="M1322.37,1283.65c-20.03-46.81-37.06-94.04-50.95-141.69c-4.04-13.87-7.83-27.79-11.4-41.76
						c-0.46-1.81-1.56-5.9-4.29-6.29c-2.68-0.38-5,3.23-5.87,4.86c-4.03,7.59-5.96,18.44-3.79,26.92
						c12.83,50.31,28.73,100.03,47.66,148.77c5.34,13.76,10.94,27.44,16.75,41.04c3.41,7.96,9.52-1.9,10.79-5.44
						C1324.09,1302.19,1325.84,1291.77,1322.37,1283.65L1322.37,1283.65z"/>
				</g>
			</g>
		</g>
	</g>
</g>
<g id="Ebene_12">
</g>
</svg>
