<?xml version="1.0" encoding="utf-8"?>
<!-- Generator: Adobe Adobe Illustrator 24.2.0, SVG Export Plug-In . SVG Version: 6.00 Build 0)  -->
<svg version="1.1" xmlns="http://www.w3.org/2000/svg" xmlns:xlink="http://www.w3.org/1999/xlink" x="0px" y="0px"
	 viewBox="0 0 1700.79 1700.79" style="enable-background:new 0 0 1700.79 1700.79;" xml:space="preserve">
<style type="text/css">
	.st0{fill:#3E4C5B;stroke:#5B636E;stroke-width:1.0618;stroke-miterlimit:10;}
	.st1{fill:#D3E1EC;stroke:#000000;stroke-width:13.8184;stroke-miterlimit:10;}
	.st2{stroke:#000000;stroke-width:13.8184;stroke-miterlimit:10;}
	.st3{fill:none;stroke:#000000;stroke-width:13.8184;stroke-miterlimit:10;}
	.st4{fill:#3E4C5B;stroke:#000000;stroke-width:19.1554;stroke-miterlimit:10;}
	.st5{fill:#808D9C;stroke:#000000;stroke-width:16.2963;stroke-miterlimit:10;}
	.st6{stroke:#000000;stroke-width:1.431;stroke-miterlimit:10;}
	.st7{opacity:0.302;}
	.st8{opacity:0.149;}
	.st9{fill:#C9316B;}
	.st10{fill:#F4F5E8;}
	.st11{fill:#6379B8;}
	.st12{fill:#F3C057;stroke:#000000;stroke-width:3.1811;stroke-miterlimit:10;}
	.st13{fill:#C8316B;}
	.st14{fill:#6478B7;}
	.st15{fill:#6378B7;}
</style>
<g id="Ebene_4">
</g>
<g id="Ebene_8">
	<path class="st0" d="M643.28,393.65c55.04-21.27,92.64-78.63,90.6-135.83s-42.64-110.59-97.72-130.78s-121.48-6.94-165.52,31.61
		s-64.45,100.27-53.28,156.39c10.55,53.04,68.64,92.27,123.94,83.03c-2.33-9.32-4.67-18.64-7-27.96
		c-42.37-1.62-78.2-39.11-81.2-80.1c-3-40.99,23.77-81.52,61.55-100.56s84.31-17.9,123.13-1.65c32.69,13.69,55.08,47.54,54.35,82.18
		c-0.73,34.64-24.54,67.99-57.8,80.95C637.72,365.23,641.11,379.51,643.28,393.65z"/>
</g>
<g id="Ebene_6">
	<path class="st1" d="M547.04,420.7c-2.91-19.76-6.43-43.66-9.34-63.43c35.54-6.83,91.21-18.66,91.21-18.66s7.43,38.09,15.3,69.7"/>
	<path class="st1" d="M495.46,576.17c-1.51-3.57-3.02-17.75-3.08-21.38c-0.32-20.38,0.54-40.32,25.89-43.99l187.2-32.42
		c17.8-2.58,20.13,8.68,27.57,24.48c3.7,7.85,7.52,17.18,10.72,27.57"/>
	<path class="st2" d="M530.88,506.6c4.5-23.54,6.73-55.2,11.22-78.74c34.44-6.46,108.84-20.51,108.84-20.51s27.01,46,41.36,73.32"/>
	<path class="st3" d="M635.94,351.19c88.31-16.84,88.43-204.95-86.22-171.66c-162.02,30.89-96.31,204-15.45,192.28"/>
	<path class="st3" d="M640.61,383.44C812.25,343.62,743.82,93.39,554,120.91C341,161.13,391.04,422.79,539.68,401.24"/>
	<path class="st2" d="M687.93,1044.85c-32.51,4.71-26.22,46.16,4.89,39.8C721.73,1078.74,721.11,1038.33,687.93,1044.85z"/>
	<path class="st2" d="M662.99,869.37c-15.23,62.14-8.16,127.63,24.38,179.72C707.69,987.19,693.66,931.09,662.99,869.37z"/>
	<path class="st2" d="M675.55,1065.11c-47.09-5.02-66.43-5.36-133.66,21.17C607.68,1090.1,629.44,1087.41,675.55,1065.11z"/>
</g>
<g id="Ebene_5">
	
		<ellipse transform="matrix(0.9897 -0.1435 0.1435 0.9897 -144.041 112.5266)" class="st4" cx="708.28" cy="1055.09" rx="545" ry="522.38"/>
	
		<ellipse transform="matrix(0.9897 -0.1435 0.1435 0.9897 -144.0408 112.5265)" class="st5" cx="708.28" cy="1055.09" rx="458.66" ry="449.25"/>
	
		<ellipse transform="matrix(0.9897 -0.1435 0.1435 0.9897 -144.6084 113.4455)" class="st1" cx="714.37" cy="1059.49" rx="388.51" ry="381.34"/>
</g>
<g id="Ebene_7">
	<path class="st3" d="M736.01,1385.6c-1.6-39.43-4.15-77.98-5.75-117.42"/>
	<path class="st3" d="M764.95,1380.2c-12.98-40.7-22.09-74.12-32.22-112.37"/>
	<path class="st3" d="M704.71,1269.5c6.6,45.5,9.78,78.12,16.74,118.22"/>
	<path class="st3" d="M585.66,1375.97c11.09-38.49,22.19-76.98,33.28-115.48"/>
	<path class="st3" d="M528.58,1354.63c17.24-43.25,24.24-58.34,44.52-109.24"/>
	<path class="st3" d="M542.89,1359.86c18.02-42.98,31.3-73.77,45.99-108.8"/>
	<path class="st3" d="M556.22,1365.46c20.81-34.65,41.62-69.3,62.43-103.95"/>
	<path class="st3" d="M887.19,1328.04c-19.03-35.91-25.43-47.97-57.1-107.71"/>
	<path class="st3" d="M880.48,1155.51c37.6,16.73,75.21,33.45,112.81,50.18"/>
	<path class="st3" d="M887.08,1142.53c36.74,16.26,75.76,33.24,112.5,49.5"/>
	<path class="st3" d="M893.8,1129.59c50.84,21.64,59.24,26.42,111.76,48.78"/>
	<path class="st3" d="M899.61,1116.04c44.23,20.21,69.39,29.65,112.4,49.31"/>
	<path class="st3" d="M912.58,1309.04c-25.78-28.7-55.69-58.1-81.47-86.8"/>
	<path class="st3" d="M904.2,1013.03c49.09-5.66,82.45-11.61,123.99-16.4"/>
	<path class="st3" d="M906.34,1027.74c41.36-5.25,82.72-10.5,124.08-15.74"/>
	<path class="st3" d="M908.5,1042.69c45.62-6.61,78.97-9.11,124.09-15.65"/>
	<path class="st3" d="M867.07,928.92c32.59-22.23,65.17-44.47,97.76-66.7"/>
	<path class="st3" d="M858.3,917.01c32.14-21.7,65.65-45.19,97.79-66.89"/>
	<path class="st3" d="M770.18,859.35c20.58-51.93,21.41-54.59,44.15-111.95"/>
	<path class="st3" d="M613.96,738.29c16.47,38.37,28.7,69.61,45.18,107.98"/>
	<path class="st3" d="M630.22,850.46c4.07-41.68,7-78.74,11.07-120.42"/>
	<path class="st3" d="M657.19,727.74c6.75,38.19,13.51,76.39,20.26,114.58"/>
	<path class="st3" d="M672.28,725.55c7.28,37.9,15.73,76.28,23.01,114.18"/>
	<path class="st3" d="M462.56,815.36c33.56,25.24,63.23,49.32,96.79,74.56"/>
	<path class="st3" d="M533.69,909.24c-16.29-38.02-32.58-76.05-48.87-114.07"/>
	<path class="st3" d="M498.22,785.01c24.74,30.71,49.48,61.42,74.22,92.13"/>
	<path class="st3" d="M365.68,951.87c39.03,5.96,85.68,11.87,124.71,17.83"/>
	<path class="st3" d="M477.85,995.03c-33.3-25.31-66.61-50.61-99.91-75.92"/>
	<path class="st3" d="M355.24,1110.53c36.98-13.94,73.96-27.89,110.93-41.83"/>
	<path class="st3" d="M352.18,1081.42c40.72,4.07,79.18,11.64,119.91,15.71"/>
	<path class="st3" d="M358.59,1125.65c38.02-3.73,76.04-7.45,114.06-11.18"/>
	<path class="st3" d="M424.02,1269.08c36.25-19.28,68.76-38.02,105.01-57.3"/>
	<path class="st3" d="M414.18,1256.67c31.56-22.88,63.13-45.77,94.69-68.65"/>
	<path class="st3" d="M403.64,1244.03c30.05-23.1,63.3-46.66,93.35-69.76"/>
	<path class="st3" d="M393.1,1231.49c42.74-31.67,47.69-35.94,94.32-70.49"/>
	<path class="st3" d="M448.81,1295.7c28.19-28.98,48.73-52.95,78.77-83.84"/>
</g>
<g id="Ebene_9">
	<g>
		<g>
			<path d="M672.92,866.52c10.07,65.25,20.14,130.5,30.2,195.75c0.59,3.81,5.14,2.37,7.09,0.79c3.01-2.44,4.54-6.53,3.96-10.29
				c-10.07-65.25-20.14-130.5-30.2-195.75c-0.59-3.81-5.14-2.37-7.09-0.79C673.87,858.66,672.34,862.76,672.92,866.52L672.92,866.52
				z"/>
		</g>
	</g>
	<g>
		<g>
			<path d="M715.47,1083.57c47.64-10.45,95.25-21.14,143.55-28.18c5.89-0.86,10.86-15.51,2.7-14.32
				c-48.29,7.04-95.9,17.74-143.55,28.18C712.36,1070.52,707.53,1085.31,715.47,1083.57L715.47,1083.57z"/>
		</g>
	</g>
	
		<ellipse transform="matrix(0.9897 -0.1435 0.1435 0.9897 -145.4488 112.4151)" class="st6" cx="706.8" cy="1064.79" rx="32.25" ry="34.42"/>
</g>
<g id="Ebene_10">
	<g class="st7">
		<path d="M417.87,628.44c-95.32,175.61-146.32,402.76-61.23,581.65s304.59,303.34,503.44,345.4
			c-495.35,71.81-756.2-267.35-677.1-592.57c33.94-139.55,103.38-248.8,226.23-341.43"/>
		<g>
			<path d="M413.73,626.05c-41.5,76.61-73.31,158.93-91.16,244.3c-17.31,82.79-21.31,169.56-2.86,252.52
				c17.09,76.88,55.02,146.28,107.46,204.72c52.04,58,115.64,105.17,183.61,142.88c68.95,38.25,143.23,67.31,219.78,86.17
				c8.89,2.19,17.82,4.23,26.78,6.13c1.36-4.82,2.73-9.63,4.09-14.45c-58.43,8.42-117.64,11.73-176.6,8.17
				c-51.81-3.13-103.37-11.56-153.14-26.39c-44.4-13.23-87.33-31.79-127.08-55.64c-36.88-22.12-71.03-48.85-100.88-79.83
				c-28.38-29.46-52.91-62.6-72.64-98.44c-19.32-35.1-33.85-72.76-43.33-111.68c-9.58-39.34-13.82-79.86-12.88-120.33
				c1.02-43.99,8.63-87.38,20.8-129.62c15.43-53.58,37.62-105.07,67.68-152.1c30.56-47.81,68.98-90.18,112.03-127.03
				c11.5-9.84,23.32-19.28,35.39-28.4c2.7-2.04,5.1-6.9,3.96-10.29c-1.23-3.65-4.72-2.59-7.09-0.79
				c-47.65,36.01-91.31,77.6-127.31,125.38c-34.3,45.52-61.38,96.1-80.89,149.63c-16.94,46.47-29.34,95.05-33.95,144.36
				c-3.9,41.71-2.54,83.69,4.33,125.02c6.73,40.48,18.85,80.02,36,117.3c17.33,37.66,39.54,72.93,66.17,104.72
				c27.63,32.97,59.8,62.14,95.07,86.75c38,26.51,79.6,47.7,123.08,63.63c47.96,17.57,98.08,28.92,148.79,34.78
				c57.6,6.66,115.83,6.27,173.5,0.72c15.48-1.49,30.91-3.38,46.3-5.59c4.92-0.71,11.03-12.97,4.09-14.45
				c-75.3-16-148.46-42.23-217.04-77.15c-68.89-35.09-134.05-79.31-188.68-134.27c-53.31-53.64-95.58-117.56-117.65-190.26
				c-24.16-79.6-25.08-164.64-11.8-246.29c13.68-84.11,41.9-165.86,80.03-241.95c4.62-9.23,9.41-18.37,14.32-27.45
				c1.32-2.43,3.02-7.45-0.16-9.29C418.77,619.76,415.01,623.7,413.73,626.05L413.73,626.05z"/>
		</g>
	</g>
	<g class="st7">
		<path d="M508.66,522.3c10.22,34.8,204.21-4.67,223.07-0.57c-17.38,0.52-216.22,42.63-232.37,44.97
			c-13.42,1.95-2.32-37.93,9.48-44.49c4.02,2.23-0.17,15.55,3.85,17.78"/>
		<g>
			<path d="M503.13,527.05c3.27,10.43,15.97,13.44,25.43,15.03c16.43,2.77,33.48,2.23,50.06,1.41
				c38.98-1.92,77.67-7.43,116.38-12.08c7.25-0.87,15.05-1.8,21.71-2.31c3.96-0.3,8.34-0.89,12.28-0.08
				c1.83-4.86,3.65-9.71,5.48-14.57c-12.29,0.45-24.8,3.66-36.83,5.92c-22.34,4.19-44.63,8.65-66.92,13.13
				c-40.71,8.18-81.34,16.85-122.13,24.63c-2.24,0.43-4.48,0.87-6.73,1.23c-2.06,0.34-2.47-0.32-2.8-2.45
				c-0.85-5.47,1.19-11.7,3.1-16.75c1.11-2.94,2.22-5.36,3.91-8.06c0.83-1.32,2.18-2.89,2.88-3.31c-1.36,0.11-2.73,0.22-4.09,0.33
				c1.02,0.76,0.12,7.15,0.18,8.44c0.17,3.59,0.65,7.06,3.67,9.34c5,3.77,13.32-9.76,7.96-13.79c-1.02-0.76-0.12-7.15-0.18-8.44
				c-0.17-3.59-0.65-7.06-3.67-9.34c-1.07-0.81-3.1-0.26-4.09,0.33c-11.14,6.69-16.74,21.41-19.67,33.42
				c-1.85,7.61-4.43,26.02,8.34,24.86c12.9-1.18,25.95-4.9,38.61-7.46c48.76-9.85,97.47-19.98,146.33-29.38
				c10.28-1.98,20.57-3.93,30.89-5.72c3.56-0.62,7.12-1.22,10.69-1.74c1.19-0.17,2.39-0.33,3.58-0.48c0.46-0.06,0.93-0.1,1.39-0.15
				c-1.94,0.2-0.36,0.04,0.09,0.02c5.56-0.2,13.07-13.03,5.48-14.57c-3.29-0.67-6.88-0.28-10.2-0.07c-6.18,0.4-12.35,1.07-18.5,1.77
				c-17.02,1.93-34.01,4.2-51.02,6.23c-36.79,4.4-75.04,9.76-112.13,6.23c-6.58-0.63-13.86-1.63-19.55-3.91
				c-2.3-0.92-4.55-2.06-6.48-3.64c-0.6-0.49-2.26-3.01-2.42-3.52C511.77,509.84,501.34,521.34,503.13,527.05L503.13,527.05z"/>
		</g>
	</g>
</g>
<g id="Ebene_12">
	<g>
		<g id="Ebene_3_Kopie">
			<g class="st8">
				<path d="M910.26,735.78c0.77,60.75-9.99,121.59-31.8,179.64c79.37-37.29,149.74-87.46,205.88-146.76"/>
				<g>
					<path d="M907.05,737.5c0.56,47.09-5.84,94.1-18.78,139.5c-3.67,12.88-7.92,25.61-12.63,38.17c-0.82,2.18-0.06,5.18,2.88,3.79
						c30.87-14.53,60.69-31.1,89.11-49.72c27.8-18.22,54.3-38.3,79.03-60.28c13.66-12.14,26.78-24.85,39.31-38.08
						c1.15-1.22,2.32-3.96,1.12-5.47c-1.29-1.63-3.41-0.03-4.4,1.01c-22.02,23.23-45.96,44.73-71.38,64.45
						c-25.95,20.14-53.45,38.38-82.14,54.69c-16.56,9.42-33.51,18.18-50.79,26.31c0.96,1.26,1.92,2.53,2.88,3.79
						c17-45.38,27.54-92.88,30.99-141.03c0.97-13.51,1.36-27.05,1.2-40.59c-0.02-1.89-1.61-2.61-3.27-1.82
						C908.35,733.12,907.03,735.55,907.05,737.5L907.05,737.5z"/>
				</g>
			</g>
			<g class="st8">
				<path d="M1056.43,794.2c79.82,0.97,160.54-10.04,234.23-39.65s140.1-78.63,182.61-143.84s59.49-147.06,38.94-221.5
					c-21.83-79.05-84.52-144.58-160.61-180.63s-164.26-44.31-248.19-32.87c-94.46,12.87-186.64,51.21-254.12,116.29
					S741.28,450.08,750.4,541.73c9.12,91.65,71.63,178.84,161.02,210.96"/>
				<g>
					<path d="M1055.09,797.64c77.55,0.88,156.08-9.29,228.42-37.16c62.37-24.03,119.78-61.31,163.26-111.02
						c45.26-51.74,73.72-116.98,76.69-184.92c1.45-33.1-3.42-66.46-15.08-97.66c-10.7-28.64-26.78-55.32-46.68-78.91
						c-42.42-50.3-100.83-85.52-164.96-103.97c-70.8-20.36-147.01-20.98-219.21-7.39c-67.72,12.75-133.23,38.81-188.54,78.91
						c-54.92,39.82-98.25,93.9-122.33,156.14c-23.08,59.64-27.66,126.03-7.08,186.96c18.97,56.17,57.53,106.84,109.75,138.22
						c12.7,7.63,26.15,14.02,40.16,19.09c3.07,1.11,6.73-5.49,3.9-6.52c-56.66-20.52-102.36-62.94-130.42-114.24
						c-29.87-54.62-37.77-117.5-24.91-177.81c13.51-63.37,48.34-122.13,96.44-166.98c48.96-45.65,110.42-77.52,175.47-96.08
						c67.99-19.41,140.92-25.43,211.11-14.89c67.23,10.1,131.57,36.5,182.49,80.53c47.11,40.75,81.36,95.53,91.35,156.22
						c10.94,66.52-6.52,136.14-43.34,192.88c-35.06,54.03-87,96.66-145.17,126.16c-65.9,33.43-140,49.77-213.98,54.26
						c-18.2,1.1-36.43,1.49-54.66,1.28C1054.73,790.72,1051.73,797.6,1055.09,797.64L1055.09,797.64z"/>
				</g>
			</g>
			<g class="st8">
				<path class="st9" d="M1120.81,468.5c4.92-43.09-28.19-86.46-71.77-96.99s-92.54,11.14-114.97,48.71s-18.15,87.66,8.24,122.75
					c21.66,28.8,55.15,46.78,87.92,63.1c46.66,23.23,94.13,44.95,142.29,65.11c5.93,2.48,12.35,4.99,18.67,3.71
					c8.04-1.64,13.38-8.81,17.91-15.43c34.27-50.1,68.54-100.2,102.81-150.3c18.1-26.47,36.83-54.74,37.95-86.44
					c0.94-26.76-11.45-53.19-31.11-72.08c-33.43-32.14-88.11-41.49-130.95-22.41c-42.84,19.08-70.95,65.32-67.3,110.73"/>
				<g>
					<path d="M1123.54,467.84c4.28-39.11-20.42-78.06-57.17-94.34c-37.31-16.53-82.19-6.18-112.18,19.53
						c-32.62,27.97-44.04,72.31-33.56,112.63c5.4,20.78,16.61,39.49,32.1,54.78c16.16,15.95,35.77,28.11,55.91,38.84
						c22.68,12.09,46,23.14,69.29,34.07c24.51,11.51,49.24,22.6,74.15,33.27c6.45,2.76,12.89,5.53,19.38,8.2
						c5.72,2.36,11.79,4.55,18.12,3.62c11.4-1.67,18.06-12.76,23.83-21.19c15.42-22.55,30.85-45.09,46.27-67.64
						s30.85-45.09,46.27-67.64c13.91-20.33,28.69-40.58,38.1-63.34c8.74-21.16,11.46-44.03,4.79-66.1
						c-6.23-20.62-19.35-39.1-36.66-52.52c-32.22-24.96-78.78-32.12-117.37-17.75c-38.98,14.51-67.61,49.97-75.35,89.3
						c-1.87,9.5-2.48,19.24-1.74,28.89c0.34,4.45,5.84-0.12,5.62-3.01c-2.89-37.79,16.38-75.98,48.73-97.42
						c32.96-21.85,77.06-23.49,112.96-7.38c38.42,17.24,66.86,57.03,61.45,98.89c-2.88,22.26-14.09,42.4-26.26,61.13
						c-13.81,21.27-28.54,42.02-42.87,62.97c-14.75,21.57-29.51,43.14-44.26,64.71c-7.42,10.85-14.85,21.71-22.28,32.57
						c-5.43,7.93-11.47,19.51-23,18.86c-6.64-0.38-12.88-3.64-18.87-6.17c-5.86-2.47-11.71-4.96-17.55-7.48
						c-11.98-5.16-23.93-10.43-35.82-15.79c-23.79-10.72-47.39-21.82-70.79-33.3c-38.86-19.06-81.92-39.25-105.31-76.59
						c-21.11-33.7-23.63-79.18-2.02-113.25c19.96-31.46,59.91-50.32,97.88-46.36c38.64,4.03,71.62,33.47,80.79,69.66
						c2.2,8.7,2.96,17.76,1.98,26.68C1117.54,474.07,1123.18,471.09,1123.54,467.84L1123.54,467.84z"/>
				</g>
			</g>
			<g class="st8">
				<g>
					<path d="M1461.34,443.01c8.03,34.46,5.38,70.89-7.64,103.91c-0.48,1.23-0.64,3.39,1.13,3.66c1.74,0.27,3.31-1.94,3.81-3.22
						c13.64-34.59,16.52-72.72,8.11-108.84c-0.41-1.75-2.44-1.17-3.47-0.38C1461.89,439.23,1460.94,441.29,1461.34,443.01
						L1461.34,443.01z"/>
				</g>
			</g>
			<g class="st8">
				<g>
					<path d="M1443.54,587.46c-15.46,26.83-36.84,50.11-62.49,68.27c-2.73,1.93-2.58,8.15,1.53,5.24
						c26.67-18.88,48.93-43.36,65.01-71.25c0.66-1.14,1.47-3.53-0.08-4.39C1446,584.48,1444.18,586.35,1443.54,587.46
						L1443.54,587.46z"/>
				</g>
			</g>
			<g class="st8">
				<g>
					<path d="M816.97,475.74c1.06-34.5,11.12-68.61,28.98-98.51c5.11-8.55,10.85-16.72,17.17-24.48c0.94-1.15,2.08-3.41,0.98-4.8
						c-1.09-1.37-3.05-0.1-3.85,0.89c-23.41,28.73-39.27,63.05-45.72,99.08c-1.82,10.19-2.87,20.5-3.19,30.83
						c-0.05,1.67,1.46,2.27,2.86,1.6C815.88,479.55,816.91,477.46,816.97,475.74L816.97,475.74z"/>
				</g>
			</g>
		</g>
		<g id="Ebene_3">
			<g>
				<path class="st10" d="M941.45,700.65c0.77,60.75-9.99,121.59-31.8,179.64c79.37-37.29,149.74-87.46,205.88-146.76"/>
				<g>
					<path d="M938.24,702.37c0.56,47.09-5.84,94.1-18.78,139.5c-3.67,12.88-7.92,25.61-12.63,38.17c-0.82,2.18-0.06,5.18,2.88,3.79
						c30.87-14.53,60.69-31.1,89.11-49.72c27.8-18.22,54.3-38.3,79.03-60.28c13.66-12.14,26.78-24.85,39.32-38.08
						c1.15-1.22,2.32-3.96,1.12-5.47c-1.29-1.63-3.41-0.03-4.4,1.01c-22.02,23.23-45.96,44.73-71.38,64.45
						c-25.95,20.14-53.45,38.38-82.14,54.69c-16.56,9.42-33.51,18.18-50.79,26.31c0.96,1.26,1.92,2.53,2.88,3.79
						c17-45.38,27.54-92.88,30.99-141.03c0.97-13.51,1.36-27.05,1.2-40.59c-0.02-1.89-1.61-2.61-3.27-1.82
						C939.54,697.99,938.22,700.43,938.24,702.37L938.24,702.37z"/>
				</g>
			</g>
			<g>
				<path class="st10" d="M1087.62,759.07c79.82,0.97,160.54-10.04,234.23-39.65s140.1-78.63,182.61-143.84
					c42.51-65.21,59.49-147.06,38.94-221.5c-21.83-79.05-84.52-144.58-160.61-180.63s-164.26-44.31-248.19-32.87
					c-94.46,12.87-186.64,51.21-254.12,116.29S772.47,414.95,781.6,506.6s71.63,178.84,161.02,210.96"/>
				<g>
					<path d="M1086.28,762.51c77.55,0.88,156.08-9.29,228.42-37.16c62.37-24.03,119.78-61.31,163.26-111.02
						c45.26-51.74,73.72-116.98,76.69-184.92c1.45-33.1-3.42-66.46-15.08-97.66c-10.7-28.64-26.78-55.32-46.68-78.91
						c-42.42-50.3-100.83-85.52-164.96-103.97c-70.8-20.36-147.01-20.98-219.21-7.39c-67.72,12.75-133.23,38.81-188.54,78.91
						c-54.92,39.82-98.25,93.9-122.33,156.14c-23.08,59.64-27.66,126.03-7.08,186.96c18.97,56.17,57.53,106.84,109.75,138.22
						c12.7,7.63,26.15,14.02,40.16,19.09c3.07,1.11,6.73-5.49,3.9-6.52c-56.66-20.52-102.36-62.94-130.42-114.24
						c-29.87-54.62-37.77-117.5-24.91-177.81c13.51-63.37,48.34-122.13,96.44-166.98c48.96-45.65,110.42-77.52,175.47-96.08
						c67.99-19.41,140.92-25.43,211.11-14.89c67.23,10.1,131.57,36.5,182.49,80.53c47.11,40.75,81.36,95.53,91.35,156.22
						c10.94,66.52-6.52,136.14-43.34,192.88c-35.06,54.03-87,96.66-145.17,126.16c-65.9,33.43-140,49.77-213.98,54.26
						c-18.2,1.1-36.43,1.49-54.66,1.28C1085.93,755.59,1082.93,762.48,1086.28,762.51L1086.28,762.51z"/>
				</g>
			</g>
			<g>
				<path class="st9" d="M1152,433.38c4.92-43.09-28.19-86.46-71.77-96.99s-92.54,11.14-114.97,48.71
					c-22.43,37.56-18.15,87.66,8.24,122.75c21.66,28.8,55.15,46.78,87.92,63.1c46.66,23.23,94.13,44.95,142.29,65.11
					c5.93,2.48,12.35,4.99,18.67,3.71c8.04-1.64,13.38-8.81,17.91-15.43c34.27-50.1,68.54-100.2,102.81-150.3
					c18.1-26.47,36.84-54.74,37.95-86.44c0.94-26.76-11.45-53.19-31.11-72.08c-33.43-32.14-88.11-41.49-130.95-22.41
					c-42.84,19.08-70.95,65.32-67.3,110.73"/>
				<g>
					<path d="M1154.73,432.71c4.28-39.11-20.42-78.06-57.17-94.34c-37.31-16.53-82.19-6.18-112.18,19.53
						c-32.62,27.97-44.04,72.31-33.56,112.63c5.4,20.78,16.61,39.49,32.1,54.78c16.16,15.95,35.77,28.11,55.91,38.84
						c22.68,12.09,46,23.14,69.29,34.07c24.51,11.51,49.24,22.6,74.15,33.27c6.45,2.76,12.89,5.53,19.38,8.2
						c5.72,2.36,11.79,4.55,18.12,3.62c11.4-1.67,18.06-12.76,23.83-21.19c15.42-22.55,30.85-45.09,46.27-67.64
						c15.42-22.55,30.85-45.09,46.27-67.64c13.91-20.33,28.69-40.58,38.1-63.34c8.74-21.16,11.46-44.03,4.79-66.1
						c-6.23-20.62-19.35-39.1-36.66-52.52c-32.22-24.96-78.78-32.12-117.37-17.75c-38.98,14.51-67.61,49.97-75.35,89.3
						c-1.87,9.5-2.48,19.24-1.74,28.89c0.34,4.45,5.84-0.12,5.62-3.01c-2.89-37.79,16.38-75.98,48.73-97.42
						c32.96-21.85,77.06-23.49,112.96-7.38c38.42,17.24,66.86,57.03,61.45,98.89c-2.88,22.26-14.09,42.4-26.26,61.13
						c-13.81,21.27-28.54,42.02-42.87,62.97c-14.75,21.57-29.51,43.14-44.26,64.71c-7.42,10.85-14.85,21.71-22.28,32.57
						c-5.43,7.93-11.47,19.51-23,18.86c-6.64-0.38-12.88-3.64-18.87-6.17c-5.86-2.47-11.71-4.96-17.55-7.48
						c-11.98-5.16-23.93-10.43-35.82-15.79c-23.79-10.72-47.39-21.82-70.79-33.3c-38.86-19.06-81.92-39.25-105.31-76.59
						c-21.11-33.7-23.63-79.18-2.02-113.25c19.96-31.46,59.91-50.32,97.88-46.36c38.64,4.03,71.62,33.47,80.79,69.66
						c2.2,8.7,2.96,17.76,1.98,26.68C1148.73,438.95,1154.38,435.97,1154.73,432.71L1154.73,432.71z"/>
				</g>
			</g>
			<g>
				<g>
					<path d="M1492.54,407.88c8.03,34.46,5.38,70.89-7.64,103.91c-0.48,1.23-0.64,3.39,1.13,3.66c1.74,0.27,3.31-1.94,3.81-3.22
						c13.64-34.59,16.52-72.72,8.11-108.84c-0.41-1.75-2.44-1.17-3.47-0.38C1493.08,404.11,1492.13,406.16,1492.54,407.88
						L1492.54,407.88z"/>
				</g>
			</g>
			<g>
				<g>
					<path d="M1474.74,552.33c-15.46,26.83-36.84,50.11-62.49,68.27c-2.73,1.93-2.58,8.15,1.53,5.24
						c26.67-18.88,48.93-43.36,65.01-71.25c0.66-1.14,1.47-3.53-0.08-4.39C1477.19,549.35,1475.37,551.23,1474.74,552.33
						L1474.74,552.33z"/>
				</g>
			</g>
			<g>
				<g>
					<path d="M848.16,440.61c1.06-34.5,11.12-68.61,28.98-98.51c5.11-8.55,10.85-16.72,17.17-24.48c0.94-1.15,2.08-3.41,0.98-4.8
						c-1.09-1.37-3.05-0.1-3.85,0.89c-23.41,28.73-39.27,63.05-45.72,99.08c-1.82,10.19-2.87,20.5-3.19,30.83
						c-0.05,1.67,1.46,2.27,2.86,1.6C847.07,444.42,848.11,442.34,848.16,440.61L848.16,440.61z"/>
				</g>
			</g>
			<g>
				<path class="st9" d="M1587.29,141.2c6.67-5.98,8.33-16.53,3.79-24.15s-14.81-11.55-23.53-9c-10.41,3.05-16.67,13.82-17.77,24.27
					c-1.1,10.45,1.84,20.84,4.13,31.12c2.29,10.27,3.92,21.19,0.33,31.1c22.4-11.24,43.44-24.99,62.57-40.9
					c7.18-5.97,14.76-14.5,11.72-23.16c-2.68-7.64-12.86-10.7-20.92-8.58c-8.06,2.12-14.42,7.94-20.41,13.55"/>
				<g>
					<path d="M1588.06,143.82c7.29-6.81,10.74-17.8,6.71-27.11c-3.64-8.42-13.02-13.56-22.37-12.79c-10.27,0.85-17.91,8.65-22,17.26
						c-4.86,10.21-4.06,21.54-1.91,32.3c2.64,13.2,7.91,27.47,3.29,40.83c-0.64,1.84-0.08,4.64,2.53,3.33
						c21.12-10.64,41.06-23.44,59.36-38.17c8.14-6.55,18.02-14.84,18.37-25.94c0.28-9.08-7.58-15.09-16.44-15.68
						c-11.79-0.78-21.28,7.64-29.15,14.99c-1.22,1.14-2.54,3.13-1.94,4.86c0.56,1.6,2.39,1.39,3.47,0.38
						c6.11-5.72,13.23-12.7,22.24-13.35c7.03-0.51,16.08,3.23,16.2,11.06c0.07,4.4-3.09,8.23-6.04,11.29
						c-3.35,3.48-7.32,6.45-11.13,9.45c-7.99,6.28-16.28,12.21-24.87,17.72c-9.74,6.25-19.82,11.97-30.18,17.19
						c0.84,1.11,1.68,2.22,2.53,3.33c3.4-9.83,2.66-20,0.66-30.03c-2.08-10.44-5.5-20.8-4.96-31.55c0.37-7.38,3.39-15.5,10.04-19.72
						c7-4.45,16.41-3.17,22.58,2.09c6.64,5.66,8.15,16.81,1.49,23.03c-1.22,1.14-2.54,3.13-1.94,4.86
						C1585.14,145.04,1586.97,144.84,1588.06,143.82L1588.06,143.82z"/>
				</g>
			</g>
			<g>
				<path class="st11" d="M1609.76,263.53c-1.85,16.06-12.35,30.97-27.15,38.53c7.05-3.02,15.62-2.5,22.23,1.36
					c6.6,3.86,11.06,10.94,11.55,18.38c1.24-14.95,12.62-28.65,27.48-33.06c-15.4,3.39-32.36-9.12-33.01-24.35"/>
				<g>
					<path d="M1607.03,264.2c-1.82,14.74-10.93,27.7-24.48,34.75c-2.52,1.31-4.27,7.99,0.11,6.21c13.7-5.58,29.71,3.9,30.91,18.14
						c0.36,4.25,5.31,0.28,5.55-2.18c1.26-13.39,10.77-24.9,24.08-29c1.76-0.54,3.09-2.32,3.4-4.05c0.24-1.4-0.28-3.08-2.07-2.71
						c-14.26,2.92-30.02-8.3-30.86-22.47c-0.1-1.63-1.36-2.32-2.86-1.6c-1.56,0.74-2.85,2.93-2.76,4.61
						c0.98,16.62,18.16,29.71,35.17,26.23c0.44-2.26,0.88-4.51,1.32-6.77c-16.62,5.12-29.29,20.31-30.87,37.11
						c1.85-0.73,3.7-1.45,5.55-2.18c-0.67-7.92-4.78-15.33-11.76-19.73c-7.46-4.7-16.83-4.88-24.88-1.6
						c0.04,2.07,0.07,4.14,0.11,6.21c16.18-8.43,27.66-24.66,29.84-42.3C1613.1,257.97,1607.44,260.96,1607.03,264.2L1607.03,264.2z
						"/>
				</g>
			</g>
			<path class="st12" d="M1647.82,634.54l8.02,23.86c0.34,1.02,1.34,1.72,2.45,1.72h25.95c2.5,0,3.54,3.08,1.52,4.5l-21,14.76
				c-0.9,0.63-1.28,1.76-0.94,2.78l8.02,23.87c0.77,2.29-1.95,4.2-3.97,2.78l-20.99-14.74c-0.9-0.64-2.13-0.64-3.03,0l-20.99,14.74
				c-2.02,1.42-4.74-0.49-3.97-2.78l8.02-23.87c0.34-1.02-0.03-2.14-0.94-2.78l-21-14.76c-2.02-1.42-0.98-4.5,1.52-4.5h25.95
				c1.12,0,2.11-0.69,2.45-1.72l8.02-23.86C1643.68,632.25,1647.05,632.25,1647.82,634.54z"/>
			<path class="st12" d="M994.68,61.04l8.02,23.86c0.34,1.02,1.34,1.72,2.45,1.72h25.95c2.5,0,3.54,3.08,1.52,4.5l-21,14.76
				c-0.9,0.63-1.28,1.76-0.94,2.78l8.02,23.87c0.77,2.29-1.95,4.2-3.97,2.78l-20.99-14.74c-0.9-0.64-2.13-0.64-3.03,0l-20.99,14.74
				c-2.02,1.42-4.74-0.49-3.97-2.78l8.02-23.87c0.34-1.02-0.03-2.14-0.94-2.78l-21-14.76c-2.02-1.42-0.98-4.5,1.52-4.5h25.95
				c1.12,0,2.11-0.69,2.45-1.72l8.02-23.86C990.55,58.74,993.91,58.74,994.68,61.04z"/>
			<path class="st12" d="M760.72,653.16l8.02,23.86c0.34,1.02,1.34,1.72,2.45,1.72h25.95c2.5,0,3.54,3.08,1.52,4.5l-21,14.76
				c-0.9,0.63-1.28,1.76-0.94,2.78l8.02,23.87c0.77,2.29-1.95,4.2-3.97,2.78l-20.99-14.74c-0.9-0.64-2.13-0.64-3.03,0l-20.99,14.74
				c-2.02,1.42-4.74-0.49-3.97-2.78l8.02-23.87c0.34-1.02-0.03-2.14-0.94-2.78l-21-14.76c-2.02-1.42-0.98-4.5,1.52-4.5h25.95
				c1.12,0,2.11-0.69,2.45-1.72l8.02-23.86C756.59,650.86,759.95,650.86,760.72,653.16z"/>
			<g>
				<path class="st13" d="M1483.69,821.35c-1.74-10.37-12.07-18.73-22.94-18.57c-10.88,0.16-20.95,8.8-22.37,19.21
					c-1.5,10.98,5.87,21.64,15.41,27.8c9.53,6.16,20.97,8.8,32.06,11.65c11.09,2.86,22.45,6.23,31.13,13.48
					c3.19-21.07,6.38-42.14,9.58-63.21c1.52-10.02,2.27-22.05-5.95-28.34c-8.48-6.49-21.93-2.01-28.25,6.48
					c-6.31,8.5-7.4,19.48-8.29,29.9"/>
				<g>
					<path d="M1486.39,819.11c-1.88-10.08-10.88-18.33-21.43-19.62c-10.95-1.33-21.58,5.59-26.48,14.76
						c-5.53,10.36-3.06,22.29,4.48,31.07c8.18,9.52,20.32,13.9,32.31,17.16c13.83,3.76,28.48,6.47,39.74,15.7
						c1.93,1.58,4.49-2.64,4.68-3.93c2-13.17,3.99-26.34,5.99-39.51c1.02-6.75,2.04-13.5,3.07-20.25
						c0.77-5.07,1.58-10.16,1.56-15.29c-0.04-8.82-3.14-18.68-12.78-21.58c-9.2-2.77-19.32,2.03-25.33,8.7
						c-8.59,9.54-9.92,22.9-10.95,34.94c-0.15,1.69,1.52,2.24,2.86,1.6c1.74-0.83,2.61-2.86,2.76-4.61
						c0.77-9.01,1.43-19.49,7.32-26.98c4.56-5.8,13.68-9.47,20.98-6.61c8.33,3.27,9.81,12.38,9.46,20.06
						c-0.22,4.89-1.14,9.73-1.87,14.57c-0.85,5.6-1.69,11.2-2.54,16.79c-2,13.17-3.99,26.34-5.99,39.51
						c1.56-1.31,3.12-2.62,4.68-3.93c-17.81-14.58-43.23-12.73-62.43-24.66c-8.33-5.18-15.84-14.2-15.49-24.23
						c0.3-8.83,8.43-15.78,17.3-16.5c10.77-0.88,20.8,7.27,22.68,17.32c0.33,1.78,2.49,1.14,3.47,0.38
						C1485.9,822.84,1486.72,820.87,1486.39,819.11L1486.39,819.11z"/>
				</g>
			</g>
			<g>
				<path class="st14" d="M1325.76,799.8c0.9,15.34-7.29,30.89-20.67,39.23c17.12-5.29,37.52,2.21,46.65,17.15
					c-6.93-15.35-1.35-35.02,12.72-44.82c-13.57,4.67-30.1-0.67-38.04-12.28"/>
				<g>
					<path d="M1322.94,801.31c0.67,13.64-6.02,27.05-17.91,34.61c-1.46,0.93-2.59,2.47-2.72,4.19c-0.09,1.19,0.51,2.77,2.11,2.3
						c16.74-5,35.86,2.16,44.89,16.61c1.73,2.76,6.06-2.96,5.13-5.09c-6.13-14-2.02-30.84,10.78-39.96c1.17-0.83,2.13-2.7,2.05-4.12
						c-0.06-1.08-0.83-2.31-2.15-1.88c-13.19,4.36-28.46-0.6-36.28-11.74c-1.91-2.72-6.55,3.25-4.84,5.69
						c8.54,12.16,25.4,17.57,39.79,12.82c-0.04-2-0.07-4-0.1-6.01c-15.38,10.95-22.17,32.55-14.66,49.69
						c1.71-1.7,3.42-3.39,5.13-5.09c-9.71-15.54-30.49-23.04-48.41-17.69c-0.2,2.16-0.41,4.33-0.61,6.49
						c14.96-9.52,24.27-26.47,23.43-43.83c-0.08-1.64-1.37-2.31-2.86-1.6C1324.14,797.45,1322.87,799.62,1322.94,801.31
						L1322.94,801.31z"/>
				</g>
			</g>
			<g>
				<path class="st15" d="M819.73,751.94c2.9,15.99-4.06,33.27-17.36,43.19c13.35-4.1,29.33,2.66,35.23,14.92
					c-1.16-14.22,5.68-28.81,17.51-37.36c-14.38,2.54-30.03-5.57-35.78-18.54"/>
				<g>
					<path d="M817.02,754.18c2.47,14.42-3.55,29.31-15.42,38.33c-1.15,0.88-2.13,2.67-2.04,4.12c0.06,1.11,0.82,2.27,2.15,1.88
						c13.01-3.81,27.61,2.62,33.48,14.38c0.62,1.24,2.49,0.33,3.18-0.22c1.16-0.92,2.15-2.65,2.04-4.12
						c-0.93-12.94,4.77-25.35,15.46-33.23c1.54-1.13,3.62-6.61-0.1-6.01c-13.52,2.22-28.16-5.26-33.73-17.4
						c-1.64-3.57-6.6,1.9-5.41,4.49c6.41,13.96,22.18,22.25,37.82,19.68c-0.04-2-0.07-4-0.1-6.01
						c-13.04,9.61-20.69,25.67-19.55,41.49c1.74-1.45,3.49-2.9,5.23-4.35c-6.45-12.91-22.86-19.61-36.99-15.47
						c0.04,2,0.07,4,0.1,6.01c14.81-11.25,22.37-30.15,19.3-48.06c-0.31-1.79-2.51-1.13-3.47-0.38
						C817.5,750.46,816.72,752.42,817.02,754.18L817.02,754.18z"/>
				</g>
			</g>
			<g>
				<path class="st11" d="M758.15,163.77c3.24,14.89-0.77,31.1-10.63,42.98c14.46-9.32,35.83-6.77,47.51,5.67
					c-10.66-11.72-10.66-31.13,0.01-42.85c-12.96,4.03-28.13,0.45-37.71-8.89"/>
				<g>
					<path d="M755.45,166.02c2.82,13.51-0.49,27.92-9.36,38.78c-0.86,1.05-1.76,2.81-1.27,4.2c0.4,1.15,1.69,1.53,2.76,0.86
						c13.88-8.73,33.76-6.33,45.03,5.41c2.42,2.52,6.78-3.49,4.84-5.69c-9.33-10.52-10.54-27.28-0.98-38.06
						c1.02-1.15,2.51-6.32-0.77-5.34c-12.46,3.72-26.63,0.53-35.95-8.35c-2.55-2.43-6.94,3.68-4.84,5.69
						c10.29,9.81,25.59,13.58,39.47,9.43c-0.26-1.78-0.51-3.56-0.77-5.34c-11.67,13.14-12.88,34.25-0.99,47.65
						c1.61-1.9,3.22-3.79,4.84-5.69c-12.6-13.12-34.43-15.71-49.98-5.93c0.5,1.69,0.99,3.37,1.49,5.06
						c10.82-13.27,15.36-30.58,11.9-47.18c-0.37-1.77-2.47-1.16-3.47-0.38C755.97,162.26,755.08,164.27,755.45,166.02L755.45,166.02
						z"/>
				</g>
			</g>
		</g>
	</g>
</g>
</svg>
