<?xml version="1.0" encoding="utf-8"?>
<!-- Generator: Adobe Adobe Illustrator 24.2.0, SVG Export Plug-In . SVG Version: 6.00 Build 0)  -->
<svg version="1.1" xmlns="http://www.w3.org/2000/svg" xmlns:xlink="http://www.w3.org/1999/xlink" x="0px" y="0px"
	 viewBox="0 0 1700.79 1700.79" style="enable-background:new 0 0 1700.79 1700.79;" xml:space="preserve">
<style type="text/css">
	.st0{fill:#7E8D9C;}
	.st1{fill:#3D4D5B;}
	.st2{fill:#D3E1EC;}
	.st3{fill:#808E9C;}
	.st4{fill:#F3C159;}
	.st5{fill:#F3C158;}
	.st6{opacity:0.2784;}
	.st7{opacity:0.0784;}
	.st8{fill:#FFFFFF;}
	.st9{opacity:0.149;}
	.st10{fill:#F4F5E9;}
	.st11{fill:#F4F6E7;}
	.st12{stroke:#000000;stroke-width:0.6481;stroke-miterlimit:10;}
</style>
<g id="Ebene_4">
</g>
<g id="Ebene_3">
</g>
<g id="Ebene_14">
</g>
<g id="Ebene_5">
</g>
<g id="Ebene_6">
</g>
<g id="Ebene_7">
	<g>
		<g>
			<path class="st0" d="M278.36,842.07c-92.02,103.45-255.44,244.96-46.42,386.24c182.07,123.06,297.75-32.6,382.53-121.22"/>
			<g>
				<path d="M272.11,835.82c-39.33,44.17-82.14,85.99-114.14,136.1c-15,23.49-27.75,49.32-33.33,76.8
					c-5.56,27.4-3.69,55.78,6.93,81.76c13.65,33.42,38.38,60.84,66.12,83.39c32.05,26.05,68.28,48.45,108.11,60.29
					c30.67,9.11,63.04,11,94.45,4.76c28.86-5.73,56.16-18.37,80.72-34.36c48.66-31.67,87.54-75.31,126.8-117.46
					c4.29-4.61,8.6-9.2,12.95-13.75c7.86-8.22-4.62-20.74-12.5-12.5c-37.48,39.21-72.69,81.3-116.1,114.28
					c-44.94,34.14-98.93,57.1-156.28,47.82c-36.09-5.84-69.36-21.95-99.45-42.26c-30.69-20.72-60.39-45.9-79.33-78.22
					c-13.59-23.2-19.78-48.74-17.42-75.34c2.2-24.75,12.28-49.6,24.73-71.6c28.1-49.67,68.85-90.81,107.07-132.64
					c4.41-4.83,8.81-9.68,13.16-14.57C292.15,839.85,279.69,827.31,272.11,835.82L272.11,835.82z"/>
			</g>
		</g>
		<g>
			<path class="st1" d="M511.3,912.44C342.92,780.1,308.43,726.34,263.9,781.93c-51.11,63.8,372.94,384.38,427.58,332.44
				c47.2-44.86-6.67-61.43-180.87-203.22"/>
			<g>
				<path d="M517.55,906.19c-32.06-25.22-63.58-51.1-95.02-77.09c-21.4-17.69-42.69-35.68-65.22-51.94
					c-23-16.61-54.7-36.87-82.3-18.02c-9.74,6.65-21.17,17.04-23.53,29.16c-2.24,11.53,1.65,23.04,6.49,33.38
					c6.3,13.46,15.22,25.61,24.38,37.24c11.69,14.83,24.54,28.72,37.83,42.12c32.32,32.58,67.42,62.43,103.61,90.6
					c37.56,29.24,76.46,56.87,117.11,81.67c31.61,19.29,64.84,38.21,100.27,49.53c11.3,3.61,23.74,6.82,35.7,5.91
					c12.05-0.92,20.16-6.38,27.86-15.48c7.98-9.43,13.44-20.37,11.27-32.98c-2.16-12.56-11.43-23.2-20.08-31.97
					c-14.84-15.05-31.86-28-48.48-40.97c-26.67-20.8-53.6-41.25-80.19-62.15c-16.91-13.29-33.72-26.72-50.4-40.3
					c-3.7-3.01-8.88-3.62-12.5,0c-3.11,3.11-3.72,9.47,0,12.5c30.91,25.14,62.27,49.72,93.82,74.05c20.9,16.12,42.03,32,62.36,48.84
					c7.04,5.84,14,11.81,20.55,18.2c2.62,2.56,5.17,5.18,7.59,7.93c1.04,1.19,2.04,2.41,3.05,3.63c0.88,1.06-1.05-1.49,0.22,0.28
					c0.48,0.68,0.98,1.34,1.45,2.03c1.5,2.19,2.74,4.48,3.97,6.82c1.09,2.08-0.31-1.11,0-0.04c0.14,0.5,0.39,0.98,0.54,1.48
					c0.33,1.09,0.58,2.19,0.88,3.29c0.41,1.49-0.03,0.71-0.02-0.55c0,0.53,0.14,1.07,0.14,1.61c0.02,1.07-0.06,2.14-0.05,3.2
					c0.02,2.13,0.44-1.27,0.06-0.41c-0.18,0.41-0.17,0.97-0.29,1.41c-0.3,1.07-0.67,2.12-0.97,3.18c-0.54,1.9,0.77-1.49,0.16-0.34
					c-0.25,0.46-0.43,0.96-0.69,1.42c-0.63,1.16-1.26,2.3-1.98,3.41c-0.69,1.07-1.44,2.08-2.19,3.1c1.01-1.4,0.7-0.86-0.09,0.07
					c-0.53,0.63-1.06,1.26-1.6,1.88c-2.01,2.28-4.24,4.32-6.35,6.5c-1.54,1.59,1.81-0.88-0.37,0.27c-0.76,0.4-1.6,0.82-2.32,1.28
					c-1,0.63,2.43-0.75,0.71-0.3c-0.4,0.1-0.78,0.3-1.18,0.41c-1,0.28-2,0.52-3.01,0.77c-3.01,0.73,1.38,0.03-0.94,0.16
					c-1.12,0.06-2.24,0.17-3.37,0.19c-2.34,0.05-4.68-0.08-7-0.32c-0.66-0.07-1.33-0.16-1.99-0.23c0.67,0.07,1.82,0.3-0.15-0.04
					c-1.43-0.25-2.85-0.49-4.27-0.78c-6.28-1.28-12.44-3.08-18.5-5.14c-3.36-1.14-6.68-2.36-9.99-3.65
					c-1.85-0.72-3.69-1.46-5.53-2.22c-0.53-0.22-3-1.26-1.03-0.42c-1.06-0.45-2.13-0.91-3.19-1.37
					c-16.76-7.32-32.99-15.82-48.9-24.82c-38.48-21.78-75.27-46.59-110.84-72.83c-36.29-26.77-71.8-55.6-105.32-86.69
					c-14.77-13.69-29.14-27.84-42.73-42.71c-5.86-6.41-11.57-12.96-17.04-19.71c-1.33-1.63-2.63-3.28-3.94-4.94
					c-0.9-1.14,0.74,0.99-0.71-0.92c-0.68-0.89-1.35-1.78-2.02-2.67c-2.17-2.91-4.28-5.86-6.32-8.86
					c-3.7-5.46-7.18-11.08-10.17-16.96c-0.68-1.34-1.33-2.69-1.96-4.05c-0.27-0.58-0.52-1.17-0.78-1.76c0.9,2,0.23,0.58-0.17-0.47
					c-0.87-2.29-1.68-4.6-2.31-6.98c-0.29-1.09-0.52-2.19-0.75-3.29c-0.12-0.56-0.17-1.13-0.29-1.68c0.36,1.7,0.15,1.72,0.06,0.17
					c-0.11-1.9,0.22-3.92,0.05-5.78c0.28,3.03-0.13,0.8,0.23-0.61c0.33-1.29,1.79-3.62,0.15-0.93c0.41-0.67,0.73-1.45,1.11-2.15
					c0.19-0.35,0.49-0.66,0.66-1.02c0.59-1.2-1.58,1.87,0.18-0.21c2.36-2.79,4.75-5.54,7.39-8.08c1.06-1.02,2.16-1.98,3.27-2.94
					c0.81-0.69,1.76-1.36,0.26-0.26c0.68-0.5,1.35-1.01,2.05-1.48c1.14-0.78,2.31-1.51,3.51-2.17c1.16-0.64,4.54-1.95,2.08-1.1
					c2.52-0.86,4.94-1.57,7.57-2.05c-3.23,0.59,0.91-0.01,1.92-0.03c1.4-0.03,2.78,0.09,4.18,0.16c2.47,0.13-0.73-0.19,0.27,0.01
					c0.65,0.13,1.3,0.22,1.94,0.35c1.52,0.3,3.02,0.69,4.5,1.12c1.49,0.44,2.96,0.94,4.42,1.49c0.81,0.3,1.61,0.63,2.41,0.95
					c-2.02-0.82,0.15,0.08,0.91,0.43c3.48,1.6,6.87,3.4,10.19,5.32c18.62,10.78,34.69,23.94,51.11,37.22
					c25.86,20.91,51.29,42.35,77.07,63.34c16.23,13.22,32.57,26.31,49.03,39.26c3.75,2.95,8.84,3.66,12.5,0
					C520.61,915.62,521.32,909.15,517.55,906.19L517.55,906.19z"/>
			</g>
		</g>
		<g>
			<path class="st2" d="M376.97,792.92C516.68,636.57,528.35,623.26,562.3,654.22c22.97,20.94,19.78,11.61-133.32,189"/>
			<g>
				<path d="M383.21,799.17c23.43-26.22,46.79-52.51,70.56-78.41c15.03-16.38,30.15-32.79,46.41-47.96
					c2.85-2.66,5.75-5.28,8.72-7.81c1.24-1.06,2.49-2.11,3.76-3.14c0.64-0.52,1.28-1.03,1.93-1.54c0.94-0.75-1.32,1-0.38,0.29
					c0.38-0.29,0.77-0.59,1.16-0.87c4.22-3.1,8.55-5.85,13.23-8.19c2.43-1.21-1.74,0.49,0.99-0.4c0.99-0.32,1.96-0.68,2.96-0.94
					c0.82-0.22,1.72-0.29,2.51-0.55c1.52-0.5-2.29,0.05-0.72,0.09c0.47,0.01,0.96-0.1,1.44-0.11c0.78-0.01,1.56,0,2.34,0.02
					c2.76,0.04-1.38-0.51,0.54,0.04c1.59,0.45,3.16,0.9,4.74,1.41c-2.54-0.82-0.87-0.38,0.37,0.25c0.85,0.43,1.67,0.9,2.48,1.4
					c0.75,0.46,1.48,0.94,2.21,1.44c0.73,0.51,3.66,2.8,1.05,0.7c2.93,2.35,5.74,4.84,8.52,7.37c1.72,1.57,3.36,3.17,4.98,4.84
					c1.89,1.97-1.16-1.95,0.47,0.64c0.21,0.33,0.36,0.79,0.61,1.09c0.93,1.1-0.97-2.53-0.31-0.68c0.13,0.36,0.27,0.8,0.29,1.18
					c0.06,0.88-0.81-2.84-0.16-0.77c0.11,0.36-0.22,1.02-0.06,1.33c-0.33-0.63,0.64-2.58,0-0.54c-0.16,0.51-0.31,1.03-0.45,1.54
					c-0.08,0.29-0.25,0.57-0.32,0.87c-0.35,1.54,1.04-1.99,0.37-0.86c-0.77,1.31-1.35,2.75-2.12,4.07
					c-2.12,3.64-4.63,7.05-7.15,10.42c-0.34,0.46-0.69,0.9-1.04,1.36c1.64-2.15,0.22-0.29-0.19,0.23c-0.97,1.23-1.94,2.45-2.93,3.67
					c-2.11,2.61-4.25,5.19-6.41,7.76c-32.88,39.13-67.41,76.92-100.93,115.5c-6.67,7.67-13.32,15.36-19.96,23.05
					c-7.4,8.57,5.05,21.13,12.5,12.5c38.33-44.4,77.65-87.95,115.77-132.52c8.25-9.64,16.74-19.36,23.7-29.99
					c3.66-5.6,7.14-12.09,6.86-18.98c-0.25-6.35-3.91-11.43-8.32-15.69c-5.58-5.4-11.55-10.85-18.21-14.87
					c-20.23-12.23-39.98-0.34-56.1,12.97c-15.12,12.48-28.69,26.87-42.1,41.12c-22.15,23.55-43.65,47.69-65.2,71.78
					c-6.98,7.8-13.95,15.6-20.92,23.4C363.16,795.13,375.62,807.68,383.21,799.17L383.21,799.17z"/>
			</g>
		</g>
		<g>
			<path class="st2" d="M588,959.8C734.9,809.42,740.55,796.59,769.46,822.01c31.9,28.05,18.36,21.54-126.76,189.97"/>
			<g>
				<path d="M594.25,966.05c39.1-40.03,77.11-81.45,117.92-119.76c5.25-4.93,10.58-9.78,16.17-14.33c1.01-0.83,2.04-1.64,3.07-2.45
					c-2.16,1.68,1.23-0.9,1.92-1.39c1.94-1.39,3.93-2.73,5.98-3.94c1.68-0.99,3.43-1.77,5.16-2.66c-1.56,0.8-1.12,0.38,0.49-0.11
					c0.77-0.24,1.55-0.44,2.33-0.66c1.61-0.46,2.39,0.14,0.01-0.1c0.67,0.07,1.45-0.13,2.14-0.13c0.58,0,1.39,0.21,1.94,0.1
					c-1.23,0.26-2.05-0.53-0.09,0.07c0.61,0.19,1.23,0.37,1.85,0.54c2.37,0.67-1.23-0.77,0.08,0c1.25,0.74,2.56,1.34,3.78,2.14
					c0.68,0.44,1.33,0.92,1.99,1.38c2.25,1.58-1.22-1.07,0.5,0.38c1.39,1.17,2.78,2.32,4.15,3.52c2.57,2.26,5.15,4.54,7.52,7.02
					c0.48,0.51,0.94,1.04,1.42,1.55c1.36,1.47,0.52,1.17,0.09,0.04c0.36,0.95,1.36,2.26,1.94,3.12c1.1,1.62-0.41-2.1-0.16-0.38
					c0.07,0.47,0.27,1.23,0.46,1.67c0.72,1.67,0.14-2.55-0.08-0.51c-0.06,0.54-0.1,1.39-0.03,1.92c0.18,1.29,0.73-2.66,0.04-0.45
					c-0.21,0.66-0.32,1.35-0.53,2.01c-0.23,0.73-0.54,1.42-0.79,2.14c0.94-2.71,0.3-0.73-0.31,0.47c-1.92,3.76-4.35,7.25-6.85,10.63
					c-0.71,0.96-2.6,3.38-1.27,1.69c-0.93,1.18-1.86,2.36-2.81,3.53c-2.08,2.57-4.2,5.1-6.34,7.61
					c-32.59,38.22-67.1,74.82-100.12,112.68c-6.48,7.43-12.93,14.88-19.36,22.34c-7.39,8.58,5.06,21.13,12.5,12.5
					c37.5-43.5,76.47-85.67,114.23-128.94c8.29-9.5,17.02-19.16,23.54-30.01c4.08-6.8,7.07-14.64,5.16-22.64
					c-1.63-6.81-6.68-12.21-11.66-16.84c-5.46-5.07-11.28-10.62-18.07-13.84c-19.41-9.21-37.45,5.69-51.5,17.87
					c-14.48,12.56-27.95,26.3-41.41,39.93c-22.23,22.52-44.17,45.31-66.24,67.99c-7.08,7.27-14.16,14.54-21.25,21.8
					C573.79,961.7,586.28,974.21,594.25,966.05L594.25,966.05z"/>
			</g>
		</g>
		<g>
			<path d="M167.14,1171.88c-8.37,4.58-38.03,35.01-31.15,52.6c6.31,16.15,89.91,63.31,94.93,65.75
				c12.65,6.15,37.93-24.87,43.83-37.39"/>
			<g>
				<path d="M162.68,1164.24c-7.36,4.21-13.67,11.18-19.03,17.62c-7.05,8.48-14.11,18.31-16.58,29.26
					c-2.06,9.13-0.31,17.22,5.77,24.23c4.97,5.73,11.31,10.38,17.35,14.9c15.52,11.62,32.1,21.85,48.72,31.79
					c6.55,3.91,13.13,7.76,19.77,11.52c3.82,2.16,7.87,4.91,12.19,5.87c11.72,2.61,23.08-7.09,30.74-14.66
					c7.99-7.9,15.83-17.31,20.77-27.48c4.95-10.19-10.29-19.16-15.26-8.92c-3.57,7.35-8.76,13.99-14.25,19.99
					c-3.14,3.44-6.49,6.88-10.22,9.7c-3.31,2.49-5.43,2.86-8.52,4.27c1.72-0.78-0.91-0.25,1.1,0.02c-1.77-0.24,0.26,0.33,0.04,0.19
					c-0.36-0.23-0.78-0.4-1.15-0.61c-1.65-0.91-3.31-1.81-4.95-2.74c-5.62-3.16-11.2-6.4-16.75-9.68
					c-14.92-8.82-29.71-17.93-43.96-27.8c-6.74-4.68-11.56-8.09-17.34-13.18c-2.04-1.8-3.88-3.73-5.78-5.67
					c-0.43-0.44-1.41-2,0.02,0.11c-0.05-0.07-0.84-1.15-0.81-1.17c-0.02,0.02-0.57-1.03-0.62-1.1c1.7,2.56,0.07,0.17-0.15-1.13
					c0.29,1.71,0.02-1.17,0.03-1.28c0.08-1.79,0.03-1.28,0.31-2.46c0.49-2.11,1.19-4.2,2-5.97c2.13-4.68,5.04-9.12,8.17-13.19
					c3.16-4.11,6.72-7.98,10.46-11.57c1.49-1.43,3.03-2.81,4.62-4.13c1.9-1.57-1.4,0.88,0.43-0.32c0.6-0.39,1.18-0.8,1.8-1.15
					C181.47,1173.85,172.58,1158.58,162.68,1164.24L162.68,1164.24z"/>
			</g>
		</g>
		<g>
			<path class="st3" d="M154.02,1242.15c-37.21,52.93-116.8,179.34-76.51,277.52C108.43,1595,200.4,1637.5,285.4,1635.21
				c85.01-2.29,163.33-40.88,232.14-86.5c220.13-145.92,443.24-402,608.37-370.69c230.1,43.63,140.51,314.03,124.96,396.03
				c-11.21,59.1,8,56.27,24.56,61.08c15.3,4.45,32.93,18.48,39.14-46.35c9.78-101.92,71.59-246.75-11.99-378.3
				c-110.23-173.49-295.75-111.26-347.22-85.35c-214.47,107.94-355.8,320.56-575.02,419.99c-135.69,61.54-218.08,2.79-234.62-35.72
				c-34.81-81.07,30.93-195.72,56.18-231.01"/>
			<g>
				<path d="M146.39,1237.69c-39.79,56.68-76.5,121.44-86.36,190.94c-5.42,38.21-1.56,77.22,17.51,111.35
					c18.37,32.87,48.27,58.38,81.51,75.42c34.88,17.88,73.96,27.59,113.11,28.65c46.01,1.24,92.12-9.31,134.74-26.12
					c83.76-33.04,157.06-88.61,227.45-143.68c68.89-53.9,135.28-110.97,204.88-163.97c31.19-23.75,63.07-46.75,96.46-67.34
					c29.01-17.89,59.34-34.31,91.62-45.51c26.58-9.23,54.57-14.95,82.81-12.69c29.08,2.34,59.18,12.39,84.09,27.5
					c43.65,26.48,66.78,71.54,74.58,120.77c7.66,48.28,2.07,98.8-6.7,146.51c-3.8,20.65-8.39,41.14-13.07,61.61
					c-5.05,22.1-12.12,45.83-10.05,68.58c1.01,11.04,4.76,21.87,14.84,27.69c6.8,3.93,14.76,4.7,22.1,7.15
					c7.07,2.36,14.4,5.15,21.94,3.08c11.32-3.1,16.75-14.58,19.84-24.92c5.31-17.75,5.58-36.64,8.35-54.86
					c2.82-18.59,6.5-37.03,10.11-55.48c7.91-40.34,15.61-80.91,17.81-122.04c2.37-44.28-2.03-89.34-17.48-131.12
					c-14.89-40.29-39.19-77.78-70.12-107.63c-46.62-44.99-108.41-67.98-172.89-67.64c-45.9,0.24-92.31,10.73-134.15,29.56
					c-32.29,14.53-62.96,33.65-92.31,53.35c-34.97,23.46-68.32,49.27-100.75,76.1c-64.94,53.71-126.19,111.73-191.33,165.21
					c-32.29,26.51-65.58,51.84-100.56,74.71c-35.94,23.49-73.98,45.53-114.05,61.2c-59.45,23.25-138.97,31.85-189.34-15.28
					c-7.26-6.79-11.9-12.22-16.27-20.93c-7.08-14.13-9.66-30.89-10.05-46.54c-0.9-36.66,10.14-73.31,24.75-106.6
					c11-25.06,24.21-49.54,40.12-71.86c6.61-9.28-8.71-18.12-15.26-8.92c-16.37,22.98-29.93,48.24-41.1,74.11
					c-14.73,34.11-26.02,70.78-26.23,108.24c-0.16,28.22,6.23,57.47,25.51,78.85c17.01,18.88,40.68,31.57,64.88,38.55
					c80.69,23.26,163.19-14.19,231.73-54.33c71.76-42.03,136.11-95.34,198.56-149.92c62.81-54.9,124.19-111.76,191.42-161.32
					c33.56-24.74,68.54-47.64,105.32-67.32c9.54-5.11,19.15-10.09,29.12-14.31c-1.73,0.73,0.88-0.36,1.39-0.57
					c0.98-0.4,1.95-0.79,2.93-1.18c2.19-0.87,4.39-1.71,6.6-2.53c4.54-1.68,9.12-3.26,13.72-4.74
					c48.4-15.58,101.27-21.32,151.23-10.01c70.79,16.01,126.68,66.96,158.95,130.95c39.84,79.01,30.36,167.66,14.28,251.47
					c-3.6,18.74-7.45,37.44-10.76,56.23c-3.24,18.36-4.75,36.87-7.59,55.26c-1.11,7.2-2.56,15.41-5.32,21.83
					c-0.51,1.19-1.11,2.36-1.77,3.47c-0.31,0.53-2.02,2.83-0.96,1.58c-0.6,0.71-1.26,1.39-1.97,2c1.43-1.22,0.02,0.07-0.78,0.34
					c2.42-0.83,0.03-0.01-0.55,0.08c-1.19,0.19,1.86,0.01-0.39,0.03c-0.75,0-1.49-0.05-2.24-0.1c2.17,0.15,0.23,0.02-0.77-0.24
					c-3.21-0.83-6.29-2.01-9.44-3.04c-3.34-1.09-6.76-1.83-10.16-2.69c-1.73-0.44-3.42-0.93-5.11-1.5c-1.62-0.54-0.62-0.24-0.6-0.23
					c-0.87-0.45-1.71-0.91-2.54-1.43c-0.89-0.55,0.72,0.73-0.79-0.68c-0.45-0.42-1.94-2.42-0.88-0.88c-1.73-2.5-1.77-2.81-2.34-5.08
					c-1.59-6.37-1.41-13-0.89-19.65c1.57-19.87,7.12-39.55,11.52-58.94c10.31-45.37,19.28-91.32,21.23-137.91
					c2.08-49.62-3.84-102.3-30.16-145.5c-30.23-49.63-85.25-77.87-141.87-84.99c-61.34-7.71-122.4,19.94-174.14,49.94
					c-69.54,40.33-132.59,91.47-194.9,141.95c-67.9,55-134.92,111.35-206.46,161.63c-74.13,52.09-157.3,100.24-250.02,104.77
					c-72.61,3.54-155.93-24.92-195.74-89.31c-41.04-66.37-14.53-149.17,18.32-213.04c13.8-26.83,29.82-52.48,47.15-77.16
					C168.21,1237.28,152.89,1228.44,146.39,1237.69L146.39,1237.69z"/>
			</g>
		</g>
		<g>
			<path class="st4" d="M397.59,1014.64c-33.3,8.8-66.6,17.6-99.91,26.4c15.07,12.87,30.13,25.75,45.2,38.62
				c-26.55,28.88-53.1,57.76-79.65,86.64c47.23-23.4,94.45-46.79,141.68-70.19c-14.08-11.48-28.15-22.97-42.23-34.45
				c13.83-15.8,27.65-31.61,41.48-47.41"/>
			<g>
				<path class="st5" d="M395.24,1006.12c-33.3,8.8-66.6,17.6-99.91,26.4c-6.07,1.61-9.03,10.38-3.9,14.77
					c15.07,12.87,30.13,25.75,45.2,38.62c0-4.17,0-8.33,0-12.5c-26.55,28.88-53.1,57.76-79.65,86.64
					c-6.92,7.53,1.72,18.33,10.71,13.88c47.23-23.4,94.45-46.79,141.68-70.19c4.77-2.36,6.05-10.4,1.79-13.88
					c-14.08-11.48-28.15-22.97-42.23-34.45c0,4.17,0,8.33,0,12.5c13.83-15.8,27.65-31.61,41.48-47.41
					c7.46-8.53-4.99-21.08-12.5-12.5c-13.83,15.8-27.65,31.61-41.48,47.41c-2.9,3.31-3.9,9.32,0,12.5
					c14.08,11.48,28.15,22.97,42.23,34.45c0.6-4.63,1.19-9.25,1.79-13.88c-47.23,23.4-94.45,46.79-141.68,70.19
					c3.57,4.63,7.14,9.25,10.71,13.88c26.55-28.88,53.1-57.76,79.65-86.64c3.04-3.31,3.76-9.29,0-12.5
					c-15.07-12.87-30.13-25.75-45.2-38.62c-1.3,4.92-2.6,9.85-3.9,14.77c33.3-8.8,66.6-17.6,99.91-26.4
					C410.92,1020.26,406.26,1003.2,395.24,1006.12L395.24,1006.12z"/>
			</g>
		</g>
		<g class="st6">
			<path d="M533.22,648.11C460.28,725.69,454,762.29,428.51,829.96c-33.09-25.96-48.78-28.14-42.08-36.19
				c42.6-51.15,88.89-98.33,146.13-154.16"/>
			<g>
				<path d="M526.98,641.86c-22.54,24.03-44.08,49.43-61.15,77.71c-12.62,20.92-22.12,43.39-30.58,66.26
					c-5.14,13.91-10.05,27.9-15.27,41.78c4.92-1.3,9.85-2.6,14.77-3.9c-12.57-9.8-25.97-18.03-39.05-27.07
					c-0.52-0.36-2.69-2.08-0.93-0.61c-0.55-0.46-1.07-1.02-1.64-1.44c-1.67-1.23,0.49,0.95,0.02,0.11c-0.21-0.37,0.62,2.49,0.6,2.19
					c0.04,0.72-0.68,2.9-0.49,2.43c0.61-1.49-1.79,2-0.05,0.05c0.74-0.83,1.42-1.7,2.13-2.55c3.21-3.82,6.44-7.63,9.69-11.42
					c25.92-30.18,53.24-59.12,81.18-87.43c17.34-17.56,34.92-34.89,52.59-52.13c8.16-7.96-4.35-20.45-12.5-12.5
					c-32.31,31.52-64.35,63.33-95.1,96.38c-14.11,15.16-27.93,30.58-41.37,46.34c-7.53,8.82-20.56,20.25-8.83,31.37
					c4.46,4.23,10.14,7.31,15.29,10.6c8.91,5.69,17.63,11.66,25.97,18.16c5.45,4.25,12.26,2.77,14.77-3.9
					c8.41-22.36,15.89-45.55,25.31-67.26c10.14-23.36,23.11-45.18,38.43-65.51c11.93-15.84,25.15-30.72,38.71-45.18
					C547.25,646.07,534.78,633.54,526.98,641.86L526.98,641.86z"/>
			</g>
		</g>
		<g class="st6">
			<path d="M749.19,816.02c-68.74,49.66-88.01,137.37-106.49,195.96c3.08-12.06-49.25-28.08-45.91-49.27
				c1.18-7.54,35.8-49.03,141.83-141.66"/>
			<g>
				<path d="M744.73,808.39c-52.38,38.18-78.56,97.68-97.33,157.79c-4.51,14.45-8.68,29.01-13.23,43.45
					c5.68,1.57,11.36,3.13,17.04,4.7c1.93-9.61-5.21-15.97-12.2-21.17c-7.36-5.46-15.92-10.26-22.9-15.59
					c-1.32-1.01-3.27-2.65-4.75-4.04c-0.79-0.74-1.55-1.49-2.29-2.29c-0.32-0.35-2.18-2.7-1.37-1.56c-0.55-0.77-1.04-1.58-1.5-2.41
					c-0.98-1.77,0.08,0.27-0.46-1.06c-0.13-0.33-0.2-0.73-0.28-1.08c-0.28-1.32,0.21,1.5,0.02,0.17c-0.19-1.29,0.69-2.83-0.15-0.41
					c0.89-2.53-1.2,1.71-0.02-0.11c0.66-1.02,1.21-2.13,1.88-3.15c0.94-1.43,1.97-2.8,2.98-4.18c1.24-1.69-1.12,1.37,0.75-0.97
					c0.77-0.96,1.55-1.93,2.34-2.88c3.86-4.67,7.9-9.19,12-13.65c13.18-14.3,27.06-27.96,41.11-41.39
					c25.55-24.42,51.88-48.02,78.48-71.27c8.58-7.5-3.96-19.96-12.5-12.5c-40,34.96-80.04,70.43-116.4,109.23
					c-7.99,8.52-15.97,17.24-22.73,26.79c-6.19,8.74-7.35,18.29-0.78,27.77c6.65,9.6,17.02,16.08,26.63,22.36
					c2.21,1.44,4.42,2.88,6.61,4.35c1.01,0.69,2.02,1.38,3.01,2.09c0.46,0.33,2.72,2.08,1.57,1.15c0.78,0.63,1.55,1.27,2.28,1.96
					c0.36,0.34,2.22,2.42,1.51,1.48c-0.88-1.17,0.01-0.02-0.01,0.03c0.09,0.15,0.19,0.3,0.28,0.46c0.33,0.65,0.33,0.6-0.02-0.15
					c-0.13,0.17-0.25-1.19-0.13-0.16c-0.3-2.55-0.51,0.03,0.01-2.53c-2.23,11.09,13.6,15.64,17.04,4.7
					c16.78-53.34,30.56-109.01,65.3-154.19c10.58-13.76,23.1-26.26,37.13-36.49c3.85-2.81,5.75-7.68,3.17-12.09
					C754.6,807.76,748.61,805.56,744.73,808.39L744.73,808.39z"/>
			</g>
		</g>
		<g class="st6">
			<path d="M294.77,771.55c87.08,150.18,232.07,270.73,400.87,333.28c-90.37,46.62-415.8-233.99-427.13-296.74
				c-3.34-18.52,8.11-26.17,27.8-42.16"/>
			<g>
				<path d="M287.14,776.01c34.77,59.82,78.22,114.58,127.99,162.61c50.57,48.8,107.74,90.92,169.26,124.88
					c34.98,19.31,71.44,35.93,108.89,49.85c-0.7-5.38-1.41-10.77-2.11-16.15c-0.46,0.23-1.2,0.79-1.71,0.83
					c-1.08,0.08,1.88-0.62-0.1,0.04c-1.32,0.44-2.61,0.94-3.95,1.32c-1.29,0.37-2.6,0.68-3.92,0.95c-0.68,0.14-1.36,0.23-2.04,0.37
					c-1.86,0.39,1.85-0.13-0.53,0.08c-6.42,0.55-12.67,0.36-19.08-0.31c-1.35-0.14,1.66,0.29-0.79-0.11
					c-0.85-0.14-1.71-0.27-2.56-0.41c-1.86-0.32-3.72-0.68-5.57-1.07c-3.79-0.81-7.56-1.77-11.29-2.84
					c-8.24-2.36-16.32-5.25-24.26-8.46c-4-1.62-6.68-2.77-11.55-4.98c-4.47-2.03-8.91-4.15-13.31-6.34
					c-9.36-4.65-18.56-9.62-27.63-14.8c-19.64-11.21-38.71-23.42-57.35-36.22c-39.14-26.87-76.29-56.15-112.02-87.46
					c-30.57-26.79-60.42-54.89-86.85-85.82c-2.57-3.01-5.1-6.05-7.58-9.14c-1.13-1.41-2.25-2.82-3.35-4.24
					c-0.77-0.99,0.93,1.22,0.18,0.23c-0.2-0.26-0.39-0.51-0.59-0.77c-0.64-0.85-1.28-1.69-1.91-2.54c-3.66-4.94-7.17-10-10.27-15.31
					c-1.23-2.1-2.4-4.24-3.45-6.44c-0.24-0.5-0.45-1.01-0.7-1.5c-0.94-1.88,0.57,1.58,0.11,0.3c-0.37-1.03-0.8-2.03-1.13-3.08
					c-2.73-8.51-0.52-14.94,5.67-21.24c5.79-5.88,12.5-10.87,18.9-16.05c3.71-3.01,3.13-9.37,0-12.5c-3.67-3.67-8.78-3.02-12.5,0
					c-11.56,9.37-27.09,19.5-30.2,35.23c-1.55,7.83-0.48,15.74,2.52,23.04c5.03,12.24,12.99,23,21.08,33.37
					c24.18,31.04,52.94,58.7,82.02,85.08c36.67,33.26,75.31,64.47,115.61,93.22c36.76,26.22,75.26,51.09,116.61,69.48
					c16.34,7.27,33.26,13.83,50.87,17.28c13.78,2.71,28.63,3.97,42.28-0.16c3.18-0.96,6.3-2.26,9.26-3.76
					c7.36-3.74,4.46-13.71-2.11-16.15c-64.68-24.04-126.05-56.84-182.23-96.89c-55.43-39.51-105.7-86.42-148.81-139.1
					c-23.96-29.29-45.53-60.51-64.55-93.23C296.69,757.26,281.41,766.15,287.14,776.01L287.14,776.01z"/>
			</g>
		</g>
		<g class="st6">
			<path d="M280.1,858.35c-57.16,57.29-98.54,146.06-86.21,225c12.32,78.95,78.11,146.49,150.79,188.68
				c-89.35-35.19-204-103.41-212.47-170.98c-10.3-82.18,75.06-176.01,144.64-245.92"/>
			<g>
				<path d="M273.85,852.1c-47.4,47.76-82.01,111.56-89.63,178.9c-3.66,32.35,0.35,65.22,12.45,95.48
					c12.29,30.71,31.12,58.24,53.61,82.39c26.06,28,56.93,51.56,89.93,70.79c2.27-5.38,4.54-10.77,6.81-16.15
					c-35.68-14.1-70.33-31.22-102.98-51.37c-30.17-18.62-60.21-40.24-82.36-68.29c-8.42-10.66-15.56-22.61-19.05-35.56
					c-3.68-13.66-3.04-29.67-0.11-44.33c7.36-36.79,27.63-70.04,49.51-99.95c27.02-36.94,58.85-70.22,91.07-102.62
					c8.03-8.07-4.46-20.58-12.5-12.5c-30.24,30.4-59.77,61.62-85.93,95.67c-24.22,31.53-46.75,66.51-57.02,105.34
					c-4.48,16.94-6.42,34.74-4.15,52.17c1.95,15,8.09,29.04,16.37,41.62c20.24,30.71,50.44,54.34,80.76,74.46
					c38.03,25.23,79.29,45.66,121.69,62.42c9.48,3.74,15.25-11.23,6.81-16.15c-53.98-31.47-104.17-75.74-131.22-133.05
					c-12.91-27.35-18.67-57.15-17.1-87.33c1.63-31.35,10.6-62.39,23.83-90.76c15.31-32.82,36.19-62.95,61.7-88.66
					C294.37,856.52,281.88,844.01,273.85,852.1L273.85,852.1z"/>
			</g>
		</g>
		<g class="st6">
			<g>
				<path d="M147.82,1242.29c-41.23,60.49-83.51,124.89-86.6,200.42c-1.44,35.17,6.34,71.53,25.15,101.56
					c17.85,28.51,44.72,50.87,74.86,65.47c69.11,33.47,148.24,28.33,220.04,6.42c59.3-18.09,115.24-46.25,167.32-79.65
					c51.95-33.33,100.48-71.71,148.22-110.73c23.45-19.16,46.72-38.53,70.2-57.66c11.83-9.64,23.72-19.22,35.7-28.67
					c12.53-9.88,20.74-16.23,34.01-26.14c48.24-36,98.92-69.13,153.58-94.61c6.09-2.84,14.95-6.78,19.53-8.7
					c4.6-1.93,13.65-5.51,20-7.89c16.29-6.09,32.86-11.55,49.76-15.67c34.35-8.36,69.76-10.41,103.18,3.22
					c1.9,0.77,0.2,0.1-0.15-0.06c0.81,0.36,1.61,0.72,2.41,1.1c1.6,0.74,3.18,1.52,4.75,2.32c3.39,1.73,6.71,3.59,9.96,5.58
					c3.24,1.98,6.4,4.09,9.48,6.32c0.74,0.53,3.74,2.8,3.11,2.31c-1.29-1.02,0.95,0.79,0.96,0.8c0.89,0.75,1.8,1.49,2.69,2.25
					c5.78,4.93,11.22,10.28,16.29,15.94c5.86,6.55,7.43,8.55,12.35,15.8c18.14,26.76,27.82,55.12,31.07,87.65
					c7.8,77.87-18.53,152.11-29.36,228.68c-2.84,20.06-4.88,40.18-5.1,60.45c-0.1,9.55,8.2,17.68,17.68,17.68
					c9.67,0,17.57-8.09,17.68-17.68c0.83-78.54,28.89-153.91,34.79-232.39c2.83-37.68,0.53-76.97-11.89-112.91
					c-10.4-30.1-27.29-58.18-50.11-80.52c-23.51-23.02-53.55-39.97-86.15-45.61c-39.49-6.83-79.52-0.15-117.36,11.85
					c-58.65,18.59-113.93,47.05-165.44,80.47c-51.57,33.46-99.8,71.8-147.32,110.69c-23.43,19.18-46.71,38.55-70.2,57.65
					c-11.84,9.62-23.73,19.18-35.73,28.61c-2.76,2.17-5.53,4.34-8.31,6.49c-0.54,0.42-3.92,3.04-1.98,1.54
					c-1.62,1.25-3.25,2.5-4.87,3.74c-6.03,4.62-12.1,9.2-18.19,13.73c-48.28,35.87-99.05,68.8-153.8,93.97
					c-3.18,1.46-6.37,2.9-9.58,4.31c-1.6,0.71-3.22,1.4-4.82,2.1c-0.38,0.17-3.11,1.32-0.62,0.27c-1.08,0.45-2.16,0.9-3.24,1.35
					c-6.79,2.8-13.63,5.47-20.52,8.01c-16.31,6.01-32.89,11.32-49.73,15.63c-36.59,9.36-73.4,13.57-111.36,9.15
					c-31.14-3.63-60.12-14.35-85.91-32.08c-5.96-4.09-9.47-6.85-15.67-12.6c-2.87-2.67-5.65-5.44-8.32-8.32
					c-2.13-2.31-5.78-6.58-6.78-7.85c-9.08-11.67-16.47-26.47-20.76-40.77c-9.11-30.35-7.97-62.33,0-92.93
					c9.05-34.74,25.87-65.73,45.12-96.33c9.78-15.55,20.12-30.74,30.47-45.92c5.38-7.89,1.49-19.6-6.34-24.18
					C163.26,1230.84,153.21,1234.38,147.82,1242.29L147.82,1242.29z"/>
			</g>
		</g>
		<g class="st7">
			<g>
				<path class="st8" d="M546.45,1094.33c-25.64,19.46-47.33,42.83-70.26,65.27c-5.5,5.39-11.1,10.68-16.86,15.79
					c-2.64,2.34-5.32,4.64-8.04,6.88c-1.26,1.03-2.52,2.05-3.8,3.06c-0.11,0.09-2.23,1.74-0.78,0.62c1.61-1.24-1.81,1.35-2.12,1.58
					c-11.43,8.45-23.61,15.83-36.59,21.63c-0.15,0.07-2.64,1.09-0.89,0.39c1.88-0.76-2.54,0.97-2.43,0.93
					c-1.78,0.67-3.57,1.31-5.37,1.91c-3.87,1.29-7.79,2.42-11.75,3.34c-1.86,0.43-3.72,0.83-5.59,1.18
					c-1.03,0.19-5.87,0.91-2.59,0.5c-4.39,0.55-8.79,0.81-13.21,0.88c-9.24,0.14-18.11,8.03-17.68,17.68
					c0.42,9.45,7.77,17.83,17.68,17.68c31.78-0.5,62.11-12.28,88.25-29.91c26.6-17.94,48.68-41.06,71.22-63.65
					c6.47-6.49,13.02-12.92,19.77-19.12c3.27-3,6.59-5.96,9.97-8.83c1.58-1.35,3.18-2.67,4.79-3.99c0.92-0.75,1.85-1.49,2.78-2.23
					c2.57-2.04-3.19,2.4,1.37-1.06c7.34-5.57,11.94-15.49,6.34-24.18C565.96,1093.41,554.33,1088.35,546.45,1094.33L546.45,1094.33z
					"/>
			</g>
		</g>
		<g class="st7">
			<g>
				<path class="st8" d="M490.89,951.99c43.99,34.63,87.98,69.25,131.97,103.88c7.25,5.71,18.02,7.6,25,0c5.84-6.37,7.76-18.89,0-25
					c-43.99-34.63-87.98-69.25-131.97-103.88c-7.25-5.71-18.02-7.6-25,0C485.04,933.36,483.13,945.89,490.89,951.99L490.89,951.99z"
					/>
			</g>
		</g>
		<g class="st7">
			<g>
				<path class="st8" d="M741.87,836.46c-8.73,10.54-17.45,21.07-26.18,31.61c-5.89,7.11-7.48,18.13,0,25c6.51,5.98,18.7,7.6,25,0
					c8.73-10.54,17.45-21.07,26.18-31.61c5.89-7.11,7.48-18.13,0-25C760.36,830.48,748.17,828.85,741.87,836.46L741.87,836.46z"/>
			</g>
		</g>
		<g class="st7">
			<g>
				<path class="st8" d="M530.53,666.49c-5.79,6.89-11.58,13.78-17.38,20.66c-5.94,7.07-7.45,18.16,0,25c6.55,6.02,18.64,7.56,25,0
					c5.79-6.89,11.58-13.78,17.38-20.66c5.94-7.07,7.45-18.16,0-25C548.97,660.47,536.88,658.93,530.53,666.49L530.53,666.49z"/>
			</g>
		</g>
		<g class="st7">
			<g>
				<path class="st8" d="M1090.97,1101.14c-58.41,6.11-112.82,30.47-162.82,60.28c-60.36,35.99-115.8,80.03-169.71,124.92
					c-33.7,28.06-66.82,56.81-99.91,85.59c-7,6.09-6.7,18.85,0,25c7.46,6.85,17.53,6.49,25,0c29.03-25.25,58.09-50.48,87.54-75.24
					c13.88-11.67,27.85-23.24,41.95-34.63c7.1-5.74,14.24-11.44,21.42-17.08c3.3-2.59,6.61-5.18,9.93-7.75
					c-0.31,0.24-1.63,1.26-0.04,0.03c0.94-0.72,1.88-1.45,2.83-2.17c1.88-1.44,3.76-2.87,5.64-4.3c26.2-19.9,53.05-39,80.99-56.4
					c13-8.09,26.24-15.81,39.76-22.98c6.36-3.37,12.79-6.63,19.28-9.74c3.07-1.47,6.15-2.91,9.25-4.31
					c1.53-0.69,3.07-1.38,4.61-2.05c0.84-0.37,6.93-2.92,3-1.31c13.79-5.66,27.79-10.75,42.17-14.72c6.96-1.92,13.99-3.6,21.08-5
					c3.37-0.66,6.75-1.26,10.14-1.78c0.84-0.13,1.69-0.25,2.53-0.38c3.39-0.53-2.56,0.24-0.28,0.03c1.89-0.17,3.77-0.45,5.66-0.65
					c9.17-0.96,18.13-7.44,17.68-17.68C1108.25,1110.06,1100.82,1100.1,1090.97,1101.14L1090.97,1101.14z"/>
			</g>
		</g>
	</g>
	<g>
		<g id="Ebene_3_1_">
			<g class="st9">
				<g>
					<path d="M794.94,700.93c3.38,0,6.7-7.3,2.99-7.3C794.55,693.63,791.23,700.93,794.94,700.93L794.94,700.93z"/>
				</g>
			</g>
			<g class="st9">
				<path d="M789.07,695.58c3.91,57.08,7.83,114.16,11.74,171.24c58.38-41.29,116.77-82.57,175.15-123.86
					c32.55-23.02,63.28-59.18,105.48-57.15c43.74,2.11,94.51,1.71,136.3,3.72c100.7,4.85,179.35,0.03,279.25-12.53
					c30.57-3.84,77.5-29.47,100.32-48.58c27.79-23.27,30.83-48.7,33.46-83.17c10.23-133.67-15.24-267.84-55.03-396.74
					c-9.87-31.97-23.03-66.61-54.25-83.33c-27.65-14.8-62.09-11.46-93.73-7.13c-251.03,34.39-496.53,102.82-726.08,202.41
					c-25.33,10.99-52.18,23.88-64.63,46.95c-9.83,18.22-11.54,39.96-7.08,59.87c18.95,84.67,29.14,140.63,43.45,229.5
					c4.04,25.09,14.28,64.42,37.96,77.41c23.17,12.71,49.35,12.56,74.96,9.9c2.14,3.84,4.28,7.68,6.41,11.51"/>
				<g>
					<path d="M785.94,697.18c3.91,57.08,7.83,114.16,11.74,171.24c0.16,2.37,2.26,2.4,3.98,1.18
						c44.71-31.61,89.42-63.23,134.13-94.85c19.81-14.01,40.1-27.56,58.88-42.72c15.48-12.5,30.76-25.94,49.21-34.73
						c9.17-4.36,19.24-7.39,29.61-7.85c11.99-0.53,24.27,0.77,36.28,1.09c25.3,0.68,50.6,0.91,75.9,1.56
						c25.51,0.65,50.98,2.15,76.5,2.65c25.48,0.5,50.97,0.33,76.43-0.57c50.81-1.81,101.42-6.63,151.8-12.86
						c19.85-2.45,38-9.03,55.66-17.59c17.65-8.55,34.89-18.66,49.94-30.76c14.76-11.87,25.55-26.65,30.97-44.03
						c5.79-18.59,6.62-38.45,7.77-57.65c3.01-50.01,1.11-100.22-4.58-150.02c-5.6-49.04-14.8-97.7-26.58-145.79
						c-5.94-24.23-12.53-48.32-19.66-72.28c-5.94-19.97-11.73-40.2-21.34-59.01c-8.47-16.58-20.4-32.11-37.68-41.78
						c-19.99-11.18-44.06-12.71-66.87-11.17c-24.97,1.69-49.83,5.96-74.51,9.75c-25.95,3.99-51.84,8.34-77.64,13.04
						c-102.61,18.73-203.99,43.17-303.41,73.1c-99.1,29.84-196.28,65.13-290.78,105.68c-19.55,8.38-39.76,16.67-56.27,29.71
						c-16.66,13.17-26.74,31-29.81,50.97c-3.53,22.92,3.41,45.17,8.23,67.48c4.53,20.98,8.88,42,12.98,63.05
						c8.4,43.13,15.71,86.42,22.72,129.76c5.16,31.93,13.02,73.99,49.09,88.28c21.18,8.39,44.49,7.89,66.97,5.61
						c-0.65-0.19-1.3-0.38-1.96-0.57c2.14,3.84,4.28,7.68,6.41,11.51c1.64,2.95,6.93-3.25,5.38-6.03
						c-2.14-3.84-4.28-7.68-6.41-11.51c-0.37-0.67-1.31-0.64-1.96-0.57c-24.07,2.44-49.41,2.52-71.2-8.55
						c-16.22-8.23-24.54-24.79-30.14-40.31c-6.24-17.28-8.95-35.18-11.88-53.11c-3.55-21.79-7.18-43.57-11.02-65.31
						c-7.23-41-15.32-81.86-24.18-122.59c-4.92-22.62-11.34-44.8-4.99-67.8c5.65-20.46,20.59-34.74,39.77-45.48
						c19.6-10.98,41.15-19.24,62-27.95c23.11-9.66,46.37-18.99,69.78-28.02c47.69-18.39,95.99-35.45,144.79-51.17
						c95.81-30.87,193.58-56.6,292.65-77c50.14-10.32,100.61-19.28,151.33-26.84c24.09-3.59,48.55-7.99,73.02-8.33
						c22.6-0.31,45.2,3.86,62.93,17.45c15.7,12.04,25.58,29.42,32.74,46.72c8.33,20.12,14.03,41.22,19.99,62.01
						c13.51,47.17,24.88,94.9,33.1,143.1c8.2,48.07,13.22,96.65,14.04,145.32c0.41,24.45-0.25,48.92-2.08,73.33
						c-1.37,18.14-2.6,37.06-10.65,53.94c-7.75,16.26-22.18,28.04-37.55,38.21c-16.83,11.14-35.2,20.88-54.43,28.04
						c-20.38,7.59-42.02,9.16-63.68,11.57c-25.25,2.81-50.54,5.18-75.91,6.89c-49.5,3.32-99.14,3.9-148.72,2.02
						c-48.98-1.86-98.02-2.12-146.98-4.17c-10.21-0.43-19.92-0.47-29.83,2.19c-8.79,2.36-17.09,6.13-24.82,10.61
						c-17.2,9.98-31.87,23.06-47.21,35.21c-19.24,15.25-40.05,28.94-60.18,43.17c-21.57,15.25-43.13,30.5-64.7,45.75
						c-21.04,14.88-42.08,29.76-63.12,44.63c1.33,0.39,2.66,0.79,3.98,1.18c-3.91-57.08-7.83-114.16-11.74-171.24
						C791.87,689.27,785.73,694.11,785.94,697.18L785.94,697.18z"/>
				</g>
			</g>
			<g class="st9">
				<g>
					<path d="M1575.72,834.73c3.38,0,6.7-7.3,2.99-7.3C1575.32,827.42,1572.01,834.73,1575.72,834.73L1575.72,834.73z"/>
				</g>
			</g>
		</g>
		<g id="Ebene_3_Kopie">
			<g>
				<g>
					<path class="st10" d="M815.2,676.45c3.38,0,6.7-7.3,2.99-7.3C814.81,669.14,811.49,676.45,815.2,676.45L815.2,676.45z"/>
				</g>
			</g>
			<g>
				<path class="st11" d="M809.33,671.1c3.91,57.08,7.83,114.16,11.74,171.24c58.38-41.29,116.77-82.57,175.15-123.86
					c32.55-23.02,63.28-59.18,105.48-57.15c43.74,2.11,94.51,1.71,136.3,3.72c100.7,4.85,179.35,0.03,279.25-12.53
					c30.57-3.84,77.5-29.47,100.32-48.58c27.79-23.27,30.83-48.7,33.46-83.17c10.23-133.67-15.24-267.84-55.03-396.74
					c-9.87-31.97-23.03-66.61-54.25-83.33c-27.65-14.8-62.09-11.46-93.73-7.13C1197,67.96,951.51,136.4,721.96,235.98
					c-25.33,10.99-52.18,23.87-64.63,46.94c-9.83,18.22-11.54,39.96-7.08,59.87c18.95,84.67,29.14,140.63,43.45,229.5
					c4.04,25.09,18.41,59.53,37.96,77.41c19.55,17.88,53.11,25.38,74.96,9.9c2.14,3.84,4.28,7.68,6.41,11.51"/>
				<g>
					<path class="st10" d="M806.2,672.7c3.91,57.08,7.83,114.16,11.74,171.24c0.16,2.37,2.26,2.4,3.98,1.18
						c44.71-31.61,89.42-63.23,134.13-94.85c20.21-14.29,40.86-28.13,60-43.63c15.44-12.5,30.79-25.88,49.35-34.41
						c9.04-4.16,18.93-6.93,29.07-7.29c11.78-0.42,23.79,0.81,35.57,1.12c25.88,0.7,51.78,0.92,77.65,1.6
						c25.55,0.68,51.05,2.17,76.61,2.65c25.74,0.47,51.49,0.26,77.21-0.71c50.91-1.91,101.61-6.83,152.08-13.13
						c19.66-2.45,38.11-9.93,55.45-18.56c17.15-8.54,33.99-18.5,48.55-30.5c14.82-12.21,25.15-27.42,30.3-45.1
						c5.56-19.06,6.24-39.45,7.33-59.05c2.78-50.02,0.67-100.22-5.19-150c-5.84-49.62-15.34-98.83-27.46-147.47
						c-6.03-24.21-12.71-48.28-19.91-72.21c-5.82-19.35-11.67-38.87-21.41-56.94c-9.02-16.74-21.99-32.08-40.27-40.9
						c-20.49-9.88-44.29-10.52-66.85-8.67c-25.71,2.11-51.31,6.46-76.74,10.42c-25.63,4-51.2,8.35-76.69,13.06
						c-103.18,19.04-205.1,43.85-305.02,74.23c-99.3,30.19-196.65,65.86-291.29,106.8c-19.2,8.3-38.93,17.11-54.12,31.08
						c-15.59,14.35-23.63,33.43-25.22,53.51c-0.9,11.28,0.65,22.24,3.11,33.26c2.59,11.63,5.14,23.27,7.63,34.92
						c4.44,20.77,8.68,41.57,12.69,62.42c4,20.83,7.76,41.7,11.36,62.59c3.95,22.93,7.06,46.03,11.46,68.88
						c3.59,18.67,10.84,37.14,20.99,53.64c10.02,16.28,23.92,30.07,43.56,36.29c17.5,5.54,36.47,4.56,51.6-5.79
						c-1.18,0.08-2.36,0.16-3.54,0.23c2.14,3.84,4.28,7.68,6.41,11.51c1.64,2.95,6.93-3.25,5.38-6.03
						c-2.14-3.84-4.28-7.68-6.41-11.51c-0.74-1.33-2.73-0.32-3.54,0.23c-16.55,11.32-39.48,8.59-56.62-0.09
						c-18.16-9.2-29.7-25.82-38.02-42.81c-8.9-18.16-13.24-36.83-16.42-56.41c-3.57-21.95-7.21-43.88-11.06-65.79
						c-7.23-41.2-15.31-82.25-24.19-123.18c-4.83-22.29-11.58-44.36-6.29-67.15c4.83-20.82,18.76-35.85,37.96-47.06
						c19.44-11.35,41.15-19.61,62.04-28.36c23.38-9.79,46.92-19.27,70.6-28.42c47.11-18.2,94.8-35.1,143-50.7
						c96.34-31.19,194.68-57.17,294.34-77.75c50.13-10.35,100.6-19.34,151.3-26.94c24.14-3.61,48.64-8.03,73.15-8.57
						c22.64-0.51,45.47,3.25,63.53,16.59c15.93,11.77,26.03,29.02,33.3,46.26c8.53,20.22,14.27,41.5,20.28,62.44
						c13.46,46.88,24.79,94.3,33.05,142.21c8.33,48.36,13.44,97.22,14.32,146.18c0.43,24.45-0.19,48.92-2,73.33
						c-1.34,18.04-2.51,36.83-10.19,53.7c-7.47,16.4-21.62,28.3-36.93,38.57c-16.85,11.3-35.33,21.13-54.63,28.44
						c-20.69,7.84-42.59,9.48-64.61,11.92c-24.95,2.78-49.96,5.13-75.03,6.83c-49.47,3.35-99.08,3.96-148.64,2.11
						c-24.71-0.92-49.39-1.95-74.12-2.41c-24.61-0.45-49.23-0.77-73.82-1.8c-9.97-0.42-19.47-0.48-29.16,2.02
						c-9.04,2.33-17.56,6.19-25.48,10.78c-17.2,9.96-31.87,23.06-47.21,35.21c-19.24,15.25-40.05,28.94-60.18,43.17
						c-21.57,15.25-43.13,30.5-64.7,45.75c-21.04,14.88-42.08,29.76-63.12,44.63c1.33,0.39,2.66,0.79,3.98,1.18
						c-3.91-57.08-7.83-114.16-11.74-171.24C812.14,664.79,805.99,669.63,806.2,672.7L806.2,672.7z"/>
				</g>
			</g>
			<g>
				<g>
					<path class="st10" d="M1595.99,810.24c3.38,0,6.7-7.3,2.99-7.3C1595.59,802.94,1592.27,810.24,1595.99,810.24L1595.99,810.24z"
						/>
				</g>
			</g>
		</g>
		<g id="Ebene_2_1_">
			<g>
				<g>
					<path d="M807.73,661.85c-17.01,1.84-34.75,2.84-51.54-0.96c-8.1-1.84-15.96-5.02-22.45-9.89
						c-7.32-5.49-12.75-13.24-17.18-20.82c-9.55-16.35-14.2-34.74-18.22-52.79c-4.72-21.16-9.18-42.38-13.76-63.57
						c-9.39-43.44-18.78-86.88-28.16-130.32c-7.74-35.85-18.52-78.93,8.35-110.45c11.57-13.58,27.63-23.19,44.07-31.11
						c18.27-8.8,37.47-16.04,56.45-23.42c42.04-16.33,84.68-31.36,127.71-45.35c85.51-27.8,172.56-51.44,260.21-72.83
						c87.51-21.37,175.64-40.51,263.82-59.38c21.29-4.56,42.67-10.06,64.38-12.64c20.55-2.45,41.85-1,59.48,9.86
						c31.34,19.3,43.13,57.52,54.35,88.64c28.57,79.25,46.74,161.66,53.95,244.88c3.47,39.98,5.02,80.46,2.67,120.54
						c-1.97,33.65-7.75,68.93-27.14,98.17c-20.29,30.58-54.53,47.38-91.5,55.58c-40.66,9.02-83.43,10.23-125.02,12.24
						c-88.88,4.31-177.86,3.58-266.8,1.78c-22.68-0.46-45.35-0.97-68.02-1.47c-3.38-0.07-6.74,7.22-2.99,7.3
						c92.78,2.04,185.61,4.35,278.4,1.82c45.5-1.25,91.26-2.99,136.54-7.46c38.04-3.75,77.34-11.12,108.89-32.18
						c65.71-43.85,65.99-128.97,64.63-196.16c-1.74-85.72-15-171.29-39.34-254.05c-6.17-20.98-13.05-41.78-20.64-62.37
						c-6.3-17.08-12.72-34.3-22.08-50.2c-8.31-14.11-19.39-27.4-34.56-35.75c-17.68-9.73-38.48-10.75-58.46-8.47
						c-22.32,2.56-44.31,8.26-66.18,12.95c-23.04,4.93-46.07,9.89-69.09,14.89c-45.75,9.95-91.45,20.11-137.02,30.75
						c-90.68,21.18-180.89,44.29-269.69,71.47c-44.46,13.61-88.56,28.23-132.13,44.13c-21.33,7.78-42.53,15.86-63.58,24.26
						c-18.24,7.29-36.69,14.54-53.48,24.44c-15.53,9.17-29.67,20.73-38.81,35.67c-10.02,16.37-13.03,35.25-12.24,53.82
						c0.84,19.74,5.46,39.17,9.64,58.48c4.83,22.33,9.65,44.65,14.48,66.97c9.47,43.83,18.09,87.91,28.57,131.54
						c4.31,17.92,9.94,35.98,20.65,51.65c9.76,14.29,23.03,23.24,41.05,26.72c16.52,3.19,33.71,2.07,50.34,0.27
						C809.48,668.68,812.22,661.36,807.73,661.85L807.73,661.85z"/>
				</g>
			</g>
			<g>
				<g>
					<path d="M803.44,627.17c1.56,28.53,2.83,57.08,4.09,85.63c1.35,30.53,2.65,61.07,4.07,91.61c0.72,15.39,1.46,30.78,2.31,46.16
						c0.09,1.55,1.55,2.73,3.19,1.69c40.17-25.19,79.51-51.49,117.89-78.93c39.54-28.28,78.11-57.77,114.97-88.98
						c19.68-16.67,38.84-33.85,57.26-51.7c1.15-1.11,2.25-3.7,1.09-5.09c-1.27-1.53-3.31-0.01-4.29,0.94
						c-32.95,31.93-68.38,61.67-104.87,90.13c-37.97,29.62-77.24,57.83-117.4,84.91c-21.33,14.38-42.93,28.43-64.78,42.13
						c1.06,0.56,2.12,1.13,3.19,1.69c-1.56-28.53-2.83-57.08-4.09-85.63c-1.35-30.53-2.65-61.07-4.07-91.61
						c-0.72-15.39-1.46-30.78-2.31-46.16c-0.09-1.74-1.52-2.45-3.19-1.69C804.76,623.08,803.34,625.38,803.44,627.17L803.44,627.17z
						"/>
				</g>
			</g>
			<g>
				<g>
					<path d="M1678.4,525.32c-2.07,33.29-15.55,65.84-37.86,92.1c-22.97,27.03-55.09,46.58-90.83,56.22
						c-20.4,5.5-41.68,7.76-62.89,6.54c-3.37-0.19-6.78,7.09-2.99,7.3c39.33,2.26,79.2-7.26,112.53-26.58
						c32.97-19.12,58.57-47.61,73.67-80.6c8.45-18.47,13.39-38.18,14.63-58.18c0.11-1.78-1.66-2.39-3.19-1.69
						C1679.57,521.3,1678.51,523.48,1678.4,525.32L1678.4,525.32z"/>
				</g>
			</g>
		</g>
		<g id="Ebene_5_1_">
			<ellipse class="st12" cx="914.5" cy="513.82" rx="41.59" ry="39.92"/>
			<ellipse class="st12" cx="1105.61" cy="513.82" rx="41.59" ry="39.92"/>
			<ellipse class="st12" cx="1285.03" cy="513.82" rx="41.59" ry="39.92"/>
		</g>
	</g>
</g>
</svg>
