<?xml version="1.0" encoding="utf-8"?>
<!-- Generator: Adobe Adobe Illustrator 24.2.0, SVG Export Plug-In . SVG Version: 6.00 Build 0)  -->
<svg version="1.1" xmlns="http://www.w3.org/2000/svg" xmlns:xlink="http://www.w3.org/1999/xlink" x="0px" y="0px"
	 viewBox="0 0 1700.79 1700.79" style="enable-background:new 0 0 1700.79 1700.79;" xml:space="preserve">
<style type="text/css">
	.st0{fill:#7E8D9C;}
	.st1{fill:#3D4D5B;}
	.st2{fill:#D3E1EC;}
	.st3{fill:#808E9C;}
	.st4{fill:#F3C159;}
	.st5{fill:#F3C158;}
	.st6{opacity:0.2784;}
	.st7{opacity:0.0784;}
	.st8{fill:#FFFFFF;}
	.st9{fill:#6DB671;}
	.st10{fill:#6CB671;}
	.st11{opacity:0.149;}
	.st12{opacity:0.0314;}
</style>
<g id="Ebene_4">
</g>
<g id="Ebene_3">
</g>
<g id="Ebene_14">
</g>
<g id="Ebene_5">
</g>
<g id="Ebene_6">
</g>
<g id="Ebene_7">
	<g>
		<g>
			<path class="st0" d="M278.36,842.07c-92.02,103.45-255.44,244.96-46.42,386.24c182.07,123.06,297.75-32.6,382.53-121.22"/>
			<g>
				<path d="M272.11,835.82c-39.33,44.17-82.14,85.99-114.14,136.1c-15,23.49-27.75,49.32-33.33,76.8
					c-5.56,27.4-3.69,55.78,6.93,81.76c13.65,33.42,38.38,60.84,66.12,83.39c32.05,26.05,68.28,48.45,108.11,60.29
					c30.67,9.11,63.04,11,94.45,4.76c28.86-5.73,56.16-18.37,80.72-34.36c48.66-31.67,87.54-75.31,126.8-117.46
					c4.29-4.61,8.6-9.2,12.95-13.75c7.86-8.22-4.62-20.74-12.5-12.5c-37.48,39.21-72.69,81.3-116.1,114.28
					c-44.94,34.14-98.93,57.1-156.28,47.82c-36.09-5.84-69.36-21.95-99.45-42.26c-30.69-20.72-60.39-45.9-79.33-78.22
					c-13.59-23.2-19.78-48.74-17.42-75.34c2.2-24.75,12.28-49.6,24.73-71.6c28.1-49.67,68.85-90.81,107.07-132.64
					c4.41-4.83,8.81-9.68,13.16-14.57C292.15,839.85,279.69,827.31,272.11,835.82L272.11,835.82z"/>
			</g>
		</g>
		<g>
			<path class="st1" d="M511.3,912.44C342.92,780.1,308.43,726.34,263.9,781.93c-51.11,63.8,372.94,384.38,427.58,332.44
				c47.2-44.86-6.67-61.43-180.87-203.22"/>
			<g>
				<path d="M517.55,906.19c-32.06-25.22-63.58-51.1-95.02-77.09c-21.4-17.69-42.69-35.68-65.22-51.94
					c-23-16.61-54.7-36.87-82.3-18.02c-9.74,6.65-21.17,17.04-23.53,29.16c-2.24,11.53,1.65,23.04,6.49,33.38
					c6.3,13.46,15.22,25.61,24.38,37.24c11.69,14.83,24.54,28.72,37.83,42.12c32.32,32.58,67.42,62.43,103.61,90.6
					c37.56,29.24,76.46,56.87,117.11,81.67c31.61,19.29,64.84,38.21,100.27,49.53c11.3,3.61,23.74,6.82,35.7,5.91
					c12.05-0.92,20.16-6.38,27.86-15.48c7.98-9.43,13.44-20.37,11.27-32.98c-2.16-12.56-11.43-23.2-20.08-31.97
					c-14.84-15.05-31.86-28-48.48-40.97c-26.67-20.8-53.6-41.25-80.19-62.15c-16.91-13.29-33.72-26.72-50.4-40.3
					c-3.7-3.01-8.88-3.62-12.5,0c-3.11,3.11-3.72,9.47,0,12.5c30.91,25.14,62.27,49.72,93.82,74.05c20.9,16.12,42.03,32,62.36,48.84
					c7.04,5.84,14,11.81,20.55,18.2c2.62,2.56,5.17,5.18,7.59,7.93c1.04,1.19,2.04,2.41,3.05,3.63c0.88,1.06-1.05-1.49,0.22,0.28
					c0.48,0.68,0.98,1.34,1.45,2.03c1.5,2.19,2.74,4.48,3.97,6.82c1.09,2.08-0.31-1.11,0-0.04c0.14,0.5,0.39,0.98,0.54,1.48
					c0.33,1.09,0.58,2.19,0.88,3.29c0.41,1.49-0.03,0.71-0.02-0.55c0,0.53,0.14,1.07,0.14,1.61c0.02,1.07-0.06,2.14-0.05,3.2
					c0.02,2.13,0.44-1.27,0.06-0.41c-0.18,0.41-0.17,0.97-0.29,1.41c-0.3,1.07-0.67,2.12-0.97,3.18c-0.54,1.9,0.77-1.49,0.16-0.34
					c-0.25,0.46-0.43,0.96-0.69,1.42c-0.63,1.16-1.26,2.3-1.98,3.41c-0.69,1.07-1.44,2.08-2.19,3.1c1.01-1.4,0.7-0.86-0.09,0.07
					c-0.53,0.63-1.06,1.26-1.6,1.88c-2.01,2.28-4.24,4.32-6.35,6.5c-1.54,1.59,1.81-0.88-0.37,0.27c-0.76,0.4-1.6,0.82-2.32,1.28
					c-1,0.63,2.43-0.75,0.71-0.3c-0.4,0.1-0.78,0.3-1.18,0.41c-1,0.28-2,0.52-3.01,0.77c-3.01,0.73,1.38,0.03-0.94,0.16
					c-1.12,0.06-2.24,0.17-3.37,0.19c-2.34,0.05-4.68-0.08-7-0.32c-0.66-0.07-1.33-0.16-1.99-0.23c0.67,0.07,1.82,0.3-0.15-0.04
					c-1.43-0.25-2.85-0.49-4.27-0.78c-6.28-1.28-12.44-3.08-18.5-5.14c-3.36-1.14-6.68-2.36-9.99-3.65
					c-1.85-0.72-3.69-1.46-5.53-2.22c-0.53-0.22-3-1.26-1.03-0.42c-1.06-0.45-2.13-0.91-3.19-1.37
					c-16.76-7.32-32.99-15.82-48.9-24.82c-38.48-21.78-75.27-46.59-110.84-72.83c-36.29-26.77-71.8-55.6-105.32-86.69
					c-14.77-13.69-29.14-27.84-42.73-42.71c-5.86-6.41-11.57-12.96-17.04-19.71c-1.33-1.63-2.63-3.28-3.94-4.94
					c-0.9-1.14,0.74,0.99-0.71-0.92c-0.68-0.89-1.35-1.78-2.02-2.67c-2.17-2.91-4.28-5.86-6.32-8.86
					c-3.7-5.46-7.18-11.08-10.17-16.96c-0.68-1.34-1.33-2.69-1.96-4.05c-0.27-0.58-0.52-1.17-0.78-1.76c0.9,2,0.23,0.58-0.17-0.47
					c-0.87-2.29-1.68-4.6-2.31-6.98c-0.29-1.09-0.52-2.19-0.75-3.29c-0.12-0.56-0.17-1.13-0.29-1.68c0.36,1.7,0.15,1.72,0.06,0.17
					c-0.11-1.9,0.22-3.92,0.05-5.78c0.28,3.03-0.13,0.8,0.23-0.61c0.33-1.29,1.79-3.62,0.15-0.93c0.41-0.67,0.73-1.45,1.11-2.15
					c0.19-0.35,0.49-0.66,0.66-1.02c0.59-1.2-1.58,1.87,0.18-0.21c2.36-2.79,4.75-5.54,7.39-8.08c1.06-1.02,2.16-1.98,3.27-2.94
					c0.81-0.69,1.76-1.36,0.26-0.26c0.68-0.5,1.35-1.01,2.05-1.48c1.14-0.78,2.31-1.51,3.51-2.17c1.16-0.64,4.54-1.95,2.08-1.1
					c2.52-0.86,4.94-1.57,7.57-2.05c-3.23,0.59,0.91-0.01,1.92-0.03c1.4-0.03,2.78,0.09,4.18,0.16c2.47,0.13-0.73-0.19,0.27,0.01
					c0.65,0.13,1.3,0.22,1.94,0.35c1.52,0.3,3.02,0.69,4.5,1.12c1.49,0.44,2.96,0.94,4.42,1.49c0.81,0.3,1.61,0.63,2.41,0.95
					c-2.02-0.82,0.15,0.08,0.91,0.43c3.48,1.6,6.87,3.4,10.19,5.32c18.62,10.78,34.69,23.94,51.11,37.22
					c25.86,20.91,51.29,42.35,77.07,63.34c16.23,13.22,32.57,26.31,49.03,39.26c3.75,2.95,8.84,3.66,12.5,0
					C520.61,915.62,521.32,909.15,517.55,906.19L517.55,906.19z"/>
			</g>
		</g>
		<g>
			<path class="st2" d="M376.97,792.92C516.68,636.57,528.35,623.26,562.3,654.22c22.97,20.94,19.78,11.61-133.32,189"/>
			<g>
				<path d="M383.21,799.17c23.43-26.22,46.79-52.51,70.56-78.41c15.03-16.38,30.15-32.79,46.41-47.96
					c2.85-2.66,5.75-5.28,8.72-7.81c1.24-1.06,2.49-2.11,3.76-3.14c0.64-0.52,1.28-1.03,1.93-1.54c0.94-0.75-1.32,1-0.38,0.29
					c0.38-0.29,0.77-0.59,1.16-0.87c4.22-3.1,8.55-5.85,13.23-8.19c2.43-1.21-1.74,0.49,0.99-0.4c0.99-0.32,1.96-0.68,2.96-0.94
					c0.82-0.22,1.72-0.29,2.51-0.55c1.52-0.5-2.29,0.05-0.72,0.09c0.47,0.01,0.96-0.1,1.44-0.11c0.78-0.01,1.56,0,2.34,0.02
					c2.76,0.04-1.38-0.51,0.54,0.04c1.59,0.45,3.16,0.9,4.74,1.41c-2.54-0.82-0.87-0.38,0.37,0.25c0.85,0.43,1.67,0.9,2.48,1.4
					c0.75,0.46,1.48,0.94,2.21,1.44c0.73,0.51,3.66,2.8,1.05,0.7c2.93,2.35,5.74,4.84,8.52,7.37c1.72,1.57,3.36,3.17,4.98,4.84
					c1.89,1.97-1.16-1.95,0.47,0.64c0.21,0.33,0.36,0.79,0.61,1.09c0.93,1.1-0.97-2.53-0.31-0.68c0.13,0.36,0.27,0.8,0.29,1.18
					c0.06,0.88-0.81-2.84-0.16-0.77c0.11,0.36-0.22,1.02-0.06,1.33c-0.33-0.63,0.64-2.58,0-0.54c-0.16,0.51-0.31,1.03-0.45,1.54
					c-0.08,0.29-0.25,0.57-0.32,0.87c-0.35,1.54,1.04-1.99,0.37-0.86c-0.77,1.31-1.35,2.75-2.12,4.07
					c-2.12,3.64-4.63,7.05-7.15,10.42c-0.34,0.46-0.69,0.9-1.04,1.36c1.64-2.15,0.22-0.29-0.19,0.23c-0.97,1.23-1.94,2.45-2.93,3.67
					c-2.11,2.61-4.25,5.19-6.41,7.76c-32.88,39.13-67.41,76.92-100.93,115.5c-6.67,7.67-13.32,15.36-19.96,23.05
					c-7.4,8.57,5.05,21.13,12.5,12.5c38.33-44.4,77.65-87.95,115.77-132.52c8.25-9.64,16.74-19.36,23.7-29.99
					c3.66-5.6,7.14-12.09,6.86-18.98c-0.25-6.35-3.91-11.43-8.32-15.69c-5.58-5.4-11.55-10.85-18.21-14.87
					c-20.23-12.23-39.98-0.34-56.1,12.97c-15.12,12.48-28.69,26.87-42.1,41.12c-22.15,23.55-43.65,47.69-65.2,71.78
					c-6.98,7.8-13.95,15.6-20.92,23.4C363.16,795.13,375.62,807.68,383.21,799.17L383.21,799.17z"/>
			</g>
		</g>
		<g>
			<path class="st2" d="M588,959.8C734.9,809.42,740.55,796.59,769.46,822.01c31.9,28.05,18.36,21.54-126.76,189.97"/>
			<g>
				<path d="M594.25,966.05c39.1-40.03,77.11-81.45,117.92-119.76c5.25-4.93,10.58-9.78,16.17-14.33c1.01-0.83,2.04-1.64,3.07-2.45
					c-2.16,1.68,1.23-0.9,1.92-1.39c1.94-1.39,3.93-2.73,5.98-3.94c1.68-0.99,3.43-1.77,5.16-2.66c-1.56,0.8-1.12,0.38,0.49-0.11
					c0.77-0.24,1.55-0.44,2.33-0.66c1.61-0.46,2.39,0.14,0.01-0.1c0.67,0.07,1.45-0.13,2.14-0.13c0.58,0,1.39,0.21,1.94,0.1
					c-1.23,0.26-2.05-0.53-0.09,0.07c0.61,0.19,1.23,0.37,1.85,0.54c2.37,0.67-1.23-0.77,0.08,0c1.25,0.74,2.56,1.34,3.78,2.14
					c0.68,0.44,1.33,0.92,1.99,1.38c2.25,1.58-1.22-1.07,0.5,0.38c1.39,1.17,2.78,2.32,4.15,3.52c2.57,2.26,5.15,4.54,7.52,7.02
					c0.48,0.51,0.94,1.04,1.42,1.55c1.36,1.47,0.52,1.17,0.09,0.04c0.36,0.95,1.36,2.26,1.94,3.12c1.1,1.62-0.41-2.1-0.16-0.38
					c0.07,0.47,0.27,1.23,0.46,1.67c0.72,1.67,0.14-2.55-0.08-0.51c-0.06,0.54-0.1,1.39-0.03,1.92c0.18,1.29,0.73-2.66,0.04-0.45
					c-0.21,0.66-0.32,1.35-0.53,2.01c-0.23,0.73-0.54,1.42-0.79,2.14c0.94-2.71,0.3-0.73-0.31,0.47c-1.92,3.76-4.35,7.25-6.85,10.63
					c-0.71,0.96-2.6,3.38-1.27,1.69c-0.93,1.18-1.86,2.36-2.81,3.53c-2.08,2.57-4.2,5.1-6.34,7.61
					c-32.59,38.22-67.1,74.82-100.12,112.68c-6.48,7.43-12.93,14.88-19.36,22.34c-7.39,8.58,5.06,21.13,12.5,12.5
					c37.5-43.5,76.47-85.67,114.23-128.94c8.29-9.5,17.02-19.16,23.54-30.01c4.08-6.8,7.07-14.64,5.16-22.64
					c-1.63-6.81-6.68-12.21-11.66-16.84c-5.46-5.07-11.28-10.62-18.07-13.84c-19.41-9.21-37.45,5.69-51.5,17.87
					c-14.48,12.56-27.95,26.3-41.41,39.93c-22.23,22.52-44.17,45.31-66.24,67.99c-7.08,7.27-14.16,14.54-21.25,21.8
					C573.79,961.7,586.28,974.21,594.25,966.05L594.25,966.05z"/>
			</g>
		</g>
		<g>
			<path d="M167.14,1171.88c-8.37,4.58-38.03,35.01-31.15,52.6c6.31,16.15,89.91,63.31,94.93,65.75
				c12.65,6.15,37.93-24.87,43.83-37.39"/>
			<g>
				<path d="M162.68,1164.24c-7.36,4.21-13.67,11.18-19.03,17.62c-7.05,8.48-14.11,18.31-16.58,29.26
					c-2.06,9.13-0.31,17.22,5.77,24.23c4.97,5.73,11.31,10.38,17.35,14.9c15.52,11.62,32.1,21.85,48.72,31.79
					c6.55,3.91,13.13,7.76,19.77,11.52c3.82,2.16,7.87,4.91,12.19,5.87c11.72,2.61,23.08-7.09,30.74-14.66
					c7.99-7.9,15.83-17.31,20.77-27.48c4.95-10.19-10.29-19.16-15.26-8.92c-3.57,7.35-8.76,13.99-14.25,19.99
					c-3.14,3.44-6.49,6.88-10.22,9.7c-3.31,2.49-5.43,2.86-8.52,4.27c1.72-0.78-0.91-0.25,1.1,0.02c-1.77-0.24,0.26,0.33,0.04,0.19
					c-0.36-0.23-0.78-0.4-1.15-0.61c-1.65-0.91-3.31-1.81-4.95-2.74c-5.62-3.16-11.2-6.4-16.75-9.68
					c-14.92-8.82-29.71-17.93-43.96-27.8c-6.74-4.68-11.56-8.09-17.34-13.18c-2.04-1.8-3.88-3.73-5.78-5.67
					c-0.43-0.44-1.41-2,0.02,0.11c-0.05-0.07-0.84-1.15-0.81-1.17c-0.02,0.02-0.57-1.03-0.62-1.1c1.7,2.56,0.07,0.17-0.15-1.13
					c0.29,1.71,0.02-1.17,0.03-1.28c0.08-1.79,0.03-1.28,0.31-2.46c0.49-2.11,1.19-4.2,2-5.97c2.13-4.68,5.04-9.12,8.17-13.19
					c3.16-4.11,6.72-7.98,10.46-11.57c1.49-1.43,3.03-2.81,4.62-4.13c1.9-1.57-1.4,0.88,0.43-0.32c0.6-0.39,1.18-0.8,1.8-1.15
					C181.47,1173.85,172.58,1158.58,162.68,1164.24L162.68,1164.24z"/>
			</g>
		</g>
		<g>
			<path class="st3" d="M154.02,1242.15c-37.21,52.93-116.8,179.34-76.51,277.52C108.43,1595,200.4,1637.5,285.4,1635.21
				c85.01-2.29,163.33-40.88,232.14-86.5c220.13-145.92,443.24-402,608.37-370.69c230.1,43.63,140.51,314.03,124.96,396.03
				c-11.21,59.1,8,56.27,24.56,61.08c15.3,4.45,32.93,18.48,39.14-46.35c9.78-101.92,71.59-246.75-11.99-378.3
				c-110.23-173.49-295.75-111.26-347.22-85.35c-214.47,107.94-355.8,320.56-575.02,419.99c-135.69,61.54-218.08,2.79-234.62-35.72
				c-34.81-81.07,30.93-195.72,56.18-231.01"/>
			<g>
				<path d="M146.39,1237.69c-39.79,56.68-76.5,121.44-86.36,190.94c-5.42,38.21-1.56,77.22,17.51,111.35
					c18.37,32.87,48.27,58.38,81.51,75.42c34.88,17.88,73.96,27.59,113.11,28.65c46.01,1.24,92.12-9.31,134.74-26.12
					c83.76-33.04,157.06-88.61,227.45-143.68c68.89-53.9,135.28-110.97,204.88-163.97c31.19-23.75,63.07-46.75,96.46-67.34
					c29.01-17.89,59.34-34.31,91.62-45.51c26.58-9.23,54.57-14.95,82.81-12.69c29.08,2.34,59.18,12.39,84.09,27.5
					c43.65,26.48,66.78,71.54,74.58,120.77c7.66,48.28,2.07,98.8-6.7,146.51c-3.8,20.65-8.39,41.14-13.07,61.61
					c-5.05,22.1-12.12,45.83-10.05,68.58c1.01,11.04,4.76,21.87,14.84,27.69c6.8,3.93,14.76,4.7,22.1,7.15
					c7.07,2.36,14.4,5.15,21.94,3.08c11.32-3.1,16.75-14.58,19.84-24.92c5.31-17.75,5.58-36.64,8.35-54.86
					c2.82-18.59,6.5-37.03,10.11-55.48c7.91-40.34,15.61-80.91,17.81-122.04c2.37-44.28-2.03-89.34-17.48-131.12
					c-14.89-40.29-39.19-77.78-70.12-107.63c-46.62-44.99-108.41-67.98-172.89-67.64c-45.9,0.24-92.31,10.73-134.15,29.56
					c-32.29,14.53-62.96,33.65-92.31,53.35c-34.97,23.46-68.32,49.27-100.75,76.1c-64.94,53.71-126.19,111.73-191.33,165.21
					c-32.29,26.51-65.58,51.84-100.56,74.71c-35.94,23.49-73.98,45.53-114.05,61.2c-59.45,23.25-138.97,31.85-189.34-15.28
					c-7.26-6.79-11.9-12.22-16.27-20.93c-7.08-14.13-9.66-30.89-10.05-46.54c-0.9-36.66,10.14-73.31,24.75-106.6
					c11-25.06,24.21-49.54,40.12-71.86c6.61-9.28-8.71-18.12-15.26-8.92c-16.37,22.98-29.93,48.24-41.1,74.11
					c-14.73,34.11-26.02,70.78-26.23,108.24c-0.16,28.22,6.23,57.47,25.51,78.85c17.01,18.88,40.68,31.57,64.88,38.55
					c80.69,23.26,163.19-14.19,231.73-54.33c71.76-42.03,136.11-95.34,198.56-149.92c62.81-54.9,124.19-111.76,191.42-161.32
					c33.56-24.74,68.54-47.64,105.32-67.32c9.54-5.11,19.15-10.09,29.12-14.31c-1.73,0.73,0.88-0.36,1.39-0.57
					c0.98-0.4,1.95-0.79,2.93-1.18c2.19-0.87,4.39-1.71,6.6-2.53c4.54-1.68,9.12-3.26,13.72-4.74
					c48.4-15.58,101.27-21.32,151.23-10.01c70.79,16.01,126.68,66.96,158.95,130.95c39.84,79.01,30.36,167.66,14.28,251.47
					c-3.6,18.74-7.45,37.44-10.76,56.23c-3.24,18.36-4.75,36.87-7.59,55.26c-1.11,7.2-2.56,15.41-5.32,21.83
					c-0.51,1.19-1.11,2.36-1.77,3.47c-0.31,0.53-2.02,2.83-0.96,1.58c-0.6,0.71-1.26,1.39-1.97,2c1.43-1.22,0.02,0.07-0.78,0.34
					c2.42-0.83,0.03-0.01-0.55,0.08c-1.19,0.19,1.86,0.01-0.39,0.03c-0.75,0-1.49-0.05-2.24-0.1c2.17,0.15,0.23,0.02-0.77-0.24
					c-3.21-0.83-6.29-2.01-9.44-3.04c-3.34-1.09-6.76-1.83-10.16-2.69c-1.73-0.44-3.42-0.93-5.11-1.5c-1.62-0.54-0.62-0.24-0.6-0.23
					c-0.87-0.45-1.71-0.91-2.54-1.43c-0.89-0.55,0.72,0.73-0.79-0.68c-0.45-0.42-1.94-2.42-0.88-0.88c-1.73-2.5-1.77-2.81-2.34-5.08
					c-1.59-6.37-1.41-13-0.89-19.65c1.57-19.87,7.12-39.55,11.52-58.94c10.31-45.37,19.28-91.32,21.23-137.91
					c2.08-49.62-3.84-102.3-30.16-145.5c-30.23-49.63-85.25-77.87-141.87-84.99c-61.34-7.71-122.4,19.94-174.14,49.94
					c-69.54,40.33-132.59,91.47-194.9,141.95c-67.9,55-134.92,111.35-206.46,161.63c-74.13,52.09-157.3,100.24-250.02,104.77
					c-72.61,3.54-155.93-24.92-195.74-89.31c-41.04-66.37-14.53-149.17,18.32-213.04c13.8-26.83,29.82-52.48,47.15-77.16
					C168.21,1237.28,152.89,1228.44,146.39,1237.69L146.39,1237.69z"/>
			</g>
		</g>
		<g>
			<path class="st4" d="M397.59,1014.64c-33.3,8.8-66.6,17.6-99.91,26.4c15.07,12.87,30.13,25.75,45.2,38.62
				c-26.55,28.88-53.1,57.76-79.65,86.64c47.23-23.4,94.45-46.79,141.68-70.19c-14.08-11.48-28.15-22.97-42.23-34.45
				c13.83-15.8,27.65-31.61,41.48-47.41"/>
			<g>
				<path class="st5" d="M395.24,1006.12c-33.3,8.8-66.6,17.6-99.91,26.4c-6.07,1.61-9.03,10.38-3.9,14.77
					c15.07,12.87,30.13,25.75,45.2,38.62c0-4.17,0-8.33,0-12.5c-26.55,28.88-53.1,57.76-79.65,86.64
					c-6.92,7.53,1.72,18.33,10.71,13.88c47.23-23.4,94.45-46.79,141.68-70.19c4.77-2.36,6.05-10.4,1.79-13.88
					c-14.08-11.48-28.15-22.97-42.23-34.45c0,4.17,0,8.33,0,12.5c13.83-15.8,27.65-31.61,41.48-47.41
					c7.46-8.53-4.99-21.08-12.5-12.5c-13.83,15.8-27.65,31.61-41.48,47.41c-2.9,3.31-3.9,9.32,0,12.5
					c14.08,11.48,28.15,22.97,42.23,34.45c0.6-4.63,1.19-9.25,1.79-13.88c-47.23,23.4-94.45,46.79-141.68,70.19
					c3.57,4.63,7.14,9.25,10.71,13.88c26.55-28.88,53.1-57.76,79.65-86.64c3.04-3.31,3.76-9.29,0-12.5
					c-15.07-12.87-30.13-25.75-45.2-38.62c-1.3,4.92-2.6,9.85-3.9,14.77c33.3-8.8,66.6-17.6,99.91-26.4
					C410.92,1020.26,406.26,1003.2,395.24,1006.12L395.24,1006.12z"/>
			</g>
		</g>
		<g class="st6">
			<path d="M533.22,648.11C460.28,725.69,454,762.29,428.51,829.96c-33.09-25.96-48.78-28.14-42.08-36.19
				c42.6-51.15,88.89-98.33,146.13-154.16"/>
			<g>
				<path d="M526.98,641.86c-22.54,24.03-44.08,49.43-61.15,77.71c-12.62,20.92-22.12,43.39-30.58,66.26
					c-5.14,13.91-10.05,27.9-15.27,41.78c4.92-1.3,9.85-2.6,14.77-3.9c-12.57-9.8-25.97-18.03-39.05-27.07
					c-0.52-0.36-2.69-2.08-0.93-0.61c-0.55-0.46-1.07-1.02-1.64-1.44c-1.67-1.23,0.49,0.95,0.02,0.11c-0.21-0.37,0.62,2.49,0.6,2.19
					c0.04,0.72-0.68,2.9-0.49,2.43c0.61-1.49-1.79,2-0.05,0.05c0.74-0.83,1.42-1.7,2.13-2.55c3.21-3.82,6.44-7.63,9.69-11.42
					c25.92-30.18,53.24-59.12,81.18-87.43c17.34-17.56,34.92-34.89,52.59-52.13c8.16-7.96-4.35-20.45-12.5-12.5
					c-32.31,31.52-64.35,63.33-95.1,96.38c-14.11,15.16-27.93,30.58-41.37,46.34c-7.53,8.82-20.56,20.25-8.83,31.37
					c4.46,4.23,10.14,7.31,15.29,10.6c8.91,5.69,17.63,11.66,25.97,18.16c5.45,4.25,12.26,2.77,14.77-3.9
					c8.41-22.36,15.89-45.55,25.31-67.26c10.14-23.36,23.11-45.18,38.43-65.51c11.93-15.84,25.15-30.72,38.71-45.18
					C547.25,646.07,534.78,633.54,526.98,641.86L526.98,641.86z"/>
			</g>
		</g>
		<g class="st6">
			<path d="M749.19,816.02c-68.74,49.66-88.01,137.37-106.49,195.96c3.08-12.06-49.25-28.08-45.91-49.27
				c1.18-7.54,35.8-49.03,141.83-141.66"/>
			<g>
				<path d="M744.73,808.39c-52.38,38.18-78.56,97.68-97.33,157.79c-4.51,14.45-8.68,29.01-13.23,43.45
					c5.68,1.57,11.36,3.13,17.04,4.7c1.93-9.61-5.21-15.97-12.2-21.17c-7.36-5.46-15.92-10.26-22.9-15.59
					c-1.32-1.01-3.27-2.65-4.75-4.04c-0.79-0.74-1.55-1.49-2.29-2.29c-0.32-0.35-2.18-2.7-1.37-1.56c-0.55-0.77-1.04-1.58-1.5-2.41
					c-0.98-1.77,0.08,0.27-0.46-1.06c-0.13-0.33-0.2-0.73-0.28-1.08c-0.28-1.32,0.21,1.5,0.02,0.17c-0.19-1.29,0.69-2.83-0.15-0.41
					c0.89-2.53-1.2,1.71-0.02-0.11c0.66-1.02,1.21-2.13,1.88-3.15c0.94-1.43,1.97-2.8,2.98-4.18c1.24-1.69-1.12,1.37,0.75-0.97
					c0.77-0.96,1.55-1.93,2.34-2.88c3.86-4.67,7.9-9.19,12-13.65c13.18-14.3,27.06-27.96,41.11-41.39
					c25.55-24.42,51.88-48.02,78.48-71.27c8.58-7.5-3.96-19.96-12.5-12.5c-40,34.96-80.04,70.43-116.4,109.23
					c-7.99,8.52-15.97,17.24-22.73,26.79c-6.19,8.74-7.35,18.29-0.78,27.77c6.65,9.6,17.02,16.08,26.63,22.36
					c2.21,1.44,4.42,2.88,6.61,4.35c1.01,0.69,2.02,1.38,3.01,2.09c0.46,0.33,2.72,2.08,1.57,1.15c0.78,0.63,1.55,1.27,2.28,1.96
					c0.36,0.34,2.22,2.42,1.51,1.48c-0.88-1.17,0.01-0.02-0.01,0.03c0.09,0.15,0.19,0.3,0.28,0.46c0.33,0.65,0.33,0.6-0.02-0.15
					c-0.13,0.17-0.25-1.19-0.13-0.16c-0.3-2.55-0.51,0.03,0.01-2.53c-2.23,11.09,13.6,15.64,17.04,4.7
					c16.78-53.34,30.56-109.01,65.3-154.19c10.58-13.76,23.1-26.26,37.13-36.49c3.85-2.81,5.75-7.68,3.17-12.09
					C754.6,807.76,748.61,805.56,744.73,808.39L744.73,808.39z"/>
			</g>
		</g>
		<g class="st6">
			<path d="M294.77,771.55c87.08,150.18,232.07,270.73,400.87,333.28c-90.37,46.62-415.8-233.99-427.13-296.74
				c-3.34-18.52,8.11-26.17,27.8-42.16"/>
			<g>
				<path d="M287.14,776.01c34.77,59.82,78.22,114.58,127.99,162.61c50.57,48.8,107.74,90.92,169.26,124.88
					c34.98,19.31,71.44,35.93,108.89,49.85c-0.7-5.38-1.41-10.77-2.11-16.15c-0.46,0.23-1.2,0.79-1.71,0.83
					c-1.08,0.08,1.88-0.62-0.1,0.04c-1.32,0.44-2.61,0.94-3.95,1.32c-1.29,0.37-2.6,0.68-3.92,0.95c-0.68,0.14-1.36,0.23-2.04,0.37
					c-1.86,0.39,1.85-0.13-0.53,0.08c-6.42,0.55-12.67,0.36-19.08-0.31c-1.35-0.14,1.66,0.29-0.79-0.11
					c-0.85-0.14-1.71-0.27-2.56-0.41c-1.86-0.32-3.72-0.68-5.57-1.07c-3.79-0.81-7.56-1.77-11.29-2.84
					c-8.24-2.36-16.32-5.25-24.26-8.46c-4-1.62-6.68-2.77-11.55-4.98c-4.47-2.03-8.91-4.15-13.31-6.34
					c-9.36-4.65-18.56-9.62-27.63-14.8c-19.64-11.21-38.71-23.42-57.35-36.22c-39.14-26.87-76.29-56.15-112.02-87.46
					c-30.57-26.79-60.42-54.89-86.85-85.82c-2.57-3.01-5.1-6.05-7.58-9.14c-1.13-1.41-2.25-2.82-3.35-4.24
					c-0.77-0.99,0.93,1.22,0.18,0.23c-0.2-0.26-0.39-0.51-0.59-0.77c-0.64-0.85-1.28-1.69-1.91-2.54c-3.66-4.94-7.17-10-10.27-15.31
					c-1.23-2.1-2.4-4.24-3.45-6.44c-0.24-0.5-0.45-1.01-0.7-1.5c-0.94-1.88,0.57,1.58,0.11,0.3c-0.37-1.03-0.8-2.03-1.13-3.08
					c-2.73-8.51-0.52-14.94,5.67-21.24c5.79-5.88,12.5-10.87,18.9-16.05c3.71-3.01,3.13-9.37,0-12.5c-3.67-3.67-8.78-3.02-12.5,0
					c-11.56,9.37-27.09,19.5-30.2,35.23c-1.55,7.83-0.48,15.74,2.52,23.04c5.03,12.24,12.99,23,21.08,33.37
					c24.18,31.04,52.94,58.7,82.02,85.08c36.67,33.26,75.31,64.47,115.61,93.22c36.76,26.22,75.26,51.09,116.61,69.48
					c16.34,7.27,33.26,13.83,50.87,17.28c13.78,2.71,28.63,3.97,42.28-0.16c3.18-0.96,6.3-2.26,9.26-3.76
					c7.36-3.74,4.46-13.71-2.11-16.15c-64.68-24.04-126.05-56.84-182.23-96.89c-55.43-39.51-105.7-86.42-148.81-139.1
					c-23.96-29.29-45.53-60.51-64.55-93.23C296.69,757.26,281.41,766.15,287.14,776.01L287.14,776.01z"/>
			</g>
		</g>
		<g class="st6">
			<path d="M280.1,858.35c-57.16,57.29-98.54,146.06-86.21,225c12.32,78.95,78.11,146.49,150.79,188.68
				c-89.35-35.19-204-103.41-212.47-170.98c-10.3-82.18,75.06-176.01,144.64-245.92"/>
			<g>
				<path d="M273.85,852.1c-47.4,47.76-82.01,111.56-89.63,178.9c-3.66,32.35,0.35,65.22,12.45,95.48
					c12.29,30.71,31.12,58.24,53.61,82.39c26.06,28,56.93,51.56,89.93,70.79c2.27-5.38,4.54-10.77,6.81-16.15
					c-35.68-14.1-70.33-31.22-102.98-51.37c-30.17-18.62-60.21-40.24-82.36-68.29c-8.42-10.66-15.56-22.61-19.05-35.56
					c-3.68-13.66-3.04-29.67-0.11-44.33c7.36-36.79,27.63-70.04,49.51-99.95c27.02-36.94,58.85-70.22,91.07-102.62
					c8.03-8.07-4.46-20.58-12.5-12.5c-30.24,30.4-59.77,61.62-85.93,95.67c-24.22,31.53-46.75,66.51-57.02,105.34
					c-4.48,16.94-6.42,34.74-4.15,52.17c1.95,15,8.09,29.04,16.37,41.62c20.24,30.71,50.44,54.34,80.76,74.46
					c38.03,25.23,79.29,45.66,121.69,62.42c9.48,3.74,15.25-11.23,6.81-16.15c-53.98-31.47-104.17-75.74-131.22-133.05
					c-12.91-27.35-18.67-57.15-17.1-87.33c1.63-31.35,10.6-62.39,23.83-90.76c15.31-32.82,36.19-62.95,61.7-88.66
					C294.37,856.52,281.88,844.01,273.85,852.1L273.85,852.1z"/>
			</g>
		</g>
		<g class="st6">
			<g>
				<path d="M147.82,1242.29c-41.23,60.49-83.51,124.89-86.6,200.42c-1.44,35.17,6.34,71.53,25.15,101.56
					c17.85,28.51,44.72,50.87,74.86,65.47c69.11,33.47,148.24,28.33,220.04,6.42c59.3-18.09,115.24-46.25,167.32-79.65
					c51.95-33.33,100.48-71.71,148.22-110.73c23.45-19.16,46.72-38.53,70.2-57.66c11.83-9.64,23.72-19.22,35.7-28.67
					c12.53-9.88,20.74-16.23,34.01-26.14c48.24-36,98.92-69.13,153.58-94.61c6.09-2.84,14.95-6.78,19.53-8.7
					c4.6-1.93,13.65-5.51,20-7.89c16.29-6.09,32.86-11.55,49.76-15.67c34.35-8.36,69.76-10.41,103.18,3.22
					c1.9,0.77,0.2,0.1-0.15-0.06c0.81,0.36,1.61,0.72,2.41,1.1c1.6,0.74,3.18,1.52,4.75,2.32c3.39,1.73,6.71,3.59,9.96,5.58
					c3.24,1.98,6.4,4.09,9.48,6.32c0.74,0.53,3.74,2.8,3.11,2.31c-1.29-1.02,0.95,0.79,0.96,0.8c0.89,0.75,1.8,1.49,2.69,2.25
					c5.78,4.93,11.22,10.28,16.29,15.94c5.86,6.55,7.43,8.55,12.35,15.8c18.14,26.76,27.82,55.12,31.07,87.65
					c7.8,77.87-18.53,152.11-29.36,228.68c-2.84,20.06-4.88,40.18-5.1,60.45c-0.1,9.55,8.2,17.68,17.68,17.68
					c9.67,0,17.57-8.09,17.68-17.68c0.83-78.54,28.89-153.91,34.79-232.39c2.83-37.68,0.53-76.97-11.89-112.91
					c-10.4-30.1-27.29-58.18-50.11-80.52c-23.51-23.02-53.55-39.97-86.15-45.61c-39.49-6.83-79.52-0.15-117.36,11.85
					c-58.65,18.59-113.93,47.05-165.44,80.47c-51.57,33.46-99.8,71.8-147.32,110.69c-23.43,19.18-46.71,38.55-70.2,57.65
					c-11.84,9.62-23.73,19.18-35.73,28.61c-2.76,2.17-5.53,4.34-8.31,6.49c-0.54,0.42-3.92,3.04-1.98,1.54
					c-1.62,1.25-3.25,2.5-4.87,3.74c-6.03,4.62-12.1,9.2-18.19,13.73c-48.28,35.87-99.05,68.8-153.8,93.97
					c-3.18,1.46-6.37,2.9-9.58,4.31c-1.6,0.71-3.22,1.4-4.82,2.1c-0.38,0.17-3.11,1.32-0.62,0.27c-1.08,0.45-2.16,0.9-3.24,1.35
					c-6.79,2.8-13.63,5.47-20.52,8.01c-16.31,6.01-32.89,11.32-49.73,15.63c-36.59,9.36-73.4,13.57-111.36,9.15
					c-31.14-3.63-60.12-14.35-85.91-32.08c-5.96-4.09-9.47-6.85-15.67-12.6c-2.87-2.67-5.65-5.44-8.32-8.32
					c-2.13-2.31-5.78-6.58-6.78-7.85c-9.08-11.67-16.47-26.47-20.76-40.77c-9.11-30.35-7.97-62.33,0-92.93
					c9.05-34.74,25.87-65.73,45.12-96.33c9.78-15.55,20.12-30.74,30.47-45.92c5.38-7.89,1.49-19.6-6.34-24.18
					C163.26,1230.84,153.21,1234.38,147.82,1242.29L147.82,1242.29z"/>
			</g>
		</g>
		<g class="st7">
			<g>
				<path class="st8" d="M546.45,1094.33c-25.64,19.46-47.33,42.83-70.26,65.27c-5.5,5.39-11.1,10.68-16.86,15.79
					c-2.64,2.34-5.32,4.64-8.04,6.88c-1.26,1.03-2.52,2.05-3.8,3.06c-0.11,0.09-2.23,1.74-0.78,0.62c1.61-1.24-1.81,1.35-2.12,1.58
					c-11.43,8.45-23.61,15.83-36.59,21.63c-0.15,0.07-2.64,1.09-0.89,0.39c1.88-0.76-2.54,0.97-2.43,0.93
					c-1.78,0.67-3.57,1.31-5.37,1.91c-3.87,1.29-7.79,2.42-11.75,3.34c-1.86,0.43-3.72,0.83-5.59,1.18
					c-1.03,0.19-5.87,0.91-2.59,0.5c-4.39,0.55-8.79,0.81-13.21,0.88c-9.24,0.14-18.11,8.03-17.68,17.68
					c0.42,9.45,7.77,17.83,17.68,17.68c31.78-0.5,62.11-12.28,88.25-29.91c26.6-17.94,48.68-41.06,71.22-63.65
					c6.47-6.49,13.02-12.92,19.77-19.12c3.27-3,6.59-5.96,9.97-8.83c1.58-1.35,3.18-2.67,4.79-3.99c0.92-0.75,1.85-1.49,2.78-2.23
					c2.57-2.04-3.19,2.4,1.37-1.06c7.34-5.57,11.94-15.49,6.34-24.18C565.96,1093.41,554.33,1088.35,546.45,1094.33L546.45,1094.33z
					"/>
			</g>
		</g>
		<g class="st7">
			<g>
				<path class="st8" d="M490.89,951.99c43.99,34.63,87.98,69.25,131.97,103.88c7.25,5.71,18.02,7.6,25,0c5.84-6.37,7.76-18.89,0-25
					c-43.99-34.63-87.98-69.25-131.97-103.88c-7.25-5.71-18.02-7.6-25,0C485.04,933.36,483.13,945.89,490.89,951.99L490.89,951.99z"
					/>
			</g>
		</g>
		<g class="st7">
			<g>
				<path class="st8" d="M741.87,836.46c-8.73,10.54-17.45,21.07-26.18,31.61c-5.89,7.11-7.48,18.13,0,25c6.51,5.98,18.7,7.6,25,0
					c8.73-10.54,17.45-21.07,26.18-31.61c5.89-7.11,7.48-18.13,0-25C760.36,830.48,748.17,828.85,741.87,836.46L741.87,836.46z"/>
			</g>
		</g>
		<g class="st7">
			<g>
				<path class="st8" d="M530.53,666.49c-5.79,6.89-11.58,13.78-17.38,20.66c-5.94,7.07-7.45,18.16,0,25c6.55,6.02,18.64,7.56,25,0
					c5.79-6.89,11.58-13.78,17.38-20.66c5.94-7.07,7.45-18.16,0-25C548.97,660.47,536.88,658.93,530.53,666.49L530.53,666.49z"/>
			</g>
		</g>
		<g class="st7">
			<g>
				<path class="st8" d="M1090.97,1101.14c-58.41,6.11-112.82,30.47-162.82,60.28c-60.36,35.99-115.8,80.03-169.71,124.92
					c-33.7,28.06-66.82,56.81-99.91,85.59c-7,6.09-6.7,18.85,0,25c7.46,6.85,17.53,6.49,25,0c29.03-25.25,58.09-50.48,87.54-75.24
					c13.88-11.67,27.85-23.24,41.95-34.63c7.1-5.74,14.24-11.44,21.42-17.08c3.3-2.59,6.61-5.18,9.93-7.75
					c-0.31,0.24-1.63,1.26-0.04,0.03c0.94-0.72,1.88-1.45,2.83-2.17c1.88-1.44,3.76-2.87,5.64-4.3c26.2-19.9,53.05-39,80.99-56.4
					c13-8.09,26.24-15.81,39.76-22.98c6.36-3.37,12.79-6.63,19.28-9.74c3.07-1.47,6.15-2.91,9.25-4.31
					c1.53-0.69,3.07-1.38,4.61-2.05c0.84-0.37,6.93-2.92,3-1.31c13.79-5.66,27.79-10.75,42.17-14.72c6.96-1.92,13.99-3.6,21.08-5
					c3.37-0.66,6.75-1.26,10.14-1.78c0.84-0.13,1.69-0.25,2.53-0.38c3.39-0.53-2.56,0.24-0.28,0.03c1.89-0.17,3.77-0.45,5.66-0.65
					c9.17-0.96,18.13-7.44,17.68-17.68C1108.25,1110.06,1100.82,1100.1,1090.97,1101.14L1090.97,1101.14z"/>
			</g>
		</g>
	</g>
	<g>
		<g id="Ebene_2_Kopie">
			<g>
				<path class="st9" d="M1166.91,768.3c54.66,1.62,221.07,7.13,237.61-13.03c26.87-32.75,68.41-387.75,41.12-410.25
					c-57.18-47.16-738.58-86.4-799.12-30.76c-54.58,50.18,19.8,382.01,40.68,402.03c31.56,30.26,143.41,14.9,195.52,31.94
					c23.23,7.6,126.53,113.23,152.37,112.03c14.66-0.68,100.24-55.64,130.09-91.86"/>
				<g>
					<path class="st10" d="M1166.91,771.75c53.65,1.59,107.48,3.18,161.13,0.8c12.9-0.57,25.82-1.4,38.62-2.89
						c9.5-1.1,19.22-2.38,28.25-5.27c5.55-1.77,10.86-4.11,13.97-8.65c2.37-3.47,3.95-7.41,5.39-11.24
						c4.77-12.58,7.8-25.69,10.67-38.68c4.12-18.62,7.49-37.37,10.55-56.13c7.37-45.27,12.97-90.76,17.14-136.33
						c3.68-40.11,6.75-80.51,5.73-120.77c-0.32-12.47-0.77-25.25-3.75-37.49c-0.85-3.49-1.94-7.21-4.14-10.26
						c-1.93-2.67-5.02-4.55-8.05-6.18c-8.73-4.72-18.85-7.67-28.61-10.3c-14.45-3.9-29.24-6.88-44.05-9.54
						c-41.36-7.45-83.31-12.44-125.24-16.74c-51.36-5.27-102.9-9.19-154.5-12.17c-53.56-3.1-107.2-5.19-160.87-6
						c-47.94-0.73-95.97-0.54-143.86,1.8c-34.73,1.7-70.23,3.93-104.09,11.28c-10.32,2.24-21.04,4.99-30.16,9.87
						c-9.54,5.11-14.9,13.38-18.56,22.4c-5.86,14.43-7.68,30.15-8.74,45.34c-1.42,20.25-0.88,40.59,0.4,60.84
						c2.97,46.79,10,93.42,18.91,139.61c7.27,37.74,15.5,75.61,27.39,112.48c3.02,9.37,5.91,19.58,11.45,28.14
						c3.57,5.5,10.33,9.38,16.64,12.17c11.68,5.16,24.74,7.65,37.61,9.37c31.92,4.26,64.35,4.05,96.47,6.44
						c14.23,1.06,28.61,2.5,42.36,6.02c4.68,1.2,6.44,1.57,10.11,3.61c2.9,1.61,5.4,3.34,8.01,5.22
						c18.33,13.19,34.9,28.31,51.83,42.82c18.64,15.99,37.23,32.25,57.54,46.66c6.91,4.9,14.15,9.99,22.25,13.34
						c6.17,2.54,11.24,3.01,17.55,0.65c9.41-3.5,18.09-8.63,26.51-13.63c12.58-7.47,24.73-15.49,36.57-23.84
						c22.84-16.09,45.94-33.49,63.23-54.32c2.99-3.6-3.88-7.04-6.84-3.48c-8.35,10.07-18.46,19.05-28.76,27.61
						c-11.65,9.69-23.9,18.84-36.5,27.6c-11.37,7.9-23.06,15.49-35.18,22.52c-7.45,4.31-16.24,9.69-24.25,11.96
						c-0.51,0.14-1.02,0.26-1.53,0.39c-1.37,0.33,0.25,0.05-0.71,0.09c-0.46,0.02-0.93-0.02-1.38-0.06c1.07,0.1-1.02-0.23-1.42-0.33
						c-2.84-0.71-5.25-1.88-8.17-3.41c-8.25-4.33-15.73-9.77-23-15.24c-20.14-15.13-38.93-31.61-57.86-47.85
						c-15.7-13.47-31.16-27.69-48.68-39.4c-6.77-4.53-13.66-6.86-21.99-8.67c-13.96-3.04-28.41-4.36-42.73-5.36
						c-31.62-2.2-63.7-1.87-95.04-6.5c-12.14-1.79-24.78-4.26-35.47-9.81c-2.05-1.06-4.03-2.22-5.83-3.58
						c-0.99-0.74-1.89-1.55-2.81-2.35c-0.21-0.19-1.34-1.46-0.34-0.27c-0.86-1.02-1.56-2.13-2.21-3.27
						c-1.87-3.27-3.38-7.03-5.05-11.4c-2.24-5.87-4.2-11.82-6.06-17.79c-5.16-16.57-9.51-33.34-13.54-50.14
						c-10.52-43.88-18.83-88.22-24.77-132.74c-5.59-41.92-9.97-84.72-6.59-126.94c1.15-14.33,3.1-29.13,9.08-42.63
						c1.8-4.06,4.95-9.21,8.14-12.18c0.55-0.52,1.14-1.02,1.75-1.49c0.28-0.21,0.56-0.42,0.85-0.63c0.99-0.73-0.41,0.22,0.66-0.45
						c1.61-0.99,3.27-1.9,4.99-2.72c4.69-2.22,7.54-3.16,12.65-4.66c5.85-1.73,11.84-3.1,17.85-4.3
						c14.95-2.97,30.17-4.88,45.41-6.38c42.1-4.15,84.6-5.36,126.95-5.75c51.31-0.47,102.62,0.58,153.88,2.57
						c52.71,2.05,105.37,5.12,157.92,9.29c46.69,3.71,93.33,8.21,139.67,14.42c33.43,4.48,67.25,9.37,99.63,18.07
						c5.48,1.47,10.91,3.09,16.22,4.98c1,0.36,0.96,0.34,2.51,0.94c1.06,0.41,2.12,0.85,3.15,1.29c1.78,0.77,3.53,1.59,5.21,2.5
						c0.71,0.39,1.4,0.79,2.1,1.2c0.35,0.21,0.69,0.43,1.03,0.66c-1.08-0.72,0.06,0.04,0.3,0.23c0.48,0.38,0.95,0.75,1.41,1.15
						c0.8,0.69-0.4-0.58,0.09,0.09c0.2,0.27,0.41,0.52,0.58,0.8c0.21,0.34,1.2,2.21,0.69,1.13c0.37,0.78,0.7,1.59,0.99,2.39
						c0.72,1.99,1.25,4.03,1.7,6.08c2.52,11.42,2.96,24.47,3.19,36.79c0.36,18.34-0.24,36.69-1.18,55.01
						c-2.29,44.65-6.69,89.23-12.29,133.66c-5.07,40.21-10.93,80.47-19.73,120.21c-2.85,12.89-5.87,25.89-10.56,38.38
						c-1.59,4.22-2.3,6.38-4.7,9.88c-1.03,1.5-1.65,2.08-3.15,2.91c-2.87,1.58-5.22,2.38-8.37,3.27c-9.37,2.64-19.28,3.91-29.03,4.9
						c-12.92,1.32-25.91,2.04-38.9,2.54c-29.56,1.13-59.17,1.06-88.74,0.61c-22.32-0.34-44.63-0.97-66.93-1.64
						C1161.81,764.7,1161.82,771.59,1166.91,771.75L1166.91,771.75z"/>
				</g>
			</g>
		</g>
		<g id="Ebene_8">
			<g>
				<g>
					<path class="st10" d="M1328.08,490.84c-5.23,53.26-10.47,106.51-15.7,159.77c-0.57,5.83,3.49,13.01,8.1,17.02
						c4.8,4.17,12.67,7.32,19.57,7.05c7.16-0.28,14.58-2.32,19.57-7.05c5.2-4.93,7.45-10.35,8.1-17.02
						c5.23-53.26,10.47-106.51,15.7-159.77c0.57-5.83-3.49-13.01-8.1-17.02c-4.8-4.17-12.67-7.32-19.57-7.05
						c-7.16,0.28-14.58,2.32-19.57,7.05C1330.99,478.75,1328.74,484.17,1328.08,490.84L1328.08,490.84z"/>
				</g>
			</g>
		</g>
		<g id="Ebene_7_1_">
			<g class="st11">
				<g>
					<path class="st8" d="M1224.88,354.72c16.82,2.45,33.87,3.54,50.83,5.02c4.68,0.41,9.36,0.83,14.03,1.29
						c2.28,0.23,4.55,0.45,6.83,0.7c1.14,0.12,2.28,0.25,3.42,0.37c3.75,0.41-3.17-0.4,0.65,0.08c8.89,1.09,17.76,2.34,26.51,4.07
						c4.07,0.8,8.12,1.71,12.11,2.78c1.79,0.48,3.58,0.99,5.35,1.55c0.85,0.27,1.69,0.55,2.54,0.83c3.46,1.13-2.45-1.04-0.32-0.14
						c2.99,1.27,5.95,2.49,8.72,4.11c0.59,0.34,1.17,0.82,1.79,1.11c-0.88-0.41-3.15-2.32-1.32-0.83c1.06,0.87,2.06,2.07,3.19,2.83
						c-0.62-0.42-2.46-3.12-1.17-1.27c0.32,0.46,0.64,0.93,0.97,1.38c1.92,2.63-0.76-2.79-0.35-0.83c0.21,0.99,0.96,4.61,0.43,1.23
						c-0.51-3.35-0.11-0.64-0.02,0.17c0.08,0.77,0.14,1.54,0.2,2.3c0.12,1.76,0.17,3.52,0.2,5.29c0.37,24.17-2.57,48.5-5.08,72.54
						c-3.55,34.05-7.76,68.05-12.03,102.04c-4.04,32.15-8.24,64.28-12.1,96.44c-0.4,3.33-0.79,6.66-1.19,10
						c-0.84,7.18,7.87,14.06,15.81,13.75c9.28-0.36,14.92-6.06,15.81-13.75c3.7-31.71,7.84-63.38,11.84-95.05
						c4.41-34.91,8.78-69.83,12.56-104.81c2.78-25.82,5.88-51.84,6.01-77.8c0.03-6.64,0.36-14.41-2.39-20.69
						c-6.44-14.69-23.25-21.97-39.49-26.51c-18.24-5.1-37.61-7.18-56.57-9.11c-17.58-1.79-35.24-2.9-52.8-4.78
						c-0.87-0.09-1.74-0.19-2.61-0.29c-2.64-0.29,4.16,0.52,1,0.11c-1.66-0.21-3.31-0.43-4.97-0.67
						c-8.13-1.18-17.43,1.86-19.45,9.61C1212.09,344.44,1216.15,353.45,1224.88,354.72L1224.88,354.72z"/>
				</g>
			</g>
			<g class="st11">
				<g>
					<path class="st8" d="M1328.96,727.08c0.53,3.01,1.06,6.01,1.59,9.01c7.74-5.18,15.49-10.36,23.23-15.54
						c-4.02-2.21-8.03-4.43-12.04-6.64c1.07,7.2,2.13,14.4,3.2,21.6c-1.82,1.33-3.53,2.28-5.95,2.58c-0.93,0.24-1.87,0.24-2.81-0.01
						c-1.62-0.25-1.86-0.26-0.7-0.03c-1.76-0.57-3.11-1.26-4.51-2.35c0.8,0.71,0.68,0.55-0.34-0.47c-0.94-0.85-1.6-1.86-1.97-3.03
						c2.42-5.18,4.85-10.36,7.27-15.54c0.22-0.11,3.83-1.03,1.84-0.68c1.96-0.34,3.65-0.38,5.62-0.03c-2-0.35,1.53,0.63,1.78,0.74
						c-1.8-0.73,1.25,0.83,1.49,1.05c1.27,1.1,2.05,2.57,2.57,4.04c-0.85-2.38-0.23,5.04-0.19,4.81c0.33-1.73-0.58,1.23-0.76,1.51
						c-0.51,0.59-1.03,1.18-1.54,1.77c-2.19,1.33-2.76,1.71-1.72,1.14c1.66-0.74-3.48,1.1-1.72,0.63c0.81-0.17,0.47-0.13-1,0.12
						c-0.91,0.24-1.83,0.26-2.74,0.06c-3.63-0.36-6.74-2.26-8.14-5.21c-1.33-2.79-0.02,1.41-0.52-1.69
						c-0.49-3.07-0.47,1.28-0.03-1.81c-0.02-0.83,0.22-1.59,0.72-2.29c0.64-1.15,0.77-1.42,0.38-0.81c-0.7,1.05,2.83-2.59,0.83-1.21
						c8.28,0.93,16.56,1.86,24.84,2.79c-0.86-1.14-1.72-2.29-2.59-3.43c-4.52-6.01-14.21-9.1-21.63-4.93
						c-6.9,3.87-10.52,12.38-5.68,18.82c0.86,1.14,1.72,2.29,2.59,3.43c2.78,3.69,6.52,5.98,11.55,6.57
						c5.35,0.63,9.18-0.96,13.28-3.78c8.25-5.68,9.17-17.57,3.71-24.95c-6.49-8.78-20.33-11.53-30.42-5.65
						c-9.73,5.66-14.11,17.45-7.08,26.32c6.8,8.57,19.93,11.84,30.54,6.47c6.06-3.07,9.09-9.67,7.27-15.54
						c-1.97-6.34-7.89-11.67-15.26-13.36c-7.99-1.84-15.13,0.01-21.31,4.53c-8.14,5.94-4.73,17.23,3.2,21.6
						c4.02,2.21,8.03,4.43,12.04,6.64c5.35,2.95,12.74,2.17,17.56-1.07c5.41-3.64,6.67-8.8,5.67-14.46
						c-0.53-3.01-1.06-6.01-1.59-9.01c-0.56-3.18-4.22-6.67-7.27-8.22c-3.39-1.73-8.38-2.46-12.18-1.39
						c-3.83,1.08-7.52,3.14-9.45,6.32C1328.44,719.97,1328.28,723.22,1328.96,727.08L1328.96,727.08z"/>
				</g>
			</g>
		</g>
		<g id="Ebene_2_1_">
			<g>
				<g>
					<path d="M1141.4,802.07c53.72,1.61,107.62,3.21,161.34,0.87c12.92-0.56,25.85-1.39,38.68-2.85c10.2-1.17,20.67-2.39,30.39-5.48
						c7.53-2.39,14.4-5.56,18.65-11.71c2.71-3.91,4.51-8.39,6.17-12.71c4.81-12.57,7.85-25.68,10.74-38.66
						c4.15-18.66,7.53-37.45,10.6-56.27c7.46-45.73,13.16-91.68,17.36-137.73c3.65-40.06,6.73-80.43,5.59-120.64
						c-0.36-12.83-0.95-26.01-4.14-38.58c-1.01-4-2.47-8.2-5.02-11.67c-2.71-3.69-6.86-6.35-11.12-8.6
						c-9.46-4.99-20.38-8.15-30.91-10.96c-14.59-3.88-29.49-6.84-44.43-9.5c-42.01-7.48-84.62-12.5-127.19-16.84
						c-51.32-5.24-102.82-9.15-154.38-12.13c-53.49-3.09-107.07-5.19-160.66-6.02c-47.78-0.74-95.64-0.58-143.37,1.7
						c-35.56,1.7-71.91,3.96-106.6,11.37c-11.03,2.36-22.49,5.34-32.27,10.47c-11.29,5.93-17.74,15.32-22.17,25.9
						c-6.22,14.86-8.08,31.22-9.21,46.89c-1.46,20.22-0.93,40.54,0.36,60.76c3,47.19,10.19,94.23,19.24,140.81
						c7.35,37.85,15.65,75.85,27.71,112.81c3.19,9.79,6.35,20.44,12.19,29.34c4.31,6.56,12.18,11.37,19.79,14.67
						c12.57,5.45,26.35,8.23,40.16,10.01c32.72,4.24,65.86,4.14,98.77,6.65c3.61,0.28,7.23,0.58,10.83,0.94
						c0.96,0.1,1.92,0.19,2.88,0.3c0.51,0.06,3.74,0.43,0.62,0.06c1.85,0.22,3.69,0.45,5.53,0.71c6.82,0.95,13.6,2.15,20.21,3.88
						c1.26,0.33,2.51,0.68,3.76,1.05c0.7,0.21,1.45,0.54,2.17,0.67c1.47,0.28-3.16-1.42-1.86-0.68c1.09,0.61,2.32,1.06,3.42,1.66
						c1.29,0.71,2.51,1.49,3.75,2.26c2.78,1.75-1.91-1.37,0.27,0.17c0.96,0.67,1.92,1.34,2.87,2.03
						c18.25,13.16,34.82,28.13,51.73,42.54c18.72,15.95,37.37,32.19,57.78,46.52c7.41,5.21,15.13,10.68,23.82,14.22
						c4.1,1.67,8.33,3.12,12.93,3.21c4.61,0.1,8.53-1.27,12.66-2.84c9.5-3.63,18.3-8.76,26.86-13.83
						c13.04-7.72,25.63-16.05,37.9-24.66c23.29-16.33,46.45-33.99,64.12-55.15c3.76-4.51,0.89-11.5-4.25-14.11
						c-5.99-3.05-12.45-0.82-16.22,3.7c-0.51,0.61-3.63,4.09-1.48,1.76c-0.96,1.04-1.91,2.08-2.89,3.11
						c-2.28,2.38-4.63,4.71-7.03,6.99c-5.17,4.91-10.59,9.63-16.14,14.22c-11.67,9.65-23.93,18.75-36.53,27.45
						c-1.35,0.94-2.7,1.86-4.06,2.79c-0.25,0.17-2.96,1.99-0.83,0.56c-0.8,0.54-1.61,1.07-2.41,1.6c-3.13,2.08-6.29,4.12-9.46,6.14
						c-5.53,3.51-11.13,6.94-16.85,10.23c-4.63,2.67-9.34,5.26-14.18,7.64c-1.81,0.89-3.64,1.75-5.5,2.54
						c-0.78,0.33-1.91,0.58-2.59,1.05c2.5-1.71,2.04-0.68,0.22-0.14c-0.62,0.19-1.27,0.3-1.87,0.48c-2.08,0.66,2.14-0.06,1.64-0.17
						c-0.35-0.07-1.31-0.12-1.65-0.05c3.03-0.59,2.97,0.54,1-0.01c-0.67-0.19-1.35-0.4-2.03-0.58c-2.4-0.63,2.92,1.24,0.64,0.23
						c-1.64-0.72-3.27-1.43-4.85-2.25c-3.76-1.94-7.3-4.16-10.8-6.43c-0.64-0.41-2.6-1.52,0.34,0.24c-0.55-0.32-1.06-0.72-1.57-1.07
						c-0.99-0.68-1.98-1.37-2.95-2.06c-2.26-1.6-4.5-3.23-6.71-4.88c-20.13-15.02-38.91-31.39-57.84-47.53
						c-16.3-13.91-32.38-28.44-50.58-40.5c-7.04-4.67-14.52-7.27-23.14-9.19c-14.9-3.32-30.4-4.71-45.7-5.78
						c-16.05-1.11-32.13-1.68-48.21-2.5c-7.95-0.41-15.89-0.87-23.82-1.49c-3.65-0.29-7.3-0.61-10.94-0.99
						c-0.97-0.1-1.94-0.21-2.91-0.31c-3.14-0.34,1.74,0.25-0.2-0.02c-2.02-0.29-4.06-0.52-6.09-0.8c-6.67-0.96-13.32-2.16-19.8-3.84
						c-2.82-0.73-5.54-1.64-8.32-2.5c-2.55-0.79,2.42,1.04,0.02,0.01c-0.66-0.29-1.36-0.54-2.02-0.82c-1.3-0.55-2.59-1.13-3.83-1.76
						c-1.21-0.61-2.39-1.24-3.53-1.93c-0.37-0.22-0.73-0.47-1.11-0.68c-2.04-1.16,2.03,1.64,0.29,0.19
						c-1.27-1.06-2.68-2.63-4.11-3.47c2.76,1.62,1.98,2.49,1.22,1.33c-0.14-0.22-0.32-0.43-0.47-0.65
						c-0.43-0.61-0.81-1.25-1.19-1.89c-0.41-0.71-0.77-1.43-1.16-2.15c-1.17-2.19,0.78,1.71,0.43,0.89
						c-0.21-0.5-0.46-0.98-0.68-1.46c-1.01-2.24-1.93-4.5-2.81-6.78c-2.28-5.91-4.28-11.9-6.17-17.92
						c-5.18-16.48-9.54-33.15-13.59-49.86c-5.06-20.91-9.55-41.92-13.57-62.99c-2.21-11.62-4.29-23.26-6.21-34.92
						c-0.45-2.76-0.9-5.53-1.34-8.29c-0.11-0.72-0.74-4.79-0.28-1.79c-0.27-1.76-0.54-3.53-0.81-5.29
						c-0.87-5.79-1.69-11.58-2.47-17.39c-5.63-41.81-10.05-84.51-6.61-126.61c0.35-4.26,0.8-8.51,1.38-12.74
						c0.13-0.93,0.81-4,0.03-0.33c0.21-0.99,0.32-2,0.49-2.99c0.33-1.92,0.7-3.84,1.11-5.75c1.38-6.41,3.26-12.7,5.92-18.8
						c0.15-0.34,0.36-0.68,0.48-1.03c0.05-0.14-1.4,2.72-0.7,1.46c0.35-0.64,0.66-1.3,1.02-1.94c0.67-1.22,1.4-2.41,2.2-3.58
						c0.68-1,1.45-1.93,2.19-2.9c1.3-1.72-2.32,2.3-0.37,0.43c0.44-0.43,0.87-0.87,1.33-1.29c0.54-0.49,1.11-0.94,1.69-1.4
						c0.33-0.26,0.71-0.48,1.04-0.75c0.31-0.26-3.13,1.93-1.09,0.76c1.65-0.95,3.3-1.88,5.04-2.7c0.93-0.43,1.86-0.84,2.81-1.22
						c0.55-0.22,1.09-0.43,1.64-0.65c2.69-1.08-1.59,0.55-0.83,0.3c2.41-0.81,4.81-1.63,7.26-2.34c5.89-1.71,11.91-3.07,17.96-4.26
						c7.07-1.38,14.2-2.52,21.36-3.5c1.87-0.26,3.75-0.5,5.62-0.74c0.87-0.11,1.75-0.22,2.62-0.32c0.53-0.06,1.06-0.13,1.59-0.19
						c3-0.36-2.54,0.28-0.47,0.06c4.26-0.47,8.53-0.94,12.81-1.35c42.11-4.07,84.6-5.25,126.94-5.62
						c50.96-0.43,101.93,0.62,152.83,2.6c52.79,2.05,105.54,5.12,158.18,9.28c24.51,1.94,49,4.13,73.44,6.63
						c11.65,1.19,23.32,2.39,34.93,3.82c-3.12-0.39-0.26-0.03,1.15,0.14c1.42,0.17,2.85,0.34,4.27,0.51
						c2.81,0.34,5.62,0.68,8.43,1.03c5.23,0.65,10.48,1.33,15.7,2.02c33.5,4.46,67.37,9.35,99.86,17.96
						c5.48,1.45,10.92,3.04,16.23,4.9c0.5,0.17,1,0.37,1.49,0.54c-4.48-1.45-1.87-0.7-0.82-0.29c1.08,0.42,2.15,0.84,3.21,1.29
						c1.81,0.76,3.6,1.58,5.32,2.49c0.73,0.39,1.45,0.78,2.14,1.2c0.32,0.19,0.64,0.41,0.97,0.6c1.74,1-2.8-2.11-1.18-0.79
						c0.48,0.39,1,0.8,1.51,1.17c1.84,1.31-1.87-2.88-0.54-0.58c0.32,0.56,0.65,1.18,1.02,1.71c-1.92-2.73-0.77-1.73-0.09,0.05
						c0.7,1.86,1.23,3.77,1.68,5.69c0.25,1.08,0.47,2.17,0.68,3.26c0.12,0.64,0.23,1.28,0.34,1.92c0.49,2.74-0.36-2.61-0.06-0.38
						c0.4,2.88,0.74,5.76,1.01,8.65c0.66,7.17,0.96,14.37,1.11,21.57c0.39,18.12-0.18,36.25-1.09,54.35
						c-2.24,44.7-6.64,89.34-12.26,133.81c-1.41,11.13-2.9,22.26-4.5,33.38c-0.77,5.38-1.57,10.75-2.39,16.12
						c-0.09,0.61-0.47,3.05,0,0.01c-0.09,0.57-0.17,1.14-0.27,1.71c-0.2,1.25-0.39,2.5-0.59,3.75c-0.43,2.69-0.86,5.37-1.3,8.05
						c-3.01,18.37-6.33,36.72-10.37,54.94c-2.86,12.88-5.89,25.89-10.62,38.37c-0.77,2.04-1.76,4-2.55,6.02
						c1.57-4.1,0.52-1.07-0.11,0.06c-0.4,0.71-0.85,1.38-1.29,2.07c-0.17,0.28-0.42,0.52-0.59,0.8c-0.84,1.42,2.51-2.1,0.89-1.01
						c-0.42,0.28-0.97,0.73-1.31,1.08c-0.62,0.63-2.28-0.12,1.63-1.09c-0.38,0.1-0.79,0.5-1.15,0.67c-1.27,0.61-2.53,1.16-3.82,1.73
						c-1.72,0.75,3.08-0.98,1.21-0.45c-0.43,0.12-0.86,0.29-1.3,0.43c-0.92,0.29-1.85,0.56-2.78,0.82c-4.22,1.16-8.56,1.99-12.9,2.7
						c-2.43,0.4-4.85,0.75-7.3,1.07c-0.95,0.12-5.81,0.86-1.83,0.24c-1.46,0.23-2.98,0.33-4.46,0.48
						c-13.09,1.33-26.25,2.04-39.42,2.53c-29.44,1.09-58.94,1.01-88.4,0.55c-22.34-0.34-44.68-0.99-67.03-1.66
						c-6.4-0.19-11.86,4.88-11.86,10.32C1129.54,797.5,1134.97,801.88,1141.4,802.07L1141.4,802.07z"/>
				</g>
			</g>
		</g>
		<g id="Ebene_5_1_">
			<g>
				<g>
					<path class="st8" d="M856.72,575.7c37.05,43.3,74.1,86.59,111.15,129.89c5.38,6.29,11.04,10.42,20.22,11.49
						c8.14,0.95,17.6-0.93,23.25-6.62c35.92-36.22,71.84-72.44,107.77-108.66c35.92-36.22,71.84-72.44,107.77-108.66
						c20.28-20.45,40.56-40.9,60.84-61.35c4.85-4.9,8.1-10.37,8.1-17.02c0-5.9-3.01-12.96-8.1-17.02
						c-10.37-8.29-29.04-10.18-39.14,0c-35.92,36.22-71.84,72.44-107.77,108.66c-35.92,36.22-71.84,72.44-107.77,108.66
						c-20.28,20.45-40.56,40.9-60.84,61.35c14.49,1.62,28.98,3.25,43.46,4.87c-37.05-43.3-74.1-86.59-111.15-129.89
						c-4.46-5.21-9.06-9.27-16.54-11.06c-6.63-1.59-15.44-0.87-21.32,2.43c-5.91,3.31-11.11,8.25-12.71,14.39
						C852.39,563.06,852.37,570.61,856.72,575.7L856.72,575.7z"/>
				</g>
			</g>
		</g>
		<g id="Ebene_9">
			<g class="st12">
				<path d="M640.96,321c0,193.26,246.9,421.58,415.27,538.11c-20.84,4.84-47.01-20.67-92.86-52.41
					c-64.8-44.84-46.7-50.32-82.75-62.87c-29.94-10.43-66.52-7.6-98.76-8.49c-29.71-0.82-66.88-5.39-85.91-18.43
					c-25.1-17.21-69.91-235.53-64.66-369.7"/>
				<g>
					<path d="M633.05,321c0.07,40.12,10.26,79.87,25.9,117.46c17.33,41.68,41.04,81.24,68.06,118.75
						c28.66,39.8,61.15,77.5,95.8,113.5c34.18,35.5,70.62,69.36,108.74,101.67c34.19,28.97,69.75,56.75,106.76,82.96
						c4.09,2.9,8.19,5.77,12.32,8.62c1.16-3.83,2.32-7.66,3.49-11.49c-0.56,0.12-1.12,0.22-1.68,0.32c2.1-0.38,0.32-0.02-0.18-0.01
						c-0.98,0.01-1.95,0.03-2.93-0.02c-2.25-0.1,0.73,0.27-1.52-0.21c-1.27-0.27-2.51-0.55-3.76-0.91
						c-0.65-0.19-1.29-0.41-1.93-0.62c1.42,0.49-0.06-0.02-0.41-0.17c-1.26-0.52-2.5-1.05-3.72-1.62c-2.71-1.28-5.33-2.72-7.89-4.22
						c-13.6-8-25.85-17.73-38.39-26.9c-24.54-17.96-50.57-34.48-71.28-56c-4.13-4.29-8.01-8.85-12.82-12.6
						c-6.02-4.69-12.98-7.94-20.37-10.68c-36.46-13.5-76.36-8.71-114.86-10.76c-17.55-0.94-35.31-3-52.03-7.94
						c-6.86-2.03-13.4-4.7-19.28-8.42c-0.87-0.55,0.75,0.81-0.32-0.28c-0.25-0.25-0.53-0.5-0.8-0.72c-0.86-0.74-0.47-1.25,0.27,0.36
						c-0.19-0.41-0.7-0.83-0.99-1.21c-1.44-1.86-2.63-3.87-3.74-5.9c-0.36-0.66-0.71-1.33-1.05-1.99c-0.25-0.5-1.22-2.57-0.27-0.51
						c-0.66-1.44-1.34-2.89-1.98-4.35c-3.15-7.26-5.76-14.71-8.17-22.18c-14.88-46.11-23.74-93.92-31.07-141.32
						c-8.61-55.61-14.55-111.9-14.18-168.06c0.04-6.12,0.17-12.23,0.41-18.36c0.34-8.85-15.47-8.84-15.81,0
						c-2.14,56.04,3.23,112.39,11.05,167.98c7.18,51.1,16.25,102.41,30.95,152.32c4.4,14.98,9.07,30.41,16.98,44.33
						c2.75,4.83,6.07,8.81,11.12,11.99c13.5,8.54,31.01,12.37,47.2,14.82c18.91,2.86,37.99,3.69,57.15,3.76
						c19.67,0.08,39.69-0.4,59.13,2.74c4.78,0.77,9.51,1.75,14.15,3.01c2.09,0.56,4.15,1.19,6.19,1.87
						c0.86,0.29,1.71,0.59,2.56,0.89c1.49,0.53-0.88-0.35,0.95,0.35c3.8,1.46,7.54,3.03,11.05,4.97c0.64,0.36,1.27,0.72,1.89,1.1
						c0.85,0.52,1.97,1.37,0.47,0.27c1.25,0.93,2.51,1.82,3.69,2.83c2.22,1.88,4.24,3.93,6.21,6c6.04,6.32,12.1,12.57,18.76,18.41
						c12.76,11.19,26.86,21.01,40.91,30.92c15.1,10.65,29.62,21.95,44.9,32.42c10.06,6.9,21.02,14.52,33.68,17.37
						c5.26,1.18,10.68,1.33,15.96,0.17c5.33-1.16,8.22-8.22,3.49-11.49c-36.27-25.12-71.15-51.77-104.73-79.58
						c-37.82-31.31-74.03-64.11-108.19-98.46c-34.81-34.98-67.49-71.64-96.72-110.31c-27.71-36.66-52.66-75.26-71.41-116.05
						c-16.85-36.66-29.11-75.48-31.48-114.78c-0.28-4.68-0.42-9.36-0.43-14.04C648.85,312.15,633.04,312.13,633.05,321L633.05,321z"
						/>
				</g>
			</g>
		</g>
	</g>
</g>
</svg>
