<?xml version="1.0" encoding="utf-8"?>
<!-- Generator: Adobe Adobe Illustrator 24.2.0, SVG Export Plug-In . SVG Version: 6.00 Build 0)  -->
<svg version="1.1" xmlns="http://www.w3.org/2000/svg" xmlns:xlink="http://www.w3.org/1999/xlink" x="0px" y="0px"
	 viewBox="0 0 1700.79 1700.79" style="enable-background:new 0 0 1700.79 1700.79;" xml:space="preserve">
<style type="text/css">
	.st0{fill:#7E8D9C;}
	.st1{fill:#3D4D5B;}
	.st2{fill:#D3E1EC;}
	.st3{fill:#808E9C;}
	.st4{fill:#F3C159;}
	.st5{fill:#F3C158;}
	.st6{opacity:0.2784;}
	.st7{opacity:0.0784;}
	.st8{fill:#FFFFFF;}
	.st9{fill:#C8354F;}
	.st10{fill:#C93550;}
	.st11{opacity:0.149;}
	.st12{opacity:0.0314;}
</style>
<g id="Ebene_4">
</g>
<g id="Ebene_3">
</g>
<g id="Ebene_14">
</g>
<g id="Ebene_5">
</g>
<g id="Ebene_6">
</g>
<g id="Ebene_7">
	<g>
		<g>
			<path class="st0" d="M278.36,842.07c-92.02,103.45-255.44,244.96-46.42,386.24c182.07,123.06,297.75-32.6,382.53-121.22"/>
			<g>
				<path d="M272.11,835.82c-39.33,44.17-82.14,85.99-114.14,136.1c-15,23.49-27.75,49.32-33.33,76.8
					c-5.56,27.4-3.69,55.78,6.93,81.76c13.65,33.42,38.38,60.84,66.12,83.39c32.05,26.05,68.28,48.45,108.11,60.29
					c30.67,9.11,63.04,11,94.45,4.76c28.86-5.73,56.16-18.37,80.72-34.36c48.66-31.67,87.54-75.31,126.8-117.46
					c4.29-4.61,8.6-9.2,12.95-13.75c7.86-8.22-4.62-20.74-12.5-12.5c-37.48,39.21-72.69,81.3-116.1,114.28
					c-44.94,34.14-98.93,57.1-156.28,47.82c-36.09-5.84-69.36-21.95-99.45-42.26c-30.69-20.72-60.39-45.9-79.33-78.22
					c-13.59-23.2-19.78-48.74-17.42-75.34c2.2-24.75,12.28-49.6,24.73-71.6c28.1-49.67,68.85-90.81,107.07-132.64
					c4.41-4.83,8.81-9.68,13.16-14.57C292.15,839.85,279.69,827.31,272.11,835.82L272.11,835.82z"/>
			</g>
		</g>
		<g>
			<path class="st1" d="M511.3,912.44C342.92,780.1,308.43,726.34,263.9,781.93c-51.11,63.8,372.94,384.38,427.58,332.44
				c47.2-44.86-6.67-61.43-180.87-203.22"/>
			<g>
				<path d="M517.55,906.19c-32.06-25.22-63.58-51.1-95.02-77.09c-21.4-17.69-42.69-35.68-65.22-51.94
					c-23-16.61-54.7-36.87-82.3-18.02c-9.74,6.65-21.17,17.04-23.53,29.16c-2.24,11.53,1.65,23.04,6.49,33.38
					c6.3,13.46,15.22,25.61,24.38,37.24c11.69,14.83,24.54,28.72,37.83,42.12c32.32,32.58,67.42,62.43,103.61,90.6
					c37.56,29.24,76.46,56.87,117.11,81.67c31.61,19.29,64.84,38.21,100.27,49.53c11.3,3.61,23.74,6.82,35.7,5.91
					c12.05-0.92,20.16-6.38,27.86-15.48c7.98-9.43,13.44-20.37,11.27-32.98c-2.16-12.56-11.43-23.2-20.08-31.97
					c-14.84-15.05-31.86-28-48.48-40.97c-26.67-20.8-53.6-41.25-80.19-62.15c-16.91-13.29-33.72-26.72-50.4-40.3
					c-3.7-3.01-8.88-3.62-12.5,0c-3.11,3.11-3.72,9.47,0,12.5c30.91,25.14,62.27,49.72,93.82,74.05c20.9,16.12,42.03,32,62.36,48.84
					c7.04,5.84,14,11.81,20.55,18.2c2.62,2.56,5.17,5.18,7.59,7.93c1.04,1.19,2.04,2.41,3.05,3.63c0.88,1.06-1.05-1.49,0.22,0.28
					c0.48,0.68,0.98,1.34,1.45,2.03c1.5,2.19,2.74,4.48,3.97,6.82c1.09,2.08-0.31-1.11,0-0.04c0.14,0.5,0.39,0.98,0.54,1.48
					c0.33,1.09,0.58,2.19,0.88,3.29c0.41,1.49-0.03,0.71-0.02-0.55c0,0.53,0.14,1.07,0.14,1.61c0.02,1.07-0.06,2.14-0.05,3.2
					c0.02,2.13,0.44-1.27,0.06-0.41c-0.18,0.41-0.17,0.97-0.29,1.41c-0.3,1.07-0.67,2.12-0.97,3.18c-0.54,1.9,0.77-1.49,0.16-0.34
					c-0.25,0.46-0.43,0.96-0.69,1.42c-0.63,1.16-1.26,2.3-1.98,3.41c-0.69,1.07-1.44,2.08-2.19,3.1c1.01-1.4,0.7-0.86-0.09,0.07
					c-0.53,0.63-1.06,1.26-1.6,1.88c-2.01,2.28-4.24,4.32-6.35,6.5c-1.54,1.59,1.81-0.88-0.37,0.27c-0.76,0.4-1.6,0.82-2.32,1.28
					c-1,0.63,2.43-0.75,0.71-0.3c-0.4,0.1-0.78,0.3-1.18,0.41c-1,0.28-2,0.52-3.01,0.77c-3.01,0.73,1.38,0.03-0.94,0.16
					c-1.12,0.06-2.24,0.17-3.37,0.19c-2.34,0.05-4.68-0.08-7-0.32c-0.66-0.07-1.33-0.16-1.99-0.23c0.67,0.07,1.82,0.3-0.15-0.04
					c-1.43-0.25-2.85-0.49-4.27-0.78c-6.28-1.28-12.44-3.08-18.5-5.14c-3.36-1.14-6.68-2.36-9.99-3.65
					c-1.85-0.72-3.69-1.46-5.53-2.22c-0.53-0.22-3-1.26-1.03-0.42c-1.06-0.45-2.13-0.91-3.19-1.37
					c-16.76-7.32-32.99-15.82-48.9-24.82c-38.48-21.78-75.27-46.59-110.84-72.83c-36.29-26.77-71.8-55.6-105.32-86.69
					c-14.77-13.69-29.14-27.84-42.73-42.71c-5.86-6.41-11.57-12.96-17.04-19.71c-1.33-1.63-2.63-3.28-3.94-4.94
					c-0.9-1.14,0.74,0.99-0.71-0.92c-0.68-0.89-1.35-1.78-2.02-2.67c-2.17-2.91-4.28-5.86-6.32-8.86
					c-3.7-5.46-7.18-11.08-10.17-16.96c-0.68-1.34-1.33-2.69-1.96-4.05c-0.27-0.58-0.52-1.17-0.78-1.76c0.9,2,0.23,0.58-0.17-0.47
					c-0.87-2.29-1.68-4.6-2.31-6.98c-0.29-1.09-0.52-2.19-0.75-3.29c-0.12-0.56-0.17-1.13-0.29-1.68c0.36,1.7,0.15,1.72,0.06,0.17
					c-0.11-1.9,0.22-3.92,0.05-5.78c0.28,3.03-0.13,0.8,0.23-0.61c0.33-1.29,1.79-3.62,0.15-0.93c0.41-0.67,0.73-1.45,1.11-2.15
					c0.19-0.35,0.49-0.66,0.66-1.02c0.59-1.2-1.58,1.87,0.18-0.21c2.36-2.79,4.75-5.54,7.39-8.08c1.06-1.02,2.16-1.98,3.27-2.94
					c0.81-0.69,1.76-1.36,0.26-0.26c0.68-0.5,1.35-1.01,2.05-1.48c1.14-0.78,2.31-1.51,3.51-2.17c1.16-0.64,4.54-1.95,2.08-1.1
					c2.52-0.86,4.94-1.57,7.57-2.05c-3.23,0.59,0.91-0.01,1.92-0.03c1.4-0.03,2.78,0.09,4.18,0.16c2.47,0.13-0.73-0.19,0.27,0.01
					c0.65,0.13,1.3,0.22,1.94,0.35c1.52,0.3,3.02,0.69,4.5,1.12c1.49,0.44,2.96,0.94,4.42,1.49c0.81,0.3,1.61,0.63,2.41,0.95
					c-2.02-0.82,0.15,0.08,0.91,0.43c3.48,1.6,6.87,3.4,10.19,5.32c18.62,10.78,34.69,23.94,51.11,37.22
					c25.86,20.91,51.29,42.35,77.07,63.34c16.23,13.22,32.57,26.31,49.03,39.26c3.75,2.95,8.84,3.66,12.5,0
					C520.61,915.62,521.32,909.15,517.55,906.19L517.55,906.19z"/>
			</g>
		</g>
		<g>
			<path class="st2" d="M376.97,792.92C516.68,636.57,528.35,623.26,562.3,654.22c22.97,20.94,19.78,11.61-133.32,189"/>
			<g>
				<path d="M383.21,799.17c23.43-26.22,46.79-52.51,70.56-78.41c15.03-16.38,30.15-32.79,46.41-47.96
					c2.85-2.66,5.75-5.28,8.72-7.81c1.24-1.06,2.49-2.11,3.76-3.14c0.64-0.52,1.28-1.03,1.93-1.54c0.94-0.75-1.32,1-0.38,0.29
					c0.38-0.29,0.77-0.59,1.16-0.87c4.22-3.1,8.55-5.85,13.23-8.19c2.43-1.21-1.74,0.49,0.99-0.4c0.99-0.32,1.96-0.68,2.96-0.94
					c0.82-0.22,1.72-0.29,2.51-0.55c1.52-0.5-2.29,0.05-0.72,0.09c0.47,0.01,0.96-0.1,1.44-0.11c0.78-0.01,1.56,0,2.34,0.02
					c2.76,0.04-1.38-0.51,0.54,0.04c1.59,0.45,3.16,0.9,4.74,1.41c-2.54-0.82-0.87-0.38,0.37,0.25c0.85,0.43,1.67,0.9,2.48,1.4
					c0.75,0.46,1.48,0.94,2.21,1.44c0.73,0.51,3.66,2.8,1.05,0.7c2.93,2.35,5.74,4.84,8.52,7.37c1.72,1.57,3.36,3.17,4.98,4.84
					c1.89,1.97-1.16-1.95,0.47,0.64c0.21,0.33,0.36,0.79,0.61,1.09c0.93,1.1-0.97-2.53-0.31-0.68c0.13,0.36,0.27,0.8,0.29,1.18
					c0.06,0.88-0.81-2.84-0.16-0.77c0.11,0.36-0.22,1.02-0.06,1.33c-0.33-0.63,0.64-2.58,0-0.54c-0.16,0.51-0.31,1.03-0.45,1.54
					c-0.08,0.29-0.25,0.57-0.32,0.87c-0.35,1.54,1.04-1.99,0.37-0.86c-0.77,1.31-1.35,2.75-2.12,4.07
					c-2.12,3.64-4.63,7.05-7.15,10.42c-0.34,0.46-0.69,0.9-1.04,1.36c1.64-2.15,0.22-0.29-0.19,0.23c-0.97,1.23-1.94,2.45-2.93,3.67
					c-2.11,2.61-4.25,5.19-6.41,7.76c-32.88,39.13-67.41,76.92-100.93,115.5c-6.67,7.67-13.32,15.36-19.96,23.05
					c-7.4,8.57,5.05,21.13,12.5,12.5c38.33-44.4,77.65-87.95,115.77-132.52c8.25-9.64,16.74-19.36,23.7-29.99
					c3.66-5.6,7.14-12.09,6.86-18.98c-0.25-6.35-3.91-11.43-8.32-15.69c-5.58-5.4-11.55-10.85-18.21-14.87
					c-20.23-12.23-39.98-0.34-56.1,12.97c-15.12,12.48-28.69,26.87-42.1,41.12c-22.15,23.55-43.65,47.69-65.2,71.78
					c-6.98,7.8-13.95,15.6-20.92,23.4C363.16,795.13,375.62,807.68,383.21,799.17L383.21,799.17z"/>
			</g>
		</g>
		<g>
			<path class="st2" d="M588,959.8C734.9,809.42,740.55,796.59,769.46,822.01c31.9,28.05,18.36,21.54-126.76,189.97"/>
			<g>
				<path d="M594.25,966.05c39.1-40.03,77.11-81.45,117.92-119.76c5.25-4.93,10.58-9.78,16.17-14.33c1.01-0.83,2.04-1.64,3.07-2.45
					c-2.16,1.68,1.23-0.9,1.92-1.39c1.94-1.39,3.93-2.73,5.98-3.94c1.68-0.99,3.43-1.77,5.16-2.66c-1.56,0.8-1.12,0.38,0.49-0.11
					c0.77-0.24,1.55-0.44,2.33-0.66c1.61-0.46,2.39,0.14,0.01-0.1c0.67,0.07,1.45-0.13,2.14-0.13c0.58,0,1.39,0.21,1.94,0.1
					c-1.23,0.26-2.05-0.53-0.09,0.07c0.61,0.19,1.23,0.37,1.85,0.54c2.37,0.67-1.23-0.77,0.08,0c1.25,0.74,2.56,1.34,3.78,2.14
					c0.68,0.44,1.33,0.92,1.99,1.38c2.25,1.58-1.22-1.07,0.5,0.38c1.39,1.17,2.78,2.32,4.15,3.52c2.57,2.26,5.15,4.54,7.52,7.02
					c0.48,0.51,0.94,1.04,1.42,1.55c1.36,1.47,0.52,1.17,0.09,0.04c0.36,0.95,1.36,2.26,1.94,3.12c1.1,1.62-0.41-2.1-0.16-0.38
					c0.07,0.47,0.27,1.23,0.46,1.67c0.72,1.67,0.14-2.55-0.08-0.51c-0.06,0.54-0.1,1.39-0.03,1.92c0.18,1.29,0.73-2.66,0.04-0.45
					c-0.21,0.66-0.32,1.35-0.53,2.01c-0.23,0.73-0.54,1.42-0.79,2.14c0.94-2.71,0.3-0.73-0.31,0.47c-1.92,3.76-4.35,7.25-6.85,10.63
					c-0.71,0.96-2.6,3.38-1.27,1.69c-0.93,1.18-1.86,2.36-2.81,3.53c-2.08,2.57-4.2,5.1-6.34,7.61
					c-32.59,38.22-67.1,74.82-100.12,112.68c-6.48,7.43-12.93,14.88-19.36,22.34c-7.39,8.58,5.06,21.13,12.5,12.5
					c37.5-43.5,76.47-85.67,114.23-128.94c8.29-9.5,17.02-19.16,23.54-30.01c4.08-6.8,7.07-14.64,5.16-22.64
					c-1.63-6.81-6.68-12.21-11.66-16.84c-5.46-5.07-11.28-10.62-18.07-13.84c-19.41-9.21-37.45,5.69-51.5,17.87
					c-14.48,12.56-27.95,26.3-41.41,39.93c-22.23,22.52-44.17,45.31-66.24,67.99c-7.08,7.27-14.16,14.54-21.25,21.8
					C573.79,961.7,586.28,974.21,594.25,966.05L594.25,966.05z"/>
			</g>
		</g>
		<g>
			<path d="M167.14,1171.88c-8.37,4.58-38.03,35.01-31.15,52.6c6.31,16.15,89.91,63.31,94.93,65.75
				c12.65,6.15,37.93-24.87,43.83-37.39"/>
			<g>
				<path d="M162.68,1164.24c-7.36,4.21-13.67,11.18-19.03,17.62c-7.05,8.48-14.11,18.31-16.58,29.26
					c-2.06,9.13-0.31,17.22,5.77,24.23c4.97,5.73,11.31,10.38,17.35,14.9c15.52,11.62,32.1,21.85,48.72,31.79
					c6.55,3.91,13.13,7.76,19.77,11.52c3.82,2.16,7.87,4.91,12.19,5.87c11.72,2.61,23.08-7.09,30.74-14.66
					c7.99-7.9,15.83-17.31,20.77-27.48c4.95-10.19-10.29-19.16-15.26-8.92c-3.57,7.35-8.76,13.99-14.25,19.99
					c-3.14,3.44-6.49,6.88-10.22,9.7c-3.31,2.49-5.43,2.86-8.52,4.27c1.72-0.78-0.91-0.25,1.1,0.02c-1.77-0.24,0.26,0.33,0.04,0.19
					c-0.36-0.23-0.78-0.4-1.15-0.61c-1.65-0.91-3.31-1.81-4.95-2.74c-5.62-3.16-11.2-6.4-16.75-9.68
					c-14.92-8.82-29.71-17.93-43.96-27.8c-6.74-4.68-11.56-8.09-17.34-13.18c-2.04-1.8-3.88-3.73-5.78-5.67
					c-0.43-0.44-1.41-2,0.02,0.11c-0.05-0.07-0.84-1.15-0.81-1.17c-0.02,0.02-0.57-1.03-0.62-1.1c1.7,2.56,0.07,0.17-0.15-1.13
					c0.29,1.71,0.02-1.17,0.03-1.28c0.08-1.79,0.03-1.28,0.31-2.46c0.49-2.11,1.19-4.2,2-5.97c2.13-4.68,5.04-9.12,8.17-13.19
					c3.16-4.11,6.72-7.98,10.46-11.57c1.49-1.43,3.03-2.81,4.62-4.13c1.9-1.57-1.4,0.88,0.43-0.32c0.6-0.39,1.18-0.8,1.8-1.15
					C181.47,1173.85,172.58,1158.58,162.68,1164.24L162.68,1164.24z"/>
			</g>
		</g>
		<g>
			<path class="st3" d="M154.02,1242.15c-37.21,52.93-116.8,179.34-76.51,277.52C108.43,1595,200.4,1637.5,285.4,1635.21
				c85.01-2.29,163.33-40.88,232.14-86.5c220.13-145.92,443.24-402,608.37-370.69c230.1,43.63,140.51,314.03,124.96,396.03
				c-11.21,59.1,8,56.27,24.56,61.08c15.3,4.45,32.93,18.48,39.14-46.35c9.78-101.92,71.59-246.75-11.99-378.3
				c-110.23-173.49-295.75-111.26-347.22-85.35c-214.47,107.94-355.8,320.56-575.02,419.99c-135.69,61.54-218.08,2.79-234.62-35.72
				c-34.81-81.07,30.93-195.72,56.18-231.01"/>
			<g>
				<path d="M146.39,1237.69c-39.79,56.68-76.5,121.44-86.36,190.94c-5.42,38.21-1.56,77.22,17.51,111.35
					c18.37,32.87,48.27,58.38,81.51,75.42c34.88,17.88,73.96,27.59,113.11,28.65c46.01,1.24,92.12-9.31,134.74-26.12
					c83.76-33.04,157.06-88.61,227.45-143.68c68.89-53.9,135.28-110.97,204.88-163.97c31.19-23.75,63.07-46.75,96.46-67.34
					c29.01-17.89,59.34-34.31,91.62-45.51c26.58-9.23,54.57-14.95,82.81-12.69c29.08,2.34,59.18,12.39,84.09,27.5
					c43.65,26.48,66.78,71.54,74.58,120.77c7.66,48.28,2.07,98.8-6.7,146.51c-3.8,20.65-8.39,41.14-13.07,61.61
					c-5.05,22.1-12.12,45.83-10.05,68.58c1.01,11.04,4.76,21.87,14.84,27.69c6.8,3.93,14.76,4.7,22.1,7.15
					c7.07,2.36,14.4,5.15,21.94,3.08c11.32-3.1,16.75-14.58,19.84-24.92c5.31-17.75,5.58-36.64,8.35-54.86
					c2.82-18.59,6.5-37.03,10.11-55.48c7.91-40.34,15.61-80.91,17.81-122.04c2.37-44.28-2.03-89.34-17.48-131.12
					c-14.89-40.29-39.19-77.78-70.12-107.63c-46.62-44.99-108.41-67.98-172.89-67.64c-45.9,0.24-92.31,10.73-134.15,29.56
					c-32.29,14.53-62.96,33.65-92.31,53.35c-34.97,23.46-68.32,49.27-100.75,76.1c-64.94,53.71-126.19,111.73-191.33,165.21
					c-32.29,26.51-65.58,51.84-100.56,74.71c-35.94,23.49-73.98,45.53-114.05,61.2c-59.45,23.25-138.97,31.85-189.34-15.28
					c-7.26-6.79-11.9-12.22-16.27-20.93c-7.08-14.13-9.66-30.89-10.05-46.54c-0.9-36.66,10.14-73.31,24.75-106.6
					c11-25.06,24.21-49.54,40.12-71.86c6.61-9.28-8.71-18.12-15.26-8.92c-16.37,22.98-29.93,48.24-41.1,74.11
					c-14.73,34.11-26.02,70.78-26.23,108.24c-0.16,28.22,6.23,57.47,25.51,78.85c17.01,18.88,40.68,31.57,64.88,38.55
					c80.69,23.26,163.19-14.19,231.73-54.33c71.76-42.03,136.11-95.34,198.56-149.92c62.81-54.9,124.19-111.76,191.42-161.32
					c33.56-24.74,68.54-47.64,105.32-67.32c9.54-5.11,19.15-10.09,29.12-14.31c-1.73,0.73,0.88-0.36,1.39-0.57
					c0.98-0.4,1.95-0.79,2.93-1.18c2.19-0.87,4.39-1.71,6.6-2.53c4.54-1.68,9.12-3.26,13.72-4.74
					c48.4-15.58,101.27-21.32,151.23-10.01c70.79,16.01,126.68,66.96,158.95,130.95c39.84,79.01,30.36,167.66,14.28,251.47
					c-3.6,18.74-7.45,37.44-10.76,56.23c-3.24,18.36-4.75,36.87-7.59,55.26c-1.11,7.2-2.56,15.41-5.32,21.83
					c-0.51,1.19-1.11,2.36-1.77,3.47c-0.31,0.53-2.02,2.83-0.96,1.58c-0.6,0.71-1.26,1.39-1.97,2c1.43-1.22,0.02,0.07-0.78,0.34
					c2.42-0.83,0.03-0.01-0.55,0.08c-1.19,0.19,1.86,0.01-0.39,0.03c-0.75,0-1.49-0.05-2.24-0.1c2.17,0.15,0.23,0.02-0.77-0.24
					c-3.21-0.83-6.29-2.01-9.44-3.04c-3.34-1.09-6.76-1.83-10.16-2.69c-1.73-0.44-3.42-0.93-5.11-1.5c-1.62-0.54-0.62-0.24-0.6-0.23
					c-0.87-0.45-1.71-0.91-2.54-1.43c-0.89-0.55,0.72,0.73-0.79-0.68c-0.45-0.42-1.94-2.42-0.88-0.88c-1.73-2.5-1.77-2.81-2.34-5.08
					c-1.59-6.37-1.41-13-0.89-19.65c1.57-19.87,7.12-39.55,11.52-58.94c10.31-45.37,19.28-91.32,21.23-137.91
					c2.08-49.62-3.84-102.3-30.16-145.5c-30.23-49.63-85.25-77.87-141.87-84.99c-61.34-7.71-122.4,19.94-174.14,49.94
					c-69.54,40.33-132.59,91.47-194.9,141.95c-67.9,55-134.92,111.35-206.46,161.63c-74.13,52.09-157.3,100.24-250.02,104.77
					c-72.61,3.54-155.93-24.92-195.74-89.31c-41.04-66.37-14.53-149.17,18.32-213.04c13.8-26.83,29.82-52.48,47.15-77.16
					C168.21,1237.28,152.89,1228.44,146.39,1237.69L146.39,1237.69z"/>
			</g>
		</g>
		<g>
			<path class="st4" d="M397.59,1014.64c-33.3,8.8-66.6,17.6-99.91,26.4c15.07,12.87,30.13,25.75,45.2,38.62
				c-26.55,28.88-53.1,57.76-79.65,86.64c47.23-23.4,94.45-46.79,141.68-70.19c-14.08-11.48-28.15-22.97-42.23-34.45
				c13.83-15.8,27.65-31.61,41.48-47.41"/>
			<g>
				<path class="st5" d="M395.24,1006.12c-33.3,8.8-66.6,17.6-99.91,26.4c-6.07,1.61-9.03,10.38-3.9,14.77
					c15.07,12.87,30.13,25.75,45.2,38.62c0-4.17,0-8.33,0-12.5c-26.55,28.88-53.1,57.76-79.65,86.64
					c-6.92,7.53,1.72,18.33,10.71,13.88c47.23-23.4,94.45-46.79,141.68-70.19c4.77-2.36,6.05-10.4,1.79-13.88
					c-14.08-11.48-28.15-22.97-42.23-34.45c0,4.17,0,8.33,0,12.5c13.83-15.8,27.65-31.61,41.48-47.41
					c7.46-8.53-4.99-21.08-12.5-12.5c-13.83,15.8-27.65,31.61-41.48,47.41c-2.9,3.31-3.9,9.32,0,12.5
					c14.08,11.48,28.15,22.97,42.23,34.45c0.6-4.63,1.19-9.25,1.79-13.88c-47.23,23.4-94.45,46.79-141.68,70.19
					c3.57,4.63,7.14,9.25,10.71,13.88c26.55-28.88,53.1-57.76,79.65-86.64c3.04-3.31,3.76-9.29,0-12.5
					c-15.07-12.87-30.13-25.75-45.2-38.62c-1.3,4.92-2.6,9.85-3.9,14.77c33.3-8.8,66.6-17.6,99.91-26.4
					C410.92,1020.26,406.26,1003.2,395.24,1006.12L395.24,1006.12z"/>
			</g>
		</g>
		<g class="st6">
			<path d="M533.22,648.11C460.28,725.69,454,762.29,428.51,829.96c-33.09-25.96-48.78-28.14-42.08-36.19
				c42.6-51.15,88.89-98.33,146.13-154.16"/>
			<g>
				<path d="M526.98,641.86c-22.54,24.03-44.08,49.43-61.15,77.71c-12.62,20.92-22.12,43.39-30.58,66.26
					c-5.14,13.91-10.05,27.9-15.27,41.78c4.92-1.3,9.85-2.6,14.77-3.9c-12.57-9.8-25.97-18.03-39.05-27.07
					c-0.52-0.36-2.69-2.08-0.93-0.61c-0.55-0.46-1.07-1.02-1.64-1.44c-1.67-1.23,0.49,0.95,0.02,0.11c-0.21-0.37,0.62,2.49,0.6,2.19
					c0.04,0.72-0.68,2.9-0.49,2.43c0.61-1.49-1.79,2-0.05,0.05c0.74-0.83,1.42-1.7,2.13-2.55c3.21-3.82,6.44-7.63,9.69-11.42
					c25.92-30.18,53.24-59.12,81.18-87.43c17.34-17.56,34.92-34.89,52.59-52.13c8.16-7.96-4.35-20.45-12.5-12.5
					c-32.31,31.52-64.35,63.33-95.1,96.38c-14.11,15.16-27.93,30.58-41.37,46.34c-7.53,8.82-20.56,20.25-8.83,31.37
					c4.46,4.23,10.14,7.31,15.29,10.6c8.91,5.69,17.63,11.66,25.97,18.16c5.45,4.25,12.26,2.77,14.77-3.9
					c8.41-22.36,15.89-45.55,25.31-67.26c10.14-23.36,23.11-45.18,38.43-65.51c11.93-15.84,25.15-30.72,38.71-45.18
					C547.25,646.07,534.78,633.54,526.98,641.86L526.98,641.86z"/>
			</g>
		</g>
		<g class="st6">
			<path d="M749.19,816.02c-68.74,49.66-88.01,137.37-106.49,195.96c3.08-12.06-49.25-28.08-45.91-49.27
				c1.18-7.54,35.8-49.03,141.83-141.66"/>
			<g>
				<path d="M744.73,808.39c-52.38,38.18-78.56,97.68-97.33,157.79c-4.51,14.45-8.68,29.01-13.23,43.45
					c5.68,1.57,11.36,3.13,17.04,4.7c1.93-9.61-5.21-15.97-12.2-21.17c-7.36-5.46-15.92-10.26-22.9-15.59
					c-1.32-1.01-3.27-2.65-4.75-4.04c-0.79-0.74-1.55-1.49-2.29-2.29c-0.32-0.35-2.18-2.7-1.37-1.56c-0.55-0.77-1.04-1.58-1.5-2.41
					c-0.98-1.77,0.08,0.27-0.46-1.06c-0.13-0.33-0.2-0.73-0.28-1.08c-0.28-1.32,0.21,1.5,0.02,0.17c-0.19-1.29,0.69-2.83-0.15-0.41
					c0.89-2.53-1.2,1.71-0.02-0.11c0.66-1.02,1.21-2.13,1.88-3.15c0.94-1.43,1.97-2.8,2.98-4.18c1.24-1.69-1.12,1.37,0.75-0.97
					c0.77-0.96,1.55-1.93,2.34-2.88c3.86-4.67,7.9-9.19,12-13.65c13.18-14.3,27.06-27.96,41.11-41.39
					c25.55-24.42,51.88-48.02,78.48-71.27c8.58-7.5-3.96-19.96-12.5-12.5c-40,34.96-80.04,70.43-116.4,109.23
					c-7.99,8.52-15.97,17.24-22.73,26.79c-6.19,8.74-7.35,18.29-0.78,27.77c6.65,9.6,17.02,16.08,26.63,22.36
					c2.21,1.44,4.42,2.88,6.61,4.35c1.01,0.69,2.02,1.38,3.01,2.09c0.46,0.33,2.72,2.08,1.57,1.15c0.78,0.63,1.55,1.27,2.28,1.96
					c0.36,0.34,2.22,2.42,1.51,1.48c-0.88-1.17,0.01-0.02-0.01,0.03c0.09,0.15,0.19,0.3,0.28,0.46c0.33,0.65,0.33,0.6-0.02-0.15
					c-0.13,0.17-0.25-1.19-0.13-0.16c-0.3-2.55-0.51,0.03,0.01-2.53c-2.23,11.09,13.6,15.64,17.04,4.7
					c16.78-53.34,30.56-109.01,65.3-154.19c10.58-13.76,23.1-26.26,37.13-36.49c3.85-2.81,5.75-7.68,3.17-12.09
					C754.6,807.76,748.61,805.56,744.73,808.39L744.73,808.39z"/>
			</g>
		</g>
		<g class="st6">
			<path d="M294.77,771.55c87.08,150.18,232.07,270.73,400.87,333.28c-90.37,46.62-415.8-233.99-427.13-296.74
				c-3.34-18.52,8.11-26.17,27.8-42.16"/>
			<g>
				<path d="M287.14,776.01c34.77,59.82,78.22,114.58,127.99,162.61c50.57,48.8,107.74,90.92,169.26,124.88
					c34.98,19.31,71.44,35.93,108.89,49.85c-0.7-5.38-1.41-10.77-2.11-16.15c-0.46,0.23-1.2,0.79-1.71,0.83
					c-1.08,0.08,1.88-0.62-0.1,0.04c-1.32,0.44-2.61,0.94-3.95,1.32c-1.29,0.37-2.6,0.68-3.92,0.95c-0.68,0.14-1.36,0.23-2.04,0.37
					c-1.86,0.39,1.85-0.13-0.53,0.08c-6.42,0.55-12.67,0.36-19.08-0.31c-1.35-0.14,1.66,0.29-0.79-0.11
					c-0.85-0.14-1.71-0.27-2.56-0.41c-1.86-0.32-3.72-0.68-5.57-1.07c-3.79-0.81-7.56-1.77-11.29-2.84
					c-8.24-2.36-16.32-5.25-24.26-8.46c-4-1.62-6.68-2.77-11.55-4.98c-4.47-2.03-8.91-4.15-13.31-6.34
					c-9.36-4.65-18.56-9.62-27.63-14.8c-19.64-11.21-38.71-23.42-57.35-36.22c-39.14-26.87-76.29-56.15-112.02-87.46
					c-30.57-26.79-60.42-54.89-86.85-85.82c-2.57-3.01-5.1-6.05-7.58-9.14c-1.13-1.41-2.25-2.82-3.35-4.24
					c-0.77-0.99,0.93,1.22,0.18,0.23c-0.2-0.26-0.39-0.51-0.59-0.77c-0.64-0.85-1.28-1.69-1.91-2.54c-3.66-4.94-7.17-10-10.27-15.31
					c-1.23-2.1-2.4-4.24-3.45-6.44c-0.24-0.5-0.45-1.01-0.7-1.5c-0.94-1.88,0.57,1.58,0.11,0.3c-0.37-1.03-0.8-2.03-1.13-3.08
					c-2.73-8.51-0.52-14.94,5.67-21.24c5.79-5.88,12.5-10.87,18.9-16.05c3.71-3.01,3.13-9.37,0-12.5c-3.67-3.67-8.78-3.02-12.5,0
					c-11.56,9.37-27.09,19.5-30.2,35.23c-1.55,7.83-0.48,15.74,2.52,23.04c5.03,12.24,12.99,23,21.08,33.37
					c24.18,31.04,52.94,58.7,82.02,85.08c36.67,33.26,75.31,64.47,115.61,93.22c36.76,26.22,75.26,51.09,116.61,69.48
					c16.34,7.27,33.26,13.83,50.87,17.28c13.78,2.71,28.63,3.97,42.28-0.16c3.18-0.96,6.3-2.26,9.26-3.76
					c7.36-3.74,4.46-13.71-2.11-16.15c-64.68-24.04-126.05-56.84-182.23-96.89c-55.43-39.51-105.7-86.42-148.81-139.1
					c-23.96-29.29-45.53-60.51-64.55-93.23C296.69,757.26,281.41,766.15,287.14,776.01L287.14,776.01z"/>
			</g>
		</g>
		<g class="st6">
			<path d="M280.1,858.35c-57.16,57.29-98.54,146.06-86.21,225c12.32,78.95,78.11,146.49,150.79,188.68
				c-89.35-35.19-204-103.41-212.47-170.98c-10.3-82.18,75.06-176.01,144.64-245.92"/>
			<g>
				<path d="M273.85,852.1c-47.4,47.76-82.01,111.56-89.63,178.9c-3.66,32.35,0.35,65.22,12.45,95.48
					c12.29,30.71,31.12,58.24,53.61,82.39c26.06,28,56.93,51.56,89.93,70.79c2.27-5.38,4.54-10.77,6.81-16.15
					c-35.68-14.1-70.33-31.22-102.98-51.37c-30.17-18.62-60.21-40.24-82.36-68.29c-8.42-10.66-15.56-22.61-19.05-35.56
					c-3.68-13.66-3.04-29.67-0.11-44.33c7.36-36.79,27.63-70.04,49.51-99.95c27.02-36.94,58.85-70.22,91.07-102.62
					c8.03-8.07-4.46-20.58-12.5-12.5c-30.24,30.4-59.77,61.62-85.93,95.67c-24.22,31.53-46.75,66.51-57.02,105.34
					c-4.48,16.94-6.42,34.74-4.15,52.17c1.95,15,8.09,29.04,16.37,41.62c20.24,30.71,50.44,54.34,80.76,74.46
					c38.03,25.23,79.29,45.66,121.69,62.42c9.48,3.74,15.25-11.23,6.81-16.15c-53.98-31.47-104.17-75.74-131.22-133.05
					c-12.91-27.35-18.67-57.15-17.1-87.33c1.63-31.35,10.6-62.39,23.83-90.76c15.31-32.82,36.19-62.95,61.7-88.66
					C294.37,856.52,281.88,844.01,273.85,852.1L273.85,852.1z"/>
			</g>
		</g>
		<g class="st6">
			<g>
				<path d="M147.82,1242.29c-41.23,60.49-83.51,124.89-86.6,200.42c-1.44,35.17,6.34,71.53,25.15,101.56
					c17.85,28.51,44.72,50.87,74.86,65.47c69.11,33.47,148.24,28.33,220.04,6.42c59.3-18.09,115.24-46.25,167.32-79.65
					c51.95-33.33,100.48-71.71,148.22-110.73c23.45-19.16,46.72-38.53,70.2-57.66c11.83-9.64,23.72-19.22,35.7-28.67
					c12.53-9.88,20.74-16.23,34.01-26.14c48.24-36,98.92-69.13,153.58-94.61c6.09-2.84,14.95-6.78,19.53-8.7
					c4.6-1.93,13.65-5.51,20-7.89c16.29-6.09,32.86-11.55,49.76-15.67c34.35-8.36,69.76-10.41,103.18,3.22
					c1.9,0.77,0.2,0.1-0.15-0.06c0.81,0.36,1.61,0.72,2.41,1.1c1.6,0.74,3.18,1.52,4.75,2.32c3.39,1.73,6.71,3.59,9.96,5.58
					c3.24,1.98,6.4,4.09,9.48,6.32c0.74,0.53,3.74,2.8,3.11,2.31c-1.29-1.02,0.95,0.79,0.96,0.8c0.89,0.75,1.8,1.49,2.69,2.25
					c5.78,4.93,11.22,10.28,16.29,15.94c5.86,6.55,7.43,8.55,12.35,15.8c18.14,26.76,27.82,55.12,31.07,87.65
					c7.8,77.87-18.53,152.11-29.36,228.68c-2.84,20.06-4.88,40.18-5.1,60.45c-0.1,9.55,8.2,17.68,17.68,17.68
					c9.67,0,17.57-8.09,17.68-17.68c0.83-78.54,28.89-153.91,34.79-232.39c2.83-37.68,0.53-76.97-11.89-112.91
					c-10.4-30.1-27.29-58.18-50.11-80.52c-23.51-23.02-53.55-39.97-86.15-45.61c-39.49-6.83-79.52-0.15-117.36,11.85
					c-58.65,18.59-113.93,47.05-165.44,80.47c-51.57,33.46-99.8,71.8-147.32,110.69c-23.43,19.18-46.71,38.55-70.2,57.65
					c-11.84,9.62-23.73,19.18-35.73,28.61c-2.76,2.17-5.53,4.34-8.31,6.49c-0.54,0.42-3.92,3.04-1.98,1.54
					c-1.62,1.25-3.25,2.5-4.87,3.74c-6.03,4.62-12.1,9.2-18.19,13.73c-48.28,35.87-99.05,68.8-153.8,93.97
					c-3.18,1.46-6.37,2.9-9.58,4.31c-1.6,0.71-3.22,1.4-4.82,2.1c-0.38,0.17-3.11,1.32-0.62,0.27c-1.08,0.45-2.16,0.9-3.24,1.35
					c-6.79,2.8-13.63,5.47-20.52,8.01c-16.31,6.01-32.89,11.32-49.73,15.63c-36.59,9.36-73.4,13.57-111.36,9.15
					c-31.14-3.63-60.12-14.35-85.91-32.08c-5.96-4.09-9.47-6.85-15.67-12.6c-2.87-2.67-5.65-5.44-8.32-8.32
					c-2.13-2.31-5.78-6.58-6.78-7.85c-9.08-11.67-16.47-26.47-20.76-40.77c-9.11-30.35-7.97-62.33,0-92.93
					c9.05-34.74,25.87-65.73,45.12-96.33c9.78-15.55,20.12-30.74,30.47-45.92c5.38-7.89,1.49-19.6-6.34-24.18
					C163.26,1230.84,153.21,1234.38,147.82,1242.29L147.82,1242.29z"/>
			</g>
		</g>
		<g class="st7">
			<g>
				<path class="st8" d="M546.45,1094.33c-25.64,19.46-47.33,42.83-70.26,65.27c-5.5,5.39-11.1,10.68-16.86,15.79
					c-2.64,2.34-5.32,4.64-8.04,6.88c-1.26,1.03-2.52,2.05-3.8,3.06c-0.11,0.09-2.23,1.74-0.78,0.62c1.61-1.24-1.81,1.35-2.12,1.58
					c-11.43,8.45-23.61,15.83-36.59,21.63c-0.15,0.07-2.64,1.09-0.89,0.39c1.88-0.76-2.54,0.97-2.43,0.93
					c-1.78,0.67-3.57,1.31-5.37,1.91c-3.87,1.29-7.79,2.42-11.75,3.34c-1.86,0.43-3.72,0.83-5.59,1.18
					c-1.03,0.19-5.87,0.91-2.59,0.5c-4.39,0.55-8.79,0.81-13.21,0.88c-9.24,0.14-18.11,8.03-17.68,17.68
					c0.42,9.45,7.77,17.83,17.68,17.68c31.78-0.5,62.11-12.28,88.25-29.91c26.6-17.94,48.68-41.06,71.22-63.65
					c6.47-6.49,13.02-12.92,19.77-19.12c3.27-3,6.59-5.96,9.97-8.83c1.58-1.35,3.18-2.67,4.79-3.99c0.92-0.75,1.85-1.49,2.78-2.23
					c2.57-2.04-3.19,2.4,1.37-1.06c7.34-5.57,11.94-15.49,6.34-24.18C565.96,1093.41,554.33,1088.35,546.45,1094.33L546.45,1094.33z
					"/>
			</g>
		</g>
		<g class="st7">
			<g>
				<path class="st8" d="M490.89,951.99c43.99,34.63,87.98,69.25,131.97,103.88c7.25,5.71,18.02,7.6,25,0c5.84-6.37,7.76-18.89,0-25
					c-43.99-34.63-87.98-69.25-131.97-103.88c-7.25-5.71-18.02-7.6-25,0C485.04,933.36,483.13,945.89,490.89,951.99L490.89,951.99z"
					/>
			</g>
		</g>
		<g class="st7">
			<g>
				<path class="st8" d="M741.87,836.46c-8.73,10.54-17.45,21.07-26.18,31.61c-5.89,7.11-7.48,18.13,0,25c6.51,5.98,18.7,7.6,25,0
					c8.73-10.54,17.45-21.07,26.18-31.61c5.89-7.11,7.48-18.13,0-25C760.36,830.48,748.17,828.85,741.87,836.46L741.87,836.46z"/>
			</g>
		</g>
		<g class="st7">
			<g>
				<path class="st8" d="M530.53,666.49c-5.79,6.89-11.58,13.78-17.38,20.66c-5.94,7.07-7.45,18.16,0,25c6.55,6.02,18.64,7.56,25,0
					c5.79-6.89,11.58-13.78,17.38-20.66c5.94-7.07,7.45-18.16,0-25C548.97,660.47,536.88,658.93,530.53,666.49L530.53,666.49z"/>
			</g>
		</g>
		<g class="st7">
			<g>
				<path class="st8" d="M1090.97,1101.14c-58.41,6.11-112.82,30.47-162.82,60.28c-60.36,35.99-115.8,80.03-169.71,124.92
					c-33.7,28.06-66.82,56.81-99.91,85.59c-7,6.09-6.7,18.85,0,25c7.46,6.85,17.53,6.49,25,0c29.03-25.25,58.09-50.48,87.54-75.24
					c13.88-11.67,27.85-23.24,41.95-34.63c7.1-5.74,14.24-11.44,21.42-17.08c3.3-2.59,6.61-5.18,9.93-7.75
					c-0.31,0.24-1.63,1.26-0.04,0.03c0.94-0.72,1.88-1.45,2.83-2.17c1.88-1.44,3.76-2.87,5.64-4.3c26.2-19.9,53.05-39,80.99-56.4
					c13-8.09,26.24-15.81,39.76-22.98c6.36-3.37,12.79-6.63,19.28-9.74c3.07-1.47,6.15-2.91,9.25-4.31
					c1.53-0.69,3.07-1.38,4.61-2.05c0.84-0.37,6.93-2.92,3-1.31c13.79-5.66,27.79-10.75,42.17-14.72c6.96-1.92,13.99-3.6,21.08-5
					c3.37-0.66,6.75-1.26,10.14-1.78c0.84-0.13,1.69-0.25,2.53-0.38c3.39-0.53-2.56,0.24-0.28,0.03c1.89-0.17,3.77-0.45,5.66-0.65
					c9.17-0.96,18.13-7.44,17.68-17.68C1108.25,1110.06,1100.82,1100.1,1090.97,1101.14L1090.97,1101.14z"/>
			</g>
		</g>
	</g>
	<g>
		<g id="Ebene_2_Kopie">
			<g>
				<path class="st9" d="M1131.66,819.89c53.04,6.5,214.45,26.95,232.55,5.65c29.39-34.6,104.99-431.07,80.66-458.76
					c-50.98-58.03-710.27-160.55-774.7-103.02c-58.09,51.87-18.57,432.14-0.23,456.49c27.72,36.8,138.1,29.06,187.13,52.72
					C878.93,783.51,969,911.38,994.26,912.23c14.33,0.49,103.07-54.12,135.71-92.37"/>
				<g>
					<path class="st10" d="M1131.32,823.77c52.06,6.38,104.29,12.78,156.74,14.68c12.62,0.46,25.26,0.63,37.88,0.05
						c9.35-0.43,18.94-1.04,28.02-3.52c5.58-1.52,10.97-3.7,14.45-8.55c2.65-3.71,4.57-8.02,6.36-12.2
						c5.89-13.77,10.13-28.28,14.22-42.67c5.85-20.63,10.99-41.46,15.83-62.35c11.66-50.38,21.61-101.16,30.19-152.15
						c7.55-44.88,14.55-90.15,17.54-135.6c0.93-14.08,1.76-28.52,0.07-42.56c-0.48-4-1.17-8.29-3.02-11.92
						c-1.61-3.17-4.44-5.55-7.22-7.66c-8.03-6.07-17.59-10.25-26.82-14.06c-13.68-5.63-27.78-10.25-41.93-14.52
						c-39.52-11.93-79.85-21.15-120.23-29.58c-49.46-10.33-99.24-19.16-149.16-26.93c-51.82-8.08-103.82-15.01-155.98-20.53
						c-46.59-4.92-93.35-8.82-140.19-10.28c-33.97-1.06-68.74-1.58-102.43,3.8c-10.26,1.64-20.97,3.82-30.34,8.54
						c-9.79,4.94-15.83,13.81-20.28,23.65c-7.13,15.76-10.46,33.32-12.99,50.34c-3.38,22.69-4.87,45.66-5.63,68.59
						c-1.75,52.97,0.48,106.12,4.57,158.92c3.34,43.14,7.59,86.52,15.52,129.09c2.01,10.82,3.82,22.57,8.36,32.68
						c2.93,6.5,9.13,11.45,14.99,15.13c10.85,6.82,23.32,10.74,35.67,13.77c30.64,7.53,62.23,10.07,93.25,15.51
						c13.75,2.41,27.6,5.27,40.63,10.4c4.44,1.75,6.11,2.32,9.48,4.93c2.66,2.06,4.92,4.23,7.28,6.57
						c16.53,16.43,31.16,34.88,46.2,52.68c16.56,19.61,33.04,39.52,51.38,57.5c6.24,6.12,12.78,12.47,20.33,16.94
						c5.75,3.39,10.65,4.35,17.02,2.24c9.5-3.14,18.46-8.18,27.15-13.09c12.98-7.34,25.61-15.34,37.95-23.73
						c23.82-16.17,48.03-33.8,66.92-55.8c3.27-3.8-3.08-8.27-6.31-4.51c-9.12,10.63-19.86,19.89-30.72,28.65
						c-12.3,9.92-25.13,19.19-38.26,27.98c-11.85,7.93-23.98,15.49-36.47,22.36c-7.68,4.22-16.77,9.53-24.79,11.4
						c-0.51,0.12-1.02,0.21-1.53,0.3c-1.36,0.25,0.24,0.08-0.7,0.04c-0.45-0.02-0.9-0.1-1.34-0.19c1.03,0.2-0.97-0.35-1.34-0.49
						c-2.69-1.04-4.92-2.56-7.61-4.54c-7.6-5.59-14.34-12.36-20.88-19.14c-18.1-18.77-34.75-38.95-51.58-58.87
						c-13.94-16.52-27.59-33.87-43.48-48.56c-6.14-5.68-12.62-8.9-20.54-11.65c-13.28-4.62-27.22-7.34-41.06-9.69
						c-30.56-5.19-61.81-7.56-91.86-15.45c-11.64-3.06-23.7-6.92-33.55-14.09c-1.89-1.37-3.7-2.85-5.32-4.53
						c-0.89-0.92-1.69-1.91-2.51-2.88c-0.19-0.23-1.16-1.76-0.3-0.33c-0.74-1.23-1.3-2.54-1.82-3.87c-1.49-3.84-2.6-8.21-3.79-13.27
						c-1.6-6.81-2.92-13.68-4.13-20.57c-3.38-19.12-5.96-38.38-8.22-57.66c-5.9-50.34-9.59-101.01-10.96-151.69
						c-1.29-47.72-1.31-96.32,6.16-143.6c2.54-16.04,5.9-32.56,13.06-47.25c2.16-4.42,5.73-9.95,9.13-13.03
						c0.59-0.54,1.21-1.05,1.85-1.53c0.29-0.22,0.59-0.42,0.89-0.63c1.03-0.74-0.42,0.21,0.69-0.45c1.66-0.98,3.37-1.86,5.12-2.63
						c4.78-2.1,7.65-2.91,12.77-4.17c5.87-1.44,11.83-2.48,17.8-3.32c14.85-2.07,29.85-2.92,44.83-3.31
						c41.39-1.07,82.87,1.2,124.13,4.38c49.98,3.85,99.82,9.44,149.51,16.06c51.09,6.82,102.05,14.78,152.78,23.98
						c45.07,8.17,90.02,17.24,134.51,28.2c32.09,7.91,64.52,16.32,95.17,28.88c5.19,2.13,10.31,4.41,15.3,7
						c0.93,0.49,0.9,0.46,2.35,1.28c0.99,0.56,1.98,1.13,2.94,1.73c1.66,1.02,3.27,2.09,4.82,3.26c0.65,0.49,1.28,1.01,1.92,1.54
						c0.32,0.26,0.63,0.55,0.94,0.83c-0.98-0.9,0.05,0.05,0.27,0.28c0.43,0.47,0.85,0.93,1.26,1.41c0.71,0.85-0.33-0.69,0.08,0.11
						c0.17,0.32,0.35,0.62,0.48,0.96c0.17,0.41,0.95,2.6,0.56,1.33c0.28,0.92,0.52,1.85,0.72,2.78c0.5,2.3,0.82,4.65,1.05,7
						c1.32,13.09,0.45,27.83-0.53,41.73c-1.46,20.7-3.87,41.32-6.6,61.89c-6.65,50.11-15.35,99.98-25.2,149.55
						c-8.92,44.88-18.61,89.74-31.11,133.77c-4.05,14.28-8.27,28.67-14.08,42.35c-1.97,4.62-2.87,6.99-5.56,10.73
						c-1.15,1.6-1.81,2.21-3.36,3.01c-2.95,1.54-5.31,2.23-8.47,2.96c-9.38,2.17-19.15,2.75-28.74,3.04
						c-12.71,0.38-25.42,0.08-38.11-0.46c-28.88-1.25-57.69-3.87-86.43-6.9c-21.69-2.29-43.34-4.91-64.98-7.57
						C1127.06,815.4,1126.38,823.16,1131.32,823.77L1131.32,823.77z"/>
				</g>
			</g>
		</g>
		<g id="Ebene_7_1_">
			<g class="st11">
				<g>
					<path class="st8" d="M1240.54,369.2c16.13,4.2,32.62,6.89,48.97,10.01c4.52,0.86,9.03,1.74,13.53,2.66
						c2.19,0.45,4.39,0.9,6.58,1.37c1.1,0.24,2.19,0.47,3.29,0.71c3.61,0.79-3.05-0.72,0.62,0.14c8.54,1.99,17.05,4.15,25.4,6.86
						c3.88,1.26,7.73,2.62,11.51,4.17c1.7,0.7,3.39,1.42,5.06,2.2c0.8,0.38,1.59,0.76,2.39,1.15c3.26,1.57-2.28-1.38-0.3-0.18
						c2.78,1.68,5.55,3.31,8.08,5.37c0.54,0.44,1.06,1.02,1.63,1.4c-0.81-0.53-2.83-2.88-1.2-1.05c0.95,1.07,1.8,2.51,2.83,3.47
						c-0.57-0.53-2.08-3.72-1.01-1.53c0.26,0.55,0.53,1.1,0.81,1.64c1.61,3.13-0.46-3.2-0.26-0.97c0.1,1.13,0.47,5.28,0.3,1.42
						c-0.17-3.82-0.04-0.73-0.04,0.19c0,0.87-0.01,1.75-0.04,2.61c-0.06,1.99-0.18,3.98-0.33,5.98c-2.03,27.27-7.3,54.43-12.13,81.3
						c-6.83,38.06-14.29,76.02-21.82,113.95c-7.12,35.88-14.39,71.72-21.33,107.64c-0.72,3.72-1.43,7.44-2.14,11.17
						c-1.53,8.02,6.26,16.52,14.03,16.85c9.07,0.38,15.12-5.55,16.75-14.15c6.74-35.41,13.9-70.74,20.94-106.09
						c7.75-38.96,15.47-77.94,22.6-117.02c5.27-28.85,10.86-57.91,13.55-87.15c0.69-7.48,1.78-16.2-0.28-23.51
						c-4.82-17.1-20.45-26.74-35.81-33.25c-17.25-7.3-35.89-11.31-54.15-15.11c-16.93-3.52-34.01-6.29-50.92-9.9
						c-0.84-0.18-1.67-0.37-2.51-0.55c-2.54-0.55,4,0.94,0.96,0.21c-1.59-0.38-3.18-0.76-4.77-1.18c-7.79-2.03-17.14,0.6-19.88,9.16
						C1229.11,356.53,1232.17,367.02,1240.54,369.2L1240.54,369.2z"/>
				</g>
			</g>
			<g class="st11">
				<g>
					<path class="st8" d="M1293.46,787.31c0.22,3.43,0.44,6.86,0.65,10.29c8.05-5.17,16.1-10.35,24.15-15.52
						c-3.69-2.84-7.37-5.68-11.06-8.52c0.33,8.21,0.65,16.41,0.98,24.62c-1.9,1.34-3.67,2.26-6.04,2.4
						c-0.93,0.19-1.85,0.11-2.73-0.25c-1.55-0.43-1.78-0.45-0.68-0.09c-1.66-0.79-2.9-1.68-4.16-3.04c0.71,0.87,0.61,0.68-0.28-0.56
						c-0.83-1.04-1.37-2.24-1.62-3.58c2.87-5.63,5.74-11.26,8.61-16.88c0.23-0.11,3.83-0.84,1.86-0.61
						c1.94-0.22,3.59-0.11,5.47,0.44c-1.91-0.57,1.43,0.84,1.66,0.98c-1.68-0.98,1.13,1.04,1.35,1.31c1.12,1.35,1.74,3.07,2.1,4.77
						c-0.6-2.75-0.72,5.66-0.66,5.41c0.49-1.92-0.68,1.34-0.89,1.64c-0.56,0.62-1.12,1.24-1.68,1.86c-2.26,1.31-2.85,1.69-1.79,1.14
						c1.69-0.69-3.49,0.94-1.73,0.56c0.81-0.12,0.47-0.11-0.99,0.05c-0.91,0.19-1.8,0.14-2.68-0.16c-3.5-0.71-6.33-3.13-7.41-6.57
						c-1.02-3.25-0.16,1.59-0.34-1.95c-0.17-3.51-0.58,1.4,0.15-2.04c0.06-0.93,0.37-1.77,0.93-2.52c0.74-1.24,0.89-1.53,0.45-0.88
						c-0.79,1.13,3.01-2.67,0.93-1.29c7.97,1.75,15.93,3.51,23.9,5.26c-0.73-1.36-1.45-2.73-2.18-4.09
						c-3.81-7.16-12.93-11.47-20.57-7.41c-7.1,3.77-11.46,13.05-7.39,20.72c0.73,1.36,1.45,2.73,2.18,4.09
						c2.34,4.39,5.75,7.29,10.59,8.39c5.14,1.16,9.03-0.29,13.3-3.13c8.59-5.7,10.67-19.01,6.08-27.8
						c-5.45-10.45-18.64-14.73-29.04-8.97c-10.03,5.55-15.47,18.46-9.5,29.05c5.77,10.24,18.22,15.04,29.08,9.9
						c6.21-2.94,9.81-10.12,8.61-16.88c-1.29-7.31-6.52-13.83-13.53-16.36c-7.6-2.75-14.72-1.29-21.19,3.28
						c-8.51,6-6.31,19.01,0.98,24.62c3.69,2.84,7.37,5.68,11.06,8.52c4.92,3.78,12.18,3.53,17.2,0.29c5.62-3.64,7.36-9.35,6.95-15.8
						c-0.22-3.43-0.44-6.86-0.65-10.29c-0.23-3.63-3.45-7.88-6.26-9.88c-3.13-2.24-7.91-3.48-11.72-2.61
						c-3.83,0.89-7.63,2.9-9.82,6.31C1293.66,779.24,1293.18,782.9,1293.46,787.31L1293.46,787.31z"/>
				</g>
			</g>
		</g>
		<g id="Ebene_2_1_">
			<g>
				<g>
					<path d="M1103.49,855.76c52.12,6.41,104.42,12.83,156.94,14.78c12.63,0.47,25.29,0.65,37.93,0.09
						c10.04-0.44,20.35-0.93,30.12-3.58c7.56-2.05,14.56-5.04,19.31-11.59c3.03-4.18,5.23-9.07,7.26-13.79
						c5.92-13.75,10.19-28.27,14.28-42.65c5.89-20.67,11.04-41.56,15.89-62.5c11.79-50.89,21.89-102.18,30.53-153.71
						c7.52-44.83,14.52-90.05,17.39-135.46c0.92-14.48,1.65-29.39-0.2-43.83c-0.59-4.6-1.6-9.45-3.73-13.58
						c-2.27-4.39-6.05-7.75-9.97-10.64c-8.72-6.43-19.02-10.93-29-14.99c-13.81-5.62-28.03-10.23-42.3-14.51
						c-40.14-12.03-81.12-21.32-122.12-29.86c-49.43-10.3-99.17-19.1-149.05-26.88c-51.75-8.06-103.69-15.01-155.77-20.53
						c-46.43-4.92-93.03-8.84-139.7-10.35c-34.77-1.13-70.38-1.69-104.88,3.69c-10.97,1.71-22.41,4.09-32.44,9.04
						c-11.58,5.71-18.78,15.75-24.14,27.29c-7.53,16.21-10.96,34.48-13.61,52.05c-3.43,22.66-4.92,45.6-5.66,68.5
						c-1.76,53.43,0.59,107.05,4.78,160.31c3.4,43.28,7.72,86.81,15.79,129.49c2.14,11.3,4.15,23.57,8.96,34.1
						c3.54,7.76,10.72,13.85,17.81,18.22c11.7,7.22,24.83,11.52,38.09,14.72c31.42,7.58,63.69,10.3,95.47,15.94
						c3.49,0.62,6.98,1.28,10.45,1.99c0.92,0.19,1.85,0.38,2.77,0.58c0.49,0.11,3.6,0.81,0.6,0.12c1.78,0.41,3.55,0.83,5.32,1.27
						c6.54,1.65,13.02,3.58,19.29,6.1c1.19,0.48,2.38,0.98,3.55,1.51c0.66,0.3,1.36,0.73,2.04,0.94c1.4,0.44-2.94-1.87-1.74-0.93
						c1,0.78,2.16,1.39,3.17,2.17c1.18,0.91,2.3,1.9,3.42,2.87c2.53,2.21-1.73-1.71,0.25,0.21c0.86,0.84,1.74,1.68,2.59,2.53
						c16.46,16.39,31.1,34.67,46.13,52.36c16.64,19.57,33.18,39.46,51.62,57.36c6.69,6.5,13.66,13.33,21.78,18.06
						c3.83,2.23,7.79,4.22,12.26,4.73c4.48,0.5,8.43-0.7,12.6-2.12c9.61-3.28,18.68-8.31,27.51-13.29
						c13.45-7.59,26.53-15.89,39.33-24.54c24.28-16.41,48.58-34.32,67.86-56.66c4.11-4.76,2-12.88-2.74-16.27
						c-5.53-3.95-12.04-1.99-16.16,2.78c-0.55,0.64-3.94,4.29-1.61,1.86c-1.03,1.09-2.07,2.18-3.12,3.26
						c-2.45,2.49-4.97,4.91-7.53,7.28c-5.52,5.09-11.26,9.94-17.11,14.64c-12.31,9.87-25.14,19.09-38.27,27.81
						c-1.41,0.94-2.82,1.86-4.23,2.79c-0.26,0.17-3.07,1.99-0.86,0.56c-0.83,0.54-1.67,1.07-2.51,1.6c-3.25,2.07-6.53,4.1-9.82,6.11
						c-5.73,3.49-11.52,6.87-17.41,10.08c-4.77,2.61-9.61,5.13-14.55,7.4c-1.85,0.84-3.71,1.66-5.61,2.4
						c-0.79,0.3-1.91,0.5-2.62,0.96c2.6-1.71,2.05-0.59,0.23-0.14c-0.62,0.16-1.26,0.23-1.87,0.38c-2.09,0.57,2.09,0.11,1.62-0.05
						c-0.33-0.11-1.27-0.25-1.6-0.2c3.01-0.41,2.83,0.87,0.98,0.08c-0.64-0.27-1.28-0.57-1.92-0.82c-2.27-0.91,2.72,1.64,0.6,0.32
						c-1.52-0.95-3.04-1.89-4.49-2.95c-3.47-2.51-6.69-5.31-9.87-8.17c-0.58-0.52-2.38-1.94,0.31,0.3c-0.5-0.41-0.96-0.9-1.43-1.34
						c-0.89-0.85-1.79-1.71-2.67-2.58c-2.04-2-4.06-4.03-6.05-6.08c-18.1-18.65-34.76-38.7-51.58-58.51
						c-14.49-17.06-28.7-34.81-45.22-49.96c-6.39-5.86-13.42-9.43-21.61-12.33c-14.17-5.02-29.12-7.91-43.91-10.42
						c-15.51-2.63-31.11-4.65-46.67-6.95c-7.69-1.14-15.38-2.34-23.04-3.72c-3.53-0.64-7.04-1.31-10.54-2.05
						c-0.94-0.2-1.86-0.4-2.8-0.6c-3.02-0.65,1.67,0.44-0.19-0.04c-1.94-0.5-3.9-0.93-5.85-1.43c-6.4-1.65-12.75-3.57-18.89-6.03
						c-2.68-1.06-5.23-2.32-7.85-3.52c-2.41-1.11,2.25,1.38,0.02,0.01c-0.62-0.38-1.27-0.72-1.89-1.1c-1.22-0.73-2.4-1.5-3.56-2.31
						c-1.12-0.79-2.2-1.61-3.25-2.48c-0.34-0.28-0.66-0.59-1.01-0.86c-1.87-1.48,1.82,2.02,0.27,0.23c-1.13-1.3-2.35-3.19-3.66-4.26
						c2.52,2.06,1.68,2.97,1.05,1.6c-0.12-0.26-0.26-0.52-0.4-0.77c-0.36-0.73-0.67-1.48-0.97-2.23c-0.33-0.83-0.61-1.68-0.92-2.53
						c-0.92-2.57,0.59,2,0.33,1.04c-0.16-0.58-0.35-1.14-0.52-1.71c-0.76-2.61-1.43-5.24-2.06-7.88
						c-1.63-6.85-2.98-13.78-4.23-20.72c-3.41-19.01-6-38.17-8.29-57.35c-2.85-23.99-5.14-48.05-6.97-72.14
						c-1-13.28-1.87-26.58-2.58-39.88c-0.16-3.15-0.33-6.31-0.48-9.46c-0.04-0.82-0.25-5.47-0.1-2.04
						c-0.09-2.01-0.17-4.02-0.26-6.03c-0.27-6.6-0.5-13.19-0.69-19.8c-1.34-47.59-1.41-96.09,6.11-143.23
						c0.76-4.77,1.62-9.52,2.61-14.24c0.22-1.04,1.18-4.44,0.06-0.37c0.3-1.1,0.51-2.23,0.77-3.33c0.51-2.13,1.07-4.26,1.65-6.38
						c1.97-7.1,4.43-14.03,7.63-20.68c0.18-0.37,0.42-0.74,0.57-1.12c0.06-0.16-1.63,2.95-0.83,1.58c0.4-0.69,0.78-1.41,1.18-2.1
						c0.77-1.31,1.6-2.6,2.49-3.84c0.76-1.07,1.61-2.05,2.42-3.08c1.44-1.83-2.48,2.4-0.4,0.46c0.47-0.44,0.93-0.91,1.42-1.34
						c0.57-0.5,1.18-0.97,1.79-1.44c0.35-0.27,0.74-0.48,1.08-0.76c0.33-0.27-3.24,1.91-1.14,0.76c1.7-0.93,3.39-1.83,5.18-2.61
						c0.94-0.41,1.89-0.79,2.85-1.14c0.55-0.2,1.1-0.39,1.66-0.6c2.72-0.99-1.6,0.48-0.84,0.26c2.43-0.71,4.84-1.43,7.3-2.01
						c5.9-1.42,11.89-2.44,17.91-3.26c7.02-0.95,14.07-1.62,21.13-2.12c1.85-0.13,3.7-0.25,5.54-0.36c0.86-0.05,1.72-0.1,2.58-0.14
						c0.52-0.02,1.04-0.06,1.57-0.08c2.96-0.15-2.5,0.1-0.47,0.02c4.19-0.17,8.4-0.32,12.6-0.43c41.39-0.98,82.85,1.32,124.1,4.53
						c49.64,3.87,99.14,9.42,148.49,16c51.18,6.83,102.21,14.8,153.03,23.99c23.66,4.28,47.28,8.84,70.82,13.75
						c11.23,2.34,22.46,4.68,33.62,7.29c-2.99-0.7-0.25-0.05,1.11,0.25c1.37,0.32,2.74,0.62,4.11,0.94c2.7,0.62,5.4,1.25,8.1,1.88
						c5.03,1.18,10.06,2.39,15.08,3.62c32.16,7.9,64.65,16.3,95.41,28.78c5.19,2.1,10.33,4.36,15.31,6.91
						c0.47,0.24,0.93,0.5,1.4,0.73c-4.21-2.02-1.75-0.95-0.77-0.4c1.01,0.56,2.01,1.13,3,1.73c1.69,1.02,3.34,2.09,4.93,3.26
						c0.67,0.5,1.33,1,1.97,1.53c0.3,0.24,0.58,0.52,0.89,0.76c1.59,1.28-2.52-2.62-1.07-0.99c0.43,0.48,0.89,0.99,1.35,1.45
						c1.66,1.63-1.53-3.41-0.47-0.7c0.25,0.65,0.51,1.39,0.82,2.01c-1.6-3.24-0.57-2.02-0.1,0.05c0.5,2.15,0.83,4.35,1.07,6.55
						c0.14,1.24,0.25,2.48,0.34,3.73c0.05,0.73,0.1,1.46,0.14,2.19c0.21,3.13-0.1-2.98-0.02-0.43c0.1,3.28,0.15,6.56,0.13,9.84
						c-0.07,8.14-0.48,16.28-1.05,24.41c-1.42,20.45-3.77,40.83-6.45,61.15c-6.61,50.18-15.31,100.1-25.18,149.73
						c-2.47,12.43-5.03,24.84-7.68,37.22c-1.29,5.99-2.6,11.98-3.92,17.96c-0.15,0.67-0.76,3.4,0,0.02
						c-0.14,0.64-0.28,1.27-0.43,1.91c-0.32,1.39-0.62,2.78-0.94,4.17c-0.68,2.99-1.37,5.98-2.06,8.96
						c-4.75,20.44-9.79,40.83-15.54,61.02c-4.06,14.27-8.3,28.67-14.14,42.33c-0.96,2.23-2.11,4.35-3.07,6.57
						c1.94-4.48,0.61-1.16-0.11,0.05c-0.46,0.76-0.96,1.49-1.46,2.22c-0.2,0.3-0.46,0.55-0.65,0.85c-0.96,1.53,2.65-2.15,0.97-1.06
						c-0.44,0.28-1.02,0.74-1.38,1.1c-0.66,0.66-2.2-0.33,1.69-1.09c-0.38,0.08-0.82,0.5-1.18,0.66c-1.29,0.58-2.58,1.09-3.89,1.63
						c-1.74,0.7,3.09-0.84,1.22-0.41c-0.44,0.1-0.87,0.25-1.3,0.37c-0.92,0.25-1.86,0.48-2.79,0.68c-4.22,0.94-8.52,1.51-12.82,1.94
						c-2.4,0.24-4.8,0.43-7.21,0.58c-0.94,0.06-5.74,0.47-1.8,0.11c-1.45,0.13-2.93,0.12-4.39,0.16
						c-12.87,0.38-25.75,0.06-38.61-0.52c-28.76-1.29-57.46-3.9-86.09-6.94c-21.71-2.3-43.39-4.94-65.07-7.6
						c-6.21-0.76-12.03,4.48-12.56,10.61C1092.4,849.6,1097.26,854.99,1103.49,855.76L1103.49,855.76z"/>
				</g>
			</g>
		</g>
		<g id="Ebene_10">
			<g>
				<g>
					<path class="st8" d="M873.51,375.67c42.41,50.97,83.86,102.74,124.59,155.07c40.07,51.48,79.45,103.49,118.46,155.79
						c21.69,29.06,43.25,58.21,64.77,87.4c8.45,11.47,27.74,12.88,38.09,3.35c11.35-10.44,12.39-26.13,3.37-38.36
						c-38.37-52.04-76.91-103.96-115.95-155.5c-39.68-52.37-79.87-104.35-120.88-155.66c-23.38-29.26-47.03-58.3-70.99-87.08
						c-9.09-10.93-27.3-13.28-38.09-3.35C866.06,347.27,863.81,364.01,873.51,375.67L873.51,375.67z"/>
				</g>
			</g>
			<g>
				<g>
					<path class="st8" d="M865.94,739.69c55.83-47.15,111.05-95.01,165.48-143.8c40.3-36.11,80.22-72.65,120.8-108.44
						c26.88-23.71,54.04-47.11,81.43-70.24c10.86-9.17,13.22-27.51,3.37-38.36c-9.88-10.88-26.5-13.14-38.09-3.35
						c-45.55,38.47-90.34,77.83-134.64,117.75c-42.99,38.74-85.87,77.61-129.41,115.71c-34.28,30-68.86,59.63-103.66,89.02
						c-10.86,9.17-13.22,27.51-3.37,38.36C837.73,747.23,854.36,749.48,865.94,739.69L865.94,739.69z"/>
				</g>
			</g>
		</g>
		<g id="Ebene_9">
			<g class="st12">
				<path d="M664.08,270.87c-19.14,217.76,198.54,496.16,350.86,641.87c-20.76,3.67-43.71-27.32-85.18-67
					c-58.62-56.07-40.46-60.7-74.3-77.93c-28.11-14.31-63.99-14.25-95.28-18.02c-28.84-3.46-64.55-11.79-81.79-28.12
					c-22.73-21.54-44.71-271.38-26.31-422.11"/>
				<g>
					<path d="M656.39,270.19c-3.9,45.21,2.08,90.87,13.57,134.57c12.74,48.45,31.9,95.05,54.48,139.63
						c23.95,47.3,51.84,92.56,82,136.09c29.75,42.93,61.86,84.2,95.76,123.86c30.41,35.57,62.27,69.91,95.69,102.62
						c3.69,3.61,7.4,7.2,11.14,10.77c1.51-4.22,3.02-8.43,4.53-12.65c-0.56,0.09-1.11,0.15-1.67,0.22c2.08-0.25,0.32,0-0.18-0.03
						c-0.96-0.07-1.9-0.14-2.85-0.27c-2.18-0.3,0.68,0.36-1.46-0.37c-1.2-0.41-2.39-0.84-3.56-1.35c-0.61-0.27-1.21-0.57-1.82-0.86
						c1.34,0.67-0.06-0.03-0.38-0.22c-1.17-0.7-2.33-1.4-3.46-2.15c-2.51-1.67-4.92-3.52-7.26-5.43
						c-12.44-10.18-23.4-22.19-34.7-33.6c-22.11-22.33-45.8-43.18-63.83-69.19c-3.59-5.19-6.92-10.66-11.23-15.29
						c-5.39-5.8-11.85-10.06-18.77-13.78c-34.15-18.33-73.46-16.34-110.73-21.95c-16.99-2.56-34.07-6.4-49.85-13.39
						c-6.48-2.87-12.58-6.45-17.93-11.14c-0.79-0.69,0.65,0.98-0.28-0.34c-0.21-0.3-0.47-0.6-0.71-0.88
						c-0.77-0.9-0.34-1.45,0.23,0.43c-0.14-0.48-0.59-1-0.84-1.45c-1.22-2.22-2.18-4.59-3.06-6.97c-0.29-0.78-0.56-1.56-0.83-2.34
						c-0.2-0.59-0.93-3-0.21-0.6c-0.5-1.68-1.02-3.37-1.49-5.07c-2.34-8.45-4.15-17.07-5.75-25.69
						c-9.92-53.23-13.8-107.86-16.25-161.9c-2.87-63.4-3.08-127.34,2.85-190.59c0.64-6.89,1.38-13.77,2.22-20.65
						c1.21-9.94-14.18-11.29-15.39-1.35c-7.64,62.97-7.99,126.92-5.88,190.23c1.93,58.19,5.67,116.78,15.03,174.28
						c2.8,17.26,5.81,35.04,12.14,51.41c2.2,5.68,5.04,10.45,9.63,14.47c12.3,10.78,28.96,16.59,44.47,20.74
						c18.12,4.84,36.61,7.4,55.25,9.13c19.14,1.78,38.67,2.95,57.27,8.15c4.57,1.28,9.08,2.79,13.47,4.6
						c1.98,0.81,3.92,1.7,5.84,2.64c0.81,0.4,1.6,0.81,2.41,1.22c1.4,0.72-0.82-0.47,0.89,0.48c3.55,1.97,7.04,4.06,10.26,6.54
						c0.59,0.46,1.17,0.92,1.73,1.4c0.77,0.65,1.78,1.71,0.44,0.34c1.12,1.15,2.27,2.27,3.31,3.5c1.98,2.31,3.74,4.8,5.45,7.3
						c5.25,7.64,10.53,15.2,16.43,22.35c11.31,13.7,24.06,25.97,36.75,38.34c13.64,13.3,26.65,27.26,40.48,40.37
						c9.11,8.63,19.02,18.16,31.05,22.45c5,1.78,10.27,2.41,15.52,1.56c5.3-0.85,8.82-8.56,4.53-12.65
						c-32.81-31.41-64.12-64.43-94.04-98.63c-33.71-38.51-65.7-78.57-95.54-120.2c-30.41-42.39-58.58-86.49-83.2-132.58
						c-23.33-43.68-43.8-89.31-58.01-136.88c-12.77-42.75-20.86-87.54-19.27-132.02c0.19-5.29,0.52-10.58,0.98-15.86
						C672.64,261.58,657.25,260.2,656.39,270.19L656.39,270.19z"/>
				</g>
			</g>
		</g>
	</g>
</g>
</svg>
