<?xml version="1.0" encoding="utf-8"?>
<!-- Generator: Adobe Adobe Illustrator 24.2.0, SVG Export Plug-In . SVG Version: 6.00 Build 0)  -->
<svg version="1.1" xmlns="http://www.w3.org/2000/svg" xmlns:xlink="http://www.w3.org/1999/xlink" x="0px" y="0px"
	 viewBox="0 0 1700.79 1700.79" style="enable-background:new 0 0 1700.79 1700.79;" xml:space="preserve">
<style type="text/css">
	.st0{fill:#7E8D9C;}
	.st1{fill:#3D4D5B;}
	.st2{fill:#D3E1EC;}
	.st3{fill:#808E9C;}
	.st4{fill:#F3C159;}
	.st5{fill:#F3C158;}
	.st6{opacity:0.2784;}
	.st7{opacity:0.0784;}
	.st8{fill:#FFFFFF;}
	.st9{opacity:0.149;}
	.st10{fill:#D15238;}
	.st11{fill:#D15239;}
</style>
<g id="Ebene_4">
</g>
<g id="Ebene_3">
</g>
<g id="Ebene_14">
</g>
<g id="Ebene_5">
</g>
<g id="Ebene_6">
</g>
<g id="Ebene_7">
	<g>
		<g>
			<path class="st0" d="M278.36,842.07c-92.02,103.45-255.44,244.96-46.42,386.24c182.07,123.06,297.75-32.6,382.53-121.22"/>
			<g>
				<path d="M272.11,835.82c-39.33,44.17-82.14,85.99-114.14,136.1c-15,23.49-27.75,49.32-33.33,76.8
					c-5.56,27.4-3.69,55.78,6.93,81.76c13.65,33.42,38.38,60.84,66.12,83.39c32.05,26.05,68.28,48.45,108.11,60.29
					c30.67,9.11,63.04,11,94.45,4.76c28.86-5.73,56.16-18.37,80.72-34.36c48.66-31.67,87.54-75.31,126.8-117.46
					c4.29-4.61,8.6-9.2,12.95-13.75c7.86-8.22-4.62-20.74-12.5-12.5c-37.48,39.21-72.69,81.3-116.1,114.28
					c-44.94,34.14-98.93,57.1-156.28,47.82c-36.09-5.84-69.36-21.95-99.45-42.26c-30.69-20.72-60.39-45.9-79.33-78.22
					c-13.59-23.2-19.78-48.74-17.42-75.34c2.2-24.75,12.28-49.6,24.73-71.6c28.1-49.67,68.85-90.81,107.07-132.64
					c4.41-4.83,8.81-9.68,13.16-14.57C292.15,839.85,279.69,827.31,272.11,835.82L272.11,835.82z"/>
			</g>
		</g>
		<g>
			<path class="st1" d="M511.3,912.44C342.92,780.1,308.43,726.34,263.9,781.93c-51.11,63.8,372.94,384.38,427.58,332.44
				c47.2-44.86-6.67-61.43-180.87-203.22"/>
			<g>
				<path d="M517.55,906.19c-32.06-25.22-63.58-51.1-95.02-77.09c-21.4-17.69-42.69-35.68-65.22-51.94
					c-23-16.61-54.7-36.87-82.3-18.02c-9.74,6.65-21.17,17.04-23.53,29.16c-2.24,11.53,1.65,23.04,6.49,33.38
					c6.3,13.46,15.22,25.61,24.38,37.24c11.69,14.83,24.54,28.72,37.83,42.12c32.32,32.58,67.42,62.43,103.61,90.6
					c37.56,29.24,76.46,56.87,117.11,81.67c31.61,19.29,64.84,38.21,100.27,49.53c11.3,3.61,23.74,6.82,35.7,5.91
					c12.05-0.92,20.16-6.38,27.86-15.48c7.98-9.43,13.44-20.37,11.27-32.98c-2.16-12.56-11.43-23.2-20.08-31.97
					c-14.84-15.05-31.86-28-48.48-40.97c-26.67-20.8-53.6-41.25-80.19-62.15c-16.91-13.29-33.72-26.72-50.4-40.3
					c-3.7-3.01-8.88-3.62-12.5,0c-3.11,3.11-3.72,9.47,0,12.5c30.91,25.14,62.27,49.72,93.82,74.05c20.9,16.12,42.03,32,62.36,48.84
					c7.04,5.84,14,11.81,20.55,18.2c2.62,2.56,5.17,5.18,7.59,7.93c1.04,1.19,2.04,2.41,3.05,3.63c0.88,1.06-1.05-1.49,0.22,0.28
					c0.48,0.68,0.98,1.34,1.45,2.03c1.5,2.19,2.74,4.48,3.97,6.82c1.09,2.08-0.31-1.11,0-0.04c0.14,0.5,0.39,0.98,0.54,1.48
					c0.33,1.09,0.58,2.19,0.88,3.29c0.41,1.49-0.03,0.71-0.02-0.55c0,0.53,0.14,1.07,0.14,1.61c0.02,1.07-0.06,2.14-0.05,3.2
					c0.02,2.13,0.44-1.27,0.06-0.41c-0.18,0.41-0.17,0.97-0.29,1.41c-0.3,1.07-0.67,2.12-0.97,3.18c-0.54,1.9,0.77-1.49,0.16-0.34
					c-0.25,0.46-0.43,0.96-0.69,1.42c-0.63,1.16-1.26,2.3-1.98,3.41c-0.69,1.07-1.44,2.08-2.19,3.1c1.01-1.4,0.7-0.86-0.09,0.07
					c-0.53,0.63-1.06,1.26-1.6,1.88c-2.01,2.28-4.24,4.32-6.35,6.5c-1.54,1.59,1.81-0.88-0.37,0.27c-0.76,0.4-1.6,0.82-2.32,1.28
					c-1,0.63,2.43-0.75,0.71-0.3c-0.4,0.1-0.78,0.3-1.18,0.41c-1,0.28-2,0.52-3.01,0.77c-3.01,0.73,1.38,0.03-0.94,0.16
					c-1.12,0.06-2.24,0.17-3.37,0.19c-2.34,0.05-4.68-0.08-7-0.32c-0.66-0.07-1.33-0.16-1.99-0.23c0.67,0.07,1.82,0.3-0.15-0.04
					c-1.43-0.25-2.85-0.49-4.27-0.78c-6.28-1.28-12.44-3.08-18.5-5.14c-3.36-1.14-6.68-2.36-9.99-3.65
					c-1.85-0.72-3.69-1.46-5.53-2.22c-0.53-0.22-3-1.26-1.03-0.42c-1.06-0.45-2.13-0.91-3.19-1.37
					c-16.76-7.32-32.99-15.82-48.9-24.82c-38.48-21.78-75.27-46.59-110.84-72.83c-36.29-26.77-71.8-55.6-105.32-86.69
					c-14.77-13.69-29.14-27.84-42.73-42.71c-5.86-6.41-11.57-12.96-17.04-19.71c-1.33-1.63-2.63-3.28-3.94-4.94
					c-0.9-1.14,0.74,0.99-0.71-0.92c-0.68-0.89-1.35-1.78-2.02-2.67c-2.17-2.91-4.28-5.86-6.32-8.86
					c-3.7-5.46-7.18-11.08-10.17-16.96c-0.68-1.34-1.33-2.69-1.96-4.05c-0.27-0.58-0.52-1.17-0.78-1.76c0.9,2,0.23,0.58-0.17-0.47
					c-0.87-2.29-1.68-4.6-2.31-6.98c-0.29-1.09-0.52-2.19-0.75-3.29c-0.12-0.56-0.17-1.13-0.29-1.68c0.36,1.7,0.15,1.72,0.06,0.17
					c-0.11-1.9,0.22-3.92,0.05-5.78c0.28,3.03-0.13,0.8,0.23-0.61c0.33-1.29,1.79-3.62,0.15-0.93c0.41-0.67,0.73-1.45,1.11-2.15
					c0.19-0.35,0.49-0.66,0.66-1.02c0.59-1.2-1.58,1.87,0.18-0.21c2.36-2.79,4.75-5.54,7.39-8.08c1.06-1.02,2.16-1.98,3.27-2.94
					c0.81-0.69,1.76-1.36,0.26-0.26c0.68-0.5,1.35-1.01,2.05-1.48c1.14-0.78,2.31-1.51,3.51-2.17c1.16-0.64,4.54-1.95,2.08-1.1
					c2.52-0.86,4.94-1.57,7.57-2.05c-3.23,0.59,0.91-0.01,1.92-0.03c1.4-0.03,2.78,0.09,4.18,0.16c2.47,0.13-0.73-0.19,0.27,0.01
					c0.65,0.13,1.3,0.22,1.94,0.35c1.52,0.3,3.02,0.69,4.5,1.12c1.49,0.44,2.96,0.94,4.42,1.49c0.81,0.3,1.61,0.63,2.41,0.95
					c-2.02-0.82,0.15,0.08,0.91,0.43c3.48,1.6,6.87,3.4,10.19,5.32c18.62,10.78,34.69,23.94,51.11,37.22
					c25.86,20.91,51.29,42.35,77.07,63.34c16.23,13.22,32.57,26.31,49.03,39.26c3.75,2.95,8.84,3.66,12.5,0
					C520.61,915.62,521.32,909.15,517.55,906.19L517.55,906.19z"/>
			</g>
		</g>
		<g>
			<path class="st2" d="M376.97,792.92C516.68,636.57,528.35,623.26,562.3,654.22c22.97,20.94,19.78,11.61-133.32,189"/>
			<g>
				<path d="M383.21,799.17c23.43-26.22,46.79-52.51,70.56-78.41c15.03-16.38,30.15-32.79,46.41-47.96
					c2.85-2.66,5.75-5.28,8.72-7.81c1.24-1.06,2.49-2.11,3.76-3.14c0.64-0.52,1.28-1.03,1.93-1.54c0.94-0.75-1.32,1-0.38,0.29
					c0.38-0.29,0.77-0.59,1.16-0.87c4.22-3.1,8.55-5.85,13.23-8.19c2.43-1.21-1.74,0.49,0.99-0.4c0.99-0.32,1.96-0.68,2.96-0.94
					c0.82-0.22,1.72-0.29,2.51-0.55c1.52-0.5-2.29,0.05-0.72,0.09c0.47,0.01,0.96-0.1,1.44-0.11c0.78-0.01,1.56,0,2.34,0.02
					c2.76,0.04-1.38-0.51,0.54,0.04c1.59,0.45,3.16,0.9,4.74,1.41c-2.54-0.82-0.87-0.38,0.37,0.25c0.85,0.43,1.67,0.9,2.48,1.4
					c0.75,0.46,1.48,0.94,2.21,1.44c0.73,0.51,3.66,2.8,1.05,0.7c2.93,2.35,5.74,4.84,8.52,7.37c1.72,1.57,3.36,3.17,4.98,4.84
					c1.89,1.97-1.16-1.95,0.47,0.64c0.21,0.33,0.36,0.79,0.61,1.09c0.93,1.1-0.97-2.53-0.31-0.68c0.13,0.36,0.27,0.8,0.29,1.18
					c0.06,0.88-0.81-2.84-0.16-0.77c0.11,0.36-0.22,1.02-0.06,1.33c-0.33-0.63,0.64-2.58,0-0.54c-0.16,0.51-0.31,1.03-0.45,1.54
					c-0.08,0.29-0.25,0.57-0.32,0.87c-0.35,1.54,1.04-1.99,0.37-0.86c-0.77,1.31-1.35,2.75-2.12,4.07
					c-2.12,3.64-4.63,7.05-7.15,10.42c-0.34,0.46-0.69,0.9-1.04,1.36c1.64-2.15,0.22-0.29-0.19,0.23c-0.97,1.23-1.94,2.45-2.93,3.67
					c-2.11,2.61-4.25,5.19-6.41,7.76c-32.88,39.13-67.41,76.92-100.93,115.5c-6.67,7.67-13.32,15.36-19.96,23.05
					c-7.4,8.57,5.05,21.13,12.5,12.5c38.33-44.4,77.65-87.95,115.77-132.52c8.25-9.64,16.74-19.36,23.7-29.99
					c3.66-5.6,7.14-12.09,6.86-18.98c-0.25-6.35-3.91-11.43-8.32-15.69c-5.58-5.4-11.55-10.85-18.21-14.87
					c-20.23-12.23-39.98-0.34-56.1,12.97c-15.12,12.48-28.69,26.87-42.1,41.12c-22.15,23.55-43.65,47.69-65.2,71.78
					c-6.98,7.8-13.95,15.6-20.92,23.4C363.16,795.13,375.62,807.68,383.21,799.17L383.21,799.17z"/>
			</g>
		</g>
		<g>
			<path class="st2" d="M588,959.8C734.9,809.42,740.55,796.59,769.46,822.01c31.9,28.05,18.36,21.54-126.76,189.97"/>
			<g>
				<path d="M594.25,966.05c39.1-40.03,77.11-81.45,117.92-119.76c5.25-4.93,10.58-9.78,16.17-14.33c1.01-0.83,2.04-1.64,3.07-2.45
					c-2.16,1.68,1.23-0.9,1.92-1.39c1.94-1.39,3.93-2.73,5.98-3.94c1.68-0.99,3.43-1.77,5.16-2.66c-1.56,0.8-1.12,0.38,0.49-0.11
					c0.77-0.24,1.55-0.44,2.33-0.66c1.61-0.46,2.39,0.14,0.01-0.1c0.67,0.07,1.45-0.13,2.14-0.13c0.58,0,1.39,0.21,1.94,0.1
					c-1.23,0.26-2.05-0.53-0.09,0.07c0.61,0.19,1.23,0.37,1.85,0.54c2.37,0.67-1.23-0.77,0.08,0c1.25,0.74,2.56,1.34,3.78,2.14
					c0.68,0.44,1.33,0.92,1.99,1.38c2.25,1.58-1.22-1.07,0.5,0.38c1.39,1.17,2.78,2.32,4.15,3.52c2.57,2.26,5.15,4.54,7.52,7.02
					c0.48,0.51,0.94,1.04,1.42,1.55c1.36,1.47,0.52,1.17,0.09,0.04c0.36,0.95,1.36,2.26,1.94,3.12c1.1,1.62-0.41-2.1-0.16-0.38
					c0.07,0.47,0.27,1.23,0.46,1.67c0.72,1.67,0.14-2.55-0.08-0.51c-0.06,0.54-0.1,1.39-0.03,1.92c0.18,1.29,0.73-2.66,0.04-0.45
					c-0.21,0.66-0.32,1.35-0.53,2.01c-0.23,0.73-0.54,1.42-0.79,2.14c0.94-2.71,0.3-0.73-0.31,0.47c-1.92,3.76-4.35,7.25-6.85,10.63
					c-0.71,0.96-2.6,3.38-1.27,1.69c-0.93,1.18-1.86,2.36-2.81,3.53c-2.08,2.57-4.2,5.1-6.34,7.61
					c-32.59,38.22-67.1,74.82-100.12,112.68c-6.48,7.43-12.93,14.88-19.36,22.34c-7.39,8.58,5.06,21.13,12.5,12.5
					c37.5-43.5,76.47-85.67,114.23-128.94c8.29-9.5,17.02-19.16,23.54-30.01c4.08-6.8,7.07-14.64,5.16-22.64
					c-1.63-6.81-6.68-12.21-11.66-16.84c-5.46-5.07-11.28-10.62-18.07-13.84c-19.41-9.21-37.45,5.69-51.5,17.87
					c-14.48,12.56-27.95,26.3-41.41,39.93c-22.23,22.52-44.17,45.31-66.24,67.99c-7.08,7.27-14.16,14.54-21.25,21.8
					C573.79,961.7,586.28,974.21,594.25,966.05L594.25,966.05z"/>
			</g>
		</g>
		<g>
			<path d="M167.14,1171.88c-8.37,4.58-38.03,35.01-31.15,52.6c6.31,16.15,89.91,63.31,94.93,65.75
				c12.65,6.15,37.93-24.87,43.83-37.39"/>
			<g>
				<path d="M162.68,1164.24c-7.36,4.21-13.67,11.18-19.03,17.62c-7.05,8.48-14.11,18.31-16.58,29.26
					c-2.06,9.13-0.31,17.22,5.77,24.23c4.97,5.73,11.31,10.38,17.35,14.9c15.52,11.62,32.1,21.85,48.72,31.79
					c6.55,3.91,13.13,7.76,19.77,11.52c3.82,2.16,7.87,4.91,12.19,5.87c11.72,2.61,23.08-7.09,30.74-14.66
					c7.99-7.9,15.83-17.31,20.77-27.48c4.95-10.19-10.29-19.16-15.26-8.92c-3.57,7.35-8.76,13.99-14.25,19.99
					c-3.14,3.44-6.49,6.88-10.22,9.7c-3.31,2.49-5.43,2.86-8.52,4.27c1.72-0.78-0.91-0.25,1.1,0.02c-1.77-0.24,0.26,0.33,0.04,0.19
					c-0.36-0.23-0.78-0.4-1.15-0.61c-1.65-0.91-3.31-1.81-4.95-2.74c-5.62-3.16-11.2-6.4-16.75-9.68
					c-14.92-8.82-29.71-17.93-43.96-27.8c-6.74-4.68-11.56-8.09-17.34-13.18c-2.04-1.8-3.88-3.73-5.78-5.67
					c-0.43-0.44-1.41-2,0.02,0.11c-0.05-0.07-0.84-1.15-0.81-1.17c-0.02,0.02-0.57-1.03-0.62-1.1c1.7,2.56,0.07,0.17-0.15-1.13
					c0.29,1.71,0.02-1.17,0.03-1.28c0.08-1.79,0.03-1.28,0.31-2.46c0.49-2.11,1.19-4.2,2-5.97c2.13-4.68,5.04-9.12,8.17-13.19
					c3.16-4.11,6.72-7.98,10.46-11.57c1.49-1.43,3.03-2.81,4.62-4.13c1.9-1.57-1.4,0.88,0.43-0.32c0.6-0.39,1.18-0.8,1.8-1.15
					C181.47,1173.85,172.58,1158.58,162.68,1164.24L162.68,1164.24z"/>
			</g>
		</g>
		<g>
			<path class="st3" d="M154.02,1242.15c-37.21,52.93-116.8,179.34-76.51,277.52C108.43,1595,200.4,1637.5,285.4,1635.21
				c85.01-2.29,163.33-40.88,232.14-86.5c220.13-145.92,443.24-402,608.37-370.69c230.1,43.63,140.51,314.03,124.96,396.03
				c-11.21,59.1,8,56.27,24.56,61.08c15.3,4.45,32.93,18.48,39.14-46.35c9.78-101.92,71.59-246.75-11.99-378.3
				c-110.23-173.49-295.75-111.26-347.22-85.35c-214.47,107.94-355.8,320.56-575.02,419.99c-135.69,61.54-218.08,2.79-234.62-35.72
				c-34.81-81.07,30.93-195.72,56.18-231.01"/>
			<g>
				<path d="M146.39,1237.69c-39.79,56.68-76.5,121.44-86.36,190.94c-5.42,38.21-1.56,77.22,17.51,111.35
					c18.37,32.87,48.27,58.38,81.51,75.42c34.88,17.88,73.96,27.59,113.11,28.65c46.01,1.24,92.12-9.31,134.74-26.12
					c83.76-33.04,157.06-88.61,227.45-143.68c68.89-53.9,135.28-110.97,204.88-163.97c31.19-23.75,63.07-46.75,96.46-67.34
					c29.01-17.89,59.34-34.31,91.62-45.51c26.58-9.23,54.57-14.95,82.81-12.69c29.08,2.34,59.18,12.39,84.09,27.5
					c43.65,26.48,66.78,71.54,74.58,120.77c7.66,48.28,2.07,98.8-6.7,146.51c-3.8,20.65-8.39,41.14-13.07,61.61
					c-5.05,22.1-12.12,45.83-10.05,68.58c1.01,11.04,4.76,21.87,14.84,27.69c6.8,3.93,14.76,4.7,22.1,7.15
					c7.07,2.36,14.4,5.15,21.94,3.08c11.32-3.1,16.75-14.58,19.84-24.92c5.31-17.75,5.58-36.64,8.35-54.86
					c2.82-18.59,6.5-37.03,10.11-55.48c7.91-40.34,15.61-80.91,17.81-122.04c2.37-44.28-2.03-89.34-17.48-131.12
					c-14.89-40.29-39.19-77.78-70.12-107.63c-46.62-44.99-108.41-67.98-172.89-67.64c-45.9,0.24-92.31,10.73-134.15,29.56
					c-32.29,14.53-62.96,33.65-92.31,53.35c-34.97,23.46-68.32,49.27-100.75,76.1c-64.94,53.71-126.19,111.73-191.33,165.21
					c-32.29,26.51-65.58,51.84-100.56,74.71c-35.94,23.49-73.98,45.53-114.05,61.2c-59.45,23.25-138.97,31.85-189.34-15.28
					c-7.26-6.79-11.9-12.22-16.27-20.93c-7.08-14.13-9.66-30.89-10.05-46.54c-0.9-36.66,10.14-73.31,24.75-106.6
					c11-25.06,24.21-49.54,40.12-71.86c6.61-9.28-8.71-18.12-15.26-8.92c-16.37,22.98-29.93,48.24-41.1,74.11
					c-14.73,34.11-26.02,70.78-26.23,108.24c-0.16,28.22,6.23,57.47,25.51,78.85c17.01,18.88,40.68,31.57,64.88,38.55
					c80.69,23.26,163.19-14.19,231.73-54.33c71.76-42.03,136.11-95.34,198.56-149.92c62.81-54.9,124.19-111.76,191.42-161.32
					c33.56-24.74,68.54-47.64,105.32-67.32c9.54-5.11,19.15-10.09,29.12-14.31c-1.73,0.73,0.88-0.36,1.39-0.57
					c0.98-0.4,1.95-0.79,2.93-1.18c2.19-0.87,4.39-1.71,6.6-2.53c4.54-1.68,9.12-3.26,13.72-4.74
					c48.4-15.58,101.27-21.32,151.23-10.01c70.79,16.01,126.68,66.96,158.95,130.95c39.84,79.01,30.36,167.66,14.28,251.47
					c-3.6,18.74-7.45,37.44-10.76,56.23c-3.24,18.36-4.75,36.87-7.59,55.26c-1.11,7.2-2.56,15.41-5.32,21.83
					c-0.51,1.19-1.11,2.36-1.77,3.47c-0.31,0.53-2.02,2.83-0.96,1.58c-0.6,0.71-1.26,1.39-1.97,2c1.43-1.22,0.02,0.07-0.78,0.34
					c2.42-0.83,0.03-0.01-0.55,0.08c-1.19,0.19,1.86,0.01-0.39,0.03c-0.75,0-1.49-0.05-2.24-0.1c2.17,0.15,0.23,0.02-0.77-0.24
					c-3.21-0.83-6.29-2.01-9.44-3.04c-3.34-1.09-6.76-1.83-10.16-2.69c-1.73-0.44-3.42-0.93-5.11-1.5c-1.62-0.54-0.62-0.24-0.6-0.23
					c-0.87-0.45-1.71-0.91-2.54-1.43c-0.89-0.55,0.72,0.73-0.79-0.68c-0.45-0.42-1.94-2.42-0.88-0.88c-1.73-2.5-1.77-2.81-2.34-5.08
					c-1.59-6.37-1.41-13-0.89-19.65c1.57-19.87,7.12-39.55,11.52-58.94c10.31-45.37,19.28-91.32,21.23-137.91
					c2.08-49.62-3.84-102.3-30.16-145.5c-30.23-49.63-85.25-77.87-141.87-84.99c-61.34-7.71-122.4,19.94-174.14,49.94
					c-69.54,40.33-132.59,91.47-194.9,141.95c-67.9,55-134.92,111.35-206.46,161.63c-74.13,52.09-157.3,100.24-250.02,104.77
					c-72.61,3.54-155.93-24.92-195.74-89.31c-41.04-66.37-14.53-149.17,18.32-213.04c13.8-26.83,29.82-52.48,47.15-77.16
					C168.21,1237.28,152.89,1228.44,146.39,1237.69L146.39,1237.69z"/>
			</g>
		</g>
		<g>
			<path class="st4" d="M397.59,1014.64c-33.3,8.8-66.6,17.6-99.91,26.4c15.07,12.87,30.13,25.75,45.2,38.62
				c-26.55,28.88-53.1,57.76-79.65,86.64c47.23-23.4,94.45-46.79,141.68-70.19c-14.08-11.48-28.15-22.97-42.23-34.45
				c13.83-15.8,27.65-31.61,41.48-47.41"/>
			<g>
				<path class="st5" d="M395.24,1006.12c-33.3,8.8-66.6,17.6-99.91,26.4c-6.07,1.61-9.03,10.38-3.9,14.77
					c15.07,12.87,30.13,25.75,45.2,38.62c0-4.17,0-8.33,0-12.5c-26.55,28.88-53.1,57.76-79.65,86.64
					c-6.92,7.53,1.72,18.33,10.71,13.88c47.23-23.4,94.45-46.79,141.68-70.19c4.77-2.36,6.05-10.4,1.79-13.88
					c-14.08-11.48-28.15-22.97-42.23-34.45c0,4.17,0,8.33,0,12.5c13.83-15.8,27.65-31.61,41.48-47.41
					c7.46-8.53-4.99-21.08-12.5-12.5c-13.83,15.8-27.65,31.61-41.48,47.41c-2.9,3.31-3.9,9.32,0,12.5
					c14.08,11.48,28.15,22.97,42.23,34.45c0.6-4.63,1.19-9.25,1.79-13.88c-47.23,23.4-94.45,46.79-141.68,70.19
					c3.57,4.63,7.14,9.25,10.71,13.88c26.55-28.88,53.1-57.76,79.65-86.64c3.04-3.31,3.76-9.29,0-12.5
					c-15.07-12.87-30.13-25.75-45.2-38.62c-1.3,4.92-2.6,9.85-3.9,14.77c33.3-8.8,66.6-17.6,99.91-26.4
					C410.92,1020.26,406.26,1003.2,395.24,1006.12L395.24,1006.12z"/>
			</g>
		</g>
		<g class="st6">
			<path d="M533.22,648.11C460.28,725.69,454,762.29,428.51,829.96c-33.09-25.96-48.78-28.14-42.08-36.19
				c42.6-51.15,88.89-98.33,146.13-154.16"/>
			<g>
				<path d="M526.98,641.86c-22.54,24.03-44.08,49.43-61.15,77.71c-12.62,20.92-22.12,43.39-30.58,66.26
					c-5.14,13.91-10.05,27.9-15.27,41.78c4.92-1.3,9.85-2.6,14.77-3.9c-12.57-9.8-25.97-18.03-39.05-27.07
					c-0.52-0.36-2.69-2.08-0.93-0.61c-0.55-0.46-1.07-1.02-1.64-1.44c-1.67-1.23,0.49,0.95,0.02,0.11c-0.21-0.37,0.62,2.49,0.6,2.19
					c0.04,0.72-0.68,2.9-0.49,2.43c0.61-1.49-1.79,2-0.05,0.05c0.74-0.83,1.42-1.7,2.13-2.55c3.21-3.82,6.44-7.63,9.69-11.42
					c25.92-30.18,53.24-59.12,81.18-87.43c17.34-17.56,34.92-34.89,52.59-52.13c8.16-7.96-4.35-20.45-12.5-12.5
					c-32.31,31.52-64.35,63.33-95.1,96.38c-14.11,15.16-27.93,30.58-41.37,46.34c-7.53,8.82-20.56,20.25-8.83,31.37
					c4.46,4.23,10.14,7.31,15.29,10.6c8.91,5.69,17.63,11.66,25.97,18.16c5.45,4.25,12.26,2.77,14.77-3.9
					c8.41-22.36,15.89-45.55,25.31-67.26c10.14-23.36,23.11-45.18,38.43-65.51c11.93-15.84,25.15-30.72,38.71-45.18
					C547.25,646.07,534.78,633.54,526.98,641.86L526.98,641.86z"/>
			</g>
		</g>
		<g class="st6">
			<path d="M749.19,816.02c-68.74,49.66-88.01,137.37-106.49,195.96c3.08-12.06-49.25-28.08-45.91-49.27
				c1.18-7.54,35.8-49.03,141.83-141.66"/>
			<g>
				<path d="M744.73,808.39c-52.38,38.18-78.56,97.68-97.33,157.79c-4.51,14.45-8.68,29.01-13.23,43.45
					c5.68,1.57,11.36,3.13,17.04,4.7c1.93-9.61-5.21-15.97-12.2-21.17c-7.36-5.46-15.92-10.26-22.9-15.59
					c-1.32-1.01-3.27-2.65-4.75-4.04c-0.79-0.74-1.55-1.49-2.29-2.29c-0.32-0.35-2.18-2.7-1.37-1.56c-0.55-0.77-1.04-1.58-1.5-2.41
					c-0.98-1.77,0.08,0.27-0.46-1.06c-0.13-0.33-0.2-0.73-0.28-1.08c-0.28-1.32,0.21,1.5,0.02,0.17c-0.19-1.29,0.69-2.83-0.15-0.41
					c0.89-2.53-1.2,1.71-0.02-0.11c0.66-1.02,1.21-2.13,1.88-3.15c0.94-1.43,1.97-2.8,2.98-4.18c1.24-1.69-1.12,1.37,0.75-0.97
					c0.77-0.96,1.55-1.93,2.34-2.88c3.86-4.67,7.9-9.19,12-13.65c13.18-14.3,27.06-27.96,41.11-41.39
					c25.55-24.42,51.88-48.02,78.48-71.27c8.58-7.5-3.96-19.96-12.5-12.5c-40,34.96-80.04,70.43-116.4,109.23
					c-7.99,8.52-15.97,17.24-22.73,26.79c-6.19,8.74-7.35,18.29-0.78,27.77c6.65,9.6,17.02,16.08,26.63,22.36
					c2.21,1.44,4.42,2.88,6.61,4.35c1.01,0.69,2.02,1.38,3.01,2.09c0.46,0.33,2.72,2.08,1.57,1.15c0.78,0.63,1.55,1.27,2.28,1.96
					c0.36,0.34,2.22,2.42,1.51,1.48c-0.88-1.17,0.01-0.02-0.01,0.03c0.09,0.15,0.19,0.3,0.28,0.46c0.33,0.65,0.33,0.6-0.02-0.15
					c-0.13,0.17-0.25-1.19-0.13-0.16c-0.3-2.55-0.51,0.03,0.01-2.53c-2.23,11.09,13.6,15.64,17.04,4.7
					c16.78-53.34,30.56-109.01,65.3-154.19c10.58-13.76,23.1-26.26,37.13-36.49c3.85-2.81,5.75-7.68,3.17-12.09
					C754.6,807.76,748.61,805.56,744.73,808.39L744.73,808.39z"/>
			</g>
		</g>
		<g class="st6">
			<path d="M294.77,771.55c87.08,150.18,232.07,270.73,400.87,333.28c-90.37,46.62-415.8-233.99-427.13-296.74
				c-3.34-18.52,8.11-26.17,27.8-42.16"/>
			<g>
				<path d="M287.14,776.01c34.77,59.82,78.22,114.58,127.99,162.61c50.57,48.8,107.74,90.92,169.26,124.88
					c34.98,19.31,71.44,35.93,108.89,49.85c-0.7-5.38-1.41-10.77-2.11-16.15c-0.46,0.23-1.2,0.79-1.71,0.83
					c-1.08,0.08,1.88-0.62-0.1,0.04c-1.32,0.44-2.61,0.94-3.95,1.32c-1.29,0.37-2.6,0.68-3.92,0.95c-0.68,0.14-1.36,0.23-2.04,0.37
					c-1.86,0.39,1.85-0.13-0.53,0.08c-6.42,0.55-12.67,0.36-19.08-0.31c-1.35-0.14,1.66,0.29-0.79-0.11
					c-0.85-0.14-1.71-0.27-2.56-0.41c-1.86-0.32-3.72-0.68-5.57-1.07c-3.79-0.81-7.56-1.77-11.29-2.84
					c-8.24-2.36-16.32-5.25-24.26-8.46c-4-1.62-6.68-2.77-11.55-4.98c-4.47-2.03-8.91-4.15-13.31-6.34
					c-9.36-4.65-18.56-9.62-27.63-14.8c-19.64-11.21-38.71-23.42-57.35-36.22c-39.14-26.87-76.29-56.15-112.02-87.46
					c-30.57-26.79-60.42-54.89-86.85-85.82c-2.57-3.01-5.1-6.05-7.58-9.14c-1.13-1.41-2.25-2.82-3.35-4.24
					c-0.77-0.99,0.93,1.22,0.18,0.23c-0.2-0.26-0.39-0.51-0.59-0.77c-0.64-0.85-1.28-1.69-1.91-2.54c-3.66-4.94-7.17-10-10.27-15.31
					c-1.23-2.1-2.4-4.24-3.45-6.44c-0.24-0.5-0.45-1.01-0.7-1.5c-0.94-1.88,0.57,1.58,0.11,0.3c-0.37-1.03-0.8-2.03-1.13-3.08
					c-2.73-8.51-0.52-14.94,5.67-21.24c5.79-5.88,12.5-10.87,18.9-16.05c3.71-3.01,3.13-9.37,0-12.5c-3.67-3.67-8.78-3.02-12.5,0
					c-11.56,9.37-27.09,19.5-30.2,35.23c-1.55,7.83-0.48,15.74,2.52,23.04c5.03,12.24,12.99,23,21.08,33.37
					c24.18,31.04,52.94,58.7,82.02,85.08c36.67,33.26,75.31,64.47,115.61,93.22c36.76,26.22,75.26,51.09,116.61,69.48
					c16.34,7.27,33.26,13.83,50.87,17.28c13.78,2.71,28.63,3.97,42.28-0.16c3.18-0.96,6.3-2.26,9.26-3.76
					c7.36-3.74,4.46-13.71-2.11-16.15c-64.68-24.04-126.05-56.84-182.23-96.89c-55.43-39.51-105.7-86.42-148.81-139.1
					c-23.96-29.29-45.53-60.51-64.55-93.23C296.69,757.26,281.41,766.15,287.14,776.01L287.14,776.01z"/>
			</g>
		</g>
		<g class="st6">
			<path d="M280.1,858.35c-57.16,57.29-98.54,146.06-86.21,225c12.32,78.95,78.11,146.49,150.79,188.68
				c-89.35-35.19-204-103.41-212.47-170.98c-10.3-82.18,75.06-176.01,144.64-245.92"/>
			<g>
				<path d="M273.85,852.1c-47.4,47.76-82.01,111.56-89.63,178.9c-3.66,32.35,0.35,65.22,12.45,95.48
					c12.29,30.71,31.12,58.24,53.61,82.39c26.06,28,56.93,51.56,89.93,70.79c2.27-5.38,4.54-10.77,6.81-16.15
					c-35.68-14.1-70.33-31.22-102.98-51.37c-30.17-18.62-60.21-40.24-82.36-68.29c-8.42-10.66-15.56-22.61-19.05-35.56
					c-3.68-13.66-3.04-29.67-0.11-44.33c7.36-36.79,27.63-70.04,49.51-99.95c27.02-36.94,58.85-70.22,91.07-102.62
					c8.03-8.07-4.46-20.58-12.5-12.5c-30.24,30.4-59.77,61.62-85.93,95.67c-24.22,31.53-46.75,66.51-57.02,105.34
					c-4.48,16.94-6.42,34.74-4.15,52.17c1.95,15,8.09,29.04,16.37,41.62c20.24,30.71,50.44,54.34,80.76,74.46
					c38.03,25.23,79.29,45.66,121.69,62.42c9.48,3.74,15.25-11.23,6.81-16.15c-53.98-31.47-104.17-75.74-131.22-133.05
					c-12.91-27.35-18.67-57.15-17.1-87.33c1.63-31.35,10.6-62.39,23.83-90.76c15.31-32.82,36.19-62.95,61.7-88.66
					C294.37,856.52,281.88,844.01,273.85,852.1L273.85,852.1z"/>
			</g>
		</g>
		<g class="st6">
			<g>
				<path d="M147.82,1242.29c-41.23,60.49-83.51,124.89-86.6,200.42c-1.44,35.17,6.34,71.53,25.15,101.56
					c17.85,28.51,44.72,50.87,74.86,65.47c69.11,33.47,148.24,28.33,220.04,6.42c59.3-18.09,115.24-46.25,167.32-79.65
					c51.95-33.33,100.48-71.71,148.22-110.73c23.45-19.16,46.72-38.53,70.2-57.66c11.83-9.64,23.72-19.22,35.7-28.67
					c12.53-9.88,20.74-16.23,34.01-26.14c48.24-36,98.92-69.13,153.58-94.61c6.09-2.84,14.95-6.78,19.53-8.7
					c4.6-1.93,13.65-5.51,20-7.89c16.29-6.09,32.86-11.55,49.76-15.67c34.35-8.36,69.76-10.41,103.18,3.22
					c1.9,0.77,0.2,0.1-0.15-0.06c0.81,0.36,1.61,0.72,2.41,1.1c1.6,0.74,3.18,1.52,4.75,2.32c3.39,1.73,6.71,3.59,9.96,5.58
					c3.24,1.98,6.4,4.09,9.48,6.32c0.74,0.53,3.74,2.8,3.11,2.31c-1.29-1.02,0.95,0.79,0.96,0.8c0.89,0.75,1.8,1.49,2.69,2.25
					c5.78,4.93,11.22,10.28,16.29,15.94c5.86,6.55,7.43,8.55,12.35,15.8c18.14,26.76,27.82,55.12,31.07,87.65
					c7.8,77.87-18.53,152.11-29.36,228.68c-2.84,20.06-4.88,40.18-5.1,60.45c-0.1,9.55,8.2,17.68,17.68,17.68
					c9.67,0,17.57-8.09,17.68-17.68c0.83-78.54,28.89-153.91,34.79-232.39c2.83-37.68,0.53-76.97-11.89-112.91
					c-10.4-30.1-27.29-58.18-50.11-80.52c-23.51-23.02-53.55-39.97-86.15-45.61c-39.49-6.83-79.52-0.15-117.36,11.85
					c-58.65,18.59-113.93,47.05-165.44,80.47c-51.57,33.46-99.8,71.8-147.32,110.69c-23.43,19.18-46.71,38.55-70.2,57.65
					c-11.84,9.62-23.73,19.18-35.73,28.61c-2.76,2.17-5.53,4.34-8.31,6.49c-0.54,0.42-3.92,3.04-1.98,1.54
					c-1.62,1.25-3.25,2.5-4.87,3.74c-6.03,4.62-12.1,9.2-18.19,13.73c-48.28,35.87-99.05,68.8-153.8,93.97
					c-3.18,1.46-6.37,2.9-9.58,4.31c-1.6,0.71-3.22,1.4-4.82,2.1c-0.38,0.17-3.11,1.32-0.62,0.27c-1.08,0.45-2.16,0.9-3.24,1.35
					c-6.79,2.8-13.63,5.47-20.52,8.01c-16.31,6.01-32.89,11.32-49.73,15.63c-36.59,9.36-73.4,13.57-111.36,9.15
					c-31.14-3.63-60.12-14.35-85.91-32.08c-5.96-4.09-9.47-6.85-15.67-12.6c-2.87-2.67-5.65-5.44-8.32-8.32
					c-2.13-2.31-5.78-6.58-6.78-7.85c-9.08-11.67-16.47-26.47-20.76-40.77c-9.11-30.35-7.97-62.33,0-92.93
					c9.05-34.74,25.87-65.73,45.12-96.33c9.78-15.55,20.12-30.74,30.47-45.92c5.38-7.89,1.49-19.6-6.34-24.18
					C163.26,1230.84,153.21,1234.38,147.82,1242.29L147.82,1242.29z"/>
			</g>
		</g>
		<g class="st7">
			<g>
				<path class="st8" d="M546.45,1094.33c-25.64,19.46-47.33,42.83-70.26,65.27c-5.5,5.39-11.1,10.68-16.86,15.79
					c-2.64,2.34-5.32,4.64-8.04,6.88c-1.26,1.03-2.52,2.05-3.8,3.06c-0.11,0.09-2.23,1.74-0.78,0.62c1.61-1.24-1.81,1.35-2.12,1.58
					c-11.43,8.45-23.61,15.83-36.59,21.63c-0.15,0.07-2.64,1.09-0.89,0.39c1.88-0.76-2.54,0.97-2.43,0.93
					c-1.78,0.67-3.57,1.31-5.37,1.91c-3.87,1.29-7.79,2.42-11.75,3.34c-1.86,0.43-3.72,0.83-5.59,1.18
					c-1.03,0.19-5.87,0.91-2.59,0.5c-4.39,0.55-8.79,0.81-13.21,0.88c-9.24,0.14-18.11,8.03-17.68,17.68
					c0.42,9.45,7.77,17.83,17.68,17.68c31.78-0.5,62.11-12.28,88.25-29.91c26.6-17.94,48.68-41.06,71.22-63.65
					c6.47-6.49,13.02-12.92,19.77-19.12c3.27-3,6.59-5.96,9.97-8.83c1.58-1.35,3.18-2.67,4.79-3.99c0.92-0.75,1.85-1.49,2.78-2.23
					c2.57-2.04-3.19,2.4,1.37-1.06c7.34-5.57,11.94-15.49,6.34-24.18C565.96,1093.41,554.33,1088.35,546.45,1094.33L546.45,1094.33z
					"/>
			</g>
		</g>
		<g class="st7">
			<g>
				<path class="st8" d="M490.89,951.99c43.99,34.63,87.98,69.25,131.97,103.88c7.25,5.71,18.02,7.6,25,0c5.84-6.37,7.76-18.89,0-25
					c-43.99-34.63-87.98-69.25-131.97-103.88c-7.25-5.71-18.02-7.6-25,0C485.04,933.36,483.13,945.89,490.89,951.99L490.89,951.99z"
					/>
			</g>
		</g>
		<g class="st7">
			<g>
				<path class="st8" d="M741.87,836.46c-8.73,10.54-17.45,21.07-26.18,31.61c-5.89,7.11-7.48,18.13,0,25c6.51,5.98,18.7,7.6,25,0
					c8.73-10.54,17.45-21.07,26.18-31.61c5.89-7.11,7.48-18.13,0-25C760.36,830.48,748.17,828.85,741.87,836.46L741.87,836.46z"/>
			</g>
		</g>
		<g class="st7">
			<g>
				<path class="st8" d="M530.53,666.49c-5.79,6.89-11.58,13.78-17.38,20.66c-5.94,7.07-7.45,18.16,0,25c6.55,6.02,18.64,7.56,25,0
					c5.79-6.89,11.58-13.78,17.38-20.66c5.94-7.07,7.45-18.16,0-25C548.97,660.47,536.88,658.93,530.53,666.49L530.53,666.49z"/>
			</g>
		</g>
		<g class="st7">
			<g>
				<path class="st8" d="M1090.97,1101.14c-58.41,6.11-112.82,30.47-162.82,60.28c-60.36,35.99-115.8,80.03-169.71,124.92
					c-33.7,28.06-66.82,56.81-99.91,85.59c-7,6.09-6.7,18.85,0,25c7.46,6.85,17.53,6.49,25,0c29.03-25.25,58.09-50.48,87.54-75.24
					c13.88-11.67,27.85-23.24,41.95-34.63c7.1-5.74,14.24-11.44,21.42-17.08c3.3-2.59,6.61-5.18,9.93-7.75
					c-0.31,0.24-1.63,1.26-0.04,0.03c0.94-0.72,1.88-1.45,2.83-2.17c1.88-1.44,3.76-2.87,5.64-4.3c26.2-19.9,53.05-39,80.99-56.4
					c13-8.09,26.24-15.81,39.76-22.98c6.36-3.37,12.79-6.63,19.28-9.74c3.07-1.47,6.15-2.91,9.25-4.31
					c1.53-0.69,3.07-1.38,4.61-2.05c0.84-0.37,6.93-2.92,3-1.31c13.79-5.66,27.79-10.75,42.17-14.72c6.96-1.92,13.99-3.6,21.08-5
					c3.37-0.66,6.75-1.26,10.14-1.78c0.84-0.13,1.69-0.25,2.53-0.38c3.39-0.53-2.56,0.24-0.28,0.03c1.89-0.17,3.77-0.45,5.66-0.65
					c9.17-0.96,18.13-7.44,17.68-17.68C1108.25,1110.06,1100.82,1100.1,1090.97,1101.14L1090.97,1101.14z"/>
			</g>
		</g>
	</g>
	<g>
		<g id="Ebene_2_Kopie">
			<g class="st9">
				<path d="M962.39,933.64c34.94,12.05,57.93,42.84,54.36,72.81c-3.57,29.97-33.43,56.83-70.61,63.53
					c-37.18,6.69-78.83-7.3-98.51-33.09c-19.68-25.79-15.86-61.4,9.01-84.22s68.92-31.09,104.14-19.57"/>
				<g>
					<path d="M959.31,937.85c32.81,11.54,55.09,39.27,53.26,67.73c-1.73,26.91-27.42,51.11-59.75,58.84
						c-34.09,8.16-73.41-2.41-95.34-24.34c-22.07-22.07-23.89-54.68-4.79-78.35c21.48-26.62,68.81-36.02,105.02-24.42
						c4.79,1.54,10.64-6.98,6.16-8.42c-36.62-11.74-80.25-3.49-107.13,19.18c-27.46,23.17-34,60.09-15.83,88.33
						c17.71,27.54,58.9,43.19,97.25,38.94c39.15-4.34,71.3-30.09,80.74-59.82c10.83-34.07-12.89-71.85-53.43-86.11
						C960.77,927.78,954.83,936.27,959.31,937.85L959.31,937.85z"/>
				</g>
			</g>
			<g class="st9">
				<path d="M819.42,377.7c2.96-27.88,11.46-56.11,31.54-79.16c20.08-23.05,53.22-40.22,88.66-40.04
					c51.37,0.26,93.87,37.66,101.78,77.74s-12.05,80.71-40.52,114.47c-28.47,33.76-65.31,62.54-96.88,94.53
					c-51.43,52.12-89.09,114.04-97.9,179.75c-5.79,43.17,2.36,89.84,37.44,123.27c35.07,33.43,102.08,47.83,147.29,23.13
					c28.69-15.67,43.53-43.23,49.1-70.42c5.57-27.19,3.32-54.96,5.57-82.44c4.62-56.69,28.82-112.31,69.3-159.27
					c50.12-58.16,125.1-104.19,155.84-170.21c32.54-69.9,6.3-152.3-56.21-208.07c-62.5-55.77-156.78-85.94-250.97-89.87
					c-103.52-4.32-209.95,22.5-286.37,77.79S557.12,308.27,569.68,389.51c4.95,32.02,19.27,64.51,49.25,86.42
					c39.5,28.86,104.16,33.35,149.44,10.41s42.69-62.52,50.9-107.71"/>
				<g>
					<path d="M823.85,375.76c2.71-24.79,9.83-49.94,26.61-71.3c15.05-19.14,39.14-34.51,67.2-39.7
						c55.35-10.23,104.59,25.86,117.36,66.24c15.96,50.44-18.86,101-56.92,139.48c-20.59,20.83-43.35,40.25-64.61,60.65
						c-20.26,19.43-38.79,39.98-54.71,61.82c-31.12,42.7-52.63,90.28-57.81,139.56c-4.65,44.22,5.57,95.31,48.04,127.32
						c35.65,26.85,94.52,38.98,138.48,17.34c24.08-11.86,40.04-31.57,49.03-52.47c10.6-24.64,11.53-50.79,12.11-76.55
						c0.59-26.54,2.57-52.64,9.85-78.63c6.92-24.69,17.62-48.81,31.86-71.47c13.86-22.04,31.1-42.39,50.56-61.58
						c18.4-18.15,38.19-35.36,57.27-53.06c37.41-34.69,72.32-72.44,85.12-117.71c12.39-43.81,4.38-90.54-18.76-131.31
						c-23.9-42.12-63.64-76.94-112.73-101.78c-49.58-25.08-107.3-39.89-165.74-44.7c-59.26-4.87-120.06,0.54-176.45,15.75
						c-56.19,15.16-108.07,40.07-149.37,73.88c-40.75,33.35-70.44,74.98-85.84,119.67c-15.04,43.63-16.95,92.94,3.03,135.83
						c9.78,21,25.63,40.61,48.86,53.85c21.41,12.2,48.12,18.49,74.43,18.51c26.38,0.02,52.8-6.1,74.1-18.56
						c20.04-11.72,31.54-29.11,37.51-47.89c6.35-20.01,7.57-40.84,11.22-61.2c1.13-6.3-7.88-2.43-8.64,1.73
						c-3.69,20.52-4.88,41.55-11.39,61.7c-6.01,18.61-18.8,33.84-40.16,43.48c-46.18,20.82-109.53,13.67-146.23-16.75
						c-39.88-33.06-48.7-83.84-44.21-127.59c4.61-44.98,25.64-89.01,58.51-125.84c33.7-37.78,79.6-67.55,132.11-87.76
						c53.11-20.43,112.28-31.07,171.31-31.61c58.11-0.54,116.56,8.66,169.35,28c52.21,19.12,98.81,48.32,130.52,86.51
						c30.82,37.12,47.72,81.83,45.23,126.32c-1.24,22.17-7.73,43.91-19.08,64.21c-11.44,20.47-27.47,39.15-44.88,56.71
						c-35.68,35.99-77.53,68.11-109.16,106.58c-33.96,41.29-55.9,88.92-63.52,137.79c-4.15,26.62-2.6,53.39-4.85,80.09
						c-1.96,23.33-7.86,47.22-24.5,66.99c-14.58,17.33-37.34,28.44-63.54,30.67c-24.99,2.12-50.7-3.48-72.09-13.58
						c-49.78-23.52-68.72-70.7-69.5-114.27c-0.85-47.93,17.19-95.85,44.65-138.26c14.11-21.79,30.84-42.49,49.66-61.93
						c19.91-20.56,42.1-39.64,63.12-59.48c40.25-37.99,77.96-81.99,81.1-133.1c1.35-21.85-4.79-43.44-19.41-62.11
						c-13.21-16.86-33.13-31.29-57.02-37.98c-55.48-15.52-110.23,15.27-134.22,53.7c-13.2,21.15-19.22,44.32-21.78,67.68
						c-0.24,2.19,2.41,2.88,4.52,2.06C822.26,380.64,823.6,378,823.85,375.76L823.85,375.76z"/>
				</g>
			</g>
			<g class="st9">
				<path d="M905.64,999.79c-13.86-17.38-3.46-43.69,20.46-51.77"/>
				<g>
					<path d="M909.45,996.11c-11.82-15.27-4.16-36.77,16.73-44.09c4.34-1.52,6.52-10.36-0.17-8.02c-27.15,9.5-39.78,39.3-24.2,59.44
						C904.57,1007.02,911.97,999.37,909.45,996.11L909.45,996.11z"/>
				</g>
			</g>
			<g class="st9">
				<path d="M899.22,973.5c1.92-0.25,3.46,1.94,2.16,3.09c-2.39-1.04-2.53-4.2-0.24-5.37"/>
				<g>
					<path d="M897.1,977.95c0.62-0.04,0.57,0.16,0.18-0.1c0.57,0.37-0.25-0.35,0.06-0.04c0.26,0.27,0.21,0.48,0.08-0.06
						c0.03,0.08,0.06,0.15,0.09,0.23c-0.35-1.38,0.18-2.68,1.61-3.9c1.78-0.56,3.56-1.12,5.34-1.68c-0.18-0.08-0.34-0.17-0.51-0.28
						c0.66,0.41,0.14,0.08,0.04-0.09c-0.24-0.42,0.25,0.56,0.05,0.12c-0.3-0.66-0.04,0.13-0.07,0.12c-0.09-0.03,0.04-0.44-0.02-0.49
						c0.07,0.05-0.14,0.97,0,0.35c-0.14,0.64-0.48,1.23-0.94,1.77c-0.13,0.15-1.29,1.08-0.65,0.72c2.17-1.22,3.85-4.21,3.06-6.28
						c-0.88-2.3-3.69-1.5-5.48-0.49c-4.6,2.61-7.45,10.13-1.63,12.96c1.8,0.87,4.32-0.61,5.34-1.68c1.95-2.03,3.38-4.72,2.26-7.28
						c-0.66-1.49-2.41-2.93-4.56-2.78c-2.86,0.19-5.11,2.05-6.02,4.16c-0.44,1-0.77,2.14-0.37,3.19
						C895.21,977.11,896.02,978.02,897.1,977.95L897.1,977.95z"/>
				</g>
			</g>
		</g>
		<g id="Ebene_2_1_">
			<g>
				<path class="st10" d="M985.13,915.44c34.94,12.05,57.93,42.84,54.36,72.81c-3.57,29.97-33.43,56.83-70.61,63.53
					c-37.18,6.69-78.83-7.3-98.51-33.09c-19.68-25.79-15.86-61.4,9.01-84.22c24.87-22.82,68.92-31.09,104.14-19.57"/>
				<g>
					<path d="M982.05,919.65c32.81,11.54,55.09,39.27,53.26,67.73c-1.73,26.91-27.42,51.11-59.75,58.84
						c-34.09,8.16-73.41-2.41-95.34-24.34c-22.07-22.07-23.89-54.68-4.79-78.35c21.48-26.62,68.81-36.02,105.02-24.42
						c4.79,1.54,10.64-6.98,6.16-8.42c-36.62-11.74-80.25-3.49-107.13,19.18c-27.46,23.17-34,60.09-15.83,88.33
						c17.71,27.54,58.9,43.19,97.25,38.94c39.15-4.34,71.3-30.09,80.74-59.82c10.83-34.07-12.89-71.85-53.43-86.11
						C983.5,909.58,977.57,918.08,982.05,919.65L982.05,919.65z"/>
				</g>
			</g>
			<g>
				<path class="st11" d="M857.97,357.57c2.95-27.88,11.46-56.11,31.54-79.16c20.08-23.05,53.22-40.22,88.66-40.04
					c51.37,0.26,93.87,37.66,101.78,77.74c7.91,40.07-12.05,80.71-40.52,114.47c-28.47,33.76-65.31,62.54-96.88,94.53
					c-51.43,52.12-89.09,114.04-97.9,179.75c-5.79,43.17,2.36,89.84,37.44,123.27c35.07,33.43,102.08,47.83,147.29,23.13
					c28.69-15.67,43.53-43.23,49.1-70.42c5.57-27.19,3.32-54.96,5.57-82.44c4.62-56.69,28.82-112.31,69.3-159.27
					c50.12-58.16,125.1-104.19,155.84-170.21c32.54-69.9,6.3-152.3-56.21-208.07c-62.5-55.77-156.78-85.94-250.97-89.87
					c-103.49-4.34-209.93,22.49-286.35,77.78s-119.97,139.4-107.42,220.63c4.95,32.02,19.27,64.51,49.25,86.42
					c39.5,28.86,104.16,33.35,149.44,10.41s42.69-62.52,50.9-107.71"/>
				<g>
					<path d="M862.41,355.63c2.71-24.79,9.83-49.94,26.61-71.3c15.05-19.14,39.14-34.51,67.2-39.7
						c55.35-10.23,104.59,25.86,117.36,66.24c15.96,50.44-18.86,101-56.92,139.48c-20.59,20.83-43.35,40.25-64.61,60.65
						c-20.26,19.43-38.79,39.98-54.71,61.82c-31.12,42.7-52.63,90.28-57.81,139.56c-4.65,44.22,5.57,95.31,48.04,127.32
						c35.65,26.85,94.52,38.98,138.48,17.34c24.08-11.86,40.04-31.57,49.03-52.47c10.6-24.64,11.53-50.79,12.11-76.55
						c0.59-26.54,2.57-52.64,9.85-78.63c6.92-24.69,17.62-48.81,31.86-71.47c13.86-22.04,31.1-42.39,50.56-61.58
						c18.4-18.15,38.19-35.36,57.27-53.06c37.41-34.69,72.32-72.44,85.12-117.71c12.39-43.81,4.38-90.54-18.76-131.31
						c-23.9-42.12-63.64-76.94-112.73-101.78c-49.58-25.08-107.3-39.89-165.74-44.7c-59.26-4.87-120.06,0.54-176.45,15.75
						C792,98.69,740.12,123.61,698.82,157.42c-40.75,33.35-70.44,74.98-85.84,119.67c-15.04,43.63-16.95,92.94,3.03,135.83
						c9.78,21,25.63,40.61,48.86,53.85c21.41,12.2,48.12,18.49,74.43,18.51c26.38,0.02,52.8-6.1,74.1-18.56
						c20.04-11.72,31.54-29.11,37.51-47.89c6.35-20.01,7.57-40.84,11.22-61.2c1.13-6.3-7.88-2.43-8.64,1.73
						c-3.69,20.52-4.88,41.55-11.39,61.7c-6.01,18.61-18.8,33.84-40.16,43.48c-46.18,20.82-109.53,13.67-146.23-16.75
						c-39.88-33.06-48.7-83.84-44.21-127.59c4.61-44.98,25.64-89.01,58.51-125.84c33.7-37.78,79.6-67.55,132.11-87.76
						c53.11-20.43,112.28-31.07,171.31-31.61c58.11-0.54,116.56,8.66,169.35,28c52.21,19.12,98.81,48.32,130.52,86.51
						c30.82,37.12,47.72,81.83,45.23,126.32c-1.24,22.17-7.73,43.91-19.08,64.21c-11.44,20.47-27.47,39.15-44.88,56.71
						c-35.68,35.99-77.53,68.11-109.16,106.58c-33.96,41.29-55.9,88.92-63.52,137.79c-4.15,26.62-2.6,53.39-4.85,80.09
						c-1.96,23.33-7.86,47.22-24.5,66.99c-14.58,17.33-37.34,28.44-63.54,30.67c-24.99,2.12-50.7-3.48-72.09-13.58
						c-49.78-23.52-68.72-70.7-69.5-114.27c-0.85-47.93,17.19-95.85,44.65-138.26c14.11-21.79,30.84-42.49,49.66-61.93
						c19.91-20.56,42.1-39.64,63.12-59.48c40.25-37.99,77.96-81.99,81.1-133.1c1.35-21.85-4.79-43.44-19.41-62.11
						c-13.21-16.86-33.13-31.29-57.02-37.98c-55.48-15.52-110.23,15.27-134.22,53.7c-13.2,21.15-19.22,44.32-21.78,67.68
						c-0.24,2.19,2.41,2.88,4.52,2.06C860.82,360.51,862.17,357.88,862.41,355.63L862.41,355.63z"/>
				</g>
			</g>
			<g>
				<g>
					<path d="M909.45,996.11c-11.82-15.27-4.16-36.77,16.73-44.09c4.34-1.52,6.52-10.36-0.17-8.02c-27.15,9.5-39.78,39.3-24.2,59.44
						C904.57,1007.02,911.97,999.37,909.45,996.11L909.45,996.11z"/>
				</g>
			</g>
			<g>
				<path class="st10" d="M953.3,942.31c1.92-0.25,3.46,1.94,2.16,3.09c-2.39-1.04-2.53-4.2-0.24-5.37"/>
				<g>
					<path d="M951.18,946.76c0.62-0.04,0.57,0.16,0.18-0.1c0.57,0.37-0.25-0.35,0.06-0.04c0.26,0.27,0.21,0.48,0.08-0.06
						c0.03,0.08,0.06,0.15,0.09,0.23c-0.35-1.38,0.18-2.68,1.61-3.9c1.78-0.56,3.56-1.12,5.34-1.68c-0.18-0.08-0.34-0.17-0.51-0.28
						c0.66,0.41,0.14,0.08,0.04-0.09c-0.24-0.42,0.25,0.56,0.05,0.12c-0.3-0.66-0.04,0.13-0.07,0.12c-0.09-0.03,0.04-0.44-0.02-0.49
						c0.07,0.05-0.14,0.97,0,0.35c-0.14,0.64-0.48,1.23-0.94,1.77c-0.13,0.15-1.29,1.08-0.65,0.72c2.17-1.22,3.85-4.21,3.06-6.28
						c-0.88-2.3-3.69-1.5-5.48-0.49c-4.6,2.61-7.45,10.13-1.63,12.96c1.8,0.87,4.32-0.61,5.34-1.68c1.95-2.03,3.38-4.72,2.26-7.28
						c-0.66-1.49-2.41-2.93-4.56-2.78c-2.86,0.19-5.11,2.05-6.02,4.16c-0.44,1-0.77,2.14-0.37,3.19
						C949.29,945.91,950.1,946.83,951.18,946.76L951.18,946.76z"/>
				</g>
			</g>
		</g>
		<g id="Ebene_4_1_">
			<g class="st9">
				<path d="M953.3,909.74c-42.46,0.78-93.3,35.99-95.47,69.48c-2.17,33.48,42.9,69.82,85.03,74.01
					c-35.29-6.67-67.73-43.99-63.16-72.41c4.56-28.42,32.88-54.79,74.92-70.97"/>
				<g>
					<path d="M955.41,905.29c-18.75,0.47-36.67,6.41-51.97,14.72c-16.02,8.7-30.12,20.13-39.51,33.65
						c-9.04,13.01-13.01,27.52-8.79,42.14c4.25,14.72,15.41,28.08,29.01,38.49c15.45,11.83,34.98,21.08,56.58,23.37
						c4.62,0.49,9.75-7.8,4.24-8.89c-27.99-5.52-49.87-27.53-58.03-48.5c-4.09-10.51-4.12-21.08,0.17-31.56
						c4.47-10.9,12.39-20.59,22.18-28.99c12.74-10.93,28.61-19.35,45.41-25.88c2.51-0.98,4.5-3.76,4.35-5.96
						c-0.14-2.15-2.12-2.99-4.52-2.06c-31.53,12.25-60.36,31.91-73.39,58.27c-5.71,11.57-7.87,23.84-4.66,36.06
						c3.28,12.49,11.15,24.37,21.29,34.22c11.11,10.79,25.65,19.86,42.97,23.28c1.41-2.96,2.82-5.93,4.24-8.89
						c-34.17-3.62-66.5-25.88-78.37-51.12c-5.78-12.27-5.67-24.72,0.99-36.73c6.66-12,18.4-22.21,31.38-30.18
						c14.79-9.09,33.2-16.08,52.21-16.56C955.97,914.07,960.6,905.16,955.41,905.29L955.41,905.29z"/>
				</g>
			</g>
			<g class="st9">
				<path d="M1071.25,383.43c-26.78,44.78-62.1,74.34-99.7,113.98c-37.59,39.63-72.7,71.85-96.74,117.59
					c-24.03,45.74-35.99,133.46-17,180.65c18.99,47.19,84,84.05,159.28,61.18c-90.92-36.87-78.19-202.38-45.03-258.04
					c32.19-54.05,113.86-159.88,109.29-256.53"/>
				<g>
					<path d="M1067.35,383.14c-25.36,42.18-65.02,77.07-100.28,114.07c-35.35,37.11-72.63,73.22-95.58,116.42
						c-8.7,16.38-14.32,33.81-18.53,51.22c-4.77,19.69-7.63,39.71-8.61,59.73c-1.72,35.2,0.89,73.86,28.04,103.36
						c13.36,14.52,31.68,26.41,52.75,33.28c22.6,7.37,47.48,8.8,71.31,4.65c6.69-1.17,13.22-2.77,19.63-4.69
						c2.81-0.84,8.7-6.7,4.12-8.58c-32.92-13.5-49.4-42.31-58.18-69.38c-10.71-32.99-12.14-67.9-8.87-101.73
						c1.51-15.64,4.24-31.25,8.46-46.58c3.3-12,7.39-23.82,13.91-35.05c8.9-15.33,19.26-30.43,28.93-45.57
						c12.53-19.6,24.69-39.36,35.69-59.54c23.67-43.39,43.1-89.65,45.61-137.21c0.3-5.75,0.32-11.51,0.07-17.26
						c-0.09-2.12-2.18-2.97-4.52-2.06c-2.5,0.98-4.45,3.77-4.35,5.96c2.12,47.81-15.85,94.88-38.58,138.69
						c-19.59,37.75-44.41,73.42-66.84,110.1c-15.69,25.65-22.54,54.02-26.11,82.21c-4.38,34.53-3.82,69.97,5.18,104.03
						c7.49,28.35,21.96,59.13,52.87,76.68c3.37,1.91,6.9,3.61,10.59,5.12c1.37-2.86,2.75-5.72,4.12-8.58
						c-23.62,7.07-49.08,9.06-73.65,3.9c-21.69-4.56-41.45-14.63-56.36-27.8c-14.34-12.67-24.08-27.87-29.04-44.37
						c-5.2-17.29-6.42-35.29-6.21-53c0.23-19.7,2.52-39.39,6.6-58.82c3.64-17.37,8.58-34.73,16.34-51.27
						c19.44-41.42,54.79-76.26,88.27-111.02c17.75-18.42,35.87-36.58,53.75-54.92c17.3-17.74,33.75-36.05,47.28-55.76
						c3.54-5.15,6.84-10.39,10.01-15.68c0.94-1.55,0.89-4.39-1.78-4.73C1070.49,378.61,1068.33,381.52,1067.35,383.14
						L1067.35,383.14z"/>
				</g>
			</g>
			<g class="st9">
				<path d="M955.24,71.12c-64.55,8.77-154.93,27.63-206.1,57.42c-51.17,29.79-103.77,88.28-127.02,134.99
					c-23.25,46.72-19.28,121.18,9.46,165.96s83.23,63.53,154.7,44.92c-44.22-8.91-89.28-31.34-101.81-65.98
					c-12.53-34.64-7.11-71.93,5.11-106.64c33-93.71,122.35-174.08,264.41-227.87"/>
				<g>
					<path d="M956.28,66.74c-56.5,7.71-113.6,19.16-165.58,38.61c-24.58,9.2-46.83,20.93-66.67,35.65
						c-22.38,16.6-42.01,35.46-59.45,55.38c-16.89,19.3-31.94,39.74-43.53,61.36c-10.51,19.64-15.74,40.53-17.66,61.75
						c-2.04,22.47-0.33,45.25,5.1,67.38c4.95,20.2,13.23,40.42,27.63,57.73c12.93,15.53,31.17,28.38,53.24,35.2
						c23.78,7.34,49.8,7.59,74.59,3.53c7.21-1.18,14.3-2.73,21.29-4.54c3.4-0.87,8.84-7.66,3.16-8.82
						c-38.98-7.96-80.75-26.55-96.58-57.38c-9.56-18.62-11.11-40.15-9.59-60c1.53-19.78,6.8-39.45,14.17-58.36
						c11.17-28.71,27.79-55.92,48.97-80.86c22.48-26.47,50.13-50.13,80.8-70.79c34.09-22.96,71.95-42.23,111.8-58.34
						c5.34-2.16,10.71-4.25,16.11-6.31c4.26-1.62,6.41-10.51-0.17-8.02c-42.51,16.14-83.06,35.64-119.78,59.08
						c-33,21.07-62.87,45.4-87.52,72.71c-23.39,25.92-42.22,54.38-55.04,84.58c-16.3,38.42-25.54,81.07-12.77,120.99
						c11.02,34.43,49,56.95,89.98,67.97c5.06,1.36,10.19,2.57,15.37,3.62c1.05-2.94,2.11-5.88,3.16-8.82
						c-24.83,6.4-51.43,9.4-77.2,4.84c-21.88-3.87-41.49-13.52-56.12-26.89c-16.29-14.89-26.25-33.24-32.66-52.09
						c-7.08-20.83-10.07-42.51-9.87-64.05c0.19-20.75,3.23-41.93,11.62-61.68c8.67-20.4,22.28-39.68,36.86-57.77
						c29.58-36.72,67.24-72.37,116.43-93.26c24.69-10.49,51.11-18.3,77.84-24.87c26.75-6.58,54.02-11.86,81.51-16.11
						c6.14-0.95,12.3-1.84,18.46-2.68C958.73,74.87,962.53,65.89,956.28,66.74L956.28,66.74z"/>
				</g>
			</g>
		</g>
		<g id="Ebene_5_1_">
			<g class="st9">
				<g>
					<path class="st8" d="M1072.29,125.24c4.6,1.01,9.17,2.13,13.67,3.4c2.25,0.64,4.48,1.3,6.69,2c1.11,0.35,2.21,0.71,3.31,1.08
						c0.48,0.16,5.03,1.76,2.25,0.75c8.67,3.15,17.05,6.8,25.05,10.89c16.24,8.31,29.93,17.81,42.73,29.6
						c26.42,24.3,42.91,53.98,46.91,85.89c9.55,76.22-43.6,145.2-92.57,207.17c-28.34,35.87-56.53,71.95-75.42,111.69
						c-0.88,1.85,5.16,3.77,6.01,4.01c4.38,1.28,9.9,1.72,14.51,1.66c6.25-0.08,17.88-0.1,20.52-5.67
						c33.94-71.42,99.51-129.79,138.15-199.38c19.25-34.66,32.88-72.27,30.67-110.44c-1.92-33.12-16.73-65.12-42.41-91.35
						c-27.75-28.35-67.26-49.73-111.05-59.32c-9.05-1.98-20.07-2.81-29.02,0c-2.15,0.67-6.01,1.73-6.01,4.01
						C1066.28,123.37,1070.31,124.81,1072.29,125.24L1072.29,125.24z"/>
				</g>
			</g>
			<g class="st9">
				<g>
					<path class="st8" d="M975.57,963.34c6.85,12.24,6.57,26.74,1.51,39.34c-2.45,6.12-6.45,11.9-11.36,17.02
						c-5.65,5.88-10.76,9.45-18.4,12.97c-7.8,3.58,3.33,7.15,7.36,7.76c8.63,1.31,20.15,1.61,28.07-2.03
						c33.68-15.46,48.11-49.96,32.39-78.06c-1.08-1.94-7.51-3.07-9.43-3.39c-4.97-0.84-10.77-1.04-15.81-0.57
						C985.6,956.76,972.54,957.92,975.57,963.34L975.57,963.34z"/>
				</g>
			</g>
		</g>
	</g>
	<g>
		<g id="Ebene_2_Kopie_1_">
			<g class="st9">
				<path d="M1386.02,1072.97c24.21,8.23,40.14,29.27,37.67,49.74c-2.47,20.47-23.17,38.83-48.93,43.4
					c-25.76,4.57-54.63-4.99-68.26-22.61c-13.63-17.62-10.99-41.95,6.25-57.54s47.76-21.24,72.16-13.37"/>
				<g>
					<path d="M1383.88,1075.84c22.73,7.88,38.17,26.83,36.9,46.27c-1.2,18.39-19,34.92-41.4,40.2
						c-23.62,5.57-50.87-1.65-66.06-16.63c-15.29-15.07-16.55-37.35-3.32-53.53c14.89-18.18,47.68-24.61,72.77-16.69
						c3.32,1.05,7.37-4.77,4.27-5.75c-25.37-8.02-55.61-2.39-74.23,13.1c-19.03,15.83-23.56,41.05-10.97,60.35
						c12.27,18.82,40.82,29.51,67.39,26.6c27.13-2.96,49.4-20.56,55.95-40.87c7.5-23.27-8.93-49.08-37.02-58.82
						C1384.89,1068.96,1380.78,1074.77,1383.88,1075.84L1383.88,1075.84z"/>
				</g>
			</g>
			<g class="st9">
				<path d="M1286.94,693.17c2.05-19.05,7.94-38.33,21.85-54.08c13.91-15.75,36.88-27.48,61.43-27.36
					c35.59,0.18,65.05,25.73,70.53,53.11c5.48,27.38-8.35,55.14-28.08,78.2c-19.73,23.06-45.26,42.73-67.13,64.58
					c-35.64,35.61-61.74,77.91-67.84,122.8c-4.01,29.49,1.64,61.38,25.94,84.21c24.3,22.84,70.73,32.67,102.06,15.8
					c19.88-10.71,30.16-29.53,34.02-48.11c3.86-18.57,2.3-37.55,3.86-56.32c3.2-38.73,19.97-76.72,48.02-108.81
					c34.73-39.73,86.69-71.18,107.98-116.29c22.55-47.75,4.36-104.05-38.95-142.15c-43.31-38.1-108.64-58.71-173.91-61.4
					c-71.73-2.95-145.48,15.37-198.44,53.14c-52.95,37.77-83.12,95.23-74.41,150.72c3.43,21.87,13.35,44.07,34.13,59.04
					c27.37,19.71,72.17,22.79,103.55,7.11c31.38-15.68,29.58-42.71,35.27-73.58"/>
				<g>
					<path d="M1290.02,691.84c1.88-16.94,6.81-34.12,18.44-48.71c10.43-13.08,27.12-23.58,46.57-27.12
						c38.35-6.99,72.47,17.67,81.33,45.25c11.06,34.46-13.07,69-39.44,95.29c-14.27,14.23-30.04,27.5-44.77,41.43
						c-14.04,13.28-26.88,27.32-37.91,42.23c-21.56,29.17-36.47,61.68-40.06,95.34c-3.22,30.21,3.86,65.12,33.29,86.98
						c24.7,18.35,65.5,26.63,95.95,11.85c16.69-8.1,27.75-21.57,33.97-35.84c7.34-16.83,7.99-34.7,8.39-52.3
						c0.41-18.13,1.78-35.96,6.83-53.72c4.79-16.87,12.21-33.35,22.08-48.82c9.61-15.06,21.55-28.96,35.03-42.07
						c12.75-12.4,26.47-24.16,39.68-36.25c25.93-23.7,50.11-49.49,58.98-80.42c8.59-29.93,3.04-61.85-13-89.7
						c-16.56-28.77-44.1-52.56-78.12-69.53c-34.35-17.13-74.35-27.25-114.84-30.53c-41.07-3.33-83.2,0.37-122.27,10.76
						c-38.93,10.36-74.89,27.38-103.5,50.47c-28.23,22.79-48.81,51.22-59.48,81.75c-10.42,29.8-11.75,63.5,2.1,92.79
						c6.78,14.34,17.76,27.75,33.85,36.79c14.83,8.34,33.34,12.63,51.58,12.64c18.28,0.01,36.59-4.17,51.34-12.68
						c13.88-8.01,21.86-19.89,25.99-32.72c4.4-13.67,5.24-27.9,7.78-41.81c0.78-4.3-5.46-1.66-5.98,1.18
						c-2.55,14.02-3.38,28.38-7.89,42.15c-4.16,12.71-13.03,23.12-27.83,29.7c-32,14.22-75.9,9.34-101.33-11.44
						c-27.63-22.58-33.75-57.28-30.63-87.17c3.2-30.73,17.77-60.81,40.54-85.97c23.35-25.81,55.16-46.14,91.55-59.95
						c36.8-13.96,77.8-21.22,118.71-21.6c40.26-0.37,80.77,5.92,117.35,19.13c36.17,13.06,68.47,33.01,90.44,59.1
						c21.36,25.36,33.07,55.91,31.34,86.3c-0.86,15.15-5.36,30-13.22,43.86c-7.93,13.98-19.04,26.74-31.1,38.74
						c-24.73,24.59-53.72,46.53-75.64,72.81c-23.53,28.21-38.73,60.75-44.01,94.13c-2.87,18.18-1.8,36.48-3.36,54.72
						c-1.36,15.94-5.44,32.26-16.98,45.77c-10.1,11.84-25.87,19.43-44.03,20.95c-17.32,1.45-35.13-2.38-49.95-9.28
						c-34.5-16.07-47.62-48.3-48.16-78.07c-0.59-32.74,11.91-65.48,30.94-94.45c9.78-14.88,21.37-29.03,34.41-42.31
						c13.8-14.04,29.17-27.08,43.74-40.63c27.89-25.95,54.02-56.01,56.2-90.93c0.93-14.92-3.32-29.68-13.45-42.43
						c-9.15-11.52-22.96-21.38-39.51-25.94c-38.44-10.6-76.38,10.43-93,36.69c-9.15,14.45-13.32,30.28-15.09,46.24
						c-0.16,1.5,1.67,1.97,3.13,1.41C1288.91,695.18,1289.85,693.37,1290.02,691.84L1290.02,691.84z"/>
				</g>
			</g>
			<g class="st9">
				<path d="M1346.69,1118.16c-9.61-11.87-2.4-29.85,14.18-35.36"/>
				<g>
					<path d="M1349.34,1115.65c-8.19-10.43-2.88-25.12,11.59-30.12c3.01-1.04,4.52-7.07-0.12-5.48
						c-18.81,6.49-27.56,26.85-16.77,40.61C1345.95,1123.1,1351.08,1117.87,1349.34,1115.65L1349.34,1115.65z"/>
				</g>
			</g>
			<g class="st9">
				<path d="M1342.24,1100.2c1.33-0.17,2.39,1.33,1.5,2.11c-1.66-0.71-1.75-2.87-0.16-3.67"/>
				<g>
					<path d="M1340.78,1103.24c0.43-0.03,0.4,0.11,0.13-0.07c0.39,0.25-0.17-0.24,0.04-0.03c0.18,0.19,0.15,0.33,0.06-0.04
						c0.02,0.05,0.04,0.1,0.06,0.15c-0.24-0.94,0.13-1.83,1.11-2.67c1.23-0.39,2.47-0.77,3.7-1.15c-0.13-0.06-0.24-0.12-0.35-0.19
						c0.46,0.28,0.1,0.05,0.03-0.06c-0.16-0.29,0.17,0.39,0.03,0.08c-0.2-0.45-0.03,0.09-0.05,0.08c-0.06-0.02,0.03-0.3-0.02-0.34
						c0.05,0.04-0.1,0.66,0,0.24c-0.1,0.44-0.34,0.84-0.65,1.21c-0.09,0.1-0.89,0.74-0.45,0.49c1.5-0.84,2.67-2.88,2.12-4.29
						c-0.61-1.57-2.56-1.02-3.8-0.33c-3.19,1.78-5.16,6.92-1.13,8.85c1.25,0.6,2.99-0.42,3.7-1.15c1.35-1.39,2.34-3.23,1.56-4.97
						c-0.46-1.02-1.67-2-3.16-1.9c-1.98,0.13-3.54,1.4-4.17,2.84c-0.3,0.69-0.53,1.46-0.26,2.18
						C1339.47,1102.66,1340.02,1103.29,1340.78,1103.24L1340.78,1103.24z"/>
				</g>
			</g>
		</g>
		<g id="Ebene_2_2_">
			<g>
				<path class="st10" d="M1401.77,1060.53c24.21,8.23,40.14,29.27,37.67,49.74c-2.47,20.47-23.17,38.83-48.93,43.4
					c-25.76,4.57-54.63-4.99-68.26-22.61c-13.63-17.62-10.99-41.95,6.25-57.54c17.23-15.59,47.76-21.24,72.16-13.37"/>
				<g>
					<path d="M1399.64,1063.41c22.73,7.88,38.17,26.83,36.9,46.27c-1.2,18.39-19,34.92-41.4,40.2
						c-23.62,5.57-50.87-1.65-66.06-16.63c-15.29-15.07-16.55-37.35-3.32-53.53c14.89-18.18,47.68-24.61,72.77-16.69
						c3.32,1.05,7.37-4.77,4.27-5.75c-25.37-8.02-55.61-2.39-74.23,13.1c-19.03,15.83-23.56,41.05-10.97,60.35
						c12.27,18.82,40.82,29.51,67.39,26.6c27.13-2.96,49.4-20.56,55.95-40.87c7.5-23.27-8.93-49.08-37.02-58.82
						C1400.65,1056.53,1396.53,1062.33,1399.64,1063.41L1399.64,1063.41z"/>
				</g>
			</g>
			<g>
				<path class="st11" d="M1313.66,679.41c2.05-19.05,7.94-38.33,21.85-54.08c13.91-15.75,36.88-27.48,61.43-27.36
					c35.59,0.18,65.05,25.73,70.53,53.11c5.48,27.38-8.35,55.14-28.08,78.2s-45.26,42.73-67.13,64.58
					c-35.64,35.61-61.74,77.91-67.84,122.8c-4.01,29.49,1.64,61.38,25.94,84.21c24.3,22.84,70.73,32.67,102.06,15.8
					c19.88-10.71,30.16-29.53,34.02-48.11c3.86-18.57,2.3-37.55,3.86-56.32c3.2-38.73,19.97-76.72,48.02-108.81
					c34.73-39.73,86.69-71.18,107.98-116.29c22.55-47.75,4.36-104.05-38.95-142.15c-43.31-38.1-108.64-58.71-173.91-61.4
					c-71.71-2.96-145.47,15.36-198.42,53.14s-83.13,95.23-74.43,150.73c3.43,21.87,13.35,44.07,34.13,59.04
					c27.37,19.71,72.17,22.79,103.55,7.11c31.38-15.68,29.58-42.71,35.27-73.58"/>
				<g>
					<path d="M1316.74,678.09c1.88-16.94,6.81-34.12,18.44-48.71c10.43-13.08,27.12-23.58,46.57-27.12
						c38.35-6.99,72.47,17.67,81.33,45.25c11.06,34.46-13.07,69-39.44,95.29c-14.27,14.23-30.04,27.5-44.77,41.43
						c-14.04,13.28-26.88,27.32-37.91,42.23c-21.56,29.17-36.47,61.68-40.06,95.34c-3.22,30.21,3.86,65.12,33.29,86.98
						c24.7,18.35,65.5,26.63,95.95,11.85c16.69-8.1,27.75-21.57,33.97-35.84c7.34-16.83,7.99-34.7,8.39-52.3
						c0.41-18.13,1.78-35.96,6.83-53.72c4.79-16.87,12.21-33.35,22.08-48.82c9.61-15.06,21.55-28.96,35.03-42.07
						c12.75-12.4,26.47-24.16,39.68-36.25c25.93-23.7,50.11-49.49,58.98-80.42c8.59-29.93,3.04-61.85-13-89.7
						c-16.56-28.77-44.1-52.56-78.12-69.53c-34.35-17.13-74.35-27.25-114.84-30.53c-41.07-3.33-83.2,0.37-122.27,10.76
						c-38.93,10.36-74.89,27.38-103.5,50.47c-28.23,22.79-48.81,51.22-59.48,81.75c-10.42,29.8-11.75,63.5,2.1,92.79
						c6.78,14.34,17.76,27.75,33.85,36.79c14.83,8.34,33.34,12.63,51.58,12.64c18.28,0.01,36.59-4.17,51.34-12.68
						c13.88-8.01,21.86-19.89,25.99-32.72c4.4-13.67,5.24-27.9,7.78-41.81c0.78-4.3-5.46-1.66-5.98,1.18
						c-2.55,14.02-3.38,28.38-7.89,42.15c-4.16,12.71-13.03,23.12-27.83,29.7c-32,14.22-75.9,9.34-101.33-11.44
						c-27.63-22.58-33.75-57.28-30.63-87.17c3.2-30.73,17.77-60.81,40.54-85.97c23.35-25.81,55.16-46.14,91.55-59.95
						c36.8-13.96,77.8-21.22,118.71-21.6c40.26-0.37,80.77,5.92,117.35,19.13c36.17,13.06,68.47,33.01,90.44,59.1
						c21.36,25.36,33.07,55.91,31.34,86.3c-0.86,15.15-5.36,30-13.22,43.86c-7.93,13.98-19.04,26.74-31.1,38.74
						c-24.73,24.59-53.72,46.53-75.64,72.81c-23.53,28.21-38.73,60.75-44.01,94.13c-2.87,18.18-1.8,36.48-3.36,54.72
						c-1.36,15.94-5.44,32.26-16.98,45.77c-10.1,11.84-25.87,19.43-44.03,20.95c-17.32,1.45-35.13-2.38-49.95-9.28
						c-34.5-16.07-47.62-48.3-48.16-78.07c-0.59-32.74,11.91-65.48,30.94-94.45c9.78-14.88,21.37-29.03,34.41-42.31
						c13.8-14.04,29.17-27.08,43.74-40.63c27.89-25.95,54.02-56.01,56.2-90.93c0.93-14.92-3.32-29.68-13.45-42.43
						c-9.15-11.52-22.96-21.38-39.51-25.94c-38.44-10.6-76.38,10.43-93,36.69c-9.15,14.45-13.32,30.28-15.09,46.24
						c-0.16,1.5,1.67,1.97,3.13,1.41C1315.63,681.42,1316.57,679.62,1316.74,678.09L1316.74,678.09z"/>
				</g>
			</g>
			<g>
				<g>
					<path d="M1349.34,1115.65c-8.19-10.43-2.88-25.12,11.59-30.12c3.01-1.04,4.52-7.07-0.12-5.48
						c-18.81,6.49-27.56,26.85-16.77,40.61C1345.95,1123.1,1351.08,1117.87,1349.34,1115.65L1349.34,1115.65z"/>
				</g>
			</g>
			<g>
				<path class="st10" d="M1379.71,1078.89c1.33-0.17,2.39,1.33,1.5,2.11c-1.66-0.71-1.75-2.87-0.17-3.67"/>
				<g>
					<path d="M1378.25,1081.93c0.43-0.03,0.4,0.11,0.13-0.07c0.39,0.25-0.17-0.24,0.04-0.03c0.18,0.19,0.15,0.33,0.06-0.04
						c0.02,0.05,0.04,0.1,0.06,0.15c-0.24-0.94,0.13-1.83,1.11-2.67c1.23-0.39,2.47-0.77,3.7-1.15c-0.13-0.06-0.24-0.12-0.35-0.19
						c0.46,0.28,0.1,0.05,0.03-0.06c-0.16-0.29,0.17,0.39,0.03,0.08c-0.2-0.45-0.03,0.09-0.05,0.08c-0.06-0.02,0.03-0.3-0.02-0.34
						c0.05,0.04-0.1,0.66,0,0.24c-0.1,0.44-0.34,0.84-0.65,1.21c-0.09,0.1-0.89,0.74-0.45,0.49c1.5-0.84,2.67-2.88,2.12-4.29
						c-0.61-1.57-2.56-1.02-3.8-0.33c-3.19,1.78-5.16,6.92-1.13,8.85c1.25,0.6,2.99-0.42,3.7-1.15c1.35-1.39,2.34-3.23,1.56-4.97
						c-0.46-1.02-1.67-2-3.16-1.9c-1.98,0.13-3.54,1.4-4.17,2.84c-0.3,0.69-0.53,1.46-0.26,2.18
						C1376.94,1081.35,1377.5,1081.98,1378.25,1081.93L1378.25,1081.93z"/>
				</g>
			</g>
		</g>
		<g id="Ebene_4_2_">
			<g class="st9">
				<path d="M1379.71,1056.64c-29.42,0.53-64.65,24.59-66.16,47.46c-1.5,22.88,29.72,47.7,58.92,50.56
					c-24.45-4.56-46.93-30.05-43.77-49.47c3.16-19.42,22.79-37.43,51.91-48.49"/>
				<g>
					<path d="M1381.18,1053.6c-12.99,0.32-25.41,4.38-36.01,10.06c-11.1,5.95-20.87,13.75-27.38,22.99
						c-6.26,8.89-9.02,18.8-6.09,28.79c2.95,10.06,10.68,19.18,20.1,26.3c10.7,8.08,24.24,14.4,39.21,15.96
						c3.2,0.33,6.76-5.33,2.94-6.07c-19.4-3.77-34.55-18.81-40.21-33.13c-2.83-7.18-2.86-14.4,0.12-21.56
						c3.09-7.45,8.58-14.07,15.37-19.8c8.83-7.46,19.82-13.22,31.47-17.68c1.74-0.67,3.12-2.57,3.01-4.07
						c-0.1-1.47-1.47-2.05-3.13-1.41c-21.85,8.37-41.83,21.8-50.86,39.81c-3.96,7.9-5.45,16.28-3.23,24.63
						c2.27,8.53,7.72,16.65,14.75,23.38c7.7,7.37,17.77,13.57,29.78,15.91c0.98-2.02,1.96-4.05,2.93-6.07
						c-23.68-2.47-46.08-17.68-54.31-34.93c-4-8.39-3.93-16.89,0.69-25.09c4.61-8.19,12.75-15.17,21.74-20.62
						c10.25-6.21,23.01-10.99,36.17-11.31C1381.57,1059.59,1384.78,1053.51,1381.18,1053.6L1381.18,1053.6z"/>
				</g>
			</g>
			<g class="st9">
				<path d="M1461.45,697.08c-18.55,30.59-43.03,50.79-69.08,77.87s-50.38,49.09-67.03,80.34c-16.65,31.25-24.94,91.18-11.78,123.42
					c13.16,32.24,58.2,57.42,110.37,41.8c-63-25.19-54.18-138.26-31.2-176.28c22.31-36.92,78.9-109.22,75.73-175.26"/>
				<g>
					<path d="M1458.75,696.88c-17.57,28.82-45.05,52.65-69.49,77.93c-24.5,25.35-50.33,50.02-66.23,79.54
						c-6.03,11.19-9.92,23.1-12.84,34.99c-3.3,13.45-5.29,27.13-5.97,40.81c-1.19,24.05,0.62,50.46,19.43,70.61
						c9.26,9.92,21.96,18.04,36.55,22.74c15.66,5.04,32.9,6.01,49.41,3.18c4.64-0.8,9.16-1.89,13.6-3.2
						c1.95-0.58,6.03-4.58,2.86-5.86c-22.81-9.22-34.23-28.91-40.32-47.4c-7.42-22.54-8.41-46.38-6.15-69.5
						c1.05-10.68,2.94-21.35,5.86-31.82c2.29-8.2,5.12-16.27,9.64-23.95c6.17-10.47,13.34-20.79,20.04-31.13
						c8.68-13.39,17.11-26.89,24.73-40.67c16.4-29.64,29.87-61.25,31.61-93.74c0.21-3.93,0.22-7.86,0.05-11.79
						c-0.06-1.45-1.51-2.03-3.13-1.41c-1.73,0.67-3.08,2.57-3.01,4.07c1.47,32.66-10.98,64.82-26.73,94.75
						c-13.57,25.79-30.77,50.16-46.32,75.22c-10.87,17.52-15.62,36.91-18.09,56.16c-3.03,23.59-2.64,47.8,3.59,71.07
						c5.19,19.36,15.22,40.39,36.64,52.39c2.33,1.31,4.78,2.47,7.34,3.5c0.95-1.95,1.91-3.91,2.86-5.86
						c-16.36,4.83-34.01,6.19-51.03,2.67c-15.03-3.11-28.72-9.99-39.05-18.99c-9.94-8.66-16.69-19.04-20.12-30.31
						c-3.6-11.81-4.45-24.11-4.31-36.21c0.16-13.46,1.75-26.91,4.57-40.19c2.53-11.87,5.94-23.73,11.32-35.02
						c13.47-28.29,37.97-52.1,61.17-75.85c12.3-12.58,24.86-24.99,37.24-37.52c11.98-12.12,23.39-24.63,32.76-38.1
						c2.45-3.52,4.74-7.1,6.94-10.71c0.65-1.06,0.61-3-1.23-3.23C1460.92,693.79,1459.42,695.77,1458.75,696.88L1458.75,696.88z"/>
				</g>
			</g>
			<g class="st9">
				<path d="M1381.06,483.72c-44.73,5.99-107.36,18.88-142.82,39.23c-35.46,20.35-71.91,60.31-88.01,92.22
					c-16.11,31.92-13.36,82.79,6.56,113.38c19.92,30.59,57.67,43.4,107.2,30.69c-30.64-6.09-61.87-21.41-70.55-45.08
					c-8.68-23.67-4.93-49.14,3.54-72.85c22.87-64.02,84.78-118.93,183.22-155.67"/>
				<g>
					<path d="M1381.78,480.73c-39.15,5.26-78.72,13.09-114.74,26.38c-17.04,6.29-32.45,14.3-46.2,24.35
						c-15.51,11.34-29.11,24.23-41.19,37.83c-11.71,13.18-22.13,27.15-30.16,41.92c-7.29,13.41-10.91,27.69-12.24,42.18
						c-1.41,15.35-0.23,30.92,3.53,46.03c3.43,13.8,9.17,27.62,19.15,39.44c8.96,10.61,21.6,19.39,36.89,24.05
						c16.48,5.02,34.51,5.18,51.69,2.41c4.99-0.81,9.91-1.87,14.75-3.1c2.35-0.6,6.13-5.23,2.19-6.03
						c-27.01-5.44-55.95-18.14-66.92-39.2c-6.63-12.72-7.7-27.43-6.64-40.99c1.06-13.51,4.72-26.95,9.82-39.87
						c7.74-19.62,19.26-38.2,33.93-55.24c15.58-18.09,34.74-34.25,55.99-48.36c23.62-15.69,49.86-28.85,77.47-39.86
						c3.7-1.47,7.42-2.9,11.17-4.31c2.95-1.11,4.44-7.18-0.12-5.48c-29.46,11.02-57.56,24.35-83,40.36
						c-22.87,14.39-43.56,31.02-60.64,49.67c-16.21,17.71-29.25,37.15-38.14,57.78c-11.3,26.24-17.7,55.38-8.85,82.66
						c7.63,23.52,33.96,38.91,62.35,46.43c3.51,0.93,7.06,1.75,10.65,2.47c0.73-2.01,1.46-4.02,2.19-6.03
						c-17.21,4.37-35.63,6.42-53.49,3.31c-15.16-2.64-28.75-9.24-38.89-18.37c-11.29-10.17-18.19-22.71-22.63-35.59
						c-4.9-14.23-6.98-29.04-6.84-43.75c0.13-14.18,2.24-28.65,8.05-42.14c6.01-13.94,15.44-27.11,25.54-39.47
						c20.5-25.09,46.6-49.44,80.68-63.71c17.11-7.16,35.42-12.5,53.94-16.99c18.54-4.49,37.43-8.1,56.48-11.01
						c4.25-0.65,8.52-1.26,12.79-1.83C1383.48,486.28,1386.11,480.15,1381.78,480.73L1381.78,480.73z"/>
				</g>
			</g>
		</g>
		<g id="Ebene_5_2_">
			<g class="st9">
				<g>
					<path class="st8" d="M1462.17,520.69c3.19,0.69,6.35,1.46,9.47,2.32c1.56,0.43,3.11,0.89,4.64,1.37
						c0.77,0.24,1.53,0.48,2.29,0.73c0.34,0.11,3.49,1.2,1.56,0.51c6.01,2.15,11.81,4.64,17.36,7.44
						c11.26,5.68,20.74,12.17,29.61,20.22c18.31,16.6,29.74,36.88,32.51,58.67c6.62,52.07-30.21,99.2-64.14,141.53
						c-19.64,24.5-39.17,49.15-52.26,76.3c-0.61,1.27,3.58,2.57,4.16,2.74c3.04,0.87,6.86,1.17,10.06,1.13
						c4.33-0.05,12.39-0.07,14.22-3.87c23.52-48.79,68.95-88.67,95.73-136.21c13.34-23.68,22.79-49.37,21.25-75.45
						c-1.33-22.62-11.59-44.48-29.39-62.41c-19.23-19.37-46.61-33.97-76.95-40.52c-6.27-1.35-13.91-1.92-20.11,0
						c-1.49,0.46-4.16,1.18-4.16,2.74C1458,519.41,1460.79,520.4,1462.17,520.69L1462.17,520.69z"/>
				</g>
			</g>
			<g class="st9">
				<g>
					<path class="st8" d="M1395.15,1093.26c4.74,8.36,4.55,18.27,1.05,26.88c-1.7,4.18-4.47,8.13-7.87,11.63
						c-3.91,4.02-7.46,6.46-12.75,8.86c-5.4,2.45,2.31,4.88,5.1,5.3c5.98,0.89,13.96,1.1,19.45-1.39
						c23.34-10.56,33.34-34.13,22.44-53.33c-0.75-1.33-5.2-2.09-6.54-2.32c-3.45-0.57-7.46-0.71-10.95-0.39
						C1402.1,1088.76,1393.05,1089.56,1395.15,1093.26L1395.15,1093.26z"/>
				</g>
			</g>
		</g>
	</g>
</g>
</svg>
