<?xml version="1.0" encoding="utf-8"?>
<!-- Generator: Adobe Adobe Illustrator 24.2.0, SVG Export Plug-In . SVG Version: 6.00 Build 0)  -->
<svg version="1.1" xmlns="http://www.w3.org/2000/svg" xmlns:xlink="http://www.w3.org/1999/xlink" x="0px" y="0px"
	 viewBox="0 0 1700.79 1700.79" style="enable-background:new 0 0 1700.79 1700.79;" xml:space="preserve">
<style type="text/css">
	.st0{fill:#7E8D9C;}
	.st1{fill:#3D4D5B;}
	.st2{fill:#D3E1EC;}
	.st3{fill:#808E9C;}
	.st4{fill:#F3C159;}
	.st5{fill:#F3C158;}
	.st6{opacity:0.2784;}
	.st7{opacity:0.0784;}
	.st8{fill:#FFFFFF;}
	.st9{opacity:0.149;}
	.st10{fill:#C9316B;}
	.st11{fill:#F4F5E8;}
	.st12{fill:#6379B8;}
	.st13{fill:#F3C057;stroke:#000000;stroke-width:3.1625;stroke-miterlimit:10;}
	.st14{fill:#C8316B;}
	.st15{fill:#6478B7;}
	.st16{fill:#6378B7;}
</style>
<g id="Ebene_4">
</g>
<g id="Ebene_3">
</g>
<g id="Ebene_14">
</g>
<g id="Ebene_5">
</g>
<g id="Ebene_6">
</g>
<g id="Ebene_7">
	<g>
		<g>
			<path class="st0" d="M278.36,842.07c-92.02,103.45-255.44,244.96-46.42,386.24c182.07,123.06,297.75-32.6,382.53-121.22"/>
			<g>
				<path d="M272.11,835.82c-39.33,44.17-82.14,85.99-114.14,136.1c-15,23.49-27.75,49.32-33.33,76.8
					c-5.56,27.4-3.69,55.78,6.93,81.76c13.65,33.42,38.38,60.84,66.12,83.39c32.05,26.05,68.28,48.45,108.11,60.29
					c30.67,9.11,63.04,11,94.45,4.76c28.86-5.73,56.16-18.37,80.72-34.36c48.66-31.67,87.54-75.31,126.8-117.46
					c4.29-4.61,8.6-9.2,12.95-13.75c7.86-8.22-4.62-20.74-12.5-12.5c-37.48,39.21-72.69,81.3-116.1,114.28
					c-44.94,34.14-98.93,57.1-156.28,47.82c-36.09-5.84-69.36-21.95-99.45-42.26c-30.69-20.72-60.39-45.9-79.33-78.22
					c-13.59-23.2-19.78-48.74-17.42-75.34c2.2-24.75,12.28-49.6,24.73-71.6c28.1-49.67,68.85-90.81,107.07-132.64
					c4.41-4.83,8.81-9.68,13.16-14.57C292.15,839.85,279.69,827.31,272.11,835.82L272.11,835.82z"/>
			</g>
		</g>
		<g>
			<path class="st1" d="M511.3,912.44C342.92,780.1,308.43,726.34,263.9,781.93c-51.11,63.8,372.94,384.38,427.58,332.44
				c47.2-44.86-6.67-61.43-180.87-203.22"/>
			<g>
				<path d="M517.55,906.19c-32.06-25.22-63.58-51.1-95.02-77.09c-21.4-17.69-42.69-35.68-65.22-51.94
					c-23-16.61-54.7-36.87-82.3-18.02c-9.74,6.65-21.17,17.04-23.53,29.16c-2.24,11.53,1.65,23.04,6.49,33.38
					c6.3,13.46,15.22,25.61,24.38,37.24c11.69,14.83,24.54,28.72,37.83,42.12c32.32,32.58,67.42,62.43,103.61,90.6
					c37.56,29.24,76.46,56.87,117.11,81.67c31.61,19.29,64.84,38.21,100.27,49.53c11.3,3.61,23.74,6.82,35.7,5.91
					c12.05-0.92,20.16-6.38,27.86-15.48c7.98-9.43,13.44-20.37,11.27-32.98c-2.16-12.56-11.43-23.2-20.08-31.97
					c-14.84-15.05-31.86-28-48.48-40.97c-26.67-20.8-53.6-41.25-80.19-62.15c-16.91-13.29-33.72-26.72-50.4-40.3
					c-3.7-3.01-8.88-3.62-12.5,0c-3.11,3.11-3.72,9.47,0,12.5c30.91,25.14,62.27,49.72,93.82,74.05c20.9,16.12,42.03,32,62.36,48.84
					c7.04,5.84,14,11.81,20.55,18.2c2.62,2.56,5.17,5.18,7.59,7.93c1.04,1.19,2.04,2.41,3.05,3.63c0.88,1.06-1.05-1.49,0.22,0.28
					c0.48,0.68,0.98,1.34,1.45,2.03c1.5,2.19,2.74,4.48,3.97,6.82c1.09,2.08-0.31-1.11,0-0.04c0.14,0.5,0.39,0.98,0.54,1.48
					c0.33,1.09,0.58,2.19,0.88,3.29c0.41,1.49-0.03,0.71-0.02-0.55c0,0.53,0.14,1.07,0.14,1.61c0.02,1.07-0.06,2.14-0.05,3.2
					c0.02,2.13,0.44-1.27,0.06-0.41c-0.18,0.41-0.17,0.97-0.29,1.41c-0.3,1.07-0.67,2.12-0.97,3.18c-0.54,1.9,0.77-1.49,0.16-0.34
					c-0.25,0.46-0.43,0.96-0.69,1.42c-0.63,1.16-1.26,2.3-1.98,3.41c-0.69,1.07-1.44,2.08-2.19,3.1c1.01-1.4,0.7-0.86-0.09,0.07
					c-0.53,0.63-1.06,1.26-1.6,1.88c-2.01,2.28-4.24,4.32-6.35,6.5c-1.54,1.59,1.81-0.88-0.37,0.27c-0.76,0.4-1.6,0.82-2.32,1.28
					c-1,0.63,2.43-0.75,0.71-0.3c-0.4,0.1-0.78,0.3-1.18,0.41c-1,0.28-2,0.52-3.01,0.77c-3.01,0.73,1.38,0.03-0.94,0.16
					c-1.12,0.06-2.24,0.17-3.37,0.19c-2.34,0.05-4.68-0.08-7-0.32c-0.66-0.07-1.33-0.16-1.99-0.23c0.67,0.07,1.82,0.3-0.15-0.04
					c-1.43-0.25-2.85-0.49-4.27-0.78c-6.28-1.28-12.44-3.08-18.5-5.14c-3.36-1.14-6.68-2.36-9.99-3.65
					c-1.85-0.72-3.69-1.46-5.53-2.22c-0.53-0.22-3-1.26-1.03-0.42c-1.06-0.45-2.13-0.91-3.19-1.37
					c-16.76-7.32-32.99-15.82-48.9-24.82c-38.48-21.78-75.27-46.59-110.84-72.83c-36.29-26.77-71.8-55.6-105.32-86.69
					c-14.77-13.69-29.14-27.84-42.73-42.71c-5.86-6.41-11.57-12.96-17.04-19.71c-1.33-1.63-2.63-3.28-3.94-4.94
					c-0.9-1.14,0.74,0.99-0.71-0.92c-0.68-0.89-1.35-1.78-2.02-2.67c-2.17-2.91-4.28-5.86-6.32-8.86
					c-3.7-5.46-7.18-11.08-10.17-16.96c-0.68-1.34-1.33-2.69-1.96-4.05c-0.27-0.58-0.52-1.17-0.78-1.76c0.9,2,0.23,0.58-0.17-0.47
					c-0.87-2.29-1.68-4.6-2.31-6.98c-0.29-1.09-0.52-2.19-0.75-3.29c-0.12-0.56-0.17-1.13-0.29-1.68c0.36,1.7,0.15,1.72,0.06,0.17
					c-0.11-1.9,0.22-3.92,0.05-5.78c0.28,3.03-0.13,0.8,0.23-0.61c0.33-1.29,1.79-3.62,0.15-0.93c0.41-0.67,0.73-1.45,1.11-2.15
					c0.19-0.35,0.49-0.66,0.66-1.02c0.59-1.2-1.58,1.87,0.18-0.21c2.36-2.79,4.75-5.54,7.39-8.08c1.06-1.02,2.16-1.98,3.27-2.94
					c0.81-0.69,1.76-1.36,0.26-0.26c0.68-0.5,1.35-1.01,2.05-1.48c1.14-0.78,2.31-1.51,3.51-2.17c1.16-0.64,4.54-1.95,2.08-1.1
					c2.52-0.86,4.94-1.57,7.57-2.05c-3.23,0.59,0.91-0.01,1.92-0.03c1.4-0.03,2.78,0.09,4.18,0.16c2.47,0.13-0.73-0.19,0.27,0.01
					c0.65,0.13,1.3,0.22,1.94,0.35c1.52,0.3,3.02,0.69,4.5,1.12c1.49,0.44,2.96,0.94,4.42,1.49c0.81,0.3,1.61,0.63,2.41,0.95
					c-2.02-0.82,0.15,0.08,0.91,0.43c3.48,1.6,6.87,3.4,10.19,5.32c18.62,10.78,34.69,23.94,51.11,37.22
					c25.86,20.91,51.29,42.35,77.07,63.34c16.23,13.22,32.57,26.31,49.03,39.26c3.75,2.95,8.84,3.66,12.5,0
					C520.61,915.62,521.32,909.15,517.55,906.19L517.55,906.19z"/>
			</g>
		</g>
		<g>
			<path class="st2" d="M376.97,792.92C516.68,636.57,528.35,623.26,562.3,654.22c22.97,20.94,19.78,11.61-133.32,189"/>
			<g>
				<path d="M383.21,799.17c23.43-26.22,46.79-52.51,70.56-78.41c15.03-16.38,30.15-32.79,46.41-47.96
					c2.85-2.66,5.75-5.28,8.72-7.81c1.24-1.06,2.49-2.11,3.76-3.14c0.64-0.52,1.28-1.03,1.93-1.54c0.94-0.75-1.32,1-0.38,0.29
					c0.38-0.29,0.77-0.59,1.16-0.87c4.22-3.1,8.55-5.85,13.23-8.19c2.43-1.21-1.74,0.49,0.99-0.4c0.99-0.32,1.96-0.68,2.96-0.94
					c0.82-0.22,1.72-0.29,2.51-0.55c1.52-0.5-2.29,0.05-0.72,0.09c0.47,0.01,0.96-0.1,1.44-0.11c0.78-0.01,1.56,0,2.34,0.02
					c2.76,0.04-1.38-0.51,0.54,0.04c1.59,0.45,3.16,0.9,4.74,1.41c-2.54-0.82-0.87-0.38,0.37,0.25c0.85,0.43,1.67,0.9,2.48,1.4
					c0.75,0.46,1.48,0.94,2.21,1.44c0.73,0.51,3.66,2.8,1.05,0.7c2.93,2.35,5.74,4.84,8.52,7.37c1.72,1.57,3.36,3.17,4.98,4.84
					c1.89,1.97-1.16-1.95,0.47,0.64c0.21,0.33,0.36,0.79,0.61,1.09c0.93,1.1-0.97-2.53-0.31-0.68c0.13,0.36,0.27,0.8,0.29,1.18
					c0.06,0.88-0.81-2.84-0.16-0.77c0.11,0.36-0.22,1.02-0.06,1.33c-0.33-0.63,0.64-2.58,0-0.54c-0.16,0.51-0.31,1.03-0.45,1.54
					c-0.08,0.29-0.25,0.57-0.32,0.87c-0.35,1.54,1.04-1.99,0.37-0.86c-0.77,1.31-1.35,2.75-2.12,4.07
					c-2.12,3.64-4.63,7.05-7.15,10.42c-0.34,0.46-0.69,0.9-1.04,1.36c1.64-2.15,0.22-0.29-0.19,0.23c-0.97,1.23-1.94,2.45-2.93,3.67
					c-2.11,2.61-4.25,5.19-6.41,7.76c-32.88,39.13-67.41,76.92-100.93,115.5c-6.67,7.67-13.32,15.36-19.96,23.05
					c-7.4,8.57,5.05,21.13,12.5,12.5c38.33-44.4,77.65-87.95,115.77-132.52c8.25-9.64,16.74-19.36,23.7-29.99
					c3.66-5.6,7.14-12.09,6.86-18.98c-0.25-6.35-3.91-11.43-8.32-15.69c-5.58-5.4-11.55-10.85-18.21-14.87
					c-20.23-12.23-39.98-0.34-56.1,12.97c-15.12,12.48-28.69,26.87-42.1,41.12c-22.15,23.55-43.65,47.69-65.2,71.78
					c-6.98,7.8-13.95,15.6-20.92,23.4C363.16,795.13,375.62,807.68,383.21,799.17L383.21,799.17z"/>
			</g>
		</g>
		<g>
			<path class="st2" d="M588,959.8C734.9,809.42,740.55,796.59,769.46,822.01c31.9,28.05,18.36,21.54-126.76,189.97"/>
			<g>
				<path d="M594.25,966.05c39.1-40.03,77.11-81.45,117.92-119.76c5.25-4.93,10.58-9.78,16.17-14.33c1.01-0.83,2.04-1.64,3.07-2.45
					c-2.16,1.68,1.23-0.9,1.92-1.39c1.94-1.39,3.93-2.73,5.98-3.94c1.68-0.99,3.43-1.77,5.16-2.66c-1.56,0.8-1.12,0.38,0.49-0.11
					c0.77-0.24,1.55-0.44,2.33-0.66c1.61-0.46,2.39,0.14,0.01-0.1c0.67,0.07,1.45-0.13,2.14-0.13c0.58,0,1.39,0.21,1.94,0.1
					c-1.23,0.26-2.05-0.53-0.09,0.07c0.61,0.19,1.23,0.37,1.85,0.54c2.37,0.67-1.23-0.77,0.08,0c1.25,0.74,2.56,1.34,3.78,2.14
					c0.68,0.44,1.33,0.92,1.99,1.38c2.25,1.58-1.22-1.07,0.5,0.38c1.39,1.17,2.78,2.32,4.15,3.52c2.57,2.26,5.15,4.54,7.52,7.02
					c0.48,0.51,0.94,1.04,1.42,1.55c1.36,1.47,0.52,1.17,0.09,0.04c0.36,0.95,1.36,2.26,1.94,3.12c1.1,1.62-0.41-2.1-0.16-0.38
					c0.07,0.47,0.27,1.23,0.46,1.67c0.72,1.67,0.14-2.55-0.08-0.51c-0.06,0.54-0.1,1.39-0.03,1.92c0.18,1.29,0.73-2.66,0.04-0.45
					c-0.21,0.66-0.32,1.35-0.53,2.01c-0.23,0.73-0.54,1.42-0.79,2.14c0.94-2.71,0.3-0.73-0.31,0.47c-1.92,3.76-4.35,7.25-6.85,10.63
					c-0.71,0.96-2.6,3.38-1.27,1.69c-0.93,1.18-1.86,2.36-2.81,3.53c-2.08,2.57-4.2,5.1-6.34,7.61
					c-32.59,38.22-67.1,74.82-100.12,112.68c-6.48,7.43-12.93,14.88-19.36,22.34c-7.39,8.58,5.06,21.13,12.5,12.5
					c37.5-43.5,76.47-85.67,114.23-128.94c8.29-9.5,17.02-19.16,23.54-30.01c4.08-6.8,7.07-14.64,5.16-22.64
					c-1.63-6.81-6.68-12.21-11.66-16.84c-5.46-5.07-11.28-10.62-18.07-13.84c-19.41-9.21-37.45,5.69-51.5,17.87
					c-14.48,12.56-27.95,26.3-41.41,39.93c-22.23,22.52-44.17,45.31-66.24,67.99c-7.08,7.27-14.16,14.54-21.25,21.8
					C573.79,961.7,586.28,974.21,594.25,966.05L594.25,966.05z"/>
			</g>
		</g>
		<g>
			<path d="M167.14,1171.88c-8.37,4.58-38.03,35.01-31.15,52.6c6.31,16.15,89.91,63.31,94.93,65.75
				c12.65,6.15,37.93-24.87,43.83-37.39"/>
			<g>
				<path d="M162.68,1164.24c-7.36,4.21-13.67,11.18-19.03,17.62c-7.05,8.48-14.11,18.31-16.58,29.26
					c-2.06,9.13-0.31,17.22,5.77,24.23c4.97,5.73,11.31,10.38,17.35,14.9c15.52,11.62,32.1,21.85,48.72,31.79
					c6.55,3.91,13.13,7.76,19.77,11.52c3.82,2.16,7.87,4.91,12.19,5.87c11.72,2.61,23.08-7.09,30.74-14.66
					c7.99-7.9,15.83-17.31,20.77-27.48c4.95-10.19-10.29-19.16-15.26-8.92c-3.57,7.35-8.76,13.99-14.25,19.99
					c-3.14,3.44-6.49,6.88-10.22,9.7c-3.31,2.49-5.43,2.86-8.52,4.27c1.72-0.78-0.91-0.25,1.1,0.02c-1.77-0.24,0.26,0.33,0.04,0.19
					c-0.36-0.23-0.78-0.4-1.15-0.61c-1.65-0.91-3.31-1.81-4.95-2.74c-5.62-3.16-11.2-6.4-16.75-9.68
					c-14.92-8.82-29.71-17.93-43.96-27.8c-6.74-4.68-11.56-8.09-17.34-13.18c-2.04-1.8-3.88-3.73-5.78-5.67
					c-0.43-0.44-1.41-2,0.02,0.11c-0.05-0.07-0.84-1.15-0.81-1.17c-0.02,0.02-0.57-1.03-0.62-1.1c1.7,2.56,0.07,0.17-0.15-1.13
					c0.29,1.71,0.02-1.17,0.03-1.28c0.08-1.79,0.03-1.28,0.31-2.46c0.49-2.11,1.19-4.2,2-5.97c2.13-4.68,5.04-9.12,8.17-13.19
					c3.16-4.11,6.72-7.98,10.46-11.57c1.49-1.43,3.03-2.81,4.62-4.13c1.9-1.57-1.4,0.88,0.43-0.32c0.6-0.39,1.18-0.8,1.8-1.15
					C181.47,1173.85,172.58,1158.58,162.68,1164.24L162.68,1164.24z"/>
			</g>
		</g>
		<g>
			<path class="st3" d="M154.02,1242.15c-37.21,52.93-116.8,179.34-76.51,277.52C108.43,1595,200.4,1637.5,285.4,1635.21
				c85.01-2.29,163.33-40.88,232.14-86.5c220.13-145.92,443.24-402,608.37-370.69c230.1,43.63,140.51,314.03,124.96,396.03
				c-11.21,59.1,8,56.27,24.56,61.08c15.3,4.45,32.93,18.48,39.14-46.35c9.78-101.92,71.59-246.75-11.99-378.3
				c-110.23-173.49-295.75-111.26-347.22-85.35c-214.47,107.94-355.8,320.56-575.02,419.99c-135.69,61.54-218.08,2.79-234.62-35.72
				c-34.81-81.07,30.93-195.72,56.18-231.01"/>
			<g>
				<path d="M146.39,1237.69c-39.79,56.68-76.5,121.44-86.36,190.94c-5.42,38.21-1.56,77.22,17.51,111.35
					c18.37,32.87,48.27,58.38,81.51,75.42c34.88,17.88,73.96,27.59,113.11,28.65c46.01,1.24,92.12-9.31,134.74-26.12
					c83.76-33.04,157.06-88.61,227.45-143.68c68.89-53.9,135.28-110.97,204.88-163.97c31.19-23.75,63.07-46.75,96.46-67.34
					c29.01-17.89,59.34-34.31,91.62-45.51c26.58-9.23,54.57-14.95,82.81-12.69c29.08,2.34,59.18,12.39,84.09,27.5
					c43.65,26.48,66.78,71.54,74.58,120.77c7.66,48.28,2.07,98.8-6.7,146.51c-3.8,20.65-8.39,41.14-13.07,61.61
					c-5.05,22.1-12.12,45.83-10.05,68.58c1.01,11.04,4.76,21.87,14.84,27.69c6.8,3.93,14.76,4.7,22.1,7.15
					c7.07,2.36,14.4,5.15,21.94,3.08c11.32-3.1,16.75-14.58,19.84-24.92c5.31-17.75,5.58-36.64,8.35-54.86
					c2.82-18.59,6.5-37.03,10.11-55.48c7.91-40.34,15.61-80.91,17.81-122.04c2.37-44.28-2.03-89.34-17.48-131.12
					c-14.89-40.29-39.19-77.78-70.12-107.63c-46.62-44.99-108.41-67.98-172.89-67.64c-45.9,0.24-92.31,10.73-134.15,29.56
					c-32.29,14.53-62.96,33.65-92.31,53.35c-34.97,23.46-68.32,49.27-100.75,76.1c-64.94,53.71-126.19,111.73-191.33,165.21
					c-32.29,26.51-65.58,51.84-100.56,74.71c-35.94,23.49-73.98,45.53-114.05,61.2c-59.45,23.25-138.97,31.85-189.34-15.28
					c-7.26-6.79-11.9-12.22-16.27-20.93c-7.08-14.13-9.66-30.89-10.05-46.54c-0.9-36.66,10.14-73.31,24.75-106.6
					c11-25.06,24.21-49.54,40.12-71.86c6.61-9.28-8.71-18.12-15.26-8.92c-16.37,22.98-29.93,48.24-41.1,74.11
					c-14.73,34.11-26.02,70.78-26.23,108.24c-0.16,28.22,6.23,57.47,25.51,78.85c17.01,18.88,40.68,31.57,64.88,38.55
					c80.69,23.26,163.19-14.19,231.73-54.33c71.76-42.03,136.11-95.34,198.56-149.92c62.81-54.9,124.19-111.76,191.42-161.32
					c33.56-24.74,68.54-47.64,105.32-67.32c9.54-5.11,19.15-10.09,29.12-14.31c-1.73,0.73,0.88-0.36,1.39-0.57
					c0.98-0.4,1.95-0.79,2.93-1.18c2.19-0.87,4.39-1.71,6.6-2.53c4.54-1.68,9.12-3.26,13.72-4.74
					c48.4-15.58,101.27-21.32,151.23-10.01c70.79,16.01,126.68,66.96,158.95,130.95c39.84,79.01,30.36,167.66,14.28,251.47
					c-3.6,18.74-7.45,37.44-10.76,56.23c-3.24,18.36-4.75,36.87-7.59,55.26c-1.11,7.2-2.56,15.41-5.32,21.83
					c-0.51,1.19-1.11,2.36-1.77,3.47c-0.31,0.53-2.02,2.83-0.96,1.58c-0.6,0.71-1.26,1.39-1.97,2c1.43-1.22,0.02,0.07-0.78,0.34
					c2.42-0.83,0.03-0.01-0.55,0.08c-1.19,0.19,1.86,0.01-0.39,0.03c-0.75,0-1.49-0.05-2.24-0.1c2.17,0.15,0.23,0.02-0.77-0.24
					c-3.21-0.83-6.29-2.01-9.44-3.04c-3.34-1.09-6.76-1.83-10.16-2.69c-1.73-0.44-3.42-0.93-5.11-1.5c-1.62-0.54-0.62-0.24-0.6-0.23
					c-0.87-0.45-1.71-0.91-2.54-1.43c-0.89-0.55,0.72,0.73-0.79-0.68c-0.45-0.42-1.94-2.42-0.88-0.88c-1.73-2.5-1.77-2.81-2.34-5.08
					c-1.59-6.37-1.41-13-0.89-19.65c1.57-19.87,7.12-39.55,11.52-58.94c10.31-45.37,19.28-91.32,21.23-137.91
					c2.08-49.62-3.84-102.3-30.16-145.5c-30.23-49.63-85.25-77.87-141.87-84.99c-61.34-7.71-122.4,19.94-174.14,49.94
					c-69.54,40.33-132.59,91.47-194.9,141.95c-67.9,55-134.92,111.35-206.46,161.63c-74.13,52.09-157.3,100.24-250.02,104.77
					c-72.61,3.54-155.93-24.92-195.74-89.31c-41.04-66.37-14.53-149.17,18.32-213.04c13.8-26.83,29.82-52.48,47.15-77.16
					C168.21,1237.28,152.89,1228.44,146.39,1237.69L146.39,1237.69z"/>
			</g>
		</g>
		<g>
			<path class="st4" d="M397.59,1014.64c-33.3,8.8-66.6,17.6-99.91,26.4c15.07,12.87,30.13,25.75,45.2,38.62
				c-26.55,28.88-53.1,57.76-79.65,86.64c47.23-23.4,94.45-46.79,141.68-70.19c-14.08-11.48-28.15-22.97-42.23-34.45
				c13.83-15.8,27.65-31.61,41.48-47.41"/>
			<g>
				<path class="st5" d="M395.24,1006.12c-33.3,8.8-66.6,17.6-99.91,26.4c-6.07,1.61-9.03,10.38-3.9,14.77
					c15.07,12.87,30.13,25.75,45.2,38.62c0-4.17,0-8.33,0-12.5c-26.55,28.88-53.1,57.76-79.65,86.64
					c-6.92,7.53,1.72,18.33,10.71,13.88c47.23-23.4,94.45-46.79,141.68-70.19c4.77-2.36,6.05-10.4,1.79-13.88
					c-14.08-11.48-28.15-22.97-42.23-34.45c0,4.17,0,8.33,0,12.5c13.83-15.8,27.65-31.61,41.48-47.41
					c7.46-8.53-4.99-21.08-12.5-12.5c-13.83,15.8-27.65,31.61-41.48,47.41c-2.9,3.31-3.9,9.32,0,12.5
					c14.08,11.48,28.15,22.97,42.23,34.45c0.6-4.63,1.19-9.25,1.79-13.88c-47.23,23.4-94.45,46.79-141.68,70.19
					c3.57,4.63,7.14,9.25,10.71,13.88c26.55-28.88,53.1-57.76,79.65-86.64c3.04-3.31,3.76-9.29,0-12.5
					c-15.07-12.87-30.13-25.75-45.2-38.62c-1.3,4.92-2.6,9.85-3.9,14.77c33.3-8.8,66.6-17.6,99.91-26.4
					C410.92,1020.26,406.26,1003.2,395.24,1006.12L395.24,1006.12z"/>
			</g>
		</g>
		<g class="st6">
			<path d="M533.22,648.11C460.28,725.69,454,762.29,428.51,829.96c-33.09-25.96-48.78-28.14-42.08-36.19
				c42.6-51.15,88.89-98.33,146.13-154.16"/>
			<g>
				<path d="M526.98,641.86c-22.54,24.03-44.08,49.43-61.15,77.71c-12.62,20.92-22.12,43.39-30.58,66.26
					c-5.14,13.91-10.05,27.9-15.27,41.78c4.92-1.3,9.85-2.6,14.77-3.9c-12.57-9.8-25.97-18.03-39.05-27.07
					c-0.52-0.36-2.69-2.08-0.93-0.61c-0.55-0.46-1.07-1.02-1.64-1.44c-1.67-1.23,0.49,0.95,0.02,0.11c-0.21-0.37,0.62,2.49,0.6,2.19
					c0.04,0.72-0.68,2.9-0.49,2.43c0.61-1.49-1.79,2-0.05,0.05c0.74-0.83,1.42-1.7,2.13-2.55c3.21-3.82,6.44-7.63,9.69-11.42
					c25.92-30.18,53.24-59.12,81.18-87.43c17.34-17.56,34.92-34.89,52.59-52.13c8.16-7.96-4.35-20.45-12.5-12.5
					c-32.31,31.52-64.35,63.33-95.1,96.38c-14.11,15.16-27.93,30.58-41.37,46.34c-7.53,8.82-20.56,20.25-8.83,31.37
					c4.46,4.23,10.14,7.31,15.29,10.6c8.91,5.69,17.63,11.66,25.97,18.16c5.45,4.25,12.26,2.77,14.77-3.9
					c8.41-22.36,15.89-45.55,25.31-67.26c10.14-23.36,23.11-45.18,38.43-65.51c11.93-15.84,25.15-30.72,38.71-45.18
					C547.25,646.07,534.78,633.54,526.98,641.86L526.98,641.86z"/>
			</g>
		</g>
		<g class="st6">
			<path d="M749.19,816.02c-68.74,49.66-88.01,137.37-106.49,195.96c3.08-12.06-49.25-28.08-45.91-49.27
				c1.18-7.54,35.8-49.03,141.83-141.66"/>
			<g>
				<path d="M744.73,808.39c-52.38,38.18-78.56,97.68-97.33,157.79c-4.51,14.45-8.68,29.01-13.23,43.45
					c5.68,1.57,11.36,3.13,17.04,4.7c1.93-9.61-5.21-15.97-12.2-21.17c-7.36-5.46-15.92-10.26-22.9-15.59
					c-1.32-1.01-3.27-2.65-4.75-4.04c-0.79-0.74-1.55-1.49-2.29-2.29c-0.32-0.35-2.18-2.7-1.37-1.56c-0.55-0.77-1.04-1.58-1.5-2.41
					c-0.98-1.77,0.08,0.27-0.46-1.06c-0.13-0.33-0.2-0.73-0.28-1.08c-0.28-1.32,0.21,1.5,0.02,0.17c-0.19-1.29,0.69-2.83-0.15-0.41
					c0.89-2.53-1.2,1.71-0.02-0.11c0.66-1.02,1.21-2.13,1.88-3.15c0.94-1.43,1.97-2.8,2.98-4.18c1.24-1.69-1.12,1.37,0.75-0.97
					c0.77-0.96,1.55-1.93,2.34-2.88c3.86-4.67,7.9-9.19,12-13.65c13.18-14.3,27.06-27.96,41.11-41.39
					c25.55-24.42,51.88-48.02,78.48-71.27c8.58-7.5-3.96-19.96-12.5-12.5c-40,34.96-80.04,70.43-116.4,109.23
					c-7.99,8.52-15.97,17.24-22.73,26.79c-6.19,8.74-7.35,18.29-0.78,27.77c6.65,9.6,17.02,16.08,26.63,22.36
					c2.21,1.44,4.42,2.88,6.61,4.35c1.01,0.69,2.02,1.38,3.01,2.09c0.46,0.33,2.72,2.08,1.57,1.15c0.78,0.63,1.55,1.27,2.28,1.96
					c0.36,0.34,2.22,2.42,1.51,1.48c-0.88-1.17,0.01-0.02-0.01,0.03c0.09,0.15,0.19,0.3,0.28,0.46c0.33,0.65,0.33,0.6-0.02-0.15
					c-0.13,0.17-0.25-1.19-0.13-0.16c-0.3-2.55-0.51,0.03,0.01-2.53c-2.23,11.09,13.6,15.64,17.04,4.7
					c16.78-53.34,30.56-109.01,65.3-154.19c10.58-13.76,23.1-26.26,37.13-36.49c3.85-2.81,5.75-7.68,3.17-12.09
					C754.6,807.76,748.61,805.56,744.73,808.39L744.73,808.39z"/>
			</g>
		</g>
		<g class="st6">
			<path d="M294.77,771.55c87.08,150.18,232.07,270.73,400.87,333.28c-90.37,46.62-415.8-233.99-427.13-296.74
				c-3.34-18.52,8.11-26.17,27.8-42.16"/>
			<g>
				<path d="M287.14,776.01c34.77,59.82,78.22,114.58,127.99,162.61c50.57,48.8,107.74,90.92,169.26,124.88
					c34.98,19.31,71.44,35.93,108.89,49.85c-0.7-5.38-1.41-10.77-2.11-16.15c-0.46,0.23-1.2,0.79-1.71,0.83
					c-1.08,0.08,1.88-0.62-0.1,0.04c-1.32,0.44-2.61,0.94-3.95,1.32c-1.29,0.37-2.6,0.68-3.92,0.95c-0.68,0.14-1.36,0.23-2.04,0.37
					c-1.86,0.39,1.85-0.13-0.53,0.08c-6.42,0.55-12.67,0.36-19.08-0.31c-1.35-0.14,1.66,0.29-0.79-0.11
					c-0.85-0.14-1.71-0.27-2.56-0.41c-1.86-0.32-3.72-0.68-5.57-1.07c-3.79-0.81-7.56-1.77-11.29-2.84
					c-8.24-2.36-16.32-5.25-24.26-8.46c-4-1.62-6.68-2.77-11.55-4.98c-4.47-2.03-8.91-4.15-13.31-6.34
					c-9.36-4.65-18.56-9.62-27.63-14.8c-19.64-11.21-38.71-23.42-57.35-36.22c-39.14-26.87-76.29-56.15-112.02-87.46
					c-30.57-26.79-60.42-54.89-86.85-85.82c-2.57-3.01-5.1-6.05-7.58-9.14c-1.13-1.41-2.25-2.82-3.35-4.24
					c-0.77-0.99,0.93,1.22,0.18,0.23c-0.2-0.26-0.39-0.51-0.59-0.77c-0.64-0.85-1.28-1.69-1.91-2.54c-3.66-4.94-7.17-10-10.27-15.31
					c-1.23-2.1-2.4-4.24-3.45-6.44c-0.24-0.5-0.45-1.01-0.7-1.5c-0.94-1.88,0.57,1.58,0.11,0.3c-0.37-1.03-0.8-2.03-1.13-3.08
					c-2.73-8.51-0.52-14.94,5.67-21.24c5.79-5.88,12.5-10.87,18.9-16.05c3.71-3.01,3.13-9.37,0-12.5c-3.67-3.67-8.78-3.02-12.5,0
					c-11.56,9.37-27.09,19.5-30.2,35.23c-1.55,7.83-0.48,15.74,2.52,23.04c5.03,12.24,12.99,23,21.08,33.37
					c24.18,31.04,52.94,58.7,82.02,85.08c36.67,33.26,75.31,64.47,115.61,93.22c36.76,26.22,75.26,51.09,116.61,69.48
					c16.34,7.27,33.26,13.83,50.87,17.28c13.78,2.71,28.63,3.97,42.28-0.16c3.18-0.96,6.3-2.26,9.26-3.76
					c7.36-3.74,4.46-13.71-2.11-16.15c-64.68-24.04-126.05-56.84-182.23-96.89c-55.43-39.51-105.7-86.42-148.81-139.1
					c-23.96-29.29-45.53-60.51-64.55-93.23C296.69,757.26,281.41,766.15,287.14,776.01L287.14,776.01z"/>
			</g>
		</g>
		<g class="st6">
			<path d="M280.1,858.35c-57.16,57.29-98.54,146.06-86.21,225c12.32,78.95,78.11,146.49,150.79,188.68
				c-89.35-35.19-204-103.41-212.47-170.98c-10.3-82.18,75.06-176.01,144.64-245.92"/>
			<g>
				<path d="M273.85,852.1c-47.4,47.76-82.01,111.56-89.63,178.9c-3.66,32.35,0.35,65.22,12.45,95.48
					c12.29,30.71,31.12,58.24,53.61,82.39c26.06,28,56.93,51.56,89.93,70.79c2.27-5.38,4.54-10.77,6.81-16.15
					c-35.68-14.1-70.33-31.22-102.98-51.37c-30.17-18.62-60.21-40.24-82.36-68.29c-8.42-10.66-15.56-22.61-19.05-35.56
					c-3.68-13.66-3.04-29.67-0.11-44.33c7.36-36.79,27.63-70.04,49.51-99.95c27.02-36.94,58.85-70.22,91.07-102.62
					c8.03-8.07-4.46-20.58-12.5-12.5c-30.24,30.4-59.77,61.62-85.93,95.67c-24.22,31.53-46.75,66.51-57.02,105.34
					c-4.48,16.94-6.42,34.74-4.15,52.17c1.95,15,8.09,29.04,16.37,41.62c20.24,30.71,50.44,54.34,80.76,74.46
					c38.03,25.23,79.29,45.66,121.69,62.42c9.48,3.74,15.25-11.23,6.81-16.15c-53.98-31.47-104.17-75.74-131.22-133.05
					c-12.91-27.35-18.67-57.15-17.1-87.33c1.63-31.35,10.6-62.39,23.83-90.76c15.31-32.82,36.19-62.95,61.7-88.66
					C294.37,856.52,281.88,844.01,273.85,852.1L273.85,852.1z"/>
			</g>
		</g>
		<g class="st6">
			<g>
				<path d="M147.82,1242.29c-41.23,60.49-83.51,124.89-86.6,200.42c-1.44,35.17,6.34,71.53,25.15,101.56
					c17.85,28.51,44.72,50.87,74.86,65.47c69.11,33.47,148.24,28.33,220.04,6.42c59.3-18.09,115.24-46.25,167.32-79.65
					c51.95-33.33,100.48-71.71,148.22-110.73c23.45-19.16,46.72-38.53,70.2-57.66c11.83-9.64,23.72-19.22,35.7-28.67
					c12.53-9.88,20.74-16.23,34.01-26.14c48.24-36,98.92-69.13,153.58-94.61c6.09-2.84,14.95-6.78,19.53-8.7
					c4.6-1.93,13.65-5.51,20-7.89c16.29-6.09,32.86-11.55,49.76-15.67c34.35-8.36,69.76-10.41,103.18,3.22
					c1.9,0.77,0.2,0.1-0.15-0.06c0.81,0.36,1.61,0.72,2.41,1.1c1.6,0.74,3.18,1.52,4.75,2.32c3.39,1.73,6.71,3.59,9.96,5.58
					c3.24,1.98,6.4,4.09,9.48,6.32c0.74,0.53,3.74,2.8,3.11,2.31c-1.29-1.02,0.95,0.79,0.96,0.8c0.89,0.75,1.8,1.49,2.69,2.25
					c5.78,4.93,11.22,10.28,16.29,15.94c5.86,6.55,7.43,8.55,12.35,15.8c18.14,26.76,27.82,55.12,31.07,87.65
					c7.8,77.87-18.53,152.11-29.36,228.68c-2.84,20.06-4.88,40.18-5.1,60.45c-0.1,9.55,8.2,17.68,17.68,17.68
					c9.67,0,17.57-8.09,17.68-17.68c0.83-78.54,28.89-153.91,34.79-232.39c2.83-37.68,0.53-76.97-11.89-112.91
					c-10.4-30.1-27.29-58.18-50.11-80.52c-23.51-23.02-53.55-39.97-86.15-45.61c-39.49-6.83-79.52-0.15-117.36,11.85
					c-58.65,18.59-113.93,47.05-165.44,80.47c-51.57,33.46-99.8,71.8-147.32,110.69c-23.43,19.18-46.71,38.55-70.2,57.65
					c-11.84,9.62-23.73,19.18-35.73,28.61c-2.76,2.17-5.53,4.34-8.31,6.49c-0.54,0.42-3.92,3.04-1.98,1.54
					c-1.62,1.25-3.25,2.5-4.87,3.74c-6.03,4.62-12.1,9.2-18.19,13.73c-48.28,35.87-99.05,68.8-153.8,93.97
					c-3.18,1.46-6.37,2.9-9.58,4.31c-1.6,0.71-3.22,1.4-4.82,2.1c-0.38,0.17-3.11,1.32-0.62,0.27c-1.08,0.45-2.16,0.9-3.24,1.35
					c-6.79,2.8-13.63,5.47-20.52,8.01c-16.31,6.01-32.89,11.32-49.73,15.63c-36.59,9.36-73.4,13.57-111.36,9.15
					c-31.14-3.63-60.12-14.35-85.91-32.08c-5.96-4.09-9.47-6.85-15.67-12.6c-2.87-2.67-5.65-5.44-8.32-8.32
					c-2.13-2.31-5.78-6.58-6.78-7.85c-9.08-11.67-16.47-26.47-20.76-40.77c-9.11-30.35-7.97-62.33,0-92.93
					c9.05-34.74,25.87-65.73,45.12-96.33c9.78-15.55,20.12-30.74,30.47-45.92c5.38-7.89,1.49-19.6-6.34-24.18
					C163.26,1230.84,153.21,1234.38,147.82,1242.29L147.82,1242.29z"/>
			</g>
		</g>
		<g class="st7">
			<g>
				<path class="st8" d="M546.45,1094.33c-25.64,19.46-47.33,42.83-70.26,65.27c-5.5,5.39-11.1,10.68-16.86,15.79
					c-2.64,2.34-5.32,4.64-8.04,6.88c-1.26,1.03-2.52,2.05-3.8,3.06c-0.11,0.09-2.23,1.74-0.78,0.62c1.61-1.24-1.81,1.35-2.12,1.58
					c-11.43,8.45-23.61,15.83-36.59,21.63c-0.15,0.07-2.64,1.09-0.89,0.39c1.88-0.76-2.54,0.97-2.43,0.93
					c-1.78,0.67-3.57,1.31-5.37,1.91c-3.87,1.29-7.79,2.42-11.75,3.34c-1.86,0.43-3.72,0.83-5.59,1.18
					c-1.03,0.19-5.87,0.91-2.59,0.5c-4.39,0.55-8.79,0.81-13.21,0.88c-9.24,0.14-18.11,8.03-17.68,17.68
					c0.42,9.45,7.77,17.83,17.68,17.68c31.78-0.5,62.11-12.28,88.25-29.91c26.6-17.94,48.68-41.06,71.22-63.65
					c6.47-6.49,13.02-12.92,19.77-19.12c3.27-3,6.59-5.96,9.97-8.83c1.58-1.35,3.18-2.67,4.79-3.99c0.92-0.75,1.85-1.49,2.78-2.23
					c2.57-2.04-3.19,2.4,1.37-1.06c7.34-5.57,11.94-15.49,6.34-24.18C565.96,1093.41,554.33,1088.35,546.45,1094.33L546.45,1094.33z
					"/>
			</g>
		</g>
		<g class="st7">
			<g>
				<path class="st8" d="M490.89,951.99c43.99,34.63,87.98,69.25,131.97,103.88c7.25,5.71,18.02,7.6,25,0c5.84-6.37,7.76-18.89,0-25
					c-43.99-34.63-87.98-69.25-131.97-103.88c-7.25-5.71-18.02-7.6-25,0C485.04,933.36,483.13,945.89,490.89,951.99L490.89,951.99z"
					/>
			</g>
		</g>
		<g class="st7">
			<g>
				<path class="st8" d="M741.87,836.46c-8.73,10.54-17.45,21.07-26.18,31.61c-5.89,7.11-7.48,18.13,0,25c6.51,5.98,18.7,7.6,25,0
					c8.73-10.54,17.45-21.07,26.18-31.61c5.89-7.11,7.48-18.13,0-25C760.36,830.48,748.17,828.85,741.87,836.46L741.87,836.46z"/>
			</g>
		</g>
		<g class="st7">
			<g>
				<path class="st8" d="M530.53,666.49c-5.79,6.89-11.58,13.78-17.38,20.66c-5.94,7.07-7.45,18.16,0,25c6.55,6.02,18.64,7.56,25,0
					c5.79-6.89,11.58-13.78,17.38-20.66c5.94-7.07,7.45-18.16,0-25C548.97,660.47,536.88,658.93,530.53,666.49L530.53,666.49z"/>
			</g>
		</g>
		<g class="st7">
			<g>
				<path class="st8" d="M1090.97,1101.14c-58.41,6.11-112.82,30.47-162.82,60.28c-60.36,35.99-115.8,80.03-169.71,124.92
					c-33.7,28.06-66.82,56.81-99.91,85.59c-7,6.09-6.7,18.85,0,25c7.46,6.85,17.53,6.49,25,0c29.03-25.25,58.09-50.48,87.54-75.24
					c13.88-11.67,27.85-23.24,41.95-34.63c7.1-5.74,14.24-11.44,21.42-17.08c3.3-2.59,6.61-5.18,9.93-7.75
					c-0.31,0.24-1.63,1.26-0.04,0.03c0.94-0.72,1.88-1.45,2.83-2.17c1.88-1.44,3.76-2.87,5.64-4.3c26.2-19.9,53.05-39,80.99-56.4
					c13-8.09,26.24-15.81,39.76-22.98c6.36-3.37,12.79-6.63,19.28-9.74c3.07-1.47,6.15-2.91,9.25-4.31
					c1.53-0.69,3.07-1.38,4.61-2.05c0.84-0.37,6.93-2.92,3-1.31c13.79-5.66,27.79-10.75,42.17-14.72c6.96-1.92,13.99-3.6,21.08-5
					c3.37-0.66,6.75-1.26,10.14-1.78c0.84-0.13,1.69-0.25,2.53-0.38c3.39-0.53-2.56,0.24-0.28,0.03c1.89-0.17,3.77-0.45,5.66-0.65
					c9.17-0.96,18.13-7.44,17.68-17.68C1108.25,1110.06,1100.82,1100.1,1090.97,1101.14L1090.97,1101.14z"/>
			</g>
		</g>
	</g>
	<g>
		<g id="Ebene_3_Kopie">
			<g class="st9">
				<path d="M865.61,740.9c0.77,60.05-9.99,120.18-31.8,177.55c79.37-36.86,149.74-86.44,205.88-145.05"/>
				<g>
					<path d="M862.4,742.6c0.56,46.54-5.84,93.01-18.78,137.88c-3.67,12.73-7.92,25.31-12.63,37.72c-0.82,2.15-0.06,5.12,2.88,3.75
						c30.87-14.36,60.69-30.74,89.11-49.14c27.8-18.01,54.3-37.86,79.03-59.58c13.66-12,26.78-24.57,39.32-37.63
						c1.15-1.21,2.32-3.92,1.12-5.41c-1.29-1.61-3.41-0.03-4.4,1c-22.02,22.96-45.96,44.21-71.38,63.7
						c-25.95,19.9-53.45,37.93-82.14,54.05c-16.56,9.31-33.51,17.97-50.79,26c0.96,1.25,1.92,2.5,2.88,3.75
						c17-44.85,27.54-91.8,30.99-139.39c0.97-13.35,1.36-26.73,1.2-40.11c-0.02-1.86-1.61-2.58-3.27-1.8
						C863.7,738.27,862.38,740.68,862.4,742.6L862.4,742.6z"/>
				</g>
			</g>
			<g class="st9">
				<path d="M1011.78,798.64c79.82,0.96,160.54-9.92,234.23-39.19s140.1-77.72,182.61-142.17s59.49-145.35,38.94-218.92
					c-21.83-78.13-84.52-142.9-160.61-178.53c-76.09-35.62-164.26-43.79-248.19-32.49c-94.46,12.72-186.64,50.62-254.12,114.93
					s-107.99,156.25-98.87,246.83s71.63,176.76,161.02,208.5"/>
				<g>
					<path d="M1010.44,802.04c77.55,0.87,156.08-9.18,228.42-36.73c62.37-23.75,119.77-60.6,163.26-109.73
						c45.26-51.14,73.72-115.62,76.69-182.77c1.45-32.72-3.42-65.69-15.08-96.52c-10.7-28.31-26.78-54.67-46.68-77.99
						c-42.42-49.71-100.83-84.53-164.96-102.76c-70.8-20.13-147.01-20.74-219.21-7.3c-67.72,12.6-133.23,38.36-188.54,78
						c-54.92,39.35-98.25,92.8-122.33,154.32c-23.08,58.95-27.66,124.57-7.08,184.79c18.97,55.52,57.53,105.6,109.75,136.61
						c12.7,7.54,26.15,13.86,40.16,18.87c3.07,1.1,6.73-5.43,3.9-6.44c-56.66-20.28-102.36-62.2-130.42-112.92
						c-29.87-53.99-37.77-116.13-24.91-175.74c13.51-62.63,48.34-120.71,96.44-165.04c48.96-45.12,110.42-76.62,175.47-94.97
						c67.99-19.18,140.92-25.13,211.11-14.72c67.23,9.98,131.57,36.07,182.49,79.6c47.11,40.27,81.36,94.42,91.35,154.4
						c10.94,65.74-6.52,134.56-43.34,190.64c-35.06,53.4-87,95.53-145.17,124.69c-65.9,33.04-140,49.19-213.98,53.63
						c-18.2,1.09-36.43,1.47-54.66,1.26C1010.08,795.2,1007.08,802.01,1010.44,802.04L1010.44,802.04z"/>
				</g>
			</g>
			<g class="st9">
				<path class="st10" d="M1076.16,476.74c4.92-42.59-28.19-85.46-71.77-95.86c-43.58-10.4-92.54,11.02-114.97,48.14
					s-18.15,86.64,8.24,121.32c21.66,28.46,55.15,46.24,87.92,62.36c46.66,22.96,94.13,44.43,142.29,64.36
					c5.93,2.45,12.35,4.93,18.67,3.67c8.04-1.62,13.38-8.7,17.91-15.25c34.27-49.52,68.54-99.04,102.81-148.56
					c18.1-26.16,36.83-54.1,37.95-85.43c0.94-26.45-11.45-52.57-31.11-71.24c-33.43-31.76-88.11-41.01-130.95-22.15
					c-42.84,18.86-70.95,64.56-67.3,109.44"/>
				<g>
					<path d="M1078.89,476.08c4.28-38.66-20.42-77.15-57.17-93.25c-37.31-16.34-82.19-6.11-112.18,19.31
						c-32.62,27.64-44.04,71.47-33.56,111.32c5.4,20.54,16.61,39.03,32.1,54.14c16.16,15.76,35.77,27.78,55.91,38.39
						c22.68,11.95,46,22.87,69.29,33.67c24.51,11.37,49.24,22.34,74.15,32.89c6.45,2.73,12.89,5.47,19.38,8.11
						c5.72,2.33,11.79,4.5,18.12,3.58c11.4-1.65,18.06-12.61,23.83-20.94c15.42-22.28,30.85-44.57,46.27-66.85
						s30.85-44.57,46.27-66.85c13.91-20.1,28.69-40.1,38.1-62.6c8.74-20.91,11.46-43.52,4.79-65.33
						c-6.23-20.38-19.35-38.65-36.66-51.91c-32.22-24.67-78.78-31.75-117.37-17.55c-38.98,14.34-67.61,49.39-75.35,88.26
						c-1.87,9.39-2.48,19.02-1.74,28.55c0.34,4.39,5.84-0.12,5.62-2.98c-2.89-37.35,16.38-75.09,48.73-96.29
						c32.96-21.59,77.06-23.22,112.96-7.3c38.42,17.04,66.86,56.37,61.45,97.74c-2.88,22-14.09,41.9-26.26,60.42
						c-13.81,21.02-28.54,41.53-42.87,62.23c-14.75,21.32-29.51,42.64-44.26,63.96c-7.42,10.73-14.85,21.46-22.28,32.19
						c-5.43,7.84-11.47,19.28-23,18.64c-6.64-0.37-12.88-3.6-18.87-6.1c-5.86-2.44-11.71-4.91-17.55-7.39
						c-11.98-5.1-23.93-10.31-35.82-15.6c-23.79-10.59-47.39-21.56-70.79-32.91c-38.86-18.84-81.92-38.79-105.31-75.7
						c-21.11-33.31-23.63-78.26-2.02-111.93c19.96-31.1,59.91-49.74,97.88-45.82c38.64,3.98,71.62,33.08,80.79,68.85
						c2.2,8.6,2.96,17.56,1.98,26.37C1072.89,482.24,1078.53,479.3,1078.89,476.08L1078.89,476.08z"/>
				</g>
			</g>
			<g class="st9">
				<g>
					<path d="M1416.69,451.54c8.03,34.06,5.38,70.06-7.64,102.7c-0.48,1.22-0.64,3.35,1.13,3.62c1.74,0.27,3.31-1.91,3.81-3.18
						c13.64-34.19,16.52-71.87,8.11-107.57c-0.41-1.73-2.44-1.16-3.47-0.37C1417.24,447.81,1416.29,449.84,1416.69,451.54
						L1416.69,451.54z"/>
				</g>
			</g>
			<g class="st9">
				<g>
					<path d="M1398.89,594.3c-15.46,26.52-36.84,49.53-62.49,67.48c-2.73,1.91-2.58,8.06,1.53,5.18
						c26.67-18.66,48.93-42.85,65.01-70.42c0.66-1.13,1.47-3.49-0.08-4.34C1401.35,591.36,1399.53,593.21,1398.89,594.3
						L1398.89,594.3z"/>
				</g>
			</g>
			<g class="st9">
				<g>
					<path d="M772.32,483.88c1.06-34.1,11.12-67.81,28.98-97.36c5.11-8.45,10.85-16.53,17.17-24.19c0.94-1.14,2.08-3.37,0.98-4.74
						c-1.09-1.36-3.05-0.1-3.85,0.88c-23.41,28.4-39.27,62.32-45.72,97.93c-1.82,10.07-2.87,20.26-3.19,30.47
						c-0.05,1.65,1.46,2.24,2.86,1.58C771.23,487.65,772.26,485.59,772.32,483.88L772.32,483.88z"/>
				</g>
			</g>
		</g>
		<g id="Ebene_3_1_">
			<g>
				<path class="st11" d="M896.8,706.18c0.77,60.05-9.99,120.18-31.8,177.55c79.37-36.86,149.74-86.44,205.88-145.05"/>
				<g>
					<path d="M893.59,707.88c0.56,46.54-5.84,93.01-18.78,137.88c-3.67,12.73-7.92,25.31-12.63,37.72
						c-0.82,2.15-0.06,5.12,2.88,3.75c30.87-14.36,60.69-30.74,89.11-49.14c27.8-18.01,54.3-37.86,79.03-59.58
						c13.66-12,26.78-24.57,39.32-37.63c1.15-1.21,2.32-3.92,1.12-5.41c-1.29-1.61-3.41-0.03-4.4,1
						c-22.02,22.96-45.96,44.21-71.38,63.7c-25.95,19.9-53.45,37.93-82.14,54.05c-16.56,9.31-33.51,17.97-50.79,26
						c0.96,1.25,1.92,2.5,2.88,3.75c17-44.85,27.54-91.8,30.99-139.39c0.97-13.35,1.36-26.73,1.2-40.11
						c-0.02-1.86-1.61-2.58-3.27-1.8C894.89,703.55,893.57,705.96,893.59,707.88L893.59,707.88z"/>
				</g>
			</g>
			<g>
				<path class="st11" d="M1042.97,763.92c79.82,0.96,160.54-9.92,234.23-39.19s140.1-77.72,182.61-142.17
					s59.49-145.35,38.94-218.92c-21.83-78.13-84.52-142.9-160.61-178.53s-164.26-43.79-248.19-32.49
					c-94.46,12.72-186.64,50.62-254.12,114.93s-107.99,156.25-98.87,246.83c9.12,90.58,71.63,176.76,161.02,208.5"/>
				<g>
					<path d="M1041.63,767.33c77.55,0.87,156.08-9.18,228.42-36.73c62.37-23.75,119.78-60.6,163.26-109.73
						c45.26-51.14,73.72-115.62,76.69-182.77c1.45-32.72-3.42-65.69-15.08-96.52c-10.7-28.31-26.78-54.67-46.68-77.99
						c-42.42-49.71-100.83-84.53-164.96-102.76c-70.8-20.13-147.01-20.74-219.21-7.3c-67.72,12.6-133.23,38.36-188.54,78
						c-54.92,39.35-98.25,92.8-122.33,154.32c-23.08,58.95-27.66,124.57-7.08,184.79c18.97,55.52,57.53,105.6,109.75,136.61
						c12.7,7.54,26.15,13.86,40.16,18.87c3.07,1.1,6.73-5.43,3.9-6.44c-56.66-20.28-102.36-62.2-130.42-112.92
						c-29.87-53.99-37.77-116.13-24.91-175.74c13.51-62.63,48.34-120.71,96.44-165.04c48.96-45.12,110.42-76.62,175.47-94.97
						c67.99-19.18,140.92-25.13,211.11-14.72c67.23,9.98,131.57,36.07,182.49,79.6c47.11,40.27,81.36,94.42,91.35,154.4
						c10.94,65.74-6.52,134.56-43.34,190.64c-35.06,53.4-87,95.53-145.17,124.69c-65.9,33.04-140,49.19-213.98,53.63
						c-18.2,1.09-36.43,1.47-54.66,1.26C1041.28,760.49,1038.28,767.29,1041.63,767.33L1041.63,767.33z"/>
				</g>
			</g>
			<g>
				<path class="st10" d="M1107.35,442.02c4.92-42.59-28.19-85.46-71.77-95.86c-43.58-10.4-92.54,11.02-114.97,48.14
					s-18.15,86.64,8.24,121.32c21.66,28.46,55.15,46.24,87.92,62.36c46.66,22.96,94.13,44.43,142.29,64.36
					c5.93,2.46,12.35,4.93,18.67,3.67c8.04-1.62,13.38-8.7,17.91-15.25c34.27-49.52,68.54-99.04,102.81-148.56
					c18.1-26.16,36.84-54.1,37.95-85.43c0.94-26.45-11.45-52.57-31.11-71.24c-33.43-31.76-88.11-41.01-130.95-22.15
					c-42.84,18.86-70.95,64.56-67.3,109.44"/>
				<g>
					<path d="M1110.08,441.36c4.28-38.66-20.42-77.15-57.17-93.25c-37.31-16.34-82.19-6.11-112.18,19.31
						c-32.62,27.64-44.04,71.47-33.56,111.32c5.4,20.54,16.61,39.03,32.1,54.14c16.16,15.76,35.77,27.78,55.91,38.39
						c22.68,11.95,46,22.87,69.29,33.67c24.51,11.37,49.24,22.34,74.15,32.89c6.45,2.73,12.89,5.47,19.38,8.11
						c5.72,2.33,11.79,4.5,18.12,3.58c11.4-1.65,18.06-12.61,23.83-20.94c15.42-22.28,30.85-44.57,46.27-66.85
						c15.42-22.28,30.85-44.57,46.27-66.85c13.91-20.1,28.69-40.1,38.1-62.6c8.74-20.91,11.46-43.52,4.79-65.33
						c-6.23-20.38-19.35-38.65-36.66-51.91c-32.22-24.67-78.78-31.75-117.37-17.55c-38.98,14.34-67.61,49.39-75.35,88.26
						c-1.87,9.39-2.48,19.02-1.74,28.55c0.34,4.39,5.84-0.12,5.62-2.98c-2.89-37.35,16.38-75.09,48.73-96.29
						c32.96-21.59,77.06-23.22,112.96-7.3c38.42,17.04,66.86,56.37,61.45,97.74c-2.88,22-14.09,41.9-26.26,60.42
						c-13.81,21.02-28.54,41.53-42.87,62.23c-14.75,21.32-29.51,42.64-44.26,63.96c-7.42,10.73-14.85,21.46-22.28,32.19
						c-5.43,7.84-11.47,19.28-23,18.64c-6.64-0.37-12.88-3.6-18.87-6.1c-5.86-2.44-11.71-4.91-17.55-7.39
						c-11.98-5.1-23.93-10.31-35.82-15.6c-23.79-10.59-47.39-21.56-70.79-32.91c-38.86-18.84-81.92-38.79-105.31-75.7
						c-21.11-33.31-23.63-78.26-2.02-111.93c19.96-31.1,59.91-49.74,97.88-45.82c38.64,3.98,71.62,33.08,80.79,68.85
						c2.2,8.6,2.96,17.56,1.98,26.37C1104.08,447.52,1109.73,444.58,1110.08,441.36L1110.08,441.36z"/>
				</g>
			</g>
			<g>
				<g>
					<path d="M1447.89,416.82c8.03,34.06,5.38,70.06-7.64,102.7c-0.48,1.22-0.64,3.35,1.13,3.62c1.74,0.27,3.31-1.91,3.81-3.18
						c13.64-34.19,16.52-71.87,8.11-107.57c-0.41-1.73-2.44-1.16-3.47-0.37C1448.43,413.09,1447.48,415.12,1447.89,416.82
						L1447.89,416.82z"/>
				</g>
			</g>
			<g>
				<g>
					<path d="M1430.09,559.59c-15.46,26.52-36.84,49.53-62.49,67.48c-2.73,1.91-2.58,8.06,1.53,5.18
						c26.67-18.66,48.93-42.85,65.01-70.42c0.66-1.13,1.47-3.49-0.08-4.34C1432.54,556.65,1430.72,558.5,1430.09,559.59
						L1430.09,559.59z"/>
				</g>
			</g>
			<g>
				<g>
					<path d="M803.51,449.17c1.06-34.1,11.12-67.81,28.98-97.36c5.11-8.45,10.85-16.53,17.17-24.19c0.94-1.14,2.08-3.37,0.98-4.74
						c-1.09-1.36-3.05-0.1-3.85,0.88c-23.41,28.4-39.27,62.32-45.72,97.93c-1.82,10.07-2.87,20.26-3.19,30.47
						c-0.05,1.65,1.46,2.24,2.86,1.58C802.42,452.94,803.46,450.87,803.51,449.17L803.51,449.17z"/>
				</g>
			</g>
			<g>
				<path class="st10" d="M1542.64,153.24c6.67-5.91,8.33-16.34,3.79-23.87c-4.54-7.53-14.81-11.42-23.53-8.9
					c-10.41,3.02-16.67,13.66-17.77,23.98c-1.1,10.33,1.84,20.6,4.13,30.75c2.29,10.15,3.92,20.94,0.33,30.74
					c22.4-11.11,43.44-24.7,62.57-40.42c7.18-5.9,14.76-14.33,11.72-22.89c-2.68-7.55-12.86-10.57-20.92-8.48
					c-8.06,2.1-14.42,7.85-20.41,13.4"/>
				<g>
					<path d="M1543.41,155.83c7.29-6.73,10.74-17.59,6.71-26.79c-3.64-8.32-13.02-13.41-22.37-12.64
						c-10.27,0.84-17.91,8.55-22,17.06c-4.86,10.09-4.06,21.29-1.91,31.93c2.64,13.05,7.91,27.15,3.29,40.35
						c-0.64,1.82-0.08,4.58,2.53,3.29c21.12-10.51,41.06-23.17,59.36-37.73c8.14-6.47,18.02-14.67,18.37-25.64
						c0.28-8.98-7.58-14.92-16.44-15.5c-11.79-0.77-21.28,7.55-29.15,14.81c-1.22,1.13-2.54,3.09-1.94,4.81
						c0.56,1.58,2.39,1.37,3.47,0.37c6.11-5.65,13.23-12.55,22.24-13.2c7.03-0.51,16.08,3.19,16.2,10.94
						c0.07,4.35-3.09,8.13-6.04,11.15c-3.35,3.44-7.32,6.38-11.13,9.34c-7.99,6.21-16.28,12.07-24.87,17.51
						c-9.74,6.17-19.82,11.83-30.18,16.99c0.84,1.1,1.68,2.19,2.53,3.29c3.4-9.71,2.66-19.77,0.66-29.68
						c-2.08-10.32-5.5-20.56-4.96-31.18c0.37-7.29,3.39-15.32,10.04-19.49c7-4.4,16.41-3.13,22.58,2.06
						c6.64,5.59,8.15,16.61,1.49,22.76c-1.22,1.13-2.54,3.09-1.94,4.81C1540.49,157.03,1542.32,156.83,1543.41,155.83
						L1543.41,155.83z"/>
				</g>
			</g>
			<g>
				<path class="st12" d="M1565.11,274.15c-1.85,15.88-12.35,30.61-27.15,38.08c7.06-2.99,15.62-2.47,22.23,1.34
					c6.6,3.81,11.06,10.82,11.55,18.16c1.24-14.78,12.62-28.31,27.48-32.67c-15.4,3.35-32.36-9.01-33.01-24.07"/>
				<g>
					<path d="M1562.38,274.81c-1.82,14.57-10.93,27.38-24.48,34.35c-2.52,1.29-4.27,7.9,0.11,6.14c13.7-5.52,29.71,3.86,30.91,17.93
						c0.36,4.2,5.31,0.27,5.55-2.15c1.26-13.24,10.77-24.61,24.08-28.67c1.76-0.54,3.09-2.3,3.4-4.01c0.24-1.38-0.28-3.05-2.07-2.68
						c-14.26,2.88-30.02-8.21-30.86-22.21c-0.1-1.61-1.36-2.29-2.86-1.58c-1.56,0.73-2.85,2.9-2.76,4.56
						c0.98,16.43,18.16,29.36,35.17,25.92c0.44-2.23,0.88-4.46,1.32-6.69c-16.62,5.06-29.29,20.08-30.87,36.68
						c1.85-0.72,3.7-1.43,5.55-2.15c-0.67-7.83-4.78-15.16-11.76-19.5c-7.46-4.64-16.83-4.82-24.88-1.58
						c0.04,2.04,0.07,4.09,0.11,6.14c16.18-8.33,27.66-24.38,29.84-41.81C1568.45,268.65,1562.79,271.6,1562.38,274.81
						L1562.38,274.81z"/>
				</g>
			</g>
			<path class="st13" d="M1603.17,640.84l8.02,23.58c0.34,1.01,1.34,1.7,2.45,1.7h25.95c2.5,0,3.54,3.05,1.52,4.44l-21,14.59
				c-0.9,0.62-1.28,1.74-0.94,2.75l8.02,23.59c0.77,2.27-1.95,4.15-3.97,2.75l-20.99-14.57c-0.9-0.63-2.13-0.63-3.03,0l-20.99,14.57
				c-2.02,1.4-4.74-0.48-3.97-2.75l8.02-23.59c0.34-1.01-0.03-2.12-0.94-2.75l-21-14.59c-2.02-1.4-0.98-4.44,1.52-4.44h25.95
				c1.12,0,2.11-0.68,2.45-1.7l8.02-23.58C1599.03,638.57,1602.4,638.57,1603.17,640.84z"/>
			<path class="st13" d="M950.03,74l8.02,23.58c0.34,1.01,1.34,1.7,2.45,1.7h25.95c2.5,0,3.54,3.05,1.52,4.44l-21,14.59
				c-0.9,0.62-1.28,1.74-0.94,2.75l8.02,23.59c0.77,2.27-1.95,4.15-3.97,2.75l-20.99-14.57c-0.9-0.63-2.13-0.63-3.03,0l-20.99,14.57
				c-2.02,1.4-4.74-0.48-3.97-2.75l8.02-23.59c0.34-1.01-0.03-2.12-0.94-2.75l-21-14.59c-2.02-1.4-0.98-4.44,1.52-4.44h25.95
				c1.12,0,2.11-0.68,2.45-1.7L945.13,74C945.9,71.74,949.26,71.74,950.03,74z"/>
			<path class="st13" d="M716.07,659.24l8.02,23.58c0.34,1.01,1.34,1.7,2.45,1.7h25.95c2.5,0,3.54,3.05,1.52,4.44l-21,14.59
				c-0.9,0.62-1.28,1.74-0.94,2.75l8.02,23.59c0.77,2.27-1.95,4.15-3.97,2.75l-20.99-14.57c-0.9-0.63-2.13-0.63-3.03,0l-20.99,14.57
				c-2.02,1.4-4.74-0.48-3.97-2.75l8.02-23.59c0.34-1.01-0.03-2.12-0.94-2.75l-21-14.59c-2.02-1.4-0.98-4.44,1.52-4.44h25.95
				c1.12,0,2.11-0.68,2.45-1.7l8.02-23.58C711.94,656.97,715.3,656.97,716.07,659.24z"/>
			<g>
				<path class="st14" d="M1439.04,825.48c-1.74-10.25-12.07-18.51-22.94-18.36c-10.88,0.15-20.95,8.7-22.37,18.99
					c-1.5,10.85,5.87,21.39,15.41,27.48c9.53,6.09,20.97,8.69,32.06,11.52c11.09,2.82,22.45,6.16,31.13,13.33
					c3.19-20.83,6.38-41.65,9.58-62.48c1.52-9.9,2.27-21.79-5.95-28.01c-8.48-6.42-21.93-1.99-28.25,6.41
					c-6.31,8.4-7.4,19.26-8.29,29.55"/>
				<g>
					<path d="M1441.74,823.26c-1.88-9.96-10.88-18.12-21.43-19.39c-10.95-1.32-21.58,5.53-26.48,14.59
						c-5.53,10.24-3.06,22.04,4.48,30.71c8.18,9.41,20.32,13.74,32.31,16.96c13.83,3.71,28.47,6.4,39.74,15.51
						c1.93,1.56,4.49-2.61,4.68-3.88c2-13.01,3.99-26.03,5.99-39.05c1.02-6.67,2.04-13.34,3.07-20.01
						c0.77-5.01,1.58-10.04,1.56-15.11c-0.04-8.71-3.14-18.46-12.78-21.33c-9.2-2.74-19.32,2-25.33,8.6
						c-8.59,9.43-9.92,22.64-10.95,34.53c-0.15,1.67,1.52,2.21,2.86,1.58c1.74-0.82,2.61-2.83,2.76-4.56
						c0.77-8.9,1.43-19.27,7.32-26.67c4.56-5.73,13.68-9.36,20.98-6.53c8.33,3.23,9.81,12.24,9.46,19.83
						c-0.22,4.83-1.14,9.62-1.87,14.4c-0.85,5.53-1.69,11.07-2.54,16.59c-2,13.01-3.99,26.03-5.99,39.05
						c1.56-1.29,3.12-2.59,4.68-3.88c-17.81-14.41-43.23-12.58-62.43-24.37c-8.33-5.12-15.84-14.03-15.49-23.95
						c0.3-8.72,8.43-15.59,17.3-16.31c10.77-0.87,20.8,7.18,22.68,17.12c0.33,1.76,2.49,1.13,3.47,0.37
						C1441.25,826.96,1442.07,825,1441.74,823.26L1441.74,823.26z"/>
				</g>
			</g>
			<g>
				<path class="st15" d="M1281.11,804.18c0.9,15.17-7.29,30.53-20.67,38.77c17.12-5.23,37.52,2.18,46.65,16.95
					c-6.93-15.17-1.35-34.61,12.72-44.3c-13.57,4.61-30.1-0.66-38.04-12.14"/>
				<g>
					<path d="M1278.29,805.67c0.67,13.49-6.02,26.74-17.91,34.21c-1.46,0.92-2.59,2.44-2.72,4.14c-0.09,1.18,0.51,2.74,2.11,2.27
						c16.74-4.94,35.86,2.13,44.89,16.42c1.73,2.73,6.06-2.92,5.13-5.03c-6.13-13.83-2.02-30.48,10.78-39.49
						c1.17-0.82,2.13-2.67,2.05-4.08c-0.06-1.07-0.83-2.29-2.15-1.85c-13.19,4.3-28.46-0.6-36.28-11.6
						c-1.91-2.69-6.55,3.21-4.84,5.62c8.54,12.02,25.4,17.37,39.79,12.67c-0.04-1.98-0.07-3.96-0.1-5.94
						c-15.38,10.83-22.17,32.17-14.66,49.11c1.71-1.68,3.42-3.35,5.13-5.03c-9.71-15.35-30.49-22.77-48.41-17.49
						c-0.2,2.14-0.41,4.28-0.61,6.41c14.96-9.41,24.27-26.16,23.43-43.32c-0.08-1.62-1.37-2.29-2.86-1.58
						C1279.49,801.85,1278.22,804,1278.29,805.67L1278.29,805.67z"/>
				</g>
			</g>
			<g>
				<path class="st16" d="M775.08,756.88c2.9,15.8-4.06,32.88-17.36,42.69c13.35-4.06,29.33,2.63,35.23,14.75
					c-1.16-14.06,5.68-28.48,17.51-36.93c-14.38,2.51-30.03-5.51-35.78-18.33"/>
				<g>
					<path d="M772.37,759.09c2.47,14.25-3.55,28.97-15.42,37.88c-1.15,0.87-2.13,2.64-2.04,4.08c0.06,1.1,0.82,2.24,2.15,1.85
						c13.01-3.76,27.61,2.59,33.48,14.21c0.62,1.22,2.49,0.32,3.18-0.22c1.16-0.91,2.15-2.62,2.04-4.08
						c-0.93-12.79,4.77-25.06,15.46-32.85c1.54-1.12,3.62-6.54-0.1-5.94c-13.52,2.2-28.16-5.2-33.73-17.2
						c-1.64-3.53-6.6,1.88-5.41,4.44c6.41,13.8,22.18,21.99,37.82,19.45c-0.04-1.98-0.07-3.96-0.1-5.94
						c-13.04,9.5-20.69,25.37-19.55,41.01c1.74-1.43,3.49-2.87,5.23-4.3c-6.45-12.76-22.86-19.38-36.99-15.29
						c0.04,1.98,0.07,3.96,0.1,5.94c14.81-11.11,22.37-29.8,19.3-47.5c-0.31-1.77-2.51-1.12-3.47-0.37
						C772.85,755.42,772.07,757.35,772.37,759.09L772.37,759.09z"/>
				</g>
			</g>
			<g>
				<path class="st12" d="M713.5,175.55c3.24,14.72-0.77,30.74-10.63,42.48c14.46-9.21,35.83-6.69,47.51,5.6
					c-10.66-11.59-10.66-30.77,0.01-42.36c-12.96,3.98-28.13,0.45-37.71-8.79"/>
				<g>
					<path d="M710.8,177.77c2.82,13.36-0.49,27.6-9.36,38.33c-0.86,1.04-1.76,2.77-1.27,4.15c0.4,1.14,1.69,1.51,2.76,0.85
						c13.88-8.63,33.76-6.26,45.03,5.35c2.42,2.49,6.78-3.45,4.84-5.62c-9.33-10.4-10.54-26.96-0.98-37.61
						c1.02-1.14,2.51-6.24-0.77-5.28c-12.46,3.68-26.63,0.53-35.95-8.26c-2.55-2.4-6.94,3.64-4.84,5.62
						c10.29,9.7,25.59,13.42,39.47,9.32c-0.26-1.76-0.51-3.52-0.77-5.28c-11.67,12.99-12.88,33.85-0.99,47.1
						c1.61-1.87,3.22-3.74,4.84-5.62c-12.6-12.97-34.43-15.52-49.98-5.86c0.5,1.67,0.99,3.33,1.49,5
						c10.82-13.11,15.36-30.23,11.9-46.63c-0.37-1.75-2.47-1.15-3.47-0.37C711.32,174.06,710.43,176.04,710.8,177.77L710.8,177.77z"
						/>
				</g>
			</g>
		</g>
	</g>
</g>
</svg>
