<?xml version="1.0" encoding="utf-8"?>
<!-- Generator: Adobe Adobe Illustrator 24.2.0, SVG Export Plug-In . SVG Version: 6.00 Build 0)  -->
<svg version="1.1" xmlns="http://www.w3.org/2000/svg" xmlns:xlink="http://www.w3.org/1999/xlink" x="0px" y="0px"
	 viewBox="0 0 1700.79 1700.79" style="enable-background:new 0 0 1700.79 1700.79;" xml:space="preserve">
<style type="text/css">
	.st0{fill:#7E8D9C;}
	.st1{fill:#3D4D5B;}
	.st2{fill:#D3E1EC;}
	.st3{fill:#808E9C;}
	.st4{fill:#F3C159;}
	.st5{fill:#F3C158;}
	.st6{opacity:0.2784;}
	.st7{opacity:0.0784;}
	.st8{fill:#FFFFFF;}
	.st9{opacity:0.1608;}
	.st10{fill:#F4F5E7;}
	.st11{fill:#F3C057;}
	.st12{fill:#7F8D9C;}
	.st13{fill:#CA334D;}
	.st14{fill:#CA344E;}
	.st15{opacity:0.149;}
</style>
<g id="Ebene_4">
</g>
<g id="Ebene_3">
</g>
<g id="Ebene_14">
</g>
<g id="Ebene_5">
</g>
<g id="Ebene_6">
</g>
<g id="Ebene_7">
	<g>
		<g>
			<path class="st0" d="M278.36,842.07c-92.02,103.45-255.44,244.96-46.42,386.24c182.07,123.06,297.75-32.6,382.53-121.22"/>
			<g>
				<path d="M272.11,835.82c-39.33,44.17-82.14,85.99-114.14,136.1c-15,23.49-27.75,49.32-33.33,76.8
					c-5.56,27.4-3.69,55.78,6.93,81.76c13.65,33.42,38.38,60.84,66.12,83.39c32.05,26.05,68.28,48.45,108.11,60.29
					c30.67,9.11,63.04,11,94.45,4.76c28.86-5.73,56.16-18.37,80.72-34.36c48.66-31.67,87.54-75.31,126.8-117.46
					c4.29-4.61,8.6-9.2,12.95-13.75c7.86-8.22-4.62-20.74-12.5-12.5c-37.48,39.21-72.69,81.3-116.1,114.28
					c-44.94,34.14-98.93,57.1-156.28,47.82c-36.09-5.84-69.36-21.95-99.45-42.26c-30.69-20.72-60.39-45.9-79.33-78.22
					c-13.59-23.2-19.78-48.74-17.42-75.34c2.2-24.75,12.28-49.6,24.73-71.6c28.1-49.67,68.85-90.81,107.07-132.64
					c4.41-4.83,8.81-9.68,13.16-14.57C292.15,839.85,279.69,827.31,272.11,835.82L272.11,835.82z"/>
			</g>
		</g>
		<g>
			<path class="st1" d="M511.3,912.44C342.92,780.1,308.43,726.34,263.9,781.93c-51.11,63.8,372.94,384.38,427.58,332.44
				c47.2-44.86-6.67-61.43-180.87-203.22"/>
			<g>
				<path d="M517.55,906.19c-32.06-25.22-63.58-51.1-95.02-77.09c-21.4-17.69-42.69-35.68-65.22-51.94
					c-23-16.61-54.7-36.87-82.3-18.02c-9.74,6.65-21.17,17.04-23.53,29.16c-2.24,11.53,1.65,23.04,6.49,33.38
					c6.3,13.46,15.22,25.61,24.38,37.24c11.69,14.83,24.54,28.72,37.83,42.12c32.32,32.58,67.42,62.43,103.61,90.6
					c37.56,29.24,76.46,56.87,117.11,81.67c31.61,19.29,64.84,38.21,100.27,49.53c11.3,3.61,23.74,6.82,35.7,5.91
					c12.05-0.92,20.16-6.38,27.86-15.48c7.98-9.43,13.44-20.37,11.27-32.98c-2.16-12.56-11.43-23.2-20.08-31.97
					c-14.84-15.05-31.86-28-48.48-40.97c-26.67-20.8-53.6-41.25-80.19-62.15c-16.91-13.29-33.72-26.72-50.4-40.3
					c-3.7-3.01-8.88-3.62-12.5,0c-3.11,3.11-3.72,9.47,0,12.5c30.91,25.14,62.27,49.72,93.82,74.05c20.9,16.12,42.03,32,62.36,48.84
					c7.04,5.84,14,11.81,20.55,18.2c2.62,2.56,5.17,5.18,7.59,7.93c1.04,1.19,2.04,2.41,3.05,3.63c0.88,1.06-1.05-1.49,0.22,0.28
					c0.48,0.68,0.98,1.34,1.45,2.03c1.5,2.19,2.74,4.48,3.97,6.82c1.09,2.08-0.31-1.11,0-0.04c0.14,0.5,0.39,0.98,0.54,1.48
					c0.33,1.09,0.58,2.19,0.88,3.29c0.41,1.49-0.03,0.71-0.02-0.55c0,0.53,0.14,1.07,0.14,1.61c0.02,1.07-0.06,2.14-0.05,3.2
					c0.02,2.13,0.44-1.27,0.06-0.41c-0.18,0.41-0.17,0.97-0.29,1.41c-0.3,1.07-0.67,2.12-0.97,3.18c-0.54,1.9,0.77-1.49,0.16-0.34
					c-0.25,0.46-0.43,0.96-0.69,1.42c-0.63,1.16-1.26,2.3-1.98,3.41c-0.69,1.07-1.44,2.08-2.19,3.1c1.01-1.4,0.7-0.86-0.09,0.07
					c-0.53,0.63-1.06,1.26-1.6,1.88c-2.01,2.28-4.24,4.32-6.35,6.5c-1.54,1.59,1.81-0.88-0.37,0.27c-0.76,0.4-1.6,0.82-2.32,1.28
					c-1,0.63,2.43-0.75,0.71-0.3c-0.4,0.1-0.78,0.3-1.18,0.41c-1,0.28-2,0.52-3.01,0.77c-3.01,0.73,1.38,0.03-0.94,0.16
					c-1.12,0.06-2.24,0.17-3.37,0.19c-2.34,0.05-4.68-0.08-7-0.32c-0.66-0.07-1.33-0.16-1.99-0.23c0.67,0.07,1.82,0.3-0.15-0.04
					c-1.43-0.25-2.85-0.49-4.27-0.78c-6.28-1.28-12.44-3.08-18.5-5.14c-3.36-1.14-6.68-2.36-9.99-3.65
					c-1.85-0.72-3.69-1.46-5.53-2.22c-0.53-0.22-3-1.26-1.03-0.42c-1.06-0.45-2.13-0.91-3.19-1.37
					c-16.76-7.32-32.99-15.82-48.9-24.82c-38.48-21.78-75.27-46.59-110.84-72.83c-36.29-26.77-71.8-55.6-105.32-86.69
					c-14.77-13.69-29.14-27.84-42.73-42.71c-5.86-6.41-11.57-12.96-17.04-19.71c-1.33-1.63-2.63-3.28-3.94-4.94
					c-0.9-1.14,0.74,0.99-0.71-0.92c-0.68-0.89-1.35-1.78-2.02-2.67c-2.17-2.91-4.28-5.86-6.32-8.86
					c-3.7-5.46-7.18-11.08-10.17-16.96c-0.68-1.34-1.33-2.69-1.96-4.05c-0.27-0.58-0.52-1.17-0.78-1.76c0.9,2,0.23,0.58-0.17-0.47
					c-0.87-2.29-1.68-4.6-2.31-6.98c-0.29-1.09-0.52-2.19-0.75-3.29c-0.12-0.56-0.17-1.13-0.29-1.68c0.36,1.7,0.15,1.72,0.06,0.17
					c-0.11-1.9,0.22-3.92,0.05-5.78c0.28,3.03-0.13,0.8,0.23-0.61c0.33-1.29,1.79-3.62,0.15-0.93c0.41-0.67,0.73-1.45,1.11-2.15
					c0.19-0.35,0.49-0.66,0.66-1.02c0.59-1.2-1.58,1.87,0.18-0.21c2.36-2.79,4.75-5.54,7.39-8.08c1.06-1.02,2.16-1.98,3.27-2.94
					c0.81-0.69,1.76-1.36,0.26-0.26c0.68-0.5,1.35-1.01,2.05-1.48c1.14-0.78,2.31-1.51,3.51-2.17c1.16-0.64,4.54-1.95,2.08-1.1
					c2.52-0.86,4.94-1.57,7.57-2.05c-3.23,0.59,0.91-0.01,1.92-0.03c1.4-0.03,2.78,0.09,4.18,0.16c2.47,0.13-0.73-0.19,0.27,0.01
					c0.65,0.13,1.3,0.22,1.94,0.35c1.52,0.3,3.02,0.69,4.5,1.12c1.49,0.44,2.96,0.94,4.42,1.49c0.81,0.3,1.61,0.63,2.41,0.95
					c-2.02-0.82,0.15,0.08,0.91,0.43c3.48,1.6,6.87,3.4,10.19,5.32c18.62,10.78,34.69,23.94,51.11,37.22
					c25.86,20.91,51.29,42.35,77.07,63.34c16.23,13.22,32.57,26.31,49.03,39.26c3.75,2.95,8.84,3.66,12.5,0
					C520.61,915.62,521.32,909.15,517.55,906.19L517.55,906.19z"/>
			</g>
		</g>
		<g>
			<path class="st2" d="M376.97,792.92C516.68,636.57,528.35,623.26,562.3,654.22c22.97,20.94,19.78,11.61-133.32,189"/>
			<g>
				<path d="M383.21,799.17c23.43-26.22,46.79-52.51,70.56-78.41c15.03-16.38,30.15-32.79,46.41-47.96
					c2.85-2.66,5.75-5.28,8.72-7.81c1.24-1.06,2.49-2.11,3.76-3.14c0.64-0.52,1.28-1.03,1.93-1.54c0.94-0.75-1.32,1-0.38,0.29
					c0.38-0.29,0.77-0.59,1.16-0.87c4.22-3.1,8.55-5.85,13.23-8.19c2.43-1.21-1.74,0.49,0.99-0.4c0.99-0.32,1.96-0.68,2.96-0.94
					c0.82-0.22,1.72-0.29,2.51-0.55c1.52-0.5-2.29,0.05-0.72,0.09c0.47,0.01,0.96-0.1,1.44-0.11c0.78-0.01,1.56,0,2.34,0.02
					c2.76,0.04-1.38-0.51,0.54,0.04c1.59,0.45,3.16,0.9,4.74,1.41c-2.54-0.82-0.87-0.38,0.37,0.25c0.85,0.43,1.67,0.9,2.48,1.4
					c0.75,0.46,1.48,0.94,2.21,1.44c0.73,0.51,3.66,2.8,1.05,0.7c2.93,2.35,5.74,4.84,8.52,7.37c1.72,1.57,3.36,3.17,4.98,4.84
					c1.89,1.97-1.16-1.95,0.47,0.64c0.21,0.33,0.36,0.79,0.61,1.09c0.93,1.1-0.97-2.53-0.31-0.68c0.13,0.36,0.27,0.8,0.29,1.18
					c0.06,0.88-0.81-2.84-0.16-0.77c0.11,0.36-0.22,1.02-0.06,1.33c-0.33-0.63,0.64-2.58,0-0.54c-0.16,0.51-0.31,1.03-0.45,1.54
					c-0.08,0.29-0.25,0.57-0.32,0.87c-0.35,1.54,1.04-1.99,0.37-0.86c-0.77,1.31-1.35,2.75-2.12,4.07
					c-2.12,3.64-4.63,7.05-7.15,10.42c-0.34,0.46-0.69,0.9-1.04,1.36c1.64-2.15,0.22-0.29-0.19,0.23c-0.97,1.23-1.94,2.45-2.93,3.67
					c-2.11,2.61-4.25,5.19-6.41,7.76c-32.88,39.13-67.41,76.92-100.93,115.5c-6.67,7.67-13.32,15.36-19.96,23.05
					c-7.4,8.57,5.05,21.13,12.5,12.5c38.33-44.4,77.65-87.95,115.77-132.52c8.25-9.64,16.74-19.36,23.7-29.99
					c3.66-5.6,7.14-12.09,6.86-18.98c-0.25-6.35-3.91-11.43-8.32-15.69c-5.58-5.4-11.55-10.85-18.21-14.87
					c-20.23-12.23-39.98-0.34-56.1,12.97c-15.12,12.48-28.69,26.87-42.1,41.12c-22.15,23.55-43.65,47.69-65.2,71.78
					c-6.98,7.8-13.95,15.6-20.92,23.4C363.16,795.13,375.62,807.68,383.21,799.17L383.21,799.17z"/>
			</g>
		</g>
		<g>
			<path class="st2" d="M588,959.8C734.9,809.42,740.55,796.59,769.46,822.01c31.9,28.05,18.36,21.54-126.76,189.97"/>
			<g>
				<path d="M594.25,966.05c39.1-40.03,77.11-81.45,117.92-119.76c5.25-4.93,10.58-9.78,16.17-14.33c1.01-0.83,2.04-1.64,3.07-2.45
					c-2.16,1.68,1.23-0.9,1.92-1.39c1.94-1.39,3.93-2.73,5.98-3.94c1.68-0.99,3.43-1.77,5.16-2.66c-1.56,0.8-1.12,0.38,0.49-0.11
					c0.77-0.24,1.55-0.44,2.33-0.66c1.61-0.46,2.39,0.14,0.01-0.1c0.67,0.07,1.45-0.13,2.14-0.13c0.58,0,1.39,0.21,1.94,0.1
					c-1.23,0.26-2.05-0.53-0.09,0.07c0.61,0.19,1.23,0.37,1.85,0.54c2.37,0.67-1.23-0.77,0.08,0c1.25,0.74,2.56,1.34,3.78,2.14
					c0.68,0.44,1.33,0.92,1.99,1.38c2.25,1.58-1.22-1.07,0.5,0.38c1.39,1.17,2.78,2.32,4.15,3.52c2.57,2.26,5.15,4.54,7.52,7.02
					c0.48,0.51,0.94,1.04,1.42,1.55c1.36,1.47,0.52,1.17,0.09,0.04c0.36,0.95,1.36,2.26,1.94,3.12c1.1,1.62-0.41-2.1-0.16-0.38
					c0.07,0.47,0.27,1.23,0.46,1.67c0.72,1.67,0.14-2.55-0.08-0.51c-0.06,0.54-0.1,1.39-0.03,1.92c0.18,1.29,0.73-2.66,0.04-0.45
					c-0.21,0.66-0.32,1.35-0.53,2.01c-0.23,0.73-0.54,1.42-0.79,2.14c0.94-2.71,0.3-0.73-0.31,0.47c-1.92,3.76-4.35,7.25-6.85,10.63
					c-0.71,0.96-2.6,3.38-1.27,1.69c-0.93,1.18-1.86,2.36-2.81,3.53c-2.08,2.57-4.2,5.1-6.34,7.61
					c-32.59,38.22-67.1,74.82-100.12,112.68c-6.48,7.43-12.93,14.88-19.36,22.34c-7.39,8.58,5.06,21.13,12.5,12.5
					c37.5-43.5,76.47-85.67,114.23-128.94c8.29-9.5,17.02-19.16,23.54-30.01c4.08-6.8,7.07-14.64,5.16-22.64
					c-1.63-6.81-6.68-12.21-11.66-16.84c-5.46-5.07-11.28-10.62-18.07-13.84c-19.41-9.21-37.45,5.69-51.5,17.87
					c-14.48,12.56-27.95,26.3-41.41,39.93c-22.23,22.52-44.17,45.31-66.24,67.99c-7.08,7.27-14.16,14.54-21.25,21.8
					C573.79,961.7,586.28,974.21,594.25,966.05L594.25,966.05z"/>
			</g>
		</g>
		<g>
			<path d="M167.14,1171.88c-8.37,4.58-38.03,35.01-31.15,52.6c6.31,16.15,89.91,63.31,94.93,65.75
				c12.65,6.15,37.93-24.87,43.83-37.39"/>
			<g>
				<path d="M162.68,1164.24c-7.36,4.21-13.67,11.18-19.03,17.62c-7.05,8.48-14.11,18.31-16.58,29.26
					c-2.06,9.13-0.31,17.22,5.77,24.23c4.97,5.73,11.31,10.38,17.35,14.9c15.52,11.62,32.1,21.85,48.72,31.79
					c6.55,3.91,13.13,7.76,19.77,11.52c3.82,2.16,7.87,4.91,12.19,5.87c11.72,2.61,23.08-7.09,30.74-14.66
					c7.99-7.9,15.83-17.31,20.77-27.48c4.95-10.19-10.29-19.16-15.26-8.92c-3.57,7.35-8.76,13.99-14.25,19.99
					c-3.14,3.44-6.49,6.88-10.22,9.7c-3.31,2.49-5.43,2.86-8.52,4.27c1.72-0.78-0.91-0.25,1.1,0.02c-1.77-0.24,0.26,0.33,0.04,0.19
					c-0.36-0.23-0.78-0.4-1.15-0.61c-1.65-0.91-3.31-1.81-4.95-2.74c-5.62-3.16-11.2-6.4-16.75-9.68
					c-14.92-8.82-29.71-17.93-43.96-27.8c-6.74-4.68-11.56-8.09-17.34-13.18c-2.04-1.8-3.88-3.73-5.78-5.67
					c-0.43-0.44-1.41-2,0.02,0.11c-0.05-0.07-0.84-1.15-0.81-1.17c-0.02,0.02-0.57-1.03-0.62-1.1c1.7,2.56,0.07,0.17-0.15-1.13
					c0.29,1.71,0.02-1.17,0.03-1.28c0.08-1.79,0.03-1.28,0.31-2.46c0.49-2.11,1.19-4.2,2-5.97c2.13-4.68,5.04-9.12,8.17-13.19
					c3.16-4.11,6.72-7.98,10.46-11.57c1.49-1.43,3.03-2.81,4.62-4.13c1.9-1.57-1.4,0.88,0.43-0.32c0.6-0.39,1.18-0.8,1.8-1.15
					C181.47,1173.85,172.58,1158.58,162.68,1164.24L162.68,1164.24z"/>
			</g>
		</g>
		<g>
			<path class="st3" d="M154.02,1242.15c-37.21,52.93-116.8,179.34-76.51,277.52C108.43,1595,200.4,1637.5,285.4,1635.21
				c85.01-2.29,163.33-40.88,232.14-86.5c220.13-145.92,443.24-402,608.37-370.69c230.1,43.63,140.51,314.03,124.96,396.03
				c-11.21,59.1,8,56.27,24.56,61.08c15.3,4.45,32.93,18.48,39.14-46.35c9.78-101.92,71.59-246.75-11.99-378.3
				c-110.23-173.49-295.75-111.26-347.22-85.35c-214.47,107.94-355.8,320.56-575.02,419.99c-135.69,61.54-218.08,2.79-234.62-35.72
				c-34.81-81.07,30.93-195.72,56.18-231.01"/>
			<g>
				<path d="M146.39,1237.69c-39.79,56.68-76.5,121.44-86.36,190.94c-5.42,38.21-1.56,77.22,17.51,111.35
					c18.37,32.87,48.27,58.38,81.51,75.42c34.88,17.88,73.96,27.59,113.11,28.65c46.01,1.24,92.12-9.31,134.74-26.12
					c83.76-33.04,157.06-88.61,227.45-143.68c68.89-53.9,135.28-110.97,204.88-163.97c31.19-23.75,63.07-46.75,96.46-67.34
					c29.01-17.89,59.34-34.31,91.62-45.51c26.58-9.23,54.57-14.95,82.81-12.69c29.08,2.34,59.18,12.39,84.09,27.5
					c43.65,26.48,66.78,71.54,74.58,120.77c7.66,48.28,2.07,98.8-6.7,146.51c-3.8,20.65-8.39,41.14-13.07,61.61
					c-5.05,22.1-12.12,45.83-10.05,68.58c1.01,11.04,4.76,21.87,14.84,27.69c6.8,3.93,14.76,4.7,22.1,7.15
					c7.07,2.36,14.4,5.15,21.94,3.08c11.32-3.1,16.75-14.58,19.84-24.92c5.31-17.75,5.58-36.64,8.35-54.86
					c2.82-18.59,6.5-37.03,10.11-55.48c7.91-40.34,15.61-80.91,17.81-122.04c2.37-44.28-2.03-89.34-17.48-131.12
					c-14.89-40.29-39.19-77.78-70.12-107.63c-46.62-44.99-108.41-67.98-172.89-67.64c-45.9,0.24-92.31,10.73-134.15,29.56
					c-32.29,14.53-62.96,33.65-92.31,53.35c-34.97,23.46-68.32,49.27-100.75,76.1c-64.94,53.71-126.19,111.73-191.33,165.21
					c-32.29,26.51-65.58,51.84-100.56,74.71c-35.94,23.49-73.98,45.53-114.05,61.2c-59.45,23.25-138.97,31.85-189.34-15.28
					c-7.26-6.79-11.9-12.22-16.27-20.93c-7.08-14.13-9.66-30.89-10.05-46.54c-0.9-36.66,10.14-73.31,24.75-106.6
					c11-25.06,24.21-49.54,40.12-71.86c6.61-9.28-8.71-18.12-15.26-8.92c-16.37,22.98-29.93,48.24-41.1,74.11
					c-14.73,34.11-26.02,70.78-26.23,108.24c-0.16,28.22,6.23,57.47,25.51,78.85c17.01,18.88,40.68,31.57,64.88,38.55
					c80.69,23.26,163.19-14.19,231.73-54.33c71.76-42.03,136.11-95.34,198.56-149.92c62.81-54.9,124.19-111.76,191.42-161.32
					c33.56-24.74,68.54-47.64,105.32-67.32c9.54-5.11,19.15-10.09,29.12-14.31c-1.73,0.73,0.88-0.36,1.39-0.57
					c0.98-0.4,1.95-0.79,2.93-1.18c2.19-0.87,4.39-1.71,6.6-2.53c4.54-1.68,9.12-3.26,13.72-4.74
					c48.4-15.58,101.27-21.32,151.23-10.01c70.79,16.01,126.68,66.96,158.95,130.95c39.84,79.01,30.36,167.66,14.28,251.47
					c-3.6,18.74-7.45,37.44-10.76,56.23c-3.24,18.36-4.75,36.87-7.59,55.26c-1.11,7.2-2.56,15.41-5.32,21.83
					c-0.51,1.19-1.11,2.36-1.77,3.47c-0.31,0.53-2.02,2.83-0.96,1.58c-0.6,0.71-1.26,1.39-1.97,2c1.43-1.22,0.02,0.07-0.78,0.34
					c2.42-0.83,0.03-0.01-0.55,0.08c-1.19,0.19,1.86,0.01-0.39,0.03c-0.75,0-1.49-0.05-2.24-0.1c2.17,0.15,0.23,0.02-0.77-0.24
					c-3.21-0.83-6.29-2.01-9.44-3.04c-3.34-1.09-6.76-1.83-10.16-2.69c-1.73-0.44-3.42-0.93-5.11-1.5c-1.62-0.54-0.62-0.24-0.6-0.23
					c-0.87-0.45-1.71-0.91-2.54-1.43c-0.89-0.55,0.72,0.73-0.79-0.68c-0.45-0.42-1.94-2.42-0.88-0.88c-1.73-2.5-1.77-2.81-2.34-5.08
					c-1.59-6.37-1.41-13-0.89-19.65c1.57-19.87,7.12-39.55,11.52-58.94c10.31-45.37,19.28-91.32,21.23-137.91
					c2.08-49.62-3.84-102.3-30.16-145.5c-30.23-49.63-85.25-77.87-141.87-84.99c-61.34-7.71-122.4,19.94-174.14,49.94
					c-69.54,40.33-132.59,91.47-194.9,141.95c-67.9,55-134.92,111.35-206.46,161.63c-74.13,52.09-157.3,100.24-250.02,104.77
					c-72.61,3.54-155.93-24.92-195.74-89.31c-41.04-66.37-14.53-149.17,18.32-213.04c13.8-26.83,29.82-52.48,47.15-77.16
					C168.21,1237.28,152.89,1228.44,146.39,1237.69L146.39,1237.69z"/>
			</g>
		</g>
		<g>
			<path class="st4" d="M397.59,1014.64c-33.3,8.8-66.6,17.6-99.91,26.4c15.07,12.87,30.13,25.75,45.2,38.62
				c-26.55,28.88-53.1,57.76-79.65,86.64c47.23-23.4,94.45-46.79,141.68-70.19c-14.08-11.48-28.15-22.97-42.23-34.45
				c13.83-15.8,27.65-31.61,41.48-47.41"/>
			<g>
				<path class="st5" d="M395.24,1006.12c-33.3,8.8-66.6,17.6-99.91,26.4c-6.07,1.61-9.03,10.38-3.9,14.77
					c15.07,12.87,30.13,25.75,45.2,38.62c0-4.17,0-8.33,0-12.5c-26.55,28.88-53.1,57.76-79.65,86.64
					c-6.92,7.53,1.72,18.33,10.71,13.88c47.23-23.4,94.45-46.79,141.68-70.19c4.77-2.36,6.05-10.4,1.79-13.88
					c-14.08-11.48-28.15-22.97-42.23-34.45c0,4.17,0,8.33,0,12.5c13.83-15.8,27.65-31.61,41.48-47.41
					c7.46-8.53-4.99-21.08-12.5-12.5c-13.83,15.8-27.65,31.61-41.48,47.41c-2.9,3.31-3.9,9.32,0,12.5
					c14.08,11.48,28.15,22.97,42.23,34.45c0.6-4.63,1.19-9.25,1.79-13.88c-47.23,23.4-94.45,46.79-141.68,70.19
					c3.57,4.63,7.14,9.25,10.71,13.88c26.55-28.88,53.1-57.76,79.65-86.64c3.04-3.31,3.76-9.29,0-12.5
					c-15.07-12.87-30.13-25.75-45.2-38.62c-1.3,4.92-2.6,9.85-3.9,14.77c33.3-8.8,66.6-17.6,99.91-26.4
					C410.92,1020.26,406.26,1003.2,395.24,1006.12L395.24,1006.12z"/>
			</g>
		</g>
		<g class="st6">
			<path d="M533.22,648.11C460.28,725.69,454,762.29,428.51,829.96c-33.09-25.96-48.78-28.14-42.08-36.19
				c42.6-51.15,88.89-98.33,146.13-154.16"/>
			<g>
				<path d="M526.98,641.86c-22.54,24.03-44.08,49.43-61.15,77.71c-12.62,20.92-22.12,43.39-30.58,66.26
					c-5.14,13.91-10.05,27.9-15.27,41.78c4.92-1.3,9.85-2.6,14.77-3.9c-12.57-9.8-25.97-18.03-39.05-27.07
					c-0.52-0.36-2.69-2.08-0.93-0.61c-0.55-0.46-1.07-1.02-1.64-1.44c-1.67-1.23,0.49,0.95,0.02,0.11c-0.21-0.37,0.62,2.49,0.6,2.19
					c0.04,0.72-0.68,2.9-0.49,2.43c0.61-1.49-1.79,2-0.05,0.05c0.74-0.83,1.42-1.7,2.13-2.55c3.21-3.82,6.44-7.63,9.69-11.42
					c25.92-30.18,53.24-59.12,81.18-87.43c17.34-17.56,34.92-34.89,52.59-52.13c8.16-7.96-4.35-20.45-12.5-12.5
					c-32.31,31.52-64.35,63.33-95.1,96.38c-14.11,15.16-27.93,30.58-41.37,46.34c-7.53,8.82-20.56,20.25-8.83,31.37
					c4.46,4.23,10.14,7.31,15.29,10.6c8.91,5.69,17.63,11.66,25.97,18.16c5.45,4.25,12.26,2.77,14.77-3.9
					c8.41-22.36,15.89-45.55,25.31-67.26c10.14-23.36,23.11-45.18,38.43-65.51c11.93-15.84,25.15-30.72,38.71-45.18
					C547.25,646.07,534.78,633.54,526.98,641.86L526.98,641.86z"/>
			</g>
		</g>
		<g class="st6">
			<path d="M749.19,816.02c-68.74,49.66-88.01,137.37-106.49,195.96c3.08-12.06-49.25-28.08-45.91-49.27
				c1.18-7.54,35.8-49.03,141.83-141.66"/>
			<g>
				<path d="M744.73,808.39c-52.38,38.18-78.56,97.68-97.33,157.79c-4.51,14.45-8.68,29.01-13.23,43.45
					c5.68,1.57,11.36,3.13,17.04,4.7c1.93-9.61-5.21-15.97-12.2-21.17c-7.36-5.46-15.92-10.26-22.9-15.59
					c-1.32-1.01-3.27-2.65-4.75-4.04c-0.79-0.74-1.55-1.49-2.29-2.29c-0.32-0.35-2.18-2.7-1.37-1.56c-0.55-0.77-1.04-1.58-1.5-2.41
					c-0.98-1.77,0.08,0.27-0.46-1.06c-0.13-0.33-0.2-0.73-0.28-1.08c-0.28-1.32,0.21,1.5,0.02,0.17c-0.19-1.29,0.69-2.83-0.15-0.41
					c0.89-2.53-1.2,1.71-0.02-0.11c0.66-1.02,1.21-2.13,1.88-3.15c0.94-1.43,1.97-2.8,2.98-4.18c1.24-1.69-1.12,1.37,0.75-0.97
					c0.77-0.96,1.55-1.93,2.34-2.88c3.86-4.67,7.9-9.19,12-13.65c13.18-14.3,27.06-27.96,41.11-41.39
					c25.55-24.42,51.88-48.02,78.48-71.27c8.58-7.5-3.96-19.96-12.5-12.5c-40,34.96-80.04,70.43-116.4,109.23
					c-7.99,8.52-15.97,17.24-22.73,26.79c-6.19,8.74-7.35,18.29-0.78,27.77c6.65,9.6,17.02,16.08,26.63,22.36
					c2.21,1.44,4.42,2.88,6.61,4.35c1.01,0.69,2.02,1.38,3.01,2.09c0.46,0.33,2.72,2.08,1.57,1.15c0.78,0.63,1.55,1.27,2.28,1.96
					c0.36,0.34,2.22,2.42,1.51,1.48c-0.88-1.17,0.01-0.02-0.01,0.03c0.09,0.15,0.19,0.3,0.28,0.46c0.33,0.65,0.33,0.6-0.02-0.15
					c-0.13,0.17-0.25-1.19-0.13-0.16c-0.3-2.55-0.51,0.03,0.01-2.53c-2.23,11.09,13.6,15.64,17.04,4.7
					c16.78-53.34,30.56-109.01,65.3-154.19c10.58-13.76,23.1-26.26,37.13-36.49c3.85-2.81,5.75-7.68,3.17-12.09
					C754.6,807.76,748.61,805.56,744.73,808.39L744.73,808.39z"/>
			</g>
		</g>
		<g class="st6">
			<path d="M294.77,771.55c87.08,150.18,232.07,270.73,400.87,333.28c-90.37,46.62-415.8-233.99-427.13-296.74
				c-3.34-18.52,8.11-26.17,27.8-42.16"/>
			<g>
				<path d="M287.14,776.01c34.77,59.82,78.22,114.58,127.99,162.61c50.57,48.8,107.74,90.92,169.26,124.88
					c34.98,19.31,71.44,35.93,108.89,49.85c-0.7-5.38-1.41-10.77-2.11-16.15c-0.46,0.23-1.2,0.79-1.71,0.83
					c-1.08,0.08,1.88-0.62-0.1,0.04c-1.32,0.44-2.61,0.94-3.95,1.32c-1.29,0.37-2.6,0.68-3.92,0.95c-0.68,0.14-1.36,0.23-2.04,0.37
					c-1.86,0.39,1.85-0.13-0.53,0.08c-6.42,0.55-12.67,0.36-19.08-0.31c-1.35-0.14,1.66,0.29-0.79-0.11
					c-0.85-0.14-1.71-0.27-2.56-0.41c-1.86-0.32-3.72-0.68-5.57-1.07c-3.79-0.81-7.56-1.77-11.29-2.84
					c-8.24-2.36-16.32-5.25-24.26-8.46c-4-1.62-6.68-2.77-11.55-4.98c-4.47-2.03-8.91-4.15-13.31-6.34
					c-9.36-4.65-18.56-9.62-27.63-14.8c-19.64-11.21-38.71-23.42-57.35-36.22c-39.14-26.87-76.29-56.15-112.02-87.46
					c-30.57-26.79-60.42-54.89-86.85-85.82c-2.57-3.01-5.1-6.05-7.58-9.14c-1.13-1.41-2.25-2.82-3.35-4.24
					c-0.77-0.99,0.93,1.22,0.18,0.23c-0.2-0.26-0.39-0.51-0.59-0.77c-0.64-0.85-1.28-1.69-1.91-2.54c-3.66-4.94-7.17-10-10.27-15.31
					c-1.23-2.1-2.4-4.24-3.45-6.44c-0.24-0.5-0.45-1.01-0.7-1.5c-0.94-1.88,0.57,1.58,0.11,0.3c-0.37-1.03-0.8-2.03-1.13-3.08
					c-2.73-8.51-0.52-14.94,5.67-21.24c5.79-5.88,12.5-10.87,18.9-16.05c3.71-3.01,3.13-9.37,0-12.5c-3.67-3.67-8.78-3.02-12.5,0
					c-11.56,9.37-27.09,19.5-30.2,35.23c-1.55,7.83-0.48,15.74,2.52,23.04c5.03,12.24,12.99,23,21.08,33.37
					c24.18,31.04,52.94,58.7,82.02,85.08c36.67,33.26,75.31,64.47,115.61,93.22c36.76,26.22,75.26,51.09,116.61,69.48
					c16.34,7.27,33.26,13.83,50.87,17.28c13.78,2.71,28.63,3.97,42.28-0.16c3.18-0.96,6.3-2.26,9.26-3.76
					c7.36-3.74,4.46-13.71-2.11-16.15c-64.68-24.04-126.05-56.84-182.23-96.89c-55.43-39.51-105.7-86.42-148.81-139.1
					c-23.96-29.29-45.53-60.51-64.55-93.23C296.69,757.26,281.41,766.15,287.14,776.01L287.14,776.01z"/>
			</g>
		</g>
		<g class="st6">
			<path d="M280.1,858.35c-57.16,57.29-98.54,146.06-86.21,225c12.32,78.95,78.11,146.49,150.79,188.68
				c-89.35-35.19-204-103.41-212.47-170.98c-10.3-82.18,75.06-176.01,144.64-245.92"/>
			<g>
				<path d="M273.85,852.1c-47.4,47.76-82.01,111.56-89.63,178.9c-3.66,32.35,0.35,65.22,12.45,95.48
					c12.29,30.71,31.12,58.24,53.61,82.39c26.06,28,56.93,51.56,89.93,70.79c2.27-5.38,4.54-10.77,6.81-16.15
					c-35.68-14.1-70.33-31.22-102.98-51.37c-30.17-18.62-60.21-40.24-82.36-68.29c-8.42-10.66-15.56-22.61-19.05-35.56
					c-3.68-13.66-3.04-29.67-0.11-44.33c7.36-36.79,27.63-70.04,49.51-99.95c27.02-36.94,58.85-70.22,91.07-102.62
					c8.03-8.07-4.46-20.58-12.5-12.5c-30.24,30.4-59.77,61.62-85.93,95.67c-24.22,31.53-46.75,66.51-57.02,105.34
					c-4.48,16.94-6.42,34.74-4.15,52.17c1.95,15,8.09,29.04,16.37,41.62c20.24,30.71,50.44,54.34,80.76,74.46
					c38.03,25.23,79.29,45.66,121.69,62.42c9.48,3.74,15.25-11.23,6.81-16.15c-53.98-31.47-104.17-75.74-131.22-133.05
					c-12.91-27.35-18.67-57.15-17.1-87.33c1.63-31.35,10.6-62.39,23.83-90.76c15.31-32.82,36.19-62.95,61.7-88.66
					C294.37,856.52,281.88,844.01,273.85,852.1L273.85,852.1z"/>
			</g>
		</g>
		<g class="st6">
			<g>
				<path d="M147.82,1242.29c-41.23,60.49-83.51,124.89-86.6,200.42c-1.44,35.17,6.34,71.53,25.15,101.56
					c17.85,28.51,44.72,50.87,74.86,65.47c69.11,33.47,148.24,28.33,220.04,6.42c59.3-18.09,115.24-46.25,167.32-79.65
					c51.95-33.33,100.48-71.71,148.22-110.73c23.45-19.16,46.72-38.53,70.2-57.66c11.83-9.64,23.72-19.22,35.7-28.67
					c12.53-9.88,20.74-16.23,34.01-26.14c48.24-36,98.92-69.13,153.58-94.61c6.09-2.84,14.95-6.78,19.53-8.7
					c4.6-1.93,13.65-5.51,20-7.89c16.29-6.09,32.86-11.55,49.76-15.67c34.35-8.36,69.76-10.41,103.18,3.22
					c1.9,0.77,0.2,0.1-0.15-0.06c0.81,0.36,1.61,0.72,2.41,1.1c1.6,0.74,3.18,1.52,4.75,2.32c3.39,1.73,6.71,3.59,9.96,5.58
					c3.24,1.98,6.4,4.09,9.48,6.32c0.74,0.53,3.74,2.8,3.11,2.31c-1.29-1.02,0.95,0.79,0.96,0.8c0.89,0.75,1.8,1.49,2.69,2.25
					c5.78,4.93,11.22,10.28,16.29,15.94c5.86,6.55,7.43,8.55,12.35,15.8c18.14,26.76,27.82,55.12,31.07,87.65
					c7.8,77.87-18.53,152.11-29.36,228.68c-2.84,20.06-4.88,40.18-5.1,60.45c-0.1,9.55,8.2,17.68,17.68,17.68
					c9.67,0,17.57-8.09,17.68-17.68c0.83-78.54,28.89-153.91,34.79-232.39c2.83-37.68,0.53-76.97-11.89-112.91
					c-10.4-30.1-27.29-58.18-50.11-80.52c-23.51-23.02-53.55-39.97-86.15-45.61c-39.49-6.83-79.52-0.15-117.36,11.85
					c-58.65,18.59-113.93,47.05-165.44,80.47c-51.57,33.46-99.8,71.8-147.32,110.69c-23.43,19.18-46.71,38.55-70.2,57.65
					c-11.84,9.62-23.73,19.18-35.73,28.61c-2.76,2.17-5.53,4.34-8.31,6.49c-0.54,0.42-3.92,3.04-1.98,1.54
					c-1.62,1.25-3.25,2.5-4.87,3.74c-6.03,4.62-12.1,9.2-18.19,13.73c-48.28,35.87-99.05,68.8-153.8,93.97
					c-3.18,1.46-6.37,2.9-9.58,4.31c-1.6,0.71-3.22,1.4-4.82,2.1c-0.38,0.17-3.11,1.32-0.62,0.27c-1.08,0.45-2.16,0.9-3.24,1.35
					c-6.79,2.8-13.63,5.47-20.52,8.01c-16.31,6.01-32.89,11.32-49.73,15.63c-36.59,9.36-73.4,13.57-111.36,9.15
					c-31.14-3.63-60.12-14.35-85.91-32.08c-5.96-4.09-9.47-6.85-15.67-12.6c-2.87-2.67-5.65-5.44-8.32-8.32
					c-2.13-2.31-5.78-6.58-6.78-7.85c-9.08-11.67-16.47-26.47-20.76-40.77c-9.11-30.35-7.97-62.33,0-92.93
					c9.05-34.74,25.87-65.73,45.12-96.33c9.78-15.55,20.12-30.74,30.47-45.92c5.38-7.89,1.49-19.6-6.34-24.18
					C163.26,1230.84,153.21,1234.38,147.82,1242.29L147.82,1242.29z"/>
			</g>
		</g>
		<g class="st7">
			<g>
				<path class="st8" d="M546.45,1094.33c-25.64,19.46-47.33,42.83-70.26,65.27c-5.5,5.39-11.1,10.68-16.86,15.79
					c-2.64,2.34-5.32,4.64-8.04,6.88c-1.26,1.03-2.52,2.05-3.8,3.06c-0.11,0.09-2.23,1.74-0.78,0.62c1.61-1.24-1.81,1.35-2.12,1.58
					c-11.43,8.45-23.61,15.83-36.59,21.63c-0.15,0.07-2.64,1.09-0.89,0.39c1.88-0.76-2.54,0.97-2.43,0.93
					c-1.78,0.67-3.57,1.31-5.37,1.91c-3.87,1.29-7.79,2.42-11.75,3.34c-1.86,0.43-3.72,0.83-5.59,1.18
					c-1.03,0.19-5.87,0.91-2.59,0.5c-4.39,0.55-8.79,0.81-13.21,0.88c-9.24,0.14-18.11,8.03-17.68,17.68
					c0.42,9.45,7.77,17.83,17.68,17.68c31.78-0.5,62.11-12.28,88.25-29.91c26.6-17.94,48.68-41.06,71.22-63.65
					c6.47-6.49,13.02-12.92,19.77-19.12c3.27-3,6.59-5.96,9.97-8.83c1.58-1.35,3.18-2.67,4.79-3.99c0.92-0.75,1.85-1.49,2.78-2.23
					c2.57-2.04-3.19,2.4,1.37-1.06c7.34-5.57,11.94-15.49,6.34-24.18C565.96,1093.41,554.33,1088.35,546.45,1094.33L546.45,1094.33z
					"/>
			</g>
		</g>
		<g class="st7">
			<g>
				<path class="st8" d="M490.89,951.99c43.99,34.63,87.98,69.25,131.97,103.88c7.25,5.71,18.02,7.6,25,0c5.84-6.37,7.76-18.89,0-25
					c-43.99-34.63-87.98-69.25-131.97-103.88c-7.25-5.71-18.02-7.6-25,0C485.04,933.36,483.13,945.89,490.89,951.99L490.89,951.99z"
					/>
			</g>
		</g>
		<g class="st7">
			<g>
				<path class="st8" d="M741.87,836.46c-8.73,10.54-17.45,21.07-26.18,31.61c-5.89,7.11-7.48,18.13,0,25c6.51,5.98,18.7,7.6,25,0
					c8.73-10.54,17.45-21.07,26.18-31.61c5.89-7.11,7.48-18.13,0-25C760.36,830.48,748.17,828.85,741.87,836.46L741.87,836.46z"/>
			</g>
		</g>
		<g class="st7">
			<g>
				<path class="st8" d="M530.53,666.49c-5.79,6.89-11.58,13.78-17.38,20.66c-5.94,7.07-7.45,18.16,0,25c6.55,6.02,18.64,7.56,25,0
					c5.79-6.89,11.58-13.78,17.38-20.66c5.94-7.07,7.45-18.16,0-25C548.97,660.47,536.88,658.93,530.53,666.49L530.53,666.49z"/>
			</g>
		</g>
		<g class="st7">
			<g>
				<path class="st8" d="M1090.97,1101.14c-58.41,6.11-112.82,30.47-162.82,60.28c-60.36,35.99-115.8,80.03-169.71,124.92
					c-33.7,28.06-66.82,56.81-99.91,85.59c-7,6.09-6.7,18.85,0,25c7.46,6.85,17.53,6.49,25,0c29.03-25.25,58.09-50.48,87.54-75.24
					c13.88-11.67,27.85-23.24,41.95-34.63c7.1-5.74,14.24-11.44,21.42-17.08c3.3-2.59,6.61-5.18,9.93-7.75
					c-0.31,0.24-1.63,1.26-0.04,0.03c0.94-0.72,1.88-1.45,2.83-2.17c1.88-1.44,3.76-2.87,5.64-4.3c26.2-19.9,53.05-39,80.99-56.4
					c13-8.09,26.24-15.81,39.76-22.98c6.36-3.37,12.79-6.63,19.28-9.74c3.07-1.47,6.15-2.91,9.25-4.31
					c1.53-0.69,3.07-1.38,4.61-2.05c0.84-0.37,6.93-2.92,3-1.31c13.79-5.66,27.79-10.75,42.17-14.72c6.96-1.92,13.99-3.6,21.08-5
					c3.37-0.66,6.75-1.26,10.14-1.78c0.84-0.13,1.69-0.25,2.53-0.38c3.39-0.53-2.56,0.24-0.28,0.03c1.89-0.17,3.77-0.45,5.66-0.65
					c9.17-0.96,18.13-7.44,17.68-17.68C1108.25,1110.06,1100.82,1100.1,1090.97,1101.14L1090.97,1101.14z"/>
			</g>
		</g>
	</g>
	<g>
		<g id="Ebene_8">
			<g class="st9">
				<path d="M520.53,1343.49c-39.31,97.67-66.56,190.18-108.81,295.18c146.46-54.68,302.16-121.33,421.98-211.47
					c79.6-59.88,143.68-132.9,209.81-203.66c140.21-150.02,292.13-292.1,454.43-425.02c-21.21-2.15-29.37-27.14-19.66-43.33
					c9.72-16.19,29.8-25.48,48.12-34.83c18.32-9.35,37.35-21.36,42.05-39.09c-29.89-41.01-59.64-88.29-112.17-106.44
					c-57.71-19.94-54.93-27.41-120.98,38.98c-6.82,6.85-43.61,41.63-52.8,55.16c-113.2,166.52-74.94,123.85-105.11,99.81"/>
				<g>
					<path d="M516.58,1343.18c-30.07,74.85-54.72,151.15-82.48,226.63c-8.45,22.95-17.18,45.81-26.32,68.56
						c-1.13,2.81-0.12,6.23,4.04,4.69c85.22-31.84,169.44-66.06,249.55-106.52c80.07-40.44,155.76-87.25,220.87-144.12
						c67.54-58.97,124.94-125.52,185.59-189.49c62.86-66.3,128.01-131.03,195.35-194.07c67.52-63.21,137.24-124.72,209.05-184.4
						c8.95-7.44,17.94-14.85,26.95-22.24c1.91-1.56,5.92-7.9,0.92-8.54c-16.86-2.14-23.93-18.97-20.58-31.77
						c4.36-16.68,26.33-26.68,42.1-34.69c16.88-8.57,34.33-17.98,44.58-32.74c2.47-3.55,4.42-7.36,5.76-11.34
						c1.6-4.74-0.12-6.52-3.05-10.57c-5.27-7.29-10.46-14.61-15.8-21.88c-20.7-28.22-44.22-57.44-78.93-74.32
						c-13.17-6.4-27.98-11.12-42.14-15.77c-8.5-2.79-17.46-5.37-26.68-4.4c-9.58,1.01-17.91,5.88-25.1,11.08
						c-13.25,9.61-24.62,21.24-35.92,32.44c-19.88,19.7-41.11,38.83-58.99,59.89c-11.9,14.03-21.13,29.91-31.21,44.91
						c-8.96,13.35-17.88,26.72-26.81,40.08c-5.76,8.62-11.5,17.26-17.42,25.8c-2.03,2.93-4.09,5.86-6.21,8.73
						c-0.76,1.02-1.54,2.04-2.32,3.06c-0.37,0.47-0.74,0.95-1.11,1.41c0.99-1.22-0.25,0.29-0.47,0.54c-0.6,0.68-1.21,1.34-1.82,2.01
						c-0.22,0.25-0.48,0.47-0.71,0.71c-1,0.98,0.93-0.8-0.06,0.06c-1.1,0.95-0.27,0.15-0.27,0.26c0.02,0.33,0.39-0.01-0.2,0.06
						c0.98-0.12,0.49-0.23,0.63,0.01c-0.42-0.7-1.12-1.38-1.59-2.08c-0.32-0.48-0.56-1.04-1.35-2.59c-0.71-1.4-1.42-2.81-2.18-4.19
						c-1.78-3.25-3.79-6.4-6.35-9.24c-1.41-1.57-2.97-3.03-4.66-4.39c-4.17-3.36-11.14,5.26-7.72,8.01
						c2.77,2.23,5.16,4.74,7.18,7.48c1.79,2.44,3.16,4.84,4.09,6.66c1.49,2.91,2.92,8.15,6.7,9.6c5.79,2.21,11.36-4.95,14.05-8.22
						c8.61-10.44,15.76-21.81,23.18-32.87c15.42-23.01,30.74-46.06,46.27-69.02c7.22-10.67,14.22-20.85,23.23-30.48
						c8.55-9.14,17.51-18,26.52-26.81c17.66-17.27,34.25-35.79,53.97-51.4c5.93-4.69,12.57-9.59,20.6-11.35
						c6.71-1.47,13.65-0.31,20.12,1.46c9.89,2.71,19.38,6.54,28.96,9.93c14.96,5.28,28.59,11.72,40.96,20.69
						c25.93,18.78,44.4,44.03,62.02,68.49c4.41,6.11,8.79,12.25,13.22,18.35c-0.17-1.02-0.33-2.04-0.51-3.06
						c-4.61,15.82-22.35,25.86-37.77,33.77c-15.57,7.99-32.02,15.69-43.69,27.88c-9.82,10.25-14.87,22.78-12.07,35.98
						c2.44,11.46,11.09,21.71,25.25,23.51c0.31-2.85,0.61-5.69,0.92-8.54c-71.92,58.93-141.84,119.63-209.61,182.02
						c-67.68,62.32-133.22,126.33-196.49,191.92c-61.56,63.81-118.98,130.75-184.14,191.99
						c-63.34,59.54-136.32,109.42-216.24,151.96c-78.93,42.01-162.53,77.34-247.38,109.79c-10.39,3.97-20.8,7.9-31.23,11.79
						c1.35,1.56,2.69,3.12,4.04,4.69c30.59-76.13,55.88-153.65,84.02-230.44c7.94-21.67,16.16-43.27,24.79-64.75
						C527.15,1337.15,518.66,1337.99,516.58,1343.18L516.58,1343.18z"/>
				</g>
			</g>
		</g>
		<g id="Ebene_3_1_">
			<g>
				<g>
					<path d="M505.81,1493.38c-13.4,50.83-30.85,100.84-52.17,149.68c-1.17,2.69-0.06,6.4,4.04,4.69
						c53.4-22.4,106.81-44.8,160.21-67.19c2.47-1.04,6.39-6.12,3.78-8.37c-34.69-29.89-69.38-59.79-104.07-89.69
						c-4.01-3.46-11.05,5.14-7.72,8.01c34.69,29.89,69.38,59.79,104.07,89.69c1.26-2.79,2.52-5.58,3.78-8.37
						c-53.4,22.4-106.81,44.8-160.21,67.19c1.35,1.56,2.69,3.12,4.04,4.69c21.68-49.65,39.38-100.52,53.01-152.19
						c0.53-2.01-0.57-4.23-3.31-3.82C508.34,1488.1,506.37,1491.21,505.81,1493.38L505.81,1493.38z"/>
				</g>
			</g>
		</g>
		<g id="Ebene_4_1_">
			<g>
				<path class="st10" d="M570.83,1343.49c-3.67,25.66-19.52,48.68-31.09,72.58c-11.57,23.9-18.74,51.89-5.17,75.02
					c10.06,17.14,29.67,28.47,44.85,42.63c15.42,14.4,29.22,33.5,51.91,36.1c13.68,1.58,27.07-3.54,39.56-8.52
					c40.84-16.3,81.69-32.59,122.53-48.89c-78.41-48.73-151.37-103.79-217.6-164.21"/>
				<g>
					<path class="st10" d="M566.46,1344.43c-4.34,28.78-23.58,53.38-34.72,80.32c-10.4,25.13-14.67,54.37,3.97,77.56
						c8.65,10.75,20.55,19.14,31.46,28.14c10.18,8.39,18.58,18.05,28.25,26.83c8.91,8.08,19.38,15.39,32.59,17.26
						c17.52,2.48,34.38-5.43,49.68-11.54c38.6-15.4,77.2-30.8,115.81-46.2c3.05-1.22,6.51-6.79,3.03-8.96
						c-60.97-37.93-118.68-79.62-172.43-124.75c-15.12-12.69-29.92-25.66-44.41-38.87c-3.88-3.53-10.98,5.05-7.72,8.01
						c51.82,47.24,107.7,91.25,167.09,131.52c16.81,11.4,33.9,22.49,51.25,33.28c1.01-2.99,2.02-5.97,3.03-8.96
						c-32.88,13.12-65.75,26.23-98.63,39.35c-8.21,3.27-16.39,6.55-24.61,9.82c-7.77,3.09-15.68,6.11-24.17,7.45
						c-14.5,2.28-27.27-2.78-37.72-11.06c-9.82-7.78-17.56-17.25-26.75-25.53c-10.05-9.06-21.56-16.88-31.18-26.3
						c-9.98-9.75-16.73-21.12-18.22-34.11c-1.5-13.13,1.43-26.39,6.2-38.84c11.19-29.19,32.26-55.31,36.93-86.27
						C576.23,1335.66,567.15,1339.88,566.46,1344.43L566.46,1344.43z"/>
				</g>
			</g>
		</g>
		<g id="Ebene_5_1_">
			<g>
				<path class="st11" d="M1173.39,804.71c-189.8,164.43-378.13,319.59-560.81,489.76c-11.02,10.27-36.38,34.45-35.43,48.34
					c1.01,14.78,32.95,24.32,45.26,34.79c52.94,45.05,89.17,66.32,149.7,112.58c4.88,3.73,28.78,37.05,60.52,4.61
					c169.49-173.2,563.94-560.29,563.07-567.75c-0.7-5.98-4.75-11.86-10.61-15.19c-53.99-30.72-99.95-75.91-157.83-104.41
					c-18.21-8.97-46.53-14.64-56.22,1.26"/>
				<g>
					<path class="st11" d="M1172.16,801.03c-40.92,35.44-82.04,70.7-123.24,105.92c-40.67,34.77-81.39,69.49-122,104.3
						c-40.53,34.74-80.94,69.58-121.09,104.65c-40.48,35.36-80.67,70.94-120.43,106.89c-20.02,18.11-39.94,36.31-59.72,54.61
						c-14.38,13.3-29.29,26.39-41.13,41.46c-5.03,6.4-10.05,13.67-11.53,21.38c-1.33,6.95,1.54,12.95,7.28,17.89
						c6.54,5.63,14.62,9.72,22.45,13.9c3.82,2.04,7.66,4.08,11.28,6.37c4.19,2.66,7.71,5.93,11.43,9.03
						c33.32,27.82,69.4,52.9,104.92,78.63c10.12,7.34,20.17,14.74,30.12,22.25c5.11,3.85,9.4,7.64,13.92,11.9
						c9.58,9.05,22.86,16.55,37.67,12.14c16.49-4.92,27.06-19.17,37.85-30.14c9.4-9.56,18.82-19.1,28.25-28.64
						c21.4-21.63,42.88-43.22,64.39-64.78c23.59-23.65,47.21-47.27,70.86-70.88c24.77-24.73,49.56-49.45,74.36-74.17
						c24.52-24.44,49.05-48.88,73.57-73.33c23.3-23.22,46.58-46.44,69.84-69.69c20.65-20.64,41.28-41.28,61.86-61.96
						c16.99-17.07,33.96-34.18,50.83-51.33c11.99-12.2,23.97-24.42,35.73-36.79c6.22-6.54,12.93-13.05,18.21-20.2
						c5.03-6.81,0.3-15.46-5.97-20.64c-4.22-3.48-9.65-6.01-14.41-8.93c-5.07-3.1-10.04-6.31-14.96-9.58
						c-9.95-6.63-19.63-13.54-29.22-20.54c-19.41-14.16-38.48-28.67-58.62-42.07c-10.04-6.68-20.34-13.07-31.04-18.96
						c-9.15-5.04-18.46-9.95-28.87-12.88c-17.02-4.8-37.27-4.83-46.95,10.23c-1.04,1.61-2.35,4.96,0.12,6.18
						c2.42,1.19,5.35-1.44,6.35-3c3.91-6.1,12.56-7.12,20.05-6.66c9.33,0.57,18.4,3.26,26.64,6.93
						c21.44,9.51,41.03,22.68,59.65,35.67c19.38,13.53,37.98,27.82,57.19,41.52c9.28,6.61,18.69,13.09,28.4,19.23
						c9.06,5.73,21.83,10.45,24.63,20.62c0.45,1.64-0.01,2.06,0.47,0.54c0.27-0.84,0.56-1.58,0.28-0.95
						c0.51-1.16,0.89-1.34,0.18-0.45c-0.3,0.37-0.61,0.76-0.87,1.14c-0.49,0.72,1.18-1.39,0.36-0.44c-0.23,0.27-0.45,0.54-0.68,0.81
						c-2.55,2.98-5.22,5.89-7.91,8.79c-9.66,10.41-19.61,20.62-29.57,30.82c-14.84,15.21-29.79,30.33-44.77,45.43
						c-18.87,19.02-37.79,38-56.73,56.96c-21.87,21.89-43.77,43.75-65.67,65.6c-23.54,23.48-47.09,46.95-70.63,70.41
						c-24.3,24.22-48.6,48.43-72.89,72.66c-23.72,23.65-47.42,47.32-71.09,71c-22.13,22.14-44.24,44.3-66.3,66.49
						c-19.52,19.64-39.01,39.31-58.41,59.03c-4.25,4.32-8.5,8.65-12.74,12.97c-5.91,6.04-12.17,12.71-21.46,14.9
						c-13.45,3.16-24.73-5.48-32.75-13.55c-5.24-5.27-11.54-9.61-17.63-14.17c-9.43-7.07-18.96-14.05-28.54-20.97
						c-17.15-12.39-34.5-24.58-51.52-37.09c-17.82-13.11-35.19-26.65-51.94-40.75c-6.49-5.47-13.3-9.78-21.04-13.91
						c-7.55-4.03-15.8-7.94-21.91-13.57c-5.14-4.73-6.57-9.31-3.83-15.32c3.23-7.06,8.75-13.43,14.18-19.37
						c13.79-15.11,29.75-28.86,44.99-42.9c38.61-35.55,77.71-70.72,117.15-105.61c39.01-34.51,78.35-68.74,117.87-102.82
						c39.66-34.21,79.51-68.28,119.37-102.33c39.88-34.07,79.78-68.12,119.54-102.29c19.46-16.72,38.88-33.47,58.26-50.25
						c1.92-1.66,4.08-4.37,3.1-6.85C1176.83,799.34,1173.86,799.55,1172.16,801.03L1172.16,801.03z"/>
				</g>
			</g>
		</g>
		<g id="Ebene_6_1_">
			<g>
				<path class="st12" d="M1275.85,662.22c-31.81,24.83-60.85,52.22-86.62,81.69c-6.44,7.36-12.96,15.75-11.84,24.88
					c1.27,10.29,11.73,17.74,21.39,24.03c58.66,38.17,120.44,72.34,179.09,110.51c12.08,7.86,23.06,20.17,38.01,17.81
					c12.27-1.94,25.16-8.69,29.37-18.7c11.98-28.56,43.54-51.47,64.03-64.64c9.54-6.13,15.83-16.46,15.95-26.64
					c0.16-13.13-12.81-23.34-24.84-31.57c-68.96-47.14-142.42-89.52-219.41-126.58"/>
				<g>
					<path class="st12" d="M1274.62,658.54c-25.05,19.6-48.48,40.71-69.93,63.19c-5.44,5.7-10.75,11.49-15.95,17.36
						c-4.84,5.48-9.61,11.05-12.81,17.38c-2.93,5.8-4.17,12.41-2.22,18.59c1.84,5.81,6.26,10.69,11.3,14.78
						c11.97,9.7,26.23,17.67,39.53,25.96c14.44,9,29.02,17.84,43.62,26.64c29.22,17.6,58.57,35.02,87.33,53.16
						c6.93,4.37,13.93,8.69,20.65,13.26c5.46,3.71,10.39,7.96,16.02,11.48c4.92,3.07,10.71,5.7,16.94,5.91
						c6.64,0.23,13.5-1.87,19.33-4.4c5.99-2.61,11.51-6.37,15.51-11c4.19-4.83,5.94-10.49,8.99-15.82
						c6.29-10.97,15.25-20.7,25.11-29.5c8.58-7.65,18.07-14.59,27.87-21.09c5.4-3.58,10.48-7.07,14.47-11.89
						c4.29-5.19,7.39-11.17,8.65-17.46c2.51-12.52-3.9-23.03-14.2-31.64c-11.42-9.55-24.77-17.62-37.43-25.93
						c-54.59-35.79-111.83-68.65-171.28-98.31c-7.32-3.65-14.67-7.26-22.06-10.81c-4.44-2.14-10.67,7.04-6.23,9.18
						c56.39,27.18,110.9,57.15,163.13,89.79c13.26,8.29,26.38,16.75,39.35,25.37c11.25,7.48,23.88,14.71,32.78,24.35
						c4.03,4.36,7.32,9.45,7.59,15.11c0.26,5.54-1.91,11.23-5.64,15.75c-3.39,4.11-8.2,6.84-12.76,9.89
						c-4.42,2.95-8.74,6.01-12.96,9.17c-19.9,14.93-38.14,32.71-47.63,54.08c-4.09,9.22-17.75,16.34-29.42,15.4
						c-12.18-0.99-21.4-11.09-30.38-17.14c-26.28-17.68-53.98-33.94-81.34-50.38c-27.71-16.66-55.49-33.23-82.7-50.48
						c-6.38-4.04-12.79-8.06-19.03-12.27c-5.35-3.61-10.6-7.58-14.09-12.64c-8.31-12.04,3.46-23.36,11.78-32.62
						c19.41-21.63,40.58-42.14,63.39-61.22c5.61-4.69,11.33-9.31,17.12-13.84c1.99-1.55,4.04-4.45,3.1-6.85
						C1279.26,656.78,1276.38,657.16,1274.62,658.54L1274.62,658.54z"/>
				</g>
			</g>
		</g>
		<g id="Ebene_7_1_">
			<g>
				<path class="st13" d="M1316.3,659.45c15.55-36.89,49.4-61.63,78.51-90.21c4.39-4.32,18.21-4.44,24.85-5.29
					c7.34-0.94,14.19,3,20.18,6.74c49.56,30.98,99.13,61.96,148.69,92.94c9.5,5.94,20.07,13.83,18.73,23.79
					c-0.81,6-5.87,10.87-10.69,15.3c-22.05,20.27-44.11,40.55-66.16,60.82c-5.09,4.68-10.81,9.65-18.24,10.45
					c-8.2,0.89-15.75-3.55-22.37-7.77c-57.96-36.95-115.92-73.89-173.88-110.84"/>
				<g>
					<path class="st14" d="M1320.24,659.77c7.58-17.71,20-33.18,34.21-47.5c7.12-7.17,14.6-14.08,22.09-20.96
						c3.31-3.05,6.63-6.09,9.92-9.15c1.79-1.67,3.59-3.36,5.36-5.05c0.89-0.85,1.78-1.7,2.66-2.54c0.59-0.57,1.17-1.14,1.76-1.7
						c1.03-0.95,1.19-1.12,0.46-0.53c3.1-1.87,7.71-2.18,11.35-2.59c4.29-0.48,9.24-1.37,13.55-0.98
						c5.67,0.52,10.66,3.76,15.13,6.53c5.77,3.58,11.5,7.19,17.26,10.79c21.68,13.55,43.37,27.11,65.05,40.66
						c22.12,13.83,44.33,27.58,66.38,41.49c7.13,4.5,17.31,10.92,17.47,19.29c0.08,4.35-3.6,7.73-6.79,10.77
						c-4.63,4.4-9.43,8.69-14.14,13.02c-18.22,16.76-36.25,33.68-54.68,50.27c-3.27,2.95-6.92,6.09-11.62,7.24
						c-6.05,1.48-12.01-1-16.99-3.73c-11.2-6.13-21.61-13.58-32.27-20.37c-49.11-31.31-98.22-62.61-147.33-93.91
						c-3.92-2.5-10.42,6.51-6.23,9.18c47.12,30.03,94.24,60.07,141.36,90.11c11.58,7.38,23.02,14.94,34.76,22.13
						c9.78,6,20.87,9.36,31.8,3.29c5.02-2.79,9.05-6.52,13.1-10.24c4.86-4.47,9.72-8.93,14.58-13.41
						c9.91-9.11,19.81-18.21,29.71-27.32c5.05-4.64,10.09-9.28,15.14-13.91c4.48-4.13,9.23-8.12,12.93-12.8
						c6.59-8.32,7.67-18.17,0.73-26.57c-6.94-8.42-18.32-14.13-27.88-20.1c-11.73-7.33-23.45-14.66-35.18-21.99
						c-23.45-14.66-46.91-29.32-70.37-43.98c-11.64-7.28-23.02-15.21-35.18-21.85c-4.87-2.66-10.33-4.7-16.22-4.28
						c-4.51,0.33-9.09,0.75-13.55,1.32c-4.27,0.55-8.67,1.37-12.34,3.39c-4.58,2.52-8.01,6.94-11.63,10.34
						c-7.87,7.41-15.95,14.66-23.8,22.06c-15.82,14.91-30.92,30.74-41.34,48.89c-2.63,4.59-5.01,9.26-7.06,14.06
						c-0.75,1.74-1.04,4.77,1.8,5.16C1316.91,664.68,1319.47,661.58,1320.24,659.77L1320.24,659.77z"/>
				</g>
			</g>
		</g>
		<g id="Ebene_2_1_">
			<g>
				<g>
					<path d="M1278.87,648.07c-22.82,22.99-45.69,45.94-68.56,68.9c-5.87,5.9-11.75,11.79-17.62,17.7
						c-5.32,5.34-11.54,10.55-15.69,16.64c-6.82,10.03-7.47,22.72-0.49,32.8c3.95,5.72,10.26,9.19,16.49,12.93
						c8.03,4.83,16.04,9.68,24.03,14.54c15.92,9.69,31.79,19.43,47.65,29.2c31.48,19.38,62.93,38.82,94.67,57.91
						c7.9,4.75,15.81,9.48,23.75,14.18c3.75,2.22,7.5,4.43,11.25,6.64c3.68,2.16,7.32,4.77,11.5,6.19
						c14.22,4.83,27.74-3.75,34.93-13.73c6.56-9.12,12.24-18.77,19.84-27.33c6.9-7.77,15.32-14.16,23.65-20.78
						c7.23-5.75,14.01-11.98,20.58-18.27c7.48-7.17,15-14.64,20.75-22.91c2.07-2.98,4.01-6.22,4.63-9.67
						c1.14-6.28-1.24-12.79-4.88-18.19c-3.95-5.88-9.69-10.57-15.64-14.97c-6.92-5.13-13.9-10.19-20.95-15.19
						c-56.36-39.96-116.69-75.77-179.37-108.17c-7.84-4.06-15.72-8.05-23.64-12.01c-4.38-2.19-10.66,6.97-6.23,9.18
						c60.16,30.04,118.34,63.04,173.23,99.69c13.85,9.25,27.49,18.73,40.88,28.45c11,7.98,26.58,17.36,27.77,30.83
						c0.08,0.93,0.11,1.87-0.02,2.78c-0.09,0.67,0.29-0.54-0.27,0.73c-0.47,1.07-0.1,0.33-0.51,1.03c-0.51,0.88-1.1,1.74-1.69,2.58
						c-2.39,3.4-5.22,6.56-8.11,9.65c-6.77,7.27-14.08,14.19-21.66,20.86c-6.62,5.84-13.91,11.06-20.62,16.81
						c-7.59,6.5-14.18,13.5-19.96,21.24c-3.28,4.4-6.35,8.9-9.44,13.4c-3.41,4.97-6.31,10.55-12.38,13.57
						c-5.67,2.82-12.24,2.72-17.86-0.13c-7.91-4.01-15.34-8.95-22.89-13.44c-60.58-35.97-119.86-73.47-180.1-109.84
						c-6.44-3.89-14.23-7.41-19.21-12.73c-3.79-4.05-6.06-9.03-6.22-14.22c-0.15-4.92,1.66-9.46,5.32-13.26
						c5.32-5.54,10.88-10.93,16.32-16.4c22.05-22.15,44.11-44.28,66.14-66.44c5.07-5.1,10.12-10.18,15.18-15.28
						c1.55-1.57,3.29-4.85,1.57-6.76C1283.26,644.85,1280.2,646.73,1278.87,648.07L1278.87,648.07z"/>
				</g>
			</g>
			<g>
				<g>
					<path d="M1308.54,663.85c25.58-28.16,48.73-58.69,78.53-83.85c5.47-4.62,11.26-9.26,17.85-12.73
						c4.32-2.27,8.86-4.21,13.79-3.39c6.28,1.05,12.3,4.49,17.61,7.34c7.87,4.23,15.38,8.95,22.78,13.76
						c13.28,8.63,25.93,17.96,39.32,26.46c18.47,11.72,38.83,21.46,58.08,32.23c10.38,5.81,20.6,11.81,30.63,18.05
						c5.54,3.45,11.64,6.74,16.6,10.78c2.92,2.38,4.88,5.12,4.71,8.62c-0.19,3.76-1.57,7.52-2.34,11.22
						c-0.25,1.21-0.47,2.42-0.67,3.63c-0.19,1.1,0.03,0.02-0.04,0.25c-0.12,0.4-0.72,1.4-0.19,0.49c-0.39,0.69-0.86,1.34-1.32,1.99
						c-3.82,5.36-10,11.07-15.44,16.07c-11.68,10.76-24.28,20.67-36.85,30.64c-12.51,9.91-23.84,20.24-34.48,31.62
						c-3.7,3.95-7.4,7.9-11.12,11.83c-1.52,1.6-3.31,4.82-1.57,6.76c1.75,1.95,4.86,0.12,6.15-1.25c11.28-11.9,22-24.12,34.96-34.74
						c13.68-11.21,27.82-21.92,41.03-33.54c6.61-5.82,13.17-11.77,18.92-18.23c2.3-2.59,4.57-5.27,6.3-8.18
						c1.97-3.31,2.47-6.58,3.26-10.2c1.64-7.48,4.72-15.72-1.04-22.52c-3.75-4.44-9.76-7.55-14.83-10.77
						c-5.7-3.62-11.45-7.17-17.27-10.64c-20.76-12.4-42.4-23.65-63.62-35.46c-14.62-8.15-27.89-17.49-41.57-26.72
						c-14.28-9.64-29.09-20.34-45.79-26.84c-5.31-2.06-10.48-3.26-16.24-1.88c-6.93,1.67-13.11,5.41-18.65,9.2
						c-16.11,11.01-29.52,25.07-42.35,38.75c-14.21,15.15-27.61,30.83-41.29,46.32c-2.79,3.16-5.6,6.31-8.44,9.44
						c-1.49,1.63-3.33,4.8-1.57,6.76C1304.11,667.03,1307.27,665.25,1308.54,663.85L1308.54,663.85z"/>
				</g>
			</g>
			<g>
				<g>
					<path d="M1187.2,782.93c-49.84,45.48-100.62,90.2-151.88,134.53c-50.98,44.08-102.41,87.79-153.78,131.54
						c-51.46,43.81-102.86,87.68-153.72,132c-25.34,22.08-50.55,44.28-75.57,66.64c-12.76,11.41-25.47,22.85-38.12,34.35
						c-8.4,7.63-16.93,15.18-24.65,23.31c-7.34,7.74-15.01,16.36-18.46,26.01c-3.9,10.9,2.28,19.71,11.55,27.13
						c12.93,10.35,26.82,19.91,40.23,29.8c14.3,10.54,28.6,21.09,42.9,31.64c28.39,20.93,56.78,41.87,85.17,62.8
						c7.04,5.19,14.09,10.39,21.14,15.58c5.86,4.32,11.78,8.8,18.71,11.86c13.35,5.89,27.01,3.7,38.26-4.42
						c12.03-8.68,21.21-20.6,30.99-31.01c11.13-11.86,22.27-23.7,33.45-35.53c22.11-23.41,44.31-46.75,66.59-70.03
						c43.62-45.57,87.58-90.92,131.86-136.03c44.31-45.16,88.94-90.09,133.81-134.84c46.33-46.22,92.91-92.25,139.65-138.17
						c11.9-11.69,23.81-23.37,35.73-35.04c1.58-1.55,3.27-4.86,1.57-6.76c-1.79-1.99-4.81-0.07-6.15,1.25
						c-46.76,45.81-93.4,91.73-139.81,137.81c-44.41,44.1-88.62,88.36-132.54,132.84c-43.45,44-86.63,88.19-129.47,132.62
						c-43.87,45.49-87.42,91.22-130.61,137.18c-10.39,11.05-20.32,22.6-31.37,33.19c-4.19,4.01-9.13,8.03-15.21,9.81
						c-7.18,2.1-14.58,0.69-21.1-2.3c-6.93-3.18-12.84-7.7-18.74-12.05c-6.83-5.04-13.66-10.07-20.5-15.11
						c-13.88-10.23-27.75-20.46-41.62-30.69c-27.96-20.62-55.93-41.24-83.9-61.86c-13.56-10-27.45-19.76-40.69-30.06
						c-5.04-3.92-10.95-8.95-12.23-14.93c-0.62-2.9,0.83-5.94,2.27-8.52c4.9-8.81,12.73-16.53,20.24-23.78
						c9.35-9.03,19.21-17.7,28.9-26.47c24.56-22.2,49.33-44.23,74.25-66.13c49.76-43.73,100.17-86.94,150.69-130.02
						c50.56-43.12,101.25-86.1,151.62-129.38c50.12-43.07,99.92-86.42,148.91-130.42c12.13-10.89,24.21-21.82,36.23-32.8
						c1.63-1.49,3.24-4.9,1.57-6.76C1191.54,779.65,1188.6,781.65,1187.2,782.93L1187.2,782.93z"/>
				</g>
			</g>
			<g>
				<g>
					<path d="M566.11,1332.59c-16.56,39.77-32.38,79.77-47.66,119.92c-16.25,42.68-31.9,85.54-46.76,128.6
						c-7.94,22.98-15.65,46.02-23.04,69.14c-0.87,2.72,1.46,4.69,4.45,3.43c92.28-38.75,184.7-77.35,278.89-112.67
						c25.41-9.53,50.95-18.8,76.65-27.76c4.46-1.55,6.69-11.13-0.17-8.74c-93.51,32.56-184.89,69.39-275.69,107.06
						c-26.65,11.06-53.26,22.2-79.85,33.38c1.49,1.14,2.96,2.28,4.45,3.43c13.28-41.5,27.58-82.75,42.46-123.85
						c15.28-42.21,31.2-84.25,47.75-126.11c8.61-21.78,17.4-43.5,26.42-65.16c0.72-1.75,1.05-4.77-1.8-5.16
						C569.45,1327.68,566.86,1330.77,566.11,1332.59L566.11,1332.59z"/>
				</g>
			</g>
			<g>
				<path d="M511.95,1480.5c32.77,23.46,87.61,78.7,118.83,95.42c-55.49,19.82-112.68,47.48-172.68,68.9
					c24.98-88.48,45.98-144.95,52.18-159.83"/>
				<g>
					<path d="M508.84,1485.09c16.24,11.67,30.92,24.94,45.73,37.88c16.17,14.11,32.25,28.37,49.45,41.59
						c7.45,5.72,15.15,11.36,23.64,15.95c1.01-2.99,2.02-5.97,3.03-8.96c-58.62,21-114.03,47.91-172.67,68.9
						c1.49,1.14,2.96,2.28,4.45,3.43c13.56-47.98,28.14-95.86,45.67-142.91c1.95-5.24,3.94-10.48,6.09-15.67
						c0.72-1.75,1.05-4.77-1.8-5.16c-2.74-0.37-5.34,2.71-6.09,4.54c-14.53,35-25.66,71.19-36.68,107.07
						c-5.52,17.96-10.8,35.96-15.9,54.01c-0.81,2.86,1.4,4.52,4.45,3.43c58.64-21,114.04-47.91,172.67-68.9
						c2.95-1.05,6.64-7.01,3.03-8.96c-16.58-8.97-30.77-21.31-44.62-33.04c-16.77-14.2-33-28.85-49.8-43.02
						c-7.9-6.66-15.91-13.24-24.41-19.35C511.41,1473.29,504.82,1482.2,508.84,1485.09L508.84,1485.09z"/>
				</g>
			</g>
		</g>
		<g id="Ebene_9">
			<g class="st15">
				<g>
					<path d="M1414.48,564.02c4.85,0,9.61-9.7,4.29-9.7C1413.91,554.33,1409.14,564.02,1414.48,564.02L1414.48,564.02z"/>
				</g>
			</g>
			<g class="st15">
				<path d="M1409.24,564.58c-0.45,73.33,36.16,146.28,98.71,196.71c5.48,4.42,10.22,13.64,3.05,15.65
					c-3.29,0.92-6.66-0.95-9.43-2.72c-57.41-36.78-114.82-73.57-172.23-110.35c-4.73-3.02-9.8-6.52-10.87-11.47
					c-1.14-5.28,2.67-10.32,6.4-14.66c24.86-28.86,54.3-54.87,87.25-77.11"/>
				<g>
					<path d="M1404.76,566.7c-0.23,67.16,29.69,134,82.53,183.92c2.99,2.82,6.05,5.59,9.17,8.3c3.38,2.93,7.4,5.63,10.27,8.94
						c1.01,1.17,1.93,2.42,2.57,3.76c0.26,0.54,0.45,2.58,0.86,2.98c0.64-0.81,1.27-1.61,1.91-2.41c-0.97,0.23-1.92,0.16-2.85-0.18
						c-1.03-0.26-2.01-0.88-2.9-1.39c-2.85-1.61-5.51-3.48-8.25-5.23c-19.43-12.45-38.87-24.9-58.29-37.35
						c-19.43-12.45-38.87-24.9-58.29-37.35c-9.72-6.23-19.43-12.45-29.15-18.67c-4.42-2.83-8.84-5.66-13.25-8.49
						c-4.53-2.9-9.92-5.67-13.5-9.49c-3.79-4.02-2.96-7.75,0.18-11.82c3.26-4.22,7.07-8.19,10.73-12.16
						c7.4-8.02,15.16-15.8,23.25-23.31c16.51-15.34,34.51-29.47,53.62-42.41c2.08-1.41,4-4.56,3.1-6.85
						c-0.95-2.39-3.71-1.77-5.55-0.53c-18.4,12.45-35.68,26.04-51.77,40.62c-7.86,7.13-15.43,14.5-22.66,22.1
						c-7,7.36-15.26,15.05-19.98,23.69c-2.24,4.1-3.56,8.78-2.05,13.24c1.4,4.12,4.97,7.18,8.74,9.84
						c9.9,6.98,20.6,13.26,30.87,19.84c20.75,13.3,41.52,26.6,62.27,39.89c20.75,13.3,41.52,26.6,62.27,39.89
						c5.3,3.39,10.6,6.79,15.9,10.18c4.04,2.59,8.72,6.43,14.23,5.66c9.47-1.33,12.14-10.88,8.84-17.43
						c-3.63-7.18-11.85-12.13-18.01-17.7c-7.33-6.64-14.26-13.6-20.75-20.84c-12.71-14.19-23.75-29.46-32.98-45.49
						c-21.05-36.59-32.21-77.26-32.07-118.01c0.01-2.34-2.28-3.22-4.58-2.25C1406.54,561.32,1404.77,564.29,1404.76,566.7
						L1404.76,566.7z"/>
				</g>
			</g>
			<g class="st15">
				<path d="M1275.72,655.37c-10.41,23.9-37.04,39.24-59.06,56.51s-41.63,42.8-31.75,66.86c5.56,13.54,19.3,23.26,32.5,32.18
					c58.96,39.86,119.39,78.17,181.15,114.84c3.19,1.89,6.82,3.88,10.66,3.38c5.63-0.73,8.52-6.68,7.16-11.38
					c-1.36-4.71-5.59-8.35-9.62-11.77c-39.64-33.66-77.22-70-102.22-112.65c-25.01-42.64-36.58-92.48-22.44-138.58"/>
				<g>
					<path d="M1271.77,655.06c-8.99,20.1-30.25,33.58-48.63,47.28c-19.53,14.55-38.35,32.13-43.97,54.41
						c-2.62,10.42-1.37,21.09,4.19,30.67c5.78,9.95,15.78,17.62,25.72,24.55c23.82,16.6,48.42,32.47,72.96,48.27
						c24.91,16.04,50.08,31.82,75.47,47.31c12.76,7.78,25.49,15.65,38.48,23.15c4.88,2.82,10.49,4.69,16.05,2.01
						c5.07-2.45,8.29-7.61,8.99-12.41c1.66-11.19-11.44-19.09-19.57-26.16c-9.99-8.68-19.78-17.53-29.22-26.65
						c-18.64-18.01-35.99-37.08-50.57-57.65c-29.14-41.09-47.46-90.23-39.32-138.54c0.99-5.88,2.38-11.7,4.12-17.44
						c0.61-2.01-0.63-4.23-3.31-3.82c-2.95,0.45-4.77,3.55-5.42,5.71c-13.53,44.85-3.81,92.6,18.71,134.13
						c22.81,42.04,58.01,78.03,95.75,110.95c4.62,4.03,9.47,7.9,13.94,12.04c2.13,1.98,8.49,7.92,5.74,11.02
						c-2.72,3.07-12.56-4.06-14.81-5.4c-6.13-3.65-12.24-7.31-18.34-11c-24.4-14.73-48.58-29.7-72.54-44.94
						c-24.18-15.37-48.13-31-71.85-46.87c-18.94-12.68-45.83-26.95-47.48-49.7c-1.53-21.02,16.65-39.39,33.87-52.58
						c17.96-13.75,37.75-26.32,50.87-43.91c3.23-4.33,5.91-8.97,8.06-13.77c0.77-1.73,1.02-4.78-1.8-5.16
						C1275.08,650.14,1272.58,653.25,1271.77,655.06L1271.77,655.06z"/>
				</g>
			</g>
			<g class="st15">
				<path d="M1175.62,803.36c-193.22,161.73-383.3,326.17-570.14,493.23c-11.09,9.91-22.87,21.31-22.73,34.98
					c0.17,15.46,15.35,27.39,29.33,37.27c62.01,43.82,124.03,87.64,186.04,131.47c4.32,3.05,9.25,6.28,14.85,5.94
					c11.14-0.69,13.99-13.33,14.02-22.83c0.19-89.45,26.42-177.77,64.84-261.03c38.43-83.26,88.93-162.04,139.64-240.39
					c41.26-63.76,84.34-129.06,150.78-174.91"/>
				<g>
					<path d="M1174.4,799.67c-51.99,43.52-103.75,87.23-155.29,131.13c-51.34,43.74-102.46,87.68-153.34,131.81
						c-51.05,44.27-101.88,88.74-152.47,133.4c-25.11,22.17-50.18,44.39-75.18,66.66c-12.41,11.05-24.91,22.03-37.18,33.2
						c-9.93,9.04-20.03,19.65-22.2,32.3c-2.11,12.35,4.18,23.38,13.77,32.33c10.94,10.2,24.4,18.56,36.85,27.36
						c28.46,20.11,56.91,40.22,85.37,60.33c14.02,9.91,28.03,19.81,42.05,29.72c7.22,5.1,14.44,10.2,21.66,15.31
						c6.67,4.71,13.15,9.82,20.19,14.13c5.46,3.36,12.08,5.07,18.42,2.42c5.33-2.23,8.88-6.73,11.05-11.29
						c5.32-11.22,3.31-24.5,3.81-36.3c2.53-58.82,16.1-117.11,36.51-173.27c20.7-56.94,48.33-111.88,79.18-165.33
						c30.64-53.07,64.16-104.95,97.92-156.62c30.07-46.02,61.95-91.96,104.92-130.25c10.35-9.22,21.41-17.87,33.03-25.91
						c2.07-1.43,4.01-4.54,3.1-6.85c-0.94-2.37-3.72-1.79-5.55-0.53c-47.64,33.01-83.75,75.96-115.1,120.5
						c-16.05,22.8-31.02,46.15-46.07,69.45c-16.72,25.89-33.34,51.82-49.44,77.99c-31.91,51.85-61.9,104.68-86.48,159.38
						c-24.41,54.32-43.53,110.62-53.59,168.21c-4.97,28.47-7.67,57.19-7.86,85.96c-0.03,4.34-0.21,9.17-2.39,13.18
						c-2.4,4.42-8.15,3.76-12.5,1.63c-7.18-3.52-13.4-8.94-19.76-13.43c-7.01-4.95-14.02-9.91-21.03-14.85
						c-28.03-19.81-56.07-39.62-84.1-59.43c-13.8-9.75-27.61-19.51-41.42-29.26c-12.86-9.08-26.64-17.7-38.39-27.83
						c-9.38-8.08-18.22-18.78-14.99-30.73c3.23-11.96,15.94-21.32,25.47-29.84c24.77-22.13,49.6-44.22,74.48-66.27
						c49.41-43.77,99.05-87.36,148.91-130.76c50.03-43.55,100.28-86.91,150.76-130.08c50.48-43.17,101.17-86.16,152.09-128.96
						c12.39-10.42,24.79-20.82,37.21-31.21c1.94-1.63,4.07-4.4,3.1-6.85C1179.06,797.97,1176.12,798.23,1174.4,799.67L1174.4,799.67
						z"/>
				</g>
			</g>
			<g class="st15">
				<path d="M571.71,1340.79c-47.02,97.8-84.27,198.99-111.22,302.14c20.89,0.69,40.01-11.5,50.92-26.68
					c10.9-15.18,15.14-33.04,19.19-50.49c17.42-75.05,34.86-150.1,52.28-225.15"/>
				<g>
					<path d="M567.76,1340.48c-36.78,76.58-67.59,155.2-92.24,235.23c-6.97,22.62-13.42,45.35-19.4,68.17
						c-0.35,1.35,0.03,3.86,2.23,3.91c22.25,0.46,41.62-11.58,53.77-26.66c14.22-17.64,18.87-39.18,23.64-59.76
						c10.96-47.19,21.92-94.39,32.88-141.59c6.2-26.71,12.4-53.41,18.6-80.12c0.47-2.01-0.53-4.24-3.31-3.82
						c-2.83,0.42-4.92,3.55-5.42,5.71c-10.37,44.66-20.75,89.33-31.11,133.98c-5.24,22.56-10.48,45.12-15.71,67.68
						c-4.68,20.19-7.79,41.46-17.06,60.6c-8.77,18.11-27.37,34.77-52,34.27c0.74,1.3,1.49,2.6,2.23,3.91
						c20.97-80.12,48.12-159.03,81.3-236.11c9.36-21.74,19.2-43.33,29.5-64.77c0.83-1.72,0.98-4.78-1.8-5.16
						C571.03,1335.55,568.62,1338.67,567.76,1340.48L567.76,1340.48z"/>
				</g>
			</g>
		</g>
		<g id="Ebene_10">
			<g class="st15">
				<g>
					<path class="st8" d="M1477.48,630.9c17.17,13.34,38.52,21.23,56.76,33.25c1.35,0.88-1.08-0.82,0.17,0.11
						c0.36,0.27,0.72,0.53,1.07,0.8c0.8,0.61,1.58,1.24,2.33,1.89c1.5,1.31,2.92,2.7,4.12,4.21c0.53,0.66,1.02,1.35,1.46,2.06
						c0.17,0.28,1.12,2.16,0.67,1.1c0.72,1.7,1.01,3.53,1.08,5.33c0.36,8.97-5.41,16.96-11.03,24.16
						c-8.01,10.26-17.24,19.84-23.95,30.8c-3.5,5.72,10.61,7.34,14.5,7.6c5.28,0.37,10.81,0.4,16-0.62c2.82-0.56,8.07-1.3,9.54-3.7
						c6.01-9.83,14.05-18.56,21.43-27.65c6.46-7.95,13.34-16.92,14.81-26.73c2.74-18.36-21.06-29.01-36.56-37.01
						c-11.19-5.78-23.31-11.87-32.37-18.9c-6.31-4.9-17.49-5.12-25.54-4.32C1489.98,623.49,1471.83,626.51,1477.48,630.9
						L1477.48,630.9z"/>
				</g>
			</g>
			<g class="st15">
				<g>
					<path class="st8" d="M1446.9,810.42c-12.8,11.67-25.6,23.33-38.39,35c-1.98,1.81,0.46,3.86,2.09,4.76
						c3.31,1.83,8.64,2.58,12.41,2.84c7.53,0.53,19.78,0.93,25.54-4.32c12.8-11.67,25.6-23.33,38.39-35
						c1.98-1.81-0.46-3.86-2.09-4.76c-3.31-1.83-8.64-2.58-12.41-2.84C1464.9,805.57,1452.66,805.16,1446.9,810.42L1446.9,810.42z"
						/>
				</g>
			</g>
			<g class="st15">
				<g>
					<path class="st8" d="M1298.96,932.82c-57.73,56.57-115.86,112.85-174.13,169.03c-55.38,53.39-110.86,106.71-166.1,160.21
						c-31.92,30.92-63.76,61.89-95.46,92.97c-5.12,5.01,11.95,7.43,14.5,7.6c5.28,0.37,10.81,0.4,16-0.62
						c3.33-0.66,7.2-1.4,9.54-3.7c55.83-54.7,112.07-109.11,168.41-163.42c55.93-53.91,111.93-107.75,167.69-161.77
						c33.29-32.26,66.51-64.58,99.58-97c5.12-5.01-11.95-7.43-14.5-7.6c-5.28-0.37-10.81-0.4-16,0.62
						C1305.18,929.78,1301.31,930.52,1298.96,932.82L1298.96,932.82z"/>
				</g>
			</g>
			<g class="st15">
				<g>
					<path class="st8" d="M550.2,1584.37c47.06-22.49,95.02-42.49,143.89-59.88c14.23-5.06,28.54-9.92,42.95-14.59
						c1.87-0.61,6.08-2.02,6.08-4.37c0-2.3-4.21-3.84-6.08-4.37c-8.73-2.5-20.63-2.83-29.37,0
						c-51.89,16.82-102.68,36.17-151.96,57.95c-13.91,6.15-27.71,12.5-41.37,19.03c-8.01,3.82,3.47,7.81,7.45,8.46
						C530.63,1588.03,542.04,1588.26,550.2,1584.37L550.2,1584.37z"/>
				</g>
			</g>
		</g>
	</g>
</g>
</svg>
