<?xml version="1.0" encoding="utf-8"?>
<!-- Generator: Adobe Adobe Illustrator 24.2.0, SVG Export Plug-In . SVG Version: 6.00 Build 0)  -->
<svg version="1.1" xmlns="http://www.w3.org/2000/svg" xmlns:xlink="http://www.w3.org/1999/xlink" x="0px" y="0px"
	 viewBox="0 0 1700.79 1700.79" style="enable-background:new 0 0 1700.79 1700.79;" xml:space="preserve">
<style type="text/css">
	.st0{fill:#7E8D9C;}
	.st1{fill:#3D4D5B;}
	.st2{fill:#D3E1EC;}
	.st3{fill:#808E9C;}
	.st4{fill:#F3C159;}
	.st5{fill:#F3C158;}
	.st6{opacity:0.2784;}
	.st7{opacity:0.0784;}
	.st8{fill:#FFFFFF;}
	.st9{fill:#ADBECF;stroke:#F3C057;stroke-miterlimit:10;}
	.st10{fill:#F3C057;stroke:#F3C057;stroke-miterlimit:10;}
	.st11{fill:#F7D98D;stroke:#F3C057;stroke-miterlimit:10;}
	.st12{stroke:#F3C057;stroke-miterlimit:10;}
	.st13{fill:#AEBFCE;stroke:#F3C057;stroke-miterlimit:10;}
	.st14{opacity:0.2706;}
	.st15{fill:#3D4C5B;stroke:#F3C057;stroke-miterlimit:10;}
	.st16{fill:#F3C057;}
</style>
<g id="Ebene_4">
</g>
<g id="Ebene_3">
</g>
<g id="Ebene_14">
</g>
<g id="Ebene_5">
</g>
<g id="Ebene_6">
</g>
<g id="Ebene_7">
	<g>
		<g>
			<path class="st0" d="M278.36,842.07c-92.02,103.45-255.44,244.96-46.42,386.24c182.07,123.06,297.75-32.6,382.53-121.22"/>
			<g>
				<path d="M272.11,835.82c-39.33,44.17-82.14,85.99-114.14,136.1c-15,23.49-27.75,49.32-33.33,76.8
					c-5.56,27.4-3.69,55.78,6.93,81.76c13.65,33.42,38.38,60.84,66.12,83.39c32.05,26.05,68.28,48.45,108.11,60.29
					c30.67,9.11,63.04,11,94.45,4.76c28.86-5.73,56.16-18.37,80.72-34.36c48.66-31.67,87.54-75.31,126.8-117.46
					c4.29-4.61,8.6-9.2,12.95-13.75c7.86-8.22-4.62-20.74-12.5-12.5c-37.48,39.21-72.69,81.3-116.1,114.28
					c-44.94,34.14-98.93,57.1-156.28,47.82c-36.09-5.84-69.36-21.95-99.45-42.26c-30.69-20.72-60.39-45.9-79.33-78.22
					c-13.59-23.2-19.78-48.74-17.42-75.34c2.2-24.75,12.28-49.6,24.73-71.6c28.1-49.67,68.85-90.81,107.07-132.64
					c4.41-4.83,8.81-9.68,13.16-14.57C292.15,839.85,279.69,827.31,272.11,835.82L272.11,835.82z"/>
			</g>
		</g>
		<g>
			<path class="st1" d="M511.3,912.44C342.92,780.1,308.43,726.34,263.9,781.93c-51.11,63.8,372.94,384.38,427.58,332.44
				c47.2-44.86-6.67-61.43-180.87-203.22"/>
			<g>
				<path d="M517.55,906.19c-32.06-25.22-63.58-51.1-95.02-77.09c-21.4-17.69-42.69-35.68-65.22-51.94
					c-23-16.61-54.7-36.87-82.3-18.02c-9.74,6.65-21.17,17.04-23.53,29.16c-2.24,11.53,1.65,23.04,6.49,33.38
					c6.3,13.46,15.22,25.61,24.38,37.24c11.69,14.83,24.54,28.72,37.83,42.12c32.32,32.58,67.42,62.43,103.61,90.6
					c37.56,29.24,76.46,56.87,117.11,81.67c31.61,19.29,64.84,38.21,100.27,49.53c11.3,3.61,23.74,6.82,35.7,5.91
					c12.05-0.92,20.16-6.38,27.86-15.48c7.98-9.43,13.44-20.37,11.27-32.98c-2.16-12.56-11.43-23.2-20.08-31.97
					c-14.84-15.05-31.86-28-48.48-40.97c-26.67-20.8-53.6-41.25-80.19-62.15c-16.91-13.29-33.72-26.72-50.4-40.3
					c-3.7-3.01-8.88-3.62-12.5,0c-3.11,3.11-3.72,9.47,0,12.5c30.91,25.14,62.27,49.72,93.82,74.05c20.9,16.12,42.03,32,62.36,48.84
					c7.04,5.84,14,11.81,20.55,18.2c2.62,2.56,5.17,5.18,7.59,7.93c1.04,1.19,2.04,2.41,3.05,3.63c0.88,1.06-1.05-1.49,0.22,0.28
					c0.48,0.68,0.98,1.34,1.45,2.03c1.5,2.19,2.74,4.48,3.97,6.82c1.09,2.08-0.31-1.11,0-0.04c0.14,0.5,0.39,0.98,0.54,1.48
					c0.33,1.09,0.58,2.19,0.88,3.29c0.41,1.49-0.03,0.71-0.02-0.55c0,0.53,0.14,1.07,0.14,1.61c0.02,1.07-0.06,2.14-0.05,3.2
					c0.02,2.13,0.44-1.27,0.06-0.41c-0.18,0.41-0.17,0.97-0.29,1.41c-0.3,1.07-0.67,2.12-0.97,3.18c-0.54,1.9,0.77-1.49,0.16-0.34
					c-0.25,0.46-0.43,0.96-0.69,1.42c-0.63,1.16-1.26,2.3-1.98,3.41c-0.69,1.07-1.44,2.08-2.19,3.1c1.01-1.4,0.7-0.86-0.09,0.07
					c-0.53,0.63-1.06,1.26-1.6,1.88c-2.01,2.28-4.24,4.32-6.35,6.5c-1.54,1.59,1.81-0.88-0.37,0.27c-0.76,0.4-1.6,0.82-2.32,1.28
					c-1,0.63,2.43-0.75,0.71-0.3c-0.4,0.1-0.78,0.3-1.18,0.41c-1,0.28-2,0.52-3.01,0.77c-3.01,0.73,1.38,0.03-0.94,0.16
					c-1.12,0.06-2.24,0.17-3.37,0.19c-2.34,0.05-4.68-0.08-7-0.32c-0.66-0.07-1.33-0.16-1.99-0.23c0.67,0.07,1.82,0.3-0.15-0.04
					c-1.43-0.25-2.85-0.49-4.27-0.78c-6.28-1.28-12.44-3.08-18.5-5.14c-3.36-1.14-6.68-2.36-9.99-3.65
					c-1.85-0.72-3.69-1.46-5.53-2.22c-0.53-0.22-3-1.26-1.03-0.42c-1.06-0.45-2.13-0.91-3.19-1.37
					c-16.76-7.32-32.99-15.82-48.9-24.82c-38.48-21.78-75.27-46.59-110.84-72.83c-36.29-26.77-71.8-55.6-105.32-86.69
					c-14.77-13.69-29.14-27.84-42.73-42.71c-5.86-6.41-11.57-12.96-17.04-19.71c-1.33-1.63-2.63-3.28-3.94-4.94
					c-0.9-1.14,0.74,0.99-0.71-0.92c-0.68-0.89-1.35-1.78-2.02-2.67c-2.17-2.91-4.28-5.86-6.32-8.86
					c-3.7-5.46-7.18-11.08-10.17-16.96c-0.68-1.34-1.33-2.69-1.96-4.05c-0.27-0.58-0.52-1.17-0.78-1.76c0.9,2,0.23,0.58-0.17-0.47
					c-0.87-2.29-1.68-4.6-2.31-6.98c-0.29-1.09-0.52-2.19-0.75-3.29c-0.12-0.56-0.17-1.13-0.29-1.68c0.36,1.7,0.15,1.72,0.06,0.17
					c-0.11-1.9,0.22-3.92,0.05-5.78c0.28,3.03-0.13,0.8,0.23-0.61c0.33-1.29,1.79-3.62,0.15-0.93c0.41-0.67,0.73-1.45,1.11-2.15
					c0.19-0.35,0.49-0.66,0.66-1.02c0.59-1.2-1.58,1.87,0.18-0.21c2.36-2.79,4.75-5.54,7.39-8.08c1.06-1.02,2.16-1.98,3.27-2.94
					c0.81-0.69,1.76-1.36,0.26-0.26c0.68-0.5,1.35-1.01,2.05-1.48c1.14-0.78,2.31-1.51,3.51-2.17c1.16-0.64,4.54-1.95,2.08-1.1
					c2.52-0.86,4.94-1.57,7.57-2.05c-3.23,0.59,0.91-0.01,1.92-0.03c1.4-0.03,2.78,0.09,4.18,0.16c2.47,0.13-0.73-0.19,0.27,0.01
					c0.65,0.13,1.3,0.22,1.94,0.35c1.52,0.3,3.02,0.69,4.5,1.12c1.49,0.44,2.96,0.94,4.42,1.49c0.81,0.3,1.61,0.63,2.41,0.95
					c-2.02-0.82,0.15,0.08,0.91,0.43c3.48,1.6,6.87,3.4,10.19,5.32c18.62,10.78,34.69,23.94,51.11,37.22
					c25.86,20.91,51.29,42.35,77.07,63.34c16.23,13.22,32.57,26.31,49.03,39.26c3.75,2.95,8.84,3.66,12.5,0
					C520.61,915.62,521.32,909.15,517.55,906.19L517.55,906.19z"/>
			</g>
		</g>
		<g>
			<path class="st2" d="M376.97,792.92C516.68,636.57,528.35,623.26,562.3,654.22c22.97,20.94,19.78,11.61-133.32,189"/>
			<g>
				<path d="M383.21,799.17c23.43-26.22,46.79-52.51,70.56-78.41c15.03-16.38,30.15-32.79,46.41-47.96
					c2.85-2.66,5.75-5.28,8.72-7.81c1.24-1.06,2.49-2.11,3.76-3.14c0.64-0.52,1.28-1.03,1.93-1.54c0.94-0.75-1.32,1-0.38,0.29
					c0.38-0.29,0.77-0.59,1.16-0.87c4.22-3.1,8.55-5.85,13.23-8.19c2.43-1.21-1.74,0.49,0.99-0.4c0.99-0.32,1.96-0.68,2.96-0.94
					c0.82-0.22,1.72-0.29,2.51-0.55c1.52-0.5-2.29,0.05-0.72,0.09c0.47,0.01,0.96-0.1,1.44-0.11c0.78-0.01,1.56,0,2.34,0.02
					c2.76,0.04-1.38-0.51,0.54,0.04c1.59,0.45,3.16,0.9,4.74,1.41c-2.54-0.82-0.87-0.38,0.37,0.25c0.85,0.43,1.67,0.9,2.48,1.4
					c0.75,0.46,1.48,0.94,2.21,1.44c0.73,0.51,3.66,2.8,1.05,0.7c2.93,2.35,5.74,4.84,8.52,7.37c1.72,1.57,3.36,3.17,4.98,4.84
					c1.89,1.97-1.16-1.95,0.47,0.64c0.21,0.33,0.36,0.79,0.61,1.09c0.93,1.1-0.97-2.53-0.31-0.68c0.13,0.36,0.27,0.8,0.29,1.18
					c0.06,0.88-0.81-2.84-0.16-0.77c0.11,0.36-0.22,1.02-0.06,1.33c-0.33-0.63,0.64-2.58,0-0.54c-0.16,0.51-0.31,1.03-0.45,1.54
					c-0.08,0.29-0.25,0.57-0.32,0.87c-0.35,1.54,1.04-1.99,0.37-0.86c-0.77,1.31-1.35,2.75-2.12,4.07
					c-2.12,3.64-4.63,7.05-7.15,10.42c-0.34,0.46-0.69,0.9-1.04,1.36c1.64-2.15,0.22-0.29-0.19,0.23c-0.97,1.23-1.94,2.45-2.93,3.67
					c-2.11,2.61-4.25,5.19-6.41,7.76c-32.88,39.13-67.41,76.92-100.93,115.5c-6.67,7.67-13.32,15.36-19.96,23.05
					c-7.4,8.57,5.05,21.13,12.5,12.5c38.33-44.4,77.65-87.95,115.77-132.52c8.25-9.64,16.74-19.36,23.7-29.99
					c3.66-5.6,7.14-12.09,6.86-18.98c-0.25-6.35-3.91-11.43-8.32-15.69c-5.58-5.4-11.55-10.85-18.21-14.87
					c-20.23-12.23-39.98-0.34-56.1,12.97c-15.12,12.48-28.69,26.87-42.1,41.12c-22.15,23.55-43.65,47.69-65.2,71.78
					c-6.98,7.8-13.95,15.6-20.92,23.4C363.16,795.13,375.62,807.68,383.21,799.17L383.21,799.17z"/>
			</g>
		</g>
		<g>
			<path class="st2" d="M588,959.8C734.9,809.42,740.55,796.59,769.46,822.01c31.9,28.05,18.36,21.54-126.76,189.97"/>
			<g>
				<path d="M594.25,966.05c39.1-40.03,77.11-81.45,117.92-119.76c5.25-4.93,10.58-9.78,16.17-14.33c1.01-0.83,2.04-1.64,3.07-2.45
					c-2.16,1.68,1.23-0.9,1.92-1.39c1.94-1.39,3.93-2.73,5.98-3.94c1.68-0.99,3.43-1.77,5.16-2.66c-1.56,0.8-1.12,0.38,0.49-0.11
					c0.77-0.24,1.55-0.44,2.33-0.66c1.61-0.46,2.39,0.14,0.01-0.1c0.67,0.07,1.45-0.13,2.14-0.13c0.58,0,1.39,0.21,1.94,0.1
					c-1.23,0.26-2.05-0.53-0.09,0.07c0.61,0.19,1.23,0.37,1.85,0.54c2.37,0.67-1.23-0.77,0.08,0c1.25,0.74,2.56,1.34,3.78,2.14
					c0.68,0.44,1.33,0.92,1.99,1.38c2.25,1.58-1.22-1.07,0.5,0.38c1.39,1.17,2.78,2.32,4.15,3.52c2.57,2.26,5.15,4.54,7.52,7.02
					c0.48,0.51,0.94,1.04,1.42,1.55c1.36,1.47,0.52,1.17,0.09,0.04c0.36,0.95,1.36,2.26,1.94,3.12c1.1,1.62-0.41-2.1-0.16-0.38
					c0.07,0.47,0.27,1.23,0.46,1.67c0.72,1.67,0.14-2.55-0.08-0.51c-0.06,0.54-0.1,1.39-0.03,1.92c0.18,1.29,0.73-2.66,0.04-0.45
					c-0.21,0.66-0.32,1.35-0.53,2.01c-0.23,0.73-0.54,1.42-0.79,2.14c0.94-2.71,0.3-0.73-0.31,0.47c-1.92,3.76-4.35,7.25-6.85,10.63
					c-0.71,0.96-2.6,3.38-1.27,1.69c-0.93,1.18-1.86,2.36-2.81,3.53c-2.08,2.57-4.2,5.1-6.34,7.61
					c-32.59,38.22-67.1,74.82-100.12,112.68c-6.48,7.43-12.93,14.88-19.36,22.34c-7.39,8.58,5.06,21.13,12.5,12.5
					c37.5-43.5,76.47-85.67,114.23-128.94c8.29-9.5,17.02-19.16,23.54-30.01c4.08-6.8,7.07-14.64,5.16-22.64
					c-1.63-6.81-6.68-12.21-11.66-16.84c-5.46-5.07-11.28-10.62-18.07-13.84c-19.41-9.21-37.45,5.69-51.5,17.87
					c-14.48,12.56-27.95,26.3-41.41,39.93c-22.23,22.52-44.17,45.31-66.24,67.99c-7.08,7.27-14.16,14.54-21.25,21.8
					C573.79,961.7,586.28,974.21,594.25,966.05L594.25,966.05z"/>
			</g>
		</g>
		<g>
			<path d="M167.14,1171.88c-8.37,4.58-38.03,35.01-31.15,52.6c6.31,16.15,89.91,63.31,94.93,65.75
				c12.65,6.15,37.93-24.87,43.83-37.39"/>
			<g>
				<path d="M162.68,1164.24c-7.36,4.21-13.67,11.18-19.03,17.62c-7.05,8.48-14.11,18.31-16.58,29.26
					c-2.06,9.13-0.31,17.22,5.77,24.23c4.97,5.73,11.31,10.38,17.35,14.9c15.52,11.62,32.1,21.85,48.72,31.79
					c6.55,3.91,13.13,7.76,19.77,11.52c3.82,2.16,7.87,4.91,12.19,5.87c11.72,2.61,23.08-7.09,30.74-14.66
					c7.99-7.9,15.83-17.31,20.77-27.48c4.95-10.19-10.29-19.16-15.26-8.92c-3.57,7.35-8.76,13.99-14.25,19.99
					c-3.14,3.44-6.49,6.88-10.22,9.7c-3.31,2.49-5.43,2.86-8.52,4.27c1.72-0.78-0.91-0.25,1.1,0.02c-1.77-0.24,0.26,0.33,0.04,0.19
					c-0.36-0.23-0.78-0.4-1.15-0.61c-1.65-0.91-3.31-1.81-4.95-2.74c-5.62-3.16-11.2-6.4-16.75-9.68
					c-14.92-8.82-29.71-17.93-43.96-27.8c-6.74-4.68-11.56-8.09-17.34-13.18c-2.04-1.8-3.88-3.73-5.78-5.67
					c-0.43-0.44-1.41-2,0.02,0.11c-0.05-0.07-0.84-1.15-0.81-1.17c-0.02,0.02-0.57-1.03-0.62-1.1c1.7,2.56,0.07,0.17-0.15-1.13
					c0.29,1.71,0.02-1.17,0.03-1.28c0.08-1.79,0.03-1.28,0.31-2.46c0.49-2.11,1.19-4.2,2-5.97c2.13-4.68,5.04-9.12,8.17-13.19
					c3.16-4.11,6.72-7.98,10.46-11.57c1.49-1.43,3.03-2.81,4.62-4.13c1.9-1.57-1.4,0.88,0.43-0.32c0.6-0.39,1.18-0.8,1.8-1.15
					C181.47,1173.85,172.58,1158.58,162.68,1164.24L162.68,1164.24z"/>
			</g>
		</g>
		<g>
			<path class="st3" d="M154.02,1242.15c-37.21,52.93-116.8,179.34-76.51,277.52C108.43,1595,200.4,1637.5,285.4,1635.21
				c85.01-2.29,163.33-40.88,232.14-86.5c220.13-145.92,443.24-402,608.37-370.69c230.1,43.63,140.51,314.03,124.96,396.03
				c-11.21,59.1,8,56.27,24.56,61.08c15.3,4.45,32.93,18.48,39.14-46.35c9.78-101.92,71.59-246.75-11.99-378.3
				c-110.23-173.49-295.75-111.26-347.22-85.35c-214.47,107.94-355.8,320.56-575.02,419.99c-135.69,61.54-218.08,2.79-234.62-35.72
				c-34.81-81.07,30.93-195.72,56.18-231.01"/>
			<g>
				<path d="M146.39,1237.69c-39.79,56.68-76.5,121.44-86.36,190.94c-5.42,38.21-1.56,77.22,17.51,111.35
					c18.37,32.87,48.27,58.38,81.51,75.42c34.88,17.88,73.96,27.59,113.11,28.65c46.01,1.24,92.12-9.31,134.74-26.12
					c83.76-33.04,157.06-88.61,227.45-143.68c68.89-53.9,135.28-110.97,204.88-163.97c31.19-23.75,63.07-46.75,96.46-67.34
					c29.01-17.89,59.34-34.31,91.62-45.51c26.58-9.23,54.57-14.95,82.81-12.69c29.08,2.34,59.18,12.39,84.09,27.5
					c43.65,26.48,66.78,71.54,74.58,120.77c7.66,48.28,2.07,98.8-6.7,146.51c-3.8,20.65-8.39,41.14-13.07,61.61
					c-5.05,22.1-12.12,45.83-10.05,68.58c1.01,11.04,4.76,21.87,14.84,27.69c6.8,3.93,14.76,4.7,22.1,7.15
					c7.07,2.36,14.4,5.15,21.94,3.08c11.32-3.1,16.75-14.58,19.84-24.92c5.31-17.75,5.58-36.64,8.35-54.86
					c2.82-18.59,6.5-37.03,10.11-55.48c7.91-40.34,15.61-80.91,17.81-122.04c2.37-44.28-2.03-89.34-17.48-131.12
					c-14.89-40.29-39.19-77.78-70.12-107.63c-46.62-44.99-108.41-67.98-172.89-67.64c-45.9,0.24-92.31,10.73-134.15,29.56
					c-32.29,14.53-62.96,33.65-92.31,53.35c-34.97,23.46-68.32,49.27-100.75,76.1c-64.94,53.71-126.19,111.73-191.33,165.21
					c-32.29,26.51-65.58,51.84-100.56,74.71c-35.94,23.49-73.98,45.53-114.05,61.2c-59.45,23.25-138.97,31.85-189.34-15.28
					c-7.26-6.79-11.9-12.22-16.27-20.93c-7.08-14.13-9.66-30.89-10.05-46.54c-0.9-36.66,10.14-73.31,24.75-106.6
					c11-25.06,24.21-49.54,40.12-71.86c6.61-9.28-8.71-18.12-15.26-8.92c-16.37,22.98-29.93,48.24-41.1,74.11
					c-14.73,34.11-26.02,70.78-26.23,108.24c-0.16,28.22,6.23,57.47,25.51,78.85c17.01,18.88,40.68,31.57,64.88,38.55
					c80.69,23.26,163.19-14.19,231.73-54.33c71.76-42.03,136.11-95.34,198.56-149.92c62.81-54.9,124.19-111.76,191.42-161.32
					c33.56-24.74,68.54-47.64,105.32-67.32c9.54-5.11,19.15-10.09,29.12-14.31c-1.73,0.73,0.88-0.36,1.39-0.57
					c0.98-0.4,1.95-0.79,2.93-1.18c2.19-0.87,4.39-1.71,6.6-2.53c4.54-1.68,9.12-3.26,13.72-4.74
					c48.4-15.58,101.27-21.32,151.23-10.01c70.79,16.01,126.68,66.96,158.95,130.95c39.84,79.01,30.36,167.66,14.28,251.47
					c-3.6,18.74-7.45,37.44-10.76,56.23c-3.24,18.36-4.75,36.87-7.59,55.26c-1.11,7.2-2.56,15.41-5.32,21.83
					c-0.51,1.19-1.11,2.36-1.77,3.47c-0.31,0.53-2.02,2.83-0.96,1.58c-0.6,0.71-1.26,1.39-1.97,2c1.43-1.22,0.02,0.07-0.78,0.34
					c2.42-0.83,0.03-0.01-0.55,0.08c-1.19,0.19,1.86,0.01-0.39,0.03c-0.75,0-1.49-0.05-2.24-0.1c2.17,0.15,0.23,0.02-0.77-0.24
					c-3.21-0.83-6.29-2.01-9.44-3.04c-3.34-1.09-6.76-1.83-10.16-2.69c-1.73-0.44-3.42-0.93-5.11-1.5c-1.62-0.54-0.62-0.24-0.6-0.23
					c-0.87-0.45-1.71-0.91-2.54-1.43c-0.89-0.55,0.72,0.73-0.79-0.68c-0.45-0.42-1.94-2.42-0.88-0.88c-1.73-2.5-1.77-2.81-2.34-5.08
					c-1.59-6.37-1.41-13-0.89-19.65c1.57-19.87,7.12-39.55,11.52-58.94c10.31-45.37,19.28-91.32,21.23-137.91
					c2.08-49.62-3.84-102.3-30.16-145.5c-30.23-49.63-85.25-77.87-141.87-84.99c-61.34-7.71-122.4,19.94-174.14,49.94
					c-69.54,40.33-132.59,91.47-194.9,141.95c-67.9,55-134.92,111.35-206.46,161.63c-74.13,52.09-157.3,100.24-250.02,104.77
					c-72.61,3.54-155.93-24.92-195.74-89.31c-41.04-66.37-14.53-149.17,18.32-213.04c13.8-26.83,29.82-52.48,47.15-77.16
					C168.21,1237.28,152.89,1228.44,146.39,1237.69L146.39,1237.69z"/>
			</g>
		</g>
		<g>
			<path class="st4" d="M397.59,1014.64c-33.3,8.8-66.6,17.6-99.91,26.4c15.07,12.87,30.13,25.75,45.2,38.62
				c-26.55,28.88-53.1,57.76-79.65,86.64c47.23-23.4,94.45-46.79,141.68-70.19c-14.08-11.48-28.15-22.97-42.23-34.45
				c13.83-15.8,27.65-31.61,41.48-47.41"/>
			<g>
				<path class="st5" d="M395.24,1006.12c-33.3,8.8-66.6,17.6-99.91,26.4c-6.07,1.61-9.03,10.38-3.9,14.77
					c15.07,12.87,30.13,25.75,45.2,38.62c0-4.17,0-8.33,0-12.5c-26.55,28.88-53.1,57.76-79.65,86.64
					c-6.92,7.53,1.72,18.33,10.71,13.88c47.23-23.4,94.45-46.79,141.68-70.19c4.77-2.36,6.05-10.4,1.79-13.88
					c-14.08-11.48-28.15-22.97-42.23-34.45c0,4.17,0,8.33,0,12.5c13.83-15.8,27.65-31.61,41.48-47.41
					c7.46-8.53-4.99-21.08-12.5-12.5c-13.83,15.8-27.65,31.61-41.48,47.41c-2.9,3.31-3.9,9.32,0,12.5
					c14.08,11.48,28.15,22.97,42.23,34.45c0.6-4.63,1.19-9.25,1.79-13.88c-47.23,23.4-94.45,46.79-141.68,70.19
					c3.57,4.63,7.14,9.25,10.71,13.88c26.55-28.88,53.1-57.76,79.65-86.64c3.04-3.31,3.76-9.29,0-12.5
					c-15.07-12.87-30.13-25.75-45.2-38.62c-1.3,4.92-2.6,9.85-3.9,14.77c33.3-8.8,66.6-17.6,99.91-26.4
					C410.92,1020.26,406.26,1003.2,395.24,1006.12L395.24,1006.12z"/>
			</g>
		</g>
		<g class="st6">
			<path d="M533.22,648.11C460.28,725.69,454,762.29,428.51,829.96c-33.09-25.96-48.78-28.14-42.08-36.19
				c42.6-51.15,88.89-98.33,146.13-154.16"/>
			<g>
				<path d="M526.98,641.86c-22.54,24.03-44.08,49.43-61.15,77.71c-12.62,20.92-22.12,43.39-30.58,66.26
					c-5.14,13.91-10.05,27.9-15.27,41.78c4.92-1.3,9.85-2.6,14.77-3.9c-12.57-9.8-25.97-18.03-39.05-27.07
					c-0.52-0.36-2.69-2.08-0.93-0.61c-0.55-0.46-1.07-1.02-1.64-1.44c-1.67-1.23,0.49,0.95,0.02,0.11c-0.21-0.37,0.62,2.49,0.6,2.19
					c0.04,0.72-0.68,2.9-0.49,2.43c0.61-1.49-1.79,2-0.05,0.05c0.74-0.83,1.42-1.7,2.13-2.55c3.21-3.82,6.44-7.63,9.69-11.42
					c25.92-30.18,53.24-59.12,81.18-87.43c17.34-17.56,34.92-34.89,52.59-52.13c8.16-7.96-4.35-20.45-12.5-12.5
					c-32.31,31.52-64.35,63.33-95.1,96.38c-14.11,15.16-27.93,30.58-41.37,46.34c-7.53,8.82-20.56,20.25-8.83,31.37
					c4.46,4.23,10.14,7.31,15.29,10.6c8.91,5.69,17.63,11.66,25.97,18.16c5.45,4.25,12.26,2.77,14.77-3.9
					c8.41-22.36,15.89-45.55,25.31-67.26c10.14-23.36,23.11-45.18,38.43-65.51c11.93-15.84,25.15-30.72,38.71-45.18
					C547.25,646.07,534.78,633.54,526.98,641.86L526.98,641.86z"/>
			</g>
		</g>
		<g class="st6">
			<path d="M749.19,816.02c-68.74,49.66-88.01,137.37-106.49,195.96c3.08-12.06-49.25-28.08-45.91-49.27
				c1.18-7.54,35.8-49.03,141.83-141.66"/>
			<g>
				<path d="M744.73,808.39c-52.38,38.18-78.56,97.68-97.33,157.79c-4.51,14.45-8.68,29.01-13.23,43.45
					c5.68,1.57,11.36,3.13,17.04,4.7c1.93-9.61-5.21-15.97-12.2-21.17c-7.36-5.46-15.92-10.26-22.9-15.59
					c-1.32-1.01-3.27-2.65-4.75-4.04c-0.79-0.74-1.55-1.49-2.29-2.29c-0.32-0.35-2.18-2.7-1.37-1.56c-0.55-0.77-1.04-1.58-1.5-2.41
					c-0.98-1.77,0.08,0.27-0.46-1.06c-0.13-0.33-0.2-0.73-0.28-1.08c-0.28-1.32,0.21,1.5,0.02,0.17c-0.19-1.29,0.69-2.83-0.15-0.41
					c0.89-2.53-1.2,1.71-0.02-0.11c0.66-1.02,1.21-2.13,1.88-3.15c0.94-1.43,1.97-2.8,2.98-4.18c1.24-1.69-1.12,1.37,0.75-0.97
					c0.77-0.96,1.55-1.93,2.34-2.88c3.86-4.67,7.9-9.19,12-13.65c13.18-14.3,27.06-27.96,41.11-41.39
					c25.55-24.42,51.88-48.02,78.48-71.27c8.58-7.5-3.96-19.96-12.5-12.5c-40,34.96-80.04,70.43-116.4,109.23
					c-7.99,8.52-15.97,17.24-22.73,26.79c-6.19,8.74-7.35,18.29-0.78,27.77c6.65,9.6,17.02,16.08,26.63,22.36
					c2.21,1.44,4.42,2.88,6.61,4.35c1.01,0.69,2.02,1.38,3.01,2.09c0.46,0.33,2.72,2.08,1.57,1.15c0.78,0.63,1.55,1.27,2.28,1.96
					c0.36,0.34,2.22,2.42,1.51,1.48c-0.88-1.17,0.01-0.02-0.01,0.03c0.09,0.15,0.19,0.3,0.28,0.46c0.33,0.65,0.33,0.6-0.02-0.15
					c-0.13,0.17-0.25-1.19-0.13-0.16c-0.3-2.55-0.51,0.03,0.01-2.53c-2.23,11.09,13.6,15.64,17.04,4.7
					c16.78-53.34,30.56-109.01,65.3-154.19c10.58-13.76,23.1-26.26,37.13-36.49c3.85-2.81,5.75-7.68,3.17-12.09
					C754.6,807.76,748.61,805.56,744.73,808.39L744.73,808.39z"/>
			</g>
		</g>
		<g class="st6">
			<path d="M294.77,771.55c87.08,150.18,232.07,270.73,400.87,333.28c-90.37,46.62-415.8-233.99-427.13-296.74
				c-3.34-18.52,8.11-26.17,27.8-42.16"/>
			<g>
				<path d="M287.14,776.01c34.77,59.82,78.22,114.58,127.99,162.61c50.57,48.8,107.74,90.92,169.26,124.88
					c34.98,19.31,71.44,35.93,108.89,49.85c-0.7-5.38-1.41-10.77-2.11-16.15c-0.46,0.23-1.2,0.79-1.71,0.83
					c-1.08,0.08,1.88-0.62-0.1,0.04c-1.32,0.44-2.61,0.94-3.95,1.32c-1.29,0.37-2.6,0.68-3.92,0.95c-0.68,0.14-1.36,0.23-2.04,0.37
					c-1.86,0.39,1.85-0.13-0.53,0.08c-6.42,0.55-12.67,0.36-19.08-0.31c-1.35-0.14,1.66,0.29-0.79-0.11
					c-0.85-0.14-1.71-0.27-2.56-0.41c-1.86-0.32-3.72-0.68-5.57-1.07c-3.79-0.81-7.56-1.77-11.29-2.84
					c-8.24-2.36-16.32-5.25-24.26-8.46c-4-1.62-6.68-2.77-11.55-4.98c-4.47-2.03-8.91-4.15-13.31-6.34
					c-9.36-4.65-18.56-9.62-27.63-14.8c-19.64-11.21-38.71-23.42-57.35-36.22c-39.14-26.87-76.29-56.15-112.02-87.46
					c-30.57-26.79-60.42-54.89-86.85-85.82c-2.57-3.01-5.1-6.05-7.58-9.14c-1.13-1.41-2.25-2.82-3.35-4.24
					c-0.77-0.99,0.93,1.22,0.18,0.23c-0.2-0.26-0.39-0.51-0.59-0.77c-0.64-0.85-1.28-1.69-1.91-2.54c-3.66-4.94-7.17-10-10.27-15.31
					c-1.23-2.1-2.4-4.24-3.45-6.44c-0.24-0.5-0.45-1.01-0.7-1.5c-0.94-1.88,0.57,1.58,0.11,0.3c-0.37-1.03-0.8-2.03-1.13-3.08
					c-2.73-8.51-0.52-14.94,5.67-21.24c5.79-5.88,12.5-10.87,18.9-16.05c3.71-3.01,3.13-9.37,0-12.5c-3.67-3.67-8.78-3.02-12.5,0
					c-11.56,9.37-27.09,19.5-30.2,35.23c-1.55,7.83-0.48,15.74,2.52,23.04c5.03,12.24,12.99,23,21.08,33.37
					c24.18,31.04,52.94,58.7,82.02,85.08c36.67,33.26,75.31,64.47,115.61,93.22c36.76,26.22,75.26,51.09,116.61,69.48
					c16.34,7.27,33.26,13.83,50.87,17.28c13.78,2.71,28.63,3.97,42.28-0.16c3.18-0.96,6.3-2.26,9.26-3.76
					c7.36-3.74,4.46-13.71-2.11-16.15c-64.68-24.04-126.05-56.84-182.23-96.89c-55.43-39.51-105.7-86.42-148.81-139.1
					c-23.96-29.29-45.53-60.51-64.55-93.23C296.69,757.26,281.41,766.15,287.14,776.01L287.14,776.01z"/>
			</g>
		</g>
		<g class="st6">
			<path d="M280.1,858.35c-57.16,57.29-98.54,146.06-86.21,225c12.32,78.95,78.11,146.49,150.79,188.68
				c-89.35-35.19-204-103.41-212.47-170.98c-10.3-82.18,75.06-176.01,144.64-245.92"/>
			<g>
				<path d="M273.85,852.1c-47.4,47.76-82.01,111.56-89.63,178.9c-3.66,32.35,0.35,65.22,12.45,95.48
					c12.29,30.71,31.12,58.24,53.61,82.39c26.06,28,56.93,51.56,89.93,70.79c2.27-5.38,4.54-10.77,6.81-16.15
					c-35.68-14.1-70.33-31.22-102.98-51.37c-30.17-18.62-60.21-40.24-82.36-68.29c-8.42-10.66-15.56-22.61-19.05-35.56
					c-3.68-13.66-3.04-29.67-0.11-44.33c7.36-36.79,27.63-70.04,49.51-99.95c27.02-36.94,58.85-70.22,91.07-102.62
					c8.03-8.07-4.46-20.58-12.5-12.5c-30.24,30.4-59.77,61.62-85.93,95.67c-24.22,31.53-46.75,66.51-57.02,105.34
					c-4.48,16.94-6.42,34.74-4.15,52.17c1.95,15,8.09,29.04,16.37,41.62c20.24,30.71,50.44,54.34,80.76,74.46
					c38.03,25.23,79.29,45.66,121.69,62.42c9.48,3.74,15.25-11.23,6.81-16.15c-53.98-31.47-104.17-75.74-131.22-133.05
					c-12.91-27.35-18.67-57.15-17.1-87.33c1.63-31.35,10.6-62.39,23.83-90.76c15.31-32.82,36.19-62.95,61.7-88.66
					C294.37,856.52,281.88,844.01,273.85,852.1L273.85,852.1z"/>
			</g>
		</g>
		<g class="st6">
			<g>
				<path d="M147.82,1242.29c-41.23,60.49-83.51,124.89-86.6,200.42c-1.44,35.17,6.34,71.53,25.15,101.56
					c17.85,28.51,44.72,50.87,74.86,65.47c69.11,33.47,148.24,28.33,220.04,6.42c59.3-18.09,115.24-46.25,167.32-79.65
					c51.95-33.33,100.48-71.71,148.22-110.73c23.45-19.16,46.72-38.53,70.2-57.66c11.83-9.64,23.72-19.22,35.7-28.67
					c12.53-9.88,20.74-16.23,34.01-26.14c48.24-36,98.92-69.13,153.58-94.61c6.09-2.84,14.95-6.78,19.53-8.7
					c4.6-1.93,13.65-5.51,20-7.89c16.29-6.09,32.86-11.55,49.76-15.67c34.35-8.36,69.76-10.41,103.18,3.22
					c1.9,0.77,0.2,0.1-0.15-0.06c0.81,0.36,1.61,0.72,2.41,1.1c1.6,0.74,3.18,1.52,4.75,2.32c3.39,1.73,6.71,3.59,9.96,5.58
					c3.24,1.98,6.4,4.09,9.48,6.32c0.74,0.53,3.74,2.8,3.11,2.31c-1.29-1.02,0.95,0.79,0.96,0.8c0.89,0.75,1.8,1.49,2.69,2.25
					c5.78,4.93,11.22,10.28,16.29,15.94c5.86,6.55,7.43,8.55,12.35,15.8c18.14,26.76,27.82,55.12,31.07,87.65
					c7.8,77.87-18.53,152.11-29.36,228.68c-2.84,20.06-4.88,40.18-5.1,60.45c-0.1,9.55,8.2,17.68,17.68,17.68
					c9.67,0,17.57-8.09,17.68-17.68c0.83-78.54,28.89-153.91,34.79-232.39c2.83-37.68,0.53-76.97-11.89-112.91
					c-10.4-30.1-27.29-58.18-50.11-80.52c-23.51-23.02-53.55-39.97-86.15-45.61c-39.49-6.83-79.52-0.15-117.36,11.85
					c-58.65,18.59-113.93,47.05-165.44,80.47c-51.57,33.46-99.8,71.8-147.32,110.69c-23.43,19.18-46.71,38.55-70.2,57.65
					c-11.84,9.62-23.73,19.18-35.73,28.61c-2.76,2.17-5.53,4.34-8.31,6.49c-0.54,0.42-3.92,3.04-1.98,1.54
					c-1.62,1.25-3.25,2.5-4.87,3.74c-6.03,4.62-12.1,9.2-18.19,13.73c-48.28,35.87-99.05,68.8-153.8,93.97
					c-3.18,1.46-6.37,2.9-9.58,4.31c-1.6,0.71-3.22,1.4-4.82,2.1c-0.38,0.17-3.11,1.32-0.62,0.27c-1.08,0.45-2.16,0.9-3.24,1.35
					c-6.79,2.8-13.63,5.47-20.52,8.01c-16.31,6.01-32.89,11.32-49.73,15.63c-36.59,9.36-73.4,13.57-111.36,9.15
					c-31.14-3.63-60.12-14.35-85.91-32.08c-5.96-4.09-9.47-6.85-15.67-12.6c-2.87-2.67-5.65-5.44-8.32-8.32
					c-2.13-2.31-5.78-6.58-6.78-7.85c-9.08-11.67-16.47-26.47-20.76-40.77c-9.11-30.35-7.97-62.33,0-92.93
					c9.05-34.74,25.87-65.73,45.12-96.33c9.78-15.55,20.12-30.74,30.47-45.92c5.38-7.89,1.49-19.6-6.34-24.18
					C163.26,1230.84,153.21,1234.38,147.82,1242.29L147.82,1242.29z"/>
			</g>
		</g>
		<g class="st7">
			<g>
				<path class="st8" d="M546.45,1094.33c-25.64,19.46-47.33,42.83-70.26,65.27c-5.5,5.39-11.1,10.68-16.86,15.79
					c-2.64,2.34-5.32,4.64-8.04,6.88c-1.26,1.03-2.52,2.05-3.8,3.06c-0.11,0.09-2.23,1.74-0.78,0.62c1.61-1.24-1.81,1.35-2.12,1.58
					c-11.43,8.45-23.61,15.83-36.59,21.63c-0.15,0.07-2.64,1.09-0.89,0.39c1.88-0.76-2.54,0.97-2.43,0.93
					c-1.78,0.67-3.57,1.31-5.37,1.91c-3.87,1.29-7.79,2.42-11.75,3.34c-1.86,0.43-3.72,0.83-5.59,1.18
					c-1.03,0.19-5.87,0.91-2.59,0.5c-4.39,0.55-8.79,0.81-13.21,0.88c-9.24,0.14-18.11,8.03-17.68,17.68
					c0.42,9.45,7.77,17.83,17.68,17.68c31.78-0.5,62.11-12.28,88.25-29.91c26.6-17.94,48.68-41.06,71.22-63.65
					c6.47-6.49,13.02-12.92,19.77-19.12c3.27-3,6.59-5.96,9.97-8.83c1.58-1.35,3.18-2.67,4.79-3.99c0.92-0.75,1.85-1.49,2.78-2.23
					c2.57-2.04-3.19,2.4,1.37-1.06c7.34-5.57,11.94-15.49,6.34-24.18C565.96,1093.41,554.33,1088.35,546.45,1094.33L546.45,1094.33z
					"/>
			</g>
		</g>
		<g class="st7">
			<g>
				<path class="st8" d="M490.89,951.99c43.99,34.63,87.98,69.25,131.97,103.88c7.25,5.71,18.02,7.6,25,0c5.84-6.37,7.76-18.89,0-25
					c-43.99-34.63-87.98-69.25-131.97-103.88c-7.25-5.71-18.02-7.6-25,0C485.04,933.36,483.13,945.89,490.89,951.99L490.89,951.99z"
					/>
			</g>
		</g>
		<g class="st7">
			<g>
				<path class="st8" d="M741.87,836.46c-8.73,10.54-17.45,21.07-26.18,31.61c-5.89,7.11-7.48,18.13,0,25c6.51,5.98,18.7,7.6,25,0
					c8.73-10.54,17.45-21.07,26.18-31.61c5.89-7.11,7.48-18.13,0-25C760.36,830.48,748.17,828.85,741.87,836.46L741.87,836.46z"/>
			</g>
		</g>
		<g class="st7">
			<g>
				<path class="st8" d="M530.53,666.49c-5.79,6.89-11.58,13.78-17.38,20.66c-5.94,7.07-7.45,18.16,0,25c6.55,6.02,18.64,7.56,25,0
					c5.79-6.89,11.58-13.78,17.38-20.66c5.94-7.07,7.45-18.16,0-25C548.97,660.47,536.88,658.93,530.53,666.49L530.53,666.49z"/>
			</g>
		</g>
		<g class="st7">
			<g>
				<path class="st8" d="M1090.97,1101.14c-58.41,6.11-112.82,30.47-162.82,60.28c-60.36,35.99-115.8,80.03-169.71,124.92
					c-33.7,28.06-66.82,56.81-99.91,85.59c-7,6.09-6.7,18.85,0,25c7.46,6.85,17.53,6.49,25,0c29.03-25.25,58.09-50.48,87.54-75.24
					c13.88-11.67,27.85-23.24,41.95-34.63c7.1-5.74,14.24-11.44,21.42-17.08c3.3-2.59,6.61-5.18,9.93-7.75
					c-0.31,0.24-1.63,1.26-0.04,0.03c0.94-0.72,1.88-1.45,2.83-2.17c1.88-1.44,3.76-2.87,5.64-4.3c26.2-19.9,53.05-39,80.99-56.4
					c13-8.09,26.24-15.81,39.76-22.98c6.36-3.37,12.79-6.63,19.28-9.74c3.07-1.47,6.15-2.91,9.25-4.31
					c1.53-0.69,3.07-1.38,4.61-2.05c0.84-0.37,6.93-2.92,3-1.31c13.79-5.66,27.79-10.75,42.17-14.72c6.96-1.92,13.99-3.6,21.08-5
					c3.37-0.66,6.75-1.26,10.14-1.78c0.84-0.13,1.69-0.25,2.53-0.38c3.39-0.53-2.56,0.24-0.28,0.03c1.89-0.17,3.77-0.45,5.66-0.65
					c9.17-0.96,18.13-7.44,17.68-17.68C1108.25,1110.06,1100.82,1100.1,1090.97,1101.14L1090.97,1101.14z"/>
			</g>
		</g>
	</g>
	<g>
		<g id="Ebene_7_1_">
			<g>
				<path class="st9" d="M853.72,1006.58c-16.51,7.42-17.67,32.43-1.98,42.65c-40.7,54.77-27.22,138.96,29.68,185.5
					c18.05,14.76,40.18,26.02,63.74,28.95c43.51,5.42,85.1-19.15,105.98-53c7.97-12.93,13.46-27.06,18.9-41.13
					c11.6-29.97,23.2-59.94,34.81-89.9c3.23-8.34,6.5-17.02,5.41-26.01c-2.27-18.74-22.06-31.99-40.62-41.06
					c-45.38-22.2-95.42-35.86-145.82-39.79c-14.38-1.12-29.18-1.41-42.51,2.87c-13.33,4.28-25.05,13.97-27.44,26.76"/>
				<g>
					<path class="st9" d="M853.52,1002.05c-19.17,9.15-26.86,37.6-6.5,51.5c0.2-1.93,0.39-3.87,0.59-5.8
						c-28.98,39.41-32.41,92.39-11.76,137.94c22.24,49.07,78.09,92.79,137.89,82.15c27.59-4.91,51.61-19.96,69.08-39.16
						c21.63-23.78,30.77-55.18,41.96-84.08c6.19-16,12.39-32,18.58-48c3.05-7.88,6.26-15.72,9.09-23.67
						c2.5-7.03,4.42-14.6,3.36-22.19c-3.8-27.05-37.39-41.51-61.4-51.73c-33.58-14.3-69.25-24-105.43-28.9
						c-31.4-4.25-69.51-7.91-91.3,15.94c-4.6,5.04-7.87,10.95-9.25,17.51c-0.56,2.65,1.38,4.31,4.24,3.86
						c3.02-0.48,6.11-3.37,6.69-6.1c6-28.35,48.08-25,72.33-22.47c34.04,3.56,67.71,11.63,99.77,23.75
						c14.66,5.53,29.37,11.71,42.97,19.35c10.44,5.87,21.26,13.62,26.79,23.84c7.25,13.4,1.47,26.44-3.4,39.03
						c-5.7,14.73-11.41,29.46-17.11,44.19c-5.78,14.92-11.52,29.84-17.33,44.74c-5.28,13.53-10.72,27.34-19.02,39.51
						c-12.88,18.9-32.37,34.32-55.8,41.63c-53.8,16.81-109.68-18.9-135.26-62.96c-23.01-39.64-26.58-88.57-5.98-127.58
						c2.51-4.75,5.37-9.27,8.58-13.63c0.9-1.22,2.57-4.45,0.59-5.8c-6.58-4.5-10.06-11.24-10.24-18.49
						c-0.14-5.78,1.82-12.52,7.68-15.31c2.6-1.24,5.7-3.86,5.4-6.88C859.05,1001.42,855.82,1000.95,853.52,1002.05L853.52,1002.05z"
						/>
				</g>
			</g>
			<g>
				<g>
					<path class="st9" d="M909.46,1268.81c5.21,1.39,13.25-8.24,7.53-9.77C911.78,1257.65,903.74,1267.29,909.46,1268.81
						L909.46,1268.81z"/>
				</g>
			</g>
			<g>
				<g>
					<path class="st9" d="M900.37,1269.26c1.99,9.65,10.24,17.73,21.29,18.71c11.52,1.02,22.1-5.99,26.7-14.97
						c0.64-1.26,1.23-4.61-1.21-5.07c-11.33-2.13-22.67-4.24-34.01-6.37c-3.21-0.6-6.17,1.09-7.91,3.4
						c-0.96,1.28-2.87,5.76,0.38,6.36c11.33,2.13,22.67,4.24,34.01,6.37c-0.4-1.69-0.81-3.37-1.21-5.07
						c-6.01,11.75-24.71,2.16-26.82-8.08C910.24,1258.12,899.41,1264.6,900.37,1269.26L900.37,1269.26z"/>
				</g>
			</g>
		</g>
		<g id="Ebene_5_1_">
			<g>
				<path class="st10" d="M1113.7,1026.18c21.5-82.21,95.64-141.06,168.74-191.31c73.1-50.25,151.95-100.47,190.07-176.8
					c48.21-96.52,17.05-220.71-63.79-304.01s-204.11-126.93-322.96-128.19c-74.08-0.79-148.29,14.08-209.92,48.53
					S751.9,370.27,734.79,435.03c-23.72,89.74,26.68,179.04,64.06,267.89c37.38,88.85,77.14,182.8,60.25,274.12
					c85.4-11.33,177.23,9.24,250.2,56.04"/>
				<g>
					<path class="st10" d="M1119.16,1025.06c18.92-71.28,77.97-123.98,138.31-167.69c60.72-43.98,126.98-82.65,176.96-137.43
						c23.67-25.95,42.79-55.45,54.11-88.04c10.41-29.97,14.09-62.14,11.82-94.06c-4.58-64.3-32.79-128.27-78.67-179.3
						c-49.66-55.23-118.91-94.57-192.13-116.4c-74.98-22.36-155.43-27.38-230.98-14.38c-37.64,6.48-74.24,17.67-107.58,34.05
						c-32.88,16.17-62.65,37.26-88.46,61.65c-26.18,24.74-49.05,53.34-63.48,85.51c-13.82,30.83-18.25,64.7-14.83,98.56
						c7.07,70.04,42.8,135.89,70.41,201.53c29.36,69.77,60.21,141.85,62.71,216.26c0.59,17.78-0.55,35.46-3.71,52.83
						c-0.49,2.72,1.25,4.24,4.24,3.86c65.67-8.56,134.87,1.89,196.41,28.66c17.49,7.61,34.33,16.53,50.28,26.71
						c4.87,3.11,13.92-5.78,9.47-8.62c-57.81-36.88-126.59-57.84-195.46-59.73c-19.57-0.53-39.05,0.53-58.25,3.03
						c1.42,1.29,2.82,2.57,4.24,3.86c12.98-71.42-7.71-144.35-34.4-213.14c-13.35-34.39-27.95-68.45-42.93-102.33
						c-14.52-32.85-29.19-65.81-39.61-99.8c-10.01-32.63-15.83-66.52-12.35-99.79c3.51-33.61,17.33-64.4,37.5-91.77
						c41.03-55.72,102.96-98.58,173.52-119.73c71.66-21.48,151.5-23.94,227.17-9.33c74.88,14.47,147.54,45.87,204.83,94.36
						c53.46,45.25,90.64,104.85,105.08,168.92c14.4,63.91,4.39,129.6-32.8,183.16c-40.92,58.93-104.77,100.06-164.97,141.32
						c-61.15,41.91-123.3,88.1-158.23,151.8c-8.29,15.12-14.75,31.12-19.14,47.7c-0.7,2.64,1.48,4.3,4.24,3.86
						C1115.61,1030.66,1118.44,1027.8,1119.16,1025.06L1119.16,1025.06z"/>
				</g>
			</g>
		</g>
		<g id="Ebene_6_1_">
			<g>
				<path class="st11" d="M1394.61,489.82c-29.38-66.2-93.52-144.17-164.33-176.39s-192.73-23.42-262.8,3.4
					c-96.89,37.09-144.63,156.84-135.7,254.45c7.73,84.52,97.08,142.21,184.17,175.81c87.07,33.6,199.58,50.51,270.62-0.38
					c71.04-50.89,117.75-172.26,107.99-256.7"/>
				<g>
					<path class="st11" d="M1399.97,486.39c-12.41-27.81-28.95-54.24-48.11-78.9c-19.95-25.69-43.11-49.72-69.77-69.87
						c-23.09-17.46-48.83-31.75-77.39-39.44c-28.65-7.73-58.62-10.47-87.98-10.52c-30.99-0.06-61.95,2.87-91.93,8.69
						c-26.43,5.12-53.04,12.3-76.29,24.48c-47.13,24.7-79.75,67.31-99.35,113.04c-10.12,23.63-17.15,48.5-20.87,73.92
						c-3.57,24.44-5.01,50.15-0.93,74.99c8.29,50.52,46.31,91.78,91.08,121.66c46.94,31.34,101.86,54.02,157.27,67.49
						c55.23,13.43,115.24,18.28,168.24,0.77c51.83-17.12,87.19-57.55,111.97-100.7c26.22-45.66,42.94-97.85,45.29-150.46
						c0.5-11.26,0.23-22.58-1.05-33.88c-0.72-6.4-11.73-0.02-11.2,4.7c5.52,48.99-6.17,98.98-25.19,143.48
						c-9.93,23.24-22.28,45.62-37.79,66c-13.9,18.26-30.45,35.29-50.94,47.6c-44.59,26.8-102.89,28.15-155.8,19.96
						c-54.93-8.5-109.21-27.74-157.96-53.69c-46.24-24.62-91.38-58.8-112.48-104.72c-10.43-22.71-12.85-46.41-12.43-70.31
						c0.43-24.62,4.19-49,10.83-72.56c12.96-46,37.42-90.61,76.6-121.76c18.53-14.72,40.32-24.82,63.89-31.72
						c26.93-7.9,55.21-12.75,83.67-15.12c55.29-4.61,116.98-2.09,167.51,24.91c27.84,14.88,52.26,35.27,73.64,57.27
						c22.22,22.86,41.54,48.07,57.51,74.75c7.17,11.96,13.63,24.24,19.24,36.82C1391.58,498.49,1402.03,491.01,1399.97,486.39
						L1399.97,486.39z"/>
				</g>
			</g>
		</g>
		<g id="Ebene_3_1_">
			<g>
				<g>
					<path class="st12" d="M1114.52,1042.55c13.97-35.03,33.99-67.34,58.55-96.73c24.02-28.76,51.96-54.53,81.13-78.9
						c30-25.06,60.88-49.13,94.13-70.65c32.28-20.89,65.96-41.23,92.07-68.61c45.99-48.22,66.66-113.64,64.08-178.7
						c-2.59-65.46-28.14-130.95-73.3-184.12c-48.24-56.79-115.93-98.66-188.82-123.28c-74.1-25.03-153.89-32.52-230.03-22.12
						c-76.99,10.52-150.91,40.26-204.89,90.22c-54.71,50.64-89.47,121.5-85.29,195.35c2.12,37.39,14.31,74.07,28.97,109.43
						c14.72,35.53,31.5,70.38,45.54,106.14c25.88,65.91,43.88,133.12,52.4,201.93c2.36,19.13,4.13,38.27,5.48,57.43
						c0.45,6.36,11.53,0.02,11.2-4.7c-4.94-70.26-16.6-140.07-39.08-208.38c-11.12-33.78-24.29-67.1-38.78-99.95
						c-15.4-34.93-32-69.64-43.04-105.8c-10.9-35.72-15-72.36-8.71-108.31c6.13-35.05,20.7-68.3,41.73-97.47
						c41.86-58.07,107.56-97.15,181.23-116.02c72.83-18.66,152.29-18.91,227.57-1.59c74.27,17.09,145.43,51.01,201.04,100.89
						c52.92,47.46,88.64,108.38,100.91,173.9c11.7,62.45,2.9,128.5-32.11,181.59c-19.51,29.6-46.88,52.08-77.15,72.35
						c-16.12,10.8-32.68,21.05-48.83,31.83c-15.83,10.57-30.79,22-45.64,33.65c-59.86,46.93-117.76,97.48-156.11,161.41
						c-9.4,15.67-17.47,32.01-24.2,48.88C1101.55,1049.77,1112.52,1047.59,1114.52,1042.55L1114.52,1042.55z"/>
				</g>
			</g>
			<g>
				<g>
					<path class="st12" d="M849.96,999.06c1.68,7.39,8.56,13.37,14.96,17.8c10.62,7.34,22.8,12.73,34.93,17.44
						c37.4,14.52,77.24,23.49,116.55,31.12c12.1,2.35,24.22,4.53,36.36,6.56c11.21,1.88,23.18,4.89,34.5,4.47
						c9.3-0.35,18.47-2.87,25.03-8.81c6.89-6.22,9.09-15.35,5.29-23.96c-4.03-9.12-12.83-16.63-21.1-22.71
						c-9.39-6.89-19.85-12.52-30.6-17.33c-22.92-10.24-47.37-17.82-71.86-23.52c-27.44-6.4-55.48-10.27-83.48-11.4
						c-12.94-0.53-27.66-1.85-39.94,1.8c-10.96,3.27-20.72,11.98-20.39,23.22c0.09,2.97,3.61,3.03,5.8,2.19
						c2.76-1.06,5.48-3.97,5.4-6.88c-0.28-9.38,12.45-10.22,20.24-10.42c11.32-0.28,22.73,0.11,34.08,0.84
						c23.17,1.49,46.31,4.83,69.05,10.03c21.76,4.98,43.26,11.55,63.95,19.85c19.27,7.74,39.48,17.79,52.89,33.25
						c4.24,4.89,10.43,14.62,4.4,19.86c-5.24,4.55-15.44,4.23-22.27,3.39c-22.15-2.72-44.36-7.09-66.27-11.47
						c-35.79-7.16-71.86-15.54-106.12-28.34c-12.24-4.57-24.72-9.69-35.56-16.84c-6.6-4.36-13.5-9.69-15.16-17.02
						c-0.67-2.94-5.53-1.26-6.99-0.34C851.13,993.44,849.3,996.13,849.96,999.06L849.96,999.06z"/>
				</g>
			</g>
			<g>
				<g>
					<path class="st12" d="M856.38,998.5c-22.2,4.6-31.76,28.75-20.94,47.08c13.53,22.93,43.71,29.82,68.71,36.21
						c29.53,7.54,59.44,13.38,89.42,18.58c15.26,2.65,30.54,5.12,45.82,7.56c12.44,1.99,25.07,4.38,37.51,2.65
						c12.09-1.68,21.23-8.06,27.25-17.44c4.92-7.66,8.99-18.74,3.66-27.58c-3.09-5.12-13.31,2.57-10.72,6.87
						c3.65,6.05,1.6,13.19-1.8,18.63c-4.07,6.48-9.85,9.13-18.13,9.81c-10.77,0.88-21.93-1.44-32.62-3.14
						c-12.89-2.06-25.77-4.14-38.64-6.33c-25.92-4.41-51.79-9.27-77.41-15.27c-12.27-2.87-24.52-5.95-36.63-9.47
						c-11.4-3.31-23.12-7.26-32.67-14.22c-8.69-6.34-16.28-15.45-17.22-25.66c-0.73-7.92,3-16.46,11.96-18.32
						c3.06-0.64,6.1-3.24,6.69-6.1C861.16,999.77,859.31,997.89,856.38,998.5L856.38,998.5z"/>
				</g>
			</g>
			<g>
				<g>
					<path class="st12" d="M836.78,1048.21c-6.03,7.59-10.11,16.77-12.44,25.99c-2.22,8.8-2.36,17.54,3.15,25.77
						c14.69,21.93,46.81,23.9,71.16,28.19c29.41,5.19,58.81,10.38,88.22,15.57c14.41,2.54,28.8,5.09,43.21,7.63
						c11.88,2.1,24.59,5.34,36.46,3.05c26.08-5.03,28.95-32.89,26.07-53.38c-0.91-6.43-11.86-0.01-11.2,4.7
						c1.2,8.5,1.63,17.28-0.38,25.55c-1.92,7.88-5.93,12.9-15.26,13.6c-10.61,0.79-21.87-2.19-32.34-4.04
						c-13.2-2.33-26.4-4.66-39.6-6.99c-25.8-4.55-51.61-9.11-77.41-13.66c-13.02-2.3-26.11-4.37-39.07-6.97
						c-11.39-2.29-23.18-5.54-32.2-12.9c-7.89-6.42-12.27-14.61-10.8-23.94c1.41-8.91,5.03-18.02,10.74-25.21
						c1.38-1.73,2.52-5.13-0.38-6.36C841.8,1043.57,838.22,1046.4,836.78,1048.21L836.78,1048.21z"/>
				</g>
			</g>
			<g>
				<g>
					<path class="st12" d="M832.63,1094.71c-13.7,10.01-18.22,29.88-14.09,45.61c5.69,21.65,37.35,25.07,56.83,28.32
						c30.54,5.09,61.09,10.17,91.63,15.26c15.12,2.52,30.24,5.04,45.36,7.55c12.28,2.04,24.91,4.86,37.28,3.73
						c12.81-1.17,23.32-7.17,28.57-17.82c4.97-10.1,5.68-22.25,3.45-33.36c-1.29-6.44-12.14,0.02-11.2,4.7
						c1.72,8.59,1.85,17.88-1.2,26.03c-1.03,2.74-2.49,5.81-5.19,7.47c-3.71,2.27-8.88,2.93-13.36,3.06
						c-11.06,0.32-22.29-2.17-33.21-3.99c-13.01-2.17-26-4.33-39.01-6.5c-26.32-4.38-52.62-8.77-78.93-13.15
						c-12.64-2.1-25.46-3.78-37.98-6.61c-9.92-2.25-22.17-5.83-28.73-13.77c-4.71-5.7-4.97-14.13-4.27-20.68
						c0.62-5.86,2.69-14.9,7.3-18.28c2.04-1.5,5.05-4.44,3.73-7.21C838.37,1092.42,834.39,1093.43,832.63,1094.71L832.63,1094.71z"
						/>
				</g>
			</g>
			<g>
				<g>
					<path class="st12" d="M828.69,1148.88c-14.5,9.15-15.1,30.48-0.32,40.97c9.04,6.41,20.21,9.07,30.85,11.96
						c12.62,3.42,25.26,6.85,37.88,10.27c25.26,6.85,50.51,13.7,75.77,20.55c21.67,5.87,45.31,14.4,67.02,7.04
						c10.23-3.47,18.84-10.6,22.8-19.94c4.59-10.83,3.77-22.69,0.95-34.17c-0.72-2.93-5.5-1.28-6.99-0.34
						c-2.52,1.57-4.44,4.29-3.73,7.21c2.1,8.58,3.14,18.27,0,26.51c-2.46,6.45-8,10.32-15.13,12.14
						c-19.02,4.86-40.6-3.65-59.16-8.69c-20.85-5.65-41.71-11.31-62.55-16.96c-20.61-5.59-41.54-10.57-61.93-16.92
						c-8.58-2.67-19.45-6.71-23.47-14.86c-2.28-4.64-3.91-13.94,1.27-17.21c2.14-1.34,5-4.54,3.73-7.21
						C834.38,1146.48,830.53,1147.72,828.69,1148.88L828.69,1148.88z"/>
				</g>
			</g>
			<g>
				<g>
					<path class="st12" d="M847.4,1198.18c0.85,14.5,5.5,28.7,15.98,40.36c9.12,10.14,21.76,17.26,34.69,22.48
						c27.08,10.92,57.62,15.49,85.16,6.86c16.49-5.17,30.01-15.24,37.92-29.36c1.2-2.13,0.65-4.97-2.41-5.28
						c-3.25-0.33-6.27,2.64-7.55,4.92c-11.86,21.17-41.27,25.83-65.81,23.5c-12.8-1.21-25.19-4.79-37.18-9.38
						c-11.77-4.51-23.09-10.39-32.04-18.95c-11.55-11.05-16.71-25.2-17.56-39.84C858.24,1187.15,847.13,1193.47,847.4,1198.18
						L847.4,1198.18z"/>
				</g>
			</g>
			<g>
				<path class="st13" d="M900.03,1257.12c-3.8,9.75,5.24,27.47,19.69,29.8c11.48,1.86,30.32-4.91,34.46-15.39"/>
				<g>
					<path class="st12" d="M894.56,1258.24c-4.55,13.16,6.47,31.05,21.99,33.68c16.13,2.74,36.65-6.67,42.62-20.2
						c0.96-2.18,0.81-4.95-2.41-5.28c-3.05-0.31-6.52,2.59-7.55,4.92c-3.72,8.44-19.25,12.88-28.65,9.98
						c-10.3-3.18-18.26-16.07-15.06-25.33c0.91-2.64-1.62-4.27-4.24-3.86C897.96,1252.66,895.51,1255.51,894.56,1258.24
						L894.56,1258.24z"/>
				</g>
			</g>
		</g>
		<g id="Ebene_8">
			<g class="st14">
				<path class="st15" d="M878.56,975.43c-11.95-0.96-18.33,13.74-12.99,23.74c5.34,10,17.19,15.62,28.3,20.18
					c47.49,19.47,97.51,33.29,148.29,40.99c23.97,3.64,49.99,5.58,70.21-5.39c-81.57-9.2-178.34-19.56-232.58-76.11"/>
				<g>
					<path class="st15" d="M881.14,970.34c-16.29-0.72-26.58,16.73-21.88,30.06c2.79,7.94,10.55,13.72,18.11,17.91
						c9.73,5.4,20.64,9.2,31.08,13.11c44.84,16.78,92.16,29.21,139.67,35.22c21.97,2.78,45.31,2.94,64.46-7.15
						c2.57-1.35,9.42-8.84,2.37-9.64c-63.4-7.15-131.72-13.32-188.88-44.17c-15.49-8.36-29.59-18.81-41.54-31.15
						c-3.75-3.87-13.36,4.6-9.47,8.62c45.1,46.6,115.55,61.27,178.65,70.09c18.66,2.61,37.38,4.7,56.09,6.81
						c0.79-3.21,1.59-6.42,2.37-9.64c-14.64,7.72-31.86,8.5-48.84,7.08c-20-1.66-40.06-5.58-59.7-9.91
						c-20.73-4.57-41.24-10.17-61.42-16.75c-10.23-3.34-20.37-6.92-30.42-10.77c-8.85-3.39-17.97-6.68-26.28-11.19
						c-7.12-3.87-15.18-10.07-16.14-17.98c-0.55-4.55,0.6-10.63,6.61-10.36C881.12,980.76,888.12,970.64,881.14,970.34
						L881.14,970.34z"/>
				</g>
			</g>
			<g class="st14">
				<path class="st15" d="M851.27,1012.09c-11.58,6.44-10.43,23.45-1.25,33.4c9.18,9.95,23.35,14.53,36.79,18.43
					c56.84,16.49,114.77,29.27,173.18,38.24c15.01,2.31,33.79,2.82,40.69-9.07c-41.45,1.95-221.83-17.63-248.22-83.95"/>
				<g>
					<path class="st15" d="M849.64,1008.31c-14.9,8.94-16.02,28.65-4.36,41.5c6.72,7.39,16.62,12.04,26.19,15.38
						c11.27,3.94,22.95,6.92,34.48,10.05c48.68,13.2,98.09,23.7,147.85,31.47c19.45,3.04,41.25,3.63,51.85-13.44
						c1.11-1.79,0.77-5.42-2.41-5.28c-12.43,0.56-25.09-0.38-37.56-1.47c-18.74-1.63-37.46-4.14-56.04-7.4
						c-39.35-6.92-81.08-16.9-115.76-37.02c-15.23-8.83-29.7-20.72-36.07-36.39c-2.13-5.22-12.63,2.19-10.72,6.87
						c12.75,31.38,52.65,48.31,84.47,58.92c39.14,13.05,80.56,20.43,121.43,24.53c14.93,1.5,30.18,2.84,45.1,2.17
						c-0.8-1.76-1.6-3.52-2.41-5.28c-2.71,4.37-9.97,5.2-15.03,5.41c-7.87,0.33-15.71-0.87-23.53-2.1
						c-21.87-3.45-43.67-7.45-65.37-11.98c-21.2-4.43-42.29-9.36-63.26-14.79c-10.63-2.75-21.23-5.63-31.79-8.64
						c-9.06-2.58-18.29-5.07-26.84-9.03c-8.42-3.91-16.38-9.69-19.71-17.97c-2.31-5.7-3.34-14.31,2.72-17.94
						c2.16-1.3,4.98-4.58,3.73-7.21C855.31,1005.89,851.49,1007.2,849.64,1008.31L849.64,1008.31z"/>
				</g>
			</g>
			<g class="st14">
				<path class="st15" d="M841.37,1059.67c-14.15,5.04-13.71,25.17-2.82,35.72c10.89,10.55,27.35,13.93,42.67,16.76
					c52.84,9.73,105.68,19.46,158.52,29.19c15.85,2.91,35.26,4.71,44.38-6.82c-68.35-6.69-223.21-20.44-238.68-80.34"/>
				<g>
					<path class="st15" d="M841.16,1055.14c-15.49,6.06-20.27,23.89-12.53,37.73c9.75,17.43,33.83,21.4,52.43,24.83
						c50.74,9.35,101.48,18.68,152.22,28.03c19.75,3.64,41.83,6,55-9.72c1.74-2.08,2.47-6.19-1.57-6.59
						c-35.05-3.43-70.1-7-104.88-13.16c-19.08-3.38-38.1-7.54-56.66-13.19c-16.06-4.88-32.35-10.85-46.52-19.7
						c-12.87-8.03-24.07-18.63-27.81-32.62c-1.37-5.12-12.01,2.04-10.72,6.87c7.53,28.14,41.8,43.35,68.87,52.45
						c37.64,12.66,77.55,18.81,116.75,23.63c18.6,2.28,37.22,4.11,55.84,5.93c-0.52-2.2-1.05-4.39-1.57-6.59
						c-3.7,4.41-10.72,5.28-16.59,5.37c-8.18,0.13-16.32-1.3-24.38-2.78c-21.61-3.98-43.24-7.96-64.85-11.94
						c-21.92-4.03-43.84-8.08-65.75-12.11c-10.3-1.9-20.63-3.65-30.89-5.75c-8.82-1.81-17.89-4.08-25.77-8.47
						c-7.5-4.17-13.34-10.35-15.09-18.23c-1.17-5.27-1.05-12.59,4.91-14.92c2.66-1.03,5.68-4,5.4-6.88
						C846.67,1054.37,843.5,1054.23,841.16,1055.14L841.16,1055.14z"/>
				</g>
			</g>
			<g class="st14">
				<path class="st15" d="M833.32,1110.29c-9.33,7.21-8.6,21.72-0.85,31.1c7.75,9.37,20.6,14.23,33.11,16.04
					c12.5,1.81,25.12,1.06,37.69,1.73c28.97,1.54,57.17,10.56,85.66,16.73c28.49,6.18,59.06,9.39,85.37-0.34
					c-54.45-4.71-198.75-14.74-240.79-66.29"/>
				<g>
					<path class="st15" d="M830.32,1107.56c-12.52,10.38-12.21,28.93-0.2,40.72c13.98,13.72,35.63,15.3,54.27,15.59
						c10.96,0.16,21.8,0.48,32.73,2.01c11.42,1.59,22.69,4.1,33.92,6.78c20.13,4.81,40.19,10.23,60.74,12.75
						c21.41,2.63,42.98,1.79,62.72-5.33c3.02-1.09,9.08-9.05,2.37-9.64c-31-2.68-62-5.39-92.85-10.01
						c-35.65-5.36-72.36-12.59-105.46-27.34c-15.23-6.79-29.95-15.59-40.32-28.14c-3.31-3.99-13.04,4.29-9.47,8.62
						c19.91,24.09,54.86,35.91,84.99,43.97c36.07,9.65,73.27,14.89,110.23,18.76c15.9,1.66,31.82,2.97,47.73,4.35
						c0.79-3.21,1.59-6.42,2.37-9.64c-33.26,11.99-71.22,2.7-105.29-5.64c-19.03-4.66-38.23-9.34-57.76-10.97
						c-18.54-1.55-38.02,1.2-55.96-5.39c-8.4-3.09-16.66-8.36-20.51-16.12c-3.17-6.38-4.08-15.04,1.77-19.88
						c1.72-1.42,3.95-5.02,1.73-7.05C835.73,1103.87,831.99,1106.19,830.32,1107.56L830.32,1107.56z"/>
				</g>
			</g>
			<g class="st14">
				<path class="st15" d="M832.34,1153.12c-7.73,8.28-3.48,22.28,5.76,30.08c9.23,7.79,21.81,10.95,33.82,13.83
					c42.25,10.13,84.49,20.25,126.74,30.38c20.22,4.85,44.03,9.04,59.1-3.07c-78.95-3.63-166.97-21.87-227.43-71.68"/>
				<g>
					<path class="st15" d="M828.2,1151.63c-9.91,11.47-5.16,28.53,7.55,37.73c7.33,5.31,16.07,8.35,24.87,10.67
						c10.19,2.7,20.5,4.98,30.75,7.44c21.12,5.07,42.25,10.13,63.36,15.19c19,4.55,38.05,10,57.33,13.17
						c17.73,2.91,35.04,1.79,48.7-8.77c2.17-1.68,4.6-7.59-0.43-7.83c-61.88-2.91-126.03-13.86-181.72-42.47
						c-15.57-8.01-30.2-17.48-43.55-28.42c-4.36-3.56-13.72,5.14-9.47,8.62c48.82,39.94,112.85,59.1,175.42,67.62
						c18.01,2.45,36.09,4,54.17,4.85c-0.15-2.61-0.28-5.22-0.43-7.83c-9.44,7.29-24.5,6.05-36.25,4.23
						c-16.81-2.6-33.45-7.47-49.99-11.44c-18.74-4.49-37.49-8.98-56.23-13.48c-9.52-2.29-19.04-4.56-28.56-6.85
						c-8.2-1.97-16.54-3.71-24.52-6.48c-8.29-2.89-16.74-7.17-21.45-14.38c-3.66-5.61-5.78-13.35-1.25-18.6
						c1.46-1.69,2.46-5.15-0.38-6.36C833.15,1146.97,829.72,1149.86,828.2,1151.63L828.2,1151.63z"/>
				</g>
			</g>
			<g class="st14">
				<path class="st15" d="M854.79,1201.06c11.29,23.62,33.13,43.32,59.17,53.35c26.04,10.04,55.95,10.3,81.04,0.7
					c-48.58-5.5-95.89-25.7-132.58-56.61"/>
				<g>
					<path class="st15" d="M849.43,1204.49c11.62,23.87,33.11,43.74,59.42,54.28c27.86,11.16,59.44,10.95,86.35,0.88
						c3.09-1.16,9.06-8.85,2.37-9.63c-47.96-5.59-94.09-25.43-130.42-55.82c-4.3-3.6-13.69,5.09-9.47,8.62
						c37.6,31.46,85.15,51.62,134.74,57.4c0.79-3.21,1.59-6.42,2.37-9.64c-24.89,9.31-54.3,8.45-79.75-2.12
						c-24.27-10.08-44.11-28.68-54.89-50.83C857.61,1192.41,847.22,1199.95,849.43,1204.49L849.43,1204.49z"/>
				</g>
			</g>
			<g class="st14">
				<path class="st15" d="M902.67,1258.75c-0.18,8.62,5.1,17.42,13.29,22.16c8.19,4.75,18.98,5.23,27.14,1.24
					c-14.44-4.98-26.9-15.12-34.01-27.67"/>
				<g>
					<path class="st15" d="M897.08,1261.1c0.07,9.62,5.46,19.07,14.64,24.42c9.72,5.66,21.91,5.6,31.6,1.17
						c2.41-1.1,8.85-7.52,3.57-9.41c-13.81-4.95-25.4-14.21-32.42-26.22c-3.01-5.14-13.26,2.53-10.72,6.87
						c7.76,13.28,20.28,23.62,35.61,29.12c1.19-3.14,2.38-6.27,3.57-9.41c-15.9,7.26-34.52-5.37-34.64-21.22
						c-0.02-2.97-3.65-3.01-5.8-2.19C899.67,1255.3,897.05,1258.17,897.08,1261.1L897.08,1261.1z"/>
				</g>
			</g>
		</g>
		<g id="Ebene_4_1_">
			<g>
				<g>
					<path class="st12" d="M880.59,977.58c49.94-37.73,99.05-76.37,146.26-116.86c47.36-40.62,92.86-83.1,135.07-128.23
						c41.7-44.59,81.26-91.67,114.06-142.32c16.43-25.38,31.4-54.3,29.23-85.32c-1.63-23.42-14.46-48.6-36.69-62.4
						c-23.34-14.49-51.11-12.18-73.27,0.28c-26.14,14.7-39.89,41-46.48,67.87c-1.81,7.36-3.12,14.83-4.23,22.33
						c-1.04,7.02,8.93,2.81,10.45-0.94c10.51-26,21.68-53.86,15.28-82.69c-5.21-23.51-22.35-45.37-49.25-50.89
						c-26.79-5.5-54.08,3.89-73.77,19c-21.31,16.36-35.33,39.08-43.12,63.57c-17.43,54.76-1.63,114.24,10.35,169.95
						c12.77,59.37,26.81,118.57,39.49,177.95c12.62,59.11,24.05,118.45,31.11,178.07c0.85,7.22,1.63,14.44,2.36,21.66
						c0.64,6.39,11.67,0.02,11.2-4.7c-5.63-56.67-15.63-113.12-27.11-169.32c-11.58-56.68-24.76-113.15-37.36-169.68
						c-6.18-27.73-12.31-55.5-17.84-83.32c-5.62-28.26-10.04-56.93-8.25-85.35c2.86-45.28,26.8-99.48,80.85-108.28
						c12.19-1.99,25.19-0.98,36.8,4.06c11.48,4.98,20.55,13.88,26.31,24.11c13.64,24.22,9.29,50.86,0.95,74.85
						c-2.42,6.97-5.2,13.81-7.96,20.66c3.48-0.32,6.96-0.63,10.45-0.94c3.92-26.52,10.77-55.24,32.94-73.58
						c17.91-14.81,44.46-19.76,67.2-7.97c22.33,11.58,35.86,35.75,38.18,57.99c3.05,29.23-11.04,56.88-26.56,80.73
						c-31.31,48.15-68.63,93.23-108.18,135.8c-39.75,42.8-82.5,83.21-126.99,121.9c-44.35,38.57-90.46,75.46-137.48,111.34
						c-5.75,4.39-11.52,8.76-17.29,13.12c-2.02,1.53-5.07,4.42-3.73,7.21C874.84,979.85,878.85,978.89,880.59,977.58L880.59,977.58z
						"/>
				</g>
			</g>
			<g>
				<g>
					<path class="st12" d="M1372.16,411.71c34.76,42.68,49.07,97.77,38.31,148.06c-0.57,2.65,1.38,4.31,4.24,3.86
						c3.02-0.48,6.11-3.37,6.69-6.1c11.27-52.69-3.36-109.72-39.77-154.45C1378.37,399.07,1368.61,407.35,1372.16,411.71
						L1372.16,411.71z"/>
				</g>
			</g>
			<g>
				<g>
					<path class="st12" d="M810.31,468.12c-15.97,43.91-16.02,92.9-0.73,138.51c4.37,13.03,10.03,25.72,16.87,37.94
						c2.89,5.17,13.18-2.47,10.72-6.87c-23.39-41.78-32.53-89.37-25.55-134.49c1.97-12.74,5.21-25.22,9.61-37.33
						c0.96-2.64-1.65-4.28-4.24-3.86C813.66,462.55,811.3,465.39,810.31,468.12L810.31,468.12z"/>
				</g>
			</g>
		</g>
	</g>
	<g>
		<g>
			<path class="st16" d="M1266.93,990.8c11.41,19.03,22.82,38.05,34.23,57.08c6.73,11.21,22.77,16.34,34.2,8.97
				c11.28-7.27,16.17-22.2,8.97-34.2c-11.41-19.03-22.82-38.05-34.23-57.08c-6.73-11.21-22.77-16.34-34.2-8.97
				C1264.62,963.87,1259.73,978.8,1266.93,990.8L1266.93,990.8z"/>
		</g>
	</g>
	<g>
		<g>
			<path class="st16" d="M1423.08,870.7c9.33,16.01,18.66,32.01,27.98,48.02c6.59,11.3,22.87,16.28,34.2,8.97
				c11.39-7.35,16.02-22.11,8.97-34.2c-9.33-16.01-18.66-32.01-27.98-48.02c-6.59-11.3-22.87-16.28-34.2-8.97
				C1420.66,843.84,1416.04,858.61,1423.08,870.7L1423.08,870.7z"/>
		</g>
	</g>
	<g>
		<g>
			<path class="st16" d="M1535.47,691.32c12.02,10.65,24.05,21.29,36.07,31.94c9.79,8.67,25.84,10.36,35.36,0
				c8.7-9.48,10.46-26.1,0-35.36c-12.02-10.65-24.05-21.29-36.07-31.94c-9.79-8.67-25.84-10.36-35.36,0
				C1526.77,665.44,1525.01,682.06,1535.47,691.32L1535.47,691.32z"/>
		</g>
	</g>
	<g>
		<g>
			<path class="st16" d="M1573.51,483.48c12-5.33,24-10.67,36.01-16c5.36-2.38,10-9.54,11.49-14.94c1.65-5.98,0.9-13.95-2.52-19.26
				c-3.44-5.34-8.57-10.04-14.94-11.49c-6.96-1.58-12.79-0.36-19.26,2.52c-12,5.33-24,10.67-36.01,16
				c-5.36,2.38-10,9.54-11.49,14.94c-1.65,5.98-0.9,13.95,2.52,19.26c3.44,5.34,8.57,10.04,14.94,11.49
				C1561.2,487.58,1567.03,486.36,1573.51,483.48L1573.51,483.48z"/>
		</g>
	</g>
	<g>
		<g>
			<path class="st16" d="M1498.79,307.76c14.46-14.88,28.91-29.76,43.37-44.63c9.12-9.39,10.05-26.13,0-35.36
				c-9.86-9.05-25.62-10.02-35.36,0c-14.46,14.88-28.91,29.76-43.37,44.63c-9.12,9.39-10.05,26.13,0,35.36
				C1473.3,316.82,1489.05,317.79,1498.79,307.76L1498.79,307.76z"/>
		</g>
	</g>
	<g>
		<g>
			<path class="st16" d="M1353.8,174.1c6.63-12.02,13.27-24.04,19.9-36.06c6.32-11.45,3.17-27.79-8.97-34.2
				c-11.74-6.2-27.46-3.26-34.2,8.97c-6.63,12.02-13.27,24.04-19.9,36.06c-6.32,11.45-3.17,27.79,8.97,34.2
				C1331.33,189.27,1347.05,186.33,1353.8,174.1L1353.8,174.1z"/>
		</g>
	</g>
	<g>
		<g>
			<path class="st16" d="M1105.8,129.83c0-12,0-24,0-36.01c0-13.08-11.5-25.6-25-25c-13.55,0.61-25,10.98-25,25c0,12,0,24,0,36.01
				c0,13.08,11.5,25.6,25,25C1094.34,154.22,1105.8,143.84,1105.8,129.83L1105.8,129.83z"/>
		</g>
	</g>
	<g>
		<g>
			<path class="st16" d="M870.34,157.22c-4-9.34-8-18.67-12-28.01c-2.29-5.35-9.62-10.02-14.94-11.49
				c-5.98-1.65-13.95-0.9-19.26,2.52c-5.34,3.44-10.04,8.57-11.49,14.94c-1.59,7-0.28,12.73,2.52,19.26c4,9.34,8,18.67,12,28.01
				c2.29,5.35,9.62,10.02,14.94,11.49c5.98,1.65,13.95,0.9,19.26-2.52c5.34-3.44,10.04-8.57,11.49-14.94
				C874.45,169.48,873.14,163.75,870.34,157.22L870.34,157.22z"/>
		</g>
	</g>
	<g>
		<g>
			<path class="st16" d="M714.4,284.18c-8-9.34-16-18.67-24-28.01c-8.54-9.97-26.7-9.43-35.36,0c-9.74,10.61-9.11,24.73,0,35.36
				c8,9.34,16,18.67,24,28.01c8.54,9.97,26.7,9.43,35.36,0C724.14,308.93,723.51,294.81,714.4,284.18L714.4,284.18z"/>
		</g>
	</g>
	<g>
		<g>
			<path class="st16" d="M632.79,456.29c-10.67-1.33-21.34-2.66-32.01-3.99c-5.9-0.73-13.68,3.32-17.68,7.32
				c-4.34,4.34-7.6,11.45-7.32,17.68c0.29,6.47,2.41,13.17,7.32,17.68c5.21,4.79,10.71,6.45,17.68,7.32
				c10.67,1.33,21.34,2.66,32.01,3.99c5.9,0.73,13.68-3.32,17.68-7.32c4.34-4.34,7.6-11.45,7.32-17.68
				c-0.29-6.47-2.41-13.17-7.32-17.68C645.25,458.83,639.75,457.16,632.79,456.29L632.79,456.29z"/>
		</g>
	</g>
	<g>
		<g>
			<path class="st16" d="M684.1,660.35c-17.34,8-34.67,16-52.01,24c-11.91,5.5-15.8,23.61-8.97,34.2
				c7.92,12.28,21.46,14.85,34.2,8.97c17.34-8,34.67-16,52.01-24c11.91-5.5,15.8-23.61,8.97-34.2
				C710.39,657.04,696.85,654.47,684.1,660.35L684.1,660.35z"/>
		</g>
	</g>
	<g>
		<g>
			<path class="st16" d="M763.15,965.37c-4,5.33-8,10.67-12,16c-3.64,4.85-4.05,13.71-2.52,19.26c1.6,5.8,6.08,12.08,11.49,14.94
				c5.8,3.07,12.83,4.6,19.26,2.52c1.99-0.84,3.98-1.68,5.97-2.52c3.76-2.22,6.75-5.21,8.97-8.97c4-5.33,8-10.67,12-16
				c3.64-4.85,4.05-13.71,2.52-19.26c-1.6-5.8-6.08-12.08-11.49-14.94c-5.8-3.07-12.83-4.6-19.26-2.52
				c-1.99,0.84-3.98,1.68-5.97,2.52C768.36,958.63,765.38,961.62,763.15,965.37L763.15,965.37z"/>
		</g>
	</g>
</g>
</svg>
