<?xml version="1.0" encoding="utf-8"?>
<!-- Generator: Adobe Adobe Illustrator 24.2.0, SVG Export Plug-In . SVG Version: 6.00 Build 0)  -->
<svg version="1.1" xmlns="http://www.w3.org/2000/svg" xmlns:xlink="http://www.w3.org/1999/xlink" x="0px" y="0px"
	 viewBox="0 0 1700.79 1700.79" style="enable-background:new 0 0 1700.79 1700.79;" xml:space="preserve">
<style type="text/css">
	.st0{display:none;}
	.st1{stroke:#000000;stroke-width:1.2421;stroke-miterlimit:10;}
	.st2{stroke:#000000;stroke-width:1.2417;stroke-miterlimit:10;}
	.st3{fill:#FFFFFF;stroke:#FFFFFF;stroke-width:1.06;stroke-miterlimit:10;}
	.st4{fill:#FFFFFF;stroke:#FFFFFF;stroke-width:1.0139;stroke-miterlimit:10;}
	.st5{stroke:#000000;stroke-width:0.5238;stroke-miterlimit:10;}
	.st6{fill:#FFFFFF;stroke:#FFFFFF;stroke-width:0.138;stroke-miterlimit:10;}
	.st7{opacity:0.149;}
	.st8{fill:#F4F5E9;}
	.st9{fill:#F4F6E7;}
</style>
<g id="Ebene_4" class="st0">
</g>
<g id="Ebene_6">
	<g>
		<circle class="st1" cx="917.22" cy="1150.9" r="270"/>
		
			<ellipse transform="matrix(0.9847 -0.1742 0.1742 0.9847 -207.3295 99.7159)" class="st2" cx="464.41" cy="1231" rx="269.84" ry="270"/>
		
			<ellipse transform="matrix(0.9847 -0.1742 0.1742 0.9847 -202.2704 101.405)" class="st3" cx="476.56" cy="1203.02" rx="232.87" ry="227.99"/>
		
			<ellipse transform="matrix(0.9847 -0.1742 0.1742 0.9847 -181.0035 180.5121)" class="st4" cx="937.86" cy="1121.42" rx="215.46" ry="225.46"/>
		
			<ellipse transform="matrix(0.9847 -0.1742 0.1742 0.9847 -166.4827 189.1996)" class="st5" cx="994.61" cy="1043.04" rx="115" ry="112.73"/>
		
			<ellipse transform="matrix(0.9847 -0.1742 0.1742 0.9847 -187.5314 110.9043)" class="st5" cx="538.05" cy="1123.8" rx="115" ry="112.73"/>
		<circle class="st6" cx="1014.18" cy="981.42" r="30"/>
		<circle class="st6" cx="582.66" cy="1067.85" r="30"/>
		<g>
			<g>
				<path d="M1088.2,932.46c14.62-19.28,29.25-38.57,43.87-57.85c4.9-6.46,1.02-16.78-5.38-20.52c-7.7-4.5-15.61-1.09-20.52,5.38
					c-14.62,19.28-29.25,38.57-43.87,57.85c-4.9,6.46-1.02,16.78,5.38,20.52C1075.38,942.34,1083.29,938.94,1088.2,932.46
					L1088.2,932.46z"/>
			</g>
		</g>
		<g>
			<g>
				<path d="M1121.96,971.69c17.54-18.09,35.07-36.18,52.61-54.27c5.64-5.82,5.79-15.42,0-21.21c-5.68-5.68-15.56-5.84-21.21,0
					c-17.54,18.09-35.07,36.18-52.61,54.27c-5.64,5.82-5.79,15.42,0,21.21C1106.42,977.37,1116.3,977.53,1121.96,971.69
					L1121.96,971.69z"/>
			</g>
		</g>
		<g>
			<g>
				<path d="M1148.97,1012.82c23.81-16.29,47.62-32.58,71.43-48.88c6.68-4.57,9.68-13.18,5.38-20.52
					c-3.87-6.62-13.81-9.98-20.52-5.38c-23.81,16.29-47.62,32.59-71.43,48.88c-6.68,4.57-9.68,13.18-5.38,20.52
					C1132.32,1014.06,1142.25,1017.42,1148.97,1012.82L1148.97,1012.82z"/>
			</g>
		</g>
		<g>
			<g>
				<path d="M1169.77,1056.79c27-11.71,54.01-23.42,81.01-35.12c7.43-3.22,9.12-14.13,5.38-20.52c-4.49-7.68-13.06-8.62-20.52-5.38
					c-27,11.71-54.01,23.42-81.01,35.12c-7.43,3.22-9.12,14.13-5.38,20.52C1153.74,1059.09,1162.31,1060.03,1169.77,1056.79
					L1169.77,1056.79z"/>
			</g>
		</g>
		<g>
			<g>
				<path d="M291.47,1027.6c-17.44-20.01-34.87-40.01-52.31-60.02c-5.33-6.11-15.76-5.45-21.21,0c-6.06,6.06-5.34,15.09,0,21.21
					c17.44,20.01,34.87,40.01,52.31,60.02c5.33,6.11,15.76,5.45,21.21,0C297.53,1042.75,296.81,1033.73,291.47,1027.6L291.47,1027.6
					z"/>
			</g>
		</g>
		<g>
			<g>
				<path d="M246.23,1074.72c-22.26-13.24-44.53-26.47-66.79-39.71c-6.96-4.14-16.46-1.57-20.52,5.38
					c-4.13,7.06-1.6,16.37,5.38,20.52c22.26,13.24,44.53,26.47,66.79,39.71c6.96,4.14,16.46,1.57,20.52-5.38
					C255.74,1088.18,253.22,1078.87,246.23,1074.72L246.23,1074.72z"/>
			</g>
		</g>
		<g>
			<g>
				<path d="M213.54,1132.71c-25.46-5.68-50.93-11.35-76.39-17.03c-7.64-1.7-16.59,2.31-18.45,10.48
					c-1.73,7.6,2.29,16.63,10.48,18.45c25.46,5.68,50.93,11.35,76.39,17.03c7.64,1.7,16.59-2.31,18.45-10.48
					C225.74,1143.56,221.73,1134.53,213.54,1132.71L213.54,1132.71z"/>
			</g>
		</g>
		<g>
			<g>
				<path d="M197.62,1201.64c-19.77,0.78-39.54,1.56-59.3,2.35c-7.83,0.31-15.37,6.68-15,15c0.35,7.86,6.6,15.33,15,15
					c19.77-0.78,39.54-1.56,59.3-2.35c7.83-0.31,15.37-6.68,15-15C212.26,1208.78,206.01,1201.31,197.62,1201.64L197.62,1201.64z"/>
			</g>
		</g>
		<g>
			<g>
				<path d="M124.36,1204.48c-0.88,0.16-1.75,0.31-2.63,0.47c-1.95,0.46-3.65,1.36-5.1,2.68c-1.63,1.06-2.92,2.46-3.86,4.21
					c-1.1,1.72-1.69,3.58-1.78,5.58c-0.45,1.99-0.36,3.99,0.27,5.98c0.5,1.19,1.01,2.39,1.51,3.58c1.33,2.25,3.13,4.05,5.38,5.38
					c1.19,0.5,2.39,1.01,3.58,1.51c2.66,0.71,5.32,0.71,7.98,0c0.88-0.16,1.75-0.31,2.63-0.47c1.95-0.46,3.65-1.36,5.1-2.68
					c1.63-1.06,2.92-2.46,3.86-4.21c1.1-1.72,1.69-3.58,1.78-5.58c0.45-1.99,0.36-3.99-0.27-5.98c-0.5-1.19-1.01-2.39-1.51-3.58
					c-1.33-2.25-3.13-4.05-5.38-5.38c-1.19-0.5-2.39-1.01-3.58-1.51C129.68,1203.76,127.02,1203.76,124.36,1204.48L124.36,1204.48z"
					/>
			</g>
		</g>
	</g>
	<g>
		<g id="Ebene_3_1_">
			<g class="st7">
				<g>
					<path d="M611.69,838.86c3.51,0,6.96-8.31,3.1-8.31C611.28,830.55,607.83,838.86,611.69,838.86L611.69,838.86z"/>
				</g>
			</g>
			<g class="st7">
				<path d="M605.58,832.78c4.07,64.97,8.14,129.95,12.21,194.92c60.69-47,121.4-93.99,182.09-140.99
					c33.84-26.2,65.79-67.36,109.66-65.05c45.47,2.4,98.26,1.95,141.7,4.24c104.69,5.52,186.45,0.03,290.32-14.26
					c31.78-4.37,80.58-33.55,104.29-55.3c28.89-26.49,32.05-55.43,34.79-94.68c10.63-152.15-15.84-304.88-57.21-451.61
					c-10.26-36.39-23.94-75.82-56.4-94.85c-28.74-16.85-64.55-13.05-97.45-8.11c-260.98,39.14-516.2,117.04-754.85,230.4
					c-26.33,12.51-54.25,27.18-67.19,53.44c-10.22,20.73-11.99,45.48-7.36,68.15c19.7,96.38,30.3,160.07,45.18,261.23
					c4.2,28.56,14.85,73.33,39.47,88.12c24.09,14.47,51.31,14.29,77.93,11.27c2.22,4.37,4.45,8.74,6.67,13.11"/>
				<g>
					<path d="M602.33,834.59c4.07,64.97,8.14,129.95,12.21,194.92c0.17,2.7,2.35,2.73,4.14,1.35
						c46.48-35.99,92.96-71.97,139.44-107.96c20.59-15.94,41.69-31.37,61.22-48.63c16.1-14.23,31.97-29.53,51.16-39.53
						c9.54-4.97,20-8.41,30.78-8.93c12.47-0.61,25.24,0.88,37.72,1.24c26.3,0.78,52.61,1.04,78.91,1.78
						c26.52,0.75,53,2.45,79.53,3.02c26.49,0.57,52.99,0.38,79.46-0.65c52.82-2.06,105.44-7.55,157.81-14.64
						c20.63-2.79,39.5-10.28,57.87-20.02c18.35-9.73,36.28-21.24,51.92-35.02c15.35-13.51,26.57-30.34,32.2-50.12
						c6.02-21.16,6.88-43.77,8.08-65.62c3.13-56.93,1.15-114.08-4.76-170.76c-5.82-55.82-15.39-111.21-27.64-165.96
						c-6.17-27.58-13.03-55.01-20.44-82.27c-6.18-22.73-12.2-45.76-22.19-67.17c-8.8-18.87-21.2-36.55-39.17-47.55
						c-20.78-12.73-45.81-14.47-69.52-12.71c-25.96,1.93-51.81,6.79-77.46,11.09c-26.97,4.54-53.89,9.49-80.71,14.85
						c-106.67,21.32-212.07,49.13-315.43,83.21c-103.03,33.97-204.05,74.14-302.3,120.3c-20.32,9.54-41.34,18.97-58.5,33.82
						c-17.32,14.99-27.8,35.29-30.99,58.02c-3.67,26.09,3.54,51.41,8.56,76.81c4.71,23.89,9.23,47.81,13.49,71.77
						c8.73,49.09,16.34,98.37,23.62,147.7c5.36,36.34,13.54,84.22,51.04,100.49c22.02,9.55,46.25,8.99,69.62,6.39
						c-0.68-0.22-1.35-0.44-2.03-0.65c2.22,4.37,4.45,8.74,6.67,13.11c1.71,3.36,7.21-3.7,5.6-6.87c-2.22-4.37-4.45-8.74-6.67-13.11
						c-0.39-0.76-1.37-0.73-2.03-0.65c-25.03,2.78-51.37,2.87-74.02-9.73C512.65,796.5,504,777.66,498.17,760
						c-6.49-19.67-9.31-40.05-12.35-60.46c-3.69-24.8-7.47-49.6-11.46-74.35c-7.52-46.67-15.93-93.18-25.14-139.55
						c-5.11-25.75-11.79-50.99-5.19-77.17c5.87-23.29,21.4-39.54,41.34-51.77c20.38-12.49,42.78-21.9,64.46-31.82
						c24.03-10.99,48.21-21.62,72.54-31.9c49.58-20.93,99.79-40.35,150.53-58.25c99.61-35.14,201.25-64.43,304.25-87.65
						c52.13-11.75,104.6-21.94,157.32-30.56c25.04-4.09,50.47-9.09,75.91-9.48c23.49-0.36,46.99,4.4,65.42,19.87
						c16.32,13.7,26.59,33.49,34.03,53.18c8.66,22.9,14.59,46.92,20.78,70.58c14.05,53.7,25.87,108.02,34.41,162.89
						c8.53,54.72,13.74,110.01,14.59,165.41c0.43,27.84-0.26,55.69-2.16,83.47c-1.42,20.65-2.71,42.19-11.07,61.4
						c-8.06,18.51-23.06,31.92-39.03,43.49c-17.49,12.68-36.6,23.77-56.59,31.92c-21.19,8.64-43.68,10.42-66.2,13.17
						c-26.25,3.2-52.55,5.9-78.91,7.84c-51.46,3.78-103.07,4.44-154.62,2.3c-50.92-2.11-101.91-2.41-152.8-4.74
						c-10.61-0.48-20.71-0.53-31.01,2.49c-9.14,2.68-17.77,6.97-25.81,12.08c-17.88,11.36-33.13,26.25-49.08,40.08
						c-20.01,17.35-41.64,32.94-62.57,49.14c-22.42,17.36-44.84,34.72-67.26,52.07c-21.87,16.94-43.74,33.87-65.62,50.81
						c1.38,0.45,2.76,0.9,4.14,1.35c-4.07-64.97-8.14-129.95-12.21-194.92C608.5,825.59,602.11,831.1,602.33,834.59L602.33,834.59z"
						/>
				</g>
			</g>
			<g class="st7">
				<g>
					<path d="M1423.4,991.16c3.51,0,6.96-8.31,3.1-8.31C1422.99,982.85,1419.54,991.16,1423.4,991.16L1423.4,991.16z"/>
				</g>
			</g>
		</g>
		<g id="Ebene_3_Kopie">
			<g>
				<g>
					<path class="st8" d="M632.75,810.99c3.51,0,6.96-8.31,3.1-8.31C632.34,802.68,628.9,810.99,632.75,810.99L632.75,810.99z"/>
				</g>
			</g>
			<g>
				<path class="st9" d="M626.65,804.91c4.07,64.97,8.14,129.95,12.21,194.92c60.69-47,121.4-93.99,182.09-140.99
					c33.84-26.2,65.79-67.36,109.66-65.05c45.47,2.4,98.26,1.95,141.7,4.24c104.69,5.52,186.45,0.03,290.32-14.26
					c31.78-4.37,80.58-33.55,104.29-55.3c28.89-26.49,32.05-55.43,34.79-94.68c10.63-152.15-15.84-304.88-57.21-451.61
					c-10.26-36.39-23.94-75.82-56.4-94.85c-28.74-16.85-64.55-13.05-97.45-8.11c-260.98,39.14-516.2,117.04-754.85,230.4
					c-26.33,12.51-54.25,27.18-67.19,53.44c-10.22,20.73-11.99,45.48-7.36,68.15c19.7,96.38,30.3,160.07,45.18,261.23
					c4.2,28.56,19.14,67.76,39.47,88.12c20.33,20.35,55.21,28.88,77.93,11.27c2.22,4.37,4.45,8.74,6.67,13.11"/>
				<g>
					<path class="st8" d="M623.4,806.73c4.07,64.97,8.14,129.95,12.21,194.92c0.17,2.7,2.35,2.73,4.14,1.35
						c46.48-35.99,92.96-71.97,139.44-107.96c21.01-16.26,42.47-32.02,62.37-49.66c16.05-14.23,32.01-29.45,51.3-39.17
						c9.4-4.73,19.68-7.89,30.22-8.3c12.24-0.48,24.73,0.92,36.98,1.28c26.91,0.79,53.83,1.05,80.73,1.82
						c26.56,0.77,53.08,2.47,79.64,3.01c26.76,0.54,53.53,0.3,80.27-0.81c52.93-2.18,105.64-7.78,158.11-14.94
						c20.44-2.79,39.62-11.3,57.64-21.12c17.83-9.72,35.34-21.06,50.47-34.71c15.41-13.9,26.14-31.21,31.51-51.33
						c5.78-21.69,6.49-44.91,7.62-67.22c2.89-56.94,0.7-114.08-5.39-170.74c-6.07-56.48-15.95-112.5-28.55-167.86
						c-6.27-27.56-13.21-54.95-20.7-82.2c-6.05-22.03-12.14-44.25-22.26-64.82c-9.37-19.05-22.86-36.52-41.86-46.55
						c-21.3-11.25-46.05-11.98-69.5-9.87c-26.73,2.41-53.34,7.35-79.78,11.86c-26.65,4.55-53.23,9.51-79.73,14.86
						c-107.27,21.67-213.23,49.92-317.1,84.5c-103.24,34.36-204.44,74.97-302.84,121.57c-19.96,9.45-40.48,19.47-56.26,35.37
						c-16.21,16.33-24.56,38.06-26.22,60.91c-0.93,12.84,0.68,25.32,3.23,37.86c2.7,13.24,5.34,26.49,7.93,39.76
						c4.62,23.64,9.03,47.32,13.19,71.05c4.16,23.71,8.07,47.47,11.81,71.25c4.1,26.1,7.33,52.39,11.91,78.41
						c3.74,21.25,11.27,42.28,21.82,61.05c10.42,18.53,24.86,34.22,45.28,41.31c18.19,6.31,37.91,5.19,53.64-6.59
						c-1.23,0.09-2.46,0.18-3.68,0.27c2.22,4.37,4.45,8.74,6.67,13.11c1.71,3.36,7.21-3.7,5.6-6.87c-2.22-4.37-4.45-8.74-6.67-13.11
						c-0.77-1.51-2.83-0.37-3.68,0.27c-17.2,12.89-41.05,9.78-58.86-0.1c-18.88-10.48-30.88-29.39-39.53-48.73
						c-9.25-20.67-13.76-41.92-17.07-64.22c-3.71-24.98-7.5-49.95-11.5-74.89c-7.52-46.89-15.92-93.63-25.15-140.21
						c-5.02-25.38-12.03-50.5-6.54-76.43c5.02-23.7,19.51-40.81,39.47-53.57c20.21-12.92,42.78-22.32,64.5-32.28
						c24.3-11.15,48.77-21.93,73.4-32.35c48.97-20.72,98.56-39.95,148.66-57.71c100.16-35.51,202.4-65.08,306.01-88.51
						c52.11-11.79,104.58-22.02,157.3-30.67c25.1-4.11,50.57-9.14,76.04-9.76c23.54-0.58,47.27,3.7,66.04,18.89
						c16.56,13.4,27.06,33.04,34.62,52.66c8.87,23.02,14.83,47.24,21.08,71.08c13.99,53.36,25.78,107.35,34.36,161.87
						c8.66,55.04,13.98,110.67,14.89,166.4c0.45,27.84-0.2,55.69-2.08,83.47c-1.39,20.53-2.61,41.92-10.6,61.13
						c-7.76,18.66-22.47,32.22-38.4,43.91c-17.52,12.86-36.73,24.05-56.79,32.37c-21.51,8.92-44.27,10.79-67.18,13.57
						c-25.94,3.16-51.94,5.84-78,7.77c-51.43,3.81-103.01,4.51-154.53,2.41c-25.69-1.05-51.34-2.22-77.06-2.74
						c-25.58-0.52-51.18-0.87-76.75-2.05c-10.36-0.47-20.24-0.55-30.32,2.3c-9.4,2.65-18.26,7.05-26.49,12.28
						c-17.88,11.34-33.13,26.25-49.08,40.08c-20.01,17.35-41.64,32.94-62.57,49.14c-22.42,17.36-44.84,34.72-67.26,52.07
						c-21.87,16.94-43.74,33.87-65.62,50.81c1.38,0.45,2.76,0.9,4.14,1.35c-4.07-64.97-8.14-129.95-12.21-194.92
						C629.56,797.72,623.18,803.24,623.4,806.73L623.4,806.73z"/>
				</g>
			</g>
			<g>
				<g>
					<path class="st8" d="M1444.47,963.29c3.51,0,6.96-8.31,3.1-8.31C1444.06,954.98,1440.61,963.29,1444.47,963.29L1444.47,963.29z
						"/>
				</g>
			</g>
		</g>
		<g id="Ebene_2_1_">
			<g>
				<g>
					<path d="M624.98,794.37c-17.68,2.09-36.13,3.24-53.58-1.1c-8.42-2.09-16.59-5.71-23.34-11.26
						c-7.61-6.25-13.26-15.07-17.86-23.7c-9.93-18.61-14.76-39.54-18.94-60.09c-4.9-24.09-9.54-48.24-14.3-72.37
						c-9.76-49.44-19.52-98.89-29.28-148.34c-8.05-40.8-19.25-89.84,8.68-125.72c12.03-15.46,28.73-26.4,45.82-35.41
						c19-10.02,38.95-18.26,58.69-26.65c43.71-18.59,88.04-35.7,132.77-51.63c88.9-31.65,179.4-58.55,270.52-82.9
						c90.98-24.32,182.6-46.11,274.27-67.6c22.14-5.19,44.36-11.45,66.93-14.39c21.36-2.79,43.5-1.14,61.84,11.22
						c32.58,21.97,44.84,65.48,56.51,100.89c29.71,90.2,48.59,184.01,56.09,278.75c3.6,45.51,5.22,91.59,2.78,137.21
						c-2.05,38.31-8.06,78.47-28.22,111.75c-21.09,34.81-56.69,53.93-95.12,63.27c-42.27,10.27-86.73,11.64-129.98,13.94
						c-92.4,4.9-184.91,4.08-277.37,2.03c-23.58-0.52-47.14-1.1-70.72-1.67c-3.51-0.08-7,8.22-3.1,8.31
						c96.45,2.32,192.96,4.96,289.43,2.07c47.31-1.42,94.87-3.41,141.95-8.49c39.55-4.27,80.4-12.66,113.21-36.63
						c68.32-49.92,68.6-146.8,67.19-223.29c-1.81-97.58-15.6-194.98-40.9-289.19c-6.41-23.88-13.57-47.56-21.46-70.99
						c-6.55-19.44-13.22-39.05-22.96-57.15c-8.64-16.06-20.16-31.19-35.93-40.69c-18.38-11.08-40-12.24-60.78-9.64
						c-23.21,2.91-46.06,9.4-68.8,14.74c-23.95,5.62-47.9,11.25-71.83,16.95c-47.57,11.32-95.08,22.89-142.45,35
						c-94.28,24.11-188.06,50.41-280.37,81.35c-46.22,15.49-92.07,32.14-137.36,50.23c-22.17,8.86-44.22,18.05-66.1,27.62
						c-18.97,8.3-38.15,16.55-55.6,27.82c-16.15,10.43-30.84,23.6-40.34,40.6c-10.42,18.64-13.54,40.12-12.73,61.27
						c0.87,22.47,5.68,44.58,10.02,66.57c5.02,25.41,10.03,50.82,15.05,76.23c9.85,49.89,18.8,100.06,29.7,149.73
						c4.48,20.4,10.34,40.95,21.47,58.79c10.14,16.26,23.94,26.45,42.68,30.41c17.17,3.63,35.04,2.35,52.34,0.31
						C626.8,802.15,629.65,793.82,624.98,794.37L624.98,794.37z"/>
				</g>
			</g>
			<g>
				<g>
					<path d="M620.52,754.9c1.62,32.48,2.94,64.97,4.25,97.47c1.4,34.76,2.75,69.52,4.23,104.27c0.75,17.52,1.52,35.03,2.4,52.55
						c0.09,1.76,1.61,3.1,3.32,1.93c41.76-28.67,82.66-58.61,122.56-89.85c41.11-32.19,81.21-65.76,119.52-101.28
						c20.46-18.97,40.38-38.53,59.53-58.85c1.19-1.27,2.34-4.21,1.14-5.79c-1.32-1.75-3.44-0.01-4.46,1.07
						c-34.26,36.34-71.09,70.2-109.02,102.6c-39.48,33.71-80.3,65.83-122.05,96.65c-22.17,16.37-44.63,32.36-67.34,47.96
						c1.11,0.64,2.21,1.28,3.32,1.93c-1.62-32.48-2.94-64.97-4.25-97.47c-1.4-34.76-2.75-69.52-4.23-104.27
						c-0.75-17.52-1.52-35.03-2.4-52.55c-0.1-1.98-1.58-2.79-3.32-1.93C621.89,750.24,620.42,752.87,620.52,754.9L620.52,754.9z"/>
				</g>
			</g>
			<g>
				<g>
					<path d="M1530.16,638.97c-2.15,37.89-16.16,74.94-39.36,104.83c-23.88,30.76-57.27,53.02-94.43,63.99
						c-21.2,6.27-43.33,8.83-65.38,7.45c-3.5-0.22-7.05,8.06-3.1,8.31c40.89,2.57,82.34-8.26,116.99-30.26
						c34.28-21.76,60.89-54.19,76.59-91.74c8.78-21.02,13.92-43.46,15.21-66.22c0.11-2.03-1.73-2.72-3.32-1.93
						C1531.37,634.39,1530.27,636.87,1530.16,638.97L1530.16,638.97z"/>
				</g>
			</g>
		</g>
		<g id="Ebene_4_1_">
			<g>
				<g>
					<path d="M779.47,309.41c-2.58,58.22-5.16,116.44-7.74,174.66c-2.58,58.22-5.16,116.44-7.74,174.66
						c-1.44,32.64-2.89,65.27-4.34,97.91c-0.19,4.34,17.84,4.76,18.05,0c2.58-58.22,5.16-116.44,7.74-174.66
						c2.58-58.22,5.16-116.44,7.74-174.66c1.44-32.64,2.89-65.27,4.34-97.91C797.71,305.07,779.68,304.66,779.47,309.41
						L779.47,309.41z"/>
				</g>
			</g>
			<g>
				<g>
					<path d="M1018.3,309.49c-4.06,57.93-8.11,115.85-12.16,173.77s-8.11,115.85-12.16,173.77c-2.28,32.58-4.56,65.17-6.84,97.75
						c-0.29,4.24,17.71,4.84,18.05,0c4.06-57.93,8.11-115.85,12.16-173.77c4.06-57.93,8.11-115.85,12.16-173.77
						c2.28-32.58,4.56-65.17,6.84-97.75C1036.64,305.26,1018.64,304.65,1018.3,309.49L1018.3,309.49z"/>
				</g>
			</g>
			<g>
				<g>
					<path d="M789.44,535.69c56.06-2.65,112.32-2.45,168.3,0.85c15.9,0.94,31.78,2.11,47.64,3.52c2.27,0.2,4.71,0.16,6.96-0.32
						c0.96-0.21,3.57-0.79,4.15-1.9c1.54-2.94-4.82-3.78-6.31-3.91c-57.31-5.08-114.88-7.17-172.4-6.17
						c-16.12,0.28-32.23,0.81-48.34,1.58c-2,0.1-8.86,0.05-9.03,3.18C780.26,535.42,788.02,535.75,789.44,535.69L789.44,535.69z"/>
				</g>
			</g>
			<g>
				<g>
					<path d="M1134.09,531.13c-3.57,60.24-7.15,120.48-10.72,180.72c-1,16.87-2,33.73-3,50.6c-0.25,4.28,17.77,4.81,18.05,0
						c3.57-60.24,7.15-120.48,10.72-180.72c1-16.87,2-33.73,3-50.6C1152.4,526.85,1134.37,526.32,1134.09,531.13L1134.09,531.13z"/>
				</g>
			</g>
			<g>
				<g>
					<path d="M1157.01,413.51c-8.22-8.54-24.06-8.43-34.16-3.67c-8.89,4.2-14.08,13.31-16.55,22.54c-2.3,8.58-2.02,17.88,1.74,26
						c4.11,8.89,12.83,14.05,22.17,15.72c21.01,3.76,43.02-5.04,53.26-24.33c8.47-15.98,8.52-36.05-1.81-51.21
						c-13.35-19.6-38.66-26.33-61.03-22.62c-2.11,0.35-6.32,2.14-3.24,4.35c3.15,2.27,8.82,1.73,12.35,1.14
						c-1.14,0.19,0.9-0.1,1.22-0.14c1.71-0.22-0.73-0.07,0.99-0.07c0.42,0,0.85,0,1.27,0c1.47-0.01-1.32-0.12,0.14-0.01
						c0.99,0.07,1.97,0.16,2.95,0.3c-1.17-0.16,0.87,0.18,1.19,0.25c0.83,0.17,1.67,0.35,2.49,0.58c0.8,0.22,3.27,1.1,4.62,1.67
						c6.34,2.65,12.06,6.97,16.52,12.19c9.68,11.3,12.55,26.53,9.06,40.9c-3.26,13.43-12.99,26.89-26.43,30.8
						c-0.41,0.12-1.43,0.34-2.06,0.47c-0.94,0.2-0.19,0.07,0.01,0.04c-0.43,0.07-0.86,0.09-1.29,0.15
						c-1.05,0.13,0.07,0.03,0.25,0.02c-0.43,0.02-0.85,0.01-1.28,0.01c-1.08,0,0.11,0.03,0.27,0.02c-0.28-0.02-0.56-0.05-0.84-0.08
						c0.63,0.12,0.64,0.12,0.07,0.01c-2.27-0.42-5.22-1.76-7.49-3.68c-5.51-4.68-8.03-11.88-8.47-18.94
						c-0.52-8.21,1.46-16.69,5.76-23.7c2.16-3.52,5.1-7.11,8.97-8.8c0.68-0.3,0.81-0.12,1.13-0.32c0.64-0.38,0.32,0.04-0.07,0.03
						c-0.34,0-1.37-0.07-1.73,0.04c-0.66,0.21-0.41-0.21,0.31,0.27c0.85,0.57,1.56,1.03,2.29,1.78c2.55,2.65,7.74,2.56,11.1,2.22
						C1151.72,417.33,1159.33,415.92,1157.01,413.51L1157.01,413.51z"/>
				</g>
			</g>
		</g>
	</g>
</g>
<g id="Ebene_3">
</g>
</svg>
