<?xml version="1.0" encoding="utf-8"?>
<!-- Generator: Adobe Adobe Illustrator 24.2.0, SVG Export Plug-In . SVG Version: 6.00 Build 0)  -->
<svg version="1.1" xmlns="http://www.w3.org/2000/svg" xmlns:xlink="http://www.w3.org/1999/xlink" x="0px" y="0px"
	 viewBox="0 0 1700.79 1700.79" style="enable-background:new 0 0 1700.79 1700.79;" xml:space="preserve">
<style type="text/css">
	.st0{display:none;}
	.st1{stroke:#000000;stroke-width:1.2421;stroke-miterlimit:10;}
	.st2{stroke:#000000;stroke-width:1.2417;stroke-miterlimit:10;}
	.st3{fill:#FFFFFF;stroke:#FFFFFF;stroke-width:1.06;stroke-miterlimit:10;}
	.st4{fill:#FFFFFF;stroke:#FFFFFF;stroke-width:1.0139;stroke-miterlimit:10;}
	.st5{stroke:#000000;stroke-width:0.5238;stroke-miterlimit:10;}
	.st6{fill:#FFFFFF;stroke:#FFFFFF;stroke-width:0.138;stroke-miterlimit:10;}
	.st7{fill:#C8354F;}
	.st8{fill:#C93550;}
	.st9{opacity:0.149;}
	.st10{fill:#FFFFFF;}
	.st11{opacity:0.0314;}
</style>
<g id="Ebene_4" class="st0">
</g>
<g id="Ebene_6">
	<g>
		<circle class="st1" cx="917.22" cy="1150.9" r="270"/>
		
			<ellipse transform="matrix(0.9847 -0.1742 0.1742 0.9847 -207.3295 99.7159)" class="st2" cx="464.41" cy="1231" rx="269.84" ry="270"/>
		
			<ellipse transform="matrix(0.9847 -0.1742 0.1742 0.9847 -202.2704 101.405)" class="st3" cx="476.56" cy="1203.02" rx="232.87" ry="227.99"/>
		
			<ellipse transform="matrix(0.9847 -0.1742 0.1742 0.9847 -181.0035 180.5121)" class="st4" cx="937.86" cy="1121.42" rx="215.46" ry="225.46"/>
		
			<ellipse transform="matrix(0.9847 -0.1742 0.1742 0.9847 -166.4827 189.1996)" class="st5" cx="994.61" cy="1043.04" rx="115" ry="112.73"/>
		
			<ellipse transform="matrix(0.9847 -0.1742 0.1742 0.9847 -187.5314 110.9043)" class="st5" cx="538.05" cy="1123.8" rx="115" ry="112.73"/>
		<circle class="st6" cx="1014.18" cy="981.42" r="30"/>
		<circle class="st6" cx="582.66" cy="1067.85" r="30"/>
		<g>
			<g>
				<path d="M1088.2,932.46c14.62-19.28,29.25-38.57,43.87-57.85c4.9-6.46,1.02-16.78-5.38-20.52c-7.7-4.5-15.61-1.09-20.52,5.38
					c-14.62,19.28-29.25,38.57-43.87,57.85c-4.9,6.46-1.02,16.78,5.38,20.52C1075.38,942.34,1083.29,938.94,1088.2,932.46
					L1088.2,932.46z"/>
			</g>
		</g>
		<g>
			<g>
				<path d="M1121.96,971.69c17.54-18.09,35.07-36.18,52.61-54.27c5.64-5.82,5.79-15.42,0-21.21c-5.68-5.68-15.56-5.84-21.21,0
					c-17.54,18.09-35.07,36.18-52.61,54.27c-5.64,5.82-5.79,15.42,0,21.21C1106.42,977.37,1116.3,977.53,1121.96,971.69
					L1121.96,971.69z"/>
			</g>
		</g>
		<g>
			<g>
				<path d="M1148.97,1012.82c23.81-16.29,47.62-32.58,71.43-48.88c6.68-4.57,9.68-13.18,5.38-20.52
					c-3.87-6.62-13.81-9.98-20.52-5.38c-23.81,16.29-47.62,32.59-71.43,48.88c-6.68,4.57-9.68,13.18-5.38,20.52
					C1132.32,1014.06,1142.25,1017.42,1148.97,1012.82L1148.97,1012.82z"/>
			</g>
		</g>
		<g>
			<g>
				<path d="M1169.77,1056.79c27-11.71,54.01-23.42,81.01-35.12c7.43-3.22,9.12-14.13,5.38-20.52c-4.49-7.68-13.06-8.62-20.52-5.38
					c-27,11.71-54.01,23.42-81.01,35.12c-7.43,3.22-9.12,14.13-5.38,20.52C1153.74,1059.09,1162.31,1060.03,1169.77,1056.79
					L1169.77,1056.79z"/>
			</g>
		</g>
		<g>
			<g>
				<path d="M291.47,1027.6c-17.44-20.01-34.87-40.01-52.31-60.02c-5.33-6.11-15.76-5.45-21.21,0c-6.06,6.06-5.34,15.09,0,21.21
					c17.44,20.01,34.87,40.01,52.31,60.02c5.33,6.11,15.76,5.45,21.21,0C297.53,1042.75,296.81,1033.73,291.47,1027.6L291.47,1027.6
					z"/>
			</g>
		</g>
		<g>
			<g>
				<path d="M246.23,1074.72c-22.26-13.24-44.53-26.47-66.79-39.71c-6.96-4.14-16.46-1.57-20.52,5.38
					c-4.13,7.06-1.6,16.37,5.38,20.52c22.26,13.24,44.53,26.47,66.79,39.71c6.96,4.14,16.46,1.57,20.52-5.38
					C255.74,1088.18,253.22,1078.87,246.23,1074.72L246.23,1074.72z"/>
			</g>
		</g>
		<g>
			<g>
				<path d="M213.54,1132.71c-25.46-5.68-50.93-11.35-76.39-17.03c-7.64-1.7-16.59,2.31-18.45,10.48
					c-1.73,7.6,2.29,16.63,10.48,18.45c25.46,5.68,50.93,11.35,76.39,17.03c7.64,1.7,16.59-2.31,18.45-10.48
					C225.74,1143.56,221.73,1134.53,213.54,1132.71L213.54,1132.71z"/>
			</g>
		</g>
		<g>
			<g>
				<path d="M197.62,1201.64c-19.77,0.78-39.54,1.56-59.3,2.35c-7.83,0.31-15.37,6.68-15,15c0.35,7.86,6.6,15.33,15,15
					c19.77-0.78,39.54-1.56,59.3-2.35c7.83-0.31,15.37-6.68,15-15C212.26,1208.78,206.01,1201.31,197.62,1201.64L197.62,1201.64z"/>
			</g>
		</g>
		<g>
			<g>
				<path d="M124.36,1204.48c-0.88,0.16-1.75,0.31-2.63,0.47c-1.95,0.46-3.65,1.36-5.1,2.68c-1.63,1.06-2.92,2.46-3.86,4.21
					c-1.1,1.72-1.69,3.58-1.78,5.58c-0.45,1.99-0.36,3.99,0.27,5.98c0.5,1.19,1.01,2.39,1.51,3.58c1.33,2.25,3.13,4.05,5.38,5.38
					c1.19,0.5,2.39,1.01,3.58,1.51c2.66,0.71,5.32,0.71,7.98,0c0.88-0.16,1.75-0.31,2.63-0.47c1.95-0.46,3.65-1.36,5.1-2.68
					c1.63-1.06,2.92-2.46,3.86-4.21c1.1-1.72,1.69-3.58,1.78-5.58c0.45-1.99,0.36-3.99-0.27-5.98c-0.5-1.19-1.01-2.39-1.51-3.58
					c-1.33-2.25-3.13-4.05-5.38-5.38c-1.19-0.5-2.39-1.01-3.58-1.51C129.68,1203.76,127.02,1203.76,124.36,1204.48L124.36,1204.48z"
					/>
			</g>
		</g>
	</g>
	<g>
		<g id="Ebene_2_Kopie">
			<g>
				<path class="st7" d="M794.83,849.03c47.96-4.34,194.06-16.9,205.7-40.71c18.91-38.68,5.76-430.09-21.2-451.56
					c-56.51-45-657.07-11.7-702.2,55.68c-40.68,60.76,70.48,413.99,91.5,433.47c31.78,29.45,127.33,0.22,175.21,12.98
					c21.35,5.69,126.27,109.24,148.67,105.05c12.71-2.38,79.79-71.81,100.83-114.6"/>
				<g>
					<path class="st8" d="M795.31,852.79c47.08-4.26,94.31-8.53,140.83-17.11c11.19-2.06,22.35-4.41,33.33-7.46
						c8.14-2.26,16.46-4.74,23.94-8.89c4.6-2.55,8.91-5.68,11-10.99c1.59-4.05,2.41-8.52,3.14-12.85
						c2.41-14.24,3.23-28.86,3.94-43.33c1.01-20.74,1.34-41.55,1.4-62.33c0.13-50.14-1.31-100.33-4.01-150.45
						c-2.37-44.11-5.31-88.47-11.81-132.22c-2.01-13.55-4.19-27.43-8.49-40.43c-1.22-3.7-2.7-7.64-5.05-10.72
						c-2.06-2.69-5.02-4.39-7.89-5.84c-8.28-4.17-17.53-6.25-26.42-8.03c-13.17-2.64-26.49-4.23-39.8-5.48
						c-37.16-3.5-74.5-4.26-111.71-4.26c-45.58-0.01-91.15,1.47-136.63,3.98c-47.21,2.6-94.35,6.31-141.34,11.41
						c-41.97,4.56-83.89,10.12-125.39,18.02c-30.1,5.73-60.79,12.12-89.34,23.91c-8.7,3.59-17.68,7.78-24.97,14.12
						c-7.62,6.63-11.15,16.24-13.09,26.48c-3.11,16.37-2.51,33.71-1.32,50.37c1.58,22.22,4.88,44.32,8.82,66.24
						c9.1,50.64,21.74,100.66,35.95,149.99c11.61,40.3,24.06,80.65,39.58,119.49c3.94,9.88,7.89,20.67,13.92,29.38
						c3.88,5.6,10.33,9.07,16.23,11.4c10.92,4.32,22.67,5.58,34.15,6.01c28.47,1.08,56.77-2.77,85.15-3.75
						c12.58-0.43,25.34-0.47,37.83,1.83c4.25,0.78,5.84,0.99,9.33,2.81c2.76,1.43,5.18,3.04,7.72,4.79
						c17.84,12.33,34.42,26.95,51.23,40.87c18.51,15.34,37.01,30.98,56.75,44.42c6.72,4.57,13.75,9.31,21.29,12.05
						c5.74,2.08,10.24,2.02,15.42-1.25c7.73-4.86,14.6-11.42,21.26-17.81c9.95-9.54,19.44-19.64,28.62-30.05
						c17.7-20.07,35.46-41.61,47.66-66.24c2.11-4.25-4.37-7.24-6.46-3.03c-5.89,11.9-13.47,22.82-21.27,33.29
						c-8.83,11.86-18.25,23.2-28.03,34.14c-8.83,9.88-17.99,19.46-27.59,28.46c-5.9,5.53-12.83,12.37-19.51,15.74
						c-0.42,0.21-0.85,0.4-1.29,0.59c-1.15,0.51,0.23,0.02-0.61,0.18c-0.4,0.07-0.81,0.08-1.22,0.09c0.95-0.01-0.92-0.14-1.28-0.2
						c-2.58-0.45-4.85-1.46-7.61-2.8c-7.81-3.8-15.1-8.89-22.21-14.04c-19.69-14.24-38.4-30.09-57.2-45.68
						c-15.58-12.92-31.07-26.69-48-37.49c-6.54-4.18-12.89-5.95-20.41-6.99c-12.61-1.75-25.42-1.58-38.06-1.07
						c-27.92,1.13-55.89,5.07-83.91,3.53c-10.86-0.6-22.24-1.88-32.34-6.73c-1.94-0.93-3.83-1.97-5.59-3.25
						c-0.97-0.7-1.87-1.47-2.78-2.24c-0.21-0.18-1.37-1.44-0.33-0.25c-0.9-1.02-1.66-2.15-2.38-3.31c-2.08-3.35-3.93-7.28-6-11.85
						c-2.77-6.15-5.31-12.41-7.77-18.71c-6.82-17.48-12.95-35.26-18.81-53.12c-15.3-46.63-28.73-94.01-40.12-141.86
						c-10.72-45.05-20.5-91.19-23.43-137.56c-0.99-15.74-1.35-32.09,1.99-47.45c1.01-4.62,3.04-10.59,5.41-14.18
						c0.41-0.63,0.85-1.24,1.32-1.82c0.21-0.26,0.43-0.52,0.65-0.78c0.76-0.9-0.33,0.29,0.52-0.56c1.26-1.26,2.59-2.43,3.98-3.52
						c3.79-2.94,6.14-4.28,10.4-6.49c4.87-2.53,9.91-4.7,14.99-6.68c12.64-4.91,25.67-8.69,38.77-12.02
						c36.19-9.22,73.14-15.28,110.07-20.43c44.74-6.24,89.71-10.82,134.75-14.37c46.32-3.65,92.74-6.19,139.22-7.5
						c41.29-1.17,82.66-1.47,123.99,0.12c29.82,1.15,60.04,2.71,89.52,8.57c4.99,0.99,9.96,2.15,14.86,3.61
						c0.92,0.28,0.88,0.26,2.32,0.75c0.98,0.33,1.97,0.69,2.94,1.06c1.66,0.64,3.3,1.34,4.9,2.14c0.68,0.34,1.33,0.71,2,1.08
						c0.33,0.19,0.66,0.4,0.99,0.6c-1.05-0.66,0.05,0.04,0.29,0.21c0.47,0.36,0.93,0.71,1.39,1.09c0.79,0.67-0.43-0.59,0.09,0.09
						c0.21,0.27,0.43,0.52,0.62,0.81c0.23,0.35,1.36,2.28,0.76,1.15c0.43,0.81,0.83,1.65,1.2,2.5c0.91,2.09,1.65,4.25,2.33,6.43
						c3.79,12.16,5.99,26.33,7.91,39.72c2.87,19.94,4.9,40,6.63,60.07c4.22,48.9,6.58,97.97,7.88,146.99
						c1.17,44.38,1.66,88.89-0.49,133.17c-0.7,14.36-1.52,28.86-3.88,43c-0.8,4.78-1.12,7.2-2.73,11.29
						c-0.69,1.75-1.15,2.45-2.35,3.52c-2.29,2.04-4.23,3.17-6.86,4.49c-7.82,3.92-16.29,6.41-24.67,8.58
						c-11.1,2.88-22.35,5.12-33.62,7.11c-25.65,4.53-51.53,7.76-77.42,10.57c-19.54,2.12-39.11,3.92-58.68,5.69
						C789.87,845.68,790.84,853.19,795.31,852.79L795.31,852.79z"/>
				</g>
			</g>
		</g>
		<g id="Ebene_7">
			<g class="st9">
				<g>
					<path class="st10" d="M800.07,399.54c15.03,0.79,30.08,0.08,45.09-0.2c4.14-0.08,8.29-0.14,12.44-0.16
						c2.02-0.01,4.04-0.01,6.06,0c1.01,0.01,2.02,0.02,3.03,0.02c3.33,0.03-2.82-0.08,0.58,0.01c7.91,0.2,15.84,0.57,23.72,1.48
						c3.67,0.42,7.33,0.96,10.96,1.68c1.63,0.32,3.27,0.68,4.89,1.09c0.78,0.2,1.55,0.41,2.33,0.62c3.18,0.85-2.29-0.86-0.3-0.11
						c2.79,1.05,5.55,2.05,8.19,3.5c0.56,0.31,1.14,0.76,1.71,1.01c-0.82-0.34-3.07-2.17-1.27-0.76c1.05,0.83,2.08,2.03,3.18,2.73
						c-0.6-0.39-2.58-3.12-1.2-1.25c0.34,0.47,0.69,0.94,1.04,1.4c2.04,2.66-1.05-2.95-0.42-0.87c0.32,1.06,1.48,4.92,0.55,1.29
						c-0.92-3.59-0.19-0.68,0,0.19c0.18,0.83,0.34,1.66,0.49,2.49c0.35,1.9,0.64,3.82,0.91,5.74c3.69,26.3,4.51,53.13,5.67,79.6
						c1.64,37.49,2.7,75.01,3.7,112.52c0.95,35.47,1.75,70.95,2.86,106.42c0.11,3.67,0.24,7.35,0.36,11.03
						c0.27,7.92,8.83,14.45,15.73,13.22c8.06-1.43,12.19-8.27,11.9-16.75c-1.18-34.96-1.98-69.92-2.89-104.88
						c-1.01-38.53-2.05-77.06-3.63-115.59c-1.16-28.44-2.08-57.14-5.58-85.43c-0.9-7.24-1.69-15.74-4.97-22.27
						c-7.67-15.29-23.36-21.34-38.18-24.47c-16.64-3.52-33.84-3.63-50.67-3.62c-15.6,0.01-31.18,0.77-46.78,0.69
						c-0.77,0-1.55-0.02-2.32-0.02c-2.35-0.02,3.71,0.11,0.89,0.01c-1.48-0.05-2.95-0.09-4.43-0.17
						c-7.26-0.38-14.96,3.97-15.65,12.64C787.47,389.78,792.27,399.13,800.07,399.54L800.07,399.54z"/>
				</g>
			</g>
			<g class="st9">
				<g>
					<path class="st10" d="M930.62,786.04c0.88,3.22,1.76,6.43,2.64,9.64c6.04-6.51,12.09-13.01,18.13-19.52
						c-3.82-1.96-7.63-3.93-11.44-5.89c1.93,7.73,3.87,15.45,5.8,23.18c-1.4,1.65-2.77,2.87-4.83,3.47
						c-0.78,0.37-1.6,0.47-2.45,0.31c-1.45-0.1-1.66-0.08-0.62,0.05c-1.62-0.43-2.89-1.02-4.27-2.06c0.8,0.68,0.67,0.52-0.36-0.48
						c-0.94-0.82-1.65-1.85-2.14-3.08c1.39-5.91,2.79-11.83,4.18-17.74c0.18-0.14,3.2-1.55,1.51-0.95c1.66-0.59,3.14-0.82,4.91-0.66
						c-1.8-0.16,1.43,0.52,1.66,0.6c-1.68-0.59,1.21,0.77,1.45,0.97c1.26,1.06,2.15,2.57,2.81,4.11c-1.08-2.5,0.5,5.52,0.5,5.27
						c0.05-1.93-0.33,1.41-0.45,1.73c-0.37,0.7-0.73,1.4-1.1,2.1c-1.73,1.69-2.17,2.17-1.35,1.44c1.35-0.99-2.89,1.59-1.41,0.87
						c0.69-0.27,0.4-0.2-0.86,0.24c-0.76,0.36-1.56,0.49-2.39,0.37c-3.22,0.02-6.2-1.71-7.84-4.77c-1.55-2.89,0.18,1.54-0.69-1.79
						c-0.86-3.29-0.23,1.45-0.28-1.97c-0.14-0.9-0.03-1.76,0.31-2.58c0.4-1.32,0.47-1.63,0.22-0.93c-0.47,1.22,2.11-3.13,0.56-1.41
						c7.36,0.09,14.72,0.18,22.08,0.26c-0.91-1.15-1.82-2.3-2.74-3.45c-4.79-6.04-13.68-8.33-19.58-2.96
						c-5.49,4.99-7.46,14.66-2.34,21.13c0.91,1.15,1.82,2.3,2.74,3.45c2.94,3.71,6.52,5.78,11,5.87c4.76,0.09,7.88-2.07,11.07-5.6
						c6.41-7.11,5.56-20.16-0.24-27.6c-6.89-8.84-19.36-10.29-27.35-2.76c-7.71,7.25-9.9,20.59-2.52,29.47
						c7.13,8.58,19.05,10.67,27.57,3.64c4.87-4.02,6.6-11.55,4.18-17.74c-2.6-6.69-8.52-11.83-15.19-12.86
						c-7.24-1.11-13.21,1.7-17.98,7.31c-6.29,7.38-1.73,19.3,5.8,23.18c3.82,1.96,7.63,3.93,11.44,5.89
						c5.09,2.62,11.43,0.94,15.19-3.13c4.22-4.57,4.6-10.33,2.94-16.38c-0.88-3.22-1.76-6.43-2.64-9.64
						c-0.93-3.4-4.62-6.8-7.49-8.14c-3.2-1.5-7.66-1.74-10.83-0.15c-3.19,1.6-6.13,4.26-7.37,7.94
						C929.17,778.34,929.49,781.91,930.62,786.04L930.62,786.04z"/>
				</g>
			</g>
		</g>
		<g id="Ebene_2_1_">
			<g>
				<g>
					<path d="M777.25,888.67c47.14-4.24,94.44-8.51,141.03-17.06c11.21-2.06,22.38-4.4,33.38-7.43c8.75-2.41,17.72-4.91,25.77-9.36
						c6.24-3.45,11.8-7.67,14.66-14.83c1.82-4.57,2.77-9.65,3.62-14.54c2.45-14.23,3.28-28.86,3.99-43.32
						c1.03-20.79,1.36-41.65,1.42-62.49c0.15-50.65-1.27-101.36-4.02-151.99c-2.39-44.05-5.32-88.38-11.91-132.06
						c-2.1-13.93-4.45-28.23-8.98-41.57c-1.44-4.25-3.3-8.66-6.01-12.16c-2.88-3.72-6.88-6.16-10.91-8.13
						c-8.96-4.38-18.93-6.61-28.52-8.49c-13.28-2.6-26.71-4.16-40.13-5.4c-37.73-3.46-75.64-4.17-113.43-4.16
						c-45.55,0.02-91.07,1.51-136.52,4.01c-47.15,2.6-94.23,6.29-141.15,11.37c-41.83,4.52-83.61,10.04-124.97,17.85
						c-30.82,5.82-62.25,12.34-91.52,24.28c-9.3,3.8-18.9,8.32-26.72,15.01c-9.04,7.72-13.36,18.67-15.76,30.69
						c-3.37,16.88-2.71,34.91-1.52,52.12c1.54,22.19,4.84,44.27,8.78,66.16c9.19,51.08,22.02,101.52,36.41,151.26
						c11.69,40.42,24.23,80.89,39.9,119.82c4.15,10.31,8.39,21.56,14.73,30.6c4.68,6.67,12.22,11.03,19.33,13.77
						c11.74,4.54,24.15,6.02,36.47,6.43c29.17,0.97,58.1-2.84,87.19-3.78c3.19-0.1,6.39-0.17,9.59-0.18c0.85,0,1.7,0,2.55,0
						c0.46,0,3.33,0.05,0.55,0c1.65,0.03,3.29,0.08,4.93,0.15c6.08,0.27,12.18,0.82,18.19,1.97c1.14,0.22,2.29,0.46,3.43,0.73
						c0.64,0.15,1.34,0.42,1.99,0.49c1.32,0.14-2.96-1.19-1.72-0.53c1.04,0.55,2.18,0.89,3.22,1.43c1.22,0.63,2.4,1.35,3.59,2.05
						c2.67,1.59-1.86-1.28,0.26,0.15c0.93,0.63,1.86,1.25,2.79,1.89c17.77,12.3,34.33,26.76,51.1,40.58
						c18.57,15.29,37.12,30.9,56.94,44.23c7.2,4.85,14.7,9.95,22.79,12.83c3.82,1.36,7.71,2.47,11.74,2.06
						c4.04-0.41,7.27-2.33,10.66-4.51c7.79-5.02,14.77-11.59,21.53-18.07c10.31-9.87,20.15-20.34,29.67-31.09
						c18.06-20.39,35.84-42.21,48.32-67.24c2.66-5.34-0.83-12.63-5.68-14.9c-5.66-2.65-10.99,0.5-13.65,5.84
						c-0.36,0.72-2.6,4.86-1.05,2.08c-0.69,1.24-1.38,2.48-2.09,3.71c-1.66,2.85-3.38,5.65-5.17,8.4
						c-3.83,5.93-7.91,11.67-12.11,17.29c-8.85,11.82-18.28,23.1-28.08,33.99c-1.05,1.17-2.1,2.32-3.16,3.49
						c-0.2,0.22-2.31,2.5-0.65,0.71c-0.62,0.67-1.25,1.35-1.88,2.02c-2.45,2.61-4.92,5.19-7.41,7.75
						c-4.34,4.45-8.76,8.8-13.29,13.02c-3.68,3.42-7.42,6.77-11.32,9.91c-1.46,1.17-2.93,2.31-4.45,3.39
						c-0.64,0.45-1.58,0.85-2.11,1.44c1.94-2.14,1.69-0.97,0.17-0.17c-0.51,0.27-1.06,0.46-1.57,0.73
						c-1.72,0.95,1.86-0.31,1.41-0.36c-0.31-0.04-1.16,0.01-1.45,0.12c2.56-0.98,2.67,0.26,0.88-0.12c-0.61-0.13-1.24-0.28-1.86-0.4
						c-2.18-0.41,2.72,1.02,0.59,0.18c-1.53-0.6-3.05-1.19-4.55-1.91c-3.56-1.69-6.95-3.72-10.33-5.8
						c-0.62-0.38-2.48-1.37,0.33,0.22c-0.52-0.29-1.02-0.66-1.52-0.99c-0.96-0.63-1.92-1.27-2.86-1.92
						c-2.2-1.49-4.38-3.02-6.54-4.57c-19.67-14.12-38.35-29.86-57.13-45.33c-16.18-13.33-32.24-27.37-49.81-38.48
						c-6.8-4.3-13.7-6.3-21.48-7.43c-13.47-1.96-27.21-1.74-40.72-1.19c-14.17,0.58-28.3,1.75-42.45,2.65
						c-7,0.44-14,0.83-21.01,1.03c-3.23,0.09-6.46,0.15-9.69,0.14c-0.86,0-1.72-0.01-2.58-0.01c-2.79-0.02,1.55,0.08-0.18,0
						c-1.81-0.09-3.62-0.11-5.43-0.2c-5.96-0.3-11.93-0.87-17.83-1.98c-2.57-0.48-5.07-1.16-7.61-1.79c-2.34-0.58,2.26,0.86,0.02,0
						c-0.62-0.24-1.26-0.43-1.88-0.67c-1.22-0.45-2.42-0.95-3.59-1.49c-1.14-0.52-2.26-1.09-3.36-1.71c-0.36-0.2-0.7-0.43-1.06-0.62
						c-1.94-1.03,2,1.56,0.28,0.17c-1.25-1.01-2.71-2.56-4.07-3.32c2.64,1.46,2.07,2.49,1.25,1.31c-0.15-0.22-0.34-0.44-0.5-0.65
						c-0.47-0.62-0.89-1.27-1.31-1.93c-0.46-0.73-0.88-1.47-1.31-2.22c-1.33-2.26,0.92,1.78,0.5,0.93c-0.26-0.52-0.54-1.01-0.8-1.52
						c-1.2-2.32-2.31-4.69-3.4-7.07c-2.81-6.18-5.39-12.49-7.88-18.83c-6.82-17.38-12.95-35.05-18.81-52.81
						c-7.33-22.21-14.18-44.6-20.62-67.11c-3.55-12.41-6.98-24.86-10.28-37.35c-0.78-2.96-1.56-5.92-2.32-8.89
						c-0.2-0.77-1.32-5.14-0.5-1.92c-0.48-1.89-0.96-3.78-1.44-5.67c-1.57-6.21-3.09-12.43-4.58-18.67
						c-10.74-44.92-20.54-90.95-23.4-137.2c-0.29-4.68-0.49-9.36-0.57-14.04c-0.02-1.03,0.15-4.45-0.02-0.36
						c0.04-1.1,0-2.22,0.01-3.31c0.02-2.13,0.08-4.26,0.17-6.39c0.31-7.14,1.08-14.2,2.55-21.15c0.08-0.39,0.22-0.78,0.28-1.18
						c0.02-0.16-0.84,3.12-0.41,1.67c0.21-0.74,0.4-1.49,0.62-2.23c0.42-1.4,0.89-2.79,1.42-4.14c0.46-1.16,1-2.27,1.51-3.41
						c0.9-2.02-1.7,2.77-0.26,0.51c0.33-0.51,0.64-1.05,0.98-1.56c0.4-0.59,0.84-1.15,1.28-1.72c0.25-0.32,0.55-0.6,0.8-0.93
						c0.23-0.32-2.47,2.45-0.85,0.95c1.31-1.22,2.62-2.41,4.03-3.5c0.75-0.58,1.51-1.12,2.28-1.65c0.45-0.3,0.89-0.59,1.34-0.89
						c2.2-1.48-1.31,0.78-0.68,0.41c1.99-1.15,3.97-2.31,6.01-3.36c4.91-2.52,9.97-4.67,15.1-6.64c5.98-2.3,12.05-4.33,18.16-6.2
						c1.6-0.49,3.2-0.97,4.81-1.44c0.74-0.22,1.5-0.43,2.24-0.64c0.45-0.13,0.91-0.26,1.36-0.39c2.57-0.73-2.18,0.59-0.41,0.11
						c3.66-0.99,7.32-1.97,11-2.91c36.21-9.14,73.15-15.17,110.08-20.29c44.45-6.16,89.11-10.7,133.84-14.22
						c46.39-3.66,92.89-6.2,139.44-7.54c21.68-0.62,43.37-0.97,65.06-0.97c10.34,0,20.7,0,31.04,0.26c-2.77-0.07-0.23,0,1.03,0.02
						c1.27,0.03,2.53,0.05,3.8,0.08c2.5,0.05,5,0.11,7.5,0.18c4.66,0.13,9.33,0.28,14,0.45c29.88,1.12,60.14,2.66,89.71,8.43
						c4.99,0.97,9.96,2.09,14.86,3.53c0.46,0.13,0.92,0.29,1.38,0.42c-4.11-1.08-1.73-0.56-0.76-0.22c1,0.34,2,0.67,2.98,1.05
						c1.69,0.63,3.36,1.32,4.99,2.12c0.69,0.34,1.37,0.69,2.04,1.06c0.31,0.17,0.62,0.38,0.93,0.54c1.66,0.9-2.74-1.99-1.14-0.73
						c0.48,0.37,0.98,0.77,1.48,1.11c1.79,1.22-2.03-2.93-0.55-0.57c0.35,0.57,0.73,1.22,1.13,1.74c-2.06-2.76-0.91-1.8-0.08,0.06
						c0.87,1.94,1.6,3.97,2.26,6.01c0.37,1.15,0.72,2.31,1.05,3.48c0.19,0.68,0.38,1.37,0.56,2.05c0.81,2.93-0.68-2.81-0.1-0.41
						c0.75,3.1,1.45,6.2,2.09,9.31c1.57,7.74,2.84,15.55,3.98,23.38c2.86,19.69,4.89,39.52,6.61,59.34
						c4.27,48.95,6.64,98.08,7.93,147.16c0.32,12.29,0.57,24.58,0.72,36.87c0.07,5.95,0.12,11.89,0.16,17.83
						c0,0.67,0.01,3.38,0,0.02c0,0.63,0.01,1.26,0,1.9c0,1.39,0.01,2.76,0.01,4.15c0,2.98,0,5.95-0.01,8.92
						c-0.07,20.35-0.41,40.71-1.41,61.01c-0.71,14.35-1.54,28.86-3.93,42.99c-0.39,2.3-0.98,4.55-1.38,6.85
						c0.8-4.64,0.31-1.22-0.09,0.07c-0.25,0.82-0.55,1.6-0.84,2.4c-0.11,0.32-0.29,0.61-0.4,0.93c-0.53,1.64,1.9-2.57,0.64-1.2
						c-0.33,0.35-0.75,0.9-1,1.32c-0.45,0.76-2.01,0.13,1.27-1.37c-0.32,0.15-0.62,0.64-0.91,0.86c-1.02,0.81-2.05,1.55-3.09,2.31
						c-1.39,1.01,2.55-1.41,0.99-0.63c-0.36,0.18-0.71,0.41-1.07,0.61c-0.76,0.42-1.54,0.82-2.32,1.2
						c-3.53,1.73-7.2,3.12-10.89,4.38c-2.06,0.71-4.14,1.36-6.23,1.98c-0.81,0.24-4.96,1.59-1.56,0.47
						c-1.25,0.41-2.56,0.69-3.83,1.02c-11.24,2.91-22.64,5.16-34.07,7.16c-25.56,4.48-51.33,7.68-77.13,10.47
						c-19.56,2.12-39.16,3.91-58.77,5.67c-5.62,0.51-9.68,6.64-8.92,12.56C766.26,885.02,771.61,889.18,777.25,888.67L777.25,888.67
						z"/>
				</g>
			</g>
		</g>
		<g id="Ebene_10">
			<g>
				<g>
					<path class="st10" d="M478.5,478.4c47.55,39.99,94.41,80.93,140.76,122.55c45.59,40.94,90.68,82.52,135.51,124.44
						c24.92,23.29,49.74,46.7,74.54,70.15c9.74,9.21,26.99,6.73,34.18-4.37c7.89-12.16,5.65-27.26-4.74-37.09
						c-44.21-41.81-88.54-83.47-133.24-124.67c-45.42-41.87-91.22-83.25-137.61-123.85c-26.45-23.15-53.09-46.04-79.94-68.62
						c-10.19-8.57-26.68-7.2-34.18,4.37C466.23,452.91,467.62,469.25,478.5,478.4L478.5,478.4z"/>
				</g>
			</g>
			<g>
				<g>
					<path class="st10" d="M544.96,825.54c39.64-55.83,78.6-112.21,116.69-169.32c28.19-42.27,55.97-84.88,84.48-126.9
						c18.89-27.84,38.08-55.44,57.52-82.83c7.71-10.86,6.1-28.74-4.74-37.09c-10.87-8.37-25.95-7.22-34.18,4.37
						c-32.34,45.55-63.84,91.8-94.79,138.48c-30.04,45.3-59.95,90.7-90.6,135.51c-24.13,35.27-48.6,70.26-73.31,105.06
						c-7.71,10.85-6.1,28.74,4.74,37.09C521.66,838.29,536.74,837.13,544.96,825.54L544.96,825.54z"/>
				</g>
			</g>
		</g>
		<g id="Ebene_9">
			<g class="st11">
				<path d="M273.21,420.4c26.91,210.55,274.33,431.76,437.6,539.93c-17.53,7.6-43.94-17.28-88.39-46.73
					c-62.83-41.62-47.79-49.61-81.02-59.27c-27.6-8.02-59.15-0.86-87.44,1.77c-26.06,2.42-59.16,1.6-77.59-10.49
					c-24.32-15.95-93.85-248.81-107.95-395.57"/>
				<g>
					<path d="M266.3,421.28c5.65,43.7,20.08,85.87,38.97,125.08c20.94,43.48,47.16,83.93,75.98,121.79
						c30.57,40.16,64.2,77.61,99.47,112.96c34.8,34.86,71.33,67.69,109.13,98.63c33.89,27.74,68.82,54.04,104.79,78.47
						c3.97,2.7,7.96,5.37,11.96,8.02c0.48-4.3,0.96-8.61,1.45-12.91c-0.47,0.2-0.95,0.36-1.43,0.54c1.78-0.65,0.28-0.06-0.16,0.01
						c-0.85,0.12-1.69,0.25-2.56,0.3c-1.97,0.15,0.67,0.21-1.36-0.06c-1.14-0.15-2.27-0.32-3.41-0.58c-0.59-0.14-1.18-0.3-1.77-0.46
						c1.31,0.37-0.06-0.02-0.38-0.13c-1.17-0.43-2.33-0.87-3.48-1.35c-2.55-1.09-5.03-2.36-7.48-3.72
						c-12.99-7.2-25.04-16.43-37.27-25.03c-23.93-16.83-48.97-31.93-70.05-53.05c-4.2-4.21-8.23-8.75-12.95-12.3
						c-5.91-4.44-12.44-7.21-19.28-9.36c-33.72-10.64-67.91-0.96-101.81,1.1c-15.46,0.94-31.26,0.67-46.54-2.84
						c-6.28-1.44-12.36-3.63-18.01-7.03c-0.84-0.5,0.77,0.8-0.31-0.26c-0.25-0.24-0.53-0.48-0.8-0.7c-0.86-0.71-0.59-1.31,0.28,0.36
						c-0.22-0.43-0.72-0.83-1.03-1.21c-1.52-1.87-2.84-3.92-4.09-6.01c-0.41-0.68-0.81-1.37-1.2-2.06
						c-0.29-0.52-1.42-2.67-0.31-0.52c-0.78-1.5-1.58-3-2.33-4.51c-3.76-7.56-7.08-15.39-10.22-23.25
						c-19.42-48.58-33.81-99.68-46.81-150.5c-15.26-59.63-28.29-120.29-35.78-181.52c-0.82-6.67-1.55-13.35-2.2-20.04
						c-0.94-9.68-14.75-7.91-13.81,1.76c5.93,61.3,18.47,122.09,33.04,181.78c13.38,54.87,28.45,109.76,48.24,162.5
						c5.93,15.83,12.15,32.12,21.01,46.4c3.08,4.96,6.53,8.92,11.38,11.83c12.98,7.8,28.81,10.02,43.29,10.88
						c16.91,1.01,33.69-0.22,50.44-2.28c17.19-2.11,34.61-4.86,52.02-3.61c4.28,0.31,8.55,0.85,12.77,1.7
						c1.9,0.38,3.79,0.83,5.67,1.35c0.79,0.22,1.57,0.45,2.36,0.68c1.38,0.41-0.82-0.28,0.88,0.28c3.52,1.16,7.01,2.46,10.34,4.18
						c0.61,0.32,1.21,0.64,1.8,0.99c0.81,0.47,1.91,1.27,0.45,0.24c1.22,0.87,2.45,1.71,3.62,2.67c2.2,1.8,4.25,3.81,6.26,5.85
						c6.16,6.21,12.32,12.35,18.94,17.97c12.7,10.77,26.38,19.89,40.03,29.12c14.67,9.92,28.92,20.6,43.72,30.31
						c9.74,6.39,20.38,13.47,31.83,15.16c4.76,0.7,9.51,0.25,13.97-1.59c4.49-1.86,6.04-9.87,1.45-12.91
						c-35.17-23.32-69.34-48.47-102.54-75.01c-37.39-29.89-73.58-61.59-108.2-95.19c-35.27-34.22-68.91-70.52-99.83-109.39
						c-29.3-36.85-56.47-76.12-78.53-118.47c-19.82-38.06-35.93-78.99-43.47-121.54c-0.9-5.06-1.67-10.15-2.33-15.25
						C278.87,409.88,265.06,411.62,266.3,421.28L266.3,421.28z"/>
				</g>
			</g>
		</g>
	</g>
</g>
<g id="Ebene_3">
</g>
</svg>
