<?xml version="1.0" encoding="utf-8"?>
<!-- Generator: Adobe Adobe Illustrator 24.2.0, SVG Export Plug-In . SVG Version: 6.00 Build 0)  -->
<svg version="1.1" xmlns="http://www.w3.org/2000/svg" xmlns:xlink="http://www.w3.org/1999/xlink" x="0px" y="0px"
	 viewBox="0 0 1700.79 1700.79" style="enable-background:new 0 0 1700.79 1700.79;" xml:space="preserve">
<style type="text/css">
	.st0{display:none;}
	.st1{stroke:#000000;stroke-width:1.2421;stroke-miterlimit:10;}
	.st2{stroke:#000000;stroke-width:1.2417;stroke-miterlimit:10;}
	.st3{fill:#FFFFFF;stroke:#FFFFFF;stroke-width:1.06;stroke-miterlimit:10;}
	.st4{fill:#FFFFFF;stroke:#FFFFFF;stroke-width:1.0139;stroke-miterlimit:10;}
	.st5{stroke:#000000;stroke-width:0.5238;stroke-miterlimit:10;}
	.st6{fill:#FFFFFF;stroke:#FFFFFF;stroke-width:0.138;stroke-miterlimit:10;}
	.st7{fill:#ADBECF;stroke:#F3C057;stroke-miterlimit:10;}
	.st8{fill:#F3C057;stroke:#F3C057;stroke-miterlimit:10;}
	.st9{fill:#F7D98D;stroke:#F3C057;stroke-miterlimit:10;}
	.st10{stroke:#F3C057;stroke-miterlimit:10;}
	.st11{fill:#AEBFCE;stroke:#F3C057;stroke-miterlimit:10;}
	.st12{opacity:0.2706;}
	.st13{fill:#3D4C5B;stroke:#F3C057;stroke-miterlimit:10;}
	.st14{fill:#F3C057;}
</style>
<g id="Ebene_4" class="st0">
</g>
<g id="Ebene_6">
	<g>
		<circle class="st1" cx="917.22" cy="1150.9" r="270"/>
		
			<ellipse transform="matrix(0.9847 -0.1742 0.1742 0.9847 -207.3295 99.7159)" class="st2" cx="464.41" cy="1231" rx="269.84" ry="270"/>
		
			<ellipse transform="matrix(0.9847 -0.1742 0.1742 0.9847 -202.2704 101.405)" class="st3" cx="476.56" cy="1203.02" rx="232.87" ry="227.99"/>
		
			<ellipse transform="matrix(0.9847 -0.1742 0.1742 0.9847 -181.0035 180.5121)" class="st4" cx="937.86" cy="1121.42" rx="215.46" ry="225.46"/>
		
			<ellipse transform="matrix(0.9847 -0.1742 0.1742 0.9847 -166.4827 189.1996)" class="st5" cx="994.61" cy="1043.04" rx="115" ry="112.73"/>
		
			<ellipse transform="matrix(0.9847 -0.1742 0.1742 0.9847 -187.5314 110.9043)" class="st5" cx="538.05" cy="1123.8" rx="115" ry="112.73"/>
		<circle class="st6" cx="1014.18" cy="981.42" r="30"/>
		<circle class="st6" cx="582.66" cy="1067.85" r="30"/>
		<g>
			<g>
				<path d="M1088.2,932.46c14.62-19.28,29.25-38.57,43.87-57.85c4.9-6.46,1.02-16.78-5.38-20.52c-7.7-4.5-15.61-1.09-20.52,5.38
					c-14.62,19.28-29.25,38.57-43.87,57.85c-4.9,6.46-1.02,16.78,5.38,20.52C1075.38,942.34,1083.29,938.94,1088.2,932.46
					L1088.2,932.46z"/>
			</g>
		</g>
		<g>
			<g>
				<path d="M1121.96,971.69c17.54-18.09,35.07-36.18,52.61-54.27c5.64-5.82,5.79-15.42,0-21.21c-5.68-5.68-15.56-5.84-21.21,0
					c-17.54,18.09-35.07,36.18-52.61,54.27c-5.64,5.82-5.79,15.42,0,21.21C1106.42,977.37,1116.3,977.53,1121.96,971.69
					L1121.96,971.69z"/>
			</g>
		</g>
		<g>
			<g>
				<path d="M1148.97,1012.82c23.81-16.29,47.62-32.58,71.43-48.88c6.68-4.57,9.68-13.18,5.38-20.52
					c-3.87-6.62-13.81-9.98-20.52-5.38c-23.81,16.29-47.62,32.59-71.43,48.88c-6.68,4.57-9.68,13.18-5.38,20.52
					C1132.32,1014.06,1142.25,1017.42,1148.97,1012.82L1148.97,1012.82z"/>
			</g>
		</g>
		<g>
			<g>
				<path d="M1169.77,1056.79c27-11.71,54.01-23.42,81.01-35.12c7.43-3.22,9.12-14.13,5.38-20.52c-4.49-7.68-13.06-8.62-20.52-5.38
					c-27,11.71-54.01,23.42-81.01,35.12c-7.43,3.22-9.12,14.13-5.38,20.52C1153.74,1059.09,1162.31,1060.03,1169.77,1056.79
					L1169.77,1056.79z"/>
			</g>
		</g>
		<g>
			<g>
				<path d="M291.47,1027.6c-17.44-20.01-34.87-40.01-52.31-60.02c-5.33-6.11-15.76-5.45-21.21,0c-6.06,6.06-5.34,15.09,0,21.21
					c17.44,20.01,34.87,40.01,52.31,60.02c5.33,6.11,15.76,5.45,21.21,0C297.53,1042.75,296.81,1033.73,291.47,1027.6L291.47,1027.6
					z"/>
			</g>
		</g>
		<g>
			<g>
				<path d="M246.23,1074.72c-22.26-13.24-44.53-26.47-66.79-39.71c-6.96-4.14-16.46-1.57-20.52,5.38
					c-4.13,7.06-1.6,16.37,5.38,20.52c22.26,13.24,44.53,26.47,66.79,39.71c6.96,4.14,16.46,1.57,20.52-5.38
					C255.74,1088.18,253.22,1078.87,246.23,1074.72L246.23,1074.72z"/>
			</g>
		</g>
		<g>
			<g>
				<path d="M213.54,1132.71c-25.46-5.68-50.93-11.35-76.39-17.03c-7.64-1.7-16.59,2.31-18.45,10.48
					c-1.73,7.6,2.29,16.63,10.48,18.45c25.46,5.68,50.93,11.35,76.39,17.03c7.64,1.7,16.59-2.31,18.45-10.48
					C225.74,1143.56,221.73,1134.53,213.54,1132.71L213.54,1132.71z"/>
			</g>
		</g>
		<g>
			<g>
				<path d="M197.62,1201.64c-19.77,0.78-39.54,1.56-59.3,2.35c-7.83,0.31-15.37,6.68-15,15c0.35,7.86,6.6,15.33,15,15
					c19.77-0.78,39.54-1.56,59.3-2.35c7.83-0.31,15.37-6.68,15-15C212.26,1208.78,206.01,1201.31,197.62,1201.64L197.62,1201.64z"/>
			</g>
		</g>
		<g>
			<g>
				<path d="M124.36,1204.48c-0.88,0.16-1.75,0.31-2.63,0.47c-1.95,0.46-3.65,1.36-5.1,2.68c-1.63,1.06-2.92,2.46-3.86,4.21
					c-1.1,1.72-1.69,3.58-1.78,5.58c-0.45,1.99-0.36,3.99,0.27,5.98c0.5,1.19,1.01,2.39,1.51,3.58c1.33,2.25,3.13,4.05,5.38,5.38
					c1.19,0.5,2.39,1.01,3.58,1.51c2.66,0.71,5.32,0.71,7.98,0c0.88-0.16,1.75-0.31,2.63-0.47c1.95-0.46,3.65-1.36,5.1-2.68
					c1.63-1.06,2.92-2.46,3.86-4.21c1.1-1.72,1.69-3.58,1.78-5.58c0.45-1.99,0.36-3.99-0.27-5.98c-0.5-1.19-1.01-2.39-1.51-3.58
					c-1.33-2.25-3.13-4.05-5.38-5.38c-1.19-0.5-2.39-1.01-3.58-1.51C129.68,1203.76,127.02,1203.76,124.36,1204.48L124.36,1204.48z"
					/>
			</g>
		</g>
	</g>
</g>
<g id="Ebene_3">
	<g>
		<g id="Ebene_7">
			<g>
				<path class="st7" d="M680.38,806.88c-12.36,5.94-14.61,26.15-3.83,34.46c-32.52,44.13-27.51,112.22,11.04,150.01
					c12.23,11.99,27.61,21.16,44.49,23.61c31.18,4.52,62.64-15.2,79.65-42.49c6.49-10.42,11.26-21.83,15.99-33.18
					c10.08-24.18,20.16-48.36,30.24-72.54c2.81-6.73,5.66-13.74,5.38-21.01c-0.59-15.15-14.16-25.92-27.08-33.32
					c-31.58-18.09-67.02-29.29-103.26-32.63c-10.34-0.95-21.03-1.23-30.92,2.19c-9.88,3.42-18.91,11.21-21.36,21.54"/>
				<g>
					<path class="st7" d="M680.49,803.22c-14.39,7.34-21.55,30.3-7.6,41.6c0.25-1.56,0.5-3.13,0.75-4.68
						c-23.18,31.76-28.64,74.57-16.27,111.44c13.33,39.73,51.28,75.24,95.14,66.84c20.24-3.88,38.46-15.97,52.18-31.43
						c16.99-19.15,25.36-44.49,35.08-67.81c5.38-12.91,10.76-25.82,16.14-38.73c2.65-6.36,5.41-12.68,7.91-19.1
						c2.21-5.67,4.02-11.79,3.68-17.93c-1.23-21.87-24.72-33.67-41.51-42c-23.49-11.67-48.75-19.62-74.65-23.7
						c-22.48-3.54-49.84-6.62-66.95,12.59c-3.61,4.06-6.31,8.83-7.68,14.12c-0.56,2.14,0.75,3.49,2.85,3.13
						c2.21-0.38,4.61-2.7,5.18-4.91c5.93-22.89,36.19-20.05,53.59-17.92c24.42,2.99,48.33,9.62,70.85,19.51
						c10.3,4.52,20.59,9.56,30,15.78c7.23,4.78,14.61,11.08,18.04,19.36c4.49,10.85-0.42,21.37-4.66,31.53
						c-4.95,11.89-9.91,23.77-14.86,35.66c-5.02,12.04-10.01,24.08-15.05,36.1c-4.58,10.92-9.29,22.06-15.98,31.87
						c-10.38,15.23-25.35,27.63-42.71,33.47c-39.87,13.41-78.29-15.63-94.32-51.32c-14.42-32.11-14.25-71.67,2.85-103.13
						c2.08-3.83,4.41-7.47,6.97-10.99c0.72-0.98,2.11-3.59,0.75-4.68c-4.51-3.66-6.65-9.12-6.37-14.98
						c0.22-4.67,2.02-10.11,6.42-12.35c1.95-0.99,4.34-3.1,4.29-5.54C684.52,802.73,682.21,802.34,680.49,803.22L680.49,803.22z"/>
				</g>
			</g>
			<g>
				<g>
					<path class="st7" d="M705.95,1018.99c3.69,1.14,10.05-6.62,6-7.87C708.26,1009.98,701.9,1017.74,705.95,1018.99L705.95,1018.99
						z"/>
				</g>
			</g>
			<g>
				<g>
					<path class="st7" d="M699.35,1019.33c0.9,7.81,6.41,14.36,14.35,15.19c8.27,0.86,16.32-4.77,20.16-12.01
						c0.54-1.02,1.15-3.72-0.59-4.1c-8.08-1.75-16.16-3.5-24.25-5.26c-2.29-0.49-4.52,0.86-5.92,2.72c-0.77,1.03-2.4,4.64-0.08,5.14
						c8.08,1.75,16.16,3.5,24.25,5.26c-0.2-1.36-0.4-2.73-0.59-4.1c-5.01,9.48-18,1.67-18.95-6.61
						C707.12,1010.36,698.92,1015.56,699.35,1019.33L699.35,1019.33z"/>
				</g>
			</g>
		</g>
		<g id="Ebene_5">
			<g>
				<path class="st8" d="M867.36,823.57c20.18-66.37,77.13-113.7,132.84-154.07c55.71-40.37,115.58-80.71,147.46-142.27
					c40.31-77.85,24.75-178.32-29.05-245.9S978.08,178.09,892.16,176.68c-53.55-0.88-108.07,10.9-154.61,38.54
					s-95.06,77.08-111.08,129.36c-22.21,72.45,9.23,144.78,31.28,216.71s45.53,147.99,28.17,221.73
					c62.42-8.88,127.7,8.04,177.87,46.1"/>
				<g>
					<path class="st8" d="M871.38,822.68c17.69-57.54,63.38-99.94,109.49-135.07c46.4-35.35,96.51-66.39,135.75-110.5
						c18.59-20.89,34.07-44.68,44.1-70.98c9.22-24.18,13.69-50.17,13.84-75.98c0.3-51.98-16.51-103.77-46.84-145.16
						c-32.82-44.8-80.71-76.81-132.46-94.7c-52.99-18.32-110.91-22.63-166.3-12.37c-27.59,5.11-54.71,14.04-79.75,27.17
						c-24.7,12.96-47.42,29.91-67.46,49.54c-20.33,19.91-38.49,42.95-50.73,68.9c-11.73,24.87-16.84,52.23-16.27,79.6
						c1.17,56.63,23.32,109.96,39.61,163.1c17.31,56.48,35.59,114.84,33.21,174.98c-0.57,14.37-2.39,28.65-5.66,42.68
						c-0.51,2.19,0.67,3.43,2.85,3.13c47.99-6.7,97.47,1.97,140.49,23.8c12.23,6.21,23.91,13.47,34.88,21.75
						c3.35,2.53,10.39-4.63,7.33-6.94c-39.75-29.99-88.33-47.16-138.06-48.9c-14.13-0.49-28.28,0.3-42.31,2.26
						c0.95,1.04,1.9,2.09,2.85,3.13c13.41-57.68,2.54-116.69-12.9-172.37c-7.72-27.83-16.37-55.41-25.3-82.84
						c-8.66-26.6-17.41-53.28-23.04-80.79c-5.41-26.41-7.71-53.81-3.32-80.69c4.43-27.15,16.16-51.99,32.29-74.04
						c32.82-44.9,80.03-79.34,132.28-96.2c53.06-17.13,110.96-18.86,164.88-6.8c53.36,11.94,104.17,37.55,142.88,76.92
						c36.13,36.75,59.68,85.03,66.53,136.86c6.82,51.69-4.11,104.76-34.03,147.92c-32.92,47.5-81.43,80.53-127.3,113.68
						c-46.6,33.67-94.16,70.8-123.02,122.17c-6.85,12.19-12.42,25.1-16.53,38.49c-0.66,2.13,0.83,3.48,2.85,3.13
						C868.49,827.19,870.7,824.89,871.38,822.68L871.38,822.68z"/>
				</g>
			</g>
		</g>
		<g id="Ebene_6_1_">
			<g>
				<path class="st9" d="M1100.76,391c-17.53-53.6-59.56-116.81-108.97-143.09c-49.42-26.27-138.12-19.55-190.32,1.9
					c-72.18,29.66-113.46,126.29-112.49,205.2c0.84,68.33,62.24,115.25,123.35,142.68c61.11,27.44,141.55,41.47,195.81,0.57
					c54.26-40.9,94.88-138.83,92.56-207.11"/>
				<g>
					<path class="st9" d="M1104.83,388.25c-7.41-22.52-17.89-43.93-30.37-63.92c-12.99-20.83-28.4-40.32-46.55-56.69
						c-15.73-14.18-33.55-25.81-53.77-32.13c-20.3-6.34-41.82-8.65-63.06-8.78c-22.42-0.15-44.98,2.12-67,6.72
						c-19.41,4.05-39.06,9.77-56.57,19.54c-35.49,19.81-61.49,54.14-78.23,91.04c-8.65,19.07-15.14,39.14-19.26,59.67
						c-3.96,19.74-6.44,40.52-4.89,60.6c3.16,40.85,28.34,74.33,59.05,98.62c32.2,25.48,70.66,43.99,109.99,55.06
						c39.2,11.03,82.35,15.15,121.68,1.16c38.46-13.67,66.32-46.23,86.67-81.02c21.54-36.82,36.57-78.94,41.23-121.45
						c1-9.1,1.43-18.25,1.15-27.38c-0.16-5.18-8.49-0.05-8.37,3.76c1.24,39.61-10.03,79.98-26.29,115.87
						c-8.49,18.75-18.68,36.8-31.05,53.22c-11.09,14.71-24.02,28.42-39.53,38.31c-33.77,21.51-76.02,22.42-113.84,15.63
						c-39.26-7.05-77.45-22.77-111.27-43.91c-32.07-20.05-62.8-47.81-75.49-85c-6.27-18.39-6.69-37.55-5.04-56.87
						c1.69-19.9,5.79-39.58,11.91-58.6c11.97-37.13,32.17-73.11,62.27-98.15c14.23-11.84,30.57-19.93,48-25.43
						c19.92-6.3,40.66-10.12,61.38-11.95c40.26-3.55,84.75-1.31,119.79,20.68c19.3,12.12,35.82,28.67,50.06,46.52
						c14.79,18.55,27.35,38.98,37.4,60.59c4.51,9.69,8.5,19.64,11.85,29.82C1098.08,398,1106.06,391.99,1104.83,388.25
						L1104.83,388.25z"/>
				</g>
			</g>
		</g>
		<g id="Ebene_3_1_">
			<g>
				<g>
					<path class="st10" d="M867.03,836.8c12.08-28.27,28.38-54.31,47.8-77.99c18.99-23.16,40.66-43.9,63.13-63.5
						c23.12-20.16,46.81-39.51,72.08-56.79c24.53-16.78,50.04-33.11,70.47-55.15c35.98-38.82,54.62-91.62,56.41-144.22
						c1.81-52.91-13-105.92-42.68-149.04c-31.7-46.05-78.33-80.11-129.68-100.24c-52.2-20.47-109.51-26.78-165.18-18.62
						c-56.3,8.25-111.45,32.05-153.31,72.25c-42.43,40.75-71.56,97.9-72.69,157.6c-0.57,30.23,6.19,59.9,14.8,88.53
						c8.65,28.77,18.84,56.98,26.98,85.92c15.02,53.35,24.26,107.73,26.56,163.37c0.63,15.47,0.84,30.95,0.74,46.43
						c-0.03,5.14,8.34,0.05,8.37-3.76c0.37-56.8-4.13-113.25-16.56-168.53c-6.15-27.33-13.8-54.31-22.44-80.9
						c-9.18-28.28-19.23-56.38-25.19-85.65c-5.88-28.9-6.79-58.53-0.21-87.56c6.4-28.3,18.82-55.13,35.67-78.64
						c33.55-46.8,83.28-78.16,137.64-93.18c53.74-14.85,111.24-14.79,164.73-0.54c52.77,14.05,102.35,41.7,139.78,82.18
						c35.62,38.53,58.03,87.87,63.23,140.87c4.95,50.51-5.13,103.86-33.44,146.65c-15.78,23.86-36.85,41.94-59.88,58.22
						c-12.27,8.68-24.83,16.91-37.12,25.56c-12.05,8.49-23.51,17.68-34.91,27.04c-45.95,37.74-90.68,78.4-122.02,129.94
						c-7.68,12.63-14.44,25.81-20.25,39.42C857.24,842.59,865.3,840.86,867.03,836.8L867.03,836.8z"/>
				</g>
			</g>
			<g>
				<g>
					<path class="st10" d="M678.08,800.79c0.8,5.98,5.44,10.83,9.82,14.43c7.27,5.97,15.78,10.36,24.29,14.21
						c26.24,11.86,54.56,19.23,82.57,25.53c8.62,1.94,17.27,3.74,25.94,5.42c8,1.55,16.49,4.03,24.71,3.72
						c6.75-0.25,13.52-2.26,18.6-7.04c5.33-5.01,7.44-12.37,5.17-19.35c-2.41-7.38-8.34-13.49-13.99-18.42
						c-6.4-5.6-13.66-10.18-21.17-14.1c-16.01-8.35-33.27-14.55-50.67-19.24c-19.49-5.26-39.56-8.48-59.76-9.48
						c-9.33-0.47-19.91-1.59-29,1.33c-8.12,2.6-15.66,9.61-16.05,18.7c-0.1,2.4,2.44,2.46,4.08,1.79c2.05-0.85,4.19-3.19,4.29-5.54
						c0.32-7.58,9.58-8.22,15.23-8.36c8.2-0.19,16.44,0.16,24.61,0.79c16.68,1.28,33.23,4.05,49.39,8.33
						c15.46,4.09,30.65,9.47,45.15,16.25c13.51,6.32,27.56,14.51,36.39,27.05c2.79,3.96,6.72,11.85,2.06,16.06
						c-4.04,3.66-11.41,3.37-16.3,2.67c-15.87-2.27-31.69-5.87-47.3-9.49c-25.49-5.9-51.12-12.8-75.18-23.24
						c-8.6-3.73-17.34-7.91-24.78-13.73c-4.53-3.54-9.22-7.88-10.01-13.8c-0.32-2.38-3.93-1.03-5.04-0.3
						C679.24,796.26,677.76,798.42,678.08,800.79L678.08,800.79z"/>
				</g>
			</g>
			<g>
				<g>
					<path class="st10" d="M682.75,800.36c-16.32,3.65-24.59,23.13-17.8,37.98c8.5,18.58,29.95,24.24,47.68,29.48
						c20.94,6.19,42.25,11,63.65,15.3c10.89,2.19,21.8,4.23,32.72,6.26c8.89,1.65,17.89,3.62,26.99,2.26
						c8.84-1.32,15.82-6.44,20.69-14c3.99-6.18,7.56-15.11,4.2-22.28c-1.95-4.15-9.77,2.03-8.14,5.52c2.3,4.9,0.42,10.67-2.35,15.05
						c-3.31,5.23-7.64,7.35-13.67,7.87c-7.84,0.68-15.78-1.23-23.42-2.64c-9.21-1.71-18.41-3.43-27.6-5.24
						c-18.5-3.65-36.95-7.66-55.15-12.59c-8.72-2.36-17.41-4.89-25.97-7.77c-8.06-2.71-16.32-5.94-22.84-11.6
						c-5.93-5.15-10.91-12.54-11.02-20.79c-0.08-6.41,3.09-13.3,9.68-14.77c2.25-0.5,4.6-2.6,5.18-4.91
						C686.14,801.41,684.91,799.88,682.75,800.36L682.75,800.36z"/>
				</g>
			</g>
			<g>
				<g>
					<path class="st10" d="M665.78,840.47c-4.79,6.12-8.26,13.52-10.47,20.97c-2.1,7.1-2.69,14.17,0.83,20.84
						c9.39,17.77,32.52,19.47,49.9,23.02c20.98,4.29,41.97,8.58,62.95,12.87c10.28,2.1,20.55,4.2,30.83,6.3
						c8.48,1.73,17.49,4.4,26.21,2.58c19.15-3.98,22.8-26.49,21.87-43.06c-0.3-5.2-8.58-0.05-8.37,3.76
						c0.39,6.87,0.21,13.97-1.71,20.65c-1.83,6.36-5.02,10.41-11.81,10.94c-7.72,0.6-15.7-1.84-23.17-3.37
						c-9.42-1.93-18.84-3.85-28.26-5.78c-18.41-3.76-36.83-7.53-55.24-11.29c-9.29-1.9-18.64-3.61-27.88-5.76
						c-8.11-1.88-16.46-4.56-22.57-10.53c-5.34-5.22-8.06-11.85-6.46-19.38c1.52-7.19,4.65-14.55,9.19-20.34
						c1.1-1.4,2.11-4.14,0.08-5.14C669.67,836.74,666.92,839.02,665.78,840.47L665.78,840.47z"/>
				</g>
			</g>
			<g>
				<g>
					<path class="st10" d="M660.16,878.04c-10.47,8.05-14.86,24.09-12.76,36.81c2.9,17.52,25.62,20.38,39.52,23.07
						c21.81,4.21,43.62,8.42,65.44,12.63c10.8,2.08,21.6,4.17,32.39,6.25c8.77,1.69,17.75,4.01,26.76,3.14
						c9.33-0.91,17.27-5.72,21.67-14.31c4.17-8.15,5.36-17.96,4.37-26.95c-0.57-5.21-8.78-0.02-8.37,3.76
						c0.76,6.95,0.34,14.46-2.33,21.03c-0.9,2.21-2.13,4.69-4.18,6.02c-2.81,1.82-6.59,2.34-9.83,2.43
						c-8.02,0.22-16-1.83-23.81-3.34c-9.29-1.79-18.57-3.58-27.86-5.38c-18.79-3.63-37.58-7.25-56.37-10.88
						c-9.03-1.74-18.21-3.13-27.1-5.46c-7.05-1.85-15.71-4.79-20.01-11.22c-3.08-4.62-2.8-11.44-1.93-16.73
						c0.78-4.74,2.78-12.03,6.31-14.75c1.56-1.2,3.91-3.57,3.1-5.81C664.44,876.21,661.5,877.01,660.16,878.04L660.16,878.04z"/>
				</g>
			</g>
			<g>
				<g>
					<path class="st10" d="M654.26,921.81c-11,7.35-12.64,24.58-2.53,33.11c6.18,5.21,14.11,7.4,21.64,9.77
						c8.94,2.81,17.89,5.62,26.83,8.42c17.89,5.62,35.78,11.23,53.66,16.85c15.35,4.82,31.97,11.79,48.1,5.91
						c7.6-2.77,14.23-8.5,17.62-16.04c3.93-8.74,4-18.33,2.61-27.61c-0.36-2.37-3.91-1.05-5.04-0.3c-1.91,1.26-3.45,3.45-3.1,5.81
						c1.04,6.94,1.24,14.77-1.49,21.42c-2.14,5.2-6.37,8.31-11.63,9.76c-14.03,3.87-29.17-3.08-42.31-7.21
						c-14.77-4.64-29.54-9.27-44.3-13.91c-14.6-4.58-29.46-8.68-43.85-13.87c-6.06-2.19-13.7-5.48-16.14-12.09
						c-1.39-3.76-2.04-11.28,1.89-13.9c1.62-1.08,3.88-3.66,3.1-5.81C658.52,919.89,655.66,920.88,654.26,921.81L654.26,921.81z"/>
				</g>
			</g>
			<g>
				<g>
					<path class="st10" d="M665.03,961.71c-0.2,11.72,2.37,23.22,9.29,32.67c6.03,8.23,14.77,14.02,23.83,18.28
						c18.98,8.92,40.81,12.71,61.23,5.82c12.22-4.12,22.57-12.22,29.08-23.61c0.99-1.71,0.75-4.01-1.44-4.28
						c-2.33-0.28-4.69,2.11-5.74,3.95c-9.77,17.07-31.31,20.74-48.93,18.78c-9.19-1.02-17.96-3.95-26.37-7.7
						c-8.26-3.69-16.12-8.47-22.12-15.42c-7.74-8.96-10.67-20.42-10.47-32.26C673.49,952.83,665.09,957.91,665.03,961.71
						L665.03,961.71z"/>
				</g>
			</g>
			<g>
				<path class="st11" d="M699.79,1009.52c-3.3,7.87,2.25,22.22,12.57,24.15c8.2,1.54,22.21-3.87,25.8-12.32"/>
				<g>
					<path class="st10" d="M695.77,1010.4c-4.03,10.62,2.93,25.11,14.01,27.29c11.52,2.27,26.89-5.27,31.97-16.19
						c0.82-1.76,0.86-4-1.44-4.28c-2.19-0.26-4.86,2.07-5.74,3.95c-3.16,6.81-14.65,10.34-21.29,7.97
						c-7.27-2.6-12.31-13.05-9.47-20.52c0.81-2.13-0.93-3.46-2.85-3.13C698.54,1005.91,696.61,1008.2,695.77,1010.4L695.77,1010.4z"
						/>
				</g>
			</g>
		</g>
		<g id="Ebene_8">
			<g class="st12">
				<path class="st13" d="M700.1,781.79c-8.59-0.81-14.03,11.04-10.73,19.14s11.55,12.68,19.34,16.4
					c33.27,15.89,68.67,27.22,104.98,33.61c17.14,3.02,35.85,4.67,51.1-4.13c-58.5-7.7-127.93-16.38-163.99-62.27"/>
				<g>
					<path class="st13" d="M702.25,777.68c-11.74-0.63-20.17,13.44-17.52,24.22c1.57,6.43,6.86,11.12,12.1,14.54
						c6.73,4.4,14.41,7.5,21.75,10.7c31.49,13.71,65.03,23.9,99.07,28.91c15.74,2.32,32.62,2.52,47.04-5.57
						c1.93-1.08,7.31-7.12,2.26-7.78c-45.47-5.98-94.55-11.19-134.17-36.31c-10.73-6.81-20.35-15.29-28.3-25.31
						c-2.49-3.14-9.93,3.68-7.33,6.94c30.01,37.81,80.16,49.89,125.31,57.22c13.36,2.17,26.78,3.92,40.19,5.68
						c0.75-2.59,1.51-5.19,2.26-7.78c-11.03,6.19-23.53,6.76-35.73,5.57c-14.38-1.41-28.67-4.64-42.64-8.21
						c-14.74-3.76-29.27-8.35-43.49-13.74c-7.21-2.73-14.35-5.66-21.4-8.8c-6.21-2.76-12.63-5.46-18.38-9.13
						c-4.94-3.15-10.42-8.19-10.66-14.58c-0.14-3.68,1.03-8.59,5.37-8.35C701.65,786.11,707.28,777.95,702.25,777.68L702.25,777.68z
						"/>
				</g>
			</g>
			<g class="st12">
				<path class="st13" d="M678.29,811.33c-8.74,5.17-8.86,18.92-2.79,26.99c6.08,8.07,16.07,11.82,25.58,15.02
					c40.19,13.51,81.39,24.03,123.14,31.47c10.73,1.91,24.29,2.39,29.95-7.2c-30.1,1.45-159.5-14.97-174.86-68.65"/>
				<g>
					<path class="st13" d="M677.32,808.27c-11.29,7.18-13.2,23.1-5.48,33.52c4.45,6,11.35,9.79,18.08,12.51
						c7.93,3.22,16.22,5.66,24.38,8.23c34.48,10.82,69.63,19.47,105.2,25.92c13.9,2.52,29.64,3.07,38.27-10.69
						c0.9-1.44,0.86-4.38-1.44-4.28c-9.03,0.41-18.13-0.39-27.09-1.31c-13.47-1.37-26.87-3.47-40.13-6.16
						c-28.08-5.72-57.71-13.92-81.67-30.29c-10.52-7.19-20.32-16.84-24.05-29.52c-1.24-4.23-9.26,1.73-8.14,5.52
						c7.46,25.4,35.37,39.21,57.8,47.89c27.58,10.68,57.14,16.77,86.48,20.22c10.72,1.26,21.68,2.4,32.51,1.9
						c-0.48-1.42-0.96-2.85-1.44-4.28c-2.21,3.52-7.5,4.17-11.18,4.32c-5.71,0.24-11.32-0.75-16.9-1.78
						c-15.63-2.86-31.18-6.16-46.62-9.89c-15.09-3.64-30.07-7.7-44.94-12.16c-7.54-2.26-15.04-4.62-22.52-7.09
						c-6.41-2.12-12.94-4.15-18.91-7.39c-5.87-3.18-11.3-7.88-13.25-14.59c-1.35-4.62-1.61-11.57,2.98-14.49
						c1.64-1.04,3.86-3.68,3.1-5.81C681.56,806.34,678.73,807.38,677.32,808.27L677.32,808.27z"/>
				</g>
			</g>
			<g class="st12">
				<path class="st13" d="M668.45,849.75c-10.52,4.03-11.33,20.3-4.05,28.86c7.28,8.56,19,11.35,29.93,13.68
					c37.68,8.04,75.37,16.07,113.05,24.11c11.3,2.41,25.25,3.92,32.49-5.37c-49.08-5.63-160.34-17.24-168.16-65.71"/>
				<g>
					<path class="st13" d="M668.56,846.09c-11.55,4.85-16.01,19.25-11.19,30.45c6.07,14.12,23.27,17.41,36.53,20.23
						c36.18,7.72,72.37,15.43,108.55,23.15c14.08,3,29.92,4.99,40.34-7.68c1.37-1.67,2.13-4.99-0.77-5.33
						c-25.16-2.88-50.33-5.89-75.14-10.98c-13.61-2.79-27.14-6.22-40.25-10.84c-11.34-4-22.8-8.88-32.55-16.07
						c-8.86-6.53-16.37-15.14-18.29-26.45c-0.7-4.14-8.81,1.61-8.14,5.52c3.86,22.76,27.8,35.17,46.88,42.62
						c26.52,10.35,55.05,15.45,83.14,19.48c13.33,1.9,26.7,3.44,40.07,4.97c-0.26-1.78-0.51-3.55-0.77-5.33
						c-2.92,3.55-8.05,4.23-12.3,4.29c-5.92,0.08-11.73-1.1-17.48-2.33c-15.41-3.28-30.83-6.57-46.25-9.86
						c-15.63-3.33-31.26-6.67-46.89-10c-7.34-1.57-14.72-3.01-22.03-4.75c-6.28-1.49-12.71-3.36-18.17-6.93
						c-5.19-3.39-9.07-8.41-9.89-14.78c-0.55-4.26-0.05-10.18,4.39-12.05c1.98-0.83,4.33-3.21,4.29-5.54
						C672.59,845.48,670.3,845.36,668.56,846.09L668.56,846.09z"/>
				</g>
			</g>
			<g class="st12">
				<path class="st13" d="M659.78,890.64c-7.15,5.8-7.45,17.53-2.37,25.14c5.08,7.6,14.1,11.56,23.05,13.07
					c8.94,1.5,18.11,0.94,27.17,1.52c20.88,1.34,40.77,8.72,61.03,13.8c20.26,5.08,42.2,7.78,61.78,0
					c-39.13-3.98-142.96-12.56-170.48-54.35"/>
				<g>
					<path class="st13" d="M657.76,888.42c-9.64,8.35-10.46,23.34-2.44,32.91c9.34,11.13,24.92,12.48,38.39,12.77
						c7.92,0.17,15.74,0.46,23.57,1.73c8.17,1.32,16.19,3.39,24.16,5.59c14.29,3.95,28.5,8.39,43.23,10.5
						c15.34,2.19,30.99,1.59,45.68-4.1c2.25-0.87,7.08-7.29,2.26-7.78c-22.28-2.26-44.55-4.55-66.62-8.39
						c-25.49-4.44-51.65-10.41-74.76-22.44c-10.63-5.54-20.79-12.7-27.59-22.87c-2.17-3.24-9.68,3.43-7.33,6.94
						c13.05,19.53,37.67,29.2,59.02,35.81c25.55,7.92,52.17,12.27,78.69,15.52c11.41,1.39,22.86,2.51,34.29,3.67
						c0.75-2.59,1.51-5.19,2.26-7.78c-24.73,9.59-51.68,1.95-75.86-4.9c-13.51-3.82-27.14-7.67-41.17-9.05
						c-13.33-1.31-27.57,0.84-40.19-4.54c-5.91-2.52-11.58-6.81-13.94-13.09c-1.93-5.16-2.11-12.17,2.4-16.06
						c1.32-1.14,3.14-4.05,1.65-5.69C661.89,885.45,659.05,887.32,657.76,888.42L657.76,888.42z"/>
				</g>
			</g>
			<g class="st12">
				<path class="st13" d="M656.66,925.24c-6.06,6.67-3.77,18,2.47,24.33c6.24,6.33,15.16,8.92,23.69,11.29
					c30,8.32,59.99,16.64,89.98,24.97c14.35,3.98,31.35,7.45,42.93-2.29c-56.91-3.19-119.57-18.21-160.51-58.67"/>
				<g>
					<path class="st13" d="M653.75,924.03c-7.81,9.24-5.34,23.04,3.34,30.51c5.01,4.31,11.16,6.8,17.39,8.7
						c7.22,2.21,14.55,4.09,21.83,6.11c15,4.16,30,8.32,44.99,12.49c13.49,3.74,26.97,8.21,40.73,10.83
						c12.66,2.41,25.25,1.56,35.73-6.93c1.66-1.35,3.76-6.12,0.13-6.33c-44.61-2.55-90.4-11.61-129.09-34.91
						c-10.82-6.52-20.86-14.23-29.91-23.11c-2.95-2.89-10.21,4.11-7.33,6.94c33.08,32.44,78.32,48.13,123.11,55.22
						c12.89,2.04,25.89,3.35,38.92,4.09c0.04-2.11,0.09-4.22,0.13-6.33c-7.24,5.86-18.07,4.81-26.47,3.3
						c-12.01-2.16-23.78-6.15-35.52-9.4c-13.31-3.69-26.62-7.38-39.92-11.08c-6.76-1.88-13.52-3.75-20.28-5.63
						c-5.82-1.62-11.76-3.05-17.38-5.31c-5.84-2.36-11.71-5.85-14.71-11.69c-2.33-4.54-3.43-10.81,0.14-15.04
						c1.15-1.36,2.07-4.16,0.08-5.14C657.6,920.28,654.95,922.61,653.75,924.03L653.75,924.03z"/>
				</g>
			</g>
			<g class="st12">
				<path class="st13" d="M670.21,964.06c6.84,19.13,21.53,35.11,39.81,43.31c18.28,8.2,39.9,8.5,58.59,0.83
					c-34.84-4.61-67.93-21.08-92.74-46.18"/>
				<g>
					<path class="st13" d="M666.14,966.82c7.07,19.33,21.49,35.46,39.94,44.06c19.53,9.11,42.39,9.04,62.42,0.99
						c2.3-0.93,7.05-7.13,2.26-7.77c-34.38-4.68-66.64-20.86-91.22-45.54c-2.91-2.92-10.19,4.07-7.33,6.94
						c25.44,25.55,58.7,42,94.26,46.83c0.75-2.59,1.51-5.19,2.26-7.78c-18.53,7.45-39.76,6.66-57.58-1.97
						c-16.99-8.23-30.3-23.32-36.85-41.25C672.74,957.08,664.8,963.14,666.14,966.82L666.14,966.82z"/>
				</g>
			</g>
			<g class="st12">
				<path class="st13" d="M701.61,1010.84c-0.62,6.96,2.71,14.09,8.37,17.96c5.66,3.86,13.44,4.29,19.57,1.09
					c-10.16-4.07-18.61-12.31-23.05-22.47"/>
				<g>
					<path class="st13" d="M697.43,1012.72c-0.49,7.77,2.88,15.43,9.22,19.78c6.72,4.61,15.54,4.6,22.79,1.05
						c1.8-0.88,6.83-6.05,3.11-7.6c-9.72-4.04-17.58-11.57-21.98-21.29c-1.89-4.17-9.74,2-8.14,5.52
						c4.87,10.76,13.34,19.15,24.12,23.65c1.04-2.53,2.07-5.06,3.11-7.6c-11.91,5.82-24.67-4.45-23.87-17.26
						c0.15-2.4-2.47-2.45-4.08-1.79C699.63,1008.04,697.58,1010.36,697.43,1012.72L697.43,1012.72z"/>
				</g>
			</g>
		</g>
		<g id="Ebene_4_1_">
			<g>
				<g>
					<path class="st10" d="M701.44,783.53c38.25-30.33,75.95-61.4,112.39-93.97c36.55-32.67,71.85-66.86,104.93-103.19
						c32.68-35.9,63.94-73.82,90.52-114.65c13.31-20.46,25.77-43.79,25.95-68.86c0.14-18.93-7.73-39.32-23.03-50.55
						c-16.07-11.79-36.29-10.01-53.03-0.01c-19.74,11.79-31.16,33-37.44,54.7c-1.72,5.94-3.09,11.97-4.32,18.03
						c-1.15,5.67,6.3,2.3,7.61-0.73c9.06-20.98,18.71-43.45,15.71-66.78c-2.45-19.01-13.62-36.74-32.77-41.29
						c-19.07-4.53-39.34,2.97-54.44,15.11c-16.34,13.15-27.76,31.47-34.77,51.24c-15.69,44.2-7.6,92.32-2.07,137.38
						c5.9,48.02,12.73,95.91,18.56,143.95c5.8,47.81,10.74,95.81,12.49,144.02c0.21,5.84,0.37,11.67,0.49,17.51
						c0.1,5.17,8.44,0.05,8.37-3.76c-0.88-45.82-4.95-91.47-10.1-136.92c-5.19-45.84-11.55-91.52-17.49-137.26
						c-2.91-22.43-5.79-44.89-8.22-67.39c-2.48-22.86-4.06-46.04-1.17-69.01c4.62-36.59,24.98-80.31,64.59-87.25
						c8.93-1.57,18.28-0.71,26.4,3.4c8.03,4.06,14.08,11.28,17.68,19.57c8.51,19.62,3.86,41.13-3.52,60.5
						c-2.14,5.62-4.54,11.14-6.92,16.67c2.53-0.25,5.07-0.48,7.61-0.73c4.32-21.42,10.9-44.61,27.97-59.36
						c13.79-11.91,33.28-15.83,49.06-6.22c15.51,9.43,23.93,29.01,24.36,46.99c0.56,23.64-11.19,45.93-23.75,65.16
						c-25.36,38.81-54.9,75.12-85.9,109.4c-31.17,34.46-64.36,66.98-98.73,98.11c-34.26,31.03-69.69,60.69-105.73,89.54
						c-4.4,3.53-8.83,7.05-13.24,10.55c-1.55,1.23-3.91,3.55-3.1,5.81C697.16,785.35,700.11,784.59,701.44,783.53L701.44,783.53z"/>
				</g>
			</g>
			<g>
				<g>
					<path class="st10" d="M1088.91,327.8c22.75,34.6,30,79.17,19.39,119.78c-0.56,2.14,0.75,3.49,2.85,3.13
						c2.22-0.38,4.61-2.7,5.18-4.91c11.12-42.54,3.74-88.69-20.09-124.95C1094.12,317.61,1086.59,324.26,1088.91,327.8
						L1088.91,327.8z"/>
				</g>
			</g>
			<g>
				<g>
					<path class="st10" d="M679.25,371.57c-14.03,35.44-16.82,75.03-8.32,111.94c2.43,10.54,5.81,20.82,10.07,30.72
						c1.8,4.19,9.67-1.95,8.14-5.52c-14.57-33.84-18.51-72.33-10.92-108.77c2.14-10.29,5.19-20.37,9.05-30.14
						c0.84-2.13-0.96-3.46-2.85-3.13C681.99,367.08,680.12,369.37,679.25,371.57L679.25,371.57z"/>
				</g>
			</g>
		</g>
	</g>
	<g>
		<g>
			<path class="st14" d="M1004.45,750.35c9.13,14.61,18.27,29.23,27.4,43.84c6.93,11.08,22.62,16.44,34.2,8.97
				c11.1-7.16,16.38-22.34,8.97-34.2c-9.13-14.61-18.27-29.23-27.4-43.84c-6.93-11.08-22.62-16.44-34.2-8.97
				C1002.32,723.3,997.04,738.48,1004.45,750.35L1004.45,750.35z"/>
		</g>
	</g>
	<g>
		<g>
			<path class="st14" d="M1166.52,650.19c10.99,7.87,21.98,15.74,32.97,23.61c10.67,7.64,28.3,2.22,34.2-8.97
				c6.82-12.91,2.42-26.05-8.97-34.2c-10.99-7.87-21.98-15.74-32.97-23.61c-10.67-7.64-28.3-2.22-34.2,8.97
				C1150.73,628.89,1155.13,642.04,1166.52,650.19L1166.52,650.19z"/>
		</g>
	</g>
	<g>
		<g>
			<path class="st14" d="M1231.78,489.68c17.05-3.04,34.1-6.09,51.14-9.13c12.91-2.3,21.35-18.73,17.46-30.75
				c-4.49-13.86-16.93-19.93-30.75-17.46c-17.05,3.04-34.1,6.09-51.14,9.13c-12.91,2.3-21.35,18.73-17.46,30.75
				C1205.52,486.08,1217.95,492.15,1231.78,489.68L1231.78,489.68z"/>
		</g>
	</g>
	<g>
		<g>
			<path class="st14" d="M1210.09,302.26c13.99-9.15,27.99-18.3,41.98-27.45c10.93-7.15,16.54-22.46,8.97-34.2
				c-7.04-10.91-22.5-16.62-34.2-8.97c-13.99,9.15-27.99,18.3-41.98,27.45c-10.93,7.15-16.54,22.46-8.97,34.2
				C1182.92,304.21,1198.38,309.91,1210.09,302.26L1210.09,302.26z"/>
		</g>
	</g>
	<g>
		<g>
			<path class="st14" d="M1073.2,153.06c5.48-12.18,10.96-24.35,16.44-36.53c2.84-6.32,4.43-12.32,2.52-19.26
				c-1.6-5.8-6.08-12.08-11.49-14.94c-10.92-5.77-28.48-3.76-34.2,8.97c-5.48,12.18-10.96,24.35-16.44,36.53
				c-2.84,6.32-4.43,12.32-2.52,19.26c1.6,5.8,6.08,12.08,11.49,14.94C1049.92,167.8,1067.47,165.79,1073.2,153.06L1073.2,153.06z"
				/>
		</g>
	</g>
	<g>
		<g>
			<path class="st14" d="M855.59,111.21c0.61-10.96,1.22-21.92,1.83-32.88c0.73-13.08-12.02-25.58-25-25
				c-14.17,0.63-24.22,10.99-25,25c-0.61,10.96-1.22,21.92-1.83,32.88c-0.73,13.08,12.02,25.58,25,25
				C844.76,135.58,854.82,125.22,855.59,111.21L855.59,111.21z"/>
		</g>
	</g>
	<g>
		<g>
			<path class="st14" d="M631.16,186.27c-7.31-9.74-14.61-19.48-21.92-29.23c-4.06-5.41-8.16-9.62-14.94-11.49
				c-5.98-1.65-13.95-0.9-19.26,2.52c-10.32,6.65-17.36,23.02-8.97,34.2c7.31,9.74,14.61,19.48,21.92,29.23
				c4.06,5.41,8.16,9.62,14.94,11.49c5.98,1.65,13.95,0.9,19.26-2.52C632.51,213.83,639.56,197.46,631.16,186.27L631.16,186.27z"/>
		</g>
	</g>
	<g>
		<g>
			<path class="st14" d="M531.04,326.57c-12.79-0.02-25.57-0.03-38.36-0.05c-13.08-0.02-25.6,11.51-25,25
				c0.61,13.56,10.98,24.98,25,25c12.79,0.02,25.57,0.03,38.36,0.05c13.08,0.02,25.6-11.51,25-25
				C555.43,338.01,545.05,326.59,531.04,326.57L531.04,326.57z"/>
		</g>
	</g>
	<g>
		<g>
			<path class="st14" d="M542.46,479.33c-13.99,5.51-27.98,11.03-41.97,16.54c-6.26,2.47-11.42,5.47-14.94,11.49
				c-3.14,5.36-4.46,13.26-2.52,19.26c3.81,11.76,17.73,22.59,30.75,17.46c13.99-5.51,27.98-11.03,41.97-16.54
				c6.26-2.47,11.42-5.47,14.94-11.49c3.14-5.36,4.46-13.26,2.52-19.26C569.4,485.02,555.49,474.19,542.46,479.33L542.46,479.33z"/>
		</g>
	</g>
	<g>
		<g>
			<path class="st14" d="M588.32,620.47c-12.79,4.26-25.57,8.52-38.36,12.79c-12.38,4.13-21.77,17.43-17.46,30.75
				c3.99,12.33,17.47,21.89,30.75,17.46c12.79-4.26,25.57-8.52,38.36-12.79c12.38-4.13,21.77-17.43,17.46-30.75
				C615.08,625.6,601.6,616.04,588.32,620.47L588.32,620.47z"/>
		</g>
	</g>
</g>
</svg>
