<?xml version="1.0" encoding="utf-8"?>
<!-- Generator: Adobe Adobe Illustrator 24.2.0, SVG Export Plug-In . SVG Version: 6.00 Build 0)  -->
<svg version="1.1" xmlns="http://www.w3.org/2000/svg" xmlns:xlink="http://www.w3.org/1999/xlink" x="0px" y="0px"
	 viewBox="0 0 1700.79 1700.79" style="enable-background:new 0 0 1700.79 1700.79;" xml:space="preserve">
<style type="text/css">
	.st0{display:none;}
	.st1{stroke:#000000;stroke-width:1.2421;stroke-miterlimit:10;}
	.st2{stroke:#000000;stroke-width:1.2417;stroke-miterlimit:10;}
	.st3{fill:#FFFFFF;stroke:#FFFFFF;stroke-width:1.06;stroke-miterlimit:10;}
	.st4{fill:#FFFFFF;stroke:#FFFFFF;stroke-width:1.0139;stroke-miterlimit:10;}
	.st5{stroke:#000000;stroke-width:0.5238;stroke-miterlimit:10;}
	.st6{fill:#FFFFFF;stroke:#FFFFFF;stroke-width:0.138;stroke-miterlimit:10;}
	.st7{opacity:0.149;}
	.st8{fill:#C9316B;}
	.st9{fill:#F4F5E8;}
	.st10{fill:#6379B8;}
	.st11{fill:#F3C057;stroke:#000000;stroke-width:2.8084;stroke-miterlimit:10;}
	.st12{fill:#C8316B;}
	.st13{fill:#6478B7;}
	.st14{fill:#6378B7;}
</style>
<g id="Ebene_4" class="st0">
</g>
<g id="Ebene_6">
	<g>
		<circle class="st1" cx="917.22" cy="1150.9" r="270"/>
		
			<ellipse transform="matrix(0.9847 -0.1742 0.1742 0.9847 -207.3295 99.7159)" class="st2" cx="464.41" cy="1231" rx="269.84" ry="270"/>
		
			<ellipse transform="matrix(0.9847 -0.1742 0.1742 0.9847 -202.2704 101.405)" class="st3" cx="476.56" cy="1203.02" rx="232.87" ry="227.99"/>
		
			<ellipse transform="matrix(0.9847 -0.1742 0.1742 0.9847 -181.0035 180.5121)" class="st4" cx="937.86" cy="1121.42" rx="215.46" ry="225.46"/>
		
			<ellipse transform="matrix(0.9847 -0.1742 0.1742 0.9847 -166.4827 189.1996)" class="st5" cx="994.61" cy="1043.04" rx="115" ry="112.73"/>
		
			<ellipse transform="matrix(0.9847 -0.1742 0.1742 0.9847 -187.5314 110.9043)" class="st5" cx="538.05" cy="1123.8" rx="115" ry="112.73"/>
		<circle class="st6" cx="1014.18" cy="981.42" r="30"/>
		<circle class="st6" cx="582.66" cy="1067.85" r="30"/>
		<g>
			<g>
				<path d="M1088.2,932.46c14.62-19.28,29.25-38.57,43.87-57.85c4.9-6.46,1.02-16.78-5.38-20.52c-7.7-4.5-15.61-1.09-20.52,5.38
					c-14.62,19.28-29.25,38.57-43.87,57.85c-4.9,6.46-1.02,16.78,5.38,20.52C1075.38,942.34,1083.29,938.94,1088.2,932.46
					L1088.2,932.46z"/>
			</g>
		</g>
		<g>
			<g>
				<path d="M1121.96,971.69c17.54-18.09,35.07-36.18,52.61-54.27c5.64-5.82,5.79-15.42,0-21.21c-5.68-5.68-15.56-5.84-21.21,0
					c-17.54,18.09-35.07,36.18-52.61,54.27c-5.64,5.82-5.79,15.42,0,21.21C1106.42,977.37,1116.3,977.53,1121.96,971.69
					L1121.96,971.69z"/>
			</g>
		</g>
		<g>
			<g>
				<path d="M1148.97,1012.82c23.81-16.29,47.62-32.58,71.43-48.88c6.68-4.57,9.68-13.18,5.38-20.52
					c-3.87-6.62-13.81-9.98-20.52-5.38c-23.81,16.29-47.62,32.59-71.43,48.88c-6.68,4.57-9.68,13.18-5.38,20.52
					C1132.32,1014.06,1142.25,1017.42,1148.97,1012.82L1148.97,1012.82z"/>
			</g>
		</g>
		<g>
			<g>
				<path d="M1169.77,1056.79c27-11.71,54.01-23.42,81.01-35.12c7.43-3.22,9.12-14.13,5.38-20.52c-4.49-7.68-13.06-8.62-20.52-5.38
					c-27,11.71-54.01,23.42-81.01,35.12c-7.43,3.22-9.12,14.13-5.38,20.52C1153.74,1059.09,1162.31,1060.03,1169.77,1056.79
					L1169.77,1056.79z"/>
			</g>
		</g>
		<g>
			<g>
				<path d="M291.47,1027.6c-17.44-20.01-34.87-40.01-52.31-60.02c-5.33-6.11-15.76-5.45-21.21,0c-6.06,6.06-5.34,15.09,0,21.21
					c17.44,20.01,34.87,40.01,52.31,60.02c5.33,6.11,15.76,5.45,21.21,0C297.53,1042.75,296.81,1033.73,291.47,1027.6L291.47,1027.6
					z"/>
			</g>
		</g>
		<g>
			<g>
				<path d="M246.23,1074.72c-22.26-13.24-44.53-26.47-66.79-39.71c-6.96-4.14-16.46-1.57-20.52,5.38
					c-4.13,7.06-1.6,16.37,5.38,20.52c22.26,13.24,44.53,26.47,66.79,39.71c6.96,4.14,16.46,1.57,20.52-5.38
					C255.74,1088.18,253.22,1078.87,246.23,1074.72L246.23,1074.72z"/>
			</g>
		</g>
		<g>
			<g>
				<path d="M213.54,1132.71c-25.46-5.68-50.93-11.35-76.39-17.03c-7.64-1.7-16.59,2.31-18.45,10.48
					c-1.73,7.6,2.29,16.63,10.48,18.45c25.46,5.68,50.93,11.35,76.39,17.03c7.64,1.7,16.59-2.31,18.45-10.48
					C225.74,1143.56,221.73,1134.53,213.54,1132.71L213.54,1132.71z"/>
			</g>
		</g>
		<g>
			<g>
				<path d="M197.62,1201.64c-19.77,0.78-39.54,1.56-59.3,2.35c-7.83,0.31-15.37,6.68-15,15c0.35,7.86,6.6,15.33,15,15
					c19.77-0.78,39.54-1.56,59.3-2.35c7.83-0.31,15.37-6.68,15-15C212.26,1208.78,206.01,1201.31,197.62,1201.64L197.62,1201.64z"/>
			</g>
		</g>
		<g>
			<g>
				<path d="M124.36,1204.48c-0.88,0.16-1.75,0.31-2.63,0.47c-1.95,0.46-3.65,1.36-5.1,2.68c-1.63,1.06-2.92,2.46-3.86,4.21
					c-1.1,1.72-1.69,3.58-1.78,5.58c-0.45,1.99-0.36,3.99,0.27,5.98c0.5,1.19,1.01,2.39,1.51,3.58c1.33,2.25,3.13,4.05,5.38,5.38
					c1.19,0.5,2.39,1.01,3.58,1.51c2.66,0.71,5.32,0.71,7.98,0c0.88-0.16,1.75-0.31,2.63-0.47c1.95-0.46,3.65-1.36,5.1-2.68
					c1.63-1.06,2.92-2.46,3.86-4.21c1.1-1.72,1.69-3.58,1.78-5.58c0.45-1.99,0.36-3.99-0.27-5.98c-0.5-1.19-1.01-2.39-1.51-3.58
					c-1.33-2.25-3.13-4.05-5.38-5.38c-1.19-0.5-2.39-1.01-3.58-1.51C129.68,1203.76,127.02,1203.76,124.36,1204.48L124.36,1204.48z"
					/>
			</g>
		</g>
	</g>
</g>
<g id="Ebene_3">
	<g>
		<g id="Ebene_3_Kopie">
			<g class="st7">
				<path d="M717.12,830.73c0.71,51.61-9.17,103.29-29.17,152.6c72.82-31.68,137.39-74.29,188.9-124.67"/>
				<g>
					<path d="M714.18,832.2c0.51,40-5.36,79.94-17.23,118.5c-3.37,10.94-7.27,21.75-11.59,32.42c-0.75,1.85-0.05,4.4,2.64,3.22
						c28.32-12.34,55.69-26.42,81.76-42.23c25.51-15.48,49.83-32.54,72.51-51.2c12.54-10.31,24.57-21.11,36.07-32.34
						c1.06-1.04,2.13-3.37,1.03-4.65c-1.19-1.39-3.12-0.03-4.04,0.86c-20.2,19.73-42.17,37.99-65.49,54.74
						c-23.81,17.11-49.04,32.6-75.36,46.46c-15.19,8-30.75,15.44-46.6,22.35c0.88,1.07,1.76,2.15,2.64,3.22
						c15.59-38.55,25.27-78.9,28.44-119.8c0.89-11.47,1.24-22.98,1.1-34.48c-0.02-1.6-1.48-2.22-3-1.55
						C715.37,828.48,714.16,830.54,714.18,832.2L714.18,832.2z"/>
				</g>
			</g>
			<g class="st7">
				<path d="M851.24,880.36c73.23,0.83,147.3-8.53,214.91-33.68s128.54-66.79,167.54-122.19c39-55.39,54.58-124.92,35.72-188.15
					c-20.03-67.15-77.54-122.82-147.36-153.43c-69.82-30.62-150.72-37.64-227.72-27.92c-86.67,10.93-171.25,43.5-233.16,98.78
					s-99.09,134.29-90.72,212.14s65.72,151.91,147.74,179.2"/>
				<g>
					<path d="M850.01,883.28c71.16,0.75,143.21-7.89,209.58-31.56c57.23-20.41,109.9-52.08,149.79-94.31
						c41.52-43.95,67.64-99.37,70.37-157.08c1.33-28.12-3.13-56.46-13.83-82.96c-9.82-24.33-24.57-46.99-42.83-67.03
						c-38.93-42.72-92.52-72.65-151.36-88.32c-64.96-17.3-134.88-17.82-201.13-6.27c-62.14,10.83-122.24,32.97-172.99,67.03
						c-50.39,33.82-90.14,79.76-112.24,132.63c-21.18,50.66-25.38,107.06-6.5,158.81c17.41,47.71,52.78,90.76,100.69,117.41
						c11.65,6.48,23.99,11.91,36.85,16.22c2.82,0.95,6.18-4.66,3.58-5.54c-51.99-17.43-93.92-53.46-119.66-97.05
						c-27.41-46.4-34.65-99.81-22.85-151.04c12.4-53.83,44.35-103.75,88.48-141.84c44.93-38.78,101.31-65.85,161-81.62
						c62.39-16.49,129.3-21.6,193.7-12.65c61.68,8.58,120.72,31,167.44,68.41c43.23,34.61,74.65,81.15,83.82,132.7
						c10.04,56.5-5.99,115.65-39.76,163.84c-32.17,45.89-79.83,82.1-133.2,107.17c-60.47,28.4-128.45,42.28-196.33,46.09
						c-16.7,0.94-33.43,1.27-50.15,1.09C849.68,877.41,846.93,883.25,850.01,883.28L850.01,883.28z"/>
				</g>
			</g>
			<g class="st7">
				<path class="st8" d="M910.31,603.7c4.52-36.61-25.86-73.45-65.85-82.39s-84.91,9.47-105.49,41.38s-16.65,74.47,7.56,104.27
					c19.87,24.46,50.6,39.74,80.66,53.6c42.81,19.74,86.37,38.18,130.56,55.31c5.44,2.11,11.33,4.24,17.13,3.15
					c7.38-1.39,12.27-7.48,16.43-13.11c31.45-42.56,62.89-85.12,94.33-127.68c16.61-22.48,33.8-46.5,34.82-73.43
					c0.86-22.73-10.51-45.18-28.55-61.23c-30.67-27.3-80.84-35.25-120.15-19.04c-39.31,16.21-65.09,55.49-61.75,94.06"/>
				<g>
					<path d="M912.81,603.13c3.93-33.22-18.74-66.31-52.46-80.14c-34.23-14.04-75.41-5.25-102.93,16.59
						c-29.93,23.76-40.41,61.42-30.79,95.67c4.96,17.65,15.24,33.55,29.45,46.53c14.83,13.55,32.82,23.88,51.29,32.99
						c20.81,10.27,42.21,19.65,63.58,28.94c22.49,9.77,45.18,19.2,68.04,28.26c5.92,2.35,11.83,4.7,17.78,6.97
						c5.25,2,10.82,3.87,16.62,3.08c10.46-1.42,16.57-10.84,21.86-18c14.15-19.15,28.3-38.3,42.45-57.45
						c14.15-19.15,28.3-38.3,42.45-57.45c12.76-17.27,26.33-34.47,34.96-53.8c8.02-17.98,10.51-37.4,4.4-56.15
						c-5.71-17.51-17.75-33.21-33.64-44.61c-29.56-21.21-72.28-27.28-107.69-15.08c-35.76,12.33-62.04,42.45-69.14,75.86
						c-1.72,8.07-2.28,16.34-1.6,24.54c0.31,3.78,5.36-0.1,5.16-2.56c-2.65-32.1,15.03-64.54,44.71-82.76
						c30.24-18.56,70.7-19.95,103.64-6.27c35.25,14.65,61.35,48.45,56.38,84c-2.64,18.91-12.93,36.01-24.09,51.93
						c-12.67,18.07-26.18,35.69-39.33,53.49c-13.54,18.32-27.08,36.65-40.61,54.97c-6.81,9.22-13.62,18.44-20.44,27.66
						c-4.98,6.74-10.53,16.57-21.1,16.02c-6.09-0.32-11.82-3.09-17.31-5.24c-5.38-2.1-10.74-4.22-16.1-6.36
						c-11-4.39-21.95-8.86-32.87-13.41c-21.82-9.1-43.48-18.53-64.95-28.29c-35.66-16.19-75.16-33.34-96.63-65.06
						c-19.37-28.63-21.69-67.26-1.85-96.2c18.32-26.73,54.97-42.74,89.81-39.38c35.45,3.42,65.71,28.43,74.12,59.17
						c2.02,7.39,2.71,15.09,1.82,22.66C907.31,608.43,912.49,605.9,912.81,603.13L912.81,603.13z"/>
				</g>
			</g>
			<g class="st7">
				<g>
					<path d="M1222.76,582.04c7.37,29.28,4.94,60.22-7.01,88.26c-0.44,1.04-0.59,2.88,1.04,3.11c1.6,0.23,3.03-1.65,3.5-2.74
						c12.52-29.39,15.16-61.77,7.44-92.45c-0.37-1.49-2.24-1-3.19-0.32C1223.26,578.84,1222.39,580.58,1222.76,582.04
						L1222.76,582.04z"/>
				</g>
			</g>
			<g class="st7">
				<g>
					<path d="M1206.42,704.74c-14.19,22.79-33.8,42.57-57.33,57.99c-2.51,1.64-2.37,6.93,1.4,4.45
						c24.47-16.04,44.9-36.83,59.65-60.52c0.6-0.97,1.35-3-0.07-3.73C1208.68,702.22,1207.01,703.81,1206.42,704.74L1206.42,704.74z
						"/>
				</g>
			</g>
			<g class="st7">
				<g>
					<path d="M631.53,609.84c0.97-29.31,10.2-58.28,26.59-83.68c4.69-7.26,9.95-14.2,15.75-20.79c0.86-0.98,1.91-2.9,0.9-4.07
						c-1-1.17-2.8-0.09-3.53,0.75c-21.48,24.41-36.03,53.56-41.95,84.17c-1.67,8.65-2.63,17.41-2.92,26.18
						c-0.05,1.42,1.34,1.93,2.63,1.36C630.53,613.08,631.48,611.31,631.53,609.84L631.53,609.84z"/>
				</g>
			</g>
		</g>
		<g id="Ebene_3_1_">
			<g>
				<path class="st9" d="M745.74,800.9c0.71,51.61-9.17,103.29-29.17,152.6c72.82-31.68,137.39-74.29,188.9-124.67"/>
				<g>
					<path d="M742.8,802.36c0.51,40-5.36,79.94-17.23,118.5c-3.37,10.94-7.27,21.75-11.59,32.42c-0.75,1.85-0.05,4.4,2.64,3.22
						c28.32-12.34,55.69-26.42,81.76-42.23c25.51-15.48,49.83-32.54,72.51-51.2c12.54-10.31,24.57-21.11,36.07-32.34
						c1.06-1.04,2.13-3.37,1.03-4.65c-1.19-1.39-3.12-0.03-4.04,0.86c-20.2,19.73-42.17,37.99-65.49,54.74
						c-23.81,17.11-49.04,32.6-75.36,46.46c-15.19,8-30.75,15.44-46.6,22.35c0.88,1.07,1.77,2.15,2.64,3.22
						c15.59-38.55,25.27-78.9,28.44-119.8c0.89-11.47,1.24-22.98,1.1-34.48c-0.02-1.6-1.48-2.22-3-1.55
						C743.99,798.64,742.78,800.71,742.8,802.36L742.8,802.36z"/>
				</g>
			</g>
			<g>
				<path class="st9" d="M879.86,850.52c73.23,0.83,147.3-8.53,214.91-33.68s128.54-66.79,167.54-122.19
					c39-55.39,54.58-124.92,35.72-188.15c-20.03-67.15-77.54-122.82-147.36-153.43c-69.82-30.62-150.72-37.64-227.72-27.92
					c-86.67,10.93-171.25,43.5-233.16,98.78s-99.09,134.29-90.72,212.14s65.72,151.91,147.74,179.2"/>
				<g>
					<path d="M878.63,853.45c71.16,0.75,143.21-7.89,209.59-31.56c57.23-20.41,109.9-52.08,149.79-94.31
						c41.52-43.95,67.64-99.37,70.37-157.08c1.33-28.12-3.13-56.46-13.83-82.96c-9.82-24.33-24.57-46.99-42.83-67.03
						c-38.93-42.72-92.52-72.65-151.36-88.32c-64.96-17.3-134.88-17.82-201.13-6.27c-62.14,10.83-122.24,32.97-172.99,67.03
						c-50.39,33.82-90.14,79.76-112.24,132.63c-21.18,50.66-25.38,107.06-6.5,158.81c17.41,47.71,52.78,90.76,100.69,117.41
						c11.65,6.48,23.99,11.91,36.85,16.22c2.82,0.95,6.18-4.66,3.58-5.54c-51.99-17.43-93.92-53.46-119.66-97.05
						c-27.41-46.4-34.65-99.81-22.85-151.04c12.4-53.83,44.35-103.75,88.48-141.84c44.93-38.78,101.31-65.85,161-81.62
						c62.39-16.49,129.3-21.6,193.7-12.65c61.68,8.58,120.72,31,167.44,68.41c43.23,34.61,74.65,81.15,83.82,132.7
						c10.04,56.5-5.99,115.65-39.76,163.84c-32.17,45.89-79.83,82.1-133.2,107.17c-60.47,28.4-128.45,42.28-196.33,46.09
						c-16.7,0.94-33.43,1.27-50.15,1.09C878.3,847.57,875.55,853.42,878.63,853.45L878.63,853.45z"/>
				</g>
			</g>
			<g>
				<path class="st8" d="M938.93,573.86c4.52-36.61-25.86-73.45-65.85-82.39s-84.91,9.47-105.49,41.38s-16.65,74.47,7.56,104.27
					c19.87,24.46,50.6,39.74,80.66,53.6c42.81,19.74,86.37,38.18,130.56,55.31c5.44,2.11,11.33,4.24,17.13,3.15
					c7.38-1.39,12.27-7.48,16.43-13.11c31.45-42.56,62.89-85.12,94.33-127.68c16.61-22.48,33.8-46.5,34.82-73.43
					c0.86-22.73-10.51-45.18-28.55-61.23c-30.67-27.3-80.84-35.25-120.15-19.04c-39.31,16.21-65.09,55.49-61.75,94.06"/>
				<g>
					<path d="M941.43,573.29c3.93-33.22-18.74-66.31-52.46-80.14c-34.23-14.04-75.41-5.25-102.93,16.59
						c-29.93,23.76-40.41,61.42-30.79,95.67c4.96,17.65,15.24,33.55,29.45,46.53c14.83,13.55,32.82,23.88,51.29,32.99
						c20.81,10.27,42.21,19.65,63.58,28.94c22.49,9.77,45.18,19.2,68.04,28.26c5.92,2.35,11.83,4.7,17.78,6.97
						c5.25,2,10.82,3.87,16.62,3.08c10.46-1.42,16.57-10.84,21.86-18c14.15-19.15,28.3-38.3,42.45-57.45
						c14.15-19.15,28.3-38.3,42.45-57.45c12.76-17.27,26.33-34.47,34.96-53.8c8.02-17.98,10.51-37.4,4.4-56.15
						c-5.71-17.51-17.75-33.21-33.64-44.61c-29.56-21.21-72.28-27.28-107.69-15.08c-35.76,12.33-62.04,42.45-69.14,75.86
						c-1.72,8.07-2.28,16.34-1.6,24.54c0.31,3.78,5.36-0.1,5.16-2.56c-2.65-32.1,15.03-64.54,44.71-82.76
						c30.24-18.56,70.7-19.95,103.64-6.27c35.25,14.65,61.35,48.45,56.38,84c-2.64,18.91-12.93,36.01-24.09,51.93
						c-12.67,18.07-26.18,35.69-39.33,53.49c-13.54,18.32-27.08,36.65-40.61,54.97c-6.81,9.22-13.62,18.44-20.44,27.66
						c-4.98,6.74-10.53,16.57-21.1,16.02c-6.09-0.32-11.82-3.09-17.31-5.24c-5.38-2.1-10.74-4.22-16.1-6.36
						c-11-4.39-21.95-8.86-32.87-13.41c-21.82-9.1-43.48-18.53-64.95-28.29c-35.66-16.19-75.16-33.34-96.63-65.06
						c-19.37-28.63-21.69-67.26-1.85-96.2c18.32-26.73,54.97-42.74,89.81-39.38c35.45,3.42,65.71,28.43,74.12,59.17
						c2.02,7.39,2.71,15.09,1.82,22.66C935.93,578.59,941.11,576.06,941.43,573.29L941.43,573.29z"/>
				</g>
			</g>
			<g>
				<g>
					<path d="M1251.38,552.2c7.37,29.28,4.94,60.22-7.01,88.26c-0.44,1.04-0.59,2.88,1.04,3.11c1.6,0.23,3.03-1.65,3.5-2.74
						c12.52-29.39,15.16-61.77,7.44-92.45c-0.37-1.49-2.24-1-3.19-0.32C1251.88,549,1251.01,550.74,1251.38,552.2L1251.38,552.2z"/>
				</g>
			</g>
			<g>
				<g>
					<path d="M1235.05,674.91c-14.19,22.79-33.8,42.57-57.33,57.99c-2.51,1.64-2.37,6.93,1.4,4.45
						c24.47-16.04,44.9-36.83,59.65-60.52c0.6-0.97,1.35-3-0.07-3.73C1237.3,672.38,1235.63,673.97,1235.05,674.91L1235.05,674.91z"
						/>
				</g>
			</g>
			<g>
				<g>
					<path d="M660.15,580c0.97-29.31,10.2-58.28,26.59-83.68c4.69-7.26,9.95-14.2,15.75-20.79c0.86-0.98,1.91-2.9,0.9-4.07
						c-1-1.17-2.8-0.09-3.53,0.75c-21.48,24.41-36.03,53.56-41.95,84.17c-1.67,8.65-2.63,17.41-2.92,26.18
						c-0.05,1.42,1.34,1.93,2.63,1.36C659.15,583.24,660.1,581.47,660.15,580L660.15,580z"/>
				</g>
			</g>
			<g>
				<path class="st8" d="M1338.32,325.67c6.12-5.08,7.64-14.05,3.48-20.52s-13.59-9.81-21.59-7.65
					c-9.55,2.59-15.29,11.74-16.3,20.61c-1.01,8.88,1.69,17.71,3.79,26.43c2.1,8.72,3.6,18,0.3,26.42
					c20.55-9.55,39.86-21.23,57.41-34.74c6.59-5.07,13.54-12.31,10.76-19.68c-2.46-6.49-11.8-9.09-19.2-7.28
					c-7.39,1.8-13.23,6.75-18.73,11.51"/>
				<g>
					<path d="M1339.02,327.9c6.69-5.78,9.86-15.12,6.16-23.03c-3.34-7.15-11.94-11.52-20.53-10.86
						c-9.43,0.72-16.43,7.34-20.19,14.66c-4.46,8.67-3.72,18.3-1.75,27.44c2.42,11.21,7.26,23.33,3.01,34.68
						c-0.59,1.56-0.08,3.94,2.32,2.83c19.38-9.04,37.68-19.91,54.46-32.43c7.47-5.56,16.53-12.61,16.85-22.03
						c0.26-7.72-6.96-12.82-15.08-13.32c-10.81-0.66-19.53,6.49-26.74,12.73c-1.12,0.97-2.33,2.66-1.78,4.13
						c0.51,1.36,2.19,1.18,3.19,0.32c5.61-4.86,12.14-10.78,20.41-11.34c6.45-0.43,14.75,2.74,14.86,9.4
						c0.06,3.74-2.84,6.99-5.54,9.59c-3.08,2.95-6.72,5.48-10.21,8.03c-7.33,5.34-14.94,10.37-22.82,15.05
						c-8.93,5.31-18.18,10.17-27.69,14.6c0.77,0.94,1.55,1.88,2.32,2.83c3.12-8.35,2.44-16.99,0.61-25.51
						c-1.91-8.87-5.05-17.67-4.55-26.8c0.34-6.27,3.11-13.16,9.21-16.75c6.43-3.78,15.06-2.69,20.72,1.77
						c6.09,4.8,7.48,14.28,1.36,19.56c-1.12,0.97-2.33,2.66-1.78,4.13C1336.35,328.93,1338.03,328.76,1339.02,327.9L1339.02,327.9z"
						/>
				</g>
			</g>
			<g>
				<path class="st10" d="M1358.94,429.58c-1.7,13.64-11.33,26.3-24.91,32.73c6.47-2.57,14.33-2.12,20.39,1.16
					c6.06,3.28,10.15,9.3,10.6,15.61c1.14-12.7,11.58-24.33,25.21-28.08c-14.13,2.88-29.69-7.74-30.29-20.69"/>
				<g>
					<path d="M1356.43,430.15c-1.67,12.52-10.03,23.53-22.46,29.52c-2.31,1.11-3.92,6.79,0.1,5.27
						c12.57-4.74,27.26,3.32,28.36,15.41c0.33,3.61,4.88,0.23,5.09-1.85c1.15-11.38,9.88-21.15,22.1-24.64
						c1.62-0.46,2.83-1.97,3.11-3.44c0.22-1.19-0.25-2.62-1.9-2.31c-13.08,2.48-27.55-7.05-28.32-19.09
						c-0.09-1.39-1.25-1.97-2.63-1.36c-1.43,0.63-2.62,2.49-2.53,3.92c0.9,14.12,16.66,25.23,32.27,22.28
						c0.41-1.92,0.81-3.83,1.21-5.75c-15.25,4.35-26.88,17.25-28.32,31.53c1.7-0.62,3.39-1.23,5.09-1.85
						c-0.62-6.73-4.39-13.03-10.79-16.76c-6.84-3.99-15.45-4.14-22.83-1.36c0.03,1.76,0.07,3.52,0.1,5.27
						c14.85-7.16,25.38-20.95,27.38-35.93C1362,424.86,1356.8,427.4,1356.43,430.15L1356.43,430.15z"/>
				</g>
			</g>
			<path class="st11" d="M1393.85,744.74l7.36,20.27c0.31,0.87,1.23,1.46,2.25,1.46h23.81c2.29,0,3.24,2.62,1.39,3.82l-19.27,12.54
				c-0.83,0.54-1.17,1.49-0.86,2.36l7.36,20.28c0.71,1.95-1.79,3.56-3.64,2.36l-19.26-12.52c-0.83-0.54-1.95-0.54-2.78,0
				l-19.26,12.52c-1.85,1.21-4.35-0.41-3.64-2.36l7.36-20.28c0.31-0.87-0.03-1.82-0.86-2.36l-19.27-12.54
				c-1.85-1.2-0.9-3.82,1.39-3.82h23.81c1.03,0,1.93-0.59,2.25-1.46l7.36-20.27C1390.06,742.79,1393.15,742.79,1393.85,744.74z"/>
			<path class="st11" d="M794.58,257.57l7.36,20.27c0.31,0.87,1.23,1.46,2.25,1.46H828c2.29,0,3.24,2.62,1.39,3.82l-19.27,12.54
				c-0.83,0.54-1.17,1.49-0.86,2.36l7.36,20.28c0.71,1.95-1.79,3.56-3.64,2.36l-19.26-12.52c-0.83-0.54-1.95-0.54-2.78,0
				l-19.26,12.52c-1.85,1.21-4.35-0.41-3.64-2.36l7.36-20.28c0.31-0.87-0.03-1.82-0.86-2.36l-19.27-12.54
				c-1.85-1.2-0.9-3.82,1.39-3.82h23.81c1.03,0,1.93-0.59,2.25-1.46l7.36-20.27C790.79,255.63,793.88,255.63,794.58,257.57z"/>
			<path class="st11" d="M579.92,760.55l7.36,20.27c0.31,0.87,1.23,1.46,2.25,1.46h23.81c2.29,0,3.24,2.62,1.39,3.82l-19.27,12.54
				c-0.83,0.54-1.17,1.49-0.86,2.36l7.36,20.28c0.71,1.95-1.79,3.56-3.64,2.36l-19.26-12.52c-0.83-0.54-1.95-0.54-2.78,0
				l-19.26,12.52c-1.85,1.21-4.35-0.41-3.64-2.36l7.36-20.28c0.31-0.87-0.03-1.82-0.86-2.36l-19.27-12.54
				c-1.85-1.2-0.9-3.82,1.39-3.82h23.81c1.03,0,1.93-0.59,2.25-1.46l7.36-20.27C576.13,758.6,579.21,758.6,579.92,760.55z"/>
			<g>
				<path class="st12" d="M1243.26,903.42c-1.59-8.81-11.07-15.91-21.05-15.78c-9.98,0.13-19.22,7.48-20.53,16.32
					c-1.38,9.33,5.39,18.38,14.14,23.61c8.75,5.23,19.24,7.47,29.41,9.9c10.17,2.43,20.6,5.29,28.56,11.45
					c2.93-17.9,5.86-35.8,8.79-53.7c1.39-8.51,2.08-18.73-5.46-24.07c-7.79-5.52-20.13-1.71-25.92,5.51
					c-5.79,7.22-6.79,16.55-7.6,25.4"/>
				<g>
					<path d="M1245.74,901.52c-1.73-8.56-9.98-15.57-19.66-16.66c-10.05-1.13-19.8,4.75-24.29,12.54
						c-5.08,8.8-2.81,18.94,4.11,26.39c7.51,8.09,18.64,11.81,29.64,14.58c12.69,3.19,26.13,5.5,36.46,13.33
						c1.77,1.34,4.12-2.24,4.3-3.34c1.83-11.18,3.66-22.37,5.5-33.56c0.94-5.73,1.87-11.47,2.81-17.2
						c0.71-4.31,1.45-8.63,1.43-12.99c-0.03-7.49-2.88-15.87-11.73-18.33c-8.44-2.36-17.73,1.72-23.24,7.39
						c-7.88,8.1-9.11,19.45-10.05,29.68c-0.13,1.44,1.39,1.9,2.63,1.36c1.6-0.71,2.39-2.43,2.53-3.92
						c0.71-7.65,1.32-16.56,6.72-22.92c4.18-4.92,12.56-8.05,19.25-5.61c7.64,2.78,9,10.52,8.68,17.04
						c-0.21,4.15-1.05,8.27-1.72,12.37c-0.78,4.75-1.56,9.51-2.33,14.26c-1.83,11.18-3.66,22.37-5.5,33.56
						c1.43-1.11,2.87-2.23,4.3-3.34c-16.34-12.39-39.66-10.81-57.28-20.95c-7.65-4.4-14.53-12.06-14.22-20.58
						c0.28-7.5,7.73-13.4,15.88-14.02c9.88-0.75,19.09,6.17,20.81,14.71c0.31,1.51,2.29,0.97,3.19,0.32
						C1245.29,904.69,1246.05,903.01,1245.74,901.52L1245.74,901.52z"/>
				</g>
			</g>
			<g>
				<path class="st13" d="M1098.35,885.12c0.83,13.03-6.69,26.24-18.97,33.32c15.7-4.5,34.43,1.88,42.8,14.57
					c-6.36-13.04-1.24-29.75,11.67-38.07c-12.45,3.96-27.62-0.57-34.9-10.43"/>
				<g>
					<path d="M1095.77,886.4c0.61,11.59-5.52,22.98-16.43,29.4c-1.34,0.79-2.38,2.1-2.49,3.56c-0.08,1.01,0.47,2.36,1.94,1.95
						c15.36-4.25,32.9,1.83,41.19,14.11c1.59,2.35,5.56-2.51,4.7-4.32c-5.63-11.89-1.86-26.2,9.89-33.94
						c1.07-0.71,1.95-2.3,1.88-3.5c-0.06-0.92-0.76-1.97-1.97-1.59c-12.1,3.7-26.11-0.51-33.29-9.97c-1.76-2.31-6.01,2.76-4.44,4.83
						c7.84,10.33,23.3,14.93,36.51,10.89c-0.03-1.7-0.06-3.4-0.1-5.1c-14.11,9.31-20.34,27.65-13.45,42.21
						c1.57-1.44,3.13-2.88,4.7-4.32c-8.91-13.2-27.97-19.57-44.42-15.03c-0.19,1.84-0.37,3.67-0.56,5.51
						c13.73-8.09,22.27-22.48,21.49-37.23c-0.07-1.39-1.26-1.97-2.63-1.36C1096.87,883.12,1095.7,884.97,1095.77,886.4
						L1095.77,886.4z"/>
				</g>
			</g>
			<g>
				<path class="st14" d="M634.06,844.46c2.66,13.58-3.72,28.26-15.93,36.69c12.25-3.49,26.91,2.26,32.33,12.68
					c-1.06-12.08,5.21-24.48,16.06-31.74c-13.19,2.16-27.55-4.73-32.83-15.75"/>
				<g>
					<path d="M631.58,846.37c2.27,12.25-3.25,24.9-14.15,32.56c-1.06,0.75-1.95,2.27-1.87,3.5c0.06,0.94,0.75,1.93,1.97,1.59
						c11.94-3.24,25.33,2.23,30.72,12.22c0.57,1.05,2.28,0.28,2.92-0.19c1.06-0.78,1.97-2.25,1.87-3.5
						c-0.85-10.99,4.37-21.53,14.19-28.23c1.41-0.96,3.32-5.62-0.1-5.1c-12.4,1.89-25.84-4.47-30.95-14.78
						c-1.5-3.03-6.05,1.62-4.97,3.81c5.88,11.86,20.35,18.9,34.7,16.72c-0.03-1.7-0.06-3.4-0.1-5.1
						c-11.96,8.16-18.98,21.81-17.94,35.24c1.6-1.23,3.2-2.46,4.8-3.7c-5.92-10.96-20.97-16.65-33.94-13.14
						c0.03,1.7,0.06,3.4,0.1,5.1c13.59-9.55,20.53-25.61,17.71-40.82c-0.28-1.52-2.3-0.96-3.19-0.32
						C632.02,843.21,631.3,844.87,631.58,846.37L631.58,846.37z"/>
				</g>
			</g>
			<g>
				<path class="st10" d="M577.56,344.84c2.97,12.65-0.71,26.42-9.75,36.51c13.27-7.92,32.88-5.75,43.59,4.82
					c-9.78-9.96-9.78-26.44,0-36.4c-11.89,3.42-25.81,0.38-34.6-7.55"/>
				<g>
					<path d="M575.08,346.75c2.59,11.48-0.45,23.72-8.59,32.94c-0.79,0.89-1.61,2.38-1.16,3.57c0.37,0.98,1.55,1.3,2.53,0.73
						c12.74-7.42,30.97-5.38,41.32,4.6c2.22,2.14,6.22-2.97,4.44-4.83c-8.56-8.94-9.67-23.17-0.9-32.33
						c0.93-0.98,2.3-5.37-0.71-4.54c-11.43,3.16-24.44,0.45-32.99-7.1c-2.34-2.06-6.37,3.13-4.44,4.83
						c9.45,8.33,23.48,11.53,36.21,8.01c-0.24-1.51-0.47-3.02-0.71-4.54c-10.7,11.16-11.82,29.09-0.91,40.48
						c1.48-1.61,2.96-3.22,4.44-4.83c-11.56-11.15-31.59-13.34-45.86-5.04c0.46,1.43,0.91,2.86,1.37,4.3
						c9.93-11.27,14.09-25.98,10.92-40.08c-0.34-1.5-2.27-0.98-3.19-0.32C575.56,343.56,574.75,345.27,575.08,346.75L575.08,346.75z
						"/>
				</g>
			</g>
		</g>
	</g>
</g>
</svg>
