<?xml version="1.0" encoding="utf-8"?>
<!-- Generator: Adobe Adobe Illustrator 24.2.0, SVG Export Plug-In . SVG Version: 6.00 Build 0)  -->
<svg version="1.1" xmlns="http://www.w3.org/2000/svg" xmlns:xlink="http://www.w3.org/1999/xlink" x="0px" y="0px"
	 viewBox="0 0 170.08 170.08" style="enable-background:new 0 0 170.08 170.08;" xml:space="preserve">
<style type="text/css">
	.st0{fill:#592F7D;}
	.st1{fill:#5A2F7C;}
	.st2{fill:#D3E1EB;}
	.st3{fill:#D3E1ED;}
	.st4{fill:#5C646E;stroke:#000000;stroke-width:2.7043;stroke-miterlimit:10;}
	.st5{fill:#B6D2E0;stroke:#000000;stroke-width:2.1378;stroke-miterlimit:10;}
	.st6{fill:#3D4D5B;}
	.st7{opacity:0.0784;}
	.st8{opacity:0.1216;}
	.st9{fill:#FFFFFF;}
	.st10{stroke:#000000;stroke-width:0.159;stroke-miterlimit:10;}
	.st11{stroke:#000000;stroke-width:0.1589;stroke-miterlimit:9.9999;}
	.st12{fill:#FFFFFF;stroke:#FFFFFF;stroke-width:0.1357;stroke-miterlimit:9.9999;}
	.st13{fill:#FFFFFF;stroke:#FFFFFF;stroke-width:0.1298;stroke-miterlimit:9.9999;}
	.st14{stroke:#000000;stroke-width:0.067;stroke-miterlimit:9.9999;}
	.st15{fill:#FFFFFF;stroke:#FFFFFF;stroke-width:0.0177;stroke-miterlimit:10;}
	.st16{fill:#ECC9AD;}
	.st17{opacity:0.1608;}
	.st18{opacity:0.1686;}
	.st19{fill:#F0F6FA;}
	.st20{opacity:0.149;}
	.st21{opacity:0.0314;}
	.st22{stroke:#000000;stroke-width:0.0649;stroke-miterlimit:10;}
	.st23{fill:#F0F6FA;stroke:#F0F6FA;stroke-width:1.1522;stroke-miterlimit:10;}
	.st24{fill:#C8354F;}
	.st25{fill:#C93550;}
	.st26{fill:#6DB671;}
	.st27{fill:#6CB671;}
	.st28{fill:#D1DFEA;}
	.st29{fill:#C8354E;}
	.st30{fill:#F3C058;}
	.st31{fill:#C8AE9D;}
	.st32{opacity:0.1412;}
	.st33{fill:#D15238;}
	.st34{fill:#D15239;}
	.st35{opacity:0.9882;}
	.st36{fill:#ADBECF;}
	.st37{fill:#F3C057;}
	.st38{fill:#F7D98D;}
	.st39{fill:#AEBFCE;}
	.st40{opacity:0.2706;}
	.st41{fill:#3D4C5B;}
</style>
<g id="Ebene_6_11_">
</g>
<g id="Ebene_13_1_">
	<g id="Ebene_6_7_">
		<g>
			<ellipse class="st10" cx="109.71" cy="108.91" rx="35.7" ry="33.46"/>
			
				<ellipse transform="matrix(1.585883e-03 -1 1 1.585883e-03 -69.0733 168.4863)" class="st11" cx="49.84" cy="118.83" rx="33.46" ry="35.68"/>
			
				<ellipse transform="matrix(0.9991 -0.0428 0.0428 0.9991 -4.8921 2.3084)" class="st12" cx="51.45" cy="115.37" rx="30.77" ry="28.27"/>
			
				<ellipse transform="matrix(0.3028 -0.953 0.953 0.3028 -21.9261 180.533)" class="st13" cx="112.43" cy="105.25" rx="27.83" ry="28.6"/>
			
				<ellipse transform="matrix(0.9992 -0.0409 0.0409 0.9992 -3.8052 4.9827)" class="st14" cx="119.94" cy="95.54" rx="15.2" ry="13.98"/>
			
				<ellipse transform="matrix(0.9992 -0.0409 0.0409 0.9992 -4.2649 2.5236)" class="st14" cx="59.58" cy="105.55" rx="15.2" ry="13.98"/>
			<ellipse class="st15" cx="122.53" cy="87.9" rx="3.97" ry="3.72"/>
			<ellipse class="st15" cx="65.47" cy="98.62" rx="3.97" ry="3.72"/>
			<g>
				<g>
					<path d="M132.31,81.84c1.93-2.39,3.87-4.78,5.8-7.17c0.65-0.8,0.13-2.08-0.71-2.54c-1.02-0.56-2.06-0.14-2.71,0.67
						c-1.93,2.39-3.87,4.78-5.8,7.17c-0.65,0.8-0.13,2.08,0.71,2.54C130.62,83.06,131.66,82.64,132.31,81.84L132.31,81.84z"/>
				</g>
			</g>
			<g>
				<g>
					<path d="M136.77,86.7c2.32-2.24,4.64-4.48,6.96-6.73c0.75-0.72,0.77-1.91,0-2.63c-0.75-0.7-2.06-0.72-2.8,0
						c-2.32,2.24-4.64,4.48-6.96,6.73c-0.75,0.72-0.77,1.91,0,2.63C134.72,87.4,136.03,87.42,136.77,86.7L136.77,86.7z"/>
				</g>
			</g>
			<g>
				<g>
					<path d="M140.35,91.8c3.15-2.02,6.3-4.04,9.44-6.06c0.88-0.57,1.28-1.63,0.71-2.54c-0.51-0.82-1.83-1.24-2.71-0.67
						c-3.15,2.02-6.3,4.04-9.44,6.06c-0.88,0.57-1.28,1.63-0.71,2.54C138.14,91.95,139.46,92.37,140.35,91.8L140.35,91.8z"/>
				</g>
			</g>
			<g>
				<g>
					<path d="M143.1,97.25c3.57-1.45,7.14-2.9,10.71-4.35c0.98-0.4,1.21-1.75,0.71-2.54c-0.59-0.95-1.73-1.07-2.71-0.67
						c-3.57,1.45-7.14,2.9-10.71,4.35c-0.98,0.4-1.21,1.75-0.71,2.54C140.98,97.53,142.11,97.65,143.1,97.25L143.1,97.25z"/>
				</g>
			</g>
			<g>
				<g>
					<path d="M26.97,93.63c-2.31-2.48-4.61-4.96-6.92-7.44c-0.7-0.76-2.08-0.68-2.8,0c-0.8,0.75-0.71,1.87,0,2.63
						c2.31,2.48,4.61,4.96,6.92,7.44c0.7,0.76,2.08,0.68,2.8,0C27.78,95.51,27.68,94.39,26.97,93.63L26.97,93.63z"/>
				</g>
			</g>
			<g>
				<g>
					<path d="M20.99,99.47c-2.94-1.64-5.89-3.28-8.83-4.92c-0.92-0.51-2.18-0.19-2.71,0.67c-0.55,0.88-0.21,2.03,0.71,2.54
						c2.94,1.64,5.89,3.28,8.83,4.92c0.92,0.51,2.18,0.19,2.71-0.67C22.25,101.14,21.92,99.98,20.99,99.47L20.99,99.47z"/>
				</g>
			</g>
			<g>
				<g>
					<path d="M16.67,106.66c-3.37-0.7-6.73-1.41-10.1-2.11c-1.01-0.21-2.19,0.29-2.44,1.3c-0.23,0.94,0.3,2.06,1.39,2.29
						c3.37,0.7,6.73,1.41,10.1,2.11c1.01,0.21,2.19-0.29,2.44-1.3C18.28,108,17.75,106.88,16.67,106.66L16.67,106.66z"/>
				</g>
			</g>
			<g>
				<g>
					<path d="M14.57,115.2c-2.61,0.1-5.23,0.19-7.84,0.29c-1.04,0.04-2.03,0.83-1.98,1.86c0.05,0.97,0.87,1.9,1.98,1.86
						c2.61-0.1,5.23-0.19,7.84-0.29c1.04-0.04,2.03-0.83,1.98-1.86C16.5,116.08,15.68,115.16,14.57,115.2L14.57,115.2z"/>
				</g>
			</g>
			<g>
				<g>
					<path d="M4.88,115.55c-0.12,0.02-0.23,0.04-0.35,0.06c-0.26,0.06-0.48,0.17-0.67,0.33c-0.22,0.13-0.39,0.3-0.51,0.52
						c-0.15,0.21-0.22,0.44-0.24,0.69c-0.06,0.25-0.05,0.49,0.04,0.74c0.07,0.15,0.13,0.3,0.2,0.44c0.18,0.28,0.41,0.5,0.71,0.67
						c0.16,0.06,0.32,0.13,0.47,0.19c0.35,0.09,0.7,0.09,1.06,0c0.12-0.02,0.23-0.04,0.35-0.06c0.26-0.06,0.48-0.17,0.67-0.33
						c0.22-0.13,0.39-0.3,0.51-0.52c0.15-0.21,0.22-0.44,0.24-0.69c0.06-0.25,0.05-0.49-0.04-0.74c-0.07-0.15-0.13-0.3-0.2-0.44
						c-0.18-0.28-0.41-0.5-0.71-0.67c-0.16-0.06-0.32-0.13-0.47-0.19C5.58,115.46,5.23,115.46,4.88,115.55L4.88,115.55z"/>
				</g>
			</g>
		</g>
	</g>
</g>
<g id="Ebene_9_6_">
</g>
<g id="Ebene_3">
	<g>
		<g id="Ebene_2_Kopie_1_">
			<g>
				<path class="st24" d="M122.4,71.26c4.24,1.6,17.11,6.51,19.1,4.88c3.23-2.66,18.63-38.01,17.26-41.04
					c-2.88-6.34-55.04-28.19-61.69-24.06c-6,3.72-11.51,39.73-10.55,42.33c1.44,3.93,10.75,5.28,14.26,8.39
					c1.56,1.39,6.06,14.93,8.13,15.48c1.17,0.31,9.77-3.09,13.36-6.03"/>
				<g>
					<path class="st25" d="M122.28,71.61c4.16,1.57,8.33,3.14,12.62,4.3c1.03,0.28,2.07,0.53,3.13,0.71c0.78,0.14,1.59,0.26,2.4,0.2
						c0.5-0.04,0.99-0.14,1.39-0.52c0.31-0.29,0.56-0.66,0.81-1.01c0.8-1.17,1.49-2.43,2.16-3.69c0.96-1.8,1.87-3.64,2.75-5.49
						c2.13-4.45,4.12-8.98,6.01-13.55c1.66-4.02,3.28-8.09,4.58-12.25c0.4-1.29,0.8-2.61,0.99-3.95c0.05-0.38,0.09-0.79,0.03-1.16
						c-0.06-0.32-0.24-0.6-0.42-0.85c-0.52-0.71-1.22-1.28-1.89-1.81c-1-0.78-2.06-1.47-3.13-2.13c-2.99-1.85-6.12-3.46-9.26-4.99
						c-3.85-1.88-7.77-3.63-11.71-5.29c-4.1-1.72-8.24-3.34-12.43-4.82c-3.74-1.33-7.52-2.57-11.36-3.58
						c-2.79-0.73-5.65-1.43-8.56-1.57c-0.89-0.04-1.82-0.04-2.71,0.22c-0.92,0.27-1.63,0.98-2.22,1.81
						c-0.95,1.33-1.63,2.89-2.24,4.43c-0.8,2.04-1.46,4.14-2.05,6.26c-1.37,4.88-2.41,9.85-3.29,14.82
						c-0.72,4.06-1.37,8.17-1.7,12.26c-0.08,1.04-0.21,2.16-0.06,3.19c0.09,0.66,0.49,1.23,0.89,1.68c0.74,0.84,1.68,1.43,2.63,1.95
						c2.36,1.27,4.91,2.1,7.35,3.18c1.08,0.48,2.16,1.01,3.12,1.73c0.33,0.25,0.45,0.33,0.67,0.64c0.17,0.24,0.31,0.48,0.45,0.75
						c0.99,1.83,1.77,3.82,2.61,5.75c0.92,2.13,1.82,4.28,2.92,6.29c0.37,0.68,0.77,1.4,1.29,1.95c0.4,0.42,0.78,0.6,1.36,0.53
						c0.86-0.11,1.72-0.41,2.55-0.71c1.24-0.44,2.47-0.94,3.69-1.49c2.34-1.05,4.75-2.24,6.82-3.92c0.36-0.29-0.06-0.82-0.42-0.54
						c-1,0.82-2.1,1.47-3.2,2.08c-1.25,0.69-2.52,1.31-3.81,1.88c-1.16,0.51-2.34,0.99-3.53,1.39c-0.73,0.25-1.61,0.57-2.31,0.59
						c-0.04,0-0.09,0-0.13,0c-0.12,0,0.02,0.01-0.06-0.01c-0.04-0.01-0.07-0.03-0.11-0.04c0.08,0.04-0.07-0.05-0.1-0.07
						c-0.2-0.15-0.35-0.33-0.52-0.56c-0.5-0.66-0.9-1.41-1.28-2.17c-1.06-2.08-1.98-4.26-2.91-6.43c-0.77-1.79-1.5-3.66-2.47-5.32
						c-0.38-0.64-0.84-1.06-1.43-1.47c-0.99-0.68-2.08-1.19-3.17-1.67c-2.41-1.05-4.94-1.86-7.24-3.15c-0.89-0.5-1.8-1.09-2.45-1.93
						c-0.12-0.16-0.24-0.33-0.34-0.52c-0.05-0.1-0.1-0.21-0.14-0.31c-0.01-0.02-0.06-0.18-0.02-0.04c-0.03-0.13-0.05-0.26-0.06-0.39
						c-0.03-0.38-0.03-0.81-0.01-1.3c0.03-0.66,0.07-1.32,0.13-1.98c0.16-1.84,0.39-3.67,0.65-5.5c0.67-4.78,1.54-9.55,2.59-14.27
						c0.99-4.45,2.11-8.96,3.82-13.2c0.58-1.44,1.24-2.91,2.17-4.14c0.28-0.37,0.7-0.82,1.06-1.04c0.06-0.04,0.12-0.07,0.19-0.11
						c0.03-0.01,0.06-0.03,0.09-0.04c0.1-0.05-0.04,0.01,0.07-0.03c0.16-0.06,0.32-0.11,0.48-0.15c0.44-0.11,0.7-0.13,1.15-0.15
						c0.52-0.02,1.04-0.01,1.55,0.03c1.28,0.09,2.54,0.29,3.78,0.53c3.45,0.68,6.83,1.66,10.16,2.73c4.04,1.29,8.04,2.74,11.99,4.29
						c4.07,1.59,8.1,3.28,12.08,5.08c3.54,1.6,7.05,3.28,10.47,5.13c2.47,1.33,4.96,2.72,7.2,4.46c0.38,0.29,0.75,0.6,1.1,0.94
						c0.07,0.06,0.06,0.06,0.16,0.16c0.07,0.07,0.14,0.14,0.2,0.22c0.11,0.13,0.22,0.26,0.32,0.39c0.04,0.06,0.08,0.12,0.12,0.18
						c0.02,0.03,0.04,0.06,0.06,0.09c-0.06-0.1,0,0.01,0.02,0.03c0.02,0.05,0.05,0.1,0.07,0.15c0.04,0.09-0.01-0.07,0,0.01
						c0.01,0.03,0.01,0.06,0.02,0.1c0,0.04,0.02,0.26,0.02,0.13c0,0.09,0,0.18,0,0.27c-0.01,0.22-0.04,0.45-0.07,0.67
						c-0.19,1.24-0.6,2.59-1.01,3.86c-0.6,1.89-1.27,3.76-1.97,5.62c-1.71,4.52-3.58,8.98-5.54,13.4c-1.77,4-3.61,7.97-5.66,11.82
						c-0.66,1.25-1.35,2.5-2.14,3.66c-0.27,0.39-0.4,0.59-0.71,0.89c-0.13,0.13-0.2,0.17-0.35,0.22c-0.28,0.09-0.49,0.11-0.77,0.12
						c-0.83,0.03-1.65-0.1-2.45-0.26c-1.06-0.2-2.1-0.47-3.14-0.76c-2.36-0.66-4.68-1.44-6.99-2.26c-1.74-0.62-3.47-1.27-5.2-1.92
						C122.12,70.76,121.89,71.46,122.28,71.61L122.28,71.61z"/>
				</g>
			</g>
		</g>
		<g id="Ebene_7">
			<g class="st20">
				<g>
					<path class="st9" d="M141.81,31.5c1.24,0.69,2.54,1.25,3.82,1.84c0.35,0.16,0.71,0.33,1.06,0.5c0.17,0.08,0.34,0.17,0.51,0.25
						c0.09,0.04,0.17,0.08,0.26,0.13c0.28,0.14-0.24-0.12,0.05,0.02c0.66,0.34,1.31,0.7,1.94,1.11c0.29,0.19,0.58,0.39,0.86,0.6
						c0.12,0.1,0.25,0.2,0.37,0.3c0.06,0.05,0.11,0.1,0.17,0.15c0.23,0.21-0.16-0.17-0.02-0.02c0.19,0.21,0.38,0.41,0.54,0.65
						c0.03,0.05,0.06,0.11,0.1,0.16c-0.06-0.06-0.17-0.32-0.08-0.12c0.05,0.12,0.09,0.27,0.15,0.37c-0.03-0.06-0.09-0.38-0.05-0.16
						c0.01,0.06,0.02,0.11,0.03,0.17c0.06,0.32,0.04-0.31,0-0.09c-0.02,0.11-0.08,0.5-0.01,0.14c0.07-0.36,0.01-0.07-0.01,0.02
						c-0.02,0.08-0.04,0.16-0.06,0.24c-0.05,0.18-0.11,0.37-0.17,0.55c-0.8,2.49-1.86,4.91-2.88,7.31
						c-1.44,3.4-2.94,6.78-4.43,10.16c-1.42,3.19-2.84,6.38-4.25,9.58c-0.15,0.33-0.29,0.66-0.44,1c-0.31,0.72,0.14,1.65,0.77,1.83
						c0.74,0.21,1.38-0.23,1.71-1c1.37-3.16,2.78-6.3,4.18-9.45c1.54-3.47,3.08-6.94,4.57-10.43c1.1-2.58,2.23-5.17,3.13-7.83
						c0.23-0.68,0.52-1.47,0.52-2.19c0-1.68-1.07-2.86-2.19-3.75c-1.26-1-2.71-1.72-4.13-2.41c-1.32-0.64-2.67-1.22-3.98-1.87
						c-0.07-0.03-0.13-0.07-0.19-0.1c-0.2-0.1,0.31,0.16,0.07,0.04c-0.12-0.07-0.25-0.13-0.37-0.2c-0.6-0.33-1.43-0.27-1.86,0.48
						C141.15,30.11,141.16,31.14,141.81,31.5L141.81,31.5z"/>
				</g>
			</g>
			<g class="st20">
				<g>
					<path class="st9" d="M136.53,71.27c-0.06,0.32-0.12,0.64-0.18,0.97c0.78-0.33,1.57-0.66,2.36-0.99c-0.24-0.33-0.48-0.66-0.72-1
						c-0.16,0.77-0.32,1.53-0.49,2.3c-0.19,0.09-0.36,0.14-0.56,0.11c-0.08,0-0.16-0.02-0.22-0.07c-0.12-0.07-0.14-0.08-0.05-0.02
						c-0.12-0.1-0.2-0.21-0.27-0.36c0.04,0.09,0.03,0.07-0.01-0.06c-0.04-0.11-0.06-0.23-0.05-0.36c0.37-0.47,0.73-0.94,1.1-1.4
						c0.02-0.01,0.34-0.01,0.17-0.02c0.17,0.02,0.3,0.06,0.44,0.14c-0.15-0.09,0.1,0.11,0.11,0.12c-0.12-0.12,0.07,0.12,0.08,0.15
						c0.06,0.15,0.07,0.32,0.06,0.48c0.01-0.27-0.19,0.51-0.18,0.49c0.09-0.17-0.09,0.11-0.11,0.14c-0.06,0.05-0.12,0.09-0.18,0.14
						c-0.22,0.08-0.27,0.1-0.17,0.07c0.16-0.03-0.31,0.02-0.16,0.02c0.07,0,0.04,0-0.08-0.01c-0.08,0-0.15-0.02-0.22-0.07
						c-0.27-0.13-0.45-0.41-0.46-0.75c-0.01-0.32-0.05,0.14,0.02-0.19c0.07-0.33-0.08,0.12,0.06-0.19c0.03-0.09,0.07-0.16,0.13-0.22
						c0.09-0.1,0.11-0.13,0.06-0.07c-0.09,0.09,0.31-0.19,0.11-0.1c0.62,0.31,1.24,0.62,1.85,0.94c-0.03-0.14-0.06-0.28-0.09-0.42
						c-0.15-0.74-0.8-1.31-1.53-1.07c-0.67,0.22-1.25,1-1.09,1.78c0.03,0.14,0.06,0.28,0.09,0.42c0.09,0.45,0.31,0.78,0.68,0.98
						c0.4,0.2,0.75,0.14,1.17-0.04c0.84-0.37,1.32-1.56,1.14-2.46c-0.21-1.07-1.2-1.71-2.19-1.38c-0.96,0.33-1.71,1.42-1.46,2.52
						c0.24,1.06,1.16,1.74,2.18,1.46c0.58-0.16,1.04-0.75,1.1-1.4c0.06-0.7-0.22-1.4-0.74-1.77c-0.56-0.4-1.19-0.39-1.83-0.09
						c-0.84,0.4-0.96,1.64-0.49,2.3c0.24,0.33,0.48,0.66,0.72,1c0.32,0.44,0.93,0.56,1.42,0.35c0.55-0.23,0.82-0.73,0.94-1.34
						c0.06-0.32,0.12-0.64,0.18-0.97c0.06-0.34-0.1-0.8-0.29-1.03c-0.21-0.27-0.57-0.47-0.91-0.46c-0.34,0.01-0.7,0.13-0.96,0.4
						C136.74,70.52,136.61,70.85,136.53,71.27L136.53,71.27z"/>
				</g>
			</g>
		</g>
		<g id="Ebene_2_1_">
			<g>
				<g>
					<path d="M119.24,74.06c4.16,1.57,8.34,3.14,12.64,4.31c1.03,0.28,2.08,0.53,3.13,0.72c0.84,0.15,1.7,0.29,2.57,0.23
						c0.67-0.05,1.32-0.19,1.86-0.71c0.35-0.33,0.64-0.74,0.92-1.14c0.81-1.16,1.49-2.43,2.17-3.69c0.96-1.81,1.87-3.65,2.76-5.5
						c2.15-4.5,4.17-9.07,6.07-13.68c1.66-4.02,3.28-8.08,4.56-12.24c0.41-1.33,0.81-2.69,0.99-4.07c0.06-0.44,0.09-0.91,0-1.33
						c-0.09-0.45-0.32-0.83-0.58-1.17c-0.57-0.76-1.32-1.37-2.05-1.93c-1.01-0.78-2.08-1.47-3.16-2.14
						c-3.04-1.87-6.22-3.5-9.41-5.06c-3.85-1.88-7.76-3.63-11.71-5.28c-4.09-1.72-8.23-3.33-12.41-4.82
						c-3.73-1.33-7.49-2.56-11.31-3.58c-2.85-0.76-5.78-1.47-8.76-1.62c-0.95-0.05-1.95-0.04-2.89,0.23
						c-1.09,0.31-1.92,1.11-2.63,2.08c-1,1.36-1.7,2.99-2.33,4.57c-0.81,2.04-1.46,4.14-2.05,6.25c-1.38,4.92-2.42,9.94-3.3,14.96
						c-0.72,4.08-1.37,8.2-1.68,12.3c-0.08,1.09-0.2,2.26-0.05,3.33c0.11,0.79,0.57,1.49,1.05,2.02c0.8,0.89,1.79,1.53,2.81,2.08
						c2.42,1.29,5.03,2.15,7.53,3.27c0.27,0.12,0.55,0.25,0.82,0.38c0.07,0.03,0.14,0.07,0.22,0.11c0.04,0.02,0.28,0.14,0.05,0.02
						c0.14,0.07,0.27,0.14,0.41,0.22c0.5,0.28,0.99,0.58,1.45,0.93c0.09,0.07,0.17,0.14,0.26,0.21c0.05,0.04,0.1,0.09,0.15,0.13
						c0.11,0.07-0.2-0.23-0.12-0.12c0.06,0.09,0.15,0.17,0.21,0.26c0.08,0.11,0.15,0.22,0.22,0.33c0.16,0.25-0.1-0.19,0.02,0.02
						c0.05,0.09,0.1,0.19,0.16,0.28c0.98,1.83,1.77,3.8,2.61,5.72c0.92,2.13,1.83,4.28,2.95,6.29c0.4,0.73,0.82,1.49,1.38,2.08
						c0.27,0.28,0.55,0.54,0.91,0.67c0.36,0.13,0.71,0.09,1.09,0.04c0.87-0.12,1.74-0.42,2.58-0.72c1.29-0.45,2.56-0.98,3.82-1.54
						c2.39-1.07,4.81-2.27,6.92-3.98c0.45-0.36,0.46-1.16,0.15-1.56c-0.37-0.47-0.95-0.41-1.4-0.04c-0.06,0.05-0.42,0.32-0.18,0.14
						c-0.11,0.08-0.22,0.16-0.33,0.24c-0.26,0.18-0.52,0.36-0.79,0.53c-0.57,0.37-1.16,0.71-1.75,1.04
						c-1.25,0.69-2.52,1.3-3.81,1.86c-0.14,0.06-0.28,0.12-0.41,0.18c-0.03,0.01-0.3,0.13-0.08,0.04c-0.08,0.03-0.16,0.07-0.24,0.1
						c-0.32,0.13-0.63,0.26-0.95,0.38c-0.55,0.22-1.11,0.42-1.67,0.61c-0.46,0.15-0.91,0.3-1.37,0.41
						c-0.17,0.04-0.35,0.08-0.52,0.12c-0.07,0.01-0.17,0.01-0.24,0.04c0.25-0.11,0.18-0.02,0.02-0.01c-0.05,0-0.11,0-0.16,0
						c-0.19,0.01,0.17,0.05,0.13,0.03c-0.02-0.02-0.1-0.05-0.13-0.05c0.26,0.02,0.21,0.13,0.08,0.03c-0.05-0.04-0.09-0.08-0.14-0.11
						c-0.17-0.13,0.19,0.2,0.04,0.04c-0.1-0.12-0.21-0.23-0.3-0.36c-0.23-0.3-0.43-0.62-0.63-0.94c-0.04-0.06-0.15-0.22,0.02,0.03
						c-0.03-0.05-0.06-0.1-0.09-0.15c-0.05-0.1-0.11-0.19-0.16-0.29c-0.12-0.22-0.24-0.45-0.36-0.68c-1.07-2.07-1.98-4.24-2.92-6.39
						c-0.8-1.85-1.57-3.77-2.59-5.48c-0.39-0.66-0.89-1.13-1.5-1.55c-1.06-0.73-2.23-1.28-3.39-1.79c-1.22-0.53-2.47-1.01-3.7-1.52
						c-0.61-0.25-1.22-0.5-1.82-0.78c-0.28-0.13-0.55-0.25-0.82-0.39c-0.07-0.04-0.15-0.07-0.22-0.11
						c-0.23-0.12,0.13,0.07-0.01-0.01c-0.15-0.08-0.3-0.16-0.45-0.24c-0.49-0.27-0.97-0.57-1.42-0.91c-0.2-0.15-0.38-0.31-0.57-0.47
						c-0.17-0.15,0.15,0.17,0,0c-0.04-0.05-0.09-0.09-0.13-0.14c-0.08-0.09-0.16-0.18-0.24-0.28c-0.07-0.09-0.14-0.19-0.21-0.29
						c-0.02-0.03-0.04-0.07-0.06-0.1c-0.12-0.17,0.1,0.22,0.02,0.03c-0.06-0.14-0.12-0.34-0.2-0.46c0.16,0.24,0.07,0.31,0.05,0.17
						c0-0.03-0.01-0.05-0.02-0.08c-0.01-0.07-0.02-0.15-0.03-0.23c-0.01-0.08-0.01-0.17-0.02-0.25c-0.02-0.26,0,0.2,0,0.1
						c0-0.06,0-0.11,0-0.17c0-0.26,0-0.51,0.01-0.77c0.02-0.67,0.07-1.33,0.13-2c0.16-1.83,0.38-3.65,0.64-5.47
						C85.63,43.55,86,41.27,86.4,39c0.22-1.25,0.46-2.5,0.71-3.75c0.06-0.3,0.12-0.59,0.18-0.89c0.02-0.08,0.11-0.51,0.04-0.19
						c0.04-0.19,0.08-0.38,0.12-0.56c0.13-0.62,0.26-1.23,0.4-1.85c0.99-4.44,2.1-8.94,3.81-13.17c0.17-0.43,0.35-0.85,0.54-1.27
						c0.04-0.09,0.2-0.39,0.01-0.03c0.05-0.1,0.09-0.2,0.14-0.29c0.09-0.19,0.19-0.38,0.28-0.56c0.33-0.62,0.69-1.22,1.11-1.78
						c0.02-0.03,0.05-0.06,0.07-0.09c0.01-0.01-0.2,0.24-0.11,0.13c0.05-0.06,0.1-0.12,0.15-0.17c0.09-0.11,0.19-0.21,0.29-0.31
						c0.09-0.08,0.18-0.16,0.27-0.24c0.16-0.14-0.26,0.18-0.04,0.03c0.05-0.03,0.1-0.07,0.15-0.1c0.06-0.04,0.12-0.07,0.18-0.1
						c0.04-0.02,0.07-0.03,0.11-0.05c0.03-0.02-0.31,0.12-0.11,0.05c0.16-0.05,0.32-0.11,0.49-0.14c0.09-0.02,0.17-0.04,0.26-0.05
						c0.05-0.01,0.1-0.02,0.15-0.02c0.25-0.04-0.14,0.01-0.08,0.01c0.22-0.02,0.43-0.04,0.65-0.05c0.52-0.02,1.04,0,1.56,0.03
						c0.6,0.04,1.2,0.11,1.8,0.2c0.16,0.02,0.31,0.05,0.47,0.07c0.07,0.01,0.14,0.02,0.22,0.04c0.04,0.01,0.09,0.01,0.13,0.02
						c0.25,0.04-0.21-0.04-0.04-0.01c0.35,0.06,0.7,0.13,1.05,0.2c3.45,0.68,6.82,1.67,10.16,2.74c4.02,1.29,7.98,2.73,11.91,4.26
						c4.08,1.59,8.11,3.29,12.1,5.09c1.86,0.84,3.71,1.71,5.54,2.6c0.87,0.43,1.75,0.85,2.61,1.31c-0.23-0.12-0.02-0.01,0.09,0.04
						c0.11,0.05,0.21,0.11,0.32,0.16c0.21,0.11,0.42,0.22,0.63,0.33c0.39,0.2,0.78,0.41,1.16,0.62c2.48,1.33,4.97,2.72,7.23,4.46
						c0.38,0.29,0.75,0.6,1.11,0.93c0.03,0.03,0.07,0.06,0.1,0.09c-0.3-0.27-0.12-0.12-0.05-0.05c0.07,0.07,0.14,0.14,0.21,0.22
						c0.12,0.13,0.23,0.26,0.33,0.39c0.04,0.06,0.09,0.12,0.13,0.18c0.02,0.03,0.04,0.06,0.06,0.09c0.1,0.15-0.15-0.29-0.07-0.11
						c0.02,0.05,0.05,0.11,0.08,0.16c0.1,0.18-0.05-0.34-0.02-0.07c0.01,0.07,0.01,0.14,0.02,0.2c-0.06-0.33,0-0.2-0.01,0
						c-0.01,0.21-0.03,0.42-0.06,0.63c-0.02,0.12-0.04,0.23-0.06,0.35c-0.01,0.07-0.03,0.14-0.04,0.21
						c-0.06,0.29,0.06-0.28,0.01-0.04c-0.07,0.31-0.14,0.61-0.22,0.91c-0.19,0.75-0.42,1.5-0.65,2.24
						c-0.59,1.87-1.25,3.72-1.94,5.55c-1.7,4.53-3.58,9-5.54,13.41c-0.49,1.11-0.99,2.21-1.49,3.31c-0.24,0.53-0.49,1.06-0.74,1.59
						c-0.03,0.06-0.14,0.3,0,0c-0.03,0.06-0.05,0.11-0.08,0.17c-0.06,0.12-0.12,0.25-0.17,0.37c-0.13,0.26-0.25,0.53-0.38,0.79
						c-0.86,1.81-1.75,3.6-2.69,5.37c-0.67,1.25-1.35,2.5-2.15,3.66c-0.13,0.19-0.28,0.36-0.41,0.55c0.26-0.38,0.08-0.1-0.01,0
						c-0.06,0.06-0.11,0.12-0.17,0.18c-0.02,0.02-0.05,0.04-0.07,0.07c-0.11,0.12,0.27-0.15,0.1-0.08c-0.04,0.02-0.1,0.05-0.14,0.08
						c-0.07,0.05-0.17-0.07,0.17-0.07c-0.03,0-0.08,0.03-0.11,0.04c-0.12,0.03-0.24,0.05-0.36,0.08c-0.16,0.03,0.27-0.02,0.11-0.01
						c-0.04,0-0.08,0.01-0.12,0.01c-0.08,0.01-0.16,0.01-0.25,0.01c-0.37,0.01-0.74-0.02-1.1-0.06c-0.2-0.02-0.41-0.05-0.61-0.08
						c-0.08-0.01-0.49-0.06-0.15-0.02c-0.12-0.01-0.25-0.04-0.37-0.07c-1.07-0.21-2.13-0.48-3.18-0.77
						c-2.35-0.66-4.66-1.44-6.96-2.26c-1.74-0.62-3.47-1.27-5.21-1.92c-0.5-0.19-1.1,0.19-1.28,0.75
						C118.47,73.28,118.75,73.87,119.24,74.06L119.24,74.06z"/>
				</g>
			</g>
		</g>
		<g id="Ebene_10">
			<g>
				<path class="st9" d="M121.71,42.55c1.52-3.37,1.73-7.4,0.37-10.61s-4.33-5.48-7.61-5.58c-3.29-0.1-6.75,2.07-8.33,5.41
					c-1.68,3.56-1.14,7.7-0.34,11.42c1.56,7.28,3.92,14.28,7.02,20.82c7.23-2.67,14.51-5.36,21.22-9.56
					c2.29-1.43,4.62-3.19,5.77-5.8c1.7-3.87,0.09-8.56-2.95-10.78c-4.24-3.1-10.89-1.59-14.21,3.23"/>
				<g>
					<path class="st9" d="M122.33,42.76c1.82-4.08,1.79-8.99-0.37-12.56c-2.08-3.45-6.05-5.34-9.94-4.26
						c-1.79,0.5-3.52,1.57-4.84,3.07c-1.5,1.7-2.37,3.84-2.68,6.11c-0.33,2.45-0.02,4.92,0.43,7.26c0.46,2.36,1.04,4.69,1.68,6.98
						c1.3,4.62,2.91,9.11,4.85,13.4c0.24,0.53,0.49,1.07,0.74,1.59c0.12,0.26,0.43,0.47,0.72,0.36c4.31-1.59,8.63-3.19,12.86-5.11
						c2.09-0.95,4.16-1.98,6.17-3.12c1.92-1.09,3.88-2.25,5.58-3.77c1.57-1.41,2.91-3.26,3.38-5.43c0.44-2.02,0.2-4.07-0.52-5.88
						c-1.42-3.55-4.54-5.68-8.09-5.88c-3.3-0.19-6.88,1.24-9.3,4.01c-0.32,0.37-0.62,0.76-0.91,1.16c-0.54,0.78,0.53,1.55,1.07,0.77
						c1.91-2.75,5-4.34,7.99-4.48c3.14-0.15,6.12,1.31,7.65,4.29c0.76,1.49,1.16,3.23,0.95,5.01c-0.23,1.93-1.26,3.6-2.59,4.9
						c-1.52,1.5-3.34,2.58-5.11,3.61c-1.9,1.11-3.84,2.11-5.81,3.03c-3.95,1.85-7.99,3.39-12.04,4.88
						c-0.51,0.19-1.01,0.37-1.52,0.56c0.24,0.12,0.48,0.24,0.72,0.36c-1.91-4.02-3.54-8.22-4.87-12.55
						c-0.66-2.14-1.24-4.31-1.75-6.51c-0.51-2.19-0.99-4.41-1.09-6.7c-0.09-2.11,0.19-4.39,1.25-6.29c0.89-1.6,2.23-2.84,3.75-3.63
						c3.29-1.7,6.96-0.75,9.26,1.92c2.44,2.83,2.93,7.17,1.66,11.04c-0.16,0.48-0.34,0.95-0.55,1.42c-0.16,0.37,0.08,0.81,0.39,0.91
						C121.84,43.38,122.17,43.13,122.33,42.76L122.33,42.76z"/>
				</g>
			</g>
		</g>
		<g id="Ebene_9">
			<g class="st21">
				<path d="M96.4,11.59c-6.61,19.84,4.97,49.73,14.2,66.1c-1.8-0.05-2.98-3.35-5.5-7.81c-3.55-6.3-1.95-6.39-4.35-8.62
					c-1.99-1.85-4.96-2.52-7.46-3.46c-2.31-0.86-5.07-2.3-6.11-4.14c-1.38-2.42,2.57-26.01,7.57-39.64"/>
				<g>
					<path d="M95.78,11.38c-1.37,4.12-1.93,8.47-1.98,12.73c-0.06,4.73,0.44,9.41,1.28,13.97c0.89,4.84,2.15,9.55,3.64,14.16
						c1.47,4.54,3.17,8.97,5.06,13.28c1.69,3.87,3.54,7.65,5.55,11.31c0.22,0.4,0.45,0.81,0.67,1.21c0.22-0.36,0.44-0.73,0.67-1.09
						c-0.05,0-0.1-0.01-0.14-0.01c0.18,0.02,0.03,0.01-0.01-0.01c-0.08-0.02-0.15-0.05-0.23-0.08c-0.17-0.07,0.05,0.05-0.11-0.06
						c-0.09-0.06-0.18-0.12-0.26-0.19c-0.04-0.04-0.09-0.08-0.13-0.11c0.1,0.09,0,0-0.03-0.03c-0.08-0.09-0.16-0.17-0.24-0.26
						c-0.17-0.2-0.33-0.42-0.48-0.64c-0.79-1.18-1.42-2.5-2.09-3.77c-1.31-2.49-2.79-4.86-3.68-7.61c-0.18-0.55-0.33-1.12-0.58-1.63
						c-0.31-0.64-0.75-1.15-1.23-1.63c-2.4-2.34-5.7-2.89-8.65-4.11c-1.35-0.56-2.67-1.23-3.81-2.18c-0.47-0.39-0.89-0.83-1.23-1.37
						c-0.05-0.08,0.03,0.1-0.02-0.04c-0.01-0.03-0.02-0.06-0.04-0.1c-0.04-0.1,0.01-0.14,0.01,0.04c0-0.05-0.03-0.1-0.04-0.15
						c-0.05-0.23-0.07-0.47-0.09-0.7c-0.01-0.08-0.01-0.15-0.01-0.23c0-0.06-0.01-0.3,0-0.06c0-0.17-0.01-0.33-0.01-0.5
						c0-0.83,0.05-1.66,0.12-2.49c0.41-5.12,1.35-10.26,2.39-15.32c1.23-5.93,2.68-11.87,4.63-17.62c0.21-0.63,0.43-1.25,0.66-1.87
						c0.33-0.9-0.91-1.31-1.24-0.41c-2.08,5.7-3.59,11.62-4.88,17.53c-1.18,5.43-2.23,10.94-2.78,16.44
						c-0.17,1.65-0.33,3.36-0.18,4.99c0.05,0.57,0.18,1.06,0.46,1.52c0.77,1.23,2.01,2.08,3.2,2.76c1.39,0.79,2.86,1.37,4.36,1.88
						c1.54,0.52,3.13,1,4.55,1.83c0.35,0.2,0.69,0.43,1.01,0.68c0.14,0.11,0.29,0.23,0.42,0.35c0.06,0.05,0.11,0.11,0.17,0.16
						c0.1,0.09-0.06-0.06,0.06,0.06c0.25,0.25,0.49,0.51,0.7,0.8c0.04,0.05,0.08,0.11,0.11,0.16c0.05,0.08,0.11,0.19,0.03,0.04
						c0.07,0.13,0.14,0.25,0.19,0.39c0.11,0.25,0.2,0.51,0.28,0.78c0.26,0.81,0.52,1.61,0.84,2.38c0.62,1.48,1.39,2.86,2.15,4.24
						c0.82,1.49,1.58,3.03,2.42,4.5c0.55,0.97,1.15,2.04,2.05,2.66c0.37,0.26,0.79,0.42,1.25,0.44c0.46,0.02,0.93-0.63,0.67-1.09
						c-1.99-3.53-3.82-7.18-5.5-10.91c-1.9-4.2-3.62-8.52-5.13-12.94c-1.54-4.5-2.85-9.12-3.82-13.85
						c-0.92-4.49-1.56-9.1-1.64-13.78c-0.07-4.2,0.3-8.51,1.45-12.6c0.14-0.49,0.29-0.97,0.45-1.45
						C97.32,10.89,96.08,10.47,95.78,11.38L95.78,11.38z"/>
				</g>
			</g>
		</g>
	</g>
</g>
<g id="Ebene_10_4_">
</g>
<g id="Ebene_8_6_">
</g>
<g id="Ebene_19_1_">
</g>
<g id="Ebene_23_1_">
</g>
<g id="Ebene_25">
</g>
<g id="Ebene_11_1_">
</g>
<g id="Ebene_12_1_">
</g>
</svg>
