<?xml version="1.0" encoding="utf-8"?>
<!-- Generator: Adobe Adobe Illustrator 24.2.0, SVG Export Plug-In . SVG Version: 6.00 Build 0)  -->
<svg version="1.1" xmlns="http://www.w3.org/2000/svg" xmlns:xlink="http://www.w3.org/1999/xlink" x="0px" y="0px"
	 width="170.08px" height="170.08px" viewBox="0 0 170.08 170.08" style="enable-background:new 0 0 170.08 170.08;"
	 xml:space="preserve">
<style type="text/css">
	.st0{fill:#592F7D;}
	.st1{fill:#5A2F7C;}
	.st2{fill:#D3E1EB;}
	.st3{fill:#D3E1ED;}
	.st4{fill:#5C646E;stroke:#000000;stroke-width:2.7043;stroke-miterlimit:10;}
	.st5{fill:#B6D2E0;stroke:#000000;stroke-width:2.1378;stroke-miterlimit:10;}
	.st6{fill:#3D4D5B;}
	.st7{opacity:0.0784;}
	.st8{opacity:0.1216;}
	.st9{fill:#FFFFFF;}
	.st10{fill:#ECC9AD;}
	.st11{opacity:0.1608;}
	.st12{opacity:0.1686;}
	.st13{fill:#F0F6FA;}
	.st14{opacity:0.149;}
	.st15{opacity:0.0314;}
	.st16{stroke:#000000;stroke-width:0.0649;stroke-miterlimit:10;}
	.st17{fill:#F0F6FA;stroke:#F0F6FA;stroke-width:1.1522;stroke-miterlimit:10;}
	.st18{fill:#C8354F;}
	.st19{fill:#C93550;}
	.st20{fill:#6DB671;}
	.st21{fill:#6CB671;}
	.st22{fill:#D1DFEA;}
	.st23{fill:#C8354E;}
	.st24{fill:#F3C058;}
	.st25{fill:#C8AE9D;}
	.st26{opacity:0.1412;}
	.st27{fill:#D15238;}
	.st28{fill:#D15239;}
	.st29{opacity:0.9882;}
	.st30{fill:#ADBECF;}
	.st31{fill:#F3C057;}
	.st32{fill:#F7D98D;}
	.st33{fill:#AEBFCE;}
	.st34{opacity:0.2706;}
	.st35{fill:#3D4C5B;}
</style>
<g id="Ebene_6_11_">
</g>
<g id="Ebene_13_1_">
	<g>
		<g>
			<path class="st0" d="M79.75,115.07c5.81,9.12,11.61,18.24,17.42,27.36c2.72,4.27,5.48,8.59,9.05,12.12
				c4.48-5.55,11.08-9.2,18-9.95c-10.72-12.68-21.55-25.54-28.89-40.62c-0.25-0.52-0.54-1.08-1.07-1.29
				c-0.52-0.21-1.1,0.01-1.62,0.23c-5.88,2.46-12.58,5.9-13.77,12.39"/>
			<g>
				<path class="st1" d="M78.82,115.61c4.47,7.02,8.93,14.03,13.4,21.05c4.06,6.38,7.85,13.26,13.23,18.65
					c0.38,0.38,1.14,0.45,1.51,0c4.3-5.25,10.46-8.84,17.24-9.63c0.94-0.11,1.39-1.08,0.76-1.82c-6.94-8.22-13.9-16.46-19.94-25.37
					c-3-4.44-5.78-9.03-8.19-13.82c-0.47-0.93-0.85-2.11-1.76-2.72c-0.98-0.66-2.05-0.33-3.05,0.09c-1.93,0.8-3.84,1.68-5.65,2.72
					c-4,2.3-7.6,5.59-8.55,10.28c-0.27,1.34,1.79,1.92,2.06,0.57c0.79-3.92,3.64-6.64,6.95-8.65c1.67-1.01,3.43-1.85,5.21-2.63
					c0.5-0.22,1.08-0.6,1.63-0.47c0.61,0.15,0.73,0.72,1.01,1.28c0.56,1.14,1.15,2.26,1.75,3.38c4.64,8.6,10.4,16.53,16.48,24.15
					c3.43,4.3,6.98,8.5,10.53,12.7c0.25-0.61,0.5-1.22,0.76-1.82c-7.34,0.85-14.07,4.54-18.75,10.26c0.5,0,1.01,0,1.51,0
					c-5.37-5.38-9.12-12.27-13.17-18.64c-4.38-6.88-8.75-13.75-13.13-20.63C79.93,113.37,78.08,114.45,78.82,115.61L78.82,115.61z"
					/>
			</g>
		</g>
		<g>
			<path class="st2" d="M77.22,101.92c1.13,1.71,2.26,3.41,3.4,5.12c0.16,0.24,0.36,0.51,0.64,0.52c0.21,0.01,0.39-0.13,0.56-0.26
				c2.29-1.78,4.58-3.56,6.87-5.33c0.12-0.09,0.24-0.19,0.28-0.33c0.05-0.17-0.04-0.35-0.12-0.51c-0.86-1.65-1.81-3.24-2.84-4.78
				c-0.23-0.34-0.49-0.7-0.88-0.83c-0.59-0.2-1.19,0.24-1.67,0.65c-1.89,1.61-3.77,3.22-5.66,4.82"/>
			<g>
				<path class="st3" d="M76.29,102.46c0.74,1.12,1.48,2.23,2.22,3.35c0.33,0.49,0.65,0.98,0.98,1.48c0.34,0.51,0.69,1.08,1.32,1.27
					c0.55,0.17,1.09,0,1.54-0.33c0.58-0.42,1.14-0.88,1.7-1.32c0.99-0.77,1.98-1.54,2.97-2.31c0.5-0.38,0.99-0.77,1.49-1.15
					c0.48-0.37,1.09-0.72,1.37-1.27c0.32-0.62,0.07-1.22-0.22-1.78c-0.29-0.56-0.6-1.11-0.92-1.66c-0.6-1.04-1.23-2.09-1.92-3.07
					c-0.72-1.02-1.77-1.57-2.99-1.02c-0.64,0.29-1.16,0.79-1.69,1.24c-0.55,0.47-1.1,0.93-1.64,1.4c-1.16,0.99-2.31,1.97-3.47,2.96
					c-0.44,0.37-0.39,1.13,0,1.51c0.44,0.44,1.07,0.38,1.51,0c1-0.86,2.01-1.71,3.01-2.57c0.97-0.82,1.91-1.81,2.98-2.5
					c0.08-0.05,0.24-0.16,0.24-0.15c0.14,0.03,0.3,0.35,0.37,0.45c0.35,0.52,0.69,1.05,1.02,1.59c0.31,0.5,0.61,1.02,0.91,1.53
					c0.2,0.35,0.84,1.26,0.83,1.53c0.05-0.18,0.1-0.36,0.15-0.54c-0.08,0.15-0.34,0.29-0.48,0.41c-0.28,0.22-0.56,0.43-0.84,0.65
					c-0.5,0.38-0.99,0.77-1.49,1.15c-1.05,0.82-2.1,1.63-3.16,2.45c-0.23,0.18-0.55,0.35-0.74,0.58c-0.13,0.16-0.34,0.1,0.03,0.19
					c0.39,0.09,0.16,0.04,0.11-0.12c-0.09-0.27-0.37-0.55-0.52-0.79c-0.2-0.3-0.39-0.59-0.59-0.89c-0.74-1.12-1.48-2.23-2.22-3.35
					C77.38,100.24,75.53,101.31,76.29,102.46L76.29,102.46z"/>
			</g>
		</g>
		<g>
			<g>
				<path class="st3" d="M77.95,102.21c1.38,0,1.38-2.14,0-2.14C76.57,100.08,76.57,102.21,77.95,102.21L77.95,102.21z"/>
			</g>
		</g>
		<g>
			<g>
				<path class="st3" d="M78.46,102.21c1.38,0,1.38-2.14,0-2.14C77.09,100.08,77.08,102.21,78.46,102.21L78.46,102.21z"/>
			</g>
		</g>
		<g>
			<path class="st2" d="M77.04,100.2c-0.71-0.78-1.42-1.55-2.13-2.33"/>
			<g>
				<path class="st3" d="M77.8,99.45c-0.71-0.78-1.42-1.55-2.13-2.33c-0.38-0.41-1.13-0.41-1.51,0c-0.41,0.44-0.4,1.07,0,1.51
					c0.71,0.78,1.42,1.55,2.13,2.33c0.38,0.41,1.13,0.41,1.51,0C78.21,100.52,78.2,99.89,77.8,99.45L77.8,99.45z"/>
			</g>
		</g>
		<g>
			<path class="st2" d="M78.98,100.07c-0.17-0.36-0.34-0.72-0.51-1.07"/>
			<g>
				<path class="st3" d="M79.9,99.53c-0.17-0.36-0.34-0.72-0.51-1.07c-0.07-0.12-0.16-0.22-0.28-0.3c-0.1-0.09-0.22-0.16-0.36-0.19
					c-0.14-0.04-0.28-0.05-0.43-0.02c-0.14,0.01-0.27,0.05-0.4,0.13c-0.07,0.06-0.14,0.11-0.22,0.17c-0.13,0.13-0.22,0.29-0.27,0.47
					c-0.01,0.09-0.03,0.19-0.04,0.28c0,0.19,0.05,0.37,0.15,0.54c0.17,0.36,0.34,0.72,0.51,1.07c0.07,0.12,0.16,0.22,0.28,0.3
					c0.1,0.09,0.22,0.16,0.36,0.19c0.14,0.04,0.28,0.05,0.43,0.02c0.14-0.01,0.27-0.05,0.4-0.13c0.07-0.06,0.14-0.11,0.22-0.17
					c0.13-0.13,0.22-0.29,0.27-0.47c0.01-0.09,0.03-0.19,0.04-0.28C80.05,99.88,80,99.7,79.9,99.53L79.9,99.53z"/>
			</g>
		</g>
		<g>
			<g>
				<path class="st3" d="M84.89,100.87c1.38,0,1.38-2.14,0-2.14C83.52,98.73,83.51,100.87,84.89,100.87L84.89,100.87z"/>
			</g>
		</g>
		<g>
			<g>
				<path class="st3" d="M79.36,96.87c-0.35-0.52-0.7-1.03-1.05-1.55c-0.26-0.38-0.74-0.64-1.21-0.49
					c-0.47,0.15-0.76,0.54-0.78,1.03c-0.02,0.38-0.05,0.75-0.1,1.13c0.01-0.09,0.03-0.19,0.04-0.28c-0.09,0.62-0.21,1.23-0.39,1.83
					c-0.15,0.54,0.19,1.19,0.75,1.31c0.57,0.13,1.15-0.17,1.31-0.75c0.3-1.05,0.47-2.15,0.53-3.24c-0.66,0.18-1.33,0.36-1.99,0.54
					c0.35,0.52,0.7,1.03,1.05,1.55c0.16,0.23,0.36,0.41,0.64,0.49c0.26,0.07,0.6,0.04,0.82-0.11
					C79.43,98.04,79.69,97.37,79.36,96.87L79.36,96.87z"/>
			</g>
		</g>
		<ellipse class="st4" cx="57.12" cy="58.54" rx="43.44" ry="44.48"/>
		<ellipse class="st5" cx="57.12" cy="59.36" rx="35.06" ry="35.48"/>
		<g>
			<g>
				<path d="M78.24,115.2c8.99,14.88,18.76,29.3,28.81,43.48c0.79,1.11,2.64,0.05,1.85-1.08c-10.05-14.18-19.82-28.6-28.81-43.48
					C79.37,112.94,77.52,114.02,78.24,115.2L78.24,115.2z"/>
			</g>
		</g>
		<g>
			<path class="st6" d="M107.97,154.68c17.69-15.43,17.61-8.98,17.61-7.64c0,1.25-13.22,15.77-17.61,11.1
				c-0.74-0.79-0.73-2.46,0-3.25"/>
			<g>
				<path d="M108.73,155.44c2.5-2.18,5.06-4.32,7.77-6.24c1.57-1.11,3.19-2.19,4.95-2.97c0.34-0.15,0.98-0.39,1.49-0.51
					c0.11-0.03,0.23-0.05,0.34-0.07c0.27-0.05-0.19,0,0.07-0.01c0.19-0.01,0.38-0.01,0.58,0c0.18,0.01-0.29-0.04-0.03,0
					c0.06,0.01,0.13,0.03,0.19,0.05c0.24,0.08-0.22-0.11-0.03-0.02c0.06,0.03,0.13,0.06,0.18,0.1c-0.12-0.1,0.02-0.11,0.06,0.08
					c0.05,0.18-0.1-0.15-0.05-0.07c0.03,0.05,0.07,0.1,0.1,0.16c0.17,0.28-0.01-0.1,0.03,0.06c0.02,0.1,0.06,0.21,0.09,0.31
					c0.08,0.25,0.02,0.19,0.01,0.04c0.01,0.09,0.02,0.19,0.02,0.28c0.01,0.23-0.07,0.58,0.03,0.2c-0.05,0.19,0.12-0.17,0.03-0.07
					c-0.04,0.05-0.07,0.13-0.11,0.19c-0.12,0.19-0.25,0.38-0.38,0.57c-0.26,0.37-0.77,0.97-1.21,1.47
					c-0.58,0.66-1.19,1.31-1.81,1.93c-1.43,1.45-2.95,2.84-4.57,4.06c-1.56,1.18-3.31,2.38-5.23,2.86c-0.7,0.18-1.28,0.24-1.93-0.03
					c-0.08-0.03-0.46-0.24-0.6-0.44c-0.31-0.46-0.37-1.28,0-1.74c0.86-1.06-0.64-2.58-1.51-1.51c-1.71,2.11-0.69,5.25,1.95,5.88
					c1.87,0.44,3.83-0.37,5.45-1.24c3.86-2.09,7.29-5.34,10.12-8.67c0.7-0.82,1.86-1.93,1.92-3.09c0.02-0.47-0.03-0.99-0.16-1.44
					c-0.56-1.95-2.51-2.34-4.28-1.88c-1.98,0.51-3.83,1.67-5.52,2.79c-3.34,2.22-6.44,4.81-9.47,7.44
					C106.18,154.83,107.7,156.34,108.73,155.44L108.73,155.44z"/>
			</g>
		</g>
		<g>
			<g>
				<path d="M93.66,103.21c4.86,7.14,9.71,14.29,14.76,21.3c2.52,3.5,5.09,6.96,7.72,10.37c2.54,3.28,5.36,6.41,7.64,9.88
					c0.75,1.15,2.6,0.08,1.85-1.08c-2.24-3.42-5.01-6.49-7.51-9.72c-2.68-3.46-5.29-6.98-7.85-10.54
					c-5.05-7.01-9.91-14.15-14.76-21.3C94.74,101,92.88,102.07,93.66,103.21L93.66,103.21z"/>
			</g>
		</g>
		<g>
			<g>
				<path d="M80.19,114.47c1.43-5.63,6.98-9.54,12.44-10.75c0.62-0.14,0.67-0.16,1.22-0.18c0.16-0.01,0.32,0,0.49,0.01
					c-0.14-0.01-0.23-0.05-0.06,0c0.24,0.07-0.12-0.07-0.06-0.03c1.19,0.69,2.27-1.16,1.08-1.85c-0.75-0.43-1.73-0.28-2.53-0.15
					c-1.18,0.19-2.34,0.56-3.45,1c-3.11,1.23-6.08,3.1-8.23,5.69c-1.39,1.67-2.42,3.58-2.95,5.69
					C77.79,115.24,79.85,115.8,80.19,114.47L80.19,114.47z"/>
			</g>
		</g>
		<g>
			<g>
				<path d="M74.33,100.74c1.86,2.71,3.72,5.42,5.58,8.13c0.33,0.48,0.94,0.69,1.46,0.38c0.47-0.28,0.71-0.98,0.38-1.46
					c-1.86-2.71-3.72-5.42-5.58-8.13c-0.33-0.48-0.94-0.69-1.46-0.38C74.25,99.56,74.01,100.27,74.33,100.74L74.33,100.74z"/>
			</g>
		</g>
		<g>
			<g>
				<path d="M83.63,94.07c1.72,3.18,3.56,6.23,5.7,9.14c0.34,0.46,0.93,0.7,1.46,0.38c0.46-0.27,0.73-0.99,0.38-1.46
					c-2.14-2.91-3.98-5.96-5.7-9.14C84.82,91.78,82.97,92.86,83.63,94.07L83.63,94.07z"/>
			</g>
		</g>
		<g>
			<g>
				<path d="M80.14,111.49c8.99,14.43,18.88,28.29,29.6,41.49c0.87,1.07,2.37-0.45,1.51-1.51c-10.6-13.06-20.37-26.78-29.26-41.05
					C81.26,109.25,79.41,110.32,80.14,111.49L80.14,111.49z"/>
			</g>
		</g>
		<g>
			<g>
				<path d="M85.65,121.53c0.05-0.7,0.07-1.4,0.15-2.1c-0.01,0.09-0.03,0.19-0.04,0.28c0.02-0.12,0.04-0.23,0.09-0.35
					c-0.04,0.09-0.07,0.17-0.11,0.26c0.02-0.05,0.05-0.1,0.08-0.14c-0.06,0.07-0.11,0.14-0.17,0.22c0.03-0.03,0.05-0.06,0.08-0.09
					c-0.07,0.06-0.14,0.11-0.22,0.17c0.02-0.02,0.05-0.03,0.08-0.04c-0.09,0.04-0.17,0.07-0.26,0.11c0.02-0.01,0.04-0.01,0.06-0.02
					c-0.09,0.01-0.19,0.03-0.28,0.04c0.02,0,0.04-0.01,0.06,0c0.28-0.01,0.56-0.11,0.76-0.31c0.19-0.19,0.32-0.49,0.31-0.76
					c-0.03-0.57-0.47-1.09-1.07-1.07c-0.52,0.01-1.01,0.3-1.25,0.76c-0.19,0.35-0.25,0.71-0.28,1.1c-0.05,0.65-0.09,1.29-0.14,1.94
					c-0.02,0.26,0.13,0.58,0.31,0.76c0.19,0.19,0.49,0.32,0.76,0.31c0.28-0.01,0.56-0.1,0.76-0.31
					C85.54,122.07,85.63,121.82,85.65,121.53L85.65,121.53z"/>
			</g>
		</g>
		<g>
			<g>
				<path d="M89.62,128.04c0.01-0.34,0.04-0.69,0.08-1.03c0.02-0.22-0.04,0.23,0-0.01c0.01-0.07,0.02-0.15,0.03-0.22
					c0.03-0.17,0.06-0.34,0.09-0.51c0.13-0.65,0.32-1.29,0.55-1.91c0.2-0.53-0.22-1.19-0.75-1.31c-0.61-0.14-1.11,0.18-1.31,0.75
					c-0.5,1.36-0.77,2.8-0.83,4.24c-0.02,0.56,0.51,1.09,1.07,1.07C89.15,129.09,89.6,128.64,89.62,128.04L89.62,128.04z"/>
			</g>
		</g>
		<g>
			<g>
				<path d="M94.19,134.12c-0.02-0.09-0.03-0.18-0.05-0.27c-0.01-0.06-0.07-0.36-0.01-0.07c-0.03-0.15-0.04-0.32-0.05-0.47
					c-0.03-0.34-0.03-0.69-0.02-1.03c0-0.16,0.01-0.32,0.03-0.48c0.01-0.09,0.02-0.18,0.03-0.28c0.03-0.29-0.03,0.15,0.01-0.07
					c0.05-0.34,0.12-0.68,0.21-1.01c0.14-0.54-0.18-1.19-0.75-1.31c-0.56-0.13-1.17,0.17-1.31,0.75c-0.41,1.58-0.44,3.21-0.13,4.81
					c0.11,0.55,0.8,0.91,1.31,0.75C94.03,135.24,94.31,134.71,94.19,134.12L94.19,134.12z"/>
			</g>
		</g>
		<g>
			<g>
				<path d="M97.7,139.55c0.01-0.65,0.05-1.3,0.12-1.94c0.02-0.16,0.04-0.33,0.06-0.49c0.03-0.22-0.03,0.22,0-0.02
					c0.01-0.08,0.02-0.15,0.03-0.23c0.05-0.33,0.11-0.65,0.17-0.98c0.11-0.55-0.15-1.18-0.75-1.31c-0.53-0.12-1.2,0.16-1.31,0.75
					c-0.27,1.39-0.43,2.81-0.45,4.23c-0.01,0.56,0.5,1.09,1.07,1.07C97.22,140.6,97.69,140.15,97.7,139.55L97.7,139.55z"/>
			</g>
		</g>
		<g>
			<g>
				<path d="M101.66,146.21c-0.08-0.7-0.1-1.41-0.05-2.11c0.01-0.16,0.03-0.32,0.04-0.49c0.01-0.05,0.01-0.11,0.02-0.16
					c-0.02,0.14-0.02,0.16-0.01,0.08c0.01-0.09,0.03-0.19,0.04-0.28c0.06-0.35,0.13-0.69,0.22-1.03c0.14-0.54-0.18-1.19-0.75-1.31
					c-0.56-0.13-1.16,0.17-1.31,0.75c-0.39,1.48-0.51,3.03-0.35,4.55c0.03,0.29,0.1,0.54,0.31,0.76c0.19,0.19,0.49,0.32,0.76,0.31
					C101.12,147.26,101.73,146.81,101.66,146.21L101.66,146.21z"/>
			</g>
		</g>
		<g>
			<g>
				<path d="M105.56,150.61c0-0.42,0.01-0.84,0.04-1.26c0.02-0.23,0.04-0.45,0.07-0.68c0.04-0.32-0.03,0.22,0.01-0.1
					c0.02-0.11,0.03-0.22,0.05-0.34c0.14-0.85,0.36-1.68,0.64-2.49c0.18-0.53-0.21-1.19-0.75-1.31c-0.6-0.14-1.12,0.18-1.31,0.75
					c-0.6,1.74-0.9,3.6-0.89,5.44c0,0.56,0.49,1.09,1.07,1.07C105.07,151.65,105.57,151.21,105.56,150.61L105.56,150.61z"/>
			</g>
		</g>
		<g class="st7">
			<path d="M18.17,41.29c-3.37,10.54-4.07,22.64,1.12,32.34c1.73,3.24,4.06,6.1,6.59,8.71c7.39,7.58,16.85,13.15,27.09,14.8
				c8.75,1.41,17.67-0.04,26.42-1.48c-4.95,1.55-9.96,2.87-15.02,3.96c-5.96,1.29-12.12,2.26-18.1,1.13
				c-4.38-0.82-8.53-2.75-12.29-5.24c-8.06-5.32-14.51-13.35-17.84-22.68s-3.45-19.91-0.06-29.21"/>
			<g>
				<path d="M17.13,41.01c-4.01,12.68-4.09,27.02,4.35,37.93c7.8,10.08,19.71,17.71,32.43,19.41c8.61,1.15,17.26-0.26,25.75-1.66
					c-0.19-0.69-0.38-1.37-0.57-2.06c-7.11,2.21-14.46,4.25-21.86,5.19c-3.68,0.47-7.47,0.57-11.12-0.18
					c-3.25-0.67-6.32-1.93-9.2-3.56C26.07,89.9,18.09,79.01,15.54,66.78c-1.58-7.6-1.06-15.56,1.56-22.87
					c0.46-1.3-1.6-1.86-2.06-0.57c-4.75,13.25-2.62,28.35,5.2,39.99c3.48,5.18,7.97,9.67,13.18,13.11
					c6.16,4.07,13.05,6.22,20.46,5.83c4.27-0.23,8.49-1.08,12.66-2.03c4.42-1.01,8.8-2.19,13.13-3.54c1.34-0.42,0.77-2.28-0.57-2.06
					c-7.21,1.19-14.5,2.38-21.83,1.92c-6.34-0.4-12.46-2.27-18.03-5.31c-5.43-2.97-10.31-6.94-14.4-11.57
					c-4.36-4.94-7.15-10.79-7.97-17.34c-0.87-6.98,0.21-14.08,2.32-20.75C19.61,40.26,17.55,39.7,17.13,41.01L17.13,41.01z"/>
			</g>
		</g>
		<g class="st7">
			<path d="M29.23,40.98c-3.28,8.23-1.5,18.06,3.33,25.4s12.38,12.41,20.39,15.49c8.02,3.08,16.56,4.34,25.05,5.37
				c-5.51,1.03-10.56,3.89-16.02,5.14c-12.22,2.81-25.65-3.29-32.69-14.08s-7.73-25.51-2.51-37.37"/>
			<g>
				<path d="M28.2,40.69c-3.69,9.5-1.11,20.49,4.99,28.39c6.24,8.07,15.57,13,25.25,15.71C64.83,86.59,71.43,87.5,78,88.3
					c-0.09-0.7-0.19-1.4-0.28-2.1c-6.37,1.25-12.09,4.8-18.57,5.6c-5.42,0.66-10.99-0.4-15.9-2.74
					C32.5,83.93,25.81,73.33,24.63,61.6c-0.69-6.83,0.33-13.83,3.07-20.14c0.54-1.25-1.3-2.34-1.85-1.08
					c-5.05,11.63-4.89,25.65,1.48,36.76c5.82,10.16,17.14,17.13,28.95,16.97c3.52-0.05,6.92-0.82,10.23-1.98
					c3.91-1.37,7.69-3.08,11.78-3.88c1.29-0.25,0.81-1.97-0.28-2.1c-10.45-1.27-21.19-2.93-30.57-8
					c-8.3-4.49-15.28-11.59-17.8-20.87c-1.44-5.29-1.36-10.9,0.63-16.03C30.76,39.98,28.69,39.42,28.2,40.69L28.2,40.69z"/>
			</g>
		</g>
		<g class="st7">
			<path d="M80.05,114.79c10.9,14.25,26.67,24.37,43.78,28.07c-6.89,2.06-13.27,5.93-18.38,11.17c-2.72-4.41-5.44-8.83-8.16-13.24
				c-4.88-7.92-9.8-15.89-16.02-22.71"/>
			<g>
				<path d="M79.12,115.33c8.55,11.12,19.94,19.86,32.99,25.06c3.71,1.48,7.54,2.64,11.44,3.5c0-0.69,0-1.37,0-2.06
					c-7.15,2.17-13.61,6.13-18.86,11.44c0.56,0.07,1.12,0.14,1.68,0.22c-3.92-6.36-7.79-12.76-11.78-19.08
					c-3.78-5.98-7.8-11.84-12.56-17.09c-0.93-1.02-2.43,0.49-1.51,1.51c4.75,5.23,8.72,11.08,12.47,17.05
					c3.9,6.19,7.7,12.46,11.54,18.69c0.36,0.58,1.19,0.72,1.68,0.22c4.99-5.06,11.11-8.83,17.91-10.89c0.96-0.29,1.07-1.83,0-2.06
					c-13.23-2.9-25.5-9.53-35.3-18.87c-2.83-2.7-5.46-5.61-7.84-8.71C80.14,113.17,78.28,114.24,79.12,115.33L79.12,115.33z"/>
			</g>
		</g>
		<g class="st7">
			<path d="M109.57,154.51c1.8,0.35,3.59-0.53,5.24-1.39c3.33-1.74,6.71-3.52,9.47-6.13c-0.81,0.8-1.63,1.6-2.44,2.4
				c-2.73,2.69-5.55,5.43-9,6.96c-0.92,0.41-1.95,0.72-2.9,0.39c-0.94-0.34-1.62-1.59-1.07-2.46"/>
			<g>
				<path d="M109.29,155.54c3.06,0.49,5.86-1.36,8.44-2.76c2.61-1.42,5.13-3,7.31-5.03c-0.5-0.5-1.01-1.01-1.51-1.51
					c-2.3,2.26-4.55,4.64-7.08,6.64c-1.2,0.95-2.51,1.8-3.9,2.44c-0.62,0.28-1.45,0.66-2.14,0.44c-0.33-0.1-0.81-0.55-0.61-0.94
					c0.64-1.22-1.2-2.3-1.85-1.08c-0.81,1.55,0.07,3.48,1.71,4.03c2.01,0.67,4.27-0.64,5.92-1.67c3.57-2.23,6.48-5.41,9.46-8.34
					c0.99-0.97-0.51-2.45-1.51-1.51c-1.91,1.79-4.12,3.18-6.4,4.44c-1.11,0.61-2.22,1.21-3.35,1.78c-1.19,0.6-2.55,1.25-3.92,1.03
					c-0.57-0.09-1.14,0.15-1.31,0.75C108.4,154.74,108.72,155.45,109.29,155.54L109.29,155.54z"/>
			</g>
		</g>
		<g class="st8">
			<g>
				<path class="st9" d="M49.92,37.93c6.96-3.67,15.21,0.57,20.32,5.51c5.19,5.01,8.49,11.71,9.51,18.83
					c0.19,1.36,2.25,0.78,2.06-0.57c-1.12-7.83-5-15.26-10.89-20.55c-5.82-5.22-14.58-9.03-22.08-5.07
					C47.63,36.73,48.71,38.57,49.92,37.93L49.92,37.93z"/>
			</g>
		</g>
		<g class="st8">
			<g>
				<path class="st9" d="M52.3,21.29c4.15-1.62,8.55-1.13,12.78-0.07c4.06,1.02,8.25,2.27,11.97,4.19
					c6.91,3.56,11.41,10.32,12.97,17.83c0.28,1.35,2.34,0.78,2.06-0.57c-1.67-8.01-6.59-15.32-13.95-19.11
					c-4.02-2.07-8.53-3.45-12.92-4.51c-4.44-1.08-9.14-1.52-13.48,0.18C50.47,19.72,51.02,21.79,52.3,21.29L52.3,21.29z"/>
			</g>
		</g>
	</g>
</g>
<g id="Ebene_9_6_">
</g>
<g id="Ebene_3">
	<g>
		<g id="Ebene_2_Kopie_4_">
			<g>
				<path class="st20" d="M109.62,63.91c4.24,1.29,17.12,5.27,18.9,3.76c2.9-2.45,14.85-34.2,13.27-36.83
					c-3.32-5.53-55.65-23.35-61.75-19.5c-5.5,3.47-7.81,35.51-6.67,37.78c1.73,3.44,10.85,4.36,14.51,7.01
					c1.63,1.18,7.12,13.04,9.17,13.47c1.16,0.24,9.2-3.02,12.43-5.72"/>
				<g>
					<path class="st21" d="M109.53,64.23c4.16,1.27,8.33,2.53,12.58,3.43c1.02,0.22,2.05,0.41,3.09,0.54
						c0.77,0.1,1.56,0.18,2.34,0.11c0.48-0.05,0.95-0.15,1.3-0.5c0.27-0.27,0.49-0.6,0.7-0.92c0.68-1.06,1.24-2.2,1.78-3.33
						c0.78-1.62,1.5-3.28,2.2-4.94c1.69-4,3.24-8.07,4.68-12.17c1.27-3.61,2.5-7.26,3.41-10.98c0.28-1.15,0.56-2.34,0.63-3.52
						c0.02-0.34,0.03-0.7-0.07-1.03c-0.09-0.29-0.28-0.52-0.48-0.74c-0.57-0.62-1.29-1.1-1.99-1.54c-1.03-0.66-2.12-1.24-3.21-1.8
						c-3.05-1.55-6.21-2.88-9.39-4.15c-3.89-1.56-7.82-2.99-11.79-4.34c-4.11-1.4-8.26-2.71-12.44-3.91
						c-3.73-1.07-7.49-2.05-11.3-2.84c-2.76-0.57-5.59-1.1-8.42-1.14c-0.86-0.01-1.77,0.02-2.6,0.28c-0.87,0.27-1.49,0.92-2,1.67
						c-0.81,1.2-1.34,2.61-1.79,3.98c-0.61,1.83-1.06,3.71-1.46,5.6c-0.91,4.36-1.51,8.79-1.94,13.22
						c-0.36,3.62-0.64,7.27-0.61,10.9c0.01,0.92-0.02,1.92,0.21,2.82c0.14,0.58,0.58,1.08,1,1.46c0.79,0.72,1.75,1.22,2.71,1.65
						c2.39,1.06,4.93,1.71,7.39,2.6c1.09,0.39,2.18,0.83,3.17,1.44c0.34,0.21,0.46,0.28,0.7,0.54c0.19,0.21,0.34,0.42,0.5,0.65
						c1.11,1.59,2.04,3.33,3,5.02c1.07,1.86,2.12,3.74,3.36,5.49c0.42,0.59,0.86,1.21,1.41,1.69c0.42,0.36,0.81,0.51,1.36,0.43
						c0.82-0.13,1.63-0.42,2.41-0.7c1.17-0.42,2.31-0.91,3.44-1.43c2.18-1,4.41-2.12,6.28-3.67c0.32-0.27-0.13-0.73-0.45-0.46
						c-0.9,0.75-1.91,1.37-2.93,1.94c-1.15,0.65-2.33,1.23-3.53,1.77c-1.08,0.49-2.18,0.94-3.3,1.33c-0.69,0.24-1.51,0.55-2.19,0.59
						c-0.04,0-0.09,0-0.13,0c-0.12,0,0.02,0.01-0.06-0.01c-0.04-0.01-0.07-0.02-0.11-0.03c0.08,0.03-0.07-0.04-0.1-0.06
						c-0.2-0.12-0.36-0.28-0.56-0.48c-0.54-0.57-0.99-1.23-1.43-1.88c-1.2-1.81-2.27-3.72-3.35-5.6c-0.9-1.56-1.76-3.19-2.84-4.64
						c-0.42-0.56-0.9-0.92-1.51-1.26c-1.02-0.57-2.12-0.99-3.21-1.38c-2.42-0.86-4.94-1.5-7.27-2.58c-0.91-0.42-1.83-0.91-2.53-1.64
						c-0.13-0.14-0.26-0.29-0.37-0.45c-0.06-0.09-0.11-0.18-0.16-0.27c-0.01-0.02-0.07-0.16-0.02-0.03
						c-0.04-0.11-0.07-0.23-0.09-0.35c-0.07-0.34-0.09-0.72-0.12-1.15c-0.03-0.59-0.04-1.17-0.04-1.76c0-1.63,0.07-3.26,0.17-4.89
						c0.25-4.25,0.69-8.5,1.32-12.71c0.59-3.97,1.3-7.99,2.6-11.8c0.44-1.29,0.96-2.61,1.75-3.73c0.24-0.34,0.61-0.74,0.93-0.95
						c0.06-0.04,0.11-0.07,0.17-0.1c0.03-0.01,0.05-0.03,0.08-0.04c0.1-0.05-0.04,0.01,0.06-0.03c0.15-0.06,0.3-0.11,0.46-0.15
						c0.42-0.11,0.67-0.13,1.1-0.16c0.5-0.04,1-0.04,1.5-0.02c1.24,0.04,2.48,0.18,3.71,0.36c3.39,0.5,6.75,1.27,10.07,2.12
						c4.02,1.03,8.01,2.19,11.97,3.45c4.07,1.29,8.12,2.67,12.12,4.15c3.56,1.31,7.1,2.7,10.57,4.24c2.5,1.11,5.03,2.26,7.35,3.74
						c0.39,0.25,0.78,0.51,1.15,0.8c0.07,0.05,0.07,0.05,0.17,0.14c0.07,0.06,0.15,0.12,0.22,0.18c0.12,0.11,0.24,0.22,0.35,0.34
						c0.05,0.05,0.09,0.1,0.13,0.15c0.02,0.03,0.04,0.05,0.06,0.08c-0.07-0.09,0,0,0.02,0.03c0.03,0.04,0.06,0.09,0.08,0.13
						c0.05,0.08-0.02-0.06,0,0.01c0.01,0.03,0.02,0.06,0.03,0.09c0.01,0.04,0.04,0.23,0.03,0.12c0.01,0.08,0.02,0.16,0.02,0.24
						c0.01,0.2,0,0.4-0.02,0.59c-0.08,1.1-0.37,2.31-0.65,3.45c-0.42,1.69-0.92,3.37-1.44,5.03c-1.27,4.05-2.71,8.06-4.24,12.02
						c-1.38,3.59-2.83,7.17-4.49,10.63c-0.54,1.12-1.09,2.26-1.77,3.31c-0.23,0.35-0.34,0.54-0.61,0.81
						c-0.12,0.12-0.18,0.16-0.32,0.2c-0.26,0.09-0.47,0.11-0.73,0.13c-0.8,0.05-1.6-0.04-2.39-0.16c-1.04-0.15-2.08-0.35-3.11-0.58
						c-2.34-0.51-4.65-1.14-6.96-1.8c-1.74-0.5-3.47-1.02-5.19-1.55C109.3,63.48,109.14,64.11,109.53,64.23L109.53,64.23z"/>
				</g>
			</g>
		</g>
		<g id="Ebene_8_3_">
			<g>
				<g>
					<path class="st21" d="M129.02,41.79c-1.71,4.78-3.43,9.57-5.14,14.35c-0.19,0.52-0.05,1.27,0.22,1.73
						c0.27,0.48,0.81,0.94,1.36,1.06c0.57,0.12,1.2,0.09,1.7-0.24c0.53-0.34,0.84-0.8,1.05-1.39c1.71-4.78,3.43-9.57,5.14-14.35
						c0.19-0.52,0.05-1.27-0.22-1.73c-0.27-0.48-0.81-0.94-1.36-1.06c-0.57-0.12-1.2-0.09-1.7,0.24
						C129.54,40.74,129.23,41.19,129.02,41.79L129.02,41.79z"/>
				</g>
			</g>
		</g>
		<g id="Ebene_7_3_">
			<g class="st14">
				<g>
					<path class="st9" d="M124.28,27.13c1.26,0.58,2.56,1.03,3.85,1.52c0.36,0.13,0.71,0.27,1.07,0.41
						c0.17,0.07,0.35,0.14,0.52,0.21c0.09,0.04,0.17,0.07,0.26,0.11c0.28,0.12-0.24-0.1,0.05,0.02c0.67,0.29,1.33,0.59,1.97,0.93
						c0.3,0.16,0.59,0.33,0.88,0.51c0.13,0.08,0.26,0.17,0.38,0.25c0.06,0.04,0.12,0.09,0.18,0.13c0.24,0.18-0.17-0.15-0.02-0.02
						c0.2,0.18,0.4,0.35,0.58,0.56c0.04,0.04,0.07,0.1,0.11,0.14c-0.06-0.06-0.19-0.28-0.08-0.1c0.06,0.1,0.11,0.23,0.18,0.33
						c-0.04-0.05-0.12-0.34-0.06-0.14c0.01,0.05,0.03,0.1,0.04,0.15c0.09,0.28,0.01-0.27-0.01-0.08c-0.01,0.1-0.04,0.44,0,0.12
						c0.04-0.32,0.01-0.06-0.01,0.02c-0.01,0.07-0.03,0.14-0.04,0.22c-0.03,0.16-0.07,0.33-0.11,0.49c-0.56,2.23-1.39,4.4-2.17,6.56
						c-1.11,3.05-2.27,6.09-3.44,9.12c-1.1,2.87-2.22,5.73-3.31,8.61c-0.11,0.3-0.23,0.6-0.34,0.89c-0.24,0.64,0.27,1.46,0.9,1.59
						c0.73,0.16,1.32-0.25,1.57-0.93c1.07-2.84,2.17-5.66,3.26-8.49c1.2-3.12,2.4-6.23,3.55-9.37c0.85-2.31,1.73-4.64,2.38-7.02
						c0.17-0.61,0.38-1.32,0.32-1.95c-0.14-1.48-1.28-2.5-2.44-3.26c-1.3-0.85-2.77-1.44-4.2-2.02c-1.33-0.53-2.69-1-4.01-1.54
						c-0.07-0.03-0.13-0.05-0.2-0.08c-0.2-0.08,0.31,0.13,0.08,0.03c-0.12-0.05-0.25-0.11-0.37-0.16c-0.61-0.28-1.41-0.19-1.76,0.48
						C123.54,25.92,123.63,26.83,124.28,27.13L124.28,27.13z"/>
				</g>
			</g>
			<g class="st14">
				<g>
					<path class="st9" d="M123.3,63.51c-0.03,0.29-0.06,0.57-0.1,0.86c0.73-0.31,1.47-0.63,2.2-0.94c-0.26-0.29-0.52-0.57-0.78-0.86
						c-0.09,0.68-0.19,1.37-0.28,2.05c-0.17,0.08-0.33,0.14-0.53,0.11c-0.08,0-0.15-0.02-0.22-0.06c-0.12-0.06-0.14-0.06-0.05-0.02
						c-0.12-0.09-0.21-0.18-0.3-0.31c0.05,0.08,0.04,0.06-0.01-0.05c-0.05-0.1-0.08-0.2-0.08-0.32c0.32-0.43,0.63-0.85,0.95-1.28
						c0.02-0.01,0.32-0.01,0.16-0.02c0.16,0.01,0.29,0.04,0.44,0.11c-0.15-0.07,0.1,0.09,0.12,0.1c-0.12-0.1,0.08,0.1,0.09,0.13
						c0.07,0.13,0.1,0.28,0.1,0.42c-0.01-0.24-0.14,0.46-0.13,0.44c0.07-0.15-0.08,0.1-0.1,0.12c-0.05,0.04-0.11,0.09-0.16,0.13
						c-0.2,0.08-0.26,0.1-0.16,0.07c0.15-0.03-0.3,0.03-0.15,0.02c0.07,0,0.04,0-0.08-0.01c-0.08,0-0.15-0.01-0.22-0.05
						c-0.28-0.11-0.47-0.35-0.51-0.65c-0.04-0.28-0.04,0.13,0-0.17c0.04-0.29-0.07,0.11,0.04-0.17c0.02-0.08,0.06-0.14,0.11-0.2
						c0.08-0.09,0.09-0.11,0.05-0.07c-0.08,0.08,0.28-0.18,0.09-0.09c0.62,0.26,1.25,0.52,1.87,0.77c-0.04-0.12-0.08-0.25-0.12-0.37
						c-0.21-0.65-0.89-1.13-1.57-0.9c-0.63,0.21-1.13,0.92-0.91,1.61c0.04,0.12,0.08,0.25,0.12,0.37c0.13,0.4,0.36,0.68,0.74,0.84
						c0.4,0.17,0.74,0.1,1.13-0.07c0.78-0.35,1.15-1.42,0.9-2.21c-0.29-0.94-1.31-1.48-2.24-1.15c-0.9,0.32-1.53,1.31-1.2,2.27
						c0.32,0.93,1.27,1.5,2.23,1.23c0.55-0.16,0.95-0.7,0.95-1.28c0-0.62-0.33-1.24-0.87-1.55c-0.58-0.34-1.18-0.31-1.78-0.03
						c-0.78,0.38-0.79,1.48-0.28,2.05c0.26,0.29,0.52,0.57,0.78,0.86c0.35,0.38,0.94,0.46,1.4,0.27c0.51-0.22,0.74-0.67,0.8-1.21
						c0.03-0.29,0.06-0.57,0.1-0.86c0.03-0.3-0.17-0.7-0.37-0.91c-0.22-0.23-0.6-0.4-0.92-0.38c-0.33,0.02-0.67,0.13-0.89,0.38
						C123.43,62.84,123.34,63.14,123.3,63.51L123.3,63.51z"/>
				</g>
			</g>
		</g>
		<g id="Ebene_2_5_">
			<g>
				<g>
					<path d="M106.79,66.48c4.16,1.27,8.34,2.54,12.6,3.45c1.02,0.22,2.06,0.41,3.1,0.54c0.83,0.11,1.68,0.21,2.51,0.13
						c0.65-0.06,1.26-0.21,1.75-0.69c0.31-0.3,0.56-0.68,0.79-1.04c0.68-1.05,1.24-2.2,1.79-3.33c0.78-1.63,1.51-3.28,2.21-4.95
						c1.7-4.05,3.28-8.15,4.73-12.29c1.27-3.6,2.5-7.25,3.39-10.97c0.29-1.19,0.56-2.41,0.62-3.63c0.02-0.39,0.01-0.8-0.11-1.18
						c-0.12-0.4-0.38-0.73-0.66-1.02c-0.62-0.66-1.39-1.17-2.15-1.65c-1.05-0.66-2.14-1.24-3.24-1.8c-3.1-1.56-6.31-2.91-9.54-4.2
						c-3.89-1.55-7.82-2.99-11.78-4.34c-4.11-1.4-8.25-2.71-12.42-3.91c-3.72-1.07-7.47-2.05-11.25-2.83
						c-2.82-0.59-5.72-1.14-8.62-1.18c-0.92-0.01-1.89,0.02-2.78,0.29c-1.03,0.31-1.76,1.04-2.37,1.92c-0.85,1.23-1.4,2.7-1.87,4.12
						c-0.61,1.83-1.07,3.71-1.46,5.59c-0.92,4.4-1.51,8.87-1.95,13.34c-0.35,3.63-0.63,7.29-0.6,10.94c0.01,0.97,0,2.01,0.23,2.95
						c0.18,0.69,0.67,1.3,1.19,1.76c0.85,0.76,1.86,1.31,2.9,1.76c2.46,1.07,5.05,1.75,7.56,2.67c0.28,0.1,0.55,0.2,0.82,0.31
						c0.07,0.03,0.15,0.06,0.22,0.09c0.04,0.02,0.28,0.12,0.05,0.02c0.14,0.06,0.28,0.12,0.42,0.18c0.51,0.23,1.01,0.48,1.49,0.78
						c0.09,0.06,0.18,0.12,0.27,0.18c0.05,0.03,0.1,0.08,0.15,0.11c0.11,0.06-0.21-0.2-0.13-0.1c0.07,0.08,0.16,0.15,0.23,0.22
						c0.08,0.09,0.16,0.19,0.24,0.29c0.17,0.22-0.12-0.17,0.02,0.02c0.06,0.08,0.12,0.16,0.17,0.25c1.1,1.59,2.03,3.31,3,4.99
						c1.07,1.86,2.13,3.74,3.38,5.48c0.45,0.63,0.92,1.3,1.51,1.8c0.28,0.24,0.57,0.46,0.93,0.56c0.36,0.11,0.7,0.06,1.06,0
						c0.83-0.14,1.65-0.42,2.44-0.71c1.21-0.44,2.4-0.94,3.57-1.47c2.22-1.01,4.47-2.15,6.37-3.73c0.4-0.34,0.35-1.04,0.01-1.39
						c-0.39-0.4-0.95-0.33-1.36,0c-0.05,0.05-0.38,0.3-0.16,0.13c-0.1,0.08-0.2,0.15-0.3,0.23c-0.24,0.17-0.48,0.34-0.72,0.5
						c-0.52,0.34-1.06,0.66-1.61,0.97c-1.15,0.64-2.33,1.22-3.53,1.76c-0.13,0.06-0.26,0.11-0.39,0.17
						c-0.02,0.01-0.28,0.12-0.08,0.03c-0.08,0.03-0.15,0.07-0.23,0.1c-0.3,0.13-0.59,0.25-0.89,0.37c-0.52,0.21-1.04,0.41-1.57,0.59
						c-0.43,0.15-0.86,0.29-1.3,0.41c-0.16,0.04-0.33,0.08-0.49,0.12c-0.07,0.01-0.16,0.01-0.23,0.04c0.24-0.1,0.18-0.02,0.02-0.01
						c-0.05,0-0.11,0-0.16,0.01c-0.18,0.02,0.17,0.04,0.13,0.02c-0.03-0.01-0.1-0.04-0.13-0.04c0.25,0.01,0.22,0.11,0.08,0.02
						c-0.05-0.03-0.1-0.06-0.14-0.1c-0.17-0.11,0.2,0.17,0.04,0.03c-0.11-0.1-0.22-0.2-0.32-0.31c-0.25-0.26-0.47-0.53-0.69-0.82
						c-0.04-0.05-0.17-0.19,0.02,0.03c-0.03-0.04-0.07-0.09-0.1-0.13c-0.06-0.08-0.12-0.17-0.18-0.25
						c-0.14-0.19-0.27-0.39-0.41-0.59c-1.21-1.8-2.27-3.7-3.36-5.57c-0.93-1.62-1.84-3.29-2.96-4.78c-0.44-0.58-0.96-0.97-1.58-1.33
						c-1.08-0.62-2.26-1.07-3.43-1.48c-1.23-0.44-2.47-0.83-3.71-1.24c-0.61-0.2-1.22-0.41-1.83-0.63c-0.28-0.1-0.56-0.21-0.83-0.32
						c-0.07-0.03-0.15-0.06-0.22-0.09c-0.24-0.1,0.13,0.06-0.01-0.01c-0.15-0.07-0.31-0.13-0.46-0.2c-0.5-0.23-0.99-0.48-1.45-0.77
						c-0.2-0.13-0.39-0.27-0.59-0.4c-0.18-0.13,0.16,0.15,0,0c-0.04-0.04-0.09-0.08-0.14-0.12c-0.09-0.08-0.17-0.16-0.26-0.24
						c-0.08-0.08-0.16-0.16-0.23-0.25c-0.02-0.03-0.05-0.06-0.07-0.09c-0.13-0.15,0.12,0.19,0.02,0.02c-0.07-0.12-0.15-0.3-0.24-0.4
						c0.18,0.21,0.09,0.27,0.06,0.15c-0.01-0.02-0.01-0.05-0.02-0.07c-0.02-0.07-0.03-0.13-0.05-0.2c-0.01-0.07-0.03-0.15-0.04-0.22
						c-0.04-0.23,0.02,0.17,0.01,0.09c0-0.05-0.01-0.1-0.02-0.15c-0.02-0.23-0.04-0.45-0.05-0.68c-0.03-0.59-0.04-1.18-0.04-1.77
						c0-1.62,0.07-3.24,0.16-4.86c0.12-2.03,0.28-4.05,0.48-6.07c0.11-1.11,0.23-2.23,0.37-3.34c0.03-0.26,0.06-0.53,0.1-0.79
						c0.01-0.07,0.06-0.46,0.02-0.17c0.02-0.17,0.04-0.34,0.07-0.5c0.07-0.55,0.15-1.1,0.23-1.65c0.58-3.96,1.28-7.97,2.59-11.77
						c0.13-0.38,0.27-0.76,0.42-1.14c0.03-0.08,0.16-0.35,0.01-0.03c0.04-0.09,0.07-0.18,0.11-0.26c0.07-0.17,0.15-0.34,0.23-0.5
						c0.26-0.56,0.57-1.1,0.92-1.6c0.02-0.03,0.05-0.05,0.06-0.08c0.01-0.01-0.18,0.22-0.09,0.12c0.04-0.05,0.08-0.11,0.13-0.16
						c0.08-0.1,0.17-0.19,0.26-0.28c0.08-0.08,0.16-0.15,0.24-0.22c0.14-0.13-0.24,0.16-0.04,0.03c0.05-0.03,0.09-0.06,0.14-0.09
						c0.05-0.03,0.11-0.06,0.17-0.09c0.03-0.02,0.07-0.03,0.1-0.05c0.03-0.02-0.29,0.11-0.1,0.05c0.15-0.05,0.3-0.1,0.46-0.14
						c0.08-0.02,0.17-0.04,0.25-0.05c0.05-0.01,0.1-0.02,0.14-0.03c0.24-0.04-0.14,0.02-0.07,0.01c0.21-0.02,0.42-0.05,0.63-0.06
						c0.5-0.03,1.01-0.03,1.51-0.02c0.59,0.02,1.17,0.07,1.76,0.12c0.15,0.02,0.31,0.03,0.46,0.05c0.07,0.01,0.14,0.02,0.21,0.02
						c0.04,0.01,0.09,0.01,0.13,0.02c0.24,0.03-0.21-0.03-0.04,0c0.34,0.05,0.69,0.09,1.04,0.14c3.39,0.5,6.75,1.28,10.07,2.13
						c4,1.02,7.96,2.18,11.89,3.43c4.08,1.29,8.13,2.67,12.14,4.15c1.87,0.69,3.73,1.4,5.58,2.14c0.88,0.35,1.77,0.71,2.64,1.08
						c-0.23-0.1-0.02-0.01,0.09,0.04c0.11,0.05,0.21,0.09,0.32,0.14c0.21,0.09,0.42,0.18,0.63,0.27c0.39,0.17,0.79,0.34,1.18,0.51
						c2.51,1.11,5.04,2.26,7.37,3.73c0.39,0.25,0.78,0.51,1.15,0.79c0.03,0.03,0.07,0.05,0.1,0.08c-0.31-0.23-0.13-0.1-0.06-0.04
						c0.07,0.06,0.15,0.12,0.22,0.19c0.12,0.11,0.24,0.22,0.36,0.34c0.05,0.05,0.09,0.1,0.14,0.15c0.02,0.02,0.04,0.05,0.06,0.08
						c0.11,0.13-0.17-0.25-0.07-0.1c0.03,0.05,0.06,0.09,0.09,0.14c0.11,0.16-0.08-0.3-0.03-0.06c0.01,0.06,0.02,0.12,0.04,0.18
						c-0.08-0.29-0.02-0.18-0.01,0c0.01,0.19,0,0.37-0.01,0.56c-0.01,0.1-0.02,0.21-0.03,0.31c-0.01,0.06-0.01,0.12-0.02,0.18
						c-0.03,0.26,0.04-0.25,0-0.04c-0.04,0.27-0.08,0.54-0.13,0.82c-0.12,0.67-0.28,1.34-0.44,2.01c-0.41,1.67-0.9,3.33-1.42,4.97
						c-1.27,4.06-2.71,8.07-4.24,12.04c-0.38,0.99-0.77,1.98-1.17,2.97c-0.19,0.48-0.39,0.95-0.58,1.43c-0.02,0.05-0.11,0.27,0,0
						c-0.02,0.05-0.04,0.1-0.06,0.15c-0.05,0.11-0.09,0.22-0.14,0.33c-0.1,0.24-0.2,0.48-0.3,0.71c-0.69,1.62-1.39,3.24-2.16,4.83
						c-0.54,1.12-1.1,2.26-1.77,3.3c-0.11,0.17-0.24,0.33-0.35,0.5c0.22-0.34,0.07-0.09-0.01,0c-0.05,0.06-0.1,0.11-0.15,0.16
						c-0.02,0.02-0.05,0.04-0.07,0.06c-0.1,0.11,0.25-0.14,0.09-0.07c-0.04,0.02-0.09,0.05-0.13,0.07
						c-0.06,0.05-0.18-0.06,0.15-0.07c-0.03,0-0.07,0.03-0.11,0.04c-0.11,0.03-0.23,0.05-0.34,0.08c-0.15,0.03,0.26-0.03,0.11-0.02
						c-0.04,0-0.07,0.01-0.11,0.01c-0.08,0.01-0.16,0.01-0.24,0.02c-0.36,0.02-0.72,0-1.07-0.02c-0.2-0.01-0.4-0.03-0.6-0.05
						c-0.08-0.01-0.48-0.04-0.15-0.02c-0.12-0.01-0.24-0.03-0.36-0.05c-1.06-0.15-2.1-0.36-3.14-0.59
						c-2.33-0.51-4.63-1.14-6.93-1.79c-1.74-0.5-3.47-1.02-5.2-1.55c-0.5-0.15-1.05,0.2-1.18,0.7
						C105.98,65.82,106.29,66.33,106.79,66.48L106.79,66.48z"/>
				</g>
			</g>
		</g>
		<g id="Ebene_5_4_">
			<g>
				<g>
					<path class="st9" d="M90.07,39.75c1.84,4.75,3.67,9.5,5.51,14.25c0.27,0.69,0.61,1.19,1.3,1.48c0.61,0.26,1.4,0.28,1.98-0.12
						c3.7-2.58,7.39-5.16,11.09-7.73c3.7-2.58,7.39-5.16,11.09-7.73c2.09-1.46,4.17-2.91,6.26-4.37c0.5-0.35,0.89-0.78,1.05-1.39
						c0.14-0.54,0.08-1.25-0.22-1.73c-0.61-0.98-2.02-1.54-3.06-0.82c-3.7,2.58-7.39,5.16-11.09,7.73
						c-3.7,2.58-7.39,5.16-11.09,7.73c-2.09,1.46-4.17,2.91-6.26,4.37c1.09,0.45,2.19,0.9,3.28,1.35c-1.84-4.75-3.67-9.5-5.51-14.25
						c-0.22-0.57-0.48-1.04-1.02-1.36c-0.48-0.28-1.19-0.4-1.73-0.22c-0.54,0.18-1.07,0.53-1.35,1.06
						C90.04,38.5,89.86,39.19,90.07,39.75L90.07,39.75z"/>
				</g>
			</g>
		</g>
		<g id="Ebene_9_3_">
			<g class="st15">
				<path d="M79.44,11.85c-4.74,17.75,8.98,43.88,19.29,58.1c-1.75,0.01-3.17-2.88-5.98-6.75c-3.97-5.47-2.42-5.6-4.93-7.5
					c-2.09-1.58-5.02-2.09-7.52-2.84c-2.3-0.7-5.1-1.89-6.27-3.49c-1.54-2.1,0.3-23.1,4-35.31"/>
				<g>
					<path d="M78.82,11.68c-0.98,3.69-1.15,7.55-0.85,11.33c0.33,4.19,1.22,8.32,2.41,12.33c1.27,4.25,2.88,8.4,4.71,12.43
						c1.8,3.97,3.82,7.85,6.01,11.61c1.96,3.37,4.07,6.67,6.32,9.85c0.25,0.35,0.5,0.7,0.75,1.05c0.18-0.33,0.37-0.66,0.55-0.98
						c-0.05,0-0.09,0-0.14-0.01c0.17,0.01,0.03,0-0.01-0.01c-0.08-0.02-0.15-0.04-0.23-0.06c-0.17-0.06,0.05,0.04-0.11-0.05
						c-0.09-0.05-0.18-0.1-0.27-0.16c-0.05-0.03-0.09-0.06-0.14-0.1c0.1,0.07,0,0-0.03-0.02c-0.09-0.07-0.17-0.15-0.25-0.23
						c-0.18-0.17-0.35-0.36-0.51-0.55c-0.87-1.02-1.59-2.17-2.34-3.27c-1.48-2.16-3.11-4.22-4.2-6.63
						c-0.22-0.48-0.41-0.98-0.69-1.42c-0.36-0.56-0.82-1-1.33-1.41c-2.52-2-5.76-2.39-8.72-3.38c-1.35-0.45-2.69-1.01-3.87-1.81
						c-0.49-0.33-0.93-0.71-1.3-1.18c-0.05-0.07,0.04,0.09-0.02-0.03c-0.01-0.03-0.03-0.06-0.04-0.08
						c-0.05-0.09-0.01-0.12,0.01,0.04c0-0.04-0.03-0.09-0.05-0.13c-0.07-0.2-0.11-0.41-0.15-0.62c-0.01-0.07-0.02-0.14-0.03-0.21
						c-0.01-0.05-0.03-0.26-0.01-0.05c-0.02-0.15-0.03-0.29-0.05-0.44c-0.07-0.73-0.09-1.47-0.1-2.21
						c-0.03-4.55,0.44-9.12,1.03-13.63c0.69-5.29,1.6-10.58,3.01-15.74c0.15-0.56,0.31-1.12,0.48-1.68
						c0.24-0.81-0.99-1.14-1.24-0.33c-1.54,5.1-2.5,10.39-3.25,15.66c-0.69,4.84-1.24,9.75-1.31,14.64
						c-0.02,1.47-0.04,2.98,0.24,4.43c0.1,0.5,0.26,0.94,0.58,1.33c0.85,1.07,2.12,1.78,3.33,2.35c1.41,0.66,2.88,1.13,4.38,1.54
						c1.54,0.42,3.11,0.79,4.56,1.49c0.35,0.17,0.7,0.36,1.03,0.57c0.15,0.1,0.3,0.2,0.44,0.3c0.06,0.04,0.12,0.09,0.18,0.13
						c0.1,0.08-0.06-0.05,0.07,0.05c0.26,0.21,0.52,0.44,0.74,0.69c0.04,0.05,0.08,0.09,0.12,0.14c0.05,0.07,0.12,0.17,0.03,0.03
						c0.07,0.11,0.15,0.22,0.22,0.34c0.13,0.22,0.24,0.45,0.34,0.68c0.32,0.71,0.64,1.41,1.02,2.08c0.72,1.29,1.59,2.49,2.44,3.69
						c0.92,1.29,1.78,2.63,2.72,3.92c0.62,0.84,1.29,1.77,2.21,2.3c0.38,0.22,0.8,0.34,1.24,0.35c0.45,0,0.84-0.58,0.55-0.98
						c-2.22-3.06-4.3-6.24-6.24-9.5c-2.19-3.67-4.22-7.43-6.05-11.3c-1.87-3.94-3.52-7.99-4.86-12.15
						c-1.27-3.95-2.27-8.01-2.74-12.15c-0.42-3.72-0.43-7.54,0.35-11.2c0.09-0.44,0.2-0.87,0.31-1.3
						C80.27,11.2,79.04,10.87,78.82,11.68L78.82,11.68z"/>
				</g>
			</g>
		</g>
	</g>
</g>
<g id="Ebene_10_4_">
</g>
<g id="Ebene_8_6_">
</g>
<g id="Ebene_19_1_">
</g>
<g id="Ebene_23_1_">
</g>
<g id="Ebene_25">
</g>
<g id="Ebene_11_1_">
</g>
<g id="Ebene_12_1_">
</g>
</svg>
