<?xml version="1.0" encoding="utf-8"?>
<!-- Generator: Adobe Adobe Illustrator 24.2.0, SVG Export Plug-In . SVG Version: 6.00 Build 0)  -->
<svg version="1.1" xmlns="http://www.w3.org/2000/svg" xmlns:xlink="http://www.w3.org/1999/xlink" x="0px" y="0px"
	 viewBox="0 0 170.08 170.08" style="enable-background:new 0 0 170.08 170.08;" xml:space="preserve">
<style type="text/css">
	.st0{fill:#592F7D;}
	.st1{fill:#5A2F7C;}
	.st2{fill:#D3E1EB;}
	.st3{fill:#D3E1ED;}
	.st4{fill:#5C646E;stroke:#000000;stroke-width:2.7043;stroke-miterlimit:10;}
	.st5{fill:#B6D2E0;stroke:#000000;stroke-width:2.1378;stroke-miterlimit:10;}
	.st6{fill:#3D4D5B;}
	.st7{opacity:0.0784;}
	.st8{opacity:0.1216;}
	.st9{fill:#FFFFFF;}
	.st10{fill:#ECC9AD;}
	.st11{opacity:0.1608;}
	.st12{opacity:0.1686;}
	.st13{fill:#808E9D;}
	.st14{stroke:#000000;stroke-width:0.1244;stroke-miterlimit:9.9997;}
	.st15{opacity:0.3686;}
	.st16{fill:#D2E0EC;}
	.st17{opacity:0.2706;}
	.st18{opacity:0.149;}
	.st19{fill:#6CB571;}
	.st20{fill:#C8354E;}
	.st21{fill:#F0F6FA;}
	.st22{opacity:0.0314;}
	.st23{stroke:#000000;stroke-width:0.0649;stroke-miterlimit:10;}
	.st24{fill:#F0F6FA;stroke:#F0F6FA;stroke-width:1.1522;stroke-miterlimit:10;}
	.st25{fill:#6DB671;}
	.st26{fill:#6CB671;}
	.st27{fill:#D1DFEA;}
	.st28{fill:#F3C058;}
	.st29{fill:#C8AE9D;}
	.st30{opacity:0.1412;}
	.st31{fill:#C8354F;}
	.st32{fill:#C93550;}
	.st33{fill:#D15238;}
	.st34{fill:#D15239;}
	.st35{opacity:0.9882;}
	.st36{fill:#ADBECF;}
	.st37{fill:#F3C057;}
	.st38{fill:#F7D98D;}
	.st39{fill:#AEBFCE;}
	.st40{fill:#3D4C5B;}
	.st41{fill:#D2E1EC;}
	.st42{fill:#59AEAA;stroke:#5AADAB;stroke-miterlimit:10;}
	.st43{fill:#592F7D;stroke:#592F7D;stroke-miterlimit:10;}
	.st44{fill:#C8354F;stroke:#000000;stroke-miterlimit:10;}
	.st45{fill:#C93550;stroke:#000000;stroke-miterlimit:10;}
	.st46{fill:#FFFFFF;stroke:#000000;stroke-miterlimit:10;}
	.st47{stroke:#000000;stroke-miterlimit:10;}
</style>
<g id="Ebene_6_11_">
</g>
<g id="Ebene_13_1_">
</g>
<g id="Ebene_9_6_">
</g>
<g id="Ebene_14_3_">
</g>
<g id="Ebene_3">
	<g>
		<g id="Ebene_7_8_">
			<g>
				<path class="st13" d="M14.38,45.96c2.63,33.93,8.88,104.34,13.52,111.1c3.16,4.6,7.28,5.37,90.54-3.11
					c3.62-0.37,8.18-0.61,9.88-3.87c4.17-7.99-2.79-117.04-7.2-120.43c-5.34-4.12-32.25-0.63-49.47-0.23
					c-11.46,0.26-22.93,0.53-34.39,0.79c-8.18,0.19-24.78,0.84-22.84,15.63"/>
				<g>
					<path d="M13.76,45.96c0.73,9.38,1.51,18.75,2.34,28.12c0.96,10.81,1.98,21.61,3.11,32.4c1.03,9.78,2.13,19.56,3.5,29.3
						c0.53,3.73,1.09,7.46,1.77,11.17c0.47,2.56,0.97,5.13,1.72,7.62c0.54,1.76,1.28,3.44,2.77,4.56c1.3,0.98,2.97,1.35,4.54,1.57
						c3.35,0.47,6.78,0.41,10.15,0.31c6.38-0.18,12.75-0.66,19.1-1.17c10.51-0.84,21-1.84,31.5-2.86c7.15-0.7,14.3-1.41,21.44-2.14
						c2.95-0.3,6.11-0.35,8.95-1.27c1.83-0.59,3.65-1.72,4.38-3.61c0.47-1.23,0.59-2.63,0.72-3.93c0.22-2.19,0.31-4.39,0.37-6.58
						c0.18-6.5,0.06-13.01-0.11-19.51c-0.22-8.13-0.59-16.26-1.03-24.38c-0.47-8.47-1.02-16.93-1.69-25.39
						c-0.58-7.39-1.24-14.77-2.07-22.14c-0.56-4.96-1.11-9.98-2.19-14.87c-0.25-1.15-0.49-2.45-1.09-3.48
						c-0.35-0.61-0.97-0.94-1.59-1.21c-1.47-0.65-3.08-0.91-4.66-1.1c-4.76-0.58-9.63-0.39-14.41-0.2
						c-5.89,0.24-11.77,0.67-17.65,1.03c-6.25,0.39-12.5,0.58-18.76,0.72c-8.03,0.18-16.07,0.37-24.1,0.55
						c-4.26,0.1-8.53,0.11-12.75,0.79c-3.77,0.61-7.71,1.76-10.63,4.36c-3.18,2.84-4.12,7.04-3.59,11.18c0.1,0.79,1.34,0.8,1.24,0
						c-0.28-2.24-0.22-4.58,0.64-6.7c0.68-1.66,1.85-3.09,3.27-4.16c3.07-2.31,7.04-3.21,10.77-3.68c4.74-0.59,9.55-0.52,14.31-0.63
						c7.86-0.18,15.73-0.36,23.6-0.54c5.96-0.14,11.9-0.4,17.84-0.78c5.79-0.37,11.57-0.77,17.37-0.97c4.53-0.16,9.2-0.33,13.7,0.37
						c1.32,0.21,2.75,0.47,3.89,1.17c0.11,0.07,0.22,0.14,0.33,0.22c-0.13-0.11-0.05-0.04-0.02-0.02c0.02,0.02,0.04,0.05,0.06,0.07
						c0.1,0.11-0.09-0.15-0.01-0.02c0.09,0.15,0.17,0.29,0.24,0.44c0.02,0.05,0.1,0.24,0.01,0.02c0.02,0.05,0.04,0.11,0.06,0.16
						c0.04,0.12,0.09,0.24,0.13,0.36c0.1,0.29,0.18,0.58,0.26,0.87c0.2,0.74,0.37,1.5,0.52,2.26c0.44,2.17,0.77,4.35,1.08,6.54
						c0.89,6.37,1.53,12.78,2.11,19.18c0.73,8.05,1.34,16.1,1.86,24.16c0.55,8.35,1,16.72,1.35,25.08
						c0.3,7.34,0.53,14.68,0.56,22.02c0.02,4.98,0.05,10.02-0.48,14.99c-0.08,0.76-0.14,1.24-0.3,2.06
						c-0.05,0.27-0.12,0.54-0.19,0.81c-0.03,0.1-0.06,0.2-0.1,0.31c-0.02,0.05-0.04,0.1-0.05,0.15c-0.06,0.16,0.06-0.11,0,0.01
						c-1.06,2.17-3.49,2.89-5.67,3.26c-3.25,0.55-6.58,0.73-9.86,1.06c-12.47,1.26-24.93,2.5-37.41,3.62
						c-7.96,0.72-15.93,1.4-23.9,1.87c-4.53,0.27-9.08,0.51-13.62,0.34c-0.73-0.03-1.45-0.07-2.18-0.13
						c-0.32-0.03-0.63-0.06-0.95-0.1c-0.13-0.02-0.27-0.03-0.4-0.05c-0.16-0.02,0.13,0.02-0.08-0.01c-0.07-0.01-0.14-0.02-0.21-0.03
						c-0.88-0.13-1.76-0.32-2.59-0.64c-0.08-0.03-0.15-0.06-0.23-0.09c-0.13-0.05,0.16,0.08,0.01,0c-0.04-0.02-0.09-0.04-0.13-0.06
						c-0.14-0.07-0.28-0.14-0.41-0.21c-0.13-0.07-0.26-0.15-0.38-0.24c-0.05-0.04-0.11-0.08-0.16-0.11
						c-0.2-0.14,0.08,0.07-0.07-0.05c-0.2-0.17-0.39-0.35-0.57-0.54c-0.09-0.1-0.17-0.2-0.25-0.3c-0.04-0.05-0.07-0.1-0.11-0.14
						c0.17,0.22,0,0.01-0.04-0.05c-0.26-0.36-0.47-0.73-0.65-1.14c-0.09-0.19,0,0.02-0.06-0.14c-0.03-0.07-0.06-0.15-0.09-0.22
						c-0.08-0.21-0.15-0.42-0.22-0.63c-0.15-0.44-0.28-0.88-0.4-1.32c-0.73-2.61-1.24-5.3-1.71-7.97
						c-1.48-8.34-2.52-16.77-3.5-25.19c-1.22-10.45-2.29-20.92-3.28-31.4c-0.97-10.24-1.87-20.48-2.72-30.73
						c-0.34-4.11-0.67-8.22-0.99-12.33C14.94,45.16,13.7,45.15,13.76,45.96L13.76,45.96z"/>
				</g>
			</g>
		</g>
		<g id="Ebene_8_8_">
			<g>
				<path class="st9" d="M18.56,46.16C32.85,153,31.38,150.8,35.77,154.13c3.44,2.6,87.92-4.38,89.39-7.19
					c0.24-0.46-1.22-108.06-8-112.92c-8.99-6.43-91.97,2.58-95.52,4.73c-2.44,1.48-3.25,3.55-2.96,7.31"/>
				<g>
					<path d="M17.97,46.33c1.16,8.69,2.32,17.38,3.46,26.08c0.93,7.07,1.86,14.14,2.78,21.21c0.74,5.7,1.49,11.4,2.23,17.09
						c0.58,4.46,1.17,8.92,1.76,13.38c0.45,3.39,0.9,6.77,1.38,10.16c0.34,2.47,0.7,4.93,1.09,7.39c0.27,1.7,0.55,3.4,0.88,5.09
						c0.22,1.11,0.46,2.23,0.77,3.32c0.21,0.73,0.46,1.46,0.81,2.14c0.24,0.48,0.55,0.92,0.92,1.31c0.33,0.35,0.72,0.65,1.1,0.94
						c0.83,0.64,1.87,0.69,2.88,0.77c2.45,0.19,4.93,0.14,7.39,0.09c3.72-0.07,7.43-0.23,11.14-0.43c4.5-0.23,9-0.52,13.5-0.83
						c4.81-0.34,9.62-0.71,14.42-1.12c4.7-0.4,9.4-0.83,14.1-1.3c4.1-0.41,8.2-0.85,12.29-1.36c3.12-0.38,6.23-0.79,9.33-1.32
						c1.59-0.27,3.42-0.45,4.89-1.19c0.84-0.42,0.69-1.25,0.69-2.06c0-1.83-0.02-3.66-0.04-5.49c-0.04-3.03-0.09-6.07-0.15-9.1
						c-0.08-3.94-0.17-7.87-0.27-11.81c-0.12-4.52-0.25-9.04-0.41-13.56c-0.16-4.85-0.35-9.7-0.56-14.55
						c-0.21-4.85-0.45-9.7-0.73-14.54c-0.26-4.59-0.56-9.18-0.91-13.77c-0.31-4.02-0.66-8.03-1.11-12.04
						c-0.35-3.17-0.76-6.35-1.33-9.49c-0.37-2.05-0.78-4.15-1.59-6.07c-0.23-0.55-0.51-1.12-0.95-1.54
						c-0.55-0.53-1.35-0.83-2.06-1.07c-2.44-0.82-5.1-1.04-7.65-1.23c-3.77-0.28-7.56-0.33-11.33-0.3
						c-4.63,0.04-9.27,0.2-13.89,0.43c-5,0.25-10,0.57-15,0.96c-4.97,0.38-9.93,0.81-14.89,1.3c-4.46,0.43-8.93,0.91-13.38,1.44
						c-3.53,0.42-7.05,0.87-10.57,1.39c-2.13,0.32-4.28,0.62-6.37,1.14c-0.58,0.14-1.11,0.31-1.61,0.65
						c-1.1,0.74-1.97,1.72-2.46,2.97c-0.58,1.47-0.59,3.12-0.47,4.68c0.06,0.8,1.29,0.81,1.24,0c-0.11-1.54-0.15-3.23,0.57-4.64
						c0.48-0.95,1.26-1.65,2.17-2.18c0.14-0.08-0.12,0.05-0.02,0.01c0.04-0.02,0.09-0.04,0.13-0.05c0.11-0.04,0.23-0.08,0.34-0.11
						c0.31-0.09,0.62-0.16,0.94-0.23c2.25-0.5,4.54-0.83,6.81-1.16c3.56-0.51,7.13-0.96,10.7-1.37c4.47-0.52,8.95-0.99,13.43-1.41
						c4.94-0.47,9.89-0.89,14.84-1.26c4.94-0.37,9.88-0.68,14.82-0.91c4.52-0.21,9.05-0.36,13.57-0.37
						c3.69-0.01,7.39,0.05,11.07,0.35c2.37,0.2,4.78,0.4,7.05,1.26c0.3,0.11,0.18,0.06,0.44,0.18c0.16,0.08,0.32,0.16,0.48,0.26
						c0.06,0.04,0.12,0.08,0.19,0.12c0.14,0.1-0.1-0.1,0.02,0.02c0.08,0.08,0.15,0.16,0.22,0.24c-0.02-0.02-0.07-0.1,0.02,0.03
						c0.04,0.06,0.08,0.12,0.11,0.17c0.08,0.12,0.14,0.25,0.21,0.38c0.08,0.15,0.15,0.31,0.21,0.46c-0.05-0.11,0.01,0.02,0.05,0.12
						c0.04,0.1,0.07,0.19,0.11,0.28c0.75,2.06,1.14,4.26,1.51,6.41c0.54,3.19,0.93,6.4,1.27,9.62c0.43,4.04,0.77,8.09,1.07,12.14
						c0.34,4.57,0.63,9.15,0.88,13.72c0.27,4.84,0.5,9.67,0.7,14.51c0.2,4.77,0.38,9.54,0.54,14.32c0.15,4.44,0.28,8.89,0.39,13.33
						c0.1,3.84,0.19,7.69,0.26,11.54c0.06,2.93,0.11,5.86,0.14,8.78c0.02,1.74,0.04,3.49,0.04,5.23c0,0.32-0.07,0.71-0.01,1.02
						c-0.02-0.1,0.12-0.32,0.18-0.34c-0.07,0.03-0.14,0.09-0.21,0.12c-0.03,0.02-0.19,0.09-0.07,0.04c0.12-0.05-0.07,0.03-0.11,0.04
						c-1.71,0.6-3.55,0.86-5.33,1.15c-3.15,0.51-6.32,0.91-9.48,1.29c-4.17,0.5-8.34,0.94-12.52,1.35
						c-4.67,0.46-9.35,0.88-14.03,1.27c-4.75,0.4-9.5,0.76-14.26,1.08c-4.41,0.3-8.82,0.58-13.23,0.79
						c-3.58,0.18-7.17,0.33-10.76,0.38c-2.33,0.04-4.69,0.08-7.02-0.13c-0.19-0.02-0.37-0.04-0.56-0.06
						c-0.18-0.02,0.1,0.02-0.09-0.01c-0.08-0.01-0.16-0.02-0.23-0.04c-0.23-0.04-0.45-0.1-0.67-0.17c0.09,0.03,0.07,0.06-0.06-0.04
						c-0.05-0.04-0.1-0.07-0.15-0.11c-0.09-0.07-0.18-0.14-0.28-0.21c-0.04-0.03-0.09-0.07-0.13-0.1c0.07,0.05,0.11,0.09-0.01-0.01
						c-0.08-0.07-0.17-0.14-0.25-0.21c-0.16-0.14-0.31-0.29-0.46-0.45c-0.07-0.08-0.14-0.17-0.21-0.26
						c0.17,0.21-0.05-0.08-0.12-0.17c-0.15-0.22-0.27-0.46-0.39-0.7c-0.03-0.07-0.06-0.14-0.1-0.21c-0.01-0.03-0.03-0.07-0.04-0.1
						c-0.06-0.13,0.07,0.17,0.01,0.02c-0.06-0.16-0.13-0.33-0.19-0.49c-0.14-0.39-0.26-0.8-0.37-1.2c-0.31-1.14-0.55-2.29-0.77-3.45
						c-0.33-1.74-0.62-3.5-0.89-5.25c-0.39-2.51-0.75-5.03-1.1-7.56c-0.47-3.4-0.93-6.8-1.38-10.2c-0.6-4.5-1.18-9-1.77-13.5
						c-0.75-5.75-1.5-11.5-2.25-17.25c-0.93-7.11-1.86-14.22-2.8-21.33c-1.09-8.29-2.19-16.58-3.3-24.86
						C19.05,45.2,17.86,45.54,17.97,46.33L17.97,46.33z"/>
				</g>
			</g>
		</g>
		<g id="Ebene_20_1_">
			<g class="st11">
				<path d="M19.89,41.23c4.04,29.31,8.09,58.62,12.13,87.93c0.88,6.38,2.2,13.52,7.46,17.15c4.04,2.79,9.31,2.68,14.2,2.47
					c23.76-1.03,47.52-2.07,71.29-3.1c-25.65,5.85-52.06,7.18-78.31,8.48c-4.16,0.21-8.77,0.27-11.92-2.49
					c-3.08-2.69-3.76-7.17-4.23-11.27c-3.86-33.02-7.72-66.04-11.58-99.06"/>
				<g>
					<path d="M19.29,41.4c1.85,13.38,3.69,26.75,5.54,40.13s3.69,26.75,5.54,40.13c0.43,3.1,0.82,6.21,1.29,9.3
						c0.38,2.49,0.85,4.99,1.65,7.38c0.75,2.23,1.78,4.37,3.29,6.18c1.63,1.95,3.79,3.32,6.19,4.07c2.59,0.82,5.35,0.95,8.05,0.92
						c3.13-0.04,6.26-0.24,9.38-0.38c6.62-0.29,13.24-0.58,19.86-0.86c13.32-0.58,26.64-1.16,39.96-1.74
						c1.64-0.07,3.29-0.14,4.93-0.21c-0.05-0.41-0.11-0.82-0.16-1.23c-13,2.96-26.22,4.77-39.48,5.99
						c-13.17,1.21-26.42,1.99-39.63,2.52c-2.63,0.1-5.37,0.11-7.87-0.81c-2.54-0.93-4.32-2.96-5.27-5.48
						c-0.96-2.55-1.24-5.3-1.55-7.99c-0.4-3.43-0.8-6.87-1.2-10.3c-1.61-13.74-3.21-27.47-4.82-41.21
						c-1.61-13.78-3.22-27.56-4.83-41.34c-0.2-1.7-0.4-3.39-0.59-5.09c-0.09-0.79-1.33-0.8-1.24,0c1.64,13.98,3.27,27.97,4.9,41.96
						s3.27,27.97,4.9,41.96c0.41,3.52,0.82,7.03,1.23,10.55c0.35,3.02,0.58,6.11,1.22,9.09c0.54,2.5,1.49,5.01,3.32,6.84
						c1.91,1.9,4.49,2.72,7.1,3c2.95,0.32,5.95,0.03,8.9-0.11c3.39-0.17,6.79-0.34,10.18-0.53c6.71-0.37,13.42-0.79,20.11-1.34
						c13.42-1.09,26.82-2.7,40.02-5.41c1.64-0.34,3.28-0.69,4.92-1.07c0.68-0.15,0.53-1.26-0.16-1.23
						c-13.16,0.57-26.31,1.15-39.47,1.72c-6.58,0.29-13.16,0.57-19.73,0.86c-3.29,0.14-6.58,0.29-9.87,0.43
						c-2.84,0.12-5.69,0.32-8.53,0.1c-2.66-0.21-5.35-0.84-7.58-2.39c-1.94-1.34-3.36-3.29-4.36-5.41
						c-2.23-4.73-2.65-10.2-3.36-15.33c-1.82-13.17-3.63-26.34-5.45-39.51s-3.63-26.34-5.45-39.51c-0.23-1.65-0.46-3.3-0.68-4.95
						C20.37,40.27,19.18,40.61,19.29,41.4L19.29,41.4z"/>
				</g>
			</g>
			<g class="st11">
				<path d="M15.38,37.71c10.66,109.37,9.55,112.78,16.97,118.74c4.83,3.88,11.19,2.19,17.33,1.7c26.13-2.08,52.25-4.16,78.38-6.25
					c-29.8,4.59-59.93,7.06-90.07,7.39c-2.49,0.03-5.12,0.01-7.27-1.26c-3.49-2.05-4.55-6.57-5.25-10.6
					C19.19,111.28,15.8,74.6,15.34,37.88"/>
				<g>
					<path d="M14.76,37.71c1.21,12.37,2.39,24.75,3.57,37.12c0.89,9.36,1.77,18.73,2.67,28.09c0.65,6.76,1.3,13.52,2.01,20.27
						c0.49,4.69,1.01,9.38,1.64,14.06c0.4,3,0.85,6.01,1.49,8.97c0.41,1.88,0.9,3.75,1.66,5.51c0.52,1.2,1.21,2.32,2.08,3.29
						c2.06,2.31,4.84,3.92,7.9,4.36c2.74,0.39,5.52,0.09,8.25-0.22c3.18-0.36,6.37-0.6,9.56-0.85c6.96-0.55,13.92-1.11,20.88-1.66
						c13.84-1.1,27.68-2.21,41.52-3.31c3.36-0.27,6.72-0.53,10.07-0.8c-0.05-0.41-0.11-0.82-0.16-1.23
						c-14.45,2.22-28.96,3.95-43.52,5.17c-14.49,1.22-29.03,1.94-43.57,2.16c-1.7,0.03-3.41,0.09-5.12,0.01
						c-1.53-0.07-3.11-0.3-4.48-1.05c-2.38-1.31-3.59-3.89-4.3-6.42c-0.85-3.01-1.24-6.17-1.75-9.25c-0.6-3.65-1.18-7.3-1.72-10.95
						c-2.17-14.52-3.86-29.12-5.1-43.75c-1.23-14.61-1.99-29.26-2.29-43.92c-0.04-1.81-0.07-3.61-0.09-5.42
						c-0.01-0.81-1.25-0.81-1.24,0c0.19,14.95,0.86,29.89,2.01,44.8c1.15,14.8,2.77,29.55,4.87,44.24
						c1.03,7.26,2.09,14.54,3.46,21.74c0.5,2.6,1.18,5.32,2.75,7.49c1.76,2.43,4.34,3.49,7.25,3.71c1.7,0.13,3.42,0.06,5.13,0.03
						c1.83-0.03,3.67-0.06,5.5-0.1c3.71-0.09,7.41-0.2,11.12-0.35c7.37-0.3,14.73-0.73,22.08-1.28c14.72-1.11,29.4-2.73,44.02-4.85
						c1.77-0.26,3.55-0.52,5.32-0.8c0.68-0.11,0.53-1.29-0.16-1.23c-13.76,1.1-27.52,2.19-41.28,3.29
						c-6.88,0.55-13.76,1.1-20.64,1.64c-6.64,0.53-13.3,0.91-19.92,1.67c-4.64,0.53-9.76,1.13-13.66-2.05
						c-0.44-0.36-0.88-0.74-1.29-1.15c-0.2-0.2-0.39-0.4-0.58-0.61c-0.09-0.11-0.19-0.21-0.28-0.32c-0.04-0.05-0.09-0.11-0.13-0.16
						c-0.13-0.16,0.07,0.1-0.05-0.07c-0.37-0.5-0.69-1.03-0.98-1.58c-0.16-0.31-0.31-0.64-0.45-0.96c-0.06-0.14,0.02,0.06,0,0
						c-0.02-0.04-0.03-0.08-0.05-0.13c-0.04-0.09-0.08-0.19-0.11-0.28c-0.07-0.19-0.14-0.38-0.21-0.57
						c-0.31-0.89-0.57-1.8-0.79-2.71c-0.66-2.64-1.09-5.34-1.48-8.03c-0.6-4.12-1.08-8.31-1.54-12.52
						c-0.68-6.21-1.29-12.42-1.89-18.63c-0.84-8.62-1.65-17.24-2.47-25.87c-1.09-11.54-2.19-23.07-3.31-34.61
						c-0.32-3.31-0.64-6.61-0.96-9.92C15.92,36.92,14.69,36.91,14.76,37.71L14.76,37.71z"/>
				</g>
			</g>
		</g>
		<g id="Ebene_9_11_">
			
				<ellipse transform="matrix(0.9974 -0.0726 0.0726 0.9974 -3.5974 2.1028)" class="st14" cx="27.11" cy="50.51" rx="4.51" ry="5.45"/>
			
				<ellipse transform="matrix(0.9974 -0.0726 0.0726 0.9974 -5.1465 2.3384)" class="st14" cx="29.58" cy="71.93" rx="4.51" ry="5.45"/>
			
				<ellipse transform="matrix(0.9974 -0.0726 0.0726 0.9974 -6.6962 2.5697)" class="st14" cx="31.98" cy="93.35" rx="4.51" ry="5.45"/>
			
				<ellipse transform="matrix(0.9974 -0.0726 0.0726 0.9974 -8.5105 2.8898)" class="st14" cx="35.48" cy="118.46" rx="4.51" ry="5.45"/>
			
				<ellipse transform="matrix(0.9974 -0.0726 0.0726 0.9974 -10.1449 3.1803)" class="st14" cx="38.65" cy="141.07" rx="4.51" ry="5.45"/>
		</g>
		<g id="Ebene_11_3_">
			<g class="st15">
				<g>
					<path class="st9" d="M27.29,48.29c1.58,0.58,2.02,3.14,0.86,4.32c-1.13,1.14,0.62,2.92,1.75,1.77
						c2.55-2.59,1.37-7.28-1.95-8.51c-0.63-0.23-1.35,0.26-1.52,0.87C26.24,47.45,26.66,48.06,27.29,48.29L27.29,48.29z"/>
				</g>
			</g>
			<g class="st15">
				<g>
					<path class="st9" d="M29.61,69.97c1.58,0.84,1.92,3.2,0.68,4.43c-1.14,1.13,0.61,2.9,1.75,1.77c2.36-2.34,1.76-6.81-1.18-8.37
						C29.45,67.06,28.2,69.22,29.61,69.97L29.61,69.97z"/>
				</g>
			</g>
			<g class="st15">
				<g>
					<path class="st9" d="M31.83,91.35c1.61,0.85,2.14,3.27,0.96,4.63c-0.44,0.51-0.49,1.27,0,1.77c0.45,0.46,1.31,0.51,1.75,0
						c2.22-2.55,1.58-6.96-1.46-8.57C31.66,88.45,30.41,90.61,31.83,91.35L31.83,91.35z"/>
				</g>
			</g>
			<g class="st15">
				<g>
					<path class="st9" d="M35.04,116.8c1.21,0.86,1.33,2.9,0.36,3.96c-1.08,1.18,0.66,2.96,1.75,1.77c2.12-2.31,1.66-6.09-0.86-7.89
						c-0.55-0.39-1.37-0.1-1.69,0.45C34.23,115.71,34.49,116.41,35.04,116.8L35.04,116.8z"/>
				</g>
			</g>
			<g class="st15">
				<g>
					<path class="st9" d="M37.87,138.81c1.44,1.16,1.69,3.42,0.38,4.76c-1.12,1.15,0.63,2.92,1.75,1.77
						c2.18-2.23,2.09-6.31-0.38-8.3c-0.52-0.42-1.24-0.52-1.75,0C37.44,137.47,37.34,138.39,37.87,138.81L37.87,138.81z"/>
				</g>
			</g>
			<g class="st15">
				<g>
					<path class="st9" d="M8.51,40.16c1.59,0,1.59-2.51,0-2.51C6.92,37.66,6.92,40.16,8.51,40.16L8.51,40.16z"/>
				</g>
			</g>
			<g class="st15">
				<g>
					<path class="st9" d="M8.51,40.16c1.59,0,1.59-2.51,0-2.51C6.92,37.66,6.92,40.16,8.51,40.16L8.51,40.16z"/>
				</g>
			</g>
		</g>
		<g id="Ebene_5_11_">
			<g>
				<path class="st16" d="M22.25,47.58c3.13-0.13,8.5,0.13,5.9,2.52c-0.69,0.64-6.26,1.27-8.15,1.5c-2.72,0.33-8.18,1.09-8.6,4.49
					c-0.18,1.43,2.16,2.61,3.99,2.5c-0.04,1.55,0.41,3.56,0.36,5.11c-2.6-0.16-6.51-1.11-8.28-2.56c-1.77-1.45-2.71-3.55-2.25-5.57
					c0.59-2.61,3.35-4.73,6.45-5.86c3.1-1.14,7.09-1.87,10.45-2.17"/>
				<g>
					<path d="M22.25,48.1c1.21-0.05,2.43-0.05,3.64,0.08c0.52,0.05,1.04,0.13,1.55,0.28c0.23,0.07,0.8,0.2,0.88,0.48
						c0.06,0.21-0.28,0.55-0.43,0.69c-0.15,0.14-0.43,0.24-0.73,0.32c-1.08,0.3-2.2,0.46-3.3,0.63c-2.07,0.31-4.16,0.47-6.22,0.84
						c-2.1,0.38-4.65,1-6.01,2.81c-0.72,0.96-1.07,2.28-0.26,3.28c0.92,1.15,2.62,1.64,4.03,1.59c-0.17-0.17-0.34-0.35-0.52-0.52
						c-0.03,1.71,0.39,3.4,0.36,5.11c0.17-0.17,0.34-0.35,0.52-0.52c-2.02-0.13-4.07-0.58-5.95-1.33c-1.87-0.75-3.54-2.13-4.05-4.19
						c-0.52-2.09,0.66-3.97,2.19-5.27c1.77-1.5,3.98-2.31,6.19-2.92c2.61-0.72,5.3-1.17,8-1.42c0.66-0.06,0.66-1.1,0-1.04
						c-2.68,0.25-5.36,0.68-7.97,1.38c-2.43,0.65-4.82,1.53-6.8,3.15c-1.67,1.37-2.98,3.38-2.73,5.65c0.25,2.25,1.82,4.17,3.77,5.17
						c2.24,1.15,4.86,1.71,7.35,1.88c0.28,0.02,0.51-0.25,0.52-0.52c0.03-1.71-0.39-3.4-0.36-5.11c0-0.27-0.24-0.53-0.52-0.52
						c-0.69,0.03-1.38-0.09-2.02-0.36c-0.54-0.23-1.29-0.64-1.44-1.26c-0.25-1,0.81-2.03,1.54-2.5c1.87-1.21,4.26-1.54,6.42-1.8
						c2.18-0.27,4.37-0.5,6.52-0.94c0.74-0.15,1.63-0.28,2.2-0.83c0.55-0.53,1.01-1.35,0.52-2.07c-0.57-0.85-1.91-1-2.82-1.11
						c-1.35-0.17-2.71-0.18-4.07-0.13C21.59,47.08,21.59,48.13,22.25,48.1L22.25,48.1z"/>
				</g>
			</g>
		</g>
		<g id="Ebene_5_Kopie_1_">
			<g>
				<path class="st16" d="M23.96,69.58c3.13-0.13,8.5,0.13,5.9,2.52c-0.69,0.64-6.26,1.27-8.15,1.5c-2.72,0.33-8.18,1.09-8.6,4.49
					c-0.18,1.43,2.16,2.61,3.99,2.5c-0.04,1.55,0.41,3.56,0.36,5.11c-2.6-0.16-6.51-1.11-8.28-2.56s-2.71-3.55-2.25-5.57
					c0.59-2.61,3.35-4.73,6.45-5.86s7.09-1.87,10.45-2.17"/>
				<g>
					<path d="M23.96,70.1c1.21-0.05,2.43-0.05,3.64,0.08c0.52,0.05,1.04,0.13,1.55,0.28c0.23,0.07,0.8,0.2,0.88,0.48
						c0.06,0.21-0.28,0.55-0.43,0.69c-0.15,0.14-0.43,0.24-0.73,0.32c-1.08,0.3-2.2,0.46-3.3,0.63c-2.07,0.31-4.16,0.47-6.22,0.84
						c-2.1,0.38-4.65,1-6.01,2.81c-0.72,0.96-1.07,2.28-0.26,3.28c0.92,1.15,2.62,1.64,4.03,1.59c-0.17-0.17-0.34-0.35-0.52-0.52
						c-0.03,1.71,0.39,3.4,0.36,5.11c0.17-0.17,0.34-0.35,0.52-0.52c-2.02-0.13-4.07-0.58-5.95-1.33c-1.87-0.75-3.54-2.13-4.05-4.19
						c-0.52-2.09,0.66-3.97,2.19-5.27c1.77-1.5,3.98-2.31,6.19-2.92c2.61-0.72,5.3-1.17,8-1.42c0.66-0.06,0.66-1.1,0-1.04
						c-2.68,0.25-5.36,0.68-7.97,1.38c-2.43,0.65-4.82,1.53-6.8,3.15C7.4,74.9,6.09,76.9,6.34,79.17c0.25,2.25,1.82,4.17,3.77,5.17
						c2.24,1.15,4.86,1.71,7.35,1.88c0.28,0.02,0.51-0.25,0.52-0.52c0.03-1.71-0.39-3.4-0.36-5.11c0-0.27-0.24-0.53-0.52-0.52
						c-0.69,0.03-1.38-0.09-2.02-0.37c-0.54-0.23-1.29-0.64-1.44-1.26c-0.25-1,0.81-2.03,1.54-2.5c1.87-1.21,4.26-1.54,6.42-1.8
						c2.18-0.27,4.37-0.5,6.52-0.94c0.74-0.15,1.63-0.28,2.2-0.83c0.55-0.53,1.01-1.35,0.52-2.07c-0.57-0.85-1.91-1-2.82-1.11
						c-1.35-0.17-2.71-0.18-4.07-0.13C23.29,69.08,23.29,70.13,23.96,70.1L23.96,70.1z"/>
				</g>
			</g>
		</g>
		<g id="Ebene_5_Kopie_2_1_">
			<g>
				<path class="st16" d="M25.79,93.25c3.13-0.13,8.5,0.13,5.9,2.52c-0.69,0.64-6.26,1.27-8.15,1.5c-2.72,0.33-8.18,1.09-8.6,4.49
					c-0.18,1.43,2.86,2.99,4.7,2.88c0.15,3.29,0.32,3.44,0.55,5.16c-2.6-0.16-7.39-1.54-9.17-2.99c-1.77-1.45-2.71-3.55-2.25-5.57
					c0.59-2.61,3.35-4.73,6.45-5.86s7.09-1.87,10.45-2.17"/>
				<g>
					<path d="M25.79,93.78c1.24-0.05,2.48-0.05,3.71,0.08c0.53,0.06,1.07,0.14,1.58,0.3c0.21,0.07,0.7,0.2,0.77,0.45
						c0.07,0.24-0.39,0.69-0.52,0.78c-0.18,0.13-0.62,0.23-0.9,0.3c-1.15,0.29-2.33,0.46-3.5,0.62c-2.13,0.3-4.29,0.46-6.4,0.9
						c-2.09,0.44-4.81,1.23-5.8,3.37c-0.57,1.24-0.27,2.29,0.78,3.13c1.12,0.9,2.67,1.49,4.11,1.44c-0.17-0.17-0.34-0.35-0.52-0.52
						c0.08,1.75,0.32,3.43,0.55,5.16c0.17-0.17,0.34-0.35,0.52-0.52c-1.99-0.14-3.98-0.68-5.85-1.36c-1.9-0.69-3.67-1.63-4.63-3.52
						c-1.07-2.09-0.33-4.27,1.25-5.84c1.71-1.7,3.97-2.62,6.23-3.28c2.77-0.81,5.63-1.3,8.5-1.56c0.66-0.06,0.66-1.1,0-1.04
						c-2.82,0.26-5.64,0.72-8.37,1.49c-2.51,0.7-5.03,1.69-6.95,3.53c-1.67,1.6-2.67,3.85-1.97,6.17c0.66,2.21,2.43,3.68,4.45,4.57
						c2.3,1,4.85,1.72,7.35,1.89c0.25,0.02,0.55-0.25,0.52-0.52c-0.23-1.73-0.46-3.41-0.55-5.16c-0.01-0.27-0.23-0.53-0.52-0.52
						c-1.27,0.04-2.72-0.5-3.65-1.37c-0.39-0.36-0.61-0.7-0.48-1.23c0.13-0.52,0.42-0.97,0.8-1.35c1.64-1.62,4.39-2,6.56-2.29
						c2.21-0.3,4.43-0.51,6.63-0.92c0.77-0.14,1.75-0.25,2.42-0.71c0.65-0.45,1.27-1.41,0.82-2.19c-0.51-0.88-1.84-1.06-2.74-1.18
						c-1.39-0.19-2.8-0.2-4.21-0.14C25.13,92.76,25.13,93.8,25.79,93.78L25.79,93.78z"/>
				</g>
			</g>
		</g>
		<g id="Ebene_5_Kopie_3_1_">
			<g>
				<path class="st16" d="M28.34,116.73c3.13-0.13,8.5,0.13,5.9,2.52c-0.69,0.64-6.26,1.27-8.15,1.5c-2.72,0.33-8.18,1.09-8.6,4.49
					c-0.18,1.43,2.87,2.16,4.71,2.06c0.21,2.75,0.84,4.53,0.79,6.08c-2.6-0.16-7.66-1.63-9.43-3.08c-1.77-1.45-2.71-3.55-2.25-5.57
					c0.59-2.61,3.35-4.73,6.45-5.86c3.1-1.14,7.09-1.87,10.45-2.17"/>
				<g>
					<path d="M28.34,117.25c1.24-0.05,2.48-0.05,3.71,0.08c0.53,0.06,1.07,0.14,1.58,0.3c0.21,0.07,0.7,0.2,0.77,0.45
						c0.07,0.23-0.4,0.69-0.52,0.78c-0.17,0.12-0.58,0.22-0.84,0.29c-1.14,0.29-2.31,0.46-3.48,0.63c-2.13,0.3-4.29,0.46-6.4,0.9
						c-2.08,0.43-4.78,1.19-5.82,3.27c-0.57,1.14-0.48,2.24,0.65,2.95c1.2,0.75,2.82,0.97,4.2,0.91c-0.17-0.17-0.34-0.35-0.52-0.52
						c0.1,1.16,0.27,2.31,0.48,3.45c0.16,0.87,0.33,1.74,0.31,2.63c0.17-0.17,0.34-0.35,0.52-0.52c-1.97-0.13-3.95-0.69-5.81-1.35
						c-1.88-0.66-3.7-1.5-4.76-3.3c-1.23-2.09-0.67-4.36,0.94-6.03c1.69-1.75,3.98-2.7,6.26-3.38c2.8-0.83,5.7-1.32,8.6-1.59
						c0.66-0.06,0.66-1.1,0-1.04c-2.86,0.27-5.71,0.74-8.48,1.51c-2.53,0.71-5.07,1.74-6.98,3.63c-1.69,1.68-2.6,4.05-1.73,6.39
						c0.83,2.2,2.61,3.5,4.68,4.37c2.28,0.95,4.8,1.67,7.27,1.84c0.28,0.02,0.51-0.25,0.52-0.52c0.03-2.03-0.63-4.06-0.79-6.08
						c-0.02-0.27-0.22-0.53-0.52-0.52c-1.21,0.06-2.7-0.11-3.73-0.8c-0.93-0.62-0.19-1.77,0.43-2.36c1.66-1.59,4.4-1.97,6.57-2.26
						c2.21-0.29,4.44-0.51,6.64-0.92c0.77-0.14,1.76-0.25,2.41-0.74c0.62-0.47,1.21-1.38,0.76-2.15c-0.51-0.88-1.84-1.06-2.74-1.18
						c-1.39-0.19-2.8-0.2-4.21-0.14C27.68,116.23,27.68,117.28,28.34,117.25L28.34,117.25z"/>
				</g>
			</g>
		</g>
		<g id="Ebene_5_Kopie_4_1_">
			<g>
				<path class="st16" d="M32.66,138.67c3.13-0.13,8.5,0.13,5.9,2.52c-0.69,0.64-6.26,1.27-8.15,1.5c-2.72,0.33-8.18,1.09-8.6,4.49
					c-0.18,1.43,3.62,1.44,3.62,1.44s1.01,4.23,1.57,6.41c-2.6-0.16-7.34-1.35-9.11-2.79c-1.77-1.45-2.71-3.55-2.25-5.57
					c0.59-2.61,3.35-4.73,6.45-5.86c3.1-1.14,7.09-1.87,10.45-2.17"/>
				<g>
					<path d="M32.66,139.19c1.26-0.05,2.53-0.05,3.79,0.09c0.44,0.05,2.2,0.18,2.29,0.77c0.05,0.29-0.48,0.72-0.58,0.78
						c-0.32,0.18-0.71,0.25-1.06,0.33c-1.23,0.29-2.49,0.46-3.74,0.63c-2.21,0.3-4.47,0.46-6.64,1c-2.1,0.52-4.85,1.55-5.36,3.99
						c-0.44,2.15,2.63,2.35,4.08,2.36c-0.17-0.13-0.33-0.26-0.5-0.38c0.51,2.14,1.02,4.28,1.57,6.41c0.17-0.22,0.33-0.44,0.5-0.66
						c-1.97-0.13-3.95-0.6-5.82-1.23c-1.91-0.65-3.65-1.56-4.62-3.45c-1.07-2.09-0.33-4.27,1.25-5.84c1.71-1.7,3.97-2.62,6.23-3.28
						c2.77-0.81,5.63-1.3,8.5-1.56c0.65-0.06,0.66-1.1,0-1.04c-2.82,0.26-5.64,0.72-8.37,1.49c-2.51,0.7-5.03,1.69-6.95,3.53
						c-1.67,1.6-2.67,3.85-1.97,6.17c0.66,2.19,2.4,3.67,4.42,4.52c2.3,0.96,4.85,1.58,7.34,1.74c0.34,0.02,0.58-0.35,0.5-0.66
						c-0.55-2.13-1.06-4.27-1.57-6.41c-0.05-0.22-0.28-0.38-0.5-0.38c-0.66,0-1.32-0.06-1.96-0.21c-0.3-0.07-0.95-0.19-1.11-0.5
						c-0.16-0.32,0.16-0.9,0.33-1.17c0.59-0.99,1.73-1.56,2.77-1.94c1.18-0.43,2.43-0.69,3.67-0.88c2.27-0.35,4.56-0.54,6.82-0.93
						c0.88-0.15,1.94-0.26,2.73-0.71c0.68-0.39,1.35-1.37,0.97-2.17c-0.44-0.92-1.76-1.12-2.65-1.25c-1.44-0.21-2.9-0.22-4.34-0.16
						C32,138.17,31.99,139.22,32.66,139.19L32.66,139.19z"/>
				</g>
			</g>
		</g>
		<g id="Ebene_12_4_">
			<g class="st17">
				<path d="M11.4,49.8c-5.64,2.84-3.6,12.14,3.53,10.8c-0.09,0.57,0.39,1.98,0.3,2.55c-3.64-0.32-8.12-1.6-9.15-5.07
					s1.96-6.93,5.37-8.3"/>
				<g>
					<path d="M11.09,49.26c-2.17,1.12-3.54,3.34-3.56,5.81c-0.01,2.27,1.14,4.55,3.17,5.61c1.37,0.71,2.89,0.8,4.39,0.53
						c-0.26-0.2-0.52-0.4-0.78-0.6c-0.08,0.86,0.38,1.7,0.3,2.55c0.21-0.21,0.41-0.42,0.62-0.63c-2.86-0.26-6.74-1.03-8.24-3.84
						c-1.87-3.5,1.64-7.07,4.62-8.3c0.73-0.3,0.41-1.51-0.33-1.21c-2.92,1.21-5.78,3.77-6.01,7.15c-0.22,3.17,2.25,5.33,4.93,6.37
						c1.61,0.63,3.33,0.93,5.04,1.08c0.35,0.03,0.59-0.31,0.62-0.63c0.08-0.86-0.38-1.7-0.3-2.55c0.04-0.44-0.43-0.67-0.78-0.6
						c-2,0.36-4.08-0.23-5.2-2.05c-0.95-1.54-1.06-3.6-0.25-5.23c0.53-1.06,1.37-1.85,2.4-2.38C12.43,49.98,11.8,48.9,11.09,49.26
						L11.09,49.26z"/>
				</g>
			</g>
		</g>
		<g id="Ebene_12_Kopie_1_">
			<g class="st17">
				<path d="M12.79,72.29c-5.64,2.84-3.24,12.21,3.88,10.87c-0.09,0.57,0.39,1.98,0.3,2.55c-3.64-0.32-8.12-1.6-9.15-5.07
					c-1.03-3.47,1.42-6.7,4.97-8.34"/>
				<g>
					<path d="M12.48,71.75c-2.17,1.12-3.5,3.36-3.43,5.83c0.06,2.31,1.3,4.59,3.36,5.64c1.39,0.71,2.92,0.81,4.43,0.54
						c-0.26-0.2-0.52-0.4-0.78-0.6c-0.08,0.86,0.38,1.7,0.3,2.55c0.21-0.21,0.41-0.42,0.62-0.63c-2.89-0.26-6.88-1.05-8.31-3.97
						c-1.75-3.57,1.47-6.87,4.44-8.27c0.72-0.34,0.09-1.42-0.62-1.08c-2.79,1.31-5.45,3.85-5.51,7.17
						c-0.06,3.16,2.26,5.27,4.97,6.32c1.61,0.63,3.33,0.93,5.04,1.08c0.35,0.03,0.59-0.31,0.62-0.63c0.08-0.86-0.38-1.7-0.3-2.55
						c0.04-0.44-0.43-0.67-0.78-0.6c-2.03,0.36-4.15-0.26-5.32-2.07c-1-1.53-1.22-3.59-0.44-5.27c0.49-1.07,1.33-1.86,2.36-2.39
						C13.82,72.47,13.19,71.39,12.48,71.75L12.48,71.75z"/>
				</g>
			</g>
		</g>
		<g id="Ebene_12_Kopie_2_1_">
			<g class="st17">
				<path d="M14.62,95.9c-5.64,2.84-1.95,11.66,5.18,10.33c-0.09,0.57,0.22,2.75,0.14,3.32c-3.64-0.32-9.25-1.82-10.28-5.3
					s1.67-7.66,5.16-8.42"/>
				<g>
					<path d="M14.31,95.36c-2.12,1.09-3.32,3.27-2.99,5.67c0.32,2.33,1.93,4.38,4.05,5.32c1.46,0.65,3.04,0.76,4.6,0.48
						c-0.26-0.2-0.52-0.4-0.78-0.6c-0.13,1.1,0.26,2.22,0.14,3.32c0.21-0.21,0.41-0.42,0.62-0.63c-2.67-0.24-5.57-0.9-7.8-2.46
						c-1.04-0.73-1.83-1.72-2.03-3.01c-0.22-1.43,0.22-2.9,0.97-4.11c0.89-1.43,2.27-2.53,3.91-2.91c0.77-0.18,0.45-1.39-0.33-1.21
						c-3.25,0.76-5.81,4.03-5.84,7.41c-0.03,3.45,2.85,5.37,5.75,6.4c1.73,0.61,3.55,0.97,5.37,1.13c0.36,0.03,0.58-0.32,0.62-0.63
						c0.13-1.1-0.26-2.22-0.14-3.32c0.05-0.44-0.43-0.67-0.78-0.6c-2.69,0.48-5.45-0.7-6.66-3.26c-1.08-2.29-0.28-4.77,1.95-5.92
						C15.64,96.07,15.02,94.99,14.31,95.36L14.31,95.36z"/>
				</g>
			</g>
		</g>
		<g id="Ebene_12_Kopie_3_1_">
			<g class="st17">
				<path d="M17.7,119.19c-6.12,2.87-3.44,12.41,4.27,11.02c-0.1,0.57,0.4,1.98,0.31,2.55c-3.94-0.29-8.77-1.55-9.87-5.01
					c-1.09-3.47,1.38-7.83,5.17-8.61"/>
				<g>
					<path d="M17.37,118.63c-2.27,1.09-3.78,3.37-3.69,5.95c0.09,2.43,1.51,4.71,3.7,5.74c1.5,0.71,3.14,0.8,4.76,0.52
						c-0.27-0.21-0.54-0.42-0.81-0.63c-0.09,0.86,0.4,1.7,0.31,2.55c0.21-0.22,0.43-0.43,0.64-0.65c-2.68-0.21-5.89-0.73-7.96-2.62
						c-2.07-1.89-1.82-4.95-0.34-7.14c0.89-1.32,2.23-2.25,3.77-2.59c0.81-0.18,0.47-1.44-0.34-1.26c-3.16,0.7-5.55,3.62-5.87,6.85
						c-0.15,1.55,0.24,3.12,1.2,4.34c0.97,1.23,2.39,2.01,3.82,2.56c1.82,0.69,3.77,1,5.7,1.15c0.37,0.03,0.61-0.32,0.64-0.65
						c0.09-0.86-0.4-1.7-0.31-2.55c0.05-0.46-0.45-0.69-0.81-0.63c-2.17,0.37-4.5-0.21-5.83-2.09c-1.07-1.51-1.35-3.61-0.52-5.31
						c0.55-1.12,1.47-1.91,2.57-2.44C18.77,119.4,18.12,118.27,17.37,118.63L17.37,118.63z"/>
				</g>
			</g>
		</g>
		<g id="Ebene_12_Kopie_4_1_">
			<g class="st17">
				<path d="M21.86,142.17c-5.64,2.84-3.7,11.49,3.43,10.15c-0.09,0.57,0.39,1.98,0.3,2.55c-3.64-0.32-8.12-1.6-9.15-5.07
					c-1.03-3.47,1.42-6.83,4.92-7.59"/>
				<g>
					<path d="M21.55,141.63c-2.1,1.08-3.56,3.19-3.59,5.61c-0.02,2.17,1.16,4.29,3.11,5.23c1.38,0.66,2.89,0.72,4.38,0.45
						c-0.26-0.2-0.52-0.4-0.78-0.6c-0.08,0.86,0.38,1.7,0.3,2.55c0.21-0.21,0.41-0.42,0.62-0.63c-2.88-0.26-6.8-1.04-8.27-3.9
						c-0.74-1.44-0.62-3.22,0.16-4.62c0.86-1.53,2.37-2.52,4.05-2.91c0.77-0.18,0.45-1.39-0.33-1.21c-2.97,0.69-5.5,3.2-5.61,6.39
						c-0.11,3.2,2.22,5.34,4.97,6.41c1.61,0.63,3.33,0.93,5.04,1.08c0.35,0.03,0.59-0.31,0.62-0.63c0.08-0.86-0.38-1.7-0.3-2.55
						c0.04-0.44-0.43-0.67-0.78-0.6c-2.45,0.44-5.04-0.52-5.76-3.12c-0.67-2.44,0.66-4.78,2.8-5.88
						C22.88,142.34,22.26,141.26,21.55,141.63L21.55,141.63z"/>
				</g>
			</g>
		</g>
		<g id="Ebene_19_3_">
			<g class="st11">
				<g>
					<path class="st9" d="M117.38,32.12c2.93,1.28,3.07,5.51,3.45,8.24c0.61,4.32,1.13,8.64,1.56,12.98
						c0.24,2.42,0.45,4.85,0.64,7.28c0.06,0.8,1.3,0.81,1.24,0c-0.35-4.57-0.8-9.13-1.34-13.67c-0.27-2.23-0.56-4.45-0.87-6.67
						c-0.25-1.79-0.43-3.64-1-5.37c-0.53-1.62-1.45-3.16-3.06-3.86C117.28,30.72,116.65,31.8,117.38,32.12L117.38,32.12z"/>
				</g>
			</g>
			<g class="st11">
				<g>
					<path class="st9" d="M124.71,66.23c0.79,0,0.8-1.25,0-1.25C123.91,64.97,123.91,66.23,124.71,66.23L124.71,66.23z"/>
				</g>
			</g>
			<g class="st11">
				<g>
					<path class="st9" d="M115.73,39.02c0.89,15.37,1.78,30.74,2.67,46.11c0.25,4.32,0.5,8.64,0.75,12.96c0.05,0.8,1.28,0.81,1.24,0
						c-0.89-15.37-1.78-30.74-2.67-46.11c-0.25-4.32-0.5-8.64-0.75-12.96C116.92,38.22,115.68,38.22,115.73,39.02L115.73,39.02z"/>
				</g>
			</g>
			<g class="st11">
				<g>
					<path class="st9" d="M120.79,104.35c0.79,0,0.8-1.25,0-1.25C119.99,103.09,119.99,104.35,120.79,104.35L120.79,104.35z"/>
				</g>
			</g>
		</g>
		<g id="Ebene_21_1_">
			<g>
				<g>
					<path d="M48.89,72.19c16.33-1.18,32.66-2.35,48.99-3.53c4.6-0.33,9.19-0.66,13.79-0.99c1.18-0.09,1.19-1.97,0-1.88
						C95.33,66.97,79,68.14,62.67,69.32c-4.6,0.33-9.19,0.66-13.79,0.99C47.7,70.4,47.69,72.28,48.89,72.19L48.89,72.19z"/>
				</g>
			</g>
			<g>
				<g>
					<path d="M48.97,121.33c16.33-1.18,32.66-2.35,48.99-3.53c4.6-0.33,9.19-0.66,13.79-0.99c1.18-0.09,1.19-1.97,0-1.88
						c-16.33,1.18-32.66,2.35-48.99,3.53c-4.6,0.33-9.19,0.66-13.79,0.99C47.79,119.54,47.78,121.42,48.97,121.33L48.97,121.33z"/>
				</g>
			</g>
			<g>
				<g>
					<path d="M48.78,89.68c8.23-0.62,16.46-1.24,24.69-1.86c8.23-0.62,16.46-1.24,24.69-1.86c4.67-0.35,9.34-0.71,14-1.06
						c1.18-0.09,1.19-1.97,0-1.88c-8.23,0.62-16.46,1.24-24.69,1.86c-8.23,0.62-16.46,1.24-24.69,1.86c-4.67,0.35-9.34,0.71-14,1.06
						C47.6,87.89,47.59,89.77,48.78,89.68L48.78,89.68z"/>
				</g>
			</g>
			<g>
				<g>
					<path d="M49.77,135.67c8.23-0.62,16.46-1.24,24.69-1.86c8.23-0.62,16.46-1.24,24.69-1.86c4.67-0.35,9.34-0.71,14-1.06
						c1.18-0.09,1.19-1.97,0-1.88c-8.23,0.62-16.46,1.24-24.69,1.86c-8.23,0.62-16.46,1.24-24.69,1.86c-4.67,0.35-9.34,0.71-14,1.06
						C48.59,133.88,48.58,135.76,49.77,135.67L49.77,135.67z"/>
				</g>
			</g>
			<g>
				<g>
					<path d="M48.2,108.23c8.52-1.39,17.05-2.69,25.6-3.89c8.59-1.21,17.19-2.33,25.8-3.35c4.83-0.58,9.67-1.12,14.51-1.64
						c0.5-0.05,0.93-0.39,0.93-0.94c0-0.47-0.43-0.99-0.93-0.94c-8.66,0.93-17.32,1.94-25.96,3.06c-8.64,1.11-17.27,2.32-25.89,3.61
						c-4.85,0.73-9.71,1.49-14.55,2.28c-0.49,0.08-0.77,0.71-0.65,1.16C47.21,108.1,47.71,108.31,48.2,108.23L48.2,108.23z"/>
				</g>
			</g>
		</g>
		<g id="Ebene_22_1_">
			<g class="st18">
				<g>
					<path class="st9" d="M14.6,51.85c3.1-0.38,6.19-0.77,9.29-1.15c0.5-0.06,0.93-0.39,0.93-0.94c0-0.46-0.43-1-0.93-0.94
						c-3.1,0.38-6.19,0.77-9.29,1.15c-0.5,0.06-0.93,0.39-0.93,0.94C13.67,51.37,14.09,51.91,14.6,51.85L14.6,51.85z"/>
				</g>
			</g>
			<g class="st18">
				<g>
					<path class="st9" d="M15.93,73.92c3.06-0.97,6.22-1.51,9.42-1.58c1.19-0.03,1.2-1.91,0-1.88c-3.36,0.08-6.7,0.63-9.91,1.65
						C14.3,72.47,14.79,74.29,15.93,73.92L15.93,73.92z"/>
				</g>
			</g>
			<g class="st18">
				<g>
					<path class="st9" d="M17.98,97.63c3.08-0.6,6.16-1.19,9.24-1.79c1.17-0.23,0.67-2.04-0.49-1.81c-3.08,0.6-6.16,1.19-9.24,1.79
						C16.31,96.04,16.81,97.85,17.98,97.63L17.98,97.63z"/>
				</g>
			</g>
			<g class="st18">
				<g>
					<path class="st9" d="M20.63,121.07c2.97-1.06,6.05-1.66,9.2-1.78c1.19-0.04,1.2-1.92,0-1.88c-3.3,0.12-6.57,0.73-9.69,1.84
						C19.02,119.66,19.5,121.48,20.63,121.07L20.63,121.07z"/>
				</g>
			</g>
			<g class="st18">
				<g>
					<path class="st9" d="M26.04,142.57c3.02-0.52,6.03-1.04,9.05-1.57c1.17-0.2,0.68-2.01-0.49-1.81
						c-3.02,0.52-6.03,1.04-9.05,1.57C24.38,140.96,24.87,142.78,26.04,142.57L26.04,142.57z"/>
				</g>
			</g>
			<g class="st18">
				<g>
					<path class="st9" d="M102.77,135.67c1.19,0,1.2-1.88,0-1.88C101.58,133.79,101.57,135.67,102.77,135.67L102.77,135.67z"/>
				</g>
			</g>
		</g>
		<g id="Ebene_27_1_">
			<g>
				<g>
					<path d="M55.76,80.88c-0.08-0.38,0.75-0.57,1-0.59c0.82-0.08,1.66,0.47,2.4,0.75c0.82,0.31,1.7,0.45,2.56,0.22
						c0.82-0.22,1.51-0.74,2.21-1.19c0.71-0.46,1.34-0.72,2.18-0.48c0.88,0.25,1.66,0.77,2.53,1.04c1.43,0.44,3.35,0.23,4.07-1.28
						c0.52-1.08-1.08-2.04-1.6-0.95c-0.69,1.45-3.11-0.11-4.01-0.45c-0.96-0.37-1.99-0.48-2.96-0.1c-0.8,0.31-1.45,0.85-2.19,1.28
						c-0.78,0.46-1.46,0.41-2.3,0.1c-0.89-0.33-1.76-0.83-2.74-0.82c-1.63,0.01-3.31,1.16-2.94,2.97
						C54.21,82.56,56,82.06,55.76,80.88L55.76,80.88z"/>
				</g>
			</g>
			<g>
				<g>
					<path d="M94.4,78.27c0.4-0.61,1.34-0.53,1.95-0.37c1.05,0.28,1.98,0.88,3.06,1.07c1.94,0.35,4.14-0.93,3.81-3.14
						c-0.08-0.5-0.7-0.78-1.14-0.66c-0.53,0.15-0.72,0.65-0.65,1.16c0.09,0.59-0.99,0.86-1.37,0.84c-0.94-0.05-1.81-0.59-2.68-0.9
						c-1.6-0.59-3.57-0.52-4.58,1.05C92.14,78.34,93.75,79.28,94.4,78.27L94.4,78.27z"/>
				</g>
			</g>
			<g>
				<g>
					<path d="M55.79,98.47c-0.06-1.8,2.29-1.91,3.5-1.62c1.91,0.46,3.72,1.41,5.74,1.1c0.9-0.14,1.66-0.56,2.38-1.12
						c0.59-0.46,1.2-1.09,1.96-1.22c0.83-0.15,1.67,0.33,2.39,0.69c0.76,0.37,1.49,0.71,2.33,0.81c1.68,0.19,3.39-0.6,3.62-2.43
						c0.06-0.5-0.47-0.94-0.93-0.94c-0.55,0-0.87,0.43-0.93,0.94c-0.05,0.39-0.7,0.53-1,0.57c-0.68,0.08-1.28-0.15-1.89-0.44
						c-1.68-0.81-3.35-1.58-5.13-0.6c-0.71,0.39-1.29,1-1.97,1.44c-0.76,0.49-1.62,0.57-2.5,0.42c-1.95-0.34-3.75-1.44-5.78-1.24
						c-1.85,0.19-3.7,1.61-3.64,3.64C53.98,99.68,55.83,99.68,55.79,98.47L55.79,98.47z"/>
				</g>
			</g>
			<g>
				<g>
					<path d="M86.25,94.22c0.18-1.24,1.73-1.42,2.74-1.23c1.9,0.37,3.51,1.67,5.54,1.45c1.7-0.18,2.93-1.33,4.35-2.16
						c0.69-0.41,1.41-0.66,2.22-0.52c0.95,0.16,1.83,0.63,2.75,0.92c1.65,0.52,3.84,0.34,4.75-1.36c0.57-1.06-1.03-2.01-1.6-0.95
						c-0.75,1.41-2.93,0.41-3.98,0.02c-0.93-0.35-1.9-0.63-2.89-0.51c-0.84,0.1-1.62,0.44-2.34,0.88c-1.36,0.83-2.63,2.1-4.35,1.79
						c-1.79-0.33-3.32-1.5-5.19-1.48c-1.63,0.02-3.53,0.84-3.79,2.66c-0.07,0.51,0.12,1,0.65,1.16C85.54,95,86.18,94.72,86.25,94.22
						L86.25,94.22z"/>
				</g>
			</g>
			<g>
				<g>
					<path d="M61.01,112.49c0.31-0.82,1.6-0.81,2.27-0.63c1.35,0.35,2.53,1.19,3.92,1.41c2.45,0.38,4.56-1,6.67-2.03
						c1.04-0.51,2.13-0.93,3.31-0.86c1.47,0.09,2.82,0.84,4.25,1.12c1.56,0.31,3.12,0.15,4.67-0.12c1.6-0.29,3.19-0.63,4.78-0.95
						c3.67-0.74,7.34-1.47,11.01-2.21c1.17-0.23,0.67-2.05-0.49-1.81c-3.35,0.67-6.7,1.34-10.05,2.01
						c-1.69,0.34-3.37,0.68-5.06,1.01c-1.58,0.31-3.21,0.56-4.8,0.16c-1.48-0.37-2.88-1.04-4.43-1.1c-1.28-0.05-2.5,0.37-3.66,0.89
						c-2.18,0.99-4.31,2.68-6.8,1.79c-1.41-0.5-2.7-1.36-4.24-1.28c-1.4,0.07-2.63,0.73-3.14,2.1
						C58.79,113.13,60.58,113.61,61.01,112.49L61.01,112.49z"/>
				</g>
			</g>
			<g>
				<g>
					<path d="M54.2,128.15c-0.16-0.24-0.1,0.01-0.06-0.1c0.03-0.11,0.16-0.22,0.24-0.28c0.27-0.2,0.54-0.18,0.85-0.11
						c0.85,0.2,1.59,0.76,2.45,0.93c1.5,0.3,3.32-0.47,3.36-2.21c0.03-1.21-1.83-1.21-1.85,0c-0.01,0.52-1.07,0.4-1.36,0.3
						c-0.94-0.3-1.75-0.85-2.76-0.95c-1.63-0.16-3.63,1.72-2.48,3.36C53.28,130.08,54.89,129.14,54.2,128.15L54.2,128.15z"/>
				</g>
			</g>
			<g>
				<g>
					<path d="M79.68,125.46c0.38-1.34,2.28-1.39,3.37-1.11c2.05,0.52,3.88,1.71,6.07,1.34c1.02-0.17,1.92-0.68,2.86-1.08
						c1.02-0.44,2.06-0.57,3.16-0.48c2.04,0.17,4,0.91,6.06,0.89c2-0.02,3.96-0.67,5.15-2.38c0.69-0.99-0.92-1.93-1.6-0.95
						c-0.93,1.34-2.76,1.52-4.24,1.43c-2.19-0.13-4.28-1-6.49-0.9c-1.12,0.05-2.13,0.37-3.14,0.83c-0.91,0.41-1.81,0.87-2.84,0.83
						c-2.03-0.08-3.77-1.46-5.82-1.54c-1.82-0.08-3.79,0.7-4.33,2.61C77.57,126.13,79.35,126.63,79.68,125.46L79.68,125.46z"/>
				</g>
			</g>
		</g>
		<g id="Ebene_32_1_">
			<g>
				<g>
					<path class="st19" d="M75.7,78.59c0.65,1.44,1.31,2.89,1.96,4.33c0.3,0.67,1.27,0.56,1.6,0c1.61-2.71,3.22-5.42,4.83-8.14
						c0.62-1.04-0.99-1.98-1.6-0.95c-1.61,2.71-3.22,5.42-4.83,8.14c0.53,0,1.07,0,1.6,0c-0.65-1.44-1.31-2.89-1.96-4.33
						C76.81,76.54,75.21,77.49,75.7,78.59L75.7,78.59z"/>
				</g>
			</g>
			<g>
				<g>
					<path class="st19" d="M109.73,91.33c0.27,1.17,0.54,2.33,0.82,3.5c0.18,0.78,1.32,0.93,1.69,0.22c1.15-2.18,2.3-4.37,3.45-6.55
						c0.56-1.07-1.04-2.02-1.6-0.95c-1.15,2.18-2.3,4.37-3.45,6.55c0.56,0.08,1.13,0.15,1.69,0.22c-0.27-1.17-0.54-2.33-0.82-3.5
						C111.24,89.66,109.45,90.15,109.73,91.33L109.73,91.33z"/>
				</g>
			</g>
			<g>
				<g>
					<path class="st19" d="M103.97,109.41c0.32,0.62,0.64,1.23,0.96,1.85c0.32,0.62,1.27,0.6,1.6,0c1.32-2.4,2.63-4.81,3.95-7.21
						c0.58-1.06-1.02-2.01-1.6-0.95c-1.31,2.4-2.63,4.81-3.95,7.21c0.53,0,1.07,0,1.6,0c-0.32-0.62-0.64-1.23-0.96-1.85
						C105.02,107.39,103.42,108.34,103.97,109.41L103.97,109.41z"/>
				</g>
			</g>
			<g>
				<g>
					<path class="st19" d="M63,127.09c0.62,0.92,1.24,1.83,1.86,2.75c0.35,0.51,1.3,0.7,1.6,0c0.8-1.85,1.6-3.7,2.39-5.55
						c0.2-0.47,0.13-1-0.33-1.29c-0.39-0.24-1.07-0.13-1.27,0.34c-0.8,1.85-1.6,3.7-2.39,5.55c0.53,0,1.07,0,1.6,0
						c-0.62-0.92-1.24-1.83-1.86-2.75C63.93,125.15,62.33,126.09,63,127.09L63,127.09z"/>
				</g>
			</g>
			<g>
				<g>
					<path class="st20" d="M97.8,79.87c2.08-1.72,4.15-3.45,6.23-5.17c0.39-0.32,0.33-0.99,0-1.33c-0.38-0.39-0.93-0.32-1.31,0
						c-2.08,1.72-4.15,3.45-6.23,5.17c-0.39,0.32-0.33,0.99,0,1.33C96.86,80.26,97.41,80.19,97.8,79.87L97.8,79.87z"/>
				</g>
			</g>
			<g>
				<g>
					<path class="st20" d="M108.64,77.84c1.31-0.28,2.61-0.55,3.92-0.83c1.17-0.25,0.67-2.06-0.49-1.81
						c-1.31,0.28-2.61,0.55-3.92,0.83C106.98,76.27,107.48,78.09,108.64,77.84L108.64,77.84z"/>
				</g>
			</g>
			<g>
				<g>
					<path class="st20" d="M70.8,97.67c1.45-1.28,2.9-2.55,4.34-3.83c0.9-0.8-0.41-2.12-1.31-1.33c-1.45,1.28-2.9,2.55-4.34,3.83
						C68.58,97.14,69.9,98.46,70.8,97.67L70.8,97.67z"/>
				</g>
			</g>
			<g>
				<g>
					<path class="st20" d="M80,96.64c0.89-0.7,1.77-1.39,2.66-2.09c0.4-0.31,0.32-1,0-1.33c-0.39-0.4-0.91-0.31-1.31,0
						c-0.89,0.7-1.77,1.39-2.66,2.09c-0.4,0.31-0.32,1,0,1.33C79.08,97.04,79.6,96.96,80,96.64L80,96.64z"/>
				</g>
			</g>
			<g>
				<g>
					<path class="st20" d="M93.08,125c1.26-0.96,2.52-1.91,3.78-2.87c0.4-0.31,0.6-0.81,0.33-1.29c-0.23-0.4-0.87-0.64-1.27-0.34
						c-1.26,0.96-2.52,1.91-3.78,2.87c-0.4,0.31-0.6,0.81-0.33,1.29C92.03,125.06,92.68,125.3,93.08,125L93.08,125z"/>
				</g>
			</g>
			<g>
				<g>
					<path class="st20" d="M108.66,124.41c0.51-0.45,1.4-0.09,1.95,0.07c0.84,0.25,1.73,0.49,2.6,0.25c1.32-0.37,2.29-2,1.48-3.26
						c-0.65-1.01-2.25-0.07-1.6,0.95c0.08,0.12,0.11,0.03,0,0.19c-0.08,0.12-0.17,0.24-0.3,0.29c-0.59,0.26-1.45-0.16-2.02-0.33
						c-1.2-0.34-2.43-0.35-3.41,0.51C106.44,123.88,107.76,125.2,108.66,124.41L108.66,124.41z"/>
				</g>
			</g>
		</g>
		<g>
			<g>
				<path d="M61.27,54.23c13.6,0.96,27.27,0.19,40.68-2.25c1.26-0.23,0.73-2.16-0.53-1.93c-13.23,2.41-26.73,3.12-40.14,2.17
					C59.98,52.14,59.99,54.14,61.27,54.23L61.27,54.23z"/>
			</g>
		</g>
	</g>
	<g>
		<g id="Ebene_2_Kopie_4_">
			<g>
				<path class="st25" d="M119.46,56.57c4.24,1.29,17.12,5.27,18.9,3.76c2.9-2.45,14.85-34.2,13.27-36.83
					C148.31,17.97,95.98,0.15,89.88,4c-5.5,3.47-7.81,35.51-6.67,37.78c1.73,3.44,10.85,4.36,14.51,7.01
					c1.63,1.18,7.12,13.04,9.17,13.47c1.16,0.24,9.2-3.02,12.43-5.72"/>
				<g>
					<path class="st26" d="M119.37,56.88c4.16,1.27,8.33,2.53,12.58,3.43c1.02,0.22,2.05,0.41,3.09,0.54
						c0.77,0.1,1.56,0.18,2.34,0.11c0.48-0.05,0.95-0.15,1.3-0.5c0.27-0.27,0.49-0.6,0.7-0.92c0.68-1.06,1.24-2.2,1.78-3.33
						c0.78-1.62,1.5-3.28,2.2-4.94c1.69-4,3.24-8.07,4.68-12.17c1.27-3.61,2.5-7.26,3.41-10.98c0.28-1.15,0.56-2.34,0.63-3.52
						c0.02-0.34,0.03-0.7-0.07-1.03c-0.09-0.29-0.28-0.52-0.48-0.74c-0.57-0.62-1.29-1.1-1.99-1.54c-1.03-0.66-2.12-1.24-3.21-1.8
						c-3.05-1.55-6.21-2.88-9.39-4.15c-3.89-1.56-7.82-2.99-11.79-4.34c-4.11-1.4-8.26-2.71-12.44-3.91
						c-3.73-1.07-7.49-2.05-11.3-2.84c-2.76-0.57-5.59-1.1-8.42-1.14c-0.86-0.01-1.77,0.02-2.6,0.28c-0.87,0.27-1.49,0.92-2,1.67
						c-0.81,1.2-1.34,2.61-1.79,3.98c-0.61,1.83-1.06,3.71-1.46,5.6c-0.91,4.36-1.51,8.79-1.94,13.22
						c-0.36,3.62-0.64,7.27-0.61,10.9c0.01,0.92-0.02,1.92,0.21,2.82c0.14,0.58,0.58,1.08,1,1.46c0.79,0.72,1.75,1.22,2.71,1.65
						c2.39,1.06,4.93,1.71,7.39,2.6c1.09,0.39,2.18,0.83,3.17,1.44c0.34,0.21,0.46,0.28,0.7,0.54c0.19,0.21,0.34,0.42,0.5,0.65
						c1.11,1.59,2.04,3.33,3,5.02c1.07,1.86,2.12,3.74,3.36,5.49c0.42,0.59,0.86,1.21,1.41,1.69c0.42,0.36,0.81,0.51,1.36,0.43
						c0.82-0.13,1.63-0.42,2.41-0.7c1.17-0.42,2.31-0.91,3.44-1.43c2.18-1,4.41-2.12,6.28-3.67c0.32-0.27-0.13-0.73-0.45-0.46
						c-0.9,0.75-1.91,1.37-2.93,1.94c-1.15,0.65-2.33,1.23-3.53,1.77c-1.08,0.49-2.18,0.94-3.3,1.33c-0.69,0.24-1.51,0.55-2.19,0.59
						c-0.04,0-0.09,0-0.13,0c-0.12,0,0.02,0.01-0.06-0.01c-0.04-0.01-0.07-0.02-0.11-0.03c0.08,0.03-0.07-0.04-0.1-0.06
						c-0.2-0.12-0.36-0.28-0.56-0.48c-0.54-0.57-0.99-1.23-1.43-1.88c-1.2-1.81-2.27-3.72-3.35-5.6c-0.9-1.56-1.76-3.19-2.84-4.64
						c-0.42-0.56-0.9-0.92-1.51-1.26c-1.02-0.57-2.12-0.99-3.21-1.38c-2.42-0.86-4.94-1.5-7.27-2.58c-0.91-0.42-1.83-0.91-2.53-1.64
						c-0.13-0.14-0.26-0.29-0.37-0.45c-0.06-0.09-0.11-0.18-0.16-0.27c-0.01-0.02-0.07-0.16-0.02-0.03
						c-0.04-0.11-0.07-0.23-0.09-0.35c-0.07-0.34-0.09-0.72-0.12-1.15c-0.03-0.59-0.04-1.17-0.04-1.76c0-1.63,0.07-3.26,0.17-4.89
						c0.25-4.25,0.69-8.5,1.32-12.71c0.59-3.97,1.3-7.99,2.6-11.8c0.44-1.29,0.96-2.61,1.75-3.73c0.24-0.34,0.61-0.74,0.93-0.95
						c0.06-0.04,0.11-0.07,0.17-0.1c0.03-0.01,0.05-0.03,0.08-0.04c0.1-0.05-0.04,0.01,0.06-0.03c0.15-0.06,0.3-0.11,0.46-0.15
						c0.42-0.11,0.67-0.13,1.1-0.16c0.5-0.04,1-0.04,1.5-0.02c1.24,0.04,2.48,0.18,3.71,0.36c3.39,0.5,6.75,1.27,10.07,2.12
						c4.02,1.03,8.01,2.19,11.97,3.45c4.07,1.29,8.12,2.67,12.12,4.15c3.56,1.31,7.1,2.7,10.57,4.24c2.5,1.11,5.03,2.26,7.35,3.74
						c0.39,0.25,0.78,0.51,1.15,0.8c0.07,0.05,0.07,0.05,0.17,0.14c0.07,0.06,0.15,0.12,0.22,0.18c0.12,0.11,0.24,0.22,0.35,0.34
						c0.05,0.05,0.09,0.1,0.13,0.15c0.02,0.03,0.04,0.05,0.06,0.08c-0.07-0.09,0,0,0.02,0.03c0.03,0.04,0.06,0.09,0.08,0.13
						c0.05,0.08-0.02-0.06,0,0.01c0.01,0.03,0.02,0.06,0.03,0.09c0.01,0.04,0.04,0.23,0.03,0.12c0.01,0.08,0.02,0.16,0.02,0.24
						c0.01,0.2,0,0.4-0.02,0.59c-0.08,1.1-0.37,2.31-0.65,3.45c-0.42,1.69-0.92,3.37-1.44,5.03c-1.27,4.05-2.71,8.06-4.24,12.02
						c-1.38,3.59-2.83,7.17-4.49,10.63c-0.54,1.12-1.09,2.26-1.77,3.31c-0.23,0.35-0.34,0.54-0.61,0.81
						c-0.12,0.12-0.18,0.16-0.32,0.2c-0.26,0.09-0.47,0.11-0.73,0.13c-0.8,0.05-1.6-0.04-2.39-0.16c-1.04-0.15-2.08-0.35-3.1-0.58
						c-2.34-0.51-4.65-1.14-6.96-1.8c-1.74-0.5-3.47-1.02-5.19-1.55C119.15,56.13,118.98,56.76,119.37,56.88L119.37,56.88z"/>
				</g>
			</g>
		</g>
		<g id="Ebene_8_3_">
			<g>
				<g>
					<path class="st26" d="M138.86,34.44c-1.71,4.78-3.43,9.57-5.14,14.35c-0.19,0.52-0.05,1.27,0.22,1.73
						c0.27,0.48,0.81,0.94,1.36,1.06c0.57,0.12,1.2,0.09,1.7-0.24c0.53-0.34,0.84-0.8,1.05-1.39c1.71-4.78,3.43-9.57,5.14-14.35
						c0.19-0.52,0.05-1.27-0.22-1.73c-0.27-0.48-0.81-0.94-1.36-1.06c-0.57-0.12-1.2-0.09-1.7,0.24
						C139.39,33.39,139.08,33.84,138.86,34.44L138.86,34.44z"/>
				</g>
			</g>
		</g>
		<g id="Ebene_7_3_">
			<g class="st18">
				<g>
					<path class="st9" d="M134.13,19.78c1.26,0.58,2.56,1.03,3.85,1.52c0.36,0.13,0.71,0.27,1.07,0.41
						c0.17,0.07,0.35,0.14,0.52,0.21c0.09,0.04,0.17,0.07,0.26,0.11c0.28,0.12-0.24-0.1,0.05,0.02c0.67,0.29,1.33,0.59,1.97,0.93
						c0.3,0.16,0.59,0.33,0.88,0.51c0.13,0.08,0.26,0.17,0.38,0.25c0.06,0.04,0.12,0.09,0.18,0.13c0.24,0.18-0.17-0.15-0.02-0.02
						c0.2,0.18,0.4,0.35,0.58,0.56c0.04,0.04,0.07,0.1,0.11,0.14c-0.06-0.06-0.19-0.28-0.08-0.1c0.06,0.1,0.11,0.23,0.18,0.33
						c-0.04-0.05-0.12-0.34-0.06-0.14c0.01,0.05,0.03,0.1,0.04,0.15c0.09,0.28,0.01-0.27-0.01-0.08c-0.01,0.1-0.04,0.44,0,0.12
						c0.04-0.32,0.01-0.06-0.01,0.02c-0.01,0.07-0.03,0.14-0.04,0.22c-0.03,0.16-0.07,0.33-0.11,0.49c-0.56,2.23-1.39,4.4-2.17,6.56
						c-1.11,3.05-2.27,6.09-3.44,9.12c-1.1,2.87-2.22,5.73-3.31,8.61c-0.11,0.3-0.23,0.6-0.34,0.89c-0.24,0.64,0.27,1.46,0.9,1.59
						c0.73,0.16,1.32-0.25,1.57-0.93c1.07-2.84,2.17-5.66,3.26-8.49c1.2-3.12,2.4-6.23,3.55-9.37c0.85-2.31,1.73-4.64,2.38-7.02
						c0.17-0.61,0.38-1.32,0.32-1.95c-0.14-1.48-1.28-2.5-2.44-3.26c-1.3-0.85-2.77-1.44-4.2-2.02c-1.33-0.53-2.69-1-4.01-1.54
						c-0.07-0.03-0.13-0.05-0.2-0.08c-0.2-0.08,0.31,0.13,0.08,0.03c-0.12-0.05-0.25-0.11-0.37-0.16c-0.61-0.28-1.41-0.19-1.76,0.48
						C133.38,18.57,133.47,19.48,134.13,19.78L134.13,19.78z"/>
				</g>
			</g>
			<g class="st18">
				<g>
					<path class="st9" d="M133.14,56.16c-0.03,0.29-0.06,0.57-0.1,0.86c0.73-0.31,1.47-0.63,2.2-0.94
						c-0.26-0.29-0.52-0.57-0.78-0.86c-0.09,0.68-0.19,1.37-0.28,2.05c-0.17,0.08-0.33,0.14-0.53,0.11c-0.08,0-0.15-0.02-0.22-0.06
						c-0.12-0.06-0.14-0.06-0.05-0.02c-0.12-0.09-0.21-0.18-0.3-0.31c0.05,0.08,0.04,0.06-0.01-0.05c-0.05-0.1-0.08-0.2-0.08-0.32
						c0.32-0.43,0.63-0.85,0.95-1.28c0.02-0.01,0.32-0.01,0.16-0.02c0.16,0.01,0.29,0.04,0.44,0.11c-0.15-0.07,0.1,0.09,0.12,0.1
						c-0.12-0.1,0.08,0.1,0.09,0.13c0.07,0.13,0.1,0.28,0.1,0.42c-0.01-0.24-0.14,0.46-0.13,0.44c0.07-0.15-0.08,0.1-0.1,0.12
						c-0.05,0.04-0.11,0.09-0.16,0.13c-0.2,0.08-0.26,0.1-0.16,0.07c0.15-0.03-0.3,0.03-0.15,0.02c0.07,0,0.04,0-0.08-0.01
						c-0.08,0-0.15-0.01-0.22-0.05c-0.28-0.11-0.47-0.35-0.51-0.65c-0.04-0.28-0.04,0.13,0-0.17c0.04-0.29-0.07,0.11,0.04-0.17
						c0.02-0.08,0.06-0.14,0.11-0.2c0.08-0.09,0.09-0.11,0.05-0.07c-0.08,0.08,0.28-0.18,0.09-0.09c0.62,0.26,1.25,0.52,1.87,0.77
						c-0.04-0.12-0.08-0.25-0.12-0.37c-0.21-0.65-0.89-1.13-1.57-0.9c-0.63,0.21-1.13,0.92-0.91,1.61c0.04,0.12,0.08,0.25,0.12,0.37
						c0.13,0.4,0.36,0.68,0.74,0.84c0.4,0.17,0.74,0.1,1.13-0.07c0.78-0.35,1.15-1.42,0.9-2.21c-0.29-0.94-1.31-1.48-2.24-1.15
						c-0.9,0.32-1.53,1.31-1.2,2.27c0.32,0.93,1.27,1.5,2.23,1.23c0.55-0.16,0.95-0.7,0.95-1.28c0-0.62-0.33-1.24-0.87-1.55
						c-0.58-0.34-1.18-0.31-1.78-0.03c-0.78,0.38-0.79,1.48-0.28,2.05c0.26,0.29,0.52,0.57,0.78,0.86c0.35,0.38,0.94,0.46,1.4,0.27
						c0.51-0.22,0.74-0.67,0.8-1.21c0.03-0.29,0.06-0.57,0.1-0.86c0.03-0.3-0.17-0.7-0.37-0.91c-0.22-0.23-0.6-0.4-0.92-0.38
						c-0.33,0.02-0.67,0.13-0.89,0.38C133.28,55.49,133.18,55.79,133.14,56.16L133.14,56.16z"/>
				</g>
			</g>
		</g>
		<g id="Ebene_2_5_">
			<g>
				<g>
					<path d="M116.64,59.14c4.16,1.27,8.34,2.54,12.6,3.45c1.02,0.22,2.06,0.41,3.1,0.54c0.83,0.11,1.68,0.21,2.51,0.13
						c0.65-0.06,1.26-0.21,1.75-0.69c0.31-0.3,0.56-0.68,0.79-1.04c0.68-1.05,1.24-2.2,1.79-3.33c0.78-1.63,1.51-3.28,2.21-4.95
						c1.7-4.05,3.28-8.15,4.73-12.29c1.27-3.6,2.5-7.25,3.39-10.97c0.29-1.19,0.56-2.41,0.62-3.63c0.02-0.39,0.01-0.8-0.11-1.18
						c-0.12-0.4-0.38-0.73-0.66-1.02c-0.62-0.66-1.39-1.17-2.15-1.65c-1.05-0.66-2.14-1.24-3.24-1.8c-3.1-1.56-6.31-2.91-9.54-4.2
						c-3.89-1.55-7.82-2.99-11.78-4.34c-4.11-1.4-8.25-2.71-12.42-3.91c-3.72-1.07-7.47-2.05-11.25-2.83
						c-2.82-0.59-5.72-1.14-8.62-1.18c-0.92-0.01-1.89,0.02-2.78,0.29c-1.03,0.31-1.76,1.04-2.37,1.92c-0.85,1.23-1.4,2.7-1.87,4.12
						c-0.61,1.83-1.07,3.71-1.46,5.59c-0.92,4.4-1.51,8.87-1.95,13.34c-0.35,3.63-0.63,7.29-0.6,10.94c0.01,0.97,0,2.01,0.23,2.95
						c0.18,0.69,0.67,1.3,1.19,1.76c0.85,0.76,1.86,1.31,2.9,1.76c2.46,1.07,5.05,1.75,7.56,2.67c0.28,0.1,0.55,0.2,0.82,0.31
						c0.07,0.03,0.15,0.06,0.22,0.09c0.04,0.02,0.28,0.12,0.05,0.02c0.14,0.06,0.28,0.12,0.42,0.18c0.51,0.23,1.01,0.48,1.49,0.78
						c0.09,0.06,0.18,0.12,0.27,0.18c0.05,0.03,0.1,0.08,0.15,0.11c0.11,0.06-0.21-0.2-0.13-0.1c0.07,0.08,0.16,0.15,0.23,0.22
						c0.08,0.09,0.16,0.19,0.24,0.29c0.17,0.22-0.12-0.17,0.02,0.02c0.06,0.08,0.12,0.16,0.17,0.25c1.1,1.59,2.03,3.31,3,4.99
						c1.07,1.86,2.13,3.74,3.38,5.48c0.45,0.63,0.92,1.3,1.51,1.8c0.28,0.24,0.57,0.46,0.93,0.56c0.36,0.11,0.7,0.06,1.06,0
						c0.83-0.14,1.65-0.42,2.44-0.71c1.21-0.44,2.4-0.94,3.57-1.47c2.22-1.01,4.47-2.15,6.37-3.73c0.4-0.34,0.35-1.04,0.01-1.39
						c-0.39-0.4-0.95-0.33-1.36,0c-0.05,0.05-0.38,0.3-0.16,0.13c-0.1,0.08-0.2,0.15-0.3,0.23c-0.24,0.17-0.48,0.34-0.72,0.5
						c-0.52,0.34-1.06,0.66-1.61,0.97c-1.15,0.64-2.33,1.22-3.53,1.76c-0.13,0.06-0.26,0.11-0.39,0.17
						c-0.02,0.01-0.28,0.12-0.08,0.03c-0.08,0.03-0.15,0.07-0.23,0.1c-0.3,0.13-0.59,0.25-0.89,0.37c-0.52,0.21-1.04,0.41-1.57,0.59
						c-0.43,0.15-0.86,0.29-1.3,0.41c-0.16,0.04-0.33,0.08-0.49,0.12c-0.07,0.01-0.16,0.01-0.23,0.04c0.24-0.1,0.18-0.02,0.02-0.01
						c-0.05,0-0.11,0-0.16,0.01c-0.18,0.02,0.17,0.04,0.13,0.02c-0.03-0.01-0.1-0.04-0.13-0.04c0.25,0.01,0.22,0.11,0.08,0.02
						c-0.05-0.03-0.1-0.06-0.14-0.1c-0.17-0.11,0.2,0.17,0.04,0.03c-0.11-0.1-0.22-0.2-0.32-0.31c-0.25-0.26-0.47-0.53-0.69-0.82
						c-0.04-0.05-0.17-0.19,0.02,0.03c-0.03-0.04-0.07-0.09-0.1-0.13c-0.06-0.08-0.12-0.17-0.18-0.25
						c-0.14-0.19-0.27-0.39-0.41-0.59c-1.21-1.8-2.27-3.7-3.36-5.57c-0.93-1.62-1.84-3.29-2.96-4.78c-0.44-0.58-0.96-0.97-1.58-1.33
						c-1.08-0.62-2.26-1.07-3.43-1.48c-1.23-0.44-2.47-0.83-3.71-1.24c-0.61-0.2-1.22-0.41-1.83-0.63c-0.28-0.1-0.56-0.21-0.83-0.32
						c-0.07-0.03-0.15-0.06-0.22-0.09c-0.24-0.1,0.13,0.06-0.01-0.01c-0.15-0.07-0.31-0.13-0.46-0.2c-0.5-0.23-0.99-0.48-1.45-0.77
						c-0.2-0.13-0.39-0.27-0.59-0.4c-0.18-0.13,0.16,0.15,0,0c-0.04-0.04-0.09-0.08-0.14-0.12c-0.09-0.08-0.17-0.16-0.26-0.24
						c-0.08-0.08-0.16-0.16-0.23-0.25c-0.02-0.03-0.05-0.06-0.07-0.09c-0.13-0.15,0.12,0.19,0.02,0.02c-0.07-0.12-0.15-0.3-0.24-0.4
						c0.18,0.21,0.09,0.27,0.06,0.15c-0.01-0.02-0.01-0.05-0.02-0.07c-0.02-0.07-0.03-0.13-0.05-0.2c-0.01-0.07-0.03-0.15-0.04-0.22
						c-0.04-0.23,0.02,0.17,0.01,0.09c0-0.05-0.01-0.1-0.02-0.15c-0.02-0.23-0.04-0.45-0.05-0.68c-0.03-0.59-0.04-1.18-0.04-1.77
						c0-1.62,0.07-3.24,0.16-4.86c0.12-2.03,0.28-4.05,0.48-6.07c0.11-1.11,0.23-2.23,0.37-3.34c0.03-0.26,0.06-0.53,0.1-0.79
						c0.01-0.07,0.06-0.46,0.02-0.17c0.02-0.17,0.04-0.34,0.07-0.5c0.07-0.55,0.15-1.1,0.23-1.65c0.58-3.96,1.28-7.97,2.59-11.77
						c0.13-0.38,0.27-0.76,0.42-1.14c0.03-0.08,0.16-0.35,0.01-0.03c0.04-0.09,0.07-0.18,0.11-0.26c0.07-0.17,0.15-0.34,0.23-0.5
						c0.26-0.56,0.57-1.1,0.92-1.6c0.02-0.03,0.05-0.05,0.06-0.08c0.01-0.01-0.18,0.22-0.09,0.12c0.04-0.05,0.08-0.11,0.13-0.16
						c0.08-0.1,0.17-0.19,0.26-0.28c0.08-0.08,0.16-0.15,0.24-0.22c0.14-0.13-0.24,0.16-0.04,0.03c0.05-0.03,0.09-0.06,0.14-0.09
						c0.05-0.03,0.11-0.06,0.17-0.09c0.03-0.02,0.07-0.03,0.1-0.05c0.03-0.02-0.29,0.11-0.1,0.05c0.15-0.05,0.3-0.1,0.46-0.14
						c0.08-0.02,0.17-0.04,0.25-0.05c0.05-0.01,0.1-0.02,0.14-0.03c0.24-0.04-0.14,0.02-0.07,0.01c0.21-0.02,0.42-0.05,0.63-0.06
						c0.5-0.03,1.01-0.03,1.51-0.02c0.59,0.02,1.17,0.07,1.76,0.12c0.15,0.02,0.31,0.03,0.46,0.05c0.07,0.01,0.14,0.02,0.21,0.02
						c0.04,0.01,0.09,0.01,0.13,0.02c0.24,0.03-0.21-0.03-0.04,0c0.34,0.05,0.69,0.09,1.04,0.14c3.39,0.5,6.75,1.28,10.07,2.13
						c4,1.02,7.96,2.18,11.89,3.43c4.08,1.29,8.13,2.67,12.14,4.15c1.87,0.69,3.73,1.4,5.58,2.14c0.88,0.35,1.77,0.71,2.64,1.08
						c-0.23-0.1-0.02-0.01,0.09,0.04c0.11,0.05,0.21,0.09,0.32,0.14c0.21,0.09,0.42,0.18,0.63,0.27c0.39,0.17,0.79,0.34,1.18,0.51
						c2.51,1.11,5.04,2.26,7.37,3.73c0.39,0.25,0.78,0.51,1.15,0.79c0.03,0.03,0.07,0.05,0.1,0.08c-0.31-0.23-0.13-0.1-0.06-0.04
						c0.07,0.06,0.15,0.12,0.22,0.19c0.12,0.11,0.24,0.22,0.36,0.34c0.05,0.05,0.09,0.1,0.14,0.15c0.02,0.02,0.04,0.05,0.06,0.08
						c0.11,0.13-0.17-0.25-0.07-0.1c0.03,0.05,0.06,0.09,0.09,0.14c0.11,0.16-0.08-0.3-0.03-0.06c0.01,0.06,0.02,0.12,0.04,0.18
						c-0.08-0.29-0.02-0.18-0.01,0c0.01,0.19,0,0.37-0.01,0.56c-0.01,0.1-0.02,0.21-0.03,0.31c-0.01,0.06-0.01,0.12-0.02,0.18
						c-0.03,0.26,0.04-0.25,0-0.04c-0.04,0.27-0.08,0.54-0.13,0.82c-0.12,0.67-0.28,1.34-0.44,2.01c-0.41,1.67-0.9,3.33-1.42,4.97
						c-1.27,4.06-2.71,8.07-4.24,12.04c-0.38,0.99-0.77,1.98-1.17,2.97c-0.19,0.48-0.39,0.95-0.58,1.43c-0.02,0.05-0.11,0.27,0,0
						c-0.02,0.05-0.04,0.1-0.06,0.15c-0.05,0.11-0.09,0.22-0.14,0.33c-0.1,0.24-0.2,0.48-0.3,0.71c-0.69,1.62-1.39,3.24-2.16,4.83
						c-0.54,1.12-1.1,2.26-1.77,3.3c-0.11,0.17-0.24,0.33-0.35,0.5c0.22-0.34,0.07-0.09-0.01,0c-0.05,0.06-0.1,0.11-0.15,0.16
						c-0.02,0.02-0.05,0.04-0.07,0.06c-0.1,0.11,0.25-0.14,0.09-0.07c-0.04,0.02-0.09,0.05-0.13,0.07
						c-0.06,0.05-0.18-0.06,0.15-0.07c-0.03,0-0.07,0.03-0.11,0.04c-0.11,0.03-0.23,0.05-0.34,0.08c-0.15,0.03,0.26-0.03,0.11-0.02
						c-0.04,0-0.07,0.01-0.11,0.01c-0.08,0.01-0.16,0.01-0.24,0.02c-0.36,0.02-0.72,0-1.07-0.02c-0.2-0.01-0.4-0.03-0.6-0.05
						c-0.08-0.01-0.48-0.04-0.15-0.02c-0.12-0.01-0.24-0.03-0.36-0.05c-1.06-0.15-2.1-0.36-3.14-0.59
						c-2.33-0.51-4.63-1.14-6.93-1.79c-1.74-0.5-3.47-1.02-5.2-1.55c-0.5-0.15-1.05,0.2-1.18,0.7
						C115.82,58.47,116.14,58.98,116.64,59.14L116.64,59.14z"/>
				</g>
			</g>
		</g>
		<g id="Ebene_5_4_">
			<g>
				<g>
					<path class="st9" d="M99.92,32.4c1.84,4.75,3.67,9.5,5.51,14.25c0.27,0.69,0.61,1.19,1.3,1.48c0.61,0.26,1.4,0.28,1.98-0.12
						c3.7-2.58,7.39-5.16,11.09-7.73c3.7-2.58,7.39-5.16,11.09-7.73c2.09-1.46,4.17-2.91,6.26-4.37c0.5-0.35,0.89-0.78,1.05-1.39
						c0.14-0.54,0.08-1.25-0.22-1.73c-0.61-0.98-2.02-1.54-3.06-0.82c-3.7,2.58-7.39,5.16-11.09,7.73
						c-3.7,2.58-7.39,5.16-11.09,7.73c-2.09,1.46-4.17,2.91-6.26,4.37c1.09,0.45,2.19,0.9,3.28,1.35c-1.84-4.75-3.67-9.5-5.51-14.25
						c-0.22-0.57-0.48-1.04-1.02-1.36c-0.48-0.28-1.19-0.4-1.73-0.22c-0.54,0.18-1.07,0.53-1.35,1.06
						C99.89,31.15,99.7,31.84,99.92,32.4L99.92,32.4z"/>
				</g>
			</g>
		</g>
		<g id="Ebene_9_3_">
			<g class="st22">
				<path d="M89.28,4.5c-4.74,17.75,8.98,43.88,19.29,58.1c-1.75,0.01-3.17-2.88-5.98-6.75c-3.97-5.47-2.42-5.6-4.93-7.5
					c-2.09-1.58-5.02-2.09-7.52-2.84c-2.3-0.7-5.1-1.89-6.27-3.49c-1.54-2.1,0.3-23.1,4-35.31"/>
				<g>
					<path d="M88.66,4.33c-0.98,3.69-1.15,7.55-0.85,11.33c0.33,4.19,1.22,8.32,2.41,12.33c1.27,4.25,2.88,8.4,4.71,12.43
						c1.8,3.97,3.82,7.85,6.01,11.61c1.96,3.37,4.07,6.67,6.32,9.85c0.25,0.35,0.5,0.7,0.75,1.05c0.18-0.33,0.37-0.66,0.55-0.98
						c-0.05,0-0.09,0-0.14-0.01c0.17,0.01,0.03,0-0.01-0.01c-0.08-0.02-0.15-0.04-0.23-0.06c-0.17-0.06,0.05,0.04-0.11-0.05
						c-0.09-0.05-0.18-0.1-0.27-0.16c-0.05-0.03-0.09-0.06-0.14-0.1c0.1,0.07,0,0-0.03-0.02c-0.09-0.07-0.17-0.15-0.25-0.23
						c-0.18-0.17-0.35-0.36-0.51-0.55c-0.87-1.02-1.59-2.17-2.34-3.27c-1.48-2.16-3.11-4.22-4.2-6.63
						c-0.22-0.48-0.41-0.98-0.69-1.42c-0.36-0.56-0.82-1-1.33-1.41c-2.52-2-5.76-2.39-8.72-3.38c-1.35-0.45-2.69-1.01-3.87-1.81
						c-0.49-0.33-0.93-0.71-1.3-1.18c-0.05-0.07,0.04,0.09-0.02-0.03c-0.01-0.03-0.03-0.06-0.04-0.08
						c-0.05-0.09-0.01-0.12,0.01,0.04c0-0.04-0.03-0.09-0.05-0.13c-0.07-0.2-0.11-0.41-0.15-0.62c-0.01-0.07-0.02-0.14-0.03-0.21
						c-0.01-0.05-0.03-0.26-0.01-0.05c-0.02-0.15-0.03-0.29-0.05-0.44c-0.07-0.73-0.09-1.47-0.1-2.21
						c-0.03-4.55,0.44-9.12,1.03-13.63c0.69-5.29,1.6-10.58,3.01-15.74c0.15-0.56,0.31-1.12,0.48-1.68
						c0.24-0.81-0.99-1.14-1.24-0.33c-1.54,5.1-2.5,10.39-3.25,15.66c-0.69,4.84-1.24,9.75-1.31,14.64
						c-0.02,1.47-0.04,2.98,0.24,4.43c0.1,0.5,0.26,0.94,0.58,1.33c0.85,1.07,2.12,1.78,3.33,2.35c1.41,0.66,2.88,1.13,4.38,1.54
						c1.54,0.42,3.11,0.79,4.56,1.49c0.35,0.17,0.7,0.36,1.03,0.57c0.15,0.1,0.3,0.2,0.44,0.3c0.06,0.04,0.12,0.09,0.18,0.13
						c0.1,0.08-0.06-0.05,0.07,0.05c0.26,0.21,0.52,0.44,0.74,0.69c0.04,0.05,0.08,0.09,0.12,0.14c0.05,0.07,0.12,0.17,0.03,0.03
						c0.07,0.11,0.15,0.22,0.22,0.34c0.13,0.22,0.24,0.45,0.34,0.68c0.32,0.71,0.64,1.41,1.02,2.08c0.72,1.29,1.59,2.49,2.44,3.69
						c0.92,1.29,1.78,2.63,2.72,3.92c0.62,0.84,1.29,1.77,2.21,2.3c0.38,0.22,0.8,0.34,1.24,0.35c0.45,0,0.84-0.58,0.55-0.98
						c-2.22-3.06-4.3-6.24-6.24-9.5c-2.19-3.67-4.22-7.43-6.05-11.3c-1.87-3.94-3.52-7.99-4.86-12.15
						c-1.27-3.95-2.27-8.01-2.74-12.15c-0.42-3.72-0.43-7.54,0.35-11.2c0.09-0.44,0.2-0.87,0.31-1.3
						C90.12,3.85,88.88,3.52,88.66,4.33L88.66,4.33z"/>
				</g>
			</g>
		</g>
	</g>
</g>
<g id="Ebene_10_4_">
</g>
<g id="Ebene_8_6_">
</g>
<g id="Ebene_19_1_">
</g>
<g id="Ebene_23_1_">
</g>
<g id="Ebene_25">
</g>
<g id="Ebene_11_1_">
</g>
<g id="Ebene_12_1_">
</g>
</svg>
