<?xml version="1.0" encoding="utf-8"?>
<!-- Generator: Adobe Adobe Illustrator 24.2.0, SVG Export Plug-In . SVG Version: 6.00 Build 0)  -->
<svg version="1.1" xmlns="http://www.w3.org/2000/svg" xmlns:xlink="http://www.w3.org/1999/xlink" x="0px" y="0px"
	 viewBox="0 0 170.08 170.08" style="enable-background:new 0 0 170.08 170.08;" xml:space="preserve">
<style type="text/css">
	.st0{fill:#592F7D;}
	.st1{fill:#5A2F7C;}
	.st2{fill:#D3E1EB;}
	.st3{fill:#D3E1ED;}
	.st4{fill:#5C646E;stroke:#000000;stroke-width:2.7043;stroke-miterlimit:10;}
	.st5{fill:#B6D2E0;stroke:#000000;stroke-width:2.1378;stroke-miterlimit:10;}
	.st6{fill:#3D4D5B;}
	.st7{opacity:0.0784;}
	.st8{opacity:0.1216;}
	.st9{fill:#FFFFFF;}
	.st10{fill:#ECC9AD;}
	.st11{opacity:0.1608;}
	.st12{opacity:0.1686;}
	.st13{fill:#F0F6FA;}
	.st14{opacity:0.149;}
	.st15{opacity:0.0314;}
	.st16{stroke:#000000;stroke-width:0.0649;stroke-miterlimit:10;}
	.st17{fill:#F0F6FA;stroke:#F0F6FA;stroke-width:1.1522;stroke-miterlimit:10;}
	.st18{fill:#C8354F;}
	.st19{fill:#C93550;}
	.st20{fill:#6DB671;}
	.st21{fill:#6CB671;}
	.st22{fill:#D1DFEA;}
	.st23{fill:#C8354E;}
	.st24{fill:#F3C058;}
	.st25{fill:#C8AE9D;}
	.st26{opacity:0.1412;}
	.st27{fill:#D15238;}
	.st28{fill:#D15239;}
	.st29{opacity:0.9882;}
	.st30{fill:#ADBECF;}
	.st31{fill:#F3C057;}
	.st32{fill:#F7D98D;}
	.st33{fill:#AEBFCE;}
	.st34{opacity:0.2706;}
	.st35{fill:#3D4C5B;}
	.st36{fill:#D2E1EC;}
	.st37{fill:#59AEAA;stroke:#5AADAB;stroke-miterlimit:10;}
	.st38{fill:#592F7D;stroke:#592F7D;stroke-miterlimit:10;}
</style>
<g id="Ebene_6_11_">
</g>
<g id="Ebene_13_1_">
</g>
<g id="Ebene_9_6_">
</g>
<g id="Ebene_3">
	<g>
		<g id="Ebene_5_9_">
			<g>
				<path class="st36" d="M103.64,126.82c2.08,5.25,6.72,9.76,12.59,12.25c-0.99,7.46-0.12,15.11,2.53,22.31
					c-0.42,1.68-3.11,2.27-4.99,1.58s-3.14-2.19-4.42-3.54c-4.33-4.57-9.99-8.24-16.32-10.6c1.01-6.05-0.22-12.37-3.49-17.87
					c4.84-0.38,9.56-1.69,13.71-3.79"/>
				<g>
					<path class="st36" d="M102.62,127.03c2.11,5.24,6.68,9.98,13.08,12.72c-0.18-0.23-0.35-0.46-0.53-0.69
						c-0.98,7.54-0.1,15.21,2.57,22.53c0-0.14,0-0.28,0-0.42c-0.33,1.14-2.07,1.56-3.43,1.11c-1.92-0.64-3.08-2.26-4.26-3.48
						c-2.76-2.87-6.05-5.42-9.82-7.55c-2.09-1.18-4.32-2.22-6.67-3.1c0.18,0.23,0.35,0.46,0.53,0.69c1.01-6.2-0.27-12.55-3.63-18.27
						c-0.31,0.4-0.61,0.8-0.92,1.2c5.11-0.42,9.97-1.75,14.24-3.89c1.13-0.57,0.07-1.95-1.07-1.37c-3.94,1.98-8.44,3.29-13.17,3.68
						c-0.85,0.07-1.26,0.61-0.92,1.2c3.21,5.46,4.3,11.56,3.34,17.46c-0.04,0.26,0.23,0.58,0.53,0.69
						c3.79,1.42,7.26,3.25,10.32,5.44c1.57,1.12,3.03,2.33,4.38,3.61c1.27,1.21,2.32,2.55,3.7,3.69c1.22,1.01,2.86,1.85,4.75,1.78
						c1.7-0.06,3.3-0.75,3.95-1.95c0.44-0.82-0.05-1.61-0.32-2.42c-0.3-0.91-0.57-1.82-0.82-2.74c-0.48-1.81-0.85-3.63-1.1-5.46
						c-0.57-4.12-0.58-8.27-0.05-12.4c0.04-0.27-0.23-0.56-0.53-0.69c-5.93-2.54-10.15-6.92-12.11-11.77
						C104.28,125.63,102.22,126.05,102.62,127.03L102.62,127.03z"/>
				</g>
			</g>
		</g>
		<g id="Ebene_7_5_">
			<g>
				<path class="st35" d="M109.05,148.76c0.06-1.51,1.94-3.82,0.88-5.06s-5.49-0.93-6.39,0.37c-0.85,1.23,0.4,2.8,1.85,3.56
					s3.21,1.19,4.26,2.32"/>
				<g>
					<path class="st6" d="M110.12,148.76c0.1-1.43,1.26-2.73,1.2-4.19c-0.05-1.39-1.38-2.2-3.13-2.39
						c-1.62-0.17-3.51,0.04-4.81,0.83c-1.63,0.99-1.35,2.77-0.27,3.96c0.7,0.77,1.62,1.31,2.69,1.78c1.04,0.45,2.21,0.85,2.94,1.6
						c0.34,0.35,0.92,0.51,1.45,0.29c0.46-0.2,0.72-0.74,0.38-1.09c-0.74-0.75-1.67-1.29-2.74-1.76c-0.91-0.4-1.89-0.74-2.6-1.34
						c-0.56-0.48-1.13-1.24-0.81-1.89c0.19-0.39,0.84-0.59,1.42-0.71c1.01-0.21,3.19-0.35,3.36,0.61c0.11,0.65-0.26,1.37-0.51,1.97
						c-0.31,0.76-0.63,1.52-0.69,2.32C107.92,149.78,110.05,149.78,110.12,148.76L110.12,148.76z"/>
				</g>
			</g>
		</g>
		<g>
			<g>
				<path d="M60.19,47.19c1.42,0,1.42-1.65,0-1.65C58.77,45.54,58.77,47.19,60.19,47.19L60.19,47.19z"/>
			</g>
		</g>
		<g>
			<path class="st37" d="M90.84,97.59c-3.6,2.69-7.47,4.15-11.56,5.9c-2.3,0.99-5.51,1.57-7.93,0.76c-1.82-0.61-3.03-2.06-4.07-3.47
				C51.38,79.11,39.6,61.27,30.06,33.34c-1.51-4.41-1.26-9.27,0.52-13.57s6.25-8.06,11.66-8.3c4.14-0.19,8.15,1.69,11.01,4.25
				c2.87,2.56,4.77,5.76,6.58,8.93c13.08,22.99,23.12,46.52,32.08,72.78"/>
			<g>
				<path class="st37" d="M90.09,97.03c-3.34,2.48-7.52,4.25-11.64,5.9c-1.79,0.72-4.08,1.19-6.09,0.76
					c-2.05-0.44-3.19-1.99-4.16-3.3c-4.17-5.66-8.24-11.36-12.11-17.14c-3.73-5.58-7.25-11.24-10.44-17
					c-3.41-6.16-6.44-12.44-9.12-18.79c-1.47-3.5-2.84-7.02-4.12-10.55c-0.66-1.82-1.39-3.66-1.82-5.52
					c-0.43-1.83-0.54-3.71-0.39-5.57c0.26-3.39,1.33-6.91,3.99-9.72c2.2-2.32,5.68-4.13,9.63-3.81c4.48,0.37,8.06,3.05,10.4,5.74
					c2.67,3.06,4.45,6.54,6.31,9.9c3.78,6.8,7.32,13.68,10.62,20.62c3.34,7.01,6.44,14.08,9.34,21.19
					c3.01,7.39,5.81,14.82,8.45,22.29c0.66,1.87,1.31,3.74,1.95,5.62c0.34,0.99,2.39,0.57,2.05-0.42
					c-2.67-7.82-5.51-15.62-8.57-23.36c-2.93-7.42-6.08-14.8-9.47-22.12c-3.34-7.21-6.93-14.36-10.78-21.44
					c-1.9-3.49-3.73-7.05-6.03-10.41c-2.18-3.2-5.11-6.33-9.44-8.06c-3.88-1.55-8.37-1.55-12.07,0.3c-3.61,1.81-5.98,4.73-7.18,7.8
					c-1.45,3.71-1.76,7.66-0.96,11.47c0.41,1.97,1.19,3.89,1.88,5.82c0.67,1.85,1.36,3.7,2.08,5.54c2.64,6.77,5.66,13.46,9.11,20.03
					c3.2,6.1,6.75,12.09,10.58,17.98c3.87,5.95,8,11.8,12.23,17.62c2.02,2.78,3.94,6.6,8.74,7.01c2.29,0.19,4.67-0.35,6.66-1.17
					c2.08-0.86,4.16-1.73,6.16-2.69c2.05-0.98,3.98-2.1,5.71-3.38C92.57,97.43,91.06,96.31,90.09,97.03L90.09,97.03z"/>
			</g>
		</g>
		<g id="Ebene_9_8_">
			<g>
				<path class="st38" d="M92.3,98.5c2.63,7.95,7.13,14.94,9.76,22.89c0.25,0.74,1.15,2.38,0.99,3.13
					c-0.34,1.59-4.83,2.57-6.57,3.23c-2.1,0.8-5.46,2.91-7.62,2.18c-1.65-0.56-4.21-4.37-4.21-4.37
					c-5.08-6.53-8.66-13.13-13.74-19.66c8.14,0,14.73-4.46,21.43-7.82"/>
				<g>
					<path class="st38" d="M91.28,98.71c1.69,5.07,4.22,9.94,6.5,14.87c1.13,2.44,2.19,4.91,3.06,7.41
						c0.31,0.89,0.74,1.76,1.03,2.66c0.23,0.7,0.15,1.01-0.64,1.48c-1.64,0.96-3.76,1.3-5.56,2.04c-1.13,0.46-2.18,1.02-3.32,1.47
						c-0.81,0.33-2.02,0.84-2.97,0.57c-0.49-0.14-1.08-0.73-1.49-1.16c-0.59-0.63-1.12-1.28-1.63-1.95
						c-1.12-1.49-2.24-2.99-3.31-4.5c-3.78-5.34-7.05-10.88-11.11-16.11c-0.31,0.4-0.61,0.8-0.92,1.2
						c8.57-0.05,15.25-4.55,21.97-7.93c1.13-0.57,0.07-1.95-1.07-1.37c-6.34,3.19-12.8,7.67-20.9,7.71c-0.81,0-1.32,0.67-0.92,1.2
						c3.82,4.93,6.95,10.12,10.45,15.17c1.21,1.75,2.51,3.46,3.78,5.19c0.96,1.31,2.07,2.92,3.75,3.79c2.18,1.13,5.07-0.23,6.96-1.1
						c0.96-0.44,1.89-0.88,2.93-1.21c1.1-0.35,2.22-0.67,3.28-1.1c0.97-0.39,2-0.9,2.57-1.63c0.64-0.82,0.38-1.74,0.04-2.6
						c-0.9-2.32-1.74-4.66-2.73-6.96c-2.53-5.86-5.71-11.57-7.71-17.56C93,97.29,90.95,97.71,91.28,98.71L91.28,98.71z"/>
				</g>
			</g>
		</g>
		<g id="Ebene_4_7_">
			<g>
				<g>
					<path d="M117.04,138c-4.62-1.53-7.47-4.77-9.53-8.08c-2-3.22-3.31-6.65-4.66-10.04c-2.42-6.06-4.69-12.15-6.94-18.24
						c-2.47-6.69-4.9-13.39-7.4-20.08c-2.51-6.73-5.08-13.46-7.8-20.15c-2.56-6.28-5.25-12.53-8.24-18.7
						c-2.59-5.34-5.38-10.64-8.71-15.74c-2.56-3.93-5.43-7.82-9.21-11.18c-2.55-2.27-5.85-4.53-9.87-5.12
						c-3.83-0.56-7.53,0.58-10.38,2.48c-2.79,1.87-4.47,4.49-5.31,7.18c-1.03,3.31-1.01,6.78-0.57,10.14
						c0.55,4.21,1.74,8.37,3.21,12.46c1.7,4.72,3.8,9.36,6.1,13.93c2.51,5,5.27,9.93,8.18,14.81c2.96,4.98,6.09,9.9,9.32,14.78
						c3.12,4.72,6.35,9.4,9.65,14.05c2.99,4.22,6.04,8.41,9.14,12.58c2.54,3.42,5.11,6.83,7.69,10.23c1.81,2.39,3.64,4.77,5.42,7.16
						c0.54,0.72,1.07,1.45,1.58,2.18c0.16,0.24,0.32,0.47,0.47,0.71c0.03,0.04,0.05,0.09,0.08,0.13c0.08,0.13-0.11-0.23-0.03-0.06
						c0.23,0.54,0.48,1.07,0.68,1.61c1.68,4.41,1.7,8.97,0.71,13.47c-0.22,1,1.83,1.43,2.05,0.42c1.01-4.58,1.09-9.22-0.5-13.74
						c-0.39-1.12-0.83-2.19-1.53-3.21c-1.19-1.75-2.52-3.44-3.81-5.15c-2.18-2.87-4.36-5.74-6.53-8.61
						c-2.82-3.74-5.61-7.49-8.36-11.25c-3.2-4.38-6.34-8.79-9.41-13.23c-3.29-4.76-6.49-9.56-9.57-14.4
						c-3.09-4.86-6.07-9.76-8.84-14.73c-2.64-4.72-5.12-9.5-7.29-14.36c-1.95-4.36-3.68-8.78-4.93-13.29
						c-1.02-3.71-1.74-7.45-1.63-11.26c0.04-1.64,0.22-3.06,0.65-4.59c0.2-0.7,0.45-1.4,0.76-2.07c0.33-0.71,0.52-1.06,1-1.74
						c0.85-1.23,1.65-2.03,2.99-2.95c1.18-0.81,2.84-1.59,4.37-1.95c1.54-0.36,3.03-0.4,4.48-0.13c1.66,0.3,3.17,0.93,4.57,1.73
						c3.79,2.18,6.68,5.43,9.11,8.54c3.45,4.42,6.25,9.13,8.79,13.87c3.1,5.78,5.82,11.68,8.38,17.6c2.8,6.49,5.4,13.03,7.91,19.58
						c2.57,6.71,5.04,13.44,7.51,20.16c2.34,6.37,4.66,12.74,7.09,19.09c1.1,2.89,2.22,5.78,3.38,8.65
						c1.43,3.53,2.88,7.09,5.16,10.38c2.14,3.09,5.17,6.03,9.53,7.48C117.21,139.78,118.29,138.41,117.04,138L117.04,138z"/>
				</g>
			</g>
			<g>
				<g>
					<path d="M115.44,138.69c-1.08,6.21-0.63,12.64,1.13,18.75c0.49,1.7,1.1,3.37,1.85,5.01c0.16-0.3,0.33-0.6,0.49-0.9
						c-2,0.72-3.81,1.68-5.81,2.39c0.48,0.1,0.97,0.19,1.45,0.29c-3.29-5.76-9.23-10.36-16.25-13.68c-1.97-0.93-4.01-1.76-6.11-2.51
						c-1.23-0.44-2.31,0.93-1.07,1.37c7.12,2.54,13.76,6.11,18.25,11.03c1.32,1.44,2.43,2.98,3.35,4.59
						c0.24,0.42,0.99,0.45,1.45,0.29c2-0.72,3.81-1.68,5.81-2.39c0.4-0.14,0.63-0.59,0.49-0.9c-3.39-7.38-4.25-15.62-2.9-23.34
						c0.07-0.43-0.54-0.79-1.06-0.79C115.87,137.89,115.52,138.26,115.44,138.69L115.44,138.69z"/>
				</g>
			</g>
			<g>
				<g>
					<path d="M117.07,162.4c-1.66-3.2-3.34-6.41-4.83-9.66c-0.26-0.56-0.52-1.12-0.72-1.69c-0.02-0.07-0.05-0.14-0.07-0.22
						c-0.01-0.05-0.06-0.25-0.03-0.09c0.02,0.15-0.01-0.21-0.01-0.28c0-0.18,0.01-0.36,0.02-0.55c0.13-2.11,0.53-4.45-0.51-6.48
						c-0.51-0.99-1.43-1.86-2.88-2.11c-1.93-0.32-4.2,0.41-5.64,1.33c-2.06,1.32-1.65,3.31-0.27,4.84c1.87,2.06,4.71,3.61,7.44,4.98
						c1.14,0.57,2.21-0.81,1.07-1.37c-2.28-1.14-4.6-2.41-6.31-4.04c-0.97-0.92-1.96-2.24-0.56-3.2c0.7-0.47,1.66-0.78,2.57-0.95
						c0.56-0.1,1.01-0.12,1.5,0.02c-0.2-0.05,0.1,0.04,0.16,0.07c0.25,0.11,0.01-0.02,0.18,0.09c0.29,0.2,0.23,0.14,0.39,0.34
						c0.16,0.2,0.26,0.35,0.31,0.45c0.11,0.23,0.2,0.46,0.28,0.7c0.53,1.74,0.19,3.75,0.12,5.62c-0.04,0.98,0.4,1.87,0.81,2.78
						c1.5,3.31,3.22,6.56,4.91,9.82C115.51,163.76,117.57,163.35,117.07,162.4L117.07,162.4z"/>
				</g>
			</g>
			<g>
				<g>
					<path d="M102.71,124.1c-2.92,3.22-8.63,5.38-13.85,5.03c-1.36-0.09-1.35,1.5,0,1.59c5.97,0.41,12.37-2.16,15.68-5.82
						C105.32,124.05,103.47,123.25,102.71,124.1L102.71,124.1z"/>
				</g>
			</g>
			<g>
				<g>
					<path d="M92.26,96.12c-6.1,4.27-14.24,8.27-22.92,8.1c-1.37-0.03-1.37,1.56,0,1.59c9.25,0.17,17.91-4.01,24.42-8.57
						C94.76,96.54,93.25,95.42,92.26,96.12L92.26,96.12z"/>
				</g>
			</g>
		</g>
	</g>
</g>
<g id="Ebene_10_4_">
</g>
<g id="Ebene_8_6_">
</g>
<g id="Ebene_19_1_">
</g>
<g id="Ebene_23_1_">
</g>
<g id="Ebene_25">
</g>
<g id="Ebene_11_1_">
</g>
<g id="Ebene_12_1_">
</g>
</svg>
