<?xml version="1.0" encoding="utf-8"?>
<!-- Generator: Adobe Adobe Illustrator 24.2.0, SVG Export Plug-In . SVG Version: 6.00 Build 0)  -->
<svg version="1.1" xmlns="http://www.w3.org/2000/svg" xmlns:xlink="http://www.w3.org/1999/xlink" x="0px" y="0px"
	 viewBox="0 0 170.08 170.08" style="enable-background:new 0 0 170.08 170.08;" xml:space="preserve">
<style type="text/css">
	.st0{fill:#592F7D;}
	.st1{fill:#5A2F7C;}
	.st2{fill:#D3E1EB;}
	.st3{fill:#D3E1ED;}
	.st4{fill:#5C646E;stroke:#000000;stroke-width:2.7043;stroke-miterlimit:10;}
	.st5{fill:#B6D2E0;stroke:#000000;stroke-width:2.1378;stroke-miterlimit:10;}
	.st6{fill:#3D4D5B;}
	.st7{opacity:0.0784;}
	.st8{opacity:0.1216;}
	.st9{fill:#FFFFFF;}
	.st10{fill:#ECC9AD;}
	.st11{opacity:0.1608;}
	.st12{opacity:0.1686;}
	.st13{fill:#F0F6FA;}
	.st14{opacity:0.149;}
	.st15{opacity:0.0314;}
	.st16{stroke:#000000;stroke-width:0.0649;stroke-miterlimit:10;}
	.st17{fill:#F0F6FA;stroke:#F0F6FA;stroke-width:1.1522;stroke-miterlimit:10;}
	.st18{fill:#C8354F;}
	.st19{fill:#C93550;}
	.st20{fill:#6DB671;}
	.st21{fill:#6CB671;}
	.st22{fill:#D1DFEA;}
	.st23{fill:#C8354E;}
	.st24{fill:#F3C058;}
	.st25{fill:#C8AE9D;}
	.st26{opacity:0.1412;}
	.st27{fill:#D15238;}
	.st28{fill:#D15239;}
	.st29{opacity:0.9882;}
	.st30{fill:#ADBECF;}
	.st31{fill:#F3C057;}
	.st32{fill:#F7D98D;}
	.st33{fill:#AEBFCE;}
	.st34{opacity:0.2706;}
	.st35{fill:#3D4C5B;}
	.st36{fill:#D2E1EC;}
	.st37{fill:#59AEAA;stroke:#5AADAB;stroke-miterlimit:10;}
	.st38{fill:#592F7D;stroke:#592F7D;stroke-miterlimit:10;}
</style>
<g id="Ebene_6_11_">
</g>
<g id="Ebene_13_1_">
</g>
<g id="Ebene_9_6_">
</g>
<g id="Ebene_3">
	<g class="st29">
		<g id="Ebene_7_6_">
			<g>
				<path class="st30" d="M87.96,65.33c-1.2,0.62-1.07,2.38,0.21,3.01c-2.64,4.09-0.89,9.93,3.85,12.87
					c1.5,0.93,3.29,1.59,5.11,1.66c3.37,0.13,6.33-1.85,7.63-4.35c0.5-0.96,0.8-1.98,1.09-3c0.63-2.18,1.26-4.35,1.89-6.53
					c0.18-0.61,0.35-1.24,0.19-1.86c-0.33-1.3-1.96-2.12-3.45-2.65c-3.65-1.3-7.58-1.96-11.46-1.94c-1.11,0.01-2.24,0.07-3.22,0.45
					c-0.98,0.38-1.79,1.13-1.86,2.04"/>
				<g>
					<path class="st30" d="M87.91,65.02c-1.38,0.76-1.73,2.8-0.06,3.66c0-0.14,0-0.27,0-0.41c-1.87,2.94-1.68,6.69,0.28,9.77
						c2.12,3.32,6.75,6.07,11.22,4.97c2.06-0.51,3.77-1.71,4.93-3.16c1.45-1.8,1.88-4.06,2.48-6.16c0.34-1.16,0.67-2.32,1.01-3.48
						c0.17-0.57,0.34-1.14,0.49-1.72c0.13-0.51,0.21-1.05,0.07-1.58c-0.52-1.88-3.21-2.7-5.13-3.28c-2.68-0.81-5.49-1.28-8.29-1.41
						c-2.43-0.11-5.37-0.15-6.83,1.66c-0.31,0.38-0.51,0.82-0.56,1.29c-0.02,0.19,0.14,0.3,0.36,0.25c0.23-0.05,0.44-0.27,0.46-0.47
						c0.22-2.03,3.45-2.04,5.33-2c2.63,0.05,5.26,0.42,7.81,1.08c1.17,0.3,2.34,0.65,3.44,1.11c0.85,0.35,1.74,0.83,2.25,1.52
						c0.67,0.9,0.34,1.85,0.07,2.76c-0.31,1.07-0.62,2.14-0.93,3.21c-0.31,1.08-0.62,2.17-0.94,3.25c-0.29,0.98-0.58,1.99-1.11,2.89
						c-0.82,1.4-2.18,2.6-3.9,3.26c-3.96,1.5-8.53-0.69-10.86-3.63c-2.09-2.65-2.78-6.07-1.55-8.94c0.15-0.35,0.33-0.68,0.54-1.01
						c0.06-0.09,0.16-0.33,0-0.41c-0.54-0.28-0.86-0.73-0.94-1.24c-0.06-0.41,0.03-0.89,0.45-1.12c0.19-0.1,0.4-0.3,0.35-0.52
						C88.33,64.94,88.08,64.93,87.91,65.02L87.91,65.02z"/>
				</g>
			</g>
			<g>
				<g>
					<path class="st30" d="M94.46,83.45c0.41,0.07,0.94-0.66,0.49-0.73C94.54,82.65,94.01,83.37,94.46,83.45L94.46,83.45z"/>
				</g>
			</g>
			<g>
				<g>
					<path class="st30" d="M93.77,83.53c0.23,0.67,0.93,1.19,1.78,1.19c0.89,0,1.63-0.55,1.91-1.21c0.04-0.09,0.05-0.33-0.14-0.35
						c-0.88-0.08-1.77-0.17-2.65-0.25c-0.25-0.02-0.46,0.11-0.57,0.29c-0.06,0.1-0.17,0.42,0.08,0.45c0.88,0.08,1.77,0.17,2.65,0.25
						c-0.05-0.12-0.09-0.23-0.14-0.35c-0.36,0.86-1.87,0.3-2.12-0.41C94.42,82.69,93.65,83.21,93.77,83.53L93.77,83.53z"/>
				</g>
			</g>
		</g>
		<g id="Ebene_5_2_">
			<g>
				<path class="st31" d="M107.96,65.19c0.94-5.91,6.09-10.48,11.24-14.44c5.15-3.96,10.73-7.96,12.99-13.55
					c2.85-7.07-0.59-15.62-7.46-21s-16.65-7.73-25.73-7.12c-5.66,0.38-11.19,1.86-15.6,4.64s-8.63,7.47-9.39,12.12
					c-1.04,6.45,3.56,12.43,7.18,18.46c3.61,6.03,7.45,12.4,6.94,18.92c6.42-1.3,13.6-0.39,19.56,2.47"/>
				<g>
					<path class="st31" d="M108.37,65.08c0.83-5.12,4.89-9.18,9.12-12.6c4.26-3.45,8.98-6.56,12.32-10.7
						c1.58-1.96,2.79-4.15,3.38-6.51c0.54-2.17,0.54-4.45,0.1-6.68c-0.9-4.49-3.6-8.83-7.53-12.15c-4.26-3.59-9.88-5.95-15.65-7.06
						c-5.91-1.13-12.09-1.01-17.74,0.34c-2.82,0.68-5.51,1.68-7.91,3.03c-2.37,1.33-4.46,2.99-6.22,4.85
						c-1.79,1.89-3.29,4.04-4.11,6.39c-0.79,2.25-0.84,4.66-0.29,7.02c1.14,4.88,4.43,9.3,7.09,13.76
						c2.84,4.73,5.81,9.62,6.63,14.84c0.2,1.25,0.26,2.5,0.17,3.74c-0.01,0.19,0.13,0.29,0.36,0.25c4.94-0.99,10.3-0.66,15.23,0.86
						c1.4,0.43,2.76,0.96,4.06,1.58c0.4,0.19,1.01-0.49,0.65-0.66c-4.72-2.25-10.15-3.32-15.42-3.05c-1.5,0.08-2.97,0.27-4.42,0.56
						c0.12,0.08,0.24,0.16,0.36,0.25c0.38-5.1-1.82-10.11-4.45-14.79c-1.31-2.34-2.72-4.65-4.15-6.94
						c-1.39-2.23-2.79-4.46-3.87-6.79c-1.04-2.24-1.78-4.58-1.79-6.94c-0.02-2.38,0.77-4.63,2.08-6.67
						c2.65-4.16,7.01-7.54,12.21-9.44c5.28-1.93,11.35-2.57,17.25-1.99c5.84,0.58,11.65,2.36,16.43,5.43
						c4.46,2.87,7.81,6.84,9.46,11.26c1.64,4.41,1.44,9.09-0.94,13.07c-2.62,4.38-7.14,7.65-11.38,10.91
						c-4.31,3.31-8.65,6.92-10.77,11.6c-0.5,1.11-0.86,2.27-1.05,3.47c-0.03,0.19,0.15,0.29,0.36,0.25
						C108.15,65.49,108.34,65.27,108.37,65.08L108.37,65.08z"/>
				</g>
			</g>
		</g>
		<g id="Ebene_6_5_">
			<g>
				<path class="st32" d="M124.81,25.82c-2.81-4.48-8.37-9.59-14.04-11.44s-14.9-0.52-20.02,1.78c-7.07,3.18-9.69,11.88-8.18,18.69
					c1.31,5.9,8.62,9.43,15.55,11.28c6.93,1.85,15.66,2.38,20.64-1.61c4.98-4,7.51-12.8,6.04-18.69"/>
				<g>
					<path class="st32" d="M125.19,25.55c-1.18-1.88-2.67-3.64-4.34-5.27c-1.74-1.69-3.71-3.24-5.92-4.5
						c-1.91-1.09-4-1.95-6.24-2.32c-2.25-0.38-4.56-0.39-6.8-0.22c-2.36,0.18-4.7,0.57-6.94,1.15c-1.97,0.52-3.94,1.18-5.61,2.17
						c-3.38,2.01-5.51,5.2-6.61,8.53c-0.57,1.72-0.89,3.51-0.96,5.32c-0.06,1.74,0.05,3.56,0.57,5.28c1.06,3.5,4.32,6.18,7.99,8.02
						c3.85,1.93,8.23,3.2,12.57,3.82c4.33,0.62,8.95,0.61,12.84-0.93c3.81-1.51,6.16-4.56,7.68-7.74c1.61-3.36,2.44-7.13,2.17-10.85
						c-0.06-0.79-0.18-1.59-0.37-2.38c-0.11-0.45-0.9,0.07-0.81,0.4c0.84,3.41,0.38,7-0.69,10.24c-0.56,1.69-1.31,3.34-2.32,4.86
						c-0.9,1.37-2.02,2.66-3.48,3.65c-3.17,2.15-7.61,2.58-11.71,2.32c-4.26-0.28-8.57-1.31-12.51-2.85
						c-3.74-1.46-7.47-3.6-9.48-6.7c-0.99-1.54-1.38-3.19-1.55-4.87c-0.18-1.73-0.1-3.47,0.21-5.17c0.6-3.31,2.08-6.59,4.8-9.01
						c1.29-1.14,2.86-1.98,4.6-2.61c1.99-0.71,4.1-1.22,6.25-1.55c4.18-0.65,8.91-0.83,12.99,0.77c2.25,0.88,4.29,2.17,6.11,3.59
						c1.89,1.48,3.58,3.14,5.03,4.92c0.65,0.8,1.25,1.62,1.78,2.48C124.65,26.45,125.38,25.86,125.19,25.55L125.19,25.55z"/>
				</g>
			</g>
		</g>
		<g id="Ebene_3_1_">
			<g>
				<g>
					<path d="M108.16,66.33c0.77-2.55,2.02-4.93,3.64-7.15c1.59-2.16,3.5-4.14,5.51-6.02c2.07-1.94,4.22-3.81,6.58-5.52
						c2.28-1.66,4.68-3.29,6.44-5.37c3.1-3.66,4.11-8.38,3.36-12.94c-0.76-4.59-3.27-9.04-7.16-12.52
						c-4.16-3.71-9.69-6.26-15.46-7.56c-5.87-1.33-12.02-1.38-17.74-0.21c-5.78,1.19-11.17,3.72-14.86,7.55
						c-3.74,3.88-5.79,9.07-4.84,14.24c0.48,2.62,1.72,5.12,3.14,7.53c1.43,2.41,3,4.76,4.38,7.2c2.54,4.48,4.48,9.1,5.72,13.89
						c0.34,1.33,0.64,2.67,0.91,4.01c0.09,0.44,0.88-0.07,0.81-0.4c-0.98-4.91-2.46-9.75-4.76-14.42c-1.14-2.31-2.43-4.58-3.81-6.8
						c-1.47-2.37-3.04-4.71-4.19-7.19c-1.14-2.45-1.76-5-1.59-7.57c0.17-2.5,1-4.92,2.35-7.1c2.7-4.33,7.37-7.46,12.83-9.22
						c5.4-1.74,11.45-2.22,17.35-1.45c5.81,0.77,11.53,2.73,16.2,5.91c4.44,3.03,7.69,7.1,9.18,11.64c1.43,4.32,1.32,9.02-0.9,12.96
						c-1.24,2.2-3.13,3.94-5.27,5.54c-1.14,0.85-2.31,1.67-3.45,2.52c-1.12,0.84-2.16,1.73-3.19,2.63
						c-4.16,3.65-8.15,7.55-10.53,12.27c-0.58,1.16-1.06,2.35-1.43,3.58C107.24,66.92,108.05,66.7,108.16,66.33L108.16,66.33z"/>
				</g>
			</g>
			<g>
				<g>
					<path d="M87.61,64.83c0.19,0.51,0.77,0.89,1.29,1.16c0.87,0.45,1.85,0.76,2.81,1.02c2.98,0.8,6.09,1.2,9.16,1.5
						c0.94,0.09,1.89,0.18,2.83,0.25c0.87,0.07,1.81,0.21,2.67,0.11c0.71-0.08,1.38-0.31,1.83-0.77c0.47-0.48,0.56-1.13,0.2-1.72
						c-0.39-0.62-1.12-1.09-1.8-1.47c-0.77-0.43-1.62-0.76-2.48-1.04c-1.84-0.59-3.77-0.97-5.68-1.23c-2.15-0.29-4.32-0.4-6.47-0.31
						c-0.99,0.04-2.13,0.03-3.03,0.36c-0.81,0.29-1.48,0.96-1.36,1.75c0.03,0.21,0.3,0.19,0.46,0.12c0.2-0.09,0.38-0.31,0.35-0.52
						c-0.1-0.66,0.86-0.79,1.45-0.85c0.86-0.09,1.73-0.13,2.61-0.14c1.78-0.03,3.57,0.07,5.35,0.3c1.7,0.22,3.4,0.56,5.05,1.02
						c1.54,0.43,3.16,1.02,4.32,2.03c0.37,0.32,0.92,0.97,0.51,1.37c-0.36,0.35-1.14,0.39-1.67,0.37c-1.71-0.06-3.44-0.24-5.15-0.42
						c-2.79-0.29-5.61-0.67-8.34-1.37c-0.97-0.25-1.97-0.54-2.86-0.98c-0.54-0.27-1.11-0.6-1.3-1.11c-0.08-0.2-0.43-0.06-0.54,0.02
						C87.65,64.43,87.54,64.63,87.61,64.83L87.61,64.83z"/>
				</g>
			</g>
			<g>
				<g>
					<path d="M88.1,64.75c-1.65,0.45-2.18,2.21-1.2,3.43c1.23,1.53,3.59,1.84,5.55,2.14c2.32,0.36,4.65,0.59,6.98,0.78
						c1.19,0.1,2.37,0.18,3.56,0.26c0.97,0.07,1.95,0.16,2.88-0.03c0.91-0.19,1.55-0.69,1.93-1.39c0.31-0.57,0.53-1.37,0.04-1.96
						c-0.28-0.34-0.99,0.26-0.76,0.55c0.33,0.4,0.23,0.92,0.02,1.32c-0.25,0.48-0.67,0.7-1.3,0.8c-0.81,0.13-1.68,0.03-2.52-0.03
						c-1-0.07-2-0.14-3-0.22c-2.01-0.16-4.03-0.35-6.04-0.62c-0.96-0.13-1.92-0.27-2.88-0.45c-0.9-0.17-1.83-0.37-2.61-0.81
						c-0.72-0.39-1.37-0.99-1.53-1.7c-0.12-0.55,0.09-1.18,0.76-1.36c0.23-0.06,0.44-0.26,0.46-0.47
						C88.47,64.81,88.32,64.69,88.1,64.75L88.1,64.75z"/>
				</g>
			</g>
			<g>
				<g>
					<path d="M87.03,68.36c-0.39,0.57-0.63,1.24-0.73,1.9c-0.09,0.63-0.03,1.25,0.46,1.79c1.31,1.46,3.78,1.41,5.67,1.56
						c2.29,0.19,4.58,0.38,6.86,0.58c1.12,0.09,2.24,0.19,3.36,0.28c0.92,0.08,1.92,0.23,2.81,0c1.95-0.51,1.93-2.48,1.53-3.91
						c-0.12-0.45-0.9,0.07-0.81,0.4c0.16,0.59,0.27,1.21,0.19,1.8c-0.08,0.57-0.34,0.94-1.05,1.05c-0.8,0.12-1.69-0.03-2.5-0.09
						c-1.03-0.09-2.05-0.17-3.08-0.26c-2.01-0.17-4.01-0.34-6.02-0.51c-1.01-0.09-2.03-0.15-3.04-0.26
						c-0.89-0.09-1.82-0.25-2.57-0.72c-0.66-0.41-1.06-0.96-1.03-1.62c0.03-0.63,0.23-1.3,0.6-1.84c0.09-0.13,0.15-0.38-0.08-0.45
						C87.37,68.01,87.12,68.23,87.03,68.36L87.03,68.36z"/>
				</g>
			</g>
			<g>
				<g>
					<path d="M87.11,71.66c-0.96,0.78-1.13,2.21-0.69,3.29c0.62,1.49,3.06,1.54,4.58,1.66c2.37,0.18,4.75,0.36,7.12,0.54
						c1.17,0.09,2.35,0.18,3.52,0.27c0.95,0.07,1.94,0.2,2.88,0.04c0.97-0.16,1.72-0.64,2.03-1.42c0.29-0.74,0.24-1.6-0.02-2.37
						c-0.15-0.45-0.93,0.07-0.81,0.4c0.2,0.59,0.29,1.25,0.13,1.84c-0.05,0.2-0.14,0.42-0.33,0.56c-0.26,0.18-0.65,0.26-0.99,0.29
						c-0.84,0.09-1.72-0.02-2.57-0.09c-1.01-0.08-2.02-0.15-3.03-0.23c-2.04-0.15-4.09-0.31-6.13-0.46
						c-0.98-0.07-1.97-0.12-2.95-0.24c-0.78-0.1-1.74-0.28-2.31-0.8c-0.41-0.37-0.5-0.96-0.5-1.43c0-0.42,0.08-1.06,0.4-1.33
						c0.14-0.12,0.35-0.34,0.22-0.53C87.53,71.46,87.23,71.56,87.11,71.66L87.11,71.66z"/>
				</g>
			</g>
			<g>
				<g>
					<path d="M87.27,75.49c-1.03,0.73-0.89,2.23,0.33,2.88c0.74,0.4,1.62,0.52,2.46,0.66c0.99,0.17,1.99,0.33,2.98,0.5
						c1.99,0.33,3.97,0.67,5.96,1c1.7,0.29,3.58,0.75,5.17,0.1c0.75-0.3,1.35-0.86,1.57-1.54c0.26-0.79,0.09-1.62-0.22-2.41
						c-0.08-0.2-0.43-0.06-0.54,0.02c-0.18,0.13-0.3,0.33-0.22,0.53c0.23,0.59,0.4,1.27,0.23,1.86c-0.13,0.47-0.52,0.77-1.05,0.94
						c-1.41,0.45-3.13-0.02-4.59-0.26c-1.64-0.28-3.28-0.55-4.92-0.83c-1.62-0.27-3.26-0.5-4.87-0.83
						c-0.68-0.14-1.54-0.36-1.92-0.91c-0.21-0.31-0.42-0.96-0.05-1.22c0.15-0.11,0.34-0.35,0.22-0.53
						C87.68,75.29,87.4,75.4,87.27,75.49L87.27,75.49z"/>
				</g>
			</g>
			<g>
				<g>
					<path d="M89.12,78.85c0.19,1.01,0.66,1.99,1.56,2.74c0.78,0.66,1.81,1.09,2.84,1.38c2.16,0.61,4.53,0.75,6.55-0.02
						c1.21-0.46,2.16-1.25,2.64-2.29c0.07-0.16,0.01-0.35-0.23-0.36c-0.25,0-0.46,0.22-0.53,0.39c-0.72,1.56-2.93,2.06-4.82,2.04
						c-0.99-0.01-1.96-0.19-2.92-0.44c-0.94-0.25-1.85-0.59-2.61-1.14c-0.98-0.71-1.49-1.67-1.68-2.7
						C89.85,78.01,89.06,78.52,89.12,78.85L89.12,78.85z"/>
				</g>
			</g>
			<g>
				<path class="st33" d="M93.64,82.68c-0.21,0.71,0.63,1.9,1.76,1.98c0.89,0.06,2.27-0.52,2.5-1.28"/>
				<g>
					<path d="M93.23,82.79c-0.23,0.95,0.76,2.15,1.96,2.24c1.25,0.1,2.74-0.68,3.08-1.67c0.05-0.16,0.02-0.35-0.23-0.36
						c-0.24,0-0.48,0.22-0.53,0.39c-0.21,0.62-1.36,1.02-2.1,0.87c-0.81-0.16-1.53-1.02-1.37-1.69c0.05-0.19-0.16-0.29-0.36-0.25
						C93.44,82.38,93.28,82.59,93.23,82.79L93.23,82.79z"/>
				</g>
			</g>
		</g>
		<g id="Ebene_8_10_">
			<g class="st34">
				<path class="st35" d="M89.59,63c-0.92,0-1.28,1.07-0.79,1.75c0.49,0.67,1.44,1,2.33,1.25c3.79,1.09,7.72,1.77,11.66,2.01
					c1.86,0.12,3.86,0.1,5.31-0.79c-6.3-0.17-13.77-0.33-18.39-3.99"/>
				<g>
					<path class="st35" d="M89.75,62.63c-1.25,0.05-1.88,1.33-1.41,2.24c0.28,0.54,0.92,0.9,1.53,1.15
						c0.79,0.32,1.65,0.53,2.48,0.74c3.56,0.92,7.28,1.51,10.95,1.66c1.7,0.07,3.48-0.06,4.86-0.88c0.18-0.11,0.64-0.68,0.1-0.69
						c-4.9-0.13-10.16-0.16-14.79-2c-1.25-0.5-2.42-1.15-3.43-1.95c-0.32-0.25-0.98,0.4-0.65,0.66c3.84,3.01,9.34,3.63,14.23,3.88
						c1.45,0.07,2.89,0.11,4.34,0.15c0.03-0.23,0.07-0.46,0.1-0.69c-1.05,0.63-2.36,0.78-3.66,0.78c-1.54,0-3.1-0.16-4.64-0.35
						c-1.62-0.2-3.23-0.47-4.83-0.82c-0.81-0.17-1.61-0.37-2.41-0.58c-0.7-0.19-1.43-0.36-2.1-0.63c-0.58-0.23-1.24-0.62-1.38-1.17
						c-0.08-0.32-0.04-0.75,0.42-0.77C89.83,63.36,90.28,62.61,89.75,62.63L89.75,62.63z"/>
				</g>
			</g>
			<g class="st34">
				<path class="st35" d="M87.82,65.74c-0.83,0.52-0.6,1.71,0.19,2.36s1.9,0.88,2.96,1.08c4.48,0.83,9,1.39,13.54,1.67
					c1.17,0.07,2.6,0,3.03-0.88c-3.15,0.38-17.07,0.06-19.65-4.45"/>
				<g>
					<path class="st35" d="M87.67,65.48c-1.06,0.72-0.98,2.11,0.02,2.94c0.58,0.48,1.37,0.75,2.13,0.93
						c0.89,0.21,1.81,0.35,2.72,0.5c3.83,0.64,7.68,1.09,11.55,1.35c1.51,0.1,3.18,0.01,3.84-1.25c0.07-0.13,0.01-0.39-0.23-0.36
						c-0.94,0.11-1.92,0.12-2.88,0.12c-1.44,0-2.89-0.07-4.34-0.19c-3.06-0.26-6.33-0.71-9.15-1.92c-1.24-0.53-2.44-1.28-3.06-2.35
						c-0.21-0.35-0.94,0.23-0.76,0.55c1.24,2.13,4.43,3.09,6.95,3.65c3.1,0.69,6.32,0.96,9.47,1.01c1.15,0.02,2.33,0.02,3.46-0.11
						c-0.08-0.12-0.15-0.24-0.23-0.36c-0.17,0.32-0.72,0.42-1.1,0.47c-0.6,0.07-1.21,0.03-1.81-0.01c-1.7-0.11-3.39-0.27-5.09-0.46
						c-1.65-0.19-3.31-0.41-4.95-0.67c-0.83-0.13-1.67-0.27-2.5-0.42c-0.71-0.13-1.44-0.25-2.12-0.48
						c-0.68-0.23-1.33-0.59-1.66-1.15c-0.22-0.39-0.38-0.99,0.05-1.28c0.15-0.1,0.34-0.35,0.22-0.53
						C88.08,65.28,87.8,65.39,87.67,65.48L87.67,65.48z"/>
				</g>
			</g>
			<g class="st34">
				<path class="st35" d="M87.47,69.14c-1.04,0.44-0.83,1.85,0.09,2.53c0.92,0.68,2.21,0.82,3.4,0.93
					c4.11,0.37,8.23,0.75,12.34,1.12c1.23,0.11,2.73,0.12,3.33-0.74c-5.27-0.07-17.2-0.13-18.89-4.25"/>
				<g>
					<path class="st35" d="M87.42,68.82c-1.13,0.52-1.34,1.8-0.63,2.73c0.89,1.17,2.76,1.31,4.21,1.44
						c3.95,0.36,7.9,0.72,11.85,1.08c1.54,0.14,3.24,0.18,4.11-1.01c0.11-0.16,0.14-0.45-0.18-0.45c-2.7-0.04-5.41-0.08-8.11-0.31
						c-1.48-0.13-2.97-0.31-4.43-0.59c-1.27-0.25-2.56-0.57-3.72-1.11c-1.05-0.49-2-1.17-2.4-2.13c-0.15-0.35-0.9,0.21-0.76,0.55
						c0.81,1.93,3.56,2.8,5.7,3.28c2.98,0.67,6.08,0.87,9.11,0.98c1.44,0.05,2.87,0.07,4.31,0.09c-0.06-0.15-0.12-0.3-0.18-0.45
						c-0.24,0.33-0.77,0.43-1.22,0.48c-0.62,0.06-1.26,0-1.88-0.05c-1.68-0.15-3.37-0.31-5.05-0.46c-1.71-0.15-3.41-0.31-5.12-0.47
						c-0.8-0.07-1.6-0.14-2.41-0.22c-0.69-0.08-1.4-0.18-2.04-0.44c-0.61-0.25-1.11-0.65-1.31-1.19c-0.13-0.36-0.19-0.88,0.25-1.08
						c0.19-0.09,0.4-0.31,0.35-0.52C87.83,68.74,87.59,68.75,87.42,68.82L87.42,68.82z"/>
				</g>
			</g>
			<g class="st34">
				<path class="st35" d="M87.29,72.75c-0.65,0.56-0.47,1.58,0.2,2.19c0.67,0.61,1.69,0.88,2.66,0.93c0.97,0.05,1.92-0.07,2.89-0.1
					c2.22-0.06,4.45,0.41,6.68,0.67c2.23,0.27,4.59,0.31,6.51-0.53c-4.19-0.01-15.29,0.13-18.93-3.25"/>
				<g>
					<path class="st35" d="M87.04,72.57c-0.87,0.8-0.68,2.11,0.33,2.86c1.18,0.88,2.85,0.87,4.27,0.78
						c0.84-0.05,1.67-0.09,2.51-0.05c0.88,0.04,1.77,0.16,2.65,0.28c1.58,0.22,3.15,0.48,4.74,0.54c1.66,0.06,3.29-0.13,4.74-0.74
						c0.22-0.09,0.62-0.69,0.1-0.69c-2.39-0.01-4.78-0.01-7.17-0.16c-2.77-0.17-5.63-0.46-8.28-1.3c-1.22-0.39-2.42-0.92-3.32-1.74
						c-0.29-0.26-0.96,0.38-0.65,0.66c1.72,1.58,4.49,2.2,6.86,2.59c2.83,0.47,5.72,0.62,8.57,0.67c1.23,0.02,2.45,0.02,3.68,0.03
						c0.03-0.23,0.07-0.46,0.1-0.69c-2.43,1.04-5.41,0.61-8.08,0.22c-1.49-0.22-3-0.43-4.5-0.43c-1.43,0-2.89,0.31-4.32-0.05
						c-0.67-0.17-1.34-0.49-1.7-1.01c-0.3-0.43-0.44-1.03-0.04-1.41c0.12-0.11,0.26-0.38,0.07-0.51
						C87.42,72.28,87.16,72.47,87.04,72.57L87.04,72.57z"/>
				</g>
			</g>
			<g class="st34">
				<path class="st35" d="M87.58,75.76c-0.52,0.63-0.07,1.59,0.7,2.08s1.76,0.64,2.7,0.77c3.31,0.46,6.62,0.93,9.93,1.39
					c1.58,0.22,3.44,0.38,4.48-0.56c-6.05,0.21-12.92-0.56-17.96-3.71"/>
				<g>
					<path class="st35" d="M87.26,75.68c-0.66,0.86-0.15,2.04,0.9,2.61c0.6,0.33,1.3,0.49,1.99,0.6c0.8,0.13,1.61,0.23,2.41,0.34
						c1.65,0.23,3.31,0.46,4.96,0.7c1.49,0.21,2.99,0.48,4.49,0.59c1.38,0.1,2.69-0.08,3.64-0.9c0.15-0.13,0.29-0.56-0.1-0.55
						c-4.75,0.16-9.73-0.24-14.22-1.92c-1.26-0.47-2.45-1.05-3.56-1.74c-0.36-0.22-1,0.44-0.65,0.66c4.07,2.52,9.11,3.49,13.96,3.73
						c1.39,0.07,2.79,0.07,4.17,0.02c-0.03-0.18-0.07-0.37-0.1-0.55c-0.66,0.57-1.82,0.57-2.73,0.51c-1.3-0.08-2.62-0.33-3.91-0.51
						c-1.47-0.21-2.94-0.41-4.4-0.62c-0.75-0.1-1.49-0.21-2.24-0.31c-0.64-0.09-1.29-0.16-1.93-0.31c-0.66-0.15-1.34-0.41-1.76-0.89
						c-0.33-0.37-0.56-0.91-0.25-1.3c0.1-0.13,0.14-0.38-0.08-0.45C87.59,75.33,87.36,75.55,87.26,75.68L87.26,75.68z"/>
				</g>
			</g>
			<g class="st34">
				<path class="st35" d="M89.71,79c1.06,1.59,2.9,2.85,4.97,3.4c2.07,0.55,4.36,0.4,6.19-0.43c-3.75-0.1-7.53-1.24-10.6-3.2"/>
				<g>
					<path class="st35" d="M89.33,79.28c1.09,1.61,2.9,2.88,5,3.47c2.22,0.62,4.63,0.42,6.59-0.45c0.23-0.1,0.62-0.68,0.1-0.69
						c-3.71-0.11-7.39-1.24-10.43-3.16c-0.36-0.23-1,0.44-0.65,0.66c3.14,1.99,6.94,3.13,10.77,3.25c0.03-0.23,0.07-0.46,0.1-0.69
						c-1.82,0.8-4.07,0.91-6.1,0.32c-1.94-0.57-3.61-1.76-4.62-3.25C89.85,78.38,89.12,78.97,89.33,79.28L89.33,79.28z"/>
				</g>
			</g>
			<g class="st34">
				<path class="st35" d="M93.85,82.78c0.06,0.61,0.54,1.19,1.2,1.48s1.49,0.26,2.08-0.07c-1.14-0.27-2.18-0.91-2.83-1.75"/>
				<g>
					<path class="st35" d="M93.45,82.98c0.09,0.68,0.58,1.31,1.33,1.63c0.79,0.34,1.72,0.27,2.42-0.1c0.17-0.09,0.61-0.58,0.19-0.68
						c-1.1-0.27-2.06-0.85-2.7-1.65c-0.27-0.34-0.99,0.26-0.76,0.55c0.71,0.89,1.75,1.54,2.96,1.84c0.06-0.23,0.13-0.46,0.19-0.68
						c-1.15,0.6-2.68-0.18-2.82-1.29c-0.03-0.21-0.3-0.19-0.46-0.12C93.59,82.56,93.42,82.77,93.45,82.98L93.45,82.98z"/>
				</g>
			</g>
		</g>
		<g id="Ebene_4">
			<g>
				<g>
					<path d="M89.77,63.14c3.49-2.95,6.9-5.95,10.16-9.08c3.27-3.13,6.37-6.39,9.21-9.81c2.8-3.38,5.41-6.92,7.48-10.68
						c1.04-1.88,1.93-4,1.5-6.17c-0.32-1.64-1.52-3.33-3.33-4.17c-1.9-0.88-4-0.56-5.59,0.45c-1.87,1.19-2.69,3.12-2.97,5.05
						c-0.07,0.53-0.11,1.06-0.13,1.6c-0.02,0.5,0.7,0.14,0.79-0.13c0.58-1.89,1.19-3.91,0.46-5.9c-0.6-1.62-2.09-3.06-4.19-3.29
						c-2.09-0.23-4.09,0.59-5.46,1.77c-1.49,1.28-2.36,2.96-2.75,4.72c-0.86,3.95,0.85,8.04,2.24,11.89
						c1.48,4.1,3.06,8.18,4.53,12.28c1.47,4.08,2.85,8.19,3.89,12.34c0.13,0.5,0.25,1.01,0.37,1.51c0.1,0.45,0.89-0.07,0.81-0.4
						c-0.91-3.95-2.16-7.86-3.52-11.75c-1.37-3.92-2.86-7.81-4.3-11.71c-0.71-1.91-1.41-3.83-2.07-5.75
						c-0.67-1.95-1.25-3.94-1.36-5.95c-0.17-3.2,1.19-7.15,5.24-8.09c0.91-0.21,1.91-0.22,2.84,0.07c0.92,0.28,1.69,0.86,2.21,1.54
						c1.25,1.62,1.14,3.52,0.71,5.26c-0.12,0.5-0.28,1-0.43,1.5c0.26-0.04,0.53-0.08,0.79-0.13c0.07-1.89,0.35-3.95,1.88-5.37
						c1.24-1.15,3.22-1.65,5.06-0.95c1.8,0.68,3.04,2.3,3.41,3.85c0.48,2.04-0.36,4.06-1.34,5.83c-1.98,3.57-4.44,6.96-7.09,10.18
						c-2.67,3.24-5.58,6.34-8.64,9.32c-3.05,2.97-6.26,5.84-9.54,8.64c-0.4,0.34-0.8,0.68-1.21,1.02c-0.14,0.12-0.35,0.34-0.22,0.53
						C89.35,63.33,89.64,63.24,89.77,63.14L89.77,63.14z"/>
				</g>
			</g>
			<g>
				<g>
					<path d="M122.43,20.46c3.02,2.8,4.58,6.59,4.19,10.19c-0.02,0.19,0.14,0.3,0.36,0.25c0.23-0.05,0.44-0.27,0.46-0.47
						c0.41-3.77-1.19-7.7-4.35-10.63C122.79,19.54,122.12,20.17,122.43,20.46L122.43,20.46z"/>
				</g>
			</g>
			<g>
				<g>
					<path d="M80.05,27.72c-0.84,3.18-0.43,6.63,1.13,9.74c0.44,0.89,0.99,1.75,1.61,2.57c0.26,0.35,0.98-0.25,0.76-0.55
						c-2.14-2.8-3.25-6.09-3.1-9.31c0.04-0.91,0.18-1.8,0.41-2.68c0.05-0.19-0.16-0.29-0.36-0.25
						C80.26,27.31,80.1,27.53,80.05,27.72L80.05,27.72z"/>
				</g>
			</g>
		</g>
	</g>
	<g>
		<g id="Ebene_5_9_">
			<g>
				<path class="st36" d="M103.64,126.82c2.08,5.25,6.72,9.76,12.59,12.25c-0.99,7.46-0.12,15.11,2.53,22.31
					c-0.42,1.68-3.11,2.27-4.99,1.58s-3.14-2.19-4.42-3.54c-4.33-4.57-9.99-8.24-16.32-10.6c1.01-6.05-0.22-12.37-3.49-17.87
					c4.84-0.38,9.56-1.69,13.71-3.79"/>
				<g>
					<path class="st36" d="M102.62,127.03c2.11,5.24,6.68,9.98,13.08,12.72c-0.18-0.23-0.35-0.46-0.53-0.69
						c-0.98,7.54-0.1,15.21,2.57,22.53c0-0.14,0-0.28,0-0.42c-0.33,1.14-2.07,1.56-3.43,1.11c-1.92-0.64-3.08-2.26-4.26-3.48
						c-2.76-2.87-6.05-5.42-9.82-7.55c-2.09-1.18-4.32-2.22-6.67-3.1c0.18,0.23,0.35,0.46,0.53,0.69c1.01-6.2-0.27-12.55-3.63-18.27
						c-0.31,0.4-0.61,0.8-0.92,1.2c5.11-0.42,9.97-1.75,14.24-3.89c1.13-0.57,0.07-1.95-1.07-1.37c-3.94,1.98-8.44,3.29-13.17,3.68
						c-0.85,0.07-1.26,0.61-0.92,1.2c3.21,5.46,4.3,11.56,3.34,17.46c-0.04,0.26,0.23,0.58,0.53,0.69
						c3.79,1.42,7.26,3.25,10.32,5.44c1.57,1.12,3.03,2.33,4.38,3.61c1.27,1.21,2.32,2.55,3.7,3.69c1.22,1.01,2.86,1.85,4.75,1.78
						c1.7-0.06,3.3-0.75,3.95-1.95c0.44-0.82-0.05-1.61-0.32-2.42c-0.3-0.91-0.57-1.82-0.82-2.74c-0.48-1.81-0.85-3.63-1.1-5.46
						c-0.57-4.12-0.58-8.27-0.05-12.4c0.04-0.27-0.23-0.56-0.53-0.69c-5.93-2.54-10.15-6.92-12.11-11.77
						C104.28,125.63,102.22,126.05,102.62,127.03L102.62,127.03z"/>
				</g>
			</g>
		</g>
		<g id="Ebene_7_5_">
			<g>
				<path class="st35" d="M109.05,148.76c0.06-1.51,1.94-3.82,0.88-5.06s-5.49-0.93-6.39,0.37c-0.85,1.23,0.4,2.8,1.85,3.56
					s3.21,1.19,4.26,2.32"/>
				<g>
					<path class="st6" d="M110.12,148.76c0.1-1.43,1.26-2.73,1.2-4.19c-0.05-1.39-1.38-2.2-3.13-2.39
						c-1.62-0.17-3.51,0.04-4.81,0.83c-1.63,0.99-1.35,2.77-0.27,3.96c0.7,0.77,1.62,1.31,2.69,1.78c1.04,0.45,2.21,0.85,2.94,1.6
						c0.34,0.35,0.92,0.51,1.45,0.29c0.46-0.2,0.72-0.74,0.38-1.09c-0.74-0.75-1.67-1.29-2.74-1.76c-0.91-0.4-1.89-0.74-2.6-1.34
						c-0.56-0.48-1.13-1.24-0.81-1.89c0.19-0.39,0.84-0.59,1.42-0.71c1.01-0.21,3.19-0.35,3.36,0.61c0.11,0.65-0.26,1.37-0.51,1.97
						c-0.31,0.76-0.63,1.52-0.69,2.32C107.92,149.78,110.05,149.78,110.12,148.76L110.12,148.76z"/>
				</g>
			</g>
		</g>
		<g>
			<g>
				<path d="M60.19,47.19c1.42,0,1.42-1.65,0-1.65C58.77,45.54,58.77,47.19,60.19,47.19L60.19,47.19z"/>
			</g>
		</g>
		<g>
			<path class="st37" d="M90.84,97.59c-3.6,2.69-7.47,4.15-11.56,5.9c-2.3,0.99-5.51,1.57-7.93,0.76c-1.82-0.61-3.03-2.06-4.07-3.47
				C51.38,79.11,39.6,61.27,30.06,33.34c-1.51-4.41-1.26-9.27,0.52-13.57s6.25-8.06,11.66-8.3c4.14-0.19,8.15,1.69,11.01,4.25
				c2.87,2.56,4.77,5.76,6.58,8.93c13.08,22.99,23.12,46.52,32.08,72.78"/>
			<g>
				<path class="st37" d="M90.09,97.03c-3.34,2.48-7.52,4.25-11.64,5.9c-1.79,0.72-4.08,1.19-6.09,0.76
					c-2.05-0.44-3.19-1.99-4.16-3.3c-4.17-5.66-8.24-11.36-12.11-17.14c-3.73-5.58-7.25-11.24-10.44-17
					c-3.41-6.16-6.44-12.44-9.12-18.79c-1.47-3.5-2.84-7.02-4.12-10.55c-0.66-1.82-1.39-3.66-1.82-5.52
					c-0.43-1.83-0.54-3.71-0.39-5.57c0.26-3.39,1.33-6.91,3.99-9.72c2.2-2.32,5.68-4.13,9.63-3.81c4.48,0.37,8.06,3.05,10.4,5.74
					c2.67,3.06,4.45,6.54,6.31,9.9c3.78,6.8,7.32,13.68,10.62,20.62c3.34,7.01,6.44,14.08,9.34,21.19
					c3.01,7.39,5.81,14.82,8.45,22.29c0.66,1.87,1.31,3.74,1.95,5.62c0.34,0.99,2.39,0.57,2.05-0.42
					c-2.67-7.82-5.51-15.62-8.57-23.36c-2.93-7.42-6.08-14.8-9.47-22.12c-3.34-7.21-6.93-14.36-10.78-21.44
					c-1.9-3.49-3.73-7.05-6.03-10.41c-2.18-3.2-5.11-6.33-9.44-8.06c-3.88-1.55-8.37-1.55-12.07,0.3c-3.61,1.81-5.98,4.73-7.18,7.8
					c-1.45,3.71-1.76,7.66-0.96,11.47c0.41,1.97,1.19,3.89,1.88,5.82c0.67,1.85,1.36,3.7,2.08,5.54c2.64,6.77,5.66,13.46,9.11,20.03
					c3.2,6.1,6.75,12.09,10.58,17.98c3.87,5.95,8,11.8,12.23,17.62c2.02,2.78,3.94,6.6,8.74,7.01c2.29,0.19,4.67-0.35,6.66-1.17
					c2.08-0.86,4.16-1.73,6.16-2.69c2.05-0.98,3.98-2.1,5.71-3.38C92.57,97.43,91.06,96.31,90.09,97.03L90.09,97.03z"/>
			</g>
		</g>
		<g id="Ebene_9_8_">
			<g>
				<path class="st38" d="M92.3,98.5c2.63,7.95,7.13,14.94,9.76,22.89c0.25,0.74,1.15,2.38,0.99,3.13
					c-0.34,1.59-4.83,2.57-6.57,3.23c-2.1,0.8-5.46,2.91-7.62,2.18c-1.65-0.56-4.21-4.37-4.21-4.37
					c-5.08-6.53-8.66-13.13-13.74-19.66c8.14,0,14.73-4.46,21.43-7.82"/>
				<g>
					<path class="st38" d="M91.28,98.71c1.69,5.07,4.22,9.94,6.5,14.87c1.13,2.44,2.19,4.91,3.06,7.41
						c0.31,0.89,0.74,1.76,1.03,2.66c0.23,0.7,0.15,1.01-0.64,1.48c-1.64,0.96-3.76,1.3-5.56,2.04c-1.13,0.46-2.18,1.02-3.32,1.47
						c-0.81,0.33-2.02,0.84-2.97,0.57c-0.49-0.14-1.08-0.73-1.49-1.16c-0.59-0.63-1.12-1.28-1.63-1.95
						c-1.12-1.49-2.24-2.99-3.31-4.5c-3.78-5.34-7.05-10.88-11.11-16.11c-0.31,0.4-0.61,0.8-0.92,1.2
						c8.57-0.05,15.25-4.55,21.97-7.93c1.13-0.57,0.07-1.95-1.07-1.37c-6.34,3.19-12.8,7.67-20.9,7.71c-0.81,0-1.32,0.67-0.92,1.2
						c3.82,4.93,6.95,10.12,10.45,15.17c1.21,1.75,2.51,3.46,3.78,5.19c0.96,1.31,2.07,2.92,3.75,3.79c2.18,1.13,5.07-0.23,6.96-1.1
						c0.96-0.44,1.89-0.88,2.93-1.21c1.1-0.35,2.22-0.67,3.28-1.1c0.97-0.39,2-0.9,2.57-1.63c0.64-0.82,0.38-1.74,0.04-2.6
						c-0.9-2.32-1.74-4.66-2.73-6.96c-2.53-5.86-5.71-11.57-7.71-17.56C93,97.29,90.95,97.71,91.28,98.71L91.28,98.71z"/>
				</g>
			</g>
		</g>
		<g id="Ebene_4_7_">
			<g>
				<g>
					<path d="M117.04,138c-4.62-1.53-7.47-4.77-9.53-8.08c-2-3.22-3.31-6.65-4.66-10.04c-2.42-6.06-4.69-12.15-6.94-18.24
						c-2.47-6.69-4.9-13.39-7.4-20.08c-2.51-6.73-5.08-13.46-7.8-20.15c-2.56-6.28-5.25-12.53-8.24-18.7
						c-2.59-5.34-5.38-10.64-8.71-15.74c-2.56-3.93-5.43-7.82-9.21-11.18c-2.55-2.27-5.85-4.53-9.87-5.12
						c-3.83-0.56-7.53,0.58-10.38,2.48c-2.79,1.87-4.47,4.49-5.31,7.18c-1.03,3.31-1.01,6.78-0.57,10.14
						c0.55,4.21,1.74,8.37,3.21,12.46c1.7,4.72,3.8,9.36,6.1,13.93c2.51,5,5.27,9.93,8.18,14.81c2.96,4.98,6.09,9.9,9.32,14.78
						c3.12,4.72,6.35,9.4,9.65,14.05c2.99,4.22,6.04,8.41,9.14,12.58c2.54,3.42,5.11,6.83,7.69,10.23c1.81,2.39,3.64,4.77,5.42,7.16
						c0.54,0.72,1.07,1.45,1.58,2.18c0.16,0.24,0.32,0.47,0.47,0.71c0.03,0.04,0.05,0.09,0.08,0.13c0.08,0.13-0.11-0.23-0.03-0.06
						c0.23,0.54,0.48,1.07,0.68,1.61c1.68,4.41,1.7,8.97,0.71,13.47c-0.22,1,1.83,1.43,2.05,0.42c1.01-4.58,1.09-9.22-0.5-13.74
						c-0.39-1.12-0.83-2.19-1.53-3.21c-1.19-1.75-2.52-3.44-3.81-5.15c-2.18-2.87-4.36-5.74-6.53-8.61
						c-2.82-3.74-5.61-7.49-8.36-11.25c-3.2-4.38-6.34-8.79-9.41-13.23c-3.29-4.76-6.49-9.56-9.57-14.4
						c-3.09-4.86-6.07-9.76-8.84-14.73c-2.64-4.72-5.12-9.5-7.29-14.36c-1.95-4.36-3.68-8.78-4.93-13.29
						c-1.02-3.71-1.74-7.45-1.63-11.26c0.04-1.64,0.22-3.06,0.65-4.59c0.2-0.7,0.45-1.4,0.76-2.07c0.33-0.71,0.52-1.06,1-1.74
						c0.85-1.23,1.65-2.03,2.99-2.95c1.18-0.81,2.84-1.59,4.37-1.95c1.54-0.36,3.03-0.4,4.48-0.13c1.66,0.3,3.17,0.93,4.57,1.73
						c3.79,2.18,6.68,5.43,9.11,8.54c3.45,4.42,6.25,9.13,8.79,13.87c3.1,5.78,5.82,11.68,8.38,17.6c2.8,6.49,5.4,13.03,7.91,19.58
						c2.57,6.71,5.04,13.44,7.51,20.16c2.34,6.37,4.66,12.74,7.09,19.09c1.1,2.89,2.22,5.78,3.38,8.65
						c1.43,3.53,2.88,7.09,5.16,10.38c2.14,3.09,5.17,6.03,9.53,7.48C117.21,139.78,118.29,138.41,117.04,138L117.04,138z"/>
				</g>
			</g>
			<g>
				<g>
					<path d="M115.44,138.69c-1.08,6.21-0.63,12.64,1.13,18.75c0.49,1.7,1.1,3.37,1.85,5.01c0.16-0.3,0.33-0.6,0.49-0.9
						c-2,0.72-3.81,1.68-5.81,2.39c0.48,0.1,0.97,0.19,1.45,0.29c-3.29-5.76-9.23-10.36-16.25-13.68c-1.97-0.93-4.01-1.76-6.11-2.51
						c-1.23-0.44-2.31,0.93-1.07,1.37c7.12,2.54,13.76,6.11,18.25,11.03c1.32,1.44,2.43,2.98,3.35,4.59
						c0.24,0.42,0.99,0.45,1.45,0.29c2-0.72,3.81-1.68,5.81-2.39c0.4-0.14,0.63-0.59,0.49-0.9c-3.39-7.38-4.25-15.62-2.9-23.34
						c0.07-0.43-0.54-0.79-1.06-0.79C115.87,137.89,115.52,138.26,115.44,138.69L115.44,138.69z"/>
				</g>
			</g>
			<g>
				<g>
					<path d="M117.07,162.4c-1.66-3.2-3.34-6.41-4.83-9.66c-0.26-0.56-0.52-1.12-0.72-1.69c-0.02-0.07-0.05-0.14-0.07-0.22
						c-0.01-0.05-0.06-0.25-0.03-0.09c0.02,0.15-0.01-0.21-0.01-0.28c0-0.18,0.01-0.36,0.02-0.55c0.13-2.11,0.53-4.45-0.51-6.48
						c-0.51-0.99-1.43-1.86-2.88-2.11c-1.93-0.32-4.2,0.41-5.64,1.33c-2.06,1.32-1.65,3.31-0.27,4.84c1.87,2.06,4.71,3.61,7.44,4.98
						c1.14,0.57,2.21-0.81,1.07-1.37c-2.28-1.14-4.6-2.41-6.31-4.04c-0.97-0.92-1.96-2.24-0.56-3.2c0.7-0.47,1.66-0.78,2.57-0.95
						c0.56-0.1,1.01-0.12,1.5,0.02c-0.2-0.05,0.1,0.04,0.16,0.07c0.25,0.11,0.01-0.02,0.18,0.09c0.29,0.2,0.23,0.14,0.39,0.34
						c0.16,0.2,0.26,0.35,0.31,0.45c0.11,0.23,0.2,0.46,0.28,0.7c0.53,1.74,0.19,3.75,0.12,5.62c-0.04,0.98,0.4,1.87,0.81,2.78
						c1.5,3.31,3.22,6.56,4.91,9.82C115.51,163.76,117.57,163.35,117.07,162.4L117.07,162.4z"/>
				</g>
			</g>
			<g>
				<g>
					<path d="M102.71,124.1c-2.92,3.22-8.63,5.38-13.85,5.03c-1.36-0.09-1.35,1.5,0,1.59c5.97,0.41,12.37-2.16,15.68-5.82
						C105.32,124.05,103.47,123.25,102.71,124.1L102.71,124.1z"/>
				</g>
			</g>
			<g>
				<g>
					<path d="M92.26,96.12c-6.1,4.27-14.24,8.27-22.92,8.1c-1.37-0.03-1.37,1.56,0,1.59c9.25,0.17,17.91-4.01,24.42-8.57
						C94.76,96.54,93.25,95.42,92.26,96.12L92.26,96.12z"/>
				</g>
			</g>
		</g>
	</g>
</g>
<g id="Ebene_10_4_">
</g>
<g id="Ebene_8_6_">
</g>
<g id="Ebene_19_1_">
</g>
<g id="Ebene_23_1_">
</g>
<g id="Ebene_25">
</g>
<g id="Ebene_11_1_">
</g>
<g id="Ebene_12_1_">
</g>
</svg>
