<?xml version="1.0" encoding="utf-8"?>
<!-- Generator: Adobe Adobe Illustrator 24.2.0, SVG Export Plug-In . SVG Version: 6.00 Build 0)  -->
<svg version="1.1" xmlns="http://www.w3.org/2000/svg" xmlns:xlink="http://www.w3.org/1999/xlink" x="0px" y="0px"
	 viewBox="0 0 170.08 170.08" style="enable-background:new 0 0 170.08 170.08;" xml:space="preserve">
<style type="text/css">
	.st0{fill:#592F7D;}
	.st1{fill:#5A2F7C;}
	.st2{fill:#D3E1EB;}
	.st3{fill:#D3E1ED;}
	.st4{fill:#5C646E;stroke:#000000;stroke-width:2.7043;stroke-miterlimit:10;}
	.st5{fill:#B6D2E0;stroke:#000000;stroke-width:2.1378;stroke-miterlimit:10;}
	.st6{fill:#3D4D5B;}
	.st7{opacity:0.0784;}
	.st8{opacity:0.1216;}
	.st9{fill:#FFFFFF;}
	.st10{fill:#ECC9AD;}
	.st11{opacity:0.1608;}
	.st12{opacity:0.1686;}
	.st13{fill:#F0F6FA;}
	.st14{opacity:0.149;}
	.st15{opacity:0.0314;}
	.st16{stroke:#000000;stroke-width:0.0649;stroke-miterlimit:10;}
	.st17{fill:#F0F6FA;stroke:#F0F6FA;stroke-width:1.1522;stroke-miterlimit:10;}
	.st18{fill:#C8354F;}
	.st19{fill:#C93550;}
	.st20{fill:#6DB671;}
	.st21{fill:#6CB671;}
	.st22{fill:#D1DFEA;}
	.st23{fill:#C8354E;}
	.st24{fill:#F3C058;}
	.st25{fill:#C8AE9D;}
	.st26{opacity:0.1412;}
	.st27{fill:#D15238;}
	.st28{fill:#D15239;}
	.st29{opacity:0.9882;}
	.st30{fill:#ADBECF;}
	.st31{fill:#F3C057;}
	.st32{fill:#F7D98D;}
	.st33{fill:#AEBFCE;}
	.st34{opacity:0.2706;}
	.st35{fill:#3D4C5B;}
	.st36{fill:#D2E1EC;}
	.st37{fill:#59AEAA;stroke:#5AADAB;stroke-miterlimit:10;}
	.st38{fill:#592F7D;stroke:#592F7D;stroke-miterlimit:10;}
</style>
<g id="Ebene_6_11_">
</g>
<g id="Ebene_13_1_">
</g>
<g id="Ebene_9_6_">
</g>
<g id="Ebene_3">
	<g>
		<g id="Ebene_13">
			<g>
				<path class="st22" d="M25.57,50.02c0.28,3.01,0.56,6.01,0.84,9.02c6.55-1.75,13.11-3.5,19.66-5.25c0-2.27,0-4.54,0-6.81
					c0-0.62-0.02-1.3-0.42-1.69c-0.55-0.53-1.56-0.32-2.44-0.08c-5.79,1.59-11.58,3.18-17.37,4.77"/>
				<g>
					<path class="st3" d="M25.07,50.2c0.28,3.01,0.56,6.01,0.84,9.02c0.03,0.28,0.32,0.36,0.58,0.29c5.1-1.36,10.19-2.72,15.29-4.09
						c1.46-0.39,2.91-0.78,4.37-1.17c0.2-0.05,0.44-0.33,0.44-0.54c0-1.97,0-3.93,0-5.89c0-0.85,0.12-1.86-0.26-2.58
						c-0.36-0.67-1.1-0.88-1.92-0.8c-0.86,0.08-1.76,0.4-2.62,0.64c-1.04,0.29-2.08,0.57-3.12,0.86c-1.99,0.55-3.98,1.09-5.97,1.64
						c-2.31,0.63-4.61,1.27-6.92,1.9c-0.66,0.18-0.51,1.14,0.15,0.96c3.8-1.04,7.6-2.09,11.4-3.13c1.9-0.52,3.8-1.04,5.7-1.57
						c0.65-0.18,1.53-0.48,2.08-0.18c0.61,0.34,0.46,1.38,0.46,2.04c0,2.07,0,4.15,0,6.22c0.15-0.18,0.29-0.36,0.44-0.54
						c-5.1,1.36-10.19,2.72-15.29,4.09c-1.46,0.39-2.91,0.78-4.37,1.17c0.19,0.1,0.39,0.2,0.58,0.29c-0.28-3.01-0.56-6.01-0.84-9.02
						C26.02,49.2,25.01,49.58,25.07,50.2L25.07,50.2z"/>
				</g>
			</g>
		</g>
		<g id="Ebene_14">
			<g>
				<path class="st23" d="M25.94,48.81c6.58-1.54,13.15-3.29,19.71-5.23c1.17-2.35-0.38-3.9-0.04-6.84c0.27-2.43-3.3-2.88-5.67-2.9
					c-2.55-0.02-5.23,1.05-7.81,2.09c-1.87,0.76-3.85,1.6-5.22,3.2c-1.2,1.41-1.72,3.21-1.75,4.84c-0.04,1.64,0.36,3.16,0.75,4.65"
					/>
				<g>
					<path class="st23" d="M25.88,49.32c4.59-1.08,9.18-2.25,13.76-3.52c1.15-0.32,2.29-0.64,3.44-0.97
						c0.57-0.16,1.15-0.33,1.72-0.5c0.26-0.08,0.53-0.15,0.79-0.23c0.33-0.11,0.46-0.27,0.6-0.59c0.75-1.64,0.25-3.13,0.01-4.6
						c-0.07-0.42-0.12-0.84-0.13-1.28c-0.01-0.45,0.08-0.92,0.06-1.37c-0.03-0.73-0.39-1.32-0.91-1.73
						c-1.19-0.92-2.92-1.13-4.53-1.19c-1.88-0.07-3.76,0.31-5.68,0.97c-0.97,0.34-1.94,0.72-2.9,1.12c-1.02,0.42-2.05,0.84-3.04,1.4
						c-1.93,1.1-3.41,2.76-4.03,4.82c-0.61,2.02-0.4,3.95,0.02,5.76c0.11,0.47,0.23,0.93,0.35,1.4c0.15,0.59,1.17,0.22,1.02-0.37
						c-0.6-2.29-1.26-4.8-0.14-7.43c1.19-2.79,4.13-3.89,6.64-4.89c2.48-1,4.97-1.86,7.44-1.76c1.06,0.04,2.15,0.15,3.1,0.5
						c0.76,0.27,1.59,0.73,1.65,1.65c0.02,0.3-0.05,0.62-0.06,0.92c-0.01,0.35,0,0.69,0.03,1.03c0.05,0.6,0.17,1.18,0.29,1.76
						c0.21,1.07,0.37,2.11-0.2,3.28c0.13-0.13,0.27-0.27,0.41-0.41c-5.06,1.5-10.13,2.88-15.21,4.14c-1.46,0.36-2.91,0.71-4.37,1.06
						c-0.28,0.07-0.53,0.27-0.57,0.57C25.4,49.12,25.6,49.39,25.88,49.32L25.88,49.32z"/>
				</g>
			</g>
		</g>
		<g id="Ebene_15">
			<g>
				<path class="st24" d="M26.26,59.99c1.33,26.35,1.96,54.21,2.17,80.84c1.03-1.15,2.38-3.1,3.41-4.25c1.15,1.05,3.6,2.64,3.6,2.64
					s2.69-3.02,3.64-4.33c1.23,1.03,2.2,1.83,3.56,2.49c1.08-1.32,3.07-4.2,3.07-4.2s1.3,0.89,2.99,1.99
					c-0.95-26.56-1.48-53.65-2.45-80.93c-6.2,1.43-13.42,3.56-19.77,5.39"/>
				<g>
					<path class="st24" d="M25.75,60.17c0.26,5.17,0.49,10.35,0.7,15.53c0.21,5.27,0.39,10.54,0.55,15.83
						c0.16,5.28,0.3,10.56,0.42,15.85c0.12,5.27,0.22,10.55,0.3,15.83c0.08,5.23,0.14,10.47,0.19,15.71
						c0.01,0.65,0.01,1.31,0.02,1.96c0,0.38,0.47,0.67,0.83,0.26c1.21-1.36,2.2-2.88,3.41-4.25c-0.24,0.03-0.48,0.05-0.72,0.08
						c1.13,1.02,2.42,1.88,3.7,2.71c0.16,0.1,0.47,0.02,0.62-0.15c1.28-1.44,2.61-2.89,3.73-4.44c-0.27,0.07-0.54,0.13-0.82,0.2
						c1.14,0.95,2.3,1.89,3.66,2.56c0.16,0.08,0.47,0.04,0.62-0.15c1.13-1.39,2.15-2.86,3.16-4.32c-0.24,0.09-0.48,0.18-0.72,0.27
						c0.98,0.68,1.98,1.34,2.99,1.99c0.37,0.24,0.82-0.28,0.81-0.66c-0.19-5.21-0.36-10.43-0.51-15.64
						c-0.16-5.22-0.31-10.45-0.46-15.67c-0.15-5.28-0.29-10.56-0.44-15.84c-0.15-5.28-0.3-10.56-0.46-15.84
						c-0.16-5.33-0.33-10.65-0.52-15.97c-0.02-0.65-0.05-1.31-0.07-1.96c-0.01-0.2-0.24-0.37-0.45-0.33
						c-5.19,1.2-10.37,2.67-15.54,4.16c-1.45,0.42-2.91,0.84-4.36,1.26c-0.66,0.19-0.51,1.15,0.15,0.96
						c5.14-1.48,10.27-2.99,15.42-4.32c1.41-0.36,2.81-0.71,4.22-1.03c-0.15-0.11-0.3-0.22-0.45-0.33
						c0.19,5.32,0.36,10.65,0.53,15.98c0.16,5.28,0.31,10.56,0.46,15.85c0.15,5.28,0.29,10.57,0.44,15.85
						c0.15,5.23,0.29,10.46,0.45,15.69c0.16,5.22,0.32,10.44,0.51,15.66c0.02,0.64,0.04,1.27,0.07,1.91
						c0.27-0.22,0.54-0.44,0.81-0.66c-1-0.65-2-1.31-2.99-1.99c-0.21-0.14-0.56,0.05-0.72,0.27c-0.95,1.38-1.91,2.77-2.97,4.08
						c0.21-0.05,0.41-0.1,0.62-0.15c-1.29-0.63-2.38-1.51-3.46-2.42c-0.24-0.2-0.59-0.11-0.82,0.2c-1.07,1.47-2.33,2.85-3.54,4.21
						c0.21-0.05,0.41-0.1,0.62-0.15c-1.22-0.79-2.44-1.6-3.5-2.57c-0.17-0.15-0.51-0.16-0.72,0.08c-1.21,1.36-2.2,2.88-3.41,4.25
						c0.28,0.09,0.55,0.17,0.83,0.26c-0.04-5.25-0.1-10.49-0.17-15.73c-0.08-5.3-0.17-10.59-0.28-15.87
						c-0.11-5.32-0.25-10.63-0.4-15.93c-0.16-5.29-0.33-10.57-0.54-15.85c-0.2-5.22-0.43-10.43-0.68-15.64
						c-0.03-0.65-0.06-1.3-0.1-1.94C26.74,59.17,25.72,59.54,25.75,60.17L25.75,60.17z"/>
				</g>
			</g>
		</g>
		<g id="Ebene_16">
			<g>
				<path class="st25" d="M29.05,141.32c1.29,0.9,1.95,2.44,2.71,3.84c0.76,1.4,1.76,2.77,3.39,3.11c1.23,0.25,2.64-0.13,3.98-0.51
					c1.4-0.39,2.85-0.81,4.07-1.75c1.59-1.21,2.53-3.08,3.23-4.87c0.7-1.79,1.27-3.65,2.45-5.26c-0.97-0.76-1.94-1.53-2.9-2.29
					c-1.15,1.52-2.29,3.04-3.44,4.56c-1.12-0.96-2.24-1.92-3.36-2.88c-1.29,1.53-2.57,3.07-3.86,4.6c-0.83-1.06-1.98-1.86-3.32-2.29
					c-0.89,1.11-1.78,2.23-2.67,3.35"/>
				<g>
					<path class="st25" d="M28.65,141.72c1.56,1.12,2.14,3.07,3.17,4.64c0.96,1.46,2.3,2.56,4.31,2.5c0.9-0.03,1.84-0.27,2.75-0.53
						c0.98-0.27,1.98-0.54,2.94-0.98c0.98-0.45,1.89-1.06,2.65-1.89c0.78-0.86,1.36-1.83,1.84-2.84c1.04-2.17,1.53-4.5,2.99-6.54
						c0.13-0.18,0.13-0.49-0.01-0.6c-0.97-0.76-1.94-1.53-2.9-2.29c-0.25-0.19-0.58-0.11-0.82,0.2c-1.15,1.52-2.29,3.04-3.44,4.56
						c0.27-0.07,0.54-0.13,0.82-0.2c-1.12-0.96-2.24-1.92-3.36-2.88c-0.17-0.15-0.52-0.16-0.72,0.08c-1.29,1.53-2.57,3.07-3.86,4.6
						c0.24-0.03,0.48-0.05,0.72-0.08c-0.87-1.09-2.04-1.9-3.41-2.36c-0.27-0.09-0.51,0.01-0.72,0.27c-0.89,1.11-1.78,2.23-2.67,3.35
						c-0.19,0.24-0.09,0.58,0.11,0.67c0.25,0.12,0.53-0.03,0.72-0.27c0.89-1.11,1.78-2.23,2.67-3.35c-0.24,0.09-0.48,0.18-0.72,0.27
						c1.3,0.43,2.39,1.18,3.22,2.22c0.14,0.18,0.54,0.14,0.72-0.08c1.29-1.53,2.57-3.07,3.86-4.6c-0.24,0.03-0.48,0.05-0.72,0.08
						c1.12,0.96,2.24,1.92,3.36,2.88c0.24,0.2,0.59,0.1,0.82-0.2c1.15-1.52,2.29-3.04,3.44-4.56c-0.27,0.07-0.54,0.13-0.82,0.2
						c0.97,0.76,1.94,1.53,2.9,2.29c0-0.2-0.01-0.4-0.01-0.6c-1.23,1.72-1.82,3.65-2.56,5.51c-0.74,1.86-1.77,3.82-3.64,4.9
						c-0.87,0.51-1.82,0.8-2.74,1.06c-0.84,0.24-1.69,0.5-2.53,0.62c-0.88,0.13-1.71,0.08-2.43-0.28c-0.73-0.37-1.29-0.98-1.74-1.65
						c-1.12-1.65-1.72-3.73-3.37-4.92c-0.2-0.14-0.48-0.15-0.72,0.08C28.54,141.2,28.45,141.58,28.65,141.72L28.65,141.72z"/>
				</g>
			</g>
		</g>
		<g id="Ebene_17">
			<g>
				<path d="M35.17,149.51c1.43,1.98,2.86,3.96,4.28,5.94c0.84-2.84,2.17-5.65,3.91-8.24c-2.68,0.66-5.36,1.32-8.04,1.99"/>
				<g>
					<path d="M34.77,149.91c1.43,1.98,2.86,3.96,4.28,5.94c0.2,0.28,0.77,0.03,0.88-0.33c0.83-2.81,2.13-5.55,3.85-8.11
						c0.3-0.44-0.08-0.78-0.49-0.68c-2.68,0.66-5.36,1.32-8.04,1.99c-0.28,0.07-0.47,0.43-0.43,0.66c0.04,0.29,0.31,0.36,0.58,0.29
						c2.68-0.66,5.36-1.32,8.04-1.99c-0.16-0.23-0.33-0.45-0.49-0.68c-1.77,2.63-3.12,5.48-3.98,8.37c0.29-0.11,0.59-0.22,0.88-0.33
						c-1.43-1.98-2.86-3.96-4.28-5.94c-0.14-0.2-0.52-0.12-0.72,0.08C34.61,149.43,34.63,149.71,34.77,149.91L34.77,149.91z"/>
				</g>
			</g>
		</g>
		<g id="Ebene_12">
			<g>
				<g>
					<path d="M28.79,140.26c-0.22-6.51-0.44-13.03-0.66-19.54c-0.22-6.49-0.44-12.97-0.66-19.46c-0.22-6.51-0.44-13.03-0.66-19.54
						c-0.22-6.49-0.44-12.97-0.66-19.46c-0.22-6.51-0.44-13.03-0.66-19.54c-0.03-0.8-0.05-1.6-0.08-2.4
						c-0.02-0.64-1.04-0.26-1.02,0.37c0.22,6.51,0.44,13.03,0.66,19.54c0.22,6.49,0.44,12.97,0.66,19.46
						c0.22,6.51,0.44,13.03,0.66,19.54c0.22,6.49,0.44,12.97,0.66,19.46c0.22,6.51,0.44,13.03,0.66,19.54
						c0.03,0.8,0.05,1.6,0.08,2.4C27.8,141.27,28.81,140.9,28.79,140.26L28.79,140.26z"/>
				</g>
			</g>
			<g>
				<g>
					<path d="M49.61,135.38c-0.21-6.52-0.41-13.03-0.62-19.55c-0.21-6.52-0.41-13.03-0.62-19.55c-0.21-6.52-0.41-13.03-0.62-19.55
						c-0.21-6.52-0.41-13.03-0.62-19.55c-0.21-6.52-0.41-13.03-0.62-19.55c-0.03-0.8-0.05-1.6-0.08-2.4
						c-0.02-0.64-1.04-0.26-1.02,0.37c0.21,6.52,0.41,13.03,0.62,19.55s0.41,13.03,0.62,19.55s0.41,13.03,0.62,19.55
						c0.21,6.52,0.41,13.03,0.62,19.55c0.21,6.52,0.41,13.03,0.62,19.55c0.03,0.8,0.05,1.6,0.08,2.4
						C48.61,136.39,49.63,136.01,49.61,135.38L49.61,135.38z"/>
				</g>
			</g>
			<g>
				<g>
					<path d="M25.24,40.83c4.5-4.53,10.65-6.96,16.1-6.32c1.47,0.17,2.85,0.55,4.12,1.14c0.54,0.25,1.15-0.7,0.6-0.94
						c-4.92-2.26-11.36-1.55-16.94,1.89c-1.63,1-3.16,2.23-4.52,3.6C24.09,40.71,24.73,41.35,25.24,40.83L25.24,40.83z"/>
				</g>
			</g>
			<g>
				<g>
					<path d="M25.55,50.14c5.29-1.34,10.58-2.68,15.86-4.02c1.5-0.38,3.01-0.76,4.51-1.14c0.28-0.07,0.47-0.43,0.43-0.66
						c-0.04-0.28-0.31-0.36-0.58-0.29c-5.29,1.34-10.58,2.68-15.86,4.02c-1.5,0.38-3.01,0.76-4.51,1.14
						c-0.28,0.07-0.47,0.43-0.43,0.66C25.01,50.13,25.28,50.21,25.55,50.14L25.55,50.14z"/>
				</g>
			</g>
			<g>
				<g>
					<path d="M25.81,59.94c5.33-1.36,10.66-2.72,15.99-4.08c1.5-0.38,3.01-0.77,4.51-1.15c0.28-0.07,0.47-0.43,0.43-0.66
						c-0.04-0.28-0.31-0.36-0.58-0.29c-5.33,1.36-10.66,2.72-15.99,4.08c-1.5,0.38-3.01,0.77-4.51,1.15
						c-0.28,0.07-0.47,0.43-0.43,0.66C25.27,59.93,25.53,60.01,25.81,59.94L25.81,59.94z"/>
				</g>
			</g>
			<g>
				<g>
					<path d="M28.82,56.46c-0.04-1.66-0.07-3.33-0.11-4.99c-0.01-0.27-0.33-0.38-0.58-0.29c-0.3,0.11-0.44,0.4-0.43,0.66
						c0.04,1.66,0.07,3.33,0.11,4.99c0.01,0.27,0.33,0.38,0.58,0.29C28.69,57.02,28.83,56.73,28.82,56.46L28.82,56.46z"/>
				</g>
			</g>
			<g>
				<g>
					<path d="M32.17,55.66c-0.04-1.66-0.07-3.33-0.11-4.99c-0.01-0.27-0.33-0.38-0.58-0.29c-0.3,0.11-0.44,0.4-0.43,0.66
						c0.04,1.66,0.07,3.33,0.11,4.99c0.01,0.27,0.33,0.38,0.58,0.29C32.04,56.22,32.18,55.93,32.17,55.66L32.17,55.66z"/>
				</g>
			</g>
			<g>
				<g>
					<path d="M36.01,54.62c-0.04-1.66-0.07-3.33-0.11-4.99c-0.01-0.27-0.33-0.38-0.58-0.29c-0.3,0.11-0.44,0.4-0.43,0.66
						c0.04,1.66,0.07,3.33,0.11,4.99c0.01,0.27,0.33,0.38,0.58,0.29C35.88,55.18,36.01,54.89,36.01,54.62L36.01,54.62z"/>
				</g>
			</g>
			<g>
				<g>
					<path d="M39.37,53.81c-0.04-1.66-0.07-3.33-0.11-4.99c-0.01-0.27-0.33-0.38-0.58-0.29c-0.3,0.11-0.44,0.4-0.43,0.66
						c0.04,1.66,0.07,3.33,0.11,4.99c0.01,0.27,0.33,0.38,0.58,0.29C39.24,54.36,39.38,54.07,39.37,53.81L39.37,53.81z"/>
				</g>
			</g>
			<g>
				<g>
					<path d="M42.84,52.89c-0.04-1.66-0.07-3.33-0.11-4.99c-0.01-0.27-0.33-0.38-0.58-0.29c-0.3,0.11-0.44,0.4-0.43,0.66
						c0.04,1.66,0.07,3.33,0.11,4.99c0.01,0.27,0.33,0.38,0.58,0.29C42.71,53.44,42.85,53.15,42.84,52.89L42.84,52.89z"/>
				</g>
			</g>
			<g>
				<g>
					<path d="M29.09,141.27c1.06-1.39,2.12-2.8,3.18-4.19c-0.27,0.07-0.54,0.13-0.82,0.2c1.22,0.92,2.44,1.84,3.7,2.71
						c0.15,0.1,0.48,0.02,0.62-0.15c1.27-1.56,2.55-3.12,3.72-4.75c-0.27,0.07-0.54,0.13-0.82,0.2c1.08,0.97,2.34,1.74,3.42,2.71
						c0.22,0.2,0.61,0.12,0.82-0.2c0.98-1.53,2.23-2.89,3.21-4.42c-0.24,0.09-0.48,0.18-0.72,0.27c1.2,0.71,2.25,1.61,3.39,2.39
						c0.2,0.14,0.57-0.04,0.72-0.27c0.18-0.28,0.09-0.53-0.11-0.67c-1.14-0.78-2.19-1.68-3.39-2.39c-0.21-0.13-0.56,0.03-0.72,0.27
						c-0.98,1.53-2.23,2.89-3.21,4.42c0.27-0.07,0.54-0.13,0.82-0.2c-1.08-0.97-2.34-1.74-3.42-2.71c-0.23-0.21-0.6-0.11-0.82,0.2
						c-1.11,1.55-2.33,3.03-3.53,4.51c0.21-0.05,0.41-0.1,0.62-0.15c-1.19-0.82-2.35-1.69-3.5-2.57c-0.25-0.19-0.58-0.12-0.82,0.2
						c-1.06,1.39-2.12,2.8-3.18,4.19C27.82,141.45,28.65,141.85,29.09,141.27L29.09,141.27z"/>
				</g>
			</g>
			<g>
				<g>
					<path d="M27.87,141.39c2.92,4.06,5.9,8.07,8.84,12.11c0.82,1.12,1.64,2.25,2.45,3.38c0.22,0.31,0.73,0,0.88-0.33
						c2.54-5.42,5.01-10.86,7.52-16.29c0.7-1.51,1.4-3.01,2.1-4.52c0.13-0.27-0.05-0.54-0.29-0.58c-0.28-0.05-0.54,0.17-0.66,0.43
						c-2.54,5.42-5.01,10.86-7.52,16.29c-0.7,1.51-1.4,3.01-2.1,4.52c0.29-0.11,0.59-0.22,0.88-0.33c-2.92-4.06-5.9-8.07-8.84-12.11
						c-0.82-1.12-1.64-2.25-2.45-3.38c-0.14-0.2-0.52-0.12-0.72,0.08C27.71,140.91,27.73,141.19,27.87,141.39L27.87,141.39z"/>
				</g>
			</g>
			<g>
				<g>
					<path d="M35.05,149.64c3.05-0.89,6.1-1.66,9.15-2.55c0.66-0.19,0.51-1.15-0.15-0.96c-3.05,0.89-6.1,1.66-9.15,2.55
						C34.24,148.88,34.4,149.83,35.05,149.64L35.05,149.64z"/>
				</g>
			</g>
		</g>
		<g id="Ebene_18">
			<g class="st7">
				<path d="M26.91,39.14c0.76,16.81,1.37,35.63,4.39,51.69s8.34,31.4,17.6,43.73c-0.89-0.68-2.37-1.27-3.26-1.95
					c-1.29,1.71-1.88,2.59-2.99,4.75c-1.76-1.54-3.41-2.91-3.41-2.91s-2.13,2.47-3.97,4.75c-1.29-1.03-3.42-2.63-3.42-2.63
					s-2.46,3.01-3.41,4.25C26.9,107.8,26.7,73.56,25.15,40.28C25.39,40.6,26.67,38.83,26.91,39.14"/>
				<g>
					<path d="M26.4,39.33c0.3,6.74,0.57,13.5,0.97,20.21c0.4,6.87,0.92,13.7,1.74,20.44c0.79,6.5,1.9,12.89,3.41,19.1
						c1.51,6.21,3.42,12.24,5.84,17.99c2.4,5.71,5.31,11.13,8.81,16.08c0.43,0.61,0.87,1.22,1.32,1.82c0.27-0.27,0.54-0.54,0.8-0.8
						c-1.01-0.75-2.25-1.2-3.26-1.95c-0.25-0.19-0.58-0.12-0.82,0.2c-1.16,1.53-2.13,3.08-2.99,4.75c0.27-0.07,0.54-0.13,0.82-0.2
						c-1.13-0.98-2.26-1.96-3.41-2.91c-0.17-0.14-0.51-0.16-0.72,0.08c-1.35,1.56-2.67,3.14-3.97,4.75
						c0.24-0.03,0.48-0.05,0.72-0.08c-1.13-0.89-2.27-1.76-3.42-2.63c-0.18-0.13-0.51-0.18-0.72,0.08c-1.18,1.44-2.37,2.89-3.5,4.37
						c0.31,0.01,0.62,0.01,0.92,0.02c-0.3-6.48-0.55-12.96-0.77-19.46c-0.22-6.54-0.4-13.09-0.58-19.64
						c-0.18-6.57-0.34-13.15-0.51-19.73c-0.17-6.57-0.36-13.15-0.57-19.71c-0.21-6.54-0.45-13.08-0.74-19.6
						c-0.04-0.8-0.07-1.6-0.11-2.4c-0.3,0.2-0.61,0.39-0.91,0.59c0.34,0.31,0.81,0.05,1.19-0.27c0.19-0.16,0.37-0.34,0.55-0.52
						c0.08-0.08,0.2-0.16,0.27-0.25c0.2-0.26,0.2,0.32-0.26-0.11c0.43,0.39,1.23-0.41,0.8-0.8c-0.34-0.31-0.81-0.05-1.19,0.27
						c-0.19,0.16-0.37,0.34-0.55,0.52c-0.08,0.08-0.2,0.16-0.27,0.25c-0.2,0.26-0.2-0.32,0.26,0.11c-0.35-0.32-0.93,0.11-0.91,0.59
						c0.3,6.52,0.55,13.04,0.77,19.58c0.22,6.56,0.41,13.13,0.58,19.7c0.18,6.57,0.34,13.15,0.51,19.73
						c0.17,6.56,0.35,13.11,0.57,19.66c0.21,6.51,0.45,13,0.74,19.49c0.04,0.8,0.07,1.59,0.11,2.39c0.02,0.48,0.66,0.36,0.92,0.02
						c1.07-1.4,2.19-2.76,3.31-4.13c-0.24,0.03-0.48,0.05-0.72,0.08c1.15,0.86,2.3,1.74,3.42,2.63c0.17,0.14,0.52,0.17,0.72-0.08
						c1.29-1.6,2.62-3.18,3.97-4.75c-0.24,0.03-0.48,0.05-0.72,0.08c1.15,0.96,2.29,1.93,3.41,2.91c0.2,0.17,0.64,0.14,0.82-0.2
						c0.87-1.67,1.84-3.22,2.99-4.75c-0.27,0.07-0.54,0.13-0.82,0.2c1.01,0.75,2.25,1.2,3.26,1.95c0.47,0.35,1.16-0.33,0.8-0.8
						c-3.62-4.84-6.65-10.16-9.16-15.78c-2.52-5.65-4.52-11.6-6.11-17.74c-1.59-6.14-2.78-12.46-3.63-18.89
						c-0.88-6.65-1.44-13.4-1.87-20.19c-0.42-6.69-0.71-13.43-1-20.15c-0.04-0.82-0.07-1.64-0.11-2.46
						C27.39,38.32,26.37,38.69,26.4,39.33L26.4,39.33z"/>
				</g>
			</g>
			<g class="st7">
				<path d="M30.3,139.71c5.4,9.65,11.78,9.58,11.78,9.58s-3.3,4.56-2.71,6.42c-3.88-4.72-7.63-9.8-10.61-15.22"/>
				<g>
					<path d="M29.83,140.01c1.66,2.95,3.73,5.65,6.49,7.6c1.38,0.97,2.96,1.78,4.73,2.1c0.32,0.06,0.64,0.1,0.97,0.1
						c-0.12-0.24-0.24-0.47-0.36-0.71c-0.61,0.84-1.15,1.72-1.63,2.62c-0.67,1.25-1.54,2.95-1.17,4.2c0.3-0.2,0.61-0.39,0.91-0.59
						c-3.04-3.69-5.93-7.52-8.48-11.61c-0.72-1.15-1.4-2.32-2.06-3.51c-0.28-0.52-1.23,0.09-0.94,0.6c2.36,4.3,5.15,8.3,8.12,12.13
						c0.84,1.08,1.69,2.14,2.56,3.19c0.27,0.33,1.04-0.14,0.91-0.59c-0.31-1.04,0.5-2.55,1.09-3.63c0.46-0.82,0.96-1.64,1.52-2.41
						c0.27-0.38-0.01-0.71-0.36-0.71c0.16,0,0.06,0-0.06-0.01c-0.17-0.01-0.33-0.03-0.5-0.06c-0.26-0.04-0.52-0.1-0.77-0.16
						c-0.07-0.02-0.14-0.04-0.21-0.06c-0.04-0.01-0.08-0.02-0.13-0.04c-0.1-0.03,0.03,0.01-0.05-0.01
						c-0.18-0.06-0.36-0.12-0.53-0.18c-2.18-0.82-4-2.23-5.54-3.87c-1.4-1.49-2.57-3.18-3.58-4.99
						C30.49,138.9,29.54,139.5,29.83,140.01L29.83,140.01z"/>
				</g>
			</g>
		</g>
		<g id="Ebene_19">
			<g class="st26">
				<g>
					<path class="st9" d="M40.59,59.83c0.27,7.39,0.55,14.78,0.82,22.18c0.27,7.39,0.55,14.78,0.82,22.18
						c0.15,4.18,0.31,8.36,0.46,12.54c0.03,0.69,0.88,1.06,1.55,0.78c0.8-0.32,1.19-1.03,1.16-1.77
						c-0.27-7.39-0.55-14.78-0.82-22.18c-0.27-7.39-0.55-14.78-0.82-22.18c-0.15-4.18-0.31-8.36-0.46-12.54
						c-0.03-0.69-0.88-1.06-1.55-0.78C40.96,58.38,40.57,59.09,40.59,59.83L40.59,59.83z"/>
				</g>
			</g>
			<g class="st26">
				<g>
					<path class="st9" d="M44.44,143.06c0.7-1.68,1.39-3.35,2.09-5.03c0.29-0.7-0.11-1.48-0.78-1.55c-0.73-0.08-1.46,0.41-1.77,1.16
						c-0.7,1.68-1.39,3.35-2.09,5.03c-0.29,0.7,0.11,1.48,0.78,1.55C43.4,144.3,44.13,143.81,44.44,143.06L44.44,143.06z"/>
				</g>
			</g>
			<g class="st26">
				<g>
					<path class="st9" d="M34.53,39.44c0.45-0.35,0.96-0.73,1.47-0.94c-0.37,0.16,0.07-0.03,0.14-0.06
						c0.13-0.06,0.26-0.11,0.39-0.16c0.27-0.1,0.53-0.18,0.8-0.25c0.15-0.04,0.13-0.03-0.05,0.01c0.07-0.01,0.13-0.03,0.2-0.04
						c0.13-0.03,0.27-0.05,0.4-0.06c0.23-0.03,0.46-0.05,0.69-0.06c0.07,0,0.13,0,0.2,0c-0.18,0-0.19,0-0.05,0
						c0.13,0.01,0.26,0.02,0.38,0.03c0.25,0.03,0.5,0.07,0.74,0.13c0.06,0.02,0.12,0.03,0.18,0.05c-0.16-0.05-0.17-0.05-0.04-0.01
						c0.12,0.05,0.25,0.09,0.36,0.14c0.24,0.11,0.46,0.24,0.68,0.37c0.12,0.08,0.11,0.07-0.03-0.03c0.05,0.04,0.1,0.08,0.15,0.12
						c0.07,0.06,0.15,0.12,0.22,0.19c0.19,0.17,0.36,0.35,0.52,0.55c0.04,0.05,0.08,0.1,0.12,0.15c-0.09-0.14-0.1-0.15-0.02-0.03
						c0.07,0.11,0.14,0.22,0.2,0.33c0.13,0.22,0.23,0.46,0.33,0.71c0.02,0.06,0.04,0.12,0.07,0.19c-0.05-0.15-0.05-0.16-0.01-0.03
						c0.03,0.13,0.07,0.26,0.09,0.39c0.05,0.26,0.08,0.54,0.1,0.81c0.04,0.69,0.87,1.06,1.55,0.78c0.78-0.32,1.2-1.03,1.16-1.77
						c-0.12-2.15-1.26-3.93-2.95-4.96c-1.62-0.99-3.79-1.06-5.88-0.43c-1.11,0.33-2.23,0.91-3.19,1.66
						c-0.62,0.48-1.07,1.29-0.72,1.91C33.02,39.66,33.86,39.96,34.53,39.44L34.53,39.44z"/>
				</g>
			</g>
			<g class="st26">
				<g>
					<path class="st9" d="M41.82,150.72c0.11-0.32,0.23-0.65,0.34-0.97c0.12-0.34,0.12-0.72-0.02-1c-0.13-0.27-0.44-0.51-0.77-0.55
						c-0.7-0.07-1.5,0.4-1.77,1.16c-0.11,0.32-0.23,0.65-0.34,0.97c-0.12,0.34-0.12,0.72,0.02,1c0.13,0.27,0.44,0.51,0.77,0.55
						C40.74,151.95,41.55,151.48,41.82,150.72L41.82,150.72z"/>
				</g>
			</g>
		</g>
	</g>
	<g>
		<g id="Ebene_5_9_">
			<g>
				<path class="st36" d="M103.64,126.82c2.08,5.25,6.72,9.76,12.59,12.25c-0.99,7.46-0.12,15.11,2.53,22.31
					c-0.42,1.68-3.11,2.27-4.99,1.58s-3.14-2.19-4.42-3.54c-4.33-4.57-9.99-8.24-16.32-10.6c1.01-6.05-0.22-12.37-3.49-17.87
					c4.84-0.38,9.56-1.69,13.71-3.79"/>
				<g>
					<path class="st36" d="M102.62,127.03c2.11,5.24,6.68,9.98,13.08,12.72c-0.18-0.23-0.35-0.46-0.53-0.69
						c-0.98,7.54-0.1,15.21,2.57,22.53c0-0.14,0-0.28,0-0.42c-0.33,1.14-2.07,1.56-3.43,1.11c-1.92-0.64-3.08-2.26-4.26-3.48
						c-2.76-2.87-6.05-5.42-9.82-7.55c-2.09-1.18-4.32-2.22-6.67-3.1c0.18,0.23,0.35,0.46,0.53,0.69c1.01-6.2-0.27-12.55-3.63-18.27
						c-0.31,0.4-0.61,0.8-0.92,1.2c5.11-0.42,9.97-1.75,14.24-3.89c1.13-0.57,0.07-1.95-1.07-1.37c-3.94,1.98-8.44,3.29-13.17,3.68
						c-0.85,0.07-1.26,0.61-0.92,1.2c3.21,5.46,4.3,11.56,3.34,17.46c-0.04,0.26,0.23,0.58,0.53,0.69
						c3.79,1.42,7.26,3.25,10.32,5.44c1.57,1.12,3.03,2.33,4.38,3.61c1.27,1.21,2.32,2.55,3.7,3.69c1.22,1.01,2.86,1.85,4.75,1.78
						c1.7-0.06,3.3-0.75,3.95-1.95c0.44-0.82-0.05-1.61-0.32-2.42c-0.3-0.91-0.57-1.82-0.82-2.74c-0.48-1.81-0.85-3.63-1.1-5.46
						c-0.57-4.12-0.58-8.27-0.05-12.4c0.04-0.27-0.23-0.56-0.53-0.69c-5.93-2.54-10.15-6.92-12.11-11.77
						C104.28,125.63,102.22,126.05,102.62,127.03L102.62,127.03z"/>
				</g>
			</g>
		</g>
		<g id="Ebene_7_5_">
			<g>
				<path class="st35" d="M109.05,148.76c0.06-1.51,1.94-3.82,0.88-5.06s-5.49-0.93-6.39,0.37c-0.85,1.23,0.4,2.8,1.85,3.56
					s3.21,1.19,4.26,2.32"/>
				<g>
					<path class="st6" d="M110.12,148.76c0.1-1.43,1.26-2.73,1.2-4.19c-0.05-1.39-1.38-2.2-3.13-2.39
						c-1.62-0.17-3.51,0.04-4.81,0.83c-1.63,0.99-1.35,2.77-0.27,3.96c0.7,0.77,1.62,1.31,2.69,1.78c1.04,0.45,2.21,0.85,2.94,1.6
						c0.34,0.35,0.92,0.51,1.45,0.29c0.46-0.2,0.72-0.74,0.38-1.09c-0.74-0.75-1.67-1.29-2.74-1.76c-0.91-0.4-1.89-0.74-2.6-1.34
						c-0.56-0.48-1.13-1.24-0.81-1.89c0.19-0.39,0.84-0.59,1.42-0.71c1.01-0.21,3.19-0.35,3.36,0.61c0.11,0.65-0.26,1.37-0.51,1.97
						c-0.31,0.76-0.63,1.52-0.69,2.32C107.92,149.78,110.05,149.78,110.12,148.76L110.12,148.76z"/>
				</g>
			</g>
		</g>
		<g>
			<g>
				<path d="M60.19,47.19c1.42,0,1.42-1.65,0-1.65C58.77,45.54,58.77,47.19,60.19,47.19L60.19,47.19z"/>
			</g>
		</g>
		<g>
			<path class="st37" d="M90.84,97.59c-3.6,2.69-7.47,4.15-11.56,5.9c-2.3,0.99-5.51,1.57-7.93,0.76c-1.82-0.61-3.03-2.06-4.07-3.47
				C51.38,79.11,39.6,61.27,30.06,33.34c-1.51-4.41-1.26-9.27,0.52-13.57s6.25-8.06,11.66-8.3c4.14-0.19,8.15,1.69,11.01,4.25
				c2.87,2.56,4.77,5.76,6.58,8.93c13.08,22.99,23.12,46.52,32.08,72.78"/>
			<g>
				<path class="st37" d="M90.09,97.03c-3.34,2.48-7.52,4.25-11.64,5.9c-1.79,0.72-4.08,1.19-6.09,0.76
					c-2.05-0.44-3.19-1.99-4.16-3.3c-4.17-5.66-8.24-11.36-12.11-17.14c-3.73-5.58-7.25-11.24-10.44-17
					c-3.41-6.16-6.44-12.44-9.12-18.79c-1.47-3.5-2.84-7.02-4.12-10.55c-0.66-1.82-1.39-3.66-1.82-5.52
					c-0.43-1.83-0.54-3.71-0.39-5.57c0.26-3.39,1.33-6.91,3.99-9.72c2.2-2.32,5.68-4.13,9.63-3.81c4.48,0.37,8.06,3.05,10.4,5.74
					c2.67,3.06,4.45,6.54,6.31,9.9c3.78,6.8,7.32,13.68,10.62,20.62c3.34,7.01,6.44,14.08,9.34,21.19
					c3.01,7.39,5.81,14.82,8.45,22.29c0.66,1.87,1.31,3.74,1.95,5.62c0.34,0.99,2.39,0.57,2.05-0.42
					c-2.67-7.82-5.51-15.62-8.57-23.36c-2.93-7.42-6.08-14.8-9.47-22.12c-3.34-7.21-6.93-14.36-10.78-21.44
					c-1.9-3.49-3.73-7.05-6.03-10.41c-2.18-3.2-5.11-6.33-9.44-8.06c-3.88-1.55-8.37-1.55-12.07,0.3c-3.61,1.81-5.98,4.73-7.18,7.8
					c-1.45,3.71-1.76,7.66-0.96,11.47c0.41,1.97,1.19,3.89,1.88,5.82c0.67,1.85,1.36,3.7,2.08,5.54c2.64,6.77,5.66,13.46,9.11,20.03
					c3.2,6.1,6.75,12.09,10.58,17.98c3.87,5.95,8,11.8,12.23,17.62c2.02,2.78,3.94,6.6,8.74,7.01c2.29,0.19,4.67-0.35,6.66-1.17
					c2.08-0.86,4.16-1.73,6.16-2.69c2.05-0.98,3.98-2.1,5.71-3.38C92.57,97.43,91.06,96.31,90.09,97.03L90.09,97.03z"/>
			</g>
		</g>
		<g id="Ebene_9_8_">
			<g>
				<path class="st38" d="M92.3,98.5c2.63,7.95,7.13,14.94,9.76,22.89c0.25,0.74,1.15,2.38,0.99,3.13
					c-0.34,1.59-4.83,2.57-6.57,3.23c-2.1,0.8-5.46,2.91-7.62,2.18c-1.65-0.56-4.21-4.37-4.21-4.37
					c-5.08-6.53-8.66-13.13-13.74-19.66c8.14,0,14.73-4.46,21.43-7.82"/>
				<g>
					<path class="st38" d="M91.28,98.71c1.69,5.07,4.22,9.94,6.5,14.87c1.13,2.44,2.19,4.91,3.06,7.41
						c0.31,0.89,0.74,1.76,1.03,2.66c0.23,0.7,0.15,1.01-0.64,1.48c-1.64,0.96-3.76,1.3-5.56,2.04c-1.13,0.46-2.18,1.02-3.32,1.47
						c-0.81,0.33-2.02,0.84-2.97,0.57c-0.49-0.14-1.08-0.73-1.49-1.16c-0.59-0.63-1.12-1.28-1.63-1.95
						c-1.12-1.49-2.24-2.99-3.31-4.5c-3.78-5.34-7.05-10.88-11.11-16.11c-0.31,0.4-0.61,0.8-0.92,1.2
						c8.57-0.05,15.25-4.55,21.97-7.93c1.13-0.57,0.07-1.95-1.07-1.37c-6.34,3.19-12.8,7.67-20.9,7.71c-0.81,0-1.32,0.67-0.92,1.2
						c3.82,4.93,6.95,10.12,10.45,15.17c1.21,1.75,2.51,3.46,3.78,5.19c0.96,1.31,2.07,2.92,3.75,3.79c2.18,1.13,5.07-0.23,6.96-1.1
						c0.96-0.44,1.89-0.88,2.93-1.21c1.1-0.35,2.22-0.67,3.28-1.1c0.97-0.39,2-0.9,2.57-1.63c0.64-0.82,0.38-1.74,0.04-2.6
						c-0.9-2.32-1.74-4.66-2.73-6.96c-2.53-5.86-5.71-11.57-7.71-17.56C93,97.29,90.95,97.71,91.28,98.71L91.28,98.71z"/>
				</g>
			</g>
		</g>
		<g id="Ebene_4_7_">
			<g>
				<g>
					<path d="M117.04,138c-4.62-1.53-7.47-4.77-9.53-8.08c-2-3.22-3.31-6.65-4.66-10.04c-2.42-6.06-4.69-12.15-6.94-18.24
						c-2.47-6.69-4.9-13.39-7.4-20.08c-2.51-6.73-5.08-13.46-7.8-20.15c-2.56-6.28-5.25-12.53-8.24-18.7
						c-2.59-5.34-5.38-10.64-8.71-15.74c-2.56-3.93-5.43-7.82-9.21-11.18c-2.55-2.27-5.85-4.53-9.87-5.12
						c-3.83-0.56-7.53,0.58-10.38,2.48c-2.79,1.87-4.47,4.49-5.31,7.18c-1.03,3.31-1.01,6.78-0.57,10.14
						c0.55,4.21,1.74,8.37,3.21,12.46c1.7,4.72,3.8,9.36,6.1,13.93c2.51,5,5.27,9.93,8.18,14.81c2.96,4.98,6.09,9.9,9.32,14.78
						c3.12,4.72,6.35,9.4,9.65,14.05c2.99,4.22,6.04,8.41,9.14,12.58c2.54,3.42,5.11,6.83,7.69,10.23c1.81,2.39,3.64,4.77,5.42,7.16
						c0.54,0.72,1.07,1.45,1.58,2.18c0.16,0.24,0.32,0.47,0.47,0.71c0.03,0.04,0.05,0.09,0.08,0.13c0.08,0.13-0.11-0.23-0.03-0.06
						c0.23,0.54,0.48,1.07,0.68,1.61c1.68,4.41,1.7,8.97,0.71,13.47c-0.22,1,1.83,1.43,2.05,0.42c1.01-4.58,1.09-9.22-0.5-13.74
						c-0.39-1.12-0.83-2.19-1.53-3.21c-1.19-1.75-2.52-3.44-3.81-5.15c-2.18-2.87-4.36-5.74-6.53-8.61
						c-2.82-3.74-5.61-7.49-8.36-11.25c-3.2-4.38-6.34-8.79-9.41-13.23c-3.29-4.76-6.49-9.56-9.57-14.4
						c-3.09-4.86-6.07-9.76-8.84-14.73c-2.64-4.72-5.12-9.5-7.29-14.36c-1.95-4.36-3.68-8.78-4.93-13.29
						c-1.02-3.71-1.74-7.45-1.63-11.26c0.04-1.64,0.22-3.06,0.65-4.59c0.2-0.7,0.45-1.4,0.76-2.07c0.33-0.71,0.52-1.06,1-1.74
						c0.85-1.23,1.65-2.03,2.99-2.95c1.18-0.81,2.84-1.59,4.37-1.95c1.54-0.36,3.03-0.4,4.48-0.13c1.66,0.3,3.17,0.93,4.57,1.73
						c3.79,2.18,6.68,5.43,9.11,8.54c3.45,4.42,6.25,9.13,8.79,13.87c3.1,5.78,5.82,11.68,8.38,17.6c2.8,6.49,5.4,13.03,7.91,19.58
						c2.57,6.71,5.04,13.44,7.51,20.16c2.34,6.37,4.66,12.74,7.09,19.09c1.1,2.89,2.22,5.78,3.38,8.65
						c1.43,3.53,2.88,7.09,5.16,10.38c2.14,3.09,5.17,6.03,9.53,7.48C117.21,139.78,118.29,138.41,117.04,138L117.04,138z"/>
				</g>
			</g>
			<g>
				<g>
					<path d="M115.44,138.69c-1.08,6.21-0.63,12.64,1.13,18.75c0.49,1.7,1.1,3.37,1.85,5.01c0.16-0.3,0.33-0.6,0.49-0.9
						c-2,0.72-3.81,1.68-5.81,2.39c0.48,0.1,0.97,0.19,1.45,0.29c-3.29-5.76-9.23-10.36-16.25-13.68c-1.97-0.93-4.01-1.76-6.11-2.51
						c-1.23-0.44-2.31,0.93-1.07,1.37c7.12,2.54,13.76,6.11,18.25,11.03c1.32,1.44,2.43,2.98,3.35,4.59
						c0.24,0.42,0.99,0.45,1.45,0.29c2-0.72,3.81-1.68,5.81-2.39c0.4-0.14,0.63-0.59,0.49-0.9c-3.39-7.38-4.25-15.62-2.9-23.34
						c0.07-0.43-0.54-0.79-1.06-0.79C115.87,137.89,115.52,138.26,115.44,138.69L115.44,138.69z"/>
				</g>
			</g>
			<g>
				<g>
					<path d="M117.07,162.4c-1.66-3.2-3.34-6.41-4.83-9.66c-0.26-0.56-0.52-1.12-0.72-1.69c-0.02-0.07-0.05-0.14-0.07-0.22
						c-0.01-0.05-0.06-0.25-0.03-0.09c0.02,0.15-0.01-0.21-0.01-0.28c0-0.18,0.01-0.36,0.02-0.55c0.13-2.11,0.53-4.45-0.51-6.48
						c-0.51-0.99-1.43-1.86-2.88-2.11c-1.93-0.32-4.2,0.41-5.64,1.33c-2.06,1.32-1.65,3.31-0.27,4.84c1.87,2.06,4.71,3.61,7.44,4.98
						c1.14,0.57,2.21-0.81,1.07-1.37c-2.28-1.14-4.6-2.41-6.31-4.04c-0.97-0.92-1.96-2.24-0.56-3.2c0.7-0.47,1.66-0.78,2.57-0.95
						c0.56-0.1,1.01-0.12,1.5,0.02c-0.2-0.05,0.1,0.04,0.16,0.07c0.25,0.11,0.01-0.02,0.18,0.09c0.29,0.2,0.23,0.14,0.39,0.34
						c0.16,0.2,0.26,0.35,0.31,0.45c0.11,0.23,0.2,0.46,0.28,0.7c0.53,1.74,0.19,3.75,0.12,5.62c-0.04,0.98,0.4,1.87,0.81,2.78
						c1.5,3.31,3.22,6.56,4.91,9.82C115.51,163.76,117.57,163.35,117.07,162.4L117.07,162.4z"/>
				</g>
			</g>
			<g>
				<g>
					<path d="M102.71,124.1c-2.92,3.22-8.63,5.38-13.85,5.03c-1.36-0.09-1.35,1.5,0,1.59c5.97,0.41,12.37-2.16,15.68-5.82
						C105.32,124.05,103.47,123.25,102.71,124.1L102.71,124.1z"/>
				</g>
			</g>
			<g>
				<g>
					<path d="M92.26,96.12c-6.1,4.27-14.24,8.27-22.92,8.1c-1.37-0.03-1.37,1.56,0,1.59c9.25,0.17,17.91-4.01,24.42-8.57
						C94.76,96.54,93.25,95.42,92.26,96.12L92.26,96.12z"/>
				</g>
			</g>
		</g>
	</g>
</g>
<g id="Ebene_10_4_">
</g>
<g id="Ebene_8_6_">
</g>
<g id="Ebene_19_1_">
</g>
<g id="Ebene_23_1_">
</g>
<g id="Ebene_25">
</g>
<g id="Ebene_11_1_">
</g>
<g id="Ebene_12_1_">
</g>
</svg>
