<?xml version="1.0" encoding="utf-8"?>
<!-- Generator: Adobe Adobe Illustrator 24.2.0, SVG Export Plug-In . SVG Version: 6.00 Build 0)  -->
<svg version="1.1" xmlns="http://www.w3.org/2000/svg" xmlns:xlink="http://www.w3.org/1999/xlink" x="0px" y="0px"
	 viewBox="0 0 170.08 170.08" style="enable-background:new 0 0 170.08 170.08;" xml:space="preserve">
<style type="text/css">
	.st0{fill:#592F7D;}
	.st1{fill:#5A2F7C;}
	.st2{fill:#D3E1EB;}
	.st3{fill:#D3E1ED;}
	.st4{fill:#5C646E;stroke:#000000;stroke-width:2.7043;stroke-miterlimit:10;}
	.st5{fill:#B6D2E0;stroke:#000000;stroke-width:2.1378;stroke-miterlimit:10;}
	.st6{fill:#3D4D5B;}
	.st7{opacity:0.0784;}
	.st8{opacity:0.1216;}
	.st9{fill:#FFFFFF;}
	.st10{fill:#ECC9AD;}
	.st11{opacity:0.1608;}
	.st12{opacity:0.1686;}
	.st13{fill:#F0F6FA;}
	.st14{opacity:0.149;}
	.st15{opacity:0.0314;}
	.st16{stroke:#000000;stroke-width:0.0649;stroke-miterlimit:10;}
	.st17{fill:#F0F6FA;stroke:#F0F6FA;stroke-width:1.1522;stroke-miterlimit:10;}
	.st18{fill:#C8354F;}
	.st19{fill:#C93550;}
	.st20{fill:#6DB671;}
	.st21{fill:#6CB671;}
	.st22{fill:#D1DFEA;}
	.st23{fill:#C8354E;}
	.st24{fill:#F3C058;}
	.st25{fill:#C8AE9D;}
	.st26{opacity:0.1412;}
	.st27{fill:#D15238;}
	.st28{fill:#D15239;}
	.st29{opacity:0.9882;}
	.st30{fill:#ADBECF;}
	.st31{fill:#F3C057;}
	.st32{fill:#F7D98D;}
	.st33{fill:#AEBFCE;}
	.st34{opacity:0.2706;}
	.st35{fill:#3D4C5B;}
	.st36{fill:#D2E1EC;}
	.st37{fill:#59AEAA;stroke:#5AADAB;stroke-miterlimit:10;}
	.st38{fill:#592F7D;stroke:#592F7D;stroke-miterlimit:10;}
</style>
<g id="Ebene_6_11_">
</g>
<g id="Ebene_13_1_">
</g>
<g id="Ebene_9_6_">
</g>
<g id="Ebene_3">
	<g>
		<g id="Ebene_2_Kopie_5_">
			<g>
				<path class="st18" d="M120.84,65.12c4.58,1.36,18.51,5.54,20.4,4.01c3.07-2.48,15.26-34.87,13.51-37.58
					c-3.68-5.68-60.32-24.38-66.8-20.49c-5.84,3.5-7.67,36.27-6.39,38.61c1.93,3.53,11.76,4.56,15.75,7.3
					c1.78,1.22,7.93,13.41,10.14,13.87c1.26,0.26,9.83-3.01,13.24-5.75"/>
				<g>
					<path class="st19" d="M120.75,65.45c4.5,1.33,9.01,2.67,13.6,3.62c1.1,0.23,2.22,0.44,3.34,0.58c0.83,0.11,1.68,0.2,2.52,0.13
						c0.51-0.04,1.02-0.15,1.39-0.5c0.29-0.27,0.51-0.61,0.73-0.94c0.71-1.07,1.29-2.24,1.85-3.39c0.8-1.66,1.55-3.34,2.26-5.03
						c1.73-4.08,3.31-8.23,4.78-12.41c1.29-3.68,2.54-7.4,3.44-11.2c0.28-1.18,0.55-2.39,0.6-3.6c0.01-0.35,0.01-0.72-0.1-1.05
						c-0.1-0.29-0.31-0.54-0.53-0.76c-0.62-0.64-1.41-1.13-2.17-1.6c-1.13-0.68-2.3-1.29-3.49-1.87c-3.31-1.61-6.74-3-10.18-4.33
						c-4.21-1.63-8.47-3.13-12.76-4.55c-4.45-1.47-8.94-2.85-13.45-4.11c-4.03-1.12-8.1-2.17-12.2-3c-2.98-0.61-6.03-1.18-9.08-1.24
						c-0.93-0.02-1.9,0-2.79,0.26c-0.93,0.27-1.59,0.93-2.12,1.69c-0.85,1.22-1.39,2.66-1.85,4.06c-0.61,1.87-1.07,3.79-1.45,5.72
						c-0.89,4.45-1.44,8.98-1.81,13.51c-0.31,3.7-0.54,7.43-0.43,11.16c0.03,0.95,0.02,1.97,0.28,2.89
						c0.17,0.59,0.64,1.11,1.11,1.51c0.86,0.74,1.9,1.26,2.95,1.71c2.59,1.1,5.34,1.8,8,2.73c1.18,0.41,2.36,0.87,3.43,1.5
						c0.37,0.22,0.51,0.29,0.77,0.56c0.21,0.21,0.37,0.43,0.55,0.67c1.23,1.64,2.26,3.42,3.33,5.16c1.19,1.91,2.36,3.85,3.72,5.65
						c0.46,0.61,0.95,1.25,1.55,1.74c0.46,0.37,0.88,0.53,1.47,0.45c0.88-0.12,1.74-0.41,2.57-0.69c1.25-0.42,2.47-0.91,3.67-1.43
						c2.32-1.01,4.7-2.13,6.67-3.7c0.34-0.27-0.16-0.75-0.49-0.48c-0.95,0.76-2.03,1.38-3.11,1.96c-1.22,0.65-2.48,1.24-3.76,1.78
						c-1.15,0.49-2.33,0.95-3.52,1.34c-0.74,0.24-1.61,0.55-2.34,0.59c-0.05,0-0.09,0-0.14,0c-0.12,0,0.02,0.01-0.06-0.01
						c-0.04-0.01-0.08-0.02-0.12-0.04c0.09,0.03-0.08-0.04-0.11-0.06c-0.22-0.13-0.4-0.29-0.61-0.5c-0.59-0.59-1.09-1.26-1.57-1.94
						c-1.33-1.86-2.52-3.82-3.72-5.76c-1-1.61-1.96-3.28-3.15-4.77c-0.46-0.57-0.99-0.94-1.65-1.3c-1.11-0.59-2.29-1.03-3.48-1.44
						c-2.62-0.9-5.34-1.58-7.88-2.7c-0.98-0.44-1.99-0.95-2.76-1.7c-0.15-0.14-0.29-0.3-0.41-0.46c-0.07-0.09-0.12-0.19-0.18-0.28
						c-0.01-0.02-0.08-0.17-0.02-0.03c-0.05-0.12-0.08-0.23-0.11-0.36c-0.08-0.35-0.11-0.73-0.15-1.18c-0.05-0.6-0.07-1.2-0.08-1.8
						c-0.03-1.67,0.01-3.34,0.08-5c0.18-4.35,0.56-8.69,1.15-13c0.55-4.06,1.23-8.17,2.55-12.05c0.45-1.32,0.97-2.66,1.81-3.8
						c0.25-0.34,0.64-0.75,0.99-0.96c0.06-0.04,0.12-0.07,0.18-0.1c0.03-0.01,0.06-0.03,0.09-0.04c0.1-0.05-0.04,0.01,0.07-0.03
						c0.16-0.06,0.32-0.11,0.49-0.14c0.45-0.11,0.71-0.13,1.18-0.16c0.54-0.03,1.08-0.03,1.61-0.01c1.34,0.05,2.67,0.21,3.99,0.4
						c3.66,0.54,7.28,1.36,10.87,2.26c4.35,1.09,8.66,2.32,12.94,3.63c4.41,1.35,8.78,2.8,13.12,4.35
						c3.86,1.38,7.69,2.83,11.45,4.43c2.72,1.16,5.46,2.36,7.98,3.89c0.43,0.26,0.85,0.53,1.25,0.82c0.08,0.06,0.07,0.05,0.19,0.14
						c0.08,0.06,0.16,0.13,0.24,0.19c0.13,0.11,0.26,0.23,0.38,0.35c0.05,0.05,0.1,0.11,0.15,0.16c0.02,0.03,0.05,0.06,0.07,0.08
						c-0.07-0.09,0,0.01,0.02,0.03c0.03,0.05,0.06,0.09,0.09,0.14c0.05,0.08-0.02-0.06,0.01,0.01c0.01,0.03,0.02,0.06,0.03,0.09
						c0.01,0.04,0.05,0.23,0.03,0.12c0.01,0.08,0.02,0.16,0.03,0.25c0.01,0.2,0.01,0.41,0,0.61c-0.07,1.13-0.35,2.36-0.63,3.52
						c-0.42,1.73-0.92,3.44-1.44,5.13c-1.28,4.14-2.75,8.22-4.31,12.27c-1.41,3.66-2.89,7.31-4.61,10.84
						c-0.56,1.15-1.13,2.3-1.83,3.37c-0.24,0.36-0.35,0.55-0.64,0.82c-0.12,0.12-0.19,0.16-0.34,0.2c-0.28,0.09-0.5,0.11-0.79,0.12
						c-0.86,0.04-1.73-0.06-2.57-0.18c-1.12-0.16-2.24-0.38-3.35-0.62c-2.53-0.54-5.03-1.2-7.52-1.9c-1.88-0.52-3.75-1.07-5.62-1.63
						C120.49,64.67,120.32,65.32,120.75,65.45L120.75,65.45z"/>
				</g>
			</g>
		</g>
		<g id="Ebene_7_4_">
			<g class="st14">
				<g>
					<path class="st9" d="M136.71,28.66c1.36,0.6,2.78,1.08,4.17,1.59c0.39,0.14,0.77,0.28,1.15,0.43c0.19,0.07,0.37,0.14,0.56,0.22
						c0.09,0.04,0.19,0.07,0.28,0.11c0.31,0.12-0.26-0.11,0.05,0.02c0.72,0.3,1.44,0.61,2.14,0.97c0.32,0.17,0.64,0.34,0.96,0.53
						c0.14,0.08,0.28,0.17,0.41,0.26c0.07,0.04,0.13,0.09,0.19,0.13c0.27,0.18-0.18-0.15-0.02-0.02c0.22,0.18,0.44,0.36,0.64,0.58
						c0.04,0.05,0.08,0.1,0.12,0.14c-0.06-0.06-0.21-0.29-0.09-0.11c0.07,0.1,0.12,0.24,0.2,0.34c-0.04-0.05-0.13-0.35-0.07-0.14
						c0.02,0.05,0.03,0.1,0.05,0.15c0.1,0.29,0-0.28-0.01-0.09c-0.01,0.1-0.03,0.45,0.01,0.13c0.04-0.33,0.01-0.06-0.01,0.02
						c-0.01,0.07-0.03,0.15-0.04,0.22c-0.03,0.17-0.07,0.33-0.11,0.5c-0.56,2.28-1.4,4.49-2.2,6.69c-1.13,3.12-2.32,6.21-3.51,9.31
						c-1.13,2.93-2.27,5.85-3.38,8.78c-0.12,0.3-0.23,0.61-0.34,0.91c-0.25,0.66,0.32,1.49,1,1.64c0.79,0.17,1.41-0.24,1.67-0.94
						c1.09-2.89,2.21-5.77,3.32-8.66c1.23-3.18,2.45-6.36,3.62-9.56c0.87-2.36,1.76-4.73,2.41-7.17c0.17-0.62,0.38-1.34,0.3-1.99
						c-0.19-1.52-1.43-2.57-2.69-3.36c-1.42-0.88-3-1.5-4.56-2.1c-1.44-0.56-2.91-1.05-4.35-1.61c-0.07-0.03-0.14-0.06-0.21-0.08
						c-0.22-0.09,0.34,0.14,0.08,0.03c-0.14-0.06-0.27-0.11-0.4-0.17c-0.66-0.29-1.52-0.21-1.88,0.47
						C135.88,27.41,136.01,28.34,136.71,28.66L136.71,28.66z"/>
				</g>
			</g>
			<g class="st14">
				<g>
					<path class="st9" d="M135.54,64.83c-0.03,0.29-0.06,0.59-0.09,0.88c0.78-0.32,1.56-0.63,2.34-0.95
						c-0.29-0.3-0.57-0.59-0.86-0.89c-0.09,0.7-0.17,1.4-0.26,2.1c-0.19,0.08-0.35,0.14-0.57,0.11c-0.08,0-0.16-0.02-0.24-0.06
						c-0.13-0.06-0.15-0.07-0.06-0.02c-0.14-0.09-0.23-0.19-0.32-0.32c0.05,0.08,0.04,0.07-0.02-0.05c-0.06-0.1-0.09-0.21-0.09-0.33
						c0.33-0.43,0.66-0.86,0.99-1.3c0.02-0.01,0.35-0.01,0.17-0.02c0.17,0.01,0.32,0.05,0.48,0.12c-0.16-0.08,0.11,0.09,0.13,0.11
						c-0.13-0.11,0.09,0.11,0.1,0.13c0.08,0.13,0.11,0.29,0.12,0.44c-0.01-0.24-0.14,0.47-0.13,0.45c0.07-0.16-0.08,0.1-0.1,0.13
						c-0.06,0.04-0.12,0.09-0.17,0.13c-0.22,0.08-0.27,0.1-0.17,0.07c0.16-0.03-0.32,0.03-0.16,0.02c0.07,0,0.04,0-0.09-0.01
						c-0.08,0-0.16-0.02-0.23-0.05c-0.3-0.11-0.51-0.36-0.56-0.67c-0.04-0.29-0.04,0.13,0-0.17c0.03-0.3-0.07,0.11,0.04-0.17
						c0.02-0.08,0.06-0.14,0.12-0.2c0.08-0.09,0.1-0.12,0.05-0.07c-0.09,0.08,0.3-0.18,0.1-0.1c0.68,0.27,1.35,0.54,2.03,0.81
						c-0.04-0.13-0.09-0.25-0.13-0.38c-0.24-0.66-0.98-1.17-1.71-0.94c-0.68,0.21-1.19,0.93-0.94,1.64
						c0.04,0.13,0.09,0.25,0.13,0.38c0.14,0.41,0.4,0.7,0.82,0.87c0.44,0.18,0.8,0.11,1.22-0.06c0.84-0.35,1.2-1.45,0.92-2.26
						c-0.33-0.97-1.44-1.53-2.43-1.2c-0.96,0.32-1.62,1.33-1.24,2.31c0.37,0.95,1.39,1.55,2.42,1.28c0.59-0.15,1.01-0.71,0.99-1.3
						c-0.01-0.64-0.38-1.27-0.96-1.59c-0.63-0.35-1.28-0.33-1.91-0.04c-0.83,0.38-0.82,1.51-0.26,2.1c0.29,0.3,0.57,0.59,0.86,0.89
						c0.38,0.39,1.02,0.48,1.51,0.29c0.55-0.22,0.78-0.68,0.83-1.23c0.03-0.29,0.06-0.59,0.09-0.88c0.03-0.31-0.19-0.72-0.41-0.93
						c-0.24-0.24-0.65-0.41-1-0.4c-0.35,0.02-0.71,0.13-0.95,0.38C135.67,64.15,135.58,64.45,135.54,64.83L135.54,64.83z"/>
				</g>
			</g>
		</g>
		<g id="Ebene_2_6_">
			<g>
				<g>
					<path d="M117.85,67.73c4.5,1.33,9.02,2.67,13.62,3.64c1.11,0.23,2.22,0.44,3.34,0.58c0.89,0.12,1.81,0.23,2.7,0.16
						c0.69-0.06,1.35-0.2,1.86-0.69c0.32-0.31,0.59-0.69,0.83-1.06c0.71-1.07,1.29-2.24,1.85-3.39c0.81-1.66,1.55-3.35,2.27-5.05
						c1.75-4.13,3.35-8.31,4.83-12.54c1.29-3.68,2.54-7.4,3.42-11.19c0.28-1.21,0.56-2.46,0.59-3.71c0.01-0.4-0.01-0.82-0.14-1.21
						c-0.14-0.41-0.42-0.75-0.73-1.05c-0.68-0.68-1.52-1.21-2.34-1.71c-1.14-0.69-2.33-1.29-3.52-1.87
						c-3.37-1.63-6.85-3.04-10.34-4.38c-4.21-1.62-8.47-3.12-12.75-4.54c-4.45-1.47-8.92-2.85-13.43-4.1
						c-4.02-1.12-8.07-2.16-12.16-3c-3.05-0.62-6.18-1.21-9.29-1.28c-0.99-0.02-2.03,0.01-2.98,0.27c-1.1,0.31-1.87,1.05-2.51,1.94
						c-0.89,1.26-1.45,2.75-1.92,4.2c-0.62,1.86-1.07,3.78-1.45,5.71c-0.9,4.49-1.44,9.06-1.82,13.63
						c-0.3,3.71-0.53,7.46-0.42,11.19c0.03,0.99,0.04,2.06,0.31,3.02c0.2,0.71,0.75,1.33,1.31,1.81c0.93,0.79,2.03,1.35,3.15,1.82
						c2.66,1.12,5.47,1.84,8.19,2.8c0.3,0.11,0.6,0.21,0.89,0.33c0.08,0.03,0.16,0.06,0.24,0.09c0.04,0.02,0.31,0.12,0.05,0.02
						c0.15,0.06,0.3,0.12,0.45,0.19c0.55,0.24,1.1,0.5,1.61,0.81c0.1,0.06,0.2,0.12,0.29,0.18c0.05,0.04,0.11,0.08,0.17,0.11
						c0.12,0.06-0.23-0.2-0.14-0.1c0.08,0.08,0.17,0.15,0.25,0.23c0.09,0.09,0.18,0.2,0.26,0.29c0.19,0.23-0.13-0.17,0.02,0.02
						c0.06,0.08,0.13,0.17,0.19,0.25c1.22,1.64,2.26,3.41,3.33,5.13c1.19,1.91,2.37,3.84,3.75,5.64c0.5,0.65,1.02,1.34,1.67,1.86
						c0.31,0.25,0.63,0.48,1.01,0.59c0.39,0.11,0.75,0.07,1.14,0.01c0.89-0.13,1.76-0.42,2.61-0.71c1.29-0.44,2.56-0.94,3.81-1.48
						c2.37-1.02,4.76-2.16,6.77-3.76c0.43-0.34,0.36-1.06-0.01-1.42c-0.43-0.42-1.03-0.35-1.46-0.01c-0.06,0.05-0.41,0.3-0.17,0.13
						c-0.11,0.08-0.21,0.15-0.32,0.23c-0.25,0.17-0.51,0.34-0.77,0.5c-0.56,0.35-1.13,0.67-1.71,0.98
						c-1.22,0.65-2.48,1.23-3.76,1.77c-0.14,0.06-0.27,0.11-0.41,0.17c-0.03,0.01-0.3,0.12-0.08,0.03c-0.08,0.03-0.16,0.07-0.24,0.1
						c-0.32,0.13-0.63,0.25-0.95,0.37c-0.55,0.21-1.11,0.41-1.67,0.59c-0.46,0.15-0.92,0.29-1.39,0.4
						c-0.17,0.04-0.35,0.08-0.53,0.12c-0.07,0.01-0.18,0.01-0.24,0.04c0.25-0.1,0.19-0.02,0.02-0.01c-0.06,0-0.11,0-0.17,0
						c-0.19,0.02,0.18,0.04,0.14,0.02c-0.03-0.01-0.11-0.04-0.14-0.04c0.27,0.01,0.24,0.12,0.09,0.02c-0.05-0.03-0.1-0.07-0.16-0.1
						c-0.19-0.11,0.22,0.18,0.05,0.04c-0.12-0.1-0.24-0.21-0.35-0.32c-0.27-0.26-0.52-0.55-0.76-0.84c-0.04-0.05-0.18-0.2,0.02,0.03
						c-0.04-0.04-0.07-0.09-0.11-0.14c-0.07-0.09-0.13-0.17-0.2-0.26c-0.15-0.2-0.3-0.4-0.45-0.61c-1.33-1.85-2.52-3.8-3.73-5.73
						c-1.04-1.66-2.04-3.38-3.29-4.91c-0.48-0.59-1.05-1-1.73-1.37c-1.18-0.64-2.45-1.11-3.72-1.55c-1.33-0.46-2.68-0.87-4.01-1.3
						c-0.66-0.21-1.32-0.43-1.98-0.66c-0.3-0.11-0.6-0.22-0.9-0.33c-0.08-0.03-0.16-0.06-0.24-0.09c-0.26-0.1,0.14,0.06-0.02-0.01
						c-0.16-0.07-0.33-0.14-0.49-0.21c-0.54-0.24-1.07-0.5-1.58-0.8c-0.22-0.13-0.43-0.28-0.64-0.42c-0.2-0.13,0.18,0.15,0,0
						c-0.05-0.04-0.1-0.08-0.15-0.12c-0.1-0.08-0.19-0.16-0.28-0.25c-0.09-0.08-0.17-0.17-0.25-0.26c-0.03-0.03-0.05-0.06-0.08-0.09
						c-0.14-0.15,0.13,0.2,0.02,0.02c-0.08-0.13-0.16-0.31-0.26-0.42c0.19,0.21,0.11,0.28,0.07,0.15c-0.01-0.02-0.02-0.05-0.02-0.07
						c-0.02-0.07-0.04-0.14-0.05-0.2c-0.02-0.08-0.03-0.15-0.05-0.23c-0.05-0.23,0.02,0.18,0.01,0.09c-0.01-0.05-0.01-0.1-0.02-0.15
						c-0.03-0.23-0.05-0.47-0.07-0.7c-0.05-0.6-0.07-1.21-0.08-1.82c-0.03-1.66,0-3.32,0.07-4.98c0.08-2.07,0.22-4.14,0.39-6.21
						c0.1-1.14,0.21-2.28,0.33-3.41c0.03-0.27,0.06-0.54,0.09-0.81c0.01-0.07,0.05-0.47,0.02-0.17c0.02-0.17,0.04-0.34,0.06-0.51
						c0.07-0.56,0.14-1.12,0.22-1.69c0.55-4.05,1.22-8.15,2.54-12.02c0.13-0.39,0.28-0.78,0.43-1.17c0.03-0.08,0.17-0.36,0.01-0.03
						c0.04-0.09,0.08-0.18,0.11-0.27c0.07-0.17,0.15-0.34,0.23-0.51c0.27-0.57,0.59-1.12,0.96-1.63c0.02-0.03,0.05-0.06,0.07-0.09
						c0.01-0.01-0.18,0.22-0.1,0.12c0.05-0.05,0.09-0.11,0.13-0.16c0.09-0.1,0.18-0.2,0.27-0.29c0.08-0.08,0.17-0.15,0.26-0.22
						c0.15-0.13-0.25,0.17-0.04,0.03c0.05-0.03,0.09-0.06,0.14-0.09c0.06-0.03,0.12-0.06,0.18-0.09c0.03-0.02,0.07-0.03,0.11-0.05
						c0.03-0.02-0.31,0.11-0.11,0.05c0.16-0.05,0.32-0.1,0.49-0.14c0.09-0.02,0.18-0.04,0.27-0.05c0.05-0.01,0.1-0.02,0.15-0.03
						c0.25-0.04-0.15,0.02-0.08,0.01c0.22-0.02,0.45-0.05,0.67-0.06c0.54-0.03,1.08-0.03,1.62,0c0.63,0.03,1.26,0.08,1.89,0.14
						c0.16,0.02,0.33,0.04,0.49,0.05c0.08,0.01,0.15,0.02,0.23,0.03c0.05,0.01,0.09,0.01,0.14,0.02c0.26,0.03-0.22-0.03-0.04-0.01
						c0.37,0.05,0.74,0.1,1.12,0.16c3.66,0.55,7.28,1.37,10.87,2.27c4.32,1.08,8.6,2.3,12.86,3.61c4.41,1.36,8.8,2.81,13.14,4.36
						c2.02,0.72,4.04,1.47,6.05,2.24c0.96,0.37,1.91,0.74,2.86,1.13c-0.25-0.1-0.02-0.01,0.09,0.04c0.12,0.05,0.23,0.09,0.35,0.14
						c0.23,0.09,0.46,0.19,0.69,0.28c0.43,0.18,0.85,0.36,1.28,0.54c2.72,1.16,5.47,2.36,8,3.89c0.43,0.26,0.85,0.53,1.25,0.82
						c0.04,0.03,0.08,0.06,0.11,0.08c-0.34-0.23-0.14-0.11-0.06-0.05c0.08,0.06,0.16,0.13,0.24,0.19c0.13,0.11,0.27,0.23,0.39,0.35
						c0.05,0.05,0.1,0.1,0.15,0.16c0.02,0.03,0.04,0.05,0.07,0.08c0.12,0.13-0.18-0.26-0.08-0.1c0.03,0.05,0.06,0.1,0.1,0.14
						c0.12,0.16-0.09-0.31-0.03-0.07c0.01,0.06,0.03,0.13,0.04,0.18c-0.1-0.3-0.02-0.18-0.01,0c0.01,0.19,0.01,0.38,0,0.57
						c-0.01,0.11-0.01,0.21-0.02,0.32c-0.01,0.06-0.01,0.13-0.02,0.19c-0.03,0.27,0.03-0.25,0-0.04c-0.04,0.28-0.08,0.56-0.13,0.83
						c-0.12,0.69-0.27,1.37-0.43,2.05c-0.41,1.71-0.9,3.4-1.42,5.07c-1.28,4.14-2.75,8.23-4.31,12.28c-0.39,1.01-0.79,2.02-1.2,3.03
						c-0.2,0.49-0.4,0.97-0.6,1.46c-0.02,0.05-0.11,0.28,0,0c-0.02,0.05-0.04,0.1-0.06,0.15c-0.05,0.11-0.09,0.23-0.14,0.34
						c-0.1,0.24-0.2,0.48-0.31,0.73c-0.7,1.66-1.43,3.31-2.22,4.93c-0.56,1.15-1.13,2.3-1.84,3.37c-0.12,0.17-0.25,0.34-0.36,0.51
						c0.23-0.35,0.07-0.09-0.01,0c-0.05,0.06-0.11,0.11-0.16,0.17c-0.02,0.02-0.05,0.04-0.07,0.06c-0.11,0.12,0.26-0.14,0.1-0.08
						c-0.04,0.02-0.1,0.05-0.14,0.07c-0.07,0.05-0.19-0.06,0.16-0.07c-0.03,0-0.08,0.03-0.11,0.04c-0.12,0.03-0.24,0.05-0.37,0.08
						c-0.16,0.03,0.28-0.02,0.11-0.02c-0.04,0-0.08,0.01-0.12,0.01c-0.08,0.01-0.17,0.01-0.26,0.02c-0.39,0.02-0.77,0-1.16-0.03
						c-0.21-0.02-0.43-0.04-0.64-0.06c-0.08-0.01-0.51-0.05-0.16-0.02c-0.13-0.01-0.26-0.03-0.39-0.05
						c-1.14-0.16-2.27-0.39-3.39-0.63c-2.52-0.55-5.01-1.2-7.49-1.9c-1.88-0.52-3.75-1.08-5.63-1.63c-0.54-0.16-1.12,0.2-1.25,0.71
						C116.96,67.04,117.32,67.57,117.85,67.73L117.85,67.73z"/>
				</g>
			</g>
		</g>
		<g id="Ebene_10_3_">
			<g>
				<g>
					<path class="st9" d="M104.3,23.62c3.02,4.96,5.95,9.97,8.81,15.01c2.81,4.96,5.55,9.96,8.26,14.98c1.5,2.79,3,5.58,4.49,8.38
						c0.58,1.1,2.26,1.51,3.31,0.86c1.15-0.71,1.46-2.02,0.83-3.19c-2.65-4.99-5.32-9.96-8.04-14.92c-2.76-5.03-5.58-10.04-8.48-15
						c-1.65-2.83-3.33-5.65-5.04-8.45c-0.65-1.06-2.22-1.54-3.31-0.86C104.04,21.11,103.6,22.49,104.3,23.62L104.3,23.62z"/>
				</g>
			</g>
			<g>
				<g>
					<path class="st9" d="M98.55,54.3c5.58-3.14,11.11-6.35,16.58-9.65c4.05-2.44,8.08-4.93,12.15-7.34c2.7-1.6,5.42-3.16,8.15-4.7
						c1.08-0.61,1.55-2.13,0.83-3.19c-0.72-1.07-2.15-1.51-3.31-0.86c-4.55,2.56-9.04,5.21-13.5,7.91
						c-4.33,2.62-8.65,5.26-13.01,7.82c-3.44,2.02-6.9,4-10.37,5.95c-1.08,0.61-1.55,2.13-0.83,3.19
						C95.96,54.51,97.39,54.95,98.55,54.3L98.55,54.3z"/>
				</g>
			</g>
		</g>
		<g id="Ebene_9_4_">
			<g class="st15">
				<path d="M87.31,11.57C82.59,29.7,97.88,56.56,109.26,71.2c-1.88-0.01-3.47-2.98-6.57-6.96c-4.38-5.63-2.72-5.75-5.46-7.72
					c-2.28-1.64-5.44-2.18-8.14-2.97c-2.49-0.73-5.52-1.98-6.81-3.62c-1.7-2.17-0.15-23.64,3.57-36.11"/>
				<g>
					<path d="M86.64,11.4c-0.97,3.76-1.08,7.72-0.68,11.59c0.45,4.29,1.48,8.52,2.85,12.64c1.45,4.37,3.27,8.62,5.32,12.76
						c2.02,4.08,4.27,8.06,6.71,11.93c2.18,3.47,4.51,6.86,7,10.13c0.27,0.36,0.55,0.72,0.83,1.08c0.19-0.33,0.38-0.67,0.58-1
						c-0.05,0-0.1,0-0.15-0.01c0.19,0.01,0.03,0.01-0.02-0.01c-0.08-0.02-0.17-0.04-0.25-0.07c-0.19-0.06,0.05,0.04-0.12-0.05
						c-0.1-0.05-0.2-0.11-0.3-0.17c-0.05-0.03-0.1-0.07-0.15-0.1c0.11,0.08,0,0-0.03-0.02c-0.09-0.08-0.19-0.15-0.28-0.23
						c-0.2-0.18-0.38-0.37-0.56-0.57c-0.95-1.05-1.75-2.23-2.59-3.37c-1.64-2.23-3.43-4.35-4.66-6.82
						c-0.24-0.49-0.46-1.01-0.78-1.46c-0.39-0.57-0.9-1.03-1.46-1.45c-2.75-2.07-6.24-2.5-9.45-3.54c-1.46-0.47-2.91-1.06-4.2-1.89
						c-0.53-0.34-1.02-0.74-1.42-1.22c-0.06-0.07,0.04,0.09-0.02-0.03c-0.01-0.03-0.03-0.06-0.05-0.09
						c-0.05-0.09-0.01-0.13,0.01,0.04c-0.01-0.04-0.04-0.09-0.05-0.14c-0.08-0.21-0.13-0.42-0.17-0.64
						c-0.01-0.07-0.03-0.14-0.04-0.21c-0.01-0.05-0.04-0.27-0.01-0.05c-0.02-0.15-0.04-0.3-0.06-0.45
						c-0.09-0.75-0.13-1.51-0.15-2.26c-0.13-4.65,0.29-9.33,0.83-13.94c0.63-5.41,1.51-10.82,2.91-16.08
						c0.15-0.57,0.31-1.14,0.48-1.71c0.25-0.82-1.09-1.17-1.34-0.35c-1.55,5.21-2.47,10.61-3.17,16c-0.64,4.95-1.13,9.96-1.11,14.97
						c0.01,1.5,0.02,3.05,0.35,4.53c0.11,0.51,0.3,0.96,0.65,1.37c0.93,1.1,2.32,1.84,3.63,2.43c1.53,0.68,3.12,1.18,4.74,1.61
						c1.66,0.44,3.37,0.84,4.93,1.56c0.38,0.18,0.76,0.37,1.12,0.59c0.16,0.1,0.32,0.2,0.48,0.31c0.07,0.05,0.13,0.09,0.19,0.14
						c0.11,0.08-0.07-0.05,0.07,0.05c0.29,0.22,0.56,0.45,0.81,0.71c0.05,0.05,0.09,0.1,0.13,0.14c0.06,0.07,0.13,0.17,0.03,0.04
						c0.08,0.11,0.17,0.23,0.24,0.35c0.14,0.23,0.26,0.46,0.38,0.7c0.36,0.73,0.72,1.45,1.14,2.14c0.81,1.33,1.76,2.56,2.7,3.8
						c1.02,1.33,1.97,2.71,3,4.03c0.68,0.87,1.42,1.82,2.42,2.37c0.42,0.23,0.87,0.36,1.35,0.37c0.48,0.01,0.9-0.59,0.58-1
						c-2.45-3.16-4.75-6.42-6.91-9.77c-2.43-3.77-4.69-7.65-6.74-11.62c-2.09-4.05-3.95-8.21-5.48-12.48
						c-1.45-4.05-2.61-8.22-3.2-12.46c-0.53-3.81-0.62-7.72,0.15-11.46c0.09-0.44,0.19-0.89,0.31-1.33
						C88.19,10.92,86.86,10.57,86.64,11.4L86.64,11.4z"/>
				</g>
			</g>
		</g>
	</g>
	<g>
		<g id="Ebene_5_9_">
			<g>
				<path class="st36" d="M103.64,126.82c2.08,5.25,6.72,9.76,12.59,12.25c-0.99,7.46-0.12,15.11,2.53,22.31
					c-0.42,1.68-3.11,2.27-4.99,1.58s-3.14-2.19-4.42-3.54c-4.33-4.57-9.99-8.24-16.32-10.6c1.01-6.05-0.22-12.37-3.49-17.87
					c4.84-0.38,9.56-1.69,13.71-3.79"/>
				<g>
					<path class="st36" d="M102.62,127.03c2.11,5.24,6.68,9.98,13.08,12.72c-0.18-0.23-0.35-0.46-0.53-0.69
						c-0.98,7.54-0.1,15.21,2.57,22.53c0-0.14,0-0.28,0-0.42c-0.33,1.14-2.07,1.56-3.43,1.11c-1.92-0.64-3.08-2.26-4.26-3.48
						c-2.76-2.87-6.05-5.42-9.82-7.55c-2.09-1.18-4.32-2.22-6.67-3.1c0.18,0.23,0.35,0.46,0.53,0.69c1.01-6.2-0.27-12.55-3.63-18.27
						c-0.31,0.4-0.61,0.8-0.92,1.2c5.11-0.42,9.97-1.75,14.24-3.89c1.13-0.57,0.07-1.95-1.07-1.37c-3.94,1.98-8.44,3.29-13.17,3.68
						c-0.85,0.07-1.26,0.61-0.92,1.2c3.21,5.46,4.3,11.56,3.34,17.46c-0.04,0.26,0.23,0.58,0.53,0.69
						c3.79,1.42,7.26,3.25,10.32,5.44c1.57,1.12,3.03,2.33,4.38,3.61c1.27,1.21,2.32,2.55,3.7,3.69c1.22,1.01,2.86,1.85,4.75,1.78
						c1.7-0.06,3.3-0.75,3.95-1.95c0.44-0.82-0.05-1.61-0.32-2.42c-0.3-0.91-0.57-1.82-0.82-2.74c-0.48-1.81-0.85-3.63-1.1-5.46
						c-0.57-4.12-0.58-8.27-0.05-12.4c0.04-0.27-0.23-0.56-0.53-0.69c-5.93-2.54-10.15-6.92-12.11-11.77
						C104.28,125.63,102.22,126.05,102.62,127.03L102.62,127.03z"/>
				</g>
			</g>
		</g>
		<g id="Ebene_7_5_">
			<g>
				<path class="st35" d="M109.05,148.76c0.06-1.51,1.94-3.82,0.88-5.06s-5.49-0.93-6.39,0.37c-0.85,1.23,0.4,2.8,1.85,3.56
					s3.21,1.19,4.26,2.32"/>
				<g>
					<path class="st6" d="M110.12,148.76c0.1-1.43,1.26-2.73,1.2-4.19c-0.05-1.39-1.38-2.2-3.13-2.39
						c-1.62-0.17-3.51,0.04-4.81,0.83c-1.63,0.99-1.35,2.77-0.27,3.96c0.7,0.77,1.62,1.31,2.69,1.78c1.04,0.45,2.21,0.85,2.94,1.6
						c0.34,0.35,0.92,0.51,1.45,0.29c0.46-0.2,0.72-0.74,0.38-1.09c-0.74-0.75-1.67-1.29-2.74-1.76c-0.91-0.4-1.89-0.74-2.6-1.34
						c-0.56-0.48-1.13-1.24-0.81-1.89c0.19-0.39,0.84-0.59,1.42-0.71c1.01-0.21,3.19-0.35,3.36,0.61c0.11,0.65-0.26,1.37-0.51,1.97
						c-0.31,0.76-0.63,1.52-0.69,2.32C107.92,149.78,110.05,149.78,110.12,148.76L110.12,148.76z"/>
				</g>
			</g>
		</g>
		<g>
			<g>
				<path d="M60.19,47.19c1.42,0,1.42-1.65,0-1.65C58.77,45.54,58.77,47.19,60.19,47.19L60.19,47.19z"/>
			</g>
		</g>
		<g>
			<path class="st37" d="M90.84,97.59c-3.6,2.69-7.47,4.15-11.56,5.9c-2.3,0.99-5.51,1.57-7.93,0.76c-1.82-0.61-3.03-2.06-4.07-3.47
				C51.38,79.11,39.6,61.27,30.06,33.34c-1.51-4.41-1.26-9.27,0.52-13.57s6.25-8.06,11.66-8.3c4.14-0.19,8.15,1.69,11.01,4.25
				c2.87,2.56,4.77,5.76,6.58,8.93c13.08,22.99,23.12,46.52,32.08,72.78"/>
			<g>
				<path class="st37" d="M90.09,97.03c-3.34,2.48-7.52,4.25-11.64,5.9c-1.79,0.72-4.08,1.19-6.09,0.76
					c-2.05-0.44-3.19-1.99-4.16-3.3c-4.17-5.66-8.24-11.36-12.11-17.14c-3.73-5.58-7.25-11.24-10.44-17
					c-3.41-6.16-6.44-12.44-9.12-18.79c-1.47-3.5-2.84-7.02-4.12-10.55c-0.66-1.82-1.39-3.66-1.82-5.52
					c-0.43-1.83-0.54-3.71-0.39-5.57c0.26-3.39,1.33-6.91,3.99-9.72c2.2-2.32,5.68-4.13,9.63-3.81c4.48,0.37,8.06,3.05,10.4,5.74
					c2.67,3.06,4.45,6.54,6.31,9.9c3.78,6.8,7.32,13.68,10.62,20.62c3.34,7.01,6.44,14.08,9.34,21.19
					c3.01,7.39,5.81,14.82,8.45,22.29c0.66,1.87,1.31,3.74,1.95,5.62c0.34,0.99,2.39,0.57,2.05-0.42
					c-2.67-7.82-5.51-15.62-8.57-23.36c-2.93-7.42-6.08-14.8-9.47-22.12c-3.34-7.21-6.93-14.36-10.78-21.44
					c-1.9-3.49-3.73-7.05-6.03-10.41c-2.18-3.2-5.11-6.33-9.44-8.06c-3.88-1.55-8.37-1.55-12.07,0.3c-3.61,1.81-5.98,4.73-7.18,7.8
					c-1.45,3.71-1.76,7.66-0.96,11.47c0.41,1.97,1.19,3.89,1.88,5.82c0.67,1.85,1.36,3.7,2.08,5.54c2.64,6.77,5.66,13.46,9.11,20.03
					c3.2,6.1,6.75,12.09,10.58,17.98c3.87,5.95,8,11.8,12.23,17.62c2.02,2.78,3.94,6.6,8.74,7.01c2.29,0.19,4.67-0.35,6.66-1.17
					c2.08-0.86,4.16-1.73,6.16-2.69c2.05-0.98,3.98-2.1,5.71-3.38C92.57,97.43,91.06,96.31,90.09,97.03L90.09,97.03z"/>
			</g>
		</g>
		<g id="Ebene_9_8_">
			<g>
				<path class="st38" d="M92.3,98.5c2.63,7.95,7.13,14.94,9.76,22.89c0.25,0.74,1.15,2.38,0.99,3.13
					c-0.34,1.59-4.83,2.57-6.57,3.23c-2.1,0.8-5.46,2.91-7.62,2.18c-1.65-0.56-4.21-4.37-4.21-4.37
					c-5.08-6.53-8.66-13.13-13.74-19.66c8.14,0,14.73-4.46,21.43-7.82"/>
				<g>
					<path class="st38" d="M91.28,98.71c1.69,5.07,4.22,9.94,6.5,14.87c1.13,2.44,2.19,4.91,3.06,7.41
						c0.31,0.89,0.74,1.76,1.03,2.66c0.23,0.7,0.15,1.01-0.64,1.48c-1.64,0.96-3.76,1.3-5.56,2.04c-1.13,0.46-2.18,1.02-3.32,1.47
						c-0.81,0.33-2.02,0.84-2.97,0.57c-0.49-0.14-1.08-0.73-1.49-1.16c-0.59-0.63-1.12-1.28-1.63-1.95
						c-1.12-1.49-2.24-2.99-3.31-4.5c-3.78-5.34-7.05-10.88-11.11-16.11c-0.31,0.4-0.61,0.8-0.92,1.2
						c8.57-0.05,15.25-4.55,21.97-7.93c1.13-0.57,0.07-1.95-1.07-1.37c-6.34,3.19-12.8,7.67-20.9,7.71c-0.81,0-1.32,0.67-0.92,1.2
						c3.82,4.93,6.95,10.12,10.45,15.17c1.21,1.75,2.51,3.46,3.78,5.19c0.96,1.31,2.07,2.92,3.75,3.79c2.18,1.13,5.07-0.23,6.96-1.1
						c0.96-0.44,1.89-0.88,2.93-1.21c1.1-0.35,2.22-0.67,3.28-1.1c0.97-0.39,2-0.9,2.57-1.63c0.64-0.82,0.38-1.74,0.04-2.6
						c-0.9-2.32-1.74-4.66-2.73-6.96c-2.53-5.86-5.71-11.57-7.71-17.56C93,97.29,90.95,97.71,91.28,98.71L91.28,98.71z"/>
				</g>
			</g>
		</g>
		<g id="Ebene_4_7_">
			<g>
				<g>
					<path d="M117.04,138c-4.62-1.53-7.47-4.77-9.53-8.08c-2-3.22-3.31-6.65-4.66-10.04c-2.42-6.06-4.69-12.15-6.94-18.24
						c-2.47-6.69-4.9-13.39-7.4-20.08c-2.51-6.73-5.08-13.46-7.8-20.15c-2.56-6.28-5.25-12.53-8.24-18.7
						c-2.59-5.34-5.38-10.64-8.71-15.74c-2.56-3.93-5.43-7.82-9.21-11.18c-2.55-2.27-5.85-4.53-9.87-5.12
						c-3.83-0.56-7.53,0.58-10.38,2.48c-2.79,1.87-4.47,4.49-5.31,7.18c-1.03,3.31-1.01,6.78-0.57,10.14
						c0.55,4.21,1.74,8.37,3.21,12.46c1.7,4.72,3.8,9.36,6.1,13.93c2.51,5,5.27,9.93,8.18,14.81c2.96,4.98,6.09,9.9,9.32,14.78
						c3.12,4.72,6.35,9.4,9.65,14.05c2.99,4.22,6.04,8.41,9.14,12.58c2.54,3.42,5.11,6.83,7.69,10.23c1.81,2.39,3.64,4.77,5.42,7.16
						c0.54,0.72,1.07,1.45,1.58,2.18c0.16,0.24,0.32,0.47,0.47,0.71c0.03,0.04,0.05,0.09,0.08,0.13c0.08,0.13-0.11-0.23-0.03-0.06
						c0.23,0.54,0.48,1.07,0.68,1.61c1.68,4.41,1.7,8.97,0.71,13.47c-0.22,1,1.83,1.43,2.05,0.42c1.01-4.58,1.09-9.22-0.5-13.74
						c-0.39-1.12-0.83-2.19-1.53-3.21c-1.19-1.75-2.52-3.44-3.81-5.15c-2.18-2.87-4.36-5.74-6.53-8.61
						c-2.82-3.74-5.61-7.49-8.36-11.25c-3.2-4.38-6.34-8.79-9.41-13.23c-3.29-4.76-6.49-9.56-9.57-14.4
						c-3.09-4.86-6.07-9.76-8.84-14.73c-2.64-4.72-5.12-9.5-7.29-14.36c-1.95-4.36-3.68-8.78-4.93-13.29
						c-1.02-3.71-1.74-7.45-1.63-11.26c0.04-1.64,0.22-3.06,0.65-4.59c0.2-0.7,0.45-1.4,0.76-2.07c0.33-0.71,0.52-1.06,1-1.74
						c0.85-1.23,1.65-2.03,2.99-2.95c1.18-0.81,2.84-1.59,4.37-1.95c1.54-0.36,3.03-0.4,4.48-0.13c1.66,0.3,3.17,0.93,4.57,1.73
						c3.79,2.18,6.68,5.43,9.11,8.54c3.45,4.42,6.25,9.13,8.79,13.87c3.1,5.78,5.82,11.68,8.38,17.6c2.8,6.49,5.4,13.03,7.91,19.58
						c2.57,6.71,5.04,13.44,7.51,20.16c2.34,6.37,4.66,12.74,7.09,19.09c1.1,2.89,2.22,5.78,3.38,8.65
						c1.43,3.53,2.88,7.09,5.16,10.38c2.14,3.09,5.17,6.03,9.53,7.48C117.21,139.78,118.29,138.41,117.04,138L117.04,138z"/>
				</g>
			</g>
			<g>
				<g>
					<path d="M115.44,138.69c-1.08,6.21-0.63,12.64,1.13,18.75c0.49,1.7,1.1,3.37,1.85,5.01c0.16-0.3,0.33-0.6,0.49-0.9
						c-2,0.72-3.81,1.68-5.81,2.39c0.48,0.1,0.97,0.19,1.45,0.29c-3.29-5.76-9.23-10.36-16.25-13.68c-1.97-0.93-4.01-1.76-6.11-2.51
						c-1.23-0.44-2.31,0.93-1.07,1.37c7.12,2.54,13.76,6.11,18.25,11.03c1.32,1.44,2.43,2.98,3.35,4.59
						c0.24,0.42,0.99,0.45,1.45,0.29c2-0.72,3.81-1.68,5.81-2.39c0.4-0.14,0.63-0.59,0.49-0.9c-3.39-7.38-4.25-15.62-2.9-23.34
						c0.07-0.43-0.54-0.79-1.06-0.79C115.87,137.89,115.52,138.26,115.44,138.69L115.44,138.69z"/>
				</g>
			</g>
			<g>
				<g>
					<path d="M117.07,162.4c-1.66-3.2-3.34-6.41-4.83-9.66c-0.26-0.56-0.52-1.12-0.72-1.69c-0.02-0.07-0.05-0.14-0.07-0.22
						c-0.01-0.05-0.06-0.25-0.03-0.09c0.02,0.15-0.01-0.21-0.01-0.28c0-0.18,0.01-0.36,0.02-0.55c0.13-2.11,0.53-4.45-0.51-6.48
						c-0.51-0.99-1.43-1.86-2.88-2.11c-1.93-0.32-4.2,0.41-5.64,1.33c-2.06,1.32-1.65,3.31-0.27,4.84c1.87,2.06,4.71,3.61,7.44,4.98
						c1.14,0.57,2.21-0.81,1.07-1.37c-2.28-1.14-4.6-2.41-6.31-4.04c-0.97-0.92-1.96-2.24-0.56-3.2c0.7-0.47,1.66-0.78,2.57-0.95
						c0.56-0.1,1.01-0.12,1.5,0.02c-0.2-0.05,0.1,0.04,0.16,0.07c0.25,0.11,0.01-0.02,0.18,0.09c0.29,0.2,0.23,0.14,0.39,0.34
						c0.16,0.2,0.26,0.35,0.31,0.45c0.11,0.23,0.2,0.46,0.28,0.7c0.53,1.74,0.19,3.75,0.12,5.62c-0.04,0.98,0.4,1.87,0.81,2.78
						c1.5,3.31,3.22,6.56,4.91,9.82C115.51,163.76,117.57,163.35,117.07,162.4L117.07,162.4z"/>
				</g>
			</g>
			<g>
				<g>
					<path d="M102.71,124.1c-2.92,3.22-8.63,5.38-13.85,5.03c-1.36-0.09-1.35,1.5,0,1.59c5.97,0.41,12.37-2.16,15.68-5.82
						C105.32,124.05,103.47,123.25,102.71,124.1L102.71,124.1z"/>
				</g>
			</g>
			<g>
				<g>
					<path d="M92.26,96.12c-6.1,4.27-14.24,8.27-22.92,8.1c-1.37-0.03-1.37,1.56,0,1.59c9.25,0.17,17.91-4.01,24.42-8.57
						C94.76,96.54,93.25,95.42,92.26,96.12L92.26,96.12z"/>
				</g>
			</g>
		</g>
	</g>
</g>
<g id="Ebene_10_4_">
</g>
<g id="Ebene_8_6_">
</g>
<g id="Ebene_19_1_">
</g>
<g id="Ebene_23_1_">
</g>
<g id="Ebene_25">
</g>
<g id="Ebene_11_1_">
</g>
<g id="Ebene_12_1_">
</g>
</svg>
