<?xml version="1.0" encoding="utf-8"?>
<!-- Generator: Adobe Adobe Illustrator 24.2.0, SVG Export Plug-In . SVG Version: 6.00 Build 0)  -->
<svg version="1.1" xmlns="http://www.w3.org/2000/svg" xmlns:xlink="http://www.w3.org/1999/xlink" x="0px" y="0px"
	 viewBox="0 0 170.08 170.08" style="enable-background:new 0 0 170.08 170.08;" xml:space="preserve">
<style type="text/css">
	.st0{fill:#592F7D;}
	.st1{fill:#5A2F7C;}
	.st2{fill:#D3E1EB;}
	.st3{fill:#D3E1ED;}
	.st4{fill:#5C646E;stroke:#000000;stroke-width:2.7043;stroke-miterlimit:10;}
	.st5{fill:#B6D2E0;stroke:#000000;stroke-width:2.1378;stroke-miterlimit:10;}
	.st6{fill:#3D4D5B;}
	.st7{opacity:0.0784;}
	.st8{opacity:0.1216;}
	.st9{fill:#FFFFFF;}
	.st10{fill:#7E8D9C;}
	.st11{fill:#D3E1EC;}
	.st12{fill:#808E9C;}
	.st13{fill:#F3C159;}
	.st14{fill:#F3C158;}
	.st15{opacity:0.2784;}
	.st16{fill:#ECC9AD;}
	.st17{opacity:0.1608;}
	.st18{opacity:0.1686;}
	.st19{fill:#F0F6FA;}
	.st20{opacity:0.149;}
	.st21{opacity:0.0314;}
	.st22{stroke:#000000;stroke-width:0.0649;stroke-miterlimit:10;}
	.st23{fill:#F0F6FA;stroke:#F0F6FA;stroke-width:1.1522;stroke-miterlimit:10;}
	.st24{fill:#C8354F;}
	.st25{fill:#C93550;}
	.st26{fill:#6DB671;}
	.st27{fill:#6CB671;}
	.st28{fill:#D1DFEA;}
	.st29{fill:#C8354E;}
	.st30{fill:#F3C058;}
	.st31{fill:#C8AE9D;}
	.st32{opacity:0.1412;}
	.st33{fill:#D15238;}
	.st34{fill:#D15239;}
	.st35{opacity:0.9882;}
	.st36{fill:#ADBECF;}
	.st37{fill:#F3C057;}
	.st38{fill:#F7D98D;}
	.st39{fill:#AEBFCE;}
	.st40{opacity:0.2706;}
	.st41{fill:#3D4C5B;}
</style>
<g id="Ebene_6_11_">
</g>
<g id="Ebene_13_1_">
	<g>
		<g>
			<path class="st10" d="M33.1,83.3c-8.79,9.85-24.39,23.31-4.43,36.76c17.38,11.71,28.43-3.1,36.52-11.54"/>
			<g>
				<path d="M32.5,82.71c-3.75,4.2-7.84,8.18-10.9,12.95c-1.43,2.24-2.65,4.69-3.18,7.31c-0.53,2.61-0.35,5.31,0.66,7.78
					c1.3,3.18,3.66,5.79,6.31,7.94c3.06,2.48,6.52,4.61,10.32,5.74c2.93,0.87,6.02,1.05,9.02,0.45c2.76-0.55,5.36-1.75,7.71-3.27
					c4.65-3.01,8.36-7.17,12.11-11.18c0.41-0.44,0.82-0.88,1.24-1.31c0.75-0.78-0.44-1.97-1.19-1.19
					c-3.58,3.73-6.94,7.74-11.08,10.88c-4.29,3.25-9.44,5.43-14.92,4.55c-3.45-0.56-6.62-2.09-9.49-4.02
					c-2.93-1.97-5.77-4.37-7.57-7.44c-1.3-2.21-1.89-4.64-1.66-7.17c0.21-2.36,1.17-4.72,2.36-6.81c2.68-4.73,6.57-8.64,10.22-12.62
					c0.42-0.46,0.84-0.92,1.26-1.39C34.41,83.09,33.22,81.9,32.5,82.71L32.5,82.71z"/>
			</g>
		</g>
		<g>
			<path class="st6" d="M55.34,90C39.26,77.4,35.97,72.29,31.72,77.58c-4.88,6.07,35.6,36.58,40.82,31.64
				c4.51-4.27-0.64-5.85-17.27-19.34"/>
			<g>
				<path d="M55.93,89.4c-3.06-2.4-6.07-4.86-9.07-7.34c-2.04-1.68-4.08-3.4-6.23-4.94c-2.2-1.58-5.22-3.51-7.86-1.72
					c-0.93,0.63-2.02,1.62-2.25,2.78c-0.21,1.1,0.16,2.19,0.62,3.18c0.6,1.28,1.45,2.44,2.33,3.54c1.12,1.41,2.34,2.73,3.61,4.01
					c3.09,3.1,6.44,5.94,9.89,8.62c3.59,2.78,7.3,5.41,11.18,7.77c3.02,1.84,6.19,3.64,9.57,4.71c1.08,0.34,2.27,0.65,3.41,0.56
					c1.15-0.09,1.92-0.61,2.66-1.47c0.76-0.9,1.28-1.94,1.08-3.14c-0.21-1.2-1.09-2.21-1.92-3.04c-1.42-1.43-3.04-2.66-4.63-3.9
					c-2.55-1.98-5.12-3.93-7.66-5.92c-1.61-1.26-3.22-2.54-4.81-3.84c-0.35-0.29-0.85-0.34-1.19,0c-0.3,0.3-0.36,0.9,0,1.19
					c2.95,2.39,5.94,4.73,8.96,7.05c2,1.53,4.01,3.05,5.95,4.65c0.67,0.56,1.34,1.12,1.96,1.73c0.25,0.24,0.49,0.49,0.72,0.75
					c0.1,0.11,0.19,0.23,0.29,0.35c0.08,0.1-0.1-0.14,0.02,0.03c0.05,0.06,0.09,0.13,0.14,0.19c0.14,0.21,0.26,0.43,0.38,0.65
					c0.1,0.2-0.03-0.11,0,0c0.01,0.05,0.04,0.09,0.05,0.14c0.03,0.1,0.06,0.21,0.08,0.31c0.04,0.14,0,0.07,0-0.05
					c0,0.05,0.01,0.1,0.01,0.15c0,0.1-0.01,0.2,0,0.3c0,0.2,0.04-0.12,0.01-0.04c-0.02,0.04-0.02,0.09-0.03,0.13
					c-0.03,0.1-0.06,0.2-0.09,0.3c-0.05,0.18,0.07-0.14,0.02-0.03c-0.02,0.04-0.04,0.09-0.07,0.14c-0.06,0.11-0.12,0.22-0.19,0.32
					c-0.07,0.1-0.14,0.2-0.21,0.3c0.1-0.13,0.07-0.08-0.01,0.01c-0.05,0.06-0.1,0.12-0.15,0.18c-0.19,0.22-0.4,0.41-0.61,0.62
					c-0.15,0.15,0.17-0.08-0.04,0.03c-0.07,0.04-0.15,0.08-0.22,0.12c-0.1,0.06,0.23-0.07,0.07-0.03c-0.04,0.01-0.07,0.03-0.11,0.04
					c-0.1,0.03-0.19,0.05-0.29,0.07c-0.29,0.07,0.13,0-0.09,0.02c-0.11,0.01-0.21,0.02-0.32,0.02c-0.22,0-0.45-0.01-0.67-0.03
					c-0.06-0.01-0.13-0.02-0.19-0.02c0.06,0.01,0.17,0.03-0.01,0c-0.14-0.02-0.27-0.05-0.41-0.07c-0.6-0.12-1.19-0.29-1.77-0.49
					c-0.32-0.11-0.64-0.22-0.95-0.35c-0.18-0.07-0.35-0.14-0.53-0.21c-0.05-0.02-0.29-0.12-0.1-0.04c-0.1-0.04-0.2-0.09-0.3-0.13
					c-1.6-0.7-3.15-1.51-4.67-2.36c-3.67-2.07-7.19-4.43-10.58-6.93c-3.46-2.55-6.85-5.29-10.05-8.25c-1.41-1.3-2.78-2.65-4.08-4.06
					c-0.56-0.61-1.1-1.23-1.63-1.88c-0.13-0.16-0.25-0.31-0.38-0.47c-0.09-0.11,0.07,0.09-0.07-0.09c-0.06-0.08-0.13-0.17-0.19-0.25
					c-0.21-0.28-0.41-0.56-0.6-0.84c-0.35-0.52-0.69-1.05-0.97-1.61c-0.06-0.13-0.13-0.26-0.19-0.39c-0.03-0.06-0.05-0.11-0.07-0.17
					c0.09,0.19,0.02,0.06-0.02-0.04c-0.08-0.22-0.16-0.44-0.22-0.66c-0.03-0.1-0.05-0.21-0.07-0.31c-0.01-0.05-0.02-0.11-0.03-0.16
					c0.03,0.16,0.01,0.16,0.01,0.02c-0.01-0.18,0.02-0.37,0-0.55c0.03,0.29-0.01,0.08,0.02-0.06c0.03-0.12,0.17-0.34,0.01-0.09
					c0.04-0.06,0.07-0.14,0.11-0.2c0.02-0.03,0.05-0.06,0.06-0.1c0.06-0.11-0.15,0.18,0.02-0.02c0.23-0.27,0.45-0.53,0.71-0.77
					c0.1-0.1,0.21-0.19,0.31-0.28c0.08-0.07,0.17-0.13,0.02-0.02c0.06-0.05,0.13-0.1,0.2-0.14c0.11-0.07,0.22-0.14,0.34-0.21
					c0.11-0.06,0.43-0.19,0.2-0.1c0.24-0.08,0.47-0.15,0.72-0.2c-0.31,0.06,0.09,0,0.18,0c0.13,0,0.27,0.01,0.4,0.02
					c0.24,0.01-0.07-0.02,0.03,0c0.06,0.01,0.12,0.02,0.19,0.03c0.15,0.03,0.29,0.07,0.43,0.11c0.14,0.04,0.28,0.09,0.42,0.14
					c0.08,0.03,0.15,0.06,0.23,0.09c-0.19-0.08,0.01,0.01,0.09,0.04c0.33,0.15,0.66,0.32,0.97,0.51c1.78,1.03,3.31,2.28,4.88,3.54
					c2.47,1.99,4.9,4.03,7.36,6.03c1.55,1.26,3.11,2.5,4.68,3.74c0.36,0.28,0.84,0.35,1.19,0C56.23,90.3,56.29,89.69,55.93,89.4
					L55.93,89.4z"/>
			</g>
		</g>
		<g>
			<path class="st11" d="M42.51,78.62c13.34-14.88,14.45-16.15,17.69-13.2c2.19,1.99,1.89,1.1-12.73,17.99"/>
			<g>
				<path d="M43.11,79.22c2.24-2.5,4.47-5,6.74-7.46c1.43-1.56,2.88-3.12,4.43-4.56c0.27-0.25,0.55-0.5,0.83-0.74
					c0.12-0.1,0.24-0.2,0.36-0.3c0.06-0.05,0.12-0.1,0.18-0.15c0.09-0.07-0.13,0.1-0.04,0.03c0.04-0.03,0.07-0.06,0.11-0.08
					c0.4-0.3,0.82-0.56,1.26-0.78c0.23-0.12-0.17,0.05,0.09-0.04c0.09-0.03,0.19-0.06,0.28-0.09c0.08-0.02,0.16-0.03,0.24-0.05
					c0.15-0.05-0.22,0-0.07,0.01c0.04,0,0.09-0.01,0.14-0.01c0.07,0,0.15,0,0.22,0c0.26,0-0.13-0.05,0.05,0
					c0.15,0.04,0.3,0.09,0.45,0.13c-0.24-0.08-0.08-0.04,0.04,0.02c0.08,0.04,0.16,0.09,0.24,0.13c0.07,0.04,0.14,0.09,0.21,0.14
					c0.07,0.05,0.35,0.27,0.1,0.07c0.28,0.22,0.55,0.46,0.81,0.7c0.16,0.15,0.32,0.3,0.48,0.46c0.18,0.19-0.11-0.19,0.04,0.06
					c0.02,0.03,0.03,0.08,0.06,0.1c0.09,0.1-0.09-0.24-0.03-0.06c0.01,0.03,0.03,0.08,0.03,0.11c0.01,0.08-0.08-0.27-0.02-0.07
					c0.01,0.03-0.02,0.1-0.01,0.13c-0.03-0.06,0.06-0.25,0-0.05c-0.02,0.05-0.03,0.1-0.04,0.15c-0.01,0.03-0.02,0.05-0.03,0.08
					c-0.03,0.15,0.1-0.19,0.04-0.08c-0.07,0.12-0.13,0.26-0.2,0.39c-0.2,0.35-0.44,0.67-0.68,0.99c-0.03,0.04-0.07,0.09-0.1,0.13
					c0.16-0.2,0.02-0.03-0.02,0.02c-0.09,0.12-0.19,0.23-0.28,0.35c-0.2,0.25-0.41,0.49-0.61,0.74c-3.14,3.72-6.44,7.32-9.64,10.99
					c-0.64,0.73-1.27,1.46-1.91,2.19c-0.71,0.82,0.48,2.01,1.19,1.19c3.66-4.23,7.41-8.37,11.05-12.61c0.79-0.92,1.6-1.84,2.26-2.85
					c0.35-0.53,0.68-1.15,0.65-1.81c-0.02-0.6-0.37-1.09-0.79-1.49c-0.53-0.51-1.1-1.03-1.74-1.42c-1.93-1.16-3.82-0.03-5.36,1.23
					c-1.44,1.19-2.74,2.56-4.02,3.91c-2.11,2.24-4.17,4.54-6.22,6.83c-0.67,0.74-1.33,1.48-2,2.23
					C41.19,78.83,42.38,80.03,43.11,79.22L43.11,79.22z"/>
			</g>
		</g>
		<g>
			<path class="st11" d="M62.66,94.51c14.02-14.31,14.56-15.53,17.32-13.11c3.05,2.67,1.75,2.05-12.1,18.08"/>
			<g>
				<path d="M63.26,95.1c3.73-3.81,7.36-7.75,11.26-11.4c0.5-0.47,1.01-0.93,1.54-1.36c0.1-0.08,0.19-0.16,0.29-0.23
					c-0.21,0.16,0.12-0.09,0.18-0.13c0.19-0.13,0.38-0.26,0.57-0.37c0.16-0.09,0.33-0.17,0.49-0.25c-0.15,0.08-0.11,0.04,0.05-0.01
					c0.07-0.02,0.15-0.04,0.22-0.06c0.15-0.04,0.23,0.01,0-0.01c0.06,0.01,0.14-0.01,0.2-0.01c0.06,0,0.13,0.02,0.19,0.01
					c-0.12,0.02-0.2-0.05-0.01,0.01c0.06,0.02,0.12,0.04,0.18,0.05c0.23,0.06-0.12-0.07,0.01,0c0.12,0.07,0.24,0.13,0.36,0.2
					c0.06,0.04,0.13,0.09,0.19,0.13c0.21,0.15-0.12-0.1,0.05,0.04c0.13,0.11,0.27,0.22,0.4,0.34c0.25,0.22,0.49,0.43,0.72,0.67
					c0.05,0.05,0.09,0.1,0.14,0.15c0.13,0.14,0.05,0.11,0.01,0c0.03,0.09,0.13,0.22,0.19,0.3c0.11,0.15-0.04-0.2-0.02-0.04
					c0.01,0.04,0.03,0.12,0.04,0.16c0.07,0.16,0.01-0.24-0.01-0.05c-0.01,0.05-0.01,0.13,0,0.18c0.02,0.12,0.07-0.25,0-0.04
					c-0.02,0.06-0.03,0.13-0.05,0.19c-0.02,0.07-0.05,0.14-0.08,0.2c0.09-0.26,0.03-0.07-0.03,0.04c-0.18,0.36-0.42,0.69-0.65,1.01
					c-0.07,0.09-0.25,0.32-0.12,0.16c-0.09,0.11-0.18,0.22-0.27,0.34c-0.2,0.24-0.4,0.49-0.61,0.72c-3.11,3.64-6.41,7.12-9.56,10.72
					c-0.62,0.71-1.23,1.42-1.85,2.13c-0.71,0.82,0.48,2.01,1.19,1.19c3.58-4.14,7.3-8.15,10.91-12.27c0.79-0.9,1.62-1.82,2.25-2.86
					c0.39-0.65,0.67-1.39,0.49-2.15c-0.16-0.65-0.64-1.16-1.11-1.6c-0.52-0.48-1.08-1.01-1.73-1.32c-1.85-0.88-3.58,0.54-4.92,1.7
					c-1.38,1.2-2.67,2.5-3.95,3.8c-2.12,2.14-4.22,4.31-6.32,6.47c-0.68,0.69-1.35,1.38-2.03,2.07C61.3,94.69,62.5,95.88,63.26,95.1
					L63.26,95.1z"/>
			</g>
		</g>
		<g>
			<path d="M22.48,114.69c-0.8,0.44-3.63,3.33-2.97,5.01c0.6,1.54,8.58,6.03,9.06,6.26c1.21,0.59,3.62-2.37,4.18-3.56"/>
			<g>
				<path d="M22.05,113.96c-0.7,0.4-1.31,1.06-1.82,1.68c-0.67,0.81-1.35,1.74-1.58,2.78c-0.2,0.87-0.03,1.64,0.55,2.31
					c0.47,0.55,1.08,0.99,1.66,1.42c1.48,1.11,3.06,2.08,4.65,3.03c0.63,0.37,1.25,0.74,1.89,1.1c0.36,0.21,0.75,0.47,1.16,0.56
					c1.12,0.25,2.2-0.67,2.93-1.4c0.76-0.75,1.51-1.65,1.98-2.62c0.47-0.97-0.98-1.82-1.46-0.85c-0.34,0.7-0.84,1.33-1.36,1.9
					c-0.3,0.33-0.62,0.65-0.98,0.92c-0.32,0.24-0.52,0.27-0.81,0.41c0.16-0.07-0.09-0.02,0.11,0c-0.17-0.02,0.02,0.03,0,0.02
					c-0.03-0.02-0.07-0.04-0.11-0.06c-0.16-0.09-0.32-0.17-0.47-0.26c-0.54-0.3-1.07-0.61-1.6-0.92c-1.42-0.84-2.84-1.71-4.2-2.65
					c-0.64-0.45-1.1-0.77-1.66-1.25c-0.19-0.17-0.37-0.36-0.55-0.54c-0.04-0.04-0.13-0.19,0,0.01c0-0.01-0.08-0.11-0.08-0.11
					c0,0-0.05-0.1-0.06-0.1c0.16,0.24,0.01,0.02-0.01-0.11c0.03,0.16,0-0.11,0-0.12c0.01-0.17,0-0.12,0.03-0.23
					c0.05-0.2,0.11-0.4,0.19-0.57c0.2-0.45,0.48-0.87,0.78-1.26c0.3-0.39,0.64-0.76,1-1.1c0.14-0.14,0.29-0.27,0.44-0.39
					c0.18-0.15-0.13,0.08,0.04-0.03c0.06-0.04,0.11-0.08,0.17-0.11C23.85,114.88,23,113.43,22.05,113.96L22.05,113.96z"/>
			</g>
		</g>
		<g>
			<path class="st12" d="M21.23,121.38c-3.55,5.04-11.15,17.07-7.3,26.41c2.95,7.17,11.73,11.21,19.85,11
				c8.12-0.22,15.59-3.89,22.16-8.23c21.02-13.89,42.32-38.26,58.08-35.28c21.97,4.15,13.41,29.89,11.93,37.69
				c-1.07,5.62,0.76,5.36,2.34,5.81c1.46,0.42,3.14,1.76,3.74-4.41c0.93-9.7,6.83-23.48-1.14-36
				c-10.52-16.51-28.24-10.59-33.15-8.12c-20.48,10.27-33.97,30.51-54.9,39.97c-12.95,5.86-20.82,0.27-22.4-3.4
				c-3.32-7.72,2.95-18.63,5.36-21.99"/>
			<g>
				<path d="M20.5,120.95c-3.8,5.39-7.3,11.56-8.24,18.17c-0.52,3.64-0.15,7.35,1.67,10.6c1.75,3.13,4.61,5.56,7.78,7.18
					c3.33,1.7,7.06,2.63,10.8,2.73c4.39,0.12,8.79-0.89,12.86-2.49c8-3.14,14.99-8.43,21.71-13.67
					c6.58-5.13,12.92-10.56,19.56-15.61c2.98-2.26,6.02-4.45,9.21-6.41c2.77-1.7,5.67-3.27,8.75-4.33c2.54-0.88,5.21-1.42,7.91-1.21
					c2.78,0.22,5.65,1.18,8.03,2.62c4.17,2.52,6.38,6.81,7.12,11.49c0.73,4.6,0.2,9.4-0.64,13.94c-0.36,1.97-0.8,3.92-1.25,5.86
					c-0.48,2.1-1.16,4.36-0.96,6.53c0.1,1.05,0.45,2.08,1.42,2.64c0.65,0.37,1.41,0.45,2.11,0.68c0.67,0.22,1.37,0.49,2.09,0.29
					c1.08-0.3,1.6-1.39,1.89-2.37c0.51-1.69,0.53-3.49,0.8-5.22c0.27-1.77,0.62-3.52,0.97-5.28c0.76-3.84,1.49-7.7,1.7-11.62
					c0.23-4.21-0.19-8.5-1.67-12.48c-1.42-3.83-3.74-7.4-6.69-10.24c-4.45-4.28-10.35-6.47-16.51-6.44
					c-4.38,0.02-8.81,1.02-12.81,2.81c-3.08,1.38-6.01,3.2-8.81,5.08c-3.34,2.23-6.52,4.69-9.62,7.24
					c-6.2,5.11-12.05,10.63-18.27,15.72c-3.08,2.52-6.26,4.93-9.6,7.11c-3.43,2.24-7.06,4.33-10.89,5.82
					c-5.68,2.21-13.27,3.03-18.08-1.45c-0.69-0.65-1.14-1.16-1.55-1.99c-0.68-1.34-0.92-2.94-0.96-4.43
					c-0.09-3.49,0.97-6.98,2.36-10.15c1.05-2.39,2.31-4.71,3.83-6.84c0.63-0.88-0.83-1.72-1.46-0.85c-1.56,2.19-2.86,4.59-3.92,7.05
					c-1.41,3.25-2.48,6.74-2.5,10.3c-0.02,2.69,0.59,5.47,2.44,7.5c1.62,1.8,3.88,3,6.19,3.67c7.7,2.21,15.58-1.35,22.12-5.17
					c6.85-4,12.99-9.07,18.96-14.27c6-5.23,11.86-10.64,18.28-15.35c3.2-2.35,6.54-4.53,10.05-6.41c0.91-0.49,1.83-0.96,2.78-1.36
					c-0.17,0.07,0.08-0.03,0.13-0.05c0.09-0.04,0.19-0.08,0.28-0.11c0.21-0.08,0.42-0.16,0.63-0.24c0.43-0.16,0.87-0.31,1.31-0.45
					c4.62-1.48,9.67-2.03,14.44-0.95c6.76,1.52,12.09,6.37,15.18,12.46c3.8,7.52,2.9,15.96,1.36,23.93
					c-0.34,1.78-0.71,3.56-1.03,5.35c-0.31,1.75-0.45,3.51-0.72,5.26c-0.11,0.69-0.24,1.47-0.51,2.08
					c-0.05,0.11-0.11,0.22-0.17,0.33c-0.03,0.05-0.19,0.27-0.09,0.15c-0.06,0.07-0.12,0.13-0.19,0.19c0.14-0.12,0,0.01-0.07,0.03
					c0.23-0.08,0,0-0.05,0.01c-0.11,0.02,0.18,0-0.04,0c-0.07,0-0.14,0-0.21-0.01c0.21,0.01,0.02,0-0.07-0.02
					c-0.31-0.08-0.6-0.19-0.9-0.29c-0.32-0.1-0.65-0.17-0.97-0.26c-0.17-0.04-0.33-0.09-0.49-0.14c-0.15-0.05-0.06-0.02-0.06-0.02
					c-0.08-0.04-0.16-0.09-0.24-0.14c-0.08-0.05,0.07,0.07-0.08-0.06c-0.04-0.04-0.19-0.23-0.08-0.08
					c-0.17-0.24-0.17-0.27-0.22-0.48c-0.15-0.61-0.13-1.24-0.08-1.87c0.15-1.89,0.68-3.76,1.1-5.61c0.98-4.32,1.84-8.69,2.03-13.13
					c0.2-4.72-0.37-9.74-2.88-13.85c-2.89-4.72-8.14-7.41-13.54-8.09c-5.86-0.73-11.69,1.9-16.63,4.75
					c-6.64,3.84-12.66,8.71-18.61,13.51c-6.48,5.23-12.88,10.6-19.71,15.38c-7.08,4.96-15.02,9.54-23.87,9.97
					c-6.93,0.34-14.89-2.37-18.69-8.5c-3.92-6.32-1.39-14.2,1.75-20.28c1.32-2.55,2.85-4.99,4.5-7.34
					C22.58,120.92,21.12,120.07,20.5,120.95L20.5,120.95z"/>
			</g>
		</g>
		<g>
			<path class="st13" d="M44.48,99.73c-3.18,0.84-6.36,1.68-9.54,2.51c1.44,1.22,2.88,2.45,4.32,3.68c-2.53,2.75-5.07,5.5-7.6,8.25
				c4.51-2.23,9.02-4.45,13.53-6.68c-1.34-1.09-2.69-2.19-4.03-3.28c1.32-1.5,2.64-3.01,3.96-4.51"/>
			<g>
				<path class="st14" d="M44.26,98.91c-3.18,0.84-6.36,1.68-9.54,2.51c-0.58,0.15-0.86,0.99-0.37,1.41
					c1.44,1.22,2.88,2.45,4.32,3.68c0-0.4,0-0.79,0-1.19c-2.53,2.75-5.07,5.5-7.6,8.25c-0.66,0.72,0.16,1.74,1.02,1.32
					c4.51-2.23,9.02-4.45,13.53-6.68c0.46-0.22,0.58-0.99,0.17-1.32c-1.34-1.09-2.69-2.19-4.03-3.28c0,0.4,0,0.79,0,1.19
					c1.32-1.5,2.64-3.01,3.96-4.51c0.71-0.81-0.48-2.01-1.19-1.19c-1.32,1.5-2.64,3.01-3.96,4.51c-0.28,0.32-0.37,0.89,0,1.19
					c1.34,1.09,2.69,2.19,4.03,3.28c0.06-0.44,0.11-0.88,0.17-1.32c-4.51,2.23-9.02,4.45-13.53,6.68c0.34,0.44,0.68,0.88,1.02,1.32
					c2.53-2.75,5.07-5.5,7.6-8.25c0.29-0.32,0.36-0.88,0-1.19c-1.44-1.22-2.88-2.45-4.32-3.68c-0.12,0.47-0.25,0.94-0.37,1.41
					c3.18-0.84,6.36-1.68,9.54-2.51C45.75,100.26,45.31,98.64,44.26,98.91L44.26,98.91z"/>
			</g>
		</g>
		<g class="st15">
			<path d="M57.43,64.84c-6.96,7.38-7.56,10.87-10,17.31c-3.16-2.47-4.66-2.68-4.02-3.44c4.07-4.87,8.49-9.36,13.95-14.67"/>
			<g>
				<path d="M56.83,64.25c-2.15,2.29-4.21,4.7-5.84,7.4c-1.2,1.99-2.11,4.13-2.92,6.31c-0.49,1.32-0.96,2.66-1.46,3.98
					c0.47-0.12,0.94-0.25,1.41-0.37c-1.2-0.93-2.48-1.72-3.73-2.58c-0.05-0.03-0.26-0.2-0.09-0.06c-0.05-0.04-0.1-0.1-0.16-0.14
					c-0.16-0.12,0.05,0.09,0,0.01c-0.02-0.04,0.06,0.24,0.06,0.21c0,0.07-0.06,0.28-0.05,0.23c0.06-0.14-0.17,0.19,0,0
					c0.07-0.08,0.14-0.16,0.2-0.24c0.31-0.36,0.61-0.73,0.93-1.09c2.47-2.87,5.08-5.63,7.75-8.32c1.66-1.67,3.33-3.32,5.02-4.96
					c0.78-0.76-0.42-1.95-1.19-1.19c-3.08,3-6.14,6.03-9.08,9.17c-1.35,1.44-2.67,2.91-3.95,4.41c-0.72,0.84-1.96,1.93-0.84,2.99
					c0.43,0.4,0.97,0.7,1.46,1.01c0.85,0.54,1.68,1.11,2.48,1.73c0.52,0.4,1.17,0.26,1.41-0.37c0.8-2.13,1.52-4.34,2.42-6.4
					c0.97-2.22,2.21-4.3,3.67-6.23c1.14-1.51,2.4-2.92,3.7-4.3C58.77,64.65,57.58,63.45,56.83,64.25L56.83,64.25z"/>
			</g>
		</g>
		<g class="st15">
			<path d="M78.05,80.82c-6.56,4.73-8.4,13.07-10.17,18.65c0.29-1.15-4.7-2.67-4.38-4.69c0.11-0.72,3.42-4.67,13.54-13.48"/>
			<g>
				<path d="M77.62,80.1c-5,3.63-7.5,9.3-9.29,15.02c-0.43,1.38-0.83,2.76-1.26,4.14c0.54,0.15,1.08,0.3,1.63,0.45
					c0.18-0.91-0.5-1.52-1.16-2.01c-0.7-0.52-1.52-0.98-2.19-1.48c-0.13-0.1-0.31-0.25-0.45-0.38c-0.08-0.07-0.15-0.14-0.22-0.22
					c-0.03-0.03-0.21-0.26-0.13-0.15c-0.05-0.07-0.1-0.15-0.14-0.23c-0.09-0.17,0.01,0.03-0.04-0.1c-0.01-0.03-0.02-0.07-0.03-0.1
					c-0.03-0.13,0.02,0.14,0,0.02c-0.02-0.12,0.07-0.27-0.01-0.04c0.08-0.24-0.11,0.16,0-0.01c0.06-0.1,0.12-0.2,0.18-0.3
					c0.09-0.14,0.19-0.27,0.28-0.4c0.12-0.16-0.11,0.13,0.07-0.09c0.07-0.09,0.15-0.18,0.22-0.27c0.37-0.44,0.75-0.87,1.15-1.3
					c1.26-1.36,2.58-2.66,3.92-3.94c2.44-2.32,4.95-4.57,7.49-6.78c0.82-0.71-0.38-1.9-1.19-1.19c-3.82,3.33-7.64,6.7-11.11,10.4
					c-0.76,0.81-1.52,1.64-2.17,2.55c-0.59,0.83-0.7,1.74-0.07,2.64c0.63,0.91,1.62,1.53,2.54,2.13c0.21,0.14,0.42,0.27,0.63,0.41
					c0.1,0.07,0.19,0.13,0.29,0.2c0.04,0.03,0.26,0.2,0.15,0.11c0.07,0.06,0.15,0.12,0.22,0.19c0.03,0.03,0.21,0.23,0.14,0.14
					c-0.08-0.11,0,0,0,0c0.01,0.01,0.02,0.03,0.03,0.04c0.03,0.06,0.03,0.06,0-0.01c-0.01,0.02-0.02-0.11-0.01-0.02
					c-0.03-0.24-0.05,0,0-0.24c-0.21,1.06,1.3,1.49,1.63,0.45c1.6-5.08,2.92-10.38,6.23-14.67c1.01-1.31,2.21-2.5,3.54-3.47
					c0.37-0.27,0.55-0.73,0.3-1.15C78.56,80.04,77.99,79.83,77.62,80.1L77.62,80.1z"/>
			</g>
		</g>
		<g class="st15">
			<path d="M34.66,76.59c8.31,14.29,22.16,25.77,38.27,31.72c-8.63,4.44-39.7-22.27-40.78-28.24c-0.32-1.76,0.77-2.49,2.65-4.01"/>
			<g>
				<path d="M33.94,77.01c3.32,5.69,7.47,10.91,12.22,15.48c4.83,4.64,10.29,8.65,16.16,11.89c3.34,1.84,6.82,3.42,10.4,4.74
					c-0.07-0.51-0.13-1.03-0.2-1.54c-0.04,0.02-0.11,0.08-0.16,0.08c-0.1,0.01,0.18-0.06-0.01,0c-0.13,0.04-0.25,0.09-0.38,0.13
					c-0.12,0.04-0.25,0.06-0.37,0.09c-0.06,0.01-0.13,0.02-0.19,0.04c-0.18,0.04,0.18-0.01-0.05,0.01
					c-0.61,0.05-1.21,0.03-1.82-0.03c-0.13-0.01,0.16,0.03-0.08-0.01c-0.08-0.01-0.16-0.03-0.24-0.04c-0.18-0.03-0.36-0.06-0.53-0.1
					c-0.36-0.08-0.72-0.17-1.08-0.27c-0.79-0.22-1.56-0.5-2.32-0.81c-0.38-0.15-0.64-0.26-1.1-0.47c-0.43-0.19-0.85-0.39-1.27-0.6
					c-0.89-0.44-1.77-0.92-2.64-1.41c-1.88-1.07-3.7-2.23-5.48-3.45c-3.74-2.56-7.28-5.34-10.69-8.32
					c-2.92-2.55-5.77-5.22-8.29-8.17c-0.25-0.29-0.49-0.58-0.72-0.87c-0.11-0.13-0.21-0.27-0.32-0.4c-0.07-0.09,0.09,0.12,0.02,0.02
					c-0.02-0.02-0.04-0.05-0.06-0.07c-0.06-0.08-0.12-0.16-0.18-0.24c-0.35-0.47-0.68-0.95-0.98-1.46c-0.12-0.2-0.23-0.4-0.33-0.61
					c-0.02-0.05-0.04-0.1-0.07-0.14c-0.09-0.18,0.05,0.15,0.01,0.03c-0.04-0.1-0.08-0.19-0.11-0.29c-0.26-0.81-0.05-1.42,0.54-2.02
					c0.55-0.56,1.19-1.03,1.8-1.53c0.35-0.29,0.3-0.89,0-1.19c-0.35-0.35-0.84-0.29-1.19,0c-1.1,0.89-2.59,1.86-2.88,3.35
					c-0.15,0.75-0.05,1.5,0.24,2.19c0.48,1.16,1.24,2.19,2.01,3.18c2.31,2.95,5.05,5.59,7.83,8.1c3.5,3.17,7.19,6.14,11.04,8.87
					c3.51,2.5,7.19,4.86,11.13,6.61c1.56,0.69,3.18,1.32,4.86,1.64c1.32,0.26,2.73,0.38,4.04-0.02c0.3-0.09,0.6-0.22,0.88-0.36
					c0.7-0.36,0.43-1.3-0.2-1.54c-6.18-2.29-12.03-5.41-17.4-9.22c-5.29-3.76-10.09-8.22-14.21-13.24
					c-2.29-2.79-4.35-5.76-6.16-8.87C34.85,75.23,33.39,76.08,33.94,77.01L33.94,77.01z"/>
			</g>
		</g>
		<g class="st15">
			<path d="M33.26,84.85c-5.46,5.45-9.41,13.9-8.23,21.41c1.18,7.51,7.46,13.94,14.4,17.96c-8.53-3.35-19.48-9.84-20.28-16.27
				c-0.98-7.82,7.17-16.75,13.81-23.41"/>
			<g>
				<path d="M32.67,84.26c-4.53,4.55-7.83,10.62-8.56,17.03c-0.35,3.08,0.03,6.21,1.19,9.09c1.17,2.92,2.97,5.54,5.12,7.84
					c2.49,2.66,5.44,4.91,8.59,6.74c0.22-0.51,0.43-1.03,0.65-1.54c-3.41-1.34-6.71-2.97-9.83-4.89c-2.88-1.77-5.75-3.83-7.86-6.5
					c-0.8-1.01-1.49-2.15-1.82-3.38c-0.35-1.3-0.29-2.82-0.01-4.22c0.7-3.5,2.64-6.67,4.73-9.51c2.58-3.52,5.62-6.68,8.69-9.77
					c0.77-0.77-0.43-1.96-1.19-1.19c-2.89,2.89-5.71,5.86-8.2,9.11c-2.31,3-4.46,6.33-5.44,10.03c-0.43,1.61-0.61,3.31-0.4,4.97
					c0.19,1.43,0.77,2.76,1.56,3.96c1.93,2.92,4.82,5.17,7.71,7.09c3.63,2.4,7.57,4.35,11.62,5.94c0.91,0.36,1.46-1.07,0.65-1.54
					c-5.15-3-9.95-7.21-12.53-12.66c-1.23-2.6-1.78-5.44-1.63-8.31c0.16-2.98,1.01-5.94,2.28-8.64c1.46-3.12,3.46-5.99,5.89-8.44
					C34.63,84.68,33.43,83.49,32.67,84.26L32.67,84.26z"/>
			</g>
		</g>
		<g class="st15">
			<g>
				<path d="M20.63,121.39c-3.94,5.76-7.97,11.89-8.27,19.07c-0.14,3.35,0.61,6.81,2.4,9.67c1.7,2.71,4.27,4.84,7.15,6.23
					c6.6,3.19,14.15,2.7,21.01,0.61c5.66-1.72,11-4.4,15.97-7.58c4.96-3.17,9.59-6.82,14.15-10.54c2.24-1.82,4.46-3.67,6.7-5.49
					c1.13-0.92,2.26-1.83,3.41-2.73c1.2-0.94,1.98-1.54,3.25-2.49c4.61-3.43,9.44-6.58,14.66-9c0.58-0.27,1.43-0.65,1.86-0.83
					c0.44-0.18,1.3-0.52,1.91-0.75c1.56-0.58,3.14-1.1,4.75-1.49c3.28-0.8,6.66-0.99,9.85,0.31c0.18,0.07,0.02,0.01-0.01-0.01
					c0.08,0.03,0.15,0.07,0.23,0.1c0.15,0.07,0.3,0.14,0.45,0.22c0.32,0.16,0.64,0.34,0.95,0.53c0.31,0.19,0.61,0.39,0.91,0.6
					c0.07,0.05,0.36,0.27,0.3,0.22c-0.12-0.1,0.09,0.08,0.09,0.08c0.08,0.07,0.17,0.14,0.26,0.21c0.55,0.47,1.07,0.98,1.56,1.52
					c0.56,0.62,0.71,0.81,1.18,1.5c1.73,2.55,2.66,5.25,2.97,8.34c0.74,7.41-1.77,14.48-2.8,21.76c-0.27,1.91-0.47,3.82-0.49,5.75
					c-0.01,0.91,0.78,1.68,1.69,1.68c0.92,0,1.68-0.77,1.69-1.68c0.08-7.48,2.76-14.65,3.32-22.12c0.27-3.59,0.05-7.33-1.14-10.75
					c-0.99-2.86-2.61-5.54-4.78-7.66c-2.24-2.19-5.11-3.8-8.22-4.34c-3.77-0.65-7.59-0.01-11.2,1.13
					c-5.6,1.77-10.88,4.48-15.79,7.66c-4.92,3.18-9.53,6.83-14.06,10.53c-2.24,1.83-4.46,3.67-6.7,5.49
					c-1.13,0.92-2.27,1.83-3.41,2.72c-0.26,0.21-0.53,0.41-0.79,0.62c-0.05,0.04-0.37,0.29-0.19,0.15
					c-0.15,0.12-0.31,0.24-0.46,0.36c-0.58,0.44-1.16,0.88-1.74,1.31c-4.61,3.41-9.46,6.55-14.68,8.94
					c-0.3,0.14-0.61,0.28-0.91,0.41c-0.15,0.07-0.31,0.13-0.46,0.2c-0.04,0.02-0.3,0.13-0.06,0.03c-0.1,0.04-0.21,0.09-0.31,0.13
					c-0.65,0.27-1.3,0.52-1.96,0.76c-1.56,0.57-3.14,1.08-4.75,1.49c-3.49,0.89-7.01,1.29-10.63,0.87c-2.97-0.35-5.74-1.37-8.2-3.05
					c-0.57-0.39-0.9-0.65-1.5-1.2c-0.27-0.25-0.54-0.52-0.79-0.79c-0.2-0.22-0.55-0.63-0.65-0.75c-0.87-1.11-1.57-2.52-1.98-3.88
					c-0.87-2.89-0.76-5.93,0-8.84c0.86-3.31,2.47-6.26,4.31-9.17c0.93-1.48,1.92-2.93,2.91-4.37c0.51-0.75,0.14-1.87-0.61-2.3
					C22.11,120.3,21.15,120.64,20.63,121.39L20.63,121.39z"/>
			</g>
		</g>
		<g class="st7">
			<g>
				<path class="st9" d="M58.69,107.31c-2.45,1.85-4.52,4.08-6.71,6.21c-0.53,0.51-1.06,1.02-1.61,1.5
					c-0.25,0.22-0.51,0.44-0.77,0.65c-0.12,0.1-0.24,0.2-0.36,0.29c-0.01,0.01-0.21,0.17-0.07,0.06c0.15-0.12-0.17,0.13-0.2,0.15
					c-1.09,0.8-2.25,1.51-3.49,2.06c-0.01,0.01-0.25,0.1-0.08,0.04c0.18-0.07-0.24,0.09-0.23,0.09c-0.17,0.06-0.34,0.12-0.51,0.18
					c-0.37,0.12-0.74,0.23-1.12,0.32c-0.18,0.04-0.36,0.08-0.53,0.11c-0.1,0.02-0.56,0.09-0.25,0.05c-0.42,0.05-0.84,0.08-1.26,0.08
					c-0.88,0.01-1.73,0.76-1.69,1.68c0.04,0.9,0.74,1.7,1.69,1.68c3.03-0.05,5.93-1.17,8.43-2.85c2.54-1.71,4.65-3.91,6.8-6.06
					c0.62-0.62,1.24-1.23,1.89-1.82c0.31-0.29,0.63-0.57,0.95-0.84c0.15-0.13,0.3-0.25,0.46-0.38c0.09-0.07,0.18-0.14,0.27-0.21
					c0.25-0.19-0.3,0.23,0.13-0.1c0.7-0.53,1.14-1.47,0.61-2.3C60.56,107.22,59.44,106.74,58.69,107.31L58.69,107.31z"/>
			</g>
		</g>
		<g class="st7">
			<g>
				<path class="st9" d="M53.39,93.76c4.2,3.3,8.4,6.59,12.6,9.89c0.69,0.54,1.72,0.72,2.39,0c0.56-0.61,0.74-1.8,0-2.38
					c-4.2-3.3-8.4-6.59-12.6-9.89c-0.69-0.54-1.72-0.72-2.39,0C52.83,91.99,52.65,93.18,53.39,93.76L53.39,93.76z"/>
			</g>
		</g>
		<g class="st7">
			<g>
				<path class="st9" d="M77.35,82.77c-0.83,1-1.67,2.01-2.5,3.01c-0.56,0.68-0.71,1.73,0,2.38c0.62,0.57,1.79,0.72,2.39,0
					c0.83-1,1.67-2.01,2.5-3.01c0.56-0.68,0.71-1.73,0-2.38C79.11,82.2,77.95,82.04,77.35,82.77L77.35,82.77z"/>
			</g>
		</g>
		<g class="st7">
			<g>
				<path class="st9" d="M57.17,66.59c-0.55,0.66-1.11,1.31-1.66,1.97c-0.57,0.67-0.71,1.73,0,2.38c0.63,0.57,1.78,0.72,2.39,0
					c0.55-0.66,1.11-1.31,1.66-1.97c0.57-0.67,0.71-1.73,0-2.38C58.93,66.02,57.78,65.87,57.17,66.59L57.17,66.59z"/>
			</g>
		</g>
		<g class="st7">
			<g>
				<path class="st9" d="M110.68,107.96c-5.58,0.58-10.77,2.9-15.54,5.74c-5.76,3.43-11.06,7.62-16.2,11.89
					c-3.22,2.67-6.38,5.41-9.54,8.15c-0.67,0.58-0.64,1.79,0,2.38c0.71,0.65,1.67,0.62,2.39,0c2.77-2.4,5.55-4.8,8.36-7.16
					c1.33-1.11,2.66-2.21,4.01-3.3c0.68-0.55,1.36-1.09,2.04-1.63c0.32-0.25,0.63-0.49,0.95-0.74c-0.03,0.02-0.16,0.12,0,0
					c0.09-0.07,0.18-0.14,0.27-0.21c0.18-0.14,0.36-0.27,0.54-0.41c2.5-1.89,5.06-3.71,7.73-5.37c1.24-0.77,2.51-1.5,3.8-2.19
					c0.61-0.32,1.22-0.63,1.84-0.93c0.29-0.14,0.59-0.28,0.88-0.41c0.15-0.07,0.29-0.13,0.44-0.2c0.08-0.04,0.66-0.28,0.29-0.12
					c1.32-0.54,2.65-1.02,4.03-1.4c0.66-0.18,1.34-0.34,2.01-0.48c0.32-0.06,0.64-0.12,0.97-0.17c0.08-0.01,0.16-0.02,0.24-0.04
					c0.32-0.05-0.24,0.02-0.03,0c0.18-0.02,0.36-0.04,0.54-0.06c0.88-0.09,1.73-0.71,1.69-1.68
					C112.33,108.81,111.62,107.86,110.68,107.96L110.68,107.96z"/>
			</g>
		</g>
	</g>
</g>
<g id="Ebene_9_6_">
</g>
<g id="Ebene_3">
	<g>
		<g id="Ebene_2_Kopie_1_">
			<g>
				<path class="st24" d="M114.13,84.75c4.24,1.6,17.11,6.51,19.1,4.88c3.23-2.66,18.63-38.01,17.26-41.04
					c-2.88-6.34-55.04-28.19-61.69-24.06c-6,3.72-11.51,39.73-10.55,42.33c1.44,3.93,10.75,5.28,14.26,8.39
					c1.56,1.39,6.06,14.93,8.13,15.48c1.17,0.31,9.77-3.09,13.36-6.03"/>
				<g>
					<path class="st25" d="M114.01,85.1c4.16,1.57,8.33,3.14,12.62,4.3c1.03,0.28,2.07,0.53,3.13,0.71c0.78,0.14,1.59,0.26,2.4,0.2
						c0.5-0.04,0.99-0.14,1.39-0.52c0.31-0.29,0.56-0.66,0.81-1.01c0.8-1.17,1.49-2.43,2.16-3.69c0.96-1.8,1.87-3.64,2.75-5.49
						c2.13-4.45,4.12-8.98,6.01-13.55c1.66-4.02,3.28-8.09,4.58-12.25c0.4-1.29,0.8-2.61,0.99-3.95c0.05-0.38,0.09-0.79,0.03-1.16
						c-0.06-0.32-0.24-0.6-0.42-0.85c-0.52-0.71-1.22-1.28-1.89-1.81c-1-0.78-2.06-1.47-3.13-2.13c-2.99-1.85-6.12-3.46-9.26-4.99
						c-3.85-1.88-7.77-3.63-11.71-5.29c-4.1-1.72-8.24-3.34-12.43-4.82c-3.74-1.33-7.52-2.57-11.36-3.58
						c-2.79-0.73-5.65-1.43-8.56-1.57c-0.89-0.04-1.82-0.04-2.71,0.22c-0.92,0.27-1.63,0.98-2.22,1.81
						c-0.95,1.33-1.63,2.89-2.24,4.43c-0.8,2.04-1.46,4.14-2.05,6.26c-1.37,4.88-2.41,9.85-3.29,14.82
						c-0.72,4.06-1.37,8.17-1.7,12.26c-0.08,1.04-0.21,2.16-0.06,3.19c0.09,0.66,0.49,1.23,0.89,1.68c0.74,0.84,1.68,1.43,2.63,1.95
						c2.36,1.27,4.91,2.1,7.35,3.18c1.08,0.48,2.16,1.01,3.12,1.73c0.33,0.25,0.45,0.33,0.67,0.64c0.17,0.24,0.31,0.48,0.45,0.75
						c0.99,1.83,1.77,3.82,2.61,5.75c0.92,2.13,1.82,4.28,2.92,6.29c0.37,0.68,0.77,1.4,1.29,1.95c0.4,0.42,0.78,0.6,1.36,0.53
						c0.86-0.11,1.72-0.41,2.55-0.71c1.24-0.44,2.47-0.94,3.69-1.49c2.34-1.05,4.75-2.24,6.82-3.92c0.36-0.29-0.06-0.82-0.42-0.54
						c-1,0.82-2.1,1.47-3.2,2.08c-1.25,0.69-2.52,1.31-3.81,1.88c-1.16,0.51-2.34,0.99-3.53,1.39c-0.73,0.25-1.61,0.57-2.31,0.59
						c-0.04,0-0.09,0-0.13,0c-0.12,0,0.02,0.01-0.06-0.01c-0.04-0.01-0.07-0.03-0.11-0.04c0.08,0.04-0.07-0.05-0.1-0.07
						c-0.2-0.15-0.35-0.33-0.52-0.56c-0.5-0.66-0.9-1.41-1.28-2.17c-1.06-2.08-1.98-4.26-2.91-6.43c-0.77-1.79-1.5-3.66-2.47-5.32
						c-0.38-0.64-0.84-1.06-1.43-1.47c-0.99-0.68-2.08-1.19-3.17-1.67c-2.41-1.05-4.94-1.86-7.24-3.15c-0.89-0.5-1.8-1.09-2.45-1.93
						c-0.12-0.16-0.24-0.33-0.34-0.52c-0.05-0.1-0.1-0.21-0.14-0.31c-0.01-0.02-0.06-0.18-0.02-0.04c-0.03-0.13-0.05-0.26-0.06-0.39
						c-0.03-0.38-0.03-0.81-0.01-1.3c0.03-0.66,0.07-1.32,0.13-1.98c0.16-1.84,0.39-3.67,0.65-5.5c0.67-4.78,1.54-9.55,2.59-14.27
						c0.99-4.45,2.11-8.96,3.82-13.2c0.58-1.44,1.24-2.91,2.17-4.14c0.28-0.37,0.7-0.82,1.06-1.04c0.06-0.04,0.12-0.07,0.19-0.11
						c0.03-0.01,0.06-0.03,0.09-0.04c0.1-0.05-0.04,0.01,0.07-0.03c0.16-0.06,0.32-0.11,0.48-0.15c0.44-0.11,0.7-0.13,1.15-0.15
						c0.52-0.02,1.04-0.01,1.55,0.03c1.28,0.09,2.54,0.29,3.78,0.53c3.45,0.68,6.83,1.66,10.16,2.73c4.04,1.29,8.04,2.74,11.99,4.29
						c4.07,1.59,8.1,3.28,12.08,5.08c3.54,1.6,7.05,3.28,10.47,5.13c2.47,1.33,4.96,2.72,7.2,4.46c0.38,0.29,0.75,0.6,1.1,0.94
						c0.07,0.06,0.06,0.06,0.16,0.16c0.07,0.07,0.14,0.14,0.2,0.22c0.11,0.13,0.22,0.26,0.32,0.39c0.04,0.06,0.08,0.12,0.12,0.18
						c0.02,0.03,0.04,0.06,0.06,0.09c-0.06-0.1,0,0.01,0.02,0.03c0.02,0.05,0.05,0.1,0.07,0.15c0.04,0.09-0.01-0.07,0,0.01
						c0.01,0.03,0.01,0.06,0.02,0.1c0.01,0.04,0.02,0.26,0.02,0.13c0,0.09,0,0.18,0,0.27c-0.01,0.22-0.04,0.45-0.07,0.67
						c-0.19,1.24-0.6,2.59-1.01,3.86c-0.6,1.89-1.27,3.76-1.97,5.62c-1.71,4.52-3.58,8.98-5.54,13.4c-1.77,4-3.61,7.97-5.66,11.82
						c-0.66,1.25-1.35,2.5-2.14,3.66c-0.27,0.39-0.4,0.59-0.71,0.89c-0.13,0.13-0.2,0.17-0.35,0.22c-0.28,0.09-0.49,0.11-0.77,0.12
						c-0.83,0.03-1.65-0.1-2.45-0.26c-1.06-0.2-2.1-0.47-3.14-0.76c-2.36-0.66-4.68-1.44-6.99-2.26c-1.74-0.62-3.47-1.27-5.2-1.92
						C113.85,84.25,113.62,84.95,114.01,85.1L114.01,85.1z"/>
				</g>
			</g>
		</g>
		<g id="Ebene_7">
			<g class="st20">
				<g>
					<path class="st9" d="M133.54,44.99c1.24,0.69,2.54,1.25,3.82,1.84c0.35,0.16,0.71,0.33,1.06,0.5c0.17,0.08,0.34,0.17,0.51,0.25
						c0.09,0.04,0.17,0.08,0.26,0.13c0.28,0.14-0.24-0.12,0.05,0.02c0.66,0.34,1.31,0.7,1.94,1.11c0.29,0.19,0.58,0.39,0.86,0.6
						c0.12,0.1,0.25,0.2,0.37,0.3c0.06,0.05,0.11,0.1,0.17,0.15c0.23,0.21-0.16-0.17-0.02-0.02c0.19,0.21,0.38,0.41,0.54,0.65
						c0.03,0.05,0.06,0.11,0.1,0.16c-0.06-0.06-0.17-0.32-0.08-0.12c0.05,0.12,0.09,0.27,0.15,0.37c-0.03-0.06-0.09-0.38-0.05-0.16
						c0.01,0.06,0.02,0.11,0.03,0.17c0.06,0.32,0.04-0.31,0-0.09c-0.02,0.11-0.08,0.5-0.01,0.14c0.07-0.36,0.01-0.07-0.01,0.02
						c-0.02,0.08-0.04,0.16-0.06,0.24c-0.05,0.18-0.11,0.37-0.17,0.55c-0.8,2.49-1.86,4.91-2.88,7.31
						c-1.44,3.4-2.94,6.78-4.43,10.16c-1.42,3.19-2.84,6.38-4.25,9.58c-0.15,0.33-0.29,0.66-0.44,1c-0.31,0.72,0.14,1.65,0.77,1.83
						c0.74,0.21,1.38-0.23,1.71-1c1.37-3.16,2.78-6.3,4.18-9.45c1.54-3.47,3.08-6.94,4.57-10.43c1.1-2.58,2.23-5.17,3.13-7.83
						c0.23-0.68,0.52-1.47,0.52-2.19c0-1.68-1.07-2.86-2.19-3.75c-1.26-1-2.71-1.72-4.13-2.41c-1.32-0.64-2.67-1.22-3.98-1.87
						c-0.07-0.03-0.13-0.07-0.19-0.1c-0.2-0.1,0.31,0.16,0.07,0.04c-0.12-0.07-0.25-0.13-0.37-0.2c-0.6-0.33-1.43-0.27-1.86,0.48
						C132.88,43.6,132.89,44.63,133.54,44.99L133.54,44.99z"/>
				</g>
			</g>
			<g class="st20">
				<g>
					<path class="st9" d="M128.26,84.76c-0.06,0.32-0.12,0.64-0.18,0.97c0.78-0.33,1.57-0.66,2.36-0.99c-0.24-0.33-0.48-0.66-0.72-1
						c-0.16,0.77-0.32,1.53-0.49,2.3c-0.19,0.09-0.36,0.14-0.56,0.11c-0.08,0-0.16-0.02-0.22-0.07c-0.12-0.07-0.14-0.08-0.05-0.02
						c-0.12-0.1-0.2-0.21-0.27-0.36c0.04,0.09,0.03,0.07-0.01-0.06c-0.04-0.11-0.06-0.23-0.05-0.36c0.37-0.47,0.73-0.94,1.1-1.4
						c0.02-0.01,0.34-0.01,0.17-0.02c0.17,0.02,0.3,0.06,0.44,0.14c-0.15-0.09,0.1,0.11,0.11,0.12c-0.12-0.12,0.07,0.12,0.08,0.15
						c0.06,0.15,0.07,0.32,0.06,0.48c0.01-0.27-0.19,0.51-0.18,0.49c0.09-0.17-0.09,0.11-0.11,0.14c-0.06,0.05-0.12,0.09-0.18,0.14
						c-0.22,0.08-0.27,0.1-0.17,0.07c0.16-0.03-0.31,0.02-0.16,0.02c0.07,0,0.04,0-0.08-0.01c-0.08,0-0.15-0.02-0.22-0.07
						c-0.27-0.13-0.45-0.41-0.46-0.75c-0.01-0.32-0.05,0.14,0.02-0.19c0.07-0.33-0.08,0.12,0.06-0.19c0.03-0.09,0.07-0.16,0.13-0.22
						c0.09-0.1,0.11-0.13,0.06-0.07c-0.09,0.09,0.31-0.19,0.11-0.1c0.62,0.31,1.24,0.62,1.85,0.94c-0.03-0.14-0.06-0.28-0.09-0.42
						c-0.15-0.74-0.8-1.31-1.53-1.07c-0.67,0.22-1.25,1-1.09,1.78c0.03,0.14,0.06,0.28,0.09,0.42c0.09,0.45,0.31,0.78,0.68,0.98
						c0.4,0.2,0.75,0.14,1.17-0.04c0.84-0.37,1.32-1.56,1.14-2.46c-0.21-1.07-1.2-1.71-2.19-1.38c-0.96,0.33-1.71,1.42-1.46,2.52
						c0.24,1.06,1.16,1.74,2.18,1.46c0.58-0.16,1.04-0.75,1.1-1.4c0.06-0.7-0.22-1.4-0.74-1.77c-0.56-0.4-1.19-0.39-1.83-0.09
						c-0.84,0.4-0.96,1.64-0.49,2.3c0.24,0.33,0.48,0.66,0.72,1c0.32,0.44,0.93,0.56,1.42,0.35c0.55-0.23,0.82-0.73,0.94-1.34
						c0.06-0.32,0.12-0.64,0.18-0.97c0.06-0.34-0.1-0.8-0.29-1.03c-0.21-0.27-0.57-0.47-0.91-0.46c-0.34,0.01-0.7,0.13-0.96,0.4
						C128.47,84.01,128.34,84.34,128.26,84.76L128.26,84.76z"/>
				</g>
			</g>
		</g>
		<g id="Ebene_2_1_">
			<g>
				<g>
					<path d="M110.97,87.55c4.16,1.57,8.34,3.14,12.64,4.31c1.03,0.28,2.08,0.53,3.13,0.72c0.84,0.15,1.7,0.29,2.57,0.23
						c0.67-0.05,1.32-0.19,1.86-0.71c0.35-0.33,0.64-0.74,0.92-1.14c0.81-1.16,1.49-2.43,2.17-3.69c0.96-1.81,1.87-3.65,2.76-5.5
						c2.15-4.5,4.17-9.07,6.07-13.68c1.66-4.02,3.28-8.08,4.56-12.24c0.41-1.33,0.81-2.69,0.99-4.07c0.06-0.44,0.09-0.91,0-1.33
						c-0.09-0.45-0.32-0.83-0.58-1.17c-0.57-0.76-1.32-1.37-2.05-1.93c-1.01-0.78-2.08-1.47-3.16-2.14
						c-3.04-1.87-6.22-3.5-9.41-5.06c-3.85-1.88-7.76-3.63-11.71-5.28c-4.09-1.72-8.23-3.33-12.41-4.82
						c-3.73-1.33-7.49-2.56-11.31-3.58c-2.85-0.76-5.78-1.47-8.76-1.62c-0.95-0.05-1.95-0.04-2.89,0.23
						c-1.09,0.31-1.92,1.11-2.63,2.08c-1,1.36-1.7,2.99-2.33,4.57c-0.81,2.04-1.46,4.14-2.05,6.25c-1.38,4.92-2.42,9.94-3.3,14.96
						c-0.72,4.08-1.37,8.2-1.68,12.3c-0.08,1.09-0.2,2.26-0.05,3.33c0.11,0.79,0.57,1.49,1.05,2.02c0.8,0.89,1.79,1.53,2.81,2.08
						c2.42,1.29,5.03,2.15,7.53,3.27c0.27,0.12,0.55,0.25,0.82,0.38c0.07,0.03,0.14,0.07,0.22,0.11c0.04,0.02,0.28,0.14,0.05,0.02
						c0.14,0.07,0.27,0.14,0.41,0.22c0.5,0.28,0.99,0.58,1.45,0.93c0.09,0.07,0.17,0.14,0.26,0.21c0.05,0.04,0.1,0.09,0.15,0.13
						c0.11,0.07-0.2-0.23-0.12-0.12c0.06,0.09,0.15,0.17,0.21,0.26c0.08,0.11,0.15,0.22,0.22,0.33c0.16,0.25-0.1-0.19,0.02,0.02
						c0.05,0.09,0.1,0.19,0.16,0.28c0.98,1.83,1.77,3.8,2.61,5.72c0.92,2.13,1.83,4.28,2.95,6.29c0.4,0.73,0.82,1.49,1.38,2.08
						c0.27,0.28,0.55,0.54,0.91,0.67c0.36,0.13,0.71,0.09,1.09,0.04c0.87-0.12,1.74-0.42,2.58-0.72c1.29-0.45,2.56-0.98,3.82-1.54
						c2.39-1.07,4.81-2.27,6.92-3.98c0.45-0.36,0.46-1.16,0.15-1.56c-0.37-0.47-0.95-0.41-1.4-0.04c-0.06,0.05-0.42,0.32-0.18,0.14
						c-0.11,0.08-0.22,0.16-0.33,0.24c-0.26,0.18-0.52,0.36-0.79,0.53c-0.57,0.37-1.16,0.71-1.75,1.04
						c-1.25,0.69-2.52,1.3-3.81,1.86c-0.14,0.06-0.28,0.12-0.41,0.18c-0.03,0.01-0.3,0.13-0.08,0.04c-0.08,0.03-0.16,0.07-0.24,0.1
						c-0.32,0.13-0.63,0.26-0.95,0.38c-0.55,0.22-1.11,0.42-1.67,0.61c-0.46,0.15-0.91,0.3-1.37,0.41
						c-0.17,0.04-0.35,0.08-0.52,0.12c-0.07,0.01-0.17,0.01-0.24,0.04c0.25-0.11,0.18-0.02,0.02-0.01c-0.05,0-0.11,0-0.16,0
						c-0.19,0.01,0.17,0.05,0.13,0.03c-0.02-0.02-0.1-0.05-0.13-0.05c0.26,0.02,0.21,0.13,0.08,0.03c-0.05-0.04-0.09-0.08-0.14-0.11
						c-0.17-0.13,0.19,0.2,0.04,0.04c-0.1-0.12-0.21-0.23-0.3-0.36c-0.23-0.3-0.43-0.62-0.63-0.94c-0.04-0.06-0.15-0.22,0.02,0.03
						c-0.03-0.05-0.06-0.1-0.09-0.15c-0.05-0.1-0.11-0.19-0.16-0.29c-0.12-0.22-0.24-0.45-0.36-0.68c-1.07-2.07-1.98-4.24-2.92-6.39
						c-0.8-1.85-1.57-3.77-2.59-5.48c-0.39-0.66-0.89-1.13-1.5-1.55c-1.06-0.73-2.23-1.28-3.39-1.79c-1.22-0.53-2.47-1.01-3.7-1.52
						c-0.61-0.25-1.22-0.5-1.82-0.78c-0.28-0.13-0.55-0.25-0.82-0.39c-0.07-0.04-0.15-0.07-0.22-0.11
						c-0.23-0.12,0.13,0.07-0.01-0.01c-0.15-0.08-0.3-0.16-0.45-0.24c-0.49-0.27-0.97-0.57-1.42-0.91c-0.2-0.15-0.38-0.31-0.57-0.47
						c-0.17-0.15,0.15,0.17,0,0c-0.04-0.05-0.09-0.09-0.13-0.14c-0.08-0.09-0.16-0.18-0.24-0.28c-0.07-0.09-0.14-0.19-0.21-0.29
						c-0.02-0.03-0.04-0.07-0.06-0.1c-0.12-0.17,0.1,0.22,0.02,0.03c-0.06-0.14-0.12-0.34-0.2-0.46c0.16,0.24,0.07,0.31,0.05,0.17
						c0-0.03-0.01-0.05-0.02-0.08c-0.01-0.07-0.02-0.15-0.03-0.23c-0.01-0.08-0.01-0.17-0.02-0.25c-0.02-0.26,0,0.2,0,0.1
						c0-0.06,0-0.11,0-0.17c0-0.26,0-0.51,0.01-0.77c0.02-0.67,0.07-1.33,0.13-2c0.16-1.83,0.38-3.65,0.64-5.47
						c0.32-2.28,0.68-4.55,1.09-6.82c0.22-1.25,0.46-2.5,0.71-3.75c0.06-0.3,0.12-0.59,0.18-0.89c0.02-0.08,0.11-0.51,0.04-0.19
						c0.04-0.19,0.08-0.38,0.12-0.56c0.13-0.62,0.26-1.23,0.4-1.85c0.99-4.44,2.1-8.94,3.81-13.17c0.17-0.43,0.35-0.85,0.54-1.27
						c0.04-0.09,0.2-0.39,0.01-0.03c0.05-0.1,0.09-0.2,0.14-0.29c0.09-0.19,0.19-0.38,0.28-0.56c0.33-0.62,0.69-1.22,1.11-1.78
						c0.02-0.03,0.05-0.06,0.07-0.09c0.01-0.01-0.2,0.24-0.11,0.13c0.05-0.06,0.1-0.12,0.15-0.17c0.09-0.11,0.19-0.21,0.29-0.31
						c0.09-0.08,0.18-0.16,0.27-0.24c0.16-0.14-0.26,0.18-0.04,0.03c0.05-0.03,0.1-0.07,0.15-0.1c0.06-0.04,0.12-0.07,0.18-0.1
						c0.04-0.02,0.07-0.03,0.11-0.05c0.03-0.02-0.31,0.12-0.11,0.05c0.16-0.05,0.32-0.11,0.49-0.14c0.09-0.02,0.17-0.04,0.26-0.05
						c0.05-0.01,0.1-0.02,0.15-0.02c0.25-0.04-0.14,0.01-0.08,0.01c0.22-0.02,0.43-0.04,0.65-0.05c0.52-0.02,1.04,0,1.56,0.03
						c0.6,0.04,1.2,0.11,1.8,0.2c0.16,0.02,0.31,0.05,0.47,0.07c0.07,0.01,0.14,0.02,0.22,0.04c0.04,0.01,0.09,0.01,0.13,0.02
						c0.25,0.04-0.21-0.04-0.04-0.01c0.35,0.06,0.7,0.13,1.05,0.2c3.45,0.68,6.82,1.67,10.16,2.74c4.02,1.29,7.98,2.73,11.91,4.26
						c4.08,1.59,8.11,3.29,12.1,5.09c1.86,0.84,3.71,1.71,5.54,2.6c0.87,0.43,1.75,0.85,2.61,1.31c-0.23-0.12-0.02-0.01,0.09,0.04
						c0.11,0.05,0.21,0.11,0.32,0.16c0.21,0.11,0.42,0.22,0.63,0.33c0.39,0.2,0.78,0.41,1.16,0.62c2.48,1.33,4.97,2.72,7.23,4.46
						c0.38,0.29,0.75,0.6,1.11,0.93c0.03,0.03,0.07,0.06,0.1,0.09c-0.3-0.27-0.12-0.12-0.05-0.05c0.07,0.07,0.14,0.14,0.21,0.22
						c0.12,0.13,0.23,0.26,0.33,0.39c0.04,0.06,0.09,0.12,0.13,0.18c0.02,0.03,0.04,0.06,0.06,0.09c0.1,0.15-0.15-0.29-0.07-0.11
						c0.02,0.05,0.05,0.11,0.08,0.16c0.1,0.18-0.05-0.34-0.02-0.07c0.01,0.07,0.01,0.14,0.02,0.2c-0.06-0.33,0-0.2-0.01,0
						c-0.01,0.21-0.03,0.42-0.06,0.63c-0.02,0.12-0.04,0.23-0.06,0.35c-0.01,0.07-0.03,0.14-0.04,0.21
						c-0.06,0.29,0.06-0.28,0.01-0.04c-0.07,0.31-0.14,0.61-0.22,0.91c-0.19,0.75-0.42,1.5-0.65,2.24
						c-0.59,1.87-1.25,3.72-1.94,5.55c-1.7,4.53-3.58,9-5.54,13.41c-0.49,1.11-0.99,2.21-1.49,3.31c-0.24,0.53-0.49,1.06-0.74,1.59
						c-0.03,0.06-0.14,0.3,0,0c-0.03,0.06-0.05,0.11-0.08,0.17c-0.06,0.12-0.12,0.25-0.17,0.37c-0.13,0.26-0.25,0.53-0.38,0.79
						c-0.86,1.81-1.75,3.6-2.69,5.37c-0.67,1.25-1.35,2.5-2.15,3.66c-0.13,0.19-0.28,0.36-0.41,0.55c0.26-0.38,0.08-0.1-0.01,0
						c-0.06,0.06-0.11,0.12-0.17,0.18c-0.02,0.02-0.05,0.04-0.07,0.07c-0.11,0.12,0.27-0.15,0.1-0.08c-0.04,0.02-0.1,0.05-0.14,0.08
						c-0.07,0.05-0.17-0.07,0.17-0.07c-0.03,0-0.08,0.03-0.11,0.04c-0.12,0.03-0.24,0.05-0.36,0.08c-0.16,0.03,0.27-0.02,0.11-0.01
						c-0.04,0-0.08,0.01-0.12,0.01c-0.08,0.01-0.16,0.01-0.25,0.01c-0.37,0.01-0.74-0.02-1.1-0.06c-0.2-0.02-0.41-0.05-0.61-0.08
						c-0.08-0.01-0.49-0.06-0.15-0.02c-0.12-0.01-0.25-0.04-0.37-0.07c-1.07-0.21-2.13-0.48-3.18-0.77
						c-2.35-0.66-4.66-1.44-6.96-2.26c-1.74-0.62-3.47-1.27-5.21-1.92c-0.5-0.19-1.1,0.19-1.28,0.75
						C110.2,86.77,110.48,87.36,110.97,87.55L110.97,87.55z"/>
				</g>
			</g>
		</g>
		<g id="Ebene_10">
			<g>
				<path class="st9" d="M113.44,56.04c1.52-3.37,1.73-7.4,0.37-10.61s-4.33-5.48-7.61-5.58c-3.29-0.1-6.75,2.07-8.33,5.41
					c-1.68,3.56-1.14,7.7-0.34,11.42c1.56,7.28,3.92,14.28,7.02,20.82c7.23-2.67,14.51-5.36,21.22-9.56
					c2.29-1.43,4.62-3.19,5.77-5.8c1.7-3.87,0.09-8.56-2.95-10.78c-4.24-3.1-10.89-1.59-14.21,3.23"/>
				<g>
					<path class="st9" d="M114.06,56.25c1.82-4.08,1.79-8.99-0.37-12.56c-2.08-3.45-6.05-5.34-9.94-4.26
						c-1.79,0.5-3.52,1.57-4.84,3.07c-1.5,1.7-2.37,3.84-2.68,6.11c-0.33,2.45-0.02,4.92,0.43,7.26c0.46,2.36,1.04,4.69,1.68,6.98
						c1.3,4.62,2.91,9.11,4.85,13.4c0.24,0.53,0.49,1.07,0.74,1.59c0.12,0.26,0.43,0.47,0.72,0.36c4.31-1.59,8.63-3.19,12.86-5.11
						c2.09-0.95,4.16-1.98,6.17-3.12c1.92-1.09,3.88-2.25,5.58-3.77c1.57-1.41,2.91-3.26,3.38-5.43c0.44-2.02,0.2-4.07-0.52-5.88
						c-1.42-3.55-4.54-5.68-8.09-5.88c-3.3-0.19-6.88,1.24-9.3,4.01c-0.32,0.37-0.62,0.76-0.91,1.16c-0.54,0.78,0.53,1.55,1.07,0.77
						c1.91-2.75,5-4.34,7.99-4.48c3.14-0.15,6.12,1.31,7.65,4.29c0.76,1.49,1.16,3.23,0.95,5.01c-0.23,1.93-1.26,3.6-2.59,4.9
						c-1.52,1.5-3.34,2.58-5.11,3.61c-1.9,1.11-3.84,2.11-5.81,3.03c-3.95,1.85-7.99,3.39-12.04,4.88
						c-0.51,0.19-1.01,0.37-1.52,0.56c0.24,0.12,0.48,0.24,0.72,0.36c-1.91-4.02-3.54-8.22-4.87-12.55
						c-0.66-2.14-1.24-4.31-1.75-6.51c-0.51-2.19-0.99-4.41-1.09-6.7c-0.09-2.11,0.19-4.39,1.25-6.29c0.89-1.6,2.23-2.84,3.75-3.63
						c3.29-1.7,6.96-0.75,9.26,1.92c2.44,2.83,2.93,7.17,1.66,11.04c-0.16,0.48-0.34,0.95-0.55,1.42c-0.16,0.37,0.08,0.81,0.39,0.91
						C113.57,56.87,113.9,56.62,114.06,56.25L114.06,56.25z"/>
				</g>
			</g>
		</g>
		<g id="Ebene_9">
			<g class="st21">
				<path d="M88.13,25.08c-6.61,19.84,4.97,49.73,14.2,66.1c-1.8-0.05-2.98-3.35-5.5-7.81c-3.55-6.3-1.95-6.39-4.35-8.62
					c-1.99-1.85-4.96-2.52-7.46-3.46c-2.31-0.86-5.07-2.3-6.11-4.14c-1.38-2.42,2.57-26.01,7.57-39.64"/>
				<g>
					<path d="M87.51,24.87c-1.37,4.12-1.93,8.47-1.98,12.73c-0.06,4.73,0.44,9.41,1.28,13.97c0.89,4.84,2.15,9.55,3.64,14.16
						c1.47,4.54,3.17,8.97,5.06,13.28c1.69,3.87,3.54,7.65,5.55,11.31c0.22,0.4,0.45,0.81,0.67,1.21c0.22-0.36,0.44-0.73,0.67-1.09
						c-0.05,0-0.1-0.01-0.14-0.01c0.18,0.02,0.03,0.01-0.01-0.01c-0.08-0.02-0.15-0.05-0.23-0.08c-0.17-0.07,0.05,0.05-0.11-0.06
						c-0.09-0.06-0.18-0.12-0.26-0.19c-0.04-0.04-0.09-0.08-0.13-0.11c0.1,0.09,0,0-0.03-0.03c-0.08-0.09-0.16-0.17-0.24-0.26
						c-0.17-0.2-0.33-0.42-0.48-0.64c-0.79-1.18-1.42-2.5-2.09-3.77c-1.31-2.49-2.79-4.86-3.68-7.61c-0.18-0.55-0.33-1.12-0.58-1.63
						c-0.31-0.64-0.75-1.15-1.23-1.63c-2.4-2.34-5.7-2.89-8.65-4.11c-1.35-0.56-2.67-1.23-3.81-2.18c-0.47-0.39-0.89-0.83-1.23-1.37
						c-0.05-0.08,0.03,0.1-0.02-0.04c-0.01-0.03-0.02-0.06-0.04-0.1c-0.04-0.1,0.01-0.14,0.01,0.04c0-0.05-0.03-0.1-0.04-0.15
						c-0.05-0.23-0.07-0.47-0.09-0.7c-0.01-0.08-0.01-0.15-0.01-0.23c0-0.06-0.01-0.3,0-0.06c0-0.17-0.01-0.33-0.01-0.5
						c0-0.83,0.05-1.66,0.12-2.49c0.41-5.12,1.35-10.26,2.39-15.32c1.23-5.93,2.68-11.87,4.63-17.62c0.21-0.63,0.43-1.25,0.66-1.87
						c0.33-0.9-0.91-1.31-1.24-0.41c-2.08,5.7-3.59,11.62-4.88,17.53c-1.18,5.43-2.23,10.94-2.78,16.44
						c-0.17,1.65-0.33,3.36-0.18,4.99c0.05,0.57,0.18,1.06,0.46,1.52c0.77,1.23,2.01,2.08,3.2,2.76c1.39,0.79,2.86,1.37,4.36,1.88
						c1.54,0.52,3.13,1,4.55,1.83c0.35,0.2,0.69,0.43,1.01,0.68c0.14,0.11,0.29,0.23,0.42,0.35c0.06,0.05,0.11,0.11,0.17,0.16
						c0.1,0.09-0.06-0.06,0.06,0.06c0.25,0.25,0.49,0.51,0.7,0.8c0.04,0.05,0.08,0.11,0.11,0.16c0.05,0.08,0.11,0.19,0.03,0.04
						c0.07,0.13,0.14,0.25,0.19,0.39c0.11,0.25,0.2,0.51,0.28,0.78c0.26,0.81,0.52,1.61,0.84,2.38c0.62,1.48,1.39,2.86,2.15,4.24
						c0.82,1.49,1.58,3.03,2.42,4.5c0.55,0.97,1.15,2.04,2.05,2.66c0.37,0.26,0.79,0.42,1.25,0.44c0.46,0.02,0.93-0.63,0.67-1.09
						c-1.99-3.53-3.82-7.18-5.5-10.91c-1.9-4.2-3.62-8.52-5.13-12.94c-1.54-4.5-2.85-9.12-3.82-13.85
						c-0.92-4.49-1.56-9.1-1.64-13.78c-0.07-4.2,0.3-8.51,1.45-12.6c0.14-0.49,0.29-0.97,0.45-1.45
						C89.05,24.38,87.81,23.96,87.51,24.87L87.51,24.87z"/>
				</g>
			</g>
		</g>
	</g>
</g>
<g id="Ebene_10_4_">
</g>
<g id="Ebene_8_6_">
</g>
<g id="Ebene_19_1_">
</g>
<g id="Ebene_23_1_">
</g>
<g id="Ebene_25">
</g>
<g id="Ebene_11_1_">
</g>
<g id="Ebene_12_1_">
</g>
</svg>
