<?xml version="1.0" encoding="utf-8"?>
<!-- Generator: Adobe Adobe Illustrator 24.2.0, SVG Export Plug-In . SVG Version: 6.00 Build 0)  -->
<svg version="1.1" xmlns="http://www.w3.org/2000/svg" xmlns:xlink="http://www.w3.org/1999/xlink" x="0px" y="0px"
	 viewBox="0 0 2000 2000" style="enable-background:new 0 0 2000 2000;" xml:space="preserve">
<style type="text/css">
	.st0{fill:#D2E0EC;}
	.st1{fill:#D2E1EC;}
	.st2{opacity:0.149;}
	.st3{fill:#FFFFFF;}
	.st4{opacity:0.1608;}
	.st5{fill:#F4F5E7;}
	.st6{fill:#F3C057;}
	.st7{fill:#7F8D9C;}
	.st8{fill:#CA334D;}
	.st9{fill:#CA344E;}
	.st10{stroke:#000000;stroke-miterlimit:10;}
</style>
<g id="Ebene_3">
	<g>
		<path class="st0" d="M915.12,495.73c-239.27,0-487.47-32.22-514.71,374.85c-7.8,116.48-14.06,390.51,42.84,440.41
			c25.02,21.93,61.38,23.43,94.65,23.8c244.17,2.72,488.33,5.44,732.5,8.16c48.67,0.54,133.77,5.81,169.93-101.04
			c24.11-71.23,25-292.62,12.47-403.31c-37-326.77-268.02-356.25-540.45-342.87"/>
		<g>
			<path d="M917.7,488.87c-45.02-0.01-90.04-1.17-135.05-0.27c-42.83,0.85-85.93,3.45-128.02,11.85
				c-39.42,7.86-78.21,21.24-112.11,43.19c-36.34,23.53-65.7,55.96-87.2,93.44c-28.29,49.33-43.47,105.36-52.18,161.21
				c-8.53,54.69-10.79,110.35-12.28,165.63c-1.54,57.15-1.39,114.45,2.24,171.52c1.71,26.77,4.22,53.51,8.33,80.02
				c3.35,21.62,7.64,43.39,15.15,63.99c5.59,15.33,12.95,30.37,26.04,40.62c28.73,22.49,68.63,21.31,103.18,21.69
				c89.9,1,179.8,2,269.7,3.01s179.8,2,269.7,3.01c44.78,0.5,89.55,1,134.33,1.5c27.74,0.31,55.73,1.66,83.47,0.4
				c21.81-0.99,43.39-4.58,63.49-13.37c24.04-10.51,43.57-28.55,57.86-50.37c28.01-42.76,33.09-95.11,37.07-144.77
				c4.93-61.52,5.61-123.46,4.11-185.13c-1.41-57.9-4.22-116.39-15.42-173.34c-10.54-53.61-28.98-106.57-60.22-151.78
				c-26.18-37.89-61.21-68.92-101.68-90.84c-41.27-22.35-87.07-35.45-133.18-43.18c-52.16-8.75-105.28-10.91-158.1-10.52
				c-27.36,0.21-54.7,1.15-82.02,2.49c-3.53,0.17-6.17,3.27-7.33,6.42c-0.7,1.88-1.39,7.48,2.17,7.3
				c54.45-2.66,109.1-3.88,163.55-0.48c48.52,3.03,97.34,9.65,143.82,24.31c42.62,13.43,83.16,34.04,116.98,63.49
				c35.92,31.28,62.68,71.95,80.55,115.89c21.66,53.25,31.22,110.37,35.71,167.43c4.64,58.97,5.7,118.31,4.66,177.44
				c-0.96,54.09-2.71,109.18-12.57,162.5c-8.62,46.6-32.22,93.3-79.19,112.03c-19.38,7.72-40.34,10.42-61.07,10.96
				c-29.29,0.76-58.71-0.4-88-0.73c-88.15-0.98-176.3-1.96-264.45-2.95c-88.15-0.98-176.3-1.96-264.45-2.95
				c-44.08-0.49-88.15-0.98-132.23-1.47c-34.42-0.38-74.27,1.46-102.94-20.98c-12.12-9.49-18.98-24.64-24.01-39.05
				c-7.13-20.44-11.29-41.89-14.54-63.25c-8.26-54.39-10.22-109.82-10.7-164.76c-0.45-51.28,0.85-102.6,3.77-153.8
				c3.42-60.01,10.47-120.46,29.28-177.81c14.31-43.64,35.66-85.57,67.86-118.78c26.98-27.83,60.7-48.16,97.08-61.19
				c38.2-13.68,78.69-20.17,119.02-23.36c43.3-3.43,86.8-3.29,130.2-2.93c21.48,0.18,42.96,0.43,64.44,0.44
				C918.39,502.59,924.12,488.87,917.7,488.87L917.7,488.87z"/>
		</g>
	</g>
	<g>
		<g>
			<path d="M909.72,437.8c0,20.31,0,40.62,0,60.93c0,3.3,2.74,4.55,5.51,3.18c3.14-1.55,5.3-5.77,5.3-9.19c0-20.31,0-40.62,0-60.93
				c0-3.3-2.74-4.55-5.51-3.18C911.88,430.17,909.72,434.39,909.72,437.8L909.72,437.8z"/>
		</g>
	</g>
	<g>
		<path d="M928.09,323.91c30.3-1.29,52.45,41.55,45.29,68.46c-7.17,26.91-37.31,45.41-64.55,39.6s-47.22-34.99-42.79-62.48
			s32.57-48.92,60.25-45.88"/>
		<g>
			<path d="M925.51,330.77c18.79-0.46,32.85,15.56,39.3,31.81c6.95,17.52,6.13,36.25-8.41,49.66
				c-15.62,14.39-39.19,18.42-57.97,7.84c-18.1-10.2-30.91-32.3-26.9-53.29c4.47-23.43,29.34-38.49,52.17-36.31
				c5.79,0.55,11.78-13.09,5.16-13.72c-26.6-2.53-51.95,14.57-63.08,38.24c-11.42,24.27-4.72,53.05,15.11,70.81
				c19.62,17.57,47.92,17.97,69.57,3.73c21.3-14.01,33.27-38.25,28.39-63.56c-4.41-22.84-22.3-49.54-48.18-48.91
				C924.83,317.19,919.17,330.92,925.51,330.77L925.51,330.77z"/>
		</g>
	</g>
	<g>
		<path d="M550.76,1334.93c-50.72-34.73-88.37-75.11-94.21-190.86c-4.71-93.46-1.41-200.81,12.47-293.35
			c8.8-58.61,29.61-106.98,69.97-150.38c47.5-51.08,123.14-62.48,192.74-67.13c139.4-9.3,279.39-3.57,418.71,6.83
			c53.23,3.97,133.6,35.04,169.98,74.11c59.18,63.57,71.91,340.88,47.05,500.5c-7.19,46.17-35.35,91.68-71.71,121.02"/>
		<g>
			<path d="M554.51,1328.44c-18.46-12.67-35.93-26.77-49.81-44.49c-16.25-20.77-26.54-45.11-32.9-70.58
				c-9.32-37.34-10.49-76.1-11.4-114.4c-1.01-42.65-0.41-85.35,1.89-127.95c2.25-41.76,5.93-83.6,12.5-124.92
				c5.71-35.92,16.93-70.74,36.12-101.79c19.07-30.86,44.13-57.24,76.82-73.54c32.11-16.02,68.08-23.15,103.47-27.31
				c42.8-5.03,86.16-6.44,129.2-7.44c46.33-1.08,92.68-0.74,138.99,0.61c46.35,1.36,92.66,3.74,138.93,6.78
				c20.55,1.35,41.39,1.98,61.79,4.8c16.39,2.27,32.59,6.23,48.34,11.28c32.16,10.31,64.15,24.79,90.97,45.58
				c16.61,12.88,27.93,28.08,36.08,47.34c9.19,21.72,15.07,44.82,19.81,67.86c5.89,28.63,9.79,57.65,12.63,86.73
				c6.35,65.1,7.65,130.81,4.8,196.15c-1.31,30.14-3.57,60.26-7.34,90.2c-2,15.88-4.04,31.85-9,47.13
				c-5.79,17.82-14.33,34.76-25.08,50.12c-10.45,14.94-22.89,28.35-37.03,39.85c-2.49,2.03-4.83,6.43-3.73,9.69
				c1.13,3.36,4.48,2.53,6.68,0.75c30.28-24.65,54.07-58.11,67.11-94.95c10.73-30.31,13.02-63.63,15.77-95.47
				c5.75-66.5,6.26-133.59,2.42-200.22c-3.41-59.16-9.38-119.68-26.11-176.75c-5.72-19.51-12.83-39.58-24.5-56.42
				c-16.08-23.21-43.18-39.06-67.98-51.26c-31.02-15.26-64.98-26.77-99.31-31.42c-21.19-2.87-42.81-3.53-64.14-4.91
				c-23.8-1.55-47.61-2.92-71.43-4.07c-95.53-4.6-191.34-5.58-286.83,0.4c-72.22,4.52-152.43,14.11-204.96,69.49
				c-26.05,27.46-46.2,60.44-58.76,96.14c-13.37,38.03-17.94,78.47-21.91,118.37c-4.39,44.05-6.72,88.3-7.33,132.56
				c-0.59,42.62-0.56,85.77,3.58,128.23c3.16,32.44,9.55,64.94,23.81,94.46c10.49,21.72,25.56,40.39,43.75,56.14
				c8.42,7.29,17.4,13.9,26.58,20.2C551.95,1344.82,559.68,1331.98,554.51,1328.44L554.51,1328.44z"/>
		</g>
	</g>
	<g>
		<path class="st0" d="M666.34,800.38c-1.24,40.22-1.39,80.47-0.47,120.7c0.24,10.67,0.78,22.01,6.86,30.77
			c9.73,14.02,29.31,16.03,46.36,16.73c13.49,0.55,28.16,0.77,39.01-7.27c15.58-11.54,16.26-34.2,15.46-53.57
			c-1.24-30.04-2.48-60.07-3.73-90.11c-0.62-14.93-1.72-31.14-11.58-42.38c-13.2-15.04-36.19-15.06-56.16-13.89
			c-9.98,0.58-20.69,1.44-28.4,7.8c-7.71,6.36-7.71,21.89-7.71,35.15"/>
		<g>
			<path d="M660.93,803.38c-0.73,24.07-1.09,48.14-1.06,72.22c0.02,12.2,0.13,24.41,0.35,36.61c0.18,10.3-0.13,20.88,1.98,31.01
				c3.83,18.39,18.39,27.53,35.93,30.53c8.88,1.52,18.05,1.89,27.04,1.92c9.48,0.03,19.1-0.86,27.76-5.02
				c16.35-7.86,23.81-25.76,25.55-42.88c2.09-20.52-0.3-41.66-1.15-62.2c-0.5-12.08-1-24.16-1.5-36.24
				c-0.44-10.63-0.52-21.34-1.97-31.9c-2.49-18.07-11.12-33.62-29.18-39.66c-9.38-3.14-19.28-3.83-29.11-3.69
				c-10.17,0.15-21.31,0.15-31.07,3.3c-9.66,3.12-17.14,9.45-20.61,19.12c-3.51,9.78-3.34,20.57-3.34,30.82
				c0,3.31,2.74,4.55,5.51,3.18c3.14-1.56,5.3-5.77,5.3-9.19c0-7.46-0.4-15.45,1.63-22.71c1.96-7.02,10.29-8.5,16.66-9.47
				c14.79-2.25,32.21-2.85,46.68,1.38c16.42,4.81,24.69,18.13,26.92,34.48c2.63,19.29,2.13,39.31,2.93,58.74
				c0.79,19.16,2.31,38.45,2.15,57.63c-0.1,13.01-1.38,29.39-14.26,36.24c-7.44,3.96-16.29,4.42-24.54,4.35
				c-7.8-0.06-15.7-0.4-23.43-1.48c-15.59-2.17-29.61-8.85-33.33-25.41c-2.24-9.95-1.62-20.69-1.79-30.83
				c-0.2-11.87-0.3-23.75-0.32-35.62c-0.02-23.75,0.34-47.5,1.06-71.23c0.1-3.33-2.81-4.52-5.51-3.18
				C663.02,795.79,661.04,799.94,660.93,803.38L660.93,803.38z"/>
		</g>
	</g>
	<g>
		<path class="st0" d="M1061.74,838.09c0,44.19-16.77,103.93,11.23,119.14c15.25,8.29,96.23,13.89,97.36-9.64
			c7.34-152.91,24.44-186.41-60.04-186.41c-15.44,0-30.83-2.45-39.78,10.13c-8.94,12.58-8.18,44.86-8.18,67.8"/>
		<g>
			<path d="M1056.33,841.09c-0.1,27.26-5.86,54.31-4.89,81.6c0.67,18.7,5.56,38.32,25.54,43.83c17.55,4.84,37.11,5.58,55.18,4.33
				c15.24-1.05,36.89-3.66,42.58-20.68c2.08-6.21,1.38-13.57,1.73-20.04c0.41-7.66,0.86-15.32,1.34-22.98
				c0.82-13.31,1.73-26.62,2.56-39.92c1.21-19.29,2.68-38.79,1.55-58.12c-0.71-12.13-2.37-25.31-9.37-35.61
				c-6.25-9.2-16.29-13.9-26.84-16.34c-7.03-1.62-14.27-2.28-21.47-2.6c-11.67-0.53-24.13-1.48-35.68,0.34
				c-30.5,4.8-31.19,42.09-31.57,66.06c-0.11,7.05-0.06,14.11-0.06,21.17c0,3.3,2.74,4.55,5.51,3.18c3.14-1.55,5.31-5.78,5.3-9.19
				c-0.01-13.04-0.27-26.13,0.84-39.14c0.78-9.11,1.21-22.71,10.98-26.9c5.65-2.42,12.16-2.29,18.19-2.2
				c5.5,0.08,11,0.11,16.49,0.24c7.03,0.16,14.09,0.59,21.03,1.74c9.43,1.55,19.52,4.96,25.54,11.83
				c6.47,7.38,8.73,17.17,9.75,26.73c1.72,16.17,0.8,32.63-0.06,48.83c-1.29,24.13-3.11,48.23-4.48,72.35
				c-0.2,3.57-0.4,7.15-0.58,10.72c-0.09,1.7-0.18,3.4-0.26,5.09c-0.06,1.15-0.12,2.3-0.17,3.45c-0.02,0.32,0.09,2.62-0.05,1.16
				c0.05,0.52,0.17-0.51,0.44-0.63c-0.93,0.39-0.21,0.29-0.27,0.34c-0.66,0.64-1.16,0.95-1.09,0.9c-5.76,3.83-13.38,4.96-20.09,5.84
				c-17.34,2.26-35.67,1.29-52.87-1.72c-5.78-1.01-11.9-2.07-16.79-5.52c-7.21-5.07-10.01-14.26-11.23-22.58
				c-3.49-23.89,1.58-48.91,3.3-72.76c0.45-6.26,0.76-12.52,0.78-18.79c0.01-3.31-2.75-4.55-5.51-3.18
				C1058.48,833.47,1056.34,837.68,1056.33,841.09L1056.33,841.09z"/>
		</g>
	</g>
	<g>
		<path class="st1" d="M740.81,1013.93c110.81,1.66,227.63,0.31,338.44,1.97c8.03,0.12,17.33,0.88,21.9,7.48
			c3.89,5.62,2.67,13.21,0.92,19.82c-21.86,82.65-107.44,143.45-192.68,136.87s-160.49-79.79-169.4-164.82"/>
		<g>
			<path d="M738.23,1020.79c69.01,1.02,138.02,0.91,207.03,1.05c34.63,0.07,69.27,0.2,103.9,0.57c8.54,0.09,17.08,0.19,25.61,0.32
				c5.89,0.09,12.55-0.11,17.85,2.88c11.91,6.73,2.15,26.76-1.58,36.11c-18.69,46.95-59.74,84.01-106.92,101.15
				c-48.88,17.75-101.99,12.71-146.79-13.63c-43.59-25.61-77.28-68.78-88.76-118.29c-1.43-6.17-2.5-12.41-3.19-18.71
				c-0.97-8.86-11.45,0.23-10.81,6c5.87,53.78,36.28,102.43,79.9,133.95c44,31.79,99.59,43.14,152.18,28.89
				c52.62-14.26,99.27-51.11,124.95-99.26c6.54-12.27,11.7-25.17,15.34-38.58c3.69-13.58,3.03-28.78-12.88-32.9
				c-7.29-1.89-15.19-1.36-22.65-1.46c-8.88-0.12-17.75-0.22-26.63-0.3c-18.24-0.17-36.48-0.28-54.72-0.36
				c-73.38-0.3-146.75-0.02-220.13-0.82c-8.85-0.1-17.7-0.21-26.55-0.34C737.54,1006.98,731.77,1020.7,738.23,1020.79
				L738.23,1020.79z"/>
		</g>
	</g>
</g>
<g id="Ebene_4">
	<g class="st2">
		<path d="M749.75,1027.76c24.55,40.04,63.31,69.82,105.27,90.91c41.97,21.09,104.69,42.24,157.53,42.24
			c-49.15,14.86-129.39,13.22-173.62-12.87c-44.23-26.08-87.76-78.97-98.54-129.17"/>
		<g>
			<path d="M745.1,1033.42c41.88,67.68,120.48,105.9,195.34,124.72c22.73,5.72,46.06,9.52,69.54,9.62
				c1.28-4.54,2.57-9.07,3.85-13.61c-40.12,11.96-85.33,12.39-126.14,3.79c-19.9-4.19-38.35-11.38-55.17-22.89
				c-19.79-13.53-37.15-30.57-51.75-49.55c-16.22-21.08-29.38-45-35.15-71.12c-0.77-3.5-4.71-2.34-6.68-0.75
				c-2.69,2.18-4.49,6.25-3.73,9.69c10.5,47.54,43.93,90.39,82.25,119.28c17.22,12.98,35.86,21.84,56.76,27.13
				c21.46,5.43,43.76,7.53,65.86,7.42c23.92-0.12,48.24-2.67,71.22-9.52c3.16-0.94,5.45-4.13,6.28-7.19c0.54-2,0.76-6.4-2.43-6.42
				c-40.75-0.16-81.39-10.88-119.19-25.48c-35.54-13.73-69.77-31.88-98.78-56.81c-16.65-14.31-31.2-30.98-42.76-49.66
				C751,1016.6,742,1028.42,745.1,1033.42L745.1,1033.42z"/>
		</g>
	</g>
	<g class="st2">
		<path d="M671.47,771.5c-5.64,66.19,32.6,145.51,86.5,184.34c-26.66-8.1-60.11,11.16-81.28-6.95
			c-11.35-9.71-13.43-26.24-14.18-41.16c-2.14-42.62,0.13-85.47,6.77-127.62"/>
		<g>
			<path d="M666.07,774.5c-4.49,55.78,18.7,114.07,54.43,156.27c9.97,11.78,21.24,22.49,33.73,31.57c2.11-4.45,4.22-8.9,6.33-13.36
				c-13.9-3.96-28.45-1.34-42.52,0.24c-13.4,1.5-29.23,2.32-39.25-8.47c-10.03-10.79-10.5-26.97-11.09-40.86
				c-0.81-19.06-0.73-38.15,0.22-57.2c1.07-21.41,3.33-42.73,6.63-63.91c0.44-2.85-0.56-6.01-3.99-5.41
				c-3.32,0.58-6.05,5.04-6.53,8.08c-6.21,39.85-8.75,80.26-7.3,120.57c0.55,15.27,0.79,32.3,9.33,45.61
				c8.21,12.79,22.72,16.69,37.13,16.11c17.37-0.7,35.03-5.93,52.21-1.03c5.23,1.49,10.77-10.13,6.33-13.36
				c-43.65-31.74-73.15-84.15-82.62-136.83c-2.61-14.51-3.41-29.32-2.23-44.01c0.27-3.37-2.92-4.47-5.51-3.18
				C668.03,766.97,666.35,771.02,666.07,774.5L666.07,774.5z"/>
		</g>
	</g>
	<g class="st2">
		<path d="M1077.12,778.81c3.91,65,34.31,128.01,82.76,171.52c-15.96,3.32-32.23,6.66-48.43,4.89c-16.2-1.77-33.61,2.47-41.71-11.67
			c-7.8-13.62-3.38-49.35-2.05-64.99c3.23-38.01,4.15-69.05,7.39-107.06"/>
		<g>
			<path d="M1071.71,781.81c4.24,66.77,34.8,130.15,84.41,175.01c1.67-4.41,3.35-8.83,5.02-13.24c-10.73,2.23-21.56,4.56-32.53,5.12
				c-8.96,0.46-17.85-0.76-26.8-0.93c-7-0.13-14.94,0.15-21.2-3.48c-5.48-3.17-7.67-8.68-8.81-14.59
				c-2.62-13.64-1.03-28.37,0.18-42.09c1.51-17.08,2.86-34.16,3.92-51.27c1.41-22.63,2.66-45.26,4.57-67.85
				c0.28-3.37-2.93-4.46-5.51-3.18c-3.35,1.66-5.01,5.7-5.3,9.19c-3.33,39.47-4.95,79.05-8.44,118.51
				c-1.31,14.87-2.62,30.28,0.07,45.07c1.18,6.51,3.66,12.72,8.83,17.08c5.59,4.7,13.15,5.81,20.21,6.16
				c9.97,0.49,20.24,1.46,30.2,1.22c12.86-0.31,25.51-2.86,38.07-5.47c4.85-1.01,9.09-9.56,5.02-13.24
				c-47.36-42.82-77.06-104.32-81.1-168.02c-0.21-3.24-2.6-4.62-5.51-3.18C1074.03,774.1,1071.5,778.47,1071.71,781.81
				L1071.71,781.81z"/>
		</g>
	</g>
	<g class="st2">
		<path d="M542.24,557.13c-131.56,238.97-143.52,536.14-8.81,773.34c-28.6,16.98-67.56,2.65-88.51-23.17
			c-47.46-58.47-106.29-507.75,74.11-743.97"/>
		<g>
			<path d="M538.34,554.88c-51.39,93.57-85.48,196.63-99.08,302.56c-13.42,104.47-7.14,211.55,20.98,313.18
				c15.97,57.72,39.03,113.4,68.54,165.51c1.52-3.95,3.03-7.9,4.55-11.85c-28.59,16.45-68.01,0.29-85.72-25.29
				c-7.1-10.25-10.82-21.28-14.77-33.51c-13.35-41.37-19.93-85.15-24.55-128.26c-6.38-59.51-7.98-119.6-5.1-179.38
				c3.17-65.81,11.95-131.59,28.59-195.41c16.26-62.37,40.57-123.34,76.8-176.9c4.22-6.24,8.65-12.33,13.21-18.32
				c1.77-2.33,4.02-6.78,1.89-9.56c-2.08-2.72-5.89-0.23-7.41,1.77c-40.54,53.24-68.53,115.07-87.55,178.98
				c-19.5,65.49-30.2,133.31-34.93,201.4c-4.34,62.41-3.64,125.26,2.11,187.57c4.31,46.67,10.78,93.94,24.06,139.01
				c4.01,13.62,8.62,27.53,15.79,39.87c13.98,24.05,44.83,40.43,72.51,38.21c8.98-0.72,17.48-3.32,25.29-7.82
				c3.65-2.1,6.84-7.8,4.55-11.85c-51.47-90.88-82.32-192.73-91.67-296.68c-9.27-103.06,1.91-207.87,31.79-306.91
				c16.94-56.14,39.71-110.44,67.94-161.84c1.25-2.28,2.83-7.03-0.15-8.75C543.07,548.95,539.55,552.67,538.34,554.88L538.34,554.88
				z"/>
		</g>
	</g>
	<g class="st2">
		<g>
			<path d="M1042.61,790.25c5.84,0,11.57-13.72,5.16-13.72C1041.93,776.53,1036.2,790.25,1042.61,790.25L1042.61,790.25z"/>
		</g>
	</g>
</g>
<g id="Ebene_5">
	<g class="st2">
		<g>
			<path class="st3" d="M1102.93,569.26c8.93,0.95,17.85,1.92,26.76,2.99c4.37,0.52,8.73,1.07,13.1,1.65
				c2.06,0.27,4.11,0.55,6.17,0.83c1.03,0.14,2.06,0.29,3.08,0.43c1.48,0.21,6.35,0.23,0.2,0.02c8.56,0.29,17.69,2.82,26.1,4.44
				c8.87,1.71,17.69,3.64,26.45,5.85c0.99,0.25,1.99,0.51,2.98,0.77c0.66,0.17,3.87,1.06,1.18,0.31c-2.68-0.75,0.51,0.15,1.17,0.34
				c1.23,0.35,2.45,0.7,3.68,1.06c4.39,1.29,8.75,2.66,13.08,4.13c8.11,2.75,16.05,5.89,23.9,9.29c-2.72-1.18-0.33-0.15,0.18,0.09
				c0.9,0.43,1.81,0.85,2.7,1.28c1.79,0.86,3.58,1.75,5.35,2.65c3.98,2.03,7.89,4.18,11.74,6.45c7.47,4.41,14.67,9.28,21.51,14.63
				c60.11,47.05,75.71,128.59,80.67,201.3c3.43,50.21,3.36,100.84,13.29,150.37c1.7,8.47,18.55,8.85,25,8.75
				c5.85-0.09,12.19-0.38,17.68-2.56c2.2-0.87,7.98-2.92,7.32-6.19c-17.07-85.08-4.47-174.31-31.69-257.63
				c-11.9-36.42-30.85-70.4-60.22-95.57c-28.31-24.26-62.43-40.04-98.11-50.22c-42.43-12.1-86.21-17.71-129.98-22.35
				c-6.2-0.66-13.15-0.42-19.26,0.88c-3.14,0.67-9.4,2.14-11.49,5.23C1080.24,566.26,1099.78,568.93,1102.93,569.26L1102.93,569.26z
				"/>
		</g>
	</g>
	<g class="st2">
		<g>
			<path class="st3" d="M895.48,354.68c13.52,8.53,21.72,24.98,21.26,41.78c-0.09,3.28,5.17,5.4,7.32,6.19
				c5.34,1.97,12.06,2.65,17.68,2.56c5.85-0.09,12.19-0.38,17.68-2.56c2.69-1.07,7.23-2.65,7.32-6.19
				c0.56-20.71-10.78-39.7-28.09-50.61c-9.15-5.77-24.04-5.5-34.2-3.14C899.25,343.92,886.05,348.74,895.48,354.68L895.48,354.68z"
				/>
		</g>
	</g>
	<g class="st2">
		<g>
			<path class="st3" d="M1105.34,684.24c9.85,1.07,19.71,2.15,29.54,3.43c2.46,0.32,4.91,0.66,7.37,1c1.04,0.14,4.43,0.5-0.46-0.07
				c1.22,0.14,2.46,0.38,3.67,0.57c4.88,0.78,9.76,1.64,14.61,2.6c4.84,0.96,9.67,2.02,14.46,3.2c1.2,0.3,2.39,0.61,3.59,0.91
				c-0.35-0.09-2.83-0.81-0.6-0.16c2.67,0.78,5.33,1.54,7.98,2.38c4.35,1.38,8.66,2.89,12.91,4.54c1.71,0.67,3.41,1.36,5.1,2.08
				c0.37,0.16,3.37,1.45,1.65,0.69c-1.71-0.75,2.01,0.94,2.33,1.1c29.85,14.36,55.26,37.35,66.15,69.56
				c11.57,34.25,9.02,71.39,6.88,106.88c-2.55,42.34-5.11,84.68-7.66,127.02c-2.87,47.63-5.74,95.26-8.62,142.9
				c-0.2,3.24,5.29,5.44,7.32,6.19c5.34,1.97,12.06,2.65,17.68,2.56c5.85-0.09,12.19-0.38,17.68-2.56c2.76-1.1,7.11-2.62,7.32-6.19
				c5.27-87.33,10.53-174.65,15.8-261.98c2.23-37.01,5.77-75.7-5.39-111.7c-5.35-17.26-13.83-33.23-26.06-46.6
				c-11.96-13.08-26.64-23.85-42.3-32.08c-42.43-22.31-90.7-28.02-137.67-33.14c-6.19-0.67-13.16-0.42-19.26,0.88
				c-3.14,0.67-9.4,2.14-11.49,5.23C1082.64,681.25,1102.2,683.9,1105.34,684.24L1105.34,684.24z"/>
		</g>
	</g>
	<g class="st2">
		<g>
			<path class="st3" d="M1107.28,878.9c19.91-22.13,39.83-44.25,59.74-66.38c2.33-2.59-0.49-5.42-2.52-6.74
				c-3.98-2.59-10.4-3.65-14.94-4.02c-6.36-0.53-13.02-0.57-19.26,0.88c-4.05,0.94-8.59,2.01-11.49,5.23
				c-19.91,22.13-39.83,44.25-59.74,66.38c-2.33,2.59,0.49,5.42,2.52,6.74c3.98,2.59,10.4,3.65,14.94,4.02
				c6.36,0.53,13.02,0.57,19.26-0.88C1099.84,883.19,1104.38,882.12,1107.28,878.9L1107.28,878.9z"/>
		</g>
	</g>
	<g class="st2">
		<g>
			<path class="st3" d="M1133.83,896.6c8.85-11.06,17.7-22.13,26.55-33.19c5.84-7.31-14.13-10.49-17.46-10.76
				c-6.36-0.53-13.02-0.57-19.26,0.88c-3.91,0.91-8.85,1.92-11.49,5.23c-8.85,11.06-17.7,22.13-26.55,33.19
				c-5.84,7.31,14.13,10.49,17.46,10.76c6.36,0.53,13.02,0.57,19.26-0.88C1126.25,900.92,1131.19,899.9,1133.83,896.6L1133.83,896.6
				z"/>
		</g>
	</g>
	<g class="st2">
		<g>
			<path class="st3" d="M885.69,1115.47c34.66-19.17,69.33-38.35,103.99-57.52c9.7-5.36-4.24-11.06-8.97-11.97
				c-10.71-2.05-24.33-2.33-34.2,3.14c-34.66,19.17-69.33,38.35-103.99,57.52c-9.7,5.36,4.24,11.06,8.97,11.97
				C862.2,1120.67,875.82,1120.94,885.69,1115.47L885.69,1115.47z"/>
		</g>
	</g>
	<g class="st2">
		<g>
			<path class="st3" d="M722.3,872.26c12.54-15.49,25.08-30.98,37.61-46.46c5.89-7.28-14.16-10.49-17.46-10.76
				c-6.36-0.53-13.02-0.57-19.26,0.88c-3.92,0.91-8.82,1.93-11.49,5.23c-12.54,15.49-25.08,30.98-37.61,46.46
				c-5.89,7.28,14.16,10.49,17.46,10.76c6.36,0.53,13.02,0.57,19.26-0.88C714.73,876.58,719.63,875.56,722.3,872.26L722.3,872.26z"
				/>
		</g>
	</g>
	<g class="st2">
		<g>
			<path class="st3" d="M733.36,914.3c12.54-14.01,25.08-28.03,37.61-42.04c2.32-2.6-0.48-5.42-2.52-6.74
				c-3.98-2.59-10.4-3.65-14.94-4.02c-6.36-0.53-13.02-0.57-19.26,0.88c-4.05,0.94-8.6,2-11.49,5.23
				c-12.54,14.01-25.08,28.03-37.61,42.04c-2.32,2.6,0.48,5.42,2.52,6.74c3.98,2.59,10.4,3.65,14.94,4.02
				c6.36,0.53,13.02,0.57,19.26-0.88C725.92,918.59,730.47,917.53,733.36,914.3L733.36,914.3z"/>
		</g>
	</g>
	<g class="st2">
		<g>
			<path class="st3" d="M881.71,1111.72c28.89-18.98,57.79-37.95,86.68-56.93c8.99-5.91-3.58-10.94-8.97-11.97
				c-6.29-1.21-12.9-1.62-19.26-0.88c-4.96,0.58-10.68,1.22-14.94,4.02c-28.89,18.98-57.79,37.95-86.68,56.93
				c-8.99,5.91,3.58,10.94,8.97,11.97c6.29,1.21,12.9,1.62,19.26,0.88C871.72,1115.17,877.45,1114.52,881.71,1111.72L881.71,1111.72
				z"/>
		</g>
	</g>
	<g class="st2">
		<g>
			<path class="st3" d="M923.05,1143.89c27.24-19.24,54.48-38.48,81.72-57.72c8.67-6.12-3.28-10.88-8.97-11.97
				c-6.29-1.21-12.9-1.62-19.26-0.88c-4.86,0.56-10.85,1.13-14.94,4.02c-27.24,19.24-54.48,38.48-81.72,57.72
				c-8.67,6.12,3.28,10.88,8.97,11.97c6.29,1.21,12.9,1.62,19.26,0.88C912.98,1147.34,918.96,1146.78,923.05,1143.89L923.05,1143.89
				z"/>
		</g>
	</g>
</g>
<g id="Ebene_6">
	<g>
		<g id="Ebene_8">
			<g class="st4">
				<path d="M882.4,1391.39c-30.21,80.2-51.15,156.17-83.63,242.39c112.57-44.9,232.24-99.63,324.33-173.65
					c61.18-49.17,110.43-109.13,161.26-167.23c107.77-123.18,224.53-239.86,349.28-349c-16.3-1.76-22.58-22.28-15.11-35.58
					c7.47-13.29,22.9-20.93,36.98-28.6s28.7-17.54,32.32-32.1c-22.97-33.67-45.84-72.5-86.22-87.4
					c-44.36-16.38-42.22-22.51-92.98,32.01c-5.24,5.63-33.52,34.18-40.58,45.29c-87.01,136.73-57.6,101.7-80.79,81.96"/>
				<g>
					<path d="M879.36,1391.12c-23.11,61.46-42.06,124.12-63.4,186.09c-6.49,18.84-13.21,37.61-20.23,56.29
						c-0.87,2.3-0.1,5.12,3.1,3.85c65.5-26.14,130.23-54.25,191.8-87.47c61.54-33.2,119.71-71.64,169.76-118.34
						c51.91-48.43,96.03-103.07,142.64-155.6c48.31-54.44,98.39-107.6,150.14-159.36c51.89-51.9,105.48-102.41,160.68-151.42
						c6.88-6.11,13.79-12.2,20.71-18.26c1.47-1.28,4.55-6.49,0.71-7.01c-12.96-1.76-18.39-15.58-15.82-26.09
						c3.35-13.69,20.23-21.91,32.36-28.49c12.97-7.03,26.39-14.76,34.26-26.88c1.9-2.92,3.4-6.05,4.43-9.31
						c1.23-3.89-0.1-5.36-2.34-8.68c-4.05-5.99-8.04-12-12.14-17.97c-15.91-23.17-33.99-47.17-60.66-61.02
						c-10.12-5.26-21.5-9.13-32.39-12.95c-6.53-2.29-13.42-4.41-20.5-3.62c-7.37,0.83-13.77,4.83-19.29,9.1
						c-10.19,7.89-18.92,17.44-27.61,26.64c-15.28,16.17-31.6,31.89-45.34,49.18c-9.15,11.52-16.24,24.56-23.99,36.88
						c-6.89,10.96-13.74,21.94-20.6,32.91c-4.43,7.08-8.84,14.17-13.39,21.19c-1.56,2.41-3.14,4.81-4.77,7.17
						c-0.58,0.84-1.18,1.68-1.78,2.51c-0.28,0.39-0.57,0.78-0.86,1.16c0.76-1-0.19,0.24-0.36,0.44c-0.46,0.56-0.93,1.1-1.4,1.65
						c-0.17,0.2-0.37,0.39-0.55,0.59c-0.77,0.81,0.71-0.66-0.04,0.05c-0.84,0.78-0.21,0.12-0.2,0.21c0.02,0.27,0.3-0.01-0.15,0.05
						c0.75-0.1,0.38-0.19,0.49,0.01c-0.32-0.57-0.86-1.13-1.22-1.71c-0.24-0.39-0.43-0.85-1.04-2.12c-0.55-1.15-1.09-2.3-1.68-3.44
						c-1.37-2.67-2.91-5.25-4.88-7.59c-1.09-1.29-2.29-2.49-3.58-3.6c-3.2-2.76-8.56,4.32-5.94,6.57c2.13,1.83,3.96,3.89,5.52,6.15
						c1.38,2,2.43,3.97,3.14,5.47c1.15,2.39,2.25,6.69,5.15,7.88c4.45,1.82,8.73-4.07,10.8-6.75c6.62-8.58,12.12-17.91,17.82-26.99
						c11.85-18.89,23.63-37.82,35.56-56.68c5.55-8.76,10.93-17.12,17.85-25.03c6.57-7.5,13.46-14.78,20.38-22.02
						c13.57-14.18,26.32-29.39,41.48-42.21c4.56-3.85,9.66-7.87,15.83-9.32c5.16-1.21,10.49-0.26,15.47,1.2
						c7.6,2.23,14.89,5.37,22.26,8.15c11.5,4.33,21.97,9.63,31.48,16.99c19.93,15.42,34.12,36.16,47.67,56.24
						c3.39,5.02,6.75,10.06,10.16,15.06c-0.13-0.84-0.26-1.68-0.39-2.51c-3.54,12.99-17.18,21.23-29.03,27.73
						c-11.97,6.56-24.61,12.88-33.58,22.89c-7.55,8.42-11.43,18.71-9.27,29.55c1.88,9.41,8.52,17.83,19.4,19.31
						c0.24-2.34,0.47-4.67,0.71-7.01c-55.28,48.39-109.02,98.23-161.1,149.46c-52.02,51.17-102.39,103.73-151.02,157.59
						c-47.31,52.4-91.44,107.37-141.53,157.65c-48.68,48.89-104.77,89.85-166.2,124.78c-60.66,34.5-124.92,63.51-190.13,90.15
						c-7.99,3.26-15.99,6.49-24,9.69c1.03,1.28,2.07,2.56,3.1,3.85c23.51-62.51,42.95-126.17,64.58-189.22
						c6.1-17.8,12.42-35.53,19.05-53.17C887.48,1386.17,880.96,1386.87,879.36,1391.12L879.36,1391.12z"/>
				</g>
			</g>
		</g>
		<g id="Ebene_3_1_">
			<g>
				<g>
					<path d="M871.08,1514.46c-10.3,41.74-23.71,82.8-40.1,122.91c-0.9,2.21-0.04,5.26,3.1,3.85
						c41.04-18.39,82.09-36.78,123.14-55.17c1.9-0.85,4.91-5.03,2.9-6.88c-26.66-24.55-53.32-49.1-79.99-73.64
						c-3.08-2.84-8.5,4.22-5.94,6.57c26.66,24.55,53.32,49.1,79.99,73.64c0.97-2.29,1.93-4.58,2.9-6.88
						c-41.04,18.39-82.09,36.78-123.14,55.17c1.03,1.28,2.07,2.56,3.1,3.85c16.66-40.77,30.27-82.54,40.74-124.97
						c0.41-1.65-0.44-3.48-2.55-3.14C873.03,1510.12,871.51,1512.68,871.08,1514.46L871.08,1514.46z"/>
				</g>
			</g>
		</g>
		<g id="Ebene_4_1_">
			<g>
				<path class="st5" d="M921.05,1391.39c-2.82,21.07-15.01,39.97-23.9,59.6c-8.89,19.63-14.41,42.61-3.98,61.6
					c7.73,14.08,22.81,23.37,34.47,35.01c11.85,11.83,22.46,27.51,39.9,29.65c10.51,1.29,20.8-2.91,30.41-7
					c31.39-13.38,62.78-26.76,94.18-40.14c-60.26-40.01-116.34-85.23-167.24-134.84"/>
				<g>
					<path class="st5" d="M917.69,1392.16c-3.34,23.64-18.12,43.84-26.69,65.95c-7.99,20.64-11.28,44.65,3.05,63.69
						c6.64,8.83,15.79,15.72,24.18,23.11c7.83,6.89,14.28,14.82,21.72,22.03c6.85,6.64,14.89,12.64,25.05,14.17
						c13.46,2.04,26.43-4.46,38.18-9.48c29.67-12.64,59.34-25.29,89.01-37.94c2.34-1,5-5.58,2.33-7.36
						c-46.86-31.14-91.21-65.38-132.53-102.44c-11.62-10.42-23-21.07-34.14-31.92c-2.98-2.9-8.44,4.14-5.94,6.57
						c39.83,38.79,82.78,74.93,128.43,107.99c12.92,9.36,26.06,18.46,39.39,27.33c0.78-2.45,1.55-4.9,2.33-7.36
						c-25.27,10.77-50.53,21.54-75.81,32.31c-6.31,2.69-12.6,5.38-18.91,8.06c-5.97,2.54-12.05,5.02-18.57,6.12
						c-11.14,1.87-20.96-2.29-28.99-9.08c-7.55-6.39-13.49-14.16-20.56-20.97c-7.72-7.44-16.57-13.86-23.97-21.59
						c-7.67-8.01-12.86-17.34-14-28.01c-1.16-10.78,1.1-21.67,4.77-31.89c8.6-23.97,24.8-45.42,28.39-70.84
						C925.21,1384.96,918.22,1388.41,917.69,1392.16L917.69,1392.16z"/>
				</g>
			</g>
		</g>
		<g id="Ebene_5_1_">
			<g>
				<path class="st6" d="M1384.18,948.97c-145.88,135.02-290.63,262.42-431.04,402.16c-8.47,8.43-27.96,28.29-27.23,39.69
					c0.78,12.14,25.33,19.97,34.79,28.57c40.69,36.99,68.54,54.45,115.06,92.44c3.75,3.06,22.12,30.42,46.51,3.78
					c130.27-142.22,433.44-460.08,432.77-466.2c-0.54-4.91-3.65-9.74-8.16-12.48c-41.5-25.23-76.82-62.33-121.3-85.74
					c-14-7.37-35.76-12.02-43.21,1.03"/>
				<g>
					<path class="st6" d="M1383.23,945.94c-31.45,29.1-63.06,58.06-94.72,86.97c-31.26,28.55-62.55,57.06-93.77,85.65
						c-31.15,28.53-62.21,57.14-93.07,85.93c-31.11,29.04-62.01,58.26-92.56,87.77c-15.39,14.87-30.7,29.82-45.9,44.84
						c-11.05,10.92-22.51,21.67-31.62,34.05c-3.87,5.26-7.72,11.22-8.86,17.56c-1.02,5.7,1.18,10.64,5.59,14.69
						c5.02,4.62,11.24,7.98,17.25,11.41c2.94,1.68,5.89,3.35,8.67,5.23c3.22,2.18,5.92,4.87,8.78,7.42
						c25.61,22.85,53.34,43.44,80.64,64.57c7.78,6.02,15.5,12.1,23.15,18.27c3.93,3.16,7.23,6.27,10.7,9.77
						c7.36,7.43,17.57,13.59,28.95,9.97c12.68-4.04,20.8-15.74,29.09-24.75c7.23-7.85,14.46-15.69,21.72-23.51
						c16.45-17.76,32.96-35.49,49.49-53.2c18.13-19.42,36.29-38.82,54.46-58.2c19.04-20.31,38.09-40.61,57.15-60.91
						c18.85-20.07,37.7-40.14,56.55-60.21c17.9-19.07,35.8-38.14,53.68-57.22c15.87-16.94,31.73-33.89,47.55-50.87
						c13.06-14.02,26.1-28.06,39.07-42.15c9.22-10.02,18.42-20.05,27.46-30.21c4.78-5.37,9.94-10.72,14-16.58
						c3.87-5.59,0.23-12.69-4.59-16.94c-3.24-2.86-7.42-4.94-11.07-7.33c-3.89-2.55-7.72-5.18-11.5-7.87
						c-7.65-5.44-15.09-11.12-22.46-16.86c-14.92-11.62-29.57-23.54-45.06-34.54c-7.72-5.48-15.63-10.74-23.86-15.57
						c-7.03-4.14-14.19-8.17-22.19-10.58c-13.08-3.94-28.65-3.97-36.08,8.4c-0.8,1.32-1.81,4.07,0.1,5.08
						c1.86,0.97,4.11-1.18,4.88-2.47c3.01-5.01,9.65-5.85,15.41-5.47c7.17,0.47,14.14,2.68,20.48,5.69
						c16.48,7.81,31.53,18.62,45.85,29.29c14.89,11.11,29.19,22.85,43.95,34.09c7.13,5.43,14.37,10.75,21.83,15.79
						c6.96,4.71,16.78,8.58,18.93,16.93c0.34,1.35-0.01,1.69,0.36,0.45c0.2-0.69,0.43-1.29,0.22-0.78c0.4-0.95,0.68-1.1,0.14-0.37
						c-0.23,0.31-0.47,0.62-0.67,0.94c-0.38,0.59,0.91-1.14,0.27-0.36c-0.18,0.22-0.34,0.45-0.52,0.67
						c-1.96,2.45-4.01,4.84-6.08,7.22c-7.42,8.55-15.07,16.93-22.72,25.31c-11.41,12.49-22.9,24.91-34.41,37.31
						c-14.5,15.62-29.04,31.2-43.6,46.77c-16.81,17.97-33.64,35.93-50.48,53.87c-18.09,19.28-36.19,38.55-54.29,57.82
						c-18.68,19.89-37.35,39.77-56.02,59.67c-18.23,19.42-36.45,38.86-54.64,58.3c-17.01,18.18-34,36.37-50.96,54.59
						c-15,16.13-29.98,32.28-44.89,48.47c-3.27,3.55-6.53,7.1-9.79,10.65c-4.54,4.96-9.35,10.44-16.49,12.23
						c-10.33,2.59-19.01-4.5-25.17-11.12c-4.03-4.33-8.87-7.89-13.55-11.63c-7.25-5.8-14.57-11.54-21.94-17.22
						c-13.18-10.17-26.52-20.18-39.6-30.46c-13.7-10.76-27.05-21.88-39.92-33.47c-4.99-4.49-10.22-8.03-16.17-11.43
						c-5.8-3.31-12.15-6.52-16.84-11.14c-3.95-3.89-5.05-7.65-2.94-12.58c2.48-5.8,6.72-11.03,10.9-15.91
						c10.6-12.41,22.86-23.7,34.58-35.22c29.67-29.19,59.73-58.07,90.04-86.72c29.98-28.34,60.22-56.44,90.6-84.43
						c30.49-28.09,61.11-56.07,91.74-84.03c30.65-27.98,61.32-55.94,91.88-84c14.96-13.73,29.89-27.48,44.78-41.26
						c1.47-1.36,3.13-3.59,2.38-5.62C1386.83,944.56,1384.54,944.73,1383.23,945.94L1383.23,945.94z"/>
				</g>
			</g>
		</g>
		<g id="Ebene_6_1_">
			<g>
				<path class="st7" d="M1462.93,831.97c-24.45,20.39-46.77,42.88-66.58,67.08c-4.95,6.04-9.96,12.93-9.1,20.43
					c0.98,8.45,9.01,14.57,16.44,19.73c45.08,31.34,92.57,59.4,137.65,90.74c9.29,6.45,17.73,16.56,29.22,14.62
					c9.43-1.6,19.34-7.14,22.57-15.35c9.21-23.46,33.47-42.26,49.21-53.08c7.33-5.04,12.17-13.51,12.26-21.87
					c0.12-10.78-9.84-19.17-19.09-25.92c-53.01-38.71-109.46-73.51-168.63-103.94"/>
				<g>
					<path class="st7" d="M1461.99,828.94c-19.25,16.09-37.26,33.42-53.75,51.88c-4.18,4.68-8.27,9.44-12.26,14.26
						c-3.72,4.5-7.39,9.07-9.84,14.28c-2.25,4.76-3.2,10.19-1.7,15.26c1.42,4.77,4.81,8.78,8.69,12.13
						c9.2,7.96,20.16,14.51,30.38,21.31c11.1,7.39,22.3,14.65,33.52,21.88c22.46,14.45,45.02,28.76,67.12,43.66
						c5.32,3.59,10.7,7.13,15.87,10.89c4.19,3.05,7.99,6.53,12.31,9.43c3.78,2.52,8.23,4.68,13.02,4.85
						c5.1,0.19,10.37-1.53,14.85-3.62c4.6-2.14,8.85-5.23,11.92-9.03c3.22-3.97,4.56-8.62,6.91-12.99c4.83-9.01,11.72-17,19.3-24.22
						c6.59-6.28,13.89-11.98,21.42-17.32c4.15-2.94,8.06-5.8,11.12-9.76c3.3-4.27,5.68-9.17,6.64-14.33
						c1.93-10.28-3-18.91-10.92-25.98c-8.78-7.84-19.03-14.47-28.77-21.29c-41.96-29.39-85.95-56.37-131.64-80.73
						c-5.62-3-11.28-5.96-16.95-8.88c-3.41-1.76-8.2,5.78-4.79,7.54c43.34,22.32,85.24,46.93,125.38,73.73
						c10.19,6.81,20.28,13.75,30.24,20.83c8.65,6.15,18.36,12.08,25.19,20c3.1,3.58,5.63,7.76,5.83,12.41
						c0.2,4.55-1.47,9.22-4.33,12.93c-2.6,3.37-6.3,5.62-9.8,8.12c-3.4,2.43-6.72,4.93-9.96,7.53
						c-15.29,12.26-29.31,26.86-36.61,44.4c-3.15,7.57-13.64,13.42-22.61,12.64c-9.36-0.81-16.45-9.1-23.35-14.07
						c-20.2-14.52-41.49-27.87-62.52-41.37c-21.29-13.68-42.65-27.29-63.56-41.45c-4.9-3.32-9.83-6.62-14.62-10.07
						c-4.11-2.97-8.14-6.22-10.83-10.38c-6.39-9.89,2.66-19.18,9.05-26.79c14.92-17.76,31.19-34.6,48.72-50.27
						c4.31-3.85,8.71-7.64,13.16-11.36c1.53-1.28,3.11-3.66,2.38-5.62C1465.55,827.5,1463.34,827.81,1461.99,828.94L1461.99,828.94z
						"/>
				</g>
			</g>
		</g>
		<g id="Ebene_7">
			<g>
				<path class="st8" d="M1494.02,829.69c11.96-30.29,37.97-50.61,60.35-74.07c3.38-3.55,14-3.64,19.1-4.34
					c5.64-0.77,10.91,2.46,15.51,5.54c38.09,25.44,76.19,50.88,114.28,76.32c7.3,4.87,15.43,11.36,14.39,19.54
					c-0.62,4.93-4.51,8.92-8.22,12.56c-16.95,16.65-33.9,33.3-50.85,49.95c-3.91,3.84-8.31,7.92-14.02,8.58
					c-6.3,0.73-12.1-2.92-17.19-6.38c-44.55-30.34-89.1-60.68-133.64-91.01"/>
				<g>
					<path class="st9" d="M1497.05,829.96c5.83-14.54,15.37-27.24,26.29-39c5.47-5.89,11.22-11.56,16.98-17.21
						c2.55-2.5,5.09-5,7.62-7.51c1.38-1.38,2.76-2.76,4.12-4.14c0.68-0.7,1.37-1.39,2.04-2.09c0.45-0.46,0.9-0.93,1.35-1.4
						c0.79-0.78,0.91-0.92,0.35-0.44c2.38-1.53,5.92-1.79,8.73-2.13c3.29-0.39,7.1-1.13,10.42-0.8c4.36,0.43,8.2,3.09,11.63,5.36
						c4.44,2.94,8.84,5.91,13.26,8.86c16.67,11.13,33.33,22.26,50,33.39c17,11.36,34.07,22.64,51.02,34.07
						c5.48,3.7,13.3,8.97,13.42,15.84c0.06,3.57-2.76,6.35-5.22,8.84c-3.56,3.62-7.24,7.13-10.87,10.69
						c-14,13.76-27.86,27.66-42.03,41.28c-2.52,2.42-5.32,5-8.93,5.94c-4.65,1.21-9.23-0.82-13.06-3.06
						c-8.61-5.03-16.61-11.15-24.8-16.72c-37.74-25.71-75.49-51.41-113.24-77.11c-3.01-2.05-8.01,5.34-4.79,7.54
						c36.22,24.66,72.43,49.32,108.65,73.99c8.9,6.06,17.69,12.27,26.71,18.17c7.52,4.93,16.04,7.69,24.44,2.7
						c3.86-2.29,6.96-5.36,10.07-8.41c3.73-3.67,7.47-7.33,11.2-11.01c7.62-7.48,15.22-14.95,22.84-22.43
						c3.88-3.81,7.76-7.62,11.64-11.43c3.45-3.39,7.09-6.67,9.94-10.51c5.06-6.83,5.89-14.92,0.56-21.82
						c-5.34-6.91-14.08-11.6-21.43-16.5c-9.01-6.02-18.03-12.04-27.04-18.06c-18.03-12.04-36.05-24.08-54.08-36.12
						c-8.95-5.98-17.69-12.49-27.04-17.94c-3.74-2.18-7.94-3.86-12.47-3.51c-3.47,0.27-6.98,0.62-10.42,1.09
						c-3.28,0.45-6.66,1.13-9.49,2.79c-3.52,2.07-6.15,5.7-8.94,8.49c-6.05,6.08-12.26,12.04-18.29,18.12
						c-12.16,12.24-23.76,25.24-31.78,40.14c-2.02,3.77-3.85,7.61-5.43,11.54c-0.57,1.43-0.8,3.92,1.39,4.24
						C1494.49,833.99,1496.46,831.44,1497.05,829.96L1497.05,829.96z"/>
				</g>
			</g>
		</g>
		<g id="Ebene_2_1_">
			<g>
				<g>
					<path d="M1465.25,820.35c-17.54,18.88-35.12,37.72-52.69,56.57c-4.51,4.85-9.03,9.68-13.54,14.53
						c-4.09,4.39-8.87,8.66-12.06,13.67c-5.24,8.23-5.74,18.66-0.38,26.94c3.04,4.69,7.89,7.54,12.67,10.62
						c6.17,3.96,12.33,7.95,18.47,11.94c12.24,7.96,24.43,15.96,36.63,23.98c24.2,15.92,48.37,31.88,72.76,47.55
						c6.07,3.9,12.15,7.79,18.26,11.65c2.88,1.82,5.76,3.64,8.65,5.45c2.83,1.78,5.62,3.92,8.84,5.08
						c10.93,3.96,21.32-3.08,26.85-11.28c5.04-7.49,9.41-15.41,15.25-22.44c5.3-6.38,11.78-11.62,18.18-17.06
						c5.56-4.72,10.77-9.84,15.82-15.01c5.75-5.89,11.53-12.02,15.95-18.81c1.59-2.44,3.08-5.11,3.56-7.94
						c0.87-5.15-0.95-10.5-3.75-14.94c-3.04-4.83-7.45-8.68-12.02-12.3c-5.32-4.21-10.69-8.37-16.1-12.47
						c-43.32-32.81-89.69-62.22-137.86-88.83c-6.03-3.33-12.08-6.61-18.17-9.86c-3.37-1.8-8.19,5.72-4.79,7.54
						c46.24,24.67,90.96,51.76,133.14,81.86c10.65,7.6,21.13,15.38,31.42,23.36c8.45,6.55,20.43,14.26,21.35,25.32
						c0.06,0.76,0.08,1.53-0.01,2.29c-0.07,0.55,0.22-0.45-0.21,0.6c-0.36,0.88-0.08,0.27-0.39,0.85c-0.4,0.73-0.84,1.43-1.3,2.12
						c-1.84,2.79-4.02,5.39-6.24,7.93c-5.2,5.97-10.83,11.65-16.65,17.13c-5.09,4.79-10.69,9.08-15.85,13.8
						c-5.83,5.34-10.9,11.09-15.34,17.44c-2.52,3.61-4.88,7.31-7.26,11c-2.62,4.08-4.85,8.66-9.52,11.14
						c-4.36,2.32-9.41,2.23-13.73-0.1c-6.08-3.29-11.79-7.35-17.59-11.04c-46.56-29.54-92.13-60.33-138.42-90.19
						c-4.95-3.19-10.94-6.08-14.76-10.45c-2.91-3.33-4.66-7.42-4.78-11.68c-0.11-4.04,1.28-7.77,4.09-10.89
						c4.09-4.55,8.36-8.98,12.54-13.46c16.95-18.19,33.9-36.36,50.83-54.55c3.89-4.18,7.78-8.36,11.67-12.55
						c1.19-1.29,2.53-3.98,1.21-5.55C1468.62,817.7,1466.28,819.24,1465.25,820.35L1465.25,820.35z"/>
				</g>
			</g>
			<g>
				<g>
					<path d="M1488.06,833.3c19.66-23.12,37.46-48.19,60.36-68.85c4.21-3.8,8.66-7.61,13.72-10.45c3.32-1.86,6.81-3.46,10.6-2.79
						c4.83,0.86,9.45,3.68,13.54,6.03c6.05,3.48,11.82,7.35,17.51,11.3c10.21,7.09,19.93,14.75,30.22,21.73
						c14.2,9.62,29.85,17.62,44.64,26.46c7.98,4.77,15.84,9.7,23.54,14.82c4.26,2.83,8.95,5.54,12.76,8.86
						c2.24,1.96,3.75,4.2,3.62,7.08c-0.15,3.09-1.21,6.17-1.8,9.21c-0.19,0.99-0.36,1.98-0.52,2.98c-0.15,0.91,0.03,0.02-0.03,0.21
						c-0.1,0.32-0.56,1.15-0.15,0.4c-0.3,0.56-0.66,1.1-1.01,1.64c-2.94,4.4-7.69,9.09-11.87,13.2
						c-8.97,8.83-18.66,16.97-28.32,25.16c-9.61,8.14-18.33,16.62-26.5,25.96c-2.84,3.24-5.69,6.49-8.55,9.71
						c-1.17,1.32-2.55,3.96-1.21,5.55c1.35,1.6,3.73,0.1,4.73-1.03c8.67-9.77,16.91-19.81,26.87-28.53
						c10.51-9.2,21.38-18,31.54-27.54c5.08-4.78,10.12-9.66,14.54-14.97c1.77-2.13,3.51-4.33,4.84-6.71c1.51-2.72,1.9-5.4,2.51-8.37
						c1.26-6.15,3.63-12.91-0.8-18.49c-2.89-3.64-7.5-6.2-11.4-8.84c-4.38-2.97-8.8-5.88-13.28-8.74
						c-15.96-10.18-32.59-19.42-48.89-29.12c-11.23-6.69-21.43-14.36-31.95-21.94c-10.98-7.92-22.36-16.7-35.2-22.04
						c-4.08-1.69-8.06-2.68-12.48-1.54c-5.33,1.37-10.08,4.44-14.34,7.56c-12.38,9.04-22.69,20.59-32.55,31.82
						c-10.92,12.44-21.22,25.31-31.74,38.03c-2.14,2.59-4.3,5.18-6.49,7.75c-1.14,1.34-2.56,3.94-1.21,5.55
						C1484.65,835.91,1487.08,834.45,1488.06,833.3L1488.06,833.3z"/>
				</g>
			</g>
			<g>
				<g>
					<path d="M1394.8,931.08c-38.3,37.35-77.34,74.07-116.73,110.46c-39.19,36.2-78.71,72.08-118.2,108.01
						c-39.55,35.98-79.06,72-118.15,108.39c-19.47,18.13-38.85,36.36-58.08,54.72c-9.81,9.37-19.58,18.77-29.3,28.21
						c-6.45,6.26-13.01,12.46-18.95,19.14c-5.64,6.35-11.53,13.43-14.19,21.35c-3,8.95,1.75,16.18,8.88,22.28
						c9.94,8.5,20.61,16.35,30.92,24.47c10.99,8.66,21.98,17.32,32.98,25.98c21.82,17.19,43.64,34.38,65.46,51.57
						c5.41,4.27,10.83,8.53,16.24,12.8c4.51,3.55,9.05,7.22,14.38,9.74c10.26,4.84,20.76,3.04,29.41-3.63
						c9.24-7.13,16.3-16.92,23.82-25.46c8.55-9.74,17.12-19.46,25.71-29.17c16.99-19.22,34.05-38.39,51.18-57.51
						c33.52-37.42,67.32-74.65,101.34-111.7c34.06-37.08,68.36-73.98,102.84-110.73c35.61-37.95,71.41-75.75,107.34-113.46
						c9.15-9.6,18.3-19.19,27.46-28.78c1.21-1.27,2.51-3.99,1.21-5.55c-1.37-1.63-3.7-0.06-4.73,1.03
						c-35.94,37.62-71.79,75.32-107.46,113.16c-34.14,36.22-68.11,72.56-101.87,109.08c-33.4,36.13-66.58,72.42-99.51,108.9
						c-33.72,37.35-67.19,74.9-100.39,112.64c-7.99,9.08-15.62,18.56-24.11,27.25c-3.22,3.3-7.02,6.59-11.69,8.05
						c-5.52,1.72-11.21,0.56-16.22-1.89c-5.32-2.61-9.87-6.32-14.41-9.89c-5.25-4.14-10.5-8.27-15.75-12.41
						c-10.67-8.4-21.33-16.8-31.99-25.2c-21.49-16.93-42.98-33.86-64.48-50.79c-10.42-8.21-21.1-16.22-31.28-24.68
						c-3.87-3.21-8.41-7.35-9.4-12.26c-0.48-2.39,0.64-4.88,1.74-7c3.77-7.23,9.79-13.57,15.56-19.53
						c7.19-7.42,14.76-14.54,22.21-21.73c18.87-18.23,37.92-36.32,57.07-54.3c38.25-35.91,76.99-71.39,115.82-106.77
						c38.86-35.4,77.82-70.7,116.54-106.24c38.52-35.37,76.79-70.96,114.46-107.09c9.32-8.94,18.61-17.92,27.85-26.93
						c1.25-1.22,2.49-4.03,1.21-5.55C1398.13,928.39,1395.87,930.03,1394.8,931.08L1394.8,931.08z"/>
				</g>
			</g>
			<g>
				<g>
					<path d="M917.43,1382.43c-12.73,32.66-24.89,65.5-36.63,98.47c-12.49,35.05-24.52,70.24-35.94,105.6
						c-6.1,18.87-12.03,37.79-17.71,56.77c-0.67,2.23,1.12,3.85,3.42,2.81c70.92-31.82,141.96-63.52,214.35-92.52
						c19.53-7.83,39.16-15.44,58.92-22.79c3.43-1.28,5.14-9.14-0.13-7.18c-71.87,26.74-142.11,56.98-211.89,87.91
						c-20.48,9.08-40.93,18.23-61.37,27.41c1.14,0.94,2.28,1.87,3.42,2.81c10.21-34.07,21.2-67.95,32.64-101.7
						c11.74-34.66,23.98-69.18,36.7-103.55c6.62-17.88,13.37-35.72,20.3-53.51c0.56-1.43,0.81-3.92-1.39-4.24
						C920,1378.4,918.01,1380.94,917.43,1382.43L917.43,1382.43z"/>
				</g>
			</g>
			<g>
				<path d="M875.8,1503.89c25.19,19.26,67.34,64.63,91.33,78.35c-42.65,16.27-86.61,38.98-132.72,56.58
					c19.2-72.66,35.34-119.02,40.1-131.24"/>
				<g>
					<path d="M873.41,1507.66c12.49,9.59,23.76,20.48,35.15,31.1c12.43,11.59,24.79,23.29,38,34.15c5.73,4.7,11.64,9.33,18.17,13.1
						c0.78-2.45,1.55-4.9,2.33-7.36c-45.06,17.24-87.65,39.34-132.72,56.58c1.14,0.94,2.28,1.87,3.42,2.81
						c10.42-39.4,21.63-78.71,35.1-117.35c1.5-4.31,3.03-8.61,4.68-12.87c0.56-1.43,0.81-3.92-1.39-4.24
						c-2.11-0.31-4.1,2.23-4.68,3.73c-11.17,28.74-19.72,58.46-28.19,87.92c-4.24,14.75-8.3,29.53-12.22,44.35
						c-0.62,2.35,1.07,3.71,3.42,2.81c45.07-17.24,87.65-39.34,132.72-56.58c2.27-0.86,5.1-5.76,2.33-7.36
						c-12.75-7.36-23.65-17.5-34.3-27.13c-12.89-11.66-25.36-23.69-38.27-35.33c-6.07-5.47-12.23-10.87-18.76-15.89
						C875.39,1497.96,870.32,1505.28,873.41,1507.66L873.41,1507.66z"/>
				</g>
			</g>
		</g>
		<g id="Ebene_9">
			<g class="st2">
				<g>
					<path d="M1569.48,751.33c3.73,0,7.39-7.96,3.29-7.96C1569.04,743.37,1565.38,751.33,1569.48,751.33L1569.48,751.33z"/>
				</g>
			</g>
			<g class="st2">
				<path d="M1565.46,751.79c-0.34,60.21,27.79,120.11,75.87,161.53c4.21,3.63,7.86,11.2,2.34,12.85c-2.53,0.75-5.12-0.78-7.24-2.23
					c-44.13-30.2-88.25-60.41-132.38-90.61c-3.63-2.48-7.53-5.35-8.36-9.42c-0.87-4.33,2.06-8.48,4.92-12.04
					c19.11-23.7,41.73-45.06,67.06-63.32"/>
				<g>
					<path d="M1562.01,753.53c-0.18,55.15,22.82,110.03,63.43,151.02c2.3,2.32,4.65,4.59,7.05,6.81c2.6,2.4,5.69,4.62,7.9,7.34
						c0.78,0.96,1.49,1.98,1.98,3.09c0.2,0.44,0.34,2.12,0.66,2.44c0.49-0.66,0.98-1.32,1.47-1.98c-0.75,0.19-1.47,0.13-2.19-0.15
						c-0.79-0.21-1.54-0.73-2.23-1.14c-2.19-1.32-4.24-2.86-6.34-4.29c-14.94-10.22-29.87-20.44-44.8-30.67
						c-14.94-10.22-29.87-20.44-44.8-30.67c-7.47-5.11-14.94-10.22-22.4-15.33c-3.4-2.32-6.79-4.65-10.18-6.97
						c-3.49-2.38-7.62-4.66-10.38-7.79c-2.91-3.3-2.28-6.36,0.14-9.71c2.5-3.46,5.43-6.73,8.25-9.98
						c5.69-6.59,11.65-12.98,17.87-19.14c12.69-12.59,26.52-24.2,41.22-34.82c1.6-1.15,3.08-3.74,2.38-5.62
						c-0.73-1.96-2.85-1.45-4.26-0.44c-14.14,10.22-27.42,21.38-39.79,33.36c-6.04,5.86-11.86,11.91-17.42,18.15
						c-5.38,6.04-11.73,12.35-15.36,19.45c-1.72,3.37-2.74,7.21-1.58,10.87c1.07,3.38,3.82,5.9,6.72,8.08
						c7.61,5.73,15.83,10.89,23.73,16.29c15.95,10.92,31.91,21.84,47.86,32.76c15.95,10.92,31.91,21.84,47.86,32.76
						c4.07,2.79,8.14,5.58,12.22,8.36c3.1,2.12,6.7,5.28,10.93,4.65c7.28-1.09,9.33-8.94,6.79-14.31
						c-2.79-5.9-9.11-9.96-13.84-14.53c-5.64-5.45-10.96-11.16-15.95-17.11c-9.77-11.65-18.26-24.19-25.35-37.35
						c-16.18-30.05-24.76-63.44-24.65-96.9c0.01-1.92-1.76-2.64-3.52-1.85C1563.38,749.11,1562.02,751.55,1562.01,753.53
						L1562.01,753.53z"/>
				</g>
			</g>
			<g class="st2">
				<path d="M1462.83,826.34c-8,19.63-28.47,32.22-45.39,46.41s-32,35.14-24.4,54.9c4.27,11.12,14.83,19.1,24.98,26.43
					c45.32,32.73,91.76,64.19,139.23,94.3c2.45,1.56,5.24,3.19,8.2,2.77c4.33-0.6,6.55-5.48,5.5-9.34c-1.05-3.86-4.3-6.86-7.39-9.67
					c-30.47-27.64-59.35-57.48-78.57-92.5c-19.22-35.01-28.12-75.94-17.25-113.79"/>
				<g>
					<path d="M1459.79,826.08c-6.91,16.5-23.25,27.58-37.38,38.82c-15.01,11.95-29.48,26.39-33.8,44.68
						c-2.02,8.55-1.05,17.32,3.22,25.18c4.44,8.17,12.13,14.47,19.77,20.16c18.31,13.63,37.21,26.66,56.08,39.63
						c19.15,13.17,38.49,26.12,58,38.84c9.8,6.39,19.59,12.85,29.57,19.01c3.75,2.32,8.06,3.85,12.33,1.65
						c3.9-2.01,6.37-6.25,6.91-10.19c1.28-9.19-8.8-15.68-15.04-21.48c-7.68-7.13-15.2-14.4-22.46-21.88
						c-14.33-14.79-27.66-30.45-38.87-47.34c-22.4-33.74-36.48-74.09-30.22-113.76c0.76-4.83,1.83-9.6,3.17-14.32
						c0.47-1.65-0.49-3.47-2.55-3.14c-2.27,0.37-3.66,2.91-4.17,4.69c-10.4,36.83-2.93,76.04,14.38,110.14
						c17.53,34.52,44.59,64.08,73.59,91.11c3.55,3.31,7.28,6.49,10.72,9.89c1.64,1.62,6.52,6.51,4.41,9.05
						c-2.09,2.52-9.65-3.34-11.38-4.43c-4.71-2.99-9.41-6.01-14.09-9.03c-18.75-12.09-37.34-24.39-55.76-36.9
						c-18.58-12.62-36.99-25.45-55.22-38.48c-14.56-10.41-35.22-22.13-36.49-40.81c-1.17-17.26,12.8-32.35,26.03-43.18
						c13.8-11.29,29.01-21.61,39.1-36.05c2.48-3.56,4.54-7.37,6.19-11.31c0.59-1.42,0.79-3.92-1.39-4.24
						C1462.34,822.05,1460.42,824.6,1459.79,826.08L1459.79,826.08z"/>
				</g>
			</g>
			<g class="st2">
				<path d="M1385.89,947.86c-148.51,132.8-294.61,267.83-438.21,405.01c-8.52,8.14-17.58,17.5-17.47,28.72
					c0.13,12.7,11.8,22.49,22.55,30.6c47.66,35.98,95.33,71.97,142.99,107.96c3.32,2.51,7.11,5.16,11.41,4.87
					c8.56-0.57,10.76-10.94,10.77-18.74c0.15-73.45,20.3-145.97,49.84-214.34c29.53-68.37,68.35-133.05,107.33-197.4
					c31.71-52.36,64.83-105.98,115.89-143.63"/>
				<g>
					<path d="M1384.96,944.83c-39.96,35.73-79.74,71.63-119.36,107.68c-39.46,35.92-78.75,72-117.86,108.24
						c-39.24,36.36-78.3,72.87-117.19,109.54c-19.3,18.2-38.57,36.45-57.79,54.73c-9.54,9.08-19.15,18.09-28.58,27.26
						c-7.63,7.42-15.4,16.13-17.06,26.52c-1.62,10.14,3.21,19.2,10.58,26.55c8.41,8.38,18.75,15.24,28.32,22.46
						c21.87,16.52,43.74,33.03,65.62,49.54c10.77,8.14,21.54,16.27,32.32,24.4c5.55,4.19,11.1,8.38,16.65,12.57
						c5.13,3.87,10.11,8.06,15.52,11.61c4.2,2.76,9.29,4.16,14.16,1.98c4.1-1.83,6.82-5.52,8.49-9.27
						c4.09-9.21,2.54-20.12,2.93-29.81c1.95-48.3,12.38-96.17,28.06-142.28c15.91-46.75,37.14-91.87,60.86-135.76
						c23.55-43.58,49.31-86.18,75.26-128.6c23.11-37.79,47.61-75.51,80.64-106.95c7.95-7.57,16.46-14.67,25.39-21.28
						c1.59-1.18,3.08-3.73,2.38-5.62c-0.72-1.95-2.86-1.47-4.26-0.44c-36.61,27.11-64.37,62.38-88.46,98.95
						c-12.34,18.73-23.84,37.9-35.41,57.03c-12.85,21.26-25.62,42.55-38,64.04c-24.52,42.58-47.58,85.96-66.47,130.87
						c-18.76,44.6-33.45,90.83-41.19,138.12c-3.82,23.37-5.89,46.96-6.04,70.59c-0.03,3.56-0.16,7.53-1.84,10.82
						c-1.84,3.63-6.26,3.09-9.61,1.33c-5.52-2.89-10.3-7.34-15.19-11.03c-5.39-4.07-10.77-8.14-16.16-12.2
						c-21.54-16.27-43.09-32.54-64.64-48.8c-10.61-8.01-21.22-16.02-31.83-24.03c-9.88-7.46-20.48-14.54-29.51-22.85
						c-7.21-6.64-14-15.42-11.52-25.24c2.48-9.82,12.25-17.51,19.58-24.51c19.04-18.17,38.12-36.31,57.24-54.41
						c37.98-35.94,76.13-71.74,114.45-107.37c38.45-35.76,77.08-71.36,115.87-106.81c38.8-35.45,77.76-70.75,116.89-105.89
						c9.52-8.55,19.05-17.1,28.6-25.63c1.49-1.33,3.13-3.62,2.38-5.62C1388.54,943.43,1386.28,943.65,1384.96,944.83L1384.96,944.83
						z"/>
				</g>
			</g>
			<g class="st2">
				<path d="M921.73,1389.16c-36.14,80.31-64.77,163.4-85.48,248.1c16.05,0.56,30.75-9.45,39.13-21.91
					c8.38-12.46,11.64-27.13,14.75-41.46c13.39-61.63,26.79-123.25,40.18-184.88"/>
				<g>
					<path d="M918.7,1388.91c-28.27,62.88-51.95,127.44-70.9,193.16c-5.36,18.58-10.32,37.24-14.91,55.97
						c-0.27,1.11,0.03,3.17,1.71,3.21c17.1,0.38,31.99-9.51,41.33-21.89c10.93-14.48,14.5-32.17,18.17-49.08
						c8.43-38.75,16.84-77.5,25.27-116.26c4.77-21.93,9.53-43.86,14.3-65.79c0.36-1.65-0.41-3.48-2.55-3.14
						c-2.18,0.35-3.79,2.92-4.17,4.69c-7.97,36.67-15.94,73.35-23.91,110.02c-4.03,18.52-8.06,37.05-12.08,55.57
						c-3.6,16.58-5.99,34.05-13.11,49.76c-6.74,14.87-21.04,28.55-39.96,28.14c0.57,1.07,1.14,2.14,1.71,3.21
						c16.12-65.79,36.98-130.59,62.49-193.88c7.19-17.86,14.76-35.58,22.67-53.18c0.64-1.42,0.75-3.92-1.39-4.24
						C921.21,1384.86,919.36,1387.43,918.7,1388.91L918.7,1388.91z"/>
				</g>
			</g>
		</g>
		<g id="Ebene_10">
			<g class="st2">
				<g>
					<path class="st3" d="M1617.9,806.24c13.2,10.96,29.6,17.43,43.63,27.3c1.03,0.73-0.83-0.67,0.13,0.09
						c0.27,0.22,0.56,0.44,0.82,0.66c0.61,0.5,1.21,1.02,1.79,1.56c1.16,1.07,2.24,2.22,3.17,3.46c0.41,0.55,0.79,1.11,1.12,1.69
						c0.13,0.23,0.86,1.78,0.52,0.9c0.56,1.4,0.78,2.9,0.83,4.38c0.27,7.36-4.16,13.93-8.48,19.84
						c-6.15,8.43-13.25,16.29-18.41,25.29c-2.69,4.7,8.15,6.02,11.14,6.24c4.06,0.31,8.31,0.33,12.29-0.51
						c2.16-0.46,6.2-1.07,7.33-3.03c4.62-8.07,10.8-15.24,16.47-22.71c4.97-6.53,10.25-13.89,11.38-21.95
						c2.11-15.08-16.19-23.82-28.1-30.39c-8.6-4.75-17.92-9.74-24.88-15.52c-4.85-4.03-13.44-4.2-19.63-3.55
						C1627.51,800.16,1613.56,802.64,1617.9,806.24L1617.9,806.24z"/>
				</g>
			</g>
			<g class="st2">
				<g>
					<path class="st3" d="M1594.4,953.66c-9.84,9.58-19.67,19.16-29.51,28.74c-1.53,1.49,0.35,3.17,1.61,3.91
						c2.54,1.5,6.64,2.12,9.54,2.33c5.79,0.44,15.2,0.77,19.63-3.55c9.84-9.58,19.67-19.16,29.51-28.74
						c1.53-1.49-0.35-3.17-1.61-3.91c-2.54-1.5-6.64-2.12-9.54-2.33C1608.24,949.67,1598.83,949.34,1594.4,953.66L1594.4,953.66z"/>
				</g>
			</g>
			<g class="st2">
				<g>
					<path class="st3" d="M1480.7,1054.16c-44.37,46.45-89.05,92.67-133.83,138.79c-42.56,43.84-85.21,87.62-127.66,131.55
						c-24.54,25.39-49,50.82-73.37,76.34c-3.93,4.11,9.19,6.1,11.14,6.24c4.06,0.31,8.31,0.33,12.29-0.51
						c2.56-0.54,5.53-1.15,7.33-3.03c42.91-44.92,86.13-89.59,129.44-134.19c42.98-44.26,86.03-88.48,128.89-132.83
						c25.59-26.49,51.12-53.03,76.54-79.65c3.93-4.11-9.19-6.1-11.14-6.24c-4.06-0.31-8.31-0.33-12.29,0.51
						C1485.47,1051.67,1482.5,1052.28,1480.7,1054.16L1480.7,1054.16z"/>
				</g>
			</g>
			<g class="st2">
				<g>
					<path class="st3" d="M905.2,1589.18c36.17-18.46,73.03-34.89,110.59-49.17c10.93-4.15,21.94-8.15,33.01-11.98
						c1.44-0.5,4.67-1.66,4.67-3.59c0-1.89-3.24-3.15-4.67-3.59c-6.71-2.05-15.86-2.33-22.57,0c-39.88,13.81-78.92,29.7-116.8,47.58
						c-10.69,5.05-21.29,10.27-31.8,15.63c-6.15,3.14,2.67,6.41,5.73,6.95C890.16,1592.18,898.93,1592.38,905.2,1589.18
						L905.2,1589.18z"/>
				</g>
			</g>
		</g>
	</g>
</g>
<g id="Ebene_7_1_">
	<circle class="st10" cx="739.98" cy="933.92" r="15.75"/>
	<circle class="st10" cx="1142.91" cy="927.72" r="15.75"/>
</g>
</svg>
