<?xml version="1.0" encoding="utf-8"?>
<!-- Generator: Adobe Adobe Illustrator 24.2.0, SVG Export Plug-In . SVG Version: 6.00 Build 0)  -->
<svg version="1.1" xmlns="http://www.w3.org/2000/svg" xmlns:xlink="http://www.w3.org/1999/xlink" x="0px" y="0px"
	 viewBox="0 0 2000 2000" style="enable-background:new 0 0 2000 2000;" xml:space="preserve">
<style type="text/css">
	.st0{fill:#D2E0EC;}
	.st1{fill:#D2E1EC;}
	.st2{opacity:0.149;}
	.st3{fill:#FFFFFF;}
	.st4{fill:#D15238;}
	.st5{fill:#D15239;}
</style>
<g id="Ebene_3">
	<g>
		<path class="st0" d="M675.12,915.73c-239.27,0-487.47-32.22-514.71,374.85c-7.8,116.48-14.06,390.51,42.84,440.41
			c25.02,21.93,61.38,23.43,94.65,23.8c244.17,2.72,488.33,5.44,732.5,8.16c48.67,0.54,133.77,5.81,169.93-101.04
			c24.11-71.23,25-292.62,12.47-403.31c-37-326.77-268.02-356.25-540.45-342.87"/>
		<g>
			<path d="M677.7,908.87c-45.02-0.01-90.04-1.17-135.05-0.27c-42.83,0.85-85.93,3.45-128.02,11.85
				c-39.42,7.86-78.21,21.24-112.11,43.19c-36.34,23.53-65.7,55.96-87.2,93.44c-28.29,49.33-43.47,105.36-52.18,161.21
				c-8.53,54.69-10.79,110.35-12.28,165.63c-1.54,57.15-1.39,114.45,2.24,171.52c1.71,26.77,4.22,53.51,8.33,80.02
				c3.35,21.62,7.64,43.39,15.15,63.99c5.59,15.33,12.95,30.37,26.04,40.62c28.73,22.49,68.63,21.31,103.18,21.69
				c89.9,1,179.8,2,269.7,3.01s179.8,2,269.7,3.01c44.78,0.5,89.55,1,134.33,1.5c27.75,0.31,55.73,1.66,83.47,0.4
				c21.81-0.99,43.39-4.58,63.49-13.37c24.04-10.51,43.57-28.55,57.86-50.37c28.01-42.76,33.09-95.11,37.07-144.77
				c4.93-61.52,5.61-123.46,4.11-185.13c-1.41-57.9-4.22-116.39-15.42-173.34c-10.54-53.61-28.98-106.57-60.22-151.78
				c-26.18-37.89-61.21-68.92-101.68-90.84c-41.27-22.35-87.07-35.45-133.18-43.18c-52.16-8.75-105.28-10.91-158.09-10.52
				c-27.36,0.21-54.7,1.15-82.02,2.49c-3.53,0.17-6.17,3.27-7.33,6.42c-0.7,1.88-1.39,7.48,2.17,7.3
				c54.45-2.66,109.1-3.88,163.55-0.48c48.52,3.03,97.34,9.65,143.82,24.31c42.62,13.43,83.16,34.04,116.98,63.49
				c35.92,31.28,62.68,71.95,80.55,115.89c21.66,53.25,31.22,110.37,35.71,167.43c4.64,58.97,5.7,118.31,4.66,177.44
				c-0.96,54.09-2.71,109.18-12.57,162.5c-8.62,46.6-32.22,93.3-79.19,112.03c-19.38,7.72-40.34,10.42-61.07,10.96
				c-29.29,0.76-58.71-0.4-88-0.73c-88.15-0.98-176.3-1.96-264.45-2.95c-88.15-0.98-176.3-1.96-264.45-2.95
				c-44.08-0.49-88.15-0.98-132.23-1.47c-34.42-0.38-74.27,1.46-102.94-20.98c-12.12-9.49-18.98-24.64-24.01-39.05
				c-7.13-20.44-11.29-41.89-14.54-63.25c-8.26-54.39-10.22-109.82-10.7-164.76c-0.45-51.28,0.85-102.6,3.77-153.8
				c3.42-60.01,10.47-120.46,29.28-177.81c14.31-43.64,35.66-85.57,67.86-118.79c26.98-27.83,60.7-48.16,97.08-61.19
				c38.2-13.68,78.69-20.17,119.02-23.36c43.3-3.43,86.8-3.29,130.2-2.93c21.48,0.18,42.96,0.43,64.44,0.44
				C678.39,922.59,684.12,908.87,677.7,908.87L677.7,908.87z"/>
		</g>
	</g>
	<g>
		<g>
			<path d="M669.72,857.8c0,20.31,0,40.62,0,60.93c0,3.3,2.74,4.55,5.51,3.18c3.14-1.55,5.3-5.77,5.3-9.19c0-20.31,0-40.62,0-60.93
				c0-3.3-2.74-4.55-5.51-3.18C671.88,850.17,669.72,854.39,669.72,857.8L669.72,857.8z"/>
		</g>
	</g>
	<g>
		<path d="M688.09,743.91c30.3-1.29,52.45,41.55,45.29,68.46c-7.17,26.91-37.31,45.41-64.55,39.6
			c-27.24-5.81-47.22-34.99-42.79-62.48c4.43-27.5,32.57-48.92,60.25-45.88"/>
		<g>
			<path d="M685.51,750.77c18.79-0.46,32.85,15.56,39.3,31.81c6.95,17.52,6.13,36.25-8.41,49.66
				c-15.62,14.39-39.19,18.42-57.97,7.84c-18.1-10.2-30.91-32.3-26.9-53.29c4.47-23.43,29.34-38.49,52.17-36.31
				c5.79,0.55,11.78-13.09,5.16-13.72c-26.6-2.53-51.95,14.57-63.08,38.24c-11.42,24.27-4.72,53.05,15.11,70.81
				c19.62,17.57,47.92,17.97,69.57,3.73c21.3-14.01,33.27-38.25,28.39-63.56c-4.41-22.84-22.3-49.54-48.18-48.91
				C684.83,737.19,679.17,750.92,685.51,750.77L685.51,750.77z"/>
		</g>
	</g>
	<g>
		<path d="M310.76,1754.93c-50.72-34.73-88.37-75.11-94.21-190.86c-4.71-93.46-1.41-200.81,12.47-293.35
			c8.8-58.61,29.61-106.98,69.97-150.38c47.5-51.08,123.14-62.48,192.74-67.13c139.4-9.3,279.39-3.57,418.71,6.83
			c53.23,3.97,133.6,35.04,169.98,74.11c59.18,63.57,71.91,340.88,47.05,500.5c-7.19,46.17-35.35,91.68-71.71,121.02"/>
		<g>
			<path d="M314.51,1748.44c-18.46-12.67-35.93-26.77-49.81-44.49c-16.25-20.77-26.54-45.11-32.9-70.58
				c-9.32-37.34-10.49-76.1-11.4-114.4c-1.01-42.65-0.41-85.35,1.89-127.95c2.25-41.76,5.93-83.6,12.5-124.92
				c5.71-35.92,16.93-70.74,36.12-101.79c19.07-30.86,44.13-57.24,76.82-73.54c32.11-16.02,68.08-23.15,103.47-27.31
				c42.8-5.03,86.16-6.44,129.2-7.44c46.33-1.08,92.68-0.74,138.99,0.61c46.35,1.36,92.66,3.74,138.93,6.78
				c20.55,1.35,41.39,1.98,61.79,4.8c16.39,2.27,32.59,6.23,48.34,11.28c32.16,10.31,64.15,24.79,90.97,45.58
				c16.61,12.88,27.93,28.08,36.08,47.34c9.19,21.72,15.07,44.82,19.81,67.86c5.89,28.63,9.79,57.65,12.63,86.73
				c6.35,65.1,7.65,130.81,4.8,196.15c-1.31,30.14-3.57,60.26-7.34,90.2c-2,15.88-4.04,31.85-9,47.13
				c-5.79,17.82-14.33,34.76-25.08,50.12c-10.45,14.94-22.89,28.35-37.03,39.85c-2.49,2.03-4.83,6.43-3.73,9.69
				c1.13,3.36,4.48,2.53,6.68,0.75c30.28-24.65,54.07-58.11,67.11-94.95c10.73-30.31,13.02-63.63,15.77-95.47
				c5.75-66.5,6.26-133.59,2.42-200.22c-3.41-59.16-9.38-119.68-26.11-176.75c-5.72-19.51-12.83-39.58-24.5-56.42
				c-16.08-23.21-43.18-39.06-67.98-51.26c-31.02-15.26-64.98-26.77-99.31-31.42c-21.19-2.87-42.81-3.53-64.14-4.91
				c-23.8-1.55-47.61-2.92-71.43-4.07c-95.53-4.6-191.34-5.57-286.83,0.4c-72.22,4.52-152.43,14.11-204.96,69.49
				c-26.05,27.46-46.2,60.44-58.76,96.14c-13.37,38.03-17.94,78.47-21.91,118.37c-4.39,44.05-6.72,88.3-7.33,132.56
				c-0.59,42.62-0.56,85.77,3.58,128.23c3.16,32.44,9.55,64.94,23.81,94.46c10.49,21.72,25.56,40.39,43.75,56.14
				c8.42,7.29,17.4,13.9,26.58,20.2C311.95,1764.82,319.68,1751.98,314.51,1748.44L314.51,1748.44z"/>
		</g>
	</g>
	<g>
		<path class="st0" d="M426.34,1220.38c-1.24,40.22-1.39,80.47-0.47,120.7c0.24,10.67,0.78,22.01,6.86,30.77
			c9.73,14.02,29.31,16.03,46.36,16.73c13.49,0.55,28.16,0.77,39.01-7.27c15.58-11.54,16.26-34.2,15.46-53.57
			c-1.24-30.04-2.48-60.07-3.73-90.11c-0.62-14.93-1.72-31.14-11.58-42.38c-13.2-15.04-36.19-15.06-56.16-13.89
			c-9.98,0.58-20.69,1.44-28.4,7.8c-7.71,6.36-7.71,21.89-7.71,35.15"/>
		<g>
			<path d="M420.93,1223.38c-0.73,24.07-1.09,48.14-1.06,72.22c0.02,12.2,0.13,24.41,0.35,36.61c0.18,10.3-0.13,20.88,1.98,31.01
				c3.83,18.39,18.39,27.53,35.93,30.53c8.88,1.52,18.05,1.89,27.04,1.92c9.48,0.03,19.1-0.86,27.76-5.02
				c16.35-7.86,23.81-25.76,25.55-42.88c2.09-20.52-0.3-41.66-1.15-62.2c-0.5-12.08-1-24.16-1.5-36.24
				c-0.44-10.63-0.52-21.34-1.97-31.9c-2.49-18.07-11.12-33.62-29.18-39.66c-9.38-3.14-19.28-3.83-29.11-3.69
				c-10.17,0.15-21.31,0.15-31.07,3.3c-9.66,3.12-17.14,9.45-20.61,19.12c-3.51,9.78-3.34,20.57-3.34,30.82
				c0,3.31,2.74,4.55,5.51,3.18c3.14-1.56,5.3-5.77,5.3-9.19c0-7.46-0.4-15.45,1.63-22.71c1.96-7.02,10.29-8.5,16.66-9.47
				c14.79-2.25,32.21-2.85,46.68,1.38c16.42,4.81,24.69,18.13,26.92,34.48c2.63,19.29,2.13,39.31,2.93,58.74
				c0.79,19.16,2.31,38.45,2.15,57.63c-0.1,13.01-1.38,29.39-14.26,36.24c-7.44,3.96-16.29,4.42-24.54,4.35
				c-7.8-0.06-15.7-0.4-23.43-1.48c-15.59-2.17-29.61-8.85-33.33-25.41c-2.24-9.95-1.62-20.69-1.79-30.83
				c-0.2-11.87-0.3-23.75-0.32-35.62c-0.02-23.75,0.34-47.5,1.06-71.23c0.1-3.33-2.81-4.52-5.51-3.18
				C423.02,1215.79,421.04,1219.94,420.93,1223.38L420.93,1223.38z"/>
		</g>
	</g>
	<g>
		<path class="st0" d="M821.74,1258.09c0,44.19-16.77,103.93,11.23,119.14c15.25,8.29,96.23,13.89,97.36-9.64
			c7.34-152.91,24.44-186.41-60.04-186.41c-15.44,0-30.83-2.45-39.78,10.13c-8.94,12.58-8.18,44.86-8.18,67.8"/>
		<g>
			<path d="M816.33,1261.09c-0.1,27.26-5.86,54.31-4.89,81.6c0.67,18.7,5.56,38.32,25.54,43.83c17.55,4.84,37.11,5.58,55.18,4.33
				c15.24-1.05,36.89-3.66,42.58-20.68c2.08-6.21,1.38-13.57,1.73-20.04c0.41-7.66,0.86-15.32,1.34-22.98
				c0.82-13.31,1.73-26.62,2.56-39.92c1.21-19.29,2.68-38.79,1.55-58.12c-0.71-12.13-2.37-25.31-9.37-35.61
				c-6.25-9.2-16.29-13.9-26.84-16.34c-7.03-1.62-14.27-2.28-21.47-2.6c-11.67-0.53-24.13-1.48-35.68,0.33
				c-30.5,4.8-31.19,42.09-31.57,66.06c-0.11,7.05-0.06,14.11-0.06,21.17c0,3.3,2.74,4.55,5.51,3.18c3.14-1.55,5.31-5.78,5.3-9.19
				c-0.01-13.04-0.27-26.13,0.84-39.14c0.78-9.11,1.21-22.71,10.98-26.9c5.65-2.42,12.16-2.29,18.19-2.2
				c5.5,0.08,11,0.11,16.49,0.24c7.03,0.16,14.09,0.59,21.03,1.74c9.43,1.55,19.52,4.96,25.54,11.83
				c6.47,7.38,8.73,17.17,9.75,26.73c1.72,16.17,0.8,32.63-0.06,48.83c-1.29,24.13-3.11,48.23-4.48,72.35
				c-0.2,3.57-0.4,7.15-0.58,10.72c-0.09,1.7-0.18,3.4-0.26,5.09c-0.06,1.15-0.12,2.3-0.17,3.45c-0.02,0.32,0.09,2.62-0.05,1.16
				c0.05,0.52,0.17-0.51,0.44-0.63c-0.93,0.39-0.21,0.29-0.27,0.34c-0.66,0.64-1.16,0.95-1.09,0.9c-5.76,3.83-13.38,4.96-20.09,5.84
				c-17.34,2.26-35.67,1.29-52.87-1.72c-5.78-1.01-11.9-2.07-16.79-5.52c-7.21-5.07-10.01-14.26-11.23-22.58
				c-3.49-23.89,1.58-48.91,3.3-72.76c0.45-6.26,0.76-12.52,0.78-18.79c0.01-3.31-2.75-4.55-5.51-3.18
				C818.48,1253.47,816.34,1257.68,816.33,1261.09L816.33,1261.09z"/>
		</g>
	</g>
	<g>
		<path class="st1" d="M867.84,1480.47c-108.83,20.9-223.3,44.16-332.13,65.06c-7.89,1.52-17.07,3.02-22.07,1.3
			c-4.26-1.46-3.65-4.7-2.46-7.65c14.96-36.92,94.15-77.59,178.28-91.57c84.13-13.98,163.67,0.31,179.08,32.18"/>
		<g>
			<path d="M868.65,1476.19c-56.66,10.89-113.27,22.09-169.87,33.28c-28.47,5.63-56.95,11.26-85.43,16.85
				c-27.7,5.43-55.42,11.76-83.31,16.08c-2.45,0.38-14.98,2.82-16.26-1.23c-0.7-2.22,3.44-7.63,4.53-9.26
				c4.35-6.49,10.01-12.08,15.92-17.14c16.34-13.97,35.64-24.44,55.16-33.24c48.87-22.03,103.12-34.09,156.7-34.89
				c25.64-0.38,51.9,1.56,76.62,8.74c15.89,4.61,35.01,12.27,42.89,28c1.76,3.52,7.57-3.86,5.91-7.19
				c-7.1-14.19-23.2-22.01-37.47-26.97c-22.14-7.69-45.88-10.5-69.21-11.18c-56.24-1.64-113.12,9.66-165.04,31.11
				c-21.72,8.98-42.98,19.9-61.63,34.31c-7.26,5.61-14.16,11.86-19.96,18.99c-4.62,5.69-10.1,13.1-11.17,20.55
				c-1.71,11.85,15.38,8.94,22.23,7.83c14.38-2.33,28.67-5.45,42.97-8.23c30.25-5.88,60.48-11.83,90.72-17.8
				c68.02-13.43,136.02-26.97,204.11-40.05C870.52,1484.08,873.45,1475.27,868.65,1476.19L868.65,1476.19z"/>
		</g>
	</g>
</g>
<g id="Ebene_4">
	<g class="st2">
		<path d="M431.47,1191.5c-5.64,66.19,32.6,145.51,86.5,184.34c-26.66-8.1-60.11,11.16-81.28-6.95
			c-11.35-9.71-13.43-26.24-14.18-41.16c-2.14-42.62,0.13-85.47,6.77-127.62"/>
		<g>
			<path d="M426.07,1194.5c-4.49,55.78,18.7,114.07,54.43,156.27c9.97,11.78,21.24,22.49,33.73,31.57c2.11-4.45,4.22-8.9,6.33-13.36
				c-13.9-3.96-28.45-1.34-42.52,0.24c-13.4,1.5-29.23,2.32-39.25-8.47c-10.03-10.79-10.5-26.97-11.09-40.86
				c-0.81-19.06-0.73-38.15,0.22-57.2c1.07-21.41,3.33-42.73,6.63-63.91c0.44-2.85-0.56-6.01-3.99-5.41
				c-3.32,0.58-6.05,5.04-6.53,8.08c-6.21,39.84-8.75,80.26-7.3,120.57c0.55,15.27,0.79,32.3,9.33,45.61
				c8.21,12.79,22.72,16.69,37.13,16.11c17.37-0.7,35.03-5.93,52.21-1.03c5.23,1.49,10.77-10.13,6.33-13.36
				c-43.65-31.74-73.15-84.15-82.62-136.83c-2.61-14.51-3.41-29.32-2.23-44.01c0.27-3.37-2.92-4.47-5.51-3.18
				C428.03,1186.97,426.35,1191.02,426.07,1194.5L426.07,1194.5z"/>
		</g>
	</g>
	<g class="st2">
		<path d="M837.12,1199.13c3.91,67.88,34.31,133.68,82.76,179.12c-15.96,3.47-32.23,6.96-48.43,5.11
			c-16.2-1.85-33.61,2.58-41.71-12.19c-7.8-14.23-3.38-51.54-2.05-67.87c3.23-39.69,4.15-72.11,7.39-111.8"/>
		<g>
			<path d="M831.59,1202.2c4.14,68.25,33.64,134.74,83.53,181.84c2.02-4.23,4.04-8.45,6.05-12.68c-11.02,2.39-22.17,4.91-33.48,5.4
				c-9.18,0.4-18.37-0.85-27.56-1.05c-6.78-0.15-14.35-0.15-20.19-4.08c-5.38-3.62-7.24-9.79-8.22-15.87
				c-2.26-14.09-0.81-28.95,0.38-43.08c1.51-17.95,2.87-35.9,3.94-53.89c1.4-23.46,2.64-46.93,4.54-70.36
				c0.28-3.44-2.98-4.56-5.63-3.25c-3.42,1.69-5.13,5.83-5.42,9.39c-3.33,41.18-4.93,82.48-8.42,123.65
				c-1.3,15.25-2.53,30.92-0.11,46.12c1.04,6.55,3.12,13.11,7.98,17.85c5.33,5.2,12.6,6.8,19.81,7.3c4.57,0.32,9.15,0.24,13.72,0.42
				c5.68,0.23,11.29,1.03,16.99,0.95c13.22-0.19,26.21-2.93,39.07-5.73c3.66-0.79,9.72-9.22,6.05-12.68
				c-48.46-45.74-77.95-109.96-81.98-176.4c-0.2-3.32-2.66-4.72-5.63-3.25C833.96,1194.32,831.38,1198.78,831.59,1202.2
				L831.59,1202.2z"/>
		</g>
	</g>
	<g class="st2">
		<path d="M302.24,977.13c-131.56,238.97-143.52,536.14-8.81,773.34c-28.6,16.98-67.56,2.65-88.51-23.17
			c-47.46-58.47-106.29-507.75,74.11-743.97"/>
		<g>
			<path d="M298.34,974.88c-51.39,93.57-85.48,196.63-99.08,302.56c-13.42,104.47-7.14,211.55,20.98,313.18
				c15.97,57.72,39.03,113.4,68.54,165.51c1.52-3.95,3.03-7.9,4.55-11.85c-28.59,16.45-68.01,0.29-85.72-25.29
				c-7.1-10.25-10.82-21.28-14.77-33.51c-13.35-41.37-19.93-85.15-24.55-128.26c-6.38-59.51-7.98-119.6-5.1-179.38
				c3.17-65.81,11.95-131.59,28.59-195.41c16.26-62.37,40.57-123.34,76.8-176.9c4.22-6.24,8.65-12.33,13.21-18.32
				c1.77-2.33,4.02-6.78,1.89-9.56c-2.08-2.72-5.89-0.23-7.41,1.77c-40.54,53.24-68.53,115.07-87.55,178.98
				c-19.5,65.49-30.2,133.31-34.93,201.4c-4.34,62.41-3.64,125.26,2.11,187.57c4.31,46.67,10.78,93.94,24.06,139.01
				c4.01,13.62,8.62,27.53,15.79,39.87c13.98,24.05,44.83,40.43,72.51,38.21c8.98-0.72,17.48-3.32,25.29-7.82
				c3.65-2.1,6.84-7.8,4.55-11.85c-51.47-90.88-82.32-192.73-91.67-296.68c-9.27-103.06,1.91-207.87,31.79-306.91
				c16.94-56.14,39.71-110.44,67.94-161.84c1.25-2.28,2.83-7.03-0.15-8.75C303.07,968.95,299.55,972.67,298.34,974.88L298.34,974.88
				z"/>
		</g>
	</g>
	<g class="st2">
		<g>
			<path d="M802.61,1210.25c5.84,0,11.57-13.72,5.16-13.72C801.93,1196.53,796.2,1210.25,802.61,1210.25L802.61,1210.25z"/>
		</g>
	</g>
</g>
<g id="Ebene_5">
	<g class="st2">
		<g>
			<path class="st3" d="M862.93,989.26c8.93,0.95,17.85,1.92,26.76,2.99c4.37,0.52,8.73,1.07,13.1,1.65
				c2.06,0.27,4.11,0.55,6.17,0.83c1.03,0.14,2.06,0.29,3.08,0.43c1.48,0.21,6.35,0.23,0.2,0.02c8.56,0.29,17.69,2.82,26.1,4.44
				c8.87,1.71,17.69,3.64,26.45,5.85c0.99,0.25,1.99,0.51,2.98,0.77c0.66,0.17,3.87,1.06,1.18,0.31c-2.68-0.75,0.51,0.15,1.17,0.34
				c1.23,0.35,2.45,0.7,3.68,1.06c4.39,1.29,8.75,2.66,13.08,4.13c8.11,2.75,16.05,5.89,23.9,9.29c-2.72-1.18-0.33-0.15,0.18,0.09
				c0.9,0.43,1.81,0.85,2.7,1.28c1.79,0.86,3.58,1.75,5.35,2.65c3.98,2.03,7.89,4.18,11.74,6.45c7.47,4.41,14.67,9.28,21.51,14.63
				c60.11,47.05,75.71,128.59,80.67,201.3c3.43,50.21,3.36,100.84,13.29,150.37c1.7,8.47,18.55,8.85,25,8.75
				c5.85-0.09,12.19-0.38,17.68-2.56c2.2-0.87,7.98-2.92,7.32-6.19c-17.07-85.08-4.47-174.31-31.69-257.63
				c-11.9-36.42-30.85-70.4-60.22-95.57c-28.31-24.26-62.43-40.04-98.11-50.22c-42.43-12.1-86.21-17.71-129.98-22.35
				c-6.2-0.66-13.15-0.42-19.26,0.88c-3.14,0.67-9.4,2.14-11.49,5.23C840.24,986.26,859.78,988.93,862.93,989.26L862.93,989.26z"/>
		</g>
	</g>
	<g class="st2">
		<g>
			<path class="st3" d="M655.48,774.68c13.52,8.53,21.72,24.98,21.26,41.78c-0.09,3.28,5.17,5.4,7.32,6.19
				c5.34,1.97,12.06,2.65,17.68,2.56c5.85-0.09,12.19-0.38,17.68-2.56c2.69-1.07,7.23-2.65,7.32-6.19
				c0.56-20.71-10.78-39.7-28.09-50.61c-9.15-5.77-24.04-5.5-34.2-3.14C659.25,763.92,646.05,768.74,655.48,774.68L655.48,774.68z"
				/>
		</g>
	</g>
	<g class="st2">
		<g>
			<path class="st3" d="M865.34,1104.24c9.85,1.07,19.71,2.15,29.54,3.43c2.46,0.32,4.91,0.66,7.37,1c1.04,0.14,4.43,0.5-0.46-0.07
				c1.22,0.14,2.46,0.38,3.67,0.57c4.88,0.78,9.76,1.64,14.61,2.6c4.84,0.96,9.67,2.02,14.46,3.2c1.2,0.3,2.39,0.61,3.59,0.91
				c-0.35-0.09-2.83-0.81-0.6-0.16c2.67,0.78,5.33,1.54,7.98,2.38c4.35,1.38,8.66,2.89,12.91,4.54c1.71,0.67,3.41,1.36,5.1,2.08
				c0.37,0.16,3.37,1.45,1.65,0.69c-1.71-0.75,2.01,0.94,2.33,1.1c29.85,14.36,55.26,37.35,66.15,69.56
				c11.57,34.25,9.02,71.39,6.88,106.88c-2.55,42.34-5.11,84.68-7.66,127.02c-2.87,47.63-5.74,95.26-8.62,142.9
				c-0.2,3.24,5.29,5.44,7.32,6.19c5.34,1.97,12.06,2.65,17.68,2.56c5.85-0.09,12.19-0.38,17.68-2.56c2.76-1.1,7.11-2.62,7.32-6.19
				c5.27-87.33,10.53-174.65,15.8-261.98c2.23-37.01,5.77-75.7-5.39-111.7c-5.35-17.26-13.83-33.23-26.06-46.6
				c-11.96-13.08-26.64-23.85-42.3-32.08c-42.43-22.31-90.7-28.02-137.67-33.14c-6.19-0.67-13.16-0.42-19.26,0.88
				c-3.14,0.67-9.4,2.14-11.49,5.23C842.64,1101.25,862.2,1103.9,865.34,1104.24L865.34,1104.24z"/>
		</g>
	</g>
	<g class="st2">
		<g>
			<path class="st3" d="M867.28,1298.9c19.91-22.13,39.83-44.25,59.74-66.38c2.33-2.59-0.49-5.42-2.52-6.74
				c-3.98-2.59-10.4-3.65-14.94-4.02c-6.36-0.53-13.02-0.57-19.26,0.88c-4.05,0.94-8.59,2.01-11.49,5.23
				c-19.91,22.13-39.83,44.25-59.74,66.38c-2.33,2.59,0.49,5.42,2.52,6.74c3.98,2.59,10.4,3.65,14.94,4.02
				c6.36,0.53,13.02,0.57,19.26-0.88C859.84,1303.19,864.38,1302.12,867.28,1298.9L867.28,1298.9z"/>
		</g>
	</g>
	<g class="st2">
		<g>
			<path class="st3" d="M893.83,1316.6c8.85-11.06,17.7-22.13,26.55-33.19c5.84-7.31-14.13-10.49-17.46-10.76
				c-6.36-0.53-13.02-0.57-19.26,0.88c-3.91,0.91-8.85,1.92-11.49,5.23c-8.85,11.06-17.7,22.13-26.55,33.19
				c-5.84,7.31,14.13,10.49,17.46,10.76c6.36,0.53,13.02,0.57,19.26-0.88C886.25,1320.92,891.19,1319.9,893.83,1316.6L893.83,1316.6
				z"/>
		</g>
	</g>
	<g class="st2">
		<g>
			<path class="st3" d="M645.69,1535.47c34.66-19.17,69.33-38.35,103.99-57.52c9.7-5.36-4.24-11.06-8.97-11.97
				c-10.71-2.05-24.33-2.33-34.2,3.14c-34.66,19.17-69.33,38.35-103.99,57.52c-9.7,5.36,4.24,11.06,8.97,11.97
				C622.2,1540.67,635.82,1540.94,645.69,1535.47L645.69,1535.47z"/>
		</g>
	</g>
	<g class="st2">
		<g>
			<path class="st3" d="M482.3,1292.26c12.54-15.49,25.08-30.98,37.61-46.46c5.89-7.28-14.16-10.49-17.46-10.76
				c-6.36-0.53-13.02-0.57-19.26,0.88c-3.92,0.91-8.82,1.93-11.49,5.23c-12.54,15.49-25.08,30.98-37.61,46.46
				c-5.89,7.28,14.16,10.49,17.46,10.76c6.36,0.53,13.02,0.57,19.26-0.88C474.73,1296.58,479.63,1295.56,482.3,1292.26
				L482.3,1292.26z"/>
		</g>
	</g>
	<g class="st2">
		<g>
			<path class="st3" d="M493.36,1334.3c12.54-14.01,25.08-28.03,37.61-42.04c2.32-2.6-0.48-5.42-2.52-6.74
				c-3.98-2.59-10.4-3.65-14.94-4.02c-6.36-0.53-13.02-0.57-19.26,0.88c-4.05,0.94-8.6,2-11.49,5.23
				c-12.54,14.01-25.08,28.03-37.61,42.04c-2.32,2.6,0.48,5.42,2.52,6.74c3.98,2.59,10.4,3.65,14.94,4.02
				c6.36,0.53,13.02,0.57,19.26-0.88C485.92,1338.59,490.47,1337.53,493.36,1334.3L493.36,1334.3z"/>
		</g>
	</g>
	<g class="st2">
		<g>
			<path class="st3" d="M682.51,1503.65c27.24-19.24,54.48-38.48,81.72-57.72c8.67-6.12-3.28-10.88-8.97-11.97
				c-6.29-1.21-12.9-1.62-19.26-0.88c-4.86,0.56-10.85,1.13-14.94,4.02c-27.24,19.24-54.48,38.48-81.72,57.72
				c-8.67,6.12,3.28,10.88,8.97,11.97c6.29,1.21,12.9,1.62,19.26,0.88C672.43,1507.11,678.41,1506.55,682.51,1503.65L682.51,1503.65
				z"/>
		</g>
	</g>
</g>
<g id="Ebene_6">
	<g>
		<g id="Ebene_2_Kopie">
			<g class="st2">
				<path d="M1076.89,1118.03c20.03,15.61,28.15,42.11,19.22,62.67c-8.93,20.56-34.25,33.62-59.86,30.87
					c-25.61-2.75-49.57-21.09-56.65-43.37c-7.08-22.28,3.26-46.81,24.44-57.99c21.18-11.19,51.61-8.18,71.93,7.11"/>
				<g>
					<path d="M1073.96,1120.4c18.76,14.81,27.1,39,19.63,58.85c-7.06,18.76-29.08,30.77-51.78,29.74
						c-23.93-1.08-47.13-16.52-56.53-36.52c-9.46-20.12-3.44-43.65,14.18-56.61c19.82-14.57,52.62-11.7,73.57,3.84
						c2.77,2.06,8.45-2.81,5.85-4.74c-21.18-15.72-51.33-18.67-73.78-7.99c-22.94,10.92-35.34,35.82-29.77,59.54
						c5.42,23.13,28.71,42.56,54.55,47.28c26.37,4.82,52.93-6.98,65.62-26.2c14.55-22.01,7.49-53.63-15.68-71.93
						C1077.13,1113.54,1071.4,1118.37,1073.96,1120.4L1073.96,1120.4z"/>
				</g>
			</g>
			<g class="st2">
				<path d="M1106.76,694.36c8.07-19.2,19.82-37.54,37.94-49.86c18.12-12.32,43.43-17.82,66.4-10.55
					c33.29,10.55,52.63,45.69,48.93,75.75c-3.71,30.06-25.64,54.89-51.57,73.12c-25.93,18.23-56.21,31.24-83.76,47.59
					c-44.9,26.64-83.01,63.02-103.23,107.9c-13.28,29.49-18.29,64.28-2.9,95.1c15.39,30.82,55.72,54.56,90.52,46.14
					c22.08-5.34,37.8-21.92,47.42-40.1c9.62-18.18,14.29-38.36,21.81-57.43c15.51-39.33,43.5-73.94,80.14-99.13
					c45.38-31.19,104.22-48.76,138.74-89.45c36.55-43.08,37.7-106.89,9.43-159.11c-28.27-52.22-82.82-92.66-143.11-114.46
					c-66.25-23.95-141.28-26.38-203.09-2.53c-61.82,23.85-108.64,74.79-118.41,135.02c-3.85,23.74-1.73,49.7,12.9,71.31
					c19.28,28.46,60.26,44.7,94.73,37.54c34.47-7.16,41.51-35.79,56.82-66.23"/>
				<g>
					<path d="M1110.07,693.87c7.23-17.06,17.4-33.49,33.01-45.27c13.99-10.56,33.03-16.62,52.39-14.64
						c38.19,3.9,62.2,39.47,61.58,70.72c-0.77,39.04-34.54,67.92-67.74,87.58c-17.97,10.64-37.03,19.84-55.33,30.04
						c-17.44,9.72-34.01,20.57-49.16,32.86c-29.63,24.05-54.09,53.5-68.33,87.45c-12.78,30.47-17.42,68.81,3.09,100.12
						c17.22,26.26,52.76,46.75,86.08,40.25c18.25-3.56,32.96-14.34,43.41-27.37c12.32-15.36,18.7-33.74,24.76-51.93
						c6.24-18.73,13.29-36.87,23.75-53.86c9.94-16.14,22.21-31.11,36.46-44.33c13.87-12.86,29.55-23.83,46.41-33.54
						c15.95-9.18,32.6-17.41,48.89-26.13c31.95-17.09,62.94-36.86,81.24-66.42c17.72-28.62,22.83-63.42,16.8-97.04
						c-6.22-34.73-24.34-67.48-50.73-95.03c-26.65-27.81-60.86-49.98-97.74-65.18c-37.4-15.42-78.07-23.84-118.03-24.41
						c-39.82-0.57-79.01,6.66-113.28,22.34c-33.82,15.47-62.28,39.04-82.14,67.67c-19.39,27.95-31.52,62.59-28.01,97.08
						c1.72,16.89,7.68,34.01,19.84,48.1c11.21,12.99,27.16,22.84,44.24,28.16c17.12,5.34,35.63,6.32,52.2,1.77
						c15.6-4.28,26.9-14.31,34.92-26.44c8.54-12.93,13.93-27.48,20.79-41.2c2.13-4.24-4.58-3.32-5.99-0.51
						c-6.92,13.83-12.33,28.52-21.01,41.52c-8.01,12-19.67,20.24-35.67,22.77c-34.58,5.47-74.13-12.39-91.24-41.4
						c-18.59-31.52-13.11-69.37-0.54-99.54c12.92-31.01,36.29-58.04,65.76-77.57c30.21-20.03,66.58-31.91,105.14-35.67
						c38.99-3.8,79.75,0.59,118.2,12.11c37.84,11.34,73.76,29.67,103.77,54.05c29.67,24.11,53.49,54.25,65.65,87.77
						c11.82,32.58,12.92,67.75,1.49,98.83c-5.7,15.49-14.71,29.63-26.56,41.75c-11.95,12.23-26.48,22.26-41.66,31.22
						c-31.11,18.36-65.37,32.73-94.4,53.67c-31.16,22.48-55.92,51.88-71.65,85.04c-8.57,18.07-13.47,37.39-20.83,55.9
						c-6.42,16.17-15.52,31.95-30.69,42.64c-13.29,9.37-30.52,12.67-48.02,8.96c-16.69-3.54-32.14-12.7-43.8-24.19
						c-27.13-26.75-29.01-64.08-19.9-95.18c10.02-34.21,32.31-64.61,59.5-89.18c13.97-12.63,29.4-23.96,45.91-33.96
						c17.47-10.58,36.08-19.66,54.11-29.51c34.52-18.86,68.71-42.5,82.03-78.17c5.7-15.24,6.48-31.82,1.1-48.03
						c-4.85-14.64-14.6-28.91-28.64-38.47c-32.59-22.22-74.94-11.4-98.99,11.06c-13.24,12.36-22.26,27.6-29.08,43.67
						c-0.64,1.51,0.92,2.53,2.48,2.38C1107.96,697.02,1109.41,695.42,1110.07,693.87L1110.07,693.87z"/>
				</g>
			</g>
			<g class="st2">
				<path d="M1025.45,1153.56c-5.17-15.14,7.39-31.73,24.71-32.64"/>
				<g>
					<path d="M1028.74,1151.72c-4.3-13.23,5.41-26.95,20.59-27.93c3.16-0.21,6.52-6.04,1.66-5.73
						c-19.72,1.27-34.5,19.89-28.83,37.33C1023.16,1158.48,1029.65,1154.54,1028.74,1151.72L1028.74,1151.72z"/>
				</g>
			</g>
			<g class="st2">
				<path d="M1027.08,1133.59c1.3,0.21,1.81,2.08,0.72,2.63c-1.32-1.22-0.71-3.49,1.03-3.86"/>
				<g>
					<path d="M1024.72,1136.32c0.41,0.1,0.34,0.23,0.14-0.04c0.29,0.38-0.08-0.3,0.05-0.02c0.11,0.25,0.03,0.38,0.07-0.02
						c0,0.06,0,0.12,0.01,0.18c0.08-1.05,0.71-1.87,1.91-2.45c1.28-0.04,2.56-0.08,3.84-0.12c-0.1-0.1-0.19-0.19-0.27-0.3
						c0.34,0.42,0.07,0.08,0.05-0.06c-0.06-0.35,0.04,0.45,0,0.1c-0.05-0.53-0.06,0.08-0.07,0.07c-0.05-0.04,0.12-0.3,0.09-0.35
						c0.03,0.05-0.31,0.66-0.08,0.25c-0.23,0.43-0.59,0.78-1,1.07c-0.12,0.08-1.08,0.51-0.58,0.38c1.68-0.43,3.43-2.21,3.37-3.84
						c-0.06-1.81-2.07-1.81-3.45-1.45c-3.56,0.92-7.07,5.69-3.92,8.88c0.97,0.98,2.94,0.44,3.84-0.12c1.71-1.05,3.24-2.67,3.07-4.71
						c-0.1-1.19-0.92-2.57-2.35-2.9c-1.9-0.44-3.77,0.43-4.82,1.74c-0.5,0.63-0.97,1.36-0.94,2.19
						C1023.68,1135.34,1024.01,1136.16,1024.72,1136.32L1024.72,1136.32z"/>
				</g>
			</g>
		</g>
		<g id="Ebene_2_1_">
			<g>
				<path class="st4" d="M1095.67,1109.69c20.03,15.61,28.15,42.11,19.22,62.67c-8.93,20.56-34.25,33.62-59.86,30.87
					c-25.61-2.75-49.57-21.09-56.65-43.37c-7.08-22.28,3.26-46.81,24.44-57.99c21.18-11.19,51.61-8.18,71.93,7.11"/>
				<g>
					<path d="M1092.74,1112.06c18.75,14.81,27.1,39,19.63,58.85c-7.06,18.76-29.08,30.77-51.78,29.74
						c-23.93-1.08-47.13-16.52-56.53-36.52c-9.46-20.12-3.44-43.65,14.18-56.61c19.82-14.57,52.62-11.7,73.57,3.84
						c2.77,2.06,8.45-2.81,5.85-4.74c-21.18-15.72-51.33-18.67-73.78-7.99c-22.94,10.92-35.34,35.82-29.77,59.54
						c5.42,23.13,28.71,42.56,54.55,47.28c26.37,4.82,52.93-6.98,65.62-26.2c14.55-22.01,7.49-53.63-15.68-71.93
						C1095.91,1105.2,1090.18,1110.04,1092.74,1112.06L1092.74,1112.06z"/>
				</g>
			</g>
			<g>
				<path class="st5" d="M1136.23,687.84c8.07-19.2,19.82-37.54,37.94-49.86c18.12-12.32,43.43-17.82,66.4-10.55
					c33.29,10.55,52.63,45.69,48.93,75.75c-3.71,30.06-25.64,54.89-51.57,73.12c-25.93,18.23-56.21,31.24-83.76,47.59
					c-44.9,26.64-83.01,63.02-103.23,107.9c-13.28,29.49-18.29,64.28-2.9,95.1c15.39,30.82,55.72,54.56,90.52,46.14
					c22.08-5.34,37.8-21.92,47.42-40.1c9.62-18.18,14.29-38.36,21.81-57.43c15.51-39.33,43.5-73.94,80.14-99.13
					c45.38-31.19,104.22-48.76,138.74-89.45c36.55-43.08,37.7-106.89,9.43-159.11c-28.27-52.22-82.82-92.66-143.11-114.46
					c-66.23-23.96-141.26-26.38-203.07-2.53s-108.66,74.8-118.43,135.02c-3.85,23.74-1.73,49.7,12.9,71.31
					c19.28,28.46,60.26,44.7,94.73,37.54c34.47-7.16,41.51-35.79,56.82-66.23"/>
				<g>
					<path d="M1139.55,687.35c7.23-17.06,17.4-33.49,33.01-45.27c13.99-10.56,33.03-16.62,52.39-14.64
						c38.19,3.9,62.2,39.47,61.58,70.72c-0.77,39.04-34.54,67.92-67.74,87.58c-17.97,10.64-37.03,19.84-55.33,30.04
						c-17.44,9.72-34.01,20.57-49.16,32.86c-29.63,24.05-54.09,53.5-68.33,87.45c-12.78,30.47-17.42,68.81,3.09,100.12
						c17.22,26.26,52.76,46.75,86.08,40.25c18.25-3.56,32.96-14.34,43.41-27.37c12.32-15.36,18.7-33.74,24.76-51.93
						c6.24-18.73,13.29-36.87,23.75-53.86c9.94-16.14,22.21-31.11,36.46-44.33c13.87-12.86,29.55-23.83,46.41-33.54
						c15.95-9.18,32.6-17.41,48.89-26.13c31.95-17.09,62.94-36.86,81.24-66.42c17.72-28.62,22.83-63.42,16.8-97.04
						c-6.22-34.73-24.34-67.48-50.73-95.03c-26.65-27.81-60.86-49.98-97.74-65.18c-37.4-15.42-78.07-23.84-118.03-24.41
						c-39.82-0.57-79.01,6.66-113.28,22.34c-33.82,15.47-62.28,39.04-82.14,67.67c-19.39,27.95-31.52,62.59-28.01,97.08
						c1.72,16.89,7.68,34.01,19.84,48.1c11.21,12.99,27.16,22.84,44.24,28.16c17.12,5.34,35.63,6.32,52.2,1.77
						c15.6-4.28,26.9-14.31,34.92-26.44c8.54-12.93,13.93-27.48,20.79-41.2c2.13-4.24-4.58-3.32-5.99-0.51
						c-6.92,13.83-12.33,28.52-21.01,41.52c-8.01,12-19.67,20.24-35.67,22.77c-34.58,5.47-74.13-12.39-91.24-41.39
						c-18.59-31.52-13.11-69.37-0.54-99.54c12.92-31.01,36.29-58.04,65.76-77.57c30.21-20.03,66.58-31.91,105.14-35.67
						c38.99-3.8,79.75,0.59,118.2,12.11c37.84,11.34,73.76,29.67,103.77,54.05c29.67,24.11,53.49,54.25,65.65,87.77
						c11.82,32.58,12.92,67.75,1.49,98.83c-5.7,15.49-14.71,29.63-26.56,41.75c-11.95,12.23-26.48,22.26-41.66,31.22
						c-31.11,18.36-65.37,32.73-94.4,53.67c-31.16,22.48-55.92,51.88-71.65,85.04c-8.57,18.07-13.47,37.39-20.83,55.9
						c-6.42,16.17-15.52,31.95-30.69,42.64c-13.29,9.37-30.52,12.67-48.02,8.96c-16.69-3.54-32.14-12.7-43.8-24.19
						c-27.13-26.75-29.01-64.08-19.9-95.18c10.02-34.21,32.31-64.61,59.5-89.18c13.97-12.63,29.4-23.96,45.91-33.96
						c17.47-10.58,36.08-19.66,54.11-29.51c34.52-18.86,68.71-42.5,82.03-78.17c5.7-15.24,6.48-31.82,1.1-48.03
						c-4.85-14.64-14.6-28.91-28.64-38.47c-32.59-22.22-74.94-11.4-98.99,11.06c-13.24,12.36-22.26,27.6-29.08,43.67
						c-0.64,1.51,0.93,2.53,2.48,2.38C1137.43,690.5,1138.89,688.9,1139.55,687.35L1139.55,687.35z"/>
				</g>
			</g>
			<g>
				<g>
					<path d="M1028.74,1151.72c-4.3-13.23,5.41-26.95,20.59-27.93c3.16-0.21,6.52-6.04,1.66-5.73
						c-19.72,1.27-34.5,19.89-28.83,37.33C1023.16,1158.48,1029.65,1154.54,1028.74,1151.72L1028.74,1151.72z"/>
				</g>
			</g>
			<g>
				<path class="st4" d="M1069.07,1122.35c1.3,0.21,1.81,2.08,0.72,2.63c-1.32-1.22-0.71-3.49,1.03-3.86"/>
				<g>
					<path d="M1066.72,1125.08c0.41,0.1,0.34,0.23,0.14-0.04c0.29,0.38-0.08-0.3,0.05-0.02c0.11,0.25,0.03,0.38,0.07-0.02
						c0,0.06,0,0.12,0.01,0.18c0.08-1.05,0.71-1.87,1.91-2.45c1.28-0.04,2.56-0.08,3.84-0.12c-0.1-0.1-0.19-0.19-0.27-0.3
						c0.34,0.42,0.07,0.08,0.05-0.06c-0.06-0.35,0.04,0.45,0,0.1c-0.05-0.53-0.06,0.08-0.07,0.07c-0.05-0.04,0.12-0.3,0.09-0.35
						c0.03,0.05-0.31,0.66-0.08,0.25c-0.23,0.43-0.59,0.78-1,1.07c-0.12,0.08-1.08,0.51-0.58,0.38c1.68-0.43,3.43-2.21,3.37-3.84
						c-0.06-1.81-2.07-1.81-3.45-1.45c-3.56,0.92-7.07,5.69-3.92,8.88c0.97,0.98,2.94,0.44,3.84-0.12c1.71-1.05,3.24-2.67,3.07-4.71
						c-0.1-1.19-0.92-2.57-2.35-2.9c-1.9-0.44-3.77,0.43-4.82,1.74c-0.5,0.63-0.97,1.36-0.94,2.19
						C1065.68,1124.1,1066,1124.92,1066.72,1125.08L1066.72,1125.08z"/>
				</g>
			</g>
		</g>
		<g id="Ebene_4_1_">
			<g class="st2">
				<path d="M1076.26,1099.22c-27.74-8.01-68.52,6.74-77.32,30.08c-8.8,23.34,12.44,58.24,38.87,69.71
					c-21.44-11.86-34.26-44.9-25.03-64.17s33.44-32.27,64.3-35.29"/>
				<g>
					<path d="M1078.62,1096.49c-12.27-3.45-25.22-2.85-36.99-0.03c-12.32,2.95-23.99,8.22-33.07,15.93
						c-8.74,7.41-14.52,16.92-15.01,28.16c-0.49,11.31,3.81,23.05,10.34,33.19c7.42,11.52,18.06,22.03,31.58,28.01
						c2.89,1.28,8.05-3.57,4.71-5.46c-16.95-9.57-26.3-29.61-26.97-46.15c-0.33-8.29,1.98-15.8,7.08-22.38
						c5.3-6.84,12.59-12.13,20.8-16.11c10.68-5.19,22.84-7.97,35.19-9.22c1.85-0.19,3.75-1.76,4.14-3.35
						c0.38-1.56-0.71-2.55-2.48-2.38c-23.17,2.34-46.23,10.48-60.51,26.58c-6.26,7.06-10.37,15.34-10.98,24.67
						c-0.63,9.53,1.86,19.56,6.27,28.6c4.83,9.91,12.27,19.28,22.76,25.21c1.57-1.82,3.14-3.64,4.71-5.46
						c-21.39-9.46-37.46-31.8-39.6-52.12c-1.04-9.88,1.77-18.7,8.75-25.89c6.97-7.18,16.85-12.06,27.03-15.1
						c11.61-3.47,25.11-4.72,37.55-1.23C1077.04,1102.83,1082.01,1097.44,1078.62,1096.49L1078.62,1096.49z"/>
				</g>
			</g>
			<g class="st2">
				<path d="M1269,749.23c-27.27,26.4-56.73,40.27-89.88,60.83c-33.15,20.56-63.06,36.36-88.76,64
					c-25.69,27.64-52.82,87.52-50.91,124.87c1.92,37.35,35.98,76.64,89.91,75.59c-50.89-44.53-6.1-159.5,27.71-192.34
					c32.83-31.89,109.21-90.57,127.57-160.14"/>
				<g>
					<path d="M1266.53,748.24c-25.77,24.84-59.22,41.61-90.28,60.78c-31.14,19.22-63.31,37.34-87.75,63.4
						c-9.26,9.88-16.76,21.12-23.34,32.64c-7.44,13.02-13.72,26.66-18.77,40.68c-8.89,24.65-15.72,52.63-4.61,79.07
						c5.47,13.01,14.74,25.15,26.9,34.28c13.04,9.8,28.88,15.83,45.27,17.69c4.6,0.52,9.2,0.7,13.78,0.63
						c2.01-0.03,7.13-3,4.57-5.26c-18.39-16.23-22.73-40.02-22.46-61.01c0.33-25.59,7.1-50.67,16.69-74.04
						c4.43-10.8,9.65-21.34,15.77-31.37c4.79-7.86,10.05-15.42,16.77-22.09c9.16-9.09,19.22-17.73,28.84-26.53
						c12.46-11.4,24.72-22.97,36.31-35.08c24.95-26.04,47.77-54.97,59.9-88.24c1.47-4.03,2.75-8.11,3.85-12.24
						c0.41-1.52-0.76-2.55-2.48-2.38c-1.84,0.19-3.72,1.78-4.14,3.35c-9.18,34.38-31.23,64.19-55.65,90.71
						c-21.05,22.86-45.03,43.18-67.69,64.71c-15.84,15.05-26.56,33.82-35.1,53.12c-10.46,23.64-17.92,48.92-19.6,74.93
						c-1.39,21.64,1.21,46.42,17.4,65.13c1.76,2.04,3.69,3.96,5.74,5.77c1.52-1.75,3.05-3.51,4.57-5.26
						c-16.89,0.26-33.86-3.47-48.67-12.09c-13.08-7.61-23.68-18.75-30.45-31.11c-6.51-11.89-9.49-24.65-9.06-37.37
						c0.44-13.33,3.62-26.35,7.66-38.9c4.5-13.94,10.33-27.46,17.27-40.44c6.2-11.6,13.23-22.93,21.92-33.11
						c21.76-25.49,52.4-43.11,81.81-61.04c15.59-9.5,31.36-18.74,47.02-28.16c15.14-9.11,29.87-18.79,43-30.06
						c3.43-2.95,6.73-6,9.96-9.11c0.95-0.91,1.55-2.94-0.11-3.72C1269.56,745.66,1267.52,747.28,1266.53,748.24L1266.53,748.24z"/>
				</g>
			</g>
			<g class="st2">
				<path d="M1262.6,504.02c-43.84-6.8-106.69-11.63-146.48-0.8c-39.8,10.83-86.85,41.76-112.26,70.25
					c-25.4,28.49-39.26,82.17-30.48,119.77c8.78,37.6,40.01,61.91,90.52,63.12c-26.74-15.25-51.05-40.27-51.54-67.4
					c-0.49-27.13,11.26-52.52,26.86-74.7c42.1-59.89,117.86-98.95,221.95-108.49"/>
				<g>
					<path d="M1264.25,501.13c-38.38-5.93-77.98-9.32-116.02-5.98c-17.99,1.58-35.02,5.42-51.15,11.87
						c-18.19,7.27-35.1,16.71-50.81,27.33c-15.23,10.3-29.51,21.78-41.8,34.8c-11.16,11.82-19.17,25.61-25.1,40.29
						c-6.28,15.55-10.2,32.07-11.56,48.88c-1.24,15.34-0.33,31.38,5.2,46.57c4.97,13.64,13.97,26.45,26.8,35.74
						c13.82,10.01,30.66,15.44,47.65,17.56c4.94,0.62,9.89,0.94,14.83,1.07c2.4,0.06,7.43-3.66,4-5.63
						c-23.55-13.52-46.56-35.15-50.04-60.24c-2.1-15.16,1.64-30.75,7.02-44.54c5.36-13.74,13.12-26.64,22.08-38.59
						c13.59-18.14,30.39-34.11,49.64-47.55c20.44-14.26,43.61-25.49,68.08-33.97c27.2-9.43,56.04-15.48,85.46-18.88
						c3.94-0.46,7.89-0.86,11.85-1.23c3.12-0.29,6.48-6.17,1.66-5.73c-31.16,2.88-61.79,8.56-90.8,17.79
						c-26.07,8.31-50.84,19.56-72.87,33.98c-20.91,13.69-39.41,30.1-54.4,48.96c-19.06,23.99-34.48,52.42-34.99,83.35
						c-0.45,26.67,19.25,50.33,43.42,66.42c2.99,1.99,6.05,3.88,9.18,5.67c1.33-1.88,2.67-3.75,4-5.63
						c-17.53-0.47-35.46-3.7-51.19-12.14c-13.35-7.16-23.95-17.98-30.5-30.42c-7.29-13.86-9.71-28.9-9.71-43.58
						c0-16.22,2.84-32.22,7.72-47.48c4.7-14.7,11.35-29.13,21.16-41.46c10.13-12.74,23.22-23.69,36.68-33.59
						c27.31-20.11,59.63-37.83,96.17-42.74c18.34-2.47,37.22-2.68,56.02-1.96c18.82,0.73,37.69,2.48,56.47,5
						c4.2,0.56,8.39,1.17,12.58,1.82C1264.04,507.39,1268.49,501.79,1264.25,501.13L1264.25,501.13z"/>
				</g>
			</g>
		</g>
		<g id="Ebene_5_1_">
			<g class="st2">
				<g>
					<path class="st3" d="M1326.65,566.08c2.77,1.65,5.48,3.36,8.12,5.17c1.32,0.9,2.62,1.83,3.9,2.77
						c0.64,0.47,1.28,0.95,1.91,1.43c0.28,0.21,2.88,2.27,1.29,0.99c4.93,3.99,9.57,8.27,13.86,12.79
						c8.71,9.18,15.5,18.69,21.21,29.64c11.79,22.59,15.95,47,11.5,70.46c-10.62,56.06-60.35,94.32-105.82,128.45
						c-26.32,19.76-52.58,39.69-73.61,64.11c-0.98,1.14,2.52,3.72,3.02,4.06c2.56,1.79,6.05,3.22,9.06,4.11
						c4.07,1.21,11.63,3.53,14.57,0.11c37.8-43.88,93.25-72.1,133.69-113.73c20.15-20.73,37.3-44.69,44.28-72.25
						c6.06-23.91,3.51-49.62-7.37-73.44c-11.76-25.73-32.69-48.89-59.01-64.53c-5.44-3.23-12.41-6.05-18.84-5.86
						c-1.54,0.04-4.28,0.02-4.79,1.64C1323.16,563.54,1325.46,565.37,1326.65,566.08L1326.65,566.08z"/>
				</g>
			</g>
			<g class="st2">
				<g>
					<path class="st3" d="M1078.89,1141.78c1.74,10.07-1.64,20.31-7.7,28.25c-2.94,3.85-6.82,7.15-11.13,9.79
						c-4.96,3.04-9.07,4.54-14.81,5.5c-5.85,0.97,0.59,5.75,3.07,6.99c5.31,2.67,12.73,5.21,18.67,4.22
						c25.28-4.19,42.26-25.77,38.26-48.91c-0.27-1.6-4.2-3.69-5.38-4.31c-3.05-1.6-6.76-2.91-10.14-3.59
						C1086.86,1139.13,1078.12,1137.32,1078.89,1141.78L1078.89,1141.78z"/>
				</g>
			</g>
		</g>
	</g>
	<g>
		<g id="Ebene_2_Kopie_1_">
			<g class="st2">
				<path d="M1398.16,1316.97c15.17,7.19,24.53,24.11,22.15,40s-16.33,29.55-32.98,32.29c-16.65,2.74-34.74-5.64-42.78-19.81
					c-8.03-14.18-5.39-33.07,6.24-44.68s31.37-15.05,46.67-8.13"/>
				<g>
					<path d="M1396.68,1319.14c14.23,6.87,23.37,22.15,21.8,37.28c-1.48,14.3-13.51,26.63-28.05,30.04
						c-15.32,3.59-32.47-2.91-41.61-15.08c-9.19-12.25-9.13-29.67-0.04-41.86c10.23-13.71,31.45-17.68,47.19-10.69
						c2.08,0.92,4.9-3.48,2.95-4.35c-15.92-7.06-35.47-3.64-47.99,7.85c-12.79,11.74-16.67,31.27-9.37,46.73
						c7.12,15.07,24.96,24.32,42.06,22.91c17.46-1.44,32.4-14.46,37.37-30.09c5.7-17.92-3.8-38.58-21.39-47.07
						C1397.59,1313.81,1394.73,1318.21,1396.68,1319.14L1396.68,1319.14z"/>
				</g>
			</g>
			<g class="st2">
				<path d="M1349.59,1017.53c2.05-14.79,6.57-29.65,16.08-41.49c9.51-11.84,24.66-20.26,40.36-19.38
					c22.76,1.28,40.6,22.15,43.04,43.68c2.44,21.53-7.49,42.75-21,60.11s-30.61,31.89-45.45,48.23
					c-24.18,26.64-42.52,58.8-48.17,93.63c-3.71,22.88-1.34,47.93,13.31,66.52c14.65,18.59,43.97,27.75,64.66,15.59
					c13.13-7.72,20.44-22.08,23.64-36.44c3.19-14.36,2.94-29.22,4.66-43.81c3.56-30.11,15.76-59.21,34.95-83.35
					c23.76-29.89,58.22-52.76,73.59-87.26c16.28-36.53,6.84-81.03-19.37-112.13c-26.21-31.1-67.19-49.27-108.83-53.45
					c-45.76-4.59-93.65,7.34-128.99,35.12c-35.34,27.77-56.87,71.63-53.46,115.2c1.34,17.17,6.82,34.81,19.53,47.14
					c16.74,16.25,45.27,20.08,65.95,8.85c20.68-11.23,20.58-32.37,25.42-56.28"/>
				<g>
					<path d="M1351.6,1016.59c1.86-13.15,5.68-26.4,13.69-37.41c7.18-9.87,18.26-17.53,30.84-19.67c24.8-4.22,45.66,16.1,50.25,37.9
						c5.73,27.24-11.05,53.41-28.94,73.08c-9.68,10.65-20.28,20.49-30.25,30.89c-9.5,9.91-18.26,20.45-25.89,31.73
						c-14.93,22.07-25.73,46.95-29.34,73.09c-3.24,23.46-0.07,50.92,17.9,68.92c15.08,15.1,40.85,22.87,60.91,12.31
						c10.99-5.79,18.59-15.94,23.12-26.88c5.35-12.9,6.46-26.81,7.4-40.53c0.97-14.13,2.54-28,6.46-41.69
						c3.72-13.01,9.11-25.62,16.02-37.38c6.73-11.44,14.91-21.91,24.04-31.7c8.64-9.27,17.87-18,26.79-27.01
						c17.5-17.66,33.98-37.01,40.86-60.85c6.66-23.08,4.35-48.15-4.82-70.39c-9.47-22.97-26.16-42.41-47.25-56.74
						c-21.3-14.46-46.49-23.64-72.26-27.49c-26.14-3.91-53.22-2.37-78.62,4.49c-25.3,6.83-48.96,18.97-68.16,36.07
						c-18.95,16.87-33.21,38.4-41.23,61.87c-7.83,22.92-9.99,49.16-2.27,72.45c3.78,11.41,10.28,22.21,20.22,29.78
						c9.16,6.98,20.83,10.92,32.49,11.51c11.69,0.59,23.56-2.08,33.33-8.25c9.19-5.8,14.75-14.82,17.9-24.69
						c3.35-10.52,4.44-21.6,6.6-32.37c0.67-3.33-3.43-1.47-3.87,0.73c-2.18,10.86-3.27,22.03-6.69,32.63
						c-3.16,9.78-9.23,17.62-18.96,22.28c-21.02,10.07-48.91,4.86-64.36-12.16c-16.79-18.5-19.35-45.76-16.2-68.98
						c3.24-23.87,13.73-46.87,29.28-65.77c15.94-19.39,37.07-34.24,60.89-43.84c24.08-9.71,50.59-14.07,76.76-13.06
						c25.77,1,51.43,7.2,74.31,18.67c22.63,11.35,42.51,27.94,55.54,48.99c12.67,20.46,18.97,44.67,16.68,68.32
						c-1.14,11.79-4.6,23.23-10.17,33.8c-5.62,10.65-13.22,20.26-21.4,29.23c-16.77,18.39-36.17,34.58-51.22,54.39
						c-16.15,21.25-27.14,46.15-31.82,72.02c-2.55,14.09-2.57,28.4-4.28,42.58c-1.49,12.39-4.74,24.99-12.64,35.16
						c-6.92,8.91-17.31,14.33-28.98,14.94c-11.13,0.58-22.37-2.98-31.59-8.83c-21.44-13.64-28.57-39.2-27.76-62.44
						c0.9-25.56,10.17-50.7,23.47-72.69c6.83-11.3,14.8-21.96,23.66-31.9c9.37-10.51,19.71-20.19,29.56-30.3
						c18.85-19.35,36.73-41.97,39.48-69.14c1.18-11.61-0.96-23.26-6.95-33.53c-5.4-9.28-13.85-17.41-24.26-21.5
						c-24.17-9.5-49.26,5.7-60.91,25.65c-6.41,10.98-9.7,23.19-11.45,35.59c-0.16,1.16,0.99,1.59,1.95,1.2
						C1350.77,1019.16,1351.44,1017.78,1351.6,1016.59L1351.6,1016.59z"/>
				</g>
			</g>
			<g class="st2">
				<path d="M1371.24,1350.97c-5.68-9.57-0.37-23.36,10.45-27.13"/>
				<g>
					<path d="M1373.03,1349.09c-4.83-8.4-0.87-19.69,8.59-23.12c1.96-0.72,3.16-5.37,0.14-4.28c-12.28,4.46-18.67,20.07-12.31,31.14
						C1370.58,1354.8,1374.06,1350.89,1373.03,1349.09L1373.03,1349.09z"/>
				</g>
			</g>
			<g class="st2">
				<path d="M1369.1,1336.82c0.86-0.09,1.48,1.11,0.87,1.7c-1.03-0.61-1.01-2.29,0.04-2.87"/>
				<g>
					<path d="M1368.04,1339.14c0.28-0.01,0.25,0.1,0.08-0.05c0.24,0.21-0.1-0.19,0.03-0.02c0.11,0.15,0.08,0.26,0.04-0.03
						c0.01,0.04,0.02,0.08,0.03,0.12c-0.12-0.74,0.15-1.43,0.82-2.04c0.8-0.26,1.61-0.52,2.41-0.78c-0.08-0.05-0.15-0.1-0.22-0.16
						c0.28,0.23,0.06,0.04,0.02-0.05c-0.09-0.23,0.09,0.31,0.02,0.07c-0.11-0.36-0.02,0.07-0.04,0.06c-0.04-0.02,0.03-0.23,0-0.26
						c0.03,0.03-0.09,0.51-0.01,0.19c-0.08,0.34-0.25,0.65-0.47,0.92c-0.06,0.08-0.6,0.55-0.31,0.37c0.99-0.6,1.82-2.16,1.52-3.28
						c-0.33-1.25-1.6-0.88-2.42-0.38c-2.11,1.29-3.57,5.23-1.07,6.87c0.77,0.51,1.93-0.23,2.41-0.78c0.92-1.04,1.62-2.44,1.19-3.83
						c-0.25-0.81-0.99-1.61-1.95-1.58c-1.27,0.04-2.32,0.98-2.78,2.08c-0.22,0.53-0.4,1.12-0.25,1.69
						C1367.23,1338.65,1367.56,1339.15,1368.04,1339.14L1368.04,1339.14z"/>
				</g>
			</g>
		</g>
		<g id="Ebene_2_2_">
			<g>
				<path class="st4" d="M1408.72,1307.77c15.17,7.19,24.53,24.11,22.15,40c-2.38,15.89-16.33,29.55-32.98,32.29
					c-16.65,2.74-34.74-5.64-42.78-19.81c-8.03-14.18-5.39-33.07,6.24-44.68c11.63-11.61,31.37-15.05,46.67-8.12"/>
				<g>
					<path d="M1407.24,1309.95c14.23,6.87,23.37,22.15,21.8,37.28c-1.48,14.3-13.51,26.63-28.05,30.04
						c-15.32,3.59-32.47-2.91-41.61-15.08c-9.19-12.25-9.13-29.67-0.04-41.86c10.23-13.71,31.45-17.68,47.19-10.69
						c2.08,0.92,4.9-3.48,2.95-4.35c-15.92-7.06-35.47-3.64-47.99,7.85c-12.79,11.74-16.67,31.27-9.37,46.73
						c7.12,15.07,24.96,24.32,42.06,22.91c17.46-1.44,32.4-14.46,37.37-30.09c5.7-17.92-3.8-38.58-21.39-47.07
						C1408.15,1304.61,1405.3,1309.01,1407.24,1309.95L1407.24,1309.95z"/>
				</g>
			</g>
			<g>
				<path class="st5" d="M1367.21,1007.65c2.05-14.79,6.57-29.65,16.08-41.49s24.66-20.26,40.36-19.38
					c22.76,1.28,40.6,22.15,43.04,43.68c2.44,21.53-7.49,42.75-21,60.11c-13.51,17.36-30.61,31.89-45.45,48.23
					c-24.18,26.64-42.52,58.8-48.17,93.63c-3.71,22.88-1.34,47.93,13.31,66.52s43.97,27.75,64.66,15.59
					c13.13-7.72,20.44-22.08,23.64-36.44c3.19-14.36,2.94-29.22,4.66-43.81c3.56-30.11,15.76-59.21,34.95-83.35
					c23.76-29.89,58.22-52.76,73.59-87.26c16.28-36.53,6.84-81.03-19.37-112.13c-26.21-31.1-67.19-49.27-108.83-53.45
					c-45.75-4.6-93.63,7.34-128.97,35.11c-35.34,27.77-56.88,71.64-53.48,115.2c1.34,17.17,6.82,34.81,19.53,47.14
					c16.74,16.25,45.27,20.08,65.95,8.85c20.68-11.23,20.58-32.37,25.42-56.28"/>
				<g>
					<path d="M1369.23,1006.72c1.86-13.15,5.68-26.4,13.69-37.41c7.18-9.87,18.26-17.53,30.84-19.67
						c24.8-4.22,45.66,16.1,50.25,37.9c5.73,27.24-11.05,53.41-28.94,73.08c-9.68,10.65-20.28,20.49-30.25,30.89
						c-9.5,9.91-18.26,20.45-25.89,31.73c-14.93,22.07-25.73,46.95-29.34,73.09c-3.24,23.46-0.07,50.92,17.9,68.92
						c15.08,15.1,40.85,22.87,60.91,12.31c10.99-5.79,18.59-15.94,23.12-26.88c5.35-12.9,6.46-26.81,7.4-40.53
						c0.97-14.13,2.54-28,6.46-41.69c3.72-13.01,9.11-25.62,16.02-37.38c6.73-11.44,14.91-21.91,24.04-31.7
						c8.64-9.27,17.87-18,26.79-27.01c17.5-17.66,33.98-37.01,40.86-60.85c6.66-23.08,4.35-48.15-4.82-70.39
						c-9.47-22.97-26.16-42.41-47.25-56.74c-21.3-14.46-46.49-23.64-72.26-27.49c-26.14-3.91-53.22-2.37-78.62,4.49
						c-25.3,6.83-48.96,18.97-68.16,36.07c-18.95,16.87-33.21,38.4-41.23,61.87c-7.83,22.92-9.99,49.16-2.27,72.45
						c3.78,11.41,10.28,22.21,20.22,29.78c9.16,6.98,20.83,10.92,32.49,11.51c11.69,0.59,23.56-2.08,33.33-8.25
						c9.19-5.8,14.75-14.82,17.9-24.69c3.35-10.52,4.44-21.6,6.6-32.37c0.67-3.33-3.43-1.47-3.87,0.73
						c-2.18,10.86-3.27,22.03-6.69,32.63c-3.16,9.78-9.23,17.62-18.96,22.28c-21.02,10.07-48.91,4.86-64.36-12.16
						c-16.79-18.5-19.35-45.76-16.2-68.98c3.24-23.87,13.73-46.87,29.28-65.77c15.94-19.39,37.07-34.24,60.89-43.84
						c24.08-9.71,50.59-14.07,76.76-13.06c25.77,1,51.43,7.2,74.31,18.67c22.63,11.35,42.51,27.94,55.54,48.99
						c12.67,20.46,18.97,44.67,16.68,68.32c-1.14,11.79-4.6,23.23-10.17,33.8c-5.62,10.65-13.22,20.26-21.4,29.23
						c-16.77,18.39-36.17,34.58-51.22,54.39c-16.15,21.25-27.14,46.15-31.82,72.02c-2.55,14.09-2.57,28.4-4.28,42.58
						c-1.49,12.39-4.74,24.99-12.64,35.16c-6.92,8.91-17.31,14.33-28.98,14.94c-11.13,0.58-22.37-2.98-31.59-8.83
						c-21.44-13.64-28.57-39.2-27.76-62.44c0.9-25.56,10.17-50.7,23.47-72.69c6.83-11.3,14.8-21.96,23.66-31.9
						c9.37-10.51,19.71-20.19,29.56-30.3c18.85-19.35,36.73-41.97,39.48-69.14c1.18-11.61-0.96-23.26-6.95-33.53
						c-5.4-9.28-13.85-17.41-24.26-21.5c-24.17-9.5-49.26,5.7-60.91,25.65c-6.41,10.98-9.7,23.19-11.45,35.59
						c-0.16,1.16,0.99,1.59,1.95,1.2C1368.39,1009.29,1369.06,1007.91,1369.23,1006.72L1369.23,1006.72z"/>
				</g>
			</g>
			<g>
				<g>
					<path d="M1373.03,1349.09c-4.83-8.4-0.87-19.69,8.59-23.12c1.96-0.72,3.16-5.37,0.14-4.28c-12.28,4.46-18.67,20.07-12.31,31.14
						C1370.58,1354.8,1374.06,1350.89,1373.03,1349.09L1373.03,1349.09z"/>
				</g>
			</g>
			<g>
				<path class="st4" d="M1393.89,1321.39c0.86-0.09,1.48,1.11,0.87,1.7c-1.03-0.61-1.01-2.29,0.04-2.87"/>
				<g>
					<path d="M1392.84,1323.71c0.28-0.01,0.25,0.1,0.08-0.05c0.24,0.21-0.1-0.19,0.03-0.02c0.11,0.15,0.08,0.26,0.04-0.03
						c0.01,0.04,0.02,0.08,0.03,0.12c-0.12-0.74,0.15-1.43,0.82-2.04c0.8-0.26,1.61-0.52,2.41-0.78c-0.08-0.05-0.15-0.1-0.22-0.16
						c0.28,0.23,0.06,0.04,0.02-0.05c-0.09-0.23,0.09,0.31,0.02,0.07c-0.11-0.36-0.02,0.07-0.04,0.06c-0.04-0.02,0.03-0.23,0-0.26
						c0.03,0.03-0.09,0.51-0.01,0.19c-0.08,0.34-0.25,0.65-0.47,0.92c-0.06,0.08-0.6,0.55-0.31,0.37c0.99-0.6,1.82-2.16,1.52-3.28
						c-0.33-1.25-1.6-0.88-2.42-0.38c-2.11,1.29-3.57,5.23-1.07,6.87c0.77,0.51,1.93-0.23,2.41-0.78c0.92-1.04,1.62-2.44,1.19-3.83
						c-0.25-0.81-0.99-1.61-1.95-1.58c-1.27,0.04-2.32,0.98-2.78,2.08c-0.22,0.53-0.4,1.12-0.25,1.69
						C1392.02,1323.22,1392.36,1323.73,1392.84,1323.71L1392.84,1323.71z"/>
				</g>
			</g>
		</g>
		<g id="Ebene_4_2_">
			<g class="st2">
				<path d="M1394.76,1304.03c-18.84-0.53-42.31,17.12-44.16,34.91c-1.85,17.8,17.15,38.16,35.71,41.32
					c-15.46-4.34-28.84-24.94-26.07-39.99c2.78-15.05,16.03-28.47,35.09-36.17"/>
				<g>
					<path d="M1395.82,1301.71c-8.32-0.17-16.42,2.6-23.42,6.7c-7.33,4.28-13.88,10.06-18.4,17.06c-4.35,6.73-6.5,14.38-5.02,22.26
						c1.49,7.94,6.08,15.31,11.83,21.16c6.53,6.65,14.94,12.01,24.45,13.71c2.04,0.36,4.53-3.94,2.11-4.64
						c-12.26-3.56-21.37-15.77-24.42-27.13c-1.53-5.69-1.27-11.33,0.92-16.82c2.27-5.71,6.04-10.7,10.6-14.96
						c5.94-5.54,13.19-9.68,20.81-12.79c1.14-0.47,2.09-1.9,2.09-3.08c0-1.15-0.86-1.64-1.95-1.2c-14.3,5.83-27.6,15.67-34.08,29.43
						c-2.84,6.04-4.12,12.53-3.03,19.11c1.12,6.73,4.29,13.24,8.53,18.71c4.64,6,10.84,11.15,18.42,13.36
						c0.7-1.55,1.41-3.1,2.11-4.64c-15.05-2.68-28.78-15.27-33.37-28.98c-2.23-6.67-1.86-13.3,1.42-19.55
						c3.27-6.25,8.75-11.43,14.71-15.39c6.8-4.51,15.14-7.84,23.58-7.67C1395.83,1306.4,1398.12,1301.75,1395.82,1301.71
						L1395.82,1301.71z"/>
				</g>
			</g>
			<g class="st2">
				<path d="M1461.04,1026.15c-13.06,23.27-29.5,38.25-47.22,58.54c-17.72,20.29-34.13,36.68-46,60.53
					c-11.87,23.84-19.5,70.33-12.34,95.9c7.16,25.57,34.99,46.65,68.96,36.13c-39.31-21.66-29.26-109.58-13.09-138.51
					c15.71-28.09,54.71-82.68,55.26-134.3"/>
				<g>
					<path d="M1459.32,1025.92c-12.36,21.92-30.87,39.63-47.48,58.57c-16.66,18.99-34.14,37.41-45.46,59.93
						c-4.29,8.54-7.24,17.7-9.58,26.89c-2.64,10.39-4.44,20.99-5.41,31.64c-1.7,18.72-1.57,39.38,9.68,55.71
						c5.54,8.04,13.34,14.77,22.49,18.91c9.82,4.43,20.81,5.74,31.48,4.06c3-0.47,5.93-1.18,8.82-2.06
						c1.27-0.39,4.03-3.38,2.05-4.48c-14.23-7.92-20.77-23.64-23.94-38.26c-3.87-17.82-3.57-36.45-1.23-54.41
						c1.09-8.3,2.71-16.56,4.99-24.64c1.78-6.32,3.91-12.53,7.1-18.37c4.35-7.97,9.34-15.79,14.03-23.65
						c6.07-10.17,11.99-20.43,17.4-30.94c11.65-22.6,21.49-46.82,23.87-72.11c0.29-3.06,0.45-6.13,0.49-9.2
						c0.02-1.13-0.89-1.63-1.95-1.2c-1.14,0.47-2.07,1.91-2.09,3.08c-0.33,25.53-9.55,50.21-20.79,73.06
						c-9.68,19.69-21.63,38.14-32.55,57.2c-7.63,13.32-11.43,28.29-13.76,43.23c-2.86,18.3-3.55,37.2-0.47,55.56
						c2.57,15.27,8.16,32,21.39,42.04c1.44,1.09,2.96,2.08,4.56,2.96c0.68-1.49,1.37-2.99,2.05-4.48
						c-10.65,3.25-21.99,3.74-32.74,0.45c-9.49-2.91-17.98-8.71-24.24-16.06c-6.02-7.07-9.93-15.38-11.69-24.29
						c-1.84-9.33-1.91-18.95-1.34-28.38c0.63-10.49,2.17-20.94,4.49-31.2c2.08-9.18,4.73-18.32,8.61-26.96
						c9.72-21.64,26.31-39.43,42.08-57.21c8.35-9.42,16.87-18.7,25.28-28.08c8.14-9.07,15.92-18.47,22.44-28.67
						c1.71-2.67,3.31-5.38,4.86-8.13c0.46-0.8,0.51-2.32-0.66-2.56C1460.83,1023.57,1459.8,1025.07,1459.32,1025.92L1459.32,1025.92
						z"/>
				</g>
			</g>
			<g class="st2">
				<path d="M1417.94,857.15c-28.84,3.24-69.4,11.3-92.87,26.04c-23.47,14.74-48.34,44.75-59.88,69.13
					c-11.55,24.39-11.77,64.16-0.22,88.65c11.55,24.5,35.19,35.7,67.37,27.36c-19.36-5.73-38.73-18.68-43.36-37.42
					c-4.63-18.74-1.24-38.49,5.1-56.72c17.12-49.21,58.86-90.07,123.25-115.59"/>
				<g>
					<path d="M1418.52,854.84c-25.24,2.86-50.86,7.69-74.41,16.91c-11.14,4.36-21.31,10.12-30.49,17.52
						c-10.36,8.35-19.56,17.97-27.82,28.2c-8,9.91-15.21,20.47-20.92,31.74c-5.18,10.23-8.06,21.25-9.47,32.52
						c-1.5,11.93-1.35,24.11,0.47,36.02c1.66,10.87,4.79,21.84,10.71,31.38c5.32,8.56,13.06,15.82,22.66,19.94
						c10.34,4.44,21.87,5.15,32.96,3.53c3.23-0.47,6.41-1.14,9.56-1.95c1.53-0.39,4.12-3.89,1.64-4.63
						c-17.06-5.1-35.08-15.94-41.27-32.72c-3.74-10.14-3.86-21.64-2.65-32.19c1.2-10.51,4.07-20.87,7.83-30.79
						c5.72-15.06,13.81-29.19,23.86-42.01c10.67-13.61,23.55-25.61,37.69-35.94c15.72-11.48,33.01-20.91,51.1-28.62
						c2.42-1.03,4.86-2.03,7.31-3c1.93-0.77,3.12-5.46,0.14-4.28c-19.27,7.66-37.76,17.16-54.66,28.84
						c-15.18,10.5-29.07,22.8-40.72,36.81c-11.06,13.3-20.16,28.04-26.64,43.85c-8.25,20.11-13.48,42.64-8.88,64.2
						c3.97,18.59,20.2,31.43,38.07,38.21c2.21,0.84,4.45,1.59,6.71,2.27c0.54-1.54,1.09-3.09,1.64-4.63
						c-11.17,2.86-23.04,3.87-34.34,0.87c-9.6-2.55-18.03-8.13-24.16-15.57c-6.82-8.3-10.75-18.29-13.09-28.48
						c-2.58-11.26-3.33-22.88-2.67-34.35c0.64-11.05,2.55-22.28,6.79-32.61c4.38-10.68,10.93-20.65,17.87-29.97
						c14.09-18.92,31.73-37.08,54.08-47.12c11.22-5.04,23.14-8.62,35.16-11.53c12.03-2.91,24.26-5.12,36.55-6.78
						c2.75-0.37,5.5-0.71,8.25-1.02C1419.39,859.22,1421.31,854.53,1418.52,854.84L1418.52,854.84z"/>
				</g>
			</g>
		</g>
		<g id="Ebene_5_2_">
			<g class="st2">
				<g>
					<path class="st3" d="M1468.37,888.58c2.01,0.64,4.01,1.34,5.97,2.12c0.98,0.39,1.95,0.79,2.91,1.22
						c0.48,0.21,0.96,0.43,1.44,0.65c0.21,0.1,2.18,1.05,0.98,0.45c3.76,1.87,7.37,4,10.81,6.36c6.98,4.79,12.79,10.16,18.15,16.72
						c11.06,13.54,17.58,29.72,18.5,46.81c2.21,40.83-23.19,76.42-46.54,108.36c-13.52,18.49-26.97,37.09-36.4,57.85
						c-0.44,0.97,2.19,2.12,2.56,2.27c1.91,0.78,4.34,1.13,6.39,1.21c2.77,0.1,7.93,0.34,9.25-2.57
						c16.94-37.31,47.56-66.97,66.53-103.2c9.45-18.05,16.5-37.79,16.53-58.18c0.03-17.69-5.68-35.07-16.37-49.62
						c-11.54-15.72-28.48-27.99-47.64-34.07c-3.96-1.25-8.82-1.94-12.86-0.64c-0.97,0.31-2.71,0.79-2.77,2
						C1465.76,887.45,1467.51,888.31,1468.37,888.58L1468.37,888.58z"/>
				</g>
			</g>
			<g class="st2">
				<g>
					<path class="st3" d="M1403.2,1333.09c2.71,6.68,2.2,14.4-0.38,21c-1.25,3.21-3.18,6.2-5.49,8.82c-2.66,3.01-5.02,4.8-8.5,6.5
						c-3.55,1.74,1.29,3.88,3.06,4.3c3.79,0.89,8.89,1.3,12.5-0.46c15.34-7.49,22.65-25.56,16.43-40.89
						c-0.43-1.06-3.25-1.8-4.09-2.01c-2.18-0.56-4.75-0.79-6.99-0.65C1407.83,1329.8,1402.01,1330.14,1403.2,1333.09L1403.2,1333.09
						z"/>
				</g>
			</g>
		</g>
	</g>
</g>
</svg>
