<?xml version="1.0" encoding="utf-8"?>
<!-- Generator: Adobe Adobe Illustrator 24.2.0, SVG Export Plug-In . SVG Version: 6.00 Build 0)  -->
<svg version="1.1" xmlns="http://www.w3.org/2000/svg" xmlns:xlink="http://www.w3.org/1999/xlink" x="0px" y="0px"
	 viewBox="0 0 2000 2000" style="enable-background:new 0 0 2000 2000;" xml:space="preserve">
<style type="text/css">
	.st0{fill:#AEBECE;}
	.st1{fill:#ADBECD;}
	.st2{fill:#EA883C;}
	.st3{fill:#EA883B;}
	.st4{fill:#5C646F;}
	.st5{fill:#5C636F;}
	.st6{fill:#FFFFFF;}
	.st7{fill:#DB7A3A;}
	.st8{fill:#DB7A39;}
	.st9{fill:#DC7A39;}
	.st10{fill:#3D4C59;}
	.st11{fill:#E9EFF5;}
	.st12{fill:#ADBFCE;}
	.st13{fill:#DC7B3A;}
	.st14{opacity:0.1686;}
	.st15{opacity:0.1608;}
	.st16{opacity:0.149;}
	.st17{fill:#F4F5E9;}
	.st18{fill:#F4F6E7;}
	.st19{stroke:#000000;stroke-width:0.5209;stroke-miterlimit:10;}
</style>
<g id="Ebene_1">
</g>
<g id="Ebene_4">
</g>
<g id="Ebene_8">
	<g>
		<path class="st0" d="M329.38,480.33c-13.87,63.96-14.93,130.67-3.1,195.04c1.8,9.82,4.67,20.7,13.25,25.8
			c17.62,10.46,41.9-12.21,59.53-1.77c-0.98-74.82,1.47-149.69,7.33-224.3c-22.51-5.87-46.65-5.31-68.86,1.61"/>
		<g>
			<path class="st1" d="M324.13,481.67c-9.26,43.09-12.96,87.4-10.8,131.43c1.07,21.75,3.55,43.45,7.41,64.87
				c2.77,15.34,8.95,32.98,27.49,32.89c8.11-0.04,15.85-2.75,23.57-4.91c7.77-2.17,16.05-4.17,23.53-0.06
				c4.77,2.63,9.2-5.84,9.16-9.5c-0.95-74.83,1.5-149.68,7.33-224.3c0.15-1.97-1.02-3.4-2.83-3.86c-23.1-5.84-47.38-5.18-70.17,1.73
				c-3.4,1.03-5.95,4.67-6.53,8.08c-0.43,2.53,0.53,6.46,3.99,5.41c22.08-6.69,45.19-7.15,67.55-1.49
				c-0.94-1.29-1.88-2.57-2.83-3.86c-5.83,74.61-8.28,149.46-7.33,224.3c3.05-3.17,6.1-6.33,9.16-9.5
				c-12.76-7.03-26.91-0.44-39.77,2.73c-6.53,1.61-13.69,2.66-19.76-0.96c-6.81-4.05-9.33-12.23-10.95-19.52
				c-8.99-40.6-10.44-83.84-7.73-125.21c1.56-23.86,5.01-47.57,10.03-70.94c0.61-2.85-0.67-5.99-3.99-5.41
				C327.2,474.2,324.78,478.61,324.13,481.67L324.13,481.67z"/>
		</g>
	</g>
	<g>
		<path class="st0" d="M1248.27,454.32c7.79,68.88,10.81,138.3,9.02,207.6c17.16-11.26,45.67,10.24,58.62-5.68
			c4.47-5.5,4.49-13.26,4.3-20.35c-1.21-43.77-2.42-87.53-3.64-131.3c-0.45-16.23-1.75-34.4-13.87-45.21
			c-13.34-11.9-33.68-9.62-51.29-6.63"/>
		<g>
			<path class="st1" d="M1242.86,457.32c7.75,68.91,10.76,138.29,9.02,207.6c-0.08,3.12,2.8,4.85,5.51,3.18
				c7.01-4.3,15.69-2.66,23.34-1.3c7.94,1.41,16.21,3.47,24.28,1.85c25.06-5.02,20.56-37.1,20.05-55.65
				c-0.75-27.19-1.51-54.38-2.26-81.57c-0.36-12.93-0.36-25.92-1.22-38.83c-0.68-10.25-2.22-20.71-7.19-29.85
				c-12.31-22.67-40.03-20.37-61.72-16.73c-5.53,0.93-10.17,14.77-2.54,13.49c17.4-2.92,40.27-5.87,52.29,10.36
				c5.46,7.38,7.33,16.75,8.12,25.72c0.99,11.25,0.91,22.62,1.23,33.9c0.68,24.54,1.36,49.07,2.04,73.61
				c0.34,12.44,0.82,24.89,1.03,37.34c0.06,3.56,0.63,8.89-1.69,11.92c-1.66,2.16-4.84,2.85-7.4,3.09
				c-16.42,1.57-32.95-9.29-48.57,0.29c1.84,1.06,3.67,2.12,5.51,3.18c1.75-69.32-1.27-138.7-9.02-207.6
				C1252.68,442.46,1242.21,451.54,1242.86,457.32L1242.86,457.32z"/>
		</g>
	</g>
	<g>
		<path class="st0" d="M1199.83,1143.28c11.63,8.96,12.41,25.79,13.9,40.39c1.49,14.61,7.45,31.91,21.88,34.64
			c9.36,1.77,18.43-3.58,26.46-8.71c22.46-14.35,44.91-28.69,67.37-43.04c8.71-5.56,17.95-11.76,21.65-21.42
			c4.95-12.96-1.76-27.24-8.83-39.17c-6.87-11.59-15.98-24.01-29.37-25.54c-10-1.14-19.45,4.26-28.07,9.47
			c-30.14,18.2-60.28,36.4-90.42,54.6"/>
		<g>
			<path class="st1" d="M1196.08,1149.77c10.49,8.56,10.89,23.8,12.17,36.19c1.2,11.67,4.08,24.74,12.96,33.1
				c10.82,10.2,25.1,6.23,36.62-0.58c15.49-9.17,30.44-19.37,45.61-29.06c7.86-5.02,15.72-10.04,23.58-15.06
				c5.9-3.77,11.99-7.48,17.15-12.25c11.51-10.64,16.59-25.23,12.45-40.57c-3.62-13.4-12.05-27.99-21.94-37.77
				c-10.31-10.2-22.97-12.69-36.44-7.16c-8.69,3.57-16.59,8.97-24.61,13.81c-8.81,5.32-17.63,10.65-26.44,15.97
				c-17.63,10.65-35.26,21.29-52.89,31.94c-2.99,1.8-5.49,5.59-5.3,9.19c0.16,3.08,2.64,4.92,5.51,3.18
				c27.87-16.83,55.73-33.66,83.6-50.48c11.35-6.86,25.31-17.57,39.08-10.91c10.74,5.2,17.55,16.83,23.04,26.92
				c3.4,6.24,6.57,13.16,7.1,20.34c0.5,6.81-2.19,11.72-7.2,16.09c-10.72,9.35-24.09,16.23-36.04,23.86
				c-13.47,8.61-26.94,17.23-40.42,25.82c-10.45,6.66-24.4,14.98-34.87,3.66c-8.46-9.15-9.22-22.29-10.52-33.99
				c-1.45-13.13-3.94-26.45-14.69-35.23C1199.09,1133.11,1191.17,1145.76,1196.08,1149.77L1196.08,1149.77z"/>
		</g>
	</g>
	<g>
		<path class="st0" d="M1261.52,1333.94c8.52,12.17,7.33,28.3,8.85,43.08c1.52,14.77,8.95,31.78,23.67,33.77
			c9.03,1.22,17.6-3.79,25.33-8.6c44.45-27.67,88.91-55.35,133.36-83.02c-9.96-25.7-21.06-50.95-33.25-75.67
			c-43.66,41.72-97.83,72.35-156.09,88.26"/>
		<g>
			<path class="st1" d="M1256.87,1339.6c9.39,14.13,5.95,31.98,9.22,47.83c2.65,12.85,10.05,27.24,24.09,30
				c8.43,1.65,16.91-1.88,24.1-5.95c8.67-4.9,17-10.47,25.45-15.73c17.73-11.03,35.45-22.07,53.18-33.1
				c19.98-12.44,39.95-24.87,59.93-37.31c2.96-1.84,6.57-6.87,5.1-10.66c-10.15-26.1-21.44-51.74-33.8-76.87
				c-1.16-2.36-4.84-0.78-6.12,0.44c-43.13,41.02-95.95,70.92-153.34,86.73c-3.4,0.94-5.96,4.73-6.53,8.08
				c-0.44,2.61,0.53,6.36,3.99,5.41c59.33-16.35,114.23-47.37,158.83-89.78c-2.04,0.15-4.08,0.3-6.12,0.44
				c11.97,24.35,22.86,49.2,32.7,74.48c1.7-3.55,3.4-7.1,5.1-10.66c-33.48,20.84-66.96,41.69-100.44,62.53
				c-8.44,5.25-16.88,10.51-25.32,15.76c-7.45,4.64-15.27,10.76-24.06,12.45c-15.09,2.9-23.44-12.07-26.17-24.57
				c-3.77-17.23-0.15-35.35-10.46-50.88C1262.55,1322.83,1253.62,1334.71,1256.87,1339.6L1256.87,1339.6z"/>
		</g>
	</g>
	<g>
		<path class="st0" d="M281.37,1106.34c-2.35,14.57-14.85,24.92-25.02,35.62c-10.17,10.7-19.06,26.32-12.56,39.57
			c3.44,7.01,10.42,11.46,17.08,15.53c28.88,17.61,58.66,34.75,91.45,43.08c10.68,2.71,21.96,4.46,32.67,1.87
			c10.71-2.59,20.75-10.32,23.33-21.04c2.66-11.07-3.13-22.72-11.4-30.55c-8.27-7.83-18.78-12.75-28.69-18.37
			c-30.72-17.42-56.63-42.3-79.46-69.25"/>
		<g>
			<path class="st1" d="M276.11,1107.68c-2.58,13.78-15.98,22.79-24.68,32.75c-9.47,10.84-18.09,26.39-14.42,41.24
				c3.68,14.89,20.56,22.27,32.55,29.38c14.82,8.79,29.94,17.15,45.76,24.03c26.49,11.51,65.84,26.48,89.21,1.39
				c10.22-10.97,12.5-26.37,5.87-39.78c-7.02-14.19-21.41-21.74-34.69-29.05c-32.09-17.66-58.71-42.74-82.3-70.5
				c-4.39-5.16-13.06,6.92-9.3,11.33c18.5,21.77,38.89,42.24,62.35,58.67c11.72,8.21,24.61,14.27,36.6,22.01
				c10.14,6.55,23.24,18.77,20.15,32.4c-2.88,12.75-20.43,15.43-31.07,14.71c-15.5-1.05-30.91-6.51-45.15-12.41
				c-13.96-5.79-27.39-12.8-40.5-20.3c-6.57-3.76-13.07-7.64-19.54-11.57c-5.68-3.45-11.92-6.84-16.04-12.2
				c-10.32-13.4,2.35-28.04,11.78-37.57c10.59-10.71,21.08-21.86,23.95-37.2c0.53-2.85-0.62-6-3.99-5.41
				C279.25,1100.19,276.68,1104.63,276.11,1107.68L276.11,1107.68z"/>
		</g>
	</g>
	<g>
		<path class="st0" d="M168.7,1296.02c-10.3,22.65-20.59,45.3-30.89,67.96c-2.56,5.62-5.13,12.11-2.6,17.75
			c2.33,5.2,8.17,7.71,13.49,9.75c42.87,16.44,85.74,32.88,128.62,49.32c12.79,4.91,26.98,9.85,39.84,5.12
			c15.2-5.58,22.66-22.31,28.52-37.41c4.35-11.19,7.97-25.76-1.07-33.67c-4.27-3.73-10.22-4.68-15.81-5.63
			c-55.62-9.39-108.71-33.35-152.54-68.85"/>
		<g>
			<path class="st1" d="M163.95,1295.58c-8.94,19.67-17.88,39.34-26.83,59.01c-3.94,8.67-9.85,18.54-8.02,28.46
				c1.6,8.67,9.32,12.4,16.78,15.28c41.29,15.91,82.64,31.69,123.96,47.54c17.11,6.56,36.62,14.07,53.65,3.1
				c13.94-8.98,21.22-25.07,26.95-40.01c4.97-12.95,10.33-33.64-4.56-42.38c-7.6-4.46-17.79-4.67-26.26-6.42
				c-8.92-1.85-17.77-4.07-26.51-6.66c-41.13-12.18-79.71-32.73-113.1-59.62c-4.53-3.65-12.43,9.02-7.5,12.99
				c26.64,21.46,56.49,38.78,88.4,51.15c15.51,6.02,31.48,10.91,47.71,14.58c8.09,1.83,16.51,2.67,24.5,4.83
				c7.59,2.06,11.97,7.4,11.66,15.32c-0.27,6.96-3.12,13.66-5.72,20.01c-2.5,6.11-5.28,12.36-9.39,17.58
				c-11.6,14.75-29.72,10.97-45.23,5.22c-37-13.7-73.71-28.25-110.55-42.38c-9.39-3.6-20.03-6.36-28.69-11.54
				c-10.1-6.05-3.04-16.34,0.62-24.39c9.21-20.27,18.43-40.54,27.64-60.8c1.09-2.41,1.11-6.77-2.17-7.3
				C167.8,1288.6,165.09,1293.06,163.95,1295.58L163.95,1295.58z"/>
		</g>
	</g>
	<g>
		<path class="st0" d="M522.17,1678.23c-6.46,4.93-3.61,16.17,3.26,20.53c6.87,4.35,15.62,3.88,23.73,3.26
			c22.8-1.75,45.59-3.49,68.39-5.24c3.17-2.19,1.8-8.99,2.43-20.09c0.47-8.25-15.14-6.08-23.41-6.26
			c-25.08-0.57-50.15-1.14-75.23-1.71"/>
		<g>
			<path class="st1" d="M520.7,1673.01c-6.05,5.28-8.99,13.49-6.82,21.36c2.17,7.9,8.62,12.52,16.38,14.17
				c9.65,2.05,20.3,0.04,30.01-0.7c11.07-0.85,22.14-1.7,33.22-2.54c5.21-0.4,10.42-0.8,15.63-1.2c4.9-0.38,8.83-0.2,12.1-4.31
				c4.71-5.93,3.89-13.81,4-20.89c0.1-6.59,0.35-12.24-6.97-14.39c-6-1.76-12.46-0.86-18.61-0.91c-25.23-0.2-50.48-1.14-75.7-1.71
				c-5.84-0.13-11.63,13.58-5.16,13.72c24.42,0.55,48.83,1.14,73.25,1.66c6.32,0.14,14.12-1.4,20.19,0.69
				c3.73,1.29,2.22,4.26,2.18,7.73c-0.02,2.08,0.01,4.17-0.04,6.25c-0.1,3.74-0.93,1.87,1.73-0.36c1.35-0.55,2.7-1.09,4.05-1.64
				c-19.87,1.52-39.73,3.04-59.6,4.56c-8.37,0.64-17.63,2.3-25.9,0.14c-3.56-0.93-6.86-2.72-8.87-5.89
				c-0.91-1.44-1.34-2.87-1.76-4.5c-0.38-1.46,0.52-1.56-0.36-0.79c2.44-2.13,4.86-6.35,3.73-9.69
				C526.27,1670.47,522.85,1671.13,520.7,1673.01L520.7,1673.01z"/>
		</g>
	</g>
	<g>
		<path class="st0" d="M925.95,1658.24c-5.45,6.6-3.33,13.42-1.07,24.27c1.95,9.4,17.48,7.45,27.07,7.82
			c32.39,1.22,60.59,0.33,92.93-1.86c-2.25-12.23-1.34-26.79,0-39.7c-39.78,1.34-79.56,2.68-119.34,4.02"/>
		<g>
			<path class="st1" d="M923.19,1654.34c-3.8,4.98-6.09,10.5-6.09,16.83c0,5.5,1.08,12.59,3.19,17.65
				c3.96,9.54,17.43,8.27,25.81,8.31c15.67,0.08,31.29,0.76,46.97,0.46c16.43-0.32,32.84-1.17,49.23-2.27
				c5.2-0.35,8.61-6.53,7.79-11.33c-2.06-12.02-1.18-24.5,0.05-36.56c0.18-1.78,0.11-5.62-2.68-5.53
				c-39.78,1.34-79.56,2.68-119.34,4.02c-3.51,0.12-6.2,3.3-7.33,6.42c-0.7,1.93-1.4,7.42,2.17,7.3
				c39.78-1.34,79.56-2.68,119.34-4.02c-0.89-1.84-1.79-3.68-2.68-5.53c-1.46,14.28-2.39,28.61,0.05,42.84
				c2.6-3.78,5.19-7.56,7.79-11.33c-27.68,1.85-55.4,2.86-83.14,2.17c-5.53-0.14-11.05-0.35-16.58-0.36
				c-4.18-0.01-8.84,0.18-12.88-1.11c-4.43-1.43-4.76-4.12-5.64-8.34c-0.66-3.15-2.73-8.92-0.51-11.83
				c1.78-2.32,4.02-6.78,1.89-9.56C928.52,1649.85,924.72,1652.35,923.19,1654.34L923.19,1654.34z"/>
		</g>
	</g>
</g>
<g id="Ebene_7">
	<g>
		<path class="st2" d="M411.45,455.64c6.86,65.7-2.19,136-4.39,202.82c-2.21,66.82,7.27,151.61,63.58,187.65
			c35.14,22.49,80.98,14.13,122.66,16.12c180.23,8.6,361.17,17.19,540.82,0.51c28.96-2.69,60.07-7.02,81.14-27.07
			c25.39-24.17,28.15-63.08,28.94-98.13c1.95-85.98,1.95-172.01,0.02-257.99c-1.31-58.18-6.51-123.12-49.82-161.98
			c-30-26.92-72.01-35.05-111.92-40.74c-116.98-16.66-235.64-21.47-353.58-14.33c-66.98,4.06-135.27,12.4-195.5,41.99
			c-60.23,29.59-111.73,84-122.1,150.3"/>
		<g>
			<path class="st3" d="M406.04,458.64c4.76,46.64,1.85,93.58-1.07,140.24c-2.46,39.31-5.51,78.84-1.97,118.18
				c2.99,33.3,10,67.4,27.12,96.52c8.04,13.68,18.57,25.92,31.39,35.33c15.58,11.45,34.17,16.91,53.22,18.9
				c20.34,2.13,40.83,0.86,61.22,0.93c23.08,0.08,46.2,1.85,69.24,2.91c48.57,2.25,97.14,4.31,145.74,5.69
				c97.39,2.77,194.96,2.82,292.2-3.86c22.31-1.53,44.75-2.96,66.93-5.9c18.84-2.5,38.2-6.86,54.41-17.25
				c33.78-21.65,42.51-61.59,44.53-99.08c2.5-46.46,2.01-93.27,2.06-139.78c0.05-47.95-0.21-95.95-1.68-143.87
				c-1.11-36.3-3.88-74.03-17.82-107.97c-6.74-16.41-16.06-31.74-28.77-44.23c-13.77-13.53-30.47-23.18-48.52-29.83
				c-18.72-6.89-38.34-10.89-58.01-13.97c-23.18-3.63-46.51-6.49-69.84-9.01c-47.97-5.19-96.15-8.4-144.38-9.62
				c-48.23-1.22-96.51-0.46-144.68,2.29c-44.32,2.53-88.84,6.57-132.04,17.23c-74.82,18.46-147.89,60.89-182.79,132.39
				c-7.92,16.22-13.63,33.37-16.5,51.21c-0.46,2.85,0.57,6.01,3.99,5.41c3.33-0.59,6.04-5.04,6.53-8.08
				c11.73-72.8,72.74-126.32,138.51-152.35c39.86-15.78,82.42-23.57,124.91-28.03c45.4-4.76,91.23-6.44,136.85-6.84
				c92.32-0.82,185.47,4.88,276.69,19.52c37.29,5.98,76.87,16.01,103.53,44.68c24.12,25.93,34.02,61.29,38.23,95.67
				c5.01,40.95,4.2,82.75,4.65,123.93c0.5,46.97,0.42,93.95-0.23,140.91c-0.31,22.1-0.32,44.27-1.51,66.35
				c-0.95,17.63-3.11,35.67-10.1,52.04c-15.53,36.35-55.95,43.19-91.14,46.53c-94.11,8.95-188.86,10.57-283.33,9.08
				c-46.95-0.74-93.89-2.3-140.81-4.23c-23.79-0.98-47.58-2.05-71.36-3.16c-22.02-1.03-44.08-2.63-66.13-2.49
				c-37.64,0.25-78.09,3.41-109.38-21.47c-24.97-19.86-38.32-50.62-45.52-80.94c-7.68-32.34-9.03-65.94-7.88-99.05
				c1.57-45.13,6.01-90.12,6.75-135.28c0.36-21.92-0.19-43.85-2.42-65.67C415.95,443.77,405.45,452.86,406.04,458.64L406.04,458.64z
				"/>
		</g>
	</g>
</g>
<g id="Ebene_6">
	<g>
		<path class="st4" d="M325.15,476.88c-30.11,16.52-56.57,40.85-71.89,71.59s-18.59,68.14-5.05,99.7s44.95,55.74,79.27,57.01
			c-24.02-71.62-24.77-150.85-2.11-222.91"/>
		<g>
			<path class="st5" d="M325.04,470.7c-37.66,20.86-70.42,53.7-83.88,95.34c-13.36,41.33-7.45,89.33,25.19,120.13
				c15.96,15.06,36.49,24.85,58.56,25.87c4.74,0.22,9.22-7.02,7.79-11.33c-23.35-70.22-24.6-147.27-2.56-218
				c0.77-2.49,1.34-6.74-2.17-7.3c-3.23-0.52-6.53,3.83-7.33,6.42c-23.04,73.94-22.81,154.26,1.66,227.83
				c2.6-3.78,5.19-7.56,7.79-11.33c-36.71-1.71-68.71-28.81-79.9-63.3c-12.59-38.81-0.74-80.97,24.95-111.61
				c13.91-16.58,31.26-29.89,50.14-40.35c3.02-1.68,5.48-5.68,5.3-9.19C330.39,470.69,327.95,469.09,325.04,470.7L325.04,470.7z"/>
		</g>
	</g>
	<g>
		<path class="st4" d="M1299.41,450.21c30.73,64.84,40.01,139.63,26.06,210.01c32.58,0.22,60.33-24.75,76.97-52.76
			c14.62-24.6,23.47-53.21,21.53-81.76c-4.96-73-61.29-80.64-119.7-78.76"/>
		<g>
			<path class="st5" d="M1294.76,455.87c29.98,63.7,38.95,136.62,25.45,205.68c-0.36,1.85,0,5.54,2.68,5.53
				c26.76-0.14,49.84-15.27,67.09-34.77c19.18-21.69,32.57-49.9,37.58-78.38c4.3-24.46,2.62-52.08-9.67-74.15
				c-9.12-16.37-24.67-27.27-42.27-32.94c-22.11-7.11-45.76-7.48-68.76-6.76c-5.83,0.18-11.48,13.92-5.16,13.72
				c33.24-1.03,75.83-1.01,99.47,26.62c13.36,15.6,17.8,36.93,17.66,57.02c-0.2,27.02-10.19,54.36-25.78,76.28
				c-15.12,21.27-37.78,39.49-64.99,39.63c0.89,1.84,1.79,3.68,2.68,5.53c14.11-72.21,4.66-147.79-26.66-214.34
				c-1.51-3.22-6.14,0.25-7.41,1.77C1294.41,448.96,1293.24,452.66,1294.76,455.87L1294.76,455.87z"/>
		</g>
	</g>
	<g>
		<path class="st4" d="M516.64,414.73c-5.59,55.13-11.17,110.25-16.76,165.38c-1.67,16.49-2.93,34.66,6.77,48.1
			c12.65,17.53,37.69,19.16,59.31,19.04c169.27-0.94,338.5-8.02,507.26-21.22c22.1-1.73,47.07-5.11,59.99-23.12
			c8.46-11.8,9.57-27.17,10.37-41.67c2.29-41.29,4.59-82.58,6.88-123.86c0.9-16.26,0.94-34.8-10.95-45.93
			c-10.19-9.53-25.58-10.12-39.53-10.11c-193.71,0.14-387.41,10.72-579.99,31.66"/>
		<g>
			<path class="st5" d="M511.39,416.07c-3.06,30.19-6.12,60.38-9.18,90.57c-2.91,28.68-6.7,57.43-8.58,86.2
				c-0.76,11.59-0.36,23.72,4.59,34.43c4.58,9.89,12.91,17.12,22.99,21.09c22.33,8.78,48.63,5.77,72.05,5.54
				c120.14-1.18,240.26-5.45,360.18-12.81c29.82-1.83,59.62-3.85,89.41-6.06c23.46-1.74,49.23-1.29,71.16-10.94
				c10.28-4.52,19.07-11.95,24.87-21.6c6.27-10.44,8.43-22.54,9.46-34.49c2.49-29.04,3.36-58.3,4.97-87.41
				c0.82-14.75,1.64-29.49,2.46-44.24c0.62-11.26,1.13-22.92-2.01-33.89c-2.89-10.08-9.3-18.71-19-23.1
				c-10.68-4.83-22.68-4.88-34.17-4.87c-59.5,0.04-119,1.12-178.47,3.15c-119.37,4.08-238.61,12.13-357.45,24.09
				c-14.47,1.46-28.94,2.97-43.4,4.54c-5.56,0.6-10.3,14.33-2.54,13.49c114.59-12.44,229.57-21.22,344.72-26.3
				c57.46-2.53,114.97-4.15,172.48-4.85c14.21-0.17,28.43-0.29,42.64-0.35c12.26-0.05,24.88-0.85,37.05,0.93
				c10.88,1.58,20.94,6.54,25.81,16.9c4.53,9.64,4.26,21.03,3.78,31.42c-1.27,27.84-3.08,55.67-4.63,83.5
				c-0.8,14.42-1.59,28.84-2.4,43.25c-0.62,11.02-1.04,23.24-6.7,33.04c-10.29,17.83-35.91,20.25-54.26,21.77
				c-28.25,2.33-56.55,4.27-84.84,6.14c-115.25,7.63-230.69,12.41-346.18,14.34c-27.76,0.46-55.6,1.22-83.37,0.84
				c-19.92-0.27-45.45-2.81-54.86-23.48c-4.8-10.55-4.21-22.86-3.22-34.12c1.21-13.82,2.78-27.61,4.18-41.41
				c2.93-28.88,5.85-57.75,8.78-86.63c1.4-13.78,2.79-27.56,4.19-41.35C522.89,403.64,512.04,409.56,511.39,416.07L511.39,416.07z"
				/>
		</g>
	</g>
	<g>
		<path class="st4" d="M341.06,1044.61c-15.22,16.56-30.45,33.11-45.67,49.67c20.13,27.5,40.9,55.61,69.45,74.23
			c11.94,7.79,25.96,13.91,40.08,11.96c14.12-1.95,27.43-14.49,25.9-28.66c-1.98-18.33-23.68-25.85-39.9-34.61
			c-25.64-13.84-44.05-40.31-48.09-69.17"/>
		<g>
			<path class="st5" d="M338.3,1040.71c-15.22,16.56-30.45,33.11-45.67,49.67c-1.96,2.13-3.85,6.89-1.89,9.56
				c14.86,20.3,29.91,40.67,48.46,57.8c17.08,15.77,40.38,33.42,65.13,29.36c20.26-3.32,38.53-26.43,29.78-46.84
				c-8.03-18.72-31.71-23.75-47.16-34.24c-21.07-14.3-35.18-37.34-38.92-62.45c-0.54-3.59-4.86-2.22-6.68-0.75
				c-2.85,2.3-4.26,6.14-3.73,9.69c2.98,20.04,12.41,39.07,26.55,53.59c7.09,7.28,15.16,13.44,24.14,18.21
				c7.89,4.19,16.17,7.74,23.61,12.74c6.56,4.4,13.2,10.7,13.6,19.13c0.4,8.58-7.78,14.57-15.26,16.69
				c-21.8,6.21-44.94-11.55-60.18-25.06c-19.39-17.19-34.8-38.4-50.03-59.2c-0.63,3.19-1.26,6.37-1.89,9.56
				c15.22-16.56,30.45-33.11,45.67-49.67c1.95-2.12,3.91-6.93,1.89-9.56C343.53,1036.09,339.97,1038.9,338.3,1040.71L338.3,1040.71z
				"/>
		</g>
	</g>
	<g>
		<path class="st4" d="M230.77,1178.06c-25.65,38.19-65.22,96.3-61.73,113.49c4.11,20.25,120.72,61.02,184.74,73.75
			c12.41-35.89,24.82-71.79,37.22-107.68c-61.53-8.04-120.31-35.92-165.47-78.48"/>
		<g>
			<path class="st5" d="M226.87,1175.81c-15.71,23.38-31.69,46.69-45.61,71.2c-5.6,9.86-11.18,20.07-14.89,30.83
				c-2.21,6.44-4.78,14.76-1.33,21.22c2.71,5.07,8.09,8.76,12.77,11.85c7.57,4.99,15.75,9.06,23.96,12.89
				c22.3,10.39,45.56,18.8,68.92,26.45c26.41,8.65,53.24,16.45,80.51,21.91c3.25,0.65,6.49-3.97,7.33-6.42
				c12.41-35.89,24.82-71.79,37.22-107.68c0.82-2.38,1.34-6.83-2.17-7.3c-60.76-8.12-118.63-35.34-163.39-77.28
				c-5.05-4.73-13.42,7.47-9.3,11.33c46.09,43.18,104.89,71.3,167.54,79.68c-0.72-2.43-1.45-4.87-2.17-7.3
				c-12.41,35.89-24.82,71.79-37.22,107.68c2.44-2.14,4.89-4.28,7.33-6.42c-46.24-9.26-92.3-23.98-135.64-42.53
				c-9.08-3.89-18.09-8.02-26.74-12.8c-5.67-3.13-12.04-6.72-16.47-11.19c-0.75-0.76-1.44-1.56-2.08-2.41
				c-0.3-0.4-0.57-0.82-0.81-1.25c-0.44-0.78,0.22,0.72-0.15-0.35c-0.13-0.38-0.27-1.23-0.18-0.37c-0.07-0.65-0.08-1.33-0.05-1.98
				c0.01-0.21-0.04,0.1,0.11-0.9c0.15-0.96,0.35-1.92,0.59-2.87c2.01-8.11,7.15-17.67,11.51-25.61
				c14.41-26.26,31.52-51.01,48.21-75.86c1.45-2.16,2.69-7.1-0.15-8.75C231.46,1169.8,228.28,1173.72,226.87,1175.81L226.87,1175.81
				z"/>
		</g>
	</g>
	<g>
		<path class="st4" d="M131.22,1395.01c-14.31,37.48-10.76,82.02,11.87,115.15s64.58,52.87,104.17,46.32
			c39.58-6.55,73.79-40.64,77.76-80.57c0.71-7.14,0.34-14.95-4.09-20.6c-6.85-8.76-19.82-8.66-30.94-8.52
			c-57.42,0.71-114.86-19.68-158.99-56.42"/>
		<g>
			<path class="st5" d="M126.46,1394.56c-14.58,38.94-12.16,84.76,11.08,119.93c21.06,31.88,59.91,52.52,98.31,49.87
				c37.98-2.62,71.6-27.86,87.01-62.36c3.67-8.22,6.21-17.08,7.27-26.03c1.12-9.44,1.14-20.55-5.9-27.87
				c-6.35-6.61-15.78-7.98-24.53-8.19c-10.48-0.25-20.87,0-31.33-0.94c-48.9-4.4-95.78-23.85-133.6-55.11
				c-4.46-3.69-12.39,8.95-7.5,12.99c30.67,25.36,67.33,42.9,106.22,51.31c19.27,4.17,38.52,5.41,58.18,5.45
				c7.94,0.02,17.83,0.13,23.74,6.31c6.22,6.51,4.82,16.96,3.22,24.99c-6.49,32.6-35.3,57.93-67.3,64.31
				c-34.77,6.93-72.12-8.09-95.34-34.2c-28.62-32.17-34.89-79.81-20-119.57c0.92-2.45,1.24-6.76-2.17-7.3
				C130.46,1387.61,127.42,1392,126.46,1394.56L126.46,1394.56z"/>
		</g>
	</g>
	<g>
		<path class="st4" d="M1179.83,1103.54c-7.04,13.28,7.27,29.73,22.26,30.74c14.99,1.01,28.68-7.79,41.12-16.22
			c21.2-14.38,42.4-28.77,63.61-43.15c-16.88-31.18-40.14-58.88-67.93-80.9c-8.84,39.88-30.94,76.69-61.98,103.24"/>
		<g>
			<path class="st5" d="M1175.93,1101.29c-5.66,11.8-3.35,23.96,6.66,32.6c10.96,9.46,25.42,8.5,38.13,3.29
				c14.93-6.12,28.07-16.65,41.34-25.66c14.95-10.14,29.9-20.29,44.85-30.43c3.54-2.4,6.89-7.56,4.55-11.85
				c-17.24-31.6-40.7-59.3-68.84-81.73c-3.91-3.12-8.43,5.27-9.01,7.83c-8.49,37.54-29.08,71.56-58.2,96.69
				c-2.45,2.11-4.85,6.37-3.73,9.69c1.11,3.3,4.52,2.61,6.68,0.75c33.03-28.5,56.15-67.27,65.77-109.8c-3,2.61-6.01,5.22-9.01,7.83
				c27.48,21.91,50.21,49.22,67.03,80.07c1.52-3.95,3.03-7.9,4.55-11.85c-24.17,16.4-47.92,33.88-72.81,49.16
				c-9.89,6.08-22.71,12.46-34.57,8.51c-4.67-1.55-8.99-4.68-11.98-8.55c-2.19-2.83-5.43-8.29-3.62-12.06
				c1.13-2.35,2.92-6.98-0.15-8.75C1180.75,1095.42,1177.02,1099.02,1175.93,1101.29L1175.93,1101.29z"/>
		</g>
	</g>
	<g>
		<path class="st4" d="M1229.44,1239.48c6.22,24.22,12.43,48.44,18.65,72.66c1.22,4.76,2.69,9.9,6.66,12.8
			c5.01,3.66,11.96,2.35,17.95,0.71c52.6-14.4,101.52-42.01,141.02-79.6c-17.82-33.08-35.64-66.16-53.46-99.24
			c-43.54,28.86-87.08,57.73-130.63,86.59"/>
		<g>
			<path class="st5" d="M1224.23,1243.95c5.23,20.4,10.47,40.79,15.7,61.19c2.02,7.88,3.06,18.44,9.04,24.53
				c5.78,5.89,14.41,4.82,21.69,2.92c34.31-8.91,67.42-24.27,96.98-43.72c16.92-11.13,32.83-23.69,47.54-37.61
				c2.76-2.62,5.2-7.14,3.18-10.89c-17.82-33.08-35.64-66.16-53.46-99.24c-0.89-1.66-3.46-1.38-4.76-0.52
				c-43.54,28.86-87.08,57.73-130.62,86.59c-2.94,1.95-5.49,5.49-5.3,9.19c0.15,2.96,2.67,5.06,5.51,3.18
				c43.54-28.86,87.08-57.73,130.63-86.59c-1.59-0.17-3.17-0.35-4.76-0.52c17.82,33.08,35.64,66.16,53.46,99.24
				c1.06-3.63,2.12-7.26,3.18-10.89c-24.14,22.85-51.53,41.94-81.39,56.58c-14.7,7.21-29.93,13.29-45.56,18.18
				c-6.82,2.13-16.98,6.83-24.14,4.3c-7.52-2.66-8.39-14.27-10.07-20.82c-5.48-21.35-10.96-42.71-16.44-64.06
				c-0.88-3.44-4.64-2.4-6.68-0.75C1225.35,1236.37,1223.36,1240.57,1224.23,1243.95L1224.23,1243.95z"/>
		</g>
	</g>
	<g>
		<path class="st4" d="M1292.97,1423.9c1.22,35.29,22.27,69.63,53.96,85.2c31.69,15.58,72.74,10.78,98.91-12.92
			c22.47-20.36,32.55-51.93,31.89-82.25c-0.65-30.32-10.97-59.66-23.98-87.05c-52.29,34.75-107.26,65.45-164.26,91.75"/>
		<g>
			<path class="st5" d="M1287.57,1426.9c2.19,51.83,43.1,98.15,96.58,98.08c25.98-0.03,50.95-10.29,68.86-29.2
				c18.8-19.84,28.21-47.1,29.92-74.03c2.23-35.1-9.74-69.27-24.51-100.54c-0.8-1.7-3.53-1.33-4.76-0.52
				c-52.33,34.72-107.26,65.4-164.26,91.75c-5.24,2.42-7.88,16.11,0.21,12.37c57-26.35,111.93-57.03,164.26-91.75
				c-1.59-0.17-3.17-0.35-4.76-0.52c21.12,44.72,37.78,105.04,4.34,148.48c-29.16,37.88-87.37,39.02-122.21,8.62
				c-19.67-17.16-31.75-42.72-32.85-68.74c-0.14-3.26-2.65-4.6-5.51-3.18C1289.84,1419.22,1287.42,1423.54,1287.57,1426.9
				L1287.57,1426.9z"/>
		</g>
	</g>
	<g>
		<path class="st4" d="M925.14,1609.01c-4.47,12.59-3.91,26.5,3.25,32.76c9.6,8.39,24.25,7.46,36.84,5.43
			c12.59-2.02,25.22-5.67,37.88-4.11c10.59,1.3,21.8,6.11,31.38,1.42c7.24-3.55,11.18-11.84,11.75-19.88
			c0.57-8.04-1.65-15.99-3.85-23.74c-38.77,0.24-77.54,0.48-116.31,0.71"/>
		<g>
			<path class="st5" d="M920.38,1608.57c-3.76,11.15-6.5,27.13,1.7,37.15c8.14,9.95,22.73,10.4,34.43,9.22
				c15.86-1.6,31.31-7.27,47.38-4.47c7.41,1.29,14.68,3.53,22.28,2.68c6.81-0.76,12.69-4.3,17.06-9.51
				c11.54-13.76,8.87-31.29,4.36-47.22c-0.31-1.1-1.34-2.4-2.62-2.39c-38.77,0.24-77.54,0.48-116.31,0.71
				c-5.84,0.04-11.56,13.76-5.16,13.72c38.77-0.24,77.54-0.48,116.31-0.71c-0.88-0.8-1.75-1.59-2.62-2.39
				c3.03,10.72,9.33,32.31-7.67,34.23c-7.39,0.84-14.93-2.05-22.15-3.12c-7.94-1.18-15.97-0.4-23.85,0.9
				c-13.58,2.25-28.77,7.11-42.47,2.88c-14.16-4.37-15.34-18.4-11.16-30.79c0.83-2.47,1.29-6.75-2.17-7.3
				C924.45,1601.63,921.25,1605.99,920.38,1608.57L920.38,1608.57z"/>
		</g>
	</g>
	<g>
		<path class="st4" d="M931.65,1706.52c-8.95,5.15-3.54,20.47,6.25,23.75c9.79,3.28,20.31-0.73,30.3-3.3
			c23.56-6.06,49.15-3.89,71.34,6.06c0.83-13.73,1.65-27.45,2.48-41.18c-37.84,1.97-75.69,3.95-113.53,5.92"/>
		<g>
			<path class="st5" d="M931.54,1700.33c-8.9,5.8-12.3,16.83-7.68,26.5c5.41,11.32,17.5,12.7,28.74,10.56
				c7.12-1.36,13.98-3.84,21.11-5.18c6.98-1.31,14.06-1.87,21.15-1.72c14.13,0.31,27.99,3.37,40.93,9.04
				c5.11,2.24,8.92-5.56,9.16-9.5c0.83-13.73,1.65-27.45,2.48-41.18c0.09-1.52-0.95-3.96-2.83-3.86
				c-37.84,1.97-75.69,3.95-113.53,5.92c-3.52,0.18-6.18,3.26-7.33,6.42c-0.68,1.88-1.4,7.49,2.17,7.3
				c37.84-1.97,75.69-3.95,113.53-5.92c-0.94-1.29-1.88-2.57-2.83-3.86c-0.83,13.73-1.65,27.45-2.48,41.18
				c3.05-3.17,6.1-6.33,9.16-9.5c-20.54-9-43.2-11.92-65.33-8.13c-10.99,1.88-22.71,7.89-34,5.87c-4.25-0.76-7.61-3.03-9.77-6.78
				c-0.78-1.36-1.07-2.77-1.58-4.23c-0.82-2.34,0.87-1.69-0.86-0.56c2.95-1.92,5.49-5.51,5.3-9.19
				C936.9,1700.53,934.39,1698.48,931.54,1700.33L931.54,1700.33z"/>
		</g>
	</g>
	<g>
		<path class="st4" d="M527.27,1631.46c-10.58,6.23-8.33,23.59,1.18,31.37c14.92,12.2,60.75,4.35,82.71,1.95
			c16.25-1.78,9-23.2,10.48-41.56c-30.69-0.49-61.37-0.99-92.06-1.48"/>
		<g>
			<path class="st5" d="M527.16,1625.27c-12.06,7.81-15.5,23.6-8.91,36.18c5.61,10.72,17.16,13.61,28.38,14.53
				c13.71,1.12,27.62-0.29,41.24-1.82c6.22-0.7,12.43-1.52,18.64-2.26c5.99-0.71,11.05-2.12,15.04-7
				c9.94-12.14,4.5-30.45,5.48-44.69c0.11-1.62-0.96-3.83-2.83-3.86c-30.69-0.49-61.37-0.99-92.06-1.48
				c-5.84-0.09-11.62,13.62-5.16,13.72c30.69,0.49,61.37,0.99,92.06,1.48c-0.94-1.29-1.88-2.57-2.83-3.86
				c-0.5,7.2,0.18,14.35,0.34,21.55c0.06,2.82,0.26,5.88-0.47,8.64c-0.26,0.98,0.36,0.92-1.46,1.23
				c-12.12,2.04-24.58,3.33-36.83,4.28c-12.28,0.95-26.01,2.02-37.98-1.66c-5.21-1.6-9.46-4.65-12-9.58
				c-1.54-2.99-4.21-10.59-0.46-13.02c2.95-1.91,5.49-5.52,5.3-9.19C532.52,1625.46,530.01,1623.43,527.16,1625.27L527.16,1625.27z"
				/>
		</g>
	</g>
	<g>
		<path class="st4" d="M522.62,1714.39c-1.66,10-3.32,20.01-4.99,30.01c33.12-4.78,67.13-3.34,99.73,4.23
			c6.09-14.85-1.91-36.73-7.99-38.14c-13.99-3.25-25.1-0.31-40.11,1.94s-35.28-0.86-49.25-6.77"/>
		<g>
			<path class="st5" d="M517.37,1715.72c-1.66,10-3.32,20.01-4.99,30.01c-0.49,2.94,0.52,5.9,3.99,5.41
				c32.79-4.62,66.16-3.03,98.42,4.35c3.27,0.75,6.44-4.06,7.33-6.42c4-10.56,3.65-22.76-0.34-33.3c-1.4-3.71-3.24-8.06-6.51-10.54
				c-3.91-2.96-10.26-2.96-14.98-3.05c-13.14-0.25-25.83,4.08-38.92,4.11c-12.74,0.03-25.81-2.29-37.6-7.14
				c-5.82-2.39-12.96,10.74-7.5,12.99c10.39,4.27,21.54,6.78,32.74,7.61c11.81,0.87,22.96-1.45,34.59-3.05
				c5.73-0.79,11.49-1.09,17.25-0.4c4.35,0.52,6.42,0.78,8.68,4.53c4.59,7.62,6.25,18.99,3.09,27.35c2.44-2.14,4.89-4.28,7.33-6.42
				c-33.19-7.59-67.34-8.86-101.04-4.11c1.33,1.8,2.66,3.61,3.99,5.41c1.66-10,3.32-20.01,4.99-30.01c0.47-2.85-0.58-6.01-3.99-5.41
				C520.55,1708.23,517.87,1712.68,517.37,1715.72L517.37,1715.72z"/>
		</g>
	</g>
</g>
<g id="Ebene_3">
	<g>
		<path d="M553.22,437.65c-1.22,30.24-15.09,102.45-7.37,166.28c2.14,17.74,568.89,0.41,568.89-30.47
			c0-59.35,17.89-108.93-11.11-143.99c-23.47-28.38-358.21,0.32-549.23,7.06"/>
		<g>
			<path d="M546.72,441.25c-0.65,14.94-2.84,29.83-4.47,44.68c-2.28,20.91-4.22,41.87-4.94,62.9c-0.39,11.41-0.43,22.84,0.07,34.25
				c0.23,5.27,0.57,10.53,1.04,15.78c0.3,3.37,0.19,7.46,1.22,10.69c1.02,3.19,4.11,4.1,7.01,4.89c8.35,2.27,17.39,2.57,25.98,3.11
				c15.32,0.96,30.68,1.32,46.03,1.54c44.38,0.64,88.79-0.1,133.15-1.29c50.79-1.36,101.56-3.46,152.28-6.45
				c44.59-2.63,89.23-5.75,133.6-10.97c15.35-1.81,30.72-3.82,45.89-6.82c9.09-1.8,19.07-3.63,27.26-8.2
				c4.24-2.36,7.81-5.97,9.47-10.61c0.65-1.81,0.8-3,0.9-4.9c0.31-5.82,0.17-11.68,0.47-17.51c0.56-10.93,1.57-21.83,2.58-32.73
				c1.7-18.48,3.72-37.28,1.4-55.79c-1.83-14.6-6.55-31.23-17.25-41.99c-3.63-3.65-8.73-5.18-13.58-6.5
				c-6.85-1.88-13.96-2.84-21.01-3.62c-22.02-2.44-44.3-2.73-66.43-2.78c-64.76-0.16-129.54,3.15-194.19,6.46
				c-70.3,3.6-140.57,7.85-210.89,11.05c-14.94,0.68-29.89,1.31-44.84,1.84c-4.24,0.15-7.42,3.97-8.81,7.71
				c-0.86,2.31-1.67,8.93,2.61,8.78c66.56-2.36,133.06-6.32,199.56-9.92c67.27-3.64,134.57-7.32,201.93-8.87
				c26.58-0.61,53.2-0.93,79.78-0.06c17.44,0.57,35.38,1.17,52.47,5c1.36,0.3,2.7,0.65,4.04,1.01c0.35,0.09,2.28,0.71,0.81,0.22
				c0.61,0.2,1.23,0.4,1.84,0.64c1.93,0.75,3.66,1.64,5.43,2.7c0.36,0.22,0.68,0.52,1.01,0.79c-0.61-0.5-0.86-0.93-0.26-0.18
				c2.54,3.17,4.89,6.43,6.88,9.98c3.94,7.03,6.24,14.89,7.58,22.8c2.98,17.69,0.92,36.21-0.71,53.93
				c-0.97,10.53-1.98,21.05-2.64,31.6c-0.32,5.18-0.57,10.37-0.68,15.57c-0.04,1.79,0.6,5.61-0.08,7.13
				c0.8-1.78-0.16-1.18,0.64-3.33c0.11-0.29,1.69-2.94,1.71-2.97c-0.84,1.04,2.17-1.94,0.32-0.43c-0.2,0.16,2.02-1.07,0.07-0.11
				c-0.67,0.33-1.33,0.7-2,1.03c-0.3,0.15-0.62,0.26-0.91,0.41c-1.42,0.7,1.71-0.61,0.16-0.06c-0.89,0.32-1.77,0.66-2.66,0.96
				c-2.1,0.71-4.23,1.32-6.38,1.89c-12.4,3.28-25.17,5.22-37.85,7.01c-39.82,5.62-80.02,8.69-120.13,11.39
				c-49.57,3.34-99.21,5.68-148.87,7.35c-46.14,1.56-92.32,2.58-138.49,2.54c-29.87-0.03-60.22,0.39-89.95-3
				c-3.53-0.4-6.99-0.97-10.45-1.71c-1.68-0.36-0.2,0-0.36-0.08c-0.36-0.17-0.89-0.44-1.28-0.52c-2.58-0.53,1.39-0.03,0.34,1.2
				c0.21-0.25-0.36-3.51-0.37-3.58c-0.27-2.61-0.5-5.23-0.7-7.85c-0.45-5.85-0.74-11.71-0.9-17.58c-0.29-10.8-0.14-21.62,0.31-32.41
				c0.84-20.16,2.81-40.24,5.05-60.29c1.59-14.28,3.56-28.59,4.19-42.95c0.17-3.98-3.42-5.47-6.62-3.82
				C549.2,432.21,546.9,437.06,546.72,441.25L546.72,441.25z"/>
		</g>
	</g>
	<g>
		<g>
			<path d="M512.23,413.14c-5.03,48.99-10.32,97.98-14.57,147.05c-1.75,20.17-4.41,41.13-2.63,61.41c0.76,8.7,2.84,16.53,8.65,23.21
				c6.23,7.17,18.11,7.37,26.9,8.28c20.08,2.07,40.35,2.48,60.52,2.77c28.82,0.43,57.64,0.16,86.45-0.38
				c33.85-0.63,67.69-1.69,101.53-3.03c35.26-1.4,70.5-3.11,105.73-5.16c33.05-1.92,66.08-4.12,99.07-6.78
				c27.4-2.21,54.8-4.67,82.11-7.92c17.93-2.13,36.07-4.26,53.65-8.49c4.83-1.16,10.03-2.45,14.39-4.93
				c7.21-4.11,10.5-12.32,12.7-19.92c3.76-12.99,5.46-26.52,6.85-39.94c1.84-17.9,2.9-35.87,3.45-53.85
				c1.01-33.29,1.2-67.33-3.9-100.33c-1.16-7.47-2.3-18.08-7.79-23.87c-3.5-3.69-9.82-4.33-14.58-5.05
				c-21.25-3.22-43.21-3-64.64-3.13c-34.92-0.22-69.84,0.59-104.74,1.66c-42.53,1.3-85.04,3.12-127.53,5.21
				c-44.42,2.19-88.82,4.7-133.2,7.5c-40.6,2.56-81.19,5.36-121.75,8.53c-16.55,1.29-33.09,2.65-49.62,4.11
				c-4.27,0.38-7.36,3.81-8.81,7.71c-0.8,2.14-1.68,9.16,2.61,8.78c36.07-3.19,72.18-5.92,108.3-8.45
				c42.33-2.96,84.67-5.62,127.03-8.02c43.56-2.47,87.13-4.66,130.72-6.48c38.95-1.62,77.92-2.97,116.91-3.67
				c29.3-0.53,58.66-0.87,87.95,0.31c9.19,0.37,18.42,0.84,27.55,2c3.04,0.39,6.09,0.83,9.07,1.56c0.54,0.13,1.07,0.28,1.6,0.42
				c0.62,0.17-1.15-0.57,0.31,0.12c0.69,0.32,1.41,0.72,2.11,1.01c0.96,0.39,0.15,0.22-0.32-0.39c0.37,0.48,0.79,0.9,1.11,1.42
				c0.36,0.6,0.69,1.2,1.01,1.82c-0.8-1.57,0.3,0.84,0.51,1.43c1.64,4.55,2.57,9.37,3.36,14.13c2.19,13.11,3.08,28.28,3.62,42.42
				c1.33,34.69,0.63,70.1-2.77,104.41c-1.29,13.03-2.89,26.15-6.2,38.84c-0.15,0.56,0.51-1.62-0.01,0.02
				c-0.16,0.5-0.31,1.01-0.47,1.51c-0.33,1-0.69,1.98-1.06,2.96c-0.15,0.4-0.39,0.8-0.5,1.21c-0.37,1.34,1.08-1.81,0.34-0.72
				c-0.17,0.24-0.45,0.68-0.53,0.97c-0.22,0.86-1.24,0.86-0.03,0.13c0.91-0.56,0.57-0.78,0.04-0.16c-0.58,0.68,1.82-1.77,1.05-1.08
				c-1.07,0.97,0.15-0.29,0.84-0.53c-0.64,0.22-1.37,0.76-1.97,1.09c-2.12,1.18,1.24-0.31-1.14,0.46c-1.08,0.35-2.15,0.73-3.24,1.05
				c-2.73,0.81-5.5,1.49-8.29,2.11c-7.78,1.73-15.65,3.03-23.52,4.22c-23.14,3.49-46.45,5.9-69.74,8.1
				c-30.04,2.83-60.14,5.1-90.25,7.12c-34.17,2.29-68.36,4.23-102.56,5.87c-34.26,1.65-68.53,3-102.82,4.01
				c-31.24,0.92-62.49,1.57-93.75,1.7c-24.49,0.11-49-0.02-73.46-1.1c-14.36-0.64-29.53-0.87-43.56-4.41
				c-0.47-0.12-0.94-0.26-1.41-0.38c-1.54-0.39,1.06,0.45-0.15-0.05c-0.69-0.29-1.39-0.55-2.07-0.86c-0.42-0.19-1.96-1.32-0.91-0.46
				c1.07,0.87-0.62-0.76-0.97-1.17c-1.01-1.17-1.99-2.37-2.85-3.65c-0.42-0.63-0.78-1.3-1.18-1.95c-0.2-0.32-0.34-0.67-0.51-1
				c0.08,0.15,0.53,1.47,0.07,0.1c-0.6-1.82-1.23-3.57-1.62-5.45c-0.23-1.08-0.61-4.1-0.36-1.86c-0.15-1.31-0.3-2.61-0.4-3.92
				c-0.58-7.68-0.31-15.43,0.04-23.11c1.5-32.44,5.14-64.81,8.38-97.11c2.78-27.75,5.64-55.49,8.49-83.23
				c0.35-3.38-0.54-7.28-4.79-6.5C516.23,404.13,512.6,409.49,512.23,413.14L512.23,413.14z"/>
		</g>
	</g>
	<g>
		<path class="st6" d="M819.15,594.73c3.72-52.53,55.28-111.17,110.16-115.45c54.88-4.28,111.21,50.54,123.79,101.81"/>
		<g>
			<path d="M825.65,591.13c3.14-40.08,33.98-77.64,69.31-94.73c18.8-9.09,39.52-11.46,59.74-6.08
				c21.11,5.61,40.44,18.74,55.62,34.17c16.94,17.21,30.57,38.41,36.52,61.97c1.03,4.09,5.61,2.94,8.02,0.9
				c3.11-2.63,5.53-7.51,4.49-11.65c-11.47-45.41-49.99-87.35-95.03-100.91c-46.91-14.12-93.51,13.57-121.63,50.09
				c-16.39,21.28-27.94,46.48-30.05,73.44c-0.31,4,3.51,5.42,6.62,3.82C823.28,600.11,825.32,595.36,825.65,591.13L825.65,591.13z"
				/>
		</g>
	</g>
	<g>
		<g>
			<path d="M401.73,521.22c-0.01,43.26-0.96,86.52-1.3,129.78c-0.28,35.77-1.66,71.88,6.34,107c6.66,29.22,19.28,58.28,40.44,79.95
				c11.38,11.65,25.36,22.77,41.42,26.89c20.61,5.29,42.38,7.09,63.47,9.32c36.05,3.8,72.23,6.49,108.41,8.71
				c44.83,2.75,89.71,4.68,134.61,5.84c47.35,1.22,94.73,1.59,142.08,0.71c43.88-0.82,87.78-2.68,131.49-6.74
				c33.91-3.15,68.2-7.26,101.13-16.25c21.24-5.8,45.5-13.85,58.4-32.99c7.16-10.63,11.18-23.21,14.57-35.45
				c4.49-16.22,7.41-32.87,9.72-49.53c6.2-44.58,8.28-89.78,8.47-134.75c0.2-48.51-1.97-97.13-7.51-145.33
				c-4.53-39.38-10.44-79.86-24.42-117.16c-4.68-12.5-10.35-25.4-19.14-35.62c-6.72-7.81-15.46-13.01-24.75-17.24
				c-29.32-13.36-62.1-19.9-93.64-25.53c-45.32-8.09-91.25-12.86-137.18-15.78c-52.15-3.31-104.49-4.08-156.71-2.06
				c-51.44,1.99-102.97,6.56-153.66,15.77c-43.07,7.83-86.34,18.9-125.89,38.07c-48.21,23.38-86.34,62.71-103.6,114.02
				c-10.25,30.49-13.39,62.81-12.3,94.84c0.13,3.89,3.21,5.57,6.62,3.82c3.66-1.88,6.51-6.94,6.37-11.04
				c-1.07-31.46,1.88-63.39,13.04-93.03c10.13-26.91,27.15-50.3,49.44-68.44c14.15-11.52,31.32-21.28,49.05-29.22
				c18.63-8.33,38.11-14.75,57.78-20.15c46.21-12.68,93.95-19.71,141.62-24.03c51.55-4.67,103.42-5.97,155.15-4.89
				c48.87,1.02,97.75,4.18,146.28,10.05c38.43,4.65,77.05,10.67,114.38,21.14c12.32,3.46,24.74,7.48,36.56,13.14
				c4.39,2.1,8.69,4.43,12.67,7.24c4.19,2.97,5.98,4.74,9.47,9.22c8.37,10.75,13.09,22.24,17.53,34.87
				c6,17.1,10.23,34.8,13.71,52.57c8.62,44.04,12.61,88.98,14.69,133.76c2.19,47.14,2.05,94.47-1.01,141.58
				c-1.31,20.24-3.19,40.22-6.1,60.38c-1.26,8.74-2.72,17.46-4.47,26.12c-0.78,3.84-1.61,7.67-2.53,11.48
				c-0.43,1.79-0.88,3.58-1.34,5.37c-0.2,0.76-0.4,1.51-0.6,2.27c-0.64,2.41,0.25-0.72-0.46,1.63c-1.76,5.91-3.69,11.77-6.16,17.42
				c-0.27,0.62-0.55,1.23-0.83,1.84c-0.52,1.17,1.03-1.96-0.02,0.02c-0.61,1.15-1.19,2.31-1.84,3.44c-0.53,0.93-1.12,1.81-1.67,2.73
				c-1.11,1.86,1.14-1.39,0.23-0.32c-0.37,0.44-0.68,0.93-1.04,1.38c-0.6,0.75-1.28,1.43-1.88,2.17c1.78-2.16,0.07-0.09-0.87,0.74
				c-0.69,0.62-1.41,1.21-2.14,1.79c-0.4,0.32-0.82,0.62-1.22,0.94c-1.69,1.35,0.81-0.5-0.13,0.11c-4.04,2.65-8.21,4.99-12.6,7.02
				c-1.13,0.52-2.26,1.01-3.4,1.51c-0.49,0.21-2.15,0.89-0.72,0.31c-0.73,0.3-1.46,0.58-2.2,0.87c-2.84,1.1-5.7,2.11-8.59,3.06
				c-6.23,2.06-12.56,3.82-18.92,5.4c-15.37,3.82-31,6.59-46.66,8.88c-38.92,5.7-78.24,8.45-117.51,10.22
				c-45.58,2.05-91.23,2.56-136.85,2.2c-46.09-0.36-92.18-1.65-138.23-3.73c-40.3-1.82-80.58-4.22-120.79-7.5
				c-28.79-2.34-57.63-4.94-86.22-9.13c-8.26-1.21-16.58-2.48-24.68-4.53c-0.63-0.16-1.27-0.34-1.9-0.5
				c-1.11-0.29-1.91-0.61-0.7-0.19c-0.93-0.32-1.86-0.64-2.77-1.03c-12.47-5.37-23.98-14.44-33.2-24.31
				c-20.27-21.7-31.93-49.82-38.01-78.56c-7.34-34.7-5.38-70.73-5.06-105.96c0.37-41.29,1.24-82.57,1.25-123.86
				c0-3.93-3.3-5.53-6.62-3.82C404.34,512.11,401.74,517.08,401.73,521.22L401.73,521.22z"/>
		</g>
	</g>
	<g>
		<g>
			<path d="M409.91,464.92c-36.81,0.06-75.46,3.7-108.77,20.59c-31.23,15.83-52.55,43.87-60.84,77.74
				c-4.3,17.54-4.88,35.96-4.46,53.95c0.32,13.63,1.54,27.55,5.38,40.69c6.4,21.89,21.1,38.21,42.5,46.26
				c15.23,5.73,31.53,8.04,47.68,9.18c22.79,1.6,45.71,0.93,68.5-0.2c4.25-0.21,7.4-3.92,8.81-7.71c0.84-2.26,1.67-8.99-2.61-8.78
				c-33.77,1.67-69.5,3.49-102.62-4.79c-19.84-4.96-37.56-15.8-46.03-34.43c-4.63-10.19-6.78-21.49-7.8-32.58
				c-1.4-15.15-1.53-30.9,0.05-46.04c3.21-30.73,16.01-56.76,42.31-73.16c32.79-20.44,73.95-24.17,111.69-24.23
				C410.73,481.4,417.62,464.91,409.91,464.92L409.91,464.92z"/>
		</g>
	</g>
	<g>
		<g>
			<path d="M329.58,478.21c-28.36,55.96-33.97,124.81-19.86,185.57c3.86,16.63,9.57,32.75,17.32,47.97
				c1.93,3.78,7.33-0.21,8.91-2.13c2.59-3.13,4.21-7.68,2.27-11.49c-12.96-25.42-19.47-54.1-21.72-82.42
				c-2.36-29.82-0.23-60.02,6.87-89.1c3.61-14.8,8.67-29.4,15.57-43c1.44-2.85,3.42-8.32-0.18-10.51
				C335.38,471.05,330.92,475.57,329.58,478.21L329.58,478.21z"/>
		</g>
	</g>
	<g>
		<g>
			<path d="M205.46,607.02c11.33-0.64,22.39-3.41,33.7-4.05c4.25-0.24,7.4-3.91,8.81-7.71c0.83-2.24,1.67-9.02-2.61-8.78
				c-11.33,0.64-22.39,3.41-33.7,4.05c-4.25,0.24-7.4,3.91-8.81,7.71C202.01,600.49,201.17,607.27,205.46,607.02L205.46,607.02z"/>
		</g>
	</g>
	<g>
		<path class="st7" d="M208.56,598.78c0-53.77-54.49-53.77-54.49-9.2c0,77.07,59.47,56.7,54.49,12.39"/>
		<g>
			<path d="M215.06,595.17c-0.16-18.3-6.82-40.37-26.75-45.45c-17.38-4.43-32.66,10.09-37.88,25.49
				c-3.89,11.47-3.29,23.99-1.62,35.83c1.34,9.47,3.95,19.33,9.68,27.17c8.2,11.21,21.95,14.43,34.14,7.65
				c16.36-9.1,24.28-29.49,22.43-47.5c-1.09-10.65-13.71,0.27-13,7.21c0.18,1.76,0.3,3.53,0.3,5.3c0,1.67-0.11,3.07-0.22,3.84
				c-0.58,4.05-0.67,4.11-2.01,7.58c-0.15,0.39-0.74,1.62,0.12-0.16c-0.31,0.65-0.65,1.28-1.01,1.91c-0.35,0.62-0.72,1.21-1.1,1.81
				c1.27-2.01,0.06-0.09-0.24,0.27c-0.31,0.37-2.67,2.97-1.11,1.42c-1.07,1.06-2.21,2.06-3.43,2.93c1.51-1.07-1.16,0.61-1.53,0.81
				c-1.82,1.02-0.72,0.51-2.24,0.96c-2.76,0.81-3.6,0.96-5.94,0.81c-4.28-0.27-8.17-2.13-11.34-5.3
				c-10.8-10.82-12.96-30.99-11.63-45.34c0.35-3.75,0.91-6.03,2.32-9.12c-0.86,1.88,2.46-3.64,0.99-1.69
				c0.48-0.63,0.98-1.25,1.51-1.84c-1.18,1.3,0.64-0.57,0.93-0.81c0.97-0.8,3.54-2.3,5.29-2.77c2.74-0.75,4.65-0.9,7.56-0.52
				c17.09,2.24,22.65,22.19,22.78,36.72c0.03,3.92,3.28,5.54,6.62,3.82C212.42,604.29,215.09,599.3,215.06,595.17L215.06,595.17z"/>
		</g>
	</g>
	<g>
		<path class="st8" d="M1528.61,548.88c0-53.77-54.49-53.77-54.49-9.2c0,77.07,59.47,56.7,54.49,12.39"/>
		<g>
			<path d="M1535.11,545.27c-0.16-18.3-6.82-40.37-26.75-45.45c-17.38-4.43-32.66,10.09-37.88,25.49
				c-3.89,11.47-3.29,23.99-1.62,35.83c1.34,9.47,3.95,19.33,9.68,27.17c8.2,11.21,21.95,14.43,34.14,7.65
				c16.36-9.1,24.28-29.49,22.43-47.5c-1.09-10.65-13.71,0.27-13,7.21c0.18,1.76,0.3,3.53,0.3,5.3c0,1.67-0.11,3.07-0.22,3.84
				c-0.58,4.05-0.67,4.11-2.01,7.58c-0.15,0.39-0.74,1.62,0.12-0.16c-0.31,0.65-0.65,1.28-1.01,1.91c-0.35,0.62-0.72,1.21-1.1,1.81
				c1.27-2.01,0.06-0.09-0.24,0.27c-0.31,0.37-2.67,2.97-1.11,1.42c-1.07,1.06-2.21,2.06-3.43,2.93c1.51-1.07-1.16,0.61-1.53,0.81
				c-1.82,1.02-0.72,0.51-2.24,0.96c-2.76,0.81-3.6,0.96-5.94,0.81c-4.28-0.27-8.17-2.13-11.34-5.3
				c-10.8-10.82-12.96-30.99-11.63-45.34c0.35-3.75,0.91-6.03,2.32-9.12c-0.86,1.88,2.46-3.64,0.99-1.69
				c0.48-0.63,0.98-1.25,1.51-1.84c-1.18,1.3,0.64-0.57,0.93-0.81c0.97-0.8,3.54-2.3,5.29-2.77c2.74-0.75,4.65-0.9,7.56-0.52
				c17.09,2.24,22.65,22.19,22.78,36.72c0.03,3.92,3.28,5.54,6.62,3.82C1532.47,554.39,1535.15,549.4,1535.11,545.27L1535.11,545.27
				z"/>
		</g>
	</g>
	<g>
		<g>
			<path d="M1241.61,459.05c24.71-4.51,50.16-5.52,75.41-3.73c30.21,2.14,66.26,8.92,86.34,33.93
				c11.79,14.69,13.66,31.94,13.83,50.2c0.2,20.94-1.71,42.5-9.42,62c-2.61,6.59-6.57,13.79-10.37,18.76
				c-4.59,6.01-7.87,9.3-14.13,14.06c-4.21,3.2-11.05,7.09-17.08,9.74c-5.36,2.36-12.3,4.52-18.62,6.06
				c-26.57,6.45-54,5.42-81.11,6.62c-2.95,0.13-5.9,0.3-8.85,0.52c-4.26,0.31-7.38,3.86-8.81,7.71c-0.81,2.18-1.68,9.09,2.61,8.78
				c28.44-2.1,57.11-0.37,85.28-5.73c31.65-6.03,59.75-22.42,75.74-51.14c10.44-18.74,15.11-39.92,16.91-61.14
				c1.86-21.96,2.86-46.68-6.77-67.09c-14.88-31.51-51.08-43.67-83.24-48.1c-29.29-4.04-59.69-3.02-88.9,1.39
				c-1.93,0.29-3.85,0.61-5.77,0.96C1238.04,444.05,1232.49,460.71,1241.61,459.05L1241.61,459.05z"/>
		</g>
	</g>
	<g>
		<g>
			<path d="M1292.36,457.75c12.63,20.56,18.1,45.76,22.2,69.24c4.82,27.62,6.97,55.99,5.75,84.02c-0.29,6.69-0.81,13.37-1.73,20.01
				c-0.4,2.93-0.88,5.85-1.44,8.75c-0.28,1.44-0.58,2.88-0.91,4.31c-0.18,0.76-0.93,3.77-0.78,3.22c-0.85,3.01-1.66,8.07,2.61,8.78
				c3.81,0.63,7.93-4.6,8.81-7.71c7.15-25.29,7.54-52.38,6.22-78.46c-1.5-29.71-5.6-59.79-13.96-88.39
				c-3.78-12.92-8.53-25.85-15.6-37.37C1299.48,437.53,1288.66,451.73,1292.36,457.75L1292.36,457.75z"/>
		</g>
	</g>
	<g>
		<g>
			<path d="M1423.83,549.13c15.73,0.67,31.47,0.96,47.19,1.63c7.01,0.3,14.04-16.16,6.2-16.49c-15.73-0.67-31.47-0.96-47.19-1.63
				C1423.02,532.34,1415.99,548.8,1423.83,549.13L1423.83,549.13z"/>
		</g>
	</g>
	<g>
		<path class="st9" d="M636.96,876.68c-115.34,173.08-234.45,357.39-240.67,562.54c-1.74,57.35,9.45,121.69,57.56,155.97
			c41.69,29.71,98.45,28,150.35,24.98c145.45-8.45,290.91-16.9,436.36-25.34c44.79-2.6,92.78-6.34,127.69-33.3
			c30.68-23.7,45.79-62.08,48.45-99.71c2.65-37.63-5.74-75.1-14.74-111.82c-39.69-162.05-89.56-309.58-141.83-468.34"/>
		<g>
			<path d="M632.28,873.97c-40.84,61.29-81.41,122.84-117.84,186.89c-35.95,63.2-68.1,129.04-90.83,198.23
				c-11.25,34.26-20.25,69.32-26.1,104.91c-5.51,33.49-8.89,67.88-7.67,101.85c1.09,30.36,6.26,61.02,19.44,88.6
				c13.12,27.47,35.13,49.51,63.28,61.42c31.21,13.21,65.86,14.83,99.29,13.89c39-1.1,77.99-4.18,116.94-6.44
				c83.35-4.84,166.71-9.68,250.06-14.52c39.94-2.32,79.96-4.05,119.85-7.12c33.31-2.57,67.85-7.26,97.21-24.35
				c29.09-16.93,49.42-45.33,59.44-77.19c11.22-35.65,9.56-73.05,3.02-109.44c-7.11-39.55-18.05-78.6-28.47-117.38
				c-10.29-38.3-21.24-76.43-32.66-114.41c-22.8-75.85-47.48-151.12-72.28-226.33c-6.19-18.77-12.39-37.54-18.57-56.31
				c-2.87-8.72-14.63,4.31-12.51,10.75c24.35,73.95,48.98,147.81,72.25,222.11c23.17,73.96,44.94,148.38,63.93,223.53
				c16.28,64.42,40.01,146.09-5.45,204.5c-20.13,25.86-50.76,37.78-82.15,43.44c-35.67,6.43-72.5,6.77-108.6,8.86
				c-80.7,4.69-161.39,9.37-242.09,14.06c-40.51,2.35-81.03,4.71-121.54,7.06c-34.38,2-69.17,5.02-103.52,0.93
				c-31.13-3.71-62.01-14.44-83.98-37.71c-19.99-21.18-30.69-48.85-35.92-77.12c-5.65-30.5-4.86-61.97-2.16-92.74
				c3.03-34.57,9.38-68.85,18.15-102.41c17.72-67.77,45.88-132.53,78.54-194.34c33.47-63.35,71.79-123.99,111.14-183.81
				c9.67-14.7,19.41-29.36,29.17-44c1.77-2.65,3.2-8.46-0.18-10.51C637.86,866.68,633.91,871.52,632.28,873.97L632.28,873.97z"/>
		</g>
	</g>
	<g>
		<path class="st10" d="M564.23,1055.48c-18.57,178.68-36.05,416.63,1.47,471.92c40.47,59.64,490.24,29.54,525.55-5.77
			c28.2-28.2,24.22-470.27-34.37-511.9c-28.97-20.58-294.57-11.84-381.34-8.17c-40.12,1.7-109.84,11.08-109.84,49.53"/>
		<g>
			<path d="M556.65,1057.41c-5.99,57.69-11.31,115.45-15.22,173.32c-3.73,55.07-6.43,110.34-5.55,165.55
				c0.36,22.28,1.29,44.6,3.7,66.76c1.86,17.13,4.31,34.5,9.58,50.96c3.22,10.08,7.38,20.65,15.61,27.67
				c6.5,5.55,14.69,8.93,22.7,11.65c25.89,8.78,53.61,12,80.72,14.33c36.16,3.11,72.52,3.83,108.79,3.51
				c39.27-0.34,78.54-2.02,117.71-4.86c35.33-2.57,70.65-5.98,105.72-11.09c24.01-3.5,48.66-7.22,71.71-15.07
				c7.22-2.46,14.73-5.32,20.6-10.35c5.84-5.01,8.87-12.46,10.96-19.67c6.51-22.46,8-46.51,9.57-69.72
				c2.29-33.88,2.91-67.88,2.77-101.83c-0.16-39.01-1.43-78.03-3.93-116.97c-2.37-36.95-5.8-73.86-11.35-110.48
				c-4.12-27.15-8.93-55.01-18.99-80.69c-3.33-8.5-7.23-17.42-13.3-24.36c-5.56-6.37-12.01-8.91-20.11-10.86
				c-12.3-2.95-25.07-4.11-37.64-5.13c-17.96-1.46-35.99-2.18-54-2.67c-43.7-1.18-87.45-0.86-131.15-0.11
				c-39.76,0.69-79.51,1.82-119.25,3.3c-38.17,1.43-78.93,1.57-114.13,18.26c-18.57,8.8-33.93,25.04-34.25,46.56
				c-0.07,4.66,4.02,6.7,7.94,4.59c4.55-2.46,7.57-8.16,7.64-13.24c0.01-0.47-0.01-0.96,0.04-1.43c0.15-1.57-0.17,1.16,0.04-0.37
				c0.12-0.9,0.3-1.79,0.5-2.67c0.26-1.16-0.08,0.27-0.13,0.42c0.18-0.55,0.44-1.11,0.6-1.67c0.48-1.66-0.81,1.09,0.47-0.98
				c0.34-0.54,2.06-3.01,0.54-0.99c0.55-0.72,1.13-1.42,1.7-2.12c1.2-1.48-0.71,0.55,0.7-0.78c0.92-0.88,1.88-1.72,2.86-2.53
				c6-4.88,15.55-9.04,24.06-11.75c20.23-6.46,41.71-9.13,62.84-10.25c33.36-1.78,66.8-2.59,100.19-3.47
				c43.17-1.14,86.36-1.87,129.54-1.72c37.47,0.13,75.14,0.48,112.47,3.98c11.51,1.08,23.1,2.4,34.29,5.4
				c0.43,0.12,0.86,0.25,1.29,0.38c-1.14-0.35-0.74-0.26,0.12,0.06c0.83,0.31,1.67,0.6,2.48,0.96c1.29,0.57,2.51,1.22,3.66,2.03
				c0.54,0.39,1.04,0.83,1.56,1.25c0.83,0.66-1.16-1.18-0.15-0.14c0.29,0.3,0.6,0.59,0.89,0.9c1.19,1.29,2.3,2.63,3.33,4.04
				c2.45,3.36,4.42,7.01,6.27,10.73c0.35,0.69,0.79,1.69,0.2,0.39c0.22,0.48,0.44,0.97,0.66,1.46c0.51,1.18,1.02,2.36,1.51,3.55
				c1,2.45,1.93,4.93,2.81,7.43c4.2,11.94,7.3,24.26,9.97,36.63c6.97,32.29,10.79,63.6,13.9,96.4c3.6,37.88,5.73,75.9,6.86,113.93
				c1.08,36.22,1.26,72.48,0.19,108.71c-0.46,15.49-1.14,30.98-2.23,46.45c-0.24,3.44-0.5,6.89-0.79,10.33
				c-0.06,0.74-0.13,1.48-0.19,2.22c-0.04,0.49-0.08,0.97-0.13,1.46c0.01-0.07,0.15-1.65,0.05-0.6c-0.15,1.65-0.31,3.3-0.47,4.94
				c-0.58,5.82-1.24,11.63-2.03,17.42c-0.67,4.87-1.43,9.72-2.38,14.54c-0.4,2.04-0.83,4.07-1.32,6.09
				c-0.21,0.88-0.45,1.76-0.66,2.64c-0.6,2.44,0.83-2.51-0.12,0.41c-0.47,1.45-0.92,2.9-1.49,4.31c-0.21,0.54-0.52,1.07-0.69,1.62
				c0.03-0.1,1.46-2.92,0.29-0.73c-0.3,0.56-1.46,2.34-0.03,0.17c1.69-2.55-1.42,1.06,0.75-0.91c1.8-1.64,0.24-0.27-0.23,0.11
				c-1.77,1.42,0.22-0.11,0.31-0.15c-2.71,1.19-5.26,2.92-8.01,4.13c-1.2,0.53,2.05-0.77,0.3-0.13c-0.39,0.14-0.78,0.31-1.17,0.45
				c-0.96,0.36-1.92,0.71-2.89,1.05c-2.05,0.71-4.12,1.37-6.19,2c-10.56,3.18-21.38,5.54-32.2,7.64
				c-30.23,5.86-60.89,9.61-91.52,12.66c-37.08,3.7-74.29,6.11-111.52,7.5c-37.48,1.4-75.02,1.77-112.51,0.44
				c-31.41-1.11-63.02-3.15-94-8.7c-6.11-1.09-12.19-2.34-18.21-3.84c-2.62-0.65-5.22-1.35-7.81-2.11c-0.66-0.2-1.33-0.39-1.99-0.6
				c-0.34-0.1,0.68,0.23-0.53-0.17c-1.24-0.41-2.49-0.82-3.72-1.26c-4.24-1.51-8.41-3.23-12.38-5.35c-1.7-0.91-3.36-1.89-4.95-2.97
				c-0.71-0.48-1.4-0.98-2.07-1.5c-0.44-0.34-2.29-1.93-1.48-1.19c0.84,0.77-0.75-0.76-1.09-1.13c-0.52-0.57-1.02-1.17-1.49-1.79
				c-1.42-1.88-2.59-3.97-3.69-6.05c-0.34-0.65-0.66-1.3-0.98-1.95c-0.6-1.24,0.28,0.66-0.29-0.63c-0.64-1.46-1.24-2.93-1.81-4.42
				c-1.19-3.14-2.23-6.34-3.17-9.56c-4.72-16.31-6.94-32.86-8.53-49.56c-4.56-47.91-3.68-96.37-1.87-144.4
				c2.15-57.01,6.37-113.94,11.47-170.76c2.37-26.4,4.97-52.77,7.7-79.13c0.41-3.96-0.65-8.85-5.75-7.79
				C561.45,1046.72,557.12,1052.94,556.65,1057.41L556.65,1057.41z"/>
		</g>
	</g>
	<g>
		<path class="st11" d="M586.54,1057.7c-7.16,317.39-3.69,395.94,27.71,443.14c42.94,64.55,424.18,17.12,447.58-9.27
			c25.02-28.22,4.22-432.44-13.03-452.49c-19.18-22.29-329.13,12.31-462.26,12.86"/>
		<g>
			<path d="M577.87,1062.52c-1.32,58.82-2.55,117.64-2.99,176.48c-0.3,40.24-0.33,80.51,1.16,120.73
				c0.99,26.7,2.63,53.44,6.65,79.87c2.53,16.61,6.12,33.27,12.69,48.8c6.11,14.44,13.48,27.67,27.7,35.43
				c21.97,11.99,49.02,15.33,73.54,17.69c34.51,3.32,69.34,3.25,103.95,1.96c37.45-1.39,74.86-4.43,112.09-8.76
				c31.34-3.65,62.66-8.13,93.55-14.58c10.91-2.28,21.81-4.78,32.47-8.05c7.07-2.16,14.53-4.51,20.8-8.52
				c14.9-9.54,16.94-29.88,18.73-45.95c3.08-27.64,3.64-55.56,3.83-83.35c0.25-35.43-0.51-70.86-1.8-106.26
				c-1.3-35.95-3.16-71.88-5.72-107.77c-2.04-28.64-4.37-57.31-8.13-85.78c-1.29-9.79-2.63-19.61-4.73-29.27
				c-1.07-4.9-2.18-11.03-5.32-15.11c-4.08-5.3-12.59-6.38-18.7-7.29c-11.17-1.68-22.57-1.97-33.84-2.14
				c-35.51-0.52-71.07,1.39-106.51,3.35c-43.98,2.44-87.92,5.48-131.86,8.39c-41.82,2.76-83.65,5.52-125.53,7.25
				c-16.4,0.68-32.8,1.2-49.22,1.27c-5.63,0.03-9.94,5.41-11.76,10.29c-1.2,3.21-2.21,11.74,3.49,11.71
				c36.43-0.17,72.86-2.22,109.21-4.37c43.6-2.58,87.17-5.63,130.76-8.47c40.62-2.64,81.27-5.22,121.95-6.66
				c27.37-0.96,55.55-2.49,82.8,1.06c3.69,0.48,7.31,1.17,10.9,2.12c-1.3-0.34-0.83-0.36,0.46,0.21c0.57,0.25,1.14,0.47,1.69,0.75
				c0.46,0.24,0.9,0.6,1.37,0.82c1.46,0.68-0.28-0.31-0.27-0.31c0.11,0.37,0.86,1.54,1.13,1.79c-0.53-0.49-0.82-2.17-0.29-0.54
				c0.18,0.56,0.41,1.1,0.6,1.66c0.93,2.72,1.59,5.54,2.2,8.35c0.87,3.97,1.58,7.97,2.24,11.98c0.39,2.39,0.76,4.79,1.11,7.19
				c0.17,1.19,0.34,2.38,0.51,3.57c-0.34-2.44,0.23,1.69,0.35,2.64c1.65,12.65,2.99,25.34,4.18,38.03
				c3.08,32.66,5.27,65.4,7.03,98.16c1.94,36.12,3.31,72.27,3.98,108.43c0.59,32.06,0.74,64.16-0.54,96.21
				c-0.26,6.53-0.59,13.07-1.02,19.59c-0.2,2.96-0.41,5.91-0.66,8.86c-0.05,0.65-0.11,1.3-0.17,1.95c-0.16,1.92,0.21-2.01,0.01-0.13
				c-0.14,1.33-0.26,2.66-0.4,3.99c-0.49,4.71-1.07,9.41-1.85,14.08c-0.32,1.95-0.68,3.9-1.09,5.84c-0.17,0.8-0.35,1.61-0.54,2.41
				c-0.16,0.65-1,3.77-0.31,1.32c0.67-2.38-0.03,0.1-0.25,0.71c-0.24,0.68-0.49,1.36-0.73,2.04c-1.22,3.43,1.82-2.74-0.19,0.34
				c-0.72,1.1,2.44-3.23,0.98-1.45c-1.16,1.42,2.58-2.6,1.04-1.08c-0.4,0.39-2.09,1.58-0.17,0.21c1.92-1.37,0.08-0.07-0.46,0.22
				c-1.21,0.66-2.42,1.31-3.67,1.89c-0.73,0.33-1.47,0.63-2.2,0.96c1.68-0.76,0.97-0.38-0.62,0.22c-3.97,1.5-8.02,2.76-12.09,3.94
				c-25.03,7.23-50.98,11.58-76.71,15.49c-34.35,5.22-68.92,9.06-103.57,11.67c-35.98,2.71-72.11,4.2-108.19,3.44
				c-29.72-0.63-60.04-2.32-89.03-9.33c-2.89-0.7-5.75-1.47-8.6-2.3c-0.29-0.08-2-0.61-1.25-0.38c0.68,0.21-1.11-0.36-1.5-0.49
				c-1.28-0.43-2.55-0.87-3.81-1.34c-4.55-1.69-9.03-3.66-13.23-6.1c-1.84-1.07-3.62-2.23-5.32-3.51c-0.73-0.56-1.43-1.15-2.15-1.73
				c-1.17-0.94,0.45,0.45,0.13,0.14c-0.36-0.35-0.74-0.7-1.08-1.07c-2.31-2.47-4.13-5.21-5.88-8.09c-1.66-2.72-3.2-5.5-4.63-8.35
				c-0.34-0.68-0.66-1.36-1-2.04c-1.07-2.17,0.56,1.36-0.41-0.88c-0.68-1.58-1.37-3.15-2.01-4.74c-2.82-7.02-5.05-14.28-6.89-21.62
				c-2.25-9-3.91-18.14-5.24-27.32c-0.1-0.7-0.2-1.4-0.3-2.1c-0.08-0.53,0.23,1.76-0.01-0.09c-0.17-1.36-0.36-2.71-0.52-4.07
				c-0.35-2.83-0.68-5.67-0.98-8.51c-0.66-6.18-1.21-12.38-1.68-18.58c-2.5-32.69-3.11-65.51-3.37-98.28
				c-0.38-48.85,0.3-97.71,1.16-146.56c0.54-30.61,1.19-61.21,1.88-91.82c0.12-5.2-4.5-7.44-8.84-5.1
				C581.28,1050.53,577.99,1056.86,577.87,1062.52L577.87,1062.52z"/>
		</g>
	</g>
	<g>
		<path class="st0" d="M626.03,879.7c-45.19-11.11-93.19-14.2-138.5-3.56s-87.7,35.87-113.27,73.18
			c-25.57,37.32-32.48,87.03-13.15,127.64c19.33,40.61,66.34,68.98,112.65,63.59"/>
		<g>
			<path d="M629.13,871.45c-77.28-18.79-165.01-13.31-227.95,40.04c-28.44,24.11-49.12,57.15-55.53,94.12
				c-6.14,35.41,1.21,73.25,24.74,101.1c24.92,29.5,63.27,46.13,101.84,41.95c6.68-0.73,12.38-17.22,3.05-16.21
				c-31.16,3.39-63.39-9.25-85.75-30.84c-23.92-23.1-35.37-55.51-32.64-88.55c5.71-69.14,67.6-114.88,130.95-129.24
				c44.51-10.09,91.04-6.59,135.09,4.12C629.57,889.56,637.18,873.41,629.13,871.45L629.13,871.45z"/>
		</g>
	</g>
	<g>
		<g>
			<path d="M484.19,916.28c-46.87,22.22-75.41,80.1-59.94,130.43c2.69,8.74,14.5-4.27,12.51-10.75
				c-12.76-41.53,8.91-86.44,47.68-104.81c3.71-1.76,6.55-7,6.37-11.04C490.63,916.07,487.7,914.62,484.19,916.28L484.19,916.28z"/>
		</g>
	</g>
	<g>
		<g>
			<path d="M438.1,1081.16c7.02,0,13.91-16.49,6.2-16.49C437.28,1064.67,430.39,1081.16,438.1,1081.16L438.1,1081.16z"/>
		</g>
	</g>
	<g>
		<g>
			<path d="M343.56,1032.13c-53.89,51.58-100.98,110.07-139.55,173.94c-19.13,31.69-36.1,64.68-50.83,98.64
				c-15.33,35.36-29.93,72.49-37.15,110.46c-6.99,36.74-4.29,75.41,17.89,106.66c18.9,26.64,48.97,44.76,81.78,46.83
				c33.35,2.1,67.01-11.17,88.21-37.31c11.58-14.28,19.31-31.21,25.52-48.39c6.97-19.28,13.02-38.93,19.43-58.4
				c27.44-83.38,54.88-166.76,82.33-250.14c3.43-10.42,6.86-20.85,10.29-31.27c0.98-2.99,1.57-8.09-2.61-8.78
				c-3.91-0.64-7.8,4.62-8.81,7.71c-26.3,79.91-52.6,159.81-78.9,239.72c-6.55,19.9-13.1,39.8-19.65,59.69
				c-5.78,17.57-11.05,35.45-18.2,52.53c-6.15,14.68-14.41,28.7-26.87,38.89c-11.71,9.58-26.17,15.36-40.98,17.98
				c-31.26,5.53-63.63-4.68-86.52-26.6c-25.12-24.06-35.56-56.99-33.15-91.3c2.59-36.9,16.81-73.19,30.47-107.22
				c12.98-32.33,28.13-63.73,45.28-94.05c34.7-61.36,77.44-118.31,126.86-168.61c6.13-6.24,12.37-12.38,18.69-18.43
				c2.84-2.72,5.87-7.52,4.49-11.65C350.29,1029.2,346.07,1029.72,343.56,1032.13L343.56,1032.13z"/>
		</g>
	</g>
	<g>
		<g>
			<path d="M287.24,1100.19c24.92,46.03,73.63,81,123.93,93.85c6.6,1.69,14.24-14.44,6.2-16.49
				c-48.43-12.37-95.04-46.82-118.95-90.97c-2.02-3.72-7.28,0.15-8.91,2.13C286.99,1091.77,285.22,1096.46,287.24,1100.19
				L287.24,1100.19z"/>
		</g>
	</g>
	<g>
		<g>
			<path d="M227.64,1190.71c44.22,40.15,103.72,65.45,162.91,72.01c6.94,0.77,14.18-15.61,6.2-16.49
				c-58.35-6.47-116.53-31.57-160.1-71.13C231.62,1170.53,221.99,1185.57,227.64,1190.71L227.64,1190.71z"/>
		</g>
	</g>
	<g>
		<g>
			<path d="M163.45,1298.35c38.29,39.13,91.23,66.05,145.67,72.84c15.25,1.9,30.59,1.94,45.84,0.09
				c6.68-0.81,12.35-17.33,3.05-16.21c-52.35,6.33-106.71-12.8-149.52-42.12c-12.15-8.32-23.56-17.69-33.86-28.22
				C168.85,1278.83,158.65,1293.45,163.45,1298.35L163.45,1298.35z"/>
		</g>
	</g>
	<g>
		<g>
			<path d="M128.28,1403.34c22.26,15.05,47.31,25.93,72.56,34.85c27.65,9.77,56.25,17.32,85.28,21.61
				c14.5,2.14,29.16,3.44,43.82,3.16c4.23-0.08,7.44-4.01,8.81-7.71c0.88-2.36,1.66-8.86-2.61-8.78
				c-26.56,0.5-53.18-3.86-78.95-9.98c-28.26-6.71-56.05-15.93-82.45-28.08c-12.97-5.97-25.62-12.69-37.45-20.69
				C131.32,1383.68,122.05,1399.12,128.28,1403.34L128.28,1403.34z"/>
		</g>
	</g>
	<g>
		<path class="st12" d="M1065.2,887.92c25.77,0.69,67.8,2.6,92.65,9.15c24.85,6.55,48.76,19.6,62.87,40.23
			c14.87,21.74,17.26,49.61,12.1,75.11c-9.26,45.76-42.51,86.48-86.69,106.17"/>
		<g>
			<path d="M1062.1,896.17c24.04,0.66,48.22,1.72,72.05,5.16c24.02,3.47,47.73,11.15,66.61,26.94
				c40.29,33.69,32.39,94.44,5.09,133.65c-15.04,21.6-35.91,38.43-59.84,49.24c-6.33,2.86-9.51,19.27,0.25,14.86
				c47.9-21.64,85.25-67.79,93.76-120.02c4.51-27.66,0.7-58.03-17.35-80.41c-16.7-20.7-42.26-32.74-67.83-38.22
				c-28.24-6.05-57.75-6.91-86.53-7.7C1061.29,879.49,1054.31,895.96,1062.1,896.17L1062.1,896.17z"/>
		</g>
	</g>
	<g>
		<g>
			<path d="M1151.92,968.85c10.39,13.42,16.77,29.29,17.72,46.29c0.22,3.86,3.16,5.6,6.62,3.82c3.59-1.84,6.6-6.97,6.37-11.04
				c-1.08-19.2-7.75-37.47-19.54-52.69C1158.17,948.88,1147.63,963.31,1151.92,968.85L1151.92,968.85z"/>
		</g>
	</g>
	<g>
		<g>
			<path d="M1170.53,1106.3c28.26,85.62,56.53,171.24,84.79,256.86c6.81,20.63,13.49,41.31,20.45,61.89
				c5.14,15.2,10.87,30.25,18.25,44.52c14.39,27.82,37.26,52.46,69.54,57.55c33.05,5.21,67.06-10.73,88.77-35.19
				c24.77-27.89,33.19-67.41,29.61-103.79c-3.5-35.55-18.95-67.84-35.09-99.22c-16.68-32.42-33.84-64.65-51.17-96.73
				c-36.81-68.13-77.26-135.3-131-191.59c-6.74-7.06-13.68-13.93-20.8-20.61c-6.06-5.69-16.12,8.98-11.18,13.62
				c54.76,51.38,96.77,114.16,133.57,179.18c17.98,31.77,34.65,64.24,51.8,96.46c16.01,30.08,33.2,60.23,43.8,92.76
				c10.32,31.64,11.9,68.72-2.38,99.44c-13.04,28.06-41.69,47.99-72.72,49.96c-73.47,4.68-94.34-84.46-112.09-138.22
				c-27.22-82.47-54.45-164.94-81.67-247.42c-3.32-10.07-6.65-20.15-9.97-30.22C1180.16,1086.82,1168.41,1099.86,1170.53,1106.3
				L1170.53,1106.3z"/>
		</g>
	</g>
	<g>
		<g>
			<path d="M1188.11,1147.95c23.56-2.45,46.4-12.83,66.49-24.96c20.26-12.23,39.97-27.5,54.04-46.73c2.08-2.84,4.86-8.11,2.27-11.49
				c-2.47-3.23-7.12-0.32-8.91,2.13c-12.75,17.42-30.56,31.07-48.98,42.03c-18.87,11.22-39.82,20.53-61.86,22.82
				C1184.48,1132.44,1178.77,1148.92,1188.11,1147.95L1188.11,1147.95z"/>
		</g>
	</g>
	<g>
		<g>
			<path d="M1224.03,1240.25c25.19-9.17,48.92-22.36,71.38-36.89c22.55-14.6,44.36-30.78,63.04-50.17c2.4-2.49,4.66-8.37,2.27-11.49
				c-2.66-3.47-6.86,0-8.91,2.13c-17,17.64-37.45,32.34-57.99,45.53c-21.01,13.5-43.21,26.12-66.74,34.68
				c-4.09,1.49-7.07,5.45-7.85,9.71C1218.72,1236.6,1219.91,1241.75,1224.03,1240.25L1224.03,1240.25z"/>
		</g>
	</g>
	<g>
		<g>
			<path d="M1256.81,1334.28c27.81-7.96,54.69-19.49,79.87-33.7c24.9-14.05,48.69-30.85,68.71-51.36c2.77-2.83,5.9-7.43,4.49-11.65
				c-1.26-3.74-5.57-3.41-8.02-0.9c-38.1,39.02-89.85,66.48-141.99,81.39c-4.11,1.18-7.11,5.66-7.85,9.71
				C1251.45,1330.88,1252.67,1335.46,1256.81,1334.28L1256.81,1334.28z"/>
		</g>
	</g>
	<g>
		<g>
			<path d="M1286.27,1429c59.42-17.3,114.93-46.97,161.99-87.19c2.95-2.52,5.83-7.66,4.49-11.65c-1.34-3.98-5.42-3.12-8.02-0.9
				c-45.15,38.59-98.4,66.94-155.4,83.53c-4.11,1.2-7.11,5.64-7.85,9.71C1280.92,1425.58,1282.13,1430.2,1286.27,1429L1286.27,1429z
				"/>
		</g>
	</g>
	<g>
		<g>
			<path d="M515.88,1634.32c-1.38,37.62-2.75,75.23-4.13,112.85c-0.15,3.97,3.4,5.48,6.62,3.82c3.87-1.99,6.22-6.85,6.37-11.04
				c1.38-37.62,2.75-75.23,4.13-112.85c0.15-3.97-3.4-5.48-6.62-3.82C518.38,1625.27,516.03,1630.13,515.88,1634.32L515.88,1634.32z
				"/>
		</g>
	</g>
	<g>
		<g>
			<path d="M614.44,1627.34c-0.7,41.26-0.02,82.53-0.72,123.8c-0.07,3.95,3.35,5.51,6.62,3.82c3.81-1.96,6.3-6.87,6.37-11.04
				c0.7-41.26,0.02-82.53,0.72-123.8c0.07-3.95-3.35-5.51-6.62-3.82C617,1618.26,614.51,1623.17,614.44,1627.34L614.44,1627.34z"/>
		</g>
	</g>
	<g>
		<g>
			<path d="M517.29,1674.59c7.02,0,13.91-16.49,6.2-16.49C516.47,1658.1,509.58,1674.59,517.29,1674.59L517.29,1674.59z"/>
		</g>
	</g>
	<g>
		<g>
			<path d="M522.01,1672.61c30.17,7.96,64.11,6.65,94.15-1.32c4.12-1.09,7.12-5.71,7.85-9.71c0.57-3.17-0.66-7.6-4.79-6.5
				c-29.17,7.74-61.72,8.76-91,1.03C521.64,1654.39,513.98,1670.49,522.01,1672.61L522.01,1672.61z"/>
		</g>
	</g>
	<g>
		<g>
			<path d="M519.28,1714.19c30.96,7.89,65.62,8.27,96.88,1.84c6.59-1.36,12.09-18.07,3.05-16.21c-30.27,6.23-63.78,5.52-93.74-2.12
				C518.88,1696.02,511.24,1712.14,519.28,1714.19L519.28,1714.19z"/>
		</g>
	</g>
	<g>
		<g>
			<path d="M915.49,1611.8c0,41.17-0.19,82.46,5.89,123.27c0.64,4.27,5.86,2.74,8.02,0.9c3.38-2.87,5.13-7.31,4.49-11.65
				c-5.9-39.57-5.41-79.83-5.41-119.74c0-3.93-3.3-5.53-6.62-3.82C918.1,1602.69,915.49,1607.66,915.49,1611.8L915.49,1611.8z"/>
		</g>
	</g>
	<g>
		<g>
			<path d="M1037.72,1607.1c3.78,41.92-0.03,84.22-0.12,126.21c-0.01,3.93,3.31,5.52,6.62,3.82c3.77-1.93,6.36-6.89,6.37-11.04
				c0.09-41.99,3.89-84.29,0.12-126.21c-0.34-3.82-3.07-5.65-6.62-3.82C1040.6,1597.85,1037.35,1603.08,1037.72,1607.1
				L1037.72,1607.1z"/>
		</g>
	</g>
	<g>
		<g>
			<path d="M921.15,1654.47c19.8,4.69,40.61,5.44,60.88,5.07c20.48-0.37,41.36-1.93,61.32-6.78c4.12-1,7.13-5.78,7.85-9.71
				c0.59-3.25-0.66-7.5-4.79-6.5c-19.47,4.73-39.74,6.24-59.72,6.52c-19.77,0.28-40.03-0.52-59.33-5.09
				C920.7,1636.4,913.1,1652.56,921.15,1654.47L921.15,1654.47z"/>
		</g>
	</g>
	<g>
		<g>
			<path d="M925.39,1706.01c37.52,0.96,74.78-7.86,112.3-6.9c7.02,0.18,13.99-16.29,6.2-16.49c-37.52-0.96-74.78,7.86-112.3,6.9
				C924.58,1689.34,917.61,1705.81,925.39,1706.01L925.39,1706.01z"/>
		</g>
	</g>
	<g>
		<path class="st13" d="M390.17,1932.16c-12.48-116.89,89.57-198.94,199.93-188.6c83.09,7.78,111.17,125.61,104.32,186.2"/>
		<g>
			<path d="M396.67,1928.55c-3.83-37.19,3.97-74.89,25.68-105.73c20.8-29.56,51.85-51.08,86.06-62.29
				c18.33-6.01,37.55-9.3,56.84-9.59c17.06-0.25,34.24,1.06,49.8,8.57c28.83,13.91,47.3,42.69,58.36,71.76
				c11.85,31.14,18.25,67.69,14.69,100.09c-0.37,3.39,0.56,7.27,4.79,6.5c3.86-0.71,7.44-6.05,7.85-9.71
				c3.55-32.3-1.05-65.93-11-96.76c-10.33-32.04-27.99-64.61-57.33-82.89c-15.26-9.51-32.34-13.22-50.12-13.91
				c-20.43-0.8-41.11,1.44-60.86,6.76c-38.39,10.34-73.64,32.29-98.87,63.13c-30.06,36.75-43.73,84.16-38.88,131.29
				C384.77,1946.42,397.39,1935.5,396.67,1928.55L396.67,1928.55z"/>
		</g>
	</g>
	<g>
		<g>
			<path d="M387.07,1940.41c78.86-6.1,158.03-7.97,237.09-5.52c22.4,0.69,44.78,1.74,67.15,3.12c7,0.43,14.09-16.01,6.2-16.49
				c-78.95-4.85-158.14-5.48-237.16-1.78c-22.38,1.05-44.75,2.45-67.09,4.18c-4.26,0.33-7.37,3.85-8.81,7.71
				C383.65,1933.8,382.78,1940.74,387.07,1940.41L387.07,1940.41z"/>
		</g>
	</g>
	<g>
		<g>
			<path d="M386.88,1910.57c77.8,0.73,155.58-1.32,233.37-1.82c22.29-0.14,44.59-0.14,66.88,0.06c7.02,0.07,13.94-16.42,6.2-16.49
				c-77.8-0.73-155.58,1.32-233.37,1.82c-22.29,0.14-44.59,0.14-66.88-0.06C386.06,1894.02,379.14,1910.5,386.88,1910.57
				L386.88,1910.57z"/>
		</g>
	</g>
	<g>
		<g>
			<path d="M525.57,1787.44c22.77-1.98,45.55-3.96,68.32-5.94c4.27-0.37,7.36-3.82,8.81-7.71c0.8-2.14,1.68-9.15-2.61-8.78
				c-22.77,1.98-45.55,3.96-68.32,5.94c-4.27,0.37-7.36,3.82-8.81,7.71C522.16,1780.8,521.28,1787.81,525.57,1787.44L525.57,1787.44
				z"/>
		</g>
	</g>
	<g>
		<g>
			<path d="M527.64,1813.18c20.7-0.66,41.41-1.32,62.11-1.98c4.24-0.14,7.42-3.98,8.81-7.71c0.86-2.32,1.66-8.91-2.61-8.78
				c-20.7,0.66-41.41,1.32-62.11,1.98c-4.24,0.14-7.42,3.98-8.81,7.71C524.16,1806.72,523.36,1813.31,527.64,1813.18L527.64,1813.18
				z"/>
		</g>
	</g>
	<g>
		<path class="st8" d="M814.4,1917.66c16.13-53.42,27.5-110.81,69.37-149.39c41.87-38.58,108.87-57.09,159.75-30.19
			c31.04,16.41,51.72,47.02,62.43,79.36c10.71,32.33,12.56,66.66,13.93,100.55"/>
		<g>
			<path d="M820.11,1918.19c9.79-32.52,17.47-66.17,32.18-96.95c14.33-29.98,36.3-53.97,65.73-69.62
				c28.28-15.04,61.74-22.08,93.42-15.6c33.12,6.77,59.32,29.55,75.75,58.46c21.88,38.48,24.43,83.89,26.18,127.1
				c0.16,3.88,3.2,5.58,6.62,3.82c3.64-1.87,6.54-6.95,6.37-11.04c-1.69-41.65-4.31-84.44-22.4-122.7
				c-14.92-31.56-40.47-58.33-74.31-68.99c-33.35-10.5-69.5-5.15-101.01,8.79c-32.99,14.59-60.25,39.34-78.37,70.47
				c-20.7,35.58-29.85,76.14-41.6,115.18c-0.9,3-1.62,8.08,2.61,8.78C815.15,1926.54,819.18,1921.3,820.11,1918.19L820.11,1918.19z"
				/>
		</g>
	</g>
	<g>
		<g>
			<path d="M811.3,1925.91c79.32,1.22,158.63,3.05,237.95,4.54c22.51,0.42,45.02,0.82,67.53,1.16c7.02,0.11,13.96-16.37,6.2-16.49
				c-79.32-1.22-158.63-3.05-237.95-4.54c-22.51-0.42-45.02-0.82-67.53-1.16C810.48,1909.31,803.54,1925.79,811.3,1925.91
				L811.3,1925.91z"/>
		</g>
	</g>
	<g>
		<g>
			<path d="M822.18,1893.7c73.33-16.75,148.8-21.48,223.66-14.19c21.43,2.09,42.74,5.14,63.92,9.01c6.8,1.24,14.25-15.02,6.2-16.49
				c-74.68-13.64-151.04-16.25-226.34-6.21c-21.63,2.88-43.11,6.82-64.38,11.68c-4.12,0.94-7.14,5.82-7.85,9.71
				C816.8,1890.49,818.05,1894.64,822.18,1893.7L822.18,1893.7z"/>
		</g>
	</g>
	<g>
		<g>
			<path d="M954.11,1777.54c16.56,0,33.12,0,49.69,0c7.02,0,13.91-16.49,6.2-16.49c-16.56,0-33.12,0-49.69,0
				C953.29,1761.05,946.4,1777.54,954.11,1777.54L954.11,1777.54z"/>
		</g>
	</g>
	<g>
		<g>
			<path d="M949.97,1811.2c22.08-1.32,44.17-2.64,66.25-3.96c4.25-0.25,7.39-3.9,8.81-7.71c0.83-2.23,1.67-9.03-2.61-8.78
				c-22.08,1.32-44.17,2.64-66.25,3.96c-4.25,0.25-7.39,3.9-8.81,7.71C946.53,1804.65,945.69,1811.45,949.97,1811.2L949.97,1811.2z"
				/>
		</g>
	</g>
</g>
<g id="Ebene_9">
	<g>
		<path d="M823.71,1885.59c-1.71,10.31-7.15,20.24-8.86,30.56c99.66-2.03,196.67-1.38,296.32-3.41c8.15-7.68,3.65-22.51-5.78-28.56
			c-9.42-6.05-21.4-5.87-32.59-5.48c-84.41,2.9-160.21,3.01-244.63,5.91"/>
		<g>
			<path d="M818.45,1886.93c-1.94,10.46-6.91,20.07-8.86,30.56c-0.34,1.81-0.01,5.58,2.68,5.53c86.51-1.74,173.05-1.51,259.56-2.77
				c10.93-0.16,21.85-0.34,32.78-0.56c5.06-0.1,7.72-0.71,10.93-4.86c2.49-3.22,4.23-7.12,4.91-11.13c2.69-16-9.37-27.94-24.16-30.9
				c-9.13-1.83-18.62-1.02-27.85-0.72c-10.78,0.35-21.56,0.67-32.35,0.95c-21.04,0.55-42.08,0.99-63.13,1.4
				c-47.4,0.91-94.81,1.72-142.19,3.33c-3.51,0.12-6.2,3.3-7.33,6.42c-0.7,1.92-1.4,7.43,2.17,7.3
				c41.71-1.42,83.43-2.23,125.15-3.01c41.44-0.78,82.87-2.36,124.31-3.04c9.32-0.15,19.82,0.13,27.61,5.96
				c4.31,3.22,10.49,12.55,5.74,17.46c1.78-0.99,3.56-1.98,5.34-2.96c-76.95,1.55-153.92,1.54-230.88,2.4
				c-21.82,0.25-43.63,0.57-65.45,1.01c0.89,1.84,1.79,3.68,2.68,5.53c1.94-10.46,6.91-20.07,8.86-30.56c0.53-2.85-0.62-6-3.99-5.41
				C821.6,1879.45,819.02,1883.88,818.45,1886.93L818.45,1886.93z"/>
		</g>
	</g>
	<g>
		<path d="M394.24,1905.58c-4.59,6.56,0.14,16.29,7.33,19.81c7.19,3.52,15.65,2.66,23.61,1.8c88.44-9.57,177.88-9.81,266.37-0.7
			c6.3-3.58,4.9-13.92-0.82-18.37c-5.72-4.45-13.55-4.69-20.79-4.73c-88-0.56-176-1.11-264-1.67"/>
		<g>
			<path d="M390.34,1903.33c-4.26,6.96-4.44,15.55,0.35,22.3c5.12,7.23,13.98,9.34,22.41,9.16c10.81-0.22,21.69-2.04,32.45-3.01
				c11.38-1.03,22.77-1.89,34.17-2.61c45.38-2.84,90.91-3.24,136.33-1.21c22.38,1,44.74,2.6,67.03,4.79
				c5.19,0.51,8.52,0.93,12.33-3.05c2.94-3.06,4.83-6.99,5.46-11.18c1.07-7.15-2-14.48-8.3-18.18c-8.24-4.84-18.84-3.81-27.99-3.87
				c-11.25-0.07-22.5-0.14-33.74-0.21c-22.83-0.14-45.65-0.29-68.48-0.43c-51.28-0.32-102.55-0.65-153.83-0.97
				c-5.84-0.04-11.59,13.68-5.16,13.72c81.71,0.52,163.43,1.03,245.14,1.55c9.32,0.06,19.02-0.64,28.28,0.6
				c3.53,0.47,7.46,1.44,10.2,3.88c1.07,0.95,2,2.24,2.57,3.56c0.29,0.67,0.38,3.25,0.74,3.58c-0.12-0.11,2.11-1.61,1.88-2.32
				c-0.04-0.13-4.19-0.42-3.93-0.39c-2.3-0.23-4.59-0.44-6.89-0.66c-5.25-0.49-10.5-0.94-15.76-1.36
				c-10.18-0.81-20.37-1.51-30.57-2.08c-40.46-2.26-81.03-2.57-121.52-0.95c-22.5,0.9-44.96,2.42-67.38,4.49
				c-10.52,0.97-21.59,3.31-32.17,2.51c-4.67-0.35-9.51-1.6-12.78-5.16c-1.49-1.62-4.44-5.73-3.05-8c1.36-2.22,2.76-7.07-0.15-8.75
				C395.01,1897.36,391.66,1901.18,390.34,1903.33L390.34,1903.33z"/>
		</g>
	</g>
</g>
<g id="Ebene_10">
	<g>
		<g>
			<path d="M961.2,527.88c1.11,0.69,0.62,0.78,1.28,1.73c-0.48-0.7,0.02,0.75,0.04-0.44c-0.01,0.54-0.62,1.75-0.04,0.39
				c0.49-0.94,0.54-1.04,0.13-0.29c0.17-0.24,0.34-0.48,0.52-0.73c-1.15,1.08,0.66-1,0.47-0.35c-0.02,0.07-0.18,0.02-0.08,0.05
				c-0.13-0.03-1.45-0.27-0.95-0.09c-1.03-0.37-1.29-0.66-1.65-1.46c0.35,0.77-0.24-0.73-0.29-0.93c-0.08-0.4-0.09-0.34-0.01,0.18
				c-0.03-0.35-0.04-0.71-0.04-1.06c-0.13,1.18-0.1-0.03,0.12-0.44c-0.07,0.13-1.17,2.31-0.39,1.18c-0.5,0.72-1.26,1.18-1.74,1.81
				c0.58-0.31,0.58-0.32,0.01-0.03c0.34-0.09,0.69-0.15,1.05-0.17c5.56-0.65,10.29-14.4,2.54-13.49
				c-6.68,0.79-11.27,8.32-12.18,14.41c-0.8,5.39,0.78,12.03,6.74,13.54c12.25,3.1,23.14-19.9,11.98-26.8
				C963.52,511.7,955.91,524.62,961.2,527.88L961.2,527.88z"/>
		</g>
	</g>
</g>
<g id="Ebene_11">
</g>
<g id="Ebene_12">
</g>
<g id="Ebene_13">
	<g>
		<g>
			<path d="M617.86,723.22c38.6,56.03,99.18,95.46,165.59,109.64c66.95,14.29,137.6,0.22,195.36-36.11
				c32.85-20.66,60.97-47.9,82.51-80.17c1.44-2.16,2.7-7.1-0.15-8.75c-3.05-1.76-6.25,2.15-7.65,4.25
				c-36.1,54.1-94.29,92.24-157.47,106.53c-64.36,14.56-132.26,2.17-188.64-31.7c-31.73-19.06-59.24-44.53-80.25-75.03
				C623.43,706.48,614.53,718.39,617.86,723.22L617.86,723.22z"/>
		</g>
	</g>
</g>
<g id="Ebene_14">
	<g class="st14">
		<path d="M296.68,495.6c-19.9,23.78-39.32,48.72-50.32,77.72c-10.99,29-12.58,63,2.56,90.06c15.14,27.07,49.55,44.08,78.68,33.46
			c-30.5-22.69-51.27-58.03-56.25-95.72c-4.98-37.69,5.9-77.22,29.46-107.05"/>
		<g>
			<path d="M293.92,491.71c-26.58,31.8-52.92,66.79-59.76,108.76c-5.98,36.68,4.35,77.09,38.2,96.74
				c16.25,9.43,36.03,12.65,53.98,6.39c4.15-1.45,9.85-9.61,5.02-13.24c-45.49-34.24-66.91-95.15-49.84-149.94
				c4.79-15.37,12.16-29.74,22.07-42.43c1.8-2.3,4.01-6.8,1.89-9.56c-2.09-2.74-5.87-0.2-7.41,1.77
				c-39.47,50.59-44.5,121.95-9.1,176.06c9.36,14.31,21.25,26.82,34.89,37.09c1.67-4.41,3.35-8.83,5.02-13.24
				c-30.07,10.5-63.14-8.07-76.86-35.3c-16.75-33.24-7.65-72.83,9.86-103.69c10.53-18.57,23.92-35.27,37.57-51.6
				c1.86-2.23,3.96-6.85,1.89-9.56C299.21,487.15,295.52,489.8,293.92,491.71L293.92,491.71z"/>
		</g>
	</g>
	<g class="st14">
		<path d="M337.3,495.16c-14.08,43.21-20.97,88.75-20.28,134.19c0.29,19.14,2.62,39.92,15.86,53.74
			c18.48,19.28,49.38,16.94,75.82,13.17c-50.1-51.99-75.5-126.81-67.4-198.56"/>
		<g>
			<path d="M332.55,494.72c-13,40.21-20.18,82.11-20.92,124.38c-0.31,17.59-0.43,36.54,6.31,53.11
				c6.22,15.28,18.11,25.84,33.91,30.43c17.97,5.21,37.37,2.94,55.58,0.37c3.86-0.54,9.19-8.99,5.92-12.41
				c-38.11-39.81-62.18-92.53-67.14-147.45c-1.4-15.55-1.36-31.25,0.34-46.77c1.07-9.75-9.81-3.82-10.52,2.67
				c-6.25,57.09,7.11,115.43,37.7,164.08c8.76,13.93,18.93,26.92,30.3,38.8c1.97-4.14,3.95-8.27,5.92-12.41
				c-28.05,3.95-65.31,6.64-80.29-23.29c-7.51-15-7.42-32.97-7.29-49.35c0.15-19.02,1.64-38,4.48-56.8
				c3.3-21.87,8.37-43.44,15.17-64.48c0.8-2.48,1.32-6.74-2.17-7.3C336.63,487.78,333.38,492.13,332.55,494.72L332.55,494.72z"/>
		</g>
	</g>
	<g class="st14">
		<path d="M461.99,354.86c-60.67,85.31-58.81,213.12-51.03,322.69c3.28,46.23,12.14,94.66,42.16,129.97
			c46.72,54.97,127.87,61.22,199.98,63.35c138.63,4.1,272.35,3.54,415.89,1.37c51-0.77,90.07-29.11,141.97-29.89
			c-126.64,7.68-240.92,9.48-363.36,11.33c-122.44,1.85-255.74-22.71-337.04-114.29c-85.11-95.87-88.45-260.31-50.01-382.61"/>
		<g>
			<path d="M459.23,350.96c-44.99,63.71-56.22,144.01-57.46,220.24c-0.65,39.65,1.04,79.56,4.56,119.05
				c3.49,39.19,11.4,79.89,34.3,112.75c43.32,62.16,125.49,71.48,195.16,74.23c92.98,3.68,186.19,3.86,279.23,3.44
				c48.14-0.22,96.28-0.76,144.42-1.47c21.14-0.31,41.1-3.58,61.35-9.64c19.03-5.69,37.7-12.64,57.17-16.74
				c10.03-2.12,20.16-3.4,30.42-3.62c1.72-4.57,3.44-9.15,5.16-13.72c-87.54,5.29-175.2,8-262.88,9.67
				c-76.8,1.46-154.22,5.59-230.27-7.84c-67.41-11.9-134.31-37-185.54-83.66c-49.4-44.99-76.18-107.23-86.81-172.32
				c-10.89-66.71-6.02-136.35,10.84-201.64c1.95-7.55,4.1-15.04,6.43-22.48c0.78-2.48,1.33-6.74-2.17-7.3
				c-3.23-0.52-6.52,3.83-7.33,6.42c-20.4,65.23-28.54,135.07-22.12,203.19c6.21,65.95,26.65,133.27,70.86,183.98
				c46.22,53.02,111.05,84.46,178.53,100.84c34.82,8.45,70.51,13.1,106.26,15.11c39.78,2.24,79.68,0.76,119.48,0.09
				c88.72-1.49,177.43-3.66,266.04-8.41c11.18-0.6,22.36-1.24,33.54-1.92c3.52-0.21,6.17-3.24,7.33-6.42
				c0.71-1.96,1.39-7.38-2.17-7.3c-40.36,0.85-76.2,19.29-115.19,26.93c-21.79,4.27-44.31,3.23-66.41,3.52
				c-23.75,0.31-47.5,0.57-71.26,0.76c-92.39,0.74-184.79,0.41-277.15-1.92c-38.11-0.96-76.5-1.5-114.18-7.85
				c-34.47-5.81-69-16.95-96.18-39.72c-29.75-24.93-44.54-61.48-51.49-98.8c-3.6-19.37-5.05-38.99-6.32-58.62
				c-1.25-19.37-2.2-38.76-2.64-58.16c-1.67-73.97,2.43-154.23,38.38-220.71c4.13-7.63,8.64-15.07,13.65-22.15
				c1.7-2.4,4.06-6.72,1.89-9.56C464.6,346.53,460.68,348.9,459.23,350.96L459.23,350.96z"/>
		</g>
	</g>
	<g class="st14">
		<path d="M459.58,891.27c-45.09,23.15-69.64,78.21-61.55,128.25c8.09,50.04,29.75,95.38,76.55,114.85
			c-53.56,6.53-93.25-31.62-109.68-83.02c-16.43-51.4,14.17-124.71,61.59-150.47"/>
		<g>
			<path d="M459.47,885.08c-36.68,19.15-60.99,57.74-66.89,98.22c-3,20.55-0.64,40.73,4.32,60.77
				c4.81,19.42,12.27,38.55,23.56,55.15c12.52,18.42,29.84,32.94,50.36,41.63c1.67-4.41,3.35-8.83,5.02-13.24
				c-42.64,4.89-77.9-21.63-96.62-58.31c-9.21-18.05-14.28-37.24-13.26-57.56c1-19.93,7.07-39.83,16.45-57.39
				c10.29-19.24,24.87-36.64,44.16-47.3c3.03-1.67,5.48-5.68,5.3-9.19c-0.16-3.19-2.61-4.79-5.51-3.18
				c-39.15,21.62-64.33,67.33-70.09,110.76c-2.99,22.57-0.11,44.19,8.91,65.1c8.69,20.16,21.37,38.64,38.88,52.12
				c19.93,15.33,44.41,21.29,69.23,18.44c3.93-0.45,10.18-11.05,5.02-13.24c-34.89-14.78-56.74-45.52-67.73-80.93
				c-5.52-17.78-9.4-36.53-8.57-55.22c0.81-18.24,6.01-36.43,14.94-52.36c9.99-17.81,24.58-32.44,42.71-41.91
				c3.05-1.59,5.48-5.74,5.3-9.19C464.82,885.02,462.39,883.56,459.47,885.08L459.47,885.08z"/>
		</g>
	</g>
	<g class="st14">
		<path d="M336.02,1056.12c-90.25,81.9-158.41,187.91-195.48,304c-12.08,37.83-20.86,79.02-8.83,116.87
			c15.09,47.48,65,81.37,114.7,77.88c-27.91-168.01,11.01-346.19,106.44-487.25"/>
		<g>
			<path d="M334.54,1050.9c-63.77,58.01-116.89,127.65-155.87,204.56c-19.74,38.95-36.44,79.8-48.18,121.89
				c-11.81,42.32-16.79,90.28,7.72,129.22c22.17,35.22,63.87,57.79,105.61,55.17c5.22-0.33,8.57-6.54,7.79-11.33
				c-10.66-64.69-11.41-131.04-2.62-196c8.78-64.92,26.91-128.45,53.86-188.16c15.16-33.59,33.29-65.82,53.89-96.36
				c1.45-2.16,2.69-7.11-0.15-8.75c-3.06-1.76-6.24,2.16-7.65,4.25c-37.63,55.79-66.72,117.33-86.33,181.69
				c-19.6,64.36-30.03,131.45-30.45,198.75c-0.23,38.03,2.85,76.01,9.03,113.53c2.6-3.78,5.19-7.56,7.79-11.33
				c-35.92,2.26-71.53-14.36-94-42.31c-27.77-34.54-26.94-79.16-16.81-120.26c9.9-40.15,25.73-79.5,43.88-116.59
				c17.88-36.54,38.9-71.58,62.91-104.42c27.31-37.36,58.3-71.93,92.53-103.08c2.41-2.19,4.87-6.31,3.73-9.69
				C340.13,1048.41,336.67,1048.97,334.54,1050.9L334.54,1050.9z"/>
		</g>
	</g>
	<g class="st14">
		<path d="M641.87,870.51c-93.74,141.16-197.47,301.19-234.99,466.43c-13.28,58.49-19.54,121.22,1.73,177.29
			c21.28,56.07,76.66,102.71,136.38,97.16c-65.03-113.92-71.09-254.03-43.66-382.3c27.43-128.27,92.88-237.64,151.15-355.16"/>
		<g>
			<path d="M637.97,868.26c-33.64,50.67-67.05,101.52-98.32,153.71c-31.79,53.06-61.42,107.52-86.42,164.13
				c-24.32,55.06-44.24,112.44-55.71,171.62c-11.19,57.75-14.31,121.44,12.29,175.65c21.38,43.58,64.11,80.7,113.84,84.95
				c6.25,0.53,12.51,0.47,18.75-0.06c5.15-0.44,9.98-7.7,7.23-12.53c-48.82-85.94-63.73-186.74-56.62-284.37
				c3.64-49.89,12.91-99.59,27.53-147.43c14.91-48.8,34.94-95.88,57.03-141.83c25.23-52.49,52.91-103.76,78.79-155.92
				c1.16-2.33,2.9-6.99-0.15-8.75c-2.85-1.64-6.53,1.99-7.65,4.25c-46.7,94.1-99.72,185.91-132.7,286.1
				c-31.65,96.17-44.14,200.41-29.12,300.9c8.3,55.5,25.81,109.51,53.57,158.38c2.41-4.18,4.82-8.35,7.23-12.53
				c-49.95,4.3-95.05-27.19-120.57-68.28c-30.68-49.4-30.72-111.34-21.53-166.92c19.31-116.83,73.22-225.99,132.67-327.18
				c33.9-57.69,70.62-113.66,107.62-169.39c1.44-2.17,2.7-7.1-0.15-8.75C642.57,862.25,639.36,866.16,637.97,868.26L637.97,868.26z"
				/>
		</g>
	</g>
	<g class="st14">
		<path d="M595.09,1077.61c4.58,50.14-2.35,100.53-8.49,150.5s-11.5,100.74-3.82,150.5c7.68,49.76,29.93,99.14,69.92,129.73
			s107.46,47.07,149,18.61c-38.84,1.04-83.31-31.1-107.11-61.81c-23.8-30.71-36.81-68.28-47.56-105.62
			c-27.37-95.12-42.6-193.73-45.2-292.67"/>
		<g>
			<path d="M589.68,1080.61c8.3,93.82-22.81,186.09-14.82,279.89c3.31,38.89,13.65,77.59,34.67,110.81
				c19.44,30.73,47.83,53.97,81.94,66.62c34.96,12.96,77.92,16.98,110.33-4.79c2.55-1.71,4.64-4.41,5.15-7.52
				c0.31-1.88,0.03-5.57-2.68-5.53c-30.35,0.5-59.03-16.59-81.35-35.8c-24.85-21.39-42.01-49.35-54.13-79.58
				c-13.28-33.12-22.28-68.15-30.51-102.81c-8.72-36.72-15.69-73.87-20.79-111.27c-5.73-42.04-9.11-84.38-10.26-126.78
				c-0.09-3.28-2.68-4.58-5.51-3.18c-3.07,1.52-5.4,5.8-5.3,9.19c2.09,76.95,11.65,153.7,28.63,228.79
				c8.14,36,17.28,72.26,30.19,106.88c11.62,31.14,27.48,60.85,51.69,84.04c24.29,23.26,57.28,44.83,92.18,44.25
				c0.83-4.35,1.65-8.7,2.48-13.05c-27.94,18.76-64.85,16.46-95.63,6.6c-33.46-10.73-62.17-31.42-82.36-60.22
				c-48.96-69.86-41.71-159.2-31.87-239.41c6.23-50.76,13.29-101.91,8.76-153.13C599.71,1065.74,589.17,1074.84,589.68,1080.61
				L589.68,1080.61z"/>
		</g>
	</g>
	<g class="st14">
		<path d="M530.17,1636.83c12.5,43.84,45.47,81.37,87.33,99.41c-32.09-0.56-64.19-1.13-96.28-1.69c1.59-32.85,3.19-65.69,4.78-98.54
			"/>
		<g>
			<path d="M524.96,1641.31c13.02,44.77,46.02,82.74,88.79,101.44c2.11-4.45,4.22-8.9,6.33-13.36c-32.09-0.56-64.19-1.13-96.28-1.69
				c0.94,1.29,1.88,2.57,2.83,3.86c1.59-32.85,3.19-65.69,4.78-98.54c0.16-3.34-2.85-4.5-5.51-3.18c-3.26,1.62-5.14,5.73-5.3,9.19
				c-1.59,32.85-3.19,65.69-4.78,98.54c-0.08,1.63,0.93,3.83,2.83,3.86c32.09,0.56,64.19,1.13,96.28,1.69
				c4.52,0.08,12.07-10.85,6.33-13.36c-41.26-18.03-73.3-54.11-85.88-97.39C533.26,1625.09,523.39,1635.9,524.96,1641.31
				L524.96,1641.31z"/>
		</g>
	</g>
	<g class="st14">
		<path d="M927.25,1617.35c0.25,28.76,0.49,57.52,0.74,86.28c0.05,5.82,0.22,12.05,3.56,16.82c7.37,10.53,23.36,7.05,35.87,4.15
			c25.72-5.97,53.15-4.3,77.96,4.73c-47.58-29.68-87.36-71.75-114.33-120.93"/>
		<g>
			<path d="M921.84,1620.36c0.14,16.67,0.29,33.34,0.43,50c0.07,8.17,0.14,16.34,0.21,24.51c0.06,7.52-0.5,15.4,0.99,22.82
				c2.55,12.74,13.64,17.46,25.6,16.58c13.74-1.01,26.84-5.6,40.7-6.2c17.58-0.76,35.28,1.84,51.86,7.75
				c5.64,2.01,12.91-9.6,7.5-12.99c-47.34-29.69-86.44-71.18-113.43-120.09c-3.05-5.53-12.15,6.18-9.3,11.33
				c27.34,49.55,67.29,91.69,115.23,121.76c2.5-4.33,5-8.66,7.5-12.99c-17.41-6.21-35.7-9.28-54.2-8.48
				c-9.31,0.4-18.47,1.75-27.55,3.81c-6.89,1.56-14.08,3.28-21.18,2.25c-8.19-1.19-12.13-6.97-12.68-14.96
				c-0.68-9.71-0.26-19.6-0.34-29.33c-0.18-20.59-0.35-41.18-0.53-61.77c-0.03-3.3-2.72-4.56-5.51-3.18
				C924.03,1612.71,921.81,1616.95,921.84,1620.36L921.84,1620.36z"/>
		</g>
	</g>
	<g class="st14">
		<path d="M488.02,1763.15c-22.52,27.62-8.84,78.09,14.97,104.61c23.8,26.52,58.37,40.2,91.63,53.01
			c-57.12,3.15-114.24,6.3-171.36,9.45c-8.44,0.47-18.52,0.14-23.09-6.97c-2.46-3.83-9.33-9.68-9.15-14.23
			c2.3-60.51,42.39-121.74,97.01-147.88"/>
		<g>
			<path d="M485.26,1759.25c-18.03,22.76-16.81,54.23-6.94,80.21c11.12,29.28,33.22,50.06,60.34,64.91
				c16.7,9.14,34.48,16.06,52.22,22.89c2.11-4.45,4.22-8.9,6.33-13.36c-30.55,1.69-61.11,3.37-91.66,5.06
				c-14.61,0.81-29.22,1.61-43.84,2.42c-14.09,0.78-28.63,2.7-42.74,2.07c-4.79-0.21-10.06-0.97-13.38-4.8
				c-1.31-1.51-2.39-3.23-3.69-4.77c-1.74-2.05-4.66-4.63-5.36-7.32c-1.12-4.31,0.59-10.66,1.22-14.98
				c0.79-5.38,1.85-10.71,3.18-15.98c5.5-21.89,15.89-42.73,29.59-60.62c15.36-20.06,34.82-36.62,57.6-47.66
				c5.18-2.51,7.8-16.25-0.21-12.37c-44.79,21.71-79.17,64.35-94.14,111.5c-3.78,11.91-6.41,24.12-7.56,36.57
				c-0.45,4.92-1.42,10.14,0.89,14.72c2.32,4.61,6.5,9.41,10.03,13.19c8.6,9.19,24.45,6.09,35.5,5.48
				c15.94-0.88,31.88-1.76,47.82-2.64c37.2-2.05,74.39-4.1,111.59-6.16c3.25-0.18,5.58-2.7,6.91-5.51c0.87-1.84,2.26-6.75-0.58-7.84
				c-27.81-10.71-56.46-21.82-79.5-41.28c-20.32-17.16-34.2-42.46-36.56-69.12c-1.13-12.76,0.28-26.48,8.48-36.83
				c1.81-2.29,4-6.81,1.89-9.56C490.57,1754.73,486.81,1757.29,485.26,1759.25L485.26,1759.25z"/>
		</g>
	</g>
	<g class="st14">
		<path d="M931.23,1737.85c-69.23,30.18-122.72,179.83-93.43,178.29c64.91-3.41,129.99-1.96,194.99-2.94
			c-38.79-4.93-74.62-29.29-93.48-63.55c-18.85-34.26-20.26-77.56-3.67-112.97"/>
		<g>
			<path d="M931.13,1731.66c-22.27,9.87-40.06,28.77-54.34,48.03c-15.81,21.33-28.66,44.93-38.57,69.55
				c-7.1,17.63-14.56,37.82-14.01,57.15c0.15,5.15,0.96,11.94,5.65,15.11c3.13,2.11,6.77,1.42,10.32,1.25
				c11.59-0.56,23.19-0.98,34.79-1.29c51.73-1.38,103.49-0.64,155.23-1.4c5.36-0.08,12.17-12.79,5.16-13.72
				c-27.76-3.71-54.03-17.18-73.28-37.56c-20.81-22.04-32.36-51.18-32.56-81.48c-0.12-17.39,3.61-34.39,10.87-50.17
				c1.11-2.4,1.11-6.78-2.17-7.3c-3.49-0.56-6.18,3.9-7.33,6.42c-13.91,30.25-16.05,65.82-5.64,97.48
				c9.7,29.48,30.43,54.42,57.2,70.01c14.64,8.52,30.97,14.09,47.76,16.33c1.72-4.57,3.44-9.15,5.16-13.72
				c-43.45,0.64-86.91,0.22-130.36,0.88c-10.94,0.17-21.88,0.4-32.82,0.74c-10.58,0.33-21.42,1.64-31.98,1.32
				c-0.57-0.02-2.74-0.38-1.52-0.06c-0.36-0.09-0.77-0.33-1.07-0.55c-1.04-0.75,0.35,0.64-0.47-0.39c-0.5-0.63-1.27-2.14-0.92-1.32
				c-0.45-1.08-0.72-2.22-0.95-3.36c-0.12-0.61,0,0.42-0.11-0.88c-0.06-0.69-0.1-1.38-0.13-2.07c-0.06-1.64,0-3.28,0.1-4.92
				c0.06-0.89,0.22-2.43,0.48-4.25c0.29-2.07,0.66-4.14,1.07-6.19c1.87-9.32,4.63-18.09,7.93-27.06
				c8.22-22.37,19.2-43.87,32.59-63.58c13.8-20.3,31.25-40.49,54.13-50.63C936.62,1741.69,939.28,1728.05,931.13,1731.66
				L931.13,1731.66z"/>
		</g>
	</g>
	<g class="st14">
		<path d="M1074.9,910.73c18.07,56.01,36.15,112.01,54.22,168.02c2.96,9.16,6.47,19.06,14.63,24.17c8.75,5.47,20.56,3.57,29.27-1.96
			c8.71-5.53,15-14.06,21.09-22.39c-53.25-48.72-93.68-111.33-116.18-179.91"/>
		<g>
			<path d="M1069.7,915.21c12.29,38.07,24.57,76.14,36.86,114.22c6.01,18.62,11.86,37.31,18.04,55.88
				c4.69,14.1,12.75,28.31,29.68,27.73c19.25-0.65,32.12-16.24,42.59-30.56c2.14-2.93,4.16-7.48,0.99-10.39
				c-40.9-37.58-74.36-83.58-97.54-134.06c-6.55-14.27-12.26-28.92-17.18-43.83c-2.4-7.26-12.18,3.59-10.41,8.95
				c17.86,54.06,46.43,104.49,83.85,147.41c10.6,12.15,21.91,23.62,33.78,34.52c0.33-3.46,0.66-6.93,0.99-10.39
				c-8.32,11.38-18.37,25.36-34.21,24.62c-16.26-0.76-20.52-17.91-24.64-30.67c-11.17-34.61-22.34-69.22-33.51-103.83
				c-6.3-19.51-12.59-39.02-18.89-58.52C1077.76,899,1067.96,909.84,1069.7,915.21L1069.7,915.21z"/>
		</g>
	</g>
	<g class="st14">
		<path d="M1192.75,1117.98c29.99,102.51,60.02,205.13,97.88,305c12.32,32.51,29.15,68.32,62.17,79.21
			c21.45,7.08,45.52,1.46,64.91-10.13s34.88-28.6,49.53-45.8c-46.72,5.67-85.57-33.93-114.24-71.26
			c-66.35-86.38-123.37-179.92-169.75-278.47"/>
		<g>
			<path d="M1187.54,1122.46c23.08,78.9,46.18,157.83,72.87,235.6c6.72,19.59,13.67,39.09,20.91,58.5
				c5.7,15.3,11.48,30.63,19.13,45.09c14.3,27,37.34,50.59,69.9,50.54c42.42-0.07,74-31.98,99.64-62.01
				c2.48-2.91,4.78-11.34-1.49-10.64c-27.05,3-51.83-10.39-71.78-27.45c-21.88-18.71-39.09-42.3-56.1-65.32
				c-37.79-51.14-72.35-104.66-103.44-160.13c-17.55-31.32-33.97-63.26-49.28-95.74c-1.52-3.22-6.13,0.25-7.41,1.77
				c-2.23,2.65-3.41,6.35-1.89,9.56c27.76,58.9,59.24,116.03,94.3,170.9c17.53,27.43,35.93,54.31,55.18,80.56
				c17.29,23.58,34.73,47.44,56.43,67.22c22.52,20.52,50.17,35.6,81.46,32.12c-0.5-3.55-0.99-7.09-1.49-10.64
				c-22.12,25.9-48.61,53.69-84.86,55.96c-32.28,2.03-54.83-20.23-69.17-46.75c-7.28-13.48-12.68-27.84-18.03-42.16
				c-6.91-18.49-13.56-37.07-20.01-55.73c-12.89-37.32-24.93-74.92-36.52-112.66c-13.02-42.39-25.48-84.96-37.93-127.52
				C1195.82,1106.24,1185.96,1117.05,1187.54,1122.46L1187.54,1122.46z"/>
		</g>
	</g>
	<g class="st14">
		<path d="M1256.7,465.6c8.37,73.7,51.65,142.66,114.38,182.24c-24.34,7.28-49.78,10.85-75.19,10.55
			c-13.43-0.16-28.52-2.26-36.65-12.95c-6.02-7.91-6.63-18.54-7-28.48c-1.76-46.94-3.52-93.89-5.27-140.83"/>
		<g>
			<path d="M1251.3,468.6c6.84,58.58,34.26,114.03,76.85,154.9c12.03,11.54,25.11,21.89,39.18,30.83c1.67-4.41,3.35-8.83,5.02-13.24
				c-18.47,5.45-37.5,8.96-56.74,10.05c-14.66,0.83-32.99,2.33-45.94-6.07c-14.6-9.47-12.03-30.96-12.59-45.99
				c-0.73-19.51-1.46-39.01-2.19-58.52c-0.84-22.48-1.68-44.96-2.53-67.44c-0.12-3.27-2.66-4.59-5.51-3.18
				c-3.05,1.51-5.43,5.81-5.3,9.19c1.57,41.99,3.14,83.97,4.72,125.96c0.6,15.99-1.43,36.96,11.16,49.17
				c11.75,11.38,30.14,11.33,45.41,10.93c22.69-0.59,45.21-4.18,66.97-10.6c3.98-1.17,10.07-10.03,5.02-13.24
				c-48-30.51-84.55-77.97-102.31-131.98c-5-15.19-8.55-30.88-10.41-46.77C1261.08,453.75,1250.62,462.83,1251.3,468.6L1251.3,468.6
				z"/>
		</g>
	</g>
</g>
<g id="Ebene_15">
	<g class="st15">
		<g>
			<path class="st6" d="M1003.72,318.99c14.3,3.41,29,5.06,43.66,5.94c8.02,0.48,16.06,0.8,24.09,1.15
				c-0.26-0.01,5.9,0.27,2.98,0.13c-2.92-0.14,3.23,0.17,2.98,0.16c3.75,0.21,7.5,0.45,11.25,0.76c3.49,0.29,6.97,0.63,10.45,1.07
				c1,0.13,1.99,0.26,2.98,0.4c-4.52-0.64,0.51,0.13,1.2,0.25c2.49,0.44,4.97,0.94,7.44,1.5c1.48,0.34,2.96,0.69,4.43,1.08
				c-3.03-0.79,1.19,0.37,1.79,0.56c10.49,3.22,18.47,6.79,27.56,13.48c19.01,14.01,25.97,36.76,28.34,59.26
				c2.87,27.35,2.62,55.29,2.64,82.76c0.03,32.99-0.99,65.97-3.01,98.89c-0.16,2.59,4.23,4.35,5.86,4.95
				c4.27,1.57,9.64,2.12,14.14,2.05c4.28-0.07,19.58-0.21,20-7c1.85-30.29,2.87-60.63,3-90.98c0.12-28.77,0.21-57.87-2.24-86.55
				c-2.07-24.18-8.66-48.64-27.6-65.13c-19.15-16.68-44.32-24.4-69.04-28.05c-16.83-2.49-33.8-3.13-50.78-3.83
				c-6.21-0.26,4.01,0.23-2.19-0.1c-1.87-0.1-3.75-0.2-5.62-0.31c-4.36-0.26-8.72-0.58-13.08-1.01c-1.55-0.15-3.1-0.32-4.65-0.5
				c-0.65-0.08-6.57-0.92-3.55-0.44c-4.31-0.69-8.59-1.56-12.83-2.57c-8.03-1.92-20.16-2.14-27.36,2.51
				C989.08,314.24,999.73,318.04,1003.72,318.99L1003.72,318.99z"/>
		</g>
	</g>
	<g class="st15">
		<g>
			<path class="st6" d="M352.57,509.31c8.67,20.57,12.92,42.78,13.1,65.07c0.06,6.63,15.83,7.07,20,7
				c4.73-0.07,9.66-0.41,14.14-2.05c2.09-0.77,5.88-2.2,5.86-4.95c-0.2-23.8-5.3-46.88-14.53-68.79c-1.01-2.39-7.37-3.8-9.19-4.18
				c-4.85-1.03-10.49-1.28-15.41-0.71C362.26,501.2,349.74,502.58,352.57,509.31L352.57,509.31z"/>
		</g>
	</g>
	<g class="st15">
		<g>
			<path class="st6" d="M1310.02,489.68c21.11,7.49,36.35,32.08,35.42,56c-0.1,2.61,4.17,4.33,5.86,4.95
				c4.27,1.57,9.64,2.12,14.14,2.05c4.73-0.07,9.66-0.41,14.14-2.05c2.18-0.8,5.75-2.16,5.86-4.95c1.17-29.98-19.53-56.1-47.14-65.9
				c-8.55-3.03-19.75-3.13-28.28,0c-2.11,0.77-5.86,2.19-5.86,4.95C1304.16,487.44,1308.1,489,1310.02,489.68L1310.02,489.68z"/>
		</g>
	</g>
	<g class="st15">
		<g>
			<path class="st6" d="M817.77,455.31c46.43-0.88,92.86-1.76,139.29-2.65c11.94-0.23,23.88-0.45,35.82-0.68
				c5.14-0.1,10.28-0.21,15.42-0.29c4.36-0.07,9.31-0.66,13.62,0.07c-5.45-0.92,1.88,0.17,3.03,0.28c1,0.09,2,0.25,3.01,0.32
				c2.97,0.23-4.28-0.91,0.42,0.06c1.93,0.4,3.88,0.73,5.79,1.25c-0.68-0.18-2.71-0.9,0.16,0.14c1.36,0.49,2.74,0.94,4.07,1.52
				c-1.29-0.56,2.89,1.58,3.28,1.82c1.29,0.78,2.67,1.62,3.84,2.56c3.32,2.66,6.12,6.2,8.34,9.81c10.16,16.47,8.22,38.26,6.56,56.67
				c-0.23,2.57,4.31,4.38,5.86,4.95c4.27,1.57,9.64,2.12,14.14,2.05c4.45-0.07,19.39-0.18,20-7c1.66-18.4,2.59-37.52-5.07-54.8
				c-8.48-19.13-28.68-28.08-48.26-31.31c-23.14-3.82-46.8-2.24-70.13-1.8c-25.21,0.48-50.41,0.96-75.62,1.44
				c-27.86,0.53-55.72,1.06-83.58,1.59c-4.41,0.08-19.64,0.21-20,7C797.43,454.77,814.61,455.37,817.77,455.31L817.77,455.31z"/>
		</g>
	</g>
	<g>
		<g id="Ebene_3_1_">
			<g class="st16">
				<g>
					<path d="M1193.72,505.43c2.5,0.78,6.76-4.28,4.02-5.13C1195.25,499.52,1190.98,504.57,1193.72,505.43L1193.72,505.43z"/>
				</g>
			</g>
			<g class="st16">
				<path d="M1190.72,499.81c-11.32,46.39-22.64,92.78-33.96,139.17c53.39-19.43,106.78-38.87,160.17-58.3
					c29.77-10.83,61.46-32.56,92.12-21.21c31.77,11.77,69.36,23.17,99.72,34.41c73.14,27.09,132.42,41.4,209.32,54.44
					c23.53,3.99,64.57-5.61,86.17-15.57c26.31-12.13,34.89-31.7,45.42-58.56c40.83-104.16,55.44-216.96,58.15-328.87
					c0.67-27.75-0.42-58.39-19.31-78.92c-16.73-18.18-42.99-23.46-67.44-27.3c-193.92-30.51-392.23-32.61-586.52-6.2
					c-21.44,2.92-44.48,6.99-59.41,22.51c-11.79,12.25-18.47,29.18-20.13,46.08c-7.09,71.85-13.5,118.79-25.05,192.91
					c-3.26,20.92-5.49,54.63,8.76,70.45c13.94,15.48,33.31,21.39,52.88,25.18c0.62,3.55,1.25,7.1,1.87,10.66"/>
				<g>
					<path d="M1188.01,500.36c-11.32,46.39-22.64,92.78-33.96,139.17c-0.47,1.93,1.07,2.43,2.65,1.86
						c40.89-14.88,81.77-29.76,122.65-44.64c18.11-6.59,36.47-12.71,54.12-20.46c14.55-6.39,29.17-13.58,44.98-16.32
						c7.86-1.36,16.05-1.45,23.82,0.58c8.99,2.34,17.73,6.22,26.52,9.24c18.51,6.38,37.14,12.4,55.66,18.75
						c18.68,6.41,37.11,13.48,55.83,19.76c18.69,6.28,37.56,12.02,56.58,17.17c37.97,10.28,76.54,18.11,115.29,24.77
						c15.27,2.62,30.31,1.57,45.48-1.18c15.16-2.74,30.41-6.82,44.54-12.99c13.86-6.05,25.5-15.35,33.83-27.95
						c8.91-13.48,14.46-29.11,20.09-44.15c14.67-39.16,25.77-79.61,33.97-120.61c8.08-40.37,13.4-81.27,16.67-122.32
						c1.65-20.68,2.78-41.4,3.48-62.13c0.58-17.29,1.35-34.74-1.07-51.95c-2.12-15.17-7.07-30.29-17.42-41.98
						c-11.98-13.52-29.37-20.3-46.59-24.33c-18.86-4.41-38.28-6.75-57.44-9.42c-20.15-2.81-40.35-5.32-60.57-7.52
						c-80.43-8.74-161.37-12.66-242.24-11.74c-80.61,0.92-161.14,6.63-241.02,17.14c-16.52,2.17-33.51,4.11-48.95,10.7
						c-15.58,6.65-27.46,18.54-34.71,33.74c-8.31,17.45-8.73,36.78-10.72,55.67c-1.88,17.77-3.9,35.52-6.12,53.24
						c-4.54,36.31-9.91,72.5-15.53,108.65c-4.14,26.63-8.81,61.97,14.27,81.68c13.55,11.57,30.89,16.55,48.05,19.92
						c-0.44-0.3-0.87-0.61-1.3-0.91c0.62,3.55,1.25,7.1,1.87,10.66c0.48,2.73,5.93-0.99,5.48-3.56c-0.62-3.55-1.25-7.1-1.87-10.66
						c-0.11-0.62-0.81-0.81-1.3-0.91c-18.38-3.61-37.11-9.39-50.44-23.24c-9.92-10.3-11.95-25.42-12.22-39.07
						c-0.3-15.21,2.15-30.1,4.46-45.07c2.81-18.18,5.54-36.38,8.13-54.59c4.87-34.34,9.07-68.77,12.67-103.27
						c2-19.16,2.78-38.32,13.19-55.18c9.27-15,23.85-22.93,40.69-27.07c17.21-4.22,35.17-5.84,52.74-7.97
						c19.47-2.36,38.97-4.44,58.5-6.23c39.79-3.65,79.7-6.1,119.65-7.38c78.43-2.5,157.03-0.45,235.26,6.15
						c39.59,3.34,79.09,7.85,118.42,13.52c18.68,2.69,37.84,4.83,55.99,10.21c16.76,4.96,32.41,13.51,42.12,28.43
						c8.6,13.21,11.56,29.35,12.54,44.78c1.14,17.96,0.1,36.09-0.68,54.03c-1.77,40.71-5.26,81.36-11.19,121.67
						c-5.91,40.2-14.3,80.07-25.82,119.04c-5.79,19.58-12.37,38.93-19.79,57.96c-5.53,14.14-11.15,28.94-21.29,40.53
						c-9.77,11.17-23.36,17.23-37.24,21.79c-15.2,4.99-31.19,8.52-47.18,9.79c-16.94,1.35-33.31-2.4-49.9-5.47
						c-19.34-3.58-38.61-7.53-57.76-12.02c-37.37-8.77-74.17-19.77-110.32-32.7c-35.7-12.78-71.85-24.3-107.49-37.23
						c-7.43-2.69-14.59-4.97-22.57-5.14c-7.08-0.15-14.15,0.94-20.97,2.73c-15.18,3.98-29.27,11.02-43.62,17.17
						c-18.01,7.71-36.78,13.82-55.19,20.52c-19.72,7.18-39.44,14.36-59.16,21.53c-19.24,7-38.48,14.01-57.72,21.01
						c0.88,0.62,1.77,1.24,2.65,1.86c11.32-46.39,22.64-92.78,33.96-139.17C1194.36,495.43,1188.62,497.87,1188.01,500.36
						L1188.01,500.36z"/>
				</g>
			</g>
			<g class="st16">
				<g>
					<path d="M1736.92,792.17c2.5,0.78,6.76-4.28,4.02-5.13C1738.45,786.26,1734.18,791.32,1736.92,792.17L1736.92,792.17z"/>
				</g>
			</g>
		</g>
		<g id="Ebene_3_Kopie">
			<g>
				<g>
					<path class="st17" d="M1214.78,490.59c2.5,0.78,6.76-4.28,4.02-5.13C1216.31,484.68,1212.04,489.74,1214.78,490.59
						L1214.78,490.59z"/>
				</g>
			</g>
			<g>
				<path class="st18" d="M1211.78,484.98c-11.32,46.39-22.64,92.78-33.96,139.17c53.39-19.43,106.78-38.87,160.17-58.3
					c29.77-10.83,61.46-32.56,92.12-21.21c31.77,11.77,69.36,23.17,99.72,34.41c73.14,27.09,132.42,41.4,209.32,54.44
					c23.53,3.99,64.57-5.61,86.17-15.57c26.31-12.13,34.89-31.7,45.42-58.56c40.83-104.16,55.44-216.96,58.15-328.87
					c0.67-27.75-0.42-58.39-19.31-78.92c-16.73-18.18-42.99-23.46-67.44-27.3c-193.92-30.51-392.23-32.61-586.52-6.2
					c-21.44,2.91-44.48,6.99-59.41,22.5c-11.79,12.25-18.47,29.18-20.13,46.08c-7.09,71.85-13.5,118.79-25.05,192.91
					c-3.26,20.92-1.23,51.69,8.76,70.45c9.98,18.76,32.9,32.47,52.88,25.18c0.62,3.55,1.25,7.1,1.87,10.66"/>
				<g>
					<path class="st17" d="M1209.07,485.53c-11.32,46.39-22.64,92.78-33.96,139.17c-0.47,1.93,1.07,2.43,2.65,1.86
						c40.89-14.88,81.77-29.76,122.65-44.64c18.48-6.72,37.17-12.99,55.16-20.93c14.51-6.4,29.17-13.52,45-16.04
						c7.71-1.23,15.7-1.16,23.28,0.9c8.8,2.38,17.36,6.13,25.99,9.1c18.94,6.53,38,12.68,56.94,19.19
						c18.7,6.43,37.16,13.51,55.91,19.78c18.89,6.32,37.96,12.09,57.19,17.25c38.07,10.22,76.73,17.99,115.56,24.62
						c15.13,2.58,30.61,0.88,45.56-2c14.79-2.85,29.71-6.9,43.44-13.1c13.99-6.31,25.4-16.05,33.61-28.95
						c8.85-13.9,14.43-30,20.12-45.37c14.51-39.22,25.45-79.72,33.52-120.73c8.04-40.89,13.28-82.3,16.44-123.85
						c1.57-20.68,2.63-41.4,3.28-62.14c0.52-16.77,1.06-33.67-1.63-50.32c-2.49-15.42-8.25-30.64-19.55-41.88
						c-12.67-12.6-30.09-18.61-47.2-22.33c-19.51-4.25-39.49-6.69-59.26-9.4c-19.92-2.73-39.88-5.16-59.88-7.29
						c-80.93-8.63-162.36-12.37-243.7-11.21c-80.84,1.15-161.6,7.12-241.68,17.91c-16.24,2.19-33.01,4.65-47.7,12.28
						c-15.08,7.84-25.77,21.19-31.94,36.82c-3.47,8.78-5.05,17.87-5.99,27.23c-0.98,9.87-2,19.73-3.06,29.59
						c-1.89,17.58-3.94,35.13-6.17,52.67c-2.23,17.52-4.65,35.02-7.2,52.5c-2.79,19.18-6.25,38.31-8.69,57.54
						c-1.99,15.71-1.24,32.1,2.15,47.59c3.34,15.28,10.17,29.48,23.13,38.97c11.54,8.45,25.79,12.04,39.54,7.29
						c-0.89-0.21-1.78-0.42-2.67-0.63c0.62,3.55,1.25,7.1,1.87,10.66c0.48,2.73,5.93-0.99,5.48-3.56c-0.62-3.55-1.25-7.1-1.87-10.66
						c-0.22-1.23-1.93-0.89-2.67-0.63c-15.04,5.21-31.29-2.26-41.78-13.13c-11.12-11.52-15.5-27.43-17.41-42.89
						c-2.05-16.53-0.6-32.4,1.92-48.75c2.83-18.31,5.6-36.64,8.21-54.98c4.92-34.5,9.18-69.08,12.81-103.74
						c1.98-18.88,2.5-38.02,12.07-54.96c8.75-15.48,22.78-24.24,39.75-28.75c17.18-4.56,35.26-6.13,52.87-8.29
						c19.7-2.41,39.44-4.53,59.21-6.36c39.31-3.64,78.74-6.1,118.21-7.42c78.91-2.63,157.99-0.65,236.7,5.94
						c39.59,3.31,79.1,7.79,118.43,13.44c18.73,2.69,37.91,4.82,56.14,10.04c16.84,4.82,32.77,13.08,42.78,27.88
						c8.83,13.05,11.99,29.13,13.07,44.55c1.26,18.08,0.2,36.36-0.57,54.44c-1.74,40.46-5.17,80.87-11.01,120.95
						c-5.89,40.46-14.28,80.58-25.82,119.8c-5.77,19.59-12.32,38.95-19.73,57.97c-5.48,14.07-11.02,28.77-20.9,40.45
						c-9.6,11.34-23.01,17.57-36.87,22.22c-15.26,5.12-31.35,8.69-47.42,10.06c-17.22,1.47-33.8-2.27-50.68-5.4
						c-19.12-3.54-38.17-7.44-57.1-11.87c-37.36-8.74-74.15-19.7-110.28-32.61c-18.02-6.44-35.98-12.95-54.13-19.02
						c-18.06-6.04-36.16-11.97-54.06-18.46c-7.26-2.63-14.26-4.88-22.04-5.12c-7.26-0.23-14.51,0.88-21.5,2.72
						c-15.18,3.97-29.27,11.02-43.62,17.17c-18.01,7.71-36.78,13.82-55.19,20.52c-19.72,7.18-39.44,14.36-59.16,21.53
						c-19.24,7-38.48,14.01-57.72,21.01c0.88,0.62,1.77,1.24,2.65,1.86c11.32-46.39,22.64-92.78,33.96-139.17
						C1215.42,480.59,1209.68,483.04,1209.07,485.53L1209.07,485.53z"/>
				</g>
			</g>
			<g>
				<g>
					<path class="st17" d="M1757.99,777.34c2.5,0.78,6.76-4.28,4.02-5.13C1759.51,771.43,1755.24,776.48,1757.99,777.34
						L1757.99,777.34z"/>
				</g>
			</g>
		</g>
		<g id="Ebene_2_1_">
			<g>
				<g>
					<path d="M1212.9,477.23c-13.02-2.46-26.37-5.75-37.82-12.66c-5.52-3.33-10.53-7.68-14.11-13.06
						c-4.04-6.06-6.12-13.49-7.5-20.55c-2.98-15.23-1.83-30.96-0.31-46.27c1.79-17.95,3.77-35.89,5.67-53.84
						c3.88-36.78,7.77-73.57,11.65-110.35c3.21-30.35,5.98-67.17,33.66-86.09c11.92-8.15,26.18-12.11,40.29-14.62
						c15.68-2.8,31.66-4.14,47.52-5.64c35.11-3.32,70.34-5.46,105.59-6.68c70.06-2.43,140.22-1.18,210.27,1.99
						c69.94,3.16,139.78,8.24,209.59,13.54c16.86,1.28,34.01,1.83,50.68,4.78c15.78,2.79,31.15,8.86,41.47,21.58
						c18.34,22.61,17.53,55.79,18.06,83.17c1.37,69.74-5.74,139.61-21.13,207.6c-7.4,32.66-16.33,65.28-28.04,96.68
						c-9.83,26.36-22.89,53.15-44.49,71.97c-22.59,19.69-52.06,25.17-81.4,23.19c-32.27-2.19-64.15-11.1-95.36-19.09
						c-66.7-17.07-132.22-38.18-197.44-60.13c-16.63-5.6-33.24-11.23-49.86-16.86c-2.48-0.84-6.77,4.2-4.02,5.13
						c68,23.03,135.97,46.29,205.12,65.67c33.91,9.5,68.13,18.67,102.68,25.56c29.02,5.79,59.87,8.98,88.42-0.52
						c59.44-19.79,80.83-87.55,96.56-141.42c20.06-68.72,31.57-139.96,34.21-211.53c0.67-18.14,0.77-36.31,0.29-54.46
						c-0.4-15.06-0.85-30.27-3.8-45.1c-2.62-13.16-7.49-26.31-16.62-36.46c-10.63-11.83-25.73-17.45-41.06-20.24
						c-17.12-3.11-34.77-3.64-52.09-4.95c-18.24-1.38-36.48-2.75-54.72-4.07c-36.26-2.63-72.53-5.08-108.83-7.11
						c-72.23-4.04-144.59-6.44-216.93-5.26c-36.22,0.59-72.42,2.07-108.55,4.69c-17.69,1.28-35.35,2.82-52.99,4.67
						c-15.28,1.6-30.72,3.12-45.58,7.14c-13.75,3.72-27.07,9.68-37.54,19.47c-11.47,10.74-18.4,25.09-22.44,40.07
						c-4.3,15.93-5.72,32.47-7.44,48.83c-1.99,18.9-3.99,37.8-5.99,56.71c-3.92,37.12-8.53,74.23-11.66,111.42
						c-1.28,15.28-1.62,30.97,2.39,45.93c3.65,13.64,11.22,23.83,23.66,30.76c11.4,6.35,24.38,9.42,37.1,11.83
						C1212.49,483.08,1216.33,477.88,1212.9,477.23L1212.9,477.23z"/>
				</g>
			</g>
			<g>
				<g>
					<path d="M1218.36,448.61c-5.95,23.1-12.12,46.14-18.3,69.18c-6.61,24.64-13.25,49.28-19.8,73.94
						c-3.3,12.43-6.58,24.87-9.79,37.32c-0.32,1.25,0.46,2.53,1.93,2.08c35.93-10.81,71.53-22.69,106.7-35.7
						c36.24-13.41,72.06-28.01,107.04-44.38c18.68-8.74,37.11-18.01,55.16-27.99c1.12-0.62,2.58-2.43,2.07-3.8
						c-0.56-1.52-2.44-0.77-3.4-0.24c-32.28,17.84-65.84,33.37-99.87,47.63c-35.41,14.84-71.43,28.27-107.83,40.58
						c-19.33,6.54-38.78,12.75-58.32,18.63c0.65,0.7,1.29,1.39,1.93,2.08c5.95-23.1,12.12-46.14,18.3-69.18
						c6.61-24.64,13.25-49.28,19.8-73.94c3.3-12.43,6.58-24.87,9.79-37.32c0.36-1.4-0.51-2.31-1.93-2.08
						C1220.35,445.65,1218.73,447.16,1218.36,448.61L1218.36,448.61z"/>
				</g>
			</g>
			<g>
				<g>
					<path d="M1889.78,569.3c-9.81,26.05-27.87,48.88-50.89,64.66c-23.69,16.24-52.27,24.41-81.06,23.85
						c-16.43-0.32-32.71-3.43-48.07-9.29c-2.44-0.93-6.77,4.08-4.02,5.13c28.48,10.87,60.29,12.49,89.71,4.78
						c29.11-7.63,55.1-24.43,74.46-47.23c10.84-12.77,19.39-27.34,25.29-42.99c0.53-1.4-0.63-2.29-1.93-2.08
						C1891.65,566.36,1890.32,567.85,1889.78,569.3L1889.78,569.3z"/>
				</g>
			</g>
		</g>
		<g id="Ebene_5">
			
				<ellipse transform="matrix(0.2982 -0.9545 0.9545 0.2982 565.9553 1537.5476)" class="st19" cx="1328.59" cy="383.89" rx="33.33" ry="32.17"/>
			
				<ellipse transform="matrix(0.2982 -0.9545 0.9545 0.2982 622.9041 1703.1821)" class="st19" cx="1469.71" cy="427.98" rx="33.33" ry="32.17"/>
			
				<ellipse transform="matrix(0.2982 -0.9545 0.9545 0.2982 676.369 1858.684)" class="st19" cx="1602.19" cy="469.38" rx="33.33" ry="32.17"/>
		</g>
	</g>
</g>
<g id="Ebene_16">
</g>
</svg>
