<?xml version="1.0" encoding="utf-8"?>
<!-- Generator: Adobe Adobe Illustrator 24.2.0, SVG Export Plug-In . SVG Version: 6.00 Build 0)  -->
<svg version="1.1" xmlns="http://www.w3.org/2000/svg" xmlns:xlink="http://www.w3.org/1999/xlink" x="0px" y="0px"
	 viewBox="0 0 1700.79 1700.79" style="enable-background:new 0 0 1700.79 1700.79;" xml:space="preserve">
<style type="text/css">
	.st0{fill:#C8354F;}
	.st1{fill:#F2C159;}
	.st2{fill:#F2C058;}
	.st3{fill:#808E9C;}
	.st4{fill:#7F8E9C;stroke:#000000;stroke-width:16.166;stroke-miterlimit:10;}
	.st5{opacity:0.2196;}
	.st6{fill:#FFFFFF;}
	.st7{opacity:0.149;}
	.st8{fill:#F4F5E9;}
	.st9{fill:#F4F6E7;}
</style>
<g id="Ebene_10">
</g>
<g id="Ebene_4">
</g>
<g id="Ebene_5">
</g>
<g id="Ebene_9">
</g>
<g id="Ebene_6">
</g>
<g id="Ebene_7">
	<g>
		<g>
			<path d="M204.87,432.16c7.41,90.17,14.83,180.34,22.24,270.52c0.75,9.08,1.83,18.94,8.18,25.66c6.6,6.99,16.98,8.57,26.5,9.63
				c187.2,20.98,377.76,4.4,556.68-48.44c105.18-31.07,206.56-74.54,314.28-96.4c107.72-21.86,226.26-19.98,322.79,35.37
				c-4.81-77.85-9.63-155.71-14.44-233.56c-0.99-16.05-2.24-32.9-11-46.61c-11.06-17.31-31.68-25.95-51.31-32.22
				c-128.44-41.02-267.49-24.94-396.23,9.2s-252.03,85.7-381.77,116.24s-270.76,38.75-395.52-12.7"/>
			<g>
				<path d="M196.78,432.16c4.52,55.01,9.05,110.03,13.57,165.04c2.24,27.3,4.49,54.6,6.73,81.9c1.67,20.28-0.8,49.83,20.5,60.93
					c9.62,5.01,20.7,5.67,31.29,6.8c13.37,1.43,26.77,2.67,40.18,3.72c26,2.04,52.06,3.35,78.14,3.95
					c52.05,1.2,104.18-0.46,156.05-4.98c103.73-9.03,206.19-29.45,305.47-60.79c98.42-31.06,194.69-70.74,296.51-89.82
					c90.68-16.99,189.38-16.94,275.11,20.86c10.65,4.69,21.02,9.96,31.13,15.71c5.06,2.88,12.55-0.7,12.16-6.98
					c-3.38-54.66-6.76-109.33-10.14-163.99c-1.67-27.02-2.6-54.21-5.16-81.17c-2.19-23.08-9.53-43.13-28.75-57.2
					c-17.86-13.07-40.93-19.08-62-24.65c-24.45-6.46-49.38-10.95-74.49-13.88c-50.81-5.93-102.25-4.83-153.02,0.94
					c-102.83,11.69-201.72,42.46-299.58,74.92c-97.97,32.5-196.11,66.73-298.26,83.62c-96.09,15.89-196.8,16.54-290.3-13.45
					c-11.67-3.74-23.16-7.97-34.5-12.61c-4.07-1.67-8.84,1.81-9.94,5.65c-1.33,4.62,1.63,8.3,5.65,9.94
					c89.89,36.81,189.03,43.37,284.82,32.78c100.42-11.1,197.16-40.75,292.73-72.35c96.83-32.02,193.54-66.09,294.21-84.16
					c98.61-17.7,201.93-20.08,298.44,9.96c18.76,5.84,40.47,13.36,50.91,31.36c5.84,10.07,7.42,21.94,8.3,33.36
					c1.02,13.21,1.68,26.45,2.5,39.67c3.33,53.83,6.66,107.67,9.99,161.5c0.82,13.25,1.64,26.5,2.46,39.75
					c4.05-2.33,8.11-4.65,12.16-6.98c-81.03-46.11-177-56.04-268.39-45.73c-100.13,11.29-195.08,46.37-289.9,78.59
					c-48.63,16.52-97.57,31.99-147.47,44.22c-50.05,12.26-100.8,21.81-151.91,28.41c-102.52,13.25-206.5,15.25-309.45,5.98
					c-11.89-1.07-24.01-1.79-35.78-3.79c-10.58-1.8-17.82-5.76-20.24-16.75c-2.63-11.97-2.52-24.88-3.52-37.07
					c-1.09-13.24-2.18-26.47-3.26-39.71c-4.49-54.6-8.98-109.2-13.47-163.8c-1.09-13.24-2.18-26.47-3.26-39.71
					C212.1,421.86,195.93,421.77,196.78,432.16L196.78,432.16z"/>
			</g>
		</g>
		<g>
			<path class="st0" d="M237.63,757.61c8.59,138.11,20.24,305.01,28.41,312.05c7.36,6.33,32.01,10.48,41.65,11.14
				c157.04,10.8,245.48,25.25,449.65-39.23c121.03-38.23,238.06-88.06,361.21-119.49c123.16-31.43,262.9-34.87,372.02,33.66
				c-12.89-88.61-14.94-271.88-34.74-299.53c-21.86-30.53-144.06-117.02-453.82-10.68c-106.63,36.61-214.26,52.9-324.56,77.7
				C532.1,755.92,400.7,765.4,237.5,745.53"/>
			<g>
				<path class="st0" d="M229.55,757.61c3.54,56.89,7.23,113.77,11.6,170.6c3.17,41.25,5.89,82.82,12.14,123.74
					c1.15,7.56,1.69,18.56,7.81,24.03c7.61,6.8,20.29,8.88,29.96,10.65c10.31,1.89,20.67,2.52,31.11,3.27
					c44.36,3.17,88.71,7.04,133.19,8.13c43.89,1.08,87.66-1.19,131.14-7.35c55.52-7.87,110.03-21.81,163.55-38.36
					c124.33-38.45,244.36-90.29,370.66-122.44c106.9-27.21,227.4-34.47,329.79,13.27c12.4,5.78,24.4,12.33,36,19.57
					c6.62,4.13,12.81-2.67,11.87-9.13c-6.91-47.89-9.15-96.5-12.6-144.72c-3.16-44.09-4.79-89.56-14.37-132.85
					c-2.26-10.21-5.19-20.07-11.93-28.22c-4.24-5.12-9.22-9.59-14.44-13.68c-18.05-14.17-39.08-24.06-60.78-31.29
					c-82.75-27.55-175.58-18.27-259.21-0.38c-33.63,7.2-66.84,16.32-99.6,26.8c-35.19,11.26-70,23.15-105.76,32.58
					c-72.11,19.01-145.56,32.23-218.42,47.91c-66.94,14.4-133.57,27.87-201.9,33.77c-68.79,5.94-137.98,5.44-206.76-0.36
					c-18.41-1.55-36.78-3.48-55.11-5.7c-4.37-0.53-8.04,4.09-8.08,8.08c-0.05,4.8,3.77,7.56,8.08,8.08
					c70.2,8.49,140.96,12.3,211.64,9.3c66.55-2.83,132.73-11.66,197.99-24.92c35.2-7.15,70.2-15.26,105.39-22.5
					c35.68-7.34,71.4-14.5,106.95-22.46c35.93-8.05,71.7-16.93,106.96-27.56c35.3-10.64,69.9-23.35,105.44-33.24
					c54.98-15.3,111.45-26.58,168.55-29.43c38.68-1.93,77.91-0.14,115.7,8.86c24.75,5.89,46.56,13.72,67.8,27.2
					c1.91,1.21,3.8,2.47,5.65,3.76c0.76,0.53,1.52,1.07,2.27,1.62c0.56,0.41,3.69,2.81,1.77,1.3c2.84,2.23,5.61,4.56,8.23,7.06
					c2.12,2.02,4.07,4.17,6,6.37c0.27,0.3,1.63,2.06,0.58,0.69c-1.04-1.36,0.24,0.28,0.44,0.62c0.52,0.87,1.07,1.71,1.57,2.59
					c0.19,0.33,0.33,0.68,0.51,1.01c1.03,2-0.11-0.45,0.42,0.91c5.36,13.64,7.26,28.9,9.17,43.33c3.04,23,4.95,46.15,6.75,69.27
					c3.87,49.76,6.45,99.66,11.66,149.31c1.09,10.42,2.35,20.81,3.84,31.18c3.96-3.04,7.92-6.09,11.87-9.13
					c-96.3-60.04-214.87-65.48-324.01-46.2c-60.34,10.66-119.26,29.18-177.23,48.69c-60.86,20.48-120.99,43.06-181.74,63.88
					c-100.96,34.59-204.32,63.91-311.66,66.75c-42.52,1.13-85-1.41-127.39-4.45c-22.67-1.63-45.53-2.59-68.12-4.99
					c-9.63-1.02-20.1-2.82-29.05-6.62c-1.2-0.51-2.62-1.56-3.69-1.86c-0.74-0.21,1.68,1.94,0.52,0.58
					c-0.01-0.01,0.53,2.03,0.06,0.05c-0.22-0.9-0.54-1.78-0.78-2.67c-3-11.46-4.04-23.32-5.37-35c-2.4-21.04-4.28-42.13-6.04-63.23
					c-4.58-54.67-8.27-109.42-11.79-164.17c-0.9-13.96-1.78-27.93-2.65-41.9C245.07,747.28,228.9,747.21,229.55,757.61
					L229.55,757.61z"/>
			</g>
		</g>
		<g>
			<path class="st1" d="M273.09,1095.88c6.56,88.48-4.42,147.75,21.81,263.76c90.89,22.22,186.19,24.86,277.28,7.68
				c106.01-20,204.61-66.03,309.14-92.07c198.43-49.42,409.29-24.95,612.66,10.92c10.7,1.89,23.36,3.22,30.67-4.52
				c6.5-6.89,5.57-17.73,4.24-27.2c-11.17-79.29-22.34-158.59-33.51-237.88c-2.61-18.55-5.59-38.01-16.99-53.16
				c-12.66-16.82-33.45-25.34-53.47-31.97c-120.06-39.76-249.56-32.65-367.34,8.21C921.11,987,788.22,1048.73,646.31,1078.1
				c-139.29,28.83-253.22,26.59-380.16,1.16"/>
			<g>
				<path class="st2" d="M265.01,1095.88c4.77,65.34,0.87,130.9,9.52,196.01c3.12,23.49,7.39,46.78,12.58,69.9
					c0.59,2.65,3.03,5.01,5.65,5.65c92.82,22.51,190.05,25.29,283.88,7.24c92.11-17.72,178.74-54.9,268.45-81.18
					c91.38-26.78,185.86-37.99,280.95-38c96.32,0,192.36,10.59,287.43,25.4c23.79,3.71,47.54,7.68,71.27,11.83
					c17.48,3.06,41.6,7.58,50.49-12.81c3.83-8.79,2.73-18.38,1.46-27.61c-1.71-12.39-3.49-24.78-5.24-37.17
					c-3.49-24.78-6.98-49.56-10.47-74.34c-3.49-24.78-6.98-49.56-10.47-74.34c-3.31-23.51-5.65-47.42-10.36-70.7
					c-4.17-20.58-13.06-38.85-30.09-51.69c-16.43-12.4-36.89-18.79-56.37-24.65c-88.58-26.64-183.27-28.58-273.72-10.58
					c-45.81,9.12-89.64,24.39-133.36,40.53c-44.34,16.36-88.35,33.62-132.61,50.21c-89.11,33.39-179.42,63.26-273.53,78.88
					c-88.61,14.71-178.78,16.4-267.78,4c-21.57-3.01-43.03-6.74-64.39-11c-10.16-2.03-14.51,13.55-4.3,15.59
					c85.61,17.07,172.68,24.3,259.82,17.14c92.69-7.61,183.15-29.41,271.1-59.11c87.67-29.61,173.02-65.57,260.36-96.09
					c85.48-29.86,176.49-42.72,266.72-32.17c22.64,2.65,45.12,6.9,67.2,12.56c20.32,5.21,41.66,10.8,60.26,20.73
					c8.31,4.44,16.14,9.98,22,17.46c6.44,8.22,9.88,18.32,12.2,28.37c5.1,22.03,7.05,45,10.2,67.38
					c6.86,48.73,13.73,97.47,20.59,146.2c1.69,11.98,3.37,23.95,5.06,35.93c1.16,8.27,4.86,20.68,0.66,28.62
					c-3.97,7.51-15.39,5.71-22.25,4.62c-11.68-1.85-23.31-4.07-34.97-6.04c-92.89-15.68-186.54-28.34-280.75-32.16
					c-92.9-3.77-186.56,1.31-277.59,21.04c-89.87,19.48-174.76,55.6-262.99,80.77c-44.72,12.76-90.24,22.18-136.63,25.96
					c-46.42,3.78-93.28,2.63-139.45-3.48c-23.05-3.05-45.9-7.46-68.49-12.94c1.88,1.88,3.76,3.76,5.65,5.65
					c-8.43-37.53-14.3-75.5-16.74-113.9c-1.97-30.98-1.83-62.02-2.42-93.05c-0.35-18.24-1.03-36.47-2.36-54.66
					C280.42,1085.56,264.25,1085.48,265.01,1095.88L265.01,1095.88z"/>
			</g>
		</g>
		<g>
			<path class="st3" d="M63.65,347.57c0.5,14.71-0.96,47.61-0.46,62.32c33.16-9.1,65.77-15.31,102.29-14.86
				c-1.4-40.83-5.87-60.8-5.87-60.8s0.72-7.15-96.26,13.02"/>
			<g>
				<path d="M55.56,347.57c0.64,20.77-1.1,41.55-0.46,62.32c0.16,5.23,5.04,9.21,10.23,7.79c32.81-8.96,66.04-14.88,100.14-14.57
					c4.26,0.04,8.24-3.74,8.08-8.08c-0.68-18.95-1.98-37.95-5.01-56.68c-0.25-1.57-0.5-3.14-0.83-4.7c-0.2-0.99-0.67-3.71-0.03,0.58
					c-0.36-2.39-0.76-4.24-2.57-6.01c-3.02-2.96-7.62-3.23-11.59-3.29c-8.59-0.12-17.26,1.22-25.74,2.4
					c-22.35,3.11-44.52,7.56-66.6,12.14c-10.18,2.11-5.87,17.7,4.3,15.59c19.55-4.06,39.15-7.95,58.89-11
					c8.66-1.34,16.81-2.62,26.32-2.92c1.92-0.06,3.84,0.16,5.74,0.11c1.4-0.03-2.57-0.66-0.47-0.03c1.35,0.41,0.46,0.31-0.95-0.49
					c-2.09-1.18-2.48-3.56-3.49-6.49c0.6,1.74,0.73,4.33,1.05,6.16c3.01,17.22,4.16,36.26,4.82,54.64c2.69-2.69,5.39-5.39,8.08-8.08
					c-35.46-0.32-70.32,5.83-104.44,15.15c3.41,2.6,6.82,5.2,10.23,7.79c-0.64-20.77,1.1-41.55,0.46-62.32
					C71.41,337.19,55.24,337.15,55.56,347.57L55.56,347.57z"/>
			</g>
		</g>
		<g>
			<path class="st3" d="M85.71,406.34c27.24,423.33,55.64,854.18,82.88,1277.51c26.8-4.36,49.92-5.91,79.1,1.96
				c-33.09-422.61-60.12-863.36-93.21-1285.97"/>
			<g>
				<path d="M77.62,406.34c10.7,166.32,21.51,332.64,32.33,498.95c10.81,165.97,21.63,331.95,32.4,497.92
					c6.07,93.54,12.12,187.09,18.14,280.63c0.36,5.66,4.85,8.66,10.23,7.79c25.28-4.06,49.88-4.58,74.8,1.96
					c4.74,1.24,10.65-2.43,10.23-7.79c-6.49-82.89-12.7-165.8-18.74-248.73c-6.13-84.16-12.09-168.33-17.98-252.5
					c-5.89-84.05-11.71-168.11-17.59-252.16c-5.86-83.82-11.76-167.65-17.82-251.46c-6.04-83.47-12.23-166.93-18.69-250.38
					c-0.79-10.25-1.59-20.5-2.39-30.74c-0.81-10.3-16.98-10.39-16.17,0c6.49,82.89,12.7,165.8,18.74,248.73
					c6.13,84.16,12.09,168.33,17.98,252.5c5.89,84.05,11.71,168.11,17.59,252.16c5.86,83.82,11.76,167.65,17.82,251.46
					c6.04,83.47,12.23,166.93,18.69,250.38c0.79,10.25,1.59,20.5,2.39,30.74c3.41-2.6,6.82-5.2,10.23-7.79
					c-27.85-7.31-55.19-6.49-83.39-1.96c3.41,2.6,6.82,5.2,10.23,7.79c-10.7-166.32-21.51-332.64-32.33-498.95
					c-10.81-165.97-21.63-331.95-32.4-497.92c-6.07-93.54-12.12-187.09-18.14-280.63C93.12,396.01,76.95,395.93,77.62,406.34
					L77.62,406.34z"/>
			</g>
		</g>
		<g>
			<g>
				<path d="M86.69,315.87c2.66,8.47,1.42,17.7,4.09,26.2c3.1,9.89,18.71,5.67,15.59-4.3c-2.66-8.47-1.42-17.7-4.09-26.2
					C99.18,301.68,83.57,305.9,86.69,315.87L86.69,315.87z"/>
			</g>
		</g>
		<g>
			<g>
				<path d="M114.84,312.63c0.34,2.08,0.19,4.45-0.05,6.83c-0.35,3.37,0.11,6.64,0.66,9.97c0.71,4.31,6.05,6.72,9.94,5.65
					c4.57-1.26,6.36-5.62,5.65-9.94c-0.34-2.08-0.19-4.45,0.05-6.83c0.35-3.37-0.11-6.64-0.66-9.97c-0.71-4.31-6.05-6.72-9.94-5.65
					C115.91,303.94,114.12,308.3,114.84,312.63L114.84,312.63z"/>
			</g>
		</g>
		<g>
			<g>
				<path d="M163.65,408.81c69.91,42.43,151.13,61.19,232.36,63.16c84.13,2.04,167.56-13.32,248.03-36.89
					c89-26.06,174.95-61.14,262.66-91.05c82.29-28.06,166.6-51.37,253.65-57.7c82.28-5.98,167.3,2.55,243.13,36.77
					c9.41,4.25,18.63,8.88,27.69,13.82c9.14,4.99,17.3-8.97,8.16-13.96c-73.16-39.92-156.53-55.6-239.35-54.52
					c-85.72,1.11-169.97,19.38-251.49,44.88c-88.48,27.68-174.33,62.99-262.44,91.77c-81.48,26.62-165.13,47.22-251.11,50.42
					c-80.93,3.02-163.79-8.98-236.6-45.9c-9.03-4.58-17.86-9.53-26.52-14.78C162.89,389.44,154.76,403.41,163.65,408.81
					L163.65,408.81z"/>
			</g>
		</g>
		<g>
			<g>
				<path d="M218.52,1356.18c70.16,34.36,150.25,43.32,227.51,39.12c82.9-4.51,162.48-25.78,241.14-51.16
					c85.42-27.56,170.12-58.38,258.84-73.76c90.09-15.62,182.17-16.79,273.23-10.84c92.36,6.03,184.03,19.42,275.41,33.72
					c11.23,1.76,22.45,3.53,33.68,5.3c10.18,1.61,14.56-13.97,4.3-15.59c-90.73-14.34-181.59-28.54-273.14-36.53
					c-90.58-7.9-182.09-9.64-272.47,1.64c-89.38,11.15-174.56,37.74-259.78,65.92c-79.91,26.42-160.37,52.96-244.43,62.11
					c-76.96,8.38-157.66,5.2-230.61-22.74c-8.68-3.32-17.16-7.07-25.51-11.16C217.37,1337.67,209.17,1351.6,218.52,1356.18
					L218.52,1356.18z"/>
			</g>
		</g>
		<g>
			<g>
				<path d="M1434.92,334.63c11.33,124.12,22.67,248.24,34,372.36c11.27,123.46,22.54,246.91,33.82,370.37
					c6.36,69.69,12.73,139.39,19.09,209.08c0.4,4.35,3.43,8.08,8.08,8.08c4.06,0,8.48-3.71,8.08-8.08
					c-11.33-124.12-22.67-248.24-34-372.36c-11.27-123.46-22.54-246.91-33.82-370.37c-6.36-69.69-12.73-139.39-19.09-209.08
					c-0.4-4.35-3.43-8.08-8.08-8.08C1438.94,326.55,1434.52,330.26,1434.92,334.63L1434.92,334.63z"/>
			</g>
		</g>
		<g>
			<g>
				<path d="M183.54,424.82c12.41,123.37,24.81,246.75,37.22,370.12c12.34,122.71,24.68,245.42,37.02,368.13
					c6.94,68.98,13.87,137.97,20.81,206.95c0.44,4.34,3.4,8.08,8.08,8.08c4.03,0,8.52-3.71,8.08-8.08
					c-12.41-123.37-24.81-246.75-37.22-370.12c-12.34-122.71-24.68-245.42-37.02-368.13c-6.94-68.98-13.87-137.97-20.81-206.95
					c-0.44-4.34-3.4-8.08-8.08-8.08C187.59,416.73,183.1,420.45,183.54,424.82L183.54,424.82z"/>
			</g>
		</g>
		<g>
			<g>
				<path d="M232.93,745.36c88.44,10.73,177.84,12.97,266.7,6.53c88.74-6.43,176.92-21.29,262.76-44.69
					c85.19-23.23,166.29-57.67,249.56-86.58c41.46-14.39,83.61-27.12,126.76-35.42c34.81-6.7,70.28-9.08,105.69-7.54
					c70.51,3.06,143.21,21.31,201.59,62.23c6.97,4.89,13.65,10.13,20.08,15.71c7.83,6.78,19.31-4.61,11.43-11.43
					c-54.81-47.47-126.18-71.28-197.31-79.77c-35.74-4.26-72.03-4.53-107.81-0.56c-41.19,4.57-81.66,14.75-121.21,26.9
					c-85.24,26.2-166.85,62.82-252.1,89c-85.45,26.25-173.54,43.97-262.49,52.82c-89.73,8.93-180.34,9.05-270.09,0.32
					c-11.2-1.09-22.38-2.33-33.55-3.68c-4.37-0.53-8.04,4.1-8.08,8.08C224.8,742.08,228.62,744.84,232.93,745.36L232.93,745.36z"/>
			</g>
		</g>
		<g>
			<g>
				<path d="M264,1087.06c86.27,16.22,174.51,21.5,262.08,15.18c87.07-6.29,172.58-24.16,255.24-52.1
					c82.24-27.8,161.62-63.25,243.57-91.85c74.74-26.08,151.78-45.89,231.26-48.35c74.2-2.29,150.15,10.24,215.44,47.01
					c8.06,4.54,15.91,9.43,23.57,14.61c8.64,5.84,16.74-8.16,8.16-13.96c-62.58-42.26-137.4-61.29-212.28-63.8
					c-77.89-2.61-155.2,12.11-229.29,35.25c-82.89,25.9-162.41,61.08-243.84,91.02c-82.24,30.24-166.59,52.89-253.84,62.52
					c-87.59,9.67-176.6,7.95-263.69-5.6c-10.73-1.67-21.42-3.53-32.09-5.53C258.13,1069.56,253.77,1085.14,264,1087.06L264,1087.06z
					"/>
			</g>
		</g>
		
			<ellipse transform="matrix(0.3332 -0.9429 0.9429 0.3332 -172.859 265.3029)" class="st4" cx="101.14" cy="254.86" rx="58.7" ry="60.91"/>
		<g>
			<g>
				<path d="M109.12,333.68c2.07-0.39,4.15-0.77,6.22-1.16c1.89-0.35,3.89-2.11,4.83-3.71c1.01-1.73,1.44-4.29,0.81-6.23
					c-0.63-1.96-1.84-3.84-3.71-4.83c-2.01-1.06-3.99-1.23-6.23-0.81c-2.07,0.39-4.15,0.77-6.22,1.16
					c-1.89,0.35-3.89,2.11-4.83,3.71c-1.01,1.73-1.44,4.29-0.81,6.23c0.63,1.96,1.84,3.84,3.71,4.83
					C104.9,333.93,106.88,334.1,109.12,333.68L109.12,333.68z"/>
			</g>
		</g>
		<g class="st5">
			<path d="M202.39,427.6c0,0-116.87,905.7,1321.64,794.54c4.54,21.81-0.02,44.53,6.44,68.63
				c-132.47-22.04-224.41-46.33-341.43-41.9s-242.81-10.18-350.94,32.15c-206.02,80.66-384.27,93.86-449.97,102
				c-20.47,2.54-85.1-0.11-101.47-13.01c-17-13.4,53.85,148.93-95.05-945.21"/>
			<g>
				<path d="M194.31,427.6c-1.04,8.07-1.45,16.24-1.8,24.36c-0.94,21.85-0.51,43.77,0.92,65.59c2.15,32.76,6.6,65.42,13.23,97.57
					c8.14,39.52,19.68,78.34,34.59,115.83c17.47,43.9,39.33,85.99,65.61,125.26c30.32,45.31,66.19,86.86,106.38,123.68
					c46.89,42.95,99.43,79.6,155.17,110.1c67.91,37.16,140.54,65.47,214.85,86.93c91.79,26.51,186.39,42.68,281.38,52.14
					c119.56,11.91,240.07,13,360.02,7.36c33.15-1.56,66.27-3.65,99.36-6.2c-2.6-1.98-5.2-3.96-7.79-5.93
					c4.39,22.71,0.72,45.99,6.44,68.63c3.31-3.31,6.63-6.63,9.94-9.94c-70.62-11.78-140.77-26.88-211.85-35.81
					c-33.1-4.16-66.41-6.71-99.78-6.89c-36.09-0.2-72.19,1.56-108.3,1.49c-72.96-0.15-146.97-1.57-218.66,14.1
					c-37.08,8.11-71.63,23.13-107.33,35.59c-34.74,12.13-69.94,22.92-105.49,32.41c-96.52,25.78-195.48,41.43-294.84,51.26
					c-22.28,2.2-46.01,0.6-68.02-3.16c-9.19-1.57-18.97-3.31-26.93-8.43c2.33,1.5-0.62-0.57-1.51-1.07
					c-4.42-2.49-10.17-1.55-12.87,3c-5.1,8.6,5.89,19.28,13.72,11.56c5.3-5.22,5.15-15.95,5.64-22.64
					c1.55-21.33,0.7-42.9-0.17-64.23c-1.88-46.3-5.57-92.53-9.64-138.67c-7.16-81.03-15.93-161.91-25.26-242.71
					c-14.37-124.55-30.23-248.93-46.74-373.22c-5-37.64-10.07-75.27-15.18-112.89c-0.59-4.36-6.13-6.65-9.94-5.65
					c-4.68,1.23-6.23,5.64-5.65,9.94c18.2,133.77,35.75,267.62,51.89,401.65c10.76,89.35,20.96,178.77,29.65,268.34
					c5.21,53.68,9.99,107.44,13.12,161.29c1.59,27.38,3,54.89,2.37,82.33c-0.15,6.47-0.48,12.93-1.11,19.37
					c-0.05,0.49-0.13,0.98-0.17,1.47c-0.19,2.04,0.47-2.52,0.06-0.42c-0.17,0.84-0.26,1.7-0.42,2.54c-0.23,1.17-0.68,2.34-0.87,3.51
					c-0.34,2.09,1.35-2.09-0.05-0.05c1.31-1.91,3.24-3.49,6.2-3.47c2.92,0.02,5.42,1.83,6.46,3.55c0.61,1.01,0.96,3,0.95,3.21
					c-0.11,4.2-4.08,7.8-9.03,6.67c1.54,0.35-2.88-0.78-0.44-0.08c-2.35-0.67-1.76-1.16,0.85,0.64c1.49,1.03,3.05,1.87,4.68,2.65
					c4.58,2.18,9.45,3.74,14.36,4.98c12.05,3.04,24.55,4.51,36.91,5.56c36.06,3.04,71.22-1.97,106.96-6.27
					c51.56-6.2,102.9-14.14,153.76-24.7c68.95-14.31,136.97-33.18,203.25-57c34.61-12.44,68.05-26.03,104.3-33.17
					c35.02-6.9,70.71-9.66,106.34-10.86c36.15-1.22,72.32-0.76,108.48-0.75c35.13,0.01,70.27-1.95,105.39-1.44
					c65.2,0.95,129.5,11.39,193.52,22.98c35.68,6.46,71.33,13.11,107.1,19.07c5.99,1,11.56-3.53,9.94-9.94
					c-5.69-22.51-2.05-45.92-6.44-68.63c-0.63-3.23-4.49-6.19-7.79-5.93c-125.84,9.68-252.39,12.83-378.43,5.27
					c-99.78-5.99-199.34-18.74-296.66-41.87c-78-18.54-154.69-43.72-227.12-78.28c-59.03-28.17-115.67-62.66-166.16-103.9
					c-42.47-34.69-82.29-75.56-114.44-118.43c-28.98-38.64-53.64-80.46-73.49-124.49c-8.29-18.4-16.03-38-23.02-58.62
					c-6.43-18.95-12.02-38.19-16.78-57.62c-4.32-17.64-7.95-35.44-10.89-53.36c-0.68-4.12-1.32-8.25-1.92-12.38
					c-0.28-1.93-0.55-3.86-0.82-5.8c-0.37-2.67,0.04,0.32-0.17-1.24c-0.15-1.12-0.29-2.24-0.44-3.35
					c-0.97-7.6-1.82-15.21-2.54-22.84c-2.3-24.36-3.36-48.86-2.86-73.33c0.23-11.63,1.4-23.14,1.99-34.73c0.03-0.5,0.11-1,0.17-1.49
					C211.8,417.31,195.62,417.41,194.31,427.6L194.31,427.6z"/>
			</g>
		</g>
		<g class="st5">
			<path d="M81.55,206.15c-11.24,37.14,2.91,81,34.08,105.64c-25.89-0.53-51.08-17.31-61.52-40.97s-5.51-52.86,12.02-71.29"/>
			<g>
				<path d="M73.76,204c-11.92,40.63,3.25,87.06,36.16,113.5c1.91-4.6,3.81-9.2,5.72-13.8c-22.76-0.74-44.35-14.94-53.93-35.64
					c-9.48-20.49-5.13-46.36,10.15-62.83c7.07-7.62-4.34-19.08-11.43-11.43c-20.09,21.66-25.37,54.13-13.28,81.09
					c11.88,26.48,39.75,44.05,68.49,44.97c6.55,0.21,11.28-9.33,5.72-13.8c-28.63-23.01-42.45-62.18-32-97.78
					C92.28,198.29,76.68,194.02,73.76,204L73.76,204z"/>
			</g>
		</g>
		<g class="st5">
			<path d="M79.34,362.46c24.66,13.51,52.95,20.26,80.82,19.3c-23.46,4.06-46.91,8.13-70.37,12.19c-4.51,0.78-9.28,1.54-13.64-0.04
				c-6.82-2.48-10.58-10.2-10.58-17.33c0-7.13,2.94-13.83,5.84-20.29"/>
			<g>
				<path d="M75.26,369.44c26.02,14.06,55.31,21.25,84.9,20.4c-0.72-5.29-1.43-10.58-2.15-15.88c-20.52,3.56-41.05,7.11-61.57,10.67
					c-6.31,1.09-17.05,5.3-21.15-1.72c-4.11-7.02,0.16-15.93,3.11-22.54c1.78-3.98,1.16-8.69-2.9-11.06
					c-3.45-2.02-9.27-1.11-11.06,2.9c-4.62,10.37-9.29,21.77-5.57,33.2c3.59,11.05,13.14,18.18,24.91,17.43
					c12.82-0.81,25.81-4.16,38.46-6.35c13.36-2.31,26.71-4.63,40.07-6.94c9.03-1.56,6.85-16.14-2.15-15.88
					c-26.78,0.77-53.16-5.45-76.74-18.19C74.26,350.53,66.09,364.49,75.26,369.44L75.26,369.44z"/>
			</g>
		</g>
		<g class="st5">
			<path d="M103.77,408.75c24.1,255.69,48.21,511.37,72.31,767.06c15.98,169.51,32.04,339.57,69.72,506.18
				c-20.91,10.96-48.56-2.48-61.32-22.75c-12.76-20.27-14.52-45.03-15.93-68.65c-23.51-394.67-47.02-789.35-70.54-1184.02"/>
			<g>
				<path d="M95.69,408.75c15.83,167.93,31.66,335.85,47.49,503.78c7.88,83.54,15.75,167.08,23.63,250.62
					c7.73,82,15.35,164.03,25.3,245.8c11.24,92.35,25.43,184.4,45.89,275.19c1.24-3.04,2.48-6.09,3.71-9.13
					c-13.24,6.52-29.19,0.82-39.85-8.12c-13.72-11.52-19.52-28.9-22.39-46.05c-3.28-19.56-3.42-39.76-4.59-59.52
					c-1.31-22.07-2.63-44.14-3.94-66.2c-5.23-87.85-10.47-175.69-15.7-263.54c-5.26-88.27-10.52-176.54-15.78-264.81
					c-5.23-87.85-10.47-175.69-15.7-263.54c-5.23-87.85-10.47-175.69-15.7-263.54c-0.66-11.03-1.31-22.07-1.97-33.1
					c-0.62-10.34-16.79-10.41-16.17,0c5.41,90.82,10.82,181.63,16.23,272.45c5.39,90.39,10.77,180.79,16.16,271.18
					s10.77,180.79,16.16,271.18c5.41,90.82,10.82,181.63,16.23,272.45c1.34,22.49,2.68,44.98,4.02,67.48
					c1.24,20.89,1.67,42.05,5,62.75c2.86,17.81,9.04,35.88,21.53,49.31c10.75,11.55,25.96,19.65,41.84,20.55
					c7.99,0.45,15.65-1.44,22.79-4.95c3.29-1.62,4.46-5.81,3.71-9.13c-36.27-160.89-52.55-325.22-68.02-489.14
					c-15.76-166.98-31.48-333.96-47.22-500.94c-8.83-93.67-17.66-187.34-26.49-281C110.88,398.49,94.71,398.38,95.69,408.75
					L95.69,408.75z"/>
			</g>
		</g>
		<g class="st5">
			<g>
				<path class="st6" d="M1331.61,411.82c4.32,83.78,8.65,167.55,12.97,251.33s8.65,167.55,12.97,251.33
					c2.44,47.21,4.87,94.41,7.31,141.62c0.73,14.05,11.87,27.62,26.94,26.94c13.98-0.63,27.72-11.87,26.94-26.94
					c-4.32-83.78-8.65-167.55-12.97-251.33s-8.65-167.55-12.97-251.33c-2.44-47.21-4.87-94.41-7.31-141.62
					c-0.73-14.05-11.87-27.62-26.94-26.94C1344.58,385.5,1330.84,396.74,1331.61,411.82L1331.61,411.82z"/>
			</g>
		</g>
		<g class="st5">
			<g>
				<path class="st6" d="M113.91,262.41c14.09,0,27.6-12.39,26.94-26.94c-0.65-14.6-11.84-26.94-26.94-26.94
					c-14.09,0-27.6,12.39-26.94,26.94C87.62,250.07,98.81,262.41,113.91,262.41L113.91,262.41z"/>
			</g>
		</g>
		<g class="st5">
			<g>
				<path class="st6" d="M107.62,433.32c0.07,6.1,0.13,12.2,0.2,18.3c0.15,14.09,12.28,27.6,26.94,26.94
					c14.47-0.65,27.11-11.84,26.94-26.94c-0.07-6.1-0.13-12.2-0.2-18.3c-0.15-14.09-12.28-27.6-26.94-26.94
					C120.09,407.03,107.45,418.22,107.62,433.32L107.62,433.32z"/>
			</g>
		</g>
	</g>
	<g>
		<g id="Ebene_3_1_">
			<g class="st7">
				<g>
					<path d="M792.12,902.82c3.38,0,6.7-9.1,2.99-9.1C791.73,893.73,788.41,902.82,792.12,902.82L792.12,902.82z"/>
				</g>
			</g>
			<g class="st7">
				<path d="M786.25,896.17c3.91,71.1,7.83,142.2,11.74,213.3c58.38-51.43,116.77-102.85,175.15-154.28
					c32.55-28.67,63.28-73.71,105.48-71.19c43.74,2.63,94.51,2.13,136.3,4.63c100.7,6.04,179.35,0.03,279.25-15.61
					c30.57-4.79,77.5-36.71,100.32-60.51c27.79-28.98,30.83-60.66,33.46-103.6c10.23-166.5-15.24-333.63-55.03-494.19
					c-9.87-39.82-23.03-82.97-54.25-103.8c-27.65-18.44-62.09-14.28-93.73-8.88c-251.03,42.83-496.53,128.08-726.08,252.12
					c-25.33,13.69-52.18,29.75-64.63,58.48c-9.83,22.69-11.54,49.77-7.08,74.58c18.95,105.47,29.14,175.17,43.45,285.87
					c4.04,31.25,14.28,80.24,37.96,96.43c23.17,15.83,49.35,15.64,74.96,12.33c2.14,4.78,4.28,9.56,6.41,14.34"/>
				<g>
					<path d="M783.12,898.16c3.91,71.1,7.83,142.2,11.74,213.3c0.16,2.95,2.26,2.98,3.98,1.47
						c44.71-39.38,89.42-78.76,134.13-118.14c19.81-17.45,40.1-34.33,58.88-53.22c15.48-15.58,30.76-32.32,49.21-43.26
						c9.17-5.44,19.24-9.2,29.61-9.77c11.99-0.66,24.27,0.96,36.28,1.36c25.3,0.85,50.6,1.13,75.9,1.94
						c25.51,0.82,50.98,2.68,76.5,3.3c25.48,0.62,50.97,0.41,76.43-0.72c50.81-2.25,101.42-8.26,151.8-16.02
						c19.85-3.06,38-11.25,55.66-21.91c17.65-10.65,34.89-23.25,49.94-38.32c14.76-14.79,25.55-33.2,30.97-54.85
						c5.79-23.15,6.62-47.89,7.77-71.81c3.01-62.29,1.11-124.84-4.58-186.86c-5.6-61.09-14.8-121.7-26.58-181.61
						c-5.94-30.18-12.53-60.19-19.66-90.03c-5.94-24.88-11.73-50.07-21.34-73.5c-8.47-20.65-20.4-40-37.68-52.04
						c-19.99-13.93-44.06-15.83-66.87-13.91c-24.97,2.11-49.83,7.43-74.51,12.14c-25.95,4.97-51.84,10.38-77.64,16.25
						c-102.61,23.33-203.99,53.77-303.41,91.06c-99.1,37.17-196.28,81.13-290.78,131.64c-19.55,10.44-39.76,20.76-56.27,37.01
						c-16.66,16.4-26.74,38.62-29.81,63.5c-3.53,28.54,3.41,56.26,8.23,84.05c4.53,26.14,8.88,52.32,12.98,78.54
						c8.4,53.72,15.71,107.65,22.72,161.63c5.16,39.77,13.02,92.17,49.09,109.96c21.18,10.45,44.49,9.83,66.97,6.99
						c-0.65-0.24-1.3-0.48-1.96-0.72c2.14,4.78,4.28,9.56,6.41,14.34c1.64,3.67,6.93-4.04,5.38-7.51
						c-2.14-4.78-4.28-9.56-6.41-14.34c-0.37-0.83-1.31-0.8-1.96-0.72c-24.07,3.04-49.41,3.14-71.2-10.65
						c-16.22-10.26-24.54-30.88-30.14-50.21c-6.24-21.52-8.95-43.82-11.88-66.16c-3.55-27.14-7.18-54.27-11.02-81.36
						c-7.23-51.07-15.32-101.97-24.18-152.7c-4.92-28.18-11.34-55.8-4.99-84.45c5.65-25.49,20.59-43.27,39.77-56.65
						c19.6-13.67,41.15-23.96,62-34.82c23.11-12.03,46.37-23.66,69.78-34.9c47.69-22.91,95.99-44.15,144.79-63.74
						c95.81-38.46,193.58-70.5,292.65-95.91c50.14-12.86,100.61-24.01,151.33-33.44c24.09-4.48,48.55-9.95,73.02-10.38
						c22.6-0.39,45.2,4.81,62.93,21.74c15.7,14.99,25.58,36.65,32.74,58.19c8.33,25.06,14.03,51.35,19.99,77.24
						c13.51,58.76,24.88,118.2,33.1,178.24c8.2,59.88,13.22,120.39,14.04,181.01c0.41,30.46-0.25,60.94-2.08,91.34
						c-1.37,22.6-2.6,46.17-10.65,67.19c-7.75,20.25-22.18,34.93-37.55,47.59c-16.83,13.87-35.2,26.01-54.43,34.93
						c-20.38,9.46-42.02,11.4-63.68,14.41c-25.25,3.5-50.54,6.46-75.91,8.58c-49.5,4.14-99.14,4.85-148.72,2.51
						c-48.98-2.31-98.02-2.64-146.98-5.19c-10.21-0.53-19.92-0.58-29.83,2.73c-8.79,2.94-17.09,7.63-24.82,13.22
						c-17.2,12.43-31.87,28.72-47.21,43.86c-19.24,18.99-40.05,36.04-60.18,53.77c-21.57,19-43.13,37.99-64.7,56.98
						c-21.04,18.53-42.08,37.07-63.12,55.6c1.33,0.49,2.66,0.98,3.98,1.47c-3.91-71.1-7.83-142.2-11.74-213.3
						C789.06,888.3,782.91,894.34,783.12,898.16L783.12,898.16z"/>
				</g>
			</g>
			<g class="st7">
				<g>
					<path d="M1572.9,1069.48c3.38,0,6.7-9.1,2.99-9.1C1572.51,1060.39,1569.19,1069.48,1572.9,1069.48L1572.9,1069.48z"/>
				</g>
			</g>
		</g>
		<g id="Ebene_3_Kopie">
			<g>
				<g>
					<path class="st8" d="M812.39,872.33c3.38,0,6.7-9.1,2.99-9.1C811.99,863.23,808.68,872.33,812.39,872.33L812.39,872.33z"/>
				</g>
			</g>
			<g>
				<path class="st9" d="M806.52,865.67c3.91,71.1,7.83,142.2,11.74,213.3c58.38-51.43,116.77-102.85,175.15-154.28
					c32.55-28.67,63.28-73.71,105.48-71.19c43.74,2.63,94.51,2.13,136.3,4.63c100.7,6.04,179.35,0.03,279.25-15.61
					c30.57-4.79,77.5-36.71,100.32-60.51c27.79-28.98,30.83-60.66,33.46-103.6c10.23-166.5-15.24-333.63-55.03-494.19
					c-9.87-39.82-23.03-82.97-54.25-103.8c-27.65-18.44-62.09-14.28-93.73-8.88c-251.03,42.83-496.53,128.08-726.08,252.12
					c-25.33,13.69-52.18,29.74-64.63,58.48c-9.83,22.69-11.54,49.77-7.08,74.58c18.95,105.47,29.14,175.17,43.45,285.87
					c4.04,31.25,18.41,74.15,37.96,96.43c19.55,22.27,53.11,31.61,74.96,12.33c2.14,4.78,4.28,9.56,6.41,14.34"/>
				<g>
					<path class="st8" d="M803.39,867.66c3.91,71.1,7.83,142.2,11.74,213.3c0.16,2.95,2.26,2.98,3.98,1.47
						c44.71-39.38,89.42-78.76,134.13-118.14c20.21-17.8,40.86-35.04,60-54.34c15.44-15.57,30.79-32.23,49.35-42.86
						c9.04-5.18,18.93-8.63,29.07-9.08c11.78-0.52,23.79,1.01,35.57,1.4c25.88,0.87,51.78,1.15,77.65,2
						c25.55,0.84,51.05,2.71,76.61,3.3c25.74,0.59,51.49,0.32,77.21-0.88c50.91-2.38,101.61-8.51,152.08-16.35
						c19.66-3.06,38.11-12.37,55.45-23.11c17.15-10.64,33.99-23.05,48.55-37.99c14.82-15.21,25.15-34.15,30.3-56.17
						c5.56-23.74,6.24-49.15,7.33-73.56c2.78-62.31,0.67-124.84-5.19-186.84c-5.84-61.8-15.34-123.11-27.46-183.69
						c-6.03-30.16-12.71-60.13-19.91-89.95c-5.82-24.11-11.67-48.42-21.41-70.93c-9.02-20.85-21.99-39.96-40.27-50.94
						c-20.49-12.31-44.29-13.11-66.85-10.8c-25.71,2.63-51.31,8.04-76.74,12.98c-25.63,4.98-51.2,10.4-76.69,16.26
						c-103.18,23.72-205.1,54.62-305.02,92.46c-99.3,37.6-196.65,82.04-291.29,133.04c-19.2,10.34-38.93,21.31-54.12,38.71
						c-15.59,17.87-23.63,41.65-25.22,66.65c-0.9,14.05,0.65,27.7,3.11,41.43c2.59,14.49,5.14,28.99,7.63,43.5
						c4.44,25.87,8.68,51.79,12.69,77.75c4,25.95,7.76,51.94,11.36,77.97c3.95,28.56,7.06,57.34,11.46,85.8
						c3.59,23.25,10.84,46.26,20.99,66.81c10.02,20.28,23.92,37.45,43.56,45.2c17.5,6.9,36.47,5.68,51.6-7.21
						c-1.18,0.1-2.36,0.2-3.54,0.29c2.14,4.78,4.28,9.56,6.41,14.34c1.64,3.67,6.93-4.04,5.38-7.51c-2.14-4.78-4.28-9.56-6.41-14.34
						c-0.74-1.65-2.73-0.4-3.54,0.29c-16.55,14.1-39.48,10.7-56.62-0.11c-18.16-11.46-29.7-32.17-38.02-53.32
						c-8.9-22.62-13.24-45.88-16.42-70.27c-3.57-27.34-7.21-54.66-11.06-81.95c-7.23-51.31-15.31-102.46-24.19-153.43
						c-4.83-27.77-11.58-55.26-6.29-83.64c4.83-25.93,18.76-44.66,37.96-58.62c19.44-14.14,41.15-24.42,62.04-35.33
						c23.38-12.2,46.92-24,70.6-35.4c47.11-22.67,94.8-43.72,143-63.16c96.34-38.86,194.68-71.21,294.34-96.85
						c50.13-12.9,100.6-24.1,151.3-33.56c24.14-4.5,48.64-10,73.15-10.68c22.64-0.63,45.47,4.04,63.53,20.67
						c15.93,14.66,26.03,36.15,33.3,57.63c8.53,25.19,14.27,51.69,20.28,77.78c13.46,58.4,24.79,117.47,33.05,177.14
						c8.33,60.23,13.44,121.1,14.32,182.09c0.43,30.46-0.19,60.94-2,91.34c-1.34,22.47-2.51,45.88-10.19,66.9
						c-7.47,20.42-21.62,35.26-36.93,48.05c-16.85,14.08-35.33,26.32-54.63,35.43c-20.69,9.76-42.59,11.8-64.61,14.85
						c-24.95,3.46-49.96,6.39-75.03,8.51c-49.47,4.17-99.08,4.93-148.64,2.63c-24.71-1.15-49.39-2.43-74.12-3
						c-24.61-0.56-49.23-0.95-73.82-2.24c-9.97-0.52-19.47-0.6-29.16,2.51c-9.04,2.9-17.56,7.71-25.48,13.43
						c-17.2,12.41-31.87,28.72-47.21,43.86c-19.24,18.99-40.05,36.04-60.18,53.77c-21.57,19-43.13,37.99-64.7,56.98
						c-21.04,18.53-42.08,37.07-63.12,55.6c1.33,0.49,2.66,0.98,3.98,1.47c-3.91-71.1-7.83-142.2-11.74-213.3
						C809.32,857.81,803.18,863.84,803.39,867.66L803.39,867.66z"/>
				</g>
			</g>
			<g>
				<g>
					<path class="st8" d="M1593.17,1038.99c3.38,0,6.7-9.1,2.99-9.1C1592.77,1029.89,1589.45,1038.99,1593.17,1038.99
						L1593.17,1038.99z"/>
				</g>
			</g>
		</g>
		<g id="Ebene_2_1_">
			<g>
				<g>
					<path d="M804.91,854.14c-17.01,2.29-34.75,3.54-51.54-1.2c-8.1-2.29-15.96-6.25-22.45-12.32
						c-7.32-6.84-12.75-16.49-17.18-25.93c-9.55-20.37-14.2-43.27-18.22-65.76c-4.72-26.36-9.18-52.79-13.76-79.19
						c-9.39-54.11-18.78-108.22-28.16-162.32c-7.74-44.65-18.52-98.31,8.35-137.58c11.57-16.91,27.63-28.89,44.07-38.75
						c18.27-10.96,37.47-19.98,56.45-29.17c42.04-20.34,84.68-39.07,127.71-56.49c85.51-34.63,172.56-64.07,260.21-90.72
						c87.51-26.62,175.64-50.46,263.82-73.97c21.29-5.68,42.67-12.53,64.38-15.75c20.55-3.05,41.85-1.25,59.48,12.28
						c31.34,24.04,43.13,71.65,54.35,110.41c28.57,98.71,46.74,201.37,53.95,305.03c3.47,49.8,5.02,100.22,2.67,150.15
						c-1.97,41.92-7.75,85.87-27.14,122.29c-20.29,38.09-54.53,59.01-91.5,69.24c-40.66,11.24-83.43,12.74-125.02,15.25
						c-88.88,5.36-177.86,4.46-266.8,2.22c-22.68-0.57-45.35-1.21-68.02-1.83c-3.38-0.09-6.74,9-2.99,9.1
						c92.78,2.54,185.61,5.42,278.4,2.26c45.5-1.55,91.26-3.73,136.54-9.29c38.04-4.67,77.34-13.85,108.89-40.08
						c65.71-54.62,65.99-160.65,64.63-244.35c-1.74-106.78-15-213.36-39.34-316.45c-6.17-26.13-13.05-52.04-20.64-77.68
						c-6.3-21.27-12.72-42.73-22.08-62.53c-8.31-17.58-19.39-34.13-34.56-44.53c-17.68-12.12-38.48-13.39-58.46-10.55
						c-22.32,3.18-44.31,10.29-66.18,16.13c-23.04,6.15-46.07,12.31-69.09,18.55c-45.75,12.39-91.45,25.04-137.02,38.3
						c-90.68,26.38-180.89,55.17-269.69,89.02c-44.46,16.95-88.56,35.17-132.13,54.97c-21.33,9.69-42.53,19.75-63.58,30.22
						c-18.24,9.08-36.69,18.11-53.48,30.45c-15.53,11.42-29.67,25.83-38.81,44.43c-10.02,20.4-13.03,43.91-12.24,67.04
						c0.84,24.59,5.46,48.79,9.64,72.84c4.83,27.81,9.65,55.61,14.48,83.42c9.47,54.6,18.09,109.5,28.57,163.85
						c4.31,22.33,9.94,44.82,20.65,64.34c9.76,17.8,23.03,28.95,41.05,33.28c16.52,3.97,33.71,2.57,50.34,0.34
						C806.66,862.66,809.4,853.54,804.91,854.14L804.91,854.14z"/>
				</g>
			</g>
			<g>
				<g>
					<path d="M800.62,810.95c1.56,35.54,2.83,71.1,4.09,106.66c1.35,38.03,2.65,76.07,4.07,114.11c0.72,19.17,1.46,38.34,2.31,57.5
						c0.09,1.93,1.55,3.39,3.19,2.11c40.17-31.38,79.51-64.14,117.89-98.32c39.54-35.22,78.11-71.96,114.97-110.83
						c19.68-20.76,38.84-42.16,57.26-64.4c1.15-1.39,2.25-4.61,1.09-6.34c-1.27-1.91-3.31-0.01-4.29,1.17
						c-32.95,39.77-68.38,76.82-104.87,112.27c-37.97,36.89-77.24,72.04-117.4,105.77c-21.33,17.92-42.93,35.41-64.78,52.48
						c1.06,0.7,2.12,1.41,3.19,2.11c-1.56-35.54-2.83-71.1-4.09-106.66c-1.35-38.03-2.65-76.07-4.07-114.11
						c-0.72-19.17-1.46-38.34-2.31-57.5c-0.09-2.16-1.52-3.06-3.19-2.11C801.94,805.85,800.52,808.72,800.62,810.95L800.62,810.95z"
						/>
				</g>
			</g>
			<g>
				<g>
					<path d="M1675.59,684.09c-2.07,41.47-15.55,82.01-37.86,114.72c-22.97,33.66-55.09,58.02-90.83,70.03
						c-20.4,6.86-41.68,9.67-62.89,8.15c-3.37-0.24-6.78,8.83-2.99,9.1c39.33,2.81,79.2-9.04,112.53-33.11
						c32.97-23.82,58.57-59.3,73.67-100.39c8.45-23,13.39-47.56,14.63-72.47c0.11-2.22-1.66-2.98-3.19-2.11
						C1676.76,679.07,1675.7,681.78,1675.59,684.09L1675.59,684.09z"/>
				</g>
			</g>
		</g>
		<g id="Ebene_4_1_">
			<g>
				<g>
					<path d="M953.51,323.45c-2.48,63.71-4.97,127.42-7.45,191.13c-2.48,63.71-4.97,127.42-7.45,191.13
						c-1.39,35.71-2.78,71.43-4.17,107.14c-0.19,4.75,17.16,5.21,17.36,0c2.48-63.71,4.97-127.42,7.45-191.13
						c2.48-63.71,4.97-127.42,7.45-191.13c1.39-35.71,2.78-71.43,4.17-107.14C971.06,318.7,953.71,318.25,953.51,323.45
						L953.51,323.45z"/>
				</g>
			</g>
			<g>
				<g>
					<path d="M1183.24,323.54c-3.9,63.39-7.8,126.77-11.7,190.16s-7.8,126.77-11.7,190.16c-2.19,35.65-4.39,71.31-6.58,106.97
						c-0.28,4.63,17.04,5.3,17.36,0c3.9-63.39,7.8-126.77,11.7-190.16c3.9-63.39,7.8-126.77,11.7-190.16
						c2.19-35.65,4.39-71.31,6.58-106.97C1200.89,318.91,1183.56,318.25,1183.24,323.54L1183.24,323.54z"/>
				</g>
			</g>
			<g>
				<g>
					<path d="M963.1,571.07c53.92-2.9,108.03-2.69,161.89,0.93c15.29,1.03,30.57,2.31,45.83,3.85c2.19,0.22,4.53,0.17,6.69-0.35
						c0.92-0.23,3.43-0.87,3.99-2.08c1.48-3.22-4.64-4.14-6.07-4.28c-55.12-5.56-110.51-7.85-165.83-6.75
						c-15.51,0.31-31.01,0.89-46.5,1.72c-1.92,0.11-8.53,0.06-8.68,3.48C954.27,570.77,961.73,571.14,963.1,571.07L963.1,571.07z"/>
				</g>
			</g>
			<g>
				<g>
					<path d="M1294.61,566.07c-3.44,65.92-6.88,131.84-10.31,197.76c-0.96,18.46-1.93,36.91-2.89,55.37
						c-0.24,4.69,17.09,5.26,17.36,0c3.44-65.92,6.88-131.84,10.31-197.76c0.96-18.46,1.93-36.91,2.89-55.37
						C1312.22,561.39,1294.89,560.82,1294.61,566.07L1294.61,566.07z"/>
				</g>
			</g>
			<g>
				<g>
					<path d="M1316.66,437.37c-7.91-9.35-23.15-9.23-32.86-4.01c-8.55,4.6-13.54,14.56-15.92,24.67
						c-2.21,9.39-1.94,19.57,1.67,28.45c3.95,9.73,12.34,15.38,21.33,17.2c20.21,4.11,41.38-5.52,51.23-26.63
						c8.15-17.49,8.2-39.45-1.74-56.04c-12.84-21.44-37.19-28.82-58.7-24.75c-2.03,0.38-6.08,2.34-3.11,4.76
						c3.03,2.48,8.48,1.89,11.88,1.25c-1.1,0.21,0.86-0.11,1.17-0.15c1.64-0.24-0.7-0.07,0.96-0.08c0.41,0,0.82,0,1.22,0
						c1.41-0.01-1.27-0.13,0.14-0.01c0.95,0.07,1.9,0.17,2.84,0.32c-1.12-0.18,0.83,0.2,1.15,0.27c0.8,0.19,1.6,0.38,2.39,0.64
						c0.77,0.25,3.14,1.21,4.44,1.83c6.09,2.9,11.6,7.63,15.89,13.34c9.31,12.37,12.07,29.03,8.72,44.76
						c-3.14,14.69-12.5,29.42-25.42,33.7c-0.39,0.13-1.37,0.37-1.99,0.52c-0.9,0.22-0.19,0.07,0.01,0.04
						c-0.41,0.07-0.83,0.1-1.24,0.16c-1.01,0.14,0.06,0.03,0.24,0.03c-0.41,0.02-0.82,0.01-1.23,0.01c-1.04,0,0.11,0.03,0.26,0.02
						c-0.27-0.03-0.54-0.06-0.81-0.09c0.6,0.13,0.62,0.13,0.07,0.01c-2.19-0.46-5.02-1.93-7.2-4.03c-5.3-5.13-7.72-13-8.15-20.73
						c-0.5-8.98,1.4-18.27,5.54-25.94c2.08-3.85,4.9-7.78,8.63-9.63c0.65-0.32,0.78-0.13,1.09-0.35c0.61-0.42,0.31,0.04-0.07,0.03
						c-0.32,0-1.32-0.08-1.66,0.04c-0.64,0.23-0.39-0.23,0.3,0.29c0.82,0.62,1.5,1.13,2.2,1.94c2.45,2.9,7.44,2.8,10.68,2.43
						C1311.57,441.54,1318.89,440.01,1316.66,437.37L1316.66,437.37z"/>
				</g>
			</g>
		</g>
	</g>
</g>
<g id="Ebene_3">
</g>
</svg>
