<?xml version="1.0" encoding="utf-8"?>
<!-- Generator: Adobe Adobe Illustrator 24.2.0, SVG Export Plug-In . SVG Version: 6.00 Build 0)  -->
<svg version="1.1" xmlns="http://www.w3.org/2000/svg" xmlns:xlink="http://www.w3.org/1999/xlink" x="0px" y="0px"
	 viewBox="0 0 1700.79 1700.79" style="enable-background:new 0 0 1700.79 1700.79;" xml:space="preserve">
<style type="text/css">
	.st0{fill:#C8354F;}
	.st1{fill:#F2C159;}
	.st2{fill:#F2C058;}
	.st3{fill:#808E9C;}
	.st4{fill:#7F8E9C;stroke:#000000;stroke-width:16.166;stroke-miterlimit:10;}
	.st5{opacity:0.2196;}
	.st6{fill:#FFFFFF;}
	.st7{opacity:0.149;}
	.st8{fill:#C9316B;}
	.st9{fill:#F4F5E8;}
	.st10{fill:#6379B8;}
	.st11{fill:#F3C057;stroke:#000000;stroke-width:3.7538;stroke-miterlimit:10;}
	.st12{fill:#C8316B;}
	.st13{fill:#6478B7;}
	.st14{fill:#6378B7;}
</style>
<g id="Ebene_10">
</g>
<g id="Ebene_4">
</g>
<g id="Ebene_5">
</g>
<g id="Ebene_9">
</g>
<g id="Ebene_6">
</g>
<g id="Ebene_7">
	<g>
		<g>
			<path d="M204.87,432.16c7.41,90.17,14.83,180.34,22.24,270.52c0.75,9.08,1.83,18.94,8.18,25.66c6.6,6.99,16.98,8.57,26.5,9.63
				c187.2,20.98,377.76,4.4,556.68-48.44c105.18-31.07,206.56-74.54,314.28-96.4c107.72-21.86,226.26-19.98,322.79,35.37
				c-4.81-77.85-9.63-155.71-14.44-233.56c-0.99-16.05-2.24-32.9-11-46.61c-11.06-17.31-31.68-25.95-51.31-32.22
				c-128.44-41.02-267.49-24.94-396.23,9.2s-252.03,85.7-381.77,116.24s-270.76,38.75-395.52-12.7"/>
			<g>
				<path d="M196.78,432.16c4.52,55.01,9.05,110.03,13.57,165.04c2.24,27.3,4.49,54.6,6.73,81.9c1.67,20.28-0.8,49.83,20.5,60.93
					c9.62,5.01,20.7,5.67,31.29,6.8c13.37,1.43,26.77,2.67,40.18,3.72c26,2.04,52.06,3.35,78.14,3.95
					c52.05,1.2,104.18-0.46,156.05-4.98c103.73-9.03,206.19-29.45,305.47-60.79c98.42-31.06,194.69-70.74,296.51-89.82
					c90.68-16.99,189.38-16.94,275.11,20.86c10.65,4.69,21.02,9.96,31.13,15.71c5.06,2.88,12.55-0.7,12.16-6.98
					c-3.38-54.66-6.76-109.33-10.14-163.99c-1.67-27.02-2.6-54.21-5.16-81.17c-2.19-23.08-9.53-43.13-28.75-57.2
					c-17.86-13.07-40.93-19.08-62-24.65c-24.45-6.46-49.38-10.95-74.49-13.88c-50.81-5.93-102.25-4.83-153.02,0.94
					c-102.83,11.69-201.72,42.46-299.58,74.92c-97.97,32.5-196.11,66.73-298.26,83.62c-96.09,15.89-196.8,16.54-290.3-13.45
					c-11.67-3.74-23.16-7.97-34.5-12.61c-4.07-1.67-8.84,1.81-9.94,5.65c-1.33,4.62,1.63,8.3,5.65,9.94
					c89.89,36.81,189.03,43.37,284.82,32.78c100.42-11.1,197.16-40.75,292.73-72.35c96.83-32.02,193.54-66.09,294.21-84.16
					c98.61-17.7,201.93-20.08,298.44,9.96c18.76,5.84,40.47,13.36,50.91,31.36c5.84,10.07,7.42,21.94,8.3,33.36
					c1.02,13.21,1.68,26.45,2.5,39.67c3.33,53.83,6.66,107.67,9.99,161.5c0.82,13.25,1.64,26.5,2.46,39.75
					c4.05-2.33,8.11-4.65,12.16-6.98c-81.03-46.11-177-56.04-268.39-45.73c-100.13,11.29-195.08,46.37-289.9,78.59
					c-48.63,16.52-97.57,31.99-147.47,44.22c-50.05,12.26-100.8,21.81-151.91,28.41c-102.52,13.25-206.5,15.25-309.45,5.98
					c-11.89-1.07-24.01-1.79-35.78-3.79c-10.58-1.8-17.82-5.76-20.24-16.75c-2.63-11.97-2.52-24.88-3.52-37.07
					c-1.09-13.24-2.18-26.47-3.26-39.71c-4.49-54.6-8.98-109.2-13.47-163.8c-1.09-13.24-2.18-26.47-3.26-39.71
					C212.1,421.86,195.93,421.77,196.78,432.16L196.78,432.16z"/>
			</g>
		</g>
		<g>
			<path class="st0" d="M237.63,757.61c8.59,138.11,20.24,305.01,28.41,312.05c7.36,6.33,32.01,10.48,41.65,11.14
				c157.04,10.8,245.48,25.25,449.65-39.23c121.03-38.23,238.06-88.06,361.21-119.49c123.16-31.43,262.9-34.87,372.02,33.66
				c-12.89-88.61-14.94-271.88-34.74-299.53c-21.86-30.53-144.06-117.02-453.82-10.68c-106.63,36.61-214.26,52.9-324.56,77.7
				C532.1,755.92,400.7,765.4,237.5,745.53"/>
			<g>
				<path class="st0" d="M229.55,757.61c3.54,56.89,7.23,113.77,11.6,170.6c3.17,41.25,5.89,82.82,12.14,123.74
					c1.15,7.56,1.69,18.56,7.81,24.03c7.61,6.8,20.29,8.88,29.96,10.65c10.31,1.89,20.67,2.52,31.11,3.27
					c44.36,3.17,88.71,7.04,133.19,8.13c43.89,1.08,87.66-1.19,131.14-7.35c55.52-7.87,110.03-21.81,163.55-38.36
					c124.33-38.45,244.36-90.29,370.66-122.44c106.9-27.21,227.4-34.47,329.79,13.27c12.4,5.78,24.4,12.33,36,19.57
					c6.62,4.13,12.81-2.67,11.87-9.13c-6.91-47.89-9.15-96.5-12.6-144.72c-3.16-44.09-4.79-89.56-14.37-132.85
					c-2.26-10.21-5.19-20.07-11.93-28.22c-4.24-5.12-9.22-9.59-14.44-13.68c-18.05-14.17-39.08-24.06-60.78-31.29
					c-82.75-27.55-175.58-18.27-259.21-0.38c-33.63,7.2-66.84,16.32-99.6,26.8c-35.19,11.26-70,23.15-105.76,32.58
					c-72.11,19.01-145.56,32.23-218.42,47.91c-66.94,14.4-133.57,27.87-201.9,33.77c-68.79,5.94-137.98,5.44-206.76-0.36
					c-18.41-1.55-36.78-3.48-55.11-5.7c-4.37-0.53-8.04,4.09-8.08,8.08c-0.05,4.8,3.77,7.56,8.08,8.08
					c70.2,8.49,140.96,12.3,211.64,9.3c66.55-2.83,132.73-11.66,197.99-24.92c35.2-7.15,70.2-15.26,105.39-22.5
					c35.68-7.34,71.4-14.5,106.95-22.46c35.93-8.05,71.7-16.93,106.96-27.56c35.3-10.64,69.9-23.35,105.44-33.24
					c54.98-15.3,111.45-26.58,168.55-29.43c38.68-1.93,77.91-0.14,115.7,8.86c24.75,5.89,46.56,13.72,67.8,27.2
					c1.91,1.21,3.8,2.47,5.65,3.76c0.76,0.53,1.52,1.07,2.27,1.62c0.56,0.41,3.69,2.81,1.77,1.3c2.84,2.23,5.61,4.56,8.23,7.06
					c2.12,2.02,4.07,4.17,6,6.37c0.27,0.3,1.63,2.06,0.58,0.69c-1.04-1.36,0.24,0.28,0.44,0.62c0.52,0.87,1.07,1.71,1.57,2.59
					c0.19,0.33,0.33,0.68,0.51,1.01c1.03,2-0.11-0.45,0.42,0.91c5.36,13.64,7.26,28.9,9.17,43.33c3.04,23,4.95,46.15,6.75,69.27
					c3.87,49.76,6.45,99.66,11.66,149.31c1.09,10.42,2.35,20.81,3.84,31.18c3.96-3.04,7.92-6.09,11.87-9.13
					c-96.3-60.04-214.87-65.48-324.01-46.2c-60.34,10.66-119.26,29.18-177.23,48.69c-60.86,20.48-120.99,43.06-181.74,63.88
					c-100.96,34.59-204.32,63.91-311.66,66.75c-42.52,1.13-85-1.41-127.39-4.45c-22.67-1.63-45.53-2.59-68.12-4.99
					c-9.63-1.02-20.1-2.82-29.05-6.62c-1.2-0.51-2.62-1.56-3.69-1.86c-0.74-0.21,1.68,1.94,0.52,0.58
					c-0.01-0.01,0.53,2.03,0.06,0.05c-0.22-0.9-0.54-1.78-0.78-2.67c-3-11.46-4.04-23.32-5.37-35c-2.4-21.04-4.28-42.13-6.04-63.23
					c-4.58-54.67-8.27-109.42-11.79-164.17c-0.9-13.96-1.78-27.93-2.65-41.9C245.07,747.28,228.9,747.21,229.55,757.61
					L229.55,757.61z"/>
			</g>
		</g>
		<g>
			<path class="st1" d="M273.09,1095.88c6.56,88.48-4.42,147.75,21.81,263.76c90.89,22.22,186.19,24.86,277.28,7.68
				c106.01-20,204.61-66.03,309.14-92.07c198.43-49.42,409.29-24.95,612.66,10.92c10.7,1.89,23.36,3.22,30.67-4.52
				c6.5-6.89,5.57-17.73,4.24-27.2c-11.17-79.29-22.34-158.59-33.51-237.88c-2.61-18.55-5.59-38.01-16.99-53.16
				c-12.66-16.82-33.45-25.34-53.47-31.97c-120.06-39.76-249.56-32.65-367.34,8.21C921.11,987,788.22,1048.73,646.31,1078.1
				c-139.29,28.83-253.22,26.59-380.16,1.16"/>
			<g>
				<path class="st2" d="M265.01,1095.88c4.77,65.34,0.87,130.9,9.52,196.01c3.12,23.49,7.39,46.78,12.58,69.9
					c0.59,2.65,3.03,5.01,5.65,5.65c92.82,22.51,190.05,25.29,283.88,7.24c92.11-17.72,178.74-54.9,268.45-81.18
					c91.38-26.78,185.86-37.99,280.95-38c96.32,0,192.36,10.59,287.43,25.4c23.79,3.71,47.54,7.68,71.27,11.83
					c17.48,3.06,41.6,7.58,50.49-12.81c3.83-8.79,2.73-18.38,1.46-27.61c-1.71-12.39-3.49-24.78-5.24-37.17
					c-3.49-24.78-6.98-49.56-10.47-74.34c-3.49-24.78-6.98-49.56-10.47-74.34c-3.31-23.51-5.65-47.42-10.36-70.7
					c-4.17-20.58-13.06-38.85-30.09-51.69c-16.43-12.4-36.89-18.79-56.37-24.65c-88.58-26.64-183.27-28.58-273.72-10.58
					c-45.81,9.12-89.64,24.39-133.36,40.53c-44.34,16.36-88.35,33.62-132.61,50.21c-89.11,33.39-179.42,63.26-273.53,78.88
					c-88.61,14.71-178.78,16.4-267.78,4c-21.57-3.01-43.03-6.74-64.39-11c-10.16-2.03-14.51,13.55-4.3,15.59
					c85.61,17.07,172.68,24.3,259.82,17.14c92.69-7.61,183.15-29.41,271.1-59.11c87.67-29.61,173.02-65.57,260.36-96.09
					c85.48-29.86,176.49-42.72,266.72-32.17c22.64,2.65,45.12,6.9,67.2,12.56c20.32,5.21,41.66,10.8,60.26,20.73
					c8.31,4.44,16.14,9.98,22,17.46c6.44,8.22,9.88,18.32,12.2,28.37c5.1,22.03,7.05,45,10.2,67.38
					c6.86,48.73,13.73,97.47,20.59,146.2c1.69,11.98,3.37,23.95,5.06,35.93c1.16,8.27,4.86,20.68,0.66,28.62
					c-3.97,7.51-15.39,5.71-22.25,4.62c-11.68-1.85-23.31-4.07-34.97-6.04c-92.89-15.68-186.54-28.34-280.75-32.16
					c-92.9-3.77-186.56,1.31-277.59,21.04c-89.87,19.48-174.76,55.6-262.99,80.77c-44.72,12.76-90.24,22.18-136.63,25.96
					c-46.42,3.78-93.28,2.63-139.45-3.48c-23.05-3.05-45.9-7.46-68.49-12.94c1.88,1.88,3.76,3.76,5.65,5.65
					c-8.43-37.53-14.3-75.5-16.74-113.9c-1.97-30.98-1.83-62.02-2.42-93.05c-0.35-18.24-1.03-36.47-2.36-54.66
					C280.42,1085.56,264.25,1085.48,265.01,1095.88L265.01,1095.88z"/>
			</g>
		</g>
		<g>
			<path class="st3" d="M63.65,347.57c0.5,14.71-0.96,47.61-0.46,62.32c33.16-9.1,65.77-15.31,102.29-14.86
				c-1.4-40.83-5.87-60.8-5.87-60.8s0.72-7.15-96.26,13.02"/>
			<g>
				<path d="M55.56,347.57c0.64,20.77-1.1,41.55-0.46,62.32c0.16,5.23,5.04,9.21,10.23,7.79c32.81-8.96,66.04-14.88,100.14-14.57
					c4.26,0.04,8.24-3.74,8.08-8.08c-0.68-18.95-1.98-37.95-5.01-56.68c-0.25-1.57-0.5-3.14-0.83-4.7c-0.2-0.99-0.67-3.71-0.03,0.58
					c-0.36-2.39-0.76-4.24-2.57-6.01c-3.02-2.96-7.62-3.23-11.59-3.29c-8.59-0.12-17.26,1.22-25.74,2.4
					c-22.35,3.11-44.52,7.56-66.6,12.14c-10.18,2.11-5.87,17.7,4.3,15.59c19.55-4.06,39.15-7.95,58.89-11
					c8.66-1.34,16.81-2.62,26.32-2.92c1.92-0.06,3.84,0.16,5.74,0.11c1.4-0.03-2.57-0.66-0.47-0.03c1.35,0.41,0.46,0.31-0.95-0.49
					c-2.09-1.18-2.48-3.56-3.49-6.49c0.6,1.74,0.73,4.33,1.05,6.16c3.01,17.22,4.16,36.26,4.82,54.64c2.69-2.69,5.39-5.39,8.08-8.08
					c-35.46-0.32-70.32,5.83-104.44,15.15c3.41,2.6,6.82,5.2,10.23,7.79c-0.64-20.77,1.1-41.55,0.46-62.32
					C71.41,337.19,55.24,337.15,55.56,347.57L55.56,347.57z"/>
			</g>
		</g>
		<g>
			<path class="st3" d="M85.71,406.34c27.24,423.33,55.64,854.18,82.88,1277.51c26.8-4.36,49.92-5.91,79.1,1.96
				c-33.09-422.61-60.12-863.36-93.21-1285.97"/>
			<g>
				<path d="M77.62,406.34c10.7,166.32,21.51,332.64,32.33,498.95c10.81,165.97,21.63,331.95,32.4,497.92
					c6.07,93.54,12.12,187.09,18.14,280.63c0.36,5.66,4.85,8.66,10.23,7.79c25.28-4.06,49.88-4.58,74.8,1.96
					c4.74,1.24,10.65-2.43,10.23-7.79c-6.49-82.89-12.7-165.8-18.74-248.73c-6.13-84.16-12.09-168.33-17.98-252.5
					c-5.89-84.05-11.71-168.11-17.59-252.16c-5.86-83.82-11.76-167.65-17.82-251.46c-6.04-83.47-12.23-166.93-18.69-250.38
					c-0.79-10.25-1.59-20.5-2.39-30.74c-0.81-10.3-16.98-10.39-16.17,0c6.49,82.89,12.7,165.8,18.74,248.73
					c6.13,84.16,12.09,168.33,17.98,252.5c5.89,84.05,11.71,168.11,17.59,252.16c5.86,83.82,11.76,167.65,17.82,251.46
					c6.04,83.47,12.23,166.93,18.69,250.38c0.79,10.25,1.59,20.5,2.39,30.74c3.41-2.6,6.82-5.2,10.23-7.79
					c-27.85-7.31-55.19-6.49-83.39-1.96c3.41,2.6,6.82,5.2,10.23,7.79c-10.7-166.32-21.51-332.64-32.33-498.95
					c-10.81-165.97-21.63-331.95-32.4-497.92c-6.07-93.54-12.12-187.09-18.14-280.63C93.12,396.01,76.95,395.93,77.62,406.34
					L77.62,406.34z"/>
			</g>
		</g>
		<g>
			<g>
				<path d="M86.69,315.87c2.66,8.47,1.42,17.7,4.09,26.2c3.1,9.89,18.71,5.67,15.59-4.3c-2.66-8.47-1.42-17.7-4.09-26.2
					C99.18,301.68,83.57,305.9,86.69,315.87L86.69,315.87z"/>
			</g>
		</g>
		<g>
			<g>
				<path d="M114.84,312.63c0.34,2.08,0.19,4.45-0.05,6.83c-0.35,3.37,0.11,6.64,0.66,9.97c0.71,4.31,6.05,6.72,9.94,5.65
					c4.57-1.26,6.36-5.62,5.65-9.94c-0.34-2.08-0.19-4.45,0.05-6.83c0.35-3.37-0.11-6.64-0.66-9.97c-0.71-4.31-6.05-6.72-9.94-5.65
					C115.91,303.94,114.12,308.3,114.84,312.63L114.84,312.63z"/>
			</g>
		</g>
		<g>
			<g>
				<path d="M163.65,408.81c69.91,42.43,151.13,61.19,232.36,63.16c84.13,2.04,167.56-13.32,248.03-36.89
					c89-26.06,174.95-61.14,262.66-91.05c82.29-28.06,166.6-51.37,253.65-57.7c82.28-5.98,167.3,2.55,243.13,36.77
					c9.41,4.25,18.63,8.88,27.69,13.82c9.14,4.99,17.3-8.97,8.16-13.96c-73.16-39.92-156.53-55.6-239.35-54.52
					c-85.72,1.11-169.97,19.38-251.49,44.88c-88.48,27.68-174.33,62.99-262.44,91.77c-81.48,26.62-165.13,47.22-251.11,50.42
					c-80.93,3.02-163.79-8.98-236.6-45.9c-9.03-4.58-17.86-9.53-26.52-14.78C162.89,389.44,154.76,403.41,163.65,408.81
					L163.65,408.81z"/>
			</g>
		</g>
		<g>
			<g>
				<path d="M218.52,1356.18c70.16,34.36,150.25,43.32,227.51,39.12c82.9-4.51,162.48-25.78,241.14-51.16
					c85.42-27.56,170.12-58.38,258.84-73.76c90.09-15.62,182.17-16.79,273.23-10.84c92.36,6.03,184.03,19.42,275.41,33.72
					c11.23,1.76,22.45,3.53,33.68,5.3c10.18,1.61,14.56-13.97,4.3-15.59c-90.73-14.34-181.59-28.54-273.14-36.53
					c-90.58-7.9-182.09-9.64-272.47,1.64c-89.38,11.15-174.56,37.74-259.78,65.92c-79.91,26.42-160.37,52.96-244.43,62.11
					c-76.96,8.38-157.66,5.2-230.61-22.74c-8.68-3.32-17.16-7.07-25.51-11.16C217.37,1337.67,209.17,1351.6,218.52,1356.18
					L218.52,1356.18z"/>
			</g>
		</g>
		<g>
			<g>
				<path d="M1434.92,334.63c11.33,124.12,22.67,248.24,34,372.36c11.27,123.46,22.54,246.91,33.82,370.37
					c6.36,69.69,12.73,139.39,19.09,209.08c0.4,4.35,3.43,8.08,8.08,8.08c4.06,0,8.48-3.71,8.08-8.08
					c-11.33-124.12-22.67-248.24-34-372.36c-11.27-123.46-22.54-246.91-33.82-370.37c-6.36-69.69-12.73-139.39-19.09-209.08
					c-0.4-4.35-3.43-8.08-8.08-8.08C1438.94,326.55,1434.52,330.26,1434.92,334.63L1434.92,334.63z"/>
			</g>
		</g>
		<g>
			<g>
				<path d="M183.54,424.82c12.41,123.37,24.81,246.75,37.22,370.12c12.34,122.71,24.68,245.42,37.02,368.13
					c6.94,68.98,13.87,137.97,20.81,206.95c0.44,4.34,3.4,8.08,8.08,8.08c4.03,0,8.52-3.71,8.08-8.08
					c-12.41-123.37-24.81-246.75-37.22-370.12c-12.34-122.71-24.68-245.42-37.02-368.13c-6.94-68.98-13.87-137.97-20.81-206.95
					c-0.44-4.34-3.4-8.08-8.08-8.08C187.59,416.73,183.1,420.45,183.54,424.82L183.54,424.82z"/>
			</g>
		</g>
		<g>
			<g>
				<path d="M232.93,745.36c88.44,10.73,177.84,12.97,266.7,6.53c88.74-6.43,176.92-21.29,262.76-44.69
					c85.19-23.23,166.29-57.67,249.56-86.58c41.46-14.39,83.61-27.12,126.76-35.42c34.81-6.7,70.28-9.08,105.69-7.54
					c70.51,3.06,143.21,21.31,201.59,62.23c6.97,4.89,13.65,10.13,20.08,15.71c7.83,6.78,19.31-4.61,11.43-11.43
					c-54.81-47.47-126.18-71.28-197.31-79.77c-35.74-4.26-72.03-4.53-107.81-0.56c-41.19,4.57-81.66,14.75-121.21,26.9
					c-85.24,26.2-166.85,62.82-252.1,89c-85.45,26.25-173.54,43.97-262.49,52.82c-89.73,8.93-180.34,9.05-270.09,0.32
					c-11.2-1.09-22.38-2.33-33.55-3.68c-4.37-0.53-8.04,4.1-8.08,8.08C224.8,742.08,228.62,744.84,232.93,745.36L232.93,745.36z"/>
			</g>
		</g>
		<g>
			<g>
				<path d="M264,1087.06c86.27,16.22,174.51,21.5,262.08,15.18c87.07-6.29,172.58-24.16,255.24-52.1
					c82.24-27.8,161.62-63.25,243.57-91.85c74.74-26.08,151.78-45.89,231.26-48.35c74.2-2.29,150.15,10.24,215.44,47.01
					c8.06,4.54,15.91,9.43,23.57,14.61c8.64,5.84,16.74-8.16,8.16-13.96c-62.58-42.26-137.4-61.29-212.28-63.8
					c-77.89-2.61-155.2,12.11-229.29,35.25c-82.89,25.9-162.41,61.08-243.84,91.02c-82.24,30.24-166.59,52.89-253.84,62.52
					c-87.59,9.67-176.6,7.95-263.69-5.6c-10.73-1.67-21.42-3.53-32.09-5.53C258.13,1069.56,253.77,1085.14,264,1087.06L264,1087.06z
					"/>
			</g>
		</g>
		
			<ellipse transform="matrix(0.3332 -0.9429 0.9429 0.3332 -172.859 265.3029)" class="st4" cx="101.14" cy="254.86" rx="58.7" ry="60.91"/>
		<g>
			<g>
				<path d="M109.12,333.68c2.07-0.39,4.15-0.77,6.22-1.16c1.89-0.35,3.89-2.11,4.83-3.71c1.01-1.73,1.44-4.29,0.81-6.23
					c-0.63-1.96-1.84-3.84-3.71-4.83c-2.01-1.06-3.99-1.23-6.23-0.81c-2.07,0.39-4.15,0.77-6.22,1.16
					c-1.89,0.35-3.89,2.11-4.83,3.71c-1.01,1.73-1.44,4.29-0.81,6.23c0.63,1.96,1.84,3.84,3.71,4.83
					C104.9,333.93,106.88,334.1,109.12,333.68L109.12,333.68z"/>
			</g>
		</g>
		<g class="st5">
			<path d="M202.39,427.6c0,0-116.87,905.7,1321.64,794.54c4.54,21.81-0.02,44.53,6.44,68.63
				c-132.47-22.04-224.41-46.33-341.43-41.9s-242.81-10.18-350.94,32.15c-206.02,80.66-384.27,93.86-449.97,102
				c-20.47,2.54-85.1-0.11-101.47-13.01c-17-13.4,53.85,148.93-95.05-945.21"/>
			<g>
				<path d="M194.31,427.6c-1.04,8.07-1.45,16.24-1.8,24.36c-0.94,21.85-0.51,43.77,0.92,65.59c2.15,32.76,6.6,65.42,13.23,97.57
					c8.14,39.52,19.68,78.34,34.59,115.83c17.47,43.9,39.33,85.99,65.61,125.26c30.32,45.31,66.19,86.86,106.38,123.68
					c46.89,42.95,99.43,79.6,155.17,110.1c67.91,37.16,140.54,65.47,214.85,86.93c91.79,26.51,186.39,42.68,281.38,52.14
					c119.56,11.91,240.07,13,360.02,7.36c33.15-1.56,66.27-3.65,99.36-6.2c-2.6-1.98-5.2-3.96-7.79-5.93
					c4.39,22.71,0.72,45.99,6.44,68.63c3.31-3.31,6.63-6.63,9.94-9.94c-70.62-11.78-140.77-26.88-211.85-35.81
					c-33.1-4.16-66.41-6.71-99.78-6.89c-36.09-0.2-72.19,1.56-108.3,1.49c-72.96-0.15-146.97-1.57-218.66,14.1
					c-37.08,8.11-71.63,23.13-107.33,35.59c-34.74,12.13-69.94,22.92-105.49,32.41c-96.52,25.78-195.48,41.43-294.84,51.26
					c-22.28,2.2-46.01,0.6-68.02-3.16c-9.19-1.57-18.97-3.31-26.93-8.43c2.33,1.5-0.62-0.57-1.51-1.07
					c-4.42-2.49-10.17-1.55-12.87,3c-5.1,8.6,5.89,19.28,13.72,11.56c5.3-5.22,5.15-15.95,5.64-22.64
					c1.55-21.33,0.7-42.9-0.17-64.23c-1.88-46.3-5.57-92.53-9.64-138.67c-7.16-81.03-15.93-161.91-25.26-242.71
					c-14.37-124.55-30.23-248.93-46.74-373.22c-5-37.64-10.07-75.27-15.18-112.89c-0.59-4.36-6.13-6.65-9.94-5.65
					c-4.68,1.23-6.23,5.64-5.65,9.94c18.2,133.77,35.75,267.62,51.89,401.65c10.76,89.35,20.96,178.77,29.65,268.34
					c5.21,53.68,9.99,107.44,13.12,161.29c1.59,27.38,3,54.89,2.37,82.33c-0.15,6.47-0.48,12.93-1.11,19.37
					c-0.05,0.49-0.13,0.98-0.17,1.47c-0.19,2.04,0.47-2.52,0.06-0.42c-0.17,0.84-0.26,1.7-0.42,2.54c-0.23,1.17-0.68,2.34-0.87,3.51
					c-0.34,2.09,1.35-2.09-0.05-0.05c1.31-1.91,3.24-3.49,6.2-3.47c2.92,0.02,5.42,1.83,6.46,3.55c0.61,1.01,0.96,3,0.95,3.21
					c-0.11,4.2-4.08,7.8-9.03,6.67c1.54,0.35-2.88-0.78-0.44-0.08c-2.35-0.67-1.76-1.16,0.85,0.64c1.49,1.03,3.05,1.87,4.68,2.65
					c4.58,2.18,9.45,3.74,14.36,4.98c12.05,3.04,24.55,4.51,36.91,5.56c36.06,3.04,71.22-1.97,106.96-6.27
					c51.56-6.2,102.9-14.14,153.76-24.7c68.95-14.31,136.97-33.18,203.25-57c34.61-12.44,68.05-26.03,104.3-33.17
					c35.02-6.9,70.71-9.66,106.34-10.86c36.15-1.22,72.32-0.76,108.48-0.75c35.13,0.01,70.27-1.95,105.39-1.44
					c65.2,0.95,129.5,11.39,193.52,22.98c35.68,6.46,71.33,13.11,107.1,19.07c5.99,1,11.56-3.53,9.94-9.94
					c-5.69-22.51-2.05-45.92-6.44-68.63c-0.63-3.23-4.49-6.19-7.79-5.93c-125.84,9.68-252.39,12.83-378.43,5.27
					c-99.78-5.99-199.34-18.74-296.66-41.87c-78-18.54-154.69-43.72-227.12-78.28c-59.03-28.17-115.67-62.66-166.16-103.9
					c-42.47-34.69-82.29-75.56-114.44-118.43c-28.98-38.64-53.64-80.46-73.49-124.49c-8.29-18.4-16.03-38-23.02-58.62
					c-6.43-18.95-12.02-38.19-16.78-57.62c-4.32-17.64-7.95-35.44-10.89-53.36c-0.68-4.12-1.32-8.25-1.92-12.38
					c-0.28-1.93-0.55-3.86-0.82-5.8c-0.37-2.67,0.04,0.32-0.17-1.24c-0.15-1.12-0.29-2.24-0.44-3.35
					c-0.97-7.6-1.82-15.21-2.54-22.84c-2.3-24.36-3.36-48.86-2.86-73.33c0.23-11.63,1.4-23.14,1.99-34.73c0.03-0.5,0.11-1,0.17-1.49
					C211.8,417.31,195.62,417.41,194.31,427.6L194.31,427.6z"/>
			</g>
		</g>
		<g class="st5">
			<path d="M81.55,206.15c-11.24,37.14,2.91,81,34.08,105.64c-25.89-0.53-51.08-17.31-61.52-40.97s-5.51-52.86,12.02-71.29"/>
			<g>
				<path d="M73.76,204c-11.92,40.63,3.25,87.06,36.16,113.5c1.91-4.6,3.81-9.2,5.72-13.8c-22.76-0.74-44.35-14.94-53.93-35.64
					c-9.48-20.49-5.13-46.36,10.15-62.83c7.07-7.62-4.34-19.08-11.43-11.43c-20.09,21.66-25.37,54.13-13.28,81.09
					c11.88,26.48,39.75,44.05,68.49,44.97c6.55,0.21,11.28-9.33,5.72-13.8c-28.63-23.01-42.45-62.18-32-97.78
					C92.28,198.29,76.68,194.02,73.76,204L73.76,204z"/>
			</g>
		</g>
		<g class="st5">
			<path d="M79.34,362.46c24.66,13.51,52.95,20.26,80.82,19.3c-23.46,4.06-46.91,8.13-70.37,12.19c-4.51,0.78-9.28,1.54-13.64-0.04
				c-6.82-2.48-10.58-10.2-10.58-17.33c0-7.13,2.94-13.83,5.84-20.29"/>
			<g>
				<path d="M75.26,369.44c26.02,14.06,55.31,21.25,84.9,20.4c-0.72-5.29-1.43-10.58-2.15-15.88c-20.52,3.56-41.05,7.11-61.57,10.67
					c-6.31,1.09-17.05,5.3-21.15-1.72c-4.11-7.02,0.16-15.93,3.11-22.54c1.78-3.98,1.16-8.69-2.9-11.06
					c-3.45-2.02-9.27-1.11-11.06,2.9c-4.62,10.37-9.29,21.77-5.57,33.2c3.59,11.05,13.14,18.18,24.91,17.43
					c12.82-0.81,25.81-4.16,38.46-6.35c13.36-2.31,26.71-4.63,40.07-6.94c9.03-1.56,6.85-16.14-2.15-15.88
					c-26.78,0.77-53.16-5.45-76.74-18.19C74.26,350.53,66.09,364.49,75.26,369.44L75.26,369.44z"/>
			</g>
		</g>
		<g class="st5">
			<path d="M103.77,408.75c24.1,255.69,48.21,511.37,72.31,767.06c15.98,169.51,32.04,339.57,69.72,506.18
				c-20.91,10.96-48.56-2.48-61.32-22.75c-12.76-20.27-14.52-45.03-15.93-68.65c-23.51-394.67-47.02-789.35-70.54-1184.02"/>
			<g>
				<path d="M95.69,408.75c15.83,167.93,31.66,335.85,47.49,503.78c7.88,83.54,15.75,167.08,23.63,250.62
					c7.73,82,15.35,164.03,25.3,245.8c11.24,92.35,25.43,184.4,45.89,275.19c1.24-3.04,2.48-6.09,3.71-9.13
					c-13.24,6.52-29.19,0.82-39.85-8.12c-13.72-11.52-19.52-28.9-22.39-46.05c-3.28-19.56-3.42-39.76-4.59-59.52
					c-1.31-22.07-2.63-44.14-3.94-66.2c-5.23-87.85-10.47-175.69-15.7-263.54c-5.26-88.27-10.52-176.54-15.78-264.81
					c-5.23-87.85-10.47-175.69-15.7-263.54c-5.23-87.85-10.47-175.69-15.7-263.54c-0.66-11.03-1.31-22.07-1.97-33.1
					c-0.62-10.34-16.79-10.41-16.17,0c5.41,90.82,10.82,181.63,16.23,272.45c5.39,90.39,10.77,180.79,16.16,271.18
					s10.77,180.79,16.16,271.18c5.41,90.82,10.82,181.63,16.23,272.45c1.34,22.49,2.68,44.98,4.02,67.48
					c1.24,20.89,1.67,42.05,5,62.75c2.86,17.81,9.04,35.88,21.53,49.31c10.75,11.55,25.96,19.65,41.84,20.55
					c7.99,0.45,15.65-1.44,22.79-4.95c3.29-1.62,4.46-5.81,3.71-9.13c-36.27-160.89-52.55-325.22-68.02-489.14
					c-15.76-166.98-31.48-333.96-47.22-500.94c-8.83-93.67-17.66-187.34-26.49-281C110.88,398.49,94.71,398.38,95.69,408.75
					L95.69,408.75z"/>
			</g>
		</g>
		<g class="st5">
			<g>
				<path class="st6" d="M1331.61,411.82c4.32,83.78,8.65,167.55,12.97,251.33s8.65,167.55,12.97,251.33
					c2.44,47.21,4.87,94.41,7.31,141.62c0.73,14.05,11.87,27.62,26.94,26.94c13.98-0.63,27.72-11.87,26.94-26.94
					c-4.32-83.78-8.65-167.55-12.97-251.33s-8.65-167.55-12.97-251.33c-2.44-47.21-4.87-94.41-7.31-141.62
					c-0.73-14.05-11.87-27.62-26.94-26.94C1344.58,385.5,1330.84,396.74,1331.61,411.82L1331.61,411.82z"/>
			</g>
		</g>
		<g class="st5">
			<g>
				<path class="st6" d="M113.91,262.41c14.09,0,27.6-12.39,26.94-26.94c-0.65-14.6-11.84-26.94-26.94-26.94
					c-14.09,0-27.6,12.39-26.94,26.94C87.62,250.07,98.81,262.41,113.91,262.41L113.91,262.41z"/>
			</g>
		</g>
		<g class="st5">
			<g>
				<path class="st6" d="M107.62,433.32c0.07,6.1,0.13,12.2,0.2,18.3c0.15,14.09,12.28,27.6,26.94,26.94
					c14.47-0.65,27.11-11.84,26.94-26.94c-0.07-6.1-0.13-12.2-0.2-18.3c-0.15-14.09-12.28-27.6-26.94-26.94
					C120.09,407.03,107.45,418.22,107.62,433.32L107.62,433.32z"/>
			</g>
		</g>
	</g>
	<g>
		<g id="Ebene_3_Kopie">
			<g class="st7">
				<path d="M727.58,784.9c0.97,67.82-12.46,135.73-39.66,200.53c99.01-41.63,186.79-97.63,256.82-163.83"/>
				<g>
					<path d="M723.58,786.82c0.69,52.56-7.29,105.04-23.43,155.73c-4.58,14.38-9.88,28.58-15.75,42.6
						c-1.02,2.43-0.07,5.78,3.59,4.23c38.5-16.22,75.71-34.72,111.16-55.5c34.68-20.34,67.74-42.76,98.58-67.28
						c17.04-13.55,33.41-27.74,49.04-42.5c1.44-1.36,2.89-4.43,1.4-6.11c-1.61-1.82-4.25-0.03-5.49,1.13
						c-27.47,25.93-57.33,49.93-89.04,71.94c-32.38,22.48-66.68,42.84-102.46,61.05c-20.66,10.51-41.8,20.29-63.36,29.37
						c1.2,1.41,2.4,2.82,3.59,4.23c21.2-50.65,34.36-103.68,38.66-157.43c1.21-15.08,1.69-30.19,1.49-45.3
						c-0.03-2.11-2.01-2.92-4.08-2.03C725.2,781.93,723.56,784.64,723.58,786.82L723.58,786.82z"/>
				</g>
			</g>
			<g class="st7">
				<path d="M909.92,850.11c99.56,1.09,200.26-11.2,292.18-44.26c91.92-33.06,174.76-87.77,227.79-160.57s74.21-164.16,48.57-247.25
					c-27.23-88.24-105.43-161.39-200.35-201.63c-94.92-40.24-204.91-49.46-309.6-36.7c-117.83,14.37-232.82,57.17-317,129.81
					S516.8,465.98,528.18,568.28s89.35,199.63,200.86,235.49"/>
				<g>
					<path d="M908.25,853.95c96.74,0.98,194.7-10.37,284.94-41.48c77.8-26.83,149.41-68.44,203.65-123.93
						c56.46-57.76,91.96-130.59,95.67-206.42c1.81-36.95-4.26-74.19-18.81-109.02c-13.35-31.97-33.41-61.75-58.23-88.08
						c-52.92-56.14-125.78-95.47-205.78-116.06c-88.31-22.73-183.38-23.42-273.45-8.25c-84.48,14.23-166.19,43.32-235.19,88.09
						c-68.51,44.45-122.55,104.81-152.6,174.3c-28.79,66.58-34.5,140.69-8.83,208.7c23.67,62.7,71.76,119.27,136.9,154.29
						c15.84,8.51,32.62,15.65,50.09,21.31c3.83,1.24,8.4-6.13,4.86-7.28c-70.68-22.9-127.68-70.25-162.69-127.53
						c-37.26-60.97-47.11-131.16-31.07-198.48c16.86-70.74,60.29-136.33,120.3-186.39c61.08-50.96,137.74-86.53,218.88-107.26
						c84.82-21.67,175.79-28.38,263.35-16.62c83.86,11.27,164.13,40.74,227.64,89.9c58.77,45.48,101.5,106.64,113.95,174.38
						c13.65,74.25-8.14,151.97-54.06,215.31c-43.73,60.31-108.53,107.9-181.09,140.83c-82.21,37.32-174.64,55.56-266.92,60.57
						c-22.7,1.23-45.44,1.66-68.18,1.43C907.8,846.23,904.06,853.91,908.25,853.95L908.25,853.95z"/>
				</g>
			</g>
			<g class="st7">
				<path class="st8" d="M990.23,486.54c6.14-48.11-35.16-96.52-89.52-108.27c-54.36-11.75-115.44,12.44-143.42,54.37
					s-22.64,97.86,10.28,137.02c27.02,32.15,68.79,52.22,109.67,70.43c58.21,25.93,117.42,50.18,177.5,72.68
					c7.4,2.77,15.4,5.57,23.3,4.14c10.03-1.83,16.69-9.83,22.34-17.22c42.75-55.92,85.5-111.86,128.25-167.78
					c22.58-29.55,45.95-61.11,47.34-96.49c1.17-29.87-14.29-59.37-38.81-80.46c-41.7-35.87-109.91-46.32-163.35-25.02
					c-53.44,21.3-88.5,72.91-83.95,123.6"/>
				<g>
					<path d="M993.63,485.8c5.34-43.66-25.47-87.14-71.32-105.31c-46.54-18.45-102.53-6.9-139.94,21.81
						c-40.7,31.22-54.94,80.72-41.86,125.72c6.74,23.2,20.72,44.08,40.04,61.15c20.16,17.8,44.62,31.38,69.74,43.36
						c28.29,13.49,57.38,25.83,86.44,38.03c30.58,12.84,61.42,25.23,92.5,37.14c8.04,3.09,16.08,6.17,24.18,9.16
						c7.14,2.63,14.71,5.08,22.6,4.04c14.22-1.86,22.53-14.24,29.72-23.65c19.24-25.17,38.48-50.33,57.71-75.5
						c19.24-25.17,38.48-50.33,57.71-75.5c17.35-22.7,35.79-45.29,47.52-70.7c10.91-23.62,14.29-49.15,5.98-73.79
						c-7.77-23.02-24.13-43.65-45.73-58.62c-40.19-27.87-98.27-35.85-146.41-19.82c-48.62,16.2-84.34,55.78-94,99.68
						c-2.33,10.61-3.09,21.48-2.17,32.25c0.42,4.96,7.29-0.13,7.01-3.36c-3.61-42.18,20.43-84.81,60.78-108.75
						c41.11-24.39,96.13-26.22,140.91-8.24c47.93,19.25,83.4,63.67,76.66,110.39c-3.59,24.85-17.58,47.33-32.76,68.24
						c-17.23,23.74-35.6,46.9-53.47,70.29c-18.41,24.08-36.81,48.16-55.22,72.24c-9.26,12.12-18.52,24.24-27.79,36.35
						c-6.77,8.86-14.31,21.78-28.69,21.05c-8.28-0.42-16.07-4.07-23.54-6.88c-7.31-2.76-14.6-5.54-21.89-8.35
						c-14.95-5.76-29.85-11.64-44.68-17.62c-29.67-11.96-59.11-24.36-88.3-37.17c-48.48-21.28-102.19-43.81-131.37-85.5
						c-26.34-37.62-29.48-88.39-2.52-126.41c24.9-35.12,74.73-56.17,122.1-51.75c48.2,4.5,89.34,37.36,100.78,77.76
						c2.75,9.71,3.69,19.83,2.47,29.78C986.15,492.76,993.19,489.44,993.63,485.8L993.63,485.8z"/>
				</g>
			</g>
			<g class="st7">
				<g>
					<path d="M1415.02,458.08c10.01,38.47,6.71,79.13-9.53,115.99c-0.6,1.37-0.8,3.79,1.41,4.09c2.17,0.3,4.12-2.16,4.75-3.6
						c17.02-38.62,20.6-81.18,10.12-121.5c-0.51-1.95-3.05-1.31-4.33-0.42C1415.7,453.87,1414.51,456.16,1415.02,458.08
						L1415.02,458.08z"/>
				</g>
			</g>
			<g class="st7">
				<g>
					<path d="M1392.81,619.33c-19.29,29.95-45.96,55.94-77.95,76.21c-3.41,2.16-3.22,9.1,1.91,5.85
						c33.27-21.07,61.04-48.4,81.09-79.54c0.82-1.27,1.83-3.94-0.1-4.9C1395.87,616.01,1393.6,618.1,1392.81,619.33L1392.81,619.33z
						"/>
				</g>
			</g>
			<g class="st7">
				<g>
					<path d="M611.21,494.62c1.32-38.52,13.87-76.59,36.16-109.96c6.38-9.54,13.53-18.66,21.41-27.32c1.17-1.28,2.59-3.81,1.23-5.35
						c-1.36-1.53-3.81-0.11-4.81,0.99c-29.2,32.07-48.99,70.38-57.03,110.61c-2.27,11.37-3.58,22.88-3.98,34.41
						c-0.06,1.87,1.82,2.53,3.57,1.78C609.85,498.87,611.14,496.54,611.21,494.62L611.21,494.62z"/>
				</g>
			</g>
		</g>
		<g id="Ebene_3_1_">
			<g>
				<path class="st9" d="M766.49,745.69c0.97,67.82-12.46,135.73-39.66,200.53c99.01-41.63,186.79-97.63,256.82-163.83"/>
				<g>
					<path d="M762.49,747.61c0.69,52.56-7.29,105.04-23.43,155.73c-4.58,14.38-9.88,28.58-15.75,42.6
						c-1.02,2.43-0.07,5.78,3.59,4.23c38.5-16.22,75.71-34.72,111.16-55.5c34.68-20.34,67.74-42.76,98.58-67.28
						c17.04-13.55,33.41-27.74,49.04-42.5c1.44-1.36,2.89-4.43,1.4-6.11c-1.61-1.82-4.25-0.03-5.49,1.13
						c-27.47,25.93-57.33,49.93-89.04,71.94c-32.37,22.48-66.68,42.84-102.46,61.05c-20.66,10.51-41.8,20.29-63.36,29.37
						c1.2,1.41,2.4,2.82,3.59,4.23c21.2-50.65,34.36-103.68,38.66-157.43c1.21-15.08,1.69-30.19,1.49-45.3
						c-0.03-2.11-2.01-2.92-4.08-2.03C764.11,742.72,762.47,745.43,762.49,747.61L762.49,747.61z"/>
				</g>
			</g>
			<g>
				<path class="st9" d="M948.83,810.9c99.56,1.09,200.26-11.2,292.18-44.26c91.92-33.06,174.76-87.77,227.79-160.57
					s74.21-164.16,48.57-247.25c-27.23-88.24-105.43-161.39-200.35-201.63s-204.91-49.46-309.6-36.7
					c-117.83,14.37-232.82,57.17-317,129.81S555.71,426.77,567.09,529.07s89.35,199.63,200.86,235.49"/>
				<g>
					<path d="M947.16,814.74c96.74,0.98,194.7-10.37,284.94-41.48c77.8-26.83,149.41-68.44,203.65-123.93
						c56.46-57.76,91.96-130.59,95.67-206.42c1.81-36.95-4.26-74.19-18.81-109.02c-13.35-31.97-33.41-61.75-58.23-88.08
						c-52.92-56.14-125.78-95.47-205.78-116.06c-88.31-22.73-183.38-23.42-273.45-8.25c-84.48,14.23-166.19,43.32-235.19,88.09
						c-68.51,44.45-122.55,104.81-152.6,174.29c-28.79,66.58-34.5,140.69-8.83,208.7c23.67,62.7,71.76,119.27,136.9,154.29
						c15.84,8.51,32.62,15.65,50.09,21.31c3.83,1.24,8.4-6.13,4.86-7.28c-70.68-22.9-127.68-70.25-162.69-127.53
						c-37.26-60.97-47.11-131.16-31.07-198.48c16.86-70.74,60.29-136.33,120.3-186.39c61.08-50.96,137.74-86.53,218.88-107.26
						c84.82-21.67,175.79-28.38,263.35-16.62c83.86,11.27,164.13,40.74,227.64,89.9c58.77,45.48,101.5,106.64,113.95,174.38
						c13.65,74.25-8.14,151.97-54.06,215.31c-43.73,60.31-108.53,107.9-181.09,140.83c-82.21,37.32-174.64,55.56-266.92,60.57
						c-22.7,1.23-45.44,1.66-68.18,1.43C946.72,807.02,942.97,814.7,947.16,814.74L947.16,814.74z"/>
				</g>
			</g>
			<g>
				<path class="st8" d="M1029.14,447.33c6.14-48.11-35.16-96.52-89.52-108.27c-54.36-11.75-115.44,12.44-143.42,54.37
					s-22.64,97.86,10.28,137.02c27.02,32.15,68.79,52.22,109.67,70.43c58.21,25.93,117.42,50.18,177.5,72.68
					c7.4,2.77,15.4,5.57,23.3,4.14c10.03-1.83,16.69-9.83,22.34-17.22c42.75-55.92,85.5-111.86,128.25-167.78
					c22.58-29.55,45.95-61.11,47.34-96.49c1.17-29.87-14.29-59.37-38.81-80.46c-41.7-35.87-109.91-46.32-163.35-25.02
					s-88.5,72.91-83.95,123.6"/>
				<g>
					<path d="M1032.54,446.59c5.34-43.66-25.47-87.14-71.32-105.31c-46.54-18.45-102.53-6.9-139.94,21.81
						c-40.7,31.22-54.94,80.72-41.86,125.72c6.74,23.2,20.72,44.08,40.04,61.15c20.16,17.8,44.62,31.38,69.74,43.36
						c28.29,13.49,57.38,25.83,86.44,38.03c30.58,12.84,61.42,25.23,92.5,37.14c8.04,3.09,16.08,6.17,24.18,9.16
						c7.14,2.63,14.71,5.08,22.6,4.04c14.22-1.86,22.53-14.24,29.72-23.65c19.24-25.17,38.48-50.33,57.71-75.5
						c19.24-25.17,38.48-50.33,57.71-75.5c17.35-22.7,35.79-45.29,47.52-70.7c10.91-23.62,14.29-49.15,5.98-73.79
						c-7.77-23.02-24.13-43.65-45.73-58.62c-40.19-27.87-98.27-35.85-146.41-19.82c-48.62,16.2-84.34,55.78-94,99.68
						c-2.33,10.61-3.09,21.48-2.17,32.25c0.42,4.96,7.29-0.13,7.01-3.36c-3.61-42.18,20.43-84.81,60.78-108.75
						c41.11-24.39,96.13-26.22,140.91-8.24c47.93,19.25,83.4,63.67,76.66,110.39c-3.59,24.85-17.58,47.33-32.76,68.24
						c-17.23,23.74-35.6,46.9-53.47,70.29c-18.41,24.08-36.81,48.16-55.22,72.24c-9.26,12.12-18.52,24.24-27.79,36.35
						c-6.77,8.86-14.31,21.78-28.69,21.05c-8.28-0.42-16.07-4.07-23.54-6.88c-7.31-2.76-14.61-5.54-21.89-8.35
						c-14.95-5.76-29.85-11.64-44.68-17.62c-29.67-11.96-59.11-24.36-88.3-37.17c-48.48-21.28-102.19-43.81-131.37-85.5
						c-26.34-37.62-29.48-88.39-2.52-126.41c24.9-35.12,74.73-56.17,122.1-51.75c48.2,4.5,89.34,37.36,100.78,77.76
						c2.75,9.71,3.69,19.83,2.47,29.78C1025.06,453.55,1032.1,450.23,1032.54,446.59L1032.54,446.59z"/>
				</g>
			</g>
			<g>
				<g>
					<path d="M1453.93,418.87c10.01,38.47,6.71,79.13-9.53,115.99c-0.6,1.37-0.8,3.79,1.41,4.09c2.17,0.3,4.12-2.16,4.75-3.6
						c17.02-38.62,20.6-81.18,10.12-121.5c-0.51-1.95-3.05-1.31-4.33-0.42C1454.61,414.66,1453.43,416.95,1453.93,418.87
						L1453.93,418.87z"/>
				</g>
			</g>
			<g>
				<g>
					<path d="M1431.73,580.12c-19.29,29.95-45.96,55.94-77.95,76.21c-3.41,2.16-3.22,9.1,1.91,5.85
						c33.27-21.07,61.04-48.4,81.09-79.54c0.82-1.27,1.83-3.94-0.1-4.9C1434.79,576.8,1432.52,578.89,1431.73,580.12L1431.73,580.12
						z"/>
				</g>
			</g>
			<g>
				<g>
					<path d="M650.12,455.41c1.32-38.52,13.87-76.59,36.16-109.96c6.38-9.54,13.53-18.66,21.41-27.32c1.17-1.28,2.59-3.81,1.23-5.36
						c-1.36-1.53-3.81-0.11-4.81,0.99c-29.2,32.07-48.99,70.38-57.03,110.61c-2.27,11.37-3.58,22.88-3.98,34.41
						c-0.06,1.87,1.82,2.53,3.57,1.78C648.77,459.66,650.06,457.33,650.12,455.41L650.12,455.41z"/>
				</g>
			</g>
			<g>
				<path class="st8" d="M1572.13,121.18c8.32-6.68,10.39-18.46,4.73-26.96s-18.48-12.89-29.35-10.05
					c-12.99,3.41-20.79,15.43-22.17,27.09c-1.37,11.67,2.3,23.27,5.16,34.73c2.86,11.46,4.89,23.65,0.41,34.72
					c27.94-12.55,54.19-27.9,78.05-45.65c8.96-6.67,18.41-16.18,14.62-25.86c-3.34-8.53-16.04-11.94-26.1-9.57
					c-10.05,2.37-17.98,8.87-25.46,15.13"/>
				<g>
					<path d="M1573.09,124.11c9.1-7.6,13.4-19.87,8.37-30.26c-4.55-9.4-16.24-15.14-27.91-14.27c-12.82,0.95-22.34,9.65-27.45,19.26
						c-6.06,11.39-5.06,24.05-2.38,36.06c3.29,14.74,9.87,30.66,4.1,45.57c-0.8,2.06-0.1,5.18,3.15,3.71
						c26.34-11.88,51.22-26.17,74.04-42.61c10.15-7.31,22.48-16.57,22.91-28.95c0.35-10.14-9.46-16.85-20.51-17.5
						c-14.7-0.87-26.55,8.53-36.36,16.73c-1.52,1.28-3.17,3.5-2.42,5.43c0.69,1.78,2.98,1.55,4.33,0.42
						c7.63-6.38,16.51-14.17,27.74-14.91c8.77-0.57,20.06,3.6,20.21,12.35c0.08,4.91-3.86,9.19-7.54,12.6
						c-4.18,3.88-9.13,7.2-13.89,10.55c-9.97,7.01-20.31,13.63-31.02,19.78c-12.15,6.97-24.72,13.37-37.65,19.19
						c1.05,1.24,2.1,2.48,3.15,3.71c4.24-10.97,3.31-22.33,0.82-33.52c-2.6-11.65-6.86-23.22-6.19-35.22
						c0.46-8.23,4.23-17.3,12.52-22.01c8.74-4.97,20.47-3.53,28.17,2.33c8.28,6.31,10.17,18.76,1.85,25.71
						c-1.52,1.28-3.17,3.5-2.42,5.43C1569.45,125.47,1571.73,125.24,1573.09,124.11L1573.09,124.11z"/>
				</g>
			</g>
			<g>
				<path class="st10" d="M1600.16,257.74c-2.31,17.93-15.41,34.57-33.87,43.01c8.8-3.37,19.49-2.79,27.72,1.52
					c8.24,4.31,13.79,12.22,14.41,20.51c1.55-16.69,15.75-31.98,34.28-36.9c-19.21,3.79-40.36-10.18-41.18-27.18"/>
				<g>
					<path d="M1596.75,258.49c-2.27,16.46-13.63,30.92-30.53,38.8c-3.15,1.46-5.32,8.92,0.14,6.93
						c17.09-6.23,37.06,4.36,38.56,20.25c0.45,4.74,6.63,0.31,6.92-2.43c1.57-14.95,13.44-27.8,30.04-32.38
						c2.2-0.6,3.85-2.59,4.23-4.53c0.3-1.56-0.34-3.44-2.59-3.03c-17.78,3.25-37.45-9.27-38.5-25.08c-0.12-1.82-1.7-2.59-3.57-1.78
						c-1.95,0.83-3.56,3.27-3.44,5.15c1.23,18.56,22.65,33.16,43.87,29.28c0.55-2.52,1.1-5.04,1.65-7.56
						c-20.73,5.72-36.54,22.67-38.5,41.43c2.31-0.81,4.61-1.62,6.92-2.43c-0.84-8.84-5.97-17.12-14.67-22.02
						c-9.3-5.24-21-5.44-31.04-1.79c0.05,2.31,0.09,4.62,0.14,6.93c20.19-9.4,34.5-27.53,37.22-47.22
						C1604.33,251.53,1597.26,254.86,1596.75,258.49L1596.75,258.49z"/>
				</g>
			</g>
			<path class="st11" d="M1647.63,671.89l10,26.63c0.43,1.14,1.67,1.92,3.05,1.92h32.38c3.11,0,4.41,3.44,1.89,5.02l-26.2,16.47
				c-1.12,0.71-1.6,1.96-1.17,3.1l10.01,26.65c0.96,2.56-2.43,4.68-4.95,3.1l-26.18-16.46c-1.13-0.71-2.65-0.71-3.78,0l-26.18,16.46
				c-2.52,1.59-5.91-0.54-4.95-3.1l10.01-26.65c0.43-1.14-0.04-2.39-1.17-3.1l-26.2-16.47c-2.52-1.58-1.22-5.02,1.89-5.02h32.38
				c1.39,0,2.63-0.77,3.05-1.92l10-26.63C1642.47,669.33,1646.67,669.33,1647.63,671.89z"/>
			<path class="st11" d="M832.89,31.7l10,26.63c0.43,1.14,1.67,1.92,3.05,1.92h32.38c3.11,0,4.41,3.44,1.89,5.02l-26.2,16.47
				c-1.12,0.71-1.6,1.96-1.17,3.1l10.01,26.65c0.96,2.56-2.43,4.68-4.95,3.1l-26.18-16.46c-1.13-0.71-2.65-0.71-3.78,0l-26.18,16.46
				c-2.52,1.59-5.91-0.54-4.95-3.1l10.01-26.65c0.43-1.14-0.04-2.39-1.17-3.1l-26.2-16.47c-2.52-1.58-1.22-5.02,1.89-5.02h32.38
				c1.39,0,2.63-0.77,3.05-1.92l10-26.63C827.74,29.14,831.93,29.14,832.89,31.7z"/>
			<path class="st11" d="M541.05,692.67l10,26.64c0.43,1.14,1.67,1.92,3.05,1.92h32.38c3.11,0,4.41,3.44,1.89,5.02l-26.2,16.47
				c-1.12,0.71-1.6,1.96-1.17,3.1l10.01,26.65c0.96,2.56-2.43,4.68-4.95,3.1l-26.18-16.46c-1.13-0.71-2.65-0.71-3.78,0l-26.18,16.46
				c-2.52,1.59-5.91-0.54-4.95-3.1l10.01-26.65c0.43-1.14-0.04-2.39-1.17-3.1l-26.2-16.47c-2.52-1.58-1.22-5.02,1.89-5.02h32.37
				c1.39,0,2.63-0.77,3.05-1.92l10-26.64C535.89,690.11,540.09,690.11,541.05,692.67z"/>
			<g>
				<path class="st12" d="M1442.89,880.42c-2.17-11.57-15.05-20.9-28.62-20.73c-13.57,0.17-26.13,9.83-27.91,21.44
					c-1.87,12.26,7.33,24.15,19.22,31.03s26.16,9.82,39.99,13.01c13.83,3.19,28.01,6.96,38.83,15.05
					c3.98-23.52,7.96-47.04,11.95-70.56c1.89-11.18,2.83-24.61-7.43-31.63c-10.58-7.25-27.36-2.25-35.23,7.24
					c-7.87,9.48-9.24,21.75-10.34,33.38"/>
				<g>
					<path d="M1446.27,877.91c-2.35-11.25-13.57-20.46-26.73-21.9c-13.66-1.49-26.91,6.24-33.03,16.48
						c-6.9,11.56-3.82,24.89,5.59,34.68c10.21,10.63,25.34,15.52,40.3,19.16c17.25,4.2,35.52,7.23,49.57,17.52
						c2.41,1.76,5.6-2.95,5.84-4.39c2.49-14.7,4.98-29.4,7.47-44.1c1.28-7.53,2.55-15.07,3.83-22.6c0.96-5.66,1.97-11.34,1.95-17.07
						c-0.05-9.84-3.92-20.85-15.94-24.09c-11.47-3.1-24.1,2.26-31.6,9.71c-10.71,10.65-12.38,25.57-13.66,39
						c-0.18,1.89,1.89,2.5,3.57,1.78c2.17-0.93,3.26-3.19,3.44-5.15c0.96-10.05,1.79-21.76,9.13-30.12
						c5.69-6.47,17.07-10.58,26.17-7.38c10.39,3.65,12.24,13.82,11.8,22.39c-0.28,5.46-1.43,10.87-2.33,16.26
						c-1.06,6.25-2.11,12.5-3.17,18.74c-2.49,14.7-4.98,29.4-7.47,44.1c1.95-1.46,3.9-2.92,5.84-4.39
						c-22.21-16.28-53.93-14.21-77.88-27.53c-10.4-5.78-19.75-15.85-19.33-27.05c0.38-9.85,10.51-17.61,21.58-18.42
						c13.44-0.98,25.95,8.11,28.3,19.34c0.42,1.99,3.11,1.27,4.33,0.42C1445.65,882.09,1446.68,879.88,1446.27,877.91
						L1446.27,877.91z"/>
				</g>
			</g>
			<g>
				<path class="st13" d="M1245.89,856.36c1.12,17.13-9.1,34.48-25.79,43.79c21.35-5.91,46.8,2.46,58.19,19.15
					c-8.65-17.13-1.69-39.09,15.86-50.03c-16.93,5.21-37.55-0.74-47.45-13.71"/>
				<g>
					<path d="M1242.38,858.04c0.83,15.23-7.51,30.2-22.34,38.64c-1.82,1.04-3.24,2.76-3.39,4.68c-0.11,1.33,0.64,3.1,2.63,2.57
						c20.88-5.58,44.73,2.41,56,18.54c2.16,3.09,7.56-3.3,6.39-5.68c-7.65-15.62-2.52-34.43,13.44-44.6
						c1.46-0.93,2.65-3.02,2.56-4.6c-0.08-1.2-1.03-2.58-2.68-2.09c-16.45,4.86-35.5-0.67-45.26-13.1
						c-2.39-3.04-8.17,3.62-6.03,6.35c10.66,13.57,31.68,19.62,49.64,14.31c-0.05-2.23-0.08-4.47-0.13-6.7
						c-19.18,12.23-27.66,36.33-18.29,55.47c2.13-1.89,4.26-3.79,6.39-5.68c-12.11-17.34-38.03-25.72-60.39-19.75
						c-0.25,2.41-0.51,4.83-0.76,7.24c18.66-10.63,30.28-29.55,29.22-48.93c-0.1-1.83-1.71-2.58-3.57-1.78
						C1243.86,853.74,1242.28,856.16,1242.38,858.04L1242.38,858.04z"/>
				</g>
			</g>
			<g>
				<path class="st14" d="M614.65,802.94c3.61,17.85-5.06,37.14-21.65,48.21c16.65-4.58,36.58,2.97,43.95,16.66
					c-1.45-15.87,7.08-32.16,21.84-41.71c-17.94,2.84-37.46-6.22-44.63-20.7"/>
				<g>
					<path d="M611.28,805.44c3.08,16.1-4.42,32.72-19.24,42.78c-1.44,0.98-2.65,2.99-2.55,4.6c0.08,1.24,1.02,2.53,2.68,2.09
						c16.23-4.25,34.44,2.93,41.76,16.05c0.77,1.38,3.11,0.36,3.97-0.25c1.45-1.03,2.68-2.96,2.55-4.6
						c-1.15-14.45,5.95-28.3,19.29-37.1c1.92-1.27,4.51-7.38-0.13-6.7c-16.86,2.48-35.13-5.87-42.08-19.43
						c-2.04-3.98-8.23,2.12-6.75,5.01c7.99,15.59,27.67,24.84,47.18,21.97c-0.05-2.23-0.08-4.47-0.13-6.7
						c-16.27,10.73-25.81,28.66-24.39,46.31c2.17-1.62,4.35-3.24,6.52-4.86c-8.04-14.41-28.52-21.88-46.14-17.26
						c0.05,2.23,0.08,4.47,0.13,6.7c18.47-12.55,27.91-33.65,24.08-53.65c-0.38-2-3.13-1.26-4.33-0.42
						C611.88,801.29,610.9,803.47,611.28,805.44L611.28,805.44z"/>
				</g>
			</g>
			<g>
				<path class="st10" d="M537.84,146.38c4.04,16.63-0.96,34.72-13.26,47.98c18.04-10.4,44.7-7.56,59.26,6.33
					c-13.3-13.09-13.3-34.75,0.01-47.84c-16.17,4.5-35.09,0.5-47.04-9.93"/>
				<g>
					<path d="M534.47,148.88c3.52,15.08-0.62,31.17-11.67,43.29c-1.07,1.17-2.19,3.13-1.58,4.69c0.5,1.29,2.11,1.71,3.44,0.96
						c17.32-9.75,42.11-7.07,56.18,6.04c3.02,2.81,8.46-3.9,6.03-6.35c-11.64-11.75-13.15-30.45-1.22-42.48
						c1.27-1.28,3.13-7.05-0.97-5.96c-15.54,4.15-33.22,0.59-44.85-9.33c-3.18-2.71-8.66,4.11-6.03,6.35
						c12.84,10.95,31.92,15.16,49.23,10.53c-0.32-1.99-0.64-3.97-0.97-5.96c-14.55,14.67-16.06,38.23-1.23,53.19
						c2.01-2.12,4.02-4.23,6.03-6.35c-15.72-14.65-42.95-17.53-62.35-6.62c0.62,1.88,1.24,3.76,1.86,5.65
						c13.5-14.81,19.16-34.14,14.84-52.66c-0.46-1.97-3.08-1.29-4.33-0.42C535.12,144.69,534.01,146.94,534.47,148.88L534.47,148.88
						z"/>
				</g>
			</g>
		</g>
	</g>
</g>
<g id="Ebene_3">
</g>
</svg>
