<?xml version="1.0" encoding="utf-8"?>
<!-- Generator: Adobe Adobe Illustrator 24.2.0, SVG Export Plug-In . SVG Version: 6.00 Build 0)  -->
<svg version="1.1" xmlns="http://www.w3.org/2000/svg" xmlns:xlink="http://www.w3.org/1999/xlink" x="0px" y="0px"
	 viewBox="0 0 1700.79 1700.79" style="enable-background:new 0 0 1700.79 1700.79;" xml:space="preserve">
<style type="text/css">
	.st0{fill:#C8354F;}
	.st1{fill:#F2C159;}
	.st2{fill:#F2C058;}
	.st3{fill:#808E9C;}
	.st4{fill:#7F8E9C;stroke:#000000;stroke-width:16.166;stroke-miterlimit:10;}
	.st5{opacity:0.2196;}
	.st6{fill:#FFFFFF;}
	.st7{opacity:0.1608;}
	.st8{fill:#F4F5E7;}
	.st9{fill:#F3C057;}
	.st10{fill:#7F8D9C;}
	.st11{fill:#CA334D;}
	.st12{fill:#CA344E;}
	.st13{opacity:0.149;}
</style>
<g id="Ebene_10">
</g>
<g id="Ebene_4">
</g>
<g id="Ebene_5">
</g>
<g id="Ebene_9">
</g>
<g id="Ebene_6">
</g>
<g id="Ebene_7">
	<g>
		<g>
			<path d="M204.87,432.16c7.41,90.17,14.83,180.34,22.24,270.52c0.75,9.08,1.83,18.94,8.18,25.66c6.6,6.99,16.98,8.57,26.5,9.63
				c187.2,20.98,377.76,4.4,556.68-48.44c105.18-31.07,206.56-74.54,314.28-96.4c107.72-21.86,226.26-19.98,322.79,35.37
				c-4.81-77.85-9.63-155.71-14.44-233.56c-0.99-16.05-2.24-32.9-11-46.61c-11.06-17.31-31.68-25.95-51.31-32.22
				c-128.44-41.02-267.49-24.94-396.23,9.2s-252.03,85.7-381.77,116.24s-270.76,38.75-395.52-12.7"/>
			<g>
				<path d="M196.78,432.16c4.52,55.01,9.05,110.03,13.57,165.04c2.24,27.3,4.49,54.6,6.73,81.9c1.67,20.28-0.8,49.83,20.5,60.93
					c9.62,5.01,20.7,5.67,31.29,6.8c13.37,1.43,26.77,2.67,40.18,3.72c26,2.04,52.06,3.35,78.14,3.95
					c52.05,1.2,104.18-0.46,156.05-4.98c103.73-9.03,206.19-29.45,305.47-60.79c98.42-31.06,194.69-70.74,296.51-89.82
					c90.68-16.99,189.38-16.94,275.11,20.86c10.65,4.69,21.02,9.96,31.13,15.71c5.06,2.88,12.55-0.7,12.16-6.98
					c-3.38-54.66-6.76-109.33-10.14-163.99c-1.67-27.02-2.6-54.21-5.16-81.17c-2.19-23.08-9.53-43.13-28.75-57.2
					c-17.86-13.07-40.93-19.08-62-24.65c-24.45-6.46-49.38-10.95-74.49-13.88c-50.81-5.93-102.25-4.83-153.02,0.94
					c-102.83,11.69-201.72,42.46-299.58,74.92c-97.97,32.5-196.11,66.73-298.26,83.62c-96.09,15.89-196.8,16.54-290.3-13.45
					c-11.67-3.74-23.16-7.97-34.5-12.61c-4.07-1.67-8.84,1.81-9.94,5.65c-1.33,4.62,1.63,8.3,5.65,9.94
					c89.89,36.81,189.03,43.37,284.82,32.78c100.42-11.1,197.16-40.75,292.73-72.35c96.83-32.02,193.54-66.09,294.21-84.16
					c98.61-17.7,201.93-20.08,298.44,9.96c18.76,5.84,40.47,13.36,50.91,31.36c5.84,10.07,7.42,21.94,8.3,33.36
					c1.02,13.21,1.68,26.45,2.5,39.67c3.33,53.83,6.66,107.67,9.99,161.5c0.82,13.25,1.64,26.5,2.46,39.75
					c4.05-2.33,8.11-4.65,12.16-6.98c-81.03-46.11-177-56.04-268.39-45.73c-100.13,11.29-195.08,46.37-289.9,78.59
					c-48.63,16.52-97.57,31.99-147.47,44.22c-50.05,12.26-100.8,21.81-151.91,28.41c-102.52,13.25-206.5,15.25-309.45,5.98
					c-11.89-1.07-24.01-1.79-35.78-3.79c-10.58-1.8-17.82-5.76-20.24-16.75c-2.63-11.97-2.52-24.88-3.52-37.07
					c-1.09-13.24-2.18-26.47-3.26-39.71c-4.49-54.6-8.98-109.2-13.47-163.8c-1.09-13.24-2.18-26.47-3.26-39.71
					C212.1,421.86,195.93,421.77,196.78,432.16L196.78,432.16z"/>
			</g>
		</g>
		<g>
			<path class="st0" d="M237.63,757.61c8.59,138.11,20.24,305.01,28.41,312.05c7.36,6.33,32.01,10.48,41.65,11.14
				c157.04,10.8,245.48,25.25,449.65-39.23c121.03-38.23,238.06-88.06,361.21-119.49c123.16-31.43,262.9-34.87,372.02,33.66
				c-12.89-88.61-14.94-271.88-34.74-299.53c-21.86-30.53-144.06-117.02-453.82-10.68c-106.63,36.61-214.26,52.9-324.56,77.7
				C532.1,755.92,400.7,765.4,237.5,745.53"/>
			<g>
				<path class="st0" d="M229.55,757.61c3.54,56.89,7.23,113.77,11.6,170.6c3.17,41.25,5.89,82.82,12.14,123.74
					c1.15,7.56,1.69,18.56,7.81,24.03c7.61,6.8,20.29,8.88,29.96,10.65c10.31,1.89,20.67,2.52,31.11,3.27
					c44.36,3.17,88.71,7.04,133.19,8.13c43.89,1.08,87.66-1.19,131.14-7.35c55.52-7.87,110.03-21.81,163.55-38.36
					c124.33-38.45,244.36-90.29,370.66-122.44c106.9-27.21,227.4-34.47,329.79,13.27c12.4,5.78,24.4,12.33,36,19.57
					c6.62,4.13,12.81-2.67,11.87-9.13c-6.91-47.89-9.15-96.5-12.6-144.72c-3.16-44.09-4.79-89.56-14.37-132.85
					c-2.26-10.21-5.19-20.07-11.93-28.22c-4.24-5.12-9.22-9.59-14.44-13.68c-18.05-14.17-39.08-24.06-60.78-31.29
					c-82.75-27.55-175.58-18.27-259.21-0.38c-33.63,7.2-66.84,16.32-99.6,26.8c-35.19,11.26-70,23.15-105.76,32.58
					c-72.11,19.01-145.56,32.23-218.42,47.91c-66.94,14.4-133.57,27.87-201.9,33.77c-68.79,5.94-137.98,5.44-206.76-0.36
					c-18.41-1.55-36.78-3.48-55.11-5.7c-4.37-0.53-8.04,4.09-8.08,8.08c-0.05,4.8,3.77,7.56,8.08,8.08
					c70.2,8.49,140.96,12.3,211.64,9.3c66.55-2.83,132.73-11.66,197.99-24.92c35.2-7.15,70.2-15.26,105.39-22.5
					c35.68-7.34,71.4-14.5,106.95-22.46c35.93-8.05,71.7-16.93,106.96-27.56c35.3-10.64,69.9-23.35,105.44-33.24
					c54.98-15.3,111.45-26.58,168.55-29.43c38.68-1.93,77.91-0.14,115.7,8.86c24.75,5.89,46.56,13.72,67.8,27.2
					c1.91,1.21,3.8,2.47,5.65,3.76c0.76,0.53,1.52,1.07,2.27,1.62c0.56,0.41,3.69,2.81,1.77,1.3c2.84,2.23,5.61,4.56,8.23,7.06
					c2.12,2.02,4.07,4.17,6,6.37c0.27,0.3,1.63,2.06,0.58,0.69c-1.04-1.36,0.24,0.28,0.44,0.62c0.52,0.87,1.07,1.71,1.57,2.59
					c0.19,0.33,0.33,0.68,0.51,1.01c1.03,2-0.11-0.45,0.42,0.91c5.36,13.64,7.26,28.9,9.17,43.33c3.04,23,4.95,46.15,6.75,69.27
					c3.87,49.76,6.45,99.66,11.66,149.31c1.09,10.42,2.35,20.81,3.84,31.18c3.96-3.04,7.92-6.09,11.87-9.13
					c-96.3-60.04-214.87-65.48-324.01-46.2c-60.34,10.66-119.26,29.18-177.23,48.69c-60.86,20.48-120.99,43.06-181.74,63.88
					c-100.96,34.59-204.32,63.91-311.66,66.75c-42.52,1.13-85-1.41-127.39-4.45c-22.67-1.63-45.53-2.59-68.12-4.99
					c-9.63-1.02-20.1-2.82-29.05-6.62c-1.2-0.51-2.62-1.56-3.69-1.86c-0.74-0.21,1.68,1.94,0.52,0.58
					c-0.01-0.01,0.53,2.03,0.06,0.05c-0.22-0.9-0.54-1.78-0.78-2.67c-3-11.46-4.04-23.32-5.37-35c-2.4-21.04-4.28-42.13-6.04-63.23
					c-4.58-54.67-8.27-109.42-11.79-164.17c-0.9-13.96-1.78-27.93-2.65-41.9C245.07,747.28,228.9,747.21,229.55,757.61
					L229.55,757.61z"/>
			</g>
		</g>
		<g>
			<path class="st1" d="M273.09,1095.88c6.56,88.48-4.42,147.75,21.81,263.76c90.89,22.22,186.19,24.86,277.28,7.68
				c106.01-20,204.61-66.03,309.14-92.07c198.43-49.42,409.29-24.95,612.66,10.92c10.7,1.89,23.36,3.22,30.67-4.52
				c6.5-6.89,5.57-17.73,4.24-27.2c-11.17-79.29-22.34-158.59-33.51-237.88c-2.61-18.55-5.59-38.01-16.99-53.16
				c-12.66-16.82-33.45-25.34-53.47-31.97c-120.06-39.76-249.56-32.65-367.34,8.21C921.11,987,788.22,1048.73,646.31,1078.1
				c-139.29,28.83-253.22,26.59-380.16,1.16"/>
			<g>
				<path class="st2" d="M265.01,1095.88c4.77,65.34,0.87,130.9,9.52,196.01c3.12,23.49,7.39,46.78,12.58,69.9
					c0.59,2.65,3.03,5.01,5.65,5.65c92.82,22.51,190.05,25.29,283.88,7.24c92.11-17.72,178.74-54.9,268.45-81.18
					c91.38-26.78,185.86-37.99,280.95-38c96.32,0,192.36,10.59,287.43,25.4c23.79,3.71,47.54,7.68,71.27,11.83
					c17.48,3.06,41.6,7.58,50.49-12.81c3.83-8.79,2.73-18.38,1.46-27.61c-1.71-12.39-3.49-24.78-5.24-37.17
					c-3.49-24.78-6.98-49.56-10.47-74.34c-3.49-24.78-6.98-49.56-10.47-74.34c-3.31-23.51-5.65-47.42-10.36-70.7
					c-4.17-20.58-13.06-38.85-30.09-51.69c-16.43-12.4-36.89-18.79-56.37-24.65c-88.58-26.64-183.27-28.58-273.72-10.58
					c-45.81,9.12-89.64,24.39-133.36,40.53c-44.34,16.36-88.35,33.62-132.61,50.21c-89.11,33.39-179.42,63.26-273.53,78.88
					c-88.61,14.71-178.78,16.4-267.78,4c-21.57-3.01-43.03-6.74-64.39-11c-10.16-2.03-14.51,13.55-4.3,15.59
					c85.61,17.07,172.68,24.3,259.82,17.14c92.69-7.61,183.15-29.41,271.1-59.11c87.67-29.61,173.02-65.57,260.36-96.09
					c85.48-29.86,176.49-42.72,266.72-32.17c22.64,2.65,45.12,6.9,67.2,12.56c20.32,5.21,41.66,10.8,60.26,20.73
					c8.31,4.44,16.14,9.98,22,17.46c6.44,8.22,9.88,18.32,12.2,28.37c5.1,22.03,7.05,45,10.2,67.38
					c6.86,48.73,13.73,97.47,20.59,146.2c1.69,11.98,3.37,23.95,5.06,35.93c1.16,8.27,4.86,20.68,0.66,28.62
					c-3.97,7.51-15.39,5.71-22.25,4.62c-11.68-1.85-23.31-4.07-34.97-6.04c-92.89-15.68-186.54-28.34-280.75-32.16
					c-92.9-3.77-186.56,1.31-277.59,21.04c-89.87,19.48-174.76,55.6-262.99,80.77c-44.72,12.76-90.24,22.18-136.63,25.96
					c-46.42,3.78-93.28,2.63-139.45-3.48c-23.05-3.05-45.9-7.46-68.49-12.94c1.88,1.88,3.76,3.76,5.65,5.65
					c-8.43-37.53-14.3-75.5-16.74-113.9c-1.97-30.98-1.83-62.02-2.42-93.05c-0.35-18.24-1.03-36.47-2.36-54.66
					C280.42,1085.56,264.25,1085.48,265.01,1095.88L265.01,1095.88z"/>
			</g>
		</g>
		<g>
			<path class="st3" d="M63.65,347.57c0.5,14.71-0.96,47.61-0.46,62.32c33.16-9.1,65.77-15.31,102.29-14.86
				c-1.4-40.83-5.87-60.8-5.87-60.8s0.72-7.15-96.26,13.02"/>
			<g>
				<path d="M55.56,347.57c0.64,20.77-1.1,41.55-0.46,62.32c0.16,5.23,5.04,9.21,10.23,7.79c32.81-8.96,66.04-14.88,100.14-14.57
					c4.26,0.04,8.24-3.74,8.08-8.08c-0.68-18.95-1.98-37.95-5.01-56.68c-0.25-1.57-0.5-3.14-0.83-4.7c-0.2-0.99-0.67-3.71-0.03,0.58
					c-0.36-2.39-0.76-4.24-2.57-6.01c-3.02-2.96-7.62-3.23-11.59-3.29c-8.59-0.12-17.26,1.22-25.74,2.4
					c-22.35,3.11-44.52,7.56-66.6,12.14c-10.18,2.11-5.87,17.7,4.3,15.59c19.55-4.06,39.15-7.95,58.89-11
					c8.66-1.34,16.81-2.62,26.32-2.92c1.92-0.06,3.84,0.16,5.74,0.11c1.4-0.03-2.57-0.66-0.47-0.03c1.35,0.41,0.46,0.31-0.95-0.49
					c-2.09-1.18-2.48-3.56-3.49-6.49c0.6,1.74,0.73,4.33,1.05,6.16c3.01,17.22,4.16,36.26,4.82,54.64c2.69-2.69,5.39-5.39,8.08-8.08
					c-35.46-0.32-70.32,5.83-104.44,15.15c3.41,2.6,6.82,5.2,10.23,7.79c-0.64-20.77,1.1-41.55,0.46-62.32
					C71.41,337.19,55.24,337.15,55.56,347.57L55.56,347.57z"/>
			</g>
		</g>
		<g>
			<path class="st3" d="M85.71,406.34c27.24,423.33,55.64,854.18,82.88,1277.51c26.8-4.36,49.92-5.91,79.1,1.96
				c-33.09-422.61-60.12-863.36-93.21-1285.97"/>
			<g>
				<path d="M77.62,406.34c10.7,166.32,21.51,332.64,32.33,498.95c10.81,165.97,21.63,331.95,32.4,497.92
					c6.07,93.54,12.12,187.09,18.14,280.63c0.36,5.66,4.85,8.66,10.23,7.79c25.28-4.06,49.88-4.58,74.8,1.96
					c4.74,1.24,10.65-2.43,10.23-7.79c-6.49-82.89-12.7-165.8-18.74-248.73c-6.13-84.16-12.09-168.33-17.98-252.5
					c-5.89-84.05-11.71-168.11-17.59-252.16c-5.86-83.82-11.76-167.65-17.82-251.46c-6.04-83.47-12.23-166.93-18.69-250.38
					c-0.79-10.25-1.59-20.5-2.39-30.74c-0.81-10.3-16.98-10.39-16.17,0c6.49,82.89,12.7,165.8,18.74,248.73
					c6.13,84.16,12.09,168.33,17.98,252.5c5.89,84.05,11.71,168.11,17.59,252.16c5.86,83.82,11.76,167.65,17.82,251.46
					c6.04,83.47,12.23,166.93,18.69,250.38c0.79,10.25,1.59,20.5,2.39,30.74c3.41-2.6,6.82-5.2,10.23-7.79
					c-27.85-7.31-55.19-6.49-83.39-1.96c3.41,2.6,6.82,5.2,10.23,7.79c-10.7-166.32-21.51-332.64-32.33-498.95
					c-10.81-165.97-21.63-331.95-32.4-497.92c-6.07-93.54-12.12-187.09-18.14-280.63C93.12,396.01,76.95,395.93,77.62,406.34
					L77.62,406.34z"/>
			</g>
		</g>
		<g>
			<g>
				<path d="M86.69,315.87c2.66,8.47,1.42,17.7,4.09,26.2c3.1,9.89,18.71,5.67,15.59-4.3c-2.66-8.47-1.42-17.7-4.09-26.2
					C99.18,301.68,83.57,305.9,86.69,315.87L86.69,315.87z"/>
			</g>
		</g>
		<g>
			<g>
				<path d="M114.84,312.63c0.34,2.08,0.19,4.45-0.05,6.83c-0.35,3.37,0.11,6.64,0.66,9.97c0.71,4.31,6.05,6.72,9.94,5.65
					c4.57-1.26,6.36-5.62,5.65-9.94c-0.34-2.08-0.19-4.45,0.05-6.83c0.35-3.37-0.11-6.64-0.66-9.97c-0.71-4.31-6.05-6.72-9.94-5.65
					C115.91,303.94,114.12,308.3,114.84,312.63L114.84,312.63z"/>
			</g>
		</g>
		<g>
			<g>
				<path d="M163.65,408.81c69.91,42.43,151.13,61.19,232.36,63.16c84.13,2.04,167.56-13.32,248.03-36.89
					c89-26.06,174.95-61.14,262.66-91.05c82.29-28.06,166.6-51.37,253.65-57.7c82.28-5.98,167.3,2.55,243.13,36.77
					c9.41,4.25,18.63,8.88,27.69,13.82c9.14,4.99,17.3-8.97,8.16-13.96c-73.16-39.92-156.53-55.6-239.35-54.52
					c-85.72,1.11-169.97,19.38-251.49,44.88c-88.48,27.68-174.33,62.99-262.44,91.77c-81.48,26.62-165.13,47.22-251.11,50.42
					c-80.93,3.02-163.79-8.98-236.6-45.9c-9.03-4.58-17.86-9.53-26.52-14.78C162.89,389.44,154.76,403.41,163.65,408.81
					L163.65,408.81z"/>
			</g>
		</g>
		<g>
			<g>
				<path d="M218.52,1356.18c70.16,34.36,150.25,43.32,227.51,39.12c82.9-4.51,162.48-25.78,241.14-51.16
					c85.42-27.56,170.12-58.38,258.84-73.76c90.09-15.62,182.17-16.79,273.23-10.84c92.36,6.03,184.03,19.42,275.41,33.72
					c11.23,1.76,22.45,3.53,33.68,5.3c10.18,1.61,14.56-13.97,4.3-15.59c-90.73-14.34-181.59-28.54-273.14-36.53
					c-90.58-7.9-182.09-9.64-272.47,1.64c-89.38,11.15-174.56,37.74-259.78,65.92c-79.91,26.42-160.37,52.96-244.43,62.11
					c-76.96,8.38-157.66,5.2-230.61-22.74c-8.68-3.32-17.16-7.07-25.51-11.16C217.37,1337.67,209.17,1351.6,218.52,1356.18
					L218.52,1356.18z"/>
			</g>
		</g>
		<g>
			<g>
				<path d="M1434.92,334.63c11.33,124.12,22.67,248.24,34,372.36c11.27,123.46,22.54,246.91,33.82,370.37
					c6.36,69.69,12.73,139.39,19.09,209.08c0.4,4.35,3.43,8.08,8.08,8.08c4.06,0,8.48-3.71,8.08-8.08
					c-11.33-124.12-22.67-248.24-34-372.36c-11.27-123.46-22.54-246.91-33.82-370.37c-6.36-69.69-12.73-139.39-19.09-209.08
					c-0.4-4.35-3.43-8.08-8.08-8.08C1438.94,326.55,1434.52,330.26,1434.92,334.63L1434.92,334.63z"/>
			</g>
		</g>
		<g>
			<g>
				<path d="M183.54,424.82c12.41,123.37,24.81,246.75,37.22,370.12c12.34,122.71,24.68,245.42,37.02,368.13
					c6.94,68.98,13.87,137.97,20.81,206.95c0.44,4.34,3.4,8.08,8.08,8.08c4.03,0,8.52-3.71,8.08-8.08
					c-12.41-123.37-24.81-246.75-37.22-370.12c-12.34-122.71-24.68-245.42-37.02-368.13c-6.94-68.98-13.87-137.97-20.81-206.95
					c-0.44-4.34-3.4-8.08-8.08-8.08C187.59,416.73,183.1,420.45,183.54,424.82L183.54,424.82z"/>
			</g>
		</g>
		<g>
			<g>
				<path d="M232.93,745.36c88.44,10.73,177.84,12.97,266.7,6.53c88.74-6.43,176.92-21.29,262.76-44.69
					c85.19-23.23,166.29-57.67,249.56-86.58c41.46-14.39,83.61-27.12,126.76-35.42c34.81-6.7,70.28-9.08,105.69-7.54
					c70.51,3.06,143.21,21.31,201.59,62.23c6.97,4.89,13.65,10.13,20.08,15.71c7.83,6.78,19.31-4.61,11.43-11.43
					c-54.81-47.47-126.18-71.28-197.31-79.77c-35.74-4.26-72.03-4.53-107.81-0.56c-41.19,4.57-81.66,14.75-121.21,26.9
					c-85.24,26.2-166.85,62.82-252.1,89c-85.45,26.25-173.54,43.97-262.49,52.82c-89.73,8.93-180.34,9.05-270.09,0.32
					c-11.2-1.09-22.38-2.33-33.55-3.68c-4.37-0.53-8.04,4.1-8.08,8.08C224.8,742.08,228.62,744.84,232.93,745.36L232.93,745.36z"/>
			</g>
		</g>
		<g>
			<g>
				<path d="M264,1087.06c86.27,16.22,174.51,21.5,262.08,15.18c87.07-6.29,172.58-24.16,255.24-52.1
					c82.24-27.8,161.62-63.25,243.57-91.85c74.74-26.08,151.78-45.89,231.26-48.35c74.2-2.29,150.15,10.24,215.44,47.01
					c8.06,4.54,15.91,9.43,23.57,14.61c8.64,5.84,16.74-8.16,8.16-13.96c-62.58-42.26-137.4-61.29-212.28-63.8
					c-77.89-2.61-155.2,12.11-229.29,35.25c-82.89,25.9-162.41,61.08-243.84,91.02c-82.24,30.24-166.59,52.89-253.84,62.52
					c-87.59,9.67-176.6,7.95-263.69-5.6c-10.73-1.67-21.42-3.53-32.09-5.53C258.13,1069.56,253.77,1085.14,264,1087.06L264,1087.06z
					"/>
			</g>
		</g>
		
			<ellipse transform="matrix(0.3332 -0.9429 0.9429 0.3332 -172.859 265.3029)" class="st4" cx="101.14" cy="254.86" rx="58.7" ry="60.91"/>
		<g>
			<g>
				<path d="M109.12,333.68c2.07-0.39,4.15-0.77,6.22-1.16c1.89-0.35,3.89-2.11,4.83-3.71c1.01-1.73,1.44-4.29,0.81-6.23
					c-0.63-1.96-1.84-3.84-3.71-4.83c-2.01-1.06-3.99-1.23-6.23-0.81c-2.07,0.39-4.15,0.77-6.22,1.16
					c-1.89,0.35-3.89,2.11-4.83,3.71c-1.01,1.73-1.44,4.29-0.81,6.23c0.63,1.96,1.84,3.84,3.71,4.83
					C104.9,333.93,106.88,334.1,109.12,333.68L109.12,333.68z"/>
			</g>
		</g>
		<g class="st5">
			<path d="M202.39,427.6c0,0-116.87,905.7,1321.64,794.54c4.54,21.81-0.02,44.53,6.44,68.63
				c-132.47-22.04-224.41-46.33-341.43-41.9s-242.81-10.18-350.94,32.15c-206.02,80.66-384.27,93.86-449.97,102
				c-20.47,2.54-85.1-0.11-101.47-13.01c-17-13.4,53.85,148.93-95.05-945.21"/>
			<g>
				<path d="M194.31,427.6c-1.04,8.07-1.45,16.24-1.8,24.36c-0.94,21.85-0.51,43.77,0.92,65.59c2.15,32.76,6.6,65.42,13.23,97.57
					c8.14,39.52,19.68,78.34,34.59,115.83c17.47,43.9,39.33,85.99,65.61,125.26c30.32,45.31,66.19,86.86,106.38,123.68
					c46.89,42.95,99.43,79.6,155.17,110.1c67.91,37.16,140.54,65.47,214.85,86.93c91.79,26.51,186.39,42.68,281.38,52.14
					c119.56,11.91,240.07,13,360.02,7.36c33.15-1.56,66.27-3.65,99.36-6.2c-2.6-1.98-5.2-3.96-7.79-5.93
					c4.39,22.71,0.72,45.99,6.44,68.63c3.31-3.31,6.63-6.63,9.94-9.94c-70.62-11.78-140.77-26.88-211.85-35.81
					c-33.1-4.16-66.41-6.71-99.78-6.89c-36.09-0.2-72.19,1.56-108.3,1.49c-72.96-0.15-146.97-1.57-218.66,14.1
					c-37.08,8.11-71.63,23.13-107.33,35.59c-34.74,12.13-69.94,22.92-105.49,32.41c-96.52,25.78-195.48,41.43-294.84,51.26
					c-22.28,2.2-46.01,0.6-68.02-3.16c-9.19-1.57-18.97-3.31-26.93-8.43c2.33,1.5-0.62-0.57-1.51-1.07
					c-4.42-2.49-10.17-1.55-12.87,3c-5.1,8.6,5.89,19.28,13.72,11.56c5.3-5.22,5.15-15.95,5.64-22.64
					c1.55-21.33,0.7-42.9-0.17-64.23c-1.88-46.3-5.57-92.53-9.64-138.67c-7.16-81.03-15.93-161.91-25.26-242.71
					c-14.37-124.55-30.23-248.93-46.74-373.22c-5-37.64-10.07-75.27-15.18-112.89c-0.59-4.36-6.13-6.65-9.94-5.65
					c-4.68,1.23-6.23,5.64-5.65,9.94c18.2,133.77,35.75,267.62,51.89,401.65c10.76,89.35,20.96,178.77,29.65,268.34
					c5.21,53.68,9.99,107.44,13.12,161.29c1.59,27.38,3,54.89,2.37,82.33c-0.15,6.47-0.48,12.93-1.11,19.37
					c-0.05,0.49-0.13,0.98-0.17,1.47c-0.19,2.04,0.47-2.52,0.06-0.42c-0.17,0.84-0.26,1.7-0.42,2.54c-0.23,1.17-0.68,2.34-0.87,3.51
					c-0.34,2.09,1.35-2.09-0.05-0.05c1.31-1.91,3.24-3.49,6.2-3.47c2.92,0.02,5.42,1.83,6.46,3.55c0.61,1.01,0.96,3,0.95,3.21
					c-0.11,4.2-4.08,7.8-9.03,6.67c1.54,0.35-2.88-0.78-0.44-0.08c-2.35-0.67-1.76-1.16,0.85,0.64c1.49,1.03,3.05,1.87,4.68,2.65
					c4.58,2.18,9.45,3.74,14.36,4.98c12.05,3.04,24.55,4.51,36.91,5.56c36.06,3.04,71.22-1.97,106.96-6.27
					c51.56-6.2,102.9-14.14,153.76-24.7c68.95-14.31,136.97-33.18,203.25-57c34.61-12.44,68.05-26.03,104.3-33.17
					c35.02-6.9,70.71-9.66,106.34-10.86c36.15-1.22,72.32-0.76,108.48-0.75c35.13,0.01,70.27-1.95,105.39-1.44
					c65.2,0.95,129.5,11.39,193.52,22.98c35.68,6.46,71.33,13.11,107.1,19.07c5.99,1,11.56-3.53,9.94-9.94
					c-5.69-22.51-2.05-45.92-6.44-68.63c-0.63-3.23-4.49-6.19-7.79-5.93c-125.84,9.68-252.39,12.83-378.43,5.27
					c-99.78-5.99-199.34-18.74-296.66-41.87c-78-18.54-154.69-43.72-227.12-78.28c-59.03-28.17-115.67-62.66-166.16-103.9
					c-42.47-34.69-82.29-75.56-114.44-118.43c-28.98-38.64-53.64-80.46-73.49-124.49c-8.29-18.4-16.03-38-23.02-58.62
					c-6.43-18.95-12.02-38.19-16.78-57.62c-4.32-17.64-7.95-35.44-10.89-53.36c-0.68-4.12-1.32-8.25-1.92-12.38
					c-0.28-1.93-0.55-3.86-0.82-5.8c-0.37-2.67,0.04,0.32-0.17-1.24c-0.15-1.12-0.29-2.24-0.44-3.35
					c-0.97-7.6-1.82-15.21-2.54-22.84c-2.3-24.36-3.36-48.86-2.86-73.33c0.23-11.63,1.4-23.14,1.99-34.73c0.03-0.5,0.11-1,0.17-1.49
					C211.8,417.31,195.62,417.41,194.31,427.6L194.31,427.6z"/>
			</g>
		</g>
		<g class="st5">
			<path d="M81.55,206.15c-11.24,37.14,2.91,81,34.08,105.64c-25.89-0.53-51.08-17.31-61.52-40.97s-5.51-52.86,12.02-71.29"/>
			<g>
				<path d="M73.76,204c-11.92,40.63,3.25,87.06,36.16,113.5c1.91-4.6,3.81-9.2,5.72-13.8c-22.76-0.74-44.35-14.94-53.93-35.64
					c-9.48-20.49-5.13-46.36,10.15-62.83c7.07-7.62-4.34-19.08-11.43-11.43c-20.09,21.66-25.37,54.13-13.28,81.09
					c11.88,26.48,39.75,44.05,68.49,44.97c6.55,0.21,11.28-9.33,5.72-13.8c-28.63-23.01-42.45-62.18-32-97.78
					C92.28,198.29,76.68,194.02,73.76,204L73.76,204z"/>
			</g>
		</g>
		<g class="st5">
			<path d="M79.34,362.46c24.66,13.51,52.95,20.26,80.82,19.3c-23.46,4.06-46.91,8.13-70.37,12.19c-4.51,0.78-9.28,1.54-13.64-0.04
				c-6.82-2.48-10.58-10.2-10.58-17.33c0-7.13,2.94-13.83,5.84-20.29"/>
			<g>
				<path d="M75.26,369.44c26.02,14.06,55.31,21.25,84.9,20.4c-0.72-5.29-1.43-10.58-2.15-15.88c-20.52,3.56-41.05,7.11-61.57,10.67
					c-6.31,1.09-17.05,5.3-21.15-1.72c-4.11-7.02,0.16-15.93,3.11-22.54c1.78-3.98,1.16-8.69-2.9-11.06
					c-3.45-2.02-9.27-1.11-11.06,2.9c-4.62,10.37-9.29,21.77-5.57,33.2c3.59,11.05,13.14,18.18,24.91,17.43
					c12.82-0.81,25.81-4.16,38.46-6.35c13.36-2.31,26.71-4.63,40.07-6.94c9.03-1.56,6.85-16.14-2.15-15.88
					c-26.78,0.77-53.16-5.45-76.74-18.19C74.26,350.53,66.09,364.49,75.26,369.44L75.26,369.44z"/>
			</g>
		</g>
		<g class="st5">
			<path d="M103.77,408.75c24.1,255.69,48.21,511.37,72.31,767.06c15.98,169.51,32.04,339.57,69.72,506.18
				c-20.91,10.96-48.56-2.48-61.32-22.75c-12.76-20.27-14.52-45.03-15.93-68.65c-23.51-394.67-47.02-789.35-70.54-1184.02"/>
			<g>
				<path d="M95.69,408.75c15.83,167.93,31.66,335.85,47.49,503.78c7.88,83.54,15.75,167.08,23.63,250.62
					c7.73,82,15.35,164.03,25.3,245.8c11.24,92.35,25.43,184.4,45.89,275.19c1.24-3.04,2.48-6.09,3.71-9.13
					c-13.24,6.52-29.19,0.82-39.85-8.12c-13.72-11.52-19.52-28.9-22.39-46.05c-3.28-19.56-3.42-39.76-4.59-59.52
					c-1.31-22.07-2.63-44.14-3.94-66.2c-5.23-87.85-10.47-175.69-15.7-263.54c-5.26-88.27-10.52-176.54-15.78-264.81
					c-5.23-87.85-10.47-175.69-15.7-263.54c-5.23-87.85-10.47-175.69-15.7-263.54c-0.66-11.03-1.31-22.07-1.97-33.1
					c-0.62-10.34-16.79-10.41-16.17,0c5.41,90.82,10.82,181.63,16.23,272.45c5.39,90.39,10.77,180.79,16.16,271.18
					s10.77,180.79,16.16,271.18c5.41,90.82,10.82,181.63,16.23,272.45c1.34,22.49,2.68,44.98,4.02,67.48
					c1.24,20.89,1.67,42.05,5,62.75c2.86,17.81,9.04,35.88,21.53,49.31c10.75,11.55,25.96,19.65,41.84,20.55
					c7.99,0.45,15.65-1.44,22.79-4.95c3.29-1.62,4.46-5.81,3.71-9.13c-36.27-160.89-52.55-325.22-68.02-489.14
					c-15.76-166.98-31.48-333.96-47.22-500.94c-8.83-93.67-17.66-187.34-26.49-281C110.88,398.49,94.71,398.38,95.69,408.75
					L95.69,408.75z"/>
			</g>
		</g>
		<g class="st5">
			<g>
				<path class="st6" d="M1331.61,411.82c4.32,83.78,8.65,167.55,12.97,251.33s8.65,167.55,12.97,251.33
					c2.44,47.21,4.87,94.41,7.31,141.62c0.73,14.05,11.87,27.62,26.94,26.94c13.98-0.63,27.72-11.87,26.94-26.94
					c-4.32-83.78-8.65-167.55-12.97-251.33s-8.65-167.55-12.97-251.33c-2.44-47.21-4.87-94.41-7.31-141.62
					c-0.73-14.05-11.87-27.62-26.94-26.94C1344.58,385.5,1330.84,396.74,1331.61,411.82L1331.61,411.82z"/>
			</g>
		</g>
		<g class="st5">
			<g>
				<path class="st6" d="M113.91,262.41c14.09,0,27.6-12.39,26.94-26.94c-0.65-14.6-11.84-26.94-26.94-26.94
					c-14.09,0-27.6,12.39-26.94,26.94C87.62,250.07,98.81,262.41,113.91,262.41L113.91,262.41z"/>
			</g>
		</g>
		<g class="st5">
			<g>
				<path class="st6" d="M107.62,433.32c0.07,6.1,0.13,12.2,0.2,18.3c0.15,14.09,12.28,27.6,26.94,26.94
					c14.47-0.65,27.11-11.84,26.94-26.94c-0.07-6.1-0.13-12.2-0.2-18.3c-0.15-14.09-12.28-27.6-26.94-26.94
					C120.09,407.03,107.45,418.22,107.62,433.32L107.62,433.32z"/>
			</g>
		</g>
	</g>
	<g>
		<g id="Ebene_8">
			<g class="st7">
				<path d="M574.62,1265.73c-40.28,118.98-68.21,231.68-111.51,359.59c150.09-66.61,309.65-147.8,432.44-257.61
					c81.58-72.94,147.24-161.9,215.02-248.1c143.69-182.75,299.38-355.83,465.7-517.76c-21.74-2.62-30.1-33.06-20.15-52.78
					c9.96-19.72,30.54-31.04,49.31-42.43c18.77-11.39,38.27-26.02,43.09-47.62c-30.63-49.96-61.12-107.55-114.96-129.67
					c-59.14-24.29-56.29-33.39-123.98,47.49c-6.99,8.35-44.69,50.71-54.11,67.19c-116.01,202.85-76.8,150.87-107.72,121.59"/>
				<g>
					<path d="M570.57,1265.34c-30.82,91.18-56.08,184.13-84.53,276.07c-8.66,27.95-17.61,55.8-26.97,83.51
						c-1.16,3.42-0.13,7.59,4.14,5.71c87.34-38.78,173.65-80.47,255.73-129.76c82.05-49.26,159.62-106.28,226.34-175.56
						c69.21-71.84,128.04-152.9,190.19-230.84c64.42-80.77,131.19-159.62,200.19-236.41c69.19-77,140.64-151.93,214.23-224.64
						c9.17-9.07,18.38-18.1,27.62-27.09c1.96-1.9,6.07-9.62,0.94-10.4c-17.28-2.61-24.52-23.11-21.09-38.71
						c4.47-20.32,26.98-32.51,43.14-42.26c17.29-10.43,35.18-21.9,45.69-39.88c2.53-4.33,4.53-8.97,5.91-13.81
						c1.64-5.78-0.13-7.95-3.12-12.88c-5.4-8.88-10.72-17.8-16.19-26.65c-21.21-34.37-45.32-69.97-80.89-90.53
						c-13.5-7.8-28.67-13.54-43.18-19.21c-8.71-3.4-17.89-6.54-27.34-5.36c-9.82,1.23-18.36,7.16-25.72,13.5
						c-13.58,11.71-25.23,25.87-36.81,39.51c-20.37,23.99-42.13,47.31-60.45,72.96c-12.2,17.09-21.65,36.43-31.98,54.71
						c-9.18,16.26-18.32,32.55-27.47,48.83c-5.91,10.5-11.79,21.02-17.86,31.43c-2.09,3.57-4.19,7.14-6.37,10.64
						c-0.77,1.25-1.57,2.49-2.37,3.73c-0.37,0.58-0.76,1.15-1.14,1.72c1.01-1.48-0.26,0.35-0.48,0.65
						c-0.61,0.83-1.24,1.63-1.86,2.44c-0.23,0.3-0.49,0.58-0.73,0.87c-1.02,1.2,0.95-0.97-0.06,0.07c-1.12,1.15-0.28,0.18-0.27,0.32
						c0.03,0.4,0.4-0.01-0.2,0.07c1-0.15,0.5-0.28,0.65,0.01c-0.43-0.85-1.15-1.68-1.63-2.53c-0.32-0.59-0.58-1.27-1.39-3.15
						c-0.73-1.7-1.46-3.42-2.24-5.1c-1.82-3.96-3.88-7.79-6.51-11.26c-1.45-1.91-3.05-3.69-4.77-5.35
						c-4.27-4.09-11.41,6.41-7.92,9.75c2.83,2.71,5.29,5.78,7.35,9.12c1.84,2.97,3.23,5.9,4.19,8.11c1.53,3.55,3,9.93,6.87,11.69
						c5.93,2.69,11.64-6.03,14.4-10.01c8.83-12.72,16.15-26.57,23.75-40.04c15.8-28.03,31.51-56.11,47.41-84.08
						c7.4-13,14.57-25.4,23.8-37.13c8.77-11.13,17.95-21.93,27.17-32.66c18.09-21.04,35.1-43.6,55.3-62.62
						c6.08-5.72,12.89-11.68,21.11-13.83c6.88-1.79,13.99-0.38,20.62,1.78c10.14,3.31,19.86,7.97,29.68,12.1
						c15.33,6.43,29.29,14.28,41.98,25.21c26.57,22.88,45.5,53.64,63.56,83.43c4.52,7.45,9,14.92,13.55,22.35
						c-0.17-1.24-0.34-2.49-0.52-3.73c-4.72,19.28-22.9,31.5-38.71,41.14c-15.96,9.74-32.81,19.11-44.78,33.96
						c-10.07,12.49-15.24,27.75-12.37,43.84c2.5,13.95,11.36,26.45,25.87,28.64c0.31-3.47,0.63-6.93,0.94-10.4
						c-73.7,71.79-145.36,145.73-214.8,221.73c-69.36,75.91-136.52,153.89-201.37,233.79c-63.08,77.74-121.93,159.28-188.7,233.88
						c-64.91,72.53-139.7,133.29-221.6,185.11c-80.89,51.18-166.56,94.21-253.51,133.75c-10.65,4.84-21.32,9.62-32,14.37
						c1.38,1.9,2.76,3.81,4.14,5.71c31.35-92.74,57.26-187.17,86.1-280.71c8.14-26.4,16.56-52.71,25.4-78.87
						C581.41,1258,572.71,1259.02,570.57,1265.34L570.57,1265.34z"/>
				</g>
			</g>
		</g>
		<g id="Ebene_3_1_">
			<g>
				<g>
					<path d="M559.53,1448.31c-13.74,61.92-31.62,122.84-53.46,182.33c-1.2,3.27-0.06,7.8,4.14,5.71
						c54.72-27.28,109.46-54.57,164.18-81.85c2.54-1.27,6.55-7.46,3.87-10.2c-35.55-36.42-71.1-72.84-106.65-109.25
						c-4.11-4.22-11.33,6.26-7.91,9.75c35.55,36.42,71.1,72.84,106.65,109.25c1.29-3.4,2.58-6.8,3.87-10.2
						c-54.72,27.28-109.46,54.57-164.18,81.85c1.38,1.9,2.76,3.81,4.14,5.71c22.21-60.48,40.36-122.45,54.32-185.4
						c0.54-2.45-0.59-5.16-3.4-4.66C562.13,1441.88,560.11,1445.68,559.53,1448.31L559.53,1448.31z"/>
				</g>
			</g>
		</g>
		<g id="Ebene_4_1_">
			<g>
				<path class="st8" d="M626.17,1265.73c-3.76,31.26-20.01,59.3-31.86,88.41c-11.86,29.11-19.21,63.21-5.3,91.39
					c10.31,20.88,30.41,34.68,45.96,51.94c15.8,17.54,29.94,40.81,53.2,43.98c14.02,1.92,27.74-4.31,40.55-10.38
					c41.86-19.85,83.71-39.7,125.57-59.56c-80.35-59.36-155.13-126.44-222.99-200.03"/>
				<g>
					<path class="st8" d="M621.69,1266.88c-4.45,35.06-24.16,65.03-35.58,97.84c-10.66,30.61-15.04,66.24,4.07,94.48
						c8.86,13.09,21.06,23.32,32.24,34.28c10.43,10.22,19.04,21.99,28.95,32.68c9.13,9.85,19.86,18.75,33.4,21.02
						c17.95,3.02,35.23-6.62,50.91-14.06c39.56-18.76,79.12-37.53,118.68-56.28c3.12-1.48,6.67-8.27,3.11-10.92
						c-62.48-46.2-121.62-96.99-176.71-151.97c-15.5-15.46-30.66-31.26-45.52-47.35c-3.97-4.3-11.25,6.15-7.92,9.75
						c53.11,57.54,110.37,111.16,171.24,160.21c17.23,13.89,34.74,27.39,52.52,40.54c1.04-3.64,2.07-7.27,3.11-10.92
						c-33.69,15.98-67.38,31.96-101.07,47.93c-8.41,3.99-16.8,7.98-25.22,11.96c-7.96,3.76-16.07,7.45-24.77,9.07
						c-14.86,2.78-27.95-3.39-38.66-13.47c-10.07-9.48-17.99-21.01-27.41-31.1c-10.3-11.04-22.09-20.57-31.96-32.03
						c-10.23-11.88-17.15-25.72-18.67-41.55c-1.54-15.99,1.46-32.15,6.36-47.31c11.47-35.55,33.06-67.38,37.85-105.1
						C631.71,1256.19,622.4,1261.32,621.69,1266.88L621.69,1266.88z"/>
				</g>
			</g>
		</g>
		<g id="Ebene_5_1_">
			<g>
				<path class="st9" d="M1243.67,609.4c-194.51,200.31-387.5,389.31-574.72,596.61c-11.29,12.51-37.28,41.97-36.31,58.88
					c1.04,18.01,33.77,29.62,46.38,42.38c54.26,54.88,91.38,80.78,153.41,137.14c5,4.55,29.49,45.14,62.02,5.61
					c173.69-210.98,577.92-682.54,577.03-691.62c-0.71-7.28-4.87-14.45-10.88-18.51c-55.33-37.42-102.43-92.47-161.74-127.19
					c-18.66-10.93-47.69-17.83-57.61,1.53"/>
				<g>
					<path class="st9" d="M1242.41,604.9c-41.93,43.17-84.08,86.13-126.29,129.03c-41.68,42.36-83.41,84.65-125.02,127.06
						c-41.53,42.32-82.95,84.76-124.09,127.48c-41.48,43.08-82.67,86.42-123.41,130.22c-20.52,22.06-40.93,44.23-61.2,66.53
						c-14.73,16.2-30.02,32.15-42.15,50.51c-5.16,7.8-10.3,16.65-11.81,26.05c-1.36,8.46,1.57,15.78,7.46,21.8
						c6.7,6.85,14.99,11.85,23,16.93c3.91,2.49,7.85,4.97,11.56,7.77c4.29,3.24,7.9,7.22,11.71,11
						c34.15,33.89,71.12,64.45,107.52,95.79c10.37,8.94,20.67,17.96,30.87,27.1c5.23,4.69,9.63,9.31,14.26,14.5
						c9.81,11.02,23.43,20.16,38.6,14.79c16.9-5.99,27.73-23.35,38.78-36.72c9.63-11.65,19.29-23.27,28.95-34.88
						c21.93-26.35,43.94-52.65,65.98-78.92c24.17-28.81,48.38-57.58,72.61-86.35c25.39-30.13,50.79-60.24,76.21-90.36
						c25.13-29.78,50.26-59.55,75.4-89.32c23.87-28.29,47.74-56.58,71.58-84.89c21.16-25.14,42.31-50.28,63.4-75.47
						c17.41-20.8,34.8-41.63,52.09-62.53c12.29-14.87,24.56-29.75,36.61-44.82c6.37-7.97,13.25-15.9,18.66-24.6
						c5.16-8.29,0.31-18.83-6.12-25.14c-4.32-4.24-9.89-7.33-14.77-10.88c-5.19-3.78-10.29-7.69-15.33-11.67
						c-10.2-8.08-20.12-16.49-29.95-25.02c-19.89-17.24-39.43-34.93-60.08-51.25c-10.29-8.14-20.84-15.93-31.81-23.1
						c-9.38-6.14-18.92-12.12-29.58-15.69c-17.44-5.85-38.2-5.89-48.11,12.47c-1.06,1.96-2.41,6.04,0.13,7.53
						c2.48,1.45,5.48-1.76,6.51-3.66c4.01-7.43,12.87-8.68,20.55-8.12c9.57,0.7,18.85,3.98,27.3,8.44
						c21.97,11.59,42.04,27.63,61.13,43.46c19.86,16.48,38.92,33.89,58.61,50.58c9.51,8.06,19.16,15.94,29.11,23.42
						c9.29,6.98,22.37,12.73,25.24,25.12c0.46,2-0.01,2.51,0.48,0.66c0.27-1.02,0.58-1.92,0.29-1.15c0.53-1.41,0.91-1.64,0.19-0.54
						c-0.31,0.46-0.62,0.92-0.89,1.39c-0.5,0.88,1.21-1.69,0.37-0.53c-0.24,0.33-0.46,0.66-0.7,0.99c-2.61,3.63-5.34,7.18-8.1,10.71
						c-9.9,12.68-20.09,25.12-30.3,37.54c-15.21,18.53-30.53,36.95-45.88,55.35c-19.34,23.17-38.72,46.29-58.14,69.39
						c-22.41,26.66-44.85,53.3-67.3,79.92c-24.12,28.6-48.26,57.19-72.38,85.78c-24.9,29.5-49.81,59-74.7,88.52
						c-24.31,28.81-48.6,57.64-72.85,86.49c-22.68,26.97-45.34,53.96-67.94,80.99c-20,23.92-39.98,47.88-59.86,71.91
						c-4.36,5.27-8.71,10.54-13.06,15.81c-6.06,7.35-12.47,15.49-21.99,18.15c-13.78,3.85-25.35-6.67-33.57-16.5
						c-5.37-6.42-11.83-11.71-18.07-17.26c-9.67-8.61-19.43-17.11-29.25-25.55c-17.57-15.09-35.35-29.94-52.8-45.19
						c-18.26-15.97-36.06-32.46-53.23-49.65c-6.66-6.66-13.63-11.91-21.56-16.95c-7.74-4.91-16.2-9.68-22.45-16.53
						c-5.27-5.77-6.73-11.35-3.92-18.66c3.31-8.6,8.96-16.36,14.53-23.6c14.14-18.41,30.49-35.16,46.1-52.26
						c39.57-43.31,79.64-86.15,120.05-128.65c39.98-42.04,80.29-83.74,120.79-125.26c40.65-41.68,81.48-83.18,122.33-124.66
						c40.87-41.5,81.75-82.99,122.5-124.61c19.94-20.37,39.85-40.77,59.7-61.22c1.97-2.02,4.18-5.33,3.17-8.34
						C1247.2,602.85,1244.15,603.1,1242.41,604.9L1242.41,604.9z"/>
				</g>
			</g>
		</g>
		<g id="Ebene_6_1_">
			<g>
				<path class="st10" d="M1348.67,435.82c-32.6,30.25-62.36,63.62-88.77,99.52c-6.6,8.96-13.29,19.19-12.14,30.3
					c1.3,12.53,12.02,21.61,21.92,29.27c60.11,46.5,123.42,88.12,183.54,134.62c12.38,9.57,23.63,24.57,38.95,21.69
					c12.58-2.37,25.79-10.59,30.09-22.78c12.28-34.8,44.62-62.7,65.62-78.74c9.78-7.47,16.22-20.05,16.35-32.45
					c0.16-16-13.12-28.43-25.46-38.46c-70.67-57.43-145.95-109.05-224.85-154.2"/>
				<g>
					<path class="st10" d="M1347.41,431.33c-25.67,23.87-49.68,49.59-71.66,76.97c-5.57,6.95-11.02,14-16.34,21.15
						c-4.96,6.68-9.85,13.46-13.12,21.18c-3,7.07-4.27,15.12-2.27,22.64c1.89,7.08,6.42,13.03,11.58,18
						c12.26,11.81,26.88,21.52,40.51,31.62c14.8,10.96,29.74,21.73,44.7,32.46c29.94,21.44,60.03,42.67,89.5,64.76
						c7.1,5.32,14.27,10.58,21.17,16.16c5.59,4.52,10.65,9.69,16.42,13.99c5.04,3.74,10.98,6.95,17.36,7.2
						c6.8,0.28,13.83-2.27,19.8-5.36c6.14-3.18,11.8-7.76,15.9-13.4c4.29-5.89,6.09-12.78,9.22-19.28
						c6.44-13.36,15.63-25.22,25.73-35.93c8.79-9.32,18.52-17.77,28.56-25.69c5.53-4.36,10.74-8.61,14.83-14.48
						c4.4-6.33,7.57-13.61,8.86-21.26c2.57-15.25-4-28.06-14.55-38.54c-11.7-11.63-25.38-21.47-38.36-31.59
						c-55.94-43.6-114.61-83.63-175.53-119.77c-7.5-4.45-15.04-8.84-22.6-13.17c-4.55-2.61-10.94,8.57-6.38,11.18
						c57.79,33.11,113.65,69.62,167.18,109.38c13.59,10.1,27.04,20.4,40.32,30.91c11.53,9.12,24.48,17.92,33.59,29.67
						c4.13,5.31,7.51,11.51,7.78,18.41c0.26,6.75-1.96,13.68-5.78,19.19c-3.47,5-8.4,8.33-13.07,12.05
						c-4.53,3.6-8.96,7.32-13.28,11.17c-20.39,18.19-39.08,39.84-48.81,65.87c-4.2,11.23-18.19,19.9-30.15,18.76
						c-12.49-1.21-21.93-13.51-31.13-20.88c-26.93-21.54-55.32-41.34-83.35-61.37c-28.39-20.29-56.87-40.48-84.75-61.49
						c-6.54-4.92-13.11-9.82-19.5-14.94c-5.48-4.4-10.86-9.23-14.44-15.39c-8.52-14.67,3.55-28.45,12.07-39.74
						c19.89-26.35,41.58-51.33,64.96-74.58c5.75-5.72,11.61-11.34,17.55-16.86c2.04-1.89,4.14-5.42,3.17-8.34
						C1352.17,429.19,1349.22,429.65,1347.41,431.33L1347.41,431.33z"/>
				</g>
			</g>
		</g>
		<g id="Ebene_7_1_">
			<g>
				<path class="st11" d="M1390.12,432.44c15.94-44.94,50.62-75.08,80.46-109.89c4.5-5.26,18.66-5.41,25.46-6.44
					c7.52-1.14,14.54,3.65,20.68,8.21c50.79,37.74,101.58,75.48,152.38,113.22c9.74,7.23,20.57,16.85,19.19,28.99
					c-0.83,7.31-6.02,13.24-10.95,18.64c-22.6,24.7-45.2,49.4-67.8,74.1c-5.22,5.7-11.08,11.75-18.69,12.73
					c-8.4,1.08-16.14-4.33-22.92-9.47c-59.4-45.01-118.79-90.01-178.19-135.02"/>
				<g>
					<path class="st12" d="M1394.16,432.83c7.77-21.57,20.49-40.42,35.06-57.86c7.29-8.74,14.96-17.15,22.64-25.53
						c3.4-3.71,6.79-7.42,10.16-11.15c1.84-2.04,3.68-4.09,5.49-6.15c0.91-1.03,1.82-2.07,2.72-3.1c0.6-0.69,1.2-1.39,1.8-2.07
						c1.06-1.15,1.22-1.37,0.47-0.65c3.17-2.27,7.9-2.66,11.63-3.16c4.39-0.59,9.47-1.67,13.89-1.19
						c5.81,0.64,10.93,4.58,15.51,7.95c5.91,4.36,11.79,8.76,17.69,13.15c22.22,16.51,44.44,33.02,66.66,49.53
						c22.67,16.85,45.43,33.59,68.03,50.54c7.31,5.48,17.74,13.3,17.9,23.5c0.09,5.29-3.69,9.42-6.96,13.12
						c-4.75,5.36-9.66,10.58-14.49,15.87c-18.67,20.41-37.15,41.03-56.04,61.23c-3.35,3.59-7.09,7.42-11.91,8.82
						c-6.2,1.8-12.31-1.22-17.41-4.55c-11.48-7.46-22.15-16.54-33.07-24.81c-50.32-38.14-100.66-76.27-150.98-114.4
						c-4.02-3.05-10.68,7.93-6.38,11.18c48.29,36.59,96.57,73.17,144.86,109.77c11.86,8.99,23.59,18.2,35.62,26.96
						c10.03,7.31,21.39,11.41,32.59,4c5.14-3.4,9.28-7.95,13.42-12.47c4.98-5.44,9.96-10.88,14.94-16.33
						c10.15-11.1,20.3-22.18,30.45-33.28c5.17-5.65,10.34-11.3,15.52-16.95c4.6-5.03,9.46-9.89,13.25-15.59
						c6.75-10.13,7.86-22.13,0.75-32.37c-7.11-10.25-18.77-17.21-28.57-24.48c-12.02-8.93-24.03-17.86-36.05-26.79
						c-24.03-17.86-48.07-35.72-72.11-53.58c-11.93-8.87-23.59-18.53-36.05-26.62c-4.99-3.24-10.59-5.72-16.62-5.21
						c-4.62,0.4-9.31,0.91-13.89,1.61c-4.37,0.67-8.89,1.67-12.65,4.13c-4.69,3.06-8.2,8.45-11.92,12.59
						c-8.07,9.02-16.34,17.85-24.39,26.88c-16.21,18.16-31.69,37.45-42.37,59.56c-2.7,5.59-5.13,11.29-7.23,17.12
						c-0.77,2.12-1.06,5.81,1.85,6.28C1390.75,438.81,1393.37,435.04,1394.16,432.83L1394.16,432.83z"/>
				</g>
			</g>
		</g>
		<g id="Ebene_2_1_">
			<g>
				<g>
					<path d="M1351.77,418.58c-23.39,28-46.83,55.97-70.26,83.93c-6.02,7.19-12.04,14.37-18.06,21.56
						c-5.46,6.51-11.83,12.85-16.08,20.27c-6.99,12.22-7.66,27.68-0.5,39.96c4.05,6.96,10.52,11.19,16.89,15.75
						c8.23,5.88,16.43,11.79,24.63,17.72c16.32,11.8,32.58,23.67,48.83,35.57c32.26,23.61,64.49,47.29,97.01,70.54
						c8.09,5.79,16.2,11.55,24.34,17.28c3.84,2.7,7.69,5.4,11.53,8.08c3.77,2.63,7.5,5.81,11.79,7.54
						c14.57,5.88,28.43-4.57,35.8-16.73c6.72-11.11,12.54-22.86,20.33-33.29c7.07-9.47,15.7-17.24,24.24-25.31
						c7.41-7.01,14.36-14.59,21.09-22.26c7.67-8.74,15.37-17.83,21.27-27.91c2.12-3.62,4.11-7.58,4.75-11.78
						c1.17-7.64-1.27-15.58-5-22.16c-4.05-7.16-9.93-12.87-16.03-18.24c-7.09-6.25-14.25-12.41-21.47-18.5
						c-57.75-48.67-119.59-92.3-183.82-131.77c-8.03-4.94-16.11-9.81-24.22-14.63c-4.49-2.67-10.92,8.49-6.38,11.18
						c61.65,36.6,121.28,76.79,177.53,121.44c14.2,11.27,28.17,22.81,41.9,34.66c11.27,9.72,27.24,21.15,28.46,37.56
						c0.09,1.13,0.11,2.27-0.02,3.39c-0.09,0.82,0.3-0.66-0.28,0.9c-0.49,1.3-0.1,0.4-0.52,1.26c-0.53,1.08-1.12,2.12-1.74,3.14
						c-2.45,4.14-5.35,7.99-8.32,11.76c-6.94,8.86-14.43,17.29-22.2,25.41c-6.78,7.11-14.26,13.47-21.13,20.47
						c-7.78,7.92-14.53,16.45-20.45,25.87c-3.36,5.35-6.51,10.85-9.68,16.32c-3.49,6.05-6.47,12.85-12.69,16.53
						c-5.81,3.43-12.54,3.31-18.31-0.15c-8.1-4.88-15.72-10.91-23.46-16.37c-62.08-43.82-122.84-89.51-184.56-133.81
						c-6.6-4.73-14.59-9.02-19.69-15.5c-3.88-4.93-6.21-11-6.37-17.32c-0.15-5.99,1.7-11.53,5.45-16.16
						c5.46-6.75,11.15-13.32,16.72-19.97c22.6-26.98,45.2-53.94,67.78-80.93c5.19-6.21,10.37-12.41,15.56-18.61
						c1.59-1.91,3.37-5.91,1.61-8.23C1356.26,414.65,1353.13,416.94,1351.77,418.58L1351.77,418.58z"/>
				</g>
			</g>
			<g>
				<g>
					<path d="M1382.17,437.8c26.21-34.31,49.94-71.5,80.48-102.14c5.61-5.63,11.54-11.29,18.29-15.5c4.43-2.76,9.08-5.13,14.14-4.13
						c6.43,1.27,12.6,5.47,18.05,8.94c8.07,5.16,15.76,10.91,23.35,16.76c13.61,10.51,26.57,21.88,40.29,32.23
						c18.93,14.27,39.8,26.14,59.52,39.26c10.64,7.08,21.12,14.39,31.39,21.99c5.68,4.2,11.93,8.21,17.01,13.14
						c2.99,2.9,5,6.23,4.83,10.5c-0.2,4.58-1.61,9.16-2.4,13.66c-0.26,1.47-0.48,2.94-0.69,4.42c-0.2,1.34,0.03,0.03-0.04,0.31
						c-0.13,0.48-0.74,1.7-0.2,0.59c-0.4,0.84-0.88,1.64-1.35,2.43c-3.91,6.53-10.25,13.48-15.82,19.58
						c-11.97,13.1-24.88,25.18-37.76,37.33c-12.82,12.08-24.43,24.66-35.34,38.52c-3.79,4.81-7.58,9.62-11.4,14.41
						c-1.56,1.95-3.4,5.87-1.61,8.23c1.8,2.38,4.98,0.15,6.31-1.52c11.56-14.5,22.55-29.38,35.83-42.32
						c14.02-13.65,28.51-26.7,42.05-40.86c6.77-7.09,13.5-14.33,19.39-22.2c2.36-3.16,4.68-6.42,6.45-9.96
						c2.02-4.04,2.53-8.01,3.34-12.42c1.69-9.12,4.83-19.15-1.06-27.43c-3.85-5.41-10-9.2-15.2-13.12
						c-5.84-4.41-11.74-8.73-17.7-12.96c-21.28-15.1-43.46-28.8-65.19-43.2c-14.98-9.93-28.58-21.31-42.6-32.55
						c-14.64-11.74-29.81-24.78-46.93-32.7c-5.44-2.51-10.74-3.98-16.64-2.29c-7.11,2.03-13.44,6.59-19.12,11.21
						c-16.51,13.41-30.25,30.54-43.4,47.2c-14.56,18.46-28.3,37.55-42.32,56.42c-2.86,3.85-5.74,7.69-8.65,11.5
						c-1.52,1.99-3.41,5.85-1.61,8.23C1377.63,441.67,1380.87,439.5,1382.17,437.8L1382.17,437.8z"/>
				</g>
			</g>
			<g>
				<g>
					<path d="M1257.83,582.86c-51.07,55.41-103.12,109.88-155.65,163.88c-52.25,53.7-104.95,106.94-157.59,160.24
						c-52.73,53.37-105.41,106.81-157.53,160.8c-25.97,26.9-51.81,53.94-77.44,81.18c-13.08,13.89-26.1,27.84-39.06,41.85
						c-8.6,9.29-17.34,18.49-25.26,28.4c-7.52,9.43-15.38,19.93-18.92,31.68c-4,13.28,2.33,24.01,11.84,33.05
						c13.25,12.6,27.48,24.26,41.23,36.3c14.66,12.84,29.31,25.7,43.97,38.54c29.1,25.5,58.19,51.01,87.29,76.51
						c7.22,6.33,14.43,12.65,21.66,18.98c6.01,5.27,12.07,10.72,19.17,14.45c13.68,7.18,27.68,4.51,39.21-5.39
						c12.32-10.57,21.74-25.09,31.75-37.78c11.4-14.45,22.83-28.87,34.28-43.28c22.66-28.51,45.41-56.95,68.24-85.31
						c44.7-55.52,89.75-110.75,135.13-165.71c45.41-55.01,91.14-109.74,137.13-164.26c47.48-56.3,95.22-112.38,143.12-168.32
						c12.2-14.24,24.4-28.47,36.61-42.69c1.62-1.89,3.35-5.92,1.61-8.23c-1.83-2.42-4.93-0.09-6.31,1.52
						c-47.92,55.81-95.72,111.74-143.28,167.88c-45.52,53.73-90.82,107.64-135.82,161.82c-44.53,53.6-88.78,107.44-132.68,161.56
						c-44.96,55.41-89.58,111.12-133.85,167.1c-10.65,13.46-20.83,27.53-32.15,40.43c-4.29,4.89-9.35,9.78-15.59,11.95
						c-7.35,2.56-14.94,0.84-21.63-2.81c-7.1-3.87-13.16-9.38-19.21-14.68c-7-6.14-14-12.27-21-18.41
						c-14.22-12.47-28.43-24.92-42.66-37.39c-28.66-25.12-57.31-50.23-85.98-75.35c-13.9-12.18-28.13-24.07-41.7-36.61
						c-5.17-4.77-11.22-10.91-12.54-18.18c-0.64-3.54,0.85-7.24,2.32-10.38c5.02-10.73,13.05-20.14,20.74-28.97
						c9.58-11,19.69-21.57,29.62-32.24c25.17-27.05,50.55-53.88,76.09-80.56c51-53.27,102.65-105.91,154.43-158.39
						c51.81-52.52,103.76-104.89,155.38-157.61c51.36-52.47,102.39-105.28,152.61-158.87c12.43-13.27,24.81-26.58,37.13-39.95
						c1.67-1.82,3.32-5.97,1.61-8.23C1262.27,578.86,1259.26,581.3,1257.83,582.86L1257.83,582.86z"/>
				</g>
			</g>
			<g>
				<g>
					<path d="M621.33,1252.45c-16.97,48.45-33.18,97.18-48.84,146.08c-16.66,52-32.69,104.21-47.92,156.65
						c-8.14,28-16.03,56.06-23.61,84.22c-0.89,3.31,1.5,5.71,4.56,4.18c94.56-47.21,189.28-94.23,285.8-137.26
						c26.04-11.61,52.21-22.91,78.55-33.82c4.57-1.89,6.86-13.56-0.18-10.65c-95.83,39.67-189.48,84.53-282.52,130.42
						c-27.31,13.47-54.58,27.05-81.83,40.66c1.52,1.39,3.04,2.78,4.56,4.18c13.61-50.55,28.26-100.81,43.52-150.88
						c15.66-51.42,31.98-102.63,48.94-153.62c8.83-26.53,17.83-53,27.07-79.38c0.74-2.13,1.08-5.81-1.85-6.28
						C624.76,1246.46,622.11,1250.23,621.33,1252.45L621.33,1252.45z"/>
				</g>
			</g>
			<g>
				<path d="M565.83,1432.63c33.58,28.57,89.78,95.88,121.77,116.24c-56.87,24.14-115.47,57.83-176.96,83.94
					c25.6-107.79,47.12-176.57,53.47-194.7"/>
				<g>
					<path d="M562.64,1438.22c16.65,14.22,31.69,30.38,46.87,46.14c16.57,17.19,33.05,34.56,50.67,50.66
						c7.63,6.97,15.52,13.83,24.22,19.43c1.04-3.64,2.07-7.27,3.11-10.92c-60.08,25.58-116.86,58.36-176.96,83.94
						c1.52,1.39,3.04,2.78,4.56,4.18c13.9-58.44,28.83-116.77,46.8-174.09c2-6.39,4.03-12.77,6.24-19.09
						c0.74-2.13,1.08-5.81-1.85-6.28c-2.81-0.46-5.47,3.31-6.24,5.53c-14.89,42.64-26.3,86.72-37.59,130.43
						c-5.66,21.87-11.07,43.81-16.3,65.8c-0.83,3.49,1.43,5.51,4.56,4.18c60.09-25.58,116.87-58.36,176.96-83.94
						c3.02-1.28,6.8-8.54,3.11-10.92c-17-10.92-31.53-25.96-45.73-40.25c-17.18-17.3-33.81-35.15-51.03-52.41
						c-8.09-8.11-16.31-16.13-25.01-23.57C565.28,1423.84,558.52,1434.69,562.64,1438.22L562.64,1438.22z"/>
				</g>
			</g>
		</g>
		<g id="Ebene_9_1_">
			<g class="st13">
				<g>
					<path d="M1490.73,316.19c4.97,0,9.85-11.81,4.39-11.81C1490.15,304.38,1485.27,316.19,1490.73,316.19L1490.73,316.19z"/>
				</g>
			</g>
			<g class="st13">
				<path d="M1485.37,316.87c-0.46,89.32,37.06,178.19,101.16,239.63c5.62,5.39,10.48,16.61,3.12,19.06
					c-3.37,1.12-6.83-1.16-9.66-3.31c-58.83-44.81-117.67-89.62-176.51-134.43c-4.84-3.68-10.04-7.94-11.14-13.97
					c-1.17-6.43,2.74-12.58,6.56-17.85c25.48-35.16,55.64-66.85,89.41-93.93"/>
				<g>
					<path d="M1480.78,319.45c-0.24,81.81,30.43,163.23,84.57,224.04c3.06,3.43,6.2,6.81,9.4,10.11c3.46,3.56,7.58,6.86,10.53,10.89
						c1.04,1.42,1.98,2.94,2.64,4.58c0.26,0.65,0.46,3.14,0.89,3.62c0.66-0.98,1.3-1.96,1.96-2.94c-1,0.28-1.97,0.2-2.92-0.22
						c-1.06-0.32-2.06-1.08-2.97-1.69c-2.92-1.96-5.65-4.24-8.45-6.37c-19.92-15.17-39.83-30.33-59.74-45.5
						c-19.92-15.17-39.83-30.33-59.74-45.5c-9.96-7.58-19.92-15.17-29.87-22.74c-4.53-3.44-9.06-6.9-13.57-10.34
						c-4.65-3.54-10.16-6.91-13.84-11.56c-3.88-4.9-3.04-9.44,0.19-14.4c3.34-5.14,7.24-9.98,11-14.81
						c7.58-9.77,15.53-19.25,23.82-28.4c16.92-18.68,35.36-35.9,54.95-51.66c2.14-1.71,4.1-5.55,3.17-8.34
						c-0.97-2.91-3.8-2.15-5.69-0.65c-18.86,15.17-36.56,31.72-53.06,49.48c-8.06,8.69-15.81,17.67-23.23,26.92
						c-7.17,8.96-15.64,18.33-20.48,28.86c-2.3,4.99-3.65,10.69-2.1,16.13c1.43,5.02,5.1,8.75,8.96,11.98
						c10.14,8.51,21.11,16.16,31.63,24.17c21.27,16.2,42.55,32.4,63.81,48.6c21.27,16.2,42.55,32.4,63.81,48.6
						c5.43,4.13,10.86,8.27,16.29,12.41c4.14,3.15,8.94,7.83,14.58,6.9c9.7-1.62,12.44-13.26,9.06-21.23
						c-3.72-8.75-12.14-14.77-18.45-21.56c-7.52-8.08-14.61-16.56-21.27-25.39c-13.03-17.29-24.34-35.89-33.8-55.41
						c-21.57-44.58-33.01-94.12-32.87-143.76c0.01-2.85-2.34-3.92-4.69-2.74C1482.61,312.89,1480.78,316.52,1480.78,319.45
						L1480.78,319.45z"/>
				</g>
			</g>
			<g class="st13">
				<path d="M1348.54,427.47c-10.66,29.11-37.96,47.8-60.52,68.84c-22.56,21.05-42.66,52.13-32.54,81.45
					c5.69,16.49,19.78,28.34,33.3,39.2c60.43,48.56,122.35,95.22,185.64,139.89c3.27,2.31,6.99,4.73,10.93,4.11
					c5.77-0.89,8.73-8.14,7.34-13.86c-1.4-5.73-5.73-10.18-9.86-14.34c-40.62-41-79.13-85.28-104.76-137.22s-37.49-112.65-23-168.82
					"/>
				<g>
					<path d="M1344.48,427.09c-9.22,24.48-31,40.91-49.84,57.59c-20.02,17.73-39.3,39.14-45.06,66.28
						c-2.69,12.69-1.4,25.7,4.29,37.36c5.92,12.12,16.17,21.46,26.36,29.91c24.41,20.22,49.62,39.55,74.77,58.8
						c25.53,19.54,51.32,38.76,77.34,57.63c13.07,9.48,26.12,19.06,39.43,28.2c5,3.43,10.75,5.71,16.44,2.44
						c5.2-2.99,8.49-9.27,9.22-15.12c1.7-13.63-11.73-23.26-20.06-31.87c-10.24-10.57-20.27-21.36-29.94-32.46
						c-19.11-21.94-36.88-45.17-51.82-70.23c-29.86-50.06-48.64-109.92-40.29-168.77c1.01-7.16,2.44-14.25,4.22-21.25
						c0.62-2.45-0.65-5.15-3.4-4.66c-3.02,0.54-4.89,4.32-5.56,6.96c-13.86,54.63-3.91,112.81,19.17,163.39
						c23.37,51.21,59.45,95.06,98.12,135.16c4.73,4.91,9.7,9.62,14.29,14.67c2.19,2.41,8.7,9.65,5.88,13.42
						c-2.79,3.74-12.87-4.95-15.17-6.58c-6.28-4.44-12.54-8.91-18.79-13.4c-25-17.94-49.79-36.18-74.34-54.74
						c-24.77-18.72-49.32-37.76-73.63-57.09c-19.41-15.44-46.96-32.83-48.66-60.55c-1.57-25.61,17.06-47.99,34.71-64.06
						c18.4-16.75,38.68-32.06,52.13-53.49c3.31-5.28,6.06-10.93,8.26-16.78c0.79-2.11,1.05-5.82-1.85-6.28
						C1347.88,421.1,1345.32,424.89,1344.48,427.09L1344.48,427.09z"/>
				</g>
			</g>
			<g class="st13">
				<path d="M1245.95,607.74c-198.01,197.01-392.81,397.33-584.27,600.85c-11.36,12.08-23.44,25.96-23.29,42.61
					c0.17,18.84,15.73,33.37,30.06,45.4c63.55,53.38,127.1,106.77,190.65,160.16c4.43,3.72,9.48,7.65,15.22,7.23
					c11.41-0.84,14.34-16.24,14.37-27.81c0.2-108.97,27.07-216.55,66.45-317.98c39.38-101.43,91.13-197.39,143.1-292.84
					c42.28-77.68,86.44-157.22,154.52-213.08"/>
				<g>
					<path d="M1244.7,603.25c-53.28,53.01-106.33,106.26-159.14,159.74c-52.61,53.29-105,106.81-157.14,160.57
						c-52.32,53.93-104.4,108.1-156.25,162.51c-25.74,27.01-51.42,54.08-77.05,81.2c-12.72,13.46-25.53,26.84-38.1,40.44
						c-10.18,11.01-20.53,23.93-22.75,39.34c-2.16,15.04,4.28,28.48,14.11,39.39c11.21,12.43,25,22.62,37.76,33.32
						c29.17,24.5,58.32,49,87.49,73.49c14.37,12.07,28.72,24.13,43.09,36.2c7.4,6.22,14.8,12.43,22.2,18.65
						c6.83,5.74,13.48,11.96,20.69,17.22c5.6,4.09,12.38,6.17,18.88,2.94c5.46-2.71,9.1-8.2,11.32-13.76
						c5.46-13.66,3.39-29.85,3.91-44.22c2.6-71.66,16.5-142.66,37.41-211.07c21.21-69.36,49.52-136.29,81.14-201.4
						c31.4-64.65,65.75-127.85,100.35-190.79c30.82-56.06,63.48-112.03,107.53-158.67c10.6-11.23,21.94-21.76,33.85-31.57
						c2.12-1.75,4.11-5.54,3.17-8.34c-0.96-2.89-3.81-2.18-5.69-0.65c-48.82,40.21-85.82,92.54-117.95,146.79
						c-16.45,27.78-31.79,56.22-47.21,84.61c-17.13,31.53-34.16,63.13-50.66,95.01c-32.7,63.16-63.44,127.52-88.62,194.15
						c-25.01,66.17-44.6,134.75-54.92,204.91c-5.1,34.68-7.86,69.66-8.05,104.72c-0.03,5.29-0.21,11.17-2.45,16.06
						c-2.46,5.38-8.35,4.58-12.81,1.98c-7.36-4.29-13.74-10.89-20.25-16.36c-7.18-6.03-14.37-12.07-21.55-18.1
						c-28.72-24.13-57.46-48.27-86.18-72.4c-14.14-11.88-28.29-23.77-42.44-35.65c-13.17-11.06-27.3-21.57-39.35-33.9
						c-9.62-9.85-18.67-22.87-15.36-37.44c3.31-14.57,16.33-25.97,26.1-36.35c25.39-26.96,50.83-53.87,76.32-80.72
						c50.64-53.32,101.51-106.42,152.6-159.29c51.27-53.05,102.77-105.87,154.5-158.46c51.73-52.59,103.68-104.96,155.86-157.09
						c12.7-12.69,25.4-25.36,38.13-38.02c1.99-1.98,4.17-5.36,3.17-8.34C1249.48,601.18,1246.47,601.49,1244.7,603.25L1244.7,603.25
						z"/>
				</g>
			</g>
			<g class="st13">
				<path d="M627.08,1262.43c-48.19,119.14-86.36,242.41-113.98,368.06c21.4,0.84,41-14.02,52.18-32.5
					c11.17-18.49,15.52-40.25,19.67-61.51c17.86-91.43,35.72-182.85,53.58-274.28"/>
				<g>
					<path d="M623.03,1262.05c-37.69,93.28-69.27,189.07-94.53,286.55c-7.14,27.56-13.75,55.24-19.88,83.04
						c-0.36,1.64,0.03,4.7,2.28,4.76c22.8,0.56,42.65-14.1,55.11-32.47c14.57-21.49,19.34-47.73,24.23-72.8
						c11.23-57.49,22.46-114.98,33.69-172.48c6.36-32.53,12.71-65.07,19.06-97.6c0.48-2.45-0.54-5.17-3.4-4.66
						c-2.9,0.52-5.05,4.33-5.56,6.96c-10.63,54.41-21.26,108.81-31.88,163.21c-5.37,27.48-10.74,54.97-16.1,82.45
						c-4.8,24.6-7.98,50.51-17.48,73.82c-8.99,22.06-28.05,42.36-53.29,41.74c0.76,1.58,1.52,3.17,2.28,4.76
						c21.49-97.61,49.31-193.73,83.32-287.63c9.59-26.49,19.68-52.79,30.23-78.9c0.85-2.1,1-5.82-1.85-6.28
						C626.38,1256.05,623.91,1259.86,623.03,1262.05L623.03,1262.05z"/>
				</g>
			</g>
		</g>
		<g id="Ebene_10_1_">
			<g class="st13">
				<g>
					<path class="st6" d="M1555.3,397.66c17.6,16.25,39.47,25.86,58.17,40.5c1.38,1.08-1.11-1,0.17,0.14
						c0.37,0.33,0.74,0.65,1.1,0.97c0.82,0.75,1.62,1.52,2.39,2.31c1.54,1.59,2.99,3.29,4.22,5.13c0.54,0.81,1.05,1.64,1.5,2.51
						c0.18,0.34,1.15,2.63,0.69,1.33c0.74,2.07,1.04,4.3,1.11,6.49c0.37,10.92-5.55,20.66-11.3,29.43
						c-8.2,12.5-17.67,24.16-24.55,37.53c-3.58,6.97,10.87,8.94,14.86,9.26c5.41,0.46,11.08,0.49,16.39-0.76
						c2.89-0.68,8.27-1.58,9.78-4.5c6.16-11.97,14.4-22.62,21.97-33.69c6.62-9.68,13.67-20.61,15.17-32.57
						c2.81-22.37-21.58-35.34-37.46-45.08c-11.47-7.04-23.89-14.45-33.18-23.03c-6.47-5.97-17.92-6.23-26.17-5.26
						C1568.11,388.63,1549.51,392.31,1555.3,397.66L1555.3,397.66z"/>
				</g>
			</g>
			<g class="st13">
				<g>
					<path class="st6" d="M1523.96,616.34c-13.12,14.21-26.23,28.43-39.35,42.64c-2.03,2.2,0.47,4.7,2.14,5.8
						c3.39,2.23,8.85,3.14,12.72,3.46c7.72,0.65,20.27,1.14,26.17-5.26c13.12-14.21,26.23-28.43,39.35-42.64
						c2.03-2.2-0.47-4.7-2.14-5.8c-3.39-2.23-8.85-3.14-12.72-3.46C1542.41,610.44,1529.87,609.94,1523.96,616.34L1523.96,616.34z"
						/>
				</g>
			</g>
			<g class="st13">
				<g>
					<path class="st6" d="M1372.36,765.45c-59.16,68.91-118.73,137.47-178.45,205.9c-56.75,65.04-113.61,129.99-170.22,195.16
						c-32.72,37.66-65.34,75.4-97.83,113.25c-5.24,6.1,12.25,9.05,14.86,9.26c5.41,0.46,11.08,0.49,16.39-0.76
						c3.41-0.8,7.38-1.7,9.78-4.5c57.21-66.64,114.84-132.91,172.59-199.08c57.31-65.67,114.71-131.26,171.85-197.06
						c34.12-39.3,68.15-78.68,102.05-118.16c5.24-6.1-12.25-9.05-14.86-9.26c-5.41-0.46-11.08-0.49-16.39,0.76
						C1378.72,761.75,1374.76,762.65,1372.36,765.45L1372.36,765.45z"/>
				</g>
			</g>
			<g class="st13">
				<g>
					<path class="st6" d="M605.02,1559.16c48.22-27.39,97.37-51.76,147.46-72.95c14.58-6.16,29.25-12.09,44.02-17.78
						c1.91-0.74,6.23-2.46,6.23-5.33c0-2.81-4.32-4.67-6.23-5.33c-8.94-3.05-21.14-3.45-30.09,0
						c-53.18,20.49-105.23,44.06-155.73,70.59c-14.26,7.49-28.39,15.23-42.4,23.18c-8.2,4.66,3.56,9.51,7.63,10.3
						C584.97,1563.62,596.67,1563.9,605.02,1559.16L605.02,1559.16z"/>
				</g>
			</g>
		</g>
	</g>
</g>
<g id="Ebene_3">
</g>
</svg>
