<?xml version="1.0" encoding="utf-8"?>
<!-- Generator: Adobe Adobe Illustrator 24.2.0, SVG Export Plug-In . SVG Version: 6.00 Build 0)  -->
<svg version="1.1" xmlns="http://www.w3.org/2000/svg" xmlns:xlink="http://www.w3.org/1999/xlink" x="0px" y="0px"
	 viewBox="0 0 1700.79 1700.79" style="enable-background:new 0 0 1700.79 1700.79;" xml:space="preserve">
<style type="text/css">
	.st0{fill:#C8354F;}
	.st1{fill:#F2C159;}
	.st2{fill:#F2C058;}
	.st3{fill:#808E9C;}
	.st4{fill:#7F8E9C;stroke:#000000;stroke-width:16.166;stroke-miterlimit:10;}
	.st5{opacity:0.2196;}
	.st6{fill:#FFFFFF;}
	.st7{fill:#C93550;}
	.st8{opacity:0.149;}
	.st9{opacity:0.0314;}
</style>
<g id="Ebene_10">
</g>
<g id="Ebene_4">
</g>
<g id="Ebene_5">
</g>
<g id="Ebene_9">
</g>
<g id="Ebene_6">
</g>
<g id="Ebene_7">
	<g>
		<g>
			<path d="M204.87,432.16c7.41,90.17,14.83,180.34,22.24,270.52c0.75,9.08,1.83,18.94,8.18,25.66c6.6,6.99,16.98,8.57,26.5,9.63
				c187.2,20.98,377.76,4.4,556.68-48.44c105.18-31.07,206.56-74.54,314.28-96.4c107.72-21.86,226.26-19.98,322.79,35.37
				c-4.81-77.85-9.63-155.71-14.44-233.56c-0.99-16.05-2.24-32.9-11-46.61c-11.06-17.31-31.68-25.95-51.31-32.22
				c-128.44-41.02-267.49-24.94-396.23,9.2s-252.03,85.7-381.77,116.24s-270.76,38.75-395.52-12.7"/>
			<g>
				<path d="M196.78,432.16c4.52,55.01,9.05,110.03,13.57,165.04c2.24,27.3,4.49,54.6,6.73,81.9c1.67,20.28-0.8,49.83,20.5,60.93
					c9.62,5.01,20.7,5.67,31.29,6.8c13.37,1.43,26.77,2.67,40.18,3.72c26,2.04,52.06,3.35,78.14,3.95
					c52.05,1.2,104.18-0.46,156.05-4.98c103.73-9.03,206.19-29.45,305.47-60.79c98.42-31.06,194.69-70.74,296.51-89.82
					c90.68-16.99,189.38-16.94,275.11,20.86c10.65,4.69,21.02,9.96,31.13,15.71c5.06,2.88,12.55-0.7,12.16-6.98
					c-3.38-54.66-6.76-109.33-10.14-163.99c-1.67-27.02-2.6-54.21-5.16-81.17c-2.19-23.08-9.53-43.13-28.75-57.2
					c-17.86-13.07-40.93-19.08-62-24.65c-24.45-6.46-49.38-10.95-74.49-13.88c-50.81-5.93-102.25-4.83-153.02,0.94
					c-102.83,11.69-201.72,42.46-299.58,74.92c-97.97,32.5-196.11,66.73-298.26,83.62c-96.09,15.89-196.8,16.54-290.3-13.45
					c-11.67-3.74-23.16-7.97-34.5-12.61c-4.07-1.67-8.84,1.81-9.94,5.65c-1.33,4.62,1.63,8.3,5.65,9.94
					c89.89,36.81,189.03,43.37,284.82,32.78c100.42-11.1,197.16-40.75,292.73-72.35c96.83-32.02,193.54-66.09,294.21-84.16
					c98.61-17.7,201.93-20.08,298.44,9.96c18.76,5.84,40.47,13.36,50.91,31.36c5.84,10.07,7.42,21.94,8.3,33.36
					c1.02,13.21,1.68,26.45,2.5,39.67c3.33,53.83,6.66,107.67,9.99,161.5c0.82,13.25,1.64,26.5,2.46,39.75
					c4.05-2.33,8.11-4.65,12.16-6.98c-81.03-46.11-177-56.04-268.39-45.73c-100.13,11.29-195.08,46.37-289.9,78.59
					c-48.63,16.52-97.57,31.99-147.47,44.22c-50.05,12.26-100.8,21.81-151.91,28.41c-102.52,13.25-206.5,15.25-309.45,5.98
					c-11.89-1.07-24.01-1.79-35.78-3.79c-10.58-1.8-17.82-5.76-20.24-16.75c-2.63-11.97-2.52-24.88-3.52-37.07
					c-1.09-13.24-2.18-26.47-3.26-39.71c-4.49-54.6-8.98-109.2-13.47-163.8c-1.09-13.24-2.18-26.47-3.26-39.71
					C212.1,421.86,195.93,421.77,196.78,432.16L196.78,432.16z"/>
			</g>
		</g>
		<g>
			<path class="st0" d="M237.63,757.61c8.59,138.11,20.24,305.01,28.41,312.05c7.36,6.33,32.01,10.48,41.65,11.14
				c157.04,10.8,245.48,25.25,449.65-39.23c121.03-38.23,238.06-88.06,361.21-119.49c123.16-31.43,262.9-34.87,372.02,33.66
				c-12.89-88.61-14.94-271.88-34.74-299.53c-21.86-30.53-144.06-117.02-453.82-10.68c-106.63,36.61-214.26,52.9-324.56,77.7
				C532.1,755.92,400.7,765.4,237.5,745.53"/>
			<g>
				<path class="st0" d="M229.55,757.61c3.54,56.89,7.23,113.77,11.6,170.6c3.17,41.25,5.89,82.82,12.14,123.74
					c1.15,7.56,1.69,18.56,7.81,24.03c7.61,6.8,20.29,8.88,29.96,10.65c10.31,1.89,20.67,2.52,31.11,3.27
					c44.36,3.17,88.71,7.04,133.19,8.13c43.89,1.08,87.66-1.19,131.14-7.35c55.52-7.87,110.03-21.81,163.55-38.36
					c124.33-38.45,244.36-90.29,370.66-122.44c106.9-27.21,227.4-34.47,329.79,13.27c12.4,5.78,24.4,12.33,36,19.57
					c6.62,4.13,12.81-2.67,11.87-9.13c-6.91-47.89-9.15-96.5-12.6-144.72c-3.16-44.09-4.79-89.56-14.37-132.85
					c-2.26-10.21-5.19-20.07-11.93-28.22c-4.24-5.12-9.22-9.59-14.44-13.68c-18.05-14.17-39.08-24.06-60.78-31.29
					c-82.75-27.55-175.58-18.27-259.21-0.38c-33.63,7.2-66.84,16.32-99.6,26.8c-35.19,11.26-70,23.15-105.76,32.58
					c-72.11,19.01-145.56,32.23-218.42,47.91c-66.94,14.4-133.57,27.87-201.9,33.77c-68.79,5.94-137.98,5.44-206.76-0.36
					c-18.41-1.55-36.78-3.48-55.11-5.7c-4.37-0.53-8.04,4.09-8.08,8.08c-0.05,4.8,3.77,7.56,8.08,8.08
					c70.2,8.49,140.96,12.3,211.64,9.3c66.55-2.83,132.73-11.66,197.99-24.92c35.2-7.15,70.2-15.26,105.39-22.5
					c35.68-7.34,71.4-14.5,106.95-22.46c35.93-8.05,71.7-16.93,106.96-27.56c35.3-10.64,69.9-23.35,105.44-33.24
					c54.98-15.3,111.45-26.58,168.55-29.43c38.68-1.93,77.91-0.14,115.7,8.86c24.75,5.89,46.56,13.72,67.8,27.2
					c1.91,1.21,3.8,2.47,5.65,3.76c0.76,0.53,1.52,1.07,2.27,1.62c0.56,0.41,3.69,2.81,1.77,1.3c2.84,2.23,5.61,4.56,8.23,7.06
					c2.12,2.02,4.07,4.17,6,6.37c0.27,0.3,1.63,2.06,0.58,0.69c-1.04-1.36,0.24,0.28,0.44,0.62c0.52,0.87,1.07,1.71,1.57,2.59
					c0.19,0.33,0.33,0.68,0.51,1.01c1.03,2-0.11-0.45,0.42,0.91c5.36,13.64,7.26,28.9,9.17,43.33c3.04,23,4.95,46.15,6.75,69.27
					c3.87,49.76,6.45,99.66,11.66,149.31c1.09,10.42,2.35,20.81,3.84,31.18c3.96-3.04,7.92-6.09,11.87-9.13
					c-96.3-60.04-214.87-65.48-324.01-46.2c-60.34,10.66-119.26,29.18-177.23,48.69c-60.86,20.48-120.99,43.06-181.74,63.88
					c-100.96,34.59-204.32,63.91-311.66,66.75c-42.52,1.13-85-1.41-127.39-4.45c-22.67-1.63-45.53-2.59-68.12-4.99
					c-9.63-1.02-20.1-2.82-29.05-6.62c-1.2-0.51-2.62-1.56-3.69-1.86c-0.74-0.21,1.68,1.94,0.52,0.58
					c-0.01-0.01,0.53,2.03,0.06,0.05c-0.22-0.9-0.54-1.78-0.78-2.67c-3-11.46-4.04-23.32-5.37-35c-2.4-21.04-4.28-42.13-6.04-63.23
					c-4.58-54.67-8.27-109.42-11.79-164.17c-0.9-13.96-1.78-27.93-2.65-41.9C245.07,747.28,228.9,747.21,229.55,757.61
					L229.55,757.61z"/>
			</g>
		</g>
		<g>
			<path class="st1" d="M273.09,1095.88c6.56,88.48-4.42,147.75,21.81,263.76c90.89,22.22,186.19,24.86,277.28,7.68
				c106.01-20,204.61-66.03,309.14-92.07c198.43-49.42,409.29-24.95,612.66,10.92c10.7,1.89,23.36,3.22,30.67-4.52
				c6.5-6.89,5.57-17.73,4.24-27.2c-11.17-79.29-22.34-158.59-33.51-237.88c-2.61-18.55-5.59-38.01-16.99-53.16
				c-12.66-16.82-33.45-25.34-53.47-31.97c-120.06-39.76-249.56-32.65-367.34,8.21C921.11,987,788.22,1048.73,646.31,1078.1
				c-139.29,28.83-253.22,26.59-380.16,1.16"/>
			<g>
				<path class="st2" d="M265.01,1095.88c4.77,65.34,0.87,130.9,9.52,196.01c3.12,23.49,7.39,46.78,12.58,69.9
					c0.59,2.65,3.03,5.01,5.65,5.65c92.82,22.51,190.05,25.29,283.88,7.24c92.11-17.72,178.74-54.9,268.45-81.18
					c91.38-26.78,185.86-37.99,280.95-38c96.32,0,192.36,10.59,287.43,25.4c23.79,3.71,47.54,7.68,71.27,11.83
					c17.48,3.06,41.6,7.58,50.49-12.81c3.83-8.79,2.73-18.38,1.46-27.61c-1.71-12.39-3.49-24.78-5.24-37.17
					c-3.49-24.78-6.98-49.56-10.47-74.34c-3.49-24.78-6.98-49.56-10.47-74.34c-3.31-23.51-5.65-47.42-10.36-70.7
					c-4.17-20.58-13.06-38.85-30.09-51.69c-16.43-12.4-36.89-18.79-56.37-24.65c-88.58-26.64-183.27-28.58-273.72-10.58
					c-45.81,9.12-89.64,24.39-133.36,40.53c-44.34,16.36-88.35,33.62-132.61,50.21c-89.11,33.39-179.42,63.26-273.53,78.88
					c-88.61,14.71-178.78,16.4-267.78,4c-21.57-3.01-43.03-6.74-64.39-11c-10.16-2.03-14.51,13.55-4.3,15.59
					c85.61,17.07,172.68,24.3,259.82,17.14c92.69-7.61,183.15-29.41,271.1-59.11c87.67-29.61,173.02-65.57,260.36-96.09
					c85.48-29.86,176.49-42.72,266.72-32.17c22.64,2.65,45.12,6.9,67.2,12.56c20.32,5.21,41.66,10.8,60.26,20.73
					c8.31,4.44,16.14,9.98,22,17.46c6.44,8.22,9.88,18.32,12.2,28.37c5.1,22.03,7.05,45,10.2,67.38
					c6.86,48.73,13.73,97.47,20.59,146.2c1.69,11.98,3.37,23.95,5.06,35.93c1.16,8.27,4.86,20.68,0.66,28.62
					c-3.97,7.51-15.39,5.71-22.25,4.62c-11.68-1.85-23.31-4.07-34.97-6.04c-92.89-15.68-186.54-28.34-280.75-32.16
					c-92.9-3.77-186.56,1.31-277.59,21.04c-89.87,19.48-174.76,55.6-262.99,80.77c-44.72,12.76-90.24,22.18-136.63,25.96
					c-46.42,3.78-93.28,2.63-139.45-3.48c-23.05-3.05-45.9-7.46-68.49-12.94c1.88,1.88,3.76,3.76,5.65,5.65
					c-8.43-37.53-14.3-75.5-16.74-113.9c-1.97-30.98-1.83-62.02-2.42-93.05c-0.35-18.24-1.03-36.47-2.36-54.66
					C280.42,1085.56,264.25,1085.48,265.01,1095.88L265.01,1095.88z"/>
			</g>
		</g>
		<g>
			<path class="st3" d="M63.65,347.57c0.5,14.71-0.96,47.61-0.46,62.32c33.16-9.1,65.77-15.31,102.29-14.86
				c-1.4-40.83-5.87-60.8-5.87-60.8s0.72-7.15-96.26,13.02"/>
			<g>
				<path d="M55.56,347.57c0.64,20.77-1.1,41.55-0.46,62.32c0.16,5.23,5.04,9.21,10.23,7.79c32.81-8.96,66.04-14.88,100.14-14.57
					c4.26,0.04,8.24-3.74,8.08-8.08c-0.68-18.95-1.98-37.95-5.01-56.68c-0.25-1.57-0.5-3.14-0.83-4.7c-0.2-0.99-0.67-3.71-0.03,0.58
					c-0.36-2.39-0.76-4.24-2.57-6.01c-3.02-2.96-7.62-3.23-11.59-3.29c-8.59-0.12-17.26,1.22-25.74,2.4
					c-22.35,3.11-44.52,7.56-66.6,12.14c-10.18,2.11-5.87,17.7,4.3,15.59c19.55-4.06,39.15-7.95,58.89-11
					c8.66-1.34,16.81-2.62,26.32-2.92c1.92-0.06,3.84,0.16,5.74,0.11c1.4-0.03-2.57-0.66-0.47-0.03c1.35,0.41,0.46,0.31-0.95-0.49
					c-2.09-1.18-2.48-3.56-3.49-6.49c0.6,1.74,0.73,4.33,1.05,6.16c3.01,17.22,4.16,36.26,4.82,54.64c2.69-2.69,5.39-5.39,8.08-8.08
					c-35.46-0.32-70.32,5.83-104.44,15.15c3.41,2.6,6.82,5.2,10.23,7.79c-0.64-20.77,1.1-41.55,0.46-62.32
					C71.41,337.19,55.24,337.15,55.56,347.57L55.56,347.57z"/>
			</g>
		</g>
		<g>
			<path class="st3" d="M85.71,406.34c27.24,423.33,55.64,854.18,82.88,1277.51c26.8-4.36,49.92-5.91,79.1,1.96
				c-33.09-422.61-60.12-863.36-93.21-1285.97"/>
			<g>
				<path d="M77.62,406.34c10.7,166.32,21.51,332.64,32.33,498.95c10.81,165.97,21.63,331.95,32.4,497.92
					c6.07,93.54,12.12,187.09,18.14,280.63c0.36,5.66,4.85,8.66,10.23,7.79c25.28-4.06,49.88-4.58,74.8,1.96
					c4.74,1.24,10.65-2.43,10.23-7.79c-6.49-82.89-12.7-165.8-18.74-248.73c-6.13-84.16-12.09-168.33-17.98-252.5
					c-5.89-84.05-11.71-168.11-17.59-252.16c-5.86-83.82-11.76-167.65-17.82-251.46c-6.04-83.47-12.23-166.93-18.69-250.38
					c-0.79-10.25-1.59-20.5-2.39-30.74c-0.81-10.3-16.98-10.39-16.17,0c6.49,82.89,12.7,165.8,18.74,248.73
					c6.13,84.16,12.09,168.33,17.98,252.5c5.89,84.05,11.71,168.11,17.59,252.16c5.86,83.82,11.76,167.65,17.82,251.46
					c6.04,83.47,12.23,166.93,18.69,250.38c0.79,10.25,1.59,20.5,2.39,30.74c3.41-2.6,6.82-5.2,10.23-7.79
					c-27.85-7.31-55.19-6.49-83.39-1.96c3.41,2.6,6.82,5.2,10.23,7.79c-10.7-166.32-21.51-332.64-32.33-498.95
					c-10.81-165.97-21.63-331.95-32.4-497.92c-6.07-93.54-12.12-187.09-18.14-280.63C93.12,396.01,76.95,395.93,77.62,406.34
					L77.62,406.34z"/>
			</g>
		</g>
		<g>
			<g>
				<path d="M86.69,315.87c2.66,8.47,1.42,17.7,4.09,26.2c3.1,9.89,18.71,5.67,15.59-4.3c-2.66-8.47-1.42-17.7-4.09-26.2
					C99.18,301.68,83.57,305.9,86.69,315.87L86.69,315.87z"/>
			</g>
		</g>
		<g>
			<g>
				<path d="M114.84,312.63c0.34,2.08,0.19,4.45-0.05,6.83c-0.35,3.37,0.11,6.64,0.66,9.97c0.71,4.31,6.05,6.72,9.94,5.65
					c4.57-1.26,6.36-5.62,5.65-9.94c-0.34-2.08-0.19-4.45,0.05-6.83c0.35-3.37-0.11-6.64-0.66-9.97c-0.71-4.31-6.05-6.72-9.94-5.65
					C115.91,303.94,114.12,308.3,114.84,312.63L114.84,312.63z"/>
			</g>
		</g>
		<g>
			<g>
				<path d="M163.65,408.81c69.91,42.43,151.13,61.19,232.36,63.16c84.13,2.04,167.56-13.32,248.03-36.89
					c89-26.06,174.95-61.14,262.66-91.05c82.29-28.06,166.6-51.37,253.65-57.7c82.28-5.98,167.3,2.55,243.13,36.77
					c9.41,4.25,18.63,8.88,27.69,13.82c9.14,4.99,17.3-8.97,8.16-13.96c-73.16-39.92-156.53-55.6-239.35-54.52
					c-85.72,1.11-169.97,19.38-251.49,44.88c-88.48,27.68-174.33,62.99-262.44,91.77c-81.48,26.62-165.13,47.22-251.11,50.42
					c-80.93,3.02-163.79-8.98-236.6-45.9c-9.03-4.58-17.86-9.53-26.52-14.78C162.89,389.44,154.76,403.41,163.65,408.81
					L163.65,408.81z"/>
			</g>
		</g>
		<g>
			<g>
				<path d="M218.52,1356.18c70.16,34.36,150.25,43.32,227.51,39.12c82.9-4.51,162.48-25.78,241.14-51.16
					c85.42-27.56,170.12-58.38,258.84-73.76c90.09-15.62,182.17-16.79,273.23-10.84c92.36,6.03,184.03,19.42,275.41,33.72
					c11.23,1.76,22.45,3.53,33.68,5.3c10.18,1.61,14.56-13.97,4.3-15.59c-90.73-14.34-181.59-28.54-273.14-36.53
					c-90.58-7.9-182.09-9.64-272.47,1.64c-89.38,11.15-174.56,37.74-259.78,65.92c-79.91,26.42-160.37,52.96-244.43,62.11
					c-76.96,8.38-157.66,5.2-230.61-22.74c-8.68-3.32-17.16-7.07-25.51-11.16C217.37,1337.67,209.17,1351.6,218.52,1356.18
					L218.52,1356.18z"/>
			</g>
		</g>
		<g>
			<g>
				<path d="M1434.92,334.63c11.33,124.12,22.67,248.24,34,372.36c11.27,123.46,22.54,246.91,33.82,370.37
					c6.36,69.69,12.73,139.39,19.09,209.08c0.4,4.35,3.43,8.08,8.08,8.08c4.06,0,8.48-3.71,8.08-8.08
					c-11.33-124.12-22.67-248.24-34-372.36c-11.27-123.46-22.54-246.91-33.82-370.37c-6.36-69.69-12.73-139.39-19.09-209.08
					c-0.4-4.35-3.43-8.08-8.08-8.08C1438.94,326.55,1434.52,330.26,1434.92,334.63L1434.92,334.63z"/>
			</g>
		</g>
		<g>
			<g>
				<path d="M183.54,424.82c12.41,123.37,24.81,246.75,37.22,370.12c12.34,122.71,24.68,245.42,37.02,368.13
					c6.94,68.98,13.87,137.97,20.81,206.95c0.44,4.34,3.4,8.08,8.08,8.08c4.03,0,8.52-3.71,8.08-8.08
					c-12.41-123.37-24.81-246.75-37.22-370.12c-12.34-122.71-24.68-245.42-37.02-368.13c-6.94-68.98-13.87-137.97-20.81-206.95
					c-0.44-4.34-3.4-8.08-8.08-8.08C187.59,416.73,183.1,420.45,183.54,424.82L183.54,424.82z"/>
			</g>
		</g>
		<g>
			<g>
				<path d="M232.93,745.36c88.44,10.73,177.84,12.97,266.7,6.53c88.74-6.43,176.92-21.29,262.76-44.69
					c85.19-23.23,166.29-57.67,249.56-86.58c41.46-14.39,83.61-27.12,126.76-35.42c34.81-6.7,70.28-9.08,105.69-7.54
					c70.51,3.06,143.21,21.31,201.59,62.23c6.97,4.89,13.65,10.13,20.08,15.71c7.83,6.78,19.31-4.61,11.43-11.43
					c-54.81-47.47-126.18-71.28-197.31-79.77c-35.74-4.26-72.03-4.53-107.81-0.56c-41.19,4.57-81.66,14.75-121.21,26.9
					c-85.24,26.2-166.85,62.82-252.1,89c-85.45,26.25-173.54,43.97-262.49,52.82c-89.73,8.93-180.34,9.05-270.09,0.32
					c-11.2-1.09-22.38-2.33-33.55-3.68c-4.37-0.53-8.04,4.1-8.08,8.08C224.8,742.08,228.62,744.84,232.93,745.36L232.93,745.36z"/>
			</g>
		</g>
		<g>
			<g>
				<path d="M264,1087.06c86.27,16.22,174.51,21.5,262.08,15.18c87.07-6.29,172.58-24.16,255.24-52.1
					c82.24-27.8,161.62-63.25,243.57-91.85c74.74-26.08,151.78-45.89,231.26-48.35c74.2-2.29,150.15,10.24,215.44,47.01
					c8.06,4.54,15.91,9.43,23.57,14.61c8.64,5.84,16.74-8.16,8.16-13.96c-62.58-42.26-137.4-61.29-212.28-63.8
					c-77.89-2.61-155.2,12.11-229.29,35.25c-82.89,25.9-162.41,61.08-243.84,91.02c-82.24,30.24-166.59,52.89-253.84,62.52
					c-87.59,9.67-176.6,7.95-263.69-5.6c-10.73-1.67-21.42-3.53-32.09-5.53C258.13,1069.56,253.77,1085.14,264,1087.06L264,1087.06z
					"/>
			</g>
		</g>
		
			<ellipse transform="matrix(0.3332 -0.9429 0.9429 0.3332 -172.859 265.3029)" class="st4" cx="101.14" cy="254.86" rx="58.7" ry="60.91"/>
		<g>
			<g>
				<path d="M109.12,333.68c2.07-0.39,4.15-0.77,6.22-1.16c1.89-0.35,3.89-2.11,4.83-3.71c1.01-1.73,1.44-4.29,0.81-6.23
					c-0.63-1.96-1.84-3.84-3.71-4.83c-2.01-1.06-3.99-1.23-6.23-0.81c-2.07,0.39-4.15,0.77-6.22,1.16
					c-1.89,0.35-3.89,2.11-4.83,3.71c-1.01,1.73-1.44,4.29-0.81,6.23c0.63,1.96,1.84,3.84,3.71,4.83
					C104.9,333.93,106.88,334.1,109.12,333.68L109.12,333.68z"/>
			</g>
		</g>
		<g class="st5">
			<path d="M202.39,427.6c0,0-116.87,905.7,1321.64,794.54c4.54,21.81-0.02,44.53,6.44,68.63
				c-132.47-22.04-224.41-46.33-341.43-41.9s-242.81-10.18-350.94,32.15c-206.02,80.66-384.27,93.86-449.97,102
				c-20.47,2.54-85.1-0.11-101.47-13.01c-17-13.4,53.85,148.93-95.05-945.21"/>
			<g>
				<path d="M194.31,427.6c-1.04,8.07-1.45,16.24-1.8,24.36c-0.94,21.85-0.51,43.77,0.92,65.59c2.15,32.76,6.6,65.42,13.23,97.57
					c8.14,39.52,19.68,78.34,34.59,115.83c17.47,43.9,39.33,85.99,65.61,125.26c30.32,45.31,66.19,86.86,106.38,123.68
					c46.89,42.95,99.43,79.6,155.17,110.1c67.91,37.16,140.54,65.47,214.85,86.93c91.79,26.51,186.39,42.68,281.38,52.14
					c119.56,11.91,240.07,13,360.02,7.36c33.15-1.56,66.27-3.65,99.36-6.2c-2.6-1.98-5.2-3.96-7.79-5.93
					c4.39,22.71,0.72,45.99,6.44,68.63c3.31-3.31,6.63-6.63,9.94-9.94c-70.62-11.78-140.77-26.88-211.85-35.81
					c-33.1-4.16-66.41-6.71-99.78-6.89c-36.09-0.2-72.19,1.56-108.3,1.49c-72.96-0.15-146.97-1.57-218.66,14.1
					c-37.08,8.11-71.63,23.13-107.33,35.59c-34.74,12.13-69.94,22.92-105.49,32.41c-96.52,25.78-195.48,41.43-294.84,51.26
					c-22.28,2.2-46.01,0.6-68.02-3.16c-9.19-1.57-18.97-3.31-26.93-8.43c2.33,1.5-0.62-0.57-1.51-1.07
					c-4.42-2.49-10.17-1.55-12.87,3c-5.1,8.6,5.89,19.28,13.72,11.56c5.3-5.22,5.15-15.95,5.64-22.64
					c1.55-21.33,0.7-42.9-0.17-64.23c-1.88-46.3-5.57-92.53-9.64-138.67c-7.16-81.03-15.93-161.91-25.26-242.71
					c-14.37-124.55-30.23-248.93-46.74-373.22c-5-37.64-10.07-75.27-15.18-112.89c-0.59-4.36-6.13-6.65-9.94-5.65
					c-4.68,1.23-6.23,5.64-5.65,9.94c18.2,133.77,35.75,267.62,51.89,401.65c10.76,89.35,20.96,178.77,29.65,268.34
					c5.21,53.68,9.99,107.44,13.12,161.29c1.59,27.38,3,54.89,2.37,82.33c-0.15,6.47-0.48,12.93-1.11,19.37
					c-0.05,0.49-0.13,0.98-0.17,1.47c-0.19,2.04,0.47-2.52,0.06-0.42c-0.17,0.84-0.26,1.7-0.42,2.54c-0.23,1.17-0.68,2.34-0.87,3.51
					c-0.34,2.09,1.35-2.09-0.05-0.05c1.31-1.91,3.24-3.49,6.2-3.47c2.92,0.02,5.42,1.83,6.46,3.55c0.61,1.01,0.96,3,0.95,3.21
					c-0.11,4.2-4.08,7.8-9.03,6.67c1.54,0.35-2.88-0.78-0.44-0.08c-2.35-0.67-1.76-1.16,0.85,0.64c1.49,1.03,3.05,1.87,4.68,2.65
					c4.58,2.18,9.45,3.74,14.36,4.98c12.05,3.04,24.55,4.51,36.91,5.56c36.06,3.04,71.22-1.97,106.96-6.27
					c51.56-6.2,102.9-14.14,153.76-24.7c68.95-14.31,136.97-33.18,203.25-57c34.61-12.44,68.05-26.03,104.3-33.17
					c35.02-6.9,70.71-9.66,106.34-10.86c36.15-1.22,72.32-0.76,108.48-0.75c35.13,0.01,70.27-1.95,105.39-1.44
					c65.2,0.95,129.5,11.39,193.52,22.98c35.68,6.46,71.33,13.11,107.1,19.07c5.99,1,11.56-3.53,9.94-9.94
					c-5.69-22.51-2.05-45.92-6.44-68.63c-0.63-3.23-4.49-6.19-7.79-5.93c-125.84,9.68-252.39,12.83-378.43,5.27
					c-99.78-5.99-199.34-18.74-296.66-41.87c-78-18.54-154.69-43.72-227.12-78.28c-59.03-28.17-115.67-62.66-166.16-103.9
					c-42.47-34.69-82.29-75.56-114.44-118.43c-28.98-38.64-53.64-80.46-73.49-124.49c-8.29-18.4-16.03-38-23.02-58.62
					c-6.43-18.95-12.02-38.19-16.78-57.62c-4.32-17.64-7.95-35.44-10.89-53.36c-0.68-4.12-1.32-8.25-1.92-12.38
					c-0.28-1.93-0.55-3.86-0.82-5.8c-0.37-2.67,0.04,0.32-0.17-1.24c-0.15-1.12-0.29-2.24-0.44-3.35
					c-0.97-7.6-1.82-15.21-2.54-22.84c-2.3-24.36-3.36-48.86-2.86-73.33c0.23-11.63,1.4-23.14,1.99-34.73c0.03-0.5,0.11-1,0.17-1.49
					C211.8,417.31,195.62,417.41,194.31,427.6L194.31,427.6z"/>
			</g>
		</g>
		<g class="st5">
			<path d="M81.55,206.15c-11.24,37.14,2.91,81,34.08,105.64c-25.89-0.53-51.08-17.31-61.52-40.97s-5.51-52.86,12.02-71.29"/>
			<g>
				<path d="M73.76,204c-11.92,40.63,3.25,87.06,36.16,113.5c1.91-4.6,3.81-9.2,5.72-13.8c-22.76-0.74-44.35-14.94-53.93-35.64
					c-9.48-20.49-5.13-46.36,10.15-62.83c7.07-7.62-4.34-19.08-11.43-11.43c-20.09,21.66-25.37,54.13-13.28,81.09
					c11.88,26.48,39.75,44.05,68.49,44.97c6.55,0.21,11.28-9.33,5.72-13.8c-28.63-23.01-42.45-62.18-32-97.78
					C92.28,198.29,76.68,194.02,73.76,204L73.76,204z"/>
			</g>
		</g>
		<g class="st5">
			<path d="M79.34,362.46c24.66,13.51,52.95,20.26,80.82,19.3c-23.46,4.06-46.91,8.13-70.37,12.19c-4.51,0.78-9.28,1.54-13.64-0.04
				c-6.82-2.48-10.58-10.2-10.58-17.33c0-7.13,2.94-13.83,5.84-20.29"/>
			<g>
				<path d="M75.26,369.44c26.02,14.06,55.31,21.25,84.9,20.4c-0.72-5.29-1.43-10.58-2.15-15.88c-20.52,3.56-41.05,7.11-61.57,10.67
					c-6.31,1.09-17.05,5.3-21.15-1.72c-4.11-7.02,0.16-15.93,3.11-22.54c1.78-3.98,1.16-8.69-2.9-11.06
					c-3.45-2.02-9.27-1.11-11.06,2.9c-4.62,10.37-9.29,21.77-5.57,33.2c3.59,11.05,13.14,18.18,24.91,17.43
					c12.82-0.81,25.81-4.16,38.46-6.35c13.36-2.31,26.71-4.63,40.07-6.94c9.03-1.56,6.85-16.14-2.15-15.88
					c-26.78,0.77-53.16-5.45-76.74-18.19C74.26,350.53,66.09,364.49,75.26,369.44L75.26,369.44z"/>
			</g>
		</g>
		<g class="st5">
			<path d="M103.77,408.75c24.1,255.69,48.21,511.37,72.31,767.06c15.98,169.51,32.04,339.57,69.72,506.18
				c-20.91,10.96-48.56-2.48-61.32-22.75c-12.76-20.27-14.52-45.03-15.93-68.65c-23.51-394.67-47.02-789.35-70.54-1184.02"/>
			<g>
				<path d="M95.69,408.75c15.83,167.93,31.66,335.85,47.49,503.78c7.88,83.54,15.75,167.08,23.63,250.62
					c7.73,82,15.35,164.03,25.3,245.8c11.24,92.35,25.43,184.4,45.89,275.19c1.24-3.04,2.48-6.09,3.71-9.13
					c-13.24,6.52-29.19,0.82-39.85-8.12c-13.72-11.52-19.52-28.9-22.39-46.05c-3.28-19.56-3.42-39.76-4.59-59.52
					c-1.31-22.07-2.63-44.14-3.94-66.2c-5.23-87.85-10.47-175.69-15.7-263.54c-5.26-88.27-10.52-176.54-15.78-264.81
					c-5.23-87.85-10.47-175.69-15.7-263.54c-5.23-87.85-10.47-175.69-15.7-263.54c-0.66-11.03-1.31-22.07-1.97-33.1
					c-0.62-10.34-16.79-10.41-16.17,0c5.41,90.82,10.82,181.63,16.23,272.45c5.39,90.39,10.77,180.79,16.16,271.18
					s10.77,180.79,16.16,271.18c5.41,90.82,10.82,181.63,16.23,272.45c1.34,22.49,2.68,44.98,4.02,67.48
					c1.24,20.89,1.67,42.05,5,62.75c2.86,17.81,9.04,35.88,21.53,49.31c10.75,11.55,25.96,19.65,41.84,20.55
					c7.99,0.45,15.65-1.44,22.79-4.95c3.29-1.62,4.46-5.81,3.71-9.13c-36.27-160.89-52.55-325.22-68.02-489.14
					c-15.76-166.98-31.48-333.96-47.22-500.94c-8.83-93.67-17.66-187.34-26.49-281C110.88,398.49,94.71,398.38,95.69,408.75
					L95.69,408.75z"/>
			</g>
		</g>
		<g class="st5">
			<g>
				<path class="st6" d="M1331.61,411.82c4.32,83.78,8.65,167.55,12.97,251.33s8.65,167.55,12.97,251.33
					c2.44,47.21,4.87,94.41,7.31,141.62c0.73,14.05,11.87,27.62,26.94,26.94c13.98-0.63,27.72-11.87,26.94-26.94
					c-4.32-83.78-8.65-167.55-12.97-251.33s-8.65-167.55-12.97-251.33c-2.44-47.21-4.87-94.41-7.31-141.62
					c-0.73-14.05-11.87-27.62-26.94-26.94C1344.58,385.5,1330.84,396.74,1331.61,411.82L1331.61,411.82z"/>
			</g>
		</g>
		<g class="st5">
			<g>
				<path class="st6" d="M113.91,262.41c14.09,0,27.6-12.39,26.94-26.94c-0.65-14.6-11.84-26.94-26.94-26.94
					c-14.09,0-27.6,12.39-26.94,26.94C87.62,250.07,98.81,262.41,113.91,262.41L113.91,262.41z"/>
			</g>
		</g>
		<g class="st5">
			<g>
				<path class="st6" d="M107.62,433.32c0.07,6.1,0.13,12.2,0.2,18.3c0.15,14.09,12.28,27.6,26.94,26.94
					c14.47-0.65,27.11-11.84,26.94-26.94c-0.07-6.1-0.13-12.2-0.2-18.3c-0.15-14.09-12.28-27.6-26.94-26.94
					C120.09,407.03,107.45,418.22,107.62,433.32L107.62,433.32z"/>
			</g>
		</g>
	</g>
	<g>
		<g id="Ebene_2_Kopie">
			<g>
				<path class="st0" d="M1336.94,687.57c58,7.34,234.51,30.39,254.35,8c32.23-36.36,115.79-455.26,89.24-484.78
					C1624.9,148.95,903.99,34.72,833.39,95.03c-63.66,54.39-21.27,457.15-1.26,483.08c30.24,39.18,151,31.95,204.57,57.42
					c23.88,11.36,122.13,147.45,149.76,148.57c15.68,0.64,112.85-56.37,148.65-96.57"/>
				<g>
					<path class="st7" d="M1336.56,691.68c56.93,7.2,114.04,14.43,171.41,16.9c13.8,0.6,27.63,0.88,41.43,0.38
						c10.23-0.37,20.72-0.93,30.65-3.48c6.1-1.56,12.01-3.82,15.83-8.93c2.91-3.9,5.02-8.44,6.99-12.86
						c6.47-14.52,11.15-29.84,15.65-45.03c6.45-21.78,12.11-43.78,17.45-65.84c12.86-53.21,23.86-106.87,33.36-160.75
						c8.36-47.43,16.11-95.27,19.49-143.34c1.05-14.89,1.98-30.17,0.17-45.04c-0.51-4.24-1.26-8.79-3.27-12.64
						c-1.76-3.37-4.84-5.91-7.88-8.16c-8.77-6.49-19.21-11-29.31-15.11c-14.95-6.08-30.36-11.09-45.83-15.73
						c-43.2-12.97-87.3-23.07-131.44-32.35c-54.08-11.36-108.51-21.14-163.1-29.8c-56.67-9-113.53-16.79-170.56-23.08
						c-50.94-5.62-102.08-10.15-153.32-12.1c-37.16-1.41-75.18-2.27-112.04,3.13c-11.23,1.65-22.95,3.86-33.2,8.77
						c-10.72,5.14-17.35,14.47-22.23,24.85c-7.84,16.61-11.51,35.17-14.32,53.16c-3.75,23.99-5.43,48.28-6.31,72.53
						c-2.03,56.04,0.29,112.3,4.65,168.22c3.56,45.69,8.11,91.63,16.68,136.74c2.18,11.47,4.12,23.92,9.07,34.66
						c3.19,6.91,9.96,12.2,16.37,16.14c11.86,7.31,25.48,11.57,38.99,14.88c33.5,8.23,68.05,11.2,101.97,17.23
						c15.03,2.67,30.18,5.82,44.42,11.36c4.85,1.89,6.68,2.51,10.36,5.3c2.91,2.2,5.38,4.52,7.95,7.01
						c18.05,17.53,34.01,37.19,50.42,56.15c18.07,20.9,36.06,42.11,56.07,61.3c6.81,6.53,13.95,13.31,22.2,18.1
						c6.28,3.64,11.63,4.69,18.61,2.52c10.4-3.24,20.21-8.49,29.73-13.62c14.22-7.65,28.04-16.01,41.57-24.78
						c26.09-16.91,52.61-35.35,73.32-58.47c3.58-3.99-3.35-8.78-6.89-4.82c-10,11.17-21.76,20.87-33.67,30.05
						c-13.48,10.39-27.53,20.09-41.91,29.27c-12.98,8.29-26.27,16.18-39.94,23.35c-8.41,4.4-18.36,9.94-27.14,11.85
						c-0.55,0.12-1.11,0.21-1.68,0.31c-1.49,0.26,0.26,0.08-0.77,0.04c-0.49-0.02-0.98-0.12-1.47-0.21
						c1.13,0.22-1.06-0.38-1.47-0.53c-2.94-1.13-5.38-2.76-8.32-4.87c-8.31-5.98-15.66-13.2-22.79-20.44
						c-19.76-20.02-37.93-41.52-56.28-62.75c-15.21-17.6-30.1-36.08-47.45-51.77c-6.7-6.06-13.78-9.53-22.44-12.51
						c-14.52-5-29.75-8.01-44.89-10.61c-33.41-5.75-67.59-8.54-100.44-17.15c-12.73-3.34-25.9-7.53-36.67-15.2
						c-2.06-1.46-4.05-3.05-5.81-4.84c-0.97-0.98-1.84-2.03-2.74-3.07c-0.21-0.24-1.26-1.87-0.33-0.35
						c-0.8-1.31-1.42-2.69-1.99-4.11c-1.62-4.08-2.82-8.71-4.11-14.08c-1.73-7.22-3.16-14.5-4.47-21.8
						c-3.66-20.26-6.43-40.67-8.86-61.09c-6.34-53.33-10.27-106.98-11.65-160.62c-1.3-50.51-1.22-101.94,7.06-151.91
						c2.82-16.96,6.53-34.41,14.39-49.89c2.37-4.66,6.29-10.48,10.01-13.71c0.65-0.57,1.32-1.1,2.03-1.61
						c0.32-0.23,0.64-0.44,0.97-0.66c1.13-0.77-0.46,0.22,0.76-0.47c1.82-1.02,3.69-1.94,5.61-2.74c5.24-2.18,8.37-3.02,13.98-4.3
						c6.42-1.48,12.94-2.52,19.48-3.35c16.24-2.06,32.66-2.83,49.04-3.11c45.27-0.77,90.64,1.99,135.76,5.72
						c54.66,4.51,109.16,10.86,163.5,18.3c55.87,7.66,111.59,16.53,167.06,26.71c49.28,9.04,98.43,19.03,147.07,31.01
						c35.09,8.64,70.54,17.83,104.04,31.39c5.67,2.3,11.27,4.76,16.72,7.54c1.02,0.52,0.98,0.5,2.56,1.37
						c1.08,0.6,2.16,1.22,3.21,1.85c1.81,1.09,3.58,2.24,5.27,3.49c0.71,0.53,1.4,1.08,2.1,1.64c0.35,0.28,0.68,0.58,1.02,0.89
						c-1.07-0.96,0.05,0.05,0.29,0.3c0.47,0.5,0.93,0.99,1.37,1.51c0.77,0.91-0.36-0.74,0.08,0.12c0.18,0.34,0.38,0.66,0.53,1.02
						c0.19,0.43,1.03,2.76,0.61,1.41c0.31,0.97,0.56,1.96,0.79,2.95c0.55,2.44,0.88,4.93,1.14,7.41
						c1.42,13.86,0.44,29.45-0.68,44.15c-1.65,21.89-4.32,43.7-7.35,65.44c-7.38,52.98-17.01,105.67-27.89,158.05
						c-9.85,47.41-20.55,94.81-34.32,141.29c-4.47,15.07-9.11,30.27-15.5,44.69c-2.16,4.87-3.16,7.37-6.1,11.31
						c-1.26,1.68-1.99,2.32-3.68,3.15c-3.23,1.6-5.82,2.32-9.27,3.06c-10.27,2.22-20.95,2.75-31.44,2.97
						c-13.9,0.29-27.81-0.13-41.69-0.82c-31.58-1.57-63.09-4.6-94.52-8.06c-23.72-2.61-47.39-5.57-71.06-8.58
						C1331.91,682.78,1331.15,691,1336.56,691.68L1336.56,691.68z"/>
				</g>
			</g>
		</g>
		<g id="Ebene_7_1_">
			<g class="st8">
				<g>
					<path class="st6" d="M1457.03,211.59c17.63,4.58,35.66,7.57,53.54,11.01c4.94,0.95,9.87,1.92,14.79,2.93
						c2.4,0.5,4.8,0.99,7.19,1.51c1.2,0.26,2.4,0.52,3.59,0.78c3.94,0.86-3.33-0.79,0.68,0.15c9.34,2.18,18.64,4.54,27.77,7.48
						c4.24,1.36,8.45,2.84,12.58,4.51c1.86,0.75,3.7,1.53,5.53,2.37c0.88,0.4,1.74,0.82,2.61,1.23c3.56,1.7-2.49-1.48-0.33-0.2
						c3.04,1.8,6.06,3.56,8.83,5.76c0.58,0.47,1.15,1.09,1.78,1.5c-0.89-0.57-3.09-3.07-1.31-1.12c1.03,1.14,1.96,2.67,3.09,3.69
						c-0.62-0.56-2.27-3.96-1.11-1.62c0.29,0.58,0.58,1.17,0.88,1.74c1.75,3.33-0.5-3.39-0.28-1.03c0.11,1.2,0.51,5.59,0.33,1.51
						c-0.18-4.04-0.05-0.77-0.04,0.2c0,0.93-0.02,1.85-0.05,2.76c-0.07,2.11-0.21,4.21-0.38,6.32
						c-2.28,28.84-8.11,57.54-13.44,85.93c-7.55,40.22-15.8,80.32-24.12,120.4c-7.86,37.9-15.89,75.77-23.57,113.72
						c-0.8,3.93-1.58,7.86-2.37,11.8c-1.69,8.47,6.81,17.54,15.31,17.96c9.92,0.48,16.55-5.74,18.36-14.82
						c7.45-37.41,15.36-74.74,23.14-112.09c8.57-41.16,17.09-82.34,24.98-123.64c5.82-30.49,12.01-61.19,15.02-92.11
						c0.77-7.91,1.98-17.13-0.25-24.89c-5.23-18.14-22.31-28.48-39.1-35.49c-18.85-7.88-39.23-12.28-59.2-16.46
						c-18.51-3.87-37.19-6.95-55.67-10.92c-0.92-0.19-1.83-0.4-2.75-0.6c-2.78-0.61,4.37,1.03,1.05,0.23
						c-1.74-0.42-3.48-0.84-5.21-1.29c-8.52-2.21-18.75,0.49-21.77,9.52C1444.56,198.08,1447.88,209.2,1457.03,211.59
						L1457.03,211.59z"/>
				</g>
			</g>
			<g class="st8">
				<g>
					<path class="st6" d="M1513.99,654.51c0.23,3.63,0.46,7.27,0.69,10.89c8.81-5.4,17.63-10.81,26.45-16.21
						c-4.03-3.04-8.05-6.07-12.08-9.11c0.34,8.69,0.68,17.37,1.01,26.06c-2.08,1.4-4.01,2.36-6.61,2.48
						c-1.02,0.19-2.02,0.1-2.99-0.29c-1.7-0.46-1.95-0.5-0.75-0.1c-1.81-0.85-3.17-1.81-4.54-3.25c0.77,0.92,0.66,0.72-0.31-0.6
						c-0.91-1.11-1.49-2.38-1.76-3.8c3.15-5.93,6.31-11.86,9.46-17.79c0.25-0.11,4.19-0.85,2.04-0.63c2.13-0.22,3.93-0.09,5.99,0.52
						c-2.09-0.62,1.56,0.91,1.81,1.05c-1.84-1.05,1.24,1.12,1.47,1.39c1.22,1.44,1.89,3.27,2.29,5.06c-0.65-2.92-0.8,5.98-0.74,5.72
						c0.55-2.03-0.75,1.41-0.98,1.73c-0.61,0.65-1.23,1.31-1.84,1.95c-2.48,1.36-3.13,1.76-1.96,1.19c1.85-0.71-3.82,0.97-1.9,0.58
						c0.89-0.12,0.52-0.11-1.08,0.04c-0.99,0.2-1.97,0.13-2.93-0.2c-3.82-0.79-6.92-3.36-8.09-7.02c-1.11-3.45-0.18,1.68-0.37-2.07
						c-0.18-3.71-0.64,1.48,0.17-2.16c0.07-0.99,0.41-1.87,1.02-2.66c0.81-1.31,0.97-1.61,0.49-0.93c-0.87,1.18,3.3-2.8,1.02-1.36
						c8.71,1.93,17.42,3.85,26.13,5.78c-0.79-1.45-1.58-2.9-2.37-4.35c-4.15-7.61-14.11-12.25-22.48-8.02
						c-7.78,3.93-12.57,13.71-8.13,21.86c0.79,1.45,1.58,2.9,2.37,4.35c2.55,4.67,6.27,7.77,11.57,8.97
						c5.62,1.27,9.88-0.23,14.56-3.19c9.41-5.95,11.71-20.02,6.71-29.36c-5.94-11.11-20.36-15.75-31.75-9.75
						c-10.99,5.78-16.96,19.4-10.46,30.66c6.29,10.88,19.9,16.08,31.78,10.73c6.79-3.05,10.75-10.62,9.46-17.79
						c-1.39-7.75-7.11-14.69-14.76-17.43c-8.3-2.98-16.1-1.49-23.18,3.28c-9.33,6.27-6.94,20.06,1.01,26.06
						c4.03,3.04,8.05,6.07,12.08,9.11c5.37,4.05,13.32,3.84,18.81,0.46c6.16-3.8,8.07-9.83,7.64-16.66
						c-0.23-3.63-0.46-7.27-0.69-10.89c-0.25-3.84-3.75-8.37-6.82-10.51c-3.42-2.39-8.65-3.76-12.81-2.86
						c-4.19,0.91-8.35,3-10.76,6.6C1514.22,645.97,1513.69,649.83,1513.99,654.51L1513.99,654.51z"/>
				</g>
			</g>
		</g>
		<g id="Ebene_2_1_">
			<g>
				<g>
					<path d="M1306.05,725.29c57,7.24,114.19,14.48,171.63,17.01c13.81,0.61,27.67,0.9,41.49,0.43c10.99-0.38,22.26-0.81,32.95-3.52
						c8.28-2.11,15.94-5.2,21.15-12.1c3.32-4.39,5.74-9.55,7.97-14.53c6.51-14.5,11.2-29.82,15.71-45.01
						c6.49-21.82,12.16-43.88,17.51-66c13-53.75,24.17-107.94,33.74-162.39c8.33-47.37,16.08-95.17,19.32-143.2
						c1.03-15.32,1.87-31.09-0.12-46.38c-0.63-4.87-1.73-10.01-4.05-14.4c-2.48-4.67-6.6-8.25-10.88-11.34
						c-9.52-6.88-20.78-11.73-31.68-16.11c-15.1-6.07-30.63-11.07-46.23-15.72c-43.88-13.08-88.68-23.27-133.51-32.66
						c-54.05-11.33-108.43-21.08-162.97-29.74c-56.59-8.98-113.38-16.79-170.33-23.09c-50.77-5.62-101.73-10.17-152.78-12.17
						c-38.03-1.5-76.98-2.4-114.72,2.99c-12,1.72-24.53,4.13-35.51,9.29c-12.67,5.95-20.58,16.5-26.47,28.67
						c-8.27,17.09-12.06,36.4-15,54.96c-3.8,23.95-5.48,48.22-6.35,72.44c-2.04,56.53,0.4,113.29,4.87,169.69
						c3.62,45.83,8.25,91.93,16.98,137.17c2.32,11.98,4.49,24.98,9.73,36.17c3.86,8.24,11.7,14.75,19.44,19.44
						c12.78,7.74,27.13,12.41,41.63,15.91c34.35,8.3,69.64,11.45,104.39,17.7c3.82,0.69,7.63,1.41,11.43,2.2
						c1.01,0.21,2.02,0.42,3.03,0.64c0.54,0.12,3.93,0.89,0.66,0.14c1.94,0.45,3.88,0.91,5.81,1.39c7.15,1.81,14.24,3.9,21.08,6.62
						c1.3,0.52,2.6,1.06,3.88,1.63c0.73,0.32,1.48,0.78,2.23,1.02c1.53,0.48-3.21-2-1.9-1c1.09,0.84,2.36,1.49,3.46,2.32
						c1.29,0.97,2.51,2.03,3.74,3.07c2.76,2.36-1.88-1.82,0.27,0.22c0.94,0.9,1.9,1.79,2.83,2.7
						c17.97,17.48,33.95,36.97,50.34,55.82c18.15,20.86,36.21,42.05,56.34,61.15c7.31,6.94,14.92,14.22,23.78,19.3
						c4.18,2.4,8.52,4.54,13.4,5.11c4.9,0.57,9.22-0.66,13.79-2.13c10.52-3.39,20.45-8.63,30.12-13.82
						c14.73-7.91,29.05-16.58,43.07-25.63c26.6-17.16,53.21-35.9,74.36-59.37c4.51-5,2.22-13.61-2.96-17.24
						c-6.04-4.22-13.16-2.21-17.68,2.8c-0.61,0.67-4.32,4.51-1.77,1.95c-1.13,1.14-2.27,2.29-3.42,3.42
						c-2.69,2.61-5.45,5.16-8.26,7.64c-6.05,5.34-12.34,10.42-18.75,15.34c-13.49,10.34-27.55,19.98-41.92,29.1
						c-1.54,0.98-3.08,1.94-4.63,2.92c-0.29,0.18-3.37,2.08-0.95,0.59c-0.91,0.56-1.83,1.12-2.74,1.67
						c-3.56,2.16-7.15,4.29-10.75,6.38c-6.28,3.64-12.62,7.17-19.07,10.52c-5.23,2.72-10.52,5.34-15.94,7.7
						c-2.03,0.88-4.06,1.72-6.14,2.49c-0.87,0.32-2.09,0.51-2.87,1c2.85-1.78,2.25-0.61,0.25-0.14c-0.68,0.16-1.38,0.23-2.05,0.39
						c-2.29,0.58,2.29,0.14,1.77-0.03c-0.36-0.12-1.38-0.28-1.75-0.23c3.29-0.4,3.1,0.94,1.07,0.09c-0.69-0.29-1.39-0.61-2.1-0.89
						c-2.48-0.98,2.97,1.76,0.66,0.34c-1.66-1.02-3.32-2.03-4.91-3.16c-3.79-2.68-7.31-5.68-10.78-8.73
						c-0.64-0.56-2.6-2.07,0.34,0.32c-0.54-0.44-1.05-0.96-1.56-1.43c-0.98-0.91-1.95-1.83-2.91-2.75c-2.23-2.13-4.43-4.3-6.6-6.48
						c-19.76-19.89-37.94-41.25-56.29-62.36c-15.81-18.18-31.31-37.09-49.35-53.27c-6.97-6.26-14.65-10.1-23.61-13.24
						c-15.49-5.43-31.84-8.62-48-11.41c-16.96-2.92-34.02-5.19-51.03-7.76c-8.41-1.27-16.82-2.61-25.19-4.14
						c-3.86-0.71-7.7-1.45-11.53-2.26c-1.02-0.22-2.04-0.44-3.06-0.66c-3.3-0.71,1.82,0.48-0.21-0.04
						c-2.12-0.54-4.27-1.02-6.39-1.56c-7-1.8-13.93-3.89-20.65-6.54c-2.92-1.15-5.72-2.5-8.58-3.8c-2.63-1.2,2.46,1.48,0.02,0.01
						c-0.67-0.41-1.39-0.77-2.06-1.18c-1.33-0.78-2.63-1.61-3.89-2.48c-1.22-0.84-2.4-1.72-3.55-2.65c-0.37-0.3-0.72-0.63-1.1-0.92
						c-2.04-1.58,1.98,2.15,0.29,0.25c-1.23-1.39-2.56-3.4-3.99-4.54c2.76,2.21,1.83,3.16,1.15,1.7c-0.13-0.28-0.29-0.55-0.43-0.82
						c-0.4-0.77-0.73-1.57-1.06-2.37c-0.36-0.88-0.67-1.78-1-2.68c-1-2.73,0.64,2.12,0.36,1.11c-0.17-0.61-0.38-1.21-0.56-1.81
						c-0.83-2.76-1.55-5.56-2.24-8.36c-1.77-7.26-3.23-14.61-4.58-21.96c-3.69-20.15-6.48-40.44-8.94-60.76
						c-3.07-25.41-5.52-50.89-7.46-76.4c-1.07-14.06-1.98-28.14-2.74-42.22c-0.17-3.34-0.35-6.68-0.5-10.02
						c-0.04-0.87-0.26-5.79-0.1-2.16c-0.09-2.12-0.18-4.26-0.27-6.38c-0.28-6.99-0.52-13.97-0.71-20.96
						c-1.36-50.37-1.33-101.7,7-151.52c0.84-5.04,1.79-10.06,2.89-15.05c0.24-1.09,1.3-4.69,0.07-0.39
						c0.33-1.16,0.57-2.35,0.85-3.52c0.57-2.25,1.17-4.5,1.82-6.74c2.17-7.5,4.88-14.81,8.39-21.82c0.2-0.39,0.46-0.78,0.63-1.18
						c0.07-0.17-1.79,3.11-0.91,1.67c0.44-0.73,0.85-1.48,1.3-2.21c0.85-1.38,1.76-2.74,2.74-4.04c0.83-1.12,1.76-2.16,2.65-3.24
						c1.58-1.92-2.72,2.52-0.44,0.48c0.52-0.46,1.02-0.95,1.56-1.41c0.63-0.53,1.29-1.01,1.96-1.5c0.38-0.28,0.81-0.5,1.19-0.79
						c0.36-0.28-3.55,1.99-1.25,0.79c1.86-0.97,3.72-1.91,5.67-2.71c1.03-0.42,2.07-0.82,3.12-1.18c0.61-0.21,1.21-0.41,1.81-0.62
						c2.98-1.02-1.75,0.5-0.92,0.27c2.66-0.73,5.3-1.47,7.98-2.07c6.46-1.45,13.01-2.48,19.59-3.29c7.68-0.95,15.39-1.59,23.12-2.06
						c2.02-0.13,4.04-0.23,6.07-0.33c0.94-0.05,1.88-0.09,2.82-0.13c0.57-0.02,1.14-0.05,1.71-0.07c3.24-0.14-2.73,0.08-0.51,0.02
						c4.59-0.14,9.18-0.27,13.78-0.35c45.27-0.68,90.62,2.11,135.73,5.87c54.29,4.53,108.42,10.83,162.38,18.23
						c55.97,7.67,111.77,16.55,167.33,26.72c25.87,4.74,51.7,9.77,77.43,15.17c12.27,2.57,24.55,5.15,36.76,8.01
						c-3.27-0.77-0.27-0.06,1.21,0.28c1.5,0.35,2.99,0.68,4.49,1.03c2.95,0.68,5.91,1.37,8.86,2.06c5.5,1.3,11,2.62,16.49,3.96
						c35.16,8.64,70.68,17.81,104.29,31.29c5.67,2.27,11.29,4.7,16.73,7.45c0.51,0.25,1.02,0.54,1.53,0.79
						c-4.6-2.17-1.92-1.02-0.84-0.43c1.1,0.61,2.2,1.21,3.27,1.86c1.84,1.09,3.65,2.24,5.39,3.49c0.73,0.53,1.45,1.07,2.15,1.64
						c0.32,0.26,0.64,0.56,0.97,0.81c1.74,1.37-2.75-2.79-1.17-1.06c0.47,0.51,0.97,1.06,1.48,1.54c1.82,1.74-1.67-3.62-0.51-0.74
						c0.27,0.7,0.56,1.47,0.9,2.13c-1.74-3.44-0.62-2.14-0.11,0.05c0.54,2.28,0.9,4.61,1.15,6.94c0.15,1.31,0.26,2.63,0.36,3.95
						c0.06,0.77,0.1,1.55,0.15,2.32c0.22,3.31-0.1-3.15-0.02-0.46c0.1,3.47,0.15,6.94,0.12,10.41c-0.1,8.61-0.57,17.22-1.2,25.82
						c-1.6,21.62-4.21,43.18-7.19,64.66c-7.34,53.05-16.97,105.8-27.88,158.24c-2.73,13.13-5.56,26.24-8.49,39.32
						c-1.42,6.33-2.87,12.65-4.33,18.97c-0.17,0.71-0.84,3.59,0,0.02c-0.16,0.67-0.31,1.34-0.48,2.01
						c-0.35,1.47-0.69,2.94-1.04,4.41c-0.75,3.16-1.51,6.32-2.27,9.47c-5.24,21.59-10.8,43.13-17.13,64.43
						c-4.47,15.07-9.14,30.26-15.56,44.67c-1.05,2.35-2.32,4.59-3.38,6.93c2.13-4.73,0.67-1.22-0.12,0.05
						c-0.51,0.8-1.05,1.56-1.6,2.34c-0.22,0.31-0.5,0.57-0.71,0.89c-1.05,1.61,2.9-2.25,1.06-1.12c-0.48,0.29-1.12,0.77-1.52,1.16
						c-0.73,0.69-2.41-0.36,1.85-1.14c-0.41,0.08-0.9,0.52-1.29,0.69c-1.41,0.6-2.82,1.13-4.26,1.69c-1.91,0.72,3.38-0.86,1.34-0.42
						c-0.48,0.1-0.95,0.26-1.43,0.38c-1.01,0.25-2.03,0.49-3.05,0.7c-4.62,0.96-9.33,1.52-14.03,1.94
						c-2.63,0.23-5.25,0.41-7.89,0.55c-1.02,0.05-6.28,0.45-1.97,0.11c-1.58,0.13-3.21,0.1-4.8,0.13
						c-14.08,0.29-28.17-0.17-42.23-0.89c-31.45-1.61-62.84-4.63-94.15-8.1c-23.75-2.62-47.45-5.6-71.16-8.61
						c-6.8-0.86-13.16,4.64-13.77,11.12C1293.93,718.67,1299.22,724.42,1306.05,725.29L1306.05,725.29z"/>
				</g>
			</g>
		</g>
		<g id="Ebene_10_1_">
			<g>
				<g>
					<path class="st6" d="M1055.56,215.23c46.28,54.31,91.5,109.45,135.94,165.19c43.71,54.83,86.67,110.21,129.23,165.89
						c23.66,30.94,47.18,61.98,70.65,93.05c9.22,12.21,30.31,13.87,41.66,3.88c12.44-10.95,13.61-27.54,3.77-40.57
						c-41.86-55.41-83.89-110.69-126.49-165.57c-43.28-55.77-87.13-111.12-131.87-165.78c-25.51-31.17-51.32-62.11-77.45-92.77
						c-9.92-11.64-29.83-14.29-41.66-3.88C1047.47,185.11,1044.97,202.81,1055.56,215.23L1055.56,215.23z"/>
				</g>
			</g>
			<g>
				<g>
					<path class="st6" d="M1046.47,600.39c61.17-49.41,121.68-99.58,181.32-150.73c44.16-37.87,87.91-76.18,132.37-113.71
						c29.46-24.86,59.22-49.39,89.22-73.62c11.9-9.61,14.52-28.99,3.77-40.57c-10.78-11.6-28.96-14.13-41.66-3.88
						c-49.91,40.32-98.99,81.58-147.53,123.44c-47.11,40.63-94.09,81.38-141.81,121.33c-37.56,31.45-75.46,62.51-113.58,93.3
						c-11.89,9.61-14.52,28.99-3.77,40.57C1015.59,608.13,1033.77,610.65,1046.47,600.39L1046.47,600.39z"/>
				</g>
			</g>
		</g>
		<g id="Ebene_9_1_">
			<g class="st9">
				<path d="M826.71,102.5c-21.42,230.28,216.06,526.79,382.35,682.32c-22.72,3.71-47.75-29.29-93.03-71.64
					c-64-59.85-44.13-64.59-81.1-83.11c-30.72-15.39-69.96-15.64-104.18-19.9c-31.54-3.92-70.58-13.04-89.4-30.47
					c-24.81-22.99-48.31-287.58-27.85-446.92"/>
				<g>
					<path d="M818.3,101.72c-4.37,47.81,2.07,96.18,14.54,142.53c13.83,51.39,34.68,100.86,59.28,148.24
						c26.1,50.26,56.5,98.4,89.39,144.73c32.45,45.69,67.47,89.64,104.47,131.91c33.18,37.9,67.95,74.52,104.43,109.43
						c4.03,3.85,8.08,7.69,12.16,11.5c1.66-4.45,3.32-8.9,4.99-13.35c-0.61,0.09-1.22,0.15-1.83,0.22c2.27-0.24,0.35,0.01-0.19-0.03
						c-1.05-0.08-2.07-0.16-3.11-0.31c-2.38-0.34,0.74,0.39-1.59-0.4c-1.32-0.44-2.62-0.9-3.9-1.46c-0.67-0.29-1.33-0.61-1.98-0.93
						c1.46,0.72-0.07-0.03-0.42-0.24c-1.28-0.75-2.54-1.5-3.78-2.3c-2.74-1.79-5.37-3.76-7.93-5.81
						c-13.59-10.88-25.55-23.69-37.88-35.86c-24.13-23.83-50.01-46.1-69.66-73.78c-3.92-5.52-7.54-11.34-12.25-16.28
						c-5.88-6.18-12.94-10.75-20.5-14.74c-37.31-19.7-80.32-17.94-121.06-24.19c-18.58-2.85-37.25-7.07-54.5-14.61
						c-7.08-3.1-13.74-6.93-19.58-11.95c-0.86-0.74,0.71,1.04-0.31-0.36c-0.23-0.32-0.51-0.64-0.77-0.94
						c-0.84-0.96-0.37-1.54,0.25,0.45c-0.16-0.51-0.65-1.06-0.92-1.54c-1.33-2.36-2.37-4.87-3.33-7.4c-0.31-0.82-0.61-1.65-0.9-2.48
						c-0.21-0.62-1.01-3.19-0.23-0.63c-0.55-1.79-1.11-3.58-1.62-5.37c-2.54-8.97-4.5-18.1-6.24-27.24
						c-10.73-56.42-14.85-114.26-17.41-171.47c-3-67.12-3.08-134.78,3.54-201.67c0.72-7.29,1.54-14.56,2.47-21.83
						c1.34-10.51-15.49-12.07-16.83-1.57c-8.49,66.57-9.02,134.24-6.85,201.26c1.98,61.6,5.94,123.63,16.06,184.57
						c3.03,18.28,6.28,37.14,13.16,54.51c2.39,6.03,5.49,11.1,10.5,15.39c13.43,11.52,31.64,17.81,48.6,22.33
						c19.81,5.28,40.03,8.15,60.41,10.14c20.93,2.05,42.29,3.45,62.63,9.12c5,1.39,9.93,3.03,14.72,4.99
						c2.16,0.88,4.29,1.83,6.38,2.84c0.89,0.43,1.75,0.87,2.63,1.31c1.53,0.78-0.9-0.5,0.97,0.51c3.88,2.11,7.69,4.35,11.21,7.01
						c0.64,0.49,1.27,0.99,1.89,1.5c0.84,0.7,1.94,1.83,0.48,0.37c1.23,1.23,2.47,2.42,3.62,3.73c2.16,2.46,4.07,5.11,5.95,7.77
						c5.73,8.13,11.48,16.18,17.92,23.79c12.34,14.6,26.26,27.7,40.12,40.9c14.89,14.19,29.09,29.08,44.19,43.08
						c9.94,9.22,20.76,19.38,33.92,24.03c5.47,1.93,11.22,2.64,16.97,1.79c5.8-0.86,9.66-8.98,4.99-13.35
						c-35.82-33.53-69.99-68.74-102.65-105.19c-36.78-41.05-71.69-83.72-104.24-128.03c-33.17-45.13-63.89-92.04-90.71-141.02
						c-25.43-46.42-47.71-94.89-63.15-145.35c-13.87-45.35-22.62-92.82-20.78-139.88c0.22-5.6,0.59-11.19,1.1-16.78
						C836.09,92.75,819.26,91.16,818.3,101.72L818.3,101.72z"/>
				</g>
			</g>
		</g>
	</g>
</g>
<g id="Ebene_3">
</g>
</svg>
