<?xml version="1.0" encoding="utf-8"?>
<!-- Generator: Adobe Adobe Illustrator 24.2.0, SVG Export Plug-In . SVG Version: 6.00 Build 0)  -->
<svg version="1.1" xmlns="http://www.w3.org/2000/svg" xmlns:xlink="http://www.w3.org/1999/xlink" x="0px" y="0px"
	 viewBox="0 0 1700.79 1700.79" style="enable-background:new 0 0 1700.79 1700.79;" xml:space="preserve">
<style type="text/css">
	.st0{fill:#F4F6EA;}
	.st1{fill:#F4F5E7;}
	.st2{fill:#59B0CA;}
	.st3{fill:#59B0C9;}
	.st4{fill:#808E9C;}
	.st5{fill:#7F8E9C;stroke:#000000;stroke-width:16.166;stroke-miterlimit:10;}
	.st6{opacity:0.2196;}
	.st7{fill:#FFFFFF;}
	.st8{opacity:0.149;}
	.st9{fill:#C9316B;}
	.st10{fill:#F4F5E8;}
	.st11{fill:#6379B8;}
	.st12{fill:#F3C057;stroke:#000000;stroke-width:3.8899;stroke-miterlimit:10;}
	.st13{fill:#C8316B;}
	.st14{fill:#6478B7;}
	.st15{fill:#6378B7;}
</style>
<g id="Ebene_10">
</g>
<g id="Ebene_4">
</g>
<g id="Ebene_9">
	<g>
		<path class="st0" d="M204.49,438.62c35.62,307.91,65.97,616.42,91.02,925.37c105.67,29.72,218.95,16.03,325.26-11.28
			c106.32-27.3,208.99-67.87,315.94-92.57c171.48-39.61,352.5-37.27,522.9,6.77c-9.25-290.59-28.69-580.85-58.27-870.08
			c-2.64-25.8-6.14-53.44-23.41-72.78c-13.68-15.32-33.9-22.91-53.65-28.52c-122.8-34.89-254.87-13.75-376.83,23.97
			s-238.72,91.63-362.21,123.99s-258.58,41.76-375.78-8.84"/>
		<g>
			<path class="st1" d="M196.99,438.62c13.88,120.02,26.97,240.13,39.25,360.32c12.28,120.19,23.76,240.47,34.43,360.81
				c6.04,68.06,11.81,136.14,17.34,204.24c0.27,3.34,2.14,6.3,5.51,7.23c150.92,41.98,306.95-1.4,451.47-47.23
				c74.66-23.68,149.2-48.27,226.14-63.58c75.21-14.97,151.97-21.81,228.64-20.74c86.98,1.22,173.62,12.79,257.87,34.47
				c4.58,1.18,9.65-2.27,9.49-7.23c-4.8-150.28-12.29-300.46-22.52-450.47c-5.09-74.59-10.84-149.13-17.27-223.61
				c-3.21-37.24-6.6-74.47-10.15-111.68c-3.38-35.39-5.7-71.19-11.02-106.35c-4.58-30.3-16.72-57.52-44.58-72.85
				c-13.79-7.58-29.1-12.14-44.25-16.1c-16.37-4.28-32.98-7.6-49.72-10.03c-68.78-10-138.63-5.38-206.74,7.39
				c-140.28,26.29-270.12,87.78-405.14,131.64c-126.6,41.13-265.83,67.69-396.65,29.66c-15.58-4.53-30.92-9.94-45.83-16.33
				c-8.78-3.76-16.43,9.16-7.57,12.95c123.04,52.71,261.92,41.8,388.41,7.78c136.15-36.62,263.89-98.74,400.12-135.09
				c66.77-17.81,135.62-29.51,204.9-28.46c34.66,0.52,69.23,4.3,103,12.19c28.98,6.77,62.95,14.95,78.34,43.16
				c7.02,12.86,9.91,27.74,11.81,42.12c2.25,17,3.63,34.14,5.33,51.2c3.69,37.2,7.21,74.41,10.57,111.64
				c6.64,73.63,12.62,147.32,17.94,221.06c10.71,148.3,18.76,296.8,24.15,445.39c0.66,18.26,1.28,36.53,1.87,54.79
				c3.16-2.41,6.33-4.82,9.49-7.23c-148.96-38.32-305.42-45.23-457.21-20.47c-77.32,12.61-152.21,34.96-226.74,58.66
				c-73.65,23.41-147.34,47.65-223.39,62.13c-84.67,16.12-173.03,20.06-256.77-3.23c1.84,2.41,3.67,4.82,5.51,7.23
				c-9.77-120.42-20.33-240.78-31.71-361.06c-11.37-120.28-23.55-240.49-36.53-360.6c-7.34-67.93-14.94-135.83-22.79-203.7
				C210.89,429.14,195.88,429.03,196.99,438.62L196.99,438.62z"/>
		</g>
	</g>
</g>
<g id="Ebene_6">
	<g>
		<path class="st2" d="M204.1,436.54c2.44,23.53,4.88,47.07,7.33,70.6c0.72,6.95,1.62,14.35,6.08,19.73
			c5.08,6.12,13.47,8.12,21.22,9.92c50.22,11.67,98.89,30.01,144.32,54.38c1.33-41.18,2.67-82.36,4-123.54
			c-60.33,2.09-121.06-8.31-177.25-30.34"/>
		<g>
			<path class="st3" d="M196.6,436.54c2.04,19.61,4.07,39.22,6.11,58.84c1.69,16.25,1.66,35.46,18.59,43.65
				c7.41,3.58,15.57,4.97,23.5,6.93c8.94,2.21,17.82,4.63,26.65,7.26c17.35,5.17,34.46,11.15,51.26,17.9
				c19.33,7.77,38.19,16.7,56.56,26.52c5.09,2.72,11.1-0.68,11.29-6.48c1.33-41.18,2.67-82.36,4-123.54c0.13-3.96-3.54-7.63-7.5-7.5
				c-59.85,1.94-119.46-8.33-175.26-30.08c-3.8-1.48-8.19,1.63-9.23,5.24c-1.21,4.23,1.48,7.76,5.24,9.23
				c56.92,22.18,118.2,32.59,179.25,30.61c-2.5-2.5-5-5-7.5-7.5c-1.33,41.18-2.67,82.36-4,123.54c3.76-2.16,7.52-4.32,11.29-6.48
				c-30.61-16.36-62.63-30.12-95.6-40.98c-16.33-5.37-32.89-10.02-49.62-13.95c-6.16-1.45-14.46-2.57-18.6-7.96
				c-4.53-5.89-4.18-15.51-4.91-22.51c-2.17-20.92-4.34-41.84-6.51-62.76c-0.42-4.03-3.15-7.5-7.5-7.5
				C200.37,429.04,196.18,432.49,196.6,436.54L196.6,436.54z"/>
		</g>
	</g>
	<g>
		<path class="st2" d="M594.11,555.13c1.35,35.42,2.7,70.84,4.06,106.25c0.29,7.71,0.75,15.92,5.28,22.17
			c4.4,6.09,11.8,9.11,18.8,11.84c58.03,22.62,116.06,45.25,174.09,67.87c-5.66-21.37-0.86-43.88,1.23-65.89s0.55-46.52-14.65-62.57
			c-8.58-9.06-20.42-14.18-31.92-19.01c-52.34-21.99-105.05-43.05-157.77-64.11"/>
		<g>
			<path class="st3" d="M586.61,555.13c0.9,23.61,1.8,47.22,2.7,70.84c0.44,11.48,0.87,22.96,1.31,34.43
				c0.37,9.61,0.99,19.7,6.92,27.7c5.62,7.58,14.18,11.18,22.69,14.53c11.1,4.37,22.22,8.66,33.34,13
				c21.92,8.54,43.83,17.09,65.75,25.63c25,9.75,50,19.49,75.01,29.24c5.59,2.18,10.5-4.16,9.23-9.23
				c-10.18-40.6,16.34-86.77-9.51-124.46c-12.21-17.81-32.95-24.87-52.03-32.83c-23.15-9.66-46.37-19.15-69.62-28.56
				c-25.7-10.39-51.45-20.68-77.19-30.97c-3.79-1.51-8.2,1.66-9.23,5.24c-1.22,4.26,1.49,7.73,5.24,9.23
				c44.13,17.63,88.27,35.27,132.18,53.44c10.45,4.33,20.99,8.52,31.31,13.14c8.52,3.82,17.01,8.19,23.4,15.16
				c12.1,13.19,13.4,32.91,12.46,49.89c-1.39,25.08-7.73,49.74-1.47,74.7c3.08-3.08,6.15-6.15,9.23-9.23
				c-41.67-16.25-83.34-32.49-125.01-48.74c-10.19-3.97-20.37-7.94-30.56-11.91c-9.16-3.57-19.28-6.42-27.75-11.5
				c-7.81-4.68-8.89-12.5-9.28-20.95c-0.51-11.01-0.84-22.02-1.26-33.03c-0.95-24.92-1.9-49.85-2.85-74.77
				C601.25,545.51,586.24,545.46,586.61,555.13L586.61,555.13z"/>
		</g>
	</g>
	<g>
		<path class="st2" d="M997.9,736.65c6.39,21.44,3.5,44.35,3.14,66.71s2.66,46.58,17.96,62.89c11.5,12.27,28.16,18.11,44.37,22.57
			c53.71,14.79,82.93,31.42,154.13,59.24c0.06-32.69,0.13-65.38,0.19-98.07c0.02-8.34-0.07-17.08-4.07-24.39
			c-5.09-9.29-15.36-14.28-24.99-18.69c-60.56-27.75-121.12-55.5-181.68-83.25"/>
		<g>
			<path class="st3" d="M990.67,738.64c7.51,26.31,1.27,53.68,3.29,80.5c1.82,24.24,9.98,47.46,30.77,61.66
				c18.49,12.64,41.89,16.22,62.81,23.19c17.71,5.89,35.02,12.86,52.22,20.08c25.19,10.57,50.31,21.27,75.76,31.23
				c4.64,1.82,9.49-2.78,9.49-7.23c0.05-24.19,0.09-48.38,0.14-72.57c0.02-11.79,0.76-23.83-0.22-35.58
				c-0.84-10.1-3.98-19.5-11.49-26.61c-7.51-7.11-17.2-11.12-26.46-15.37c-10.9-5-21.8-9.99-32.7-14.99
				c-22.41-10.27-44.81-20.54-67.22-30.8c-25.43-11.66-50.87-23.31-76.3-34.97c-3.71-1.7-8.04-1.03-10.26,2.69
				c-1.92,3.21-0.98,8.58,2.69,10.26c43,19.7,85.99,39.41,128.99,59.11c10.9,5,21.8,9.99,32.7,14.99
				c9.65,4.42,19.6,8.47,28.94,13.54c8.04,4.36,14.16,9.78,15.76,19.18c1.8,10.55,0.62,22.01,0.6,32.67
				c-0.05,26.15-0.1,52.3-0.15,78.46c3.16-2.41,6.33-4.82,9.49-7.23c-39.6-15.5-78.21-33.74-118.29-47.98
				c-8.68-3.08-17.45-5.93-26.28-8.54c-10.64-3.14-21.61-5.62-31.71-10.33c-10.03-4.67-18.89-11.13-24.66-20.73
				c-5.6-9.31-8.27-20.22-9.33-30.96c-2.88-29.27,4.13-58.85-4.09-87.65C1002.49,725.39,988.01,729.33,990.67,738.64L990.67,738.64z
				"/>
		</g>
	</g>
	<g>
		<path class="st2" d="M797.57,464.63c5.75,28.45-0.86,57.72-3.46,86.64c-2.59,28.91-0.01,60.96,19.95,82.03
			c10.7,11.29,25.2,18.09,39.47,24.29c41.98,18.25,85.12,33.66,128.23,49.05c-0.44-45.07-0.88-90.13-1.32-135.2
			c-0.1-10.12-0.31-20.71-5.11-29.62c-5.54-10.3-16.23-16.62-26.55-22.11c-46.61-24.78-96.57-43.25-148.1-54.74"/>
		<g>
			<path class="st3" d="M790.34,466.62c8.93,46.38-13.44,93.23,0.23,139.45c6.24,21.1,19.75,37.35,38.83,48.17
				c21.52,12.2,45.66,20.7,68.66,29.63c27.05,10.49,54.38,20.25,81.7,30.01c4.62,1.65,9.54-2.64,9.49-7.23
				c-0.25-25.85-0.5-51.69-0.75-77.54c-0.13-13.25-0.26-26.51-0.39-39.76c-0.11-11.67,0.43-23.57-1.23-35.15
				c-1.53-10.71-6.16-20.29-14.22-27.61c-7.82-7.1-17.31-11.95-26.62-16.75c-21.3-10.98-43.29-20.67-65.75-29.05
				c-25.31-9.44-51.26-17.11-77.62-23.03c-9.4-2.11-13.42,12.35-3.99,14.46c44.3,9.96,87.44,24.87,128.26,44.79
				c9.71,4.74,19.66,9.45,28.72,15.36c7.83,5.11,13.74,11.55,15.87,20.85c2.44,10.65,1.44,22.3,1.55,33.15
				c0.12,12.26,0.24,24.52,0.36,36.78c0.27,27.83,0.54,55.67,0.81,83.5c3.16-2.41,6.33-4.82,9.49-7.23
				c-45.99-16.42-92.99-32.04-137.12-53.12c-18.99-9.07-34.27-21.45-40.94-42.04c-6.12-18.9-5.58-39.12-3.53-58.65
				c2.91-27.71,7.98-55.21,2.63-82.97C802.98,453.16,788.52,457.17,790.34,466.62L790.34,466.62z"/>
		</g>
	</g>
	<g>
		<path class="st2" d="M446.74,470.04c41.24,22.44,84.52,41.15,129.12,55.82c1.51-17.62,3.02-35.23,4.54-52.85
			c0.53-6.17,0.55-13.51-4.46-17.14c-3.74-2.7-8.82-2.17-13.38-1.52c-31.3,4.46-62.6,8.92-93.9,13.37"/>
		<g>
			<path class="st3" d="M442.96,476.51c41.85,22.71,85.7,41.65,130.91,56.58c4.98,1.65,9.1-2.66,9.49-7.23
				c1.46-16.96,2.94-33.93,4.37-50.89c0.53-6.34,0.89-13.15-2.15-18.98c-3.47-6.65-10.28-9.73-17.58-9.65
				c-7.97,0.09-16.2,2.02-24.07,3.15c-8.48,1.21-16.95,2.41-25.43,3.62c-17.28,2.46-34.56,4.92-51.84,7.38
				c-4,0.57-6.23,5.68-5.24,9.23c1.21,4.31,5.18,5.81,9.23,5.24c29.67-4.23,59.34-8.45,89.01-12.68c3.57-0.51,11-2.93,12.89,1.29
				c2.11,4.73,0.1,12.37-0.32,17.27c-1.29,15.01-2.58,30.01-3.86,45.02c3.16-2.41,6.33-4.82,9.49-7.23
				c-44.01-14.54-86.59-32.96-127.33-55.07C442.04,458.96,434.46,471.9,442.96,476.51L442.96,476.51z"/>
		</g>
	</g>
	<g>
		<path class="st2" d="M778.71,397.01c-0.44,17.21-0.89,34.42-1.33,51.62c-20.86-12.86-41.73-25.72-62.59-38.58
			c20.96-4.71,41.93-9.43,62.89-14.14"/>
		<g>
			<path class="st3" d="M771.21,397.01c-0.44,17.21-0.89,34.42-1.33,51.62c3.76-2.16,7.52-4.32,11.29-6.48
				c-20.86-12.86-41.73-25.72-62.59-38.58c-0.6,4.57-1.19,9.14-1.79,13.71c20.96-4.71,41.93-9.43,62.89-14.14
				c9.41-2.12,5.43-16.58-3.99-14.46c-20.96,4.71-41.93,9.43-62.89,14.14c-6.51,1.46-7.05,10.47-1.79,13.71
				c20.86,12.86,41.73,25.72,62.59,38.58c4.97,3.07,11.14-0.94,11.29-6.48c0.44-17.21,0.89-34.42,1.33-51.62
				C786.46,387.35,771.46,387.36,771.21,397.01L771.21,397.01z"/>
		</g>
	</g>
	<g>
		<path class="st2" d="M993.8,392.6c-2.27,37.26-4.55,74.51-6.82,111.77c-0.41,6.77-0.77,13.86,2.1,20.01
			c6.42,13.75,10.96,12.37,201.79,88.87c-2.43-54.21-4.87-108.41-7.3-162.62c-67.21-16.54-133.34-44.4-197.02-64.91"/>
		<g>
			<path class="st3" d="M986.3,392.6c-1.52,24.95-3.05,49.9-4.57,74.85c-0.75,12.31-1.53,24.61-2.25,36.92
				c-0.49,8.47-0.32,16.67,3.44,24.45c2.21,4.58,5.59,8.05,9.74,10.93c7.03,4.89,15.32,8.14,23.15,11.48
				c18.18,7.76,36.59,14.97,54.97,22.26c39.39,15.62,78.78,31.23,118.11,46.99c4.47,1.79,9.69-2.76,9.49-7.23
				c-2.43-54.21-4.87-108.41-7.3-162.62c-0.15-3.24-2.22-6.42-5.51-7.23c-67.25-16.66-131.22-43.66-197.02-64.91
				c-9.21-2.97-13.15,11.5-3.99,14.46c65.81,21.26,129.77,48.26,197.02,64.91c-1.84-2.41-3.67-4.82-5.51-7.23
				c2.43,54.21,4.87,108.41,7.3,162.62c3.16-2.41,6.33-4.82,9.49-7.23c-54.96-22.03-110.35-43.11-165.02-65.86
				c-0.82-0.34-1.63-0.68-2.45-1.02c-1.69-0.71,0.93,0.4-1.04-0.44c-1.49-0.64-2.99-1.27-4.47-1.92c-2.4-1.05-4.79-2.11-7.17-3.21
				c-3.42-1.59-6.84-3.24-10.07-5.2c-1.1-0.67-2.12-1.47-3.22-2.14c-0.68-0.42,1.63,1.57,0.18,0.1c-0.36-0.36-0.77-0.68-1.14-1.05
				c-0.31-0.31-0.59-0.7-0.92-0.99c-1.29-1.14,0.73,1.36,0.3,0.41c-0.32-0.72-0.91-1.39-1.29-2.09c-1.53-2.78-2.16-5.53-2.31-8.86
				c-0.58-12.99,1.25-26.36,2.05-39.33c1.66-27.28,3.33-54.55,4.99-81.83C1001.89,382.96,986.89,383,986.3,392.6L986.3,392.6z"/>
		</g>
	</g>
	<g>
		<path class="st2" d="M925.62,341.89c10.19,10.53,33.1,17.54,47.41,14.4c14.31-3.14,17.51-19.37,11.56-32.76
			c-20.82-2.53-42.57,3.9-58.68,17.33"/>
		<g>
			<path class="st3" d="M920.31,347.2c12.94,12.83,35.02,19.75,52.97,16.65c19.96-3.45,25.6-25.55,18.54-42.3
				c-1.44-3.41-3.55-5.1-7.23-5.51c-23.15-2.55-46.05,4.9-63.99,19.52c-3.16,2.58-2.63,7.92,0,10.61c3.07,3.14,7.48,2.55,10.61,0
				c14.96-12.19,34.34-17.23,53.38-15.13c-2.41-1.84-4.82-3.67-7.23-5.51c4.28,10.15,3.73,23.17-9.74,23.96
				c-12.54,0.73-27.67-3.95-36.7-12.9C924.06,329.79,913.45,340.39,920.31,347.2L920.31,347.2z"/>
		</g>
	</g>
	<g>
		<path class="st2" d="M1183.46,292.53c0.1,40.19,0.2,80.39,0.3,120.58c0.02,6.97,0.12,14.27,3.47,20.38
			c4.55,8.29,13.95,12.46,22.7,16.06c63.22,26.03,126.44,52.07,189.67,78.1c-2.05-34.07-4.11-68.14-6.16-102.21
			c-0.46-7.71-0.99-15.64-4.35-22.59c-5.83-12.04-18.8-18.62-30.89-24.35c-57.44-27.24-114.89-54.49-172.33-81.73"/>
		<g>
			<path class="st3" d="M1175.96,292.53c0.06,25.7,0.13,51.39,0.19,77.09c0.03,13.18,0.07,26.36,0.1,39.53
				c0.03,10.85-0.15,22.27,6.68,31.36c6.23,8.29,15.7,12.4,25,16.26c11.96,4.96,23.94,9.86,35.91,14.79
				c24.25,9.98,48.49,19.97,72.74,29.95c27.01,11.12,54.01,22.24,81.02,33.36c4.41,1.82,9.76-2.78,9.49-7.23
				c-1.48-24.57-2.96-49.14-4.44-73.71c-0.72-11.86-1.04-23.82-2.24-35.65c-1.12-10.96-4.16-20.94-11.86-29.1
				c-6.6-7.01-15.31-11.74-23.87-15.89c-10.43-5.05-20.95-9.94-31.42-14.91c-22.74-10.78-45.48-21.57-68.21-32.35
				c-25.13-11.92-50.26-23.84-75.39-35.76c-8.68-4.11-16.3,8.81-7.57,12.95c43.08,20.43,86.17,40.86,129.25,61.3
				c10.77,5.11,21.54,10.22,32.31,15.32c8.78,4.16,17.88,8,26.07,13.25c7.94,5.09,13.26,11.57,15.08,20.99
				c2.13,10.99,1.83,22.78,2.5,33.94c1.6,26.54,3.2,53.07,4.8,79.61c3.16-2.41,6.33-4.82,9.49-7.23
				c-45.73-18.83-91.46-37.66-137.19-56.49c-11.36-4.68-22.71-9.35-34.07-14.03c-9.99-4.11-21.14-7.45-30.17-13.5
				c-8.35-5.6-8.85-14-8.9-23.29c-0.07-12.52-0.06-25.04-0.09-37.56c-0.07-27.67-0.14-55.35-0.21-83.02
				C1190.94,282.88,1175.94,282.86,1175.96,292.53L1175.96,292.53z"/>
		</g>
	</g>
	<g>
		<path class="st2" d="M1206.58,645.82c1.7,42.94,3.4,85.87,5.1,128.81c0.39,9.84,0.88,20.08,5.53,28.76
			c7.34,13.71,23.04,20.28,37.56,25.85c60.93,23.35,121.85,46.7,182.78,70.05c0.97-43.41,1.94-86.82,2.91-130.23
			c0.24-10.6,0.22-22.04-6.02-30.61c-5.23-7.18-13.84-10.93-22.04-14.35c-67.28-28.08-134.56-56.17-201.83-84.25"/>
		<g>
			<path class="st3" d="M1199.08,645.82c1.11,28.07,2.22,56.15,3.34,84.22c0.56,14.2,1.12,28.4,1.69,42.61
				c0.49,12.17,0.95,25.03,7.35,35.79c11.62,19.55,36.4,26.14,56.25,33.75c26.11,10.01,52.22,20.01,78.33,30.02
				c29.84,11.44,59.68,22.87,89.52,34.31c4.72,1.81,9.39-2.77,9.49-7.23c0.63-28.28,1.26-56.57,1.9-84.85
				c0.31-13.81,0.62-27.62,0.93-41.44c0.26-11.58,0.68-23.62-4.55-34.31c-5.12-10.45-15.43-16.1-25.69-20.47
				c-13.27-5.65-26.63-11.13-39.94-16.68c-25.69-10.72-51.38-21.45-77.06-32.17c-29.36-12.25-58.71-24.51-88.07-36.76
				c-3.77-1.57-8.21,1.7-9.23,5.24c-1.23,4.31,1.52,7.67,5.24,9.23c49.54,20.68,99.08,41.36,148.62,62.04
				c12.54,5.23,25.08,10.47,37.61,15.7c10.13,4.23,23.17,7.65,31.27,15.43c7.66,7.36,7.08,19.02,6.88,28.81
				c-0.27,13.16-0.59,26.31-0.88,39.46c-0.68,30.26-1.35,60.51-2.03,90.77c3.16-2.41,6.33-4.82,9.49-7.23
				c-50.36-19.3-100.71-38.6-151.07-57.9c-11.94-4.58-23.93-9.03-35.81-13.75c-8.66-3.44-17.65-7.51-24.23-14.29
				c-7.79-8.03-8.71-19.12-9.18-29.75c-0.58-13.13-1.04-26.26-1.56-39.39c-1.2-30.39-2.41-60.77-3.61-91.16
				C1213.7,636.2,1198.7,636.15,1199.08,645.82L1199.08,645.82z"/>
		</g>
	</g>
	<g>
		<path class="st2" d="M1239.86,978.36c5.25,41.9,10.51,83.8,15.76,125.7c1.28,10.17,2.74,20.84,8.82,29.1
			c7.3,9.93,19.72,14.38,31.4,18.31c54.49,18.33,108.98,36.67,163.47,55c0.17-29.43,0.35-58.87,0.52-88.3
			c0.06-9.81-0.06-20.25-5.4-28.49c-5.15-7.95-14.18-12.32-22.77-16.31c-61.85-28.77-123.71-57.54-185.56-86.31"/>
		<g>
			<path class="st3" d="M1232.36,978.36c3.2,25.53,6.4,51.07,9.6,76.6c1.56,12.44,3.12,24.88,4.68,37.32
				c1.43,11.41,1.98,23.57,6.05,34.43c8.14,21.73,29.54,28.1,49.61,34.85c24.11,8.11,48.23,16.23,72.34,24.34
				c27.56,9.27,55.12,18.54,82.68,27.82c4.69,1.58,9.47-2.59,9.49-7.23c0.14-24.2,0.28-48.4,0.43-72.6
				c0.12-20.92,2.65-44.1-16.07-58.15c-7.97-5.98-17.54-9.68-26.52-13.85c-11.11-5.17-22.22-10.33-33.33-15.5
				c-21.92-10.19-43.84-20.39-65.76-30.58c-25.22-11.73-50.44-23.46-75.67-35.19c-8.7-4.05-16.32,8.88-7.57,12.95
				c42.34,19.69,84.67,39.38,127.01,59.07c20.87,9.71,41.95,19.07,62.63,29.17c7.54,3.68,15.44,8.05,18.33,16.45
				c3.21,9.33,2.03,20.07,1.98,29.76c-0.15,26.16-0.31,52.32-0.46,78.49c3.16-2.41,6.33-4.82,9.49-7.23
				c-46.35-15.59-92.7-31.19-139.05-46.78c-10.59-3.56-21.3-6.88-31.77-10.79c-8.48-3.17-17.15-7.49-21.74-15.68
				c-4.95-8.84-5.38-19.96-6.62-29.79c-1.48-11.78-2.95-23.57-4.43-35.35c-3.45-27.5-6.89-54.99-10.34-82.49
				c-0.5-4.02-3.09-7.5-7.5-7.5C1236.19,970.86,1231.85,974.32,1232.36,978.36L1232.36,978.36z"/>
		</g>
	</g>
	<g>
		<path class="st2" d="M1049.06,1069.12c5.32,44.32,10.65,88.63,15.97,132.95c0.52,4.31,1.13,8.85,3.8,12.27
			c3.36,4.3,9.11,5.78,14.43,6.94c51.18,11.15,103.46,17.25,155.84,18.2c7.96,0.14,16.61-0.06,22.82-5.03
			c26.39-21.11-12.97-66.42-8.81-89.48c2.46-13.66-134.45-61.42-208.28-83.02"/>
		<g>
			<path class="st3" d="M1041.56,1069.12c3.97,33.07,7.95,66.14,11.92,99.22c0.95,7.94,1.91,15.87,2.86,23.81
				c0.91,7.57,0.86,16.28,4.37,23.22c6.68,13.22,24.86,14.17,37.66,16.67c31.12,6.06,62.62,10.33,94.23,12.74
				c15.99,1.22,32.06,2.12,48.1,2.22c12.87,0.08,25.11-2.82,32.67-14.05c10.73-15.94,2.84-36.81-3.43-52.83
				c-3.33-8.51-7.15-17.05-9.04-26.03c-0.7-3.32-0.4-6.51-0.3-9.11c0.08-2.17-0.56-4.26-1.69-6.11
				c-5.17-8.46-17.36-13.31-25.84-17.38c-16.65-8-33.89-14.81-51.14-21.38c-44.37-16.91-89.54-32.03-135.12-45.38
				c-9.28-2.72-13.25,11.75-3.99,14.46c38.12,11.17,75.88,23.7,113.21,37.25c17.36,6.3,34.67,12.8,51.67,20.02
				c11.66,4.95,23.71,9.98,34.33,16.97c0.87,0.57,1.72,1.17,2.56,1.79c-1.84-1.36,0.17,0.14,0.52,0.49c0.5,0.51,1,1.01,1.49,1.54
				c-1.52-1.63-0.83-1.15-0.5-0.57c0.46,0.82-0.05,0.66-0.34-0.91c-0.05-0.27,0.16-4.06-0.28-0.02c-0.15,1.36-0.22,2.7-0.17,4.07
				c0.16,4.08,0.98,8.18,2.07,12.1c4.58,16.5,14.86,32.28,16.1,49.6c0.48,6.65-0.79,13.21-6.63,17.39
				c-4.56,3.27-10.82,3.13-16.16,3.1c-7.64-0.05-15.3-0.35-22.93-0.69c-29.69-1.33-59.32-4.29-88.67-8.99
				c-16-2.56-32.66-4.81-48.24-9.35c-7.7-2.24-7.93-7.59-8.81-14.87c-1.03-8.6-2.07-17.2-3.1-25.8
				c-4.13-34.4-8.26-68.79-12.4-103.19c-0.48-4.02-3.1-7.5-7.5-7.5C1045.38,1061.62,1041.07,1065.07,1041.56,1069.12
				L1041.56,1069.12z"/>
		</g>
	</g>
	<g>
		<path class="st2" d="M818.9,794.56c3.25,44.35,6.49,88.71,9.74,133.06c0.73,9.92,1.61,20.31,7.03,28.64
			c7.45,11.46,21.55,16.28,34.6,20.34c49.08,15.27,98.16,30.55,147.24,45.82c-4.16-46.93-8.32-93.85-12.48-140.78
			c-0.57-6.47-1.32-13.38-5.45-18.39c-4.06-4.92-10.54-6.98-16.65-8.81c-52.53-15.7-119.74-35.37-172.27-51.07"/>
		<g>
			<path class="st3" d="M811.4,794.56c1.87,25.49,3.73,50.97,5.6,76.46c0.92,12.58,1.84,25.16,2.76,37.73
				c0.85,11.61,1.07,23.5,3.25,34.96c1.91,10.03,6.63,19.25,14.63,25.74c7.75,6.28,17.01,9.98,26.41,13.05
				c23.32,7.62,46.86,14.61,70.29,21.9c27.06,8.42,54.11,16.84,81.17,25.26c4.35,1.35,9.92-2.42,9.49-7.23
				c-2.4-27.1-4.8-54.2-7.21-81.29c-1.17-13.22-2.34-26.44-3.52-39.66c-1-11.32-0.51-24.35-4.53-35.11
				c-4.08-10.92-13.57-15.72-24.13-18.93c-10.59-3.22-21.21-6.32-31.81-9.47c-22.29-6.61-44.59-13.19-66.88-19.78
				c-24.77-7.32-49.54-14.64-74.28-22.03c-9.27-2.77-13.23,11.7-3.99,14.46c42.12,12.59,84.31,24.97,126.46,37.45
				c10.45,3.09,20.9,6.19,31.35,9.3c4.82,1.43,9.64,2.85,14.46,4.31c4.21,1.27,9.22,2.48,12.36,5.8c2.78,2.93,3.47,7.3,3.95,11.16
				c0.77,6.26,1.14,12.59,1.69,18.87c1.11,12.56,2.23,25.12,3.34,37.67c2.58,29.08,5.16,58.16,7.73,87.24
				c3.16-2.41,6.33-4.82,9.49-7.23c-45.62-14.2-91.24-28.39-136.85-42.59c-16.75-5.21-39-9.34-44.26-28.84
				c-2.77-10.28-2.63-21.47-3.4-32.03c-0.87-11.92-1.74-23.83-2.62-35.75c-1.99-27.14-3.97-54.28-5.96-81.43
				C825.7,784.99,810.7,784.92,811.4,794.56L811.4,794.56z"/>
		</g>
	</g>
	<g>
		<path class="st2" d="M856.66,1143.37c9.11,41.12,12.33,83.55,9.55,125.57c63.44-3.03,114.94-29.76,189.47-19.28
			c9.01-11.55,2.55-29.56-9.18-38.32c-11.82-8.83-71.39-13.77-184.96-76.93"/>
		<g>
			<path class="st3" d="M849.43,1145.37c8.9,40.57,11.94,82.13,9.28,123.58c-0.25,3.9,3.64,7.7,7.5,7.5
				c30.6-1.56,60.33-8.72,90.29-14.54c32.09-6.23,64.61-9.47,97.18-5.01c3.67,0.5,6.28-0.44,8.47-3.45
				c11.43-15.71,2.66-40.32-13.33-49.52c-6.01-3.46-13.22-5.19-19.81-7.14c-28.83-8.55-57.24-17.96-84.9-29.84
				c-26.94-11.58-53.16-24.78-78.79-39.01c-8.45-4.69-16.02,8.26-7.57,12.95c38.87,21.57,79.16,40.77,121.08,55.68
				c19.62,6.98,39.94,11.84,59.49,18.94c0.35,0.13,0.69,0.27,1.04,0.4c1.32,0.49-1.73-0.8-0.52-0.22c0.56,0.27,1.13,0.5,1.68,0.79
				c1.95,1.03,2.19,1.28,3.74,2.77c7.11,6.85,11.22,18,4.95,26.63c2.82-1.15,5.65-2.3,8.47-3.45c-33.84-4.63-67.15-2.13-100.6,4.14
				c-30.2,5.66-60.06,13.3-90.86,14.87c2.5,2.5,5,5,7.5,7.5c2.74-42.75-0.64-85.72-9.81-127.57
				C861.82,1131.96,847.36,1135.94,849.43,1145.37L849.43,1145.37z"/>
		</g>
	</g>
	<g>
		<path class="st2" d="M658.12,1241.14c2.66,29.47,5.33,58.93,7.99,88.4c49.62-13.12,99.25-26.25,148.87-39.37
			c-54.15-16.31-106.69-37.93-156.64-64.44"/>
		<g>
			<path class="st3" d="M650.62,1241.14c2.66,29.47,5.33,58.93,7.99,88.4c0.44,4.82,4.44,8.57,9.49,7.23
				c49.62-13.12,99.25-26.25,148.87-39.37c7.31-1.93,6.96-12.36,0-14.46c-53.56-16.2-105.4-37.51-154.85-63.69
				c-8.53-4.51-16.11,8.43-7.57,12.95c50.56,26.77,103.67,48.63,158.43,65.2c0-4.82,0-9.64,0-14.46
				c-49.62,13.12-99.25,26.25-148.87,39.37c3.16,2.41,6.33,4.82,9.49,7.23c-2.66-29.47-5.33-58.93-7.99-88.4
				C664.75,1231.6,649.75,1231.51,650.62,1241.14L650.62,1241.14z"/>
		</g>
	</g>
	<g>
		<path class="st2" d="M629.09,887.57c3.09,43.93,6.18,87.86,9.28,131.79c0.43,6.13,0.96,12.55,4.31,17.71
			c4.05,6.22,11.36,9.34,18.25,12.12c62,24.97,124,49.94,186.01,74.91c-27.38-80.46-11.15-128.54-22.07-151.32
			c-8.21-17.12-2.51-8.16-200.59-78.73"/>
		<g>
			<path class="st3" d="M621.59,887.57c1.8,25.57,3.6,51.14,5.4,76.71c0.88,12.46,1.75,24.91,2.63,37.37
				c0.82,11.66-0.08,25.47,5.01,36.27c4.49,9.51,13.65,14.12,22.91,17.93c11.78,4.85,23.64,9.52,35.45,14.28
				c23.63,9.52,47.27,19.04,70.9,28.56c27.01,10.88,54.02,21.76,81.03,32.63c5.28,2.12,10.93-4.17,9.23-9.23
				c-7.78-23.08-13.25-46.9-15.51-71.17c-1.56-16.68-1.45-33.37-1.87-50.09c-0.32-12.87-1.09-27.11-8.82-38
				c-4.66-6.56-12.11-9.63-19.34-12.54c-16.48-6.65-33.56-11.93-50.38-17.63c-44.11-14.95-88.11-30.23-131.99-45.86
				c-9.11-3.24-13.03,11.24-3.99,14.46c40.18,14.31,80.45,28.35,120.84,42.08c18.88,6.42,37.93,12.49,56.6,19.5
				c1.21,0.45,2.42,0.91,3.62,1.39c0.88,0.35,4.57,1.92,1.93,0.76c1.79,0.78,3.58,1.56,5.3,2.48c1.23,0.65,2.35,1.51,3.56,2.16
				c1.04,0.56-1.58-1.68-0.05,0c0.36,0.4,0.81,0.84,1.21,1.2c1.42,1.25-0.16-0.25-0.2-0.32c0.22,0.45,0.61,0.84,0.85,1.28
				c0.52,0.94,1.04,1.87,1.52,2.84c0.26,0.53,0.51,1.06,0.77,1.59c0.68,1.41-0.07-0.37,0.34,0.74c0.44,1.18,0.82,2.38,1.15,3.6
				c1.44,5.39,1.57,8.5,1.86,14.56c0.83,17.47,0.32,34.95,1.77,52.4c2.22,26.79,7.76,53.09,16.35,78.55
				c3.08-3.08,6.15-6.15,9.23-9.23c-45.43-18.3-90.85-36.59-136.28-54.89c-11.05-4.45-22.1-8.9-33.15-13.35
				c-5.52-2.23-11.06-4.43-16.57-6.68c-4.02-1.63-8.34-3.39-11.61-6.31c-3.51-3.13-4.59-7.55-5.09-12.07
				c-0.67-5.96-0.89-11.99-1.31-17.97c-0.83-11.8-1.66-23.6-2.49-35.41c-1.94-27.54-3.88-55.07-5.82-82.61
				C635.91,878,620.91,877.92,621.59,887.57L621.59,887.57z"/>
		</g>
	</g>
	<g>
		<path class="st2" d="M407.58,629.49c3.24,45.57,8.36,91.14,11.6,136.71c0.56,7.81,1.22,15.96,5.3,22.64
			c5.57,9.1,16.22,13.52,26.17,17.37c51.48,19.94,102.96,39.88,154.43,59.82c-2.3-63.63-5.57-152.19-19.34-171.15
			c-9.66-13.31-136.9-70.27-178.17-81.05"/>
		<g>
			<path class="st3" d="M400.08,629.49c1.8,25.13,4.14,50.21,6.44,75.29c1.12,12.22,2.22,24.43,3.24,36.66
				c0.97,11.69,1.3,23.56,2.98,35.18c1.53,10.58,6.07,19.57,14.64,26.1c7.96,6.07,17.63,9.31,26.87,12.89
				c23.26,9.01,46.52,18.02,69.77,27.03c26.36,10.21,52.72,20.42,79.08,30.63c4.51,1.75,9.66-2.72,9.49-7.23
				c-1.25-34.61-2.43-69.26-5.5-103.77c-1.3-14.66-2.88-29.38-5.66-43.85c-1.74-9.04-3.74-19.37-9.06-27.11
				c-3.55-5.17-9.46-8.54-14.73-11.71c-8.35-5.03-17.04-9.51-25.74-13.89c-23.45-11.78-47.43-22.55-71.6-32.77
				c-23.04-9.74-46.49-19.95-70.73-26.35c-9.34-2.46-13.33,12-3.99,14.46c20.05,5.29,39.48,13.4,58.61,21.28
				c23.88,9.84,47.51,20.37,70.73,31.67c9.46,4.6,18.87,9.33,28.06,14.45c3.42,1.9,6.81,3.85,10.11,5.95
				c1.26,0.8,2.49,1.63,3.71,2.47c0.21,0.15,1.99,1.47,0.95,0.67c-1-0.77,0.58,0.47,0.81,0.69c0.75,0.7,2.23,2.81,0.7,0.43
				c0.92,1.43,1.76,2.84,2.48,4.39c0.49,1.06-0.41-1.01,0.06,0.12c0.19,0.46,0.36,0.92,0.53,1.38c0.35,0.99,0.7,1.99,1.02,2.99
				c0.77,2.42,1.42,4.88,2.01,7.35c3,12.53,4.55,25.41,5.85,38.21c3.81,37.51,5.01,75.27,6.37,112.93c3.16-2.41,6.33-4.82,9.49-7.23
				c-44.35-17.18-88.69-34.36-133.04-51.53c-9.69-3.75-19.73-7.06-29.13-11.52c-8.28-3.93-14.65-8.87-16.83-18.16
				c-2.5-10.66-2.19-22.31-3.09-33.19c-0.95-11.56-1.98-23.12-3.04-34.67c-2.44-26.74-4.97-53.47-6.89-80.25
				C414.4,619.91,399.39,619.84,400.08,629.49L400.08,629.49z"/>
		</g>
	</g>
	<g>
		<path class="st2" d="M438.55,980.46c3.04,40.27,6.08,80.53,9.12,120.8c0.37,4.96,0.83,10.16,3.6,14.3
			c3.01,4.5,8.22,6.93,13.17,9.14c63.83,28.5,119.75,48.49,183.58,76.99c-26.17-51.93-30.92-124.4-23.75-158.85
			c1.21-5.81-63.36-20.76-185.17-70.06"/>
		<g>
			<path class="st3" d="M431.05,980.46c1.84,24.42,3.69,48.85,5.53,73.27c0.95,12.54,1.89,25.08,2.84,37.63
				c0.78,10.31,0.21,22.38,7.42,30.68c6.95,8,18.87,11.41,28.27,15.5c10.56,4.6,21.16,9.09,31.79,13.52
				c21.13,8.81,42.38,17.33,63.59,25.95c24.72,10.05,49.36,20.28,73.73,31.14c6.81,3.04,13.78-3.2,10.26-10.26
				c-14.04-28.16-21.34-59.89-24.33-91.09c-1.33-13.9-1.83-27.93-1.07-41.87c0.28-5.16,0.7-10.34,1.54-15.45
				c0.62-3.78,2.03-7.62-0.07-11.19c-1.83-3.12-5.33-4.83-8.5-6.24c-5.39-2.4-10.96-4.4-16.53-6.36
				c-18.98-6.69-38.11-12.97-57.1-19.64c-36.1-12.66-71.88-26.18-107.35-40.52c-3.78-1.53-8.2,1.67-9.23,5.24
				c-1.22,4.27,1.5,7.71,5.24,9.23c51.94,21,104.65,39.55,157.6,57.78c5.91,2.03,11.83,4.06,17.64,6.35
				c0.57,0.22,1.13,0.45,1.69,0.68c1.54,0.61-1.22-0.55-0.07-0.04c0.86,0.38,1.72,0.75,2.56,1.18c0.58,0.29,1.14,0.66,1.72,0.92
				c1.76,0.8-0.1-0.2-0.02-0.12c0.44,0.48-1.03-1.57-1.24-2.39c-0.14-0.55,0.32-4.67-0.15-2.63c-0.29,1.24-0.47,2.51-0.68,3.76
				c-0.92,5.65-1.55,11.35-1.93,17.06c-0.9,13.51-0.54,27.11,0.59,40.59c2.96,35.21,10.87,70.56,26.7,102.31
				c3.42-3.42,6.84-6.84,10.26-10.26c-40.77-18.17-82.3-34.53-123.59-51.45c-20.78-8.51-41.67-16.96-62.02-26.46
				c-3.46-1.61-7.48-3.35-9.29-6.94c-2.19-4.33-1.83-10.35-2.18-15.04c-0.9-11.88-1.79-23.76-2.69-35.65
				c-1.99-26.4-3.99-52.81-5.98-79.21C445.32,970.89,430.32,970.82,431.05,980.46L431.05,980.46z"/>
		</g>
	</g>
	<g>
		<path class="st2" d="M472.5,1301.73c4.86,9.92,0.91,21.61-1.72,32.33c-2.63,10.72-2.85,24.21,6.3,30.4
			c4.44,3.01,10.09,3.46,15.45,3.66c38.43,1.43,77.16-5.5,112.71-20.16c-38.14-21.04-78.57-37.95-120.33-50.33"/>
		<g>
			<path class="st3" d="M466.02,1305.52c3.64,8.27-0.55,18.38-2.48,26.55c-1.66,7.06-2.45,14.35-1.17,21.54
				c1.23,6.94,4.9,13.45,10.91,17.33c7.28,4.69,16.38,4.69,24.73,4.83c37.3,0.61,74.69-6.48,109.21-20.58
				c5.56-2.27,7.98-10.31,1.79-13.71c-38.76-21.3-79.74-38.45-122.12-51.09c-9.27-2.76-13.23,11.71-3.99,14.46
				c41.19,12.28,80.87,28.88,118.54,49.58c0.6-4.57,1.19-9.14,1.79-13.71c-31.67,12.93-65.5,19.93-99.73,20.07
				c-6.6,0.03-17.04,1.52-22.65-2.82c-4.25-3.28-4.36-9.64-4.07-14.49c0.43-7.24,3.25-14.18,4.49-21.3
				c1.49-8.56,1.23-16.23-2.3-24.26c-1.64-3.74-7.03-4.53-10.26-2.69C464.87,1297.45,464.4,1301.83,466.02,1305.52L466.02,1305.52z"
				/>
		</g>
	</g>
	<g>
		<path class="st2" d="M263.55,1062.03c-0.96-3.62-1.92-7.23-2.88-10.85c6.71,52.17,13.42,104.35,20.12,156.52
			c1.3,10.09,2.97,20.97,10.17,28.15c5.95,5.94,14.54,8.17,22.7,10.17c44.57,10.93,89.14,21.85,133.71,32.78
			c-2.66-47.81-5.32-95.62-7.97-143.43c-0.4-7.23-124.7-54.86-168.12-79.35"/>
		<g>
			<path class="st3" d="M270.79,1060.04c-0.96-3.62-1.92-7.23-2.88-10.85c-2.1-7.89-15.84-6.6-14.73,1.99
				c6.28,48.87,12.57,97.74,18.85,146.61c2.57,19.97,4.1,41.78,25.12,50.87c10.1,4.37,21.33,6.26,31.97,8.87
				c11.63,2.85,23.25,5.7,34.88,8.55c27.13,6.65,54.26,13.3,81.39,19.95c4.49,1.1,9.77-2.21,9.49-7.23
				c-1.99-35.86-3.99-71.71-5.98-107.57c-0.5-8.96-1-17.93-1.49-26.89c-0.28-5.01,0.6-11.03-3.06-15.03
				c-2.6-2.85-6.41-4.79-9.76-6.59c-14.17-7.6-29.12-13.84-43.83-20.28c-19.72-8.63-39.51-17.1-59.18-25.83
				c-19.05-8.45-38.3-16.85-56.49-27.06c-8.43-4.73-16,8.22-7.57,12.95c33.53,18.82,69.89,32.96,105.09,48.27
				c15.96,6.94,32,13.78,47.62,21.44c4.37,2.14,8.59,4.43,12.74,6.95c1.79,1.09-0.63-0.75,0.18,0.13c1.04,1.13-1.28-1.68-0.98-2.04
				c-1.11,1.37,0.31,8.16,0.41,10.07c0.26,4.65,0.52,9.3,0.78,13.94c2.18,39.18,4.36,78.35,6.53,117.53
				c3.16-2.41,6.33-4.82,9.49-7.23c-45.08-11.05-90.23-21.84-135.24-33.16c-8.2-2.06-16.82-4.41-21.13-12.36
				c-4.52-8.34-4.79-19.05-5.97-28.26c-2.93-22.78-5.86-45.57-8.79-68.35c-3.35-26.09-6.71-52.17-10.06-78.26
				c-4.91,0.66-9.82,1.33-14.73,1.99c0.96,3.62,1.92,7.23,2.88,10.85C258.8,1073.35,273.27,1069.4,270.79,1060.04L270.79,1060.04z"
				/>
		</g>
	</g>
	<g>
		<path class="st2" d="M232.87,741.32c8.06,23.76,3.18,49.64,1.5,74.66s1.33,53.19,20.27,69.64c10.04,8.71,23.16,12.81,35.91,16.55
			c43.96,12.89,91.35,46.78,136.16,56.32c-10.52-64.34-19.77-159.82-39.09-163.93c-39.06-8.32-114.71-33.86-153.28-59.57"/>
		<g>
			<path class="st3" d="M225.64,743.31c7.85,24.13,2.59,49.47,1.14,74.15c-1.16,19.76,0.5,41.06,10.51,58.59
				c11.8,20.66,32.87,27.57,54.27,34.27c21.37,6.69,41.37,17.12,61.4,26.98c23.02,11.33,46.54,22.91,71.75,28.43
				c5.97,1.31,10.15-3.52,9.23-9.23c-4.08-25.04-7.4-50.2-11.3-75.27c-3.45-22.12-6.8-44.69-13.58-66.09
				c-2.15-6.77-4.62-13.9-8.83-19.7c-4.75-6.56-10.23-7.94-17.82-9.74c-23.39-5.57-46.38-13.02-68.91-21.37
				c-25.97-9.62-52.19-20.48-75.38-35.82c-8.07-5.34-15.6,7.64-7.57,12.95c20.05,13.26,42.42,23,64.69,31.85
				c23.05,9.16,46.63,17.14,70.58,23.63c4.89,1.32,9.8,2.58,14.73,3.72c1.82,0.42,3.64,0.81,5.46,1.23
				c0.68,0.15-0.72,0.16-0.25-0.12c0.38-0.23,0.95,0.71,0.17,0.01c0.55,0.5,2.48,2.78,1.52,1.47c0.83,1.13,1.55,2.35,2.22,3.58
				c1.8,3.3,2.49,5.19,3.71,8.68c6.94,19.85,10.18,41.12,13.53,61.8c4.47,27.68,8.05,55.5,12.56,83.18
				c3.08-3.08,6.15-6.15,9.23-9.23c-43.08-9.43-80.23-35.57-121.05-51.18c-18.57-7.1-41.7-9.65-54.32-26.79
				c-11.3-15.35-12.58-35.99-11.64-54.35c1.37-26.63,6.88-53.56-1.6-79.62C237.13,730.18,222.64,734.09,225.64,743.31L225.64,743.31
				z"/>
		</g>
	</g>
</g>
<g id="Ebene_7">
	<g>
		<path class="st4" d="M63.65,347.57c0.5,14.71-0.96,47.61-0.46,62.32c33.16-9.1,65.77-15.31,102.29-14.86
			c-1.4-40.83-5.87-60.8-5.87-60.8s0.72-7.15-96.26,13.02"/>
		<g>
			<path d="M55.56,347.57c0.64,20.77-1.1,41.55-0.46,62.32c0.16,5.23,5.04,9.21,10.23,7.79c32.81-8.96,66.04-14.88,100.14-14.57
				c4.26,0.04,8.24-3.74,8.08-8.08c-0.68-18.95-1.98-37.95-5.01-56.68c-0.25-1.57-0.5-3.14-0.83-4.7c-0.2-0.99-0.67-3.71-0.03,0.58
				c-0.36-2.39-0.76-4.24-2.57-6.01c-3.02-2.96-7.62-3.23-11.59-3.29c-8.59-0.12-17.26,1.22-25.74,2.4
				c-22.35,3.11-44.52,7.56-66.6,12.14c-10.18,2.11-5.87,17.7,4.3,15.59c19.55-4.06,39.15-7.95,58.89-11
				c8.66-1.34,16.81-2.62,26.32-2.92c1.92-0.06,3.84,0.16,5.74,0.11c1.4-0.03-2.57-0.66-0.47-0.03c1.35,0.41,0.46,0.31-0.95-0.49
				c-2.09-1.18-2.48-3.56-3.49-6.49c0.6,1.74,0.73,4.33,1.05,6.16c3.01,17.22,4.16,36.26,4.82,54.64c2.69-2.69,5.39-5.39,8.08-8.08
				c-35.46-0.32-70.32,5.83-104.44,15.15c3.41,2.6,6.82,5.2,10.23,7.79c-0.64-20.77,1.1-41.55,0.46-62.32
				C71.41,337.19,55.24,337.15,55.56,347.57L55.56,347.57z"/>
		</g>
	</g>
	<g>
		<path class="st4" d="M85.71,406.34c27.24,423.33,55.64,854.18,82.88,1277.51c26.8-4.36,49.92-5.91,79.1,1.96
			c-33.09-422.61-60.12-863.36-93.21-1285.97"/>
		<g>
			<path d="M77.62,406.34c10.7,166.32,21.51,332.64,32.33,498.95c10.81,165.97,21.63,331.95,32.4,497.92
				c6.07,93.54,12.12,187.09,18.14,280.63c0.36,5.66,4.85,8.66,10.23,7.79c25.28-4.06,49.88-4.58,74.8,1.96
				c4.74,1.24,10.65-2.43,10.23-7.79c-6.49-82.89-12.7-165.8-18.74-248.73c-6.13-84.16-12.09-168.33-17.98-252.5
				c-5.89-84.05-11.71-168.11-17.59-252.16c-5.86-83.82-11.76-167.65-17.82-251.46c-6.04-83.47-12.23-166.93-18.69-250.38
				c-0.79-10.25-1.59-20.5-2.39-30.74c-0.81-10.3-16.98-10.39-16.17,0c6.49,82.89,12.7,165.8,18.74,248.73
				c6.13,84.16,12.09,168.33,17.98,252.5c5.89,84.05,11.71,168.11,17.59,252.16c5.86,83.82,11.76,167.65,17.82,251.46
				c6.04,83.47,12.23,166.93,18.69,250.38c0.79,10.25,1.59,20.5,2.39,30.74c3.41-2.6,6.82-5.2,10.23-7.79
				c-27.85-7.31-55.19-6.49-83.39-1.96c3.41,2.6,6.82,5.2,10.23,7.79c-10.7-166.32-21.51-332.64-32.33-498.95
				c-10.81-165.97-21.63-331.95-32.4-497.92c-6.07-93.54-12.12-187.09-18.14-280.63C93.12,396.01,76.95,395.93,77.62,406.34
				L77.62,406.34z"/>
		</g>
	</g>
	<g>
		<g>
			<path d="M86.69,315.87c2.66,8.47,1.42,17.7,4.09,26.2c3.1,9.89,18.71,5.67,15.59-4.3c-2.66-8.47-1.42-17.7-4.09-26.2
				C99.18,301.68,83.57,305.9,86.69,315.87L86.69,315.87z"/>
		</g>
	</g>
	<g>
		<g>
			<path d="M114.84,312.63c0.34,2.08,0.19,4.45-0.05,6.83c-0.35,3.37,0.11,6.64,0.66,9.97c0.71,4.31,6.05,6.72,9.94,5.65
				c4.57-1.26,6.36-5.62,5.65-9.94c-0.34-2.08-0.19-4.45,0.05-6.83c0.35-3.37-0.11-6.64-0.66-9.97c-0.71-4.31-6.05-6.72-9.94-5.65
				C115.91,303.94,114.12,308.3,114.84,312.63L114.84,312.63z"/>
		</g>
	</g>
	<g>
		<g>
			<path d="M163.65,408.81c67.65,41.07,145.96,59.99,224.57,62.92c80.73,3.01,161.29-10.24,238.88-31.81
				c86.53-24.07,170.03-57.46,254.66-87.24c80.93-28.48,164.43-54.98,250.02-64.69c38.13-4.33,76.92-5,115,0.26
				c39.54,5.47,78.18,17.13,114.36,33.96c9.81,4.56,19.43,9.48,28.92,14.67c9.13,4.99,17.3-8.96,8.16-13.96
				c-36.2-19.78-74.78-35.36-115.08-44.42c-37.5-8.43-76.1-11.35-114.47-9.63c-84.15,3.78-167.19,26.74-246.76,53.03
				c-85.23,28.15-168.44,62.12-254.08,89.06c-78.58,24.72-159.32,42.92-241.97,44.85c-78.3,1.84-158.12-10.76-228.4-46.62
				c-8.73-4.45-17.27-9.25-25.65-14.34C162.89,389.44,154.76,403.41,163.65,408.81L163.65,408.81z"/>
		</g>
	</g>
	<g>
		<g>
			<path d="M218.52,1356.18c69.6,34.1,149.01,43.17,225.68,39.22c81.65-4.21,160.15-24.69,237.67-49.55
				c84.78-27.19,168.55-57.44,256.24-74.14c82.34-15.68,166.03-21.95,249.79-19.17c84.44,2.8,168.31,14.05,251.73,26.86
				c11.29,1.74,22.58,3.5,33.87,5.29c10.18,1.61,14.56-13.97,4.3-15.59c-84.4-13.33-169.12-25.99-254.48-31.08
				c-82.31-4.9-164.72-1.75-246.26,10.68c-43.84,6.68-87.22,15.85-129.95,27.75c-42.37,11.8-84.1,25.74-125.85,39.54
				c-78.65,25.99-157.93,51.63-240.67,60.38c-76.33,8.07-156.27,4.7-228.58-23.04c-8.62-3.31-17.05-7.03-25.34-11.09
				C217.38,1337.66,209.17,1351.6,218.52,1356.18L218.52,1356.18z"/>
		</g>
	</g>
	<g>
		<g>
			<path d="M183.54,424.82c12.41,123.37,24.81,246.75,37.22,370.12c12.34,122.71,24.68,245.42,37.02,368.13
				c6.94,68.98,13.87,137.97,20.81,206.95c0.44,4.34,3.4,8.08,8.08,8.08c4.03,0,8.52-3.71,8.08-8.08
				c-12.41-123.37-24.81-246.75-37.22-370.12c-12.34-122.71-24.68-245.42-37.02-368.13c-6.94-68.98-13.87-137.97-20.81-206.95
				c-0.44-4.34-3.4-8.08-8.08-8.08C187.59,416.73,183.1,420.45,183.54,424.82L183.54,424.82z"/>
		</g>
	</g>
	
		<ellipse transform="matrix(0.3332 -0.9429 0.9429 0.3332 -172.859 265.3029)" class="st5" cx="101.14" cy="254.86" rx="58.7" ry="60.91"/>
	<g>
		<g>
			<path d="M109.12,333.68c2.07-0.39,4.15-0.77,6.22-1.16c1.89-0.35,3.89-2.11,4.83-3.71c1.01-1.73,1.44-4.29,0.81-6.23
				c-0.63-1.96-1.84-3.84-3.71-4.83c-2.01-1.06-3.99-1.23-6.23-0.81c-2.07,0.39-4.15,0.77-6.22,1.16c-1.89,0.35-3.89,2.11-4.83,3.71
				c-1.01,1.73-1.44,4.29-0.81,6.23c0.63,1.96,1.84,3.84,3.71,4.83C104.9,333.93,106.88,334.1,109.12,333.68L109.12,333.68z"/>
		</g>
	</g>
	<g class="st6">
		<path d="M202.39,427.6c0,0-165.24,906.03,1273.27,794.87c4.54,21.81-6.46,30.32,0,54.42c-132.47-22.04-169.6-32.45-286.62-28.01
			s-242.81-10.18-350.94,32.15c-206.02,80.66-384.27,93.86-449.97,102c-20.47,2.54-85.1-0.11-101.47-13.01
			c-17-13.4,53.85,148.93-95.05-945.21"/>
		<g>
			<path d="M194.6,425.45c-1.58,8.68-2.52,17.52-3.37,26.29c-2.12,21.82-2.89,43.77-2.64,65.68c0.36,32.59,3.11,65.12,7.96,97.35
				c5.92,39.35,15.26,78.19,28.11,115.85c14.93,43.74,34.5,85.94,58.61,125.38c27.66,45.24,61.22,86.9,99.28,123.8
				c44.41,43.06,94.88,79.77,148.65,110.26c65.88,37.35,136.75,65.64,209.31,87.05c90.44,26.68,183.8,42.8,277.54,52.24
				c118.93,11.98,238.83,13.01,358.16,7.4c33.18-1.56,66.34-3.66,99.46-6.21c-2.6-1.98-5.2-3.96-7.79-5.93
				c1.64,8.64,0.09,16.59-1.23,25.12c-1.55,10-1.24,19.45,1.23,29.3c3.31-3.31,6.63-6.63,9.94-9.94
				c-58.68-9.78-117.35-21.85-176.72-26.81c-63.05-5.27-126.38-0.38-189.54-0.52c-72.02-0.15-145.01-1.44-215.82,13.74
				c-37,7.93-71.4,22.76-106.97,35.24c-35.49,12.45-71.47,23.5-107.8,33.2c-96.35,25.72-194.64,40.5-293.65,51.1
				c-22.08,2.36-45.62,0.76-67.47-2.81c-9.38-1.53-19.49-3.25-27.73-8.21c-2.51-1.51,3.94,1.83-1.53-1.1
				c-0.07-0.04-0.12-0.1-0.19-0.14c-0.16-0.08-0.3-0.2-0.45-0.28c-4.43-2.51-10.18-1.58-12.9,2.97
				c-5.12,8.59,5.89,19.31,13.72,11.57c5.32-5.26,5.16-16.04,5.64-22.77c1.53-21.28,0.68-42.79-0.18-64.08
				c-1.88-46.39-5.58-92.71-9.67-138.96c-7.13-80.7-15.86-161.25-25.15-241.72C247,784.46,231.07,659.58,214.5,534.79
				c-4.97-37.38-10-74.76-15.08-112.13c-0.59-4.36-6.13-6.65-9.94-5.65c-4.68,1.23-6.23,5.64-5.65,9.94
				c18.23,134,35.81,268.09,51.97,402.35c10.72,89.05,20.88,178.18,29.55,267.46c5.22,53.81,10.01,107.7,13.14,161.67
				c1.59,27.38,3,54.9,2.36,82.34c-0.15,6.4-0.47,12.79-1.11,19.16c-0.06,0.56-0.14,1.12-0.2,1.68c-0.17,1.73,0.49-2.74,0.06-0.51
				c-0.16,0.82-0.25,1.65-0.42,2.47c-0.23,1.17-0.7,2.35-0.88,3.52c-0.29,1.89,1.37-2.12-0.05-0.09c1.4-2,3.24-3.52,6.21-3.5
				c2.97,0.02,5.45,1.84,6.47,3.54c0.58,0.97,0.96,3.12,0.96,3.21c0.08,4.16-4.22,7.85-9.02,6.68c1.55,0.38-2.8-1.17-0.44-0.08
				c-3.61-1.67-0.42-0.24,0.82,0.62c1.56,1.08,3.21,1.97,4.93,2.77c4.66,2.17,9.57,3.74,14.55,4.98
				c12.14,3.01,24.73,4.49,37.18,5.51c36.07,2.97,71.31-2.11,107.06-6.42c51.73-6.23,103.24-14.24,154.26-24.87
				c69.05-14.39,137.18-33.36,203.54-57.3c33.79-12.19,66.46-25.39,101.84-32.44c34.88-6.94,70.43-9.76,105.93-10.99
				c36.06-1.25,72.14-0.82,108.21-0.8c34.6,0.02,69.13-1.48,103.72-1.91c52.06-0.64,103.18,4.23,154.51,12.64
				c31.54,5.17,63.01,10.76,94.54,16.01c6,1,11.55-3.53,9.94-9.94c-2.31-9.23-1.75-17.56-0.19-26.81
				c1.59-9.41,1.97-18.17,0.19-27.61c-0.61-3.23-4.5-6.19-7.79-5.93c-125.46,9.66-251.63,12.86-377.3,5.25
				c-98.64-5.98-197.1-18.67-293.22-41.94c-76.17-18.44-151.01-43.52-221.41-78.14c-57.15-28.1-111.57-62.54-159.56-103.66
				c-21.36-18.3-41.57-37.93-60.39-58.84c-17.68-19.64-32.49-38.31-47.3-59.66c-13.89-20.02-26.58-40.88-37.98-62.41
				c-5.37-10.15-10.46-20.45-15.26-30.88c-5.12-11.13-8.26-18.5-12.55-29.37c-15.11-38.23-26.47-77.92-34.14-118.3
				c-1.71-8.99-3.24-18.01-4.58-27.05c-0.33-2.19-0.64-4.39-0.95-6.58c-0.13-0.91-0.25-1.81-0.37-2.72
				c0.34,2.54-0.19-1.47-0.28-2.17c-0.55-4.24-1.05-8.49-1.52-12.75c-1.74-15.89-2.94-31.84-3.59-47.82
				c-0.98-24.37-0.71-48.81,1.07-73.14c0.56-7.69,1.28-15.37,2.21-23.03c0.16-1.35,0.35-2.7,0.51-4.06
				c0.27-2.17-0.36,2.46-0.05,0.38c0.08-0.57,0.16-1.15,0.24-1.72c0.22-1.51,0.45-3.01,0.69-4.51c0.08-0.5,0.16-1,0.25-1.5
				C212.04,419.58,196.46,415.22,194.6,425.45L194.6,425.45z"/>
		</g>
	</g>
	<g class="st6">
		<path d="M81.55,206.15c-11.24,37.14,2.91,81,34.08,105.64c-25.89-0.53-51.08-17.31-61.52-40.97s-5.51-52.86,12.02-71.29"/>
		<g>
			<path d="M73.76,204c-11.92,40.63,3.25,87.06,36.16,113.5c1.91-4.6,3.81-9.2,5.72-13.8c-22.76-0.74-44.35-14.94-53.93-35.64
				c-9.48-20.49-5.13-46.36,10.15-62.83c7.07-7.62-4.34-19.08-11.43-11.43c-20.09,21.66-25.37,54.13-13.28,81.09
				c11.88,26.48,39.75,44.05,68.49,44.97c6.55,0.21,11.28-9.33,5.72-13.8c-28.63-23.01-42.45-62.18-32-97.78
				C92.28,198.29,76.68,194.02,73.76,204L73.76,204z"/>
		</g>
	</g>
	<g class="st6">
		<path d="M79.34,362.46c24.66,13.51,52.95,20.26,80.82,19.3c-23.46,4.06-46.91,8.13-70.37,12.19c-4.51,0.78-9.28,1.54-13.64-0.04
			c-6.82-2.48-10.58-10.2-10.58-17.33c0-7.13,2.94-13.83,5.84-20.29"/>
		<g>
			<path d="M75.26,369.44c26.02,14.06,55.31,21.25,84.9,20.4c-0.72-5.29-1.43-10.58-2.15-15.88c-20.52,3.56-41.05,7.11-61.57,10.67
				c-6.31,1.09-17.05,5.3-21.15-1.72c-4.11-7.02,0.16-15.93,3.11-22.54c1.78-3.98,1.16-8.69-2.9-11.06
				c-3.45-2.02-9.27-1.11-11.06,2.9c-4.62,10.37-9.29,21.77-5.57,33.2c3.59,11.05,13.14,18.18,24.91,17.43
				c12.82-0.81,25.81-4.16,38.46-6.35c13.36-2.31,26.71-4.63,40.07-6.94c9.03-1.56,6.85-16.14-2.15-15.88
				c-26.78,0.77-53.16-5.45-76.74-18.19C74.26,350.53,66.09,364.49,75.26,369.44L75.26,369.44z"/>
		</g>
	</g>
	<g class="st6">
		<path d="M103.77,408.75c24.1,255.69,48.21,511.37,72.31,767.06c15.98,169.51,32.04,339.57,69.72,506.18
			c-20.91,10.96-48.56-2.48-61.32-22.75c-12.76-20.27-14.52-45.03-15.93-68.65c-23.51-394.67-47.02-789.35-70.54-1184.02"/>
		<g>
			<path d="M95.69,408.75c15.83,167.93,31.66,335.85,47.49,503.78c7.88,83.54,15.75,167.08,23.63,250.62
				c7.73,82,15.35,164.03,25.3,245.8c11.24,92.35,25.43,184.4,45.89,275.19c1.24-3.04,2.48-6.09,3.71-9.13
				c-13.24,6.52-29.19,0.82-39.85-8.12c-13.72-11.52-19.52-28.9-22.39-46.05c-3.28-19.56-3.42-39.76-4.59-59.52
				c-1.31-22.07-2.63-44.14-3.94-66.2c-5.23-87.85-10.47-175.69-15.7-263.54c-5.26-88.27-10.52-176.54-15.78-264.81
				c-5.23-87.85-10.47-175.69-15.7-263.54c-5.23-87.85-10.47-175.69-15.7-263.54c-0.66-11.03-1.31-22.07-1.97-33.1
				c-0.62-10.34-16.79-10.41-16.17,0c5.41,90.82,10.82,181.63,16.23,272.45c5.39,90.39,10.77,180.79,16.16,271.18
				s10.77,180.79,16.16,271.18c5.41,90.82,10.82,181.63,16.23,272.45c1.34,22.49,2.68,44.98,4.02,67.48
				c1.24,20.89,1.67,42.05,5,62.75c2.86,17.81,9.04,35.88,21.53,49.31c10.75,11.55,25.96,19.65,41.84,20.55
				c7.99,0.45,15.65-1.44,22.79-4.95c3.29-1.62,4.46-5.81,3.71-9.13c-36.27-160.89-52.55-325.22-68.02-489.14
				c-15.76-166.98-31.48-333.96-47.22-500.94c-8.83-93.67-17.66-187.34-26.49-281C110.88,398.49,94.71,398.38,95.69,408.75
				L95.69,408.75z"/>
		</g>
	</g>
	<g class="st6">
		<g>
			<path class="st7" d="M1331.61,411.82c4.32,83.78,8.65,167.55,12.97,251.33s8.65,167.55,12.97,251.33
				c2.44,47.21,4.87,94.41,7.31,141.62c0.73,14.05,11.87,27.62,26.94,26.94c13.98-0.63,27.72-11.87,26.94-26.94
				c-4.32-83.78-8.65-167.55-12.97-251.33s-8.65-167.55-12.97-251.33c-2.44-47.21-4.87-94.41-7.31-141.62
				c-0.73-14.05-11.87-27.62-26.94-26.94C1344.58,385.5,1330.84,396.74,1331.61,411.82L1331.61,411.82z"/>
		</g>
	</g>
	<g class="st6">
		<g>
			<path class="st7" d="M113.91,262.41c14.09,0,27.6-12.39,26.94-26.94c-0.65-14.6-11.84-26.94-26.94-26.94
				c-14.09,0-27.6,12.39-26.94,26.94C87.62,250.07,98.81,262.41,113.91,262.41L113.91,262.41z"/>
		</g>
	</g>
	<g class="st6">
		<g>
			<path class="st7" d="M107.62,433.32c0.07,6.1,0.13,12.2,0.2,18.3c0.15,14.09,12.28,27.6,26.94,26.94
				c14.47-0.65,27.11-11.84,26.94-26.94c-0.07-6.1-0.13-12.2-0.2-18.3c-0.15-14.09-12.28-27.6-26.94-26.94
				C120.09,407.03,107.45,418.22,107.62,433.32L107.62,433.32z"/>
		</g>
	</g>
</g>
<g id="Ebene_8">
</g>
<g id="Ebene_12">
</g>
<g id="Ebene_11">
	<g>
		<g>
			<path d="M380.12,473.68c7.7,118.24,16.72,236.39,27.09,354.43c10.34,117.71,22.01,235.29,35,352.74
				c7.31,66.12,15.05,132.2,23.2,198.22c0.5,4.02,3.09,7.5,7.5,7.5c3.67,0,8-3.45,7.5-7.5c-14.52-117.6-27.72-235.36-39.58-353.25
				c-11.83-117.57-22.32-235.26-31.49-353.07c-5.16-66.33-9.9-132.68-14.22-199.07C394.5,464.1,379.49,464.03,380.12,473.68
				L380.12,473.68z"/>
		</g>
	</g>
	<g>
		<g>
			<path d="M576.22,453.02c5.96,115.51,13.72,230.92,23.31,346.19c9.62,115.59,21.07,231.03,34.35,346.26
				c7.45,64.67,15.49,129.28,24.08,193.81c0.53,4.01,3.06,7.5,7.5,7.5c3.64,0,8.04-3.46,7.5-7.5
				c-15.27-114.65-28.76-229.54-40.41-344.61c-11.69-115.4-21.54-230.99-29.57-346.7c-4.5-64.95-8.42-129.93-11.78-194.95
				C590.73,443.42,575.72,443.36,576.22,453.02L576.22,453.02z"/>
		</g>
	</g>
	<g>
		<g>
			<path d="M776.67,387.38c4.65,116.65,11.61,233.21,20.91,349.59c9.3,116.37,20.93,232.56,34.88,348.47
				c7.88,65.5,16.51,130.9,25.85,196.21c0.57,4,5.68,6.23,9.23,5.24c4.31-1.21,5.82-5.18,5.24-9.23
				c-16.53-115.56-30.73-231.45-42.61-347.58c-11.81-115.48-21.32-231.2-28.53-347.07c-4.05-65.17-7.37-130.39-9.97-195.64
				C791.29,377.76,776.29,377.71,776.67,387.38L776.67,387.38z"/>
		</g>
	</g>
	<g>
		<g>
			<path d="M980.54,311.36c-5.41,121.87-4.62,244.01,2.41,365.8c7,121.16,20.16,241.97,39.33,361.8
				c10.76,67.28,23.46,134.24,38.04,200.8c2.06,9.43,16.53,5.44,14.46-3.99c-25.96-118.51-45.94-238.33-59.69-358.87
				c-13.68-119.92-21.3-240.52-22.82-361.2c-0.86-68.13,0.24-136.28,3.27-204.34C995.97,301.71,980.97,301.73,980.54,311.36
				L980.54,311.36z"/>
		</g>
	</g>
	<g>
		<g>
			<path d="M1172.46,282.68c2.17,125.89,8.34,251.7,18.54,377.19c10.2,125.51,24.42,250.68,42.57,375.28
				c10.21,70.08,21.68,139.98,34.39,209.65c1.73,9.48,16.19,5.47,14.46-3.99c-22.53-123.52-41.17-247.75-55.77-372.46
				c-14.56-124.4-25.16-249.26-31.79-374.33c-3.73-70.39-6.19-140.85-7.41-211.34C1187.29,273.04,1172.29,273,1172.46,282.68
				L1172.46,282.68z"/>
		</g>
	</g>
	<g>
		<g>
			<path d="M1386.65,329.9c14.3,123.14,27.18,246.44,38.62,369.88c11.37,122.78,21.32,245.69,29.84,368.7
				c4.81,69.44,9.16,138.91,13.06,208.41c0.54,9.6,15.54,9.66,15,0c-6.95-123.77-15.33-247.46-25.16-371.04
				c-9.78-122.92-20.98-245.72-33.61-368.37c-7.13-69.24-14.71-138.44-22.75-207.58c-0.47-4.02-3.11-7.5-7.5-7.5
				C1390.46,322.4,1386.18,325.85,1386.65,329.9L1386.65,329.9z"/>
		</g>
	</g>
	<g>
		<g>
			<path d="M1176.17,289.15c57.8,26.28,113.34,56.87,169.49,86.42c17.32,9.12,34.73,18.09,52.24,26.85
				c8.61,4.31,16.21-8.63,7.57-12.95c-57.27-28.65-112.99-60.29-170.32-88.81c-16.99-8.45-34.13-16.61-51.41-24.46
				c-3.71-1.69-8.03-1.03-10.26,2.69C1171.56,282.09,1172.49,287.48,1176.17,289.15L1176.17,289.15z"/>
		</g>
	</g>
	<g>
		<g>
			<path d="M893.61,346.54c67,24.73,134,49.46,200.87,74.56c67.27,25.24,134.4,50.87,201.29,77.13
				c39.83,15.64,79.58,31.49,119.24,47.56c3.78,1.53,8.2-1.67,9.23-5.24c1.22-4.27-1.5-7.71-5.24-9.23
				c-69-27.96-138.27-55.24-207.77-81.92c-66.29-25.45-132.78-50.36-199.36-75.07c-38.07-14.13-76.17-28.19-114.27-42.26
				C888.53,328.73,884.62,343.22,893.61,346.54L893.61,346.54z"/>
		</g>
	</g>
	<g>
		<g>
			<path d="M689.49,419.05c96.35,40.13,192.55,80.64,288.71,121.22c97.26,41.04,194.48,82.16,291.79,123.07
				c53.27,22.4,106.57,44.74,159.92,66.95c3.77,1.57,8.21-1.7,9.23-5.24c1.23-4.3-1.52-7.68-5.24-9.23
				c-96.35-40.13-192.55-80.64-288.71-121.22c-97.26-41.04-194.48-82.16-291.79-123.07c-53.27-22.4-106.57-44.74-159.92-66.95
				c-3.77-1.57-8.21,1.7-9.23,5.24C683.02,414.13,685.77,417.5,689.49,419.05L689.49,419.05z"/>
		</g>
	</g>
	<g>
		<g>
			<path d="M403.8,470.55c80.12,34.85,160.23,69.74,240.31,104.69c62.31,27.19,124.6,54.42,186.88,81.68
				c56.21,24.6,112.41,49.22,168.62,73.82c60.97,26.69,121.95,53.35,182.94,79.98c77.14,33.68,154.31,67.3,231.49,100.89
				c11.26,4.9,22.52,9.8,33.79,14.7c3.74,1.63,8.01,1.07,10.26-2.69c1.89-3.16,1.02-8.65-2.69-10.26
				c-80.21-34.89-160.41-69.82-240.58-104.81c-62.35-27.21-124.69-54.46-187.01-81.74c-56.21-24.6-112.42-49.22-168.63-73.83
				c-60.93-26.67-121.86-53.32-182.82-79.93c-77.06-33.64-154.14-67.23-231.24-100.78c-11.25-4.89-22.5-9.79-33.75-14.68
				c-3.74-1.63-8.01-1.07-10.26,2.69C399.22,463.44,400.09,468.93,403.8,470.55L403.8,470.55z"/>
		</g>
	</g>
	<g>
		<g>
			<path d="M212.76,545.79c77.11,29.67,154.08,59.71,230.79,90.4c71.16,28.47,142.1,57.51,212.78,87.17
				c72.74,30.53,145.19,61.73,217.44,93.4c82.18,36.02,164.1,72.64,245.88,109.56c98.67,44.54,197.16,89.49,295.58,134.57
				c13.38,6.13,26.76,12.26,40.14,18.4c8.71,4,16.34-8.93,7.57-12.95c-100.94-46.28-201.93-92.45-303.09-138.22
				c-83.66-37.85-167.44-75.43-251.48-112.43c-73.3-32.27-146.8-64.07-220.57-95.22c-70.84-29.9-141.93-59.21-213.26-87.91
				c-75.58-30.41-151.43-60.18-227.43-89.53c-10.12-3.91-20.23-7.81-30.36-11.7C207.73,527.86,203.83,542.35,212.76,545.79
				L212.76,545.79z"/>
		</g>
	</g>
	<g>
		<g>
			<path d="M222.31,730.29c81.08,32.42,162.16,64.85,243.22,97.31s162.12,64.94,243.17,97.44c80.67,32.35,161.32,64.71,241.97,97.1
				c81.03,32.54,162.06,65.1,243.07,97.69s162.02,65.19,243.02,97.81c9.98,4.02,19.96,8.04,29.94,12.06
				c8.95,3.61,12.84-10.9,3.99-14.46c-81-32.63-162-65.24-243.02-97.83c-81.01-32.59-162.04-65.16-243.07-97.7
				c-80.65-32.39-161.3-64.76-241.97-97.12c-81.05-32.51-162.1-64.99-243.17-97.45s-162.14-64.91-243.22-97.33
				c-9.99-4-19.98-7.99-29.97-11.98C217.33,712.25,213.44,726.75,222.31,730.29L222.31,730.29z"/>
		</g>
	</g>
	<g>
		<g>
			<path d="M242.01,889.81c55.71,23.56,111.57,46.74,167.53,69.7c57.7,23.67,115.49,47.12,173.31,70.49
				c58.19,23.52,116.41,46.95,174.61,70.45c58,23.42,115.97,46.89,173.86,70.57c56.25,23.01,112.42,46.21,168.44,69.78
				c6.71,2.82,13.41,5.65,20.11,8.48c3.76,1.59,7.99,1.1,10.26-2.69c1.87-3.13,1.04-8.69-2.69-10.26
				c-55.71-23.56-111.57-46.74-167.53-69.7c-57.7-23.67-115.49-47.12-173.31-70.49c-58.19-23.52-116.41-46.95-174.61-70.45
				c-58-23.42-115.97-46.89-173.86-70.57c-56.25-23.01-112.42-46.21-168.44-69.78c-6.71-2.82-13.41-5.65-20.11-8.48
				c-3.76-1.59-7.99-1.1-10.26,2.69C237.44,882.67,238.28,888.23,242.01,889.81L242.01,889.81z"/>
		</g>
	</g>
	<g>
		<g>
			<path d="M250.32,1052.72c73.31,31.48,146.58,63.06,219.83,94.66c73.09,31.53,146.17,63.08,219.28,94.57
				c41.4,17.84,82.82,35.66,124.24,53.45c3.75,1.61,8,1.08,10.26-2.69c1.88-3.14,1.03-8.67-2.69-10.26
				c-73.31-31.48-146.58-63.06-219.83-94.66c-73.09-31.53-146.17-63.08-219.28-94.57c-41.4-17.84-82.82-35.66-124.24-53.45
				c-3.75-1.61-8-1.08-10.26,2.69C245.75,1045.6,246.61,1051.13,250.32,1052.72L250.32,1052.72z"/>
		</g>
	</g>
	<g>
		<g>
			<path d="M278.01,1239.9c93.44,33.86,188.93,61.77,283.27,92.96c24.84,8.21,49.62,16.62,74.21,25.53
				c9.09,3.29,13.01-11.2,3.99-14.46c-93.44-33.86-188.93-61.77-283.27-92.96c-24.84-8.21-49.62-16.62-74.21-25.53
				C272.91,1222.14,268.99,1236.63,278.01,1239.9L278.01,1239.9z"/>
		</g>
	</g>
</g>
<g id="Ebene_13">
	<g>
		<g id="Ebene_3_Kopie">
			<g class="st8">
				<path d="M669.51,801.1c1.04,67.85-13.38,135.79-42.58,200.62c106.27-41.65,200.5-97.67,275.67-163.89"/>
				<g>
					<path d="M665.22,803.02c0.74,52.59-7.82,105.09-25.15,155.79c-4.91,14.39-10.61,28.6-16.91,42.62
						c-1.09,2.43-0.08,5.78,3.86,4.24c41.33-16.22,81.27-34.73,119.32-55.52c37.23-20.35,72.71-42.77,105.82-67.31
						c18.29-13.56,35.86-27.76,52.64-42.52c1.55-1.36,3.1-4.43,1.5-6.11c-1.73-1.82-4.56-0.03-5.89,1.13
						c-29.48,25.94-61.54,49.95-95.57,71.97c-34.75,22.49-71.57,42.86-109.98,61.08c-22.17,10.52-44.87,20.3-68.01,29.38
						c1.29,1.41,2.58,2.82,3.86,4.24c22.76-50.68,36.88-103.73,41.5-157.49c1.29-15.09,1.82-30.2,1.6-45.32
						c-0.03-2.11-2.16-2.92-4.38-2.03C666.96,798.13,665.19,800.85,665.22,803.02L665.22,803.02z"/>
				</g>
			</g>
			<g class="st8">
				<path d="M865.23,866.34c106.87,1.09,214.96-11.21,313.63-44.28c98.66-33.07,187.59-87.81,244.51-160.63
					c56.92-72.82,79.65-164.23,52.13-247.36c-29.22-88.28-113.16-161.46-215.05-201.71s-219.95-49.48-332.32-36.71
					c-126.47,14.37-249.91,57.19-340.27,129.86s-144.6,176.54-132.39,278.89c12.22,102.35,95.91,199.71,215.61,235.58"/>
				<g>
					<path d="M863.44,870.18c103.84,0.98,209-10.37,305.86-41.5c83.52-26.84,160.38-68.47,218.6-123.98
						c60.6-57.78,98.71-130.64,102.69-206.51c1.94-36.97-4.57-74.22-20.19-109.06c-14.33-31.99-35.86-61.78-62.5-88.12
						c-56.81-56.17-135.02-95.51-220.89-116.11c-94.79-22.74-196.84-23.43-293.52-8.25C802.81,190.9,715.1,220,641.03,264.79
						c-73.53,44.47-131.55,104.86-163.8,174.37c-30.9,66.61-37.03,140.75-9.48,208.79c25.4,62.73,77.03,119.32,146.95,154.35
						c17.01,8.52,35.02,15.66,53.77,21.32c4.11,1.24,9.02-6.13,5.22-7.28c-75.87-22.91-137.06-70.28-174.63-127.58
						c-39.99-61-50.57-131.21-33.35-198.57c18.09-70.76,64.72-136.39,129.13-186.47c65.56-50.98,147.85-86.57,234.95-107.3
						c91.04-21.68,188.7-28.39,282.68-16.63c90.02,11.27,176.17,40.76,244.35,89.94c63.08,45.5,108.95,106.69,122.32,174.46
						c14.65,74.28-8.74,152.04-58.03,215.4c-46.94,60.34-116.49,107.94-194.38,140.89c-88.24,37.33-187.46,55.58-286.51,60.59
						c-24.36,1.23-48.78,1.66-73.19,1.43C862.96,862.45,858.95,870.14,863.44,870.18L863.44,870.18z"/>
				</g>
			</g>
			<g class="st8">
				<path class="st9" d="M951.44,502.62c6.59-48.13-37.74-96.56-96.1-108.31c-58.35-11.75-123.91,12.45-153.94,54.4
					s-24.3,97.9,11.03,137.08c29,32.16,73.84,52.24,117.72,70.46c62.48,25.95,126.04,50.2,190.53,72.71
					c7.94,2.77,16.53,5.58,25.01,4.14c10.77-1.83,17.91-9.83,23.98-17.23c45.89-55.95,91.77-111.9,137.66-167.85
					c24.24-29.56,49.32-61.13,50.81-96.53c1.26-29.89-15.34-59.39-41.66-80.49c-44.76-35.89-117.98-46.34-175.34-25.03
					c-57.36,21.31-95,72.94-90.11,123.65"/>
				<g>
					<path d="M955.09,501.88c5.73-43.68-27.34-87.17-76.55-105.36c-49.96-18.46-110.05-6.9-150.21,21.82
						c-43.68,31.24-58.97,80.75-44.94,125.78c7.23,23.21,22.24,44.1,42.98,61.17c21.64,17.81,47.89,31.39,74.86,43.37
						c30.37,13.5,61.59,25.84,92.78,38.04c32.82,12.85,65.93,25.24,99.29,37.16c8.63,3.09,17.26,6.18,25.95,9.16
						c7.66,2.63,15.79,5.08,24.26,4.05c15.26-1.86,24.18-14.24,31.9-23.66c20.65-25.18,41.3-50.36,61.95-75.53
						c20.65-25.18,41.3-50.36,61.95-75.53c18.62-22.71,38.42-45.31,51.01-70.73c11.71-23.63,15.34-49.17,6.42-73.82
						c-8.34-23.03-25.9-43.66-49.09-58.65c-43.14-27.88-105.49-35.87-157.16-19.83c-52.19,16.21-90.53,55.8-100.9,99.73
						c-2.51,10.61-3.32,21.49-2.33,32.26c0.45,4.96,7.82-0.13,7.53-3.36c-3.87-42.2,21.93-84.85,65.24-108.8
						c44.13-24.4,103.18-26.23,151.25-8.24c51.44,19.25,89.52,63.69,82.28,110.43c-3.85,24.86-18.87,47.35-35.16,68.27
						c-18.5,23.75-38.21,46.92-57.4,70.32c-19.76,24.09-39.51,48.18-59.27,72.27c-9.94,12.12-19.88,24.25-29.83,36.37
						c-7.27,8.86-15.36,21.79-30.8,21.06c-8.89-0.42-17.25-4.07-25.26-6.89c-7.85-2.76-15.68-5.54-23.49-8.36
						c-16.05-5.77-32.04-11.64-47.96-17.63c-31.85-11.97-63.45-24.37-94.79-37.19c-52.04-21.29-109.69-43.83-141.01-85.53
						c-28.27-37.64-31.65-88.42-2.7-126.47c26.73-35.14,80.22-56.19,131.06-51.77c51.74,4.5,95.89,37.38,108.17,77.79
						c2.95,9.71,3.96,19.84,2.65,29.8C947.06,508.84,954.62,505.51,955.09,501.88L955.09,501.88z"/>
				</g>
			</g>
			<g class="st8">
				<g>
					<path d="M1407.41,474.15c10.75,38.49,7.21,79.16-10.23,116.04c-0.65,1.37-0.86,3.79,1.51,4.09c2.33,0.3,4.43-2.16,5.1-3.6
						c18.27-38.63,22.12-81.21,10.86-121.55c-0.54-1.96-3.27-1.31-4.65-0.42C1408.14,469.94,1406.86,472.23,1407.41,474.15
						L1407.41,474.15z"/>
				</g>
			</g>
			<g class="st8">
				<g>
					<path d="M1383.57,635.46c-20.7,29.96-49.33,55.97-83.67,76.24c-3.66,2.16-3.46,9.11,2.05,5.85
						c35.71-21.08,65.52-48.42,87.05-79.57c0.88-1.27,1.96-3.94-0.1-4.9C1386.86,632.14,1384.42,634.23,1383.57,635.46
						L1383.57,635.46z"/>
				</g>
			</g>
			<g class="st8">
				<g>
					<path d="M544.6,510.7c1.42-38.53,14.89-76.62,38.81-110.01c6.84-9.55,14.52-18.67,22.99-27.34c1.25-1.28,2.78-3.81,1.32-5.36
						c-1.46-1.54-4.09-0.11-5.16,0.99c-31.35,32.09-52.59,70.41-61.22,110.65c-2.44,11.38-3.84,22.89-4.27,34.42
						c-0.07,1.87,1.96,2.53,3.84,1.78C543.14,514.96,544.53,512.63,544.6,510.7L544.6,510.7z"/>
				</g>
			</g>
		</g>
		<g id="Ebene_3_1_">
			<g>
				<path class="st10" d="M711.28,761.87c1.04,67.85-13.38,135.79-42.58,200.62c106.27-41.65,200.5-97.67,275.67-163.89"/>
				<g>
					<path d="M706.99,763.79c0.74,52.59-7.82,105.09-25.15,155.79c-4.91,14.39-10.61,28.6-16.91,42.62
						c-1.09,2.43-0.08,5.78,3.86,4.24c41.33-16.22,81.27-34.73,119.32-55.52c37.23-20.35,72.71-42.77,105.82-67.31
						c18.29-13.56,35.86-27.76,52.64-42.52c1.55-1.36,3.1-4.43,1.5-6.11c-1.73-1.82-4.56-0.03-5.89,1.13
						c-29.48,25.94-61.54,49.95-95.57,71.97c-34.75,22.49-71.57,42.86-109.98,61.08c-22.17,10.52-44.87,20.3-68.01,29.38
						c1.29,1.41,2.58,2.82,3.86,4.24c22.76-50.68,36.88-103.73,41.5-157.49c1.29-15.09,1.82-30.2,1.6-45.32
						c-0.03-2.11-2.16-2.92-4.38-2.03C708.73,758.9,706.96,761.62,706.99,763.79L706.99,763.79z"/>
				</g>
			</g>
			<g>
				<path class="st10" d="M907,827.11c106.87,1.09,214.96-11.21,313.63-44.28c98.66-33.07,187.59-87.81,244.51-160.63
					s79.65-164.23,52.13-247.36c-29.22-88.28-113.16-161.46-215.05-201.71s-219.95-49.48-332.32-36.71
					c-126.47,14.37-249.91,57.19-340.27,129.86s-144.6,176.54-132.39,278.89c12.22,102.35,95.91,199.71,215.61,235.58"/>
				<g>
					<path d="M905.2,830.96c103.84,0.98,209-10.37,305.86-41.5c83.52-26.84,160.38-68.47,218.6-123.98
						c60.6-57.78,98.71-130.64,102.69-206.51c1.94-36.97-4.57-74.22-20.19-109.06c-14.33-31.99-35.86-61.78-62.5-88.12
						c-56.81-56.17-135.02-95.51-220.89-116.11c-94.79-22.74-196.84-23.43-293.52-8.25c-90.68,14.24-178.39,43.34-252.46,88.13
						C609.27,270.03,551.25,330.42,519,399.93c-30.9,66.61-37.03,140.75-9.48,208.79c25.4,62.73,77.03,119.32,146.95,154.35
						c17.01,8.52,35.02,15.66,53.77,21.32c4.11,1.24,9.02-6.13,5.22-7.28c-75.87-22.91-137.06-70.28-174.63-127.58
						c-39.99-61-50.57-131.21-33.35-198.57c18.09-70.76,64.72-136.39,129.13-186.47c65.56-50.98,147.85-86.57,234.95-107.3
						c91.04-21.68,188.7-28.39,282.68-16.63c90.02,11.27,176.17,40.76,244.35,89.94c63.08,45.5,108.95,106.69,122.32,174.46
						c14.65,74.28-8.74,152.04-58.03,215.4c-46.94,60.34-116.49,107.94-194.38,140.89c-88.24,37.33-187.46,55.58-286.51,60.59
						c-24.36,1.23-48.78,1.66-73.19,1.43C904.73,823.23,900.71,830.92,905.2,830.96L905.2,830.96z"/>
				</g>
			</g>
			<g>
				<path class="st9" d="M993.2,463.4c6.59-48.13-37.74-96.56-96.1-108.31c-58.35-11.75-123.91,12.45-153.94,54.4
					s-24.3,97.9,11.03,137.08c29,32.16,73.84,52.24,117.72,70.46c62.48,25.95,126.04,50.2,190.53,72.72
					c7.94,2.77,16.53,5.58,25.01,4.14c10.77-1.83,17.91-9.83,23.98-17.23c45.89-55.95,91.77-111.9,137.66-167.85
					c24.24-29.56,49.32-61.13,50.81-96.53c1.26-29.89-15.34-59.39-41.66-80.49c-44.76-35.89-117.98-46.34-175.34-25.03
					c-57.36,21.31-95,72.94-90.11,123.65"/>
				<g>
					<path d="M996.86,462.65c5.73-43.68-27.34-87.17-76.55-105.36c-49.96-18.46-110.05-6.9-150.21,21.82
						c-43.68,31.24-58.97,80.75-44.94,125.78c7.23,23.21,22.24,44.1,42.98,61.17c21.64,17.81,47.89,31.39,74.86,43.37
						c30.37,13.5,61.59,25.84,92.78,38.04c32.82,12.85,65.93,25.24,99.29,37.16c8.63,3.09,17.26,6.18,25.95,9.16
						c7.66,2.63,15.79,5.08,24.26,4.05c15.26-1.86,24.18-14.24,31.9-23.66c20.65-25.18,41.3-50.36,61.95-75.53
						s41.3-50.36,61.95-75.53c18.62-22.71,38.42-45.31,51.01-70.73c11.71-23.63,15.34-49.17,6.42-73.82
						c-8.34-23.03-25.9-43.66-49.09-58.65c-43.14-27.88-105.49-35.87-157.16-19.83c-52.19,16.21-90.53,55.8-100.9,99.73
						c-2.51,10.61-3.32,21.49-2.33,32.26c0.45,4.96,7.82-0.13,7.53-3.36c-3.87-42.2,21.93-84.85,65.24-108.8
						c44.13-24.4,103.18-26.23,151.25-8.24c51.44,19.25,89.52,63.69,82.28,110.43c-3.85,24.86-18.87,47.35-35.16,68.27
						c-18.5,23.75-38.21,46.92-57.4,70.32c-19.76,24.09-39.51,48.18-59.27,72.27c-9.94,12.12-19.88,24.25-29.83,36.37
						c-7.27,8.86-15.36,21.79-30.8,21.06c-8.89-0.42-17.25-4.07-25.26-6.89c-7.85-2.76-15.68-5.54-23.49-8.36
						c-16.05-5.77-32.04-11.64-47.96-17.63c-31.85-11.97-63.45-24.37-94.79-37.19c-52.04-21.29-109.69-43.83-141.01-85.53
						c-28.27-37.64-31.65-88.42-2.7-126.47c26.73-35.14,80.22-56.19,131.06-51.77c51.74,4.5,95.89,37.38,108.17,77.79
						c2.95,9.71,3.96,19.84,2.65,29.8C988.83,469.62,996.39,466.29,996.86,462.65L996.86,462.65z"/>
				</g>
			</g>
			<g>
				<g>
					<path d="M1449.18,434.92c10.75,38.49,7.21,79.16-10.23,116.04c-0.65,1.37-0.86,3.79,1.51,4.09c2.33,0.3,4.43-2.16,5.1-3.6
						c18.27-38.63,22.12-81.21,10.86-121.55c-0.54-1.96-3.27-1.31-4.65-0.42C1449.91,430.71,1448.63,433,1449.18,434.92
						L1449.18,434.92z"/>
				</g>
			</g>
			<g>
				<g>
					<path d="M1425.34,596.23c-20.7,29.96-49.33,55.97-83.67,76.24c-3.66,2.16-3.46,9.11,2.05,5.85
						c35.71-21.08,65.52-48.42,87.05-79.57c0.88-1.27,1.96-3.94-0.1-4.9C1428.63,592.91,1426.19,595,1425.34,596.23L1425.34,596.23z
						"/>
				</g>
			</g>
			<g>
				<g>
					<path d="M586.36,471.47c1.42-38.53,14.89-76.62,38.81-110.01c6.84-9.55,14.52-18.67,22.99-27.34c1.25-1.28,2.78-3.81,1.32-5.36
						c-1.46-1.54-4.09-0.11-5.16,0.99c-31.35,32.09-52.59,70.41-61.22,110.65c-2.44,11.38-3.84,22.89-4.27,34.42
						c-0.07,1.87,1.96,2.53,3.84,1.78C584.91,475.73,586.3,473.4,586.36,471.47L586.36,471.47z"/>
				</g>
			</g>
			<g>
				<path class="st9" d="M1576.05,137.11c8.93-6.68,11.15-18.46,5.07-26.97s-19.83-12.9-31.5-10.05
					c-13.94,3.41-22.32,15.43-23.79,27.1c-1.47,11.67,2.46,23.28,5.53,34.75c3.07,11.47,5.25,23.66,0.44,34.73
					c29.99-12.55,58.17-27.91,83.78-45.67c9.61-6.67,19.76-16.19,15.7-25.87c-3.59-8.53-17.22-11.95-28.01-9.58
					c-10.79,2.37-19.3,8.87-27.33,15.14"/>
				<g>
					<path d="M1577.08,140.03c9.77-7.6,14.38-19.88,8.99-30.27c-4.88-9.4-17.43-15.15-29.95-14.28
						c-13.76,0.95-23.98,9.66-29.46,19.27c-6.5,11.4-5.43,24.06-2.55,36.07c3.53,14.74,10.6,30.68,4.4,45.59
						c-0.86,2.06-0.11,5.18,3.38,3.72c28.28-11.88,54.98-26.18,79.48-42.63c10.89-7.31,24.13-16.58,24.59-28.97
						c0.38-10.14-10.15-16.86-22.01-17.51c-15.78-0.87-28.5,8.53-39.03,16.74c-1.64,1.28-3.4,3.5-2.6,5.43
						c0.74,1.78,3.2,1.55,4.65,0.42c8.19-6.38,17.72-14.18,29.78-14.91c9.42-0.57,21.53,3.6,21.69,12.36
						c0.09,4.91-4.14,9.19-8.09,12.6c-4.49,3.88-9.8,7.21-14.9,10.55c-10.7,7.02-21.8,13.63-33.3,19.79
						c-13.04,6.98-26.54,13.37-40.41,19.2c1.13,1.24,2.26,2.48,3.38,3.72c4.55-10.97,3.56-22.34,0.88-33.53
						c-2.79-11.66-7.37-23.23-6.64-35.23c0.49-8.24,4.54-17.3,13.44-22.02c9.38-4.97,21.98-3.54,30.24,2.33
						c8.89,6.32,10.92,18.77,1.99,25.72c-1.64,1.28-3.4,3.5-2.6,5.43C1573.17,141.4,1575.62,141.17,1577.08,140.03L1577.08,140.03z"
						/>
				</g>
			</g>
			<g>
				<path class="st11" d="M1606.14,273.72c-2.48,17.94-16.54,34.58-36.36,43.03c9.45-3.37,20.92-2.79,29.76,1.52
					c8.84,4.31,14.81,12.22,15.47,20.52c1.66-16.7,16.9-31.99,36.79-36.92c-20.62,3.79-43.33-10.18-44.21-27.2"/>
				<g>
					<path d="M1602.48,274.47c-2.44,16.46-14.63,30.93-32.77,38.81c-3.38,1.46-5.72,8.92,0.15,6.93
						c18.34-6.23,39.78,4.36,41.39,20.26c0.48,4.75,7.11,0.31,7.43-2.43c1.68-14.96,14.42-27.81,32.25-32.39
						c2.36-0.61,4.14-2.59,4.55-4.53c0.33-1.56-0.37-3.44-2.78-3.03c-19.09,3.26-40.2-9.27-41.32-25.09
						c-0.13-1.82-1.82-2.59-3.84-1.78c-2.09,0.83-3.82,3.27-3.69,5.15c1.32,18.57,24.32,33.17,47.09,29.29
						c0.59-2.52,1.18-5.04,1.77-7.56c-22.25,5.72-39.22,22.68-41.33,41.45c2.48-0.81,4.95-1.62,7.43-2.43
						c-0.9-8.85-6.4-17.13-15.75-22.03c-9.98-5.25-22.54-5.45-33.32-1.79c0.05,2.31,0.1,4.62,0.15,6.93
						c21.67-9.41,37.03-27.54,39.95-47.24C1610.61,267.51,1603.02,270.84,1602.48,274.47L1602.48,274.47z"/>
				</g>
			</g>
			<path class="st12" d="M1657.09,688.04l10.73,26.65c0.46,1.14,1.79,1.92,3.28,1.92h34.75c3.34,0,4.73,3.44,2.03,5.02l-28.12,16.48
				c-1.2,0.71-1.71,1.96-1.25,3.1l10.74,26.66c1.03,2.56-2.61,4.68-5.31,3.1l-28.1-16.46c-1.21-0.71-2.85-0.71-4.06,0l-28.1,16.46
				c-2.7,1.59-6.34-0.54-5.31-3.1l10.74-26.66c0.46-1.14-0.04-2.39-1.25-3.1l-28.12-16.48c-2.7-1.58-1.31-5.02,2.03-5.02h34.75
				c1.5,0,2.82-0.77,3.28-1.92l10.73-26.65C1651.56,685.48,1656.06,685.48,1657.09,688.04z"/>
			<path class="st12" d="M782.55,47.58l10.73,26.65c0.46,1.14,1.79,1.92,3.28,1.92h34.75c3.34,0,4.73,3.44,2.03,5.02l-28.12,16.48
				c-1.2,0.71-1.71,1.96-1.25,3.1l10.74,26.66c1.03,2.56-2.61,4.68-5.31,3.1l-28.1-16.46c-1.21-0.71-2.85-0.71-4.06,0l-28.1,16.46
				c-2.7,1.59-6.34-0.54-5.31-3.1l10.74-26.66c0.46-1.14-0.04-2.39-1.25-3.1l-28.12-16.48c-2.7-1.58-1.31-5.02,2.03-5.02h34.75
				c1.5,0,2.82-0.77,3.28-1.92l10.73-26.65C777.02,45.02,781.52,45.02,782.55,47.58z"/>
			<path class="st12" d="M469.29,708.83l10.73,26.65c0.46,1.14,1.79,1.92,3.28,1.92h34.75c3.34,0,4.73,3.44,2.03,5.02l-28.12,16.48
				c-1.2,0.71-1.71,1.96-1.25,3.1l10.74,26.66c1.03,2.56-2.61,4.68-5.31,3.1l-28.1-16.46c-1.21-0.71-2.85-0.71-4.06,0l-28.1,16.46
				c-2.7,1.59-6.34-0.54-5.31-3.1l10.74-26.66c0.46-1.14-0.04-2.39-1.25-3.1l-28.12-16.48c-2.7-1.58-1.31-5.02,2.03-5.02h34.75
				c1.5,0,2.82-0.77,3.28-1.92l10.73-26.65C463.75,706.27,468.26,706.27,469.29,708.83z"/>
			<g>
				<path class="st13" d="M1437.33,896.66c-2.33-11.58-16.16-20.91-30.72-20.74c-14.56,0.17-28.05,9.83-29.96,21.45
					c-2.01,12.26,7.87,24.16,20.63,31.05c12.77,6.88,28.08,9.82,42.92,13.01c14.85,3.19,30.07,6.96,41.68,15.06
					c4.27-23.53,8.55-47.06,12.83-70.59c2.03-11.19,3.04-24.62-7.97-31.64c-11.36-7.25-29.37-2.25-37.82,7.24
					c-8.44,9.49-9.91,21.76-11.1,33.39"/>
				<g>
					<path d="M1440.95,894.16c-2.52-11.25-14.57-20.47-28.69-21.91c-14.67-1.49-28.89,6.24-35.45,16.49c-7.41,11.57-4.1,24.9,6,34.7
						c10.96,10.64,27.21,15.52,43.26,19.16c18.52,4.2,38.13,7.23,53.21,17.53c2.58,1.77,6.01-2.95,6.27-4.39
						c2.67-14.7,5.35-29.41,8.02-44.12c1.37-7.54,2.74-15.07,4.11-22.61c1.03-5.66,2.12-11.34,2.09-17.07
						c-0.05-9.85-4.2-20.86-17.11-24.1c-12.31-3.1-25.87,2.26-33.92,9.72c-11.5,10.65-13.29,25.58-14.67,39.02
						c-0.19,1.89,2.03,2.5,3.84,1.78c2.33-0.93,3.49-3.19,3.69-5.15c1.03-10.06,1.92-21.77,9.8-30.13
						c6.11-6.47,18.32-10.58,28.09-7.38c11.15,3.65,13.14,13.82,12.67,22.4c-0.3,5.46-1.53,10.87-2.51,16.27
						c-1.13,6.25-2.27,12.5-3.4,18.75c-2.67,14.7-5.35,29.41-8.02,44.12c2.09-1.46,4.18-2.93,6.27-4.39
						c-23.84-16.28-57.88-14.21-83.59-27.54c-11.16-5.78-21.2-15.85-20.75-27.06c0.4-9.86,11.28-17.62,23.17-18.43
						c14.42-0.98,27.85,8.11,30.37,19.34c0.45,1.99,3.33,1.27,4.65,0.42C1440.29,898.33,1441.39,896.12,1440.95,894.16
						L1440.95,894.16z"/>
				</g>
			</g>
			<g>
				<path class="st14" d="M1225.86,872.6c1.2,17.14-9.77,34.49-27.68,43.8c22.92-5.91,50.24,2.47,62.46,19.15
					c-9.28-17.14-1.81-39.11,17.03-50.05c-18.17,5.21-40.31-0.75-50.93-13.71"/>
				<g>
					<path d="M1222.1,874.28c0.89,15.24-8.06,30.21-23.98,38.66c-1.96,1.04-3.47,2.76-3.64,4.68c-0.12,1.33,0.69,3.1,2.83,2.57
						c22.42-5.58,48.01,2.41,60.11,18.55c2.32,3.09,8.11-3.3,6.86-5.68c-8.21-15.63-2.71-34.44,14.43-44.62
						c1.57-0.93,2.85-3.02,2.74-4.61c-0.08-1.2-1.11-2.58-2.88-2.1c-17.66,4.86-38.11-0.67-48.58-13.11
						c-2.56-3.04-8.77,3.63-6.47,6.35c11.44,13.58,34.01,19.62,53.28,14.32c-0.05-2.24-0.09-4.47-0.14-6.71
						c-20.59,12.23-29.69,36.35-19.63,55.49c2.29-1.89,4.57-3.79,6.86-5.68c-13-17.35-40.82-25.73-64.82-19.76
						c-0.27,2.42-0.54,4.83-0.81,7.25c20.04-10.63,32.5-29.56,31.37-48.95c-0.1-1.83-1.84-2.58-3.84-1.78
						C1223.69,869.97,1221.99,872.4,1222.1,874.28L1222.1,874.28z"/>
				</g>
			</g>
			<g>
				<path class="st15" d="M548.29,819.15c3.88,17.85-5.43,37.15-23.24,48.23c17.88-4.58,39.27,2.98,47.18,16.67
					c-1.55-15.88,7.6-32.18,23.44-41.73c-19.26,2.84-40.21-6.22-47.91-20.71"/>
				<g>
					<path d="M544.67,821.65c3.31,16.11-4.75,32.73-20.65,42.8c-1.55,0.98-2.85,2.99-2.74,4.61c0.08,1.24,1.1,2.53,2.88,2.1
						c17.42-4.25,36.97,2.93,44.82,16.06c0.83,1.38,3.33,0.36,4.26-0.25c1.55-1.03,2.88-2.96,2.74-4.61
						c-1.24-14.45,6.38-28.31,20.7-37.11c2.06-1.27,4.85-7.39-0.14-6.71c-18.1,2.48-37.71-5.87-45.17-19.43
						c-2.19-3.98-8.83,2.12-7.25,5.02c8.58,15.6,29.7,24.85,50.64,21.98c-0.05-2.24-0.09-4.47-0.14-6.71
						c-17.46,10.73-27.7,28.67-26.18,46.33c2.33-1.62,4.67-3.24,7-4.86c-8.63-14.41-30.61-21.89-49.53-17.27
						c0.05,2.24,0.09,4.47,0.14,6.71c19.83-12.56,29.95-33.67,25.85-53.67c-0.41-2-3.36-1.26-4.65-0.42
						C545.31,817.5,544.26,819.68,544.67,821.65L544.67,821.65z"/>
				</g>
			</g>
			<g>
				<path class="st11" d="M465.84,162.32c4.34,16.63-1.03,34.73-14.23,48c19.37-10.41,47.98-7.56,63.61,6.33
					c-14.28-13.09-14.28-34.77,0.01-47.86c-17.35,4.5-37.67,0.5-50.49-9.93"/>
				<g>
					<path d="M462.22,164.82c3.77,15.09-0.66,31.18-12.53,43.31c-1.15,1.17-2.35,3.13-1.7,4.69c0.54,1.29,2.26,1.71,3.7,0.96
						c18.59-9.75,45.2-7.07,60.3,6.04c3.24,2.81,9.08-3.9,6.47-6.35c-12.5-11.75-14.12-30.46-1.31-42.5
						c1.36-1.28,3.36-7.06-1.04-5.96c-16.68,4.15-35.66,0.59-48.14-9.33c-3.41-2.71-9.29,4.11-6.47,6.35
						c13.78,10.96,34.26,15.16,52.84,10.54c-0.35-1.99-0.69-3.97-1.04-5.96c-15.62,14.68-17.24,38.25-1.32,53.21
						c2.16-2.12,4.32-4.23,6.47-6.35c-16.87-14.65-46.11-17.54-66.93-6.62c0.67,1.88,1.33,3.77,2,5.65
						c14.49-14.82,20.56-34.16,15.93-52.69c-0.49-1.97-3.31-1.29-4.65-0.42C462.92,160.63,461.73,162.88,462.22,164.82
						L462.22,164.82z"/>
				</g>
			</g>
		</g>
	</g>
</g>
<g id="Ebene_3">
</g>
</svg>
