<?xml version="1.0" encoding="utf-8"?>
<!-- Generator: Adobe Adobe Illustrator 24.2.0, SVG Export Plug-In . SVG Version: 6.00 Build 0)  -->
<svg version="1.1" xmlns="http://www.w3.org/2000/svg" xmlns:xlink="http://www.w3.org/1999/xlink" x="0px" y="0px"
	 viewBox="0 0 1700.79 1700.79" style="enable-background:new 0 0 1700.79 1700.79;" xml:space="preserve">
<style type="text/css">
	.st0{fill:#305C82;}
	.st1{fill:#808E9C;}
	.st2{fill:#7F8E9C;stroke:#000000;stroke-width:16.166;stroke-miterlimit:10;}
	.st3{opacity:0.2196;}
	.st4{fill:#FFFFFF;}
	.st5{fill:#F3C158;}
	.st6{opacity:0.149;}
	.st7{fill:#C9316B;}
	.st8{fill:#F4F5E8;}
	.st9{fill:#6379B8;}
	.st10{fill:#F3C057;stroke:#000000;stroke-width:3.1269;stroke-miterlimit:10;}
	.st11{fill:#C8316B;}
</style>
<g id="Ebene_9">
	<g>
		<path class="st0" d="M204.49,438.62c35.62,307.91,65.97,616.42,91.02,925.37c105.67,29.72,218.95,16.03,325.26-11.28
			c106.32-27.3,208.99-67.87,315.94-92.57c171.48-39.61,352.5-37.27,522.9,6.77c-9.25-290.59-28.69-580.85-58.27-870.08
			c-2.64-25.8-6.14-53.44-23.41-72.78c-13.68-15.32-33.9-22.91-53.65-28.52c-122.8-34.89-254.87-13.75-376.83,23.97
			s-238.72,91.63-362.21,123.99s-258.58,41.76-375.78-8.84"/>
		<g>
			<path class="st0" d="M196.99,438.62c13.88,120.02,26.97,240.13,39.25,360.32c12.28,120.19,23.76,240.47,34.43,360.81
				c6.04,68.06,11.81,136.14,17.34,204.24c0.27,3.34,2.14,6.3,5.51,7.23c150.92,41.98,306.95-1.4,451.47-47.23
				c74.66-23.68,149.2-48.27,226.14-63.58c75.21-14.97,151.97-21.81,228.64-20.74c86.98,1.22,173.62,12.79,257.87,34.47
				c4.58,1.18,9.65-2.27,9.49-7.23c-4.8-150.28-12.29-300.46-22.52-450.47c-5.09-74.59-10.84-149.13-17.27-223.61
				c-3.21-37.24-6.6-74.47-10.15-111.68c-3.38-35.39-5.7-71.19-11.02-106.35c-4.58-30.3-16.72-57.52-44.58-72.85
				c-13.79-7.58-29.1-12.14-44.25-16.1c-16.37-4.28-32.98-7.6-49.72-10.03c-68.78-10-138.63-5.38-206.74,7.39
				c-140.28,26.29-270.12,87.78-405.14,131.64c-126.6,41.13-265.83,67.69-396.65,29.66c-15.58-4.53-30.92-9.94-45.83-16.33
				c-8.78-3.76-16.43,9.16-7.57,12.95c123.04,52.71,261.92,41.8,388.41,7.78c136.15-36.62,263.89-98.74,400.12-135.09
				c66.77-17.81,135.62-29.51,204.9-28.46c34.66,0.52,69.23,4.3,103,12.19c28.98,6.77,62.95,14.95,78.34,43.16
				c7.02,12.86,9.91,27.74,11.81,42.12c2.25,17,3.63,34.14,5.33,51.2c3.69,37.2,7.21,74.41,10.57,111.64
				c6.64,73.63,12.62,147.32,17.94,221.06c10.71,148.3,18.76,296.8,24.15,445.39c0.66,18.26,1.28,36.53,1.87,54.79
				c3.16-2.41,6.33-4.82,9.49-7.23c-148.96-38.32-305.42-45.23-457.21-20.47c-77.32,12.61-152.21,34.96-226.74,58.66
				c-73.65,23.41-147.34,47.65-223.39,62.13c-84.67,16.12-173.03,20.06-256.77-3.23c1.84,2.41,3.67,4.82,5.51,7.23
				c-9.77-120.42-20.33-240.78-31.71-361.06c-11.37-120.28-23.55-240.49-36.53-360.6c-7.34-67.93-14.94-135.83-22.79-203.7
				C210.89,429.14,195.88,429.03,196.99,438.62L196.99,438.62z"/>
		</g>
	</g>
</g>
<g id="Ebene_7">
	<g>
		<path class="st1" d="M63.65,347.57c0.5,14.71-0.96,47.61-0.46,62.32c33.16-9.1,65.77-15.31,102.29-14.86
			c-1.4-40.83-5.87-60.8-5.87-60.8s0.72-7.15-96.26,13.02"/>
		<g>
			<path d="M55.56,347.57c0.64,20.77-1.1,41.55-0.46,62.32c0.16,5.23,5.04,9.21,10.23,7.79c32.81-8.96,66.04-14.88,100.14-14.57
				c4.26,0.04,8.24-3.74,8.08-8.08c-0.68-18.95-1.98-37.95-5.01-56.68c-0.25-1.57-0.5-3.14-0.83-4.7c-0.2-0.99-0.67-3.71-0.03,0.58
				c-0.36-2.39-0.76-4.24-2.57-6.01c-3.02-2.96-7.62-3.23-11.59-3.29c-8.59-0.12-17.26,1.22-25.74,2.4
				c-22.35,3.11-44.52,7.56-66.6,12.14c-10.18,2.11-5.87,17.7,4.3,15.59c19.55-4.06,39.15-7.95,58.89-11
				c8.66-1.34,16.81-2.62,26.32-2.92c1.92-0.06,3.84,0.16,5.74,0.11c1.4-0.03-2.57-0.66-0.47-0.03c1.35,0.41,0.46,0.31-0.95-0.49
				c-2.09-1.18-2.48-3.56-3.49-6.49c0.6,1.74,0.73,4.33,1.05,6.16c3.01,17.22,4.16,36.26,4.82,54.64c2.69-2.69,5.39-5.39,8.08-8.08
				c-35.46-0.32-70.32,5.83-104.44,15.15c3.41,2.6,6.82,5.2,10.23,7.79c-0.64-20.77,1.1-41.55,0.46-62.32
				C71.41,337.19,55.24,337.15,55.56,347.57L55.56,347.57z"/>
		</g>
	</g>
	<g>
		<path class="st1" d="M85.71,406.34c27.24,423.33,55.64,854.18,82.88,1277.51c26.8-4.36,49.92-5.91,79.1,1.96
			c-33.09-422.61-60.12-863.36-93.21-1285.97"/>
		<g>
			<path d="M77.62,406.34c10.7,166.32,21.51,332.64,32.33,498.95c10.81,165.97,21.63,331.95,32.4,497.92
				c6.07,93.54,12.12,187.09,18.14,280.63c0.36,5.66,4.85,8.66,10.23,7.79c25.28-4.06,49.88-4.58,74.8,1.96
				c4.74,1.24,10.65-2.43,10.23-7.79c-6.49-82.89-12.7-165.8-18.74-248.73c-6.13-84.16-12.09-168.33-17.98-252.5
				c-5.89-84.05-11.71-168.11-17.59-252.16c-5.86-83.82-11.76-167.65-17.82-251.46c-6.04-83.47-12.23-166.93-18.69-250.38
				c-0.79-10.25-1.59-20.5-2.39-30.74c-0.81-10.3-16.98-10.39-16.17,0c6.49,82.89,12.7,165.8,18.74,248.73
				c6.13,84.16,12.09,168.33,17.98,252.5c5.89,84.05,11.71,168.11,17.59,252.16c5.86,83.82,11.76,167.65,17.82,251.46
				c6.04,83.47,12.23,166.93,18.69,250.38c0.79,10.25,1.59,20.5,2.39,30.74c3.41-2.6,6.82-5.2,10.23-7.79
				c-27.85-7.31-55.19-6.49-83.39-1.96c3.41,2.6,6.82,5.2,10.23,7.79c-10.7-166.32-21.51-332.64-32.33-498.95
				c-10.81-165.97-21.63-331.95-32.4-497.92c-6.07-93.54-12.12-187.09-18.14-280.63C93.12,396.01,76.95,395.93,77.62,406.34
				L77.62,406.34z"/>
		</g>
	</g>
	<g>
		<g>
			<path d="M86.69,315.87c2.66,8.47,1.42,17.7,4.09,26.2c3.1,9.89,18.71,5.67,15.59-4.3c-2.66-8.47-1.42-17.7-4.09-26.2
				C99.18,301.68,83.57,305.9,86.69,315.87L86.69,315.87z"/>
		</g>
	</g>
	<g>
		<g>
			<path d="M114.84,312.63c0.34,2.08,0.19,4.45-0.05,6.83c-0.35,3.37,0.11,6.64,0.66,9.97c0.71,4.31,6.05,6.72,9.94,5.65
				c4.57-1.26,6.36-5.62,5.65-9.94c-0.34-2.08-0.19-4.45,0.05-6.83c0.35-3.37-0.11-6.64-0.66-9.97c-0.71-4.31-6.05-6.72-9.94-5.65
				C115.91,303.94,114.12,308.3,114.84,312.63L114.84,312.63z"/>
		</g>
	</g>
	<g>
		<g>
			<path d="M163.65,408.81c67.65,41.07,145.96,59.99,224.57,62.92c80.73,3.01,161.29-10.24,238.88-31.81
				c86.53-24.07,170.03-57.46,254.66-87.24c80.93-28.48,164.43-54.98,250.02-64.69c38.13-4.33,76.92-5,115,0.26
				c39.54,5.47,78.18,17.13,114.36,33.96c9.81,4.56,19.43,9.48,28.92,14.67c9.13,4.99,17.3-8.96,8.16-13.96
				c-36.2-19.78-74.78-35.36-115.08-44.42c-37.5-8.43-76.1-11.35-114.47-9.63c-84.15,3.78-167.19,26.74-246.76,53.03
				c-85.23,28.15-168.44,62.12-254.08,89.06c-78.58,24.72-159.32,42.92-241.97,44.85c-78.3,1.84-158.12-10.76-228.4-46.62
				c-8.73-4.45-17.27-9.25-25.65-14.34C162.89,389.44,154.76,403.41,163.65,408.81L163.65,408.81z"/>
		</g>
	</g>
	<g>
		<g>
			<path d="M218.52,1356.18c69.6,34.1,149.01,43.17,225.68,39.22c81.65-4.21,160.15-24.69,237.67-49.55
				c84.78-27.19,168.55-57.44,256.24-74.14c82.34-15.68,166.03-21.95,249.79-19.17c84.44,2.8,168.31,14.05,251.73,26.86
				c11.29,1.74,22.58,3.5,33.87,5.29c10.18,1.61,14.56-13.97,4.3-15.59c-84.4-13.33-169.12-25.99-254.48-31.08
				c-82.31-4.9-164.72-1.75-246.26,10.68c-43.84,6.68-87.22,15.85-129.95,27.75c-42.37,11.8-84.1,25.74-125.85,39.54
				c-78.65,25.99-157.93,51.63-240.67,60.38c-76.33,8.07-156.27,4.7-228.58-23.04c-8.62-3.31-17.05-7.03-25.34-11.09
				C217.38,1337.66,209.17,1351.6,218.52,1356.18L218.52,1356.18z"/>
		</g>
	</g>
	<g>
		<g>
			<path d="M183.54,424.82c12.41,123.37,24.81,246.75,37.22,370.12c12.34,122.71,24.68,245.42,37.02,368.13
				c6.94,68.98,13.87,137.97,20.81,206.95c0.44,4.34,3.4,8.08,8.08,8.08c4.03,0,8.52-3.71,8.08-8.08
				c-12.41-123.37-24.81-246.75-37.22-370.12c-12.34-122.71-24.68-245.42-37.02-368.13c-6.94-68.98-13.87-137.97-20.81-206.95
				c-0.44-4.34-3.4-8.08-8.08-8.08C187.59,416.73,183.1,420.45,183.54,424.82L183.54,424.82z"/>
		</g>
	</g>
	
		<ellipse transform="matrix(0.3332 -0.9429 0.9429 0.3332 -172.859 265.3029)" class="st2" cx="101.14" cy="254.86" rx="58.7" ry="60.91"/>
	<g>
		<g>
			<path d="M109.12,333.68c2.07-0.39,4.15-0.77,6.22-1.16c1.89-0.35,3.89-2.11,4.83-3.71c1.01-1.73,1.44-4.29,0.81-6.23
				c-0.63-1.96-1.84-3.84-3.71-4.83c-2.01-1.06-3.99-1.23-6.23-0.81c-2.07,0.39-4.15,0.77-6.22,1.16c-1.89,0.35-3.89,2.11-4.83,3.71
				c-1.01,1.73-1.44,4.29-0.81,6.23c0.63,1.96,1.84,3.84,3.71,4.83C104.9,333.93,106.88,334.1,109.12,333.68L109.12,333.68z"/>
		</g>
	</g>
	<g class="st3">
		<path d="M196.55,419.4c0,0-165.24,906.03,1273.27,794.87c4.54,21.81-0.62,38.51,5.84,62.62
			c-132.47-22.04-169.6-32.45-286.62-28.01s-242.81-10.18-350.94,32.15c-206.02,80.66-384.27,93.86-449.97,102
			c-20.47,2.54-85.1-0.11-101.47-13.01c-17-13.4,53.85,148.93-95.05-945.21"/>
		<g>
			<path d="M188.76,417.25c-1.58,8.68-2.52,17.52-3.37,26.29c-2.12,21.82-2.89,43.77-2.64,65.68c0.36,32.59,3.11,65.12,7.96,97.35
				c5.92,39.35,15.26,78.19,28.11,115.85c14.93,43.74,34.5,85.94,58.61,125.38c27.66,45.24,61.22,86.9,99.28,123.8
				c44.41,43.06,94.88,79.77,148.65,110.26c65.88,37.35,136.75,65.64,209.31,87.05c90.44,26.68,183.8,42.8,277.54,52.24
				c118.93,11.98,238.83,13.01,358.16,7.4c33.18-1.56,66.34-3.66,99.46-6.21c-2.6-1.98-5.2-3.96-7.79-5.93
				c4.05,20.76,0.56,41.89,5.84,62.62c3.31-3.31,6.63-6.63,9.94-9.94c-58.68-9.78-117.35-21.85-176.72-26.81
				c-63.05-5.27-126.38-0.38-189.54-0.52c-72.02-0.15-145.01-1.44-215.82,13.74c-37,7.93-71.4,22.76-106.97,35.24
				c-35.49,12.45-71.47,23.5-107.8,33.2c-96.35,25.72-194.64,40.5-293.65,51.1c-22.08,2.36-45.62,0.76-67.47-2.81
				c-9.38-1.53-19.49-3.25-27.73-8.21c-2.51-1.51,3.94,1.83-1.53-1.1c-0.07-0.04-0.12-0.1-0.19-0.14c-0.16-0.08-0.3-0.2-0.45-0.28
				c-4.43-2.51-10.18-1.58-12.9,2.97c-5.12,8.59,5.89,19.31,13.72,11.57c5.32-5.26,5.16-16.04,5.64-22.77
				c1.53-21.28,0.68-42.79-0.18-64.08c-1.88-46.39-5.58-92.71-9.67-138.96c-7.13-80.7-15.86-161.25-25.15-241.72
				C247,784.46,231.07,659.58,214.5,534.79c-4.97-37.38-10-74.76-15.08-112.13c-0.59-4.36-6.13-6.65-9.94-5.65
				c-4.68,1.23-6.23,5.64-5.65,9.94c18.23,134,35.81,268.09,51.97,402.35c10.72,89.05,20.88,178.18,29.55,267.46
				c5.22,53.81,10.01,107.7,13.14,161.67c1.59,27.38,3,54.9,2.36,82.34c-0.15,6.4-0.47,12.79-1.11,19.16
				c-0.06,0.56-0.14,1.12-0.2,1.68c-0.17,1.73,0.49-2.74,0.06-0.51c-0.16,0.82-0.25,1.65-0.42,2.47c-0.23,1.17-0.7,2.35-0.88,3.52
				c-0.29,1.89,1.37-2.12-0.05-0.09c1.4-2,3.24-3.52,6.21-3.5c2.97,0.02,5.45,1.84,6.47,3.54c0.58,0.97,0.96,3.12,0.96,3.21
				c0.08,4.16-4.22,7.85-9.02,6.68c1.55,0.38-2.8-1.17-0.44-0.08c-3.61-1.67-0.42-0.24,0.82,0.62c1.56,1.08,3.21,1.97,4.93,2.77
				c4.66,2.17,9.57,3.74,14.55,4.98c12.14,3.01,24.73,4.49,37.18,5.51c36.07,2.97,71.31-2.11,107.06-6.42
				c51.73-6.23,103.24-14.24,154.26-24.87c69.05-14.39,137.18-33.36,203.54-57.3c33.79-12.19,66.46-25.39,101.84-32.44
				c34.88-6.94,70.43-9.76,105.93-10.99c36.06-1.25,72.14-0.82,108.21-0.8c34.6,0.02,69.13-1.48,103.72-1.91
				c52.06-0.64,103.18,4.23,154.51,12.64c31.54,5.17,63.01,10.76,94.54,16.01c5.98,1,11.58-3.53,9.94-9.94
				c-5.25-20.58-1.79-41.85-5.84-62.62c-0.63-3.23-4.48-6.19-7.79-5.93c-125.46,9.66-251.63,12.86-377.3,5.25
				c-98.64-5.98-197.1-18.67-293.22-41.94c-76.17-18.44-151.01-43.52-221.41-78.14c-57.15-28.1-111.57-62.54-159.56-103.66
				c-21.36-18.3-41.57-37.93-60.39-58.84c-17.68-19.64-32.49-38.31-47.3-59.66c-13.89-20.02-26.58-40.88-37.98-62.41
				c-5.37-10.15-10.46-20.45-15.26-30.88c-5.12-11.13-8.26-18.5-12.55-29.37c-15.11-38.23-26.47-77.92-34.14-118.3
				c-1.71-8.99-3.24-18.01-4.58-27.05c-0.33-2.19-0.64-4.39-0.95-6.58c-0.13-0.91-0.25-1.81-0.37-2.72
				c0.34,2.54-0.19-1.47-0.28-2.17c-0.55-4.24-1.05-8.49-1.52-12.75c-1.74-15.89-2.94-31.84-3.59-47.82
				c-0.98-24.37-0.71-48.81,1.07-73.14c0.56-7.69,1.28-15.37,2.21-23.03c0.16-1.35,0.35-2.7,0.51-4.06
				c0.27-2.17-0.36,2.46-0.05,0.38c0.08-0.57,0.16-1.15,0.24-1.72c0.22-1.51,0.45-3.01,0.69-4.51c0.08-0.5,0.16-1,0.25-1.5
				C206.2,411.38,190.62,407.02,188.76,417.25L188.76,417.25z"/>
		</g>
	</g>
	<g class="st3">
		<path d="M81.55,206.15c-11.24,37.14,2.91,81,34.08,105.64c-25.89-0.53-51.08-17.31-61.52-40.97s-5.51-52.86,12.02-71.29"/>
		<g>
			<path d="M73.76,204c-11.92,40.63,3.25,87.06,36.16,113.5c1.91-4.6,3.81-9.2,5.72-13.8c-22.76-0.74-44.35-14.94-53.93-35.64
				c-9.48-20.49-5.13-46.36,10.15-62.83c7.07-7.62-4.34-19.08-11.43-11.43c-20.09,21.66-25.37,54.13-13.28,81.09
				c11.88,26.48,39.75,44.05,68.49,44.97c6.55,0.21,11.28-9.33,5.72-13.8c-28.63-23.01-42.45-62.18-32-97.78
				C92.28,198.29,76.68,194.02,73.76,204L73.76,204z"/>
		</g>
	</g>
	<g class="st3">
		<path d="M79.34,362.46c24.66,13.51,52.95,20.26,80.82,19.3c-23.46,4.06-46.91,8.13-70.37,12.19c-4.51,0.78-9.28,1.54-13.64-0.04
			c-6.82-2.48-10.58-10.2-10.58-17.33c0-7.13,2.94-13.83,5.84-20.29"/>
		<g>
			<path d="M75.26,369.44c26.02,14.06,55.31,21.25,84.9,20.4c-0.72-5.29-1.43-10.58-2.15-15.88c-20.52,3.56-41.05,7.11-61.57,10.67
				c-6.31,1.09-17.05,5.3-21.15-1.72c-4.11-7.02,0.16-15.93,3.11-22.54c1.78-3.98,1.16-8.69-2.9-11.06
				c-3.45-2.02-9.27-1.11-11.06,2.9c-4.62,10.37-9.29,21.77-5.57,33.2c3.59,11.05,13.14,18.18,24.91,17.43
				c12.82-0.81,25.81-4.16,38.46-6.35c13.36-2.31,26.71-4.63,40.07-6.94c9.03-1.56,6.85-16.14-2.15-15.88
				c-26.78,0.77-53.16-5.45-76.74-18.19C74.26,350.53,66.09,364.49,75.26,369.44L75.26,369.44z"/>
		</g>
	</g>
	<g class="st3">
		<path d="M103.77,408.75c24.1,255.69,48.21,511.37,72.31,767.06c15.98,169.51,32.04,339.57,69.72,506.18
			c-20.91,10.96-48.56-2.48-61.32-22.75c-12.76-20.27-14.52-45.03-15.93-68.65c-23.51-394.67-47.02-789.35-70.54-1184.02"/>
		<g>
			<path d="M95.69,408.75c15.83,167.93,31.66,335.85,47.49,503.78c7.88,83.54,15.75,167.08,23.63,250.62
				c7.73,82,15.35,164.03,25.3,245.8c11.24,92.35,25.43,184.4,45.89,275.19c1.24-3.04,2.48-6.09,3.71-9.13
				c-13.24,6.52-29.19,0.82-39.85-8.12c-13.72-11.52-19.52-28.9-22.39-46.05c-3.28-19.56-3.42-39.76-4.59-59.52
				c-1.31-22.07-2.63-44.14-3.94-66.2c-5.23-87.85-10.47-175.69-15.7-263.54c-5.26-88.27-10.52-176.54-15.78-264.81
				c-5.23-87.85-10.47-175.69-15.7-263.54c-5.23-87.85-10.47-175.69-15.7-263.54c-0.66-11.03-1.31-22.07-1.97-33.1
				c-0.62-10.34-16.79-10.41-16.17,0c5.41,90.82,10.82,181.63,16.23,272.45c5.39,90.39,10.77,180.79,16.16,271.18
				s10.77,180.79,16.16,271.18c5.41,90.82,10.82,181.63,16.23,272.45c1.34,22.49,2.68,44.98,4.02,67.48
				c1.24,20.89,1.67,42.05,5,62.75c2.86,17.81,9.04,35.88,21.53,49.31c10.75,11.55,25.96,19.65,41.84,20.55
				c7.99,0.45,15.65-1.44,22.79-4.95c3.29-1.62,4.46-5.81,3.71-9.13c-36.27-160.89-52.55-325.22-68.02-489.14
				c-15.76-166.98-31.48-333.96-47.22-500.94c-8.83-93.67-17.66-187.34-26.49-281C110.88,398.49,94.71,398.38,95.69,408.75
				L95.69,408.75z"/>
		</g>
	</g>
	<g class="st3">
		<g>
			<path class="st4" d="M1331.61,411.82c4.32,83.78,8.65,167.55,12.97,251.33s8.65,167.55,12.97,251.33
				c2.44,47.21,4.87,94.41,7.31,141.62c0.73,14.05,11.87,27.62,26.94,26.94c13.98-0.63,27.72-11.87,26.94-26.94
				c-4.32-83.78-8.65-167.55-12.97-251.33s-8.65-167.55-12.97-251.33c-2.44-47.21-4.87-94.41-7.31-141.62
				c-0.73-14.05-11.87-27.62-26.94-26.94C1344.58,385.5,1330.84,396.74,1331.61,411.82L1331.61,411.82z"/>
		</g>
	</g>
	<g class="st3">
		<g>
			<path class="st4" d="M113.91,262.41c14.09,0,27.6-12.39,26.94-26.94c-0.65-14.6-11.84-26.94-26.94-26.94
				c-14.09,0-27.6,12.39-26.94,26.94C87.62,250.07,98.81,262.41,113.91,262.41L113.91,262.41z"/>
		</g>
	</g>
	<g class="st3">
		<g>
			<path class="st4" d="M107.62,433.32c0.07,6.1,0.13,12.2,0.2,18.3c0.15,14.09,12.28,27.6,26.94,26.94
				c14.47-0.65,27.11-11.84,26.94-26.94c-0.07-6.1-0.13-12.2-0.2-18.3c-0.15-14.09-12.28-27.6-26.94-26.94
				C120.09,407.03,107.45,418.22,107.62,433.32L107.62,433.32z"/>
		</g>
	</g>
</g>
<g id="Ebene_13">
	<g>
		<g>
			<path d="M1386.65,329.9c11.69,122.99,22.09,246.1,32.22,369.23c10.2,123.92,20.12,247.87,30.75,371.76
				c5.9,68.69,12.02,137.37,18.54,206c0.91,9.53,15.91,9.62,15,0c-11.69-122.99-22.09-246.1-32.22-369.23
				c-10.2-123.92-20.12-247.87-30.75-371.76c-5.9-68.69-12.02-137.37-18.54-206C1400.74,320.37,1385.73,320.28,1386.65,329.9
				L1386.65,329.9z"/>
		</g>
	</g>
</g>
<g id="Ebene_11">
	<g>
		<path class="st5" d="M952.78,577.9c-6.49,15.33-12.98,30.67-19.47,46c16.77-11.5,33.55-23.01,50.32-34.51
			c-18.51,1.63-37.03,3.25-55.54,4.88c15.99,16.91,37.17,28.84,59.92,33.74c-16.57-13.91-29.27-32.38-36.35-52.82"/>
		<g>
			<path class="st5" d="M946.31,574.12c-6.49,15.33-12.98,30.67-19.47,46c-1.32,3.13-1.4,6.52,1.17,9.09
				c2.23,2.23,6.37,3.04,9.09,1.17c16.77-11.5,33.55-23.01,50.32-34.51c5.56-3.81,4.25-14.68-3.79-13.98
				c-18.51,1.63-37.03,3.25-55.54,4.88c-6.35,0.56-10.05,7.85-5.3,12.8c17.07,17.79,39.16,30.3,63.23,35.67
				c6.75,1.51,13.38-7.36,7.3-12.54c-15.59-13.28-27.57-30.17-34.42-49.51c-3.2-9.04-17.7-5.15-14.46,3.99
				c7.69,21.73,20.7,41.16,38.28,56.13c2.43-4.18,4.86-8.36,7.3-12.54c-21.71-4.84-41.2-15.75-56.61-31.81
				c-1.77,4.27-3.54,8.54-5.3,12.8c18.51-1.63,37.03-3.25,55.54-4.88c-1.26-4.66-2.52-9.32-3.79-13.98
				c-16.77,11.5-33.55,23.01-50.32,34.51c3.42,3.42,6.84,6.84,10.26,10.26c6.49-15.33,12.98-30.67,19.47-46
				c1.59-3.76,1.1-7.99-2.69-10.26C953.44,569.55,947.89,570.39,946.31,574.12L946.31,574.12z"/>
		</g>
	</g>
	<g>
		<path class="st5" d="M818.08,552.81c-6.97,17.15-13.93,34.3-20.9,51.45c17.44-12.73,34.89-25.46,52.33-38.2
			c-20.86,1.01-41.72,2.02-62.57,3.03c21.72,10.81,43.43,21.62,65.15,32.43c-14.32-14.36-25.93-31.43-34.01-50.03"/>
		<g>
			<path class="st5" d="M810.85,550.82c-6.97,17.15-13.93,34.3-20.9,51.45c-2.4,5.9,5.92,12.19,11.02,8.47
				c17.44-12.73,34.89-25.47,52.33-38.2c5.49-4.01,4.34-14.37-3.79-13.98c-20.86,1.01-41.72,2.02-62.57,3.03
				c-6.93,0.34-10.85,10.46-3.79,13.98c21.72,10.81,43.43,21.62,65.15,32.43c7.42,3.69,15.31-5.47,9.09-11.78
				c-13.89-14.08-24.86-30.42-32.84-48.51c-1.65-3.74-7.03-4.53-10.26-2.69c-3.85,2.19-4.32,6.58-2.69,10.26
				c8.46,19.19,20.45,36.62,35.19,51.55c3.03-3.93,6.06-7.85,9.09-11.78c-21.72-10.81-43.43-21.62-65.15-32.43
				c-1.26,4.66-2.52,9.32-3.79,13.98c20.86-1.01,41.72-2.02,62.57-3.03c-1.26-4.66-2.52-9.32-3.79-13.98
				c-17.44,12.73-34.89,25.47-52.33,38.2c3.67,2.82,7.34,5.65,11.02,8.47c6.97-17.15,13.93-34.3,20.9-51.45
				c1.54-3.78-1.67-8.21-5.24-9.23C815.8,544.36,812.36,547.08,810.85,550.82L810.85,550.82z"/>
		</g>
	</g>
	<g>
		<path class="st5" d="M694.55,602.06c-7.68,16.61-15.37,33.21-23.05,49.82c18.58-9.27,35.51-21.85,49.76-36.97
			c-18.36,1.62-36.71,3.24-55.07,4.87c17.58,12.8,37.35,22.58,58.19,28.81c-9.26-15.2-18.53-30.4-27.79-45.59"/>
		<g>
			<path class="st5" d="M688.08,598.27c-7.68,16.61-15.37,33.21-23.05,49.82c-3.14,6.79,3.28,13.79,10.26,10.26
				c19.13-9.67,36.5-22.61,51.27-38.14c4.14-4.35,1.49-13.4-5.3-12.8c-18.36,1.62-36.71,3.24-55.07,4.87
				c-7.61,0.67-9.94,9.54-3.79,13.98c18.21,13.13,38.5,23.04,59.98,29.57c6.24,1.9,11.84-5.49,8.47-11.02
				c-9.26-15.2-18.53-30.4-27.79-45.59c-5.02-8.23-18-0.7-12.95,7.57c9.26,15.2,18.53,30.4,27.79,45.59
				c2.82-3.67,5.65-7.34,8.47-11.02c-20.29-6.17-39.19-15.66-56.4-28.06c-1.26,4.66-2.52,9.32-3.79,13.98
				c18.36-1.62,36.71-3.24,55.07-4.87c-1.77-4.27-3.54-8.54-5.3-12.8c-13.97,14.69-30.14,26.65-48.24,35.8
				c3.42,3.42,6.84,6.84,10.26,10.26c7.68-16.61,15.37-33.21,23.05-49.82C705.06,597.14,692.13,589.51,688.08,598.27L688.08,598.27z
				"/>
		</g>
	</g>
	<g>
		<path class="st5" d="M589.77,691.62c-13.08,14.62-22,32.92-25.47,52.23c18.89-13.06,37.79-26.11,56.68-39.17
			c-21.83,1.1-43.65,2.2-65.48,3.29c21.74,11.12,43.47,22.23,65.21,33.35c-9.93-15.74-19.85-31.47-29.78-47.21"/>
		<g>
			<path class="st5" d="M584.46,686.32c-13.9,15.8-23.5,34.82-27.4,55.54c-1.09,5.82,5.16,12.51,11.02,8.47
				c18.89-13.06,37.79-26.11,56.68-39.17c5.68-3.92,4.2-14.38-3.79-13.98c-21.83,1.1-43.65,2.2-65.48,3.29
				c-6.97,0.35-10.8,10.39-3.79,13.98c21.74,11.12,43.47,22.23,65.21,33.35c6.34,3.24,14.49-3.56,10.26-10.26
				c-9.93-15.74-19.85-31.47-29.78-47.21c-5.14-8.14-18.12-0.63-12.95,7.57c9.93,15.74,19.85,31.47,29.78,47.21
				c3.42-3.42,6.84-6.84,10.26-10.26c-21.74-11.12-43.47-22.23-65.21-33.35c-1.26,4.66-2.52,9.32-3.79,13.98
				c21.83-1.1,43.65-2.19,65.48-3.29c-1.26-4.66-2.52-9.32-3.79-13.98c-18.89,13.06-37.79,26.11-56.68,39.17
				c3.67,2.82,7.35,5.65,11.02,8.47c3.41-18.16,11.31-35.02,23.54-48.92C601.43,689.7,590.86,679.06,584.46,686.32L584.46,686.32z"
				/>
		</g>
	</g>
	<g>
		<path class="st5" d="M563.27,817.03c-12.84,12.19-21.69,28.51-24.91,45.92c17.46-8,33.39-19.34,46.66-33.22
			c-17.75,1.55-35.51,3.1-53.26,4.65c17.17,13.51,37.34,23.19,58.62,28.13c-9.28-14.17-18.56-28.33-27.84-42.5"/>
		<g>
			<path class="st5" d="M557.97,811.72c-13.71,13.27-23.18,30.49-26.84,49.23c-1.31,6.7,4.97,11.28,11.02,8.47
				c18.03-8.39,34.36-20.1,48.18-34.39c4.19-4.33,1.46-13.39-5.3-12.8c-17.75,1.55-35.51,3.1-53.26,4.65
				c-5.62,0.49-10.97,8.4-5.3,12.8c18.39,14.3,39.23,24.65,61.93,30.06c6.02,1.43,12.22-5.3,8.47-11.02
				c-9.28-14.17-18.56-28.33-27.84-42.5c-5.27-8.04-18.26-0.54-12.95,7.57c9.28,14.17,18.56,28.33,27.84,42.5
				c2.82-3.67,5.65-7.34,8.47-11.02c-20.04-4.77-39.02-13.52-55.31-26.2c-1.77,4.27-3.54,8.54-5.3,12.8
				c17.75-1.55,35.51-3.1,53.26-4.65c-1.77-4.27-3.54-8.54-5.3-12.8c-13.01,13.45-28.18,24.15-45.14,32.04
				c3.67,2.82,7.34,5.65,11.02,8.47c3.2-16.39,10.98-30.98,22.99-42.61C575.52,815.6,564.91,805,557.97,811.72L557.97,811.72z"/>
		</g>
	</g>
	<g>
		<path class="st5" d="M615.04,926.02c-9.36,16.89-18.71,33.77-28.07,50.66c16.94-13.85,33.87-27.7,50.81-41.56
			c-20.01,1.87-40.01,3.74-60.02,5.61c20.72,9.68,41.45,19.37,62.17,29.05c-7.62-15.25-15.23-30.5-22.85-45.74"/>
		<g>
			<path class="st5" d="M608.57,922.23c-9.36,16.89-18.71,33.77-28.07,50.66c-4.33,7.81,5.38,14.32,11.78,9.09
				c16.93-13.85,33.87-27.7,50.81-41.56c4.88-4,0.98-13.39-5.3-12.8c-20.01,1.87-40.01,3.74-60.02,5.61
				c-6.6,0.62-11.21,10.51-3.79,13.98c20.72,9.68,41.45,19.37,62.17,29.05c6.81,3.18,13.74-3.3,10.26-10.26
				c-7.62-15.25-15.23-30.5-22.85-45.74c-4.31-8.64-17.26-1.05-12.95,7.57c7.62,15.25,15.23,30.5,22.85,45.74
				c3.42-3.42,6.84-6.84,10.26-10.26c-20.72-9.68-41.45-19.37-62.17-29.05c-1.26,4.66-2.52,9.32-3.79,13.98
				c20.01-1.87,40.01-3.74,60.02-5.61c-1.77-4.27-3.54-8.54-5.3-12.8c-16.94,13.85-33.87,27.7-50.81,41.56
				c3.93,3.03,7.85,6.06,11.78,9.09c9.36-16.89,18.71-33.77,28.07-50.66C626.2,921.35,613.25,913.78,608.57,922.23L608.57,922.23z"
				/>
		</g>
	</g>
	<g>
		<path class="st5" d="M732.24,1005.79c-11.49,13.71-19.56,30.25-23.29,47.74c17.37-12.71,34.75-25.43,52.12-38.14
			c-18,1.97-36.01,3.94-54.01,5.92c14.42,9.94,30.44,17.57,47.25,22.5c-8.6-13.32-17.19-26.64-25.79-39.96"/>
		<g>
			<path class="st5" d="M726.93,1000.49c-12.29,14.9-21.03,32.15-25.22,51.05c-1.28,5.75,5.35,12.62,11.02,8.47
				c17.37-12.71,34.75-25.42,52.12-38.14c2.7-1.98,4.43-5.04,3.45-8.47c-0.84-2.93-3.98-5.86-7.23-5.51
				c-18,1.97-36.01,3.94-54.01,5.92c-7.37,0.81-10.24,9.58-3.79,13.98c15.05,10.25,31.6,18.04,49.04,23.25
				c6.12,1.83,12.03-5.5,8.47-11.02c-8.6-13.32-17.19-26.64-25.79-39.96c-5.22-8.08-18.21-0.57-12.95,7.57
				c8.6,13.32,17.19,26.64,25.79,39.96c2.82-3.67,5.65-7.34,8.47-11.02c-16.26-4.87-31.43-12.19-45.46-21.74
				c-1.26,4.66-2.52,9.32-3.79,13.98c18-1.97,36.01-3.94,54.01-5.92c-1.26-4.66-2.52-9.32-3.79-13.98
				c-17.37,12.71-34.75,25.42-52.12,38.14c3.67,2.82,7.35,5.65,11.02,8.47c3.61-16.29,10.72-31.53,21.37-44.43
				c2.6-3.15,3.02-7.52,0-10.61C734.91,997.81,729.5,997.37,726.93,1000.49L726.93,1000.49z"/>
		</g>
	</g>
	<g>
		<path class="st5" d="M864.06,1025.48c-8.31,16.54-16.63,33.08-24.94,49.62c17.02-12.19,34.03-24.38,51.05-36.57
			c-19.48,1.39-38.96,2.79-58.44,4.18c17.58,11.55,36.66,20.8,56.61,27.47c-8.01-14.86-16.02-29.71-24.03-44.57"/>
		<g>
			<path class="st5" d="M857.58,1021.69c-8.31,16.54-16.63,33.08-24.94,49.62c-3.06,6.09,3.66,14.99,10.26,10.26
				c17.02-12.19,34.03-24.38,51.05-36.57c5.47-3.92,4.34-14.56-3.79-13.98c-19.48,1.39-38.96,2.79-58.44,4.18
				c-7.42,0.53-10.21,9.79-3.79,13.98c18.2,11.86,37.83,21.27,58.4,28.22c6.49,2.2,11.4-5.57,8.47-11.02
				c-8.01-14.86-16.02-29.71-24.03-44.57c-4.58-8.5-17.54-0.93-12.95,7.57c8.01,14.86,16.02,29.71,24.03,44.57
				c2.82-3.67,5.65-7.34,8.47-11.02c-19.37-6.55-37.68-15.55-54.81-26.71c-1.26,4.66-2.52,9.32-3.79,13.98
				c19.48-1.39,38.96-2.79,58.44-4.18c-1.26-4.66-2.52-9.32-3.79-13.98c-17.02,12.19-34.03,24.38-51.05,36.57
				c3.42,3.42,6.84,6.84,10.26,10.26c8.31-16.54,16.63-33.08,24.94-49.62C874.86,1020.66,861.92,1013.06,857.58,1021.69
				L857.58,1021.69z"/>
		</g>
	</g>
	<g>
		<path class="st5" d="M996.86,975.06c-7.66,17.64-15.32,35.29-22.98,52.93c17.49-12.25,34.98-24.5,52.47-36.75
			c-20.28-2.75-41.27-0.09-60.24,7.62c17.96,7.1,35.93,14.19,53.89,21.29c-4.8-14.91-9.59-29.82-14.39-44.73"/>
		<g>
			<path class="st5" d="M990.38,971.27c-7.66,17.64-15.32,35.29-22.98,52.93c-1.35,3.11-1.38,6.53,1.17,9.09
				c2.22,2.22,6.39,3.06,9.09,1.17c17.49-12.25,34.98-24.5,52.47-36.75c6.43-4.5,3.59-13.04-3.79-13.98
				c-21.02-2.68-42.54,0.06-62.23,7.89c-7.07,2.81-7.1,11.66,0,14.46c17.96,7.1,35.93,14.19,53.89,21.29
				c5.33,2.11,10.86-4.15,9.23-9.23c-4.8-14.91-9.59-29.82-14.39-44.73c-2.94-9.15-17.43-5.24-14.46,3.99
				c4.8,14.91,9.59,29.82,14.39,44.73c3.08-3.08,6.15-6.15,9.23-9.23c-17.96-7.1-35.93-14.19-53.89-21.29c0,4.82,0,9.64,0,14.46
				c18.65-7.41,38.34-9.89,58.24-7.35c-1.26-4.66-2.52-9.32-3.79-13.98c-17.49,12.25-34.98,24.5-52.47,36.75
				c3.42,3.42,6.84,6.84,10.26,10.26c7.66-17.64,15.32-35.29,22.98-52.93c1.62-3.74,1.07-8.01-2.69-10.26
				C997.49,966.69,991.99,967.56,990.38,971.27L990.38,971.27z"/>
		</g>
	</g>
	<g>
		<path class="st5" d="M1088.89,883c-6.34,16.56-12.68,33.12-19.03,49.68c17.32-11.79,34.64-23.59,51.95-35.38
			c-20-3.24-40.68-2.27-60.29,2.84c16.35,12.26,35.68,20.53,55.84,23.89c-9.08-14.13-18.15-28.26-27.23-42.39"/>
		<g>
			<path class="st5" d="M1081.66,881.01c-6.34,16.56-12.68,33.12-19.03,49.68c-2.31,6.03,5.81,12.02,11.02,8.47
				c17.32-11.79,34.64-23.59,51.95-35.38c4.72-3.21,5.14-12.63-1.79-13.71c-21.53-3.34-43.13-2.52-64.28,2.84
				c-6.81,1.73-6.67,10.1-1.79,13.71c16.99,12.56,36.81,21.03,57.63,24.65c5.97,1.04,12.31-5.04,8.47-11.02
				c-9.08-14.13-18.15-28.26-27.23-42.39c-5.2-8.1-18.19-0.58-12.95,7.57c9.08,14.13,18.15,28.26,27.23,42.39
				c2.82-3.67,5.65-7.34,8.47-11.02c-19.73-3.43-37.94-11.23-54.04-23.13c-0.6,4.57-1.19,9.14-1.79,13.71
				c18.38-4.66,37.54-5.76,56.3-2.84c-0.6-4.57-1.19-9.14-1.79-13.71c-17.32,11.79-34.64,23.59-51.95,35.38
				c3.67,2.82,7.34,5.65,11.02,8.47c6.34-16.56,12.68-33.12,19.03-49.68C1099.58,875.98,1085.08,872.07,1081.66,881.01
				L1081.66,881.01z"/>
		</g>
	</g>
	<g>
		<path class="st5" d="M1119.19,768.08c-5.99,14.1-11.97,28.2-17.96,42.3c15.29-11.75,30.57-23.49,45.86-35.24
			c-19.31,2.8-38.62,5.6-57.93,8.39c20.32,7.46,40.65,14.92,60.97,22.38c-9.93-13.45-19.85-26.89-29.78-40.34"/>
		<g>
			<path class="st5" d="M1112.71,764.29c-5.99,14.1-11.97,28.2-17.96,42.3c-1.33,3.13-1.39,6.52,1.17,9.09
				c2.15,2.15,6.49,3.17,9.09,1.17c15.29-11.75,30.57-23.49,45.86-35.24c6.86-5.27,2.86-14.96-5.78-13.71
				c-19.31,2.8-38.62,5.6-57.93,8.39c-8.07,1.17-6.1,12.22,0,14.46c20.32,7.46,40.65,14.92,60.97,22.38
				c5.88,2.16,12.3-5.82,8.47-11.02c-9.93-13.45-19.85-26.89-29.78-40.34c-2.42-3.28-6.47-4.85-10.26-2.69
				c-3.23,1.84-5.09,7.01-2.69,10.26c9.93,13.45,19.85,26.89,29.78,40.34c2.82-3.67,5.65-7.34,8.47-11.02
				c-20.32-7.46-40.65-14.92-60.97-22.38c0,4.82,0,9.64,0,14.46c19.31-2.8,38.62-5.6,57.93-8.39c-1.93-4.57-3.85-9.14-5.78-13.71
				c-15.29,11.75-30.57,23.49-45.86,35.24c3.42,3.42,6.84,6.84,10.26,10.26c5.99-14.1,11.97-28.2,17.96-42.3
				c1.59-3.76,1.09-7.99-2.69-10.26C1119.84,759.73,1114.29,760.57,1112.71,764.29L1112.71,764.29z"/>
		</g>
	</g>
	<g>
		<path class="st5" d="M1064.01,646.32c-4.61,18.33-9.22,36.65-13.83,54.98c15.92-12.69,31.84-25.38,47.77-38.07
			c-21.92-2.68-44.4-0.74-65.53,5.66c21.7,2.72,42.74,10.51,60.97,22.59c-8.57-14.52-17.13-29.05-25.7-43.57"/>
		<g>
			<path class="st5" d="M1056.78,644.32c-4.61,18.33-9.22,36.65-13.83,54.98c-1.96,7.78,6.92,11.77,12.54,7.3
				c15.92-12.69,31.84-25.38,47.77-38.07c5.72-4.56,0.31-12.15-5.3-12.8c-22.66-2.63-45.66-0.55-67.53,5.93
				c-8.69,2.57-5.99,13.68,1.99,14.73c20.46,2.69,39.96,10.3,57.19,21.56c6.4,4.18,13.96-3.99,10.26-10.26
				c-8.57-14.52-17.13-29.05-25.7-43.57c-4.9-8.31-17.87-0.77-12.95,7.57c8.57,14.52,17.13,29.05,25.7,43.57
				c3.42-3.42,6.84-6.84,10.26-10.26c-19.6-12.81-41.6-20.56-64.76-23.61c0.66,4.91,1.33,9.82,1.99,14.73
				c20.71-6.13,42.09-7.88,63.54-5.39c-1.77-4.27-3.54-8.54-5.3-12.8c-15.92,12.69-31.84,25.38-47.77,38.07
				c4.18,2.43,8.36,4.86,12.54,7.3c4.61-18.33,9.22-36.65,13.83-54.98C1073.6,638.95,1059.13,634.95,1056.78,644.32L1056.78,644.32z
				"/>
		</g>
	</g>
</g>
<g id="Ebene_14">
	<g id="Ebene_3_Kopie">
		<g class="st6">
			<path d="M845.84,670.67c0.81,56.25-10.43,112.58-33.18,166.33c82.83-34.53,156.27-80.98,214.86-135.88"/>
			<g>
				<path d="M842.49,672.26c0.58,43.6-6.1,87.13-19.6,129.16c-3.83,11.93-8.27,23.71-13.18,35.34c-0.85,2.02-0.06,4.79,3.01,3.51
					c32.21-13.45,63.34-28.8,93-46.03c29.02-16.87,56.67-35.46,82.48-55.81c14.26-11.24,27.95-23.01,41.03-35.25
					c1.2-1.13,2.42-3.67,1.17-5.07c-1.35-1.51-3.55-0.03-4.59,0.94c-22.98,21.51-47.96,41.41-74.49,59.67
					c-27.09,18.64-55.78,35.53-85.72,50.64c-17.28,8.72-34.97,16.83-53,24.36c1,1.17,2.01,2.34,3.01,3.51
					c17.74-42.01,28.75-86,32.34-130.58c1.01-12.51,1.42-25.04,1.25-37.58c-0.02-1.75-1.68-2.42-3.41-1.69
					C843.85,668.2,842.47,670.46,842.49,672.26L842.49,672.26z"/>
			</g>
		</g>
		<g class="st6">
			<path d="M998.38,724.75c83.3,0.9,167.54-9.29,244.44-36.71c76.9-27.42,146.21-72.8,190.57-133.18
				c44.36-60.37,62.08-136.16,40.63-205.08c-22.78-73.19-88.2-133.87-167.61-167.24c-79.41-33.37-171.43-41.02-259.02-30.44
				c-98.58,11.92-194.78,47.42-265.21,107.67S669.49,406.15,679.01,491s74.75,165.58,168.05,195.32"/>
			<g>
				<path d="M996.98,727.94c80.94,0.81,162.89-8.6,238.39-34.4c65.09-22.25,125-56.77,170.38-102.79
					c47.23-47.9,76.93-108.31,80.04-171.21c1.51-30.65-3.56-61.54-15.73-90.42c-11.17-26.52-27.95-51.22-48.71-73.06
					c-44.27-46.57-105.23-79.18-172.16-96.26c-73.88-18.85-153.42-19.42-228.77-6.84c-70.68,11.81-139.04,35.93-196.77,73.06
					c-57.31,36.87-102.53,86.94-127.67,144.56c-24.09,55.22-28.87,116.69-7.39,173.1c19.8,52.01,60.04,98.92,114.53,127.97
					c13.26,7.06,27.29,12.98,41.91,17.68c3.21,1.03,7.03-5.08,4.07-6.04c-59.14-19-106.82-58.27-136.11-105.78
					c-31.17-50.57-39.41-108.79-25.99-164.63c14.1-58.67,50.44-113.08,100.64-154.6c51.1-42.27,115.23-71.77,183.12-88.96
					c70.96-17.97,147.07-23.54,220.32-13.78c70.16,9.35,137.31,33.79,190.44,74.56c49.17,37.73,84.91,88.45,95.34,144.64
					c11.42,61.59-6.81,126.05-45.23,178.58c-36.59,50.02-90.79,89.49-151.5,116.81c-68.78,30.95-146.11,46.08-223.31,50.24
					c-18.99,1.02-38.02,1.38-57.04,1.18C996.61,721.53,993.48,727.91,996.98,727.94L996.98,727.94z"/>
			</g>
		</g>
		<g class="st6">
			<path class="st7" d="M1065.57,423.21c5.14-39.9-29.42-80.06-74.9-89.8c-45.48-9.74-96.58,10.32-119.99,45.1
				c-23.41,34.78-18.94,81.17,8.6,113.65c22.6,26.66,57.55,43.31,91.75,58.42c48.7,21.51,98.23,41.62,148.5,60.29
				c6.19,2.3,12.89,4.62,19.49,3.43c8.39-1.51,13.96-8.15,18.69-14.29c35.77-46.39,71.53-92.78,107.29-139.16
				c18.89-24.51,38.44-50.68,39.6-80.03c0.98-24.78-11.95-49.24-32.47-66.74c-34.89-29.75-91.95-38.42-136.66-20.75
				c-44.71,17.67-74.04,60.48-70.23,102.52"/>
			<g>
				<path d="M1068.42,422.59c4.47-36.21-21.31-72.27-59.67-87.35c-38.94-15.3-85.78-5.72-117.08,18.09
					c-34.05,25.9-45.96,66.95-35.02,104.28c5.64,19.24,17.34,36.56,33.5,50.72c16.87,14.76,37.33,26.03,58.34,35.96
					c23.67,11.19,48.01,21.42,72.31,31.54c25.58,10.65,51.39,20.93,77.39,30.81c6.73,2.56,13.46,5.12,20.23,7.6
					c5.97,2.18,12.31,4.21,18.91,3.35c11.89-1.54,18.85-11.81,24.87-19.62c16.09-20.87,32.19-41.75,48.28-62.62
					c16.09-20.87,32.19-41.75,48.28-62.62c14.51-18.83,29.94-37.57,39.76-58.64c9.13-19.59,11.96-40.76,5-61.2
					c-6.5-19.09-20.19-36.2-38.26-48.63c-33.62-23.11-82.22-29.74-122.49-16.44c-40.68,13.44-70.56,46.26-78.64,82.68
					c-1.95,8.8-2.59,17.81-1.82,26.75c0.35,4.12,6.1-0.11,5.87-2.79c-3.02-34.99,17.09-70.35,50.85-90.2
					c34.39-20.23,80.42-21.75,117.89-6.83c40.1,15.96,69.78,52.81,64.13,91.56c-3,20.61-14.7,39.25-27.41,56.6
					c-14.42,19.69-29.78,38.9-44.74,58.3c-15.4,19.97-30.8,39.95-46.19,59.91c-7.75,10.05-15.5,20.1-23.25,30.15
					c-5.66,7.35-11.97,18.06-24,17.46c-6.93-0.35-13.45-3.37-19.69-5.71c-6.11-2.29-12.22-4.59-18.31-6.93
					c-12.51-4.78-24.97-9.65-37.38-14.62c-24.82-9.92-49.46-20.2-73.88-30.83c-40.56-17.65-85.49-36.34-109.9-70.91
					c-22.03-31.2-24.67-73.31-2.11-104.85c20.83-29.13,62.52-46.59,102.15-42.92c40.32,3.73,74.74,30.99,84.31,64.5
					c2.3,8.05,3.09,16.45,2.07,24.7C1062.16,428.36,1068.05,425.6,1068.42,422.59L1068.42,422.59z"/>
			</g>
		</g>
		<g class="st6">
			<g>
				<path d="M1420.96,399.6c8.38,31.91,5.62,65.63-7.98,96.2c-0.5,1.14-0.67,3.14,1.18,3.39c1.82,0.25,3.45-1.79,3.98-2.98
					c14.24-32.03,17.24-67.33,8.46-100.77c-0.42-1.62-2.55-1.09-3.62-0.35C1421.53,396.11,1420.54,398.01,1420.96,399.6
					L1420.96,399.6z"/>
			</g>
		</g>
		<g class="st6">
			<g>
				<path d="M1402.38,533.34c-16.14,24.84-38.45,46.4-65.21,63.21c-2.85,1.79-2.7,7.55,1.6,4.85
					c27.83-17.48,51.07-40.14,67.84-65.97c0.68-1.05,1.53-3.27-0.08-4.07C1404.94,530.58,1403.04,532.32,1402.38,533.34
					L1402.38,533.34z"/>
			</g>
		</g>
		<g class="st6">
			<g>
				<path d="M748.48,429.9c1.11-31.95,11.61-63.52,30.25-91.21c5.33-7.92,11.32-15.48,17.92-22.66c0.98-1.06,2.17-3.16,1.03-4.44
					c-1.14-1.27-3.18-0.09-4.02,0.82c-24.43,26.6-40.99,58.38-47.71,91.74c-1.9,9.43-2.99,18.98-3.33,28.54
					c-0.05,1.55,1.52,2.1,2.99,1.48C747.34,433.43,748.42,431.5,748.48,429.9L748.48,429.9z"/>
			</g>
		</g>
	</g>
	<g>
		<path class="st8" d="M878.39,638.14c0.81,56.25-10.43,112.58-33.18,166.33c82.83-34.53,156.27-80.98,214.86-135.88"/>
		<g>
			<path d="M875.04,639.74c0.58,43.6-6.1,87.13-19.6,129.16c-3.83,11.93-8.27,23.71-13.18,35.34c-0.85,2.02-0.06,4.79,3.01,3.51
				c32.21-13.45,63.34-28.8,93-46.03c29.02-16.87,56.67-35.46,82.48-55.81c14.26-11.24,27.95-23.01,41.03-35.25
				c1.2-1.13,2.42-3.67,1.17-5.07c-1.35-1.51-3.55-0.03-4.59,0.94c-22.98,21.51-47.96,41.41-74.49,59.67
				c-27.09,18.64-55.78,35.53-85.72,50.64c-17.28,8.72-34.97,16.83-53,24.36c1,1.17,2.01,2.34,3.01,3.51
				c17.74-42.01,28.75-86,32.34-130.58c1.01-12.51,1.42-25.04,1.25-37.58c-0.02-1.75-1.68-2.42-3.41-1.69
				C876.4,635.68,875.02,637.93,875.04,639.74L875.04,639.74z"/>
		</g>
	</g>
	<g>
		<path class="st8" d="M1030.94,692.23c83.3,0.9,167.54-9.29,244.44-36.71c76.9-27.42,146.21-72.8,190.57-133.18
			c44.36-60.37,62.08-136.16,40.63-205.08c-22.78-73.19-88.2-133.87-167.61-167.24c-79.41-33.37-171.43-41.02-259.02-30.44
			c-98.58,11.92-194.78,47.42-265.21,107.67s-112.7,146.37-103.18,231.22s74.75,165.58,168.05,195.32"/>
		<g>
			<path d="M1029.54,695.42c80.94,0.81,162.89-8.6,238.39-34.4c65.09-22.25,125-56.77,170.38-102.79
				c47.23-47.9,76.93-108.31,80.04-171.21c1.51-30.65-3.56-61.54-15.73-90.42c-11.17-26.52-27.95-51.22-48.71-73.06
				c-44.27-46.57-105.23-79.18-172.16-96.26c-73.88-18.85-153.42-19.42-228.77-6.84c-70.68,11.81-139.04,35.93-196.77,73.06
				c-57.31,36.87-102.53,86.94-127.67,144.56c-24.08,55.22-28.87,116.69-7.39,173.1c19.8,52.01,60.04,98.92,114.53,127.97
				c13.26,7.06,27.29,12.98,41.91,17.68c3.21,1.03,7.03-5.08,4.07-6.04c-59.14-19-106.82-58.27-136.11-105.78
				c-31.17-50.57-39.41-108.79-25.99-164.63c14.1-58.67,50.44-113.08,100.64-154.6c51.1-42.27,115.23-71.77,183.12-88.96
				c70.96-17.97,147.07-23.54,220.32-13.78c70.16,9.35,137.31,33.79,190.44,74.56c49.17,37.73,84.91,88.45,95.34,144.64
				c11.42,61.59-6.81,126.05-45.23,178.58c-36.59,50.02-90.79,89.49-151.5,116.81c-68.78,30.95-146.11,46.08-223.31,50.24
				c-18.99,1.02-38.02,1.38-57.04,1.18C1029.17,689.01,1026.04,695.39,1029.54,695.42L1029.54,695.42z"/>
		</g>
	</g>
	<g>
		<path class="st7" d="M1098.13,390.68c5.14-39.9-29.42-80.06-74.9-89.8c-45.48-9.74-96.58,10.32-119.99,45.1
			s-18.94,81.17,8.6,113.65c22.6,26.66,57.55,43.31,91.75,58.42c48.7,21.51,98.23,41.62,148.5,60.29c6.19,2.3,12.89,4.62,19.49,3.43
			c8.39-1.51,13.96-8.15,18.69-14.29c35.77-46.39,71.53-92.78,107.29-139.16c18.89-24.51,38.44-50.68,39.6-80.03
			c0.98-24.78-11.95-49.24-32.47-66.74c-34.89-29.75-91.95-38.42-136.66-20.75s-74.04,60.48-70.23,102.52"/>
		<g>
			<path d="M1100.97,390.07c4.47-36.21-21.31-72.27-59.67-87.35c-38.94-15.3-85.78-5.72-117.08,18.09
				c-34.05,25.9-45.96,66.95-35.02,104.28c5.64,19.24,17.34,36.56,33.5,50.72c16.87,14.76,37.33,26.03,58.34,35.96
				c23.67,11.19,48.01,21.42,72.31,31.54c25.58,10.65,51.39,20.93,77.39,30.81c6.73,2.56,13.46,5.12,20.23,7.6
				c5.97,2.18,12.31,4.21,18.91,3.35c11.89-1.54,18.85-11.81,24.87-19.62c16.09-20.87,32.19-41.75,48.28-62.62
				c16.09-20.87,32.19-41.75,48.28-62.62c14.51-18.83,29.94-37.57,39.76-58.64c9.13-19.59,11.96-40.76,5-61.2
				c-6.5-19.09-20.19-36.2-38.26-48.63c-33.62-23.11-82.22-29.74-122.49-16.44c-40.68,13.44-70.56,46.26-78.64,82.68
				c-1.95,8.8-2.59,17.81-1.82,26.75c0.35,4.12,6.1-0.11,5.87-2.79c-3.02-34.99,17.09-70.35,50.85-90.2
				c34.39-20.23,80.42-21.75,117.89-6.83c40.1,15.96,69.78,52.81,64.13,91.56c-3,20.61-14.7,39.25-27.41,56.6
				c-14.42,19.69-29.78,38.9-44.74,58.3c-15.4,19.97-30.8,39.95-46.19,59.91c-7.75,10.05-15.5,20.1-23.25,30.15
				c-5.66,7.35-11.97,18.06-24,17.46c-6.93-0.35-13.45-3.37-19.69-5.71c-6.11-2.29-12.22-4.59-18.31-6.93
				c-12.51-4.78-24.97-9.65-37.38-14.62c-24.82-9.92-49.46-20.2-73.88-30.83c-40.56-17.65-85.49-36.34-109.9-70.91
				c-22.03-31.2-24.67-73.31-2.11-104.85c20.83-29.13,62.52-46.59,102.15-42.92c40.32,3.73,74.74,30.99,84.31,64.5
				c2.3,8.05,3.09,16.45,2.07,24.7C1094.71,395.84,1100.6,393.08,1100.97,390.07L1100.97,390.07z"/>
		</g>
	</g>
	<g>
		<g>
			<path d="M1453.51,367.08c8.38,31.91,5.62,65.63-7.98,96.2c-0.5,1.14-0.67,3.14,1.18,3.39c1.82,0.25,3.45-1.79,3.98-2.98
				c14.24-32.03,17.24-67.33,8.46-100.77c-0.42-1.62-2.55-1.09-3.62-0.35C1454.08,363.58,1453.09,365.48,1453.51,367.08
				L1453.51,367.08z"/>
		</g>
	</g>
	<g>
		<g>
			<path d="M1434.94,500.82c-16.14,24.84-38.45,46.4-65.21,63.21c-2.85,1.79-2.7,7.55,1.6,4.85c27.83-17.48,51.07-40.14,67.84-65.97
				c0.68-1.05,1.53-3.27-0.08-4.07C1437.5,498.06,1435.6,499.79,1434.94,500.82L1434.94,500.82z"/>
		</g>
	</g>
	<g>
		<g>
			<path d="M781.03,397.38c1.11-31.95,11.61-63.52,30.25-91.21c5.33-7.92,11.32-15.48,17.92-22.66c0.98-1.06,2.17-3.16,1.03-4.44
				c-1.14-1.27-3.18-0.09-4.02,0.82c-24.43,26.6-40.99,58.38-47.71,91.74c-1.9,9.43-3,18.98-3.33,28.54
				c-0.05,1.55,1.52,2.1,2.99,1.48C779.9,400.91,780.98,398.98,781.03,397.38L781.03,397.38z"/>
		</g>
	</g>
	<g>
		<path class="st7" d="M1552.4,120.17c6.96-5.54,8.69-15.31,3.96-22.36s-15.46-10.7-24.55-8.33c-10.87,2.82-17.4,12.8-18.55,22.47
			c-1.14,9.68,1.92,19.3,4.31,28.81c2.39,9.51,4.09,19.62,0.34,28.8c23.37-10.41,45.34-23.14,65.3-37.86
			c7.49-5.53,15.4-13.42,12.24-21.45c-2.79-7.07-13.42-9.91-21.83-7.94c-8.41,1.97-15.05,7.35-21.3,12.55"/>
		<g>
			<path d="M1553.2,122.59c7.61-6.3,11.21-16.48,7-25.1c-3.8-7.8-13.59-12.56-23.35-11.84c-10.72,0.79-18.69,8.01-22.96,15.98
				c-5.07,9.45-4.23,19.95-1.99,29.91c2.75,12.22,8.26,25.43,3.43,37.8c-0.67,1.71-0.09,4.29,2.64,3.08
				c22.04-9.85,42.85-21.71,61.95-35.34c8.49-6.06,18.81-13.74,19.17-24.02c0.29-8.41-7.91-13.98-17.16-14.52
				c-12.3-0.72-22.21,7.07-30.42,13.88c-1.28,1.06-2.65,2.9-2.02,4.5c0.58,1.48,2.49,1.29,3.62,0.35
				c6.38-5.29,13.81-11.75,23.21-12.36c7.34-0.47,16.78,2.99,16.91,10.24c0.07,4.07-3.23,7.62-6.3,10.45
				c-3.5,3.22-7.64,5.97-11.62,8.75c-8.34,5.82-16.99,11.3-25.95,16.41c-10.16,5.78-20.68,11.09-31.5,15.92
				c0.88,1.03,1.76,2.05,2.64,3.08c3.55-9.1,2.77-18.52,0.69-27.8c-2.18-9.66-5.74-19.26-5.18-29.21
				c0.39-6.83,3.54-14.35,10.48-18.26c7.31-4.12,17.13-2.93,23.57,1.93c6.93,5.24,8.51,15.56,1.55,21.32
				c-1.28,1.06-2.65,2.9-2.02,4.5C1550.16,123.72,1552.07,123.53,1553.2,122.59L1553.2,122.59z"/>
		</g>
	</g>
	<g>
		<path class="st9" d="M1575.85,233.43c-1.93,14.87-12.89,28.67-28.34,35.67c7.36-2.8,16.3-2.31,23.2,1.26
			c6.89,3.57,11.54,10.13,12.06,17.01c1.3-13.85,13.17-26.52,28.68-30.61c-16.07,3.14-33.77-8.44-34.45-22.55"/>
		<g>
			<path d="M1573,234.05c-1.9,13.65-11.4,25.65-25.54,32.18c-2.63,1.21-4.45,7.4,0.11,5.75c14.3-5.17,31,3.61,32.26,16.8
				c0.37,3.94,5.55,0.26,5.79-2.02c1.31-12.4,11.24-23.06,25.13-26.85c1.84-0.5,3.22-2.15,3.54-3.75c0.26-1.3-0.29-2.85-2.16-2.51
				c-14.88,2.7-31.33-7.69-32.21-20.8c-0.1-1.51-1.42-2.15-2.99-1.48c-1.63,0.69-2.98,2.71-2.88,4.27
				c1.03,15.39,18.95,27.5,36.7,24.28c0.46-2.09,0.92-4.18,1.38-6.27c-17.34,4.74-30.57,18.81-32.21,34.36
				c1.93-0.67,3.86-1.34,5.79-2.02c-0.7-7.34-4.99-14.2-12.27-18.27c-7.78-4.35-17.57-4.52-25.97-1.48
				c0.04,1.91,0.08,3.83,0.11,5.75c16.89-7.8,28.87-22.84,31.14-39.17C1579.34,228.28,1573.42,231.04,1573,234.05L1573,234.05z"/>
		</g>
	</g>
	<path class="st10" d="M1615.56,576.93l8.37,22.09c0.36,0.95,1.39,1.59,2.56,1.59h27.09c2.6,0,3.69,2.85,1.58,4.16l-21.92,13.66
		c-0.94,0.59-1.33,1.63-0.98,2.57l8.37,22.1c0.8,2.12-2.03,3.88-4.14,2.57l-21.9-13.65c-0.94-0.59-2.22-0.59-3.16,0l-21.9,13.65
		c-2.11,1.31-4.94-0.45-4.14-2.57l8.37-22.1c0.36-0.95-0.03-1.98-0.98-2.57l-21.92-13.66c-2.11-1.31-1.02-4.16,1.58-4.16h27.09
		c1.17,0,2.2-0.64,2.56-1.59l8.37-22.09C1611.25,574.81,1614.76,574.81,1615.56,576.93z"/>
	<path class="st10" d="M933.94,45.94l8.37,22.09c0.36,0.95,1.39,1.59,2.56,1.59h27.09c2.6,0,3.69,2.85,1.58,4.16l-21.92,13.66
		c-0.94,0.59-1.33,1.63-0.98,2.57l8.37,22.1c0.8,2.12-2.03,3.88-4.14,2.57l-21.9-13.65c-0.94-0.59-2.22-0.59-3.16,0l-21.9,13.65
		c-2.11,1.31-4.94-0.45-4.14-2.57l8.37-22.1c0.36-0.95-0.03-1.98-0.98-2.57l-21.92-13.66c-2.11-1.31-1.02-4.16,1.58-4.16h27.09
		c1.17,0,2.2-0.64,2.56-1.59l8.37-22.09C929.63,43.82,933.14,43.82,933.94,45.94z"/>
	<g>
		<path class="st11" d="M1444.28,749.89c-1.81-9.6-12.59-17.34-23.94-17.19c-11.35,0.14-21.86,8.15-23.35,17.78
			c-1.57,10.17,6.13,20.03,16.08,25.74c9.95,5.71,21.89,8.14,33.46,10.79c11.57,2.64,23.43,5.77,32.48,12.48
			c3.33-19.51,6.66-39.02,10-58.53c1.58-9.27,2.37-20.41-6.21-26.24c-8.85-6.01-22.89-1.86-29.48,6
			c-6.58,7.87-7.73,18.04-8.65,27.69"/>
		<g>
			<path d="M1447.1,747.82c-1.96-9.33-11.36-16.97-22.36-18.16c-11.43-1.24-22.52,5.18-27.63,13.67c-5.77,9.59-3.2,20.64,4.68,28.77
				c8.54,8.82,21.2,12.87,33.72,15.89c14.43,3.48,29.72,5.99,41.47,14.53c2.01,1.46,4.68-2.44,4.89-3.64
				c2.08-12.19,4.17-24.39,6.25-36.58c1.07-6.25,2.13-12.5,3.2-18.75c0.8-4.69,1.65-9.4,1.63-14.16
				c-0.04-8.16-3.28-17.29-13.34-19.98c-9.6-2.57-20.16,1.88-26.43,8.06c-8.96,8.83-10.36,21.2-11.43,32.35
				c-0.15,1.57,1.58,2.07,2.99,1.48c1.82-0.77,2.72-2.65,2.88-4.27c0.8-8.34,1.5-18.05,7.64-24.98c4.76-5.37,14.28-8.77,21.89-6.12
				c8.69,3.03,10.24,11.46,9.87,18.57c-0.23,4.53-1.19,9.01-1.95,13.49c-0.88,5.18-1.77,10.37-2.65,15.55
				c-2.08,12.19-4.17,24.39-6.25,36.58c1.63-1.21,3.26-2.43,4.89-3.64c-18.58-13.5-45.12-11.78-65.15-22.83
				c-8.7-4.79-16.53-13.14-16.17-22.44c0.31-8.17,8.8-14.61,18.06-15.28c11.24-0.81,21.71,6.73,23.67,16.04
				c0.35,1.65,2.6,1.05,3.62,0.35C1446.58,751.28,1447.45,749.45,1447.1,747.82L1447.1,747.82z"/>
		</g>
	</g>
	<g>
		<path class="st9" d="M687.1,141.06c3.38,13.79-0.8,28.8-11.09,39.79c15.09-8.63,37.39-6.27,49.58,5.25
			c-11.13-10.85-11.13-28.82,0.01-39.68c-13.53,3.73-29.36,0.42-39.35-8.23"/>
		<g>
			<path d="M684.28,143.14c2.94,12.51-0.52,25.85-9.77,35.9c-0.9,0.97-1.83,2.6-1.32,3.89c0.42,1.07,1.76,1.42,2.88,0.79
				c14.49-8.08,35.23-5.86,47,5.01c2.52,2.33,7.08-3.23,5.05-5.26c-9.74-9.74-11-25.26-1.02-35.24c1.06-1.06,2.62-5.85-0.81-4.94
				c-13,3.44-27.8,0.49-37.52-7.74c-2.66-2.25-7.24,3.41-5.05,5.26c10.74,9.08,26.71,12.57,41.19,8.73
				c-0.27-1.65-0.54-3.29-0.81-4.94c-12.18,12.17-13.44,31.71-1.03,44.12c1.68-1.76,3.36-3.51,5.05-5.26
				c-13.15-12.15-35.93-14.54-52.16-5.49c0.52,1.56,1.04,3.12,1.56,4.68c11.3-12.28,16.03-28.32,12.42-43.68
				c-0.39-1.64-2.58-1.07-3.62-0.35C684.82,139.66,683.9,141.53,684.28,143.14L684.28,143.14z"/>
		</g>
	</g>
</g>
<g id="Ebene_3">
</g>
</svg>
