<?xml version="1.0" encoding="utf-8"?>
<!-- Generator: Adobe Adobe Illustrator 24.2.0, SVG Export Plug-In . SVG Version: 6.00 Build 0)  -->
<svg version="1.1" xmlns="http://www.w3.org/2000/svg" xmlns:xlink="http://www.w3.org/1999/xlink" x="0px" y="0px"
	 viewBox="0 0 1700.79 1700.79" style="enable-background:new 0 0 1700.79 1700.79;" xml:space="preserve">
<style type="text/css">
	.st0{fill:#305C82;}
	.st1{fill:#808E9C;}
	.st2{fill:#7F8E9C;stroke:#000000;stroke-width:16.166;stroke-miterlimit:10;}
	.st3{opacity:0.2196;}
	.st4{fill:#FFFFFF;}
	.st5{fill:#F3C158;}
	.st6{fill:#6DB671;}
	.st7{fill:#6CB671;}
	.st8{opacity:0.149;}
	.st9{opacity:0.0314;}
</style>
<g id="Ebene_9">
	<g>
		<path class="st0" d="M204.49,438.62c35.62,307.91,65.97,616.42,91.02,925.37c105.67,29.72,218.95,16.03,325.26-11.28
			c106.32-27.3,208.99-67.87,315.94-92.57c171.48-39.61,352.5-37.27,522.9,6.77c-9.25-290.59-28.69-580.85-58.27-870.08
			c-2.64-25.8-6.14-53.44-23.41-72.78c-13.68-15.32-33.9-22.91-53.65-28.52c-122.8-34.89-254.87-13.75-376.83,23.97
			s-238.72,91.63-362.21,123.99s-258.58,41.76-375.78-8.84"/>
		<g>
			<path class="st0" d="M196.99,438.62c13.88,120.02,26.97,240.13,39.25,360.32c12.28,120.19,23.76,240.47,34.43,360.81
				c6.04,68.06,11.81,136.14,17.34,204.24c0.27,3.34,2.14,6.3,5.51,7.23c150.92,41.98,306.95-1.4,451.47-47.23
				c74.66-23.68,149.2-48.27,226.14-63.58c75.21-14.97,151.97-21.81,228.64-20.74c86.98,1.22,173.62,12.79,257.87,34.47
				c4.58,1.18,9.65-2.27,9.49-7.23c-4.8-150.28-12.29-300.46-22.52-450.47c-5.09-74.59-10.84-149.13-17.27-223.61
				c-3.21-37.24-6.6-74.47-10.15-111.68c-3.38-35.39-5.7-71.19-11.02-106.35c-4.58-30.3-16.72-57.52-44.58-72.85
				c-13.79-7.58-29.1-12.14-44.25-16.1c-16.37-4.28-32.98-7.6-49.72-10.03c-68.78-10-138.63-5.38-206.74,7.39
				c-140.28,26.29-270.12,87.78-405.14,131.64c-126.6,41.13-265.83,67.69-396.65,29.66c-15.58-4.53-30.92-9.94-45.83-16.33
				c-8.78-3.76-16.43,9.16-7.57,12.95c123.04,52.71,261.92,41.8,388.41,7.78c136.15-36.62,263.89-98.74,400.12-135.09
				c66.77-17.81,135.62-29.51,204.9-28.46c34.66,0.52,69.23,4.3,103,12.19c28.98,6.77,62.95,14.95,78.34,43.16
				c7.02,12.86,9.91,27.74,11.81,42.12c2.25,17,3.63,34.14,5.33,51.2c3.69,37.2,7.21,74.41,10.57,111.64
				c6.64,73.63,12.62,147.32,17.94,221.06c10.71,148.3,18.76,296.8,24.15,445.39c0.66,18.26,1.28,36.53,1.87,54.79
				c3.16-2.41,6.33-4.82,9.49-7.23c-148.96-38.32-305.42-45.23-457.21-20.47c-77.32,12.61-152.21,34.96-226.74,58.66
				c-73.65,23.41-147.34,47.65-223.39,62.13c-84.67,16.12-173.03,20.06-256.77-3.23c1.84,2.41,3.67,4.82,5.51,7.23
				c-9.77-120.42-20.33-240.78-31.71-361.06c-11.37-120.28-23.55-240.49-36.53-360.6c-7.34-67.93-14.94-135.83-22.79-203.7
				C210.89,429.14,195.88,429.03,196.99,438.62L196.99,438.62z"/>
		</g>
	</g>
</g>
<g id="Ebene_7">
	<g>
		<path class="st1" d="M63.65,347.57c0.5,14.71-0.96,47.61-0.46,62.32c33.16-9.1,65.77-15.31,102.29-14.86
			c-1.4-40.83-5.87-60.8-5.87-60.8s0.72-7.15-96.26,13.02"/>
		<g>
			<path d="M55.56,347.57c0.64,20.77-1.1,41.55-0.46,62.32c0.16,5.23,5.04,9.21,10.23,7.79c32.81-8.96,66.04-14.88,100.14-14.57
				c4.26,0.04,8.24-3.74,8.08-8.08c-0.68-18.95-1.98-37.95-5.01-56.68c-0.25-1.57-0.5-3.14-0.83-4.7c-0.2-0.99-0.67-3.71-0.03,0.58
				c-0.36-2.39-0.76-4.24-2.57-6.01c-3.02-2.96-7.62-3.23-11.59-3.29c-8.59-0.12-17.26,1.22-25.74,2.4
				c-22.35,3.11-44.52,7.56-66.6,12.14c-10.18,2.11-5.87,17.7,4.3,15.59c19.55-4.06,39.15-7.95,58.89-11
				c8.66-1.34,16.81-2.62,26.32-2.92c1.92-0.06,3.84,0.16,5.74,0.11c1.4-0.03-2.57-0.66-0.47-0.03c1.35,0.41,0.46,0.31-0.95-0.49
				c-2.09-1.18-2.48-3.56-3.49-6.49c0.6,1.74,0.73,4.33,1.05,6.16c3.01,17.22,4.16,36.26,4.82,54.64c2.69-2.69,5.39-5.39,8.08-8.08
				c-35.46-0.32-70.32,5.83-104.44,15.15c3.41,2.6,6.82,5.2,10.23,7.79c-0.64-20.77,1.1-41.55,0.46-62.32
				C71.41,337.19,55.24,337.15,55.56,347.57L55.56,347.57z"/>
		</g>
	</g>
	<g>
		<path class="st1" d="M85.71,406.34c27.24,423.33,55.64,854.18,82.88,1277.51c26.8-4.36,49.92-5.91,79.1,1.96
			c-33.09-422.61-60.12-863.36-93.21-1285.97"/>
		<g>
			<path d="M77.62,406.34c10.7,166.32,21.51,332.64,32.33,498.95c10.81,165.97,21.63,331.95,32.4,497.92
				c6.07,93.54,12.12,187.09,18.14,280.63c0.36,5.66,4.85,8.66,10.23,7.79c25.28-4.06,49.88-4.58,74.8,1.96
				c4.74,1.24,10.65-2.43,10.23-7.79c-6.49-82.89-12.7-165.8-18.74-248.73c-6.13-84.16-12.09-168.33-17.98-252.5
				c-5.89-84.05-11.71-168.11-17.59-252.16c-5.86-83.82-11.76-167.65-17.82-251.46c-6.04-83.47-12.23-166.93-18.69-250.38
				c-0.79-10.25-1.59-20.5-2.39-30.74c-0.81-10.3-16.98-10.39-16.17,0c6.49,82.89,12.7,165.8,18.74,248.73
				c6.13,84.16,12.09,168.33,17.98,252.5c5.89,84.05,11.71,168.11,17.59,252.16c5.86,83.82,11.76,167.65,17.82,251.46
				c6.04,83.47,12.23,166.93,18.69,250.38c0.79,10.25,1.59,20.5,2.39,30.74c3.41-2.6,6.82-5.2,10.23-7.79
				c-27.85-7.31-55.19-6.49-83.39-1.96c3.41,2.6,6.82,5.2,10.23,7.79c-10.7-166.32-21.51-332.64-32.33-498.95
				c-10.81-165.97-21.63-331.95-32.4-497.92c-6.07-93.54-12.12-187.09-18.14-280.63C93.12,396.01,76.95,395.93,77.62,406.34
				L77.62,406.34z"/>
		</g>
	</g>
	<g>
		<g>
			<path d="M86.69,315.87c2.66,8.47,1.42,17.7,4.09,26.2c3.1,9.89,18.71,5.67,15.59-4.3c-2.66-8.47-1.42-17.7-4.09-26.2
				C99.18,301.68,83.57,305.9,86.69,315.87L86.69,315.87z"/>
		</g>
	</g>
	<g>
		<g>
			<path d="M114.84,312.63c0.34,2.08,0.19,4.45-0.05,6.83c-0.35,3.37,0.11,6.64,0.66,9.97c0.71,4.31,6.05,6.72,9.94,5.65
				c4.57-1.26,6.36-5.62,5.65-9.94c-0.34-2.08-0.19-4.45,0.05-6.83c0.35-3.37-0.11-6.64-0.66-9.97c-0.71-4.31-6.05-6.72-9.94-5.65
				C115.91,303.94,114.12,308.3,114.84,312.63L114.84,312.63z"/>
		</g>
	</g>
	<g>
		<g>
			<path d="M163.65,408.81c67.65,41.07,145.96,59.99,224.57,62.92c80.73,3.01,161.29-10.24,238.88-31.81
				c86.53-24.07,170.03-57.46,254.66-87.24c80.93-28.48,164.43-54.98,250.02-64.69c38.13-4.33,76.92-5,115,0.26
				c39.54,5.47,78.18,17.13,114.36,33.96c9.81,4.56,19.43,9.48,28.92,14.67c9.13,4.99,17.3-8.96,8.16-13.96
				c-36.2-19.78-74.78-35.36-115.08-44.42c-37.5-8.43-76.1-11.35-114.47-9.63c-84.15,3.78-167.19,26.74-246.76,53.03
				c-85.23,28.15-168.44,62.12-254.08,89.06c-78.58,24.72-159.32,42.92-241.97,44.85c-78.3,1.84-158.12-10.76-228.4-46.62
				c-8.73-4.45-17.27-9.25-25.65-14.34C162.89,389.44,154.76,403.41,163.65,408.81L163.65,408.81z"/>
		</g>
	</g>
	<g>
		<g>
			<path d="M218.52,1356.18c69.6,34.1,149.01,43.17,225.68,39.22c81.65-4.21,160.15-24.69,237.67-49.55
				c84.78-27.19,168.55-57.44,256.24-74.14c82.34-15.68,166.03-21.95,249.79-19.17c84.44,2.8,168.31,14.05,251.73,26.86
				c11.29,1.74,22.58,3.5,33.87,5.29c10.18,1.61,14.56-13.97,4.3-15.59c-84.4-13.33-169.12-25.99-254.48-31.08
				c-82.31-4.9-164.72-1.75-246.26,10.68c-43.84,6.68-87.22,15.85-129.95,27.75c-42.37,11.8-84.1,25.74-125.85,39.54
				c-78.65,25.99-157.93,51.63-240.67,60.38c-76.33,8.07-156.27,4.7-228.58-23.04c-8.62-3.31-17.05-7.03-25.34-11.09
				C217.38,1337.66,209.17,1351.6,218.52,1356.18L218.52,1356.18z"/>
		</g>
	</g>
	<g>
		<g>
			<path d="M183.54,424.82c12.41,123.37,24.81,246.75,37.22,370.12c12.34,122.71,24.68,245.42,37.02,368.13
				c6.94,68.98,13.87,137.97,20.81,206.95c0.44,4.34,3.4,8.08,8.08,8.08c4.03,0,8.52-3.71,8.08-8.08
				c-12.41-123.37-24.81-246.75-37.22-370.12c-12.34-122.71-24.68-245.42-37.02-368.13c-6.94-68.98-13.87-137.97-20.81-206.95
				c-0.44-4.34-3.4-8.08-8.08-8.08C187.59,416.73,183.1,420.45,183.54,424.82L183.54,424.82z"/>
		</g>
	</g>
	
		<ellipse transform="matrix(0.3332 -0.9429 0.9429 0.3332 -172.859 265.3029)" class="st2" cx="101.14" cy="254.86" rx="58.7" ry="60.91"/>
	<g>
		<g>
			<path d="M109.12,333.68c2.07-0.39,4.15-0.77,6.22-1.16c1.89-0.35,3.89-2.11,4.83-3.71c1.01-1.73,1.44-4.29,0.81-6.23
				c-0.63-1.96-1.84-3.84-3.71-4.83c-2.01-1.06-3.99-1.23-6.23-0.81c-2.07,0.39-4.15,0.77-6.22,1.16c-1.89,0.35-3.89,2.11-4.83,3.71
				c-1.01,1.73-1.44,4.29-0.81,6.23c0.63,1.96,1.84,3.84,3.71,4.83C104.9,333.93,106.88,334.1,109.12,333.68L109.12,333.68z"/>
		</g>
	</g>
	<g class="st3">
		<path d="M196.55,419.4c0,0-165.24,906.03,1273.27,794.87c4.54,21.81-0.62,38.51,5.84,62.62
			c-132.47-22.04-169.6-32.45-286.62-28.01s-242.81-10.18-350.94,32.15c-206.02,80.66-384.27,93.86-449.97,102
			c-20.47,2.54-85.1-0.11-101.47-13.01c-17-13.4,53.85,148.93-95.05-945.21"/>
		<g>
			<path d="M188.76,417.25c-1.58,8.68-2.52,17.52-3.37,26.29c-2.12,21.82-2.89,43.77-2.64,65.68c0.36,32.59,3.11,65.12,7.96,97.35
				c5.92,39.35,15.26,78.19,28.11,115.85c14.93,43.74,34.5,85.94,58.61,125.38c27.66,45.24,61.22,86.9,99.28,123.8
				c44.41,43.06,94.88,79.77,148.65,110.26c65.88,37.35,136.75,65.64,209.31,87.05c90.44,26.68,183.8,42.8,277.54,52.24
				c118.93,11.98,238.83,13.01,358.16,7.4c33.18-1.56,66.34-3.66,99.46-6.21c-2.6-1.98-5.2-3.96-7.79-5.93
				c4.05,20.76,0.56,41.89,5.84,62.62c3.31-3.31,6.63-6.63,9.94-9.94c-58.68-9.78-117.35-21.85-176.72-26.81
				c-63.05-5.27-126.38-0.38-189.54-0.52c-72.02-0.15-145.01-1.44-215.82,13.74c-37,7.93-71.4,22.76-106.97,35.24
				c-35.49,12.45-71.47,23.5-107.8,33.2c-96.35,25.72-194.64,40.5-293.65,51.1c-22.08,2.36-45.62,0.76-67.47-2.81
				c-9.38-1.53-19.49-3.25-27.73-8.21c-2.51-1.51,3.94,1.83-1.53-1.1c-0.07-0.04-0.12-0.1-0.19-0.14c-0.16-0.08-0.3-0.2-0.45-0.28
				c-4.43-2.51-10.18-1.58-12.9,2.97c-5.12,8.59,5.89,19.31,13.72,11.57c5.32-5.26,5.16-16.04,5.64-22.77
				c1.53-21.28,0.68-42.79-0.18-64.08c-1.88-46.39-5.58-92.71-9.67-138.96c-7.13-80.7-15.86-161.25-25.15-241.72
				C247,784.46,231.07,659.58,214.5,534.79c-4.97-37.38-10-74.76-15.08-112.13c-0.59-4.36-6.13-6.65-9.94-5.65
				c-4.68,1.23-6.23,5.64-5.65,9.94c18.23,134,35.81,268.09,51.97,402.35c10.72,89.05,20.88,178.18,29.55,267.46
				c5.22,53.81,10.01,107.7,13.14,161.67c1.59,27.38,3,54.9,2.36,82.34c-0.15,6.4-0.47,12.79-1.11,19.16
				c-0.06,0.56-0.14,1.12-0.2,1.68c-0.17,1.73,0.49-2.74,0.06-0.51c-0.16,0.82-0.25,1.65-0.42,2.47c-0.23,1.17-0.7,2.35-0.88,3.52
				c-0.29,1.89,1.37-2.12-0.05-0.09c1.4-2,3.24-3.52,6.21-3.5c2.97,0.02,5.45,1.84,6.47,3.54c0.58,0.97,0.96,3.12,0.96,3.21
				c0.08,4.16-4.22,7.85-9.02,6.68c1.55,0.38-2.8-1.17-0.44-0.08c-3.61-1.67-0.42-0.24,0.82,0.62c1.56,1.08,3.21,1.97,4.93,2.77
				c4.66,2.17,9.57,3.74,14.55,4.98c12.14,3.01,24.73,4.49,37.18,5.51c36.07,2.97,71.31-2.11,107.06-6.42
				c51.73-6.23,103.24-14.24,154.26-24.87c69.05-14.39,137.18-33.36,203.54-57.3c33.79-12.19,66.46-25.39,101.84-32.44
				c34.88-6.94,70.43-9.76,105.93-10.99c36.06-1.25,72.14-0.82,108.21-0.8c34.6,0.02,69.13-1.48,103.72-1.91
				c52.06-0.64,103.18,4.23,154.51,12.64c31.54,5.17,63.01,10.76,94.54,16.01c5.98,1,11.58-3.53,9.94-9.94
				c-5.25-20.58-1.79-41.85-5.84-62.62c-0.63-3.23-4.48-6.19-7.79-5.93c-125.46,9.66-251.63,12.86-377.3,5.25
				c-98.64-5.98-197.1-18.67-293.22-41.94c-76.17-18.44-151.01-43.52-221.41-78.14c-57.15-28.1-111.57-62.54-159.56-103.66
				c-21.36-18.3-41.57-37.93-60.39-58.84c-17.68-19.64-32.49-38.31-47.3-59.66c-13.89-20.02-26.58-40.88-37.98-62.41
				c-5.37-10.15-10.46-20.45-15.26-30.88c-5.12-11.13-8.26-18.5-12.55-29.37c-15.11-38.23-26.47-77.92-34.14-118.3
				c-1.71-8.99-3.24-18.01-4.58-27.05c-0.33-2.19-0.64-4.39-0.95-6.58c-0.13-0.91-0.25-1.81-0.37-2.72
				c0.34,2.54-0.19-1.47-0.28-2.17c-0.55-4.24-1.05-8.49-1.52-12.75c-1.74-15.89-2.94-31.84-3.59-47.82
				c-0.98-24.37-0.71-48.81,1.07-73.14c0.56-7.69,1.28-15.37,2.21-23.03c0.16-1.35,0.35-2.7,0.51-4.06
				c0.27-2.17-0.36,2.46-0.05,0.38c0.08-0.57,0.16-1.15,0.24-1.72c0.22-1.51,0.45-3.01,0.69-4.51c0.08-0.5,0.16-1,0.25-1.5
				C206.2,411.38,190.62,407.02,188.76,417.25L188.76,417.25z"/>
		</g>
	</g>
	<g class="st3">
		<path d="M81.55,206.15c-11.24,37.14,2.91,81,34.08,105.64c-25.89-0.53-51.08-17.31-61.52-40.97s-5.51-52.86,12.02-71.29"/>
		<g>
			<path d="M73.76,204c-11.92,40.63,3.25,87.06,36.16,113.5c1.91-4.6,3.81-9.2,5.72-13.8c-22.76-0.74-44.35-14.94-53.93-35.64
				c-9.48-20.49-5.13-46.36,10.15-62.83c7.07-7.62-4.34-19.08-11.43-11.43c-20.09,21.66-25.37,54.13-13.28,81.09
				c11.88,26.48,39.75,44.05,68.49,44.97c6.55,0.21,11.28-9.33,5.72-13.8c-28.63-23.01-42.45-62.18-32-97.78
				C92.28,198.29,76.68,194.02,73.76,204L73.76,204z"/>
		</g>
	</g>
	<g class="st3">
		<path d="M79.34,362.46c24.66,13.51,52.95,20.26,80.82,19.3c-23.46,4.06-46.91,8.13-70.37,12.19c-4.51,0.78-9.28,1.54-13.64-0.04
			c-6.82-2.48-10.58-10.2-10.58-17.33c0-7.13,2.94-13.83,5.84-20.29"/>
		<g>
			<path d="M75.26,369.44c26.02,14.06,55.31,21.25,84.9,20.4c-0.72-5.29-1.43-10.58-2.15-15.88c-20.52,3.56-41.05,7.11-61.57,10.67
				c-6.31,1.09-17.05,5.3-21.15-1.72c-4.11-7.02,0.16-15.93,3.11-22.54c1.78-3.98,1.16-8.69-2.9-11.06
				c-3.45-2.02-9.27-1.11-11.06,2.9c-4.62,10.37-9.29,21.77-5.57,33.2c3.59,11.05,13.14,18.18,24.91,17.43
				c12.82-0.81,25.81-4.16,38.46-6.35c13.36-2.31,26.71-4.63,40.07-6.94c9.03-1.56,6.85-16.14-2.15-15.88
				c-26.78,0.77-53.16-5.45-76.74-18.19C74.26,350.53,66.09,364.49,75.26,369.44L75.26,369.44z"/>
		</g>
	</g>
	<g class="st3">
		<path d="M103.77,408.75c24.1,255.69,48.21,511.37,72.31,767.06c15.98,169.51,32.04,339.57,69.72,506.18
			c-20.91,10.96-48.56-2.48-61.32-22.75c-12.76-20.27-14.52-45.03-15.93-68.65c-23.51-394.67-47.02-789.35-70.54-1184.02"/>
		<g>
			<path d="M95.69,408.75c15.83,167.93,31.66,335.85,47.49,503.78c7.88,83.54,15.75,167.08,23.63,250.62
				c7.73,82,15.35,164.03,25.3,245.8c11.24,92.35,25.43,184.4,45.89,275.19c1.24-3.04,2.48-6.09,3.71-9.13
				c-13.24,6.52-29.19,0.82-39.85-8.12c-13.72-11.52-19.52-28.9-22.39-46.05c-3.28-19.56-3.42-39.76-4.59-59.52
				c-1.31-22.07-2.63-44.14-3.94-66.2c-5.23-87.85-10.47-175.69-15.7-263.54c-5.26-88.27-10.52-176.54-15.78-264.81
				c-5.23-87.85-10.47-175.69-15.7-263.54c-5.23-87.85-10.47-175.69-15.7-263.54c-0.66-11.03-1.31-22.07-1.97-33.1
				c-0.62-10.34-16.79-10.41-16.17,0c5.41,90.82,10.82,181.63,16.23,272.45c5.39,90.39,10.77,180.79,16.16,271.18
				s10.77,180.79,16.16,271.18c5.41,90.82,10.82,181.63,16.23,272.45c1.34,22.49,2.68,44.98,4.02,67.48
				c1.24,20.89,1.67,42.05,5,62.75c2.86,17.81,9.04,35.88,21.53,49.31c10.75,11.55,25.96,19.65,41.84,20.55
				c7.99,0.45,15.65-1.44,22.79-4.95c3.29-1.62,4.46-5.81,3.71-9.13c-36.27-160.89-52.55-325.22-68.02-489.14
				c-15.76-166.98-31.48-333.96-47.22-500.94c-8.83-93.67-17.66-187.34-26.49-281C110.88,398.49,94.71,398.38,95.69,408.75
				L95.69,408.75z"/>
		</g>
	</g>
	<g class="st3">
		<g>
			<path class="st4" d="M1331.61,411.82c4.32,83.78,8.65,167.55,12.97,251.33s8.65,167.55,12.97,251.33
				c2.44,47.21,4.87,94.41,7.31,141.62c0.73,14.05,11.87,27.62,26.94,26.94c13.98-0.63,27.72-11.87,26.94-26.94
				c-4.32-83.78-8.65-167.55-12.97-251.33s-8.65-167.55-12.97-251.33c-2.44-47.21-4.87-94.41-7.31-141.62
				c-0.73-14.05-11.87-27.62-26.94-26.94C1344.58,385.5,1330.84,396.74,1331.61,411.82L1331.61,411.82z"/>
		</g>
	</g>
	<g class="st3">
		<g>
			<path class="st4" d="M113.91,262.41c14.09,0,27.6-12.39,26.94-26.94c-0.65-14.6-11.84-26.94-26.94-26.94
				c-14.09,0-27.6,12.39-26.94,26.94C87.62,250.07,98.81,262.41,113.91,262.41L113.91,262.41z"/>
		</g>
	</g>
	<g class="st3">
		<g>
			<path class="st4" d="M107.62,433.32c0.07,6.1,0.13,12.2,0.2,18.3c0.15,14.09,12.28,27.6,26.94,26.94
				c14.47-0.65,27.11-11.84,26.94-26.94c-0.07-6.1-0.13-12.2-0.2-18.3c-0.15-14.09-12.28-27.6-26.94-26.94
				C120.09,407.03,107.45,418.22,107.62,433.32L107.62,433.32z"/>
		</g>
	</g>
</g>
<g id="Ebene_13">
	<g>
		<g>
			<path d="M1386.65,329.9c11.69,122.99,22.09,246.1,32.22,369.23c10.2,123.92,20.12,247.87,30.75,371.76
				c5.9,68.69,12.02,137.37,18.54,206c0.91,9.53,15.91,9.62,15,0c-11.69-122.99-22.09-246.1-32.22-369.23
				c-10.2-123.92-20.12-247.87-30.75-371.76c-5.9-68.69-12.02-137.37-18.54-206C1400.74,320.37,1385.73,320.28,1386.65,329.9
				L1386.65,329.9z"/>
		</g>
	</g>
</g>
<g id="Ebene_11">
	<g>
		<path class="st5" d="M952.78,577.9c-6.49,15.33-12.98,30.67-19.47,46c16.77-11.5,33.55-23.01,50.32-34.51
			c-18.51,1.63-37.03,3.25-55.54,4.88c15.99,16.91,37.17,28.84,59.92,33.74c-16.57-13.91-29.27-32.38-36.35-52.82"/>
		<g>
			<path class="st5" d="M946.31,574.12c-6.49,15.33-12.98,30.67-19.47,46c-1.32,3.13-1.4,6.52,1.17,9.09
				c2.23,2.23,6.37,3.04,9.09,1.17c16.77-11.5,33.55-23.01,50.32-34.51c5.56-3.81,4.25-14.68-3.79-13.98
				c-18.51,1.63-37.03,3.25-55.54,4.88c-6.35,0.56-10.05,7.85-5.3,12.8c17.07,17.79,39.16,30.3,63.23,35.67
				c6.75,1.51,13.38-7.36,7.3-12.54c-15.59-13.28-27.57-30.17-34.42-49.51c-3.2-9.04-17.7-5.15-14.46,3.99
				c7.69,21.73,20.7,41.16,38.28,56.13c2.43-4.18,4.86-8.36,7.3-12.54c-21.71-4.84-41.2-15.75-56.61-31.81
				c-1.77,4.27-3.54,8.54-5.3,12.8c18.51-1.63,37.03-3.25,55.54-4.88c-1.26-4.66-2.52-9.32-3.79-13.98
				c-16.77,11.5-33.55,23.01-50.32,34.51c3.42,3.42,6.84,6.84,10.26,10.26c6.49-15.33,12.98-30.67,19.47-46
				c1.59-3.76,1.1-7.99-2.69-10.26C953.44,569.55,947.89,570.39,946.31,574.12L946.31,574.12z"/>
		</g>
	</g>
	<g>
		<path class="st5" d="M818.08,552.81c-6.97,17.15-13.93,34.3-20.9,51.45c17.44-12.73,34.89-25.46,52.33-38.2
			c-20.86,1.01-41.72,2.02-62.57,3.03c21.72,10.81,43.43,21.62,65.15,32.43c-14.32-14.36-25.93-31.43-34.01-50.03"/>
		<g>
			<path class="st5" d="M810.85,550.82c-6.97,17.15-13.93,34.3-20.9,51.45c-2.4,5.9,5.92,12.19,11.02,8.47
				c17.44-12.73,34.89-25.47,52.33-38.2c5.49-4.01,4.34-14.37-3.79-13.98c-20.86,1.01-41.72,2.02-62.57,3.03
				c-6.93,0.34-10.85,10.46-3.79,13.98c21.72,10.81,43.43,21.62,65.15,32.43c7.42,3.69,15.31-5.47,9.09-11.78
				c-13.89-14.08-24.86-30.42-32.84-48.51c-1.65-3.74-7.03-4.53-10.26-2.69c-3.85,2.19-4.32,6.58-2.69,10.26
				c8.46,19.19,20.45,36.62,35.19,51.55c3.03-3.93,6.06-7.85,9.09-11.78c-21.72-10.81-43.43-21.62-65.15-32.43
				c-1.26,4.66-2.52,9.32-3.79,13.98c20.86-1.01,41.72-2.02,62.57-3.03c-1.26-4.66-2.52-9.32-3.79-13.98
				c-17.44,12.73-34.89,25.47-52.33,38.2c3.67,2.82,7.34,5.65,11.02,8.47c6.97-17.15,13.93-34.3,20.9-51.45
				c1.54-3.78-1.67-8.21-5.24-9.23C815.8,544.36,812.36,547.08,810.85,550.82L810.85,550.82z"/>
		</g>
	</g>
	<g>
		<path class="st5" d="M694.55,602.06c-7.68,16.61-15.37,33.21-23.05,49.82c18.58-9.27,35.51-21.85,49.76-36.97
			c-18.36,1.62-36.71,3.24-55.07,4.87c17.58,12.8,37.35,22.58,58.19,28.81c-9.26-15.2-18.53-30.4-27.79-45.59"/>
		<g>
			<path class="st5" d="M688.08,598.27c-7.68,16.61-15.37,33.21-23.05,49.82c-3.14,6.79,3.28,13.79,10.26,10.26
				c19.13-9.67,36.5-22.61,51.27-38.14c4.14-4.35,1.49-13.4-5.3-12.8c-18.36,1.62-36.71,3.24-55.07,4.87
				c-7.61,0.67-9.94,9.54-3.79,13.98c18.21,13.13,38.5,23.04,59.98,29.57c6.24,1.9,11.84-5.49,8.47-11.02
				c-9.26-15.2-18.53-30.4-27.79-45.59c-5.02-8.23-18-0.7-12.95,7.57c9.26,15.2,18.53,30.4,27.79,45.59
				c2.82-3.67,5.65-7.34,8.47-11.02c-20.29-6.17-39.19-15.66-56.4-28.06c-1.26,4.66-2.52,9.32-3.79,13.98
				c18.36-1.62,36.71-3.24,55.07-4.87c-1.77-4.27-3.54-8.54-5.3-12.8c-13.97,14.69-30.14,26.65-48.24,35.8
				c3.42,3.42,6.84,6.84,10.26,10.26c7.68-16.61,15.37-33.21,23.05-49.82C705.06,597.14,692.13,589.51,688.08,598.27L688.08,598.27z
				"/>
		</g>
	</g>
	<g>
		<path class="st5" d="M589.77,691.62c-13.08,14.62-22,32.92-25.47,52.23c18.89-13.06,37.79-26.11,56.68-39.17
			c-21.83,1.1-43.65,2.2-65.48,3.29c21.74,11.12,43.47,22.23,65.21,33.35c-9.93-15.74-19.85-31.47-29.78-47.21"/>
		<g>
			<path class="st5" d="M584.46,686.32c-13.9,15.8-23.5,34.82-27.4,55.54c-1.09,5.82,5.16,12.51,11.02,8.47
				c18.89-13.06,37.79-26.11,56.68-39.17c5.68-3.92,4.2-14.38-3.79-13.98c-21.83,1.1-43.65,2.2-65.48,3.29
				c-6.97,0.35-10.8,10.39-3.79,13.98c21.74,11.12,43.47,22.23,65.21,33.35c6.34,3.24,14.49-3.56,10.26-10.26
				c-9.93-15.74-19.85-31.47-29.78-47.21c-5.14-8.14-18.12-0.63-12.95,7.57c9.93,15.74,19.85,31.47,29.78,47.21
				c3.42-3.42,6.84-6.84,10.26-10.26c-21.74-11.12-43.47-22.23-65.21-33.35c-1.26,4.66-2.52,9.32-3.79,13.98
				c21.83-1.1,43.65-2.19,65.48-3.29c-1.26-4.66-2.52-9.32-3.79-13.98c-18.89,13.06-37.79,26.11-56.68,39.17
				c3.67,2.82,7.35,5.65,11.02,8.47c3.41-18.16,11.31-35.02,23.54-48.92C601.43,689.7,590.86,679.06,584.46,686.32L584.46,686.32z"
				/>
		</g>
	</g>
	<g>
		<path class="st5" d="M563.27,817.03c-12.84,12.19-21.69,28.51-24.91,45.92c17.46-8,33.39-19.34,46.66-33.22
			c-17.75,1.55-35.51,3.1-53.26,4.65c17.17,13.51,37.34,23.19,58.62,28.13c-9.28-14.17-18.56-28.33-27.84-42.5"/>
		<g>
			<path class="st5" d="M557.97,811.72c-13.71,13.27-23.18,30.49-26.84,49.23c-1.31,6.7,4.97,11.28,11.02,8.47
				c18.03-8.39,34.36-20.1,48.18-34.39c4.19-4.33,1.46-13.39-5.3-12.8c-17.75,1.55-35.51,3.1-53.26,4.65
				c-5.62,0.49-10.97,8.4-5.3,12.8c18.39,14.3,39.23,24.65,61.93,30.06c6.02,1.43,12.22-5.3,8.47-11.02
				c-9.28-14.17-18.56-28.33-27.84-42.5c-5.27-8.04-18.26-0.54-12.95,7.57c9.28,14.17,18.56,28.33,27.84,42.5
				c2.82-3.67,5.65-7.34,8.47-11.02c-20.04-4.77-39.02-13.52-55.31-26.2c-1.77,4.27-3.54,8.54-5.3,12.8
				c17.75-1.55,35.51-3.1,53.26-4.65c-1.77-4.27-3.54-8.54-5.3-12.8c-13.01,13.45-28.18,24.15-45.14,32.04
				c3.67,2.82,7.34,5.65,11.02,8.47c3.2-16.39,10.98-30.98,22.99-42.61C575.52,815.6,564.91,805,557.97,811.72L557.97,811.72z"/>
		</g>
	</g>
	<g>
		<path class="st5" d="M615.04,926.02c-9.36,16.89-18.71,33.77-28.07,50.66c16.94-13.85,33.87-27.7,50.81-41.56
			c-20.01,1.87-40.01,3.74-60.02,5.61c20.72,9.68,41.45,19.37,62.17,29.05c-7.62-15.25-15.23-30.5-22.85-45.74"/>
		<g>
			<path class="st5" d="M608.57,922.23c-9.36,16.89-18.71,33.77-28.07,50.66c-4.33,7.81,5.38,14.32,11.78,9.09
				c16.93-13.85,33.87-27.7,50.81-41.56c4.88-4,0.98-13.39-5.3-12.8c-20.01,1.87-40.01,3.74-60.02,5.61
				c-6.6,0.62-11.21,10.51-3.79,13.98c20.72,9.68,41.45,19.37,62.17,29.05c6.81,3.18,13.74-3.3,10.26-10.26
				c-7.62-15.25-15.23-30.5-22.85-45.74c-4.31-8.64-17.26-1.05-12.95,7.57c7.62,15.25,15.23,30.5,22.85,45.74
				c3.42-3.42,6.84-6.84,10.26-10.26c-20.72-9.68-41.45-19.37-62.17-29.05c-1.26,4.66-2.52,9.32-3.79,13.98
				c20.01-1.87,40.01-3.74,60.02-5.61c-1.77-4.27-3.54-8.54-5.3-12.8c-16.94,13.85-33.87,27.7-50.81,41.56
				c3.93,3.03,7.85,6.06,11.78,9.09c9.36-16.89,18.71-33.77,28.07-50.66C626.2,921.35,613.25,913.78,608.57,922.23L608.57,922.23z"
				/>
		</g>
	</g>
	<g>
		<path class="st5" d="M732.24,1005.79c-11.49,13.71-19.56,30.25-23.29,47.74c17.37-12.71,34.75-25.43,52.12-38.14
			c-18,1.97-36.01,3.94-54.01,5.92c14.42,9.94,30.44,17.57,47.25,22.5c-8.6-13.32-17.19-26.64-25.79-39.96"/>
		<g>
			<path class="st5" d="M726.93,1000.49c-12.29,14.9-21.03,32.15-25.22,51.05c-1.28,5.75,5.35,12.62,11.02,8.47
				c17.37-12.71,34.75-25.42,52.12-38.14c2.7-1.98,4.43-5.04,3.45-8.47c-0.84-2.93-3.98-5.86-7.23-5.51
				c-18,1.97-36.01,3.94-54.01,5.92c-7.37,0.81-10.24,9.58-3.79,13.98c15.05,10.25,31.6,18.04,49.04,23.25
				c6.12,1.83,12.03-5.5,8.47-11.02c-8.6-13.32-17.19-26.64-25.79-39.96c-5.22-8.08-18.21-0.57-12.95,7.57
				c8.6,13.32,17.19,26.64,25.79,39.96c2.82-3.67,5.65-7.34,8.47-11.02c-16.26-4.87-31.43-12.19-45.46-21.74
				c-1.26,4.66-2.52,9.32-3.79,13.98c18-1.97,36.01-3.94,54.01-5.92c-1.26-4.66-2.52-9.32-3.79-13.98
				c-17.37,12.71-34.75,25.42-52.12,38.14c3.67,2.82,7.35,5.65,11.02,8.47c3.61-16.29,10.72-31.53,21.37-44.43
				c2.6-3.15,3.02-7.52,0-10.61C734.91,997.81,729.5,997.37,726.93,1000.49L726.93,1000.49z"/>
		</g>
	</g>
	<g>
		<path class="st5" d="M864.06,1025.48c-8.31,16.54-16.63,33.08-24.94,49.62c17.02-12.19,34.03-24.38,51.05-36.57
			c-19.48,1.39-38.96,2.79-58.44,4.18c17.58,11.55,36.66,20.8,56.61,27.47c-8.01-14.86-16.02-29.71-24.03-44.57"/>
		<g>
			<path class="st5" d="M857.58,1021.69c-8.31,16.54-16.63,33.08-24.94,49.62c-3.06,6.09,3.66,14.99,10.26,10.26
				c17.02-12.19,34.03-24.38,51.05-36.57c5.47-3.92,4.34-14.56-3.79-13.98c-19.48,1.39-38.96,2.79-58.44,4.18
				c-7.42,0.53-10.21,9.79-3.79,13.98c18.2,11.86,37.83,21.27,58.4,28.22c6.49,2.2,11.4-5.57,8.47-11.02
				c-8.01-14.86-16.02-29.71-24.03-44.57c-4.58-8.5-17.54-0.93-12.95,7.57c8.01,14.86,16.02,29.71,24.03,44.57
				c2.82-3.67,5.65-7.34,8.47-11.02c-19.37-6.55-37.68-15.55-54.81-26.71c-1.26,4.66-2.52,9.32-3.79,13.98
				c19.48-1.39,38.96-2.79,58.44-4.18c-1.26-4.66-2.52-9.32-3.79-13.98c-17.02,12.19-34.03,24.38-51.05,36.57
				c3.42,3.42,6.84,6.84,10.26,10.26c8.31-16.54,16.63-33.08,24.94-49.62C874.86,1020.66,861.92,1013.06,857.58,1021.69
				L857.58,1021.69z"/>
		</g>
	</g>
	<g>
		<path class="st5" d="M996.86,975.06c-7.66,17.64-15.32,35.29-22.98,52.93c17.49-12.25,34.98-24.5,52.47-36.75
			c-20.28-2.75-41.27-0.09-60.24,7.62c17.96,7.1,35.93,14.19,53.89,21.29c-4.8-14.91-9.59-29.82-14.39-44.73"/>
		<g>
			<path class="st5" d="M990.38,971.27c-7.66,17.64-15.32,35.29-22.98,52.93c-1.35,3.11-1.38,6.53,1.17,9.09
				c2.22,2.22,6.39,3.06,9.09,1.17c17.49-12.25,34.98-24.5,52.47-36.75c6.43-4.5,3.59-13.04-3.79-13.98
				c-21.02-2.68-42.54,0.06-62.23,7.89c-7.07,2.81-7.1,11.66,0,14.46c17.96,7.1,35.93,14.19,53.89,21.29
				c5.33,2.11,10.86-4.15,9.23-9.23c-4.8-14.91-9.59-29.82-14.39-44.73c-2.94-9.15-17.43-5.24-14.46,3.99
				c4.8,14.91,9.59,29.82,14.39,44.73c3.08-3.08,6.15-6.15,9.23-9.23c-17.96-7.1-35.93-14.19-53.89-21.29c0,4.82,0,9.64,0,14.46
				c18.65-7.41,38.34-9.89,58.24-7.35c-1.26-4.66-2.52-9.32-3.79-13.98c-17.49,12.25-34.98,24.5-52.47,36.75
				c3.42,3.42,6.84,6.84,10.26,10.26c7.66-17.64,15.32-35.29,22.98-52.93c1.62-3.74,1.07-8.01-2.69-10.26
				C997.49,966.69,991.99,967.56,990.38,971.27L990.38,971.27z"/>
		</g>
	</g>
	<g>
		<path class="st5" d="M1088.89,883c-6.34,16.56-12.68,33.12-19.03,49.68c17.32-11.79,34.64-23.59,51.95-35.38
			c-20-3.24-40.68-2.27-60.29,2.84c16.35,12.26,35.68,20.53,55.84,23.89c-9.08-14.13-18.15-28.26-27.23-42.39"/>
		<g>
			<path class="st5" d="M1081.66,881.01c-6.34,16.56-12.68,33.12-19.03,49.68c-2.31,6.03,5.81,12.02,11.02,8.47
				c17.32-11.79,34.64-23.59,51.95-35.38c4.72-3.21,5.14-12.63-1.79-13.71c-21.53-3.34-43.13-2.52-64.28,2.84
				c-6.81,1.73-6.67,10.1-1.79,13.71c16.99,12.56,36.81,21.03,57.63,24.65c5.97,1.04,12.31-5.04,8.47-11.02
				c-9.08-14.13-18.15-28.26-27.23-42.39c-5.2-8.1-18.19-0.58-12.95,7.57c9.08,14.13,18.15,28.26,27.23,42.39
				c2.82-3.67,5.65-7.34,8.47-11.02c-19.73-3.43-37.94-11.23-54.04-23.13c-0.6,4.57-1.19,9.14-1.79,13.71
				c18.38-4.66,37.54-5.76,56.3-2.84c-0.6-4.57-1.19-9.14-1.79-13.71c-17.32,11.79-34.64,23.59-51.95,35.38
				c3.67,2.82,7.34,5.65,11.02,8.47c6.34-16.56,12.68-33.12,19.03-49.68C1099.58,875.98,1085.08,872.07,1081.66,881.01
				L1081.66,881.01z"/>
		</g>
	</g>
	<g>
		<path class="st5" d="M1119.19,768.08c-5.99,14.1-11.97,28.2-17.96,42.3c15.29-11.75,30.57-23.49,45.86-35.24
			c-19.31,2.8-38.62,5.6-57.93,8.39c20.32,7.46,40.65,14.92,60.97,22.38c-9.93-13.45-19.85-26.89-29.78-40.34"/>
		<g>
			<path class="st5" d="M1112.71,764.29c-5.99,14.1-11.97,28.2-17.96,42.3c-1.33,3.13-1.39,6.52,1.17,9.09
				c2.15,2.15,6.49,3.17,9.09,1.17c15.29-11.75,30.57-23.49,45.86-35.24c6.86-5.27,2.86-14.96-5.78-13.71
				c-19.31,2.8-38.62,5.6-57.93,8.39c-8.07,1.17-6.1,12.22,0,14.46c20.32,7.46,40.65,14.92,60.97,22.38
				c5.88,2.16,12.3-5.82,8.47-11.02c-9.93-13.45-19.85-26.89-29.78-40.34c-2.42-3.28-6.47-4.85-10.26-2.69
				c-3.23,1.84-5.09,7.01-2.69,10.26c9.93,13.45,19.85,26.89,29.78,40.34c2.82-3.67,5.65-7.34,8.47-11.02
				c-20.32-7.46-40.65-14.92-60.97-22.38c0,4.82,0,9.64,0,14.46c19.31-2.8,38.62-5.6,57.93-8.39c-1.93-4.57-3.85-9.14-5.78-13.71
				c-15.29,11.75-30.57,23.49-45.86,35.24c3.42,3.42,6.84,6.84,10.26,10.26c5.99-14.1,11.97-28.2,17.96-42.3
				c1.59-3.76,1.09-7.99-2.69-10.26C1119.84,759.73,1114.29,760.57,1112.71,764.29L1112.71,764.29z"/>
		</g>
	</g>
	<g>
		<path class="st5" d="M1064.01,646.32c-4.61,18.33-9.22,36.65-13.83,54.98c15.92-12.69,31.84-25.38,47.77-38.07
			c-21.92-2.68-44.4-0.74-65.53,5.66c21.7,2.72,42.74,10.51,60.97,22.59c-8.57-14.52-17.13-29.05-25.7-43.57"/>
		<g>
			<path class="st5" d="M1056.78,644.32c-4.61,18.33-9.22,36.65-13.83,54.98c-1.96,7.78,6.92,11.77,12.54,7.3
				c15.92-12.69,31.84-25.38,47.77-38.07c5.72-4.56,0.31-12.15-5.3-12.8c-22.66-2.63-45.66-0.55-67.53,5.93
				c-8.69,2.57-5.99,13.68,1.99,14.73c20.46,2.69,39.96,10.3,57.19,21.56c6.4,4.18,13.96-3.99,10.26-10.26
				c-8.57-14.52-17.13-29.05-25.7-43.57c-4.9-8.31-17.87-0.77-12.95,7.57c8.57,14.52,17.13,29.05,25.7,43.57
				c3.42-3.42,6.84-6.84,10.26-10.26c-19.6-12.81-41.6-20.56-64.76-23.61c0.66,4.91,1.33,9.82,1.99,14.73
				c20.71-6.13,42.09-7.88,63.54-5.39c-1.77-4.27-3.54-8.54-5.3-12.8c-15.92,12.69-31.84,25.38-47.77,38.07
				c4.18,2.43,8.36,4.86,12.54,7.3c4.61-18.33,9.22-36.65,13.83-54.98C1073.6,638.95,1059.13,634.95,1056.78,644.32L1056.78,644.32z
				"/>
		</g>
	</g>
</g>
<g id="Ebene_6">
	<g>
		<g id="Ebene_2_Kopie">
			<g>
				<path class="st6" d="M1334.78,612.54c57.69,1.74,233.33,7.66,250.78-13.99c28.36-35.18,72.2-416.52,43.4-440.7
					c-60.35-50.66-779.53-92.81-843.43-33.04c-57.61,53.9,20.9,410.35,42.94,431.86c33.31,32.51,151.37,16,206.36,34.31
					c24.52,8.16,133.55,121.63,160.81,120.34c15.47-0.73,105.79-59.77,137.31-98.67"/>
				<g>
					<path class="st7" d="M1334.78,616.24c56.62,1.71,113.44,3.41,170.06,0.86c13.62-0.61,27.25-1.51,40.77-3.1
						c10.02-1.18,20.29-2.56,29.82-5.66c5.86-1.91,11.46-4.41,14.75-9.29c2.5-3.73,4.16-7.96,5.69-12.07
						c5.03-13.51,8.23-27.59,11.27-41.55c4.35-20,7.9-40.14,11.13-60.3c7.78-48.63,13.69-97.5,18.09-146.45
						c3.88-43.09,7.13-86.49,6.05-129.74c-0.33-13.39-0.81-27.13-3.96-40.27c-0.89-3.75-2.04-7.75-4.37-11.02
						c-2.04-2.87-5.3-4.88-8.5-6.64c-9.21-5.08-19.9-8.24-30.19-11.07c-15.26-4.19-30.86-7.39-46.49-10.25
						c-43.65-8-87.93-13.36-132.18-17.98c-54.2-5.66-108.61-9.87-163.07-13.08c-56.53-3.33-113.15-5.57-169.79-6.45
						c-50.6-0.78-101.29-0.58-151.83,1.94c-36.66,1.82-74.12,4.22-109.87,12.12c-10.89,2.41-22.21,5.36-31.84,10.6
						c-10.07,5.49-15.73,14.38-19.59,24.06c-6.18,15.5-8.1,32.39-9.22,48.7c-1.49,21.75-0.93,43.6,0.43,65.35
						c3.13,50.26,10.56,100.35,19.95,149.96c7.68,40.54,16.36,81.22,28.91,120.83c3.19,10.07,6.24,21.03,12.08,30.22
						c3.76,5.91,10.91,10.08,17.57,13.07c12.33,5.55,26.11,8.22,39.69,10.06c33.69,4.57,67.92,4.35,101.82,6.92
						c15.02,1.14,30.2,2.69,44.71,6.46c4.94,1.29,6.79,1.68,10.67,3.88c3.06,1.73,5.7,3.59,8.45,5.61
						c19.34,14.17,36.84,30.41,54.7,46c19.68,17.18,39.3,34.64,60.73,50.13c7.29,5.27,14.93,10.73,23.48,14.33
						c6.51,2.73,11.87,3.23,18.53,0.7c9.93-3.76,19.09-9.27,27.98-14.64c13.28-8.02,26.1-16.64,38.6-25.61
						c24.1-17.28,48.49-35.97,66.74-58.36c3.15-3.86-4.1-7.57-7.22-3.74c-8.81,10.82-19.49,20.46-30.35,29.65
						c-12.3,10.41-25.23,20.24-38.52,29.65c-12,8.49-24.34,16.64-37.13,24.19c-7.86,4.63-17.14,10.41-25.6,12.85
						c-0.53,0.16-1.08,0.28-1.62,0.41c-1.44,0.35,0.27,0.05-0.75,0.1c-0.48,0.02-0.98-0.02-1.46-0.07c1.13,0.1-1.08-0.25-1.49-0.35
						c-3-0.76-5.54-2.02-8.62-3.66c-8.71-4.65-16.6-10.5-24.28-16.37c-21.26-16.25-41.08-33.95-61.07-51.4
						c-16.57-14.47-32.89-29.74-51.38-42.32c-7.14-4.86-14.42-7.37-23.21-9.32c-14.73-3.27-29.98-4.68-45.1-5.76
						c-33.37-2.36-67.23-2.01-100.31-6.98c-12.82-1.93-26.15-4.58-37.44-10.53c-2.16-1.14-4.26-2.39-6.15-3.84
						c-1.04-0.8-1.99-1.66-2.97-2.52c-0.23-0.2-1.41-1.57-0.36-0.29c-0.91-1.1-1.64-2.29-2.33-3.51c-1.97-3.51-3.57-7.55-5.33-12.24
						c-2.36-6.31-4.43-12.7-6.39-19.11c-5.45-17.8-10.04-35.82-14.3-53.86c-11.11-47.13-19.88-94.76-26.15-142.59
						c-5.9-45.04-10.52-91.01-6.95-136.36c1.22-15.39,3.27-31.29,9.58-45.79c1.9-4.36,5.22-9.89,8.59-13.08
						c0.58-0.56,1.2-1.09,1.84-1.6c0.29-0.23,0.59-0.45,0.89-0.67c1.04-0.78-0.43,0.24,0.7-0.48c1.69-1.06,3.45-2.04,5.27-2.92
						c4.95-2.39,7.95-3.39,13.35-5.01c6.18-1.85,12.49-3.33,18.84-4.62c15.78-3.19,31.85-5.25,47.93-6.86
						c44.44-4.45,89.29-5.76,133.99-6.18c54.15-0.51,108.31,0.63,162.41,2.76c55.63,2.2,111.22,5.5,166.68,9.98
						c49.28,3.98,98.51,8.82,147.42,15.49c35.28,4.81,70.98,10.07,105.15,19.41c5.78,1.58,11.52,3.32,17.12,5.35
						c1.05,0.38,1.01,0.36,2.65,1.01c1.12,0.44,2.24,0.91,3.33,1.39c1.88,0.83,3.72,1.71,5.5,2.68c0.75,0.41,1.48,0.85,2.21,1.29
						c0.37,0.22,0.73,0.47,1.08,0.71c-1.14-0.77,0.06,0.04,0.32,0.24c0.51,0.41,1,0.81,1.49,1.23c0.84,0.75-0.43-0.63,0.09,0.1
						c0.21,0.29,0.43,0.56,0.61,0.86c0.23,0.37,1.27,2.38,0.73,1.21c0.39,0.84,0.73,1.71,1.04,2.57c0.76,2.14,1.32,4.33,1.79,6.53
						c2.66,12.27,3.12,26.29,3.37,39.52c0.38,19.7-0.25,39.41-1.24,59.09c-2.41,47.96-7.06,95.86-12.97,143.57
						c-5.35,43.2-11.53,86.44-20.82,129.13c-3.01,13.84-6.19,27.81-11.15,41.23c-1.68,4.54-2.43,6.85-4.97,10.62
						c-1.08,1.61-1.74,2.24-3.33,3.13c-3.03,1.7-5.51,2.56-8.84,3.51c-9.89,2.84-20.35,4.2-30.64,5.27
						c-13.64,1.42-27.35,2.19-41.06,2.73c-31.19,1.22-62.45,1.14-93.66,0.66c-23.56-0.36-47.1-1.04-70.64-1.76
						C1329.4,608.67,1329.41,616.07,1334.78,616.24L1334.78,616.24z"/>
				</g>
			</g>
		</g>
		<g id="Ebene_8">
			<g>
				<g>
					<path class="st7" d="M1504.89,314.49c-5.52,57.21-11.05,114.41-16.57,171.63c-0.6,6.26,3.69,13.98,8.55,18.28
						c5.07,4.48,13.38,7.86,20.65,7.57c7.55-0.3,15.39-2.5,20.65-7.57c5.49-5.3,7.86-11.12,8.55-18.28
						c5.52-57.21,11.05-114.41,16.57-171.63c0.6-6.26-3.69-13.98-8.55-18.28c-5.07-4.48-13.38-7.86-20.65-7.57
						c-7.55,0.3-15.39,2.5-20.65,7.57C1507.96,301.5,1505.58,307.32,1504.89,314.49L1504.89,314.49z"/>
				</g>
			</g>
		</g>
		<g id="Ebene_7_1_">
			<g class="st8">
				<g>
					<path class="st4" d="M1395.96,168.26c17.75,2.63,35.75,3.8,53.64,5.39c4.94,0.44,9.88,0.89,14.81,1.39
						c2.4,0.24,4.81,0.49,7.21,0.75c1.2,0.13,2.4,0.27,3.61,0.4c3.96,0.44-3.35-0.43,0.68,0.08c9.38,1.17,18.74,2.51,27.98,4.37
						c4.3,0.86,8.57,1.84,12.78,2.98c1.89,0.52,3.78,1.06,5.65,1.66c0.9,0.29,1.79,0.59,2.68,0.89c3.66,1.22-2.59-1.12-0.34-0.15
						c3.15,1.36,6.28,2.67,9.2,4.41c0.62,0.37,1.24,0.88,1.89,1.19c-0.93-0.44-3.32-2.49-1.39-0.89c1.12,0.93,2.17,2.22,3.37,3.04
						c-0.66-0.45-2.6-3.35-1.24-1.36c0.33,0.49,0.68,1,1.03,1.48c2.03,2.83-0.8-2.99-0.37-0.89c0.22,1.06,1.01,4.96,0.46,1.32
						c-0.54-3.6-0.12-0.69-0.03,0.18c0.08,0.83,0.15,1.65,0.21,2.47c0.13,1.89,0.18,3.78,0.21,5.68c0.39,25.97-2.71,52.1-5.36,77.92
						c-3.75,36.58-8.19,73.1-12.7,109.61c-4.26,34.53-8.7,69.05-12.77,103.6c-0.43,3.58-0.83,7.16-1.25,10.74
						c-0.88,7.71,8.3,15.11,16.69,14.78c9.8-0.39,15.75-6.51,16.69-14.78c3.91-34.06,8.27-68.08,12.5-102.11
						c4.66-37.5,9.27-75.02,13.25-112.58c2.94-27.73,6.21-55.69,6.34-83.57c0.03-7.14,0.38-15.48-2.52-22.22
						c-6.8-15.78-24.54-23.6-41.68-28.47c-19.25-5.47-39.69-7.71-59.7-9.79c-18.55-1.92-37.19-3.12-55.73-5.13
						c-0.92-0.1-1.84-0.21-2.75-0.31c-2.79-0.31,4.39,0.56,1.05,0.12c-1.75-0.23-3.5-0.46-5.24-0.72
						c-8.58-1.27-18.39,1.99-20.53,10.32C1382.47,157.23,1386.75,166.9,1395.96,168.26L1395.96,168.26z"/>
				</g>
			</g>
			<g class="st8">
				<g>
					<path class="st4" d="M1505.82,568.26c0.56,3.23,1.12,6.46,1.68,9.68c8.17-5.56,16.35-11.13,24.52-16.69
						c-4.24-2.38-8.47-4.76-12.71-7.14c1.13,7.73,2.25,15.47,3.38,23.21c-1.92,1.43-3.73,2.45-6.28,2.77
						c-0.98,0.26-1.98,0.26-2.96-0.01c-1.71-0.27-1.96-0.28-0.74-0.03c-1.86-0.61-3.28-1.35-4.77-2.53
						c0.84,0.76,0.72,0.59-0.36-0.51c-0.99-0.92-1.69-2-2.08-3.25c2.55-5.56,5.12-11.13,7.67-16.69c0.23-0.12,4.04-1.11,1.94-0.73
						c2.07-0.37,3.86-0.41,5.93-0.04c-2.11-0.38,1.62,0.68,1.88,0.79c-1.9-0.78,1.32,0.89,1.58,1.12c1.34,1.18,2.16,2.76,2.71,4.34
						c-0.9-2.56-0.24,5.42-0.2,5.17c0.35-1.86-0.61,1.32-0.8,1.63c-0.54,0.64-1.08,1.27-1.63,1.9c-2.31,1.43-2.91,1.83-1.82,1.23
						c1.75-0.79-3.67,1.18-1.81,0.67c0.86-0.18,0.5-0.14-1.06,0.13c-0.96,0.26-1.93,0.28-2.9,0.07c-3.83-0.38-7.11-2.43-8.6-5.6
						c-1.4-2.99-0.03,1.51-0.55-1.82c-0.52-3.3-0.49,1.37-0.03-1.94c-0.03-0.89,0.23-1.71,0.76-2.46c0.68-1.23,0.81-1.52,0.4-0.87
						c-0.74,1.13,2.99-2.78,0.88-1.3c8.74,1,17.47,1.99,26.21,2.99c-0.91-1.23-1.82-2.46-2.73-3.69c-4.77-6.46-15-9.77-22.83-5.3
						c-7.29,4.16-11.1,13.3-5.99,20.21c0.91,1.23,1.82,2.46,2.73,3.69c2.93,3.96,6.88,6.42,12.19,7.06
						c5.64,0.67,9.69-1.03,14.02-4.06c8.7-6.1,9.68-18.87,3.91-26.8c-6.85-9.43-21.46-12.38-32.1-6.07
						c-10.27,6.08-14.9,18.75-7.48,28.27c7.18,9.21,21.03,12.71,32.23,6.95c6.4-3.29,9.6-10.39,7.67-16.69
						c-2.08-6.81-8.33-12.54-16.11-14.35c-8.44-1.97-15.96,0.01-22.49,4.86c-8.6,6.38-4.99,18.51,3.38,23.21
						c4.24,2.38,8.47,4.76,12.71,7.14c5.65,3.17,13.44,2.33,18.53-1.15c5.71-3.91,7.04-9.46,5.98-15.53
						c-0.56-3.23-1.12-6.46-1.68-9.68c-0.59-3.41-4.46-7.17-7.67-8.83c-3.58-1.85-8.85-2.64-12.86-1.49
						c-4.04,1.16-7.94,3.38-9.97,6.79C1505.27,560.61,1505.1,564.11,1505.82,568.26L1505.82,568.26z"/>
				</g>
			</g>
		</g>
		<g id="Ebene_2_1_">
			<g>
				<g>
					<path d="M1307.86,648.81c56.7,1.73,113.59,3.45,170.29,0.93c13.64-0.61,27.28-1.49,40.83-3.07
						c10.77-1.26,21.81-2.57,32.07-5.89c7.94-2.57,15.2-5.98,19.69-12.57c2.86-4.2,4.77-9.01,6.51-13.65
						c5.07-13.5,8.29-27.59,11.33-41.53c4.38-20.04,7.94-40.23,11.18-60.45c7.87-49.12,13.89-98.49,18.32-147.95
						c3.86-43.03,7.1-86.4,5.9-129.59c-0.38-13.78-1-27.94-4.36-41.45c-1.07-4.3-2.61-8.81-5.3-12.54
						c-2.86-3.97-7.24-6.83-11.73-9.23c-9.99-5.36-21.51-8.75-32.62-11.77c-15.4-4.17-31.13-7.35-46.89-10.21
						c-44.34-8.04-89.31-13.42-134.24-18.09c-54.17-5.63-108.52-9.83-162.94-13.03c-56.46-3.32-113-5.58-169.57-6.47
						c-50.43-0.8-100.94-0.63-151.32,1.82c-37.53,1.82-75.9,4.26-112.51,12.21c-11.64,2.53-23.73,5.73-34.06,11.25
						c-11.92,6.37-18.72,16.46-23.4,27.82c-6.57,15.96-8.53,33.53-9.72,50.37c-1.54,21.72-0.98,43.55,0.38,65.27
						c3.16,50.69,10.76,101.22,20.3,151.26c7.75,40.66,16.52,81.48,29.24,121.18c3.37,10.51,6.7,21.96,12.87,31.52
						c4.55,7.05,12.85,12.21,20.89,15.76c13.27,5.86,27.81,8.84,42.39,10.76c34.53,4.56,69.52,4.45,104.25,7.14
						c3.81,0.3,7.63,0.63,11.43,1.01c1.01,0.1,2.03,0.21,3.04,0.32c0.54,0.06,3.95,0.47,0.66,0.07c1.95,0.24,3.9,0.49,5.84,0.76
						c7.19,1.02,14.35,2.3,21.33,4.17c1.33,0.35,2.65,0.73,3.96,1.13c0.74,0.23,1.53,0.58,2.29,0.72c1.55,0.3-3.34-1.52-1.96-0.73
						c1.15,0.66,2.45,1.14,3.61,1.79c1.36,0.76,2.65,1.6,3.96,2.43c2.93,1.88-2.02-1.47,0.28,0.18c1.01,0.72,2.03,1.44,3.03,2.18
						c19.26,14.13,36.75,30.22,54.59,45.7c19.75,17.13,39.44,34.57,60.98,49.97c7.82,5.59,15.96,11.47,25.14,15.27
						c4.33,1.8,8.79,3.35,13.64,3.45c4.87,0.1,9-1.36,13.36-3.05c10.03-3.9,19.32-9.41,28.35-14.86c13.76-8.3,27.05-17.24,40-26.49
						c24.58-17.55,49.03-36.51,67.67-59.24c3.97-4.85,0.93-12.35-4.49-15.16c-6.33-3.27-13.14-0.88-17.12,3.97
						c-0.53,0.65-3.83,4.39-1.56,1.89c-1.01,1.12-2.02,2.24-3.05,3.34c-2.4,2.56-4.88,5.06-7.42,7.51
						c-5.46,5.27-11.17,10.34-17.03,15.27c-12.32,10.37-25.25,20.15-38.56,29.49c-1.43,1-2.85,1.99-4.29,2.99
						c-0.27,0.18-3.12,2.14-0.88,0.61c-0.84,0.58-1.69,1.15-2.55,1.72c-3.3,2.23-6.63,4.43-9.99,6.6
						c-5.84,3.78-11.75,7.45-17.78,10.99c-4.89,2.87-9.86,5.65-14.96,8.21c-1.91,0.95-3.84,1.88-5.81,2.73
						c-0.83,0.35-2.01,0.63-2.73,1.13c2.64-1.83,2.15-0.73,0.23-0.15c-0.65,0.2-1.34,0.32-1.98,0.52c-2.19,0.71,2.26-0.07,1.74-0.18
						c-0.37-0.07-1.39-0.13-1.74-0.06c3.2-0.64,3.13,0.58,1.06-0.01c-0.71-0.2-1.43-0.43-2.14-0.62c-2.53-0.67,3.08,1.33,0.68,0.25
						c-1.73-0.78-3.45-1.54-5.12-2.42c-3.97-2.08-7.7-4.47-11.4-6.91c-0.68-0.44-2.75-1.63,0.36,0.26
						c-0.58-0.35-1.12-0.77-1.66-1.15c-1.04-0.73-2.09-1.47-3.11-2.22c-2.39-1.72-4.75-3.47-7.09-5.25
						c-21.25-16.13-41.07-33.72-61.05-51.06c-17.21-14.94-34.17-30.55-53.38-43.51c-7.43-5.02-15.33-7.81-24.42-9.87
						c-15.72-3.57-32.09-5.06-48.24-6.21c-16.94-1.2-33.92-1.81-50.88-2.69c-8.39-0.44-16.77-0.93-25.14-1.6
						c-3.86-0.31-7.7-0.66-11.54-1.06c-1.03-0.11-2.04-0.22-3.07-0.33c-3.31-0.36,1.84,0.27-0.21-0.02
						c-2.14-0.31-4.29-0.55-6.43-0.86c-7.04-1.03-14.05-2.32-20.9-4.13c-2.98-0.78-5.85-1.76-8.78-2.68
						c-2.7-0.85,2.55,1.12,0.03,0.01c-0.7-0.31-1.44-0.58-2.14-0.88c-1.38-0.59-2.73-1.22-4.05-1.89c-1.28-0.65-2.52-1.34-3.73-2.08
						c-0.39-0.24-0.77-0.5-1.17-0.73c-2.15-1.24,2.14,1.76,0.31,0.2c-1.34-1.14-2.83-2.82-4.34-3.72c2.91,1.74,2.09,2.67,1.29,1.43
						c-0.15-0.24-0.33-0.47-0.5-0.69c-0.46-0.66-0.86-1.34-1.26-2.03c-0.43-0.76-0.82-1.54-1.23-2.31
						c-1.24-2.36,0.83,1.84,0.45,0.96c-0.23-0.53-0.48-1.05-0.72-1.57c-1.07-2.4-2.04-4.84-2.96-7.28
						c-2.4-6.35-4.51-12.79-6.51-19.25c-5.47-17.7-10.07-35.61-14.35-53.56c-5.34-22.46-10.08-45.03-14.32-67.66
						c-2.34-12.48-4.52-24.99-6.55-37.51c-0.48-2.97-0.95-5.94-1.41-8.91c-0.12-0.78-0.78-5.15-0.3-1.92
						c-0.28-1.89-0.57-3.79-0.85-5.68c-0.92-6.22-1.79-12.44-2.61-18.68c-5.94-44.91-10.61-90.78-6.98-136
						c0.37-4.57,0.84-9.14,1.46-13.69c0.13-1,0.85-4.3,0.03-0.35c0.22-1.06,0.34-2.15,0.52-3.21c0.35-2.06,0.74-4.12,1.18-6.18
						c1.45-6.89,3.44-13.65,6.25-20.2c0.16-0.37,0.38-0.73,0.51-1.11c0.05-0.16-1.48,2.93-0.74,1.57c0.37-0.69,0.7-1.4,1.08-2.08
						c0.71-1.31,1.48-2.59,2.32-3.84c0.72-1.07,1.54-2.08,2.31-3.12c1.38-1.85-2.45,2.47-0.39,0.47c0.47-0.46,0.92-0.94,1.4-1.39
						c0.57-0.52,1.18-1.01,1.79-1.51c0.35-0.28,0.75-0.52,1.09-0.81c0.33-0.28-3.3,2.08-1.15,0.81c1.74-1.02,3.48-2.02,5.32-2.9
						c0.98-0.47,1.96-0.9,2.96-1.32c0.58-0.24,1.15-0.47,1.73-0.7c2.84-1.16-1.68,0.59-0.88,0.32c2.55-0.87,5.07-1.75,7.66-2.51
						c6.22-1.83,12.57-3.29,18.96-4.57c7.46-1.48,14.99-2.7,22.54-3.76c1.98-0.28,3.96-0.54,5.93-0.8c0.92-0.12,1.84-0.24,2.76-0.35
						c0.56-0.07,1.12-0.14,1.68-0.21c3.17-0.39-2.68,0.3-0.5,0.06c4.5-0.51,9-1,13.52-1.46c44.45-4.37,89.29-5.64,133.98-6.04
						c53.79-0.47,107.58,0.66,161.31,2.79c55.72,2.2,111.39,5.5,166.95,9.97c25.87,2.08,51.72,4.43,77.51,7.12
						c12.3,1.28,24.61,2.56,36.87,4.1c-3.29-0.41-0.28-0.03,1.22,0.15c1.5,0.18,3,0.36,4.51,0.55c2.96,0.36,5.93,0.73,8.9,1.11
						c5.52,0.7,11.06,1.43,16.57,2.17c35.36,4.79,71.11,10.04,105.39,19.3c5.78,1.56,11.52,3.27,17.13,5.27
						c0.53,0.18,1.05,0.4,1.58,0.58c-4.72-1.56-1.98-0.75-0.87-0.31c1.14,0.45,2.27,0.9,3.39,1.39c1.91,0.82,3.8,1.7,5.62,2.67
						c0.77,0.41,1.53,0.83,2.26,1.29c0.34,0.21,0.68,0.44,1.03,0.64c1.84,1.08-2.95-2.27-1.24-0.85c0.51,0.42,1.05,0.86,1.59,1.26
						c1.94,1.4-1.97-3.1-0.57-0.62c0.33,0.6,0.68,1.27,1.08,1.83c-2.03-2.93-0.81-1.86-0.1,0.05c0.74,1.99,1.3,4.05,1.77,6.11
						c0.27,1.16,0.5,2.33,0.72,3.5c0.13,0.69,0.24,1.37,0.36,2.06c0.52,2.94-0.38-2.81-0.06-0.41c0.42,3.1,0.78,6.19,1.07,9.29
						c0.69,7.71,1.02,15.44,1.18,23.18c0.41,19.46-0.19,38.94-1.15,58.39c-2.36,48.02-7.01,95.97-12.94,143.74
						c-1.49,11.96-3.06,23.91-4.75,35.85c-0.82,5.78-1.66,11.55-2.52,17.32c-0.1,0.65-0.5,3.28,0,0.01
						c-0.09,0.61-0.18,1.23-0.28,1.84c-0.21,1.34-0.41,2.68-0.62,4.03c-0.45,2.89-0.91,5.77-1.37,8.65
						c-3.18,19.73-6.68,39.44-10.95,59.01c-3.02,13.84-6.22,27.81-11.21,41.22c-0.82,2.19-1.86,4.29-2.69,6.47
						c1.66-4.4,0.55-1.15-0.12,0.06c-0.43,0.76-0.89,1.48-1.36,2.22c-0.18,0.3-0.44,0.55-0.62,0.86c-0.88,1.53,2.65-2.25,0.94-1.09
						c-0.44,0.3-1.03,0.78-1.39,1.16c-0.65,0.68-2.4-0.13,1.72-1.17c-0.4,0.1-0.83,0.54-1.21,0.72c-1.34,0.66-2.67,1.25-4.03,1.86
						c-1.81,0.81,3.25-1.05,1.28-0.49c-0.46,0.13-0.91,0.31-1.37,0.46c-0.97,0.31-1.95,0.61-2.94,0.88
						c-4.46,1.24-9.03,2.14-13.61,2.9c-2.56,0.43-5.12,0.81-7.7,1.15c-1,0.13-6.13,0.92-1.93,0.26c-1.54,0.24-3.15,0.35-4.71,0.52
						c-13.81,1.43-27.71,2.19-41.6,2.72c-31.07,1.17-62.21,1.09-93.3,0.59c-23.58-0.37-47.16-1.06-70.74-1.78
						c-6.76-0.21-12.52,5.24-12.52,11.08C1295.34,643.9,1301.07,648.6,1307.86,648.81L1307.86,648.81z"/>
				</g>
			</g>
		</g>
		<g id="Ebene_5">
			<g>
				<g>
					<path class="st4" d="M1007.39,405.64c39.11,46.51,78.2,93.02,117.31,139.53c5.68,6.76,11.65,11.19,21.34,12.35
						c8.6,1.02,18.58-1,24.54-7.11c37.91-38.9,75.83-77.82,113.75-116.72c37.91-38.9,75.83-77.82,113.75-116.72
						c21.41-21.96,42.81-43.94,64.22-65.9c5.12-5.26,8.55-11.14,8.55-18.28c0-6.34-3.18-13.92-8.55-18.28
						c-10.95-8.9-30.65-10.93-41.31,0c-37.91,38.9-75.83,77.82-113.75,116.72c-37.91,38.9-75.83,77.82-113.75,116.72
						c-21.41,21.96-42.81,43.94-64.22,65.9c15.29,1.74,30.59,3.49,45.87,5.23c-39.11-46.51-78.2-93.02-117.31-139.53
						c-4.71-5.6-9.56-9.96-17.46-11.88c-6.99-1.71-16.3-0.94-22.51,2.61c-6.23,3.56-11.73,8.86-13.42,15.46
						C1002.82,392.07,1002.8,400.18,1007.39,405.64L1007.39,405.64z"/>
				</g>
			</g>
		</g>
		<g id="Ebene_9_1_">
			<g class="st9">
				<path d="M779.67,132.04c0,207.6,260.59,452.86,438.3,578.04c-22,5.2-49.62-22.21-98.01-56.29
					c-68.39-48.17-49.29-54.06-87.33-67.54c-31.6-11.2-70.21-8.16-104.24-9.12c-31.36-0.88-70.58-5.78-90.67-19.8
					c-26.5-18.48-73.79-253.01-68.25-397.13"/>
				<g>
					<path d="M771.32,132.04c0.08,43.09,10.83,85.79,27.33,126.18c18.29,44.78,43.32,87.26,71.84,127.56
						c30.25,42.75,64.54,83.25,101.11,121.92c36.08,38.14,74.53,74.51,114.77,109.21c36.09,31.12,73.62,60.96,112.68,89.12
						c4.31,3.11,8.65,6.2,13,9.26c1.23-4.11,2.45-8.23,3.68-12.34c-0.59,0.13-1.18,0.24-1.78,0.35c2.21-0.41,0.34-0.02-0.19-0.01
						c-1.03,0.01-2.05,0.03-3.09-0.02c-2.37-0.1,0.77,0.29-1.6-0.23c-1.34-0.29-2.65-0.59-3.96-0.98c-0.68-0.21-1.36-0.44-2.04-0.66
						c1.5,0.52-0.07-0.02-0.43-0.18c-1.33-0.56-2.64-1.13-3.93-1.74c-2.86-1.37-5.62-2.92-8.33-4.54
						c-14.35-8.59-27.28-19.05-40.52-28.9c-25.9-19.29-53.38-37.04-75.23-60.15c-4.36-4.61-8.45-9.51-13.53-13.53
						c-6.35-5.04-13.7-8.53-21.5-11.47c-38.48-14.5-80.6-9.35-121.23-11.55c-18.53-1-37.27-3.22-54.91-8.53
						c-7.24-2.18-14.15-5.05-20.35-9.05c-0.92-0.59,0.79,0.87-0.33-0.3c-0.26-0.27-0.56-0.53-0.84-0.78
						c-0.91-0.79-0.5-1.34,0.28,0.38c-0.2-0.44-0.73-0.89-1.04-1.3c-1.52-2-2.78-4.16-3.95-6.34c-0.38-0.71-0.75-1.43-1.11-2.14
						c-0.27-0.54-1.29-2.76-0.28-0.55c-0.7-1.55-1.42-3.1-2.09-4.67c-3.32-7.8-6.08-15.8-8.62-23.83
						c-15.71-49.54-25.05-100.89-32.8-151.8c-9.09-59.74-15.36-120.21-14.96-180.54c0.04-6.58,0.18-13.14,0.43-19.72
						c0.36-9.51-16.33-9.5-16.69,0c-2.26,60.2,3.41,120.73,11.67,180.45c7.58,54.89,17.15,110,32.66,163.62
						c4.65,16.09,9.57,32.67,17.93,47.62c2.9,5.19,6.41,9.46,11.73,12.88c14.25,9.18,32.73,13.29,49.82,15.92
						c19.95,3.07,40.1,3.96,60.32,4.04c20.76,0.09,41.89-0.43,62.41,2.95c5.04,0.83,10.04,1.88,14.93,3.24
						c2.2,0.61,4.38,1.28,6.53,2.01c0.91,0.31,1.8,0.64,2.7,0.95c1.58,0.57-0.93-0.38,1,0.38c4.01,1.57,7.96,3.25,11.66,5.33
						c0.68,0.38,1.34,0.78,1.99,1.18c0.89,0.55,2.08,1.47,0.5,0.29c1.32,1,2.65,1.96,3.9,3.04c2.34,2.02,4.47,4.23,6.56,6.45
						c6.38,6.79,12.77,13.5,19.8,19.78c13.47,12.02,28.35,22.57,43.18,33.22c15.94,11.44,31.26,23.57,47.38,34.83
						c10.62,7.41,22.18,15.6,35.54,18.65c5.55,1.27,11.27,1.43,16.85,0.18c5.62-1.25,8.68-8.83,3.68-12.34
						c-38.28-26.99-75.09-55.62-110.53-85.48c-39.92-33.63-78.14-68.87-114.19-105.76c-36.74-37.57-71.23-76.95-102.08-118.5
						c-29.24-39.38-55.58-80.84-75.37-124.66c-17.78-39.38-30.73-81.08-33.22-123.29c-0.3-5.02-0.44-10.05-0.45-15.09
						C788,122.54,771.31,122.52,771.32,132.04L771.32,132.04z"/>
				</g>
			</g>
		</g>
	</g>
</g>
<g id="Ebene_3">
</g>
</svg>
