<?xml version="1.0" encoding="utf-8"?>
<!-- Generator: Adobe Adobe Illustrator 24.2.0, SVG Export Plug-In . SVG Version: 6.00 Build 0)  -->
<svg version="1.1" xmlns="http://www.w3.org/2000/svg" xmlns:xlink="http://www.w3.org/1999/xlink" x="0px" y="0px"
	 viewBox="0 0 170.08 170.08" style="enable-background:new 0 0 170.08 170.08;" xml:space="preserve">
<style type="text/css">
	.st0{fill:#ECC9AD;}
	.st1{opacity:0.1608;}
	.st2{opacity:0.1686;}
	.st3{fill:#FFFFFF;}
	.st4{fill:#305C82;}
	.st5{fill:#808E9C;}
	.st6{fill:#7F8E9C;stroke:#000000;stroke-width:1.6551;stroke-miterlimit:10.0004;}
	.st7{opacity:0.2196;}
	.st8{fill:#F3C158;}
	.st9{fill:#F0F6FA;}
	.st10{opacity:0.149;}
	.st11{opacity:0.0314;}
	.st12{stroke:#000000;stroke-width:0.0692;stroke-miterlimit:10;}
	.st13{fill:#F0F6FA;stroke:#F0F6FA;stroke-width:1.1522;stroke-miterlimit:10;}
	.st14{fill:#C8354F;}
	.st15{fill:#C93550;}
	.st16{fill:#6DB671;}
	.st17{fill:#6CB671;}
	.st18{fill:#D1DFEA;}
	.st19{fill:#D3E1ED;}
	.st20{fill:#C8354E;}
	.st21{fill:#F3C058;}
	.st22{fill:#C8AE9D;}
	.st23{opacity:0.0784;}
	.st24{opacity:0.1412;}
	.st25{fill:#D15238;}
	.st26{fill:#D15239;}
	.st27{opacity:0.9882;}
	.st28{fill:#ADBECF;}
	.st29{fill:#F3C057;}
	.st30{fill:#F7D98D;}
	.st31{fill:#AEBFCE;}
	.st32{opacity:0.2706;}
	.st33{fill:#3D4C5B;}
</style>
<g id="Ebene_4_5_">
</g>
<g id="Ebene_6_11_">
</g>
<g id="Ebene_15_1_">
</g>
<g id="Ebene_13_1_">
</g>
<g id="Ebene_10_4_">
</g>
<g id="Ebene_11_1_">
</g>
<g id="Ebene_9_6_">
</g>
<g id="Ebene_14_1_">
	<g>
		<g id="Ebene_9_5_">
			<g>
				<path class="st4" d="M30.78,31.37c3.51,32.78,6.49,65.63,8.96,98.53c10.4,3.16,21.55,1.71,32.02-1.2
					c10.47-2.91,20.57-7.23,31.1-9.86c16.88-4.22,34.7-3.97,51.47,0.72c-0.91-30.94-2.82-61.84-5.74-92.64
					c-0.26-2.75-0.6-5.69-2.3-7.75c-1.35-1.63-3.34-2.44-5.28-3.04c-12.09-3.71-25.09-1.46-37.09,2.55s-23.5,9.76-35.66,13.2
					s-25.45,4.45-36.99-0.94"/>
				<g>
					<path class="st4" d="M30.05,31.37c1.37,12.78,2.65,25.57,3.86,38.36s2.34,25.6,3.39,38.42c0.59,7.25,1.16,14.5,1.71,21.75
						c0.03,0.36,0.21,0.67,0.54,0.77c14.86,4.47,30.22-0.15,44.44-5.03c7.35-2.52,14.69-5.14,22.26-6.77
						c7.4-1.59,14.96-2.32,22.51-2.21c8.56,0.13,17.09,1.36,25.38,3.67c0.45,0.13,0.95-0.24,0.93-0.77
						c-0.47-16-1.21-31.99-2.22-47.96c-0.5-7.94-1.07-15.88-1.7-23.81c-0.32-3.97-0.65-7.93-1-11.89
						c-0.33-3.77-0.56-7.58-1.08-11.32c-0.45-3.23-1.65-6.12-4.39-7.76c-1.36-0.81-2.86-1.29-4.36-1.71
						c-1.61-0.46-3.25-0.81-4.89-1.07c-6.77-1.06-13.65-0.57-20.35,0.79c-13.81,2.8-26.59,9.35-39.88,14.02
						C62.74,33.22,49.04,36.05,36.16,32c-1.53-0.48-3.04-1.06-4.51-1.74c-0.86-0.4-1.62,0.98-0.75,1.38
						c12.11,5.61,25.78,4.45,38.23,0.83c13.4-3.9,25.98-10.51,39.39-14.38c6.57-1.9,13.35-3.14,20.17-3.03
						c3.41,0.06,6.81,0.46,10.14,1.3c2.85,0.72,6.2,1.59,7.71,4.6c0.69,1.37,0.98,2.95,1.16,4.48c0.22,1.81,0.36,3.63,0.52,5.45
						c0.36,3.96,0.71,7.92,1.04,11.89c0.65,7.84,1.24,15.69,1.77,23.54c1.05,15.79,1.85,31.6,2.38,47.42
						c0.06,1.94,0.13,3.89,0.18,5.83c0.31-0.26,0.62-0.51,0.93-0.77c-14.66-4.08-30.06-4.82-45.01-2.18
						c-7.61,1.34-14.98,3.72-22.32,6.25c-7.25,2.49-14.5,5.07-21.99,6.62c-8.33,1.72-17.03,2.14-25.28-0.34
						c0.18,0.26,0.36,0.51,0.54,0.77c-0.96-12.82-2-25.64-3.12-38.44c-1.12-12.81-2.32-25.61-3.6-38.39
						c-0.72-7.23-1.47-14.46-2.24-21.69C31.41,30.37,29.94,30.35,30.05,31.37L30.05,31.37z"/>
				</g>
			</g>
		</g>
		<g id="Ebene_7_5_">
			<g>
				<path class="st5" d="M16.92,21.68c0.05,1.57-0.09,5.07-0.05,6.64c3.26-0.97,6.47-1.63,10.07-1.58
					c-0.14-4.35-0.58-6.47-0.58-6.47s0.07-0.76-9.48,1.39"/>
				<g>
					<path d="M16.12,21.68c0.06,2.21-0.11,4.42-0.05,6.64c0.02,0.56,0.5,0.98,1.01,0.83c3.23-0.95,6.5-1.58,9.86-1.55
						c0.42,0,0.81-0.4,0.8-0.86c-0.07-2.02-0.19-4.04-0.49-6.03c-0.02-0.17-0.05-0.33-0.08-0.5c-0.02-0.11-0.07-0.4,0,0.06
						c-0.04-0.25-0.07-0.45-0.25-0.64c-0.3-0.32-0.75-0.34-1.14-0.35c-0.85-0.01-1.7,0.13-2.53,0.26c-2.2,0.33-4.38,0.8-6.56,1.29
						c-1,0.22-0.58,1.88,0.42,1.66c1.92-0.43,3.85-0.85,5.8-1.17c0.85-0.14,1.65-0.28,2.59-0.31c0.19-0.01,0.38,0.02,0.57,0.01
						c0.14,0-0.25-0.07-0.05,0c0.13,0.04,0.05,0.03-0.09-0.05c-0.21-0.13-0.24-0.38-0.34-0.69c0.06,0.19,0.07,0.46,0.1,0.66
						c0.3,1.83,0.41,3.86,0.47,5.82c0.26-0.29,0.53-0.57,0.8-0.86c-3.49-0.03-6.92,0.62-10.28,1.61c0.34,0.28,0.67,0.55,1.01,0.83
						c-0.06-2.21,0.11-4.42,0.05-6.64C17.68,20.58,16.09,20.57,16.12,21.68L16.12,21.68z"/>
				</g>
			</g>
			<g>
				<path class="st5" d="M19.09,27.94c2.68,45.07,5.48,90.95,8.16,136.02c2.64-0.46,4.91-0.63,7.79,0.21
					c-3.26-45-5.92-91.92-9.18-136.92"/>
				<g>
					<path d="M18.3,27.94c1.05,17.71,2.12,35.42,3.18,53.12c1.06,17.67,2.13,35.34,3.19,53.01c0.6,9.96,1.19,19.92,1.79,29.88
						c0.04,0.6,0.48,0.92,1.01,0.83c2.49-0.43,4.91-0.49,7.36,0.21c0.47,0.13,1.05-0.26,1.01-0.83c-0.64-8.83-1.25-17.65-1.84-26.48
						c-0.6-8.96-1.19-17.92-1.77-26.88c-0.58-8.95-1.15-17.9-1.73-26.85c-0.58-8.92-1.16-17.85-1.75-26.77
						c-0.59-8.89-1.2-17.77-1.84-26.66c-0.08-1.09-0.16-2.18-0.24-3.27c-0.08-1.1-1.67-1.11-1.59,0c0.64,8.83,1.25,17.65,1.84,26.48
						c0.6,8.96,1.19,17.92,1.77,26.88c0.58,8.95,1.15,17.9,1.73,26.85c0.58,8.92,1.16,17.85,1.75,26.77
						c0.59,8.89,1.2,17.77,1.84,26.66c0.08,1.09,0.16,2.18,0.24,3.27c0.34-0.28,0.67-0.55,1.01-0.83c-2.74-0.78-5.43-0.69-8.21-0.21
						c0.34,0.28,0.67,0.55,1.01,0.83c-1.05-17.71-2.12-35.42-3.18-53.12c-1.06-17.67-2.13-35.34-3.19-53.01
						c-0.6-9.96-1.19-19.92-1.79-29.88C19.82,26.84,18.23,26.83,18.3,27.94L18.3,27.94z"/>
				</g>
			</g>
			<g>
				<g>
					<path d="M19.19,18.31c0.26,0.9,0.14,1.88,0.4,2.79c0.31,1.05,1.84,0.6,1.53-0.46c-0.26-0.9-0.14-1.88-0.4-2.79
						C20.42,16.79,18.88,17.24,19.19,18.31L19.19,18.31z"/>
				</g>
			</g>
			<g>
				<g>
					<path d="M21.96,17.96c0.03,0.22,0.02,0.47,0,0.73c-0.03,0.36,0.01,0.71,0.06,1.06c0.07,0.46,0.6,0.72,0.98,0.6
						c0.45-0.13,0.63-0.6,0.56-1.06c-0.03-0.22-0.02-0.47,0-0.73c0.03-0.36-0.01-0.71-0.06-1.06c-0.07-0.46-0.6-0.72-0.98-0.6
						C22.06,17.04,21.89,17.5,21.96,17.96L21.96,17.96z"/>
				</g>
			</g>
			<g>
				<g>
					<path d="M26.76,28.2c6.66,4.37,14.37,6.39,22.11,6.7c7.95,0.32,15.88-1.09,23.51-3.39c8.52-2.56,16.74-6.12,25.07-9.29
						c7.97-3.03,16.19-5.85,24.61-6.89c3.75-0.46,7.57-0.53,11.32,0.03c3.89,0.58,7.7,1.82,11.26,3.62
						c0.97,0.49,1.91,1.01,2.85,1.56c0.9,0.53,1.7-0.95,0.8-1.49c-3.56-2.11-7.36-3.76-11.33-4.73c-3.69-0.9-7.49-1.21-11.27-1.03
						c-8.28,0.4-16.46,2.85-24.29,5.65c-8.39,3-16.58,6.61-25.01,9.48c-7.74,2.63-15.68,4.57-23.82,4.78
						c-7.71,0.2-15.56-1.15-22.48-4.96c-0.86-0.47-1.7-0.98-2.52-1.53C26.69,26.14,25.89,27.63,26.76,28.2L26.76,28.2z"/>
				</g>
			</g>
			<g>
				<g>
					<path d="M32.17,129.07c6.85,3.63,14.67,4.6,22.22,4.18c8.04-0.45,15.76-2.63,23.4-5.28c8.35-2.89,16.59-6.12,25.22-7.89
						c8.11-1.67,16.34-2.34,24.59-2.04c8.31,0.3,16.57,1.5,24.78,2.86c1.11,0.19,2.22,0.37,3.33,0.56c1,0.17,1.43-1.49,0.42-1.66
						c-8.31-1.42-16.65-2.77-25.05-3.31c-8.1-0.52-16.21-0.19-24.24,1.14c-4.32,0.71-8.59,1.69-12.79,2.95
						c-4.17,1.26-8.28,2.74-12.39,4.21c-7.74,2.77-15.55,5.5-23.69,6.43c-7.51,0.86-15.38,0.5-22.5-2.45
						c-0.85-0.35-1.68-0.75-2.49-1.18C32.05,127.1,31.25,128.58,32.17,129.07L32.17,129.07z"/>
				</g>
			</g>
			<g>
				<g>
					<path d="M28.72,29.91c1.22,13.14,2.44,26.27,3.66,39.41c1.21,13.07,2.43,26.13,3.64,39.2c0.68,7.34,1.37,14.69,2.05,22.03
						c0.04,0.46,0.33,0.86,0.8,0.86c0.4,0,0.84-0.4,0.8-0.86c-1.22-13.14-2.44-26.27-3.66-39.41c-1.21-13.07-2.43-26.13-3.64-39.2
						C31.68,44.6,31,37.25,30.31,29.91c-0.04-0.46-0.33-0.86-0.8-0.86C29.12,29.04,28.68,29.44,28.72,29.91L28.72,29.91z"/>
				</g>
			</g>
			
				<ellipse transform="matrix(0.9763 -0.2166 0.2166 0.9763 -2.0688 4.7456)" class="st6" cx="20.61" cy="11.81" rx="5.96" ry="6.29"/>
			<g>
				<g>
					<path d="M21.4,20.2c0.2-0.04,0.41-0.08,0.61-0.12c0.19-0.04,0.38-0.22,0.48-0.4c0.1-0.18,0.14-0.46,0.08-0.66
						c-0.06-0.21-0.18-0.41-0.37-0.51c-0.2-0.11-0.39-0.13-0.61-0.09c-0.2,0.04-0.41,0.08-0.61,0.12c-0.19,0.04-0.38,0.22-0.48,0.4
						c-0.1,0.18-0.14,0.46-0.08,0.66c0.06,0.21,0.18,0.41,0.37,0.51C20.98,20.23,21.18,20.25,21.4,20.2L21.4,20.2z"/>
				</g>
			</g>
			<g class="st7">
				<path d="M30,29.33c0,0-16.27,96.47,125.34,84.63c0.45,2.32-0.06,4.1,0.57,6.67c-13.04-2.35-16.69-3.46-28.21-2.98
					s-23.9-1.08-34.55,3.42c-20.28,8.59-37.83,9.99-44.29,10.86c-2.02,0.27-8.38-0.01-9.99-1.39c-1.67-1.43,5.3,15.86-9.36-100.64"
					/>
				<g>
					<path d="M29.24,29.1c-0.16,0.92-0.25,1.87-0.33,2.8c-0.21,2.32-0.28,4.66-0.26,6.99c0.04,3.47,0.31,6.93,0.78,10.37
						c0.58,4.19,1.5,8.33,2.77,12.33c1.47,4.66,3.4,9.15,5.77,13.35c2.72,4.82,6.03,9.25,9.77,13.18
						c4.37,4.58,9.34,8.49,14.63,11.74c6.49,3.98,13.46,6.99,20.6,9.27c8.9,2.84,18.09,4.56,27.32,5.56
						c11.71,1.28,23.51,1.39,35.26,0.79c3.27-0.17,6.53-0.39,9.79-0.66c-0.26-0.21-0.51-0.42-0.77-0.63
						c0.4,2.21,0.06,4.46,0.57,6.67c0.33-0.35,0.65-0.71,0.98-1.06c-5.78-1.04-11.55-2.33-17.4-2.85
						c-6.21-0.56-12.44-0.04-18.66-0.06c-7.09-0.02-14.27-0.15-21.24,1.46c-3.64,0.84-7.03,2.42-10.53,3.75
						c-3.49,1.33-7.04,2.5-10.61,3.53c-9.48,2.74-19.16,4.31-28.91,5.44c-2.17,0.25-4.49,0.08-6.64-0.3
						c-0.92-0.16-1.92-0.35-2.73-0.87c-0.25-0.16,0.39,0.19-0.15-0.12c-0.01,0-0.01-0.01-0.02-0.01c-0.02-0.01-0.03-0.02-0.04-0.03
						c-0.44-0.27-1-0.17-1.27,0.32c-0.5,0.91,0.58,2.06,1.35,1.23c0.52-0.56,0.51-1.71,0.56-2.42c0.15-2.27,0.07-4.56-0.02-6.82
						c-0.19-4.94-0.55-9.87-0.95-14.8c-0.7-8.59-1.56-17.17-2.48-25.74c-1.42-13.31-2.99-26.61-4.62-39.9
						c-0.49-3.98-0.98-7.96-1.48-11.94c-0.06-0.46-0.6-0.71-0.98-0.6c-0.46,0.13-0.61,0.6-0.56,1.06
						c1.79,14.27,3.53,28.54,5.12,42.84c1.06,9.48,2.06,18.97,2.91,28.48c0.51,5.73,0.99,11.47,1.29,17.21
						c0.16,2.92,0.3,5.85,0.23,8.77c-0.01,0.68-0.05,1.36-0.11,2.04c-0.01,0.06-0.01,0.12-0.02,0.18c-0.02,0.18,0.05-0.29,0.01-0.05
						c-0.02,0.09-0.02,0.18-0.04,0.26c-0.02,0.12-0.07,0.25-0.09,0.37c-0.03,0.2,0.13-0.23,0-0.01c0.14-0.21,0.32-0.37,0.61-0.37
						c0.29,0,0.54,0.2,0.64,0.38c0.06,0.1,0.09,0.33,0.09,0.34c0.01,0.44-0.42,0.84-0.89,0.71c0.15,0.04-0.28-0.12-0.04-0.01
						c-0.36-0.18-0.04-0.03,0.08,0.07c0.15,0.11,0.32,0.21,0.49,0.29c0.46,0.23,0.94,0.4,1.43,0.53c1.2,0.32,2.43,0.48,3.66,0.59
						c3.55,0.32,7.02-0.22,10.54-0.68c5.09-0.66,10.16-1.52,15.18-2.65c6.8-1.53,13.5-3.55,20.04-6.1c3.33-1.3,6.54-2.7,10.02-3.45
						c3.43-0.74,6.93-1.04,10.43-1.17c3.55-0.13,7.1-0.09,10.65-0.09c3.41,0,6.8-0.16,10.21-0.2c5.12-0.07,10.16,0.45,15.21,1.35
						c3.1,0.55,6.2,1.15,9.31,1.7c0.59,0.11,1.14-0.38,0.98-1.06c-0.52-2.19-0.18-4.46-0.57-6.67c-0.06-0.34-0.44-0.66-0.77-0.63
						c-12.35,1.03-24.77,1.37-37.14,0.56c-9.71-0.64-19.4-1.99-28.86-4.47c-7.5-1.96-14.87-4.63-21.8-8.32
						c-5.63-2.99-10.98-6.66-15.71-11.04c-2.1-1.95-4.09-4.04-5.94-6.26c-1.74-2.09-3.2-4.08-4.66-6.35
						c-1.37-2.13-2.62-4.35-3.74-6.64c-0.53-1.08-1.03-2.18-1.5-3.29c-0.5-1.19-0.81-1.97-1.24-3.13c-1.49-4.07-2.61-8.3-3.36-12.6
						c-0.17-0.96-0.32-1.92-0.45-2.88c-0.03-0.23-0.06-0.47-0.09-0.7c-0.01-0.1-0.02-0.19-0.04-0.29c0.03,0.27-0.02-0.16-0.03-0.23
						c-0.05-0.45-0.1-0.9-0.15-1.36c-0.17-1.69-0.29-3.39-0.35-5.09c-0.1-2.59-0.07-5.2,0.11-7.79c0.06-0.82,0.13-1.64,0.22-2.45
						c0.02-0.14,0.03-0.29,0.05-0.43c0.03-0.23-0.04,0.26,0,0.04c0.01-0.06,0.02-0.12,0.02-0.18c0.02-0.16,0.04-0.32,0.07-0.48
						c0.01-0.05,0.02-0.11,0.02-0.16C30.95,28.47,29.42,28.01,29.24,29.1L29.24,29.1z"/>
				</g>
			</g>
			<g class="st7">
				<path d="M18.68,6.62c-1.11,3.95,0.29,8.62,3.35,11.25c-2.55-0.06-5.03-1.84-6.06-4.36s-0.54-5.63,1.18-7.59"/>
				<g>
					<path d="M17.92,6.39c-1.17,4.33,0.32,9.27,3.56,12.08c0.19-0.49,0.38-0.98,0.56-1.47c-2.24-0.08-4.37-1.59-5.31-3.79
						c-0.93-2.18-0.5-4.94,1-6.69c0.7-0.81-0.43-2.03-1.13-1.22c-1.98,2.31-2.5,5.76-1.31,8.63c1.17,2.82,3.91,4.69,6.74,4.79
						c0.64,0.02,1.11-0.99,0.56-1.47c-2.82-2.45-4.18-6.62-3.15-10.41C19.74,5.79,18.2,5.33,17.92,6.39L17.92,6.39z"/>
				</g>
			</g>
			<g class="st7">
				<path d="M18.46,23.27c2.43,1.44,5.21,2.16,7.96,2.05c-2.31,0.43-4.62,0.87-6.93,1.3c-0.44,0.08-0.91,0.16-1.34,0
					c-0.67-0.26-1.04-1.09-1.04-1.85c0-0.76,0.29-1.47,0.57-2.16"/>
				<g>
					<path d="M18.06,24.01c2.56,1.5,5.44,2.26,8.36,2.17c-0.07-0.56-0.14-1.13-0.21-1.69c-2.02,0.38-4.04,0.76-6.06,1.14
						c-0.62,0.12-1.68,0.56-2.08-0.18c-0.4-0.75,0.02-1.7,0.31-2.4c0.18-0.42,0.11-0.93-0.29-1.18c-0.34-0.22-0.91-0.12-1.09,0.31
						c-0.45,1.1-0.91,2.32-0.55,3.53c0.35,1.18,1.29,1.94,2.45,1.86c1.26-0.09,2.54-0.44,3.79-0.68c1.32-0.25,2.63-0.49,3.94-0.74
						c0.89-0.17,0.67-1.72-0.21-1.69c-2.64,0.08-5.23-0.58-7.55-1.94C17.96,22,17.16,23.48,18.06,24.01L18.06,24.01z"/>
				</g>
			</g>
			<g class="st7">
				<path d="M20.87,28.19c2.37,27.22,4.75,54.45,7.12,81.67c1.57,18.05,3.15,36.15,6.86,53.89c-2.06,1.17-4.78-0.26-6.04-2.42
					c-1.26-2.16-1.43-4.79-1.57-7.31c-2.31-42.02-4.63-84.04-6.94-126.07"/>
				<g>
					<path d="M20.07,28.19c1.56,17.88,3.12,35.76,4.67,53.64c0.78,8.89,1.55,17.79,2.33,26.68c0.76,8.73,1.51,17.46,2.49,26.17
						c1.11,9.83,2.5,19.63,4.52,29.3c0.12-0.32,0.24-0.65,0.37-0.97c-1.3,0.69-2.87,0.09-3.92-0.86c-1.35-1.23-1.92-3.08-2.2-4.9
						c-0.32-2.08-0.34-4.23-0.45-6.34c-0.13-2.35-0.26-4.7-0.39-7.05c-0.51-9.35-1.03-18.71-1.55-28.06
						c-0.52-9.4-1.04-18.8-1.55-28.2c-0.51-9.35-1.03-18.71-1.55-28.06s-1.03-18.71-1.55-28.06c-0.06-1.17-0.13-2.35-0.19-3.52
						c-0.06-1.1-1.65-1.11-1.59,0c0.53,9.67,1.07,19.34,1.6,29.01c0.53,9.62,1.06,19.25,1.59,28.87c0.53,9.62,1.06,19.25,1.59,28.87
						c0.53,9.67,1.07,19.34,1.6,29.01c0.13,2.39,0.26,4.79,0.4,7.18c0.12,2.22,0.16,4.48,0.49,6.68c0.28,1.9,0.89,3.82,2.12,5.25
						c1.06,1.23,2.56,2.09,4.12,2.19c0.79,0.05,1.54-0.15,2.24-0.53c0.32-0.17,0.44-0.62,0.37-0.97
						c-3.57-17.13-5.17-34.63-6.7-52.08c-1.55-17.78-3.1-35.56-4.65-53.34c-0.87-9.97-1.74-19.95-2.61-29.92
						C21.57,27.1,19.98,27.09,20.07,28.19L20.07,28.19z"/>
				</g>
			</g>
			<g class="st7">
				<g>
					<path class="st3" d="M141.74,28.52c0.43,8.92,0.85,17.84,1.28,26.76s0.85,17.84,1.28,26.76c0.24,5.03,0.48,10.05,0.72,15.08
						c0.07,1.5,1.17,2.94,2.65,2.87c1.38-0.07,2.73-1.26,2.65-2.87c-0.43-8.92-0.85-17.84-1.28-26.76
						c-0.43-8.92-0.85-17.84-1.28-26.76c-0.24-5.03-0.48-10.05-0.72-15.08c-0.07-1.5-1.17-2.94-2.65-2.87
						C143.01,25.72,141.66,26.92,141.74,28.52L141.74,28.52z"/>
				</g>
			</g>
			<g class="st7">
				<g>
					<path class="st3" d="M21.87,12.61c1.39,0,2.72-1.32,2.65-2.87c-0.06-1.55-1.17-2.87-2.65-2.87c-1.39,0-2.72,1.32-2.65,2.87
						C19.28,11.3,20.38,12.61,21.87,12.61L21.87,12.61z"/>
				</g>
			</g>
			<g class="st7">
				<g>
					<path class="st3" d="M21.25,30.81c0.01,0.65,0.01,1.3,0.02,1.95c0.01,1.5,1.21,2.94,2.65,2.87c1.42-0.07,2.67-1.26,2.65-2.87
						c-0.01-0.65-0.01-1.3-0.02-1.95c-0.01-1.5-1.21-2.94-2.65-2.87C22.48,28.01,21.23,29.2,21.25,30.81L21.25,30.81z"/>
				</g>
			</g>
		</g>
		<g id="Ebene_13_2_">
			<g>
				<g>
					<path d="M147.15,19.8c1.15,13.1,2.17,26.2,3.17,39.31c1,13.19,1.98,26.39,3.03,39.58c0.58,7.31,1.18,14.63,1.83,21.93
						c0.09,1.01,1.57,1.02,1.48,0c-1.15-13.1-2.17-26.2-3.17-39.31c-1-13.19-1.98-26.39-3.03-39.58
						c-0.58-7.31-1.18-14.63-1.83-21.93C148.54,18.78,147.06,18.77,147.15,19.8L147.15,19.8z"/>
				</g>
			</g>
		</g>
		<g id="Ebene_11_2_">
			<g>
				<path class="st8" d="M104.44,46.2c-0.64,1.63-1.28,3.27-1.92,4.9c1.65-1.22,3.3-2.45,4.95-3.67c-1.82,0.17-3.65,0.35-5.47,0.52
					c1.57,1.8,3.66,3.07,5.9,3.59c-1.63-1.48-2.88-3.45-3.58-5.62"/>
				<g>
					<path class="st8" d="M103.81,45.8c-0.64,1.63-1.28,3.27-1.92,4.9c-0.13,0.33-0.14,0.69,0.12,0.97
						c0.22,0.24,0.63,0.32,0.89,0.12c1.65-1.22,3.3-2.45,4.95-3.67c0.55-0.41,0.42-1.56-0.37-1.49c-1.82,0.17-3.65,0.35-5.47,0.52
						c-0.63,0.06-0.99,0.84-0.52,1.36c1.68,1.89,3.85,3.23,6.22,3.8c0.66,0.16,1.32-0.78,0.72-1.34c-1.53-1.41-2.71-3.21-3.39-5.27
						c-0.32-0.96-1.74-0.55-1.42,0.42c0.76,2.31,2.04,4.38,3.77,5.98c0.24-0.45,0.48-0.89,0.72-1.34c-2.14-0.52-4.06-1.68-5.57-3.39
						c-0.17,0.45-0.35,0.91-0.52,1.36c1.82-0.17,3.65-0.35,5.47-0.52c-0.12-0.5-0.25-0.99-0.37-1.49c-1.65,1.22-3.3,2.45-4.95,3.67
						c0.34,0.36,0.67,0.73,1.01,1.09c0.64-1.63,1.28-3.27,1.92-4.9c0.16-0.4,0.11-0.85-0.26-1.09
						C104.51,45.32,103.96,45.4,103.81,45.8L103.81,45.8z"/>
				</g>
			</g>
			<g>
				<path class="st8" d="M91.18,43.53c-0.69,1.83-1.37,3.65-2.06,5.48c1.72-1.36,3.43-2.71,5.15-4.07
					c-2.05,0.11-4.11,0.22-6.16,0.32c2.14,1.15,4.28,2.3,6.41,3.45c-1.41-1.53-2.55-3.35-3.35-5.33"/>
				<g>
					<path class="st8" d="M90.47,43.32c-0.69,1.83-1.37,3.65-2.06,5.48c-0.24,0.63,0.58,1.3,1.08,0.9c1.72-1.36,3.43-2.71,5.15-4.07
						c0.54-0.43,0.43-1.53-0.37-1.49c-2.05,0.11-4.11,0.22-6.16,0.32c-0.68,0.04-1.07,1.11-0.37,1.49c2.14,1.15,4.28,2.3,6.41,3.45
						c0.73,0.39,1.51-0.58,0.89-1.25c-1.37-1.5-2.45-3.24-3.23-5.16c-0.16-0.4-0.69-0.48-1.01-0.29c-0.38,0.23-0.43,0.7-0.26,1.09
						c0.83,2.04,2.01,3.9,3.46,5.49c0.3-0.42,0.6-0.84,0.89-1.25c-2.14-1.15-4.28-2.3-6.41-3.45c-0.12,0.5-0.25,0.99-0.37,1.49
						c2.05-0.11,4.11-0.22,6.16-0.32c-0.12-0.5-0.25-0.99-0.37-1.49c-1.72,1.36-3.43,2.71-5.15,4.07c0.36,0.3,0.72,0.6,1.08,0.9
						c0.69-1.83,1.37-3.65,2.06-5.48c0.15-0.4-0.16-0.87-0.52-0.98C90.96,42.63,90.62,42.92,90.47,43.32L90.47,43.32z"/>
				</g>
			</g>
			<g>
				<path class="st8" d="M79.02,48.78c-0.76,1.77-1.51,3.54-2.27,5.3c1.83-0.99,3.5-2.33,4.9-3.94c-1.81,0.17-3.61,0.34-5.42,0.52
					c1.73,1.36,3.68,2.4,5.73,3.07c-0.91-1.62-1.82-3.24-2.74-4.85"/>
				<g>
					<path class="st8" d="M78.39,48.37c-0.76,1.77-1.51,3.54-2.27,5.3c-0.31,0.72,0.32,1.47,1.01,1.09
						c1.88-1.03,3.59-2.41,5.05-4.06c0.41-0.46,0.15-1.43-0.52-1.36c-1.81,0.17-3.61,0.34-5.42,0.52c-0.75,0.07-0.98,1.02-0.37,1.49
						c1.79,1.4,3.79,2.45,5.9,3.15c0.61,0.2,1.17-0.58,0.83-1.17c-0.91-1.62-1.82-3.24-2.74-4.85c-0.49-0.88-1.77-0.07-1.27,0.81
						c0.91,1.62,1.82,3.24,2.74,4.85c0.28-0.39,0.56-0.78,0.83-1.17c-2-0.66-3.86-1.67-5.55-2.99c-0.12,0.5-0.25,0.99-0.37,1.49
						c1.81-0.17,3.61-0.34,5.42-0.52c-0.17-0.45-0.35-0.91-0.52-1.36c-1.38,1.56-2.97,2.84-4.75,3.81c0.34,0.36,0.67,0.73,1.01,1.09
						c0.76-1.77,1.51-3.54,2.27-5.3C80.06,48.25,78.79,47.44,78.39,48.37L78.39,48.37z"/>
				</g>
			</g>
			<g>
				<path class="st8" d="M68.71,58.31c-1.29,1.56-2.17,3.51-2.51,5.56c1.86-1.39,3.72-2.78,5.58-4.17c-2.15,0.12-4.3,0.23-6.45,0.35
					c2.14,1.18,4.28,2.37,6.42,3.55c-0.98-1.68-1.95-3.35-2.93-5.03"/>
				<g>
					<path class="st8" d="M68.19,57.75c-1.37,1.68-2.31,3.71-2.7,5.91c-0.11,0.62,0.51,1.33,1.08,0.9c1.86-1.39,3.72-2.78,5.58-4.17
						c0.56-0.42,0.41-1.53-0.37-1.49c-2.15,0.12-4.3,0.23-6.45,0.35c-0.69,0.04-1.06,1.11-0.37,1.49c2.14,1.18,4.28,2.37,6.42,3.55
						c0.62,0.34,1.43-0.38,1.01-1.09c-0.98-1.68-1.95-3.35-2.93-5.03c-0.51-0.87-1.78-0.07-1.27,0.81c0.98,1.68,1.95,3.35,2.93,5.03
						c0.34-0.36,0.67-0.73,1.01-1.09c-2.14-1.18-4.28-2.37-6.42-3.55c-0.12,0.5-0.25,0.99-0.37,1.49c2.15-0.12,4.3-0.23,6.45-0.35
						c-0.12-0.5-0.25-0.99-0.37-1.49c-1.86,1.39-3.72,2.78-5.58,4.17c0.36,0.3,0.72,0.6,1.08,0.9c0.34-1.93,1.11-3.73,2.32-5.21
						C69.86,58.11,68.82,56.98,68.19,57.75L68.19,57.75z"/>
				</g>
			</g>
			<g>
				<path class="st8" d="M66.1,71.67c-1.26,1.3-2.14,3.04-2.45,4.89c1.72-0.85,3.29-2.06,4.59-3.54c-1.75,0.17-3.5,0.33-5.24,0.5
					c1.69,1.44,3.68,2.47,5.77,3c-0.91-1.51-1.83-3.02-2.74-4.53"/>
				<g>
					<path class="st8" d="M65.58,71.1c-1.35,1.41-2.28,3.25-2.64,5.24c-0.13,0.71,0.49,1.2,1.08,0.9c1.77-0.89,3.38-2.14,4.74-3.66
						c0.41-0.46,0.14-1.43-0.52-1.36c-1.75,0.17-3.5,0.33-5.24,0.5c-0.55,0.05-1.08,0.89-0.52,1.36c1.81,1.52,3.86,2.62,6.1,3.2
						c0.59,0.15,1.2-0.56,0.83-1.17c-0.91-1.51-1.83-3.02-2.74-4.53c-0.52-0.86-1.8-0.06-1.27,0.81c0.91,1.51,1.83,3.02,2.74,4.53
						c0.28-0.39,0.56-0.78,0.83-1.17c-1.97-0.51-3.84-1.44-5.44-2.79c-0.17,0.45-0.35,0.91-0.52,1.36c1.75-0.17,3.5-0.33,5.24-0.5
						c-0.17-0.45-0.35-0.91-0.52-1.36c-1.28,1.43-2.77,2.57-4.44,3.41c0.36,0.3,0.72,0.6,1.08,0.9c0.32-1.75,1.08-3.3,2.26-4.54
						C67.31,71.51,66.26,70.38,65.58,71.1L65.58,71.1z"/>
				</g>
			</g>
			<g>
				<path class="st8" d="M71.2,83.27c-0.92,1.8-1.84,3.6-2.76,5.39c1.67-1.47,3.33-2.95,5-4.43c-1.97,0.2-3.94,0.4-5.91,0.6
					c2.04,1.03,4.08,2.06,6.12,3.09c-0.75-1.62-1.5-3.25-2.25-4.87"/>
				<g>
					<path class="st8" d="M70.56,82.87c-0.92,1.8-1.84,3.6-2.76,5.39c-0.43,0.83,0.53,1.52,1.16,0.97c1.67-1.47,3.33-2.95,5-4.43
						c0.48-0.43,0.1-1.43-0.52-1.36c-1.97,0.2-3.94,0.4-5.91,0.6c-0.65,0.07-1.1,1.12-0.37,1.49c2.04,1.03,4.08,2.06,6.12,3.09
						c0.67,0.34,1.35-0.35,1.01-1.09c-0.75-1.62-1.5-3.25-2.25-4.87c-0.42-0.92-1.7-0.11-1.27,0.81c0.75,1.62,1.5,3.25,2.25,4.87
						c0.34-0.36,0.67-0.73,1.01-1.09c-2.04-1.03-4.08-2.06-6.12-3.09c-0.12,0.5-0.25,0.99-0.37,1.49c1.97-0.2,3.94-0.4,5.91-0.6
						c-0.17-0.45-0.35-0.91-0.52-1.36c-1.67,1.47-3.33,2.95-5,4.43c0.39,0.32,0.77,0.65,1.16,0.97c0.92-1.8,1.84-3.6,2.76-5.39
						C72.3,82.77,71.02,81.97,70.56,82.87L70.56,82.87z"/>
				</g>
			</g>
			<g>
				<path class="st8" d="M82.73,91.76c-1.13,1.46-1.93,3.22-2.29,5.08c1.71-1.35,3.42-2.71,5.13-4.06
					c-1.77,0.21-3.54,0.42-5.32,0.63c1.42,1.06,3,1.87,4.65,2.4c-0.85-1.42-1.69-2.84-2.54-4.25"/>
				<g>
					<path class="st8" d="M82.21,91.2c-1.21,1.59-2.07,3.42-2.48,5.44c-0.13,0.61,0.53,1.34,1.08,0.9c1.71-1.35,3.42-2.71,5.13-4.06
						c0.27-0.21,0.44-0.54,0.34-0.9c-0.08-0.31-0.39-0.62-0.71-0.59c-1.77,0.21-3.54,0.42-5.32,0.63c-0.73,0.09-1.01,1.02-0.37,1.49
						c1.48,1.09,3.11,1.92,4.83,2.48c0.6,0.19,1.18-0.59,0.83-1.17c-0.85-1.42-1.69-2.84-2.54-4.25c-0.51-0.86-1.79-0.06-1.27,0.81
						c0.85,1.42,1.69,2.84,2.54,4.25c0.28-0.39,0.56-0.78,0.83-1.17c-1.6-0.52-3.09-1.3-4.47-2.31c-0.12,0.5-0.25,0.99-0.37,1.49
						c1.77-0.21,3.54-0.42,5.32-0.63c-0.12-0.5-0.25-0.99-0.37-1.49c-1.71,1.35-3.42,2.71-5.13,4.06c0.36,0.3,0.72,0.6,1.08,0.9
						c0.36-1.73,1.06-3.36,2.1-4.73c0.26-0.34,0.3-0.8,0-1.13C83,90.91,82.46,90.87,82.21,91.2L82.21,91.2z"/>
				</g>
			</g>
			<g>
				<path class="st8" d="M95.71,93.86c-0.82,1.76-1.64,3.52-2.46,5.28c1.68-1.3,3.35-2.6,5.03-3.89c-1.92,0.15-3.84,0.3-5.75,0.45
					c1.73,1.23,3.61,2.21,5.57,2.92c-0.79-1.58-1.58-3.16-2.37-4.75"/>
				<g>
					<path class="st8" d="M95.07,93.46c-0.82,1.76-1.64,3.52-2.46,5.28c-0.3,0.65,0.36,1.6,1.01,1.09c1.68-1.3,3.35-2.6,5.03-3.89
						c0.54-0.42,0.43-1.55-0.37-1.49c-1.92,0.15-3.84,0.3-5.75,0.45c-0.73,0.06-1.01,1.04-0.37,1.49c1.79,1.26,3.72,2.26,5.75,3
						c0.64,0.23,1.12-0.59,0.83-1.17c-0.79-1.58-1.58-3.16-2.37-4.75c-0.45-0.91-1.73-0.1-1.27,0.81c0.79,1.58,1.58,3.16,2.37,4.75
						c0.28-0.39,0.56-0.78,0.83-1.17c-1.91-0.7-3.71-1.66-5.4-2.84c-0.12,0.5-0.25,0.99-0.37,1.49c1.92-0.15,3.84-0.3,5.75-0.45
						c-0.12-0.5-0.25-0.99-0.37-1.49c-1.68,1.3-3.35,2.6-5.03,3.89c0.34,0.36,0.67,0.73,1.01,1.09c0.82-1.76,1.64-3.52,2.46-5.28
						C96.77,93.35,95.5,92.54,95.07,93.46L95.07,93.46z"/>
				</g>
			</g>
			<g>
				<path class="st8" d="M108.78,88.49c-0.75,1.88-1.51,3.76-2.26,5.64c1.72-1.3,3.44-2.61,5.17-3.91c-2-0.29-4.06-0.01-5.93,0.81
					c1.77,0.76,3.54,1.51,5.3,2.27c-0.47-1.59-0.94-3.18-1.42-4.76"/>
				<g>
					<path class="st8" d="M108.15,88.09c-0.75,1.88-1.51,3.76-2.26,5.64c-0.13,0.33-0.14,0.7,0.12,0.97
						c0.22,0.24,0.63,0.33,0.89,0.12c1.72-1.3,3.44-2.61,5.17-3.91c0.63-0.48,0.35-1.39-0.37-1.49c-2.07-0.29-4.19,0.01-6.13,0.84
						c-0.7,0.3-0.7,1.24,0,1.54c1.77,0.76,3.54,1.51,5.3,2.27c0.52,0.22,1.07-0.44,0.91-0.98c-0.47-1.59-0.94-3.18-1.42-4.76
						c-0.29-0.97-1.72-0.56-1.42,0.42c0.47,1.59,0.94,3.18,1.42,4.76c0.3-0.33,0.61-0.65,0.91-0.98c-1.77-0.76-3.54-1.51-5.3-2.27
						c0,0.51,0,1.03,0,1.54c1.84-0.79,3.77-1.05,5.73-0.78c-0.12-0.5-0.25-0.99-0.37-1.49c-1.72,1.3-3.44,2.61-5.17,3.91
						c0.34,0.36,0.67,0.73,1.01,1.09c0.75-1.88,1.51-3.76,2.26-5.64c0.16-0.4,0.11-0.85-0.26-1.09
						C108.85,87.6,108.3,87.69,108.15,88.09L108.15,88.09z"/>
				</g>
			</g>
			<g>
				<path class="st8" d="M117.84,78.69c-0.62,1.76-1.25,3.53-1.87,5.29c1.7-1.26,3.41-2.51,5.11-3.77c-1.97-0.34-4-0.24-5.93,0.3
					c1.61,1.31,3.51,2.19,5.5,2.54c-0.89-1.5-1.79-3.01-2.68-4.51"/>
				<g>
					<path class="st8" d="M117.13,78.48c-0.62,1.76-1.25,3.53-1.87,5.29c-0.23,0.64,0.57,1.28,1.08,0.9
						c1.7-1.26,3.41-2.51,5.11-3.77c0.46-0.34,0.51-1.34-0.18-1.46c-2.12-0.36-4.25-0.27-6.33,0.3c-0.67,0.18-0.66,1.08-0.18,1.46
						c1.67,1.34,3.62,2.24,5.67,2.62c0.59,0.11,1.21-0.54,0.83-1.17c-0.89-1.5-1.79-3.01-2.68-4.51c-0.51-0.86-1.79-0.06-1.27,0.81
						c0.89,1.5,1.79,3.01,2.68,4.51c0.28-0.39,0.56-0.78,0.83-1.17c-1.94-0.37-3.73-1.2-5.32-2.46c-0.06,0.49-0.12,0.97-0.18,1.46
						c1.81-0.5,3.7-0.61,5.54-0.3c-0.06-0.49-0.12-0.97-0.18-1.46c-1.7,1.26-3.41,2.51-5.11,3.77c0.36,0.3,0.72,0.6,1.08,0.9
						c0.62-1.76,1.25-3.53,1.87-5.29C118.89,77.94,117.47,77.53,117.13,78.48L117.13,78.48z"/>
				</g>
			</g>
			<g>
				<path class="st8" d="M120.83,66.45c-0.59,1.5-1.18,3-1.77,4.5c1.51-1.25,3.01-2.5,4.51-3.75c-1.9,0.3-3.8,0.6-5.7,0.89
					c2,0.79,4,1.59,6,2.38c-0.98-1.43-1.95-2.86-2.93-4.3"/>
				<g>
					<path class="st8" d="M120.19,66.05c-0.59,1.5-1.18,3-1.77,4.5c-0.13,0.33-0.14,0.69,0.12,0.97c0.21,0.23,0.64,0.34,0.89,0.12
						c1.51-1.25,3.01-2.5,4.51-3.75c0.68-0.56,0.28-1.59-0.57-1.46c-1.9,0.3-3.8,0.6-5.7,0.89c-0.79,0.12-0.6,1.3,0,1.54
						c2,0.79,4,1.59,6,2.38c0.58,0.23,1.21-0.62,0.83-1.17c-0.98-1.43-1.95-2.86-2.93-4.3c-0.24-0.35-0.64-0.52-1.01-0.29
						c-0.32,0.2-0.5,0.75-0.26,1.09c0.98,1.43,1.95,2.86,2.93,4.3c0.28-0.39,0.56-0.78,0.83-1.17c-2-0.79-4-1.59-6-2.38
						c0,0.51,0,1.03,0,1.54c1.9-0.3,3.8-0.6,5.7-0.89c-0.19-0.49-0.38-0.97-0.57-1.46c-1.51,1.25-3.01,2.5-4.51,3.75
						c0.34,0.36,0.67,0.73,1.01,1.09c0.59-1.5,1.18-3,1.77-4.5c0.16-0.4,0.11-0.85-0.26-1.09
						C120.89,65.56,120.34,65.65,120.19,66.05L120.19,66.05z"/>
				</g>
			</g>
			<g>
				<path class="st8" d="M115.39,53.49c-0.45,1.95-0.91,3.9-1.36,5.85c1.57-1.35,3.13-2.7,4.7-4.05c-2.16-0.29-4.37-0.08-6.45,0.6
					c2.14,0.29,4.21,1.12,6,2.41c-0.84-1.55-1.69-3.09-2.53-4.64"/>
				<g>
					<path class="st8" d="M114.68,53.28c-0.45,1.95-0.91,3.9-1.36,5.85c-0.19,0.83,0.68,1.25,1.23,0.78c1.57-1.35,3.13-2.7,4.7-4.05
						c0.56-0.49,0.03-1.29-0.52-1.36c-2.23-0.28-4.49-0.06-6.65,0.63c-0.86,0.27-0.59,1.46,0.2,1.57c2.01,0.29,3.93,1.1,5.63,2.3
						c0.63,0.45,1.37-0.42,1.01-1.09c-0.84-1.55-1.69-3.09-2.53-4.64c-0.48-0.88-1.76-0.08-1.27,0.81c0.84,1.55,1.69,3.09,2.53,4.64
						c0.34-0.36,0.67-0.73,1.01-1.09c-1.93-1.36-4.09-2.19-6.37-2.51c0.06,0.52,0.13,1.05,0.2,1.57c2.04-0.65,4.14-0.84,6.25-0.57
						c-0.17-0.45-0.35-0.91-0.52-1.36c-1.57,1.35-3.13,2.7-4.7,4.05c0.41,0.26,0.82,0.52,1.23,0.78c0.45-1.95,0.91-3.9,1.36-5.85
						C116.34,52.7,114.91,52.28,114.68,53.28L114.68,53.28z"/>
				</g>
			</g>
		</g>
	</g>
</g>
<g id="Ebene_3">
	<g>
		<g id="Ebene_13">
			<g>
				<path class="st18" d="M133.52,46.12c-2.17,3.23-4.35,6.46-6.52,9.69c6.62,4.72,13.24,9.43,19.87,14.15
					c1.81-2.23,3.62-4.46,5.44-6.69c0.5-0.61,1.02-1.29,1.01-2.08c-0.01-1.07-0.99-1.85-1.88-2.47
					c-5.89-4.13-11.77-8.25-17.66-12.38"/>
				<g>
					<path class="st19" d="M132.97,45.81c-2.17,3.23-4.35,6.46-6.52,9.69c-0.2,0.3-0.04,0.67,0.23,0.86
						c5.15,3.67,10.3,7.34,15.45,11.01c1.47,1.05,2.94,2.1,4.42,3.14c0.21,0.15,0.61,0.1,0.78-0.1c1.57-1.93,3.14-3.86,4.7-5.79
						c0.68-0.84,1.58-1.71,1.85-2.78c0.25-1.01-0.18-1.95-0.89-2.67c-0.75-0.76-1.73-1.34-2.6-1.95c-1.06-0.74-2.11-1.48-3.17-2.22
						c-2.02-1.42-4.05-2.84-6.07-4.26c-2.34-1.64-4.69-3.29-7.03-4.93c-0.67-0.47-1.31,0.62-0.65,1.09
						c3.86,2.71,7.72,5.42,11.59,8.12c1.93,1.35,3.86,2.71,5.79,4.06c0.66,0.47,1.6,1.03,1.8,1.87c0.22,0.93-0.73,1.81-1.26,2.46
						c-1.66,2.04-3.31,4.07-4.97,6.11c0.26-0.03,0.52-0.07,0.78-0.1c-5.15-3.67-10.3-7.34-15.45-11.01
						c-1.47-1.05-2.94-2.1-4.42-3.14c0.08,0.29,0.15,0.57,0.23,0.86c2.17-3.23,4.35-6.46,6.52-9.69
						C134.53,45.77,133.42,45.14,132.97,45.81L132.97,45.81z"/>
				</g>
			</g>
		</g>
		<g id="Ebene_14">
			<g>
				<path class="st20" d="M134.77,45.3c6.47,4.94,13.11,9.69,19.89,14.23c2.81-1.16,2.81-4.2,5.42-6.76
					c2.15-2.11-0.33-6.07-2.21-8.42c-2.02-2.53-5-4.11-7.9-5.61c-2.1-1.09-4.35-2.21-6.71-1.98c-2.08,0.21-3.92,1.46-5.26,3.04
					c-1.34,1.57-2.23,3.45-3.11,5.31"/>
				<g>
					<path class="st20" d="M134.32,45.74c4.52,3.45,9.11,6.81,13.78,10.07c1.17,0.81,2.34,1.62,3.51,2.42
						c0.59,0.4,1.18,0.8,1.77,1.2c0.27,0.18,0.54,0.38,0.82,0.55c0.35,0.22,0.59,0.18,0.95,0.02c1.91-0.87,2.7-2.82,3.67-4.51
						c0.28-0.48,0.57-0.95,0.91-1.39c0.35-0.45,0.79-0.83,1.14-1.29c0.56-0.74,0.74-1.68,0.65-2.59c-0.22-2.07-1.43-3.98-2.66-5.62
						c-1.44-1.91-3.24-3.39-5.3-4.62c-1.04-0.63-2.12-1.19-3.21-1.76c-1.15-0.6-2.31-1.19-3.54-1.61c-2.41-0.82-4.92-0.64-7.06,0.78
						c-2.1,1.38-3.47,3.49-4.58,5.67c-0.29,0.57-0.56,1.14-0.83,1.72c-0.35,0.73,0.76,1.37,1.11,0.63c1.34-2.84,2.82-5.95,5.81-7.43
						c3.17-1.57,6.4,0.24,9.2,1.72c2.77,1.46,5.45,3.06,7.34,5.58c0.81,1.09,1.59,2.26,2.07,3.53c0.38,1.01,0.69,2.29,0,3.24
						c-0.22,0.31-0.53,0.56-0.78,0.85c-0.28,0.33-0.55,0.68-0.8,1.04c-0.44,0.64-0.81,1.33-1.18,2.01
						c-0.68,1.26-1.38,2.44-2.78,3.03c0.22,0,0.43,0,0.65,0c-5.23-3.5-10.38-7.13-15.43-10.87c-1.45-1.07-2.89-2.16-4.33-3.26
						c-0.28-0.21-0.64-0.26-0.91,0C134.1,45.07,134.05,45.53,134.32,45.74L134.32,45.74z"/>
				</g>
			</g>
		</g>
		<g id="Ebene_15">
			<g>
				<path class="st21" d="M126.12,56.59c-19.95,27.18-41.67,55.18-62.73,81.54c1.74-0.12,4.36-0.71,6.1-0.83
					c0.08,2.16,0.77,6.13,0.77,6.13s4.55-0.32,6.35-0.68c0.16,2.23,0.3,3.96,0.86,5.94c1.91-0.24,5.79-1.11,5.79-1.11
					s0.32,2.16,0.8,4.89c20.42-27.02,41.61-54.15,62.58-81.9c-6.08-4.69-13.54-9.69-20.06-14.13"/>
				<g>
					<path class="st21" d="M125.56,56.28c-3.91,5.33-7.86,10.64-11.83,15.94c-4.04,5.38-8.09,10.74-12.18,16.09
						c-4.08,5.34-8.19,10.67-12.31,15.98c-4.11,5.3-8.24,10.58-12.39,15.84c-4.11,5.22-8.24,10.42-12.38,15.61
						c-0.52,0.65-1.03,1.3-1.55,1.94c-0.3,0.38-0.16,1.12,0.45,1.07c2.05-0.16,4.05-0.67,6.1-0.83c-0.21-0.21-0.43-0.42-0.64-0.63
						c0.09,2.11,0.43,4.22,0.79,6.3c0.04,0.25,0.36,0.48,0.62,0.46c2.17-0.15,4.39-0.28,6.52-0.7c-0.27-0.2-0.54-0.4-0.81-0.61
						c0.15,2.06,0.33,4.11,0.88,6.11c0.07,0.24,0.35,0.5,0.62,0.46c2.01-0.26,3.99-0.69,5.96-1.14c-0.26-0.15-0.53-0.29-0.79-0.44
						c0.25,1.63,0.52,3.26,0.8,4.89c0.1,0.59,0.88,0.53,1.17,0.15c4.01-5.3,8.03-10.59,12.06-15.87
						c4.04-5.29,8.09-10.57,12.14-15.84c4.09-5.33,8.19-10.66,12.28-15.99c4.09-5.33,8.19-10.67,12.27-16.01
						c4.12-5.39,8.23-10.79,12.33-16.2c0.5-0.67,1.01-1.33,1.51-2c0.15-0.2,0.1-0.6-0.1-0.76c-5.09-3.92-10.4-7.56-15.71-11.18
						c-1.49-1.02-2.99-2.03-4.48-3.05c-0.68-0.46-1.32,0.63-0.65,1.09c5.28,3.59,10.58,7.15,15.74,10.9
						c1.41,1.02,2.81,2.06,4.19,3.13c-0.03-0.25-0.07-0.51-0.1-0.76c-4.09,5.41-8.2,10.82-12.32,16.21
						c-4.08,5.35-8.17,10.68-12.27,16.02c-4.09,5.33-8.19,10.67-12.29,16c-4.05,5.28-8.11,10.56-12.15,15.85
						c-4.04,5.28-8.07,10.57-12.08,15.88c-0.49,0.65-0.98,1.3-1.47,1.94c0.39,0.05,0.78,0.1,1.17,0.15
						c-0.28-1.63-0.55-3.25-0.8-4.89c-0.05-0.35-0.49-0.51-0.79-0.44c-1.86,0.42-3.73,0.85-5.62,1.09c0.21,0.15,0.41,0.31,0.62,0.46
						c-0.52-1.89-0.69-3.82-0.83-5.77c-0.03-0.43-0.38-0.69-0.81-0.61c-2.02,0.4-4.13,0.51-6.18,0.65c0.21,0.15,0.41,0.31,0.62,0.46
						c-0.34-1.97-0.67-3.97-0.75-5.96c-0.01-0.32-0.28-0.66-0.64-0.63c-2.05,0.16-4.05,0.67-6.1,0.83c0.15,0.36,0.3,0.72,0.45,1.07
						c4.15-5.2,8.29-10.41,12.41-15.63c4.16-5.28,8.31-10.57,12.43-15.87c4.15-5.33,8.28-10.68,12.38-16.05
						c4.09-5.35,8.16-10.71,12.21-16.09c4-5.32,7.98-10.67,11.93-16.03c0.49-0.67,0.98-1.33,1.47-2
						C127.15,56.25,126.04,55.62,125.56,56.28L125.56,56.28z"/>
				</g>
			</g>
		</g>
		<g id="Ebene_16">
			<g>
				<path class="st22" d="M63.49,139.23c0.31,2.16-0.39,4.31-0.9,6.43s-0.81,4.46,0.22,6.39c0.78,1.46,2.21,2.46,3.58,3.41
					c1.43,0.99,2.92,2,4.64,2.28c2.23,0.37,4.47-0.54,6.46-1.61c1.99-1.07,3.93-2.34,6.15-2.77c-0.16-1.7-0.32-3.4-0.49-5.11
					c-2.13,0.37-4.26,0.73-6.38,1.1c-0.13-2.04-0.26-4.09-0.39-6.13c-2.25,0.24-4.5,0.49-6.75,0.73c0.19-1.86-0.1-3.77-0.82-5.5
					c-1.6,0.22-3.2,0.44-4.8,0.66"/>
				<g>
					<path class="st22" d="M62.85,139.23c0.35,2.64-0.74,5.11-1.17,7.67c-0.4,2.38-0.21,4.78,1.44,6.68
						c0.74,0.86,1.68,1.54,2.62,2.19c1,0.7,2.01,1.41,3.13,1.93c1.14,0.52,2.35,0.82,3.62,0.74c1.31-0.08,2.54-0.47,3.73-0.98
						c2.56-1.11,4.81-2.92,7.6-3.49c0.25-0.05,0.49-0.35,0.47-0.61c-0.16-1.7-0.32-3.4-0.49-5.11c-0.04-0.43-0.37-0.68-0.81-0.61
						c-2.13,0.37-4.26,0.73-6.38,1.1c0.27,0.2,0.54,0.4,0.81,0.61c-0.13-2.04-0.26-4.09-0.39-6.13c-0.02-0.31-0.28-0.67-0.64-0.63
						c-2.25,0.24-4.5,0.49-6.75,0.73c0.21,0.21,0.43,0.42,0.64,0.63c0.18-1.92-0.11-3.88-0.84-5.67c-0.14-0.35-0.41-0.49-0.79-0.44
						c-1.6,0.22-3.2,0.44-4.8,0.66c-0.34,0.05-0.53,0.48-0.45,0.77c0.1,0.36,0.44,0.49,0.79,0.44c1.6-0.22,3.2-0.44,4.8-0.66
						c-0.26-0.15-0.53-0.29-0.79-0.44c0.7,1.71,0.97,3.51,0.8,5.34c-0.03,0.31,0.32,0.66,0.64,0.63c2.25-0.24,4.5-0.49,6.75-0.73
						c-0.21-0.21-0.43-0.42-0.64-0.63c0.13,2.04,0.26,4.09,0.39,6.13c0.03,0.43,0.39,0.68,0.81,0.61c2.13-0.37,4.26-0.73,6.38-1.1
						c-0.27-0.2-0.54-0.4-0.81-0.61c0.16,1.7,0.32,3.4,0.49,5.11c0.16-0.2,0.31-0.4,0.47-0.61c-2.35,0.48-4.36,1.8-6.44,2.91
						c-2.08,1.1-4.46,2.01-6.81,1.23c-1.1-0.36-2.09-1.01-3.03-1.65c-0.87-0.59-1.74-1.17-2.51-1.88c-0.81-0.74-1.43-1.6-1.71-2.66
						c-0.29-1.08-0.25-2.23-0.08-3.33c0.42-2.72,1.6-5.35,1.24-8.15c-0.04-0.34-0.26-0.63-0.64-0.63
						C63.17,138.6,62.8,138.89,62.85,139.23L62.85,139.23z"/>
				</g>
			</g>
		</g>
		<g id="Ebene_17">
			<g>
				<path d="M61.84,153.28c-0.44,3.35-0.88,6.7-1.32,10.04c2.94-1.97,6.24-3.42,9.69-4.25c-2.67-1.98-5.33-3.97-8-5.95"/>
				<g>
					<path d="M61.2,153.28c-0.44,3.35-0.88,6.7-1.32,10.04c-0.06,0.47,0.59,0.79,0.96,0.54c2.91-1.94,6.13-3.35,9.54-4.18
						c0.59-0.14,0.56-0.84,0.15-1.15c-2.67-1.98-5.33-3.97-8-5.95c-0.28-0.21-0.71-0.04-0.88,0.23c-0.2,0.32-0.04,0.66,0.23,0.86
						c2.67,1.98,5.33,3.97,8,5.95c0.05-0.38,0.1-0.77,0.15-1.15c-3.51,0.85-6.85,2.31-9.84,4.31c0.32,0.18,0.64,0.36,0.96,0.54
						c0.44-3.35,0.88-6.7,1.32-10.04c0.04-0.34-0.33-0.63-0.64-0.63C61.45,152.65,61.24,152.94,61.2,153.28L61.2,153.28z"/>
				</g>
			</g>
		</g>
		<g id="Ebene_12">
			<g>
				<g>
					<path d="M64.12,137.93c5.02-6.61,10.04-13.23,15.06-19.84c5-6.59,10-13.17,14.99-19.76c5.02-6.61,10.04-13.23,15.06-19.84
						c5-6.59,10-13.17,14.99-19.76c5.02-6.61,10.04-13.23,15.06-19.84c0.62-0.81,1.23-1.63,1.85-2.44c0.49-0.65-0.62-1.28-1.11-0.63
						c-5.02,6.61-10.04,13.23-15.06,19.84c-5,6.59-10,13.17-14.99,19.76c-5.02,6.61-10.04,13.23-15.06,19.84
						c-5,6.59-10,13.17-14.99,19.76c-5.02,6.61-10.04,13.23-15.06,19.84c-0.62,0.81-1.23,1.63-1.85,2.44
						C62.52,137.95,63.63,138.57,64.12,137.93L64.12,137.93z"/>
				</g>
			</g>
			<g>
				<g>
					<path d="M84.61,153.58c5.03-6.6,10.06-13.2,15.1-19.81c5.03-6.6,10.06-13.2,15.1-19.81c5.03-6.6,10.06-13.2,15.1-19.81
						s10.06-13.2,15.1-19.81s10.06-13.2,15.1-19.81c0.62-0.81,1.24-1.62,1.86-2.43c0.49-0.65-0.62-1.28-1.11-0.63
						c-5.03,6.6-10.06,13.2-15.1,19.81c-5.03,6.6-10.06,13.2-15.1,19.81c-5.03,6.6-10.06,13.2-15.1,19.81
						c-5.03,6.6-10.06,13.2-15.1,19.81s-10.06,13.2-15.1,19.81c-0.62,0.81-1.24,1.62-1.86,2.43
						C83.01,153.59,84.12,154.22,84.61,153.58L84.61,153.58z"/>
				</g>
			</g>
			<g>
				<g>
					<path d="M140.58,36.77c7.2-0.03,14.04,3.62,17.88,9.6c1.03,1.61,1.83,3.34,2.38,5.16c0.23,0.77,1.47,0.44,1.24-0.33
						c-2.13-7.05-7.83-12.68-15.02-14.78c-2.1-0.61-4.29-0.92-6.48-0.91C139.76,35.52,139.75,36.78,140.58,36.77L140.58,36.77z"/>
				</g>
			</g>
			<g>
				<g>
					<path d="M133.4,46.23c5.28,3.88,10.57,7.76,15.85,11.64c1.5,1.1,3.01,2.21,4.51,3.31c0.28,0.21,0.71,0.04,0.88-0.23
						c0.19-0.32,0.05-0.66-0.23-0.86c-5.28-3.88-10.57-7.76-15.85-11.64c-1.5-1.1-3.01-2.21-4.51-3.31
						c-0.28-0.21-0.71-0.04-0.88,0.23C132.98,45.69,133.13,46.02,133.4,46.23L133.4,46.23z"/>
				</g>
			</g>
			<g>
				<g>
					<path d="M125.79,56.11c5.34,3.9,10.67,7.8,16.01,11.7c1.51,1.1,3.01,2.2,4.52,3.3c0.28,0.2,0.71,0.04,0.88-0.23
						c0.19-0.32,0.05-0.66-0.23-0.86c-5.34-3.9-10.67-7.8-16.01-11.7c-1.51-1.1-3.01-2.2-4.52-3.3c-0.28-0.2-0.71-0.04-0.88,0.23
						C125.37,55.56,125.52,55.9,125.79,56.11L125.79,56.11z"/>
				</g>
			</g>
			<g>
				<g>
					<path d="M130.97,55.64c1.3-1.67,2.59-3.34,3.89-5.01c0.21-0.27,0.04-0.7-0.23-0.86c-0.33-0.19-0.67-0.04-0.88,0.23
						c-1.3,1.67-2.59,3.34-3.89,5.01c-0.21,0.27-0.04,0.7,0.23,0.86C130.42,56.06,130.77,55.91,130.97,55.64L130.97,55.64z"/>
				</g>
			</g>
			<g>
				<g>
					<path d="M134.28,58.15c1.3-1.67,2.59-3.34,3.89-5.01c0.21-0.27,0.04-0.7-0.23-0.86c-0.33-0.19-0.67-0.04-0.88,0.23
						c-1.3,1.67-2.59,3.34-3.89,5.01c-0.21,0.27-0.04,0.7,0.23,0.86C133.73,58.57,134.07,58.42,134.28,58.15L134.28,58.15z"/>
				</g>
			</g>
			<g>
				<g>
					<path d="M138.17,60.89c1.3-1.67,2.59-3.34,3.89-5.01c0.21-0.27,0.04-0.7-0.23-0.86c-0.33-0.19-0.67-0.04-0.88,0.23
						c-1.3,1.67-2.59,3.34-3.89,5.01c-0.21,0.27-0.04,0.7,0.23,0.86C137.62,61.31,137.96,61.16,138.17,60.89L138.17,60.89z"/>
				</g>
			</g>
			<g>
				<g>
					<path d="M141.5,63.4c1.3-1.67,2.59-3.34,3.89-5.01c0.21-0.27,0.04-0.7-0.23-0.86c-0.33-0.19-0.67-0.04-0.88,0.23
						c-1.3,1.67-2.59,3.34-3.89,5.01c-0.21,0.27-0.04,0.7,0.23,0.86C140.95,63.82,141.29,63.67,141.5,63.4L141.5,63.4z"/>
				</g>
			</g>
			<g>
				<g>
					<path d="M145.01,65.91c1.3-1.67,2.59-3.34,3.89-5.01c0.21-0.27,0.04-0.7-0.23-0.86c-0.33-0.19-0.67-0.04-0.88,0.23
						c-1.3,1.67-2.59,3.34-3.89,5.01c-0.21,0.27-0.04,0.7,0.23,0.86C144.46,66.32,144.8,66.17,145.01,65.91L145.01,65.91z"/>
				</g>
			</g>
			<g>
				<g>
					<path d="M63.56,139.22c1.96-0.33,3.92-0.67,5.88-0.99c-0.27-0.2-0.54-0.4-0.81-0.61c0.24,2.1,0.48,4.2,0.79,6.29
						c0.04,0.24,0.37,0.49,0.62,0.46c2.26-0.29,4.52-0.55,6.75-1.01c-0.27-0.2-0.54-0.4-0.81-0.61c0.09,2.02,0.47,4,0.56,6.02
						c0.02,0.4,0.4,0.72,0.81,0.61c2-0.54,4.08-0.65,6.09-1.19c-0.26-0.15-0.53-0.29-0.79-0.44c0.39,1.88,0.51,3.79,0.8,5.68
						c0.05,0.34,0.48,0.52,0.79,0.44c0.37-0.1,0.5-0.43,0.45-0.77c-0.29-1.89-0.41-3.8-0.8-5.68c-0.07-0.33-0.47-0.52-0.79-0.44
						c-2,0.54-4.08,0.65-6.09,1.19c0.27,0.2,0.54,0.4,0.81,0.61c-0.09-2.02-0.47-4-0.56-6.02c-0.02-0.43-0.39-0.69-0.81-0.61
						c-2.12,0.43-4.27,0.69-6.41,0.96c0.21,0.15,0.41,0.31,0.62,0.46c-0.3-1.98-0.52-3.97-0.74-5.96c-0.05-0.43-0.37-0.68-0.81-0.61
						c-1.96,0.33-3.92,0.67-5.88,0.99C62.4,138.14,62.75,139.35,63.56,139.22L63.56,139.22z"/>
				</g>
			</g>
			<g>
				<g>
					<path d="M62.49,138.13c-0.9,6.86-1.73,13.72-2.61,20.58c-0.24,1.91-0.49,3.81-0.74,5.72c-0.07,0.52,0.58,0.71,0.96,0.54
						c6.35-2.83,12.66-5.75,18.99-8.61c1.76-0.8,3.52-1.59,5.28-2.37c0.32-0.14,0.39-0.59,0.23-0.86c-0.19-0.32-0.56-0.37-0.88-0.23
						c-6.35,2.83-12.66,5.75-18.99,8.61c-1.76,0.8-3.52,1.59-5.28,2.37c0.32,0.18,0.64,0.36,0.96,0.54
						c0.9-6.86,1.73-13.72,2.61-20.58c0.24-1.91,0.49-3.81,0.74-5.72c0.04-0.34-0.33-0.63-0.64-0.63
						C62.75,137.5,62.53,137.79,62.49,138.13L62.49,138.13z"/>
				</g>
			</g>
			<g>
				<g>
					<path d="M61.63,153.29c3.14,2.12,6.19,4.37,9.33,6.48c0.68,0.46,1.32-0.63,0.65-1.09c-3.14-2.12-6.19-4.37-9.33-6.48
						C61.6,151.75,60.96,152.83,61.63,153.29L61.63,153.29z"/>
				</g>
			</g>
		</g>
		<g id="Ebene_18">
			<g class="st23">
				<path d="M143.26,36.75C130.46,54,115.94,73.1,105.53,91.84s-18.39,39.04-20.84,60.25c-0.17-1.54-0.88-3.58-1.05-5.11
					c-2.39,0.41-3.57,0.7-6.18,1.73c-0.17-3.24-0.4-6.22-0.4-6.22s-3.67,0.33-6.95,0.77c-0.21-2.28-0.63-5.95-0.63-5.95
					s-4.36,0.54-6.1,0.83c25.11-33.95,52.26-67.77,77.57-101.98C140.89,36.69,143.32,36.21,143.26,36.75"/>
				<g>
					<path d="M142.71,36.43c-5.14,6.92-10.3,13.82-15.35,20.81c-5.16,7.14-10.19,14.36-14.91,21.79
						c-4.55,7.16-8.76,14.52-12.51,22.11c-3.74,7.58-7.03,15.39-9.69,23.4c-2.64,7.97-4.64,16.15-5.8,24.45
						c-0.14,1.03-0.28,2.05-0.4,3.08c0.43,0,0.85,0,1.28,0c-0.21-1.73-0.84-3.38-1.05-5.11c-0.05-0.43-0.36-0.68-0.81-0.61
						c-2.14,0.37-4.16,0.94-6.18,1.73c0.27,0.2,0.54,0.4,0.81,0.61c-0.11-2.07-0.24-4.14-0.4-6.22c-0.02-0.31-0.28-0.66-0.64-0.63
						c-2.32,0.21-4.64,0.46-6.95,0.77c0.21,0.21,0.43,0.42,0.64,0.63c-0.18-1.98-0.4-3.97-0.63-5.95c-0.04-0.3-0.27-0.67-0.64-0.63
						c-2.09,0.26-4.19,0.51-6.27,0.85c0.24,0.31,0.48,0.62,0.72,0.92c4.92-6.66,9.9-13.27,14.91-19.87
						c5.04-6.64,10.12-13.26,15.2-19.86c5.1-6.63,10.21-13.25,15.32-19.88s10.2-13.26,15.27-19.92
						c5.05-6.63,10.07-13.29,15.04-19.98c0.61-0.82,1.22-1.65,1.83-2.47c-0.4-0.11-0.8-0.21-1.19-0.32c0.02,0.64,0.6,0.85,1.16,0.9
						c0.28,0.03,0.57,0.03,0.85,0.04c0.13,0.01,0.29,0.04,0.41,0.02c0.36-0.05-0.09,0.51-0.12-0.36c0.03,0.81,1.31,0.81,1.28,0
						c-0.02-0.64-0.6-0.85-1.16-0.9c-0.28-0.03-0.57-0.03-0.85-0.04c-0.13-0.01-0.29-0.04-0.41-0.02c-0.36,0.05,0.09-0.51,0.12,0.36
						c-0.02-0.66-0.83-0.81-1.19-0.32c-4.96,6.7-9.96,13.36-15,19.99c-5.06,6.66-10.15,13.3-15.25,19.93
						c-5.1,6.63-10.22,13.25-15.32,19.88c-5.09,6.61-10.17,13.23-15.22,19.86c-5.02,6.6-10.01,13.21-14.95,19.87
						c-0.61,0.82-1.21,1.63-1.82,2.45c-0.37,0.49,0.24,1,0.72,0.92c1.97-0.32,3.95-0.56,5.93-0.81c-0.21-0.21-0.43-0.42-0.64-0.63
						c0.23,1.98,0.45,3.96,0.63,5.95c0.03,0.3,0.27,0.68,0.64,0.63c2.31-0.3,4.63-0.55,6.95-0.77c-0.21-0.21-0.43-0.42-0.64-0.63
						c0.16,2.07,0.29,4.14,0.4,6.22c0.02,0.37,0.4,0.77,0.81,0.61c2.02-0.79,4.03-1.36,6.18-1.73c-0.27-0.2-0.54-0.4-0.81-0.61
						c0.21,1.73,0.84,3.38,1.05,5.11c0.1,0.8,1.19,0.81,1.28,0c0.97-8.31,2.8-16.51,5.28-24.5c2.49-8.02,5.64-15.84,9.27-23.43
						c3.63-7.59,7.72-14.96,12.17-22.12c4.6-7.39,9.54-14.58,14.61-21.66c5-6.99,10.14-13.88,15.27-20.78
						c0.63-0.84,1.25-1.68,1.88-2.53C144.3,36.41,143.19,35.79,142.71,36.43L142.71,36.43z"/>
				</g>
			</g>
			<g class="st23">
				<path d="M65.77,138.87c-3.39,14.78,1.75,20.98,1.75,20.98s-6.27,1.23-7.28,3.65c0.67-8.44,1.73-17.12,3.68-25.37"/>
				<g>
					<path d="M65.15,138.71c-1.03,4.52-1.53,9.22-0.88,13.83c0.32,2.31,0.95,4.65,2.1,6.71c0.21,0.37,0.43,0.72,0.7,1.05
						c0.09-0.35,0.19-0.7,0.28-1.05c-1.15,0.23-2.29,0.56-3.39,0.96c-1.53,0.56-3.58,1.39-4.28,2.97c0.4,0.11,0.8,0.21,1.19,0.32
						c0.53-6.61,1.27-13.21,2.5-19.74c0.35-1.83,0.73-3.65,1.16-5.47c0.19-0.79-1.05-1.12-1.24-0.33
						c-1.54,6.55-2.51,13.21-3.2,19.89c-0.19,1.88-0.36,3.76-0.51,5.65c-0.05,0.6,0.94,0.89,1.19,0.32
						c0.58-1.32,2.43-2.02,3.77-2.49c1.02-0.36,2.07-0.66,3.13-0.87c0.52-0.1,0.56-0.72,0.28-1.05c0.13,0.16,0.05,0.06-0.04-0.06
						c-0.13-0.18-0.24-0.36-0.35-0.55c-0.18-0.3-0.34-0.61-0.49-0.92c-0.04-0.08-0.08-0.17-0.12-0.26
						c-0.02-0.05-0.05-0.11-0.07-0.16c-0.06-0.13,0.01,0.04-0.03-0.06c-0.1-0.23-0.19-0.47-0.28-0.7c-1.09-2.95-1.41-6.13-1.33-9.24
						c0.07-2.84,0.49-5.65,1.12-8.41C66.56,138.25,65.33,137.92,65.15,138.71L65.15,138.71z"/>
				</g>
			</g>
		</g>
		<g id="Ebene_19">
			<g class="st24">
				<g>
					<path class="st3" d="M137.67,70.52c-5.68,7.53-11.36,15.06-17.03,22.59c-5.68,7.53-11.36,15.06-17.03,22.59
						c-3.21,4.26-6.42,8.52-9.63,12.77c-0.53,0.71-0.14,1.9,0.61,2.29c0.89,0.46,1.77,0.15,2.34-0.6
						c5.68-7.53,11.36-15.06,17.03-22.59c5.68-7.53,11.36-15.06,17.03-22.59c3.21-4.26,6.42-8.51,9.63-12.77
						c0.53-0.71,0.14-1.9-0.61-2.29C139.12,69.45,138.24,69.76,137.67,70.52L137.67,70.52z"/>
				</g>
			</g>
			<g class="st24">
				<g>
					<path class="st3" d="M74.37,156.05c1.89-0.96,3.78-1.92,5.68-2.89c0.79-0.4,1.1-1.56,0.61-2.29c-0.52-0.79-1.49-1.03-2.34-0.6
						c-1.89,0.96-3.78,1.92-5.68,2.89c-0.79,0.4-1.1,1.56-0.61,2.29C72.55,156.24,73.52,156.48,74.37,156.05L74.37,156.05z"/>
				</g>
			</g>
			<g class="st24">
				<g>
					<path class="st3" d="M149.1,44.53c0.63,0.09,1.35,0.23,1.92,0.52c-0.42-0.21,0.08,0.05,0.16,0.08c0.15,0.07,0.3,0.15,0.44,0.23
						c0.29,0.16,0.56,0.35,0.84,0.54c0.15,0.11,0.13,0.1-0.05-0.04c0.06,0.05,0.13,0.1,0.19,0.16c0.13,0.11,0.25,0.22,0.37,0.33
						c0.21,0.2,0.41,0.41,0.6,0.62c0.05,0.06,0.11,0.12,0.16,0.19c-0.14-0.18-0.15-0.19-0.04-0.05c0.09,0.13,0.19,0.27,0.28,0.4
						c0.18,0.27,0.34,0.56,0.49,0.86c0.04,0.07,0.07,0.15,0.1,0.22c-0.09-0.21-0.09-0.22-0.02-0.04c0.06,0.17,0.12,0.33,0.18,0.5
						c0.11,0.34,0.18,0.68,0.25,1.03c0.03,0.19,0.03,0.17,0-0.05c0.01,0.09,0.02,0.18,0.03,0.26c0.01,0.13,0.02,0.26,0.03,0.4
						c0.01,0.35,0.01,0.71-0.02,1.06c-0.01,0.09-0.02,0.18-0.03,0.26c0.03-0.23,0.04-0.24,0.01-0.05c-0.03,0.17-0.06,0.35-0.1,0.52
						c-0.08,0.34-0.18,0.68-0.3,1.01c-0.03,0.08-0.06,0.17-0.1,0.25c0.09-0.2,0.09-0.21,0.01-0.04c-0.08,0.16-0.15,0.32-0.24,0.47
						c-0.17,0.31-0.36,0.61-0.57,0.89c-0.52,0.72-0.15,1.9,0.61,2.29c0.88,0.46,1.78,0.16,2.34-0.6c1.62-2.23,2.13-5.1,1.6-7.76
						c-0.5-2.56-2.17-4.76-4.35-6.2c-1.15-0.76-2.5-1.29-3.87-1.5c-0.88-0.13-1.88,0.22-2.1,1.17
						C147.72,43.27,148.15,44.39,149.1,44.53L149.1,44.53z"/>
				</g>
			</g>
			<g class="st24">
				<g>
					<path class="st3" d="M66.17,161c0.35-0.21,0.7-0.41,1.05-0.62c0.37-0.22,0.67-0.59,0.78-1c0.11-0.4,0.06-0.94-0.17-1.29
						c-0.5-0.76-1.52-1.08-2.34-0.6c-0.35,0.21-0.7,0.41-1.05,0.62c-0.37,0.22-0.67,0.59-0.78,1c-0.11,0.4-0.06,0.94,0.17,1.29
						C64.33,161.15,65.35,161.48,66.17,161L66.17,161z"/>
				</g>
			</g>
		</g>
	</g>
</g>
<g id="Ebene_19_1_">
</g>
<g id="Ebene_23_1_">
</g>
<g id="Ebene_20">
</g>
<g id="Ebene_21">
</g>
<g id="Ebene_17_1_">
</g>
<g id="Ebene_16_1_">
</g>
</svg>
