<?xml version="1.0" encoding="utf-8"?>
<!-- Generator: Adobe Adobe Illustrator 24.2.0, SVG Export Plug-In . SVG Version: 6.00 Build 0)  -->
<svg version="1.1" xmlns="http://www.w3.org/2000/svg" xmlns:xlink="http://www.w3.org/1999/xlink" x="0px" y="0px"
	 viewBox="0 0 2000 2000" style="enable-background:new 0 0 2000 2000;" xml:space="preserve">
<style type="text/css">
	.st0{fill:#D2E0EC;}
	.st1{fill:#6CB571;}
	.st2{fill:#885E5B;}
	.st3{fill:#F0C1A1;}
	.st4{opacity:0.1608;}
	.st5{fill:#F4F5E7;}
	.st6{fill:#F3C057;}
	.st7{fill:#7F8D9C;}
	.st8{fill:#CA334D;}
	.st9{fill:#CA344E;}
	.st10{opacity:0.149;}
	.st11{fill:#FFFFFF;}
	.st12{fill:#FFFFFF;stroke:#FFFFFF;stroke-width:0.814;stroke-miterlimit:10;}
	.st13{opacity:0.4;}
	.st14{fill:#CA354F;}
	.st15{display:none;}
	.st16{fill:#6BB571;}
	.st17{fill:#C9344E;}
	.st18{fill:#F3C058;}
	.st19{opacity:0.1098;}
</style>
<g id="Ebene_24_Kopie">
	<g>
		<path class="st0" d="M1427.76,1577.7c-15.19-89.6-84.52-164.28-167.19-206.84c-82.67-42.56-177.57-57.02-270.95-62.99
			c-95.61-6.1-195.27-3.2-281.61,37.1c-104.89,48.95-175.8,145.74-242.07,238.58c319.15,52.62,647.74,50.89,966.28-5.1"/>
		<g>
			<path d="M1432.05,1574.01c-12.14-70.17-56.64-130.23-112.25-172.94c-63.85-49.04-142.51-74.18-221.1-87.2
				c-41.53-6.88-83.57-10.61-125.59-12.72c-41.64-2.09-83.45-2.1-124.96,2.13c-41.14,4.19-82.02,12.77-120.51,28.11
				c-35.3,14.07-67.93,33.72-97.65,57.34c-59.3,47.12-105.99,107.87-150.04,168.9c-5.45,7.56-10.88,15.14-16.29,22.72
				c-1.44,2.02-4.23,8.15,0.15,8.87c125.18,20.6,251.69,32.91,378.5,36.83c125.9,3.9,252.03-0.46,377.37-12.96
				c70.83-7.06,141.38-16.78,211.49-29.08c4.55-0.8,8.37-12.22,2.1-11.12c-124.59,21.86-250.59,35.48-376.98,40.73
				c-126.13,5.24-252.61,2.23-378.35-9.06c-70.25-6.31-140.27-15.22-209.87-26.67c0.05,2.96,0.1,5.91,0.15,8.87
				c43.06-60.32,86.96-121.27,142.4-171c27.29-24.48,57.31-45.92,90.22-62.21c36.24-17.94,75.51-29.03,115.37-35.31
				c41.01-6.46,82.67-7.9,124.12-6.87c41.4,1.03,82.88,4.04,123.95,9.36c78.98,10.24,158.84,30.74,226.23,74.67
				c58.17,37.92,107.89,93.69,127.36,161.41c2.32,8.08,4.17,16.29,5.6,24.57c0.51,2.94,3.96,1.86,5.5,0.62
				C1431.28,1580.14,1432.55,1576.91,1432.05,1574.01L1432.05,1574.01z"/>
		</g>
	</g>
	<g>
		<g>
			<path d="M912.15,1454.82c19.44-20.12,35.53-43.25,54.98-63.38c-2.18,0.52-4.36,1.04-6.55,1.56
				c15.97,18.16,31.93,36.32,47.9,54.48c3.97,4.51,11.58-6.17,8.22-10c-15.97-18.16-31.93-36.32-47.9-54.48
				c-2.1-2.38-4.9-0.14-6.55,1.56c-19.44,20.12-35.53,43.25-54.98,63.38c-1.72,1.78-3.48,6.22-1.67,8.44
				C907.63,1458.87,910.59,1456.44,912.15,1454.82L912.15,1454.82z"/>
		</g>
	</g>
	<g>
		<g>
			<path d="M1012.69,1447.95c48.65-21.31,93.48-58.29,121.8-103.39c1-1.6,2.61-6.69-0.13-7.72c-18.93-7.14-37.86-14.28-56.78-21.42
				c-5.21-1.97-11.44,9.65-6.62,11.47c18.93,7.14,37.86,14.28,56.78,21.42c-0.04-2.57-0.09-5.15-0.13-7.72
				c-26.6,42.37-69.52,76.48-115.1,96.44C1007.82,1439.08,1005.47,1451.11,1012.69,1447.95L1012.69,1447.95z"/>
		</g>
	</g>
	<g>
		<g>
			<path d="M858.17,1307.38c-18.31,6.61-36.63,13.23-54.94,19.84c-3.44,1.24-7.06,6.05-5.72,9.9
				c18.07,51.86,56.48,95.57,105.7,119.99c4.92,2.44,11.41-9.09,6.62-11.47c-47.83-23.73-85.53-65.94-103.13-116.42
				c-1.91,3.3-3.81,6.6-5.72,9.9c18.31-6.61,36.63-13.23,54.94-19.84c2.98-1.08,5.23-4.01,5.76-7.13
				C862.05,1310.06,861.21,1306.28,858.17,1307.38L858.17,1307.38z"/>
		</g>
	</g>
	<g>
		<g>
			<path d="M956.38,1396.73c2.15,72.9,3.82,146.15-2.16,218.92c-0.25,2.98,2.58,3.93,4.87,2.81c2.96-1.45,4.43-5.05,4.68-8.11
				c5.98-72.77,4.31-146.02,2.16-218.92c-0.09-2.9-2.36-4.04-4.87-2.81C958.35,1389.94,956.29,1393.75,956.38,1396.73
				L956.38,1396.73z"/>
		</g>
	</g>
	<g>
		<g>
			<path d="M826.26,1390.65c3.37,73.9-1.86,149.07-18.56,221.23c-0.58,2.52,0.62,5.29,3.52,4.78c3.08-0.54,5.14-4.44,5.76-7.13
				c16.91-73.05,22.23-149.36,18.83-224.18c-0.13-2.89-2.33-4.05-4.87-2.81C828.27,1383.85,826.13,1387.69,826.26,1390.65
				L826.26,1390.65z"/>
		</g>
	</g>
	<g>
		<g>
			<path d="M749.35,1339.95c12.39,70.8,13.89,143.92,5.43,215.26c-2.35,19.78-5.52,39.46-9.54,58.97c-0.52,2.52,0.58,5.29,3.52,4.78
				c3.03-0.53,5.21-4.44,5.76-7.13c14.82-71.81,18.47-146.24,11.98-219.24c-1.8-20.28-4.45-40.48-7.96-60.53
				c-0.55-3.14-4.24-2-5.9-0.66C750.18,1333.38,748.81,1336.84,749.35,1339.95L749.35,1339.95z"/>
		</g>
	</g>
	<g>
		<g>
			<path d="M1090.34,1395.26c-8.73,73.45-8.49,149.42,8.6,221.69c0.73,3.07,4.13,2.09,5.9,0.66c2.34-1.9,4.01-5.54,3.3-8.56
				c-16.65-70.38-17.01-144.6-8.51-216.15C1100.65,1384.29,1091.02,1389.54,1090.34,1395.26L1090.34,1395.26z"/>
		</g>
	</g>
	<g>
		<g>
			<path d="M1161.64,1343.99c-10.91,68.16-7.74,138.34,9.47,205.2c4.95,19.22,11.08,38.1,18.29,56.59c2.48,6.36,11-3.25,9.19-7.9
				c-24.6-63.09-36.07-130.9-33.44-198.57c0.75-19.33,2.71-38.58,5.77-57.68c0.4-2.51-0.5-5.31-3.52-4.78
				C1164.47,1337.37,1162.07,1341.3,1161.64,1343.99L1161.64,1343.99z"/>
		</g>
	</g>
</g>
<g id="Ebene_35">
	<g>
		<path class="st1" d="M759.64,1334.86c14.75,89.93,14.12,182.33-1.85,272.05c17.29,0.93,34.58,1.87,51.88,2.8
			c0.19-47.34,12.25-93.81,16.4-140.97c4.15-47.16-0.85-98.08-30.21-135.33c11.39-9.37,24.96-16.11,39.35-19.51
			c-24.64,5.95-49.28,11.91-73.93,17.86"/>
		<g>
			<path class="st1" d="M755.04,1338.81c11.27,69.21,13.51,140,6.42,209.77c-2.03,19.93-4.82,39.78-8.31,59.51
				c-0.31,1.75-0.01,4.75,2.36,4.88c17.29,0.93,34.58,1.87,51.88,2.8c4.12,0.22,7.03-5.19,7.05-8.71
				c0.56-76.02,31.08-151.9,10.48-227.61c-5.01-18.42-13.22-35.95-24.96-51.05c-0.94,3.2-1.87,6.41-2.81,9.61
				c10.87-8.78,23.37-14.83,36.92-18.17c4.77-1.18,8.79-13.49,2.24-11.91c-24.64,5.95-49.28,11.91-73.93,17.86
				c-4.8,1.16-8.78,13.49-2.24,11.91c24.64-5.95,49.28-11.91,73.93-17.86c0.75-3.97,1.5-7.94,2.24-11.91
				c-15.37,3.78-29.47,10.92-41.77,20.86c-2.19,1.77-4.96,6.85-2.81,9.61c46.03,59.2,29.36,138.76,19.28,206.68
				c-3.31,22.29-5.97,44.72-6.13,67.27c2.35-2.9,4.7-5.81,7.05-8.71c-17.29-0.93-34.58-1.87-51.88-2.8
				c0.79,1.63,1.58,3.25,2.36,4.88c12.52-70.81,15.78-143.23,9.39-214.87c-1.79-20.07-4.35-40.06-7.59-59.95
				c-0.51-3.16-4.26-1.98-5.9-0.66C755.85,1332.27,754.53,1335.69,755.04,1338.81L755.04,1338.81z"/>
		</g>
	</g>
	<g>
		<path class="st1" d="M1100.06,1390.89c-3.16,62.84-2.47,125.87,2.06,188.63c0.49,6.8,1.16,13.97,5.14,19.51
			c8.33,11.62,25.38,5.52,39.71,6.07c20.76,0.79,28.99-9.92,41.7-3.31c-26.27-85.04-52.63-176.3-26.6-261.41
			c-16.16-5.22-32.32-10.44-48.48-15.66c8.54,4.06,17.08,8.12,25.63,12.18c-13.21,17.77-26.43,35.55-39.64,53.32"/>
		<g>
			<path class="st1" d="M1095.29,1393.55c-2.29,45.98-2.57,92.05-0.76,138.05c0.46,11.58,1.04,23.16,1.76,34.73
				c0.6,9.68,0.29,20.29,3.08,29.66c2.31,7.77,7.39,13.61,15.4,15.5c7.93,1.87,16.26,0.14,24.26-0.25
				c9.08-0.44,17.49-0.31,26.35-2.77c6.85-1.9,13.18-4.24,19.98-0.93c4.58,2.23,9.04-6.03,7.91-9.68
				c-19.97-64.7-40.36-131.86-36.72-200.36c1.02-19.19,4.17-38.31,9.72-56.71c0.42-1.4,1.35-5.4-0.89-6.13
				c-16.16-5.22-32.32-10.44-48.48-15.66c-5-1.62-11.62,9.09-6.62,11.47c8.54,4.06,17.08,8.12,25.63,12.18
				c0.29-3.06,0.58-6.12,0.87-9.18c-13.21,17.77-26.43,35.55-39.64,53.32c-1.5,2.02-3.62,6.04-1.67,8.44
				c1.89,2.32,5.17,0.28,6.55-1.56c13.21-17.77,26.43-35.55,39.64-53.32c1.31-1.76,4.28-7.56,0.87-9.18
				c-8.54-4.06-17.09-8.12-25.63-12.18c-2.21,3.82-4.41,7.65-6.62,11.47c16.16,5.22,32.32,10.44,48.48,15.66
				c-0.3-2.04-0.59-4.08-0.89-6.13c-20.56,68.2-9.33,139.57,8.89,206.95c5.34,19.73,11.28,39.28,17.31,58.8
				c2.64-3.23,5.27-6.46,7.91-9.68c-12.34-6.02-24.31,1.96-36.86,2.89c-8.32,0.62-16.85,0.8-25.2,1.14
				c-7.39,0.31-15.27-0.37-19.42-7.37c-4.92-8.32-3.96-20.42-4.55-29.73c-0.69-10.91-1.26-21.82-1.72-32.74
				c-0.93-22.17-1.38-44.36-1.35-66.54c0.03-25.17,0.7-50.33,1.95-75.47c0.15-2.96-2.52-3.96-4.87-2.81
				C1097.08,1386.85,1095.44,1390.5,1095.29,1393.55L1095.29,1393.55z"/>
		</g>
	</g>
</g>
<g id="Ebene_24_Kopie_2">
	<g>
		<g>
			<path d="M1432.05,1574.01c-12.14-70.17-56.64-130.23-112.25-172.94c-63.85-49.04-142.51-74.18-221.1-87.2
				c-41.53-6.88-83.57-10.61-125.59-12.72c-41.64-2.09-83.45-2.1-124.96,2.13c-41.14,4.19-82.02,12.77-120.51,28.11
				c-35.3,14.07-67.93,33.72-97.65,57.34c-59.3,47.12-105.99,107.87-150.04,168.9c-5.45,7.56-10.88,15.14-16.29,22.72
				c-1.44,2.02-4.23,8.15,0.15,8.87c125.18,20.6,251.69,32.91,378.5,36.83c125.9,3.9,252.03-0.46,377.37-12.96
				c70.83-7.06,141.38-16.78,211.49-29.08c4.55-0.8,8.37-12.22,2.1-11.12c-124.59,21.86-250.59,35.48-376.98,40.73
				c-126.13,5.24-252.61,2.23-378.35-9.06c-70.25-6.31-140.27-15.22-209.87-26.67c0.05,2.96,0.1,5.91,0.15,8.87
				c43.06-60.32,86.96-121.27,142.4-171c27.29-24.48,57.31-45.92,90.22-62.21c36.24-17.94,75.51-29.03,115.37-35.31
				c41.01-6.46,82.67-7.9,124.12-6.87c41.4,1.03,82.88,4.04,123.95,9.36c78.98,10.24,158.84,30.74,226.23,74.67
				c58.17,37.92,107.89,93.69,127.36,161.41c2.32,8.08,4.17,16.29,5.6,24.57c0.51,2.94,3.96,1.86,5.5,0.62
				C1431.28,1580.14,1432.55,1576.91,1432.05,1574.01L1432.05,1574.01z"/>
		</g>
	</g>
	<g>
		<g>
			<path d="M912.15,1454.82c19.44-20.12,35.53-43.25,54.98-63.38c-2.18,0.52-4.36,1.04-6.55,1.56
				c15.97,18.16,31.93,36.32,47.9,54.48c3.97,4.51,11.58-6.17,8.22-10c-15.97-18.16-31.93-36.32-47.9-54.48
				c-2.1-2.38-4.9-0.14-6.55,1.56c-19.44,20.12-35.53,43.25-54.98,63.38c-1.72,1.78-3.48,6.22-1.67,8.44
				C907.63,1458.87,910.59,1456.44,912.15,1454.82L912.15,1454.82z"/>
		</g>
	</g>
	<g>
		<g>
			<path d="M1012.69,1447.95c48.65-21.31,93.48-58.29,121.8-103.39c1-1.6,2.61-6.69-0.13-7.72c-18.93-7.14-37.86-14.28-56.78-21.42
				c-5.21-1.97-11.44,9.65-6.62,11.47c18.93,7.14,37.86,14.28,56.78,21.42c-0.04-2.57-0.09-5.15-0.13-7.72
				c-26.6,42.37-69.52,76.48-115.1,96.44C1007.82,1439.08,1005.47,1451.11,1012.69,1447.95L1012.69,1447.95z"/>
		</g>
	</g>
	<g>
		<g>
			<path d="M858.17,1307.38c-18.31,6.61-36.63,13.23-54.94,19.84c-3.44,1.24-7.06,6.05-5.72,9.9
				c18.07,51.86,56.48,95.57,105.7,119.99c4.92,2.44,11.41-9.09,6.62-11.47c-47.83-23.73-85.53-65.94-103.13-116.42
				c-1.91,3.3-3.81,6.6-5.72,9.9c18.31-6.61,36.63-13.23,54.94-19.84c2.98-1.08,5.23-4.01,5.76-7.13
				C862.05,1310.06,861.21,1306.28,858.17,1307.38L858.17,1307.38z"/>
		</g>
	</g>
	<g>
		<g>
			<path d="M956.38,1396.73c2.15,72.9,3.82,146.15-2.16,218.92c-0.25,2.98,2.58,3.93,4.87,2.81c2.96-1.45,4.43-5.05,4.68-8.11
				c5.98-72.77,4.31-146.02,2.16-218.92c-0.09-2.9-2.36-4.04-4.87-2.81C958.35,1389.94,956.29,1393.75,956.38,1396.73
				L956.38,1396.73z"/>
		</g>
	</g>
	<g>
		<g>
			<path d="M826.26,1390.65c3.37,73.9-1.86,149.07-18.56,221.23c-0.58,2.52,0.62,5.29,3.52,4.78c3.08-0.54,5.14-4.44,5.76-7.13
				c16.91-73.05,22.23-149.36,18.83-224.18c-0.13-2.89-2.33-4.05-4.87-2.81C828.27,1383.85,826.13,1387.69,826.26,1390.65
				L826.26,1390.65z"/>
		</g>
	</g>
	<g>
		<g>
			<path d="M749.35,1339.95c12.39,70.8,13.89,143.92,5.43,215.26c-2.35,19.78-5.52,39.46-9.54,58.97c-0.52,2.52,0.58,5.29,3.52,4.78
				c3.03-0.53,5.21-4.44,5.76-7.13c14.82-71.81,18.47-146.24,11.98-219.24c-1.8-20.28-4.45-40.48-7.96-60.53
				c-0.55-3.14-4.24-2-5.9-0.66C750.18,1333.38,748.81,1336.84,749.35,1339.95L749.35,1339.95z"/>
		</g>
	</g>
	<g>
		<g>
			<path d="M1090.34,1395.26c-8.73,73.45-8.49,149.42,8.6,221.69c0.73,3.07,4.13,2.09,5.9,0.66c2.34-1.9,4.01-5.54,3.3-8.56
				c-16.65-70.38-17.01-144.6-8.51-216.15C1100.65,1384.29,1091.02,1389.54,1090.34,1395.26L1090.34,1395.26z"/>
		</g>
	</g>
	<g>
		<g>
			<path d="M1161.64,1343.99c-10.91,68.16-7.74,138.34,9.47,205.2c4.95,19.22,11.08,38.1,18.29,56.59c2.48,6.36,11-3.25,9.19-7.9
				c-24.6-63.09-36.07-130.9-33.44-198.57c0.75-19.33,2.71-38.58,5.77-57.68c0.4-2.51-0.5-5.31-3.52-4.78
				C1164.47,1337.37,1162.07,1341.3,1161.64,1343.99L1161.64,1343.99z"/>
		</g>
	</g>
</g>
<g id="Ebene_4">
	<g>
		<path class="st2" d="M1342.11,780.9c0,31.16-19.9,63.15-56.81,65.71c-236.73,16.42-379.79,56.25-624.22,8.51
			c-33.71-6.58-51.41-44.35-50.92-73.47c0.83-49.71-3.38-46.51,0-76.66c12.3-109.89,7.4-165.69,54.35-265.66
			c45.01-95.86,159.68-176.81,282.19-176.81c204.53,0,395.41,130.97,395.41,417.98"/>
		<g>
			<path d="M1338.07,783.14c-0.13,15.38-5.16,30.92-15.85,42.24c-5.65,5.98-12.83,10.56-20.63,13.17
				c-9.48,3.18-19.53,3.25-29.41,3.99c-43.18,3.22-86.28,7.44-129.35,11.92c-77.22,8.04-154.49,16.8-232.2,18.04
				c-40.53,0.65-81.07-0.74-121.44-4.37c-21.91-1.97-43.76-4.58-65.52-7.78c-11.23-1.65-22.43-3.45-33.6-5.4
				c-11.11-1.94-23.19-3.04-33.84-6.85c-15.27-5.46-26.67-18.01-33.67-32.32c-3.39-6.93-5.75-14.43-7.14-22.01
				c-1.64-8.94-1.07-17.97-1.07-27c0-12.59-0.77-25.1-1.3-37.67c-0.53-12.67,1.12-25.14,2.44-37.72
				c3.9-37.26,6.14-74.72,11.09-111.87c4.65-34.94,12.76-69.06,25.35-102.02c13.34-34.94,30.05-67.62,54.33-96.25
				c23.85-28.12,52.8-51.9,84.64-70.43c32.95-19.18,69.13-32.77,106.75-39.17c32.47-5.52,65.72-4.83,98.37-1.23
				c55.46,6.13,109.83,22.66,158.19,50.73c49.41,28.68,91.16,69.1,121.36,117.6c35.12,56.4,53.7,121.7,59.93,187.53
				c1.78,18.76,2.57,37.59,2.6,56.44c0,2.48,2.05,3.4,4.13,2.38c2.35-1.15,3.97-4.33,3.97-6.88
				c-0.09-72.06-12.14-144.71-43.1-210.21c-25.59-54.14-64.19-101.51-112.7-136.72c-46.48-33.73-100.87-55.59-157.17-66.19
				c-28.84-5.43-58.33-8.07-87.69-7.74c-39.56,0.45-78.6,9.24-115.06,24.43c-68.36,28.5-129.85,80.53-164.3,146.64
				c-18.02,34.58-31.55,72.14-39.99,110.19c-7.74,34.88-10.8,70.52-13.95,106.04c-1.87,21.04-3.93,42.04-6.15,63.05
				c-1.12,10.58-1.42,20.98-0.81,31.6c0.91,15.64,0.64,31.21,0.89,46.86c0.24,15.68,4.97,31.52,13.2,44.86
				c8.6,13.95,21.72,24.94,37.86,28.75c23.5,5.54,47.84,8.81,71.73,12.13c42.9,5.97,86.11,9.57,129.42,10.64
				c79.63,1.97,158.97-5.16,238.09-13.37c42.99-4.47,85.96-9.11,129.02-12.91c11.5-1.01,23-1.97,34.51-2.86
				c10.7-0.83,21.8-0.78,32.35-2.86c16.67-3.28,30.93-13.53,40.41-27.48c8.88-13.07,13.32-28.73,13.45-44.47
				c0.02-2.49-2.06-3.39-4.13-2.38C1339.67,777.43,1338.09,780.59,1338.07,783.14L1338.07,783.14z"/>
		</g>
	</g>
</g>
<g id="Ebene_5">
	<g>
		<path class="st3" d="M1056.27,1172.84c3.85,41.49,7.7,82.97,11.55,124.46c1.39,14.95,2.61,30.81-4.16,44.23
			c-11.25,22.26-39.38,29.16-64.17,32.74c-36.41,5.26-78.79,6.68-104.1-19.88c-21.57-22.64-22.49-57.7-17.74-88.54
			s13.85-62.1,7.67-92.68c55.26,9.5,112.14,9.57,167.42,0.2"/>
		<g>
			<path class="st3" d="M1051.86,1175.28c3.79,40.83,7.58,81.65,11.37,122.48c1.55,16.74,4.1,36.56-8.32,50
				c-9.74,10.55-24.7,15.17-38.3,18.15c-14.83,3.25-30.18,5.13-45.34,5.7c-15.08,0.57-30.75-0.28-45.14-5.2
				c-14.49-4.96-27.03-14.1-35.1-27.24c-8.27-13.48-11.08-29.57-11.32-45.17c-0.64-41.97,17.92-82.31,9.82-124.48
				c-2.11,3.08-4.22,6.15-6.34,9.23c55.72,9.47,112.74,9.44,168.48,0.1c4.5-0.75,8.28-12.02,2.07-10.98
				c-55.05,9.22-111.34,9.05-166.35-0.3c-4.18-0.71-6.96,6-6.34,9.23c7.72,40.21-10.13,79.63-10.17,119.77
				c-0.02,16.49,2.63,33.27,10.38,48c7.33,13.94,19.65,24.71,34.16,30.69c29.36,12.11,64.48,8.41,94.88,2.5
				c15.14-2.94,30.56-7.73,42.73-17.57c13.59-10.99,19.72-27.24,20.21-44.39c0.32-11.27-1.2-22.59-2.24-33.79
				c-1.13-12.18-2.26-24.36-3.39-36.55c-2.32-25.02-4.64-50.05-6.97-75.07C1060,1163.18,1051.43,1170.58,1051.86,1175.28
				L1051.86,1175.28z"/>
		</g>
	</g>
</g>
<g id="Ebene_3">
	<g>
		<path class="st3" d="M1307.34,685.91c39.23-14.04,86.82-0.22,112.29,32.62s26.84,82.14,3.24,116.33
			c-23.6,34.19-70.35,50.62-110.3,38.76c-24.22,63.56-54.9,125.43-98.44,177.82c-43.54,52.39-100.8,95.03-166.59,113.4
			c-91.76,25.62-223.59-1.34-279.58-44.42C711.3,1076.84,633.24,874.2,633.24,874.2s-89.49,1.95-114.12-31.42
			c-24.63-33.36-22.94-101.02,5.29-131.43c20.51-22.1,67.36-28.52,116.91-23.16c17.53-40.75,23.46-73.65,25.71-113.6
			c104.69,11.33,212.37-67,237.45-168.75c129.7,174.18,347.79,157.04,347.79,157.04s3.29,105.1,52.44,124.37"/>
		<g>
			<path class="st3" d="M1306.3,691.4c44.38-15.49,97.67,4.26,118.97,46.73c10.47,20.87,12.82,45.9,6.73,68.41
				c-6.14,22.69-21.48,41.22-41.91,52.59c-22.86,12.72-50.25,16.15-75.42,8.9c-2.6-0.75-5.29,3.44-5.97,5.22
				c-30.68,80.31-72.17,159.01-137.19,216.88c-30.18,26.86-64.93,49.03-103.01,62.82c-35.17,12.74-72.32,17.1-109.59,16.12
				c-37.17-0.98-74.42-6.78-110.08-17.36c-28.05-8.32-58.13-19.72-80.71-38.93c-17.1-14.55-29.78-34.86-41.33-53.84
				c-14.9-24.49-28.03-50.04-40.44-75.86c-17.42-36.24-33.51-73.19-48.14-110.64c-0.25-0.63-0.49-1.26-0.74-1.89
				c-0.34-0.87-1.02-1.97-2.14-1.94c-12.81,0.27-25.74-0.59-38.46-2c-21.66-2.41-45.59-6.37-63.92-18.99
				c-20.44-14.07-26.26-43.45-26.68-66.64c-0.44-24.52,5.01-55.79,26.06-71.41c12.73-9.44,29.28-13.39,44.69-15.6
				c20.57-2.94,41.57-2.37,62.19-0.2c2.85,0.3,5.04-3.05,5.97-5.22c15.95-37.33,23.9-75.98,26.24-116.4
				c-2.17,2.68-4.33,5.35-6.5,8.03c85.11,8.88,169.41-39.03,215.14-109.53c13.12-20.23,22.84-42.51,28.7-65.9
				c-2.69,1.9-5.38,3.8-8.07,5.7c44.38,59.36,105.41,103.75,174.73,129.57c46.65,17.37,96.4,27.12,146.15,28.71
				c9.5,0.3,19.11,0.48,28.59-0.26c-0.77-1.05-1.53-2.09-2.3-3.14c0.41,12.73,2.08,25.52,4.23,38.06
				c3.89,22.69,10.07,46.3,22.86,65.74c6.59,10.02,15.45,18.86,26.7,23.41c4.75,1.92,10.55-8.78,6.1-10.57
				c-20.44-8.26-31.42-29.73-38.18-49.47c-6.52-19.05-10.14-39.13-12.02-59.14c-0.4-4.29-0.76-8.6-0.9-12.91
				c-0.04-1.2-0.69-3.27-2.3-3.14c-26.8,2.09-54.49-0.58-80.97-4.49c-60.28-8.9-119.1-29.35-170.34-62.62
				c-36.65-23.8-68.63-53.97-94.79-88.95c-3.02-4.03-7.47,3.32-8.07,5.7c-19.41,77.54-87.49,139.04-164.29,157.52
				c-21.88,5.27-44.4,6.89-66.79,4.56c-3.89-0.41-6.32,4.94-6.5,8.03c-2.23,38.52-9.99,75.24-25.18,110.8
				c1.99-1.74,3.98-3.48,5.97-5.22c-33.88-3.57-73.37-4.14-104.25,12.54c-25.77,13.92-37.52,43.26-40.7,71.1
				c-3.1,27.14,0,60.51,17.93,82.52c14.43,17.71,40.72,23.57,62.12,27.08c17.29,2.84,35.09,4.31,52.63,3.94
				c-0.71-0.65-1.42-1.3-2.14-1.94c12.71,32.97,26.86,65.45,41.75,97.49c12.39,26.66,25.46,53.05,40.06,78.58
				c12.35,21.6,25.65,43.64,42.98,61.68c18.84,19.61,45.01,31.49,70.22,40.58c35.14,12.66,72.27,20.11,109.48,22.99
				c37.18,2.88,75.55,1.38,111.68-8.46c39.36-10.72,75.93-30.29,108.2-55.07c69.82-53.6,116.8-130.49,150.61-210.58
				c4.34-10.28,8.47-20.64,12.45-31.06c-1.99,1.74-3.98,3.48-5.97,5.22c49.63,14.3,105.02-12.91,125.14-60.15
				c10.15-23.83,11.25-51.68,3.05-76.24c-8.13-24.37-25.49-44.37-48.34-56.06c-25.11-12.86-55.21-15.65-81.95-6.32
				c-2.75,0.96-4.83,3.72-5.31,6.58C1302.73,688.96,1303.5,692.38,1306.3,691.4L1306.3,691.4z"/>
		</g>
	</g>
</g>
<g id="Ebene_2">
	<g>
		<g>
			<path d="M1301.19,691.27c43.79-18.93,99.38-1.46,123.39,39.94c12.13,20.92,16.02,46.52,10.94,70.13
				c-4.88,22.66-18.91,42.07-38.35,54.56c-22.27,14.31-49.54,19.69-75.46,14.03c-4.55-0.99-9.66,9.98-4.2,11.17
				c50.98,11.14,106.08-19.89,123.03-69.22c8.53-24.81,7.94-52.83-2.11-77.12c-10.01-24.2-28.94-43.29-53.07-53.49
				c-26.9-11.38-57.5-11.67-84.34-0.06C1296.69,683.07,1294.52,694.15,1301.19,691.27L1301.19,691.27z"/>
		</g>
	</g>
	<g>
		<g>
			<path d="M644.56,682.73c-28.13-3.03-57.59-6.13-85.02,2.8c-23.54,7.66-43.13,23.4-52.78,46.54
				c-9.62,23.07-10.58,51.37-6.91,75.85c3.76,25.12,16.39,46.77,38.85,59.43c28.09,15.83,61.22,15.16,92.45,14.19
				c4.75-0.15,9.35-11.33,4.2-11.17c-26.12,0.81-53.51,1.8-78.31-7.84c-22.05-8.57-38.9-24.68-45.64-47.67
				c-6.37-21.74-6.09-47.29-0.99-69.27c5.33-23.01,20.79-39.21,42.68-47.53c27.87-10.6,58.35-7.26,87.28-4.14
				C645.07,694.4,649.97,683.31,644.56,682.73L644.56,682.73z"/>
		</g>
	</g>
	<g>
		<g>
			<path d="M1315.73,875.15c-19.69,60.98-50.75,118.47-91.95,167.62c-40.66,48.51-92.09,89.27-151.7,111.7
				c-58.08,21.86-122.35,27.44-183.2,14.96c-62.41-12.8-117.64-45.6-158.59-94.42c-43-51.26-69.11-114.42-86.59-178.41
				c-2.2-8.07-4.27-16.17-6.22-24.31c-1.42-5.92-9.54,2.84-8.47,7.28c15.9,66,39.57,131.83,79.94,187.06
				c19.49,26.67,42.96,50.8,70.15,69.67c25.7,17.83,54.51,30.81,84.6,39.22c61.06,17.08,127.38,15.05,187.82-3.72
				c62.19-19.32,116.53-57.16,160.72-104.53c45.1-48.35,79.97-106.49,103.2-168.31c2.87-7.63,5.54-15.33,8.05-23.09
				C1325.96,868.17,1317.68,869.11,1315.73,875.15L1315.73,875.15z"/>
		</g>
	</g>
	<g>
		<g>
			<path d="M1304.89,681.62c-14.59-14.49-22.8-35.16-29.63-54.16c-6.62-18.41-11.87-37.34-16.22-56.41
				c-0.9-3.93-1.77-7.87-2.54-11.82c-0.16-0.85-1.17-2-2.14-1.94c-26.73,1.54-54.23-1.6-80.53-5.91
				c-60.32-9.89-119.04-31.1-170.25-64.74c-36.5-23.97-68.46-54.11-94.71-89c-2.58-3.43-6.83,2.03-7.66,4.25
				c-27.85,74.61-92.93,132.58-168.59,155.98c-21.41,6.62-43.62,10.48-66.02,11.23c-3.95,0.13-6.28,4.53-6.5,8.03
				c-2.41,37.6-8.85,75.5-22.66,110.69c-0.78,1.99-0.98,5.51,1.77,5.95c2.75,0.44,5.15-3.14,5.97-5.22
				c14.51-37,21.18-76.78,23.72-116.3c-2.17,2.68-4.33,5.35-6.5,8.03c83.78-2.79,163.94-47.43,212.89-115.13
				c13.94-19.27,25.34-40.24,33.66-62.54c-2.55,1.42-5.1,2.83-7.66,4.25c44.65,59.34,105.71,103.94,174.9,130.51
				c46.38,17.82,95.88,28.31,145.51,30.8c9.45,0.48,19.01,0.83,28.46,0.28c-0.71-0.65-1.42-1.3-2.14-1.94
				c6.33,32.87,15.77,66.39,30.58,96.46c4.94,10.02,10.72,19.95,18.7,27.87C1301.3,694.8,1308.18,684.88,1304.89,681.62
				L1304.89,681.62z"/>
		</g>
	</g>
	<g>
		<g>
			<path d="M1054.15,1174.14c3.76,38.39,7.52,76.78,11.28,115.17c1.65,16.85,6.29,37.39-3.15,52.74
				c-7.82,12.72-22.49,20.47-35.95,25.8c-31.72,12.57-68.42,14.77-100.74,3.04c-13.77-5-27.12-12.67-37.01-23.61
				c-11.12-12.31-15.85-27.39-15.89-43.85c-0.06-20.93,4.19-42.12,6.87-62.83c2.79-21.59,5.59-43.17,8.38-64.76
				c1.03-7.93-7.88-3.08-8.56,2.17c-2.71,20.93-5.42,41.86-8.13,62.8c-2.59,20-6.1,40.13-7.17,60.28
				c-0.92,17.31,1.71,34.74,11.91,49.16c8.89,12.55,21.98,21.9,35.9,28.15c33.02,14.8,71.92,14.46,105.84,2.84
				c15.35-5.26,30.61-12.62,42.1-24.34c12.86-13.11,17.49-29.7,16.61-47.78c-1.12-23.01-4.31-46.07-6.55-69
				c-2.31-23.63-4.63-47.25-6.94-70.88C1062.25,1162.04,1053.69,1169.44,1054.15,1174.14L1054.15,1174.14z"/>
		</g>
	</g>
	<g>
		<g>
			<path d="M1074.01,965.01c-22.21,24.79-50.54,45.49-84.4,49.48c-29.69,3.5-58.76-7.38-83.07-23.76
				c-16.19-10.9-30.51-24.24-43.54-38.72c-4.97-5.52-14.32,7.67-10.13,12.33c23.06,25.62,50.88,49.02,84.17,59.72
				c30.63,9.85,62.65,6.8,91.1-8.19c19.93-10.5,36.93-25.7,51.87-42.38c2.1-2.34,4.27-7.52,2.06-10.41
				C1079.72,960,1075.81,963.01,1074.01,965.01L1074.01,965.01z"/>
		</g>
	</g>
	<g>
		<g>
			<path d="M988.41,773.58c-10.79-8.65-26.01-9.61-38.34-3.76c-12.45,5.91-20.3,18.96-21.48,32.47c-1.14,13.1,4.27,26.22,15.8,33.11
				c11.47,6.86,26.29,6.7,37.66-0.2c2.43-1.47,4.47-4.55,4.32-7.48c-0.13-2.5-2.15-4.01-4.49-2.59
				c-18.52,11.24-44.41-1.5-44.67-23.71c-0.27-23.88,28.73-30.39,45.09-17.28C986.01,787.12,992.44,776.8,988.41,773.58
				L988.41,773.58z"/>
		</g>
	</g>
	<g>
		<path d="M1041.04,686.58c1.73-7.77-0.26-15.82-1.76-23.64c-1.5-7.82-2.44-16.29,1.13-23.42s13.31-11.66,19.91-7.17
			c6.99,4.75,5.99,14.98,6.53,23.39c0.43,6.69,2.33,13.19,3.34,19.82c1.01,6.63,1.06,13.7-1.98,19.69
			c-3.04,5.98-9.88,10.44-16.46,8.97c-6.57-1.47-10.79-10.3-6.56-15.51"/>
		<g>
			<path d="M1045.32,685.49c1.24-6.69,0.64-13.19-0.57-19.84c-1.23-6.75-3.33-13.92-2.11-20.83c0.92-5.18,4.92-9.09,10.48-8.63
				c5.81,0.48,8.09,5.85,8.75,10.94c0.68,5.27,0.36,10.6,1.1,15.87c1.02,7.24,3.31,14.36,3.42,21.71c0.08,5.92-1.4,12.39-8.01,13.91
				c-2.81,0.65-5.76,0.06-7.89-1.96c-0.85-0.81-1.63-1.92-2.07-3c-0.22-0.54-0.27-2.86-0.99-1.81c1.33-1.92,3.37-5.52,1.54-7.78
				c-1.7-2.1-4.83-0.31-6.03,1.44c-3.45,4.99-5.11,10.72-2.51,16.5c2.51,5.57,7.91,8.63,13.97,7.89
				c15.56-1.91,21.85-19.93,20.6-33.46c-0.76-8.26-3.38-16.22-3.82-24.51c-0.33-6.17,0-12.72-2.59-18.49
				c-5.79-12.93-21.38-8.93-28.71,0.23c-5.37,6.72-6.88,15.63-6.13,24.02c0.89,9.98,4.89,19.89,3.02,29.96
				c-0.43,2.32,0.5,4.89,3.25,4.4C1042.76,691.58,1044.86,687.97,1045.32,685.49L1045.32,685.49z"/>
		</g>
	</g>
	<g>
		<path d="M883.97,673.6c-3.5-7.61-7.08-15.7-6.12-24.01c0.96-8.31,8.38-16.49,16.67-15.05c9,1.55,12.75,12.26,13.93,21.27
			c1.26,9.64,1.58,19.41,0.95,29.11c-0.45,6.95-2.42,15.21-9.05,17.45c-5.82,1.97-12.28-2.31-14.87-7.86s-2.33-11.94-2.01-18.05"/>
		<g>
			<path d="M888.21,669.96c-3.31-7.24-12.72-27.55,1.24-29.89c10.89-1.83,14.09,13.41,14.95,21.08c0.72,6.44,1.01,12.93,0.89,19.42
				c-0.08,4.04,0.6,11.95-2.44,15.3c-3.49,3.84-9.86-0.35-12.11-3.51c-3.74-5.23-3.15-12.26-2.85-18.34
				c0.14-2.73-2.32-3.65-4.49-2.59c-2.66,1.3-4.18,4.67-4.32,7.48c-0.56,11.23,1.17,29.52,16.46,29.53
				c12.95,0.02,17.54-15.63,18.26-25.97c0.95-13.49,1.31-29.9-4.48-42.46c-5.11-11.09-16.96-14.76-26.56-6.32
				c-13.6,11.97-9.64,29.08-3.03,43.54C882.37,683.01,890.12,674.13,888.21,669.96L888.21,669.96z"/>
		</g>
	</g>
	<g>
		<g>
			<path d="M906.58,587.91c-26.31-0.82-51.49,10.89-68.37,30.99c-1.48,1.77-3.28,5.64-1.54,7.78c1.79,2.21,4.69,0.16,6.03-1.44
				c14.63-17.42,37.04-26.87,59.68-26.17C907.13,599.23,911.87,588.08,906.58,587.91L906.58,587.91z"/>
		</g>
	</g>
	<g>
		<g>
			<path d="M1107.33,616.68c-17.04-19.37-43.06-28.47-68.47-24.25c-4.5,0.75-8.28,12.01-2.07,10.98
				c23.15-3.84,47.48,4.89,62.97,22.5C1103.41,630.06,1110.43,620.21,1107.33,616.68L1107.33,616.68z"/>
		</g>
	</g>
	<g>
		<g>
			<path d="M611.2,711.68c-36.63,5.48-66.95,38.39-70.3,75.15c-0.72,7.95,8.08,3.13,8.56-2.17c2.89-31.73,28.4-57.32,59.67-62
				C613.65,721.98,617.45,710.74,611.2,711.68L611.2,711.68z"/>
		</g>
	</g>
	<g>
		<g>
			<path d="M1340.01,712.59c34.59,4.55,63.74,38.79,59.91,74.11c-0.86,7.94,7.99,3.11,8.56-2.17c4.25-39.24-24.7-77.9-64.27-83.1
				C1339.54,700.81,1334.59,711.88,1340.01,712.59L1340.01,712.59z"/>
		</g>
	</g>
	<g>
		<g id="Ebene_8_1_">
			<g class="st4">
				<path d="M848.54,1490.59c-31.19,87.9-52.8,171.17-86.33,265.67c116.2-49.21,239.73-109.2,334.79-190.32
					c63.16-53.89,114-119.61,166.46-183.29c111.24-135.01,231.77-262.89,360.54-382.52c-16.83-1.93-23.31-24.42-15.6-38.99
					c7.71-14.57,23.64-22.93,38.18-31.35c14.54-8.41,29.63-19.22,33.36-35.18c-23.71-36.91-47.32-79.46-89-95.8
					c-45.79-17.95-43.58-24.67-95.98,35.08c-5.41,6.17-34.6,37.47-41.89,49.64c-89.81,149.87-59.46,111.46-83.4,89.83"/>
				<g>
					<path d="M845.4,1490.3c-23.86,67.37-43.41,136.04-65.44,203.97c-6.7,20.65-13.63,41.23-20.88,61.7c-0.9,2.53-0.1,5.61,3.2,4.22
						c67.62-28.65,134.44-59.46,197.99-95.87c63.52-36.39,123.58-78.52,175.23-129.7c53.58-53.08,99.12-112.96,147.24-170.54
						c49.87-59.67,101.56-117.93,154.99-174.66c53.57-56.89,108.88-112.24,165.86-165.96c7.1-6.7,14.23-13.37,21.38-20.02
						c1.52-1.41,4.7-7.11,0.73-7.68c-13.38-1.93-18.98-17.08-16.33-28.6c3.46-15.01,20.89-24.02,33.4-31.22
						c13.39-7.71,27.24-16.18,35.37-29.47c1.96-3.2,3.51-6.63,4.57-10.2c1.27-4.27-0.1-5.87-2.42-9.51
						c-4.18-6.56-8.3-13.15-12.53-19.69c-16.42-25.4-35.09-51.7-62.62-66.88c-10.45-5.76-22.2-10-33.43-14.19
						c-6.74-2.51-13.85-4.83-21.16-3.96c-7.6,0.91-14.21,5.29-19.91,9.97c-10.52,8.65-19.53,19.11-28.5,29.19
						c-15.77,17.73-32.62,34.95-46.8,53.9c-9.44,12.63-16.76,26.92-24.76,40.42c-7.11,12.01-14.19,24.05-21.27,36.08
						c-4.57,7.76-9.13,15.53-13.82,23.22c-1.61,2.64-3.24,5.27-4.93,7.86c-0.6,0.92-1.22,1.84-1.84,2.75
						c-0.29,0.43-0.59,0.85-0.88,1.27c0.78-1.09-0.2,0.26-0.37,0.48c-0.47,0.61-0.96,1.2-1.44,1.81c-0.18,0.22-0.38,0.43-0.57,0.64
						c-0.79,0.88,0.74-0.72-0.05,0.05c-0.87,0.85-0.22,0.13-0.21,0.24c0.02,0.3,0.31-0.01-0.16,0.05c0.78-0.11,0.39-0.21,0.5,0.01
						c-0.33-0.63-0.89-1.24-1.26-1.87c-0.25-0.43-0.45-0.93-1.07-2.33c-0.57-1.26-1.13-2.52-1.73-3.77c-1.41-2.93-3-5.76-5.04-8.32
						c-1.12-1.41-2.36-2.73-3.7-3.95c-3.31-3.02-8.84,4.74-6.13,7.21c2.19,2,4.09,4.27,5.69,6.74c1.42,2.19,2.5,4.36,3.24,5.99
						c1.19,2.62,2.32,7.33,5.32,8.64c4.59,1.99,9.01-4.46,11.15-7.4c6.83-9.4,12.51-19.63,18.39-29.58
						c12.24-20.71,24.39-41.46,36.71-62.12c5.73-9.6,11.28-18.76,18.43-27.43c6.79-8.22,13.9-16.2,21.04-24.13
						c14.01-15.54,27.17-32.21,42.82-46.26c4.7-4.22,9.98-8.63,16.34-10.21c5.32-1.32,10.83-0.28,15.97,1.32
						c7.85,2.44,15.37,5.89,22.98,8.94c11.87,4.75,22.68,10.55,32.5,18.62c20.57,16.91,35.22,39.63,49.21,61.64
						c3.5,5.5,6.97,11.02,10.49,16.51c-0.13-0.92-0.26-1.84-0.4-2.75c-3.66,14.24-17.73,23.27-29.97,30.4
						c-12.35,7.19-25.4,14.12-34.66,25.09c-7.79,9.23-11.8,20.51-9.57,32.39c1.94,10.31,8.8,19.54,20.03,21.16
						c0.24-2.56,0.49-5.12,0.73-7.68c-57.06,53.04-112.53,107.67-166.3,163.81c-53.7,56.08-105.69,113.7-155.9,172.72
						c-48.84,57.43-94.39,117.68-146.09,172.79c-50.25,53.58-108.15,98.48-171.56,136.76c-62.62,37.81-128.95,69.61-196.27,98.81
						c-8.24,3.57-16.51,7.11-24.77,10.62c1.07,1.41,2.13,2.81,3.2,4.22c24.27-68.52,44.33-138.28,66.66-207.39
						c6.3-19.51,12.82-38.94,19.67-58.27C853.79,1484.88,847.05,1485.63,845.4,1490.3L845.4,1490.3z"/>
				</g>
			</g>
		</g>
		<g id="Ebene_3_1_">
			<g>
				<g>
					<path d="M836.85,1625.48c-10.63,45.75-24.48,90.75-41.39,134.71c-0.93,2.42-0.05,5.76,3.2,4.22
						c42.37-20.16,84.74-40.32,127.11-60.47c1.96-0.93,5.07-5.51,3-7.54c-27.52-26.9-55.04-53.81-82.57-80.72
						c-3.18-3.12-8.77,4.62-6.13,7.21c27.52,26.9,55.04,53.81,82.57,80.72c1-2.51,2-5.02,3-7.54
						c-42.37,20.16-84.74,40.32-127.11,60.47c1.07,1.41,2.13,2.81,3.2,4.22c17.2-44.68,31.24-90.47,42.06-136.97
						c0.42-1.81-0.45-3.81-2.63-3.44C838.86,1620.73,837.3,1623.54,836.85,1625.48L836.85,1625.48z"/>
				</g>
			</g>
		</g>
		<g id="Ebene_4_1_">
			<g>
				<path class="st5" d="M888.44,1490.59c-2.91,23.09-15.49,43.81-24.67,65.32c-9.18,21.51-14.87,46.7-4.1,67.52
					c7.98,15.43,23.54,25.62,35.58,38.37c12.24,12.96,23.18,30.15,41.19,32.49c10.85,1.42,21.47-3.19,31.39-7.67
					c32.4-14.67,64.81-29.33,97.21-44c-62.21-43.85-120.1-93.41-172.64-147.79"/>
				<g>
					<path class="st5" d="M884.97,1491.43c-3.45,25.91-18.71,48.05-27.55,72.28c-8.25,22.62-11.64,48.94,3.15,69.8
						c6.86,9.67,16.3,17.23,24.96,25.33c8.08,7.55,14.74,16.24,22.42,24.14c7.07,7.28,15.37,13.85,25.86,15.53
						c13.9,2.23,27.28-4.89,39.42-10.39c30.63-13.86,61.25-27.72,91.88-41.58c2.42-1.09,5.17-6.11,2.41-8.06
						c-48.37-34.14-94.16-71.65-136.81-112.28c-12-11.42-23.74-23.09-35.24-34.98c-3.08-3.18-8.71,4.54-6.13,7.21
						c41.12,42.51,85.45,82.12,132.57,118.36c13.34,10.26,26.9,20.24,40.66,29.95c0.8-2.69,1.6-5.37,2.41-8.06
						c-26.09,11.8-52.17,23.61-78.25,35.41c-6.51,2.94-13.01,5.9-19.52,8.83c-6.16,2.78-12.44,5.5-19.17,6.7
						c-11.5,2.05-21.64-2.51-29.93-9.95c-7.79-7-13.93-15.53-21.22-22.98c-7.97-8.15-17.11-15.19-24.74-23.67
						c-7.92-8.78-13.28-19-14.46-30.7c-1.19-11.82,1.13-23.75,4.92-34.96c8.88-26.27,25.6-49.78,29.3-77.65
						C892.73,1483.54,885.52,1487.33,884.97,1491.43L884.97,1491.43z"/>
				</g>
			</g>
		</g>
		<g id="Ebene_5_1_">
			<g>
				<path class="st6" d="M1366.5,1005.69c-150.58,147.99-300,287.63-444.94,440.78c-8.74,9.24-28.86,31.01-28.11,43.5
					c0.8,13.31,26.15,21.89,35.91,31.31c42,40.55,70.75,59.68,118.77,101.32c3.87,3.36,22.83,33.35,48.01,4.15
					c134.47-155.88,447.43-504.26,446.73-510.97c-0.55-5.38-3.77-10.67-8.42-13.67c-42.83-27.65-79.3-68.32-125.22-93.97
					c-14.45-8.08-36.92-13.17-44.6,1.13"/>
				<g>
					<path class="st6" d="M1365.53,1002.37c-32.46,31.9-65.09,63.63-97.77,95.33c-32.27,31.29-64.57,62.54-96.79,93.87
						c-32.15,31.27-64.22,62.62-96.07,94.18c-32.11,31.83-64.01,63.85-95.55,96.2c-15.89,16.3-31.69,32.68-47.38,49.15
						c-11.41,11.97-23.24,23.75-32.64,37.32c-3.99,5.76-7.97,12.3-9.15,19.25c-1.05,6.25,1.22,11.66,5.77,16.1
						c5.19,5.06,11.6,8.75,17.81,12.51c3.03,1.84,6.08,3.67,8.95,5.74c3.32,2.39,6.11,5.34,9.07,8.13
						c26.43,25.04,55.06,47.61,83.24,70.77c8.03,6.6,16,13.27,23.9,20.02c4.05,3.47,7.46,6.88,11.04,10.71
						c7.6,8.14,18.14,14.9,29.89,10.93c13.09-4.43,21.47-17.25,30.03-27.13c7.46-8.61,14.93-17.19,22.42-25.77
						c16.98-19.47,34.02-38.9,51.08-58.3c18.71-21.29,37.46-42.54,56.22-63.79c19.66-22.26,39.32-44.51,59-66.76
						c19.46-22,38.91-43.99,58.37-65.99c18.48-20.9,36.96-41.8,55.41-62.72c16.38-18.57,32.75-37.15,49.08-55.76
						c13.48-15.37,26.94-30.76,40.33-46.2c9.51-10.98,19.02-21.98,28.35-33.11c4.94-5.89,10.26-11.75,14.45-18.18
						c3.99-6.12,0.24-13.91-4.74-18.57c-3.35-3.14-7.66-5.41-11.43-8.04c-4.02-2.79-7.97-5.68-11.87-8.62
						c-7.89-5.97-15.58-12.19-23.19-18.48c-15.4-12.74-30.53-25.8-46.51-37.86c-7.97-6.01-16.14-11.77-24.63-17.06
						c-7.26-4.53-14.65-8.96-22.9-11.59c-13.5-4.32-29.57-4.35-37.25,9.21c-0.82,1.45-1.86,4.46,0.1,5.57
						c1.92,1.07,4.24-1.3,5.04-2.7c3.1-5.49,9.96-6.41,15.91-6c7.41,0.52,14.59,2.94,21.14,6.23c17.01,8.56,32.55,20.41,47.33,32.11
						c15.37,12.17,30.13,25.04,45.37,37.37c7.36,5.95,14.83,11.78,22.53,17.31c7.19,5.16,17.32,9.41,19.54,18.56
						c0.36,1.48-0.01,1.85,0.37,0.49c0.21-0.76,0.45-1.42,0.22-0.85c0.41-1.04,0.7-1.21,0.14-0.4c-0.24,0.34-0.48,0.68-0.69,1.03
						c-0.39,0.65,0.94-1.25,0.28-0.39c-0.18,0.24-0.36,0.49-0.54,0.73c-2.02,2.68-4.14,5.3-6.27,7.91
						c-7.66,9.37-15.56,18.56-23.46,27.74c-11.77,13.69-23.63,27.3-35.52,40.89c-14.97,17.12-29.98,34.2-45.01,51.26
						c-17.35,19.7-34.72,39.38-52.11,59.04c-18.67,21.13-37.36,42.25-56.04,63.37c-19.28,21.8-38.56,43.59-57.83,65.4
						c-18.82,21.29-37.62,42.59-56.4,63.9c-17.56,19.93-35.1,39.87-52.6,59.84c-15.48,17.68-30.95,35.38-46.34,53.13
						c-3.37,3.89-6.74,7.78-10.11,11.68c-4.69,5.43-9.65,11.44-17.03,13.41c-10.67,2.84-19.62-4.93-25.99-12.19
						c-4.16-4.74-9.16-8.65-13.99-12.75c-7.49-6.36-15.04-12.64-22.65-18.88c-13.61-11.15-27.37-22.12-40.88-33.38
						c-14.14-11.8-27.92-23.98-41.21-36.68c-5.15-4.92-10.55-8.8-16.69-12.52c-5.99-3.63-12.54-7.15-17.38-12.21
						c-4.08-4.26-5.21-8.38-3.04-13.79c2.56-6.35,6.94-12.08,11.25-17.43c10.94-13.6,23.6-25.98,35.69-38.61
						c30.63-32,61.65-63.65,92.94-95.05c30.95-31.06,62.16-61.87,93.52-92.54c31.47-30.79,63.08-61.45,94.7-92.1
						c31.64-30.66,63.29-61.31,94.84-92.06c15.44-15.05,30.85-30.12,46.22-45.23c1.52-1.49,3.24-3.94,2.46-6.16
						C1369.24,1000.85,1366.88,1001.04,1365.53,1002.37L1365.53,1002.37z"/>
				</g>
			</g>
		</g>
		<g id="Ebene_6">
			<g>
				<path class="st7" d="M1447.8,877.44c-25.24,22.35-48.28,47-68.72,73.52c-5.11,6.62-10.29,14.18-9.4,22.39
					c1.01,9.26,9.3,15.96,16.97,21.62c46.54,34.35,95.55,65.1,142.09,99.45c9.59,7.07,18.3,18.15,30.16,16.03
					c9.74-1.75,19.96-7.82,23.3-16.83c9.51-25.71,34.55-46.32,50.8-58.18c7.57-5.52,12.56-14.81,12.66-23.97
					c0.13-11.82-10.16-21.01-19.71-28.41c-54.72-42.43-112.99-80.56-174.07-113.92"/>
				<g>
					<path class="st7" d="M1446.82,874.12c-19.87,17.64-38.46,36.63-55.48,56.87c-4.32,5.13-8.53,10.34-12.65,15.63
						c-3.84,4.94-7.62,9.94-10.16,15.65c-2.33,5.22-3.31,11.17-1.76,16.73c1.46,5.23,4.97,9.62,8.97,13.3
						c9.49,8.73,20.81,15.9,31.36,23.36c11.46,8.1,23.02,16.05,34.61,23.98c23.18,15.84,46.47,31.52,69.29,47.85
						c5.5,3.93,11.05,7.82,16.39,11.94c4.33,3.34,8.24,7.16,12.71,10.34c3.9,2.77,8.5,5.13,13.44,5.32
						c5.26,0.2,10.71-1.68,15.33-3.96c4.75-2.35,9.13-5.73,12.31-9.9c3.32-4.35,4.71-9.44,7.14-14.24
						c4.99-9.87,12.1-18.63,19.92-26.55c6.81-6.89,14.34-13.13,22.11-18.98c4.28-3.22,8.32-6.36,11.48-10.7
						c3.41-4.67,5.86-10.06,6.86-15.71c1.99-11.26-3.1-20.73-11.27-28.47c-9.06-8.59-19.65-15.86-29.7-23.34
						c-43.31-32.21-88.73-61.78-135.89-88.48c-5.8-3.29-11.64-6.53-17.5-9.73c-3.53-1.93-8.47,6.33-4.94,8.26
						c44.74,24.46,87.99,51.43,129.43,80.81c10.52,7.46,20.93,15.07,31.22,22.83c8.93,6.74,18.95,13.24,26.01,21.92
						c3.2,3.92,5.81,8.5,6.02,13.6c0.2,4.99-1.52,10.11-4.47,14.18c-2.69,3.7-6.5,6.16-10.12,8.9c-3.51,2.66-6.94,5.41-10.28,8.25
						c-15.79,13.44-30.26,29.44-37.79,48.67c-3.25,8.29-14.08,14.7-23.34,13.86c-9.67-0.89-16.98-9.98-24.1-15.42
						c-20.85-15.91-42.83-30.54-64.53-45.34c-21.98-14.99-44.03-29.91-65.61-45.43c-5.06-3.64-10.15-7.26-15.1-11.04
						c-4.24-3.25-8.41-6.82-11.18-11.37c-6.6-10.84,2.75-21.02,9.34-29.36c15.4-19.47,32.19-37.93,50.29-55.1
						c4.45-4.22,8.99-8.38,13.59-12.45c1.58-1.4,3.21-4.01,2.46-6.16C1450.51,872.55,1448.22,872.88,1446.82,874.12L1446.82,874.12z
						"/>
				</g>
			</g>
		</g>
		<g id="Ebene_7">
			<g>
				<path class="st8" d="M1479.89,874.95c12.34-33.2,39.19-55.47,62.29-81.19c3.49-3.89,14.45-3.99,19.71-4.76
					c5.82-0.85,11.26,2.7,16.01,6.07c39.32,27.88,78.65,55.77,117.97,83.65c7.54,5.34,15.93,12.45,14.86,21.41
					c-0.64,5.4-4.66,9.78-8.48,13.77c-17.49,18.25-34.99,36.49-52.49,54.74c-4.04,4.21-8.58,8.68-14.47,9.41
					c-6.5,0.8-12.49-3.2-17.74-7c-45.98-33.25-91.97-66.5-137.95-99.75"/>
				<g>
					<path class="st9" d="M1483.02,875.24c6.02-15.94,15.87-29.86,27.14-42.75c5.65-6.46,11.58-12.67,17.53-18.86
						c2.63-2.74,5.26-5.48,7.87-8.24c1.42-1.51,2.85-3.02,4.25-4.54c0.7-0.76,1.41-1.53,2.11-2.29c0.47-0.51,0.93-1.02,1.4-1.53
						c0.82-0.85,0.94-1.01,0.36-0.48c2.46-1.68,6.11-1.97,9.01-2.33c3.4-0.43,7.33-1.23,10.75-0.88c4.5,0.47,8.46,3.38,12.01,5.88
						c4.58,3.22,9.13,6.47,13.69,9.71c17.2,12.2,34.41,24.4,51.61,36.6c17.55,12.45,35.17,24.82,52.67,37.34
						c5.66,4.05,13.73,9.83,13.86,17.36c0.07,3.91-2.85,6.96-5.39,9.69c-3.68,3.96-7.48,7.82-11.22,11.72
						c-14.46,15.08-28.76,30.31-43.38,45.24c-2.6,2.65-5.49,5.48-9.22,6.51c-4.8,1.33-9.53-0.9-13.48-3.36
						c-8.89-5.51-17.14-12.22-25.6-18.33c-38.96-28.18-77.93-56.35-116.89-84.52c-3.11-2.25-8.27,5.86-4.94,8.26
						c37.39,27.03,74.77,54.06,112.15,81.1c9.19,6.64,18.26,13.45,27.57,19.92c7.76,5.4,16.56,8.43,25.23,2.96
						c3.98-2.51,7.18-5.87,10.39-9.22c3.85-4.02,7.71-8.04,11.56-12.07c7.86-8.2,15.71-16.39,23.58-24.59
						c4.01-4.17,8.01-8.35,12.01-12.52c3.56-3.71,7.32-7.31,10.26-11.52c5.23-7.49,6.08-16.35,0.58-23.91
						c-5.51-7.58-14.54-12.71-22.12-18.09c-9.3-6.6-18.61-13.2-27.91-19.79c-18.61-13.2-37.21-26.39-55.83-39.59
						c-9.24-6.55-18.26-13.69-27.91-19.67c-3.86-2.39-8.2-4.23-12.87-3.85c-3.58,0.29-7.21,0.67-10.75,1.19
						c-3.39,0.5-6.88,1.23-9.79,3.05c-3.63,2.26-6.35,6.25-9.22,9.3c-6.25,6.67-12.65,13.19-18.88,19.86
						c-12.55,13.42-24.53,27.67-32.8,44c-2.09,4.13-3.97,8.34-5.6,12.65c-0.59,1.56-0.82,4.29,1.43,4.64
						C1480.38,879.66,1482.4,876.87,1483.02,875.24L1483.02,875.24z"/>
				</g>
			</g>
		</g>
		<g id="Ebene_2_1_">
			<g>
				<g>
					<path d="M1450.2,864.71c-18.11,20.69-36.25,41.35-54.39,62.01c-4.66,5.31-9.32,10.62-13.98,15.93
						c-4.22,4.81-9.16,9.5-12.45,14.98c-5.41,9.03-5.93,20.45-0.39,29.52c3.14,5.15,8.14,8.27,13.08,11.64
						c6.37,4.34,12.72,8.71,19.07,13.09c12.63,8.72,25.22,17.49,37.81,26.28c24.98,17.45,49.93,34.94,75.11,52.12
						c6.27,4.27,12.55,8.54,18.84,12.76c2.97,2,5.95,3.99,8.93,5.97c2.92,1.95,5.8,4.29,9.13,5.57
						c11.28,4.34,22.01-3.38,27.71-12.36c5.21-8.21,9.71-16.89,15.74-24.59c5.48-7,12.16-12.74,18.77-18.7
						c5.74-5.18,11.12-10.78,16.33-16.45c5.94-6.46,11.9-13.17,16.47-20.62c1.64-2.68,3.18-5.6,3.68-8.7
						c0.9-5.65-0.98-11.51-3.87-16.37c-3.14-5.29-7.69-9.51-12.41-13.48c-5.49-4.62-11.03-9.17-16.62-13.67
						c-44.71-35.96-92.58-68.19-142.31-97.36c-6.22-3.65-12.47-7.24-18.75-10.81c-3.48-1.97-8.45,6.27-4.94,8.26
						c47.73,27.04,93.89,56.73,137.44,89.72c10.99,8.33,21.81,16.85,32.44,25.61c8.72,7.18,21.09,15.63,22.03,27.75
						c0.07,0.83,0.09,1.68-0.01,2.51c-0.07,0.6,0.23-0.49-0.22,0.66c-0.38,0.96-0.08,0.3-0.4,0.93c-0.41,0.8-0.87,1.56-1.34,2.32
						c-1.9,3.06-4.14,5.9-6.44,8.69c-5.37,6.54-11.17,12.77-17.18,18.78c-5.25,5.25-11.04,9.95-16.36,15.12
						c-6.02,5.85-11.25,12.15-15.83,19.11c-2.6,3.96-5.04,8.01-7.49,12.06c-2.7,4.47-5.01,9.5-9.82,12.21
						c-4.5,2.54-9.71,2.45-14.17-0.11c-6.27-3.61-12.17-8.06-18.16-12.1c-48.06-32.37-95.1-66.13-142.89-98.86
						c-5.11-3.5-11.29-6.67-15.24-11.45c-3-3.64-4.81-8.13-4.94-12.8c-0.12-4.43,1.32-8.52,4.22-11.94
						c4.22-4.99,8.63-9.84,12.95-14.76c17.49-19.93,34.99-39.85,52.47-59.79c4.02-4.59,8.03-9.17,12.04-13.75
						c1.23-1.41,2.61-4.36,1.25-6.08C1453.68,861.81,1451.25,863.5,1450.2,864.71L1450.2,864.71z"/>
				</g>
			</g>
			<g>
				<g>
					<path d="M1473.73,878.91c20.29-25.35,38.66-52.82,62.31-75.46c4.34-4.16,8.93-8.34,14.16-11.45c3.43-2.04,7.03-3.79,10.94-3.05
						c4.98,0.94,9.76,4.04,13.98,6.61c6.25,3.81,12.2,8.06,18.07,12.38c10.54,7.77,20.57,16.17,31.19,23.81
						c14.65,10.55,30.81,19.31,46.08,29c8.24,5.23,16.35,10.63,24.3,16.24c4.39,3.1,9.24,6.07,13.17,9.71
						c2.31,2.14,3.87,4.6,3.74,7.76c-0.15,3.38-1.25,6.77-1.86,10.09c-0.2,1.09-0.37,2.18-0.53,3.26c-0.15,0.99,0.03,0.02-0.03,0.23
						c-0.1,0.36-0.57,1.26-0.15,0.44c-0.31,0.62-0.68,1.21-1.05,1.79c-3.03,4.82-7.93,9.96-12.25,14.46
						c-9.26,9.68-19.26,18.6-29.24,27.58c-9.92,8.92-18.92,18.22-27.36,28.46c-2.93,3.56-5.87,7.11-8.82,10.65
						c-1.21,1.44-2.63,4.34-1.25,6.08c1.39,1.76,3.85,0.11,4.88-1.13c8.95-10.71,17.45-21.71,27.74-31.27
						c10.85-10.09,22.07-19.73,32.56-30.19c5.24-5.23,10.45-10.59,15.01-16.4c1.83-2.33,3.62-4.74,4.99-7.36
						c1.56-2.98,1.96-5.92,2.59-9.18c1.3-6.74,3.74-14.15-0.82-20.26c-2.98-3.99-7.74-6.8-11.77-9.69
						c-4.52-3.26-9.09-6.45-13.71-9.58c-16.47-11.16-33.64-21.28-50.47-31.92c-11.6-7.33-22.13-15.74-32.98-24.05
						c-11.33-8.68-23.08-18.3-36.33-24.16c-4.21-1.86-8.32-2.94-12.88-1.69c-5.5,1.5-10.4,4.87-14.8,8.28
						c-12.78,9.91-23.42,22.57-33.6,34.87c-11.27,13.64-21.91,27.74-32.76,41.68c-2.21,2.84-4.44,5.68-6.69,8.5
						c-1.18,1.47-2.64,4.32-1.25,6.08C1470.22,881.77,1472.73,880.17,1473.73,878.91L1473.73,878.91z"/>
				</g>
			</g>
			<g>
				<g>
					<path d="M1377.47,986.08c-39.54,40.93-79.83,81.18-120.5,121.07c-40.45,39.67-81.25,79.01-122.01,118.38
						c-40.83,39.43-81.61,78.91-121.96,118.8c-20.1,19.88-40.11,39.85-59.95,59.98c-10.13,10.27-20.21,20.57-30.24,30.92
						c-6.66,6.86-13.43,13.66-19.56,20.98c-5.82,6.96-11.91,14.72-14.65,23.41c-3.1,9.81,1.81,17.74,9.17,24.42
						c10.26,9.31,21.28,17.92,31.92,26.82c11.35,9.49,22.69,18.99,34.04,28.47c22.53,18.84,45.05,37.68,67.58,56.52
						c5.59,4.67,11.17,9.35,16.77,14.02c4.65,3.89,9.34,7.92,14.85,10.67c10.59,5.3,21.43,3.33,30.36-3.98
						c9.54-7.81,16.83-18.54,24.58-27.91c8.83-10.67,17.67-21.33,26.54-31.97c17.54-21.06,35.15-42.07,52.83-63.03
						c34.61-41.02,69.49-81.82,104.61-122.43c35.16-40.64,70.56-81.08,106.16-121.36c36.76-41.6,73.72-83.03,110.8-124.35
						c9.44-10.52,18.89-21.03,28.35-31.54c1.25-1.39,2.6-4.38,1.25-6.08c-1.42-1.79-3.82-0.06-4.88,1.13
						c-37.1,41.23-74.11,82.56-110.93,124.03c-35.24,39.69-70.31,79.53-105.15,119.55c-34.47,39.6-68.73,79.38-102.72,119.36
						c-34.81,40.94-69.36,82.1-103.63,123.46c-8.24,9.95-16.12,20.34-24.89,29.87c-3.32,3.61-7.24,7.23-12.07,8.83
						c-5.69,1.89-11.57,0.62-16.74-2.07c-5.5-2.86-10.19-6.93-14.87-10.84c-5.42-4.53-10.84-9.06-16.26-13.6
						c-11.01-9.21-22.01-18.41-33.02-27.62c-22.19-18.56-44.37-37.11-66.56-55.67c-10.76-9-21.78-17.78-32.29-27.05
						c-4-3.52-8.68-8.06-9.71-13.43c-0.49-2.61,0.66-5.35,1.8-7.67c3.89-7.92,10.1-14.88,16.06-21.4
						c7.42-8.13,15.24-15.93,22.93-23.82c19.48-19.98,39.14-39.81,58.91-59.52c39.48-39.36,79.47-78.24,119.56-117.02
						c40.11-38.8,80.33-77.49,120.3-116.44c39.76-38.77,79.27-77.78,118.15-117.38c9.62-9.8,19.21-19.64,28.75-29.52
						c1.29-1.34,2.57-4.41,1.25-6.08C1380.91,983.13,1378.58,984.93,1377.47,986.08L1377.47,986.08z"/>
				</g>
			</g>
			<g>
				<g>
					<path d="M884.7,1480.77c-13.14,35.8-25.69,71.79-37.81,107.93c-12.89,38.42-25.31,76.99-37.1,115.74
						c-6.3,20.68-12.41,41.42-18.28,62.22c-0.69,2.45,1.16,4.22,3.53,3.08c73.21-34.88,146.54-69.62,221.27-101.41
						c20.16-8.58,40.42-16.92,60.82-24.98c3.54-1.4,5.31-10.02-0.14-7.87c-74.19,29.31-146.69,62.45-218.73,96.36
						c-21.14,9.95-42.26,19.98-63.35,30.04c1.18,1.03,2.35,2.05,3.53,3.08c10.54-37.35,21.88-74.48,33.69-111.47
						c12.12-37.99,24.75-75.83,37.89-113.5c6.83-19.6,13.8-39.15,20.96-58.65c0.57-1.57,0.84-4.29-1.43-4.64
						C887.35,1476.35,885.3,1479.14,884.7,1480.77L884.7,1480.77z"/>
				</g>
			</g>
			<g>
				<path d="M841.73,1613.89c26,21.11,69.51,70.83,94.28,85.88c-44.03,17.83-89.4,42.73-137,62.01
					c19.82-79.64,36.48-130.45,41.4-143.85"/>
				<g>
					<path d="M839.26,1618.03c12.89,10.51,24.53,22.45,36.29,34.09c12.83,12.7,25.59,25.53,39.23,37.43
						c5.91,5.15,12.02,10.22,18.75,14.35c0.8-2.69,1.6-5.37,2.4-8.06c-46.51,18.9-90.47,43.12-137,62.01
						c1.18,1.03,2.35,2.05,3.53,3.08c10.76-43.18,22.32-86.27,36.23-128.62c1.55-4.72,3.12-9.43,4.83-14.1
						c0.57-1.57,0.84-4.29-1.43-4.64c-2.17-0.34-4.24,2.44-4.83,4.08c-11.53,31.5-20.36,64.07-29.1,96.36
						c-4.38,16.16-8.57,32.37-12.62,48.61c-0.64,2.58,1.11,4.07,3.53,3.08c46.52-18.9,90.48-43.12,137-62.01
						c2.34-0.95,5.26-6.31,2.4-8.06c-13.16-8.07-24.41-19.18-35.4-29.73c-13.3-12.78-26.18-25.97-39.51-38.72
						c-6.27-5.99-12.62-11.92-19.37-17.41C841.3,1607.4,836.07,1615.42,839.26,1618.03L839.26,1618.03z"/>
				</g>
			</g>
		</g>
		<g id="Ebene_9">
			<g class="st10">
				<g>
					<path d="M1557.78,789.06c3.85,0,7.62-8.73,3.4-8.73C1557.33,780.34,1553.55,789.06,1557.78,789.06L1557.78,789.06z"/>
				</g>
			</g>
			<g class="st10">
				<path d="M1553.63,789.57c-0.36,65.99,28.69,131.65,78.32,177.04c4.35,3.98,8.11,12.28,2.42,14.08
					c-2.61,0.83-5.28-0.86-7.48-2.45c-45.55-33.1-91.1-66.21-136.65-99.31c-3.75-2.72-7.78-5.86-8.62-10.32
					c-0.9-4.75,2.12-9.29,5.08-13.19c19.73-25.98,43.08-49.39,69.22-69.4"/>
				<g>
					<path d="M1550.07,791.47c-0.18,60.44,23.56,120.6,65.47,165.52c2.37,2.54,4.8,5.03,7.27,7.47c2.68,2.63,5.87,5.07,8.15,8.05
						c0.8,1.05,1.54,2.18,2.04,3.38c0.2,0.48,0.36,2.32,0.69,2.68c0.51-0.73,1.01-1.45,1.52-2.17c-0.77,0.2-1.52,0.15-2.26-0.16
						c-0.82-0.24-1.59-0.8-2.3-1.25c-2.26-1.45-4.38-3.13-6.54-4.71c-15.42-11.21-30.84-22.41-46.25-33.61
						c-15.42-11.21-30.84-22.41-46.25-33.61c-7.71-5.6-15.42-11.21-23.13-16.8c-3.51-2.54-7.01-5.09-10.51-7.64
						c-3.6-2.61-7.87-5.11-10.71-8.54c-3-3.62-2.35-6.97,0.15-10.64c2.58-3.8,5.61-7.37,8.51-10.94
						c5.87-7.22,12.02-14.22,18.44-20.98c13.1-13.8,27.38-26.52,42.55-38.17c1.65-1.27,3.18-4.1,2.46-6.16
						c-0.75-2.15-2.95-1.59-4.4-0.48c-14.6,11.21-28.31,23.44-41.08,36.56c-6.24,6.42-12.24,13.05-17.98,19.89
						c-5.55,6.62-12.11,13.54-15.85,21.32c-1.78,3.69-2.83,7.9-1.63,11.92c1.11,3.71,3.95,6.46,6.94,8.85
						c7.85,6.28,16.34,11.94,24.49,17.86c16.47,11.97,32.94,23.94,49.4,35.9c16.47,11.97,32.94,23.94,49.4,35.9
						c4.2,3.05,8.41,6.11,12.61,9.17c3.2,2.33,6.92,5.79,11.29,5.09c7.51-1.2,9.63-9.79,7.01-15.68
						c-2.88-6.46-9.4-10.91-14.28-15.93c-5.82-5.97-11.31-12.24-16.47-18.76c-10.09-12.77-18.84-26.52-26.16-40.94
						c-16.7-32.93-25.56-69.54-25.45-106.21c0.01-2.11-1.81-2.89-3.63-2.02C1551.49,786.63,1550.08,789.31,1550.07,791.47
						L1550.07,791.47z"/>
				</g>
			</g>
			<g class="st10">
				<path d="M1447.69,871.28c-8.26,21.51-29.39,35.31-46.85,50.86s-33.03,38.52-25.19,60.17c4.41,12.19,15.31,20.94,25.78,28.96
					c46.78,35.88,94.72,70.35,143.72,103.35c2.53,1.7,5.41,3.49,8.46,3.04c4.47-0.66,6.76-6.01,5.68-10.24
					c-1.08-4.24-4.43-7.52-7.63-10.6c-31.45-30.29-61.26-63-81.1-101.38c-19.84-38.38-29.02-83.23-17.8-124.72"/>
				<g>
					<path d="M1444.56,871c-7.14,18.09-24,30.22-38.59,42.55c-15.5,13.1-30.43,28.92-34.89,48.97c-2.08,9.37-1.09,18.99,3.32,27.6
						c4.59,8.96,12.52,15.86,20.41,22.1c18.9,14.94,38.41,29.22,57.88,43.44c19.77,14.44,39.73,28.63,59.87,42.58
						c10.12,7,20.22,14.08,30.53,20.84c3.87,2.54,8.32,4.22,12.73,1.81c4.03-2.21,6.58-6.85,7.14-11.17
						c1.32-10.07-9.08-17.19-15.53-23.55c-7.93-7.81-15.69-15.78-23.18-23.98c-14.79-16.21-28.55-33.37-40.12-51.89
						c-23.12-36.98-37.66-81.21-31.19-124.69c0.78-5.29,1.89-10.53,3.27-15.7c0.48-1.81-0.5-3.8-2.63-3.44
						c-2.34,0.4-3.78,3.19-4.3,5.14c-10.73,40.36-3.02,83.34,14.84,120.72c18.09,37.84,46.02,70.23,75.96,99.86
						c3.66,3.63,7.51,7.11,11.06,10.84c1.69,1.78,6.73,7.13,4.55,9.92c-2.16,2.77-9.96-3.66-11.75-4.86
						c-4.86-3.28-9.71-6.58-14.55-9.9c-19.36-13.25-38.55-26.73-57.55-40.44c-19.18-13.83-38.18-27.9-57-42.18
						c-15.03-11.41-36.36-24.26-37.67-44.73c-1.21-18.92,13.21-35.45,26.87-47.33c14.25-12.38,29.95-23.69,40.36-39.52
						c2.56-3.9,4.69-8.08,6.39-12.4c0.61-1.56,0.81-4.3-1.43-4.64C1447.19,866.57,1445.2,869.37,1444.56,871L1444.56,871z"/>
				</g>
			</g>
			<g class="st10">
				<path d="M1368.28,1004.46c-153.3,145.55-304.11,293.55-452.34,443.91c-8.8,8.92-18.15,19.18-18.03,31.48
					c0.13,13.92,12.18,24.65,23.27,33.54c49.2,39.44,98.4,78.88,147.6,118.33c3.43,2.75,7.34,5.65,11.78,5.34
					c8.84-0.62,11.1-12,11.12-20.54c0.15-80.51,20.96-159.99,51.45-234.93s70.55-145.83,110.79-216.36
					c32.73-57.39,66.92-116.16,119.63-157.42"/>
				<g>
					<path d="M1367.31,1001.14c-41.25,39.17-82.32,78.5-123.21,118.02c-40.73,39.37-81.29,78.91-121.66,118.63
						c-40.5,39.85-80.83,79.87-120.97,120.06c-19.93,19.95-39.81,39.95-59.65,59.99c-9.84,9.95-19.77,19.83-29.5,29.88
						c-7.88,8.13-15.89,17.68-17.61,29.07c-1.67,11.11,3.31,21.04,10.92,29.1c8.68,9.18,19.36,16.71,29.24,24.62
						c22.58,18.1,45.15,36.2,67.73,54.3c11.12,8.92,22.24,17.83,33.36,26.74c5.73,4.59,11.46,9.18,17.18,13.78
						c5.29,4.24,10.44,8.83,16.02,12.72c4.34,3.02,9.59,4.56,14.61,2.18c4.23-2,7.04-6.05,8.76-10.16
						c4.22-10.09,2.62-22.05,3.02-32.67c2.01-52.94,12.78-105.4,28.97-155.94c16.42-51.24,38.34-100.69,62.82-148.8
						c24.31-47.77,50.9-94.46,77.69-140.95c23.86-41.42,49.15-82.77,83.25-117.23c8.21-8.3,16.99-16.08,26.2-23.32
						c1.64-1.29,3.18-4.09,2.46-6.16c-0.74-2.14-2.95-1.61-4.4-0.48c-37.79,29.71-66.44,68.37-91.32,108.45
						c-12.74,20.52-24.61,41.54-36.55,62.51c-13.26,23.3-26.45,46.64-39.22,70.19c-25.31,46.66-49.11,94.21-68.61,143.44
						c-19.37,48.88-34.53,99.56-42.52,151.39c-3.95,25.62-6.08,51.47-6.23,77.37c-0.03,3.91-0.16,8.26-1.9,11.86
						c-1.9,3.98-6.46,3.38-9.92,1.46c-5.7-3.17-10.63-8.05-15.68-12.08c-5.56-4.46-11.12-8.92-16.68-13.37
						c-22.24-17.83-44.48-35.66-66.72-53.49c-10.95-8.78-21.9-17.56-32.86-26.34c-10.2-8.17-21.14-15.93-30.46-25.05
						c-7.45-7.28-14.46-16.9-11.89-27.66c2.56-10.76,12.64-19.19,20.21-26.86c19.65-19.92,39.35-39.8,59.09-59.64
						c39.2-39.4,78.59-78.62,118.14-117.68c39.69-39.19,79.56-78.22,119.61-117.07c40.05-38.85,80.27-77.54,120.66-116.06
						c9.83-9.37,19.67-18.74,29.52-28.09c1.54-1.46,3.23-3.96,2.46-6.16C1371,999.61,1368.67,999.85,1367.31,1001.14
						L1367.31,1001.14z"/>
				</g>
			</g>
			<g class="st10">
				<path d="M889.14,1488.15c-37.31,88.02-66.86,179.09-88.24,271.92c16.57,0.62,31.75-10.35,40.4-24.01
					c8.65-13.66,12.01-29.74,15.23-45.44c13.82-67.55,27.65-135.09,41.48-202.64"/>
				<g>
					<path d="M886.01,1487.87c-29.18,68.92-53.63,139.68-73.18,211.71c-5.53,20.36-10.65,40.81-15.39,61.35
						c-0.28,1.21,0.03,3.47,1.77,3.52c17.65,0.41,33.02-10.42,42.66-23.99c11.28-15.88,14.97-35.26,18.76-53.79
						c8.7-42.47,17.39-84.95,26.09-127.43c4.92-24.04,9.84-48.07,14.76-72.11c0.37-1.81-0.42-3.82-2.63-3.44
						c-2.25,0.38-3.91,3.2-4.3,5.14c-8.23,40.2-16.46,80.39-24.68,120.58c-4.16,20.3-8.32,40.61-12.47,60.91
						c-3.72,18.17-6.18,37.32-13.53,54.54c-6.96,16.29-21.72,31.29-41.25,30.84c0.59,1.17,1.18,2.34,1.77,3.52
						c16.64-72.11,38.18-143.13,64.51-212.5c7.43-19.57,15.23-39,23.4-58.29c0.66-1.55,0.78-4.3-1.43-4.64
						C888.6,1483.44,886.69,1486.25,886.01,1487.87L886.01,1487.87z"/>
				</g>
			</g>
		</g>
		<g id="Ebene_10">
			<g class="st10">
				<g>
					<path class="st11" d="M1607.77,849.25c13.63,12.01,30.56,19.11,45.04,29.92c1.07,0.79-0.86-0.74,0.13,0.1
						c0.28,0.24,0.57,0.48,0.85,0.72c0.63,0.55,1.25,1.12,1.85,1.7c1.19,1.18,2.31,2.43,3.27,3.79c0.42,0.6,0.81,1.21,1.16,1.85
						c0.14,0.25,0.89,1.95,0.53,0.99c0.57,1.53,0.8,3.18,0.86,4.8c0.28,8.07-4.3,15.26-8.75,21.75c-6.35,9.24-13.68,17.85-19,27.72
						c-2.77,5.15,8.41,6.6,11.5,6.84c4.19,0.34,8.58,0.36,12.69-0.56c2.23-0.5,6.4-1.17,7.57-3.33
						c4.77-8.85,11.15-16.71,17.01-24.89c5.13-7.16,10.58-15.23,11.75-24.06c2.17-16.52-16.71-26.11-29-33.31
						c-8.88-5.2-18.5-10.68-25.68-17.01c-5.01-4.41-13.88-4.6-20.26-3.89C1617.69,842.58,1603.29,845.3,1607.77,849.25
						L1607.77,849.25z"/>
				</g>
			</g>
			<g class="st10">
				<g>
					<path class="st11" d="M1583.51,1010.82c-10.15,10.5-20.31,21-30.46,31.5c-1.57,1.63,0.36,3.47,1.66,4.29
						c2.62,1.65,6.85,2.32,9.84,2.56c5.98,0.48,15.7,0.84,20.26-3.89c10.15-10.5,20.31-21,30.46-31.5c1.57-1.63-0.36-3.47-1.66-4.29
						c-2.62-1.65-6.85-2.32-9.84-2.56C1597.79,1006.46,1588.08,1006.09,1583.51,1010.82L1583.51,1010.82z"/>
				</g>
			</g>
			<g class="st10">
				<g>
					<path class="st11" d="M1466.14,1120.98c-45.8,50.91-91.92,101.57-138.15,152.12c-43.94,48.05-87.96,96.04-131.78,144.19
						c-25.33,27.83-50.58,55.7-75.74,83.67c-4.06,4.51,9.48,6.68,11.5,6.84c4.19,0.34,8.58,0.36,12.69-0.56
						c2.64-0.59,5.71-1.26,7.57-3.33c44.29-49.23,88.91-98.2,133.62-147.08c44.37-48.52,88.81-96.97,133.04-145.59
						c26.42-29.03,52.76-58.13,79.01-87.3c4.06-4.51-9.48-6.68-11.5-6.84c-4.19-0.34-8.58-0.36-12.69,0.56
						C1471.07,1118.24,1467.99,1118.91,1466.14,1120.98L1466.14,1120.98z"/>
				</g>
			</g>
			<g class="st10">
				<g>
					<path class="st11" d="M872.07,1707.38c37.33-20.24,75.38-38.24,114.16-53.9c11.29-4.55,22.65-8.93,34.08-13.13
						c1.48-0.55,4.82-1.82,4.82-3.94c0-2.07-3.34-3.45-4.82-3.94c-6.93-2.25-16.37-2.55-23.3,0
						c-41.17,15.14-81.47,32.55-120.57,52.15c-11.04,5.53-21.98,11.25-32.83,17.13c-6.35,3.44,2.75,7.03,5.91,7.61
						C856.55,1710.67,865.6,1710.88,872.07,1707.38L872.07,1707.38z"/>
				</g>
			</g>
		</g>
	</g>
</g>
<g id="Ebene_8">
	<ellipse class="st12" cx="1048.86" cy="646.35" rx="5.51" ry="5.48"/>
	<ellipse class="st12" cx="888.4" cy="651.07" rx="5.3" ry="5.28"/>
	<g class="st13">
		<g>
			<path class="st14" d="M1358.86,1117.45c4.76,0,9.42-11.17,4.2-11.17C1358.3,1106.28,1353.64,1117.45,1358.86,1117.45
				L1358.86,1117.45z"/>
		</g>
	</g>
</g>
<g id="Ebene_19">
	<g>
		<g>
			<path d="M1062.64,1243.49c4.76,0,9.42-11.17,4.2-11.17C1062.08,1232.32,1057.41,1243.49,1062.64,1243.49L1062.64,1243.49z"/>
		</g>
	</g>
</g>
<g id="Ebene_27_Kopie" class="st15">
</g>
<g id="Ebene_32">
	<g>
		<path class="st1" d="M743.74,287.49c-79.15,9.7-156.33,35.05-225.73,74.15c-25.62,14.44-52.53,34.18-56.79,63.17
			c-3.27,22.28,8.46,44.72,25.32,59.73c16.86,15.02,38.29,23.83,59.56,31.52c248.33,89.82,533.24,71.89,794.44,5.59
			c78.58-19.95,136.78-38.7,124.54-124.07c-5.02-35.02-46.54-53.49-78.23-69.53c-42.34-21.43-81.27-40.19-128.75-38.83
			c0,0-79.94,18.26-91.93-17.51c-14.03-41.85-30.54-92.73-44.42-134.15c-7.32-21.83-11.86-50-34.95-48.73
			c-23.72,1.3-56.7,31.82-80.21,35.23c-26.38,3.82-49.25-16.76-68.4-35.22s-44-37.72-69.71-30.7
			c-22.97,6.27-35.12,30.59-44.47,52.38C799,168.82,773.97,227.11,748.95,285.4"/>
		<g>
			<path class="st16" d="M744.86,281.54c-48.57,6.02-96.36,17.78-142.14,35.09c-22.99,8.69-45.49,18.7-67.29,30.06
				c-18.81,9.8-38.04,20.21-53.53,34.93c-14.51,13.78-25.54,31.71-25.98,52.21c-0.46,21.57,11.06,41.78,26.72,55.91
				c17.11,15.44,38.77,24.32,60.16,32.06c22.27,8.07,44.87,15.26,67.68,21.65c93.28,26.13,190.12,38.27,286.86,39.91
				c98.03,1.66,196.15-7.3,292.72-23.89c48.4-8.32,96.47-18.57,144.1-30.53c31.96-8.03,66.3-15.6,94.49-33.48
				c25.46-16.15,40.51-41.06,42.58-71.2c1.17-17.01,0.01-36.09-9.12-50.92c-9.38-15.23-25.07-25.87-40.3-34.58
				c-18.05-10.32-37-19.45-55.77-28.38c-20.49-9.76-41.65-18.44-63.9-23.26c-14.58-3.16-31.39-6.06-46.21-3.16
				c-9.48,1.85-19.11,3.12-28.76,3.63c-12.79,0.68-26.74,0.58-38.88-4.01c-5.1-1.92-10.13-4.69-13.63-8.95
				c-5.18-6.31-6.73-15.38-9.25-22.94c-14.57-43.81-29.68-87.52-43.28-131.64c-4.32-13.99-9.9-32.76-26.12-36.68
				c-15.98-3.86-33.86,7.82-46.98,15.39c-15.41,8.89-32.3,21.36-51.02,19.49c-22.02-2.19-39.93-19.27-55.12-33.85
				c-15.51-14.89-33.89-31.09-56.2-33.52c-20.53-2.24-37.84,9.82-49.23,25.94c-12.99,18.4-20.67,40.37-29.49,60.92
				c-10.67,24.85-21.34,49.7-32.01,74.55c-10.41,24.24-20.81,48.47-31.22,72.71c-0.92,2.14-1.02,5.98,1.92,6.45
				c3.03,0.49,5.52-3.43,6.48-5.67c20.68-48.17,41.36-96.33,62.04-144.5c4.91-11.44,9.73-22.93,14.76-34.32
				c3.82-8.66,8.03-17.37,13.65-25.02c5.15-7,11.58-13.24,19.76-16.53c10.19-4.1,21.59-3.15,31.66,0.8
				c20.74,8.14,35.52,25.08,51.81,39.48c14.98,13.23,33.37,26.15,54.35,24.77c17.05-1.12,32.44-11.76,46.79-20.07
				c7.87-4.56,15.86-9.29,24.4-12.5c6.54-2.45,14.29-4.52,21.07-1.74c14.2,5.82,17.79,26.35,21.78,39.28
				c6.57,21.27,13.99,42.32,20.96,63.46c7.29,22.14,14.57,44.28,21.94,66.4c2.28,6.84,3.97,14.39,8.85,19.95
				c3.76,4.29,8.61,7.39,13.87,9.48c21.31,8.49,46.95,5.72,69.01,1.85c2.27-0.4,4.57-1.07,6.86-1.33
				c8.78-1.01,18.65,0.38,27.37,1.59c22.36,3.09,43.67,10.66,64.19,19.85c18.91,8.47,37.48,17.92,55.85,27.52
				c15.56,8.14,31.71,17.19,43.41,30.57c12.01,13.73,14.58,30.25,14.41,48.01c-0.13,13.75-2.86,27.52-10.19,39.32
				c-14.4,23.2-43.15,34.04-67.92,41.91c-39.75,12.63-80.94,21.58-121.71,30.18c-93.23,19.67-188.03,32.58-283.28,36.21
				c-93.65,3.56-187.87-1.84-280-19.42c-45.53-8.69-90.52-20.34-134.38-35.36c-38.71-13.25-91.22-31.4-98.45-78.28
				c-6.64-43.09,44.74-67.21,76.04-83.04c42.18-21.33,86.86-37.64,132.83-48.64c22.33-5.34,44.95-9.4,67.73-12.22
				C747.53,292.84,751.69,280.69,744.86,281.54L744.86,281.54z"/>
		</g>
	</g>
</g>
<g id="Ebene_31">
	<g>
		<path class="st17" d="M710.87,402.25c1.71,24.02-10.76,59.12-21.83,80.53c88.24-37.62,218.48-148.11,287.38-121.32
			c117.65,45.76,239.34,106.01,239.34,106.01s-27.87-121.55-43.86-121.55c-27.04,0-54.49-13.43-79.29-20.34
			c-131.36-36.63-202.29-3.45-377.94,80.74"/>
		<g>
			<path class="st17" d="M706.1,404.9c0.79,13.16-2.01,26.43-5.78,38.98c-3.81,12.68-8.67,25.13-14.72,36.92
				c-1.73,3.38-1.93,9.79,3.53,7.45c73.4-31.47,135.61-85.15,210.5-113.59c15-5.69,30.95-10.57,47.08-11.2
				c18.39-0.72,33.86,6.59,50.63,13.35c47.71,19.23,94.82,39.93,141.53,61.47c24.65,11.37,49.24,22.89,73.57,34.93
				c4.75,2.35,8.73-6.08,7.91-9.68c-5.43-23.67-11.65-47.24-18.86-70.44c-4.42-14.21-9-28.79-16.04-41.96
				c-1.94-3.63-4.35-8.04-8.01-10.21c-2.81-1.67-6.34-1.06-9.45-1.28c-7.76-0.55-15.42-2.07-22.94-4.04
				c-15.08-3.95-29.58-9.8-44.47-14.39c-11.48-3.54-23.22-6.41-34.97-8.9c-20.37-4.31-41.1-7.06-61.93-7.5
				c-40.49-0.85-80.14,7.58-118.27,20.71c-50.89,17.53-99.57,41.27-148.06,64.43c-7.59,3.63-15.19,7.27-22.78,10.9
				c-4.59,2.2-6.9,14.32,0.18,10.92c50.16-24.04,100.25-48.98,152.38-68.57c37.64-14.14,76.87-24.97,117.27-26.22
				c44.69-1.38,88.7,8.29,130.74,22.76c14.28,4.92,28.8,9.82,43.87,11.58c3.52,0.41,7.1,0.25,10.6,0.64
				c1.25,0.14-0.17-0.36,1.07,0.32c1.24,0.68,1.79,1.42,2.99,3.03c7.62,10.21,11.49,23.84,15.45,35.75
				c5.26,15.85,9.78,31.95,14.03,48.11c2.67,10.16,4.64,20.63,7.65,30.69c0.15,0.5,0.24,1.03,0.36,1.54
				c2.64-3.23,5.27-6.46,7.91-9.68c-65.38-32.36-132.11-62.35-199.58-90.08c-13.2-5.43-26.4-10.93-39.77-15.92
				c-6.31-2.36-12.82-3.83-19.55-4.29c-15.59-1.06-31.33,2.32-46.1,7.03c-37.8,12.06-72.72,32.65-106.68,52.76
				c-38.78,22.96-76.91,48.28-118.45,66.09c1.18,2.48,2.36,4.96,3.53,7.45c6.83-13.33,12.49-27.28,16.69-41.66
				c4.1-14.04,7.36-28.79,6.47-43.51C715.18,391.78,705.79,399.81,706.1,404.9L706.1,404.9z"/>
		</g>
	</g>
</g>
<g id="Ebene_33">
	<g>
		<path class="st18" d="M1233.73,455.28c48.31-70.51,96.63-141.03,144.94-211.54c8.41-12.27,17.21-26.94,12.57-41.05
			c-4.83-14.69-23.12-21.49-38.35-18.44c-15.23,3.06-27.84,13.41-39.16,23.99c-33.95,31.73-63.09,69.35-80.29,112.42
			c-17.2,43.07-21.82,91.9-7.87,136.11"/>
		<g>
			<path class="st18" d="M1237.17,457.26c29.03-42.36,58.05-84.72,87.08-127.09c14.42-21.04,28.84-42.09,43.26-63.13
				c6.83-9.97,14.16-19.76,20.32-30.16c5.64-9.52,10.47-20.63,9.28-31.94c-1.84-17.6-18.79-27.84-35.45-27.46
				c-21.15,0.48-38.43,15.77-52.88,29.61c-31.14,29.82-57.96,64.41-75.61,103.92c-20.81,46.58-27.43,100.5-12.18,149.71
				c1.99,6.42,10.66-3.14,9.19-7.9c-12.66-40.87-9.64-85.13,4.93-125.1c13.67-37.5,36.93-70.74,64.34-99.48
				c13.12-13.76,28.18-30.49,46.75-36.55c14.14-4.61,35.1-1.14,40.46,14.95c3.46,10.41-2.13,20.69-7.56,29.29
				c-6.01,9.52-12.66,18.67-19.03,27.96c-13.3,19.4-26.59,38.81-39.89,58.21c-29.96,43.73-59.92,87.46-89.88,131.19
				c-1.3,1.89-2.37,6.28,0.13,7.72C1233.13,462.57,1235.91,459.1,1237.17,457.26L1237.17,457.26z"/>
		</g>
	</g>
</g>
<g id="Ebene_29">
	<g>
		<g>
			<path d="M693.69,481.61c19.31-78.39,43.9-155.54,73.41-230.69c14.78-37.65,30.82-74.84,48.49-111.23
				c7.9-16.27,15.59-32.95,25.44-48.15c8.21-12.67,19.09-25.92,33.69-31.31c28.41-10.49,48.54,14.93,64.62,34.05
				c8.18,9.73,16.91,19.83,28.13,26.15c11.49,6.47,24.57,7.44,37.22,4.14c13.74-3.58,26.2-10.92,38.63-17.54
				c11.48-6.11,24.28-13.07,37.7-12.45c15.32,0.71,25.97,11.72,32.18,24.93c3.66,7.77,6.06,16.09,8.53,24.29
				c3.27,10.82,6.54,21.64,9.81,32.46c25.87,85.61,51.74,171.21,77.61,256.82c3.17,10.5,6.35,21,9.52,31.51
				c1.94,6.42,10.63-3.13,9.19-7.9c-26.64-88.15-53.28-176.31-79.91-264.46c-6.47-21.4-12.7-42.89-19.43-64.21
				c-4.74-15.02-11.17-31.65-25.32-40.21c-25.74-15.55-54.48,6.07-77.19,17.32c-12.45,6.17-26.21,11.34-40.27,8.37
				c-12.71-2.69-22.82-11.89-31.27-21.23c-16.73-18.49-32.92-45.43-60.78-46.51c-34.27-1.32-56.87,34.57-70.56,61.11
				c-18.74,36.32-35.79,73.51-51.49,111.23c-32.07,77.08-58.64,156.5-79.94,237.22c-2.52,9.53-4.95,19.09-7.31,28.66
				c-0.62,2.52,0.65,5.28,3.52,4.78C691.04,488.19,693.02,484.3,693.69,481.61L693.69,481.61z"/>
		</g>
	</g>
	<g>
		<g>
			<path d="M590.8,472.05c36.84,25.76,86.16,23.52,126.74,8.45c47.17-17.51,86.01-50.23,128.51-76.16
				c21.59-13.17,44.44-24.83,68.97-31.39c23.52-6.29,47.68-7.05,71.46-1.67c47.41,10.72,87.16,41.11,128.01,65.74
				c45.5,27.43,101.84,51.86,155.12,33.07c2.99-1.05,5.24-4.03,5.76-7.13c0.36-2.12-0.48-5.85-3.52-4.78
				c-47.58,16.78-97.76-2.49-139.42-26.02c-41.66-23.52-79.86-54.05-125.99-68.76c-22.35-7.13-45.52-9.73-68.82-6.51
				c-24.12,3.33-47.19,12.32-68.71,23.48c-44.11,22.86-81.97,55.99-126.43,78.23c-44.43,22.22-101.75,32.28-145.07,1.98
				C593.1,457.55,586.25,468.87,590.8,472.05L590.8,472.05z"/>
		</g>
	</g>
	<g>
		<g>
			<path d="M751.85,276.48c-67.08,11.27-134.92,25.71-197.85,52.19c-33.81,14.23-71.61,33.47-91.49,65.84
				c-6.69,10.89-10.82,23.71-10.07,36.58c0.74,12.61,5.85,24.42,13.2,34.57c20.78,28.67,55.43,46.54,87.2,60.08
				c56.6,24.13,117.96,37.9,178.62,46.8c86.13,12.64,173.51,13.36,260.25,7.81c87.7-5.61,174.86-17.28,261.91-28.93
				c35.85-4.8,71.55-11.63,106-22.8c25.16-8.15,50.13-18.51,72.09-33.42c29.59-20.08,56.34-51.96,48.83-90.08
				c-3.46-17.6-13.96-33.18-26.27-45.87c-17.19-17.71-38.29-31.3-60.11-42.59c-13.52-7-27.48-13.1-41.66-18.63
				c-5.19-2.02-11.44,9.59-6.62,11.47c26.24,10.23,52.02,22.44,75.1,38.71c16.35,11.52,31.78,25.38,41.93,42.83
				c7.42,12.76,11.21,27.82,8.53,42.03c-2.75,14.58-11.59,27.21-23.32,38.05c-16.64,15.38-37.05,26.3-57.78,35.08
				c-28.85,12.21-59.49,20.18-90.18,26.15c-40.32,7.84-81.4,12.2-122.13,17.39c-42.04,5.36-84.13,10.32-126.34,14.17
				c-84.19,7.67-169.06,10.74-253.41,3.66c-69.2-5.82-138.89-17.81-204.75-40.31c-36.66-12.53-74.84-28.48-104.11-54.57
				c-9.44-8.41-18.49-18.93-23.34-30.39c-2.08-4.92-3.67-10.93-4.01-15.29c-0.48-6.06-0.17-9.36,1.34-15.25
				c0.19-0.74-0.18,0.49,0.26-0.89c0.21-0.66,0.43-1.32,0.66-1.97c0.5-1.42,1.08-2.8,1.67-4.18c0.66-1.55-0.37,0.66,0.4-0.86
				c0.33-0.66,0.67-1.31,1.02-1.96c0.76-1.42,1.58-2.8,2.43-4.16c1.34-2.12,0.69-1.19,1.99-2.94c1.04-1.41,2.11-2.79,3.22-4.14
				c2.37-2.87,4.46-5.12,6.7-7.3c12.92-12.59,28.41-22.28,44.32-30.61c51.71-27.09,109.94-41.85,166.74-53.73
				c18.85-3.94,37.8-7.44,56.79-10.64C754.48,287.57,758.58,275.35,751.85,276.48L751.85,276.48z"/>
		</g>
	</g>
	<g>
		<g>
			<path d="M1231.18,459.65c15.88-68.91,44.56-134.59,84.05-193.24c11.25-16.71,23.47-32.75,36.41-48.18
				c1.6-1.91,3.56-6.12,1.67-8.44c-1.95-2.39-5.08-0.18-6.55,1.56c-47.27,56.35-84.11,121.42-107.9,191.03
				c-6.69,19.56-12.33,39.48-16.97,59.63c-0.58,2.52,0.62,5.29,3.52,4.78C1228.49,466.24,1230.56,462.35,1231.18,459.65
				L1231.18,459.65z"/>
		</g>
	</g>
	<g>
		<g>
			<path d="M1223.84,450.38c-14.67-76.28,10.21-157.69,62.95-214.34c13.49-14.49,29.22-28.3,46.56-37.99
				c16.32-9.12,42.12-13.38,53.75,5.53c11.71,19.03-6.29,42.04-17.32,56.76c-15.73,20.99-31.46,41.98-47.19,62.96
				c-35.24,47.02-70.49,94.05-105.73,141.07c-1.51,2.01-3.62,6.05-1.67,8.44c1.89,2.32,5.17,0.28,6.55-1.56
				c34.05-45.43,68.1-90.86,102.14-136.29c16.92-22.58,33.85-45.16,50.77-67.75c13.05-17.42,29.53-39.72,24.92-62.94
				c-4.21-21.22-27.11-29.3-46.35-25.12c-21.71,4.72-41.16,21.09-57.12,35.82c-30.92,28.55-54.62,64.69-69.21,104.13
				c-16.41,44.33-21.2,92.68-12.26,139.17c0.6,3.12,4.21,2.02,5.9,0.66C1222.98,456.97,1224.44,453.46,1223.84,450.38
				L1223.84,450.38z"/>
		</g>
	</g>
	<g>
		<g>
			<path d="M1315.27,230.71c1.09,6.86,2.18,13.72,3.27,20.58c0.5,3.16,4.27,1.98,5.9,0.66c2.5-2.02,3.79-5.43,3.3-8.56
				c-1.09-6.86-2.18-13.72-3.27-20.58c-0.5-3.16-4.27-1.98-5.9-0.66C1316.07,224.17,1314.77,227.59,1315.27,230.71L1315.27,230.71z"
				/>
		</g>
	</g>
	<g>
		<g>
			<path d="M1289.13,259.96c1.45,10.47,2.9,20.94,4.36,31.42c0.44,3.18,4.31,1.95,5.9,0.66c2.54-2.05,3.73-5.41,3.3-8.56
				c-1.45-10.47-2.9-20.94-4.36-31.42c-0.44-3.18-4.31-1.95-5.9-0.66C1289.89,253.45,1288.7,256.81,1289.13,259.96L1289.13,259.96z"
				/>
		</g>
	</g>
	<g>
		<g>
			<path d="M1252.11,317.38c2.54,9.75,5.08,19.5,7.62,29.25c0.79,3.03,4.09,2.12,5.9,0.66c2.3-1.86,4.07-5.58,3.3-8.56
				c-2.54-9.75-5.08-19.5-7.62-29.25c-0.79-3.03-4.09-2.12-5.9-0.66C1253.11,310.68,1251.33,314.39,1252.11,317.38L1252.11,317.38z"
				/>
		</g>
	</g>
	<g>
		<g>
			<path d="M1230.33,366.13c2.54,6.86,5.08,13.72,7.62,20.58c2.36,6.38,10.92-3.22,9.19-7.9c-2.54-6.86-5.08-13.72-7.62-20.58
				C1237.16,351.85,1228.6,361.45,1230.33,366.13L1230.33,366.13z"/>
		</g>
	</g>
	<g>
		<g>
			<path d="M1263.2,372.46c5.44-1.44,10.89-2.89,16.33-4.33c3.02-0.8,5.23-4.2,5.76-7.13c0.42-2.33-0.48-5.58-3.52-4.78
				c-5.44,1.44-10.89,2.89-16.33,4.33c-3.02,0.8-5.23,4.2-5.76,7.13C1259.26,370.02,1260.17,373.27,1263.2,372.46L1263.2,372.46z"/>
		</g>
	</g>
	<g>
		<g>
			<path d="M1287.16,322.63c6.17-1.08,12.34-2.17,18.51-3.25c4.87-0.86,8.96-13.09,2.24-11.91c-6.17,1.08-12.34,2.17-18.51,3.25
				C1284.53,311.58,1280.44,323.81,1287.16,322.63L1287.16,322.63z"/>
		</g>
	</g>
	<g>
		<g>
			<path d="M1323.1,271.72c5.44-0.72,10.89-1.44,16.33-2.17c4.9-0.65,9.06-12.81,2.24-11.91c-5.44,0.72-10.89,1.44-16.33,2.17
				C1320.44,260.46,1316.29,272.62,1323.1,271.72L1323.1,271.72z"/>
		</g>
	</g>
	<g>
		<g>
			<path d="M1344.87,240.3c4.36-0.72,8.71-1.44,13.07-2.17c4.88-0.81,8.99-13.03,2.24-11.91c-4.36,0.72-8.71,1.44-13.07,2.17
				C1342.24,229.2,1338.13,241.42,1344.87,240.3L1344.87,240.3z"/>
		</g>
	</g>
	<g>
		<g>
			<path d="M1166.07,284.94c26.71,0.03,53.17,2.6,79.83,3.55c5.15,0.18,10.3-11.91,4.56-12.12c-26.66-0.95-53.12-3.53-79.83-3.55
				C1165.47,272.82,1160.41,284.94,1166.07,284.94L1166.07,284.94z"/>
		</g>
	</g>
	<g>
		<g>
			<path d="M716.71,403.54c30.12-10.66,60.18-21.14,88.41-36.3c28.16-15.12,56.59-30.05,86.58-41.27
				c30.07-11.26,60.38-17.64,92.59-15.71c30.45,1.83,60.17,9.32,89.64,16.75c17.04,4.29,34.09,8.61,51.35,11.96
				c17.53,3.4,34.91,4.76,52.77,4.01c5.15-0.21,10.11-12.35,4.56-12.12c-62.81,2.61-121.46-25.64-183.34-31.88
				c-31.6-3.18-62.21,0.44-92.32,10.47c-30.35,10.11-59.18,24.18-87.43,39.09c-15.83,8.35-31.45,16.85-48.01,23.71
				c-17.25,7.15-34.96,13.15-52.56,19.38c-2.98,1.06-5.24,4.02-5.76,7.13C712.83,400.88,713.67,404.62,716.71,403.54L716.71,403.54z
				"/>
		</g>
	</g>
</g>
<g id="Ebene_36">
	<g class="st19">
		<path d="M881.65,1289.02c60.29-31.73,117.02-70.13,168.81-114.28c-53.11,13.68-108.73,17.66-163.27,11.68
			c-7.57,32.93-10.74,66.85-9.37,100.6"/>
		<g>
			<path d="M888.34,1300.46c61.26-32.32,118.73-71.47,171.49-116.35c10.52-8.95-0.83-25.22-12.89-22.14
				c-52.17,13.32-106.22,16.96-159.75,11.21c-5.49-0.59-11.59,4.51-12.77,9.72c-7.76,34.1-11.17,69.17-9.84,104.12
				c0.27,7.15,5.89,13.24,13.24,13.24c6.97,0,13.52-6.06,13.24-13.24c-1.24-32.67,1.65-65.19,8.9-97.08
				c-4.26,3.24-8.51,6.48-12.77,9.72c55.76,5.99,112.46,1.71,166.79-12.16c-4.3-7.38-8.59-14.76-12.89-22.14
				c-51.03,43.41-106.87,80.95-166.13,112.21c-6.32,3.34-8.25,12.14-4.75,18.12C873.96,1302.11,881.99,1303.81,888.34,1300.46
				L888.34,1300.46z"/>
		</g>
	</g>
	<g class="st19">
		<path d="M529.1,717.17c-0.13,34.58,3.82,71.06,25.28,98.27c21.46,27.2,39.94,45.16,73.73,53.25c-37.63,9.02-67.53-3.86-91.4-34.17
			c-23.87-30.31-28.05-74.67-10.24-108.86"/>
		<g>
			<path d="M515.86,717.17c-0.05,29.53,2.81,59.65,15.72,86.6c6.21,12.97,15.5,24.22,24.96,34.95c8.27,9.39,17.38,17.91,27.66,25.08
				c12.12,8.45,26.09,14.15,40.39,17.66c0-8.51,0-17.03,0-25.54c-7,1.63-10.82,2.24-18,2.34c-7.45,0.11-10.21-0.16-16.9-1.84
				c-6.72-1.69-9.41-2.76-14.88-5.74c-5.69-3.1-9.81-6.06-13.78-9.56c-20.1-17.72-31.69-41.26-32.26-67.14
				c-0.32-14.62,2.65-28.91,9.14-41.62c3.25-6.37,1.67-14.37-4.75-18.12c-5.91-3.46-14.86-1.64-18.12,4.75
				c-15.09,29.58-17.01,65.33-4.42,96.18c12.07,29.55,36.64,55.68,67.53,65.52c17.36,5.53,35.92,4.87,53.49,0.78
				c12.72-2.95,12.53-22.47,0-25.54c-7.44-1.83-14.81-4.25-20.21-6.87c-6.01-2.91-11.75-6.41-17.06-10.45
				c1.62,1.23-2.15-1.78-2.5-2.07c-1.36-1.16-2.7-2.34-4.02-3.55c-2.69-2.48-5.28-5.07-7.79-7.73c-5.22-5.53-10.1-11.38-14.84-17.33
				c-20.06-25.18-22.92-59.08-22.86-90.74C542.38,700.12,515.89,700.09,515.86,717.17L515.86,717.17z"/>
		</g>
	</g>
	<g class="st19">
		<path d="M602.31,462.74c26.36,12.88,57.49,15.79,85.8,8.03"/>
		<g>
			<path d="M595.62,474.18c29.96,14.36,63.82,17.93,96.01,9.36c16.46-4.38,9.48-29.94-7.04-25.54c-24.97,6.65-52.01,4.62-75.6-6.69
				c-6.45-3.09-14.3-1.77-18.12,4.75C587.49,461.84,589.14,471.07,595.62,474.18L595.62,474.18z"/>
		</g>
	</g>
	<g class="st19">
		<path d="M1234.48,460.59c10.52,1.02,21.04,2.04,31.55,3.06"/>
		<g>
			<path d="M1234.48,473.83c10.52,1.02,21.04,2.04,31.55,3.06c7.13,0.69,13.24-6.58,13.24-13.24c0-7.74-6.09-12.55-13.24-13.24
				c-10.52-1.02-21.04-2.04-31.55-3.06c-7.13-0.69-13.24,6.58-13.24,13.24C1221.24,468.33,1227.33,473.14,1234.48,473.83
				L1234.48,473.83z"/>
		</g>
	</g>
	<g class="st19">
		<path d="M727.65,394.03c122.13-99.96,301.04-125.78,446.68-64.47"/>
		<g>
			<path d="M737.02,403.4c45.74-37.29,100.7-64.06,158.18-79.09c29.87-7.81,57.98-12.2,88.32-13.81c15.11-0.8,30.25-0.85,45.36-0.13
				c14.7,0.69,29.86,2.15,43.1,4.19c33.93,5.23,67.17,14.52,98.84,27.78c6.6,2.76,14.57-2.98,16.29-9.25
				c2.1-7.64-2.62-13.52-9.25-16.29c-58.24-24.39-122.07-35.23-185.12-33.18c-63.66,2.07-126.57,17.06-184.24,44.08
				c-32.36,15.16-62.52,34.4-90.21,56.97c-5.55,4.52-4.7,14.03,0,18.73C723.77,408.88,731.45,407.93,737.02,403.4L737.02,403.4z"/>
		</g>
	</g>
	<g class="st19">
		<path d="M881.64,56.82C792.33,177.96,732.4,320.39,708.32,468.7"/>
		<g>
			<path d="M870.2,50.13c-34.98,47.54-65.54,98.29-91.15,151.48c-25.71,53.37-46.71,109.06-62.33,166.2
				c-8.76,32.06-15.81,64.57-21.17,97.37c-1.15,7.05,1.83,14.25,9.25,16.29c6.32,1.74,15.13-2.15,16.29-9.25
				c9.41-57.63,24.12-114.34,43.91-169.27c19.61-54.43,44.36-106.96,73.64-156.86c16.69-28.45,34.88-56.01,54.43-82.58
				c4.24-5.77,0.96-14.78-4.75-18.12C881.6,41.45,874.45,44.35,870.2,50.13L870.2,50.13z"/>
		</g>
	</g>
	<g class="st19">
		<path d="M1370.88,191.72c-77.3,37.96-132.44,117.32-140.82,202.67"/>
		<g>
			<path d="M1364.19,180.29c-63.32,31.34-112.06,88.97-134.88,155.59c-6.5,18.96-10.48,38.59-12.5,58.52
				c-0.72,7.13,6.6,13.24,13.24,13.24c7.76,0,12.52-6.1,13.24-13.24c0.77-7.56,1.72-13.79,3.48-22.16
				c1.68-7.99,3.75-15.9,6.22-23.68c4.99-15.77,10.52-28.58,18.55-43.2c15.7-28.57,35.69-52.71,61.22-73.64
				c12.74-10.45,28.89-20.69,44.79-28.56c6.41-3.17,8.18-12.25,4.75-18.12C1378.49,178.51,1370.62,177.1,1364.19,180.29
				L1364.19,180.29z"/>
		</g>
	</g>
	<g class="st19">
		<path d="M1223.84,404.73c-1.3,13.56-2.6,27.11-3.89,40.67"/>
		<g>
			<path d="M1210.59,404.73c-1.3,13.56-2.6,27.11-3.89,40.67c-0.68,7.13,6.58,13.24,13.24,13.24c7.73,0,12.56-6.09,13.24-13.24
				c1.3-13.56,2.6-27.11,3.89-40.67c0.68-7.13-6.58-13.24-13.24-13.24C1216.1,391.48,1211.28,397.58,1210.59,404.73L1210.59,404.73z
				"/>
		</g>
	</g>
	<g class="st19">
		<path d="M1343.95,202.05c-45.74,21.1-82.72,60.31-100.98,107.06"/>
		<g>
			<path d="M1337.27,190.61c-49.04,22.86-87.25,64.85-107.07,114.98c-2.63,6.65,2.88,14.54,9.25,16.29
				c7.52,2.07,13.65-2.57,16.29-9.25c3.75-9.49,9.74-21,15.92-30.64c6.6-10.3,12.92-18.31,21.38-27.22
				c16.71-17.59,35.32-30.91,57.59-41.29c6.48-3.02,8.12-12.36,4.75-18.12C1351.5,188.71,1343.77,187.58,1337.27,190.61
				L1337.27,190.61z"/>
		</g>
	</g>
	<g class="st19">
		<path d="M485.66,390.26c21.03,62.5,76.03,112.51,140.48,127.76c267.24,63.24,548.59,24.6,814.87-42.54
			c-284.13,108.63-605.15,118.99-895.77,28.93c-50.64-15.69-82.46-75.67-66.91-126.12"/>
		<g>
			<path d="M472.89,393.79c18.32,53.7,59.02,99.22,110.55,123.16c29.57,13.73,62,19.47,93.86,25.36
				c35.19,6.51,70.7,11.4,106.33,14.86c70.25,6.81,141.01,7.75,211.48,4.16c71.85-3.66,143.42-12.02,214.41-23.59
				c70.29-11.45,140.02-26.18,209.2-43.07c8.61-2.1,17.22-4.24,25.82-6.41c-2.35-8.51-4.69-17.03-7.04-25.54
				c-67.57,25.78-137.17,46.09-207.98,60.78c-69.99,14.52-141.05,23.45-212.44,26.86c-72.26,3.45-144.8,1.29-216.72-6.52
				c-71-7.7-141.41-21.2-210.28-40.12c-8.93-2.45-17.84-5-26.72-7.64c-7.01-2.08-16.26-4.61-21.81-7.02
				c-4.42-1.92-11.39-5.99-16.33-9.51c-0.22-0.15-2.4-1.8-1.32-0.96c0.95,0.74-0.75-0.62-0.75-0.61c-1.36-1.15-2.72-2.28-4.03-3.48
				c-2.47-2.24-4.82-4.61-7.07-7.07c-1.05-1.15-2.07-2.33-3.07-3.53c-0.57-0.68-1.14-1.37-1.68-2.08c0.36,0.47,1.17,1.63-0.36-0.51
				c-2.08-2.91-4.08-5.85-5.9-8.93c-3.67-6.19-5.85-10.83-7.76-16.18c-2.24-6.29-3.84-12.76-4.93-19.35
				c-0.06-0.37-0.31-2.6-0.06-0.43c-0.07-0.66-0.15-1.32-0.21-1.98c-0.12-1.54-0.26-3.08-0.34-4.63c-0.17-3.53-0.15-7.07,0.07-10.6
				c0.1-1.55,0.24-3.08,0.41-4.62c0.24-2.24-0.31,1.8,0.06-0.43c0.11-0.66,0.21-1.31,0.33-1.97c0.63-3.51,1.49-6.96,2.52-10.38
				c2.05-6.85-2.47-14.43-9.25-16.29c-7.05-1.94-14.23,2.37-16.29,9.25c-17.43,58.15,18.78,124.13,76.16,142.42
				c70.49,22.46,143.58,37.94,216.83,47.97c74.06,10.14,148.81,14.61,223.55,12.91c74.69-1.69,149.28-9.4,222.76-22.85
				c72.59-13.29,144.13-32.41,213.6-57.32c8.72-3.13,17.4-6.35,26.06-9.65c6.68-2.55,11.28-8.92,9.25-16.29
				c-1.94-7.04-9.33-11-16.29-9.25c-67.78,17.07-136.06,32.23-204.9,44.36c-68.27,12.04-137.07,21.05-206.23,25.87
				c-68.88,4.8-138.11,5.45-207.01,0.69c-33.96-2.35-67.83-5.97-101.47-11.18c-17.13-2.65-34.19-5.68-51.18-9.1
				c-15.93-3.21-32.1-6.28-47.68-10.96c-49.51-14.89-91.64-51.68-113.99-99.14c-2.7-5.73-4.32-9.85-6.59-16.51
				c-2.31-6.77-9.1-11.23-16.29-9.25C475.54,379.3,470.57,386.99,472.89,393.79L472.89,393.79z"/>
		</g>
	</g>
	<g class="st19">
		<path d="M637.2,567.41c-7.38,36.32-8.36,73.92-2.9,110.57c-7.33-20.55-8.17-43.34-2.38-64.37"/>
		<g>
			<path d="M624.43,563.89c-7.79,38.95-8.63,78.34-2.9,117.61c8.51-2.35,17.03-4.69,25.54-7.04c-6.47-18.66-7.47-38.2-2.38-57.32
				c4.39-16.49-21.16-23.53-25.54-7.04c-6.23,23.43-5.57,48.47,2.38,71.41c2.34,6.76,9.07,11.23,16.29,9.25
				c7.6-2.09,10.29-9.19,9.25-16.29c-5-34.26-3.88-69.61,2.9-103.53c1.4-7.01-2.01-14.3-9.25-16.29
				C634.2,552.85,625.84,556.84,624.43,563.89L624.43,563.89z"/>
		</g>
	</g>
	<g class="st19">
		<path d="M667.76,588.13c5.21,33.07-1.25,67.84-17.98,96.88c23.26-24.82,33.69-60.97,27.2-94.29"/>
		<g>
			<path d="M654.99,591.66c4.46,29.47-1.8,60.55-16.64,86.68c-7.26,12.79,10.36,27.37,20.8,16.05
				c26.64-28.87,37.8-68.65,30.61-107.18c-1.31-7.04-9.81-11.03-16.29-9.25c-7.38,2.03-10.57,9.24-9.25,16.29
				c5.26,28.18-3.79,59.73-23.8,81.4c6.93,5.35,13.87,10.7,20.8,16.05c18.55-32.65,24.91-70.09,19.31-107.09
				c-1.07-7.08-9.98-10.98-16.29-9.25C656.67,577.44,653.92,584.56,654.99,591.66L654.99,591.66z"/>
		</g>
	</g>
	<g class="st19">
		<path d="M815.13,1342.06c34.24,29.65,74.54,52.34,117.71,66.28c0.1,16.8-20.85,27.4-37.17,23.05s-28.04-18.29-37.64-32.12
			c-9.61-13.82-18.79-28.83-33.3-37.43"/>
		<g>
			<path d="M805.76,1351.42c36.22,31.21,78.08,54.88,123.56,69.68c-3.24-4.26-6.48-8.51-9.72-12.77c-0.07,3.06,0.78-1.4-0.07,1.21
				c-0.31,0.93-1.35,3.13-0.27,1.17c-0.55,1.01-1.11,2.03-1.81,2.95c1.67-2.19-1.07,0.83-1.49,1.22c-0.7,0.6-0.59,0.54,0.34-0.19
				c-0.49,0.36-1,0.7-1.52,1.02c-1.07,0.61-2.12,1.25-3.23,1.79c-0.84,0.4-0.74,0.36,0.3-0.11c-0.59,0.22-1.18,0.42-1.78,0.6
				c-1.22,0.32-2.42,0.67-3.66,0.93c-0.96,0.17-0.82,0.17,0.41,0c-0.63,0.07-1.25,0.12-1.88,0.14c-1.47,0.01-2.91,0.05-4.38-0.08
				c2.35,0.2-0.61-0.19-1.36-0.38c-1.46-0.38-2.94-0.83-4.34-1.42c-3.64-1.53-8.19-4.85-11.71-8.21
				c-18.7-17.83-28.28-44.22-51.73-58.59c-14.57-8.93-27.9,13.97-13.37,22.87c11.84,7.26,19.54,19.65,27.65,31.38
				c8.81,12.75,18.64,25.44,32.2,33.46c12.77,7.55,28.16,9.87,42.16,4.37c14.62-5.75,25.64-17.9,26.04-34.15
				c0.15-6.01-4.25-10.99-9.72-12.77c-40.95-13.33-79.23-34.75-111.87-62.87c-5.42-4.67-13.41-5.32-18.73,0
				C800.99,1337.47,800.32,1346.73,805.76,1351.42L805.76,1351.42z"/>
		</g>
	</g>
	<g class="st19">
		<path d="M981.98,1392.3c49.14,15.07,106.8-3.27,138.04-43.91c-27.4,23.72-54.8,47.44-82.2,71.16c-8.2,7.1-20.81,8.66-30.51,3.76
			c-9.7-4.9-15.88-15.94-14.96-26.72"/>
		<g>
			<path d="M978.46,1405.07c53.54,16.05,116.42-3.01,150.93-47.31c4.39-5.64,5.5-13.23,0-18.73c-5.37-5.37-13.31-4.7-18.73,0
				c-22.67,19.62-45.33,39.25-68,58.87c-2.74,2.37-5.48,4.74-8.22,7.12c-2,1.73-5.21,4.62-6.26,5.3c-2.61,1.69-2.94,1.65-5.65,2.34
				c-2.3,0.59-0.12,0.32-2.35,0.25c0.03,0-4.12-0.28-2.36-0.01c-2.83-0.44-3.85-0.98-5.66-2.06c-0.73-0.51-0.8-0.5-0.19,0.04
				c-0.55-0.44-1.08-0.91-1.58-1.41c-0.34-0.33-2.19-2.26-1.19-1.02c-0.88-1.08-1.57-2.38-2.24-3.59c-1.39-2.49-0.15,0.73-0.79-2.05
				c-0.1-0.43-0.8-4.18-0.57-2c-0.15-1.4-0.07-2.82,0-4.22c0.41-7.15-6.38-13.24-13.24-13.24c-7.51,0-12.84,6.07-13.24,13.24
				c-0.87,15.35,7.84,31.01,21.52,38.15c15.85,8.27,34.05,4.78,47.31-6.48c27.37-23.24,54.3-47.01,81.45-70.51
				c-6.24-6.24-12.49-12.49-18.73-18.73c-7.39,9.49-16.32,18.02-25.16,24.05c-10.37,7.07-20.33,11.9-31.3,15.39
				c-22.91,7.27-45.89,7.9-68.69,1.06c-6.85-2.05-14.43,2.47-16.29,9.25C967.27,1395.83,971.58,1403.01,978.46,1405.07
				L978.46,1405.07z"/>
		</g>
	</g>
	<g class="st19">
		<path d="M965.9,1410.88c-9.2,72.95,17.62,149.55,70.38,201.03c-22.26-0.63-44.52-1.27-66.78-1.9c8.33-45.7,9.56-92.68,3.63-138.75
			"/>
		<g>
			<path d="M952.66,1410.88c-7.26,59.26,8.28,121.29,41.51,170.79c9.56,14.24,20.52,27.59,32.76,39.61
				c3.12-7.54,6.24-15.07,9.37-22.61c-22.26-0.63-44.52-1.27-66.78-1.9c4.26,5.59,8.51,11.18,12.77,16.77
				c8.46-46.99,10.1-94.88,4.1-142.27c-0.9-7.1-5.44-13.24-13.24-13.24c-6.46,0-14.15,6.1-13.24,13.24
				c5.68,44.92,4.87,90.64-3.16,135.22c-1.54,8.55,3.58,16.5,12.77,16.77c22.26,0.63,44.52,1.27,66.78,1.9
				c11.52,0.33,17.42-14.7,9.37-22.61c-19.81-19.46-35.31-41.71-47.16-67.17c-10.8-23.21-18.26-51.43-20.33-76.6
				c-1.31-15.96-0.96-32.01,0.99-47.9c0.87-7.11-6.71-13.24-13.24-13.24C958.02,1397.64,953.53,1403.75,952.66,1410.88
				L952.66,1410.88z"/>
		</g>
	</g>
	<g class="st19">
		<path d="M755.61,1336.52c26,87.57,41.25,178.29,45.31,269.51c-12.57-2.21-25.15-4.43-37.72-6.64
			c11.02-61.72,15.21-124.64,12.48-187.27"/>
		<g>
			<path d="M742.84,1340.05c19.87,67.15,33.65,136.11,40.53,205.81c1.98,20.02,3.4,40.09,4.31,60.18
				c5.59-4.26,11.18-8.51,16.77-12.77c-12.57-2.21-25.15-4.43-37.72-6.64c3.08,5.43,6.17,10.86,9.25,16.29
				c11.16-62.94,15.66-126.92,12.95-190.79c-0.3-7.15-5.87-13.24-13.24-13.24c-6.94,0-13.55,6.06-13.24,13.24
				c2.61,61.48-1.26,123.16-12,183.75c-1.16,6.52,1.69,14.96,9.25,16.29c12.57,2.21,25.15,4.43,37.72,6.64
				c8.01,1.41,17.19-3.48,16.77-12.77c-3.27-71.97-13.26-143.71-29.95-213.8c-4.74-19.89-10.03-39.63-15.83-59.23
				c-2.03-6.86-9.3-11.17-16.29-9.25C745.27,1325.63,740.8,1333.16,742.84,1340.05L742.84,1340.05z"/>
		</g>
	</g>
	<g class="st19">
		<path d="M1117.26,1372.66c-9.98,81.83,13.91,167.24,64.94,232.17c-14.94,3.57-30.48,7.15-45.53,4.04
			c-15.05-3.12-29.44-14.99-30.1-30.27c-2.68-61.79-5.36-123.58-8.03-185.37"/>
		<g>
			<path d="M1104.02,1372.66c-7.89,66.21,5.78,134.52,37.08,193.28c9.09,17.07,19.84,33.03,31.74,48.25
				c1.95-7.38,3.9-14.76,5.84-22.14c-8.21,1.95-16.49,4.07-24.93,4.6c-3.81,0.24-7.75,0.34-11.54-0.19
				c-1.59-0.22-3.19-0.61-4.74-1.04c-0.68-0.19-1.35-0.4-2.02-0.62c-0.48-0.16-2.94-1.17-1.45-0.49c-2.32-1.04-5.88-3.2-7.08-4.15
				c-2-1.6-3.63-3.38-4.89-5.45c-1.22-1.99-1.84-3.36-2.14-5.15c0.22,1.27-0.07-0.92-0.07-0.97c-0.06-1.33-0.12-2.66-0.17-3.99
				c-0.1-2.33-0.2-4.65-0.3-6.98c-1.61-37.21-3.23-74.41-4.84-111.62c-0.91-20.93-1.81-41.86-2.72-62.79
				c-0.31-7.15-5.87-13.24-13.24-13.24c-6.93,0-13.56,6.06-13.24,13.24c1.76,40.53,3.51,81.06,5.27,121.59
				c0.89,20.6,1.71,41.2,2.68,61.79c0.82,17.37,10.48,32.07,26.11,39.96c21.08,10.64,44.43,6.26,66.38,1.03
				c4.45-1.06,8.06-4.92,9.25-9.25c1.37-4.99-0.4-9.04-3.41-12.89c-37.54-48.03-59.64-108.99-62.85-169.36
				c-0.95-17.84-0.33-35.71,1.79-53.45c0.85-7.11-6.69-13.24-13.24-13.24C1109.4,1359.42,1104.87,1365.53,1104.02,1372.66
				L1104.02,1372.66z"/>
		</g>
	</g>
	<g class="st19">
		<path d="M603.3,1431.43c-1.55,41.09,21.42,80.05,52.13,107.57c30.71,27.51,68.66,45.46,106.03,63.03
			c-92.83-8.56-185.66-17.11-278.49-25.67c38.41-48.14,76.82-96.28,115.22-144.42"/>
		<g>
			<path d="M590.05,1431.43c-0.99,33.02,11.98,64.77,31.87,90.66c21.35,27.78,49.92,48.47,80.39,65.29
				c17.1,9.44,34.79,17.78,52.46,26.08c2.23-8.23,4.46-16.45,6.68-24.68c-72.27-6.66-144.55-13.32-216.82-19.98
				c-20.56-1.89-41.11-3.79-61.67-5.68c3.12,7.54,6.24,15.07,9.37,22.61c38.41-48.14,76.82-96.28,115.22-144.41
				c4.46-5.59,5.46-13.28,0-18.73c-4.62-4.62-14.25-5.62-18.73,0c-38.41,48.14-76.82,96.28-115.22,144.41
				c-7.37,9.24-2.6,21.51,9.37,22.61c72.27,6.66,144.55,13.32,216.82,19.98c20.55,1.89,41.11,3.79,61.67,5.68
				c12.88,1.19,18.36-19.19,6.68-24.68c-55.31-26-116.28-54.86-142.57-113.46c-6.37-14.2-9.51-29.83-9.04-45.7
				c0.22-7.16-6.24-13.24-13.24-13.24C595.94,1418.18,590.27,1424.25,590.05,1431.43L590.05,1431.43z"/>
		</g>
	</g>
</g>
<g id="Ebene_37">
	<g class="st19">
		<g>
			<path d="M632.26,878c5.73,91.83,52.55,179.62,124.5,236.8c36.92,29.34,79.53,50.67,125.59,61.23
				c47.1,10.8,96.2,10.98,143.53,1.46c53.24-10.71,103.39-34.49,145.15-69.2c5.5-4.58,4.73-14,0-18.73
				c-5.45-5.45-13.21-4.59-18.73,0c-33.55,27.9-74.32,47.77-117.06,58.65c-41.7,10.62-87.52,12.82-129.39,5.58
				c-86.09-14.89-159.65-67.77-204.24-141.66c-12.8-21.21-22.19-41.66-29.53-64.6c-3.71-11.59-6.75-23.41-9.04-35.36
				c-2.35-12.24-3.47-21.29-4.28-34.17c-0.45-7.14-5.77-13.24-13.24-13.24C638.68,864.75,631.81,870.82,632.26,878L632.26,878z"/>
		</g>
	</g>
	<g class="st19">
		<g>
			<path d="M933.05,783.04c-8.98,11.88-9.66,29.33-2.23,42.13c7.23,12.45,21.77,20.19,36.12,19.29c7.14-0.45,13.24-5.77,13.24-13.24
				c0-6.82-6.07-13.69-13.24-13.24c-0.96,0.06-1.9,0.08-2.86,0.09c-0.57,0.01-2.13-0.26-0.73-0.01c-0.94-0.17-1.85-0.45-2.77-0.71
				c-0.39-0.11-2-0.85-0.81-0.27c-0.85-0.41-1.69-0.9-2.49-1.41c-0.3-0.19-1.69-1.35-0.73-0.51c-1.93-1.68-1.8-1.52-2.87-3.36
				c-1.56-2.69-1.75-4.03-1.44-7.64c0.01-0.16,0.4-2.18,0.66-2.88c0.35-0.94,1.97-3.5,3.02-4.88c4.32-5.71,0.91-14.81-4.75-18.12
				C944.38,774.32,937.37,777.31,933.05,783.04L933.05,783.04z"/>
		</g>
	</g>
</g>
<g id="Ebene_17">
</g>
</svg>
