<?xml version="1.0" encoding="utf-8"?>
<!-- Generator: Adobe Adobe Illustrator 24.2.0, SVG Export Plug-In . SVG Version: 6.00 Build 0)  -->
<svg version="1.1" xmlns="http://www.w3.org/2000/svg" xmlns:xlink="http://www.w3.org/1999/xlink" x="0px" y="0px"
	 viewBox="0 0 283.46 283.46" style="enable-background:new 0 0 283.46 283.46;" xml:space="preserve">
<style type="text/css">
	.st0{fill:#ADBECF;}
	.st1{fill:#F3C057;}
	.st2{fill:#F7D98D;}
	.st3{fill:#AEBFCE;}
	.st4{opacity:0.2706;}
	.st5{fill:#3D4C5B;}
</style>
<g id="Ebene_1">
	<g>
		<g id="Ebene_7">
			<g>
				<path class="st0" d="M105.51,195.01c-3.53,1.44-4.16,6.83-1.07,9.19c-9.27,11.44-7.8,29.76,3.25,40.35
					c3.5,3.36,7.91,6.01,12.73,6.86c8.92,1.59,17.9-3.32,22.75-10.43c1.85-2.72,3.2-5.72,4.55-8.7c2.87-6.36,5.73-12.72,8.6-19.09
					c0.8-1.77,1.61-3.61,1.53-5.57c-0.18-4.07-4.07-7.12-7.76-9.26c-9.04-5.23-19.18-8.66-29.54-9.99
					c-2.96-0.38-6.01-0.58-8.84,0.21s-5.4,2.78-6.09,5.52"/>
				<g>
					<path class="st0" d="M105.54,194.03c-4.11,1.79-6.14,7.86-2.15,11.06c0.07-0.41,0.14-0.83,0.21-1.25
						c-6.61,8.24-8.14,19.65-4.58,29.68c3.84,10.81,14.71,20.79,27.24,19.07c5.78-0.8,10.99-3.82,14.9-7.8
						c4.85-4.93,7.22-11.62,9.99-17.76c1.53-3.4,3.06-6.79,4.59-10.19c0.75-1.67,1.54-3.33,2.25-5.03c0.63-1.49,1.14-3.11,1.04-4.76
						c-0.36-5.88-7.09-9.32-11.89-11.76c-6.72-3.41-13.95-5.85-21.36-7.25c-6.43-1.22-14.25-2.37-19.13,2.57
						c-1.03,1.04-1.8,2.29-2.19,3.69c-0.16,0.57,0.22,0.94,0.82,0.87c0.63-0.08,1.32-0.67,1.48-1.25
						c1.68-6.07,10.34-4.94,15.31-4.16c6.99,1.1,13.82,3.16,20.27,6.08c2.95,1.34,5.89,2.81,8.59,4.59
						c2.07,1.37,4.18,3.15,5.17,5.41c1.29,2.96-0.11,5.72-1.31,8.4c-1.41,3.13-2.82,6.25-4.23,9.38c-1.43,3.17-2.85,6.34-4.28,9.5
						c-1.3,2.87-2.64,5.8-4.55,8.35c-2.96,3.96-7.23,7.1-12.19,8.46c-11.39,3.12-22.39-5.13-27-14.9
						c-4.14-8.78-4.12-19.39,0.75-27.62c0.59-1,1.26-1.95,1.99-2.86c0.2-0.25,0.6-0.94,0.21-1.25c-1.29-1.03-1.91-2.52-1.83-4.09
						c0.06-1.25,0.57-2.69,1.83-3.23c0.56-0.24,1.24-0.78,1.22-1.43C106.69,193.94,106.04,193.81,105.54,194.03L105.54,194.03z"/>
				</g>
			</g>
			<g>
				<g>
					<path class="st0" d="M112.96,252.18c1.06,0.35,2.87-1.65,1.71-2.04C113.61,249.8,111.8,251.8,112.96,252.18L112.96,252.18z"/>
				</g>
			</g>
			<g>
				<g>
					<path class="st0" d="M111.07,252.2c0.26,2.1,1.84,3.93,4.11,4.24c2.37,0.33,4.66-1.08,5.76-2.98c0.15-0.27,0.33-0.98-0.17-1.11
						c-2.31-0.57-4.62-1.13-6.94-1.7c-0.66-0.16-1.29,0.18-1.69,0.66c-0.22,0.27-0.68,1.22-0.02,1.38c2.31,0.57,4.62,1.13,6.94,1.7
						c-0.06-0.37-0.12-0.74-0.17-1.11c-1.43,2.48-5.15,0.23-5.42-2C113.29,249.88,110.94,251.18,111.07,252.2L111.07,252.2z"/>
				</g>
			</g>
		</g>
		<g id="Ebene_5">
			<g>
				<path class="st1" d="M158.98,201.73c5.73-17.55,21.98-29.55,37.88-39.71s33-20.25,42.07-36.37
					c11.48-20.39,6.96-47.51-8.46-66.28S190.24,30,165.67,28.59c-15.31-0.88-30.89,1.62-44.18,8.47S94.36,56.59,89.81,70.41
					c-6.3,19.16,2.73,38.93,9.08,58.48c6.35,19.55,13.11,40.23,8.19,59.79c17.84-1.63,36.52,3.69,50.88,14.5"/>
				<g>
					<path class="st1" d="M160.13,201.54c5.02-15.21,18.06-26.03,31.22-34.9c13.24-8.92,27.55-16.64,38.74-27.99
						c5.3-5.38,9.71-11.57,12.56-18.5c2.62-6.37,3.88-13.29,3.91-20.2c0.05-13.93-4.79-28.02-13.48-39.48
						c-9.41-12.41-23.12-21.57-37.93-26.98c-15.16-5.55-31.72-7.4-47.55-5.32c-7.89,1.04-15.63,3.11-22.78,6.32
						c-7.05,3.18-13.54,7.45-19.26,12.47c-5.8,5.09-10.98,11.05-14.46,17.86c-3.34,6.53-4.78,13.8-4.6,21.15
						c0.37,15.2,6.74,29.76,11.43,44.21c4.99,15.35,10.25,31.22,9.6,47.31c-0.15,3.85-0.67,7.65-1.59,11.38
						c-0.14,0.58,0.19,0.93,0.82,0.87c13.72-1.22,27.87,1.7,40.18,8.07c3.5,1.81,6.84,3.9,9.98,6.25c0.96,0.72,2.97-1.12,2.09-1.77
						c-11.38-8.52-25.28-13.71-39.5-14.77c-4.04-0.3-8.09-0.26-12.1,0.1c0.27,0.29,0.54,0.58,0.82,0.87
						c3.8-15.3,0.65-31.25-3.8-46.37c-2.23-7.56-4.71-15.05-7.29-22.52c-2.49-7.24-5.01-14.49-6.64-21.94
						c-1.56-7.14-2.24-14.52-1-21.67c1.25-7.23,4.59-13.74,9.19-19.46c9.36-11.64,22.83-20.31,37.76-24.2
						c15.16-3.95,31.71-3.72,47.14,0.16c15.26,3.84,29.8,11.32,40.9,22.34c10.35,10.29,17.12,23.52,19.11,37.49
						c1.98,13.94-1.11,28.04-9.64,39.25c-9.38,12.34-23.23,20.61-36.33,28.95c-13.3,8.47-26.88,17.85-35.09,31.27
						c-1.95,3.19-3.53,6.58-4.7,10.12c-0.19,0.56,0.24,0.94,0.82,0.87C159.31,202.72,159.94,202.13,160.13,201.54L160.13,201.54z"/>
				</g>
			</g>
		</g>
		<g id="Ebene_6">
			<g>
				<path class="st2" d="M225.44,88.57c-5.05-14.58-17.1-32.04-31.24-39.68s-39.5-6.9-54.41-1.78
					c-20.62,7.08-32.36,32.49-32.03,53.66c0.28,18.33,17.87,31.65,35.36,39.74c17.49,8.09,40.5,12.82,55.98,2.51
					c15.49-10.31,27.04-36.08,26.33-54.41"/>
				<g>
					<path class="st2" d="M226.61,87.88c-2.13-6.13-5.14-11.99-8.72-17.5c-3.73-5.74-8.14-11.15-13.34-15.76
						c-4.5-3.99-9.61-7.33-15.39-9.26c-5.81-1.94-11.96-2.82-18.03-3.11c-6.41-0.31-12.86,0.03-19.15,1
						c-5.55,0.85-11.16,2.15-16.16,4.56c-10.13,4.88-17.55,13.77-22.31,23.47c-2.46,5.01-4.3,10.31-5.47,15.77
						c-1.12,5.24-1.82,10.79-1.36,16.19c0.93,10.99,8.15,20.27,16.95,27.15c9.22,7.22,20.23,12.64,31.48,16.09
						c11.21,3.43,23.55,5.05,34.79,1.78c10.99-3.2,18.93-11.6,24.73-20.68c6.13-9.61,10.41-20.73,11.71-32.07
						c0.28-2.43,0.4-4.88,0.31-7.33c-0.05-1.39-2.43-0.12-2.39,0.91c0.38,10.64-2.82,21.32-7.44,30.75
						c-2.42,4.92-5.32,9.64-8.84,13.9c-3.16,3.81-6.85,7.33-11.28,9.79c-9.64,5.36-21.72,5.1-32.54,2.82
						c-11.23-2.36-22.16-7.04-31.84-13.11c-9.18-5.76-17.99-13.58-21.64-23.7c-1.8-5-1.94-10.15-1.48-15.31
						c0.47-5.31,1.63-10.54,3.37-15.57c3.4-9.81,9.15-19.21,17.74-25.57c4.06-3,8.73-4.97,13.71-6.24
						c5.69-1.45,11.62-2.22,17.54-2.47c11.51-0.47,24.23,0.67,34.26,6.99c5.53,3.48,10.26,8.12,14.34,13.08
						c4.24,5.15,7.84,10.78,10.73,16.7c1.3,2.65,2.44,5.37,3.41,8.14C224.68,90.41,226.96,88.89,226.61,87.88L226.61,87.88z"/>
				</g>
			</g>
		</g>
		<g id="Ebene_3">
			<g>
				<g>
					<path d="M158.9,205.28c3.44-7.43,8.08-14.22,13.62-20.33c5.42-5.98,11.6-11.28,18.01-16.27c6.6-5.13,13.36-10.03,20.57-14.36
						c7-4.2,14.29-8.27,20.11-13.94c10.26-9.97,15.56-23.91,16.04-37.99c0.48-14.17-3.78-28.55-12.29-40.47
						c-9.09-12.73-22.44-22.42-37.14-28.44c-14.94-6.12-31.33-8.5-47.24-6.98c-16.09,1.53-31.84,7.25-43.79,17.52
						c-12.1,10.41-20.4,25.39-20.68,41.38c-0.14,8.1,1.81,16.14,4.29,23.91c2.49,7.82,5.42,15.5,7.77,23.36
						c4.33,14.48,7,29.18,7.69,44.12c0.19,4.15,0.26,8.31,0.24,12.46c-0.01,1.38,2.39,0.11,2.39-0.91
						c0.07-15.22-1.25-30.41-4.84-45.39c-1.77-7.4-3.98-14.73-6.47-21.96c-2.64-7.69-5.53-15.35-7.25-23.27
						c-1.7-7.82-1.98-15.77-0.12-23.48c1.81-7.51,5.35-14.55,10.15-20.65c9.56-12.14,23.76-19.95,39.29-23.33
						c15.35-3.33,31.79-2.63,47.1,1.84c15.1,4.4,29.29,12.41,40.01,23.72c10.21,10.76,16.65,24.26,18.16,38.53
						c1.45,13.6-1.4,27.78-9.47,38.92c-4.5,6.21-10.51,10.8-17.08,14.89c-3.5,2.18-7.09,4.23-10.6,6.41
						c-3.44,2.13-6.71,4.46-9.97,6.83c-13.11,9.56-25.88,19.93-34.8,33.37c-2.19,3.29-4.11,6.75-5.77,10.33
						C156.1,206.71,158.41,206.34,158.9,205.28L158.9,205.28z"/>
				</g>
			</g>
			<g>
				<g>
					<path d="M104.85,193.35c0.23,1.61,1.56,2.97,2.82,3.99c2.08,1.69,4.52,2.97,6.95,4.1c7.51,3.49,15.61,5.81,23.62,7.84
						c2.47,0.62,4.94,1.21,7.42,1.76c2.29,0.51,4.72,1.28,7.07,1.3c1.93,0.01,3.86-0.44,5.31-1.66c1.52-1.28,2.12-3.23,1.47-5.13
						c-0.69-2.01-2.39-3.72-4.01-5.11c-1.83-1.58-3.91-2.89-6.06-4.04c-4.58-2.43-9.52-4.3-14.5-5.77
						c-5.58-1.64-11.32-2.75-17.09-3.26c-2.67-0.24-5.69-0.67-8.29,0.01c-2.32,0.6-4.47,2.39-4.58,4.82
						c-0.03,0.64,0.7,0.69,1.17,0.53c0.59-0.2,1.2-0.81,1.22-1.43c0.09-2.03,2.73-2.09,4.35-2.06c2.35,0.05,4.7,0.24,7.04,0.51
						c4.77,0.54,9.5,1.49,14.13,2.83c4.42,1.28,8.77,2.91,12.92,4.9c3.87,1.86,7.89,4.22,10.42,7.69c0.8,1.1,1.93,3.26,0.6,4.33
						c-1.15,0.93-3.26,0.77-4.66,0.52c-4.54-0.8-9.06-1.96-13.53-3.11c-7.29-1.89-14.62-4.05-21.51-7.14
						c-2.46-1.1-4.96-2.33-7.09-3.98c-1.3-1-2.64-2.22-2.87-3.82c-0.09-0.64-1.12-0.32-1.44-0.14
						C105.18,192.14,104.76,192.71,104.85,193.35L104.85,193.35z"/>
				</g>
			</g>
			<g>
				<g>
					<path d="M106.19,193.29c-4.66,0.78-7.02,5.9-5.07,9.97c2.44,5.08,8.58,6.86,13.65,8.48c5.99,1.91,12.09,3.46,18.21,4.87
						c3.12,0.72,6.24,1.4,9.36,2.07c2.54,0.55,5.12,1.19,7.72,0.93c2.53-0.25,4.52-1.54,5.91-3.51c1.14-1.61,2.15-3.96,1.19-5.92
						c-0.56-1.14-2.79,0.43-2.32,1.38c0.66,1.34,0.13,2.86-0.66,4.01c-0.94,1.36-2.18,1.88-3.9,1.95c-2.24,0.09-4.51-0.52-6.7-0.99
						c-2.63-0.57-5.27-1.14-7.89-1.74c-5.29-1.2-10.57-2.5-15.78-4.04c-2.49-0.74-4.98-1.52-7.43-2.4
						c-2.31-0.82-4.67-1.79-6.54-3.39c-1.7-1.45-3.13-3.49-3.16-5.71c-0.03-1.72,0.88-3.53,2.76-3.84c0.64-0.11,1.31-0.64,1.48-1.25
						C107.16,193.61,106.81,193.18,106.19,193.29L106.19,193.29z"/>
				</g>
			</g>
			<g>
				<g>
					<path d="M101.36,203.84c-1.36,1.58-2.35,3.53-2.98,5.5c-0.6,1.88-0.76,3.77,0.25,5.6c2.7,4.88,9.31,5.61,14.28,6.77
						c6,1.4,12,2.81,18.01,4.21c2.94,0.69,5.88,1.37,8.82,2.06c2.42,0.57,5,1.39,7.49,1.01c5.47-0.84,6.5-6.83,6.22-11.28
						c-0.09-1.4-2.45-0.12-2.39,0.91c0.12,1.85,0.07,3.75-0.48,5.52c-0.52,1.68-1.43,2.73-3.37,2.79c-2.21,0.07-4.49-0.68-6.63-1.18
						c-2.69-0.63-5.39-1.26-8.08-1.89c-5.27-1.23-10.53-2.46-15.8-3.69c-2.66-0.62-5.33-1.19-7.97-1.88
						c-2.32-0.6-4.71-1.42-6.46-3.09c-1.53-1.46-2.31-3.27-1.86-5.27c0.43-1.91,1.32-3.85,2.61-5.34c0.31-0.36,0.6-1.08,0.02-1.38
						C102.47,202.88,101.69,203.46,101.36,203.84L101.36,203.84z"/>
				</g>
			</g>
			<g>
				<g>
					<path d="M99.78,213.84c-2.99,2.03-4.23,6.28-3.62,9.72c0.84,4.73,7.34,5.77,11.31,6.66c6.24,1.39,12.48,2.78,18.72,4.17
						c3.09,0.69,6.18,1.38,9.27,2.07c2.51,0.56,5.08,1.29,7.65,1.16c2.67-0.13,4.94-1.32,6.19-3.58c1.19-2.13,1.52-4.75,1.23-7.17
						c-0.17-1.4-2.51-0.11-2.39,0.91c0.22,1.87,0.1,3.88-0.65,5.61c-0.25,0.58-0.61,1.23-1.19,1.56c-0.8,0.46-1.88,0.55-2.81,0.53
						c-2.29-0.04-4.58-0.68-6.81-1.18c-2.66-0.59-5.31-1.18-7.97-1.78c-5.38-1.2-10.75-2.4-16.12-3.6
						c-2.58-0.58-5.21-1.06-7.75-1.79c-2.02-0.58-4.5-1.47-5.73-3.25c-0.88-1.28-0.81-3.1-0.56-4.51c0.22-1.26,0.79-3.19,1.8-3.88
						c0.45-0.3,1.11-0.91,0.88-1.52C101,213.4,100.16,213.58,99.78,213.84L99.78,213.84z"/>
				</g>
			</g>
			<g>
				<g>
					<path d="M98.12,225.5c-3.14,1.84-3.6,6.44-0.7,8.85c1.77,1.47,4.04,2.15,6.19,2.88c2.56,0.86,5.12,1.72,7.68,2.58
						c5.12,1.72,10.24,3.44,15.35,5.16c4.39,1.48,9.15,3.55,13.75,2.16c2.17-0.65,4.06-2.11,5.03-4.09c1.12-2.3,1.13-4.87,0.73-7.37
						c-0.1-0.64-1.12-0.33-1.44-0.14c-0.55,0.31-0.99,0.88-0.88,1.52c0.3,1.87,0.36,3.98-0.41,5.73c-0.61,1.37-1.82,2.15-3.32,2.48
						c-4.01,0.87-8.34-1.18-12.1-2.44c-4.23-1.42-8.45-2.84-12.67-4.26c-4.18-1.4-8.43-2.68-12.55-4.25
						c-1.73-0.66-3.92-1.63-4.62-3.43c-0.4-1.02-0.59-3.05,0.53-3.7c0.46-0.27,1.11-0.93,0.88-1.52
						C99.33,225.04,98.52,225.27,98.12,225.5L98.12,225.5z"/>
				</g>
			</g>
			<g>
				<g>
					<path d="M101.22,236.33c-0.05,3.14,0.69,6.25,2.68,8.87c1.73,2.28,4.23,3.94,6.83,5.19c5.43,2.62,11.68,3.9,17.51,2.3
						c3.49-0.96,6.44-3,8.3-5.98c0.28-0.45,0.21-1.07-0.42-1.16c-0.67-0.1-1.34,0.51-1.64,0.99c-2.78,4.46-8.94,5.18-13.98,4.45
						c-2.63-0.38-5.14-1.27-7.54-2.38c-2.36-1.09-4.61-2.46-6.33-4.4c-2.22-2.5-3.06-5.6-3.01-8.77
						C103.63,234.05,101.24,235.31,101.22,236.33L101.22,236.33z"/>
				</g>
			</g>
			<g>
				<path class="st3" d="M111.19,249.57c-0.94,2.07,0.66,5.98,3.61,6.63c2.35,0.51,6.35-0.77,7.37-2.99"/>
				<g>
					<path d="M110.04,249.76c-1.15,2.8,0.85,6.77,4.02,7.48c3.29,0.75,7.68-1.09,9.13-3.96c0.23-0.46,0.24-1.06-0.42-1.16
						c-0.63-0.1-1.39,0.5-1.64,0.99c-0.9,1.79-4.18,2.6-6.08,1.88c-2.08-0.79-3.53-3.65-2.72-5.62c0.23-0.56-0.27-0.94-0.82-0.87
						C110.83,248.59,110.28,249.18,110.04,249.76L110.04,249.76z"/>
				</g>
			</g>
		</g>
		<g id="Ebene_8">
			<g class="st4">
				<path class="st5" d="M111.14,188.52c-2.46-0.32-4.01,2.79-3.06,5s3.31,3.54,5.54,4.63c9.52,4.66,19.65,8.13,30.03,10.28
					c4.9,1.01,10.25,1.68,14.61-0.49c-16.73-2.77-36.58-5.93-46.92-18.67"/>
				<g>
					<path class="st5" d="M111.75,187.44c-3.36-0.31-5.76,3.36-4.99,6.28c0.45,1.74,1.97,3.07,3.47,4.04
						c1.93,1.26,4.13,2.18,6.23,3.13c9.01,4.05,18.61,7.19,28.34,8.94c4.5,0.81,9.33,1.07,13.44-0.93c0.55-0.27,2.09-1.82,0.64-2.06
						c-13-2.15-27.04-4.14-38.38-11.35c-3.07-1.95-5.83-4.35-8.11-7.13c-0.72-0.87-2.84,0.87-2.09,1.77
						c8.6,10.5,22.95,14.34,35.86,16.85c3.82,0.74,7.66,1.37,11.5,2.01c0.21-0.69,0.43-1.37,0.64-2.06
						c-3.15,1.53-6.72,1.53-10.21,1.06c-4.11-0.55-8.2-1.59-12.2-2.71c-4.22-1.19-8.37-2.59-12.44-4.21
						c-2.06-0.82-4.11-1.69-6.12-2.62c-1.78-0.82-3.61-1.62-5.26-2.67c-1.41-0.9-2.98-2.32-3.06-4.04
						c-0.04-0.99,0.29-2.29,1.53-2.18C111.58,189.69,113.19,187.57,111.75,187.44L111.75,187.44z"/>
				</g>
			</g>
			<g class="st4">
				<path class="st5" d="M104.92,196.18c-2.5,1.28-2.52,4.97-0.78,7.2s4.6,3.36,7.32,4.33c11.5,4.11,23.28,7.42,35.23,9.92
					c3.07,0.64,6.95,0.93,8.56-1.57c-8.6,0.03-45.61-5.93-50.04-20.51"/>
				<g>
					<path class="st5" d="M104.64,195.34c-3.22,1.79-3.76,6.03-1.55,8.92c1.28,1.66,3.25,2.76,5.18,3.57
						c2.27,0.96,4.64,1.71,6.98,2.5c9.86,3.32,19.92,6.06,30.09,8.21c3.98,0.84,8.48,1.18,10.93-2.41c0.26-0.38,0.24-1.16-0.42-1.16
						c-2.58,0-5.18-0.32-7.75-0.68c-3.85-0.53-7.68-1.25-11.48-2.14c-8.03-1.87-16.51-4.43-23.37-9.1
						c-3.01-2.05-5.82-4.76-6.89-8.21c-0.36-1.15-2.65,0.35-2.32,1.38c2.15,6.9,10.14,10.94,16.56,13.54
						c7.89,3.19,16.35,5.19,24.74,6.46c3.07,0.47,6.2,0.9,9.3,0.9c-0.14-0.39-0.28-0.78-0.42-1.16c-0.63,0.92-2.14,1.03-3.19,1.02
						c-1.63,0-3.24-0.34-4.83-0.68c-4.47-0.95-8.92-2.03-13.33-3.21c-4.32-1.16-8.6-2.43-12.86-3.8c-2.16-0.7-4.3-1.42-6.44-2.17
						c-1.83-0.64-3.7-1.27-5.41-2.21c-1.68-0.92-3.24-2.25-3.8-4.07c-0.39-1.25-0.47-3.12,0.84-3.85c0.47-0.26,1.1-0.94,0.88-1.52
						C105.85,194.88,105.04,195.12,104.64,195.34L104.64,195.34z"/>
				</g>
			</g>
			<g class="st4">
				<path class="st5" d="M102.13,206.36c-3.01,0.95-3.23,5.31-1.14,7.69c2.09,2.38,5.44,3.27,8.57,4.03
					c10.78,2.61,21.56,5.22,32.34,7.82c3.23,0.78,7.22,1.36,9.29-1.05c-14.03-2.1-45.85-6.55-48.12-19.64"/>
				<g>
					<path class="st5" d="M102.16,205.38c-3.3,1.16-4.56,4.97-3.18,8.03c1.74,3.86,6.66,4.95,10.46,5.86
						c10.35,2.5,20.7,5.01,31.05,7.51c4.03,0.97,8.56,1.7,11.53-1.57c0.39-0.43,0.61-1.31-0.22-1.44
						c-7.2-1.08-14.39-2.18-21.49-3.85c-3.89-0.91-7.76-1.99-11.52-3.39c-3.25-1.21-6.52-2.65-9.32-4.7
						c-2.54-1.86-4.69-4.26-5.24-7.31c-0.2-1.12-2.52,0.33-2.32,1.38c1.12,6.15,7.97,9.76,13.43,11.99
						c7.59,3.1,15.75,4.81,23.78,6.22c3.81,0.67,7.63,1.24,11.46,1.81c-0.07-0.48-0.15-0.96-0.22-1.44c-0.83,0.92-2.3,1.04-3.52,1
						c-1.69-0.05-3.35-0.44-5-0.83c-4.41-1.07-8.82-2.13-13.23-3.2c-4.47-1.08-8.94-2.16-13.41-3.25c-2.1-0.51-4.21-0.99-6.3-1.54
						c-1.8-0.47-3.64-1.05-5.2-2.08c-1.49-0.97-2.6-2.36-2.84-4.08c-0.16-1.15-0.02-2.73,1.25-3.18c0.57-0.2,1.24-0.81,1.22-1.43
						C103.31,205.26,102.66,205.2,102.16,205.38L102.16,205.38z"/>
				</g>
			</g>
			<g class="st4">
				<path class="st5" d="M99.68,217.22c-2.04,1.47-2.12,4.61-0.66,6.71c1.46,2.1,4.04,3.27,6.6,3.78c2.56,0.51,5.18,0.47,7.77,0.73
					c5.97,0.61,11.66,2.83,17.46,4.43c5.8,1.61,12.07,2.59,17.66,0.74c-11.19-1.54-40.88-5.09-48.78-16.63"/>
				<g>
					<path class="st5" d="M99.1,216.6c-2.75,2.12-2.98,6.13-0.68,8.79c2.68,3.1,7.13,3.65,10.98,3.89c2.26,0.14,4.5,0.31,6.74,0.75
						c2.34,0.45,4.63,1.1,6.91,1.79c4.09,1.23,8.15,2.59,12.36,3.33c4.39,0.77,8.86,0.8,13.06-0.55c0.64-0.21,2.02-1.87,0.64-2.06
						c-6.37-0.88-12.74-1.76-19.05-3.05c-7.29-1.5-14.77-3.41-21.39-6.92c-3.04-1.61-5.95-3.65-7.9-6.46
						c-0.62-0.89-2.76,0.8-2.09,1.77c3.74,5.39,10.79,8.28,16.9,10.31c7.31,2.43,14.92,3.92,22.51,5.11
						c3.26,0.51,6.54,0.95,9.81,1.4c0.21-0.69,0.43-1.37,0.64-2.06c-7.07,2.27-14.77-0.1-21.69-2.23
						c-3.86-1.19-7.76-2.38-11.78-2.92c-3.81-0.51-7.88-0.11-11.49-1.7c-1.69-0.75-3.32-1.97-3.99-3.68
						c-0.56-1.41-0.61-3.29,0.67-4.28c0.38-0.29,0.89-1.05,0.47-1.51C100.28,215.85,99.47,216.32,99.1,216.6L99.1,216.6z"/>
				</g>
			</g>
			<g class="st4">
				<path class="st5" d="M98.81,226.46c-1.73,1.71-1.07,4.78,0.72,6.55c1.79,1.77,4.34,2.58,6.78,3.31
					c8.58,2.59,17.16,5.18,25.74,7.78c4.11,1.24,8.97,2.37,12.27-0.1c-16.27-1.54-34.2-6.32-45.93-17.66"/>
				<g>
					<path class="st5" d="M97.97,226.09c-2.23,2.38-1.51,6.11,0.98,8.22c1.43,1.22,3.19,1.96,4.98,2.54
						c2.07,0.68,4.16,1.27,6.24,1.9c4.29,1.3,8.58,2.59,12.87,3.89c3.86,1.16,7.71,2.52,11.65,3.39c3.62,0.8,7.22,0.72,10.21-1.43
						c0.47-0.34,1.07-1.6,0.03-1.69c-12.76-1.22-25.85-4.2-36.93-10.92c-3.1-1.88-5.97-4.07-8.56-6.56
						c-0.85-0.81-2.92,0.98-2.09,1.77c9.48,9.1,22.42,13.85,35.23,16.29c3.69,0.7,7.4,1.21,11.13,1.57
						c0.01-0.57,0.02-1.13,0.03-1.69c-2.07,1.49-5.16,1.07-7.57,0.57c-3.44-0.72-6.8-1.93-10.16-2.95
						c-3.81-1.15-7.61-2.3-11.42-3.45c-1.93-0.59-3.87-1.17-5.8-1.75c-1.67-0.5-3.36-0.96-4.97-1.63c-1.67-0.7-3.35-1.71-4.21-3.31
						c-0.67-1.25-0.99-2.94,0.03-4.03c0.33-0.35,0.59-1.09,0.02-1.38C99.07,225.14,98.32,225.73,97.97,226.09L97.97,226.09z"/>
				</g>
			</g>
			<g class="st4">
				<path class="st5" d="M102.71,237.03c1.97,5.21,6.18,9.67,11.41,12.09c5.23,2.42,11.41,2.76,16.75,0.93
					c-9.96-1.65-19.43-6.47-26.54-13.5"/>
				<g>
					<path class="st5" d="M101.54,237.72c2.03,5.27,6.17,9.77,11.45,12.29c5.59,2.68,12.12,2.93,17.85,1.02
						c0.66-0.22,2.01-1.83,0.64-2.06c-9.83-1.67-19.07-6.4-26.11-13.31c-0.83-0.82-2.91,0.97-2.09,1.77
						c7.29,7.16,16.81,11.97,26.98,13.69c0.21-0.69,0.43-1.37,0.64-2.06c-5.29,1.77-11.36,1.31-16.46-1.22
						c-4.86-2.41-8.68-6.62-10.56-11.5C103.42,235.19,101.16,236.71,101.54,237.72L101.54,237.72z"/>
				</g>
			</g>
			<g class="st4">
				<path class="st5" d="M111.71,249.95c-0.17,1.86,0.78,3.81,2.4,4.91s3.84,1.31,5.6,0.53c-2.91-1.21-5.33-3.52-6.6-6.3"/>
				<g>
					<path class="st5" d="M110.52,250.4c-0.14,2.08,0.83,4.17,2.65,5.42c1.92,1.32,4.44,1.42,6.52,0.56c0.51-0.21,1.95-1.54,0.88-2
						c-2.78-1.2-5.03-3.31-6.3-5.97c-0.54-1.14-2.78,0.42-2.32,1.38c1.4,2.94,3.83,5.3,6.91,6.63c0.3-0.67,0.59-1.33,0.88-2
						c-3.4,1.42-7.06-1.49-6.84-4.91c0.04-0.64-0.71-0.69-1.17-0.53C111.14,249.17,110.56,249.77,110.52,250.4L110.52,250.4z"/>
				</g>
			</g>
		</g>
		<g id="Ebene_4">
			<g>
				<g>
					<path d="M111.52,189c10.92-7.67,21.68-15.55,32.07-23.84c10.43-8.32,20.5-17.06,29.94-26.4c9.32-9.23,18.24-19.02,25.81-29.65
						c3.79-5.32,7.34-11.43,7.38-18.15c0.03-5.07-2.23-10.64-6.62-13.83c-4.6-3.35-10.38-3.12-15.16-0.64
						c-5.64,2.92-8.89,8.47-10.67,14.22c-0.49,1.57-0.88,3.17-1.22,4.78c-0.32,1.51,1.8,0.69,2.18-0.1
						c2.58-5.52,5.32-11.43,4.45-17.71c-0.71-5.13-3.92-10.01-9.4-11.47c-5.46-1.45-11.25,0.32-15.55,3.4
						c-4.66,3.33-7.92,8.1-9.91,13.32c-4.46,11.66-2.12,24.66-0.51,36.81c1.72,12.95,3.7,25.87,5.4,38.82
						c1.69,12.89,3.13,25.82,3.66,38.76c0.06,1.57,0.11,3.13,0.15,4.7c0.03,1.39,2.41,0.12,2.39-0.91
						c-0.28-12.3-1.47-24.58-2.97-36.83c-1.51-12.35-3.36-24.68-5.08-37.01c-0.85-6.05-1.68-12.11-2.39-18.17
						c-0.72-6.16-1.19-12.39-0.38-18.52c1.3-9.75,7.09-21.23,18.41-22.61c2.55-0.31,5.23,0.03,7.55,1.23
						c2.3,1.19,4.03,3.19,5.07,5.46c2.45,5.36,1.13,11.07-0.97,16.18c-0.61,1.48-1.29,2.93-1.97,4.39c0.72-0.04,1.45-0.07,2.18-0.1
						c1.22-5.69,3.09-11.83,7.96-15.58c3.93-3.03,9.5-3.84,14.02-1.08c4.44,2.72,6.86,8.07,6.99,12.89
						c0.18,6.34-3.17,12.18-6.75,17.18c-7.23,10.1-15.65,19.48-24.49,28.3c-8.89,8.86-18.36,17.18-28.17,25.11
						c-9.78,7.91-19.89,15.43-30.17,22.73c-1.26,0.89-2.52,1.78-3.78,2.67c-0.44,0.31-1.12,0.91-0.88,1.52
						C110.3,189.44,111.14,189.27,111.52,189L111.52,189z"/>
				</g>
			</g>
			<g>
				<g>
					<path d="M222.02,71.48c6.53,9.55,8.63,21.59,5.62,32.35c-0.16,0.57,0.22,0.94,0.82,0.87c0.63-0.08,1.32-0.67,1.48-1.25
						c3.15-11.27,1.01-23.73-5.82-33.74C223.5,68.81,221.35,70.5,222.02,71.48L222.02,71.48z"/>
				</g>
			</g>
			<g>
				<g>
					<path d="M104.92,78.28c-3.99,9.33-4.76,19.91-2.31,29.91c0.7,2.86,1.68,5.65,2.9,8.36c0.52,1.14,2.76-0.41,2.32-1.38
						c-4.19-9.25-5.34-19.62-3.19-29.29c0.61-2.73,1.47-5.4,2.57-7.97c0.24-0.56-0.28-0.94-0.82-0.87
						C105.7,77.11,105.17,77.7,104.92,78.28L104.92,78.28z"/>
				</g>
			</g>
		</g>
	</g>
</g>
<g id="Ebene_2">
	<g>
		<g>
			<path class="st1" d="M197.65,178.08c1.5,7.25,3,14.5,4.5,21.74c0.27,1.32,1.83,2.09,3.08,1.75c1.37-0.38,2.02-1.75,1.75-3.08
				c-1.5-7.25-3-14.5-4.5-21.74c-0.27-1.32-1.83-2.09-3.08-1.75C198.03,175.39,197.38,176.76,197.65,178.08L197.65,178.08z"/>
		</g>
	</g>
	<g>
		<g>
			<path class="st1" d="M230.54,163.44c4,5,8,10,12,14.99c0.82,1.03,2.69,0.92,3.54,0c1-1.09,0.88-2.44,0-3.54c-4-5-8-10-12-14.99
				c-0.82-1.03-2.69-0.92-3.54,0C229.54,161,229.66,162.35,230.54,163.44L230.54,163.44z"/>
		</g>
	</g>
	<g>
		<g>
			<path class="st1" d="M255.68,130.13c4.01,0.96,8.02,1.91,12.03,2.87c1.27,0.3,2.77-0.4,3.08-1.75c0.29-1.28-0.39-2.75-1.75-3.08
				c-4.01-0.96-8.02-1.91-12.03-2.87c-1.27-0.3-2.77,0.4-3.08,1.75C253.64,128.34,254.32,129.81,255.68,130.13L255.68,130.13z"/>
		</g>
	</g>
	<g>
		<g>
			<path class="st1" d="M257.56,82.11c4.25-2,8.5-4,12.75-6c1.19-0.56,1.58-2.36,0.9-3.42c-0.79-1.22-2.15-1.49-3.42-0.9
				c-4.25,2-8.5,4-12.75,6c-1.19,0.56-1.58,2.36-0.9,3.42C254.92,82.44,256.29,82.71,257.56,82.11L257.56,82.11z"/>
		</g>
	</g>
	<g>
		<g>
			<path class="st1" d="M238.57,42.73c3.75-4.5,7.5-9,11.25-13.5c0.84-1,1.06-2.57,0-3.54c-0.92-0.85-2.64-1.07-3.54,0
				c-3.75,4.5-7.5,9-11.25,13.5c-0.84,1-1.06,2.57,0,3.54C235.96,43.58,237.68,43.81,238.57,42.73L238.57,42.73z"/>
		</g>
	</g>
	<g>
		<g>
			<path class="st1" d="M193.48,18.39c1-3,2-6,3-9c0.41-1.24-0.48-2.79-1.75-3.08c-1.38-0.31-2.63,0.42-3.08,1.75c-1,3-2,6-3,9
				c-0.41,1.24,0.48,2.79,1.75,3.08C191.78,20.45,193.04,19.72,193.48,18.39L193.48,18.39z"/>
		</g>
	</g>
	<g>
		<g>
			<path class="st1" d="M139.59,17.72c-0.25-3-0.5-6-0.75-9c-0.11-1.3-1.07-2.56-2.5-2.5c-1.26,0.06-2.62,1.1-2.5,2.5
				c0.25,3,0.5,6,0.75,9c0.11,1.3,1.07,2.56,2.5,2.5C138.35,20.17,139.7,19.12,139.59,17.72L139.59,17.72z"/>
		</g>
	</g>
	<g>
		<g>
			<path class="st1" d="M107.01,28.46c-2.25-4.75-4.5-9.5-6.75-14.25c-0.56-1.19-2.35-1.58-3.42-0.9c-1.22,0.79-1.5,2.15-0.9,3.42
				c2.25,4.75,4.5,9.5,6.75,14.25c0.56,1.19,2.35,1.58,3.42,0.9C107.33,31.09,107.61,29.73,107.01,28.46L107.01,28.46z"/>
		</g>
	</g>
	<g>
		<g>
			<path class="st1" d="M76.36,62.46c-5.75-0.5-11.5-1-17.24-1.5c-1.35-0.12-2.5,1.23-2.5,2.5c0,1.45,1.15,2.38,2.5,2.5
				c5.75,0.5,11.5,1,17.24,1.5c1.35,0.12,2.5-1.23,2.5-2.5C78.86,63.51,77.71,62.58,76.36,62.46L76.36,62.46z"/>
		</g>
	</g>
	<g>
		<g>
			<path class="st1" d="M63.53,124.35c5.25-1.75,10.5-3.5,15.74-5.25c1.24-0.41,2.18-1.74,1.75-3.08c-0.4-1.23-1.75-2.19-3.08-1.75
				c-5.25,1.75-10.5,3.5-15.74,5.25c-1.24,0.41-2.18,1.74-1.75,3.08C60.85,123.84,62.2,124.79,63.53,124.35L63.53,124.35z"/>
		</g>
	</g>
	<g>
		<g>
			<path class="st1" d="M80.77,165.58c4.5-1.5,9-3,13.5-4.5c1.24-0.41,2.18-1.74,1.75-3.08c-0.4-1.23-1.75-2.19-3.08-1.75
				c-4.5,1.5-9,3-13.5,4.5c-1.24,0.41-2.18,1.74-1.75,3.08C78.09,165.07,79.44,166.03,80.77,165.58L80.77,165.58z"/>
		</g>
	</g>
</g>
</svg>
