<?xml version="1.0" encoding="utf-8"?>
<!-- Generator: Adobe Adobe Illustrator 24.2.0, SVG Export Plug-In . SVG Version: 6.00 Build 0)  -->
<svg version="1.1" id="Ebene_1" xmlns="http://www.w3.org/2000/svg" xmlns:xlink="http://www.w3.org/1999/xlink" x="0px" y="0px"
	 viewBox="0 0 283.46 283.46" style="enable-background:new 0 0 283.46 283.46;" xml:space="preserve">
<style type="text/css">
	.st0{opacity:0.149;}
	.st1{fill:#C9316B;}
	.st2{fill:#F4F5E8;}
	.st3{fill:#6379B8;}
	.st4{fill:#F3C057;stroke:#000000;stroke-width:0.8026;stroke-miterlimit:10;}
	.st5{fill:#C8316B;}
	.st6{fill:#6478B7;}
	.st7{fill:#6378B7;}
</style>
<g>
	<g id="Ebene_3_Kopie">
		<g class="st0">
			<path d="M72.72,196.85c0.2,15.19-2.54,30.4-8.1,44.91c20.21-9.32,38.13-21.86,52.43-36.69"/>
			<g>
				<path d="M71.9,197.28c0.14,11.77-1.49,23.53-4.78,34.88c-0.93,3.22-2.02,6.4-3.22,9.54c-0.21,0.54-0.01,1.29,0.73,0.95
					c7.86-3.63,15.45-7.78,22.69-12.43c7.08-4.56,13.83-9.58,20.12-15.07c3.48-3.03,6.82-6.21,10.01-9.52
					c0.29-0.3,0.59-0.99,0.29-1.37c-0.33-0.41-0.87-0.01-1.12,0.25c-5.61,5.81-11.7,11.18-18.18,16.11
					c-6.61,5.03-13.61,9.59-20.92,13.67c-4.22,2.35-8.53,4.55-12.93,6.58c0.24,0.32,0.49,0.63,0.73,0.95
					c4.33-11.34,7.01-23.22,7.89-35.26c0.25-3.38,0.35-6.76,0.3-10.15c-0.01-0.47-0.41-0.65-0.83-0.46
					C72.24,196.18,71.9,196.79,71.9,197.28L71.9,197.28z"/>
			</g>
		</g>
		<g class="st0">
			<path d="M109.94,211.45c20.32,0.24,40.88-2.51,59.64-9.91s35.67-19.66,46.5-35.96s15.15-36.76,9.91-55.37
				c-5.56-19.76-21.52-36.15-40.9-45.16s-41.83-11.08-63.2-8.22c-24.05,3.22-47.53,12.8-64.71,29.07s-27.5,39.52-25.18,62.43
				c2.32,22.91,18.24,44.71,41,52.74"/>
			<g>
				<path d="M109.6,212.31c19.75,0.22,39.75-2.32,58.17-9.29c15.88-6.01,30.5-15.33,41.57-27.76
					c11.52-12.94,18.77-29.25,19.53-46.23c0.37-8.28-0.87-16.62-3.84-24.41c-2.73-7.16-6.82-13.83-11.89-19.73
					c-10.8-12.57-25.68-21.38-42.01-25.99c-18.03-5.09-37.43-5.25-55.82-1.85c-17.24,3.19-33.93,9.7-48.01,19.73
					c-13.98,9.95-25.02,23.47-31.15,39.03c-5.88,14.91-7.04,31.51-1.8,46.74C39.18,176.6,49,189.27,62.3,197.11
					c3.23,1.91,6.66,3.51,10.23,4.77c0.78,0.28,1.71-1.37,0.99-1.63c-14.43-5.13-26.06-15.73-33.21-28.56
					c-7.61-13.66-9.62-29.37-6.34-44.45C37.4,111.4,46.27,96.71,58.52,85.5c12.47-11.41,28.12-19.38,44.68-24.02
					c17.31-4.85,35.88-6.36,53.76-3.72c17.12,2.52,33.5,9.12,46.47,20.13c12,10.19,20.72,23.88,23.26,39.05
					c2.79,16.63-1.66,34.04-11.04,48.22c-8.93,13.51-22.15,24.16-36.97,31.54c-16.78,8.36-35.65,12.44-54.49,13.56
					c-4.63,0.28-9.28,0.37-13.92,0.32C109.51,210.58,108.75,212.3,109.6,212.31L109.6,212.31z"/>
			</g>
		</g>
		<g class="st0">
			<path class="st1" d="M126.34,130.03c1.25-10.77-7.18-21.62-18.27-24.25s-23.56,2.79-29.28,12.18c-5.71,9.39-4.62,21.92,2.1,30.69
				c5.52,7.2,14.04,11.7,22.39,15.77c11.88,5.81,23.97,11.24,36.23,16.28c1.51,0.62,3.14,1.25,4.76,0.93
				c2.05-0.41,3.41-2.2,4.56-3.86c8.73-12.52,17.45-25.05,26.18-37.58c4.61-6.62,9.38-13.69,9.66-21.61
				c0.24-6.69-2.92-13.3-7.92-18.02c-8.51-8.03-22.44-10.37-33.34-5.6c-10.91,4.77-18.07,16.33-17.14,27.68"/>
			<g>
				<path d="M127.03,129.86c1.09-9.78-5.2-19.51-14.56-23.59c-9.5-4.13-20.93-1.55-28.57,4.88c-8.31,6.99-11.21,18.08-8.55,28.16
					c1.38,5.19,4.23,9.87,8.17,13.69c4.12,3.99,9.11,7.03,14.24,9.71c5.77,3.02,11.71,5.78,17.64,8.52
					c6.24,2.88,12.54,5.65,18.88,8.32c1.64,0.69,3.28,1.38,4.94,2.05c1.46,0.59,3,1.14,4.61,0.91c2.9-0.42,4.6-3.19,6.07-5.3
					c3.93-5.64,7.85-11.27,11.78-16.91c3.93-5.64,7.85-11.27,11.78-16.91c3.54-5.08,7.31-10.14,9.7-15.83
					c2.23-5.29,2.92-11.01,1.22-16.53c-1.59-5.15-4.93-9.78-9.34-13.13c-8.2-6.24-20.06-8.03-29.89-4.44
					c-9.93,3.63-17.22,12.49-19.19,22.32c-0.48,2.38-0.63,4.81-0.44,7.22c0.09,1.11,1.49-0.03,1.43-0.75
					c-0.74-9.45,4.17-18.99,12.41-24.36c8.39-5.46,19.62-5.87,28.76-1.85c9.78,4.31,17.03,14.26,15.65,24.72
					c-0.73,5.56-3.59,10.6-6.69,15.28c-3.52,5.32-7.27,10.5-10.92,15.74c-3.76,5.39-7.51,10.79-11.27,16.18
					c-1.89,2.71-3.78,5.43-5.67,8.14c-1.38,1.98-2.92,4.88-5.86,4.71c-1.69-0.09-3.28-0.91-4.8-1.54c-1.49-0.62-2.98-1.24-4.47-1.87
					c-3.05-1.29-6.09-2.61-9.12-3.95c-6.06-2.68-12.07-5.45-18.03-8.32c-9.9-4.77-20.86-9.81-26.82-19.15
					c-5.38-8.43-6.02-19.79-0.51-28.31c5.08-7.87,15.25-12.58,24.92-11.59c9.84,1.01,18.24,8.37,20.57,17.41
					c0.56,2.17,0.75,4.44,0.5,6.67C125.5,131.42,126.94,130.68,127.03,129.86L127.03,129.86z"/>
			</g>
		</g>
		<g class="st0">
			<g>
				<path d="M213.05,123.66c2.04,8.62,1.37,17.72-1.95,25.98c-0.12,0.31-0.16,0.85,0.29,0.92c0.44,0.07,0.84-0.48,0.97-0.81
					c3.47-8.65,4.21-18.18,2.07-27.21c-0.1-0.44-0.62-0.29-0.88-0.09C213.19,122.71,212.95,123.23,213.05,123.66L213.05,123.66z"/>
			</g>
		</g>
		<g class="st0">
			<g>
				<path d="M208.52,159.77c-3.94,6.71-9.38,12.53-15.91,17.07c-0.7,0.48-0.66,2.04,0.39,1.31c6.79-4.72,12.46-10.84,16.55-17.81
					c0.17-0.28,0.37-0.88-0.02-1.1C209.14,159.02,208.68,159.49,208.52,159.77L208.52,159.77z"/>
			</g>
		</g>
		<g class="st0">
			<g>
				<path d="M48.97,131.84c0.27-8.63,2.83-17.15,7.38-24.63c1.3-2.14,2.76-4.18,4.37-6.12c0.24-0.29,0.53-0.85,0.25-1.2
					c-0.28-0.34-0.78-0.03-0.98,0.22c-5.96,7.18-10,15.76-11.64,24.77c-0.46,2.55-0.73,5.12-0.81,7.71
					c-0.01,0.42,0.37,0.57,0.73,0.4C48.69,132.79,48.95,132.27,48.97,131.84L48.97,131.84z"/>
			</g>
		</g>
	</g>
	<g id="Ebene_3">
		<g>
			<path class="st2" d="M80.66,188.07c0.2,15.19-2.54,30.4-8.1,44.91c20.21-9.32,38.13-21.86,52.43-36.69"/>
			<g>
				<path d="M79.85,188.5c0.14,11.77-1.49,23.53-4.78,34.88c-0.93,3.22-2.02,6.4-3.22,9.54c-0.21,0.54-0.01,1.29,0.73,0.95
					c7.86-3.63,15.45-7.78,22.69-12.43c7.08-4.56,13.83-9.58,20.12-15.07c3.48-3.03,6.82-6.21,10.01-9.52
					c0.29-0.3,0.59-0.99,0.29-1.37c-0.33-0.41-0.87-0.01-1.12,0.25c-5.61,5.81-11.7,11.18-18.18,16.11
					c-6.61,5.03-13.61,9.59-20.92,13.67c-4.22,2.35-8.53,4.55-12.93,6.58c0.24,0.32,0.49,0.63,0.73,0.95
					c4.33-11.34,7.01-23.22,7.89-35.26c0.25-3.38,0.35-6.76,0.3-10.15c-0.01-0.47-0.41-0.65-0.83-0.46
					C80.18,187.4,79.84,188.01,79.85,188.5L79.85,188.5z"/>
			</g>
		</g>
		<g>
			<path class="st2" d="M117.89,202.67c20.32,0.24,40.88-2.51,59.64-9.91s35.67-19.66,46.5-35.96c10.82-16.3,15.15-36.76,9.91-55.37
				c-5.56-19.76-21.52-36.15-40.9-45.16s-41.83-11.08-63.2-8.22c-24.05,3.22-47.53,12.8-64.71,29.07s-27.5,39.52-25.18,62.43
				c2.32,22.91,18.24,44.71,41,52.74"/>
			<g>
				<path d="M117.54,203.53c19.75,0.22,39.75-2.32,58.17-9.29c15.88-6.01,30.5-15.33,41.57-27.76
					c11.52-12.94,18.77-29.25,19.53-46.23c0.37-8.28-0.87-16.62-3.84-24.41c-2.73-7.16-6.82-13.83-11.89-19.73
					c-10.8-12.57-25.68-21.38-42.01-25.99c-18.03-5.09-37.43-5.25-55.82-1.85c-17.24,3.19-33.93,9.7-48.01,19.73
					c-13.98,9.95-25.02,23.47-31.15,39.03c-5.88,14.91-7.04,31.51-1.8,46.74c4.83,14.04,14.65,26.71,27.95,34.55
					c3.23,1.91,6.66,3.51,10.23,4.77c0.78,0.28,1.71-1.37,0.99-1.63c-14.43-5.13-26.06-15.73-33.21-28.56
					c-7.61-13.66-9.62-29.37-6.34-44.45c3.44-15.84,12.31-30.53,24.56-41.74c12.47-11.41,28.12-19.38,44.68-24.02
					c17.31-4.85,35.88-6.36,53.76-3.72c17.12,2.52,33.5,9.12,46.47,20.13c12,10.19,20.72,23.88,23.26,39.05
					c2.79,16.63-1.66,34.04-11.04,48.22c-8.93,13.51-22.15,24.16-36.97,31.54c-16.78,8.36-35.65,12.44-54.49,13.56
					c-4.63,0.28-9.28,0.37-13.92,0.32C117.45,201.8,116.69,203.52,117.54,203.53L117.54,203.53z"/>
			</g>
		</g>
		<g>
			<path class="st1" d="M134.28,121.25C135.53,110.47,127.1,99.63,116,97s-23.56,2.79-29.28,12.18c-5.71,9.39-4.62,21.92,2.1,30.69
				c5.52,7.2,14.04,11.7,22.39,15.77c11.88,5.81,23.97,11.24,36.23,16.28c1.51,0.62,3.14,1.25,4.76,0.93
				c2.05-0.41,3.41-2.2,4.56-3.86c8.73-12.52,17.45-25.05,26.18-37.58c4.61-6.62,9.38-13.69,9.66-21.61
				c0.24-6.69-2.92-13.3-7.92-18.02c-8.51-8.03-22.44-10.37-33.34-5.6c-10.91,4.77-18.07,16.33-17.14,27.68"/>
			<g>
				<path d="M134.97,121.08c1.09-9.78-5.2-19.51-14.56-23.59c-9.5-4.13-20.93-1.55-28.57,4.88c-8.31,6.99-11.21,18.08-8.55,28.16
					c1.38,5.19,4.23,9.87,8.17,13.69c4.12,3.99,9.11,7.03,14.24,9.71c5.77,3.02,11.71,5.78,17.64,8.52
					c6.24,2.88,12.54,5.65,18.88,8.32c1.64,0.69,3.28,1.38,4.94,2.05c1.46,0.59,3,1.14,4.61,0.91c2.9-0.42,4.6-3.19,6.07-5.3
					c3.93-5.64,7.85-11.27,11.78-16.91c3.93-5.64,7.85-11.27,11.78-16.91c3.54-5.08,7.31-10.14,9.7-15.83
					c2.23-5.29,2.92-11.01,1.22-16.53c-1.59-5.15-4.93-9.78-9.34-13.13c-8.2-6.24-20.06-8.03-29.89-4.44
					c-9.93,3.63-17.22,12.49-19.19,22.32c-0.48,2.38-0.63,4.81-0.44,7.22c0.09,1.11,1.49-0.03,1.43-0.75
					c-0.74-9.45,4.17-18.99,12.41-24.36c8.39-5.46,19.62-5.87,28.76-1.85c9.78,4.31,17.03,14.26,15.65,24.72
					c-0.73,5.56-3.59,10.6-6.69,15.28c-3.52,5.32-7.27,10.5-10.92,15.74c-3.76,5.39-7.51,10.79-11.27,16.18
					c-1.89,2.71-3.78,5.43-5.67,8.14c-1.38,1.98-2.92,4.88-5.86,4.71c-1.69-0.09-3.28-0.91-4.8-1.54c-1.49-0.62-2.98-1.24-4.47-1.87
					c-3.05-1.29-6.09-2.61-9.12-3.95c-6.06-2.68-12.07-5.45-18.03-8.32c-9.9-4.77-20.86-9.81-26.82-19.15
					c-5.38-8.43-6.02-19.79-0.51-28.31c5.08-7.87,15.25-12.58,24.92-11.59c9.84,1.01,18.24,8.37,20.57,17.41
					c0.56,2.17,0.75,4.44,0.5,6.67C133.45,122.64,134.88,121.9,134.97,121.08L134.97,121.08z"/>
			</g>
		</g>
		<g>
			<g>
				<path d="M220.99,114.87c2.04,8.62,1.37,17.72-1.95,25.98c-0.12,0.31-0.16,0.85,0.29,0.92c0.44,0.07,0.84-0.48,0.97-0.81
					c3.47-8.65,4.21-18.18,2.07-27.21c-0.1-0.44-0.62-0.29-0.88-0.09C221.13,113.93,220.89,114.44,220.99,114.87L220.99,114.87z"/>
			</g>
		</g>
		<g>
			<g>
				<path d="M216.46,150.99c-3.94,6.71-9.38,12.53-15.91,17.07c-0.7,0.48-0.66,2.04,0.39,1.31c6.79-4.72,12.46-10.84,16.55-17.81
					c0.17-0.28,0.37-0.88-0.02-1.1C217.08,150.24,216.62,150.71,216.46,150.99L216.46,150.99z"/>
			</g>
		</g>
		<g>
			<g>
				<path d="M56.91,123.06c0.27-8.63,2.83-17.15,7.38-24.63c1.3-2.14,2.76-4.18,4.37-6.12c0.24-0.29,0.53-0.85,0.25-1.2
					c-0.28-0.34-0.78-0.03-0.98,0.22c-5.96,7.18-10,15.76-11.64,24.77c-0.46,2.55-0.73,5.12-0.81,7.71
					c-0.01,0.42,0.37,0.57,0.73,0.4C56.63,124.01,56.9,123.49,56.91,123.06L56.91,123.06z"/>
			</g>
		</g>
		<g>
			<path class="st1" d="M245.12,48.2c1.7-1.5,2.12-4.13,0.97-6.04c-1.16-1.9-3.77-2.89-5.99-2.25c-2.65,0.76-4.24,3.45-4.53,6.07
				c-0.28,2.61,0.47,5.21,1.05,7.78c0.58,2.57,1,5.3,0.08,7.78c5.7-2.81,11.06-6.25,15.93-10.22c1.83-1.49,3.76-3.62,2.99-5.79
				c-0.68-1.91-3.28-2.67-5.33-2.14s-3.67,1.99-5.2,3.39"/>
			<g>
				<path d="M245.32,48.86c1.86-1.7,2.74-4.45,1.71-6.78c-0.93-2.11-3.31-3.39-5.7-3.2c-2.62,0.21-4.56,2.16-5.6,4.31
					c-1.24,2.55-1.03,5.39-0.49,8.08c0.67,3.3,2.01,6.87,0.84,10.21c-0.16,0.46-0.02,1.16,0.64,0.83
					c5.38-2.66,10.46-5.86,15.11-9.54c2.07-1.64,4.59-3.71,4.68-6.48c0.07-2.27-1.93-3.77-4.19-3.92c-3-0.19-5.42,1.91-7.42,3.75
					c-0.31,0.29-0.65,0.78-0.49,1.22c0.14,0.4,0.61,0.35,0.88,0.09c1.56-1.43,3.37-3.17,5.66-3.34c1.79-0.13,4.09,0.81,4.13,2.77
					c0.02,1.1-0.79,2.06-1.54,2.82c-0.85,0.87-1.86,1.61-2.83,2.36c-2.03,1.57-4.15,3.05-6.33,4.43c-2.48,1.56-5.05,2.99-7.69,4.3
					c0.21,0.28,0.43,0.55,0.64,0.83c0.87-2.46,0.68-5,0.17-7.51c-0.53-2.61-1.4-5.2-1.26-7.89c0.09-1.84,0.86-3.87,2.56-4.93
					c1.78-1.11,4.18-0.79,5.75,0.52c1.69,1.41,2.08,4.2,0.38,5.76c-0.31,0.29-0.65,0.78-0.49,1.22
					C244.57,49.16,245.04,49.11,245.32,48.86L245.32,48.86z"/>
			</g>
		</g>
		<g>
			<path class="st3" d="M250.84,78.79c-0.47,4.02-3.15,7.74-6.91,9.63c1.8-0.76,3.98-0.62,5.66,0.34c1.68,0.96,2.82,2.74,2.94,4.59
				c0.32-3.74,3.21-7.16,7-8.26c-3.92,0.85-8.24-2.28-8.41-6.09"/>
			<g>
				<path d="M250.15,78.95c-0.46,3.69-2.78,6.92-6.23,8.69c-0.64,0.33-1.09,2,0.03,1.55c3.49-1.39,7.56,0.98,7.87,4.53
					c0.09,1.06,1.35,0.07,1.41-0.54c0.32-3.35,2.74-6.23,6.13-7.25c0.45-0.14,0.79-0.58,0.86-1.01c0.06-0.35-0.07-0.77-0.53-0.68
					c-3.63,0.73-7.65-2.08-7.86-5.62c-0.03-0.41-0.35-0.58-0.73-0.4c-0.4,0.19-0.73,0.73-0.7,1.15c0.25,4.16,4.62,7.43,8.95,6.56
					c0.11-0.56,0.22-1.13,0.34-1.69c-4.23,1.28-7.46,5.08-7.86,9.28c0.47-0.18,0.94-0.36,1.41-0.54c-0.17-1.98-1.22-3.83-2.99-4.93
					c-1.9-1.17-4.29-1.22-6.34-0.4c0.01,0.52,0.02,1.03,0.03,1.55c4.12-2.11,7.04-6.17,7.6-10.58
					C251.69,77.4,250.25,78.14,250.15,78.95L250.15,78.95z"/>
			</g>
		</g>
		<path class="st4" d="M260.53,171.54l2.04,5.97c0.09,0.26,0.34,0.43,0.62,0.43h6.61c0.64,0,0.9,0.77,0.39,1.12l-5.35,3.69
			c-0.23,0.16-0.33,0.44-0.24,0.69l2.04,5.97c0.2,0.57-0.5,1.05-1.01,0.69l-5.34-3.69c-0.23-0.16-0.54-0.16-0.77,0l-5.34,3.69
			c-0.51,0.36-1.21-0.12-1.01-0.69l2.04-5.97c0.09-0.26-0.01-0.54-0.24-0.69l-5.35-3.69c-0.51-0.35-0.25-1.12,0.39-1.12h6.61
			c0.28,0,0.54-0.17,0.62-0.43l2.04-5.97C259.48,170.96,260.34,170.96,260.53,171.54z"/>
		<path class="st4" d="M94.22,28.16l2.04,5.97c0.09,0.26,0.34,0.43,0.62,0.43h6.61c0.64,0,0.9,0.77,0.39,1.12l-5.35,3.69
			c-0.23,0.16-0.33,0.44-0.24,0.69l2.04,5.97c0.2,0.57-0.5,1.05-1.01,0.69l-5.34-3.69c-0.23-0.16-0.54-0.16-0.77,0l-5.34,3.69
			c-0.51,0.36-1.21-0.12-1.01-0.69l2.04-5.97c0.09-0.26-0.01-0.54-0.24-0.69l-5.35-3.69c-0.51-0.35-0.25-1.12,0.39-1.12h6.61
			c0.28,0,0.54-0.17,0.62-0.43l2.04-5.97C93.17,27.59,94.02,27.59,94.22,28.16z"/>
		<path class="st4" d="M34.64,176.19l2.04,5.97c0.09,0.26,0.34,0.43,0.62,0.43h6.61c0.64,0,0.9,0.77,0.39,1.12l-5.35,3.69
			c-0.23,0.16-0.33,0.44-0.24,0.69l2.04,5.97c0.2,0.57-0.5,1.05-1.01,0.69l-5.34-3.69c-0.23-0.16-0.54-0.16-0.77,0l-5.34,3.69
			c-0.51,0.36-1.21-0.12-1.01-0.69l2.04-5.97c0.09-0.26-0.01-0.54-0.24-0.69l-5.35-3.69c-0.51-0.35-0.25-1.12,0.39-1.12h6.61
			c0.28,0,0.54-0.17,0.62-0.43l2.04-5.97C33.59,175.62,34.45,175.62,34.64,176.19z"/>
		<g>
			<path class="st5" d="M218.74,218.24c-0.44-2.59-3.07-4.68-5.84-4.64c-2.77,0.04-5.33,2.2-5.7,4.8c-0.38,2.74,1.5,5.41,3.92,6.95
				c2.43,1.54,5.34,2.2,8.16,2.91c2.82,0.71,5.72,1.56,7.93,3.37c0.81-5.27,1.63-10.54,2.44-15.8c0.39-2.5,0.58-5.51-1.52-7.08
				c-2.16-1.62-5.59-0.5-7.19,1.62c-1.61,2.12-1.89,4.87-2.11,7.48"/>
			<g>
				<path d="M219.43,217.68c-0.48-2.52-2.77-4.58-5.46-4.9c-2.79-0.33-5.49,1.4-6.74,3.69c-1.41,2.59-0.78,5.57,1.14,7.77
					c2.08,2.38,5.17,3.47,8.23,4.29c3.52,0.94,7.25,1.62,10.12,3.92c0.49,0.4,1.14-0.66,1.19-0.98c0.51-3.29,1.02-6.58,1.53-9.88
					c0.26-1.69,0.52-3.37,0.78-5.06c0.2-1.27,0.4-2.54,0.4-3.82c-0.01-2.2-0.8-4.67-3.25-5.4c-2.34-0.69-4.92,0.51-6.45,2.18
					c-2.19,2.38-2.53,5.73-2.79,8.74c-0.04,0.42,0.39,0.56,0.73,0.4c0.44-0.21,0.66-0.72,0.7-1.15c0.2-2.25,0.37-4.87,1.86-6.75
					c1.16-1.45,3.48-2.37,5.34-1.65c2.12,0.82,2.5,3.09,2.41,5.02c-0.06,1.22-0.29,2.43-0.48,3.64c-0.22,1.4-0.43,2.8-0.65,4.2
					c-0.51,3.29-1.02,6.58-1.53,9.88c0.4-0.33,0.8-0.65,1.19-0.98c-4.53-3.65-11.01-3.18-15.9-6.16c-2.12-1.29-4.03-3.55-3.95-6.06
					c0.08-2.21,2.15-3.94,4.41-4.12c2.74-0.22,5.3,1.82,5.78,4.33c0.08,0.45,0.63,0.28,0.88,0.09
					C219.3,218.61,219.51,218.12,219.43,217.68L219.43,217.68z"/>
			</g>
		</g>
		<g>
			<path class="st6" d="M178.52,212.85c0.23,3.84-1.86,7.72-5.26,9.81c4.36-1.32,9.55,0.55,11.88,4.29
				c-1.76-3.84-0.34-8.76,3.24-11.21c-3.46,1.17-7.67-0.17-9.69-3.07"/>
			<g>
				<path d="M177.81,213.23c0.17,3.41-1.53,6.76-4.56,8.65c-0.37,0.23-0.66,0.62-0.69,1.05c-0.02,0.3,0.13,0.69,0.54,0.57
					c4.26-1.25,9.13,0.54,11.43,4.15c0.44,0.69,1.54-0.74,1.31-1.27c-1.56-3.5-0.51-7.71,2.74-9.99c0.3-0.21,0.54-0.68,0.52-1.03
					c-0.02-0.27-0.21-0.58-0.55-0.47c-3.36,1.09-7.25-0.15-9.24-2.93c-0.49-0.68-1.67,0.81-1.23,1.42
					c2.18,3.04,6.47,4.39,10.13,3.21c-0.01-0.5-0.02-1-0.03-1.5c-3.92,2.74-5.65,8.14-3.73,12.42c0.44-0.42,0.87-0.85,1.31-1.27
					c-2.47-3.88-7.76-5.76-12.33-4.42c-0.05,0.54-0.1,1.08-0.15,1.62c3.81-2.38,6.18-6.62,5.97-10.96c-0.02-0.41-0.35-0.58-0.73-0.4
					C178.11,212.27,177.79,212.81,177.81,213.23L177.81,213.23z"/>
			</g>
		</g>
		<g>
			<path class="st7" d="M49.67,200.89c0.74,4-1.03,8.32-4.42,10.8c3.4-1.03,7.47,0.67,8.97,3.73c-0.3-3.56,1.45-7.2,4.46-9.34
				c-3.66,0.64-7.65-1.39-9.11-4.64"/>
			<g>
				<path d="M48.98,201.45c0.63,3.61-0.9,7.33-3.93,9.58c-0.29,0.22-0.54,0.67-0.52,1.03c0.02,0.28,0.21,0.57,0.55,0.47
					c3.31-0.95,7.03,0.66,8.52,3.6c0.16,0.31,0.63,0.08,0.81-0.06c0.3-0.23,0.55-0.66,0.52-1.03c-0.24-3.24,1.21-6.34,3.94-8.31
					c0.39-0.28,0.92-1.65-0.03-1.5c-3.44,0.56-7.17-1.31-8.59-4.35c-0.42-0.89-1.68,0.48-1.38,1.12c1.63,3.49,5.65,5.56,9.63,4.92
					c-0.01-0.5-0.02-1-0.03-1.5c-3.32,2.4-5.27,6.42-4.98,10.37c0.44-0.36,0.89-0.73,1.33-1.09c-1.64-3.23-5.82-4.9-9.42-3.87
					c0.01,0.5,0.02,1,0.03,1.5c3.77-2.81,5.7-7.54,4.92-12.01c-0.08-0.45-0.64-0.28-0.88-0.09C49.1,200.52,48.9,201.01,48.98,201.45
					L48.98,201.45z"/>
			</g>
		</g>
		<g>
			<path class="st3" d="M33.99,53.85c0.82,3.72-0.2,7.78-2.71,10.74c3.68-2.33,9.12-1.69,12.1,1.42c-2.72-2.93-2.72-7.78,0-10.71
				c-3.3,1.01-7.16,0.11-9.6-2.22"/>
			<g>
				<path d="M33.3,54.41c0.72,3.38-0.13,6.98-2.38,9.69c-0.22,0.26-0.45,0.7-0.32,1.05c0.1,0.29,0.43,0.38,0.7,0.21
					c3.53-2.18,8.6-1.58,11.47,1.35c0.62,0.63,1.73-0.87,1.23-1.42c-2.38-2.63-2.68-6.82-0.25-9.51c0.26-0.29,0.64-1.58-0.2-1.33
					c-3.17,0.93-6.78,0.13-9.15-2.09c-0.65-0.61-1.77,0.92-1.23,1.42c2.62,2.45,6.52,3.39,10.05,2.36c-0.07-0.45-0.13-0.89-0.2-1.33
					c-2.97,3.29-3.28,8.56-0.25,11.91c0.41-0.47,0.82-0.95,1.23-1.42c-3.21-3.28-8.77-3.93-12.73-1.48
					c0.13,0.42,0.25,0.84,0.38,1.26c2.76-3.32,3.91-7.65,3.03-11.79c-0.09-0.44-0.63-0.29-0.88-0.09
					C33.43,53.47,33.21,53.97,33.3,54.41L33.3,54.41z"/>
			</g>
		</g>
	</g>
</g>
</svg>
