<?xml version="1.0" encoding="utf-8"?>
<!-- Generator: Adobe Adobe Illustrator 24.2.0, SVG Export Plug-In . SVG Version: 6.00 Build 0)  -->
<svg version="1.1" xmlns="http://www.w3.org/2000/svg" xmlns:xlink="http://www.w3.org/1999/xlink" x="0px" y="0px"
	 viewBox="0 0 1700.79 1700.79" style="enable-background:new 0 0 1700.79 1700.79;" xml:space="preserve">
<style type="text/css">
	.st0{fill:#C8354F;}
	.st1{fill:#C93550;}
	.st2{opacity:0.149;}
	.st3{fill:#FFFFFF;}
	.st4{opacity:0.0314;}
</style>
<g id="Ebene_2_Kopie">
	<g>
		<path class="st0" d="M1055.74,967.09c69.13,2.35,279.59,10.37,300.51-18.94c33.98-47.62,86.52-563.8,52.01-596.52
			c-72.32-68.57-934.1-125.63-1010.66-44.72c-69.03,72.96,25.04,555.45,51.45,584.56c39.92,44,181.38,21.66,247.28,46.44
			c29.38,11.05,160.03,164.64,192.7,162.89c18.54-0.99,126.77-80.9,164.53-133.56"/>
		<g>
			<path class="st1" d="M1055.74,972.1c67.85,2.31,135.93,4.62,203.78,1.16c16.32-0.83,32.65-2.04,48.85-4.2
				c12.01-1.6,24.31-3.46,35.73-7.66c7.02-2.58,13.73-5.97,17.67-12.58c3-5.05,4.99-10.78,6.82-16.34
				c6.03-18.29,9.86-37.35,13.5-56.24c5.21-27.07,9.47-54.33,13.34-81.62c9.32-65.82,16.4-131.97,21.68-198.23
				c4.65-58.32,8.54-117.07,7.25-175.61c-0.4-18.13-0.97-36.72-4.74-54.51c-1.07-5.07-2.45-10.49-5.24-14.92
				c-2.44-3.88-6.35-6.61-10.18-8.99c-11.04-6.87-23.84-11.15-36.18-14.98c-18.28-5.67-36.98-10-55.71-13.87
				c-52.31-10.83-105.37-18.09-158.39-24.34c-64.95-7.66-130.14-13.36-195.4-17.7c-67.74-4.51-135.58-7.54-203.46-8.73
				c-60.63-1.06-121.37-0.79-181.94,2.62c-43.93,2.47-88.82,5.71-131.65,16.4c-13.05,3.26-26.61,7.25-38.15,14.35
				c-12.07,7.43-18.85,19.46-23.47,32.57c-7.41,20.98-9.71,43.84-11.05,65.92c-1.79,29.44-1.11,59.02,0.51,88.46
				c3.75,68.03,12.65,135.83,23.91,202.99c9.2,54.87,19.6,109.94,34.64,163.55c3.82,13.63,7.48,28.47,14.48,40.91
				c4.51,8,13.07,13.64,21.05,17.69c14.77,7.51,31.29,11.13,47.56,13.62c40.37,6.19,81.39,5.89,122.01,9.37
				c18,1.54,36.19,3.64,53.57,8.75c5.92,1.74,8.14,2.28,12.79,5.25c3.67,2.34,6.83,4.86,10.13,7.59
				c23.18,19.18,44.14,41.16,65.55,62.26c23.58,23.25,47.09,46.89,72.77,67.85c8.74,7.13,17.89,14.53,28.14,19.4
				c7.8,3.7,14.22,4.37,22.2,0.95c11.9-5.09,22.88-12.55,33.53-19.82c15.91-10.86,31.28-22.53,46.25-34.66
				c28.88-23.39,58.1-48.69,79.97-78.99c3.78-5.23-4.91-10.24-8.65-5.06c-10.56,14.64-23.35,27.7-36.37,40.14
				c-14.74,14.09-30.23,27.4-46.16,40.13c-14.38,11.49-29.17,22.53-44.49,32.74c-9.42,6.27-20.54,14.09-30.67,17.39
				c-0.64,0.21-1.29,0.38-1.94,0.56c-1.73,0.48,0.32,0.07-0.9,0.13c-0.58,0.03-1.17-0.03-1.75-0.09c1.35,0.14-1.29-0.34-1.79-0.48
				c-3.59-1.03-6.64-2.73-10.33-4.96c-10.44-6.3-19.89-14.21-29.09-22.16c-25.47-22-49.23-45.96-73.18-69.58
				c-19.85-19.58-39.41-40.26-61.57-57.29c-8.56-6.58-17.28-9.98-27.81-12.61c-17.65-4.42-35.93-6.34-54.04-7.79
				c-39.99-3.2-80.56-2.72-120.2-9.45c-15.36-2.61-31.34-6.2-44.86-14.26c-2.59-1.54-5.1-3.23-7.37-5.2
				c-1.25-1.08-2.39-2.25-3.56-3.41c-0.27-0.27-1.69-2.12-0.43-0.39c-1.09-1.49-1.97-3.1-2.79-4.75
				c-2.36-4.75-4.28-10.22-6.39-16.57c-2.83-8.54-5.31-17.19-7.66-25.87c-6.53-24.1-12.03-48.48-17.13-72.91
				c-13.31-63.8-23.82-128.27-31.33-193.01c-7.07-60.96-12.61-123.19-8.33-184.57c1.46-20.83,3.92-42.36,11.48-61.98
				c2.28-5.9,6.26-13.39,10.29-17.71c0.7-0.76,1.44-1.48,2.21-2.17c0.35-0.31,0.71-0.61,1.07-0.91c1.25-1.06-0.52,0.32,0.84-0.65
				c2.03-1.44,4.13-2.76,6.31-3.95c5.93-3.23,9.53-4.59,16-6.78c7.4-2.51,14.97-4.51,22.58-6.25c18.91-4.32,38.16-7.1,57.43-9.28
				c53.25-6.03,107-7.79,160.56-8.36c64.89-0.69,129.79,0.85,194.61,3.74c66.66,2.98,133.27,7.44,199.73,13.51
				c59.05,5.39,118.04,11.94,176.65,20.97c42.28,6.51,85.05,13.63,126,26.27c6.93,2.14,13.8,4.49,20.52,7.24
				c1.26,0.52,1.21,0.49,3.17,1.37c1.34,0.6,2.68,1.23,3.99,1.88c2.25,1.12,4.46,2.31,6.59,3.63c0.9,0.56,1.77,1.15,2.65,1.75
				c0.44,0.3,0.87,0.63,1.3,0.96c-1.37-1.04,0.07,0.06,0.38,0.33c0.61,0.55,1.2,1.09,1.78,1.67c1.01,1.01-0.51-0.85,0.11,0.13
				c0.25,0.39,0.52,0.76,0.73,1.17c0.27,0.5,1.52,3.22,0.87,1.64c0.47,1.14,0.88,2.31,1.25,3.48c0.91,2.89,1.58,5.86,2.15,8.84
				c3.19,16.61,3.74,35.58,4.04,53.49c0.46,26.67-0.3,53.35-1.49,79.99c-2.89,64.92-8.46,129.75-15.54,194.34
				c-6.41,58.47-13.82,117.01-24.95,174.79c-3.61,18.74-7.42,37.64-13.36,55.81c-2.01,6.14-2.91,9.27-5.95,14.37
				c-1.3,2.18-2.09,3.03-3.99,4.23c-3.63,2.3-6.6,3.46-10.59,4.75c-11.85,3.84-24.38,5.68-36.71,7.13
				c-16.34,1.92-32.77,2.97-49.2,3.7c-37.38,1.65-74.83,1.54-112.23,0.89c-28.23-0.49-56.44-1.41-84.65-2.38
				C1049.29,961.86,1049.3,971.88,1055.74,972.1L1055.74,972.1z"/>
		</g>
	</g>
</g>
<g id="Ebene_8">
</g>
<g id="Ebene_7">
	<g class="st2">
		<g>
			<path class="st3" d="M1145.05,377.73c21.27,3.56,42.84,5.15,64.28,7.3c5.92,0.59,11.84,1.21,17.75,1.88
				c2.88,0.33,5.76,0.66,8.64,1.02c1.44,0.18,2.88,0.36,4.32,0.54c4.74,0.6-4.01-0.58,0.82,0.11c11.24,1.59,22.46,3.4,33.53,5.92
				c5.15,1.17,10.27,2.49,15.31,4.04c2.27,0.7,4.53,1.44,6.77,2.25c1.08,0.39,2.14,0.8,3.21,1.2c4.38,1.65-3.1-1.51-0.41-0.2
				c3.78,1.84,7.53,3.62,11.03,5.97c0.74,0.5,1.48,1.19,2.26,1.61c-1.11-0.59-3.98-3.37-1.67-1.21c1.34,1.26,2.6,3.01,4.04,4.12
				c-0.79-0.61-3.11-4.53-1.48-1.84c0.4,0.67,0.81,1.35,1.23,2.01c2.43,3.83-0.96-4.05-0.44-1.21c0.26,1.44,1.21,6.71,0.55,1.79
				c-0.65-4.87-0.14-0.93-0.03,0.25c0.1,1.12,0.18,2.24,0.25,3.35c0.15,2.56,0.22,5.12,0.25,7.69c0.47,35.15-3.25,70.52-6.42,105.47
				c-4.49,49.51-9.81,98.95-15.22,148.37c-5.11,46.74-10.42,93.46-15.3,140.23c-0.51,4.84-1,9.69-1.5,14.54
				c-1.06,10.44,9.95,20.45,20,20c11.74-0.53,18.87-8.81,20-20c4.68-46.1,9.91-92.15,14.98-138.21
				c5.58-50.76,11.11-101.54,15.88-152.39c3.52-37.54,7.44-75.38,7.6-113.12c0.04-9.66,0.46-20.95-3.02-30.08
				c-8.15-21.36-29.4-31.94-49.95-38.54c-23.07-7.41-47.56-10.44-71.54-13.25c-22.23-2.6-44.57-4.22-66.78-6.95
				c-1.1-0.13-2.2-0.28-3.3-0.42c-3.34-0.42,5.26,0.76,1.26,0.16c-2.1-0.31-4.19-0.62-6.28-0.97c-10.28-1.72-22.04,2.7-24.6,13.97
				C1128.88,362.79,1134.01,375.88,1145.05,377.73L1145.05,377.73z"/>
		</g>
	</g>
	<g class="st2">
		<g>
			<path class="st3" d="M1260.69,907.16c0.67,4.37,1.34,8.74,2.01,13.1c9.79-7.53,19.59-15.06,29.38-22.59
				c-5.08-3.22-10.15-6.44-15.23-9.66c1.35,10.47,2.7,20.94,4.05,31.41c-2.3,1.93-4.47,3.31-7.52,3.75
				c-1.18,0.35-2.37,0.35-3.55-0.01c-2.05-0.37-2.35-0.38-0.89-0.04c-2.23-0.83-3.93-1.83-5.71-3.42c1.01,1.03,0.86,0.8-0.43-0.69
				c-1.19-1.24-2.02-2.71-2.49-4.4c3.06-7.53,6.13-15.06,9.19-22.59c0.28-0.16,4.84-1.5,2.33-0.99c2.48-0.5,4.62-0.55,7.11-0.05
				c-2.53-0.51,1.94,0.92,2.25,1.07c-2.28-1.06,1.58,1.21,1.89,1.52c1.6,1.6,2.59,3.74,3.25,5.87c-1.08-3.46-0.29,7.33-0.24,7
				c0.42-2.52-0.73,1.79-0.96,2.2c-0.65,0.86-1.3,1.72-1.95,2.57c-2.77,1.93-3.49,2.48-2.18,1.66c2.1-1.07-4.4,1.6-2.17,0.91
				c1.03-0.24,0.6-0.19-1.27,0.17c-1.15,0.35-2.31,0.38-3.47,0.09c-4.59-0.52-8.52-3.29-10.3-7.58c-1.68-4.05-0.03,2.05-0.66-2.46
				c-0.62-4.47-0.59,1.86-0.04-2.63c-0.03-1.2,0.28-2.31,0.91-3.33c0.81-1.67,0.97-2.06,0.48-1.18c-0.89,1.53,3.58-3.76,1.05-1.76
				c10.47,1.35,20.94,2.7,31.41,4.05c-1.09-1.66-2.18-3.33-3.27-4.99c-5.72-8.74-17.97-13.23-27.36-7.17
				c-8.73,5.63-13.3,18-7.18,27.36c1.09,1.66,2.18,3.33,3.27,4.99c3.51,5.36,8.24,8.69,14.61,9.55c6.76,0.91,11.61-1.39,16.8-5.5
				c10.43-8.26,11.6-25.54,4.69-36.28c-8.21-12.77-25.71-16.76-38.47-8.22c-12.31,8.23-17.85,25.38-8.96,38.27
				c8.6,12.46,25.2,17.21,38.62,9.41c7.67-4.46,11.5-14.06,9.19-22.59c-2.49-9.22-9.98-16.97-19.3-19.43
				c-10.11-2.67-19.13,0.01-26.95,6.58c-10.3,8.64-5.98,25.05,4.05,31.41c5.08,3.22,10.15,6.44,15.23,9.66
				c6.77,4.29,16.11,3.15,22.21-1.56c6.84-5.29,8.43-12.8,7.17-21.02c-0.67-4.37-1.34-8.74-2.01-13.1
				c-0.71-4.62-5.34-9.7-9.19-11.95c-4.29-2.51-10.6-3.57-15.41-2.02c-4.84,1.57-9.51,4.57-11.95,9.19
				C1260.03,896.81,1259.83,901.54,1260.69,907.16L1260.69,907.16z"/>
		</g>
	</g>
</g>
<g id="Ebene_2">
	<g>
		<g>
			<path d="M1023.48,1016.19c67.94,2.34,136.11,4.67,204.05,1.26c16.34-0.82,32.69-2.02,48.92-4.15c12.9-1.7,26.14-3.48,38.43-7.97
				c9.52-3.48,18.21-8.09,23.59-17.02c3.43-5.69,5.71-12.2,7.8-18.48c6.08-18.27,9.93-37.34,13.58-56.22
				c5.25-27.13,9.52-54.46,13.4-81.82c9.43-66.49,16.64-133.31,21.95-200.26c4.62-58.25,8.51-116.95,7.07-175.41
				c-0.46-18.65-1.2-37.82-5.23-56.1c-1.28-5.82-3.13-11.92-6.35-16.97c-3.43-5.37-8.68-9.24-14.06-12.5
				c-11.97-7.25-25.77-11.85-39.09-15.93c-18.45-5.64-37.3-9.95-56.19-13.82c-53.13-10.88-107.02-18.17-160.86-24.49
				c-64.91-7.62-130.04-13.3-195.25-17.64c-67.65-4.5-135.41-7.55-203.19-8.76c-60.43-1.08-120.96-0.85-181.32,2.47
				c-44.97,2.47-90.95,5.76-134.82,16.53c-13.95,3.43-28.44,7.76-40.81,15.23c-14.28,8.62-22.43,22.28-28.04,37.66
				c-7.87,21.6-10.22,45.39-11.65,68.18c-1.85,29.4-1.17,58.95,0.46,88.35c3.79,68.62,12.89,137.01,24.33,204.74
				c9.29,55.04,19.79,110.29,35.04,164.03c4.04,14.23,8.03,29.72,15.42,42.66c5.45,9.54,15.4,16.53,25.03,21.33
				c15.9,7.93,33.32,11.96,50.79,14.56c41.38,6.17,83.3,6.02,124.92,9.67c4.57,0.4,9.14,0.85,13.7,1.37
				c1.21,0.14,2.43,0.28,3.64,0.43c0.65,0.08,4.73,0.63,0.79,0.09c2.34,0.32,4.67,0.66,7,1.03c8.62,1.38,17.2,3.12,25.56,5.64
				c1.59,0.48,3.18,0.99,4.75,1.53c0.89,0.31,1.83,0.78,2.74,0.98c1.86,0.41-4-2.06-2.35-0.99c1.38,0.89,2.94,1.54,4.33,2.42
				c1.63,1.03,3.18,2.17,4.74,3.29c3.51,2.54-2.42-1.99,0.34,0.24c1.21,0.98,2.43,1.95,3.63,2.95
				c23.08,19.13,44.04,40.9,65.42,61.86c23.67,23.19,47.26,46.8,73.07,67.64c9.37,7.57,19.13,15.53,30.13,20.67
				c5.19,2.43,10.53,4.53,16.35,4.67c5.83,0.14,10.79-1.84,16.01-4.13c12.02-5.28,23.15-12.74,33.97-20.11
				c16.49-11.23,32.41-23.33,47.93-35.85c29.45-23.75,58.75-49.42,81.09-80.19c4.76-6.56,1.12-16.72-5.38-20.52
				c-7.58-4.43-15.75-1.19-20.52,5.38c-0.64,0.88-4.59,5.94-1.87,2.56c-1.21,1.51-2.42,3.03-3.65,4.52
				c-2.88,3.46-5.85,6.85-8.89,10.17c-6.54,7.14-13.39,14-20.41,20.67c-14.76,14.03-30.26,27.27-46.2,39.92
				c-1.71,1.36-3.42,2.7-5.14,4.05c-0.32,0.25-3.74,2.89-1.05,0.82c-1.01,0.78-2.03,1.56-3.05,2.33c-3.96,3.02-7.95,5.99-11.97,8.93
				c-7,5.11-14.08,10.09-21.31,14.87c-5.86,3.88-11.81,7.65-17.93,11.11c-2.29,1.29-4.6,2.54-6.96,3.7
				c-0.99,0.48-2.41,0.85-3.27,1.53c3.16-2.48,2.58-0.99,0.28-0.2c-0.78,0.27-1.6,0.43-2.37,0.7c-2.63,0.96,2.71-0.09,2.08-0.24
				c-0.44-0.1-1.66-0.18-2.09-0.08c3.83-0.86,3.75,0.79,1.27-0.01c-0.85-0.27-1.71-0.58-2.57-0.84c-3.03-0.91,3.69,1.8,0.81,0.34
				c-2.07-1.05-4.13-2.08-6.13-3.27c-4.76-2.82-9.23-6.05-13.66-9.35c-0.81-0.6-3.29-2.21,0.43,0.35c-0.69-0.47-1.34-1.04-1.99-1.56
				c-1.25-0.99-2.5-1.99-3.73-3c-2.86-2.33-5.69-4.7-8.49-7.1c-25.46-21.84-49.21-45.64-73.15-69.11
				c-20.62-20.22-40.95-41.35-63.97-58.89c-8.9-6.79-18.37-10.57-29.26-13.36c-18.84-4.83-38.45-6.85-57.8-8.4
				c-20.3-1.62-40.64-2.45-60.97-3.64c-10.05-0.59-20.1-1.26-30.13-2.17c-4.62-0.42-9.23-0.89-13.83-1.44
				c-1.23-0.15-2.45-0.3-3.68-0.45c-3.97-0.49,2.2,0.37-0.25-0.03c-2.56-0.42-5.14-0.75-7.7-1.17c-8.44-1.39-16.84-3.14-25.04-5.59
				c-3.57-1.06-7.01-2.38-10.52-3.63c-3.23-1.15,3.06,1.51,0.03,0.01c-0.84-0.42-1.72-0.78-2.56-1.19c-1.65-0.8-3.27-1.65-4.85-2.56
				c-1.53-0.88-3.02-1.81-4.47-2.81c-0.47-0.32-0.92-0.68-1.4-0.99c-2.58-1.68,2.57,2.38,0.37,0.27c-1.6-1.54-3.39-3.82-5.2-5.04
				c3.49,2.36,2.5,3.62,1.54,1.93c-0.18-0.32-0.4-0.63-0.6-0.94c-0.55-0.89-1.03-1.82-1.51-2.75c-0.52-1.03-0.98-2.08-1.47-3.13
				c-1.48-3.19,0.99,2.49,0.54,1.3c-0.27-0.72-0.58-1.42-0.86-2.13c-1.28-3.25-2.44-6.55-3.55-9.86c-2.88-8.59-5.41-17.31-7.8-26.05
				c-6.55-23.96-12.07-48.2-17.19-72.5c-6.4-30.4-12.08-60.95-17.16-91.59c-2.8-16.89-5.42-33.82-7.85-50.77
				c-0.57-4.02-1.14-8.04-1.69-12.06c-0.14-1.05-0.94-6.97-0.36-2.6c-0.34-2.56-0.68-5.13-1.02-7.69
				c-1.1-8.42-2.14-16.84-3.13-25.28c-7.12-60.79-12.71-122.88-8.36-184.09c0.44-6.19,1.01-12.37,1.75-18.53
				c0.16-1.35,1.02-5.82,0.04-0.48c0.26-1.44,0.41-2.91,0.62-4.35c0.42-2.79,0.89-5.58,1.41-8.36c1.74-9.32,4.12-18.47,7.49-27.34
				c0.19-0.5,0.46-0.99,0.61-1.5c0.06-0.21-1.77,3.96-0.89,2.12c0.44-0.93,0.84-1.89,1.29-2.82c0.85-1.77,1.77-3.51,2.78-5.2
				c0.86-1.45,1.84-2.81,2.77-4.22c1.65-2.5-2.93,3.35-0.47,0.63c0.56-0.62,1.1-1.27,1.68-1.88c0.68-0.71,1.41-1.37,2.14-2.04
				c0.42-0.38,0.9-0.7,1.31-1.09c0.39-0.38-3.96,2.81-1.38,1.1c2.09-1.38,4.17-2.73,6.38-3.92c1.17-0.63,2.35-1.22,3.55-1.78
				c0.69-0.32,1.38-0.63,2.07-0.95c3.4-1.57-2.01,0.8-1.05,0.43c3.05-1.18,6.08-2.37,9.18-3.4c7.45-2.48,15.06-4.46,22.72-6.19
				c8.94-2.01,17.96-3.66,27.01-5.09c2.37-0.38,4.74-0.73,7.11-1.08c1.1-0.16,2.21-0.32,3.31-0.47c0.67-0.09,1.34-0.19,2.01-0.28
				c3.8-0.53-3.21,0.41-0.6,0.08c5.39-0.69,10.79-1.36,16.2-1.97c53.26-5.92,106.99-7.64,160.54-8.17
				c64.45-0.63,128.91,0.9,193.29,3.78c66.77,2.98,133.48,7.44,200.05,13.5c31,2.82,61.97,6,92.88,9.64
				c14.74,1.73,29.49,3.47,44.18,5.55c-3.94-0.56-0.33-0.04,1.46,0.2c1.8,0.25,3.6,0.49,5.4,0.74c3.55,0.49,7.11,0.99,10.66,1.5
				c6.62,0.95,13.25,1.93,19.86,2.94c42.37,6.49,85.21,13.59,126.29,26.12c6.93,2.11,13.81,4.42,20.53,7.13
				c0.63,0.25,1.26,0.54,1.89,0.78c-5.66-2.11-2.37-1.02-1.04-0.42c1.36,0.61,2.72,1.22,4.06,1.88c2.29,1.11,4.55,2.3,6.73,3.62
				c0.92,0.56,1.83,1.13,2.71,1.74c0.41,0.28,0.81,0.6,1.23,0.87c2.2,1.46-3.54-3.07-1.49-1.15c0.61,0.57,1.26,1.17,1.91,1.7
				c2.33,1.9-2.36-4.19-0.68-0.84c0.4,0.81,0.82,1.72,1.29,2.48c-2.43-3.97-0.97-2.52-0.12,0.07c0.89,2.7,1.56,5.48,2.12,8.27
				c0.32,1.57,0.6,3.15,0.86,4.74c0.15,0.93,0.29,1.86,0.43,2.79c0.62,3.98-0.46-3.8-0.07-0.55c0.5,4.19,0.94,8.38,1.28,12.58
				c0.83,10.43,1.22,20.9,1.41,31.37c0.49,26.34-0.23,52.71-1.38,79.03c-2.83,65-8.4,129.9-15.5,194.57
				c-1.78,16.19-3.67,32.37-5.69,48.53c-0.98,7.82-1.99,15.63-3.02,23.44c-0.12,0.88-0.6,4.44,0,0.02
				c-0.11,0.83-0.22,1.66-0.34,2.49c-0.25,1.82-0.49,3.63-0.74,5.45c-0.54,3.91-1.09,7.81-1.64,11.71
				c-3.81,26.71-8,53.39-13.12,79.88c-3.62,18.73-7.45,37.64-13.43,55.79c-0.98,2.96-2.23,5.81-3.22,8.76
				c1.99-5.96,0.66-1.55-0.14,0.08c-0.51,1.03-1.07,2.01-1.63,3.01c-0.22,0.4-0.53,0.75-0.74,1.16c-1.06,2.07,3.17-3.05,1.13-1.47
				c-0.53,0.41-1.23,1.06-1.66,1.57c-0.78,0.92-2.88-0.17,2.06-1.59c-0.48,0.14-1,0.73-1.45,0.98c-1.6,0.89-3.2,1.69-4.83,2.52
				c-2.17,1.09,3.89-1.42,1.53-0.66c-0.55,0.18-1.09,0.42-1.64,0.62c-1.16,0.42-2.34,0.82-3.52,1.19
				c-5.34,1.68-10.82,2.89-16.31,3.93c-3.07,0.58-6.14,1.09-9.23,1.55c-1.2,0.18-7.35,1.25-2.31,0.35c-1.85,0.33-3.77,0.48-5.64,0.7
				c-16.55,1.93-33.2,2.97-49.85,3.68c-37.23,1.59-74.54,1.47-111.8,0.8c-28.26-0.5-56.51-1.44-84.77-2.41c-8.1-0.28-15,7.09-15,15
				C1008.48,1009.55,1015.35,1015.91,1023.48,1016.19L1023.48,1016.19z"/>
		</g>
	</g>
</g>
<g id="Ebene_5">
</g>
<g id="Ebene_10">
	<g>
		<path class="st3" d="M907.09,604.01c5.76-49.45-10.66-101.69-45.92-136.85s-89.18-51.44-137.34-38.79
			c-48.16,12.65-87.89,55.04-94.6,104.38c-7.14,52.53,20.72,103.03,50.22,147.07C737.2,766.02,805.28,845.3,881.78,915.4
			c91.92-64.71,184.54-130.02,261.41-212.05c26.25-28.01,51.6-60.27,55.62-98.44c5.96-56.51-40.12-109.53-94.83-124.89
			c-76.45-21.46-165.59,26.05-190.4,101.48"/>
		<g>
			<path class="st3" d="M917.09,604.01c6.68-59.78-17.49-122.19-65.99-158.58c-46.84-35.14-113.56-42.39-164.62-12.1
				c-23.53,13.96-43.46,34.95-55.35,59.67c-13.49,28.06-15.86,59.05-9.34,89.35c7.04,32.67,23.42,62.85,41.31,90.75
				c18.06,28.16,37.72,55.37,58.13,81.87c41.16,53.43,86.23,103.77,135.07,150.31c6.08,5.79,12.22,11.52,18.4,17.2
				c3.05,2.8,8.43,4.16,12.12,1.56c54.86-38.62,109.73-77.34,161.74-119.76c25.71-20.97,50.69-42.87,74.43-66.05
				c22.63-22.09,45.44-45.12,62.75-71.75c16.02-24.64,26.45-53.89,22.8-83.57c-3.39-27.6-16.72-52.8-35.91-72.74
				c-37.73-39.2-93.31-53.11-145.68-40.64c-48.76,11.61-93.75,45.07-115.51,90.7c-2.88,6.05-5.4,12.28-7.53,18.63
				c-4.09,12.23,15.22,17.48,19.29,5.32c14.43-43.16,51.58-76.61,94.2-91.07c44.8-15.2,95.05-9.23,131.57,22.22
				c18.25,15.72,32.49,36.23,38.05,59.87c6.02,25.57-0.85,51.19-13.8,73.49c-14.82,25.53-35.91,47.04-56.65,67.78
				c-22.19,22.18-45.52,43.18-69.59,63.3c-48.32,40.4-99.55,77.14-150.98,113.43c-6.42,4.53-12.85,9.06-19.28,13.58
				c4.04,0.52,8.08,1.04,12.12,1.56c-47.07-43.2-90.99-89.78-131.26-139.38c-19.88-24.48-38.82-49.72-56.82-75.61
				c-17.88-25.72-35.58-52.02-48.15-80.83c-11.58-26.54-18.45-56.78-12.25-85.58c5.2-24.17,18.58-45.68,36.86-62.17
				c39.45-35.57,97.36-39.14,143.6-14.82c49.01,25.77,77.12,79.03,77.39,133.65c0.03,6.82-0.37,13.63-1.13,20.41
				c-0.6,5.38,5.03,10,10,10C913,614.01,916.49,609.4,917.09,604.01L917.09,604.01z"/>
		</g>
	</g>
</g>
<g id="Ebene_9">
	<g class="st4">
		<path d="M390.56,316.7c0,281,312.26,612.99,525.2,782.43c-26.36,7.04-59.46-30.06-117.44-76.2
			c-81.95-65.2-59.06-73.17-104.65-91.42c-37.87-15.16-84.13-11.05-124.91-12.35c-37.58-1.19-84.58-7.83-108.65-26.8
			c-31.75-25.02-88.42-342.47-81.78-537.55"/>
		<g>
			<path d="M380.56,316.7c0.09,58.33,12.98,116.13,32.75,170.79c21.92,60.61,51.91,118.12,86.08,172.67
				c36.25,57.87,77.34,112.69,121.16,165.03c43.23,51.62,89.31,100.85,137.53,147.83c43.24,42.12,88.22,82.51,135.02,120.63
				c5.17,4.21,10.36,8.39,15.58,12.54c1.47-5.57,2.94-11.14,4.41-16.71c-0.71,0.18-1.42,0.32-2.13,0.47
				c2.65-0.55,0.41-0.03-0.23-0.02c-1.24,0.02-2.46,0.04-3.7-0.03c-2.84-0.14,0.92,0.39-1.92-0.31c-1.6-0.39-3.18-0.8-4.75-1.33
				c-0.82-0.28-1.63-0.59-2.44-0.9c1.8,0.71-0.08-0.03-0.52-0.24c-1.59-0.76-3.16-1.53-4.71-2.36c-3.43-1.86-6.74-3.95-9.98-6.14
				c-17.2-11.63-32.69-25.78-48.55-39.12c-31.04-26.11-63.96-50.14-90.15-81.42c-5.22-6.24-10.13-12.87-16.21-18.32
				c-7.61-6.82-16.42-11.55-25.76-15.53c-46.11-19.63-96.58-12.66-145.27-15.64c-22.2-1.36-44.66-4.36-65.8-11.54
				c-8.68-2.95-16.95-6.84-24.38-12.25c-1.1-0.8,0.95,1.18-0.4-0.4c-0.31-0.36-0.67-0.72-1.01-1.05c-1.09-1.07-0.6-1.82,0.34,0.52
				c-0.24-0.6-0.88-1.21-1.25-1.76c-1.82-2.71-3.33-5.63-4.73-8.58c-0.46-0.96-0.9-1.93-1.33-2.9c-0.32-0.73-1.54-3.74-0.34-0.74
				c-0.84-2.1-1.7-4.2-2.5-6.32c-3.98-10.56-7.28-21.39-10.33-32.25c-18.82-67.05-30.02-136.56-39.3-205.48
				c-10.89-80.86-18.4-162.71-17.93-244.37c0.05-8.9,0.22-17.79,0.52-26.69c0.43-12.87-19.57-12.86-20,0
				c-2.71,81.49,4.09,163.42,13.98,244.25c9.08,74.3,20.55,148.9,39.14,221.48c5.57,21.78,11.47,44.22,21.48,64.46
				c3.48,7.03,7.68,12.81,14.06,17.44c17.08,12.42,39.22,17.99,59.7,21.55c23.91,4.16,48.05,5.36,72.28,5.47
				c24.88,0.12,50.2-0.58,74.78,3.99c6.04,1.12,12.03,2.55,17.89,4.38c2.64,0.82,5.25,1.73,7.83,2.72c1.09,0.42,2.16,0.86,3.24,1.29
				c1.89,0.77-1.11-0.51,1.2,0.51c4.8,2.12,9.54,4.4,13.97,7.22c0.81,0.52,1.61,1.05,2.39,1.6c1.07,0.75,2.49,1.99,0.6,0.39
				c1.58,1.35,3.18,2.65,4.67,4.11c2.81,2.73,5.36,5.72,7.86,8.73c7.64,9.19,15.3,18.28,23.72,26.77
				c16.14,16.27,33.97,30.55,51.74,44.96c19.1,15.49,37.46,31.91,56.78,47.14c12.72,10.03,26.58,21.11,42.59,25.25
				c6.65,1.72,13.51,1.93,20.19,0.25c6.74-1.69,10.4-11.95,4.41-16.71c-45.87-36.53-89.98-75.28-132.45-115.71
				c-47.83-45.52-93.63-93.22-136.83-143.16C609.53,782.3,568.2,729,531.23,672.76c-35.04-53.3-66.6-109.43-90.32-168.74
				c-21.31-53.3-36.82-109.75-39.81-166.89c-0.36-6.8-0.53-13.61-0.54-20.42C400.54,303.84,380.54,303.81,380.56,316.7L380.56,316.7
				z"/>
		</g>
	</g>
</g>
<g id="Ebene_6">
</g>
</svg>
