<?xml version="1.0" encoding="utf-8"?>
<!-- Generator: Adobe Adobe Illustrator 24.2.0, SVG Export Plug-In . SVG Version: 6.00 Build 0)  -->
<svg version="1.1" id="Ebene_1" xmlns="http://www.w3.org/2000/svg" xmlns:xlink="http://www.w3.org/1999/xlink" x="0px" y="0px"
	 viewBox="0 0 283.46 283.46" style="enable-background:new 0 0 283.46 283.46;" xml:space="preserve">
<style type="text/css">
	.st0{opacity:0.149;}
	.st1{fill:#F4F5E9;}
	.st2{fill:#F4F6E7;}
	.st3{fill:#6379B8;}
	.st4{fill:#6379B7;}
	.st5{fill:#6279B7;}
	.st6{fill:#C9316C;}
	.st7{fill:#C9316B;}
	.st8{fill:#CA316C;}
	.st9{fill:#F2C056;}
</style>
<g>
	<g id="Ebene_3">
		<g class="st0">
			<g>
				<path d="M62.29,218.39c0.78,0,1.54-2.04,0.69-2.04C62.2,216.35,61.44,218.39,62.29,218.39L62.29,218.39z"/>
			</g>
		</g>
		<g class="st0">
			<path d="M60.94,216.9c0.9,15.94,1.8,31.89,2.7,47.83c13.41-11.53,26.82-23.07,40.23-34.6c7.48-6.43,14.54-16.53,24.23-15.96
				c10.05,0.59,21.71,0.48,31.31,1.04c23.13,1.35,41.2,0.01,64.15-3.5c7.02-1.07,17.8-8.23,23.04-13.57
				c6.38-6.5,7.08-13.6,7.69-23.23c2.35-37.34-3.5-74.82-12.64-110.82c-2.27-8.93-5.29-18.61-12.46-23.28
				c-6.35-4.14-14.26-3.2-21.53-1.99C149.99,48.42,93.6,67.54,40.87,95.36c-5.82,3.07-11.99,6.67-14.84,13.11
				c-2.26,5.09-2.65,11.16-1.63,16.72c4.35,23.65,6.69,39.28,9.98,64.11c0.93,7.01,3.28,17.99,8.72,21.62
				c5.32,3.55,11.34,3.51,17.22,2.77c0.49,1.07,0.98,2.14,1.47,3.22"/>
			<g>
				<path d="M60.22,217.35c0.9,15.94,1.8,31.89,2.7,47.83c0.04,0.66,0.52,0.67,0.91,0.33c10.27-8.83,20.54-17.66,30.81-26.49
					c4.55-3.91,9.21-7.7,13.53-11.93c3.56-3.49,7.06-7.25,11.3-9.7c2.11-1.22,4.42-2.06,6.8-2.19c2.75-0.15,5.58,0.22,8.33,0.3
					c5.81,0.19,11.62,0.25,17.43,0.44c5.86,0.18,11.71,0.6,17.57,0.74c5.85,0.14,11.71,0.09,17.56-0.16
					c11.67-0.51,23.3-1.85,34.87-3.59c4.56-0.69,8.73-2.52,12.79-4.91c4.05-2.39,8.02-5.21,11.47-8.59
					c3.39-3.32,5.87-7.45,7.11-12.3c1.33-5.19,1.52-10.74,1.79-16.1c0.69-13.97,0.25-27.99-1.05-41.9
					c-1.29-13.7-3.4-27.29-6.11-40.73c-1.36-6.77-2.88-13.5-4.52-20.19c-1.37-5.58-2.69-11.23-4.9-16.48
					c-1.95-4.63-4.69-8.97-8.65-11.67c-4.59-3.12-10.12-3.55-15.36-3.12c-5.74,0.47-11.45,1.67-17.11,2.72
					c-5.96,1.11-11.91,2.33-17.83,3.64c-23.57,5.23-46.86,12.06-69.69,20.42C87.2,72.04,64.88,81.9,43.17,93.22
					c-4.49,2.34-9.13,4.66-12.93,8.3c-3.83,3.68-6.14,8.66-6.85,14.24c-0.81,6.4,0.78,12.62,1.89,18.85
					c1.04,5.86,2.04,11.73,2.98,17.61c1.93,12.05,3.61,24.14,5.22,36.25c1.18,8.92,2.99,20.67,11.28,24.66
					c4.87,2.34,10.22,2.21,15.38,1.57c-0.15-0.05-0.3-0.11-0.45-0.16c0.49,1.07,0.98,2.14,1.47,3.22c0.38,0.82,1.59-0.91,1.24-1.68
					c-0.49-1.07-0.98-2.14-1.47-3.22c-0.09-0.19-0.3-0.18-0.45-0.16c-5.53,0.68-11.35,0.7-16.35-2.39
					c-3.73-2.3-5.64-6.92-6.92-11.26c-1.43-4.83-2.06-9.83-2.73-14.84c-0.81-6.09-1.65-12.17-2.53-18.24
					c-1.66-11.45-3.52-22.87-5.55-34.24c-1.13-6.32-2.61-12.51-1.15-18.94c1.3-5.72,4.73-9.7,9.13-12.7
					c4.5-3.07,9.45-5.37,14.24-7.81c5.31-2.7,10.65-5.31,16.03-7.83c10.95-5.14,22.05-9.9,33.26-14.29
					c22.01-8.62,44.47-15.81,67.22-21.51c11.52-2.88,23.11-5.38,34.76-7.5c5.53-1,11.15-2.23,16.77-2.33
					c5.19-0.09,10.38,1.08,14.46,4.88c3.61,3.36,5.87,8.22,7.52,13.05c1.91,5.62,3.22,11.51,4.59,17.32
					c3.1,13.18,5.72,26.51,7.6,39.97c1.88,13.43,3.04,27,3.22,40.59c0.09,6.83-0.06,13.67-0.48,20.48
					c-0.31,5.07-0.6,10.35-2.45,15.07c-1.78,4.54-5.09,7.83-8.62,10.67c-3.86,3.11-8.09,5.83-12.5,7.83
					c-4.68,2.12-9.65,2.56-14.63,3.23c-5.8,0.79-11.61,1.45-17.44,1.92c-11.37,0.93-22.77,1.09-34.16,0.56
					c-11.25-0.52-22.52-0.59-33.76-1.16c-2.35-0.12-4.58-0.13-6.85,0.61c-2.02,0.66-3.93,1.71-5.7,2.96
					c-3.95,2.79-7.32,6.44-10.84,9.84c-4.42,4.26-9.2,8.08-13.82,12.06c-4.95,4.26-9.91,8.52-14.86,12.78
					c-4.83,4.16-9.67,8.31-14.5,12.47c0.3,0.11,0.61,0.22,0.91,0.33c-0.9-15.94-1.8-31.89-2.7-47.83
					C61.58,215.14,60.17,216.49,60.22,217.35L60.22,217.35z"/>
			</g>
		</g>
		<g class="st0">
			<g>
				<path d="M241.63,255.77c0.78,0,1.54-2.04,0.69-2.04C241.54,253.73,240.78,255.77,241.63,255.77L241.63,255.77z"/>
			</g>
		</g>
	</g>
	<g id="Ebene_3_Kopie">
		<g>
			<g>
				<path class="st1" d="M66.94,211.56c0.78,0,1.54-2.04,0.69-2.04C66.85,209.52,66.09,211.56,66.94,211.56L66.94,211.56z"/>
			</g>
		</g>
		<g>
			<path class="st2" d="M65.59,210.06c0.9,15.94,1.8,31.89,2.7,47.83c13.41-11.53,26.82-23.07,40.23-34.6
				c7.48-6.43,14.54-16.53,24.23-15.96c10.05,0.59,21.71,0.48,31.31,1.04c23.13,1.35,41.2,0.01,64.15-3.5
				c7.02-1.07,17.8-8.23,23.04-13.57c6.38-6.5,7.08-13.6,7.69-23.23c2.35-37.34-3.5-74.82-12.64-110.82
				c-2.27-8.93-5.29-18.61-12.46-23.28c-6.35-4.14-14.26-3.2-21.53-1.99C154.64,41.59,98.25,60.7,45.52,88.52
				c-5.82,3.07-11.99,6.67-14.84,13.11c-2.26,5.09-2.65,11.16-1.63,16.72c4.35,23.65,6.69,39.28,9.98,64.11
				c0.93,7.01,4.23,16.63,8.72,21.62c4.49,4.99,12.2,7.09,17.22,2.77c0.49,1.07,0.98,2.14,1.47,3.22"/>
			<g>
				<path class="st1" d="M64.87,210.51c0.9,15.94,1.8,31.89,2.7,47.83c0.04,0.66,0.52,0.67,0.91,0.33
					c10.27-8.83,20.54-17.66,30.81-26.49c4.64-3.99,9.38-7.86,13.78-12.19c3.55-3.49,7.07-7.23,11.34-9.61
					c2.08-1.16,4.35-1.94,6.68-2.04c2.71-0.12,5.46,0.23,8.17,0.31c5.95,0.19,11.89,0.26,17.84,0.45c5.87,0.19,11.73,0.61,17.6,0.74
					c5.91,0.13,11.83,0.07,17.74-0.2c11.69-0.53,23.34-1.91,34.93-3.67c4.52-0.69,8.75-2.77,12.74-5.18
					c3.94-2.39,7.81-5.17,11.15-8.52c3.4-3.41,5.78-7.66,6.96-12.6c1.28-5.32,1.43-11.02,1.68-16.5c0.64-13.97,0.15-28-1.19-41.9
					c-1.34-13.86-3.52-27.61-6.31-41.19c-1.39-6.76-2.92-13.48-4.57-20.17c-1.34-5.41-2.68-10.86-4.92-15.91
					c-2.07-4.67-5.05-8.96-9.25-11.42c-4.71-2.76-10.17-2.94-15.36-2.42c-5.91,0.59-11.79,1.8-17.63,2.91
					c-5.89,1.12-11.76,2.33-17.62,3.65c-23.7,5.32-47.11,12.25-70.06,20.74c-22.81,8.43-45.17,18.4-66.91,29.83
					c-4.41,2.32-8.94,4.78-12.43,8.68c-3.58,4.01-5.43,9.34-5.79,14.95c-0.21,3.15,0.15,6.21,0.71,9.29c0.6,3.25,1.18,6.5,1.75,9.76
					c1.02,5.8,1.99,11.61,2.91,17.44c0.92,5.82,1.78,11.65,2.61,17.48c0.91,6.4,1.62,12.86,2.63,19.24
					c0.83,5.21,2.49,10.37,4.82,14.98c2.3,4.55,5.49,8.4,10.01,10.14c4.02,1.55,8.38,1.27,11.85-1.62
					c-0.27,0.02-0.54,0.04-0.81,0.07c0.49,1.07,0.98,2.14,1.47,3.22c0.38,0.82,1.59-0.91,1.24-1.68c-0.49-1.07-0.98-2.14-1.47-3.22
					c-0.17-0.37-0.63-0.09-0.81,0.07c-3.8,3.16-9.07,2.4-13-0.03c-4.17-2.57-6.82-7.21-8.73-11.96c-2.04-5.07-3.04-10.29-3.77-15.76
					c-0.82-6.13-1.66-12.26-2.54-18.38c-1.66-11.51-3.52-22.98-5.56-34.41c-1.11-6.23-2.66-12.39-1.45-18.76
					c1.11-5.82,4.31-10.01,8.72-13.15c4.47-3.17,9.45-5.48,14.25-7.92c5.37-2.74,10.78-5.38,16.22-7.94
					c10.82-5.08,21.78-9.8,32.85-14.16c22.13-8.71,44.72-15.97,67.61-21.72c11.51-2.89,23.11-5.4,34.76-7.53
					c5.55-1.01,11.17-2.24,16.8-2.39c5.2-0.14,10.44,0.91,14.59,4.63c3.66,3.29,5.98,8.11,7.65,12.92
					c1.96,5.65,3.28,11.59,4.66,17.44c3.09,13.1,5.7,26.34,7.59,39.72c1.91,13.51,3.09,27.16,3.29,40.83
					c0.1,6.83-0.04,13.67-0.46,20.48c-0.31,5.04-0.58,10.29-2.34,15c-1.72,4.58-4.97,7.91-8.48,10.77
					c-3.87,3.16-8.12,5.9-12.55,7.94c-4.75,2.19-9.78,2.65-14.84,3.33c-5.73,0.78-11.48,1.43-17.23,1.91
					c-11.36,0.94-22.76,1.11-34.14,0.59c-5.68-0.26-11.34-0.54-17.03-0.67c-5.65-0.13-11.31-0.21-16.96-0.5
					c-2.29-0.12-4.47-0.14-6.7,0.56c-2.08,0.65-4.03,1.73-5.85,3.01c-3.95,2.78-7.32,6.44-10.84,9.84
					c-4.42,4.26-9.2,8.08-13.82,12.06c-4.95,4.26-9.91,8.52-14.86,12.78c-4.83,4.16-9.67,8.31-14.5,12.47
					c0.3,0.11,0.61,0.22,0.91,0.33c-0.9-15.94-1.8-31.89-2.7-47.83C66.24,208.3,64.83,209.65,64.87,210.51L64.87,210.51z"/>
			</g>
		</g>
		<g>
			<g>
				<path class="st1" d="M246.29,248.93c0.78,0,1.54-2.04,0.69-2.04C246.2,246.89,245.44,248.93,246.29,248.93L246.29,248.93z"/>
			</g>
		</g>
	</g>
	<g id="Ebene_2_1_">
		<g>
			<g>
				<path d="M65.23,207.48c-3.91,0.51-7.98,0.79-11.84-0.27c-1.86-0.51-3.67-1.4-5.16-2.76c-1.68-1.53-2.93-3.7-3.95-5.82
					c-2.19-4.57-3.26-9.7-4.19-14.75c-1.08-5.91-2.11-11.84-3.16-17.76c-2.16-12.13-4.31-24.27-6.47-36.4
					c-1.78-10.01-4.25-22.05,1.92-30.85c2.66-3.79,6.35-6.48,10.12-8.69c4.2-2.46,8.61-4.48,12.97-6.54
					c9.66-4.56,19.45-8.76,29.33-12.67c19.64-7.77,39.64-14.37,59.77-20.34c20.1-5.97,40.35-11.32,60.6-16.59
					c4.89-1.27,9.8-2.81,14.79-3.53c4.72-0.68,9.61-0.28,13.66,2.75c7.2,5.39,9.91,16.07,12.49,24.76
					c6.56,22.14,10.74,45.16,12.39,68.4c0.8,11.17,1.15,22.47,0.61,33.67c-0.45,9.4-1.78,19.26-6.24,27.42
					c-4.66,8.54-12.53,13.23-21.02,15.53c-9.34,2.52-19.16,2.86-28.72,3.42c-20.42,1.2-40.85,1-61.28,0.5
					c-5.21-0.13-10.42-0.27-15.63-0.41c-0.78-0.02-1.55,2.02-0.69,2.04c21.31,0.57,42.63,1.22,63.95,0.51
					c10.45-0.35,20.96-0.84,31.36-2.08c8.74-1.05,17.76-3.11,25.01-8.99c15.09-12.25,15.16-36.03,14.84-54.79
					c-0.4-23.95-3.45-47.85-9.04-70.97c-1.42-5.86-3-11.67-4.74-17.42c-1.45-4.77-2.92-9.58-5.07-14.02
					c-1.91-3.94-4.45-7.65-7.94-9.99c-4.06-2.72-8.84-3-13.43-2.37c-5.13,0.71-10.18,2.31-15.2,3.62
					c-5.29,1.38-10.58,2.76-15.87,4.16c-10.51,2.78-21.01,5.62-31.47,8.59c-20.83,5.92-41.55,12.37-61.95,19.96
					c-10.21,3.8-20.34,7.89-30.35,12.33c-4.9,2.17-9.77,4.43-14.61,6.78c-4.19,2.04-8.43,4.06-12.29,6.83
					c-3.57,2.56-6.81,5.79-8.91,9.96c-2.3,4.57-2.99,9.85-2.81,15.03c0.19,5.52,1.26,10.94,2.21,16.34
					c1.11,6.24,2.22,12.47,3.33,18.71c2.18,12.24,4.15,24.56,6.56,36.74c0.99,5.01,2.28,10.05,4.74,14.43
					c2.24,3.99,5.29,6.49,9.43,7.46c3.79,0.89,7.74,0.58,11.56,0.08C65.63,209.39,66.26,207.34,65.23,207.48L65.23,207.48z"/>
			</g>
		</g>
		<g>
			<g>
				<path d="M64.24,197.79c0.36,7.97,0.65,15.94,0.94,23.92c0.31,8.53,0.61,17.06,0.93,25.59c0.16,4.3,0.34,8.6,0.53,12.89
					c0.02,0.43,0.35,0.76,0.73,0.47c9.23-7.04,18.26-14.38,27.08-22.05c9.08-7.9,17.94-16.14,26.41-24.85
					c4.52-4.66,8.92-9.46,13.15-14.44c0.26-0.31,0.52-1.03,0.25-1.42c-0.29-0.43-0.76,0-0.99,0.26
					c-7.57,8.92-15.71,17.23-24.09,25.18c-8.72,8.27-17.74,16.15-26.97,23.72c-4.9,4.02-9.86,7.94-14.88,11.77
					c0.24,0.16,0.49,0.32,0.73,0.47c-0.36-7.97-0.65-15.94-0.94-23.92c-0.31-8.53-0.61-17.06-0.93-25.59
					c-0.16-4.3-0.34-8.6-0.53-12.89c-0.02-0.48-0.35-0.69-0.73-0.47C64.54,196.65,64.22,197.29,64.24,197.79L64.24,197.79z"/>
			</g>
		</g>
		<g>
			<g>
				<path d="M265.22,169.34c-0.47,9.3-3.57,18.39-8.7,25.73c-5.28,7.55-12.65,13.01-20.86,15.7c-4.69,1.54-9.57,2.17-14.45,1.83
					c-0.77-0.05-1.56,1.98-0.69,2.04c9.04,0.63,18.19-2.03,25.85-7.43c7.57-5.34,13.45-13.3,16.92-22.51
					c1.94-5.16,3.08-10.67,3.36-16.25c0.03-0.5-0.38-0.67-0.73-0.47C265.49,168.22,265.25,168.83,265.22,169.34L265.22,169.34z"/>
			</g>
		</g>
	</g>
	<g id="Ebene_4">
		<g>
			<g>
				<path d="M99.36,88.47c-0.57,14.29-1.14,28.57-1.71,42.86c-0.57,14.29-1.14,28.57-1.71,42.86c-0.32,8.01-0.64,16.02-0.96,24.03
					c-0.04,1.07,3.94,1.17,3.99,0c0.57-14.29,1.14-28.57,1.71-42.86c0.57-14.29,1.14-28.57,1.71-42.86
					c0.32-8.01,0.64-16.02,0.96-24.03C103.39,87.4,99.4,87.3,99.36,88.47L99.36,88.47z"/>
			</g>
		</g>
		<g>
			<g>
				<path d="M152.13,88.49c-0.9,14.22-1.79,28.43-2.69,42.64s-1.79,28.43-2.69,42.64c-0.5,8-1.01,15.99-1.51,23.99
					c-0.07,1.04,3.91,1.19,3.99,0c0.9-14.22,1.79-28.43,2.69-42.64c0.9-14.22,1.79-28.43,2.69-42.64c0.5-8,1.01-15.99,1.51-23.99
					C156.18,87.45,152.2,87.3,152.13,88.49L152.13,88.49z"/>
			</g>
		</g>
		<g>
			<g>
				<path d="M101.56,144c12.39-0.65,24.82-0.6,37.19,0.21c3.51,0.23,7.02,0.52,10.53,0.86c0.5,0.05,1.04,0.04,1.54-0.08
					c0.21-0.05,0.79-0.19,0.92-0.47c0.34-0.72-1.06-0.93-1.39-0.96c-12.66-1.25-25.38-1.76-38.09-1.51
					c-3.56,0.07-7.12,0.2-10.68,0.39c-0.44,0.02-1.96,0.01-1.99,0.78C99.53,143.93,101.25,144.01,101.56,144L101.56,144z"/>
			</g>
		</g>
		<g>
			<g>
				<path d="M177.71,142.88c-0.79,14.78-1.58,29.57-2.37,44.35c-0.22,4.14-0.44,8.28-0.66,12.42c-0.06,1.05,3.93,1.18,3.99,0
					c0.79-14.78,1.58-29.57,2.37-44.35c0.22-4.14,0.44-8.28,0.66-12.42C181.76,141.83,177.77,141.7,177.71,142.88L177.71,142.88z"/>
			</g>
		</g>
		<g>
			<g>
				<path d="M182.78,114.02c-1.82-2.1-5.32-2.07-7.55-0.9c-1.96,1.03-3.11,3.27-3.66,5.53c-0.51,2.11-0.45,4.39,0.38,6.38
					c0.91,2.18,2.83,3.45,4.9,3.86c4.64,0.92,9.51-1.24,11.77-5.97c1.87-3.92,1.88-8.85-0.4-12.57c-2.95-4.81-8.54-6.46-13.48-5.55
					c-0.47,0.09-1.4,0.52-0.72,1.07c0.7,0.56,1.95,0.42,2.73,0.28c-0.25,0.05,0.2-0.02,0.27-0.03c0.38-0.05-0.16-0.02,0.22-0.02
					c0.09,0,0.19,0,0.28,0c0.32,0-0.29-0.03,0.03,0c0.22,0.02,0.44,0.04,0.65,0.07c-0.26-0.04,0.19,0.04,0.26,0.06
					c0.18,0.04,0.37,0.09,0.55,0.14c0.18,0.06,0.72,0.27,1.02,0.41c1.4,0.65,2.66,1.71,3.65,2.99c2.14,2.77,2.77,6.51,2,10.04
					c-0.72,3.3-2.87,6.6-5.84,7.56c-0.09,0.03-0.32,0.08-0.46,0.12c-0.21,0.05-0.04,0.02,0,0.01c-0.09,0.02-0.19,0.02-0.28,0.04
					c-0.23,0.03,0.01,0.01,0.06,0.01c-0.09,0-0.19,0-0.28,0c-0.24,0,0.03,0.01,0.06,0c-0.06-0.01-0.12-0.01-0.19-0.02
					c0.14,0.03,0.14,0.03,0.02,0c-0.5-0.1-1.15-0.43-1.65-0.9c-1.22-1.15-1.77-2.91-1.87-4.65c-0.11-2.01,0.32-4.1,1.27-5.82
					c0.48-0.86,1.13-1.75,1.98-2.16c0.15-0.07,0.18-0.03,0.25-0.08c0.14-0.09,0.07,0.01-0.02,0.01c-0.07,0-0.3-0.02-0.38,0.01
					c-0.15,0.05-0.09-0.05,0.07,0.07c0.19,0.14,0.35,0.25,0.51,0.44c0.56,0.65,1.71,0.63,2.45,0.55
					C181.61,114.95,183.29,114.61,182.78,114.02L182.78,114.02z"/>
			</g>
		</g>
	</g>
	<g id="Ebene_5">
		<g>
			<path class="st3" d="M145.86,219.58c-1.64,1.81-3.27,3.63-4.9,5.44c3.28-0.78,6.84,2.35,6.93,6.1c-1.01-3.58,0.69-7.86,3.75-9.42
				c-2.35,1.12-5.39-0.2-6.45-2.8"/>
			<g>
				<path d="M145.66,218.81c-1.64,1.81-3.27,3.63-4.9,5.44c-0.28,0.31-0.55,0.76-0.52,1.22c0.02,0.36,0.21,0.63,0.55,0.56
					c2.99-0.65,6.24,2.12,6.39,5.55c0.47-0.37,0.94-0.74,1.41-1.11c-0.83-3.1,0.45-6.45,3.08-7.83c0.39-0.2,0.67-0.79,0.7-1.24
					c0.02-0.32-0.14-0.86-0.54-0.68c-2.27,1.02-4.94-0.18-6.01-2.64c-0.21-0.48-0.81,0.03-0.99,0.26c-0.3,0.39-0.46,0.95-0.25,1.42
					c1.2,2.77,4.36,4.1,6.9,2.96c0.05-0.64,0.1-1.28,0.16-1.92c-3.53,1.86-5.56,6.81-4.43,11c0.12,0.44,0.51,0.4,0.8,0.18
					c0.35-0.26,0.63-0.81,0.61-1.29c-0.17-4.17-3.8-7.46-7.48-6.66c0.01,0.59,0.02,1.19,0.03,1.78c1.64-1.81,3.27-3.63,4.9-5.44
					c0.31-0.34,0.65-0.92,0.5-1.44C146.41,218.45,145.94,218.5,145.66,218.81L145.66,218.81z"/>
			</g>
		</g>
		<g>
			<path class="st4" d="M254,20.54c-0.8,3.09-2.78,5.78-5.34,7.26c3.29,0.61,6.13,3.55,6.94,7.17c-1.15-1.52-1.38-3.83-0.56-5.6
				c0.83-1.76,2.66-2.87,4.44-2.66c-2.46-1.01-4.57-3.07-5.79-5.67"/>
			<g>
				<path d="M253.37,20.48c-0.75,2.79-2.42,5.04-4.72,6.41c-0.43,0.26-1.19,1.77-0.33,1.94c3.15,0.63,5.78,3.36,6.59,6.81
					c0.44-0.5,0.87-1.01,1.31-1.51c-0.89-1.23-1.31-3.05-0.61-4.51c0.66-1.39,2.19-2,3.53-1.88c0.62,0.06,1.58-1.67,0.84-1.99
					c-2.44-1.03-4.43-2.97-5.67-5.55c-0.39-0.82-1.61,0.91-1.24,1.68c1.27,2.66,3.39,4.73,5.91,5.8c0.28-0.66,0.56-1.32,0.84-1.99
					c-4.61-0.41-7.79,6.05-4.84,10.12c0.59,0.82,1.45-0.91,1.31-1.51c-0.9-3.84-3.79-6.83-7.28-7.52c-0.11,0.65-0.22,1.29-0.33,1.94
					c2.85-1.69,5.03-4.66,5.96-8.11c0.1-0.37,0.18-1-0.29-1.09C253.92,19.44,253.47,20.09,253.37,20.48L253.37,20.48z"/>
			</g>
		</g>
		<g>
			<path class="st5" d="M58.15,44.78c0.42,4.47-1.85,9.11-5.45,11.13c3.65-1.01,7.79,1.61,8.91,5.62c-1.42-3.77,0.4-8.64,3.8-10.16
				c-3.39-0.82-6.43-3.32-8.13-6.71"/>
			<g>
				<path d="M57.43,45.22c0.34,4.03-1.52,7.91-4.74,9.77c-0.38,0.22-0.67,0.77-0.7,1.24c-0.02,0.38,0.13,0.79,0.54,0.68
					c3.46-0.9,7.28,1.5,8.38,5.28c0.46-0.44,0.92-0.89,1.38-1.33c-1.2-3.32,0.14-7.18,3.12-8.58c0.5-0.23,1.14-1.74,0.33-1.94
					c-3.31-0.83-6.17-3.24-7.86-6.53c-0.42-0.82-1.63,0.92-1.24,1.68c1.8,3.51,4.88,6,8.41,6.88c0.11-0.65,0.22-1.29,0.33-1.94
					c-3.84,1.79-6.05,7.4-4.47,11.74c0.39,1.08,1.61-0.56,1.38-1.33c-1.26-4.31-5.48-6.98-9.43-5.96c-0.05,0.64-0.1,1.28-0.16,1.92
					c4-2.31,6.57-7.47,6.15-12.5C58.76,43.01,57.36,44.37,57.43,45.22L57.43,45.22z"/>
			</g>
		</g>
		<g>
			<path class="st6" d="M233.84,222.3c-0.17-1.01-0.39-2.05-0.96-2.86c-0.57-0.81-1.58-1.31-2.43-0.91
				c-1.07,0.5-1.33,2.16-0.89,3.36c0.43,1.2,1.34,2.1,2.1,3.07s1.44,2.21,1.26,3.49c2.07-1.33,3.97-3,5.62-4.92
				c0.51-0.59,1.02-1.28,1.07-2.1c0.08-1.45-1.42-2.5-2.71-2.32c-1.29,0.17-2.36,1.15-3.35,2.09"/>
			<g>
				<path d="M234.53,221.64c-0.28-1.63-0.79-3.49-2.35-4.1c-1.44-0.56-2.75,0.53-3.27,2c-0.55,1.56-0.2,3.14,0.68,4.44
					c0.89,1.32,2.82,2.79,2.63,4.67c-0.05,0.51,0.18,1.07,0.71,0.72c1.59-1.04,3.1-2.25,4.48-3.63c1.22-1.23,2.87-2.77,2.92-4.76
					c0.04-1.6-1.22-2.77-2.58-2.9c-1.7-0.17-3.19,1.2-4.4,2.34c-0.33,0.31-0.64,0.95-0.5,1.44c0.15,0.49,0.6,0.38,0.89,0.11
					c0.9-0.85,1.98-1.93,3.24-1.86c0.74,0.04,2.23,0.8,1.87,1.89c-0.18,0.54-0.72,1-1.07,1.39c-0.47,0.51-0.95,1-1.46,1.47
					c-1.07,1-2.21,1.88-3.41,2.66c0.24,0.24,0.47,0.48,0.71,0.72c0.15-1.46-0.31-2.72-1.13-3.85c-0.79-1.08-1.95-2.05-2.32-3.44
					c-0.09-0.34-0.19-0.94,0-1.27c0.24-0.41,0.85-0.3,1.19-0.16c1.24,0.54,1.56,2.12,1.79,3.43c0.09,0.53,0.63,0.34,0.89,0.11
					C234.4,222.75,234.62,222.16,234.53,221.64L234.53,221.64z"/>
			</g>
		</g>
		<g>
			<path class="st7" d="M19.4,166.2c0-1.34-0.88-2.62-2.04-2.96c-1.16-0.34-2.49,0.3-3.07,1.47c-1.14,2.3,0.7,5.05,2.64,6.55
				s4.32,2.93,4.78,5.51c1.1-3.39,2.13-6.81,3.07-10.25c0.51-1.85,0.77-4.37-0.77-5.27c-1.04-0.61-2.38,0.02-3.1,1.06
				c-0.71,1.04-0.95,2.39-1.14,3.68"/>
			<g>
				<path d="M20.12,165.75c-0.07-2.3-1.93-4.15-4-3.48c-1.99,0.65-3.2,3.05-2.81,5.29c0.4,2.28,2.11,3.91,3.75,5.13
					c1.61,1.2,3.51,2.48,3.96,4.74c0.2,0.97,1.19-0.2,1.32-0.6c0.86-2.66,1.68-5.33,2.45-8.02c0.58-2.03,1.39-4.25,1.01-6.41
					c-0.35-2.03-2.09-2.91-3.73-2.04c-2.01,1.05-2.65,3.59-2.99,5.83c-0.07,0.42,0.08,0.89,0.53,0.8c0.45-0.09,0.8-0.75,0.87-1.2
					c0.23-1.5,0.53-3.64,2.24-3.76c1.49-0.1,1.85,1.64,1.71,2.95c-0.19,1.82-0.87,3.63-1.38,5.36c-0.62,2.13-1.28,4.25-1.97,6.35
					c0.44-0.2,0.88-0.4,1.32-0.6c-0.75-3.76-4.51-4.72-6.52-7.36c-0.77-1.01-2.02-3.25-0.58-4.23c1.44-0.99,3.32,0.31,3.38,2.13
					c0.02,0.49,0.35,0.68,0.73,0.47C19.82,166.89,20.14,166.25,20.12,165.75L20.12,165.75z"/>
			</g>
		</g>
		<g>
			<path class="st8" d="M204.03,22.6c0.98-1.09,0.12-3.26-1.25-3.48c-1.37-0.21-2.66,1.17-2.83,2.71c-0.18,1.53,0.55,3.06,1.56,4.11
				c1.01,1.05,2.29,1.72,3.55,2.36c0.68-1.82,2.4-2.81,3.61-4.24c1.21-1.43,1.72-4.15,0.18-5.1c-0.94-0.57-2.16-0.08-2.88,0.8
				c-0.72,0.88-1.05,2.06-1.36,3.21"/>
			<g>
				<path d="M204.4,23.18c1.04-1.29,1.03-3.36-0.18-4.51c-1.31-1.25-3.13-0.28-4.05,1.04c-1.16,1.66-1.22,3.81-0.31,5.62
					c1,1.99,2.93,3.03,4.7,3.95c0.52,0.27,0.96-0.47,1.13-0.9c0.32-0.79,0.97-1.37,1.54-1.92c0.66-0.62,1.34-1.22,1.91-1.94
					c0.97-1.24,1.62-3.13,1.3-4.79c-0.35-1.79-1.99-2.4-3.41-1.72c-1.78,0.85-2.54,2.97-3.07,4.9c-0.1,0.37-0.18,1,0.29,1.09
					c0.43,0.08,0.87-0.57,0.97-0.95c0.36-1.3,0.75-3.08,2.19-3.28c1.2-0.17,1.84,1.03,1.6,2.22c-0.25,1.22-1.14,1.95-1.96,2.71
					c-1.09,1.02-2.06,2.08-2.65,3.55c0.38-0.3,0.75-0.6,1.13-0.9c-1.18-0.61-2.39-1.23-3.38-2.19c-0.85-0.84-1.65-2.18-1.53-3.52
					c0.1-1.04,1.11-1.77,2.01-1.43c0.4,0.15,0.73,0.53,0.91,0.94c0.09,0.21,0.11,0.42,0.16,0.64c0.01,0.05,0,0.12-0.01,0.18
					c-0.01,0.03,0.18-0.24-0.06,0.06c-0.26,0.32-0.52,1.03-0.25,1.42C203.7,23.87,204.18,23.46,204.4,23.18L204.4,23.18z"/>
			</g>
		</g>
	</g>
	<g id="Ebene_7">
		<g>
			<path class="st9" d="M212.63,213.27c-1.02,2.03-1.78,3.92-2.8,5.95c-2.7,0.3-3.89,0.3-6.02,0.76c2.08,1.56,3.62,1.88,5.69,3.44
				c-0.27,2.69-0.41,4.33-0.67,7.02c1.47-1.67,2.87-2.59,4.34-4.25c2.57,1.83,3.01,2.13,5.15,3.52c-0.65-2.37-1.1-3.93-1.75-6.29
				c1.53-1.44,2.53-2.36,4.06-3.8c-2.28-0.05-3.76-0.17-6.04-0.21c-0.59-2.04-1.37-4.3-1.96-6.33"/>
			<g>
				<path d="M212.11,212.94c-0.98,1.96-1.82,3.99-2.8,5.95c0.23-0.22,0.46-0.45,0.69-0.67c-2.01,0.22-4.03,0.34-6.02,0.76
					c-0.57,0.12-1.29,1.5-0.67,1.97c1.81,1.34,3.88,2.1,5.69,3.44c-0.07-0.26-0.13-0.51-0.2-0.77c-0.23,2.34-0.44,4.68-0.67,7.02
					c-0.07,0.65,0.39,1.14,0.89,0.58c1.36-1.52,2.97-2.73,4.34-4.25c-0.23,0.06-0.46,0.13-0.69,0.19c1.7,1.21,3.41,2.39,5.15,3.52
					c0.67,0.44,1.35-1.06,1.19-1.63c-0.58-2.1-1.17-4.19-1.75-6.29c-0.16,0.48-0.33,0.96-0.5,1.44c1.35-1.27,2.71-2.53,4.06-3.8
					c0.28-0.27,0.95-1.78,0.15-1.8c-2.01-0.04-4.03-0.17-6.04-0.21c0.12,0.12,0.23,0.24,0.35,0.36c-0.62-2.12-1.34-4.21-1.96-6.33
					c-0.31-1.08-1.62,0.53-1.38,1.33c0.62,2.12,1.34,4.21,1.96,6.33c0.05,0.17,0.17,0.35,0.35,0.36c2.01,0.04,4.03,0.17,6.04,0.21
					c0.05-0.6,0.1-1.2,0.15-1.8c-1.35,1.27-2.71,2.53-4.06,3.8c-0.33,0.31-0.63,0.95-0.5,1.44c0.58,2.1,1.17,4.19,1.75,6.29
					c0.4-0.54,0.79-1.09,1.19-1.63c-1.74-1.14-3.45-2.32-5.15-3.52c-0.21-0.15-0.54,0.01-0.69,0.19c-1.36,1.52-2.97,2.73-4.34,4.25
					c0.3,0.19,0.6,0.39,0.89,0.58c0.23-2.34,0.44-4.68,0.67-7.02c0.03-0.28,0.04-0.59-0.2-0.77c-1.81-1.34-3.88-2.1-5.69-3.44
					c-0.22,0.66-0.45,1.31-0.67,1.97c1.86-0.39,3.75-0.51,5.64-0.72c1.19-0.13,1.65-1.9,2.13-2.95c0.57-1.24,1.13-2.49,1.74-3.71
					c0.17-0.34,0.37-1.05-0.02-1.3C212.74,212.05,212.28,212.61,212.11,212.94L212.11,212.94z"/>
			</g>
		</g>
		<g>
			<path class="st9" d="M48.81,222.64c-1.02,2.03-1.78,3.92-2.8,5.95c-2.7,0.3-3.89,0.3-6.02,0.76c2.08,1.56,3.62,1.88,5.69,3.44
				c-0.27,2.69-0.41,4.33-0.67,7.02c1.47-1.67,2.87-2.59,4.34-4.25c2.57,1.83,3.01,2.13,5.15,3.52c-0.65-2.37-1.1-3.93-1.75-6.29
				c1.53-1.44,2.53-2.36,4.06-3.8c-2.28-0.05-3.76-0.17-6.04-0.21c-0.59-2.04-1.37-4.3-1.96-6.33"/>
			<g>
				<path d="M48.29,222.3c-0.98,1.96-1.82,3.99-2.8,5.95c0.23-0.22,0.46-0.45,0.69-0.67c-2.01,0.22-4.03,0.34-6.02,0.76
					c-0.57,0.12-1.29,1.5-0.67,1.97c1.81,1.34,3.88,2.1,5.69,3.44c-0.07-0.26-0.13-0.51-0.2-0.77c-0.23,2.34-0.44,4.68-0.67,7.02
					c-0.07,0.65,0.39,1.14,0.89,0.58c1.36-1.52,2.97-2.73,4.34-4.25c-0.23,0.06-0.46,0.13-0.69,0.19c1.7,1.21,3.41,2.39,5.15,3.52
					c0.67,0.44,1.35-1.06,1.19-1.63c-0.58-2.1-1.17-4.19-1.75-6.29c-0.16,0.48-0.33,0.96-0.5,1.44c1.35-1.27,2.71-2.53,4.06-3.8
					c0.28-0.27,0.95-1.78,0.15-1.8c-2.01-0.04-4.03-0.17-6.04-0.21c0.12,0.12,0.23,0.24,0.35,0.36c-0.62-2.12-1.34-4.21-1.96-6.33
					c-0.31-1.08-1.62,0.53-1.38,1.33c0.62,2.12,1.34,4.21,1.96,6.33c0.05,0.17,0.17,0.35,0.35,0.36c2.01,0.04,4.03,0.17,6.04,0.21
					c0.05-0.6,0.1-1.2,0.15-1.8c-1.35,1.27-2.71,2.53-4.06,3.8c-0.33,0.31-0.63,0.95-0.5,1.44c0.58,2.1,1.17,4.19,1.75,6.29
					c0.4-0.54,0.79-1.09,1.19-1.63c-1.74-1.14-3.45-2.32-5.15-3.52c-0.21-0.15-0.54,0.01-0.69,0.19c-1.36,1.52-2.97,2.73-4.34,4.25
					c0.3,0.19,0.6,0.39,0.89,0.58c0.23-2.34,0.44-4.68,0.67-7.02c0.03-0.28,0.04-0.59-0.2-0.77c-1.81-1.34-3.88-2.1-5.69-3.44
					c-0.22,0.66-0.45,1.31-0.67,1.97c1.86-0.39,3.75-0.51,5.64-0.72c1.19-0.13,1.65-1.9,2.13-2.95c0.57-1.24,1.13-2.49,1.74-3.71
					c0.17-0.34,0.37-1.05-0.02-1.3C48.92,221.42,48.45,221.97,48.29,222.3L48.29,222.3z"/>
			</g>
		</g>
		<g>
			<path class="st9" d="M259.87,44.6c-1.02,2.03-1.78,3.92-2.8,5.95c-2.7,0.3-3.89,0.3-6.02,0.76c2.08,1.56,3.62,1.88,5.69,3.44
				c-0.27,2.69-0.41,4.33-0.67,7.02c1.47-1.67,2.87-2.59,4.34-4.25c2.57,1.83,3.01,2.13,5.15,3.52c-0.65-2.37-1.1-3.93-1.75-6.29
				c1.53-1.44,2.53-2.36,4.06-3.8c-2.28-0.05-3.76-0.17-6.04-0.21c-0.59-2.04-1.37-4.3-1.96-6.33"/>
			<g>
				<path d="M259.36,44.26c-0.98,1.96-1.82,3.99-2.8,5.95c0.23-0.22,0.46-0.45,0.69-0.67c-2.01,0.22-4.03,0.34-6.02,0.76
					c-0.57,0.12-1.29,1.5-0.67,1.97c1.81,1.34,3.88,2.1,5.69,3.44c-0.07-0.26-0.13-0.51-0.2-0.77c-0.23,2.34-0.44,4.68-0.67,7.02
					c-0.07,0.65,0.39,1.14,0.89,0.58c1.36-1.52,2.97-2.73,4.34-4.25c-0.23,0.06-0.46,0.13-0.69,0.19c1.7,1.21,3.41,2.39,5.15,3.52
					c0.67,0.44,1.35-1.06,1.19-1.63c-0.58-2.1-1.17-4.19-1.75-6.29c-0.16,0.48-0.33,0.96-0.5,1.44c1.35-1.27,2.71-2.53,4.06-3.8
					c0.28-0.27,0.95-1.78,0.15-1.8c-2.01-0.04-4.03-0.17-6.04-0.21c0.12,0.12,0.23,0.24,0.35,0.36c-0.62-2.12-1.34-4.21-1.96-6.33
					c-0.31-1.08-1.62,0.53-1.38,1.33c0.62,2.12,1.34,4.21,1.96,6.33c0.05,0.17,0.17,0.35,0.35,0.36c2.01,0.04,4.03,0.17,6.04,0.21
					c0.05-0.6,0.1-1.2,0.15-1.8c-1.35,1.27-2.71,2.53-4.06,3.8c-0.33,0.31-0.63,0.95-0.5,1.44c0.58,2.1,1.17,4.19,1.75,6.29
					c0.4-0.54,0.79-1.09,1.19-1.63c-1.74-1.14-3.45-2.32-5.15-3.52c-0.21-0.15-0.54,0.01-0.69,0.19c-1.36,1.52-2.97,2.73-4.34,4.25
					c0.3,0.19,0.6,0.39,0.89,0.58c0.23-2.34,0.44-4.68,0.67-7.02c0.03-0.28,0.04-0.59-0.2-0.77c-1.81-1.34-3.88-2.1-5.69-3.44
					c-0.22,0.66-0.45,1.31-0.67,1.97c1.86-0.39,3.75-0.51,5.64-0.72c1.19-0.13,1.65-1.9,2.13-2.95c0.57-1.24,1.13-2.49,1.74-3.71
					c0.17-0.34,0.37-1.05-0.02-1.3C259.98,43.38,259.52,43.94,259.36,44.26L259.36,44.26z"/>
			</g>
		</g>
		<g>
			<path class="st9" d="M105.79,38.71c-1.02,2.03-1.78,3.92-2.8,5.95c-2.7,0.3-3.89,0.3-6.02,0.76c2.08,1.56,3.62,1.88,5.69,3.44
				c-0.27,2.69-0.41,4.33-0.67,7.02c1.47-1.67,2.87-2.59,4.34-4.25c2.57,1.83,3.01,2.13,5.15,3.52c-0.65-2.37-1.1-3.93-1.75-6.29
				c1.53-1.44,2.53-2.36,4.06-3.8c-2.28-0.05-3.76-0.17-6.04-0.21c-0.59-2.04-1.37-4.3-1.96-6.33"/>
			<g>
				<path d="M105.27,38.37c-0.98,1.96-1.82,3.99-2.8,5.95c0.23-0.22,0.46-0.45,0.69-0.67c-2.01,0.22-4.03,0.34-6.02,0.76
					c-0.57,0.12-1.29,1.5-0.67,1.97c1.81,1.34,3.88,2.1,5.69,3.44c-0.07-0.26-0.13-0.51-0.2-0.77c-0.23,2.34-0.44,4.68-0.67,7.02
					c-0.07,0.65,0.39,1.14,0.89,0.58c1.36-1.52,2.97-2.73,4.34-4.25c-0.23,0.06-0.46,0.13-0.69,0.19c1.7,1.21,3.41,2.39,5.15,3.52
					c0.67,0.44,1.35-1.06,1.19-1.63c-0.58-2.1-1.17-4.19-1.75-6.29c-0.16,0.48-0.33,0.96-0.5,1.44c1.35-1.27,2.71-2.53,4.06-3.8
					c0.28-0.27,0.95-1.78,0.15-1.8c-2.01-0.04-4.03-0.17-6.04-0.21c0.12,0.12,0.23,0.24,0.35,0.36c-0.62-2.12-1.34-4.21-1.96-6.33
					c-0.31-1.08-1.62,0.53-1.38,1.33c0.62,2.12,1.34,4.21,1.96,6.33c0.05,0.17,0.17,0.35,0.35,0.36c2.01,0.04,4.03,0.17,6.04,0.21
					c0.05-0.6,0.1-1.2,0.15-1.8c-1.35,1.27-2.71,2.53-4.06,3.8c-0.33,0.31-0.63,0.95-0.5,1.44c0.58,2.1,1.17,4.19,1.75,6.29
					c0.4-0.54,0.79-1.09,1.19-1.63c-1.74-1.14-3.45-2.32-5.15-3.52c-0.21-0.15-0.54,0.01-0.69,0.19c-1.36,1.52-2.97,2.73-4.34,4.25
					c0.3,0.19,0.6,0.39,0.89,0.58c0.23-2.34,0.44-4.68,0.67-7.02c0.03-0.28,0.04-0.59-0.2-0.77c-1.81-1.34-3.88-2.1-5.69-3.44
					c-0.22,0.66-0.45,1.31-0.67,1.97c1.86-0.39,3.75-0.51,5.64-0.72c1.19-0.13,1.65-1.9,2.13-2.95c0.57-1.24,1.13-2.49,1.74-3.71
					c0.17-0.34,0.37-1.05-0.02-1.3C105.9,37.49,105.44,38.04,105.27,38.37L105.27,38.37z"/>
			</g>
		</g>
	</g>
	<g id="Ebene_9">
		<g>
			<g>
				<path d="M34,76.53c-0.59-1.58-2.3-2.05-3.61-1.24c-1.56,0.97-2.22,3.29-1.81,5.17c0.38,1.75,1.8,3.1,3.38,3.36
					c1.61,0.26,3.09-0.78,3.83-2.36c0.79-1.7,0.83-3.89-0.54-5.21c-0.42-0.41-1.03,0.61-1.13,0.9c-0.68,2.01,0.53,4.53,2.6,4.48
					c2.03-0.05,3.61-2.27,3.91-4.37c0.7-4.85-3.84-8.29-7.68-8.45c-3.95-0.17-7.5,2.48-8.86,6.64c-1.29,3.98-0.55,8.85,2.53,11.54
					c3.36,2.94,8.53,2.52,11.59-0.71c0.32-0.33,0.65-0.93,0.5-1.44c-0.14-0.48-0.61-0.41-0.89-0.11c-2.17,2.29-5.57,2.79-8.3,1.55
					c-2.84-1.28-4.58-4.31-4.61-7.71c-0.03-3.3,1.61-6.24,4.47-7.27c2.78-1.01,6.17-0.34,8.24,2.06c1.13,1.31,2.48,3.97,1.05,5.58
					c-0.58,0.65-1.46,0.84-2.2,0.43c-0.6-0.34-1.37-1.25-1.1-2.08c-0.38,0.3-0.75,0.6-1.13,0.9c0.71,0.69,0.92,2.09,0.32,2.95
					c-0.76,1.09-2.32,0.73-3.22,0.09c-0.98-0.7-1.88-2.29-1.32-3.61c0.47-1.11,2.2-0.77,2.58,0.25C33.02,78.93,34.29,77.3,34,76.53
					L34,76.53z"/>
			</g>
		</g>
		<g>
			<g>
				<path d="M263.71,134.28c0.78,0,1.54-2.04,0.69-2.04C263.62,132.24,262.85,134.28,263.71,134.28L263.71,134.28z"/>
			</g>
		</g>
		<g>
			<g>
				<path d="M263.29,134.67c-0.36,3.26-0.73,6.52-1.09,9.78c-0.16,1.45,1.29,0.56,1.4-0.4c0.36-3.26,0.73-6.52,1.09-9.78
					C264.85,132.83,263.39,133.71,263.29,134.67L263.29,134.67z"/>
			</g>
		</g>
		<g>
			<g>
				<path d="M266.54,134.67c-0.37,3.39-0.75,6.79-1.12,10.19c-0.16,1.45,1.29,0.56,1.4-0.4c0.37-3.39,0.75-6.79,1.12-10.19
					C268.1,132.83,266.65,133.71,266.54,134.67L266.54,134.67z"/>
			</g>
		</g>
		<g>
			<g>
				<path d="M262.97,137.18c2.06,0.54,4.13,1.09,6.19,1.63c0.74,0.19,1.58-1.81,0.69-2.04c-2.06-0.54-4.13-1.09-6.19-1.63
					C262.92,134.95,262.08,136.95,262.97,137.18L262.97,137.18z"/>
			</g>
		</g>
		<g>
			<g>
				<path d="M262.12,141.12c1.78,1.3,3.83,2.06,5.96,2.21c0.77,0.06,1.56-1.98,0.69-2.04c-2.03-0.14-3.94-0.85-5.65-2.1
					C262.44,138.69,261.42,140.61,262.12,141.12L262.12,141.12z"/>
			</g>
		</g>
	</g>
</g>
</svg>
