<?xml version="1.0" encoding="utf-8"?>
<!-- Generator: Adobe Adobe Illustrator 24.2.0, SVG Export Plug-In . SVG Version: 6.00 Build 0)  -->
<svg version="1.1" xmlns="http://www.w3.org/2000/svg" xmlns:xlink="http://www.w3.org/1999/xlink" x="0px" y="0px"
	 viewBox="0 0 2000 2000" style="enable-background:new 0 0 2000 2000;" xml:space="preserve">
<style type="text/css">
	.st0{fill:#ECC9AD;}
	.st1{opacity:0.1608;}
	.st2{opacity:0.1686;}
	.st3{fill:#FFFFFF;}
</style>
<g id="Ebene_8">
</g>
<g id="Ebene_4">
	<g>
		<path class="st0" d="M765.28,1447.81c269.23,285.98,401.65,274.12,594.49,182.34c416.68-198.34,220.65-539.25,220.65-623.19
			c0-115.05-2.28-212.39,42.2-307.57c19.86-42.5,44.66-95.6,14.98-131.94c-15.82-19.37-42.83-26.01-67.84-25.41
			c-57.08,1.38-112.03,36.86-136.78,88.3c-19.89,41.33-20.63,88.97-32.07,133.38c-11.44,44.41-40.34,90.68-85.73,97.26
			c-51.66,7.49-93.93-38.42-125.77-79.78C854.46,346.06,857.14,342.52,821.66,321c-25.02-15.18-58.48-20.12-83.22-4.49
			c-27.16,17.15-35.99,54.19-29.32,85.62c8.85,41.72,334.13,427.89,303.03,451.62c-36.53,27.87-248.61-280.35-374.24-422.16
			c-23.59-26.63-50.04-52.57-83.54-64.56c-33.5-11.99-75.65-6.38-97.42,21.76c-18.39,23.79-18.12,57.95-7.05,85.91
			s31.33,51.11,51.21,73.67c394.62,447.77,389.29,467.84,370.74,477.2c-31.19,15.74-145.69-140.24-337.4-348.02
			c-20.89-22.64-42.78-45.98-71.43-57.3c-28.65-11.32-66.08-6.74-83.45,18.69c-20.23,29.62-4.96,70.01,13.73,100.63
			c112.16,183.8,431.74,465.73,408.45,494.86c-38.14,47.72-320.82-296.62-390.95-208.87c-48.39,60.54,176.94,261.8,354.13,425.97"/>
		<g>
			<path d="M759.98,1453.12c68.18,72.33,141.88,144.4,228.88,193.93c56.02,31.89,118.54,51.88,183.52,48.19
				c62.4-3.54,121.58-26.33,177.74-52.31c79.79-36.9,156.28-85.53,210.51-155.99c40.24-52.28,64.36-114.32,71.2-179.84
				c5.79-55.39-0.69-111.33-12.54-165.52c-8.61-39.37-21.94-77.77-29.42-117.36c-0.29-1.55-0.57-3.09-0.82-4.65
				c-0.14-0.87-0.27-1.74-0.4-2.61c-0.11-0.72,0.09,1.02-0.13-1.01c-0.29-2.72-0.53-5.43-0.59-8.16
				c-0.59-27.78-0.17-55.69,0.32-83.47c0.95-53.66,4.4-107.67,18.52-159.68c7.04-25.91,17.25-50.15,28.37-74.51
				c10.57-23.15,20.76-47.21,23.23-72.78c2.28-23.66-4.91-48-23.74-63.45c-19.02-15.61-44.69-20.43-68.75-19.21
				c-48.09,2.44-93.87,27.38-123.04,65.5c-34.63,45.25-35.13,102.65-47.76,155.88c-9.81,41.35-35.36,92.33-82.82,97.78
				c-50.05,5.75-89.01-41.12-116.36-76.43c-62.18-80.27-123.73-161.03-185.48-241.62c-34.29-44.75-68.47-89.58-103.17-134.01
				c-15.91-20.37-31.71-41.04-49.15-60.15c-7.96-8.72-16.49-16.74-26.4-23.21c-21.98-14.38-48.56-22.74-74.85-17.28
				c-44.8,9.29-66.58,62.25-54.74,103.89c3.51,12.32,12.35,23.84,19.38,34.3c13.12,19.53,27.06,38.52,41.05,57.43
				c37.84,51.16,76.64,101.61,114.74,152.58c35.26,47.16,70.84,94.45,102.33,144.25c5.5,8.7,10.86,17.5,15.79,26.54
				c1.98,3.64,3.9,7.31,5.68,11.05c2.08,4.37,2.01,4.1,3.43,8.05c0.89,2.46,1.56,4.93,2.13,7.48c0.43,1.94-0.02-0.86,0-0.14
				c0.01,0.42-0.01,0.99,0.09,1.38c0.1,0.39-0.04,0.86-0.03,1.27c0.01,0.63,0.72-1.99,0.04-0.5c-0.87,1.93,1.1-1.4-0.11,0.21
				c0.36-0.48,1.02-1.83,0.51-0.76c1.45-3.05,0.56,0.58,0-0.15c0.08,0.1,0.99-0.88,0.16-0.11c-0.61,0.55-1.32,0.37,0.36,0.04
				c-0.5,0.1-1.27,0.13-1.77,0.04c-1.87-0.31,1.65,0.46-0.3-0.02c-1.29-0.32-2.54-0.67-3.8-1.1c-1.77-0.61,0.58,0.31-0.5-0.2
				c-0.9-0.42-1.78-0.86-2.66-1.32c-3.51-1.86-6.8-4.11-10-6.46c-7.32-5.38-16.3-13.73-23.68-21
				c-22.54-22.2-43.16-46.37-63.42-70.64c-53.13-63.61-103.37-129.59-154.67-194.66c-24.68-31.31-49.51-62.51-75.11-93.08
				c-28.86-34.45-58.66-72.62-99.68-93.02c-40.64-20.21-98.41-18.55-125.05,23.39c-13.34,21-14.8,47.67-9.21,71.39
				c6.22,26.4,21.89,49.35,38.8,70.06c19.02,23.29,39.53,45.43,59.36,68.03c18.83,21.46,37.63,42.95,56.37,64.48
				c31.42,36.08,62.71,72.28,93.76,108.68c41.28,48.4,82.36,97.03,121.67,147.05c18.42,23.44,37.88,48.01,53.4,74.3
				c2.05,3.47,4.02,6.99,5.78,10.62c0.55,1.14,2.41,5.6,1.31,2.77c0.48,1.24,0.99,2.47,1.4,3.74c0.35,1.06,0.6,2.14,0.9,3.22
				c0.12,0.43,0.15,0.89,0.26,1.32c0.42,1.65,0.08-2.33-0.07-0.43c-0.05,0.69-0.05,1.61,0.02,2.3c0.06,0.64,0.6-2.22-0.1,0.03
				c-0.64,2.05,1.04-1.81,0.07-0.16c-1.2,2.05,1.16-1.17,0.15-0.1c-0.23,0.24-1.04,0.78-1.13,1.06c0.38-1.24,1.83-0.9,0.08-0.17
				c-0.47,0.2-0.97,0.53-1.41,0.79c-0.12,0.07-0.24,0.12-0.36,0.19c0.02-0.01,0.32-0.72,0.24-0.13c-0.02,0.13-2.52,0.53-0.63,0.23
				c1.54-0.25-0.69,0-1.11-0.01c-2.62-0.09,0.86,0.58-1.7-0.25c-1.38-0.45-2.76-0.82-4.12-1.35c1.94,0.77-2.21-1.12-3.01-1.56
				c-1.71-0.94-3.37-1.96-5-3.03c-19.04-12.46-36.62-31.62-52.91-48.85c-27.01-28.58-52.84-58.28-78.72-87.89
				c-34.65-39.64-69.2-79.37-104.2-118.71c-20.3-22.81-40.73-45.5-61.35-68.03c-18.74-20.48-37.07-41.94-59.32-58.75
				c-19.32-14.59-42.2-24.56-66.77-23.8c-22,0.68-43.7,9.64-56.41,28.21c-28.23,41.21,3.57,93.75,26.99,128.97
				c44.4,66.77,97.74,127.64,151.36,187.07c53.46,59.26,108.83,116.73,162.82,175.49c19.61,21.34,39.21,42.81,57.34,65.44
				c5.79,7.23,11.52,14.7,16.69,22.86c1.89,2.98,3.62,6.03,5.2,9.19c0.32,0.64,0.61,1.3,0.89,1.95c-0.92-2.14-0.04-0.08,0.12,0.44
				c0.36,1.14,0.66,2.28,0.97,3.44c0.44,1.68-0.82-1.26-0.04-0.25c0.07,0.09,0.11,1.15,0.01,1.29c1.1-1.56-0.68,0.65,0.28-1.05
				c-0.83,1.47,0.89-1.31,0.26-0.31c-0.18,0.29-0.68,0.82-0.99,0.98c2.89-1.49-3.49,1.27-0.18,0.17c-0.95,0.32-4.11,0.76-1.5,0.56
				c-1.28,0.1-2.51,0.07-3.79,0.04c-2.17-0.06,0.63,0.17-0.4-0.03c-0.61-0.11-1.23-0.21-1.83-0.36c-1.66-0.42-3.29-0.85-4.91-1.4
				c-3.89-1.32-4.43-1.6-8.76-3.79c-4.11-2.07-8.1-4.38-12.02-6.79c-9.35-5.76-18.31-12.14-27.1-18.71
				c-47.15-35.19-90.73-75.02-136.79-111.6c-23.2-18.43-46.85-36.46-71.9-52.32c-19.67-12.45-40.93-24.55-63.73-30.14
				c-17.43-4.27-36.43-3.92-50.8,8.07c-16.41,13.7-16.93,34.87-10.73,53.92c9.66,29.72,29.52,56,48.65,80.22
				c27.62,34.97,58.35,67.46,89.61,99.17c71.19,72.2,146.45,140.28,220.81,209.16c7.07,6.55,17.71-4.03,10.61-10.61
				c-76.8-71.14-154.62-141.4-227.81-216.29c-30.13-30.83-59.81-62.45-86.18-96.59c-17.16-22.21-36.12-47.36-42.97-75.12
				c-1.28-5.16-1.8-8.31-1.59-13.79c0.11-2.86-0.08-1.96,0.57-4.63c0.46-1.9,1.42-4.66,1.51-4.84c3.2-6.63,7.76-10.74,14.81-13.87
				c-1.52,0.67,0.53-0.19,1-0.35c0.86-0.29,1.72-0.57,2.6-0.8c0.89-0.24,1.78-0.44,2.68-0.63c0.57-0.12,3.47-0.51,1.71-0.31
				c3.97-0.46,7.97-0.37,11.94-0.01c2.39,0.22,2.21,0.22,5.14,0.79c2.38,0.46,4.75,1.03,7.09,1.67c4.96,1.35,9.82,3.06,14.6,4.97
				c22.55,9.03,44.44,23.36,64.65,37.51c24.84,17.39,48.56,36.32,71.99,55.54c43.38,35.59,85.13,74.18,131.61,105.76
				c13.25,9,28.84,19.72,45.29,21.13c12.76,1.1,24.11-7.79,20.86-21.22c-3.78-15.64-16.67-29.97-26.37-42.18
				c-17.58-22.1-36.63-43.04-55.71-63.85c-53.48-58.34-108.42-115.32-161.53-174.01c-53.28-58.88-106.31-119.05-150.74-185.03
				c-11.7-17.38-23.61-35.24-30.98-54.95c-8.32-22.27-11.89-49.9,6.61-68.26c15.27-15.16,39.72-17.69,59.77-12.67
				c25.32,6.34,45.79,24.67,63.53,42.9c40.88,42,79.38,86.58,118.13,130.53c32.77,37.16,65.19,74.63,97.9,111.84
				c23.84,27.12,47.72,54.32,73.12,80c14.41,14.57,30.07,31.28,48.69,40.51c8.24,4.09,17.47,6.1,25.65,0.82
				c3.43-2.21,6.11-5.26,7.3-9.23c3.26-10.85-4.22-23.46-9.33-32.44c-14.51-25.52-33.07-48.92-51.04-72.04
				c-36.73-47.25-75.27-93.09-114-138.7c-66.68-78.53-134.52-156.08-202.62-233.38c-18.24-20.7-36.93-41.63-48.66-66.89
				c-10.19-21.94-14.03-49.22-4.15-71.99c9.37-21.59,30.4-34.1,53.21-36.93c24.27-3.01,47.72,4.32,68.2,17.09
				c36.89,23,64.7,59.99,92.15,93.11c25.63,30.92,50.57,62.41,75.39,93.98c50.52,64.25,100.13,129.33,152.82,191.84
				c19.61,23.26,39.59,46.47,61.61,67.51c11.72,11.2,26.59,26.58,43.28,29.78c14.09,2.7,21.68-7.73,18.93-20.69
				c-3.18-14.94-12.27-29.26-19.99-42.2c-28.4-47.62-62.02-92.28-95.01-136.77c-38.52-51.95-77.9-103.25-116.61-155.06
				c-15.27-20.44-30.49-40.95-45.13-61.85c-9.07-12.95-18.68-26.08-25.72-40.3c-0.5-1.01-0.97-2.02-1.43-3.06
				c1.15,2.63-0.17-0.52-0.39-1.3c-2.31-7.82-2.45-16.7-2.02-24.78c1.14-21.66,10.62-44.1,30.22-55.08
				c25.36-14.22,56-5.16,78.82,9.65c1.88,1.22,3.73,2.5,5.54,3.82c0.44,0.32,0.86,0.65,1.29,0.97c0.15,0.11-1.49-1.23,0.17,0.15
				c0.94,0.79,1.9,1.55,2.83,2.36c4.82,4.15,9.26,8.72,13.55,13.41c17.1,18.66,32.57,38.87,48.15,58.79
				c33.63,43,66.72,86.42,99.92,129.75c60.42,78.85,120.87,157.68,181.46,236.41c28.59,37.15,63.22,83.16,112.8,91.26
				c48.32,7.9,86.41-25.77,105.97-67.04c23.3-49.16,20.03-105.43,39.36-155.82c17.37-45.27,57.56-79.6,104.41-91.37
				c22.99-5.78,49.42-6.91,71.54,2.84c22.82,10.05,34.2,31.49,33.05,55.91c-1.18,25.12-12.05,49.42-22.39,71.94
				c-11.11,24.2-21.32,48.42-28.45,74.14c-14.11,50.92-18.21,104.01-19.44,156.64c-0.68,28.94-0.53,57.9-0.52,86.85
				c0,7.74,0.58,15.18,1.88,22.82c6.56,38.45,19.85,75.76,28.49,113.78c11.95,52.62,18.82,106.68,14.27,160.66
				c-5.35,63.59-28.09,124.15-66.3,175.31c-52.66,70.51-129.31,118.56-208.08,155.04c-54.52,25.25-112.49,47.71-173.14,50.68
				c-64.36,3.14-125.43-17.77-180.35-50.17c-82.97-48.93-153.46-118.03-219.11-187.68C763.95,1435.47,753.36,1446.09,759.98,1453.12
				L759.98,1453.12z"/>
		</g>
	</g>
	<g>
		<g>
			<path d="M977.35,339.32c9.25,5.61,18.29,11.55,27.08,17.86c2.09,1.5,4.17,3.02,6.23,4.56c0.83,0.62,1.65,1.23,2.47,1.86
				c0.1,0.08,4.11,3.19,1.65,1.26c-2.46-1.93,1.53,1.22,1.62,1.29c1.01,0.8,2.01,1.6,3.01,2.41c2.2,1.78,4.39,3.58,6.55,5.4
				c16.16,13.59,31.29,28.4,45.27,44.23c3.41,3.86,6.75,7.78,10.02,11.76c1.64,1.99,3.25,3.99,4.85,6.01
				c0.62,0.78,1.39,1.6,1.91,2.43c-2.59-4.14,0.45,0.6,1.11,1.47c6.37,8.43,12.43,17.08,18.16,25.95
				c11.47,17.73,21.65,36.29,30.4,55.52c1.17,2.58,2.32,5.17,3.44,7.77c0.51,1.17,2.3,4,0.09,0.2c0.73,1.25,1.22,2.95,1.76,4.29
				c2.31,5.73,4.49,11.51,6.55,17.34c3.94,11.18,7.38,22.52,10.36,33.98c2.63,10.13,14.43,17.26,24.6,13.97
				c10.43-3.38,16.79-13.75,13.97-24.6c-22.4-86.2-71.74-165.62-138.92-224.08c-19.34-16.83-40.09-32.12-62.01-45.42
				c-8.96-5.43-22.37-2.27-27.36,7.18C965.04,321.67,967.79,333.52,977.35,339.32L977.35,339.32z"/>
		</g>
	</g>
	<g>
		<g>
			<path d="M1036.28,243.17c12.03,6.52,23.8,13.51,35.24,21.01c5.93,3.89,11.78,7.9,17.53,12.04c2.67,1.92,5.33,3.87,7.96,5.84
				c1.22,0.91,2.42,1.84,3.63,2.75c1.8,1.35-0.92-0.73-1.04-0.81c1.03,0.71,2.01,1.56,2.99,2.34
				c21.68,17.09,41.95,35.98,60.56,56.37c4.61,5.05,9.13,10.2,13.54,15.43c4.32,5.12,9.31,10.3,12.92,15.95
				c-2.08-3.26-0.05-0.05,1.04,1.38c0.92,1.21,1.83,2.43,2.74,3.65c2.12,2.85,4.2,5.72,6.26,8.61c3.97,5.58,7.82,11.23,11.56,16.96
				c15.1,23.12,28.34,47.45,39.5,72.71c0.82,1.85,1.61,3.72,2.42,5.57c0.91,2.1-0.47-1.18-0.54-1.28c0.5,0.83,0.79,1.91,1.16,2.81
				c1.54,3.75,3.04,7.51,4.49,11.3c2.72,7.09,5.27,14.25,7.66,21.46c4.94,14.91,9.13,30.06,12.61,45.38
				c2.32,10.21,14.65,17.19,24.6,13.97c10.69-3.46,16.46-13.66,13.97-24.6c-12.72-55.93-35.27-109.88-65.62-158.53
				c-30.5-48.88-68.88-93.2-113.48-129.71c-25.45-20.83-52.59-39.47-81.52-55.14c-9.2-4.98-22.21-2.59-27.36,7.18
				C1024.18,225.13,1026.46,237.85,1036.28,243.17L1036.28,243.17z"/>
		</g>
	</g>
	<g>
		<g>
			<path d="M282.68,1145.99c35.93,83.5,94.35,155.95,166.44,211.01c19.77,15.1,40.65,28.69,62.43,40.71
				c9.16,5.05,22.23,2.53,27.36-7.18c4.96-9.39,2.61-21.97-7.18-27.36c-19.03-10.5-37.37-22.2-54.89-35.06
				c-2.11-1.55-4.21-3.12-6.29-4.7c-0.87-0.66-3.76-2.9-0.31-0.22c-1.03-0.8-2.06-1.61-3.09-2.42c-4.32-3.4-8.58-6.88-12.78-10.42
				c-8.41-7.08-16.59-14.44-24.53-22.05c-15.5-14.86-30.07-30.68-43.59-47.36c-1.65-2.03-3.28-4.08-4.9-6.14
				c-0.06-0.07-3.21-4.15-1.33-1.7c1.88,2.46-1.25-1.65-1.3-1.72c-3.48-4.59-6.88-9.24-10.2-13.95
				c-6.04-8.56-11.81-17.3-17.31-26.21c-12.92-20.95-24.27-42.83-34-65.44c-4.15-9.65-19.05-12.53-27.36-7.18
				C279.84,1125.08,278.24,1135.66,282.68,1145.99L282.68,1145.99z"/>
		</g>
	</g>
	<g>
		<g>
			<path d="M151.95,1186.51c19.31,58.1,49.34,111.59,87.86,159.09c37.7,46.49,84.05,86.36,135.52,116.9
				c29.38,17.43,60.7,31.72,93.04,42.73c9.91,3.38,22.3-3.87,24.6-13.97c2.53-11.1-3.36-20.99-13.97-24.6
				c-6.81-2.32-13.56-4.78-20.26-7.41c-1.61-0.63-3.23-1.28-4.83-1.93c-0.73-0.29-5.72-2.35-3.11-1.27
				c2.58,1.07-2.51-1.09-3.08-1.33c-1.82-0.79-3.63-1.6-5.43-2.41c-12.87-5.81-25.47-12.2-37.77-19.14
				c-12.51-7.06-24.71-14.69-36.55-22.84c-5.72-3.93-11.35-7.99-16.89-12.17c-1.35-1.02-2.9-1.99-4.14-3.15
				c3.52,3.3-0.27-0.23-1.23-0.99c-2.92-2.31-5.81-4.65-8.67-7.02c-21.96-18.19-42.34-38.29-60.86-59.97
				c-4.67-5.47-9.2-11.05-13.65-16.7c-2.22-2.81,2.08,2.75-0.96-1.25c-1.05-1.38-2.09-2.77-3.13-4.16c-2.22-2.98-4.4-5.99-6.55-9.03
				c-8.17-11.52-15.83-23.4-22.97-35.59c-8.13-13.9-15.56-28.2-22.24-42.85c-0.82-1.8-1.63-3.61-2.43-5.43
				c-0.3-0.68-0.6-1.36-0.89-2.04c-0.24-0.56-1.95-4.48-0.75-1.71c1.05,2.42,0.03,0.08-0.14-0.35c-0.47-1.15-0.95-2.29-1.41-3.44
				c-0.75-1.84-1.48-3.68-2.2-5.52c-2.98-7.62-5.75-15.32-8.33-23.09c-3.29-9.91-13.95-17.42-24.6-13.97
				C156.04,1165.1,148.41,1175.88,151.95,1186.51L151.95,1186.51z"/>
		</g>
	</g>
</g>
<g id="Ebene_5">
	<g class="st1">
		<path d="M425.74,1037.91c321.32,420.54,872.57,859.74,1159.54,376.78c-65.06,85.92-144.55,163.42-241.63,210.22
			c-97.08,46.79-213.46,60.12-313.4,19.78c-85.12-34.36-150.75-102.99-217.44-166.07c-144.06-136.26-309.94-261.17-391.91-441.72"/>
		<g>
			<path d="M408.47,1048c66.16,86.53,137.47,169.14,214.57,246.12c75.9,75.78,157.49,146.55,246.11,207.14
				c78.22,53.47,163.57,99.93,255.22,125.61c79.87,22.38,166.39,27.64,246,1.23c88.71-29.43,158.75-93.51,210.76-169.68
				c7.5-10.98,14.61-22.22,21.42-33.64c5.36-9,2.32-22.35-7.18-27.36c-10.55-5.57-20.59-1.76-27.36,7.18
				c-0.97,1.28-1.94,2.56-2.91,3.83c-0.49,0.64-3.02,3.92-0.98,1.29c-1.77,2.29-3.55,4.56-5.34,6.83
				c-3.78,4.8-7.61,9.56-11.49,14.28c-7.76,9.46-15.69,18.77-23.83,27.91c-16.25,18.26-33.28,35.83-51.17,52.49
				c-8.92,8.3-18.05,16.38-27.4,24.2c-4.67,3.9-9.39,7.74-14.17,11.5c-1.26,0.99-2.51,1.98-3.78,2.96c0.68-0.52,2.63-2-0.52,0.38
				c-2.55,1.93-5.1,3.85-7.68,5.75c-19.55,14.39-40,27.59-61.28,39.29c-10.77,5.92-21.76,11.47-32.95,16.56
				c-10.16,4.62-19.64,8.46-32.37,12.95c-23.97,8.44-48.65,14.86-73.72,19.02c-10.89,1.81-20.7,3-34.38,3.92
				c-12.58,0.84-25.2,1.09-37.8,0.69c-6.28-0.2-12.56-0.55-18.82-1.07c-2.96-0.25-5.92-0.53-8.88-0.85
				c-1.31-0.14-2.63-0.29-3.94-0.45c-0.73-0.09-6.05-0.82-2.54-0.31c-12.42-1.79-24.73-4.21-36.88-7.34
				c-12.18-3.15-24.18-7-35.91-11.56c-1.54-0.6-3.08-1.21-4.61-1.84c-0.76-0.31-4.62-1.97-1.52-0.62c-2.68-1.16-5.34-2.35-7.99-3.57
				c-5.57-2.58-11.07-5.31-16.5-8.17c-21.72-11.46-42.24-25.08-61.79-39.91c0.38,0.29-4.68-3.6-2.61-1.99
				c2.07,1.61-2.96-2.33-2.58-2.04c-2.3-1.81-4.58-3.64-6.86-5.49c-4.81-3.9-9.57-7.87-14.29-11.89
				c-9.47-8.07-18.75-16.35-27.92-24.75c-18.37-16.83-36.28-34.15-54.3-51.34c-69.67-66.47-143.25-128.75-211.88-196.33
				c-33.89-33.37-66.55-68.09-96.4-105.15c-1.95-2.42-3.89-4.85-5.81-7.29c-0.77-0.97-1.54-1.95-2.3-2.93
				c0.21,0.26-3.53-4.56-1.86-2.39c1.67,2.17-2.04-2.67-1.84-2.41c-0.75-0.99-1.5-1.98-2.25-2.97c-1.87-2.47-3.72-4.96-5.56-7.45
				c-6.98-9.47-13.76-19.1-20.31-28.88c-13.11-19.59-25.27-39.83-36.26-60.69c-5.53-10.51-10.75-21.18-15.67-31.98
				c-4.35-9.55-18.92-12.62-27.36-7.18c-9.86,6.36-11.83,17.15-7.18,27.36c40.74,89.35,102.97,166.91,171.18,236.8
				c68.49,70.18,143.45,133.56,214.94,200.57c74.81,70.12,147.51,148.29,246.35,183.87c100.9,36.32,214.54,21.49,310.42-22.65
				c91.48-42.12,168.45-111.9,231.49-189.45c8.37-10.3,16.52-20.78,24.54-31.35c-11.51-6.73-23.03-13.46-34.54-20.19
				c-6.81,11.42-13.92,22.66-21.42,33.64c-3.44,5.04-6.96,10.03-10.56,14.95c-1.93,2.63-3.87,5.25-5.85,7.85
				c-0.02,0.03-3.26,4.24-1.38,1.82c1.61-2.08-2.05,2.6-2.39,3.02c-14.46,18.24-30.16,35.51-47.21,51.36
				c-7.97,7.41-16.27,14.43-24.78,21.22c-2.76,2.2,0.36-0.23,0.76-0.57c-1.05,0.89-2.2,1.68-3.3,2.51c-2.19,1.65-4.4,3.27-6.63,4.87
				c-4.22,3.02-8.5,5.95-12.85,8.79c-8.32,5.43-16.86,10.51-25.62,15.2c-4.2,2.25-8.45,4.41-12.75,6.48
				c-2.33,1.12-4.66,2.21-7.01,3.28c-1.94,0.88-5.43,1.71-7.06,3.1c3.12-2.66,2.23-0.93,0.05-0.05c-1.18,0.48-2.37,0.96-3.56,1.42
				c-1.98,0.78-3.96,1.53-5.95,2.27c-4.76,1.76-9.55,3.42-14.39,4.96c-9.21,2.94-18.56,5.47-27.99,7.59
				c-9.45,2.12-19.01,3.33-28.5,5.13c6.43-1.22-0.61,0.05-2.2,0.23c-2.51,0.29-5.03,0.55-7.54,0.78
				c-5.05,0.47-10.11,0.83-15.18,1.09c-19.29,0.99-38.66,0.46-57.89-1.36c-4.8-0.45-9.58-1.02-14.36-1.6
				c-4.68-0.57,4.75,0.69,0.08,0.01c-1.31-0.19-2.62-0.37-3.94-0.57c-2.63-0.39-5.26-0.8-7.89-1.24
				c-10.2-1.69-20.34-3.71-30.41-6.02c-20.82-4.78-41.35-10.83-61.53-17.85c-10.44-3.64-20.78-7.54-31.03-11.67
				c-2.26-0.91-4.51-1.83-6.76-2.77c-0.88-0.37-5.52-2.34-0.64-0.26c-1.35-0.58-2.71-1.15-4.06-1.74
				c-5.22-2.25-10.42-4.56-15.59-6.92c-43.12-19.71-84.49-43.13-124.29-68.83c-21.12-13.64-41.81-27.94-62.1-42.78
				c-4.94-3.61-9.86-7.26-14.76-10.94c-2.24-1.68-4.47-3.36-6.69-5.06c-1.34-1.02-2.68-2.04-4.01-3.06
				c-0.46-0.35-5.2-3.99-3.32-2.54c2.35,1.81-2.03-1.58-1.98-1.54c-1.33-1.04-2.67-2.08-4-3.12c-2.22-1.74-4.44-3.49-6.66-5.24
				c-5.34-4.22-10.65-8.48-15.93-12.77c-41.3-33.53-80.99-69.04-119.28-105.97c-76.68-73.96-147.93-153.6-213.93-237.21
				c-3.68-4.66-7.35-9.34-10.99-14.03c-0.87-1.11-1.73-2.23-2.59-3.34c-3.46-4.45,2.43,3.17-1-1.3c-2.05-2.67-4.1-5.34-6.15-8.01
				c-6.33-8.28-17.51-13.53-27.36-7.18C407.46,1025.91,401.67,1039.11,408.47,1048L408.47,1048z"/>
		</g>
	</g>
	<g class="st1">
		<path d="M402.86,641.05c126.32,196.08,249.71,369.03,397.28,549.66c-138.05-145.31-254.87-281.5-377.81-439.81
			c-23.29-30-47.06-71.2-26.43-103.08"/>
		<g>
			<path d="M385.59,651.15c48.18,74.77,97.59,148.75,148.68,221.56c50.91,72.55,103.53,143.87,157.75,213.98
				c30.79,39.81,62.14,79.19,93.97,118.17c9.43-9.43,18.86-18.86,28.28-28.28c-63.06-66.4-124.72-134.12-184.58-203.42
				c-59.52-68.92-117.25-139.37-173.44-211.02c-3.88-4.95-7.76-9.91-11.63-14.87c-2.14-2.74-4.28-5.49-6.41-8.24
				c-0.69-0.89-3.25-4.32-0.56-0.73c-0.97-1.29-1.95-2.58-2.9-3.88c-6.88-9.35-13.25-19.13-18.46-29.51
				c-0.49-0.98-0.97-1.97-1.44-2.96c-0.27-0.58-2.47-5.65-0.63-1.18c-1.01-2.47-1.96-4.97-2.8-7.5c-0.82-2.48-1.54-4.98-2.14-7.52
				c-0.3-1.25-0.56-2.5-0.79-3.75c-0.15-0.75-0.27-1.5-0.39-2.25c0.32,2.58,0.4,3.1,0.24,1.58c-0.13-2.73-0.38-5.4-0.28-8.14
				c0.03-0.98,0.12-1.95,0.18-2.93c0.32-4.83-1.04,4.22,0.13-0.47c0.44-1.78,0.68-5.85,2.02-7.08c-0.3,0.67-0.59,1.34-0.89,2
				c0.3-0.7,0.63-1.38,0.98-2.06c0.81-1.62,1.73-3.18,2.69-4.71c5.56-8.88,2.18-22.42-7.18-27.36c-9.83-5.19-21.43-2.31-27.36,7.18
				c-26.98,43.12,2.64,92.6,29.56,127.31c29.09,37.52,58.63,74.7,88.6,111.53c58.45,71.84,118.67,142.23,180.66,211.04
				c35.65,39.57,71.87,78.62,108.55,117.24c7.22,7.6,21.11,7.82,28.28,0c7.94-8.65,7.09-19.6,0-28.28
				c-28.34-34.71-56.3-69.73-83.82-105.09c-3.2-4.11-6.4-8.23-9.59-12.35c-0.54-0.7-3-3.88-0.8-1.04c-0.75-0.97-1.49-1.94-2.24-2.91
				c-1.87-2.42-3.73-4.84-5.59-7.27c-6.68-8.7-13.34-17.42-19.97-26.16c-13.19-17.39-26.28-34.85-39.27-52.4
				c-51.53-69.63-101.4-140.48-149.82-212.3c-28.14-41.74-55.79-83.8-83.05-126.11c-5.66-8.78-18.01-13.2-27.36-7.18
				C383.99,629.44,379.53,641.74,385.59,651.15L385.59,651.15z"/>
		</g>
	</g>
	<g class="st1">
		<path d="M490.95,382.79c77.35,232.16,295.63,375.01,388.7,601.33C767.89,836.88,658.9,703.63,537.69,565.38
			c-24.67-28.13-57.79-44.99-71.7-79.72c-13.92-34.73-1.74-63.93,20.45-94.05"/>
		<g>
			<path d="M471.67,388.1c30.73,91.8,83.93,172.32,142.85,248.27c28.61,36.88,58.52,72.72,87.9,108.99
				c7.28,8.98,14.52,17.99,21.71,27.05c3.44,4.33,6.86,8.67,10.26,13.03c1.86,2.37,3.71,4.76,5.55,7.14
				c3.15,4.06-2.57-3.35,0.56,0.72c1.22,1.59,2.45,3.19,3.67,4.78c14.02,18.34,27.68,36.96,40.73,56
				c14.76,21.54,28.73,43.62,41.53,66.38c6.43,11.43,12.57,23.04,18.36,34.81c2.91,5.92,5.74,11.88,8.47,17.88
				c1.48,3.24,2.93,6.5,4.35,9.77c0.61,1.4,1.26,2.8,1.82,4.22c-1.95-4.98,0.57,1.39,0.95,2.3c12.18-5.14,24.37-10.27,36.55-15.41
				C834.37,891.64,770.31,810.4,704.49,730.6c-32.18-39.01-64.77-77.7-97.72-116.06c-16.95-19.74-34-39.39-51.14-58.97
				c-13.87-15.84-29.98-28.89-45.31-43.23c-4.12-3.86-8.13-7.84-11.88-12.06c-0.65-0.73-1.29-1.47-1.92-2.21
				c-0.36-0.42-3.9-4.96-2.12-2.54c1.9,2.59-0.93-1.34-1.06-1.52c-0.85-1.21-1.67-2.43-2.47-3.68c-1.61-2.52-3.11-5.12-4.46-7.78
				c-0.46-0.9-0.87-1.83-1.33-2.74c-0.91-2.04-0.85-1.86,0.18,0.53c-0.44-1.11-0.87-2.22-1.27-3.34c-0.96-2.7-1.79-5.44-2.47-8.22
				c-0.39-1.61-0.67-3.23-1.03-4.84c-0.93-4.21,0.09,3.57-0.14-1.04c-0.15-3.13-0.36-6.2-0.24-9.34c0.04-1.02,0.1-2.05,0.19-3.07
				c0.08-1.02,0.19-2.04,0.31-3.05c-0.09,0.76-0.19,1.52-0.28,2.29c-0.44-2.47,1.33-6.53,2.02-8.99c0.77-2.72,1.51-6.48,3.02-8.87
				c-0.33,0.52-1.76,3.85-0.16,0.38c0.79-1.72,1.59-3.42,2.44-5.11c1.37-2.71,2.85-5.38,4.39-8c3.55-6.03,7.52-11.79,11.64-17.43
				c6.2-8.47,1.71-22.67-7.18-27.36c-10.41-5.5-20.75-1.87-27.36,7.18c-15.02,20.53-26.77,43.27-28.86,68.98
				c-1.94,23.81,6.85,48.41,21.11,67.26c13.48,17.82,30.69,31.37,46.98,46.43c17.86,16.5,33.15,35.89,49.04,54.25
				c67.81,78.31,134.09,157.95,198.62,239c17.98,22.58,35.82,45.26,53.54,68.05c4.66,6,9.32,12,13.96,18.01
				c-0.52-0.67-2.04-2.64,0.36,0.47c1.36,1.76,2.72,3.52,4.07,5.28c2.14,2.77,4.27,5.55,6.4,8.32
				c9.36,12.19,18.69,24.41,27.99,36.65c6.1,8.03,15.04,12.38,24.98,8.18c8.26-3.48,15.39-14.36,11.58-23.59
				c-37.12-89.94-93.57-168.55-154.04-244.11c-29.18-36.47-59.18-72.27-88.19-108.88c-3.42-4.32-6.83-8.64-10.21-12.99
				c-1.85-2.37-3.7-4.73-5.53-7.11c2.78,3.62,0.62,0.8-0.08-0.11c-1.07-1.39-2.13-2.78-3.19-4.17
				c-7.27-9.52-14.45-19.11-21.49-28.81c-13.46-18.52-26.42-37.41-38.64-56.78c-13.81-21.9-26.65-44.43-38.12-67.65
				c-2.88-5.84-5.68-11.71-8.38-17.63c-1.46-3.2-2.89-6.41-4.3-9.63c-0.6-1.38-1.2-2.77-1.79-4.16c-1.82-4.21,1.26,3.1-0.33-0.79
				c-5.19-12.7-10.05-25.5-14.41-38.52c-3.31-9.9-13.94-17.42-24.6-13.97C475.78,366.69,468.11,377.48,471.67,388.1L471.67,388.1z"
				/>
		</g>
	</g>
	<g class="st1">
		<path d="M761.56,327.99c70.91,177.19,154.96,322.54,254.52,485.36C933.82,697.6,867.56,600.28,785.3,484.53
			c-31.34-44.09-64.23-97.84-45.98-148.76"/>
		<g>
			<path d="M742.28,333.31c27.22,67.93,57.53,134.58,90.76,199.78c31.88,62.56,66.29,123.8,101.93,184.29
				c20.95,35.56,42.32,70.86,63.85,106.07c11.51-6.73,23.03-13.46,34.54-20.19c-43.18-60.77-85.78-121.94-128.41-183.09
				c-21-30.12-42.03-60.23-63.15-90.26c-21.2-30.14-44.05-59.59-62.87-91.3c-5.09-8.57-9.81-17.36-13.91-26.45
				c-0.36-0.79-0.7-1.59-1.06-2.38c1.68,3.65,0-0.02-0.31-0.8c-0.95-2.38-1.86-4.78-2.71-7.21c-1.49-4.24-2.8-8.55-3.9-12.9
				c-0.54-2.15-1.03-4.31-1.47-6.49c-0.21-1.08-0.42-2.16-0.6-3.25c-0.1-0.58-0.64-5.16-0.36-2.22c0.25,2.58,0.01-0.19-0.02-0.6
				c-0.1-1.36-0.24-2.71-0.31-4.07c-0.14-2.44-0.2-4.88-0.17-7.33c0.03-2.17,0.14-4.34,0.32-6.51c0.08-0.96,0.04-2.38,0.33-3.25
				c-0.5,1.5-0.46,2.81,0,0.45c0.98-4.95,2.2-9.77,3.85-14.54c3.44-9.89-3.91-22.31-13.97-24.6c-11.15-2.54-20.92,3.38-24.6,13.97
				c-12.76,36.69-2.83,75.35,13.79,109c16.5,33.42,39.92,63.14,61.33,93.48c43.1,61.1,85.71,122.54,128.54,183.83
				c24.92,35.65,49.93,71.24,75.12,106.7c6.05,8.51,17.73,13.39,27.36,7.18c8.96-5.77,13.01-17.81,7.18-27.36
				c-37.31-61.03-74.17-122.36-109.16-184.76c-34.17-60.94-66.5-122.92-95.95-186.29c-8.52-18.34-16.81-36.78-24.84-55.33
				c-1.94-4.49-3.87-8.98-5.79-13.48c-0.48-1.13-0.96-2.26-1.44-3.39c-1.34-3.13,1.79,4.27-0.49-1.17
				c-0.95-2.27-1.91-4.55-2.85-6.82c-4.06-9.75-8.05-19.53-11.98-29.34c-3.88-9.68-13.52-17.55-24.6-13.97
				C746.88,311.74,738.11,322.91,742.28,333.31L742.28,333.31z"/>
		</g>
	</g>
	<g class="st1">
		<path d="M1383.93,813.35c63.18-86.86,126.37-173.73,189.55-260.59c-53.98,8.19-98.62,48.88-125.37,96.48
			c-26.75,47.6-38.43,101.95-49.77,155.37"/>
		<g>
			<path d="M1401.2,823.45c49.14-67.56,98.29-135.12,147.43-202.68c14.04-19.3,28.08-38.61,42.12-57.91
				c4.65-6.39,2.88-16.46-1.56-22.21c-5.27-6.82-12.81-8.46-21.02-7.17c-41.76,6.58-79.45,31.52-106.94,62.95
				c-31.06,35.52-50.21,78.9-63.31,123.87c-7.58,26.01-13.23,52.52-18.85,79c-2.17,10.21,3.01,22.11,13.97,24.6
				c10.05,2.29,22.28-3.02,24.6-13.97c4.75-22.37,9.52-44.75,15.46-66.84c2.96-11.01,6.2-21.95,9.87-32.74
				c1.73-5.1,3.56-10.16,5.5-15.18c1.08-2.79,2.19-5.56,3.33-8.32c-0.31,0.74-1.48,3.39,0.08-0.17c0.72-1.64,1.44-3.28,2.18-4.91
				c4.5-9.93,9.51-19.65,15.16-28.99c2.37-3.92,4.86-7.77,7.46-11.54c1.45-2.1,2.93-4.18,4.45-6.23c0.56-0.75,1.18-1.84,1.84-2.45
				c-3.3,3.05-0.07,0.11,0.65-0.78c6.07-7.56,12.63-14.72,19.68-21.38c3.32-3.14,6.74-6.16,10.27-9.05c0.98-0.8,1.97-1.58,2.96-2.37
				c2.42-1.95-3.87,2.77,0.16-0.09c2.05-1.46,4.07-2.95,6.16-4.36c4.56-3.09,9.28-5.96,14.12-8.58c2.2-1.19,4.42-2.32,6.67-3.4
				c0.9-0.43,1.8-0.85,2.71-1.27c2.03-0.93,3.58-1.94,0.71-0.36c4.62-2.55,10.5-3.94,15.56-5.35c5.33-1.49,10.73-2.63,16.2-3.49
				c-7.53-9.79-15.06-19.59-22.59-29.38c-49.14,67.56-98.29,135.12-147.43,202.68c-14.04,19.3-28.08,38.61-42.12,57.91
				c-6.18,8.49-1.72,22.66,7.18,27.36C1384.22,836.11,1394.61,832.51,1401.2,823.45L1401.2,823.45z"/>
		</g>
	</g>
</g>
<g id="Ebene_6">
	<g class="st2">
		<g>
			<path class="st3" d="M580.47,476.17c41.08,42.34,80.7,86.08,118.73,131.19c18.62,22.08,36.85,44.48,54.7,67.19
				c2.28,2.9,4.55,5.8,6.82,8.71c1.13,1.45,2.26,2.91,3.39,4.37c3.74,4.8-2.33-3.04,1.38,1.79c4.5,5.84,8.98,11.7,13.43,17.58
				c8.9,11.76,17.7,23.6,26.39,35.51c19.56,26.81,38.58,54,57.07,81.56c5.82,8.67,17.9,13.28,27.36,7.18
				c8.64-5.57,13.41-18.07,7.17-27.36c-66.69-99.36-140.34-194.13-220.24-283.21c-22.16-24.7-44.81-48.95-67.92-72.77
				c-7.3-7.52-21.05-7.88-28.28,0C573.05,455.97,572.69,468.14,580.47,476.17L580.47,476.17z"/>
		</g>
	</g>
	<g class="st2">
		<g>
			<path class="st3" d="M539.03,763.93c61.92,70.36,123.85,140.73,185.77,211.09c17.57,19.96,35.13,39.92,52.7,59.88
				c6.93,7.88,21.3,7.61,28.28,0c7.71-8.4,7.4-19.88,0-28.28c-61.92-70.36-123.85-140.73-185.77-211.09
				c-17.57-19.96-35.13-39.92-52.7-59.88c-6.93-7.88-21.3-7.61-28.28,0C531.31,744.04,531.63,755.52,539.03,763.93L539.03,763.93z"
				/>
		</g>
	</g>
	<g class="st2">
		<g>
			<path class="st3" d="M846.81,418.03c54.68,89.13,109.35,178.26,164.03,267.39c15.32,24.98,30.65,49.96,45.97,74.94
				c5.47,8.91,18.15,13.11,27.36,7.18c8.95-5.77,13.03-17.82,7.18-27.36C1036.67,651.04,982,561.91,927.32,472.78
				c-15.32-24.98-30.65-49.96-45.97-74.94c-5.47-8.91-18.15-13.11-27.36-7.18C845.04,396.44,840.96,408.49,846.81,418.03
				L846.81,418.03z"/>
		</g>
	</g>
	<g class="st2">
		<g>
			<path class="st3" d="M1600.74,631.64c-61.29,65.33-87.26,153.16-94.11,240.78c-7.63,97.7,10.41,194.41,21.14,291.15
				c6.64,59.87,10.39,120.35,3.7,180.4c-1.16,10.43,10.03,20.45,20,20c11.83-0.53,18.75-8.82,20-20
				c11.77-105.61-8.77-210.75-20.18-315.43c-4.89-44.85-7.93-89.88-5.95-135c0.47-10.7,1.2-21.39,2.24-32.05
				c0.48-4.92,1.02-9.84,1.63-14.75c0.16-1.29,0.3-2.58,0.49-3.87c-0.73,4.77-0.14,1.11,0.03-0.09c0.4-2.82,0.83-5.64,1.28-8.46
				c3.32-20.8,7.95-41.4,14.22-61.51c3.26-10.48,6.54-21.57,11.37-31.46c-2.26,4.64-0.01,0.05,0.36-0.79
				c0.61-1.39,1.22-2.77,1.84-4.15c1.25-2.75,2.53-5.49,3.85-8.21c2.42-4.98,4.97-9.89,7.65-14.73
				c5.61-10.13,11.79-19.95,18.56-29.35c0.59-0.82,1.19-1.64,1.78-2.45c0.31-0.43,3.83-5.13,2.09-2.83
				c-1.9,2.52,1.15-1.45,1.25-1.57c0.95-1.19,1.91-2.38,2.88-3.55c3.9-4.74,7.97-9.33,12.17-13.8c7.16-7.63,8.13-20.82,0-28.28
				C1621.25,624.5,1608.39,623.49,1600.74,631.64L1600.74,631.64z"/>
		</g>
	</g>
	<g class="st2">
		<g>
			<path class="st3" d="M497.22,1086.58c-0.49-0.38-4.61-3.61-2.18-1.68c0.57,0.46,1.15,0.91,1.73,1.37
				c1.24,0.99,2.47,1.99,3.7,2.99c2.59,2.12,5.15,4.26,7.71,6.42c6.26,5.3,12.45,10.69,18.61,16.12
				c15.44,13.6,30.69,27.42,45.92,41.26c32.14,29.2,64.03,58.69,96.54,87.47c13.55,12,27.21,23.86,41.55,34.91
				c8.32,6.41,22.76,1.55,27.36-7.18c5.6-10.6,1.71-20.52-7.17-27.36c0.49,0.38,4.61,3.61,2.18,1.68c-0.57-0.46-1.15-0.91-1.73-1.37
				c-1.24-0.99-2.47-1.99-3.7-2.99c-2.59-2.12-5.15-4.26-7.71-6.42c-6.26-5.3-12.45-10.69-18.61-16.12
				c-15.44-13.6-30.69-27.42-45.92-41.26c-32.14-29.2-64.03-58.69-96.54-87.47c-13.55-12-27.21-23.86-41.55-34.91
				c-8.32-6.41-22.76-1.55-27.36,7.18C484.44,1069.82,488.33,1079.73,497.22,1086.58L497.22,1086.58z"/>
		</g>
	</g>
	<g>
		<g>
			<path class="st3" d="M1845.45,1089.31c10.46,0,20.48-9.2,20-20c-0.49-10.84-8.79-20-20-20c-10.46,0-20.48,9.2-20,20
				C1825.93,1080.14,1834.23,1089.31,1845.45,1089.31L1845.45,1089.31z"/>
		</g>
	</g>
</g>
</svg>
