<?xml version="1.0" encoding="utf-8"?>
<!-- Generator: Adobe Adobe Illustrator 24.2.0, SVG Export Plug-In . SVG Version: 6.00 Build 0)  -->
<svg version="1.1" xmlns="http://www.w3.org/2000/svg" xmlns:xlink="http://www.w3.org/1999/xlink" x="0px" y="0px"
	 viewBox="0 0 2000 2000" style="enable-background:new 0 0 2000 2000;" xml:space="preserve">
<style type="text/css">
	.st0{fill:#F7EBF1;}
	.st1{fill:#F7EBF2;}
	.st2{fill:#F0C1A1;}
	.st3{fill:#CA354F;}
	.st4{fill:#FFFFFF;stroke:#FFFFFF;stroke-width:0.8443;stroke-miterlimit:10;}
	.st5{opacity:0.3098;}
	.st6{opacity:0.102;}
	.st7{fill:#ADBECF;}
	.st8{fill:#F3C057;}
	.st9{fill:#F7D98D;}
	.st10{fill:#AEBFCE;}
	.st11{opacity:0.2706;}
	.st12{fill:#3D4C5B;}
</style>
<g id="Ebene_14">
	<g>
		<path class="st0" d="M536.02,1670.81c-72.75,44.51-164.33,114.39-164.33,198.83c126,25.71,264.06,27.58,392.2,22.09
			c192.48-8.24,384.82-20.28,576.89-36.11c-20.93-49.89-49.13-96.23-83.26-136.8c-19.16-22.78-42.92-45.05-71.44-46.04
			c-29.24-1.01-54.39,20.38-78.42,38.38c-84.54,63.3-188.82,95.41-291.63,89.78c-102.81-5.62-203.53-48.94-281.69-121.14"/>
		<g>
			<path class="st1" d="M535.93,1665.75c-31.41,19.25-61.98,40.29-89.49,64.88c-27.12,24.25-51.98,52.42-66.88,85.94
				c-7.77,17.49-12.19,36.35-12.3,55.52c-0.01,1.57,0.74,2.84,2.31,3.16c119.72,24.31,242.99,27.25,364.73,23.15
				c128.65-4.33,257.27-12.14,385.69-20.79c72.93-4.91,145.82-10.38,218.67-16.37c3.57-0.29,7.96-5.52,6.37-9.28
				c-12.77-30.31-28.1-59.5-46.08-87.05c-17.15-26.29-36.36-52.97-59.88-73.97c-10.83-9.67-23.15-17.78-37.27-21.66
				c-14.08-3.87-28.76-2.06-42.19,3.29c-14.05,5.6-26.52,14.34-38.59,23.32c-12.84,9.56-25.5,19.27-38.95,27.98
				c-53.58,34.69-114.36,57.88-177.49,67.36c-61.64,9.25-124.85,4.64-184.65-12.83c-59.69-17.44-115.63-47.65-163.5-87.27
				c-6.23-5.16-12.33-10.48-18.29-15.96c-4.17-3.84-11,6.16-7.61,9.27c45.47,41.85,98.73,74.83,156.87,95.94
				c57.65,20.93,119.25,30.1,180.47,25.71c62.93-4.52,124.6-22.51,180.31-52.08c28.04-14.89,53.07-33.37,78.62-52.05
				c12.28-8.98,25.51-17.69,40.4-21.58c14.68-3.83,29.53-1.71,42.97,5.16c27.62,14.12,47.81,41.69,65.68,66.2
				c19.27,26.43,36.05,54.66,50.18,84.15c3.69,7.71,7.17,15.52,10.48,23.4c2.12-3.09,4.25-6.18,6.37-9.28
				c-129.8,10.68-259.74,19.66-389.77,26.89c-124.91,6.95-250.4,15.26-375.54,10.23c-68.36-2.75-136.69-9.48-203.78-23.11
				c0.77,1.05,1.54,2.11,2.31,3.16c0.19-32.55,14.78-62.41,34.46-87.66c21.66-27.79,48.86-50.96,77.25-71.62
				c15.62-11.37,31.81-21.94,48.28-32.03c2.44-1.49,4.49-4.56,4.34-7.52C540.31,1665.84,538.28,1664.31,535.93,1665.75
				L535.93,1665.75z"/>
		</g>
	</g>
</g>
<g id="Ebene_27">
	<g>
		<path class="st2" d="M796.92,1457.54c5.73,55.07,4.79,88.99-25.34,118.42s-71.06,41.91-110.79,51.29
			c-39.73,9.39-80.83,16.99-115.81,39.34c86.77,80.25,200.98,125.22,315.31,124.16c114.33-1.06,227.81-48.13,313.29-129.96
			c-34.85-21.09-75.01-28.9-113.92-38.72c-38.91-9.82-88.1-8.35-117.83-37.14c-29.73-28.79-37.02-91.91-19.75-130.75
			c-40.13,9.32-82.61,6.56-121.41-7.88"/>
		<g>
			<path class="st2" d="M792.49,1459.99c2.27,22.01,4.68,44.87,1,66.86c-3.1,18.54-11.77,34.33-25.53,47.12
				c-38.05,35.4-91.27,43.82-139.87,55.63c-28.97,7.04-57.81,15.89-83.21,31.92c-2.14,1.35-6.56,7.08-3.72,9.7
				c67.27,61.99,151.76,104.44,242.18,119.32c89.61,14.75,182,0.44,264.04-38.06c46.84-21.98,89.97-51.72,127.4-87.42
				c1.92-1.83,5.37-7.49,1.86-9.59c-24.96-14.94-52.86-23.48-80.89-30.61c-13.58-3.45-27.19-7.05-40.88-10.01
				c-12.02-2.6-24.2-4.31-36.33-6.31c-23.35-3.85-47.94-8.57-67.16-23.32c-17.71-13.59-26.95-35.27-31.28-56.62
				c-4.93-24.27-4.14-51.13,5.86-74.05c1-2.28,0.7-6.69-2.85-5.88c-39.62,9.02-81.24,6.33-119.39-7.68
				c-4.85-1.78-10.6,8.99-6.14,10.63c39.55,14.53,82.34,17.44,123.44,8.09c-0.95-1.96-1.9-3.92-2.85-5.88
				c-9.18,21.04-11.33,45.15-8.81,67.8c2.48,22.33,9.36,45.74,24.15,63.15c15.92,18.73,39.75,26.91,63.11,31.77
				c12.69,2.64,25.53,4.41,38.31,6.57c13.07,2.21,25.85,5.41,38.72,8.56c33.4,8.16,67.06,16.61,96.84,34.44
				c0.62-3.2,1.24-6.39,1.86-9.59c-65.03,62.03-147.38,105.1-235.87,121.44c-87.94,16.23-179.42,4.07-260.91-32.42
				c-46.4-20.78-89.41-49.12-126.8-83.57c-1.24,3.23-2.48,6.46-3.72,9.7c47.48-29.97,104.87-32.9,156.94-50.67
				c42.76-14.6,86.7-41.5,98.39-88.07c6.34-25.25,3.59-52.28,0.95-77.83C800.6,1447.83,792.01,1455.27,792.49,1459.99
				L792.49,1459.99z"/>
		</g>
	</g>
	<g>
		<g>
			<path class="st2" d="M1002.38,1361.76c4.78,0,9.47-11.23,4.22-11.23C1001.82,1350.53,997.13,1361.76,1002.38,1361.76
				L1002.38,1361.76z"/>
		</g>
	</g>
</g>
<g id="Ebene_23">
	<g>
		<g>
			<path d="M790.64,1460.13c1.58,38.87,4.17,86.92-23.24,118.29c-26.8,30.67-73.07,32.09-110.1,39.98
				c-86.43,18.41-168.97,58.33-226.24,127.18c-30.27,36.39-52.46,79.15-63.74,125.16c-0.58,2.37,0.61,4.97,3.31,4.49
				c2.92-0.52,4.8-4.17,5.42-6.71c20.53-83.75,79.84-152.89,154.57-194.05c40.62-22.38,85.1-36.93,130.46-46.1
				c38.23-7.73,80.51-11.1,108.85-41.22c32.61-34.67,31.49-87.67,29.68-132.01c-0.11-2.72-2.2-3.8-4.58-2.64
				C792.52,1453.74,790.53,1457.35,790.64,1460.13L790.64,1460.13z"/>
		</g>
	</g>
	<g>
		<g>
			<path d="M916.1,1460.28c-1.65,38.74-3.06,84.14,21.92,116.58c24.96,32.42,67.64,37.4,105.13,44.07
				c86.93,15.46,172.81,50.39,233.34,116.73c31.43,34.46,55.04,75.77,66.65,121.05c1.53,5.95,9.66-2.87,8.52-7.32
				c-20.78-81.07-78.66-147.99-150.61-188.91c-39.08-22.22-81.96-37.23-125.71-47.15c-20.44-4.63-41.21-7.42-61.7-11.74
				c-19.03-4.01-38.21-9.88-53.85-21.87c-38.09-29.2-36.66-83.18-34.82-126.36c0.12-2.74-2.32-3.68-4.51-2.6
				C917.78,1454.07,916.22,1457.47,916.1,1460.28L916.1,1460.28z"/>
		</g>
	</g>
	<g>
		<g>
			<path d="M368.62,1874.95c54.76,22.33,114.53,24.38,172.89,24.01c63.07-0.39,126.11,0.11,189.18,0.32
				c65.97,0.22,131.95-0.03,197.91-1.51c65.56-1.47,131.11-4.16,196.53-8.82c65.11-4.63,130.1-11.2,194.73-20.42
				c8.13-1.16,16.25-2.36,24.36-3.61c4.53-0.69,8.36-12,2.08-11.04c-129.36,19.79-260.1,28.58-390.84,32.09
				c-64.96,1.75-129.95,2.21-194.93,2.13c-63.29-0.08-126.59-1.35-189.87-0.62c-65.66,0.75-133.99,2.07-195.89-23.17
				C369.99,1862.37,364.15,1873.13,368.62,1874.95L368.62,1874.95z"/>
		</g>
	</g>
	<g>
		<g>
			<path d="M538.21,1678.15c69.36,62.7,156.66,105.11,249.23,119.18c90.57,13.76,183.57-1.36,266.21-40.44
				c47.47-22.45,91.19-52.7,129.18-88.93c1.92-1.83,4.1-5.22,3.08-8.01c-0.95-2.59-3.74-2.31-5.52-0.62
				c-66.33,63.26-150.24,107.31-240.47,124.2c-89.37,16.73-182.45,4.83-265.55-31.74c-47.53-20.92-91.47-49.55-129.98-84.37
				C540.93,1664.27,534.31,1674.63,538.21,1678.15L538.21,1678.15z"/>
		</g>
	</g>
</g>
<g id="Ebene_15">
	<g>
		<path class="st0" d="M887.5,666.6c2.28-1.75,4.56-3.5,6.84-5.25c3.88,9.69,15.48,13.96,24.86,10.93
			c9.38-3.03,16.4-11.85,20.12-21.61c3.72-9.76,4.6-20.47,5.23-31c0.57-9.51,0.93-19.31-2.01-28.29c-2.94-8.98-9.96-17.06-18.76-18
			c-8.8-0.95-18.13,7.73-16.45,17.08c1.62-5.89-3.78-12.13-9.48-12.2c-5.7-0.07-10.74,4.6-13.1,10.19
			c-2.36,5.59-2.53,11.95-2.32,18.09c0.7,20.56,5.22,40.95,13.21,59.63"/>
		<g>
			<path class="st0" d="M888.7,670.87c2.28-1.75,4.56-3.5,6.84-5.25c-1.82-0.2-3.64-0.41-5.46-0.61
				c4.91,11.04,17.17,16.51,28.74,12.56c12.66-4.33,21.22-16.77,25.26-29c4.84-14.66,6.17-32.13,5.11-47.49
				c-0.89-12.83-6.04-28.21-19.62-32.5c-14.14-4.47-28.36,10.46-26.67,24.32c0.87,7.13,8.04,0.19,8.73-3.55
				c1.72-9.32-5.46-18.8-15.53-16.29c-10.61,2.65-16.39,14.55-17.69,24.47c-1.51,11.54,0.12,23.79,2.07,35.18
				c2.18,12.76,5.88,25.18,10.9,37.1c2.46,5.85,10.31-3.07,8.52-7.32c-6.62-15.72-10.98-32.37-12.49-49.38
				c-0.66-7.38-2.25-17.43,1.22-24.32c1.56-3.1,4.76-5.52,8.41-4.82c3.28,0.63,6.62,4.09,5.98,7.56c2.91-1.18,5.82-2.37,8.73-3.55
				c-0.72-5.91,4.16-9.48,9.92-9.01c5.8,0.48,10.53,4.95,13.53,9.61c7.49,11.62,5.56,27.48,4.44,40.57
				c-1.01,11.88-3.17,26.1-13.08,34.07c-8.71,7-23.09,5.37-27.95-5.54c-1.16-2.61-3.44-2.17-5.46-0.61
				c-2.28,1.75-4.56,3.5-6.84,5.25C882.08,665.56,882.33,675.77,888.7,670.87L888.7,670.87z"/>
		</g>
	</g>
</g>
<g id="Ebene_24">
	<g>
		<path class="st0" d="M675.23,1611.63c-13.15-4.84-29.19,3.52-33.84,17.63c-4.65,14.11,2.92,31.5,15.95,36.68
			c13.04,5.18,29.26-2.76,34.23-16.75c4.96-13.99-2.21-31.57-15.13-37.08"/>
		<g>
			<path d="M678.3,1606.31c-12.75-4.28-26.02,0.95-34.4,11.12c-8.94,10.86-10.74,26.1-4.7,38.77c5.65,11.85,17.5,19.02,30.67,16.33
				c13.48-2.76,24.03-14.48,26.92-27.67c3.18-14.52-3.37-31.66-17.28-38.07c-4.65-2.14-10.6,8.58-6.14,10.63
				c10.88,5.02,17.84,18.46,14.67,30.28c-3.02,11.26-17.16,16.92-27.62,12.92c-11.12-4.25-18.23-18.34-15.43-29.86
				c2.78-11.45,16.42-17.44,27.18-13.82C677.07,1618.59,682.75,1607.8,678.3,1606.31L678.3,1606.31z"/>
		</g>
	</g>
	<g>
		<path class="st0" d="M690.51,1651.11c-3.83,14.54,4.67,31.53,18.04,36.06s29.37-4.15,33.95-18.43
			c4.58-14.28-3.03-31.76-16.14-37.09c-13.12-5.33-29.54,2.37-34.85,16.36"/>
		<g>
			<path d="M686.21,1652.2c-3.07,12.94,1.13,27.3,11.49,35.86c10.54,8.7,25.14,6.96,35.61-0.86c11.19-8.36,16.73-22.51,14.33-36.23
				c-2.24-12.81-11.79-24.97-25.31-26.49c-15.46-1.73-29.12,9.49-34.72,23.16c-0.82,1.99-0.97,5.54,1.78,5.98
				c2.78,0.45,5.15-3.17,6-5.25c4.44-10.84,18.58-15.83,29.07-10.89c11,5.18,17.8,19.85,13.92,31.54
				c-3.69,11.14-18.03,16.68-28.56,12.13c-11.65-5.03-17.89-19.04-15.02-31.14c0.55-2.34-0.59-4.9-3.26-4.43
				C688.68,1646.09,686.8,1649.7,686.21,1652.2L686.21,1652.2z"/>
		</g>
	</g>
	<g>
		<path class="st0" d="M741.59,1667c-3.01,16.83,7.22,35.32,22.49,40.11s33.31-5.2,38.27-21.48c4.96-16.28-4.35-36.08-19.58-41.03
			c-15.22-4.96-33.34,6.3-36.68,23.06"/>
		<g>
			<path d="M737.29,1668.1c-2.4,15.34,3.33,32.01,16.55,40.87c12.53,8.39,28.81,5.22,39.84-4.17
				c11.82-10.07,17.12-26.29,13.03-41.34c-3.73-13.73-15.34-26.18-30.41-25.64c-17.15,0.62-30.88,14.77-34.49,30.92
				c-0.52,2.34,0.57,4.9,3.26,4.43c2.84-0.5,4.78-4.11,5.34-6.61c2.9-12.96,18.1-20.79,30.49-16.22
				c12.99,4.79,20.98,21.17,17.67,34.45c-3.32,13.32-19.17,20.82-31.9,16.83c-14.38-4.51-23.03-21.27-20.77-35.7
				c0.36-2.33-0.46-4.92-3.26-4.43C739.91,1661.96,737.68,1665.61,737.29,1668.1L737.29,1668.1z"/>
		</g>
	</g>
	<g>
		<path class="st0" d="M803.98,1683.08c0.96,16.96,16.06,31.48,31.8,30.59c15.74-0.88,29.35-17.02,28.68-33.99
			c-0.68-16.97-15.52-31.79-31.27-31.22c-15.75,0.57-29.64,16.44-29.25,33.42"/>
		<g>
			<path d="M799.55,1685.53c1.18,14.58,10.47,28.22,24.85,32.54c14.77,4.43,29.11-4.2,37.19-16.32c8.58-12.87,9.9-29.57,1.51-42.86
				c-7.69-12.18-22.73-19.36-36.76-14.36c-16.22,5.77-26.82,22.96-26.84,39.82c0,2.71,2.24,3.71,4.51,2.6
				c2.57-1.26,4.34-4.74,4.34-7.52c0.01-13.6,11.17-26.33,25.4-25.29c13.94,1.01,25.66,14.29,26.27,28.01
				c0.6,13.56-10.81,26.7-24.83,25.92c-14.12-0.78-25.68-13.7-26.79-27.44C807.82,1673.37,799.17,1680.81,799.55,1685.53
				L799.55,1685.53z"/>
		</g>
	</g>
	<g>
		<path class="st0" d="M864.71,1680.61c0.75-18.96,16.95-35.67,34.57-35.64c17.61,0.03,33.77,16.79,34.46,35.75
			s-14.17,37.05-31.73,38.58c-17.56,1.53-34.93-13.73-37.08-32.58"/>
		<g>
			<path d="M869.14,1678.15c0.72-11.89,9-22.82,20.48-26.34c12.16-3.73,24.64,2.06,32.19,11.77c7.68,9.88,10.09,23.35,4.08,34.67
				c-5.62,10.58-17.14,17.17-29.13,15.13c-13.99-2.39-25.51-15.19-27.39-29.09c-0.98-7.24-9.49,0.19-8.85,4.91
				c2.16,15.99,12.8,30.27,28.74,34.67c16.23,4.49,31.94-5.02,40.78-18.29c9.42-14.13,10.99-32.36,2.18-47.17
				c-8.06-13.55-24.17-22.26-39.88-17.82c-18.55,5.25-30.92,23.84-32.05,42.49c-0.17,2.75,2.35,3.66,4.51,2.6
				C867.49,1684.35,868.97,1680.98,869.14,1678.15L869.14,1678.15z"/>
		</g>
	</g>
	<g>
		<path class="st0" d="M934.36,1673.78c2.06,17.63,19.05,31.55,35.35,28.94c16.31-2.61,28.81-21.3,25.92-38.79
			s-20.63-30.4-36.76-26.69c-16.13,3.71-27.45,23.33-23.36,40.55"/>
		<g>
			<path d="M930.1,1677.44c2.15,15.33,14.54,29.05,30.24,31c16.06,1.99,29.84-10.13,36.13-23.94c6.53-14.35,5.05-31.58-6.37-43.04
				c-10.48-10.52-26.47-13.93-39.46-5.85c-15.04,9.36-23.06,28.61-19.38,45.84c0.61,2.87,3.87,1.9,5.46,0.61
				c2.21-1.79,3.66-5.11,3.05-7.93c-2.89-13.5,4.9-29.22,19.34-31.63c14.64-2.44,29.17,9.73,32.01,23.72
				c2.86,14.1-6.93,30.1-21.94,31.17c-15.62,1.12-28.51-12.65-30.56-27.27c-0.41-2.95-3.99-1.8-5.46-0.61
				C930.81,1671.4,929.69,1674.52,930.1,1677.44L930.1,1677.44z"/>
		</g>
	</g>
	<g>
		<path class="st0" d="M995.23,1655.59c-12.46-13.78-12.23-38.49,0.48-51.99c12.71-13.51,35.64-13.41,48.24,0.21
			s12.65,38.33,0.09,51.99s-35.49,13.86-48.24,0.41"/>
		<g>
			<path d="M999.04,1650.95c-8.17-9.44-10.93-23.29-6.62-35.11c4.41-12.11,16.92-17.96,29.33-16.46
				c13.18,1.59,23.08,11.19,26.2,23.91c2.83,11.51,0.33,25.63-10.1,32.57c-11.73,7.8-28.45,5.57-38.23-4.3
				c-3.96-4-10.9,5.96-7.61,9.27c11.52,11.62,29.27,14.17,43.75,6.48c15.17-8.06,23.1-26.01,22.02-42.73
				c-1.07-16.56-10.67-31.25-27.21-35.56c-16.41-4.27-33.38,3.8-42.05,17.99c-9.75,15.95-9.59,38.77,2.91,53.21
				C995.06,1664.43,1002.13,1654.53,999.04,1650.95L999.04,1650.95z"/>
		</g>
	</g>
	<g>
		<path class="st0" d="M908.5,588.54c-10.35-29.54-40.52-49.42-69.63-45.89c-29.11,3.54-54.42,30.16-58.41,61.44
			c-44.64-28.47-101.88-32.66-149.69-10.97c-15.62,7.09-30.68,17.21-40.17,32.35c-9.5,15.14-12.37,36.03-3.82,51.8
			c-33.65-22.55-79.64-21.44-112.33,2.69c-32.69,24.14-50.26,69.95-42.91,111.92c-39.36-9.52-83.16,7.25-108.12,41.41
			c-24.96,34.16-29.82,83.98-12,122.98c-37.32,14.15-62.81,58.09-58.26,100.45c4.54,42.36,38.66,78.87,77.99,83.47
			c-24.75,14.55-35.94,49.6-27.93,78.74c8.01,29.14,32.65,51.13,60.08,58.14c27.43,7.02,56.92,0.3,81.57-14.45
			c-20.74,25.11-20.18,67.39,1.22,91.85c21.4,24.46,60.53,27.55,85,6.71c-18.88,23.2-17.3,62.41,3.36,83.76
			c20.67,21.35,57.08,21.39,77.79,0.08c3.51,26.4,22.86,49.54,46.87,56.04s51.2-4.04,65.87-25.52c2.92,28.7,34.37,39.21,57.81,25.24
			"/>
		<g>
			<path d="M912.76,584.88c-8.6-23.73-29.03-42.47-54.08-47.21c-24.93-4.72-49.41,7.61-64.85,26.88
				c-9.37,11.69-15.61,25.79-17.67,40.64c2.46-2.14,4.91-4.27,7.37-6.41c-31.12-19.61-68.27-28.01-104.81-23.98
				c-34.52,3.81-74.42,19.2-92.49,50.81c-9.72,17.01-12.44,38.54-3.26,56.3c2.29-3.32,4.58-6.63,6.88-9.95
				c-28.85-18.98-65.99-21.41-97.45-7.51c-30.93,13.67-52.66,43.07-61.84,75.06c-5.24,18.27-6.43,37.29-3.28,56.04
				c2.12-3.09,4.25-6.18,6.37-9.28c-32.64-7.63-67.38,2.15-93.02,23.28c-27.4,22.57-42.35,56.99-44.13,92.06
				c-1.01,19.92,2.49,40.12,10.66,58.33c1.77-3.06,3.53-6.12,5.3-9.18c-32.25,12.57-54.73,43.22-61.91,76.55
				c-7.37,34.23,3.73,70.38,29.23,94.45c13.62,12.85,30.57,21.69,49.25,24.06c0.68-3.56,1.35-7.12,2.03-10.68
				c-29.31,17.75-41.3,57.55-31.48,89.59c10.58,34.53,43.36,58.7,79.1,60.62c23.31,1.25,46.33-5.9,66.27-17.66
				c-0.78-2.75-1.56-5.5-2.34-8.25c-17.32,21.48-22.06,52.31-12.68,78.21c9.31,25.71,33.16,43.12,60.73,42.98
				c15.3-0.07,29.88-5.4,41.64-15.17c-1.15-2.49-2.31-4.97-3.46-7.46c-15.78,19.91-19.81,48.47-10.41,72.09
				c9.35,23.5,32.06,38.27,57.48,36.32c14.16-1.08,27.49-7.04,37.55-17.11c-1.82-0.2-3.64-0.41-5.46-0.61
				c3.79,26.27,22.39,50.42,48.35,57.8c26.6,7.57,55.47-5.74,70.91-27.76c-2.23-0.24-4.46-0.49-6.68-0.73
				c1.65,13.9,9.22,26.13,22.57,31.48c13.09,5.25,27.69,3.32,39.75-3.64c2.46-1.42,4.49-4.62,4.34-7.52
				c-0.13-2.57-2.15-3.97-4.51-2.6c-20.64,11.9-50.23,3.29-53.3-22.64c-0.49-4.15-4.59-3.71-6.69-0.73
				c-13.97,19.93-40.09,30.19-63.66,22.44c-23.18-7.62-39.14-29.79-42.56-53.43c-0.41-2.83-4.09-1.99-5.46-0.61
				c-19.79,19.82-54.6,19.36-73.69-1.41c-18.01-19.6-20.79-53.77-4-74.96c1.41-1.78,3.04-5.08,1.77-7.34
				c-1.22-2.18-3.55-1.52-5.24-0.12c-18.03,14.98-44.58,16.19-64.85,5c-21.42-11.83-31.81-35.95-30.88-59.77
				c0.51-13.09,4.7-26.08,12.97-36.33c1.96-2.42,3.42-11.65-2.34-8.25c-30.39,17.92-68.95,23.69-100.4,5.01
				c-26.87-15.96-43.83-46.7-38.17-78.1c2.85-15.77,11.06-30.77,25.02-39.22c2.34-1.42,7.56-9.98,2.03-10.68
				c-30.05-3.8-55.57-25.6-67.94-52.72c-13.08-28.66-10-62.06,7.09-88.38c9.09-14.01,22.34-25.59,37.97-31.68
				c2.93-1.14,6.86-5.7,5.3-9.18c-13.16-29.35-14-63.74-2.19-93.69c11.45-29.01,35.85-51.2,65.79-59.98
				c16.37-4.8,33.54-5.33,50.15-1.45c4.22,0.99,6.89-6.21,6.37-9.28c-4.88-29.07,2.3-60.53,20.04-84.18
				c18.44-24.6,47.66-38.4,78.4-37.28c17.7,0.65,34.69,6.09,49.48,15.82c4.48,2.94,8.52-6.77,6.88-9.95
				c-7.37-14.24-5.18-32,3.2-45.33c8.4-13.36,22.3-22.33,36.36-28.8c29.62-13.64,63.59-16.78,95.42-10.18
				c18.43,3.82,35.92,11.05,51.83,21.08c3.32,2.09,7.02-3.89,7.37-6.41c3.79-27.42,25.5-52.13,53.9-54.91
				c28.77-2.82,56.01,17.71,65.58,44.11C906.38,598.12,914.33,589.22,912.76,584.88L912.76,584.88z"/>
		</g>
	</g>
	<g>
		<path class="st0" d="M925.98,1502.8c28.31,23.47,74.82,14.13,93.38-18.76c20.58,7.35,44.67,1.8,60.66-13.98
			c15.99-15.78,23.24-41.15,18.26-63.9c24.34,15.64,59.48,6.86,74.96-18.72s8.74-63.78-14.36-81.47
			c29.32,10.11,63.88,11.18,88.46-8.78c24.59-19.97,30.8-65.75,6.1-85.55c28.56,1.73,59.28,2.88,83.33-13.82
			c24.04-16.7,34.41-58.73,12.23-78.19c24.32-10.91,41.43-38.34,41.62-66.73s-16.54-56.09-40.71-67.38
			c8.3-29.73,15.61-62.35,4.82-91.14c-10.79-28.79-47.76-47.31-69.56-27.01c21.19-22.14,20.1-64.01-2.2-84.83
			c-22.31-20.83-60.91-16.02-78.22,9.73c25.37-25.8,14.66-76.96-15.61-95.64c-30.27-18.68-70.63-8.73-97,15.87
			c10.49-33.87-1.16-74.29-27.6-95.8c-26.44-21.51-65.7-22.5-93.05-2.35c10.91-17.51,3.55-44.83-14.36-53.32
			c-17.92-8.49-41.57,4.13-46.17,24.64"/>
		<g>
			<path d="M922.91,1508.12c31.9,25.83,80.02,11.65,99.64-22.24c-2.09,1.16-4.17,2.32-6.26,3.47c23.48,8.02,49.34,1.14,66.52-16.63
				c17.69-18.3,24.85-45.47,19.73-70.22c-2.44,2.99-4.89,5.98-7.33,8.98c21.12,13.17,48.73,9.3,67.52-6.24
				c20.2-16.7,27.26-44.83,21.06-69.8c-3.39-13.65-10.75-26.04-21.85-34.78c-2.05,3.54-4.09,7.09-6.14,10.63
				c27.96,9.46,60.91,11.72,86.57-5.32c21.03-13.96,33.13-40.07,30.99-65.21c-1.14-13.4-6.38-25.75-16.86-34.43
				c-1.73,3.64-3.45,7.29-5.18,10.93c28.06,1.69,58.81,2.86,83.46-13c19.07-12.27,31.1-35.39,30.84-58.03
				c-0.14-12.25-4.45-23.6-13.57-31.9c-0.99,3.46-1.99,6.92-2.98,10.38c27.08-12.54,44.46-41.91,45.88-71.27
				c1.43-29.6-14.98-60.21-41.98-73.23c0.41,1.41,0.82,2.82,1.23,4.22c7.89-28.4,15.2-59.59,6.46-88.69
				c-6.2-20.66-23.5-38.64-45.38-42.07c-11.47-1.8-22.73,1.7-31.34,9.43c1.15,2.49,2.31,4.97,3.46,7.46
				c17.89-19.2,22.3-50,12.03-73.95c-10.42-24.31-35.57-36.98-61.42-31.35c-14.33,3.13-27.22,11.76-35.57,23.82
				c-1.33,1.92-3.39,5.56-1.55,7.83c1.87,2.3,4.62,0.06,6.07-1.45c19.6-20.46,20.33-52.67,8.56-77.23
				c-13.68-28.54-44.1-41.03-74.62-35.55c-18.7,3.36-36.09,12.77-50.01,25.55c1.7,1.55,3.4,3.09,5.1,4.64
				c8.13-27.11,4.55-57.13-10.56-81.21c-15.17-24.19-42.22-38.69-70.85-37.29c-16.17,0.79-31.24,6.27-44.34,15.72
				c1.46,2.04,2.93,4.08,4.39,6.11c11.35-19.04,7.37-49.55-13.95-60.21c-23.14-11.57-48.56,8.37-54.07,30.78
				c-0.57,2.34,0.6,4.9,3.26,4.43c2.88-0.51,4.73-4.11,5.34-6.61c4.25-17.27,26.35-25.98,41.4-16.81
				c14.15,8.62,20.19,30.39,11.64,44.75c-2.41,4.05-0.66,9.76,4.39,6.11c20.92-15.08,49.78-17.09,73.05-6.39
				c23.04,10.6,38.17,32.67,43.63,57.04c3.15,14.05,3.03,29.02-1.12,42.86c-1.12,3.75,1.06,8.34,5.1,4.64
				c21.27-19.53,53.3-30.8,81.46-20.33c23.86,8.87,38.65,32.58,39.66,57.62c0.53,12.96-2.88,25.51-11.98,35.01
				c1.51,2.13,3.01,4.25,4.52,6.38c12.44-17.98,36.85-24.99,57.27-17.29c21.54,8.13,32.37,30.59,31.67,52.71
				c-0.39,12.34-4.57,24.22-13.03,33.3c-3.22,3.46-2.06,12.42,3.46,7.46c19.31-17.33,47.97-0.82,59.62,17.53
				c18.15,28.59,7.98,67.38-0.38,97.44c-0.35,1.27-0.16,3.55,1.23,4.22c23.61,11.38,39,36.92,39.35,63
				c0.34,25.4-14.07,49.99-37.27,60.74c-3.33,1.54-6.06,7.58-2.98,10.38c17.96,16.33,11.73,46.9-3.52,62.79
				c-21.52,22.44-58.61,19.98-86.86,18.28c-4.42-0.27-8.9,7.85-5.18,10.93c20.31,16.82,17.62,50.78,1.99,69.77
				c-21.36,25.96-61.7,23.65-90.41,13.93c-4.75-1.61-10.24,7.4-6.14,10.63c20.94,16.48,28.23,50.52,14.58,73.73
				c-13.71,23.33-46.58,29.82-69.04,15.82c-4.28-2.67-7.95,5.97-7.33,8.98c4.08,19.73-1.04,42.18-15.76,56.49
				c-14.51,14.12-36.72,18.94-55.84,12.41c-2.67-0.91-4.99,1.28-6.26,3.47c-17.38,30.02-60.52,36.83-87.12,15.29
				C925.35,1494.49,918.88,1504.85,922.91,1508.12L922.91,1508.12z"/>
		</g>
	</g>
</g>
<g id="Ebene_3">
	<g>
		<path class="st2" d="M505.75,938.95c-40.32-14.7-89.24-0.23-115.42,34.14c-26.18,34.36-27.59,85.96-3.33,121.74
			c24.26,35.78,72.31,52.97,113.37,40.56c24.9,66.52,56.43,131.27,101.19,186.1s103.61,99.45,171.24,118.67
			c94.32,26.81,229.24-2.28,287.37-46.48c100.49-76.42,138.46-257.68,138.46-257.68s91.98,2.04,117.3-32.88
			c25.32-34.92,23.58-105.72-5.44-137.55c-21.08-23.13-69.24-29.84-120.17-24.23c-18.02-42.64-24.11-77.08-26.42-118.88
			c-107.61,11.85-218.29-70.11-244.07-176.6C786.53,828.12,562.36,810.18,562.36,810.18s-3.38,109.99-53.91,130.15"/>
		<g>
			<path class="st2" d="M508.92,933.46c-50.42-17.93-109.11,6.71-132.26,54.84c-11.86,24.65-14.73,53.45-7.73,79.93
				c6.79,25.65,23.26,47.52,45.96,61.25c25.07,15.16,56.21,19.88,84.41,11.6c-1.11-0.64-2.21-1.28-3.32-1.92
				c30.97,82.56,72.37,163.72,136.9,225.24c29.45,28.07,63.13,51.91,100.5,68.21c35.52,15.5,73.19,22.87,111.87,23.57
				c38.65,0.7,77.58-4.17,115.03-13.71c31.7-8.07,63.8-19.41,91.3-37.46c26.34-17.28,48-41.43,65.97-67.09
				c18.54-26.47,33.69-55.12,46.59-84.71c16.28-37.35,29.61-76.57,38.51-116.38c0.15-0.65,0.29-1.31,0.43-1.96
				c-2.21,2.31-4.41,4.61-6.62,6.92c15.17,0.32,30.5-0.83,45.53-2.79c23.55-3.07,50.47-8.41,68.85-24.59
				c21.57-18.98,27.72-53.05,27.4-80.36c-0.33-27.82-7.6-61.09-30.39-79.4c-13.62-10.94-31.66-15.9-48.62-18.53
				c-22.43-3.49-45.32-2.88-67.82-0.47c1.11,0.64,2.21,1.28,3.32,1.92c-15.87-37.81-23.93-76.79-26.25-117.64
				c-0.13-2.24-1.3-3.39-3.49-3.16c-84.24,8.96-167.97-39.54-212.67-109.49c-12.84-20.08-22.39-42.04-28.08-65.19
				c-0.92-3.73-5.32-1.42-6.73,0.49c-44.74,60.92-106.52,106.7-177.22,133.15c-47,17.58-97.24,27.49-147.41,28.99
				c-9.42,0.28-18.94,0.44-28.35-0.31c-3.99-0.32-6.64,5.04-6.74,8.33c-0.38,12.16-1.84,23.76-3.86,36.04
				c-3.62,21.93-9.09,44.67-20.78,63.83c-5.99,9.82-14.01,18.11-24.78,22.53c-4.53,1.86-6.8,13.31,0.18,10.44
				c22.87-9.4,35.87-34,43.62-56.12c7.47-21.31,11.54-43.81,13.65-66.25c0.49-5.17,0.95-10.36,1.11-15.55
				c-2.25,2.78-4.5,5.55-6.74,8.33c28.24,2.24,57.49-0.7,85.36-4.95c63.18-9.64,124.96-31.82,178.18-67.48
				c38.05-25.5,71.34-57.49,98.45-94.41c-2.24,0.16-4.48,0.32-6.73,0.49c20.67,84.1,91.97,152.56,175.51,173.5
				c23.52,5.89,47.78,7.59,71.88,5.02c-1.16-1.05-2.33-2.11-3.49-3.16c2.37,41.66,10.41,81.56,26.59,120.13
				c0.69,1.64,1.58,2.1,3.32,1.92c19.16-2.06,38.59-2.55,57.76-0.38c15.25,1.72,30.76,5.03,44.39,12.35
				c24.79,13.31,34.73,42,37.11,68.6c1.3,14.48,0.53,29.15-2.74,43.33c-2.62,11.37-7.02,24.06-15.27,32.65
				c-14.97,15.58-40.71,20.26-61.12,23.31c-16,2.39-32.39,3.67-48.58,3.33c-3.5-0.07-5.99,3.94-6.62,6.92
				c-6.73,32.03-17.23,63.37-29.24,93.95c-21.93,55.81-51.75,112.97-98.4,152.1c-23.71,19.89-52.71,32.39-81.99,41.63
				c-35.76,11.27-73.21,17.85-110.66,19.48c-36.57,1.59-73.78-1.44-108.7-12.9c-38.3-12.57-73.6-33.32-104.61-58.93
				c-66.61-55.02-111.39-131.48-143.91-210.48c-4.14-10.05-8.09-20.18-11.91-30.36c-0.54-1.44-1.7-2.39-3.32-1.92
				c-46.45,13.64-100.38-10.55-119.21-55.63c-9.39-22.49-10.68-48.57-2.98-71.76c7.58-22.85,23.67-41.08,45.03-52.04
				c23.92-12.27,52.86-14.87,78.3-5.82C507.61,946.22,513.52,935.1,508.92,933.46L508.92,933.46z"/>
		</g>
	</g>
</g>
<g id="Ebene_9">
	<g>
		<path class="st3" d="M911.27,1235.27c-6.42-13.36-28.58-12.19-35.87,0.71c-7.3,12.89-0.33,30.76,12.46,38.05
			c12.79,7.28,29.18,5.43,42.21-1.41c10.89-5.72,20.41-15.34,23.21-27.44c2.8-12.1-2.78-26.47-14.18-31.05s-26.68,4.41-26.24,16.83"
			/>
		<g>
			<path class="st3" d="M915.2,1230.49c-8.05-15.35-30.42-12.3-40.2-0.57c-12.46,14.96-7.53,38.65,8.54,48.9
				c18.72,11.93,44.84,3.9,59.83-10.44c13.94-13.33,22.01-37.37,7.5-53.47c-15.29-16.95-42.45-2.68-42.59,18.58
				c-0.02,2.8,2.32,3.83,4.65,2.69c2.67-1.3,4.46-4.88,4.48-7.75c0.04-5.52,5.49-8.59,10.42-9.45c6.45-1.12,12.51,1.9,16.43,6.99
				c8.83,11.47,5.27,26.05-5.03,35.11c-11.61,10.2-29.86,15.44-44.57,9.25c-10.85-4.56-22.19-19.28-16.42-31.58
				c5.32-11.36,24.01-8.4,29.1,1.31C909.8,1244.73,917.5,1234.88,915.2,1230.49L915.2,1230.49z"/>
		</g>
	</g>
</g>
<g id="Ebene_2">
	<g>
		<g>
			<path d="M515.33,933.8c-50.2-22.11-112.14-0.5-138.25,47.6c-13.08,24.09-17.47,52.61-12.16,79.51
				c5.23,26.47,20.66,49.68,42.81,65.03c24.36,16.89,55.34,23.58,84.36,17.12c4.61-1.03,8.45-12.79,2.15-11.39
				c-47.87,10.66-100.54-17.62-116.72-64.22c-8.12-23.38-7.54-49.57,1.62-72.55c9.11-22.85,27.12-40.39,49.63-50.05
				c25.29-10.84,55.01-11.2,80.24-0.08C513.84,946.9,519.93,935.83,515.33,933.8L515.33,933.8z"/>
		</g>
	</g>
	<g>
		<g>
			<path d="M1188.08,947.15c27.06-2.97,55.29-6.01,81.84,1.88c22.85,6.79,42.68,21.89,51.23,44.63c8.32,22.12,9.25,48.99,5.51,72.18
				c-1.86,11.53-5.39,23.01-12.11,32.68c-6.42,9.25-15.49,16.27-25.42,21.42c-27.12,14.04-58.66,13.02-88.32,12.08
				c-4.93-0.16-9.84,11.41-4.36,11.59c29.16,0.92,59.19,1.54,86.5-10.22c24.29-10.46,42-30.27,49.39-55.67
				c7.23-24.86,7.07-53.84,1.33-79.01c-5.91-25.93-22.19-46.11-46.68-56.71c-30.64-13.26-64.51-9.76-96.77-6.22
				C1185.54,936.28,1181.54,947.87,1188.08,947.15L1188.08,947.15z"/>
		</g>
	</g>
	<g>
		<g>
			<path d="M488.75,1141.14c20.72,65.34,53.58,127.28,97.3,180.16c42.61,51.55,96.49,95.09,159.33,119.2
				c61.19,23.48,129.26,29.42,193.42,15.61c31.83-6.85,62.75-18.68,90.65-35.53c29.23-17.65,54.77-40.79,76.36-67.18
				c45.27-55.31,72.57-123.04,90.92-191.49c2.25-8.38,4.35-16.79,6.34-25.23c0.57-2.41-0.6-5.05-3.37-4.57
				c-2.96,0.52-4.9,4.24-5.51,6.82c-15.82,66.85-39.14,133.88-79.48,190.16c-19.52,27.24-42.96,52-70.46,71.31
				c-26.02,18.27-55.36,31.61-85.97,40.06c-61.7,17.04-128.73,14.74-189.55-4.92c-62.56-20.22-117.17-59.34-161.03-107.85
				c-44.74-49.47-79.27-108.29-102.23-170.84c-2.82-7.7-5.46-15.46-7.94-23.27C495.59,1127.45,487.31,1136.6,488.75,1141.14
				L488.75,1141.14z"/>
		</g>
	</g>
	<g>
		<g>
			<path d="M513.4,943.69c16.04-16.21,25.34-38.49,32.94-59.63c7.25-20.16,12.94-40.92,17.66-61.82c0.99-4.38,1.96-8.77,2.79-13.19
				c-2.21,2.31-4.41,4.61-6.62,6.92c28.17,1.65,57.22-1.78,84.91-6.46c63.01-10.65,124.46-33.49,177.54-69.33
				c38.12-25.74,71.57-57.82,98.91-94.81c-2.24,0.16-4.48,0.32-6.73,0.49c29.47,80.39,97.75,144.34,179.2,170.2
				c22.79,7.24,46.39,11.47,70.3,12.27c-0.8-1.09-1.59-2.17-2.39-3.26c2.56,40.72,9.28,81.82,24,120.02
				c2.34,6.08,10.5-3.1,8.79-7.55c-14.43-37.45-21.15-77.61-23.66-117.54c-0.09-1.39-0.67-3.2-2.39-3.26
				c-83.6-2.83-162.92-47.95-211.55-115.46c-13.97-19.39-25.3-40.54-33.53-62.98c-1.27-3.46-5.09-1.73-6.73,0.49
				C872,699.54,810.36,745.48,740.04,772.75c-46.79,18.14-96.86,28.91-147,31.38c-9.46,0.47-19.03,0.81-28.5,0.26
				c-3.43-0.2-6.07,4.05-6.62,6.92c-6.18,32.68-15.22,66.12-29.49,96.22c-4.57,9.64-9.93,19.68-17.51,27.34
				c-1.91,1.93-4.21,5.28-3.15,8.18C508.71,945.66,511.63,945.48,513.4,943.69L513.4,943.69z"/>
		</g>
	</g>
	<g>
		<g>
			<path d="M826.36,1255.08c60.11,10.11,123.33-9.33,168.1-50.51c1.98-1.82,4.18-5.36,3.15-8.18c-0.98-2.68-3.8-2.32-5.64-0.63
				c-43.05,39.6-103.59,57.43-161.26,47.74C825.92,1242.68,820.71,1254.13,826.36,1255.08L826.36,1255.08z"/>
		</g>
	</g>
	<g>
		<g>
			<path d="M837.95,1040.63c8.46-6.91,20.9-7.91,30.78-3.58c9.86,4.32,16.33,13.7,17.29,24.39c0.92,10.26-3.17,19.55-12.51,24.36
				c-9.52,4.89-21.14,4.21-30.16-1.37c-4.37-2.7-10.79,8.21-6.33,10.97c11.81,7.3,27.27,6.79,39.01-0.48
				c12.26-7.6,19.38-21.46,19.25-35.81c-0.13-13.78-7.29-27.32-20.22-33.01c-13.24-5.83-28.49-3.35-39.6,5.73
				c-2.06,1.68-4.14,5.46-3.15,8.18C833.33,1042.79,836.05,1042.18,837.95,1040.63L837.95,1040.63z"/>
		</g>
	</g>
	<g>
		<path d="M779.47,939.64c-1.78-8.14,0.27-16.55,1.81-24.74c1.54-8.18,2.51-17.05-1.16-24.51s-13.68-12.21-20.47-7.51
			c-7.19,4.97-6.15,15.68-6.71,24.48c-0.44,7-2.39,13.81-3.43,20.74c-1.04,6.94-1.09,14.34,2.04,20.6s10.16,10.93,16.91,9.39
			c6.76-1.54,11.1-10.78,6.74-16.23"/>
		<g>
			<path d="M783.86,935.86c-3.05-16.71,8.75-33.99,0.19-50.25c-6.5-12.35-22.57-13.63-30.4-2.02c-3.76,5.58-4.65,12.2-4.97,18.78
				c-0.41,8.55-1.88,16.55-3.3,24.98c-2.21,13.11-1.31,31.75,14.22,36.18c13.74,3.92,27.83-14.36,19.54-26.45
				c-3.14-4.58-10.66,5.48-7.86,9.57c3.54,5.16-2.75,6.69-6.82,5.39c-6.58-2.1-10.11-8.6-10.86-15.1
				c-0.82-7.15,1.16-14.28,2.47-21.24c1.24-6.61,1.35-13.11,1.81-19.78c0.37-5.34,1.35-10.11,7.93-8.91
				c5.97,1.08,10.19,6.12,11.59,11.8c1.71,6.94,0,14.17-1.3,21.03c-1.5,7.91-2.49,15.6-1.03,23.59c0.55,3,4.04,1.92,5.64,0.63
				C783.05,942.15,784.4,938.82,783.86,935.86L783.86,935.86z"/>
		</g>
	</g>
	<g>
		<path d="M940.92,926.06c3.59-7.96,7.27-16.43,6.29-25.13c-0.98-8.7-8.62-17.25-17.13-15.75c-9.25,1.63-13.11,12.83-14.32,22.26
			c-1.29,10.09-1.62,20.31-0.98,30.47c0.46,7.27,2.49,15.92,9.3,18.27c5.99,2.06,12.62-2.42,15.29-8.22
			c2.67-5.81,2.39-12.5,2.06-18.89"/>
		<g>
			<path d="M944.93,926.43c5.58-12.42,11.76-29.19,1.4-40.98c-9.04-10.27-22.07-6.16-28.73,4.38c-7.75,12.26-7.91,28.97-7.69,42.98
				c0.16,10.11,0.74,28.75,14.58,29.65c6.92,0.45,13.25-4.74,16.79-10.22c4.97-7.69,5.15-16.88,4.71-25.72
				c-0.37-7.47-9.37,0.21-9.13,5.07c0.26,5.18,1.54,13.63-2.91,17.43c-4.29,3.66-9.77,1.33-12.15-3.2
				c-2.56-4.86-2.57-10.83-2.72-16.17c-0.2-7.15,0.05-14.34,0.88-21.45c0.93-7.99,4.4-22.91,15.71-15.6
				c12.02,7.78,5.81,22.89,1.23,33.08c-0.91,2.03-0.95,5.72,1.84,6.17C941.67,932.33,943.97,928.56,944.93,926.43L944.93,926.43z"/>
		</g>
	</g>
	<g>
		<g>
			<path d="M917.66,848.02c24.6-0.79,48.39,9.89,64.06,28.9c3.63,4.4,10.97-5.78,7.85-9.57c-16.49-20-41.57-31.75-67.56-30.92
				C917.09,836.6,912.32,848.19,917.66,848.02L917.66,848.02z"/>
		</g>
	</g>
	<g>
		<g>
			<path d="M717.56,874.61c15.45-17.9,39.91-25.88,63.04-21.96c4.8,0.81,10.01-10.63,4.36-11.59c-26.98-4.57-54.35,6.44-72.06,26.97
				c-1.56,1.8-3.39,5.87-1.6,8.07C713.18,878.41,716.14,876.26,717.56,874.61L717.56,874.61z"/>
		</g>
	</g>
	<g>
		<g>
			<path d="M1220.17,977.45c33.53,5.09,61.4,34.68,64.41,68.51c0.67,7.48,9.56-0.19,9.13-5.07c-3.29-37-32.1-69.39-69.18-75.02
				C1219.7,965.13,1214.53,976.59,1220.17,977.45L1220.17,977.45z"/>
		</g>
	</g>
	<g>
		<g>
			<path d="M471.08,955.33c-41.8,5.57-73.88,49.05-69.46,90.49c0.8,7.48,9.65-0.19,9.13-5.07c-3.8-35.56,22.71-69.3,58.18-74.03
				C473.62,966.09,477.59,954.46,471.08,955.33L471.08,955.33z"/>
		</g>
	</g>
</g>
<g id="Ebene_8">
	<ellipse class="st4" cx="771.43" cy="897.55" rx="5.66" ry="5.74"/>
	<ellipse class="st4" cx="936.36" cy="902.48" rx="5.45" ry="5.52"/>
</g>
<g id="Ebene_10">
	<g class="st5">
		<path class="st3" d="M730.79,1218.98c-1.24-19.99-18.6-37.13-38.22-39.62c-19.62-2.49-39.76,8.7-49.87,25.9
			c-10.11,17.21-10.56,39.37-2.92,57.84c8.48,20.51,27.22,36.87,48.92,40.24c21.7,3.37,45.4-7.48,55.53-27.21
			c10.12-19.73,4.36-46.95-13.94-59.23"/>
		<g>
			<path class="st3" d="M735.36,1216.45c-2.18-27.03-27.48-46.68-54.18-42.58c-29.78,4.58-49.55,32.8-51.11,61.57
				c-1.53,28.23,14.31,56.69,40.2,68.72c24.52,11.4,54.55,4.17,71.36-17.08c17.72-22.41,16.36-58.58-8.17-75.66
				c-4.14-2.89-10.68,7.94-6.33,10.97c16.6,11.56,22.96,36.65,12.45,54.31c-11.34,19.06-37.39,25.62-57.59,18.67
				c-22.3-7.66-38.66-28.57-42.19-51.66c-3.67-23.97,7.4-48.63,31.38-56.57c24.12-7.99,52.93,7.93,55.06,34.38
				C726.83,1229,735.75,1221.32,735.36,1216.45L735.36,1216.45z"/>
		</g>
	</g>
	<g class="st5">
		<path class="st3" d="M1110.51,1156.51c-1.24-19.98-18.6-37.13-38.22-39.62c-19.62-2.49-39.76,8.7-49.87,25.9
			c-10.11,17.21-10.56,39.37-2.92,57.84c8.48,20.51,27.22,36.87,48.92,40.24c21.7,3.37,45.4-7.48,55.53-27.21
			c10.12-19.73,4.36-46.95-13.94-59.23"/>
		<g>
			<path class="st3" d="M1115.07,1153.98c-2.18-27.03-27.48-46.68-54.18-42.58c-29.78,4.58-49.55,32.8-51.11,61.57
				c-1.53,28.23,14.31,56.69,40.2,68.72c24.52,11.4,54.55,4.17,71.36-17.08c17.72-22.41,16.36-58.58-8.17-75.66
				c-4.14-2.89-10.68,7.94-6.33,10.97c16.6,11.56,22.96,36.65,12.45,54.31c-11.34,19.06-37.39,25.62-57.59,18.67
				c-22.3-7.66-38.66-28.57-42.19-51.66c-3.67-23.97,7.4-48.63,31.38-56.57c24.12-7.99,52.93,7.93,55.06,34.38
				C1106.55,1166.53,1115.47,1158.85,1115.07,1153.98L1115.07,1153.98z"/>
		</g>
	</g>
</g>
<g id="Ebene_13">
	<g class="st6">
		<path d="M403.6,961.42c-8.06,34.31-3.91,71.78,11.43,103.07c15.34,31.29,41.71,56.12,72.54,68.29
			c-36.24,5.53-74.72-14.09-93.74-47.79s-17.49-79.55,3.73-111.68"/>
		<g>
			<path d="M391.77,958.16c-13.35,58.34,4.75,123.09,51.39,161.95c12.5,10.41,26.08,18.45,41.16,24.51c0-7.89,0-15.78,0-23.68
				c-23.27,3.34-49.16-6.83-66.58-24.49c-19.21-19.47-26.82-46.98-24.46-74.1c1.29-14.87,6.55-29.97,14.91-42.85
				c3.61-5.56,1.13-13.56-4.4-16.8c-5.96-3.49-13.18-1.17-16.8,4.4c-18.56,28.62-23.32,65.76-14.26,98.49
				c9.09,32.82,32.76,59.52,64.15,72.59c17.24,7.18,35.56,9.07,53.97,6.43c5.24-0.75,9.01-6.95,9.01-11.84
				c0-5.81-3.93-9.8-9.01-11.84c-59.83-24.03-89.52-94.52-75.4-156.26c1.48-6.46-1.99-13.29-8.57-15.1
				C400.68,947.88,393.25,951.66,391.77,958.16L391.77,958.16z"/>
		</g>
	</g>
	<g class="st6">
		<path d="M419.69,795.25c-37.7-1.85-75.69,18.74-96.8,52.46c-21.1,33.72-24.57,79.4-8.85,116.38
			c-33.95,15.58-55.88,57.1-50.97,96.51c4.9,39.41,36.2,73.24,72.76,78.63c-27.77,31.42-26.49,87.25,2.68,117.16
			s80.97,28.5,108.7-2.96c-16.88,27.26-17.58,66.52,1.93,91.66c19.5,25.14,59.23,30.07,80.95,7.14
			c-14.75,25.4-12.43,60.94,5.48,83.86c17.91,22.92,50.01,31.43,75.74,20.09c48.4,43.11,119,54.94,177.35,30.09
			c1.11-0.47,0.6-1.52-0.18-2.5c-43.04-53.78-127.36-63.84-178.71-115.69c-52.3-52.82-112.12-222.8-122.2-219.51
			c-146,47.65-187.1-229.29-31.89-219.11c152.64,10.01-9.39-57.21-29.39-126.17"/>
		<g>
			<path d="M419.69,782.97c-32.88-1.36-65.28,12.34-88.67,35.21c-24.67,24.13-37.78,57.88-38.94,92.1
				c-0.66,19.38,2.66,39.16,10.13,57.07c1.88-4.62,3.76-9.24,5.64-13.86c-30.41,14.3-51.37,46.23-56.29,79.01
				c-5.16,34.33,6.41,69.42,31.82,93.38c13.56,12.78,30.66,22.28,49.19,25.19c-1.81-6.84-3.61-13.68-5.42-20.52
				c-24.42,28.17-30.23,70.4-16.24,104.78c7.3,17.94,19.38,33.43,36.31,43.24c15.51,8.99,34.29,13.08,52.13,11.24
				c21.58-2.23,41.91-11.43,56.55-27.7c-6.43-4.96-12.85-9.92-19.28-14.88c-15.67,25.85-19.14,59.6-7.35,87.63
				c11.22,26.68,37.12,45.11,66.53,44.37c16.16-0.41,31.64-6.7,42.97-18.32c-6.43-4.96-12.85-9.92-19.28-14.88
				c-13.15,23.23-15.06,52.82-4.9,77.55c10.11,24.61,31.47,43.72,58.09,48.43c15.54,2.75,30.35,0.93,44.82-5.24
				c-4.96-0.64-9.92-1.28-14.88-1.92c50.05,44.16,123.87,59.69,186.48,34.41c6.23-2.52,12.44-5.85,12.44-13.64
				c0-5.64-3.55-9.66-7.01-13.69c-4.72-5.5-9.92-10.57-15.45-15.24c-11.73-9.91-24.62-18.28-38.06-25.67
				c-26.59-14.61-54.88-25.88-81.22-40.98c-13.22-7.57-25.31-15.65-36.15-25.63c-4.1-3.78-7.99-7.77-11.61-12.01
				c-1.5-1.76-2.95-3.57-4.4-5.37c-1.11-1.38,1.23,1.63,0.16,0.21c-0.39-0.52-0.79-1.04-1.18-1.56c-0.9-1.19-1.78-2.4-2.65-3.61
				c-14.16-19.66-25.88-41.08-36.95-62.59c-20.55-39.94-37.29-81.71-57.81-121.63c-2.77-5.38-5.62-10.85-9.56-15.5
				c-1.44-1.71-3.06-3.16-5.01-4.3c-5.3-3.08-10.4-1.17-15.8,0.32c-4.63,1.28-9.32,2.23-14.06,2.94c2.79-0.41,0.27-0.06-0.98,0.06
				c-0.97,0.09-1.95,0.17-2.93,0.24c-2.32,0.15-4.64,0.22-6.96,0.19c-1.99-0.02-3.98-0.11-5.96-0.27c-0.91-0.07-1.82-0.2-2.73-0.26
				c-2.12-0.14,0.71,0.11,0.96,0.15c-0.63-0.1-1.27-0.18-1.9-0.29c-3.97-0.69-7.88-1.58-11.72-2.8c-1.76-0.56-3.47-1.26-5.22-1.86
				c-1.56-0.54,2.31,1.09-0.45-0.19c-1-0.46-1.99-0.92-2.97-1.41c-3.48-1.73-6.83-3.71-10.04-5.9c-0.7-0.48-1.4-0.97-2.09-1.47
				c-1.18-0.86-2.41-1.91-0.42-0.28c-1.51-1.24-3.02-2.46-4.48-3.76c-2.93-2.62-5.7-5.42-8.31-8.36c-1.32-1.49-2.55-3.04-3.82-4.57
				c-1.36-1.64,1.59,2.24-0.13-0.19c-0.65-0.92-1.33-1.82-1.98-2.74c-2.32-3.32-4.47-6.76-6.46-10.29
				c-2.01-3.58-3.86-7.26-5.53-11.01c-0.2-0.44-1.41-3.28-0.61-1.38c0.81,1.93-0.55-1.4-0.7-1.78c-0.76-1.94-1.48-3.89-2.16-5.86
				c-2.73-7.94-4.79-16.1-6.18-24.38c-0.15-0.91-0.29-1.82-0.43-2.73c-0.54-3.39,0.12,1.48-0.1-0.64c-0.21-2.09-0.47-4.17-0.65-6.26
				c-0.34-4.16-0.52-8.34-0.52-12.52c0-4.14,0.18-8.28,0.54-12.4c0.09-1.02,0.19-2.04,0.3-3.07c0.1-0.95,0.64-4.3,0.03-0.54
				c0.33-2.01,0.6-4.02,0.98-6.02c1.48-7.93,3.99-15.32,6.67-22.89c-0.69,1.96-0.69,1.55,0.06-0.09c0.41-0.88,0.81-1.77,1.23-2.64
				c0.84-1.74,1.73-3.45,2.68-5.14c1.88-3.35,4.01-6.51,6.23-9.64c1.69-2.39-1.63,1.89,0.27-0.34c0.54-0.63,1.06-1.29,1.6-1.92
				c1.32-1.53,2.69-3.02,4.12-4.44c1.26-1.26,2.57-2.49,3.92-3.66c0.72-0.63,1.48-1.21,2.2-1.85c1.38-1.23-2.09,1.46,0.37-0.28
				c3.2-2.27,6.47-4.39,9.94-6.21c1.78-0.93,3.6-1.76,5.44-2.59c-2.11,0.95-1.12,0.45,0.26-0.06c1.1-0.4,2.19-0.81,3.29-1.18
				c4.09-1.37,8.29-2.42,12.53-3.18c1.11-0.2,2.23-0.33,3.33-0.54c-2.39,0.44-0.95,0.12,0.58-0.04c2.51-0.26,5.02-0.44,7.54-0.52
				c23.29-0.81,48.31,5.09,71.09-2.22c7.81-2.51,15.17-7.26,17.56-15.57c2.05-7.14-0.53-14.71-4.44-20.7
				c-9.45-14.49-23.75-25.85-36.37-37.43c-7.71-7.07-15.37-14.2-22.68-21.68c-3.72-3.8-7.35-7.69-10.84-11.72
				c-1.7-1.97-3.32-4-4.98-5.99c-1.41-1.68,1.1,1.52-0.72-0.92c-0.84-1.13-1.68-2.27-2.5-3.43c-2.61-3.7-5.05-7.54-7.17-11.54
				c-0.54-1.02-1.07-2.06-1.57-3.1c-0.32-0.66-1.74-4.18-0.49-0.96c-0.8-2.06-1.56-4.12-2.19-6.24c-4.5-15.11-28.2-8.67-23.68,6.53
				c5.41,18.16,17.29,33.65,29.88,47.46c12.57,13.78,26.58,26.13,40.27,38.77c5.66,5.23,11.31,10.49,16.53,16.16
				c0.99,1.08,1.97,2.18,2.92,3.3c0.47,0.55,0.9,1.19,1.41,1.71c-0.09-0.09-1.5-2.13-0.12-0.12c0.71,1.04,1.43,2.06,2.06,3.15
				c0.28,0.49,0.52,1.02,0.82,1.5c1.25,2.01-0.49-1.93-0.33-0.88c0.12,0.77,0.82,3.84,0.49,1.05c-0.31-2.62-0.09-0.81-0.11-0.19
				c-0.06,2.32,0.56-2.85,0.23-1.57c-0.37,1.44,1.88-3.01,0.1-0.47c0.25-0.36,2.29-2.72,0.96-1.37c-1.56,1.57,2.08-0.99,0.9-0.64
				c-0.41,0.12-1.01,0.59-1.38,0.82c-2.27,1.44,0.39-0.68,0.83-0.27c-0.14-0.13-4,1.27-4.37,1.37c-1.68,0.42-3.44,0.55-5.1,1
				c-0.58,0.16,2.42-0.25-0.12,0.01c-1.24,0.13-2.48,0.26-3.73,0.35c-22.51,1.77-44.97-2.52-67.38,0.68
				c-15.28,2.18-30.2,8.03-42.53,17.38c-25.55,19.37-38.02,49.48-41.19,80.71c-3.13,30.85,3.49,63.23,18.03,90.58
				c14.3,26.89,38.42,49.58,68.65,56.68c16.95,3.98,34.62,3.18,51.42-1.18c1.96-0.51,4-0.96,5.88-1.69
				c3.01-1.16-0.92-0.04-1.54-0.05c-1.99-0.01-4.12-0.68-5.38-1.4c1.03,0.59-3.39-2.28-1.18-0.8c2.33,1.56-1.47-2.32-0.27-0.41
				c2.65,4.23,5.11,8.49,7.38,12.94c17.99,35.29,33.04,72.05,50.68,107.53c10.08,20.27,20.66,40.37,32.73,59.54
				c11.05,17.54,23.42,34.38,39.28,47.87c42.32,35.98,97.54,49.56,142.29,81.55c4.69,3.35,8.61,6.52,13.38,10.93
				c2.16,2,4.25,4.06,6.27,6.2c1.09,1.15,2.16,2.32,3.21,3.52c0.6,0.68,1.16,1.4,1.77,2.07c1.63,1.77-0.11,1.4-0.62-1.45
				c1.05-3.98,2.1-7.96,3.16-11.94c-0.21,0.21-0.41,0.43-0.62,0.64c1.81-1.05,3.61-2.1,5.42-3.16
				c-55.17,23.18-120.17,12.97-165.4-26.94c-4.57-4.03-9.51-4.21-14.88-1.92c-9.75,4.15-21.83,4.32-32.69,1.19
				c-10.4-2.99-20.5-9.54-27.14-18.04c-15.49-19.83-16.62-49.06-4.6-70.31c6.78-11.98-9.38-25.03-19.28-14.88
				c-2.84,2.91-3.46,3.54-6.57,5.47c-1.44,0.9-2.93,1.71-4.46,2.45c-1.35,0.62-1.53,0.71-0.55,0.27c-0.79,0.3-1.58,0.59-2.38,0.85
				c-1.6,0.52-3.23,0.97-4.87,1.33c-0.82,0.18-1.65,0.34-2.48,0.48c1.18-0.12,1.01-0.1-0.5,0.06c-3.42,0.28-6.76,0.23-10.18,0.02
				c-10.22-0.63-22.17-6.93-29.9-15.99c-8.14-9.54-12.34-24.08-12.68-36.95c-0.39-14.96,3.18-29.05,10.98-41.92
				c7.11-11.73-9.82-25.39-19.28-14.88c-9.95,11.06-21.25,17.21-35.91,19.99c-0.87,0.16-1.74,0.32-2.61,0.45
				c1.71-0.25-0.46,0.05-0.68,0.07c-1.76,0.18-3.52,0.3-5.28,0.37c-3.96,0.14-7.96,0.02-11.89-0.48c1.59,0.2-2.53-0.46-3.26-0.61
				c-1.73-0.35-3.44-0.77-5.14-1.24c-3.97-1.1-6.79-2.14-9.46-3.43c-26.41-12.78-37.79-41.1-36.06-69.68
				c0.89-14.75,6.59-31.13,16.26-42.28c5.38-6.2,4.47-18.96-5.42-20.52c-26.38-4.15-47.43-22.33-58.18-47.13
				c-10.54-24.3-7.28-53.24,6.89-76.3c7.86-12.8,18.53-22.74,32.44-29.28c4.37-2.05,7.57-9.24,5.64-13.86
				c-11.43-27.4-12.33-57.66-2.65-85.66c9.08-26.25,28.44-47.3,53.34-59.13c13.38-6.35,28.18-9.13,43.11-8.51
				c6.63,0.27,12.28-5.84,12.28-12.28C431.97,788.37,426.34,783.25,419.69,782.97L419.69,782.97z"/>
		</g>
	</g>
	<g class="st6">
		<path d="M804.08,1540.02c40.94-20.76,79.56-46.84,114.75-77.49c-33.87,11.75-71.27,11.33-104.91-1.17
			c-7.13-2.65-15.79,3.81-15.99,11.94c-0.58,23.13-1.16,46.26-1.74,69.38"/>
		<g>
			<path d="M810.27,1550.62c42.22-21.49,81.48-48.36,117.24-79.41c9.18-7.97-0.53-24.4-11.94-20.52
				c-16.54,5.63-33.58,8.44-51.06,8.04c-7.82-0.18-15.58-0.93-23.26-2.43c-8.69-1.7-16.75-4.98-25.27-7.13
				c-8.78-2.22-18.3,1.37-24.08,8.16c-6.44,7.56-6.26,16.49-6.5,25.89c-0.5,19.82-0.99,39.65-1.49,59.47
				c-0.4,15.81,24.16,15.8,24.55,0c0.45-17.84,0.89-35.68,1.34-53.52c0.12-4.62,0.27-9.25,0.35-13.88c0.05-2.81,0.1-2.14-0.35-0.88
				c0.36-1.01,0.71-1.28,0.99-1.43c2.09-1.07-0.32,0.48-0.52,0.06c-1.02-0.26-1.09-0.27-0.22-0.02c0.78,0.22,1.54,0.48,2.29,0.79
				c3.95,1.37,7.91,2.65,11.95,3.74c31.99,8.6,66.45,7.48,97.8-3.19c-3.98-6.84-7.96-13.68-11.94-20.52
				c-34.19,29.69-71.92,55.03-112.27,75.57c-5.91,3.01-7.61,11.31-4.4,16.8C796.99,1552.22,804.34,1553.63,810.27,1550.62
				L810.27,1550.62z"/>
		</g>
	</g>
	<g class="st6">
		<path d="M524.39,1696.41c52.59,111.07,168.25,183.73,283.84,178.31c176.25-8.26,352.51-16.52,528.76-24.78
			c-310.31,38.67-623.9,46.79-935.57,24.22c-9.44-0.68-16.72-12.3-13.79-21.99c23.49-77.67,78.41-143.62,147.52-177.17"/>
		<g>
			<path d="M513.79,1702.61c42.83,89.88,128.63,159.72,226.83,179.08c25.07,4.94,50.12,6.13,75.59,4.94
				c33.26-1.56,66.51-3.12,99.77-4.68c65.85-3.09,131.69-6.17,197.54-9.26c74.49-3.49,148.99-6.98,223.48-10.47
				c0-8.18,0-16.37,0-24.55c-82.13,10.22-164.52,18.33-247.07,24.29c-82.51,5.95-165.17,9.76-247.87,11.42
				c-82.69,1.66-165.43,1.18-248.1-1.46c-41.17-1.31-82.33-3.16-123.46-5.53c-20.73-1.2-41.45-2.53-62.17-4
				c-1.32-0.09-2.63-0.19-3.95-0.28c-0.35-0.03-4.26-0.57-2.53-0.2c2.13,0.45-0.1-0.18-1.04-0.87c1.37,1.01-0.2-0.42-0.32-0.6
				c0.35,0.5,0.84,1.41-0.34-0.63c-0.11-0.19-0.92-2.07-0.37-0.62c-0.31-0.82-0.45-1.68-0.66-2.52c0.42,1.63,0.09-0.24,0.15-0.62
				c-0.26,1.76,0.12-0.34,0.21-0.6c0.64-1.98,1.23-3.97,1.87-5.95c1.28-3.95,2.65-7.87,4.1-11.75
				c21.55-57.82,62.86-109.37,115.75-141.19c6.56-3.94,13.29-7.58,20.16-10.94c5.96-2.91,7.57-11.38,4.4-16.8
				c-3.55-6.08-10.82-7.33-16.8-4.4c-59.59,29.14-107.74,80.57-136.01,140.31c-3.88,8.19-7.43,16.56-10.64,25.04
				c-2.99,7.91-6.8,16.49-7.49,24.99c-0.71,8.77,2.97,17.82,9.2,23.97c7.6,7.51,17.25,7.73,27.27,8.44
				c42.74,3,85.52,5.43,128.33,7.29c84.94,3.68,169.97,5.08,254.99,4.22c85.35-0.87,170.67-4.02,255.86-9.46
				c85.22-5.44,170.3-13.16,255.1-23.16c10.48-1.24,20.96-2.51,31.44-3.81c6.58-0.82,12.28-5.06,12.28-12.28
				c0-6.41-5.62-12.59-12.28-12.28c-130.36,6.11-260.72,12.22-391.09,18.33c-32.59,1.53-65.18,3.06-97.77,4.58
				c-27.19,1.27-54.38,3.53-81.53,0.5c-45.02-5.02-89.91-23.09-128.18-49.28c-44.29-30.32-80.18-72.76-103.44-121.58
				c-2.85-5.98-11.42-7.55-16.8-4.4C512.08,1689.39,510.93,1696.6,513.79,1702.61L513.79,1702.61z"/>
		</g>
	</g>
</g>
<g id="Ebene_12">
	<g>
		<g id="Ebene_7">
			<g>
				<path class="st7" d="M1228.01,983.29c-12.69,2.91-17.94,20.77-8.96,30.47c-37.77,33.48-43.49,96.19-12.6,138.16
					c9.79,13.31,23.03,24.7,38.73,30.3c28.99,10.34,62-1.24,82.4-22.56c7.79-8.14,14.08-17.53,20.34-26.86
					c13.32-19.9,26.65-39.79,39.98-59.69c3.71-5.53,7.51-11.32,8.36-17.96c1.78-13.85-9.49-26.33-20.65-35.62
					c-27.29-22.72-59.31-39.96-93.31-50.24c-9.7-2.93-19.84-5.33-29.78-4.21c-9.94,1.12-19.74,6.37-23.66,15.25"/>
				<g>
					<path class="st7" d="M1228.68,979.99c-14.83,3.77-25.19,23.14-13.65,36.17c0.48-1.36,0.96-2.73,1.44-4.09
						c-26.97,24.14-38.76,61.84-32.66,97.74c6.57,38.67,37.24,78.46,80.3,79.62c19.87,0.54,39.08-6.77,54.53-18.03
						c19.13-13.95,31.01-35.24,43.86-54.43c7.11-10.62,14.23-21.24,21.34-31.87c3.51-5.23,7.11-10.41,10.47-15.73
						c2.97-4.7,5.64-9.88,6.26-15.51c2.2-20.07-18.35-35.46-33.06-46.38c-20.57-15.28-43.4-27.54-67.44-36.42
						c-20.86-7.7-46.45-15.98-65.69-2c-4.06,2.95-7.37,6.74-9.49,11.26c-0.86,1.83,0.18,3.31,2.23,3.41
						c2.16,0.1,4.81-1.52,5.69-3.41c9.18-19.55,37.56-10.92,53.8-5.51c22.8,7.6,44.54,18.39,64.46,31.87
						c9.11,6.16,18.14,12.78,26.14,20.3c6.15,5.78,12.21,12.96,14.2,21.16c2.61,10.74-3.7,19.28-9.29,27.64
						c-6.55,9.78-13.1,19.56-19.65,29.34c-6.63,9.9-13.25,19.82-19.9,29.71c-6.04,8.98-12.25,18.13-20.13,25.68
						c-12.23,11.72-28.4,19.97-45.83,21.78c-40.03,4.17-72.15-29.84-81.91-65.4c-8.78-31.99-2.53-67.8,18.6-92.89
						c2.57-3.05,5.35-5.89,8.33-8.56c0.84-0.75,2.56-2.83,1.44-4.09c-3.73-4.22-4.93-9.59-3.75-14.85c0.93-4.19,3.48-8.76,8.01-9.91
						c2.01-0.51,4.61-1.94,4.94-4.16C1232.59,980.35,1230.45,979.54,1228.68,979.99L1228.68,979.99z"/>
				</g>
			</g>
			<g>
				<g>
					<path class="st7" d="M1219.68,1180.63c3.34,1.77,10.59-3.99,6.92-5.93C1223.27,1172.92,1216.01,1178.69,1219.68,1180.63
						L1219.68,1180.63z"/>
				</g>
			</g>
			<g>
				<g>
					<path class="st7" d="M1213.35,1179.62c-0.35,7.25,3.89,14.3,11.32,16.64c7.75,2.43,16.28-1.05,21.05-6.85
						c0.67-0.82,1.66-3.14,0.07-3.83c-7.43-3.21-14.85-6.41-22.28-9.62c-2.11-0.91-4.44-0.13-6.05,1.28c-0.89,0.78-3,3.73-0.87,4.65
						c7.43,3.21,14.85,6.41,22.28,9.62c0.02-1.28,0.04-2.55,0.07-3.83c-6.23,7.58-17.4-2.09-17.03-9.79
						C1222.12,1173.04,1213.51,1176.11,1213.35,1179.62L1213.35,1179.62z"/>
				</g>
			</g>
		</g>
		<g id="Ebene_5">
			<g>
				<path class="st8" d="M1403.51,1035.85c29.44-56.1,90.97-87.59,150.24-113.03s122.51-50,162.34-99.4
					c50.38-62.48,51.04-156.65,10.22-228.66c-40.82-72.02-117.92-121.7-199.52-140.18c-50.86-11.52-104.6-11.76-153.17,3.97
					s-102.4,50.82-125.72,94.99c-32.31,61.21-13.52,133.06-3.6,202.65s20.55,143.23-7.34,206.59
					c60.81,4.45,120.37,32.86,162.28,77.39"/>
				<g>
					<path class="st8" d="M1407.47,1035.85c25.72-48.61,75.76-77.88,125.08-100.49c49.63-22.74,102.14-40.84,146.3-72.96
						c20.92-15.21,39.33-33.66,52.93-55.49c12.51-20.07,20.76-42.73,24.89-66.08c8.3-47.05,0.27-97.35-22.24-140.93
						c-24.35-47.17-65.03-85.77-111.55-112.34c-47.64-27.21-102.13-42.72-156.47-44.51c-27.07-0.89-54.26,1.77-80.13,8.66
						c-25.52,6.8-49.77,17.61-71.88,31.39c-22.43,13.97-43.27,31.22-58.93,52.29c-15,20.19-24.09,43.96-27.76,68.88
						c-7.61,51.56,5.27,104.32,12.59,155.74c7.79,54.65,16.2,111.2,4.66,165.22c-2.76,12.91-6.69,25.49-11.96,37.55
						c-0.82,1.89,0.1,3.25,2.23,3.41c46.74,3.54,92.52,21.3,130.12,49.7c10.69,8.07,20.69,17,29.86,26.69
						c2.8,2.96,10.61-2.11,8.05-4.82c-33.23-35.14-76.85-60.42-123.94-71.96c-13.38-3.28-26.98-5.39-40.64-6.42
						c0.75,1.14,1.49,2.27,2.23,3.41c21.66-49.59,20.4-105.24,14.27-158.79c-3.07-26.77-7.05-53.49-11.33-80.14
						c-4.15-25.84-8.37-51.77-9.5-77.83c-1.08-25.01,0.95-50.31,9.27-73.79c8.4-23.72,23.4-43.88,42.16-60.64
						c38.17-34.12,88.44-55.87,140.79-60.7c53.16-4.9,108.57,5.12,158.06,26.85c48.98,21.5,93.41,54.89,124.21,98.32
						c28.75,40.54,43.73,89.01,42.27,137.35c-1.47,48.21-20.05,94.11-55.2,127.24c-38.67,36.45-89.95,56.67-138.75,77.53
						c-49.56,21.18-100.58,45.31-135.97,86.09c-8.4,9.68-15.69,20.26-21.67,31.57c-0.96,1.8,0.25,3.32,2.23,3.41
						C1404.02,1039.36,1406.48,1037.71,1407.47,1035.85L1407.47,1035.85z"/>
				</g>
			</g>
		</g>
		<g id="Ebene_6">
			<g>
				<path class="st9" d="M1692.42,690.57c-8.44-52.08-38.72-117.79-81.73-151.49c-43.01-33.7-128.52-45.37-181.54-36.39
					c-73.31,12.43-127.51,91.73-138.74,163.44c-9.73,62.1,41.51,116.91,95.49,154.01c53.96,37.1,128.41,65.92,186.39,39.73
					c57.97-26.2,111.74-106.82,120.06-169.16"/>
				<g>
					<path class="st9" d="M1696.72,688.89c-3.59-21.89-10.27-43.39-19.07-64.01c-9.16-21.47-20.83-42.22-35.59-60.7
						c-12.79-16-27.97-30.11-46.26-39.88c-18.35-9.81-38.49-16.21-58.7-20.59c-21.33-4.62-43.16-7.08-64.84-7.32
						c-19.11-0.21-38.71,1.03-56.88,6.38c-36.85,10.84-66.89,36.75-88.53,66.84c-11.18,15.55-20.45,32.44-27.53,50.22
						c-6.81,17.09-12.38,35.43-14,53.94c-3.29,37.66,15.54,73.03,41.04,101.2c26.73,29.53,60.51,54.01,96.26,71.92
						c35.63,17.85,76.08,30.21,115.69,25.42c38.73-4.69,70.28-28.62,95.02-56.07c26.18-29.06,46.99-64.22,57.98-101.81
						c2.35-8.05,4.18-16.25,5.31-24.58c0.64-4.73-8.08-1.75-8.55,1.73c-4.92,36.15-21.88,70.47-42.89,99.75
						c-10.98,15.29-23.46,29.61-37.77,42.01c-12.82,11.11-27.25,20.95-43.55,26.8c-35.47,12.73-75.85,5.1-110.82-8.63
						c-36.3-14.25-70.25-36.15-99.19-62.07c-27.45-24.59-52.44-55.91-58.79-92.14c-3.14-17.92-0.58-35.37,3.96-52.54
						c4.68-17.69,11.61-34.71,20.37-50.72c17.12-31.26,41.9-59.82,74.42-76.48c15.38-7.88,32.18-11.94,49.63-13.44
						c19.94-1.72,40.28-1.03,60.3,1.46c38.89,4.85,80.91,15.78,110.89,42.72c16.52,14.85,29.7,33.15,40.5,52.18
						c11.23,19.77,20.04,40.8,26.28,62.4c2.8,9.69,5.07,19.5,6.69,29.4C1688.79,696.37,1697.32,692.52,1696.72,688.89
						L1696.72,688.89z"/>
				</g>
			</g>
		</g>
		<g id="Ebene_3_1_">
			<g>
				<g>
					<path d="M1401.15,1047.77c15.86-23.2,35.4-43.54,57.54-61.11c21.66-17.19,45.48-31.64,69.91-44.91
						c25.12-13.64,50.67-26.43,77.39-37.04c25.94-10.29,52.75-19.98,75.6-35.87c40.25-27.98,66.13-72.1,75.94-119.4
						c9.88-47.59,3.94-98.59-17.68-143.61c-23.1-48.09-62.25-88.28-108.05-116.81c-46.56-29-100.16-46.2-154.43-49.95
						c-54.88-3.79-111.07,6.73-157.13,34.78c-46.68,28.43-83.23,74.4-93.51,128.27c-5.2,27.28-3.34,55.53,0.46,83.19
						c3.81,27.8,9.16,55.41,12.45,83.27c6.08,51.35,6.5,102.49,0.12,153.37c-1.78,14.14-3.97,28.21-6.45,42.23
						c-0.82,4.65,7.94,1.72,8.55-1.73c9.11-51.4,13.52-103.46,10.2-156.05c-1.64-26-4.77-51.98-8.9-77.81
						c-4.38-27.46-9.63-54.95-10.79-82.66c-1.14-27.37,2.56-54.4,13.29-79.39c10.46-24.37,26.42-46.19,46.09-64.12
						c39.16-35.69,91.35-54.16,145.43-56.89c53.46-2.7,108.21,8.87,156.96,32.49c48.09,23.3,91.04,58.28,120.45,102.47
						c27.98,42.05,41.72,91.26,38.51,140.32c-3.07,46.76-20.89,93.1-54.44,126.21c-18.71,18.46-41.55,30.63-66,40.77
						c-13.02,5.4-26.25,10.35-39.29,15.74c-12.78,5.28-25.11,11.32-37.42,17.52c-49.57,25-98.44,52.89-136.22,93.33
						c-9.26,9.91-17.73,20.5-25.36,31.67C1390.94,1051.06,1398.88,1051.11,1401.15,1047.77L1401.15,1047.77z"/>
				</g>
			</g>
			<g>
				<g>
					<path d="M1226.76,977.31c-0.16,5.57,3.51,10.91,7.13,15.05c6.01,6.86,13.43,12.55,20.94,17.74c23.16,16,49,28.35,74.7,39.67
						c7.91,3.49,15.87,6.85,23.87,10.1c7.38,3.01,15.09,6.95,22.96,8.32c6.46,1.12,13.22,0.66,18.8-2.65
						c5.85-3.47,8.99-9.72,7.91-16.5c-1.15-7.17-5.87-13.89-10.48-19.49c-5.24-6.36-11.44-11.96-17.98-17.02
						c-13.95-10.78-29.44-19.85-45.29-27.58c-17.75-8.67-36.37-15.6-55.45-20.56c-8.81-2.29-18.71-5.42-27.82-4.6
						c-8.13,0.74-16.4,5.58-18.17,13.73c-0.47,2.15,1.95,2.72,3.61,2.44c2.09-0.36,4.48-2.05,4.94-4.16
						c1.48-6.81,10.39-5.53,15.79-4.53c7.84,1.47,15.63,3.44,23.32,5.64c15.69,4.5,31.02,10.33,45.75,17.44
						c14.09,6.81,27.72,14.72,40.49,23.77c11.89,8.43,24.01,18.67,30.49,31.8c2.05,4.15,4.57,12.09-0.51,14.97
						c-4.42,2.51-11.38,0.77-15.93-0.85c-14.76-5.24-29.28-11.67-43.58-18.07c-23.37-10.45-46.71-21.83-68.02-36.12
						c-7.61-5.11-15.3-10.64-21.48-17.4c-3.77-4.12-7.57-8.98-7.41-14.51c0.06-2.22-3.58-1.72-4.75-1.28
						C1228.56,973.43,1226.82,975.09,1226.76,977.31L1226.76,977.31z"/>
				</g>
			</g>
			<g>
				<g>
					<path d="M1231.27,977.85c-16.1,0.04-26.98,16.04-22.8,30.85c5.23,18.54,24.78,27.96,40.86,36.27
						c18.99,9.8,38.54,18.43,58.25,26.61c10.03,4.16,20.11,8.2,30.2,12.23c8.21,3.27,16.48,6.86,25.35,7.46
						c8.62,0.57,16.05-2.67,21.87-8.55c4.75-4.8,9.53-12.18,7.43-19.35c-1.22-4.15-9.62-0.12-8.6,3.37
						c1.43,4.9-1.25,9.75-4.56,13.17c-3.96,4.07-8.41,5.13-14.23,4.39c-7.57-0.96-14.84-4.28-21.9-7.09
						c-8.51-3.39-17-6.79-25.48-10.28c-17.06-7.01-34-14.34-50.58-22.45c-7.94-3.89-15.82-7.92-23.53-12.24
						c-7.26-4.07-14.62-8.65-19.96-15.09c-4.86-5.86-8.46-13.55-7.29-21.05c0.91-5.82,5-11.43,11.5-11.45
						c2.22-0.01,4.78-1.44,5.69-3.41C1234.34,979.48,1233.4,977.85,1231.27,977.85L1231.27,977.85z"/>
				</g>
			</g>
			<g>
				<g>
					<path d="M1208.93,1010.8c-5.5,4.58-9.95,10.6-13.2,16.91c-3.09,6.02-4.75,12.3-2.42,19.05c6.21,17.98,27.97,24.15,43.97,30.85
						c19.32,8.09,38.64,16.18,57.96,24.27c9.47,3.96,18.93,7.92,28.39,11.89c7.8,3.27,15.98,7.49,24.56,7.59
						c18.85,0.22,25.79-19.44,27.46-34.64c0.52-4.77-8.16-1.76-8.55,1.73c-0.69,6.3-1.95,12.71-4.81,18.37
						c-2.72,5.4-6.38,8.43-12.93,7.55c-7.44-1-14.67-4.81-21.55-7.69c-8.67-3.63-17.35-7.26-26.02-10.9
						c-16.95-7.1-33.91-14.2-50.86-21.29c-8.55-3.58-17.2-7.01-25.66-10.8c-7.43-3.33-14.97-7.42-19.87-14.06
						c-4.29-5.8-5.85-12.35-3.17-18.86c2.56-6.21,6.67-12.26,11.88-16.6c1.26-1.05,2.65-3.33,0.87-4.65
						C1213.21,1008.2,1210.24,1009.71,1208.93,1010.8L1208.93,1010.8z"/>
				</g>
			</g>
			<g>
				<g>
					<path d="M1197.79,1043.72c-11.21,5.2-17.86,18.85-17.82,30.81c0.06,16.45,21.25,23.6,34.08,28.82
						c20.12,8.18,40.25,16.36,60.37,24.54c9.96,4.05,19.92,8.1,29.89,12.15c8.09,3.29,16.28,7.19,25,8.2
						c9.03,1.05,17.33-1.72,22.84-8.63c5.22-6.55,7.88-15.21,8.32-23.55c0.26-4.84-8.36-1.78-8.55,1.73
						c-0.35,6.45-1.91,13.17-5.46,18.59c-1.19,1.82-2.75,3.82-4.9,4.62c-2.96,1.09-6.63,0.8-9.74,0.23
						c-7.67-1.41-14.96-4.86-22.16-7.79c-8.57-3.48-17.13-6.97-25.7-10.45c-17.34-7.05-34.67-14.1-52-21.15
						c-8.33-3.39-16.86-6.49-24.97-10.38c-6.43-3.08-14.23-7.48-17.33-14.18c-2.23-4.8-0.91-10.93,0.74-15.55
						c1.47-4.14,4.5-10.35,8.28-12.1c1.67-0.78,4.27-2.45,3.85-4.65C1202.15,1042.92,1199.23,1043.06,1197.79,1043.72
						L1197.79,1043.72z"/>
				</g>
			</g>
			<g>
				<g>
					<path d="M1185.43,1082.2c-11.61,4.45-15.82,19.75-7.51,29.5c5.08,5.96,12.3,9.53,19.11,13.18c8.08,4.33,16.17,8.67,24.25,13.01
						c16.17,8.67,32.34,17.34,48.51,26.02c13.88,7.44,28.63,17.08,44.89,14.98c7.66-0.99,14.86-4.86,19.25-11.01
						c5.09-7.13,6.63-15.81,6.74-24.5c0.03-2.22-3.56-1.73-4.75-1.28c-2.01,0.76-3.82,2.44-3.85,4.65
						c-0.08,6.5-1.09,13.64-4.72,19.12c-2.84,4.29-7.35,6.26-12.58,6.52c-13.96,0.7-27.3-8.63-39.18-15.01
						c-13.35-7.16-26.7-14.32-40.04-21.48c-13.2-7.08-26.72-13.76-39.63-21.35c-5.43-3.19-12.2-7.71-13.51-14.19
						c-0.75-3.68-0.21-10.63,3.94-12.22c1.71-0.65,4.25-2.54,3.85-4.65C1189.78,1081.32,1186.9,1081.64,1185.43,1082.2
						L1185.43,1082.2z"/>
				</g>
			</g>
			<g>
				<g>
					<path d="M1189.54,1120.53c-2,10.58-1.32,21.51,3.82,31.47c4.48,8.66,11.91,15.66,19.88,21.34
						c16.7,11.88,36.91,19.69,57.41,17.53c12.27-1.29,23.37-6.55,31.33-15.57c1.2-1.36,1.33-3.48-0.72-4.17
						c-2.18-0.72-4.79,0.97-6.08,2.43c-11.93,13.51-33.01,12.53-49.49,7.22c-8.6-2.77-16.49-7.17-23.93-12.26
						c-7.3-4.99-14.05-10.9-18.69-18.4c-5.99-9.67-7.02-20.64-5-31.33C1198.96,1114.17,1190.18,1117.09,1189.54,1120.53
						L1189.54,1120.53z"/>
				</g>
			</g>
			<g>
				<path class="st10" d="M1215.27,1170.81c-4.35,6.47-1.28,20.58,8.25,24.4c7.58,3.04,21.75,0.94,26.47-6"/>
				<g>
					<path d="M1211.31,1170.81c-5.47,8.82-1.08,23.34,9.14,27.53c10.62,4.36,26.42,0.6,32.94-8.27c1.05-1.43,1.44-3.45-0.72-4.17
						c-2.04-0.68-4.95,0.9-6.08,2.43c-4.06,5.54-15.54,6.44-21.5,2.96c-6.52-3.81-9.71-14.29-5.86-20.49
						c1.1-1.77-0.35-3.32-2.23-3.41C1214.64,1167.29,1212.44,1168.98,1211.31,1170.81L1211.31,1170.81z"/>
				</g>
			</g>
		</g>
		<g id="Ebene_8_1_">
			<g class="st11">
				<path class="st12" d="M1250.65,964.5c-8.06-2.46-15.07,7.2-13.17,15.2c1.89,8,9.05,13.81,15.89,18.74
					c29.23,21.06,61.2,38.42,94.79,51.48c15.86,6.16,33.42,11.41,49.3,6.49c-54.52-18.69-119.3-40.46-146.57-89.26"/>
				<g>
					<path class="st12" d="M1253.34,961.2c-11.09-2.92-21.28,8.14-20.42,18.45c0.51,6.14,4.82,11.45,9.28,15.6
						c5.73,5.33,12.57,9.68,19.06,14.05c27.88,18.73,58.25,34.69,89.89,46.04c14.63,5.25,30.67,8.82,45.65,4.37
						c2.01-0.59,8.06-4.99,3.35-6.6c-42.38-14.53-88.32-29.07-122.17-59.77c-9.17-8.32-17.02-17.93-23.05-28.6
						c-1.89-3.35-10.02,1.34-8.05,4.82c22.75,40.27,68.64,61.26,110.52,76.95c12.38,4.64,24.9,8.91,37.4,13.2
						c1.12-2.2,2.24-4.4,3.35-6.6c-11.46,3.4-23.45,1.42-34.89-2.11c-13.48-4.15-26.59-9.94-39.34-15.97
						c-13.46-6.36-26.58-13.43-39.3-21.16c-6.45-3.92-12.79-8-19.02-12.26c-5.49-3.75-11.18-7.47-16.1-11.95
						c-4.22-3.84-8.66-9.51-7.91-15.35c0.43-3.36,2.31-7.58,6.4-6.5C1251.46,968.72,1258.09,962.46,1253.34,961.2L1253.34,961.2z"/>
				</g>
			</g>
			<g class="st11">
				<path class="st12" d="M1225.34,986.9c-9.12,2.93-11.36,15.37-6.81,23.9c4.55,8.53,13.49,13.93,22.05,18.73
					c36.19,20.29,73.8,38.07,112.42,53.17c9.93,3.88,22.76,7.03,29.63-0.53c-28.89-4.72-149.59-45.5-155.95-97.23"/>
				<g>
					<path class="st12" d="M1224.89,983.93c-11.85,4.25-16.13,18.29-10.39,29.28c3.31,6.32,9.3,11.14,15.29,14.96
						c7.06,4.5,14.57,8.38,21.95,12.34c31.16,16.71,63.31,31.59,96.19,44.55c12.85,5.07,27.76,8.71,38.09-2.03
						c1.08-1.13,1.49-3.8-0.72-4.17c-8.66-1.43-17.21-3.99-25.6-6.61c-12.61-3.94-25.05-8.52-37.26-13.62
						c-25.86-10.81-52.81-24.17-73.1-43.8c-8.91-8.62-16.76-19.33-18.35-31.57c-0.53-4.08-9.08-0.29-8.6,3.37
						c3.19,24.51,27.64,42.62,47.67,54.97c24.62,15.2,51.83,26.64,79.24,35.64c10.02,3.29,20.27,6.51,30.66,8.23
						c-0.24-1.39-0.48-2.78-0.72-4.17c-2.64,2.75-7.79,2.27-11.31,1.68c-5.48-0.92-10.66-2.95-15.82-4.99
						c-14.44-5.72-28.74-11.82-42.87-18.3c-13.81-6.32-27.45-13-40.92-20.02c-6.83-3.56-13.61-7.2-20.35-10.93
						c-5.78-3.2-11.69-6.36-16.87-10.48c-5.1-4.06-9.55-9.41-10.37-15.87c-0.57-4.45,0.25-10.81,5.07-12.54
						c1.72-0.61,4.25-2.56,3.85-4.65C1229.22,983.03,1226.36,983.41,1224.89,983.93L1224.89,983.93z"/>
				</g>
			</g>
			<g class="st11">
				<path class="st12" d="M1210.05,1019.75c-10.64,1.55-13.92,16.12-8.3,25.34c5.62,9.22,16.35,14.09,26.4,18.39
					c34.65,14.83,69.29,29.65,103.94,44.48c10.39,4.44,23.44,8.61,31.77,1.64c-45.87-14.93-150.04-47.73-150.02-93.22"/>
				<g>
					<path class="st12" d="M1210.71,1016.45c-11.75,2.08-18.21,14.24-15.34,25.35c3.61,14.01,19.48,20.43,31.67,25.65
						c33.27,14.24,66.54,28.47,99.81,42.71c12.95,5.54,27.73,10.51,39.6,1.12c1.57-1.24,2.8-4.1,0.09-4.98
						c-23.52-7.65-47.02-15.41-69.87-24.99c-12.53-5.26-24.89-11.07-36.66-17.88c-10.19-5.9-20.34-12.61-28.52-21.09
						c-7.43-7.69-13.25-16.99-13.34-27.63c-0.03-3.89-8.64-0.3-8.6,3.37c0.17,21.4,21.06,37.44,38.08,48.01
						c23.66,14.69,50.04,25.03,76.17,34.3c12.4,4.39,24.89,8.46,37.39,12.53c0.03-1.66,0.06-3.32,0.09-4.98
						c-3.33,2.64-8.32,2.22-12.38,1.42c-5.65-1.11-11-3.35-16.29-5.61c-14.17-6.06-28.35-12.13-42.52-18.2
						c-14.37-6.15-28.74-12.3-43.11-18.45c-6.75-2.89-13.55-5.68-20.24-8.71c-5.75-2.61-11.59-5.59-16.23-9.92
						c-4.42-4.11-7.34-9.44-7.14-15.38c0.13-3.97,1.52-9.24,6.04-10.04c2.01-0.35,4.62-2.04,4.94-4.16
						C1214.64,1016.71,1212.49,1016.14,1210.71,1016.45L1210.71,1016.45z"/>
				</g>
			</g>
			<g class="st11">
				<path class="st12" d="M1195.49,1055.06c-7.71,3.82-9.79,14.39-6.13,22.3c3.67,7.91,11.65,13.3,19.94,16.46
					c8.28,3.15,17.1,4.47,25.64,6.82c19.67,5.39,37.48,16.07,55.99,24.72c18.51,8.66,38.99,15.5,58.83,12.37
					c-36.65-11.44-134.21-40-153.98-83.39"/>
				<g>
					<path class="st12" d="M1193.91,1052.65c-10.47,5.63-13.56,19.06-7.39,29.34c7.18,11.96,21.81,16.3,34.59,19.26
						c7.52,1.74,14.92,3.57,22.17,6.29c7.58,2.83,14.89,6.31,22.14,9.9c13,6.44,25.85,13.31,39.55,18.17
						c14.27,5.06,29.27,7.64,44.13,5.43c2.28-0.34,7.86-5.19,3.35-6.6c-20.87-6.51-41.73-13.05-62.15-20.94
						c-23.59-9.13-47.58-19.77-67.74-35.31c-9.27-7.15-17.84-15.67-22.75-26.25c-1.56-3.37-9.74,1.17-8.05,4.82
						c9.42,20.31,31.37,34,50.68,44.27c23.11,12.29,47.79,21.57,72.55,29.82c10.65,3.55,21.38,6.85,32.09,10.19
						c1.12-2.2,2.24-4.4,3.35-6.6c-25.03,3.74-49.52-8.58-71.49-19.63c-12.28-6.17-24.66-12.38-37.81-16.44
						c-12.49-3.86-26.39-4.76-37.57-12.16c-5.24-3.47-9.98-8.49-11.25-14.65c-1.05-5.07-0.13-11.45,4.76-14.08
						c1.44-0.77,3.61-3.04,2.45-4.83C1198.29,1050.78,1195.3,1051.91,1193.91,1052.65L1193.91,1052.65z"/>
				</g>
			</g>
			<g class="st11">
				<path class="st12" d="M1187.19,1085.8c-6.8,4.83-6.36,15.56-1.39,22.54c4.97,6.99,13.07,11.12,20.82,14.97
					c27.28,13.55,54.56,27.09,81.85,40.64c13.05,6.49,28.71,13.02,41.23,6.52c-53.71-14.28-111.06-40.45-143.82-85.3"/>
				<g>
					<path class="st12" d="M1184.6,1084.12c-8.86,6.81-8.63,19.81-1.52,28.32c4.1,4.91,9.58,8.39,15.22,11.37
						c6.54,3.45,13.22,6.62,19.85,9.91c13.64,6.78,27.28,13.55,40.92,20.32c12.27,6.09,24.41,12.83,37.12,17.97
						c11.69,4.72,23.8,6.47,35.09,0.88c1.79-0.89,4.52-4.8,1.1-5.71c-42.09-11.24-84.3-28.62-117.55-57.49
						c-9.29-8.07-17.68-17.07-24.92-26.93c-2.37-3.21-10.36,1.68-8.05,4.82c26.5,36.02,67.17,59.3,108.73,74.69
						c11.96,4.43,24.14,8.22,36.43,11.5c0.36-1.91,0.74-3.81,1.1-5.71c-7.8,3.87-17.95,0.74-25.71-2.31
						c-11.11-4.36-21.7-10.33-32.38-15.64c-12.1-6.01-24.21-12.02-36.31-18.03c-6.15-3.06-12.3-6.1-18.45-9.16
						c-5.3-2.63-10.73-5.12-15.73-8.3c-5.2-3.31-10.25-7.64-12.21-13.54c-1.52-4.58-1.6-10.48,2.45-13.6c1.31-1,2.61-3.35,0.87-4.65
						C1188.85,1081.49,1185.96,1083.07,1184.6,1084.12L1184.6,1084.12z"/>
				</g>
			</g>
			<g class="st11">
				<path class="st12" d="M1194.11,1123.69c3.57,18.7,15.09,36.13,31.24,47.22c16.14,11.09,36.69,15.69,55.67,12.48
					c-32.47-11.15-61.44-32.7-81.2-60.42"/>
				<g>
					<path class="st12" d="M1189.81,1125.38c3.75,18.93,15.01,36.44,31.24,47.93c17.19,12.16,38.97,16.68,59.29,13.4
						c2.33-0.38,7.81-5.05,3.35-6.59c-32.02-11.12-60.25-32.25-79.85-59.53c-2.32-3.23-10.33,1.65-8.05,4.82
						c20.29,28.24,49.43,49.81,82.55,61.31c1.12-2.2,2.24-4.4,3.35-6.6c-18.8,3.04-38.89-1.93-54.53-13.32
						c-14.92-10.86-25.26-27.2-28.74-44.77C1197.59,1117.87,1189.09,1121.77,1189.81,1125.38L1189.81,1125.38z"/>
				</g>
			</g>
			<g class="st11">
				<path class="st12" d="M1216.8,1172.37c-1.66,6.19,0.41,13.32,5.21,17.95c4.79,4.63,12.13,6.58,18.47,4.9
					c-9.05-5.73-15.83-14.88-18.49-24.98"/>
				<g>
					<path class="st12" d="M1212.53,1173.24c-1.67,6.95,0.36,14.56,5.73,19.77c5.69,5.52,14.09,7.28,21.54,5.51
						c1.85-0.44,7.44-4.11,4.13-6.26c-8.63-5.61-14.96-14-17.65-23.7c-1.16-4.15-9.58-0.14-8.6,3.37
						c2.98,10.72,9.75,20.03,19.33,26.26c1.38-2.09,2.75-4.17,4.13-6.26c-12.24,2.89-22.81-8.98-20.07-20.42
						c0.52-2.15-1.98-2.71-3.61-2.44C1215.35,1169.44,1213.04,1171.13,1212.53,1173.24L1212.53,1173.24z"/>
				</g>
			</g>
		</g>
		<g id="Ebene_4">
			<g>
				<g>
					<path d="M1251.67,966.34c41.1-19.83,81.79-40.44,121.51-62.66c39.84-22.29,78.73-46.2,115.82-72.51
						c36.65-25.99,72.27-54.1,103.87-85.78c15.83-15.87,31.29-34.52,35.32-57.21c3.05-17.13-1.3-37.18-14.15-50.42
						c-13.49-13.9-33.02-16.34-50.5-10.63c-20.61,6.74-34.76,23.67-44.08,42.08c-2.55,5.04-4.79,10.23-6.89,15.48
						c-1.97,4.91,5.65,3.34,7.36,0.87c11.86-17.2,24.52-35.63,25.25-57.37c0.6-17.72-7.31-36.02-24.85-43.98
						c-17.47-7.93-37.92-5.19-54.17,2.8c-17.59,8.65-31.29,22.96-41.01,39.47c-21.75,36.92-21.47,82.14-23.14,124.09
						c-1.78,44.7-2.65,89.47-4.5,134.17c-1.84,44.49-4.53,88.97-10.29,133.02c-0.7,5.33-1.45,10.65-2.23,15.97
						c-0.7,4.7,8.03,1.74,8.55-1.73c6.22-41.7,9.38-83.89,11.48-126.11c2.12-42.58,3.1-85.25,4.5-127.89
						c0.68-20.91,1.41-41.84,2.55-62.72c1.16-21.21,3.22-42.54,9.52-62.77c10.03-32.23,36.17-67.78,74.95-66.14
						c8.75,0.37,17.52,3.02,24.61,8.36c7.02,5.29,11.67,13.04,13.82,21.28c5.08,19.48-2.66,38.05-12.67,54.12
						c-2.91,4.67-6.04,9.19-9.16,13.72c2.45,0.28,4.91,0.58,7.36,0.87c7.42-18.55,17.25-38.25,35.78-48.19
						c14.97-8.03,34.13-7.68,47.68,4.18c13.31,11.65,18.32,31.08,15.96,47.46c-3.11,21.53-17.73,39.38-32.66,54.29
						c-30.13,30.1-63.86,57.09-98.66,81.94c-34.99,24.99-71.62,47.82-109.14,69.14c-37.41,21.26-75.72,41.05-114.48,59.98
						c-4.74,2.32-9.49,4.62-14.24,6.91c-1.66,0.8-4.27,2.44-3.85,4.65C1247.31,967.13,1250.24,967.03,1251.67,966.34L1251.67,966.34
						z"/>
				</g>
			</g>
			<g>
				<g>
					<path d="M1690.88,630.91c16.33,35.91,16.37,77.76,0.01,112.43c-0.86,1.82,0.18,3.31,2.23,3.41c2.17,0.1,4.8-1.53,5.69-3.41
						c17.14-36.33,17.23-79.62,0.12-117.26C1697.4,622.72,1689.21,627.25,1690.88,630.91L1690.88,630.91z"/>
				</g>
			</g>
			<g>
				<g>
					<path d="M1294.01,588.56c-18.82,29.31-27.58,64.63-25.17,99.78c0.69,10.04,2.33,20.03,4.86,29.86c1.07,4.15,9.51,0.17,8.6-3.37
						c-8.66-33.58-6.48-69.26,6.36-100.76c3.62-8.9,8.08-17.42,13.27-25.5c1.13-1.76-0.38-3.33-2.23-3.41
						C1297.31,585.04,1295.17,586.74,1294.01,588.56L1294.01,588.56z"/>
				</g>
			</g>
		</g>
	</g>
</g>
</svg>
