<?xml version="1.0" encoding="utf-8"?>
<!-- Generator: Adobe Adobe Illustrator 24.2.0, SVG Export Plug-In . SVG Version: 6.00 Build 0)  -->
<svg version="1.1" xmlns="http://www.w3.org/2000/svg" xmlns:xlink="http://www.w3.org/1999/xlink" x="0px" y="0px"
	 viewBox="0 0 2000 2000" style="enable-background:new 0 0 2000 2000;" xml:space="preserve">
<style type="text/css">
	.st0{fill:#F7EBF1;}
	.st1{fill:#F7EBF2;}
	.st2{fill:#F0C1A1;}
	.st3{fill:#FFFFFF;stroke:#FFFFFF;stroke-width:0.8979;stroke-miterlimit:10;}
	.st4{opacity:0.3098;}
	.st5{fill:#CA354F;}
	.st6{opacity:0.102;}
	.st7{opacity:0.149;}
	.st8{fill:#CA354E;}
	.st9{fill:#FFFFFF;}
</style>
<g id="Ebene_14">
	<g>
		<path class="st0" d="M665.96,1349.01c-76.84,47.67-173.57,122.51-173.57,212.94c133.09,27.54,278.91,29.54,414.26,23.66
			c203.31-8.83,406.46-21.72,609.34-38.67c-22.11-53.43-51.9-103.06-87.94-146.51c-20.24-24.4-45.33-48.25-75.46-49.31
			c-30.89-1.08-57.45,21.83-82.83,41.1c-89.3,67.8-199.43,102.18-308.03,96.16c-108.59-6.02-214.98-52.41-297.54-129.74"/>
		<g>
			<path class="st1" d="M665.86,1343.63c-33.36,20.73-65.8,43.38-94.91,69.83c-28.64,26.02-54.82,56.2-70.41,91.97
				c-8.14,18.67-12.75,38.75-12.86,59.15c-0.01,1.67,0.79,3.01,2.46,3.36c62.87,12.95,126.82,20.08,190.87,23.59
				c64.41,3.53,128.97,3.42,193.42,1.23c67.46-2.28,134.9-5.93,202.29-9.62c68.65-3.76,137.27-7.98,205.86-12.66
				c68.6-4.68,137.17-9.83,205.7-15.44c8.48-0.69,16.96-1.4,25.45-2.1c3.81-0.32,8.44-5.86,6.78-9.87
				c-13.38-32.19-29.43-63.25-48.26-92.6c-18.13-28.25-38.45-56.98-63.43-79.63c-11.42-10.36-24.38-19.11-39.35-23.34
				c-14.82-4.18-30.28-2.37-44.45,3.3c-14.97,5.99-28.22,15.36-41.02,25.02c-13.52,10.2-26.83,20.58-41,29.89
				c-56.53,37.16-120.82,62.16-187.72,72.33c-64.97,9.88-131.62,5-194.62-13.61c-63.36-18.72-122.63-51.2-173.18-93.66
				c-6.56-5.51-12.97-11.19-19.24-17.04c-4.4-4.11-11.69,6.51-8.1,9.86c48.07,44.87,104.55,80.33,166.35,102.98
				c61.06,22.38,126.41,32.12,191.31,27.2c66.44-5.04,131.42-24.46,190.01-56.15c14.93-8.07,29.43-16.94,43.42-26.54
				c13.75-9.44,26.71-19.88,40.15-29.75c12.92-9.49,26.92-18.62,42.68-22.45c15.26-3.71,30.62-1.13,44.42,6.13
				c14.39,7.56,26.46,18.85,37.27,30.83c11.38,12.62,21.82,26.17,31.74,39.97c20.39,28.37,38.12,58.65,53.02,90.25
				c3.85,8.18,7.48,16.46,10.95,24.8c2.26-3.29,4.52-6.58,6.78-9.87c-68.52,5.72-137.09,10.99-205.68,15.79
				c-68.58,4.8-137.2,9.14-205.84,13.01c-68.09,3.84-136.2,7.33-204.34,10.15c-64.21,2.66-128.55,3.43-192.78,0.8
				c-64.31-2.63-128.6-8.63-191.94-20.25c-7.69-1.41-15.36-2.91-23.02-4.49c0.82,1.12,1.64,2.24,2.46,3.36
				c0.19-34.93,15.67-67.08,36.66-94.29c22.72-29.44,51.2-54.1,81-76.12c16.58-12.26,33.78-23.66,51.29-34.54
				c2.59-1.61,4.78-4.84,4.62-8C670.53,1343.75,668.36,1342.08,665.86,1343.63L665.86,1343.63z"/>
		</g>
	</g>
</g>
<g id="Ebene_27">
	<g>
		<path class="st2" d="M941.53,1120.6c6.06,58.98,5.06,95.31-26.77,126.83c-31.83,31.52-75.06,44.88-117.02,54.93
			c-41.96,10.05-85.37,18.2-122.33,42.13c91.65,85.94,212.28,134.11,333.04,132.98c120.76-1.13,240.62-51.55,330.91-139.19
			c-36.81-22.59-79.23-30.95-120.33-41.47c-41.1-10.52-93.06-8.94-124.46-39.77c-31.4-30.83-39.1-98.44-20.86-140.04
			c-42.39,9.98-87.26,7.03-128.24-8.44"/>
		<g>
			<path class="st2" d="M936.82,1123.21c2.4,23.59,4.95,48.08,1.05,71.65c-3.25,19.69-12.28,36.61-26.78,50.32
				c-40.01,37.86-96.21,47.03-147.66,59.69c-30.71,7.56-61.28,17.05-88.11,34.24c-2.29,1.46-6.97,7.5-3.96,10.31
				c71.13,66.48,160.89,112.24,257.17,128.01c94.4,15.47,191.68-0.05,277.84-41.13c49.46-23.58,94.91-55.4,134.27-93.49
				c2.04-1.97,5.71-7.94,1.98-10.2c-26.4-16.03-55.99-25.2-85.71-32.85c-14.35-3.7-28.73-7.56-43.2-10.71
				c-12.48-2.72-25.13-4.54-37.72-6.64c-25.2-4.2-51.8-9.39-72.24-25.79c-18.37-14.73-27.78-37.95-32.2-60.49
				c-5.06-25.82-4.21-54.35,6.3-78.75c1.04-2.42,0.76-7.13-3.03-6.26c-41.83,9.67-85.85,6.77-126.09-8.23
				c-5.15-1.92-11.28,9.54-6.53,11.31c41.72,15.55,86.99,18.69,130.4,8.66c-1.01-2.09-2.02-4.17-3.03-6.26
				c-9.75,22.64-12,48.55-9.28,72.87c2.63,23.55,9.73,48.14,25,66.75c16.7,20.35,42.1,29.31,67.08,34.59
				c13.39,2.83,26.96,4.73,40.44,7.04c13.82,2.37,27.32,5.79,40.92,9.16c35.33,8.75,70.95,17.83,102.36,36.9
				c0.66-3.4,1.32-6.8,1.98-10.2c-68.57,66.34-155.73,112.71-249.7,130.18c-92.59,17.21-188.89,4.15-274.53-34.63
				c-49.29-22.32-94.86-52.78-134.39-89.72c-1.32,3.44-2.64,6.88-3.96,10.31c49.9-31.96,110.45-35.22,165.34-54.13
				c45.77-15.77,92.38-44.93,104.5-94.89c6.53-26.94,3.66-55.64,0.89-82.87C945.45,1110.27,936.31,1118.18,936.82,1123.21
				L936.82,1123.21z"/>
		</g>
	</g>
	<g>
		<g>
			<path class="st2" d="M1158.53,1017.98c5.09,0,10.07-11.94,4.49-11.94C1157.94,1006.04,1152.95,1017.98,1158.53,1017.98
				L1158.53,1017.98z"/>
		</g>
	</g>
</g>
<g id="Ebene_23">
	<g>
		<g>
			<path d="M934.87,1123.36c0.91,22.56,1.57,45.37-1.43,67.81c-2.75,20.54-8.56,41.4-22.01,57.64
				c-28.01,33.82-77.39,35.5-117.13,44.07c-91.57,19.75-178.58,62.61-238.91,135.87c-32.22,39.13-55.73,85.08-67.64,134.39
				c-0.61,2.52,0.64,5.28,3.52,4.78c3.1-0.55,5.11-4.44,5.76-7.13c21.53-89.11,83.68-163.36,162.94-207.71
				c42.64-23.86,89.37-39.46,137.11-49.34c41.06-8.49,86.73-12.03,116.69-45.11c33.84-37.37,32.54-93.44,30.65-140.56
				c-0.12-2.89-2.34-4.05-4.87-2.81C936.86,1116.56,934.75,1120.39,934.87,1123.36L934.87,1123.36z"/>
		</g>
	</g>
	<g>
		<g>
			<path d="M1067.38,1123.52c-1.73,41.13-3.27,89.07,22.47,123.92c25.48,34.5,69.73,40.68,109.05,47.63
				c93.01,16.43,184.66,53.95,248.98,125.33c33.38,37.05,58.31,81.38,70.55,129.84c0.76,3,4.05,2.08,5.81,0.65
				c2.28-1.84,3.99-5.49,3.25-8.44c-21.81-86.32-82.61-158.17-158.96-202.23c-41.97-24.22-88.18-40.49-135.35-51.12
				c-21.54-4.86-43.45-7.75-65.01-12.51c-19.97-4.42-39.96-11.05-56.07-24.09c-39.04-31.63-37.22-88.8-35.31-134.19
				c0.12-2.92-2.47-3.91-4.8-2.77C1069.17,1116.91,1067.51,1120.53,1067.38,1123.52L1067.38,1123.52z"/>
		</g>
	</g>
	<g>
		<g>
			<path d="M489.12,1567.61c58.26,24.09,121.98,26.14,184.16,25.71c66.56-0.46,133.09,0.13,199.65,0.36
				c69.37,0.23,138.76-0.05,208.11-1.63c69.29-1.58,138.56-4.47,207.7-9.47c68.5-4.96,136.88-11.96,204.86-21.79
				c8.67-1.25,17.34-2.56,26-3.9c4.82-0.75,8.88-12.78,2.21-11.74c-68.14,10.57-136.7,18.27-205.44,23.73
				c-68.42,5.43-136.99,8.7-205.6,10.59c-68.67,1.9-137.38,2.41-206.07,2.33c-67.06-0.08-134.14-1.46-201.19-0.68
				c-61.97,0.72-125.95,2.19-185.73-16.71c-7.49-2.37-14.87-5.09-22.13-8.1C490.59,1554.21,484.37,1565.64,489.12,1567.61
				L489.12,1567.61z"/>
		</g>
	</g>
	<g>
		<g>
			<path d="M668.24,1356.84c72.91,66.84,164.94,112.38,262.84,127.57c95.94,14.89,194.56-1.42,281.88-43.38
				c50.13-24.09,96.22-56.45,136.18-95.11c2.07-2,4.3-5.49,3.28-8.52c-0.94-2.79-4.04-2.43-5.87-0.66
				c-69.74,67.46-158.24,114.8-253.72,132.98c-94.36,17.96-192.61,5.23-280.23-33.73c-50.49-22.45-97.06-53.25-137.78-90.58
				C671.18,1342.06,664.12,1353.06,668.24,1356.84L668.24,1356.84z"/>
		</g>
	</g>
</g>
<g id="Ebene_15">
	<g>
		<path class="st0" d="M1037.2,273.5c2.41-1.88,4.81-3.75,7.22-5.63c4.1,10.38,16.35,14.95,26.25,11.71
			c9.91-3.24,17.32-12.69,21.25-23.15c3.93-10.45,4.86-21.93,5.52-33.2c0.6-10.18,0.98-20.68-2.13-30.3s-10.52-18.27-19.81-19.28
			c-9.29-1.01-19.15,8.28-17.38,18.29c1.71-6.31-3.99-12.99-10.01-13.07c-6.02-0.08-11.35,4.93-13.84,10.92
			c-2.49,5.99-2.67,12.8-2.45,19.37c0.74,22.02,5.52,43.86,13.96,63.87"/>
		<g>
			<path class="st0" d="M1038.48,278.04c2.41-1.88,4.81-3.75,7.22-5.63c-1.94-0.22-3.87-0.43-5.81-0.65
				c4.98,11.43,17.57,17.54,29.68,13.69c14.08-4.48,23.38-18.51,27.64-31.97c2.56-8.08,3.69-16.42,4.39-24.84
				c0.72-8.63,1.4-17.43,0.72-26.08c-1.05-13.36-6.53-29.54-20.7-34.01c-15.03-4.73-30.04,11.3-28.19,26
				c0.95,7.58,8.54,0.2,9.28-3.78c1.83-9.7-5.58-20.07-16.21-17.47c-11.42,2.8-17.57,15.56-18.94,26.21
				c-1.65,12.79,0.19,26.42,2.42,39.04c2.33,13.17,6.15,26.01,11.28,38.36c2.59,6.23,10.95-3.25,9.06-7.79
				c-7.08-17.02-11.68-35.04-13.24-53.43c-0.67-7.95-2.5-19.51,1.93-26.64c1.71-2.75,4.79-4.73,8.14-4.11
				c3.54,0.65,7.1,4.43,6.4,8.14c3.09-1.26,6.19-2.52,9.28-3.78c-0.72-5.75,3.35-9.66,9.16-9.78c6.15-0.13,11.53,4.5,14.82,9.26
				c8.53,12.33,6.6,29.15,5.51,43.28c-1.02,13.19-3.11,29.35-14.27,38.14c-9.23,7.27-24.15,5.15-29.11-6.24
				c-1.21-2.78-3.68-2.31-5.81-0.65c-2.41,1.88-4.81,3.75-7.22,5.63C1031.47,272.42,1031.74,283.3,1038.48,278.04L1038.48,278.04z"
				/>
		</g>
	</g>
</g>
<g id="Ebene_24">
	<g>
		<path class="st0" d="M813,1285.63c-13.89-5.18-30.84,3.77-35.74,18.89s3.08,33.74,16.85,39.29c13.77,5.55,30.91-2.96,36.15-17.94
			s-2.34-33.81-15.98-39.72"/>
		<g>
			<path d="M816.26,1279.97c-13.43-4.6-27.59,1.04-36.34,11.84c-9.46,11.68-11.41,27.89-5.03,41.47
				c5.99,12.73,18.69,20.59,32.84,17.43c14.26-3.18,25.35-15.87,28.17-29.95c3.06-15.33-3.68-33.45-18.36-40.28
				c-4.93-2.3-11.27,9.1-6.53,11.31c11.61,5.4,18.92,20.05,15.44,32.62c-3.28,11.84-17.92,18.07-29.08,13.73
				c-11.91-4.64-19.27-19.87-16.25-32.17c2.96-12.06,17.2-18.6,28.62-14.69C814.94,1293.06,820.99,1281.59,816.26,1279.97
				L816.26,1279.97z"/>
		</g>
	</g>
	<g>
		<path class="st0" d="M829.14,1327.91c-4.05,15.57,4.93,33.76,19.06,38.62c14.13,4.86,31.02-4.44,35.86-19.74
			c4.84-15.3-3.2-34.01-17.05-39.72c-13.86-5.71-31.2,2.54-36.81,17.52"/>
		<g>
			<path d="M824.56,1329.07c-3.29,13.98,1.28,29.57,12.57,38.73c11.02,8.93,26.18,6.97,37.03-1.12
				c11.97-8.93,17.83-24.05,15.39-38.7c-2.26-13.55-12.13-26.65-26.41-28.49c-16.52-2.13-31.22,10.13-37.09,24.72
				c-0.85,2.12-1.04,5.89,1.89,6.36c2.95,0.48,5.49-3.37,6.38-5.59c4.62-11.5,19.42-17.04,30.58-11.73
				c11.74,5.59,18.83,21.34,14.78,33.81c-3.85,11.86-18.76,17.9-30.02,13.12c-12.49-5.31-18.98-20.59-15.96-33.43
				c0.58-2.48-0.62-5.21-3.47-4.71C827.2,1322.58,825.19,1326.41,824.56,1329.07L824.56,1329.07z"/>
		</g>
	</g>
	<g>
		<path class="st0" d="M883.09,1344.94c-3.18,18.03,7.63,37.83,23.76,42.95s35.18-5.57,40.43-23.01
			c5.24-17.44-4.6-38.64-20.68-43.95s-35.22,6.74-38.74,24.69"/>
		<g>
			<path d="M878.51,1346.1c-2.5,15.98,3.14,33.16,16.42,42.97c13.04,9.64,30.35,6.78,42.4-3.03c13.06-10.64,18.84-28.28,14.65-44.56
				c-3.73-14.49-15.81-28.15-31.76-27.77c-18.42,0.44-33.14,15.78-36.94,33.08c-0.55,2.48,0.59,5.22,3.47,4.71
				c3.01-0.53,5.1-4.37,5.68-7.03c2.35-10.69,12.44-18.43,23.29-18.81c11.89-0.42,21.58,8.5,25.74,19.09
				c4.23,10.78,3.36,23.34-5.68,31.35c-8.87,7.87-22,9.41-32.15,3.14c-11.62-7.17-18.06-22.08-15.97-35.46
				c0.39-2.48-0.49-5.23-3.47-4.71C881.31,1339.58,878.93,1343.45,878.51,1346.1L878.51,1346.1z"/>
		</g>
	</g>
	<g>
		<path class="st0" d="M948.98,1362.15c1.02,18.16,16.96,33.71,33.59,32.77c16.63-0.95,31-18.22,30.29-36.4
			c-0.71-18.18-16.39-34.05-33.03-33.43c-16.64,0.61-31.3,17.6-30.89,35.79"/>
		<g>
			<path d="M944.28,1364.77c1.21,15.5,10.98,30.17,26.27,34.83c15.59,4.75,30.7-4.5,39.2-17.29c9.12-13.73,10.62-31.53,1.85-45.8
				c-7.94-12.9-23.65-20.92-38.54-15.76c-17.48,6.05-28.83,24.68-28.82,42.75c0,2.89,2.38,3.95,4.8,2.77c2.73-1.34,4.62-5.04,4.62-8
				c0-14.33,11.51-28.19,26.63-27.16c14.92,1.01,27.27,15.44,27.88,30.03c0.6,14.3-11.06,28.54-26.02,27.83
				c-15.12-0.72-27.29-14.83-28.44-29.42C953.09,1351.82,943.88,1359.74,944.28,1364.77L944.28,1364.77z"/>
		</g>
	</g>
	<g>
		<path class="st0" d="M1013.14,1359.51c0.79-20.31,17.91-38.2,36.51-38.17c18.6,0.03,35.66,17.98,36.4,38.29
			c0.74,20.31-14.97,39.68-33.51,41.32s-36.9-14.71-39.16-34.89"/>
		<g>
			<path d="M1017.84,1356.9c0.74-12.66,9.37-24.42,21.59-28.28c12.76-4.03,25.87,2.22,33.79,12.36
				c8.29,10.62,10.84,25.11,4.55,37.34c-5.83,11.34-18.08,18.57-30.88,16.31c-14.85-2.62-26.87-16.46-28.81-31.17
				c-1.01-7.7-10.08,0.2-9.41,5.23c2.24,17.02,13.5,32.49,30.52,37.15c17.39,4.76,33.91-5.73,43.21-19.96
				c9.84-15.05,11.26-34.44,2.07-50.11c-8.58-14.62-25.97-24.11-42.82-18.88c-19.36,6.02-32.07,25.59-33.21,45.25
				c-0.17,2.93,2.5,3.9,4.8,2.77C1016.09,1363.49,1017.67,1359.9,1017.84,1356.9L1017.84,1356.9z"/>
		</g>
	</g>
	<g>
		<path class="st0" d="M1086.7,1352.19c2.17,18.88,20.12,33.79,37.34,30.99c17.23-2.8,30.43-22.81,27.38-41.55
			c-3.05-18.74-21.79-32.56-38.83-28.58c-17.03,3.97-28.99,24.99-24.67,43.43"/>
		<g>
			<path d="M1081.99,1354.81c2.22,16.23,13.52,30.88,30.15,34.14c16.65,3.27,31.83-8.61,39-22.82c7.81-15.46,7.45-34.64-4.81-47.75
				c-10.84-11.6-28.04-15.93-42.06-7.28c-16.23,10.01-24.82,30.74-20.89,49.28c0.65,3.05,4.12,2.02,5.81,0.65
				c2.36-1.91,3.89-5.43,3.25-8.44c-2.38-11.23,1.75-23.92,11.54-30.42c10.22-6.79,23.31-3.69,32.11,3.99
				c9.54,8.33,13.67,21.78,9.19,33.79c-4.12,11.03-14.72,18.92-26.74,17.38c-13.73-1.76-25.29-14.21-27.14-27.75
				C1090.36,1341.89,1081.31,1349.78,1081.99,1354.81L1081.99,1354.81z"/>
		</g>
	</g>
	<g>
		<path class="st0" d="M1150.99,1332.71c-13.16-14.75-12.92-41.22,0.51-55.68s37.64-14.36,50.96,0.22
			c13.32,14.58,13.36,41.05,0.1,55.69c-13.26,14.64-37.48,14.85-50.96,0.44"/>
		<g>
			<path d="M1155.04,1327.78c-8.63-10.07-11.45-24.74-7.1-37.32c4.39-12.72,17.01-19.32,30.11-18.08
				c14.17,1.34,24.96,11.52,28.45,25.11c3.1,12.07,0.91,27.17-9.68,34.98c-12.33,9.09-30.68,6.72-41.17-4.03
				c-4.18-4.28-11.57,6.3-8.1,9.86c12.21,12.53,31.36,15.25,46.69,6.68c15.99-8.94,24.1-28.12,22.81-45.95
				c-1.28-17.63-11.59-33.39-29.34-37.73c-17.54-4.29-35.46,4.81-44.27,20.13c-9.8,17.04-9.6,40.91,3.5,56.2
				C1150.78,1342.13,1158.32,1331.61,1155.04,1327.78L1155.04,1327.78z"/>
		</g>
	</g>
	<g>
		<path class="st0" d="M1059.38,189.9c-10.93-31.63-42.8-52.93-73.55-49.15c-30.75,3.79-57.48,32.3-61.69,65.8
			c-47.15-30.49-107.61-34.98-158.11-11.75c-16.5,7.59-32.4,18.43-42.43,34.64c-10.03,16.21-13.07,38.59-4.03,55.48
			c-35.55-24.15-84.12-22.97-118.65,2.88c-34.53,25.85-53.09,74.92-45.32,119.87c-41.57-10.2-87.84,7.77-114.2,44.35
			c-26.36,36.58-31.5,89.94-12.68,131.72c-39.42,15.16-66.34,62.21-61.54,107.58c4.8,45.37,40.83,84.47,82.38,89.4
			c-26.15,15.58-37.96,53.12-29.5,84.33c8.46,31.21,34.49,54.76,63.46,62.27c28.98,7.52,60.12,0.32,86.16-15.48
			c-21.91,26.89-21.31,72.17,1.29,98.37c22.6,26.2,63.93,29.5,89.78,7.18c-19.94,24.84-18.28,66.84,3.55,89.7
			c21.83,22.87,60.29,22.91,82.16,0.09c3.71,28.28,24.15,53.06,49.5,60.02c25.35,6.96,54.08-4.33,69.58-27.34
			c3.09,30.74,36.3,41.99,61.06,27.03"/>
		<g>
			<path d="M1063.91,186c-8.99-25.18-30.44-45.38-57.01-50.52c-26.66-5.16-52.77,8.36-68.98,29.16
				c-9.73,12.49-16.22,27.37-18.35,43.08c2.61-2.27,5.23-4.54,7.84-6.82c-32.75-20.94-72-29.99-110.62-25.69
				c-36.48,4.06-78.1,20.5-97.4,53.64c-10.66,18.31-13.7,41.75-3.87,61.01c2.44-3.53,4.88-7.06,7.31-10.58
				c-30.42-20.3-69.74-22.92-102.98-8.04c-32.74,14.66-55.52,46.09-65.22,79.98c-5.63,19.67-6.92,40.16-3.57,60.35
				c2.26-3.29,4.52-6.58,6.78-9.87c-34.62-8.21-71.43,2.44-98.44,25.06c-28.92,24.22-44.55,60.92-46.46,98.18
				c-1.09,21.39,2.57,43.08,11.25,62.69c1.88-3.25,3.76-6.51,5.64-9.76c-34.39,13.58-58.05,46.68-65.49,82.27
				c-7.66,36.6,4.08,75.35,31.3,101.14c14.28,13.53,32.04,22.9,51.67,25.41c0.72-3.79,1.44-7.57,2.16-11.36
				c-31.38,19.25-43.76,62.25-33.08,96.55c11.33,36.4,45.64,62.25,83.5,64.26c24.61,1.31,48.91-6.38,69.88-18.92
				c-0.83-2.92-1.66-5.85-2.49-8.77c-18.36,23.06-23.3,55.99-13.42,83.69c9.73,27.26,34.73,46.11,64.01,46.04
				c16.25-0.04,31.75-5.78,44.17-16.24c-1.23-2.65-2.46-5.29-3.68-7.94c-16.53,21.12-20.8,51.08-11.39,76.17
				c9.53,25.4,33.57,41.95,60.96,39.88c15.05-1.13,29.22-7.55,39.83-18.33c-1.94-0.22-3.87-0.43-5.81-0.65
				c3.96,27.88,23.47,54.02,51.11,61.9c28.23,8.05,58.7-6.26,74.9-29.72c-2.37-0.26-4.74-0.52-7.11-0.78
				c1.72,14.79,9.66,27.92,23.85,33.69c13.82,5.62,29.3,3.56,42.01-3.89c2.61-1.53,4.78-4.9,4.62-8c-0.14-2.71-2.29-4.24-4.8-2.77
				c-22.02,12.9-53.08,3.22-56.27-24.26c-0.51-4.4-4.91-3.97-7.11-0.78c-14.65,21.21-42.25,32.45-67.27,24.03
				c-24.63-8.28-41.3-32.09-44.87-57.22c-0.43-3-4.36-2.13-5.81-0.65c-21.07,21.4-58.16,20.64-78.2-1.97
				c-18.67-21.06-21.46-57.35-3.82-79.88c1.49-1.91,3.24-5.39,1.89-7.8c-1.3-2.3-3.79-1.63-5.57-0.13
				c-18.98,15.99-46.97,17.35-68.38,5.41c-22.79-12.71-33.65-38.6-32.7-63.96c0.52-14.03,4.9-28.03,13.69-39.07
				c1.41-1.77,2.99-4.92,2.13-7.28c-0.74-2.03-2.76-2.6-4.62-1.49c-31.76,19-72.26,25.36-105.33,5.78
				c-28.86-17.09-46.91-50.09-41.06-83.75c2.94-16.91,11.51-33.23,26.45-42.39c2.47-1.52,8.05-10.6,2.16-11.36
				c-32.07-4.1-59.11-27.89-71.96-56.94c-13.64-30.83-10.23-66.49,7.99-94.71c9.51-14.73,23.39-27.02,39.78-33.49
				c3.12-1.23,7.28-6.04,5.64-9.76c-13.96-31.55-14.79-68.48-2.21-100.63c12-30.65,37.44-54.45,69.04-63.92
				c17.37-5.21,35.61-5.83,53.26-1.65c4.49,1.07,7.32-6.62,6.78-9.87c-5.17-31.18,2.41-65.03,21.35-90.48
				c19.5-26.21,50.42-41.01,83.11-39.65c18.54,0.77,36.3,6.63,51.72,16.93c4.75,3.17,9.03-7.22,7.31-10.58
				c-7.8-15.27-5.46-34.28,3.37-48.59c8.81-14.27,23.49-23.92,38.4-30.88c31.28-14.6,67.23-17.98,100.9-10.87
				c19.44,4.11,37.86,11.86,54.58,22.55c3.51,2.24,7.48-4.16,7.84-6.82c3.96-29.08,26.59-55.81,56.84-58.86
				c30.63-3.09,59.29,19.24,69.29,47.26C1057.1,200.09,1065.57,190.63,1063.91,186L1063.91,186z"/>
		</g>
	</g>
	<g>
		<path class="st0" d="M1077.85,1169.07c29.9,25.14,79.03,15.13,98.63-20.1c21.74,7.87,47.18,1.93,64.07-14.97
			s24.55-44.08,19.29-68.43c25.7,16.75,62.83,7.35,79.17-20.05c16.34-27.4,9.23-68.31-15.17-87.25
			c30.97,10.82,67.47,11.98,93.44-9.4c25.97-21.38,32.54-70.42,6.45-91.63c30.16,1.85,62.62,3.09,88.01-14.8
			c25.39-17.88,36.35-62.9,12.92-83.74c25.69-11.69,43.76-41.06,43.96-71.47c0.2-30.41-17.47-60.07-43-72.17
			c8.77-31.84,16.48-66.78,5.09-97.61c-11.4-30.83-50.45-50.67-73.47-28.93c22.38-23.71,21.23-68.55-2.33-90.86
			c-23.56-22.31-64.33-17.16-82.62,10.42c26.8-27.63,15.49-82.42-16.49-102.43c-31.97-20.01-74.6-9.35-102.46,17
			c11.08-36.27-1.23-79.57-29.16-102.6s-69.4-24.1-98.28-2.51c11.53-18.75,3.75-48.02-15.17-57.11
			c-18.92-9.09-43.91,4.43-48.77,26.39"/>
		<g>
			<path d="M1074.58,1174.73c33.75,27.74,84.72,12.27,105.29-23.79c-2.22,1.23-4.44,2.46-6.66,3.7
				c25.14,8.73,52.68,0.94,70.79-18.31c18.44-19.6,25.72-48.5,20.37-74.65c-2.6,3.18-5.2,6.36-7.79,9.55
				c22.34,14.14,51.68,9.91,71.47-6.77c21.48-18.1,28.72-48.28,22.05-74.99c-3.6-14.42-11.32-27.55-22.99-36.85
				c-2.18,3.77-4.35,7.54-6.53,11.31c29.37,10.09,64.09,12.52,91.07-5.44c22.61-15.05,35.43-43.07,33.16-70.1
				c-1.2-14.26-6.71-27.49-17.82-36.8c-1.84,3.88-3.67,7.75-5.51,11.63c29.21,1.78,61.06,3,86.9-13.11
				c20.86-13,33.9-37.78,33.88-62.3c-0.01-12.64-4.1-25.33-13.56-34.03c-1.32,3.44-2.64,6.88-3.96,10.31
				c22.38-10.49,38.4-32.1,45.08-55.56c6.96-24.47,3.04-51-10.97-72.3c-7.46-11.34-17.75-20.85-29.97-26.81
				c0.44,1.5,0.87,2.99,1.31,4.49c8.3-30.28,15.94-63.37,6.98-94.41c-6.38-22.09-24.32-41.53-47.64-45.52
				c-12.29-2.1-24.41,1.64-33.6,10.01c1.23,2.65,2.46,5.29,3.68,7.94c19.12-20.78,23.6-53.98,12.49-79.68
				c-11.17-25.86-38.13-39.37-65.61-32.81c-15.68,3.74-28.63,13.5-37.63,26.71c-1.24,1.81-2.17,5.57-0.26,7.25
				c2.05,1.81,4.63-0.39,6.06-1.9c20.81-22,21.48-56.5,8.99-82.78c-6.38-13.42-16.48-24.85-29.82-31.64
				c-15.09-7.68-32.47-9.31-49-6.29c-19.78,3.61-38.16,13.71-52.8,27.35c1.81,1.64,3.61,3.29,5.42,4.93
				c8.53-28.78,4.89-60.59-10.78-86.35c-15.67-25.77-43.89-41.71-74.22-40.57c-17.46,0.65-33.8,6.58-47.86,16.87
				c1.56,2.17,3.12,4.34,4.67,6.5c12.02-20.41,7.85-53.6-15.3-64.72c-24.56-11.79-50.92,9.64-56.61,33.2
				c-0.6,2.48,0.63,5.21,3.47,4.71c3.06-0.54,5.04-4.37,5.68-7.03c4.34-18,27.03-27.83,43.06-18.43
				c15.47,9.08,22.05,32.83,12.91,48.36c-2.52,4.28-0.71,10.44,4.67,6.5c22.07-16.15,52.58-18.31,77.19-6.82
				c24.59,11.47,40.45,35.43,46.1,61.47c3.24,14.93,3.08,30.84-1.27,45.53c-1.17,3.95,1.13,8.92,5.42,4.93
				c22.35-20.82,56.18-33.02,85.99-21.8c25.44,9.58,40.87,35.16,41.91,61.82c0.54,13.8-3,27.28-12.64,37.47
				c1.93,1.78,3.86,3.57,5.8,5.35c12.81-18.81,39.8-25.15,60.43-16.71c22.5,9.2,33.3,33.22,32.45,56.53
				c-0.47,13-4.87,25.63-13.73,35.26c-1.61,1.75-3.17,5.52-1.89,7.8c1.26,2.25,3.84,1.71,5.57,0.13
				c20.59-18.76,51.07-0.52,63.18,19.17c18.86,30.66,8.14,71.89-0.66,103.99c-0.37,1.36-0.17,3.77,1.31,4.49
				c24.94,12.17,40.92,39.33,41.53,66.85c0.61,27.21-14.42,54.08-39.32,65.75c-2.5,1.17-6.81,7.69-3.96,10.31
				c19.29,17.76,13.84,49.82-2.57,67.65c-22.45,24.39-62.08,21.81-92.06,19.98c-4.72-0.29-9.44,8.34-5.51,11.63
				c16.89,14.16,18.28,39.63,10.97,59.06c-9.15,24.31-33.25,36.61-58.29,37.81c-15.61,0.75-31.29-2.08-46.03-7.14
				c-5.06-1.74-10.86,7.86-6.53,11.31c22.05,17.57,29.69,53.73,15.72,78.47c-14.24,25.21-49.13,32.75-73.19,17.52
				c-4.54-2.87-8.44,6.38-7.79,9.55c4.27,20.89-0.95,44.45-16.04,60c-15.1,15.56-39.14,20.94-59.53,13.87
				c-2.82-0.98-5.33,1.37-6.66,3.7c-18.24,31.99-63.79,39.57-91.98,16.4C1077.21,1160.22,1070.32,1171.22,1074.58,1174.73
				L1074.58,1174.73z"/>
		</g>
	</g>
</g>
<g id="Ebene_3">
	<g>
		<path class="st2" d="M633.99,565.18c-42.59-15.74-94.25-0.25-121.91,36.56c-27.65,36.8-29.14,92.06-3.52,130.38
			c25.62,38.32,76.37,56.73,119.75,43.44c26.3,71.25,59.61,140.59,106.88,199.31c47.27,58.72,109.44,106.51,180.87,127.1
			c99.62,28.71,242.13-2.44,303.53-49.78c106.15-81.84,146.25-275.98,146.25-275.98s97.16,2.18,123.9-35.22
			c26.74-37.4,24.9-113.22-5.74-147.31c-22.27-24.77-73.13-31.96-126.92-25.96c-19.03-45.67-25.47-82.55-27.91-127.33
			c-113.66,12.69-230.57-75.09-257.8-189.14C930.55,446.49,693.78,427.28,693.78,427.28s-3.57,117.8-56.94,139.4"/>
		<g>
			<path class="st2" d="M637.36,559.35c-53.76-19.41-115.55,7.75-139.86,58.94c-24.96,52.55-10.32,119.8,40.5,150.92
				c26.43,16.19,59.36,21.31,89.18,12.42c-1.18-0.68-2.35-1.36-3.53-2.04c32.55,87.97,76.01,174.67,144.07,240.71
				c31.33,30.39,67.31,56.26,107.37,73.87c37.44,16.45,77.17,24.25,117.98,24.95c40.77,0.7,81.82-4.55,121.28-14.76
				c33.96-8.79,68.44-21.18,97.63-41.03c27.64-18.79,50.12-44.58,68.98-71.94c19.44-28.2,35.25-58.78,48.74-90.23
				c17.09-39.88,31.09-81.68,40.44-124.09c0.15-0.68,0.3-1.36,0.44-2.05c-2.35,2.45-4.69,4.91-7.04,7.36
				c16.12,0.35,32.42-0.9,48.38-3.02c24.84-3.3,53.31-9.1,72.56-26.37c22.86-20.52,29.24-56.95,28.86-86.17
				c-0.38-29.48-7.9-64.73-31.73-84.48c-14.5-12.01-33.96-17.4-52.23-20.23c-23.52-3.65-47.55-3-71.14-0.43
				c1.18,0.68,2.35,1.36,3.53,2.04c-8.47-20.46-15.41-41.5-20-63.18c-4.38-20.7-6.55-41.73-7.73-62.83
				c-0.13-2.38-1.38-3.61-3.71-3.36c-89.49,9.67-177.82-42.95-224.68-117.38c-13.55-21.52-23.6-45-29.58-69.72
				c-0.96-3.96-5.68-1.52-7.15,0.52c-47.14,65.11-112.43,114.35-187.55,142.77c-49.44,18.71-102.36,29.29-155.21,30.9
				c-9.97,0.3-20.07,0.47-30.03-0.33c-4.24-0.34-7.06,5.37-7.17,8.86c-0.41,13.09-1.92,25.29-4.06,38.5
				c-3.83,23.58-9.61,48.08-22.1,68.71c-6.28,10.38-14.67,19.21-26.01,23.93c-4.81,2-7.22,14.18,0.19,11.11
				c24.27-10.09,37.93-36.46,46.07-59.98c7.93-22.9,12.22-47.05,14.46-71.13c0.51-5.49,0.99-11.01,1.16-16.53
				c-2.39,2.95-4.78,5.9-7.17,8.86c29.95,2.41,60.99-0.77,90.54-5.36c66.66-10.36,131.73-34.13,187.68-72.1
				c40.36-27.39,75.57-61.71,104.17-101.21c-2.38,0.17-4.77,0.35-7.15,0.52c21.66,89.43,96.58,163.32,185.52,185.83
				c24.8,6.28,50.38,8.1,75.81,5.35c-1.24-1.12-2.48-2.24-3.71-3.36c1.2,21.42,3.4,42.8,7.75,63.83
				c4.6,22.25,11.66,43.84,20.35,64.82c0.72,1.74,1.69,2.24,3.53,2.04c20.22-2.2,40.73-2.72,60.97-0.41
				c16.35,1.86,32.97,5.5,47.47,13.54c25.93,14.37,36.13,45.08,38.62,73.06c1.39,15.58,0.57,31.37-2.91,46.64
				c-2.75,12.06-7.31,25.42-15.89,34.67c-7.3,7.87-17.74,12.78-27.69,16.34c-11.98,4.28-24.51,6.97-37.07,8.87
				c-16.88,2.56-34.19,3.93-51.27,3.56c-3.71-0.08-6.38,4.19-7.04,7.36c-7.06,34.1-17.99,67.26-30.6,99.9
				c-23.06,59.7-54.37,121.07-103.77,163.3c-24.64,21.07-54.77,34.5-85.4,44.44c-37.81,12.26-77.51,19.46-117.2,21.33
				c-39.1,1.84-78.92-1.36-116.21-13.8c-40.5-13.5-77.72-35.73-110.38-63.07c-70.49-59.01-117.6-140.8-151.82-224.99
				c-4.44-10.92-8.67-21.92-12.76-32.97c-0.57-1.53-1.82-2.55-3.53-2.04c-49.18,14.67-105.77-11.51-125.66-59.05
				c-10.15-24.26-11.58-52.41-3.37-77.45c8.04-24.55,25.11-44.25,48.07-56.03c25.1-12.88,55.47-15.59,82.13-5.96
				C635.96,572.94,642.25,561.12,637.36,559.35L637.36,559.35z"/>
		</g>
	</g>
</g>
<g id="Ebene_9">
</g>
<g id="Ebene_2">
	<g>
		<g>
			<path d="M644.12,559.71c-53.05-23.73-118.13-0.37-145.73,50.31c-14.03,25.77-18.75,56.26-13.33,85.08
				c5.3,28.17,21.27,53.06,44.55,69.74c25.75,18.45,58.92,25.91,89.91,18.9c4.9-1.11,8.98-13.63,2.28-12.11
				c-51.33,11.61-106.93-19.77-123.55-69.67c-8.36-25.09-7.55-53.08,2.31-77.63c9.64-24,28.41-42.53,52.03-52.84
				c26.68-11.64,58.16-12.02,84.79-0.11C642.52,573.67,649.02,561.9,644.12,559.71L644.12,559.71z"/>
		</g>
	</g>
	<g>
		<g>
			<path d="M1354.69,573.93c28.74-3.2,58.89-6.53,87.03,2.19c23.68,7.34,44.13,23.14,53.16,46.71c4.87,12.71,6.83,26.28,7.58,39.81
				c0.7,12.64,0.6,25.42-1.34,37.95c-1.87,12.1-5.43,24.08-12.15,34.43c-6.58,10.13-16.13,17.93-26.71,23.61
				c-28.75,15.46-62.45,14.4-94.11,13.38c-5.24-0.17-10.47,12.13-4.63,12.32c30.74,0.99,62.34,1.62,91.12-10.83
				c26.14-11.31,44.86-32.86,52.61-60.23c7.52-26.54,7.29-57.28,1.25-84.11c-6.16-27.36-23.06-48.98-48.79-60.45
				c-32.44-14.46-68.48-10.7-102.74-6.89C1351.98,562.37,1347.72,574.7,1354.69,573.93L1354.69,573.93z"/>
		</g>
	</g>
	<g>
		<g>
			<path d="M616,781.7c21.81,69.76,56.43,136.08,102.65,192.8c44.98,55.19,102,102.07,168.83,127.97
				c64.85,25.14,137.12,31.37,205.11,16.28c33.65-7.46,66.26-20.31,95.61-38.43c30.84-19.05,57.68-43.94,80.32-72.17
				c47.54-59.26,76.12-131.43,95.36-204.28c2.36-8.93,4.57-17.91,6.67-26.91c0.6-2.56-0.64-5.38-3.58-4.86
				c-3.14,0.55-5.22,4.51-5.86,7.25c-16.58,71.09-40.95,142.46-83.21,202.68c-20.42,29.1-44.94,55.54-73.8,76.44
				c-27.24,19.73-58.25,34.21-90.55,43.43c-65.31,18.64-136.47,16.41-200.96-4.56c-66.35-21.58-124.06-63.43-170.32-115.14
				c-47.65-53.26-84.24-116.49-108.53-183.6c-2.99-8.25-5.77-16.56-8.39-24.94C623.3,767.14,614.49,776.87,616,781.7L616,781.7z"/>
		</g>
	</g>
	<g>
		<g>
			<path d="M642.08,570.23c17.1-17.5,26.91-41.47,34.94-64.2c7.64-21.6,13.64-43.82,18.61-66.18c1.02-4.58,2.01-9.17,2.87-13.78
				c-2.35,2.45-4.69,4.91-7.04,7.36c29.88,1.78,60.72-1.93,90.08-6.98c66.48-11.45,131.22-35.92,187.02-74.09
				c40.42-27.64,75.79-62.05,104.63-101.63c-2.38,0.17-4.77,0.35-7.15,0.52c30.9,85.52,102.78,154.54,189.38,182.3
				c24.04,7.71,48.93,12.25,74.18,13.12c-0.85-1.16-1.69-2.31-2.54-3.47c2.7,43.58,9.78,87.58,25.35,128.53
				c2.46,6.48,11.15-3.29,9.35-8.03c-15.27-40.15-22.34-83.15-24.99-125.89c-0.09-1.48-0.72-3.4-2.54-3.47
				c-88.8-3.03-172.47-51.86-223.54-123.82c-14.73-20.76-26.65-43.37-35.3-67.31c-1.33-3.68-5.44-1.84-7.15,0.52
				c-47.3,64.93-112.45,114.34-187.16,143.64c-49.22,19.3-101.96,30.8-154.79,33.45c-10.01,0.5-20.15,0.88-30.18,0.28
				c-3.64-0.22-6.47,4.31-7.04,7.36c-6.57,35.2-16.18,71.21-31.43,103.66c-4.75,10.1-10.32,20.66-18.19,28.72
				c-2.07,2.11-4.41,5.55-3.35,8.7C637.02,572.36,640.24,572.11,642.08,570.23L642.08,570.23z"/>
		</g>
	</g>
	<g>
		<g>
			<path d="M1134.36,864.79c-60.37-22.74-129.61-15.34-184.23,18.86c-2.67,1.67-4.93,4.99-4.76,8.25c0.14,2.73,2.38,4.47,4.95,2.86
				c52.44-32.83,119.27-40.16,177.31-18.3C1132.93,878.45,1139.26,866.63,1134.36,864.79L1134.36,864.79z"/>
		</g>
	</g>
	<g>
		<g>
			<path d="M984.87,674.06c8.58-7.14,21.23-8.45,31.47-4.26c10.78,4.4,17.98,14.36,19.22,25.92c1.15,10.75-2.72,21.09-12.46,26.44
				c-10.16,5.58-22.75,5.02-32.49-1.11c-4.61-2.9-11.46,8.69-6.73,11.66c20.91,13.15,48.13,1.85,57.72-19.77
				c9.5-21.41,1.01-49.38-22.73-56.26c-12.8-3.71-26.46-0.45-36.63,8.01c-2.22,1.85-4.35,5.75-3.35,8.7
				C979.89,676.38,982.92,675.69,984.87,674.06L984.87,674.06z"/>
		</g>
	</g>
	<g>
		<path d="M923.1,565.93c-1.87-8.71,0.28-17.73,1.91-26.49s2.65-18.26-1.22-26.25c-3.87-7.99-14.45-13.07-21.62-8.04
			c-7.59,5.33-6.5,16.79-7.09,26.21c-0.47,7.5-2.53,14.79-3.62,22.22c-1.1,7.43-1.15,15.36,2.15,22.06s10.73,11.7,17.87,10.05
			c7.14-1.65,11.72-11.54,7.12-17.39"/>
		<g>
			<path d="M927.77,561.91c-3.24-17.76,8.99-35.9,0.44-53.28c-6.46-13.13-23.3-15.52-31.99-3.33c-4.27,5.99-5.3,13.19-5.66,20.37
				c-0.44,8.68-1.67,16.84-3.2,25.4c-2.56,14.26-2.49,35.31,14.64,40.37c14.69,4.34,29.52-15.39,20.78-28.22
				c-3.32-4.87-11.32,5.82-8.35,10.17c3.59,5.27-2.25,7.26-6.73,5.99c-7.21-2.05-11.12-9.32-11.88-16.34
				c-0.86-7.97,1.37-15.83,2.76-23.6c1.23-6.88,1.25-13.66,1.77-20.59c0.41-5.36,1.21-10.37,7.85-9.43
				c6.45,0.91,11.04,6.39,12.61,12.41c1.93,7.41,0.15,15.22-1.23,22.57c-1.61,8.57-2.73,16.88-1.15,25.54c0.58,3.19,4.3,2.04,6,0.67
				C926.91,568.6,928.35,565.06,927.77,561.91L927.77,561.91z"/>
		</g>
	</g>
	<g>
		<path d="M1093.63,551.38c3.8-8.53,7.68-17.6,6.64-26.91c-1.04-9.32-9.1-18.48-18.1-16.87c-9.77,1.74-13.84,13.74-15.12,23.84
			c-1.37,10.81-1.71,21.75-1.03,32.63c0.49,7.79,2.63,17.05,9.82,19.56c6.32,2.21,13.33-2.59,16.15-8.81
			c2.82-6.22,2.53-13.39,2.18-20.23"/>
		<g>
			<path d="M1097.9,551.78c5.88-13.27,12.5-31.33,1.43-43.91c-9.67-10.99-23.45-6.39-30.45,4.87c-8.07,12.98-8.23,30.62-8.04,45.37
				c0.14,10.72,0.5,31.06,15.24,32.2c7.7,0.6,14.73-5.45,18.43-11.66c4.84-8.12,4.96-17.61,4.51-26.76
				c-0.14-2.94-2.36-4.12-4.95-2.86c-2.71,1.33-4.91,5.24-4.76,8.25c0.27,5.44,1.58,14.1-2.68,18.39
				c-4.21,4.24-10.26,2.06-12.91-2.64c-2.92-5.17-2.94-11.67-3.11-17.43c-0.23-7.82,0.03-15.69,0.93-23.46
				c0.94-8.18,4.24-24.09,16.1-16.9c13.3,8.06,6.55,24.82,1.71,35.74c-0.96,2.17-1.01,6.08,1.95,6.56
				C1094.42,558.04,1096.89,554.05,1097.9,551.78L1097.9,551.78z"/>
		</g>
	</g>
	<g>
		<g>
			<path d="M1069.04,467.76c26.08-0.86,51.21,10.71,67.65,30.96c3.81,4.7,11.65-6.12,8.35-10.17
				c-17.3-21.31-43.83-34.02-71.37-33.11C1068.44,455.61,1063.37,467.95,1069.04,467.76L1069.04,467.76z"/>
		</g>
	</g>
	<g>
		<g>
			<path d="M857.72,496.26c16.22-19.08,42.03-27.77,66.55-23.54c5.1,0.88,10.65-11.29,4.63-12.32
				c-28.57-4.93-57.57,7.01-76.15,28.86c-1.64,1.93-3.61,6.23-1.7,8.59C853.06,500.29,856.23,498.02,857.72,496.26L857.72,496.26z"
				/>
		</g>
	</g>
	<g>
		<g>
			<path d="M1388.57,606.37c35.74,5.48,64.88,37.51,68.01,73.39c0.69,7.96,10.16-0.21,9.71-5.39
				c-3.42-39.25-33.59-74.27-73.09-80.33C1388.08,593.26,1382.57,605.45,1388.57,606.37L1388.57,606.37z"/>
		</g>
	</g>
	<g>
		<g>
			<path d="M597.37,582.77c-44.57,5.99-78.06,52.94-73.4,96.85c0.84,7.95,10.26-0.2,9.71-5.39c-4-37.68,23.55-74.26,61.41-79.35
				C600.08,594.21,604.3,581.84,597.37,582.77L597.37,582.77z"/>
		</g>
	</g>
</g>
<g id="Ebene_8">
	<ellipse class="st3" cx="914.61" cy="520.85" rx="5.98" ry="6.14"/>
	<ellipse class="st3" cx="1088.82" cy="526.13" rx="5.76" ry="5.92"/>
</g>
<g id="Ebene_10">
	<g class="st4">
		<path class="st5" d="M871.69,865.1c-1.31-21.4-19.65-39.77-40.37-42.43s-41.99,9.32-52.67,27.74
			c-10.68,18.43-11.15,42.16-3.09,61.94c8.95,21.96,28.75,39.49,51.67,43.1s47.96-8.02,58.65-29.14
			c10.69-21.13,4.6-50.29-14.73-63.43"/>
		<g>
			<path class="st5" d="M876.54,862.41c-2.29-29.11-29.64-50.62-58.49-45.38c-31.14,5.65-51.21,35.55-52.8,65.74
				c-1.57,29.87,14.79,60.29,42.12,73.35c25.83,12.34,57.31,4.8,75.25-17.46c19.24-23.87,18.14-63.1-8.11-81.61
				c-4.38-3.09-11.35,8.41-6.73,11.66c17.85,12.58,24.22,39.76,12.88,58.67c-12.11,20.2-39.87,27.18-61.23,19.32
				c-23.43-8.63-40.33-30.87-43.88-55.39c-3.67-25.35,7.72-51.91,33.22-60.38c25.76-8.56,55.86,8.84,58.06,36.86
				C867.46,875.76,876.95,867.59,876.54,862.41L876.54,862.41z"/>
		</g>
	</g>
	<g class="st4">
		<path class="st5" d="M1272.75,798.2c-1.31-21.4-19.65-39.77-40.37-42.43c-20.72-2.66-41.99,9.32-52.67,27.74
			c-10.68,18.43-11.15,42.16-3.09,61.94c8.95,21.96,28.75,39.49,51.67,43.1c22.92,3.61,47.96-8.02,58.65-29.14
			c10.69-21.13,4.6-50.29-14.73-63.43"/>
		<g>
			<path class="st5" d="M1277.61,795.5c-2.29-29.11-29.64-50.62-58.49-45.38c-31.14,5.65-51.21,35.55-52.8,65.74
				c-1.57,29.87,14.79,60.29,42.12,73.35c25.83,12.34,57.31,4.8,75.25-17.46c19.24-23.87,18.14-63.1-8.11-81.61
				c-4.38-3.09-11.35,8.41-6.73,11.66c17.85,12.58,24.22,39.76,12.88,58.67c-12.11,20.2-39.87,27.18-61.23,19.32
				c-23.43-8.63-40.33-30.87-43.88-55.39c-3.67-25.35,7.72-51.91,33.22-60.38c25.76-8.56,55.86,8.84,58.06,36.86
				C1268.53,808.85,1278.02,800.68,1277.61,795.5L1277.61,795.5z"/>
		</g>
	</g>
</g>
<g id="Ebene_13">
	<g class="st6">
		<path d="M526.09,589.25c-8.51,36.74-4.13,76.87,12.07,110.39c16.2,33.52,44.05,60.1,76.62,73.14
			c-38.28,5.92-78.92-15.09-99.01-51.18c-20.09-36.09-18.47-85.19,3.94-119.61"/>
		<g>
			<path d="M513.5,585.78c-14.08,62.28,4.83,131.64,54.4,173.44c13.15,11.09,27.5,19.67,43.42,26.15c0-8.39,0-16.79,0-25.18
				c1.84-0.27-2.33,0.22-2.85,0.26c-1.64,0.13-3.28,0.21-4.93,0.24c-3.76,0.08-7.51-0.12-11.26-0.5c-0.22-0.02-2.53-0.37-0.73-0.09
				c-0.7-0.11-1.39-0.23-2.09-0.35c-1.62-0.29-3.24-0.62-4.85-1c-3.69-0.86-7.33-1.95-10.89-3.24
				c-11.64-4.22-23.52-12.17-32.76-21.69c-20.24-20.89-28.29-50.34-25.67-79.68c1.39-15.59,6.88-31.8,15.7-45.57
				c3.8-5.94,1.23-14.41-4.68-17.86c-6.31-3.69-14.05-1.27-17.86,4.68c-19.68,30.73-24.64,70.46-15.05,105.49
				c9.58,35,34.6,63.73,68.07,77.72c18.13,7.58,37.41,9.6,56.78,6.77c5.57-0.81,9.59-7.38,9.59-12.59c0-6.2-4.19-10.39-9.59-12.59
				c-1.6-0.65-3.89-1.7-6.37-2.93c-2.9-1.44-5.74-2.98-8.53-4.62c-5.14-3.02-10.75-6.8-14.66-9.96
				c-9.42-7.62-18.6-17.02-25.26-26.21c-15.91-21.96-25.68-48.15-27.94-75.16c-1.37-16.32-0.42-32.63,3.18-48.59
				c1.55-6.87-2.1-14.13-9.12-16.06C523,574.86,515.07,578.87,513.5,585.78L513.5,585.78z"/>
		</g>
	</g>
	<g class="st6">
		<path d="M543.09,411.28c-39.82-1.99-79.95,20.07-102.24,56.18c-22.29,36.12-25.96,85.04-9.35,124.64
			c-35.86,16.69-59.02,61.15-53.84,103.37s38.24,78.44,76.85,84.22c-29.33,33.65-27.98,93.44,2.83,125.48
			c30.81,32.03,85.52,30.52,114.82-3.17c-17.83,29.2-18.56,71.24,2.03,98.17c20.6,26.93,62.56,32.21,85.5,7.65
			c-15.58,27.2-13.12,65.26,5.79,89.81c18.91,24.55,52.82,33.67,80,21.52c51.12,46.17,125.69,58.85,187.32,32.23
			c1.18-0.51,0.64-1.63-0.19-2.68c-45.46-57.59-134.53-68.38-188.76-123.91c-55.25-56.58-118.42-238.62-129.08-235.1
			c-154.21,51.03-197.63-245.57-33.68-234.67c161.23,10.72-9.92-61.27-31.04-135.13"/>
		<g>
			<path d="M543.09,398.22c-35.04-1.49-69.55,13.48-94.17,38.12c-26.17,26.19-39.83,62.65-40.75,99.38
				c-0.51,20.33,2.99,41.04,10.74,59.85c2-4.92,4-9.83,6-14.75c-32.05,15.27-54.19,49.28-59.4,83.91
				c-5.57,37,6.41,74.81,33.77,100.79c14.23,13.52,32.25,23.64,51.77,26.74c-1.92-7.27-3.84-14.55-5.76-21.82
				c-26,30.38-32.01,75.76-16.98,112.61c7.73,18.96,20.43,35.37,38.28,45.83c16.64,9.75,36.77,14.01,55.93,11.87
				c22.53-2.52,43.72-12.43,58.88-29.54c-6.84-5.27-13.67-10.55-20.51-15.82c-16.14,26.96-20.37,62.69-8.48,92.09
				c6.19,15.3,15.86,28.36,29.79,37.44c11.91,7.77,26.66,11.98,40.87,11.71c17.24-0.32,33.86-7.11,45.85-19.6
				c-6.84-5.27-13.67-10.55-20.51-15.82c-13.85,24.79-15.97,56.38-5.28,82.76c10.61,26.2,32.94,46.79,61.24,51.98
				c16.5,3.03,32.34,1.1,47.69-5.55c-5.27-0.68-10.55-1.36-15.82-2.04c53.26,47.67,131.92,63.91,198.62,36.18
				c7.5-3.12,13.46-8.81,11.09-17.82c-1.28-4.88-5.24-8.83-8.51-12.54c-5.1-5.8-10.69-11.15-16.63-16.08
				c-12.63-10.48-26.4-19.34-40.77-27.22c-28.52-15.62-58.8-27.84-86.74-44.54c-14.13-8.45-25.63-16.56-37.13-27.73
				c-3.94-3.83-7.65-7.87-11.14-12.11c-0.78-0.95-1.54-1.92-2.31-2.87c-1.46-1.79,0.07,0.11,0.3,0.41
				c-0.39-0.51-0.78-1.02-1.16-1.53c-1.78-2.38-3.53-4.78-5.23-7.22c-14.8-21.17-27.1-44.07-38.73-67.09
				c-21.4-42.37-38.86-86.64-60.39-128.93c-2.89-5.68-5.87-11.43-10.01-16.32c-1.51-1.79-3.18-3.33-5.28-4.48
				c-5.91-3.25-11.28-1.11-17.22,0.53c-2.33,0.64-4.68,1.21-7.04,1.71c-1.15,0.24-2.3,0.47-3.46,0.67
				c-1.03,0.18-5.73,0.73-1.64,0.32c-4.65,0.47-9.26,0.88-13.95,0.82c-2.1-0.03-4.2-0.13-6.29-0.3c-1.03-0.09-2.05-0.22-3.08-0.31
				c-2.2-0.19,1,0.13,1.19,0.17c-0.75-0.13-1.5-0.23-2.25-0.36c-4.04-0.7-8.04-1.68-11.94-2.95c-1.98-0.64-3.9-1.42-5.84-2.14
				c2.45,0.91,1.37,0.6-0.22-0.13c-0.99-0.45-1.97-0.93-2.94-1.42c-3.66-1.85-7.19-3.96-10.56-6.29c-0.79-0.55-1.57-1.13-2.36-1.68
				c-2.51-1.77,2.14,1.79-0.24-0.17c-1.59-1.31-3.18-2.62-4.71-4.01c-3.09-2.79-6-5.78-8.75-8.91c-1.31-1.49-2.54-3.04-3.8-4.57
				c-1.1-1.34,1.64,2.26-0.23-0.33c-0.73-1.02-1.47-2.02-2.19-3.05c-2.45-3.53-4.72-7.19-6.81-10.95
				c-2.13-3.81-4.07-7.73-5.84-11.72c-0.41-0.92-1.57-4.13-0.21-0.45c-0.36-0.97-0.79-1.93-1.16-2.89
				c-0.85-2.19-1.66-4.39-2.41-6.62c-2.83-8.34-4.98-16.92-6.45-25.6c-0.18-1.04-0.33-2.08-0.5-3.13c-0.08-0.52-0.13-1.05-0.23-1.57
				c-0.32-1.7,0.26,2.85,0.15,1.12c-0.14-2.36-0.54-4.72-0.74-7.07c-0.36-4.31-0.55-8.64-0.57-12.96c-0.02-4.42,0.15-8.83,0.5-13.24
				c0.17-2.05,0.42-4.1,0.62-6.15c0.18-1.82-0.47,2.96,0.05-0.33c0.2-1.26,0.39-2.52,0.62-3.77c1.49-8.39,3.81-16.53,6.85-24.49
				c1.15-3.01-0.64,1.32,0.09-0.27c0.41-0.88,0.79-1.78,1.2-2.66c0.92-1.97,1.9-3.92,2.94-5.83c1.89-3.47,3.98-6.83,6.27-10.04
				c0.26-0.37,2.3-3.21,0.89-1.26c-1.38,1.92,0.88-1.08,1.2-1.46c1.29-1.55,2.64-3.05,4.03-4.5c1.32-1.37,2.68-2.7,4.08-3.97
				c0.7-0.64,1.42-1.27,2.15-1.89c0.48-0.4,3.63-2.86,1.75-1.45c-1.92,1.43,0.92-0.65,1.28-0.91c0.79-0.56,1.59-1.1,2.39-1.63
				c1.73-1.14,3.51-2.21,5.32-3.21c1.85-1.02,3.74-1.94,5.65-2.84c0.45-0.21,0.94-0.37,1.38-0.61c1.44-0.79-2.61,0.85-1.02,0.44
				c1.09-0.28,2.16-0.85,3.23-1.23c4.24-1.52,8.61-2.71,13.03-3.59c1.08-0.22,2.17-0.41,3.26-0.59c1.51-0.25,3.61-0.42,0.71-0.14
				c2.61-0.26,5.2-0.54,7.82-0.68c25.09-1.29,51.27,5.07,75.95-2.13c8.45-2.46,16.92-7.54,19.54-16.5
				c2.24-7.66-0.16-15.52-4.27-22.09c-9.73-15.56-25.04-27.81-38.33-40.17c-8.19-7.62-16.34-15.3-24.12-23.34
				c-3.96-4.1-7.82-8.28-11.53-12.61c-1.71-1.99-3.34-4.04-5-6.07c-1.49-1.82,0.01,0.02,0.26,0.35c-0.48-0.64-0.97-1.28-1.45-1.92
				c-0.85-1.15-1.68-2.3-2.5-3.47c-2.8-4-5.39-8.15-7.66-12.48c-0.61-1.17-1.2-2.35-1.76-3.54c-0.24-0.52-0.45-1.07-0.72-1.58
				c-0.82-1.54,0.86,2.4,0.31,0.75c-0.75-2.25-1.66-4.43-2.33-6.72c-4.72-16.09-29.93-9.24-25.18,6.94
				c5.72,19.5,18.41,36.19,31.84,51.07c13.33,14.78,28.2,28.04,42.71,41.64c6.01,5.63,12.02,11.31,17.52,17.45
				c1.12,1.25,2.18,2.55,3.28,3.82c1.73,2.01-0.55-0.81-0.32-0.45c0.41,0.65,0.93,1.25,1.36,1.89c0.75,1.09,1.47,2.21,2.11,3.38
				c0.27,0.49,0.48,1.02,0.77,1.5c1.1,1.83-0.89-3.35-0.4-0.86c0.08,0.41,0.22,1,0.38,1.37c0.86,1.93-0.27-3.52-0.2-1.78
				c0.13,3.53,1-3.07,0.15-0.36c-0.52,1.66,1.75-3.45,0.71-1.7c-1.12,1.88,0.82-0.91,1.13-1.32c-0.31,0.4-0.7,0.76-1.08,1.1
				c-0.92,0.82,3.21-1.8,0.92-0.78c-0.52,0.23-1.22,0.59-1.68,0.92c-1.36,0.98,3.34-1.11,0.88-0.38c-1.52,0.45-3,0.97-4.55,1.33
				c-0.95,0.22-1.91,0.42-2.87,0.59c-0.51,0.09-3.7,0.63-1.46,0.27c2.26-0.36-1.22,0.13-1.76,0.19c-1.45,0.15-2.9,0.26-4.35,0.36
				c-23.73,1.6-47.36-2.88-70.97,0.82c-17.08,2.68-32.91,9.93-46.4,20.66c-25.7,20.45-37.71,53.16-40.69,84.97
				c-3.11,33.14,4.03,67.9,19.75,97.21c15.22,28.39,40.79,52.46,72.86,59.74c17.97,4.08,36.66,3.09,54.39-1.71
				c1.79-0.48,5.3-0.84,6.74-2.03c-0.89,0.73-5.47,0.22-6.28,0c0.47,0.13-3.89-1.88-2.42-0.98c-3.23-1.96-2.57-2.19-1.25-0.77
				c1.59,1.71-2.09-3.2-0.29-0.36c2.82,4.46,5.34,9.05,7.71,13.78c18.93,37.69,34.77,76.89,53.33,114.76
				c10.64,21.71,21.81,43.25,34.56,63.81c11.39,18.37,24.16,36.14,40.48,50.46c44.78,39.28,104.07,53.87,151.72,88.52
				c4.51,3.28,8.7,6.7,13.7,11.39c2.32,2.17,4.57,4.42,6.73,6.74c1.24,1.33,2.46,2.69,3.65,4.07c0.45,0.52,0.89,1.04,1.33,1.57
				c2.03,2.43,0.24,2.19-0.35-1.11c1.12-4.23,2.24-8.47,3.36-12.7c2.8-1.61,3.09-1.92,0.88-0.92c-0.94,0.38-1.89,0.74-2.84,1.1
				c-1.89,0.72-3.8,1.4-5.72,2.04c-3.82,1.29-7.7,2.44-11.6,3.44c-7.56,1.95-15.22,3.37-21.73,4.04c-7.99,0.82-16.03,1.08-24.05,0.8
				c-7.74-0.27-14.72-0.98-21.25-2.13c-31.24-5.49-59.86-19.01-83.22-39.92c-4.8-4.3-10.17-4.49-15.82-2.04
				c1.25-0.54-2.93,1.01-3.47,1.18c-1.78,0.56-3.59,1.04-5.41,1.43c-1.35,0.29-2.74,0.57-4.12,0.75c1.93-0.24-2.97,0.15-3.46,0.17
				c-3.24,0.12-6.52,0.02-9.74-0.36c1.89,0.22-2.94-0.55-3.43-0.65c-1.37-0.3-2.73-0.63-4.09-1.01
				c-11.39-3.19-22.82-10.64-29.72-20.08c-2.15-2.95-4.04-6.09-5.7-9.34c-1.66-3.25-2.08-4.28-3.24-7.76
				c-2.31-6.88-3.5-13.05-3.85-19.22c-0.79-14.12,1.7-26.76,8.3-38.56c7.11-12.71-10.01-26.76-20.51-15.82
				c-0.92,0.96-1.86,1.91-2.84,2.8c-0.64,0.59-1.31,1.17-1.99,1.71c0.22-0.18,1.26-0.93,0.06-0.08c-2.28,1.61-4.68,2.94-7.16,4.21
				c-0.06,0.03-1.96,0.86-0.76,0.36c1.34-0.55-1.1,0.39-1.39,0.48c-1.2,0.4-2.4,0.78-3.62,1.11c-1.22,0.33-2.46,0.59-3.7,0.84
				c-0.62,0.13-1.24,0.23-1.87,0.33c1.91-0.28-0.05-0.02-0.94,0.03c-2.55,0.15-5.09,0.21-7.64,0.06c-0.64-0.04-4.51-0.48-2.26-0.14
				c-1.48-0.22-2.96-0.52-4.42-0.86c-2.53-0.59-5-1.35-7.43-2.23c-0.27-0.1-2.73-1.12-1.46-0.56c1.14,0.5-0.8-0.4-0.82-0.41
				c-1.35-0.71-2.72-1.38-4.04-2.14c-5.32-3.07-7.38-4.73-11.73-9.54c-3.15-3.48-6.53-8.87-9.03-14.48
				c0.51,1.15-0.71-1.79-0.87-2.21c-0.5-1.36-0.96-2.73-1.38-4.11c-1-3.25-1.79-6.56-2.39-9.91c-0.08-0.45-0.54-3.74-0.38-2.34
				c-0.17-1.46-0.29-2.93-0.39-4.41c-0.22-3.45-0.25-6.91-0.1-10.36c0.58-13.01,4.56-26.53,11.52-38.16
				c7.46-12.47-10.5-27.12-20.51-15.82c-2.72,3.07-5.63,5.9-8.77,8.55c-0.17,0.14-1.94,1.48-0.53,0.44
				c-0.72,0.53-1.44,1.05-2.18,1.55c-1.83,1.25-3.71,2.42-5.64,3.51c-1.92,1.08-3.9,2.06-5.9,2.99c-0.26,0.12-2.3,0.93-0.52,0.23
				c-0.82,0.32-1.64,0.63-2.47,0.93c-3.92,1.4-7.95,2.49-12.04,3.27c-0.86,0.16-1.72,0.31-2.59,0.45c-2.43,0.38,3.06-0.19-1.08,0.12
				c-1.74,0.13-3.48,0.29-5.23,0.35c-4.14,0.15-8.32,0-12.43-0.51c-2.43-0.3,2.98,0.66-1.07-0.19c-0.86-0.18-1.72-0.32-2.58-0.5
				c-1.71-0.36-3.41-0.77-5.1-1.24c-1.9-0.53-3.77-1.13-5.63-1.81c-1.03-0.37-2.06-0.75-3.07-1.18c1.63,0.7-0.52-0.28-1.09-0.57
				c-28.13-14.06-40.33-43.8-38.41-75.05c0.95-15.56,7.27-33.64,17.14-45.18c5.67-6.63,4.79-20.15-5.76-21.82
				c-6.74-1.07-14.51-3.38-18.96-5.49c-3.12-1.48-6.14-3.15-9.06-4.98c-3.55-2.23-5.72-3.83-8.04-5.79c-2.7-2.28-5.26-4.71-7.7-7.27
				c-2.47-2.59-5.33-5.97-6.63-7.77c-4.1-5.66-8.27-12.83-10.73-18.52c-11.56-26.73-8.1-57.78,7.15-82.78
				c8.31-13.62,19.25-24.06,34.06-31.12c4.66-2.22,8.04-9.8,6-14.75c-12.12-29.42-13.04-61.26-2.99-91.21
				c9.46-28.18,29.86-51.26,56.89-64.15c3.47-1.65,5.36-2.4,9.31-3.75c3.98-1.35,8.03-2.48,12.14-3.37
				c7.44-1.62,14.87-2.19,23.65-1.82c7.05,0.3,13.06-6.22,13.06-13.06C556.15,403.96,550.16,398.52,543.09,398.22L543.09,398.22z"/>
		</g>
	</g>
	<g class="st6">
		<path d="M949.09,1208.93c43.25-22.23,84.03-50.16,121.2-82.99c-35.78,12.58-75.28,12.14-110.81-1.25
			c-7.53-2.84-16.67,4.09-16.89,12.79c-0.61,24.77-1.22,49.54-1.84,74.31"/>
		<g>
			<path d="M955.68,1220.21c44.65-23.04,86.15-51.84,123.85-85.04c9.65-8.5-0.51-26.03-12.7-21.82
				c-17.13,5.92-34.78,8.94-52.92,8.63c-9.01-0.15-17.93-1.05-26.76-2.88c-8.89-1.84-17.24-5.46-26-7.48
				c-9.4-2.17-19.23,1.82-25.24,9.16c-7.08,8.66-6.42,18.83-6.68,29.4c-0.51,20.53-1.01,41.07-1.52,61.6
				c-0.42,16.81,25.7,16.8,26.11,0c0.47-18.9,0.93-37.81,1.4-56.71c0.11-4.56,0.23-9.13,0.34-13.69c0.05-1.96-0.3-4.25,0.36-4.4
				c0.41-0.09-2.71,2.95,0.15,0.27c-1.02,0.62-0.87,0.52,0.43-0.28c-1.22,0.41-1.09,0.39,0.38-0.05c-1.3-0.05-2.75-0.51-0.85,0.36
				c4.04,1.84,8.58,3.02,12.85,4.23c34.2,9.69,71.32,8.62,104.91-2.98c-4.23-7.27-8.47-14.55-12.7-21.82
				c-36.05,31.75-75.87,58.92-118.56,80.95c-6.26,3.23-8.11,12.01-4.68,17.86C941.53,1221.88,949.39,1223.45,955.68,1220.21
				L955.68,1220.21z"/>
		</g>
	</g>
	<g class="st6">
		<path d="M653.68,1376.43c55.55,118.96,177.71,196.77,299.8,190.97c186.17-8.85,372.33-17.7,558.5-26.54
			c-327.76,41.41-658.98,50.11-988.19,25.94c-9.97-0.73-17.66-13.17-14.57-23.55c24.81-83.18,82.82-153.82,155.82-189.75"/>
		<g>
			<path d="M642.4,1383.02c22.63,48.17,56.6,91.25,98.25,124.4c40.96,32.6,88.94,56.68,140.41,67.15
				c25.93,5.28,52.03,6.85,78.42,5.6c35.03-1.66,70.06-3.33,105.09-4.99c70.06-3.33,140.13-6.66,210.19-9.99
				c70.4-3.35,140.79-6.69,211.19-10.04c8.67-0.41,17.35-0.82,26.02-1.24c0-8.7,0-17.41,0-26.11
				c-87.15,10.99-174.58,19.71-262.19,26.1c-87.22,6.36-174.61,10.42-262.05,12.17c-87.42,1.76-174.89,1.21-262.28-1.64
				c-43.87-1.43-87.72-3.45-131.53-6.04c-22.08-1.31-44.14-2.76-66.2-4.36c-1.28-0.09-2.69-0.33-3.95-0.29
				c0.82-0.03,1.09,0.1,1.83,0.5c-0.73-0.4-1.49-0.74-2.16-1.25c0.89,0.67,0.55,0.82-0.25-0.47c1.27,2.05-1.39-2.32-0.89-1.28
				c0.58,1.21-0.41-1.3-0.5-1.56c-0.46-1.35,0.14,1.16-0.23-1.14c-0.32-1.95,0.06-1.47-0.11-0.52c0.17-0.95,0.51-1.89,0.78-2.81
				c0.59-2,1.23-3.99,1.88-5.98c1.45-4.46,3-8.89,4.64-13.28c22.72-60.73,66.09-115.63,121.54-149.46
				c6.92-4.22,14.04-8.12,21.3-11.72c6.32-3.13,8.07-12.08,4.68-17.86c-3.77-6.44-11.52-7.83-17.86-4.68
				c-62.94,31.2-113.46,86.02-143.25,149.29c-4.01,8.53-7.7,17.23-11.05,26.04c-3.03,7.96-6.63,16.43-8.08,24.86
				c-1.78,10.35,1.45,20.94,8.67,28.59c7.91,8.38,18.13,8.81,28.92,9.58c45.1,3.22,90.24,5.82,135.42,7.81
				c89.99,3.96,180.09,5.47,270.17,4.54c90.08-0.93,180.14-4.31,270.04-10.12c89.95-5.82,179.74-14.08,269.25-24.78
				c11.15-1.33,22.3-2.7,33.44-4.11c6.99-0.88,13.06-5.37,13.06-13.06c0-6.81-5.98-13.39-13.06-13.06
				c-69.06,3.28-138.12,6.56-207.19,9.85c-69.06,3.28-138.12,6.56-207.19,9.85c-34.7,1.65-69.4,3.3-104.09,4.95
				c-28.61,1.36-57.15,3.65-85.69,0.24c-2.97-0.35-2.88-0.34-6.44-0.89c-3.3-0.51-6.59-1.08-9.87-1.71
				c-6.1-1.16-12.16-2.52-18.18-4.07c-11.85-3.05-23.51-6.82-34.91-11.27c-10.42-4.06-21.49-9.23-32.42-15.12
				c-11.17-6.02-21.99-12.68-32.4-19.94c-40.9-28.52-75.59-67.58-99.69-112.05c-3.17-5.84-6.14-11.78-8.97-17.8
				c-3-6.38-12.17-8.02-17.86-4.68C640.55,1368.98,639.39,1376.62,642.4,1383.02L642.4,1383.02z"/>
		</g>
	</g>
</g>
<g id="Ebene_12">
</g>
<g id="Ebene_16">
	<g>
		<g id="Ebene_5">
			<g class="st7">
				<path d="M1422.08,965.32c-18.4-12.31-23.4-22.06-53.13-32.43c-19.62-6.84-97.06,12.01-117.1,26.09
					c-7.21,5.06-10.27,2.06-34.82-2.04c-13.84-2.31-27.44-8.18-41.35-6.57c-20.55,2.38-36.96,12.64-48.42,29.45
					c-46.29,67.95-76.76,152.5-92.52,232.93c-5.17,26.37-7.45,56.95,10.96,77.04c11.88,12.96,27.64,25.63,45.3,26.86
					c36.34,2.52,32.48,25.75,50.12,72.75c3.13,8.34,44.47,55.84,40.62,107.76c-4.04,54.46-22.44,116.07-33.22,161.42
					c-7.58,31.89-20.26,79.09,3.15,102.74c16.1,16.27,49.6,10.89,71.39,3.82c21.79-7.07,43.2-21.28,52.27-41.94
					c40.33-91.87,52.48-140.49,68.55-242.87c56.37,2.53,102.8,19.62,154.62,29.72c22.94,4.47,49.64-0.74,71.2-9.36
					c23.53-9.4,46.21-38.89,50.02-63.56s-12.82-52.36-22.78-63.63c54.44-9.13,62.61-83.89,34.01-127.08
					c31.23-6.3,37.03-38.1,36.85-65.55c-0.18-27.44-10.61-40-33.78-63.56c22.89-4.62,29.99-32.81,19.29-53.33
					c-10.7-20.51-32.01-35.37-52.72-46.25c-55.9-29.36-109.21-41.29-178.54-56.14"/>
				<g>
					<path d="M1424.8,962.37c-9.13-6.16-17.17-13.71-26.37-19.75c-5.06-3.32-10.44-6.16-16-8.59c-4.88-2.13-10-4.5-15.31-5.35
						c-8.41-1.33-17.2-0.42-25.57,0.64c-11.11,1.4-22.13,3.58-33,6.17c-10.99,2.62-21.89,5.7-32.52,9.45
						c-7.96,2.81-16.11,5.87-23.23,10.4c-2.25,1.43-4.02,2.81-6.79,2.94c-3.75,0.18-7.65-0.95-11.3-1.69
						c-7.21-1.46-14.51-2.52-21.68-4.14c-8.12-1.83-16.1-4.29-24.39-5.28c-13.65-1.62-28.08,2.15-39.75,9.02
						c-12.2,7.17-20.65,17.52-28.26,29.09c-18.09,27.51-33.3,56.86-46.15,87.08c-13.01,30.57-23.6,62.15-32.1,94.23
						c-4.18,15.78-7.86,31.69-10.95,47.71c-2.52,13.06-4.3,26.5-3.39,39.84c0.85,12.6,4.34,25.1,12.21,35.33
						c9.16,11.92,22.7,23.12,37.16,28.08c10.63,3.64,22.74,1.69,32.33,8.4c7.29,5.11,10.89,13.38,13.75,21.4
						c4.4,12.34,7.66,25.03,11.98,37.4c2.33,6.66,5.13,11.64,9.02,17.49c11.99,18.01,22.94,36.83,29.22,57.52
						c8.77,28.93,3.53,58.64-1.88,87.61c-5.84,31.25-13.96,62-21.73,92.81c-6.11,24.26-13.17,48.96-14.83,74.02
						c-1.42,21.51,2.52,48.88,26.02,57.8c12.84,4.87,27.56,3.79,40.76,1.46c13.8-2.43,27.43-6.69,39.7-13.33
						c12.4-6.7,23.68-15.91,31.41-27.64c4.32-6.55,7.13-13.93,10.2-21.08c3.16-7.34,6.25-14.7,9.27-22.1
						c10.58-25.95,20.1-52.32,27.8-79.25c7.7-26.93,13.54-54.34,18.52-81.89c2.94-16.23,5.59-32.51,8.16-48.81
						c-1.55,1.44-3.09,2.88-4.64,4.31c30.76,1.46,60.85,7.62,90.7,14.89c14.21,3.46,28.37,7.09,42.62,10.35
						c13.75,3.15,27.48,6.4,41.67,6.08c13.57-0.31,27.11-2.91,39.98-6.95c10.98-3.45,21.08-7.9,30.04-15.08
						c16.92-13.55,31.24-33.81,35.19-55.21c4.34-23.5-7.55-49.51-23-67.23c-1.12,2.06-2.23,4.12-3.35,6.18
						c45.96-8.1,60.22-59.71,51.51-99.25c-2.61-11.84-7.06-23.23-13.76-33.47c-1.25,1.88-2.49,3.77-3.74,5.65
						c22.37-4.8,34.65-23.42,38.67-44.44c3.81-19.92,3.95-42.82-6.86-60.84c-6.73-11.22-16.24-20.69-25.39-30.01
						c-1.12,2.06-2.23,4.12-3.35,6.18c17.24-3.8,27.34-19.75,28.03-36.37c0.84-20.21-12.92-37.43-28-49.87
						c-17.59-14.52-38.94-24.73-59.84-33.73c-21.46-9.23-43.68-16.58-66.22-22.78c-27.46-7.55-55.34-13.51-83.18-19.47
						c-3.11-0.67-7.68,5.82-4.27,6.55c44.11,9.45,88.52,18.85,130.83,34.77c20.29,7.64,40.55,16.52,59.07,27.78
						c16.91,10.27,34.81,24.23,42.23,42.97c6.5,16.43,2.37,39.34-17.38,43.68c-2.07,0.45-5.33,4.17-3.35,6.18
						c13.54,13.8,28.27,28.33,31.95,47.86c1.79,9.52,1.62,19.53,0.7,29.12c-0.91,9.5-2.79,19.24-7.34,27.74
						c-5.28,9.86-14,15.84-25.03,18.21c-1.77,0.38-5.04,3.66-3.74,5.65c10.93,16.72,16.16,36.64,16,56.34
						c-0.15,18.36-5.27,37.99-18.61,51.38c-7.46,7.49-17.22,11.86-27.67,13.7c-2.23,0.39-5.14,4.13-3.35,6.18
						c13.17,15.1,23.47,36.57,22.76,56.62c-0.74,20.78-14.93,41.49-30.64,54.46c-8.61,7.1-18.37,11.25-29.07,14.5
						c-12.67,3.85-25.88,6.24-39.21,6.28c-13.44,0.03-26.55-3.29-39.58-6.29c-13.47-3.11-26.86-6.53-40.28-9.8
						c-30.58-7.46-61.4-13.76-92.9-15.26c-2.09-0.1-4.35,2.47-4.64,4.31c-8.81,55.99-19.03,111.71-37.68,165.38
						c-4.7,13.53-9.81,26.92-15.19,40.2c-2.87,7.09-5.82,14.16-8.82,21.2c-3.03,7.1-5.7,14.66-9.75,21.27
						c-14.79,24.11-45.75,35.72-73.18,38.69c-12.96,1.4-28.37,1.17-39.09-7.33c-8.74-6.94-13.03-17.93-14.6-28.52
						c-3.47-23.43,2.88-47.48,8.29-70.08c6.71-28.03,14.26-55.85,20.7-83.95c3.55-15.5,6.79-31.09,9.32-46.79
						c2.32-14.4,4.72-29.27,4.55-43.91c-0.27-23.89-9.15-47.08-20.79-67.86c-4.36-7.79-9.19-15.29-14.15-22.72
						c-3.93-5.9-6.54-10.88-8.89-17.62c-4.12-11.84-7.29-23.98-11.43-35.82c-2.75-7.89-6.22-16.2-12.82-21.81
						c-6.97-5.93-15.9-7.45-24.75-8.31c-16.83-1.63-30.78-12.54-41.99-24.29c-19.46-20.38-17.7-49.33-12.94-74.78
						c5.87-31.44,14.11-62.54,24.26-92.87c10.28-30.71,22.67-60.76,37.58-89.57c7.4-14.3,15.46-28.27,24.21-41.81
						c7.49-11.6,15.27-22.42,27.83-29.17c13.37-7.19,28.05-8.67,42.89-5.32c13.79,3.11,27.52,6.17,41.43,8.7
						c6.87,1.25,11.58,0.78,17.43-3c6.62-4.29,14.21-7.16,21.65-9.78c20.55-7.25,42.23-12.61,63.94-15.35
						c7.99-1.01,16.66-2.1,24.7-0.72c5.31,0.91,10.48,3.37,15.37,5.53c5.56,2.46,10.88,5.36,15.88,8.78
						c8.53,5.84,16.13,12.84,24.7,18.63C1422.19,970.18,1427.45,964.16,1424.8,962.37L1424.8,962.37z"/>
				</g>
			</g>
		</g>
		<g id="Ebene_5_Kopie">
			<g>
				<path class="st8" d="M1455.91,959.05c-18.4-12.31-23.4-22.06-53.13-32.43c-19.62-6.84-97.06,12.01-117.1,26.09
					c-7.21,5.06-10.27,2.06-34.82-2.04c-13.84-2.31-27.44-8.18-41.35-6.57c-20.55,2.38-36.96,12.64-48.42,29.45
					c-46.28,67.94-76.76,152.49-92.52,232.93c-5.17,26.37-7.45,56.95,10.96,77.04c11.88,12.96,27.64,25.63,45.3,26.86
					c36.34,2.52,32.48,25.75,50.12,72.75c3.13,8.34,44.47,55.84,40.62,107.76c-4.04,54.46-22.44,116.07-33.22,161.42
					c-7.58,31.89-20.26,79.09,3.15,102.74c16.1,16.27,49.6,10.89,71.39,3.82c21.79-7.07,43.2-21.28,52.27-41.94
					c40.33-91.87,52.48-140.49,68.55-242.87c56.37,2.53,102.8,19.62,154.62,29.72c22.94,4.47,49.64-0.74,71.2-9.36
					c23.53-9.4,46.21-38.89,50.02-63.56c3.82-24.67-12.82-52.36-22.78-63.63c54.44-9.13,63.32-74.59,34.71-117.78
					c31.23-6.3,36.32-47.4,36.15-74.85c-0.18-27.45-10.61-40-33.78-63.56c22.89-4.62,29.99-32.81,19.29-53.33
					c-10.7-20.51-32.01-35.37-52.72-46.25c-55.9-29.36-109.21-41.29-178.54-56.14"/>
				<g>
					<path class="st8" d="M1458.63,956.1c-9.13-6.16-17.17-13.71-26.37-19.75c-5.06-3.32-10.44-6.16-16-8.59
						c-4.88-2.13-10-4.5-15.31-5.35c-8.41-1.33-17.2-0.42-25.57,0.64c-11.11,1.4-22.13,3.58-33,6.17
						c-10.99,2.62-21.89,5.7-32.52,9.45c-7.96,2.81-16.11,5.87-23.23,10.4c-2.25,1.43-4.02,2.81-6.79,2.94
						c-3.75,0.18-7.65-0.95-11.3-1.69c-7.21-1.46-14.51-2.52-21.68-4.14c-8.12-1.83-16.1-4.29-24.39-5.28
						c-13.65-1.62-28.08,2.15-39.75,9.02c-12.2,7.17-20.65,17.52-28.26,29.09c-18.09,27.51-33.3,56.86-46.15,87.08
						c-13,30.57-23.6,62.15-32.09,94.23c-4.18,15.78-7.86,31.69-10.95,47.71c-2.52,13.06-4.3,26.5-3.39,39.84
						c0.85,12.6,4.34,25.1,12.21,35.33c9.16,11.92,22.7,23.12,37.16,28.08c10.63,3.64,22.74,1.69,32.33,8.4
						c7.29,5.11,10.89,13.38,13.75,21.4c4.4,12.34,7.66,25.03,11.98,37.4c2.33,6.66,5.13,11.64,9.02,17.49
						c11.99,18.01,22.94,36.83,29.22,57.52c8.77,28.93,3.53,58.65-1.88,87.61c-5.84,31.25-13.96,62-21.73,92.81
						c-6.11,24.26-13.17,48.96-14.83,74.02c-1.42,21.51,2.52,48.88,26.02,57.8c12.84,4.87,27.56,3.79,40.76,1.46
						c13.8-2.43,27.43-6.69,39.7-13.33c12.4-6.7,23.68-15.91,31.41-27.64c4.32-6.55,7.13-13.93,10.2-21.08
						c3.16-7.34,6.25-14.7,9.27-22.1c10.58-25.95,20.1-52.32,27.8-79.25c7.7-26.93,13.54-54.34,18.52-81.89
						c2.94-16.23,5.59-32.51,8.16-48.81c-1.55,1.44-3.09,2.88-4.64,4.31c30.76,1.46,60.85,7.62,90.7,14.89
						c14.21,3.46,28.37,7.09,42.62,10.35c13.75,3.15,27.48,6.4,41.67,6.08c13.57-0.31,27.11-2.91,39.98-6.95
						c10.98-3.45,21.08-7.9,30.04-15.08c16.92-13.55,31.24-33.81,35.19-55.21c4.34-23.5-7.55-49.51-23-67.23
						c-1.12,2.06-2.23,4.12-3.35,6.18c20.1-3.54,36.85-15.62,46.14-33.43c9.13-17.5,10.36-38.43,6.03-57.53
						c-2.61-11.53-7.2-22.5-13.72-32.47c-1.25,1.88-2.49,3.77-3.74,5.65c22.94-4.96,33.54-27.19,37.47-47.95
						c3.89-20.51,5.41-45-4.9-64.08c-6.68-12.36-17.05-22.58-26.85-32.57c-1.12,2.06-2.23,4.12-3.35,6.18
						c17.24-3.8,27.34-19.75,28.03-36.37c0.84-20.21-12.92-37.43-28-49.87c-17.59-14.52-38.94-24.73-59.84-33.73
						c-21.46-9.23-43.68-16.58-66.22-22.78c-27.46-7.55-55.34-13.51-83.18-19.47c-3.11-0.67-7.68,5.82-4.27,6.55
						c44.11,9.45,88.52,18.85,130.83,34.77c20.29,7.64,40.55,16.52,59.07,27.78c16.91,10.27,34.81,24.23,42.23,42.97
						c6.5,16.43,2.37,39.34-17.38,43.68c-2.07,0.45-5.33,4.17-3.35,6.18c15.08,15.36,30.29,31.02,32.72,53.11
						c1.11,10.08,0.61,20.54-0.59,30.57c-1.18,9.93-3.27,19.93-7.62,28.99c-4.75,9.92-12.44,17.15-23.53,19.55
						c-1.76,0.38-5.04,3.66-3.74,5.65c18.57,28.38,24.96,74.65-2.97,99.41c-7.85,6.96-17.64,10.9-28,12.72
						c-2.23,0.39-5.14,4.13-3.35,6.18c13.17,15.1,23.47,36.57,22.76,56.62c-0.74,20.78-14.93,41.49-30.64,54.46
						c-8.61,7.1-18.37,11.25-29.07,14.5c-12.67,3.85-25.88,6.24-39.21,6.28c-13.44,0.03-26.55-3.29-39.58-6.29
						c-13.47-3.11-26.86-6.53-40.28-9.8c-30.58-7.46-61.4-13.76-92.9-15.26c-2.09-0.1-4.35,2.47-4.64,4.31
						c-8.81,55.99-19.03,111.71-37.68,165.38c-4.7,13.53-9.81,26.92-15.19,40.2c-2.87,7.09-5.82,14.16-8.82,21.2
						c-3.03,7.1-5.7,14.66-9.75,21.27c-14.79,24.11-45.75,35.72-73.18,38.69c-12.96,1.4-28.37,1.17-39.09-7.33
						c-8.74-6.94-13.03-17.93-14.6-28.52c-3.47-23.43,2.88-47.48,8.29-70.08c6.71-28.03,14.26-55.85,20.7-83.95
						c3.55-15.5,6.79-31.09,9.32-46.79c2.32-14.4,4.72-29.27,4.55-43.91c-0.27-23.89-9.15-47.08-20.79-67.86
						c-4.36-7.79-9.19-15.29-14.15-22.72c-3.93-5.9-6.54-10.88-8.89-17.62c-4.12-11.84-7.29-23.98-11.43-35.82
						c-2.75-7.89-6.22-16.2-12.82-21.81c-6.97-5.93-15.9-7.45-24.75-8.31c-16.83-1.63-30.78-12.54-41.99-24.29
						c-19.46-20.38-17.7-49.33-12.95-74.78c5.87-31.44,14.11-62.54,24.26-92.87c10.28-30.71,22.67-60.76,37.58-89.57
						c7.4-14.3,15.46-28.27,24.21-41.81c7.49-11.6,15.27-22.42,27.83-29.17c13.37-7.19,28.05-8.67,42.89-5.32
						c13.79,3.11,27.52,6.17,41.43,8.7c6.87,1.25,11.58,0.78,17.43-3c6.62-4.29,14.21-7.16,21.65-9.78
						c20.55-7.25,42.23-12.61,63.94-15.35c7.99-1.01,16.66-2.1,24.7-0.72c5.31,0.91,10.48,3.37,15.37,5.53
						c5.56,2.46,10.88,5.36,15.88,8.78c8.53,5.84,16.13,12.84,24.7,18.63C1456.02,963.91,1461.29,957.89,1458.63,956.1
						L1458.63,956.1z"/>
				</g>
			</g>
		</g>
		<g id="Ebene_2_1_">
			<g>
				<g>
					<path d="M1195.92,1177.48c-21.18,21.91-35.74,49.46-42.89,78.84c-7.09,29.18-6.8,60.16,1.39,89.22
						c4.18,14.81,10.6,28.72,18.57,41.94c8.5,14.11,18.2,27.52,25.98,42.04c8.15,15.21,13.18,31.19,13.72,48.39
						c0.55,18.05-2.97,35.91-6.81,53.45c-8.62,39.24-17.54,78.42-26.31,117.63c-4.07,18.18-8.96,36.38-11.86,54.8
						c-2.37,15.11-2.53,31.78,6.6,45.02c16.61,24.09,51.88,25.95,77.07,16.36c31.51-12,54.78-38.03,70.19-66.78
						c8.91-16.62,15.55-34.28,21.4-52.15c6.14-18.76,11.66-37.73,16.58-56.84c9.91-38.43,17.37-77.48,22.34-116.86
						c1.22-9.71,2.29-19.44,3.21-29.18c0.45-4.73-6.13-1.19-6.42,1.89c-3.66,38.6-9.67,76.96-18.06,114.81
						c-4.19,18.92-8.97,37.71-14.34,56.34c-5.21,18.1-10.77,36.17-17.61,53.73c-11.97,30.69-29.36,60.96-58,79.37
						c-23.11,14.85-56.53,21.59-80.6,4.04c-12.24-8.92-17.31-22.74-17.24-37.29c0.08-17.03,5.3-34.04,8.98-50.52
						c8.59-38.38,17.18-76.77,25.76-115.15c7.51-33.57,17.74-69.41,7.18-103.6c-9.4-30.43-32.43-54.35-45.6-83.06
						c-12.31-26.84-16.8-56.9-13.77-86.02c3.02-29.04,13.25-57.29,30.51-81.03c4.15-5.71,8.74-11.08,13.65-16.17
						c0.97-1,2.26-3.36,0.9-4.57C1199.06,1174.9,1196.86,1176.51,1195.92,1177.48L1195.92,1177.48z"/>
				</g>
			</g>
			<g>
				<g>
					<path d="M1504.43,1401.35c-33.38-10.12-66.91-19.77-99.99-30.84c-16.42-5.49-32.74-11.32-48.79-17.81
						c-12.6-5.1-25.29-11.15-35.14-20.64c-9.77-9.41-15.12-22.33-11.96-35.64c3.07-12.96,13.13-23.81,24.6-30.4
						c27.11-15.59,61.71-11.79,91.17-5.39c35.46,7.71,70.09,19.57,102.96,34.84c29.17,13.56,58.33,29.48,82.23,51.09
						c22.22,20.09,39.47,46.46,40.88,76.66c0.72,15.33-2.65,31.05-11.14,43.99c-7.56,11.53-18.87,20.05-31.47,25.77
						c-29.79,13.54-63.73,10.58-94.96,3.33c-17.56-4.08-34.65-9.89-52.21-13.93c-16.33-3.75-32.96-5.9-49.58-7.88
						c-8.95-1.06-17.92-2.08-26.87-3.22c-1.91-0.24-3.62,0.95-4.61,2.51c-0.54,0.85-1.59,3.8,0.34,4.05
						c18.22,2.32,36.52,4.07,54.67,6.94c18.02,2.85,35.29,7.77,52.84,12.63c33.61,9.32,69.32,16.77,103.66,7.5
						c14.31-3.86,28.11-10.5,39.18-20.25c11.9-10.47,20.21-23.99,24.15-39.23c7.94-30.81-2.7-62.6-22.52-87.07
						c-20.04-24.74-47.82-42.32-75.8-57.24c-33.74-18-69.61-32.13-106.62-41.99c-31.66-8.44-66.58-15.77-98.74-6.37
						c-14.78,4.32-28.31,12.38-37.85,24.37c-8.92,11.22-14.18,25.46-10.61,39.74c3.35,13.42,13.89,23.52,25.47,30.71
						c13.19,8.19,28.03,13.56,42.55,18.95c34.55,12.82,69.92,23.37,105.22,33.93c8.23,2.47,16.46,4.92,24.69,7.42
						C1503.19,1408.82,1507.88,1402.39,1504.43,1401.35L1504.43,1401.35z"/>
				</g>
			</g>
			<g>
				<g>
					<path d="M1365.09,1250.32c-14.79-11.55-29.5-26.48-33.73-45.16c-2.78-12.29,0-24.71,7.26-34.64
						c5.78-7.91,14.85-14.69,24.92-17.65c8.84-2.59,18.27-3.38,27.47-3.68c10.93-0.35,21.9,0.18,32.79,1.25
						c47.96,4.69,94.43,21.06,137.9,41.17c22.3,10.32,43.41,22.49,64.57,34.88c16.7,9.78,34.72,20.31,45.46,36.78
						c10.64,16.33,12.44,36.74,7.96,55.21c-4.1,16.9-14.07,33.3-29.84,41.91c-3.98,2.17-8.19,3.75-12.61,4.85
						c-1.8,0.45-3.56,2.38-3.84,4.18c-0.28,1.74,0.85,2.71,2.58,2.28c40.2-9.98,59.72-57.59,50.08-94.84
						c-5.25-20.29-20.5-34.79-37.74-46.12c-9.23-6.07-18.91-11.45-28.41-17.07c-11.08-6.57-22.27-12.93-33.75-18.8
						c-24.67-12.61-50.28-23.47-76.54-32.4c-22.55-7.67-45.45-13.84-69.06-17.11c-21.95-3.04-44.87-4.73-66.78-0.94
						c-13.32,2.31-24.9,8.1-34.3,17.66c-9.47,9.63-15.56,22.4-15.75,35.92c-0.24,17.58,9.81,33.48,21.9,45.81
						c4.37,4.46,9.11,8.55,14.04,12.4C1362.31,1258.31,1367.67,1252.35,1365.09,1250.32L1365.09,1250.32z"/>
				</g>
			</g>
			<g>
				<g>
					<path d="M1394.29,1142.92c-9.18-7.94-16.64-18.24-22.53-28.67c-7.27-12.87-13.05-28.24-10.2-43.06
						c3.33-17.29,18.98-27.64,35.48-31.59c21.58-5.17,44.67-0.31,66.18,3.36c46.36,7.9,92.5,18.56,136.34,35.75
						c38.94,15.27,79.84,36.13,97.75,75.73c3.84,8.5,6.26,17.65,5.99,26.96c-0.2,7.07-1.59,14.22-3.43,21.02
						c-3.86,14.36-11.07,28.72-23.28,37.91c-3.19,2.4-6.72,4.41-10.44,5.92c-1.77,0.72-3.53,2.2-3.84,4.18
						c-0.24,1.53,0.86,2.98,2.58,2.28c16.79-6.82,28.7-20.53,35.93-36.6c3.28-7.28,5.63-15.01,7.16-22.83
						c1.56-7.96,2.48-16.18,1.33-24.28c-2.83-19.94-15-38.05-29.07-52.29c-15.85-16.05-36.13-27.09-56.66-36.28
						c-45.67-20.43-94.53-32.88-143.66-41.83c-12.2-2.22-24.45-4.38-36.75-6.03c-11.77-1.58-23.72-2.56-35.53-1.1
						c-19.06,2.36-38.34,11.55-47.75,28.62c-15.46,28.05,3.87,62.58,23.74,83.68c1.66,1.77,3.39,3.47,5.23,5.07
						C1391.37,1151,1396.81,1145.09,1394.29,1142.92L1394.29,1142.92z"/>
				</g>
			</g>
			<g>
				<g>
					<path d="M1408.23,1029.57c-12.03-17.81-9.59-42.98,4.77-58.65c19.39-21.17,52.68-13.8,77.61-8.37
						c33.18,7.23,65.73,17.38,97.12,30.27c15.2,6.24,30.18,13.08,44.75,20.65c12.42,6.45,24.6,13.77,34.79,23.37
						c10.76,10.14,18.77,22.81,20.49,37.5c1.53,13.03-1.62,27.24-12.62,35.51c-1.25,0.94-2.87,3.12-2.07,4.76
						c0.83,1.7,3.07,0.73,4.14-0.08c22.57-17,21.52-50.13,6.06-71.59c-8.64-12-20.58-21.13-33.28-28.7
						c-14.36-8.56-29.65-15.72-44.96-22.45c-33.3-14.63-68.01-26.14-103.5-34.32c-27.9-6.43-63.14-15.04-87.11,5.34
						c-17.86,15.19-25.91,42-16.58,63.97c1.14,2.67,2.54,5.2,4.17,7.61C1404.1,1037.49,1409.94,1032.11,1408.23,1029.57
						L1408.23,1029.57z"/>
				</g>
			</g>
			<g>
				<g>
					<path d="M1463.65,950.91c-21.44-20.25-52.71-28.9-81.68-30.29c-30.23-1.46-60.28,6.72-85.88,22.19
						c-14.87,8.99-28.21,20.29-39.28,33.53c-0.89,1.07-2.31,3.32-0.9,4.57c1.34,1.19,3.67-0.31,4.54-1.34
						c18.54-22.18,43.73-38.55,71.82-46.75c27.6-8.06,57.59-7.37,85.13,1.25c15.01,4.7,29.37,11.92,40.81,22.73
						C1460.6,959.07,1466.09,953.22,1463.65,950.91L1463.65,950.91z"/>
				</g>
			</g>
			<g>
				<g>
					<path d="M1284.7,949.21c-25.23-8.6-52.9-17.3-79.7-11.8c-8.44,1.74-16.98,4.95-23.8,10.19c-3.97,3.05-7.52,6.67-10.83,10.39
						c-9.12,10.24-16.86,21.7-24.08,33.29c-9.49,15.24-18.05,31.05-26.01,47.11c-17.91,36.09-32.98,73.74-44.12,112.42
						c-5.24,18.2-9.59,36.72-12.19,55.49c-2.24,16.12-3.36,32.67-1.41,48.92c1.62,13.46,4.99,28.86,16.15,37.96
						c8.17,6.66,18.26,11.05,28.05,14.84c10.22,3.96,20.72,7.18,31.17,10.48c4.19,1.32,8.38,2.65,12.51,4.16
						c2.96,1.08,7.72-5.3,4.27-6.55c-19.39-7.06-39.7-11.62-58.19-21.01c-7.64-3.89-16.09-9-20.04-16.83
						c-2.73-5.41-4.62-11.28-5.86-17.18c-3.08-14.56-3-29.71-1.66-44.42c1.64-17.92,5.16-35.64,9.61-53.05
						c9.73-38.13,23.9-75.2,40.57-110.87c13.66-29.24,28.93-58.63,48.83-84.3c0.78-1.01-0.49,0.62,0.29-0.37
						c0.24-0.3,0.47-0.6,0.71-0.89c0.39-0.48,0.77-0.97,1.17-1.44c0.97-1.19,1.96-2.37,2.98-3.53c1.62-1.86,3.3-3.68,5.04-5.43
						c0.42-0.42,0.84-0.83,1.27-1.24c0.2-0.2,0.42-0.39,0.63-0.59c-0.84,0.79-0.13,0.12,0.03-0.03c0.79-0.7,1.58-1.4,2.4-2.06
						c0.69-0.55,1.4-1.09,2.12-1.6c0.26-0.18,1.57-1.02,0.47-0.33c0.42-0.26,0.84-0.52,1.26-0.76c22.84-13.04,51.61-7.47,75.61-0.4
						c6.21,1.83,12.36,3.86,18.48,5.95C1283.41,956.78,1288.15,950.39,1284.7,949.21L1284.7,949.21z"/>
				</g>
			</g>
		</g>
		<g id="Ebene_7">
			<g class="st7">
				<path d="M1201.84,1180.73c-22.72,22.97-54.59,94.65-49.96,126.51c4.63,31.86,17.75,75.65,38.68,100.56
					c22.89,27.23,26.16,49.56,24.72,81.65c-4.09,91.33-52.08,201.6-40.25,253.02c2.06,8.93,14.54,13.77,21.09,20.32
					s62.11,6.54,57.88-1.64c-41.76-80.79-23.97-168.09-10.86-250.73c16.65-104.9-80.15-193.21-40.8-332.98"/>
				<g>
					<path d="M1200.02,1179.11c-12.89,13.14-21.91,30.33-29.72,46.71c-8.88,18.61-16.47,38.36-20.29,58.66
						c-1.47,7.83-2.49,16.06-1.45,24.02c1.48,11.38,4.07,22.71,7.09,33.79c6.39,23.45,15.44,47.62,30.95,66.92
						c7.41,9.22,14.25,18.53,18.77,29.47c4.02,9.72,5.99,19.99,6.64,30.42c1.51,24.12-1.74,48.59-5.85,72.27
						c-8.44,48.7-23.43,95.98-32.1,144.62c-3.11,17.43-5.9,35.94-3.15,53.66c0.67,4.33,1.63,8.19,4.54,11.66
						c3.4,4.03,8.1,6.81,12.35,9.86c2.77,1.99,5.11,4.78,8.25,6.18c2.43,1.08,5.16,1.57,7.77,2c7.77,1.27,15.72,1.61,23.57,1.52
						c7.08-0.09,14.59-0.33,21.42-2.3c2.48-0.71,4.95-1.79,6.72-3.7c2.42-2.63,2.2-4.92,0.69-7.89c-6.06-11.99-11-24.5-14.79-37.33
						c-14.74-49.86-11.16-102.4-4.01-152.98c1.76-12.47,3.75-24.91,5.76-37.34c1.77-10.94,3.88-21.89,4.71-32.96
						c1.33-17.87-0.33-35.78-3.9-53.36c-7.49-36.94-22.09-72.08-32.83-108.17c-11.99-40.32-18.55-82.02-12.82-123.8
						c1.6-11.66,4.06-23.19,7.23-34.53c0.48-1.73-1.03-2.65-2.58-2.28c-1.93,0.46-3.35,2.4-3.84,4.18
						c-11.8,42.2-12.01,85.92-2.66,128.76c8.1,37.13,22.35,72.51,33.19,108.89c5.05,16.95,9.25,34.18,11.11,51.75
						c0.93,8.76,1.28,17.58,0.9,26.38c-0.43,10.04-2.16,19.91-3.76,29.82c-7.99,49.45-16.46,99.65-12.09,149.97
						c2.19,25.21,7.78,50.24,17.65,73.73c1.25,2.97,2.56,5.93,3.94,8.85c0.7,1.48,1.41,2.94,2.14,4.41
						c0.31,0.63,0.95,2.74,1.48,2.97c-0.35-0.15,0.14-1.28,0.45-1.79c0.29-0.49,0.61-0.97,1.09-1.02c-1.24,0.15-1.1,0.6-2.51,1.01
						c-6.5,1.87-13.69,1.98-20.43,2.04c-7.55,0.07-15.26-0.19-22.71-1.55c-2.36-0.43-4.99-0.9-7.13-2.04
						c-0.48-0.26-1.71-1.46-2.49-2.13c-2.07-1.8-4.36-3.36-6.61-4.93c-3.93-2.74-8.51-5.62-11.05-9.76c-1.96-3.22-2.29-7.35-2.68-11
						c-0.9-8.23-0.63-16.56,0.14-24.77c1.96-21,6.67-41.7,11.5-62.19c5.69-24.18,11.91-48.24,17.25-72.5
						c5.39-24.48,10.01-49.22,11.98-74.24c1.67-21.26,2.28-43.47-5.7-63.78c-4.14-10.54-10.42-20.13-17.62-28.92
						c-7.55-9.22-13.62-19.17-18.64-29.91c-10.28-22.01-16.96-45.87-20.55-69.75c-2.56-17.02,2.94-35.02,8.45-50.91
						c6.69-19.27,15.32-38.15,26.26-55.44c4.01-6.35,8.35-12.57,13.64-17.96c0.97-0.99,2.25-3.37,0.9-4.57
						C1203.16,1176.53,1200.97,1178.15,1200.02,1179.11L1200.02,1179.11z"/>
				</g>
			</g>
			<g class="st7">
				<path d="M1186.32,947.23c-67.15,69.36-103.68,167.6-118.33,262.45c-2.9,18.83-1.19,42.49,4.09,60.89
					c5.29,18.4,45.32,35.78,64.46,43.56C1118.49,1187.91,1124.78,1056.02,1186.32,947.23"/>
				<g>
					<path d="M1184.49,945.62c-21.41,22.17-39.74,47.13-55.11,73.69c-15.66,27.07-28.4,55.72-38.58,85.22
						c-10.11,29.29-17.81,59.4-23.31,89.88c-2.75,15.23-4.8,30.25-3.91,45.78c0.44,7.7,1.41,15.39,2.98,22.96
						c1.13,5.44,2.15,11.12,5.32,15.83c5.99,8.89,15.64,15.16,24.82,20.49c10.04,5.83,20.58,10.76,31.28,15.28
						c2.13,0.9,4.27,1.79,6.42,2.66c2.39,0.97,5.72-2.83,5.41-5.01c-6.97-48.9-10.35-98.36-8.23-147.65
						c2.09-48.4,9.61-96.83,24.79-142.89c8.43-25.56,19.17-50.37,32.41-73.86c0.68-1.21,1.47-3.35-0.34-4.05
						c-1.65-0.64-3.9,1.24-4.61,2.51c-24.02,42.58-40.05,89.08-49.19,136.96c-9.27,48.58-11.68,98.36-9.46,147.78
						c1.27,28.32,4.09,56.58,8.09,84.67c1.8-1.67,3.6-3.34,5.4-5.01c-9.73-3.96-19.36-8.17-28.68-13
						c-9.93-5.14-20.09-11.01-27.94-19.02c-2.97-3.02-5.54-6.43-6.81-10.47c-2.19-6.98-3.38-14.35-4.25-21.58
						c-1.82-15.19-1.17-30.04,1.32-45.07c4.93-29.76,11.87-59.23,21.2-87.93c9.36-28.78,21.01-56.92,35.53-83.54
						c14.31-26.22,31.33-51.05,51.47-73.29c2.49-2.75,5.03-5.46,7.61-8.13c0.97-1,2.26-3.36,0.9-4.57
						C1187.64,943.04,1185.43,944.65,1184.49,945.62L1184.49,945.62z"/>
				</g>
			</g>
			<g class="st7">
				<path d="M1408.98,930.16c-27.12-1.29-54.05,5.42-79.02,15.65c-24.96,10.23-48.24,23.91-71.57,37.31
					c29.7-44.22,89.39-66.64,142.01-53.34"/>
				<g>
					<path d="M1410.4,926.8c-42.99-1.89-83.45,15.28-120.11,35.25c-10.8,5.88-21.44,12.06-32.11,18.18c0.9,1.22,1.79,2.44,2.68,3.66
						c22.48-33.22,62.33-53.19,102.82-54.49c11.64-0.37,23.26,0.83,34.57,3.65c3.08,0.77,7.7-5.7,4.27-6.55
						c-42.46-10.58-88.97,1.23-121.98,28.7c-9.47,7.88-17.78,16.99-24.65,27.14c-1.51,2.23-0.3,5.37,2.68,3.66
						c36.07-20.71,72.76-42.52,114.54-50.1c11.33-2.06,22.9-2.88,34.43-2.37C1410.59,933.66,1414.6,926.98,1410.4,926.8
						L1410.4,926.8z"/>
				</g>
			</g>
			<g class="st7">
				<path d="M1422.08,965.32c18.77,42.69,186.41,78.18,249.39,141.26c-62.52-26.54-156.06-59.2-223.29-69.22
					c-10.73-1.6-41.97-2.54-41.97-2.54s-7.95-18.24-9.57-28.77c-2.65-17.28,12.13-31.72,25.43-44.44"/>
				<g>
					<path d="M1418.97,967.74c4.94,11.04,16.36,18.74,26.41,24.91c15.44,9.48,32.08,17.04,48.66,24.35
						c40.46,17.83,82.01,33.58,120.9,54.69c19.26,10.46,38.28,22.37,53.81,37.85c1.62-2.08,3.24-4.15,4.85-6.23
						c-37.07-15.72-74.95-29.7-113.35-41.91c-20.12-6.4-40.42-12.3-60.93-17.35c-17.36-4.28-35.12-8.52-52.93-10.43
						c-12.86-1.38-25.86-1.75-38.77-2.14c0.56,0.32,1.12,0.63,1.68,0.95c-3.84-8.83-7.84-18.29-9.37-27.8
						c-2.74-17.18,12.7-30.63,23.94-41.38c1.01-0.96,2.23-3.39,0.9-4.57c-1.43-1.26-3.56,0.41-4.54,1.34
						c-12.46,11.92-28.43,26.83-27.12,45.58c0.47,6.78,3,13.58,5.33,19.95c1.44,3.94,2.98,7.86,4.65,11.72
						c0.3,0.68,0.98,0.92,1.68,0.95c11.34,0.34,22.7,0.79,34.01,1.7c16.84,1.36,33.64,5.29,50.05,9.19
						c40.76,9.67,80.76,22.6,120.06,36.98c20.34,7.44,40.51,15.34,60.44,23.79c2.63,1.11,7.04-4.05,4.85-6.23
						c-13.66-13.62-30.06-24.41-46.83-33.97c-19.16-10.92-39.17-20.34-59.34-29.27c-20.16-8.92-40.56-17.32-60.8-26.06
						c-17.24-7.45-34.58-15.01-50.89-24.32c-7.01-4-13.91-8.35-20.05-13.57c-4.51-3.84-8.7-8.15-11.1-13.53
						C1423.74,959.66,1417.69,964.87,1418.97,967.74L1418.97,967.74z"/>
				</g>
			</g>
			<g class="st7">
				<path d="M1385.33,1040.56c-19.02,9.4-30.27,38.69-24.06,55.24c6.21,16.55,19.55,52.69,37.24,49.94
					c16.85-2.62,44.6,5.88,62.51,6.83c79.52,4.21,136.63,58.08,210.11,94.28c-2.33-31.22-61.99-83.61-91.27-95.39
					c-69.95-28.14-148.2-52.19-192.2-111.9"/>
				<g>
					<path d="M1385.13,1037.67c-11.32,5.74-19.48,16.53-24.24,27.92c-4.24,10.14-6.52,22.2-2.64,32.85
						c3.98,10.92,8.31,21.9,14.23,31.98c4.73,8.04,12,18.79,22.66,18.82c2.73,0.01,5.46-0.6,8.21-0.64c3.35-0.06,6.7,0.16,10.03,0.5
						c7.28,0.73,14.49,2.07,21.69,3.36c6.79,1.21,13.59,2.45,20.45,3.14c7.88,0.8,15.73,1.13,23.58,2.4
						c32.32,5.24,62.32,18.96,90.57,34.91c29.43,16.61,57.57,35.35,87.47,51.14c3.93,2.07,7.88,4.09,11.86,6.06
						c2.41,1.19,5.57-2.97,5.41-5.01c-0.68-8.17-4.35-15.91-8.59-22.88c-5.44-8.96-12.16-17.2-19.31-24.91
						c-14.52-15.68-31.23-30.08-49.57-41.33c-8.31-5.1-17.03-8.67-26.09-12.24c-12.91-5.08-25.87-10.04-38.77-15.16
						c-25.42-10.1-50.77-20.8-74.45-34.48c-25.82-14.92-49.53-33.58-67.25-57.49c-1.82-2.46-7.48,3.16-5.44,5.91
						c31.94,43.11,81.87,67.75,130.75,87.74c12.61,5.16,25.32,10.07,38.02,15.01c10.52,4.09,21.52,7.69,31.5,12.99
						c18.15,9.64,34.5,23.46,48.95,37.8c8.49,8.43,16.57,17.46,23.17,27.41c4.96,7.49,9.79,16.05,10.54,25.09
						c1.8-1.67,3.6-3.34,5.4-5.01c-29.76-14.7-57.55-32.77-86.09-49.57c-26.92-15.84-54.91-30.66-85.36-38.62
						c-7.75-2.02-15.61-3.6-23.54-4.67c-7.22-0.97-14.48-1.17-21.7-2.02c-13.78-1.63-27.3-5.07-41.13-6.38
						c-3.19-0.3-6.4-0.49-9.6-0.42c-2.63,0.06-5.24,0.65-7.86,0.64c-4.36-0.01-8.14-2.88-11.06-5.8
						c-8.18-8.19-13.07-19.59-17.39-30.04c-1.95-4.71-3.95-9.47-5.52-14.31c-1.54-4.75-1.46-9.98-0.7-14.83
						c1.71-10.92,6.98-22.14,15.46-29.54c2.07-1.8,4.29-3.3,6.74-4.55c1.55-0.78,3.29-2.78,3.06-4.62
						C1388.37,1036.95,1386.49,1036.98,1385.13,1037.67L1385.13,1037.67z"/>
				</g>
			</g>
			<g class="st7">
				<path d="M1386.18,1146.15c-40.02-2.81-56.7,28.69-55.36,55.67c0.86,17.24,17.16,41.64,32.8,49.68
					c11.11,5.71,26.15,1.41,38.64,1.67c77.6,1.57,177.61,59.8,233.55,113.02c8.52,8.11-21.46-56.62-62.19-82.83
					c-51.53-33.15-173.86-31.17-183.92-128.77"/>
				<g>
					<path d="M1387.61,1142.79c-14.1-0.91-28.29,2.42-39.26,11.33c-9.59,7.79-15.92,18.71-18.93,30.51
						c-3.23,12.68-2.33,25.43,3.25,37.42c3.41,7.32,8,14.21,13.4,20.28c4.84,5.43,10.78,10.84,17.73,13.49
						c8.34,3.17,17.73,1.97,26.37,1.23c8.09-0.68,16.07-0.49,24.16,0.3c15.73,1.54,31.27,5.1,46.37,9.7
						c33.2,10.12,64.81,25.44,94.37,43.36c14.53,8.81,28.63,18.33,42.18,28.55c6.44,4.86,12.76,9.87,18.92,15.07
						c5.78,4.87,11.08,10.34,16.92,15.11c2.93,2.4,6.74-0.2,7.36-3.59c0.43-2.34-0.87-5.04-1.74-7.16
						c-3.98-9.66-9.51-18.83-15.25-27.58c-14.71-22.46-33.11-44.17-57.79-56.38c-19.57-9.68-41.06-15.29-61.8-21.9
						c-22.38-7.12-45.1-14.89-64.96-27.59c-19.93-12.74-35.41-30.55-42.23-53.12c-1.87-6.2-3.03-12.55-3.71-18.97
						c-0.43-4.05-6.85,0.48-6.53,3.47c2.5,23.6,12.48,45.35,30.29,61.74c16.61,15.29,37.73,25.09,58.82,32.87
						c21.1,7.78,42.87,13.52,64.05,21.05c9.07,3.23,18.13,6.78,26.54,11.47c11.58,6.45,21.55,15.48,30.37,25.19
						c9.33,10.27,17.54,21.52,24.75,33.3c4.61,7.53,9.42,15.49,12.24,23.87c0.16,0.49,0.33,0.98,0.45,1.48
						c-0.24-0.97,0.1,0.66,0.06,0.64c-0.7-0.25,4.8-4.74,4.77-4.4c0.01-0.16,0.57,0.6,0.16,0.05c-0.15-0.2-0.48-0.43-0.66-0.6
						c-5.44-4.89-10.76-9.89-16.36-14.62c-12.06-10.18-24.69-19.69-37.73-28.61c-27.7-18.95-57.35-35.5-88.5-48.26
						c-28.56-11.7-59.15-20.67-90.19-21.65c-8.77-0.27-17.42,1.37-26.18,1.26c-8.18-0.1-14.78-2.8-20.96-8
						c-11.31-9.5-21.05-23.98-23.71-38.47c-3.98-21.61,7.57-46.42,29.6-53.12c6.64-2.02,13.59-2.45,20.52-2.01
						C1387.79,1149.72,1391.82,1143.06,1387.61,1142.79L1387.61,1142.79z"/>
				</g>
			</g>
			<g class="st7">
				<path d="M1335.26,1261.86c-20.8,10.58-35.9,44.9-26.36,61.74c5.39,9.5,23.21,23.17,33.39,27.48
					c60.66,25.72,96.27,26.89,156.93,52.61c-36.8-18.56-124.43-54.84-161.09-139.23"/>
				<g>
					<path d="M1335.06,1258.97c-14.64,7.6-24.97,22.88-29.74,38.13c-2.18,6.96-3.49,14.64-2,21.91c1.51,7.31,6.28,12.87,11.65,17.93
						c6.43,6.05,13.71,11.46,21.53,15.65c4.59,2.45,9.55,4.26,14.38,6.17c5.48,2.18,11,4.25,16.56,6.22
						c19.42,6.89,39.29,12.32,59.12,17.9c23.97,6.75,47.59,14.38,70.52,24.08c2.86,1.21,7.62-4.87,4.27-6.55
						c-20.1-10.12-40.45-19.63-59.7-31.32c-26.06-15.82-50.36-34.85-69.93-58.12c-12.47-14.83-22.77-31.29-30.49-48.93
						c-1.42-3.24-7.47,1.95-6.21,4.84c13.43,30.73,34.79,57.42,60.57,79.19c21.5,18.16,45.72,32.84,70.79,45.7
						c10.16,5.21,20.51,10.07,30.7,15.2c1.42-2.18,2.85-4.37,4.27-6.55c-19.72-8.34-39.95-15.26-60.52-21.22
						c-18.42-5.35-37-10.17-55.25-16.06c-10.26-3.31-20.41-6.94-30.42-10.91c-8.72-3.46-16.73-7.03-24.31-12.56
						c-6.53-4.76-13.51-10.31-17.99-17.08c-3.49-5.28-4.11-11.66-3.32-17.75c2-15.51,11.54-32.6,25.92-40.07
						c1.55-0.8,3.29-2.77,3.06-4.62C1338.31,1258.27,1336.42,1258.27,1335.06,1258.97L1335.06,1258.97z"/>
				</g>
			</g>
			<g class="st7">
				<path d="M1386.2,1449.96c-5.25,4.24-3.82,13.08,1.08,17.79s11.95,6.38,18.63,7.84c41.57,9.14,83.14,18.29,124.71,27.44
					c16.15,3.55,32.65,7.13,49.06,5.41c16.41-1.71,33.01-9.69,40.57-24.03c-78.58-3.98-156.79-16.53-232.71-37.36"/>
				<g>
					<path d="M1385.17,1447.61c-5.59,4.89-7.21,12.54-3.56,19.18c3.94,7.16,12.43,9.85,19.98,11.59
						c20.06,4.62,40.21,8.86,60.31,13.28c20.26,4.46,40.51,8.91,60.77,13.37c18.63,4.1,37.99,9.06,57.17,6.6
						c17.26-2.22,34.51-10.97,42.88-26.44c0.79-1.47,1.48-4.01-1.05-4.14c-61.01-3.12-121.76-11.37-181.42-24.69
						c-16.96-3.79-33.82-7.99-50.59-12.58c-3.06-0.84-7.71,5.61-4.27,6.55c59.41,16.27,120.18,27.5,181.46,33.57
						c17.29,1.71,34.62,3,51.96,3.88c-0.35-1.38-0.7-2.76-1.05-4.14c-6.48,11.99-19.39,18.59-32.69,20.9
						c-17.08,2.96-34.64-0.9-51.33-4.57c-36.62-8.04-73.23-16.11-109.85-24.16c-5.28-1.16-10.57-2.32-15.85-3.49
						c-4.23-0.94-8.5-1.9-12.44-3.73c-3.61-1.68-6.83-4.25-8.42-7.91c-0.93-2.15-2.07-6.52,0.05-8.37c1.18-1.04,2.9-3.05,2.07-4.76
						C1388.51,1445.9,1386.18,1446.73,1385.17,1447.61L1385.17,1447.61z"/>
				</g>
			</g>
			<g class="st7">
				<g>
					<path d="M1108.86,1312.31c3.11,0.67,7.68-5.82,4.27-6.55C1110.03,1305.09,1105.45,1311.57,1108.86,1312.31L1108.86,1312.31z"/>
				</g>
			</g>
		</g>
		<g id="Ebene_8_1_">
			<g class="st7">
				<g>
					<path class="st9" d="M1554.42,1008.4c-3.91-0.63-0.22-0.03,0.62,0.12c1.09,0.2,2.17,0.41,3.25,0.63
						c1.85,0.38,3.7,0.79,5.54,1.23c0.91,0.22,1.83,0.48,2.75,0.69c-3.68-0.81-0.71-0.17,0.15,0.07c1.97,0.56,3.93,1.15,5.88,1.78
						c1.93,0.62,3.95,1.19,5.81,2c-3.01-1.3-0.04,0,0.46,0.19c0.88,0.34,1.76,0.69,2.63,1.05c3.8,1.55,7.51,3.25,11.19,5.04
						c2.82,1.38-1.94-1.05,0.83,0.42c0.83,0.44,1.67,0.88,2.5,1.33c1.8,0.98,3.57,1.98,5.34,3.03c3.38,2,6.7,4.12,9.93,6.35
						c0.78,0.54,1.55,1.08,2.32,1.62c-1-0.72,1.28,0.95,1.54,1.14c1.63,1.23,3.24,2.48,4.81,3.77c3.16,2.58,6.22,5.27,9.19,8.06
						c4.27,4.02,12.14,5.6,17.83,5.53c2.85-0.04,10.51-1.06,6.1-5.21c-28.48-26.8-65.27-42.95-103.86-49.16
						c-2.1-0.34-12.39-0.93-10.48,3.61c0.82,1.94,3.79,3.3,5.53,4.03C1547.55,1007.12,1550.93,1007.84,1554.42,1008.4
						L1554.42,1008.4z"/>
				</g>
			</g>
			<g class="st7">
				<g>
					<path class="st9" d="M1562.29,1094.46c-4.14-0.67-0.43-0.07,0.58,0.13c1.11,0.21,2.2,0.43,3.31,0.66
						c1.1,0.24,2.19,0.48,3.29,0.74c0.55,0.13,1.09,0.27,1.64,0.4c1.83,0.44-0.5-0.12-1.05-0.29c2.15,0.65,4.32,1.21,6.46,1.89
						c1.07,0.34,2.14,0.69,3.2,1.05c0.53,0.18,1.06,0.36,1.59,0.55c0.42,0.15,2.7,1.09,0.83,0.29c-1.86-0.8,1.15,0.45,1.6,0.64
						c1.05,0.41,2.08,0.84,3.11,1.28c2.2,0.93,4.37,1.91,6.52,2.94c0.5,0.24,1.01,0.49,1.52,0.73c0.33,0.16,1.95,0.98,0.61,0.3
						c-1.34-0.68,0.28,0.15,0.6,0.32c0.5,0.26,0.99,0.52,1.49,0.79c2.1,1.13,4.17,2.31,6.22,3.53c8.42,5.04,13.23,8.53,20.54,14.88
						c6.71,5.83,13.14,12.39,18.58,19.18c6.14,7.67,11.61,16.34,16.06,25.22c0.95,1.89,3.75,3.25,5.53,4.03
						c3.08,1.36,6.8,2.33,10.14,2.65c1.86,0.18,12.71,0.83,10.48-3.61c-17.99-35.88-50.84-63.76-88.66-78.14
						c-12.79-4.86-25.89-8.26-39.4-10.45c-2.1-0.34-12.39-0.93-10.48,3.61c0.82,1.94,3.79,3.3,5.53,4.03
						C1555.42,1093.17,1558.8,1093.89,1562.29,1094.46L1562.29,1094.46z"/>
				</g>
			</g>
			<g class="st7">
				<g>
					<path class="st9" d="M1500.83,1182.99c2.56,0.76,5.1,1.55,7.63,2.39c1.41,0.46,2.81,0.94,4.2,1.43c0.56,0.2,1.12,0.4,1.67,0.6
						c2.91,1.03-2.63-1.01,0.26,0.09c5.12,1.95,10.18,4.03,15.17,6.3c2.42,1.1,4.83,2.24,7.22,3.42c0.66,0.33,1.33,0.66,1.98,0.99
						c-0.34-0.17-1.99-1.03-0.17-0.08c1.31,0.68,2.62,1.37,3.92,2.08c4.94,2.67,9.8,5.51,14.55,8.5c2.25,1.42,4.48,2.87,6.68,4.36
						c1.1,0.74,2.2,1.49,3.29,2.26c0.6,0.42,1.21,0.85,1.81,1.28c0.25,0.18,2.27,1.64,0.99,0.71c4.29,3.13,8.47,6.41,12.55,9.81
						c8.61,7.18,16.72,14.92,24.26,23.16c8.15,8.91,15.52,18.41,22.16,28.45c3,4.54,10.58,6.18,15.67,6.68
						c1.45,0.14,13.23,0.54,10.48-3.61c-26.16-39.52-63.51-70.87-106.68-91.31c-12.47-5.9-25.47-10.83-38.71-14.76
						c-3.31-0.99-6.87-1.72-10.34-1.74c-1.74-0.01-5.24,0.04-6.69,1.41C1489.12,1178.82,1499.16,1182.49,1500.83,1182.99
						L1500.83,1182.99z"/>
				</g>
			</g>
			<g class="st7">
				<g>
					<path class="st9" d="M1472.29,1320.36c1.33,0.19,3.06,0.74,4.39,0.67c-0.27,0.01-3.31-0.58-0.94-0.15
						c0.58,0.11,1.17,0.21,1.75,0.32c2.91,0.54,5.81,1.14,8.7,1.79c1.44,0.33,2.89,0.67,4.32,1.02c0.58,0.14,1.15,0.29,1.73,0.43
						c2.41,0.61-0.77-0.11-0.92-0.24c0.71,0.62,3.35,0.92,4.28,1.19c1.42,0.41,2.84,0.84,4.25,1.28c2.54,0.79,5.07,1.63,7.59,2.51
						c0.56,0.2,1.12,0.39,1.67,0.59c0.2,0.07,2.93,1.13,0.97,0.35c-1.97-0.78,0.76,0.3,0.95,0.37c0.83,0.32,1.66,0.64,2.48,0.97
						c5.23,2.08,10.37,4.36,15.43,6.82c1.06,0.52,2.12,1.04,3.18,1.57c-2.13-1.08-0.31-0.15,0.23,0.13
						c0.66,0.34,1.31,0.69,1.96,1.04c2.48,1.33,4.93,2.69,7.36,4.1c4.86,2.83,9.61,5.82,14.25,8.98c1.1,0.75,2.19,1.51,3.27,2.27
						c0.48,0.34,0.96,0.68,1.44,1.03c-1.2-0.87,0.34,0.25,0.62,0.46c2.25,1.67,4.48,3.38,6.66,5.13c4.38,3.5,8.62,7.15,12.72,10.96
						c9.06,8.41,17.44,17.56,24.87,27.39c3.36,4.45,10.33,6.16,15.67,6.68c2.71,0.27,5.8,0.56,8.39-0.39
						c1.15-0.42,3.26-1.67,2.09-3.22c-30.01-39.74-72.65-68.75-120.33-84.22c-14.42-4.68-29.24-7.98-44.24-10.17
						c-2.09-0.31-12.4-0.95-10.48,3.61c0.82,1.94,3.79,3.3,5.53,4.03C1465.4,1319.07,1468.8,1319.85,1472.29,1320.36
						L1472.29,1320.36z"/>
				</g>
			</g>
			<g class="st7">
				<g>
					<path class="st9" d="M1321.71,976.19c6.63-4.05,13.8-7.09,21.33-9.19c4.23-1.17,5.68-1.47,10.04-2.05
						c2.08-0.28,4.17-0.47,6.27-0.62c2.99-0.21-2.24,0,0.76-0.02c1.2-0.01,2.4-0.02,3.61-0.01c2.71,0.03,10.54-1.22,6.1-5.21
						c-4.39-3.95-12.12-5.46-17.83-5.53c-19.62-0.23-38.76,4.56-55.38,14.71c-1.62,0.99-0.25,2.97,0.59,3.79
						c1.83,1.8,5.12,3.08,7.5,3.79C1309.65,977.35,1316.94,979.09,1321.71,976.19L1321.71,976.19z"/>
				</g>
			</g>
			<g class="st7">
				<g>
					<path class="st9" d="M1224.92,969.17c3.63,0.08,7.26,0.16,10.89,0.24c1.7,0.04,5.27-0.06,6.69-1.41
						c1.29-1.24,0.6-2.73-0.59-3.79c-4.43-3.99-12.08-5.4-17.83-5.53c-3.63-0.08-7.26-0.16-10.89-0.24
						c-1.7-0.04-5.27,0.06-6.69,1.41c-1.29,1.24-0.6,2.73,0.59,3.79C1211.51,967.62,1219.17,969.04,1224.92,969.17L1224.92,969.17z"
						/>
				</g>
			</g>
			<g class="st7">
				<g>
					<path class="st9" d="M1329.12,1458.18c-5.47,34.92-11.89,69.69-19.29,104.25c-3.73,17.46-7.71,34.85-11.94,52.2
						c-3.64,14.95-7.2,30.02-12.56,44.48c-5.67,15.27-13.52,29.67-25.82,40.76c-3.7,3.34,6.13,7.01,8.08,7.59
						c3.32,1,6.86,1.78,10.34,1.74c2.09-0.03,5.05,0.06,6.69-1.41c22.8-20.54,30.88-51.2,37.95-79.72
						c8.59-34.65,16.21-69.54,22.83-104.61c3.74-19.79,7.16-39.65,10.28-59.56c0.28-1.77-2-3.31-3.2-4.05
						c-2.62-1.63-6.12-2.75-9.12-3.35c-3.12-0.62-6.52-1.19-9.69-0.68C1332.26,1456.03,1329.4,1456.36,1329.12,1458.18
						L1329.12,1458.18z"/>
				</g>
			</g>
		</g>
	</g>
</g>
</svg>
