<?xml version="1.0" encoding="utf-8"?>
<!-- Generator: Adobe Adobe Illustrator 24.2.0, SVG Export Plug-In . SVG Version: 6.00 Build 0)  -->
<svg version="1.1" xmlns="http://www.w3.org/2000/svg" xmlns:xlink="http://www.w3.org/1999/xlink" x="0px" y="0px"
	 viewBox="0 0 2000 2000" style="enable-background:new 0 0 2000 2000;" xml:space="preserve">
<style type="text/css">
	.st0{fill:#F7EBF1;}
	.st1{fill:#F7EBF2;}
	.st2{fill:#F0C1A1;}
	.st3{fill:#CA354F;}
	.st4{fill:#FFFFFF;stroke:#FFFFFF;stroke-width:0.7383;stroke-miterlimit:10;}
	.st5{opacity:0.3098;}
	.st6{opacity:0.102;}
	.st7{opacity:0.149;}
	.st8{fill:#F4F5E9;}
	.st9{fill:#F4F6E7;}
	.st10{fill:#6379B8;}
	.st11{fill:#6379B7;}
	.st12{fill:#6279B7;}
	.st13{fill:#C9316C;}
	.st14{fill:#C9316B;}
	.st15{fill:#CA316C;}
	.st16{fill:#F2C056;}
</style>
<g id="Ebene_14">
	<g>
		<path class="st0" d="M362.41,1628.19c-62.27,39.77-140.65,102.21-140.65,177.65c107.84,22.97,226.01,24.64,335.68,19.74
			c164.74-7.37,329.36-18.12,493.76-32.26c-17.91-44.58-42.05-85.98-71.26-122.23c-16.4-20.36-36.73-40.25-61.14-41.14
			c-25.03-0.9-46.55,18.21-67.12,34.29c-72.36,56.56-161.6,85.24-249.6,80.22s-174.2-43.73-241.1-108.24"/>
		<g>
			<path class="st1" d="M362.34,1623.76c-27.02,17.29-53.26,36.13-76.73,58.06c-23.35,21.81-44.58,46.99-57.19,76.64
				c-6.67,15.68-10.42,32.47-10.53,49.53c-0.01,1.38,0.65,2.47,2.02,2.76c102.26,21.66,207.79,24.34,311.93,20.69
				c110.49-3.87,220.96-10.88,331.24-18.64c62.13-4.37,124.22-9.23,186.27-14.57c3.16-0.27,6.91-4.8,5.57-8.11
				c-10.83-26.8-23.82-52.7-39.11-77.24c-14.63-23.48-31.06-47.57-51.45-66.47c-8.84-8.19-18.8-15.36-30.41-18.98
				c-12.26-3.82-24.91-2.7-36.75,2.02c-24.49,9.75-43.62,29.94-65.08,44.66c-45.71,31.38-98.09,52.78-152.87,61.57
				c-52.69,8.45-106.84,4.55-157.92-10.81c-58.77-17.67-112.82-50.26-157.01-92.7c-3.57-3.42-9.58,5.3-6.66,8.11
				c77.22,74.15,183.13,117.18,290.74,108.52c53.76-4.33,106.23-20.63,153.31-46.89c23.85-13.3,45.02-29.71,66.67-46.19
				c10.57-8.05,22.01-15.94,35.04-19.29c12.82-3.3,25.63-0.94,37.1,5.45c12.98,7.24,23.52,18.16,32.97,29.47
				c10.05,12.02,19.33,24.73,28.01,37.77c18.28,27.47,33.62,56.82,45.98,87.41c1.86-2.7,3.71-5.41,5.57-8.11
				c-110.89,9.53-221.91,17.54-333.03,24c-107.31,6.24-215.16,13.71-322.67,9.14c-58.31-2.48-116.59-8.51-173.74-20.62
				c0.67,0.92,1.35,1.84,2.02,2.76c0.38-60.64,50.68-108.33,95.5-142.4c13.36-10.16,27.22-19.63,41.35-28.68
				c2.09-1.34,3.98-3.97,3.8-6.57C366.13,1623.91,364.4,1622.44,362.34,1623.76L362.34,1623.76z"/>
		</g>
	</g>
</g>
<g id="Ebene_27">
	<g>
		<path class="st2" d="M585.71,1437.63c4.91,49.2,4.1,79.51-21.69,105.81s-60.82,37.44-94.82,45.83
			c-34,8.39-69.18,15.18-99.12,35.15c74.27,71.7,172.01,111.88,269.87,110.94c97.86-0.94,194.98-43,268.14-116.12
			c-29.82-18.85-64.2-25.82-97.51-34.59s-75.41-7.46-100.85-33.18c-25.44-25.72-31.69-82.12-16.9-116.83
			c-34.35,8.33-70.71,5.86-103.92-7.05"/>
		<g>
			<path class="st2" d="M581.84,1439.78c1.92,19.47,3.96,39.61,0.97,59.08c-2.49,16.19-9.4,30.42-21.02,42.03
				c-32.02,31.99-78.17,39.85-120.24,50.51c-25.01,6.34-49.83,14.3-71.55,28.59c-1.89,1.24-5.72,6.11-3.25,8.48
				c57.31,55.1,130.05,93.61,208.69,106.83c76.52,12.86,155.41-0.25,224.88-34.35c40.26-19.76,77.05-46.36,108.82-77.98
				c1.67-1.66,4.69-6.48,1.63-8.39c-21.58-13.46-45.84-21.16-70.27-27.62c-11.57-3.06-23.16-6.28-34.84-8.87
				c-10.4-2.3-20.95-3.83-31.43-5.65c-20.22-3.53-41.53-8.1-57.6-21.74c-14.6-12.4-21.95-31.5-25.47-49.86
				c-4.14-21.6-3.46-45.4,5.08-65.89c0.82-1.97,0.64-5.89-2.49-5.14c-33.95,8.04-69.56,5.6-102.14-6.87
				c-4.22-1.61-9.27,7.8-5.37,9.3c33.79,12.93,70.46,15.57,105.69,7.22c-0.83-1.71-1.66-3.43-2.49-5.14
				c-7.81,18.75-9.67,39.96-7.6,60.04c2.02,19.57,7.61,40.06,19.89,55.81c12.98,16.65,32.94,24.46,52.93,28.99
				c10.52,2.39,21.19,3.97,31.82,5.8c11.55,1.98,22.81,4.77,34.16,7.67c29.31,7.48,58.85,15.09,84.78,31.26
				c0.54-2.8,1.09-5.59,1.63-8.39c-54.88,54.63-124.92,93.55-201.13,108.39c-75.47,14.7-154.04,3.76-223.58-28.65
				c-40.13-18.71-77-44.19-108.91-74.87c-1.08,2.83-2.17,5.65-3.25,8.48c41.13-27.05,91.44-29.48,136.66-46.14
				c36.82-13.57,72.88-38.25,82.16-78.58c5.15-22.37,2.84-46.06,0.61-68.65C588.96,1429.14,581.44,1435.65,581.84,1439.78
				L581.84,1439.78z"/>
		</g>
	</g>
	<g>
		<g>
			<path class="st2" d="M761.53,1351.96c4.18,0,8.28-9.82,3.69-9.82C761.04,1342.14,756.94,1351.96,761.53,1351.96L761.53,1351.96z"
				/>
		</g>
	</g>
</g>
<g id="Ebene_23">
	<g>
		<g>
			<path d="M580.26,1439.91c0.73,18.79,1.27,37.76-1.14,56.46c-2.21,17.14-6.87,34.71-17.92,48.38
				c-22.87,28.31-63.58,29.65-96.38,37.05c-74.78,16.87-145.05,53.46-193.14,114.34c-25.69,32.52-44.24,70.31-53.74,110.68
				c-0.5,2.12,0.52,4.28,2.89,3.93c2.53-0.38,4.23-3.7,4.74-5.87c17.41-74.02,67.54-136.59,133.15-174.03
				c34.64-19.77,72.74-32.73,111.69-40.87c33.16-6.93,69.68-10.43,93.29-37.76c27.15-31.44,25.92-77.69,24.4-116.66
				C587.86,1429.13,580.09,1435.74,580.26,1439.91L580.26,1439.91z"/>
		</g>
	</g>
	<g>
		<g>
			<path d="M687.64,1440.04c-1.38,34-2.7,73.23,17.62,102.51c20.1,28.97,56.04,34.6,88.26,40.43
				c76.07,13.77,150.37,45.34,202.21,104.43c27.35,31.17,47.48,68.27,57.4,108.59c1.28,5.2,8.41-2.5,7.45-6.4
				c-17.45-70.94-65.79-130.99-128.02-168.21c-33.79-20.21-71.14-33.89-109.39-42.87c-32.68-7.67-71.65-8.17-98.73-30.41
				c-32.33-26.56-30.6-74.56-29.06-112.37c0.1-2.4-2.02-3.22-3.94-2.28C689.11,1434.6,687.74,1437.58,687.64,1440.04L687.64,1440.04
				z"/>
		</g>
	</g>
	<g>
		<g>
			<path d="M219.08,1810.49c46.57,19.79,97.62,21.76,147.52,21.45c54-0.33,107.97,0.09,161.97,0.28
				c112.52,0.4,225.16-0.87,337.42-9.18c62.96-4.66,125.77-11.55,188.12-21.51c3.96-0.63,7.3-10.53,1.82-9.65
				c-110.87,17.69-223.01,25.57-335.17,28.69c-55.62,1.55-111.26,1.96-166.9,1.88c-54.12-0.08-108.25-1.2-162.36-0.55
				c-56.1,0.67-114.44,1.65-167.06-20.71C220.31,1799.43,215.17,1808.83,219.08,1810.49L219.08,1810.49z"/>
		</g>
	</g>
	<g>
		<g>
			<path d="M363.58,1634.05c58.66,55.33,132.69,93.84,212.52,106.84c78.01,12.71,158.28-0.87,229-35.71
				c41.03-20.22,78.53-47.37,110.94-79.62c1.61-1.61,3.66-4.57,2.7-7.01c-0.86-2.2-3.26-2.1-4.83-0.54
				c-55.73,55.47-126.7,95.16-204.01,110.65c-76.76,15.38-156.82,4.88-227.92-27.52c-41.05-18.71-78.87-44.33-111.68-75.28
				C366.66,1622.43,360.61,1631.25,363.58,1634.05L363.58,1634.05z"/>
		</g>
	</g>
</g>
<g id="Ebene_15">
	<g>
		<path class="st0" d="M663.24,730.94c1.95-1.56,3.9-3.13,5.85-4.69c3.32,8.66,13.25,12.47,21.27,9.77
			c8.03-2.71,14.04-10.59,17.22-19.31c3.18-8.72,3.94-18.29,4.48-27.7c0.49-8.49,0.79-17.25-1.72-25.28
			c-2.52-8.03-8.52-15.24-16.05-16.09s-15.52,6.9-14.08,15.26c1.38-5.26-3.24-10.84-8.11-10.9c-4.88-0.06-9.19,4.11-11.21,9.11
			c-2.02,5-2.16,10.68-1.98,16.16c0.6,18.37,4.47,36.59,11.31,53.28"/>
		<g>
			<path class="st0" d="M664.29,734.68c1.95-1.56,3.9-3.13,5.85-4.69c-1.59-0.18-3.19-0.36-4.78-0.54
				c6.08,14.04,22.41,15.43,33.38,6.03c12.98-11.12,15.88-28.98,16.97-45.09c1.01-14.98,2.17-35.86-12.55-45.14
				c-13.12-8.27-28.36,6.02-26.83,19.8c0.69,6.21,7.07,0.19,7.63-3.1c1.27-7.45-3.7-16.19-12.28-14.69
				c-9.26,1.62-14.63,11.86-16.06,20.27c-1.77,10.45-0.27,21.74,1.37,32.12c1.85,11.71,5.06,23.12,9.49,34.11
				c2.07,5.14,8.96-2.65,7.45-6.4c-5.66-14.06-9.37-28.86-10.67-43.98c-0.57-6.67-1.67-14.77,0.75-21.19
				c1.09-2.89,3.44-5.59,6.85-5.21c3.12,0.35,6.14,3.66,5.59,6.88c2.54-1.03,5.09-2.07,7.63-3.1c-0.56-5.09,3.19-8.65,8.37-8.2
				c4.98,0.43,9,4.49,11.49,8.5c6.37,10.24,4.79,23.95,3.92,35.41c-0.82,10.69-2.37,23.35-10.68,31.06
				c-7.5,6.97-20.11,5.34-24.36-4.47c-0.98-2.27-3.05-1.93-4.78-0.54c-1.95,1.56-3.9,3.13-5.85,4.69
				C658.58,730.1,658.81,739.08,664.29,734.68L664.29,734.68z"/>
		</g>
	</g>
</g>
<g id="Ebene_24">
	<g>
		<path class="st0" d="M481.56,1575.31c-11.25-4.32-24.99,3.15-28.96,15.76c-3.98,12.61,2.5,28.15,13.65,32.78
			c11.16,4.63,25.05-2.47,29.29-14.97s-1.89-28.21-12.95-33.14"/>
		<g>
			<path d="M484.24,1570.66c-11.19-3.85-22.83,1.09-29.84,10.28c-7.46,9.77-8.89,23.03-3.72,34.18
				c4.83,10.4,15.05,17.12,26.67,14.41c11.47-2.67,20.24-12.97,22.69-24.24c2.79-12.82-2.52-28.25-14.76-34.2
				c-4.01-1.95-9.25,7.41-5.37,9.3c9.49,4.62,15.03,16.49,12.6,26.82c-2.29,9.7-13.5,15.46-22.83,12.25
				c-9.89-3.4-15.51-15.4-14.23-25.36c1.39-10.86,13.2-17.66,23.42-14.14C483.16,1581.43,488.14,1572,484.24,1570.66L484.24,1570.66
				z"/>
		</g>
	</g>
	<g>
		<path class="st0" d="M494.64,1610.59c-3.28,12.99,3.99,28.17,15.44,32.22s25.14-3.71,29.06-16.47
			c3.92-12.76-2.59-28.38-13.82-33.14c-11.23-4.77-25.28,2.12-29.83,14.61"/>
		<g>
			<path d="M490.88,1611.54c-2.56,11.46,0.84,24.39,10.01,32.09c8.98,7.54,21.36,6.07,30.27-0.76c9.72-7.45,14.48-20,12.51-32.02
				c-1.81-11.09-9.49-22.2-21.28-23.88c-13.64-1.94-25.57,8.58-30.3,20.53c-0.69,1.75-0.86,4.84,1.56,5.23
				c2.42,0.39,4.53-2.76,5.25-4.59c3.77-9.51,15.59-14.41,24.89-9.75c9.64,4.82,14.96,18.05,11.74,28.27
				c-3.09,9.8-15.19,15.08-24.49,10.79c-10.13-4.67-14.97-17.31-12.62-27.8c0.47-2.09-0.5-4.22-2.85-3.87
				C493.07,1606.13,491.35,1609.41,490.88,1611.54L490.88,1611.54z"/>
		</g>
	</g>
	<g>
		<path class="st0" d="M538.36,1624.79c-2.57,15.04,6.18,31.56,19.25,35.84s28.51-4.65,32.76-19.19
			c4.25-14.55-3.73-32.23-16.76-36.66c-13.03-4.43-28.54,5.63-31.39,20.6"/>
		<g>
			<path d="M534.59,1625.75c-1.96,13.26,2.45,27.68,13.48,35.92c10.66,7.96,24.92,5.42,34.56-2.91
				c10.48-9.05,14.96-23.46,11.59-36.86c-3.01-11.96-12.79-23.5-26.03-23.08c-15.08,0.47-26.69,13.5-29.74,27.5
				c-0.46,2.09,0.49,4.22,2.85,3.87c2.47-0.37,4.21-3.65,4.67-5.78c2.56-11.74,16.05-19.4,27.26-14.05
				c10.66,5.09,16.69,19.39,13.72,30.69c-3.06,11.62-16.58,18.74-27.88,14.48c-12.18-4.59-18.78-19.35-16.96-31.71
				C543.15,1616.88,535.27,1621.16,534.59,1625.75L534.59,1625.75z"/>
		</g>
	</g>
	<g>
		<path class="st0" d="M591.75,1639.15c0.82,15.15,13.74,28.12,27.21,27.33c13.47-0.79,25.12-15.2,24.54-30.37
			c-0.58-15.16-13.28-28.4-26.77-27.89s-25.36,14.68-25.03,29.86"/>
		<g>
			<path d="M587.88,1641.3c1.03,12.78,8.81,25.27,21.56,29.09c12.66,3.79,24.72-4,31.51-14.35c7.53-11.47,8.71-26.33,1.56-38.26
				c-6.35-10.6-19.02-17.39-31.21-13.12c-14.47,5.06-23.4,20.75-23.46,35.57c-0.01,2.38,1.97,3.25,3.94,2.28
				c2.26-1.1,3.79-4.14,3.8-6.57c0.05-11.81,9.14-23.88,21.91-22.73c12.15,1.09,21.68,13.3,22.15,25.06
				c0.46,11.81-8.82,24.15-21.42,23.29c-12.36-0.83-21.65-12.82-22.59-24.56C595.11,1630.66,587.55,1637.17,587.88,1641.3
				L587.88,1641.3z"/>
		</g>
	</g>
	<g>
		<path class="st0" d="M643.74,1636.95c0.64-16.94,14.51-31.87,29.58-31.84c15.07,0.03,28.9,15,29.5,31.95
			c0.6,16.95-12.13,33.1-27.15,34.47c-15.03,1.37-29.9-12.27-31.73-29.11"/>
		<g>
			<path d="M647.61,1634.8c0.81-13.44,12.23-26.24,26.44-24.64c13.36,1.51,23.68,14.69,24.82,27.59
				c1.19,13.44-8.35,28.24-22.68,28.95c-14.5,0.72-26.59-12.86-28.38-26.43c-0.84-6.33-8.29,0.16-7.74,4.3
				c1.87,14.1,10.95,27.35,25.25,31.08c14.34,3.74,27.81-5.56,35.03-17.43c7.81-12.84,8.6-29.07,0.65-42.03
				c-7.07-11.53-20.88-19.09-34.34-14.67c-15.86,5.21-25.81,21.48-26.78,37.58c-0.15,2.41,2.06,3.2,3.94,2.28
				C646.17,1640.22,647.46,1637.27,647.61,1634.8L647.61,1634.8z"/>
		</g>
	</g>
	<g>
		<path class="st0" d="M703.35,1630.85c1.76,15.75,16.3,28.19,30.26,25.86c13.96-2.33,24.66-19.03,22.19-34.66
			c-2.47-15.63-17.66-27.16-31.46-23.85s-23.49,20.85-19.99,36.23"/>
		<g>
			<path d="M699.48,1632.99c1.83,13.37,10.85,25.83,24.69,28.5c13.67,2.63,25.79-7.61,31.51-19.18c6.34-12.85,5.95-28.81-4.07-39.73
				c-8.86-9.65-22.77-13.07-34.22-5.82c-13.29,8.42-19.83,25.69-16.77,40.86c0.51,2.52,3.4,1.65,4.78,0.54
				c1.96-1.58,3.17-4.45,2.67-6.94c-2.35-11.68,3.75-26.37,16.62-28.46c12.76-2.08,24.74,9.13,27.13,21.07
				c2.45,12.26-5.36,27.4-18.9,28.22c-12.94,0.79-24.03-11.2-25.69-23.36C706.35,1622.37,698.91,1628.86,699.48,1632.99
				L699.48,1632.99z"/>
		</g>
	</g>
	<g>
		<path class="st0" d="M755.44,1614.59c-10.66-12.31-10.47-34.39,0.41-46.45c10.88-12.07,30.5-11.98,41.29,0.19
			c10.79,12.16,10.83,34.24,0.08,46.46c-10.75,12.21-30.37,12.39-41.29,0.37"/>
		<g>
			<path d="M758.77,1610.54c-8.45-10.24-10.64-27.82-1.8-38.61c9.16-11.19,27.61-9.86,36.84,0.45c8.86,9.89,10.75,27.88,2.28,38.6
				c-9.09,11.51-27.29,10.09-36.83,0.11c-3.39-3.55-9.49,5.15-6.66,8.11c10.02,10.48,25.94,12.83,38.47,5.22
				c12.72-7.72,18.96-23.31,17.95-37.81c-1-14.35-9.01-27.7-23.54-31.45c-14.46-3.73-29.18,4.04-36.24,16.76
				c-7.92,14.26-7.74,33.86,2.87,46.73C755.19,1622.38,761.42,1613.74,758.77,1610.54L758.77,1610.54z"/>
		</g>
	</g>
	<g>
		<path class="st0" d="M681.21,661.19c-8.85-26.39-34.68-44.16-59.6-41c-24.91,3.16-46.58,26.95-49.99,54.9
			c-38.21-25.44-87.2-29.19-128.12-9.8c-13.37,6.34-26.26,15.38-34.38,28.9c-8.13,13.52-10.59,32.19-3.27,46.29
			c-28.8-20.14-68.17-19.16-96.15,2.4s-43.02,62.5-36.73,100c-33.69-8.51-71.17,6.48-92.54,37s-25.52,75.03-10.27,109.88
			c-31.94,12.64-53.76,51.9-49.87,89.75s33.09,70.47,66.75,74.58c-21.19,13-30.76,44.32-23.91,70.35
			c6.85,26.03,27.94,45.68,51.42,51.95s48.72,0.27,69.81-12.91c-17.75,22.44-17.27,60.21,1.04,82.07
			c18.32,21.85,51.8,24.61,72.75,5.99c-16.16,20.73-14.81,55.76,2.88,74.84c17.69,19.08,48.86,19.11,66.58,0.07
			c3.01,23.59,19.57,44.26,40.11,50.07c20.55,5.81,43.82-3.61,56.38-22.81c2.5,25.64,29.42,35.03,49.48,22.55"/>
		<g>
			<path d="M684.94,657.99c-9.18-26.32-35.52-47.26-64.37-42.33c-28.54,4.88-49.03,32.95-52.7,60.38c2.15-1.87,4.3-3.74,6.45-5.6
				c-26.88-17.65-59.32-25.28-91.24-21.24c-29.76,3.77-63.65,18.21-78.24,46.06c-7.94,15.17-10,33.63-2.31,49.27
				c2-2.9,4.01-5.8,6.01-8.7c-24.68-16.9-56.8-19.18-83.84-6.54c-26.69,12.48-44.73,38.63-52.54,66.45
				c-4.61,16.42-5.6,33.51-2.91,50.35c1.86-2.7,3.71-5.41,5.57-8.11c-28.45-6.9-58.63,2.31-80.4,21.4
				c-23.31,20.44-35.61,50.79-37.1,81.39c-0.87,17.79,2.1,35.81,9.12,52.2c1.22-2.54,2.43-5.08,3.65-7.63
				c-27.8,11.36-46.45,39.63-52.2,68.37c-6.02,30.11,3.1,62.29,25.2,83.88c11.57,11.31,25.97,19.25,42.12,21.41
				c0.59-3.11,1.18-6.22,1.77-9.34c-25.24,16.02-35.06,50.65-27.35,78.71c8.32,30.31,35.8,53.12,67.18,55.24
				c20.35,1.38,40.44-5.15,57.65-15.71c-0.68-2.4-1.37-4.81-2.05-7.21c-14.77,19.18-18.78,45.91-11.2,68.84
				c7.55,22.84,27.88,39.44,52.42,39.27c13.19-0.09,25.64-4.92,35.61-13.53c-1.01-2.18-2.02-4.35-3.03-6.53
				c-16.86,22.29-18.47,57.55-0.22,79.69c19.09,23.16,53.61,21.63,73.63,0.8c-1.9,0.14-3.8,0.28-5.7,0.41
				c3.26,23.31,19.24,45.73,42.66,51.96c23.65,6.28,47.31-6.94,60.34-26.28c-2.22,0.18-4.44,0.36-6.66,0.54
				c1.41,12.16,7.68,23.19,19.34,28.07c11.22,4.7,23.8,2.92,34.08-3.24c2.11-1.27,3.97-4.02,3.8-6.57c-0.15-2.2-1.86-3.53-3.94-2.28
				c-18.31,10.97-42.94,2.19-45.54-20.27c-0.56-4.85-4.99-1.94-6.66,0.54c-11.52,17.11-34.43,25.85-54.15,18.71
				c-20.02-7.25-32.96-27.06-35.83-47.57c-0.5-3.54-4.62-0.71-5.7,0.41c-17.05,17.74-47.67,15.28-63.01-3.33
				c-14.61-17.73-16.56-47.4-2.49-66c1.21-1.59,2.68-4.41,1.55-6.42c-1.06-1.88-3.13-1.36-4.58-0.11
				c-20.38,17.6-52.67,13.48-69.23-7.36c-16.11-20.27-17.52-53.42-1.54-74.17c1.59-2.07,3-10.31-2.05-7.21
				c-26,15.97-59.24,21.21-86.15,4.31c-23.33-14.66-37.1-42.16-32.38-69.62c2.39-13.88,9.18-27.51,21.34-35.22
				c2-1.27,6.64-8.69,1.77-9.34c-26.43-3.53-48.26-23.8-58.41-47.84c-10.86-25.73-8.17-55.31,6.69-78.91
				c7.91-12.57,19.28-22.61,33.07-28.24c2.2-0.9,4.67-5.26,3.65-7.63c-21.78-50.83-2.91-119.27,53.36-137.17
				c14.28-4.54,29.32-5.13,43.88-1.6c3.7,0.9,6-5.46,5.57-8.11c-4.15-25.92,1.84-54.01,17.18-75.45
				c15.44-21.57,40.33-34.27,66.97-33.24c15.25,0.59,29.74,5.53,42.31,14.14c3.91,2.68,7.36-5.97,6.01-8.7
				c-6.16-12.51-4.55-28.07,2.34-39.96c7.03-12.13,18.96-20.44,31.36-26.42c25.13-12.1,54.13-15.03,81.33-9.23
				c15.99,3.41,31.07,9.96,44.72,18.92c2.86,1.88,6.16-3.45,6.45-5.6c3.19-23.82,21.08-46.73,46.19-49.2
				c25.2-2.48,47.94,16.61,55.91,39.46C679.29,669.58,686.27,661.81,684.94,657.99L684.94,657.99z"/>
		</g>
	</g>
	<g>
		<path class="st0" d="M696.17,1478.08c24.23,20.97,64.04,12.62,79.93-16.77c17.62,6.57,38.23,1.61,51.92-12.49
			s19.89-36.77,15.63-57.09c20.83,13.97,50.91,6.13,64.15-16.73c13.24-22.86,7.48-56.99-12.29-72.79
			c25.1,9.03,54.67,9.99,75.71-7.85s26.36-58.75,5.22-76.44c24.44,1.55,50.74,2.57,71.32-12.34c20.58-14.92,29.45-52.47,10.47-69.86
			c20.81-9.75,35.46-34.26,35.62-59.62c0.17-25.37-14.16-50.11-34.84-60.21c7.1-26.57,13.36-55.71,4.12-81.43
			s-40.88-42.27-59.54-24.13c18.14-19.78,17.21-57.19-1.89-75.8s-52.13-14.32-66.95,8.7c21.72-23.05,12.55-68.76-13.36-85.45
			c-25.91-16.69-60.45-7.8-83.02,14.18c8.97-30.26-0.99-66.38-23.62-85.6c-22.63-19.22-56.24-20.1-79.64-2.1
			c9.34-15.64,3.04-40.06-12.29-47.64c-15.33-7.59-35.58,3.69-39.52,22.01"/>
		<g>
			<path d="M693.49,1482.73c27.58,23.23,68.87,9.89,85.4-19.8c-1.82,1.01-3.65,2.03-5.47,3.04c20.66,7.31,42.96,0.57,57.59-15.43
				c15.02-16.42,20.6-40.43,16.36-62.01c-2.14,2.62-4.27,5.23-6.41,7.85c18.35,11.88,42.59,8.15,58.53-6.13
				c17.19-15.4,22.69-40.15,17.31-62.12c-2.91-11.89-9.12-22.74-18.61-30.56c-1.79,3.1-3.58,6.2-5.37,9.3
				c24.36,8.58,52.67,10.26,74.75-5.17c18.22-12.73,27.99-36.39,25.96-58.35c-1.08-11.62-5.48-22.33-14.4-30.07
				c-1.51,3.19-3.02,6.37-4.53,9.56c29.17,1.83,64.31,2.24,84.13-23.29c14.08-18.14,21.48-50.1,2.84-67.88
				c-1.08,2.83-2.17,5.65-3.25,8.48c23.77-11.54,38.31-38.04,39.36-63.92c1.05-25.83-12.46-53.11-35.97-64.99
				c0.36,1.23,0.72,2.46,1.08,3.69c7.85-29.52,16.71-67.5-1.64-95.08c-12.64-18.99-39.76-30.82-58.59-13.27
				c1.01,2.18,2.02,4.35,3.03,6.53c15.57-17.51,19.17-44.96,10.15-66.39c-8.9-21.15-30.48-32.82-53.05-27.37
				c-12.89,3.11-23.42,11.35-30.69,22.26c-2.94,4.42,0.69,8.85,4.77,4.4c16.78-18.36,17.49-46.7,7.51-68.52
				c-5.09-11.12-13.09-20.81-23.98-26.62c-12.25-6.54-26.46-7.99-40-5.48c-16.19,3-31.11,11.51-42.94,22.82
				c1.49,1.35,2.97,2.7,4.46,4.05c6.88-24.06,4.02-50.49-8.83-72.12c-12.57-21.16-35.35-34.68-60.2-33.67
				c-14.19,0.58-27.37,5.56-38.69,14.05c1.28,1.78,2.56,3.56,3.84,5.35c9.53-16.8,6.71-43.87-11.88-53.63
				c-20.25-10.64-41.88,8.07-46.48,27.35c-0.5,2.09,0.52,4.22,2.85,3.87c2.5-0.37,4.16-3.65,4.67-5.78
				c3.6-15.1,22.26-23.72,35.59-14.95c12.14,7.98,16.82,27.32,9.67,39.93c-1.97,3.47-0.61,8.69,3.84,5.35
				c23.33-17.5,57.41-14.88,78.36,5.23c20.24,19.43,28.12,51.61,20.45,78.41c-0.91,3.2,0.94,7.42,4.46,4.05
				c17.95-17.16,45.26-27.59,69.54-18.22c20.77,8.01,32.94,29.23,34,50.92c0.57,11.68-2.16,23.27-10.19,32.04
				c1.59,1.47,3.18,2.93,4.77,4.4c13.65-20.51,45.41-22.68,62.16-4.89c16.48,17.5,18.05,49.43,1.91,67.59
				c-2.7,3.04-1.74,10.97,3.03,6.53c16.88-15.73,41.56-0.16,51.22,16.13c15.23,25.67,6.5,59.89-0.62,86.66
				c-0.3,1.14-0.14,3.08,1.08,3.69c42.07,21.25,45.87,89.38,1.83,110.76c-2.08,1.01-5.57,6.27-3.26,8.48
				c15.5,14.78,11.32,41.05-1.68,56.1c-17.87,20.68-50.35,18.68-74.93,17.14c-3.93-0.25-7.69,6.82-4.53,9.56
				c17.32,15.03,15.11,45.03,2.07,62.05c-17.93,23.4-52.65,21.74-77.64,12.94c-4.19-1.48-8.85,6.42-5.37,9.3
				c17.89,14.75,23.74,44.2,13.14,64.79c-11.03,21.42-39.69,28.34-59.63,15.43c-3.73-2.41-6.91,5.28-6.41,7.85
				c3.4,17.32-0.62,36.89-12.87,50.03c-12.11,13-31.58,17.62-48.27,11.71c-2.3-0.81-4.41,1.13-5.47,3.04
				c-14.7,26.4-51.35,33.19-74.45,13.73C695.7,1470.77,690.01,1479.8,693.49,1482.73L693.49,1482.73z"/>
		</g>
	</g>
</g>
<g id="Ebene_3">
	<g>
		<path class="st2" d="M336.51,974.28c-34.51-13.13-76.38-0.2-98.78,30.5c-22.41,30.7-23.62,76.8-2.85,108.77
			s61.89,47.33,97.03,36.24c21.31,59.44,48.3,117.29,86.61,166.28s88.68,88.86,146.56,106.03c80.73,23.95,196.2-2.03,245.96-41.53
			c86.01-68.28,118.51-230.24,118.51-230.24s78.73,1.82,100.4-29.38c21.67-31.2,20.18-94.46-4.65-122.9
			c-18.04-20.66-59.26-26.67-102.85-21.65c-15.42-38.1-20.64-68.87-22.62-106.22c-92.1,10.59-186.83-62.65-208.9-157.79
			c-114.1,162.87-305.96,146.84-305.96,146.84s-2.9,98.28-46.14,116.29"/>
		<g>
			<path class="st2" d="M339.28,969.48c-44.78-16.56-94.74,7.72-113.99,50.33c-19.43,43.02-7.84,98.3,32.99,124.35
				c21.4,13.65,48.3,18.05,72.69,10.61c-0.97-0.56-1.94-1.12-2.9-1.68c26.17,72.78,61,144.87,116.2,200.25
				c25.39,25.47,54.72,47.3,87.57,62.16c30.64,13.86,63.27,20.36,96.82,20.83c33.26,0.46,66.78-4.08,98.86-12.81
				c27.72-7.55,55.56-18.2,79.09-34.97c22.34-15.92,40.27-37.75,55.34-60.46c15.47-23.33,28.01-48.58,38.72-74.42
				c8.93-21.54,16.54-43.63,23.01-66.04c3.46-11.98,7.21-24.21,9.38-36.52c0.11-0.6,0.26-1.19,0.37-1.78
				c-1.93,2.02-3.86,4.03-5.79,6.05c13.29,0.29,26.76-0.78,39.91-2.62c20.38-2.85,43.84-7.97,59.11-22.82
				c17.94-17.46,22.76-47.06,22.45-70.96c-0.32-24.29-6.2-53.53-25.52-70.15c-11.57-9.95-27.2-14.54-41.99-16.97
				c-19.24-3.15-38.92-2.6-58.23-0.45c0.97,0.56,1.94,1.12,2.9,1.68c-13.61-33.9-20.48-68.73-22.47-105.14
				c-0.11-1.95-1.14-2.97-3.05-2.76c-73.13,8.08-144.16-36.46-181.67-97.35c-11.2-18.18-19.42-37.98-24.32-58.76
				c-0.77-3.25-4.69-1.26-5.88,0.43c-37.85,53.77-90.42,95.13-151.68,119.04c-40.03,15.63-83.03,24.53-126,25.88
				c-8.08,0.25-16.27,0.39-24.33-0.27c-3.48-0.29-5.81,4.42-5.9,7.28c-0.32,10.69-1.61,21.4-3.26,31.95
				c-3.07,19.59-7.67,39.98-17.75,57.27c-5.08,8.71-11.81,16.25-21.21,20.29c-3.93,1.69-5.9,11.74,0.15,9.13
				c19.81-8.53,30.74-30.35,37.29-49.69c6.5-19.2,9.98-39.4,11.82-59.55c0.42-4.6,0.81-9.21,0.95-13.83
				c-1.97,2.43-3.93,4.85-5.9,7.28c24.14,2,49.22-0.63,73.02-4.41c54.36-8.65,107.2-28.63,152.44-60.2
				c32.89-22.95,61.36-51.63,84.44-84.42c-1.96,0.14-3.92,0.28-5.88,0.43c17.38,73.68,77.49,136.33,151.05,155.18
				c19.87,5.09,40.37,6.54,60.75,4.28c-1.02-0.92-2.04-1.84-3.05-2.76c2.03,37.12,8.88,72.74,22.77,107.31
				c0.58,1.44,1.4,1.84,2.9,1.68c28.4-3.17,62.02-3.7,87.68,10.87c21.13,11.99,29.23,37.35,31.36,60.25
				c1.19,12.85,0.64,25.89-2.02,38.52c-2.15,10.24-5.7,21.38-12.53,29.54c-12.06,14.4-34.84,18.85-52.39,21.64
				c-13.86,2.2-28.11,3.38-42.16,3.07c-3.04-0.07-5.26,3.45-5.79,6.05c-5.6,27.83-14.34,55.29-24.23,81.86
				c-18.3,49.17-42.96,99.94-82.35,135.76c-20,18.19-44.51,29.98-69.95,38.61c-30.75,10.44-63.16,16.59-95.58,18.25
				c-32.17,1.65-64.95-1.07-95.53-11.65c-33.1-11.45-63.32-30.23-89.71-53.12c-57.37-49.77-95.11-118.16-122.6-188.01
				c-3.46-8.79-6.76-17.64-9.96-26.53c-0.45-1.26-1.51-2.1-2.9-1.68c-40.39,12.33-85.76-10.18-101.68-49.05
				c-16.4-40.02-4.07-89.93,35.17-111.24c20.49-11.13,45.44-13.58,67.41-5.46C338.11,980.69,343.3,970.97,339.28,969.48
				L339.28,969.48z"/>
		</g>
	</g>
</g>
<g id="Ebene_9">
	<g>
		<path class="st3" d="M683.59,1239.04c-5.49-11.94-24.46-10.89-30.7,0.63c-6.25,11.52-0.29,27.49,10.66,34
			c10.95,6.51,24.98,4.85,36.12-1.26c9.32-5.11,17.47-13.7,19.86-24.51c2.39-10.81-2.38-23.65-12.14-27.74
			c-9.76-4.09-22.83,3.94-22.46,15.03"/>
		<g>
			<path class="st3" d="M687.02,1234.86c-7.08-13.92-26.59-10.75-34.95,0.01c-10.23,13.18-5.96,33.78,7.62,42.91
				c16.2,10.89,38.87,3.28,51.6-9.45c11.91-11.91,18.5-32.78,6.51-47.1c-13.28-15.85-36.64-2.27-36.86,16.18
				c-0.03,2.46,2.04,3.34,4.07,2.35c2.34-1.15,3.88-4.26,3.92-6.78c0.08-6.81,8.42-9.94,14.26-8.49
				c7.14,1.78,11.55,9.24,12.67,16.06c2.78,17.01-14.5,29.46-29.47,31.81c-15.51,2.43-32.67-7.83-32.04-25
				c0.51-13.96,20.04-15.47,25.81-4.13C682.23,1247.31,688.99,1238.72,687.02,1234.86L687.02,1234.86z"/>
		</g>
	</g>
</g>
<g id="Ebene_2">
	<g>
		<g>
			<path d="M344.76,969.78c-44.01-20.17-97.3,0.77-118.89,43.32c-21.57,42.5-13.69,98.01,25.58,127.34
				c20.82,15.55,47.92,21.97,73.33,16.09c4.02-0.93,7.37-11.23,1.88-9.96c-42.29,9.78-86.78-17.23-100.04-58.03
				c-13.48-41.49,2.62-90.16,43.45-108.85c21.71-9.94,47.42-10.28,69.15-0.32C343.42,981.3,348.78,971.63,344.76,969.78
				L344.76,969.78z"/>
		</g>
	</g>
	<g>
		<g>
			<path d="M920.49,981.5c23.52-2.69,48.38-5.55,71.32,2.1c19.43,6.48,35.46,19.92,42.51,39.47c7.2,19.97,7.95,43.99,4.68,64.84
				c-3.27,20.9-13.35,38.21-32.33,48.36c-23.01,12.31-49.91,11.46-75.22,10.63c-4.31-0.14-8.61,9.97-3.81,10.13
				c25.11,0.83,50.99,1.34,74.37-9.26c21.03-9.53,35.8-27.31,42.04-49.44c6.21-22.03,6.03-47.32,1.37-69.64
				c-4.72-22.61-17.89-41.07-38.96-51.02c-26.38-12.46-56.02-9.33-84.08-6.12C918.26,972.01,914.77,982.16,920.49,981.5
				L920.49,981.5z"/>
		</g>
	</g>
	<g>
		<g>
			<path d="M321.87,1154.86c17.6,57.88,45.47,113.11,83.03,160.63c36.01,45.55,81.87,84.76,136.13,106.61
				c52.85,21.29,112.15,26.62,167.75,13.77c57.55-13.3,106.85-46.61,142.8-93.21c38.05-49.33,60.84-108.69,76.25-168.55
				c1.98-7.69,3.83-15.4,5.58-23.14c0.49-2.16-0.52-4.36-2.94-3.99c-2.56,0.38-4.32,3.76-4.82,5.96
				c-13.37,58.99-32.97,117.84-66.91,168.4c-16.21,24.14-36,46.21-59.25,63.76c-22.27,16.81-47.79,29.23-74.54,37.06
				c-53.41,15.65-111.76,13.53-164.34-4.44c-53.72-18.36-99.94-53.48-136.85-96.12c-38.56-44.55-67.88-97.09-87.41-152.59
				c-2.42-6.87-4.67-13.8-6.79-20.77C327.93,1142.89,320.66,1150.88,321.87,1154.86L321.87,1154.86z"/>
		</g>
	</g>
	<g>
		<g>
			<path d="M344.03,977.46c13.56-14.33,21.18-34.39,27.47-52.74c6.14-17.9,10.97-36.29,14.97-54.78c0.84-3.88,1.66-7.78,2.37-11.69
				c-1.93,2.02-3.86,4.03-5.79,6.05c24.22,1.48,49.27-1.61,73.05-5.83c54.28-9.63,106.77-30.31,151.93-62.09
				c32.78-23.06,61.24-51.77,84.39-84.46c-1.96,0.14-3.92,0.28-5.88,0.43c24.69,70.22,82.06,128.3,152.94,151.89
				c19.62,6.53,39.98,10.38,60.65,11.11c-0.7-0.95-1.39-1.9-2.09-2.85c2.2,36.32,7.92,72.96,20.55,107.21
				c1.97,5.33,9.13-2.69,7.69-6.6c-12.39-33.59-18.09-69.41-20.25-105.04c-0.07-1.22-0.59-2.8-2.09-2.85
				c-72.92-2.61-140.63-44.23-181.46-103.82c-11.82-17.25-21.31-35.93-28.25-55.66c-1.06-3.02-4.5-1.52-5.88,0.43
				c-38.01,53.66-90.42,95.01-151.33,119.75c-39.81,16.16-82.73,25.79-125.65,28.02c-8.13,0.42-16.36,0.73-24.5,0.24
				c-2.99-0.18-5.33,3.54-5.79,6.05c-5.35,29.53-13.19,59.65-25.68,86.99c-4.01,8.77-8.77,17.45-15.44,24.5
				C336,975.88,338.99,982.79,344.03,977.46L344.03,977.46z"/>
		</g>
	</g>
	<g>
		<g>
			<path d="M610.87,1256.63c51.93,9.08,106.07-8.79,143.94-45.1c1.67-1.6,3.72-4.7,2.76-7.16c-0.89-2.27-3.31-2.11-4.93-0.55
				c-36.43,34.93-88.1,51.39-137.95,42.68C610.49,1245.76,605.93,1255.76,610.87,1256.63L610.87,1256.63z"/>
		</g>
	</g>
	<g>
		<g>
			<path d="M620.85,1065.05c7.04-5.97,17.33-7.1,25.75-3.44c8.66,3.77,14.17,12.01,15.22,21.31c1,8.79-1.92,17.66-9.84,22.27
				c-8.26,4.81-18.53,4.27-26.47-0.82c-3.77-2.41-9.41,7.11-5.54,9.59c10.56,6.76,24.21,5.9,34.44-1.1
				c10.25-7.01,15.84-19.34,15.56-31.63c-0.26-11.88-6.14-23.75-17.23-28.94c-11.39-5.32-24.63-2.96-34.08,5.05
				c-1.75,1.48-3.69,4.79-2.76,7.16C616.86,1066.87,619.17,1066.48,620.85,1065.05L620.85,1065.05z"/>
		</g>
	</g>
	<g>
		<path d="M570.78,974.9c-1.52-7.27,0.23-14.79,1.55-22.1c1.32-7.31,2.15-15.24-0.99-21.9s-11.71-10.91-17.52-6.71
			c-6.15,4.44-5.27,14.01-5.74,21.87c-0.38,6.26-2.05,12.34-2.93,18.53c-0.89,6.2-0.93,12.81,1.74,18.41s8.69,9.76,14.48,8.39
			s9.5-9.63,5.77-14.5"/>
		<g>
			<path d="M574.62,971.6c-2.59-15.03,7.84-30.97-0.15-45.46c-5.69-10.32-18.92-11.39-25.63-1.6c-3.3,4.81-4.14,10.55-4.45,16.25
				c-0.43,7.83-1.59,15.2-2.83,22.93c-1.85,11.48-1.43,28.91,12.61,32.54c12.19,3.16,23.03-13.29,16.41-23.57
				c-2.6-4.04-9.22,4.72-6.87,8.36c3.55,5.52-3.74,6.18-7.38,4.29c-5.28-2.74-7.43-8.8-7.7-14.41c-0.34-6.87,1.67-13.56,2.7-20.29
				c0.8-5.24,0.67-10.48,1.14-15.74c0.42-4.72,1.82-8.59,7.46-6.98c5.51,1.57,8.53,6.85,9.32,12.18c0.95,6.43-0.72,12.87-1.81,19.18
				c-1.1,6.36-1.6,12.51-0.5,18.9c0.45,2.63,3.55,1.67,4.93,0.55C573.93,977.09,575.07,974.19,574.62,971.6L574.62,971.6z"/>
		</g>
	</g>
	<g>
		<path d="M708.96,962.77c3.08-7.11,6.22-14.68,5.38-22.45s-7.38-15.42-14.66-14.08c-7.92,1.45-11.22,11.46-12.25,19.89
			c-1.11,9.02-1.39,18.15-0.84,27.22c0.4,6.5,2.13,14.23,7.96,16.32c5.12,1.84,10.8-2.16,13.08-7.35
			c2.28-5.19,2.05-11.17,1.76-16.88"/>
		<g>
			<path d="M712.47,963.09c3.5-8.15,7.03-17.03,5.71-26.08c-0.99-6.78-5.48-14.14-12.62-15.7c-14.88-3.27-21.05,16.86-22.25,27.74
				c-1.06,9.6-1.58,19.55-0.49,29.17c0.65,5.71,2.3,12.81,7.83,15.76c6.51,3.48,13.65-1.12,17.6-6.3
				c5.34-7.02,5.52-16.03,5.12-24.45c-0.31-6.53-8.18,0.19-7.98,4.43c0.21,4.56,1.26,11.7-2.1,15.38
				c-3.78,4.15-8.95,1.14-10.85-3.06c-1.92-4.25-1.96-9.14-2.09-13.71c-0.18-6.4,0.01-12.83,0.71-19.19
				c0.69-6.29,2.68-19.86,12.29-14.93c11.8,6.05,5.95,21.29,2.08,30.3c-0.77,1.79-0.85,5,1.61,5.39
				C709.59,968.24,711.67,964.97,712.47,963.09L712.47,963.09z"/>
		</g>
	</g>
	<g>
		<g>
			<path d="M689.01,892.93c21.38-0.68,41.56,9.13,54.8,25.84c3.08,3.89,9.54-4.99,6.87-8.36c-13.93-17.58-35.28-28.33-57.85-27.61
				C688.51,882.94,684.35,893.08,689.01,892.93L689.01,892.93z"/>
		</g>
	</g>
	<g>
		<g>
			<path d="M517.83,916.73c13.08-15.76,33.75-23.19,53.87-19.67c4.19,0.73,8.76-9.27,3.81-10.13c-23.39-4.09-46.8,6.02-61.76,24.05
				c-1.34,1.61-2.98,5.11-1.4,7.06C513.98,920.04,516.62,918.2,517.83,916.73L517.83,916.73z"/>
		</g>
	</g>
	<g>
		<g>
			<path d="M947.93,1008.57c29.58,4.73,52.53,31.86,55.08,61.27c0.57,6.54,8.35-0.17,7.98-4.43c-2.79-32.17-26.62-61.75-59.26-66.97
				C947.53,997.76,942.99,1007.78,947.93,1008.57L947.93,1008.57z"/>
		</g>
	</g>
	<g>
		<g>
			<path d="M306.85,989.03c-36.92,5.2-63.18,44.74-59.55,80.69c0.66,6.54,8.41-0.17,7.98-4.43c-3.11-30.82,18.28-61.88,49.69-66.3
				C309.07,998.41,312.53,988.23,306.85,989.03L306.85,989.03z"/>
		</g>
	</g>
</g>
<g id="Ebene_8">
	<ellipse class="st4" cx="563.9" cy="937.29" rx="4.85" ry="5.12"/>
	<ellipse class="st4" cx="705.06" cy="941.7" rx="4.67" ry="4.93"/>
</g>
<g id="Ebene_10">
	<g class="st5">
		<path class="st3" d="M529.12,1224.49c-1.06-17.86-15.92-33.18-32.71-35.4c-16.79-2.22-34.03,7.77-42.68,23.15
			c-8.65,15.37-9.04,35.17-2.5,51.68c7.25,18.32,23.3,32.94,41.87,35.95c18.57,3.01,38.86-6.69,47.53-24.31
			c8.66-17.63,3.73-41.95-11.93-52.92"/>
		<g>
			<path class="st3" d="M533.11,1222.27c-1.9-23.62-23.36-42.19-47.24-37.85c-25.71,4.67-41.73,29.93-43.05,54.64
				c-1.32,24.84,11.87,50.73,34.78,61.6c21.18,10.05,46.96,3.13,60.96-15.57c14.97-20,14.05-51.77-7.12-67.24
				c-3.53-2.58-9.29,6.85-5.54,9.59c14.55,10.63,19.59,33.29,10.48,48.98c-9.52,16.4-31.27,22.67-48.69,16.54
				c-19.24-6.76-32.7-25.11-36.14-44.82c-3.65-20.86,4.6-43.85,25.49-51.84c21.63-8.27,46.22,7.21,48.09,30.41
				C525.65,1233.25,533.45,1226.53,533.11,1222.27L533.11,1222.27z"/>
		</g>
	</g>
	<g class="st5">
		<path class="st3" d="M854.11,1168.67c-1.06-17.86-15.92-33.18-32.71-35.4c-16.79-2.22-34.03,7.77-42.68,23.15
			s-9.04,35.17-2.5,51.68c7.25,18.32,23.3,32.94,41.87,35.95c18.57,3.01,38.86-6.69,47.53-24.31c8.66-17.63,3.73-41.95-11.93-52.92"
			/>
		<g>
			<path class="st3" d="M858.1,1166.46c-1.9-23.62-23.36-42.19-47.24-37.85c-25.71,4.67-41.73,29.93-43.05,54.64
				c-1.32,24.84,11.87,50.73,34.78,61.6c21.18,10.05,46.96,3.13,60.96-15.57c14.97-20,14.05-51.77-7.12-67.24
				c-3.53-2.58-9.29,6.85-5.54,9.59c14.55,10.63,19.59,33.29,10.48,48.98c-9.52,16.4-31.27,22.67-48.69,16.54
				c-19.24-6.76-32.7-25.11-36.14-44.82c-3.65-20.86,4.6-43.85,25.49-51.84c21.63-8.27,46.22,7.21,48.09,30.41
				C850.64,1177.43,858.44,1170.72,858.1,1166.46L858.1,1166.46z"/>
		</g>
	</g>
</g>
<g id="Ebene_13">
	<g class="st6">
		<path d="M249.08,994.36c-6.9,30.65-3.34,64.13,9.78,92.09c13.13,27.96,35.7,50.14,62.09,61.01c-31.02,4.94-63.95-12.59-80.23-42.7
			c-16.28-30.11-14.97-71.07,3.2-99.79"/>
		<g>
			<path d="M238.73,991.5c-14.45,66.18,15.06,139.28,79.37,166.31c0-6.9,0-13.8,0-20.7c-28.16,4.18-56-14.37-68.81-39.1
				c-13.97-26.96-11.99-61.98,3.9-87.62c7.3-11.78-11.26-22.57-18.54-10.84c-31.35,50.57-15.76,126.77,41.04,151.76
				c15.41,6.78,31.48,8.96,48.12,6.49c4.58-0.68,7.88-6.06,7.88-10.35c0-5.13-3.46-8.49-7.88-10.35
				c-52.99-22.28-76.06-86.4-64.37-139.9c1.24-5.66-1.7-11.61-7.5-13.21C246.57,982.53,239.97,985.82,238.73,991.5L238.73,991.5z"/>
		</g>
	</g>
	<g class="st6">
		<path d="M262.85,845.88c-32.27-1.66-64.79,16.74-82.85,46.87c-18.06,30.13-21.03,70.95-7.57,103.98
			c-29.05,13.92-47.82,51.02-43.63,86.23c4.2,35.21,30.99,65.44,62.27,70.26c-23.76,28.08-22.67,77.96,2.3,104.68
			c24.97,26.72,69.3,25.46,93.04-2.64c-14.45,24.36-15.04,59.43,1.65,81.9s50.69,26.87,69.28,6.38
			c-12.62,22.69-10.64,54.45,4.69,74.92c15.33,20.48,42.8,28.09,64.82,17.95c41.43,38.52,101.85,49.09,151.79,26.89
			c0.95-0.42,0.52-1.36-0.15-2.23c-36.84-48.05-109.01-57.04-152.95-103.37c-44.77-47.2-95.96-199.07-104.59-196.13
			c-124.96,42.57-160.14-204.87-27.29-195.78c130.64,8.94-8.04-51.12-25.15-112.74"/>
		<g>
			<path d="M262.85,835.15c-28.53-1.2-56.54,11.31-76.3,31.64c-21.36,21.99-32.35,52.15-33.17,82.55
				c-0.46,17.05,2.38,34.4,8.7,50.25c1.64-4.04,3.29-8.08,4.93-12.12c-26.53,13.07-44.07,41.55-48.26,70.31
				c-4.45,30.44,5.23,61.67,27.33,83.4c11.47,11.28,26.17,19.75,42.14,22.4c-1.58-5.98-3.16-11.96-4.74-17.94
				c-20.87,25.2-25.97,62.25-14.22,92.7c6.04,15.65,15.89,29.24,30.14,38.37c13.45,8.62,30.29,12.49,46.16,10.8
				c18.66-1.98,36.09-10.37,48.44-24.66c-5.62-4.34-11.24-8.67-16.86-13.01c-13.15,22.7-16.63,52.51-6.72,77.11
				c9.5,23.58,30.97,40.95,57.19,40.48c14.12-0.25,27.63-5.97,37.32-16.3c-5.62-4.34-11.24-8.67-16.86-13.01
				c-14.26,26.41-13.18,62.03,5.14,86.34c18.52,24.58,50.8,33.73,79.06,21.22c-4.34-0.56-8.67-1.12-13.01-1.68
				c43.72,40.21,107.72,52.99,162.71,29.47c5.08-2.17,8.29-6.44,7.74-12.17c-0.4-4.28-3.16-7.33-5.79-10.53
				c-4.05-4.94-8.53-9.52-13.33-13.74c-10.03-8.84-21.18-16.34-32.76-22.97c-23.09-13.23-47.78-23.46-70.56-37.25
				c-11.19-6.77-21.77-14.37-31.09-23.58c-3.28-3.24-6.31-6.66-9.23-10.22c-0.29-0.35-0.56-0.71-0.85-1.06
				c-1.01-1.27,0.98,1.3-0.01-0.01c-0.67-0.88-1.33-1.76-1.98-2.65c-1.35-1.85-2.67-3.72-3.97-5.62
				c-12.02-17.6-21.95-36.61-31.35-55.71c-17.38-35.34-31.58-72.15-48.9-107.5c-2.01-4.1-4.04-8.27-6.69-12
				c-4.57-6.43-9.96-8.82-17.78-6.39c-3.93,1.22-7.95,2.21-12.01,2.9c-0.54,0.09-3.3,0.48-1.89,0.3c1.52-0.19-1.5,0.14-1.84,0.17
				c-1.86,0.17-3.73,0.26-5.6,0.29c-1.69,0.03-3.37-0.01-5.06-0.1c-0.89-0.05-1.78-0.11-2.67-0.19c-1.1-0.1-3.34-0.47-0.88-0.06
				c-3.39-0.57-6.73-1.24-10.02-2.25c-1.49-0.46-2.96-0.98-4.43-1.53c-1.1-0.41-2.31-1.04-0.42-0.14c-0.86-0.41-1.73-0.78-2.59-1.2
				c-2.99-1.46-5.87-3.14-8.62-5.01c-0.59-0.4-1.18-0.81-1.76-1.23c-0.4-0.29-2.42-1.84-1.2-0.88c1.3,1.02-0.89-0.75-1.15-0.96
				c-0.74-0.62-1.46-1.25-2.17-1.89c-2.43-2.19-4.73-4.52-6.9-6.97c-1.14-1.29-2.21-2.63-3.31-3.95c-0.39-0.47,1.11,1.55-0.13-0.18
				c-0.58-0.81-1.18-1.6-1.75-2.42c-2.02-2.89-3.89-5.88-5.62-8.95c-1.76-3.13-3.35-6.34-4.85-9.6c-0.42-0.92-1.14-2.64-0.31-0.64
				c-0.3-0.72-0.59-1.44-0.88-2.17c-0.72-1.82-1.4-3.66-2.04-5.51c-2.42-6.98-4.27-14.16-5.56-21.44c-0.3-1.7-0.56-3.4-0.81-5.11
				c0.32,2.16,0.06,0.47-0.07-0.7c-0.12-1.05-0.23-2.11-0.33-3.16c-0.33-3.55-0.53-7.11-0.59-10.68c-0.06-3.67,0.01-7.34,0.25-10.99
				c0.11-1.81,0.27-3.62,0.46-5.43c0.08-0.77,0.18-1.54,0.27-2.31c0.21-1.96-0.03,0.27-0.08,0.56c0.08-0.51,0.14-1.02,0.23-1.52
				c1.15-6.96,2.77-13.82,5.17-20.46c0.29-0.81,0.6-1.61,0.91-2.42c0.14-0.37,1.06-2.57,0.43-1.1c-0.66,1.55,0.46-1.02,0.64-1.39
				c0.41-0.88,0.83-1.75,1.26-2.62c1.5-3,3.18-5.91,5.03-8.7c0.85-1.29,1.77-2.52,2.67-3.77c0.84-1.17-1.31,1.58-0.37,0.49
				c0.23-0.27,0.44-0.56,0.67-0.82c0.61-0.71,1.21-1.44,1.84-2.15c2.2-2.46,4.56-4.77,7.09-6.89c0.54-0.46,1.1-0.9,1.65-1.34
				c-1.62,1.31-0.54,0.41,0.39-0.24c1.48-1.02,2.97-2.02,4.51-2.94c1.36-0.81,2.74-1.56,4.15-2.27c0.77-0.39,1.57-0.72,2.33-1.11
				c1.58-0.82-1.79,0.63,0.53-0.23c3.39-1.26,6.78-2.38,10.31-3.2c1.84-0.43,3.69-0.75,5.56-1.07c2.18-0.37-0.2,0,0.44-0.06
				c1.13-0.1,2.25-0.23,3.39-0.32c20.75-1.55,41.98,3.86,62.5-1.61c6.37-1.7,12.56-4.99,15.73-11.01
				c3.47-6.56,1.78-13.96-1.61-20.15c-7.15-13.03-20.06-23.41-30.64-33.53c-6.81-6.51-13.59-13.05-20.05-19.9
				c-3.26-3.45-6.44-6.98-9.49-10.62c-0.64-0.77-1.28-1.54-1.91-2.32c-0.43-0.53-2.02-2.56-1.62-2.03c0.47,0.62-1.25-1.69-1.52-2.05
				c-0.76-1.04-1.5-2.1-2.23-3.16c-2.28-3.34-4.39-6.79-6.24-10.38c-0.48-0.93-0.92-1.88-1.38-2.82c-1.1-2.24,0.17,0.64-0.48-1.07
				c-0.71-1.87-1.36-3.75-1.91-5.67c-3.8-13.26-24.52-7.62-20.7,5.71c4.66,16.29,15.05,30.26,26.09,42.82
				c10.94,12.45,23.19,23.64,35.08,35.15c4.84,4.69,9.68,9.41,14.06,14.54c0.56,0.66,3.24,4.28,1.24,1.43
				c0.68,0.97,1.4,1.91,2.05,2.91c0.57,0.89,1.03,1.84,1.58,2.74c0.63,1.04,0.21,1.9-0.31-0.84c0.1,0.56,0.46,1.07,0.54,1.64
				c0.33,2.43,0.13-3.12-0.05-0.19c-0.11,1.7,0.62-3.08,0.2-1.45c-0.25,0.96-0.91,1.85,0.62-1.25c-1.22,2.47,1.8-1.65,0.14-0.1
				c-1.18,1.11,2.46-1.03,0.86-0.63c-0.37,0.09-1.37,0.69-1.65,0.95c-1.29,1.18,2.44-0.59,0.57-0.23c-0.57,0.11-1.17,0.4-1.73,0.57
				c-1.34,0.4-2.71,0.7-4.09,0.96c-0.79,0.15-1.58,0.27-2.37,0.39c2.84-0.44-0.18,0-0.65,0.04c-2.37,0.19-4.74,0.38-7.12,0.47
				c-18.99,0.73-37.83-2.79-56.65,1.04c-13.51,2.75-26.03,9.13-36.37,18.2c-20.27,17.76-29.35,45.06-31.32,71.24
				c-3.82,50.67,20.95,116.49,75.83,128.87c14.49,3.27,29.57,2.41,43.83-1.6c0.45-0.13,5.27-1.64,5.28-1.64
				c0.59,1.38-7.73-1.15-7.13-0.78c-3.09-1.88-1.99-1.64-1.05-0.6c-0.81-0.9-1.44-2.18-0.15-0.09c2.35,3.79,4.39,7.74,6.34,11.75
				c15.26,31.42,28.08,63.99,43.11,95.53c8.51,17.86,17.43,35.57,27.62,52.54c9.17,15.26,19.46,30.09,32.69,42.13
				c36.15,32.89,84.84,45,123.34,74.16c3.97,3.01,7.78,6.33,11.37,9.81c1.96,1.91,3.86,3.88,5.69,5.92
				c0.92,1.02,1.81,2.07,2.69,3.12c0.29,0.36,0.58,0.71,0.87,1.07c1.3,1.72,1.18,1.42-0.36-0.9c0.92-3.48,1.84-6.96,2.76-10.44
				c1.01-1.08-1.6,0.23-2.09,0.42c-1.64,0.63-3.3,1.23-4.96,1.79c-2.85,0.96-5.72,1.83-8.63,2.6c-5.8,1.54-11.73,2.75-17.7,3.37
				c-12.12,1.25-24.52,1.02-36.53-1.17c-25.13-4.57-48.42-16.02-67.23-33.32c-3.87-3.55-8.43-3.71-13.01-1.68
				c-17.66,7.82-40.31,0.19-51.4-15.87c-12.38-17.92-13.78-43.16-3.43-62.32c5.63-10.42-8.25-22.19-16.86-13.01
				c-7.49,7.99-16.83,11.1-27.76,9.77c-8.61-1.05-18.54-6.32-24.66-13.98c-15.68-19.65-13.69-50.28-1.65-71.06
				c5.94-10.25-8.68-22.47-16.86-13.01c-16.07,18.59-42.67,24.31-63.99,13.17c-22.65-11.84-31.48-37.99-30-62.35
				c0.8-13.18,5.35-27.44,13.83-37.67c4.57-5.52,4-16.49-4.74-17.94c-22.39-3.71-40.52-20.44-49.26-41.3
				c-9.43-22.5-6.76-48.54,5.54-69.39c6.64-11.26,15.88-20.38,27.64-26.18c3.84-1.89,6.58-7.99,4.93-12.12
				c-12.14-30.46-10.69-66.54,6.09-95.03c15.28-25.95,43.51-43.52,73.98-42.23C276.67,857.2,276.64,835.73,262.85,835.15
				L262.85,835.15z"/>
		</g>
	</g>
	<g class="st6">
		<path d="M591.84,1511.33c35.04-18.55,68.09-41.85,98.21-69.24c-28.99,10.5-61,10.12-89.79-1.04c-6.1-2.37-13.51,3.41-13.69,10.67
			c-0.5,20.66-0.99,41.33-1.49,61.99"/>
		<g>
			<path d="M597.26,1520.6c36.29-19.3,69.93-43.33,100.39-70.92c7.76-7.03-0.34-21.52-10.44-17.94c-14.49,5.13-29.42,7.65-44.8,7.16
				c-7.44-0.24-14.77-1.19-22.02-2.88c-3.81-0.89-7.58-1.95-11.29-3.18c-3.69-1.22-7.19-2.95-11.16-3.05
				c-7.44-0.18-14.69,4.07-18.6,10.34c-4.35,6.97-3.58,15.33-3.77,23.21c-0.4,16.79-0.81,33.58-1.21,50.37
				c-0.33,13.82,21.14,13.82,21.47,0c0.36-15.18,0.73-30.35,1.09-45.53c0.09-3.87,0.19-7.75,0.28-11.62
				c0.06-2.39-0.45-4.44,0.67-5.59c0.07-0.07-0.64,0.64-0.6,0.4c1.52-0.31,1.54-0.41,0.07-0.31c-1.48-0.1-1.45,0.01,0.07,0.35
				c3.03,1.71,6.96,2.52,10.29,3.49c27.75,8.14,57.99,7.19,85.22-2.45c-3.48-5.98-6.96-11.96-10.44-17.94
				c-29.14,26.4-61.32,49.09-96.04,67.56C574.22,1508.55,585.05,1527.09,597.26,1520.6L597.26,1520.6z"/>
		</g>
	</g>
	<g class="st6">
		<path d="M352.46,1651.07c45.01,99.24,144,164.16,242.94,159.32c150.85-7.38,301.71-14.76,452.56-22.14
			c-265.59,34.55-533.98,41.8-800.74,21.64c-8.08-0.61-14.31-10.99-11.8-19.65c20.11-69.39,67.11-128.33,126.26-158.3"/>
		<g>
			<path d="M343.19,1656.49c35.66,78.06,107.35,141.14,192.07,159.43c20.42,4.41,41.27,6.11,62.13,5.11
				c28.58-1.38,57.15-2.8,85.73-4.19c57.15-2.8,114.3-5.59,171.46-8.39c64.46-3.15,128.92-6.31,193.39-9.46c0-7.16,0-14.31,0-21.47
				c-70.61,9.17-141.46,16.45-212.46,21.77c-70.94,5.32-142.03,8.72-213.15,10.17c-71.11,1.45-142.26,0.97-213.34-1.44
				c-35.22-1.2-70.42-2.87-105.6-5.02c-17.72-1.08-35.58-1.8-53.24-3.62c-0.44-0.05-2.78-0.49-2.11-0.2
				c0.78,0.34-1.04-0.86-0.73-0.41c-1.09-1.6-1.92-3.38-1.88-4.36c0.12-3.04,1.92-6.71,2.86-9.62c1.13-3.49,2.34-6.97,3.61-10.41
				c18.43-49.86,52.8-95.11,98.05-123.48c5.56-3.49,11.27-6.7,17.12-9.69c5.16-2.64,6.66-9.89,3.85-14.69
				c-3.07-5.24-9.51-6.5-14.69-3.85c-50.83,25.98-91.2,71.02-115.21,122.48c-6.28,13.46-12.43,27.76-15.99,42.23
				c-1.85,7.53-0.68,15.74,3.73,22.21c4.99,7.32,11.79,10.44,20.4,11.18c36.41,3.14,72.99,4.96,109.48,6.68
				c73.68,3.46,147.45,4.83,221.21,4.12c73.44-0.71,146.85-3.48,220.13-8.31c73.67-4.86,147.19-11.79,220.47-20.8
				c9.17-1.13,18.33-2.29,27.48-3.48c5.75-0.75,10.74-4.4,10.74-10.74c0-5.59-4.92-11.02-10.74-10.74
				c-112.64,5.51-225.28,11.02-337.93,16.54c-28.24,1.38-56.49,2.76-84.73,4.15c-22.63,1.11-45.21,2.93-67.77-0.03
				c-39.05-5.12-76.64-21.57-108.6-44.69c-37.96-27.47-67.78-65.3-87.2-107.81c-2.41-5.27-10.04-6.57-14.69-3.85
				C341.63,1644.97,340.77,1651.19,343.19,1656.49L343.19,1656.49z"/>
		</g>
	</g>
</g>
<g id="Ebene_12">
	<g>
		<g id="Ebene_3_1_">
			<g class="st7">
				<g>
					<path d="M882.53,849.5c3.31,0.13,6.86-7.55,3.23-7.69C882.45,841.68,878.89,849.36,882.53,849.5L882.53,849.5z"/>
				</g>
			</g>
			<g class="st7">
				<path d="M877,843.56c1.44,61.14,2.89,122.28,4.33,183.43c58.87-41.88,117.75-83.76,176.62-125.64
					c32.82-23.35,64.42-60.81,105.64-57.03c42.72,3.93,92.44,5.45,133.26,9.2c98.36,9.04,175.55,6.9,273.87-2.69
					c30.08-2.94,77.1-28.53,100.23-48.07c28.17-23.8,32.21-50.85,36.23-87.59c15.6-142.44-3.72-286.78-37.28-426.04
					c-8.32-34.53-19.76-72.06-49.62-91.12c-26.44-16.88-60.3-14.62-91.45-11.21c-247.16,27.13-490.32,90.85-719.18,188.47
					c-25.25,10.78-52.08,23.52-65.22,47.69c-10.38,19.09-12.96,42.25-9.43,63.71c15.01,91.2,22.64,151.38,32.94,246.89
					c2.91,26.96,11.29,69.38,33.92,84.17c22.15,14.47,47.78,15.31,72.96,13.45c1.93,4.18,3.87,8.37,5.8,12.55"/>
				<g>
					<path d="M873.87,845.15c1.44,61.14,2.89,122.28,4.33,183.43c0.06,2.54,2.11,2.65,3.85,1.42
						c45.09-32.07,90.17-64.14,135.25-96.21c19.97-14.21,40.4-27.91,59.43-43.4c15.68-12.77,31.19-26.54,49.62-35.22
						c9.16-4.31,19.14-7.16,29.31-7.25c11.76-0.11,23.73,1.75,35.47,2.56c24.73,1.7,49.49,2.91,74.23,4.57
						c24.95,1.68,49.82,4.25,74.77,5.76c24.92,1.51,49.88,2.31,74.84,2.31c49.81,0.01,99.55-3.2,149.12-7.93
						c19.53-1.86,37.57-8.2,55.22-16.66c17.64-8.46,34.94-18.61,50.17-30.96c14.95-12.12,26.13-27.5,32.16-45.86
						c6.45-19.64,8.08-40.83,10.02-61.3c5.04-53.32,5.27-107.04,1.79-160.47c-3.43-52.62-10.4-104.96-19.92-156.81
						c-4.8-26.12-10.24-52.12-16.22-77.98c-4.98-21.57-9.8-43.4-18.42-63.87c-7.59-18.04-18.62-35.09-35.13-46.08
						c-19.1-12.72-42.6-15.27-64.98-14.49c-24.51,0.85-49.03,4.46-73.34,7.56c-25.56,3.27-51.09,6.92-76.54,10.96
						c-101.22,16.09-201.48,38.31-300.05,66.49C1010.59,293.8,914,327.79,819.8,367.49c-19.48,8.21-39.62,16.29-56.32,29.59
						c-16.86,13.43-27.47,32.1-31.31,53.33c-4.41,24.35,1.45,48.39,5.23,72.42c3.56,22.6,6.93,45.22,10.07,67.87
						c6.42,46.41,11.77,92.95,16.81,139.52c3.71,34.31,9.65,79.56,44.36,96.21c20.38,9.78,43.22,10.14,65.32,8.56
						c-0.63-0.23-1.26-0.46-1.89-0.69c1.93,4.18,3.87,8.37,5.8,12.55c1.49,3.21,6.92-3.2,5.52-6.24c-1.93-4.18-3.87-8.37-5.8-12.55
						c-0.33-0.73-1.26-0.73-1.89-0.69c-23.66,1.69-48.47,0.8-69.33-11.86c-15.53-9.42-22.98-27.43-27.82-44.22
						c-5.38-18.7-7.29-37.93-9.4-57.21c-2.56-23.42-5.21-46.83-8.06-70.21c-5.37-44.09-11.57-88.06-18.54-131.92
						c-3.87-24.36-9.23-48.3-2.05-72.63c6.38-21.65,21.6-36.33,40.83-47.07c19.65-10.98,41.08-18.98,61.86-27.49
						c23.03-9.43,46.18-18.52,69.47-27.27c47.45-17.83,95.44-34.2,143.87-49.13c95.07-29.32,191.85-53.06,289.68-71.07
						c49.51-9.11,99.29-16.74,149.25-22.89c23.73-2.92,47.85-6.68,71.82-6.1c22.13,0.53,44.08,5.86,60.87,21.06
						c14.87,13.46,23.8,32.42,30.09,51.17c7.31,21.82,12.01,44.58,16.97,67.02c11.26,50.92,20.39,102.35,26.42,154.17
						c6.02,51.68,8.9,103.78,7.66,155.81c-0.62,26.15-2.29,52.27-5.1,78.27c-2.1,19.33-4.1,39.51-12.68,57.23
						c-8.27,17.07-22.88,29.11-38.35,39.39c-16.93,11.25-35.33,20.97-54.45,27.88c-20.27,7.33-41.51,8.17-62.81,9.92
						c-24.83,2.04-49.69,3.6-74.59,4.45c-48.59,1.65-97.2,0.37-145.66-3.54c-47.86-3.86-95.86-6.02-143.7-10.08
						c-9.98-0.85-19.48-1.26-29.29,1.2c-8.7,2.18-16.99,5.89-24.74,10.39c-17.25,10-32.16,23.42-47.68,35.82
						c-19.47,15.55-40.41,29.39-60.71,43.82c-21.75,15.47-43.49,30.94-65.24,46.4c-21.22,15.09-42.43,30.18-63.65,45.28
						c1.28,0.47,2.57,0.94,3.85,1.42c-1.44-61.14-2.89-122.28-4.33-183.43C880.01,836.92,873.79,841.87,873.87,845.15L873.87,845.15
						z"/>
				</g>
			</g>
			<g class="st7">
				<g>
					<path d="M1641.19,1022.37c3.31,0.13,6.86-7.55,3.23-7.69C1641.11,1014.55,1637.56,1022.23,1641.19,1022.37L1641.19,1022.37z"/>
				</g>
			</g>
		</g>
		<g id="Ebene_3_Kopie">
			<g>
				<g>
					<path class="st8" d="M903.38,824.12c3.31,0.13,6.86-7.55,3.23-7.69C903.3,816.3,899.75,823.97,903.38,824.12L903.38,824.12z"/>
				</g>
			</g>
			<g>
				<path class="st9" d="M897.86,818.18c1.44,61.14,2.89,122.28,4.33,183.43c58.87-41.88,117.75-83.76,176.62-125.64
					c32.82-23.35,64.42-60.81,105.64-57.03c42.72,3.93,92.44,5.45,133.26,9.2c98.36,9.04,175.55,6.9,273.87-2.69
					c30.08-2.94,77.1-28.53,100.23-48.07c28.17-23.8,32.21-50.85,36.23-87.59c15.6-142.44-3.72-286.78-37.28-426.04
					c-8.32-34.53-19.76-72.06-49.62-91.12c-26.44-16.88-60.3-14.62-91.45-11.21c-247.16,27.13-490.32,90.85-719.18,188.47
					c-25.25,10.77-52.08,23.51-65.22,47.69c-10.38,19.09-12.96,42.25-9.43,63.71c15.01,91.2,22.64,151.38,32.94,246.89
					c2.91,26.96,15.53,64.31,33.92,84.17c18.39,19.85,50.92,29.15,72.96,13.45c1.93,4.18,3.87,8.37,5.8,12.55"/>
				<g>
					<path class="st8" d="M894.73,819.77c1.44,61.14,2.89,122.28,4.33,183.43c0.06,2.54,2.11,2.65,3.85,1.42
						c45.09-32.07,90.17-64.14,135.25-96.21c20.37-14.49,41.17-28.5,60.55-44.32c15.64-12.76,31.22-26.47,49.74-34.88
						c9.02-4.1,18.82-6.68,28.76-6.68c11.55,0,23.25,1.78,34.77,2.56c25.31,1.74,50.64,2.97,75.94,4.69
						c24.98,1.7,49.88,4.28,74.88,5.76c25.17,1.49,50.39,2.25,75.61,2.2c49.91-0.09,99.75-3.41,149.41-8.2
						c19.35-1.87,37.72-9.15,55.05-17.7c17.14-8.47,34.05-18.47,48.8-30.73c15.02-12.48,25.76-28.34,31.55-47.03
						c6.24-20.15,7.76-41.92,9.65-62.82c4.81-53.34,4.85-107.07,1.2-160.48c-3.64-53.24-10.88-106.2-20.71-158.62
						c-4.89-26.1-10.42-52.07-16.47-77.93c-4.89-20.9-9.8-41.99-18.57-61.66c-8.13-18.23-20.19-35.12-37.7-45.24
						c-19.64-11.34-42.92-12.94-65.07-11.83c-25.25,1.27-50.49,4.93-75.55,8.2c-25.26,3.29-50.46,6.96-75.62,11.01
						c-101.79,16.39-202.6,39-301.67,67.63c-98.46,28.45-195.24,62.84-289.6,102.96c-19.14,8.14-38.83,16.79-54.27,31.13
						c-15.86,14.73-24.52,34.82-26.92,56.21c-1.35,12.02-0.29,23.79,1.65,35.66c2.05,12.53,4.06,25.06,6.01,37.61
						c3.48,22.36,6.76,44.76,9.81,67.18c3.04,22.41,5.85,44.86,8.5,67.32c2.91,24.65,4.98,49.45,8.34,74.04
						c2.74,20.09,9.06,40.1,18.31,58.12c9.13,17.78,22.15,33.04,41.12,40.44c16.89,6.59,35.51,6.27,50.75-4.21
						c-1.16,0.04-2.32,0.08-3.48,0.11c1.93,4.18,3.87,8.37,5.8,12.55c1.49,3.21,6.92-3.2,5.52-6.24c-1.93-4.18-3.87-8.37-5.8-12.55
						c-0.67-1.44-2.65-0.45-3.48,0.11c-16.67,11.46-39.01,7.67-55.41-2.27c-17.39-10.53-27.99-28.73-35.43-47.2
						c-7.95-19.75-11.42-39.86-13.71-60.91c-2.57-23.59-5.22-47.17-8.08-70.72c-5.36-44.3-11.55-88.48-18.52-132.55
						c-3.8-24.01-9.48-47.85-3.35-71.99c5.6-22.06,19.87-37.59,39.13-48.83c19.5-11.39,41.09-19.37,61.92-27.93
						c23.29-9.57,46.73-18.79,70.29-27.66c46.87-17.64,94.27-33.87,142.09-48.7c95.61-29.64,192.95-53.63,291.37-71.81
						c49.5-9.14,99.28-16.82,149.23-22.99c23.78-2.94,47.95-6.71,71.96-6.36c22.18,0.33,44.37,5.21,61.49,20.16
						c15.1,13.19,24.26,32.01,30.66,50.71c7.51,21.94,12.23,44.89,17.24,67.5c11.21,50.61,20.33,101.72,26.4,153.22
						c6.14,51.99,9.1,104.4,7.9,156.75c-0.6,26.15-2.23,52.27-5.02,78.27c-2.06,19.23-3.99,39.26-12.22,57
						c-7.99,17.23-22.34,29.41-37.76,39.8c-16.97,11.43-35.46,21.22-54.66,28.3c-20.58,7.58-42.08,8.49-63.75,10.27
						c-24.54,2.01-49.12,3.57-73.72,4.42c-48.56,1.68-97.15,0.44-145.58-3.44c-24.15-1.93-48.26-3.97-72.45-5.41
						c-24.07-1.43-48.16-2.7-72.19-4.75c-9.74-0.83-19.04-1.26-28.63,1.04c-8.95,2.15-17.45,5.94-25.4,10.55
						c-17.25,9.99-32.16,23.42-47.68,35.82c-19.47,15.55-40.41,29.39-60.71,43.82c-21.75,15.47-43.49,30.94-65.24,46.4
						c-21.22,15.09-42.43,30.18-63.65,45.28c1.28,0.47,2.57,0.94,3.85,1.42c-1.44-61.14-2.89-122.28-4.33-183.43
						C900.87,811.54,894.66,816.48,894.73,819.77L894.73,819.77z"/>
				</g>
			</g>
			<g>
				<g>
					<path class="st8" d="M1662.05,996.99c3.31,0.13,6.86-7.55,3.23-7.69C1661.97,989.17,1658.41,996.85,1662.05,996.99
						L1662.05,996.99z"/>
				</g>
			</g>
		</g>
		<g id="Ebene_2_1_">
			<g>
				<g>
					<path d="M896.68,808.23c-16.73,1.31-34.13,1.71-50.41-3c-7.85-2.27-15.41-5.97-21.56-11.43c-6.93-6.14-11.93-14.63-15.94-22.9
						c-8.66-17.84-12.44-37.66-15.63-57.11c-3.73-22.8-7.21-45.64-10.81-68.46c-7.37-46.77-14.75-93.55-22.12-140.33
						c-6.08-38.6-14.82-85.04,12.79-117.7c11.89-14.07,28.02-23.72,44.44-31.55c18.25-8.7,37.35-15.71,56.24-22.86
						c41.84-15.84,84.2-30.27,126.9-43.57c84.86-26.43,171.06-48.35,257.75-67.86c86.55-19.48,173.62-36.56,260.72-53.35
						c21.03-4.06,42.19-9.11,63.54-11.04c20.21-1.83,41,0.53,57.81,12.81c29.87,21.82,39.81,63.12,49.5,96.79
						c24.66,85.77,38.99,174.53,42.57,263.73c1.72,42.85,1.55,86.17-2.42,128.91c-3.33,35.88-10.47,73.36-30.68,103.86
						c-21.14,31.9-55.36,48.53-91.89,55.89c-40.18,8.08-82.09,7.73-122.89,8.29c-87.18,1.2-174.24-2.98-261.23-8.31
						c-22.18-1.36-44.35-2.77-66.52-4.18c-3.31-0.21-6.9,7.46-3.23,7.69c90.73,5.73,181.5,11.76,272.44,12.6
						c44.59,0.41,89.45,0.3,133.96-2.74c37.39-2.55,76.16-8.92,107.93-30.21c66.16-44.34,69.98-135.28,71.46-207.13
						c1.88-91.67-7.52-183.6-27.88-272.97c-5.16-22.65-11.03-45.14-17.59-67.43c-5.45-18.49-11.01-37.14-19.51-54.49
						c-7.55-15.4-17.83-30.02-32.33-39.52c-16.89-11.07-37.21-12.96-56.87-11.29c-21.96,1.88-43.71,7.13-65.32,11.3
						c-22.75,4.39-45.51,8.8-68.25,13.26c-45.2,8.88-90.36,17.98-135.41,27.61c-89.65,19.16-178.92,40.39-266.97,66.04
						c-44.09,12.84-87.87,26.78-131.18,42.09c-21.2,7.5-42.3,15.32-63.25,23.49c-18.16,7.09-36.53,14.13-53.38,24.07
						c-15.59,9.2-29.91,21.02-39.48,36.63c-10.49,17.11-14.23,37.17-14.23,57.04c0,21.13,3.71,42.06,6.99,62.86
						c3.79,24.04,7.58,48.07,11.37,72.11c7.44,47.2,14.03,94.62,22.46,141.65c3.47,19.32,8.23,38.83,18.05,55.98
						c8.95,15.64,21.57,25.72,39.07,30.12c16.04,4.04,32.91,3.5,49.27,2.22C898.11,815.6,901.09,807.88,896.68,808.23L896.68,808.23
						z"/>
				</g>
			</g>
			<g>
				<g>
					<path d="M893.93,771.01c0.33,30.55,0.38,61.1,0.42,91.65c0.04,32.68,0.04,65.36,0.15,98.04c0.06,16.47,0.15,32.94,0.33,49.41
						c0.02,1.66,1.4,2.97,3.05,1.93c40.37-25.38,79.98-51.97,118.7-79.82c39.89-28.7,78.87-58.73,116.26-90.67
						c19.96-17.06,39.44-34.68,58.21-53.05c1.17-1.14,2.36-3.87,1.28-5.4c-1.18-1.69-3.24-0.14-4.24,0.84
						c-33.59,32.85-69.51,63.28-106.42,92.29c-38.41,30.19-78.03,58.83-118.47,86.23c-21.48,14.55-43.21,28.73-65.17,42.54
						c1.02,0.64,2.03,1.29,3.05,1.93c-0.33-30.55-0.38-61.1-0.42-91.65c-0.04-32.68-0.04-65.36-0.15-98.04
						c-0.06-16.47-0.15-32.94-0.33-49.41c-0.02-1.86-1.39-2.68-3.05-1.93C895.39,766.69,893.91,769.1,893.93,771.01L893.93,771.01z"
						/>
				</g>
			</g>
			<g>
				<g>
					<path d="M1754.64,695.7c-3.41,35.49-17.97,69.75-40.91,96.96c-23.62,28-55.87,47.66-91.26,56.59
						c-20.19,5.1-41.12,6.7-61.83,4.58c-3.29-0.33-6.94,7.31-3.23,7.69c38.41,3.92,77.83-4.72,111.26-24.1
						c33.07-19.17,59.32-48.63,75.48-83.3c9.04-19.41,14.7-40.29,16.75-61.6c0.18-1.9-1.53-2.62-3.05-1.93
						C1755.95,691.44,1754.82,693.73,1754.64,695.7L1754.64,695.7z"/>
				</g>
			</g>
		</g>
		<g id="Ebene_4">
			<g>
				<g>
					<path d="M1059.95,358.68c-4.57,54.55-9.14,109.11-13.71,163.67s-9.14,109.11-13.71,163.67c-2.56,30.58-5.12,61.16-7.68,91.75
						c-0.34,4.07,16.62,5.12,17,0.67c4.57-54.55,9.14-109.11,13.71-163.67c4.57-54.55,9.14-109.11,13.71-163.67
						c2.56-30.58,5.12-61.16,7.68-91.75C1077.28,355.27,1060.32,354.23,1059.95,358.68L1059.95,358.68z"/>
				</g>
			</g>
			<g>
				<g>
					<path d="M1284.81,367.55c-5.95,54.23-11.89,108.45-17.83,162.68s-11.89,108.45-17.83,162.68c-3.34,30.5-6.69,61.01-10.03,91.51
						c-0.43,3.97,16.5,5.2,17,0.67c5.95-54.23,11.89-108.45,17.83-162.68c5.95-54.23,11.89-108.45,17.83-162.68
						c3.34-30.5,6.69-61.01,10.03-91.51C1302.24,364.26,1285.31,363.03,1284.81,367.55L1284.81,367.55z"/>
				</g>
			</g>
			<g>
				<g>
					<path d="M1061.02,571.46c52.88-0.43,105.84,1.83,158.43,7c14.93,1.47,29.84,3.16,44.73,5.06c2.13,0.27,4.43,0.32,6.56-0.05
						c0.91-0.16,3.39-0.61,3.97-1.63c1.56-2.7-4.4-3.73-5.79-3.91c-53.77-6.88-107.9-10.97-162.1-12.14
						c-15.19-0.33-30.38-0.43-45.57-0.3c-1.88,0.02-8.35-0.28-8.61,2.65C1052.39,570.86,1059.68,571.47,1061.02,571.46
						L1061.02,571.46z"/>
				</g>
			</g>
			<g>
				<g>
					<path d="M1385.69,579.87c-5.58,56.42-11.16,112.84-16.73,169.25c-1.56,15.8-3.13,31.59-4.69,47.39
						c-0.4,4.01,16.55,5.17,17,0.67c5.58-56.42,11.16-112.84,16.73-169.25c1.56-15.8,3.13-31.59,4.69-47.39
						C1403.08,576.53,1386.14,575.37,1385.69,579.87L1385.69,579.87z"/>
				</g>
			</g>
			<g>
				<g>
					<path d="M1411.59,470.31c-7.42-8.32-22.35-8.8-32.03-4.7c-8.52,3.61-13.75,11.97-16.41,20.55c-2.48,7.97-2.55,16.71,0.68,24.47
						c3.54,8.5,11.56,13.66,20.3,15.57c19.65,4.3,40.69-3.15,51.04-20.88c8.56-14.69,9.35-33.52,0.18-48.14
						c-11.85-18.89-35.43-26.14-56.63-23.48c-2,0.25-6.03,1.78-3.21,3.96c2.88,2.24,8.24,1.95,11.58,1.52
						c-1.08,0.13,0.85-0.06,1.16-0.09c1.62-0.14-0.68-0.09,0.94-0.03c0.4,0.02,0.8,0.03,1.2,0.05c1.38,0.04-1.24-0.16,0.14-0.01
						c0.93,0.1,1.85,0.22,2.77,0.39c-1.09-0.2,0.81,0.2,1.11,0.28c0.78,0.19,1.56,0.39,2.32,0.64c0.75,0.24,3.04,1.16,4.29,1.74
						c5.87,2.72,11.1,6.99,15.11,12.05c8.69,10.96,10.84,25.36,7.03,38.73c-3.56,12.48-13.22,24.76-26.01,27.94
						c-0.39,0.1-1.36,0.27-1.96,0.37c-0.89,0.15-0.18,0.06,0.01,0.03c-0.4,0.05-0.81,0.05-1.22,0.09c-1,0.08,0.06,0.03,0.24,0.03
						c-0.4,0-0.8-0.02-1.21-0.04c-1.02-0.04,0.11,0.03,0.25,0.03c-0.27-0.03-0.52-0.07-0.79-0.1c0.58,0.13,0.6,0.13,0.07,0.01
						c-2.13-0.48-4.85-1.85-6.91-3.73c-5.02-4.6-7.12-11.44-7.28-18.09c-0.19-7.73,1.98-15.62,6.29-22.04
						c2.16-3.23,5.06-6.49,8.77-7.93c0.65-0.25,0.76-0.08,1.08-0.26c0.61-0.33,0.3,0.05-0.07,0.03c-0.32-0.01-1.29-0.12-1.63-0.03
						c-0.63,0.17-0.38-0.21,0.28,0.26c0.78,0.57,1.44,1.02,2.09,1.75c2.3,2.59,7.19,2.69,10.37,2.5
						C1406.47,473.7,1413.69,472.66,1411.59,470.31L1411.59,470.31z"/>
				</g>
			</g>
		</g>
		<g id="Ebene_5">
			<g>
				<path class="st10" d="M1238.48,867.98c-7.24,6.67-14.47,13.33-21.71,20.01c14.1-2.44,28.8,10.14,28.64,24.5
					c-3.78-13.88,4.13-29.97,17.4-35.4c-10.18,3.87-22.94-1.68-27.09-11.79"/>
				<g>
					<path d="M1237.76,864.98c-7.24,6.67-14.47,13.33-21.71,20.01c-1.24,1.14-2.44,2.8-2.41,4.59c0.02,1.37,0.78,2.45,2.26,2.22
						c12.83-1.98,26.28,9.14,26.38,22.28c2.06-1.34,4.12-2.68,6.18-4.01c-3.08-11.99,2.88-24.59,14.28-29.45
						c1.67-0.71,2.96-2.89,3.15-4.63c0.13-1.24-0.45-3.32-2.2-2.7c-9.84,3.52-21.04-1.53-25.2-11.1c-0.81-1.85-3.47,0-4.24,0.84
						c-1.32,1.45-2.08,3.55-1.28,5.4c4.68,10.8,17.96,16.41,28.98,12.48c0.32-2.44,0.63-4.89,0.95-7.33
						c-15.31,6.53-24.69,25.12-20.53,41.35c0.44,1.71,2.13,1.6,3.37,0.83c1.54-0.95,2.82-3.01,2.81-4.85
						c-0.11-15.97-15.07-29.15-30.9-26.72c-0.05,2.27-0.1,4.54-0.15,6.81c7.24-6.67,14.47-13.33,21.71-20.01
						c1.37-1.26,2.91-3.43,2.33-5.43C1241,863.74,1238.98,863.86,1237.76,864.98L1237.76,864.98z"/>
				</g>
			</g>
			<g>
				<path class="st11" d="M1729.1,124.62c-3.89,11.69-12.72,21.65-23.83,26.88c13.92,2.89,25.6,14.61,28.48,28.57
					c-4.69-5.99-5.32-14.89-1.53-21.5c3.79-6.61,11.78-10.52,19.3-9.45c-10.35-4.26-19.02-12.51-23.82-22.66"/>
				<g>
					<path d="M1726.42,124.26c-3.62,10.53-11.07,18.89-21.07,23.72c-1.89,0.91-5.34,6.56-1.7,7.37
						c13.32,2.93,24.12,13.8,27.05,27.16c1.94-1.85,3.87-3.7,5.81-5.55c-3.61-4.84-5.11-11.88-1.93-17.36
						c3.02-5.19,9.65-7.29,15.32-6.62c2.65,0.31,7-6.13,3.88-7.46c-10.26-4.34-18.45-12.11-23.33-22.17
						c-1.56-3.22-6.98,3.23-5.52,6.24c5.02,10.37,13.73,18.68,24.31,23.16c1.29-2.48,2.59-4.97,3.88-7.46
						c-19.58-2.32-34.1,21.85-22.14,37.91c2.41,3.24,6.32-3.24,5.81-5.55c-3.25-14.85-15.14-26.74-29.91-29.99
						c-0.57,2.46-1.13,4.91-1.7,7.37c12.38-5.98,22.11-17.01,26.6-30.04c0.48-1.4,0.91-3.8-1.07-4.2
						C1728.91,120.41,1726.92,122.8,1726.42,124.26L1726.42,124.26z"/>
				</g>
			</g>
			<g>
				<path class="st12" d="M890.9,184.67c1.11,17.18-9.25,34.55-24.88,41.67c15.69-3.24,32.96,7.45,37.12,22.97
					c-5.48-14.64,3.01-32.99,17.7-38.23c-14.34-3.69-26.91-13.78-33.64-27.01"/>
				<g>
					<path d="M887.77,186.26c0.84,15.46-7.65,30-21.67,36.57c-1.67,0.78-2.95,2.84-3.15,4.63c-0.16,1.45,0.43,3.03,2.2,2.7
						c14.86-2.85,30.8,6.97,34.93,21.6c2.03-1.62,4.06-3.24,6.1-4.86c-4.62-12.91,1.65-27.46,14.57-32.28
						c2.16-0.8,5.13-6.45,1.7-7.37c-14-3.73-25.81-13.43-32.5-26.29c-1.67-3.21-7.07,3.27-5.52,6.24
						c7.14,13.74,19.9,23.78,34.79,27.74c0.57-2.46,1.13-4.91,1.7-7.37c-16.64,6.21-26.87,27.3-20.82,44.18
						c1.51,4.21,6.94-1.86,6.1-4.86c-4.71-16.68-22.31-27.62-39.29-24.35c-0.32,2.44-0.63,4.89-0.95,7.33
						c17.41-8.16,29.13-27.48,28.08-46.78C893.75,178.02,887.59,182.97,887.77,186.26L887.77,186.26z"/>
				</g>
			</g>
			<g>
				<path class="st13" d="M1612.99,893.05c-0.57-3.89-1.34-7.91-3.65-11.09c-2.3-3.18-6.56-5.27-10.23-3.88
					c-4.63,1.75-5.97,8.04-4.3,12.71c1.67,4.67,5.39,8.24,8.5,12.1c3.12,3.85,5.82,8.68,4.86,13.55
					c9.02-4.76,17.36-10.81,24.7-17.89c2.26-2.18,4.55-4.72,4.87-7.86c0.56-5.54-5.69-9.79-11.22-9.34
					c-5.53,0.45-10.23,4.02-14.6,7.45"/>
				<g>
					<path d="M1616.04,890.62c-0.95-6.3-2.86-13.49-9.39-16.07c-6.04-2.38-11.78,1.57-14.23,7.12c-2.58,5.86-1.32,11.99,2.24,17.1
						c3.61,5.2,11.6,11.15,10.51,18.31c-0.29,1.93,0.6,4.12,2.93,2.88c6.95-3.71,13.56-8.08,19.62-13.13
						c5.38-4.48,12.65-10.11,13.16-17.73c0.42-6.12-4.78-10.81-10.54-11.54c-7.22-0.91-13.78,4.06-19.11,8.24
						c-1.44,1.13-2.88,3.53-2.33,5.43c0.56,1.91,2.5,1.57,3.77,0.57c3.96-3.1,8.72-7.04,14.09-6.59c3.14,0.27,9.38,3.43,7.67,7.55
						c-0.83,2.02-3.21,3.72-4.77,5.13c-2.08,1.88-4.22,3.67-6.43,5.39c-4.7,3.64-9.7,6.83-14.95,9.62c0.98,0.96,1.95,1.92,2.93,2.88
						c0.84-5.57-0.92-10.47-4.24-14.91c-3.19-4.28-8.01-8.17-9.38-13.54c-0.34-1.33-0.69-3.64,0.18-4.86
						c1.07-1.51,3.68-1.02,5.1-0.4c5.22,2.25,6.34,8.37,7.11,13.4c0.31,2.03,2.65,1.41,3.77,0.57
						C1615.32,894.85,1616.34,892.62,1616.04,890.62L1616.04,890.62z"/>
				</g>
			</g>
			<g>
				<path class="st14" d="M707.58,642.68c0.21-5.12-3.36-10.17-8.25-11.65c-4.89-1.48-10.65,0.74-13.3,5.13
					c-5.21,8.62,2.25,19.43,10.27,25.48c8.02,6.05,17.96,11.93,19.54,21.89c5.21-12.77,10.09-25.68,14.63-38.71
					c2.44-7.01,3.93-16.58-2.48-20.27c-4.34-2.5-10.16-0.33-13.35,3.54c-3.19,3.87-4.39,8.98-5.42,13.9"/>
				<g>
					<path d="M710.71,641.1c0.03-8.83-7.59-16.2-16.54-13.97c-8.59,2.14-14.11,11.12-12.76,19.78c1.38,8.78,8.42,15.29,15.21,20.25
						c6.66,4.87,14.59,10.06,16.17,18.79c0.69,3.76,5.12-0.55,5.73-2.07c4.07-10.01,7.96-20.11,11.64-30.28
						c2.77-7.66,6.55-16.01,5.28-24.37c-1.19-7.82-8.46-11.48-15.61-8.44c-8.71,3.7-11.82,13.29-13.63,21.82
						c-0.34,1.61,0.2,3.43,2.14,3.17c1.91-0.26,3.52-2.73,3.88-4.45c1.2-5.69,2.79-13.85,10.09-14c6.37-0.13,7.64,6.6,6.86,11.58
						c-1.09,6.94-4.27,13.73-6.69,20.28c-2.98,8.04-6.1,16.03-9.33,23.97c1.91-0.69,3.82-1.38,5.73-2.07
						c-2.65-14.52-18.49-18.82-26.68-29.26c-3.12-3.98-8.11-12.76-1.85-16.28c6.27-3.54,14.1,1.75,14.08,8.72
						c0,1.86,1.4,2.67,3.05,1.93C709.26,645.41,710.71,643.02,710.71,641.1L710.71,641.1z"/>
				</g>
			</g>
			<g>
				<path class="st15" d="M1515.85,124.18c4.33-4.02,1.02-12.46-4.79-13.51c-5.8-1.05-11.5,4.05-12.48,9.89
					c-0.98,5.84,1.87,11.79,6.03,15.99s9.51,6.95,14.77,9.63c3.16-6.84,10.64-10.37,16.02-15.63c5.38-5.26,7.96-15.61,1.51-19.47
					c-3.91-2.34-9.2-0.68-12.4,2.57c-3.2,3.25-4.78,7.72-6.28,12.04"/>
				<g>
					<path d="M1517.33,126.45c4.61-4.77,4.9-12.68-0.08-17.3c-5.39-5-13.29-1.6-17.43,3.31c-5.18,6.16-5.76,14.36-2.17,21.44
						c3.95,7.79,12.03,12.08,19.46,15.88c2.17,1.11,4.16-1.65,4.95-3.25c1.47-2.97,4.32-5.09,6.86-7.07
						c2.9-2.26,5.91-4.43,8.43-7.12c4.3-4.59,7.39-11.71,6.27-18.09c-1.21-6.91-8.13-9.52-14.27-7.16
						c-7.72,2.97-11.27,10.93-13.81,18.24c-0.49,1.4-0.91,3.8,1.07,4.2c1.81,0.37,3.79-2.03,4.3-3.49
						c1.71-4.92,3.66-11.65,9.83-12.18c5.13-0.44,7.7,4.27,6.5,8.78c-1.23,4.64-5.15,7.26-8.75,10.04
						c-4.81,3.71-9.08,7.6-11.81,13.14c1.65-1.09,3.3-2.17,4.95-3.25c-4.92-2.52-10.02-5.09-14.06-8.95
						c-3.52-3.36-6.72-8.63-5.99-13.7c0.57-3.98,5.01-6.57,8.76-5.14c1.67,0.64,3.03,2.14,3.76,3.75c0.37,0.82,0.4,1.63,0.58,2.49
						c0.04,0.2-0.01,0.47-0.06,0.68c-0.03,0.11,0.81-0.9-0.25,0.2c-1.14,1.18-2.37,3.84-1.28,5.4
						C1514.25,128.96,1516.35,127.46,1517.33,126.45L1517.33,126.45z"/>
				</g>
			</g>
		</g>
		<g id="Ebene_7">
			<g>
				<path class="st16" d="M1523.97,854.97c-4.66,7.61-8.17,14.7-12.83,22.31c-11.56,0.71-16.62,0.51-25.76,1.9
					c8.61,6.32,15.14,7.79,23.75,14.12c-1.55,10.26-2.38,16.49-3.92,26.75c6.5-6.13,12.61-9.41,19.12-15.54
					c10.67,7.42,12.51,8.64,21.4,14.34c-2.42-9.16-4.1-15.21-6.52-24.37c6.74-5.27,11.13-8.59,17.87-13.86
					c-9.7-0.56-16-1.26-25.71-1.82c-2.2-7.88-5.21-16.66-7.41-24.55"/>
				<g>
					<path d="M1521.81,853.6c-4.46,7.33-8.37,14.97-12.83,22.31c1.01-0.82,2.02-1.63,3.03-2.44c-8.6,0.52-17.22,0.63-25.75,1.9
						c-2.46,0.37-5.74,5.54-3.14,7.42c7.51,5.42,16.24,8.7,23.75,14.12c-0.24-0.99-0.5-1.98-0.74-2.97
						c-1.34,8.91-2.58,17.84-3.92,26.75c-0.37,2.47,1.48,4.43,3.73,2.36c6.04-5.6,13.08-9.94,19.12-15.54
						c-1,0.2-1.99,0.41-2.99,0.61c7.05,4.91,14.17,9.7,21.4,14.34c2.8,1.8,5.9-3.81,5.31-6.04c-2.15-8.13-4.37-16.24-6.52-24.37
						c-0.77,1.81-1.55,3.62-2.33,5.43c5.94-4.64,11.92-9.22,17.87-13.86c1.25-0.98,4.32-6.64,0.9-6.85
						c-8.58-0.5-17.13-1.32-25.71-1.82c0.47,0.47,0.96,0.94,1.43,1.42c-2.32-8.23-5.09-16.32-7.41-24.55
						c-1.18-4.18-6.97,1.77-6.1,4.86c2.32,8.23,5.09,16.32,7.41,24.55c0.18,0.65,0.68,1.37,1.43,1.42
						c8.58,0.5,17.13,1.32,25.71,1.82c0.3-2.28,0.6-4.56,0.9-6.85c-5.94,4.64-11.92,9.22-17.87,13.86
						c-1.46,1.14-2.84,3.52-2.33,5.43c2.15,8.13,4.37,16.24,6.52,24.37c1.77-2.02,3.54-4.03,5.31-6.04
						c-7.23-4.64-14.34-9.43-21.4-14.34c-0.89-0.62-2.29-0.03-2.99,0.61c-6.04,5.6-13.08,9.94-19.12,15.54
						c1.24,0.79,2.49,1.57,3.73,2.36c1.34-8.91,2.58-17.84,3.92-26.75c0.16-1.07,0.25-2.26-0.74-2.97
						c-7.51-5.42-16.24-8.7-23.75-14.12c-1.04,2.47-2.09,4.95-3.14,7.42c8-1.2,16.06-1.34,24.12-1.81
						c5.08-0.29,7.32-6.98,9.53-10.93c2.61-4.66,5.18-9.35,7.95-13.91c0.77-1.26,1.75-3.94,0.11-4.98
						C1524.62,850.34,1522.55,852.38,1521.81,853.6L1521.81,853.6z"/>
				</g>
			</g>
			<g>
				<path class="st16" d="M824.45,863.47c-4.66,7.61-8.17,14.7-12.83,22.31c-11.56,0.71-16.62,0.51-25.75,1.9
					c8.61,6.32,15.14,7.79,23.75,14.12c-1.55,10.26-2.38,16.49-3.92,26.75c6.5-6.13,12.61-9.41,19.12-15.54
					c10.67,7.42,12.51,8.64,21.4,14.34c-2.42-9.16-4.1-15.21-6.52-24.37c6.74-5.27,11.13-8.59,17.87-13.86
					c-9.7-0.56-16-1.26-25.71-1.82c-2.2-7.88-5.21-16.66-7.41-24.55"/>
				<g>
					<path d="M822.3,862.11c-4.46,7.33-8.37,14.97-12.83,22.31c1.01-0.82,2.02-1.63,3.03-2.44c-8.6,0.52-17.22,0.63-25.75,1.9
						c-2.46,0.37-5.74,5.54-3.14,7.42c7.51,5.42,16.24,8.7,23.75,14.12c-0.24-0.99-0.5-1.98-0.74-2.97
						c-1.34,8.91-2.58,17.84-3.92,26.75c-0.37,2.47,1.48,4.43,3.73,2.36c6.04-5.6,13.08-9.94,19.12-15.54
						c-1,0.2-1.99,0.41-2.99,0.61c7.05,4.91,14.17,9.7,21.4,14.34c2.8,1.8,5.9-3.81,5.31-6.04c-2.15-8.13-4.37-16.24-6.52-24.37
						c-0.77,1.81-1.55,3.62-2.33,5.43c5.94-4.64,11.92-9.22,17.87-13.86c1.25-0.98,4.32-6.64,0.9-6.85
						c-8.58-0.5-17.13-1.32-25.71-1.82c0.48,0.47,0.96,0.94,1.43,1.42c-2.32-8.23-5.09-16.32-7.41-24.55
						c-1.18-4.18-6.97,1.77-6.1,4.86c2.32,8.23,5.09,16.32,7.41,24.55c0.18,0.65,0.68,1.37,1.43,1.42
						c8.58,0.5,17.13,1.32,25.71,1.82c0.3-2.28,0.6-4.56,0.9-6.85c-5.94,4.64-11.92,9.22-17.87,13.86
						c-1.46,1.14-2.84,3.52-2.33,5.43c2.15,8.13,4.37,16.24,6.52,24.37c1.77-2.02,3.54-4.03,5.31-6.04
						c-7.23-4.64-14.34-9.43-21.4-14.34c-0.89-0.62-2.29-0.03-2.99,0.61c-6.04,5.6-13.08,9.94-19.12,15.54
						c1.24,0.79,2.49,1.57,3.73,2.36c1.34-8.91,2.58-17.84,3.92-26.75c0.16-1.07,0.25-2.26-0.74-2.97
						c-7.51-5.42-16.24-8.7-23.75-14.12c-1.04,2.47-2.09,4.95-3.14,7.42c8-1.2,16.06-1.34,24.12-1.81
						c5.08-0.29,7.32-6.98,9.53-10.93c2.61-4.66,5.18-9.35,7.95-13.91c0.77-1.26,1.75-3.94,0.11-4.98
						C825.1,858.83,823.04,860.88,822.3,862.11L822.3,862.11z"/>
				</g>
			</g>
			<g>
				<path class="st16" d="M1750.52,217.63c-4.66,7.61-8.17,14.7-12.83,22.31c-11.56,0.71-16.62,0.51-25.76,1.9
					c8.61,6.32,15.14,7.79,23.75,14.12c-1.55,10.26-2.38,16.49-3.92,26.75c6.5-6.13,12.61-9.41,19.12-15.54
					c10.67,7.42,12.51,8.64,21.4,14.34c-2.42-9.16-4.1-15.21-6.52-24.37c6.74-5.27,11.13-8.59,17.87-13.86
					c-9.7-0.56-16-1.26-25.71-1.82c-2.2-7.88-5.21-16.66-7.41-24.55"/>
				<g>
					<path d="M1748.37,216.26c-4.46,7.33-8.37,14.97-12.83,22.31c1.01-0.82,2.02-1.63,3.03-2.44c-8.6,0.52-17.22,0.63-25.75,1.9
						c-2.46,0.37-5.74,5.54-3.14,7.42c7.51,5.42,16.24,8.7,23.75,14.12c-0.24-0.99-0.5-1.98-0.74-2.97
						c-1.34,8.91-2.58,17.84-3.92,26.75c-0.37,2.47,1.48,4.43,3.73,2.36c6.04-5.6,13.08-9.94,19.12-15.54
						c-1,0.2-1.99,0.41-2.99,0.61c7.05,4.91,14.17,9.7,21.4,14.34c2.8,1.8,5.9-3.81,5.31-6.04c-2.15-8.13-4.37-16.24-6.52-24.37
						c-0.77,1.81-1.55,3.62-2.33,5.43c5.94-4.64,11.92-9.22,17.87-13.86c1.25-0.98,4.32-6.64,0.9-6.85
						c-8.58-0.5-17.13-1.32-25.71-1.82c0.48,0.47,0.96,0.94,1.43,1.42c-2.32-8.23-5.09-16.32-7.41-24.55
						c-1.18-4.18-6.97,1.77-6.1,4.86c2.32,8.23,5.09,16.32,7.41,24.55c0.18,0.65,0.68,1.37,1.43,1.42
						c8.58,0.5,17.13,1.32,25.71,1.82c0.3-2.28,0.6-4.56,0.9-6.85c-5.94,4.64-11.92,9.22-17.87,13.86
						c-1.46,1.14-2.84,3.52-2.33,5.43c2.15,8.13,4.37,16.24,6.52,24.37c1.77-2.02,3.54-4.03,5.31-6.04
						c-7.23-4.64-14.34-9.43-21.4-14.34c-0.89-0.62-2.29-0.03-2.99,0.61c-6.04,5.6-13.08,9.94-19.12,15.54
						c1.24,0.79,2.49,1.57,3.73,2.36c1.34-8.91,2.58-17.84,3.92-26.75c0.16-1.07,0.25-2.26-0.74-2.97
						c-7.51-5.42-16.24-8.7-23.75-14.12c-1.04,2.47-2.09,4.95-3.14,7.42c8-1.2,16.06-1.34,24.12-1.81
						c5.08-0.29,7.32-6.98,9.53-10.93c2.61-4.66,5.18-9.34,7.95-13.91c0.77-1.26,1.75-3.94,0.11-4.98
						C1751.17,213,1749.11,215.04,1748.37,216.26L1748.37,216.26z"/>
				</g>
			</g>
			<g>
				<path class="st16" d="M1094.81,169.39c-4.66,7.61-8.17,14.7-12.83,22.31c-11.56,0.71-16.62,0.51-25.75,1.9
					c8.61,6.32,15.14,7.79,23.75,14.12c-1.55,10.26-2.38,16.49-3.92,26.75c6.5-6.13,12.61-9.41,19.12-15.54
					c10.67,7.42,12.51,8.64,21.4,14.34c-2.42-9.16-4.1-15.21-6.52-24.37c6.74-5.27,11.13-8.59,17.87-13.86
					c-9.7-0.56-16-1.26-25.71-1.82c-2.2-7.88-5.21-16.66-7.41-24.55"/>
				<g>
					<path d="M1092.65,168.02c-4.46,7.33-8.37,14.97-12.83,22.31c1.01-0.82,2.02-1.63,3.03-2.44c-8.6,0.52-17.22,0.63-25.76,1.9
						c-2.46,0.37-5.74,5.54-3.14,7.42c7.51,5.42,16.24,8.7,23.75,14.12c-0.24-0.99-0.5-1.98-0.74-2.97
						c-1.34,8.91-2.58,17.84-3.92,26.75c-0.37,2.47,1.48,4.43,3.73,2.36c6.04-5.6,13.08-9.94,19.12-15.54
						c-1,0.2-1.99,0.41-2.99,0.61c7.05,4.91,14.17,9.7,21.4,14.34c2.8,1.8,5.9-3.81,5.31-6.04c-2.15-8.13-4.37-16.24-6.52-24.37
						c-0.77,1.81-1.55,3.62-2.33,5.43c5.94-4.64,11.92-9.22,17.87-13.86c1.25-0.98,4.32-6.64,0.9-6.85
						c-8.58-0.5-17.13-1.32-25.71-1.82c0.47,0.47,0.96,0.94,1.43,1.42c-2.32-8.23-5.09-16.32-7.41-24.55
						c-1.18-4.18-6.97,1.77-6.1,4.86c2.32,8.23,5.09,16.32,7.41,24.55c0.18,0.65,0.68,1.37,1.43,1.42
						c8.58,0.5,17.13,1.32,25.71,1.82c0.3-2.28,0.6-4.56,0.9-6.85c-5.94,4.64-11.92,9.22-17.87,13.86
						c-1.46,1.14-2.84,3.52-2.33,5.43c2.15,8.13,4.37,16.24,6.52,24.37c1.77-2.02,3.54-4.03,5.31-6.04
						c-7.23-4.64-14.34-9.43-21.4-14.34c-0.89-0.62-2.29-0.03-2.99,0.61c-6.04,5.6-13.08,9.94-19.12,15.54
						c1.24,0.79,2.49,1.57,3.73,2.36c1.34-8.91,2.58-17.84,3.92-26.75c0.16-1.07,0.25-2.26-0.74-2.97
						c-7.51-5.42-16.24-8.7-23.75-14.12c-1.04,2.47-2.09,4.95-3.14,7.42c8-1.2,16.06-1.34,24.12-1.81
						c5.08-0.29,7.32-6.98,9.53-10.93c2.61-4.66,5.18-9.34,7.95-13.91c0.77-1.26,1.75-3.94,0.11-4.98
						C1095.46,164.75,1093.39,166.8,1092.65,168.02L1092.65,168.02z"/>
				</g>
			</g>
		</g>
		<g id="Ebene_9_1_">
			<g>
				<g>
					<path d="M783.24,302.11c-2.28-6.15-9.49-8.24-15.18-5.33c-6.8,3.47-9.95,12.23-8.5,19.46c1.36,6.77,7.22,12.17,13.92,13.42
						c6.84,1.28,13.29-2.48,16.67-8.38c3.64-6.36,4.11-14.72-1.53-20.03c-1.74-1.64-4.49,2.15-4.95,3.25
						c-3.18,7.57,1.6,17.42,10.42,17.57c8.65,0.15,15.72-8.08,17.33-16.08c3.72-18.42-15.14-32.36-31.46-33.62
						c-16.82-1.3-32.34,8.22-38.73,23.93c-6.11,15.01-3.66,33.75,9.04,44.57c13.86,11.79,35.97,11.06,49.51-0.79
						c1.4-1.22,2.9-3.46,2.33-5.43c-0.54-1.84-2.53-1.65-3.77-0.57c-9.61,8.41-24.14,9.73-35.62,4.55
						c-11.92-5.37-18.86-17.24-18.47-30.26c0.37-12.61,7.8-23.59,20.13-27.07c11.98-3.38,26.33-0.26,34.79,9.25
						c4.62,5.19,9.96,15.6,3.64,21.54c-2.56,2.41-6.35,2.98-9.43,1.26c-2.5-1.4-5.66-5.02-4.36-8.12c-1.65,1.09-3.3,2.17-4.95,3.25
						c2.93,2.76,3.61,8.15,0.92,11.33c-3.41,4.04-10,2.41-13.73-0.19c-4.08-2.83-7.67-9.06-5.08-14.04
						c2.16-4.15,9.48-2.59,10.96,1.39C778.68,311.11,784.36,305.12,783.24,302.11L783.24,302.11z"/>
				</g>
			</g>
			<g>
				<g>
					<path d="M1753.43,561.33c3.31,0.13,6.86-7.55,3.23-7.69C1753.35,553.51,1749.8,561.19,1753.43,561.33L1753.43,561.33z"/>
				</g>
			</g>
			<g>
				<g>
					<path d="M1751.58,562.76c-2.04,12.41-4.09,24.83-6.13,37.24c-0.91,5.51,5.42,2.37,6.02-1.29c2.04-12.41,4.09-24.83,6.13-37.24
						C1758.51,555.96,1752.18,559.11,1751.58,562.76L1751.58,562.76z"/>
				</g>
			</g>
			<g>
				<g>
					<path d="M1765.45,563.29c-2.11,12.92-4.21,25.85-6.32,38.77c-0.9,5.51,5.42,2.37,6.02-1.29c2.11-12.92,4.21-25.85,6.32-38.77
						C1772.37,556.5,1766.05,559.64,1765.45,563.29L1765.45,563.29z"/>
				</g>
			</g>
			<g>
				<g>
					<path d="M1749.85,572.29c8.72,2.43,17.43,4.86,26.15,7.28c3.11,0.87,6.99-6.64,3.23-7.69c-8.72-2.43-17.43-4.86-26.15-7.28
						C1749.97,563.74,1746.09,571.25,1749.85,572.29L1749.85,572.29z"/>
				</g>
			</g>
			<g>
				<g>
					<path d="M1745.64,587.21c7.41,5.27,16.03,8.51,25.06,9.44c3.29,0.34,6.94-7.31,3.23-7.69c-8.65-0.89-16.66-3.92-23.75-8.97
						C1747.39,578,1742.75,585.15,1745.64,587.21L1745.64,587.21z"/>
				</g>
			</g>
		</g>
	</g>
</g>
</svg>
