<?xml version="1.0" encoding="utf-8"?>
<!-- Generator: Adobe Adobe Illustrator 24.2.0, SVG Export Plug-In . SVG Version: 6.00 Build 0)  -->
<svg version="1.1" xmlns="http://www.w3.org/2000/svg" xmlns:xlink="http://www.w3.org/1999/xlink" x="0px" y="0px"
	 viewBox="0 0 2000 2000" style="enable-background:new 0 0 2000 2000;" xml:space="preserve">
<style type="text/css">
	.st0{fill:#F7EBF1;}
	.st1{fill:#F7EBF2;}
	.st2{fill:#F0C1A1;}
	.st3{fill:#CA354F;}
	.st4{fill:#FFFFFF;stroke:#FFFFFF;stroke-width:0.8979;stroke-miterlimit:10;}
	.st5{opacity:0.3098;}
	.st6{opacity:0.102;}
	.st7{opacity:0.1608;}
	.st8{fill:#F4F5E7;}
	.st9{fill:#F3C057;}
	.st10{fill:#7F8D9C;}
	.st11{fill:#CA334D;}
	.st12{fill:#CA344E;}
	.st13{opacity:0.149;}
	.st14{fill:#FFFFFF;}
</style>
<g id="Ebene_14">
	<g>
		<path class="st0" d="M665.96,1349.01c-76.84,47.67-173.57,122.51-173.57,212.94c133.09,27.54,278.91,29.54,414.26,23.66
			c203.31-8.83,406.46-21.72,609.34-38.67c-22.11-53.43-51.9-103.06-87.94-146.51c-20.24-24.4-45.33-48.25-75.46-49.31
			c-30.89-1.08-57.45,21.83-82.83,41.1c-89.3,67.8-199.43,102.18-308.03,96.16c-108.59-6.02-214.98-52.41-297.54-129.74"/>
		<g>
			<path class="st1" d="M665.86,1343.63c-33.36,20.73-65.8,43.38-94.91,69.83c-28.64,26.02-54.82,56.2-70.41,91.97
				c-8.14,18.67-12.75,38.75-12.86,59.15c-0.01,1.67,0.79,3.01,2.46,3.36c62.87,12.95,126.82,20.08,190.87,23.59
				c64.41,3.53,128.97,3.42,193.42,1.23c67.46-2.28,134.9-5.93,202.29-9.62c68.65-3.76,137.27-7.98,205.86-12.66
				c68.6-4.68,137.17-9.83,205.7-15.44c8.48-0.69,16.96-1.4,25.45-2.1c3.81-0.32,8.44-5.86,6.78-9.87
				c-13.38-32.19-29.43-63.25-48.26-92.6c-18.13-28.25-38.45-56.98-63.43-79.63c-11.42-10.36-24.38-19.11-39.35-23.34
				c-14.82-4.18-30.28-2.37-44.45,3.3c-14.97,5.99-28.22,15.36-41.02,25.02c-13.52,10.2-26.83,20.58-41,29.89
				c-56.53,37.16-120.82,62.16-187.72,72.33c-64.97,9.88-131.62,5-194.62-13.61c-63.36-18.72-122.63-51.2-173.18-93.66
				c-6.56-5.51-12.97-11.19-19.24-17.04c-4.4-4.11-11.69,6.51-8.1,9.86c48.07,44.87,104.55,80.33,166.35,102.98
				c61.06,22.38,126.41,32.12,191.31,27.2c66.44-5.04,131.42-24.46,190.01-56.15c14.93-8.07,29.43-16.94,43.42-26.54
				c13.75-9.44,26.71-19.88,40.15-29.75c12.92-9.49,26.92-18.62,42.68-22.45c15.26-3.71,30.62-1.13,44.42,6.13
				c14.39,7.56,26.46,18.85,37.27,30.83c11.38,12.62,21.82,26.17,31.74,39.97c20.39,28.37,38.12,58.65,53.02,90.25
				c3.85,8.18,7.48,16.46,10.95,24.8c2.26-3.29,4.52-6.58,6.78-9.87c-68.52,5.72-137.09,10.99-205.68,15.79
				c-68.58,4.8-137.2,9.14-205.84,13.01c-68.09,3.84-136.2,7.33-204.34,10.15c-64.21,2.66-128.55,3.43-192.78,0.8
				c-64.31-2.63-128.6-8.63-191.94-20.25c-7.69-1.41-15.36-2.91-23.02-4.49c0.82,1.12,1.64,2.24,2.46,3.36
				c0.19-34.93,15.67-67.08,36.66-94.29c22.72-29.44,51.2-54.1,81-76.12c16.58-12.26,33.78-23.66,51.29-34.54
				c2.59-1.61,4.78-4.84,4.62-8C670.53,1343.75,668.36,1342.08,665.86,1343.63L665.86,1343.63z"/>
		</g>
	</g>
</g>
<g id="Ebene_27">
	<g>
		<path class="st2" d="M941.53,1120.6c6.06,58.98,5.06,95.31-26.77,126.83c-31.83,31.52-75.06,44.88-117.02,54.93
			c-41.96,10.05-85.37,18.2-122.33,42.13c91.65,85.94,212.28,134.11,333.04,132.98c120.76-1.13,240.62-51.55,330.91-139.19
			c-36.81-22.59-79.23-30.95-120.33-41.47c-41.1-10.52-93.06-8.94-124.46-39.77c-31.4-30.83-39.1-98.44-20.86-140.04
			c-42.39,9.98-87.26,7.03-128.24-8.44"/>
		<g>
			<path class="st2" d="M936.82,1123.21c2.4,23.59,4.95,48.08,1.05,71.65c-3.25,19.69-12.28,36.61-26.78,50.32
				c-40.01,37.86-96.21,47.03-147.66,59.69c-30.71,7.56-61.28,17.05-88.11,34.24c-2.29,1.46-6.97,7.5-3.96,10.31
				c71.13,66.48,160.89,112.24,257.17,128.01c94.4,15.47,191.68-0.05,277.84-41.13c49.46-23.58,94.91-55.4,134.27-93.49
				c2.04-1.97,5.71-7.94,1.98-10.2c-26.4-16.03-55.99-25.2-85.71-32.85c-14.35-3.7-28.73-7.56-43.2-10.71
				c-12.48-2.72-25.13-4.54-37.72-6.64c-25.2-4.2-51.8-9.39-72.24-25.79c-18.37-14.73-27.78-37.95-32.2-60.49
				c-5.06-25.82-4.21-54.35,6.3-78.75c1.04-2.42,0.76-7.13-3.03-6.26c-41.83,9.67-85.85,6.77-126.09-8.23
				c-5.15-1.92-11.28,9.54-6.53,11.31c41.72,15.55,86.99,18.69,130.4,8.66c-1.01-2.09-2.02-4.17-3.03-6.26
				c-9.75,22.64-12,48.55-9.28,72.87c2.63,23.55,9.73,48.14,25,66.75c16.7,20.35,42.1,29.31,67.08,34.59
				c13.39,2.83,26.96,4.73,40.44,7.04c13.82,2.37,27.32,5.79,40.92,9.16c35.33,8.75,70.95,17.83,102.36,36.9
				c0.66-3.4,1.32-6.8,1.98-10.2c-68.57,66.34-155.73,112.71-249.7,130.18c-92.59,17.21-188.89,4.15-274.53-34.63
				c-49.29-22.32-94.86-52.78-134.39-89.72c-1.32,3.44-2.64,6.88-3.96,10.31c49.9-31.96,110.45-35.22,165.34-54.13
				c45.77-15.77,92.38-44.93,104.5-94.89c6.53-26.94,3.66-55.64,0.89-82.87C945.45,1110.27,936.31,1118.18,936.82,1123.21
				L936.82,1123.21z"/>
		</g>
	</g>
	<g>
		<g>
			<path class="st2" d="M1158.53,1017.98c5.09,0,10.07-11.94,4.49-11.94C1157.94,1006.04,1152.95,1017.98,1158.53,1017.98
				L1158.53,1017.98z"/>
		</g>
	</g>
</g>
<g id="Ebene_23">
	<g>
		<g>
			<path d="M934.87,1123.36c0.91,22.56,1.57,45.37-1.43,67.81c-2.75,20.54-8.56,41.4-22.01,57.64
				c-28.01,33.82-77.39,35.5-117.13,44.07c-91.57,19.75-178.58,62.61-238.91,135.87c-32.22,39.13-55.73,85.08-67.64,134.39
				c-0.61,2.52,0.64,5.28,3.52,4.78c3.1-0.55,5.11-4.44,5.76-7.13c21.53-89.11,83.68-163.36,162.94-207.71
				c42.64-23.86,89.37-39.46,137.11-49.34c41.06-8.49,86.73-12.03,116.69-45.11c33.84-37.37,32.54-93.44,30.65-140.56
				c-0.12-2.89-2.34-4.05-4.87-2.81C936.86,1116.56,934.75,1120.39,934.87,1123.36L934.87,1123.36z"/>
		</g>
	</g>
	<g>
		<g>
			<path d="M1067.38,1123.52c-1.73,41.13-3.27,89.07,22.47,123.92c25.48,34.5,69.73,40.68,109.05,47.63
				c93.01,16.43,184.66,53.95,248.98,125.33c33.38,37.05,58.31,81.38,70.55,129.84c0.76,3,4.05,2.08,5.81,0.65
				c2.28-1.84,3.99-5.49,3.25-8.44c-21.81-86.32-82.61-158.17-158.96-202.23c-41.97-24.22-88.18-40.49-135.35-51.12
				c-21.54-4.86-43.45-7.75-65.01-12.51c-19.97-4.42-39.96-11.05-56.07-24.09c-39.04-31.63-37.22-88.8-35.31-134.19
				c0.12-2.92-2.47-3.91-4.8-2.77C1069.17,1116.91,1067.51,1120.53,1067.38,1123.52L1067.38,1123.52z"/>
		</g>
	</g>
	<g>
		<g>
			<path d="M489.12,1567.61c58.26,24.09,121.98,26.14,184.16,25.71c66.56-0.46,133.09,0.13,199.65,0.36
				c69.37,0.23,138.76-0.05,208.11-1.63c69.29-1.58,138.56-4.47,207.7-9.47c68.5-4.96,136.88-11.96,204.86-21.79
				c8.67-1.25,17.34-2.56,26-3.9c4.82-0.75,8.88-12.78,2.21-11.74c-68.14,10.57-136.7,18.27-205.44,23.73
				c-68.42,5.43-136.99,8.7-205.6,10.59c-68.67,1.9-137.38,2.41-206.07,2.33c-67.06-0.08-134.14-1.46-201.19-0.68
				c-61.97,0.72-125.95,2.19-185.73-16.71c-7.49-2.37-14.87-5.09-22.13-8.1C490.59,1554.21,484.37,1565.64,489.12,1567.61
				L489.12,1567.61z"/>
		</g>
	</g>
	<g>
		<g>
			<path d="M668.24,1356.84c72.91,66.84,164.94,112.38,262.84,127.57c95.94,14.89,194.56-1.42,281.88-43.38
				c50.13-24.09,96.22-56.45,136.18-95.11c2.07-2,4.3-5.49,3.28-8.52c-0.94-2.79-4.04-2.43-5.87-0.66
				c-69.74,67.46-158.24,114.8-253.72,132.98c-94.36,17.96-192.61,5.23-280.23-33.73c-50.49-22.45-97.06-53.25-137.78-90.58
				C671.18,1342.06,664.12,1353.06,668.24,1356.84L668.24,1356.84z"/>
		</g>
	</g>
</g>
<g id="Ebene_15">
	<g>
		<path class="st0" d="M1037.2,273.5c2.41-1.88,4.81-3.75,7.22-5.63c4.1,10.38,16.35,14.95,26.25,11.71
			c9.91-3.24,17.32-12.69,21.25-23.15c3.93-10.45,4.86-21.93,5.52-33.2c0.6-10.18,0.98-20.68-2.13-30.3s-10.52-18.27-19.81-19.28
			c-9.29-1.01-19.15,8.28-17.38,18.29c1.71-6.31-3.99-12.99-10.01-13.07c-6.02-0.08-11.35,4.93-13.84,10.92
			c-2.49,5.99-2.67,12.8-2.45,19.37c0.74,22.02,5.52,43.86,13.96,63.87"/>
		<g>
			<path class="st0" d="M1038.48,278.04c2.41-1.88,4.81-3.75,7.22-5.63c-1.94-0.22-3.87-0.43-5.81-0.65
				c4.98,11.43,17.57,17.54,29.68,13.69c14.08-4.48,23.38-18.51,27.64-31.97c2.56-8.08,3.69-16.42,4.39-24.84
				c0.72-8.63,1.4-17.43,0.72-26.08c-1.05-13.36-6.53-29.54-20.7-34.01c-15.03-4.73-30.04,11.3-28.19,26
				c0.95,7.58,8.54,0.2,9.28-3.78c1.83-9.7-5.58-20.07-16.21-17.47c-11.42,2.8-17.57,15.56-18.94,26.21
				c-1.65,12.79,0.19,26.42,2.42,39.04c2.33,13.17,6.15,26.01,11.28,38.36c2.59,6.23,10.95-3.25,9.06-7.79
				c-7.08-17.02-11.68-35.04-13.24-53.43c-0.67-7.95-2.5-19.51,1.93-26.64c1.71-2.75,4.79-4.73,8.14-4.11
				c3.54,0.65,7.1,4.43,6.4,8.14c3.09-1.26,6.19-2.52,9.28-3.78c-0.72-5.75,3.35-9.66,9.16-9.78c6.15-0.13,11.53,4.5,14.82,9.26
				c8.53,12.33,6.6,29.15,5.51,43.28c-1.02,13.19-3.11,29.35-14.27,38.14c-9.23,7.27-24.15,5.15-29.11-6.24
				c-1.21-2.78-3.68-2.31-5.81-0.65c-2.41,1.88-4.81,3.75-7.22,5.63C1031.47,272.42,1031.74,283.3,1038.48,278.04L1038.48,278.04z"
				/>
		</g>
	</g>
</g>
<g id="Ebene_24">
	<g>
		<path class="st0" d="M813,1285.63c-13.89-5.18-30.84,3.77-35.74,18.89s3.08,33.74,16.85,39.29c13.77,5.55,30.91-2.96,36.15-17.94
			s-2.34-33.81-15.98-39.72"/>
		<g>
			<path d="M816.26,1279.97c-13.43-4.6-27.59,1.04-36.34,11.84c-9.46,11.68-11.41,27.89-5.03,41.47
				c5.99,12.73,18.69,20.59,32.84,17.43c14.26-3.18,25.35-15.87,28.17-29.95c3.06-15.33-3.68-33.45-18.36-40.28
				c-4.93-2.3-11.27,9.1-6.53,11.31c11.61,5.4,18.92,20.05,15.44,32.62c-3.28,11.84-17.92,18.07-29.08,13.73
				c-11.91-4.64-19.27-19.87-16.25-32.17c2.96-12.06,17.2-18.6,28.62-14.69C814.94,1293.06,820.99,1281.59,816.26,1279.97
				L816.26,1279.97z"/>
		</g>
	</g>
	<g>
		<path class="st0" d="M829.14,1327.91c-4.05,15.57,4.93,33.76,19.06,38.62c14.13,4.86,31.02-4.44,35.86-19.74
			c4.84-15.3-3.2-34.01-17.05-39.72c-13.86-5.71-31.2,2.54-36.81,17.52"/>
		<g>
			<path d="M824.56,1329.07c-3.29,13.98,1.28,29.57,12.57,38.73c11.02,8.93,26.18,6.97,37.03-1.12
				c11.97-8.93,17.83-24.05,15.39-38.7c-2.26-13.55-12.13-26.65-26.41-28.49c-16.52-2.13-31.22,10.13-37.09,24.72
				c-0.85,2.12-1.04,5.89,1.89,6.36c2.95,0.48,5.49-3.37,6.38-5.59c4.62-11.5,19.42-17.04,30.58-11.73
				c11.74,5.59,18.83,21.34,14.78,33.81c-3.85,11.86-18.76,17.9-30.02,13.12c-12.49-5.31-18.98-20.59-15.96-33.43
				c0.58-2.48-0.62-5.21-3.47-4.71C827.2,1322.58,825.19,1326.41,824.56,1329.07L824.56,1329.07z"/>
		</g>
	</g>
	<g>
		<path class="st0" d="M883.09,1344.94c-3.18,18.03,7.63,37.83,23.76,42.95s35.18-5.57,40.43-23.01
			c5.24-17.44-4.6-38.64-20.68-43.95s-35.22,6.74-38.74,24.69"/>
		<g>
			<path d="M878.51,1346.1c-2.5,15.98,3.14,33.16,16.42,42.97c13.04,9.64,30.35,6.78,42.4-3.03c13.06-10.64,18.84-28.28,14.65-44.56
				c-3.73-14.49-15.81-28.15-31.76-27.77c-18.42,0.44-33.14,15.78-36.94,33.08c-0.55,2.48,0.59,5.22,3.47,4.71
				c3.01-0.53,5.1-4.37,5.68-7.03c2.35-10.69,12.44-18.43,23.29-18.81c11.89-0.42,21.58,8.5,25.74,19.09
				c4.23,10.78,3.36,23.34-5.68,31.35c-8.87,7.87-22,9.41-32.15,3.14c-11.62-7.17-18.06-22.08-15.97-35.46
				c0.39-2.48-0.49-5.23-3.47-4.71C881.31,1339.58,878.93,1343.45,878.51,1346.1L878.51,1346.1z"/>
		</g>
	</g>
	<g>
		<path class="st0" d="M948.98,1362.15c1.02,18.16,16.96,33.71,33.59,32.77c16.63-0.95,31-18.22,30.29-36.4
			c-0.71-18.18-16.39-34.05-33.03-33.43c-16.64,0.61-31.3,17.6-30.89,35.79"/>
		<g>
			<path d="M944.28,1364.77c1.21,15.5,10.98,30.17,26.27,34.83c15.59,4.75,30.7-4.5,39.2-17.29c9.12-13.73,10.62-31.53,1.85-45.8
				c-7.94-12.9-23.65-20.92-38.54-15.76c-17.48,6.05-28.83,24.68-28.82,42.75c0,2.89,2.38,3.95,4.8,2.77c2.73-1.34,4.62-5.04,4.62-8
				c0-14.33,11.51-28.19,26.63-27.16c14.92,1.01,27.27,15.44,27.88,30.03c0.6,14.3-11.06,28.54-26.02,27.83
				c-15.12-0.72-27.29-14.83-28.44-29.42C953.09,1351.82,943.88,1359.74,944.28,1364.77L944.28,1364.77z"/>
		</g>
	</g>
	<g>
		<path class="st0" d="M1013.14,1359.51c0.79-20.31,17.91-38.2,36.51-38.17c18.6,0.03,35.66,17.98,36.4,38.29
			c0.74,20.31-14.97,39.68-33.51,41.32s-36.9-14.71-39.16-34.89"/>
		<g>
			<path d="M1017.84,1356.9c0.74-12.66,9.37-24.42,21.59-28.28c12.76-4.03,25.87,2.22,33.79,12.36
				c8.29,10.62,10.84,25.11,4.55,37.34c-5.83,11.34-18.08,18.57-30.88,16.31c-14.85-2.62-26.87-16.46-28.81-31.17
				c-1.01-7.7-10.08,0.2-9.41,5.23c2.24,17.02,13.5,32.49,30.52,37.15c17.39,4.76,33.91-5.73,43.21-19.96
				c9.84-15.05,11.26-34.44,2.07-50.11c-8.58-14.62-25.97-24.11-42.82-18.88c-19.36,6.02-32.07,25.59-33.21,45.25
				c-0.17,2.93,2.5,3.9,4.8,2.77C1016.09,1363.49,1017.67,1359.9,1017.84,1356.9L1017.84,1356.9z"/>
		</g>
	</g>
	<g>
		<path class="st0" d="M1086.7,1352.19c2.17,18.88,20.12,33.79,37.34,30.99c17.23-2.8,30.43-22.81,27.38-41.55
			c-3.05-18.74-21.79-32.56-38.83-28.58c-17.03,3.97-28.99,24.99-24.67,43.43"/>
		<g>
			<path d="M1081.99,1354.81c2.22,16.23,13.52,30.88,30.15,34.14c16.65,3.27,31.83-8.61,39-22.82c7.81-15.46,7.45-34.64-4.81-47.75
				c-10.84-11.6-28.04-15.93-42.06-7.28c-16.23,10.01-24.82,30.74-20.89,49.28c0.65,3.05,4.12,2.02,5.81,0.65
				c2.36-1.91,3.89-5.43,3.25-8.44c-2.38-11.23,1.75-23.92,11.54-30.42c10.22-6.79,23.31-3.69,32.11,3.99
				c9.54,8.33,13.67,21.78,9.19,33.79c-4.12,11.03-14.72,18.92-26.74,17.38c-13.73-1.76-25.29-14.21-27.14-27.75
				C1090.36,1341.89,1081.31,1349.78,1081.99,1354.81L1081.99,1354.81z"/>
		</g>
	</g>
	<g>
		<path class="st0" d="M1150.99,1332.71c-13.16-14.75-12.92-41.22,0.51-55.68s37.64-14.36,50.96,0.22
			c13.32,14.58,13.36,41.05,0.1,55.69c-13.26,14.64-37.48,14.85-50.96,0.44"/>
		<g>
			<path d="M1155.04,1327.78c-8.63-10.07-11.45-24.74-7.1-37.32c4.39-12.72,17.01-19.32,30.11-18.08
				c14.17,1.34,24.96,11.52,28.45,25.11c3.1,12.07,0.91,27.17-9.68,34.98c-12.33,9.09-30.68,6.72-41.17-4.03
				c-4.18-4.28-11.57,6.3-8.1,9.86c12.21,12.53,31.36,15.25,46.69,6.68c15.99-8.94,24.1-28.12,22.81-45.95
				c-1.28-17.63-11.59-33.39-29.34-37.73c-17.54-4.29-35.46,4.81-44.27,20.13c-9.8,17.04-9.6,40.91,3.5,56.2
				C1150.78,1342.13,1158.32,1331.61,1155.04,1327.78L1155.04,1327.78z"/>
		</g>
	</g>
	<g>
		<path class="st0" d="M1059.38,189.9c-10.93-31.63-42.8-52.93-73.55-49.15c-30.75,3.79-57.48,32.3-61.69,65.8
			c-47.15-30.49-107.61-34.98-158.11-11.75c-16.5,7.59-32.4,18.43-42.43,34.64c-10.03,16.21-13.07,38.59-4.03,55.48
			c-35.55-24.15-84.12-22.97-118.65,2.88c-34.53,25.85-53.09,74.92-45.32,119.87c-41.57-10.2-87.84,7.77-114.2,44.35
			c-26.36,36.58-31.5,89.94-12.68,131.72c-39.42,15.16-66.34,62.21-61.54,107.58c4.8,45.37,40.83,84.47,82.38,89.4
			c-26.15,15.58-37.96,53.12-29.5,84.33c8.46,31.21,34.49,54.76,63.46,62.27c28.98,7.52,60.12,0.32,86.16-15.48
			c-21.91,26.89-21.31,72.17,1.29,98.37c22.6,26.2,63.93,29.5,89.78,7.18c-19.94,24.84-18.28,66.84,3.55,89.7
			c21.83,22.87,60.29,22.91,82.16,0.09c3.71,28.28,24.15,53.06,49.5,60.02c25.35,6.96,54.08-4.33,69.58-27.34
			c3.09,30.74,36.3,41.99,61.06,27.03"/>
		<g>
			<path d="M1063.91,186c-8.99-25.18-30.44-45.38-57.01-50.52c-26.66-5.16-52.77,8.36-68.98,29.16
				c-9.73,12.49-16.22,27.37-18.35,43.08c2.61-2.27,5.23-4.54,7.84-6.82c-32.75-20.94-72-29.99-110.62-25.69
				c-36.48,4.06-78.1,20.5-97.4,53.64c-10.66,18.31-13.7,41.75-3.87,61.01c2.44-3.53,4.88-7.06,7.31-10.58
				c-30.42-20.3-69.74-22.92-102.98-8.04c-32.74,14.66-55.52,46.09-65.22,79.98c-5.63,19.67-6.92,40.16-3.57,60.35
				c2.26-3.29,4.52-6.58,6.78-9.87c-34.62-8.21-71.43,2.44-98.44,25.06c-28.92,24.22-44.55,60.92-46.46,98.18
				c-1.09,21.39,2.57,43.08,11.25,62.69c1.88-3.25,3.76-6.51,5.64-9.76c-34.39,13.58-58.05,46.68-65.49,82.27
				c-7.66,36.6,4.08,75.35,31.3,101.14c14.28,13.53,32.04,22.9,51.67,25.41c0.72-3.79,1.44-7.57,2.16-11.36
				c-31.38,19.25-43.76,62.25-33.08,96.55c11.33,36.4,45.64,62.25,83.5,64.26c24.61,1.31,48.91-6.38,69.88-18.92
				c-0.83-2.92-1.66-5.85-2.49-8.77c-18.36,23.06-23.3,55.99-13.42,83.69c9.73,27.26,34.73,46.11,64.01,46.04
				c16.25-0.04,31.75-5.78,44.17-16.24c-1.23-2.65-2.46-5.29-3.68-7.94c-16.53,21.12-20.8,51.08-11.39,76.17
				c9.53,25.4,33.57,41.95,60.96,39.88c15.05-1.13,29.22-7.55,39.83-18.33c-1.94-0.22-3.87-0.43-5.81-0.65
				c3.96,27.88,23.47,54.02,51.11,61.9c28.23,8.05,58.7-6.26,74.9-29.72c-2.37-0.26-4.74-0.52-7.11-0.78
				c1.72,14.79,9.66,27.92,23.85,33.69c13.82,5.62,29.3,3.56,42.01-3.89c2.61-1.53,4.78-4.9,4.62-8c-0.14-2.71-2.29-4.24-4.8-2.77
				c-22.02,12.9-53.08,3.22-56.27-24.26c-0.51-4.4-4.91-3.97-7.11-0.78c-14.65,21.21-42.25,32.45-67.27,24.03
				c-24.63-8.28-41.3-32.09-44.87-57.22c-0.43-3-4.36-2.13-5.81-0.65c-21.07,21.4-58.16,20.64-78.2-1.97
				c-18.67-21.06-21.46-57.35-3.82-79.88c1.49-1.91,3.24-5.39,1.89-7.8c-1.3-2.3-3.79-1.63-5.57-0.13
				c-18.98,15.99-46.97,17.35-68.38,5.41c-22.79-12.71-33.65-38.6-32.7-63.96c0.52-14.03,4.9-28.03,13.69-39.07
				c1.41-1.77,2.99-4.92,2.13-7.28c-0.74-2.03-2.76-2.6-4.62-1.49c-31.76,19-72.26,25.36-105.33,5.78
				c-28.86-17.09-46.91-50.09-41.06-83.75c2.94-16.91,11.51-33.23,26.45-42.39c2.47-1.52,8.05-10.6,2.16-11.36
				c-32.07-4.1-59.11-27.89-71.96-56.94c-13.64-30.83-10.23-66.49,7.99-94.71c9.51-14.73,23.39-27.02,39.78-33.49
				c3.12-1.23,7.28-6.04,5.64-9.76c-13.96-31.55-14.79-68.48-2.21-100.63c12-30.65,37.44-54.45,69.04-63.92
				c17.37-5.21,35.61-5.83,53.26-1.65c4.49,1.07,7.32-6.62,6.78-9.87c-5.17-31.18,2.41-65.03,21.35-90.48
				c19.5-26.21,50.42-41.01,83.11-39.65c18.54,0.77,36.3,6.63,51.72,16.93c4.75,3.17,9.03-7.22,7.31-10.58
				c-7.8-15.27-5.46-34.28,3.37-48.59c8.81-14.27,23.49-23.92,38.4-30.88c31.28-14.6,67.23-17.98,100.9-10.87
				c19.44,4.11,37.86,11.86,54.58,22.55c3.51,2.24,7.48-4.16,7.84-6.82c3.96-29.08,26.59-55.81,56.84-58.86
				c30.63-3.09,59.29,19.24,69.29,47.26C1057.1,200.09,1065.57,190.63,1063.91,186L1063.91,186z"/>
		</g>
	</g>
	<g>
		<path class="st0" d="M1077.85,1169.07c29.9,25.14,79.03,15.13,98.63-20.1c21.74,7.87,47.18,1.93,64.07-14.97
			s24.55-44.08,19.29-68.43c25.7,16.75,62.83,7.35,79.17-20.05c16.34-27.4,9.23-68.31-15.17-87.25
			c30.97,10.82,67.47,11.98,93.44-9.4c25.97-21.38,32.54-70.42,6.45-91.63c30.16,1.85,62.62,3.09,88.01-14.8
			c25.39-17.88,36.35-62.9,12.92-83.74c25.69-11.69,43.76-41.06,43.96-71.47c0.2-30.41-17.47-60.07-43-72.17
			c8.77-31.84,16.48-66.78,5.09-97.61c-11.4-30.83-50.45-50.67-73.47-28.93c22.38-23.71,21.23-68.55-2.33-90.86
			c-23.56-22.31-64.33-17.16-82.62,10.42c26.8-27.63,15.49-82.42-16.49-102.43c-31.97-20.01-74.6-9.35-102.46,17
			c11.08-36.27-1.23-79.57-29.16-102.6s-69.4-24.1-98.28-2.51c11.53-18.75,3.75-48.02-15.17-57.11
			c-18.92-9.09-43.91,4.43-48.77,26.39"/>
		<g>
			<path d="M1074.58,1174.73c33.75,27.74,84.72,12.27,105.29-23.79c-2.22,1.23-4.44,2.46-6.66,3.7
				c25.14,8.73,52.68,0.94,70.79-18.31c18.44-19.6,25.72-48.5,20.37-74.65c-2.6,3.18-5.2,6.36-7.79,9.55
				c22.34,14.14,51.68,9.91,71.47-6.77c21.48-18.1,28.72-48.28,22.05-74.99c-3.6-14.42-11.32-27.55-22.99-36.85
				c-2.18,3.77-4.35,7.54-6.53,11.31c29.37,10.09,64.09,12.52,91.07-5.44c22.61-15.05,35.43-43.07,33.16-70.1
				c-1.2-14.26-6.71-27.49-17.82-36.8c-1.84,3.88-3.67,7.75-5.51,11.63c29.21,1.78,61.06,3,86.9-13.11
				c20.86-13,33.9-37.78,33.88-62.3c-0.01-12.64-4.1-25.33-13.56-34.03c-1.32,3.44-2.64,6.88-3.96,10.31
				c22.38-10.49,38.4-32.1,45.08-55.56c6.96-24.47,3.04-51-10.97-72.3c-7.46-11.34-17.75-20.85-29.97-26.81
				c0.44,1.5,0.87,2.99,1.31,4.49c8.3-30.28,15.94-63.37,6.98-94.41c-6.38-22.09-24.32-41.53-47.64-45.52
				c-12.29-2.1-24.41,1.64-33.6,10.01c1.23,2.65,2.46,5.29,3.68,7.94c19.12-20.78,23.6-53.98,12.49-79.68
				c-11.17-25.86-38.13-39.37-65.61-32.81c-15.68,3.74-28.63,13.5-37.63,26.71c-1.24,1.81-2.17,5.57-0.26,7.25
				c2.05,1.81,4.63-0.39,6.06-1.9c20.81-22,21.48-56.5,8.99-82.78c-6.38-13.42-16.48-24.85-29.82-31.64
				c-15.09-7.68-32.47-9.31-49-6.29c-19.78,3.61-38.16,13.71-52.8,27.35c1.81,1.64,3.61,3.29,5.42,4.93
				c8.53-28.78,4.89-60.59-10.78-86.35c-15.67-25.77-43.89-41.71-74.22-40.57c-17.46,0.65-33.8,6.58-47.86,16.87
				c1.56,2.17,3.12,4.34,4.67,6.5c12.02-20.41,7.85-53.6-15.3-64.72c-24.56-11.79-50.92,9.64-56.61,33.2
				c-0.6,2.48,0.63,5.21,3.47,4.71c3.06-0.54,5.04-4.37,5.68-7.03c4.34-18,27.03-27.83,43.06-18.43
				c15.47,9.08,22.05,32.83,12.91,48.36c-2.52,4.28-0.71,10.44,4.67,6.5c22.07-16.15,52.58-18.31,77.19-6.82
				c24.59,11.47,40.45,35.43,46.1,61.47c3.24,14.93,3.08,30.84-1.27,45.53c-1.17,3.95,1.13,8.92,5.42,4.93
				c22.35-20.82,56.18-33.02,85.99-21.8c25.44,9.58,40.87,35.16,41.91,61.82c0.54,13.8-3,27.28-12.64,37.47
				c1.93,1.78,3.86,3.57,5.8,5.35c12.81-18.81,39.8-25.15,60.43-16.71c22.5,9.2,33.3,33.22,32.45,56.53
				c-0.47,13-4.87,25.63-13.73,35.26c-1.61,1.75-3.17,5.52-1.89,7.8c1.26,2.25,3.84,1.71,5.57,0.13
				c20.59-18.76,51.07-0.52,63.18,19.17c18.86,30.66,8.14,71.89-0.66,103.99c-0.37,1.36-0.17,3.77,1.31,4.49
				c24.94,12.17,40.92,39.33,41.53,66.85c0.61,27.21-14.42,54.08-39.32,65.75c-2.5,1.17-6.81,7.69-3.96,10.31
				c19.29,17.76,13.84,49.82-2.57,67.65c-22.45,24.39-62.08,21.81-92.06,19.98c-4.72-0.29-9.44,8.34-5.51,11.63
				c16.89,14.16,18.28,39.63,10.97,59.06c-9.15,24.31-33.25,36.61-58.29,37.81c-15.61,0.75-31.29-2.08-46.03-7.14
				c-5.06-1.74-10.86,7.86-6.53,11.31c22.05,17.57,29.69,53.73,15.72,78.47c-14.24,25.21-49.13,32.75-73.19,17.52
				c-4.54-2.87-8.44,6.38-7.79,9.55c4.27,20.89-0.95,44.45-16.04,60c-15.1,15.56-39.14,20.94-59.53,13.87
				c-2.82-0.98-5.33,1.37-6.66,3.7c-18.24,31.99-63.79,39.57-91.98,16.4C1077.21,1160.22,1070.32,1171.22,1074.58,1174.73
				L1074.58,1174.73z"/>
		</g>
	</g>
</g>
<g id="Ebene_3">
	<g>
		<path class="st2" d="M633.99,565.18c-42.59-15.74-94.25-0.25-121.91,36.56c-27.65,36.8-29.14,92.06-3.52,130.38
			c25.62,38.32,76.37,56.73,119.75,43.44c26.3,71.25,59.61,140.59,106.88,199.31c47.27,58.72,109.44,106.51,180.87,127.1
			c99.62,28.71,242.13-2.44,303.53-49.78c106.15-81.84,146.25-275.98,146.25-275.98s97.16,2.18,123.9-35.22
			c26.74-37.4,24.9-113.22-5.74-147.31c-22.27-24.77-73.13-31.96-126.92-25.96c-19.03-45.67-25.47-82.55-27.91-127.33
			c-113.66,12.69-230.57-75.09-257.8-189.14C930.55,446.49,693.78,427.28,693.78,427.28s-3.57,117.8-56.94,139.4"/>
		<g>
			<path class="st2" d="M637.36,559.35c-53.76-19.41-115.55,7.75-139.86,58.94c-24.96,52.55-10.32,119.8,40.5,150.92
				c26.43,16.19,59.36,21.31,89.18,12.42c-1.18-0.68-2.35-1.36-3.53-2.04c32.55,87.97,76.01,174.67,144.07,240.71
				c31.33,30.39,67.31,56.26,107.37,73.87c37.44,16.45,77.17,24.25,117.98,24.95c40.77,0.7,81.82-4.55,121.28-14.76
				c33.96-8.79,68.44-21.18,97.63-41.03c27.64-18.79,50.12-44.58,68.98-71.94c19.44-28.2,35.25-58.78,48.74-90.23
				c17.09-39.88,31.09-81.68,40.44-124.09c0.15-0.68,0.3-1.36,0.44-2.05c-2.35,2.45-4.69,4.91-7.04,7.36
				c16.12,0.35,32.42-0.9,48.38-3.02c24.84-3.3,53.31-9.1,72.56-26.37c22.86-20.52,29.24-56.95,28.86-86.17
				c-0.38-29.48-7.9-64.73-31.73-84.48c-14.5-12.01-33.96-17.4-52.23-20.23c-23.52-3.65-47.55-3-71.14-0.43
				c1.18,0.68,2.35,1.36,3.53,2.04c-8.47-20.46-15.41-41.5-20-63.18c-4.38-20.7-6.55-41.73-7.73-62.83
				c-0.13-2.38-1.38-3.61-3.71-3.36c-89.49,9.67-177.82-42.95-224.68-117.38c-13.55-21.52-23.6-45-29.58-69.72
				c-0.96-3.96-5.68-1.52-7.15,0.52c-47.14,65.11-112.43,114.35-187.55,142.77c-49.44,18.71-102.36,29.29-155.21,30.9
				c-9.97,0.3-20.07,0.47-30.03-0.33c-4.24-0.34-7.06,5.37-7.17,8.86c-0.41,13.09-1.92,25.29-4.06,38.5
				c-3.83,23.58-9.61,48.08-22.1,68.71c-6.28,10.38-14.67,19.21-26.01,23.93c-4.81,2-7.22,14.18,0.19,11.11
				c24.27-10.09,37.93-36.46,46.07-59.98c7.93-22.9,12.22-47.05,14.46-71.13c0.51-5.49,0.99-11.01,1.16-16.53
				c-2.39,2.95-4.78,5.9-7.17,8.86c29.95,2.41,60.99-0.77,90.54-5.36c66.66-10.36,131.73-34.13,187.68-72.1
				c40.36-27.39,75.57-61.71,104.17-101.21c-2.38,0.17-4.77,0.35-7.15,0.52c21.66,89.43,96.58,163.32,185.52,185.83
				c24.8,6.28,50.38,8.1,75.81,5.35c-1.24-1.12-2.48-2.24-3.71-3.36c1.2,21.42,3.4,42.8,7.75,63.83
				c4.6,22.25,11.66,43.84,20.35,64.82c0.72,1.74,1.69,2.24,3.53,2.04c20.22-2.2,40.73-2.72,60.97-0.41
				c16.35,1.86,32.97,5.5,47.47,13.54c25.93,14.37,36.13,45.08,38.62,73.06c1.39,15.58,0.57,31.37-2.91,46.64
				c-2.75,12.06-7.31,25.42-15.89,34.67c-7.3,7.87-17.74,12.78-27.69,16.34c-11.98,4.28-24.51,6.97-37.07,8.87
				c-16.88,2.56-34.19,3.93-51.27,3.56c-3.71-0.08-6.38,4.19-7.04,7.36c-7.06,34.1-17.99,67.26-30.6,99.9
				c-23.06,59.7-54.37,121.07-103.77,163.3c-24.64,21.07-54.77,34.5-85.4,44.44c-37.81,12.26-77.51,19.46-117.2,21.33
				c-39.1,1.84-78.92-1.36-116.21-13.8c-40.5-13.5-77.72-35.73-110.38-63.07c-70.49-59.01-117.6-140.8-151.82-224.99
				c-4.44-10.92-8.67-21.92-12.76-32.97c-0.57-1.53-1.82-2.55-3.53-2.04c-49.18,14.67-105.77-11.51-125.66-59.05
				c-10.15-24.26-11.58-52.41-3.37-77.45c8.04-24.55,25.11-44.25,48.07-56.03c25.1-12.88,55.47-15.59,82.13-5.96
				C635.96,572.94,642.25,561.12,637.36,559.35L637.36,559.35z"/>
		</g>
	</g>
</g>
<g id="Ebene_9">
	<g>
		<path class="st3" d="M1062.31,882.55c-6.78-14.31-30.18-13.05-37.89,0.76c-7.71,13.81-0.35,32.95,13.16,40.75
			c13.51,7.8,30.82,5.82,44.58-1.51c11.5-6.13,21.56-16.42,24.51-29.38c2.95-12.96-2.93-28.34-14.98-33.25
			c-12.05-4.91-28.18,4.72-27.71,18.02"/>
		<g>
			<path class="st3" d="M1066.49,877.46c-8.54-16.61-32.32-12.98-42.67-0.42c-13,15.77-7.77,40.72,8.74,51.81
				c19.57,13.14,47.36,4.63,63.23-10.45c15.02-14.27,23.93-40.29,8.35-57.66c-16.26-18.13-44.94-2.64-45.02,19.89
				c-0.01,2.98,2.47,4.07,4.95,2.86c2.83-1.38,4.75-5.19,4.76-8.25c0.02-5.92,5.73-9.26,11.04-10.2c6.74-1.19,13.07,2.09,17.14,7.37
				c9.82,12.75,5.4,28.86-6.14,38.65c-12.41,10.54-31.79,15.75-47.09,8.64c-11.18-5.2-22.66-21.38-16.06-34.01
				c6.04-11.55,25.14-8.29,30.4,1.95C1060.69,892.61,1068.9,882.15,1066.49,877.46L1066.49,877.46z"/>
		</g>
	</g>
</g>
<g id="Ebene_2">
	<g>
		<g>
			<path d="M644.12,559.71c-53.05-23.73-118.13-0.37-145.73,50.31c-14.03,25.77-18.75,56.26-13.33,85.08
				c5.3,28.17,21.27,53.06,44.55,69.74c25.75,18.45,58.92,25.91,89.91,18.9c4.9-1.11,8.98-13.63,2.28-12.11
				c-51.33,11.61-106.93-19.77-123.55-69.67c-8.36-25.09-7.55-53.08,2.31-77.63c9.64-24,28.41-42.53,52.03-52.84
				c26.68-11.64,58.16-12.02,84.79-0.11C642.52,573.67,649.02,561.9,644.12,559.71L644.12,559.71z"/>
		</g>
	</g>
	<g>
		<g>
			<path d="M1354.69,573.93c28.74-3.2,58.89-6.53,87.03,2.19c23.68,7.34,44.13,23.14,53.16,46.71c4.87,12.71,6.83,26.28,7.58,39.81
				c0.7,12.64,0.6,25.42-1.34,37.95c-1.87,12.1-5.43,24.08-12.15,34.43c-6.58,10.13-16.13,17.93-26.71,23.61
				c-28.75,15.46-62.45,14.4-94.11,13.38c-5.24-0.17-10.47,12.13-4.63,12.32c30.74,0.99,62.34,1.62,91.12-10.83
				c26.14-11.31,44.86-32.86,52.61-60.23c7.52-26.54,7.29-57.28,1.25-84.11c-6.16-27.36-23.06-48.98-48.79-60.45
				c-32.44-14.46-68.48-10.7-102.74-6.89C1351.98,562.37,1347.72,574.7,1354.69,573.93L1354.69,573.93z"/>
		</g>
	</g>
	<g>
		<g>
			<path d="M616,781.7c21.81,69.76,56.43,136.08,102.65,192.8c44.98,55.19,102,102.07,168.83,127.97
				c64.85,25.14,137.12,31.37,205.11,16.28c33.65-7.46,66.26-20.31,95.61-38.43c30.84-19.05,57.68-43.94,80.32-72.17
				c47.54-59.26,76.12-131.43,95.36-204.28c2.36-8.93,4.57-17.91,6.67-26.91c0.6-2.56-0.64-5.38-3.58-4.86
				c-3.14,0.55-5.22,4.51-5.86,7.25c-16.58,71.09-40.95,142.46-83.21,202.68c-20.42,29.1-44.94,55.54-73.8,76.44
				c-27.24,19.73-58.25,34.21-90.55,43.43c-65.31,18.64-136.47,16.41-200.96-4.56c-66.35-21.58-124.06-63.43-170.32-115.14
				c-47.65-53.26-84.24-116.49-108.53-183.6c-2.99-8.25-5.77-16.56-8.39-24.94C623.3,767.14,614.49,776.87,616,781.7L616,781.7z"/>
		</g>
	</g>
	<g>
		<g>
			<path d="M642.08,570.23c17.1-17.5,26.91-41.47,34.94-64.2c7.64-21.6,13.64-43.82,18.61-66.18c1.02-4.58,2.01-9.17,2.87-13.78
				c-2.35,2.45-4.69,4.91-7.04,7.36c29.88,1.78,60.72-1.93,90.08-6.98c66.48-11.45,131.22-35.92,187.02-74.09
				c40.42-27.64,75.79-62.05,104.63-101.63c-2.38,0.17-4.77,0.35-7.15,0.52c30.9,85.52,102.78,154.54,189.38,182.3
				c24.04,7.71,48.93,12.25,74.18,13.12c-0.85-1.16-1.69-2.31-2.54-3.47c2.7,43.58,9.78,87.58,25.35,128.53
				c2.46,6.48,11.15-3.29,9.35-8.03c-15.27-40.15-22.34-83.15-24.99-125.89c-0.09-1.48-0.72-3.4-2.54-3.47
				c-88.8-3.03-172.47-51.86-223.54-123.82c-14.73-20.76-26.65-43.37-35.3-67.31c-1.33-3.68-5.44-1.84-7.15,0.52
				c-47.3,64.93-112.45,114.34-187.16,143.64c-49.22,19.3-101.96,30.8-154.79,33.45c-10.01,0.5-20.15,0.88-30.18,0.28
				c-3.64-0.22-6.47,4.31-7.04,7.36c-6.57,35.2-16.18,71.21-31.43,103.66c-4.75,10.1-10.32,20.66-18.19,28.72
				c-2.07,2.11-4.41,5.55-3.35,8.7C637.02,572.36,640.24,572.11,642.08,570.23L642.08,570.23z"/>
		</g>
	</g>
	<g>
		<g>
			<path d="M972.61,903.72c63.64,10.87,130.51-10.17,177.58-54.08c2.14-2,4.38-5.64,3.35-8.7c-0.97-2.89-4.1-2.44-6-0.67
				c-45.26,42.24-109.23,61.56-170.3,51.14C972.14,890.52,966.6,902.69,972.61,903.72L972.61,903.72z"/>
		</g>
	</g>
	<g>
		<g>
			<path d="M984.87,674.06c8.58-7.14,21.23-8.45,31.47-4.26c10.78,4.4,17.98,14.36,19.22,25.92c1.15,10.75-2.72,21.09-12.46,26.44
				c-10.16,5.58-22.75,5.02-32.49-1.11c-4.61-2.9-11.46,8.69-6.73,11.66c20.91,13.15,48.13,1.85,57.72-19.77
				c9.5-21.41,1.01-49.38-22.73-56.26c-12.8-3.71-26.46-0.45-36.63,8.01c-2.22,1.85-4.35,5.75-3.35,8.7
				C979.89,676.38,982.92,675.69,984.87,674.06L984.87,674.06z"/>
		</g>
	</g>
	<g>
		<path d="M923.1,565.93c-1.87-8.71,0.28-17.73,1.91-26.49s2.65-18.26-1.22-26.25c-3.87-7.99-14.45-13.07-21.62-8.04
			c-7.59,5.33-6.5,16.79-7.09,26.21c-0.47,7.5-2.53,14.79-3.62,22.22c-1.1,7.43-1.15,15.36,2.15,22.06s10.73,11.7,17.87,10.05
			c7.14-1.65,11.72-11.54,7.12-17.39"/>
		<g>
			<path d="M927.77,561.91c-3.24-17.76,8.99-35.9,0.44-53.28c-6.46-13.13-23.3-15.52-31.99-3.33c-4.27,5.99-5.3,13.19-5.66,20.37
				c-0.44,8.68-1.67,16.84-3.2,25.4c-2.56,14.26-2.49,35.31,14.64,40.37c14.69,4.34,29.52-15.39,20.78-28.22
				c-3.32-4.87-11.32,5.82-8.35,10.17c3.59,5.27-2.25,7.26-6.73,5.99c-7.21-2.05-11.12-9.32-11.88-16.34
				c-0.86-7.97,1.37-15.83,2.76-23.6c1.23-6.88,1.25-13.66,1.77-20.59c0.41-5.36,1.21-10.37,7.85-9.43
				c6.45,0.91,11.04,6.39,12.61,12.41c1.93,7.41,0.15,15.22-1.23,22.57c-1.61,8.57-2.73,16.88-1.15,25.54c0.58,3.19,4.3,2.04,6,0.67
				C926.91,568.6,928.35,565.06,927.77,561.91L927.77,561.91z"/>
		</g>
	</g>
	<g>
		<path d="M1093.63,551.38c3.8-8.53,7.68-17.6,6.64-26.91c-1.04-9.32-9.1-18.48-18.1-16.87c-9.77,1.74-13.84,13.74-15.12,23.84
			c-1.37,10.81-1.71,21.75-1.03,32.63c0.49,7.79,2.63,17.05,9.82,19.56c6.32,2.21,13.33-2.59,16.15-8.81
			c2.82-6.22,2.53-13.39,2.18-20.23"/>
		<g>
			<path d="M1097.9,551.78c5.88-13.27,12.5-31.33,1.43-43.91c-9.67-10.99-23.45-6.39-30.45,4.87c-8.07,12.98-8.23,30.62-8.04,45.37
				c0.14,10.72,0.5,31.06,15.24,32.2c7.7,0.6,14.73-5.45,18.43-11.66c4.84-8.12,4.96-17.61,4.51-26.76
				c-0.14-2.94-2.36-4.12-4.95-2.86c-2.71,1.33-4.91,5.24-4.76,8.25c0.27,5.44,1.58,14.1-2.68,18.39
				c-4.21,4.24-10.26,2.06-12.91-2.64c-2.92-5.17-2.94-11.67-3.11-17.43c-0.23-7.82,0.03-15.69,0.93-23.46
				c0.94-8.18,4.24-24.09,16.1-16.9c13.3,8.06,6.55,24.82,1.71,35.74c-0.96,2.17-1.01,6.08,1.95,6.56
				C1094.42,558.04,1096.89,554.05,1097.9,551.78L1097.9,551.78z"/>
		</g>
	</g>
	<g>
		<g>
			<path d="M1069.04,467.76c26.08-0.86,51.21,10.71,67.65,30.96c3.81,4.7,11.65-6.12,8.35-10.17
				c-17.3-21.31-43.83-34.02-71.37-33.11C1068.44,455.61,1063.37,467.95,1069.04,467.76L1069.04,467.76z"/>
		</g>
	</g>
	<g>
		<g>
			<path d="M857.72,496.26c16.22-19.08,42.03-27.77,66.55-23.54c5.1,0.88,10.65-11.29,4.63-12.32
				c-28.57-4.93-57.57,7.01-76.15,28.86c-1.64,1.93-3.61,6.23-1.7,8.59C853.06,500.29,856.23,498.02,857.72,496.26L857.72,496.26z"
				/>
		</g>
	</g>
	<g>
		<g>
			<path d="M1388.57,606.37c35.74,5.48,64.88,37.51,68.01,73.39c0.69,7.96,10.16-0.21,9.71-5.39
				c-3.42-39.25-33.59-74.27-73.09-80.33C1388.08,593.26,1382.57,605.45,1388.57,606.37L1388.57,606.37z"/>
		</g>
	</g>
	<g>
		<g>
			<path d="M597.37,582.77c-44.57,5.99-78.06,52.94-73.4,96.85c0.84,7.95,10.26-0.2,9.71-5.39c-4-37.68,23.55-74.26,61.41-79.35
				C600.08,594.21,604.3,581.84,597.37,582.77L597.37,582.77z"/>
		</g>
	</g>
</g>
<g id="Ebene_8">
	<ellipse class="st4" cx="914.61" cy="520.85" rx="5.98" ry="6.14"/>
	<ellipse class="st4" cx="1088.82" cy="526.13" rx="5.76" ry="5.92"/>
</g>
<g id="Ebene_10">
	<g class="st5">
		<path class="st3" d="M871.69,865.1c-1.31-21.4-19.65-39.77-40.37-42.43s-41.99,9.32-52.67,27.74
			c-10.68,18.43-11.15,42.16-3.09,61.94c8.95,21.96,28.75,39.49,51.67,43.1s47.96-8.02,58.65-29.14
			c10.69-21.13,4.6-50.29-14.73-63.43"/>
		<g>
			<path class="st3" d="M876.54,862.41c-2.29-29.11-29.64-50.62-58.49-45.38c-31.14,5.65-51.21,35.55-52.8,65.74
				c-1.57,29.87,14.79,60.29,42.12,73.35c25.83,12.34,57.31,4.8,75.25-17.46c19.24-23.87,18.14-63.1-8.11-81.61
				c-4.38-3.09-11.35,8.41-6.73,11.66c17.85,12.58,24.22,39.76,12.88,58.67c-12.11,20.2-39.87,27.18-61.23,19.32
				c-23.43-8.63-40.33-30.87-43.88-55.39c-3.67-25.35,7.72-51.91,33.22-60.38c25.76-8.56,55.86,8.84,58.06,36.86
				C867.46,875.76,876.95,867.59,876.54,862.41L876.54,862.41z"/>
		</g>
	</g>
	<g class="st5">
		<path class="st3" d="M1272.75,798.2c-1.31-21.4-19.65-39.77-40.37-42.43c-20.72-2.66-41.99,9.32-52.67,27.74
			c-10.68,18.43-11.15,42.16-3.09,61.94c8.95,21.96,28.75,39.49,51.67,43.1c22.92,3.61,47.96-8.02,58.65-29.14
			c10.69-21.13,4.6-50.29-14.73-63.43"/>
		<g>
			<path class="st3" d="M1277.61,795.5c-2.29-29.11-29.64-50.62-58.49-45.38c-31.14,5.65-51.21,35.55-52.8,65.74
				c-1.57,29.87,14.79,60.29,42.12,73.35c25.83,12.34,57.31,4.8,75.25-17.46c19.24-23.87,18.14-63.1-8.11-81.61
				c-4.38-3.09-11.35,8.41-6.73,11.66c17.85,12.58,24.22,39.76,12.88,58.67c-12.11,20.2-39.87,27.18-61.23,19.32
				c-23.43-8.63-40.33-30.87-43.88-55.39c-3.67-25.35,7.72-51.91,33.22-60.38c25.76-8.56,55.86,8.84,58.06,36.86
				C1268.53,808.85,1278.02,800.68,1277.61,795.5L1277.61,795.5z"/>
		</g>
	</g>
</g>
<g id="Ebene_13">
	<g class="st6">
		<path d="M526.09,589.25c-8.51,36.74-4.13,76.87,12.07,110.39c16.2,33.52,44.05,60.1,76.62,73.14
			c-38.28,5.92-78.92-15.09-99.01-51.18c-20.09-36.09-18.47-85.19,3.94-119.61"/>
		<g>
			<path d="M513.5,585.78c-14.08,62.28,4.83,131.64,54.4,173.44c13.15,11.09,27.5,19.67,43.42,26.15c0-8.39,0-16.79,0-25.18
				c1.84-0.27-2.33,0.22-2.85,0.26c-1.64,0.13-3.28,0.21-4.93,0.24c-3.76,0.08-7.51-0.12-11.26-0.5c-0.22-0.02-2.53-0.37-0.73-0.09
				c-0.7-0.11-1.39-0.23-2.09-0.35c-1.62-0.29-3.24-0.62-4.85-1c-3.69-0.86-7.33-1.95-10.89-3.24
				c-11.64-4.22-23.52-12.17-32.76-21.69c-20.24-20.89-28.29-50.34-25.67-79.68c1.39-15.59,6.88-31.8,15.7-45.57
				c3.8-5.94,1.23-14.41-4.68-17.86c-6.31-3.69-14.05-1.27-17.86,4.68c-19.68,30.73-24.64,70.46-15.05,105.49
				c9.58,35,34.6,63.73,68.07,77.72c18.13,7.58,37.41,9.6,56.78,6.77c5.57-0.81,9.59-7.38,9.59-12.59c0-6.2-4.19-10.39-9.59-12.59
				c-1.6-0.65-3.89-1.7-6.37-2.93c-2.9-1.44-5.74-2.98-8.53-4.62c-5.14-3.02-10.75-6.8-14.66-9.96
				c-9.42-7.62-18.6-17.02-25.26-26.21c-15.91-21.96-25.68-48.15-27.94-75.16c-1.37-16.32-0.42-32.63,3.18-48.59
				c1.55-6.87-2.1-14.13-9.12-16.06C523,574.86,515.07,578.87,513.5,585.78L513.5,585.78z"/>
		</g>
	</g>
	<g class="st6">
		<path d="M543.09,411.28c-39.82-1.99-79.95,20.07-102.24,56.18c-22.29,36.12-25.96,85.04-9.35,124.64
			c-35.86,16.69-59.02,61.15-53.84,103.37s38.24,78.44,76.85,84.22c-29.33,33.65-27.98,93.44,2.83,125.48
			c30.81,32.03,85.52,30.52,114.82-3.17c-17.83,29.2-18.56,71.24,2.03,98.17c20.6,26.93,62.56,32.21,85.5,7.65
			c-15.58,27.2-13.12,65.26,5.79,89.81c18.91,24.55,52.82,33.67,80,21.52c51.12,46.17,125.69,58.85,187.32,32.23
			c1.18-0.51,0.64-1.63-0.19-2.68c-45.46-57.59-134.53-68.38-188.76-123.91c-55.25-56.58-118.42-238.62-129.08-235.1
			c-154.21,51.03-197.63-245.57-33.68-234.67c161.23,10.72-9.92-61.27-31.04-135.13"/>
		<g>
			<path d="M543.09,398.22c-35.04-1.49-69.55,13.48-94.17,38.12c-26.17,26.19-39.83,62.65-40.75,99.38
				c-0.51,20.33,2.99,41.04,10.74,59.85c2-4.92,4-9.83,6-14.75c-32.05,15.27-54.19,49.28-59.4,83.91
				c-5.57,37,6.41,74.81,33.77,100.79c14.23,13.52,32.25,23.64,51.77,26.74c-1.92-7.27-3.84-14.55-5.76-21.82
				c-26,30.38-32.01,75.76-16.98,112.61c7.73,18.96,20.43,35.37,38.28,45.83c16.64,9.75,36.77,14.01,55.93,11.87
				c22.53-2.52,43.72-12.43,58.88-29.54c-6.84-5.27-13.67-10.55-20.51-15.82c-16.14,26.96-20.37,62.69-8.48,92.09
				c6.19,15.3,15.86,28.36,29.79,37.44c11.91,7.77,26.66,11.98,40.87,11.71c17.24-0.32,33.86-7.11,45.85-19.6
				c-6.84-5.27-13.67-10.55-20.51-15.82c-13.85,24.79-15.97,56.38-5.28,82.76c10.61,26.2,32.94,46.79,61.24,51.98
				c16.5,3.03,32.34,1.1,47.69-5.55c-5.27-0.68-10.55-1.36-15.82-2.04c53.26,47.67,131.92,63.91,198.62,36.18
				c7.5-3.12,13.46-8.81,11.09-17.82c-1.28-4.88-5.24-8.83-8.51-12.54c-5.1-5.8-10.69-11.15-16.63-16.08
				c-12.63-10.48-26.4-19.34-40.77-27.22c-28.52-15.62-58.8-27.84-86.74-44.54c-14.13-8.45-25.63-16.56-37.13-27.73
				c-3.94-3.83-7.65-7.87-11.14-12.11c-0.78-0.95-1.54-1.92-2.31-2.87c-1.46-1.79,0.07,0.11,0.3,0.41
				c-0.39-0.51-0.78-1.02-1.16-1.53c-1.78-2.38-3.53-4.78-5.23-7.22c-14.8-21.17-27.1-44.07-38.73-67.09
				c-21.4-42.37-38.86-86.64-60.39-128.93c-2.89-5.68-5.87-11.43-10.01-16.32c-1.51-1.79-3.18-3.33-5.28-4.48
				c-5.91-3.25-11.28-1.11-17.22,0.53c-2.33,0.64-4.68,1.21-7.04,1.71c-1.15,0.24-2.3,0.47-3.46,0.67
				c-1.03,0.18-5.73,0.73-1.64,0.32c-4.65,0.47-9.26,0.88-13.95,0.82c-2.1-0.03-4.2-0.13-6.29-0.3c-1.03-0.09-2.05-0.22-3.08-0.31
				c-2.2-0.19,1,0.13,1.19,0.17c-0.75-0.13-1.5-0.23-2.25-0.36c-4.04-0.7-8.04-1.68-11.94-2.95c-1.98-0.64-3.9-1.42-5.84-2.14
				c2.45,0.91,1.37,0.6-0.22-0.13c-0.99-0.45-1.97-0.93-2.94-1.42c-3.66-1.85-7.19-3.96-10.56-6.29c-0.79-0.55-1.57-1.13-2.36-1.68
				c-2.51-1.77,2.14,1.79-0.24-0.17c-1.59-1.31-3.18-2.62-4.71-4.01c-3.09-2.79-6-5.78-8.75-8.91c-1.31-1.49-2.54-3.04-3.8-4.57
				c-1.1-1.34,1.64,2.26-0.23-0.33c-0.73-1.02-1.47-2.02-2.19-3.05c-2.45-3.53-4.72-7.19-6.81-10.95
				c-2.13-3.81-4.07-7.73-5.84-11.72c-0.41-0.92-1.57-4.13-0.21-0.45c-0.36-0.97-0.79-1.93-1.16-2.89
				c-0.85-2.19-1.66-4.39-2.41-6.62c-2.83-8.34-4.98-16.92-6.45-25.6c-0.18-1.04-0.33-2.08-0.5-3.13c-0.08-0.52-0.13-1.05-0.23-1.57
				c-0.32-1.7,0.26,2.85,0.15,1.12c-0.14-2.36-0.54-4.72-0.74-7.07c-0.36-4.31-0.55-8.64-0.57-12.96c-0.02-4.42,0.15-8.83,0.5-13.24
				c0.17-2.05,0.42-4.1,0.62-6.15c0.18-1.82-0.47,2.96,0.05-0.33c0.2-1.26,0.39-2.52,0.62-3.77c1.49-8.39,3.81-16.53,6.85-24.49
				c1.15-3.01-0.64,1.32,0.09-0.27c0.41-0.88,0.79-1.78,1.2-2.66c0.92-1.97,1.9-3.92,2.94-5.83c1.89-3.47,3.98-6.83,6.27-10.04
				c0.26-0.37,2.3-3.21,0.89-1.26c-1.38,1.92,0.88-1.08,1.2-1.46c1.29-1.55,2.64-3.05,4.03-4.5c1.32-1.37,2.68-2.7,4.08-3.97
				c0.7-0.64,1.42-1.27,2.15-1.89c0.48-0.4,3.63-2.86,1.75-1.45c-1.92,1.43,0.92-0.65,1.28-0.91c0.79-0.56,1.59-1.1,2.39-1.63
				c1.73-1.14,3.51-2.21,5.32-3.21c1.85-1.02,3.74-1.94,5.65-2.84c0.45-0.21,0.94-0.37,1.38-0.61c1.44-0.79-2.61,0.85-1.02,0.44
				c1.09-0.28,2.16-0.85,3.23-1.23c4.24-1.52,8.61-2.71,13.03-3.59c1.08-0.22,2.17-0.41,3.26-0.59c1.51-0.25,3.61-0.42,0.71-0.14
				c2.61-0.26,5.2-0.54,7.82-0.68c25.09-1.29,51.27,5.07,75.95-2.13c8.45-2.46,16.92-7.54,19.54-16.5
				c2.24-7.66-0.16-15.52-4.27-22.09c-9.73-15.56-25.04-27.81-38.33-40.17c-8.19-7.62-16.34-15.3-24.12-23.34
				c-3.96-4.1-7.82-8.28-11.53-12.61c-1.71-1.99-3.34-4.04-5-6.07c-1.49-1.82,0.01,0.02,0.26,0.35c-0.48-0.64-0.97-1.28-1.45-1.92
				c-0.85-1.15-1.68-2.3-2.5-3.47c-2.8-4-5.39-8.15-7.66-12.48c-0.61-1.17-1.2-2.35-1.76-3.54c-0.24-0.52-0.45-1.07-0.72-1.58
				c-0.82-1.54,0.86,2.4,0.31,0.75c-0.75-2.25-1.66-4.43-2.33-6.72c-4.72-16.09-29.93-9.24-25.18,6.94
				c5.72,19.5,18.41,36.19,31.84,51.07c13.33,14.78,28.2,28.04,42.71,41.64c6.01,5.63,12.02,11.31,17.52,17.45
				c1.12,1.25,2.18,2.55,3.28,3.82c1.73,2.01-0.55-0.81-0.32-0.45c0.41,0.65,0.93,1.25,1.36,1.89c0.75,1.09,1.47,2.21,2.11,3.38
				c0.27,0.49,0.48,1.02,0.77,1.5c1.1,1.83-0.89-3.35-0.4-0.86c0.08,0.41,0.22,1,0.38,1.37c0.86,1.93-0.27-3.52-0.2-1.78
				c0.13,3.53,1-3.07,0.15-0.36c-0.52,1.66,1.75-3.45,0.71-1.7c-1.12,1.88,0.82-0.91,1.13-1.32c-0.31,0.4-0.7,0.76-1.08,1.1
				c-0.92,0.82,3.21-1.8,0.92-0.78c-0.52,0.23-1.22,0.59-1.68,0.92c-1.36,0.98,3.34-1.11,0.88-0.38c-1.52,0.45-3,0.97-4.55,1.33
				c-0.95,0.22-1.91,0.42-2.87,0.59c-0.51,0.09-3.7,0.63-1.46,0.27c2.26-0.36-1.22,0.13-1.76,0.19c-1.45,0.15-2.9,0.26-4.35,0.36
				c-23.73,1.6-47.36-2.88-70.97,0.82c-17.08,2.68-32.91,9.93-46.4,20.66c-25.7,20.45-37.71,53.16-40.69,84.97
				c-3.11,33.14,4.03,67.9,19.75,97.21c15.22,28.39,40.79,52.46,72.86,59.74c17.97,4.08,36.66,3.09,54.39-1.71
				c1.79-0.48,5.3-0.84,6.74-2.03c-0.89,0.73-5.47,0.22-6.28,0c0.47,0.13-3.89-1.88-2.42-0.98c-3.23-1.96-2.57-2.19-1.25-0.77
				c1.59,1.71-2.09-3.2-0.29-0.36c2.82,4.46,5.34,9.05,7.71,13.78c18.93,37.69,34.77,76.89,53.33,114.76
				c10.64,21.71,21.81,43.25,34.56,63.81c11.39,18.37,24.16,36.14,40.48,50.46c44.78,39.28,104.07,53.87,151.72,88.52
				c4.51,3.28,8.7,6.7,13.7,11.39c2.32,2.17,4.57,4.42,6.73,6.74c1.24,1.33,2.46,2.69,3.65,4.07c0.45,0.52,0.89,1.04,1.33,1.57
				c2.03,2.43,0.24,2.19-0.35-1.11c1.12-4.23,2.24-8.47,3.36-12.7c2.8-1.61,3.09-1.92,0.88-0.92c-0.94,0.38-1.89,0.74-2.84,1.1
				c-1.89,0.72-3.8,1.4-5.72,2.04c-3.82,1.29-7.7,2.44-11.6,3.44c-7.56,1.95-15.22,3.37-21.73,4.04c-7.99,0.82-16.03,1.08-24.05,0.8
				c-7.74-0.27-14.72-0.98-21.25-2.13c-31.24-5.49-59.86-19.01-83.22-39.92c-4.8-4.3-10.17-4.49-15.82-2.04
				c1.25-0.54-2.93,1.01-3.47,1.18c-1.78,0.56-3.59,1.04-5.41,1.43c-1.35,0.29-2.74,0.57-4.12,0.75c1.93-0.24-2.97,0.15-3.46,0.17
				c-3.24,0.12-6.52,0.02-9.74-0.36c1.89,0.22-2.94-0.55-3.43-0.65c-1.37-0.3-2.73-0.63-4.09-1.01
				c-11.39-3.19-22.82-10.64-29.72-20.08c-2.15-2.95-4.04-6.09-5.7-9.34c-1.66-3.25-2.08-4.28-3.24-7.76
				c-2.31-6.88-3.5-13.05-3.85-19.22c-0.79-14.12,1.7-26.76,8.3-38.56c7.11-12.71-10.01-26.76-20.51-15.82
				c-0.92,0.96-1.86,1.91-2.84,2.8c-0.64,0.59-1.31,1.17-1.99,1.71c0.22-0.18,1.26-0.93,0.06-0.08c-2.28,1.61-4.68,2.94-7.16,4.21
				c-0.06,0.03-1.96,0.86-0.76,0.36c1.34-0.55-1.1,0.39-1.39,0.48c-1.2,0.4-2.4,0.78-3.62,1.11c-1.22,0.33-2.46,0.59-3.7,0.84
				c-0.62,0.13-1.24,0.23-1.87,0.33c1.91-0.28-0.05-0.02-0.94,0.03c-2.55,0.15-5.09,0.21-7.64,0.06c-0.64-0.04-4.51-0.48-2.26-0.14
				c-1.48-0.22-2.96-0.52-4.42-0.86c-2.53-0.59-5-1.35-7.43-2.23c-0.27-0.1-2.73-1.12-1.46-0.56c1.14,0.5-0.8-0.4-0.82-0.41
				c-1.35-0.71-2.72-1.38-4.04-2.14c-5.32-3.07-7.38-4.73-11.73-9.54c-3.15-3.48-6.53-8.87-9.03-14.48
				c0.51,1.15-0.71-1.79-0.87-2.21c-0.5-1.36-0.96-2.73-1.38-4.11c-1-3.25-1.79-6.56-2.39-9.91c-0.08-0.45-0.54-3.74-0.38-2.34
				c-0.17-1.46-0.29-2.93-0.39-4.41c-0.22-3.45-0.25-6.91-0.1-10.36c0.58-13.01,4.56-26.53,11.52-38.16
				c7.46-12.47-10.5-27.12-20.51-15.82c-2.72,3.07-5.63,5.9-8.77,8.55c-0.17,0.14-1.94,1.48-0.53,0.44
				c-0.72,0.53-1.44,1.05-2.18,1.55c-1.83,1.25-3.71,2.42-5.64,3.51c-1.92,1.08-3.9,2.06-5.9,2.99c-0.26,0.12-2.3,0.93-0.52,0.23
				c-0.82,0.32-1.64,0.63-2.47,0.93c-3.92,1.4-7.95,2.49-12.04,3.27c-0.86,0.16-1.72,0.31-2.59,0.45c-2.43,0.38,3.06-0.19-1.08,0.12
				c-1.74,0.13-3.48,0.29-5.23,0.35c-4.14,0.15-8.32,0-12.43-0.51c-2.43-0.3,2.98,0.66-1.07-0.19c-0.86-0.18-1.72-0.32-2.58-0.5
				c-1.71-0.36-3.41-0.77-5.1-1.24c-1.9-0.53-3.77-1.13-5.63-1.81c-1.03-0.37-2.06-0.75-3.07-1.18c1.63,0.7-0.52-0.28-1.09-0.57
				c-28.13-14.06-40.33-43.8-38.41-75.05c0.95-15.56,7.27-33.64,17.14-45.18c5.67-6.63,4.79-20.15-5.76-21.82
				c-6.74-1.07-14.51-3.38-18.96-5.49c-3.12-1.48-6.14-3.15-9.06-4.98c-3.55-2.23-5.72-3.83-8.04-5.79c-2.7-2.28-5.26-4.71-7.7-7.27
				c-2.47-2.59-5.33-5.97-6.63-7.77c-4.1-5.66-8.27-12.83-10.73-18.52c-11.56-26.73-8.1-57.78,7.15-82.78
				c8.31-13.62,19.25-24.06,34.06-31.12c4.66-2.22,8.04-9.8,6-14.75c-12.12-29.42-13.04-61.26-2.99-91.21
				c9.46-28.18,29.86-51.26,56.89-64.15c3.47-1.65,5.36-2.4,9.31-3.75c3.98-1.35,8.03-2.48,12.14-3.37
				c7.44-1.62,14.87-2.19,23.65-1.82c7.05,0.3,13.06-6.22,13.06-13.06C556.15,403.96,550.16,398.52,543.09,398.22L543.09,398.22z"/>
		</g>
	</g>
	<g class="st6">
		<path d="M949.09,1208.93c43.25-22.23,84.03-50.16,121.2-82.99c-35.78,12.58-75.28,12.14-110.81-1.25
			c-7.53-2.84-16.67,4.09-16.89,12.79c-0.61,24.77-1.22,49.54-1.84,74.31"/>
		<g>
			<path d="M955.68,1220.21c44.65-23.04,86.15-51.84,123.85-85.04c9.65-8.5-0.51-26.03-12.7-21.82
				c-17.13,5.92-34.78,8.94-52.92,8.63c-9.01-0.15-17.93-1.05-26.76-2.88c-8.89-1.84-17.24-5.46-26-7.48
				c-9.4-2.17-19.23,1.82-25.24,9.16c-7.08,8.66-6.42,18.83-6.68,29.4c-0.51,20.53-1.01,41.07-1.52,61.6
				c-0.42,16.81,25.7,16.8,26.11,0c0.47-18.9,0.93-37.81,1.4-56.71c0.11-4.56,0.23-9.13,0.34-13.69c0.05-1.96-0.3-4.25,0.36-4.4
				c0.41-0.09-2.71,2.95,0.15,0.27c-1.02,0.62-0.87,0.52,0.43-0.28c-1.22,0.41-1.09,0.39,0.38-0.05c-1.3-0.05-2.75-0.51-0.85,0.36
				c4.04,1.84,8.58,3.02,12.85,4.23c34.2,9.69,71.32,8.62,104.91-2.98c-4.23-7.27-8.47-14.55-12.7-21.82
				c-36.05,31.75-75.87,58.92-118.56,80.95c-6.26,3.23-8.11,12.01-4.68,17.86C941.53,1221.88,949.39,1223.45,955.68,1220.21
				L955.68,1220.21z"/>
		</g>
	</g>
	<g class="st6">
		<path d="M653.68,1376.43c55.55,118.96,177.71,196.77,299.8,190.97c186.17-8.85,372.33-17.7,558.5-26.54
			c-327.76,41.41-658.98,50.11-988.19,25.94c-9.97-0.73-17.66-13.17-14.57-23.55c24.81-83.18,82.82-153.82,155.82-189.75"/>
		<g>
			<path d="M642.4,1383.02c22.63,48.17,56.6,91.25,98.25,124.4c40.96,32.6,88.94,56.68,140.41,67.15
				c25.93,5.28,52.03,6.85,78.42,5.6c35.03-1.66,70.06-3.33,105.09-4.99c70.06-3.33,140.13-6.66,210.19-9.99
				c70.4-3.35,140.79-6.69,211.19-10.04c8.67-0.41,17.35-0.82,26.02-1.24c0-8.7,0-17.41,0-26.11
				c-87.15,10.99-174.58,19.71-262.19,26.1c-87.22,6.36-174.61,10.42-262.05,12.17c-87.42,1.76-174.89,1.21-262.28-1.64
				c-43.87-1.43-87.72-3.45-131.53-6.04c-22.08-1.31-44.14-2.76-66.2-4.36c-1.28-0.09-2.69-0.33-3.95-0.29
				c0.82-0.03,1.09,0.1,1.83,0.5c-0.73-0.4-1.49-0.74-2.16-1.25c0.89,0.67,0.55,0.82-0.25-0.47c1.27,2.05-1.39-2.32-0.89-1.28
				c0.58,1.21-0.41-1.3-0.5-1.56c-0.46-1.35,0.14,1.16-0.23-1.14c-0.32-1.95,0.06-1.47-0.11-0.52c0.17-0.95,0.51-1.89,0.78-2.81
				c0.59-2,1.23-3.99,1.88-5.98c1.45-4.46,3-8.89,4.64-13.28c22.72-60.73,66.09-115.63,121.54-149.46
				c6.92-4.22,14.04-8.12,21.3-11.72c6.32-3.13,8.07-12.08,4.68-17.86c-3.77-6.44-11.52-7.83-17.86-4.68
				c-62.94,31.2-113.46,86.02-143.25,149.29c-4.01,8.53-7.7,17.23-11.05,26.04c-3.03,7.96-6.63,16.43-8.08,24.86
				c-1.78,10.35,1.45,20.94,8.67,28.59c7.91,8.38,18.13,8.81,28.92,9.58c45.1,3.22,90.24,5.82,135.42,7.81
				c89.99,3.96,180.09,5.47,270.17,4.54c90.08-0.93,180.14-4.31,270.04-10.12c89.95-5.82,179.74-14.08,269.25-24.78
				c11.15-1.33,22.3-2.7,33.44-4.11c6.99-0.88,13.06-5.37,13.06-13.06c0-6.81-5.98-13.39-13.06-13.06
				c-69.06,3.28-138.12,6.56-207.19,9.85c-69.06,3.28-138.12,6.56-207.19,9.85c-34.7,1.65-69.4,3.3-104.09,4.95
				c-28.61,1.36-57.15,3.65-85.69,0.24c-2.97-0.35-2.88-0.34-6.44-0.89c-3.3-0.51-6.59-1.08-9.87-1.71
				c-6.1-1.16-12.16-2.52-18.18-4.07c-11.85-3.05-23.51-6.82-34.91-11.27c-10.42-4.06-21.49-9.23-32.42-15.12
				c-11.17-6.02-21.99-12.68-32.4-19.94c-40.9-28.52-75.59-67.58-99.69-112.05c-3.17-5.84-6.14-11.78-8.97-17.8
				c-3-6.38-12.17-8.02-17.86-4.68C640.55,1368.98,639.39,1376.62,642.4,1383.02L642.4,1383.02z"/>
		</g>
	</g>
</g>
<g id="Ebene_12">
	<g>
		<g id="Ebene_8_1_">
			<g class="st7">
				<path d="M881.26,1529.18c-28,73.49-47.41,143.11-77.52,222.12c104.34-41.14,215.26-91.3,300.62-159.12
					c56.71-45.06,102.36-100,149.47-153.25c99.89-112.88,208.11-219.8,323.74-319.82c-15.11-1.62-20.93-20.42-14-32.6
					s21.23-19.18,34.28-26.21c13.05-7.04,26.61-16.07,29.95-29.41c-21.29-30.86-42.49-66.43-79.91-80.09
					c-41.11-15.01-39.13-20.63-86.18,29.33c-4.86,5.16-31.07,31.33-37.62,41.5c-80.65,125.3-53.39,93.19-74.88,75.11"/>
				<g>
					<path d="M878.44,1528.94c-21.42,56.32-38.98,113.74-58.76,170.53c-6.02,17.27-12.24,34.47-18.75,51.59
						c-0.8,2.11-0.09,4.69,2.88,3.53c60.71-23.96,120.71-49.71,177.78-80.15c57.04-30.43,110.96-65.65,157.35-108.44
						c48.11-44.38,89.01-94.45,132.21-142.59c44.78-49.89,91.19-98.6,139.16-146.03c48.1-47.56,97.77-93.84,148.93-138.76
						c6.38-5.6,12.78-11.18,19.2-16.73c1.36-1.18,4.22-5.95,0.66-6.42c-12.01-1.61-17.05-14.28-14.66-23.91
						c3.11-12.55,18.75-20.08,29.99-26.1c12.02-6.44,24.46-13.53,31.76-24.64c1.76-2.67,3.15-5.54,4.11-8.53
						c1.14-3.57-0.09-4.91-2.17-7.96c-3.75-5.49-7.45-11-11.25-16.46c-14.74-21.23-31.5-43.22-56.23-55.92
						c-9.38-4.82-19.93-8.36-30.02-11.86c-6.05-2.1-12.44-4.04-19-3.31c-6.83,0.76-12.76,4.42-17.88,8.34
						c-9.44,7.23-17.54,15.98-25.59,24.41c-14.16,14.82-29.29,29.22-42.02,45.07c-8.48,10.56-15.05,22.5-22.23,33.79
						c-6.38,10.04-12.74,20.11-19.1,30.16c-4.11,6.49-8.19,12.99-12.41,19.41c-1.45,2.21-2.91,4.41-4.43,6.57
						c-0.54,0.77-1.09,1.54-1.65,2.3c-0.26,0.36-0.53,0.71-0.79,1.06c0.7-0.91-0.18,0.22-0.33,0.4c-0.43,0.51-0.86,1.01-1.3,1.51
						c-0.16,0.19-0.34,0.36-0.51,0.54c-0.71,0.74,0.66-0.6-0.04,0.04c-0.78,0.71-0.2,0.11-0.19,0.2c0.02,0.25,0.28-0.01-0.14,0.04
						c0.7-0.09,0.35-0.18,0.45,0.01c-0.3-0.53-0.8-1.04-1.13-1.56c-0.22-0.36-0.4-0.78-0.96-1.95c-0.51-1.05-1.01-2.11-1.56-3.15
						c-1.27-2.45-2.7-4.81-4.53-6.96c-1.01-1.18-2.12-2.28-3.32-3.3c-2.97-2.53-7.93,3.96-5.5,6.02c1.97,1.68,3.67,3.57,5.11,5.63
						c1.28,1.83,2.25,3.64,2.91,5.01c1.06,2.19,2.08,6.13,4.77,7.22c4.12,1.66,8.09-3.73,10.01-6.18
						c6.14-7.86,11.23-16.41,16.51-24.73c10.99-17.31,21.9-34.66,32.96-51.94c5.14-8.03,10.13-15.69,16.55-22.93
						c6.09-6.88,12.48-13.54,18.89-20.17c12.58-13,24.4-26.93,38.44-38.68c4.22-3.53,8.96-7.22,14.67-8.54
						c4.78-1.11,9.73-0.23,14.34,1.1c7.05,2.04,13.8,4.92,20.63,7.47c10.66,3.97,20.36,8.82,29.18,15.57
						c18.47,14.13,31.63,33.13,44.18,51.53c3.14,4.6,6.26,9.22,9.42,13.8c-0.12-0.77-0.24-1.54-0.36-2.3
						c-3.28,11.91-15.92,19.46-26.91,25.41c-11.09,6.01-22.81,11.81-31.13,20.98c-7,7.72-10.6,17.14-8.6,27.08
						c1.74,8.62,7.9,16.34,17.99,17.69c0.22-2.14,0.44-4.28,0.66-6.42c-51.24,44.34-101.05,90.02-149.32,136.96
						c-48.22,46.89-94.9,95.06-139.98,144.41c-43.85,48.02-84.76,98.39-131.18,144.47c-45.12,44.8-97.11,82.33-154.05,114.34
						c-56.23,31.61-115.79,58.2-176.23,82.61c-7.4,2.99-14.82,5.95-22.25,8.88c0.96,1.18,1.92,2.35,2.88,3.53
						c21.79-57.29,39.81-115.61,59.86-173.4c5.66-16.31,11.51-32.56,17.66-48.72C885.98,1524.4,879.93,1525.04,878.44,1528.94
						L878.44,1528.94z"/>
				</g>
			</g>
		</g>
		<g id="Ebene_3_1_">
			<g>
				<g>
					<path d="M870.77,1641.96c-9.55,38.25-21.98,75.88-37.17,112.63c-0.83,2.02-0.04,4.82,2.88,3.53
						c38.04-16.85,76.09-33.71,114.13-50.56c1.76-0.78,4.56-4.6,2.69-6.3c-24.71-22.49-49.43-44.99-74.14-67.49
						c-2.86-2.61-7.87,3.87-5.5,6.02c24.71,22.49,49.43,44.99,74.14,67.49c0.9-2.1,1.79-4.2,2.69-6.3
						c-38.04,16.85-76.09,33.71-114.13,50.56c0.96,1.18,1.92,2.35,2.88,3.53c15.44-37.36,28.06-75.64,37.76-114.52
						c0.38-1.52-0.41-3.19-2.36-2.88C872.57,1637.99,871.17,1640.33,870.77,1641.96L870.77,1641.96z"/>
				</g>
			</g>
		</g>
		<g id="Ebene_4">
			<g>
				<path class="st8" d="M917.09,1529.18c-2.62,19.31-13.91,36.63-22.15,54.61c-8.24,17.98-13.35,39.05-3.69,56.45
					c7.16,12.9,21.14,21.42,31.95,32.08c10.99,10.84,20.81,25.21,36.98,27.17c9.74,1.19,19.28-2.66,28.19-6.41
					c29.1-12.26,58.19-24.52,87.29-36.79c-55.86-36.66-107.84-78.1-155.01-123.56"/>
				<g>
					<path class="st8" d="M913.98,1529.89c-3.09,21.66-16.8,40.17-24.74,60.43c-7.41,18.91-10.45,40.91,2.83,58.36
						c6.16,8.09,14.64,14.41,22.41,21.17c7.25,6.31,13.23,13.58,20.13,20.19c6.35,6.08,13.8,11.58,23.22,12.99
						c12.48,1.87,24.49-4.09,35.39-8.68c27.5-11.59,55-23.18,82.5-34.77c2.17-0.91,4.64-5.11,2.16-6.74
						c-43.43-28.54-84.54-59.91-122.84-93.87c-10.77-9.55-21.32-19.31-31.64-29.25c-2.76-2.66-7.82,3.8-5.5,6.02
						c36.92,35.54,76.72,68.66,119.04,98.96c11.97,8.58,24.15,16.92,36.51,25.04c0.72-2.25,1.44-4.49,2.16-6.74
						c-23.42,9.87-46.84,19.74-70.26,29.61c-5.85,2.46-11.68,4.93-17.53,7.39c-5.53,2.32-11.17,4.6-17.22,5.6
						c-10.33,1.72-19.43-2.1-26.87-8.32c-7-5.85-12.51-12.98-19.06-19.21c-7.16-6.82-15.36-12.7-22.22-19.79
						c-7.11-7.34-11.92-15.89-12.98-25.67c-1.07-9.88,1.02-19.86,4.42-29.23c7.98-21.96,22.99-41.62,26.31-64.92
						C920.94,1523.29,914.47,1526.46,913.98,1529.89L913.98,1529.89z"/>
				</g>
			</g>
		</g>
		<g id="Ebene_5">
			<g>
				<path class="st9" d="M1346.35,1123.77c-135.21,123.73-269.38,240.48-399.52,368.52c-7.85,7.73-25.91,25.92-25.24,36.37
					c0.72,11.12,23.48,18.3,32.24,26.18c37.72,33.9,63.52,49.9,106.64,84.71c3.48,2.81,20.5,27.88,43.11,3.47
					c120.74-130.32,401.75-421.6,401.13-427.21c-0.5-4.5-3.38-8.92-7.56-11.43c-38.46-23.12-71.2-57.12-112.43-78.57
					c-12.97-6.75-33.15-11.01-40.05,0.95"/>
				<g>
					<path class="st9" d="M1345.48,1120.99c-29.15,26.67-58.45,53.2-87.79,79.7c-28.97,26.16-57.98,52.29-86.91,78.48
						c-28.87,26.14-57.66,52.36-86.26,78.74c-28.84,26.61-57.47,53.38-85.79,80.43c-14.26,13.63-28.45,27.32-42.54,41.09
						c-10.24,10.01-20.87,19.86-29.3,31.2c-3.59,4.82-7.16,10.28-8.21,16.09c-0.95,5.23,1.09,9.75,5.18,13.46
						c4.66,4.23,10.42,7.32,15.99,10.46c2.72,1.54,5.45,3.07,8.03,4.8c2.98,2,5.49,4.46,8.14,6.8
						c23.74,20.94,49.44,39.81,74.74,59.17c7.21,5.52,14.37,11.09,21.46,16.74c3.64,2.9,6.7,5.75,9.92,8.95
						c6.82,6.81,16.29,12.45,26.84,9.14c11.75-3.7,19.28-14.42,26.96-22.68c6.7-7.19,13.41-14.37,20.13-21.55
						c15.25-16.28,30.55-32.52,45.87-48.75c16.8-17.8,33.63-35.57,50.48-53.34c17.65-18.61,35.31-37.21,52.98-55.81
						c17.47-18.39,34.94-36.78,52.41-55.18c16.6-17.47,33.18-34.95,49.76-52.44c14.71-15.53,29.41-31.06,44.07-46.62
						c12.1-12.85,24.19-25.72,36.21-38.63c8.54-9.18,17.07-18.38,25.45-27.68c4.43-4.92,9.21-9.82,12.97-15.2
						c3.59-5.12,0.21-11.63-4.25-15.53c-3.01-2.62-6.87-4.53-10.26-6.72c-3.61-2.33-7.15-4.75-10.66-7.21
						c-7.09-4.99-13.99-10.19-20.82-15.45c-13.83-10.65-27.41-21.57-41.76-31.66c-7.15-5.03-14.49-9.84-22.12-14.27
						c-6.52-3.79-13.15-7.49-20.57-9.69c-12.12-3.61-26.55-3.64-33.45,7.7c-0.74,1.21-1.67,3.73,0.09,4.65
						c1.72,0.89,3.81-1.08,4.53-2.26c2.79-4.59,8.95-5.36,14.28-5.01c6.65,0.43,13.1,2.46,18.98,5.21
						c15.28,7.16,29.23,17.06,42.5,26.84c13.8,10.18,27.06,20.94,40.74,31.24c6.61,4.98,13.32,9.85,20.23,14.47
						c6.45,4.31,15.55,7.86,17.55,15.52c0.32,1.23-0.01,1.55,0.33,0.41c0.19-0.63,0.4-1.19,0.2-0.71c0.37-0.87,0.63-1.01,0.13-0.33
						c-0.21,0.28-0.43,0.57-0.62,0.86c-0.35,0.54,0.84-1.04,0.25-0.33c-0.17,0.2-0.32,0.41-0.49,0.61
						c-1.82,2.24-3.72,4.43-5.63,6.62c-6.88,7.83-13.97,15.52-21.06,23.19c-10.57,11.44-21.22,22.82-31.9,34.19
						c-13.44,14.31-26.92,28.59-40.41,42.86c-15.58,16.47-31.18,32.92-46.79,49.36c-16.77,17.67-33.55,35.32-50.32,52.98
						c-17.31,18.22-34.62,36.44-51.93,54.68c-16.9,17.8-33.78,35.61-50.64,53.43c-15.77,16.66-31.52,33.33-47.23,50.03
						c-13.9,14.78-27.79,29.58-41.61,44.42c-3.03,3.25-6.05,6.51-9.08,9.76c-4.21,4.54-8.67,9.57-15.29,11.21
						c-9.58,2.38-17.62-4.12-23.33-10.19c-3.73-3.97-8.22-7.23-12.56-10.66c-6.72-5.32-13.51-10.57-20.33-15.78
						c-12.22-9.32-24.58-18.49-36.71-27.91c-12.7-9.86-25.07-20.05-37-30.67c-4.63-4.12-9.47-7.36-14.99-10.47
						c-5.38-3.03-11.26-5.98-15.61-10.21c-3.66-3.56-4.68-7.01-2.73-11.53c2.3-5.31,6.23-10.1,10.1-14.58
						c9.83-11.37,21.19-21.72,32.05-32.28c27.51-26.75,55.36-53.21,83.46-79.47c27.79-25.97,55.81-51.72,83.97-77.37
						c28.26-25.74,56.64-51.38,85.04-77c28.41-25.64,56.83-51.26,85.16-76.97c13.86-12.58,27.7-25.18,41.5-37.81
						c1.37-1.25,2.9-3.29,2.21-5.15C1348.81,1119.72,1346.69,1119.88,1345.48,1120.99L1345.48,1120.99z"/>
				</g>
			</g>
		</g>
		<g id="Ebene_6">
			<g>
				<path class="st10" d="M1419.35,1016.55c-22.66,18.69-43.35,39.3-61.71,61.47c-4.59,5.54-9.24,11.85-8.44,18.72
					c0.91,7.74,8.35,13.35,15.24,18.08c41.79,28.72,85.8,54.43,127.59,83.15c8.61,5.91,16.43,15.18,27.08,13.4
					c8.74-1.46,17.93-6.54,20.92-14.07c8.54-21.49,31.02-38.73,45.62-48.64c6.8-4.62,11.28-12.38,11.37-20.04
					c0.11-9.88-9.12-17.56-17.7-23.75c-49.13-35.47-101.46-67.36-156.3-95.25"/>
				<g>
					<path class="st10" d="M1418.47,1013.77c-17.84,14.75-34.53,30.63-49.82,47.54c-3.88,4.29-7.66,8.65-11.36,13.07
						c-3.45,4.13-6.85,8.31-9.12,13.08c-2.09,4.37-2.97,9.34-1.58,13.99c1.31,4.37,4.46,8.05,8.05,11.12
						c8.53,7.3,18.68,13.29,28.16,19.53c10.29,6.77,20.67,13.42,31.07,20.05c20.81,13.24,41.73,26.35,62.22,40
						c4.93,3.29,9.92,6.54,14.71,9.98c3.89,2.79,7.4,5.99,11.41,8.64c3.5,2.31,7.63,4.29,12.07,4.45c4.73,0.17,9.61-1.4,13.77-3.31
						c4.27-1.96,8.2-4.79,11.05-8.27c2.98-3.64,4.23-7.9,6.41-11.91c4.48-8.25,10.86-15.58,17.89-22.2
						c6.11-5.76,12.87-10.98,19.86-15.87c3.85-2.7,7.47-5.32,10.31-8.94c3.06-3.91,5.27-8.41,6.16-13.13
						c1.79-9.42-2.78-17.33-10.12-23.81c-8.14-7.18-17.64-13.26-26.67-19.51c-38.89-26.93-79.67-51.66-122.02-73.98
						c-5.21-2.75-10.45-5.46-15.71-8.14c-3.17-1.61-7.6,5.3-4.44,6.91c40.17,20.45,79.01,43,116.22,67.57
						c9.45,6.24,18.8,12.6,28.03,19.09c8.02,5.63,17.02,11.07,23.35,18.32c2.87,3.28,5.22,7.11,5.41,11.37
						c0.18,4.17-1.36,8.45-4.02,11.85c-2.41,3.09-5.84,5.15-9.09,7.44c-3.15,2.22-6.23,4.52-9.23,6.9
						c-14.18,11.24-27.17,24.61-33.93,40.69c-2.92,6.93-12.64,12.29-20.96,11.59c-8.68-0.74-15.25-8.34-21.64-12.9
						c-18.72-13.3-38.46-25.54-57.94-37.91c-19.74-12.53-39.53-25-58.92-37.98c-4.54-3.04-9.11-6.07-13.55-9.23
						c-3.81-2.72-7.55-5.7-10.04-9.51c-5.92-9.06,2.47-17.57,8.39-24.55c13.83-16.28,28.91-31.71,45.16-46.07
						c4-3.53,8.07-7,12.2-10.41c1.42-1.17,2.88-3.35,2.21-5.15C1421.78,1012.45,1419.73,1012.73,1418.47,1013.77L1418.47,1013.77z"
						/>
				</g>
			</g>
		</g>
		<g id="Ebene_7">
			<g>
				<path class="st11" d="M1448.16,1014.46c11.08-27.76,35.19-46.37,55.93-67.88c3.13-3.25,12.97-3.34,17.7-3.98
					c5.23-0.71,10.11,2.25,14.38,5.07c35.31,23.31,70.62,46.62,105.93,69.94c6.77,4.47,14.3,10.41,13.34,17.9
					c-0.57,4.51-4.18,8.18-7.61,11.51c-15.71,15.26-31.42,30.51-47.13,45.77c-3.63,3.52-7.7,7.26-12.99,7.86
					c-5.84,0.67-11.22-2.67-15.93-5.85c-41.29-27.8-82.58-55.6-123.87-83.4"/>
				<g>
					<path class="st12" d="M1450.97,1014.7c5.4-13.33,14.25-24.97,24.37-35.74c5.07-5.4,10.4-10.59,15.74-15.77
						c2.36-2.29,4.72-4.58,7.06-6.89c1.28-1.26,2.56-2.53,3.82-3.8c0.63-0.64,1.27-1.28,1.89-1.91c0.42-0.43,0.83-0.86,1.25-1.28
						c0.73-0.71,0.85-0.85,0.33-0.4c2.21-1.4,5.49-1.64,8.09-1.95c3.05-0.36,6.58-1.03,9.66-0.73c4.04,0.39,7.6,2.83,10.78,4.91
						c4.11,2.69,8.19,5.41,12.29,8.12c15.45,10.2,30.9,20.4,46.34,30.6c15.76,10.41,31.58,20.75,47.29,31.22
						c5.08,3.39,12.33,8.22,12.44,14.52c0.06,3.27-2.56,5.82-4.84,8.1c-3.3,3.31-6.72,6.54-10.08,9.8
						c-12.98,12.61-25.82,25.34-38.95,37.82c-2.33,2.22-4.93,4.58-8.28,5.45c-4.31,1.11-8.56-0.76-12.1-2.81
						c-7.98-4.61-15.39-10.22-22.99-15.33c-34.98-23.56-69.97-47.11-104.96-70.67c-2.79-1.88-7.43,4.9-4.44,6.91
						c33.57,22.6,67.13,45.2,100.7,67.8c8.25,5.55,16.4,11.24,24.76,16.65c6.97,4.51,14.87,7.05,22.65,2.47
						c3.57-2.1,6.45-4.91,9.33-7.71c3.46-3.36,6.92-6.72,10.38-10.09c7.06-6.85,14.11-13.7,21.17-20.56
						c3.6-3.49,7.19-6.98,10.79-10.47c3.19-3.11,6.57-6.11,9.21-9.63c4.69-6.26,5.46-13.67,0.52-19.99
						c-4.95-6.33-13.05-10.63-19.86-15.12c-8.35-5.51-16.71-11.03-25.06-16.55c-16.71-11.03-33.42-22.06-50.13-33.1
						c-8.29-5.48-16.4-11.44-25.06-16.44c-3.47-2-7.36-3.54-11.55-3.22c-3.21,0.24-6.47,0.56-9.66,0.99
						c-3.04,0.41-6.18,1.03-8.79,2.55c-3.26,1.89-5.7,5.22-8.28,7.78c-5.61,5.57-11.36,11.03-16.96,16.6
						c-11.27,11.22-22.03,23.13-29.45,36.79c-1.88,3.45-3.57,6.97-5.03,10.58c-0.53,1.31-0.74,3.59,1.28,3.88
						C1448.6,1018.4,1450.42,1016.06,1450.97,1014.7L1450.97,1014.7z"/>
				</g>
			</g>
		</g>
		<g id="Ebene_2_1_">
			<g>
				<g>
					<path d="M1421.5,1005.9c-16.26,17.3-32.55,34.57-48.84,51.84c-4.18,4.44-8.37,8.88-12.55,13.32
						c-3.79,4.02-8.22,7.94-11.18,12.52c-4.86,7.55-5.32,17.1-0.35,24.68c2.82,4.3,7.31,6.91,11.74,9.73
						c5.72,3.63,11.42,7.29,17.12,10.94c11.34,7.29,22.65,14.62,33.95,21.97c22.43,14.59,44.83,29.21,67.44,43.57
						c5.63,3.57,11.26,7.14,16.92,10.67c2.67,1.67,5.34,3.33,8.02,4.99c2.62,1.63,5.21,3.59,8.19,4.66
						c10.13,3.63,19.76-2.82,24.88-10.33c4.67-6.86,8.72-14.12,14.13-20.56c4.92-5.85,10.92-10.65,16.85-15.63
						c5.15-4.33,9.98-9.01,14.66-13.75c5.33-5.4,10.69-11.01,14.79-17.24c1.47-2.24,2.86-4.68,3.3-7.27
						c0.81-4.72-0.88-9.62-3.47-13.69c-2.82-4.42-6.9-7.95-11.14-11.27c-4.93-3.86-9.9-7.67-14.93-11.43
						c-40.15-30.07-83.13-57.02-127.78-81.4c-5.59-3.05-11.2-6.06-16.84-9.03c-3.12-1.65-7.59,5.24-4.44,6.91
						c42.86,22.61,84.31,47.43,123.41,75.02c9.87,6.96,19.58,14.09,29.13,21.41c7.83,6,18.94,13.07,19.78,23.2
						c0.06,0.7,0.08,1.4-0.01,2.1c-0.07,0.51,0.21-0.41-0.2,0.55c-0.34,0.8-0.07,0.25-0.36,0.78c-0.37,0.66-0.78,1.31-1.21,1.94
						c-1.7,2.56-3.72,4.93-5.78,7.26c-4.82,5.47-10.03,10.68-15.43,15.7c-4.72,4.39-9.91,8.32-14.69,12.65
						c-5.41,4.89-10.1,10.16-14.22,15.98c-2.34,3.31-4.53,6.7-6.73,10.08c-2.43,3.74-4.5,7.94-8.82,10.21
						c-4.04,2.12-8.72,2.05-12.73-0.1c-5.63-3.02-10.93-6.74-16.31-10.11c-43.15-27.07-85.39-55.29-128.3-82.65
						c-4.59-2.92-10.14-5.57-13.68-9.58c-2.7-3.05-4.32-6.8-4.43-10.7c-0.11-3.7,1.18-7.12,3.79-9.98
						c3.79-4.17,7.75-8.23,11.63-12.34c15.71-16.67,31.42-33.32,47.12-49.99c3.61-3.83,7.21-7.66,10.82-11.5
						c1.11-1.18,2.34-3.65,1.12-5.08C1424.62,1003.47,1422.45,1004.89,1421.5,1005.9L1421.5,1005.9z"/>
				</g>
			</g>
			<g>
				<g>
					<path d="M1442.63,1017.77c18.22-21.19,34.72-44.16,55.95-63.09c3.9-3.48,8.02-6.97,12.71-9.58c3.08-1.71,6.31-3.17,9.83-2.55
						c4.47,0.79,8.76,3.38,12.55,5.52c5.61,3.19,10.96,6.74,16.23,10.35c9.46,6.49,18.47,13.52,28.01,19.91
						c13.16,8.82,27.66,16.14,41.37,24.25c7.4,4.37,14.68,8.89,21.82,13.58c3.95,2.59,8.29,5.07,11.83,8.11
						c2.08,1.79,3.48,3.85,3.35,6.49c-0.14,2.83-1.12,5.66-1.67,8.44c-0.18,0.91-0.33,1.82-0.48,2.73
						c-0.14,0.83,0.02,0.02-0.03,0.19c-0.09,0.3-0.51,1.05-0.14,0.37c-0.28,0.52-0.61,1.01-0.94,1.5c-2.72,4.03-7.12,8.33-11,12.09
						c-8.32,8.09-17.29,15.55-26.25,23.06c-8.91,7.46-16.99,15.23-24.56,23.79c-2.63,2.97-5.27,5.95-7.92,8.9
						c-1.08,1.21-2.36,3.63-1.12,5.08c1.25,1.47,3.46,0.09,4.38-0.94c8.03-8.95,15.67-18.15,24.91-26.14
						c9.74-8.43,19.82-16.5,29.23-25.24c4.71-4.38,9.38-8.85,13.48-13.71c1.64-1.95,3.25-3.97,4.48-6.15
						c1.4-2.49,1.76-4.95,2.33-7.67c1.17-5.63,3.36-11.83-0.74-16.94c-2.67-3.34-6.95-5.68-10.57-8.1
						c-4.06-2.72-8.16-5.39-12.31-8.01c-14.79-9.33-30.21-17.79-45.32-26.68c-10.41-6.13-19.87-13.16-29.61-20.11
						c-10.18-7.25-20.73-15.3-32.62-20.2c-3.78-1.55-7.47-2.46-11.57-1.41c-4.94,1.25-9.34,4.07-13.29,6.92
						c-11.48,8.28-21.03,18.87-30.17,29.16c-10.12,11.4-19.67,23.2-29.42,34.85c-1.99,2.38-3.99,4.75-6.01,7.1
						c-1.06,1.23-2.37,3.61-1.12,5.08C1439.48,1020.16,1441.73,1018.82,1442.63,1017.77L1442.63,1017.77z"/>
				</g>
			</g>
			<g>
				<g>
					<path d="M1356.2,1107.37c-35.5,34.22-71.68,67.87-108.2,101.23c-36.32,33.17-72.95,66.05-109.55,98.98
						c-36.66,32.97-73.28,65.98-109.51,99.33c-18.05,16.62-36.01,33.32-53.83,50.14c-9.09,8.58-18.15,17.2-27.16,25.85
						c-5.98,5.74-12.06,11.42-17.56,17.54c-5.23,5.82-10.69,12.31-13.15,19.57c-2.78,8.21,1.62,14.83,8.23,20.41
						c9.21,7.79,19.1,14.98,28.66,22.42c10.19,7.93,20.38,15.87,30.56,23.81c20.23,15.75,40.45,31.51,60.68,47.26
						c5.02,3.91,10.03,7.82,15.06,11.73c4.18,3.25,8.39,6.62,13.33,8.92c9.51,4.43,19.24,2.79,27.26-3.33
						c8.57-6.53,15.11-15.5,22.07-23.33c7.93-8.92,15.87-17.84,23.83-26.73c15.75-17.61,31.56-35.18,47.44-52.7
						c31.07-34.29,62.39-68.41,93.93-102.36c31.57-33.98,63.36-67.79,95.32-101.46c33.01-34.78,66.19-69.42,99.49-103.97
						c8.48-8.8,16.96-17.59,25.45-26.37c1.12-1.16,2.33-3.66,1.12-5.08c-1.27-1.49-3.43-0.05-4.38,0.94
						c-33.32,34.47-66.54,69.02-99.6,103.7c-31.64,33.19-63.13,66.49-94.42,99.95c-30.95,33.11-61.71,66.36-92.24,99.8
						c-31.26,34.23-62.28,68.64-93.05,103.22c-7.4,8.32-14.48,17.01-22.35,24.97c-2.98,3.02-6.5,6.04-10.84,7.38
						c-5.11,1.58-10.39,0.52-15.03-1.73c-4.93-2.39-9.15-5.79-13.35-9.07c-4.87-3.79-9.73-7.58-14.6-11.37
						c-9.89-7.7-19.77-15.39-29.65-23.09c-19.92-15.52-39.84-31.03-59.77-46.54c-9.66-7.52-19.55-14.87-28.99-22.62
						c-3.59-2.95-7.8-6.74-8.71-11.23c-0.44-2.19,0.59-4.47,1.62-6.41c3.49-6.63,9.07-12.44,14.42-17.89
						c6.66-6.8,13.68-13.32,20.59-19.91c17.49-16.71,35.14-33.28,52.9-49.76c35.45-32.91,71.36-65.42,107.35-97.84
						c36.02-32.44,72.13-64.79,108.02-97.35c35.71-32.41,71.18-65.03,106.09-98.14c8.64-8.19,17.25-16.42,25.81-24.68
						c1.16-1.12,2.31-3.69,1.12-5.08C1359.28,1104.9,1357.19,1106.41,1356.2,1107.37L1356.2,1107.37z"/>
				</g>
			</g>
			<g>
				<g>
					<path d="M913.73,1520.97c-11.8,29.93-23.07,60.02-33.95,90.23c-11.58,32.12-22.72,64.37-33.32,96.76
						c-5.66,17.29-11.15,34.63-16.41,52.02c-0.62,2.05,1.04,3.53,3.17,2.58c65.74-29.16,131.58-58.21,198.68-84.78
						c18.1-7.17,36.3-14.15,54.61-20.89c3.18-1.17,4.77-8.38-0.12-6.58c-66.62,24.5-131.72,52.21-196.4,80.56
						c-18.99,8.32-37.94,16.71-56.89,25.11c1.06,0.86,2.11,1.72,3.17,2.58c9.46-31.22,19.65-62.27,30.25-93.2
						c10.89-31.76,22.23-63.4,34.02-94.89c6.14-16.39,12.39-32.74,18.82-49.03c0.51-1.31,0.75-3.59-1.28-3.88
						C916.11,1517.28,914.27,1519.61,913.73,1520.97L913.73,1520.97z"/>
				</g>
			</g>
			<g>
				<path d="M875.15,1632.27c23.35,17.65,62.41,59.22,84.65,71.8c-39.53,14.91-80.27,35.72-123.01,51.85
					c17.8-66.58,32.76-109.07,37.17-120.27"/>
				<g>
					<path d="M872.93,1635.73c11.57,8.78,22.03,18.77,32.58,28.5c11.52,10.62,22.97,21.34,35.23,31.29
						c5.31,4.31,10.79,8.55,16.84,12c0.72-2.25,1.44-4.49,2.16-6.74c-41.76,15.8-81.24,36.05-123.01,51.85
						c1.06,0.86,2.11,1.72,3.17,2.58c9.66-36.1,20.04-72.13,32.53-107.53c1.39-3.95,2.8-7.89,4.34-11.79
						c0.51-1.31,0.75-3.59-1.28-3.88c-1.95-0.28-3.8,2.04-4.34,3.41c-10.35,26.34-18.28,53.57-26.13,80.57
						c-3.93,13.51-7.7,27.06-11.33,40.64c-0.57,2.15,0.99,3.4,3.17,2.58c41.78-15.8,81.24-36.05,123.01-51.85
						c2.1-0.79,4.73-5.28,2.16-6.74c-11.81-6.75-21.92-16.04-31.79-24.86c-11.95-10.68-23.51-21.71-35.47-32.37
						c-5.63-5.01-11.34-9.97-17.39-14.56C874.76,1626.84,870.07,1633.55,872.93,1635.73L872.93,1635.73z"/>
				</g>
			</g>
		</g>
		<g id="Ebene_9_1_">
			<g class="st13">
				<g>
					<path d="M1518.1,942.65c3.46,0,6.85-7.3,3.05-7.3C1517.7,935.36,1514.31,942.65,1518.1,942.65L1518.1,942.65z"/>
				</g>
			</g>
			<g class="st13">
				<path d="M1514.38,943.07c-0.32,55.18,25.76,110.07,70.32,148.02c3.9,3.33,7.28,10.26,2.17,11.77c-2.34,0.69-4.74-0.72-6.72-2.05
					c-40.9-27.68-81.8-55.36-122.7-83.03c-3.37-2.28-6.98-4.9-7.74-8.63c-0.81-3.97,1.91-7.77,4.56-11.03
					c17.71-21.72,38.68-41.29,62.16-58.02"/>
				<g>
					<path d="M1511.18,944.67c-0.17,50.53,21.15,100.83,58.79,138.39c2.13,2.12,4.31,4.21,6.53,6.24c2.41,2.2,5.27,4.24,7.32,6.73
						c0.72,0.88,1.38,1.82,1.83,2.83c0.18,0.4,0.32,1.94,0.62,2.24c0.46-0.61,0.91-1.21,1.36-1.81c-0.69,0.17-1.37,0.12-2.03-0.13
						c-0.73-0.2-1.43-0.66-2.06-1.04c-2.03-1.21-3.93-2.62-5.88-3.93c-13.84-9.37-27.69-18.73-41.53-28.1
						c-13.84-9.37-27.69-18.73-41.53-28.1c-6.92-4.68-13.84-9.37-20.77-14.05c-3.15-2.13-6.3-4.26-9.44-6.39
						c-3.23-2.19-7.06-4.27-9.62-7.14c-2.7-3.03-2.11-5.83,0.13-8.9c2.32-3.17,5.03-6.16,7.64-9.15
						c5.27-6.04,10.8-11.89,16.56-17.54c11.76-11.54,24.58-22.17,38.2-31.91c1.49-1.06,2.85-3.43,2.21-5.15
						c-0.67-1.8-2.64-1.33-3.95-0.4c-13.11,9.37-25.42,19.6-36.88,30.57c-5.6,5.37-10.99,10.91-16.15,16.63
						c-4.99,5.54-10.87,11.32-14.23,17.82c-1.6,3.08-2.54,6.6-1.46,9.97c0.99,3.1,3.54,5.4,6.23,7.4
						c7.05,5.25,14.67,9.98,21.99,14.93c14.79,10.01,29.58,20.02,44.36,30.02c14.78,10.01,29.58,20.02,44.36,30.02
						c3.77,2.55,7.55,5.11,11.32,7.66c2.88,1.95,6.21,4.84,10.13,4.26c6.74-1,8.65-8.19,6.3-13.11c-2.59-5.4-8.44-9.12-12.83-13.32
						c-5.22-4.99-10.16-10.23-14.79-15.68c-9.06-10.68-16.92-22.17-23.49-34.23c-15-27.53-22.95-58.14-22.85-88.8
						c0.01-1.76-1.63-2.42-3.26-1.69C1512.45,940.62,1511.19,942.86,1511.18,944.67L1511.18,944.67z"/>
				</g>
			</g>
			<g class="st13">
				<path d="M1419.25,1011.39c-7.41,17.98-26.39,29.52-42.07,42.52c-15.68,13-29.66,32.2-22.62,50.31
					c3.96,10.19,13.75,17.51,23.15,24.22c42.01,30,85.05,58.82,129.05,86.41c2.27,1.43,4.86,2.92,7.6,2.54
					c4.01-0.55,6.07-5.03,5.1-8.56c-0.97-3.54-3.98-6.29-6.85-8.86c-28.24-25.33-55.01-52.68-72.82-84.76
					c-17.81-32.09-26.06-69.59-15.99-104.28"/>
				<g>
					<path d="M1416.44,1011.16c-6.41,15.12-21.55,25.27-34.65,35.57c-13.92,10.95-27.32,24.18-31.33,40.94
						c-1.87,7.84-0.98,15.87,2.98,23.08c4.12,7.49,11.24,13.26,18.32,18.47c16.97,12.49,34.49,24.43,51.98,36.32
						c17.75,12.07,35.68,23.94,53.76,35.6c9.09,5.85,18.16,11.77,27.41,17.42c3.48,2.12,7.47,3.53,11.43,1.51
						c3.61-1.85,5.9-5.73,6.41-9.34c1.18-8.42-8.15-14.37-13.94-19.69c-7.12-6.53-14.09-13.19-20.81-20.05
						c-13.28-13.55-25.64-27.9-36.02-43.38c-20.76-30.92-33.81-67.89-28.01-104.25c0.7-4.42,1.7-8.8,2.93-13.12
						c0.43-1.52-0.45-3.18-2.36-2.88c-2.1,0.34-3.4,2.67-3.86,4.3c-9.64,33.75-2.72,69.68,13.33,100.93
						c16.25,31.63,41.33,58.72,68.21,83.49c3.29,3.03,6.74,5.95,9.93,9.06c1.52,1.49,6.05,5.96,4.09,8.29
						c-1.94,2.31-8.95-3.06-10.55-4.06c-4.37-2.74-8.72-5.5-13.06-8.27c-17.38-11.08-34.61-22.35-51.68-33.81
						c-17.22-11.57-34.29-23.32-51.18-35.27c-13.5-9.54-32.65-20.28-33.82-37.4c-1.09-15.82,11.86-29.64,24.13-39.57
						c12.79-10.35,26.89-19.8,36.24-33.04c2.3-3.26,4.21-6.75,5.74-10.36c0.55-1.3,0.73-3.59-1.28-3.88
						C1418.8,1007.45,1417.02,1009.79,1416.44,1011.16L1416.44,1011.16z"/>
				</g>
			</g>
			<g class="st13">
				<path d="M1347.94,1122.74c-137.65,121.69-273.06,245.43-406.16,371.14c-7.9,7.46-16.29,16.03-16.19,26.32
					c0.12,11.63,10.93,20.61,20.9,28.04c44.18,32.97,88.36,65.95,132.53,98.93c3.08,2.3,6.59,4.73,10.58,4.47
					c7.93-0.52,9.97-10.03,9.99-17.18c0.14-67.31,18.82-133.76,46.2-196.42c27.38-62.65,63.35-121.93,99.48-180.89
					c29.39-47.98,60.09-97.12,107.42-131.62"/>
				<g>
					<path d="M1347.07,1119.97c-37.04,32.75-73.91,65.64-110.63,98.67c-36.57,32.92-72.99,65.98-109.24,99.18
						c-36.37,33.31-72.58,66.77-108.62,100.38c-17.89,16.68-35.75,33.41-53.56,50.16c-8.84,8.32-17.75,16.58-26.49,24.98
						c-7.08,6.8-14.27,14.78-15.81,24.3c-1.5,9.29,2.98,17.59,9.81,24.33c7.79,7.68,17.38,13.97,26.25,20.58
						c20.28,15.13,40.54,30.27,60.82,45.4c9.99,7.46,19.97,14.91,29.95,22.36c5.14,3.84,10.29,7.68,15.43,11.52
						c4.75,3.55,9.37,7.39,14.38,10.64c3.89,2.53,8.61,3.81,13.12,1.82c3.8-1.68,6.32-5.06,7.87-8.5
						c3.79-8.44,2.35-18.44,2.72-27.32c1.8-44.26,11.47-88.12,26.01-130.38c14.74-42.84,34.43-84.19,56.41-124.4
						c21.83-39.94,45.7-78.97,69.76-117.85c21.42-34.63,44.13-69.2,74.75-98.01c7.37-6.94,15.25-13.44,23.53-19.5
						c1.47-1.08,2.86-3.42,2.21-5.15c-0.67-1.79-2.65-1.35-3.95-0.4c-33.94,24.84-59.66,57.16-81.99,90.67
						c-11.44,17.16-22.1,34.73-32.82,52.26c-11.91,19.48-23.75,38.99-35.22,58.68c-22.73,39.02-44.1,78.77-61.61,119.93
						c-17.39,40.87-31.01,83.24-38.18,126.57c-3.54,21.42-5.46,43.03-5.6,64.68c-0.02,3.27-0.15,6.9-1.7,9.92
						c-1.71,3.32-5.8,2.83-8.9,1.22c-5.12-2.65-9.55-6.73-14.07-10.1c-4.99-3.73-9.99-7.46-14.98-11.18
						c-19.97-14.91-39.94-29.82-59.91-44.72c-9.83-7.34-19.67-14.68-29.5-22.02c-9.16-6.83-18.98-13.32-27.35-20.94
						c-6.69-6.08-12.98-14.13-10.68-23.13c2.3-9,11.35-16.04,18.15-22.46c17.65-16.65,35.33-33.28,53.06-49.86
						c35.2-32.94,70.56-65.74,106.08-98.39c35.64-32.77,71.44-65.4,107.4-97.88s72.07-64.83,108.35-97.04
						c8.83-7.84,17.66-15.67,26.51-23.48c1.38-1.22,2.9-3.31,2.21-5.15C1350.39,1118.69,1348.3,1118.88,1347.07,1119.97
						L1347.07,1119.97z"/>
				</g>
			</g>
			<g class="st13">
				<path d="M917.72,1527.14c-33.5,73.59-60.03,149.73-79.23,227.35c14.88,0.52,28.51-8.66,36.27-20.07
					c7.77-11.42,10.79-24.86,13.67-37.99c12.41-56.47,24.83-112.95,37.24-169.42"/>
				<g>
					<path d="M914.91,1526.91c-26.2,57.62-48.15,116.78-65.71,177c-4.96,17.02-9.56,34.12-13.82,51.29
						c-0.25,1.02,0.02,2.9,1.59,2.94c15.85,0.35,29.65-8.71,38.31-20.06c10.13-13.27,13.44-29.48,16.84-44.97
						c7.81-35.51,15.61-71.02,23.42-106.54c4.42-20.1,8.83-40.19,13.25-60.29c0.33-1.52-0.38-3.19-2.36-2.88
						c-2.02,0.32-3.51,2.67-3.86,4.3c-7.39,33.61-14.78,67.21-22.16,100.82c-3.73,16.97-7.47,33.95-11.19,50.93
						c-3.34,15.19-5.55,31.2-12.15,45.6c-6.25,13.62-19.5,26.16-37.04,25.79c0.53,0.98,1.06,1.96,1.59,2.94
						c14.94-60.29,34.28-119.67,57.92-177.67c6.67-16.36,13.68-32.61,21.01-48.74c0.59-1.3,0.7-3.59-1.28-3.88
						C917.24,1523.2,915.52,1525.55,914.91,1526.91L914.91,1526.91z"/>
				</g>
			</g>
		</g>
		<g id="Ebene_10_1_">
			<g class="st13">
				<g>
					<path class="st14" d="M1562.98,992.97c12.24,10.04,27.44,15.97,40.44,25.02c0.96,0.66-0.77-0.62,0.12,0.09
						c0.25,0.2,0.51,0.4,0.76,0.6c0.57,0.46,1.12,0.94,1.66,1.43c1.07,0.98,2.08,2.03,2.93,3.17c0.38,0.5,0.73,1.02,1.04,1.55
						c0.12,0.21,0.8,1.63,0.48,0.82c0.51,1.28,0.72,2.66,0.77,4.01c0.25,6.75-3.86,12.76-7.86,18.18
						c-5.7,7.72-12.28,14.93-17.06,23.18c-2.49,4.31,7.56,5.52,10.33,5.72c3.76,0.28,7.7,0.3,11.39-0.47
						c2.01-0.42,5.75-0.98,6.8-2.78c4.28-7.4,10.01-13.97,15.27-20.81c4.6-5.98,9.5-12.73,10.55-20.12
						c1.95-13.82-15-21.83-26.04-27.85c-7.98-4.35-16.61-8.93-23.06-14.22c-4.5-3.69-12.46-3.85-18.19-3.25
						C1571.9,987.4,1558.96,989.67,1562.98,992.97L1562.98,992.97z"/>
				</g>
			</g>
			<g class="st13">
				<g>
					<path class="st14" d="M1541.2,1128.06c-9.12,8.78-18.23,17.56-27.35,26.34c-1.41,1.36,0.33,2.9,1.49,3.58
						c2.35,1.38,6.15,1.94,8.84,2.14c5.37,0.4,14.09,0.7,18.19-3.25c9.12-8.78,18.23-17.56,27.35-26.34
						c1.41-1.36-0.33-2.9-1.49-3.58c-2.35-1.38-6.15-1.94-8.84-2.14C1554.03,1124.41,1545.31,1124.1,1541.2,1128.06L1541.2,1128.06z
						"/>
				</g>
			</g>
			<g class="st13">
				<g>
					<path class="st14" d="M1435.81,1220.16c-41.12,42.57-82.54,84.92-124.05,127.19c-39.45,40.17-78.98,80.3-118.33,120.55
						c-22.74,23.26-45.42,46.57-68.01,69.95c-3.64,3.77,8.51,5.59,10.33,5.72c3.76,0.28,7.7,0.3,11.39-0.47
						c2.37-0.49,5.13-1.05,6.8-2.78c39.77-41.16,79.84-82.1,119.98-122.97c39.84-40.56,79.74-81.08,119.46-121.72
						c23.72-24.27,47.38-48.6,70.94-72.99c3.64-3.77-8.51-5.59-10.33-5.72c-3.76-0.28-7.7-0.3-11.39,0.47
						C1440.24,1217.87,1437.48,1218.43,1435.81,1220.16L1435.81,1220.16z"/>
				</g>
			</g>
			<g class="st13">
				<g>
					<path class="st14" d="M902.39,1710.43c33.52-16.92,67.69-31.97,102.51-45.06c10.13-3.81,20.33-7.47,30.6-10.98
						c1.33-0.46,4.33-1.52,4.33-3.29c0-1.73-3-2.89-4.33-3.29c-6.22-1.88-14.7-2.13-20.92,0c-36.97,12.66-73.15,27.22-108.26,43.6
						c-9.91,4.63-19.74,9.41-29.48,14.32c-5.7,2.88,2.47,5.88,5.31,6.37C888.45,1713.18,896.58,1713.36,902.39,1710.43
						L902.39,1710.43z"/>
				</g>
			</g>
		</g>
	</g>
</g>
</svg>
