<?xml version="1.0" encoding="utf-8"?>
<!-- Generator: Adobe Adobe Illustrator 24.2.0, SVG Export Plug-In . SVG Version: 6.00 Build 0)  -->
<svg version="1.1" xmlns="http://www.w3.org/2000/svg" xmlns:xlink="http://www.w3.org/1999/xlink" x="0px" y="0px"
	 viewBox="0 0 2000 2000" style="enable-background:new 0 0 2000 2000;" xml:space="preserve">
<style type="text/css">
	.st0{fill:#F7EBF1;}
	.st1{fill:#F7EBF2;}
	.st2{fill:#F0C1A1;}
	.st3{fill:#FFFFFF;stroke:#FFFFFF;stroke-width:0.8979;stroke-miterlimit:10;}
	.st4{opacity:0.3098;}
	.st5{fill:#CA354F;}
	.st6{opacity:0.102;}
	.st7{opacity:0.149;}
	.st8{fill:#D15238;}
	.st9{fill:#D15239;}
	.st10{fill:#FFFFFF;}
</style>
<g id="Ebene_14">
	<g>
		<path class="st0" d="M441.96,1601.01c-76.84,47.67-173.57,122.51-173.57,212.94c133.09,27.54,278.91,29.54,414.26,23.66
			c203.31-8.83,406.46-21.72,609.34-38.67c-22.11-53.43-51.9-103.06-87.94-146.51c-20.24-24.4-45.33-48.25-75.46-49.31
			c-30.89-1.08-57.45,21.83-82.83,41.1c-89.3,67.8-199.43,102.18-308.03,96.16c-108.59-6.02-214.98-52.41-297.54-129.74"/>
		<g>
			<path class="st1" d="M441.86,1595.63c-33.36,20.73-65.8,43.38-94.91,69.83c-28.64,26.02-54.82,56.2-70.41,91.97
				c-8.14,18.67-12.75,38.75-12.86,59.15c-0.01,1.67,0.79,3.01,2.46,3.36c62.87,12.95,126.82,20.08,190.87,23.59
				c64.41,3.53,128.97,3.42,193.42,1.23c67.46-2.28,134.9-5.93,202.29-9.62c68.65-3.76,137.27-7.98,205.86-12.66
				c68.6-4.68,137.17-9.83,205.7-15.44c8.48-0.69,16.96-1.4,25.45-2.1c3.81-0.32,8.44-5.86,6.78-9.87
				c-13.38-32.19-29.43-63.25-48.26-92.6c-18.13-28.25-38.45-56.98-63.43-79.63c-11.42-10.36-24.38-19.11-39.35-23.34
				c-14.82-4.18-30.28-2.37-44.45,3.3c-14.97,5.99-28.22,15.36-41.02,25.02c-13.52,10.2-26.83,20.58-41,29.89
				c-56.53,37.16-120.82,62.16-187.72,72.33c-64.97,9.88-131.62,5-194.62-13.61c-63.36-18.72-122.63-51.2-173.18-93.66
				c-6.56-5.51-12.97-11.19-19.24-17.04c-4.4-4.11-11.69,6.51-8.1,9.86c48.07,44.87,104.55,80.33,166.35,102.98
				c61.06,22.38,126.41,32.12,191.31,27.2c66.44-5.04,131.42-24.46,190.01-56.15c14.93-8.07,29.43-16.94,43.42-26.54
				c13.75-9.44,26.71-19.88,40.15-29.75c12.92-9.49,26.92-18.62,42.68-22.45c15.26-3.71,30.62-1.13,44.42,6.13
				c14.39,7.56,26.46,18.85,37.27,30.83c11.38,12.62,21.82,26.17,31.74,39.97c20.39,28.37,38.12,58.65,53.02,90.25
				c3.85,8.18,7.48,16.46,10.95,24.8c2.26-3.29,4.52-6.58,6.78-9.87c-68.52,5.72-137.09,10.99-205.68,15.79
				c-68.58,4.8-137.2,9.14-205.84,13.01c-68.09,3.84-136.2,7.33-204.34,10.15c-64.21,2.66-128.55,3.43-192.78,0.8
				c-64.31-2.63-128.6-8.63-191.94-20.25c-7.69-1.41-15.36-2.91-23.02-4.49c0.82,1.12,1.64,2.24,2.46,3.36
				c0.19-34.93,15.67-67.08,36.66-94.29c22.72-29.44,51.2-54.1,81-76.12c16.58-12.26,33.78-23.66,51.29-34.54
				c2.59-1.61,4.78-4.84,4.62-8C446.53,1595.75,444.36,1594.08,441.86,1595.63L441.86,1595.63z"/>
		</g>
	</g>
</g>
<g id="Ebene_27">
	<g>
		<path class="st2" d="M717.53,1372.6c6.06,58.98,5.06,95.31-26.77,126.83c-31.83,31.52-75.06,44.88-117.02,54.93
			c-41.96,10.05-85.37,18.2-122.33,42.13c91.65,85.94,212.28,134.11,333.04,132.98c120.76-1.13,240.62-51.55,330.91-139.19
			c-36.81-22.59-79.23-30.95-120.33-41.47c-41.1-10.52-93.06-8.94-124.46-39.77c-31.4-30.83-39.1-98.44-20.86-140.04
			c-42.39,9.98-87.26,7.03-128.24-8.44"/>
		<g>
			<path class="st2" d="M712.82,1375.21c2.4,23.59,4.95,48.08,1.05,71.65c-3.25,19.69-12.28,36.61-26.78,50.32
				c-40.01,37.86-96.21,47.03-147.66,59.69c-30.71,7.56-61.28,17.05-88.11,34.24c-2.29,1.46-6.97,7.5-3.96,10.31
				c71.13,66.48,160.89,112.24,257.17,128.01c94.4,15.47,191.68-0.05,277.84-41.13c49.46-23.58,94.91-55.4,134.27-93.49
				c2.04-1.97,5.71-7.94,1.98-10.2c-26.4-16.03-55.99-25.2-85.71-32.85c-14.35-3.7-28.73-7.56-43.2-10.71
				c-12.48-2.72-25.13-4.54-37.72-6.64c-25.2-4.2-51.8-9.39-72.24-25.79c-18.37-14.73-27.78-37.95-32.2-60.49
				c-5.06-25.82-4.21-54.35,6.3-78.75c1.04-2.42,0.76-7.13-3.03-6.26c-41.83,9.67-85.85,6.77-126.09-8.23
				c-5.15-1.92-11.28,9.54-6.53,11.31c41.72,15.55,86.99,18.69,130.4,8.66c-1.01-2.09-2.02-4.17-3.03-6.26
				c-9.75,22.64-12,48.55-9.28,72.87c2.63,23.55,9.73,48.14,25,66.75c16.7,20.35,42.1,29.31,67.08,34.59
				c13.39,2.83,26.96,4.73,40.44,7.04c13.82,2.37,27.32,5.79,40.92,9.16c35.33,8.75,70.95,17.83,102.36,36.9
				c0.66-3.4,1.32-6.8,1.98-10.2c-68.57,66.34-155.73,112.71-249.7,130.18c-92.59,17.21-188.89,4.15-274.53-34.63
				c-49.29-22.32-94.86-52.78-134.39-89.72c-1.32,3.44-2.64,6.88-3.96,10.31c49.9-31.96,110.45-35.22,165.34-54.13
				c45.77-15.77,92.38-44.93,104.5-94.89c6.53-26.94,3.66-55.64,0.89-82.87C721.45,1362.27,712.31,1370.18,712.82,1375.21
				L712.82,1375.21z"/>
		</g>
	</g>
	<g>
		<g>
			<path class="st2" d="M934.53,1269.98c5.09,0,10.07-11.94,4.49-11.94C933.94,1258.04,928.95,1269.98,934.53,1269.98
				L934.53,1269.98z"/>
		</g>
	</g>
</g>
<g id="Ebene_23">
	<g>
		<g>
			<path d="M710.87,1375.36c0.91,22.56,1.57,45.37-1.43,67.81c-2.75,20.54-8.56,41.4-22.01,57.64
				c-28.01,33.82-77.39,35.5-117.13,44.07c-91.57,19.75-178.58,62.61-238.91,135.87c-32.22,39.13-55.73,85.08-67.64,134.39
				c-0.61,2.52,0.64,5.28,3.52,4.78c3.1-0.55,5.11-4.44,5.76-7.13c21.53-89.11,83.68-163.36,162.94-207.71
				c42.64-23.86,89.37-39.46,137.11-49.34c41.06-8.49,86.73-12.03,116.69-45.11c33.84-37.37,32.54-93.44,30.65-140.56
				c-0.12-2.89-2.34-4.05-4.87-2.81C712.86,1368.56,710.75,1372.39,710.87,1375.36L710.87,1375.36z"/>
		</g>
	</g>
	<g>
		<g>
			<path d="M843.38,1375.52c-1.73,41.13-3.27,89.07,22.47,123.92c25.48,34.5,69.73,40.68,109.05,47.63
				c93.01,16.43,184.66,53.95,248.98,125.33c33.38,37.05,58.31,81.38,70.55,129.84c0.76,3,4.05,2.08,5.81,0.65
				c2.28-1.84,3.99-5.49,3.25-8.44c-21.81-86.32-82.61-158.17-158.96-202.23c-41.97-24.22-88.18-40.49-135.35-51.12
				c-21.54-4.86-43.45-7.75-65.01-12.51c-19.97-4.42-39.96-11.05-56.07-24.09c-39.04-31.63-37.22-88.8-35.31-134.19
				c0.12-2.92-2.47-3.91-4.8-2.77C845.17,1368.91,843.51,1372.53,843.38,1375.52L843.38,1375.52z"/>
		</g>
	</g>
	<g>
		<g>
			<path d="M265.12,1819.61c58.26,24.09,121.98,26.14,184.16,25.71c66.56-0.46,133.09,0.13,199.65,0.36
				c69.37,0.23,138.76-0.05,208.11-1.63c69.29-1.58,138.56-4.47,207.7-9.47c68.5-4.96,136.88-11.96,204.86-21.79
				c8.67-1.25,17.34-2.56,26-3.9c4.82-0.75,8.88-12.78,2.21-11.74c-68.14,10.57-136.7,18.27-205.44,23.73
				c-68.42,5.43-136.99,8.7-205.6,10.59c-68.67,1.9-137.38,2.41-206.07,2.33c-67.06-0.08-134.14-1.46-201.19-0.68
				c-61.97,0.72-125.95,2.19-185.73-16.71c-7.49-2.37-14.87-5.09-22.13-8.1C266.59,1806.21,260.37,1817.64,265.12,1819.61
				L265.12,1819.61z"/>
		</g>
	</g>
	<g>
		<g>
			<path d="M444.24,1608.84c72.91,66.84,164.94,112.38,262.84,127.57c95.94,14.89,194.56-1.42,281.88-43.38
				c50.13-24.09,96.22-56.45,136.18-95.11c2.07-2,4.3-5.49,3.28-8.52c-0.94-2.79-4.04-2.43-5.87-0.66
				c-69.74,67.46-158.24,114.8-253.72,132.98c-94.36,17.96-192.61,5.23-280.23-33.73c-50.49-22.45-97.06-53.25-137.78-90.58
				C447.18,1594.06,440.12,1605.06,444.24,1608.84L444.24,1608.84z"/>
		</g>
	</g>
</g>
<g id="Ebene_15">
	<g>
		<path class="st0" d="M813.2,525.5c2.41-1.88,4.81-3.75,7.22-5.63c4.09,10.38,16.35,14.95,26.25,11.71
			c9.91-3.24,17.32-12.69,21.25-23.15c3.93-10.45,4.86-21.93,5.52-33.2c0.6-10.18,0.98-20.68-2.13-30.3
			c-3.11-9.62-10.52-18.27-19.81-19.28c-9.29-1.01-19.15,8.28-17.38,18.29c1.71-6.31-3.99-12.99-10.01-13.07
			s-11.35,4.93-13.84,10.92c-2.49,5.99-2.67,12.8-2.45,19.37c0.74,22.02,5.52,43.86,13.96,63.87"/>
		<g>
			<path class="st0" d="M814.48,530.04c2.41-1.88,4.81-3.75,7.22-5.63c-1.94-0.22-3.87-0.43-5.81-0.65
				c4.98,11.43,17.57,17.54,29.68,13.69c14.08-4.48,23.38-18.51,27.64-31.97c2.56-8.08,3.69-16.42,4.39-24.84
				c0.72-8.63,1.4-17.43,0.72-26.08c-1.05-13.36-6.53-29.54-20.7-34.01c-15.03-4.73-30.04,11.3-28.19,26
				c0.95,7.58,8.54,0.2,9.28-3.78c1.83-9.7-5.58-20.07-16.21-17.47c-11.42,2.8-17.57,15.56-18.94,26.21
				c-1.65,12.79,0.19,26.42,2.42,39.04c2.33,13.17,6.15,26.01,11.28,38.36c2.59,6.23,10.95-3.25,9.06-7.79
				c-7.08-17.02-11.68-35.04-13.24-53.43c-0.67-7.95-2.5-19.51,1.93-26.64c1.71-2.75,4.79-4.73,8.14-4.11
				c3.54,0.65,7.1,4.43,6.4,8.14c3.09-1.26,6.19-2.52,9.28-3.78c-0.72-5.75,3.35-9.66,9.16-9.78c6.15-0.13,11.53,4.5,14.82,9.26
				c8.53,12.33,6.6,29.15,5.51,43.28c-1.02,13.19-3.11,29.35-14.27,38.14c-9.23,7.27-24.15,5.15-29.11-6.24
				c-1.21-2.78-3.68-2.31-5.81-0.65c-2.41,1.88-4.81,3.75-7.22,5.63C807.47,524.42,807.74,535.3,814.48,530.04L814.48,530.04z"/>
		</g>
	</g>
</g>
<g id="Ebene_24">
	<g>
		<path class="st0" d="M589,1537.63c-13.89-5.18-30.84,3.77-35.74,18.89s3.08,33.74,16.85,39.29c13.77,5.55,30.91-2.96,36.15-17.94
			s-2.34-33.81-15.98-39.72"/>
		<g>
			<path d="M592.26,1531.97c-13.43-4.6-27.59,1.04-36.34,11.84c-9.46,11.68-11.41,27.89-5.03,41.47
				c5.99,12.73,18.69,20.59,32.84,17.43c14.26-3.18,25.35-15.87,28.17-29.95c3.06-15.33-3.68-33.45-18.36-40.28
				c-4.93-2.3-11.27,9.1-6.53,11.31c11.61,5.4,18.92,20.05,15.44,32.62c-3.28,11.84-17.92,18.07-29.08,13.73
				c-11.91-4.64-19.27-19.87-16.25-32.17c2.96-12.06,17.2-18.6,28.62-14.69C590.94,1545.06,596.99,1533.59,592.26,1531.97
				L592.26,1531.97z"/>
		</g>
	</g>
	<g>
		<path class="st0" d="M605.14,1579.91c-4.05,15.57,4.93,33.76,19.06,38.62c14.13,4.86,31.02-4.44,35.86-19.74
			c4.84-15.3-3.2-34.01-17.05-39.72c-13.86-5.71-31.2,2.54-36.81,17.52"/>
		<g>
			<path d="M600.56,1581.07c-3.29,13.98,1.28,29.57,12.57,38.73c11.02,8.93,26.18,6.97,37.03-1.12
				c11.97-8.93,17.83-24.05,15.39-38.7c-2.26-13.55-12.13-26.65-26.41-28.49c-16.52-2.13-31.22,10.13-37.09,24.72
				c-0.85,2.12-1.04,5.89,1.89,6.36c2.95,0.48,5.49-3.37,6.38-5.59c4.62-11.5,19.42-17.04,30.58-11.73
				c11.74,5.59,18.83,21.34,14.78,33.81c-3.85,11.86-18.76,17.9-30.02,13.12c-12.49-5.31-18.98-20.59-15.96-33.43
				c0.58-2.48-0.62-5.21-3.47-4.71C603.2,1574.58,601.19,1578.41,600.56,1581.07L600.56,1581.07z"/>
		</g>
	</g>
	<g>
		<path class="st0" d="M659.09,1596.94c-3.18,18.03,7.63,37.83,23.76,42.95s35.18-5.57,40.43-23.01
			c5.24-17.44-4.6-38.64-20.68-43.95s-35.22,6.74-38.74,24.69"/>
		<g>
			<path d="M654.51,1598.1c-2.5,15.98,3.14,33.16,16.42,42.97c13.04,9.64,30.35,6.78,42.4-3.03c13.06-10.64,18.84-28.28,14.65-44.56
				c-3.73-14.49-15.81-28.15-31.76-27.77c-18.42,0.44-33.14,15.78-36.94,33.08c-0.55,2.48,0.59,5.22,3.47,4.71
				c3.01-0.53,5.1-4.37,5.68-7.03c2.35-10.69,12.44-18.43,23.29-18.81c11.89-0.42,21.58,8.5,25.74,19.09
				c4.23,10.78,3.36,23.34-5.68,31.35c-8.87,7.87-22,9.41-32.15,3.14c-11.62-7.17-18.06-22.08-15.97-35.46
				c0.39-2.48-0.49-5.23-3.47-4.71C657.31,1591.58,654.93,1595.45,654.51,1598.1L654.51,1598.1z"/>
		</g>
	</g>
	<g>
		<path class="st0" d="M724.98,1614.15c1.02,18.16,16.96,33.71,33.59,32.77c16.63-0.95,31-18.22,30.29-36.4
			c-0.71-18.18-16.39-34.05-33.03-33.43c-16.64,0.61-31.3,17.6-30.89,35.79"/>
		<g>
			<path d="M720.28,1616.77c1.21,15.5,10.98,30.17,26.27,34.83c15.59,4.75,30.7-4.5,39.2-17.29c9.12-13.73,10.62-31.53,1.85-45.8
				c-7.94-12.9-23.65-20.92-38.54-15.76c-17.48,6.05-28.83,24.68-28.82,42.75c0,2.89,2.38,3.95,4.8,2.77c2.73-1.34,4.62-5.04,4.62-8
				c0-14.33,11.51-28.19,26.63-27.16c14.92,1.01,27.27,15.44,27.88,30.03c0.6,14.3-11.06,28.54-26.02,27.83
				c-15.12-0.72-27.29-14.83-28.44-29.42C729.09,1603.82,719.88,1611.74,720.28,1616.77L720.28,1616.77z"/>
		</g>
	</g>
	<g>
		<path class="st0" d="M789.14,1611.51c0.79-20.31,17.91-38.2,36.51-38.17s35.66,17.98,36.4,38.29s-14.97,39.68-33.51,41.32
			c-18.54,1.64-36.9-14.71-39.16-34.89"/>
		<g>
			<path d="M793.84,1608.9c0.74-12.66,9.37-24.42,21.59-28.28c12.76-4.03,25.87,2.22,33.79,12.36c8.29,10.62,10.84,25.11,4.55,37.34
				c-5.83,11.34-18.08,18.57-30.88,16.31c-14.85-2.62-26.87-16.46-28.81-31.17c-1.01-7.7-10.08,0.2-9.41,5.23
				c2.24,17.02,13.5,32.49,30.52,37.15c17.39,4.76,33.91-5.73,43.21-19.96c9.84-15.05,11.26-34.44,2.07-50.11
				c-8.58-14.62-25.97-24.11-42.82-18.88c-19.36,6.02-32.07,25.59-33.21,45.25c-0.17,2.93,2.5,3.9,4.8,2.77
				C792.09,1615.49,793.67,1611.9,793.84,1608.9L793.84,1608.9z"/>
		</g>
	</g>
	<g>
		<path class="st0" d="M862.7,1604.19c2.17,18.88,20.12,33.79,37.34,30.99c17.23-2.8,30.43-22.81,27.38-41.55
			s-21.79-32.56-38.83-28.58c-17.03,3.97-28.99,24.99-24.67,43.43"/>
		<g>
			<path d="M857.99,1606.81c2.22,16.23,13.52,30.88,30.15,34.14c16.65,3.27,31.83-8.61,39-22.82c7.81-15.46,7.45-34.64-4.81-47.75
				c-10.84-11.6-28.04-15.93-42.06-7.28c-16.23,10.01-24.82,30.74-20.89,49.28c0.65,3.05,4.12,2.02,5.81,0.65
				c2.36-1.91,3.89-5.43,3.25-8.44c-2.38-11.23,1.75-23.92,11.54-30.42c10.22-6.79,23.31-3.69,32.11,3.99
				c9.54,8.33,13.67,21.78,9.19,33.79c-4.12,11.03-14.72,18.92-26.74,17.38c-13.73-1.76-25.29-14.21-27.14-27.75
				C866.36,1593.89,857.31,1601.78,857.99,1606.81L857.99,1606.81z"/>
		</g>
	</g>
	<g>
		<path class="st0" d="M926.99,1584.71c-13.16-14.75-12.92-41.22,0.51-55.68s37.64-14.36,50.96,0.22
			c13.32,14.58,13.36,41.05,0.1,55.69c-13.26,14.64-37.48,14.85-50.96,0.44"/>
		<g>
			<path d="M931.04,1579.78c-8.63-10.07-11.45-24.74-7.1-37.32c4.39-12.72,17.01-19.32,30.11-18.08
				c14.17,1.34,24.96,11.52,28.45,25.11c3.1,12.07,0.91,27.17-9.68,34.98c-12.33,9.09-30.68,6.72-41.17-4.03
				c-4.18-4.28-11.57,6.3-8.1,9.86c12.21,12.53,31.36,15.25,46.69,6.68c15.99-8.94,24.1-28.12,22.81-45.95
				c-1.28-17.63-11.59-33.39-29.34-37.73c-17.54-4.29-35.46,4.81-44.27,20.13c-9.8,17.04-9.6,40.91,3.5,56.2
				C926.78,1594.13,934.32,1583.61,931.04,1579.78L931.04,1579.78z"/>
		</g>
	</g>
	<g>
		<path class="st0" d="M835.38,441.9c-10.93-31.63-42.8-52.93-73.55-49.15c-30.75,3.79-57.48,32.3-61.69,65.8
			c-47.15-30.49-107.61-34.98-158.11-11.75c-16.5,7.59-32.4,18.43-42.43,34.64s-13.07,38.59-4.03,55.48
			c-35.55-24.15-84.12-22.97-118.65,2.88s-53.09,74.92-45.32,119.87c-41.57-10.2-87.84,7.77-114.2,44.35s-31.5,89.94-12.68,131.72
			c-39.42,15.16-66.34,62.21-61.54,107.58c4.8,45.37,40.83,84.47,82.38,89.4c-26.15,15.58-37.96,53.12-29.5,84.33
			c8.46,31.21,34.49,54.76,63.46,62.27s60.12,0.32,86.16-15.48c-21.91,26.89-21.31,72.17,1.29,98.37
			c22.6,26.2,63.93,29.5,89.78,7.18c-19.94,24.84-18.28,66.84,3.55,89.7c21.83,22.87,60.29,22.91,82.16,0.09
			c3.71,28.28,24.15,53.06,49.5,60.02c25.35,6.96,54.08-4.33,69.58-27.34c3.09,30.74,36.3,41.99,61.06,27.03"/>
		<g>
			<path d="M839.91,438c-8.99-25.18-30.44-45.38-57.01-50.52c-26.66-5.16-52.77,8.36-68.98,29.16
				c-9.73,12.49-16.22,27.37-18.35,43.08c2.61-2.27,5.23-4.54,7.84-6.82c-32.75-20.94-72-29.99-110.62-25.69
				c-36.48,4.06-78.1,20.5-97.4,53.64c-10.66,18.31-13.7,41.75-3.87,61.01c2.44-3.53,4.88-7.06,7.31-10.58
				c-30.42-20.3-69.74-22.92-102.98-8.04c-32.74,14.66-55.52,46.09-65.22,79.98c-5.63,19.67-6.92,40.16-3.57,60.35
				c2.26-3.29,4.52-6.58,6.78-9.87c-34.62-8.21-71.43,2.44-98.44,25.06c-28.92,24.22-44.55,60.92-46.46,98.18
				c-1.09,21.39,2.57,43.08,11.25,62.69c1.88-3.25,3.76-6.51,5.64-9.76c-34.39,13.58-58.05,46.68-65.49,82.27
				c-7.66,36.6,4.08,75.35,31.3,101.14c14.28,13.53,32.04,22.9,51.67,25.41c0.72-3.79,1.44-7.57,2.16-11.36
				c-31.38,19.25-43.76,62.25-33.08,96.55c11.33,36.4,45.64,62.25,83.5,64.26c24.61,1.31,48.91-6.38,69.88-18.92
				c-0.83-2.92-1.66-5.85-2.49-8.77c-18.36,23.06-23.3,55.99-13.42,83.69c9.73,27.26,34.73,46.11,64.01,46.04
				c16.25-0.04,31.75-5.78,44.17-16.24c-1.23-2.65-2.46-5.29-3.68-7.94c-16.53,21.12-20.8,51.08-11.39,76.17
				c9.53,25.4,33.57,41.95,60.96,39.88c15.05-1.13,29.22-7.55,39.83-18.33c-1.94-0.22-3.87-0.43-5.81-0.65
				c3.96,27.88,23.47,54.02,51.11,61.9c28.23,8.05,58.7-6.26,74.9-29.72c-2.37-0.26-4.74-0.52-7.11-0.78
				c1.72,14.79,9.66,27.92,23.85,33.69c13.82,5.62,29.3,3.56,42.01-3.89c2.61-1.53,4.78-4.9,4.62-8c-0.14-2.71-2.29-4.24-4.8-2.77
				c-22.02,12.9-53.08,3.22-56.27-24.26c-0.51-4.4-4.91-3.97-7.11-0.78c-14.65,21.21-42.25,32.45-67.27,24.03
				c-24.63-8.28-41.3-32.09-44.87-57.22c-0.43-3-4.36-2.13-5.81-0.65c-21.07,21.4-58.16,20.64-78.2-1.97
				c-18.67-21.06-21.46-57.35-3.82-79.88c1.49-1.91,3.24-5.39,1.89-7.8c-1.3-2.3-3.79-1.63-5.57-0.13
				c-18.98,15.99-46.97,17.35-68.38,5.41c-22.79-12.71-33.64-38.6-32.7-63.95c0.52-14.03,4.9-28.03,13.69-39.07
				c1.41-1.77,2.99-4.92,2.13-7.28c-0.74-2.03-2.76-2.61-4.62-1.49c-31.76,19-72.26,25.36-105.33,5.78
				c-28.86-17.09-46.91-50.09-41.06-83.75c2.94-16.91,11.51-33.23,26.45-42.39c2.47-1.52,8.05-10.6,2.16-11.36
				c-32.07-4.1-59.11-27.89-71.96-56.94c-13.64-30.83-10.23-66.49,7.99-94.71c9.51-14.73,23.39-27.02,39.78-33.49
				c3.12-1.23,7.28-6.04,5.64-9.76c-13.96-31.55-14.79-68.48-2.21-100.63c12-30.65,37.44-54.45,69.04-63.92
				c17.37-5.21,35.61-5.83,53.26-1.65c4.49,1.07,7.32-6.62,6.78-9.87c-5.17-31.18,2.41-65.03,21.35-90.48
				c19.5-26.21,50.42-41.01,83.11-39.65c18.54,0.77,36.3,6.63,51.72,16.93c4.75,3.17,9.03-7.22,7.31-10.58
				c-7.8-15.27-5.46-34.28,3.37-48.59c8.81-14.27,23.49-23.92,38.4-30.88c31.28-14.6,67.23-17.98,100.9-10.87
				c19.44,4.11,37.86,11.86,54.58,22.55c3.51,2.24,7.48-4.16,7.84-6.82c3.96-29.08,26.59-55.81,56.84-58.86
				c30.63-3.09,59.29,19.24,69.29,47.26C833.1,452.09,841.57,442.63,839.91,438L839.91,438z"/>
		</g>
	</g>
	<g>
		<path class="st0" d="M853.85,1421.07c29.9,25.14,79.03,15.13,98.63-20.1c21.74,7.87,47.18,1.93,64.07-14.97
			s24.55-44.08,19.29-68.43c25.7,16.75,62.83,7.35,79.17-20.05c16.34-27.4,9.23-68.31-15.17-87.25
			c30.97,10.82,67.47,11.98,93.44-9.4c25.97-21.38,32.54-70.42,6.45-91.63c30.16,1.85,62.62,3.09,88.01-14.8
			c25.39-17.88,36.35-62.9,12.92-83.74c25.69-11.69,43.76-41.06,43.96-71.47c0.2-30.41-17.47-60.07-43-72.17
			c8.77-31.84,16.48-66.78,5.09-97.61c-11.4-30.83-50.45-50.67-73.47-28.93c22.38-23.71,21.23-68.55-2.33-90.86
			c-23.56-22.31-64.33-17.16-82.62,10.42c26.8-27.63,15.49-82.42-16.49-102.43c-31.97-20.01-74.6-9.35-102.46,17
			c11.08-36.27-1.23-79.57-29.16-102.6s-69.4-24.1-98.28-2.51c11.53-18.75,3.75-48.02-15.17-57.11
			c-18.92-9.09-43.91,4.43-48.77,26.39"/>
		<g>
			<path d="M850.58,1426.73c33.75,27.74,84.72,12.27,105.29-23.79c-2.22,1.23-4.44,2.46-6.66,3.7c25.14,8.73,52.68,0.94,70.79-18.31
				c18.44-19.6,25.72-48.5,20.37-74.65c-2.6,3.18-5.2,6.36-7.79,9.55c22.34,14.14,51.68,9.91,71.47-6.77
				c21.48-18.1,28.72-48.28,22.05-74.99c-3.6-14.42-11.32-27.55-22.99-36.85c-2.18,3.77-4.35,7.54-6.53,11.31
				c29.37,10.09,64.09,12.52,91.07-5.44c22.61-15.05,35.43-43.07,33.16-70.1c-1.2-14.26-6.71-27.49-17.82-36.8
				c-1.84,3.88-3.67,7.75-5.51,11.63c29.21,1.78,61.06,3,86.9-13.11c20.86-13,33.9-37.78,33.88-62.3
				c-0.01-12.64-4.1-25.33-13.56-34.03c-1.32,3.44-2.64,6.88-3.96,10.31c22.38-10.49,38.4-32.1,45.08-55.56
				c6.96-24.47,3.04-51-10.97-72.3c-7.46-11.34-17.75-20.85-29.97-26.81c0.44,1.5,0.87,2.99,1.31,4.49
				c8.3-30.28,15.94-63.37,6.98-94.41c-6.38-22.09-24.32-41.53-47.64-45.52c-12.29-2.1-24.41,1.64-33.6,10.01
				c1.23,2.65,2.46,5.29,3.68,7.94c19.12-20.78,23.6-53.98,12.49-79.68c-11.17-25.86-38.13-39.37-65.61-32.81
				c-15.68,3.74-28.63,13.5-37.63,26.71c-1.24,1.81-2.17,5.57-0.26,7.25c2.05,1.81,4.63-0.39,6.06-1.9
				c20.81-22,21.48-56.5,8.99-82.78c-6.38-13.42-16.48-24.85-29.82-31.64c-15.09-7.68-32.47-9.31-49-6.29
				c-19.78,3.61-38.16,13.71-52.8,27.35c1.81,1.64,3.61,3.29,5.42,4.93c8.53-28.78,4.89-60.59-10.78-86.35
				c-15.67-25.77-43.89-41.71-74.22-40.57c-17.46,0.65-33.8,6.58-47.86,16.87c1.56,2.17,3.12,4.34,4.67,6.5
				c12.02-20.41,7.85-53.6-15.3-64.72c-24.56-11.79-50.92,9.64-56.61,33.2c-0.6,2.48,0.63,5.21,3.47,4.71
				c3.06-0.54,5.04-4.37,5.68-7.03c4.34-18,27.03-27.83,43.06-18.43c15.47,9.08,22.05,32.83,12.91,48.36
				c-2.52,4.28-0.71,10.44,4.67,6.5c22.07-16.15,52.58-18.31,77.19-6.82c24.59,11.47,40.45,35.43,46.1,61.47
				c3.24,14.93,3.08,30.84-1.27,45.53c-1.17,3.95,1.13,8.92,5.42,4.93c22.35-20.82,56.18-33.02,85.99-21.8
				c25.44,9.58,40.87,35.16,41.91,61.82c0.54,13.8-3,27.28-12.64,37.47c1.93,1.78,3.86,3.57,5.8,5.35
				c12.81-18.81,39.8-25.15,60.43-16.71c22.5,9.2,33.3,33.22,32.45,56.53c-0.47,13-4.87,25.63-13.73,35.26
				c-1.61,1.75-3.17,5.52-1.89,7.8c1.26,2.25,3.84,1.71,5.57,0.13c20.59-18.76,51.07-0.52,63.18,19.17
				c18.86,30.66,8.14,71.89-0.66,103.99c-0.37,1.36-0.17,3.77,1.31,4.49c24.94,12.17,40.92,39.33,41.53,66.85
				c0.61,27.21-14.42,54.08-39.32,65.75c-2.5,1.17-6.81,7.69-3.96,10.31c19.29,17.76,13.84,49.82-2.57,67.65
				c-22.45,24.39-62.08,21.81-92.06,19.98c-4.72-0.29-9.44,8.34-5.51,11.63c16.89,14.16,18.28,39.63,10.97,59.06
				c-9.15,24.31-33.25,36.61-58.29,37.81c-15.61,0.75-31.29-2.08-46.03-7.14c-5.06-1.74-10.86,7.86-6.53,11.31
				c22.05,17.57,29.69,53.73,15.72,78.47c-14.24,25.21-49.13,32.75-73.19,17.52c-4.54-2.87-8.44,6.38-7.79,9.55
				c4.27,20.89-0.95,44.45-16.04,60c-15.1,15.56-39.14,20.94-59.53,13.87c-2.82-0.98-5.33,1.37-6.66,3.7
				c-18.24,31.99-63.79,39.57-91.98,16.4C853.21,1412.22,846.32,1423.22,850.58,1426.73L850.58,1426.73z"/>
		</g>
	</g>
</g>
<g id="Ebene_3">
	<g>
		<path class="st2" d="M409.99,817.18c-42.59-15.74-94.25-0.25-121.91,36.56s-29.14,92.06-3.52,130.38s76.37,56.73,119.75,43.44
			c26.3,71.25,59.61,140.59,106.88,199.31s109.44,106.51,180.87,127.1c99.62,28.71,242.13-2.44,303.53-49.78
			c106.15-81.84,146.25-275.98,146.25-275.98s97.16,2.18,123.9-35.22s24.9-113.22-5.74-147.31
			c-22.27-24.77-73.13-31.96-126.92-25.96c-19.03-45.67-25.47-82.55-27.91-127.33c-113.66,12.69-230.57-75.09-257.8-189.14
			C706.55,698.49,469.78,679.28,469.78,679.28s-3.57,117.8-56.94,139.4"/>
		<g>
			<path class="st2" d="M413.36,811.35c-53.76-19.41-115.55,7.75-139.86,58.94c-24.96,52.55-10.32,119.8,40.5,150.92
				c26.43,16.19,59.36,21.31,89.18,12.42c-1.18-0.68-2.35-1.36-3.53-2.04c32.55,87.97,76.01,174.67,144.07,240.71
				c31.33,30.39,67.31,56.26,107.37,73.87c37.44,16.45,77.17,24.25,117.98,24.95c40.77,0.7,81.82-4.55,121.28-14.76
				c33.96-8.79,68.44-21.18,97.63-41.03c27.64-18.79,50.12-44.58,68.98-71.94c19.44-28.2,35.25-58.78,48.74-90.23
				c17.09-39.88,31.09-81.68,40.44-124.09c0.15-0.68,0.3-1.36,0.44-2.05c-2.35,2.45-4.69,4.91-7.04,7.36
				c16.12,0.35,32.42-0.9,48.38-3.02c24.84-3.3,53.31-9.1,72.56-26.37c22.86-20.52,29.24-56.95,28.86-86.17
				c-0.38-29.48-7.9-64.73-31.73-84.48c-14.5-12.01-33.96-17.4-52.23-20.23c-23.52-3.65-47.55-3-71.14-0.43
				c1.18,0.68,2.35,1.36,3.53,2.04c-8.47-20.46-15.41-41.5-20-63.18c-4.38-20.7-6.55-41.73-7.73-62.83
				c-0.13-2.38-1.38-3.61-3.71-3.36c-89.49,9.67-177.82-42.95-224.68-117.38c-13.55-21.52-23.6-45-29.58-69.72
				c-0.96-3.96-5.68-1.52-7.15,0.52c-47.14,65.11-112.43,114.35-187.55,142.77c-49.44,18.71-102.36,29.29-155.21,30.9
				c-9.97,0.3-20.07,0.47-30.03-0.33c-4.24-0.34-7.06,5.37-7.17,8.86c-0.41,13.09-1.92,25.29-4.06,38.5
				c-3.83,23.58-9.61,48.08-22.1,68.71c-6.28,10.38-14.67,19.21-26.01,23.93c-4.81,2-7.22,14.18,0.19,11.11
				c24.27-10.09,37.93-36.46,46.07-59.98c7.93-22.9,12.22-47.05,14.46-71.13c0.51-5.49,0.99-11.01,1.16-16.53
				c-2.39,2.95-4.78,5.9-7.17,8.86c29.95,2.41,60.99-0.77,90.54-5.36c66.66-10.36,131.73-34.13,187.68-72.1
				c40.36-27.39,75.57-61.71,104.17-101.21c-2.38,0.17-4.77,0.35-7.15,0.52c21.66,89.43,96.58,163.32,185.52,185.83
				c24.8,6.28,50.38,8.1,75.81,5.35c-1.24-1.12-2.48-2.24-3.71-3.36c1.2,21.42,3.4,42.8,7.75,63.83
				c4.6,22.25,11.66,43.84,20.35,64.82c0.72,1.74,1.69,2.24,3.53,2.04c20.22-2.2,40.73-2.72,60.97-0.41
				c16.35,1.86,32.97,5.5,47.47,13.54c25.93,14.37,36.13,45.08,38.62,73.06c1.39,15.58,0.57,31.37-2.91,46.64
				c-2.75,12.06-7.31,25.42-15.89,34.67c-7.3,7.87-17.74,12.78-27.69,16.34c-11.98,4.28-24.51,6.97-37.07,8.87
				c-16.88,2.56-34.19,3.93-51.27,3.56c-3.71-0.08-6.38,4.19-7.04,7.36c-7.06,34.1-17.99,67.26-30.6,99.9
				c-23.06,59.7-54.37,121.07-103.77,163.3c-24.64,21.07-54.77,34.5-85.4,44.44c-37.81,12.26-77.51,19.46-117.2,21.33
				c-39.1,1.84-78.92-1.36-116.21-13.8c-40.5-13.5-77.72-35.73-110.38-63.07c-70.49-59.01-117.6-140.8-151.82-224.99
				c-4.44-10.92-8.67-21.92-12.76-32.97c-0.57-1.53-1.82-2.55-3.53-2.04c-49.18,14.67-105.77-11.51-125.66-59.05
				c-10.15-24.26-11.58-52.41-3.37-77.45c8.04-24.55,25.11-44.25,48.07-56.03c25.1-12.88,55.47-15.59,82.13-5.96
				C411.96,824.94,418.25,813.12,413.36,811.35L413.36,811.35z"/>
		</g>
	</g>
</g>
<g id="Ebene_9">
</g>
<g id="Ebene_2">
	<g>
		<g>
			<path d="M420.12,811.71c-53.05-23.73-118.13-0.37-145.73,50.31c-14.03,25.77-18.75,56.26-13.33,85.08
				c5.3,28.17,21.27,53.06,44.55,69.74c25.75,18.45,58.92,25.91,89.91,18.9c4.9-1.11,8.98-13.63,2.28-12.11
				c-51.33,11.61-106.93-19.77-123.55-69.67c-8.36-25.09-7.55-53.08,2.31-77.63c9.64-24,28.41-42.53,52.03-52.84
				c26.68-11.64,58.16-12.02,84.79-0.11C418.52,825.67,425.02,813.9,420.12,811.71L420.12,811.71z"/>
		</g>
	</g>
	<g>
		<g>
			<path d="M1130.69,825.93c28.74-3.2,58.89-6.53,87.03,2.19c23.68,7.34,44.13,23.14,53.16,46.71c4.87,12.71,6.83,26.28,7.58,39.81
				c0.7,12.64,0.6,25.42-1.34,37.95c-1.87,12.1-5.43,24.08-12.15,34.43c-6.58,10.13-16.13,17.93-26.71,23.61
				c-28.75,15.46-62.45,14.4-94.11,13.38c-5.24-0.17-10.47,12.14-4.63,12.32c30.74,0.99,62.34,1.62,91.12-10.83
				c26.14-11.31,44.86-32.86,52.61-60.23c7.52-26.54,7.29-57.28,1.25-84.11c-6.16-27.36-23.06-48.98-48.79-60.45
				c-32.44-14.46-68.48-10.7-102.74-6.89C1127.98,814.37,1123.72,826.7,1130.69,825.93L1130.69,825.93z"/>
		</g>
	</g>
	<g>
		<g>
			<path d="M392,1033.7c21.81,69.76,56.43,136.08,102.65,192.8c44.98,55.19,102,102.07,168.83,127.97
				c64.85,25.14,137.12,31.37,205.11,16.28c33.65-7.46,66.26-20.31,95.61-38.43c30.84-19.05,57.68-43.94,80.32-72.17
				c47.54-59.26,76.12-131.44,95.36-204.28c2.36-8.93,4.57-17.91,6.67-26.91c0.6-2.56-0.64-5.38-3.58-4.86
				c-3.14,0.55-5.22,4.51-5.86,7.25c-16.58,71.09-40.95,142.46-83.21,202.68c-20.42,29.1-44.94,55.54-73.8,76.44
				c-27.24,19.73-58.25,34.21-90.55,43.43c-65.31,18.64-136.47,16.41-200.96-4.56c-66.35-21.58-124.06-63.43-170.32-115.14
				c-47.65-53.26-84.24-116.49-108.53-183.6c-2.99-8.25-5.77-16.56-8.39-24.94C399.3,1019.14,390.49,1028.87,392,1033.7L392,1033.7z
				"/>
		</g>
	</g>
	<g>
		<g>
			<path d="M418.08,822.23c17.1-17.5,26.91-41.47,34.94-64.2c7.64-21.6,13.64-43.82,18.61-66.18c1.02-4.58,2.01-9.17,2.87-13.78
				c-2.35,2.45-4.69,4.91-7.04,7.36c29.88,1.78,60.72-1.93,90.08-6.98c66.48-11.45,131.22-35.92,187.02-74.09
				c40.42-27.64,75.79-62.05,104.63-101.63c-2.38,0.17-4.77,0.35-7.15,0.52c30.9,85.52,102.78,154.54,189.38,182.3
				c24.04,7.71,48.93,12.25,74.18,13.12c-0.85-1.16-1.69-2.31-2.54-3.47c2.7,43.58,9.78,87.58,25.35,128.53
				c2.46,6.48,11.15-3.29,9.35-8.03c-15.27-40.15-22.34-83.15-24.99-125.89c-0.09-1.48-0.72-3.4-2.54-3.47
				c-88.8-3.03-172.47-51.86-223.54-123.82c-14.73-20.76-26.65-43.37-35.3-67.31c-1.33-3.68-5.44-1.84-7.15,0.52
				c-47.3,64.93-112.45,114.34-187.16,143.64c-49.22,19.3-101.96,30.8-154.79,33.45c-10.01,0.5-20.15,0.88-30.18,0.28
				c-3.64-0.22-6.47,4.31-7.04,7.36c-6.57,35.2-16.18,71.21-31.43,103.66c-4.75,10.1-10.32,20.66-18.19,28.72
				c-2.07,2.11-4.41,5.55-3.35,8.7C413.02,824.36,416.24,824.11,418.08,822.23L418.08,822.23z"/>
		</g>
	</g>
	<g>
		<g>
			<path d="M872.89,1121.46c-22.91,1.57-45.85,2.88-68.72,4.91c-25.67,2.29-51.24,5.56-76.8,8.77c-4.99,0.63-9.22,12.98-2.28,12.11
				c25.09-3.15,50.19-6.4,75.39-8.65c22.56-2.01,45.19-3.29,67.79-4.83c3.18-0.22,5.52-2.89,6.59-5.76
				C875.45,1126.37,876.1,1121.24,872.89,1121.46L872.89,1121.46z"/>
		</g>
	</g>
	<g>
		<g>
			<path d="M760.87,926.06c8.58-7.14,21.23-8.45,31.47-4.26c10.78,4.4,17.98,14.36,19.22,25.92c1.15,10.75-2.72,21.09-12.46,26.44
				c-10.16,5.58-22.75,5.02-32.49-1.11c-4.61-2.9-11.46,8.69-6.73,11.66c20.91,13.15,48.13,1.85,57.72-19.77
				c9.5-21.41,1.01-49.38-22.73-56.26c-12.8-3.71-26.46-0.45-36.63,8.01c-2.22,1.85-4.35,5.75-3.35,8.7
				C755.89,928.38,758.92,927.69,760.87,926.06L760.87,926.06z"/>
		</g>
	</g>
	<g>
		<path d="M699.1,817.93c-1.87-8.71,0.28-17.73,1.91-26.49s2.65-18.26-1.22-26.25c-3.87-7.99-14.45-13.07-21.62-8.04
			c-7.59,5.33-6.5,16.79-7.09,26.21c-0.47,7.5-2.53,14.79-3.62,22.22c-1.1,7.43-1.15,15.36,2.15,22.06s10.73,11.7,17.87,10.05
			c7.14-1.65,11.72-11.54,7.12-17.39"/>
		<g>
			<path d="M703.77,813.91c-3.24-17.76,8.99-35.9,0.44-53.28c-6.46-13.13-23.3-15.52-31.99-3.33c-4.27,5.99-5.3,13.19-5.66,20.37
				c-0.44,8.68-1.67,16.84-3.2,25.4c-2.56,14.26-2.49,35.31,14.64,40.37c14.69,4.34,29.52-15.39,20.78-28.22
				c-3.32-4.87-11.32,5.82-8.35,10.17c3.59,5.27-2.25,7.26-6.73,5.99c-7.21-2.05-11.12-9.32-11.88-16.34
				c-0.86-7.97,1.37-15.83,2.76-23.6c1.23-6.88,1.25-13.66,1.77-20.59c0.41-5.36,1.21-10.37,7.85-9.43
				c6.45,0.91,11.04,6.39,12.61,12.41c1.93,7.41,0.15,15.22-1.23,22.57c-1.61,8.57-2.73,16.88-1.15,25.54c0.58,3.19,4.3,2.04,6,0.67
				C702.91,820.6,704.35,817.06,703.77,813.91L703.77,813.91z"/>
		</g>
	</g>
	<g>
		<path d="M869.63,803.38c3.8-8.53,7.68-17.6,6.64-26.91c-1.04-9.32-9.1-18.48-18.1-16.87c-9.77,1.74-13.84,13.74-15.12,23.84
			c-1.37,10.81-1.71,21.75-1.03,32.63c0.49,7.79,2.63,17.05,9.82,19.56c6.32,2.21,13.33-2.59,16.15-8.81
			c2.82-6.22,2.53-13.39,2.18-20.23"/>
		<g>
			<path d="M873.9,803.78c5.88-13.27,12.5-31.33,1.43-43.91c-9.67-10.99-23.45-6.39-30.45,4.87c-8.07,12.98-8.23,30.62-8.04,45.37
				c0.14,10.72,0.5,31.06,15.24,32.2c7.7,0.6,14.73-5.45,18.43-11.66c4.84-8.12,4.96-17.61,4.51-26.76
				c-0.14-2.94-2.36-4.12-4.95-2.86c-2.71,1.33-4.91,5.24-4.76,8.25c0.27,5.44,1.58,14.1-2.68,18.39
				c-4.21,4.24-10.26,2.06-12.91-2.64c-2.92-5.17-2.94-11.67-3.11-17.43c-0.23-7.82,0.03-15.69,0.93-23.46
				c0.94-8.18,4.24-24.09,16.1-16.9c13.3,8.06,6.55,24.82,1.71,35.74c-0.96,2.17-1.01,6.08,1.95,6.56
				C870.42,810.04,872.89,806.05,873.9,803.78L873.9,803.78z"/>
		</g>
	</g>
	<g>
		<g>
			<path d="M845.04,719.76c26.08-0.86,51.21,10.71,67.65,30.96c3.81,4.7,11.65-6.12,8.35-10.17c-17.3-21.31-43.83-34.02-71.37-33.11
				C844.44,707.61,839.37,719.95,845.04,719.76L845.04,719.76z"/>
		</g>
	</g>
	<g>
		<g>
			<path d="M633.72,748.26c16.22-19.08,42.03-27.77,66.55-23.54c5.1,0.88,10.65-11.29,4.63-12.32
				c-28.57-4.93-57.57,7.01-76.15,28.86c-1.64,1.93-3.61,6.23-1.7,8.59C629.06,752.29,632.23,750.02,633.72,748.26L633.72,748.26z"
				/>
		</g>
	</g>
	<g>
		<g>
			<path d="M1164.57,858.37c35.74,5.48,64.88,37.51,68.01,73.39c0.69,7.96,10.16-0.21,9.71-5.39
				c-3.42-39.25-33.59-74.27-73.09-80.33C1164.08,845.26,1158.57,857.45,1164.57,858.37L1164.57,858.37z"/>
		</g>
	</g>
	<g>
		<g>
			<path d="M373.37,834.77c-44.57,5.99-78.06,52.94-73.4,96.85c0.84,7.95,10.26-0.2,9.71-5.39c-4-37.68,23.55-74.26,61.41-79.35
				C376.08,846.21,380.3,833.84,373.37,834.77L373.37,834.77z"/>
		</g>
	</g>
</g>
<g id="Ebene_8">
	<ellipse class="st3" cx="690.61" cy="772.85" rx="5.98" ry="6.14"/>
	<ellipse class="st3" cx="864.82" cy="778.13" rx="5.76" ry="5.92"/>
</g>
<g id="Ebene_10">
	<g class="st4">
		<path class="st5" d="M647.69,1117.1c-1.31-21.4-19.65-39.77-40.37-42.43c-20.72-2.66-41.99,9.32-52.67,27.74
			c-10.68,18.43-11.15,42.16-3.09,61.94c8.95,21.96,28.75,39.49,51.67,43.1c22.92,3.61,47.96-8.02,58.65-29.14
			c10.69-21.13,4.6-50.29-14.73-63.43"/>
		<g>
			<path class="st5" d="M652.54,1114.41c-2.29-29.11-29.64-50.62-58.49-45.38c-31.14,5.65-51.21,35.55-52.8,65.74
				c-1.57,29.87,14.79,60.29,42.12,73.35c25.83,12.34,57.31,4.8,75.25-17.46c19.24-23.87,18.14-63.1-8.11-81.61
				c-4.38-3.09-11.35,8.41-6.73,11.66c17.85,12.58,24.22,39.76,12.88,58.67c-12.11,20.2-39.87,27.18-61.23,19.32
				c-23.43-8.63-40.33-30.87-43.88-55.39c-3.67-25.35,7.72-51.91,33.22-60.38c25.76-8.56,55.86,8.84,58.06,36.86
				C643.46,1127.76,652.95,1119.59,652.54,1114.41L652.54,1114.41z"/>
		</g>
	</g>
	<g class="st4">
		<path class="st5" d="M1048.75,1050.2c-1.31-21.4-19.65-39.77-40.37-42.43c-20.72-2.66-41.99,9.32-52.67,27.74
			c-10.68,18.43-11.15,42.16-3.09,61.94c8.95,21.96,28.75,39.49,51.67,43.1c22.92,3.61,47.96-8.02,58.65-29.14
			c10.69-21.13,4.6-50.29-14.73-63.43"/>
		<g>
			<path class="st5" d="M1053.61,1047.5c-2.29-29.11-29.64-50.62-58.49-45.38c-31.14,5.65-51.21,35.55-52.8,65.74
				c-1.57,29.87,14.79,60.29,42.12,73.35c25.83,12.34,57.31,4.8,75.25-17.46c19.24-23.87,18.14-63.1-8.11-81.61
				c-4.38-3.09-11.35,8.41-6.73,11.66c17.85,12.58,24.22,39.76,12.88,58.67c-12.11,20.2-39.87,27.18-61.23,19.32
				c-23.43-8.63-40.33-30.87-43.88-55.39c-3.67-25.35,7.72-51.91,33.22-60.38c25.76-8.56,55.86,8.84,58.06,36.86
				C1044.53,1060.85,1054.02,1052.68,1053.61,1047.5L1053.61,1047.5z"/>
		</g>
	</g>
</g>
<g id="Ebene_13">
	<g class="st6">
		<path d="M302.09,841.25c-8.51,36.74-4.13,76.87,12.07,110.39c16.2,33.52,44.05,60.1,76.62,73.14
			c-38.28,5.92-78.92-15.09-99.01-51.18s-18.47-85.19,3.94-119.61"/>
		<g>
			<path d="M289.5,837.78c-14.08,62.28,4.83,131.64,54.4,173.44c13.15,11.09,27.5,19.67,43.42,26.15c0-8.39,0-16.79,0-25.18
				c1.84-0.27-2.33,0.22-2.85,0.26c-1.64,0.13-3.28,0.21-4.93,0.24c-3.76,0.08-7.51-0.12-11.26-0.5c-0.22-0.02-2.53-0.37-0.73-0.09
				c-0.7-0.11-1.39-0.23-2.09-0.35c-1.62-0.29-3.24-0.62-4.85-1c-3.69-0.86-7.33-1.95-10.89-3.24
				c-11.64-4.22-23.52-12.17-32.76-21.69c-20.24-20.89-28.29-50.34-25.67-79.68c1.39-15.59,6.88-31.8,15.7-45.57
				c3.8-5.94,1.23-14.41-4.68-17.86c-6.31-3.69-14.05-1.27-17.86,4.68c-19.68,30.73-24.64,70.46-15.05,105.49
				c9.58,35,34.6,63.73,68.07,77.72c18.13,7.58,37.41,9.6,56.78,6.77c5.57-0.81,9.59-7.38,9.59-12.59c0-6.2-4.19-10.39-9.59-12.59
				c-1.6-0.65-3.89-1.7-6.37-2.93c-2.9-1.44-5.74-2.98-8.53-4.62c-5.14-3.02-10.75-6.8-14.66-9.96
				c-9.42-7.62-18.6-17.02-25.26-26.21c-15.91-21.96-25.68-48.15-27.94-75.16c-1.37-16.32-0.42-32.63,3.18-48.59
				c1.55-6.87-2.1-14.13-9.12-16.06C299,826.86,291.07,830.87,289.5,837.78L289.5,837.78z"/>
		</g>
	</g>
	<g class="st6">
		<path d="M319.09,663.28c-39.82-1.99-79.95,20.07-102.24,56.18c-22.29,36.12-25.96,85.04-9.35,124.64
			c-35.86,16.69-59.02,61.15-53.84,103.37s38.24,78.44,76.85,84.22c-29.33,33.65-27.98,93.44,2.83,125.48
			c30.81,32.03,85.52,30.52,114.82-3.17c-17.83,29.2-18.56,71.24,2.03,98.17s62.56,32.21,85.5,7.65
			c-15.58,27.2-13.12,65.26,5.79,89.81c18.91,24.55,52.82,33.67,80,21.52c51.12,46.17,125.69,58.85,187.32,32.23
			c1.18-0.51,0.64-1.63-0.19-2.68c-45.46-57.59-134.53-68.38-188.76-123.91c-55.25-56.58-118.42-238.62-129.08-235.1
			c-154.21,51.03-197.63-245.57-33.68-234.67c161.23,10.72-9.92-61.27-31.04-135.13"/>
		<g>
			<path d="M319.09,650.22c-35.04-1.49-69.55,13.48-94.17,38.12c-26.17,26.19-39.83,62.65-40.75,99.38
				c-0.51,20.33,2.99,41.04,10.74,59.85c2-4.92,4-9.83,6-14.75c-32.05,15.27-54.19,49.28-59.4,83.91
				c-5.57,37,6.41,74.81,33.77,100.79c14.23,13.52,32.25,23.64,51.77,26.74c-1.92-7.27-3.84-14.55-5.76-21.82
				c-26,30.38-32.01,75.76-16.98,112.61c7.73,18.96,20.43,35.37,38.28,45.83c16.64,9.75,36.77,14.01,55.93,11.87
				c22.53-2.52,43.72-12.43,58.88-29.54c-6.84-5.27-13.67-10.55-20.51-15.82c-16.14,26.96-20.37,62.69-8.48,92.09
				c6.19,15.3,15.86,28.36,29.79,37.44c11.91,7.77,26.66,11.98,40.87,11.71c17.24-0.32,33.86-7.11,45.85-19.6
				c-6.84-5.27-13.67-10.55-20.51-15.82c-13.85,24.79-15.97,56.38-5.28,82.76c10.61,26.2,32.94,46.79,61.24,51.98
				c16.5,3.03,32.34,1.1,47.69-5.55c-5.27-0.68-10.55-1.36-15.82-2.04c53.26,47.67,131.92,63.91,198.62,36.18
				c7.5-3.12,13.46-8.81,11.09-17.82c-1.28-4.88-5.24-8.83-8.51-12.54c-5.1-5.8-10.69-11.15-16.63-16.08
				c-12.63-10.48-26.4-19.34-40.77-27.22c-28.52-15.62-58.8-27.84-86.74-44.54c-14.13-8.45-25.63-16.56-37.13-27.73
				c-3.94-3.83-7.65-7.87-11.14-12.11c-0.78-0.95-1.54-1.92-2.31-2.87c-1.46-1.79,0.07,0.11,0.3,0.41
				c-0.39-0.51-0.78-1.02-1.16-1.53c-1.78-2.38-3.53-4.78-5.23-7.22c-14.8-21.17-27.1-44.07-38.73-67.09
				c-21.4-42.37-38.86-86.64-60.39-128.93c-2.89-5.68-5.87-11.43-10.01-16.32c-1.51-1.79-3.18-3.33-5.28-4.48
				c-5.91-3.25-11.28-1.11-17.22,0.53c-2.33,0.64-4.68,1.21-7.04,1.71c-1.15,0.24-2.3,0.47-3.46,0.67
				c-1.03,0.18-5.73,0.73-1.64,0.32c-4.65,0.47-9.26,0.88-13.95,0.82c-2.1-0.03-4.2-0.13-6.29-0.3c-1.03-0.09-2.05-0.22-3.08-0.31
				c-2.2-0.19,1,0.13,1.19,0.17c-0.75-0.13-1.5-0.23-2.25-0.36c-4.04-0.7-8.04-1.68-11.94-2.95c-1.98-0.64-3.9-1.42-5.84-2.14
				c2.45,0.91,1.37,0.6-0.22-0.13c-0.99-0.45-1.97-0.93-2.94-1.42c-3.66-1.85-7.19-3.96-10.56-6.29c-0.79-0.55-1.57-1.13-2.36-1.68
				c-2.51-1.77,2.14,1.79-0.24-0.17c-1.59-1.31-3.18-2.62-4.71-4.01c-3.09-2.79-6-5.78-8.75-8.91c-1.31-1.49-2.54-3.04-3.8-4.57
				c-1.1-1.34,1.64,2.26-0.23-0.33c-0.73-1.02-1.47-2.02-2.19-3.05c-2.45-3.53-4.72-7.19-6.81-10.95
				c-2.13-3.81-4.07-7.73-5.84-11.72c-0.41-0.92-1.57-4.13-0.21-0.45c-0.36-0.97-0.79-1.93-1.16-2.89
				c-0.85-2.19-1.66-4.39-2.41-6.62c-2.83-8.34-4.98-16.92-6.45-25.6c-0.18-1.04-0.33-2.08-0.5-3.13c-0.08-0.52-0.13-1.05-0.23-1.57
				c-0.32-1.7,0.26,2.85,0.15,1.12c-0.14-2.36-0.54-4.72-0.74-7.07c-0.36-4.31-0.55-8.64-0.57-12.96c-0.02-4.42,0.15-8.83,0.5-13.24
				c0.17-2.05,0.42-4.1,0.62-6.15c0.18-1.82-0.47,2.96,0.05-0.33c0.2-1.26,0.39-2.52,0.62-3.77c1.49-8.39,3.81-16.53,6.85-24.49
				c1.15-3.01-0.64,1.32,0.09-0.27c0.41-0.88,0.79-1.78,1.2-2.66c0.92-1.97,1.9-3.92,2.94-5.83c1.89-3.47,3.98-6.83,6.27-10.04
				c0.26-0.37,2.3-3.21,0.89-1.26c-1.38,1.92,0.88-1.08,1.2-1.46c1.29-1.55,2.64-3.05,4.03-4.5c1.32-1.37,2.68-2.7,4.08-3.97
				c0.7-0.64,1.42-1.27,2.15-1.89c0.48-0.4,3.63-2.86,1.75-1.45c-1.92,1.43,0.92-0.65,1.28-0.91c0.79-0.56,1.59-1.1,2.39-1.63
				c1.73-1.14,3.51-2.21,5.32-3.21c1.85-1.02,3.74-1.94,5.65-2.84c0.45-0.21,0.94-0.37,1.38-0.61c1.44-0.79-2.61,0.85-1.02,0.44
				c1.09-0.28,2.16-0.85,3.23-1.23c4.24-1.52,8.61-2.71,13.03-3.59c1.08-0.22,2.17-0.41,3.26-0.59c1.51-0.25,3.61-0.42,0.71-0.14
				c2.61-0.26,5.2-0.54,7.82-0.68c25.09-1.29,51.27,5.07,75.95-2.13c8.45-2.46,16.92-7.54,19.54-16.5
				c2.24-7.66-0.16-15.52-4.27-22.09c-9.73-15.56-25.04-27.81-38.33-40.17c-8.19-7.62-16.34-15.3-24.12-23.34
				c-3.96-4.1-7.82-8.28-11.53-12.61c-1.71-1.99-3.34-4.04-5-6.07c-1.49-1.82,0.01,0.02,0.26,0.35c-0.48-0.64-0.97-1.28-1.45-1.92
				c-0.85-1.15-1.68-2.3-2.5-3.47c-2.8-4-5.39-8.15-7.66-12.48c-0.61-1.17-1.2-2.35-1.76-3.54c-0.24-0.52-0.45-1.07-0.72-1.58
				c-0.82-1.54,0.86,2.4,0.31,0.75c-0.75-2.25-1.66-4.43-2.33-6.72c-4.72-16.09-29.93-9.24-25.18,6.94
				c5.72,19.5,18.41,36.19,31.84,51.07c13.33,14.78,28.2,28.04,42.71,41.64c6.01,5.63,12.02,11.31,17.52,17.45
				c1.12,1.25,2.18,2.55,3.28,3.82c1.73,2.01-0.55-0.81-0.32-0.45c0.41,0.65,0.93,1.25,1.36,1.89c0.75,1.09,1.47,2.21,2.11,3.38
				c0.27,0.49,0.48,1.02,0.77,1.5c1.1,1.83-0.89-3.35-0.4-0.86c0.08,0.41,0.22,1,0.38,1.37c0.86,1.93-0.27-3.52-0.2-1.78
				c0.13,3.53,1-3.07,0.15-0.36c-0.52,1.66,1.75-3.45,0.71-1.7c-1.12,1.88,0.82-0.91,1.13-1.32c-0.31,0.4-0.7,0.76-1.08,1.1
				c-0.92,0.82,3.21-1.8,0.92-0.78c-0.52,0.23-1.22,0.59-1.68,0.92c-1.36,0.98,3.34-1.11,0.88-0.38c-1.52,0.45-3,0.97-4.55,1.33
				c-0.95,0.22-1.91,0.42-2.87,0.59c-0.51,0.09-3.7,0.63-1.46,0.27c2.26-0.36-1.22,0.13-1.76,0.19c-1.45,0.15-2.9,0.26-4.35,0.36
				c-23.73,1.6-47.36-2.88-70.97,0.82c-17.08,2.68-32.91,9.93-46.4,20.66c-25.7,20.45-37.71,53.16-40.69,84.97
				c-3.11,33.14,4.03,67.9,19.75,97.21c15.22,28.39,40.79,52.46,72.86,59.74c17.97,4.08,36.66,3.09,54.39-1.71
				c1.79-0.48,5.3-0.84,6.74-2.03c-0.89,0.73-5.47,0.22-6.28,0c0.47,0.13-3.89-1.88-2.42-0.98c-3.23-1.96-2.57-2.19-1.25-0.77
				c1.59,1.71-2.09-3.2-0.29-0.36c2.82,4.46,5.34,9.05,7.71,13.78c18.93,37.69,34.77,76.89,53.33,114.76
				c10.64,21.71,21.81,43.25,34.56,63.81c11.39,18.37,24.16,36.14,40.48,50.46c44.78,39.28,104.07,53.87,151.72,88.52
				c4.51,3.28,8.7,6.7,13.7,11.39c2.32,2.17,4.57,4.42,6.73,6.74c1.24,1.33,2.46,2.69,3.65,4.07c0.45,0.52,0.89,1.04,1.33,1.57
				c2.03,2.43,0.24,2.19-0.35-1.11c1.12-4.23,2.24-8.47,3.36-12.7c2.8-1.61,3.09-1.92,0.88-0.92c-0.94,0.38-1.89,0.74-2.84,1.1
				c-1.89,0.72-3.8,1.4-5.72,2.04c-3.82,1.29-7.7,2.44-11.6,3.44c-7.56,1.95-15.22,3.37-21.73,4.04c-7.99,0.82-16.03,1.08-24.05,0.8
				c-7.74-0.27-14.72-0.98-21.25-2.13c-31.24-5.49-59.86-19.01-83.22-39.92c-4.8-4.3-10.17-4.49-15.82-2.04
				c1.25-0.54-2.93,1.01-3.47,1.18c-1.78,0.56-3.59,1.04-5.41,1.43c-1.35,0.29-2.74,0.57-4.12,0.75c1.93-0.24-2.97,0.15-3.46,0.17
				c-3.24,0.12-6.52,0.02-9.74-0.36c1.89,0.22-2.94-0.55-3.43-0.65c-1.37-0.3-2.73-0.63-4.09-1.01
				c-11.39-3.19-22.82-10.64-29.72-20.08c-2.15-2.95-4.04-6.09-5.7-9.34c-1.66-3.25-2.08-4.28-3.24-7.76
				c-2.31-6.88-3.5-13.05-3.85-19.22c-0.79-14.12,1.7-26.76,8.3-38.56c7.11-12.71-10.01-26.76-20.51-15.82
				c-0.92,0.96-1.86,1.91-2.84,2.8c-0.64,0.59-1.31,1.17-1.99,1.71c0.22-0.18,1.26-0.93,0.06-0.08c-2.28,1.61-4.68,2.94-7.16,4.21
				c-0.06,0.03-1.96,0.86-0.76,0.36c1.34-0.55-1.1,0.39-1.39,0.48c-1.2,0.4-2.4,0.78-3.62,1.11c-1.22,0.33-2.46,0.59-3.7,0.84
				c-0.62,0.13-1.24,0.23-1.87,0.33c1.91-0.28-0.05-0.02-0.94,0.03c-2.55,0.15-5.08,0.21-7.64,0.06c-0.64-0.04-4.51-0.48-2.26-0.14
				c-1.48-0.22-2.96-0.52-4.42-0.86c-2.53-0.59-5-1.35-7.43-2.23c-0.27-0.1-2.73-1.12-1.46-0.56c1.14,0.5-0.8-0.4-0.82-0.41
				c-1.35-0.71-2.72-1.38-4.04-2.14c-5.32-3.07-7.38-4.73-11.73-9.54c-3.15-3.48-6.53-8.87-9.03-14.48
				c0.51,1.15-0.71-1.79-0.87-2.21c-0.5-1.36-0.96-2.73-1.38-4.11c-1-3.25-1.79-6.56-2.39-9.91c-0.08-0.45-0.54-3.74-0.38-2.34
				c-0.17-1.46-0.29-2.93-0.39-4.41c-0.22-3.45-0.25-6.91-0.1-10.36c0.58-13.01,4.56-26.53,11.52-38.16
				c7.46-12.47-10.5-27.12-20.51-15.82c-2.72,3.07-5.63,5.9-8.77,8.55c-0.17,0.14-1.94,1.48-0.53,0.44
				c-0.72,0.53-1.44,1.05-2.18,1.55c-1.83,1.25-3.71,2.42-5.64,3.51c-1.92,1.08-3.9,2.06-5.9,2.99c-0.26,0.12-2.3,0.93-0.52,0.23
				c-0.82,0.32-1.64,0.63-2.47,0.93c-3.92,1.4-7.95,2.49-12.04,3.27c-0.86,0.16-1.72,0.31-2.59,0.45c-2.43,0.38,3.06-0.19-1.08,0.12
				c-1.74,0.13-3.48,0.29-5.23,0.35c-4.14,0.15-8.32,0-12.43-0.51c-2.43-0.3,2.98,0.66-1.07-0.19c-0.86-0.18-1.72-0.32-2.58-0.5
				c-1.71-0.36-3.41-0.77-5.1-1.24c-1.9-0.53-3.77-1.13-5.63-1.81c-1.03-0.37-2.06-0.75-3.07-1.18c1.63,0.7-0.52-0.28-1.09-0.57
				c-28.13-14.06-40.33-43.8-38.41-75.05c0.95-15.56,7.27-33.64,17.14-45.18c5.67-6.63,4.79-20.15-5.76-21.82
				c-6.74-1.07-14.51-3.38-18.96-5.49c-3.12-1.48-6.14-3.15-9.06-4.98c-3.55-2.23-5.72-3.83-8.04-5.79c-2.7-2.28-5.26-4.71-7.7-7.27
				c-2.47-2.59-5.33-5.97-6.63-7.77c-4.1-5.66-8.27-12.83-10.73-18.52c-11.56-26.73-8.1-57.78,7.15-82.78
				c8.31-13.62,19.25-24.06,34.06-31.12c4.66-2.22,8.04-9.8,6-14.75c-12.12-29.42-13.04-61.26-2.99-91.21
				c9.46-28.18,29.86-51.26,56.89-64.15c3.47-1.65,5.36-2.4,9.31-3.75c3.98-1.35,8.03-2.48,12.14-3.37
				c7.44-1.62,14.87-2.19,23.65-1.82c7.05,0.3,13.06-6.22,13.06-13.06C332.15,655.96,326.16,650.52,319.09,650.22L319.09,650.22z"/>
		</g>
	</g>
	<g class="st6">
		<path d="M725.09,1460.93c43.25-22.23,84.03-50.16,121.2-82.99c-35.78,12.58-75.28,12.14-110.81-1.25
			c-7.53-2.84-16.67,4.09-16.89,12.79c-0.61,24.77-1.22,49.54-1.84,74.31"/>
		<g>
			<path d="M731.68,1472.21c44.65-23.04,86.15-51.84,123.85-85.04c9.65-8.5-0.51-26.03-12.7-21.82
				c-17.13,5.92-34.78,8.94-52.92,8.63c-9.01-0.15-17.93-1.05-26.76-2.88c-8.89-1.84-17.24-5.46-26-7.48
				c-9.4-2.17-19.23,1.82-25.24,9.16c-7.08,8.66-6.42,18.83-6.68,29.4c-0.51,20.53-1.01,41.07-1.52,61.6
				c-0.42,16.81,25.7,16.8,26.11,0c0.47-18.9,0.93-37.81,1.4-56.71c0.11-4.56,0.23-9.13,0.34-13.69c0.05-1.96-0.3-4.25,0.36-4.4
				c0.41-0.09-2.71,2.95,0.15,0.27c-1.02,0.62-0.87,0.52,0.43-0.28c-1.22,0.41-1.09,0.39,0.38-0.05c-1.3-0.05-2.75-0.51-0.85,0.36
				c4.04,1.84,8.58,3.02,12.85,4.23c34.2,9.69,71.32,8.62,104.91-2.98c-4.23-7.27-8.47-14.55-12.7-21.82
				c-36.05,31.75-75.87,58.92-118.56,80.95c-6.26,3.23-8.11,12.01-4.68,17.86C717.53,1473.88,725.39,1475.45,731.68,1472.21
				L731.68,1472.21z"/>
		</g>
	</g>
	<g class="st6">
		<path d="M429.68,1628.43c55.55,118.96,177.71,196.77,299.8,190.97c186.17-8.85,372.33-17.7,558.5-26.54
			c-327.76,41.41-658.98,50.11-988.19,25.94c-9.97-0.73-17.66-13.17-14.57-23.55c24.81-83.18,82.82-153.82,155.82-189.75"/>
		<g>
			<path d="M418.4,1635.02c22.63,48.17,56.6,91.25,98.25,124.4c40.96,32.6,88.94,56.68,140.41,67.15
				c25.93,5.28,52.03,6.85,78.42,5.6c35.03-1.66,70.06-3.33,105.09-4.99c70.06-3.33,140.13-6.66,210.19-9.99
				c70.4-3.35,140.79-6.69,211.19-10.04c8.67-0.41,17.35-0.82,26.02-1.24c0-8.7,0-17.41,0-26.11
				c-87.15,10.99-174.58,19.71-262.19,26.1c-87.22,6.36-174.61,10.42-262.05,12.17c-87.42,1.76-174.89,1.21-262.28-1.64
				c-43.87-1.43-87.72-3.45-131.53-6.04c-22.08-1.31-44.14-2.76-66.2-4.36c-1.28-0.09-2.69-0.33-3.95-0.29
				c0.82-0.03,1.09,0.1,1.83,0.5c-0.73-0.4-1.49-0.74-2.16-1.25c0.89,0.67,0.55,0.82-0.25-0.47c1.27,2.05-1.39-2.32-0.89-1.28
				c0.58,1.21-0.41-1.3-0.5-1.56c-0.46-1.35,0.14,1.16-0.23-1.14c-0.32-1.95,0.06-1.47-0.11-0.52c0.17-0.95,0.51-1.89,0.78-2.81
				c0.59-2,1.23-3.99,1.88-5.98c1.45-4.46,3-8.89,4.64-13.28c22.72-60.73,66.09-115.63,121.54-149.46
				c6.92-4.22,14.04-8.12,21.3-11.72c6.32-3.13,8.07-12.08,4.68-17.86c-3.77-6.44-11.52-7.83-17.86-4.68
				c-62.94,31.2-113.46,86.02-143.25,149.29c-4.01,8.53-7.7,17.23-11.05,26.04c-3.03,7.96-6.63,16.43-8.08,24.86
				c-1.78,10.35,1.45,20.94,8.67,28.59c7.91,8.38,18.13,8.81,28.92,9.58c45.1,3.22,90.24,5.82,135.42,7.81
				c89.99,3.96,180.09,5.47,270.17,4.54c90.08-0.93,180.14-4.31,270.04-10.12c89.95-5.82,179.74-14.08,269.25-24.78
				c11.15-1.33,22.3-2.7,33.44-4.11c6.99-0.88,13.06-5.37,13.06-13.06c0-6.81-5.98-13.39-13.06-13.06
				c-69.06,3.28-138.12,6.56-207.19,9.85s-138.12,6.56-207.19,9.85c-34.7,1.65-69.4,3.3-104.09,4.95
				c-28.61,1.36-57.15,3.65-85.69,0.24c-2.97-0.35-2.88-0.34-6.44-0.89c-3.3-0.51-6.59-1.08-9.87-1.71
				c-6.1-1.16-12.16-2.52-18.18-4.07c-11.85-3.05-23.51-6.82-34.91-11.27c-10.42-4.06-21.49-9.23-32.42-15.12
				c-11.17-6.02-21.99-12.68-32.4-19.94c-40.9-28.52-75.59-67.58-99.69-112.05c-3.17-5.84-6.14-11.78-8.97-17.8
				c-3-6.38-12.17-8.02-17.86-4.68C416.55,1620.98,415.39,1628.62,418.4,1635.02L418.4,1635.02z"/>
		</g>
	</g>
</g>
<g id="Ebene_12">
</g>
<g id="Ebene_16">
</g>
<g id="Ebene_17">
	<g>
		<g id="Ebene_2_Kopie">
			<g class="st7">
				<path d="M1176.52,829.89c26.6,13.1,42.39,42.26,37.34,68.93c-5.05,26.67-30.55,48.84-60.31,52.42
					c-29.76,3.58-61.49-11.72-75.05-36.16c-13.56-24.44-7.9-56.17,13.38-75.03c21.28-18.86,56.56-23.41,83.42-10.76"/>
				<g>
					<path d="M1173.78,833.47c24.96,12.5,40.42,38.87,36.85,64.3c-3.37,24.05-25.4,44.1-51.41,48.93
						c-27.44,5.1-57.59-6.97-73.21-28.09c-15.72-21.26-14.72-50.66,2.08-70.66c18.89-22.49,56.84-27.84,84.47-15.06
						c3.65,1.69,8.89-5.57,5.47-7.16c-27.94-12.93-62.9-8.39-85.74,10.22c-23.34,19.01-31.24,51.73-19.05,78.28
						c11.88,25.89,43.13,42.64,73.63,41.33c31.13-1.33,58.36-22.35,68-48.43c11.06-29.88-4.78-65.36-35.62-80.81
						C1175.67,824.52,1170.37,831.76,1173.78,833.47L1173.78,833.47z"/>
				</g>
			</g>
			<g class="st7">
				<path d="M1105.5,321.36c4.41-24.84,13.21-49.63,30.73-69.01s44.89-32.63,72.76-30.15c40.41,3.59,71.06,39.96,74.3,76.46
					s-15.51,71.68-40.43,100.13s-56.07,51.88-83.3,78.54c-44.37,43.44-78.63,96.57-90.46,154.99
					c-7.78,38.38-4.85,80.83,20.26,113.13c25.11,32.31,76.76,49.62,114.19,30.4c23.75-12.19,37.48-35.97,43.9-60.01
					c6.42-24.04,6.72-49.13,10.53-73.66c7.87-50.6,31.06-98.95,66.42-138.47c43.78-48.94,106.23-85.37,135.34-142.64
					c30.82-60.63,16.32-136.34-28.71-190.51c-45.02-54.16-116.97-87.42-190.8-97.11c-81.14-10.65-166.91,6.47-231.17,51.11
					s-104.8,117.31-100.98,191.07c1.51,29.07,10.35,59.19,32.31,80.81c28.93,28.49,79.48,36.76,116.83,19.12
					c37.35-17.64,38.26-53.34,48.1-93.38"/>
				<g>
					<path d="M1109.13,319.9c3.98-22.09,11.46-44.2,26.26-62.28c13.27-16.2,33.38-28.43,55.85-31.25
						c44.32-5.56,80.38,30.07,87.42,67.15c8.79,46.34-22.38,89.45-55.2,121.52c-17.76,17.36-37.12,33.3-55.37,50.23
						c-17.39,16.13-33.51,33.36-47.67,51.93c-27.68,36.3-48.16,77.62-55.91,121.52c-6.96,39.4-2.73,85.95,28.31,117.46
						c26.05,26.45,71.47,41.18,107.68,24.63c19.84-9.07,33.87-25.73,42.5-43.9c10.18-21.43,12.87-44.85,15.24-67.94
						c2.45-23.79,5.95-47.1,13.62-69.96c7.29-21.72,17.51-42.67,30.41-62.08c12.56-18.88,27.64-36.03,44.38-51.99
						c15.83-15.09,32.7-29.25,49.03-43.89c32.03-28.7,62.32-60.32,75.77-100.12c13.02-38.53,10.21-81.01-4.96-119.13
						c-15.67-39.38-44.34-73.25-81.12-98.76c-37.14-25.76-81.46-42.84-127.09-50.97c-46.28-8.25-94.53-7.37-140.03,2.6
						c-45.35,9.93-88.04,28.91-123.06,56.57c-34.56,27.28-61.03,62.71-76.48,101.83c-15.09,38.19-20.28,82.34-7.76,122.16
						c6.13,19.49,17.14,38.14,34.43,51.54c15.94,12.36,36.49,19.75,57.2,21.49c20.76,1.74,42.01-2.03,59.7-11.82
						c16.64-9.22,27-24.07,33.1-40.55c6.49-17.55,9-36.17,13.4-54.22c1.36-5.58-6.02-2.7-6.92,0.99
						c-4.43,18.19-6.94,36.98-13.57,54.66c-6.12,16.31-17.32,29.16-34.85,36.41c-37.9,15.67-87.22,5.11-113.83-24.6
						c-28.91-32.29-32.07-78.47-25.27-117.46c6.99-40.09,26.82-78.24,55.44-109.17c29.34-31.72,67.68-55.44,110.52-70.15
						c43.32-14.87,90.68-20.55,137.17-17.18c45.77,3.32,91.08,15.41,131.18,36.22c39.66,20.59,74.16,49.85,96.26,86.21
						c21.49,35.35,31.45,76.6,26.16,116.38c-2.63,19.82-9.36,38.92-19.81,56.4c-10.53,17.63-24.54,33.35-39.55,47.98
						c-30.77,29.98-66.1,56.08-93.86,88.56c-29.81,34.86-50.63,76.19-60.27,119.56c-5.25,23.63-6.03,47.77-9.8,71.6
						c-3.29,20.82-9.71,41.88-24.28,58.55c-12.77,14.61-31.51,23.1-52.29,23.38c-19.83,0.27-39.64-6.44-55.72-16.91
						c-37.42-24.37-48.8-67.98-46.17-107.15c2.91-43.09,20.68-84.94,45.45-121.22c12.73-18.64,27.44-36.14,43.7-52.35
						c17.21-17.15,36.09-32.84,54.12-49.27c34.51-31.48,67.47-68.52,73.76-114.21c2.69-19.53-0.52-39.32-10.64-57.04
						c-9.14-16-23.74-30.27-42.04-37.83c-42.5-17.57-87.89,6.5-109.63,39.44c-11.97,18.13-18.44,38.54-22.19,59.35
						c-0.35,1.95,1.68,2.75,3.41,2.15C1107.51,324.19,1108.77,321.91,1109.13,319.9L1109.13,319.9z"/>
				</g>
			</g>
			<g class="st7">
				<path d="M1126.92,885.57c-9.61-16.51,0.54-39.46,19.97-45.14"/>
				<g>
					<path d="M1130.19,882.52c-8.16-14.48-0.53-33.29,16.46-38.49c3.53-1.08,5.9-8.87,0.46-7.21
						c-22.07,6.75-34.24,32.69-23.48,51.79C1125.54,891.99,1131.93,885.61,1130.19,882.52L1130.19,882.52z"/>
				</g>
			</g>
			<g class="st7">
				<path d="M1123.83,861.55c1.53-0.1,2.57,1.97,1.47,2.92c-1.8-1.09-1.68-3.94,0.21-4.84"/>
				<g>
					<path d="M1121.83,865.4c0.49,0.01,0.44,0.18,0.15-0.08c0.42,0.37-0.17-0.33,0.05-0.03c0.19,0.26,0.13,0.44,0.07-0.05
						c0.02,0.07,0.03,0.14,0.05,0.21c-0.17-1.26,0.34-2.4,1.56-3.4c1.44-0.39,2.89-0.77,4.33-1.16c-0.14-0.09-0.26-0.18-0.38-0.28
						c0.49,0.41,0.1,0.08,0.04-0.08c-0.16-0.39,0.15,0.52,0.03,0.11c-0.18-0.61-0.04,0.11-0.07,0.1c-0.07-0.03,0.07-0.39,0.02-0.44
						c0.05,0.05-0.18,0.86-0.03,0.31c-0.16,0.57-0.47,1.07-0.88,1.53c-0.11,0.13-1.09,0.89-0.56,0.6c1.8-0.96,3.34-3.53,2.88-5.44
						c-0.52-2.12-2.8-1.59-4.28-0.8c-3.82,2.04-6.62,8.61-2.25,11.53c1.35,0.9,3.44-0.26,4.33-1.16c1.68-1.7,3.01-4.02,2.32-6.39
						c-0.41-1.38-1.68-2.79-3.38-2.79c-2.26-0.02-4.18,1.51-5.05,3.34c-0.42,0.87-0.77,1.87-0.53,2.84
						C1120.41,864.52,1120.97,865.4,1121.83,865.4L1121.83,865.4z"/>
				</g>
			</g>
		</g>
		<g id="Ebene_2_1_">
			<g>
				<path class="st8" d="M1195.77,815.03c26.6,13.1,42.39,42.26,37.34,68.93c-5.05,26.67-30.55,48.84-60.31,52.42
					c-29.76,3.58-61.49-11.72-75.05-36.16c-13.56-24.44-7.9-56.17,13.38-75.03c21.28-18.86,56.56-23.41,83.42-10.76"/>
				<g>
					<path d="M1193.03,818.61c24.96,12.5,40.42,38.87,36.85,64.3c-3.37,24.05-25.4,44.1-51.41,48.93
						c-27.44,5.1-57.59-6.97-73.21-28.09c-15.72-21.26-14.72-50.66,2.08-70.66c18.89-22.49,56.84-27.84,84.47-15.06
						c3.65,1.69,8.89-5.57,5.47-7.16c-27.94-12.93-62.9-8.39-85.74,10.21c-23.34,19.01-31.24,51.73-19.05,78.28
						c11.88,25.89,43.13,42.64,73.63,41.33c31.13-1.33,58.36-22.35,68-48.43c11.06-29.88-4.78-65.36-35.62-80.81
						C1194.93,809.67,1189.62,816.91,1193.03,818.61L1193.03,818.61z"/>
				</g>
			</g>
			<g>
				<path class="st9" d="M1137.34,305.81c4.41-24.84,13.21-49.63,30.73-69.01c17.52-19.38,44.89-32.63,72.76-30.15
					c40.41,3.59,71.06,39.96,74.3,76.46c3.24,36.5-15.51,71.68-40.43,100.13c-24.92,28.45-56.07,51.88-83.3,78.54
					c-44.37,43.44-78.63,96.57-90.46,154.99c-7.78,38.38-4.85,80.83,20.26,113.13c25.11,32.31,76.76,49.62,114.19,30.4
					c23.75-12.19,37.48-35.97,43.9-60.01c6.42-24.04,6.72-49.13,10.53-73.66c7.87-50.6,31.06-98.95,66.42-138.47
					c43.78-48.94,106.23-85.37,135.34-142.64c30.82-60.63,16.32-136.34-28.71-190.51c-45.02-54.16-116.97-87.42-190.8-97.11
					c-81.12-10.66-166.89,6.46-231.15,51.1c-64.27,44.65-104.82,117.32-101,191.08c1.51,29.07,10.35,59.19,32.31,80.81
					c28.93,28.49,79.48,36.76,116.83,19.12c37.35-17.64,38.26-53.34,48.1-93.38"/>
				<g>
					<path d="M1140.98,304.35c3.98-22.09,11.46-44.2,26.26-62.28c13.27-16.2,33.38-28.43,55.85-31.25
						c44.32-5.56,80.38,30.07,87.42,67.15c8.79,46.34-22.38,89.45-55.2,121.52c-17.76,17.36-37.12,33.3-55.37,50.23
						c-17.39,16.13-33.51,33.36-47.67,51.93c-27.68,36.3-48.16,77.62-55.91,121.52c-6.96,39.4-2.73,85.95,28.31,117.46
						c26.05,26.45,71.47,41.18,107.68,24.63c19.84-9.07,33.87-25.73,42.5-43.9c10.18-21.43,12.87-44.85,15.24-67.94
						c2.45-23.79,5.95-47.1,13.62-69.96c7.29-21.72,17.51-42.67,30.41-62.08c12.56-18.88,27.64-36.03,44.38-51.99
						c15.83-15.09,32.7-29.25,49.03-43.89c32.03-28.7,62.32-60.32,75.77-100.12c13.02-38.53,10.21-81.01-4.96-119.13
						c-15.67-39.38-44.34-73.25-81.12-98.76c-37.14-25.76-81.46-42.84-127.09-50.97c-46.28-8.25-94.53-7.37-140.03,2.6
						c-45.35,9.93-88.04,28.91-123.06,56.57c-34.56,27.28-61.03,62.71-76.48,101.83c-15.09,38.19-20.28,82.34-7.76,122.16
						c6.13,19.49,17.14,38.14,34.43,51.54c15.94,12.36,36.49,19.75,57.2,21.49c20.76,1.74,42.01-2.03,59.7-11.82
						c16.64-9.22,27-24.07,33.1-40.55c6.49-17.55,9-36.17,13.4-54.22c1.36-5.58-6.02-2.7-6.92,0.99
						c-4.43,18.19-6.94,36.98-13.57,54.66c-6.12,16.31-17.32,29.16-34.85,36.41c-37.9,15.67-87.22,5.11-113.83-24.6
						c-28.91-32.29-32.07-78.47-25.27-117.46c6.99-40.09,26.82-78.24,55.44-109.17c29.34-31.72,67.68-55.44,110.52-70.15
						c43.32-14.87,90.68-20.55,137.17-17.18c45.77,3.32,91.08,15.41,131.18,36.22c39.66,20.59,74.16,49.85,96.26,86.21
						c21.49,35.35,31.45,76.6,26.16,116.38c-2.63,19.82-9.36,38.92-19.81,56.4c-10.53,17.63-24.54,33.35-39.55,47.98
						c-30.77,29.98-66.1,56.08-93.86,88.56c-29.81,34.86-50.63,76.19-60.27,119.56c-5.25,23.63-6.03,47.77-9.8,71.6
						c-3.29,20.82-9.71,41.88-24.28,58.55c-12.77,14.61-31.51,23.1-52.29,23.38c-19.83,0.27-39.64-6.44-55.72-16.91
						c-37.42-24.37-48.8-67.98-46.17-107.15c2.91-43.09,20.68-84.94,45.45-121.22c12.73-18.64,27.44-36.14,43.7-52.35
						c17.21-17.15,36.09-32.84,54.11-49.27c34.51-31.48,67.47-68.52,73.76-114.21c2.69-19.53-0.52-39.32-10.64-57.04
						c-9.14-16-23.74-30.27-42.04-37.83c-42.5-17.57-87.89,6.5-109.63,39.44c-11.97,18.13-18.44,38.54-22.19,59.35
						c-0.35,1.95,1.68,2.75,3.41,2.15C1139.36,308.64,1140.62,306.36,1140.98,304.35L1140.98,304.35z"/>
				</g>
			</g>
			<g>
				<g>
					<path d="M1130.19,882.52c-8.16-14.48-0.53-33.29,16.46-38.49c3.53-1.08,5.9-8.87,0.46-7.21
						c-22.07,6.75-34.24,32.69-23.48,51.79C1125.54,891.99,1131.93,885.61,1130.19,882.52L1130.19,882.52z"/>
				</g>
			</g>
			<g>
				<path class="st8" d="M1168.71,837.08c1.53-0.1,2.57,1.97,1.47,2.92c-1.8-1.09-1.68-3.94,0.21-4.84"/>
				<g>
					<path d="M1166.71,840.93c0.49,0.01,0.44,0.18,0.15-0.08c0.42,0.37-0.17-0.33,0.05-0.03c0.19,0.26,0.13,0.44,0.07-0.05
						c0.02,0.07,0.03,0.14,0.05,0.21c-0.17-1.26,0.34-2.4,1.56-3.4c1.44-0.39,2.89-0.77,4.33-1.16c-0.14-0.09-0.26-0.18-0.38-0.28
						c0.49,0.41,0.1,0.08,0.04-0.08c-0.16-0.39,0.15,0.52,0.03,0.11c-0.18-0.61-0.04,0.11-0.07,0.1c-0.07-0.03,0.07-0.39,0.02-0.44
						c0.05,0.05-0.18,0.86-0.03,0.31c-0.16,0.57-0.47,1.07-0.87,1.53c-0.11,0.13-1.09,0.89-0.56,0.6c1.8-0.96,3.34-3.53,2.88-5.44
						c-0.52-2.12-2.8-1.59-4.28-0.8c-3.82,2.04-6.62,8.61-2.25,11.53c1.35,0.9,3.44-0.26,4.33-1.16c1.68-1.7,3.01-4.02,2.32-6.39
						c-0.41-1.38-1.68-2.79-3.38-2.79c-2.26-0.02-4.18,1.51-5.05,3.34c-0.42,0.87-0.77,1.87-0.53,2.84
						C1165.29,840.05,1165.86,840.93,1166.71,840.93L1166.71,840.93z"/>
				</g>
			</g>
		</g>
		<g id="Ebene_4">
			<g class="st7">
				<path d="M1171.14,807.83c-33.47-2.08-76.11,26.21-80.32,56.14c-4.2,29.92,28.55,65.5,61.39,72.01
					c-27.27-8.3-50.02-43.93-44.3-69.15c5.71-25.22,29.97-47.04,64.26-58.83"/>
				<g>
					<path d="M1173.14,803.98c-14.79-0.81-29.33,3.36-42,9.82c-13.26,6.77-25.2,16.1-33.6,27.63
						c-8.08,11.09-12.29,23.86-10.06,37.26c2.25,13.5,10.03,26.22,19.96,36.46c11.27,11.64,25.96,21.22,42.78,24.68
						c3.6,0.74,8.26-6.37,4-7.71c-21.62-6.79-37.19-27.98-42.04-47.34c-2.43-9.71-1.67-19.2,2.49-28.33
						c4.33-9.49,11.29-17.68,19.62-24.58c10.84-8.98,23.96-15.5,37.67-20.27c2.05-0.71,3.82-3.08,3.87-5.06
						c0.05-1.94-1.44-2.83-3.41-2.15c-25.73,8.94-49.89,24.7-62.11,47.52c-5.36,10.01-7.97,20.89-6.36,32.07
						c1.65,11.43,6.95,22.61,14.2,32.12c7.94,10.42,18.7,19.51,32.08,23.72c1.33-2.57,2.66-5.14,4-7.71
						c-26.62-5.48-50.4-27.59-57.86-51.03c-3.63-11.4-2.62-22.56,3.52-32.92c6.13-10.33,16.14-18.74,26.95-25.04
						c12.32-7.19,27.33-12.27,42.32-11.45C1172.93,811.89,1177.23,804.2,1173.14,803.98L1173.14,803.98z"/>
				</g>
			</g>
			<g class="st7">
				<path d="M1303.25,342.98c-24.41,38.46-54.42,62.69-86.97,95.82c-32.54,33.13-62.58,59.76-84.91,99.26
					c-22.32,39.5-38.29,117.48-26.86,161.1c11.43,43.61,59.83,80.96,120.78,65.36c-68.8-39.06-46.42-186.83-16.18-234.64
					c29.37-46.42,101.54-136.11,105.15-223.19"/>
				<g>
					<path d="M1300.21,342.47c-23.1,36.22-56.92,64.94-87.43,95.86c-30.59,31.01-62.62,60.99-83.91,98.28
						c-8.07,14.14-13.79,29.42-18.41,44.78c-5.22,17.37-8.97,35.15-11.23,53.07c-3.98,31.49-4.81,66.37,14.35,94.64
						c9.43,13.91,22.96,25.78,39.03,33.34c17.23,8.1,36.71,11.01,55.77,8.84c5.35-0.61,10.61-1.62,15.79-2.92
						c2.27-0.57,7.35-5.45,3.88-7.43c-24.9-14.27-35.72-41.22-40.61-66.1c-5.97-30.32-4.49-61.76,0.61-91.92
						c2.36-13.94,5.67-27.78,10.14-41.27c3.49-10.56,7.59-20.9,13.57-30.56c8.15-13.18,17.43-26.07,26.17-39.02
						c11.32-16.78,22.37-33.73,32.53-51.12c21.87-37.41,40.61-77.68,46.14-120.22c0.67-5.15,1.11-10.31,1.34-15.49
						c0.09-1.91-1.5-2.81-3.41-2.15c-2.04,0.71-3.78,3.09-3.87,5.06c-1.9,43.07-19.56,84.16-40.71,122
						c-18.23,32.62-40.43,63.02-60.82,94.49c-14.26,22-21.77,47.03-26.68,72.11c-6.02,30.72-8.23,62.58-3.69,93.75
						c3.78,25.94,12.87,54.53,35.88,72.31c2.51,1.94,5.16,3.69,7.95,5.29c1.29-2.48,2.59-4.96,3.88-7.43
						c-19.11,4.8-39.3,4.92-58.25-1.32c-16.73-5.51-31.53-15.84-42.28-28.65c-10.34-12.31-16.87-26.6-19.54-41.74
						c-2.8-15.86-2.42-32.1-0.93-48c1.65-17.67,4.92-35.2,9.58-52.38c4.16-15.36,9.34-30.62,16.69-44.96
						c18.39-35.92,48.81-64.89,77.76-93.91c15.34-15.38,30.96-30.5,46.4-45.8c14.93-14.79,29.25-30.16,41.37-46.98
						c3.17-4.39,6.16-8.88,9.05-13.42c0.85-1.33,1.03-3.89-1.05-4.36C1303.01,338.61,1301.1,341.07,1300.21,342.47L1300.21,342.47z"
						/>
				</g>
			</g>
			<g class="st7">
				<path d="M1235.27,54.97c-51.45,3.65-123.99,14.68-166.48,38.08c-42.49,23.4-88.25,72.47-110.03,112.9
					c-21.78,40.43-24.22,107.55-4.94,149.63c19.28,42.08,60.75,62.49,118.39,50.46c-34.13-10.89-67.92-33.98-75.2-65.91
					c-7.27-31.93-0.23-65.05,11.98-95.42c32.96-81.98,109.28-148.3,225.09-187.31"/>
				<g>
					<path d="M1236.42,51.11c-45.04,3.22-90.83,9.77-133.19,23.84c-20.03,6.65-38.42,15.73-55.13,27.65
						c-18.85,13.44-35.71,29.09-50.91,45.83c-14.73,16.22-28.1,33.59-38.84,52.25c-9.74,16.94-15.41,35.36-18.51,54.29
						c-3.28,20.05-3.64,40.61-1.02,60.83c2.39,18.46,7.4,37.16,17.43,53.64c9.01,14.79,22.41,27.53,39.27,35.09
						c18.17,8.15,38.62,10.07,58.44,8.05c5.76-0.59,11.46-1.52,17.1-2.68c2.74-0.56,7.53-6.3,3.15-7.71
						c-30.08-9.7-61.56-29.12-71.72-57.84c-6.14-17.35-5.75-36.77-3.07-54.5c2.68-17.66,8.3-34.97,15.51-51.47
						c10.93-25.05,26.05-48.39,44.57-69.4c19.67-22.3,43.19-41.73,68.87-58.28c28.54-18.39,59.78-33.21,92.34-45.07
						c4.36-1.59,8.75-3.12,13.15-4.61c3.47-1.18,5.83-9.02,0.46-7.21c-34.66,11.71-68.03,26.57-98.67,45.21
						c-27.54,16.76-52.86,36.65-74.3,59.56c-20.35,21.74-37.28,46.06-49.63,72.34c-15.7,33.43-26.15,71.12-19.08,107.8
						c6.1,31.64,34.31,54.34,65.74,66.91c3.88,1.55,7.83,2.97,11.82,4.26c1.05-2.57,2.1-5.14,3.15-7.71
						c-20.02,4.12-41.17,5.07-61.12-0.7c-16.93-4.91-31.64-14.86-42.16-27.81c-11.71-14.44-18.18-31.56-21.82-48.91
						c-4.01-19.16-4.75-38.82-2.99-58.15c1.7-18.62,5.68-37.44,13.75-54.62c8.34-17.75,20.49-34.17,33.32-49.46
						c26.02-31.04,58.32-60.58,98.59-76.12c20.21-7.8,41.59-13.09,63.11-17.23c21.54-4.16,43.4-7.11,65.35-9.13
						c4.9-0.45,9.81-0.85,14.73-1.2C1237.74,58.57,1241.4,50.75,1236.42,51.11L1236.42,51.11z"/>
				</g>
			</g>
		</g>
		<g id="Ebene_5">
			<g class="st7">
				<g>
					<path class="st10" d="M1323.34,111.22c3.55,1.21,7.06,2.51,10.5,3.95c1.72,0.72,3.43,1.46,5.12,2.24
						c0.85,0.39,1.68,0.78,2.52,1.18c0.37,0.18,3.83,1.91,1.71,0.82c6.59,3.39,12.91,7.22,18.9,11.42
						c12.16,8.52,22.22,17.95,31.42,29.37c18.98,23.55,29.74,51.28,30.51,80.18c1.83,69.06-45.15,127.52-88.31,179.96
						c-24.98,30.35-49.86,60.9-67.69,95.35c-0.83,1.61,3.78,3.72,4.43,3.99c3.35,1.43,7.66,2.19,11.3,2.44
						c4.92,0.34,14.08,1.08,16.57-3.75c32.04-61.91,88-110.03,123.6-169.99c17.74-29.87,31.27-62.74,32.38-97.16
						c0.96-29.86-8.3-59.56-26.56-84.8c-19.72-27.27-49.22-49.05-82.97-60.52c-6.97-2.37-15.58-3.84-22.84-1.9
						c-1.74,0.46-4.86,1.16-5.03,3.21C1318.75,109.15,1321.82,110.7,1323.34,111.22L1323.34,111.22z"/>
				</g>
			</g>
			<g class="st7">
				<g>
					<path class="st10" d="M1184.67,857.42c4.47,11.44,3.17,24.44-1.75,35.42c-2.39,5.34-5.97,10.27-10.21,14.54
						c-4.88,4.91-9.17,7.79-15.45,10.44c-6.4,2.71,2.09,6.64,5.22,7.45c6.69,1.74,15.74,2.76,22.24,0.01
						c27.66-11.68,41.59-41.71,31.32-67.97c-0.71-1.82-5.68-3.24-7.17-3.66c-3.85-1.08-8.4-1.64-12.4-1.55
						C1193.06,852.17,1182.69,852.36,1184.67,857.42L1184.67,857.42z"/>
				</g>
			</g>
		</g>
	</g>
	<g>
		<g id="Ebene_2_Kopie_1_">
			<g class="st7">
				<path d="M1517.91,1036.85c20.86,9.63,33.64,31.88,30.25,52.6s-22.73,38.36-45.71,41.69c-22.98,3.33-47.86-7.89-58.83-26.54
					s-7.19-43.29,8.92-58.28c16.12-14.99,43.36-19.18,64.41-9.91"/>
				<g>
					<path d="M1515.86,1039.66c19.57,9.2,32.05,29.29,29.78,49.03c-2.15,18.67-18.83,34.59-38.89,38.82
						c-21.15,4.46-44.74-4.29-57.25-20.33c-12.59-16.14-12.37-38.9,0.26-54.69c14.2-17.75,43.49-22.62,65.14-13.25
						c2.86,1.24,6.78-4.48,4.1-5.64c-21.89-9.47-48.88-5.29-66.22,9.53c-17.71,15.15-23.21,40.6-13.26,60.9
						c9.7,19.8,34.23,32.15,57.82,30.56c24.09-1.62,44.77-18.4,51.75-38.75c8-23.32-4.95-50.45-29.14-61.82
						C1517.16,1032.71,1513.19,1038.41,1515.86,1039.66L1515.86,1039.66z"/>
				</g>
			</g>
			<g class="st7">
				<path d="M1453.15,644.9c2.94-19.29,9.28-38.63,22.48-53.96c13.2-15.32,34.14-26.09,55.78-24.7
					c31.37,2.01,55.81,29.55,59.02,57.72c3.21,28.17-10.64,55.73-29.4,78.21c-18.76,22.47-42.44,41.19-63.02,62.33
					c-33.53,34.44-59.05,76.18-67.1,121.59c-5.29,29.83-2.2,62.6,17.86,87.11c20.07,24.51,60.41,36.92,89.03,21.34
					c18.16-9.88,28.34-28.53,32.85-47.25c4.51-18.72,4.26-38.13,6.75-57.17c5.12-39.28,22.16-77.12,48.79-108.36
					c32.98-38.69,80.65-68.04,102.1-112.89c22.71-47.48,10.03-105.76-25.89-146.79c-35.91-41.04-92.28-65.39-149.65-71.48
					c-63.06-6.7-129.16,8.17-178.09,43.92c-48.92,35.75-78.93,92.72-74.55,149.69c1.72,22.46,9.15,45.58,26.58,61.89
					c22.96,21.49,62.27,26.92,90.86,12.57c28.59-14.35,28.62-41.98,35.46-73.14"/>
				<g>
					<path d="M1455.94,643.71c2.66-17.16,8.03-34.4,19.15-48.67c9.97-12.78,25.31-22.62,42.66-25.23
						c34.22-5.14,62.84,21.72,69,50.27c7.7,35.67-15.62,69.61-40.43,95.03c-13.43,13.76-28.11,26.46-41.93,39.9
						c-13.16,12.8-25.32,26.44-35.93,41.07c-20.74,28.6-35.81,60.94-40.98,95.05c-4.63,30.61-0.47,66.52,24.18,90.31
						c20.69,19.96,56.15,30.49,83.88,17c15.19-7.39,25.74-20.54,32.08-34.76c7.47-16.77,9.11-34.93,10.5-52.84
						c1.44-18.44,3.71-36.54,9.21-54.37c5.23-16.93,12.74-33.34,22.37-48.59c9.36-14.84,20.72-28.39,33.38-41.05
						c11.97-11.98,24.77-23.25,37.14-34.88c24.26-22.81,47.11-47.83,56.77-78.87c9.35-30.05,6.35-62.84-6.13-92.04
						c-12.89-30.16-35.75-55.81-64.73-74.84c-29.27-19.22-63.92-31.58-99.42-37.01c-36-5.5-73.36-3.9-108.42,4.67
						c-34.94,8.55-67.64,24.03-94.24,46.09c-26.24,21.76-46.07,49.66-57.29,80.21c-10.96,29.82-14.13,64.07-3.66,94.62
						c5.12,14.96,14.01,29.17,27.66,39.21c12.58,9.25,28.64,14.58,44.72,15.53c16.11,0.95,32.5-2.37,46.01-10.27
						c12.72-7.44,20.45-19.13,24.86-31.99c4.69-13.69,6.28-28.15,9.34-42.19c0.95-4.34-4.71-1.97-5.34,0.9
						c-3.08,14.15-4.67,28.74-9.46,42.53c-4.43,12.73-12.86,22.88-26.3,28.82c-29.05,12.84-67.46,5.61-88.64-16.86
						c-23.02-24.42-26.34-60.08-21.83-90.36c4.64-31.14,19.28-61.02,40.85-85.48c22.12-25.09,51.36-44.16,84.26-56.36
						c33.27-12.33,69.85-17.62,105.93-15.89c35.52,1.7,70.85,10.18,102.31,25.52c31.11,15.17,58.4,37.14,76.22,64.85
						c17.32,26.93,25.83,58.65,22.5,89.51c-1.66,15.38-6.51,30.28-14.26,44c-7.82,13.83-18.37,26.26-29.72,37.86
						c-23.26,23.77-50.12,44.63-71.01,70.28c-22.42,27.52-37.76,59.89-44.39,93.61c-3.61,18.37-3.76,37.06-6.21,55.56
						c-2.15,16.16-6.72,32.58-17.69,45.74c-9.61,11.54-23.96,18.46-40.06,19.07c-15.35,0.58-30.82-4.23-43.48-12.02
						c-29.46-18.14-39.11-51.65-37.81-81.99c1.42-33.38,14.39-66.09,32.88-94.62c9.5-14.66,20.56-28.47,32.85-41.32
						c13-13.59,27.33-26.08,40.97-39.14c26.13-25,50.95-54.27,54.94-89.73c1.71-15.15-1.16-30.4-9.34-43.91
						c-7.38-12.2-18.97-22.96-33.29-28.46c-33.26-12.78-67.95,6.7-84.16,32.59c-8.92,14.25-13.54,30.15-16.05,46.32
						c-0.23,1.52,1.35,2.09,2.68,1.6C1454.76,647.05,1455.69,645.26,1455.94,643.71L1455.94,643.71z"/>
				</g>
			</g>
			<g class="st7">
				<path d="M1480.56,1080.85c-7.76-12.59-0.34-30.53,14.6-35.29"/>
				<g>
					<path d="M1483.04,1078.43c-6.6-11.05-1.05-25.73,12.01-30.08c2.71-0.9,4.4-6.97,0.22-5.58c-16.97,5.64-25.89,25.93-17.19,40.5
						C1479.61,1085.85,1484.44,1080.79,1483.04,1078.43L1483.04,1078.43z"/>
				</g>
			</g>
			<g class="st7">
				<path d="M1477.71,1062.33c1.18-0.11,2.03,1.48,1.19,2.23c-1.42-0.81-1.37-3.01,0.07-3.75"/>
				<g>
					<path d="M1476.23,1065.35c0.38,0,0.34,0.13,0.11-0.07c0.33,0.28-0.14-0.25,0.04-0.03c0.15,0.2,0.11,0.34,0.05-0.04
						c0.02,0.06,0.03,0.11,0.05,0.16c-0.16-0.97,0.22-1.86,1.14-2.66c1.11-0.33,2.22-0.65,3.33-0.98c-0.11-0.07-0.2-0.13-0.3-0.21
						c0.38,0.31,0.08,0.06,0.03-0.06c-0.13-0.3,0.13,0.4,0.03,0.09c-0.15-0.47-0.03,0.09-0.05,0.08c-0.05-0.02,0.04-0.31,0.01-0.34
						c0.04,0.04-0.12,0.67-0.01,0.24c-0.11,0.44-0.35,0.84-0.65,1.2c-0.09,0.1-0.83,0.71-0.43,0.48c1.37-0.78,2.52-2.79,2.13-4.26
						c-0.44-1.63-2.2-1.17-3.33-0.53c-2.92,1.65-4.96,6.78-1.52,8.96c1.06,0.67,2.66-0.27,3.33-0.98c1.27-1.35,2.26-3.17,1.67-4.98
						c-0.34-1.06-1.36-2.12-2.67-2.1c-1.75,0.03-3.21,1.25-3.84,2.68c-0.31,0.68-0.56,1.46-0.35,2.21
						C1475.11,1064.7,1475.57,1065.36,1476.23,1065.35L1476.23,1065.35z"/>
				</g>
			</g>
		</g>
		<g id="Ebene_2_2_">
			<g>
				<path class="st8" d="M1532.54,1024.99c20.86,9.63,33.64,31.88,30.25,52.6c-3.4,20.72-22.73,38.36-45.71,41.69
					c-22.98,3.33-47.86-7.89-58.83-26.54s-7.19-43.29,8.92-58.28c16.12-14.99,43.36-19.18,64.41-9.91"/>
				<g>
					<path d="M1530.49,1027.81c19.57,9.2,32.05,29.29,29.78,49.03c-2.15,18.67-18.83,34.59-38.89,38.82
						c-21.15,4.46-44.74-4.29-57.25-20.33c-12.59-16.14-12.37-38.9,0.26-54.69c14.2-17.75,43.49-22.62,65.14-13.25
						c2.86,1.24,6.78-4.48,4.1-5.64c-21.89-9.47-48.88-5.29-66.22,9.53c-17.71,15.15-23.21,40.6-13.26,60.9
						c9.7,19.8,34.23,32.15,57.82,30.56c24.09-1.62,44.77-18.4,51.75-38.75c8-23.32-4.95-50.45-29.14-61.82
						C1531.78,1020.86,1527.81,1026.56,1530.49,1027.81L1530.49,1027.81z"/>
				</g>
			</g>
			<g>
				<path class="st9" d="M1477.52,632.27c2.94-19.29,9.28-38.63,22.48-53.96s34.14-26.09,55.78-24.7
					c31.37,2.01,55.81,29.55,59.02,57.72c3.21,28.17-10.64,55.73-29.4,78.21s-42.44,41.19-63.02,62.33
					c-33.53,34.44-59.05,76.18-67.1,121.59c-5.29,29.83-2.2,62.6,17.86,87.11c20.07,24.51,60.41,36.92,89.03,21.34
					c18.16-9.88,28.34-28.53,32.85-47.25c4.51-18.72,4.26-38.13,6.75-57.17c5.12-39.28,22.16-77.12,48.79-108.36
					c32.98-38.69,80.65-68.04,102.1-112.89c22.71-47.48,10.03-105.76-25.89-146.79c-35.91-41.04-92.28-65.39-149.65-71.48
					c-63.04-6.7-129.15,8.17-178.07,43.92c-48.92,35.75-78.94,92.73-74.57,149.7c1.72,22.46,9.15,45.58,26.58,61.89
					c22.96,21.49,62.27,26.92,90.86,12.57c28.59-14.35,28.62-41.98,35.46-73.14"/>
				<g>
					<path d="M1480.31,631.07c2.66-17.16,8.03-34.4,19.15-48.67c9.97-12.78,25.31-22.62,42.66-25.23
						c34.22-5.14,62.84,21.72,69,50.27c7.7,35.67-15.62,69.61-40.43,95.03c-13.43,13.76-28.11,26.46-41.93,39.9
						c-13.16,12.8-25.32,26.44-35.93,41.07c-20.74,28.6-35.81,60.94-40.98,95.05c-4.63,30.61-0.47,66.52,24.18,90.31
						c20.69,19.96,56.15,30.49,83.88,17c15.19-7.39,25.74-20.54,32.08-34.76c7.47-16.77,9.11-34.93,10.5-52.84
						c1.44-18.44,3.71-36.54,9.21-54.37c5.23-16.93,12.74-33.34,22.37-48.59c9.36-14.84,20.72-28.39,33.38-41.05
						c11.97-11.98,24.77-23.25,37.14-34.88c24.26-22.81,47.11-47.83,56.77-78.87c9.35-30.05,6.35-62.84-6.13-92.04
						c-12.89-30.16-35.75-55.81-64.73-74.84c-29.27-19.22-63.92-31.58-99.42-37.01c-36-5.5-73.36-3.9-108.42,4.67
						c-34.94,8.55-67.64,24.03-94.24,46.09c-26.24,21.76-46.07,49.66-57.29,80.21c-10.96,29.82-14.13,64.07-3.66,94.62
						c5.12,14.96,14.01,29.17,27.66,39.21c12.58,9.25,28.64,14.58,44.72,15.53c16.11,0.95,32.5-2.37,46.01-10.27
						c12.72-7.44,20.45-19.13,24.86-31.99c4.69-13.69,6.28-28.15,9.34-42.19c0.95-4.34-4.71-1.97-5.34,0.9
						c-3.08,14.15-4.67,28.74-9.46,42.53c-4.43,12.73-12.86,22.88-26.3,28.82c-29.05,12.84-67.46,5.61-88.64-16.86
						c-23.02-24.42-26.34-60.08-21.83-90.36c4.64-31.14,19.28-61.02,40.85-85.48c22.12-25.09,51.36-44.16,84.26-56.36
						c33.27-12.33,69.85-17.62,105.93-15.89c35.52,1.7,70.85,10.18,102.31,25.52c31.11,15.17,58.4,37.14,76.22,64.85
						c17.32,26.93,25.83,58.65,22.5,89.51c-1.66,15.38-6.51,30.28-14.26,44c-7.82,13.83-18.37,26.26-29.72,37.86
						c-23.26,23.77-50.12,44.63-71.01,70.28c-22.42,27.52-37.76,59.89-44.39,93.61c-3.61,18.37-3.76,37.06-6.21,55.56
						c-2.15,16.16-6.72,32.58-17.69,45.74c-9.61,11.54-23.96,18.46-40.06,19.07c-15.35,0.58-30.82-4.23-43.48-12.02
						c-29.46-18.14-39.11-51.65-37.81-81.99c1.42-33.38,14.39-66.09,32.88-94.62c9.5-14.66,20.56-28.47,32.85-41.32
						c13-13.59,27.33-26.08,40.97-39.14c26.13-25,50.95-54.27,54.94-89.73c1.71-15.15-1.16-30.4-9.34-43.91
						c-7.38-12.2-18.97-22.96-33.29-28.46c-33.26-12.78-67.95,6.7-84.16,32.59c-8.92,14.25-13.54,30.15-16.05,46.32
						c-0.23,1.52,1.35,2.09,2.68,1.6C1479.14,634.42,1480.07,632.63,1480.31,631.07L1480.31,631.07z"/>
				</g>
			</g>
			<g>
				<g>
					<path d="M1483.04,1078.43c-6.6-11.05-1.05-25.73,12.01-30.08c2.71-0.9,4.4-6.97,0.22-5.58c-16.97,5.64-25.89,25.93-17.19,40.5
						C1479.61,1085.85,1484.44,1080.79,1483.04,1078.43L1483.04,1078.43z"/>
				</g>
			</g>
			<g>
				<path class="st8" d="M1512,1042.56c1.18-0.11,2.03,1.48,1.19,2.23c-1.42-0.81-1.37-3.01,0.07-3.75"/>
				<g>
					<path d="M1510.53,1045.57c0.38,0,0.34,0.13,0.11-0.07c0.33,0.28-0.14-0.25,0.04-0.03c0.15,0.2,0.11,0.34,0.05-0.04
						c0.02,0.06,0.03,0.11,0.05,0.16c-0.16-0.97,0.22-1.86,1.14-2.66c1.11-0.33,2.22-0.65,3.33-0.98c-0.11-0.07-0.2-0.13-0.3-0.21
						c0.38,0.31,0.08,0.06,0.03-0.06c-0.13-0.3,0.13,0.4,0.03,0.09c-0.15-0.47-0.03,0.09-0.05,0.08c-0.05-0.02,0.04-0.31,0-0.34
						c0.04,0.04-0.12,0.67-0.01,0.24c-0.11,0.44-0.35,0.84-0.65,1.2c-0.09,0.1-0.83,0.71-0.43,0.48c1.37-0.78,2.52-2.79,2.13-4.26
						c-0.44-1.63-2.2-1.17-3.33-0.53c-2.92,1.65-4.96,6.78-1.52,8.96c1.06,0.67,2.66-0.27,3.33-0.98c1.27-1.35,2.26-3.17,1.67-4.98
						c-0.34-1.06-1.36-2.12-2.67-2.1c-1.75,0.03-3.21,1.25-3.84,2.68c-0.31,0.68-0.56,1.46-0.36,2.21
						C1509.41,1044.92,1509.87,1045.59,1510.53,1045.57L1510.53,1045.57z"/>
				</g>
			</g>
		</g>
		<g id="Ebene_4_1_">
			<g class="st7">
				<path d="M1513.33,1019.89c-25.97-0.97-58.46,21.72-61.14,44.94c-2.68,23.22,23.37,50.11,48.94,54.53
					c-21.28-5.9-39.58-33.02-35.64-52.64c3.94-19.62,22.31-36.95,48.64-46.72"/>
				<g>
					<path d="M1514.8,1016.87c-11.47-0.34-22.66,3.15-32.34,8.39c-10.14,5.49-19.21,12.93-25.5,22c-6.05,8.73-9.06,18.69-7.08,29.01
						c2,10.4,8.27,20.09,16.16,27.82c8.96,8.78,20.51,15.92,33.61,18.28c2.8,0.5,6.27-5.08,2.95-6.04
						c-16.87-4.84-29.34-20.93-33.47-35.82c-2.07-7.46-1.66-14.82,1.39-21.95c3.17-7.43,8.4-13.89,14.72-19.38
						c8.23-7.15,18.26-12.45,28.79-16.39c1.57-0.59,2.9-2.46,2.9-3.99c0-1.5-1.17-2.16-2.68-1.6c-19.76,7.4-38.17,20.05-47.2,37.93
						c-3.96,7.85-5.78,16.3-4.31,24.92c1.49,8.81,5.82,17.36,11.62,24.57c6.35,7.9,14.86,14.74,25.3,17.73
						c0.98-2.01,1.97-4.03,2.95-6.04c-20.73-3.73-39.57-20.38-45.8-38.37c-3.03-8.75-2.46-17.4,2.1-25.52
						c4.55-8.11,12.14-14.8,20.39-19.88c9.4-5.8,20.93-10.01,32.56-9.66C1514.79,1023,1517.98,1016.96,1514.8,1016.87
						L1514.8,1016.87z"/>
				</g>
			</g>
			<g class="st7">
				<path d="M1606.74,657.86c-18.17,30.21-40.95,49.52-65.53,75.76c-24.57,26.24-47.33,47.41-63.86,78.38
					c-16.53,30.97-27.4,91.59-17.72,125.1s47.9,61.48,94.81,48.25c-54.04-28.9-39.54-143.61-17.03-181.16
					c21.86-36.46,76.04-107.19,77.17-174.61"/>
				<g>
					<path d="M1604.37,657.52c-17.2,28.45-42.84,51.31-65.89,75.8c-23.1,24.56-47.34,48.36-63.11,77.6
						c-5.98,11.09-10.12,23.02-13.4,34.98c-3.71,13.53-6.28,27.36-7.68,41.26c-2.48,24.43-2.45,51.43,12.93,72.92
						c7.57,10.58,18.28,19.5,30.87,25.04c13.5,5.94,28.64,7.82,43.37,5.78c4.13-0.57,8.19-1.45,12.18-2.56
						c1.75-0.49,5.59-4.35,2.87-5.82c-19.56-10.57-28.46-31.2-32.72-50.35c-5.2-23.34-4.66-47.68-1.29-71.1
						c1.56-10.83,3.86-21.59,7.06-32.11c2.5-8.23,5.48-16.31,9.92-23.9c6.06-10.35,13-20.49,19.52-30.68
						c8.45-13.19,16.68-26.51,24.22-40.16c16.22-29.35,29.97-60.85,33.43-93.85c0.42-3.99,0.66-8,0.74-12.01
						c0.03-1.48-1.21-2.15-2.68-1.6c-1.57,0.59-2.87,2.46-2.9,3.99c-0.65,33.35-13.53,65.46-29.2,95.13
						c-13.5,25.57-30.11,49.5-45.3,74.23c-10.62,17.29-15.96,36.79-19.29,56.28c-4.07,23.87-5.17,48.55-1.06,72.57
						c3.43,19.99,11.01,41.93,29.18,55.24c1.98,1.45,4.07,2.76,6.26,3.94c0.95-1.94,1.91-3.88,2.87-5.82
						c-14.71,4.08-30.35,4.56-45.14,0.09c-13.07-3.94-24.73-11.65-33.3-21.35c-8.25-9.33-13.58-20.25-15.94-31.91
						c-2.47-12.22-2.49-24.78-1.64-37.1c0.94-13.7,3.14-27.32,6.42-40.7c2.93-11.96,6.65-23.86,12.06-35.09
						c13.55-28.13,36.56-51.11,58.43-74.11c11.59-12.18,23.4-24.18,35.06-36.3c11.28-11.73,22.08-23.88,31.14-37.12
						c2.37-3.46,4.6-6.98,6.75-10.55c0.63-1.04,0.72-3.03-0.9-3.36C1606.47,654.48,1605.04,656.43,1604.37,657.52L1604.37,657.52z"
						/>
				</g>
			</g>
			<g class="st7">
				<path d="M1548.56,436.41c-39.79,3.8-95.76,13.71-128.23,32.61c-32.47,18.91-66.97,57.73-83.07,89.41
					c-16.1,31.68-16.7,83.64-0.96,115.82c15.74,32.18,48.26,47.18,92.67,36.77c-26.65-7.78-53.26-24.99-59.51-49.54
					c-6.24-24.55-1.42-50.3,7.45-74.02c23.96-64.03,81.81-116.78,170.76-149.14"/>
				<g>
					<path d="M1549.38,433.4c-34.82,3.35-70.17,9.28-102.71,20.97c-15.39,5.53-29.45,12.9-42.17,22.43
						c-14.34,10.75-27.1,23.18-38.56,36.41c-11.1,12.83-21.12,26.51-29.08,41.15c-7.22,13.29-11.26,27.64-13.3,42.34
						c-2.16,15.57-2.04,31.48,0.38,47.07c2.2,14.23,6.44,28.6,14.53,41.15c7.27,11.27,17.89,20.86,31.09,26.39
						c14.23,5.96,30.11,7.06,45.42,5.12c4.45-0.56,8.85-1.39,13.19-2.4c2.11-0.49,5.71-5.02,2.29-6.02
						c-23.49-6.93-48.24-21.35-56.66-43.37c-5.09-13.3-5.16-28.33-3.42-42.09c1.74-13.71,5.76-27.21,11.02-40.1
						c7.99-19.58,19.25-37.92,33.2-54.52c14.81-17.62,32.66-33.1,52.23-46.38c21.76-14.76,45.67-26.82,70.66-36.61
						c3.35-1.31,6.72-2.58,10.1-3.81c2.67-0.98,4.34-7.09,0.22-5.58c-26.62,9.71-52.18,21.84-75.56,36.84
						c-21.01,13.48-40.25,29.35-56.41,47.48c-15.34,17.2-27.99,36.33-37.05,56.89c-11.52,26.15-18.89,55.5-12.71,83.74
						c5.33,24.35,27.62,41.37,52.2,50.5c3.04,1.13,6.12,2.15,9.24,3.07c0.76-2.01,1.53-4.01,2.29-6.02
						c-15.43,3.57-31.79,4.71-47.35,0.62c-13.21-3.47-24.8-10.89-33.19-20.71c-9.35-10.94-14.69-24.06-17.84-37.41
						c-3.48-14.75-4.43-29.94-3.43-44.92c0.96-14.43,3.68-29.06,9.6-42.51c6.12-13.89,15.22-26.82,24.86-38.89
						c19.56-24.5,44.01-47.96,74.9-60.75c15.51-6.42,31.96-10.91,48.56-14.53c16.61-3.62,33.48-6.33,50.44-8.31
						c3.79-0.44,7.59-0.84,11.39-1.21C1550.54,439.14,1553.23,433.03,1549.38,433.4L1549.38,433.4z"/>
				</g>
			</g>
		</g>
		<g id="Ebene_5_1_">
			<g class="st7">
				<g>
					<path class="st10" d="M1617.86,478.24c2.77,0.87,5.51,1.81,8.21,2.85c1.35,0.52,2.68,1.07,4.01,1.63
						c0.66,0.28,1.32,0.57,1.98,0.87c0.29,0.13,3,1.41,1.34,0.6c5.17,2.5,10.14,5.34,14.86,8.47c9.59,6.36,17.56,13.46,24.9,22.12
						c15.15,17.85,24.02,39.09,25.17,61.43c2.74,53.38-32.53,99.48-64.95,140.86c-18.77,23.95-37.45,48.05-50.6,75.03
						c-0.61,1.26,3,2.8,3.51,3.01c2.63,1.04,5.98,1.55,8.8,1.67c3.82,0.17,10.92,0.56,12.77-3.21
						c23.63-48.49,66.05-86.77,92.48-133.82c13.17-23.43,23.02-49.12,23.22-75.76c0.17-23.11-7.57-45.91-22.2-65.08
						c-15.8-20.72-39.07-37-65.43-45.23c-5.45-1.7-12.15-2.67-17.73-1.03c-1.34,0.39-3.74,0.99-3.83,2.58
						C1614.26,476.72,1616.67,477.87,1617.86,478.24L1617.86,478.24z"/>
				</g>
			</g>
			<g class="st7">
				<g>
					<path class="st10" d="M1524.75,1057.98c3.68,8.76,2.93,18.84-0.67,27.43c-1.75,4.17-4.42,8.05-7.63,11.44
						c-3.69,3.89-6.96,6.2-11.77,8.37c-4.91,2.22,1.75,5.09,4.18,5.66c5.22,1.22,12.24,1.84,17.23-0.42
						c21.2-9.56,31.42-33.05,22.95-53.17c-0.58-1.39-4.46-2.4-5.62-2.69c-3-0.76-6.54-1.11-9.63-0.96
						C1531.15,1053.76,1523.12,1054.11,1524.75,1057.98L1524.75,1057.98z"/>
				</g>
			</g>
		</g>
	</g>
</g>
</svg>
