<?xml version="1.0" encoding="utf-8"?>
<!-- Generator: Adobe Adobe Illustrator 24.2.0, SVG Export Plug-In . SVG Version: 6.00 Build 0)  -->
<svg version="1.1" xmlns="http://www.w3.org/2000/svg" xmlns:xlink="http://www.w3.org/1999/xlink" x="0px" y="0px"
	 viewBox="0 0 1700.79 1700.79" style="enable-background:new 0 0 1700.79 1700.79;" xml:space="preserve">
<style type="text/css">
	.st0{fill:#99C154;}
	.st1{opacity:0.149;}
	.st2{fill:#FFFFFF;}
	.st3{fill:#F2C059;}
	.st4{fill:#CB5B7A;stroke:#CC5C7B;stroke-miterlimit:10;}
	.st5{stroke:#000000;stroke-miterlimit:10;}
	.st6{fill:#FFFFFF;stroke:#FFFFFF;stroke-miterlimit:10;}
	.st7{fill:#FFFFFF;stroke:#FFFFFF;stroke-width:0.9508;stroke-miterlimit:10;}
	.st8{fill:none;stroke:#000000;stroke-width:17.2352;stroke-miterlimit:10;}
	.st9{opacity:0.4706;fill:#D3E1EC;stroke:#000000;stroke-width:17.2352;stroke-miterlimit:10;}
	.st10{opacity:0.6392;fill:#D3E1EC;stroke:#000000;stroke-width:17.2352;stroke-miterlimit:10;}
	.st11{fill:#99C154;stroke:#000000;stroke-width:11.21;stroke-miterlimit:10;}
	.st12{fill:#F4F5E9;}
	.st13{fill:#F4F6E7;}
</style>
<g id="Ebene_1">
</g>
<g id="Ebene_4">
</g>
<g id="Ebene_11">
</g>
<g id="Ebene_9">
</g>
<g id="Ebene_8">
</g>
<g id="Ebene_3">
</g>
<g id="Ebene_16">
</g>
<g id="Ebene_7">
</g>
<g id="Ebene_10">
</g>
<g id="Ebene_5">
</g>
<g id="Ebene_5_Kopie">
</g>
<g id="Ebene_12">
</g>
<g id="Ebene_14">
</g>
<g id="Ebene_15">
</g>
<g id="Ebene_13">
	<g>
		<g>
			<path class="st0" d="M737.48,1007.75c7.07-163.83,14.11-328.58-6.31-491.29c-6.86-54.66-18.1-111.79-53.89-153.67
				c-56.51-66.12-163.24-72.99-238.71-29.75S316.84,458.94,297.85,543.82c-19,84.88-14.18,173.04-9.26,259.88
				c8.61,151.94,17.21,303.88,25.82,455.83c4.66,82.23,11.17,169.76,60.55,235.68c52.87,70.58,143.73,100.84,230.61,115.98
				c122.09,21.27,248,20.43,369.79-2.48c105.6-19.86,215.68-62.03,273.71-152.47c11.73-18.28,21.13-41.38,12.31-61.22
				c-14.24-32.04-60.08-29.38-94.06-20.73c-57.67,14.68-115.32,31.45-174.7,35.33c-59.38,3.87-121.82-6.37-170.02-41.27
				c-54.19-39.23-84-105.22-93.78-171.4c-9.78-66.18-1.84-133.55,6.1-199.97"/>
			<g>
				<path d="M744.98,1007.75c6.63-153.6,13.27-307.97-2.84-461.23c-6.67-63.48-14.59-132.53-55.63-184.26
					c-33.72-42.51-87.52-63.34-140.85-64c-56.95-0.7-110.71,21.13-153.03,58.82c-44.23,39.38-74.34,92.91-92.28,148.88
					c-22.05,68.79-25.17,142.23-23.18,213.92c2.12,76.36,7.82,152.7,12.14,228.97c4.42,78.09,8.85,156.19,13.27,234.28
					c3.85,67.97,4.32,137.57,18.53,204.4c12.96,60.93,41.13,116.94,90.87,155.84c47.07,36.81,104.9,56.99,162.75,69.45
					c70.25,15.12,142.8,21.6,214.6,21.2c72.51-0.4,145.61-7.89,216.36-23.95c56.98-12.94,113.64-32.63,162.89-64.6
					c24.21-15.72,46.65-34.48,65.4-56.48c18.78-22.04,41.19-51.42,38.07-82.14c-2.78-27.39-25.69-42.06-51.12-45.05
					c-28.58-3.36-56.76,5.52-84.07,12.6c-69.02,17.89-140.88,36.09-212.62,25.38c-31.46-4.7-62.24-14.67-89.12-31.93
					c-25.78-16.56-46.68-39.69-62.35-65.89c-35.07-58.61-43.11-127.79-40.52-194.88c1.42-36.85,5.78-73.51,10.16-110.1
					c1.14-9.56-13.87-9.48-15,0c-8.65,72.36-17.37,146.42-2.94,218.65c11.48,57.44,38.64,114.62,84.94,152
					c49.4,39.89,114.57,52.84,176.82,49.84c35.34-1.7,70.31-8.15,104.71-16.15c18.29-4.26,36.48-8.98,54.66-13.69
					c14.27-3.7,28.54-7.92,43.15-10.06c20.03-2.94,48.99-4.01,62.38,14.54c18.53,25.67-6.83,60.4-22.93,80.45
					c-35.51,44.23-84.9,74.99-137.13,95.8c-57.87,23.06-119.74,35.5-181.4,43.03c-72.51,8.85-145.94,10.02-218.69,3.53
					c-63.47-5.66-128.14-15.77-188-38.41c-54.77-20.73-105.2-54.49-135.32-105.83c-31.69-54.02-39.52-118.21-43.79-179.58
					c-5.1-73.26-8.47-146.68-12.63-220c-4.28-75.55-8.56-151.09-12.84-226.64c-4.15-73.33-10.08-147.12-4.58-220.53
					c4.74-63.41,19.16-126.54,50.66-182.26c27.51-48.66,68.8-92.65,121.57-113.64c47.92-19.06,104.68-20.78,152.24,0.44
					c24.39,10.88,45.82,27.64,61.37,49.45c17.83,25.02,28.12,54.26,34.84,84.02c7.39,32.72,10.97,66.29,14.15,99.64
					c3.6,37.62,5.86,75.36,7.14,113.13c2.53,74.84,1.18,149.75-1.43,224.57c-1.26,36.17-2.82,72.33-4.38,108.48
					C729.56,1017.4,744.56,1017.38,744.98,1007.75L744.98,1007.75z"/>
			</g>
		</g>
		<g>
			<g>
				<path d="M1030.64,1418.2c6.18,34.81-4.27,72-27.49,98.61c-6.32,7.24,4.24,17.9,10.61,10.61
					c27.02-30.96,38.53-72.78,31.35-113.21C1043.42,1404.72,1028.97,1408.74,1030.64,1418.2L1030.64,1418.2z"/>
			</g>
		</g>
		<g>
			<g>
				<path d="M1129.87,1442.19c6.16,40.78-4.46,83.02-28.1,116.64c-5.56,7.91,7.44,15.42,12.95,7.57
					c26.1-37.12,36.37-83.47,29.61-128.2c-0.6-4-5.66-6.24-9.23-5.24C1130.82,1434.16,1129.26,1438.15,1129.87,1442.19
					L1129.87,1442.19z"/>
			</g>
		</g>
		<g>
			<g>
				<path d="M779.81,1631.8c20.95-16.83,38.23-38.6,52.43-61.29c14.16-22.64,26-47.81,29.31-74.54c0.5-4.03-3.8-7.5-7.5-7.5
					c-4.47,0-7,3.46-7.5,7.5c-3.02,24.4-15.11,47.81-28.1,68.29c-13.42,21.17-29.64,41.18-49.25,56.93c-3.18,2.56-2.61,7.93,0,10.61
					C772.29,1634.95,776.67,1634.32,779.81,1631.8L779.81,1631.8z"/>
			</g>
		</g>
		<g>
			<g>
				<path d="M802.84,1369.54c-24.76,56.33-74.8,99.71-134.3,115.65c-9.31,2.5-5.36,16.97,3.99,14.46
					c49.08-13.15,92.4-43.88,121.95-85.1c8.39-11.71,15.51-24.26,21.31-37.44c1.64-3.74,1.06-8.01-2.69-10.26
					C809.94,1364.96,804.47,1365.84,802.84,1369.54L802.84,1369.54z"/>
			</g>
		</g>
		<g>
			<g>
				<path d="M351.41,1467.3c35.43,5.15,71.41,5.68,107.06,2.54c37.06-3.27,74.06-10.17,109.26-22.35
					c18.4-6.37,36.38-14.19,53.21-24.01c8.33-4.86,0.79-17.83-7.57-12.95c-29.57,17.24-62.47,28.09-95.8,35.35
					c-34.72,7.57-70.34,11.12-105.87,10.91c-18.81-0.11-37.68-1.24-56.3-3.95c-4.04-0.59-8.01,1-9.23,5.24
					C345.16,1461.59,347.4,1466.72,351.41,1467.3L351.41,1467.3z"/>
			</g>
		</g>
		<g>
			<g>
				<path d="M529.35,1350.88c63.3,16.33,133.36,10.29,194.93-10.41c17.2-5.78,34-12.92,49.94-21.6c8.48-4.62,0.92-17.58-7.57-12.95
					c-54.89,29.9-120.67,42.22-182.8,38.36c-17.06-1.06-33.96-3.59-50.51-7.86C523.98,1334,519.99,1348.47,529.35,1350.88
					L529.35,1350.88z"/>
			</g>
		</g>
		<g>
			<g>
				<path d="M290.25,703.98c38.27,28.15,86.71,39.64,133.6,33.13c4-0.56,6.23-5.69,5.24-9.23c-1.21-4.32-5.18-5.8-9.23-5.24
					c-42.94,5.97-87.25-6.03-122.04-31.61c-3.29-2.42-8.34-0.52-10.26,2.69C285.29,697.5,287.01,701.59,290.25,703.98L290.25,703.98
					z"/>
			</g>
		</g>
		<g class="st1">
			<path d="M481.57,322.52c-69.94,147.52-97.56,312.42-99.66,475.67c-2.1,163.25,20.49,325.77,46.91,486.88
				c9.55,58.24,20.39,118.39,53.51,167.24c47.59,70.18,132.97,104.74,216.08,121.55c178.63,36.12,370.33,0.29,529.22-88.97
				c-43.67,49.66-105.36,87.11-169,105.07s-130.13,23.07-196.16,26.63c-93.61,5.05-188.91,7.59-279.68-15.79
				c-253.75-65.36-309.98-170.87-298.62-881.42c1.24-77.67,26.81-157.2,50.69-231.12c23.88-73.92,73.96-143.34,146.42-171.36"/>
			<g>
				<path d="M475.09,318.73c-56.64,119.88-85.91,250.63-96.3,382.4c-11.09,140.63-0.49,281.99,18.04,421.52
					c9.14,68.79,18.82,137.9,32.06,206.04c11.49,59.11,30.98,117.14,74.43,160.65c39.43,39.48,91.5,64.04,144.44,79.72
					c57.88,17.14,118.84,25.06,179.11,26.08c125.23,2.12,250.55-27.26,363-82.03c14.06-6.85,27.91-14.12,41.55-21.76
					c-3.03-3.93-6.06-7.85-9.09-11.78c-31.71,35.81-71.14,64.15-114.49,84.22c-47.41,21.95-99.71,31.99-151.32,37.94
					c-54.49,6.29-109.65,8.93-164.47,10.29c-54.73,1.36-109.89,0.04-163.95-9.24c-45.32-7.78-91.34-20.57-133.79-38.52
					c-27.4-11.58-56.74-28.49-78.97-48.34c-24.72-22.08-42.79-47.35-57.65-77.19c-18.24-36.62-29.75-77.4-38.15-117.98
					c-11.67-56.36-17.56-113.83-21.56-171.19c-5.5-78.82-7.15-157.89-7.58-236.88c-0.26-48.44,0.01-96.89,0.59-145.32
					c0.32-26.82-0.03-53.79,2.54-80.52c2.6-27,7.76-53.71,14.14-80.05c6.49-26.8,14.32-53.25,22.58-79.55
					c7.18-22.86,13.89-46.09,23.58-68.05c17.41-39.44,42.44-75.93,75.89-103.45c16.04-13.19,34.21-24.04,53.54-31.63
					c8.89-3.49,5.02-18-3.99-14.46c-41.16,16.15-75.33,44.5-101.92,79.55c-13.42,17.68-24.74,36.92-34.05,57.06
					c-10.12,21.87-17.28,44.74-24.57,67.67c-16.84,52.99-32.39,106.7-39.03,162.05c-3.22,26.83-3.23,53.77-3.58,80.75
					c-0.34,26.01-0.58,52.01-0.72,78.02c-0.44,86.97,0.2,174.02,4.41,260.9c3.11,64.16,8.05,128.43,18.41,191.87
					c7.38,45.21,17.55,90.46,34.92,132.98c13.47,32.96,31.28,64.08,55.57,90.3c22.09,23.85,49.03,42.76,78.06,57.21
					c32.8,16.34,67.9,27.67,103.21,37.15c102.02,27.4,207.8,24.08,312.3,17.77c55.86-3.37,112.02-8.62,166.37-22.56
					c47.75-12.24,93.02-33.28,132.53-62.86c18.78-14.06,36.19-29.79,51.75-47.36c5.54-6.26-1.41-16.08-9.09-11.78
					c-107.22,60.03-228.34,95.66-351.22,101.11c-60.62,2.69-121.67-1.85-181-14.74c-53.15-11.55-106.04-30.08-150.26-62.47
					c-21.78-15.95-41.02-35.65-55.6-58.41c-16.36-25.52-26.85-54.1-34.41-83.33c-7.78-30.07-12.61-60.8-17.59-91.43
					c-5.69-35.04-11.17-70.12-16.23-105.26c-19.77-137.41-33.04-276.48-26.7-415.42c5.89-129.15,28.96-258.48,77.95-378.55
					c6.01-14.72,12.45-29.25,19.24-43.62C492.14,317.62,479.22,310,475.09,318.73L475.09,318.73z"/>
			</g>
		</g>
		<g>
			<path class="st2" d="M198.34,723.7c-8.85,6.26-8.17,20.5-1.47,29.02c6.7,8.53,17.34,12.76,27.47,16.63
				c68.88,26.29,137.76,52.59,206.64,78.88c42.98,16.41,87.11,33.04,133.11,33.29c44.5,0.24,87.47-14.88,129.39-29.81
				c44.84-15.97,89.67-31.93,134.51-47.9c14.12-5.03,28.7-10.34,39.49-20.75c10.79-10.41,16.72-27.43,9.89-40.77
				c-94.21,20.76-186.63,49.64-275.9,86.21c-27.15,11.12-76.9,39.22-76.9,39.22s-45.26-27.57-63.07-35.19
				c-88.14-37.71-176.27-75.43-264.41-113.14"/>
			<g>
				<path class="st2" d="M193.04,718.39c-8.19,6.33-10.15,17.61-7.77,27.23c2.71,10.93,11.32,18.86,20.95,24.01
					c11.53,6.17,24.42,10.12,36.61,14.77c13.65,5.21,27.3,10.42,40.96,15.63c54.22,20.7,108.32,41.76,162.69,62.05
					c25.63,9.57,51.71,18.47,78.72,23.2c27.01,4.73,53.91,4.61,80.91-0.11c26.94-4.71,52.99-13.38,78.72-22.45
					c27.24-9.61,54.43-19.37,81.64-29.06c15.57-5.54,31.14-11.09,46.7-16.63c13.52-4.81,27.45-9.11,40.35-15.46
					c11.89-5.86,23.04-14.44,29.09-26.51c5.86-11.68,6.92-24.62,1.23-36.55c-1.47-3.08-5.41-4.12-8.47-3.45
					c-57.64,12.74-114.61,28.44-170.6,47.13c-49.02,16.36-98.27,33.8-144.24,57.59c-13.37,6.92-26.64,14.06-39.75,21.46
					c2.52,0,5.05,0,7.57,0c-24.91-15.17-50.01-29.6-76.85-41.09c-53.56-22.92-107.11-45.83-160.67-68.75
					c-29.99-12.83-59.98-25.67-89.97-38.5c-3.75-1.6-8-1.09-10.26,2.69c-1.88,3.14-1.03,8.67,2.69,10.26
					c53.56,22.92,107.11,45.83,160.67,68.75c26.62,11.39,53.25,22.78,79.87,34.18c18.1,7.74,35.58,15.6,52.71,25.3
					c11.52,6.52,22.93,13.23,34.23,20.11c2.31,1.4,5.26,1.31,7.57,0c28.93-16.33,58.35-31.85,89.23-44.17
					c54.23-21.64,109.59-40.46,165.77-56.36c31.76-8.99,63.78-17.02,96-24.14c-2.82-1.15-5.65-2.3-8.47-3.45
					c4.06,8.52,1.11,18.41-3.82,25.88c-5.93,8.98-16.03,14.59-25.66,18.77c-11.08,4.81-22.72,8.46-34.09,12.51
					c-12.45,4.44-24.91,8.87-37.36,13.31c-25.53,9.09-51.06,18.19-76.59,27.28c-24.01,8.55-48.07,17.15-72.89,23.08
					c-24.61,5.88-49.67,8.58-74.92,6.17c-24.97-2.39-49.38-9.39-73.03-17.5c-50.3-17.25-99.7-37.52-149.38-56.49
					c-27.92-10.66-55.85-21.32-83.77-31.98c-11.23-4.29-25.18-7.71-34.09-16.27c-5.94-5.71-9.1-16.05-1.63-21.82
					c3.23-2.5,2.58-7.97,0-10.61C200.51,715.2,196.22,715.93,193.04,718.39L193.04,718.39z"/>
			</g>
		</g>
		<g>
			<g>
				<path class="st2" d="M491.62,630.21c9.65,0,9.67-15,0-15C481.97,615.21,481.95,630.21,491.62,630.21L491.62,630.21z"/>
			</g>
		</g>
		<g>
			<path class="st3" d="M159.77,740.93c-23.61,174.57-54.53,448.35-37.32,452.47c371.64,88.82,307.46,122.81,814.56,41.59
				c-23.19-156.62-38.54-319.16-27.76-479.3C682.82,805.44,618.52,860.61,525.7,862.19c-127.22,2.17-231.6-105.97-357.5-124.37"/>
			<g>
				<path class="st3" d="M152.54,738.93c-7.38,54.6-14.27,109.26-20.62,163.99c-6.21,53.47-11.99,107.01-16.53,160.65
					c-3.06,36.17-6.79,73.02-5.2,109.37c0.33,7.62,0.02,19.12,5.85,25.05c2.4,2.44,5.52,2.9,8.73,3.67
					c6.76,1.62,13.52,3.26,20.27,4.92c12.67,3.1,25.33,6.26,37.97,9.47c41.55,10.55,82.92,21.8,124.3,33.01
					c30.97,8.39,61.96,16.77,93.31,23.64c28.01,6.13,56.33,10.84,84.89,13.39c31.4,2.8,62.97,2.97,94.46,1.6
					c42.34-1.85,84.55-6.25,126.61-11.41c59.7-7.32,119.2-16.26,178.62-25.54c17.94-2.8,35.88-5.65,53.81-8.52
					c4.33-0.69,5.77-5.6,5.24-9.23c-18.2-123.15-31.18-247.41-31.01-372.02c0.05-35.12,1.18-70.24,3.52-105.29
					c0.34-5.11-5.05-8.21-9.49-7.23c-60.78,13.38-120.85,29.7-179.85,49.51c-38.13,12.8-75.6,27.56-113.87,39.91
					c-30.34,9.79-59.64,16.74-90.88,16.85c-58.88,0.2-113.83-24.23-165.52-50.02c-53.44-26.66-106.6-56.71-165.34-70.07
					c-7.15-1.63-14.36-2.97-21.61-4.05c-4.03-0.6-8.02,1.01-9.23,5.24c-1.01,3.53,1.24,8.63,5.24,9.23
					c59.97,8.94,114.08,37.54,167.49,64.61c52.78,26.75,107.42,53.57,167.2,59.08c35.22,3.25,70.11-2.4,103.82-12.43
					c36.96-10.99,72.88-25.35,109.3-37.96c55.77-19.31,112.46-35.74,169.92-49.23c9.09-2.14,18.2-4.2,27.32-6.21
					c-3.16-2.41-6.33-4.82-9.49-7.23c-8.36,125.35-0.95,251.22,13.87,375.81c4.19,35.23,8.97,70.39,14.16,105.48
					c1.75-3.08,3.49-6.15,5.24-9.23c-63.6,10.18-127.26,20.15-191.11,28.72c-44.97,6.03-90.07,11.43-135.34,14.58
					c-33.21,2.31-66.56,3.33-99.83,1.65c-28.84-1.45-54.22-4.64-82.14-9.95c-29.46-5.61-58.55-13-87.52-20.69
					c-37.22-9.88-74.33-20.2-111.57-30c-23.63-6.21-47.3-12.26-71.02-18.12c-6.64-1.64-13.29-3.26-19.94-4.87
					c-3.31-0.8-6.63-1.6-9.94-2.39c-1.84-0.44-3-1.53-0.73,0.11c-0.9-0.65,1.58,1.44,0.94,0.77c-1.01-1.06,1.21,1.83,0.33,0.39
					c-0.88-1.45,0.43,1.92,0.02,0.09c-0.33-1.5-0.79-2.97-1.08-4.49c-0.09-0.45-0.14-0.9-0.21-1.34c-0.22-1.28,0.18,1.8,0.02,0.12
					c-0.11-1.16-0.25-2.32-0.35-3.48c-0.22-2.65-0.35-5.31-0.44-7.96c-0.23-6.68-0.18-13.36-0.04-20.04
					c0.39-18.72,1.54-37.43,2.88-56.1c3.62-50.48,8.8-100.86,14.36-151.16c6.07-54.94,12.75-109.82,19.91-164.63
					c1.57-12.01,3.16-24.02,4.78-36.03c0.55-4.04-0.97-8.01-5.24-9.23C158.27,732.7,153.08,734.92,152.54,738.93L152.54,738.93z"/>
			</g>
		</g>
		<g>
			<g>
				<path d="M509.25,872.39c-5.32,109.17-7.41,218.5-6.19,327.79c0.34,30.89,0.96,61.79,1.82,92.67c0.27,9.63,15.27,9.67,15,0
					c-3.05-109.26-2.86-218.61,0.62-327.85c0.99-30.88,2.24-61.75,3.74-92.61C524.72,862.74,509.72,862.77,509.25,872.39
					L509.25,872.39z"/>
			</g>
		</g>
		<g>
			<g>
				<path d="M526.56,874.94c100.29-30.59,200.58-61.18,300.87-91.77c28.56-8.71,57.13-17.43,85.69-26.14
					c9.21-2.81,5.28-17.29-3.99-14.46c-100.29,30.59-200.58,61.18-300.87,91.77c-28.56,8.71-57.13,17.43-85.69,26.14
					C513.37,863.29,517.29,877.77,526.56,874.94L526.56,874.94z"/>
			</g>
		</g>
		<g>
			<g>
				<path d="M903.62,749.8c1.99,63.54,3.71,127.08,6.13,190.6c2.44,64.1,5.64,128.17,10.49,192.13c2.8,36.9,6.15,73.76,10.14,110.55
					c0.44,4.03,3.13,7.5,7.5,7.5c3.72,0,7.94-3.45,7.5-7.5c-7.01-64.57-11.99-129.33-15.61-194.18
					c-3.56-63.67-5.85-127.4-7.84-191.14c-1.13-35.99-2.17-71.98-3.3-107.98C918.32,740.17,903.32,740.13,903.62,749.8L903.62,749.8
					z"/>
			</g>
		</g>
		<g>
			<g>
				<path d="M516.75,1300.36c109.36-14.66,219.2-25.31,328.77-38.21c30.81-3.63,61.6-7.44,92.35-11.56c4.01-0.54,7.5-3.06,7.5-7.5
					c0-3.63-3.46-8.04-7.5-7.5c-109.36,14.66-219.2,25.31-328.77,38.21c-30.81,3.63-61.6,7.44-92.35,11.56
					c-4.01,0.54-7.5,3.06-7.5,7.5C509.25,1296.49,512.71,1300.9,516.75,1300.36L516.75,1300.36z"/>
			</g>
		</g>
		<g>
			<g>
				<path d="M156.72,731.72c93.2,36.44,186.69,72.12,280.02,108.22c26.06,10.08,52.1,20.19,78.12,30.37
					c3.8,1.49,8.19-1.63,9.23-5.24c1.21-4.23-1.48-7.76-5.24-9.23c-93.2-36.44-186.69-72.12-280.02-108.22
					c-26.06-10.08-52.1-20.19-78.12-30.37c-3.8-1.49-8.19,1.63-9.23,5.24C150.27,726.73,152.96,730.25,156.72,731.72L156.72,731.72z
					"/>
			</g>
		</g>
		<g>
			<g>
				<path d="M148.45,727.41c-17.2,120.57-29.44,241.83-36.49,363.42c-1.98,34.17-3.55,68.36-4.72,102.57c-0.33,9.65,14.67,9.64,15,0
					c4.14-120.39,13.26-240.59,27.4-360.22c4.02-33.98,8.45-67.91,13.28-101.78c0.58-4.04-0.99-8.01-5.24-9.23
					C154.16,721.16,149.02,723.4,148.45,727.41L148.45,727.41z"/>
			</g>
		</g>
		<g>
			<g>
				<path d="M112.74,1200.63c102.57,29.1,207.01,50.98,310.4,76.89c28.47,7.13,56.86,14.57,85.09,22.58
					c9.3,2.64,13.27-11.83,3.99-14.46c-102.57-29.1-207.01-50.98-310.4-76.89c-28.47-7.13-56.86-14.57-85.09-22.58
					C107.43,1183.52,103.45,1197.99,112.74,1200.63L112.74,1200.63z"/>
			</g>
		</g>
		<g>
			<g>
				<path d="M518.84,870.31c91.3-38.42,184.59-72.4,279.45-100.96c25.95-7.81,52.03-15.18,78.26-22.03
					c9.33-2.44,5.38-16.91-3.99-14.46c-95.84,25.04-189.99,56.69-282.31,92.52c-25.27,9.81-50.41,19.97-75.39,30.48
					c-3.72,1.56-6.43,4.97-5.24,9.23C510.59,868.58,515.07,871.89,518.84,870.31L518.84,870.31z"/>
			</g>
		</g>
		<g>
			<g>
				<path d="M867.05,740.08c0.41,6.92-0.15,13.87,0.26,20.8c0.57,9.59,15.58,9.66,15,0c-0.41-6.92,0.15-13.87-0.26-20.8
					C881.47,730.49,866.47,730.42,867.05,740.08L867.05,740.08z"/>
			</g>
		</g>
		<g>
			<g>
				<path d="M182.46,718.59c-0.36,3.93-0.72,7.87-1.07,11.8c-0.36,3.92,3.7,7.67,7.5,7.5c4.37-0.2,7.12-3.3,7.5-7.5
					c0.36-3.93,0.72-7.87,1.07-11.8c0.36-3.92-3.7-7.67-7.5-7.5C185.6,711.28,182.84,714.39,182.46,718.59L182.46,718.59z"/>
			</g>
		</g>
		<g>
			<g>
				<path d="M187.97,721.78c85.81,34.8,172.78,67.21,255.42,109.24c23.66,12.03,46.92,24.84,69.67,38.53
					c8.29,4.99,15.84-7.97,7.57-12.95c-80.55-48.48-167.36-84.73-254.45-119.56c-24.74-9.9-49.52-19.72-74.22-29.73
					c-3.78-1.53-8.2,1.67-9.23,5.24C181.51,716.82,184.23,720.26,187.97,721.78L187.97,721.78z"/>
			</g>
		</g>
		<ellipse class="st4" cx="430.94" cy="690.86" rx="51.66" ry="25.48"/>
		<ellipse class="st4" cx="653.63" cy="683.89" rx="51.66" ry="25.48"/>
		<ellipse class="st5" cx="444.86" cy="547.97" rx="23" ry="70"/>
		<ellipse class="st5" cx="444.86" cy="547.97" rx="23" ry="70"/>
		<ellipse class="st5" cx="444.86" cy="547.97" rx="23" ry="70"/>
		<ellipse class="st5" cx="646.39" cy="547.97" rx="23" ry="70"/>
		<g>
			<g>
				<path d="M548.02,635.02c-19.48,1.5-35.58,21.63-29.34,41.14c5.92,18.51,28.04,26.86,45.15,18.9c8.74-4.07,1.13-17-7.57-12.95
					c-8.43,3.92-20-1.36-23.12-9.93c-3.49-9.6,4.96-21.39,14.88-22.15C557.58,649.29,557.66,634.28,548.02,635.02L548.02,635.02z"/>
			</g>
		</g>
		<g>
			<g>
				<path d="M460.08,701.3c5.49,31.5,29.43,57.73,59.1,68.65c30.53,11.24,64.44,2.38,88.19-19.08
					c13.19-11.92,22.86-27.82,26.88-45.17c2.18-9.39-12.28-13.4-14.46-3.99c-6.02,25.99-26.59,47.3-52.04,55.11
					c-26.03,7.98-53.59-0.52-72.52-19.66c-10.84-10.96-18.03-24.67-20.67-39.86C472.89,687.82,458.44,691.84,460.08,701.3
					L460.08,701.3z"/>
			</g>
		</g>
		<ellipse class="st6" cx="452.86" cy="521.15" rx="8" ry="13"/>
		<ellipse class="st6" cx="452.86" cy="521.15" rx="8" ry="13"/>
		<ellipse class="st7" cx="653.63" cy="521.15" rx="7.23" ry="13"/>
		<ellipse class="st7" cx="653.63" cy="521.15" rx="7.23" ry="13"/>
		<ellipse class="st8" cx="379.28" cy="508.15" rx="166" ry="161.5"/>
		<ellipse class="st9" cx="379.28" cy="508.15" rx="166" ry="161.5"/>
		<ellipse class="st8" cx="731.17" cy="516.46" rx="166" ry="161.5"/>
		<ellipse class="st10" cx="731.17" cy="516.46" rx="166" ry="161.5"/>
		<g>
			<g>
				<path d="M551.72,540.23c1.86,0,3.71,0,5.57,0c3.92,0,7.68-3.45,7.5-7.5c-0.18-4.06-3.3-7.5-7.5-7.5c-1.86,0-3.71,0-5.57,0
					c-3.92,0-7.68,3.45-7.5,7.5C544.4,536.79,547.51,540.23,551.72,540.23L551.72,540.23z"/>
			</g>
		</g>
		<g class="st1">
			<path d="M168.2,737.82c-19.99,316.83,90.77,471.57,339,543.34c-128.15-30.55-256.3-61.09-384.46-91.64
				c6.65-149.87,22.98-299.31,48.86-447.07"/>
			<g>
				<path d="M160.7,737.82c-3.51,56.27-3.49,112.98,3.46,168.99c5.77,46.46,16.11,92.52,34.07,135.87
					c16.01,38.63,37.65,74.56,65.27,106.03c27.51,31.33,60.54,57.59,96.32,78.88c39.8,23.68,83.03,41.42,127.14,55.3
					c6.06,1.91,12.14,3.73,18.24,5.5c1.33-4.82,2.66-9.64,3.99-14.46c-99.67-23.76-199.35-47.52-299.02-71.28
					c-28.48-6.79-56.96-13.58-85.43-20.36c1.84,2.41,3.67,4.82,5.51,7.23c5.2-116.47,16.14-232.7,33.01-348.06
					c4.74-32.41,9.94-64.75,15.58-97.02c1.65-9.44-12.8-13.49-14.46-3.99c-20.2,115.52-34.68,232.05-43.25,349.01
					c-2.44,33.32-4.39,66.68-5.88,100.05c-0.14,3.17,2.42,6.5,5.51,7.23c99.67,23.76,199.35,47.52,299.02,71.28
					c28.48,6.79,56.96,13.58,85.43,20.36c9.38,2.24,13.28-11.77,3.99-14.46c-44.24-12.83-87.59-29.15-128-51.4
					c-35.75-19.68-68.89-43.95-97.1-73.52c-27.69-29.03-49.94-62.77-66.56-99.26c-18.44-40.48-29.68-84.09-36.31-127.98
					c-8.05-53.31-9.12-107.62-6.74-161.41c0.33-7.52,0.74-15.03,1.21-22.54C176.3,728.18,161.3,728.21,160.7,737.82L160.7,737.82z"
					/>
			</g>
		</g>
		<g class="st1">
			<g>
				<path d="M513.57,893.42c-2.27,97.85-4.54,195.7-6.81,293.55c-0.65,27.96-1.3,55.91-1.95,83.87c-0.18,7.85,7.03,15.36,15,15
					c8.28-0.37,14.8-6.59,15-15c2.27-97.85,4.54-195.7,6.81-293.55c0.65-27.96,1.3-55.91,1.95-83.87c0.18-7.85-7.03-15.36-15-15
					C520.29,878.79,513.77,885.01,513.57,893.42L513.57,893.42z"/>
			</g>
		</g>
		
			<ellipse transform="matrix(0.1095 -0.994 0.994 0.1095 -810.9456 958.9484)" class="st11" cx="129.73" cy="932.08" rx="64.37" ry="41"/>
		<ellipse class="st11" cx="911.12" cy="995.18" rx="41" ry="64.37"/>
		<g class="st1">
			<g>
				<path class="st2" d="M837.02,826.06c-6.34,81.74-8.46,163.78-6.26,245.74c0.62,23.13,1.6,46.25,2.89,69.35
					c0.44,7.82,6.58,15.38,15,15c7.75-0.35,15.47-6.61,15-15c-4.59-81.85-4.96-163.93-1.01-245.82c1.12-23.11,2.58-46.21,4.38-69.28
					c0.61-7.84-7.33-15.34-15-15C843.37,811.44,837.67,817.66,837.02,826.06L837.02,826.06z"/>
			</g>
		</g>
		<g class="st1">
			<g>
				<path class="st2" d="M753.16,423.12c-2.84,0.38,2.08-0.03,2.66-0.04c1.71-0.05,3.43-0.01,5.14,0.1
					c0.63,0.04,4.73,0.67,1.82,0.14c1.44,0.26,2.87,0.54,4.3,0.88c1.42,0.34,2.84,0.74,4.23,1.19c0.93,0.3,1.86,0.62,2.78,0.96
					c1.51,0.6,1.83,0.71,0.95,0.34c-0.88-0.38-0.57-0.24,0.92,0.43c0.9,0.42,1.78,0.86,2.66,1.32c1.32,0.69,2.62,1.42,3.9,2.19
					c5.81,3.49,8.24,5.43,13.43,10.77c1.06,1.09,2.09,2.2,3.08,3.35c-0.02-0.02,2.96,3.55,1.48,1.67c2.01,2.56,3.8,5.34,5.45,8.15
					c6.72,11.44,10.65,24.84,12.43,38.96c-0.21-1.7,0.29,3.03,0.28,2.9c0.17,1.73,0.31,3.46,0.43,5.2c0.28,4.06,0.42,8.13,0.45,12.2
					c0.07,7.55-0.26,15.09-0.78,22.63c-0.54,7.84,7.29,15.35,15,15c8.59-0.38,14.42-6.6,15-15c2.35-34.01,0.11-71.57-19.3-100.85
					c-8.87-13.39-20.83-25.1-35.06-32.7c-15.52-8.28-31.89-11.04-49.23-8.69c-8.04,1.09-12.42,11.39-10.48,18.45
					C737.09,421.31,745.1,424.21,753.16,423.12L753.16,423.12z"/>
			</g>
		</g>
		<g class="st1">
			<g>
				<path class="st2" d="M403.87,411.43c5.21-0.38,10.48-0.39,15.67,0.29c-2.57-0.34,2.2,0.45,2.21,0.45
					c1.28,0.25,2.56,0.55,3.83,0.86c2.54,0.64,5.05,1.39,7.51,2.27c7.85,2.79,16.67,8.35,23.07,14.74c4.22,4.21,5.41,5.71,8.4,10.44
					c1.4,2.21,2.69,4.49,3.86,6.83c-0.02-0.03,1.65,3.45,1.22,2.48c-0.5-1.14,0.88,2.24,1,2.58c4.05,11.09,5.01,18.14,4.13,29.96
					c-0.58,7.84,7.31,15.34,15,15c8.62-0.39,14.38-6.6,15-15c1.98-26.86-8.39-54.45-27.4-73.5c-19.01-19.04-46.68-29.38-73.5-27.4
					c-7.81,0.58-15.38,6.49-15,15C389.22,404.06,395.49,412.05,403.87,411.43L403.87,411.43z"/>
			</g>
		</g>
		<g class="st1">
			<g>
				<path class="st2" d="M560.19,356.46c8.97,6.21,17.93,12.41,26.9,18.62c6.66,4.61,16.65,1.23,20.52-5.38
					c4.36-7.45,1.3-15.9-5.38-20.52c-8.97-6.21-17.93-12.41-26.9-18.62c-6.66-4.61-16.65-1.23-20.52,5.38
					C550.45,343.39,553.51,351.84,560.19,356.46L560.19,356.46z"/>
			</g>
		</g>
		<g class="st1">
			<g>
				<path class="st2" d="M693.85,716.54c-0.56,8.42-1.12,16.85-1.68,25.27c-0.52,7.85,7.27,15.35,15,15c8.57-0.38,14.44-6.6,15-15
					c0.56-8.42,1.12-16.85,1.68-25.27c0.52-7.85-7.27-15.35-15-15C700.27,701.92,694.41,708.13,693.85,716.54L693.85,716.54z"/>
			</g>
		</g>
		<g class="st1">
			<g>
				<path class="st2" d="M710.19,1316.38c14.59,58.97,54.7,108.72,105.13,141.49c56.42,36.65,125.44,49.59,191.89,43.28
					c40.47-3.84,80-13.82,117.61-29.18c7.49-3.06,12.81-9.97,10.48-18.45c-1.95-7.1-10.91-13.56-18.45-10.48
					c-61.75,25.23-130.04,37.12-194.61,25.1c-15.52-2.89-30.84-7.02-45.62-12.56c-1.6-0.6-3.2-1.22-4.79-1.85
					c-0.68-0.27-1.36-0.55-2.04-0.82c-0.05-0.02-2.28-0.95-0.92-0.37c-1.4-0.59-6.17-2.74-8.92-4.05
					c-6.41-3.06-12.7-6.38-18.83-9.96c-5.93-3.45-11.71-7.14-17.35-11.06c-2.81-1.96-5.58-3.97-8.32-6.04
					c-1.36-1.03-0.12-0.08,0.13,0.11c-0.77-0.6-1.54-1.21-2.3-1.82c-1.53-1.22-3.04-2.46-4.54-3.71
					c-10.63-8.91-20.53-18.71-29.49-29.31c-1.25-1.48-2.48-2.98-3.7-4.49c-0.45-0.57-0.91-1.14-1.36-1.71
					c1.48,1.87-0.49-0.65-0.75-1c-2.32-3.09-4.57-6.25-6.73-9.46c-4.31-6.41-8.28-13.04-11.87-19.88
					c-1.79-3.42-3.49-6.88-5.09-10.39c-0.3-0.66-0.59-1.32-0.89-1.98c-1.91-4.19,0.54,1.37-0.48-1.08
					c-0.74-1.78-1.45-3.58-2.13-5.39c-2.84-7.49-5.19-15.14-7.11-22.91c-1.95-7.87-10.79-12.58-18.45-10.48
					C712.67,1300.13,708.24,1308.49,710.19,1316.38L710.19,1316.38z"/>
			</g>
		</g>
		<g class="st1">
			<g>
				<path class="st2" d="M472.23,885.1c-3.93,49.99-7.85,99.97-11.78,149.96c-0.62,7.84,7.34,15.34,15,15c8.65-0.39,14.34-6.6,15-15
					c3.93-49.99,7.85-99.97,11.78-149.96c0.62-7.84-7.34-15.34-15-15C478.58,870.48,472.89,876.7,472.23,885.1L472.23,885.1z"/>
			</g>
		</g>
	</g>
</g>
<g id="Ebene_17">
	<g id="Ebene_3_1_">
		<g class="st1">
			<g>
				<path d="M778.27,708.43c3.05,0.3,6.81-7.32,3.47-7.65C778.69,700.48,774.93,708.1,778.27,708.43L778.27,708.43z"/>
			</g>
		</g>
		<g class="st1">
			<path d="M773.54,702.12c-2.52,62.2-5.04,124.41-7.57,186.61c57-39.6,114-79.19,171-118.79c31.78-22.07,63.31-58.55,101.14-52.63
				c39.2,6.14,85.01,10.18,122.46,16.05c90.25,14.13,161.65,15.84,253.04,11.04c27.96-1.47,72.98-25.11,95.57-43.8
				c27.51-22.77,32.95-50.06,38.98-87.19c23.39-143.96,14.65-291.61-7.55-434.82c-5.51-35.51-13.7-74.22-40.07-95.09
				c-23.35-18.48-54.75-17.89-83.73-15.99c-229.92,15.14-458.45,67.66-675.91,155.34c-23.99,9.68-49.57,21.28-63.23,45.18
				c-10.79,18.87-14.63,42.28-12.73,64.26c8.11,93.43,11.36,154.97,14.84,252.54c0.98,27.54,6.05,71.07,26.01,87.24
				c19.54,15.82,43.15,17.96,66.51,17.34c1.52,4.35,3.04,8.7,4.56,13.04"/>
			<g>
				<path d="M770.56,703.58c-2.52,62.2-5.04,124.41-7.57,186.61c-0.11,2.58,1.79,2.8,3.46,1.63c43.65-30.32,87.3-60.64,130.95-90.96
					c19.34-13.43,39.06-26.33,57.61-41.11c15.28-12.19,30.47-25.41,48.03-33.3c8.73-3.92,18.12-6.31,27.52-5.89
					c10.87,0.48,21.8,2.98,32.59,4.38c22.73,2.97,45.51,5.45,68.25,8.38c22.93,2.96,45.73,6.83,68.68,9.62
					c22.91,2.79,45.91,4.85,68.95,6.12c45.99,2.52,92.12,1.75,138.19-0.55c18.15-0.91,35.21-6.44,52.03-14.15
					c16.82-7.71,33.43-17.15,48.28-28.94c14.57-11.56,25.86-26.63,32.58-44.99c7.19-19.63,10.04-41.09,13.12-61.79
					c8.01-53.93,11.62-108.51,11.78-162.98c0.15-53.64-2.98-107.19-8.51-160.35c-2.78-26.78-6.17-53.47-10.06-80.06
					c-3.24-22.17-6.31-44.6-12.98-65.83c-5.87-18.72-14.98-36.6-29.53-48.6c-16.83-13.88-38.37-17.66-59.09-18
					c-22.69-0.37-45.55,2.07-68.19,3.99c-23.81,2.03-47.61,4.46-71.36,7.29c-94.47,11.25-188.44,28.8-281.23,52.47
					c-92.49,23.6-183.82,53.28-273.3,88.89c-18.51,7.36-37.61,14.56-53.87,27.24c-16.41,12.8-27.39,31.24-32.28,52.61
					c-5.61,24.52-1.71,49.25,0.27,73.85c1.86,23.14,3.55,46.3,5.01,69.48c3,47.48,5,95.04,6.72,142.62
					c1.26,35.06,3.89,81.34,34.89,100c18.2,10.96,39.27,12.48,59.77,11.98c-0.57-0.27-1.13-0.53-1.7-0.8
					c1.52,4.35,3.04,8.7,4.56,13.04c1.17,3.34,6.59-2.91,5.49-6.06c-1.52-4.35-3.04-8.7-4.56-13.04c-0.26-0.75-1.12-0.81-1.7-0.8
					c-21.96,0.53-44.8-1.63-63.27-15.54c-13.74-10.35-19.49-29.03-22.9-46.34c-3.79-19.28-4.34-38.92-5.07-58.61
					c-0.89-23.92-1.86-47.85-3.01-71.76c-2.18-45.07-5.13-90.06-8.8-134.99c-2.04-24.95-5.48-49.55,2.68-73.91
					c7.26-21.68,22.24-35.83,40.67-45.78c18.83-10.17,39.13-17.22,58.85-24.83c21.85-8.43,43.81-16.5,65.86-24.22
					c44.94-15.73,90.28-29.95,135.93-42.69c89.63-25.01,180.49-44.27,271.95-57.65c46.29-6.77,92.73-12.02,139.25-15.75
					c22.09-1.77,44.61-4.38,66.7-2.59c20.4,1.65,40.33,8.17,54.87,24.46c12.88,14.43,19.93,34.14,24.55,53.51
					c5.37,22.54,8.28,45.91,11.44,68.96c7.18,52.32,12.37,105.04,14.67,158c2.3,52.82,1.67,105.9-2.75,158.72
					c-2.22,26.54-5.41,53-9.65,79.28c-3.15,19.54-6.28,39.94-15.32,57.52c-8.71,16.93-22.96,28.44-37.89,38.1
					c-16.35,10.59-33.94,19.53-52.04,25.59c-19.18,6.43-38.84,6.22-58.62,6.92c-23.05,0.82-46.11,1.16-69.15,0.77
					c-44.97-0.76-89.77-4.52-134.27-10.93c-43.95-6.33-88.13-10.94-132.04-17.48c-9.16-1.36-17.91-2.26-27.12-0.26
					c-8.17,1.78-16.05,5.13-23.5,9.31c-16.56,9.29-31.17,22.18-46.28,34c-18.96,14.83-39.17,27.83-58.82,41.48
					c-21.05,14.63-42.11,29.25-63.16,43.87c-20.54,14.27-41.08,28.54-61.62,42.81c1.15,0.54,2.31,1.09,3.46,1.63
					c2.52-62.2,5.04-124.41,7.57-186.61C776.74,695.53,770.69,700.23,770.56,703.58L770.56,703.58z"/>
			</g>
		</g>
		<g class="st1">
			<g>
				<path d="M1467.85,922.27c3.05,0.3,6.81-7.32,3.47-7.65C1468.27,914.32,1464.51,921.94,1467.85,922.27L1467.85,922.27z"/>
			</g>
		</g>
	</g>
	<g id="Ebene_3_Kopie">
		<g>
			<g>
				<path class="st12" d="M799.13,683.69c3.05,0.3,6.81-7.32,3.47-7.65C799.55,675.74,795.79,683.36,799.13,683.69L799.13,683.69z"
					/>
			</g>
		</g>
		<g>
			<path class="st13" d="M794.41,677.38c-2.52,62.2-5.04,124.41-7.57,186.61c57-39.6,114-79.19,171-118.79
				c31.78-22.07,63.31-58.55,101.14-52.63c39.2,6.14,85.01,10.18,122.46,16.05c90.25,14.13,161.65,15.84,253.04,11.04
				c27.96-1.47,72.98-25.11,95.57-43.8c27.51-22.77,32.95-50.06,38.98-87.19c23.39-143.96,14.65-291.61-7.55-434.82
				c-5.51-35.51-13.7-74.22-40.07-95.09c-23.35-18.48-54.75-17.89-83.73-15.99c-229.92,15.14-458.45,67.66-675.91,155.34
				c-23.99,9.67-49.57,21.27-63.23,45.18c-10.79,18.87-14.63,42.28-12.73,64.26c8.1,93.43,11.36,154.97,14.84,252.54
				c0.98,27.54,10.28,66.14,26.01,87.24c15.73,21.1,45.18,32.18,66.51,17.34c1.52,4.35,3.04,8.7,4.56,13.04"/>
			<g>
				<path class="st12" d="M791.42,678.83c-2.52,62.2-5.04,124.41-7.57,186.61c-0.11,2.58,1.79,2.8,3.46,1.63
					c43.65-30.32,87.3-60.64,130.95-90.96c19.73-13.7,39.81-26.89,58.7-41.99c15.24-12.18,30.49-25.33,48.13-32.94
					c8.59-3.71,17.79-5.84,26.98-5.34c10.66,0.58,21.36,2.97,31.94,4.35c23.26,3.04,46.57,5.56,69.82,8.58
					c22.96,2.98,45.79,6.85,68.77,9.62c23.15,2.78,46.39,4.82,69.67,6.04c46.09,2.42,92.31,1.55,138.47-0.82
					c17.98-0.93,35.41-7.4,51.94-15.22c16.36-7.74,32.6-17.06,46.99-28.77c14.65-11.93,25.57-27.5,32.1-46.2
					c7.03-20.16,9.81-42.21,12.87-63.35c7.81-53.96,11.23-108.56,11.23-163.02c0-54.29-3.35-108.46-9.12-162.24
					c-2.87-26.77-6.34-53.44-10.29-80.02c-3.2-21.49-6.4-43.16-13.26-63.6c-6.35-18.93-16.42-36.71-31.96-47.87
					c-17.42-12.51-38.81-15.31-59.34-15.29c-23.4,0.02-46.93,2.47-70.28,4.53c-23.53,2.07-47.03,4.54-70.51,7.39
					c-95.02,11.54-189.52,29.44-282.8,53.56c-92.71,23.96-184.24,54.04-273.88,90.07c-18.18,7.31-36.91,15.11-52.07,28.91
					c-15.57,14.17-24.84,34.15-28.4,55.77c-2,12.15-1.77,24.16-0.72,36.32c1.1,12.83,2.17,25.67,3.17,38.52
					c1.8,22.9,3.42,45.82,4.82,68.76c1.4,22.93,2.58,45.88,3.61,68.84c1.13,25.19,1.48,50.51,3.03,75.66
					c1.26,20.55,5.83,41.21,13.24,59.98c7.3,18.52,18.37,34.69,35.42,43.17c15.18,7.55,32.39,8.15,47.12-1.73
					c-1.07-0.02-2.15-0.04-3.22-0.06c1.52,4.35,3.04,8.7,4.56,13.04c1.17,3.34,6.59-2.91,5.49-6.06c-1.52-4.35-3.04-8.7-4.56-13.04
					c-0.53-1.5-2.42-0.59-3.22-0.06c-16.12,10.81-36.5,5.83-51.02-5.09c-15.39-11.58-24.04-30.6-29.73-49.75
					c-6.09-20.47-8.03-41.08-8.82-62.59c-0.89-24.1-1.85-48.19-3-72.27c-2.15-45.28-5.08-90.49-8.74-135.62
					c-1.99-24.59-5.73-49.1,1.45-73.32c6.56-22.14,20.71-37.2,39.21-47.66c18.73-10.59,39.16-17.62,58.93-25.27
					c22.11-8.55,44.33-16.75,66.65-24.58c44.39-15.57,89.17-29.68,134.27-42.34c90.15-25.31,181.54-44.79,273.55-58.32
					c46.28-6.8,92.72-12.1,139.23-15.86c22.14-1.79,44.69-4.41,66.84-2.84c20.46,1.45,40.64,7.53,55.5,23.58
					c13.11,14.16,20.38,33.75,25.11,53.07c5.55,22.67,8.46,46.23,11.66,69.46c7.16,51.99,12.35,104.39,14.71,157.03
					c2.39,53.14,1.81,106.55-2.59,159.69c-2.2,26.54-5.36,53-9.57,79.29c-3.12,19.43-6.16,39.69-14.88,57.3
					c-8.47,17.11-22.49,28.77-37.38,38.55c-16.39,10.76-34.08,19.78-52.25,26.01c-19.48,6.67-39.39,6.51-59.51,7.23
					c-22.78,0.81-45.58,1.16-68.35,0.79c-44.94-0.73-89.73-4.44-134.2-10.81c-22.18-3.18-44.31-6.47-66.55-9.14
					c-22.13-2.66-44.29-5.17-66.35-8.46c-8.94-1.33-17.5-2.24-26.5-0.38c-8.4,1.73-16.48,5.16-24.11,9.44
					c-16.56,9.28-31.17,22.18-46.28,34c-18.96,14.83-39.17,27.83-58.82,41.48c-21.05,14.63-42.11,29.25-63.16,43.87
					c-20.54,14.27-41.08,28.54-61.62,42.81c1.15,0.54,2.31,1.09,3.46,1.63c2.52-62.2,5.04-124.41,7.57-186.61
					C797.6,670.78,791.55,675.49,791.42,678.83L791.42,678.83z"/>
			</g>
		</g>
		<g>
			<g>
				<path class="st12" d="M1488.71,897.52c3.05,0.3,6.81-7.32,3.47-7.65C1489.13,889.57,1485.36,897.19,1488.71,897.52
					L1488.71,897.52z"/>
			</g>
		</g>
	</g>
	<g id="Ebene_2_1_">
		<g>
			<g>
				<path d="M793.94,667.2c-15.53,0.49-31.62,0.02-46.35-5.59c-7.1-2.7-13.85-6.85-19.19-12.7c-6.01-6.59-10.09-15.47-13.28-24.08
					c-6.87-18.56-9.11-38.9-10.83-58.82c-2.01-23.35-3.78-46.74-5.66-70.11c-3.86-47.9-7.71-95.81-11.57-143.71
					c-3.18-39.53-8.32-87.17,19.23-118.96c11.87-13.7,27.36-22.7,43.02-29.83c17.4-7.93,35.47-14.08,53.37-20.4
					c39.63-13.99,79.65-26.52,119.92-37.89c80.02-22.59,160.99-40.53,242.26-55.99c81.14-15.44,162.61-28.42,244.09-41.1
					c19.68-3.07,39.52-7.14,59.37-8.03c18.78-0.84,37.82,2.6,52.57,15.93c26.2,23.68,32.78,66.14,39.6,100.85
					c17.36,88.4,24.99,179.31,22.67,270.14c-1.11,43.64-4.01,87.64-10.37,130.87c-5.34,36.3-14.29,74.02-34.87,104
					c-21.53,31.35-54.18,46.54-88.37,52.17c-37.6,6.19-76.28,3.73-113.99,2.25c-80.57-3.17-160.69-11.8-240.67-21.59
					c-20.39-2.5-40.77-5.05-61.16-7.59c-3.04-0.38-6.84,7.23-3.47,7.65c83.41,10.39,166.84,21.08,250.75,26.51
					c41.15,2.66,82.57,4.8,123.86,3.96c34.69-0.71,70.89-5.23,101.56-25.27c63.88-41.73,73.15-133.95,79.04-206.89
					c7.52-93.05,4.63-186.95-8.53-278.79c-3.34-23.28-7.34-46.43-11.99-69.41c-3.87-19.06-7.83-38.3-14.58-56.35
					c-6-16.03-14.57-31.41-27.36-41.79c-14.9-12.1-33.54-15.05-51.8-14.33c-20.39,0.8-40.81,5.05-61.02,8.2
					c-21.29,3.32-42.57,6.65-63.85,10.04c-42.29,6.75-84.56,13.73-126.76,21.24c-83.98,14.96-167.74,32.05-250.66,53.68
					c-41.52,10.83-82.82,22.79-123.77,36.18c-20.05,6.55-40.02,13.44-59.88,20.69c-17.22,6.29-34.62,12.53-50.8,21.78
					c-14.97,8.56-28.94,19.85-38.76,35.24c-10.77,16.86-15.48,37.05-16.74,57.25c-1.34,21.47,0.77,42.93,2.49,64.23
					c1.98,24.62,3.96,49.23,5.95,73.85c3.89,48.34,6.98,96.86,11.81,145.07c1.98,19.8,5.15,39.87,13.14,57.8
					c7.28,16.34,18.29,27.22,34.17,32.57c14.55,4.91,30.16,5.21,45.35,4.73C794.79,674.77,798.04,667.07,793.94,667.2L793.94,667.2z
					"/>
			</g>
		</g>
		<g>
			<g>
				<path d="M793.75,629.25c-1.62,31.06-3.5,62.11-5.39,93.16c-2.02,33.21-4.09,66.42-6.04,99.63c-0.98,16.74-1.94,33.48-2.81,50.23
					c-0.09,1.69,1.1,3.09,2.7,2.12c38.88-23.76,77.13-48.79,114.63-75.15c38.64-27.16,76.53-55.72,113.06-86.29
					c19.5-16.33,38.6-33.26,57.1-50.98c1.15-1.1,2.42-3.81,1.53-5.42c-0.99-1.77-2.98-0.3-3.97,0.64
					c-33.08,31.7-68.17,60.8-104.08,88.43c-37.37,28.75-75.75,55.86-114.82,81.67c-20.75,13.71-41.71,27.03-62.85,39.95
					c0.9,0.71,1.79,1.41,2.7,2.12c1.62-31.06,3.5-62.11,5.39-93.16c2.02-33.21,4.09-66.42,6.04-99.63
					c0.98-16.74,1.94-33.48,2.81-50.23c0.1-1.89-1.11-2.79-2.7-2.12C795.37,624.93,793.85,627.3,793.75,629.25L793.75,629.25z"/>
			</g>
		</g>
		<g>
			<g>
				<path d="M1593.2,596.01c-5.39,35.9-20.99,69.98-43.89,96.47c-23.57,27.26-54.59,45.62-87.83,52.92
					c-18.97,4.17-38.39,4.74-57.38,1.55c-3.02-0.5-6.87,7.08-3.47,7.65c35.21,5.91,72.16-0.88,104.25-18.89
					c31.75-17.81,57.84-46.43,74.94-80.85c9.57-19.27,16.11-40.2,19.35-61.76c0.29-1.92-1.24-2.74-2.7-2.12
					C1594.68,591.75,1593.5,594.02,1593.2,596.01L1593.2,596.01z"/>
			</g>
		</g>
	</g>
	<g id="Ebene_4_1_">
		<g>
			<g>
				<path d="M973.04,218.59c-7.66,55.21-15.32,110.42-22.98,165.63s-15.32,110.42-22.98,165.63c-4.29,30.95-8.59,61.9-12.88,92.85
					c-0.57,4.12,15.03,6.04,15.65,1.53c7.66-55.21,15.32-110.42,22.98-165.63c7.66-55.21,15.32-110.42,22.98-165.63
					c4.29-30.95,8.59-61.9,12.88-92.85C989.26,216,973.67,214.08,973.04,218.59L973.04,218.59z"/>
			</g>
		</g>
		<g>
			<g>
				<path d="M1180.1,238.92c-8.91,54.81-17.82,109.61-26.73,164.41c-8.91,54.81-17.82,109.61-26.73,164.41
					c-5.01,30.83-10.02,61.66-15.03,92.48c-0.65,4.01,14.91,6.11,15.65,1.53c8.91-54.81,17.82-109.61,26.73-164.41
					c8.91-54.81,17.82-109.61,26.73-164.41c5.01-30.83,10.02-61.66,15.03-92.48C1196.4,236.45,1180.84,234.34,1180.1,238.92
					L1180.1,238.92z"/>
			</g>
		</g>
		<g>
			<g>
				<path d="M960.61,434.87c48.85,2.23,97.61,7.19,145.84,15.08c13.7,2.24,27.35,4.71,40.98,7.39c1.95,0.38,4.07,0.55,6.06,0.28
					c0.85-0.12,3.17-0.45,3.77-1.46c1.61-2.67-3.83-4.01-5.1-4.26c-49.21-9.69-98.94-16.57-148.9-20.49
					c-14-1.1-28.02-1.96-42.06-2.6c-1.74-0.08-7.69-0.7-8.12,2.26C952.68,433.83,959.38,434.81,960.61,434.87L960.61,434.87z"/>
			</g>
		</g>
		<g>
			<g>
				<path d="M1259.85,459.75c-8.71,57.05-17.42,114.1-26.13,171.15c-2.44,15.98-4.88,31.95-7.32,47.92
					c-0.62,4.06,14.96,6.08,15.65,1.53c8.71-57.05,17.42-114.1,26.13-171.15c2.44-15.98,4.88-31.95,7.32-47.92
					C1276.12,457.23,1260.55,455.2,1259.85,459.75L1259.85,459.75z"/>
			</g>
		</g>
		<g>
			<g>
				<path d="M1290.68,349.72c-6.33-8.83-20.08-10.07-29.27-6.39c-8.1,3.24-13.45,11.47-16.45,20.06c-2.79,7.97-3.41,16.85-0.91,24.9
					c2.74,8.81,9.81,14.47,17.76,16.84c17.87,5.36,37.77-1.15,48.44-18.65c8.83-14.5,10.74-33.6,3.2-48.91
					c-9.75-19.79-31.07-28.35-50.8-26.71c-1.86,0.16-5.68,1.5-3.21,3.87c2.52,2.42,7.49,2.39,10.6,2.13
					c-1.01,0.08,0.79-0.02,1.07-0.03c1.5-0.06-0.63-0.13,0.87,0.01c0.37,0.04,0.74,0.07,1.1,0.11c1.27,0.11-1.13-0.22,0.13,0
					c0.85,0.15,1.7,0.32,2.53,0.53c-1-0.25,0.73,0.25,1.01,0.34c0.7,0.23,1.41,0.48,2.1,0.76c0.67,0.28,2.73,1.33,3.85,1.98
					c5.25,3.06,9.81,7.66,13.19,13.01c7.34,11.58,8.41,26.32,4.05,39.71c-4.08,12.51-13.77,24.49-25.78,27.08
					c-0.37,0.08-1.27,0.2-1.83,0.27c-0.83,0.11-0.17,0.05,0.01,0.04c-0.38,0.03-0.75,0.01-1.13,0.03c-0.92,0.03,0.05,0.03,0.22,0.04
					c-0.37-0.02-0.74-0.06-1.11-0.1c-0.94-0.09,0.1,0.04,0.23,0.04c-0.24-0.05-0.48-0.1-0.72-0.15c0.53,0.16,0.55,0.16,0.06,0.01
					c-1.93-0.59-4.36-2.12-6.15-4.14c-4.34-4.93-5.85-11.99-5.58-18.75c0.32-7.86,2.82-15.77,7.2-22.08c2.2-3.17,5.08-6.34,8.6-7.62
					c0.62-0.23,0.71-0.05,1.01-0.21c0.59-0.31,0.27,0.06-0.07,0.02c-0.29-0.03-1.18-0.19-1.5-0.11c-0.59,0.15-0.34-0.23,0.24,0.28
					c0.69,0.61,1.26,1.11,1.82,1.88c1.96,2.74,6.47,3.09,9.42,3.06C1285.73,352.9,1292.46,352.21,1290.68,349.72L1290.68,349.72z"/>
			</g>
		</g>
	</g>
</g>
</svg>
