<?xml version="1.0" encoding="utf-8"?>
<!-- Generator: Adobe Adobe Illustrator 24.2.0, SVG Export Plug-In . SVG Version: 6.00 Build 0)  -->
<svg version="1.1" xmlns="http://www.w3.org/2000/svg" xmlns:xlink="http://www.w3.org/1999/xlink" x="0px" y="0px"
	 viewBox="0 0 1700.79 1700.79" style="enable-background:new 0 0 1700.79 1700.79;" xml:space="preserve">
<style type="text/css">
	.st0{fill:#F0C2A1;}
	.st1{fill:#91625D;}
	.st2{fill:#C9354F;}
	.st3{fill:#C9354E;}
	.st4{fill:#DC7C3A;}
	.st5{fill:#DB7C3A;}
	.st6{fill:#AEC0CF;}
	.st7{fill:#ADBFCE;}
	.st8{stroke:#000000;stroke-miterlimit:10;}
	.st9{fill:#FFFFFF;stroke:#000000;stroke-miterlimit:10;}
	.st10{opacity:0.1294;}
	.st11{fill:#FFFFFF;}
	.st12{opacity:0.149;}
	.st13{fill:#F4F5E9;}
	.st14{fill:#F4F6E7;}
</style>
<g id="Ebene_9">
	<g>
		<path class="st0" d="M340.94,1044.42c-7.46,62.62-14.93,125.72-10.1,188.59c4.84,62.88,22.87,126.27,61.68,175.97
			c36.45,46.68,89.4,78.74,145.76,96.97c56.36,18.22,116.19,23.37,175.42,23.11c69-0.31,140.27-8.52,200.1-42.88
			c79.89-45.87,128.95-133.33,149.28-223.18c20.33-89.85,15.54-183.24,10.65-275.23c-70.95-14.4-150.93-22.04-223.35-36.74
			c2.71-41.07,8.47-82.76,11.18-123.82c-35.83,63.11-35.98,88.16-78.32,115.04c-18.41,11.68-41.2,13.35-62.93,15.08
			c-132.81,10.58-264.46,35.71-391.83,74.79"/>
		<g>
			<path class="st0" d="M333.44,1044.42c-12.32,103.41-23.92,212.11,18.63,310.51c18.55,42.91,47.65,79.5,84.91,107.66
				c37.84,28.6,82.45,47.62,128.37,58.81c51.81,12.63,105.63,15.95,158.81,15.06c48.96-0.82,98.76-5.84,145.25-22.03
				c42.86-14.93,81.12-39.66,112.01-72.95c29.71-32.02,52.12-70.11,68.39-110.51c38.56-95.75,38.26-201.39,33.5-302.87
				c-0.63-13.44-1.34-26.88-2.06-40.32c-0.17-3.12-2.19-6.56-5.51-7.23c-73.99-14.95-149.35-21.8-223.35-36.74
				c1.84,2.41,3.67,4.82,5.51,7.23c2.77-41.36,8.4-82.47,11.18-123.82c0.51-7.56-10.44-10.03-13.98-3.79
				c-8.98,15.87-17.16,32.14-25.16,48.52c-5.65,11.56-11.25,23.26-18.51,33.92c-6.62,9.72-15.06,18.13-24.62,24.97
				c-6.86,4.91-14.01,9.21-22.05,11.9c-9.47,3.17-19.38,4.76-29.29,5.78c-21.61,2.22-43.29,3.64-64.89,5.96
				c-22,2.36-43.96,5.12-65.87,8.26c-44.07,6.3-87.91,14.21-131.4,23.69c-49.44,10.79-98.42,23.64-146.81,38.46
				c-9.2,2.82-5.28,17.3,3.99,14.46c86.98-26.64,175.89-46.87,265.85-60.35c44.54-6.68,89.23-11,134.07-15.01
				c19.82-1.77,40.07-4.75,57.18-15.63c11.3-7.18,21.84-15.77,30.28-26.21c9.14-11.3,15.87-24.08,22.27-37.07
				c8.99-18.21,17.9-36.41,27.9-54.1c-4.66-1.26-9.32-2.52-13.98-3.79c-2.77,41.36-8.4,82.47-11.18,123.82
				c-0.21,3.07,2.46,6.62,5.51,7.23c73.99,14.95,149.35,21.8,223.35,36.74c-1.84-2.41-3.67-4.82-5.51-7.23
				c5.41,101.77,11.37,207.1-19.07,305.82c-24.66,79.99-74.27,155.43-150.91,193.46c-42.49,21.08-90.15,29.84-137.14,32.98
				c-50.06,3.35-101.3,2.33-150.92-5.41c-90.94-14.18-181.4-56.27-228.88-138.74c-50.86-88.34-46.21-194.51-35.42-292.28
				c1.44-13.07,3-26.13,4.55-39.19c0.48-4.03-3.79-7.5-7.5-7.5C336.49,1036.92,333.93,1040.38,333.44,1044.42L333.44,1044.42z"/>
		</g>
	</g>
</g>
<g id="Ebene_10">
	<g>
		<path class="st1" d="M325.91,1034.99c84.89-50.93,187.51-60.19,286.13-68.84c52.09-4.57,130.8-8.7,150.22-14.81
			c15.49-4.87,92.29-79.27,100.07-130.98c0,57.4-7.09,83.03-10.63,124.54c39.22,15.41,83.16,5.48,125.3,5.37
			c42.14-0.11,91.73,16.99,101.65,57.94c9.95-7.72,39.3-15.44,49.25-23.16c5.87-63.02-40.63-128.19-89.46-168.46
			c-48.83-40.27-117.98-54.47-178.73-36.71c-101.09-56.55-215.88-54.38-323.41-11.31c-107.52,43.07-195.08,120.98-229.17,231.68
			c11.78,0.61,11.56,16.69,11.53,28.48"/>
		<g>
			<path class="st1" d="M329.7,1041.47c87.82-52.37,193.55-60.59,293.18-68.74c41.17-3.37,82.65-5.1,123.59-10.75
				c10.21-1.41,19.45-2.91,27.94-9.02c11.51-8.29,21.87-18.25,31.7-28.45c14.71-15.27,28.39-31.76,40.1-49.45
				c10.49-15.85,20.36-33.7,23.37-52.71c-4.91-0.66-9.82-1.33-14.73-1.99c-0.03,22.82-1.31,45.56-3.99,68.23
				c-2.21,18.78-5.01,37.47-6.64,56.32c-0.3,3.49,2.59,6.11,5.51,7.23c63.37,24.28,137.79-15.28,197.02,24.3
				c12.09,8.08,21.1,19.6,24.69,33.78c1.09,4.3,7.11,7.39,11.02,4.48c9.37-6.97,21.61-10.19,32.27-14.6
				c5.28-2.19,10.8-4.34,15.57-7.55c3.54-2.39,4.89-4.74,5.25-9.02c0.35-4.09,0.43-8.22,0.33-12.32
				c-0.76-31.47-12.69-61.85-29.11-88.35c-33-53.26-83.91-97.94-145.86-112.43c-33.92-7.93-69.67-7.41-103.19,2.23
				c1.93,0.25,3.85,0.5,5.78,0.76c-42.93-23.87-90.25-38.4-139.17-42.74c-48.44-4.29-97.61,1.63-144.28,14.97
				c-80.98,23.16-158.64,67.55-213.6,132.12c-30.06,35.32-52.79,76.18-66.54,120.49c-1.57,5.04,2.6,9.04,7.23,9.49
				c5.4,0.53,4.04,17.42,4.03,20.98c-0.03,9.65,14.97,9.67,15,0c0.04-14.58-0.6-34.17-19.03-35.98c2.41,3.16,4.82,6.33,7.23,9.49
				c18.39-59.23,53.82-111.27,100.39-152c49.02-42.88,109.29-73.37,171.84-90.85c71.34-19.94,147.56-20.98,217.89,3.69
				c8.78,3.08,17.42,6.52,25.89,10.36c8.67,3.94,16.86,9.13,25.55,12.92c4.33,1.89,8.28-0.01,12.59-1.09
				c4.31-1.08,8.65-2.01,13.02-2.78c8.08-1.43,16.27-2.22,24.47-2.51c33.15-1.2,66.61,6.17,96.03,21.52
				c30.05,15.68,55.55,40.08,76.28,66.66c20.66,26.48,38.11,58.39,41.83,92.26c0.9,8.2,0.97,16.43,0.26,24.64
				c1.24-2.16,2.48-4.32,3.71-6.48c-14.63,10.89-34.61,12.26-49.25,23.16c3.67,1.49,7.34,2.99,11.02,4.48
				c-7.55-29.75-33.84-48.05-61.86-56.67c-33.95-10.45-68.72-5.47-103.5-3.91c-22.69,1.01-45.39,0.24-66.83-7.97
				c1.84,2.41,3.67,4.82,5.51,7.23c1.63-18.84,4.43-37.54,6.64-56.32c2.67-22.67,3.95-45.4,3.99-68.23
				c0.01-8.16-13.37-10.57-14.73-1.99c-2.57,16.24-10.4,31.12-19.1,44.87c-9.88,15.62-21.49,30.09-33.96,43.7
				c-10.16,11.09-20.9,21.9-32.73,31.22c-0.63,0.5-2.82,2.14-4.53,3.29c-1.58,1.06-3.19,1.97-4.86,2.85
				c1.32-0.69,0.73-0.21-0.68,0.12c-1,0.24-1.99,0.52-3,0.75c-2.83,0.64-5.69,1.13-8.56,1.59c-39.29,6.2-79.54,7.37-119.16,10.52
				c-49.15,3.92-98.49,8.19-147.11,16.56c-55.59,9.58-110.56,25.62-159.29,54.68C313.84,1033.45,321.38,1046.43,329.7,1041.47
				L329.7,1041.47z"/>
		</g>
	</g>
	<g>
		<g>
			<path class="st1" d="M871.58,839.98c9.65,0,9.67-15,0-15C861.93,824.98,861.91,839.98,871.58,839.98L871.58,839.98z"/>
		</g>
	</g>
</g>
<g id="Ebene_11">
	<g>
		<path class="st2" d="M314.4,1202.52c1.72-49.78,3.44-99.55,5.16-149.33c0.52-14.9-0.82-33.1-14.17-39.72
			c-9.35-4.64-21.16-0.92-28.7,6.29s-11.7,17.2-15.22,27.03c-28.8,80.24-29.24,167.59-26.57,252.81c0.41,13,0.96,26.36,6.24,38.24
			c5.28,11.88,16.47,22.08,29.47,22.22c21.25,0.23,33.55-23.86,38.4-44.55c9.37-40,10.05-82.01,2-122.29"/>
		<g>
			<path class="st3" d="M321.9,1202.52c1.08-31.19,2.16-62.39,3.23-93.58c0.53-15.26,1.06-30.53,1.58-45.79
				c0.4-11.61,1.25-23.56-1.81-34.91c-2.81-10.43-9.58-19.81-20.26-23.1c-11.73-3.62-24.63,1.18-33.27,9.32
				c-9.73,9.16-14.44,22.39-18.69,34.7c-4.72,13.66-8.65,27.6-11.89,41.68c-12.78,55.56-15.08,112.93-14.33,169.73
				c0.19,14.19,0.51,28.39,1.03,42.57c0.51,13.79,1.74,27.93,8.09,40.44c10.4,20.48,35.93,31.74,55.84,17.12
				c21.59-15.85,26.56-46.51,29.9-71.17c4.43-32.75,3.27-65.89-3.1-98.31c-1.86-9.46-16.32-5.46-14.46,3.99
				c5.11,26.04,6.51,52.7,4.26,79.14c-1.1,12.87-3.13,25.66-6.04,38.24c-2.07,8.93-5.06,17.61-9.91,25.43
				c-4.15,6.68-10.26,13.21-18.44,14.4c-9.17,1.34-17.6-4.71-22.51-11.98c-6.31-9.34-7.77-20.94-8.38-31.93
				c-0.71-12.85-0.88-25.75-1.12-38.61c-0.96-51.2,0.05-102.87,9.2-153.39c4.44-24.53,10.55-49.1,19.6-72.37
				c3.76-9.68,9.35-20.43,19.78-24.1c8.88-3.12,16.41,1.09,19.48,9.68c3.77,10.54,2.41,22.5,2.03,33.44
				c-0.53,15.26-1.06,30.53-1.58,45.79c-1.08,31.19-2.16,62.39-3.23,93.58C306.56,1212.17,321.56,1212.16,321.9,1202.52
				L321.9,1202.52z"/>
		</g>
	</g>
	<g>
		<path class="st2" d="M1092.17,1135.94c1.51,48.17,3.01,96.35,4.52,144.52c0.37,11.98,0.85,24.38,6.14,35.13
			c5.29,10.75,16.83,19.41,28.64,17.44c17.69-2.96,23.77-24.95,25.63-42.79c8.59-82.55,7.53-166.09-3.17-248.39
			c-1.32-10.13-2.86-20.49-7.83-29.41c-4.97-8.92-14.13-16.22-24.34-16.06c-19.54,0.3-28.49,24.43-30.18,43.9
			c-2.78,31.99-0.14,64.45,7.77,95.58"/>
		<g>
			<path class="st3" d="M1084.67,1135.94c0.91,29.04,1.82,58.07,2.72,87.11c0.45,14.52,0.91,29.04,1.36,43.55
				c0.41,13.2,0.06,26.8,2.98,39.76c4.92,21.81,27.06,43.28,50.27,30.85c18.33-9.81,21.38-34.41,23.19-52.83
				c5.61-56.9,6.63-114.26,3.07-171.33c-1.73-27.71-3.64-56.01-8.62-83.35c-2.13-11.7-6.46-23.64-15.57-31.75
				c-8.2-7.29-19.36-11.11-30.19-7.95c-22.27,6.49-28.63,33.95-30.11,54.02c-2.32,31.45,0.67,63.23,8.34,93.81
				c2.35,9.36,16.82,5.39,14.46-3.99c-5.98-23.84-8.89-48.25-8.55-72.84c0.23-16.63,0.14-38.92,12.62-51.88
				c5.35-5.54,12.85-6.87,19.62-2.85c8.58,5.11,12.23,14.74,14.25,24.05c2.61,12.05,3.59,24.57,4.89,36.81
				c1.31,12.35,2.4,24.72,3.27,37.1c3.59,50.85,3.54,101.95-0.15,152.78c-0.88,12.07-1.61,24.28-3.3,36.27
				c-1.1,7.81-2.94,15.99-6.95,22.86c-3.71,6.35-9.85,10.99-17.53,9.25c-9.34-2.12-15.23-11.12-17.71-19.75
				c-3.6-12.5-2.88-26.18-3.28-39.06c-0.45-14.52-0.91-29.04-1.36-43.55c-0.91-29.04-1.82-58.07-2.72-87.11
				C1099.37,1126.31,1084.37,1126.26,1084.67,1135.94L1084.67,1135.94z"/>
		</g>
	</g>
</g>
<g id="Ebene_12">
	<g>
		<path class="st4" d="M247.61,1049.69c-63.32,11.46-114.93,69.92-118.46,134.17c-3.53,64.25,41.37,128.01,103.05,146.33
			c-7.53-90.73-5.04-182.29,7.4-272.48"/>
		<g>
			<path class="st5" d="M245.61,1042.46c-51.71,9.66-95.04,48.44-114.22,96.86c-20.02,50.53-7.77,107.27,26.04,148.82
				c18.8,23.1,44.24,40.63,72.78,49.28c4.38,1.33,9.89-2.4,9.49-7.23c-5.77-70.19-5.65-140.82,0.48-210.98
				c1.74-19.88,3.94-39.73,6.65-59.51c0.55-4.04-0.98-8.01-5.24-9.23c-3.49-1-8.68,1.23-9.23,5.24
				c-9.7,70.78-13.61,142.25-11.21,213.67c0.68,20.29,1.88,40.57,3.54,60.8c3.16-2.41,6.33-4.82,9.49-7.23
				c-46.19-14-82.08-54.13-93.8-100.6c-11.81-46.82,4.91-95.58,39.17-128.78c19.32-18.73,43.54-31.71,70.02-36.65
				C259.08,1055.15,255.07,1040.69,245.61,1042.46L245.61,1042.46z"/>
		</g>
	</g>
	<g>
		<path class="st4" d="M1164.23,1046.36c23.56,84.84,26.42,175.35,8.26,261.51c27.94,2.86,55.17-14.18,71.04-37.36
			s22.1-51.58,25.32-79.48c4.03-34.99,3.43-72.13-13.23-103.16c-16.67-31.03-53.25-53.53-87.26-44.37"/>
		<g>
			<path class="st5" d="M1157,1048.35c17.95,65.07,23.73,133.12,17.11,200.3c-1.89,19.23-4.9,38.31-8.85,57.22
				c-1.06,5.08,2.19,9.04,7.23,9.49c25.62,2.29,50.53-10.24,67.69-28.73c18.98-20.46,28.44-47.77,33.21-74.82
				c9.06-51.4,10.24-115.47-31.57-153.66c-20.28-18.53-48.19-28.88-75.45-21.9c-9.34,2.39-5.38,16.87,3.99,14.46
				c20.34-5.21,41.63,1.98,57.49,15.11c18.16,15.03,28.26,36.13,32.73,58.99c4.76,24.35,3.26,50.05-0.28,74.47
				c-3.53,24.34-9.91,49.13-24.56,69.31c-14.48,19.95-38.13,34.01-63.24,31.77c2.41,3.16,4.82,6.33,7.23,9.49
				c14.29-68.39,15.76-138.97,4.42-207.9c-3.19-19.41-7.45-38.63-12.69-57.6C1168.9,1035.07,1154.43,1039.01,1157,1048.35
				L1157,1048.35z"/>
		</g>
	</g>
</g>
<g id="Ebene_13">
	<g>
		<path class="st6" d="M235.04,1033.57c26.54-103.39,95.37-193.73,183.41-254.08c88.04-60.36,194.21-91.72,300.77-97.81
			c108.83-6.22,221.73,14.46,312.64,74.62c90.91,60.16,156.48,163.33,155.76,272.34c15.8,1.22,22.87-19.48,23.07-35.33
			c0.9-73.37-32.19-144.77-82.16-198.49c-49.97-53.73-115.74-90.9-184.78-115.72c-147.49-53.01-315.95-50.57-458.09,15.46
			S231.08,891.66,196.4,1044.51c13.42,8.58,33.01,5.61,43.29-6.57"/>
		<g>
			<path class="st7" d="M242.28,1035.56c20.11-77.67,64.06-147.55,122.01-202.63c62.17-59.09,139.97-99.57,222.38-122.2
				c83.8-23.02,173.76-29.36,259.74-15.84c83.07,13.06,164.52,45.69,226.77,103.37c56.54,52.4,97.96,124.21,105.62,201.72
				c0.94,9.52,1.36,19.08,1.33,28.65c-0.02,4.18,3.45,7.33,7.5,7.5c21.6,0.92,29.89-23.99,30.54-41.6
				c0.88-24.12-2.89-48.91-9.15-72.15c-12.67-46.98-37.42-90.34-69.57-126.69c-66.08-74.74-161.98-119.74-257.57-143.01
				c-98.95-24.09-203.94-24.74-302.71,0.63c-90.91,23.35-174.84,69.57-242.69,134.47c-63.96,61.19-113.26,138.27-138.95,223.17
				c-3.15,10.42-5.92,20.96-8.35,31.57c-0.76,3.31,0.51,6.69,3.45,8.47c16.61,10.08,39.45,6.88,52.38-7.74
				c6.37-7.21-4.2-17.86-10.61-10.61c-8.6,9.73-23.02,12.18-34.2,5.4c1.15,2.82,2.3,5.65,3.45,8.47
				c18.94-82.83,60.73-159.35,117.91-221.99c59.04-64.69,133.68-114.28,216.41-143.11c92.57-32.26,193.31-39.77,289.98-24.32
				c93.67,14.97,188.92,50.09,262.22,111.66c36.02,30.26,66.11,67.08,86.53,109.58c10.04,20.9,17.51,43.06,21.99,65.82
				c2.23,11.29,3.64,22.7,4.22,34.19c0.49,9.87,0.96,19.91-2,29.45c-1.99,6.42-5.66,13.67-13.28,13.35c2.5,2.5,5,5,7.5,7.5
				c0.3-81.35-35.07-159.15-89.29-218.74c-58.22-63.98-137.79-104.26-221.57-123.04c-87.76-19.67-180.5-17.72-268.21,1.23
				c-87.3,18.86-171.02,56.53-239.73,114.04C313.15,855,263.07,924.42,236.45,1002.62c-3.25,9.54-6.11,19.2-8.64,28.95
				C225.39,1040.93,239.85,1044.92,242.28,1035.56L242.28,1035.56z"/>
		</g>
	</g>
</g>
<g id="Ebene_2">
</g>
<g id="Ebene_4_2_">
</g>
<g id="Ebene_5_1_">
</g>
<g id="Ebene_6_1_">
	<g>
		<g>
			<path d="M330.26,1076.58c10.12,0,10.14-15.73,0-15.73C320.14,1060.85,320.12,1076.58,330.26,1076.58L330.26,1076.58z"/>
		</g>
	</g>
	<g>
		<g>
			<path d="M253.61,1363.79c10.12,0,10.14-15.73,0-15.73C243.5,1348.07,243.48,1363.79,253.61,1363.79L253.61,1363.79z"/>
		</g>
	</g>
	<g>
		<g>
			<path d="M1158.11,1039.84c10.12,0,10.14-15.73,0-15.73C1147.99,1024.11,1147.98,1039.84,1158.11,1039.84L1158.11,1039.84z"/>
		</g>
	</g>
	<g>
		<g>
			<path d="M1080.44,1148.89c-0.03,24.94-1.18,49.84-2.08,74.76c-0.74,20.61-1.51,41.39,0.26,61.97
				c1.32,15.34,3.75,31.93,12.27,45.14c8.14,12.62,20.86,19.36,35.67,20.64c7.71,0.67,14.11-1.01,19.53-6.73
				c5.3-5.6,8.58-12.74,11.42-19.81c7.88-19.65,11.4-41.17,14.26-62.03c7.75-56.6,8.97-114.94,2.8-171.76
				c-2.61-24.05-6.26-48.64-14.72-71.43c-5.74-15.47-14.48-33.43-31.17-39.34c-9.75-3.45-20.73-1.26-28.72,5.17
				c-10.35,8.33-14.79,22.44-17.28,34.98c-6.93,34.93-3.88,71.49-2.63,106.81c0.26,7.26,0.48,14.53,0.49,21.8
				c0.01,10.12,15.74,10.14,15.73,0c-0.05-32.99-3.22-65.92-1.35-98.91c0.79-13.99,2.1-28.9,7.66-41.93
				c1.71-4.01,4.14-8.12,7.99-11.21c-1.29,1.03,1.3-0.74,1.71-1.01c1.73-1.12-0.18-0.24,1.77-0.8c1.1-0.31,2.19-0.62,3.32-0.8
				c-1.62,0.25,1.3-0.02,1.96-0.01c0.66,0.01,1.32,0.1,1.97,0.12c1.51,0.04-1.99-0.47-0.54-0.06c0.37,0.1,0.77,0.12,1.14,0.24
				c0.62,0.19,1.25,0.36,1.87,0.53c0.25,0.07,0.49,0.19,0.74,0.26c1.92,0.5-1.16-0.66-0.07-0.03c1.17,0.67,2.34,1.3,3.5,2
				c1.92,1.16-0.21-0.29,0.43,0.27c0.71,0.62,1.43,1.22,2.12,1.87c1.17,1.11,2.22,2.32,3.28,3.54c1.41,1.63-0.71-1.11,0.56,0.71
				c0.58,0.83,1.18,1.65,1.73,2.5c2.25,3.41,4.16,7.03,5.87,10.74c0.42,0.92,0.83,1.84,1.23,2.77c-0.79-1.84,0.48,1.22,0.63,1.6
				c0.88,2.24,1.7,4.5,2.47,6.78c1.67,4.95,3.11,9.97,4.39,15.04c2.84,11.24,4.91,22.68,6.54,34.15c3.54,24.84,5.08,53.1,5.3,79.37
				c0.24,27.45-0.88,54.95-3.59,82.27c-2.18,22-5.14,43.69-11.26,65.77c-1.15,4.16-2.43,8.28-3.9,12.34c-0.61,1.68-1.26,3.35-1.95,5
				c0.94-2.26-0.37,0.79-0.62,1.32c-0.4,0.85-0.81,1.7-1.24,2.53c-0.66,1.29-1.37,2.56-2.13,3.79c-0.35,0.57-0.73,1.12-1.09,1.68
				c-0.21,0.32-0.46,0.62-0.67,0.94c-0.78,1.21,1.27-1.46,0.33-0.42c-0.83,0.93-1.68,1.82-2.53,2.72c-0.61,0.66-2.1,1.2,0.18-0.06
				c-0.35,0.2-1.05,0.98-1.44,0.94c-0.1-0.01-0.51,0.25-0.61,0.32c-0.56,0.41-1.46,0.05,1.02-0.41c-0.42,0.08-0.81,0.32-1.24,0.4
				c-2,0.36,1.77,0.17,0.45-0.02c-1.33-0.19-2.81,0-4.16-0.08c-5.49-0.33-10.73-1.75-15.3-4.61c-4.06-2.55-7.31-6.39-9.95-11.21
				c-2.79-5.1-4.6-11.06-5.97-17.35c-3.67-16.93-3.63-34.65-3.43-51.88c0.26-22.23,1.48-44.45,2.18-66.67
				c0.37-11.71,0.61-23.43,0.62-35.15C1096.18,1138.77,1080.45,1138.76,1080.44,1148.89L1080.44,1148.89z"/>
		</g>
	</g>
	<g>
		<g>
			<path d="M1080.56,1004.38c10.12,0,10.14-15.73,0-15.73C1070.44,988.65,1070.42,1004.38,1080.56,1004.38L1080.56,1004.38z"/>
		</g>
	</g>
	<g>
		<g>
			<path d="M325.13,1034.55c-9.4,64.97-18.84,130.52-14.26,196.32c0.7,10.04,16.43,10.12,15.73,0
				c-4.49-64.41,4.49-128.55,13.7-192.14c0.61-4.2-1.04-8.45-5.49-9.67C331.11,1028.05,325.74,1030.32,325.13,1034.55
				L325.13,1034.55z"/>
		</g>
	</g>
	<g>
		<g>
			<path d="M324.85,1036.64c-2.04,29.46-5.98,58.75-8.1,88.21c-2.83,39.25-3.44,78.79,0.65,117.98
				c4.54,43.45,14.7,86.36,33.86,125.8c20.67,42.54,52.04,78.86,90.88,105.8c49.97,34.66,109.91,52.7,169.61,61.24
				c40.76,5.83,81.96,7.64,123.09,6.73c39.9-0.88,80.73-2.54,119.49-12.84c58.42-15.53,108.44-50.26,144.89-98.25
				c34.63-45.6,55.98-100.4,69.5-155.66c12.96-52.97,19.1-107.58,21.17-162.01c1.45-38,0.69-76-1.25-113.97
				c-0.25-4.87-0.52-9.74-0.73-14.61c-0.44-10.08-16.17-10.13-15.73,0c1.37,31.03,2.93,61.99,2.75,93.07
				c-0.28,50.76-3.85,101.78-12.52,150.98c-9.67,54.92-25.46,109.25-52.81,157.67c-27.6,48.86-67.15,89.42-118.63,113.11
				c-28.28,13.02-59.66,20.47-90.82,23.24c-43.98,3.91-88.41,5.03-132.5,2.43c-63.99-3.77-129.62-16-186.37-45.82
				c-42.14-22.15-77.61-53.77-102.36-93.49c-22.41-35.96-35.26-75.23-42.36-117.8c-0.41-2.48-0.8-4.96-1.17-7.44
				c-0.2-1.35-0.4-2.7-0.59-4.06c-0.09-0.68-0.19-1.35-0.28-2.03c0.19,1.42,0,0-0.08-0.61c-0.65-5.16-1.25-10.33-1.74-15.51
				c-0.98-10.21-1.65-20.45-2.05-30.7c-0.76-19.39-0.55-38.8,0.32-58.18c1.45-32.21,5.06-64.22,8.14-96.3
				c0.54-5.65,1.05-11.31,1.44-16.97C341.28,1026.54,325.55,1026.59,324.85,1036.64L324.85,1036.64z"/>
		</g>
	</g>
	<g>
		<g>
			<path d="M336.68,1043.43c39.21-21.34,83.81-33.14,127.23-43.13c49.86-11.47,100.49-19.65,151.21-26.2
				c40.32-5.21,80.78-9.39,121.3-12.63c10.76-0.86,21.53-1.66,32.3-2.34c1.95-0.12,3.91-0.18,5.85-0.36
				c4.83-0.43,6.98-3.76,9.61-7.23c27.45-36.19,54.82-73.22,77.27-112.77c2.69-4.74,5.28-9.55,7.67-14.45
				c-4.88-1.32-9.77-2.65-14.65-3.97c-4.84,43.48-9.4,86.98-11.94,130.67c-0.24,4.15,3.8,8,7.86,7.86
				c77.26-2.53,153.42,13.49,227.56,33.75c9.78,2.67,13.95-12.49,4.18-15.16c-75.4-20.61-153.17-36.88-231.74-34.31
				c2.62,2.62,5.24,5.24,7.86,7.86c2.54-43.69,7.1-87.19,11.94-130.67c0.86-7.73-11.34-10.75-14.65-3.97
				c-10.89,22.31-24.95,43.14-38.95,63.58c-12.92,18.86-26.31,37.4-40,55.7c-2.82,3.77-5.65,7.53-8.51,11.26
				c2.26-1.3,4.53-2.6,6.79-3.89c-38.62,2.13-77.21,5.82-115.65,10.07c-75.51,8.34-151.31,19.19-224.94,38.24
				c-36.12,9.35-72.62,20.6-105.53,38.51C319.85,1034.69,327.78,1048.28,336.68,1043.43L336.68,1043.43z"/>
		</g>
	</g>
	<g>
		<g>
			<path d="M325.36,1236.72c-2.66-30.28-0.43-61.17,0.89-91.46c1.41-32.35,3.62-64.84,2.84-97.23c-0.22-9.17-0.12-19.51-3.18-28.27
				c-5.85-16.7-23.73-22.25-39.4-16.23c-28.87,11.1-41.22,39.78-47.94,67.64c-7.14,29.59-10.33,60.23-12.29,90.55
				c-2.13,32.93-2.47,66.04-0.63,98.99c1.45,26.01,3.53,53.07,11.24,78.1c4.44,14.44,11.29,27.79,26.9,31.86
				c15.48,4.04,31.62-2.17,41.91-14.09c18.86-21.86,21.66-54.35,21.57-81.93c-0.04-11.52-0.78-23.01-1.91-34.47
				c-0.42-4.23-3.32-7.86-7.86-7.86c-3.93,0-8.28,3.61-7.86,7.86c1.96,19.87,2.84,40.01,0.69,59.91
				c-1.3,12.04-4.36,25.48-9.27,35.22c-1.09,2.15-2.28,4.26-3.6,6.27c-0.61,0.93-1.25,1.85-1.92,2.74c1.01-1.35-0.77,0.93-1.16,1.37
				c-1.3,1.49-2.71,2.83-4.16,4.17c-0.27,0.25-0.57,0.48-0.85,0.72c-1.43,1.24,1.39-0.96-0.13,0.11c-0.72,0.51-1.44,1.02-2.18,1.48
				c-1.42,0.89-2.9,1.65-4.42,2.35c2.2-1.03-0.21,0.07-0.79,0.25c-0.74,0.23-1.47,0.47-2.22,0.67c-0.73,0.19-1.47,0.33-2.21,0.5
				c-2.28,0.53,0.11,0.07-0.53,0.1c-1.42,0.07-2.83,0.2-4.26,0.15c-0.69-0.02-1.37-0.11-2.06-0.14c-2.08-0.08,1.67,0.47-0.31-0.05
				c-1.26-0.33-2.53-0.54-3.78-0.93c-0.6-0.19-1.17-0.43-1.77-0.62c-0.7-0.22,1.78,0.99-0.12-0.08c-1.01-0.56-2-1.16-3.01-1.72
				c-1.73-0.97,0.35,0.39,0.01,0.06c-0.38-0.36-0.81-0.66-1.18-1.04c-0.35-0.36-0.69-0.74-1.04-1.09c-1.48-1.45,0.2,0.43-0.28-0.34
				c-0.86-1.37-1.75-2.68-2.51-4.11c-0.42-0.79-0.8-1.59-1.19-2.39c-0.16-0.33-0.31-0.68-0.46-1.02c-0.74-1.59,0.49,1.27-0.11-0.26
				c-8.23-20.78-10.47-43.32-12.28-65.08c-2.55-30.56-2.84-61.33-1.72-91.96c1.09-29.66,3.41-59.43,8.53-88.69
				c2.08-11.88,4.6-23.73,8.18-35.25c0.76-2.43,1.56-4.85,2.44-7.24c0.92-2.5,1.64-4.3,2.06-5.23c2.39-5.22,5.14-10.25,8.82-14.7
				c6.96-8.4,25.43-25.07,36.73-14.74c1.41,1.29,2.11,2.74,3.14,4.29c0.92,1.39-0.39-1.79,0.04,0.04c0.34,1.47,0.84,2.9,1.13,4.39
				c0.18,0.9,0.31,1.81,0.45,2.72c-0.34-2.24,0.13,1.15,0.17,1.6c0.25,2.37,0.42,4.75,0.55,7.13c1.61,28.76-0.41,57.81-1.68,86.54
				c-1.38,31.11-3.26,62.32-2.58,93.47c0.12,5.65,0.36,11.3,0.85,16.93C310.51,1246.72,326.24,1246.81,325.36,1236.72
				L325.36,1236.72z"/>
		</g>
	</g>
	<g>
		<g>
			<path d="M249.21,1041.39c-30.08,0.11-59.7,7.86-83.26,27.16c-19.65,16.1-32.57,39.15-39.76,63.25
				c-7.03,23.55-9.11,48.78-7.3,73.24c1.51,20.46,5.3,41.44,14.25,60.06c19.25,40.04,60.25,69.34,104.69,72.54
				c10.1,0.73,10.05-15,0-15.73c-37.66-2.71-70.87-27.65-88.74-60.17c-1.11-2.02-2.15-4.07-3.11-6.16c-0.28-0.6-1.06-2.45-0.41-0.87
				c-0.44-1.06-0.86-2.12-1.27-3.19c-1.53-4.02-2.82-8.12-3.95-12.27c-2.63-9.64-4.34-19.59-5.22-28.3
				c-4.42-43.37,2.85-92.88,34.45-124.49c20.93-20.94,50.15-29.23,79.62-29.34C259.33,1057.08,259.35,1041.35,249.21,1041.39
				L249.21,1041.39z"/>
		</g>
	</g>
	<g>
		<g>
			<path d="M1160.2,1039.56c1.06-0.24,2.13-0.44,3.2-0.63c0.34-0.06,1.53-0.2-0.1,0c0.45-0.06,0.91-0.11,1.36-0.15
				c2.37-0.19,4.73-0.31,7.11-0.27c5.63,0.1,8.08,0.44,13.42,1.59c11.26,2.43,20.89,6.42,30.73,12.21
				c23.23,13.66,41.58,35.37,51.35,60.49c12.66,32.55,12.02,69.76,5.91,103.72c-4.77,26.48-14.5,53.13-34.62,71.8
				c-21.58,20.03-51.55,25.71-80.46,24.61c-10.12-0.39-10.1,15.34,0,15.73c29.04,1.11,59.29-4.27,82.96-22.09
				c24.13-18.16,38.06-45.73,44.94-74.65c4.37-18.37,6.25-37.36,6.69-56.21c0.45-19.42-1.2-38.88-6.94-57.52
				c-9.3-30.24-28.31-56.73-54.41-74.68c-21.19-14.58-49.45-24.97-75.34-19.12C1146.16,1026.63,1150.33,1041.79,1160.2,1039.56
				L1160.2,1039.56z"/>
		</g>
	</g>
	<g>
		<g>
			<path d="M307.14,1008.12c10.12,0,10.14-15.73,0-15.73C297.02,992.39,297,1008.12,307.14,1008.12L307.14,1008.12z"/>
		</g>
	</g>
	<g>
		<g>
			<path d="M317.2,993.64c27.96-81.02,83.84-151.9,155.43-198.9c35.96-23.61,75.22-41.1,117.52-49.45
				c44.48-8.78,90.62-8.79,135.52-3.37c49.38,5.96,98.62,19,143.89,39.73c3.71,1.7,8.03,1.03,10.26-2.69
				c1.92-3.21,0.98-8.58-2.69-10.26c-42.05-19.25-86.89-32.16-132.58-39.19c-47.11-7.25-95.15-8.58-142.36-1.46
				c-88.24,13.3-168.2,64.25-225.34,131.83c-32.42,38.35-57.73,82.29-74.11,129.79C299.58,998.8,314.07,1002.72,317.2,993.64
				L317.2,993.64z"/>
		</g>
	</g>
	<g>
		<g>
			<path d="M875.34,782.39c37.94-9.19,78.29-8.96,115.6,4.85c44.97,16.66,78.94,53.49,100.29,96.18
				c17.42,34.83,27.18,73.15,33.21,111.46c0.63,3.99,5.64,6.24,9.23,5.24c4.26-1.19,5.87-5.19,5.24-9.23
				c-9.92-63.05-30.97-128.67-77-174.97c-32.51-32.69-75.68-51.44-121.54-54.42c-23.13-1.5-46.51,0.97-69.01,6.42
				C861.98,770.2,865.95,784.67,875.34,782.39L875.34,782.39z"/>
		</g>
	</g>
	<g>
		<g>
			<path d="M247.88,1038.64c9.39-45.04,25.59-88.19,49.33-127.61c22.21-36.88,50.38-69.51,83.25-97.55
				c32.09-27.38,68.88-50.08,107.52-67.9c38.83-17.9,80.7-31.07,122.98-39.72c42.56-8.71,85.66-12.81,129.41-12.63
				c43.23,0.18,85.39,4.5,127.36,13.5c39.89,8.55,79.33,21.3,115.49,38.56c34.74,16.58,67.13,37.25,95.03,62.69
				c27.32,24.9,49.14,52.64,65.54,85.87c16.12,32.67,25.28,70.3,26.77,106.96c0.4,9.94,0.3,19.89-0.24,29.83
				c-0.52,9.65,14.48,9.62,15,0c2.15-39.84-3.09-80.24-17.08-117.7c-13.32-35.66-33.86-68.1-59.68-96.03
				c-26.3-28.44-57.78-52.04-91.51-70.97c-36.04-20.23-74.93-35.43-114.78-46.26c-42.03-11.43-85.39-18.07-128.86-20.47
				c-44.78-2.47-89.74-0.22-134.09,6.45c-43.91,6.6-87.18,17.81-128.53,34.03c-40.91,16.05-80.02,36.79-115.4,62.93
				c-35.6,26.31-67.16,57.58-93.08,93.5c-27.03,37.46-47.26,79.68-60.27,123.97c-3.35,11.4-6.2,22.94-8.63,34.57
				C231.45,1044.07,245.91,1048.1,247.88,1038.64L247.88,1038.64z"/>
		</g>
	</g>
	<g>
		<g>
			<path d="M207.19,1049.25c2.83-46.52,14.3-93.79,34.05-135.77c19.42-41.26,45.69-77.52,77.77-109.47
				c32.73-32.6,69.75-59.16,110.46-81.31c41.84-22.76,85.76-39.77,131.9-52.23c47.09-12.71,94.44-20.14,142.92-22.65
				c48.06-2.48,97.03-0.04,143.79,7.82c45.75,7.69,91.88,20.75,133.55,39.33c41.02,18.28,79.57,42.18,112.49,71.78
				c33.47,30.11,60.43,64.89,80.61,105.17c21.28,42.47,33.7,90.42,37.69,138c1.1,13.08,1.6,26.2,1.62,39.33
				c0.01,9.65,15.01,9.67,15,0c-0.05-51.79-8.14-103.88-26.93-152.28c-16.96-43.67-42.05-83.72-74.05-117.96
				c-31.16-33.34-68.44-60.85-108.67-82.27c-41.78-22.25-86.82-38.27-132.93-48.77c-47.89-10.91-97.14-16.08-146.23-16.08
				c-49.83,0-99.73,5.33-148.45,15.79c-48.07,10.32-95.05,25.85-139.58,46.74c-43.17,20.26-83.89,45.88-120.06,77.02
				c-35.15,30.27-65.77,66.08-89.06,106.26c-23.9,41.24-39.87,86.96-46.92,134.09c-1.86,12.42-3.2,24.92-3.96,37.46
				C191.6,1058.9,206.61,1058.86,207.19,1049.25L207.19,1049.25z"/>
		</g>
	</g>
</g>
<g id="Ebene_7">
	<ellipse class="st8" cx="621.76" cy="1193.37" rx="17" ry="47"/>
	<ellipse class="st8" cx="621.76" cy="1193.37" rx="17" ry="47"/>
	<ellipse class="st8" cx="621.76" cy="1193.37" rx="17" ry="47"/>
	<ellipse class="st8" cx="757.76" cy="1193.37" rx="17" ry="47"/>
	<g>
		<g>
			<path d="M701.96,1266.34c-11.61-1.71-22.95,2.08-30.98,10.83c-7.77,8.47-11.82,20.59-8.27,31.85c6.31,20,31.24,29.84,49.54,19.96
				c8.5-4.59,0.93-17.55-7.57-12.95c-9.54,5.15-23.25-0.2-27.26-10.23c-4.79-11.99,8.03-26.84,20.55-24.99
				c4.04,0.6,8.02-1.01,9.23-5.24C708.2,1272.04,705.96,1266.93,701.96,1266.34L701.96,1266.34z"/>
		</g>
	</g>
	<g>
		<g>
			<path d="M571.84,1365.31c14.85,38.34,48.84,67.8,88.87,77.39c39.63,9.49,80.89-2.69,110.9-29.79
				c16.84-15.21,29.45-34.91,35.89-56.68c2.74-9.28-11.73-13.24-14.46-3.99c-9.93,33.59-37.08,61.24-70.06,72.81
				c-34.38,12.05-71.97,4.81-100.86-17.02c-15.78-11.93-28.63-28.21-35.8-46.7c-1.46-3.76-5.04-6.41-9.23-5.24
				C573.48,1357.1,570.37,1361.5,571.84,1365.31L571.84,1365.31z"/>
		</g>
	</g>
	<ellipse class="st9" cx="626.26" cy="1172.63" rx="4.5" ry="7.5"/>
	<ellipse class="st9" cx="626.26" cy="1172.63" rx="4.5" ry="7.5"/>
	<ellipse class="st9" cx="762.26" cy="1172.63" rx="4.5" ry="7.5"/>
</g>
<g id="Ebene_14">
	<g class="st10">
		<path d="M177.94,1069.22c-25.3,87.38-5.05,186.63,52.45,257.12c-51.25-9.97-88.47-59.47-95.99-111.14
			c-7.52-51.67,9.85-104.17,35.52-149.63"/>
		<g>
			<path d="M170.71,1067.23c-20.14,70.35-11.95,147.44,20.8,212.72c9.25,18.44,20.59,35.68,33.58,51.7
				c2.43-4.18,4.86-8.36,7.3-12.54c-34.74-7.02-61.84-32.37-77.47-63.43c-18.32-36.43-17.93-78.65-7.51-117.35
				c6.51-24.21,16.74-47.16,28.99-68.98c4.73-8.43-8.22-16-12.95-7.57c-23.13,41.19-40.07,87.93-38.17,135.78
				c1.58,39.78,17.61,79.18,47.07,106.5c15.73,14.58,34.94,25.25,56.04,29.51c7.66,1.55,12.02-6.71,7.3-12.54
				c-43.54-53.7-64.74-124.16-60.42-192.95c1.21-19.28,4.58-38.31,9.9-56.87C187.84,1061.92,173.37,1057.95,170.71,1067.23
				L170.71,1067.23z"/>
		</g>
	</g>
	<g class="st10">
		<path d="M283.82,1019.48c-27.86,109.55-27.15,226.23,2.04,335.44c-14.14,3.72-29-6.26-35.79-19.21
			c-6.79-12.95-7.44-28.13-7.95-42.75c-3.18-91.6-5.87-186.22,27.69-271.52"/>
		<g>
			<path d="M276.59,1017.49c-21.87,86.51-26.25,176.9-13.27,265.16c3.68,25.03,8.82,49.82,15.31,74.26
				c1.75-3.08,3.49-6.15,5.24-9.23c-8.85,2.04-17.35-2.87-23.03-9.39c-6.96-7.99-9.35-19.18-10.34-29.46
				c-2.18-22.78-2-46.03-2.41-68.9c-0.85-46.68,0-93.76,7.96-139.87c4.51-26.16,11.33-51.89,20.99-76.63
				c1.48-3.8-1.63-8.19-5.24-9.23c-4.23-1.21-7.76,1.48-9.23,5.24c-18.54,47.49-26.19,98.33-28.69,149.05
				c-1.23,25.01-1.22,50.07-0.72,75.11c0.26,12.81,0.65,25.62,1.08,38.42c0.42,12.51,0.47,25.16,2.68,37.52
				c2.22,12.37,7.38,24.6,16.99,33.02c9.45,8.28,21.49,12.44,33.93,9.57c3.97-0.92,6.25-5.44,5.24-9.23
				c-22.35-84.11-27.97-172.6-16.2-258.86c3.34-24.44,8.11-48.68,14.16-72.59C293.42,1012.12,278.96,1008.12,276.59,1017.49
				L276.59,1017.49z"/>
		</g>
	</g>
	<g class="st10">
		<path d="M336.58,1040.25c-6.94,142.86,59.49,287.36,172.46,375.09c112.97,87.73,269.42,116.32,406.11,74.22
			c-95.34,46.76-206.53,63.16-309.92,38.96c-103.4-24.19-197.67-90.33-249.73-182.89c-52.06-92.55-58.93-210.76-11.9-305.97"/>
		<g>
			<path d="M329.08,1040.25c-2.62,55.99,5.72,112.43,23.71,165.48c18.07,53.27,45.59,103.09,81.18,146.66
				c35.79,43.81,79.98,80.55,129.7,107.56c50.31,27.33,105.56,44.81,162.28,52.27c56.76,7.46,115.02,4.42,170.55-9.63
				c6.93-1.75,13.81-3.69,20.64-5.79c-1.93-4.57-3.85-9.14-5.78-13.71c-58.93,28.77-123.74,45.87-189.31,48.64
				c-61.75,2.61-124.19-7.57-181.04-32.19c-52.12-22.58-99.42-56.04-137.06-98.66c-39.36-44.56-66.36-98.75-78-157.07
				c-11.92-59.73-7.4-122.87,14.94-179.66c2.76-7.03,5.87-13.9,9.19-20.68c4.24-8.64-8.7-16.25-12.95-7.57
				c-28.08,57.26-37.84,122.42-29.87,185.58c7.88,62.44,32.11,121.5,70.62,171.28c36.11,46.67,83.39,84.49,136.18,110.74
				c56.7,28.19,119.26,42.7,182.53,43.6c68.33,0.97,136.42-13.55,199.14-40.4c7.83-3.35,15.56-6.91,23.21-10.65
				c7.66-3.74,2.29-16.18-5.78-13.71c-53.12,16.25-108.97,21.84-164.31,17.33c-55.3-4.51-110.06-19.31-159.97-43.59
				c-49.51-24.09-93.87-57.41-130.67-98.37c-36.11-40.2-64.84-87.3-84.33-137.69c-19.65-50.81-30.33-105.04-30.3-159.56
				c0-6.73,0.18-13.47,0.5-20.19C344.53,1030.6,329.53,1030.62,329.08,1040.25L329.08,1040.25z"/>
		</g>
	</g>
	<g class="st10">
		<path d="M679.52,735.31c-143.15,39.27-265.46,148.13-321.05,285.77c-15.39,10.04-37.32-4.36-41.26-22.3s4.29-36.18,13.3-52.19
			c64.43-114.44,183.48-196.49,313.36-215.97"/>
		<g>
			<path d="M677.52,728.08c-56.76,15.67-110.49,41.96-157.99,76.72c-47.48,34.75-88.86,77.49-121.71,126.34
				c-18.57,27.62-34.08,57.11-46.6,87.95c1.15-1.49,2.3-2.99,3.45-4.48c-10.85,6.61-24-2.85-28.65-12.95
				c-7.39-16.07,2.34-35.74,10.08-49.73c15.13-27.33,33.57-52.82,54.51-75.97c42.43-46.91,95.06-84.4,153.24-109.22
				c32.58-13.9,66.98-23.57,101.99-28.89c4-0.61,6.24-5.65,5.24-9.23c-1.2-4.28-5.19-5.85-9.23-5.24
				c-63.02,9.57-123.69,33.63-176.74,68.89c-52.98,35.21-98.67,81.43-132.23,135.54c-16.12,25.98-39.02,66.38-11.35,92.87
				c10.28,9.84,26.52,15.19,39.61,7.54c3.68-2.15,4.68-5.56,6.23-9.29c1.57-3.77,3.21-7.51,4.89-11.23
				c3.18-7.03,6.53-13.98,10.05-20.84c28.63-55.73,68.35-105.36,115.87-146.15c47.11-40.44,102.14-72.05,161.14-91.48
				c7.33-2.41,14.72-4.63,22.16-6.69C690.8,739.98,686.86,725.5,677.52,728.08L677.52,728.08z"/>
		</g>
	</g>
	<g class="st10">
		<path d="M861.29,830.63c-2.13,39.29-4.26,78.57-6.38,117.86c32.17,1.2,64.35,2.39,96.52,3.59
			c-34.45-40.74-62.91-86.53-84.19-135.46"/>
		<g>
			<path d="M853.79,830.63c-2.13,39.29-4.26,78.57-6.38,117.86c-0.23,4.16,3.62,7.36,7.5,7.5c32.17,1.2,64.35,2.39,96.52,3.59
				c6.99,0.26,9.23-8.14,5.3-12.8c-34-40.34-61.9-85.6-83.02-133.94c-1.63-3.74-7.04-4.53-10.26-2.69
				c-3.85,2.19-4.3,6.57-2.69,10.26c21.65,49.56,50.51,95.63,85.36,136.98c1.77-4.27,3.54-8.54,5.3-12.8
				c-32.17-1.2-64.35-2.39-96.52-3.59c2.5,2.5,5,5,7.5,7.5c2.13-39.29,4.26-78.57,6.38-117.86
				C869.31,820.98,854.31,821.01,853.79,830.63L853.79,830.63z"/>
		</g>
	</g>
	<g class="st10">
		<path d="M1111.01,999.57c-10.65,112.01,0.19,226.02,31.74,334.02c-10.86,4.03-23.45-1.4-31.03-10.16s-11.17-20.2-14.18-31.39
			c-26.29-97.69-22.17-203.33,11.65-298.67"/>
		<g>
			<path d="M1103.51,999.57c-8.26,87.87-3.43,176.82,14.07,263.31c4.95,24.47,10.96,48.72,17.94,72.7c1.75-3.08,3.49-6.15,5.24-9.23
				c-22.41,7.46-32.24-22.16-36.45-38.06c-6.19-23.35-10.7-47.16-13.34-71.17c-5.21-47.47-3.78-95.77,4.6-142.8
				c4.78-26.84,11.79-53.25,20.86-78.96c3.22-9.12-11.27-13.04-14.46-3.99c-34.39,97.51-39.03,207.03-10.54,306.66
				c3.55,12.41,8.57,25.64,18.62,34.29c9.51,8.18,22.42,12.58,34.71,8.49c3.8-1.27,6.42-5.16,5.24-9.23
				c-24.38-83.8-36.36-170.92-35.39-258.2c0.28-24.65,1.61-49.28,3.91-73.83C1119.41,989.96,1104.4,990.02,1103.51,999.57
				L1103.51,999.57z"/>
		</g>
	</g>
	<g class="st10">
		<path d="M1170.39,1041.97c1.75,86.27,3.5,172.55,5.26,258.82c0.08,3.73,0.2,7.65,2.11,10.85c5.22,8.77,18.66,6.03,27.48,0.89
			c8.82-5.13,19.17-11.78,28.35-7.32c-27.16-89.81-48.79-181.29-64.75-273.75"/>
		<g>
			<path d="M1162.89,1041.97c0.98,48.11,1.95,96.23,2.93,144.34c0.49,24.22,0.98,48.45,1.48,72.67c0.24,11.95,0.49,23.89,0.73,35.84
				c0.2,9.74-0.09,20.63,9.03,26.66c7.56,5,17.64,3.71,25.64,0.53c8.88-3.54,18.87-13.78,28.9-9.56c5.39,2.27,10.73-4.24,9.23-9.23
				c-21.13-70-38.98-140.99-53.36-212.69c-4.07-20.3-7.86-40.66-11.39-61.07c-1.64-9.49-16.1-5.47-14.46,3.99
				c12.47,72.05,28.32,143.51,47.58,214.06c5.45,19.98,11.19,39.87,17.17,59.7c3.08-3.08,6.15-6.15,9.23-9.23
				c-9.1-3.83-18.67-0.43-26.9,3.94c-6.21,3.3-13,8.71-20.53,7.9c-2.61-0.28-3.91-1.26-4.59-3.84c-1.3-4.95-0.54-11.04-0.64-16.14
				c-0.24-11.61-0.47-23.23-0.71-34.84c-0.92-45.13-1.83-90.26-2.75-135.39c-0.53-25.88-1.05-51.76-1.58-77.65
				C1177.69,1032.33,1162.69,1032.29,1162.89,1041.97L1162.89,1041.97z"/>
		</g>
	</g>
</g>
<g id="Ebene_15">
	<g class="st10">
		<g>
			<path class="st11" d="M999.25,1048.52c1.01,18.32,1.16,36.68,0.37,55.02c-0.4,9.32-1.04,18.62-1.9,27.9
				c-0.39,4.19-0.83,8.38-1.32,12.56c-0.28,2.39-0.58,4.78-0.88,7.17c-0.1,0.77-0.57,3.93,0,0.05c-0.17,1.19-0.34,2.38-0.51,3.57
				c-5.28,36.31-14.12,72.11-26.36,106.71c-1.81,5.1-3.69,10.18-5.64,15.23c-0.87,2.24-1.75,4.48-2.65,6.71
				c-0.45,1.12-0.9,2.23-1.36,3.34c-0.18,0.43-2.03,4.9-1.07,2.61c0.85-2.02-0.31,0.73-0.4,0.93c-0.6,1.38-1.19,2.76-1.8,4.14
				c-1.09,2.48-2.19,4.95-3.32,7.41c-2.25,4.93-4.58,9.81-6.96,14.68c-4.6,9.38-2.85,22.07,7.17,27.36c9,4.76,22.44,2.85,27.36-7.18
				c34.37-70.07,54.54-146.27,59.17-224.2c1.26-21.32,1.27-42.7,0.09-64.03c-0.57-10.43-8.79-20.5-20-20
				C1008.91,1028.98,998.63,1037.33,999.25,1048.52L999.25,1048.52z"/>
		</g>
	</g>
	<g class="st10">
		<g>
			<path class="st11" d="M946.48,846.86c2.07,0.59,4.13,1.23,6.17,1.95c0.94,0.33,2.58,0.59,3.36,1.26
				c-0.84-0.71-3.23-1.47-0.81-0.34c3.9,1.84,7.72,3.79,11.39,6.06c1.83,1.13,3.62,2.33,5.38,3.57c2.64,1.87,0.68,1.4-0.02-0.12
				c0.28,0.6,1.71,1.37,2.23,1.81c3.5,2.91,6.81,6.05,9.9,9.39c1.47,1.58,2.86,3.23,4.25,4.88c1.61,1.9,0.46,0.21-0.47-0.65
				c0.83,0.78,1.46,1.98,2.11,2.91c2.47,3.53,4.72,7.21,6.72,11.03c0.85,1.62,2.64,4.02,2.82,5.81c-0.11-1.11-1.29-3.29-0.35-0.81
				c0.43,1.12,0.85,2.23,1.25,3.36c1.51,4.3,2.69,8.68,3.6,13.15c2.1,10.27,14.8,17.14,24.6,13.97c10.88-3.52,16.22-13.6,13.97-24.6
				c-8.83-43.15-43.35-79.13-85.47-91.18c-10.05-2.88-22.22,3.51-24.6,13.97C930.08,832.91,935.71,843.78,946.48,846.86
				L946.48,846.86z"/>
		</g>
	</g>
	<g class="st10">
		<g>
			<path class="st11" d="M1197.63,1094.82c0.59,0.69,4.73,6.24,1.92,2.28c0.94,1.32,1.89,2.62,2.8,3.96
				c2.11,3.13,4.06,6.37,5.85,9.69c1.54,2.85,2.94,5.77,4.24,8.73c-2.03-4.6,0.65,1.88,0.96,2.75c0.54,1.53,1.06,3.06,1.53,4.61
				c1.04,3.35,1.93,6.75,2.66,10.18c0.4,1.85,0.71,3.71,1.06,5.56c0.98,5.3-0.33-4.28,0.16,1.1c0.68,7.56,0.82,15.04,0.16,22.61
				c-0.91,10.45,9.85,20.45,20,20c11.62-0.52,19.02-8.8,20-20c3.17-36.3-9.71-72.17-33.05-99.76c-6.78-8.02-21.39-7.51-28.28,0
				C1189.8,1075.07,1190.39,1086.27,1197.63,1094.82L1197.63,1094.82z"/>
		</g>
	</g>
	<g class="st10">
		<g>
			<path class="st11" d="M190.34,1082.34c-2.09,32.82-4.17,65.64-6.26,98.45c-0.67,10.46,9.67,20.46,20,20
				c11.4-0.51,19.29-8.79,20-20c2.09-32.82,4.17-65.64,6.26-98.45c0.67-10.46-9.67-20.46-20-20
				C198.94,1062.85,191.05,1071.13,190.34,1082.34L190.34,1082.34z"/>
		</g>
	</g>
	<g class="st10">
		<g>
			<path class="st11" d="M280.78,1046.85c-2.15,37.12-4.3,74.23-6.45,111.35c-0.61,10.46,9.63,20.46,20,20
				c11.35-0.51,19.35-8.79,20-20c2.15-37.12,4.3-74.23,6.45-111.35c0.61-10.46-9.63-20.46-20-20
				C289.43,1027.35,281.43,1035.64,280.78,1046.85L280.78,1046.85z"/>
		</g>
	</g>
	<g>
		<g id="Ebene_3">
			<g class="st12">
				<g>
					<path d="M810.62,885.5c3.38,0,6.7-6.96,2.99-6.96C810.22,878.55,806.91,885.5,810.62,885.5L810.62,885.5z"/>
				</g>
			</g>
			<g class="st12">
				<path d="M804.74,880.41c3.91,54.37,7.83,108.74,11.74,163.11c58.38-39.33,116.77-78.65,175.15-117.98
					c32.55-21.92,63.28-56.37,105.48-54.43c43.74,2.01,94.51,1.63,136.3,3.54c100.7,4.62,179.35,0.03,279.25-11.94
					c30.57-3.66,77.5-28.07,100.32-46.27c27.79-22.16,30.83-46.38,33.46-79.22c10.23-127.32-15.24-255.12-55.03-377.9
					c-9.87-30.45-23.03-63.44-54.25-79.37c-27.65-14.1-62.09-10.92-93.73-6.79c-251.03,32.75-496.53,97.94-726.08,192.79
					c-25.33,10.47-52.18,22.75-64.63,44.72c-9.83,17.35-11.54,38.06-7.08,57.03c18.95,80.65,29.14,133.95,43.45,218.59
					c4.04,23.9,14.28,61.36,37.96,73.74c23.17,12.11,49.35,11.96,74.96,9.43c2.14,3.66,4.28,7.31,6.41,10.97"/>
				<g>
					<path d="M801.62,881.93c3.91,54.37,7.83,108.74,11.74,163.11c0.16,2.26,2.26,2.28,3.98,1.13
						c44.71-30.11,89.42-60.22,134.13-90.34c19.81-13.34,40.1-26.25,58.88-40.69c15.48-11.91,30.76-24.71,49.21-33.08
						c9.17-4.16,19.24-7.04,29.61-7.47c11.99-0.51,24.27,0.74,36.28,1.04c25.3,0.65,50.6,0.87,75.9,1.49
						c25.51,0.62,50.98,2.05,76.5,2.52c25.48,0.48,50.97,0.31,76.43-0.55c50.81-1.72,101.42-6.32,151.8-12.25
						c19.85-2.34,38-8.6,55.66-16.75c17.65-8.14,34.89-17.78,49.94-29.3c14.76-11.31,25.55-25.39,30.97-41.94
						c5.79-17.71,6.62-36.62,7.77-54.91c3.01-47.64,1.11-95.46-4.58-142.89c-5.6-46.71-14.8-93.06-26.58-138.87
						c-5.94-23.08-12.53-46.03-19.66-68.84c-5.94-19.02-11.73-38.29-21.34-56.2c-8.47-15.79-20.4-30.58-37.68-39.79
						c-19.99-10.65-44.06-12.11-66.87-10.64c-24.97,1.61-49.83,5.68-74.51,9.28c-25.95,3.8-51.84,7.94-77.64,12.42
						c-102.61,17.84-203.99,41.11-303.41,69.63c-99.1,28.42-196.28,62.04-290.78,100.66c-19.55,7.99-39.76,15.88-56.27,28.3
						c-16.66,12.54-26.74,29.53-29.81,48.55c-3.53,21.83,3.41,43.02,8.23,64.27c4.53,19.99,8.88,40,12.98,60.06
						c8.4,41.08,15.71,82.32,22.72,123.59c5.16,30.41,13.02,70.48,49.09,84.09c21.18,7.99,44.49,7.52,66.97,5.34
						c-0.65-0.18-1.3-0.37-1.96-0.55c2.14,3.66,4.28,7.31,6.41,10.97c1.64,2.81,6.93-3.09,5.38-5.74
						c-2.14-3.66-4.28-7.31-6.41-10.97c-0.37-0.63-1.31-0.61-1.96-0.55c-24.07,2.33-49.41,2.4-71.2-8.14
						c-16.22-7.84-24.54-23.61-30.14-38.39c-6.24-16.46-8.95-33.51-11.88-50.59c-3.55-20.75-7.18-41.5-11.02-62.21
						c-7.23-39.05-15.32-77.97-24.18-116.77c-4.92-21.55-11.34-42.67-4.99-64.58c5.65-19.49,20.59-33.09,39.77-43.32
						c19.6-10.45,41.15-18.32,62-26.62c23.11-9.2,46.37-18.09,69.78-26.69c47.69-17.52,95.99-33.76,144.79-48.74
						c95.81-29.41,193.58-53.91,292.65-73.34c50.14-9.83,100.61-18.36,151.33-25.57c24.09-3.42,48.55-7.61,73.02-7.93
						c22.6-0.3,45.2,3.68,62.93,16.63c15.7,11.46,25.58,28.02,32.74,44.5c8.33,19.17,14.03,39.26,19.99,59.06
						c13.51,44.93,24.88,90.39,33.1,136.3c8.2,45.79,13.22,92.06,14.04,138.41c0.41,23.29-0.25,46.6-2.08,69.84
						c-1.37,17.28-2.6,35.3-10.65,51.38c-7.75,15.48-22.18,26.71-37.55,36.39c-16.83,10.61-35.2,19.89-54.43,26.71
						c-20.38,7.23-42.02,8.72-63.68,11.02c-25.25,2.68-50.54,4.94-75.91,6.56c-49.5,3.16-99.14,3.71-148.72,1.92
						c-48.98-1.77-98.02-2.02-146.98-3.97c-10.21-0.41-19.92-0.45-29.83,2.08c-8.79,2.25-17.09,5.84-24.82,10.11
						c-17.2,9.5-31.87,21.96-47.21,33.54c-19.24,14.52-40.05,27.56-60.18,41.12c-21.57,14.53-43.13,29.05-64.7,43.57
						c-21.04,14.17-42.08,28.34-63.12,42.51c1.33,0.38,2.66,0.75,3.98,1.13c-3.91-54.37-7.83-108.74-11.74-163.11
						C807.55,874.4,801.4,879.01,801.62,881.93L801.62,881.93z"/>
				</g>
			</g>
			<g class="st12">
				<g>
					<path d="M1591.39,1012.94c3.38,0,6.7-6.96,2.99-6.96C1591,1005.99,1587.68,1012.94,1591.39,1012.94L1591.39,1012.94z"/>
				</g>
			</g>
		</g>
		<g id="Ebene_3_Kopie">
			<g>
				<g>
					<path class="st13" d="M830.88,862.18c3.38,0,6.7-6.96,2.99-6.96C830.48,855.23,827.17,862.18,830.88,862.18L830.88,862.18z"/>
				</g>
			</g>
			<g>
				<path class="st14" d="M825.01,857.09c3.91,54.37,7.83,108.74,11.74,163.11c58.38-39.33,116.77-78.65,175.15-117.98
					c32.55-21.92,63.28-56.37,105.48-54.43c43.74,2.01,94.51,1.63,136.3,3.54c100.7,4.62,179.35,0.03,279.25-11.94
					c30.57-3.66,77.5-28.07,100.32-46.27c27.79-22.16,30.83-46.38,33.46-79.22c10.23-127.32-15.24-255.12-55.03-377.9
					c-9.87-30.45-23.03-63.44-54.25-79.37c-27.65-14.1-62.09-10.92-93.73-6.79c-251.03,32.75-496.53,97.94-726.08,192.79
					c-25.33,10.47-52.18,22.74-64.63,44.71c-9.83,17.35-11.54,38.06-7.08,57.03c18.95,80.65,29.14,133.95,43.45,218.59
					c4.04,23.9,18.41,56.7,37.96,73.74c19.55,17.03,53.11,24.17,74.96,9.43c2.14,3.66,4.28,7.31,6.41,10.97"/>
				<g>
					<path class="st13" d="M821.88,858.61c3.91,54.37,7.83,108.74,11.74,163.11c0.16,2.26,2.26,2.28,3.98,1.13
						c44.71-30.11,89.42-60.22,134.13-90.34c20.21-13.61,40.86-26.8,60-41.56c15.44-11.9,30.79-24.65,49.35-32.77
						c9.04-3.96,18.93-6.6,29.07-6.95c11.78-0.4,23.79,0.77,35.57,1.07c25.88,0.66,51.78,0.88,77.65,1.53
						c25.55,0.64,51.05,2.07,76.61,2.52c25.74,0.45,51.49,0.25,77.21-0.67c50.91-1.82,101.61-6.51,152.08-12.5
						c19.66-2.34,38.11-9.46,55.45-17.67c17.15-8.13,33.99-17.62,48.55-29.05c14.82-11.63,25.15-26.12,30.3-42.96
						c5.56-18.15,6.24-37.58,7.33-56.25c2.78-47.65,0.67-95.46-5.19-142.88c-5.84-47.26-15.34-94.14-27.46-140.46
						c-6.03-23.06-12.71-45.98-19.91-68.78c-5.82-18.44-11.67-37.03-21.41-54.24c-9.02-15.94-21.99-30.56-40.27-38.95
						c-20.49-9.41-44.29-10.02-66.85-8.26c-25.71,2.01-51.31,6.15-76.74,9.93c-25.63,3.81-51.2,7.96-76.69,12.44
						c-103.18,18.14-205.1,41.77-305.02,70.7c-99.3,28.75-196.65,62.73-291.29,101.73c-19.2,7.91-38.93,16.3-54.12,29.6
						c-15.59,13.66-23.63,31.85-25.22,50.97c-0.9,10.74,0.65,21.18,3.11,31.68c2.59,11.08,5.14,22.17,7.63,33.27
						c4.44,19.78,8.68,39.6,12.69,59.45c4,19.84,7.76,39.72,11.36,59.62c3.95,21.84,7.06,43.84,11.46,65.61
						c3.59,17.78,10.84,35.38,20.99,51.09c10.02,15.5,23.92,28.64,43.56,34.56c17.5,5.28,36.47,4.34,51.6-5.52
						c-1.18,0.08-2.36,0.15-3.54,0.22c2.14,3.66,4.28,7.31,6.41,10.97c1.64,2.81,6.93-3.09,5.38-5.74
						c-2.14-3.66-4.28-7.31-6.41-10.97c-0.74-1.26-2.73-0.31-3.54,0.22c-16.55,10.78-39.48,8.18-56.62-0.09
						c-18.16-8.77-29.7-24.6-38.02-40.78c-8.9-17.3-13.24-35.08-16.42-53.73c-3.57-20.9-7.21-41.8-11.06-62.66
						c-7.23-39.24-15.31-78.35-24.19-117.33c-4.83-21.23-11.58-42.26-6.29-63.96c4.83-19.83,18.76-34.15,37.96-44.83
						c19.44-10.81,41.15-18.67,62.04-27.01c23.38-9.33,46.92-18.35,70.6-27.07c47.11-17.34,94.8-33.43,143-48.29
						c96.34-29.71,194.68-54.45,294.34-74.06c50.13-9.86,100.6-18.43,151.3-25.66c24.14-3.44,48.64-7.65,73.15-8.16
						c22.64-0.48,45.47,3.09,63.53,15.8c15.93,11.21,26.03,27.64,33.3,44.07c8.53,19.26,14.27,39.53,20.28,59.47
						c13.46,44.65,24.79,89.82,33.05,135.45c8.33,46.06,13.44,92.6,14.32,139.24c0.43,23.29-0.19,46.6-2,69.84
						c-1.34,17.18-2.51,35.08-10.19,51.15c-7.47,15.62-21.62,26.96-36.93,36.74c-16.85,10.76-35.33,20.12-54.62,27.09
						c-20.69,7.46-42.59,9.03-64.61,11.36c-24.95,2.65-49.96,4.89-75.03,6.51c-49.47,3.19-99.08,3.77-148.64,2.01
						c-24.71-0.88-49.39-1.86-74.12-2.29c-24.61-0.43-49.23-0.73-73.82-1.71c-9.97-0.4-19.47-0.46-29.16,1.92
						c-9.04,2.22-17.56,5.9-25.48,10.27c-17.2,9.49-31.87,21.96-47.21,33.54c-19.24,14.52-40.05,27.56-60.18,41.12
						c-21.57,14.53-43.13,29.05-64.7,43.57c-21.04,14.17-42.08,28.34-63.12,42.51c1.33,0.38,2.66,0.75,3.98,1.13
						c-3.91-54.37-7.83-108.74-11.74-163.11C827.81,851.08,821.67,855.69,821.88,858.61L821.88,858.61z"/>
				</g>
			</g>
			<g>
				<g>
					<path class="st13" d="M1611.66,989.63c3.38,0,6.7-6.96,2.99-6.96C1611.26,982.67,1607.95,989.63,1611.66,989.63L1611.66,989.63
						z"/>
				</g>
			</g>
		</g>
		<g id="Ebene_2_1_">
			<g>
				<g>
					<path d="M823.41,848.28c-17.01,1.75-34.75,2.71-51.54-0.92c-8.1-1.75-15.96-4.78-22.45-9.42
						c-7.32-5.23-12.75-12.61-17.18-19.83c-9.55-15.58-14.2-33.09-18.22-50.28c-4.72-20.16-9.18-40.37-13.76-60.55
						c-9.39-41.37-18.78-82.75-28.16-124.13c-7.74-34.14-18.52-75.18,8.35-105.2c11.57-12.93,27.63-22.09,44.07-29.63
						c18.27-8.38,37.47-15.28,56.45-22.3c42.04-15.56,84.68-29.87,127.71-43.2c85.51-26.48,172.56-48.99,260.21-69.37
						c87.51-20.35,175.64-38.58,263.82-56.56c21.29-4.35,42.67-9.58,64.38-12.04c20.55-2.33,41.85-0.95,59.48,9.39
						c31.34,18.38,43.13,54.79,54.35,84.43c28.57,75.48,46.74,153.98,53.95,233.25c3.47,38.08,5.02,76.64,2.67,114.82
						c-1.97,32.05-7.75,65.66-27.14,93.51c-20.29,29.13-54.53,45.13-91.5,52.94c-40.66,8.59-83.43,9.74-125.02,11.66
						c-88.88,4.1-177.86,3.41-266.8,1.7c-22.68-0.44-45.35-0.92-68.02-1.4c-3.38-0.07-6.74,6.88-2.99,6.96
						c92.78,1.94,185.61,4.15,278.4,1.73c45.5-1.19,91.26-2.85,136.54-7.1c38.04-3.57,77.34-10.59,108.89-30.65
						c65.71-41.77,65.99-122.84,64.63-186.84c-1.74-81.65-15-163.15-39.34-241.98c-6.17-19.98-13.05-39.8-20.64-59.4
						c-6.3-16.27-12.72-32.67-22.08-47.82c-8.31-13.44-19.39-26.1-34.56-34.05c-17.68-9.27-38.48-10.24-58.46-8.07
						c-22.32,2.43-44.31,7.87-66.18,12.33c-23.04,4.7-46.07,9.42-69.09,14.18c-45.75,9.48-91.45,19.15-137.02,29.29
						c-90.68,20.17-180.89,42.18-269.69,68.07c-44.46,12.96-88.56,26.89-132.13,42.03c-21.33,7.41-42.53,15.1-63.58,23.11
						c-18.24,6.94-36.69,13.85-53.48,23.28c-15.53,8.73-29.67,19.75-38.81,33.98c-10.02,15.6-13.03,33.58-12.24,51.27
						c0.84,18.81,5.46,37.31,9.64,55.7c4.83,21.26,9.65,42.52,14.48,63.79c9.47,41.75,18.09,83.73,28.57,125.29
						c4.31,17.07,9.94,34.27,20.65,49.2c9.76,13.61,23.03,22.14,41.05,25.45c16.52,3.04,33.71,1.97,50.34,0.26
						C825.15,854.79,827.89,847.82,823.41,848.28L823.41,848.28z"/>
				</g>
			</g>
			<g>
				<g>
					<path d="M819.11,815.25c1.56,27.18,2.83,54.37,4.09,81.56c1.35,29.08,2.65,58.17,4.07,87.25c0.72,14.66,1.46,29.32,2.31,43.97
						c0.09,1.48,1.55,2.6,3.19,1.61c40.17-23.99,79.51-49.04,117.89-75.18c39.54-26.93,78.11-55.02,114.97-84.75
						c19.68-15.88,38.84-32.24,57.26-49.24c1.15-1.06,2.25-3.52,1.09-4.85c-1.27-1.46-3.31-0.01-4.29,0.9
						c-32.95,30.41-68.38,58.74-104.87,85.85c-37.97,28.21-77.24,55.08-117.4,80.88c-21.33,13.7-42.93,27.08-64.78,40.13
						c1.06,0.54,2.12,1.07,3.19,1.61c-1.56-27.18-2.83-54.37-4.09-81.56c-1.35-29.08-2.65-58.17-4.07-87.25
						c-0.72-14.66-1.46-29.32-2.31-43.97c-0.09-1.65-1.52-2.34-3.19-1.61C820.43,811.35,819.01,813.55,819.11,815.25L819.11,815.25z
						"/>
				</g>
			</g>
			<g>
				<g>
					<path d="M1694.08,718.24c-2.07,31.71-15.55,62.71-37.86,87.72c-22.97,25.74-55.09,44.36-90.83,53.55
						c-20.4,5.24-41.68,7.39-62.89,6.23c-3.37-0.18-6.78,6.75-2.99,6.96c39.33,2.15,79.2-6.91,112.53-25.32
						c32.97-18.21,58.57-45.35,73.67-76.77c8.45-17.59,13.39-36.37,14.63-55.41c0.11-1.7-1.66-2.28-3.19-1.61
						C1695.25,714.41,1694.19,716.48,1694.08,718.24L1694.08,718.24z"/>
				</g>
			</g>
		</g>
		<g id="Ebene_4">
			<g>
				<g>
					<path d="M972,442.47c-2.48,48.72-4.97,97.44-7.45,146.15c-2.48,48.72-4.97,97.44-7.45,146.15
						c-1.39,27.31-2.78,54.62-4.17,81.93c-0.19,3.64,17.16,3.98,17.36,0c2.48-48.72,4.97-97.44,7.45-146.15
						c2.48-48.72,4.97-97.44,7.45-146.15c1.39-27.31,2.78-54.62,4.17-81.93C989.55,438.84,972.2,438.5,972,442.47L972,442.47z"/>
				</g>
			</g>
			<g>
				<g>
					<path d="M1201.73,442.54c-3.9,48.47-7.8,96.94-11.7,145.41s-7.8,96.94-11.7,145.41c-2.19,27.26-4.39,54.53-6.58,81.79
						c-0.28,3.54,17.04,4.05,17.36,0c3.9-48.47,7.8-96.94,11.7-145.41c3.9-48.47,7.8-96.94,11.7-145.41
						c2.19-27.26,4.39-54.53,6.58-81.79C1219.38,439,1202.05,438.49,1201.73,442.54L1201.73,442.54z"/>
				</g>
			</g>
			<g>
				<g>
					<path d="M981.59,631.82c53.92-2.22,108.03-2.05,161.89,0.71c15.29,0.79,30.57,1.77,45.83,2.95c2.19,0.17,4.53,0.13,6.69-0.27
						c0.92-0.17,3.43-0.66,3.99-1.59c1.48-2.46-4.64-3.16-6.07-3.28c-55.12-4.25-110.51-6-165.83-5.16
						c-15.51,0.23-31.01,0.68-46.5,1.32c-1.92,0.08-8.53,0.05-8.68,2.66C972.77,631.59,980.23,631.87,981.59,631.82L981.59,631.82z"
						/>
				</g>
			</g>
			<g>
				<g>
					<path d="M1313.1,628c-3.44,50.41-6.88,100.82-10.31,151.22c-0.96,14.12-1.93,28.23-2.89,42.34c-0.24,3.58,17.09,4.02,17.36,0
						c3.44-50.41,6.88-100.82,10.31-151.22c0.96-14.12,1.93-28.23,2.89-42.34C1330.72,624.42,1313.38,623.98,1313.1,628L1313.1,628z
						"/>
				</g>
			</g>
			<g>
				<g>
					<path d="M1335.16,529.58c-7.91-7.15-23.15-7.06-32.86-3.07c-8.55,3.51-13.54,11.13-15.92,18.86
						c-2.21,7.18-1.94,14.96,1.67,21.76c3.95,7.44,12.34,11.76,21.33,13.15c20.21,3.14,41.38-4.22,51.23-20.36
						c8.15-13.38,8.2-30.16-1.74-42.85c-12.84-16.4-37.19-22.04-58.7-18.93c-2.03,0.29-6.08,1.79-3.11,3.64
						c3.03,1.9,8.48,1.45,11.88,0.95c-1.1,0.16,0.86-0.08,1.17-0.12c1.64-0.18-0.7-0.06,0.95-0.06c0.41,0,0.82,0,1.22,0
						c1.41-0.01-1.27-0.1,0.14-0.01c0.95,0.06,1.9,0.13,2.84,0.25c-1.12-0.14,0.83,0.15,1.15,0.21c0.8,0.14,1.6,0.29,2.39,0.49
						c0.77,0.19,3.14,0.92,4.45,1.4c6.09,2.22,11.6,5.84,15.89,10.2c9.31,9.46,12.07,22.2,8.72,34.22
						c-3.14,11.24-12.5,22.5-25.42,25.77c-0.39,0.1-1.37,0.28-1.99,0.4c-0.9,0.17-0.19,0.06,0.01,0.03
						c-0.41,0.06-0.83,0.08-1.24,0.12c-1.01,0.11,0.06,0.03,0.24,0.02c-0.41,0.02-0.82,0.01-1.23,0.01c-1.04,0,0.11,0.03,0.26,0.02
						c-0.27-0.02-0.54-0.05-0.81-0.07c0.6,0.1,0.62,0.1,0.07,0.01c-2.19-0.35-5.02-1.48-7.2-3.08c-5.3-3.92-7.72-9.94-8.15-15.85
						c-0.5-6.87,1.4-13.97,5.54-19.83c2.08-2.95,4.9-5.95,8.63-7.37c0.65-0.25,0.78-0.1,1.09-0.27c0.61-0.32,0.31,0.03-0.07,0.03
						c-0.32,0-1.32-0.06-1.66,0.03c-0.64,0.18-0.39-0.17,0.3,0.22c0.82,0.48,1.5,0.86,2.2,1.49c2.45,2.22,7.44,2.14,10.68,1.86
						C1330.06,532.77,1337.38,531.6,1335.16,529.58L1335.16,529.58z"/>
				</g>
			</g>
		</g>
	</g>
</g>
<g id="Ebene_8">
</g>
</svg>
