<?xml version="1.0" encoding="utf-8"?>
<!-- Generator: Adobe Adobe Illustrator 24.2.0, SVG Export Plug-In . SVG Version: 6.00 Build 0)  -->
<svg version="1.1" xmlns="http://www.w3.org/2000/svg" xmlns:xlink="http://www.w3.org/1999/xlink" x="0px" y="0px"
	 viewBox="0 0 1700.79 1700.79" style="enable-background:new 0 0 1700.79 1700.79;" xml:space="preserve">
<style type="text/css">
	.st0{fill:#91625E;}
	.st1{fill:#6DB572;}
	.st2{fill:#6CB671;}
	.st3{fill:#F0C2A1;}
	.st4{opacity:0.149;}
	.st5{fill:#FFFFFF;}
	.st6{stroke:#000000;stroke-width:1.1146;stroke-miterlimit:10;}
	.st7{fill:#FFFFFF;stroke:#FFFFFF;stroke-width:1.1146;stroke-miterlimit:10;}
	.st8{fill:#CB5B7B;stroke:#CB5B7B;stroke-width:2.2725;stroke-miterlimit:10;}
	.st9{fill:#F4F5E9;}
	.st10{fill:#F4F6E7;}
</style>
<g id="Ebene_6">
	<g>
		<path class="st0" d="M658.05,799.72c46.22-65.09,52.84-156.14,16.52-227.23c9.41-7.22,18.82-14.44,28.22-21.66
			c4.85,22.9,41.24,23.68,55.92,5.44c14.68-18.23,13.68-44.07,11.95-67.41c-2.8-37.76-10.39-82.7-45.07-97.89
			c-22.3-9.77-51.03-1.39-64.57,18.84c-13.55,20.23-10.35,49.98,7.17,66.88c-13.39,7.51-26.79,15.02-40.18,22.53
			c-51.46-35.92-47.09-30-117.89-44.12c-136.16-27.14-212.92,26.39-225.1,26.02c-12.18-0.36-17.16-24.15-20.75-35.79
			c-2.03-6.58-0.82-13.65-0.84-20.53c-0.09-30.05-25.79-56.39-55.26-62.28c-29.47-5.9-58.05,10.56-80.31,30.76
			c-27.68,25.11-45.62,62.76-29.59,96.52s69.52,45.77,92.08,15.97c6.21,8.13,12.43,16.25,18.64,24.38
			c-20.74,33.68-52.55,70-45.37,108.9c7.89,42.69,11.35,68.99,17.76,114.72c10.53,75.07,107.38,79.77,174.38,85.77
			c99.44,8.9,200.85-8,292.78-46.95"/>
		<g>
			<path class="st0" d="M664.52,803.5c37.05-52.6,49.2-120.97,35.09-183.5c-4.02-17.8-10.33-35.03-18.57-51.3
				c-0.9,3.42-1.79,6.84-2.69,10.26c9.41-7.22,18.82-14.44,28.22-21.66c-3.67-1.49-7.35-2.99-11.02-4.48
				c6.23,26.35,41.42,29.19,60.63,15.79c27.31-19.06,23.98-59.48,21.24-88.42c-2.66-28.17-7.9-59.31-27.7-80.96
				c-20.45-22.36-55.31-26.27-80.11-8.56c-29.64,21.16-32.47,65.74-6.74,91.31c0.51-3.93,1.01-7.85,1.52-11.78
				c-13.39,7.51-26.79,15.02-40.18,22.53c2.52,0,5.05,0,7.57,0c-18.33-12.78-36.79-26.38-58.58-32.56
				c-10.68-3.03-21.71-4.84-32.61-6.87c-18.23-3.38-36.38-7.33-54.77-9.81c-57.46-7.76-115.98-2.5-170.29,18.15
				c-6.88,2.62-13.66,5.48-20.46,8.3c-2.26,0.93-4.51,1.88-6.82,2.69c-0.8,0.28-1.61,0.53-2.41,0.78c-0.33,0.1-0.7,0.13-1.02,0.26
				c-1.51,0.58,0.85-0.42,0.71-0.07c-0.15,0.36-1.46-0.33-1.58-0.41c-2.12-1.44-3.46-4.18-4.59-6.36
				c-2.94-5.71-4.59-12.09-6.35-18.24c-0.94-3.3-2.12-6.55-2.38-9.98c-0.37-4.82,0.35-9.69,0.26-14.52
				c-0.14-8.21-1.97-16.23-5.16-23.77c-13.4-31.63-48.45-50.82-82.22-45.45c-18.82,2.99-35.86,12.83-50.68,24.42
				c-14.35,11.22-27.09,24.69-36.02,40.66c-15.95,28.53-17.71,66.69,7.53,90.65c19.56,18.56,51.52,26.11,76.08,13.22
				c5.89-3.09,11.13-7.52,15.22-12.77c-3.93-0.51-7.85-1.01-11.78-1.52c6.21,8.13,12.43,16.25,18.64,24.38c0-2.52,0-5.05,0-7.57
				c-14.03,22.65-30.75,43.82-40.69,68.75c-4.74,11.89-7.59,24.96-6.52,37.81c1.12,13.37,4.49,26.73,6.68,39.97
				c4.34,26.26,7.94,52.63,11.63,78.99c2.7,19.3,9.9,36.86,23.98,50.68c27.7,27.19,69.59,34.71,106.57,39.4
				c49.89,6.34,100.46,9.47,150.66,5.54c67.3-5.27,133.53-21.46,195.71-47.7c3.72-1.57,6.43-4.96,5.24-9.23
				c-0.98-3.51-5.46-6.83-9.23-5.24c-53.53,22.58-110.23,38.03-167.96,44.83c-28.58,3.37-57.39,4.72-86.16,3.96
				c-22.63-0.59-45.21-2.7-67.73-4.9c-35.5-3.47-74.89-7.89-105.28-28.19c-13.51-9.02-23.8-21.97-28.34-37.66
				c-3.31-11.42-4.13-23.59-5.78-35.33c-1.77-12.62-3.55-25.23-5.47-37.82c-2.08-13.64-4.32-27.26-6.74-40.85
				c-1.24-6.98-2.92-13.93-3-21.04c-0.08-6.98,1.12-13.78,3.11-20.45c8.17-27.31,27.47-50.1,42.26-73.98c1.27-2.05,1.54-5.55,0-7.57
				c-6.21-8.13-12.43-16.25-18.64-24.38c-2.56-3.35-8.47-5.76-11.78-1.52c-15.41,19.77-43.98,17.73-63.3,4.95
				c-26.01-17.2-26.32-51.21-12.7-76.53c8.06-14.97,19.8-27.45,33.09-37.93c13.38-10.55,29.4-19.73,46.59-21.76
				c30.06-3.55,62.3,18.61,66.8,49.26c1.24,8.49-0.68,17.05,0.76,25.55c1.03,6.06,3.23,12.26,5.16,18.09
				c3.58,10.81,9.89,26.49,23.59,26.54c3.8,0.01,7.51-1.56,10.98-2.95c5.89-2.35,11.69-4.89,17.58-7.24
				c47.53-18.93,98.06-26.37,149.1-22.43c19.01,1.47,37.61,4.86,56.31,8.45c12.79,2.46,25.65,4.62,38.4,7.32
				c4.48,0.95,8.94,1.99,13.33,3.3c1.8,0.54,3.6,1.12,5.37,1.75c0.93,0.33,1.86,0.68,2.79,1.05c0.35,0.14,0.69,0.27,1.04,0.42
				c2.26,0.93-1.28-0.58,0.98,0.42c8.95,4,17.27,9.28,25.42,14.7c6.03,4.01,11.98,8.14,17.92,12.28c2.18,1.52,5.36,1.24,7.57,0
				c13.39-7.51,26.79-15.02,40.18-22.53c4.21-2.36,4.9-8.42,1.52-11.78c-17.09-16.98-18.26-47.11-0.57-64.13
				c16.95-16.31,44.75-17.15,62.24-1.36c17.27,15.6,22.97,40.61,25.98,62.75c1.72,12.69,2.75,25.63,2.95,38.43
				c0.21,13.53-0.84,27.83-7.91,39.72c-5.58,9.37-14.97,14.6-25.89,14.76c-8.93,0.13-18.04-3.32-20.26-12.72
				c-1.01-4.28-7.19-7.42-11.02-4.48c-9.41,7.22-18.82,14.44-28.22,21.66c-3.37,2.59-4.72,6.25-2.69,10.26
				c27.29,53.92,29.11,118.87,7.51,175.04c-6.08,15.81-14.28,30.78-24.03,44.62C646,803.84,659,811.34,664.52,803.5L664.52,803.5z"
				/>
		</g>
	</g>
</g>
<g id="Ebene_7">
	<g>
		<path class="st1" d="M199.5,520.11c1.49,3.45,2.99,6.9,4.48,10.34c19.92-22.71,43.46-42.24,69.45-57.62
			c-3.15-5.98-6.3-11.95-9.46-17.93c-18.74,23.14-40.77,43.61-65.21,60.62"/>
		<g>
			<path class="st2" d="M193.03,523.89c1.49,3.45,2.99,6.9,4.48,10.34c1.88,4.33,8.85,4.84,11.78,1.52
				c19.64-22.25,42.44-41.25,67.93-56.45c3.59-2.14,4.6-6.65,2.69-10.26c-3.15-5.98-6.3-11.95-9.46-17.93
				c-2.09-3.97-8.77-5.21-11.78-1.52c-18.43,22.62-39.78,42.71-63.7,59.44c-7.85,5.49-0.36,18.5,7.57,12.95
				c24.98-17.48,47.47-38.15,66.73-61.79c-3.93-0.51-7.85-1.01-11.78-1.52c3.15,5.98,6.3,11.95,9.46,17.93
				c0.9-3.42,1.79-6.84,2.69-10.26c-26.52,15.81-50.53,35.64-70.97,58.8c3.93,0.51,7.85,1.01,11.78,1.52
				c-1.49-3.45-2.99-6.9-4.48-10.34c-1.62-3.75-7.05-4.52-10.26-2.69C191.85,515.83,191.42,520.2,193.03,523.89L193.03,523.89z"/>
		</g>
	</g>
	<g>
		<path class="st1" d="M644.36,489.36c-3.51,2.77-7.01,5.53-10.52,8.3c18.27,18.82,33.94,40.16,46.42,63.23
			c2.96-3.48,5.93-6.97,8.89-10.45c-13.48-19.94-26.97-39.88-40.45-59.82"/>
		<g>
			<path class="st2" d="M639.06,484.06c-3.51,2.77-7.01,5.53-10.52,8.3c-3.22,2.54-2.55,7.96,0,10.61
				c17.83,18.48,32.96,39.16,45.24,61.71c2.18,3.99,8.68,5.17,11.78,1.52c2.96-3.48,5.93-6.97,8.89-10.45
				c2.06-2.42,3.12-6.21,1.17-9.09c-13.48-19.94-26.97-39.88-40.45-59.82c-5.38-7.95-18.38-0.46-12.95,7.57
				c13.48,19.94,26.97,39.88,40.45,59.82c0.39-3.03,0.78-6.06,1.17-9.09c-2.96,3.48-5.93,6.97-8.89,10.45
				c3.93,0.51,7.85,1.01,11.78,1.52c-12.87-23.61-28.92-45.4-47.59-64.75c0,3.54,0,7.07,0,10.61c3.51-2.77,7.01-5.53,10.52-8.3
				c3.2-2.53,2.6-7.95,0-10.61C646.56,480.88,642.22,481.56,639.06,484.06L639.06,484.06z"/>
		</g>
	</g>
	<g>
		<path class="st1" d="M317.62,928.78c-20.44,155.68-40.87,311.36-61.31,467.04c113.24,55.25,216.9,67.85,343.55,22.77
			c-33.39-160.8-52.53-324.56-57.12-488.73c-73.81,11.19-149.68,8.64-222.57-7.47"/>
		<g>
			<path class="st2" d="M310.12,928.78c-15.93,121.38-31.87,242.75-47.8,364.13c-4.5,34.3-9.01,68.6-13.51,102.91
				c-0.31,2.38,1.62,5.46,3.71,6.48c42.06,20.45,86.27,37.01,132.45,45.15c44.76,7.89,90.23,7.73,135.02,0.13
				c27.89-4.74,55.21-12.31,81.86-21.75c4.01-1.42,6.11-5.01,5.24-9.23c-25.93-125.08-43.27-251.88-51.77-379.33
				c-2.39-35.77-4.07-71.58-5.08-107.41c-0.15-5.32-4.65-7.96-9.49-7.23c-72.53,10.87-146.97,8.24-218.58-7.47
				c-9.41-2.06-13.43,12.39-3.99,14.46c74.43,16.33,151.22,18.77,226.56,7.47c-3.16-2.41-6.33-4.82-9.49-7.23
				c3.64,128.36,16.1,256.45,37.25,383.12c6.01,36,12.74,71.88,20.15,107.61c1.75-3.08,3.49-6.15,5.24-9.23
				c-44.25,15.67-90.38,26.02-137.43,27.04c-43.55,0.94-86.66-6.23-128.06-19.58c-24.81-8-48.85-18.08-72.29-29.48
				c1.24,2.16,2.48,4.32,3.71,6.48c15.93-121.38,31.87-242.75,47.8-364.13c4.5-34.3,9.01-68.6,13.51-102.91
				c0.53-4.02-3.83-7.5-7.5-7.5C313.13,921.28,310.65,924.74,310.12,928.78L310.12,928.78z"/>
		</g>
	</g>
	<g>
		<g>
			<path class="st2" d="M544.46,941.43c9.65,0,9.67-15,0-15C534.81,926.43,534.79,941.43,544.46,941.43L544.46,941.43z"/>
		</g>
	</g>
</g>
<g id="Ebene_8">
	<g>
		<path class="st2" d="M359.13,1588.04c-10.03,7.8-23.91,7.67-35.98,11.63c-12.07,3.96-23.8,17.17-17.56,28.25
			c4.43,7.87,14.99,9.27,24.01,9.66c25.4,1.1,50.84,1.36,76.26,0.8c-1.41-9.8-2.82-19.61-4.24-29.41
			c-8.44,5.77-17.19,11.68-27.22,13.62c-10.04,1.94-21.79-1.15-26.99-9.95c-5.2-8.8,0.12-22.8,10.33-23.4"/>
		<g>
			<path class="st2" d="M355.34,1581.56c-12.88,9.46-30.55,6.58-43.79,15.52c-12.32,8.32-21.3,25.39-9.77,38.31
				c10.66,11.95,31.03,9.9,45.4,10.31c19.55,0.55,39.12,0.59,58.67,0.17c5.35-0.11,7.93-4.68,7.23-9.49
				c-1.41-9.8-2.82-19.61-4.24-29.41c-0.67-4.66-7.36-6.98-11.02-4.48c-10.38,7.09-23.49,16.69-36.75,11.91
				c-4.04-1.46-7.89-4.48-8.19-9.05c-0.18-2.87,1.3-8.23,4.83-8.62c4.03-0.44,7.5-3.13,7.5-7.5c0-3.71-3.45-7.95-7.5-7.5
				c-20.58,2.27-26.08,28.96-10.88,41.54c18.5,15.31,41.72,3.66,58.55-7.83c-3.67-1.49-7.35-2.99-11.02-4.48
				c1.41,9.8,2.82,19.61,4.24,29.41c2.41-3.16,4.82-6.33,7.23-9.49c-16.3,0.35-32.6,0.38-48.89,0.06
				c-8.15-0.16-16.29-0.41-24.44-0.74c-5.48-0.22-11.53-0.19-16.58-2.64c-11.92-5.77,2.2-18.15,9.19-20.66
				c12.68-4.54,26.49-4.11,37.78-12.39c3.29-2.41,4.84-6.48,2.69-10.26C363.76,1581.01,358.6,1579.17,355.34,1581.56L355.34,1581.56
				z"/>
		</g>
	</g>
	<g>
		<path class="st2" d="M446.88,1611.75c8.2,3.93,16.63,7.92,25.7,8.7c9.06,0.78,19.04-2.35,23.96-9.99
			c4.92-7.65,2.32-19.87-6.27-22.87c15.29,6.39,30.59,12.79,45.88,19.18c5.49,2.29,11.85,5.77,12.1,11.71
			c0.34,7.85-9.72,11.24-17.53,11.98c-28.73,2.71-57.72,2.71-86.45-0.03c-1.16-3.24-2.33-6.49-3.49-9.73"/>
		<g>
			<path class="st2" d="M443.1,1618.22c17.11,8.18,38.64,16.04,55.02,1.77c13.02-11.35,10.3-33.06-5.85-39.64
				c-3.78-1.54-8.21,1.67-9.23,5.24c-1.23,4.31,1.52,7.67,5.24,9.23c14.07,5.88,28.15,11.75,42.21,17.65
				c2.33,0.98,10.43,3.98,10.3,6.13c-0.16,2.67-6.48,3.75-8.44,4.11c-13.83,2.54-28.87,2.22-42.89,2.27
				c-15.09,0.06-30.17-0.66-45.19-2.05c2.41,1.84,4.82,3.67,7.23,5.51c-1.16-3.24-2.33-6.49-3.49-9.73
				c-3.24-9.02-17.74-5.13-14.46,3.99c1.16,3.24,2.33,6.49,3.49,9.73c1.22,3.4,3.7,5.18,7.23,5.51c18.95,1.76,37.97,2.42,57,1.85
				c9.17-0.27,18.35-0.79,27.49-1.65c6.43-0.6,13.02-1.59,18.57-5.13c5.46-3.48,8.92-9.19,8.27-15.76
				c-0.7-7.09-6.07-12.15-12.09-15.3c-7.55-3.95-15.86-6.79-23.72-10.08c-9.18-3.84-18.35-7.67-27.53-11.51
				c-1.33,4.82-2.66,9.64-3.99,14.46c2.69,1.09,3.46,5.28,3.21,7.78c-0.42,4.12-3.57,7.04-7.19,8.69c-11.08,5.04-23.64-1.23-33.62-6
				C442,1601.13,434.38,1614.06,443.1,1618.22L443.1,1618.22z"/>
		</g>
	</g>
</g>
<g id="Ebene_9">
	<g>
		<path class="st3" d="M374.64,1451.44c-1.19,38.51-2.37,77.02-3.56,115.53c-0.28,9.03-0.62,18.36-4.46,26.54
			c-3.84,8.18-12.14,14.98-21.14,14.16c10.59,13.66,33.82,10.78,45.49-1.97c11.67-12.75,14.15-31.43,13.43-48.7
			c-0.72-17.27-4.07-34.6-1.78-51.73c1.61-12.07,6-24.19,3.57-36.13c-2.43-11.93-16.17-22.65-26.53-16.25"/>
		<g>
			<path class="st3" d="M367.14,1451.44c-0.89,28.88-1.78,57.77-2.67,86.65c-0.42,13.49,0.06,27.38-1.58,40.79
				c-1.16,9.45-6,21.84-17.41,21.29c-7.07-0.34-9.12,8.16-5.3,12.8c9.44,11.48,26.16,13.59,39.57,8.67
				c15.57-5.71,25.36-19.41,29.45-35.13c4.75-18.3,2.05-36.91,0.69-55.44c-0.77-10.46-0.78-20.74,1.2-31.07
				c1.84-9.6,4.14-19.26,2.93-29.08c-2.14-17.37-20.56-34.24-38.13-24.52c-8.45,4.67-0.89,17.63,7.57,12.95
				c4.01-2.22,8.34,0.47,11.18,3.48c4.46,4.73,5.07,10.82,4.67,17.08c-0.5,7.87-2.81,15.55-3.91,23.35
				c-1.17,8.29-1.23,16.59-0.71,24.93c0.93,14.96,3.45,29.98,1.79,44.98c-1.26,11.43-5.45,24.75-15.62,31.32
				c-9.32,6.03-22.53,7.04-30.07-2.14c-1.77,4.27-3.54,8.54-5.3,12.8c13.42,0.64,24.37-9.29,29.05-21.21
				c5.33-13.6,4.13-29.57,4.57-43.92c1.01-32.87,2.03-65.73,3.04-98.6C382.44,1441.79,367.44,1441.8,367.14,1451.44L367.14,1451.44z
				"/>
		</g>
	</g>
	<g>
		<path class="st3" d="M439.29,1461.76c0.2,47.21,0.41,94.42,0.61,141.62c9.83,6.63,20.54,13.52,32.39,13.14
			c11.85-0.38,23.88-11.93,19.97-23.12c-2-5.74-7.33-9.52-11.4-14.04c-13.5-14.99-12.78-37.79-9.25-57.66
			c3.54-19.87,9.03-40.66,2.53-59.76c-10.26-1-20.52-2-30.79-3"/>
		<g>
			<path class="st3" d="M431.79,1461.76c0.12,27.93,0.24,55.85,0.36,83.78c0.06,13.96,0.12,27.93,0.18,41.89
				c0.01,3.32,0.03,6.65,0.04,9.97c0.02,3.52-0.65,7.57,1.64,10.53c3.25,4.22,10.57,7.61,15.25,10c10.14,5.19,22.08,8.38,33.06,3.92
				c9.46-3.84,17.83-12.63,18.18-23.3c0.41-12.54-10.05-18.03-16.38-27.09c-5.91-8.46-7.34-18.97-7.18-29.06
				c0.44-27.77,13.32-54.76,4.44-82.46c-1.1-3.42-3.79-5.17-7.23-5.51c-10.26-1-20.52-2-30.79-3c-4.04-0.39-7.5,3.73-7.5,7.5
				c0,4.38,3.45,7.11,7.5,7.5c10.26,1,20.52,2,30.79,3c-2.41-1.84-4.82-3.67-7.23-5.51c5.91,18.41,0.7,37.38-2.53,55.77
				c-2.7,15.38-4.23,31.96,0.86,47.03c2.59,7.68,6.74,14.37,12.43,20.13c4.11,4.16,10.37,8.81,6.46,15.16
				c-9.56,15.55-30.2,1.76-40.45-5.13c1.24,2.16,2.48,4.32,3.71,6.48c-0.2-47.21-0.41-94.42-0.61-141.62
				C446.75,1452.11,431.75,1452.09,431.79,1461.76L431.79,1461.76z"/>
		</g>
	</g>
</g>
<g id="Ebene_5">
	<g>
		<path class="st3" d="M201.83,632.42c-1.4,27.53-2.8,55.06-4.21,82.6c-13.12-5.46-30.05,5.5-30.43,19.7
			c-0.39,14.2,15.92,26.07,29.32,21.33c8.09,81.42,77.73,152.53,158.97,162.31c-1.89,35.24,27.85,69.18,63.04,71.92
			c35.19,2.74,80.02-27.14,83.61-62.25c76.24-11.83,151.01-84.92,157.15-171.8c12.67,1.42,25.35-9.49,25.85-22.23
			c0.5-12.74-11.29-24.6-24.03-24.18c-3.36-33.4-13.73-63.82-17.09-97.21c-37.37-6.71-47-25.18-79.21-25.18
			c-47.25,0-59.42-41.54-53.21-73.14c-25.11,40.04-22.57,75.95-92.06,62.39c-38.13-7.44-195.8,24.9-215.15,58.59"/>
		<g>
			<path class="st3" d="M194.33,632.42c-1.4,27.53-2.8,55.06-4.21,82.6c3.16-2.41,6.33-4.82,9.49-7.23
				c-17.73-6.68-38.94,7.5-39.89,26.31c-0.99,19.58,20.49,34.93,38.77,29.18c-3.16-2.41-6.33-4.82-9.49-7.23
				c6.9,66.49,51.44,126.44,112,154.3c17.37,7.99,35.51,13.15,54.47,15.51c-2.5-2.5-5-5-7.5-7.5
				c-1.38,33.03,21.03,63.82,51.53,75.32c29.81,11.24,63.93-1.29,86.48-21.92c12.65-11.58,21.65-26.56,23.65-43.73
				c-1.84,2.41-3.67,4.82-5.51,7.23c65.89-10.53,123.38-61.02,148.87-121.69c7.69-18.3,12.3-37.55,13.79-57.34c-2.5,2.5-5,5-7.5,7.5
				c17.02,1.3,33.26-13.21,33.36-30.41c0.09-16.87-14.97-30.99-31.54-31c2.5,2.5,5,5,7.5,7.5c-3.44-32.81-13.66-64.43-17.09-97.21
				c-0.32-3.08-2.08-6.59-5.51-7.23c-13.81-2.58-26.17-7.66-38.69-13.83c-11.32-5.58-22.58-10.08-35.25-11.29
				c-6.81-0.65-13.58-0.13-20.3-1.66c-5.53-1.26-10.65-3.35-15.35-6.54c-7.88-5.35-13.19-13.89-15.98-22.87
				c-3.29-10.59-3.67-22.04-1.61-32.91c1.55-8.16-9.04-13.29-13.71-5.78c-6.6,10.61-11.73,21.95-17.48,33.03
				c-4.46,8.59-9.51,17.43-16.97,22.28c-19.68,12.81-44.48,2.16-66.49,2.29c-23.65,0.14-47.47,4.07-70.63,8.54
				c-26.72,5.15-53.32,11.75-78.97,20.88c-12.18,4.34-24.38,9.2-35.62,15.64c-7.97,4.57-16.26,10.24-21.04,18.31
				c-4.92,8.33,8.04,15.88,12.95,7.57c0.38-0.65,0.8-1.26,1.22-1.88c-0.43,0.62-0.26,0.22,0.69-0.77c1.26-1.3,2.53-2.55,3.9-3.72
				c1.64-1.4,1.36-1.15,3.66-2.72c1.89-1.29,3.85-2.49,5.83-3.64c9.32-5.39,19.3-9.55,29.39-13.25
				c25.65-9.4,52.33-16.12,79.11-21.41c22.69-4.48,45.95-8.37,69.13-8.55c3.87-0.03,7.71,0.13,11.57,0.46
				c2.25,0.19-0.79-0.19,0.95,0.12c1.54,0.28,3.07,0.58,4.61,0.85c4.77,0.85,9.59,1.54,14.42,2.01c13.25,1.3,27.2,0.54,39.24-5.65
				c10.86-5.58,18.29-15.64,24.04-26.11c6.67-12.16,12.1-24.91,19.44-36.71c-4.57-1.93-9.14-3.85-13.71-5.78
				c-4.34,22.84-0.74,49.04,16.36,66.1c9.59,9.57,22.25,14.52,35.54,16.05c7.22,0.83,14.47,0.22,21.62,1.74
				c5.96,1.27,11.62,3.41,17.12,6.01c15.39,7.27,30.11,14.49,47.02,17.64c-1.84-2.41-3.67-4.82-5.51-7.23
				c3.44,32.81,13.66,64.43,17.09,97.21c0.42,4.04,3.09,7.5,7.5,7.5c8.39,0.01,16.72,7.25,16.54,16
				c-0.2,9.51-9.39,16.09-18.36,15.41c-4.26-0.32-7.21,3.71-7.5,7.5c-4.79,63.69-48.06,121.03-104.39,149.3
				c-14.88,7.46-30.81,12.64-47.25,15.27c-3.49,0.56-5.15,4.19-5.51,7.23c-2.83,24.37-27.14,43.21-48.78,50.74
				c-11.76,4.09-24.23,5.62-36.38,2.37c-12.83-3.43-24.05-11.35-32.44-21.55c-9.52-11.57-14.68-26.27-14.05-41.24
				c0.18-4.41-3.61-7.01-7.5-7.5c-60.5-7.56-113.54-50.71-138.21-105.69c-6.94-15.47-11.51-32.25-13.26-49.12
				c-0.48-4.61-4.43-8.82-9.49-7.23c-8.89,2.8-20.92-4.57-19.78-14.72c1.08-9.66,12.37-15.06,20.9-11.85
				c4.82,1.82,9.27-2.79,9.49-7.23c1.4-27.53,2.8-55.06,4.21-82.6C209.82,622.77,194.82,622.8,194.33,632.42L194.33,632.42z"/>
		</g>
	</g>
</g>
<g id="Ebene_17">
	<g>
		<path class="st1" d="M301.02,929.95c-18.2,40.86-52.16,72.18-78.83,108.09s-46.69,82.85-31.1,124.78
			c16.37,44.01,65.83,67.01,88.88,107.92c8.41-21.89,16.81-43.77,25.22-65.66c-37.31-0.91-67.47-42.91-56.42-78.55
			c5.88-18.97,20.52-33.73,30.97-50.62c25.81-41.77,24.85-94.12,23.06-143.19"/>
		<g>
			<path class="st2" d="M294.54,926.17c-24.11,53.4-73.67,89.5-99.65,141.74c-12.69,25.52-20.29,54.28-14.95,82.77
				c4.71,25.08,20.42,45.54,38.07,63.17c19.36,19.34,41.7,36.58,55.49,60.68c3.45,6.03,11.5,3.96,13.71-1.79
				c8.41-21.89,16.81-43.77,25.22-65.66c1.83-4.77-2.79-9.33-7.23-9.49c-33.43-1.25-59.37-39.02-48.67-70.63
				c7.05-20.85,24.61-36.57,34.62-55.95c10.04-19.44,15.21-40.67,17.8-62.29c3.02-25.21,2.29-50.68,1.37-76
				c-0.35-9.62-15.35-9.67-15,0c1.65,45.66,3.51,95.65-20.32,136.54c-11.43,19.62-29.27,36.25-34.46,59.08
				c-4.2,18.5,0.63,38.35,11.47,53.75c12.37,17.57,31.43,29.68,53.2,30.5c-2.41-3.16-4.82-6.33-7.23-9.49
				c-8.41,21.89-16.81,43.77-25.22,65.66c4.57-0.6,9.14-1.19,13.71-1.79c-11.93-20.84-29.81-37.03-47.08-53.33
				c-16.51-15.59-33.92-32.39-41.61-54.35c-19.33-55.25,22.31-108.45,55.62-148.03c20.3-24.13,41.03-48.52,54.11-77.5
				c1.68-3.72,1.04-8.03-2.69-10.26C301.61,921.56,296.21,922.48,294.54,926.17L294.54,926.17z"/>
		</g>
	</g>
	<g>
		<path class="st1" d="M558.16,952.23c-14.25,46.8-4.74,100.18,24.79,139.18c9.87,13.03,22.22,25.36,25.33,41.4
			c4.79,24.71-19.37,50.42-44.33,47.19c3.68,24.94,7.36,49.87,11.04,74.81c24.03-16.19,48.38-32.66,67.21-54.69
			c18.83-22.02,31.79-50.68,28.79-79.5c-2.42-23.27-14.77-44.22-27.66-63.75c-26.1-39.56-55.64-76.85-88.18-111.32"/>
		<g>
			<path class="st2" d="M550.93,950.24c-10.26,34.36-8.77,72.15,4.06,105.64c6.53,17.05,15.71,32.25,27.08,46.48
				c9.66,12.08,22.66,26.68,18.54,43.43c-4.01,16.33-19.76,28.54-36.66,26.71c-5.38-0.58-7.86,5.23-7.23,9.49
				c3.68,24.94,7.36,49.87,11.04,74.81c0.69,4.68,7.34,6.96,11.02,4.48c40.98-27.62,85.97-59.43,97.63-110.68
				c5.83-25.64,0.06-50.41-11.99-73.34c-12.33-23.46-28.5-45.29-44.42-66.4c-18.55-24.6-38.41-48.18-59.53-70.6
				c-6.63-7.04-17.23,3.58-10.61,10.61c34.76,36.9,66.98,77.02,93.67,120.19c12.41,20.08,22.41,41.97,20,66.14
				c-2.24,22.5-14.07,43.62-28.91,60.25c-18.18,20.38-40.91,35.74-63.41,50.9c3.67,1.49,7.34,2.99,11.02,4.48
				c-3.68-24.94-7.36-49.87-11.04-74.81c-2.41,3.16-4.82,6.33-7.23,9.49c17.44,1.89,33.86-7.74,43.74-21.66
				c10.77-15.18,10.78-33.77,2.3-49.95c-4.48-8.55-10.82-16.01-16.82-23.51c-5.76-7.19-10.99-14.71-15.44-22.78
				c-8.96-16.26-14.84-34.32-17.3-52.73c-2.81-20.99-1.09-42.37,4.96-62.64C568.16,944.96,553.69,941,550.93,950.24L550.93,950.24z"
				/>
		</g>
	</g>
</g>
<g id="Ebene_3">
	<g>
		<g>
			<path d="M192.47,628.7c-6.23,66.65-11.75,136.01,15.64,199c11.69,26.89,29.4,51.04,52.92,68.72
				c23.77,17.87,52.59,27.81,81.63,33.05c29.65,5.35,59.83,6.46,89.88,7.18c30.53,0.73,61.18,0.95,91.44-3.75
				c29.22-4.54,57.71-14.53,81.24-32.81c22.48-17.46,38.92-41.36,49.88-67.45c26.11-62.17,18.27-130.64,6.21-195.1
				c-1.68-8.98-3.45-17.95-5.21-26.92c-1.87-9.46-16.33-5.46-14.46,3.99c12.38,62.8,25.47,129.18,6.85,192.12
				c-7.54,25.5-20.09,49.9-38.65,69.15c-19.25,19.96-44.05,32.32-70.8,38.82c-28.08,6.82-57.23,7.63-85.99,7.34
				c-28.59-0.29-57.37-0.84-85.81-4.03c-27.74-3.11-55.86-9.39-80.52-22.88c-24.51-13.41-43.73-33.7-57.27-58.02
				c-31.02-55.73-29.48-121.51-24.25-183.15c0.72-8.42,1.5-16.84,2.29-25.25C208.36,619.1,193.36,619.16,192.47,628.7L192.47,628.7z
				"/>
		</g>
	</g>
	<g>
		<g>
			<path d="M191.53,704.05c-17.56-0.55-33.55,13.98-34.23,31.64c-0.7,17.88,14.98,32.84,32.28,33.65c9.65,0.45,9.63-14.55,0-15
				c-9.3-0.43-17.83-9.16-17.28-18.65c0.56-9.7,9.91-16.93,19.23-16.64C201.19,719.35,201.18,704.35,191.53,704.05L191.53,704.05z"
				/>
		</g>
	</g>
	<g>
		<g>
			<path d="M670.16,719.16c7.87,0.58,14.87,7.73,15.15,15.65c0.28,7.78-6.54,15.6-14.29,16.46c-4.03,0.44-7.5,3.13-7.5,7.5
				c0,3.71,3.45,7.95,7.5,7.5c15.83-1.74,29.59-14.86,29.29-31.46c-0.3-16.48-14.16-29.47-30.15-30.65
				C660.53,703.45,660.58,718.46,670.16,719.16L670.16,719.16z"/>
		</g>
	</g>
	<g>
		<g>
			<path d="M203.75,635.18c61.94-34.59,132.36-55.73,203.47-57.46c19.76-0.48,39.61,0.52,59.19,3.36c4.04,0.59,8.01-1,9.23-5.24
				c1.01-3.52-1.23-8.64-5.24-9.23c-73.42-10.66-149,1.18-217.6,28.66c-19.43,7.78-38.34,16.74-56.62,26.95
				C187.75,626.94,195.31,639.9,203.75,635.18L203.75,635.18z"/>
		</g>
	</g>
	<g>
		<g>
			<path d="M474.88,577.64c13.12-21.77,28.03-42.39,41.15-64.16c5-8.29-7.97-15.84-12.95-7.57c-13.12,21.77-28.03,42.39-41.15,64.16
				C456.93,578.35,469.89,585.9,474.88,577.64L474.88,577.64z"/>
		</g>
	</g>
	<g>
		<g>
			<path d="M505.27,513.17c7.41,22.97,14.79,45.99,20.32,69.51c2.21,9.39,16.68,5.42,14.46-3.99
				c-5.53-23.51-12.91-46.53-20.32-69.51C516.79,500.03,502.3,503.94,505.27,513.17L505.27,513.17z"/>
		</g>
	</g>
	<g>
		<g>
			<path d="M532.83,588.18c39.28-2.45,80.19,7.66,112.23,30.91c3.3,2.4,8.33,0.54,10.26-2.69c2.25-3.76,0.57-7.9-2.69-10.26
				c-33.94-24.62-78.22-35.55-119.81-32.96C523.24,573.78,523.17,588.78,532.83,588.18L532.83,588.18z"/>
		</g>
	</g>
	<g>
		<g>
			<path d="M514.5,444.6c-70.56-21.4-148.22-15.96-215.82,13.04c-61.31,26.31-116.04,74.68-136.26,139.83
				c-11.74,37.84-10.08,78.37,1.51,116.03c2.83,9.2,17.31,5.28,14.46-3.99c-9.8-31.87-12.31-65.7-4.24-98.24
				c7.33-29.56,22.67-56.57,43.12-79.02c44.58-48.93,110.09-77.07,175.26-83.96c39.64-4.19,79.8-0.82,117.98,10.77
				C519.77,461.87,523.73,447.39,514.5,444.6L514.5,444.6z"/>
		</g>
	</g>
	<g>
		<g>
			<path d="M174.3,760.31c-0.91,20.67,3.33,44.7,26.02,51.29c9.29,2.7,13.25-11.77,3.99-14.46c-15.36-4.46-15.59-23.62-15-36.83
				C189.73,750.66,174.72,750.68,174.3,760.31L174.3,760.31z"/>
		</g>
	</g>
	<g>
		<g>
			<path d="M514.5,459.06c17.17-5.05,35.36-2.13,52.33,5.19c20.72,8.93,38.89,23.24,54.62,39.22
				c36.18,36.78,62.46,85.43,71.05,136.46c4.73,28.09,3.06,57.16-6.92,83.95c-3.37,9.06,11.12,12.97,14.46,3.99
				c19.64-52.76,8.11-111.83-15.95-161.09c-22.3-45.66-58.28-90.58-104.78-113.21c-21.26-10.35-45.61-15.8-68.81-8.98
				C501.27,447.31,505.2,461.79,514.5,459.06L514.5,459.06z"/>
		</g>
	</g>
	<g>
		<g>
			<path d="M679.65,750.1c-1.4,12.41-7.72,30.07-19.18,36.59c-8.39,4.77-0.84,17.73,7.57,12.95c16.43-9.34,24.6-31.75,26.61-49.54
				c0.46-4.03-3.77-7.5-7.5-7.5C682.71,742.6,680.1,746.05,679.65,750.1L679.65,750.1z"/>
		</g>
	</g>
	<g>
		<g>
			<path d="M345.33,931.08c3.21,31.86,25.34,59.02,55.19,70.13c29.85,11.11,63.44,0.94,84.89-21.89
				c12.29-13.07,19.93-29.29,22-47.09c0.47-4.03-3.78-7.5-7.5-7.5c-4.44,0-7.03,3.46-7.5,7.5c-2.91,24.94-22.36,47.04-45.83,55.11
				c-24.62,8.46-50.75,0.21-68.35-18.44c-9.7-10.29-16.48-23.66-17.91-37.82c-0.41-4.03-3.16-7.5-7.5-7.5
				C349.09,923.58,344.92,927.03,345.33,931.08L345.33,931.08z"/>
		</g>
	</g>
	<g>
		<g>
			<path d="M303.47,919.87c-15.56,125.61-31.12,251.22-46.68,376.82c-4.42,35.7-8.85,71.4-13.27,107.1c-0.5,4.03,3.8,7.5,7.5,7.5
				c4.47,0,7-3.46,7.5-7.5c15.56-125.61,31.12-251.22,46.68-376.82c4.42-35.7,8.85-71.4,13.27-107.1c0.5-4.03-3.8-7.5-7.5-7.5
				C306.5,912.37,303.97,915.84,303.47,919.87L303.47,919.87z"/>
		</g>
	</g>
	<g>
		<g>
			<path d="M537.11,930.83c4.57,128.09,18.28,255.84,41,381.99c6.46,35.85,13.66,71.57,21.57,107.13
				c2.09,9.42,16.56,5.43,14.46-3.99c-27.67-124.46-46.48-250.83-56.09-377.96c-2.7-35.68-4.67-71.41-5.94-107.16
				C551.76,921.2,536.76,921.16,537.11,930.83L537.11,930.83z"/>
		</g>
	</g>
	<g>
		<g>
			<path d="M247.24,1410.27c87.43,43.79,188.7,61.85,285.01,40.96c27.1-5.88,53.38-14.98,78.45-26.81
				c8.72-4.12,1.12-17.05-7.57-12.95c-85.29,40.25-183.68,42.27-273.27,15.63c-25.86-7.69-50.93-17.7-75.05-29.78
				C246.2,1393.01,238.59,1405.94,247.24,1410.27L247.24,1410.27z"/>
		</g>
	</g>
	<g>
		<g>
			<path d="M363.68,1448.21c-1.93,48.06-3.51,96.14-3.28,144.24c1.84-2.41,3.67-4.82,5.51-7.23c-10.7,3.54-22.38,9.82-27.04,20.71
				c-3.54,8.27-1.55,18.84,8.05,21.45c8.27,2.25,17.86-0.28,25.91-2.29c11.75-2.93,23.24-6.8,34.78-10.45
				c3.26-1.03,5.38-3.83,5.51-7.23c1.86-51.63,2.79-103.29,4.66-154.92c0.35-9.65-14.65-9.64-15,0
				c-1.86,51.63-2.79,103.29-4.66,154.92c1.84-2.41,3.67-4.82,5.51-7.23c-15.08,4.77-30.82,11.19-46.66,12.8
				c-1.83,0.19-5.65-0.21-6.05-0.06c-1.03,0.38-0.22-0.77-0.02,0.01c0.01,0.03,1.04,1.12,1.07,1.13c0.89,0.32-0.25,0.86,0.24-1.01
				c1.88-7.19,11.37-11.27,17.7-13.37c3.14-1.04,5.52-3.82,5.51-7.23c-0.23-48.1,1.35-96.19,3.28-144.24
				C379.07,1438.56,364.07,1438.57,363.68,1448.21L363.68,1448.21z"/>
		</g>
	</g>
	<g>
		<g>
			<path d="M429.22,1458.72c-3.1,50.73-5.33,101.85,0,152.51c0.47,4.45,3.09,6.93,7.5,7.5c11.54,1.49,23.05,3.21,34.61,4.49
				c7.14,0.79,14.47,1.59,21.64,0.74c5.81-0.68,11.77-2.54,15.02-7.83c3.86-6.3-0.26-12.1-4.25-16.98
				c-5.99-7.33-12.58-14.28-18.97-21.26c-1.04-1.13-2.08-2.98-1.24-0.85c-0.26-0.66-0.41-1.37-0.57-2.06
				c-0.11-0.51-0.5-3.24-0.27-1.43c-0.15-1.19-0.25-2.39-0.34-3.58c-1.21-15.69-0.49-31.6-0.01-47.3
				c0.65-21.4,1.69-42.78,2.48-64.17c0.36-9.65-14.64-9.64-15,0c-1.26,34.12-3.77,68.38-2.89,102.54
				c0.14,5.45,0.37,10.96,1.28,16.34c1,5.92,4.41,9.39,8.37,13.85c5.54,6.26,12.32,12.73,17.05,19.13c-0.06-0.08,1.04,2,1.37,2.15
				c-0.77-0.36-0.05-3.72,0.17-4.18c0.11-0.22,0.9-0.35,0.32-0.32c0.03,0-1.75,0.86-0.68,0.4c0.9-0.38-1.03,0.27-1.27,0.33
				c-1.92,0.46-1.1,0.35-3.06,0.45c-1.59,0.08-3.17,0.12-4.76,0.09c-4.36-0.07-8.71-0.47-13.04-0.93
				c-12.02-1.28-23.98-3.09-35.97-4.64c2.5,2.5,5,5,7.5,7.5c-5.33-50.66-3.1-101.78,0-152.51
				C444.81,1449.08,429.81,1449.12,429.22,1458.72L429.22,1458.72z"/>
		</g>
	</g>
	<g>
		<g>
			<path d="M365.89,1579.45c-21.96,5.41-47.54,10.46-65.05,25.72c-9.1,7.93-12.32,19.95-5.57,30.54
				c8.07,12.67,23.33,13.36,37.04,13.61c25.99,0.47,52.02-2.47,77.96-3.57c5.27-0.22,8.02-4.59,7.23-9.49
				c-1.46-9.04-2.92-18.09-4.38-27.13c-0.64-3.99-5.63-6.25-9.23-5.24c-4.25,1.19-5.89,5.2-5.24,9.23
				c1.46,9.04,2.92,18.09,4.38,27.13c2.41-3.16,4.82-6.33,7.23-9.49c-21.31,0.91-42.58,2.76-63.9,3.42
				c-8.06,0.25-16.18,0.38-24.22-0.37c-2.58-0.24-5.15-0.64-7.65-1.33c-0.51-0.14-3.14-1.08-2.43-0.75
				c-1.03-0.48-2.02-1.22-1.57-0.83c-1.46-1.28-2.63-3.02-3.47-4.86c-0.35-0.77-0.79-1.8-0.53-3.52c-0.27,1.82,0.32-0.99,0.46-1.4
				c0.37-1.07-0.52,1.04,0.01,0.01c0.25-0.49,0.51-0.99,0.83-1.44c0.78-1.1,1.78-2.26,3.66-3.91c6.85-5.99,18.2-10.27,27.56-13.39
				c10.14-3.38,20.5-5.92,30.87-8.47C379.24,1591.61,375.28,1577.14,365.89,1579.45L365.89,1579.45z"/>
		</g>
	</g>
	<g>
		<g>
			<path d="M476.82,1587.54c17.07,4.6,33.67,10.71,49.52,18.57c6.25,3.1,15.1,6.32,19.79,11.75c3.4,3.93,0.33,6.61-3.58,8.35
				c-5.68,2.53-11.98,2.56-18.06,2.7c-9.06,0.21-18.13,0.21-27.19,0.01c-18.77-0.42-37.51-1.77-56.16-3.95
				c2.41,1.84,4.82,3.67,7.23,5.51c-1.48-7.12-2.95-14.25-4.43-21.37c-1.96-9.45-16.42-5.45-14.46,3.99
				c1.48,7.12,2.95,14.25,4.43,21.37c0.72,3.49,4.07,5.14,7.23,5.51c17.04,1.99,34.16,3.29,51.31,3.82
				c8.41,0.26,16.83,0.34,25.24,0.24c7.38-0.09,14.86,0.03,22.13-1.42c11.04-2.19,23.35-9.3,22.91-22.07
				c-0.53-15.31-18.86-22.55-30.47-28.21c-16.5-8.04-33.74-14.5-51.46-19.28C471.48,1570.56,467.5,1585.03,476.82,1587.54
				L476.82,1587.54z"/>
		</g>
	</g>
	<g>
		<g>
			<path d="M187.53,523.44c2.66,3.65,5.31,7.31,7.97,10.96c2.3,3.16,6.62,5.04,10.26,2.69c3.14-2.02,5.16-6.87,2.69-10.26
				c-2.66-3.65-5.31-7.31-7.97-10.96c-2.3-3.16-6.62-5.04-10.26-2.69C187.08,515.2,185.06,520.05,187.53,523.44L187.53,523.44z"/>
		</g>
	</g>
	<g>
		<g>
			<path d="M200.3,514.99c22.61-21.23,45.22-42.46,67.82-63.68c-3.93-0.51-7.85-1.01-11.78-1.52c5.62,8.61,11.24,17.22,16.86,25.82
				c5.26,8.05,18.25,0.54,12.95-7.57c-5.62-8.61-11.24-17.22-16.86-25.82c-2.69-4.12-8.13-4.94-11.78-1.52
				c-22.61,21.23-45.22,42.46-67.82,63.68C182.64,511.01,193.27,521.6,200.3,514.99L200.3,514.99z"/>
		</g>
	</g>
	<g>
		<g>
			<path d="M635.19,501.21c7.61-4.54,15.22-9.07,22.83-13.61c-3.42-0.9-6.84-1.79-10.26-2.69c14.5,23.89,28.99,47.78,43.49,71.67
				c0.39-3.03,0.78-6.06,1.17-9.09c-5.84,4.9-11.68,9.79-17.51,14.69c-7.41,6.21,3.25,16.77,10.61,10.61
				c5.84-4.9,11.68-9.79,17.51-14.69c2.48-2.08,2.78-6.43,1.17-9.09c-14.5-23.89-28.99-47.78-43.49-71.67
				c-2.09-3.44-6.73-4.8-10.26-2.69c-7.61,4.54-15.22,9.07-22.83,13.61C619.33,493.2,626.87,506.17,635.19,501.21L635.19,501.21z"/>
		</g>
	</g>
	<g>
		<g>
			<path d="M273.92,443.03c10.42-28.15-2.97-60.19-27.1-76.55c-26.2-17.76-60.76-16.49-88.61-3.6
				c-51.95,24.03-101.49,99.17-56.8,151.35c20.94,24.46,56.56,24.57,83.33,10.19c14.05-7.55,25.55-19.1,35.15-31.67
				c9.82-12.85,18.65-27.27,24.89-42.21c6.41-15.35,7.8-32.75-3.24-46.34c-9.19-11.32-24.51-16.9-38.85-15.99
				c-16.37,1.05-31.76,8.66-44.65,18.47c-11.69,8.89-22,20.45-25.92,34.92c-3.53,13.03-0.59,27.45,7.94,37.94
				c9.34,11.48,24.58,14.85,38.25,9.52c13.45-5.24,28.94-17.79,32.68-32.36c3.55-13.83-6.91-31.15-22.71-26.03
				c-6.7,2.17-11.35,7.97-11.45,15.06c-0.14,9.66,14.86,9.66,15,0c0.03-2.37,3.6,0,4.18,1.07c2.34,4.33-0.5,9.5-3.16,12.95
				c-6.5,8.42-18.19,18-29.55,16.85c-9.17-0.93-14.93-9.15-16.94-17.49c-2.42-10.02,1.5-20.05,7.62-27.97
				c7.28-9.41,17.65-16.66,28.21-21.91c10.7-5.32,23.16-8.18,34.78-4.27c10.31,3.47,18.05,12.03,17.99,23.23
				c-0.06,13.04-7.93,25.53-14.32,36.4c-12.21,20.78-28.34,42.09-51.81,50.67c-21.59,7.89-46.54,4.49-59.91-15.8
				c-28.52-43.27,10.18-97.28,48.23-119.15c23.13-13.3,52.7-17.34,76.84-4.09c21.97,12.07,34.42,38.69,25.48,62.83
				C256.1,448.11,270.59,452.02,273.92,443.03L273.92,443.03z"/>
		</g>
	</g>
	<g>
		<g>
			<path d="M654.16,491.43c19.01,22.56,24.35,54.36,47.41,73.9c10.37,8.79,23.23,15.47,37.08,15.7
				c13.73,0.23,26.01-6.83,33.77-17.95c7.63-10.94,10.34-24.69,11.55-37.73c1.59-17.24,0.89-34.65-1.46-51.78
				c-4.2-30.64-13.39-66.13-38.63-86.39c-11.11-8.92-24.89-14.96-39.35-14.53c-13.41,0.4-25.83,6.15-35.8,14.93
				c-21.62,19.03-28.13,48.94-21.1,76.18c3.74,14.52,10.86,28.19,19.66,40.26c8.71,11.95,19.22,25.08,32.89,31.52
				c12.7,5.99,27.65,4.59,37.28-6.28c8.28-9.35,11.61-21.91,13.25-34.02c2.11-15.65,3.09-32.34-3.25-47.18
				c-5.37-12.55-16.85-23.12-30.7-24.93c-14.34-1.87-27.66,7.02-32.87,20.27c-5.33,13.56,0.43,28.14,12.13,36.19
				c5.52,3.79,12.33,5.67,19,5.28c9.6-0.55,9.66-15.55,0-15c-9.55,0.55-19.66-7.41-18.13-17.73c1.37-9.19,10.5-16.02,19.63-13.89
				c11.11,2.58,17.55,13.53,19.72,23.93c2.35,11.25,1.15,24.02-0.96,35.24c-1.56,8.3-4.13,18.64-11.28,24.01
				c-9.27,6.95-20.47-0.11-27.65-6.69c-17.44-15.98-31.85-38.45-35.76-62.01c-3.48-20.97,3.84-43.3,21.03-56.44
				c18.5-14.15,41.8-9.1,57.51,6.73c18.42,18.56,25.19,47.59,28.68,72.65c1.93,13.84,2.44,27.91,1.73,41.86
				c-0.55,10.79-1.71,22.28-6.58,32.11c-4.92,9.93-13.51,16.79-24.97,16.38c-11.49-0.41-22.31-7.43-30.18-15.35
				c-9.29-9.34-15.07-21.61-20.85-33.28c-6.38-12.88-12.86-25.51-22.18-36.57C658.54,473.43,647.97,484.08,654.16,491.43
				L654.16,491.43z"/>
		</g>
	</g>
</g>
<g id="Ebene_10">
</g>
<g id="Ebene_4">
</g>
<g id="Ebene_11">
	<g class="st4">
		<path d="M500.18,456.38c-131.67,7.51-342.47,63.42-320.23,258.6c-29.64-78.04,11.67-170.52,80.26-218.12
			s157.41-57.04,240.34-47.46"/>
		<g>
			<path d="M500.18,448.88c-59.69,3.45-120.11,14.52-175.58,37.32c-55.96,23.01-109.44,59.86-135.66,116.22
				c-16.37,35.19-20.76,74.2-16.49,112.56c4.91-0.66,9.82-1.33,14.73-1.99c-21.12-56.47-4.22-119.23,31.4-165.97
				c39.94-52.39,102.72-79.88,166.56-89.41c38.14-5.69,77.18-5.07,115.41-0.71c4.03,0.46,7.5-3.78,7.5-7.5c0-4.44-3.46-7.04-7.5-7.5
				c-70.51-8.03-144.78-2.76-209.5,28.36c-58.66,28.21-105.12,79.96-122,143.44c-9.01,33.89-8.69,70.26,3.66,103.27
				c1.32,3.53,4.32,5.9,8.23,5.37c3.35-0.45,6.92-3.65,6.5-7.37c-3.65-32.8-1.17-66.03,10.97-96.93
				c10.44-26.57,28.1-49.74,49.34-68.61c44.38-39.42,103.01-60.62,160.21-73.07c30.35-6.61,61.21-10.7,92.21-12.49
				C509.77,463.33,509.83,448.33,500.18,448.88L500.18,448.88z"/>
		</g>
	</g>
	<g class="st4">
		<path d="M188.08,767.1c4.05,9.13,8.11,18.27,12.16,27.4c-7.6-4.67-11.51-14.61-9.14-23.21"/>
		<g>
			<path d="M181.61,770.89c4.05,9.13,8.11,18.27,12.16,27.4c3.42-3.42,6.84-6.84,10.26-10.26c-4.8-3.2-7.01-9.16-5.7-14.74
				c2.21-9.39-12.25-13.39-14.46-3.99c-2.92,12.38,2.05,24.64,12.59,31.68c6.89,4.6,13-4.09,10.26-10.26
				c-4.05-9.13-8.11-18.27-12.16-27.4c-1.66-3.73-7.02-4.53-10.26-2.69C180.46,762.81,179.98,767.21,181.61,770.89L181.61,770.89z"
				/>
		</g>
	</g>
	<g class="st4">
		<path d="M208.75,637.55c34.75,286.05,216.53,294.57,391.93,254.67c-60.78,21.22-123.53,40.47-187.91,40.23
			c-64.38-0.24-131.45-22.58-172.49-72.18c-51.45-62.18-51.87-152.6-32.73-231"/>
		<g>
			<path d="M201.25,637.55c5.91,48.14,16.29,96.07,36.6,140.33c15.08,32.85,36.26,63.43,64.23,86.6
				c24.84,20.57,54.03,34.95,85.2,43.08c31.81,8.29,65.06,10.45,97.81,9.05c35.2-1.5,70.21-6.98,104.64-14.31
				c4.32-0.92,8.63-1.87,12.93-2.85c-1.33-4.82-2.66-9.64-3.99-14.46c-81.28,28.34-169.83,54.46-255.6,30.47
				c-35.97-10.06-69.76-28.68-94.53-57c-24.31-27.78-37.64-63.43-42.67-99.67c-5.89-42.46-1.15-86.08,8.89-127.53
				c2.27-9.38-12.19-13.38-14.46-3.99c-18.17,75.02-20.4,163.81,27.36,228.91c49.38,67.31,137.41,89.55,217.14,82.34
				c54.31-4.91,106.61-21.2,157.85-39.07c9.07-3.16,5.51-16.62-3.99-14.46c-63.06,14.31-130.71,24.28-194.57,11.1
				c-29.87-6.17-57.96-17.52-82.73-35.47c-27.05-19.59-48.03-46.48-63.5-75.9c-23.84-45.34-35.44-96.65-41.64-147.17
				c-0.49-4.02-3.09-7.5-7.5-7.5C205.08,630.05,200.76,633.5,201.25,637.55L201.25,637.55z"/>
		</g>
	</g>
	<g class="st4">
		<path d="M181.02,725.83c-0.98,9.71,2.62,19.78,9.54,26.66c-10.64-2.72-17.95-14.7-15.5-25.41"/>
		<g>
			<path d="M173.52,725.83c-0.91,11.9,3.53,23.38,11.73,31.96c2.43-4.18,4.86-8.36,7.3-12.54c-6.7-1.97-11.61-9.15-10.26-16.18
				c1.81-9.43-12.64-13.47-14.46-3.99c-2.91,15.14,5.76,30.23,20.74,34.63c7.35,2.16,12.36-7.24,7.3-12.54
				c-5.64-5.89-7.96-13.29-7.34-21.36C189.25,716.2,174.25,716.25,173.52,725.83L173.52,725.83z"/>
		</g>
	</g>
	<g class="st4">
		<path d="M673.52,728.61c-0.97,9.47,1.79,19.28,7.57,26.84c-5.57-7.6-7.8-17.56-6.02-26.81"/>
		<g>
			<path d="M666.02,728.61c-0.88,10.86,2.17,21.82,8.59,30.63c5.6,7.68,18.52,0.43,12.95-7.57c-4.32-6.2-6.54-13.45-5.26-21.03
				c1.59-9.44-12.87-13.5-14.46-3.99c-1.93,11.47,0.06,22.94,6.78,32.59c4.32-2.52,8.63-5.05,12.95-7.57
				c-5.07-6.94-7.24-14.48-6.54-23.06C681.79,718.98,666.79,719.03,666.02,728.61L666.02,728.61z"/>
		</g>
	</g>
	<g class="st4">
		<path d="M317.62,928.78c-50.94,206.73,53,458.23,284.7,487.83c-112.87,39.13-243.56,51.05-347.31-27.05
			c28.5-151.92,46.43-305.82,53.62-460.22"/>
		<g>
			<path d="M310.39,926.78c-10.12,41.33-14.31,84.14-12.58,126.64c1.72,42.36,9.11,84.65,22.4,124.92
				c13.02,39.48,31.61,77.32,56.11,110.97c24.38,33.5,54.25,62.78,89.01,85.42c36.12,23.54,77.16,39.37,119.61,46.78
				c5.77,1.01,11.57,1.84,17.38,2.59c-0.66-4.91-1.33-9.82-1.99-14.73c-86.17,29.76-182.73,44.19-270.49,12.43
				c-25.49-9.22-49.35-22.5-71.04-38.72c1.15,2.82,2.3,5.65,3.45,8.47c22.3-119.11,38.23-239.42,47.57-360.24
				c2.63-33.96,4.72-67.95,6.32-101.97c0.45-9.65-14.55-9.63-15,0c-5.61,119.71-17.58,239.12-36.05,357.54
				c-5.25,33.65-11.03,67.22-17.3,100.69c-0.68,3.64,0.57,6.31,3.45,8.47c39.21,29.34,85.46,47.95,133.88,54.94
				c47.17,6.8,95.04,3.66,141.64-5.73c26.32-5.3,52.2-12.64,77.57-21.4c8.41-2.9,6.23-13.67-1.99-14.73
				c-82.14-10.66-155.67-53.67-206.57-118.76c-49.41-63.18-76.39-143-82.12-222.55c-3.31-45.94,0.27-92.28,11.23-137.04
				C327.15,921.4,312.69,917.4,310.39,926.78L310.39,926.78z"/>
		</g>
	</g>
	<g class="st4">
		<path d="M366.63,937.89c-0.24,12.69-11.44,33.62,0.58,29.53c39.9-13.58,88.08-15.75,134.46-31.54
			c-44.49-0.05-104.36-4.75-148.85-4.8"/>
		<g>
			<path d="M359.13,937.89c-0.4,9.7-8.72,23.02-3.54,32.34c3.26,5.85,9.57,5.7,15.17,3.9c8.28-2.67,16.65-4.94,25.13-6.88
				c35.93-8.23,72.7-12.33,107.77-24.13c7.82-2.63,6.77-14.71-1.99-14.73c-49.66-0.12-99.19-4.69-148.85-4.8
				c-9.65-0.02-9.67,14.98,0,15c49.66,0.12,99.19,4.69,148.85,4.8c-0.66-4.91-1.33-9.82-1.99-14.73
				c-31.2,10.5-63.76,15.04-95.9,21.58c-7.58,1.54-15.14,3.21-22.62,5.19c-3.24,0.85-6.46,1.76-9.66,2.74
				c-1.51,0.46-5.17,0.94-6.28,2.03c-1.02,1-1.34-0.8,1.62,0.91c1.56,0.86,2.34,2.04,2.34,3.54c-0.01-0.24-0.01-0.49-0.02-0.73
				c0.32-0.56,0.19-1.91,0.29-2.46c0.42-2.21,1.02-4.4,1.58-6.58c1.43-5.58,2.86-11.19,3.1-16.98
				C374.53,928.24,359.53,928.26,359.13,937.89L359.13,937.89z"/>
		</g>
	</g>
	<g class="st4">
		<path d="M517.89,514.17c11.1,29.41,32.95,54.63,60.48,69.8c-16.39,3.63-33.28-6.88-42.35-21c-9.07-14.12-12.02-31.19-14.77-47.75"
			/>
		<g>
			<path d="M510.66,516.16c12.06,31.39,34.51,57.85,63.93,74.28c0.6-4.57,1.19-9.14,1.79-13.71c-13.23,2.6-26.41-6.31-33.47-16.94
				c-9.14-13.75-11.76-30.6-14.42-46.58c-1.58-9.5-16.04-5.47-14.46,3.99c3.24,19.41,7.06,39.57,19.74,55.29
				c11.22,13.89,28.75,22.2,46.6,18.7c6.41-1.26,7.18-10.7,1.79-13.71c-25.84-14.44-46.39-37.61-57.04-65.32
				C521.69,503.25,507.19,507.13,510.66,516.16L510.66,516.16z"/>
		</g>
	</g>
	<g class="st4">
		<path d="M127.21,402.68c-26.74,46.87,8.39,105.33,61.92,104.3c-19.01,22.05-58.51,16.94-75.78-6.5
			c-17.27-23.44-13.7-57.97,3.3-81.6"/>
		<g>
			<path d="M120.73,398.9c-13.52,24.22-13.4,53.77,0.86,77.68c14.17,23.76,39.91,38.18,67.54,37.9c-1.77-4.27-3.54-8.54-5.3-12.8
				c-15.77,17.69-45.34,14.42-61.08-1.7c-20.35-20.84-15.01-55.46,0.39-77.32c5.57-7.91-7.43-15.41-12.95-7.57
				c-15.9,22.57-20.8,53.37-9.28,78.9c10.06,22.29,34.13,36.01,58.44,34.47c13.33-0.84,26.11-6.09,35.09-16.17
				c4.19-4.7,1.49-12.87-5.3-12.8c-22.41,0.22-43.08-11.16-54.59-30.47c-11.52-19.31-11.81-42.93-0.86-62.54
				C138.39,398.03,125.44,390.46,120.73,398.9L120.73,398.9z"/>
		</g>
	</g>
	<g class="st4">
		<path d="M711.3,384.59c-41.89,29.05-54.28,93.03-26.28,135.62c-11.96-22.53-24.21-46.07-25.03-71.56
			c-0.82-25.49,13.52-53.41,38.33-59.34"/>
		<g>
			<path d="M707.52,378.11c-45.16,31.85-59.18,99.14-28.97,145.89c5.24,8.1,17.5,0.99,12.95-7.57
				c-12.19-22.97-25.98-48.3-23.82-75.2c1.54-19.25,12.95-39.64,32.64-44.69c9.34-2.4,5.38-16.87-3.99-14.46
				c-24.89,6.38-39.95,30.44-43.16,54.77c-4.1,31.07,11.29,60.6,25.38,87.15c4.32-2.52,8.63-5.05,12.95-7.57
				c-25.51-39.47-15.14-98.05,23.59-125.36C722.92,385.55,715.43,372.53,707.52,378.11L707.52,378.11z"/>
		</g>
	</g>
	<g class="st4">
		<path d="M310.33,1619.55c30.27,16.16,66.45,20.93,99.86,13.16c-25.58,6.13-52.24,5.83-78.51,4.45
			c-7.13-0.38-14.69-0.98-20.43-5.23s-8.32-13.5-3.3-18.58"/>
		<g>
			<path d="M306.54,1626.03c32.42,17.05,69.92,21.99,105.64,13.91c-1.33-4.82-2.66-9.64-3.99-14.46
				c-19.24,4.49-38.95,5.35-58.65,4.89c-8.7-0.2-18.06,0.18-26.61-1.61c-3.12-0.65-6.67-1.65-8.68-4.33
				c-1.01-1.35-2.34-4.24-1.01-5.78c6.26-7.28-4.3-17.94-10.61-10.61c-7.02,8.16-5.88,19.79,1.42,27.5
				c7.75,8.19,19.93,8.75,30.43,9.27c26.01,1.28,52.21,1.09,77.69-4.86c9.41-2.19,5.42-16.59-3.99-14.46
				c-31.68,7.16-65.34,2.72-94.08-12.4C305.58,1608.59,297.99,1621.53,306.54,1626.03L306.54,1626.03z"/>
		</g>
	</g>
	<g class="st4">
		<path d="M441.69,1616.28c33.45,20.41,76.08,13.67,114.55,6.25c-37.24,13.01-78.9,12.96-116.11-0.14"/>
		<g>
			<path d="M437.91,1622.76c36.53,21.79,80.76,14.61,120.33,7.01c-1.33-4.82-2.66-9.64-3.99-14.46
				c-36.39,12.5-75.76,12.44-112.12-0.14c-9.14-3.16-13.07,11.32-3.99,14.46c38.64,13.37,81.42,13.42,120.09,0.14
				c9.17-3.15,5.49-16.29-3.99-14.46c-35.45,6.81-75.97,14.07-108.77-5.5C437.17,1604.85,429.61,1617.81,437.91,1622.76
				L437.91,1622.76z"/>
		</g>
	</g>
	<g class="st4">
		<path d="M375.09,1458.77c3,48.68,10.78,97.06,23.2,144.23c-15.33,5.97-32.19,7.97-48.49,5.74c13.6-4.95,19.57-20.76,22.05-35.02
			c5.41-31.09,2.15-62.95-1.13-94.34"/>
		<g>
			<path d="M367.59,1458.77c3.1,49.36,10.94,98.37,23.47,146.22c1.75-3.08,3.49-6.15,5.24-9.23c-15,5.68-30.58,7.49-46.5,5.47
				c0.66,4.91,1.33,9.82,1.99,14.73c21.76-8.61,26.88-32.81,29.17-53.71c3.03-27.6,0.13-55.4-2.74-82.88
				c-0.42-4.03-3.15-7.5-7.5-7.5c-3.73,0-7.92,3.45-7.5,7.5c2.54,24.32,5.09,48.82,3.56,73.3c-0.64,10.25-1.76,20.7-4.96,30.5
				c-2.35,7.22-6.52,15.36-14.02,18.33c-8.09,3.2-6.5,13.65,1.99,14.73c17.04,2.16,34.42,0.08,50.48-6.01
				c3.83-1.45,6.35-5,5.24-9.23c-12.2-46.58-19.91-94.18-22.93-142.23C381.99,1449.18,366.99,1449.11,367.59,1458.77L367.59,1458.77
				z"/>
		</g>
	</g>
	<g class="st4">
		<path d="M441.1,1464.27c3.11,48.33,11.15,96.34,23.97,143.05c-5.3,5.44-15.27,2.52-19.58-3.74c-4.31-6.26-4.56-14.36-4.67-21.96
			c-0.52-38.2-1.05-76.4-1.57-114.6"/>
		<g>
			<path d="M433.6,1464.27c3.22,49.02,11.3,97.65,24.24,145.04c0.64-2.43,1.29-4.86,1.93-7.3c-2.06,1.85-5.77-0.17-7.34-1.78
				c-3.34-3.41-3.76-9.18-3.98-13.68c-0.63-13.14-0.42-26.36-0.6-39.51c-0.37-26.67-0.73-53.35-1.1-80.02
				c-0.13-9.64-15.13-9.67-15,0c0.45,32.6,0.89,65.2,1.34,97.81c0.19,13.49-2.09,30.75,5.92,42.54
				c7.02,10.32,21.66,13.96,31.36,5.26c1.96-1.76,2.6-4.82,1.93-7.3c-12.59-46.12-20.57-93.35-23.7-141.06
				C447.97,1454.69,432.96,1454.62,433.6,1464.27L433.6,1464.27z"/>
		</g>
	</g>
</g>
<g id="Ebene_12">
	<g class="st4">
		<g>
			<path class="st5" d="M487.74,1014.34c1.34,68.04,6.3,136,14.96,203.51c2.61,20.36,5.49,40.69,8.7,60.96
				c1.64,10.37,15.12,17.04,24.6,13.97c11.26-3.64,15.73-13.49,13.97-24.6c-1.34-8.44-2.62-16.89-3.85-25.35
				c-0.57-3.9-1.12-7.81-1.66-11.72c-0.27-1.95-0.54-3.91-0.8-5.86c0.05,0.4,0.37,2.8,0.06,0.43c-0.17-1.3-0.34-2.61-0.51-3.91
				c-2.17-16.63-4.11-33.28-5.84-49.96c-3.45-33.36-6-66.8-7.66-100.3c-0.94-19.05-1.59-38.1-1.97-57.17
				c-0.21-10.45-9.05-20.49-20-20C497.08,994.82,487.52,1003.14,487.74,1014.34L487.74,1014.34z"/>
		</g>
	</g>
	<g class="st4">
		<g>
			<path class="st5" d="M543.92,1363.42c10.46,0,20.48-9.2,20-20c-0.49-10.84-8.79-20-20-20c-10.46,0-20.48,9.2-20,20
				C524.4,1354.25,532.7,1363.42,543.92,1363.42L543.92,1363.42z"/>
		</g>
	</g>
	<g class="st4">
		<g>
			<path class="st5" d="M599.11,647.09c0.35,2.14,0.69,4.28,1.02,6.43c0.13,0.84,0.99,7.31,0.44,2.97c0.47,3.69,0.9,7.38,1.27,11.09
				c0.81,8.02,1.38,16.06,1.72,24.11c0.68,16.1,0.41,32.25-0.8,48.32c-0.28,3.71-0.61,7.41-0.99,11.12
				c-0.22,2.16-0.46,4.32-0.71,6.47c-0.1,0.84-0.95,7.32-0.35,2.98c-1.11,7.98-2.45,15.93-4.02,23.84
				c-3.15,15.82-7.25,31.42-12.21,46.76c-3.22,9.96,3.75,22.28,13.97,24.6c10.96,2.5,21.16-3.3,24.6-13.97
				c21.41-66.25,25.88-136.77,14.62-205.35c-1.7-10.35-15.08-17.05-24.6-13.97C601.87,626.11,597.29,635.99,599.11,647.09
				L599.11,647.09z"/>
		</g>
	</g>
	<g class="st4">
		<g>
			<path class="st5" d="M555.1,513.52c4.99,4.42,9.77,9.06,14.26,13.99c2.24,2.46,4.42,4.99,6.52,7.57c0.93,1.14,3.06,3.98,0.98,1.2
				c1.16,1.56,2.31,3.12,3.44,4.71c3.84,5.45,7.38,11.1,10.6,16.94c1.61,2.92,3.13,5.88,4.58,8.88c0.72,1.5,1.42,3.01,2.1,4.53
				c0.34,0.76,0.68,1.52,1,2.29c-0.94-2.22-0.97-2.27-0.11-0.16c3.89,9.67,13.52,17.56,24.6,13.97c9.35-3.03,18.15-14.21,13.97-24.6
				c-11.91-29.64-29.64-56.36-53.66-77.61c-7.83-6.93-20.67-8.29-28.28,0C548.14,492.82,546.73,506.12,555.1,513.52L555.1,513.52z"
				/>
		</g>
	</g>
	<g class="st4">
		<g>
			<path class="st5" d="M702.84,423.3c1.73,3.45,3.45,6.91,5.18,10.36c2.16,4.32,7.42,7.94,11.95,9.19
				c4.79,1.32,11.16,0.72,15.41-2.02c4.27-2.75,8.03-6.85,9.19-11.95c1.24-5.44,0.49-10.4-2.02-15.41
				c-1.73-3.45-3.45-6.91-5.18-10.36c-2.16-4.32-7.42-7.94-11.95-9.19c-4.79-1.32-11.16-0.72-15.41,2.02
				c-4.27,2.75-8.03,6.85-9.19,11.95C699.59,413.34,700.34,418.29,702.84,423.3L702.84,423.3z"/>
		</g>
	</g>
	<g class="st4">
		<g>
			<path class="st5" d="M175.98,402.12c10.46,0,20.48-9.2,20-20c-0.49-10.84-8.79-20-20-20c-10.46,0-20.48,9.2-20,20
				C156.46,392.95,164.77,402.12,175.98,402.12L175.98,402.12z"/>
		</g>
	</g>
</g>
<g id="Ebene_13">
	<g>
		<g>
			<path d="M430.26,727.36c-19.28-7.97-42.8,10.23-39.96,30.82c2.74,19.88,27.56,31.2,44.56,20.99c8.27-4.96,0.73-17.94-7.57-12.95
				c-7.94,4.77-20.84-0.43-22.22-10.04c-1.59-11.09,12.13-18.1,21.2-14.35c3.77,1.56,8.21-1.69,9.23-5.24
				C436.72,732.29,433.98,728.9,430.26,727.36L430.26,727.36z"/>
		</g>
	</g>
	<g>
		<g>
			<path d="M346.84,816.11c10.34,25.9,33.3,45.72,60.67,51.73c27.39,6.01,55.74-3.18,75.46-22.91
				c10.91-10.91,18.85-24.72,22.34-39.78c2.18-9.39-12.28-13.4-14.46-3.99c-6.42,27.7-31.24,50.89-60,53.38
				c-28.96,2.51-58.7-15.26-69.55-42.43c-1.5-3.75-5.02-6.42-9.23-5.24C348.51,807.88,345.32,812.31,346.84,816.11L346.84,816.11z"
				/>
		</g>
	</g>
	<ellipse class="st6" cx="338.95" cy="720.3" rx="10.25" ry="18.83"/>
	<ellipse class="st6" cx="512.51" cy="723.2" rx="10.25" ry="18.83"/>
	<circle class="st7" cx="341.2" cy="711.87" r="2.25"/>
	<circle class="st7" cx="514.76" cy="711.87" r="2.25"/>
</g>
<g id="Ebene_14">
	<ellipse class="st8" cx="316.91" cy="770.36" rx="35.92" ry="22.79"/>
	<ellipse class="st8" cx="555.28" cy="767.1" rx="35.92" ry="22.79"/>
</g>
<g id="Ebene_16">
</g>
<g id="Ebene_15">
	<g>
		<g>
			<path d="M295.26,916.97c-38.65,53.19-77.43,107.55-108.24,165.76c-5.36,10.13-10.41,20.46-14.55,31.15
				c-2.77,7.16-5.37,14.88-5.53,22.65c-0.22,10.81,4.71,22.14,9.47,31.58c6.39,12.66,14.82,24.19,23.65,35.24
				c19.5,24.42,42.45,45.66,63,69.13c6.37,7.28,16.94-3.37,10.61-10.61c-17.32-19.79-36.43-37.92-53.61-57.85
				c-9.05-10.5-17.68-21.4-24.93-33.23c-5.96-9.72-11.8-20.74-13.15-32.26c0.1,0.83-0.01-2.11,0.01-2.82
				c0.02-0.66,0.1-1.33,0.18-1.99c-0.2,1.69,0.11-0.48,0.23-1.1c0.77-3.74,1.87-7.39,3.15-11c3.28-9.29,7.63-18.18,12.13-26.93
				c13.42-26.04,29.04-50.96,45.02-75.48c20.95-32.16,42.96-63.64,65.52-94.69c2.4-3.3,0.54-8.33-2.69-10.26
				C301.76,912.03,297.63,913.71,295.26,916.97L295.26,916.97z"/>
		</g>
	</g>
	<g>
		<g>
			<path d="M285.01,1067.27c-8.26,11.38-17.46,22.02-26.15,33.07c-7.71,9.82-15.29,19.92-19.77,31.69
				c-3.88,10.19-4.1,21.12,0.22,31.19c5.86,13.65,18.25,23.34,30.34,31.26c8.1,5.31,15.62-7.68,7.57-12.95
				c-9.49-6.22-20.34-14.09-24.59-25.11c-3.03-7.86-1.4-15.91,2.29-23.45c4.76-9.72,11.55-18.36,18.31-26.75
				c8.36-10.38,16.9-20.6,24.73-31.39c2.4-3.3,0.54-8.33-2.69-10.26C291.5,1062.32,287.37,1064.01,285.01,1067.27L285.01,1067.27z"
				/>
		</g>
	</g>
	<g>
		<g>
			<path d="M544.82,935.22c33.1,43.67,65.94,87.82,94.79,134.45c11.59,18.74,23.58,38.34,30.8,59.16c1.3,3.74,2.4,7.54,3.15,11.43
				c0.34,1.76,0.7,5.52,0.13,8.19c-2.27,10.55-9.13,20.03-15.66,28.38c-23.13,29.58-52.08,54.52-78.57,80.97
				c-6.84,6.83,3.76,17.44,10.61,10.61c24.74-24.71,51.11-48.15,73.66-74.95c8.47-10.07,16.77-20.76,21.82-33.01
				c3.62-8.79,4.08-17.36,1.97-26.57c-4.79-20.9-16.47-40.69-27.24-58.99c-14.62-24.84-30.82-48.76-47.43-72.31
				c-17.86-25.34-36.36-50.22-55.09-74.93c-2.46-3.25-6.44-4.87-10.26-2.69C544.31,926.78,542.38,932,544.82,935.22L544.82,935.22z"
				/>
		</g>
	</g>
	<g>
		<g>
			<path d="M550.94,1076.36c10.22,12.09,21.33,23.32,32.16,34.85c6.18,6.58,14.96,14.84,16.9,23.51c0.41,1.86-0.48,6.55-1.37,9.86
				c-1.11,4.12-2.74,7.87-5.29,11.35c-6.95,9.44-18.08,15.79-27.88,21.78c-8.23,5.02-0.7,18,7.57,12.95
				c12.14-7.42,24.89-15.36,33.26-27.16c5.5-7.76,9.67-19.58,8.73-29.19c-1.14-11.61-9.91-21.21-17.39-29.47
				c-11.92-13.15-24.62-25.52-36.08-39.09C555.3,1058.37,544.74,1069.02,550.94,1076.36L550.94,1076.36z"/>
		</g>
	</g>
	<g id="Ebene_3_1_">
		<g class="st4">
			<g>
				<path d="M556.76,619.06c2.76,0,5.47-6.44,2.44-6.44C556.44,612.63,553.73,619.06,556.76,619.06L556.76,619.06z"/>
			</g>
		</g>
		<g class="st4">
			<path d="M551.96,614.35c3.19,50.32,6.39,100.64,9.59,150.96c47.65-36.4,95.31-72.79,142.97-109.19
				c26.57-20.29,51.66-52.17,86.1-50.38c35.7,1.86,77.15,1.51,111.26,3.28c82.19,4.28,146.39,0.02,227.94-11.05
				c24.95-3.39,63.26-25.98,81.89-42.83c22.68-20.51,25.16-42.93,27.32-73.32c8.35-117.84-12.44-236.12-44.92-349.76
				c-8.05-28.18-18.8-58.72-44.29-73.46c-22.57-13.05-50.68-10.1-76.51-6.28c-204.91,30.32-405.3,90.65-592.67,178.44
				c-20.67,9.69-42.59,21.05-52.75,41.39c-8.02,16.06-9.42,35.22-5.78,52.78c15.47,74.64,23.79,123.97,35.47,202.32
				c3.3,22.12,11.66,56.79,30.99,68.25c18.91,11.21,40.28,11.07,61.18,8.73c1.74,3.38,3.49,6.77,5.23,10.15"/>
			<g>
				<path d="M549.41,615.76c3.19,50.32,6.39,100.64,9.59,150.96c0.13,2.09,1.85,2.11,3.25,1.04c36.5-27.87,72.99-55.74,109.48-83.62
					c16.17-12.35,32.73-24.29,48.07-37.66c12.64-11.02,25.11-22.87,40.17-30.62c7.49-3.85,15.7-6.51,24.17-6.92
					c9.79-0.47,19.81,0.68,29.62,0.96c20.65,0.6,41.3,0.8,61.95,1.38c20.82,0.58,41.62,1.9,62.45,2.34
					c20.8,0.44,41.61,0.29,62.39-0.51c41.47-1.6,82.78-5.85,123.91-11.34c16.2-2.16,31.02-7.96,45.43-15.5
					c14.41-7.54,28.48-16.45,40.77-27.12c12.05-10.46,20.86-23.5,25.28-38.82c4.73-16.39,5.4-33.9,6.34-50.82
					c2.46-44.09,0.9-88.35-3.74-132.25c-4.57-43.23-12.08-86.13-21.7-128.53c-4.85-21.36-10.23-42.6-16.05-63.72
					c-4.85-17.61-9.58-35.44-17.42-52.02c-6.91-14.62-16.65-28.31-30.76-36.83c-16.32-9.86-35.97-11.21-54.58-9.85
					c-20.38,1.49-40.68,5.26-60.82,8.59c-21.18,3.51-42.31,7.35-63.37,11.5c-83.75,16.51-166.51,38.05-247.66,64.45
					c-80.89,26.31-160.21,57.42-237.35,93.17c-15.95,7.39-32.46,14.69-45.93,26.2c-13.6,11.61-21.83,27.33-24.34,44.94
					c-2.88,20.2,2.78,39.82,6.72,59.49c3.7,18.5,7.25,37.03,10.59,55.59c6.86,38.02,12.83,76.19,18.54,114.39
					c4.21,28.15,10.63,65.23,40.07,77.82c17.29,7.4,36.32,6.96,54.67,4.95c-0.53-0.17-1.06-0.34-1.6-0.51
					c1.74,3.38,3.49,6.77,5.23,10.15c1.34,2.6,5.66-2.86,4.39-5.32c-1.74-3.38-3.49-6.77-5.23-10.15c-0.3-0.59-1.07-0.56-1.6-0.51
					c-19.65,2.15-40.33,2.22-58.11-7.54c-13.24-7.26-20.03-21.85-24.6-35.53c-5.09-15.23-7.31-31.01-9.69-46.82
					c-2.9-19.21-5.86-38.41-9-57.58c-5.91-36.14-12.51-72.17-19.74-108.07c-4.02-19.94-9.26-39.49-4.08-59.77
					c4.61-18.04,16.8-30.62,32.46-40.1c16-9.68,33.59-16.96,50.61-24.64c18.86-8.51,37.85-16.74,56.96-24.7
					c38.93-16.21,78.35-31.25,118.19-45.11c78.21-27.22,158.01-49.9,238.88-67.88c40.93-9.1,82.12-16.99,123.52-23.67
					c19.66-3.17,39.63-7.04,59.6-7.34c18.44-0.28,36.89,3.41,51.37,15.39c12.82,10.61,20.88,25.94,26.72,41.18
					c6.8,17.74,11.45,36.34,16.31,54.67c11.03,41.59,20.31,83.66,27.02,126.15c6.69,42.38,10.79,85.2,11.46,128.11
					c0.34,21.56-0.2,43.13-1.7,64.64c-1.11,15.99-2.13,32.68-8.69,47.55c-6.33,14.33-18.1,24.72-30.65,33.68
					c-13.73,9.82-28.73,18.41-44.43,24.72c-16.64,6.69-34.3,8.07-51.98,10.2c-20.61,2.48-41.26,4.57-61.96,6.07
					c-40.4,2.93-80.92,3.44-121.4,1.78c-39.98-1.64-80.01-1.87-119.97-3.67c-8.33-0.38-16.26-0.41-24.35,1.93
					c-7.18,2.08-13.95,5.4-20.26,9.36c-14.04,8.79-26.01,20.33-38.53,31.04c-15.71,13.44-32.69,25.51-49.12,38.06
					c-17.6,13.44-35.21,26.89-52.81,40.33c-17.17,13.12-34.35,26.23-51.52,39.35c1.08,0.35,2.17,0.69,3.25,1.04
					c-3.19-50.32-6.39-100.64-9.59-150.96C554.26,608.79,549.24,613.06,549.41,615.76L549.41,615.76z"/>
			</g>
		</g>
		<g class="st4">
			<g>
				<path d="M1194.08,737.02c2.76,0,5.47-6.44,2.44-6.44C1193.76,730.58,1191.05,737.02,1194.08,737.02L1194.08,737.02z"/>
			</g>
		</g>
	</g>
	<g>
		<g>
			<path class="st9" d="M573.3,597.48c2.76,0,5.47-6.44,2.44-6.44C572.98,591.04,570.27,597.48,573.3,597.48L573.3,597.48z"/>
		</g>
	</g>
	<g>
		<path class="st10" d="M568.51,592.77c3.19,50.32,6.39,100.64,9.59,150.96c47.65-36.4,95.31-72.79,142.97-109.19
			c26.57-20.29,51.66-52.17,86.1-50.38c35.7,1.86,77.15,1.51,111.26,3.28c82.19,4.28,146.39,0.02,227.94-11.05
			c24.95-3.39,63.26-25.98,81.89-42.83c22.68-20.51,25.16-42.93,27.32-73.32c8.35-117.84-12.44-236.12-44.92-349.76
			c-8.06-28.18-18.8-58.72-44.29-73.46c-22.57-13.05-50.68-10.1-76.51-6.28c-204.91,30.32-405.3,90.65-592.67,178.44
			c-20.67,9.69-42.59,21.05-52.75,41.39c-8.02,16.06-9.42,35.22-5.78,52.78c15.47,74.64,23.79,123.97,35.47,202.32
			c3.3,22.12,15.03,52.48,30.99,68.25c15.96,15.76,43.35,22.37,61.18,8.73c1.74,3.38,3.49,6.77,5.23,10.15"/>
		<g>
			<path class="st9" d="M565.95,594.18c3.19,50.32,6.39,100.64,9.59,150.96c0.13,2.09,1.85,2.11,3.25,1.04
				c36.5-27.87,72.99-55.74,109.48-83.62c16.49-12.6,33.35-24.8,48.97-38.46c12.6-11.02,25.13-22.81,40.28-30.33
				c7.38-3.67,15.45-6.11,23.73-6.43c9.61-0.37,19.42,0.71,29.04,0.99c21.13,0.61,42.26,0.81,63.39,1.41
				c20.85,0.6,41.67,1.91,62.53,2.33c21.01,0.42,42.03,0.23,63.03-0.62c41.56-1.68,82.94-6.03,124.14-11.57
				c16.05-2.16,31.11-8.75,45.26-16.36c14-7.53,27.75-16.31,39.63-26.88c12.1-10.77,20.53-24.17,24.74-39.76
				c4.54-16.8,5.09-34.78,5.99-52.06c2.27-44.1,0.55-88.36-4.23-132.24c-4.77-43.74-12.52-87.13-22.41-130
				c-4.92-21.34-10.37-42.56-16.25-63.66c-4.75-17.06-9.53-34.27-17.48-50.2c-7.36-14.75-17.95-28.28-32.87-36.05
				c-16.72-8.71-36.16-9.28-54.57-7.64c-20.99,1.86-41.88,5.69-62.64,9.19c-20.92,3.52-41.79,7.36-62.6,11.51
				c-84.22,16.79-167.42,38.66-248.97,65.44c-81.06,26.61-160.52,58.06-237.77,94.16c-15.67,7.32-31.78,15.08-44.17,27.4
				c-12.73,12.65-19.28,29.48-20.58,47.17c-0.73,9.94,0.53,19.61,2.54,29.33c2.12,10.25,4.2,20.52,6.23,30.79
				c3.62,18.31,7.09,36.65,10.36,55.03c3.26,18.36,6.34,36.76,9.27,55.18c3.22,20.21,5.76,40.58,9.35,60.72
				c2.93,16.46,8.85,32.74,17.14,47.28c8.18,14.35,19.52,26.5,35.56,31.99c14.28,4.89,29.77,4.02,42.12-5.11
				c-0.96,0.07-1.93,0.14-2.89,0.21c1.74,3.38,3.49,6.77,5.23,10.15c1.34,2.6,5.66-2.86,4.39-5.32c-1.74-3.38-3.49-6.77-5.23-10.15
				c-0.6-1.17-2.23-0.29-2.89,0.21c-13.51,9.98-32.23,7.57-46.21-0.08c-14.82-8.11-24.25-22.76-31.03-37.74
				c-7.26-16.01-10.8-32.47-13.4-49.73c-2.91-19.35-5.89-38.69-9.03-58c-5.91-36.32-12.5-72.51-19.74-108.59
				c-3.94-19.65-9.45-39.11-5.14-59.19c3.94-18.35,15.32-31.61,30.99-41.49c15.87-10.01,33.59-17.28,50.64-25
				c19.08-8.63,38.3-16.99,57.63-25.05c38.45-16.04,77.38-30.94,116.72-44.7c78.64-27.5,158.91-50.4,240.26-68.55
				c40.92-9.13,82.11-17.05,123.5-23.75c19.71-3.19,39.7-7.08,59.71-7.56c18.48-0.45,37.11,2.86,51.85,14.63
				c13,10.38,21.25,25.58,27.18,40.78c6.96,17.83,11.65,36.58,16.55,55.05c10.98,41.33,20.24,83.14,26.98,125.37
				c6.8,42.63,10.97,85.71,11.69,128.87c0.35,21.56-0.16,43.13-1.63,64.64c-1.09,15.9-2.05,32.47-8.32,47.35
				c-6.09,14.45-17.65,24.95-30.15,34c-13.76,9.96-28.84,18.63-44.59,25.07c-16.88,6.91-34.76,8.35-52.74,10.51
				c-20.37,2.45-40.78,4.52-61.24,6.02c-40.38,2.95-80.88,3.49-121.33,1.86c-20.17-0.81-40.31-1.72-60.5-2.12
				c-20.09-0.4-40.19-0.68-60.26-1.59c-8.14-0.37-15.89-0.43-23.81,1.78c-7.38,2.06-14.33,5.46-20.8,9.51
				c-14.04,8.78-26.01,20.33-38.53,31.04c-15.71,13.44-32.69,25.51-49.12,38.06c-17.6,13.44-35.21,26.89-52.81,40.33
				c-17.17,13.12-34.35,26.23-51.52,39.35c1.08,0.35,2.17,0.69,3.25,1.04c-3.19-50.32-6.39-100.64-9.59-150.96
				C570.8,587.21,565.78,591.48,565.95,594.18L565.95,594.18z"/>
		</g>
	</g>
	<g id="Ebene_2_1_">
		<g>
			<g>
				<path d="M567.2,584.61c-13.88,1.62-28.36,2.51-42.07-0.85c-6.61-1.62-13.03-4.43-18.33-8.72c-5.97-4.84-10.41-11.67-14.02-18.35
					c-7.8-14.42-11.59-30.62-14.87-46.54c-3.85-18.66-7.49-37.36-11.23-56.05c-7.66-38.29-15.33-76.59-22.99-114.88
					c-6.32-31.6-15.11-69.58,6.81-97.37c9.44-11.97,22.55-20.45,35.98-27.42c14.91-7.76,30.59-14.14,46.08-20.64
					c34.32-14.4,69.12-27.65,104.24-39.98c69.8-24.51,140.86-45.35,212.4-64.21c71.43-18.84,143.37-35.71,215.34-52.35
					c17.38-4.02,34.83-8.86,52.55-11.15c16.77-2.16,34.16-0.88,48.55,8.69c25.58,17.02,35.21,50.71,44.37,78.14
					c23.32,69.86,38.15,142.51,44.04,215.88c2.83,35.25,4.1,70.93,2.18,106.27c-1.61,29.67-6.33,60.77-22.16,86.55
					c-16.56,26.96-44.51,41.77-74.69,49c-33.19,7.95-68.1,9.01-102.05,10.79c-72.55,3.8-145.18,3.16-217.78,1.57
					c-18.51-0.4-37.02-0.85-55.53-1.3c-2.76-0.07-5.5,6.37-2.44,6.44c75.73,1.8,151.5,3.84,227.25,1.6
					c37.14-1.1,74.49-2.64,111.45-6.57c31.05-3.3,63.13-9.8,88.88-28.37c53.64-38.66,53.86-113.7,52.75-172.93
					c-1.42-75.57-12.25-151-32.11-223.97c-5.04-18.49-10.65-36.83-16.85-54.98c-5.14-15.05-10.38-30.24-18.02-44.26
					c-6.78-12.44-15.83-24.16-28.21-31.52c-14.43-8.58-31.41-9.48-47.72-7.47c-18.22,2.25-36.16,7.28-54.02,11.41
					c-18.8,4.35-37.61,8.71-56.39,13.13c-37.35,8.77-74.65,17.72-111.84,27.11c-74.02,18.67-147.65,39.04-220.13,63.01
					c-36.29,11.99-72.29,24.89-107.85,38.9c-17.41,6.86-34.72,13.98-51.9,21.39c-14.89,6.42-29.95,12.82-43.66,21.55
					c-12.68,8.08-24.22,18.28-31.68,31.45c-8.18,14.43-10.63,31.08-9.99,47.45c0.69,17.41,4.46,34.53,7.87,51.55
					c3.94,19.68,7.88,39.36,11.82,59.04c7.73,38.64,14.76,77.5,23.32,115.96c3.51,15.8,8.12,31.72,16.86,45.53
					c7.97,12.6,18.8,20.49,33.51,23.55c13.48,2.81,27.51,1.82,41.09,0.24C568.63,590.64,570.86,584.18,567.2,584.61L567.2,584.61z"
					/>
			</g>
		</g>
		<g>
			<g>
				<path d="M563.7,554.04c1.27,25.15,2.31,50.32,3.34,75.49c1.1,26.92,2.16,53.84,3.32,80.76c0.59,13.57,1.2,27.13,1.89,40.7
					c0.07,1.37,1.26,2.4,2.6,1.49c32.79-22.21,64.9-45.39,96.23-69.58c32.28-24.93,63.76-50.93,93.84-78.44
					c16.06-14.69,31.71-29.84,46.74-45.58c0.94-0.98,1.84-3.26,0.89-4.49c-1.04-1.35-2.7-0.01-3.5,0.83
					c-26.9,28.15-55.81,54.37-85.6,79.46c-31,26.11-63.05,50.98-95.83,74.85c-17.41,12.68-35.04,25.06-52.87,37.14
					c0.87,0.5,1.73,0.99,2.6,1.49c-1.27-25.15-2.31-50.32-3.34-75.49c-1.1-26.92-2.16-53.84-3.32-80.76
					c-0.59-13.57-1.2-27.13-1.89-40.7c-0.08-1.53-1.24-2.16-2.6-1.49C564.77,550.43,563.61,552.46,563.7,554.04L563.7,554.04z"/>
			</g>
		</g>
		<g>
			<g>
				<path d="M1277.9,464.25c-1.69,29.35-12.69,58.04-30.91,81.19c-18.75,23.83-44.97,41.06-74.14,49.56
					c-16.65,4.85-34.02,6.84-51.33,5.77c-2.75-0.17-5.54,6.25-2.44,6.44c32.11,1.99,64.65-6.4,91.86-23.44
					c26.91-16.86,47.81-41.97,60.13-71.05c6.9-16.28,10.93-33.66,11.94-51.29c0.09-1.57-1.36-2.11-2.6-1.49
					C1278.85,460.71,1277.99,462.63,1277.9,464.25L1277.9,464.25z"/>
			</g>
		</g>
	</g>
	<g id="Ebene_4_1_">
		<g>
			<g>
				<path d="M688.49,209.02c-2.03,45.09-4.05,90.18-6.08,135.27s-4.05,90.18-6.08,135.27c-1.13,25.28-2.27,50.55-3.41,75.83
					c-0.15,3.36,14.01,3.68,14.17,0c2.03-45.09,4.05-90.18,6.08-135.27c2.03-45.09,4.05-90.18,6.08-135.27
					c1.13-25.28,2.27-50.55,3.41-75.83C702.82,205.66,688.66,205.34,688.49,209.02L688.49,209.02z"/>
			</g>
		</g>
		<g>
			<g>
				<path d="M876.01,209.08c-3.18,44.86-6.37,89.72-9.55,134.58c-3.18,44.86-6.37,89.72-9.55,134.58
					c-1.79,25.23-3.58,50.47-5.37,75.7c-0.23,3.28,13.91,3.75,14.17,0c3.18-44.86,6.37-89.72,9.55-134.58
					c3.18-44.86,6.37-89.72,9.55-134.58c1.79-25.23,3.58-50.47,5.37-75.7C890.42,205.81,876.28,205.34,876.01,209.08L876.01,209.08z
					"/>
			</g>
		</g>
		<g>
			<g>
				<path d="M696.32,384.27c44.02-2.06,88.18-1.9,132.14,0.66c12.48,0.73,24.95,1.64,37.41,2.73c1.79,0.15,3.7,0.12,5.46-0.25
					c0.75-0.16,2.8-0.61,3.26-1.47c1.21-2.28-3.78-2.93-4.95-3.03c-44.99-3.93-90.2-5.56-135.36-4.78
					c-12.66,0.22-25.31,0.63-37.96,1.22c-1.57,0.08-6.96,0.04-7.09,2.46C689.12,384.06,695.21,384.32,696.32,384.27L696.32,384.27z"
					/>
			</g>
		</g>
		<g>
			<g>
				<path d="M966.92,380.73c-2.81,46.66-5.61,93.31-8.42,139.96c-0.78,13.06-1.57,26.12-2.36,39.19c-0.2,3.32,13.95,3.72,14.17,0
					c2.81-46.66,5.61-93.31,8.42-139.96c0.78-13.06,1.57-26.12,2.36-39.19C981.3,377.42,967.15,377.01,966.92,380.73L966.92,380.73z
					"/>
			</g>
		</g>
		<g>
			<g>
				<path d="M984.92,289.65c-6.45-6.62-18.89-6.53-26.82-2.84c-6.98,3.25-11.05,10.31-13,17.46c-1.8,6.64-1.58,13.85,1.37,20.14
					c3.23,6.88,10.07,10.88,17.41,12.17c16.5,2.91,33.78-3.9,41.82-18.85c6.65-12.38,6.69-27.92-1.42-39.66
					c-10.48-15.18-30.35-20.39-47.91-17.52c-1.65,0.27-4.96,1.66-2.54,3.37c2.47,1.76,6.93,1.34,9.69,0.88
					c-0.9,0.15,0.7-0.08,0.96-0.11c1.34-0.17-0.57-0.05,0.78-0.06c0.33,0,0.67,0,1,0c1.15-0.01-1.03-0.09,0.11-0.01
					c0.77,0.05,1.55,0.12,2.32,0.23c-0.92-0.13,0.68,0.14,0.94,0.19c0.65,0.13,1.31,0.27,1.95,0.45c0.63,0.17,2.57,0.85,3.63,1.3
					c4.97,2.06,9.47,5.4,12.97,9.44c7.6,8.75,9.85,20.54,7.11,31.68c-2.56,10.4-10.2,20.82-20.75,23.85
					c-0.32,0.09-1.12,0.26-1.62,0.37c-0.74,0.15-0.15,0.05,0.01,0.03c-0.34,0.05-0.68,0.07-1.01,0.11c-0.83,0.1,0.05,0.02,0.2,0.02
					c-0.34,0.01-0.67,0.01-1.01,0.01c-0.85,0,0.09,0.02,0.21,0.01c-0.22-0.02-0.44-0.04-0.66-0.06c0.49,0.09,0.51,0.09,0.06,0
					c-1.79-0.32-4.1-1.37-5.88-2.85c-4.33-3.63-6.3-9.2-6.65-14.67c-0.41-6.36,1.14-12.93,4.52-18.36c1.7-2.73,4-5.51,7.04-6.82
					c0.53-0.23,0.63-0.09,0.89-0.25c0.5-0.3,0.25,0.03-0.06,0.02c-0.26,0-1.08-0.06-1.36,0.03c-0.52,0.16-0.32-0.16,0.24,0.21
					c0.67,0.44,1.23,0.8,1.8,1.37c2,2.06,6.08,1.98,8.72,1.72C980.76,292.6,986.74,291.51,984.92,289.65L984.92,289.65z"/>
			</g>
		</g>
	</g>
</g>
</svg>
