<?xml version="1.0" encoding="utf-8"?>
<!-- Generator: Adobe Adobe Illustrator 24.2.0, SVG Export Plug-In . SVG Version: 6.00 Build 0)  -->
<svg version="1.1" xmlns="http://www.w3.org/2000/svg" xmlns:xlink="http://www.w3.org/1999/xlink" x="0px" y="0px"
	 viewBox="0 0 1700.79 1700.79" style="enable-background:new 0 0 1700.79 1700.79;" xml:space="preserve">
<style type="text/css">
	.st0{fill:#91625E;}
	.st1{fill:#6DB572;}
	.st2{fill:#6CB671;}
	.st3{fill:#F0C2A1;}
	.st4{opacity:0.149;}
	.st5{fill:#FFFFFF;}
	.st6{stroke:#000000;stroke-width:1.1146;stroke-miterlimit:10;}
	.st7{fill:#FFFFFF;stroke:#FFFFFF;stroke-width:1.1146;stroke-miterlimit:10;}
	.st8{fill:#CB5B7B;stroke:#CB5B7B;stroke-width:2.2725;stroke-miterlimit:10;}
	.st9{fill:#ADBECF;stroke:#F3C057;stroke-miterlimit:10;}
	.st10{fill:#F3C057;stroke:#F3C057;stroke-miterlimit:10;}
	.st11{fill:#F7D98D;stroke:#F3C057;stroke-miterlimit:10;}
	.st12{stroke:#F3C057;stroke-miterlimit:10;}
	.st13{fill:#AEBFCE;stroke:#F3C057;stroke-miterlimit:10;}
	.st14{opacity:0.2706;}
	.st15{fill:#3D4C5B;stroke:#F3C057;stroke-miterlimit:10;}
	.st16{fill:#F3C057;}
</style>
<g id="Ebene_6">
	<g>
		<path class="st0" d="M818.05,799.72c46.22-65.09,52.84-156.14,16.52-227.23c9.41-7.22,18.82-14.44,28.22-21.66
			c4.85,22.9,41.24,23.68,55.92,5.44c14.68-18.23,13.68-44.07,11.95-67.41c-2.8-37.76-10.39-82.7-45.07-97.89
			c-22.3-9.77-51.03-1.39-64.57,18.84c-13.55,20.23-10.35,49.98,7.17,66.88c-13.39,7.51-26.79,15.02-40.18,22.53
			c-51.46-35.92-47.09-30-117.89-44.12c-136.16-27.14-212.92,26.39-225.1,26.02c-12.18-0.36-17.16-24.15-20.75-35.79
			c-2.03-6.58-0.82-13.65-0.84-20.53c-0.09-30.05-25.79-56.39-55.26-62.28c-29.47-5.9-58.05,10.56-80.31,30.76
			c-27.68,25.11-45.62,62.76-29.59,96.52s69.52,45.77,92.08,15.97c6.21,8.13,12.43,16.25,18.64,24.38
			c-20.74,33.68-52.55,70-45.37,108.9c7.89,42.69,11.35,68.99,17.76,114.72c10.53,75.07,107.38,79.77,174.38,85.77
			c99.44,8.9,200.85-8,292.78-46.95"/>
		<g>
			<path class="st0" d="M824.52,803.5c37.05-52.6,49.2-120.97,35.09-183.5c-4.02-17.8-10.33-35.03-18.57-51.3
				c-0.9,3.42-1.79,6.84-2.69,10.26c9.41-7.22,18.82-14.44,28.22-21.66c-3.67-1.49-7.35-2.99-11.02-4.48
				c6.23,26.35,41.42,29.19,60.63,15.79c27.31-19.06,23.98-59.48,21.24-88.42c-2.66-28.17-7.9-59.31-27.7-80.96
				c-20.45-22.36-55.31-26.27-80.11-8.56c-29.64,21.16-32.47,65.74-6.74,91.31c0.51-3.93,1.01-7.85,1.52-11.78
				c-13.39,7.51-26.79,15.02-40.18,22.53c2.52,0,5.05,0,7.57,0c-18.33-12.78-36.79-26.38-58.58-32.56
				c-10.68-3.03-21.71-4.84-32.61-6.87c-18.23-3.38-36.38-7.33-54.77-9.81c-57.46-7.76-115.98-2.5-170.29,18.15
				c-6.88,2.62-13.66,5.48-20.46,8.3c-2.26,0.93-4.51,1.88-6.82,2.69c-0.8,0.28-1.61,0.53-2.41,0.78c-0.33,0.1-0.7,0.13-1.02,0.26
				c-1.51,0.58,0.85-0.42,0.71-0.07c-0.15,0.36-1.46-0.33-1.58-0.41c-2.12-1.44-3.46-4.18-4.59-6.36
				c-2.94-5.71-4.59-12.09-6.35-18.24c-0.94-3.3-2.12-6.55-2.38-9.98c-0.37-4.82,0.35-9.69,0.26-14.52
				c-0.14-8.21-1.97-16.23-5.16-23.77c-13.4-31.63-48.45-50.82-82.22-45.45c-18.82,2.99-35.86,12.83-50.68,24.42
				c-14.35,11.22-27.09,24.69-36.02,40.66c-15.95,28.53-17.71,66.69,7.53,90.65c19.56,18.56,51.52,26.11,76.08,13.22
				c5.89-3.09,11.13-7.52,15.22-12.77c-3.93-0.51-7.85-1.01-11.78-1.52c6.21,8.13,12.43,16.25,18.64,24.38c0-2.52,0-5.05,0-7.57
				c-14.03,22.65-30.75,43.82-40.69,68.75c-4.74,11.89-7.59,24.96-6.52,37.81c1.12,13.37,4.49,26.73,6.68,39.97
				c4.34,26.26,7.94,52.63,11.63,78.99c2.7,19.3,9.9,36.86,23.98,50.68c27.7,27.19,69.59,34.71,106.57,39.4
				c49.89,6.34,100.46,9.47,150.66,5.54c67.3-5.27,133.53-21.46,195.71-47.7c3.72-1.57,6.43-4.96,5.24-9.23
				c-0.98-3.51-5.46-6.83-9.23-5.24c-53.53,22.58-110.23,38.03-167.96,44.83c-28.58,3.37-57.39,4.72-86.16,3.96
				c-22.62-0.59-45.21-2.7-67.73-4.9c-35.5-3.47-74.89-7.89-105.28-28.19c-13.51-9.02-23.8-21.97-28.34-37.66
				c-3.3-11.42-4.13-23.59-5.78-35.33c-1.77-12.62-3.55-25.23-5.47-37.82c-2.08-13.64-4.32-27.26-6.74-40.85
				c-1.24-6.98-2.92-13.93-3-21.04c-0.08-6.98,1.12-13.78,3.11-20.45c8.17-27.31,27.47-50.1,42.26-73.98c1.27-2.05,1.54-5.55,0-7.57
				c-6.21-8.13-12.43-16.25-18.64-24.38c-2.56-3.35-8.47-5.76-11.78-1.52c-15.41,19.77-43.98,17.73-63.3,4.95
				c-26.01-17.2-26.32-51.21-12.7-76.53c8.06-14.97,19.8-27.45,33.09-37.93c13.38-10.55,29.4-19.73,46.59-21.76
				c30.06-3.55,62.3,18.61,66.8,49.26c1.24,8.49-0.68,17.05,0.76,25.55c1.03,6.06,3.23,12.26,5.16,18.09
				c3.58,10.81,9.89,26.49,23.59,26.54c3.8,0.01,7.51-1.56,10.98-2.95c5.89-2.35,11.69-4.89,17.58-7.24
				c47.53-18.93,98.06-26.37,149.1-22.43c19.01,1.47,37.61,4.86,56.31,8.45c12.79,2.46,25.65,4.62,38.4,7.32
				c4.48,0.95,8.94,1.99,13.33,3.3c1.8,0.54,3.6,1.12,5.37,1.75c0.93,0.33,1.86,0.68,2.79,1.05c0.35,0.14,0.69,0.27,1.04,0.42
				c2.26,0.93-1.28-0.58,0.98,0.42c8.95,4,17.27,9.28,25.42,14.7c6.03,4.01,11.98,8.14,17.92,12.28c2.18,1.52,5.36,1.24,7.57,0
				c13.39-7.51,26.79-15.02,40.18-22.53c4.21-2.36,4.9-8.42,1.52-11.78c-17.09-16.98-18.26-47.11-0.57-64.13
				c16.95-16.31,44.75-17.15,62.24-1.36c17.27,15.6,22.97,40.61,25.98,62.75c1.72,12.69,2.75,25.63,2.95,38.43
				c0.21,13.53-0.84,27.83-7.91,39.72c-5.58,9.37-14.97,14.6-25.89,14.76c-8.93,0.13-18.04-3.32-20.26-12.72
				c-1.01-4.28-7.19-7.42-11.02-4.48c-9.41,7.22-18.82,14.44-28.22,21.66c-3.37,2.59-4.72,6.25-2.69,10.26
				c27.29,53.92,29.11,118.87,7.51,175.04c-6.08,15.81-14.28,30.78-24.03,44.62C806,803.84,819,811.34,824.52,803.5L824.52,803.5z"
				/>
		</g>
	</g>
</g>
<g id="Ebene_7">
	<g>
		<path class="st1" d="M359.5,520.11c1.49,3.45,2.99,6.9,4.48,10.34c19.92-22.71,43.46-42.24,69.45-57.62
			c-3.15-5.98-6.3-11.95-9.46-17.93c-18.74,23.14-40.77,43.61-65.21,60.62"/>
		<g>
			<path class="st2" d="M353.03,523.89c1.49,3.45,2.99,6.9,4.48,10.34c1.88,4.33,8.85,4.84,11.78,1.52
				c19.64-22.25,42.44-41.25,67.93-56.45c3.59-2.14,4.6-6.65,2.69-10.26c-3.15-5.98-6.3-11.95-9.46-17.93
				c-2.09-3.97-8.77-5.21-11.78-1.52c-18.43,22.62-39.78,42.71-63.7,59.44c-7.85,5.49-0.36,18.5,7.57,12.95
				c24.98-17.48,47.47-38.15,66.73-61.79c-3.93-0.51-7.85-1.01-11.78-1.52c3.15,5.98,6.3,11.95,9.46,17.93
				c0.9-3.42,1.79-6.84,2.69-10.26c-26.52,15.81-50.53,35.64-70.97,58.8c3.93,0.51,7.85,1.01,11.78,1.52
				c-1.49-3.45-2.99-6.9-4.48-10.34c-1.62-3.75-7.05-4.52-10.26-2.69C351.85,515.83,351.42,520.2,353.03,523.89L353.03,523.89z"/>
		</g>
	</g>
	<g>
		<path class="st1" d="M804.36,489.36c-3.51,2.77-7.01,5.53-10.52,8.3c18.27,18.82,33.94,40.16,46.42,63.23
			c2.96-3.48,5.93-6.97,8.89-10.45c-13.48-19.94-26.97-39.88-40.45-59.82"/>
		<g>
			<path class="st2" d="M799.06,484.06c-3.51,2.77-7.01,5.53-10.52,8.3c-3.22,2.54-2.55,7.96,0,10.61
				c17.83,18.48,32.96,39.16,45.24,61.71c2.18,3.99,8.68,5.17,11.78,1.52c2.96-3.48,5.93-6.97,8.89-10.45
				c2.06-2.42,3.12-6.21,1.17-9.09c-13.48-19.94-26.97-39.88-40.45-59.82c-5.38-7.95-18.38-0.46-12.95,7.57
				c13.48,19.94,26.97,39.88,40.45,59.82c0.39-3.03,0.78-6.06,1.17-9.09c-2.96,3.48-5.93,6.97-8.89,10.45
				c3.93,0.51,7.85,1.01,11.78,1.52c-12.87-23.61-28.92-45.4-47.59-64.75c0,3.54,0,7.07,0,10.61c3.51-2.77,7.01-5.53,10.52-8.3
				c3.2-2.53,2.6-7.95,0-10.61C806.56,480.88,802.22,481.56,799.06,484.06L799.06,484.06z"/>
		</g>
	</g>
	<g>
		<path class="st1" d="M477.62,928.78c-20.44,155.68-40.87,311.36-61.31,467.04c113.24,55.25,216.9,67.85,343.55,22.77
			c-33.39-160.8-52.53-324.56-57.12-488.73c-73.81,11.19-149.68,8.64-222.57-7.47"/>
		<g>
			<path class="st2" d="M470.12,928.78c-15.93,121.38-31.87,242.75-47.8,364.13c-4.5,34.3-9.01,68.6-13.51,102.91
				c-0.31,2.38,1.62,5.46,3.71,6.48c42.06,20.45,86.27,37.01,132.45,45.15c44.76,7.89,90.23,7.73,135.02,0.13
				c27.89-4.74,55.21-12.31,81.86-21.75c4.01-1.42,6.11-5.01,5.24-9.23c-25.93-125.08-43.27-251.88-51.77-379.33
				c-2.39-35.77-4.07-71.58-5.08-107.41c-0.15-5.32-4.65-7.96-9.49-7.23c-72.53,10.87-146.97,8.24-218.58-7.47
				c-9.41-2.06-13.43,12.39-3.99,14.46c74.43,16.33,151.22,18.77,226.56,7.47c-3.16-2.41-6.33-4.82-9.49-7.23
				c3.64,128.36,16.1,256.45,37.25,383.12c6.01,36,12.74,71.88,20.15,107.61c1.75-3.08,3.49-6.15,5.24-9.23
				c-44.25,15.67-90.38,26.02-137.43,27.04c-43.55,0.94-86.66-6.23-128.06-19.58c-24.81-8-48.85-18.08-72.29-29.48
				c1.24,2.16,2.48,4.32,3.71,6.48c15.93-121.38,31.87-242.75,47.8-364.13c4.5-34.3,9.01-68.6,13.51-102.91
				c0.53-4.02-3.83-7.5-7.5-7.5C473.13,921.28,470.65,924.74,470.12,928.78L470.12,928.78z"/>
		</g>
	</g>
	<g>
		<g>
			<path class="st2" d="M704.46,941.43c9.65,0,9.67-15,0-15C694.81,926.43,694.79,941.43,704.46,941.43L704.46,941.43z"/>
		</g>
	</g>
</g>
<g id="Ebene_8">
	<g>
		<path class="st2" d="M519.13,1588.04c-10.03,7.8-23.91,7.67-35.98,11.63c-12.07,3.96-23.8,17.17-17.56,28.25
			c4.43,7.87,14.99,9.27,24.01,9.66c25.4,1.1,50.84,1.36,76.26,0.8c-1.41-9.8-2.82-19.61-4.24-29.41
			c-8.44,5.77-17.19,11.68-27.22,13.62s-21.79-1.15-26.99-9.95c-5.2-8.8,0.12-22.8,10.33-23.4"/>
		<g>
			<path class="st2" d="M515.34,1581.56c-12.88,9.46-30.55,6.58-43.79,15.52c-12.32,8.32-21.3,25.39-9.77,38.31
				c10.66,11.95,31.03,9.9,45.4,10.31c19.55,0.55,39.12,0.59,58.67,0.17c5.35-0.11,7.93-4.68,7.23-9.49
				c-1.41-9.8-2.82-19.61-4.24-29.41c-0.67-4.66-7.36-6.98-11.02-4.48c-10.38,7.09-23.49,16.69-36.75,11.91
				c-4.04-1.46-7.89-4.48-8.19-9.05c-0.18-2.87,1.3-8.23,4.83-8.62c4.03-0.44,7.5-3.13,7.5-7.5c0-3.71-3.45-7.95-7.5-7.5
				c-20.58,2.27-26.08,28.96-10.88,41.54c18.5,15.31,41.72,3.66,58.55-7.83c-3.67-1.49-7.34-2.99-11.02-4.48
				c1.41,9.8,2.82,19.61,4.24,29.41c2.41-3.16,4.82-6.33,7.23-9.49c-16.3,0.35-32.6,0.38-48.89,0.06
				c-8.15-0.16-16.29-0.41-24.44-0.74c-5.48-0.22-11.53-0.19-16.58-2.64c-11.92-5.77,2.2-18.15,9.19-20.66
				c12.68-4.54,26.49-4.11,37.78-12.39c3.29-2.41,4.84-6.48,2.69-10.26C523.76,1581.01,518.6,1579.17,515.34,1581.56L515.34,1581.56
				z"/>
		</g>
	</g>
	<g>
		<path class="st2" d="M606.88,1611.75c8.2,3.93,16.63,7.92,25.7,8.7c9.06,0.78,19.04-2.35,23.96-9.99
			c4.92-7.65,2.32-19.87-6.27-22.87c15.29,6.39,30.59,12.79,45.88,19.18c5.49,2.29,11.85,5.77,12.1,11.71
			c0.34,7.85-9.72,11.24-17.53,11.98c-28.73,2.71-57.72,2.71-86.45-0.03c-1.16-3.24-2.33-6.49-3.49-9.73"/>
		<g>
			<path class="st2" d="M603.1,1618.22c17.11,8.18,38.64,16.04,55.02,1.77c13.02-11.35,10.3-33.06-5.85-39.64
				c-3.78-1.54-8.21,1.67-9.23,5.24c-1.23,4.31,1.52,7.67,5.24,9.23c14.07,5.88,28.15,11.75,42.21,17.65
				c2.33,0.98,10.43,3.98,10.3,6.13c-0.16,2.67-6.48,3.75-8.44,4.11c-13.83,2.54-28.87,2.22-42.89,2.27
				c-15.09,0.06-30.17-0.66-45.19-2.05c2.41,1.84,4.82,3.67,7.23,5.51c-1.16-3.24-2.33-6.49-3.49-9.73
				c-3.24-9.02-17.74-5.13-14.46,3.99c1.16,3.24,2.33,6.49,3.49,9.73c1.22,3.4,3.7,5.18,7.23,5.51c18.95,1.76,37.97,2.42,57,1.85
				c9.17-0.27,18.35-0.79,27.49-1.65c6.43-0.6,13.02-1.59,18.57-5.13c5.46-3.48,8.92-9.19,8.27-15.76
				c-0.7-7.09-6.07-12.15-12.09-15.3c-7.55-3.95-15.86-6.79-23.72-10.08c-9.18-3.84-18.35-7.67-27.53-11.51
				c-1.33,4.82-2.66,9.64-3.99,14.46c2.69,1.09,3.46,5.28,3.21,7.78c-0.42,4.12-3.57,7.04-7.19,8.69c-11.08,5.04-23.64-1.23-33.62-6
				C602,1601.13,594.38,1614.06,603.1,1618.22L603.1,1618.22z"/>
		</g>
	</g>
</g>
<g id="Ebene_17">
</g>
<g id="Ebene_9">
	<g>
		<path class="st3" d="M534.64,1451.44c-1.19,38.51-2.37,77.02-3.56,115.53c-0.28,9.03-0.62,18.36-4.46,26.54
			c-3.84,8.18-12.14,14.98-21.14,14.16c10.59,13.66,33.82,10.78,45.49-1.97c11.67-12.75,14.15-31.43,13.43-48.7
			c-0.72-17.27-4.07-34.6-1.78-51.73c1.61-12.07,6-24.19,3.57-36.13c-2.43-11.93-16.17-22.65-26.53-16.25"/>
		<g>
			<path class="st3" d="M527.14,1451.44c-0.89,28.88-1.78,57.77-2.67,86.65c-0.42,13.49,0.06,27.38-1.58,40.79
				c-1.16,9.45-6,21.84-17.41,21.29c-7.07-0.34-9.12,8.16-5.3,12.8c9.44,11.48,26.16,13.59,39.57,8.67
				c15.57-5.71,25.36-19.41,29.45-35.13c4.75-18.3,2.05-36.91,0.69-55.44c-0.77-10.46-0.78-20.74,1.2-31.07
				c1.84-9.6,4.14-19.26,2.93-29.08c-2.14-17.37-20.56-34.24-38.13-24.52c-8.45,4.67-0.89,17.63,7.57,12.95
				c4.01-2.22,8.34,0.47,11.18,3.48c4.46,4.73,5.07,10.82,4.67,17.08c-0.5,7.87-2.81,15.55-3.91,23.35
				c-1.17,8.29-1.23,16.59-0.71,24.93c0.93,14.96,3.45,29.98,1.79,44.98c-1.26,11.43-5.45,24.75-15.62,31.32
				c-9.32,6.03-22.53,7.04-30.07-2.14c-1.77,4.27-3.54,8.54-5.3,12.8c13.42,0.64,24.37-9.29,29.05-21.21
				c5.33-13.6,4.13-29.57,4.57-43.92c1.01-32.87,2.03-65.73,3.04-98.6C542.44,1441.79,527.44,1441.8,527.14,1451.44L527.14,1451.44z
				"/>
		</g>
	</g>
	<g>
		<path class="st3" d="M599.29,1461.76c0.2,47.21,0.41,94.42,0.61,141.62c9.83,6.63,20.54,13.52,32.39,13.14
			s23.88-11.93,19.97-23.12c-2-5.74-7.33-9.52-11.4-14.04c-13.5-14.99-12.78-37.79-9.25-57.66s9.03-40.66,2.53-59.76
			c-10.26-1-20.52-2-30.79-3"/>
		<g>
			<path class="st3" d="M591.79,1461.76c0.12,27.93,0.24,55.85,0.36,83.78c0.06,13.96,0.12,27.93,0.18,41.89
				c0.01,3.32,0.03,6.65,0.04,9.97c0.02,3.52-0.65,7.57,1.64,10.53c3.25,4.22,10.57,7.61,15.25,10c10.14,5.19,22.08,8.38,33.06,3.92
				c9.46-3.84,17.83-12.63,18.18-23.3c0.41-12.54-10.05-18.03-16.38-27.09c-5.91-8.46-7.34-18.97-7.18-29.06
				c0.45-27.77,13.32-54.76,4.44-82.46c-1.1-3.42-3.79-5.17-7.23-5.51c-10.26-1-20.52-2-30.79-3c-4.04-0.39-7.5,3.73-7.5,7.5
				c0,4.38,3.45,7.11,7.5,7.5c10.26,1,20.52,2,30.79,3c-2.41-1.84-4.82-3.67-7.23-5.51c5.91,18.41,0.7,37.38-2.53,55.77
				c-2.7,15.38-4.23,31.96,0.86,47.03c2.59,7.68,6.74,14.37,12.43,20.13c4.11,4.16,10.37,8.81,6.46,15.16
				c-9.56,15.55-30.2,1.76-40.45-5.13c1.24,2.16,2.48,4.32,3.71,6.48c-0.2-47.21-0.41-94.42-0.61-141.62
				C606.75,1452.11,591.75,1452.09,591.79,1461.76L591.79,1461.76z"/>
		</g>
	</g>
</g>
<g id="Ebene_5">
	<g>
		<path class="st3" d="M361.83,632.42c-1.4,27.53-2.8,55.06-4.21,82.6c-13.12-5.46-30.05,5.5-30.43,19.7
			c-0.39,14.2,15.92,26.07,29.32,21.33c8.09,81.42,77.73,152.53,158.97,162.31c-1.89,35.24,27.85,69.18,63.04,71.92
			c35.19,2.74,80.02-27.14,83.61-62.25c76.24-11.83,151.01-84.92,157.15-171.8c12.67,1.42,25.35-9.49,25.85-22.23
			c0.5-12.74-11.29-24.6-24.03-24.18c-3.36-33.4-13.73-63.82-17.09-97.21c-37.37-6.71-47-25.18-79.21-25.18
			c-47.25,0-59.42-41.54-53.21-73.14c-25.11,40.04-22.57,75.95-92.06,62.39c-38.13-7.44-195.8,24.9-215.15,58.59"/>
		<g>
			<path class="st3" d="M354.33,632.42c-1.4,27.53-2.8,55.06-4.21,82.6c3.16-2.41,6.33-4.82,9.49-7.23
				c-17.73-6.68-38.94,7.5-39.89,26.31c-0.99,19.58,20.49,34.93,38.77,29.18c-3.16-2.41-6.33-4.82-9.49-7.23
				c6.9,66.49,51.44,126.44,112,154.3c17.37,7.99,35.51,13.15,54.47,15.51c-2.5-2.5-5-5-7.5-7.5
				c-1.38,33.03,21.03,63.82,51.53,75.32c29.81,11.24,63.93-1.29,86.48-21.92c12.65-11.58,21.65-26.56,23.65-43.73
				c-1.84,2.41-3.67,4.82-5.51,7.23c65.89-10.53,123.38-61.02,148.87-121.69c7.69-18.3,12.3-37.55,13.79-57.34c-2.5,2.5-5,5-7.5,7.5
				c17.02,1.3,33.26-13.21,33.36-30.41c0.09-16.87-14.97-30.99-31.54-31c2.5,2.5,5,5,7.5,7.5c-3.44-32.81-13.66-64.43-17.09-97.21
				c-0.32-3.08-2.08-6.59-5.51-7.23c-13.81-2.58-26.17-7.66-38.69-13.83c-11.32-5.58-22.58-10.08-35.25-11.29
				c-6.81-0.65-13.58-0.13-20.3-1.66c-5.53-1.26-10.65-3.35-15.35-6.54c-7.88-5.35-13.19-13.89-15.98-22.87
				c-3.29-10.59-3.67-22.04-1.61-32.91c1.55-8.16-9.04-13.29-13.71-5.78c-6.6,10.61-11.73,21.95-17.48,33.03
				c-4.46,8.59-9.51,17.43-16.97,22.28c-19.68,12.81-44.48,2.16-66.49,2.29c-23.65,0.14-47.47,4.07-70.63,8.54
				c-26.72,5.15-53.32,11.75-78.97,20.88c-12.18,4.34-24.38,9.2-35.62,15.64c-7.97,4.57-16.26,10.24-21.04,18.31
				c-4.92,8.33,8.04,15.88,12.95,7.57c0.38-0.65,0.8-1.26,1.22-1.88c-0.43,0.62-0.26,0.22,0.69-0.77c1.26-1.3,2.53-2.55,3.9-3.72
				c1.64-1.4,1.36-1.15,3.66-2.72c1.89-1.29,3.85-2.49,5.83-3.64c9.32-5.39,19.3-9.55,29.39-13.25
				c25.65-9.4,52.33-16.12,79.11-21.41c22.69-4.48,45.95-8.37,69.13-8.55c3.87-0.03,7.71,0.13,11.57,0.46
				c2.25,0.19-0.79-0.19,0.95,0.12c1.54,0.28,3.07,0.58,4.61,0.85c4.77,0.85,9.59,1.54,14.42,2.01c13.25,1.3,27.2,0.54,39.24-5.65
				c10.86-5.58,18.29-15.64,24.04-26.11c6.67-12.16,12.1-24.91,19.44-36.71c-4.57-1.93-9.14-3.85-13.71-5.78
				c-4.34,22.84-0.74,49.04,16.36,66.1c9.59,9.57,22.25,14.52,35.54,16.05c7.22,0.83,14.47,0.22,21.62,1.74
				c5.96,1.27,11.62,3.41,17.12,6.01c15.39,7.27,30.11,14.49,47.02,17.64c-1.84-2.41-3.67-4.82-5.51-7.23
				c3.44,32.81,13.66,64.43,17.09,97.21c0.42,4.04,3.09,7.5,7.5,7.5c8.39,0.01,16.72,7.25,16.54,16
				c-0.2,9.51-9.39,16.09-18.36,15.41c-4.26-0.32-7.21,3.71-7.5,7.5c-4.79,63.69-48.06,121.03-104.39,149.3
				c-14.88,7.46-30.81,12.64-47.25,15.27c-3.49,0.56-5.15,4.19-5.51,7.23c-2.83,24.37-27.14,43.21-48.78,50.74
				c-11.76,4.09-24.23,5.62-36.38,2.37c-12.83-3.43-24.05-11.35-32.44-21.55c-9.52-11.57-14.68-26.27-14.05-41.24
				c0.18-4.41-3.61-7.01-7.5-7.5c-60.5-7.56-113.54-50.71-138.21-105.69c-6.94-15.47-11.51-32.25-13.26-49.12
				c-0.48-4.61-4.43-8.82-9.49-7.23c-8.89,2.8-20.92-4.57-19.78-14.72c1.08-9.66,12.37-15.06,20.9-11.85
				c4.82,1.82,9.27-2.79,9.49-7.23c1.4-27.53,2.8-55.06,4.21-82.6C369.82,622.77,354.82,622.8,354.33,632.42L354.33,632.42z"/>
		</g>
	</g>
</g>
<g id="Ebene_20">
</g>
<g id="Ebene_24">
</g>
<g id="Ebene_3">
	<g>
		<g>
			<path d="M352.47,628.7c-6.23,66.65-11.75,136.01,15.64,199c11.69,26.89,29.4,51.04,52.92,68.72
				c23.77,17.87,52.59,27.81,81.63,33.05c29.65,5.35,59.83,6.46,89.88,7.18c30.53,0.73,61.18,0.95,91.44-3.75
				c29.22-4.54,57.71-14.53,81.24-32.81c22.48-17.46,38.92-41.36,49.88-67.45c26.11-62.17,18.27-130.64,6.21-195.1
				c-1.68-8.98-3.45-17.95-5.21-26.92c-1.87-9.46-16.33-5.46-14.46,3.99c12.38,62.8,25.47,129.18,6.85,192.12
				c-7.54,25.5-20.09,49.9-38.65,69.15c-19.25,19.96-44.05,32.32-70.8,38.82c-28.08,6.82-57.23,7.63-85.99,7.34
				c-28.59-0.29-57.37-0.84-85.81-4.03c-27.74-3.11-55.86-9.39-80.52-22.88c-24.51-13.41-43.73-33.7-57.27-58.02
				c-31.02-55.73-29.48-121.51-24.25-183.15c0.72-8.42,1.5-16.84,2.29-25.25C368.36,619.1,353.36,619.16,352.47,628.7L352.47,628.7z
				"/>
		</g>
	</g>
	<g>
		<g>
			<path d="M351.53,704.05c-17.56-0.55-33.55,13.98-34.23,31.64c-0.7,17.88,14.98,32.84,32.28,33.65c9.65,0.45,9.63-14.55,0-15
				c-9.3-0.43-17.83-9.16-17.28-18.65c0.56-9.7,9.91-16.93,19.23-16.64C361.19,719.35,361.18,704.35,351.53,704.05L351.53,704.05z"
				/>
		</g>
	</g>
	<g>
		<g>
			<path d="M830.16,719.16c7.87,0.58,14.87,7.73,15.15,15.65c0.28,7.78-6.54,15.6-14.29,16.46c-4.03,0.44-7.5,3.13-7.5,7.5
				c0,3.71,3.45,7.95,7.5,7.5c15.83-1.74,29.59-14.86,29.29-31.46c-0.3-16.48-14.16-29.47-30.15-30.65
				C820.53,703.45,820.58,718.46,830.16,719.16L830.16,719.16z"/>
		</g>
	</g>
	<g>
		<g>
			<path d="M363.75,635.18c61.94-34.59,132.36-55.73,203.47-57.46c19.76-0.48,39.61,0.52,59.19,3.36c4.04,0.59,8.01-1,9.23-5.24
				c1.01-3.52-1.23-8.64-5.24-9.23c-73.42-10.66-149,1.18-217.6,28.66c-19.43,7.78-38.34,16.74-56.62,26.95
				C347.75,626.94,355.31,639.9,363.75,635.18L363.75,635.18z"/>
		</g>
	</g>
	<g>
		<g>
			<path d="M634.88,577.64c13.12-21.77,28.03-42.39,41.15-64.16c5-8.29-7.97-15.84-12.95-7.57c-13.12,21.77-28.03,42.39-41.15,64.16
				C616.93,578.35,629.89,585.9,634.88,577.64L634.88,577.64z"/>
		</g>
	</g>
	<g>
		<g>
			<path d="M665.27,513.17c7.41,22.97,14.79,45.99,20.32,69.51c2.21,9.39,16.68,5.42,14.46-3.99
				c-5.53-23.51-12.91-46.53-20.32-69.51C676.79,500.03,662.3,503.94,665.27,513.17L665.27,513.17z"/>
		</g>
	</g>
	<g>
		<g>
			<path d="M692.83,588.18c39.28-2.45,80.19,7.66,112.23,30.91c3.3,2.4,8.33,0.54,10.26-2.69c2.25-3.76,0.57-7.9-2.69-10.26
				c-33.94-24.62-78.22-35.55-119.81-32.96C683.24,573.78,683.17,588.78,692.83,588.18L692.83,588.18z"/>
		</g>
	</g>
	<g>
		<g>
			<path d="M674.5,444.6c-70.56-21.4-148.22-15.96-215.82,13.04c-61.31,26.31-116.04,74.68-136.26,139.83
				c-11.74,37.84-10.08,78.37,1.51,116.03c2.83,9.2,17.31,5.28,14.46-3.99c-9.8-31.87-12.31-65.7-4.24-98.24
				c7.33-29.56,22.67-56.57,43.12-79.02c44.58-48.93,110.09-77.07,175.26-83.96c39.64-4.19,79.8-0.82,117.98,10.77
				C679.77,461.87,683.73,447.39,674.5,444.6L674.5,444.6z"/>
		</g>
	</g>
	<g>
		<g>
			<path d="M334.3,760.31c-0.91,20.67,3.33,44.7,26.02,51.29c9.29,2.7,13.25-11.77,3.99-14.46c-15.36-4.46-15.59-23.62-15-36.83
				C349.73,750.66,334.72,750.68,334.3,760.31L334.3,760.31z"/>
		</g>
	</g>
	<g>
		<g>
			<path d="M674.5,459.06c17.17-5.05,35.36-2.13,52.33,5.19c20.72,8.93,38.89,23.24,54.62,39.22
				c36.18,36.78,62.46,85.43,71.05,136.46c4.73,28.09,3.06,57.16-6.92,83.95c-3.37,9.06,11.12,12.97,14.46,3.99
				c19.64-52.76,8.11-111.83-15.95-161.09c-22.3-45.66-58.28-90.58-104.78-113.21c-21.26-10.35-45.61-15.8-68.81-8.98
				C661.27,447.31,665.2,461.79,674.5,459.06L674.5,459.06z"/>
		</g>
	</g>
	<g>
		<g>
			<path d="M839.65,750.1c-1.4,12.41-7.72,30.07-19.18,36.59c-8.39,4.77-0.84,17.73,7.57,12.95c16.43-9.34,24.6-31.75,26.61-49.54
				c0.46-4.03-3.77-7.5-7.5-7.5C842.71,742.6,840.1,746.05,839.65,750.1L839.65,750.1z"/>
		</g>
	</g>
	<g>
		<g>
			<path d="M505.33,931.08c3.21,31.86,25.34,59.02,55.19,70.13c29.85,11.11,63.44,0.94,84.89-21.89
				c12.29-13.07,19.93-29.29,22-47.09c0.47-4.03-3.78-7.5-7.5-7.5c-4.44,0-7.03,3.46-7.5,7.5c-2.91,24.94-22.36,47.04-45.83,55.11
				c-24.62,8.46-50.75,0.21-68.35-18.44c-9.7-10.29-16.48-23.66-17.91-37.82c-0.41-4.03-3.16-7.5-7.5-7.5
				C509.09,923.58,504.92,927.03,505.33,931.08L505.33,931.08z"/>
		</g>
	</g>
	<g>
		<g>
			<path d="M463.47,919.87c-15.56,125.61-31.12,251.22-46.68,376.82c-4.42,35.7-8.85,71.4-13.27,107.1c-0.5,4.03,3.8,7.5,7.5,7.5
				c4.47,0,7-3.46,7.5-7.5c15.56-125.61,31.12-251.22,46.68-376.82c4.42-35.7,8.85-71.4,13.27-107.1c0.5-4.03-3.8-7.5-7.5-7.5
				C466.5,912.37,463.97,915.84,463.47,919.87L463.47,919.87z"/>
		</g>
	</g>
	<g>
		<g>
			<path d="M697.11,930.83c4.57,128.09,18.28,255.84,41,381.99c6.46,35.85,13.66,71.57,21.57,107.13
				c2.09,9.42,16.56,5.43,14.46-3.99c-27.67-124.46-46.48-250.83-56.09-377.96c-2.7-35.68-4.67-71.41-5.94-107.16
				C711.76,921.2,696.76,921.16,697.11,930.83L697.11,930.83z"/>
		</g>
	</g>
	<g>
		<g>
			<path d="M407.24,1410.27c87.43,43.79,188.7,61.85,285.01,40.96c27.1-5.88,53.38-14.98,78.45-26.81
				c8.72-4.12,1.12-17.05-7.57-12.95c-85.29,40.25-183.68,42.27-273.27,15.63c-25.86-7.69-50.93-17.7-75.05-29.78
				C406.2,1393.01,398.59,1405.94,407.24,1410.27L407.24,1410.27z"/>
		</g>
	</g>
	<g>
		<g>
			<path d="M523.68,1448.21c-1.93,48.06-3.51,96.14-3.28,144.24c1.84-2.41,3.67-4.82,5.51-7.23c-10.7,3.54-22.38,9.82-27.04,20.71
				c-3.54,8.27-1.55,18.84,8.05,21.45c8.27,2.25,17.86-0.28,25.91-2.29c11.75-2.93,23.24-6.8,34.78-10.45
				c3.26-1.03,5.38-3.83,5.51-7.23c1.86-51.63,2.79-103.29,4.66-154.92c0.35-9.65-14.65-9.64-15,0
				c-1.86,51.63-2.79,103.29-4.66,154.92c1.84-2.41,3.67-4.82,5.51-7.23c-15.08,4.77-30.82,11.19-46.66,12.8
				c-1.83,0.19-5.65-0.21-6.05-0.06c-1.03,0.38-0.22-0.77-0.02,0.01c0.01,0.03,1.04,1.12,1.07,1.13c0.89,0.32-0.25,0.86,0.24-1.01
				c1.88-7.19,11.37-11.27,17.7-13.37c3.14-1.04,5.52-3.82,5.51-7.23c-0.23-48.1,1.35-96.19,3.28-144.24
				C539.07,1438.56,524.07,1438.57,523.68,1448.21L523.68,1448.21z"/>
		</g>
	</g>
	<g>
		<g>
			<path d="M589.22,1458.72c-3.1,50.73-5.33,101.85,0,152.51c0.47,4.45,3.09,6.93,7.5,7.5c11.54,1.49,23.05,3.21,34.61,4.49
				c7.14,0.79,14.47,1.59,21.64,0.74c5.81-0.68,11.77-2.54,15.02-7.83c3.86-6.3-0.26-12.1-4.25-16.98
				c-5.99-7.33-12.58-14.28-18.97-21.26c-1.04-1.13-2.08-2.98-1.24-0.85c-0.26-0.66-0.41-1.37-0.57-2.06
				c-0.11-0.51-0.5-3.24-0.27-1.43c-0.15-1.19-0.25-2.39-0.34-3.58c-1.21-15.69-0.49-31.6-0.01-47.3
				c0.65-21.4,1.69-42.78,2.48-64.17c0.36-9.65-14.64-9.64-15,0c-1.26,34.12-3.77,68.38-2.89,102.54
				c0.14,5.45,0.37,10.96,1.28,16.34c1,5.92,4.41,9.39,8.37,13.85c5.54,6.26,12.32,12.73,17.05,19.13c-0.06-0.08,1.04,2,1.37,2.15
				c-0.77-0.36-0.05-3.72,0.17-4.18c0.11-0.22,0.9-0.35,0.32-0.32c0.03,0-1.75,0.86-0.68,0.4c0.9-0.38-1.03,0.27-1.27,0.33
				c-1.92,0.46-1.1,0.35-3.06,0.45c-1.59,0.08-3.17,0.12-4.76,0.09c-4.36-0.07-8.71-0.47-13.04-0.93
				c-12.02-1.28-23.98-3.09-35.97-4.64c2.5,2.5,5,5,7.5,7.5c-5.33-50.66-3.1-101.78,0-152.51
				C604.81,1449.08,589.81,1449.12,589.22,1458.72L589.22,1458.72z"/>
		</g>
	</g>
	<g>
		<g>
			<path d="M525.89,1579.45c-21.96,5.41-47.54,10.46-65.05,25.72c-9.1,7.93-12.32,19.95-5.57,30.54
				c8.07,12.67,23.33,13.36,37.04,13.61c25.99,0.47,52.02-2.47,77.96-3.57c5.27-0.22,8.02-4.59,7.23-9.49
				c-1.46-9.04-2.92-18.09-4.38-27.13c-0.64-3.99-5.63-6.25-9.23-5.24c-4.25,1.19-5.89,5.2-5.24,9.23
				c1.46,9.04,2.92,18.09,4.38,27.13c2.41-3.16,4.82-6.33,7.23-9.49c-21.31,0.91-42.58,2.76-63.9,3.42
				c-8.06,0.25-16.18,0.38-24.22-0.37c-2.58-0.24-5.15-0.64-7.65-1.33c-0.51-0.14-3.14-1.08-2.43-0.75
				c-1.03-0.48-2.02-1.22-1.57-0.83c-1.46-1.28-2.63-3.02-3.47-4.86c-0.35-0.77-0.79-1.8-0.53-3.52c-0.27,1.82,0.32-0.99,0.46-1.4
				c0.37-1.07-0.52,1.04,0.01,0.01c0.25-0.49,0.51-0.99,0.83-1.44c0.78-1.1,1.78-2.26,3.66-3.91c6.85-5.99,18.2-10.27,27.56-13.39
				c10.14-3.38,20.5-5.92,30.87-8.47C539.24,1591.61,535.28,1577.14,525.89,1579.45L525.89,1579.45z"/>
		</g>
	</g>
	<g>
		<g>
			<path d="M636.82,1587.54c17.07,4.6,33.67,10.71,49.52,18.57c6.25,3.1,15.1,6.32,19.79,11.75c3.4,3.93,0.33,6.61-3.58,8.35
				c-5.68,2.53-11.98,2.56-18.06,2.7c-9.06,0.21-18.13,0.21-27.19,0.01c-18.77-0.42-37.51-1.77-56.16-3.95
				c2.41,1.84,4.82,3.67,7.23,5.51c-1.48-7.12-2.95-14.25-4.43-21.37c-1.96-9.45-16.42-5.45-14.46,3.99
				c1.48,7.12,2.95,14.25,4.43,21.37c0.72,3.49,4.07,5.14,7.23,5.51c17.04,1.99,34.16,3.29,51.31,3.82
				c8.41,0.26,16.83,0.34,25.24,0.24c7.38-0.09,14.86,0.03,22.13-1.42c11.04-2.19,23.35-9.3,22.91-22.07
				c-0.53-15.31-18.86-22.55-30.47-28.21c-16.5-8.04-33.74-14.5-51.46-19.28C631.48,1570.56,627.5,1585.03,636.82,1587.54
				L636.82,1587.54z"/>
		</g>
	</g>
	<g>
		<g>
			<path d="M347.53,523.44c2.66,3.65,5.31,7.31,7.97,10.96c2.3,3.16,6.62,5.04,10.26,2.69c3.14-2.02,5.16-6.87,2.69-10.26
				c-2.66-3.65-5.31-7.31-7.97-10.96c-2.3-3.16-6.62-5.04-10.26-2.69C347.08,515.2,345.06,520.05,347.53,523.44L347.53,523.44z"/>
		</g>
	</g>
	<g>
		<g>
			<path d="M360.3,514.99c22.61-21.23,45.22-42.46,67.82-63.68c-3.93-0.51-7.85-1.01-11.78-1.52c5.62,8.61,11.24,17.22,16.86,25.82
				c5.26,8.05,18.25,0.54,12.95-7.57c-5.62-8.61-11.24-17.22-16.86-25.82c-2.69-4.12-8.13-4.94-11.78-1.52
				c-22.61,21.23-45.22,42.46-67.82,63.68C342.64,511.01,353.27,521.6,360.3,514.99L360.3,514.99z"/>
		</g>
	</g>
	<g>
		<g>
			<path d="M795.19,501.21c7.61-4.54,15.22-9.07,22.83-13.61c-3.42-0.9-6.84-1.79-10.26-2.69c14.5,23.89,28.99,47.78,43.49,71.67
				c0.39-3.03,0.78-6.06,1.17-9.09c-5.84,4.9-11.68,9.79-17.51,14.69c-7.41,6.21,3.25,16.77,10.61,10.61
				c5.84-4.9,11.68-9.79,17.51-14.69c2.48-2.08,2.78-6.43,1.17-9.09c-14.5-23.89-28.99-47.78-43.49-71.67
				c-2.09-3.44-6.73-4.8-10.26-2.69c-7.61,4.54-15.22,9.07-22.83,13.61C779.33,493.2,786.87,506.17,795.19,501.21L795.19,501.21z"/>
		</g>
	</g>
	<g>
		<g>
			<path d="M433.92,443.03c10.42-28.15-2.97-60.19-27.1-76.55c-26.2-17.76-60.76-16.49-88.61-3.6
				c-51.95,24.03-101.49,99.17-56.8,151.35c20.94,24.46,56.56,24.57,83.33,10.19c14.05-7.55,25.55-19.1,35.15-31.67
				c9.82-12.85,18.65-27.27,24.89-42.21c6.41-15.35,7.8-32.75-3.24-46.34c-9.19-11.32-24.51-16.9-38.85-15.99
				c-16.37,1.05-31.76,8.66-44.65,18.47c-11.69,8.89-22,20.45-25.92,34.92c-3.53,13.03-0.59,27.45,7.94,37.94
				c9.34,11.48,24.58,14.85,38.25,9.52c13.45-5.24,28.94-17.79,32.68-32.36c3.55-13.83-6.91-31.15-22.71-26.03
				c-6.7,2.17-11.35,7.97-11.45,15.06c-0.14,9.66,14.86,9.66,15,0c0.03-2.37,3.6,0,4.18,1.07c2.34,4.33-0.5,9.5-3.16,12.95
				c-6.5,8.42-18.19,18-29.55,16.85c-9.17-0.93-14.93-9.15-16.94-17.49c-2.42-10.02,1.5-20.05,7.62-27.97
				c7.28-9.41,17.65-16.66,28.21-21.91c10.7-5.32,23.16-8.18,34.78-4.27c10.31,3.47,18.05,12.03,17.99,23.23
				c-0.06,13.04-7.93,25.53-14.32,36.4c-12.21,20.78-28.34,42.09-51.81,50.67c-21.59,7.89-46.54,4.49-59.91-15.8
				c-28.52-43.27,10.18-97.28,48.23-119.15c23.13-13.3,52.7-17.34,76.84-4.09c21.97,12.07,34.42,38.69,25.48,62.83
				C416.1,448.11,430.59,452.02,433.92,443.03L433.92,443.03z"/>
		</g>
	</g>
	<g>
		<g>
			<path d="M814.16,491.43c19.01,22.56,24.35,54.36,47.41,73.9c10.37,8.79,23.23,15.47,37.08,15.7
				c13.73,0.23,26.01-6.83,33.77-17.95c7.63-10.94,10.34-24.69,11.55-37.73c1.59-17.24,0.89-34.65-1.46-51.78
				c-4.2-30.64-13.39-66.13-38.63-86.39c-11.11-8.92-24.89-14.96-39.35-14.53c-13.41,0.4-25.83,6.15-35.8,14.93
				c-21.62,19.03-28.13,48.94-21.1,76.18c3.74,14.52,10.86,28.19,19.66,40.26c8.71,11.95,19.22,25.08,32.89,31.52
				c12.7,5.99,27.65,4.59,37.28-6.28c8.28-9.35,11.61-21.91,13.25-34.02c2.11-15.65,3.09-32.34-3.25-47.18
				c-5.37-12.55-16.85-23.12-30.7-24.93c-14.34-1.87-27.66,7.02-32.87,20.27c-5.33,13.56,0.43,28.14,12.13,36.19
				c5.52,3.79,12.33,5.67,19,5.28c9.6-0.55,9.66-15.55,0-15c-9.55,0.55-19.66-7.41-18.13-17.73c1.37-9.19,10.5-16.02,19.63-13.89
				c11.11,2.58,17.55,13.53,19.72,23.93c2.35,11.25,1.15,24.02-0.96,35.24c-1.56,8.3-4.13,18.64-11.28,24.01
				c-9.27,6.95-20.47-0.11-27.65-6.69c-17.44-15.98-31.85-38.45-35.76-62.01c-3.48-20.97,3.84-43.3,21.03-56.44
				c18.5-14.15,41.8-9.1,57.51,6.73c18.42,18.56,25.19,47.59,28.68,72.65c1.93,13.84,2.44,27.91,1.73,41.86
				c-0.55,10.79-1.71,22.28-6.58,32.11c-4.92,9.93-13.51,16.79-24.97,16.38c-11.49-0.41-22.31-7.43-30.18-15.35
				c-9.29-9.34-15.07-21.61-20.85-33.28c-6.38-12.88-12.86-25.51-22.18-36.57C818.54,473.43,807.97,484.08,814.16,491.43
				L814.16,491.43z"/>
		</g>
	</g>
</g>
<g id="Ebene_10">
</g>
<g id="Ebene_4">
</g>
<g id="Ebene_11">
	<g class="st4">
		<path d="M660.18,456.38c-131.67,7.51-342.47,63.42-320.23,258.6c-29.64-78.04,11.67-170.52,80.26-218.12
			s157.41-57.04,240.34-47.46"/>
		<g>
			<path d="M660.18,448.88c-59.69,3.45-120.11,14.52-175.58,37.32c-55.96,23.01-109.44,59.86-135.66,116.22
				c-16.37,35.19-20.76,74.2-16.49,112.56c4.91-0.66,9.82-1.33,14.73-1.99c-21.12-56.47-4.22-119.23,31.4-165.97
				c39.94-52.39,102.72-79.88,166.56-89.41c38.14-5.69,77.18-5.07,115.41-0.71c4.03,0.46,7.5-3.78,7.5-7.5c0-4.44-3.46-7.04-7.5-7.5
				c-70.51-8.03-144.78-2.76-209.5,28.36c-58.66,28.21-105.12,79.96-122,143.44c-9.01,33.89-8.69,70.26,3.66,103.27
				c1.32,3.53,4.32,5.9,8.23,5.37c3.35-0.45,6.92-3.65,6.5-7.37c-3.65-32.8-1.17-66.03,10.97-96.93
				c10.44-26.57,28.1-49.74,49.34-68.61c44.38-39.42,103.01-60.62,160.21-73.07c30.35-6.61,61.21-10.7,92.21-12.49
				C669.77,463.33,669.83,448.33,660.18,448.88L660.18,448.88z"/>
		</g>
	</g>
	<g class="st4">
		<path d="M348.08,767.1c4.05,9.13,8.11,18.27,12.16,27.4c-7.6-4.67-11.51-14.61-9.14-23.21"/>
		<g>
			<path d="M341.61,770.89c4.05,9.13,8.11,18.27,12.16,27.4c3.42-3.42,6.84-6.84,10.26-10.26c-4.8-3.2-7.01-9.16-5.7-14.74
				c2.21-9.39-12.25-13.39-14.46-3.99c-2.92,12.38,2.05,24.64,12.59,31.68c6.89,4.6,13-4.09,10.26-10.26
				c-4.05-9.13-8.11-18.27-12.16-27.4c-1.66-3.73-7.02-4.53-10.26-2.69C340.46,762.81,339.98,767.21,341.61,770.89L341.61,770.89z"
				/>
		</g>
	</g>
	<g class="st4">
		<path d="M368.75,637.55c34.75,286.05,216.53,294.57,391.93,254.67c-60.78,21.22-123.53,40.47-187.91,40.23
			c-64.38-0.24-131.45-22.58-172.49-72.18c-51.45-62.18-51.87-152.6-32.73-231"/>
		<g>
			<path d="M361.25,637.55c5.91,48.14,16.29,96.07,36.6,140.33c15.08,32.85,36.26,63.43,64.23,86.6
				c24.84,20.57,54.03,34.95,85.2,43.08c31.81,8.29,65.06,10.45,97.81,9.05c35.2-1.5,70.21-6.98,104.64-14.31
				c4.32-0.92,8.63-1.87,12.93-2.85c-1.33-4.82-2.66-9.64-3.99-14.46c-81.28,28.34-169.83,54.46-255.6,30.47
				c-35.97-10.06-69.76-28.68-94.53-57c-24.31-27.78-37.64-63.43-42.67-99.67c-5.89-42.46-1.15-86.08,8.89-127.53
				c2.27-9.38-12.19-13.38-14.46-3.99c-18.17,75.02-20.4,163.81,27.36,228.91c49.38,67.31,137.41,89.55,217.14,82.34
				c54.31-4.91,106.61-21.2,157.85-39.07c9.07-3.16,5.51-16.62-3.99-14.46c-63.06,14.31-130.71,24.28-194.57,11.1
				c-29.87-6.17-57.96-17.52-82.73-35.47c-27.05-19.59-48.03-46.48-63.5-75.9c-23.84-45.34-35.44-96.65-41.64-147.17
				c-0.49-4.02-3.09-7.5-7.5-7.5C365.08,630.05,360.76,633.5,361.25,637.55L361.25,637.55z"/>
		</g>
	</g>
	<g class="st4">
		<path d="M341.02,725.83c-0.98,9.71,2.62,19.78,9.54,26.66c-10.64-2.72-17.95-14.7-15.5-25.41"/>
		<g>
			<path d="M333.52,725.83c-0.91,11.9,3.53,23.38,11.73,31.96c2.43-4.18,4.86-8.36,7.3-12.54c-6.7-1.97-11.61-9.15-10.26-16.18
				c1.81-9.43-12.64-13.47-14.46-3.99c-2.91,15.14,5.76,30.23,20.74,34.63c7.35,2.16,12.36-7.24,7.3-12.54
				c-5.64-5.89-7.96-13.29-7.34-21.36C349.25,716.2,334.25,716.25,333.52,725.83L333.52,725.83z"/>
		</g>
	</g>
	<g class="st4">
		<path d="M833.52,728.61c-0.97,9.47,1.79,19.28,7.57,26.84c-5.57-7.6-7.8-17.56-6.02-26.81"/>
		<g>
			<path d="M826.02,728.61c-0.88,10.86,2.17,21.82,8.59,30.63c5.6,7.68,18.52,0.43,12.95-7.57c-4.32-6.2-6.54-13.45-5.26-21.03
				c1.59-9.44-12.87-13.5-14.46-3.99c-1.93,11.47,0.06,22.94,6.78,32.59c4.32-2.52,8.63-5.05,12.95-7.57
				c-5.07-6.94-7.24-14.48-6.54-23.06C841.79,718.98,826.79,719.03,826.02,728.61L826.02,728.61z"/>
		</g>
	</g>
	<g class="st4">
		<path d="M477.62,928.78c-50.94,206.73,53,458.23,284.7,487.83c-112.87,39.13-243.56,51.05-347.31-27.05
			c28.5-151.92,54.71-309.82,61.9-464.22"/>
		<g>
			<path d="M470.39,926.78c-10.12,41.33-14.31,84.14-12.58,126.64c1.72,42.36,9.11,84.65,22.4,124.92
				c13.02,39.48,31.61,77.32,56.11,110.97c24.38,33.5,54.25,62.78,89.01,85.42c36.12,23.54,77.16,39.37,119.61,46.78
				c5.77,1.01,11.57,1.84,17.38,2.59c-0.66-4.91-1.33-9.82-1.99-14.73c-86.17,29.76-182.73,44.19-270.49,12.43
				c-25.49-9.22-49.35-22.5-71.04-38.72c1.15,2.82,2.3,5.65,3.45,8.47c22.61-120.59,43.25-241.73,54.85-363.94
				c3.23-34.03,5.72-68.13,7.33-102.27c0.45-9.65-14.55-9.63-15,0c-5.71,121.27-22.65,241.7-43.35,361.23
				c-5.84,33.71-11.99,67.37-18.29,101c-0.68,3.64,0.57,6.31,3.45,8.47c39.21,29.34,85.46,47.95,133.88,54.94
				c47.17,6.8,95.04,3.66,141.64-5.73c26.32-5.3,52.2-12.64,77.57-21.4c8.41-2.9,6.23-13.67-1.99-14.73
				c-82.14-10.66-155.67-53.67-206.57-118.76c-49.41-63.18-76.39-143-82.12-222.55c-3.31-45.94,0.27-92.28,11.23-137.04
				C487.15,921.4,472.69,917.4,470.39,926.78L470.39,926.78z"/>
		</g>
	</g>
	<g class="st4">
		<path d="M526.63,937.89c-0.24,12.69-2.78,31.44,0.58,29.53c36.62-20.85,88.08-15.75,134.46-31.54
			c-44.49-0.05-104.36-4.75-148.85-4.8"/>
		<g>
			<path d="M519.13,937.89c-0.17,6.96-0.84,13.9-1.08,20.86c-0.18,5.16-0.54,12,4.52,15.11c5.96,3.66,13.43-2.85,18.9-5.07
				c7.19-2.93,14.74-5.03,22.3-6.74c33.13-7.51,67.48-8.07,99.9-18.93c7.83-2.62,6.76-14.71-1.99-14.73
				c-49.66-0.12-99.19-4.69-148.85-4.8c-9.65-0.02-9.67,14.98,0,15c49.66,0.12,99.19,4.69,148.85,4.8
				c-0.66-4.91-1.33-9.82-1.99-14.73c-23.24,7.78-47.57,10.53-71.72,13.99c-11.27,1.61-22.54,3.4-33.57,6.24
				c-5.25,1.35-10.44,2.94-15.5,4.89c-2.49,0.96-4.97,1.99-7.4,3.09c-1.38,0.62-2.74,1.27-4.09,1.95c-1.51,0.76-4.4,1.03-0.81,1.22
				c1.26,0.34,2.52,0.68,3.79,1.02c-0.58-0.35,3.49,2.73,2.72,3.79c0.15-0.21-0.12-2.47-0.12-2.71c-0.03-2.42,0.11-4.85,0.25-7.27
				c0.31-5.66,0.76-11.31,0.9-16.97C534.37,928.24,519.37,928.24,519.13,937.89L519.13,937.89z"/>
		</g>
	</g>
	<g class="st4">
		<path d="M677.89,514.17c11.1,29.41,32.95,54.63,60.48,69.8c-16.39,3.63-33.28-6.88-42.35-21c-9.07-14.12-12.02-31.19-14.77-47.75"
			/>
		<g>
			<path d="M670.66,516.16c12.06,31.39,34.51,57.85,63.93,74.28c0.6-4.57,1.19-9.14,1.79-13.71c-13.23,2.6-26.41-6.31-33.47-16.94
				c-9.14-13.75-11.76-30.6-14.42-46.58c-1.58-9.5-16.04-5.47-14.46,3.99c3.24,19.41,7.06,39.57,19.74,55.29
				c11.22,13.89,28.75,22.2,46.6,18.7c6.41-1.26,7.18-10.7,1.79-13.71c-25.84-14.44-46.39-37.61-57.04-65.32
				C681.69,503.25,667.19,507.13,670.66,516.16L670.66,516.16z"/>
		</g>
	</g>
	<g class="st4">
		<path d="M287.21,402.68c-26.74,46.87,8.39,105.33,61.92,104.3c-19.01,22.05-58.51,16.94-75.78-6.5
			c-17.27-23.44-13.7-57.97,3.3-81.6"/>
		<g>
			<path d="M280.73,398.9c-13.52,24.22-13.4,53.77,0.86,77.68c14.17,23.76,39.91,38.18,67.54,37.9c-1.77-4.27-3.54-8.54-5.3-12.8
				c-15.77,17.69-45.34,14.42-61.08-1.7c-20.35-20.84-15.01-55.46,0.39-77.32c5.57-7.91-7.43-15.41-12.95-7.57
				c-15.9,22.57-20.8,53.37-9.28,78.9c10.06,22.29,34.13,36.01,58.44,34.47c13.33-0.84,26.11-6.09,35.09-16.17
				c4.19-4.7,1.48-12.87-5.3-12.8c-22.41,0.22-43.08-11.16-54.59-30.47c-11.52-19.31-11.81-42.93-0.86-62.54
				C298.39,398.03,285.44,390.46,280.73,398.9L280.73,398.9z"/>
		</g>
	</g>
	<g class="st4">
		<path d="M871.3,384.59c-41.89,29.05-54.28,93.03-26.28,135.62c-11.96-22.53-24.21-46.07-25.03-71.56
			c-0.82-25.49,13.52-53.41,38.33-59.34"/>
		<g>
			<path d="M867.52,378.11c-45.16,31.85-59.18,99.14-28.97,145.89c5.24,8.1,17.5,0.99,12.95-7.57
				c-12.19-22.97-25.98-48.3-23.82-75.2c1.54-19.25,12.95-39.64,32.64-44.69c9.34-2.4,5.38-16.87-3.99-14.46
				c-24.89,6.38-39.95,30.44-43.16,54.77c-4.1,31.07,11.29,60.6,25.38,87.15c4.32-2.52,8.63-5.05,12.95-7.57
				c-25.51-39.47-15.14-98.05,23.59-125.36C882.92,385.55,875.43,372.53,867.52,378.11L867.52,378.11z"/>
		</g>
	</g>
	<g class="st4">
		<path d="M470.33,1619.55c30.27,16.16,66.45,20.93,99.86,13.16c-25.58,6.13-52.24,5.83-78.51,4.45
			c-7.13-0.38-14.69-0.98-20.43-5.23s-8.32-13.5-3.3-18.58"/>
		<g>
			<path d="M466.54,1626.03c32.42,17.05,69.92,21.99,105.64,13.91c-1.33-4.82-2.66-9.64-3.99-14.46
				c-19.24,4.49-38.95,5.35-58.65,4.89c-8.7-0.2-18.06,0.18-26.61-1.61c-3.12-0.65-6.67-1.65-8.68-4.33
				c-1.01-1.35-2.34-4.24-1.01-5.78c6.26-7.28-4.3-17.94-10.61-10.61c-7.02,8.16-5.88,19.79,1.42,27.5
				c7.75,8.19,19.93,8.75,30.43,9.27c26.01,1.28,52.21,1.09,77.69-4.86c9.41-2.19,5.42-16.59-3.99-14.46
				c-31.68,7.16-65.34,2.72-94.08-12.4C465.58,1608.59,457.99,1621.53,466.54,1626.03L466.54,1626.03z"/>
		</g>
	</g>
	<g class="st4">
		<path d="M601.69,1616.28c33.45,20.41,76.08,13.67,114.55,6.25c-37.24,13.01-78.9,12.96-116.11-0.14"/>
		<g>
			<path d="M597.91,1622.76c36.53,21.79,80.76,14.61,120.33,7.01c-1.33-4.82-2.66-9.64-3.99-14.46
				c-36.39,12.5-75.76,12.44-112.12-0.14c-9.14-3.16-13.07,11.32-3.99,14.46c38.64,13.37,81.42,13.42,120.09,0.14
				c9.17-3.15,5.49-16.29-3.99-14.46c-35.45,6.81-75.97,14.07-108.77-5.5C597.17,1604.85,589.61,1617.81,597.91,1622.76
				L597.91,1622.76z"/>
		</g>
	</g>
	<g class="st4">
		<path d="M535.09,1458.77c3,48.68,10.78,97.06,23.2,144.23c-15.33,5.97-32.19,7.97-48.49,5.74c13.6-4.95,19.57-20.76,22.05-35.02
			c5.41-31.09,2.15-62.95-1.13-94.34"/>
		<g>
			<path d="M527.59,1458.77c3.1,49.36,10.94,98.37,23.47,146.22c1.75-3.08,3.49-6.15,5.24-9.23c-15,5.68-30.58,7.49-46.5,5.47
				c0.66,4.91,1.33,9.82,1.99,14.73c21.76-8.61,26.88-32.81,29.17-53.71c3.03-27.6,0.13-55.4-2.74-82.88
				c-0.42-4.03-3.15-7.5-7.5-7.5c-3.73,0-7.92,3.45-7.5,7.5c2.54,24.32,5.09,48.82,3.56,73.3c-0.64,10.25-1.76,20.7-4.96,30.5
				c-2.35,7.22-6.52,15.36-14.02,18.33c-8.09,3.2-6.5,13.65,1.99,14.73c17.04,2.16,34.42,0.08,50.48-6.01
				c3.83-1.45,6.35-5,5.24-9.23c-12.2-46.58-19.91-94.18-22.93-142.23C541.99,1449.18,526.99,1449.11,527.59,1458.77L527.59,1458.77
				z"/>
		</g>
	</g>
	<g class="st4">
		<path d="M601.1,1464.27c3.11,48.33,11.15,96.34,23.97,143.05c-5.3,5.44-15.27,2.52-19.58-3.74c-4.31-6.26-4.56-14.36-4.67-21.96
			c-0.52-38.2-1.05-76.4-1.57-114.6"/>
		<g>
			<path d="M593.6,1464.27c3.22,49.02,11.3,97.65,24.24,145.04c0.64-2.43,1.29-4.86,1.93-7.3c-2.06,1.85-5.77-0.17-7.34-1.78
				c-3.34-3.41-3.76-9.18-3.98-13.68c-0.63-13.14-0.42-26.36-0.6-39.51c-0.37-26.67-0.73-53.35-1.1-80.02
				c-0.13-9.64-15.13-9.67-15,0c0.45,32.6,0.89,65.2,1.34,97.81c0.19,13.49-2.09,30.75,5.92,42.54
				c7.02,10.32,21.66,13.96,31.36,5.26c1.96-1.76,2.6-4.82,1.93-7.3c-12.59-46.12-20.57-93.35-23.7-141.06
				C607.97,1454.69,592.96,1454.62,593.6,1464.27L593.6,1464.27z"/>
		</g>
	</g>
</g>
<g id="Ebene_12">
	<g class="st4">
		<g>
			<path class="st5" d="M647.74,1014.34c1.34,68.04,6.3,136,14.96,203.51c2.61,20.36,5.49,40.69,8.7,60.96
				c1.64,10.37,15.12,17.04,24.6,13.97c11.26-3.64,15.73-13.49,13.97-24.6c-1.34-8.44-2.62-16.89-3.85-25.35
				c-0.57-3.9-1.12-7.81-1.66-11.72c-0.27-1.95-0.54-3.91-0.8-5.86c0.05,0.4,0.37,2.8,0.06,0.43c-0.17-1.3-0.34-2.61-0.51-3.91
				c-2.17-16.63-4.11-33.28-5.84-49.96c-3.45-33.36-6-66.8-7.66-100.3c-0.94-19.05-1.59-38.1-1.97-57.17
				c-0.21-10.45-9.05-20.49-20-20C657.08,994.82,647.52,1003.14,647.74,1014.34L647.74,1014.34z"/>
		</g>
	</g>
	<g class="st4">
		<g>
			<path class="st5" d="M703.92,1363.42c10.46,0,20.48-9.2,20-20c-0.49-10.84-8.79-20-20-20c-10.46,0-20.48,9.2-20,20
				C684.4,1354.25,692.7,1363.42,703.92,1363.42L703.92,1363.42z"/>
		</g>
	</g>
	<g class="st4">
		<g>
			<path class="st5" d="M759.11,647.09c0.35,2.14,0.69,4.28,1.02,6.43c0.13,0.84,0.99,7.31,0.44,2.97c0.47,3.69,0.9,7.38,1.27,11.09
				c0.81,8.02,1.38,16.06,1.72,24.11c0.68,16.1,0.41,32.25-0.8,48.32c-0.28,3.71-0.61,7.41-0.99,11.12
				c-0.22,2.16-0.46,4.32-0.71,6.47c-0.1,0.84-0.95,7.32-0.35,2.98c-1.11,7.98-2.45,15.93-4.02,23.84
				c-3.15,15.82-7.25,31.42-12.21,46.76c-3.22,9.96,3.75,22.28,13.97,24.6c10.96,2.5,21.16-3.3,24.6-13.97
				c21.41-66.25,25.88-136.77,14.62-205.35c-1.7-10.35-15.08-17.05-24.6-13.97C761.87,626.11,757.29,635.99,759.11,647.09
				L759.11,647.09z"/>
		</g>
	</g>
	<g class="st4">
		<g>
			<path class="st5" d="M715.1,513.52c4.99,4.42,9.77,9.06,14.26,13.99c2.24,2.46,4.42,4.99,6.52,7.57c0.93,1.14,3.06,3.98,0.98,1.2
				c1.16,1.56,2.31,3.12,3.44,4.71c3.84,5.45,7.38,11.1,10.6,16.94c1.61,2.92,3.13,5.88,4.58,8.88c0.72,1.5,1.42,3.01,2.1,4.53
				c0.34,0.76,0.68,1.52,1,2.29c-0.94-2.22-0.97-2.27-0.11-0.16c3.89,9.67,13.52,17.56,24.6,13.97c9.35-3.03,18.15-14.21,13.97-24.6
				c-11.91-29.64-29.64-56.36-53.66-77.61c-7.83-6.93-20.67-8.29-28.28,0C708.14,492.82,706.73,506.12,715.1,513.52L715.1,513.52z"
				/>
		</g>
	</g>
	<g class="st4">
		<g>
			<path class="st5" d="M862.84,423.3c1.73,3.45,3.45,6.91,5.18,10.36c2.16,4.32,7.42,7.94,11.95,9.19
				c4.79,1.32,11.16,0.72,15.41-2.02c4.27-2.75,8.03-6.85,9.19-11.95c1.24-5.44,0.49-10.4-2.02-15.41
				c-1.73-3.45-3.45-6.91-5.18-10.36c-2.16-4.32-7.42-7.94-11.95-9.19c-4.79-1.32-11.16-0.72-15.41,2.02
				c-4.27,2.75-8.03,6.85-9.19,11.95C859.59,413.34,860.34,418.29,862.84,423.3L862.84,423.3z"/>
		</g>
	</g>
	<g class="st4">
		<g>
			<path class="st5" d="M335.98,402.12c10.46,0,20.48-9.2,20-20c-0.49-10.84-8.79-20-20-20c-10.46,0-20.48,9.2-20,20
				C316.46,392.95,324.77,402.12,335.98,402.12L335.98,402.12z"/>
		</g>
	</g>
</g>
<g id="Ebene_18">
</g>
<g id="Ebene_22">
</g>
<g id="Ebene_13">
	<g>
		<g>
			<path d="M590.26,727.36c-19.28-7.97-42.8,10.23-39.96,30.82c2.74,19.88,27.56,31.2,44.56,20.99c8.27-4.96,0.73-17.94-7.57-12.95
				c-7.94,4.77-20.84-0.43-22.22-10.04c-1.59-11.09,12.13-18.1,21.2-14.35c3.77,1.56,8.21-1.69,9.23-5.24
				C596.72,732.29,593.98,728.9,590.26,727.36L590.26,727.36z"/>
		</g>
	</g>
	<ellipse class="st6" cx="498.95" cy="720.3" rx="10.25" ry="18.83"/>
	<ellipse class="st6" cx="672.51" cy="723.2" rx="10.25" ry="18.83"/>
	<circle class="st7" cx="501.2" cy="711.87" r="2.25"/>
	<circle class="st7" cx="674.76" cy="711.87" r="2.25"/>
</g>
<g id="Ebene_23">
	<g>
		<path class="st1" d="M254.29,865.06c15.77,53.49,50.94,195.71,67.47,195.71c17.67,0,115.89-40.05,126.28-70.31
			c2.51-7.3,3.8-34.06,10.91-65.12c-16.97,11.5-33.51,37.15-53.37,42.22c0,0-43.04,2-57.49-12.53
			c-23.13-23.26-28.54-116.06-36.76-118.54c-20.44-6.17-40.44,11.78-56.1,26.98"/>
		<g>
			<path class="st1" d="M244.65,867.72c8.75,29.76,16.56,59.79,25.11,89.61c8.61,30.01,17.12,60.5,29.65,89.16
				c3.4,7.76,7.54,17.66,15.18,22.22c7.99,4.77,19.48,0.25,27.55-2.32c29.6-9.42,59.42-22.97,85.09-40.55
				c11.84-8.11,25.83-18.41,30.46-32.72c2.55-7.88,2.82-16.73,3.9-24.89c1.79-13.5,4.01-26.94,7.02-40.23
				c1.77-7.84-7.08-16.58-14.69-11.29c-12.14,8.43-21.58,19.8-32.48,29.65c-4.44,4.01-9.35,8.09-14.9,10.41
				c-0.91,0.38-3.68,1.3-0.97,0.79c-0.16,0.03-0.34,0-0.51,0.02c-1.08,0.11-2.2,0.06-3.28,0.07c-9.02,0.08-18.63-0.48-26.34-1.88
				c-2.6-0.47-5.19-1.04-7.74-1.75c-1.24-0.34-2.47-0.72-3.69-1.13c-0.68-0.23-1.36-0.47-2.03-0.73c-1.76-0.68,1.92,0.98-0.98-0.43
				c-1.05-0.51-2.08-1.05-3.08-1.65c-0.44-0.27-2.77-2.02-1.44-0.89c-0.73-0.61-1.38-1.3-2.04-1.97c-0.25-0.25-0.46-0.53-0.71-0.79
				c-1.6-1.69,0.78,1.13-0.04,0c-2.48-3.44-4.42-7.14-6.22-10.98c-0.2-0.42-0.38-0.85-0.57-1.28c0.66,1.53,0.01,0.02-0.1-0.25
				c-0.43-1.07-0.84-2.14-1.24-3.22c-0.9-2.42-1.73-4.86-2.51-7.31c-3.39-10.66-5.9-21.59-8.18-32.54
				c-2.13-10.24-3.98-20.54-5.96-30.81c-1.37-7.12-2.57-14.48-4.96-21.35c-1.15-3.31-2.5-6.51-5.05-8.99
				c-5.85-5.68-17.02-4.91-24.33-3.57c-18.41,3.36-33.48,17.76-46.42,30.28c-9.26,8.97,4.89,23.1,14.14,14.14
				c10.12-9.8,22.38-22.71,37-25.06c3.09-0.5,5.63,0.14,8.62,0.45c1.93,0.2-2.71-1.68-2.82-1.79c0.6,0.6-1.8-2.39-0.73-0.83
				c0.56,0.81,0.64,2.4-0.19-0.62c0.15,0.53,0.41,1.03,0.57,1.56c0.42,1.38,0.86,2.75,1.23,4.14c4.93,18.62,7.3,37.9,11.54,56.69
				c4.25,18.8,9.07,40.96,22.3,55.75c13.94,15.57,40.62,16.79,60.04,16.83c28.4,0.06,43.23-29.16,64.13-43.67
				c-4.9-3.76-9.79-7.53-14.69-11.29c-2.76,12.24-4.87,24.6-6.58,37.03c-1.2,8.68-1.84,15.92-3.29,23.7
				c-0.21,1.14-0.51,2.25-0.73,3.38c-0.07,0.35-0.22,0.67-0.31,1.01c-0.53,2.05,1.1-2.03,0.07-0.1c-0.52,0.98-1.02,1.96-1.62,2.9
				c-0.25,0.4-0.52,0.78-0.78,1.17c-0.28,0.4-0.56,0.79-0.85,1.18c0.73-0.93,0.87-1.12,0.4-0.54c-1.68,1.99-3.43,3.89-5.32,5.69
				c-1.08,1.03-2.2,2.04-3.34,3.01c-0.59,0.51-1.19,1.01-1.8,1.51c-0.26,0.22-2.71,2.17-1.4,1.15
				c-23.23,17.97-51.46,30.73-78.06,40.3c-5.44,1.96-10.95,3.81-16.55,5.27c-1.86,0.49-3.73,0.84-5.6,1.28
				c-2.69,0.62,1.22,0.11,0.07,0.03c-0.06,0-2.12,0.13-2.11,0.11c0.16-0.8,3.95,1.13,3.4,0.82c-1.63-0.91,1.75,2.09,0.53,0.45
				c-0.34-0.46-0.89-0.99-1.3-1.37c-1.6-1.47,1.15,1.9-0.06-0.11c-2.25-3.72-4.35-7.41-6.16-11.37c-0.53-1.16-1.05-2.34-1.56-3.51
				c-0.17-0.39-0.74-1.75,0.06,0.15c-0.27-0.65-0.54-1.29-0.8-1.94c-1.19-2.92-2.33-5.86-3.43-8.82
				c-2.46-6.59-4.75-13.24-6.96-19.91c-5.04-15.22-9.65-30.59-14.11-45.98c-9.34-32.18-17.72-64.63-27.18-96.77
				C260.31,850.08,241,855.32,244.65,867.72L244.65,867.72z"/>
		</g>
	</g>
	<g>
		<path class="st1" d="M720.59,955.37c7.62,40.77,2.18,50.11,5.12,88.63c0.62,8.16,110.05,31.26,17.53,130.38
			c-1.97,2.11-3.65,22.37,8.62,82.7c19.17-44.22,73.5-68.18,85.09-114.96c9.21-37.18-12.65-75.19-39.37-102.64
			c-26.71-27.45-54.35-54.64-75.57-86.53"/>
		<g>
			<path class="st1" d="M710.95,958.03c3.07,16.69,4.1,33.17,3.88,50.11c-0.11,8.27-0.14,16.54,0.22,24.81
				c0.28,6.41-0.64,14.19,4.19,19.19c3.39,3.51,8.39,5.58,12.64,7.81c6.22,3.26,12.37,6.67,18.1,10.74
				c0.79,0.56,1.56,1.14,2.34,1.71c1.38,1.02-0.3-0.23-0.48-0.37c0.42,0.34,0.86,0.68,1.27,1.03c1.6,1.35,3.18,2.72,4.69,4.19
				c1.44,1.4,2.82,2.87,4.11,4.4c0.66,0.78,1.82,2.37,0.54,0.61c0.73,1.01,1.45,2.01,2.13,3.06c1.05,1.64,1.95,3.35,2.84,5.08
				c1.3,2.52-0.32-1.24,0.62,1.46c0.39,1.12,0.77,2.24,1.09,3.39c0.26,0.93,0.49,1.88,0.68,2.83c0.13,0.6,0.22,1.21,0.34,1.82
				c0.29,1.54-0.19-2.53-0.01-0.04c0.18,2.38,0.3,4.73,0.18,7.12c-0.03,0.53-0.46,4.74-0.14,2.41c-0.16,1.18-0.38,2.36-0.62,3.52
				c-0.66,3.17-1.57,6.29-2.67,9.34c-1.03,2.87-1.54,4.03-3.13,7.21c-1.76,3.54-3.73,6.98-5.84,10.33
				c-4.83,7.67-10.4,14.8-16.38,21.6c-3.34,3.8-7.37,7.05-8.67,12.12c-2.05,8.01-1.01,17.19-0.29,25.28
				c1.83,20.49,5.54,40.82,9.62,60.96c1.62,7.99,14.81,10.22,18.28,2.39c17.69-39.96,61.02-60.81,79.75-100.15
				c11.3-23.73,11.1-50.18,1.4-74.45c-10.52-26.31-28.77-46.69-48.3-66.69c-22.41-22.95-44.79-46.19-62.71-72.92
				c-7.13-10.64-24.46-0.64-17.27,10.09c15.84,23.64,34.85,44.87,54.54,65.34c18.14,18.85,37.45,36.54,49.87,59.93
				c10.84,20.41,15.44,44.3,6.27,66.23c-7.74,18.52-22.8,33.01-36.79,46.88c-16.78,16.63-34.33,33.71-44.04,55.65
				c6.09,0.8,12.18,1.59,18.28,2.39c-3.56-17.6-6.88-35.37-8.63-52.72c-0.51-5.02-0.9-10.07-0.99-15.12
				c-0.03-1.59-0.03-3.17,0.03-4.76c0.03-0.74,0.09-1.47,0.13-2.21c0.14-2.92,0.22,0.58-0.12,0.54c-0.14-0.01,0.53-2.01,0.47-2.15
				c-0.32-0.81-1.36,2.79-0.7,1.69c0.33-0.56-2.86,3.05-0.76,1.1c1.09-1.01,2.03-2.21,3.02-3.31c6.84-7.63,13.32-15.67,19.02-24.19
				c7.66-11.45,14.25-24.44,16.43-38.16c3.32-20.89-4.16-40.3-19.9-54.29c-10.75-9.56-23.32-14.98-35.39-22.38
				c-1.61-0.99-2.4-2.02-0.32-0.06c-1.21-1.14,0.26,0.29,0.8,1.19c0.38,0.64,0.75,3.34,0.93,1.71c0.56-5.26-0.63-11.23-0.72-16.56
				c-0.08-4.34-0.06-8.67-0.01-13.01c0.23-19.98-0.92-39.32-4.55-59.03c-0.98-5.31-7.42-8.33-12.3-6.98
				C712.35,947.26,709.96,952.7,710.95,958.03L710.95,958.03z"/>
		</g>
	</g>
	<g>
		<g>
			<path class="st1" d="M789.1,1108.96c12.87,0,12.89-20,0-20C776.23,1088.96,776.21,1108.96,789.1,1108.96L789.1,1108.96z"/>
		</g>
	</g>
</g>
<g id="Ebene_14">
	<ellipse class="st8" cx="476.91" cy="770.36" rx="35.92" ry="22.79"/>
	<ellipse class="st8" cx="715.28" cy="767.1" rx="35.92" ry="22.79"/>
</g>
<g id="Ebene_19">
</g>
<g id="Ebene_25">
	<g>
		<path class="st3" d="M243.49,722.27c-5.02-29.44-6.24-59.52-3.62-89.27c0.52-5.92,2.72-13.41,8.66-13.82
			c6.7-0.46,9.44,8.35,9.92,15.05c2.27,31.49,4.54,62.98,6.82,94.47c21.21,9.73,38.42,29.66,41.23,52.83
			c2.8,23.17-11.13,48.33-33.47,55.07s-49.72-9.32-51.78-32.57c-7.77-3.52-15.73-7.15-21.79-13.16c-6.06-6.01-9.93-14.98-7.58-23.18
			c2.35-8.2,12.44-14.02,19.97-10.01c-2.34-12.38,15.4-22.73,25.03-14.59c1.59-7.2,3.18-14.41,4.77-21.61"/>
		<g>
			<path class="st3" d="M253.13,719.61c-2.96-17.69-4.47-35.6-4.59-53.54c-0.06-9.09,0.22-18.18,0.87-27.24
				c0.26-3.64,1-5.94,1.26-9.29c0.23-2.89,0.86-0.39-0.23-0.69c-0.3-0.08-2.74-0.22-3.09-0.04c-0.6,0.32-0.12-0.65,0.02,0.7
				c0.12,1.1,0.82,2.78,0.96,3.61c0.6,3.52,0.62,8.07,0.9,11.94c0.66,9.18,1.33,18.37,1.99,27.55c1.35,18.7,2.7,37.39,4.05,56.09
				c0.24,3.33,1.68,7.1,4.95,8.63c14.52,6.83,27.47,18.27,33.35,33.53c5.54,14.37,3.76,30.17-5.24,42.76
				c-8.39,11.73-22.09,17.11-35.55,13.05c-6.3-1.9-12.22-5.67-16.35-10.87c-1.61-2.02-3.12-4.65-3.96-6.98
				c-1.76-4.89-0.96-10.3-6.18-13.44c-8.64-5.21-20.23-7.73-24.29-18.24c-0.96-2.48-1.34-5.77,0.02-7.95
				c0.66-1.05,1.84-1.98,2.9-2.46c0.57-0.26,2.06-0.35,1.87-0.43c8.44,3.88,15.94-2.46,14.69-11.29c0.19,1.36-0.28,0.64,0.22-0.11
				c1.93-2.87-1.33,1.34,0.77-1.52c0.21-0.29,1.5-1.59,2.94-2.34c2.91-1.52,4-1.19,6.42,0.67c5.05,3.88,13.42-0.23,14.69-5.98
				c1.59-7.2,3.18-14.41,4.77-21.61c2.77-12.54-16.51-17.9-19.29-5.32c-1.59,7.2-3.18,14.41-4.77,21.61
				c4.9-1.99,9.79-3.98,14.69-5.98c-7.86-6.04-19.45-5.17-27.58-0.11c-9.32,5.8-13.66,15.24-12.14,25.99
				c4.9-3.76,9.79-7.53,14.69-11.29c-17.28-7.94-36.23,5.72-35.69,24.52c0.58,20.32,18.49,31.62,35,39.1
				c-1.65-2.88-3.3-5.76-4.95-8.63c3.68,33.72,41.65,53.2,71.93,39.29c14.81-6.81,25.41-20.86,30.5-36.06
				c5.42-16.18,3.4-33.49-3.78-48.76c-7.94-16.87-22.82-30.57-39.57-38.44c1.65,2.88,3.3,5.76,4.95,8.63
				c-1.28-17.71-2.56-35.42-3.83-53.14c-0.64-8.86-1.28-17.71-1.92-26.57c-0.56-7.71-0.34-16.1-2.48-23.59
				c-1.91-6.67-6.14-13.42-13.16-15.48c-7.57-2.23-15.18,1.1-19.45,7.55c-3.97,6.01-4.44,13.43-4.95,20.38
				c-0.65,8.74-0.96,17.5-0.95,26.27c0.03,20.39,1.95,40.71,5.32,60.81c0.89,5.33,7.48,8.31,12.3,6.98
				C251.8,730.36,254.03,724.96,253.13,719.61L253.13,719.61z"/>
		</g>
	</g>
</g>
<g id="Ebene_21">
	<g>
		<g>
			<path d="M278.18,755.35c-7.12,2.71-15.25,5.55-22.95,4.5c-1.84-0.25-4.16-0.99-5.51-2.53c-1.86-2.11-2.03-5.57-0.76-8.62
				c3.08-7.42,13.03-9.53,20.18-9.31c7.61,0.23,15.01,3.41,21.02,8c13.27,10.12,20.11,27.23,17,43.65
				c-3.31,17.49-14.53,32.99-29.52,42.44c-8.85,5.58-19.93,10.15-30.58,8.06c-8.75-1.72-15.69-7.78-17.17-16.66
				c-0.89-5.33-7.48-8.31-12.3-6.98c-5.65,1.55-7.88,6.95-6.98,12.3c2.2,13.2,12.47,23.52,24.51,28.47
				c13.75,5.64,28.91,3.34,42.2-2.44c23.56-10.25,42.98-32.44,48.68-57.68c5.94-26.29-4.03-52.84-25.96-68.57
				c-19.96-14.32-56.71-16.28-68.81,9.66c-6.93,14.85-1.2,32.27,14.44,38.25c12.06,4.61,26.24,1.18,37.84-3.23
				c5.04-1.92,8.51-6.74,6.98-12.3C289.15,757.5,283.25,753.42,278.18,755.35L278.18,755.35z"/>
		</g>
	</g>
	<g>
		<g>
			<path d="M243.88,736.62c-8.24-12.22-25.58-16.46-37.71-7.15c-12.18,9.35-12.55,27.07-2.94,38.27c6.67,7.78,19.3-0.54,16.71-9.73
				c-3.83-13.59-19.82-19.47-32.22-13.71c-13.18,6.12-17.26,22.23-14.43,35.45c1.63,7.59,5.61,14.64,9.72,21.14
				c3.94,6.24,8.11,12.7,13.51,17.8c10.92,10.32,28.55,15.18,41.33,5.15c11.71-9.19,11.75-29.64-1.96-37.05
				c-10.52-5.69-18.98,7.09-12.12,15.71c7.18,9.02,21,11.53,31.06,6.02c10.23-5.61,14.98-18.46,11.58-29.45
				c-3.79-12.26-23.11-7.03-19.29,5.32c2.04,6.61-4.97,9.29-9.21,3.97c-4.04,5.24-8.08,10.47-12.12,15.71
				c2.44,1.32,0.5,0.41,0.47,0.1c-0.06-0.73,0.07,1.46,0.13,0.34c-0.08,1.47,0.46,0.75-0.08,2.36c-0.49,1.46-1.93,2.54-5.15,2.54
				c-9.42-0.01-15.5-10.21-19.95-17.14c-4.59-7.16-11.35-16.74-8.15-25.66c0.48-1.33,1.12-2.51,2.12-3.5
				c0.99-0.98,1.74-1.07,2.27-1.13c0.57-0.06,1.57,0.24,2.68,0.55c-0.79-0.22,1.57,0.72,0.45,0.41c-0.25-0.07-0.74-2.46,0.06,0.38
				c5.57-3.24,11.14-6.49,16.71-9.73c-4.85-5.65,4.75-13.55,9.24-6.89C233.77,757.33,251.1,747.34,243.88,736.62L243.88,736.62z"/>
		</g>
	</g>
	<g>
		<g>
			<path d="M248.7,731.63c-1.75-16.54-2.97-33.14-3.6-49.76c-0.62-16.26-1.73-33.3-0.04-49.52c0.47-4.44,1.76-10.62,6.52-12.45
				c0.32-0.12,1.74-0.09,1.48-0.1c0.44,0.02,0.72,0.26,1,0.44c0.38,0.23,0.6,0.27,1.33,1.24c0.32,0.42,0.84,1.22,1.38,2.27
				c1.95,3.79,2.92,9.09,3.25,13.38c0.61,7.92,0.93,15.87,1.39,23.8c1.12,19.3,2.24,38.61,3.36,57.91c0.74,12.79,20.75,12.88,20,0
				c-1.16-19.96-2.32-39.92-3.47-59.88c-0.89-15.29,0.39-33.94-8.46-47.35c-9.51-14.41-28.8-15.47-39.81-1.93
				c-6.02,7.4-7.76,16.66-8.19,25.98c-0.44,9.51-0.33,19.08-0.21,28.6c0.31,22.51,1.69,44.98,4.05,67.37c0.57,5.37,4.19,10,10,10
				C243.67,741.63,249.28,737.04,248.7,731.63L248.7,731.63z"/>
		</g>
	</g>
	<g>
		<g>
			<path d="M239.2,864.59c14.48,52.84,28.95,105.69,43.43,158.53c5.18,18.92,11.02,42.48,30.14,52.17
				c24.37,12.34,49.65-6.9,70.27-18.4c26.96-15.04,54.09-29.79,80.96-44.99c11.2-6.34,1.13-23.62-10.09-17.27
				c-22.3,12.62-44.77,24.93-67.18,37.34c-10.94,6.06-21.84,12.18-32.74,18.3c-8.51,4.78-19.79,11.83-29.94,8.19
				c-14.92-5.35-18.72-28.21-22.39-41.61c-6.71-24.51-13.43-49.02-20.14-73.54c-7.67-28.01-15.35-56.03-23.02-84.04
				C255.09,846.88,235.79,852.14,239.2,864.59L239.2,864.59z"/>
		</g>
	</g>
	<g>
		<g>
			<path d="M298.62,830.21c6.7,19.54,13.4,39.08,20.11,58.61c6.29,18.32,11.75,37.22,19.28,55.08c7,16.62,19.34,28.48,37.86,30.11
				c15.88,1.4,32.31-5.63,45.06-14.56c14.86-10.4,28.37-24.48,46.46-29.05c12.47-3.15,7.19-22.44-5.32-19.29
				c-15.69,3.96-28.4,13.63-40.96,23.37c-11.02,8.55-22.8,17.41-37.03,19.39c-5.4,0.75-11.1,0.31-15.94-2.33
				c-5.79-3.16-9.2-9.22-11.73-15.09c-6.95-16.14-11.72-33.5-17.42-50.11c-7.03-20.48-14.05-40.97-21.08-61.45
				c-1.75-5.11-6.86-8.48-12.3-6.98C300.63,819.27,296.86,825.08,298.62,830.21L298.62,830.21z"/>
		</g>
	</g>
	<g>
		<g>
			<path d="M711.19,1053.55c17.97,12.38,42.42,29.2,43.23,53.49c0.41,12.34-4.57,24.3-10.5,34.89
				c-6.36,11.35-14.25,21.69-23.21,31.1c-8.87,9.32,5.25,23.49,14.14,14.14c10.79-11.34,20.55-24.09,27.87-37.96
				c6.96-13.18,12.62-28.4,11.63-43.55c-2.08-31.88-28.8-52.66-53.07-69.38c-4.45-3.07-11.1-0.83-13.68,3.59
				C704.7,1044.82,706.73,1050.47,711.19,1053.55L711.19,1053.55z"/>
		</g>
	</g>
	<g>
		<g>
			<path d="M700.98,936.14c40.71,42.48,81,85.8,114.67,134.2c7.77,11.16,16.1,22.74,20.74,35.64c4.31,11.97,4.93,24.29,1.75,36.6
				c-6.56,25.39-24.74,45.66-43.24,63.33c-21.56,20.6-44.83,40.1-59.52,66.55c-6.25,11.26,11.01,21.36,17.27,10.09
				c13.28-23.92,34.38-41.68,53.99-60.23c20.48-19.38,39.72-41.1,48.93-68.26c4.56-13.46,5.77-27.77,3.27-41.76
				c-2.6-14.52-9.92-27.94-17.87-40.18c-16.81-25.85-36.05-50.23-55.98-73.72C762.65,972.09,739,946.92,715.12,922
				C706.2,912.69,692.07,926.84,700.98,936.14L700.98,936.14z"/>
		</g>
	</g>
</g>
<g id="Ebene_26">
	<g>
		<g>
			<path d="M530.82,844.08c21.71,20.24,53.49,28.73,82.25,20.54c27.3-7.77,49.07-29.34,58.13-56.05
				c4.15-12.22-15.17-17.46-19.29-5.32c-6.8,20.04-23.8,36.28-44.16,42.08c-21.84,6.22-46.24,0.03-62.79-15.4
				C535.56,821.17,521.38,835.28,530.82,844.08L530.82,844.08z"/>
		</g>
	</g>
</g>
<g id="Ebene_27">
	<g>
		<g id="Ebene_7_1_">
			<g>
				<path class="st9" d="M829.1,687.78c-11,4.53-12.99,21.39-3.39,28.75c-28.92,35.82-24.42,93.07,9.92,126.15
					c10.89,10.49,24.58,18.74,39.61,21.4C903,869,931,853.61,946.12,831.35c5.77-8.5,10.01-17.89,14.21-27.23
					c8.95-19.9,17.91-39.81,26.87-59.71c2.49-5.54,5.03-11.31,4.78-17.41c-0.53-12.72-12.62-22.24-24.12-28.91
					c-28.12-16.31-59.67-26.98-91.93-31.09c-9.21-1.17-18.72-1.8-27.52,0.71s-16.83,8.71-18.99,17.28"/>
				<g>
					<path class="st9" d="M829.2,684.72c-12.8,5.63-19.16,24.62-6.74,34.59c0.22-1.3,0.44-2.6,0.67-3.9
						c-20.61,25.78-25.45,61.47-14.41,92.82c11.89,33.78,45.69,64.93,84.72,59.48c18.01-2.51,34.22-11.99,46.42-24.45
						c15.11-15.43,22.55-36.38,31.18-55.57c4.78-10.63,9.56-21.25,14.34-31.88c2.36-5.23,4.81-10.43,7.03-15.72
						c1.96-4.68,3.57-9.73,3.26-14.89c-1.11-18.38-22.02-29.12-36.98-36.71c-20.91-10.63-43.4-18.22-66.46-22.57
						c-20.01-3.78-44.37-7.35-59.58,8.12c-3.21,3.27-5.61,7.17-6.82,11.56c-0.49,1.77,0.67,2.95,2.54,2.73
						c1.97-0.24,4.1-2.1,4.61-3.93c5.27-18.97,32.2-15.49,47.69-13.08c21.74,3.39,43.02,9.82,63.07,18.93
						c9.17,4.16,18.34,8.76,26.71,14.31c6.43,4.27,13.01,9.81,16.07,16.88c4.01,9.26-0.36,17.9-4.12,26.26
						c-4.4,9.78-8.81,19.57-13.21,29.35c-4.46,9.91-8.9,19.82-13.38,29.72c-4.07,8.99-8.26,18.15-14.2,26.13
						c-9.23,12.39-22.55,22.24-37.99,26.5c-35.48,9.8-69.7-15.94-83.98-46.44c-12.85-27.44-12.73-60.59,2.47-86.34
						c1.85-3.13,3.92-6.1,6.2-8.96c0.64-0.8,1.88-2.93,0.67-3.9c-4.02-3.23-5.92-7.88-5.68-12.79c0.19-3.91,1.79-8.4,5.7-10.12
						c1.73-0.76,3.86-2.44,3.82-4.49C832.79,684.45,830.73,684.04,829.2,684.72L829.2,684.72z"/>
				</g>
			</g>
			<g>
				<g>
					<path class="st9" d="M852,866.51c3.29,1.09,8.94-5.18,5.33-6.38C854.05,859.04,848.39,865.31,852,866.51L852,866.51z"/>
				</g>
			</g>
			<g>
				<g>
					<path class="st9" d="M846.13,866.55c0.8,6.58,5.72,12.27,12.78,13.25c7.37,1.02,14.53-3.41,17.93-9.34
						c0.48-0.83,1.02-3.08-0.53-3.46c-7.19-1.76-14.39-3.52-21.58-5.28c-2.04-0.5-4.03,0.56-5.26,2.07
						c-0.68,0.84-2.13,3.8-0.07,4.31c7.19,1.76,14.39,3.52,21.58,5.28c-0.18-1.15-0.36-2.3-0.53-3.46
						c-4.45,7.76-16.02,0.75-16.87-6.23C853.03,859.31,845.74,863.37,846.13,866.55L846.13,866.55z"/>
				</g>
			</g>
		</g>
		<g id="Ebene_5_1_">
			<g>
				<path class="st10" d="M995.55,708.55c17.92-54.9,68.58-92.51,118.14-124.33c49.56-31.82,102.82-63.46,131.16-113.91
					c35.83-63.79,21.91-148.58-26.02-207.18c-47.93-58.6-125.15-91.64-201.62-95.93c-47.67-2.68-96.19,5.22-137.58,26.7
					c-41.4,21.48-84.56,61.17-98.79,104.41c-19.72,59.92,8.31,121.7,27.98,182.79c19.67,61.09,40.62,125.7,25.22,186.89
					c55.56-5.18,113.67,11.37,158.34,45.09"/>
				<g>
					<path class="st10" d="M999.12,707.95c15.71-47.59,56.35-81.48,97.37-109.25c41.28-27.95,85.86-52.15,120.76-87.7
						c16.53-16.84,30.3-36.21,39.21-57.9c8.19-19.94,12.15-41.56,12.27-63.18c0.24-43.56-14.76-87.59-41.78-123.38
						c-29.24-38.74-71.89-67.31-117.96-84.18c-47.18-17.27-98.73-22.99-148.03-16.4c-24.56,3.29-48.68,9.78-70.96,19.88
						c-21.98,9.97-42.19,23.35-60.02,39.08c-18.09,15.95-34.23,34.6-45.11,55.92c-10.43,20.42-14.96,43.17-14.43,66.14
						c1.08,47.51,20.83,93.02,35.36,138.15c15.45,47.97,31.75,97.55,29.67,147.88c-0.5,12.03-2.11,23.93-5.01,35.57
						c-0.45,1.82,0.59,2.9,2.54,2.73c42.71-3.88,86.75,5.18,125.06,25.04c10.89,5.64,21.29,12.16,31.05,19.49
						c2.98,2.24,9.25-3.5,6.52-5.55c-35.4-26.58-78.65-42.73-122.91-46c-12.57-0.93-25.17-0.78-37.66,0.36
						c0.85,0.91,1.69,1.82,2.54,2.73c11.9-47.86,2.18-97.72-11.59-144.95c-6.89-23.61-14.61-47.04-22.57-70.36
						c-7.72-22.61-15.53-45.29-20.56-68.55c-4.83-22.33-6.9-45.38-3.01-67.75c3.92-22.6,14.35-42.99,28.69-60.9
						c29.18-36.45,71.19-63.6,117.67-75.84c47.21-12.43,98.75-11.79,146.75,0.28c47.5,11.94,92.74,35.25,127.22,69.66
						c32.18,32.11,53.18,73.44,59.3,117.13c6.11,43.58-3.59,87.66-30.19,122.76c-29.27,38.62-72.42,64.55-113.23,90.67
						c-41.45,26.53-83.76,55.94-109.41,97.95c-6.09,9.97-11.04,20.59-14.69,31.66c-0.58,1.77,0.74,2.94,2.54,2.73
						C996.55,711.63,998.52,709.77,999.12,707.95L999.12,707.95z"/>
				</g>
			</g>
		</g>
		<g id="Ebene_6_1_">
			<g>
				<path class="st11" d="M1203.01,354.42c-15.64-45.56-53.08-100.08-97.08-123.89c-44-23.81-122.95-21.39-169.4-5.31
					c-64.23,22.24-100.91,101.74-99.99,167.93c0.79,57.31,55.47,98.86,109.88,124.07c54.41,25.22,126.02,39.89,174.29,7.58
					c48.27-32.31,84.36-112.94,82.26-170.25"/>
				<g>
					<path class="st11" d="M1206.63,352.26c-6.61-19.15-15.95-37.47-27.07-54.68c-11.58-17.93-25.3-34.83-41.47-49.21
						c-14.01-12.46-29.87-22.85-47.88-28.88c-18.07-6.05-37.23-8.77-56.13-9.65c-19.96-0.94-40.03,0.15-59.63,3.21
						c-17.27,2.69-34.76,6.78-50.34,14.33c-31.57,15.32-54.69,43.15-69.57,73.47c-7.69,15.67-13.45,32.26-17.1,49.32
						c-3.51,16.4-5.71,33.73-4.32,50.62c2.83,34.36,25.28,63.33,52.62,84.81c28.67,22.52,62.92,39.43,97.93,50.14
						c34.9,10.67,73.3,15.68,108.3,5.39c34.22-10.07,59-36.35,77.09-64.77c19.14-30.08,32.5-64.85,36.62-100.31
						c0.88-7.59,1.27-15.24,1-22.91c-0.15-4.35-7.55-0.35-7.45,2.85c1.13,33.25-8.88,66.68-23.33,96.18
						c-7.55,15.41-16.61,30.17-27.6,43.49c-9.86,11.93-21.36,22.95-35.16,30.68c-30.04,16.81-67.65,16.04-101.31,8.97
						c-34.95-7.33-68.95-21.9-99.06-40.84c-28.56-17.97-55.93-42.36-67.25-73.98c-5.59-15.64-5.98-31.72-4.52-47.85
						c1.49-16.62,5.13-32.97,10.57-48.69c10.63-30.69,28.58-60.12,55.36-80.02c12.66-9.41,27.19-15.6,42.71-19.58
						c17.73-4.55,36.18-7.01,54.63-7.79c35.83-1.51,75.43,1.97,106.63,21.67c17.19,10.86,31.9,25.33,44.58,40.81
						c13.17,16.08,24.37,33.67,33.33,52.15c4.02,8.29,7.58,16.77,10.56,25.43C1200.63,360.18,1207.73,355.43,1206.63,352.26
						L1206.63,352.26z"/>
				</g>
			</g>
		</g>
		<g id="Ebene_3_1_">
			<g>
				<g>
					<path class="st12" d="M995.26,719.63c10.73-23.26,25.23-44.5,42.49-63.64c16.89-18.73,36.16-35.32,56.15-50.94
						c20.56-16.06,41.64-31.42,64.12-44.99c21.82-13.17,44.52-25.94,62.69-43.68c32-31.23,48.56-74.82,50.12-118.84
						c1.58-44.29-11.63-89.26-38.08-126.48c-28.25-39.75-69.77-69.99-115.48-88.73c-46.48-19.05-97.48-26.42-147.03-21.6
						c-50.1,4.88-99.18,22.82-136.41,55c-37.74,32.62-63.63,79.47-64.6,129.47c-0.49,25.32,5.55,50.44,13.23,74.75
						c7.72,24.43,16.8,48.45,24.07,73c13.4,45.26,21.66,91.18,23.74,137.9c0.57,12.99,0.76,25.97,0.69,38.95
						c-0.03,4.31,7.43,0.34,7.45-2.85c0.3-47.6-3.75-95.08-14.84-141.87c-5.49-23.14-12.32-46.03-20.02-68.63
						c-8.19-24.03-17.16-47.96-22.47-72.71c-5.25-24.44-6.08-49.31-0.25-73.4c5.68-23.49,16.72-45.53,31.7-64.62
						c29.83-38.01,74.08-62.5,122.45-73.12c47.82-10.5,99-8.36,146.62,5.52c46.98,13.69,91.12,38.66,124.46,73.96
						c31.73,33.59,51.71,75.76,56.37,120.38c4.44,42.52-4.5,86.87-29.67,121.72c-14.03,19.43-32.77,33.82-53.26,46.63
						c-10.92,6.83-22.09,13.27-33.02,20.08c-10.72,6.68-20.92,13.97-31.06,21.4c-40.87,29.97-80.66,62.43-108.52,104.5
						c-6.83,10.31-12.83,21.11-18,32.31C986.55,724.12,993.72,722.97,995.26,719.63L995.26,719.63z"/>
				</g>
			</g>
			<g>
				<g>
					<path class="st12" d="M827.05,682.59c0.71,5.04,4.85,9.28,8.75,12.45c6.48,5.27,14.05,9.26,21.63,12.79
						c23.36,10.89,48.58,18.1,73.51,24.39c7.67,1.94,15.37,3.76,23.09,5.48c7.13,1.59,14.68,3.97,22,4.02
						c6,0.03,12.03-1.4,16.55-5.22c4.74-4,6.62-10.1,4.59-16.03c-2.15-6.28-7.43-11.61-12.46-15.95
						c-5.7-4.93-12.16-9.03-18.85-12.59c-14.25-7.58-29.62-13.41-45.11-17.97c-17.35-5.11-35.22-8.54-53.19-10.11
						c-8.3-0.73-17.72-2.05-25.81,0.06c-7.22,1.89-13.94,7.49-14.28,15.09c-0.09,2.01,2.17,2.15,3.63,1.65
						c1.83-0.64,3.73-2.52,3.82-4.49c0.28-6.35,8.53-6.54,13.55-6.45c7.3,0.14,14.63,0.73,21.91,1.55
						c14.85,1.68,29.58,4.6,43.97,8.78c13.77,3.99,27.28,9.05,40.2,15.26c12.03,5.79,24.54,13.16,32.41,23.99
						c2.49,3.42,5.99,10.18,1.85,13.54c-3.6,2.92-10.15,2.41-14.51,1.64c-14.13-2.48-28.21-6.07-42.1-9.67
						c-22.69-5.87-45.51-12.58-66.93-22.21c-7.66-3.44-15.44-7.26-22.06-12.41c-4.04-3.13-8.21-6.94-8.92-11.93
						c-0.29-2.01-3.5-1.01-4.49-0.43C828.08,678.83,826.77,680.59,827.05,682.59L827.05,682.59z"/>
				</g>
			</g>
			<g>
				<g>
					<path class="st12" d="M831.21,682.4c-14.52,2.46-21.88,18.5-15.82,31.19c7.58,15.88,26.67,21.4,42.46,26.44
						c18.64,5.95,37.61,10.76,56.66,15.14c9.69,2.23,19.41,4.34,29.13,6.44c7.91,1.7,15.93,3.68,24.02,2.88
						c7.87-0.78,14.07-4.83,18.41-10.99c3.55-5.03,6.72-12.39,3.72-18.52c-1.74-3.55-8.7,1.35-7.24,4.33
						c2.05,4.19,0.38,8.96-2.08,12.53c-2.94,4.26-6.79,5.88-12.16,6.1c-6.98,0.28-14.05-1.6-20.85-3.07
						c-8.2-1.76-16.39-3.54-24.57-5.4c-16.47-3.73-32.89-7.76-49.09-12.56c-7.76-2.3-15.49-4.73-23.12-7.46
						c-7.18-2.57-14.53-5.57-20.33-10.55c-5.28-4.53-9.72-10.91-9.82-17.83c-0.08-5.37,2.75-11.03,8.61-12.03
						c2-0.34,4.09-2.01,4.61-3.93C834.23,683.4,833.13,682.08,831.21,682.4L831.21,682.4z"/>
				</g>
			</g>
			<g>
				<g>
					<path class="st12" d="M816.13,715.41c-4.26,4.95-7.34,11.04-9.3,17.2c-1.86,5.88-2.39,11.78,0.75,17.5
						c8.37,15.23,28.96,17.5,44.43,21.1c18.68,4.36,37.36,8.71,56.04,13.07c9.15,2.13,18.3,4.27,27.45,6.4
						c7.54,1.76,15.57,4.32,23.33,3.11c17.04-2.65,20.27-21.38,19.43-35.3c-0.27-4.37-7.64-0.35-7.45,2.85
						c0.35,5.77,0.19,11.72-1.51,17.25c-1.62,5.27-4.46,8.54-10.5,8.74c-6.87,0.22-13.97-2.11-20.63-3.66
						c-8.39-1.96-16.77-3.91-25.16-5.87c-16.39-3.82-32.78-7.64-49.17-11.47c-8.27-1.93-16.6-3.71-24.82-5.84
						c-7.22-1.87-14.65-4.41-20.1-9.64c-4.76-4.57-7.18-10.22-5.77-16.48c1.35-5.97,4.13-12.03,8.16-16.72
						c0.97-1.13,1.88-3.39,0.07-4.31C819.59,712.42,817.15,714.23,816.13,715.41L816.13,715.41z"/>
				</g>
			</g>
			<g>
				<g>
					<path class="st12" d="M811.16,746.7c-9.32,6.37-13.21,19.65-11.33,30.39c2.59,14.79,22.81,18.01,35.19,20.77
						c19.42,4.32,38.83,8.64,58.25,12.96c9.61,2.14,19.22,4.28,28.84,6.42c7.81,1.74,15.8,4.01,23.82,3.6
						c8.3-0.42,15.37-4.17,19.28-11.21c3.7-6.68,4.76-14.86,3.88-22.43c-0.51-4.39-7.82-0.34-7.45,2.85
						c0.68,5.85,0.31,12.13-2.06,17.54c-0.8,1.82-1.89,3.85-3.71,4.9c-2.5,1.43-5.86,1.72-8.75,1.68
						c-7.14-0.11-14.24-2.11-21.19-3.66c-8.27-1.84-16.53-3.68-24.8-5.52c-16.73-3.72-33.45-7.44-50.18-11.16
						c-8.04-1.79-16.21-3.29-24.13-5.56c-6.27-1.8-13.99-4.58-17.82-10.13c-2.75-3.98-2.5-9.69-1.73-14.09
						c0.69-3.94,2.47-9.99,5.61-12.13c1.39-0.95,3.47-2.85,2.76-4.76C814.96,745.31,812.35,745.88,811.16,746.7L811.16,746.7z"/>
				</g>
			</g>
			<g>
				<g>
					<path class="st12" d="M805.93,783.17c-9.79,5.76-11.23,20.15-2.23,27.66c5.5,4.59,12.57,6.71,19.27,8.97
						c7.96,2.68,15.92,5.36,23.88,8.03c15.92,5.36,31.85,10.71,47.77,16.07c13.67,4.59,28.46,11.04,42.81,6.7
						c6.76-2.05,12.66-6.61,15.67-12.81c3.5-7.18,3.55-15.22,2.31-23.05c-0.32-2-3.48-1.02-4.49-0.43c-1.7,0.99-3.07,2.77-2.76,4.76
						c0.93,5.86,1.12,12.43-1.32,17.9c-1.9,4.28-5.67,6.74-10.34,7.76c-12.49,2.73-25.96-3.64-37.67-7.58
						c-13.15-4.42-26.3-8.84-39.44-13.27c-13-4.37-26.23-8.34-39.04-13.22c-5.39-2.05-12.2-5.09-14.38-10.72
						c-1.24-3.2-1.82-9.53,1.67-11.58c1.44-0.85,3.45-2.92,2.76-4.76C809.72,781.71,807.17,782.44,805.93,783.17L805.93,783.17z"/>
				</g>
			</g>
			<g>
				<g>
					<path class="st12" d="M815.54,817.01c-0.17,9.82,2.12,19.55,8.29,27.72c5.37,7.11,13.16,12.29,21.22,16.19
						c16.9,8.16,36.33,12.13,54.5,7.1c10.87-3.01,20.08-9.42,25.87-18.73c0.88-1.4,0.67-3.33-1.29-3.64
						c-2.07-0.32-4.17,1.6-5.11,3.11c-8.68,13.95-27.85,16.25-43.54,13.97c-8.18-1.19-15.99-3.96-23.48-7.41
						c-7.36-3.39-14.36-7.68-19.7-13.72c-6.89-7.79-9.51-17.51-9.34-27.42C823.06,809.87,815.6,813.82,815.54,817.01L815.54,817.01z
						"/>
				</g>
			</g>
			<g>
				<path class="st13" d="M846.51,858.34c-2.93,6.47,2.01,18.7,11.2,20.7c7.3,1.59,19.77-2.44,22.96-9.4"/>
				<g>
					<path class="st12" d="M842.93,858.94c-3.58,8.76,2.63,21.16,12.49,23.38c10.25,2.32,23.93-3.45,28.44-12.41
						c0.73-1.44,0.77-3.32-1.29-3.64c-1.95-0.3-4.33,1.56-5.11,3.11c-2.81,5.59-13.03,8.14-18.94,5.91
						c-6.47-2.45-10.96-11.39-8.44-17.54c0.72-1.76-0.83-2.93-2.54-2.73C845.4,855.27,843.68,857.12,842.93,858.94L842.93,858.94z"
						/>
				</g>
			</g>
		</g>
		<g id="Ebene_8_1_">
			<g class="st14">
				<path class="st15" d="M846.64,667.47c-7.65-0.99-12.48,8.75-9.54,15.66c2.94,6.91,10.29,11.05,17.23,14.45
					c29.62,14.53,61.14,25.31,93.46,31.98c15.26,3.15,31.91,5.21,45.48-1.61c-52.07-8.57-113.87-18.37-146-58.14"/>
				<g>
					<path class="st15" d="M848.55,664.1c-10.45-0.95-17.95,10.53-15.58,19.67c1.4,5.44,6.11,9.57,10.78,12.62
						c6,3.93,12.83,6.81,19.37,9.76c28.04,12.63,57.9,22.4,88.19,27.83c14.01,2.51,29.03,3.3,41.86-2.97
						c1.72-0.84,6.5-5.7,2.01-6.44c-40.47-6.66-84.16-12.81-119.44-35.3c-9.56-6.1-18.12-13.56-25.2-22.24
						c-2.22-2.72-8.83,2.72-6.52,5.55c26.73,32.78,71.37,44.73,111.57,52.51c11.89,2.3,23.84,4.26,35.78,6.22
						c0.67-2.15,1.34-4.29,2.01-6.44c-9.81,4.79-20.93,4.82-31.8,3.37c-12.8-1.7-25.52-4.93-37.95-8.42
						c-13.12-3.69-26.05-8.06-38.72-13.09c-6.42-2.55-12.77-5.27-19.05-8.15c-5.53-2.54-11.24-5.03-16.37-8.32
						c-4.4-2.82-9.28-7.24-9.5-12.61c-0.13-3.09,0.92-7.16,4.77-6.81C848.02,671.14,853.03,664.51,848.55,664.1L848.55,664.1z"/>
				</g>
			</g>
			<g class="st14">
				<path class="st15" d="M827.25,691.44c-7.78,4.01-7.88,15.54-2.46,22.52s14.31,10.49,22.78,13.51
					c35.78,12.78,72.46,23.09,109.62,30.84c9.55,1.99,21.62,2.88,26.65-4.95c-26.79,0.12-141.97-18.33-155.68-63.88"/>
				<g>
					<path class="st15" d="M826.39,688.84c-10.04,5.61-11.73,18.88-4.86,27.9c3.96,5.19,10.11,8.61,16.1,11.15
						c7.06,2.98,14.44,5.34,21.71,7.78c30.69,10.32,61.99,18.85,93.65,25.54c12.38,2.62,26.39,3.65,34.05-7.57
						c0.8-1.18,0.76-3.64-1.29-3.64c-8.03,0.02-16.14-0.99-24.11-2.08c-11.99-1.64-23.92-3.88-35.72-6.62
						c-25-5.82-51.37-13.76-72.71-28.35c-9.37-6.41-18.1-14.85-21.43-25.62c-1.11-3.59-8.24,1.11-7.24,4.33
						c6.66,21.56,31.51,34.15,51.48,42.24c24.56,9.95,50.86,16.13,76.98,20.08c9.54,1.44,19.3,2.8,28.94,2.77
						c-0.43-1.21-0.86-2.43-1.29-3.64c-1.96,2.87-6.68,3.22-9.95,3.22c-5.08,0-10.07-1.04-15.05-2.1
						c-13.91-2.96-27.75-6.29-41.5-9.98c-13.43-3.6-26.77-7.55-40-11.82c-6.71-2.17-13.39-4.42-20.05-6.76
						c-5.71-2.01-11.52-3.95-16.83-6.88c-5.23-2.88-10.07-7.02-11.81-12.71c-1.2-3.92-1.44-9.76,2.64-12.04
						c1.46-0.81,3.44-2.95,2.76-4.76C830.16,687.37,827.64,688.14,826.39,688.84L826.39,688.84z"/>
				</g>
			</g>
			<g class="st14">
				<path class="st15" d="M818.52,723.28c-9.36,3-10.07,16.6-3.58,24.04c6.49,7.44,16.92,10.2,26.65,12.55
					c33.54,8.1,67.09,16.2,100.63,24.31c10.06,2.43,22.47,4.2,28.92-3.32c-43.68-6.5-142.73-20.26-149.72-61.17"/>
				<g>
					<path class="st15" d="M818.61,720.22c-10.28,3.64-14.24,15.55-9.94,25.12c5.41,12.05,20.72,15.43,32.53,18.29
						c32.21,7.78,64.42,15.56,96.63,23.34c12.54,3.03,26.64,5.27,35.9-4.98c1.22-1.35,1.9-4.11-0.69-4.49
						c-22.4-3.33-44.8-6.76-66.89-11.93c-12.12-2.84-24.16-6.2-35.83-10.55c-10.1-3.76-20.3-8.27-28.98-14.65
						c-7.89-5.8-14.58-13.28-16.29-22.84c-0.63-3.5-7.84,1.03-7.24,4.33c3.45,19.22,24.77,30.49,41.75,37.42
						c23.61,9.64,49.01,14.95,74.01,19.34c11.86,2.08,23.76,3.85,35.67,5.62c-0.23-1.5-0.46-2.99-0.69-4.49
						c-2.6,2.87-7.16,3.26-10.95,3.15c-5.27-0.15-10.44-1.35-15.56-2.59c-13.72-3.31-27.45-6.63-41.17-9.94
						c-13.91-3.36-27.83-6.72-41.74-10.08c-6.54-1.58-13.11-3.06-19.61-4.78c-5.59-1.48-11.32-3.28-16.18-6.47
						c-4.62-3.03-8.08-7.38-8.81-12.75c-0.49-3.59-0.06-8.54,3.9-9.94c1.76-0.62,3.86-2.53,3.82-4.49
						C822.19,719.85,820.16,719.67,818.61,720.22L818.61,720.22z"/>
				</g>
			</g>
			<g class="st14">
				<path class="st15" d="M810.83,757.24c-6.36,4.6-6.62,14.42-2.09,20.98c4.53,6.56,12.56,10.2,20.52,11.79
					c7.96,1.58,16.12,1.44,24.18,2.26c18.58,1.88,36.29,8.79,54.33,13.78c18.04,5,37.57,8.05,54.99,2.24
					c-34.83-4.75-127.25-15.71-151.77-51.74"/>
				<g>
					<path class="st15" d="M809.03,755.31c-8.58,6.65-9.3,19.19-2.15,27.5c8.32,9.67,22.19,11.37,34.18,12.1
						c7.05,0.43,14.01,0.96,20.98,2.31c7.28,1.4,14.41,3.43,21.5,5.56c12.73,3.83,25.37,8.07,38.48,10.37
						c13.66,2.39,27.59,2.45,40.65-1.78c2-0.65,6.3-5.85,2.01-6.44c-19.83-2.71-39.66-5.43-59.3-9.45
						c-22.69-4.65-45.97-10.6-66.55-21.52c-9.47-5.03-18.51-11.4-24.57-20.17c-1.93-2.79-8.61,2.52-6.52,5.55
						c11.63,16.85,33.55,25.84,52.55,32.16c22.75,7.56,46.45,12.18,70.05,15.86c10.16,1.58,20.35,2.93,30.52,4.32
						c0.67-2.15,1.34-4.29,2.01-6.44c-22.01,7.14-46-0.24-67.52-6.85c-12.03-3.7-24.16-7.41-36.65-9.08
						c-11.86-1.58-24.54-0.29-35.77-5.26c-5.26-2.33-10.31-6.13-12.41-11.48c-1.72-4.4-1.88-10.27,2.12-13.38
						c1.18-0.91,2.79-3.28,1.46-4.71C812.7,752.97,810.17,754.43,809.03,755.31L809.03,755.31z"/>
				</g>
			</g>
			<g class="st14">
				<path class="st15" d="M808.07,786.14c-5.39,5.37-3.34,14.95,2.22,20.48s13.5,8.03,21.09,10.32c26.7,8.07,53.4,16.12,80.11,24.19
					c12.78,3.86,27.91,7.38,38.21-0.37c-50.66-4.73-106.44-19.6-142.9-55"/>
				<g>
					<path class="st15" d="M805.48,785.01c-6.95,7.46-4.74,19.12,3,25.7c4.46,3.8,9.94,6.1,15.49,7.93
						c6.43,2.12,12.95,3.96,19.43,5.91c13.35,4.03,26.7,8.07,40.05,12.1c12.01,3.62,24.01,7.86,36.26,10.55
						c11.27,2.48,22.47,2.22,31.8-4.51c1.48-1.07,3.34-5,0.11-5.3c-39.71-3.76-80.47-13.01-114.92-33.95
						c-9.63-5.86-18.58-12.68-26.63-20.45c-2.63-2.53-9.09,3.08-6.52,5.55c29.46,28.39,69.74,43.18,109.61,50.75
						c11.47,2.18,23.04,3.74,34.64,4.84c0.04-1.77,0.08-3.54,0.11-5.3c-6.44,4.65-16.08,3.37-23.56,1.81
						c-10.69-2.25-21.17-6.02-31.62-9.17c-11.85-3.58-23.69-7.15-35.54-10.73c-6.02-1.82-12.03-3.63-18.05-5.45
						c-5.18-1.57-10.47-2.98-15.47-5.08c-5.2-2.19-10.43-5.33-13.1-10.34c-2.08-3.89-3.06-9.19,0.11-12.6
						c1.03-1.1,1.84-3.41,0.07-4.31C808.9,782.01,806.55,783.86,805.48,785.01L805.48,785.01z"/>
				</g>
			</g>
			<g class="st14">
				<path class="st15" d="M820.16,819.16c6.1,16.28,19.19,30.21,35.46,37.75c16.27,7.53,35.52,8.57,52.15,2.82
					c-31.01-5.12-60.47-20.13-82.57-42.08"/>
				<g>
					<path class="st15" d="M816.53,821.33c6.3,16.46,19.15,30.5,35.57,38.38c17.39,8.34,37.73,9.12,55.56,3.09
						c2.05-0.69,6.27-5.72,2-6.43c-30.61-5.17-59.33-19.9-81.22-41.48c-2.59-2.55-9.07,3.04-6.52,5.55
						c22.66,22.34,52.28,37.33,83.92,42.67c0.67-2.15,1.34-4.29,2.01-6.44c-16.49,5.57-35.38,4.14-51.25-3.74
						c-15.13-7.51-26.98-20.65-32.83-35.92C822.4,813.41,815.34,818.2,816.53,821.33L816.53,821.33z"/>
				</g>
			</g>
			<g class="st14">
				<path class="st15" d="M848.13,859.52c-0.54,5.81,2.42,11.91,7.46,15.35c5.04,3.44,11.96,4.08,17.42,1.62
					c-9.05-3.78-16.57-10.99-20.53-19.67"/>
				<g>
					<path class="st15" d="M844.41,860.94c-0.43,6.5,2.57,13.04,8.22,16.92c5.98,4.1,13.83,4.42,20.29,1.7
						c1.6-0.67,6.07-4.82,2.76-6.26c-8.65-3.74-15.65-10.33-19.58-18.65c-1.68-3.56-8.66,1.32-7.24,4.33
						c4.34,9.19,11.89,16.54,21.49,20.7c0.92-2.09,1.84-4.17,2.76-6.26c-10.6,4.45-21.96-4.63-21.26-15.33
						c0.13-2.01-2.2-2.14-3.63-1.65C846.37,857.1,844.54,858.96,844.41,860.94L844.41,860.94z"/>
				</g>
			</g>
		</g>
		<g id="Ebene_4_1_">
			<g>
				<g>
					<path class="st12" d="M847.84,668.97c34.03-24.04,67.56-48.71,99.98-74.7c32.51-26.06,63.91-53.44,93.33-82.7
						c29.06-28.91,56.87-59.56,80.5-92.82c11.84-16.67,22.91-35.77,23.05-56.78c0.11-15.86-6.9-33.24-20.53-43.21
						c-14.31-10.46-32.31-9.71-47.2-1.93c-17.56,9.17-27.72,26.53-33.29,44.49c-1.53,4.92-2.75,9.92-3.83,14.96
						c-1.02,4.71,5.61,2.15,6.78-0.33c8.05-17.26,16.63-35.75,13.94-55.4c-2.19-16.03-12.15-31.29-29.19-35.8
						c-16.98-4.49-35.01,1.06-48.44,10.69c-14.53,10.43-24.69,25.37-30.92,41.69c-13.94,36.48-6.71,77.11-1.75,115.08
						c5.28,40.47,11.39,80.86,16.61,121.33c5.2,40.29,9.62,80.7,11.21,121.17c0.19,4.9,0.34,9.8,0.45,14.69
						c0.1,4.33,7.51,0.35,7.45-2.85c-0.82-38.44-4.46-76.85-9.07-115.14c-4.65-38.62-10.34-77.14-15.65-115.69
						c-2.61-18.91-5.18-37.84-7.36-56.79c-2.22-19.25-3.65-38.74-1.08-57.89c4.08-30.5,22.19-66.41,57.43-70.79
						c7.95-0.99,16.27,0.07,23.5,3.81c7.15,3.7,12.54,9.97,15.75,17.05c7.59,16.75,3.46,34.62-3.1,50.58
						c-1.9,4.63-4.03,9.18-6.15,13.72c2.26-0.11,4.51-0.22,6.78-0.33c3.84-17.8,9.67-37,24.86-48.74
						c12.27-9.48,29.61-12.06,43.67-3.44c13.81,8.47,21.32,25.18,21.71,40.27c0.51,19.83-9.93,38.09-21.1,53.76
						c-22.55,31.61-48.82,60.98-76.39,88.59c-27.72,27.76-57.25,53.81-87.81,78.66c-30.47,24.77-61.99,48.35-94.05,71.22
						c-3.92,2.8-7.85,5.59-11.78,8.36c-1.38,0.97-3.48,2.84-2.76,4.76C844.03,670.34,846.66,669.81,847.84,668.97L847.84,668.97z"/>
				</g>
			</g>
			<g>
				<g>
					<path class="st12" d="M1192.42,301.01c20.27,29.83,26.75,67.45,17.33,101.11c-0.5,1.77,0.67,2.95,2.54,2.73
						c1.97-0.24,4.1-2.1,4.61-3.93c9.87-35.26,3.27-74.2-17.96-105.46C1197.05,292.66,1190.35,297.96,1192.42,301.01L1192.42,301.01
						z"/>
				</g>
			</g>
			<g>
				<g>
					<path class="st12" d="M827.82,322.84c-12.46,29.2-14.92,62.28-7.33,93.53c2.17,8.93,5.19,17.66,8.99,26.12
						c1.6,3.58,8.61-1.29,7.24-4.33c-12.99-28.89-16.52-61.3-9.79-91.57c1.9-8.55,4.61-16.89,8.04-24.94
						c0.75-1.75-0.85-2.94-2.54-2.73C830.26,319.18,828.6,321.03,827.82,322.84L827.82,322.84z"/>
				</g>
			</g>
		</g>
	</g>
	<g>
		<g>
			<path class="st16" d="M1064.1,693.96c3.91,14.35,7.83,28.71,11.74,43.06c3.44,12.61,17.93,21.61,30.75,17.46
				c12.92-4.18,21.15-17.23,17.46-30.75c-3.91-14.35-7.83-28.71-11.74-43.06c-3.44-12.61-17.93-21.61-30.75-17.46
				C1068.64,667.39,1060.41,680.44,1064.1,693.96L1064.1,693.96z"/>
		</g>
	</g>
	<g>
		<g>
			<path class="st16" d="M1191.88,616.92c9.79,12.4,19.57,24.79,29.36,37.19c3.7,4.68,12.01,7.32,17.68,7.32
				c6.13,0,13.46-2.72,17.68-7.32c4.37-4.76,7.62-11.02,7.32-17.68c-0.32-7.05-2.98-12.18-7.32-17.68
				c-9.79-12.4-19.57-24.79-29.36-37.19c-3.7-4.68-12.01-7.32-17.68-7.32c-6.13,0-13.46,2.72-17.68,7.32
				c-4.37,4.76-7.62,11.02-7.32,17.68C1184.87,606.29,1187.54,611.42,1191.88,616.92L1191.88,616.92z"/>
		</g>
	</g>
	<g>
		<g>
			<path class="st16" d="M1309.38,491.14c11.74,0.65,23.49,1.3,35.23,1.96c13.08,0.73,25.58-12.02,25-25
				c-0.63-14.17-10.99-24.22-25-25c-11.74-0.65-23.49-1.3-35.23-1.96c-13.08-0.73-25.58,12.02-25,25
				C1285.01,480.31,1295.37,490.37,1309.38,491.14L1309.38,491.14z"/>
		</g>
	</g>
	<g>
		<g>
			<path class="st16" d="M1314.17,309.62c11.09-5.87,22.18-11.74,33.27-17.62c11.57-6.13,16.07-23.19,8.97-34.2
				c-7.59-11.77-21.82-15.52-34.2-8.97c-11.09,5.87-22.18,11.74-33.27,17.62c-11.57,6.13-16.07,23.19-8.97,34.2
				C1287.55,312.42,1301.79,316.17,1314.17,309.62L1314.17,309.62z"/>
		</g>
	</g>
	<g>
		<g>
			<path class="st16" d="M1217.83,169.74c9.11-15.02,18.21-30.04,27.32-45.07c6.79-11.2,2.84-27.97-8.97-34.2
				c-12.14-6.42-26.96-2.98-34.2,8.97c-9.11,15.02-18.21,30.04-27.32,45.07c-6.79,11.2-2.84,27.97,8.97,34.2
				C1195.77,185.13,1210.58,181.69,1217.83,169.74L1217.83,169.74z"/>
		</g>
	</g>
	<g>
		<g>
			<path class="st16" d="M1027.09,109.92c0-13.7,0-27.4,0-41.1c0-13.08-11.5-25.6-25-25c-13.55,0.61-25,10.98-25,25
				c0,13.7,0,27.4,0,41.1c0,13.08,11.5,25.6,25,25C1015.63,134.31,1027.09,123.93,1027.09,109.92L1027.09,109.92z"/>
		</g>
	</g>
	<g>
		<g>
			<path class="st16" d="M846.12,134.59c-2.49-15.13-13.61-29.49-27.15-36.47c-11.61-5.99-27.67-3.4-34.2,8.97
				c-6.05,11.46-3.44,27.81,8.97,34.2c0.93,0.48,1.8,1.11,2.74,1.54c2.4,1.13-3.92-3.53-2.03-1.67c0.74,0.72,1.51,1.47,2.29,2.16
				c3,2.67-2.61-4.05-1.14-1.64c0.44,0.72,0.93,1.4,1.35,2.13c2.39,4.17-1.02-1.5-0.62-2.01c-0.26,0.33,1.46,5.32,1.59,6.07
				c0.95,5.81,6.62,12.09,11.49,14.94c5.36,3.14,13.26,4.46,19.26,2.52c6.05-1.96,11.89-5.71,14.94-11.49
				C846.93,147.56,847.27,141.58,846.12,134.59L846.12,134.59z"/>
		</g>
	</g>
	<g>
		<g>
			<path class="st16" d="M726.11,237.15c-9.78-0.14-19.57-0.27-29.35-0.41c-13.08-0.18-25.6,11.63-25,25c0.61,13.7,10.98,24.8,25,25
				c9.78,0.14,19.57,0.27,29.35,0.41c13.08,0.18,25.6-11.63,25-25C750.5,248.44,740.13,237.34,726.11,237.15L726.11,237.15z"/>
		</g>
	</g>
	<g>
		<g>
			<path class="st16" d="M713.59,361.79c-9.13,1.3-18.27,2.61-27.4,3.91c-5.75,0.82-12.15,6.73-14.94,11.49
				c-3.14,5.36-4.46,13.26-2.52,19.26c1.96,6.05,5.71,11.89,11.49,14.94c6.36,3.36,12.22,3.53,19.26,2.52
				c9.13-1.3,18.27-2.61,27.4-3.91c5.75-0.82,12.15-6.73,14.94-11.49c3.14-5.36,4.46-13.26,2.52-19.26
				c-1.96-6.05-5.71-11.89-11.49-14.94C726.5,360.95,720.64,360.78,713.59,361.79L713.59,361.79z"/>
		</g>
	</g>
</g>
</svg>
