<?xml version="1.0" encoding="utf-8"?>
<!-- Generator: Adobe Adobe Illustrator 24.2.0, SVG Export Plug-In . SVG Version: 6.00 Build 0)  -->
<svg version="1.1" xmlns="http://www.w3.org/2000/svg" xmlns:xlink="http://www.w3.org/1999/xlink" x="0px" y="0px"
	 viewBox="0 0 1700.79 1700.79" style="enable-background:new 0 0 1700.79 1700.79;" xml:space="preserve">
<style type="text/css">
	.st0{fill:#91625E;}
	.st1{fill:#6DB572;}
	.st2{fill:#6CB671;}
	.st3{fill:#F0C2A1;}
	.st4{opacity:0.149;}
	.st5{fill:#FFFFFF;}
	.st6{stroke:#000000;stroke-width:1.1146;stroke-miterlimit:10;}
	.st7{fill:#FFFFFF;stroke:#FFFFFF;stroke-width:1.1146;stroke-miterlimit:10;}
	.st8{fill:#CB5B7B;stroke:#CB5B7B;stroke-width:2.2725;stroke-miterlimit:10;}
	.st9{fill:#C8354F;}
	.st10{fill:#C93550;}
	.st11{opacity:0.0314;}
</style>
<g id="Ebene_6">
	<g>
		<path class="st0" d="M818.05,799.72c46.22-65.09,52.84-156.14,16.52-227.23c9.41-7.22,18.82-14.44,28.22-21.66
			c4.85,22.9,41.24,23.68,55.92,5.44c14.68-18.23,13.68-44.07,11.95-67.41c-2.8-37.76-10.39-82.7-45.07-97.89
			c-22.3-9.77-51.03-1.39-64.57,18.84c-13.55,20.23-10.35,49.98,7.17,66.88c-13.39,7.51-26.79,15.02-40.18,22.53
			c-51.46-35.92-47.09-30-117.89-44.12c-136.16-27.14-212.92,26.39-225.1,26.02c-12.18-0.36-17.16-24.15-20.75-35.79
			c-2.03-6.58-0.82-13.65-0.84-20.53c-0.09-30.05-25.79-56.39-55.26-62.28c-29.47-5.9-58.05,10.56-80.31,30.76
			c-27.68,25.11-45.62,62.76-29.59,96.52s69.52,45.77,92.08,15.97c6.21,8.13,12.43,16.25,18.64,24.38
			c-20.74,33.68-52.55,70-45.37,108.9c7.89,42.69,11.35,68.99,17.76,114.72c10.53,75.07,107.38,79.77,174.38,85.77
			c99.44,8.9,200.85-8,292.78-46.95"/>
		<g>
			<path class="st0" d="M824.52,803.5c37.05-52.6,49.2-120.97,35.09-183.5c-4.02-17.8-10.33-35.03-18.57-51.3
				c-0.9,3.42-1.79,6.84-2.69,10.26c9.41-7.22,18.82-14.44,28.22-21.66c-3.67-1.49-7.35-2.99-11.02-4.48
				c6.23,26.35,41.42,29.19,60.63,15.79c27.31-19.06,23.98-59.48,21.24-88.42c-2.66-28.17-7.9-59.31-27.7-80.96
				c-20.45-22.36-55.31-26.27-80.11-8.56c-29.64,21.16-32.47,65.74-6.74,91.31c0.51-3.93,1.01-7.85,1.52-11.78
				c-13.39,7.51-26.79,15.02-40.18,22.53c2.52,0,5.05,0,7.57,0c-18.33-12.78-36.79-26.38-58.58-32.56
				c-10.68-3.03-21.71-4.84-32.61-6.87c-18.23-3.38-36.38-7.33-54.77-9.81c-57.46-7.76-115.98-2.5-170.29,18.15
				c-6.88,2.62-13.66,5.48-20.46,8.3c-2.26,0.93-4.51,1.88-6.82,2.69c-0.8,0.28-1.61,0.53-2.41,0.78c-0.33,0.1-0.7,0.13-1.02,0.26
				c-1.51,0.58,0.85-0.42,0.71-0.07c-0.15,0.36-1.46-0.33-1.58-0.41c-2.12-1.44-3.46-4.18-4.59-6.36
				c-2.94-5.71-4.59-12.09-6.35-18.24c-0.94-3.3-2.12-6.55-2.38-9.98c-0.37-4.82,0.35-9.69,0.26-14.52
				c-0.14-8.21-1.97-16.23-5.16-23.77c-13.4-31.63-48.45-50.82-82.22-45.45c-18.82,2.99-35.86,12.83-50.68,24.42
				c-14.35,11.22-27.09,24.69-36.02,40.66c-15.95,28.53-17.71,66.69,7.53,90.65c19.56,18.56,51.52,26.11,76.08,13.22
				c5.89-3.09,11.13-7.52,15.22-12.77c-3.93-0.51-7.85-1.01-11.78-1.52c6.21,8.13,12.43,16.25,18.64,24.38c0-2.52,0-5.05,0-7.57
				c-14.03,22.65-30.75,43.82-40.69,68.75c-4.74,11.89-7.59,24.96-6.52,37.81c1.12,13.37,4.49,26.73,6.68,39.97
				c4.34,26.26,7.94,52.63,11.63,78.99c2.7,19.3,9.9,36.86,23.98,50.68c27.7,27.19,69.59,34.71,106.57,39.4
				c49.89,6.34,100.46,9.47,150.66,5.54c67.3-5.27,133.53-21.46,195.71-47.7c3.72-1.57,6.43-4.96,5.24-9.23
				c-0.98-3.51-5.46-6.83-9.23-5.24c-53.53,22.58-110.23,38.03-167.96,44.83c-28.58,3.37-57.39,4.72-86.16,3.96
				c-22.62-0.59-45.21-2.7-67.73-4.9c-35.5-3.47-74.89-7.89-105.28-28.19c-13.51-9.02-23.8-21.97-28.34-37.66
				c-3.3-11.42-4.13-23.59-5.78-35.33c-1.77-12.62-3.55-25.23-5.47-37.82c-2.08-13.64-4.32-27.26-6.74-40.85
				c-1.24-6.98-2.92-13.93-3-21.04c-0.08-6.98,1.12-13.78,3.11-20.45c8.17-27.31,27.47-50.1,42.26-73.98c1.27-2.05,1.54-5.55,0-7.57
				c-6.21-8.13-12.43-16.25-18.64-24.38c-2.56-3.35-8.47-5.76-11.78-1.52c-15.41,19.77-43.98,17.73-63.3,4.95
				c-26.01-17.2-26.32-51.21-12.7-76.53c8.06-14.97,19.8-27.45,33.09-37.93c13.38-10.55,29.4-19.73,46.59-21.76
				c30.06-3.55,62.3,18.61,66.8,49.26c1.24,8.49-0.68,17.05,0.76,25.55c1.03,6.06,3.23,12.26,5.16,18.09
				c3.58,10.81,9.89,26.49,23.59,26.54c3.8,0.01,7.51-1.56,10.98-2.95c5.89-2.35,11.69-4.89,17.58-7.24
				c47.53-18.93,98.06-26.37,149.1-22.43c19.01,1.47,37.61,4.86,56.31,8.45c12.79,2.46,25.65,4.62,38.4,7.32
				c4.48,0.95,8.94,1.99,13.33,3.3c1.8,0.54,3.6,1.12,5.37,1.75c0.93,0.33,1.86,0.68,2.79,1.05c0.35,0.14,0.69,0.27,1.04,0.42
				c2.26,0.93-1.28-0.58,0.98,0.42c8.95,4,17.27,9.28,25.42,14.7c6.03,4.01,11.98,8.14,17.92,12.28c2.18,1.52,5.36,1.24,7.57,0
				c13.39-7.51,26.79-15.02,40.18-22.53c4.21-2.36,4.9-8.42,1.52-11.78c-17.09-16.98-18.26-47.11-0.57-64.13
				c16.95-16.31,44.75-17.15,62.24-1.36c17.27,15.6,22.97,40.61,25.98,62.75c1.72,12.69,2.75,25.63,2.95,38.43
				c0.21,13.53-0.84,27.83-7.91,39.72c-5.58,9.37-14.97,14.6-25.89,14.76c-8.93,0.13-18.04-3.32-20.26-12.72
				c-1.01-4.28-7.19-7.42-11.02-4.48c-9.41,7.22-18.82,14.44-28.22,21.66c-3.37,2.59-4.72,6.25-2.69,10.26
				c27.29,53.92,29.11,118.87,7.51,175.04c-6.08,15.81-14.28,30.78-24.03,44.62C806,803.84,819,811.34,824.52,803.5L824.52,803.5z"
				/>
		</g>
	</g>
</g>
<g id="Ebene_7">
	<g>
		<path class="st1" d="M359.5,520.11c1.49,3.45,2.99,6.9,4.48,10.34c19.92-22.71,43.46-42.24,69.45-57.62
			c-3.15-5.98-6.3-11.95-9.46-17.93c-18.74,23.14-40.77,43.61-65.21,60.62"/>
		<g>
			<path class="st2" d="M353.03,523.89c1.49,3.45,2.99,6.9,4.48,10.34c1.88,4.33,8.85,4.84,11.78,1.52
				c19.64-22.25,42.44-41.25,67.93-56.45c3.59-2.14,4.6-6.65,2.69-10.26c-3.15-5.98-6.3-11.95-9.46-17.93
				c-2.09-3.97-8.77-5.21-11.78-1.52c-18.43,22.62-39.78,42.71-63.7,59.44c-7.85,5.49-0.36,18.5,7.57,12.95
				c24.98-17.48,47.47-38.15,66.73-61.79c-3.93-0.51-7.85-1.01-11.78-1.52c3.15,5.98,6.3,11.95,9.46,17.93
				c0.9-3.42,1.79-6.84,2.69-10.26c-26.52,15.81-50.53,35.64-70.97,58.8c3.93,0.51,7.85,1.01,11.78,1.52
				c-1.49-3.45-2.99-6.9-4.48-10.34c-1.62-3.75-7.05-4.52-10.26-2.69C351.85,515.83,351.42,520.2,353.03,523.89L353.03,523.89z"/>
		</g>
	</g>
	<g>
		<path class="st1" d="M804.36,489.36c-3.51,2.77-7.01,5.53-10.52,8.3c18.27,18.82,33.94,40.16,46.42,63.23
			c2.96-3.48,5.93-6.97,8.89-10.45c-13.48-19.94-26.97-39.88-40.45-59.82"/>
		<g>
			<path class="st2" d="M799.06,484.06c-3.51,2.77-7.01,5.53-10.52,8.3c-3.22,2.54-2.55,7.96,0,10.61
				c17.83,18.48,32.96,39.16,45.24,61.71c2.18,3.99,8.68,5.17,11.78,1.52c2.96-3.48,5.93-6.97,8.89-10.45
				c2.06-2.42,3.12-6.21,1.17-9.09c-13.48-19.94-26.97-39.88-40.45-59.82c-5.38-7.95-18.38-0.46-12.95,7.57
				c13.48,19.94,26.97,39.88,40.45,59.82c0.39-3.03,0.78-6.06,1.17-9.09c-2.96,3.48-5.93,6.97-8.89,10.45
				c3.93,0.51,7.85,1.01,11.78,1.52c-12.87-23.61-28.92-45.4-47.59-64.75c0,3.54,0,7.07,0,10.61c3.51-2.77,7.01-5.53,10.52-8.3
				c3.2-2.53,2.6-7.95,0-10.61C806.56,480.88,802.22,481.56,799.06,484.06L799.06,484.06z"/>
		</g>
	</g>
	<g>
		<path class="st1" d="M477.62,928.78c-20.44,155.68-40.87,311.36-61.31,467.04c113.24,55.25,216.9,67.85,343.55,22.77
			c-33.39-160.8-52.53-324.56-57.12-488.73c-73.81,11.19-149.68,8.64-222.57-7.47"/>
		<g>
			<path class="st2" d="M470.12,928.78c-15.93,121.38-31.87,242.75-47.8,364.13c-4.5,34.3-9.01,68.6-13.51,102.91
				c-0.31,2.38,1.62,5.46,3.71,6.48c42.06,20.45,86.27,37.01,132.45,45.15c44.76,7.89,90.23,7.73,135.02,0.13
				c27.89-4.74,55.21-12.31,81.86-21.75c4.01-1.42,6.11-5.01,5.24-9.23c-25.93-125.08-43.27-251.88-51.77-379.33
				c-2.39-35.77-4.07-71.58-5.08-107.41c-0.15-5.32-4.65-7.96-9.49-7.23c-72.53,10.87-146.97,8.24-218.58-7.47
				c-9.41-2.06-13.43,12.39-3.99,14.46c74.43,16.33,151.22,18.77,226.56,7.47c-3.16-2.41-6.33-4.82-9.49-7.23
				c3.64,128.36,16.1,256.45,37.25,383.12c6.01,36,12.74,71.88,20.15,107.61c1.75-3.08,3.49-6.15,5.24-9.23
				c-44.25,15.67-90.38,26.02-137.43,27.04c-43.55,0.94-86.66-6.23-128.06-19.58c-24.81-8-48.85-18.08-72.29-29.48
				c1.24,2.16,2.48,4.32,3.71,6.48c15.93-121.38,31.87-242.75,47.8-364.13c4.5-34.3,9.01-68.6,13.51-102.91
				c0.53-4.02-3.83-7.5-7.5-7.5C473.13,921.28,470.65,924.74,470.12,928.78L470.12,928.78z"/>
		</g>
	</g>
	<g>
		<g>
			<path class="st2" d="M704.46,941.43c9.65,0,9.67-15,0-15C694.81,926.43,694.79,941.43,704.46,941.43L704.46,941.43z"/>
		</g>
	</g>
</g>
<g id="Ebene_8">
	<g>
		<path class="st2" d="M519.13,1588.04c-10.03,7.8-23.91,7.67-35.98,11.63c-12.07,3.96-23.8,17.17-17.56,28.25
			c4.43,7.87,14.99,9.27,24.01,9.66c25.4,1.1,50.84,1.36,76.26,0.8c-1.41-9.8-2.82-19.61-4.24-29.41
			c-8.44,5.77-17.19,11.68-27.22,13.62s-21.79-1.15-26.99-9.95c-5.2-8.8,0.12-22.8,10.33-23.4"/>
		<g>
			<path class="st2" d="M515.34,1581.56c-12.88,9.46-30.55,6.58-43.79,15.52c-12.32,8.32-21.3,25.39-9.77,38.31
				c10.66,11.95,31.03,9.9,45.4,10.31c19.55,0.55,39.12,0.59,58.67,0.17c5.35-0.11,7.93-4.68,7.23-9.49
				c-1.41-9.8-2.82-19.61-4.24-29.41c-0.67-4.66-7.36-6.98-11.02-4.48c-10.38,7.09-23.49,16.69-36.75,11.91
				c-4.04-1.46-7.89-4.48-8.19-9.05c-0.18-2.87,1.3-8.23,4.83-8.62c4.03-0.44,7.5-3.13,7.5-7.5c0-3.71-3.45-7.95-7.5-7.5
				c-20.58,2.27-26.08,28.96-10.88,41.54c18.5,15.31,41.72,3.66,58.55-7.83c-3.67-1.49-7.34-2.99-11.02-4.48
				c1.41,9.8,2.82,19.61,4.24,29.41c2.41-3.16,4.82-6.33,7.23-9.49c-16.3,0.35-32.6,0.38-48.89,0.06
				c-8.15-0.16-16.29-0.41-24.44-0.74c-5.48-0.22-11.53-0.19-16.58-2.64c-11.92-5.77,2.2-18.15,9.19-20.66
				c12.68-4.54,26.49-4.11,37.78-12.39c3.29-2.41,4.84-6.48,2.69-10.26C523.76,1581.01,518.6,1579.17,515.34,1581.56L515.34,1581.56
				z"/>
		</g>
	</g>
	<g>
		<path class="st2" d="M606.88,1611.75c8.2,3.93,16.63,7.92,25.7,8.7c9.06,0.78,19.04-2.35,23.96-9.99
			c4.92-7.65,2.32-19.87-6.27-22.87c15.29,6.39,30.59,12.79,45.88,19.18c5.49,2.29,11.85,5.77,12.1,11.71
			c0.34,7.85-9.72,11.24-17.53,11.98c-28.73,2.71-57.72,2.71-86.45-0.03c-1.16-3.24-2.33-6.49-3.49-9.73"/>
		<g>
			<path class="st2" d="M603.1,1618.22c17.11,8.18,38.64,16.04,55.02,1.77c13.02-11.35,10.3-33.06-5.85-39.64
				c-3.78-1.54-8.21,1.67-9.23,5.24c-1.23,4.31,1.52,7.67,5.24,9.23c14.07,5.88,28.15,11.75,42.21,17.65
				c2.33,0.98,10.43,3.98,10.3,6.13c-0.16,2.67-6.48,3.75-8.44,4.11c-13.83,2.54-28.87,2.22-42.89,2.27
				c-15.09,0.06-30.17-0.66-45.19-2.05c2.41,1.84,4.82,3.67,7.23,5.51c-1.16-3.24-2.33-6.49-3.49-9.73
				c-3.24-9.02-17.74-5.13-14.46,3.99c1.16,3.24,2.33,6.49,3.49,9.73c1.22,3.4,3.7,5.18,7.23,5.51c18.95,1.76,37.97,2.42,57,1.85
				c9.17-0.27,18.35-0.79,27.49-1.65c6.43-0.6,13.02-1.59,18.57-5.13c5.46-3.48,8.92-9.19,8.27-15.76
				c-0.7-7.09-6.07-12.15-12.09-15.3c-7.55-3.95-15.86-6.79-23.72-10.08c-9.18-3.84-18.35-7.67-27.53-11.51
				c-1.33,4.82-2.66,9.64-3.99,14.46c2.69,1.09,3.46,5.28,3.21,7.78c-0.42,4.12-3.57,7.04-7.19,8.69c-11.08,5.04-23.64-1.23-33.62-6
				C602,1601.13,594.38,1614.06,603.1,1618.22L603.1,1618.22z"/>
		</g>
	</g>
</g>
<g id="Ebene_17">
</g>
<g id="Ebene_9">
	<g>
		<path class="st3" d="M534.64,1451.44c-1.19,38.51-2.37,77.02-3.56,115.53c-0.28,9.03-0.62,18.36-4.46,26.54
			c-3.84,8.18-12.14,14.98-21.14,14.16c10.59,13.66,33.82,10.78,45.49-1.97c11.67-12.75,14.15-31.43,13.43-48.7
			c-0.72-17.27-4.07-34.6-1.78-51.73c1.61-12.07,6-24.19,3.57-36.13c-2.43-11.93-16.17-22.65-26.53-16.25"/>
		<g>
			<path class="st3" d="M527.14,1451.44c-0.89,28.88-1.78,57.77-2.67,86.65c-0.42,13.49,0.06,27.38-1.58,40.79
				c-1.16,9.45-6,21.84-17.41,21.29c-7.07-0.34-9.12,8.16-5.3,12.8c9.44,11.48,26.16,13.59,39.57,8.67
				c15.57-5.71,25.36-19.41,29.45-35.13c4.75-18.3,2.05-36.91,0.69-55.44c-0.77-10.46-0.78-20.74,1.2-31.07
				c1.84-9.6,4.14-19.26,2.93-29.08c-2.14-17.37-20.56-34.24-38.13-24.52c-8.45,4.67-0.89,17.63,7.57,12.95
				c4.01-2.22,8.34,0.47,11.18,3.48c4.46,4.73,5.07,10.82,4.67,17.08c-0.5,7.87-2.81,15.55-3.91,23.35
				c-1.17,8.29-1.23,16.59-0.71,24.93c0.93,14.96,3.45,29.98,1.79,44.98c-1.26,11.43-5.45,24.75-15.62,31.32
				c-9.32,6.03-22.53,7.04-30.07-2.14c-1.77,4.27-3.54,8.54-5.3,12.8c13.42,0.64,24.37-9.29,29.05-21.21
				c5.33-13.6,4.13-29.57,4.57-43.92c1.01-32.87,2.03-65.73,3.04-98.6C542.44,1441.79,527.44,1441.8,527.14,1451.44L527.14,1451.44z
				"/>
		</g>
	</g>
	<g>
		<path class="st3" d="M599.29,1461.76c0.2,47.21,0.41,94.42,0.61,141.62c9.83,6.63,20.54,13.52,32.39,13.14
			s23.88-11.93,19.97-23.12c-2-5.74-7.33-9.52-11.4-14.04c-13.5-14.99-12.78-37.79-9.25-57.66s9.03-40.66,2.53-59.76
			c-10.26-1-20.52-2-30.79-3"/>
		<g>
			<path class="st3" d="M591.79,1461.76c0.12,27.93,0.24,55.85,0.36,83.78c0.06,13.96,0.12,27.93,0.18,41.89
				c0.01,3.32,0.03,6.65,0.04,9.97c0.02,3.52-0.65,7.57,1.64,10.53c3.25,4.22,10.57,7.61,15.25,10c10.14,5.19,22.08,8.38,33.06,3.92
				c9.46-3.84,17.83-12.63,18.18-23.3c0.41-12.54-10.05-18.03-16.38-27.09c-5.91-8.46-7.34-18.97-7.18-29.06
				c0.45-27.77,13.32-54.76,4.44-82.46c-1.1-3.42-3.79-5.17-7.23-5.51c-10.26-1-20.52-2-30.79-3c-4.04-0.39-7.5,3.73-7.5,7.5
				c0,4.38,3.45,7.11,7.5,7.5c10.26,1,20.52,2,30.79,3c-2.41-1.84-4.82-3.67-7.23-5.51c5.91,18.41,0.7,37.38-2.53,55.77
				c-2.7,15.38-4.23,31.96,0.86,47.03c2.59,7.68,6.74,14.37,12.43,20.13c4.11,4.16,10.37,8.81,6.46,15.16
				c-9.56,15.55-30.2,1.76-40.45-5.13c1.24,2.16,2.48,4.32,3.71,6.48c-0.2-47.21-0.41-94.42-0.61-141.62
				C606.75,1452.11,591.75,1452.09,591.79,1461.76L591.79,1461.76z"/>
		</g>
	</g>
</g>
<g id="Ebene_5">
	<g>
		<path class="st3" d="M361.83,632.42c-1.4,27.53-2.8,55.06-4.21,82.6c-13.12-5.46-30.05,5.5-30.43,19.7
			c-0.39,14.2,15.92,26.07,29.32,21.33c8.09,81.42,77.73,152.53,158.97,162.31c-1.89,35.24,27.85,69.18,63.04,71.92
			c35.19,2.74,80.02-27.14,83.61-62.25c76.24-11.83,151.01-84.92,157.15-171.8c12.67,1.42,25.35-9.49,25.85-22.23
			c0.5-12.74-11.29-24.6-24.03-24.18c-3.36-33.4-13.73-63.82-17.09-97.21c-37.37-6.71-47-25.18-79.21-25.18
			c-47.25,0-59.42-41.54-53.21-73.14c-25.11,40.04-22.57,75.95-92.06,62.39c-38.13-7.44-195.8,24.9-215.15,58.59"/>
		<g>
			<path class="st3" d="M354.33,632.42c-1.4,27.53-2.8,55.06-4.21,82.6c3.16-2.41,6.33-4.82,9.49-7.23
				c-17.73-6.68-38.94,7.5-39.89,26.31c-0.99,19.58,20.49,34.93,38.77,29.18c-3.16-2.41-6.33-4.82-9.49-7.23
				c6.9,66.49,51.44,126.44,112,154.3c17.37,7.99,35.51,13.15,54.47,15.51c-2.5-2.5-5-5-7.5-7.5
				c-1.38,33.03,21.03,63.82,51.53,75.32c29.81,11.24,63.93-1.29,86.48-21.92c12.65-11.58,21.65-26.56,23.65-43.73
				c-1.84,2.41-3.67,4.82-5.51,7.23c65.89-10.53,123.38-61.02,148.87-121.69c7.69-18.3,12.3-37.55,13.79-57.34c-2.5,2.5-5,5-7.5,7.5
				c17.02,1.3,33.26-13.21,33.36-30.41c0.09-16.87-14.97-30.99-31.54-31c2.5,2.5,5,5,7.5,7.5c-3.44-32.81-13.66-64.43-17.09-97.21
				c-0.32-3.08-2.08-6.59-5.51-7.23c-13.81-2.58-26.17-7.66-38.69-13.83c-11.32-5.58-22.58-10.08-35.25-11.29
				c-6.81-0.65-13.58-0.13-20.3-1.66c-5.53-1.26-10.65-3.35-15.35-6.54c-7.88-5.35-13.19-13.89-15.98-22.87
				c-3.29-10.59-3.67-22.04-1.61-32.91c1.55-8.16-9.04-13.29-13.71-5.78c-6.6,10.61-11.73,21.95-17.48,33.03
				c-4.46,8.59-9.51,17.43-16.97,22.28c-19.68,12.81-44.48,2.16-66.49,2.29c-23.65,0.14-47.47,4.07-70.63,8.54
				c-26.72,5.15-53.32,11.75-78.97,20.88c-12.18,4.34-24.38,9.2-35.62,15.64c-7.97,4.57-16.26,10.24-21.04,18.31
				c-4.92,8.33,8.04,15.88,12.95,7.57c0.38-0.65,0.8-1.26,1.22-1.88c-0.43,0.62-0.26,0.22,0.69-0.77c1.26-1.3,2.53-2.55,3.9-3.72
				c1.64-1.4,1.36-1.15,3.66-2.72c1.89-1.29,3.85-2.49,5.83-3.64c9.32-5.39,19.3-9.55,29.39-13.25
				c25.65-9.4,52.33-16.12,79.11-21.41c22.69-4.48,45.95-8.37,69.13-8.55c3.87-0.03,7.71,0.13,11.57,0.46
				c2.25,0.19-0.79-0.19,0.95,0.12c1.54,0.28,3.07,0.58,4.61,0.85c4.77,0.85,9.59,1.54,14.42,2.01c13.25,1.3,27.2,0.54,39.24-5.65
				c10.86-5.58,18.29-15.64,24.04-26.11c6.67-12.16,12.1-24.91,19.44-36.71c-4.57-1.93-9.14-3.85-13.71-5.78
				c-4.34,22.84-0.74,49.04,16.36,66.1c9.59,9.57,22.25,14.52,35.54,16.05c7.22,0.83,14.47,0.22,21.62,1.74
				c5.96,1.27,11.62,3.41,17.12,6.01c15.39,7.27,30.11,14.49,47.02,17.64c-1.84-2.41-3.67-4.82-5.51-7.23
				c3.44,32.81,13.66,64.43,17.09,97.21c0.42,4.04,3.09,7.5,7.5,7.5c8.39,0.01,16.72,7.25,16.54,16
				c-0.2,9.51-9.39,16.09-18.36,15.41c-4.26-0.32-7.21,3.71-7.5,7.5c-4.79,63.69-48.06,121.03-104.39,149.3
				c-14.88,7.46-30.81,12.64-47.25,15.27c-3.49,0.56-5.15,4.19-5.51,7.23c-2.83,24.37-27.14,43.21-48.78,50.74
				c-11.76,4.09-24.23,5.62-36.38,2.37c-12.83-3.43-24.05-11.35-32.44-21.55c-9.52-11.57-14.68-26.27-14.05-41.24
				c0.18-4.41-3.61-7.01-7.5-7.5c-60.5-7.56-113.54-50.71-138.21-105.69c-6.94-15.47-11.51-32.25-13.26-49.12
				c-0.48-4.61-4.43-8.82-9.49-7.23c-8.89,2.8-20.92-4.57-19.78-14.72c1.08-9.66,12.37-15.06,20.9-11.85
				c4.82,1.82,9.27-2.79,9.49-7.23c1.4-27.53,2.8-55.06,4.21-82.6C369.82,622.77,354.82,622.8,354.33,632.42L354.33,632.42z"/>
		</g>
	</g>
</g>
<g id="Ebene_20">
</g>
<g id="Ebene_24">
</g>
<g id="Ebene_3">
	<g>
		<g>
			<path d="M352.47,628.7c-6.23,66.65-11.75,136.01,15.64,199c11.69,26.89,29.4,51.04,52.92,68.72
				c23.77,17.87,52.59,27.81,81.63,33.05c29.65,5.35,59.83,6.46,89.88,7.18c30.53,0.73,61.18,0.95,91.44-3.75
				c29.22-4.54,57.71-14.53,81.24-32.81c22.48-17.46,38.92-41.36,49.88-67.45c26.11-62.17,18.27-130.64,6.21-195.1
				c-1.68-8.98-3.45-17.95-5.21-26.92c-1.87-9.46-16.33-5.46-14.46,3.99c12.38,62.8,25.47,129.18,6.85,192.12
				c-7.54,25.5-20.09,49.9-38.65,69.15c-19.25,19.96-44.05,32.32-70.8,38.82c-28.08,6.82-57.23,7.63-85.99,7.34
				c-28.59-0.29-57.37-0.84-85.81-4.03c-27.74-3.11-55.86-9.39-80.52-22.88c-24.51-13.41-43.73-33.7-57.27-58.02
				c-31.02-55.73-29.48-121.51-24.25-183.15c0.72-8.42,1.5-16.84,2.29-25.25C368.36,619.1,353.36,619.16,352.47,628.7L352.47,628.7z
				"/>
		</g>
	</g>
	<g>
		<g>
			<path d="M351.53,704.05c-17.56-0.55-33.55,13.98-34.23,31.64c-0.7,17.88,14.98,32.84,32.28,33.65c9.65,0.45,9.63-14.55,0-15
				c-9.3-0.43-17.83-9.16-17.28-18.65c0.56-9.7,9.91-16.93,19.23-16.64C361.19,719.35,361.18,704.35,351.53,704.05L351.53,704.05z"
				/>
		</g>
	</g>
	<g>
		<g>
			<path d="M830.16,719.16c7.87,0.58,14.87,7.73,15.15,15.65c0.28,7.78-6.54,15.6-14.29,16.46c-4.03,0.44-7.5,3.13-7.5,7.5
				c0,3.71,3.45,7.95,7.5,7.5c15.83-1.74,29.59-14.86,29.29-31.46c-0.3-16.48-14.16-29.47-30.15-30.65
				C820.53,703.45,820.58,718.46,830.16,719.16L830.16,719.16z"/>
		</g>
	</g>
	<g>
		<g>
			<path d="M363.75,635.18c61.94-34.59,132.36-55.73,203.47-57.46c19.76-0.48,39.61,0.52,59.19,3.36c4.04,0.59,8.01-1,9.23-5.24
				c1.01-3.52-1.23-8.64-5.24-9.23c-73.42-10.66-149,1.18-217.6,28.66c-19.43,7.78-38.34,16.74-56.62,26.95
				C347.75,626.94,355.31,639.9,363.75,635.18L363.75,635.18z"/>
		</g>
	</g>
	<g>
		<g>
			<path d="M634.88,577.64c13.12-21.77,28.03-42.39,41.15-64.16c5-8.29-7.97-15.84-12.95-7.57c-13.12,21.77-28.03,42.39-41.15,64.16
				C616.93,578.35,629.89,585.9,634.88,577.64L634.88,577.64z"/>
		</g>
	</g>
	<g>
		<g>
			<path d="M665.27,513.17c7.41,22.97,14.79,45.99,20.32,69.51c2.21,9.39,16.68,5.42,14.46-3.99
				c-5.53-23.51-12.91-46.53-20.32-69.51C676.79,500.03,662.3,503.94,665.27,513.17L665.27,513.17z"/>
		</g>
	</g>
	<g>
		<g>
			<path d="M692.83,588.18c39.28-2.45,80.19,7.66,112.23,30.91c3.3,2.4,8.33,0.54,10.26-2.69c2.25-3.76,0.57-7.9-2.69-10.26
				c-33.94-24.62-78.22-35.55-119.81-32.96C683.24,573.78,683.17,588.78,692.83,588.18L692.83,588.18z"/>
		</g>
	</g>
	<g>
		<g>
			<path d="M674.5,444.6c-70.56-21.4-148.22-15.96-215.82,13.04c-61.31,26.31-116.04,74.68-136.26,139.83
				c-11.74,37.84-10.08,78.37,1.51,116.03c2.83,9.2,17.31,5.28,14.46-3.99c-9.8-31.87-12.31-65.7-4.24-98.24
				c7.33-29.56,22.67-56.57,43.12-79.02c44.58-48.93,110.09-77.07,175.26-83.96c39.64-4.19,79.8-0.82,117.98,10.77
				C679.77,461.87,683.73,447.39,674.5,444.6L674.5,444.6z"/>
		</g>
	</g>
	<g>
		<g>
			<path d="M334.3,760.31c-0.91,20.67,3.33,44.7,26.02,51.29c9.29,2.7,13.25-11.77,3.99-14.46c-15.36-4.46-15.59-23.62-15-36.83
				C349.73,750.66,334.72,750.68,334.3,760.31L334.3,760.31z"/>
		</g>
	</g>
	<g>
		<g>
			<path d="M674.5,459.06c17.17-5.05,35.36-2.13,52.33,5.19c20.72,8.93,38.89,23.24,54.62,39.22
				c36.18,36.78,62.46,85.43,71.05,136.46c4.73,28.09,3.06,57.16-6.92,83.95c-3.37,9.06,11.12,12.97,14.46,3.99
				c19.64-52.76,8.11-111.83-15.95-161.09c-22.3-45.66-58.28-90.58-104.78-113.21c-21.26-10.35-45.61-15.8-68.81-8.98
				C661.27,447.31,665.2,461.79,674.5,459.06L674.5,459.06z"/>
		</g>
	</g>
	<g>
		<g>
			<path d="M839.65,750.1c-1.4,12.41-7.72,30.07-19.18,36.59c-8.39,4.77-0.84,17.73,7.57,12.95c16.43-9.34,24.6-31.75,26.61-49.54
				c0.46-4.03-3.77-7.5-7.5-7.5C842.71,742.6,840.1,746.05,839.65,750.1L839.65,750.1z"/>
		</g>
	</g>
	<g>
		<g>
			<path d="M505.33,931.08c3.21,31.86,25.34,59.02,55.19,70.13c29.85,11.11,63.44,0.94,84.89-21.89
				c12.29-13.07,19.93-29.29,22-47.09c0.47-4.03-3.78-7.5-7.5-7.5c-4.44,0-7.03,3.46-7.5,7.5c-2.91,24.94-22.36,47.04-45.83,55.11
				c-24.62,8.46-50.75,0.21-68.35-18.44c-9.7-10.29-16.48-23.66-17.91-37.82c-0.41-4.03-3.16-7.5-7.5-7.5
				C509.09,923.58,504.92,927.03,505.33,931.08L505.33,931.08z"/>
		</g>
	</g>
	<g>
		<g>
			<path d="M463.47,919.87c-15.56,125.61-31.12,251.22-46.68,376.82c-4.42,35.7-8.85,71.4-13.27,107.1c-0.5,4.03,3.8,7.5,7.5,7.5
				c4.47,0,7-3.46,7.5-7.5c15.56-125.61,31.12-251.22,46.68-376.82c4.42-35.7,8.85-71.4,13.27-107.1c0.5-4.03-3.8-7.5-7.5-7.5
				C466.5,912.37,463.97,915.84,463.47,919.87L463.47,919.87z"/>
		</g>
	</g>
	<g>
		<g>
			<path d="M697.11,930.83c4.57,128.09,18.28,255.84,41,381.99c6.46,35.85,13.66,71.57,21.57,107.13
				c2.09,9.42,16.56,5.43,14.46-3.99c-27.67-124.46-46.48-250.83-56.09-377.96c-2.7-35.68-4.67-71.41-5.94-107.16
				C711.76,921.2,696.76,921.16,697.11,930.83L697.11,930.83z"/>
		</g>
	</g>
	<g>
		<g>
			<path d="M407.24,1410.27c87.43,43.79,188.7,61.85,285.01,40.96c27.1-5.88,53.38-14.98,78.45-26.81
				c8.72-4.12,1.12-17.05-7.57-12.95c-85.29,40.25-183.68,42.27-273.27,15.63c-25.86-7.69-50.93-17.7-75.05-29.78
				C406.2,1393.01,398.59,1405.94,407.24,1410.27L407.24,1410.27z"/>
		</g>
	</g>
	<g>
		<g>
			<path d="M523.68,1448.21c-1.93,48.06-3.51,96.14-3.28,144.24c1.84-2.41,3.67-4.82,5.51-7.23c-10.7,3.54-22.38,9.82-27.04,20.71
				c-3.54,8.27-1.55,18.84,8.05,21.45c8.27,2.25,17.86-0.28,25.91-2.29c11.75-2.93,23.24-6.8,34.78-10.45
				c3.26-1.03,5.38-3.83,5.51-7.23c1.86-51.63,2.79-103.29,4.66-154.92c0.35-9.65-14.65-9.64-15,0
				c-1.86,51.63-2.79,103.29-4.66,154.92c1.84-2.41,3.67-4.82,5.51-7.23c-15.08,4.77-30.82,11.19-46.66,12.8
				c-1.83,0.19-5.65-0.21-6.05-0.06c-1.03,0.38-0.22-0.77-0.02,0.01c0.01,0.03,1.04,1.12,1.07,1.13c0.89,0.32-0.25,0.86,0.24-1.01
				c1.88-7.19,11.37-11.27,17.7-13.37c3.14-1.04,5.52-3.82,5.51-7.23c-0.23-48.1,1.35-96.19,3.28-144.24
				C539.07,1438.56,524.07,1438.57,523.68,1448.21L523.68,1448.21z"/>
		</g>
	</g>
	<g>
		<g>
			<path d="M589.22,1458.72c-3.1,50.73-5.33,101.85,0,152.51c0.47,4.45,3.09,6.93,7.5,7.5c11.54,1.49,23.05,3.21,34.61,4.49
				c7.14,0.79,14.47,1.59,21.64,0.74c5.81-0.68,11.77-2.54,15.02-7.83c3.86-6.3-0.26-12.1-4.25-16.98
				c-5.99-7.33-12.58-14.28-18.97-21.26c-1.04-1.13-2.08-2.98-1.24-0.85c-0.26-0.66-0.41-1.37-0.57-2.06
				c-0.11-0.51-0.5-3.24-0.27-1.43c-0.15-1.19-0.25-2.39-0.34-3.58c-1.21-15.69-0.49-31.6-0.01-47.3
				c0.65-21.4,1.69-42.78,2.48-64.17c0.36-9.65-14.64-9.64-15,0c-1.26,34.12-3.77,68.38-2.89,102.54
				c0.14,5.45,0.37,10.96,1.28,16.34c1,5.92,4.41,9.39,8.37,13.85c5.54,6.26,12.32,12.73,17.05,19.13c-0.06-0.08,1.04,2,1.37,2.15
				c-0.77-0.36-0.05-3.72,0.17-4.18c0.11-0.22,0.9-0.35,0.32-0.32c0.03,0-1.75,0.86-0.68,0.4c0.9-0.38-1.03,0.27-1.27,0.33
				c-1.92,0.46-1.1,0.35-3.06,0.45c-1.59,0.08-3.17,0.12-4.76,0.09c-4.36-0.07-8.71-0.47-13.04-0.93
				c-12.02-1.28-23.98-3.09-35.97-4.64c2.5,2.5,5,5,7.5,7.5c-5.33-50.66-3.1-101.78,0-152.51
				C604.81,1449.08,589.81,1449.12,589.22,1458.72L589.22,1458.72z"/>
		</g>
	</g>
	<g>
		<g>
			<path d="M525.89,1579.45c-21.96,5.41-47.54,10.46-65.05,25.72c-9.1,7.93-12.32,19.95-5.57,30.54
				c8.07,12.67,23.33,13.36,37.04,13.61c25.99,0.47,52.02-2.47,77.96-3.57c5.27-0.22,8.02-4.59,7.23-9.49
				c-1.46-9.04-2.92-18.09-4.38-27.13c-0.64-3.99-5.63-6.25-9.23-5.24c-4.25,1.19-5.89,5.2-5.24,9.23
				c1.46,9.04,2.92,18.09,4.38,27.13c2.41-3.16,4.82-6.33,7.23-9.49c-21.31,0.91-42.58,2.76-63.9,3.42
				c-8.06,0.25-16.18,0.38-24.22-0.37c-2.58-0.24-5.15-0.64-7.65-1.33c-0.51-0.14-3.14-1.08-2.43-0.75
				c-1.03-0.48-2.02-1.22-1.57-0.83c-1.46-1.28-2.63-3.02-3.47-4.86c-0.35-0.77-0.79-1.8-0.53-3.52c-0.27,1.82,0.32-0.99,0.46-1.4
				c0.37-1.07-0.52,1.04,0.01,0.01c0.25-0.49,0.51-0.99,0.83-1.44c0.78-1.1,1.78-2.26,3.66-3.91c6.85-5.99,18.2-10.27,27.56-13.39
				c10.14-3.38,20.5-5.92,30.87-8.47C539.24,1591.61,535.28,1577.14,525.89,1579.45L525.89,1579.45z"/>
		</g>
	</g>
	<g>
		<g>
			<path d="M636.82,1587.54c17.07,4.6,33.67,10.71,49.52,18.57c6.25,3.1,15.1,6.32,19.79,11.75c3.4,3.93,0.33,6.61-3.58,8.35
				c-5.68,2.53-11.98,2.56-18.06,2.7c-9.06,0.21-18.13,0.21-27.19,0.01c-18.77-0.42-37.51-1.77-56.16-3.95
				c2.41,1.84,4.82,3.67,7.23,5.51c-1.48-7.12-2.95-14.25-4.43-21.37c-1.96-9.45-16.42-5.45-14.46,3.99
				c1.48,7.12,2.95,14.25,4.43,21.37c0.72,3.49,4.07,5.14,7.23,5.51c17.04,1.99,34.16,3.29,51.31,3.82
				c8.41,0.26,16.83,0.34,25.24,0.24c7.38-0.09,14.86,0.03,22.13-1.42c11.04-2.19,23.35-9.3,22.91-22.07
				c-0.53-15.31-18.86-22.55-30.47-28.21c-16.5-8.04-33.74-14.5-51.46-19.28C631.48,1570.56,627.5,1585.03,636.82,1587.54
				L636.82,1587.54z"/>
		</g>
	</g>
	<g>
		<g>
			<path d="M347.53,523.44c2.66,3.65,5.31,7.31,7.97,10.96c2.3,3.16,6.62,5.04,10.26,2.69c3.14-2.02,5.16-6.87,2.69-10.26
				c-2.66-3.65-5.31-7.31-7.97-10.96c-2.3-3.16-6.62-5.04-10.26-2.69C347.08,515.2,345.06,520.05,347.53,523.44L347.53,523.44z"/>
		</g>
	</g>
	<g>
		<g>
			<path d="M360.3,514.99c22.61-21.23,45.22-42.46,67.82-63.68c-3.93-0.51-7.85-1.01-11.78-1.52c5.62,8.61,11.24,17.22,16.86,25.82
				c5.26,8.05,18.25,0.54,12.95-7.57c-5.62-8.61-11.24-17.22-16.86-25.82c-2.69-4.12-8.13-4.94-11.78-1.52
				c-22.61,21.23-45.22,42.46-67.82,63.68C342.64,511.01,353.27,521.6,360.3,514.99L360.3,514.99z"/>
		</g>
	</g>
	<g>
		<g>
			<path d="M795.19,501.21c7.61-4.54,15.22-9.07,22.83-13.61c-3.42-0.9-6.84-1.79-10.26-2.69c14.5,23.89,28.99,47.78,43.49,71.67
				c0.39-3.03,0.78-6.06,1.17-9.09c-5.84,4.9-11.68,9.79-17.51,14.69c-7.41,6.21,3.25,16.77,10.61,10.61
				c5.84-4.9,11.68-9.79,17.51-14.69c2.48-2.08,2.78-6.43,1.17-9.09c-14.5-23.89-28.99-47.78-43.49-71.67
				c-2.09-3.44-6.73-4.8-10.26-2.69c-7.61,4.54-15.22,9.07-22.83,13.61C779.33,493.2,786.87,506.17,795.19,501.21L795.19,501.21z"/>
		</g>
	</g>
	<g>
		<g>
			<path d="M433.92,443.03c10.42-28.15-2.97-60.19-27.1-76.55c-26.2-17.76-60.76-16.49-88.61-3.6
				c-51.95,24.03-101.49,99.17-56.8,151.35c20.94,24.46,56.56,24.57,83.33,10.19c14.05-7.55,25.55-19.1,35.15-31.67
				c9.82-12.85,18.65-27.27,24.89-42.21c6.41-15.35,7.8-32.75-3.24-46.34c-9.19-11.32-24.51-16.9-38.85-15.99
				c-16.37,1.05-31.76,8.66-44.65,18.47c-11.69,8.89-22,20.45-25.92,34.92c-3.53,13.03-0.59,27.45,7.94,37.94
				c9.34,11.48,24.58,14.85,38.25,9.52c13.45-5.24,28.94-17.79,32.68-32.36c3.55-13.83-6.91-31.15-22.71-26.03
				c-6.7,2.17-11.35,7.97-11.45,15.06c-0.14,9.66,14.86,9.66,15,0c0.03-2.37,3.6,0,4.18,1.07c2.34,4.33-0.5,9.5-3.16,12.95
				c-6.5,8.42-18.19,18-29.55,16.85c-9.17-0.93-14.93-9.15-16.94-17.49c-2.42-10.02,1.5-20.05,7.62-27.97
				c7.28-9.41,17.65-16.66,28.21-21.91c10.7-5.32,23.16-8.18,34.78-4.27c10.31,3.47,18.05,12.03,17.99,23.23
				c-0.06,13.04-7.93,25.53-14.32,36.4c-12.21,20.78-28.34,42.09-51.81,50.67c-21.59,7.89-46.54,4.49-59.91-15.8
				c-28.52-43.27,10.18-97.28,48.23-119.15c23.13-13.3,52.7-17.34,76.84-4.09c21.97,12.07,34.42,38.69,25.48,62.83
				C416.1,448.11,430.59,452.02,433.92,443.03L433.92,443.03z"/>
		</g>
	</g>
	<g>
		<g>
			<path d="M814.16,491.43c19.01,22.56,24.35,54.36,47.41,73.9c10.37,8.79,23.23,15.47,37.08,15.7
				c13.73,0.23,26.01-6.83,33.77-17.95c7.63-10.94,10.34-24.69,11.55-37.73c1.59-17.24,0.89-34.65-1.46-51.78
				c-4.2-30.64-13.39-66.13-38.63-86.39c-11.11-8.92-24.89-14.96-39.35-14.53c-13.41,0.4-25.83,6.15-35.8,14.93
				c-21.62,19.03-28.13,48.94-21.1,76.18c3.74,14.52,10.86,28.19,19.66,40.26c8.71,11.95,19.22,25.08,32.89,31.52
				c12.7,5.99,27.65,4.59,37.28-6.28c8.28-9.35,11.61-21.91,13.25-34.02c2.11-15.65,3.09-32.34-3.25-47.18
				c-5.37-12.55-16.85-23.12-30.7-24.93c-14.34-1.87-27.66,7.02-32.87,20.27c-5.33,13.56,0.43,28.14,12.13,36.19
				c5.52,3.79,12.33,5.67,19,5.28c9.6-0.55,9.66-15.55,0-15c-9.55,0.55-19.66-7.41-18.13-17.73c1.37-9.19,10.5-16.02,19.63-13.89
				c11.11,2.58,17.55,13.53,19.72,23.93c2.35,11.25,1.15,24.02-0.96,35.24c-1.56,8.3-4.13,18.64-11.28,24.01
				c-9.27,6.95-20.47-0.11-27.65-6.69c-17.44-15.98-31.85-38.45-35.76-62.01c-3.48-20.97,3.84-43.3,21.03-56.44
				c18.5-14.15,41.8-9.1,57.51,6.73c18.42,18.56,25.19,47.59,28.68,72.65c1.93,13.84,2.44,27.91,1.73,41.86
				c-0.55,10.79-1.71,22.28-6.58,32.11c-4.92,9.93-13.51,16.79-24.97,16.38c-11.49-0.41-22.31-7.43-30.18-15.35
				c-9.29-9.34-15.07-21.61-20.85-33.28c-6.38-12.88-12.86-25.51-22.18-36.57C818.54,473.43,807.97,484.08,814.16,491.43
				L814.16,491.43z"/>
		</g>
	</g>
</g>
<g id="Ebene_10">
</g>
<g id="Ebene_4">
</g>
<g id="Ebene_11">
	<g class="st4">
		<path d="M660.18,456.38c-131.67,7.51-342.47,63.42-320.23,258.6c-29.64-78.04,11.67-170.52,80.26-218.12
			s157.41-57.04,240.34-47.46"/>
		<g>
			<path d="M660.18,448.88c-59.69,3.45-120.11,14.52-175.58,37.32c-55.96,23.01-109.44,59.86-135.66,116.22
				c-16.37,35.19-20.76,74.2-16.49,112.56c4.91-0.66,9.82-1.33,14.73-1.99c-21.12-56.47-4.22-119.23,31.4-165.97
				c39.94-52.39,102.72-79.88,166.56-89.41c38.14-5.69,77.18-5.07,115.41-0.71c4.03,0.46,7.5-3.78,7.5-7.5c0-4.44-3.46-7.04-7.5-7.5
				c-70.51-8.03-144.78-2.76-209.5,28.36c-58.66,28.21-105.12,79.96-122,143.44c-9.01,33.89-8.69,70.26,3.66,103.27
				c1.32,3.53,4.32,5.9,8.23,5.37c3.35-0.45,6.92-3.65,6.5-7.37c-3.65-32.8-1.17-66.03,10.97-96.93
				c10.44-26.57,28.1-49.74,49.34-68.61c44.38-39.42,103.01-60.62,160.21-73.07c30.35-6.61,61.21-10.7,92.21-12.49
				C669.77,463.33,669.83,448.33,660.18,448.88L660.18,448.88z"/>
		</g>
	</g>
	<g class="st4">
		<path d="M348.08,767.1c4.05,9.13,8.11,18.27,12.16,27.4c-7.6-4.67-11.51-14.61-9.14-23.21"/>
		<g>
			<path d="M341.61,770.89c4.05,9.13,8.11,18.27,12.16,27.4c3.42-3.42,6.84-6.84,10.26-10.26c-4.8-3.2-7.01-9.16-5.7-14.74
				c2.21-9.39-12.25-13.39-14.46-3.99c-2.92,12.38,2.05,24.64,12.59,31.68c6.89,4.6,13-4.09,10.26-10.26
				c-4.05-9.13-8.11-18.27-12.16-27.4c-1.66-3.73-7.02-4.53-10.26-2.69C340.46,762.81,339.98,767.21,341.61,770.89L341.61,770.89z"
				/>
		</g>
	</g>
	<g class="st4">
		<path d="M368.75,637.55c34.75,286.05,216.53,294.57,391.93,254.67c-60.78,21.22-123.53,40.47-187.91,40.23
			c-64.38-0.24-131.45-22.58-172.49-72.18c-51.45-62.18-51.87-152.6-32.73-231"/>
		<g>
			<path d="M361.25,637.55c5.91,48.14,16.29,96.07,36.6,140.33c15.08,32.85,36.26,63.43,64.23,86.6
				c24.84,20.57,54.03,34.95,85.2,43.08c31.81,8.29,65.06,10.45,97.81,9.05c35.2-1.5,70.21-6.98,104.64-14.31
				c4.32-0.92,8.63-1.87,12.93-2.85c-1.33-4.82-2.66-9.64-3.99-14.46c-81.28,28.34-169.83,54.46-255.6,30.47
				c-35.97-10.06-69.76-28.68-94.53-57c-24.31-27.78-37.64-63.43-42.67-99.67c-5.89-42.46-1.15-86.08,8.89-127.53
				c2.27-9.38-12.19-13.38-14.46-3.99c-18.17,75.02-20.4,163.81,27.36,228.91c49.38,67.31,137.41,89.55,217.14,82.34
				c54.31-4.91,106.61-21.2,157.85-39.07c9.07-3.16,5.51-16.62-3.99-14.46c-63.06,14.31-130.71,24.28-194.57,11.1
				c-29.87-6.17-57.96-17.52-82.73-35.47c-27.05-19.59-48.03-46.48-63.5-75.9c-23.84-45.34-35.44-96.65-41.64-147.17
				c-0.49-4.02-3.09-7.5-7.5-7.5C365.08,630.05,360.76,633.5,361.25,637.55L361.25,637.55z"/>
		</g>
	</g>
	<g class="st4">
		<path d="M341.02,725.83c-0.98,9.71,2.62,19.78,9.54,26.66c-10.64-2.72-17.95-14.7-15.5-25.41"/>
		<g>
			<path d="M333.52,725.83c-0.91,11.9,3.53,23.38,11.73,31.96c2.43-4.18,4.86-8.36,7.3-12.54c-6.7-1.97-11.61-9.15-10.26-16.18
				c1.81-9.43-12.64-13.47-14.46-3.99c-2.91,15.14,5.76,30.23,20.74,34.63c7.35,2.16,12.36-7.24,7.3-12.54
				c-5.64-5.89-7.96-13.29-7.34-21.36C349.25,716.2,334.25,716.25,333.52,725.83L333.52,725.83z"/>
		</g>
	</g>
	<g class="st4">
		<path d="M833.52,728.61c-0.97,9.47,1.79,19.28,7.57,26.84c-5.57-7.6-7.8-17.56-6.02-26.81"/>
		<g>
			<path d="M826.02,728.61c-0.88,10.86,2.17,21.82,8.59,30.63c5.6,7.68,18.52,0.43,12.95-7.57c-4.32-6.2-6.54-13.45-5.26-21.03
				c1.59-9.44-12.87-13.5-14.46-3.99c-1.93,11.47,0.06,22.94,6.78,32.59c4.32-2.52,8.63-5.05,12.95-7.57
				c-5.07-6.94-7.24-14.48-6.54-23.06C841.79,718.98,826.79,719.03,826.02,728.61L826.02,728.61z"/>
		</g>
	</g>
	<g class="st4">
		<path d="M477.62,928.78c-50.94,206.73,53,458.23,284.7,487.83c-112.87,39.13-243.56,51.05-347.31-27.05
			c28.5-151.92,54.71-309.82,61.9-464.22"/>
		<g>
			<path d="M470.39,926.78c-10.12,41.33-14.31,84.14-12.58,126.64c1.72,42.36,9.11,84.65,22.4,124.92
				c13.02,39.48,31.61,77.32,56.11,110.97c24.38,33.5,54.25,62.78,89.01,85.42c36.12,23.54,77.16,39.37,119.61,46.78
				c5.77,1.01,11.57,1.84,17.38,2.59c-0.66-4.91-1.33-9.82-1.99-14.73c-86.17,29.76-182.73,44.19-270.49,12.43
				c-25.49-9.22-49.35-22.5-71.04-38.72c1.15,2.82,2.3,5.65,3.45,8.47c22.61-120.59,43.25-241.73,54.85-363.94
				c3.23-34.03,5.72-68.13,7.33-102.27c0.45-9.65-14.55-9.63-15,0c-5.71,121.27-22.65,241.7-43.35,361.23
				c-5.84,33.71-11.99,67.37-18.29,101c-0.68,3.64,0.57,6.31,3.45,8.47c39.21,29.34,85.46,47.95,133.88,54.94
				c47.17,6.8,95.04,3.66,141.64-5.73c26.32-5.3,52.2-12.64,77.57-21.4c8.41-2.9,6.23-13.67-1.99-14.73
				c-82.14-10.66-155.67-53.67-206.57-118.76c-49.41-63.18-76.39-143-82.12-222.55c-3.31-45.94,0.27-92.28,11.23-137.04
				C487.15,921.4,472.69,917.4,470.39,926.78L470.39,926.78z"/>
		</g>
	</g>
	<g class="st4">
		<path d="M526.63,937.89c-0.24,12.69-2.78,31.44,0.58,29.53c36.62-20.85,88.08-15.75,134.46-31.54
			c-44.49-0.05-104.36-4.75-148.85-4.8"/>
		<g>
			<path d="M519.13,937.89c-0.17,6.96-0.84,13.9-1.08,20.86c-0.18,5.16-0.54,12,4.52,15.11c5.96,3.66,13.43-2.85,18.9-5.07
				c7.19-2.93,14.74-5.03,22.3-6.74c33.13-7.51,67.48-8.07,99.9-18.93c7.83-2.62,6.76-14.71-1.99-14.73
				c-49.66-0.12-99.19-4.69-148.85-4.8c-9.65-0.02-9.67,14.98,0,15c49.66,0.12,99.19,4.69,148.85,4.8
				c-0.66-4.91-1.33-9.82-1.99-14.73c-23.24,7.78-47.57,10.53-71.72,13.99c-11.27,1.61-22.54,3.4-33.57,6.24
				c-5.25,1.35-10.44,2.94-15.5,4.89c-2.49,0.96-4.97,1.99-7.4,3.09c-1.38,0.62-2.74,1.27-4.09,1.95c-1.51,0.76-4.4,1.03-0.81,1.22
				c1.26,0.34,2.52,0.68,3.79,1.02c-0.58-0.35,3.49,2.73,2.72,3.79c0.15-0.21-0.12-2.47-0.12-2.71c-0.03-2.42,0.11-4.85,0.25-7.27
				c0.31-5.66,0.76-11.31,0.9-16.97C534.37,928.24,519.37,928.24,519.13,937.89L519.13,937.89z"/>
		</g>
	</g>
	<g class="st4">
		<path d="M677.89,514.17c11.1,29.41,32.95,54.63,60.48,69.8c-16.39,3.63-33.28-6.88-42.35-21c-9.07-14.12-12.02-31.19-14.77-47.75"
			/>
		<g>
			<path d="M670.66,516.16c12.06,31.39,34.51,57.85,63.93,74.28c0.6-4.57,1.19-9.14,1.79-13.71c-13.23,2.6-26.41-6.31-33.47-16.94
				c-9.14-13.75-11.76-30.6-14.42-46.58c-1.58-9.5-16.04-5.47-14.46,3.99c3.24,19.41,7.06,39.57,19.74,55.29
				c11.22,13.89,28.75,22.2,46.6,18.7c6.41-1.26,7.18-10.7,1.79-13.71c-25.84-14.44-46.39-37.61-57.04-65.32
				C681.69,503.25,667.19,507.13,670.66,516.16L670.66,516.16z"/>
		</g>
	</g>
	<g class="st4">
		<path d="M287.21,402.68c-26.74,46.87,8.39,105.33,61.92,104.3c-19.01,22.05-58.51,16.94-75.78-6.5
			c-17.27-23.44-13.7-57.97,3.3-81.6"/>
		<g>
			<path d="M280.73,398.9c-13.52,24.22-13.4,53.77,0.86,77.68c14.17,23.76,39.91,38.18,67.54,37.9c-1.77-4.27-3.54-8.54-5.3-12.8
				c-15.77,17.69-45.34,14.42-61.08-1.7c-20.35-20.84-15.01-55.46,0.39-77.32c5.57-7.91-7.43-15.41-12.95-7.57
				c-15.9,22.57-20.8,53.37-9.28,78.9c10.06,22.29,34.13,36.01,58.44,34.47c13.33-0.84,26.11-6.09,35.09-16.17
				c4.19-4.7,1.48-12.87-5.3-12.8c-22.41,0.22-43.08-11.16-54.59-30.47c-11.52-19.31-11.81-42.93-0.86-62.54
				C298.39,398.03,285.44,390.46,280.73,398.9L280.73,398.9z"/>
		</g>
	</g>
	<g class="st4">
		<path d="M871.3,384.59c-41.89,29.05-54.28,93.03-26.28,135.62c-11.96-22.53-24.21-46.07-25.03-71.56
			c-0.82-25.49,13.52-53.41,38.33-59.34"/>
		<g>
			<path d="M867.52,378.11c-45.16,31.85-59.18,99.14-28.97,145.89c5.24,8.1,17.5,0.99,12.95-7.57
				c-12.19-22.97-25.98-48.3-23.82-75.2c1.54-19.25,12.95-39.64,32.64-44.69c9.34-2.4,5.38-16.87-3.99-14.46
				c-24.89,6.38-39.95,30.44-43.16,54.77c-4.1,31.07,11.29,60.6,25.38,87.15c4.32-2.52,8.63-5.05,12.95-7.57
				c-25.51-39.47-15.14-98.05,23.59-125.36C882.92,385.55,875.43,372.53,867.52,378.11L867.52,378.11z"/>
		</g>
	</g>
	<g class="st4">
		<path d="M470.33,1619.55c30.27,16.16,66.45,20.93,99.86,13.16c-25.58,6.13-52.24,5.83-78.51,4.45
			c-7.13-0.38-14.69-0.98-20.43-5.23s-8.32-13.5-3.3-18.58"/>
		<g>
			<path d="M466.54,1626.03c32.42,17.05,69.92,21.99,105.64,13.91c-1.33-4.82-2.66-9.64-3.99-14.46
				c-19.24,4.49-38.95,5.35-58.65,4.89c-8.7-0.2-18.06,0.18-26.61-1.61c-3.12-0.65-6.67-1.65-8.68-4.33
				c-1.01-1.35-2.34-4.24-1.01-5.78c6.26-7.28-4.3-17.94-10.61-10.61c-7.02,8.16-5.88,19.79,1.42,27.5
				c7.75,8.19,19.93,8.75,30.43,9.27c26.01,1.28,52.21,1.09,77.69-4.86c9.41-2.19,5.42-16.59-3.99-14.46
				c-31.68,7.16-65.34,2.72-94.08-12.4C465.58,1608.59,457.99,1621.53,466.54,1626.03L466.54,1626.03z"/>
		</g>
	</g>
	<g class="st4">
		<path d="M601.69,1616.28c33.45,20.41,76.08,13.67,114.55,6.25c-37.24,13.01-78.9,12.96-116.11-0.14"/>
		<g>
			<path d="M597.91,1622.76c36.53,21.79,80.76,14.61,120.33,7.01c-1.33-4.82-2.66-9.64-3.99-14.46
				c-36.39,12.5-75.76,12.44-112.12-0.14c-9.14-3.16-13.07,11.32-3.99,14.46c38.64,13.37,81.42,13.42,120.09,0.14
				c9.17-3.15,5.49-16.29-3.99-14.46c-35.45,6.81-75.97,14.07-108.77-5.5C597.17,1604.85,589.61,1617.81,597.91,1622.76
				L597.91,1622.76z"/>
		</g>
	</g>
	<g class="st4">
		<path d="M535.09,1458.77c3,48.68,10.78,97.06,23.2,144.23c-15.33,5.97-32.19,7.97-48.49,5.74c13.6-4.95,19.57-20.76,22.05-35.02
			c5.41-31.09,2.15-62.95-1.13-94.34"/>
		<g>
			<path d="M527.59,1458.77c3.1,49.36,10.94,98.37,23.47,146.22c1.75-3.08,3.49-6.15,5.24-9.23c-15,5.68-30.58,7.49-46.5,5.47
				c0.66,4.91,1.33,9.82,1.99,14.73c21.76-8.61,26.88-32.81,29.17-53.71c3.03-27.6,0.13-55.4-2.74-82.88
				c-0.42-4.03-3.15-7.5-7.5-7.5c-3.73,0-7.92,3.45-7.5,7.5c2.54,24.32,5.09,48.82,3.56,73.3c-0.64,10.25-1.76,20.7-4.96,30.5
				c-2.35,7.22-6.52,15.36-14.02,18.33c-8.09,3.2-6.5,13.65,1.99,14.73c17.04,2.16,34.42,0.08,50.48-6.01
				c3.83-1.45,6.35-5,5.24-9.23c-12.2-46.58-19.91-94.18-22.93-142.23C541.99,1449.18,526.99,1449.11,527.59,1458.77L527.59,1458.77
				z"/>
		</g>
	</g>
	<g class="st4">
		<path d="M601.1,1464.27c3.11,48.33,11.15,96.34,23.97,143.05c-5.3,5.44-15.27,2.52-19.58-3.74c-4.31-6.26-4.56-14.36-4.67-21.96
			c-0.52-38.2-1.05-76.4-1.57-114.6"/>
		<g>
			<path d="M593.6,1464.27c3.22,49.02,11.3,97.65,24.24,145.04c0.64-2.43,1.29-4.86,1.93-7.3c-2.06,1.85-5.77-0.17-7.34-1.78
				c-3.34-3.41-3.76-9.18-3.98-13.68c-0.63-13.14-0.42-26.36-0.6-39.51c-0.37-26.67-0.73-53.35-1.1-80.02
				c-0.13-9.64-15.13-9.67-15,0c0.45,32.6,0.89,65.2,1.34,97.81c0.19,13.49-2.09,30.75,5.92,42.54
				c7.02,10.32,21.66,13.96,31.36,5.26c1.96-1.76,2.6-4.82,1.93-7.3c-12.59-46.12-20.57-93.35-23.7-141.06
				C607.97,1454.69,592.96,1454.62,593.6,1464.27L593.6,1464.27z"/>
		</g>
	</g>
</g>
<g id="Ebene_12">
	<g class="st4">
		<g>
			<path class="st5" d="M647.74,1014.34c1.34,68.04,6.3,136,14.96,203.51c2.61,20.36,5.49,40.69,8.7,60.96
				c1.64,10.37,15.12,17.04,24.6,13.97c11.26-3.64,15.73-13.49,13.97-24.6c-1.34-8.44-2.62-16.89-3.85-25.35
				c-0.57-3.9-1.12-7.81-1.66-11.72c-0.27-1.95-0.54-3.91-0.8-5.86c0.05,0.4,0.37,2.8,0.06,0.43c-0.17-1.3-0.34-2.61-0.51-3.91
				c-2.17-16.63-4.11-33.28-5.84-49.96c-3.45-33.36-6-66.8-7.66-100.3c-0.94-19.05-1.59-38.1-1.97-57.17
				c-0.21-10.45-9.05-20.49-20-20C657.08,994.82,647.52,1003.14,647.74,1014.34L647.74,1014.34z"/>
		</g>
	</g>
	<g class="st4">
		<g>
			<path class="st5" d="M703.92,1363.42c10.46,0,20.48-9.2,20-20c-0.49-10.84-8.79-20-20-20c-10.46,0-20.48,9.2-20,20
				C684.4,1354.25,692.7,1363.42,703.92,1363.42L703.92,1363.42z"/>
		</g>
	</g>
	<g class="st4">
		<g>
			<path class="st5" d="M759.11,647.09c0.35,2.14,0.69,4.28,1.02,6.43c0.13,0.84,0.99,7.31,0.44,2.97c0.47,3.69,0.9,7.38,1.27,11.09
				c0.81,8.02,1.38,16.06,1.72,24.11c0.68,16.1,0.41,32.25-0.8,48.32c-0.28,3.71-0.61,7.41-0.99,11.12
				c-0.22,2.16-0.46,4.32-0.71,6.47c-0.1,0.84-0.95,7.32-0.35,2.98c-1.11,7.98-2.45,15.93-4.02,23.84
				c-3.15,15.82-7.25,31.42-12.21,46.76c-3.22,9.96,3.75,22.28,13.97,24.6c10.96,2.5,21.16-3.3,24.6-13.97
				c21.41-66.25,25.88-136.77,14.62-205.35c-1.7-10.35-15.08-17.05-24.6-13.97C761.87,626.11,757.29,635.99,759.11,647.09
				L759.11,647.09z"/>
		</g>
	</g>
	<g class="st4">
		<g>
			<path class="st5" d="M715.1,513.52c4.99,4.42,9.77,9.06,14.26,13.99c2.24,2.46,4.42,4.99,6.52,7.57c0.93,1.14,3.06,3.98,0.98,1.2
				c1.16,1.56,2.31,3.12,3.44,4.71c3.84,5.45,7.38,11.1,10.6,16.94c1.61,2.92,3.13,5.88,4.58,8.88c0.72,1.5,1.42,3.01,2.1,4.53
				c0.34,0.76,0.68,1.52,1,2.29c-0.94-2.22-0.97-2.27-0.11-0.16c3.89,9.67,13.52,17.56,24.6,13.97c9.35-3.03,18.15-14.21,13.97-24.6
				c-11.91-29.64-29.64-56.36-53.66-77.61c-7.83-6.93-20.67-8.29-28.28,0C708.14,492.82,706.73,506.12,715.1,513.52L715.1,513.52z"
				/>
		</g>
	</g>
	<g class="st4">
		<g>
			<path class="st5" d="M862.84,423.3c1.73,3.45,3.45,6.91,5.18,10.36c2.16,4.32,7.42,7.94,11.95,9.19
				c4.79,1.32,11.16,0.72,15.41-2.02c4.27-2.75,8.03-6.85,9.19-11.95c1.24-5.44,0.49-10.4-2.02-15.41
				c-1.73-3.45-3.45-6.91-5.18-10.36c-2.16-4.32-7.42-7.94-11.95-9.19c-4.79-1.32-11.16-0.72-15.41,2.02
				c-4.27,2.75-8.03,6.85-9.19,11.95C859.59,413.34,860.34,418.29,862.84,423.3L862.84,423.3z"/>
		</g>
	</g>
	<g class="st4">
		<g>
			<path class="st5" d="M335.98,402.12c10.46,0,20.48-9.2,20-20c-0.49-10.84-8.79-20-20-20c-10.46,0-20.48,9.2-20,20
				C316.46,392.95,324.77,402.12,335.98,402.12L335.98,402.12z"/>
		</g>
	</g>
</g>
<g id="Ebene_18">
	<g>
		<path class="st1" d="M725.45,1058.02c9.94,25.52,25.39,16.65,25.39,16.65c29.15,74.85-26.5,78.49-82.25,86.34
			c-31.72,4.47-65.12-2.52-92.79,13.61c46.15,12.13,93.25,20.67,140.72,25.52c28.83,2.95,61.98,11.2,76.53-13.85
			c12.71-21.88,4.19-59.15-6.44-82.12c-24.07-51.99-44.15-105.37-68.22-157.36c0.84,34.65,6.69,70.29,7.53,104.94"/>
		<g>
			<path class="st1" d="M718.22,1060.01c4.01,9.88,10.1,20.42,21.32,23.06c4.95,1.17,10.61,0.57,15.09-1.93
				c-3.67-1.49-7.34-2.99-11.02-4.48c5.19,13.51,10.55,29.69,6.32,44.05c-2.79,9.47-10.33,15.63-19.74,19.91
				c-11.62,5.28-25.02,7.49-37.65,9.47c-17.08,2.67-34.08,4.84-51.38,5.25c-23.73,0.56-47.92,0.79-69.15,12.81
				c-5.59,3.16-4.42,12.08,1.79,13.71c35.88,9.39,72.28,16.68,109.02,21.72c16.32,2.24,32.71,3.89,49.06,5.89
				c12.95,1.58,26.15,2.98,39.08,0.44c12.57-2.47,23.53-10.02,29.47-21.5c6.27-12.13,7.3-26.39,5.98-39.78
				c-3.18-32.31-19.33-60.77-31.92-90.13c-16.5-38.51-32.07-77.42-49.64-115.47c-3.18-6.88-14.17-3.32-13.98,3.79
				c0.95,35.09,6.59,69.85,7.53,104.94c0.26,9.63,15.26,9.67,15,0c-0.95-35.09-6.59-69.85-7.53-104.94
				c-4.66,1.26-9.32,2.52-13.98,3.79c14.71,31.85,28.02,64.32,41.65,96.64c6.81,16.16,13.7,32.29,20.9,48.29
				c5.62,12.49,11.13,24.62,14.31,38.01c4.69,19.75,7.74,53.07-17.04,60.73c-11.17,3.45-23.48,2.07-34.9,0.79
				c-14.46-1.63-28.94-3.21-43.37-5.06c-38.99-4.98-77.64-12.65-115.66-22.6c0.6,4.57,1.19,9.14,1.79,13.71
				c19.3-10.92,41.81-10.25,63.3-10.8c18.6-0.48,37.02-3.06,55.37-6.01c24.8-3.99,55.92-10.76,65.45-37.45
				c6.26-17.54,0.77-37.52-5.62-54.16c-1.74-4.52-6.46-7.03-11.02-4.48c-1.08,0.61,1.97-0.43-0.47,0.14
				c-0.78,0.18-2.38,0.39-0.66,0.25c-0.55,0.04-3.25-0.07-1.72,0.15c-5.52-0.82-9.19-6.98-11.52-12.72c-1.52-3.74-5-6.42-9.23-5.24
				C719.91,1051.78,716.68,1056.22,718.22,1060.01L718.22,1060.01z"/>
		</g>
	</g>
	<g>
		<path class="st1" d="M458.95,938.92c-40.55,50.51-71.22,103.69-96.31,163.41c-11.72,27.88-20.08,64.12,1.72,85.08
			c18.68,17.96,48.72,13.79,73.96,7.97c68.03-15.67,135.32-34.53,201.58-56.5c-4.52-14.85-9.04-29.69-13.57-44.54
			c-45.8,18.06-91.65,36.14-138.67,50.73c-15.52,4.81-31.33,17.64-45.88,10.41c-12.87-6.39-50.07-42.38-10.64-63.16
			c-0.97-20.49,4.14-29.87,9.85-49.57c8.82-30.36,9.14-72.48,17.95-102.84"/>
		<g>
			<path class="st1" d="M453.64,933.62c-24.38,30.45-46.2,62.83-64.92,97.06c-9.49,17.35-18.21,35.12-26.23,53.2
				c-6.98,15.73-13.97,31.65-17.18,48.65c-3.01,15.98-3.2,33.03,4.46,47.8c7.58,14.62,22.42,23.86,38.43,26.39
				c16.95,2.67,34.1-0.05,50.68-3.79c20.97-4.72,41.84-9.93,62.64-15.34c47.23-12.29,94.05-26.15,140.38-41.49
				c3.77-1.25,6.47-5.18,5.24-9.23c-4.52-14.85-9.04-29.69-13.57-44.54c-1.09-3.57-5.36-6.76-9.23-5.24
				c-41.57,16.39-83.18,32.81-125.71,46.61c-9.65,3.13-19.06,6.21-28.31,10.41c-7.08,3.22-16.34,8.22-24.24,5.08
				c-8.18-3.25-15.78-11.83-20.55-19.64c-2.9-4.76-5.33-10.37-4.39-15.94c1.16-6.91,7.86-11.61,13.78-14.83
				c2.23-1.22,3.81-3.93,3.71-6.48c-0.49-12.68,2.15-23.92,5.98-35.91c3.94-12.35,7.05-24.68,9.08-37.48
				c4.07-25.64,5.34-51.96,12.47-77.03c2.65-9.3-11.82-13.27-14.46-3.99c-7.28,25.6-8.45,52.47-12.73,78.63
				c-2.09,12.79-5.38,25.04-9.31,37.38c-4.02,12.64-6.55,25.05-6.03,38.39c1.24-2.16,2.48-4.32,3.71-6.48
				c-14.78,8.05-24.8,22.11-20.06,39.36c3.63,13.2,13.65,24.52,24.37,32.62c5.55,4.2,11.6,7.02,18.7,7.3
				c10.54,0.41,20.48-4.87,29.79-9.08c10.75-4.85,22.37-7.77,33.53-11.52c11.66-3.92,23.27-8.02,34.82-12.25
				c26.77-9.79,53.3-20.25,79.82-30.71c-3.08-1.75-6.15-3.49-9.23-5.24c4.52,14.85,9.04,29.69,13.57,44.54
				c1.75-3.08,3.49-6.15,5.24-9.23c-38.66,12.8-77.66,24.57-116.95,35.26c-19.96,5.43-39.99,10.58-60.1,15.45
				c-16.92,4.1-34.11,9.06-51.55,10.26c-14.4,0.99-30.06-0.61-40.65-11.5c-9.95-10.23-11.39-25.1-9.81-38.65
				c1.8-15.5,7.59-30.31,13.75-44.52c7.43-17.13,15.45-34.01,24.16-50.53c19.2-36.42,41.75-71.04,67.49-103.18
				c2.55-3.19,3.05-7.49,0-10.61C461.66,930.96,456.17,930.46,453.64,933.62L453.64,933.62z"/>
		</g>
	</g>
</g>
<g id="Ebene_22">
	<g>
		<path class="st3" d="M549.43,1106.78c-19.12-21.02-42.38-38.25-68.05-50.42c-8.96-4.25-19.78-7.83-28.44-2.99
			c-8.41,4.7-11.23,16.12-8.55,25.37s9.64,16.64,17.04,22.82c11.78,9.84,25.75,17.78,41.01,19.45c15.26,1.67,31.87-3.89,40.68-16.47
			"/>
		<g>
			<path class="st3" d="M554.73,1101.48c-14.06-15.33-30.21-28.77-47.89-39.76c-8.93-5.55-18.3-10.76-28.09-14.63
				c-9.4-3.71-20.39-5.41-29.6-0.2c-17.44,9.86-15.49,33.54-4.98,47.56c11.64,15.52,30.84,28.41,49.8,32.7
				c20.68,4.68,42.81-1.35,55.6-18.83c2.41-3.29,0.53-8.33-2.69-10.26c-3.78-2.26-7.88-0.56-10.26,2.69
				c-7.87,10.75-22.79,14.53-35.46,12.57c-15.31-2.37-29.67-11.68-40.43-22.51c-4.79-4.82-9.39-10.91-9.81-17.95
				c-0.32-5.3,1.6-11.48,6.95-13.58c7.04-2.77,15.77,1.61,22,4.66c7.4,3.62,14.6,7.66,21.54,12.09
				c15.79,10.07,30.03,22.25,42.69,36.05C550.66,1119.22,561.25,1108.59,554.73,1101.48L554.73,1101.48z"/>
		</g>
	</g>
	<g>
		<path class="st3" d="M640.39,1103.66c-5.47,9.2,0.75,21.83,10.25,26.79c9.49,4.95,20.86,4.24,31.47,2.86
			c14.55-1.89,31.64-7.13,35.55-21.27c4.38-15.85-13.05-30.85-29.49-30.66c-16.44,0.2-30.91,10.28-44.2,19.96"/>
		<g>
			<path class="st3" d="M633.91,1099.87c-8.01,14.99,1.52,32.39,16.24,38.54c14.85,6.2,34.68,3.76,49.61-1.38
				c13.81-4.75,27.03-15.48,26.01-31.52c-0.99-15.65-15.34-28.12-30.13-30.9c-20.69-3.88-39.57,8.69-55.47,20.24
				c-3.3,2.4-4.84,6.49-2.69,10.26c1.85,3.26,6.99,5.06,10.26,2.69c12.12-8.81,27.83-21.15,43.91-18.73
				c10.63,1.6,24.74,13.32,16.99,24.84c-6.9,10.27-23.84,12.05-35.03,12.74c-7.36,0.45-16.14,0.38-22.12-4.59
				c-4.07-3.39-7.37-9.53-4.64-14.63C651.41,1098.93,638.47,1091.35,633.91,1099.87L633.91,1099.87z"/>
		</g>
	</g>
</g>
<g id="Ebene_13">
	<g>
		<g>
			<path d="M590.26,727.36c-19.28-7.97-42.8,10.23-39.96,30.82c2.74,19.88,27.56,31.2,44.56,20.99c8.27-4.96,0.73-17.94-7.57-12.95
				c-7.94,4.77-20.84-0.43-22.22-10.04c-1.59-11.09,12.13-18.1,21.2-14.35c3.77,1.56,8.21-1.69,9.23-5.24
				C596.72,732.29,593.98,728.9,590.26,727.36L590.26,727.36z"/>
		</g>
	</g>
	<ellipse class="st6" cx="498.95" cy="720.3" rx="10.25" ry="18.83"/>
	<ellipse class="st6" cx="672.51" cy="723.2" rx="10.25" ry="18.83"/>
	<circle class="st7" cx="501.2" cy="711.87" r="2.25"/>
	<circle class="st7" cx="674.76" cy="711.87" r="2.25"/>
	<g>
		<g>
			<path d="M554.63,866.99c34.35-9.56,68.71-19.12,103.06-28.68c9.29-2.58,5.34-17.06-3.99-14.46
				c-34.35,9.56-68.71,19.12-103.06,28.68C541.35,855.11,545.3,869.58,554.63,866.99L554.63,866.99z"/>
		</g>
	</g>
</g>
<g id="Ebene_14">
	<ellipse class="st8" cx="476.91" cy="770.36" rx="35.92" ry="22.79"/>
	<ellipse class="st8" cx="715.28" cy="767.1" rx="35.92" ry="22.79"/>
</g>
<g id="Ebene_19">
	<g>
		<g>
			<path d="M457.63,920.92c-29.68,37.01-58.27,75.28-82.04,116.4c-17.03,29.46-33.04,61.66-37.44,95.79
				c-3.32,25.77,3.11,52.73,25.21,68.48c15.9,11.33,36.72,12.75,55.53,10.65c22.24-2.49,43.94-8.94,65.63-14.19
				c53.97-13.07,108.06-26.34,160.05-46.1c3.76-1.43,6.43-5.02,5.24-9.23c-5.15-18.11-9.59-36.41-14.73-54.52
				c-1.1-3.86-5.3-6.38-9.23-5.24c-55.11,16.04-108.88,36.25-163.99,52.29c-9.25,2.69-5.31,17.17,3.99,14.46
				c55.11-16.04,108.88-36.25,163.99-52.29c-3.08-1.75-6.15-3.49-9.23-5.24c5.15,18.11,9.59,36.41,14.73,54.52
				c1.75-3.08,3.49-6.15,5.24-9.23c-44.29,16.84-90.14,28.98-136.1,40.27c-21.98,5.4-43.94,11.1-66.03,16.02
				c-17.11,3.82-35.85,6.73-53.04,1.82c-25.57-7.3-34.56-31.38-32.97-55.39c2.01-30.28,16.38-59.72,30.76-85.86
				c24.01-43.66,53.92-84.03,85.03-122.83c2.55-3.18,3.05-7.49,0-10.61C465.64,918.26,460.15,917.76,457.63,920.92L457.63,920.92z"
				/>
		</g>
	</g>
	<g>
		<g>
			<path d="M706.33,934.96c18.65,31.66,35.52,64.36,50.43,97.95c7.38,16.62,14.24,33.47,20.62,50.5
				c5.9,15.74,11.94,31.66,16.18,47.94c6.47,24.85,8.25,58.81-21.76,68.29c-14.9,4.7-31.21,3.31-46.56,2.36
				c-17.32-1.06-34.6-2.87-51.73-5.65c-38.85-6.32-76.62-17.52-113.21-31.92c-3.8-1.49-8.2,1.64-9.23,5.24
				c-1.21,4.24,1.49,7.75,5.24,9.23c34.44,13.55,69.91,24.31,106.39,30.76c17.99,3.18,36.16,5.42,54.38,6.79
				c17.23,1.3,35.06,2.79,52.13-0.67c15.34-3.1,29.49-11.86,36.84-26.02c6.96-13.4,7.6-28.86,5.66-43.56
				c-2.16-16.44-7.47-32.04-12.93-47.62c-6.33-18.07-13.21-35.94-20.62-53.59c-16.98-40.48-36.61-79.77-58.9-117.6
				C714.39,919.08,701.42,926.62,706.33,934.96L706.33,934.96z"/>
		</g>
	</g>
	<g>
		<g>
			<path d="M634.08,1154.39c30.32,10.87,65.67,13.49,94.53-3.06c9.92-5.69,18.75-13.8,23.68-24.27c6.6-14.02,4.07-29.07-4.19-41.8
				c-8.25-12.71-20.02-22.02-30.66-32.56c-6.87-6.8-17.48,3.8-10.61,10.61c13.55,13.42,40.84,31.86,33.17,54.39
				c-6.36,18.65-28.6,27.51-47.15,29.87c-18.62,2.37-37.29-1.38-54.78-7.65C628.97,1136.67,625.05,1151.16,634.08,1154.39
				L634.08,1154.39z"/>
		</g>
	</g>
	<g>
		<g>
			<path d="M563.61,1100.13c-18.77-19.04-38.5-38.3-61.24-52.62c-10.52-6.62-23.48-13.3-36.34-12.14
				c-22.87,2.07-39.49,27.9-32.56,49.61c8.19,25.68,37.1,40.73,59.8,51.05c3.71,1.69,8.03,1.03,10.26-2.69
				c1.92-3.2,0.99-8.59-2.69-10.26c-18.69-8.5-41.59-19.52-51.49-38.62c-0.92-1.77-1.97-4.8-2.47-7.85
				c0.24,1.44-0.11-1.81-0.11-2.52c0-0.62,0.05-1.24,0.06-1.87c0.01-0.3,0.05-0.61,0.08-0.92c0.09-1.12-0.22,1.29-0.03,0.19
				c0.22-1.26,0.5-2.51,0.88-3.74c0.17-0.56,0.37-1.1,0.56-1.65c0.42-1.2-0.52,0.97,0.24-0.58c1.03-2.09,2.2-4.06,3.58-5.94
				c-1.1,1.5,0.92-1.05,1.38-1.55c0.75-0.81,1.53-1.59,2.34-2.34c0.71-0.65,1.45-1.27,2.2-1.87c-1.65,1.32,0.54-0.35,1.17-0.75
				c0.65-0.42,1.32-0.79,1.99-1.17c1.19-0.66,2.06-0.82,0.7-0.38c1.56-0.51,3.07-0.92,4.68-1.26c-2.23,0.46,0.23,0.01,1.18-0.02
				c1-0.03,2,0.03,3,0.08c2.38,0.1-0.27-0.22,1.52,0.2c1.28,0.3,2.56,0.54,3.82,0.9c1.2,0.34,2.38,0.73,3.55,1.15
				c0.63,0.23,1.25,0.47,1.87,0.72c1.05,0.42-0.32-0.17,1.14,0.5c3.22,1.48,6.34,3.15,9.38,4.96c22.9,13.63,42.4,33.13,60.97,51.97
				C559.79,1117.62,570.39,1107.01,563.61,1100.13L563.61,1100.13z"/>
		</g>
	</g>
	<g>
		<g>
			<path d="M639.86,1102.9c16.79-9.55,36.48-20.46,56.37-20.73c5.62-0.07,10.03,0.73,14.35,3.36c3.49,2.13,5.97,5.1,8.25,9.61
				c1.9,3.76,3.54,9.93,4.32,15.39c0.62,4.35-0.08,9.12-2.57,12.09c-7.01,8.37-21.09,10.97-32.43,11.91
				c-7.52,0.63-15.12,0.61-22.64-0.04c-4.82-0.42-9.17-0.8-14.54-2.87c-3.81-1.47-8.19,1.62-9.23,5.24
				c-1.21,4.22,1.48,7.77,5.24,9.23c12.01,4.64,27.08,4.47,39.71,3.56c15.04-1.08,33.27-4.13,44-15.85
				c10.41-11.39,8.64-27.66,3.36-41.08c-5.18-13.18-15.38-22.85-29.7-24.95c-25.06-3.68-51.09,10.25-72.05,22.17
				C623.9,1094.72,631.45,1107.68,639.86,1102.9L639.86,1102.9z"/>
		</g>
	</g>
	<g>
		<g>
			<path d="M456.95,1136.69c-9.72,1.45-19.65-1.99-22.79-11.68c-3.44-10.65,2.03-21.9,9.43-29.5c6.74-6.92-3.86-17.54-10.61-10.61
				c-11.53,11.84-18.71,29.64-12.66,45.91c6.41,17.24,23.59,22.88,40.61,20.34c4-0.6,6.24-5.66,5.24-9.23
				C464.98,1137.64,460.99,1136.09,456.95,1136.69L456.95,1136.69z"/>
		</g>
	</g>
</g>
<g id="Ebene_21">
	<g>
		<g id="Ebene_2_Kopie">
			<g>
				<path class="st9" d="M1038.05,677.53c43.37,10.56,175.3,43.35,192.85,24.65c28.52-30.39,137.96-400.25,120.97-428.54
					c-35.61-59.28-572.22-211.22-632.59-161.99c-54.43,44.39-66.17,408.44-53.77,433.06c18.75,37.21,111.52,39.02,149.54,65.53
					c16.95,11.82,76.9,140.6,97.82,143.5c11.87,1.65,92.12-42.8,123.78-76.38"/>
				<g>
					<path class="st10" d="M1037.31,681.18c42.57,10.37,85.29,20.77,128.71,26.93c10.44,1.48,20.95,2.69,31.52,3.19
						c7.83,0.37,15.89,0.59,23.73-1.02c4.82-0.98,9.56-2.6,13.03-6.92c2.64-3.3,4.75-7.23,6.73-11.05
						c6.51-12.57,11.75-25.99,16.84-39.3c7.29-19.08,14.01-38.42,20.49-57.84c15.61-46.83,29.86-94.18,42.98-141.85
						c11.55-41.95,22.69-84.32,30.51-127.19c2.42-13.28,4.81-26.91,5.05-40.38c0.07-3.84,0-7.97-1.11-11.56
						c-0.97-3.14-3.04-5.64-5.11-7.86c-5.97-6.43-13.43-11.19-20.67-15.56c-10.72-6.48-21.91-12.03-33.19-17.25
						c-31.48-14.6-63.97-26.68-96.58-38.03c-39.95-13.9-80.33-26.4-120.97-37.92c-42.18-11.96-84.63-22.85-127.39-32.41
						c-38.19-8.53-76.64-16.11-115.46-21.38c-28.15-3.82-57.02-7.2-85.68-4.89c-8.73,0.71-17.9,1.88-26.25,5.59
						c-8.73,3.88-14.79,11.78-19.65,20.76c-7.78,14.36-12.61,30.74-16.72,46.68c-5.48,21.25-9.42,42.92-12.74,64.6
						c-7.67,50.11-12.05,100.72-14.85,151.15c-2.28,41.21-3.84,82.72-2.24,123.75c0.4,10.43,0.53,21.73,3.12,31.7
						c1.67,6.41,6.25,11.62,10.7,15.6c8.23,7.37,18.15,12.12,28.07,16.02c24.62,9.68,50.61,14.71,75.78,22.45
						c11.16,3.43,22.35,7.29,32.59,13.24c3.49,2.03,4.81,2.71,7.31,5.47c1.98,2.18,3.6,4.42,5.29,6.83
						c11.83,16.96,21.84,35.68,32.26,53.81c11.48,19.98,22.86,40.24,36.01,58.81c4.47,6.32,9.17,12.89,14.93,17.76
						c4.39,3.7,8.35,5.01,13.9,3.53c8.28-2.19,16.32-6.23,24.13-10.17c11.67-5.89,23.11-12.43,34.37-19.37
						c21.72-13.37,43.93-28.09,62.24-47.39c3.16-3.33-1.59-8.1-4.72-4.8c-8.84,9.33-18.86,17.22-28.93,24.63
						c-11.4,8.39-23.16,16.12-35.12,23.37c-10.79,6.54-21.78,12.7-32.97,18.19c-6.88,3.37-15.07,7.65-21.96,8.76
						c-0.44,0.07-0.87,0.11-1.31,0.16c-1.16,0.13,0.19,0.09-0.59-0.02c-0.37-0.05-0.74-0.17-1.09-0.29
						c0.83,0.27-0.77-0.41-1.06-0.58c-2.12-1.21-3.8-2.84-5.8-4.94c-5.67-5.93-10.48-12.91-15.13-19.89
						c-12.86-19.31-24.35-39.83-36.01-60.13c-9.66-16.83-18.98-34.42-30.48-49.68c-4.44-5.9-9.46-9.49-15.73-12.76
						c-10.51-5.48-21.79-9.22-33.03-12.6c-24.82-7.45-50.55-12.3-74.63-22.28c-9.33-3.87-18.91-8.53-26.27-16.15
						c-1.41-1.46-2.75-3.01-3.89-4.74c-0.63-0.95-1.18-1.95-1.75-2.94c-0.13-0.23-0.76-1.76-0.21-0.34
						c-0.47-1.23-0.79-2.51-1.06-3.82c-0.79-3.77-1.2-8-1.59-12.91c-0.53-6.59-0.82-13.22-1.02-19.85
						c-0.57-18.42-0.45-36.91-0.07-55.38c1-48.25,3.87-96.63,8.68-144.82c4.53-45.38,10.21-91.49,21.98-135.72
						c4-15.01,8.73-30.4,16.41-43.75c2.31-4.01,5.94-8.97,9.12-11.6c0.55-0.46,1.13-0.9,1.72-1.3c0.27-0.18,0.54-0.35,0.81-0.53
						c0.95-0.61-0.38,0.17,0.63-0.37c1.5-0.79,3.02-1.48,4.57-2.07c4.23-1.6,6.7-2.13,11.12-2.9c5.05-0.88,10.13-1.37,15.2-1.67
						c12.6-0.73,25.18-0.3,37.69,0.58c34.57,2.42,68.82,8.01,102.78,14.45c41.14,7.8,81.96,17.23,122.53,27.64
						c41.72,10.71,83.19,22.49,124.32,35.42c36.55,11.49,72.89,23.82,108.63,37.91c25.78,10.16,51.78,20.83,75.81,35.29
						c4.07,2.45,8.06,5.04,11.91,7.91c0.72,0.54,0.69,0.51,1.8,1.41c0.76,0.61,1.51,1.24,2.25,1.88c1.26,1.11,2.48,2.26,3.63,3.49
						c0.49,0.52,0.95,1.07,1.42,1.62c0.23,0.28,0.46,0.57,0.68,0.87c-0.71-0.93,0.04,0.05,0.19,0.29c0.3,0.48,0.6,0.95,0.88,1.45
						c0.49,0.87-0.2-0.69,0.05,0.11c0.1,0.32,0.22,0.62,0.29,0.95c0.1,0.4,0.49,2.54,0.31,1.31c0.13,0.89,0.22,1.8,0.28,2.7
						c0.15,2.22,0.13,4.48,0.05,6.72c-0.44,12.53-2.89,26.44-5.34,39.54c-3.65,19.52-8.07,38.88-12.75,58.17
						c-11.41,46.99-24.51,93.58-38.52,139.79c-12.69,41.84-26.02,83.6-41.59,124.33c-5.05,13.21-10.25,26.51-16.69,39.01
						c-2.18,4.22-3.21,6.39-5.88,9.72c-1.14,1.42-1.77,1.94-3.15,2.58c-2.64,1.21-4.69,1.68-7.4,2.11
						c-8.06,1.28-16.26,1.02-24.27,0.5c-10.62-0.69-21.16-2.03-31.66-3.6c-23.88-3.58-47.55-8.45-71.11-13.72
						c-17.78-3.97-35.49-8.25-53.19-12.57C1034.74,672.89,1033.27,680.2,1037.31,681.18L1037.31,681.18z"/>
				</g>
			</g>
		</g>
		<g id="Ebene_7_1_">
			<g class="st4">
				<g>
					<path class="st5" d="M1181.55,258.99c12.93,5.32,26.33,9.24,39.58,13.55c3.66,1.19,7.31,2.4,10.95,3.64
						c1.77,0.61,3.55,1.22,5.31,1.85c0.88,0.32,1.77,0.63,2.65,0.95c2.91,1.04-2.45-0.94,0.5,0.19c6.87,2.6,13.7,5.36,20.33,8.61
						c3.08,1.51,6.13,3.13,9.09,4.91c1.33,0.8,2.65,1.63,3.95,2.51c0.63,0.42,1.24,0.86,1.85,1.29c2.53,1.76-1.74-1.5-0.23-0.2
						c2.12,1.83,4.23,3.6,6.09,5.77c0.39,0.46,0.76,1.06,1.19,1.46c-0.61-0.57-2.02-2.97-0.88-1.1c0.66,1.09,1.2,2.53,1.95,3.52
						c-0.41-0.55-1.3-3.7-0.66-1.53c0.15,0.54,0.31,1.09,0.48,1.62c0.97,3.11-0.01-3.08-0.1-0.94c-0.05,1.08-0.23,5.05,0.08,1.38
						c0.31-3.64,0.05-0.7-0.06,0.18c-0.1,0.83-0.22,1.66-0.34,2.48c-0.28,1.89-0.62,3.76-0.98,5.64
						c-4.89,25.7-12.47,51.03-19.63,76.13c-10.15,35.55-20.81,70.93-31.53,106.3c-10.13,33.45-20.39,66.85-30.38,100.35
						c-1.04,3.47-2.06,6.94-3.1,10.42c-2.21,7.48,3.27,16.19,9.7,17.15c7.5,1.12,13.24-4.01,15.6-12.03
						c9.77-33.03,19.87-65.96,29.88-98.92c11.02-36.32,22.02-72.66,32.54-109.15c7.77-26.94,15.84-54.04,21.51-81.56
						c1.45-7.04,3.38-15.23,2.53-22.33c-2-16.63-13.88-27.07-25.9-34.51c-13.5-8.36-28.54-13.7-43.29-18.82
						c-13.68-4.74-27.57-8.78-41.21-13.62c-0.68-0.24-1.35-0.49-2.03-0.73c-2.05-0.73,3.21,1.23,0.77,0.28
						c-1.28-0.49-2.56-0.99-3.83-1.51c-6.25-2.57-14.34-0.85-17.62,7.04C1173.53,246.02,1174.84,256.22,1181.55,258.99
						L1181.55,258.99z"/>
				</g>
			</g>
			<g class="st4">
				<g>
					<path class="st5" d="M1176.52,660.04c-0.22,3.27-0.44,6.55-0.66,9.81c7.3-4.24,14.61-8.48,21.92-12.72c-2.74-3-5.47-6-8.21-9
						c-0.69,7.81-1.38,15.62-2.08,23.43c-1.74,1.11-3.32,1.84-5.31,1.77c-0.8,0.1-1.55-0.05-2.24-0.46
						c-1.24-0.53-1.43-0.58-0.56-0.14c-1.29-0.89-2.22-1.84-3.11-3.23c0.49,0.88,0.43,0.69-0.17-0.56
						c-0.57-1.06-0.88-2.24-0.93-3.53c3.05-5.1,6.1-10.2,9.15-15.3c0.2-0.08,3.28-0.47,1.62-0.42c1.64-0.05,3,0.19,4.5,0.87
						c-1.52-0.7,1.09,0.92,1.27,1.07c-1.29-1.07,0.82,1.08,0.97,1.35c0.78,1.37,1.09,3.06,1.19,4.7c-0.17-2.66-1.27,5.31-1.19,5.08
						c0.64-1.78-0.73,1.21-0.93,1.48c-0.54,0.54-1.08,1.09-1.61,1.63c-2.04,1.05-2.57,1.36-1.62,0.93c1.49-0.51-3.02,0.6-1.51,0.39
						c0.69-0.04,0.41-0.06-0.83-0.04c-0.78,0.11-1.52-0.02-2.21-0.38c-2.83-0.97-4.9-3.49-5.4-6.85c-0.46-3.17-0.32,1.49-0.05-1.88
						c0.27-3.34-0.65,1.28,0.36-1.92c0.16-0.88,0.52-1.65,1.07-2.31c0.76-1.11,0.92-1.38,0.48-0.8c-0.79,1,2.82-2.28,0.92-1.15
						c6.42,2.33,12.84,4.65,19.27,6.98c-0.44-1.35-0.89-2.71-1.33-4.06c-2.33-7.11-9.41-11.95-16.25-8.73
						c-6.35,2.99-11.07,11.43-8.58,19.04c0.44,1.35,0.89,2.71,1.33,4.06c1.43,4.36,3.93,7.39,7.83,8.84
						c4.14,1.53,7.55,0.47,11.44-1.86c7.82-4.69,11.11-17.15,8.32-25.87c-3.31-10.37-13.79-15.52-23.12-10.92
						c-9,4.43-15.04,16.23-11.32,26.77c3.6,10.19,13.4,15.78,23.04,11.81c5.51-2.27,9.35-8.79,9.15-15.3
						c-0.21-7.05-3.81-13.66-9.34-16.65c-6-3.24-12.1-2.44-18.02,1.35c-7.79,4.99-7.48,17.51-2.08,23.43c2.74,3,5.47,6,8.21,9
						c3.65,4,9.72,4.36,14.28,1.7c5.11-2.98,7.22-8.26,7.64-14.42c0.22-3.27,0.44-6.55,0.66-9.81c0.23-3.46-1.95-7.76-4.05-9.89
						c-2.34-2.38-6.18-3.96-9.45-3.45c-3.29,0.53-6.69,2.12-8.91,5.18C1177.63,652.4,1176.81,655.83,1176.52,660.04L1176.52,660.04z
						"/>
				</g>
			</g>
		</g>
		<g id="Ebene_2_1_">
			<g>
				<g>
					<path d="M1010.4,709.22c42.62,10.4,85.39,20.83,128.87,27.04c10.46,1.49,20.97,2.71,31.55,3.23c8.41,0.41,17.05,0.81,25.48-0.9
						c6.53-1.32,12.71-3.57,17.43-9.4c3.01-3.71,5.41-8.17,7.66-12.48c6.54-12.55,11.79-25.97,16.89-39.28
						c7.33-19.12,14.06-38.51,20.56-57.98c15.78-47.3,30.21-95.13,43.45-143.29c11.52-41.91,22.65-84.23,30.37-127.07
						c2.46-13.67,4.83-27.75,4.98-41.6c0.05-4.41-0.22-9.1-1.51-13.19c-1.38-4.36-4.13-7.85-7.05-10.92
						c-6.5-6.82-14.55-11.94-22.37-16.63c-10.84-6.48-22.12-12.03-33.5-17.27c-32-14.74-65-26.95-98.12-38.46
						c-39.93-13.87-80.28-26.35-120.88-37.86c-42.12-11.94-84.53-22.84-127.21-32.4c-38.06-8.52-76.38-16.1-115.04-21.41
						c-28.81-3.95-58.37-7.44-87.71-5.2c-9.33,0.72-19.13,2.02-28.06,5.89c-10.3,4.46-17.48,13.38-23.29,23.89
						c-8.17,14.75-13.17,31.81-17.43,48.25c-5.51,21.21-9.44,42.86-12.75,64.52c-7.73,50.55-12.08,101.61-14.84,152.48
						c-2.25,41.34-3.77,83-2.06,124.15c0.45,10.9,0.69,22.71,3.45,33.1c2.04,7.66,7.3,14.03,12.68,18.77
						c8.89,7.82,19.31,12.99,29.97,17.12c25.26,9.8,51.79,15.05,77.58,23.04c2.83,0.88,5.66,1.79,8.46,2.75
						c0.74,0.26,1.5,0.52,2.24,0.78c0.4,0.14,2.9,1.07,0.49,0.17c1.43,0.53,2.86,1.08,4.28,1.65c5.25,2.11,10.42,4.48,15.33,7.39
						c0.93,0.55,1.86,1.13,2.78,1.72c0.52,0.34,1.04,0.8,1.59,1.07c1.12,0.54-2.23-2.01-1.34-1.02c0.74,0.83,1.63,1.5,2.38,2.32
						c0.88,0.96,1.69,1.99,2.51,3.01c1.84,2.3-1.24-1.76,0.18,0.22c0.62,0.87,1.25,1.73,1.86,2.62
						c11.77,16.91,21.81,35.48,32.24,53.5c11.55,19.95,22.98,40.19,36.23,58.7c4.81,6.72,9.81,13.78,16,18.94
						c2.92,2.44,5.99,4.65,9.65,5.5c3.67,0.85,7.1,0.04,10.74-0.96c8.38-2.31,16.52-6.33,24.45-10.32
						c12.09-6.08,23.94-12.87,35.61-20.02c22.13-13.56,44.45-28.54,63.13-48.12c3.98-4.18,3.18-12.05-0.37-15.66
						c-4.14-4.2-9.79-2.88-13.77,1.3c-0.53,0.56-3.78,3.75-1.56,1.63c-0.99,0.95-1.98,1.9-2.98,2.83c-2.33,2.16-4.71,4.25-7.12,6.28
						c-5.19,4.37-10.54,8.5-15.96,12.47c-11.41,8.35-23.16,16.02-35.11,23.21c-1.28,0.77-2.56,1.53-3.85,2.3
						c-0.24,0.14-2.79,1.63-0.79,0.46c-0.75,0.44-1.51,0.88-2.27,1.31c-2.95,1.7-5.91,3.35-8.89,4.98
						c-5.18,2.83-10.39,5.56-15.67,8.12c-4.28,2.08-8.6,4.07-12.98,5.81c-1.64,0.65-3.28,1.26-4.95,1.81
						c-0.7,0.22-1.65,0.31-2.29,0.7c2.36-1.4,1.78-0.39,0.21-0.11c-0.53,0.1-1.08,0.11-1.6,0.21c-1.81,0.36,1.73,0.28,1.35,0.09
						c-0.26-0.13-1.02-0.34-1.31-0.33c2.55-0.14,2.26,1.06,0.8,0.16c-0.5-0.31-1-0.64-1.5-0.94c-1.78-1.05,2.07,1.79,0.46,0.35
						c-1.15-1.03-2.3-2.05-3.39-3.17c-2.59-2.67-4.94-5.6-7.26-8.57c-0.42-0.54-1.75-2.03,0.22,0.31c-0.37-0.43-0.69-0.93-1.03-1.39
						c-0.64-0.88-1.29-1.77-1.92-2.67c-1.46-2.07-2.9-4.16-4.32-6.27c-12.88-19.19-24.38-39.6-36.06-59.78
						c-10.06-17.39-19.79-35.41-31.76-51.15c-4.63-6.09-10.06-10.06-16.53-13.49c-11.2-5.94-23.31-9.92-35.32-13.53
						c-12.6-3.78-25.34-6.99-38.02-10.46c-6.27-1.72-12.53-3.49-18.74-5.44c-2.86-0.9-5.71-1.83-8.53-2.82
						c-0.76-0.27-1.51-0.53-2.26-0.8c-2.44-0.87,1.34,0.55-0.15-0.05c-1.56-0.63-3.14-1.21-4.7-1.84
						c-5.13-2.09-10.19-4.45-15.01-7.28c-2.1-1.23-4.08-2.63-6.12-3.99c-1.87-1.25,1.71,1.49,0.02,0.01
						c-0.47-0.41-0.97-0.79-1.44-1.2c-0.93-0.79-1.82-1.62-2.69-2.49c-0.84-0.84-1.64-1.71-2.41-2.62c-0.25-0.29-0.48-0.61-0.74-0.9
						c-1.38-1.56,1.27,2.07,0.19,0.24c-0.78-1.33-1.58-3.22-2.54-4.34c1.86,2.17,1.05,2.96,0.69,1.61
						c-0.07-0.26-0.16-0.51-0.24-0.76c-0.22-0.72-0.38-1.46-0.55-2.2c-0.18-0.82-0.31-1.64-0.47-2.47
						c-0.47-2.52,0.26,1.94,0.15,1.02c-0.06-0.56-0.16-1.11-0.23-1.66c-0.33-2.53-0.58-5.09-0.79-7.65
						c-0.55-6.64-0.87-13.32-1.09-20c-0.6-18.32-0.52-36.71-0.17-55.09c0.44-23,1.36-46.01,2.67-69.02
						c0.72-12.68,1.57-25.37,2.53-38.04c0.23-3.01,0.47-6.01,0.71-9.01c0.07-0.78,0.43-5.21,0.16-1.94
						c0.16-1.91,0.33-3.83,0.49-5.74c0.55-6.28,1.13-12.56,1.75-18.84c4.47-45.26,10.1-91.28,21.89-135.37
						c1.19-4.46,2.47-8.9,3.84-13.29c0.3-0.96,1.5-4.12,0.1-0.35c0.38-1.02,0.69-2.07,1.03-3.09c0.68-1.98,1.39-3.96,2.13-5.92
						c2.48-6.58,5.33-12.95,8.77-18.99c0.19-0.34,0.44-0.66,0.61-1.02c0.07-0.15-1.7,2.66-0.88,1.43c0.42-0.62,0.81-1.27,1.23-1.89
						c0.8-1.18,1.64-2.33,2.53-3.44c0.76-0.95,1.58-1.81,2.37-2.72c1.41-1.61-2.35,2.07-0.39,0.4c0.45-0.38,0.88-0.79,1.34-1.16
						c0.53-0.43,1.09-0.82,1.65-1.21c0.32-0.22,0.67-0.4,0.99-0.63c0.3-0.23-2.92,1.54-1.04,0.63c1.53-0.74,3.04-1.46,4.61-2.04
						c0.83-0.31,1.67-0.59,2.51-0.84c0.48-0.15,0.97-0.28,1.45-0.43c2.38-0.71-1.39,0.33-0.73,0.18c2.1-0.47,4.2-0.95,6.31-1.31
						c5.08-0.86,10.18-1.33,15.28-1.61c5.95-0.32,11.9-0.37,17.83-0.26c1.55,0.03,3.11,0.07,4.66,0.12
						c0.72,0.02,1.44,0.05,2.16,0.08c0.44,0.02,0.88,0.03,1.31,0.05c2.48,0.1-2.09-0.11-0.39-0.02c3.51,0.19,7.02,0.39,10.54,0.64
						c34.56,2.5,68.79,8.12,102.74,14.59c40.85,7.79,81.4,17.16,121.69,27.5c41.79,10.72,83.32,22.51,124.53,35.45
						c19.19,6.03,38.31,12.31,57.32,18.92c9.07,3.15,18.14,6.31,27.12,9.7c-2.41-0.91-0.2-0.07,0.89,0.33
						c1.1,0.41,2.2,0.82,3.31,1.23c2.17,0.81,4.35,1.63,6.52,2.46c4.05,1.54,8.1,3.1,12.13,4.69
						c25.84,10.16,51.88,20.82,76.02,35.22c4.07,2.43,8.08,4.99,11.93,7.83c0.36,0.26,0.72,0.56,1.08,0.81
						c-3.27-2.26-1.35-1.05-0.6-0.44c0.77,0.62,1.54,1.24,2.29,1.89c1.28,1.1,2.54,2.26,3.72,3.5c0.5,0.53,0.99,1.06,1.46,1.62
						c0.22,0.26,0.42,0.54,0.65,0.79c1.18,1.35-1.79-2.69-0.77-1.03c0.3,0.49,0.62,1.01,0.96,1.48c1.19,1.68-0.87-3.36-0.31-0.7
						c0.13,0.64,0.26,1.36,0.45,1.97c-0.95-3.21-0.24-1.96-0.09,0.04c0.16,2.08,0.18,4.2,0.12,6.3c-0.03,1.19-0.09,2.37-0.16,3.57
						c-0.04,0.7-0.09,1.39-0.14,2.09c-0.2,2.98,0.27-2.83,0.04-0.41c-0.3,3.12-0.64,6.23-1.05,9.34c-1.02,7.72-2.31,15.4-3.74,23.07
						c-3.58,19.28-7.93,38.43-12.54,57.48c-11.39,47.06-24.49,93.69-38.53,139.97c-3.52,11.58-7.1,23.15-10.76,34.68
						c-1.77,5.58-3.57,11.15-5.37,16.71c-0.21,0.63-1.04,3.16,0,0.01c-0.19,0.59-0.38,1.18-0.58,1.77c-0.43,1.3-0.85,2.59-1.27,3.88
						c-0.92,2.78-1.84,5.56-2.77,8.33c-6.35,19-12.94,37.93-20.09,56.6c-5.05,13.2-10.27,26.51-16.73,38.98
						c-1.06,2.03-2.27,3.95-3.33,5.98c2.14-4.09,0.65-1.05-0.1,0.04c-0.47,0.69-0.97,1.33-1.48,1.99c-0.2,0.26-0.45,0.48-0.64,0.75
						c-0.98,1.37,2.46-1.82,0.93-0.93c-0.4,0.23-0.93,0.62-1.28,0.93c-0.63,0.57-1.8-0.49,1.54-0.9c-0.32,0.04-0.74,0.4-1.06,0.53
						c-1.14,0.44-2.27,0.82-3.43,1.22c-1.53,0.52,2.67-0.54,1.07-0.29c-0.37,0.06-0.75,0.17-1.13,0.24c-0.8,0.16-1.6,0.3-2.4,0.42
						c-3.63,0.54-7.27,0.72-10.9,0.78c-2.03,0.03-4.04,0.01-6.07-0.05c-0.79-0.02-4.83-0.03-1.51-0.04c-1.22,0-2.46-0.13-3.67-0.21
						c-10.75-0.71-21.44-2.08-32.07-3.7c-23.78-3.61-47.36-8.47-70.83-13.73c-17.8-3.98-35.53-8.28-53.26-12.61
						c-5.08-1.24-10.53,3.25-11.7,9.02C1001.89,702.46,1005.3,707.98,1010.4,709.22L1010.4,709.22z"/>
				</g>
			</g>
		</g>
		<g id="Ebene_10_1_">
			<g>
				<g>
					<path class="st5" d="M875.37,234.68c29.31,51.87,57.72,104.43,85.48,157.45c27.3,52.16,53.97,104.77,80.3,157.62
						c14.64,29.37,29.16,58.81,43.64,88.29c5.69,11.58,21.57,14.52,31.31,6.34c10.67-8.97,13.37-23.76,7.31-36.11
						c-25.82-52.55-51.8-105.01-78.24-157.14c-26.87-52.98-54.22-105.62-82.32-157.7c-16.02-29.7-32.3-59.21-48.85-88.5
						c-6.28-11.12-21.16-14.86-31.31-6.34C872.5,207.12,868.66,222.81,875.37,234.68L875.37,234.68z"/>
				</g>
			</g>
			<g>
				<g>
					<path class="st5" d="M826.34,579.41c52-40.1,103.56-80.93,154.59-122.7c37.77-30.92,75.28-62.27,113.25-92.86
						c25.16-20.27,50.5-40.21,76.01-59.89c10.11-7.8,14.23-25,7.31-36.11c-6.94-11.14-20.51-14.66-31.31-6.34
						c-42.42,32.72-84.31,66.35-125.86,100.55c-40.33,33.19-80.57,66.5-121.27,99.05c-32.05,25.62-64.3,50.86-96.71,75.86
						c-10.11,7.8-14.23,25-7.31,36.11C801.97,584.22,815.55,587.74,826.34,579.41L826.34,579.41z"/>
				</g>
			</g>
		</g>
		<g id="Ebene_9_1_">
			<g class="st11">
				<path d="M713.39,117.89C671.9,322.9,820.37,605.07,930.02,755.94c-17.71,1.76-33.17-29.54-63.02-70.62
					c-42.2-58.06-26.55-60.94-52.69-80.09c-21.71-15.91-51.58-18.83-77.18-25c-23.59-5.68-52.34-16.54-64.76-33.46
					c-16.39-22.32-5.36-261.17,27.65-402.64"/>
				<g>
					<path d="M707.06,116.61c-8.56,42.57-8.94,86.39-4.5,128.79c4.91,47.02,15.39,92.82,28.95,136.99
						c14.38,46.86,32.28,92.11,52.26,135.91c19.72,43.19,41.59,85.01,65.15,125.45c21.13,36.26,43.61,71.49,67.58,105.29
						c2.65,3.73,5.31,7.45,8,11.14c1.75-3.88,3.5-7.75,5.26-11.63c-0.48,0.04-0.95,0.05-1.42,0.07c1.76-0.06,0.26,0.03-0.14-0.04
						c-0.79-0.14-1.56-0.29-2.34-0.5c-1.78-0.47,0.52,0.4-1.17-0.47c-0.95-0.49-1.89-0.99-2.81-1.58c-0.48-0.31-0.94-0.64-1.41-0.97
						c1.03,0.75-0.05-0.03-0.29-0.24c-0.89-0.76-1.77-1.52-2.63-2.32c-1.89-1.8-3.68-3.74-5.41-5.76
						c-9.16-10.69-16.87-22.99-24.93-34.75c-15.78-23.02-33.05-44.77-44.99-70.94c-2.38-5.22-4.51-10.69-7.55-15.44
						c-3.81-5.95-8.68-10.53-14-14.63c-26.26-20.22-59.21-21.6-89.57-30c-13.84-3.83-27.6-8.9-39.91-16.84
						c-5.05-3.26-9.71-7.16-13.61-12.06c-0.58-0.72,0.43,0.98-0.19-0.34c-0.14-0.3-0.32-0.61-0.48-0.9
						c-0.53-0.92-0.11-1.4,0.14,0.42c-0.06-0.47-0.38-1-0.53-1.44c-0.75-2.21-1.27-4.53-1.72-6.87c-0.15-0.76-0.28-1.52-0.41-2.29
						c-0.09-0.57-0.42-2.93-0.11-0.58c-0.22-1.64-0.46-3.28-0.65-4.93c-0.96-8.21-1.45-16.54-1.77-24.85
						c-2-51.33,1.18-103.47,5.48-154.94c5.05-60.39,12.39-121.06,24.74-180.58c1.35-6.49,2.77-12.95,4.27-19.41
						c2.17-9.33-10.48-11.89-12.65-2.56c-13.75,59.11-21.54,119.75-27.22,179.98c-5.23,55.37-8.99,111.26-7.95,166.59
						c0.31,16.6,0.73,33.73,4.07,49.78c1.16,5.57,2.97,10.33,6.32,14.52c8.97,11.25,22.15,18.14,34.58,23.36
						c14.51,6.1,29.6,10.06,44.91,13.24c15.72,3.27,31.83,6,46.71,12.48c3.65,1.59,7.23,3.4,10.67,5.49
						c1.55,0.94,3.06,1.93,4.55,2.99c0.63,0.45,1.24,0.9,1.86,1.36c1.08,0.8-0.63-0.51,0.68,0.53c2.72,2.16,5.38,4.43,7.77,7.06
						c0.44,0.48,0.86,0.97,1.28,1.47c0.57,0.68,1.28,1.77,0.32,0.36c0.8,1.19,1.62,2.34,2.35,3.6c1.37,2.35,2.55,4.86,3.68,7.38
						c3.48,7.68,6.98,15.29,11.05,22.57c7.81,13.94,16.97,26.64,26.08,39.42c9.79,13.75,18.98,28.08,28.95,41.66
						c6.56,8.95,13.69,18.8,23.21,23.87c3.95,2.11,8.26,3.14,12.73,2.77c4.51-0.37,8.34-7.39,5.26-11.63
						c-23.62-32.52-45.79-66.44-66.68-101.37c-23.53-39.33-45.45-79.99-65.4-121.96c-20.33-42.74-38.6-86.92-53.68-132.68
						c-14.29-43.37-25.96-88.36-32.21-134.67c-5.61-41.61-7.08-84.78-0.54-126.85c0.78-5.01,1.67-10,2.67-14.97
						C721.6,109.78,708.95,107.2,707.06,116.61L707.06,116.61z"/>
				</g>
			</g>
		</g>
	</g>
</g>
</svg>
