<?xml version="1.0" encoding="utf-8"?>
<!-- Generator: Adobe Adobe Illustrator 24.2.0, SVG Export Plug-In . SVG Version: 6.00 Build 0)  -->
<svg version="1.1" xmlns="http://www.w3.org/2000/svg" xmlns:xlink="http://www.w3.org/1999/xlink" x="0px" y="0px"
	 viewBox="0 0 1080 1080" style="enable-background:new 0 0 1080 1080;" xml:space="preserve">
<style type="text/css">
	.st0{fill:#FFFFFF;stroke:#000000;stroke-width:8;stroke-linecap:round;stroke-linejoin:round;stroke-miterlimit:10;}
	.st1{fill:#FFBABA;}
	.st2{opacity:0.0706;}
	.st3{opacity:0.0706;fill:none;stroke:#000000;stroke-width:30;stroke-linecap:round;stroke-linejoin:round;stroke-miterlimit:10;}
	.st4{fill:none;stroke:#FFFFFF;stroke-width:20;stroke-linecap:round;stroke-linejoin:round;stroke-miterlimit:10;}
	.st5{stroke:#000000;stroke-width:8;stroke-linecap:round;stroke-linejoin:round;stroke-miterlimit:10;}
	.st6{fill:#FFFFFF;}
	.st7{opacity:0.149;}
	.st8{fill:#C9316B;}
	.st9{fill:#F4F5E8;}
	.st10{fill:#6379B8;}
	.st11{fill:#F3C057;stroke:#000000;stroke-width:1.594;stroke-miterlimit:10;}
	.st12{fill:#C8316B;}
	.st13{fill:#6478B7;}
	.st14{fill:#6378B7;}
</style>
<g id="Ebene_2">
</g>
<g id="Ebene_4">
</g>
<g id="Ebene_9">
</g>
<g id="Ebene_10">
</g>
<g id="Ebene_19">
</g>
<g id="Ebene_20">
</g>
<g id="Ebene_21">
	<g>
		<path class="st0" d="M145.76,611.83c-198.99,69.78-86.69,341.75,101.2,291.26c3.05,25.7,84.24,42.25,108.18,8.96
			c15.44,35.11,156.97,88.69,217.42,4.61c28.2,41.06,124.93,68.59,184.54,17.75c262.78,86.73,252-343.83,49.12-325.17
			c11.32-57-104.56-95.15-138.26-63.81c-10.22-162.94-262.1-145.81-277.39-50.56C314.29,442.13,168.14,472.42,145.76,611.83z"/>
		<path class="st0" d="M361.8,675.48c-8.85,36.54,12.01,77.98,46.64,92.62s78.89,0.74,98.94-31.07"/>
		<path class="st1" d="M214.32,680.69c3.02,31.3,122.2,15.34,119.93-21.17C332.01,623.47,209.89,634.86,214.32,680.69z"/>
		<path class="st1" d="M573.28,676.84c-6.9,30.67,111.29,52.73,120.54,17.34C702.96,659.23,583.39,631.92,573.28,676.84z"/>
		<path class="st3" d="M375.93,517.21c-36.49-18.77-81.64-19.74-118.9-2.56c-37.27,17.18-65.85,52.13-75.29,92.07"/>
		<path class="st3" d="M150.88,641.84c-163.69,82.59-37.61,260.82,74.6,233.74"/>
		<path class="st3" d="M421.36,507.3c60.86-86.68,190.02-51.1,212.3,25.67"/>
		<path class="st3" d="M383.02,897.99c44.66,44.66,110.34,48.92,161.6,3.21"/>
		<path class="st3" d="M599.84,908.29c34.68,31.02,90.56,35.18,129.45,9.64"/>
		<path class="st3" d="M819.81,641.84c144.41,0,167.78,313.34-36.81,273.83"/>
		<path class="st4" d="M665.65,552.5c6.53-8.99,16.74-14.92,27.54-17.52c10.8-2.6,22.18-2.05,33.06,0.17
			c18.82,3.85,36.5,12.68,51.36,24.85c8.08,6.62,15.45,14.36,20.23,23.65c4.79,9.29,6.81,20.27,4.09,30.35"/>
		
			<ellipse transform="matrix(0.3806 -0.9248 0.9248 0.3806 -287.5661 768.3121)" class="st5" cx="429.72" cy="598.81" rx="53.42" ry="13.5"/>
		
			<ellipse transform="matrix(0.3806 -0.9248 0.9248 0.3806 -287.5661 768.3121)" class="st5" cx="429.72" cy="598.81" rx="53.42" ry="13.5"/>
		
			<ellipse transform="matrix(0.3806 -0.9248 0.9248 0.3806 -271.0915 849.6683)" class="st5" cx="498.68" cy="627.19" rx="53.42" ry="13.5"/>
		<circle class="st6" cx="441.46" cy="567.16" r="6.47"/>
		<circle class="st6" cx="441.46" cy="567.16" r="6.47"/>
		<ellipse class="st6" cx="510.28" cy="595.49" rx="6" ry="6.5"/>
	</g>
	<g>
		<g id="Ebene_3_Kopie">
			<g class="st7">
				<path d="M684.51,578.43c0.39,29.95-5.09,59.95-16.19,88.57c40.42-18.39,76.26-43.12,104.85-72.36"/>
				<g>
					<path d="M682.88,579.28c0.28,23.22-2.98,46.39-9.57,68.78c-1.87,6.35-4.04,12.62-6.43,18.82c-0.42,1.07-0.03,2.55,1.47,1.87
						c15.72-7.16,30.91-15.33,45.38-24.51c14.16-8.98,27.66-18.88,40.25-29.72c6.96-5.98,13.64-12.25,20.02-18.77
						c0.59-0.6,1.18-1.95,0.57-2.7c-0.66-0.8-1.73-0.01-2.24,0.5c-11.21,11.45-23.41,22.05-36.35,31.77
						c-13.22,9.93-27.22,18.92-41.83,26.96c-8.43,4.64-17.07,8.96-25.87,12.97c0.49,0.62,0.98,1.25,1.47,1.87
						c8.66-22.37,14.03-45.79,15.78-69.53c0.49-6.66,0.69-13.33,0.61-20.01c-0.01-0.93-0.82-1.29-1.67-0.9
						C683.54,577.12,682.87,578.32,682.88,579.28L682.88,579.28z"/>
				</g>
			</g>
			<g class="st7">
				<path d="M758.96,607.24c40.65,0.48,81.76-4.95,119.29-19.55c37.53-14.6,71.35-38.77,93-70.92s30.3-72.5,19.83-109.2
					c-11.12-38.97-43.04-71.28-81.79-89.05c-38.75-17.77-83.66-21.85-126.4-16.21c-48.1,6.35-95.05,25.25-129.42,57.33
					c-34.37,32.08-55,77.94-50.35,123.12s36.48,88.17,82.01,104.01"/>
				<g>
					<path d="M758.27,608.93c39.5,0.43,79.49-4.58,116.33-18.32c31.77-11.85,61-30.23,83.14-54.74
						c23.05-25.51,37.54-57.68,39.06-91.17c0.74-16.32-1.74-32.77-7.68-48.15c-5.45-14.12-13.64-27.27-23.77-38.9
						c-21.61-24.8-51.35-42.16-84.01-51.26c-36.05-10.04-74.87-10.34-111.64-3.64c-34.49,6.29-67.85,19.13-96.02,38.91
						c-27.97,19.63-50.03,46.29-62.3,76.98c-11.75,29.41-14.09,62.14-3.61,92.18c9.66,27.69,29.3,52.68,55.89,68.14
						c6.47,3.76,13.32,6.91,20.45,9.41c1.56,0.55,3.43-2.71,1.99-3.21c-28.86-10.12-52.13-31.03-66.42-56.33
						c-15.21-26.93-19.23-57.93-12.69-87.66c6.88-31.24,24.62-60.21,49.11-82.32c24.94-22.51,56.23-38.22,89.36-47.37
						c34.63-9.57,71.77-12.54,107.51-7.34c34.24,4.98,67.01,17.99,92.94,39.7c23.99,20.09,41.44,47.1,46.52,77.02
						c5.57,32.8-3.32,67.12-22.07,95.09c-17.85,26.64-44.31,47.65-73.93,62.2c-33.56,16.48-71.3,24.54-108.97,26.75
						c-9.27,0.54-18.55,0.73-27.84,0.63C758.09,605.52,756.56,608.92,758.27,608.93L758.27,608.93z"/>
				</g>
			</g>
			<g class="st7">
				<path class="st8" d="M791.74,446.66c2.51-21.25-14.36-42.63-36.55-47.82c-22.19-5.19-47.13,5.49-58.55,24.01
					c-11.42,18.52-9.24,43.22,4.2,60.52c11.03,14.2,28.08,23.06,44.77,31.11c23.76,11.45,47.94,22.16,72.47,32.1
					c3.02,1.22,6.29,2.46,9.51,1.83c4.1-0.81,6.81-4.34,9.12-7.61c17.45-24.7,34.91-49.4,52.36-74.1
					c9.22-13.05,18.76-26.99,19.33-42.62c0.48-13.19-5.83-26.22-15.84-35.54c-17.03-15.84-44.87-20.46-66.69-11.05
					s-36.13,32.2-34.27,54.59"/>
				<g>
					<path d="M793.13,446.33c2.18-19.28-10.4-38.49-29.12-46.51c-19-8.15-41.86-3.05-57.13,9.63
						c-16.61,13.79-22.43,35.65-17.09,55.53c2.75,10.24,8.46,19.47,16.35,27.01c8.23,7.86,18.22,13.86,28.47,19.15
						c11.55,5.96,23.43,11.41,35.29,16.8c12.48,5.67,25.08,11.14,37.76,16.4c3.28,1.36,6.57,2.73,9.87,4.04
						c2.92,1.16,6.01,2.24,9.23,1.79c5.8-0.82,9.2-6.29,12.13-10.45c7.85-11.12,15.71-22.23,23.56-33.35s15.71-22.23,23.56-33.35
						c7.08-10.02,14.61-20,19.4-31.23c4.45-10.43,5.84-21.71,2.44-32.59c-3.17-10.17-9.85-19.28-18.67-25.89
						c-16.41-12.31-40.12-15.84-59.78-8.75c-19.85,7.15-34.43,24.64-38.38,44.03c-0.95,4.69-1.26,9.49-0.89,14.24
						c0.17,2.19,2.98-0.06,2.86-1.48c-1.47-18.63,8.34-37.46,24.81-48.03c16.78-10.77,39.24-11.58,57.53-3.64
						c19.57,8.5,34.05,28.12,31.3,48.75c-1.46,10.97-7.18,20.9-13.37,30.14c-7.04,10.49-14.53,20.71-21.83,31.04
						c-7.51,10.64-15.03,21.27-22.54,31.9c-3.78,5.35-7.56,10.7-11.35,16.06c-2.76,3.91-5.84,9.62-11.71,9.3
						c-3.38-0.19-6.56-1.8-9.61-3.04c-2.98-1.22-5.96-2.45-8.94-3.69c-6.1-2.55-12.18-5.14-18.24-7.78
						c-12.11-5.28-24.13-10.76-36.05-16.42c-19.79-9.4-41.72-19.35-53.63-37.76c-10.75-16.62-12.04-39.04-1.03-55.83
						c10.17-15.51,30.51-24.81,49.85-22.86c19.68,1.99,36.47,16.5,41.14,34.34c1.12,4.29,1.51,8.76,1.01,13.15
						C790.08,449.41,792.95,447.94,793.13,446.33L793.13,446.33z"/>
				</g>
			</g>
			<g class="st7">
				<g>
					<path d="M965.17,434.09c4.09,16.99,2.74,34.95-3.89,51.23c-0.25,0.61-0.33,1.67,0.57,1.81c0.89,0.13,1.68-0.95,1.94-1.59
						c6.95-17.06,8.41-35.85,4.13-53.66c-0.21-0.86-1.24-0.58-1.77-0.19C965.45,432.23,964.96,433.24,965.17,434.09L965.17,434.09z"
						/>
				</g>
			</g>
			<g class="st7">
				<g>
					<path d="M956.1,505.31c-7.87,13.23-18.76,24.71-31.82,33.66c-1.39,0.95-1.32,4.02,0.78,2.58
						c13.58-9.31,24.92-21.38,33.11-35.13c0.33-0.56,0.75-1.74-0.04-2.16C957.35,503.84,956.43,504.76,956.1,505.31L956.1,505.31z"
						/>
				</g>
			</g>
			<g class="st7">
				<g>
					<path d="M637,450.23c0.54-17.01,5.66-33.83,14.76-48.57c2.6-4.22,5.52-8.24,8.74-12.07c0.48-0.57,1.06-1.68,0.5-2.37
						c-0.56-0.68-1.55-0.05-1.96,0.44c-11.92,14.17-20,31.09-23.28,48.85c-0.93,5.02-1.46,10.11-1.62,15.2
						c-0.03,0.82,0.74,1.12,1.46,0.79C636.45,452.11,636.98,451.08,637,450.23L637,450.23z"/>
				</g>
			</g>
		</g>
		<g id="Ebene_3">
			<g>
				<path class="st9" d="M700.4,561.12c0.39,29.95-5.09,59.95-16.19,88.57c40.42-18.39,76.26-43.12,104.85-72.36"/>
				<g>
					<path d="M698.77,561.96c0.28,23.22-2.98,46.39-9.57,68.78c-1.87,6.35-4.04,12.62-6.43,18.82c-0.42,1.07-0.03,2.55,1.47,1.87
						c15.72-7.16,30.91-15.33,45.38-24.51c14.16-8.98,27.66-18.88,40.25-29.72c6.96-5.98,13.64-12.25,20.02-18.77
						c0.59-0.6,1.18-1.95,0.57-2.7c-0.66-0.8-1.73-0.01-2.24,0.5c-11.21,11.45-23.41,22.05-36.35,31.77
						c-13.22,9.93-27.22,18.92-41.83,26.96c-8.43,4.64-17.07,8.96-25.87,12.97c0.49,0.62,0.98,1.25,1.47,1.87
						c8.66-22.37,14.03-45.79,15.78-69.53c0.49-6.66,0.69-13.33,0.61-20.01c-0.01-0.93-0.82-1.29-1.67-0.9
						C699.43,559.8,698.76,561,698.77,561.96L698.77,561.96z"/>
				</g>
			</g>
			<g>
				<path class="st9" d="M774.84,589.92c40.65,0.48,81.76-4.95,119.29-19.55s71.35-38.77,93-70.92
					c21.65-32.15,30.3-72.5,19.83-109.2c-11.12-38.97-43.04-71.28-81.79-89.05c-38.75-17.77-83.66-21.85-126.4-16.21
					c-48.1,6.35-95.05,25.25-129.42,57.33c-34.37,32.08-55,77.94-50.35,123.12s36.48,88.17,82.01,104.01"/>
				<g>
					<path d="M774.16,591.62c39.5,0.43,79.49-4.58,116.33-18.32c31.77-11.85,61-30.23,83.14-54.74
						c23.05-25.51,37.54-57.68,39.06-91.17c0.74-16.32-1.74-32.77-7.68-48.15c-5.45-14.12-13.64-27.27-23.77-38.9
						c-21.61-24.8-51.35-42.16-84.01-51.26c-36.05-10.04-74.87-10.34-111.64-3.64c-34.49,6.29-67.85,19.13-96.02,38.91
						c-27.97,19.63-50.03,46.29-62.3,76.98c-11.75,29.41-14.09,62.14-3.61,92.18c9.66,27.69,29.3,52.68,55.89,68.14
						c6.47,3.76,13.32,6.91,20.45,9.41c1.56,0.55,3.43-2.71,1.99-3.21c-28.86-10.12-52.13-31.03-66.42-56.33
						c-15.21-26.93-19.23-57.93-12.69-87.66c6.88-31.24,24.62-60.21,49.11-82.32c24.94-22.51,56.23-38.22,89.36-47.37
						c34.63-9.57,71.77-12.54,107.51-7.34c34.24,4.98,67.01,17.99,92.94,39.7c23.99,20.09,41.44,47.1,46.52,77.02
						c5.57,32.8-3.32,67.12-22.07,95.09c-17.85,26.64-44.31,47.65-73.93,62.2c-33.56,16.48-71.3,24.54-108.97,26.75
						c-9.27,0.54-18.55,0.73-27.84,0.63C773.98,588.2,772.45,591.6,774.16,591.62L774.16,591.62z"/>
				</g>
			</g>
			<g>
				<path class="st8" d="M807.63,429.34c2.51-21.25-14.36-42.63-36.55-47.82c-22.19-5.19-47.13,5.49-58.55,24.01
					c-11.42,18.52-9.24,43.22,4.2,60.52c11.03,14.2,28.08,23.06,44.77,31.11c23.76,11.45,47.94,22.16,72.47,32.1
					c3.02,1.22,6.29,2.46,9.51,1.83c4.1-0.81,6.81-4.34,9.12-7.61c17.45-24.7,34.91-49.4,52.36-74.1
					c9.22-13.05,18.76-26.99,19.33-42.62c0.48-13.19-5.83-26.22-15.84-35.54c-17.03-15.84-44.87-20.46-66.69-11.05
					s-36.13,32.2-34.27,54.59"/>
				<g>
					<path d="M809.02,429.02c2.18-19.28-10.4-38.49-29.12-46.51c-19-8.15-41.86-3.05-57.13,9.63
						c-16.61,13.79-22.43,35.65-17.09,55.53c2.75,10.24,8.46,19.47,16.35,27.01c8.23,7.86,18.22,13.86,28.47,19.15
						c11.55,5.96,23.43,11.41,35.29,16.8c12.48,5.67,25.08,11.14,37.76,16.4c3.28,1.36,6.57,2.73,9.87,4.04
						c2.92,1.16,6.01,2.24,9.23,1.79c5.8-0.82,9.2-6.29,12.13-10.45c7.85-11.12,15.71-22.23,23.56-33.35
						c7.85-11.12,15.71-22.23,23.56-33.35c7.08-10.02,14.61-20,19.4-31.23c4.45-10.43,5.84-21.71,2.44-32.59
						c-3.17-10.17-9.85-19.28-18.67-25.89c-16.41-12.31-40.12-15.84-59.78-8.75c-19.85,7.15-34.43,24.64-38.38,44.03
						c-0.95,4.69-1.26,9.49-0.89,14.24c0.17,2.19,2.98-0.06,2.86-1.48c-1.47-18.63,8.34-37.46,24.81-48.03
						c16.78-10.77,39.24-11.58,57.53-3.64c19.57,8.5,34.05,28.12,31.3,48.75c-1.46,10.97-7.18,20.9-13.37,30.14
						c-7.04,10.49-14.53,20.71-21.83,31.04c-7.51,10.64-15.03,21.27-22.54,31.9c-3.78,5.35-7.56,10.7-11.35,16.06
						c-2.76,3.91-5.84,9.62-11.71,9.3c-3.38-0.19-6.56-1.8-9.61-3.04c-2.98-1.22-5.96-2.45-8.94-3.69
						c-6.1-2.55-12.18-5.14-18.24-7.78c-12.11-5.28-24.13-10.76-36.05-16.42c-19.79-9.4-41.72-19.35-53.63-37.76
						c-10.75-16.62-12.04-39.04-1.03-55.83c10.17-15.51,30.51-24.81,49.85-22.86c19.68,1.99,36.47,16.5,41.14,34.34
						c1.12,4.29,1.51,8.76,1.01,13.15C805.96,432.09,808.84,430.62,809.02,429.02L809.02,429.02z"/>
				</g>
			</g>
			<g>
				<g>
					<path d="M981.06,416.77c4.09,16.99,2.74,34.95-3.89,51.23c-0.25,0.61-0.33,1.67,0.57,1.81c0.89,0.13,1.68-0.95,1.94-1.59
						c6.95-17.06,8.41-35.85,4.13-53.66c-0.21-0.86-1.24-0.58-1.77-0.19C981.33,414.91,980.85,415.93,981.06,416.77L981.06,416.77z"
						/>
				</g>
			</g>
			<g>
				<g>
					<path d="M971.99,487.99c-7.87,13.23-18.76,24.71-31.82,33.66c-1.39,0.95-1.32,4.02,0.78,2.58
						c13.58-9.31,24.92-21.38,33.11-35.13c0.33-0.56,0.75-1.74-0.04-2.16C973.24,486.52,972.31,487.45,971.99,487.99L971.99,487.99z
						"/>
				</g>
			</g>
			<g>
				<g>
					<path d="M652.89,432.91c0.54-17.01,5.66-33.83,14.76-48.57c2.6-4.22,5.52-8.24,8.74-12.07c0.48-0.57,1.06-1.68,0.5-2.37
						c-0.56-0.68-1.55-0.05-1.96,0.44c-11.92,14.17-20,31.09-23.28,48.85c-0.93,5.02-1.46,10.11-1.62,15.2
						c-0.03,0.82,0.74,1.12,1.46,0.79C652.34,434.79,652.86,433.76,652.89,432.91L652.89,432.91z"/>
				</g>
			</g>
			<g>
				<path class="st8" d="M1029.31,285.29c3.4-2.95,4.24-8.15,1.93-11.91c-2.31-3.76-7.54-5.7-11.98-4.44
					c-5.3,1.5-8.49,6.81-9.05,11.96c-0.56,5.15,0.94,10.28,2.1,15.34c1.17,5.06,2,10.45,0.17,15.33
					c11.41-5.54,22.12-12.32,31.87-20.16c3.66-2.94,7.52-7.15,5.97-11.42c-1.36-3.77-6.55-5.27-10.65-4.23
					c-4.1,1.05-7.34,3.92-10.4,6.68"/>
				<g>
					<path d="M1029.7,286.59c3.71-3.36,5.47-8.78,3.42-13.36c-1.86-4.15-6.63-6.69-11.39-6.3c-5.23,0.42-9.12,4.26-11.21,8.51
						c-2.47,5.03-2.07,10.62-0.97,15.92c1.34,6.51,4.03,13.54,1.67,20.13c-0.33,0.91-0.04,2.29,1.29,1.64
						c10.76-5.24,20.91-11.56,30.23-18.82c4.14-3.23,9.18-7.32,9.35-12.79c0.14-4.48-3.86-7.44-8.37-7.73
						c-6-0.38-10.84,3.77-14.84,7.39c-0.62,0.56-1.29,1.54-0.99,2.4c0.28,0.79,1.22,0.69,1.77,0.19c3.11-2.82,6.74-6.26,11.33-6.58
						c3.58-0.25,8.19,1.59,8.25,5.46c0.03,2.17-1.58,4.06-3.08,5.56c-1.71,1.71-3.73,3.18-5.67,4.66c-4.07,3.1-8.29,6.02-12.66,8.74
						c-4.96,3.08-10.09,5.9-15.37,8.48c0.43,0.55,0.86,1.09,1.29,1.64c1.73-4.84,1.35-9.86,0.34-14.8
						c-1.06-5.15-2.8-10.26-2.53-15.55c0.19-3.64,1.73-7.64,5.11-9.72c3.57-2.19,8.36-1.56,11.5,1.03
						c3.38,2.79,4.15,8.29,0.76,11.35c-0.62,0.56-1.29,1.54-0.99,2.4C1028.22,287.19,1029.15,287.09,1029.7,286.59L1029.7,286.59z"
						/>
				</g>
			</g>
			<g>
				<path class="st10" d="M1040.76,345.61c-0.94,7.92-6.29,15.27-13.83,19c3.59-1.49,7.96-1.23,11.32,0.67
					c3.36,1.9,5.63,5.4,5.88,9.06c0.63-7.37,6.43-14.12,13.99-16.3c-7.84,1.67-16.48-4.5-16.81-12.01"/>
				<g>
					<path d="M1039.37,345.94c-0.93,7.27-5.57,13.66-12.47,17.13c-1.28,0.65-2.17,3.94,0.06,3.06c6.98-2.75,15.13,1.92,15.74,8.94
						c0.18,2.1,2.71,0.14,2.83-1.07c0.64-6.6,5.49-12.28,12.26-14.3c0.9-0.27,1.57-1.15,1.73-2c0.12-0.69-0.14-1.52-1.06-1.34
						c-7.26,1.44-15.29-4.09-15.72-11.08c-0.05-0.8-0.69-1.14-1.46-0.79c-0.79,0.37-1.45,1.44-1.4,2.27
						c0.5,8.2,9.25,14.65,17.91,12.93c0.23-1.11,0.45-2.22,0.67-3.34c-8.46,2.53-14.92,10.01-15.72,18.3
						c0.94-0.36,1.88-0.71,2.83-1.07c-0.34-3.91-2.44-7.56-5.99-9.73c-3.8-2.32-8.57-2.4-12.67-0.79c0.02,1.02,0.04,2.04,0.06,3.06
						c8.24-4.15,14.09-12.16,15.2-20.86C1042.46,342.86,1039.57,344.34,1039.37,345.94L1039.37,345.94z"/>
				</g>
			</g>
			<path class="st11" d="M1060.14,528.52l4.08,11.76c0.17,0.5,0.68,0.85,1.25,0.85h13.22c1.27,0,1.8,1.52,0.77,2.22l-10.7,7.28
				c-0.46,0.31-0.65,0.87-0.48,1.37l4.09,11.77c0.39,1.13-0.99,2.07-2.02,1.37l-10.69-7.27c-0.46-0.31-1.08-0.31-1.54,0l-10.69,7.27
				c-1.03,0.7-2.41-0.24-2.02-1.37l4.09-11.77c0.17-0.5-0.02-1.06-0.48-1.37l-10.7-7.28c-1.03-0.7-0.5-2.22,0.77-2.22h13.22
				c0.57,0,1.07-0.34,1.25-0.85l4.08-11.76C1058.03,527.39,1059.75,527.39,1060.14,528.52z"/>
			<path class="st11" d="M727.51,245.77l4.08,11.76c0.17,0.5,0.68,0.85,1.25,0.85h13.22c1.27,0,1.8,1.52,0.77,2.22l-10.7,7.28
				c-0.46,0.31-0.65,0.87-0.48,1.37l4.09,11.77c0.39,1.13-0.99,2.07-2.02,1.37l-10.69-7.27c-0.46-0.31-1.08-0.31-1.54,0l-10.69,7.27
				c-1.03,0.7-2.41-0.24-2.02-1.37l4.09-11.77c0.17-0.5-0.02-1.06-0.48-1.37l-10.7-7.28c-1.03-0.7-0.5-2.22,0.77-2.22h13.22
				c0.57,0,1.07-0.34,1.25-0.85l4.08-11.76C725.4,244.64,727.12,244.64,727.51,245.77z"/>
			<path class="st11" d="M608.36,537.7l4.08,11.76c0.17,0.5,0.68,0.85,1.25,0.85h13.22c1.27,0,1.8,1.52,0.77,2.22l-10.7,7.28
				c-0.46,0.31-0.65,0.87-0.48,1.37l4.09,11.77c0.39,1.13-0.99,2.07-2.02,1.37l-10.69-7.27c-0.46-0.31-1.08-0.31-1.54,0l-10.69,7.27
				c-1.03,0.7-2.41-0.24-2.02-1.37l4.09-11.77c0.17-0.5-0.02-1.06-0.48-1.37l-10.7-7.28c-1.03-0.7-0.5-2.22,0.77-2.22h13.22
				c0.57,0,1.07-0.34,1.25-0.85l4.08-11.76C606.25,536.57,607.97,536.57,608.36,537.7z"/>
			<g>
				<path class="st12" d="M976.55,620.62c-0.88-5.11-6.15-9.23-11.68-9.16c-5.54,0.08-10.67,4.34-11.39,9.47
					c-0.77,5.41,2.99,10.67,7.85,13.71c4.86,3.04,10.68,4.34,16.33,5.74c5.65,1.41,11.44,3.07,15.85,6.65
					c1.63-10.39,3.25-20.78,4.88-31.16c0.77-4.94,1.15-10.87-3.03-13.97c-4.32-3.2-11.17-0.99-14.39,3.2
					c-3.21,4.19-3.77,9.61-4.22,14.74"/>
				<g>
					<path d="M977.93,619.52c-0.96-4.97-5.54-9.04-10.91-9.67c-5.58-0.66-10.99,2.76-13.48,7.28c-2.82,5.11-1.56,10.99,2.28,15.32
						c4.17,4.7,10.35,6.85,16.45,8.46c7.04,1.85,14.5,3.19,20.24,7.74c0.98,0.78,2.29-1.3,2.39-1.94
						c1.02-6.49,2.03-12.99,3.05-19.48c0.52-3.33,1.04-6.65,1.56-9.98c0.39-2.5,0.8-5.01,0.79-7.54c-0.02-4.35-1.6-9.21-6.51-10.64
						c-4.68-1.37-9.84,1-12.9,4.29c-4.37,4.7-5.05,11.29-5.58,17.23c-0.07,0.83,0.77,1.1,1.46,0.79c0.89-0.41,1.33-1.41,1.4-2.27
						c0.39-4.44,0.73-9.61,3.73-13.3c2.32-2.86,6.97-4.67,10.68-3.26c4.24,1.61,5,6.1,4.82,9.89c-0.11,2.41-0.58,4.8-0.95,7.18
						c-0.43,2.76-0.86,5.52-1.29,8.28c-1.02,6.49-2.03,12.99-3.05,19.48c0.79-0.65,1.59-1.29,2.39-1.94
						c-9.07-7.19-22.02-6.27-31.79-12.16c-4.24-2.55-8.07-7-7.89-11.95c0.15-4.35,4.29-7.78,8.81-8.13
						c5.49-0.43,10.59,3.58,11.55,8.54c0.17,0.88,1.27,0.56,1.77,0.19C977.68,621.36,978.1,620.39,977.93,619.52L977.93,619.52z"/>
				</g>
			</g>
			<g>
				<path class="st13" d="M896.12,610c0.46,7.57-3.71,15.23-10.53,19.34c8.72-2.61,19.11,1.09,23.76,8.46
					c-3.53-7.57-0.69-17.27,6.48-22.1c-6.91,2.3-15.33-0.33-19.37-6.05"/>
				<g>
					<path d="M894.69,610.74c0.34,6.73-3.07,13.34-9.12,17.07c-0.74,0.46-1.32,1.22-1.38,2.07c-0.05,0.59,0.26,1.37,1.08,1.13
						c8.53-2.46,18.26,1.06,22.86,8.19c0.88,1.36,3.08-1.46,2.61-2.51c-3.12-6.9-1.03-15.21,5.49-19.7c0.6-0.41,1.08-1.33,1.04-2.03
						c-0.03-0.53-0.42-1.14-1.1-0.93c-6.72,2.15-14.49-0.3-18.48-5.79c-0.97-1.34-3.34,1.6-2.46,2.8
						c4.35,5.99,12.93,8.66,20.27,6.32c-0.02-0.99-0.03-1.97-0.05-2.96c-7.83,5.4-11.29,16.05-7.47,24.5
						c0.87-0.84,1.74-1.67,2.61-2.51c-4.95-7.66-15.53-11.36-24.65-8.72c-0.1,1.07-0.21,2.13-0.31,3.2
						c7.62-4.69,12.36-13.05,11.93-21.61c-0.04-0.81-0.7-1.14-1.46-0.79C895.29,608.84,894.65,609.91,894.69,610.74L894.69,610.74z"
						/>
				</g>
			</g>
			<g>
				<path class="st14" d="M638.41,586.4c1.47,7.88-2.07,16.4-8.84,21.29c6.8-2.02,14.94,1.31,17.94,7.36
					c-0.59-7.01,2.89-14.21,8.91-18.42c-7.32,1.25-15.29-2.75-18.22-9.14"/>
				<g>
					<path d="M637.03,587.51c1.26,7.11-1.81,14.45-7.85,18.9c-0.59,0.43-1.08,1.32-1.04,2.03c0.03,0.55,0.42,1.12,1.1,0.93
						c6.63-1.88,14.06,1.29,17.05,7.09c0.32,0.61,1.27,0.16,1.62-0.11c0.59-0.45,1.1-1.31,1.04-2.03
						c-0.47-6.38,2.43-12.5,7.87-16.39c0.78-0.56,1.84-3.26-0.05-2.96c-6.88,1.1-14.34-2.59-17.18-8.58
						c-0.83-1.76-3.36,0.94-2.76,2.21c3.26,6.89,11.3,10.97,19.26,9.7c-0.02-0.99-0.03-1.97-0.05-2.96
						c-6.64,4.74-10.54,12.66-9.96,20.45c0.89-0.71,1.78-1.43,2.66-2.14c-3.28-6.36-11.64-9.67-18.84-7.62
						c0.02,0.99,0.03,1.97,0.05,2.96c7.54-5.54,11.39-14.86,9.83-23.69c-0.16-0.88-1.28-0.56-1.77-0.19
						C637.28,585.68,636.88,586.64,637.03,587.51L637.03,587.51z"/>
				</g>
			</g>
			<g>
				<path class="st10" d="M607.05,296.42c1.65,7.34-0.39,15.33-5.41,21.19c7.37-4.59,18.25-3.34,24.2,2.8
					c-5.43-5.78-5.43-15.35,0-21.13c-6.6,1.99-14.33,0.22-19.2-4.38"/>
				<g>
					<path d="M605.67,297.53c1.44,6.66-0.25,13.77-4.77,19.12c-0.44,0.52-0.89,1.38-0.65,2.07c0.2,0.57,0.86,0.75,1.41,0.42
						c7.07-4.3,17.19-3.12,22.93,2.67c1.23,1.24,3.45-1.72,2.46-2.8c-4.75-5.19-5.37-13.45-0.5-18.76c0.52-0.57,1.28-3.11-0.39-2.63
						c-6.34,1.83-13.56,0.26-18.31-4.12c-1.3-1.2-3.53,1.82-2.46,2.8c5.24,4.84,13.03,6.69,20.1,4.65
						c-0.13-0.88-0.26-1.75-0.39-2.63c-5.94,6.48-6.56,16.88-0.5,23.49c0.82-0.94,1.64-1.87,2.46-2.8
						c-6.42-6.47-17.54-7.74-25.46-2.92c0.25,0.83,0.51,1.66,0.76,2.49c5.51-6.54,7.82-15.08,6.06-23.26
						c-0.19-0.87-1.26-0.57-1.77-0.19C605.94,295.68,605.49,296.67,605.67,297.53L605.67,297.53z"/>
				</g>
			</g>
		</g>
	</g>
</g>
<g id="Ebene_22">
</g>
<g id="Ebene_23">
</g>
</svg>
