<?xml version="1.0" encoding="utf-8"?>
<!-- Generator: Adobe Adobe Illustrator 24.2.0, SVG Export Plug-In . SVG Version: 6.00 Build 0)  -->
<svg version="1.1" xmlns="http://www.w3.org/2000/svg" xmlns:xlink="http://www.w3.org/1999/xlink" x="0px" y="0px"
	 viewBox="0 0 170.08 170.08" style="enable-background:new 0 0 170.08 170.08;" xml:space="preserve">
<style type="text/css">
	.st0{fill:#D2E0EC;}
	.st1{fill:#D2E1EC;}
	.st2{opacity:0.149;}
	.st3{fill:#FFFFFF;}
	.st4{stroke:#000000;stroke-miterlimit:10;}
	.st5{fill:#FFFFFF;stroke:#FFFFFF;stroke-width:0.4071;stroke-miterlimit:10;}
	.st6{opacity:0.7804;fill:#DB9886;stroke:#DB9886;stroke-width:0.3912;stroke-miterlimit:10;}
	.st7{opacity:0.6902;fill:#DB9886;stroke:#DB9886;stroke-width:0.3912;stroke-miterlimit:10;}
	.st8{fill:#ECC9AD;}
	.st9{opacity:0.1608;}
	.st10{opacity:0.1686;}
	.st11{fill:#F0F6FA;}
	.st12{opacity:0.0314;}
	.st13{stroke:#000000;stroke-width:0.0661;stroke-miterlimit:10;}
	.st14{fill:#D15238;}
	.st15{fill:#D15239;}
	.st16{fill:#C8354F;}
	.st17{fill:#C93550;}
	.st18{fill:#6DB671;}
	.st19{fill:#6CB671;}
	.st20{fill:#D1DFEA;}
	.st21{fill:#D3E1ED;}
	.st22{fill:#C8354E;}
	.st23{fill:#F3C058;}
	.st24{fill:#C8AE9D;}
	.st25{opacity:0.0784;}
	.st26{opacity:0.1412;}
</style>
<g id="Ebene_4_5_">
</g>
<g id="Ebene_8_7_">
	<g>
		<g id="Ebene_5_8_">
			<g>
				<g>
					<path class="st0" d="M80.07,35.99c-31.77,0.48-64.7-3.19-68.53,49.61c-1.1,15.11-2.07,50.63,5.45,56.98
						c3.31,2.79,8.14,2.91,12.55,2.89c32.42-0.14,64.83-0.28,97.25-0.42c6.46-0.03,17.76,0.48,22.61-13.44
						c3.24-9.28,3.47-37.97,1.87-52.29c-4.74-42.27-35.4-45.62-71.57-43.34"/>
					<g>
						<path d="M80.24,35.06c-6.09,0.09-12.19,0.03-18.28,0.25c-5.75,0.21-11.54,0.66-17.17,1.91c-5.32,1.18-10.48,3.11-14.98,6.16
							c-4.92,3.33-8.76,7.89-11.51,12.97c-3.71,6.86-5.6,14.5-6.65,22.07c-0.96,6.97-1.24,14.03-1.42,21.04
							c-0.19,7.43-0.16,14.88,0.39,22.28c0.25,3.39,0.61,6.78,1.21,10.12c0.48,2.65,1.1,5.32,2.17,7.8c0.98,2.26,2.37,4,4.69,5.14
							c4.13,2.03,9.25,1.6,13.78,1.58c11.9-0.05,23.8-0.1,35.7-0.15c11.95-0.05,23.9-0.1,35.84-0.15
							c5.93-0.03,11.85-0.05,17.77-0.08c3.48-0.02,7.01,0.12,10.49-0.18c3.05-0.27,6.11-0.99,8.79-2.5
							c3.37-1.91,5.87-4.88,7.54-8.23c2.89-5.82,3.34-12.47,3.79-18.76c0.56-7.89,0.64-15.8,0.42-23.69
							c-0.21-7.37-0.63-14.8-2.22-22c-1.48-6.7-3.99-13.29-8.18-18.85c-3.51-4.67-8.09-8.42-13.42-11.09
							c-5.47-2.73-11.53-4.28-17.64-5.14c-6.81-0.96-13.75-1.13-20.65-0.97c-3.61,0.08-7.21,0.26-10.81,0.49
							c-0.78,0.05-1.24,1.91-0.33,1.86c7.13-0.45,14.28-0.71,21.41-0.41c6.4,0.28,12.81,1.03,18.94,2.78
							c5.58,1.59,10.88,4.05,15.32,7.64c4.78,3.86,8.33,8.86,10.76,14.35c2.98,6.72,4.32,14.04,4.94,21.32
							c0.62,7.36,0.76,14.78,0.65,22.18c-0.1,7.1-0.36,14.28-1.5,21.32c-0.46,2.88-1.07,5.48-2.39,8.15
							c-1.6,3.23-4.04,6.04-7.39,7.72c-2.64,1.32-5.57,1.87-8.5,2.05c-3.65,0.23-7.34,0.11-10.99,0.12
							c-11.7,0.05-23.41,0.1-35.11,0.15c-11.7,0.05-23.41,0.1-35.11,0.15c-5.83,0.03-11.65,0.05-17.48,0.08
							c-4.53,0.02-9.62,0.48-13.75-1.55c-2.23-1.09-3.44-2.85-4.33-5.02c-1.02-2.47-1.57-5.12-2.02-7.74
							c-1.17-6.86-1.44-13.88-1.53-20.84c-0.08-6.78,0.1-13.57,0.49-20.35c0.45-7.75,1.29-15.55,3.63-23.06
							c1.85-5.91,4.64-11.62,8.97-16.29c3.58-3.84,8.12-6.7,13.09-8.6c5.11-1.95,10.56-2.89,15.99-3.42
							c5.83-0.56,11.68-0.64,17.52-0.68c2.91-0.02,5.82-0.03,8.74-0.08C80.68,36.91,81.16,35.05,80.24,35.06L80.24,35.06z"/>
					</g>
				</g>
				<g>
					<g>
						<path d="M79.45,28.4c-0.01,2.63-0.02,5.26-0.03,7.9c0,0.37,0.24,0.74,0.66,0.57c0.43-0.17,0.65-0.79,0.66-1.19
							c0.01-2.63,0.02-5.26,0.03-7.9c0-0.37-0.24-0.74-0.66-0.57C79.67,27.38,79.45,28,79.45,28.4L79.45,28.4z"/>
					</g>
				</g>
				<g>
					<path d="M81.89,13.7c4.02-0.23,6.94,5.28,5.98,8.78c-0.97,3.5-4.98,5.96-8.59,5.26s-6.25-4.44-5.65-8.01
						c0.6-3.57,4.35-6.41,8.02-6.07"/>
					<g>
						<path d="M81.72,14.63c2.52-0.1,4.31,2.07,5.13,4.1c0.91,2.24,0.64,4.59-1.3,6.32c-2.13,1.9-5.32,2.49-7.85,1.1
							c-2.37-1.31-4.03-4.2-3.37-6.86c0.74-2.98,4.07-4.93,7.14-4.69c0.75,0.06,1.26-1.79,0.33-1.86c-3.56-0.27-6.88,2.12-8.25,5.19
							c-1.4,3.15-0.52,6.88,2.11,9.12c2.68,2.28,6.48,2.19,9.39,0.2c2.82-1.93,4.16-5.23,3.43-8.41c-0.67-2.89-2.95-6.2-6.44-6.07
							C81.28,12.8,80.81,14.66,81.72,14.63L81.72,14.63z"/>
					</g>
				</g>
				<g>
					<path d="M31.26,145.47c-6.72-4.4-11.69-9.55-12.41-24.54c-0.58-12.1-0.08-26.02,1.81-38.04c1.2-7.61,3.99-13.92,9.37-19.63
						c6.33-6.71,16.38-8.35,25.62-9.09c18.51-1.49,37.09-1.03,55.59,0.04c7.07,0.41,17.72,4.27,22.53,9.26
						c7.82,8.12,9.37,44.02,5.98,64.76c-0.98,6-4.74,11.95-9.58,15.83"/>
					<g>
						<path d="M31.73,144.63c-2.51-1.65-4.88-3.5-6.74-5.82c-2.2-2.74-3.53-6.03-4.33-9.4c-1.15-4.87-1.25-9.91-1.34-14.9
							c-0.09-5.38,0.02-10.77,0.34-16.15c0.32-5.27,0.83-10.55,1.68-15.77c0.73-4.47,2.12-8.84,4.49-12.8c2.4-4,5.65-7.66,9.89-9.97
							c4.46-2.43,9.54-3.53,14.55-4.19c5.65-0.74,11.37-1.01,17.05-1.23c6.04-0.23,12.08-0.29,18.11-0.22
							c6.04,0.07,12.07,0.27,18.1,0.56c2.86,0.14,5.75,0.19,8.59,0.48c2.2,0.23,4.37,0.71,6.49,1.31c4.52,1.3,9.05,3.19,12.73,6.03
							c1.11,0.86,2.16,1.81,2.94,2.95c0.67,0.99,1.2,2.06,1.67,3.15c1.19,2.81,1.93,5.81,2.54,8.79c0.75,3.72,1.25,7.48,1.6,11.26
							c0.78,8.42,0.9,16.93,0.47,25.39c-0.2,3.88-0.52,7.76-1.05,11.63c-0.28,2.02-0.58,4.03-1.25,5.97
							c-0.79,2.28-1.94,4.46-3.38,6.43c-1.38,1.91-3.01,3.64-4.87,5.14c-0.36,0.29-0.58,0.86-0.46,1.29c0.1,0.4,0.46,0.53,0.81,0.25
							c3.98-3.21,7.05-7.47,8.82-12.12c1.47-3.87,1.81-8.09,2.2-12.15c0.82-8.65,0.96-17.35,0.51-26c-0.4-7.72-1.14-15.6-3.29-23.04
							c-0.74-2.57-1.65-5.2-3.17-7.43c-2.09-3.06-5.64-5.1-9-6.7c-4.25-2.01-8.95-3.51-13.71-4c-2.87-0.29-5.79-0.36-8.68-0.49
							c-3.09-0.15-6.17-0.27-9.26-0.37c-12.49-0.39-25.01-0.33-37.5,0.61c-5.22,0.39-10.46,0.95-15.5,2.46
							c-5,1.5-9.4,4.05-12.82,7.89c-3.15,3.54-5.55,7.63-7.07,12.02c-1.69,4.85-2.29,9.97-2.82,15.01
							c-0.59,5.54-0.91,11.1-1.03,16.66c-0.11,5.45-0.12,10.94,0.33,16.37c0.36,4.33,1.13,8.7,3.01,12.66
							c1.36,2.86,3.36,5.39,5.83,7.46c1.14,0.96,2.36,1.82,3.61,2.64C31.54,146.8,32.35,145.05,31.73,144.63L31.73,144.63z"/>
					</g>
				</g>
				<g>
					<path class="st0" d="M46.88,75.97c-0.19,5.21-0.23,10.43-0.13,15.64c0.03,1.38,0.09,2.85,0.89,3.97
						c1.29,1.8,3.88,2.02,6.15,2.07c1.79,0.04,3.74,0.04,5.18-1.02c2.07-1.53,2.18-4.46,2.08-6.97c-0.15-3.89-0.3-7.78-0.45-11.67
						c-0.07-1.93-0.21-4.03-1.51-5.47c-1.74-1.92-4.8-1.88-7.45-1.69c-1.32,0.1-2.75,0.23-3.77,1.07s-1.04,2.85-1.04,4.57"/>
					<g>
						<path d="M46.23,76.28c-0.11,3.02-0.17,6.04-0.18,9.06c-0.01,1.55,0,3.11,0.02,4.66c0.02,1.4-0.04,2.84,0.21,4.22
							c0.43,2.4,2.2,3.76,4.64,4.16c1.13,0.18,2.3,0.22,3.45,0.23c1.35,0.01,2.77-0.09,3.99-0.71c2.13-1.07,3.04-3.37,3.28-5.52
							c0.29-2.65-0.01-5.37-0.12-8.02c-0.11-2.91-0.06-5.87-0.41-8.76c-0.28-2.35-1.36-4.49-3.81-5.32
							c-1.21-0.41-2.55-0.48-3.83-0.45c-1.39,0.03-2.86,0.07-4.2,0.48c-3.01,0.93-3.1,3.94-3.11,6.47c0,0.37,0.24,0.74,0.66,0.57
							c0.43-0.17,0.65-0.79,0.66-1.19c0-0.95-0.05-1.98,0.23-2.91c0.29-0.95,1.48-1.21,2.38-1.35c1.97-0.3,4.25-0.44,6.17,0.08
							c2.27,0.62,3.3,2.37,3.56,4.53c0.31,2.51,0.25,5.09,0.34,7.62c0.09,2.43,0.29,4.88,0.24,7.32c-0.03,1.73-0.28,3.76-2.06,4.68
							c-1.04,0.53-2.26,0.6-3.41,0.61c-1.06,0.01-2.13-0.02-3.17-0.17c-2.19-0.31-3.9-1.3-4.25-3.52c-0.21-1.33-0.13-2.73-0.15-4.08
							c-0.02-1.46-0.02-2.93-0.02-4.39c0.01-2.97,0.07-5.95,0.18-8.92c0.01-0.37-0.25-0.73-0.66-0.57
							C46.44,75.26,46.24,75.88,46.23,76.28L46.23,76.28z"/>
					</g>
				</g>
				<g>
					<path class="st0" d="M99.36,80.06c-0.02,5.73-2.28,13.5,1.43,15.41c2.02,1.04,12.77,1.61,12.93-1.45
						c1.05-19.83,3.34-24.2-7.87-24.03c-2.05,0.03-4.09-0.26-5.29,1.39c-1.19,1.65-1.11,5.83-1.12,8.8"/>
					<g>
						<path d="M98.7,80.37c-0.03,3.6-0.85,7.19-0.68,10.79c0.11,2.39,0.78,4.94,3.48,5.57c2.43,0.57,5.13,0.64,7.62,0.4
							c2.01-0.2,4.84-0.73,5.23-3.05c0.16-0.95,0.12-1.96,0.18-2.92c0.06-0.98,0.12-1.95,0.19-2.93c0.11-1.66,0.24-3.33,0.35-4.99
							c0.16-2.43,0.36-4.9,0.19-7.33c-0.11-1.55-0.34-3.23-1.29-4.53c-0.85-1.16-2.19-1.76-3.63-2.04c-0.95-0.18-1.93-0.25-2.9-0.27
							c-1.58-0.04-3.36-0.2-4.9,0.19c-3.73,0.95-3.68,5.67-3.74,8.57c-0.02,0.89-0.01,1.78-0.02,2.67c0,0.37,0.24,0.74,0.66,0.57
							c0.43-0.17,0.65-0.79,0.66-1.19c0.01-1.66-0.02-3.34,0.13-5c0.1-1.13,0.16-2.78,1.29-3.47c1.31-0.8,3.39-0.49,4.86-0.49
							c0.9,0,1.81,0.03,2.7,0.16c1.29,0.18,2.59,0.53,3.49,1.44c0.86,0.86,1.16,2.1,1.31,3.33c0.24,1.94,0.11,4.01,0,5.99
							c-0.17,3.04-0.42,6.08-0.61,9.13c-0.06,0.88-0.11,1.75-0.16,2.63c-0.01,0.2-0.1,0.56-0.04,0.75c-0.02-0.06,0.09-0.27,0-0.1
							c0.06-0.12,0.04-0.05-0.04,0c-0.76,0.52-1.62,0.74-2.53,0.89c-2.32,0.38-4.79,0.32-7.1-0.01c-0.88-0.13-1.91-0.25-2.61-0.79
							c-1.08-0.82-1.35-2.26-1.43-3.51c-0.24-3.69,0.64-7.38,0.67-11.07c0-0.37-0.24-0.73-0.66-0.57
							C98.92,79.34,98.7,79.97,98.7,80.37L98.7,80.37z"/>
					</g>
				</g>
				<g>
					<path class="st1" d="M56.66,103.49c14.71-0.01,30.22-0.42,44.93-0.43c1.07,0,2.3,0.08,2.9,0.92c0.51,0.72,0.35,1.71,0.11,2.57
						c-2.94,10.75-14.34,18.8-25.65,18.12c-11.31-0.68-21.26-10.02-22.4-21.02"/>
					<g>
						<path d="M56.49,104.42c9.24-0.01,18.49-0.16,27.74-0.29c4.62-0.06,9.23-0.11,13.85-0.13c1.12,0,2.23-0.02,3.34-0.01
							c0.77,0,1.76,0.01,2.35,0.55c0.73,0.67,0.29,1.79,0.04,2.6c-0.26,0.82-0.56,1.63-0.92,2.41c-2.65,5.79-7.92,10.39-14.04,12.69
							c-6.43,2.42-13.48,1.87-19.38-1.35c-6.7-3.66-11.48-10.35-12.28-17.75c-0.05-0.43-0.5-0.48-0.81-0.25
							c-0.4,0.3-0.51,0.85-0.46,1.29c0.76,6.95,4.9,13.33,10.83,17.3c5.88,3.93,13.22,5.21,20.22,3.15
							c6.8-1.99,12.71-6.71,16.07-12.71c0.85-1.53,1.55-3.14,2.04-4.81c0.5-1.71,0.87-4.08-1.33-4.77
							c-0.89-0.28-1.89-0.21-2.81-0.21c-1.21,0-2.42,0.01-3.63,0.01c-2.44,0.01-4.89,0.04-7.33,0.06
							c-9.84,0.11-19.68,0.3-29.51,0.34c-1.21,0.01-2.42,0.01-3.62,0.01C56.06,102.56,55.57,104.42,56.49,104.42L56.49,104.42z"/>
					</g>
				</g>
				<g class="st2">
					<path d="M57.84,105.26c3.24,5.14,8.37,8.92,13.93,11.57s13.88,5.26,20.89,5.15c-6.53,2.02-17.19,1.97-23.04-1.32
						c-5.86-3.29-11.61-10.06-13.01-16.54"/>
					<g>
						<path d="M57.26,105.96c5.52,8.66,15.94,13.59,26.03,15.88c3,0.68,6.09,1.11,9.19,1.07c0.05-0.6,0.11-1.21,0.16-1.81
							c-5.36,1.64-11.53,1.76-16.95,0.66c-2.62-0.53-5.04-1.45-7.22-2.92c-2.57-1.72-4.82-3.87-6.71-6.26
							c-2.1-2.65-3.79-5.69-4.53-8.97c-0.09-0.41-0.47-0.5-0.81-0.25c-0.37,0.27-0.56,0.87-0.46,1.29
							c1.34,6.02,5.59,11.47,10.6,15.18c2.25,1.66,4.7,2.87,7.48,3.54c2.94,0.71,6.03,0.96,9.07,0.91c3.22-0.06,6.46-0.47,9.55-1.41
							c0.61-0.19,1.05-1.82,0.16-1.81c-5.4,0.06-10.78-1.27-15.77-3.08c-4.71-1.7-9.21-3.97-13.01-7.12
							c-2.2-1.82-4.12-3.91-5.63-6.29C57.88,103.73,56.88,105.35,57.26,105.96L57.26,105.96z"/>
					</g>
				</g>
				<g class="st2">
					<path d="M47.58,72.22c-0.78,8.59,4.25,18.79,11.39,23.71c-3.53-1-7.99,1.57-10.79-0.74c-1.5-1.24-1.77-3.37-1.86-5.3
						c-0.26-5.52,0.06-11.08,0.97-16.55"/>
					<g>
						<path d="M46.92,72.52c-0.62,7.24,2.38,14.7,7.11,20.18c1.31,1.52,2.8,2.89,4.47,4.06c0.27-0.58,0.53-1.17,0.8-1.75
							c-1.75-0.46-3.56-0.18-5.34,0.05c-1.68,0.22-3.65,0.48-5.09-0.53c-1.75-1.24-1.84-3.57-1.92-5.48
							c-0.1-2.45-0.08-4.9,0.05-7.36c0.15-2.82,0.47-5.63,0.92-8.42c0.05-0.33-0.01-0.88-0.47-0.86c-0.45,0.02-0.75,0.65-0.8,1
							c-0.85,5.2-1.21,10.47-1.03,15.72c0.07,2.12,0.09,4.55,1.5,6.29c1.19,1.47,3.08,1.79,4.94,1.66c2.18-0.15,4.42-0.81,6.58-0.24
							c0.73,0.19,1.36-1.36,0.8-1.75c-5.8-4.04-9.66-10.68-10.9-17.42c-0.35-1.9-0.46-3.83-0.29-5.77c0.03-0.38-0.26-0.73-0.66-0.57
							C47.12,71.51,46.96,72.12,46.92,72.52L46.92,72.52z"/>
					</g>
				</g>
				<g class="st2">
					<path d="M101.43,72.34c0.48,8.41,4.49,16.52,10.9,22.06c-2.12,0.46-4.28,0.93-6.43,0.73c-2.15-0.2-4.46,0.39-5.53-1.43
						c-1.03-1.75-0.42-6.39-0.24-8.42c0.45-4.93,0.59-8.96,1.04-13.89"/>
					<g>
						<path d="M100.77,72.65c0.53,8.59,4.47,16.82,11.09,22.58c0.21-0.59,0.42-1.18,0.63-1.76c-1.33,0.29-2.66,0.58-4.01,0.71
							c-1.21,0.12-2.39-0.01-3.6-0.03c-1.71-0.02-3.74,0.07-4.22-1.86c-0.44-1.73-0.22-3.66-0.06-5.42c0.2-2.22,0.4-4.45,0.56-6.68
							c0.2-2.96,0.38-5.92,0.64-8.87c0.03-0.33,0.01-0.88-0.47-0.86c-0.43,0.02-0.77,0.66-0.8,1c-0.47,5.24-0.74,10.49-1.22,15.72
							c-0.18,1.97-0.39,4.05,0.04,5.99c0.18,0.81,0.53,1.62,1.24,2.12c0.78,0.56,1.75,0.66,2.7,0.69c1.29,0.04,2.62,0.14,3.92,0.1
							c1.67-0.06,3.32-0.41,4.95-0.77c0.63-0.14,1.17-1.3,0.63-1.76c-6.3-5.49-10.2-13.33-10.71-21.53
							C102.01,70.78,100.72,71.82,100.77,72.65L100.77,72.65z"/>
					</g>
				</g>
				<g class="st2">
					<path d="M30.54,44.7c-17.59,31.23-19.34,69.76-1.58,100.23c-3.81,2.26-8.97,0.48-11.74-2.82
						c-6.27-7.48-13.84-65.58,10.23-96.55"/>
					<g>
						<path d="M30.07,44.28c-6.91,12.29-11.47,25.75-13.32,39.5c-1.83,13.6-1.05,27.5,2.67,40.65c2.09,7.39,5.09,14.51,8.96,21.18
							c0.19-0.53,0.38-1.05,0.57-1.58c-2.32,1.33-5.05,1.15-7.41,0.11c-1.18-0.52-2.25-1.25-3.16-2.14
							c-0.29-0.28-0.56-0.58-0.81-0.89c0.1,0.13-0.13-0.18-0.17-0.24c-0.91-1.37-1.46-2.95-1.93-4.43
							c-1.71-5.37-2.56-11.03-3.13-16.61c-0.79-7.69-0.95-15.45-0.52-23.19c0.47-8.45,1.66-16.93,3.92-25.16
							c2.2-8.01,5.4-15.92,10.23-22.88c0.58-0.84,1.18-1.65,1.81-2.46c0.26-0.34,0.48-0.92,0.25-1.31c-0.23-0.38-0.67-0.21-0.9,0.09
							c-5.38,6.95-9.09,14.94-11.64,23.16c-2.64,8.5-4.1,17.29-4.78,26.09c-0.62,8.08-0.58,16.21,0.13,24.27
							c0.53,6.06,1.35,12.18,3.06,18.03c0.52,1.79,1.11,3.61,2.03,5.25c1.77,3.13,5.7,5.31,9.46,5.13c1.26-0.06,2.49-0.43,3.58-1.05
							c0.49-0.28,0.86-1.07,0.57-1.58c-6.78-11.66-10.82-24.71-12.01-38.08c-1.2-13.35,0.33-26.95,4.36-39.87
							c2.28-7.32,5.34-14.41,9.13-21.16c0.18-0.32,0.36-0.97,0.01-1.25C30.65,43.59,30.24,43.99,30.07,44.28L30.07,44.28z"/>
					</g>
				</g>
				<g class="st2">
					<g>
						<path d="M97.03,73.93c0.77-0.16,1.18-2.03,0.33-1.86C96.59,72.23,96.18,74.1,97.03,73.93L97.03,73.93z"/>
					</g>
				</g>
				<g class="st2">
					<g>
						<path class="st3" d="M103.68,45.28c2.34,0.21,4.68,0.43,7,0.73c1.17,0.15,2.34,0.32,3.5,0.52c0.54,0.09,1.09,0.19,1.63,0.29
							c0.76,0.15,0.69,0.13,1.48,0.31c4.32,0.99,8.52,2.49,12.07,5.02c8.66,6.19,10.72,16.89,11.35,26.7
							c0.42,6.45,0.39,12.97,1.68,19.32c0.08,0.41,0.81,0.54,1.12,0.58c0.75,0.1,1.66,0.01,2.4-0.15c0.78-0.17,1.58-0.39,2.27-0.8
							c0.32-0.19,0.9-0.54,0.81-0.97c-2.22-11.01-0.49-22.59-4.08-33.35c-1.56-4.69-4.19-9.11-8.14-12.32
							c-3.58-2.9-8-4.76-12.52-5.93c-5.28-1.38-10.75-1.96-16.21-2.45c-1.54-0.13-3.32,0.15-4.66,0.95
							c-0.32,0.19-0.9,0.54-0.81,0.97C102.65,45.12,103.35,45.25,103.68,45.28L103.68,45.28z"/>
					</g>
				</g>
				<g class="st2">
					<g>
						<path class="st3" d="M77.29,18.07c2.05,1.24,3.14,3.35,3.08,5.67c-0.04,1.26,6.54,0.54,6.59-1.34
							c0.07-2.47-1.26-4.89-3.43-6.2c-1.14-0.69-2.99-0.33-4.21,0.06C78.99,16.36,76.25,17.45,77.29,18.07L77.29,18.07z"/>
					</g>
				</g>
				<g class="st2">
					<g>
						<path class="st3" d="M103.94,60.18c4.97,0.45,9.82,0.87,14.36,2.78c4.02,1.69,7.46,4.64,9.02,8.63
							c1.85,4.72,1.38,9.97,1.06,14.93c-0.36,5.41-0.71,10.82-1.07,16.22c-0.4,6.11-0.8,12.21-1.21,18.32
							c-0.08,1.2,6.47,0.57,6.59-1.34c0.73-11.05,1.45-22.1,2.18-33.15c0.34-5.09,0.96-10.45-0.63-15.38
							c-1.44-4.46-4.79-7.72-9.05-9.84c-5.17-2.57-11.15-3.15-16.9-3.67c-1.53-0.14-3.32,0.15-4.66,0.95
							c-0.32,0.19-0.9,0.54-0.81,0.97C102.91,60.01,103.61,60.15,103.94,60.18L103.94,60.18z"/>
					</g>
				</g>
				<g class="st2">
					<g>
						<path class="st3" d="M105.14,84.98c2.66-2.91,5.31-5.81,7.97-8.72c0.93-1.02-0.66-1.28-1.49-1.26
							c-0.86,0.02-1.74,0.14-2.56,0.41c-0.61,0.2-1.43,0.43-1.87,0.9c-2.66,2.91-5.31,5.81-7.97,8.72
							c-0.93,1.02,0.66,1.28,1.49,1.26c0.86-0.02,1.74-0.14,2.56-0.41C103.89,85.68,104.71,85.45,105.14,84.98L105.14,84.98z"/>
					</g>
				</g>
				<g class="st2">
					<g>
						<path class="st3" d="M108.94,86.89c1.18-1.45,2.36-2.9,3.54-4.35c0.3-0.36-0.26-0.69-0.5-0.78c-0.59-0.22-1.46-0.18-2.07-0.1
							c-1.34,0.17-3.02,0.5-3.9,1.59c-1.18,1.45-2.36,2.9-3.54,4.35c-0.3,0.36,0.26,0.69,0.5,0.78c0.59,0.22,1.46,0.18,2.07,0.1
							C106.38,88.31,108.05,87.97,108.94,86.89L108.94,86.89z"/>
					</g>
				</g>
				<g class="st2">
					<g>
						<path class="st3" d="M75.47,116.13c4.61-2.55,9.22-5.11,13.84-7.66c0.28-0.15,0.89-0.56,0.81-0.97
							c-0.08-0.41-0.81-0.54-1.12-0.58c-1.53-0.17-3.31,0.2-4.66,0.95c-4.61,2.55-9.22,5.11-13.84,7.66
							c-0.28,0.15-0.89,0.56-0.81,0.97c0.08,0.41,0.81,0.54,1.12,0.58C72.33,117.24,74.12,116.87,75.47,116.13L75.47,116.13z"/>
					</g>
				</g>
				<g class="st2">
					<g>
						<path class="st3" d="M54.31,84.56c1.67-2.03,3.35-4.06,5.02-6.1c0.3-0.36-0.26-0.69-0.5-0.78c-0.59-0.22-1.46-0.18-2.07-0.1
							c-1.35,0.17-3.01,0.51-3.9,1.59c-1.67,2.03-3.35,4.06-5.02,6.1c-0.3,0.36,0.26,0.69,0.5,0.78c0.59,0.22,1.46,0.18,2.07,0.1
							C51.76,85.99,53.42,85.65,54.31,84.56L54.31,84.56z"/>
					</g>
				</g>
				<g class="st2">
					<g>
						<path class="st3" d="M55.48,90.32c1.67-1.84,3.34-3.68,5.02-5.52c0.92-1.02-0.66-1.28-1.49-1.26
							c-0.86,0.02-1.74,0.14-2.56,0.41c-0.61,0.2-1.43,0.42-1.87,0.9c-1.67,1.84-3.34,3.68-5.02,5.52
							c-0.92,1.02,0.66,1.28,1.49,1.26c0.86-0.02,1.74-0.14,2.56-0.41C54.22,91.03,55.05,90.8,55.48,90.32L55.48,90.32z"/>
					</g>
				</g>
				<g class="st2">
					<g>
						<path class="st3" d="M74.94,115.65c3.85-2.52,7.69-5.03,11.54-7.55c0.27-0.18,0.89-0.55,0.81-0.97
							c-0.08-0.41-0.81-0.54-1.12-0.58c-1.43-0.16-3.43,0.14-4.66,0.95c-3.85,2.52-7.69,5.03-11.54,7.55
							c-0.27,0.18-0.89,0.55-0.81,0.97c0.08,0.41,0.81,0.54,1.12,0.58C71.71,116.76,73.7,116.46,74.94,115.65L74.94,115.65z"/>
					</g>
				</g>
				<g class="st2">
					<g>
						<path class="st3" d="M80.88,119.41c3.63-2.55,7.25-5.1,10.88-7.64c0.32-0.23,0.45-0.63,0.16-0.91
							c-0.34-0.33-1.23-0.36-1.65-0.35c-1.56,0.03-3.16,0.42-4.43,1.31c-3.63,2.55-7.25,5.1-10.88,7.64
							c-0.32,0.23-0.45,0.63-0.16,0.91c0.34,0.33,1.23,0.36,1.65,0.35C78,120.69,79.61,120.3,80.88,119.41L80.88,119.41z"/>
					</g>
				</g>
			</g>
		</g>
	</g>
	<ellipse class="st4" cx="55.05" cy="78.18" rx="1.9" ry="3.17"/>
	<ellipse class="st4" cx="109.88" cy="76.62" rx="1.9" ry="3.17"/>
	<path class="st5" d="M55.05,76.13c0-0.27,0.21-0.48,0.43-0.48s0.32,0.22,0.32,0.48s-0.11,0.48-0.32,0.48S55.05,76.4,55.05,76.13z"
		/>
	<path class="st5" d="M109.88,75.01c0-0.27,0.21-0.48,0.43-0.48s0.32,0.22,0.32,0.48s-0.11,0.48-0.32,0.48
		S109.88,75.28,109.88,75.01z"/>
	<ellipse class="st6" cx="44.48" cy="97.76" rx="7.25" ry="6"/>
	<ellipse class="st7" cx="115.23" cy="96.28" rx="7.25" ry="6"/>
</g>
<g id="Ebene_9_6_">
</g>
<g id="Ebene_3">
	<g>
		<g id="Ebene_2_Kopie_5_">
			<g>
				<path class="st16" d="M127.68,62.77c3.56,2.67,14.35,10.85,16.57,10.01c3.61-1.36,26.06-27.65,25.49-30.71
					c-1.2-6.41-44.47-41.22-51.6-39.61c-6.42,1.45-19.86,31.3-19.57,33.86c0.43,3.87,8.74,7.85,11.27,11.63
					c1.13,1.68,2.16,14.89,3.95,15.99c1.02,0.63,9.77,0.24,13.77-1.26"/>
				<g>
					<path class="st17" d="M127.49,63.04c3.49,2.62,6.99,5.25,10.7,7.56c0.89,0.55,1.8,1.09,2.74,1.57c0.69,0.35,1.41,0.7,2.18,0.89
						c0.47,0.12,0.95,0.18,1.41-0.04c0.35-0.17,0.67-0.41,0.98-0.64c1.02-0.78,1.94-1.68,2.86-2.58c1.31-1.29,2.57-2.62,3.82-3.97
						c3-3.26,5.9-6.61,8.7-10.04c2.47-3.02,4.91-6.09,7.08-9.34c0.67-1.01,1.35-2.04,1.83-3.16c0.14-0.32,0.27-0.66,0.29-1.01
						c0.02-0.3-0.08-0.6-0.19-0.87c-0.32-0.78-0.83-1.49-1.34-2.15c-0.75-0.98-1.57-1.91-2.41-2.81c-2.35-2.52-4.87-4.86-7.43-7.16
						c-3.13-2.81-6.35-5.52-9.63-8.15c-3.4-2.74-6.86-5.4-10.4-7.96c-3.16-2.29-6.37-4.51-9.7-6.55c-2.41-1.48-4.9-2.95-7.57-3.94
						c-0.81-0.3-1.68-0.58-2.56-0.62c-0.92-0.04-1.74,0.37-2.48,0.92c-1.19,0.87-2.18,2.04-3.1,3.2c-1.22,1.54-2.31,3.19-3.35,4.86
						c-2.4,3.86-4.51,7.89-6.48,11.98c-1.61,3.34-3.16,6.73-4.41,10.22c-0.32,0.89-0.69,1.83-0.8,2.77
						c-0.07,0.6,0.17,1.23,0.44,1.74c0.49,0.95,1.23,1.76,1.99,2.49c1.89,1.82,4.07,3.31,6.08,5c0.89,0.75,1.77,1.53,2.49,2.45
						c0.25,0.31,0.34,0.42,0.47,0.76c0.1,0.26,0.17,0.52,0.24,0.79c0.49,1.9,0.76,3.87,1.08,5.82c0.36,2.14,0.7,4.3,1.25,6.39
						c0.19,0.71,0.39,1.45,0.74,2.1c0.27,0.49,0.58,0.76,1.13,0.87c0.82,0.16,1.69,0.15,2.52,0.15c1.25-0.01,2.51-0.08,3.76-0.2
						c2.41-0.22,4.92-0.53,7.23-1.38c0.4-0.15,0.13-0.74-0.26-0.59c-1.12,0.41-2.29,0.66-3.45,0.86c-1.31,0.23-2.64,0.39-3.96,0.5
						c-1.2,0.1-2.4,0.16-3.59,0.15c-0.74,0-1.62,0.02-2.28-0.18c-0.04-0.01-0.08-0.03-0.12-0.04c-0.11-0.04,0.01,0.02-0.05-0.03
						c-0.03-0.02-0.06-0.04-0.09-0.07c0.07,0.06-0.06-0.07-0.08-0.09c-0.15-0.19-0.25-0.39-0.36-0.65
						c-0.31-0.73-0.51-1.51-0.69-2.28c-0.5-2.14-0.84-4.32-1.21-6.5c-0.3-1.8-0.54-3.65-1.06-5.4c-0.2-0.67-0.53-1.18-0.99-1.71
						c-0.76-0.89-1.65-1.67-2.55-2.41c-1.99-1.65-4.15-3.11-5.98-4.94c-0.71-0.71-1.42-1.49-1.82-2.43
						c-0.08-0.18-0.15-0.36-0.19-0.56c-0.02-0.11-0.04-0.21-0.06-0.32c0-0.02-0.01-0.18-0.01-0.04c0-0.12,0.01-0.24,0.03-0.36
						c0.06-0.35,0.16-0.72,0.29-1.14c0.18-0.57,0.38-1.14,0.58-1.7c0.57-1.56,1.21-3.09,1.88-4.62c1.73-3.98,3.63-7.89,5.71-11.71
						c1.95-3.59,4.03-7.2,6.6-10.4c0.87-1.09,1.82-2.17,2.97-2.97c0.35-0.24,0.84-0.5,1.22-0.59c0.07-0.02,0.13-0.03,0.2-0.04
						c0.03,0,0.06-0.01,0.09-0.01c0.11-0.01-0.04,0,0.07,0c0.16,0,0.32,0,0.48,0.02c0.44,0.04,0.68,0.1,1.1,0.22
						c0.49,0.13,0.96,0.3,1.43,0.49c1.16,0.46,2.28,1.01,3.38,1.6c3.04,1.63,5.94,3.51,8.79,5.45c3.45,2.35,6.81,4.82,10.12,7.36
						c3.4,2.61,6.74,5.31,10.02,8.08c2.91,2.47,5.77,4.99,8.52,7.64c1.98,1.91,3.97,3.87,5.64,6.07c0.28,0.37,0.56,0.75,0.81,1.15
						c0.05,0.07,0.05,0.07,0.11,0.19c0.05,0.08,0.09,0.17,0.14,0.25c0.08,0.14,0.15,0.29,0.21,0.44c0.03,0.06,0.05,0.13,0.07,0.19
						c0.01,0.03,0.02,0.07,0.03,0.1c-0.03-0.11,0,0.01,0.01,0.03c0.01,0.05,0.02,0.1,0.03,0.16c0.01,0.09,0.01-0.07,0,0.01
						c0,0.03,0,0.06-0.01,0.09c0,0.04-0.04,0.23-0.02,0.12c-0.02,0.08-0.04,0.16-0.07,0.24c-0.06,0.19-0.14,0.38-0.22,0.56
						c-0.47,1.03-1.16,2.08-1.83,3.07c-0.99,1.48-2.05,2.91-3.13,4.32c-2.63,3.44-5.39,6.79-8.23,10.06
						c-2.57,2.96-5.19,5.89-7.98,8.64c-0.9,0.89-1.83,1.79-2.83,2.56c-0.34,0.26-0.51,0.4-0.86,0.57c-0.15,0.07-0.23,0.09-0.37,0.08
						c-0.28-0.01-0.48-0.05-0.74-0.13c-0.77-0.23-1.5-0.59-2.21-0.96c-0.93-0.5-1.84-1.04-2.74-1.61c-2.03-1.28-4.01-2.67-5.95-4.08
						c-1.47-1.06-2.92-2.15-4.37-3.24C127.54,62.24,127.16,62.79,127.49,63.04L127.49,63.04z"/>
				</g>
			</g>
		</g>
		<g id="Ebene_7_4_">
			<g class="st2">
				<g>
					<path class="st3" d="M154.87,33.82c0.99,0.98,2.06,1.86,3.11,2.76c0.29,0.25,0.58,0.5,0.86,0.76c0.14,0.12,0.28,0.25,0.42,0.37
						c0.07,0.06,0.14,0.13,0.21,0.19c0.23,0.21-0.19-0.18,0.04,0.04c0.53,0.5,1.05,1.01,1.54,1.56c0.23,0.25,0.45,0.51,0.65,0.78
						c0.09,0.12,0.18,0.25,0.27,0.37c0.04,0.06,0.08,0.12,0.12,0.18c0.17,0.25-0.11-0.2-0.01-0.03c0.13,0.24,0.26,0.47,0.35,0.73
						c0.02,0.05,0.03,0.12,0.06,0.17c-0.04-0.07-0.08-0.33-0.04-0.13c0.02,0.12,0.02,0.26,0.06,0.37c-0.02-0.06,0.01-0.36-0.01-0.16
						c0,0.05-0.01,0.1-0.01,0.16c-0.02,0.3,0.1-0.26,0.02-0.08c-0.04,0.09-0.19,0.41-0.04,0.12c0.15-0.29,0.03-0.06-0.01,0.01
						c-0.04,0.06-0.08,0.13-0.11,0.19c-0.09,0.15-0.18,0.29-0.28,0.43c-1.32,1.94-2.86,3.74-4.36,5.53
						c-2.12,2.54-4.29,5.05-6.46,7.56c-2.05,2.37-4.11,4.73-6.15,7.11c-0.21,0.25-0.42,0.49-0.63,0.74
						c-0.45,0.53-0.25,1.48,0.29,1.83c0.64,0.4,1.33,0.21,1.82-0.36c2-2.35,4.04-4.68,6.06-7.01c2.23-2.57,4.46-5.14,6.65-7.75
						c1.62-1.92,3.27-3.85,4.71-5.91c0.37-0.53,0.82-1.13,0.99-1.76c0.38-1.47-0.33-2.83-1.16-3.94c-0.93-1.25-2.11-2.32-3.27-3.36
						c-1.07-0.96-2.19-1.87-3.26-2.84c-0.05-0.05-0.11-0.1-0.16-0.14c-0.16-0.15,0.25,0.23,0.06,0.06c-0.1-0.09-0.2-0.19-0.29-0.28
						c-0.48-0.47-1.27-0.66-1.83-0.14C154.58,32.41,154.35,33.31,154.87,33.82L154.87,33.82z"/>
				</g>
			</g>
			<g class="st2">
				<g>
					<path class="st3" d="M140.78,67.03c-0.13,0.26-0.26,0.53-0.39,0.79c0.8-0.05,1.61-0.1,2.41-0.16
						c-0.15-0.36-0.29-0.73-0.43-1.09c-0.33,0.62-0.66,1.24-0.98,1.87c-0.19,0.02-0.36,0.02-0.54-0.07
						c-0.08-0.02-0.14-0.07-0.19-0.13c-0.09-0.1-0.11-0.11-0.05-0.03c-0.09-0.13-0.14-0.24-0.17-0.4c0.01,0.09,0.01,0.08,0-0.05
						c-0.02-0.11,0-0.22,0.04-0.33c0.45-0.3,0.9-0.6,1.35-0.9c0.02,0,0.31,0.1,0.16,0.03c0.15,0.06,0.26,0.14,0.38,0.26
						c-0.11-0.12,0.07,0.12,0.08,0.14c-0.08-0.14,0.04,0.12,0.04,0.15c0.02,0.15-0.01,0.3-0.05,0.44c0.07-0.23-0.29,0.39-0.28,0.37
						c0.12-0.12-0.11,0.07-0.13,0.09c-0.07,0.02-0.13,0.05-0.2,0.07c-0.22,0-0.28,0.01-0.18,0.01c0.15,0.02-0.29-0.07-0.15-0.03
						c0.06,0.02,0.04,0.01-0.07-0.04c-0.07-0.02-0.14-0.06-0.19-0.12c-0.22-0.2-0.32-0.49-0.25-0.79c0.07-0.28-0.08,0.11,0.06-0.16
						c0.14-0.27-0.1,0.08,0.1-0.15c0.04-0.07,0.1-0.12,0.17-0.15c0.11-0.06,0.13-0.08,0.07-0.05c-0.11,0.05,0.33-0.07,0.12-0.06
						c0.5,0.46,1,0.92,1.5,1.38c0.01-0.13,0.01-0.26,0.02-0.39c0.03-0.69-0.44-1.38-1.17-1.4c-0.68-0.01-1.39,0.5-1.42,1.23
						c-0.01,0.13-0.01,0.26-0.02,0.39c-0.02,0.42,0.1,0.78,0.41,1.06c0.32,0.3,0.67,0.35,1.1,0.32c0.87-0.07,1.59-0.97,1.63-1.81
						c0.05-1-0.72-1.86-1.72-1.86c-0.96,0-1.91,0.73-1.93,1.76c-0.02,1,0.67,1.87,1.68,1.93c0.57,0.04,1.14-0.35,1.35-0.9
						c0.22-0.6,0.12-1.3-0.28-1.77c-0.43-0.52-1.01-0.7-1.67-0.63c-0.87,0.09-1.27,1.15-0.98,1.87c0.15,0.36,0.29,0.73,0.43,1.09
						c0.19,0.48,0.73,0.76,1.23,0.73c0.56-0.04,0.93-0.39,1.18-0.89c0.13-0.26,0.26-0.53,0.39-0.79c0.14-0.28,0.09-0.73-0.03-0.99
						c-0.13-0.3-0.42-0.59-0.74-0.68c-0.32-0.09-0.68-0.1-0.98,0.06C141.14,66.43,140.95,66.69,140.78,67.03L140.78,67.03z"/>
				</g>
			</g>
		</g>
		<g id="Ebene_2_6_">
			<g>
				<g>
					<path d="M124.11,64.27c3.49,2.63,7,5.26,10.71,7.57c0.89,0.56,1.8,1.09,2.74,1.57c0.75,0.38,1.51,0.77,2.33,0.98
						c0.63,0.16,1.27,0.23,1.89-0.06c0.4-0.19,0.77-0.46,1.12-0.72c1.02-0.78,1.95-1.68,2.86-2.58c1.31-1.29,2.58-2.63,3.83-3.98
						c3.03-3.29,5.96-6.68,8.79-10.15c2.46-3.02,4.91-6.08,7.06-9.33c0.69-1.04,1.38-2.11,1.86-3.26c0.15-0.37,0.29-0.77,0.31-1.16
						c0.02-0.42-0.11-0.82-0.26-1.2c-0.35-0.84-0.91-1.6-1.45-2.31c-0.76-0.99-1.59-1.92-2.44-2.82c-2.39-2.55-4.95-4.93-7.55-7.25
						c-3.13-2.8-6.35-5.51-9.62-8.14c-3.4-2.73-6.85-5.39-10.38-7.95c-3.15-2.28-6.35-4.49-9.66-6.53
						c-2.47-1.52-5.02-3.03-7.74-4.05c-0.87-0.33-1.8-0.62-2.73-0.67c-1.08-0.05-2.03,0.39-2.91,1.03c-1.24,0.89-2.27,2.11-3.21,3.3
						c-1.22,1.54-2.31,3.18-3.34,4.85c-2.42,3.89-4.54,7.97-6.52,12.09c-1.61,3.35-3.16,6.76-4.41,10.26
						c-0.33,0.93-0.71,1.92-0.81,2.9c-0.08,0.72,0.18,1.47,0.51,2.09c0.54,1.02,1.3,1.88,2.12,2.66c1.95,1.86,4.16,3.39,6.22,5.12
						c0.23,0.19,0.45,0.38,0.67,0.58c0.06,0.05,0.12,0.1,0.18,0.16c0.03,0.03,0.23,0.21,0.04,0.03c0.11,0.1,0.22,0.21,0.33,0.31
						c0.4,0.39,0.79,0.8,1.13,1.25c0.07,0.08,0.13,0.17,0.19,0.26c0.04,0.05,0.07,0.11,0.11,0.15c0.08,0.09-0.13-0.26-0.09-0.14
						c0.04,0.1,0.1,0.19,0.14,0.29c0.05,0.12,0.08,0.24,0.12,0.35c0.09,0.27-0.05-0.2,0.01,0.03c0.03,0.1,0.05,0.2,0.08,0.29
						c0.49,1.89,0.76,3.86,1.09,5.79c0.36,2.14,0.71,4.3,1.27,6.39c0.21,0.76,0.42,1.55,0.8,2.24c0.18,0.32,0.38,0.63,0.68,0.86
						c0.3,0.22,0.64,0.3,1,0.36c0.84,0.15,1.71,0.15,2.56,0.15c1.3-0.01,2.6-0.08,3.89-0.2c2.46-0.22,4.98-0.54,7.33-1.4
						c0.5-0.18,0.7-0.87,0.5-1.32c-0.23-0.52-0.79-0.64-1.29-0.46c-0.07,0.02-0.47,0.16-0.2,0.07c-0.12,0.04-0.24,0.08-0.36,0.11
						c-0.28,0.08-0.57,0.16-0.86,0.23c-0.62,0.15-1.24,0.27-1.86,0.38c-1.31,0.22-2.64,0.38-3.96,0.48
						c-0.14,0.01-0.28,0.02-0.43,0.03c-0.03,0-0.31,0.02-0.09,0.01c-0.08,0.01-0.17,0.01-0.25,0.02c-0.32,0.02-0.65,0.04-0.97,0.05
						c-0.56,0.02-1.13,0.03-1.69,0.03c-0.46,0-0.91-0.02-1.37-0.05c-0.17-0.01-0.34-0.03-0.51-0.05c-0.07-0.01-0.16-0.04-0.23-0.04
						c0.26-0.02,0.17,0.04,0.02,0c-0.05-0.01-0.1-0.04-0.15-0.05c-0.18-0.04,0.15,0.09,0.12,0.06c-0.02-0.02-0.08-0.07-0.11-0.08
						c0.23,0.09,0.17,0.18,0.07,0.05c-0.03-0.05-0.07-0.09-0.1-0.14c-0.13-0.16,0.13,0.23,0.03,0.05c-0.07-0.13-0.14-0.27-0.2-0.4
						c-0.14-0.33-0.26-0.67-0.36-1.01c-0.02-0.06-0.09-0.24,0.01,0.03c-0.02-0.05-0.03-0.11-0.05-0.16c-0.03-0.1-0.06-0.2-0.08-0.3
						c-0.06-0.23-0.12-0.47-0.18-0.7c-0.51-2.13-0.86-4.31-1.22-6.47c-0.32-1.86-0.58-3.77-1.13-5.57c-0.21-0.7-0.57-1.25-1.03-1.81
						c-0.81-0.96-1.77-1.79-2.73-2.58c-1.01-0.84-2.05-1.63-3.08-2.44c-0.51-0.4-1.01-0.81-1.51-1.23
						c-0.23-0.19-0.45-0.39-0.67-0.59c-0.06-0.05-0.12-0.11-0.18-0.16c-0.19-0.17,0.1,0.1-0.01-0.01c-0.12-0.12-0.24-0.23-0.36-0.35
						c-0.39-0.39-0.77-0.79-1.11-1.23c-0.15-0.19-0.28-0.39-0.42-0.59c-0.13-0.18,0.1,0.2,0,0c-0.03-0.05-0.06-0.11-0.09-0.16
						c-0.06-0.1-0.11-0.21-0.16-0.32c-0.05-0.1-0.09-0.21-0.13-0.32c-0.01-0.03-0.02-0.07-0.04-0.11c-0.07-0.19,0.04,0.22,0.01,0.03
						c-0.03-0.14-0.03-0.33-0.08-0.47c0.09,0.26-0.01,0.29,0.01,0.16c0-0.02,0-0.05,0-0.07c0-0.07,0.02-0.14,0.03-0.21
						c0.01-0.08,0.03-0.15,0.04-0.23c0.04-0.23-0.04,0.17-0.02,0.09c0.01-0.05,0.02-0.1,0.04-0.15c0.06-0.22,0.12-0.45,0.19-0.67
						c0.18-0.58,0.37-1.15,0.58-1.71c0.57-1.55,1.2-3.08,1.86-4.6c0.82-1.9,1.69-3.78,2.59-5.64c0.5-1.03,1-2.05,1.52-3.07
						c0.12-0.24,0.25-0.48,0.37-0.72c0.03-0.06,0.22-0.42,0.08-0.16c0.08-0.15,0.16-0.31,0.24-0.46c0.26-0.5,0.53-1,0.8-1.5
						c1.94-3.59,4.01-7.19,6.58-10.38c0.26-0.32,0.52-0.64,0.8-0.95c0.06-0.07,0.28-0.28,0.02-0.02c0.07-0.07,0.13-0.14,0.2-0.22
						c0.13-0.14,0.26-0.27,0.39-0.41c0.45-0.45,0.92-0.86,1.44-1.22c0.03-0.02,0.06-0.04,0.09-0.06c0.01-0.01-0.24,0.15-0.13,0.08
						c0.06-0.03,0.12-0.07,0.18-0.11c0.11-0.07,0.23-0.13,0.34-0.18c0.1-0.05,0.2-0.09,0.31-0.13c0.18-0.08-0.28,0.08-0.05,0.02
						c0.05-0.01,0.11-0.03,0.16-0.04c0.06-0.01,0.13-0.02,0.19-0.03c0.04-0.01,0.07-0.01,0.11-0.01c0.04-0.01-0.32,0.01-0.11,0.01
						c0.16,0,0.32,0,0.49,0.02c0.09,0.01,0.17,0.02,0.26,0.03c0.05,0.01,0.1,0.02,0.15,0.02c0.24,0.04-0.14-0.03-0.07-0.02
						c0.21,0.05,0.41,0.09,0.61,0.15c0.49,0.14,0.96,0.31,1.43,0.5c0.55,0.22,1.09,0.46,1.62,0.71c0.14,0.07,0.28,0.13,0.42,0.2
						c0.06,0.03,0.13,0.06,0.19,0.1c0.04,0.02,0.08,0.04,0.12,0.06c0.22,0.11-0.18-0.1-0.03-0.02c0.31,0.16,0.62,0.32,0.93,0.49
						c3.03,1.63,5.93,3.52,8.78,5.46c3.42,2.34,6.76,4.79,10.05,7.31c3.41,2.62,6.76,5.31,10.04,8.09c1.53,1.29,3.04,2.61,4.53,3.94
						c0.71,0.64,1.42,1.27,2.12,1.93c-0.19-0.18-0.02-0.01,0.07,0.06c0.09,0.08,0.17,0.16,0.26,0.24c0.17,0.16,0.34,0.32,0.51,0.47
						c0.31,0.3,0.63,0.59,0.94,0.89c1.99,1.91,3.98,3.88,5.66,6.07c0.29,0.37,0.56,0.75,0.81,1.14c0.02,0.04,0.05,0.08,0.07,0.11
						c-0.22-0.32-0.09-0.14-0.04-0.06c0.05,0.08,0.1,0.17,0.14,0.25c0.08,0.14,0.15,0.29,0.22,0.45c0.03,0.06,0.05,0.13,0.08,0.19
						c0.01,0.03,0.02,0.06,0.03,0.09c0.06,0.16-0.07-0.3-0.03-0.12c0.01,0.05,0.02,0.11,0.04,0.16c0.05,0.19,0.04-0.32,0-0.07
						c-0.01,0.06-0.02,0.12-0.03,0.18c0.02-0.31,0.04-0.17-0.01,0c-0.06,0.18-0.13,0.36-0.2,0.53c-0.04,0.1-0.09,0.19-0.14,0.29
						c-0.03,0.06-0.06,0.11-0.08,0.17c-0.12,0.24,0.12-0.22,0.02-0.03c-0.13,0.25-0.27,0.49-0.41,0.74
						c-0.35,0.6-0.73,1.19-1.12,1.77c-0.98,1.46-2.02,2.87-3.09,4.27c-2.63,3.45-5.4,6.8-8.24,10.07c-0.71,0.82-1.43,1.64-2.15,2.44
						c-0.35,0.39-0.7,0.78-1.05,1.17c-0.04,0.04-0.2,0.22,0,0c-0.04,0.04-0.07,0.08-0.11,0.12c-0.08,0.09-0.16,0.18-0.25,0.27
						c-0.18,0.19-0.36,0.39-0.53,0.58c-1.22,1.32-2.46,2.63-3.74,3.89c-0.91,0.89-1.83,1.78-2.84,2.56
						c-0.16,0.13-0.34,0.24-0.5,0.36c0.33-0.25,0.09-0.06-0.01,0c-0.07,0.04-0.13,0.07-0.2,0.1c-0.03,0.01-0.06,0.02-0.08,0.04
						c-0.13,0.07,0.28-0.05,0.12-0.04c-0.04,0-0.11,0.01-0.15,0.02c-0.08,0.02-0.15-0.12,0.17-0.01c-0.03-0.01-0.08,0-0.11,0
						c-0.12-0.01-0.23-0.03-0.35-0.04c-0.16-0.02,0.26,0.07,0.11,0.02c-0.04-0.01-0.07-0.02-0.11-0.03
						c-0.08-0.02-0.15-0.04-0.23-0.06c-0.35-0.1-0.68-0.24-1.01-0.38c-0.18-0.08-0.37-0.17-0.55-0.25c-0.07-0.03-0.44-0.2-0.14-0.07
						c-0.11-0.05-0.22-0.11-0.32-0.17c-0.95-0.5-1.86-1.06-2.77-1.63c-2.02-1.28-3.99-2.66-5.93-4.07
						c-1.47-1.07-2.93-2.16-4.38-3.25c-0.42-0.31-1.06-0.16-1.36,0.27C123.57,63.35,123.69,63.95,124.11,64.27L124.11,64.27z"/>
				</g>
			</g>
		</g>
		<g id="Ebene_10_3_">
			<g>
				<g>
					<path class="st3" d="M128.05,19.15c0.88,5.53,1.66,11.08,2.36,16.65c0.69,5.47,1.31,10.96,1.89,16.45
						c0.32,3.05,0.63,6.1,0.94,9.16c0.12,1.2,1.45,2.1,2.61,1.82c1.27-0.31,2.01-1.43,1.89-2.71c-0.54-5.44-1.11-10.89-1.72-16.32
						c-0.62-5.52-1.3-11.04-2.07-16.54c-0.44-3.14-0.9-6.27-1.4-9.39c-0.19-1.19-1.4-2.11-2.61-1.82
						C128.73,16.74,127.85,17.89,128.05,19.15L128.05,19.15z"/>
				</g>
			</g>
			<g>
				<g>
					<path class="st3" d="M111.91,45.85c6.06-1.2,12.1-2.47,18.13-3.84c4.46-1.02,8.91-2.08,13.38-3.06
						c2.96-0.65,5.93-1.27,8.9-1.85c1.18-0.23,2.13-1.5,1.89-2.71c-0.25-1.21-1.35-2.07-2.61-1.82c-4.94,0.98-9.87,2.05-14.78,3.18
						c-4.77,1.1-9.53,2.22-14.31,3.25c-3.76,0.81-7.53,1.58-11.31,2.33c-1.18,0.23-2.13,1.5-1.89,2.71
						C109.55,45.25,110.65,46.1,111.91,45.85L111.91,45.85z"/>
				</g>
			</g>
		</g>
		<g id="Ebene_9_4_">
			<g class="st12">
				<path d="M117.4,2.74c-10.71,15.37-6.9,45.01-2.13,62.1c-1.66-0.58-1.99-3.83-3.29-8.49c-1.84-6.58-0.32-6.17-2.03-8.85
					c-1.42-2.22-4.02-3.7-6.12-5.27c-1.94-1.45-4.16-3.54-4.71-5.46c-0.72-2.54,8.39-21.98,16.18-32.41"/>
				<g>
					<path d="M116.87,2.37c-2.22,3.19-3.74,6.83-4.78,10.55c-1.15,4.12-1.77,8.37-2.04,12.61c-0.29,4.5-0.22,9.01,0.1,13.48
						c0.31,4.41,0.86,8.8,1.62,13.14c0.67,3.89,1.51,7.76,2.52,11.56c0.11,0.42,0.23,0.84,0.34,1.26c0.29-0.25,0.58-0.5,0.87-0.75
						c-0.04-0.02-0.09-0.03-0.13-0.05c0.16,0.07,0.02,0.01-0.01-0.01c-0.07-0.04-0.13-0.09-0.19-0.14
						c-0.14-0.11,0.03,0.06-0.09-0.09c-0.07-0.08-0.14-0.16-0.2-0.25c-0.03-0.05-0.06-0.09-0.09-0.14c0.07,0.11,0,0-0.02-0.03
						c-0.05-0.1-0.11-0.2-0.16-0.3c-0.11-0.23-0.2-0.46-0.29-0.7c-0.46-1.27-0.74-2.61-1.07-3.92c-0.64-2.57-1.46-5.09-1.65-7.77
						c-0.04-0.53-0.04-1.08-0.16-1.6c-0.14-0.65-0.43-1.24-0.77-1.8c-1.68-2.77-4.61-4.24-7.07-6.2c-1.12-0.89-2.19-1.88-3.03-3.05
						c-0.35-0.48-0.63-1-0.82-1.57c-0.03-0.08,0.01,0.1-0.01-0.04c0-0.03-0.01-0.06-0.01-0.09c-0.02-0.1,0.04-0.12,0,0.04
						c0.01-0.04,0-0.1,0-0.14c0.01-0.22,0.04-0.43,0.08-0.64c0.01-0.07,0.03-0.14,0.04-0.21c0.01-0.05,0.06-0.26,0.01-0.05
						c0.04-0.15,0.07-0.29,0.11-0.44c0.19-0.72,0.43-1.44,0.68-2.14c1.56-4.36,3.62-8.57,5.76-12.68c2.51-4.82,5.23-9.58,8.37-14.02
						c0.34-0.48,0.69-0.96,1.05-1.44c0.51-0.69-0.54-1.42-1.05-0.74c-3.25,4.36-6.02,9.09-8.58,13.87c-2.35,4.4-4.59,8.9-6.38,13.55
						c-0.54,1.4-1.08,2.84-1.32,4.32c-0.08,0.51-0.08,0.98,0.08,1.47c0.43,1.31,1.38,2.43,2.33,3.37c1.1,1.11,2.33,2.06,3.6,2.96
						c1.31,0.92,2.67,1.81,3.79,2.97c0.28,0.28,0.54,0.58,0.78,0.9c0.11,0.14,0.21,0.29,0.31,0.44c0.04,0.06,0.08,0.13,0.12,0.19
						c0.07,0.11-0.04-0.07,0.04,0.07c0.17,0.29,0.34,0.59,0.46,0.91c0.02,0.06,0.04,0.12,0.07,0.18c0.03,0.08,0.06,0.2,0.02,0.04
						c0.03,0.13,0.07,0.26,0.09,0.4c0.04,0.25,0.06,0.51,0.08,0.77c0.05,0.78,0.11,1.56,0.23,2.34c0.23,1.48,0.63,2.92,1.01,4.36
						c0.42,1.55,0.76,3.12,1.2,4.67c0.29,1.02,0.6,2.13,1.28,2.95c0.29,0.34,0.64,0.6,1.06,0.76c0.42,0.16,1-0.27,0.87-0.75
						c-1.03-3.68-1.88-7.43-2.57-11.2c-0.79-4.25-1.38-8.54-1.76-12.86c-0.38-4.4-0.53-8.83-0.34-13.27
						c0.18-4.2,0.66-8.43,1.67-12.55c0.91-3.7,2.24-7.36,4.26-10.59c0.24-0.39,0.49-0.76,0.75-1.14
						C118.42,2.4,117.36,1.66,116.87,2.37L116.87,2.37z"/>
				</g>
			</g>
		</g>
	</g>
</g>
<g id="Ebene_5_6_">
</g>
</svg>
