<?xml version="1.0" encoding="utf-8"?>
<!-- Generator: Adobe Adobe Illustrator 24.2.0, SVG Export Plug-In . SVG Version: 6.00 Build 0)  -->
<svg version="1.1" xmlns="http://www.w3.org/2000/svg" xmlns:xlink="http://www.w3.org/1999/xlink" x="0px" y="0px"
	 viewBox="0 0 170.08 170.08" style="enable-background:new 0 0 170.08 170.08;" xml:space="preserve">
<style type="text/css">
	.st0{fill:#D2E0EC;}
	.st1{fill:#D2E1EC;}
	.st2{opacity:0.149;}
	.st3{fill:#FFFFFF;}
	.st4{stroke:#000000;stroke-miterlimit:10;}
	.st5{fill:#FFFFFF;stroke:#FFFFFF;stroke-width:0.4071;stroke-miterlimit:10;}
	.st6{opacity:0.7804;fill:#DB9886;stroke:#DB9886;stroke-width:0.3912;stroke-miterlimit:10;}
	.st7{opacity:0.6902;fill:#DB9886;stroke:#DB9886;stroke-width:0.3912;stroke-miterlimit:10;}
	.st8{fill:#ECC9AD;}
	.st9{opacity:0.1608;}
	.st10{opacity:0.1686;}
	.st11{fill:#F0F6FA;}
	.st12{opacity:0.0314;}
	.st13{stroke:#000000;stroke-width:0.0661;stroke-miterlimit:10;}
	.st14{fill:#D15238;}
	.st15{fill:#D15239;}
	.st16{fill:#C8354F;}
	.st17{fill:#C93550;}
	.st18{fill:#6DB671;}
	.st19{fill:#6CB671;}
	.st20{fill:#D1DFEA;}
	.st21{fill:#D3E1ED;}
	.st22{fill:#C8354E;}
	.st23{fill:#F3C058;}
	.st24{fill:#C8AE9D;}
	.st25{opacity:0.0784;}
	.st26{opacity:0.1412;}
</style>
<g id="Ebene_4_5_">
</g>
<g id="Ebene_8_7_">
	<g>
		<g id="Ebene_5_8_">
			<g>
				<g>
					<path class="st0" d="M80.07,35.99c-31.77,0.48-64.7-3.19-68.53,49.61c-1.1,15.11-2.07,50.63,5.45,56.98
						c3.31,2.79,8.14,2.91,12.55,2.89c32.42-0.14,64.83-0.28,97.25-0.42c6.46-0.03,17.76,0.48,22.61-13.44
						c3.24-9.28,3.47-37.97,1.87-52.29c-4.74-42.27-35.4-45.62-71.57-43.34"/>
					<g>
						<path d="M80.24,35.06c-6.09,0.09-12.19,0.03-18.28,0.25c-5.75,0.21-11.54,0.66-17.17,1.91c-5.32,1.18-10.48,3.11-14.98,6.16
							c-4.92,3.33-8.76,7.89-11.51,12.97c-3.71,6.86-5.6,14.5-6.65,22.07c-0.96,6.97-1.24,14.03-1.42,21.04
							c-0.19,7.43-0.16,14.88,0.39,22.28c0.25,3.39,0.61,6.78,1.21,10.12c0.48,2.65,1.1,5.32,2.17,7.8c0.98,2.26,2.37,4,4.69,5.14
							c4.13,2.03,9.25,1.6,13.78,1.58c11.9-0.05,23.8-0.1,35.7-0.15c11.95-0.05,23.9-0.1,35.84-0.15
							c5.93-0.03,11.85-0.05,17.77-0.08c3.48-0.02,7.01,0.12,10.49-0.18c3.05-0.27,6.11-0.99,8.79-2.5
							c3.37-1.91,5.87-4.88,7.54-8.23c2.89-5.82,3.34-12.47,3.79-18.76c0.56-7.89,0.64-15.8,0.42-23.69
							c-0.21-7.37-0.63-14.8-2.22-22c-1.48-6.7-3.99-13.29-8.18-18.85c-3.51-4.67-8.09-8.42-13.42-11.09
							c-5.47-2.73-11.53-4.28-17.64-5.14c-6.81-0.96-13.75-1.13-20.65-0.97c-3.61,0.08-7.21,0.26-10.81,0.49
							c-0.78,0.05-1.24,1.91-0.33,1.86c7.13-0.45,14.28-0.71,21.41-0.41c6.4,0.28,12.81,1.03,18.94,2.78
							c5.58,1.59,10.88,4.05,15.32,7.64c4.78,3.86,8.33,8.86,10.76,14.35c2.98,6.72,4.32,14.04,4.94,21.32
							c0.62,7.36,0.76,14.78,0.65,22.18c-0.1,7.1-0.36,14.28-1.5,21.32c-0.46,2.88-1.07,5.48-2.39,8.15
							c-1.6,3.23-4.04,6.04-7.39,7.72c-2.64,1.32-5.57,1.87-8.5,2.05c-3.65,0.23-7.34,0.11-10.99,0.12
							c-11.7,0.05-23.41,0.1-35.11,0.15c-11.7,0.05-23.41,0.1-35.11,0.15c-5.83,0.03-11.65,0.05-17.48,0.08
							c-4.53,0.02-9.62,0.48-13.75-1.55c-2.23-1.09-3.44-2.85-4.33-5.02c-1.02-2.47-1.57-5.12-2.02-7.74
							c-1.17-6.86-1.44-13.88-1.53-20.84c-0.08-6.78,0.1-13.57,0.49-20.35c0.45-7.75,1.29-15.55,3.63-23.06
							c1.85-5.91,4.64-11.62,8.97-16.29c3.58-3.84,8.12-6.7,13.09-8.6c5.11-1.95,10.56-2.89,15.99-3.42
							c5.83-0.56,11.68-0.64,17.52-0.68c2.91-0.02,5.82-0.03,8.74-0.08C80.68,36.91,81.16,35.05,80.24,35.06L80.24,35.06z"/>
					</g>
				</g>
				<g>
					<g>
						<path d="M79.45,28.4c-0.01,2.63-0.02,5.26-0.03,7.9c0,0.37,0.24,0.74,0.66,0.57c0.43-0.17,0.65-0.79,0.66-1.19
							c0.01-2.63,0.02-5.26,0.03-7.9c0-0.37-0.24-0.74-0.66-0.57C79.67,27.38,79.45,28,79.45,28.4L79.45,28.4z"/>
					</g>
				</g>
				<g>
					<path d="M81.89,13.7c4.02-0.23,6.94,5.28,5.98,8.78c-0.97,3.5-4.98,5.96-8.59,5.26s-6.25-4.44-5.65-8.01
						c0.6-3.57,4.35-6.41,8.02-6.07"/>
					<g>
						<path d="M81.72,14.63c2.52-0.1,4.31,2.07,5.13,4.1c0.91,2.24,0.64,4.59-1.3,6.32c-2.13,1.9-5.32,2.49-7.85,1.1
							c-2.37-1.31-4.03-4.2-3.37-6.86c0.74-2.98,4.07-4.93,7.14-4.69c0.75,0.06,1.26-1.79,0.33-1.86c-3.56-0.27-6.88,2.12-8.25,5.19
							c-1.4,3.15-0.52,6.88,2.11,9.12c2.68,2.28,6.48,2.19,9.39,0.2c2.82-1.93,4.16-5.23,3.43-8.41c-0.67-2.89-2.95-6.2-6.44-6.07
							C81.28,12.8,80.81,14.66,81.72,14.63L81.72,14.63z"/>
					</g>
				</g>
				<g>
					<path d="M31.26,145.47c-6.72-4.4-11.69-9.55-12.41-24.54c-0.58-12.1-0.08-26.02,1.81-38.04c1.2-7.61,3.99-13.92,9.37-19.63
						c6.33-6.71,16.38-8.35,25.62-9.09c18.51-1.49,37.09-1.03,55.59,0.04c7.07,0.41,17.72,4.27,22.53,9.26
						c7.82,8.12,9.37,44.02,5.98,64.76c-0.98,6-4.74,11.95-9.58,15.83"/>
					<g>
						<path d="M31.73,144.63c-2.51-1.65-4.88-3.5-6.74-5.82c-2.2-2.74-3.53-6.03-4.33-9.4c-1.15-4.87-1.25-9.91-1.34-14.9
							c-0.09-5.38,0.02-10.77,0.34-16.15c0.32-5.27,0.83-10.55,1.68-15.77c0.73-4.47,2.12-8.84,4.49-12.8c2.4-4,5.65-7.66,9.89-9.97
							c4.46-2.43,9.54-3.53,14.55-4.19c5.65-0.74,11.37-1.01,17.05-1.23c6.04-0.23,12.08-0.29,18.11-0.22
							c6.04,0.07,12.07,0.27,18.1,0.56c2.86,0.14,5.75,0.19,8.59,0.48c2.2,0.23,4.37,0.71,6.49,1.31c4.52,1.3,9.05,3.19,12.73,6.03
							c1.11,0.86,2.16,1.81,2.94,2.95c0.67,0.99,1.2,2.06,1.67,3.15c1.19,2.81,1.93,5.81,2.54,8.79c0.75,3.72,1.25,7.48,1.6,11.26
							c0.78,8.42,0.9,16.93,0.47,25.39c-0.2,3.88-0.52,7.76-1.05,11.63c-0.28,2.02-0.58,4.03-1.25,5.97
							c-0.79,2.28-1.94,4.46-3.38,6.43c-1.38,1.91-3.01,3.64-4.87,5.14c-0.36,0.29-0.58,0.86-0.46,1.29c0.1,0.4,0.46,0.53,0.81,0.25
							c3.98-3.21,7.05-7.47,8.82-12.12c1.47-3.87,1.81-8.09,2.2-12.15c0.82-8.65,0.96-17.35,0.51-26c-0.4-7.72-1.14-15.6-3.29-23.04
							c-0.74-2.57-1.65-5.2-3.17-7.43c-2.09-3.06-5.64-5.1-9-6.7c-4.25-2.01-8.95-3.51-13.71-4c-2.87-0.29-5.79-0.36-8.68-0.49
							c-3.09-0.15-6.17-0.27-9.26-0.37c-12.49-0.39-25.01-0.33-37.5,0.61c-5.22,0.39-10.46,0.95-15.5,2.46
							c-5,1.5-9.4,4.05-12.82,7.89c-3.15,3.54-5.55,7.63-7.07,12.02c-1.69,4.85-2.29,9.97-2.82,15.01
							c-0.59,5.54-0.91,11.1-1.03,16.66c-0.11,5.45-0.12,10.94,0.33,16.37c0.36,4.33,1.13,8.7,3.01,12.66
							c1.36,2.86,3.36,5.39,5.83,7.46c1.14,0.96,2.36,1.82,3.61,2.64C31.54,146.8,32.35,145.05,31.73,144.63L31.73,144.63z"/>
					</g>
				</g>
				<g>
					<path class="st0" d="M46.88,75.97c-0.19,5.21-0.23,10.43-0.13,15.64c0.03,1.38,0.09,2.85,0.89,3.97
						c1.29,1.8,3.88,2.02,6.15,2.07c1.79,0.04,3.74,0.04,5.18-1.02c2.07-1.53,2.18-4.46,2.08-6.97c-0.15-3.89-0.3-7.78-0.45-11.67
						c-0.07-1.93-0.21-4.03-1.51-5.47c-1.74-1.92-4.8-1.88-7.45-1.69c-1.32,0.1-2.75,0.23-3.77,1.07s-1.04,2.85-1.04,4.57"/>
					<g>
						<path d="M46.23,76.28c-0.11,3.02-0.17,6.04-0.18,9.06c-0.01,1.55,0,3.11,0.02,4.66c0.02,1.4-0.04,2.84,0.21,4.22
							c0.43,2.4,2.2,3.76,4.64,4.16c1.13,0.18,2.3,0.22,3.45,0.23c1.35,0.01,2.77-0.09,3.99-0.71c2.13-1.07,3.04-3.37,3.28-5.52
							c0.29-2.65-0.01-5.37-0.12-8.02c-0.11-2.91-0.06-5.87-0.41-8.76c-0.28-2.35-1.36-4.49-3.81-5.32
							c-1.21-0.41-2.55-0.48-3.83-0.45c-1.39,0.03-2.86,0.07-4.2,0.48c-3.01,0.93-3.1,3.94-3.11,6.47c0,0.37,0.24,0.74,0.66,0.57
							c0.43-0.17,0.65-0.79,0.66-1.19c0-0.95-0.05-1.98,0.23-2.91c0.29-0.95,1.48-1.21,2.38-1.35c1.97-0.3,4.25-0.44,6.17,0.08
							c2.27,0.62,3.3,2.37,3.56,4.53c0.31,2.51,0.25,5.09,0.34,7.62c0.09,2.43,0.29,4.88,0.24,7.32c-0.03,1.73-0.28,3.76-2.06,4.68
							c-1.04,0.53-2.26,0.6-3.41,0.61c-1.06,0.01-2.13-0.02-3.17-0.17c-2.19-0.31-3.9-1.3-4.25-3.52c-0.21-1.33-0.13-2.73-0.15-4.08
							c-0.02-1.46-0.02-2.93-0.02-4.39c0.01-2.97,0.07-5.95,0.18-8.92c0.01-0.37-0.25-0.73-0.66-0.57
							C46.44,75.26,46.24,75.88,46.23,76.28L46.23,76.28z"/>
					</g>
				</g>
				<g>
					<path class="st0" d="M99.36,80.06c-0.02,5.73-2.28,13.5,1.43,15.41c2.02,1.04,12.77,1.61,12.93-1.45
						c1.05-19.83,3.34-24.2-7.87-24.03c-2.05,0.03-4.09-0.26-5.29,1.39c-1.19,1.65-1.11,5.83-1.12,8.8"/>
					<g>
						<path d="M98.7,80.37c-0.03,3.6-0.85,7.19-0.68,10.79c0.11,2.39,0.78,4.94,3.48,5.57c2.43,0.57,5.13,0.64,7.62,0.4
							c2.01-0.2,4.84-0.73,5.23-3.05c0.16-0.95,0.12-1.96,0.18-2.92c0.06-0.98,0.12-1.95,0.19-2.93c0.11-1.66,0.24-3.33,0.35-4.99
							c0.16-2.43,0.36-4.9,0.19-7.33c-0.11-1.55-0.34-3.23-1.29-4.53c-0.85-1.16-2.19-1.76-3.63-2.04c-0.95-0.18-1.93-0.25-2.9-0.27
							c-1.58-0.04-3.36-0.2-4.9,0.19c-3.73,0.95-3.68,5.67-3.74,8.57c-0.02,0.89-0.01,1.78-0.02,2.67c0,0.37,0.24,0.74,0.66,0.57
							c0.43-0.17,0.65-0.79,0.66-1.19c0.01-1.66-0.02-3.34,0.13-5c0.1-1.13,0.16-2.78,1.29-3.47c1.31-0.8,3.39-0.49,4.86-0.49
							c0.9,0,1.81,0.03,2.7,0.16c1.29,0.18,2.59,0.53,3.49,1.44c0.86,0.86,1.16,2.1,1.31,3.33c0.24,1.94,0.11,4.01,0,5.99
							c-0.17,3.04-0.42,6.08-0.61,9.13c-0.06,0.88-0.11,1.75-0.16,2.63c-0.01,0.2-0.1,0.56-0.04,0.75c-0.02-0.06,0.09-0.27,0-0.1
							c0.06-0.12,0.04-0.05-0.04,0c-0.76,0.52-1.62,0.74-2.53,0.89c-2.32,0.38-4.79,0.32-7.1-0.01c-0.88-0.13-1.91-0.25-2.61-0.79
							c-1.08-0.82-1.35-2.26-1.43-3.51c-0.24-3.69,0.64-7.38,0.67-11.07c0-0.37-0.24-0.73-0.66-0.57
							C98.92,79.34,98.7,79.97,98.7,80.37L98.7,80.37z"/>
					</g>
				</g>
				<g>
					<path class="st1" d="M56.66,103.49c14.71-0.01,30.22-0.42,44.93-0.43c1.07,0,2.3,0.08,2.9,0.92c0.51,0.72,0.35,1.71,0.11,2.57
						c-2.94,10.75-14.34,18.8-25.65,18.12c-11.31-0.68-21.26-10.02-22.4-21.02"/>
					<g>
						<path d="M56.49,104.42c9.24-0.01,18.49-0.16,27.74-0.29c4.62-0.06,9.23-0.11,13.85-0.13c1.12,0,2.23-0.02,3.34-0.01
							c0.77,0,1.76,0.01,2.35,0.55c0.73,0.67,0.29,1.79,0.04,2.6c-0.26,0.82-0.56,1.63-0.92,2.41c-2.65,5.79-7.92,10.39-14.04,12.69
							c-6.43,2.42-13.48,1.87-19.38-1.35c-6.7-3.66-11.48-10.35-12.28-17.75c-0.05-0.43-0.5-0.48-0.81-0.25
							c-0.4,0.3-0.51,0.85-0.46,1.29c0.76,6.95,4.9,13.33,10.83,17.3c5.88,3.93,13.22,5.21,20.22,3.15
							c6.8-1.99,12.71-6.71,16.07-12.71c0.85-1.53,1.55-3.14,2.04-4.81c0.5-1.71,0.87-4.08-1.33-4.77
							c-0.89-0.28-1.89-0.21-2.81-0.21c-1.21,0-2.42,0.01-3.63,0.01c-2.44,0.01-4.89,0.04-7.33,0.06
							c-9.84,0.11-19.68,0.3-29.51,0.34c-1.21,0.01-2.42,0.01-3.62,0.01C56.06,102.56,55.57,104.42,56.49,104.42L56.49,104.42z"/>
					</g>
				</g>
				<g class="st2">
					<path d="M57.84,105.26c3.24,5.14,8.37,8.92,13.93,11.57s13.88,5.26,20.89,5.15c-6.53,2.02-17.19,1.97-23.04-1.32
						c-5.86-3.29-11.61-10.06-13.01-16.54"/>
					<g>
						<path d="M57.26,105.96c5.52,8.66,15.94,13.59,26.03,15.88c3,0.68,6.09,1.11,9.19,1.07c0.05-0.6,0.11-1.21,0.16-1.81
							c-5.36,1.64-11.53,1.76-16.95,0.66c-2.62-0.53-5.04-1.45-7.22-2.92c-2.57-1.72-4.82-3.87-6.71-6.26
							c-2.1-2.65-3.79-5.69-4.53-8.97c-0.09-0.41-0.47-0.5-0.81-0.25c-0.37,0.27-0.56,0.87-0.46,1.29
							c1.34,6.02,5.59,11.47,10.6,15.18c2.25,1.66,4.7,2.87,7.48,3.54c2.94,0.71,6.03,0.96,9.07,0.91c3.22-0.06,6.46-0.47,9.55-1.41
							c0.61-0.19,1.05-1.82,0.16-1.81c-5.4,0.06-10.78-1.27-15.77-3.08c-4.71-1.7-9.21-3.97-13.01-7.12
							c-2.2-1.82-4.12-3.91-5.63-6.29C57.88,103.73,56.88,105.35,57.26,105.96L57.26,105.96z"/>
					</g>
				</g>
				<g class="st2">
					<path d="M47.58,72.22c-0.78,8.59,4.25,18.79,11.39,23.71c-3.53-1-7.99,1.57-10.79-0.74c-1.5-1.24-1.77-3.37-1.86-5.3
						c-0.26-5.52,0.06-11.08,0.97-16.55"/>
					<g>
						<path d="M46.92,72.52c-0.62,7.24,2.38,14.7,7.11,20.18c1.31,1.52,2.8,2.89,4.47,4.06c0.27-0.58,0.53-1.17,0.8-1.75
							c-1.75-0.46-3.56-0.18-5.34,0.05c-1.68,0.22-3.65,0.48-5.09-0.53c-1.75-1.24-1.84-3.57-1.92-5.48
							c-0.1-2.45-0.08-4.9,0.05-7.36c0.15-2.82,0.47-5.63,0.92-8.42c0.05-0.33-0.01-0.88-0.47-0.86c-0.45,0.02-0.75,0.65-0.8,1
							c-0.85,5.2-1.21,10.47-1.03,15.72c0.07,2.12,0.09,4.55,1.5,6.29c1.19,1.47,3.08,1.79,4.94,1.66c2.18-0.15,4.42-0.81,6.58-0.24
							c0.73,0.19,1.36-1.36,0.8-1.75c-5.8-4.04-9.66-10.68-10.9-17.42c-0.35-1.9-0.46-3.83-0.29-5.77c0.03-0.38-0.26-0.73-0.66-0.57
							C47.12,71.51,46.96,72.12,46.92,72.52L46.92,72.52z"/>
					</g>
				</g>
				<g class="st2">
					<path d="M101.43,72.34c0.48,8.41,4.49,16.52,10.9,22.06c-2.12,0.46-4.28,0.93-6.43,0.73c-2.15-0.2-4.46,0.39-5.53-1.43
						c-1.03-1.75-0.42-6.39-0.24-8.42c0.45-4.93,0.59-8.96,1.04-13.89"/>
					<g>
						<path d="M100.77,72.65c0.53,8.59,4.47,16.82,11.09,22.58c0.21-0.59,0.42-1.18,0.63-1.76c-1.33,0.29-2.66,0.58-4.01,0.71
							c-1.21,0.12-2.39-0.01-3.6-0.03c-1.71-0.02-3.74,0.07-4.22-1.86c-0.44-1.73-0.22-3.66-0.06-5.42c0.2-2.22,0.4-4.45,0.56-6.68
							c0.2-2.96,0.38-5.92,0.64-8.87c0.03-0.33,0.01-0.88-0.47-0.86c-0.43,0.02-0.77,0.66-0.8,1c-0.47,5.24-0.74,10.49-1.22,15.72
							c-0.18,1.97-0.39,4.05,0.04,5.99c0.18,0.81,0.53,1.62,1.24,2.12c0.78,0.56,1.75,0.66,2.7,0.69c1.29,0.04,2.62,0.14,3.92,0.1
							c1.67-0.06,3.32-0.41,4.95-0.77c0.63-0.14,1.17-1.3,0.63-1.76c-6.3-5.49-10.2-13.33-10.71-21.53
							C102.01,70.78,100.72,71.82,100.77,72.65L100.77,72.65z"/>
					</g>
				</g>
				<g class="st2">
					<path d="M30.54,44.7c-17.59,31.23-19.34,69.76-1.58,100.23c-3.81,2.26-8.97,0.48-11.74-2.82
						c-6.27-7.48-13.84-65.58,10.23-96.55"/>
					<g>
						<path d="M30.07,44.28c-6.91,12.29-11.47,25.75-13.32,39.5c-1.83,13.6-1.05,27.5,2.67,40.65c2.09,7.39,5.09,14.51,8.96,21.18
							c0.19-0.53,0.38-1.05,0.57-1.58c-2.32,1.33-5.05,1.15-7.41,0.11c-1.18-0.52-2.25-1.25-3.16-2.14
							c-0.29-0.28-0.56-0.58-0.81-0.89c0.1,0.13-0.13-0.18-0.17-0.24c-0.91-1.37-1.46-2.95-1.93-4.43
							c-1.71-5.37-2.56-11.03-3.13-16.61c-0.79-7.69-0.95-15.45-0.52-23.19c0.47-8.45,1.66-16.93,3.92-25.16
							c2.2-8.01,5.4-15.92,10.23-22.88c0.58-0.84,1.18-1.65,1.81-2.46c0.26-0.34,0.48-0.92,0.25-1.31c-0.23-0.38-0.67-0.21-0.9,0.09
							c-5.38,6.95-9.09,14.94-11.64,23.16c-2.64,8.5-4.1,17.29-4.78,26.09c-0.62,8.08-0.58,16.21,0.13,24.27
							c0.53,6.06,1.35,12.18,3.06,18.03c0.52,1.79,1.11,3.61,2.03,5.25c1.77,3.13,5.7,5.31,9.46,5.13c1.26-0.06,2.49-0.43,3.58-1.05
							c0.49-0.28,0.86-1.07,0.57-1.58c-6.78-11.66-10.82-24.71-12.01-38.08c-1.2-13.35,0.33-26.95,4.36-39.87
							c2.28-7.32,5.34-14.41,9.13-21.16c0.18-0.32,0.36-0.97,0.01-1.25C30.65,43.59,30.24,43.99,30.07,44.28L30.07,44.28z"/>
					</g>
				</g>
				<g class="st2">
					<g>
						<path d="M97.03,73.93c0.77-0.16,1.18-2.03,0.33-1.86C96.59,72.23,96.18,74.1,97.03,73.93L97.03,73.93z"/>
					</g>
				</g>
				<g class="st2">
					<g>
						<path class="st3" d="M103.68,45.28c2.34,0.21,4.68,0.43,7,0.73c1.17,0.15,2.34,0.32,3.5,0.52c0.54,0.09,1.09,0.19,1.63,0.29
							c0.76,0.15,0.69,0.13,1.48,0.31c4.32,0.99,8.52,2.49,12.07,5.02c8.66,6.19,10.72,16.89,11.35,26.7
							c0.42,6.45,0.39,12.97,1.68,19.32c0.08,0.41,0.81,0.54,1.12,0.58c0.75,0.1,1.66,0.01,2.4-0.15c0.78-0.17,1.58-0.39,2.27-0.8
							c0.32-0.19,0.9-0.54,0.81-0.97c-2.22-11.01-0.49-22.59-4.08-33.35c-1.56-4.69-4.19-9.11-8.14-12.32
							c-3.58-2.9-8-4.76-12.52-5.93c-5.28-1.38-10.75-1.96-16.21-2.45c-1.54-0.13-3.32,0.15-4.66,0.95
							c-0.32,0.19-0.9,0.54-0.81,0.97C102.65,45.12,103.35,45.25,103.68,45.28L103.68,45.28z"/>
					</g>
				</g>
				<g class="st2">
					<g>
						<path class="st3" d="M77.29,18.07c2.05,1.24,3.14,3.35,3.08,5.67c-0.04,1.26,6.54,0.54,6.59-1.34
							c0.07-2.47-1.26-4.89-3.43-6.2c-1.14-0.69-2.99-0.33-4.21,0.06C78.99,16.36,76.25,17.45,77.29,18.07L77.29,18.07z"/>
					</g>
				</g>
				<g class="st2">
					<g>
						<path class="st3" d="M103.94,60.18c4.97,0.45,9.82,0.87,14.36,2.78c4.02,1.69,7.46,4.64,9.02,8.63
							c1.85,4.72,1.38,9.97,1.06,14.93c-0.36,5.41-0.71,10.82-1.07,16.22c-0.4,6.11-0.8,12.21-1.21,18.32
							c-0.08,1.2,6.47,0.57,6.59-1.34c0.73-11.05,1.45-22.1,2.18-33.15c0.34-5.09,0.96-10.45-0.63-15.38
							c-1.44-4.46-4.79-7.72-9.05-9.84c-5.17-2.57-11.15-3.15-16.9-3.67c-1.53-0.14-3.32,0.15-4.66,0.95
							c-0.32,0.19-0.9,0.54-0.81,0.97C102.91,60.01,103.61,60.15,103.94,60.18L103.94,60.18z"/>
					</g>
				</g>
				<g class="st2">
					<g>
						<path class="st3" d="M105.14,84.98c2.66-2.91,5.31-5.81,7.97-8.72c0.93-1.02-0.66-1.28-1.49-1.26
							c-0.86,0.02-1.74,0.14-2.56,0.41c-0.61,0.2-1.43,0.43-1.87,0.9c-2.66,2.91-5.31,5.81-7.97,8.72
							c-0.93,1.02,0.66,1.28,1.49,1.26c0.86-0.02,1.74-0.14,2.56-0.41C103.89,85.68,104.71,85.45,105.14,84.98L105.14,84.98z"/>
					</g>
				</g>
				<g class="st2">
					<g>
						<path class="st3" d="M108.94,86.89c1.18-1.45,2.36-2.9,3.54-4.35c0.3-0.36-0.26-0.69-0.5-0.78c-0.59-0.22-1.46-0.18-2.07-0.1
							c-1.34,0.17-3.02,0.5-3.9,1.59c-1.18,1.45-2.36,2.9-3.54,4.35c-0.3,0.36,0.26,0.69,0.5,0.78c0.59,0.22,1.46,0.18,2.07,0.1
							C106.38,88.31,108.05,87.97,108.94,86.89L108.94,86.89z"/>
					</g>
				</g>
				<g class="st2">
					<g>
						<path class="st3" d="M75.47,116.13c4.61-2.55,9.22-5.11,13.84-7.66c0.28-0.15,0.89-0.56,0.81-0.97
							c-0.08-0.41-0.81-0.54-1.12-0.58c-1.53-0.17-3.31,0.2-4.66,0.95c-4.61,2.55-9.22,5.11-13.84,7.66
							c-0.28,0.15-0.89,0.56-0.81,0.97c0.08,0.41,0.81,0.54,1.12,0.58C72.33,117.24,74.12,116.87,75.47,116.13L75.47,116.13z"/>
					</g>
				</g>
				<g class="st2">
					<g>
						<path class="st3" d="M54.31,84.56c1.67-2.03,3.35-4.06,5.02-6.1c0.3-0.36-0.26-0.69-0.5-0.78c-0.59-0.22-1.46-0.18-2.07-0.1
							c-1.35,0.17-3.01,0.51-3.9,1.59c-1.67,2.03-3.35,4.06-5.02,6.1c-0.3,0.36,0.26,0.69,0.5,0.78c0.59,0.22,1.46,0.18,2.07,0.1
							C51.76,85.99,53.42,85.65,54.31,84.56L54.31,84.56z"/>
					</g>
				</g>
				<g class="st2">
					<g>
						<path class="st3" d="M55.48,90.32c1.67-1.84,3.34-3.68,5.02-5.52c0.92-1.02-0.66-1.28-1.49-1.26
							c-0.86,0.02-1.74,0.14-2.56,0.41c-0.61,0.2-1.43,0.42-1.87,0.9c-1.67,1.84-3.34,3.68-5.02,5.52
							c-0.92,1.02,0.66,1.28,1.49,1.26c0.86-0.02,1.74-0.14,2.56-0.41C54.22,91.03,55.05,90.8,55.48,90.32L55.48,90.32z"/>
					</g>
				</g>
				<g class="st2">
					<g>
						<path class="st3" d="M74.94,115.65c3.85-2.52,7.69-5.03,11.54-7.55c0.27-0.18,0.89-0.55,0.81-0.97
							c-0.08-0.41-0.81-0.54-1.12-0.58c-1.43-0.16-3.43,0.14-4.66,0.95c-3.85,2.52-7.69,5.03-11.54,7.55
							c-0.27,0.18-0.89,0.55-0.81,0.97c0.08,0.41,0.81,0.54,1.12,0.58C71.71,116.76,73.7,116.46,74.94,115.65L74.94,115.65z"/>
					</g>
				</g>
				<g class="st2">
					<g>
						<path class="st3" d="M80.88,119.41c3.63-2.55,7.25-5.1,10.88-7.64c0.32-0.23,0.45-0.63,0.16-0.91
							c-0.34-0.33-1.23-0.36-1.65-0.35c-1.56,0.03-3.16,0.42-4.43,1.31c-3.63,2.55-7.25,5.1-10.88,7.64
							c-0.32,0.23-0.45,0.63-0.16,0.91c0.34,0.33,1.23,0.36,1.65,0.35C78,120.69,79.61,120.3,80.88,119.41L80.88,119.41z"/>
					</g>
				</g>
			</g>
		</g>
	</g>
	<ellipse class="st4" cx="55.05" cy="78.18" rx="1.9" ry="3.17"/>
	<ellipse class="st4" cx="109.88" cy="76.62" rx="1.9" ry="3.17"/>
	<path class="st5" d="M55.05,76.13c0-0.27,0.21-0.48,0.43-0.48s0.32,0.22,0.32,0.48s-0.11,0.48-0.32,0.48S55.05,76.4,55.05,76.13z"
		/>
	<path class="st5" d="M109.88,75.01c0-0.27,0.21-0.48,0.43-0.48s0.32,0.22,0.32,0.48s-0.11,0.48-0.32,0.48
		S109.88,75.28,109.88,75.01z"/>
	<ellipse class="st6" cx="44.48" cy="97.76" rx="7.25" ry="6"/>
	<ellipse class="st7" cx="115.23" cy="96.28" rx="7.25" ry="6"/>
</g>
<g id="Ebene_9_6_">
</g>
<g id="Ebene_3">
	<g>
		<g>
			<g id="Ebene_2_Kopie">
				<g class="st2">
					<path d="M120.95,64.14c2.72,1.96,3.93,4.81,2.85,6.73s-4.36,2.78-7.75,2.02c-3.4-0.76-6.65-3.07-7.7-5.47
						c-1.05-2.4,0.2-4.7,2.94-5.44c2.74-0.74,6.78,0.13,9.54,2.07"/>
					<g>
						<path d="M120.57,64.32c2.55,1.86,3.77,4.47,2.89,6.35c-0.84,1.78-3.69,2.59-6.69,2.06c-3.17-0.56-6.31-2.56-7.65-4.77
							c-1.35-2.22-0.67-4.5,1.59-5.49c2.55-1.11,6.89-0.21,9.74,1.76c0.38,0.26,1.1-0.13,0.75-0.37c-2.88-1.99-6.87-2.86-9.79-2.19
							c-2.98,0.68-4.49,2.98-3.64,5.5c0.83,2.45,4,4.86,7.44,5.83c3.51,0.98,6.96,0.28,8.54-1.44c1.81-1.97,0.72-5.31-2.43-7.61
							C120.96,63.69,120.22,64.07,120.57,64.32L120.57,64.32z"/>
					</g>
				</g>
				<g class="st2">
					<path d="M122.79,21.6c0.97-1.8,2.43-3.45,4.76-4.36c2.33-0.91,5.65-1,8.72,0.17c4.45,1.69,7.18,5.63,6.84,8.62
						c-0.34,2.99-3.11,5.1-6.45,6.47c-3.33,1.37-7.27,2.13-10.83,3.28c-5.8,1.87-10.65,4.86-13.1,9.05c-1.61,2.75-2.1,6.2,0.09,9.62
						c2.19,3.42,7.63,6.59,12.19,6.38c2.89-0.13,4.88-1.52,6.07-3.19s1.7-3.64,2.6-5.43c1.85-3.71,5.38-6.71,10.09-8.59
						c5.84-2.33,13.53-3.01,17.88-6.51c4.61-3.7,4.45-10.17,0.45-16.01c-3.99-5.84-11.4-10.97-19.48-14.31
						c-8.87-3.67-18.8-5.32-26.84-4.05s-13.98,5.58-14.97,11.52c-0.39,2.34,0.02,5.02,2.06,7.49c2.69,3.25,8.18,5.67,12.7,5.59
						s5.31-2.86,7.18-5.68"/>
					<g>
						<path d="M123.22,21.62c0.87-1.6,2.13-3.08,4.14-3.99c1.8-0.81,4.28-1.07,6.85-0.51c5.06,1.11,8.41,5.18,8.49,8.34
							c0.09,3.96-4.22,6.26-8.51,7.64c-2.32,0.75-4.79,1.33-7.16,2.02c-2.26,0.66-4.39,1.46-6.33,2.42
							c-3.79,1.89-6.88,4.43-8.59,7.62c-1.54,2.86-1.96,6.67,0.91,10.24c2.41,2.99,7.2,5.74,11.57,5.7c2.39-0.02,4.28-0.84,5.6-1.97
							c1.55-1.33,2.3-3.08,3.01-4.82c0.73-1.79,1.57-3.5,2.87-5.03c1.23-1.46,2.78-2.75,4.6-3.83c1.77-1.05,3.79-1.87,5.96-2.54
							c2.06-0.64,4.22-1.16,6.33-1.74c4.14-1.14,8.13-2.57,10.4-5.24c2.2-2.58,2.7-6.02,1.74-9.56c-1-3.65-3.55-7.32-7.17-10.61
							c-3.66-3.33-8.29-6.22-13.24-8.45c-5.02-2.27-10.43-3.88-15.71-4.69c-5.26-0.8-10.4-0.8-14.85,0.16
							c-4.39,0.94-8.03,2.81-10.51,5.35c-2.42,2.48-3.85,5.78-3.22,9.35c0.31,1.75,1.18,3.6,2.86,5.26c1.55,1.53,3.7,2.83,5.98,3.69
							c2.29,0.86,4.74,1.31,6.9,1.15c2.04-0.14,3.48-0.95,4.48-2.04c1.06-1.16,1.7-2.53,2.54-3.8c0.26-0.39-0.62-0.42-0.79-0.16
							c-0.85,1.28-1.49,2.67-2.57,3.83c-1,1.07-2.5,1.69-4.6,1.65c-4.54-0.09-9.85-2.64-12.26-5.91c-2.61-3.55-2.08-7.3-0.57-10.13
							c1.55-2.91,4.51-5.23,8.3-6.66c3.89-1.47,8.64-2,13.71-1.67c5.13,0.34,10.54,1.55,15.68,3.44c5.06,1.86,9.89,4.39,13.98,7.43
							c4.04,3.01,7.34,6.52,9.11,10.15c1.72,3.53,2.04,7.13,0.69,10.08c-0.68,1.47-1.8,2.74-3.3,3.75c-1.52,1.02-3.39,1.77-5.35,2.4
							c-4.02,1.29-8.47,2.11-12.2,3.7c-4,1.7-7.13,4.23-9.04,7.31c-1.04,1.68-1.59,3.55-2.47,5.3c-0.77,1.52-1.89,2.96-3.84,3.76
							c-1.71,0.7-3.97,0.72-6.3,0.01c-2.22-0.67-4.31-1.89-5.91-3.28c-3.72-3.23-4.15-7.06-3.1-10.05c1.15-3.29,3.95-5.97,7.42-7.96
							c1.78-1.02,3.76-1.89,5.9-2.6c2.25-0.75,4.67-1.33,7-1.99c4.47-1.27,8.87-3.04,10.45-6.42c0.68-1.44,0.7-3.11-0.09-4.86
							c-0.71-1.58-2.07-3.21-3.98-4.45c-4.42-2.87-9.96-2.56-13.02-0.72c-1.69,1.01-2.8,2.39-3.62,3.9
							c-0.08,0.14,0.13,0.28,0.34,0.29C122.96,21.9,123.14,21.76,123.22,21.62L123.22,21.62z"/>
					</g>
				</g>
				<g class="st2">
					<path d="M114.33,66.79c-0.76-1.64,0.82-3.09,3.1-2.86"/>
					<g>
						<path d="M114.75,66.67c-0.63-1.43,0.58-2.64,2.58-2.46c0.42,0.04,0.83-0.49,0.19-0.55c-2.6-0.24-4.46,1.38-3.62,3.26
							C114.05,67.25,114.89,66.97,114.75,66.67L114.75,66.67z"/>
					</g>
				</g>
				<g class="st2">
					<path d="M114.45,64.79c0.17,0.05,0.25,0.25,0.11,0.28c-0.18-0.15-0.11-0.37,0.12-0.37"/>
					<g>
						<path d="M114.15,65.03c0.05,0.02,0.05,0.03,0.02,0c0.04,0.04-0.01-0.03,0.01,0c0.02,0.03,0.01,0.04,0.01,0
							c0,0.01,0,0.01,0,0.02c0-0.11,0.08-0.18,0.24-0.21c0.17,0.02,0.34,0.04,0.51,0.06c-0.01-0.01-0.03-0.02-0.04-0.04
							c0.05,0.05,0.01,0.01,0.01,0c-0.01-0.04,0.01,0.05,0,0.01c-0.01-0.05-0.01,0.01-0.01,0.01c-0.01,0,0.01-0.03,0.01-0.03
							c0,0.01-0.04,0.06-0.01,0.02c-0.03,0.04-0.07,0.07-0.13,0.09c-0.02,0.01-0.14,0.03-0.07,0.03c0.22-0.01,0.44-0.16,0.43-0.33
							c-0.02-0.19-0.28-0.22-0.46-0.21c-0.47,0.03-0.91,0.45-0.47,0.83c0.13,0.12,0.39,0.1,0.51,0.06c0.22-0.08,0.41-0.21,0.38-0.42
							c-0.02-0.12-0.13-0.28-0.32-0.34c-0.25-0.08-0.5-0.03-0.63,0.09c-0.06,0.05-0.12,0.12-0.11,0.21
							C114.01,64.91,114.05,64.99,114.15,65.03L114.15,65.03z"/>
					</g>
				</g>
			</g>
			<g id="Ebene_2_2_">
				<g>
					<path class="st14" d="M123.39,63.64c2.72,1.96,3.93,4.81,2.85,6.73s-4.36,2.78-7.75,2.02c-3.4-0.76-6.65-3.07-7.7-5.47
						c-1.05-2.4,0.2-4.7,2.94-5.44c2.74-0.74,6.78,0.13,9.54,2.07"/>
					<g>
						<path d="M123.01,63.83c2.55,1.86,3.77,4.47,2.89,6.35c-0.84,1.78-3.69,2.59-6.69,2.06c-3.17-0.56-6.31-2.56-7.65-4.77
							c-1.35-2.22-0.67-4.5,1.59-5.49c2.55-1.11,6.89-0.21,9.74,1.76c0.38,0.26,1.1-0.13,0.75-0.37c-2.88-1.99-6.87-2.86-9.79-2.19
							c-2.98,0.68-4.49,2.98-3.64,5.5c0.83,2.45,4,4.86,7.44,5.83c3.51,0.98,6.96,0.28,8.54-1.44c1.81-1.97,0.72-5.31-2.43-7.61
							C123.4,63.19,122.66,63.57,123.01,63.83L123.01,63.83z"/>
					</g>
				</g>
				<g>
					<path class="st15" d="M126.65,21.49c0.97-1.8,2.43-3.45,4.76-4.36s5.65-1,8.72,0.17c4.45,1.69,7.18,5.63,6.84,8.62
						s-3.11,5.1-6.45,6.47s-7.27,2.13-10.83,3.28c-5.8,1.87-10.65,4.86-13.1,9.05c-1.61,2.75-2.1,6.2,0.09,9.62
						s7.63,6.59,12.19,6.38c2.89-0.13,4.88-1.52,6.07-3.19c1.18-1.67,1.7-3.64,2.6-5.43c1.85-3.71,5.38-6.71,10.09-8.59
						c5.84-2.33,13.53-3.01,17.88-6.51c4.61-3.7,4.45-10.17,0.45-16.01c-3.99-5.84-11.4-10.97-19.48-14.31
						C137.62,3,127.7,1.35,119.65,2.62s-13.98,5.58-14.97,11.52c-0.39,2.34,0.02,5.02,2.06,7.49c2.69,3.25,8.18,5.67,12.7,5.59
						s5.31-2.86,7.18-5.68"/>
					<g>
						<path d="M127.08,21.5c0.87-1.6,2.13-3.08,4.14-3.99c1.8-0.81,4.28-1.07,6.85-0.51c5.06,1.11,8.41,5.18,8.49,8.34
							c0.09,3.96-4.22,6.26-8.51,7.64c-2.32,0.75-4.79,1.33-7.16,2.02c-2.26,0.66-4.39,1.46-6.33,2.42
							c-3.79,1.89-6.88,4.43-8.59,7.62c-1.54,2.86-1.96,6.67,0.91,10.24c2.41,2.99,7.2,5.74,11.57,5.7c2.39-0.02,4.28-0.84,5.6-1.97
							c1.55-1.33,2.3-3.08,3.01-4.82c0.73-1.79,1.57-3.5,2.87-5.03c1.23-1.46,2.78-2.75,4.6-3.83c1.77-1.05,3.79-1.87,5.96-2.54
							c2.06-0.64,4.22-1.16,6.33-1.74c4.14-1.14,8.13-2.57,10.4-5.24c2.2-2.58,2.7-6.02,1.74-9.56c-1-3.65-3.55-7.32-7.17-10.61
							c-3.66-3.33-8.29-6.22-13.24-8.45c-5.02-2.27-10.43-3.88-15.71-4.69c-5.26-0.8-10.4-0.8-14.85,0.16
							c-4.39,0.94-8.03,2.81-10.51,5.35c-2.42,2.48-3.85,5.78-3.22,9.35c0.31,1.75,1.18,3.6,2.86,5.26c1.55,1.53,3.7,2.83,5.98,3.69
							c2.29,0.86,4.74,1.31,6.9,1.15c2.04-0.14,3.48-0.95,4.48-2.04c1.06-1.16,1.7-2.53,2.54-3.8c0.26-0.39-0.62-0.42-0.79-0.16
							c-0.85,1.28-1.49,2.67-2.57,3.83c-1,1.07-2.5,1.69-4.6,1.65c-4.54-0.09-9.85-2.64-12.26-5.91c-2.61-3.55-2.08-7.3-0.57-10.13
							c1.55-2.91,4.51-5.23,8.3-6.66c3.89-1.47,8.64-2,13.71-1.67c5.13,0.34,10.54,1.55,15.68,3.44c5.06,1.86,9.89,4.39,13.98,7.43
							c4.04,3.01,7.34,6.52,9.11,10.15c1.72,3.53,2.04,7.13,0.69,10.08c-0.68,1.47-1.8,2.74-3.3,3.75c-1.52,1.02-3.39,1.77-5.35,2.4
							c-4.02,1.29-8.47,2.11-12.2,3.7c-4,1.7-7.13,4.23-9.04,7.31c-1.04,1.68-1.59,3.55-2.47,5.3c-0.77,1.52-1.89,2.96-3.84,3.76
							c-1.71,0.7-3.97,0.72-6.3,0.01c-2.22-0.67-4.31-1.89-5.91-3.28c-3.72-3.23-4.15-7.06-3.1-10.05c1.15-3.29,3.95-5.97,7.42-7.96
							c1.78-1.02,3.76-1.89,5.9-2.6c2.25-0.75,4.67-1.33,7-1.99c4.47-1.27,8.87-3.04,10.45-6.42c0.68-1.44,0.7-3.11-0.09-4.86
							c-0.71-1.58-2.07-3.21-3.98-4.45c-4.42-2.87-9.96-2.56-13.02-0.72c-1.69,1.01-2.8,2.39-3.62,3.9
							c-0.08,0.14,0.13,0.28,0.34,0.29C126.82,21.79,127,21.65,127.08,21.5L127.08,21.5z"/>
					</g>
				</g>
				<g>
					<g>
						<path d="M114.75,66.67c-0.63-1.43,0.58-2.64,2.58-2.46c0.42,0.04,0.83-0.49,0.19-0.55c-2.6-0.24-4.46,1.38-3.62,3.26
							C114.05,67.25,114.89,66.97,114.75,66.67L114.75,66.67z"/>
					</g>
				</g>
				<g>
					<path class="st14" d="M119.94,64.43c0.17,0.05,0.25,0.25,0.11,0.28c-0.18-0.15-0.11-0.37,0.12-0.37"/>
					<g>
						<path d="M119.64,64.67c0.05,0.02,0.05,0.03,0.02,0c0.04,0.04-0.01-0.03,0.01,0c0.02,0.03,0.01,0.04,0.01,0
							c0,0.01,0,0.01,0,0.02c0-0.11,0.08-0.18,0.24-0.21c0.17,0.02,0.34,0.04,0.51,0.06c-0.01-0.01-0.03-0.02-0.04-0.04
							c0.05,0.05,0.01,0.01,0.01,0c-0.01-0.04,0.01,0.05,0,0.01c-0.01-0.05-0.01,0.01-0.01,0.01c-0.01,0,0.01-0.03,0.01-0.03
							c0,0.01-0.04,0.06-0.01,0.02c-0.03,0.04-0.07,0.07-0.13,0.09c-0.02,0.01-0.14,0.03-0.07,0.03c0.22-0.01,0.44-0.16,0.43-0.33
							c-0.02-0.19-0.28-0.22-0.46-0.21c-0.47,0.03-0.91,0.45-0.47,0.83c0.13,0.12,0.39,0.1,0.51,0.06c0.22-0.08,0.41-0.21,0.38-0.42
							c-0.02-0.12-0.13-0.28-0.32-0.34c-0.25-0.08-0.5-0.03-0.63,0.09c-0.06,0.05-0.12,0.12-0.11,0.21
							C119.5,64.55,119.54,64.64,119.64,64.67L119.64,64.67z"/>
					</g>
				</g>
			</g>
			<g id="Ebene_4_2_">
				<g class="st2">
					<path d="M120.77,62.21c-3.7-1.33-9.02-0.59-10.06,1.62c-1.05,2.21,1.93,6.16,5.48,7.82c-2.89-1.61-4.75-5.21-3.63-6.99
						s4.26-2.66,8.32-2.39"/>
					<g>
						<path d="M121.07,61.98c-1.64-0.58-3.35-0.76-4.89-0.69c-1.61,0.07-3.13,0.39-4.29,1c-1.12,0.59-1.83,1.45-1.84,2.58
							c-0.01,1.14,0.62,2.42,1.53,3.57c1.04,1.31,2.5,2.58,4.31,3.44c0.39,0.18,1.05-0.21,0.6-0.47c-2.29-1.29-3.62-3.5-3.79-5.2
							c-0.09-0.85,0.18-1.57,0.82-2.14c0.67-0.6,1.6-1,2.67-1.25c1.39-0.33,2.98-0.38,4.6-0.28c0.24,0.02,0.49-0.11,0.53-0.26
							c0.04-0.15-0.11-0.27-0.34-0.29c-3.05-0.19-6.06,0.2-7.86,1.57c-0.79,0.6-1.29,1.37-1.33,2.3c-0.04,0.96,0.34,2.02,0.97,3.03
							c0.69,1.1,1.72,2.19,3.13,2.99c0.2-0.16,0.4-0.31,0.6-0.47c-2.87-1.36-5.11-3.93-5.49-6.04c-0.19-1.02,0.14-1.87,1.03-2.47
							c0.88-0.6,2.17-0.91,3.5-1.03c1.52-0.14,3.29-0.01,4.95,0.58C120.89,62.6,121.52,62.14,121.07,61.98L121.07,61.98z"/>
					</g>
				</g>
				<g class="st2">
					<path d="M144.49,30.21c-3.47,2.18-7.29,3.04-11.57,4.51c-4.28,1.47-8.15,2.52-11.41,4.85c-3.26,2.33-6.54,7.92-6.1,11.75
						c0.44,3.83,5.13,8.47,12.25,9.37c-6.94-5.48-1.6-16.34,2.7-19.05c4.18-2.63,13.98-7.17,16.06-13.91"/>
					<g>
						<path d="M144.16,30.07c-3.28,2.05-7.62,3.13-11.62,4.5c-4.02,1.37-8.18,2.62-11.28,4.81c-1.17,0.83-2.11,1.84-2.92,2.88
							c-0.92,1.19-1.68,2.46-2.28,3.79c-1.05,2.34-1.81,5.06-0.22,7.96c0.79,1.43,2.07,2.83,3.72,3.99
							c1.77,1.24,3.89,2.15,6.07,2.64c0.61,0.14,1.22,0.24,1.82,0.32c0.27,0.03,0.93-0.17,0.58-0.45c-2.51-1.99-3.2-4.49-3.27-6.62
							c-0.08-2.6,0.69-5.02,1.84-7.22c0.53-1.02,1.17-1.99,1.93-2.9c0.59-0.71,1.25-1.38,2.11-1.93c1.16-0.75,2.45-1.44,3.68-2.16
							c1.59-0.93,3.15-1.88,4.62-2.89c3.17-2.18,6.04-4.7,7.47-7.86c0.17-0.38,0.32-0.77,0.45-1.17c0.05-0.15-0.11-0.27-0.34-0.29
							c-0.24-0.01-0.48,0.11-0.53,0.26c-1.04,3.33-3.81,5.95-6.9,8.19c-2.67,1.93-5.73,3.55-8.62,5.32
							c-2.02,1.24-3.34,2.94-4.37,4.75c-1.26,2.21-2.12,4.64-2.22,7.25c-0.08,2.18,0.39,4.74,2.62,6.95
							c0.24,0.24,0.51,0.47,0.79,0.69c0.19-0.15,0.39-0.3,0.58-0.45c-2.23-0.29-4.49-0.98-6.49-2.14c-1.77-1.02-3.22-2.35-4.18-3.73
							c-0.92-1.33-1.38-2.68-1.38-3.97c-0.01-1.35,0.35-2.61,0.82-3.81c0.53-1.33,1.23-2.6,2.08-3.79c0.76-1.06,1.63-2.09,2.73-2.96
							c2.75-2.19,6.71-3.41,10.5-4.68c2.01-0.68,4.05-1.32,6.07-1.99c1.96-0.64,3.85-1.35,5.53-2.26c0.44-0.24,0.86-0.48,1.27-0.74
							c0.12-0.07,0.19-0.27-0.03-0.38C144.55,29.86,144.29,29.99,144.16,30.07L144.16,30.07z"/>
					</g>
				</g>
				<g class="st2">
					<path d="M142.43,5.16c-5.83-1.51-14.15-3.17-19.36-2.82c-5.2,0.36-11.27,2.63-14.48,5.05c-3.21,2.42-4.78,7.63-3.43,11.61
						s5.59,7.04,12.27,8.11c-3.61-2.05-6.94-5.05-7.14-7.82s1.23-5.13,3.18-7.1c5.26-5.31,15.08-7.86,28.78-6.89"/>
					<g>
						<path d="M142.63,4.89c-5.1-1.32-10.35-2.4-15.36-2.77c-2.37-0.18-4.6-0.1-6.7,0.25c-2.37,0.4-4.55,1.04-6.58,1.83
							c-1.96,0.76-3.79,1.66-5.35,2.76c-1.42,0.99-2.4,2.25-3.11,3.63c-0.75,1.46-1.19,3.07-1.28,4.76
							c-0.09,1.54,0.11,3.19,0.92,4.83c0.72,1.48,1.98,2.95,3.72,4.14c1.88,1.28,4.13,2.14,6.38,2.68c0.66,0.15,1.31,0.28,1.96,0.39
							c0.32,0.05,0.96-0.23,0.5-0.5c-3.18-1.81-6.33-4.44-6.91-7.06c-0.35-1.58,0.06-3.1,0.71-4.4c0.64-1.3,1.6-2.46,2.72-3.51
							c1.7-1.59,3.84-2.9,6.32-3.91c2.63-1.07,5.63-1.78,8.83-2.18c3.55-0.45,7.33-0.53,11.2-0.32c0.52,0.03,1.04,0.06,1.56,0.1
							c0.41,0.03,0.83-0.51,0.19-0.55c-4.1-0.29-8.12-0.28-11.91,0.11c-3.4,0.36-6.62,1.04-9.46,2.1c-2.69,1-5.06,2.33-6.94,3.96
							c-2.4,2.08-4.29,4.69-4.21,7.82c0.07,2.7,2.79,5.48,6.07,7.57c0.4,0.26,0.82,0.51,1.24,0.75c0.17-0.17,0.33-0.33,0.5-0.5
							c-2.32-0.37-4.7-1.04-6.82-2.19c-1.8-0.98-3.25-2.28-4.18-3.66c-1.03-1.55-1.43-3.12-1.5-4.61c-0.08-1.65,0.22-3.22,0.78-4.68
							c0.55-1.41,1.35-2.75,2.59-3.82c1.27-1.11,2.95-1.98,4.68-2.73c3.51-1.54,7.69-2.73,12.49-2.55c2.41,0.09,4.9,0.42,7.39,0.85
							c2.49,0.42,4.99,0.96,7.49,1.56c0.56,0.14,1.11,0.28,1.67,0.42C142.63,5.53,143.19,5.04,142.63,4.89L142.63,4.89z"/>
					</g>
				</g>
			</g>
			<g id="Ebene_5_2_">
				<g class="st2">
					<g>
						<path class="st3" d="M151.2,12.66c0.37,0.22,0.74,0.44,1.1,0.68c0.18,0.12,0.36,0.23,0.53,0.35c0.09,0.06,0.17,0.12,0.26,0.18
							c0.04,0.03,0.39,0.28,0.18,0.12c0.67,0.5,1.31,1.02,1.89,1.56c1.2,1.1,2.14,2.19,2.95,3.41c1.67,2.52,2.34,5.08,1.87,7.38
							c-1.12,5.5-7.5,8.47-13.34,11.09c-3.38,1.52-6.75,3.06-9.41,5.15c-0.12,0.1,0.35,0.43,0.42,0.47
							c0.35,0.23,0.81,0.44,1.22,0.59c0.54,0.2,1.55,0.58,1.93,0.28c4.77-3.76,11.96-5.59,17.1-9.07c2.56-1.73,4.7-3.85,5.49-6.52
							c0.68-2.32,0.22-4.98-1.34-7.61c-1.68-2.84-4.56-5.58-8.12-7.67c-0.73-0.43-1.67-0.85-2.52-0.95
							c-0.2-0.02-0.57-0.08-0.62,0.08C150.72,12.34,151.04,12.57,151.2,12.66L151.2,12.66z"/>
					</g>
				</g>
				<g class="st2">
					<g>
						<path class="st3" d="M121.33,66.59c0.28,1.06-0.12,2.04-0.88,2.73c-0.37,0.34-0.86,0.6-1.42,0.79
							c-0.64,0.22-1.18,0.29-1.93,0.28c-0.77-0.01,0.11,0.6,0.44,0.77c0.72,0.37,1.71,0.77,2.49,0.78c3.32,0.05,5.45-1.83,4.81-4.26
							c-0.04-0.17-0.57-0.45-0.73-0.54c-0.41-0.22-0.91-0.42-1.36-0.55C122.37,66.47,121.21,66.12,121.33,66.59L121.33,66.59z"/>
					</g>
				</g>
			</g>
		</g>
	</g>
</g>
<g id="Ebene_5_6_">
</g>
</svg>
