<?xml version="1.0" encoding="utf-8"?>
<!-- Generator: Adobe Adobe Illustrator 24.2.0, SVG Export Plug-In . SVG Version: 6.00 Build 0)  -->
<svg version="1.1" xmlns="http://www.w3.org/2000/svg" xmlns:xlink="http://www.w3.org/1999/xlink" x="0px" y="0px"
	 viewBox="0 0 1080 1080" style="enable-background:new 0 0 1080 1080;" xml:space="preserve">
<style type="text/css">
	.st0{fill:#FFFFFF;stroke:#000000;stroke-width:8;stroke-linecap:round;stroke-linejoin:round;stroke-miterlimit:10;}
	.st1{fill:#FFBABA;}
	.st2{opacity:0.0706;}
	.st3{opacity:0.0706;fill:none;stroke:#000000;stroke-width:30;stroke-linecap:round;stroke-linejoin:round;stroke-miterlimit:10;}
	.st4{fill:none;stroke:#FFFFFF;stroke-width:20;stroke-linecap:round;stroke-linejoin:round;stroke-miterlimit:10;}
	.st5{stroke:#000000;stroke-width:8;stroke-linecap:round;stroke-linejoin:round;stroke-miterlimit:10;}
	.st6{fill:#FFFFFF;}
	.st7{fill:#6DB671;}
	.st8{fill:#6CB671;}
	.st9{opacity:0.149;}
	.st10{opacity:0.0314;}
</style>
<g id="Ebene_2">
</g>
<g id="Ebene_4">
</g>
<g id="Ebene_9">
</g>
<g id="Ebene_10">
</g>
<g id="Ebene_19">
</g>
<g id="Ebene_20">
</g>
<g id="Ebene_21">
	<g>
		<path class="st0" d="M145.76,611.83c-198.99,69.78-86.69,341.75,101.2,291.26c3.05,25.7,84.24,42.25,108.18,8.96
			c15.44,35.11,156.97,88.69,217.42,4.61c28.2,41.06,124.93,68.59,184.54,17.75c262.78,86.73,252-343.83,49.12-325.17
			c11.32-57-104.56-95.15-138.26-63.81c-10.22-162.94-262.1-145.81-277.39-50.56C314.29,442.13,168.14,472.42,145.76,611.83z"/>
		<path class="st0" d="M361.8,675.48c-8.85,36.54,12.01,77.98,46.64,92.62s78.89,0.74,98.94-31.07"/>
		<path class="st1" d="M214.32,680.69c3.02,31.3,122.2,15.34,119.93-21.17C332.01,623.47,209.89,634.86,214.32,680.69z"/>
		<path class="st1" d="M573.28,676.84c-6.9,30.67,111.29,52.73,120.54,17.34C702.96,659.23,583.39,631.92,573.28,676.84z"/>
		<path class="st3" d="M375.93,517.21c-36.49-18.77-81.64-19.74-118.9-2.56c-37.27,17.18-65.85,52.13-75.29,92.07"/>
		<path class="st3" d="M150.88,641.84c-163.69,82.59-37.61,260.82,74.6,233.74"/>
		<path class="st3" d="M421.36,507.3c60.86-86.68,190.02-51.1,212.3,25.67"/>
		<path class="st3" d="M383.02,897.99c44.66,44.66,110.34,48.92,161.6,3.21"/>
		<path class="st3" d="M599.84,908.29c34.68,31.02,90.56,35.18,129.45,9.64"/>
		<path class="st3" d="M819.81,641.84c144.41,0,167.78,313.34-36.81,273.83"/>
		<path class="st4" d="M665.65,552.5c6.53-8.99,16.74-14.92,27.54-17.52c10.8-2.6,22.18-2.05,33.06,0.17
			c18.82,3.85,36.5,12.68,51.36,24.85c8.08,6.62,15.45,14.36,20.23,23.65c4.79,9.29,6.81,20.27,4.09,30.35"/>
		
			<ellipse transform="matrix(0.3806 -0.9248 0.9248 0.3806 -287.5661 768.3121)" class="st5" cx="429.72" cy="598.81" rx="53.42" ry="13.5"/>
		
			<ellipse transform="matrix(0.3806 -0.9248 0.9248 0.3806 -287.5661 768.3121)" class="st5" cx="429.72" cy="598.81" rx="53.42" ry="13.5"/>
		
			<ellipse transform="matrix(0.3806 -0.9248 0.9248 0.3806 -271.0915 849.6683)" class="st5" cx="498.68" cy="627.19" rx="53.42" ry="13.5"/>
		<circle class="st6" cx="441.46" cy="567.16" r="6.47"/>
		<circle class="st6" cx="441.46" cy="567.16" r="6.47"/>
		<ellipse class="st6" cx="510.28" cy="595.49" rx="6" ry="6.5"/>
	</g>
	<g>
		<g id="Ebene_2_Kopie">
			<g>
				<path class="st7" d="M825.49,565.96c30.04,10.08,121.38,41.19,134.75,29.69c21.72-18.68,118.44-261.99,107.94-282.31
					c-22-42.58-392.53-181.7-437.72-152.4c-40.74,26.42-68.22,272.38-60.77,289.9c11.27,26.48,76.61,33.96,102.03,54.49
					c11.33,9.15,46.84,100.47,61.44,103.85c8.29,1.92,67.24-22.8,91.35-43.43"/>
				<g>
					<path class="st8" d="M824.78,568.38c29.48,9.9,59.07,19.82,89.38,26.92c7.29,1.71,14.64,3.23,22.06,4.28
						c5.51,0.78,11.18,1.47,16.79,0.91c3.45-0.34,6.88-1.12,9.56-3.81c2.04-2.06,3.73-4.58,5.33-7.04
						c5.26-8.08,9.66-16.82,13.95-25.5c6.15-12.44,11.91-25.1,17.5-37.82c13.48-30.69,26.03-61.82,37.8-93.25
						c10.36-27.66,20.45-55.62,28.23-84.15c2.41-8.84,4.81-17.92,5.69-27.03c0.25-2.6,0.42-5.4-0.17-7.91
						c-0.52-2.2-1.85-4.02-3.19-5.67c-3.87-4.76-8.89-8.49-13.76-11.94c-7.22-5.11-14.82-9.63-22.5-13.93
						c-21.44-12.01-43.72-22.4-66.13-32.28c-27.45-12.11-55.28-23.31-83.34-33.85c-29.12-10.95-58.5-21.19-88.16-30.55
						c-26.49-8.36-53.22-16.08-80.32-22.26c-19.66-4.49-39.84-8.72-60.19-9.08c-6.2-0.11-12.73,0.07-18.81,2.02
						c-6.36,2.04-11.06,6.99-14.96,12.75c-6.25,9.21-10.52,19.99-14.26,30.51c-4.99,14.03-8.91,28.45-12.39,42.93
						c-8.06,33.45-13.82,67.45-18.45,101.45c-3.78,27.78-7.07,55.81-8.11,83.73c-0.27,7.1-0.77,14.76,0.53,21.7
						c0.84,4.46,3.8,8.3,6.73,11.29c5.42,5.55,12.16,9.44,18.96,12.75c16.86,8.22,34.92,13.38,52.28,20.32
						c7.69,3.07,15.38,6.44,22.29,11.17c2.35,1.61,3.25,2.16,4.87,4.2c1.28,1.61,2.31,3.24,3.37,4.99
						c7.45,12.29,13.52,25.65,19.92,38.65c7.04,14.32,14,28.81,22.3,42.29c2.82,4.59,5.79,9.35,9.6,13.04
						c2.9,2.8,5.63,3.96,9.62,3.33c5.96-0.93,11.84-3.12,17.56-5.27c8.54-3.2,16.96-6.87,25.27-10.81
						c16.03-7.6,32.47-16.08,46.41-27.93c2.41-2.05-0.7-5.6-3.08-3.57c-6.73,5.73-14.21,10.4-21.71,14.74
						c-8.49,4.92-17.19,9.37-26.01,13.47c-7.96,3.71-16.03,7.14-24.22,10.11c-5.03,1.82-11.04,4.17-15.96,4.46
						c-0.31,0.02-0.62,0.02-0.93,0.02c-0.83,0.01,0.13,0.08-0.41-0.05c-0.26-0.06-0.51-0.17-0.76-0.27
						c0.57,0.24-0.52-0.33-0.72-0.46c-1.43-0.96-2.53-2.18-3.83-3.74c-3.69-4.4-6.71-9.46-9.62-14.5
						c-8.05-13.95-15.08-28.64-22.23-43.18c-5.93-12.05-11.57-24.61-18.88-35.72c-2.82-4.3-6.17-7.07-10.42-9.71
						c-7.13-4.42-14.88-7.72-22.63-10.76c-17.12-6.72-35.01-11.74-51.47-20.13c-6.38-3.25-12.89-7.06-17.68-12.71
						c-0.92-1.08-1.78-2.22-2.5-3.47c-0.4-0.68-0.73-1.4-1.08-2.11c-0.08-0.17-0.44-1.25-0.13-0.24c-0.27-0.86-0.42-1.76-0.55-2.66
						c-0.36-2.61-0.42-5.51-0.44-8.86c-0.03-4.5,0.12-9.02,0.32-13.53c0.57-12.52,1.63-25.05,2.87-37.54
						c3.25-32.64,7.83-65.23,13.76-97.57c5.59-30.45,12.03-61.32,22.67-90.51c3.61-9.9,7.76-20.02,13.89-28.55
						c1.84-2.56,4.66-5.68,7.05-7.25c0.42-0.28,0.84-0.53,1.28-0.77c0.2-0.1,0.4-0.2,0.6-0.3c0.7-0.35-0.27,0.09,0.46-0.21
						c1.1-0.44,2.21-0.8,3.34-1.1c3.07-0.8,4.84-0.99,8-1.22c3.61-0.26,7.22-0.25,10.81-0.11c8.93,0.35,17.78,1.5,26.56,2.93
						c24.26,3.97,48.13,10.07,71.74,16.72c28.61,8.06,56.91,17.2,84.98,26.99c28.87,10.07,57.5,20.84,85.84,32.38
						c25.18,10.25,50.16,21.05,74.63,33.01c17.65,8.62,35.43,17.61,51.62,29.03c2.74,1.93,5.42,3.96,7.98,6.16
						c0.48,0.41,0.46,0.39,1.2,1.07c0.5,0.46,1,0.94,1.49,1.43c0.83,0.83,1.63,1.7,2.38,2.61c0.32,0.39,0.61,0.79,0.91,1.19
						c0.15,0.2,0.29,0.42,0.43,0.63c-0.45-0.68,0.02,0.04,0.12,0.21c0.19,0.35,0.37,0.68,0.54,1.04c0.3,0.62-0.1-0.48,0.03,0.08
						c0.05,0.22,0.12,0.44,0.15,0.66c0.05,0.28,0.21,1.76,0.15,0.91c0.04,0.61,0.06,1.23,0.05,1.85c-0.01,1.52-0.14,3.04-0.32,4.56
						c-0.97,8.46-3.43,17.72-5.85,26.44c-3.6,12.98-7.74,25.81-12.06,38.57c-10.53,31.08-22.22,61.77-34.55,92.16
						c-11.16,27.5-22.76,54.91-35.89,81.47c-4.26,8.61-8.63,17.28-13.83,25.31c-1.76,2.72-2.6,4.12-4.66,6.19
						c-0.88,0.89-1.35,1.2-2.36,1.53c-1.92,0.64-3.39,0.82-5.33,0.93c-5.75,0.33-11.52-0.4-17.15-1.29
						c-7.45-1.18-14.82-2.8-22.15-4.57c-16.66-4.04-33.1-8.93-49.44-14.09c-12.33-3.89-24.6-7.98-36.86-12.1
						C823.4,562.59,821.98,567.44,824.78,568.38L824.78,568.38z"/>
				</g>
			</g>
		</g>
		<g id="Ebene_8">
			<g>
				<g>
					<path class="st8" d="M972.6,396.84c-13.95,36.67-27.91,73.33-41.86,110c-1.53,4.02-0.76,9.74,0.97,13.32
						c1.8,3.73,5.53,7.23,9.41,8.17c4.04,0.97,8.58,0.75,12.34-1.77c3.91-2.62,6.29-6.07,8.03-10.67
						c13.95-36.67,27.91-73.33,41.86-110c1.53-4.02,0.76-9.74-0.97-13.32c-1.8-3.73-5.53-7.23-9.41-8.17
						c-4.04-0.97-8.58-0.75-12.34,1.77C976.73,388.8,974.35,392.25,972.6,396.84L972.6,396.84z"/>
				</g>
			</g>
		</g>
		<g id="Ebene_7">
			<g class="st9">
				<g>
					<path class="st6" d="M943.48,284.06c8.84,4.48,18.09,8.04,27.2,11.85c2.52,1.05,5.03,2.12,7.53,3.21
						c1.22,0.53,2.44,1.06,3.65,1.61c0.61,0.27,1.21,0.55,1.82,0.82c2,0.9-1.68-0.8,0.34,0.16c4.71,2.22,9.38,4.55,13.89,7.21
						c2.1,1.23,4.16,2.53,6.15,3.94c0.9,0.63,1.79,1.28,2.65,1.97c0.42,0.33,0.83,0.66,1.24,1c1.69,1.37-1.15-1.13-0.15-0.15
						c1.4,1.38,2.79,2.73,4,4.32c0.25,0.34,0.48,0.77,0.76,1.07c-0.4-0.43-1.27-2.15-0.56-0.8c0.41,0.78,0.71,1.79,1.19,2.52
						c-0.26-0.4-0.72-2.6-0.39-1.08c0.08,0.38,0.16,0.76,0.25,1.13c0.52,2.17,0.16-2.09-0.02-0.64c-0.09,0.73-0.43,3.41-0.01,0.94
						c0.41-2.44,0.07-0.47-0.05,0.12c-0.12,0.56-0.24,1.11-0.37,1.66c-0.3,1.26-0.63,2.51-0.99,3.76
						c-4.81,17.09-11.49,33.75-17.86,50.27c-9.03,23.41-18.42,46.68-27.85,69.92c-8.91,21.99-17.91,43.94-26.72,65.97
						c-0.91,2.28-1.82,4.57-2.73,6.85c-1.95,4.92,1.46,11.2,5.94,12.28c5.23,1.26,9.55-1.83,11.64-7.1
						c8.63-21.73,17.5-43.37,26.3-65.03c9.69-23.87,19.37-47.76,28.71-71.78c6.9-17.73,14.02-35.56,19.47-53.83
						c1.4-4.68,3.19-10.09,2.96-14.97c-0.53-11.4-8.36-19.28-16.45-25.14c-9.08-6.57-19.41-11.21-29.55-15.67
						c-9.4-4.14-18.98-7.81-28.35-12.01c-0.46-0.21-0.93-0.42-1.39-0.63c-1.41-0.64,2.2,1.05,0.53,0.24
						c-0.88-0.42-1.75-0.84-2.62-1.28c-4.27-2.16-10.07-1.54-12.8,3.59C938.5,274.73,938.89,281.73,943.48,284.06L943.48,284.06z"/>
				</g>
			</g>
			<g class="st9">
				<g>
					<path class="st6" d="M924.09,563.43c-0.33,2.2-0.66,4.41-0.99,6.61c5.38-2.38,10.76-4.76,16.13-7.15
						c-1.77-2.22-3.54-4.43-5.31-6.65c-0.9,5.25-1.8,10.5-2.7,15.74c-1.29,0.64-2.44,1.03-3.84,0.84c-0.57,0.02-1.09-0.14-1.56-0.46
						c-0.85-0.44-0.98-0.49-0.39-0.13c-0.86-0.69-1.47-1.4-2.02-2.4c0.3,0.63,0.26,0.5-0.09-0.39c-0.35-0.75-0.5-1.57-0.47-2.45
						c2.42-3.25,4.84-6.5,7.26-9.76c0.15-0.04,2.34-0.1,1.17-0.18c1.16,0.08,2.11,0.33,3.13,0.9c-1.04-0.57,0.72,0.7,0.84,0.81
						c-0.85-0.81,0.52,0.79,0.61,0.98c0.47,0.98,0.6,2.15,0.59,3.26c0.02-1.82-1.17,3.51-1.1,3.36c0.54-1.17-0.58,0.77-0.74,0.94
						c-0.41,0.33-0.82,0.67-1.22,0.99c-1.49,0.58-1.89,0.75-1.19,0.52c1.08-0.25-2.16,0.21-1.08,0.16c0.49,0.02,0.29-0.01-0.58-0.08
						c-0.56,0.02-1.07-0.11-1.54-0.41c-1.94-0.85-3.27-2.7-3.44-5.01c-0.16-2.18-0.31,0.99,0.06-1.28c0.37-2.25-0.52,0.82,0.36-1.28
						c0.16-0.59,0.45-1.08,0.87-1.5c0.59-0.7,0.72-0.87,0.38-0.51c-0.61,0.63,2.11-1.36,0.71-0.72c4.41,2.01,8.82,4.02,13.22,6.03
						c-0.24-0.95-0.48-1.9-0.73-2.84c-1.27-4.97-6.01-8.73-11-7.01c-4.64,1.6-8.41,7-7.06,12.33c0.24,0.95,0.48,1.9,0.73,2.84
						c0.78,3.05,2.38,5.28,5.06,6.52c2.84,1.32,5.3,0.83,8.17-0.49c5.76-2.65,8.74-10.87,7.24-16.97
						c-1.79-7.25-8.91-11.45-15.73-8.96c-6.58,2.4-11.46,9.99-9.4,17.38c2,7.15,8.62,11.6,15.63,9.56c4.01-1.17,7.06-5.33,7.26-9.76
						c0.22-4.79-1.96-9.51-5.71-11.91c-4.06-2.6-8.41-2.47-12.78-0.3c-5.76,2.85-6.2,11.36-2.7,15.74c1.77,2.22,3.54,4.43,5.31,6.65
						c2.36,2.95,6.63,3.61,9.98,2.12c3.76-1.68,5.53-5.11,6.15-9.26c0.33-2.2,0.66-4.41,0.99-6.61c0.35-2.33-0.96-5.39-2.33-6.98
						c-1.53-1.77-4.15-3.1-6.48-2.97c-2.35,0.13-4.83,0.98-6.56,2.91C925.28,558.33,924.52,560.59,924.09,563.43L924.09,563.43z"/>
				</g>
			</g>
		</g>
		<g id="Ebene_2_1_">
			<g>
				<g>
					<path d="M804.31,585.57c29.52,9.92,59.14,19.87,89.48,27c7.3,1.72,14.65,3.25,22.09,4.32c5.91,0.84,11.98,1.7,18.02,1.11
						c4.68-0.45,9.16-1.56,12.79-5.2c2.32-2.31,4.25-5.17,6.06-7.95c5.28-8.07,9.69-16.81,13.99-25.48
						c6.18-12.47,11.95-25.16,17.56-37.91c13.63-31,26.33-62.44,38.21-94.19c10.34-27.63,20.42-55.57,28.13-84.08
						c2.46-9.1,4.87-18.48,5.7-27.86c0.27-2.99,0.32-6.18-0.37-9.04c-0.74-3.05-2.5-5.6-4.4-7.88c-4.23-5.06-9.63-9.08-14.9-12.78
						c-7.3-5.12-14.97-9.65-22.72-13.96c-21.79-12.14-44.43-22.65-67.19-32.67c-27.44-12.09-55.24-23.27-83.28-33.8
						c-29.08-10.93-58.42-21.17-88.03-30.53c-26.4-8.34-53.03-16.06-80.03-22.26c-20.11-4.62-40.79-8.97-61.6-9.43
						c-6.62-0.14-13.6,0.08-20.1,2.1c-7.5,2.33-13.03,7.89-17.69,14.62c-6.54,9.45-10.97,20.67-14.84,31.53
						c-5.01,14.01-8.92,28.41-12.4,42.87c-8.12,33.74-13.88,68.05-18.51,102.35c-3.77,27.87-7.04,56-8,84.01
						c-0.25,7.42-0.71,15.44,0.69,22.67c1.03,5.33,4.41,10,7.96,13.57c5.86,5.9,12.94,10.11,20.24,13.62
						c17.3,8.34,35.74,13.69,53.51,20.84c1.95,0.78,3.9,1.59,5.82,2.44c0.51,0.22,1.03,0.45,1.54,0.68
						c0.27,0.12,1.99,0.92,0.33,0.15c0.98,0.46,1.96,0.92,2.93,1.4c3.59,1.78,7.11,3.74,10.43,6.04c0.63,0.44,1.26,0.89,1.87,1.36
						c0.35,0.27,0.69,0.61,1.06,0.83c0.76,0.44-1.46-1.52-0.89-0.78c0.48,0.61,1.07,1.13,1.56,1.73c0.57,0.71,1.09,1.46,1.61,2.21
						c1.18,1.68-0.78-1.28,0.12,0.16c0.39,0.63,0.79,1.26,1.17,1.9c7.41,12.25,13.52,25.51,19.92,38.44
						c7.09,14.3,14.09,28.79,22.46,42.23c3.04,4.88,6.19,10,10.29,13.91c1.93,1.85,3.98,3.56,6.52,4.38c2.54,0.82,5,0.5,7.62,0.07
						c6.03-1,11.99-3.18,17.8-5.35c8.85-3.31,17.57-7.11,26.17-11.17c16.33-7.7,32.86-16.35,47.07-28.37
						c3.03-2.56,2.88-7.96,0.56-10.64c-2.7-3.13-6.75-2.61-9.78-0.05c-0.41,0.34-2.86,2.28-1.19,1c-0.75,0.58-1.5,1.16-2.25,1.72
						c-1.76,1.3-3.55,2.56-5.36,3.78c-3.89,2.61-7.88,5.05-11.92,7.38c-8.49,4.89-17.19,9.3-25.99,13.37
						c-0.95,0.44-1.89,0.87-2.84,1.3c-0.18,0.08-2.06,0.92-0.58,0.26c-0.56,0.25-1.11,0.49-1.67,0.73
						c-2.17,0.95-4.35,1.87-6.53,2.78c-3.8,1.57-7.63,3.07-11.48,4.45c-3.13,1.12-6.28,2.18-9.46,3.06
						c-1.19,0.33-2.38,0.64-3.59,0.89c-0.5,0.1-1.18,0.1-1.66,0.32c1.74-0.79,1.27-0.15,0.15-0.06c-0.38,0.03-0.76,0-1.14,0.03
						c-1.29,0.12,1.2,0.31,0.95,0.15c-0.18-0.11-0.7-0.3-0.91-0.31c1.81,0.08,1.54,0.87,0.56,0.16c-0.33-0.24-0.67-0.5-1.01-0.74
						c-1.2-0.83,1.36,1.35,0.31,0.27c-0.76-0.78-1.52-1.54-2.23-2.38c-1.69-1.98-3.19-4.13-4.67-6.3c-0.27-0.4-1.13-1.5,0.14,0.23
						c-0.24-0.32-0.44-0.68-0.65-1.01c-0.41-0.64-0.81-1.29-1.21-1.94c-0.92-1.5-1.83-3.01-2.72-4.54
						c-8.07-13.88-15.11-28.48-22.29-42.95c-6.18-12.46-12.1-25.33-19.71-36.81c-2.94-4.44-6.56-7.5-10.95-10.26
						c-7.59-4.78-15.92-8.29-24.2-11.55c-8.69-3.41-17.51-6.44-26.27-9.65c-4.33-1.59-8.65-3.21-12.93-4.95
						c-1.97-0.8-3.93-1.63-5.87-2.49c-0.52-0.23-1.03-0.46-1.55-0.69c-1.67-0.75,0.91,0.46-0.11-0.05
						c-1.07-0.53-2.15-1.03-3.22-1.56c-3.51-1.77-6.95-3.7-10.21-5.95c-1.42-0.98-2.74-2.06-4.1-3.12
						c-1.26-0.98,1.13,1.13,0.01,0.01c-0.31-0.31-0.64-0.6-0.96-0.91c-0.61-0.6-1.2-1.22-1.77-1.87c-0.55-0.62-1.07-1.27-1.56-1.94
						c-0.16-0.22-0.31-0.45-0.47-0.66c-0.89-1.15,0.79,1.49,0.12,0.18c-0.48-0.95-0.94-2.29-1.57-3.11c1.2,1.59,0.58,2.08,0.4,1.13
						c-0.03-0.18-0.09-0.36-0.13-0.53c-0.11-0.5-0.19-1.02-0.27-1.53c-0.08-0.57-0.13-1.13-0.2-1.71c-0.2-1.74,0.08,1.33,0.05,0.7
						c-0.02-0.38-0.05-0.76-0.07-1.14c-0.1-1.74-0.14-3.49-0.15-5.24c-0.04-4.53,0.09-9.09,0.29-13.63
						c0.54-12.46,1.57-24.92,2.79-37.35c1.52-15.56,3.39-31.1,5.52-46.6c1.18-8.55,2.44-17.09,3.79-25.62
						c0.32-2.02,0.65-4.04,0.98-6.06c0.09-0.53,0.58-3.5,0.21-1.31c0.22-1.28,0.43-2.57,0.65-3.86c0.72-4.22,1.46-8.44,2.23-12.65
						c5.54-30.38,11.94-61.18,22.58-90.28c1.08-2.94,2.21-5.86,3.41-8.75c0.26-0.63,1.28-2.69,0.09-0.23
						c0.32-0.66,0.6-1.36,0.89-2.03c0.58-1.3,1.19-2.59,1.81-3.87c2.09-4.29,4.44-8.42,7.19-12.28c0.15-0.22,0.34-0.42,0.48-0.65
						c0.06-0.09-1.34,1.69-0.69,0.91c0.33-0.39,0.64-0.81,0.97-1.2c0.63-0.75,1.28-1.47,1.96-2.16c0.58-0.59,1.21-1.12,1.82-1.69
						c1.08-1-1.77,1.24-0.3,0.24c0.33-0.23,0.66-0.47,1.01-0.69c0.4-0.26,0.82-0.48,1.23-0.71c0.24-0.13,0.5-0.22,0.73-0.36
						c0.23-0.13-2.14,0.85-0.76,0.35c1.12-0.4,2.22-0.78,3.36-1.07c0.6-0.15,1.21-0.29,1.81-0.4c0.35-0.07,0.7-0.13,1.05-0.19
						c1.72-0.32-1,0.13-0.52,0.07c1.51-0.18,3.01-0.36,4.52-0.46c3.63-0.24,7.25-0.21,10.87-0.06c4.22,0.18,8.41,0.55,12.59,1.03
						c1.1,0.12,2.19,0.26,3.28,0.4c0.51,0.06,1.02,0.13,1.52,0.2c0.31,0.04,0.62,0.08,0.92,0.12c1.75,0.23-1.47-0.22-0.28-0.04
						c2.47,0.36,4.94,0.74,7.4,1.14c24.25,4.02,48.1,10.14,71.71,16.81c28.41,8.03,56.52,17.11,84.39,26.83
						c28.91,10.08,57.59,20.87,85.98,32.42c13.22,5.38,26.37,10.92,39.44,16.69c6.23,2.74,12.46,5.5,18.62,8.4
						c-1.65-0.78-0.14-0.06,0.61,0.29c0.76,0.35,1.51,0.7,2.27,1.06c1.49,0.7,2.98,1.4,4.47,2.11c2.77,1.32,5.55,2.65,8.31,3.99
						c17.69,8.63,35.5,17.61,51.77,28.99c2.74,1.92,5.44,3.93,8,6.11c0.24,0.2,0.48,0.42,0.72,0.62c-2.19-1.75-0.9-0.8-0.4-0.34
						c0.51,0.47,1.02,0.94,1.52,1.44c0.85,0.83,1.67,1.7,2.44,2.62c0.32,0.39,0.64,0.78,0.94,1.19c0.14,0.19,0.27,0.4,0.42,0.58
						c0.76,0.99-1.12-1.95-0.49-0.75c0.19,0.36,0.39,0.73,0.6,1.07c0.75,1.22-0.44-2.34-0.18-0.49c0.06,0.44,0.11,0.94,0.21,1.37
						c-0.5-2.24-0.07-1.35-0.06,0.02c0.01,1.42-0.1,2.86-0.25,4.28c-0.08,0.8-0.19,1.6-0.3,2.41c-0.07,0.47-0.14,0.94-0.21,1.41
						c-0.3,2.01,0.34-1.9,0.05-0.28c-0.38,2.09-0.78,4.18-1.23,6.26c-1.12,5.16-2.45,10.28-3.85,15.38
						c-3.54,12.83-7.62,25.51-11.88,38.11c-10.51,31.13-22.22,61.86-34.56,92.27c-3.09,7.61-6.23,15.21-9.42,22.78
						c-1.55,3.66-3.1,7.32-4.67,10.97c-0.18,0.41-0.9,2.07,0,0.01c-0.17,0.39-0.33,0.78-0.5,1.16c-0.37,0.85-0.73,1.7-1.1,2.55
						c-0.8,1.82-1.59,3.64-2.39,5.46c-5.48,12.45-11.13,24.83-17.16,37.01c-4.26,8.61-8.64,17.27-13.86,25.3
						c-0.85,1.31-1.81,2.53-2.66,3.83c1.72-2.63,0.51-0.67-0.07,0.02c-0.37,0.43-0.76,0.84-1.15,1.25
						c-0.15,0.17-0.34,0.29-0.49,0.47c-0.76,0.87,1.83-1.07,0.71-0.57c-0.29,0.13-0.69,0.35-0.95,0.55
						c-0.47,0.34-1.24-0.45,1.13-0.5c-0.23,0.01-0.54,0.22-0.78,0.29c-0.83,0.22-1.65,0.4-2.48,0.6c-1.11,0.25,1.91-0.18,0.77-0.12
						c-0.27,0.02-0.54,0.06-0.81,0.09c-0.57,0.05-1.15,0.09-1.72,0.12c-2.59,0.12-5.17,0-7.73-0.21c-1.43-0.12-2.85-0.27-4.28-0.44
						c-0.55-0.07-3.41-0.35-1.06-0.13c-0.86-0.08-1.73-0.26-2.58-0.39c-7.55-1.21-15.01-2.86-22.43-4.67
						c-16.59-4.05-32.96-8.93-49.24-14.07c-12.35-3.9-24.63-8.01-36.91-12.13c-3.52-1.18-7.6,1.5-8.73,5.33
						C798.67,580.42,800.78,584.39,804.31,585.57L804.31,585.57z"/>
				</g>
			</g>
		</g>
		<g id="Ebene_5">
			<g>
				<g>
					<path class="st6" d="M693.05,379.52c11.61,36.57,23.22,73.13,34.83,109.7c1.69,5.31,3.97,9.15,8.85,11.4
						c4.33,2,9.97,2.23,14.29-0.86c27.47-19.64,54.95-39.28,82.43-58.92c27.47-19.64,54.95-39.28,82.43-58.92
						c15.51-11.09,31.02-22.18,46.54-33.27c3.71-2.66,6.65-5.98,8.03-10.67c1.22-4.16,1.01-9.62-0.97-13.32
						c-4.05-7.54-14.03-11.92-21.75-6.4c-27.47,19.64-54.95,39.28-82.43,58.92c-27.47,19.64-54.95,39.28-82.43,58.92
						c-15.51,11.09-31.02,22.18-46.54,33.27c7.71,3.51,15.43,7.03,23.14,10.54c-11.61-36.57-23.22-73.13-34.83-109.7
						c-1.4-4.4-3.11-8.01-6.9-10.5c-3.35-2.2-8.4-3.14-12.35-1.78c-3.97,1.37-7.88,3.99-10.05,8.06
						C693.27,369.91,691.69,375.22,693.05,379.52L693.05,379.52z"/>
				</g>
			</g>
		</g>
		<g id="Ebene_9_1_">
			<g class="st10">
				<path d="M625.97,164.77c-40.08,136.16,49.78,337.41,119.18,447.05c-12.59,0-21.84-22.26-40.74-52.11
					c-26.71-42.19-15.51-43.09-32.94-57.83c-14.48-12.24-35.39-16.24-53.13-22.14c-16.34-5.44-36.05-14.73-43.92-27.04
					c-10.38-16.23,10-177.38,40.74-271.04"/>
				<g>
					<path d="M621.58,163.48c-8.28,28.27-10.86,57.95-9.97,86.99c0.99,32.2,5.96,63.95,13.2,94.8c7.67,32.73,17.91,64.61,29.7,95.64
						c11.63,30.6,24.86,60.42,39.35,89.42c12.99,26,27,51.39,42.12,75.91c1.67,2.71,3.36,5.41,5.06,8.09
						c1.44-2.51,2.88-5.02,4.32-7.53c-0.34,0-0.67-0.03-1-0.05c1.24,0.08,0.18,0.04-0.1-0.04c-0.55-0.15-1.09-0.3-1.62-0.49
						c-1.23-0.44,0.35,0.31-0.8-0.4c-0.65-0.4-1.28-0.8-1.9-1.26c-0.32-0.24-0.63-0.5-0.94-0.75c0.69,0.58-0.03-0.02-0.19-0.18
						c-0.59-0.57-1.17-1.15-1.73-1.75c-1.24-1.34-2.4-2.79-3.51-4.27c-5.9-7.86-10.69-16.72-15.75-25.24
						c-9.92-16.67-20.95-32.57-28-51.11c-1.4-3.7-2.62-7.55-4.51-10.97c-2.37-4.29-5.57-7.72-9.1-10.86
						c-17.46-15.48-40.63-18.63-61.6-26.37c-9.56-3.53-19-7.89-27.27-14.1c-3.39-2.55-6.47-5.51-8.97-9.09
						c-0.37-0.53,0.25,0.69-0.12-0.25c-0.08-0.21-0.19-0.44-0.29-0.64c-0.33-0.66,0-0.96,0.08,0.3c-0.02-0.32-0.21-0.7-0.3-1.01
						c-0.41-1.55-0.66-3.16-0.85-4.77c-0.07-0.52-0.12-1.05-0.17-1.58c-0.04-0.4-0.14-2.01-0.04-0.4c-0.07-1.13-0.15-2.25-0.2-3.39
						c-0.24-5.63-0.15-11.31,0.06-16.96c1.29-34.92,6.29-70.05,12.04-104.65c6.75-40.59,15.12-81.22,26.98-120.73
						c1.29-4.31,2.63-8.59,4.04-12.87c2.02-6.18-6.76-8.76-8.79-2.59c-12.81,39.13-21.51,79.71-28.7,120.16
						c-6.61,37.18-12.21,74.81-14.39,112.38c-0.66,11.27-1.27,22.91,0.24,34.01c0.53,3.86,1.55,7.2,3.69,10.27
						c5.73,8.23,14.67,13.79,23.16,18.16c9.91,5.11,20.35,8.81,30.98,12c10.92,3.28,22.14,6.21,32.29,11.61
						c2.49,1.32,4.92,2.79,7.24,4.44c1.04,0.74,2.06,1.52,3.05,2.33c0.42,0.34,0.83,0.7,1.24,1.04c0.72,0.62-0.42-0.39,0.45,0.4
						c1.81,1.65,3.56,3.37,5.11,5.31c0.28,0.36,0.56,0.72,0.82,1.08c0.36,0.5,0.81,1.29,0.21,0.27c0.5,0.86,1.02,1.7,1.47,2.6
						c0.85,1.69,1.54,3.46,2.21,5.25c2.05,5.44,4.12,10.84,6.6,16.04c4.77,9.97,10.57,19.2,16.32,28.48
						c6.18,9.98,11.91,20.31,18.23,30.19c4.16,6.51,8.67,13.67,15.11,17.74c2.68,1.69,5.66,2.68,8.84,2.73
						c3.2,0.05,6.27-4.45,4.32-7.53c-14.95-23.63-28.8-48.12-41.7-73.2c-14.52-28.24-27.85-57.28-39.7-87.07
						c-12.09-30.34-22.65-61.51-30.87-93.54c-7.79-30.36-13.66-61.64-15.62-93.44c-1.76-28.58-0.52-57.94,6.31-86.01
						c0.81-3.34,1.71-6.66,2.68-9.96C632.19,159.83,623.41,157.23,621.58,163.48L621.58,163.48z"/>
				</g>
			</g>
		</g>
	</g>
</g>
<g id="Ebene_22">
</g>
<g id="Ebene_23">
</g>
</svg>
