<?xml version="1.0" encoding="utf-8"?>
<!-- Generator: Adobe Adobe Illustrator 24.2.0, SVG Export Plug-In . SVG Version: 6.00 Build 0)  -->
<svg version="1.1" xmlns="http://www.w3.org/2000/svg" xmlns:xlink="http://www.w3.org/1999/xlink" x="0px" y="0px"
	 viewBox="0 0 2000 2000" style="enable-background:new 0 0 2000 2000;" xml:space="preserve">
<style type="text/css">
	.st0{fill:#6DB671;}
	.st1{fill:#6CB671;}
	.st2{opacity:0.149;}
	.st3{fill:#FFFFFF;}
	.st4{opacity:0.0314;}
	.st5{fill:#2B4975;}
	.st6{fill:#F0C1A1;}
	.st7{fill:#CA354F;}
	.st8{fill:#FFFFFF;stroke:#FFFFFF;stroke-width:0.782;stroke-miterlimit:10;}
	.st9{opacity:0.4;}
	.st10{fill:#CC3C55;}
	.st11{fill:#1F3557;}
	.st12{fill:#1D3963;}
	.st13{clip-path:url(#SVGID_2_);}
	.st14{clip-path:url(#SVGID_4_);}
	.st15{opacity:0.1098;}
</style>
<g id="Ebene_6">
</g>
<g id="Ebene_24">
</g>
<g id="Ebene_29">
	<g>
		<g id="Ebene_2_Kopie">
			<g>
				<path class="st0" d="M1502.09,840.02c69.13,2.35,279.59,10.37,300.51-18.94c33.98-47.62,86.52-563.8,52.01-596.52
					c-72.32-68.57-934.1-125.63-1010.66-44.72c-69.03,72.96,25.04,555.45,51.45,584.56c39.92,44,181.38,21.66,247.28,46.44
					c29.38,11.05,160.03,164.64,192.7,162.89c18.54-0.99,126.77-80.9,164.53-133.56"/>
				<g>
					<path class="st1" d="M1502.09,845.03c67.85,2.31,135.93,4.62,203.78,1.16c16.32-0.83,32.65-2.04,48.85-4.2
						c12.01-1.6,24.31-3.46,35.73-7.66c7.02-2.58,13.73-5.97,17.67-12.58c3-5.05,4.99-10.78,6.82-16.34
						c6.03-18.29,9.86-37.35,13.5-56.24c5.21-27.07,9.47-54.33,13.34-81.62c9.32-65.82,16.4-131.97,21.68-198.23
						c4.65-58.32,8.54-117.07,7.25-175.61c-0.4-18.13-0.97-36.72-4.74-54.51c-1.07-5.07-2.45-10.49-5.24-14.92
						c-2.44-3.88-6.35-6.61-10.18-8.99c-11.04-6.87-23.84-11.15-36.18-14.98c-18.28-5.67-36.98-10-55.71-13.87
						c-52.31-10.83-105.37-18.09-158.39-24.34c-64.95-7.66-130.14-13.36-195.4-17.7c-67.74-4.51-135.58-7.54-203.46-8.73
						c-60.63-1.06-121.37-0.79-181.94,2.62c-43.93,2.47-88.82,5.71-131.65,16.4c-13.05,3.26-26.61,7.25-38.15,14.35
						c-12.07,7.43-18.85,19.46-23.47,32.57c-7.41,20.98-9.71,43.84-11.05,65.92c-1.79,29.44-1.11,59.02,0.51,88.46
						c3.75,68.03,12.65,135.83,23.91,202.99c9.2,54.87,19.6,109.94,34.64,163.55c3.82,13.63,7.48,28.47,14.48,40.91
						c4.51,8,13.07,13.64,21.05,17.69c14.77,7.51,31.29,11.13,47.56,13.62c40.37,6.19,81.39,5.89,122.01,9.37
						c18,1.54,36.19,3.64,53.57,8.75c5.92,1.74,8.14,2.28,12.79,5.25c3.67,2.34,6.83,4.86,10.13,7.59
						c23.18,19.18,44.14,41.16,65.55,62.26c23.58,23.25,47.09,46.89,72.77,67.85c8.74,7.13,17.89,14.53,28.14,19.4
						c7.8,3.7,14.22,4.37,22.2,0.95c11.9-5.09,22.88-12.55,33.53-19.82c15.91-10.86,31.28-22.53,46.25-34.66
						c28.88-23.39,58.1-48.69,79.97-78.99c3.78-5.23-4.91-10.24-8.65-5.06c-10.56,14.64-23.35,27.7-36.37,40.14
						c-14.74,14.09-30.23,27.4-46.16,40.13c-14.38,11.49-29.17,22.53-44.49,32.74c-9.42,6.27-20.54,14.09-30.67,17.39
						c-0.64,0.21-1.29,0.38-1.94,0.56c-1.73,0.48,0.32,0.07-0.9,0.13c-0.58,0.03-1.17-0.03-1.75-0.09c1.35,0.14-1.29-0.34-1.79-0.48
						c-3.59-1.03-6.64-2.73-10.33-4.96c-10.44-6.3-19.89-14.21-29.09-22.16c-25.47-22-49.23-45.96-73.18-69.58
						c-19.85-19.58-39.41-40.26-61.57-57.29c-8.56-6.58-17.28-9.98-27.81-12.61c-17.65-4.42-35.93-6.34-54.04-7.79
						c-39.99-3.2-80.56-2.72-120.2-9.45c-15.36-2.61-31.34-6.2-44.86-14.26c-2.59-1.54-5.1-3.23-7.37-5.2
						c-1.25-1.08-2.39-2.25-3.56-3.41c-0.27-0.27-1.69-2.12-0.43-0.39c-1.09-1.49-1.97-3.1-2.79-4.75
						c-2.36-4.75-4.28-10.22-6.39-16.57c-2.83-8.54-5.31-17.19-7.66-25.87c-6.53-24.1-12.03-48.48-17.13-72.91
						c-13.31-63.8-23.82-128.27-31.33-193.01c-7.07-60.96-12.61-123.19-8.33-184.57c1.46-20.83,3.92-42.36,11.48-61.98
						c2.28-5.9,6.26-13.39,10.29-17.71c0.7-0.76,1.44-1.48,2.21-2.17c0.35-0.31,0.71-0.61,1.07-0.91c1.25-1.06-0.52,0.32,0.84-0.65
						c2.03-1.44,4.13-2.76,6.31-3.95c5.93-3.23,9.53-4.59,16-6.78c7.4-2.51,14.97-4.51,22.58-6.25c18.91-4.32,38.16-7.1,57.43-9.28
						c53.25-6.03,107-7.79,160.56-8.36c64.89-0.69,129.79,0.85,194.61,3.74c66.66,2.98,133.27,7.44,199.73,13.51
						c59.05,5.39,118.04,11.94,176.65,20.97c42.28,6.51,85.05,13.63,126,26.27c6.93,2.14,13.8,4.49,20.52,7.24
						c1.26,0.52,1.21,0.49,3.17,1.37c1.34,0.6,2.68,1.23,3.99,1.88c2.25,1.12,4.46,2.31,6.59,3.63c0.9,0.56,1.77,1.15,2.65,1.75
						c0.44,0.3,0.87,0.63,1.3,0.96c-1.37-1.04,0.07,0.06,0.38,0.33c0.61,0.55,1.2,1.09,1.78,1.67c1.01,1.01-0.51-0.85,0.11,0.13
						c0.25,0.39,0.52,0.76,0.73,1.17c0.27,0.5,1.52,3.22,0.87,1.64c0.47,1.14,0.88,2.31,1.25,3.48c0.91,2.89,1.58,5.86,2.15,8.84
						c3.19,16.61,3.74,35.58,4.04,53.49c0.46,26.67-0.3,53.35-1.49,79.99c-2.89,64.92-8.46,129.75-15.54,194.34
						c-6.41,58.47-13.82,117.01-24.95,174.79c-3.61,18.74-7.42,37.64-13.36,55.81c-2.01,6.14-2.91,9.27-5.95,14.37
						c-1.3,2.18-2.09,3.03-3.99,4.23c-3.63,2.3-6.6,3.46-10.59,4.75c-11.85,3.84-24.38,5.68-36.71,7.13
						c-16.34,1.92-32.77,2.97-49.2,3.7c-37.38,1.65-74.83,1.54-112.23,0.89c-28.23-0.49-56.44-1.41-84.65-2.38
						C1495.64,834.79,1495.65,844.81,1502.09,845.03L1502.09,845.03z"/>
				</g>
			</g>
		</g>
		<g id="Ebene_8_1_">
			<g>
				<g>
					<path class="st1" d="M1705.93,436.59c-6.62,77.44-13.24,154.87-19.85,232.31c-0.72,8.48,4.42,18.92,10.25,24.75
						c6.07,6.07,16.03,10.64,24.75,10.25c9.05-0.41,18.44-3.38,24.75-10.25c6.58-7.17,9.42-15.05,10.25-24.75
						c6.62-77.44,13.24-154.87,19.85-232.31c0.72-8.48-4.42-18.92-10.25-24.75c-6.07-6.07-16.03-10.64-24.75-10.25
						c-9.05,0.41-18.44,3.38-24.75,10.25C1709.61,419.01,1706.76,426.89,1705.93,436.59L1705.93,436.59z"/>
				</g>
			</g>
		</g>
		<g id="Ebene_7_1_">
			<g class="st2">
				<g>
					<path class="st3" d="M1575.4,238.66c21.27,3.56,42.84,5.15,64.28,7.3c5.92,0.59,11.84,1.21,17.75,1.88
						c2.88,0.33,5.76,0.66,8.64,1.02c1.44,0.18,2.88,0.36,4.32,0.54c4.74,0.6-4.01-0.58,0.82,0.11c11.24,1.59,22.46,3.4,33.53,5.92
						c5.15,1.17,10.27,2.49,15.31,4.04c2.27,0.7,4.53,1.44,6.77,2.25c1.08,0.39,2.14,0.8,3.21,1.2c4.38,1.65-3.1-1.51-0.41-0.2
						c3.78,1.84,7.53,3.62,11.03,5.97c0.74,0.5,1.48,1.19,2.26,1.61c-1.11-0.59-3.98-3.37-1.67-1.21c1.34,1.26,2.6,3.01,4.04,4.12
						c-0.79-0.61-3.11-4.53-1.48-1.84c0.4,0.67,0.81,1.35,1.23,2.01c2.43,3.83-0.96-4.05-0.44-1.21c0.26,1.44,1.21,6.71,0.55,1.79
						c-0.65-4.87-0.14-0.93-0.03,0.25c0.1,1.12,0.18,2.24,0.25,3.35c0.15,2.56,0.22,5.12,0.25,7.69
						c0.47,35.15-3.25,70.52-6.42,105.47c-4.49,49.51-9.81,98.95-15.22,148.37c-5.11,46.74-10.42,93.46-15.3,140.23
						c-0.51,4.84-1,9.69-1.5,14.54c-1.06,10.44,9.95,20.45,20,20c11.74-0.53,18.87-8.81,20-20c4.68-46.1,9.91-92.15,14.98-138.21
						c5.58-50.76,11.11-101.54,15.88-152.39c3.52-37.54,7.44-75.38,7.6-113.12c0.04-9.66,0.46-20.95-3.02-30.08
						c-8.15-21.36-29.4-31.94-49.95-38.54c-23.07-7.41-47.56-10.44-71.54-13.25c-22.23-2.6-44.57-4.22-66.78-6.95
						c-1.1-0.13-2.2-0.28-3.3-0.42c-3.34-0.42,5.26,0.76,1.26,0.16c-2.1-0.31-4.19-0.62-6.28-0.97c-10.28-1.72-22.04,2.7-24.6,13.97
						C1559.23,223.72,1564.36,236.81,1575.4,238.66L1575.4,238.66z"/>
				</g>
			</g>
			<g class="st2">
				<g>
					<path class="st3" d="M1707.04,780.09c0.67,4.37,1.34,8.74,2.01,13.1c9.79-7.53,19.59-15.06,29.38-22.59
						c-5.08-3.22-10.15-6.44-15.23-9.66c1.35,10.47,2.7,20.94,4.05,31.41c-2.3,1.93-4.47,3.31-7.52,3.75
						c-1.18,0.35-2.37,0.35-3.55-0.01c-2.05-0.37-2.35-0.38-0.89-0.04c-2.23-0.83-3.93-1.83-5.71-3.42c1.01,1.03,0.86,0.8-0.43-0.69
						c-1.19-1.24-2.02-2.71-2.49-4.4c3.06-7.53,6.13-15.06,9.19-22.59c0.28-0.16,4.84-1.5,2.33-0.99c2.48-0.5,4.62-0.55,7.11-0.05
						c-2.53-0.51,1.94,0.92,2.25,1.07c-2.28-1.06,1.58,1.21,1.89,1.52c1.6,1.6,2.59,3.74,3.25,5.87c-1.08-3.46-0.29,7.33-0.24,7
						c0.42-2.52-0.73,1.79-0.96,2.2c-0.65,0.86-1.3,1.72-1.95,2.57c-2.77,1.93-3.49,2.48-2.18,1.66c2.1-1.07-4.4,1.6-2.17,0.91
						c1.03-0.24,0.6-0.19-1.27,0.17c-1.15,0.35-2.31,0.38-3.47,0.09c-4.59-0.52-8.52-3.29-10.3-7.58c-1.68-4.05-0.03,2.05-0.66-2.46
						c-0.62-4.47-0.59,1.86-0.04-2.63c-0.03-1.2,0.28-2.31,0.91-3.33c0.81-1.67,0.97-2.06,0.48-1.18c-0.89,1.53,3.58-3.76,1.05-1.76
						c10.47,1.35,20.94,2.7,31.41,4.05c-1.09-1.66-2.18-3.33-3.27-4.99c-5.72-8.74-17.97-13.23-27.36-7.17
						c-8.73,5.63-13.3,18-7.18,27.36c1.09,1.66,2.18,3.33,3.27,4.99c3.51,5.36,8.24,8.69,14.61,9.55c6.76,0.91,11.61-1.39,16.8-5.5
						c10.43-8.26,11.6-25.54,4.69-36.28c-8.21-12.77-25.71-16.76-38.47-8.22c-12.31,8.23-17.85,25.38-8.96,38.27
						c8.6,12.46,25.2,17.21,38.62,9.41c7.67-4.46,11.5-14.06,9.19-22.59c-2.49-9.22-9.98-16.97-19.3-19.43
						c-10.11-2.67-19.13,0.01-26.95,6.58c-10.3,8.64-5.98,25.05,4.05,31.41c5.08,3.22,10.15,6.44,15.23,9.66
						c6.77,4.29,16.11,3.15,22.21-1.56c6.84-5.29,8.43-12.8,7.17-21.02c-0.67-4.37-1.34-8.74-2.01-13.1
						c-0.71-4.62-5.34-9.7-9.19-11.95c-4.29-2.51-10.6-3.57-15.41-2.02c-4.84,1.57-9.51,4.57-11.95,9.19
						C1706.38,769.74,1706.18,774.47,1707.04,780.09L1707.04,780.09z"/>
				</g>
			</g>
		</g>
		<g id="Ebene_2_1_">
			<g>
				<g>
					<path d="M1469.83,889.12c67.94,2.34,136.11,4.67,204.05,1.26c16.34-0.82,32.69-2.02,48.92-4.15c12.9-1.7,26.14-3.48,38.43-7.97
						c9.52-3.48,18.21-8.09,23.59-17.02c3.43-5.69,5.71-12.2,7.8-18.48c6.08-18.27,9.93-37.34,13.58-56.22
						c5.25-27.13,9.52-54.46,13.4-81.82c9.43-66.49,16.64-133.31,21.95-200.26c4.62-58.25,8.51-116.95,7.07-175.41
						c-0.46-18.65-1.2-37.82-5.23-56.1c-1.28-5.82-3.13-11.92-6.35-16.97c-3.43-5.37-8.68-9.24-14.06-12.5
						c-11.97-7.25-25.77-11.85-39.09-15.93c-18.45-5.64-37.3-9.95-56.19-13.82c-53.13-10.88-107.02-18.17-160.86-24.49
						c-64.91-7.62-130.04-13.3-195.25-17.64c-67.65-4.5-135.41-7.55-203.19-8.76c-60.43-1.08-120.96-0.85-181.32,2.47
						c-44.97,2.47-90.95,5.76-134.82,16.53c-13.95,3.43-28.44,7.76-40.81,15.23c-14.28,8.62-22.43,22.28-28.04,37.66
						c-7.87,21.6-10.22,45.39-11.65,68.18c-1.85,29.4-1.17,58.95,0.46,88.35c3.79,68.62,12.89,137.01,24.33,204.74
						c9.29,55.04,19.79,110.29,35.04,164.03c4.04,14.23,8.03,29.72,15.42,42.66c5.45,9.54,15.4,16.53,25.03,21.33
						c15.9,7.93,33.32,11.96,50.79,14.56c41.38,6.17,83.3,6.02,124.92,9.67c4.57,0.4,9.14,0.85,13.7,1.37
						c1.21,0.14,2.43,0.28,3.64,0.43c0.65,0.08,4.73,0.63,0.79,0.09c2.34,0.32,4.67,0.66,7,1.03c8.62,1.38,17.2,3.12,25.56,5.64
						c1.59,0.48,3.18,0.99,4.75,1.53c0.89,0.31,1.83,0.78,2.74,0.98c1.86,0.41-4-2.06-2.35-0.99c1.38,0.89,2.94,1.54,4.33,2.42
						c1.63,1.03,3.18,2.17,4.74,3.29c3.51,2.54-2.42-1.99,0.34,0.24c1.21,0.98,2.43,1.95,3.63,2.95
						c23.08,19.13,44.04,40.9,65.42,61.86c23.67,23.19,47.26,46.8,73.07,67.64c9.37,7.57,19.13,15.53,30.13,20.67
						c5.19,2.43,10.53,4.53,16.35,4.67c5.83,0.14,10.79-1.84,16.01-4.13c12.02-5.28,23.15-12.74,33.97-20.11
						c16.49-11.23,32.41-23.33,47.93-35.85c29.45-23.75,58.75-49.42,81.09-80.19c4.76-6.56,1.12-16.72-5.38-20.52
						c-7.58-4.43-15.75-1.19-20.52,5.38c-0.64,0.88-4.59,5.94-1.87,2.56c-1.21,1.51-2.42,3.03-3.65,4.52
						c-2.88,3.46-5.85,6.85-8.89,10.17c-6.54,7.14-13.39,14-20.41,20.67c-14.76,14.03-30.26,27.27-46.2,39.92
						c-1.71,1.36-3.42,2.7-5.14,4.05c-0.32,0.25-3.74,2.89-1.05,0.82c-1.01,0.78-2.03,1.56-3.05,2.33
						c-3.96,3.02-7.95,5.99-11.97,8.93c-7,5.11-14.08,10.09-21.31,14.87c-5.86,3.88-11.81,7.65-17.93,11.11
						c-2.29,1.29-4.6,2.54-6.96,3.7c-0.99,0.48-2.41,0.85-3.27,1.53c3.16-2.48,2.58-0.99,0.28-0.2c-0.78,0.27-1.6,0.43-2.37,0.7
						c-2.63,0.96,2.71-0.09,2.08-0.24c-0.44-0.1-1.66-0.18-2.09-0.08c3.83-0.86,3.75,0.79,1.27-0.01c-0.85-0.27-1.71-0.58-2.57-0.84
						c-3.03-0.91,3.69,1.8,0.81,0.34c-2.07-1.05-4.13-2.08-6.13-3.27c-4.76-2.82-9.23-6.05-13.66-9.35
						c-0.81-0.6-3.29-2.21,0.43,0.35c-0.69-0.47-1.34-1.04-1.99-1.56c-1.25-0.99-2.5-1.99-3.73-3c-2.86-2.33-5.69-4.7-8.49-7.1
						c-25.46-21.84-49.21-45.64-73.15-69.11c-20.62-20.22-40.95-41.35-63.97-58.89c-8.9-6.79-18.37-10.57-29.26-13.36
						c-18.84-4.83-38.45-6.85-57.8-8.4c-20.3-1.62-40.64-2.45-60.97-3.64c-10.05-0.59-20.1-1.26-30.13-2.17
						c-4.62-0.42-9.23-0.89-13.83-1.44c-1.23-0.15-2.45-0.3-3.68-0.45c-3.97-0.49,2.2,0.37-0.25-0.03c-2.56-0.42-5.14-0.75-7.7-1.17
						c-8.44-1.39-16.84-3.14-25.04-5.59c-3.57-1.06-7.01-2.38-10.52-3.63c-3.23-1.15,3.06,1.51,0.03,0.01
						c-0.84-0.42-1.72-0.78-2.56-1.19c-1.65-0.8-3.27-1.65-4.85-2.56c-1.53-0.88-3.02-1.81-4.47-2.81c-0.47-0.32-0.92-0.68-1.4-0.99
						c-2.58-1.68,2.57,2.38,0.37,0.27c-1.6-1.54-3.39-3.82-5.2-5.04c3.49,2.36,2.5,3.62,1.54,1.93c-0.18-0.32-0.4-0.63-0.6-0.94
						c-0.55-0.89-1.03-1.82-1.51-2.75c-0.52-1.03-0.98-2.08-1.47-3.13c-1.48-3.19,0.99,2.49,0.54,1.3
						c-0.27-0.72-0.58-1.42-0.86-2.13c-1.28-3.25-2.44-6.55-3.55-9.86c-2.88-8.59-5.41-17.31-7.8-26.05
						c-6.55-23.96-12.07-48.2-17.19-72.5c-6.4-30.4-12.08-60.95-17.16-91.59c-2.8-16.89-5.42-33.82-7.85-50.77
						c-0.57-4.02-1.14-8.04-1.69-12.06c-0.14-1.05-0.94-6.97-0.36-2.6c-0.34-2.56-0.68-5.13-1.02-7.69
						c-1.1-8.42-2.14-16.84-3.13-25.28c-7.12-60.79-12.71-122.88-8.36-184.09c0.44-6.19,1.01-12.37,1.75-18.53
						c0.16-1.35,1.02-5.82,0.04-0.48c0.26-1.44,0.41-2.91,0.62-4.35c0.42-2.79,0.89-5.58,1.41-8.36c1.74-9.32,4.12-18.47,7.49-27.34
						c0.19-0.5,0.46-0.99,0.61-1.5c0.06-0.21-1.77,3.96-0.89,2.12c0.44-0.93,0.84-1.89,1.29-2.82c0.85-1.77,1.77-3.51,2.78-5.2
						c0.86-1.45,1.84-2.81,2.77-4.22c1.65-2.5-2.93,3.35-0.47,0.63c0.56-0.62,1.1-1.27,1.68-1.88c0.68-0.71,1.41-1.37,2.14-2.04
						c0.42-0.38,0.9-0.7,1.31-1.09c0.39-0.38-3.96,2.81-1.38,1.1c2.09-1.38,4.17-2.73,6.38-3.92c1.17-0.63,2.35-1.22,3.55-1.78
						c0.69-0.32,1.38-0.63,2.07-0.95c3.4-1.57-2.01,0.8-1.05,0.43c3.05-1.18,6.08-2.37,9.18-3.4c7.45-2.48,15.06-4.46,22.72-6.19
						c8.94-2.01,17.96-3.66,27.01-5.09c2.37-0.38,4.74-0.73,7.11-1.08c1.1-0.16,2.21-0.32,3.31-0.47c0.67-0.09,1.34-0.19,2.01-0.28
						c3.8-0.53-3.21,0.41-0.6,0.08c5.39-0.69,10.79-1.36,16.2-1.97c53.26-5.92,106.99-7.64,160.54-8.17
						c64.45-0.63,128.91,0.9,193.29,3.78c66.77,2.98,133.48,7.44,200.05,13.5c31,2.82,61.97,6,92.88,9.64
						c14.74,1.73,29.49,3.47,44.18,5.55c-3.94-0.56-0.33-0.04,1.46,0.2c1.8,0.25,3.6,0.49,5.4,0.74c3.55,0.49,7.11,0.99,10.66,1.5
						c6.62,0.95,13.25,1.93,19.86,2.94c42.37,6.49,85.21,13.59,126.29,26.12c6.93,2.11,13.81,4.42,20.53,7.13
						c0.63,0.25,1.26,0.54,1.89,0.78c-5.66-2.11-2.37-1.02-1.04-0.42c1.36,0.61,2.72,1.22,4.06,1.88c2.29,1.11,4.55,2.3,6.73,3.62
						c0.92,0.56,1.83,1.13,2.71,1.74c0.41,0.28,0.81,0.6,1.23,0.87c2.2,1.46-3.54-3.07-1.49-1.15c0.61,0.57,1.26,1.17,1.91,1.7
						c2.33,1.9-2.36-4.19-0.68-0.84c0.4,0.81,0.82,1.72,1.29,2.48c-2.43-3.97-0.97-2.52-0.12,0.07c0.89,2.7,1.56,5.48,2.12,8.27
						c0.32,1.57,0.6,3.15,0.86,4.74c0.15,0.93,0.29,1.86,0.43,2.79c0.62,3.98-0.46-3.8-0.07-0.55c0.5,4.19,0.94,8.38,1.28,12.58
						c0.83,10.43,1.22,20.9,1.41,31.37c0.49,26.34-0.23,52.71-1.38,79.03c-2.83,65-8.4,129.9-15.5,194.57
						c-1.78,16.19-3.67,32.37-5.69,48.53c-0.98,7.82-1.99,15.63-3.02,23.44c-0.12,0.88-0.6,4.44,0,0.02
						c-0.11,0.83-0.22,1.66-0.34,2.49c-0.25,1.82-0.49,3.63-0.74,5.45c-0.54,3.91-1.09,7.81-1.64,11.71
						c-3.81,26.71-8,53.39-13.12,79.88c-3.62,18.73-7.45,37.64-13.43,55.79c-0.98,2.96-2.23,5.81-3.22,8.76
						c1.99-5.96,0.66-1.55-0.14,0.08c-0.51,1.03-1.07,2.01-1.63,3.01c-0.22,0.4-0.53,0.75-0.74,1.16c-1.06,2.07,3.17-3.05,1.13-1.47
						c-0.53,0.41-1.23,1.06-1.66,1.57c-0.78,0.92-2.88-0.17,2.06-1.59c-0.48,0.14-1,0.73-1.45,0.98c-1.6,0.89-3.2,1.69-4.83,2.52
						c-2.17,1.09,3.89-1.42,1.53-0.66c-0.55,0.18-1.09,0.42-1.64,0.62c-1.16,0.42-2.34,0.82-3.52,1.19
						c-5.34,1.68-10.82,2.89-16.31,3.93c-3.07,0.58-6.14,1.09-9.23,1.55c-1.2,0.18-7.35,1.25-2.31,0.35
						c-1.85,0.33-3.77,0.48-5.64,0.7c-16.55,1.93-33.2,2.97-49.85,3.68c-37.23,1.59-74.54,1.47-111.8,0.8
						c-28.26-0.5-56.51-1.44-84.77-2.41c-8.1-0.28-15,7.09-15,15C1454.83,882.48,1461.7,888.84,1469.83,889.12L1469.83,889.12z"/>
				</g>
			</g>
		</g>
		<g id="Ebene_5_1_">
			<g>
				<g>
					<path class="st3" d="M1109.79,559.97c46.86,62.96,93.71,125.91,140.57,188.87c6.81,9.15,13.96,15.15,25.57,16.71
						c10.3,1.38,22.26-1.35,29.4-9.63c45.43-52.66,90.86-105.33,136.3-157.99c45.43-52.66,90.86-105.33,136.3-157.99
						c25.65-29.73,51.3-59.47,76.95-89.2c6.14-7.12,10.25-15.08,10.25-24.75c0-8.58-3.81-18.84-10.25-24.75
						c-13.12-12.05-36.73-14.8-49.5,0c-45.43,52.66-90.86,105.33-136.3,157.99c-45.43,52.66-90.86,105.33-136.3,157.99
						c-25.65,29.73-51.3,59.47-76.95,89.2c18.32,2.36,36.65,4.72,54.97,7.08c-46.86-62.96-93.71-125.91-140.57-188.87
						c-5.64-7.58-11.46-13.48-20.92-16.08c-8.38-2.31-19.53-1.27-26.97,3.53c-7.47,4.82-14.05,11.99-16.08,20.92
						C1104.31,541.6,1104.28,552.58,1109.79,559.97L1109.79,559.97z"/>
				</g>
			</g>
		</g>
		<g id="Ebene_9_1_">
			<g class="st4">
				<path d="M836.91,189.63c0,281,312.26,612.99,525.2,782.43c-26.36,7.04-59.46-30.06-117.44-76.2
					c-81.95-65.2-59.06-73.17-104.65-91.42c-37.87-15.16-84.13-11.05-124.91-12.35c-37.58-1.19-84.58-7.83-108.65-26.8
					c-31.75-25.02-88.42-342.47-81.78-537.55"/>
				<g>
					<path d="M826.91,189.63c0.09,58.33,12.98,116.13,32.75,170.79c21.92,60.61,51.91,118.12,86.08,172.67
						c36.25,57.87,77.34,112.69,121.16,165.03c43.23,51.62,89.31,100.85,137.53,147.83c43.24,42.12,88.22,82.51,135.02,120.63
						c5.17,4.21,10.36,8.39,15.58,12.54c1.47-5.57,2.94-11.14,4.41-16.71c-0.71,0.18-1.42,0.32-2.13,0.47
						c2.65-0.55,0.41-0.03-0.23-0.02c-1.24,0.02-2.46,0.04-3.7-0.03c-2.84-0.14,0.92,0.39-1.92-0.31c-1.6-0.39-3.18-0.8-4.75-1.33
						c-0.82-0.28-1.63-0.59-2.44-0.9c1.8,0.71-0.08-0.03-0.52-0.24c-1.59-0.76-3.16-1.53-4.71-2.36c-3.43-1.86-6.74-3.95-9.98-6.14
						c-17.2-11.63-32.69-25.78-48.55-39.12c-31.04-26.11-63.96-50.14-90.15-81.42c-5.22-6.24-10.13-12.87-16.21-18.32
						c-7.61-6.82-16.42-11.55-25.76-15.53c-46.11-19.63-96.58-12.66-145.27-15.64c-22.2-1.36-44.66-4.36-65.8-11.54
						c-8.68-2.95-16.95-6.84-24.38-12.25c-1.1-0.8,0.95,1.18-0.4-0.4c-0.31-0.36-0.67-0.72-1.01-1.05c-1.09-1.07-0.6-1.82,0.34,0.52
						c-0.24-0.6-0.88-1.21-1.25-1.76c-1.82-2.71-3.33-5.63-4.73-8.58c-0.46-0.96-0.9-1.93-1.33-2.9c-0.32-0.73-1.54-3.74-0.34-0.74
						c-0.84-2.1-1.7-4.2-2.5-6.32c-3.98-10.56-7.28-21.39-10.33-32.25c-18.82-67.05-30.02-136.56-39.3-205.48
						c-10.89-80.86-18.4-162.71-17.93-244.37c0.05-8.9,0.22-17.79,0.52-26.69c0.43-12.87-19.57-12.86-20,0
						c-2.71,81.49,4.09,163.42,13.98,244.25c9.08,74.3,20.55,148.9,39.14,221.48c5.57,21.78,11.47,44.22,21.48,64.46
						c3.48,7.03,7.68,12.81,14.06,17.44c17.08,12.42,39.22,17.99,59.7,21.55c23.91,4.16,48.05,5.36,72.28,5.47
						c24.88,0.12,50.2-0.58,74.78,3.99c6.04,1.12,12.03,2.55,17.89,4.38c2.64,0.82,5.25,1.73,7.83,2.72
						c1.09,0.42,2.16,0.86,3.24,1.29c1.89,0.77-1.11-0.51,1.2,0.51c4.8,2.12,9.54,4.4,13.97,7.22c0.81,0.52,1.61,1.05,2.39,1.6
						c1.07,0.75,2.49,1.99,0.6,0.39c1.58,1.35,3.18,2.65,4.67,4.11c2.81,2.73,5.36,5.72,7.86,8.73c7.64,9.19,15.3,18.28,23.72,26.77
						c16.14,16.27,33.97,30.55,51.74,44.96c19.1,15.49,37.46,31.91,56.78,47.14c12.72,10.03,26.58,21.11,42.59,25.25
						c6.65,1.72,13.51,1.93,20.19,0.25c6.74-1.69,10.4-11.95,4.41-16.71c-45.87-36.53-89.98-75.28-132.45-115.71
						c-47.83-45.52-93.63-93.22-136.83-143.16c-44.02-50.86-85.35-104.16-122.32-160.4c-35.04-53.3-66.6-109.43-90.32-168.74
						c-21.31-53.3-36.82-109.75-39.81-166.89c-0.36-6.8-0.53-13.61-0.54-20.42C846.89,176.77,826.89,176.74,826.91,189.63
						L826.91,189.63z"/>
				</g>
			</g>
		</g>
	</g>
</g>
<g id="Ebene_23">
</g>
<g id="Ebene_24_Kopie">
</g>
<g id="Ebene_6_Kopie">
</g>
<g id="Ebene_21">
</g>
<g id="Ebene_4">
</g>
<g id="Ebene_26">
</g>
<g id="Ebene_5">
</g>
<g id="Ebene_3">
</g>
<g id="Ebene_9">
</g>
<g id="Ebene_25">
</g>
<g id="Ebene_2">
</g>
<g id="Ebene_7">
</g>
<g id="Ebene_8">
</g>
<g id="Ebene_20">
</g>
<g id="Ebene_18">
</g>
<g id="Ebene_19">
</g>
<g id="Ebene_27">
</g>
<g id="Ebene_27_Kopie">
</g>
<g id="Ebene_22">
</g>
<g id="Ebene_28">
</g>
<g id="Ebene_30">
	<g>
		<g>
			<path class="st3" d="M1102.85,1915.88c-15.2-83.09-84.55-152.35-167.25-191.81c-82.7-39.47-177.63-52.88-271.04-58.41
				c-95.64-5.66-195.34-2.97-281.71,34.4c-104.92,45.4-175.86,135.15-242.16,221.25c319.26,48.8,647.96,47.19,966.61-4.73"/>
			<g>
				<path d="M1106.98,1912.33c-12.63-67.63-59.42-123.45-114.57-162.08c-64.96-45.51-143.4-67.85-221.03-79.57
					c-40.94-6.18-82.31-9.55-123.66-11.47c-41.26-1.91-82.65-1.92-123.81,1.9c-40.37,3.75-80.56,11.37-118.76,25.16
					c-35.42,12.78-68.47,30.94-98.85,53.13c-59.21,43.26-106.69,100.16-151.46,157.66c-5.48,7.03-10.92,14.09-16.36,21.16
					c-1.45,1.89-4.03,7.9,0.14,8.54c125.36,19.12,251.87,30.52,378.63,34.16c125.92,3.62,252.03-0.42,377.46-12.02
					c70.81-6.55,141.38-15.55,211.56-26.96c4.39-0.71,8.09-11.69,2.02-10.71c-124.8,20.3-250.81,32.9-377.15,37.77
					c-126.17,4.86-252.65,2.07-378.48-8.4c-70.24-5.85-140.27-14.1-209.94-24.73c0.05,2.85,0.1,5.69,0.14,8.54
					c43.53-56.52,87.96-113.37,143.18-159.1c28.15-23.31,58.98-43.35,92.35-58.34c36.15-16.24,74.98-26.07,114.13-31.69
					c40.73-5.84,82-7.11,123.1-6.15c40.42,0.94,80.91,3.64,121.06,8.36c78.27,9.21,157.81,27.33,226.23,67.91
					c57.47,34.08,109.44,85.33,129.9,150.37c2.44,7.77,4.39,15.67,5.88,23.68c0.53,2.82,3.79,1.81,5.3,0.59
					C1106.21,1918.25,1107.5,1915.1,1106.98,1912.33L1106.98,1912.33z"/>
			</g>
		</g>
		<g>
			<path class="st5" d="M1062.56,1826.95c-259.61,56.75-542.53,19.89-805.95-18.93c-18.88,14.22-30.23,33.7-43.64,47.28
				c285.72,28.55,590.65,57.27,873.23,8.82"/>
			<g>
				<path class="st5" d="M1063.56,1821.67c-113.15,24.63-229.38,31.42-344.92,28.44c-117.03-3.02-233.57-15.88-349.49-31.68
					c-31.99-4.36-63.95-8.95-95.89-13.63c-3.66-0.54-7.31-1.07-10.97-1.61c-4.22-0.62-5.52-0.32-8.86,2.33
					c-5.6,4.46-10.7,9.52-15.51,14.81c-9.06,9.97-16.69,21.23-26.09,30.89c-1.6,1.64-5.69,8.97-0.87,9.45
					c114.03,11.39,228.14,22.48,342.57,29.01c114.31,6.51,229.06,8.57,343.38,1.28c63.08-4.02,125.99-10.91,188.3-21.56
					c4.32-0.74,7.95-11.57,1.99-10.55c-112.01,19.14-225.77,26.04-339.3,25.97c-114.23-0.07-228.35-7.16-342.13-16.85
					c-63.64-5.42-127.21-11.68-190.77-18.03c-0.29,3.15-0.58,6.3-0.87,9.45c15.03-15.44,26.37-34.03,43.64-47.28
					c-1.06,0.43-2.11,0.86-3.17,1.28c104.93,15.46,210.04,30.16,315.75,39.19c105.77,9.03,212.32,12.49,318.27,4.4
					c58.13-4.44,115.98-12.35,172.96-24.75C1065.84,1831.29,1069.41,1820.4,1063.56,1821.67L1063.56,1821.67z"/>
			</g>
		</g>
		<g>
			<path class="st5" d="M946.84,1730.51c-164.97,9.86-330.75,5.79-495.06-12.15c-47.52-5.19-102.4-9.08-135.96,25.42
				c224.91,43.22,456.5,50.55,683.63,21.63c-15.47-12.49-30.94-24.98-46.41-37.46"/>
			<g>
				<path class="st5" d="M949.05,1724.62c-90.38,5.37-180.99,6.62-271.47,3.67c-45.08-1.47-90.12-3.97-135.09-7.51
					c-22.32-1.76-44.62-3.77-66.89-6.03c-18.87-1.92-37.71-4.34-56.67-5.28c-36.88-1.82-77.05,2.23-104.37,29.82
					c-2.01,2.03-6.09,9.38-0.95,10.37c87.99,16.87,176.99,28.32,266.38,34.23c89.37,5.9,179.1,6.29,268.51,1.13
					c50.09-2.89,100.08-7.52,149.85-13.83c4.11-0.52,7.86-8.49,4.31-11.36c-15.47-12.49-30.94-24.98-46.41-37.46
					c-3.88-3.13-10.66,7.73-6.43,11.14c15.47,12.49,30.94,24.98,46.41,37.46c1.44-3.79,2.87-7.57,4.31-11.36
					c-88.81,11.27-178.29,17.02-267.82,17.22c-88.92,0.2-177.85-5.05-266.13-15.73c-49.77-6.02-99.32-13.78-148.56-23.22
					c-0.32,3.45-0.63,6.91-0.95,10.37c23.94-24.17,58.92-28.27,91.37-27.25c18.03,0.56,35.95,2.73,53.87,4.61
					c21.94,2.3,43.9,4.35,65.89,6.16c88.59,7.27,177.51,10.53,266.39,9.76c50.04-0.43,100.06-2.16,150.01-5.13
					c3.03-0.18,5.28-2.78,6.29-5.51C951.51,1729.3,952.12,1724.44,949.05,1724.62L949.05,1724.62z"/>
			</g>
		</g>
		<g>
			<g>
				<path d="M842.33,1687.02c4.57,0,9.05-10.73,4.04-10.73C841.8,1676.28,837.32,1687.02,842.33,1687.02L842.33,1687.02z"/>
			</g>
		</g>
		<g>
			<g>
				<path d="M1112.25,1910.28c-12.5-67.25-58.67-122.96-113.36-161.63c-64.27-45.44-141.96-67.95-218.98-79.77
					c-40.99-6.29-82.41-9.72-123.82-11.67c-41.31-1.94-82.75-1.99-123.95,1.86c-40.12,3.75-80.08,11.35-118.04,25.11
					c-35.45,12.85-68.48,31.11-98.82,53.42c-58.78,43.22-105.88,99.99-150.28,157.31c-5.48,7.07-10.92,14.16-16.36,21.26
					c-1.45,1.89-4.02,7.88,0.14,8.52c124.83,19.14,250.82,30.54,377.06,34.17c125.39,3.6,250.98-0.46,375.88-12.09
					c70.23-6.54,140.23-15.52,209.84-26.9c4.38-0.72,8.06-11.67,2.01-10.68c-124.27,20.31-249.77,32.93-375.59,37.78
					c-125,4.83-250.3,2.06-374.96-8.31c-70.31-5.85-140.41-14.14-210.15-24.84c0.05,2.84,0.1,5.68,0.14,8.52
					c43.34-56.56,87.59-113.46,142.64-159.26c27.93-23.23,58.53-43.21,91.68-58.18c36.18-16.34,75.07-26.2,114.29-31.8
					c40.19-5.74,80.91-7,121.46-6.06c40.78,0.95,81.63,3.69,122.13,8.54c77.96,9.33,157.11,27.7,225.04,68.54
					c56.94,34.23,108.1,85.53,128.13,150.26c2.34,7.55,4.2,15.22,5.64,22.99c0.52,2.81,3.79,1.81,5.29,0.59
					C1111.48,1916.19,1112.76,1913.05,1112.25,1910.28L1112.25,1910.28z"/>
			</g>
		</g>
		<g>
			<path d="M1021.37,1268.81c0,34.17-19.8,69.24-56.54,72.05c-235.62,18.01-378,61.68-621.29,9.33
				c-33.55-7.22-51.17-48.64-50.68-80.56c0.83-54.51-3.36-51,0-84.07c12.24-120.51,7.37-181.7,54.09-291.32
				c44.8-105.11,158.93-193.89,280.86-193.89c203.57,0,373.9,153.04,388.8,332.72"/>
			<g>
				<path d="M1017.14,1271.15c-0.11,15.05-3.94,30.54-12.8,42.91c-9.43,13.17-23.4,20.25-39.38,21.57
					c-41.03,3.4-81.99,7.35-122.91,11.96c-73.14,8.23-146.23,17.88-219.83,21.03c-78.02,3.34-155.97-1.58-232.88-15.2
					c-11.07-1.96-22.11-4.08-33.12-6.35c-8.71-1.8-17.14-3.33-24.84-8c-13.02-7.89-22.05-21.35-27.48-35.32
					c-6.07-15.61-6.77-30.89-6.71-47.41c0.05-12.94-0.36-25.84-1.04-38.76c-1.44-27.75,3.08-55.55,5.37-83.16
					c2.82-34.16,5.06-68.42,9.95-102.37c4.85-33.67,12.78-66.71,24.1-98.8c12-34.03,26.56-66.76,47.9-96.02
					c41.14-56.39,100.68-100.63,167.87-120.46c66-19.47,138.93-11.79,203.43,10.09c61.17,20.76,117.47,56.21,161.96,103.12
					c42.67,44.99,74.48,100.44,88.62,161c3.41,14.63,5.76,29.46,7.03,44.42c0.59,6.93,8.84-0.18,8.46-4.7
					c-5.42-63.77-30.03-124.62-68.28-175.75c-39.36-52.62-92.44-94.78-152.02-122.32c-31.05-14.35-63.95-24.81-97.59-31
					c-34.6-6.37-70.67-8.95-105.67-4.61c-72.11,8.94-138.64,47.08-188.59,98.96c-24.35,25.3-45,54.4-60.12,86.12
					c-16.29,34.17-28.64,70.77-37.12,107.65c-7.58,32.95-11.4,66.54-14.34,100.18c-1.63,18.58-3.03,37.18-4.59,55.77
					c-1.53,18.17-3.84,36.33-4.91,54.54c-0.52,8.9-0.12,17.74,0.34,26.64c0.81,15.65,0.55,31.25,0.68,46.91
					c0.24,29.16,13.41,64.46,41.27,77.82c8.45,4.05,18.01,5.35,27.11,7.19c11.26,2.27,22.55,4.39,33.87,6.34
					c21.31,3.66,42.73,6.72,64.22,9.11c39.44,4.37,79.12,6.41,118.8,6.21c74.89-0.37,149.36-8.84,223.66-17.42
					c40.94-4.73,81.89-9.42,122.94-13.21c11.28-1.04,22.57-2.02,33.87-2.92c8.93-0.71,17.59-1.25,26.03-4.53
					c14.75-5.75,26.45-17.33,33.99-31.1c7.5-13.71,11.12-29.21,11.24-44.8c0.02-2.6-2.16-3.54-4.31-2.49
					C1018.81,1265.18,1017.16,1268.49,1017.14,1271.15L1017.14,1271.15z"/>
			</g>
		</g>
		<g>
			<path class="st6" d="M736.86,1544.54c3.83,38.47,7.66,76.94,11.5,115.41c1.38,13.86,2.6,28.57-4.14,41.01
				c-11.19,20.64-39.2,27.04-63.86,30.36c-36.24,4.88-78.42,6.2-103.61-18.44c-21.47-20.99-22.38-53.51-17.66-82.1
				c4.73-28.59,13.78-57.59,7.63-85.95c55,8.81,111.61,8.87,166.63,0.19"/>
			<g>
				<path class="st6" d="M732.63,1546.88c3.91,39.3,8.01,78.6,11.74,117.92c1.45,15.26,2.26,32.16-10.27,43.19
					c-10.37,9.13-24.6,13.01-37.86,15.63c-28.21,5.58-60.45,8.96-88.39,0.44c-13.79-4.2-26.38-12.21-34.69-24.14
					c-8.47-12.17-11.72-27.03-12.13-41.66c-1.09-39.5,17.9-77.24,9.75-116.93c-2.03,2.95-4.06,5.91-6.09,8.86
					c55.51,8.78,112.14,8.75,167.66,0.09c4.33-0.68,7.98-11.48,1.99-10.55c-54.84,8.55-110.79,8.4-165.61-0.28
					c-3.99-0.63-6.73,5.74-6.09,8.86c7.8,38.01-10.69,75.13-10.1,113.13c0.23,15.12,3.17,30.51,10.97,43.64
					c7.68,12.92,20.02,22.36,33.99,27.59c29.16,10.92,63.17,7.51,93.18,2.15c14.33-2.56,29.02-6.57,41.06-15.07
					c13.23-9.33,20.52-23.42,21.7-39.47c0.76-10.23-0.64-20.5-1.66-30.67c-1.19-11.94-2.38-23.88-3.57-35.82
					c-2.38-23.88-4.76-47.76-7.14-71.64C740.4,1535.26,732.18,1542.37,732.63,1546.88L732.63,1546.88z"/>
			</g>
		</g>
		<g>
			<path class="st6" d="M986.75,1092.98c39.04-13.02,86.41-0.2,111.76,30.25s26.72,76.17,3.23,107.88
				c-23.49,31.71-70.02,46.94-109.78,35.94c-24.11,58.95-54.65,116.32-97.98,164.91c-43.34,48.58-100.33,88.13-165.81,105.16
				c-91.33,23.76-222.54-1.25-278.27-41.19c-56.39-40.41-134.08-228.34-134.08-228.34s-89.07,1.8-113.59-29.14
				s-22.83-93.68,5.26-121.88c20.41-20.49,67.04-26.45,116.36-21.47c17.45-37.79,23.35-68.3,25.59-105.35
				c104.2,10.5,211.38-62.13,236.34-156.49c129.09,161.52,346.16,145.63,346.16,145.63s3.28,97.47,52.2,115.33"/>
			<g>
				<path class="st6" d="M985.76,1098.26c42.27-13.74,94.99,1.94,117.59,41.64c11.21,19.7,14.08,44.28,7.32,65.96
					c-6.71,21.51-22.57,37.99-42.46,48.06c-22.77,11.53-49.59,14.38-74.23,7.77c-2.55-0.68-5.02,3.27-5.74,5.02
					c-31.23,76.15-73.72,149.34-138.09,202.19c-30.08,24.7-64.35,44.62-101.3,57.07c-34.36,11.58-70.39,15.63-106.54,14.96
					c-35.85-0.67-71.78-5.6-106.47-14.66c-28.54-7.46-57.91-17.66-82.2-34.83c-17.45-12.33-30.45-31.05-42.16-48.59
					c-15.29-22.89-28.71-47.03-41.39-71.44c-17.88-34.43-34.4-69.65-49.42-105.43c-0.26-0.63-0.53-1.25-0.79-1.88
					c-0.35-0.84-0.96-1.89-2.05-1.87c-12.54,0.24-25.17-0.52-37.64-1.79c-21.21-2.16-44.36-5.58-62.91-16.8
					c-20.66-12.49-27.46-39.51-27.98-62.17c-0.54-23.61,5.64-53.3,26.98-66.99c13.16-8.44,29.17-11.97,44.47-13.94
					c20.23-2.6,40.82-2.06,61.07-0.07c2.78,0.27,4.78-2.93,5.74-5.02c15.79-34.46,23.75-70.31,26.1-108.04
					c-2.08,2.57-4.16,5.14-6.25,7.71c82.55,8.01,167.37-34.06,214.14-101.97c12.82-18.61,22.46-39.1,28.33-60.93
					c-2.58,1.82-5.17,3.65-7.75,5.47c44.96,56.01,105.82,96.47,173.41,120.01c46.84,16.31,96.42,25.34,145.99,26.8
					c9.43,0.28,18.96,0.44,28.38-0.25c-0.74-1.01-1.47-2.01-2.21-3.02c0.41,11.77,2.05,23.6,4.17,35.16
					c3.87,21.12,10.12,43.06,22.55,60.86c6.73,9.63,15.67,17.86,26.77,22.05c4.62,1.74,10.13-8.55,5.87-10.16
					c-19.87-7.5-31.22-27.14-38.16-46.15c-6.38-17.49-10-36.05-11.85-54.54c-0.4-3.96-0.75-7.93-0.89-11.91
					c-0.04-1.16-0.66-3.13-2.21-3.02c-26.72,1.94-54.21-0.53-80.64-4.17c-59.36-8.17-117.66-26.77-169.1-57.8
					c-36.2-21.84-68.32-49.75-94.79-82.72c-3.03-3.77-7.11,3.11-7.75,5.47c-20.03,74.5-90.1,129.21-163.36,145.78
					c-21.93,4.96-44.46,6.47-66.85,4.3c-3.75-0.36-6.06,4.73-6.25,7.71c-2.24,35.93-10.05,69.87-25.08,102.65
					c1.91-1.67,3.82-3.35,5.74-5.02c-33.39-3.28-71.38-3.86-102.36,10.99c-25.47,12.21-38.2,39.26-41.62,66.21
					c-3.26,25.63,0.05,58.4,18.63,78.18c15.24,16.23,40.84,21.21,61.91,24.34c16.91,2.52,34.25,3.83,51.37,3.5
					c-0.68-0.62-1.37-1.25-2.05-1.87c13.01,31.46,27.49,62.41,42.74,92.84c12.77,25.48,26.26,50.67,41.38,74.85
					c12.45,19.92,25.98,40.19,43.52,56.05c20,18.08,47.32,28.44,72.63,36.45c34.43,10.89,70.36,17.25,106.38,19.55
					c35.8,2.29,72.55,0.76,107.44-8.09c38.7-9.82,74.97-27.79,107.39-50.94c68.35-48.8,115.8-120,150.07-195.62
					c4.31-9.51,8.42-19.12,12.38-28.78c-1.91,1.67-3.82,3.35-5.74,5.02c47.36,12.7,102.81-9.77,123.88-54.94
					c10.44-22.38,11.79-48.9,3.38-72.15c-8.46-23.41-26.42-41.71-48.85-52.16c-25.01-11.65-54.31-14-80.62-5.45
					c-2.65,0.86-4.65,3.61-5.11,6.32C982.31,1095.96,983.06,1099.14,985.76,1098.26L985.76,1098.26z"/>
			</g>
		</g>
		<g>
			<path class="st7" d="M860.86,705.72c15.39-18.5,38.33-31.45,63.12-35.64"/>
			<g>
				<path class="st7" d="M861.2,705.53c5.9-7.08,12.82-13.28,20.44-18.47c8.16-5.56,17.14-9.89,26.52-12.96
					c5.06-1.66,10.24-2.93,15.49-3.82c0.24-0.04,0.44-0.35,0.68-0.39c-9.94,1.69-19.63,4.77-28.71,9.13
					c-8.45,4.05-16.44,9.16-23.57,15.26c-4.15,3.55-8.01,7.45-11.51,11.65C860.68,705.73,861.04,705.72,861.2,705.53L861.2,705.53z"
					/>
			</g>
		</g>
		<g>
			<path class="st5" d="M858.24,707.02c9.02-10.22,18.26-20.62,30.33-27.64c12.06-7.02,27.65-10.2,40.71-4.93
				c13.93,5.63,22.01,19.49,25.38,33.23c0.92,3.77,1.53,7.89-0.27,11.38c-2.69,5.2-9.59,7.06-15.75,7.86
				c-27.85,3.61-57.13-3.42-79.59-19.11"/>
			<g>
				<path class="st5" d="M860.4,710.07c9.84-11.14,20.13-22.74,34.04-28.8c13.21-5.76,29.12-5.89,40.71,3.45
					c4.79,3.86,8.5,9.09,11.21,14.58c1.93,3.91,7.51,15.63,3.82,19.19c-4.28,4.12-15.01,3.78-20.45,3.95
					c-7.3,0.23-14.62-0.24-21.83-1.39c-16.51-2.61-32.15-8.85-45.93-18.3c-3.86-2.65-9.91,7.38-5.87,10.16
					c14.72,10.11,31.76,16.59,49.42,19.13c8.97,1.29,18.05,1.51,27.08,0.71c7.59-0.67,15.73-1.81,21.4-7.41
					c11.79-11.66,2.9-32.45-5.74-43.45c-10.57-13.47-27.2-17.9-43.57-13.89c-20.5,5.02-35.16,20.77-48.62,36
					C852.08,708.51,855.23,715.91,860.4,710.07L860.4,710.07z"/>
			</g>
		</g>
		<g>
			<g>
				<path d="M1016.32,1053.95c-4.28-105.8-44.79-215.1-126.12-285.67c-38.26-33.21-84-56.86-132.21-71.94
					c-51.14-15.99-104.55-22.82-157.95-17.07c-59.06,6.36-116.62,27.53-164.09,63.52c-4.05,3.07-3.82,12.81,2.3,8.17
					c41.33-31.34,90.94-50.65,141.99-58.77c52-8.27,104.62-3.96,155.35,9.56c48.38,12.89,94.8,34.32,134.5,65.02
					c40.84,31.59,72.61,72.99,95.18,119.28c26.13,53.58,40.17,113.12,42.58,172.59C1008.14,1065.57,1016.5,1058.45,1016.32,1053.95
					L1016.32,1053.95z"/>
			</g>
		</g>
		<g>
			<g>
				<path d="M979.56,1098.56c42.28-17.02,97.3-4.27,122.93,34.88c12.48,19.05,17.07,42.97,12.3,65.26
					c-4.76,22.19-19.43,40.3-38.71,51.81c-22.43,13.39-49.49,18.14-75.09,12.93c-4.39-0.89-9.28,9.67-4.04,10.73
					c48.75,9.91,104.13-16.23,122.05-63.83c8.7-23.1,8.08-49.55-1.9-72.15c-10.14-22.96-29.16-40.25-52.36-49.52
					c-26.37-10.54-56.73-11.31-83.19-0.66c-2.63,1.06-4.62,3.48-5.11,6.32C976.14,1096.1,976.88,1099.64,979.56,1098.56
					L979.56,1098.56z"/>
			</g>
		</g>
		<g>
			<g>
				<path d="M327.02,1089.84c-27.75-2.78-56.63-5.66-83.82,2.37c-23.15,6.83-43.12,21.17-53.14,43.58
					c-9.63,21.55-10.6,48.71-6.65,71.72c4.13,24.08,17.89,43.58,39.82,54.6c27.98,14.07,60.09,13.33,90.58,12.45
					c4.56-0.13,8.98-10.87,4.04-10.73c-43.94,1.27-105.57,0.83-122.84-49.58c-6.98-20.36-6.83-45.18-1.6-65.94
					c5.76-22.85,22.87-37.44,44.75-44.61c27.39-8.98,56.7-5.96,84.84-3.14C327.51,1101.03,332.2,1090.36,327.02,1089.84
					L327.02,1089.84z"/>
			</g>
		</g>
		<g>
			<g>
				<path d="M995.24,1268.46c-19.97,57.59-51.55,111.13-92.46,156.33c-41.52,45.87-93.48,83.02-152.22,103.23
					c-57.59,19.81-120.56,24.61-180.41,13.16c-60.53-11.57-115.59-40.91-157.12-86.69c-42.56-46.92-69.2-105.78-86.89-166.05
					c-2.21-7.54-4.29-15.13-6.25-22.74c-1.47-5.69-9.24,2.74-8.14,7c16.12,62.32,40.33,124.07,80.65,174.9
					c19.8,24.96,43.44,47.19,70.37,64.3c25.65,16.31,54.06,27.99,83.46,35.56c60.3,15.52,125.18,13.66,184.94-3.42
					c61.01-17.44,115.78-52.09,160.44-96.87c44.54-44.67,79.76-98.62,103.27-157.13c2.77-6.9,5.36-13.86,7.8-20.88
					c0.67-1.93,1-5.28-1.7-5.71C998.41,1263.03,995.94,1266.44,995.24,1268.46L995.24,1268.46z"/>
			</g>
		</g>
		<g>
			<g>
				<path d="M984.19,1088.85c-14.37-13.31-22.8-32.71-29.69-50.66c-6.46-16.84-11.63-34.2-15.93-51.71
					c-0.9-3.69-1.79-7.38-2.56-11.1c-0.17-0.82-1.11-1.92-2.05-1.87c-26.66,1.43-54-1.48-80.3-5.5
					c-59.46-9.1-117.72-28.45-169.17-59.9c-35.96-21.98-67.97-49.82-94.46-82.61c-2.6-3.22-6.47,1.88-7.36,4.08
					c-28.58,71.3-94.91,123.32-167.62,144.38c-21.51,6.23-43.71,9.81-66.09,10.51c-3.81,0.12-6.01,4.36-6.25,7.71
					c-2.41,34.97-8.93,70.14-22.57,102.56c-0.8,1.9-0.91,5.29,1.7,5.71c2.68,0.43,4.9-3.03,5.74-5.02
					c14.36-34.14,21.05-71.15,23.59-107.95c-2.08,2.57-4.16,5.14-6.25,7.71c81.6-2.54,161.88-42.36,211.97-107.14
					c13.66-17.66,24.91-37.06,33.22-57.79c-2.45,1.36-4.9,2.72-7.36,4.08c45.24,56.02,106.17,96.7,173.7,120.93
					C803.04,972,852.37,981.7,901.81,984c9.34,0.43,18.77,0.75,28.12,0.25c-0.68-0.62-1.37-1.25-2.05-1.87
					c6.31,30.5,15.76,61.65,30.3,89.25c4.99,9.47,10.84,18.76,18.74,26.08C980.88,1101.39,987.42,1091.84,984.19,1088.85
					L984.19,1088.85z"/>
			</g>
		</g>
		<g>
			<g>
				<path d="M734.91,1545.82c3.85,36.59,7.69,73.18,11.54,109.77c1.61,15.35,5.59,33.69-4.4,47.06
					c-8.72,11.68-23.36,18.42-36.72,23.16c-30.44,10.79-64.47,12.66-95.51,3.21c-13.86-4.22-27.66-11.06-38.22-21.14
					c-11.14-10.63-17.04-24.21-17.54-39.6c-0.63-19.54,3.81-39.51,6.49-58.8c2.88-20.73,5.76-41.47,8.64-62.2
					c1.06-7.61-7.53-2.94-8.22,2.09c-2.79,20.08-5.58,40.15-8.37,60.23c-2.59,18.61-6.24,37.44-6.96,56.24
					c-0.64,16.5,2.94,32.69,13.7,45.58c9.55,11.43,22.68,19.55,36.44,24.92c32.21,12.57,68.98,12.2,101.77,1.95
					c14.76-4.62,29.76-11.05,41.35-21.54c12.42-11.24,18.35-25.96,18.04-42.65c-0.2-10.72-1.83-21.46-2.95-32.11
					c-1.14-10.88-2.29-21.76-3.43-32.64c-2.39-22.75-4.78-45.49-7.17-68.24C742.64,1534.2,734.43,1541.31,734.91,1545.82
					L734.91,1545.82z"/>
			</g>
		</g>
		<g>
			<g>
				<path d="M753.86,1345.99c-21.24,24.85-48.44,45.18-81.35,50.53c-29.04,4.72-58.36-3.47-83.72-17.49
					c-16.5-9.12-31.65-20.62-45.5-33.38c-5.33-4.91-14.06,7.86-9.73,11.85c25,23.05,53.89,42.76,87.29,51.01
					c30.78,7.61,62.84,2.86,90.35-12.82c18.63-10.62,34.56-25.31,48.43-41.55c1.97-2.31,4.13-7.18,1.98-10
					C759.37,1341.21,755.55,1344.02,753.86,1345.99L753.86,1345.99z"/>
			</g>
		</g>
		<g>
			<g>
				<path d="M669.22,1174.11c-22.6-16.88-56.21-1.49-59.22,26.17c-1.4,12.84,4.36,25.41,15.88,31.66
					c11.47,6.23,25.78,6.05,37.11-0.34c2.36-1.33,4.29-4.43,4.15-7.18c-0.13-2.47-2.05-3.77-4.31-2.49
					c-17.44,9.84-44.86-0.24-44.62-22.41c0.25-22.92,30.16-26.45,45.15-15.26C667.05,1187.03,673.17,1177.06,669.22,1174.11
					L669.22,1174.11z"/>
			</g>
		</g>
		<g>
			<path d="M721.71,1093.6c1.72-7.21-0.26-14.67-1.75-21.92s-2.43-15.11,1.12-21.72c3.55-6.61,13.24-10.82,19.82-6.65
				c6.96,4.41,5.96,13.89,6.5,21.69c0.43,6.2,2.31,12.23,3.32,18.38c1,6.15,1.05,12.71-1.97,18.26s-9.84,9.68-16.38,8.32
				s-10.74-9.55-6.53-14.38"/>
			<g>
				<path d="M725.82,1092.56c1.25-6.38,0.6-12.57-0.65-18.9c-1.17-5.93-3.12-12.24-2.1-18.33c0.9-5.38,5.55-8.79,11.06-8.24
					c5.37,0.53,7.78,5.24,8.44,10.06c0.69,5,0.4,10.06,1.16,15.07c0.98,6.51,3.16,12.86,3.34,19.47c0.16,6-1.72,11.5-8.14,12.92
					c-2.39,0.53-4.98,0.24-7.03-1.14c-1.06-0.71-2-1.67-2.64-2.79c-0.28-0.49-0.74-2.78-1.28-2.05c1.32-1.8,3.21-5.34,1.48-7.48
					c-1.66-2.05-4.59-0.26-5.8,1.38c-3.37,4.58-5,10.11-2.46,15.51c2.46,5.22,7.67,7.92,13.34,7.45
					c14.25-1.18,21.56-16.6,20.96-29.35c-0.39-8.19-3.4-15.97-3.92-24.13c-0.38-5.84,0-12.01-2.46-17.48
					c-5.46-12.15-20.51-8.97-27.97-0.68c-5.47,6.08-7.28,14.54-6.62,22.52c0.78,9.43,4.92,18.78,3.05,28.29
					c-0.45,2.28,0.5,4.62,3.12,4.23C723.37,1098.48,725.36,1094.89,725.82,1092.56L725.82,1092.56z"/>
			</g>
		</g>
		<g>
			<path d="M565.37,1081.57c-3.48-7.06-7.04-14.56-6.09-22.27c0.95-7.71,8.34-15.29,16.59-13.96c8.96,1.44,12.69,11.37,13.86,19.72
				c1.25,8.94,1.57,18,0.95,27c-0.45,6.44-2.41,14.11-9,16.19c-5.8,1.83-12.22-2.14-14.8-7.29c-2.58-5.14-2.32-11.07-2-16.74"/>
			<g>
				<path d="M569.01,1077.14c-3.49-7.12-11.77-27.89,4.12-26.5c9.6,0.84,12,12.96,12.85,20.62c0.68,6.08,0.9,12.22,0.71,18.33
					c-0.11,3.32,0.27,9.51-2.26,12.24c-3.5,3.77-9.98,0.17-12.48-3.02c-3.71-4.73-3.16-11.3-2.85-16.93
					c0.14-2.63-2.23-3.5-4.31-2.49c-2.56,1.25-4,4.49-4.15,7.18c-0.6,11.17,1.86,28.07,16.82,27.45
					c11.81-0.49,16.59-13.8,17.39-23.69c1.04-12.81,1.37-28.72-4.61-40.51c-5.25-10.34-16.98-12.95-26.02-5.43
					c-5.35,4.45-8.84,11.2-9.25,18.15c-0.49,8.43,3.13,16.08,6.75,23.46C563.86,1090.33,571.03,1081.26,569.01,1077.14
					L569.01,1077.14z"/>
			</g>
		</g>
		<g>
			<g>
				<path d="M587.8,1001.92c-25.73-0.74-50.64,9.69-67.9,28.82c-4.06,4.5-0.9,11.88,4.32,6.09c14.93-16.55,37.51-24.82,59.55-24.19
					C588.34,1012.78,592.88,1002.06,587.8,1001.92L587.8,1001.92z"/>
			</g>
		</g>
		<g>
			<g>
				<path d="M787.55,1028.63c-17.39-18.41-43.2-26.36-68.06-22.52c-4.33,0.67-7.98,11.47-1.99,10.55
					c22.62-3.49,46.95,4.09,62.77,20.83C783.96,1041.39,790.63,1031.89,787.55,1028.63L787.55,1028.63z"/>
			</g>
		</g>
		<g>
			<g>
				<path d="M293.85,1116.69c-34.87,4.88-66.28,34.2-69.78,69.91c-0.75,7.63,7.72,3,8.22-2.09c3.02-30.78,30-53.14,59.57-57.27
					C296.2,1126.64,299.87,1115.85,293.85,1116.69L293.85,1116.69z"/>
			</g>
		</g>
		<g>
			<g>
				<path d="M1019.35,1117.91c32.46,3.99,63.69,34.15,59.7,68.57c-0.88,7.62,7.64,2.98,8.22-2.09c4.44-38.3-26.54-72.62-63.89-77.21
					C1018.88,1106.63,1014.14,1117.27,1019.35,1117.91L1019.35,1117.91z"/>
			</g>
		</g>
		<ellipse class="st8" cx="729.49" cy="1056.3" rx="5.48" ry="5.08"/>
		<ellipse class="st8" cx="569.78" cy="1060.67" rx="5.28" ry="4.89"/>
		<g class="st9">
			<g>
				<path class="st7" d="M1140.67,1456.3c4.57,0,9.05-10.73,4.04-10.73C1140.14,1445.57,1135.65,1456.3,1140.67,1456.3
					L1140.67,1456.3z"/>
			</g>
		</g>
		<g>
			<path class="st10" d="M739.84,1613.82c-1.16,1.62-2.31,3.23-3.47,4.85c0.72-2.09,1.44-4.18,2.16-6.27
				c0.19,24.36,0.37,48.72,0.56,73.08c-68,10.22-139.64-1.7-199.55-33.21c9.5-22.46,15.86-46.06,18.89-70.02
				c61.43,16,113.18,30.16,179.88,27.01"/>
			<g>
				<path class="st7" d="M737.68,1610.77c-1.16,1.62-2.31,3.23-3.47,4.85c1.96,1.13,3.92,2.26,5.88,3.39
					c0.72-2.09,1.44-4.18,2.16-6.27c-2.65,0.67-5.3,1.33-7.95,2c0.19,24.36,0.37,48.72,0.56,73.08c1.74-2.54,3.48-5.08,5.22-7.62
					c-67.21,9.91-137.36-1.55-197.61-33.02c0.26,1.81,0.52,3.62,0.79,5.43c9.56-22.85,16.09-46.85,19.28-71.42
					c-2.04,2.14-4.09,4.27-6.13,6.41c29.14,7.59,58.29,15.41,87.96,20.68c30.37,5.4,61.09,7.7,91.91,6.32
					c4.56-0.2,8.94-10.95,4.04-10.73c-30.82,1.38-61.55-0.93-91.91-6.32c-29.68-5.27-58.82-13.09-87.96-20.68
					c-2.94-0.77-5.85,4.25-6.13,6.41c-3.08,23.66-9.28,46.63-18.5,68.63c-0.62,1.48-1.01,4.49,0.79,5.43
					c61.54,32.14,132.9,43.52,201.49,33.4c3.06-0.45,5.24-4.92,5.22-7.62c-0.19-24.36-0.37-48.72-0.56-73.08
					c-0.05-6.26-6.92-0.97-7.95,2c-0.72,2.09-1.44,4.18-2.16,6.27c-1.65,4.8,2.61,7.97,5.88,3.39c1.16-1.62,2.31-3.23,3.47-4.85
					c1.3-1.82,3.22-5.33,1.48-7.48C741.83,1607.35,738.87,1609.11,737.68,1610.77L737.68,1610.77z"/>
			</g>
		</g>
		<g>
			<path class="st10" d="M752.97,1617.16c77.79,35.11,132.09,96.67,120.11,196.97c-0.65,5.44-1.7,11.56-6.57,14.67
				c-6.46,4.13-15.25,0.62-21.88-3.26c-73.08-42.75-112.16-130.12-93.16-208.26"/>
			<g>
				<path class="st7" d="M750.03,1622.24c28.35,12.87,55.37,29.8,76.64,52.78c20.92,22.61,35.13,50.31,40.83,80.61
					c3.18,16.93,3.67,34.35,2.27,51.5c-0.36,4.43-0.5,9.27-1.73,13.57c-1.46,5.14-6.68,5.08-11.17,3.92
					c-8.71-2.26-16.98-8.65-24.2-13.81c-28.74-20.55-51.87-49.18-65.95-81.59c-15.43-35.5-20.17-75.19-11.15-113
					c0.54-2.28-0.57-4.61-3.12-4.23c-2.73,0.41-4.55,3.99-5.11,6.32c-17.57,73.64,14.4,152.53,73.57,198.28
					c12.31,9.52,37.01,30.07,50.73,12.41c5.85-7.53,5.95-18.26,6.64-27.33c0.74-9.56,0.88-19.16,0.32-28.73
					c-1.97-33.82-13.11-66.55-33.64-93.64c-22.83-30.13-54.97-51.74-89.08-67.22C751.44,1610.05,745.77,1620.3,750.03,1622.24
					L750.03,1622.24z"/>
			</g>
		</g>
		<g>
			<path class="st10" d="M752.48,1605.58c109.22-75.63,269.31-81.15,384.29-13.25"/>
			<g>
				<path class="st7" d="M752.56,1610.42c42.87-29.53,92.52-47.94,143.87-55.81c51.86-7.94,105.57-5.09,156.2,8.7
					c28.42,7.74,55.8,19.18,81.21,34.1c4.13,2.42,10.03-7.71,5.87-10.16c-45.78-26.88-97.92-42.18-150.73-46.46
					c-53.14-4.31-107.49,2.27-157.79,20.07c-27.85,9.86-54.44,23.11-78.78,39.88c-2.28,1.57-4.3,4.26-4.15,7.18
					C748.37,1610.21,750.36,1611.93,752.56,1610.42L752.56,1610.42z"/>
			</g>
		</g>
		<g>
			<path class="st10" d="M760.97,1609.74c51.24,45.61,123.54,70.16,194.44,66.04s139.32-36.87,184-88.06
				c-89.48-22.13-128.22-44.87-197.42-40.57c-70.54,4.38-138.92,16.15-185.23,61.85"/>
			<g>
				<path class="st7" d="M758.04,1614.82c41.95,37.09,96.12,59.52,151.68,65.3c55.47,5.77,112.15-5.95,161.02-32.77
					c26.67-14.63,50.75-33.73,70.83-56.58c1.78-2.03,3.7-7.46-0.14-8.41c-28.29-7.03-56.12-15.55-84.05-23.85
					c-21.94-6.52-44.1-12.63-66.87-15.43c-25.5-3.13-51.04-1.43-76.51,1.1c-27.84,2.77-55.73,7.29-82.35,16.12
					c-28.22,9.36-54.68,23.74-76.04,44.62c-1.76,1.72-3.95,4.96-2.92,7.58c0.94,2.39,3.52,2.25,5.22,0.59
					c38.93-38.06,93.34-51.53,145.91-57.49c25.68-2.91,51.73-4.99,77.52-2.37c22,2.24,43.46,7.68,64.65,13.84
					c30.43,8.85,60.63,18.37,91.41,26.01c-0.05-2.8-0.09-5.61-0.14-8.41c-35,39.83-83.29,66.96-134.7,79.07
					c-53.61,12.63-110.67,8.07-161.84-12.22c-28.05-11.12-54.18-26.87-76.8-46.87C760.56,1601.71,754.31,1611.53,758.04,1614.82
					L758.04,1614.82z"/>
			</g>
		</g>
		<g>
			<path class="st5" d="M1060.66,988.38c-53.93-23.63-131.03,7.53-196.17,3.79c-39.93-2.3-136.44-26.97-190.29-58.22
				c-30.18-17.51-75.92-53.68-83.33-54.52c-93.4-10.58-137.98-3.1-208.44-4.65c-22.15-0.49-43.7,0.02-58.56-15.22
				c-16.42-16.84-18.49-45.95-16.88-68.6c2.07-29.3-2.17-68.56,25.19-83.34c32.18-17.38,62.64-27.03,97.57-34.55
				c105.99-22.82,219.7-33.42,323.25-2.44c75.38,22.55,139.59,69.16,190.98,125.03c51.39,55.87,77.75,119.05,118.59,189.44"/>
			<g>
				<path class="st5" d="M1063.59,983.3c-26.35-11.29-55.66-10.19-83.59-7.2c-31.49,3.37-62.71,9.9-94.44,10.89
					c-22.53,0.71-44.51-2.84-66.45-7.62c-26.51-5.78-52.71-13.23-78.29-22.27c-24.42-8.64-48.56-18.7-70.62-32.39
					c-21.43-13.3-41.47-28.66-62.47-42.6c-3.26-2.16-6.54-4.37-10.01-6.18c-3.52-1.84-6.75-2.08-10.74-2.51
					c-16.7-1.79-33.45-3.18-50.22-4.04c-26.83-1.38-53.67-1.21-80.52-0.59c-26.1,0.6-52.15,1.05-78.26,0.5
					c-14.27-0.3-29.72-0.48-42.4-7.92c-12.33-7.24-18.92-20.35-22.09-33.85c-3.15-13.38-3-27.12-2.17-40.75
					c0.76-12.48,0.5-25.05,1.95-37.49c1.28-11.01,3.61-23.27,11.71-31.46c4.9-4.96,11.69-7.79,17.85-10.83
					c7.83-3.87,15.81-7.43,23.95-10.6c31.57-12.31,64.93-19.18,98.16-25.27c35-6.41,70.34-11.16,105.87-13.22
					c68.45-3.97,139.15,1.61,203.7,26.1c58.49,22.19,110.52,59.24,154.13,103.77c22.08,22.54,41.39,47.24,58.28,73.88
					c17.19,27.1,32.14,55.54,47.41,83.74c8.02,14.81,16.15,29.57,24.59,44.15c2.5,4.32,9.58-4.88,7.28-8.86
					c-33.19-57.32-60.58-118.74-102.39-170.62C924.28,761,873.55,718.76,817.34,690.2c-61.21-31.1-129.83-43.53-198.08-44.17
					c-35.92-0.33-71.83,2.47-107.41,7.32c-35.03,4.77-70.27,10.94-104.47,19.99c-15.99,4.23-31.69,9.46-46.95,15.85
					c-7.96,3.34-15.78,7.01-23.45,10.98c-6.03,3.12-11.57,6.43-16.24,11.43c-17.58,18.84-16.61,47.6-17.49,71.6
					c-0.96,26.04-3.39,55.98,14.22,77.68c9.06,11.16,22.18,16.22,36.12,17.96c14.58,1.82,29.61,1.46,44.28,1.5
					c26.06,0.08,52.09-0.99,78.14-1.28c29.74-0.33,59.45,0.67,89.08,3.3c4.35,0.39,8.69,0.8,13.03,1.25
					c3.6,0.37,7.78,0.28,11.27,1.27c1.55,0.44,5.03,2.61,7.07,3.87c9.38,5.82,18.33,12.35,27.36,18.69
					c21.52,15.12,43,30.37,66.82,41.71c25.17,11.99,51.66,21.2,78.37,29.07c24.28,7.16,49.02,13.31,74.06,17.11
					c26.58,4.04,53.1,2.12,79.65-1.34c31.22-4.06,62.68-10.42,94.31-9.03c13.94,0.61,27.8,2.94,40.68,8.46
					C1062.24,995.39,1067.86,985.13,1063.59,983.3L1063.59,983.3z"/>
			</g>
		</g>
		<g>
			<path class="st11" d="M1022.44,984.2c15.35-6.31,35.05-1.73,45.37,10.55c10.32,12.28,10.28,31.1-0.09,43.35
				c-10.37,12.25-31.03,19.47-46.36,13.11c0-33.72-6.11-37.7-9.27-63.83"/>
			<g>
				<path class="st12" d="M1021.45,989.48c20.68-8.02,48.87,3.46,49.81,27.9c0.87,22.78-27.4,36.35-46.97,28.76
					c0.43,0.91,0.86,1.82,1.3,2.73c-0.04-11.75-0.85-23.43-3.39-34.93c-2.12-9.64-4.66-19.09-5.88-28.91
					c-0.87-6.92-9.02,0.18-8.46,4.7c1.24,9.93,3.51,19.52,5.76,29.25c2.64,11.41,3.48,22.89,3.52,34.58c0,0.82,0.37,2.37,1.3,2.73
					c26.18,10.15,58.34-10.37,61.08-38.02c1.36-13.78-4.38-27.23-15.97-35.02c-11.6-7.79-27.13-9.36-40.1-4.33
					c-2.63,1.02-4.63,3.51-5.11,6.32C1018.03,987.05,1018.77,990.52,1021.45,989.48L1021.45,989.48z"/>
			</g>
		</g>
		<g>
			<g>
				<path d="M1002.1,1065.94c19.96-5.43,42.24-2.36,61.41-10.98c11.26-5.06,19.12-17.9,21.14-29.75
					c2.19-12.85-2.47-25.18-11.95-33.96c-24.4-22.6-60.02-16.45-89.69-11.35c-30.73,5.29-61.79,7.64-92.97,6.7
					c-61.09-1.85-121.87-15.49-177.75-40.28c-27.41-12.16-53.64-27-78.02-44.46c-26.87-19.25-50.55-42.1-73.84-65.46
					c-45.09-45.24-93.03-92.72-157.45-107.61c-7.66-1.77-15.42-2.98-23.25-3.69c-4.53-0.41-9.21,10.26-4.04,10.73
					c63.7,5.76,114.92,47.47,158.72,90.71c23.24,22.94,45.71,46.78,70.88,67.66c22.15,18.38,46.26,34.38,71.66,47.91
					c51.23,27.31,107.77,44.78,165.36,51.87c29.27,3.6,58.89,4.5,88.32,2.56c14.38-0.95,28.71-2.54,42.94-4.84
					c17.61-2.84,35.3-6.87,53.25-5.88c13.6,0.75,27.41,4.81,37.95,13.74c9.96,8.45,15.42,22.13,9.54,34.57
					c-4.92,10.43-14.57,12.92-24.98,14.79c-10.94,1.96-22.03,2.85-33.04,4.29c-4.09,0.53-8.21,1.1-12.19,2.18
					C999.89,1056.54,996.4,1067.5,1002.1,1065.94L1002.1,1065.94z"/>
			</g>
		</g>
		<g>
			<g>
				<path d="M536.29,815.24c-58.57-8.36-117.66-12.56-176.82-12.6c-4.57,0-9.05,10.73-4.04,10.73
					c59.16,0.03,118.26,4.24,176.82,12.6C536.74,826.61,541.51,815.98,536.29,815.24L536.29,815.24z"/>
			</g>
		</g>
		<g>
			<g>
				<path d="M590.15,870.17c-45.23,5.25-90.97,5.75-136.45,5c-22.47-0.37-44.93-1.13-67.38-2.08c-19.82-0.84-42.63-0.16-59.58-12.1
					c-15.98-11.25-19.78-31.43-20.55-49.73c-0.86-20.58-0.83-42.26,3.87-62.4c4.64-19.91,16.07-36.15,33.31-47.13
					c16.22-10.33,34.84-16.18,53.4-20.64c20.79-5,41.95-8.58,63.01-12.25c23.19-4.04,46.46-7.66,69.83-10.5
					c46.52-5.67,93.64-8.27,140.41-4.39c44.96,3.73,89.49,13.7,130.64,32.46c38.83,17.7,74.25,42.54,105.35,71.68
					c66.78,62.57,112.22,142.88,153.53,223.54c5.27,10.29,10.49,20.61,15.72,30.93c2.19,4.33,9.35-4.76,7.28-8.86
					c-42.95-84.84-87.06-171.06-154.19-239.73c-30.56-31.26-65.32-58.66-104.09-79.03c-40.7-21.38-85.34-34.1-130.87-39.74
					c-47.72-5.9-96.05-4.38-143.78,0.55c-46.82,4.84-93.66,12.49-139.7,22.27c-38,8.07-80.34,21.72-99.35,58.77
					c-10.01,19.5-12.33,41.48-12.84,63.09c-0.45,19.12-1.39,39.92,5.64,58.07c7.58,19.58,24.23,29.76,44.36,33.2
					c10.59,1.81,21.39,2.08,32.1,2.54c11.55,0.5,23.11,0.94,34.67,1.32c47.05,1.51,94.26,1.99,141.25-1.31
					c10.83-0.76,21.65-1.75,32.44-3C592.51,880.21,596.21,869.47,590.15,870.17L590.15,870.17z"/>
			</g>
		</g>
		<g>
			<g>
				<path d="M858.15,706.51c12.82-10.29,25.04-21.97,39.98-29.2c7.14-3.45,15.58-5.94,23.54-4.36c7.44,1.47,13.45,6.73,18.12,12.43
					c5.81,7.1,26.18,34.49,11.26,40.55c-4.12,1.67-8.84,1.26-13.19,1.2c-5.32-0.07-10.64-0.15-15.96-0.23
					c-10.64-0.15-21.28-0.3-31.92-0.45c-4.57-0.07-9.08,10.66-4.04,10.73c9.98,0.14,19.95,0.28,29.93,0.43
					c9.07,0.13,18.47,0.99,27.51,0.06c15.69-1.61,24.05-17.56,20.09-32.11c-2.03-7.43-6.41-14.39-10.52-20.83
					c-3.77-5.9-8.09-11.48-13.53-15.93c-11.92-9.73-26.84-7.86-40.04-1.82c-16.33,7.47-29.66,20.25-43.51,31.36
					C851.91,701.5,852.16,711.32,858.15,706.51L858.15,706.51z"/>
			</g>
		</g>
		<g>
			<g>
				<path d="M743.27,1610.24c4.57,0,9.05-10.73,4.04-10.73C742.74,1599.51,738.25,1610.24,743.27,1610.24L743.27,1610.24z"/>
			</g>
		</g>
		<g>
			<g>
				<path d="M747.55,1599.82c-63.6,1.49-127.38-7.27-188.08-26.4c-3.49-1.1-6.59,2.99-7.04,6.12c-3.68,25.27-9.57,50.12-17.7,74.32
					c-0.44,1.32-1.15,4.69,0.79,5.43c65.79,24.98,139.28,47.76,210.2,34.23c4.3-0.82,7.91-11.68,1.99-10.55
					c-34.56,6.59-70.19,3.68-104.48-3.15c-34.84-6.95-68.68-18.09-101.84-30.69c0.26,1.81,0.52,3.62,0.79,5.43
					c8.44-25.11,14.68-50.89,18.49-77.1c-2.35,2.04-4.7,4.08-7.04,6.12c61.38,19.34,125.57,28.48,189.91,26.97
					C748.08,1610.44,752.51,1599.7,747.55,1599.82L747.55,1599.82z"/>
			</g>
		</g>
		<g>
			<g>
				<path d="M747.72,1609.35c37.24-34.92,88.69-46.87,137.76-54.03c26.4-3.85,53.64-8.3,80.37-7.79
					c28.41,0.55,56.37,6.48,83.57,14.36c30.71,8.89,60.65,20.2,91.25,29.43c-0.05-2.8-0.09-5.61-0.14-8.41
					c-30.74,37.53-72.1,66.76-118.16,82.23c-42.6,14.31-87.75,15.32-131.26,4.58c-26.46-6.54-52.28-15.61-78.36-23.49
					c-4.2-1.27-9.24,9.16-4.04,10.73c44.05,13.31,87.57,30.16,134.15,30.89c50.27,0.78,99.55-15.67,141.1-43.59
					c22.86-15.36,43.42-33.94,60.88-55.26c1.8-2.2,3.67-7.26-0.14-8.41c-55.73-16.82-110.51-41.13-169.46-43.63
					c-27.15-1.15-54.58,3.2-81.41,6.9c-25.55,3.53-51.11,8.09-75.66,16.12c-26.76,8.75-52.1,21.83-72.74,41.19
					c-1.79,1.68-3.94,4.99-2.92,7.58C743.45,1611.19,745.99,1610.97,747.72,1609.35L747.72,1609.35z"/>
			</g>
		</g>
		<g>
			<g>
				<path d="M748.94,1614.6c62.57,14.81,127.86,16.45,191.14,5.1c4.31-0.77,7.93-11.61,1.99-10.55
					c-62.61,11.23-127.2,9.37-189.09-5.28C748.65,1602.85,743.7,1613.36,748.94,1614.6L748.94,1614.6z"/>
			</g>
		</g>
		<g>
			<g>
				<path d="M751.93,1622.11c64.86,24.55,115.88,82.3,122.3,152.74c1.9,20.88,0.01,42.05-5.92,62.18c1.91-1.67,3.82-3.35,5.74-5.02
					c-34.51-9.35-64.84-30.93-86.61-59.1c-22.06-28.55-34.53-63.28-37.65-99.1c-1.94-22.27-0.83-44.68,1.09-66.92
					c-2.62,2.26-5.24,4.52-7.87,6.78c33.65,36.73,57.41,81.69,67.52,130.54c0.57,2.75,3.71,1.81,5.22,0.59
					c2.13-1.72,3.48-4.87,2.92-7.58c-10.23-49.41-34.35-95.25-68.38-132.41c-3.64-3.97-7.63,4-7.87,6.78
					c-3.4,39.31-3.81,79.56,9.34,117.29c12.02,34.49,33.75,65.16,63.08,87.06c16.56,12.37,35.23,21.4,55.17,26.8
					c2.42,0.66,5.21-3.23,5.74-5.02c10.86-36.86,10.14-76.56-3.07-112.75c-12.19-33.41-34.4-62.26-62.49-83.9
					c-15.92-12.26-33.61-22.01-52.39-29.12C753.18,1610.2,747.66,1620.49,751.93,1622.11L751.93,1622.11z"/>
			</g>
		</g>
		<g>
			<g>
				<path d="M737.99,1605.89c-26.26,30.9-72.93,41.84-111.06,29.76c-4.72-1.49-10.1,8.82-5.87,10.16
					c42.54,13.47,92.15,0.41,121.25-33.83c1.43-1.69,3.14-5.43,1.48-7.48C742.06,1602.37,739.29,1604.36,737.99,1605.89
					L737.99,1605.89z"/>
			</g>
		</g>
		<g>
			<g>
				<defs>
					<rect id="SVGID_1_" x="375.75" y="1238.89" width="267.73" height="129.94"/>
				</defs>
				<clipPath id="SVGID_2_">
					<use xlink:href="#SVGID_1_"  style="overflow:visible;"/>
				</clipPath>
				<g class="st13">
					<path d="M644.13,1319.46c-31.74-31.24-90.24-33.18-130.71-12.33c-22.52,11.6-39.7,30.44-61.28,43.47
						c-21.58,13.03-52.07,19.15-72.04,4.06c27.48-6.61,39.57-35.34,55.44-57.16c24.91-34.26,69.57-56.72,113.94-52.78
						s88.54,29.87,94.73,70.78"/>
					<g>
						<path d="M647.77,1315.03c-25.83-24.98-64.58-30.98-98.92-24.7c-19.03,3.48-36.5,11.2-52.28,22.33
							c-17.05,12.02-32.18,27.26-50.97,36.66c-19.16,9.59-44.19,13.64-62.57,0.26c-1.31,3.45-2.62,6.9-3.93,10.35
							c20.78-5.32,34.04-22.26,45.32-39.37c5.78-8.77,11.16-17.83,17.87-25.94c7.49-9.05,16.4-17.02,26.2-23.51
							c39.06-25.89,89.72-28.41,130.77-5.39c20.44,11.46,37.02,29.56,40.86,53.27c0.45,2.8,3.78,1.75,5.22,0.59
							c2.21-1.78,3.37-4.82,2.92-7.58c-7.29-44.95-55.39-69.02-96.78-72.65c-47.68-4.18-94.59,20.81-121.35,59.71
							c-13.17,19.14-24.56,44.05-49.04,50.33c-3.38,0.87-7.59,7.69-3.93,10.35c15.27,11.12,35.38,10.85,52.82,5.56
							c19.44-5.9,35.32-18.34,50.98-30.81c16.01-12.76,32.23-24.42,52.09-30.32c17.46-5.18,35.98-6.71,54.04-4.31
							c19.61,2.6,39.02,10.12,53.4,24.03C644.37,1327.64,650.95,1318.11,647.77,1315.03L647.77,1315.03z"/>
					</g>
				</g>
			</g>
			<g>
				<defs>
					<rect id="SVGID_3_" x="643.48" y="1238.89" width="267.73" height="129.94"/>
				</defs>
				<clipPath id="SVGID_4_">
					<use xlink:href="#SVGID_3_"  style="overflow:visible;"/>
				</clipPath>
				<g class="st14">
					<path d="M642.83,1319.46c31.74-31.24,90.24-33.18,130.71-12.33c22.52,11.6,39.7,30.44,61.28,43.47s52.07,19.15,72.04,4.06
						c-27.48-6.61-39.57-35.34-55.44-57.16c-24.91-34.26-69.57-56.72-113.94-52.78c-44.37,3.94-88.54,29.87-94.73,70.78"/>
					<g>
						<path d="M643.98,1323.54c26.25-25.38,67.37-29.29,101.46-20.77c19.37,4.84,35.94,14.84,51.57,27.02
							c16.28,12.67,32,26.81,51.72,33.89c19.72,7.08,41.74,7.83,59.28-4.93c2.42-1.76,5.14-8.35,0.87-9.45
							c-22.32-5.72-34.42-26.89-46.11-44.87c-12.82-19.73-28.56-36.35-49.17-48.07c-41.56-23.65-94.58-23.07-134.97,3.11
							c-20.24,13.12-36.05,32.85-39.98,57.09c-1.23,7.58,7.42,2.9,8.22-2.09c7.02-43.29,57.99-64.29,97.21-64.81
							c23.34-0.31,46.36,6.45,66.32,18.42c19.85,11.9,34.17,28.32,46.6,47.55c12.1,18.73,24.91,38.53,47.84,44.41
							c0.29-3.15,0.58-6.3,0.87-9.45c-15.88,11.56-38.32,8.36-55.35,1.3c-19.41-8.04-34.91-22.79-51.45-35.3
							c-15.4-11.64-31.97-20.38-50.81-24.88c-17.66-4.21-36.23-4.85-54.13-1.74c-19.37,3.37-38.06,11.65-52.29,25.41
							c-1.77,1.71-3.95,4.97-2.92,7.58C639.7,1325.36,642.27,1325.19,643.98,1323.54L643.98,1323.54z"/>
					</g>
				</g>
			</g>
		</g>
		<g class="st15">
			<path d="M211.77,1130.1c-3.01,57.63,40.91,114.54,100.72,130.51c-35.52,10.74-77.64-1.08-100.77-28.28s-25.7-67.91-6.15-97.43"/>
			<g>
				<path d="M199.48,1130.1c-2.31,50.52,27.4,98.19,69.36,124.69c12.44,7.86,26.21,13.81,40.39,17.69c0-7.9,0-15.81,0-23.71
					c-23.65,6.93-49.56,3.4-70.79-9.64c-20.59-12.65-33.4-35.06-33.66-59.01c-0.15-14.02,3.57-26.89,11.41-38.99
					c3.61-5.57,1.13-13.58-4.41-16.82c-5.97-3.49-13.2-1.18-16.82,4.41c-17.87,27.55-19.07,62.94-5.13,92.36
					c13.38,28.22,42.04,47.38,72.2,53.37c17.82,3.54,36.24,3.17,53.73-1.96c11.54-3.38,11.86-20.47,0-23.71
					c-26.46-7.23-50.49-23.39-67-44.55c-17.04-21.83-25.92-47.24-24.69-74.11c0.3-6.64-5.87-12.3-12.3-12.3
					C204.86,1117.8,199.78,1123.44,199.48,1130.1L199.48,1130.1z"/>
			</g>
		</g>
		<g class="st15">
			<path d="M388.96,1703.83c-9.65,36.69,8.98,78.23,43.85,97.76c99.14,55.54,215.84,78.18,331.21,87.87
				c115.37,9.69,218.02,9.72,333.34,19.84c-311.58,48.06-617.91,46.76-929.86,0.8c51.54-85.52,129.73-157.06,222.65-203.71"/>
			<g>
				<path d="M377.1,1700.56c-5.65,22.3-2.62,45.34,7.05,66.06c9.69,20.75,26.4,36.79,46.29,47.72
					c46.59,25.58,96.89,44.21,148.25,57.61c106.81,27.85,217.8,33.38,327.57,38.45c63.75,2.95,127.51,5.65,191.1,11.2
					c-1.09-8.05-2.18-16.1-3.27-24.15c-119.13,18.34-239.34,29.56-359.8,33.56c-120.11,3.98-240.43,0.74-360.19-9.28
					c-68-5.69-135.82-13.55-203.33-23.48c2.45,6.02,4.9,12.04,7.35,18.06c39.99-66.12,95.25-122.6,159.58-165.28
					c18.85-12.51,38.46-23.84,58.66-34.02c5.93-2.99,7.61-11.35,4.41-16.82c-3.53-6.03-10.87-7.41-16.82-4.41
					c-72.52,36.54-137.74,88.58-188.17,152.33c-14.09,17.8-27.14,36.36-38.89,55.79c-3.71,6.13-0.6,16.89,7.35,18.06
					c121.48,17.87,243.87,29.45,366.6,33.57c121.4,4.08,243.02,0.94,364.04-9.54c68.84-5.96,137.46-14.31,205.75-24.82
					c5.96-0.92,9.62-8.07,8.81-13.49c-0.96-6.36-5.81-10.11-12.08-10.66c-110.26-9.63-221.06-10.5-331.35-19.68
					c-100.94-8.4-203.73-26.23-295.79-70.21c-12.23-5.84-24.81-11.77-36.19-19.16c-8.37-5.44-16.31-13.36-21.76-21.54
					c-12.03-18.04-16.55-39.18-11.45-59.33C404.7,1691.75,380.99,1685.2,377.1,1700.56L377.1,1700.56z"/>
			</g>
		</g>
		<g class="st15">
			<path d="M563.63,1599.78c48.83,36.37,115.86,67.86,175.47,85.7c-42.85,0-102.84-3.78-146.14-18.31
				c-29.79-9.99-54.05-23.24-30.46-65.45"/>
			<g>
				<path d="M557.42,1610.4c53.04,39.33,115.33,67.96,178.41,86.93c1.09-8.05,2.18-16.1,3.27-24.15
					c-33.16-0.03-66.61-1.76-99.33-7.34c-15.91-2.72-31.7-6.34-46.95-11.69c-1.49-0.52-2.97-1.06-4.45-1.62
					c-0.46-0.17-4.52-1.8-2.41-0.91c-2.7-1.14-5.35-2.41-7.91-3.83c-1.22-0.67-2.42-1.38-3.58-2.14c-0.68-0.44-3.68-2.73-1.58-1
					c-0.87-0.72-1.72-1.45-2.53-2.23c-0.65-0.62-3.17-3.65-1.49-1.36c-0.82-1.12-1.51-2.3-2.21-3.5c-0.21-0.37-1-2.19-0.36-0.63
					c0.71,1.7-0.31-1.08-0.34-1.18c-0.27-1.05-0.73-4.17-0.5-1.54c-0.16-1.79-0.09-3.53-0.09-5.32c0-0.12,0.16-2,0.01-0.66
					c-0.17,1.51,0.3-1.65,0.37-1.94c0.41-1.96,0.95-3.89,1.58-5.79c1.43-4.37,3.48-8.4,5.78-12.59
					c7.62-13.88-13.61-26.3-21.23-12.41c-7.85,14.29-14.98,32.27-9.03,48.58c4.86,13.31,16.06,22.14,28.64,27.85
					c33.08,15.02,70.45,20.12,106.32,23.25c20.38,1.77,40.83,2.56,61.28,2.58c14.01,0.01,16.51-20.17,3.27-24.15
					c-61.18-18.41-121.1-46.31-172.53-84.46c-5.34-3.96-13.73-0.88-16.82,4.41C549.35,1599.84,552.07,1606.43,557.42,1610.4
					L557.42,1610.4z"/>
			</g>
		</g>
		<g class="st15">
			<path d="M572.52,1583.75c52.71,0.67,105.54-9.5,153.6-29.55c-51.39,12.83-106.19,13.75-158.04,2.64
				c-0.85,4.94-1.69,9.88-2.54,14.82"/>
			<g>
				<path d="M572.52,1596.04c53.59,0.55,107.34-9.47,156.87-29.99c6.13-2.54,10.5-8.15,8.59-15.12c-1.8-6.56-8.66-10.18-15.12-8.59
					c-49.52,12.22-101.59,13.19-151.51,2.64c-6-1.27-13.95,1.72-15.12,8.59c-0.85,4.94-1.69,9.88-2.54,14.82
					c-1.12,6.54,1.74,13.24,8.59,15.12c5.91,1.62,14-2.01,15.12-8.59c0.85-4.94,1.69-9.88,2.54-14.82
					c-5.04,2.86-10.08,5.73-15.12,8.59c54.31,11.48,110.67,10.66,164.58-2.64c-2.18-7.9-4.36-15.81-6.54-23.71
					c-47.67,19.75-98.74,29.64-150.34,29.11C556.69,1571.29,556.68,1595.88,572.52,1596.04L572.52,1596.04z"/>
			</g>
		</g>
		<g class="st15">
			<path d="M757.24,1643.66c40.4,63.68,80.81,127.36,121.21,191.05c-79.26-37.03-128.77-122.44-118.35-204.14"/>
			<g>
				<path d="M746.62,1649.87c40.4,63.68,80.81,127.36,121.21,191.05c5.61-5.61,11.22-11.21,16.82-16.82
					c-57.29-27.03-99.69-79.97-111.07-142.19c-1.45-7.91-2.25-15.63-2.5-24.65c-0.25-8.92,0.22-17.82,1.31-26.68
					c0.81-6.6-6.23-12.3-12.3-12.3c-7.32,0-11.48,5.67-12.3,12.3c-8.39,68.08,22.97,137.67,74.29,181.92
					c15.21,13.11,31.99,24.26,50.16,32.83c5,2.36,10.8,2.18,14.9-1.92c3.76-3.76,4.83-10.32,1.92-14.9
					c-40.4-63.68-80.81-127.36-121.21-191.05c-3.55-5.6-10.94-7.85-16.82-4.41C745.45,1636.31,743.05,1644.24,746.62,1649.87
					L746.62,1649.87z"/>
			</g>
		</g>
		<g class="st15">
			<path d="M767.89,1616.31c117.74,29.8,246.35,21.2,358.27-23.93c-38.34,42.9-94.27,71.94-153.76,79.86
				c-59.49,7.91-121.97-5.38-171.78-36.55"/>
			<g>
				<path d="M764.62,1628.16c93.81,23.58,193.28,23.72,287.25,0.91c26.41-6.41,52.33-14.72,77.55-24.84
					c-3.99-6.85-7.98-13.7-11.96-20.55c-59.51,66.11-153.86,92.31-239.65,71.16c-25.14-6.2-48.99-16.12-70.99-29.78
					c-13.48-8.37-25.84,12.89-12.41,21.23c84.01,52.15,194.05,53.56,279.48,3.98c22.64-13.14,43.44-29.75,60.96-49.21
					c3.68-4.08,4.78-10.01,1.92-14.9c-2.53-4.33-8.91-7.65-13.89-5.65c-86.75,34.82-181.49,47.48-274.41,37.77
					c-26.07-2.72-51.9-7.45-77.32-13.84C755.81,1600.59,749.26,1624.3,764.62,1628.16L764.62,1628.16z"/>
			</g>
		</g>
		<g class="st15">
			<path d="M353.54,1007.46c10.02,31.53,1.62,67.55-21.56,92.43c5.26-26.13,10.52-52.27,15.79-78.4"/>
			<g>
				<path d="M341.68,1010.73c8.55,27.75,1.75,58.48-18.39,80.46c6.85,3.99,13.7,7.98,20.55,11.96c5.26-26.13,10.52-52.27,15.79-78.4
					c1.31-6.5-1.87-13.28-8.59-15.12c-6.06-1.67-13.81,2.05-15.12,8.59c-5.26,26.13-10.52,52.27-15.79,78.4
					c-1.09,5.4,0.72,11,5.65,13.89c4.56,2.67,11.24,2.07,14.9-1.92c25.58-27.92,35.97-67.88,24.72-104.39
					C360.75,989.11,337,995.54,341.68,1010.73L341.68,1010.73z"/>
			</g>
		</g>
		<g class="st15">
			<path d="M321.92,738.94c6.43,44.2,44.29,80.1,87.74,99.27s92.26,24.46,140.07,29.5c-66.43,5.99-133.63,4.63-199.72-4.03
				c-15.88-2.08-27.94-15.39-32.13-29.74c-4.19-14.34-2-29.58,0.92-44.19s6.54-29.37,5.12-44.18"/>
			<g>
				<path d="M310.06,742.21c5.46,35.63,29.35,64.99,57.59,85.9c31.97,23.67,71.11,35.58,109.83,42.49
					c23.91,4.27,48.1,6.86,72.25,9.4c0-8.2,0-16.39,0-24.59c-44.97,4-90.21,4.74-135.29,2.08c-11.1-0.66-22.19-1.51-33.25-2.58
					c-10.14-0.97-20.79-1.41-30.75-3.6c-6.2-1.36-11.75-5.21-15.27-9.97c-4.83-6.51-6.93-13.34-7.26-22
					c-0.95-24.96,10.35-48.66,8.3-73.78c-0.54-6.62-5.27-12.3-12.3-12.3c-6.23,0-12.84,5.64-12.3,12.3
					c1.94,23.78-8.14,46.39-8.35,70.08c-0.19,21.16,8.28,42.01,26.68,53.56c9.7,6.1,20.64,6.9,31.74,8.21
					c11.69,1.38,23.4,2.53,35.14,3.45c23.81,1.87,47.69,2.8,71.57,2.79c27.15-0.01,54.29-1.25,81.34-3.66
					c15.89-1.41,15.72-22.93,0-24.59c-68.77-7.25-150.83-15.72-196.35-74.56c-10.16-13.14-17-28.22-19.6-45.18
					c-1.01-6.57-9.26-10.2-15.12-8.59C311.63,729.02,309.05,735.62,310.06,742.21L310.06,742.21z"/>
			</g>
		</g>
		<g class="st15">
			<path d="M418.67,729.21c63.67,48.34,127.34,96.68,191.01,145.01c119.98,91.09,284.24,129.95,436.64,103.3
				c-161.67-15.31-316.88-83.9-431.48-190.71c-52.89-49.29-131.08-74.15-205.47-65.33"/>
			<g>
				<path d="M412.46,739.83c41.92,31.82,83.83,63.64,125.75,95.47c37.89,28.77,74.91,59.37,116.04,83.49
					c75.29,44.16,160.8,69.95,247.64,77.25c49.31,4.14,98.96,1.79,147.7-6.65c5.95-1.03,9.64-7.98,8.81-13.49
					c-0.96-6.4-5.81-10.06-12.08-10.66c-91.56-8.77-181.72-35.02-263.71-76.7c-40.34-20.51-79.09-44.64-114.74-72.55
					c-17.82-13.95-34.17-29.39-51.32-44.1c-17.19-14.73-36.26-27.21-56.7-36.94c-46.56-22.14-99.16-31.66-150.48-25.74
					c-6.6,0.76-12.3,5.11-12.3,12.3c0,6.06,5.66,13.06,12.3,12.3c43.9-5.06,88.62,1.11,129.35,18.44
					c19.78,8.42,38.94,19.5,55.64,33.04c17.46,14.16,33.43,30.04,51.03,44.08c72.91,58.16,156.72,101.88,245.76,129.53
					c50.49,15.68,102.56,25.91,155.18,30.95c-1.09-8.05-2.18-16.1-3.27-24.15c-83.24,14.42-169.82,8.77-250.92-14.57
					c-40.24-11.58-79.09-27.52-115.66-47.93c-40.12-22.4-75.83-51.13-112.32-78.84c-46.43-35.25-92.85-70.49-139.28-105.74
					c-5.29-4.02-13.75-0.83-16.82,4.41C404.36,729.32,407.16,735.8,412.46,739.83L412.46,739.83z"/>
			</g>
		</g>
		<g class="st15">
			<path d="M917,680.41c-14.03,14.67-28.06,29.34-42.1,44.01c-4.59-6.27-9.18-12.54-13.77-18.81
				c18.93-11.93,37.86-23.85,56.79-35.78"/>
			<g>
				<path d="M908.31,671.71c-14.03,14.67-28.06,29.34-42.1,44.01c6.44,0.83,12.87,1.66,19.31,2.49
					c-4.59-6.27-9.18-12.54-13.77-18.81c-1.47,5.61-2.94,11.22-4.41,16.82c18.93-11.93,37.86-23.85,56.79-35.78
					c13.36-8.41,1.03-29.7-12.41-21.23c-18.93,11.93-37.86,23.85-56.79,35.78c-5.18,3.27-8.45,11.31-4.41,16.82
					c4.59,6.27,9.18,12.54,13.77,18.81c4.51,6.16,13.37,8.7,19.31,2.49c14.03-14.67,28.06-29.34,42.1-44.01
					C936.64,677.66,919.28,660.25,908.31,671.71L908.31,671.71z"/>
			</g>
		</g>
		<g class="st15">
			<g>
				<path class="st3" d="M311.57,1270.95c8.61,92.57,63.75,175.63,140.62,226.47c79.32,52.47,179.87,65.64,272.17,47.63
					c51.19-9.99,100.36-30.63,141.34-63.15c5.21-4.13,4.32-13.07,0-17.39c-5.14-5.14-12.17-4.14-17.39,0
					c-32.89,26.1-73.54,43.52-114.97,53.45c-43.38,10.4-88.59,12.76-133.38,7.35c-41.97-5.06-84.49-18.65-121.49-40.45
					c-36.51-21.51-69.06-51.17-93.22-85.53c-26.9-38.25-44.88-82.99-49.1-128.39c-0.61-6.61-5.21-12.3-12.3-12.3
					C317.69,1258.65,310.95,1264.29,311.57,1270.95L311.57,1270.95z"/>
			</g>
		</g>
		<g class="st15">
			<g>
				<path class="st3" d="M617.39,1184.03c-11.11,22.1,0.78,47.15,23.12,55.78c6.2,2.39,13.49-2.64,15.12-8.59
					c1.91-6.95-2.37-12.72-8.59-15.12c1.34,0.52-2.36-1.34-2.83-1.66c-1.22-0.83-1.4-0.97-0.53-0.4c-0.63-0.56-1.24-1.14-1.81-1.75
					c-2.4-2.47,0.71,1.42-1.2-1.43c-0.26-0.38-2.39-4.33-1.63-2.57c-0.65-1.51-1.03-3.12-1.4-4.72c-0.55-2.33-0.31,0.99-0.11-1.58
					c0.19-2.45,0.18-3.77,1.08-5.56c2.98-5.93,1.57-13.32-4.41-16.82C628.75,1176.42,620.39,1178.07,617.39,1184.03L617.39,1184.03z
					"/>
			</g>
		</g>
		<g class="st15">
			<g>
				<path class="st3" d="M1023.59,1130.68c16.54,6.16,30.9,20.09,36.54,36.2c2.19,6.27,8.41,10.43,15.12,8.59
					c6.08-1.67,10.79-8.83,8.59-15.12c-8.88-25.36-28.73-44.07-53.71-53.38c-6.22-2.32-13.48,2.59-15.12,8.59
					C1013.11,1122.44,1017.34,1128.35,1023.59,1130.68L1023.59,1130.68z"/>
			</g>
		</g>
		<g class="st15">
			<g>
				<path class="st3" d="M753.48,1617.44c27.56,9.49,57.75,12.37,86.74,12.73c28.98,0.35,59.26-1.86,86.98-10.83
					c14.99-4.85,8.58-28.6-6.54-23.71c-26.31,8.51-52.56,10.29-80.45,9.95c-27.67-0.34-53.92-2.79-80.2-11.85
					c-6.28-2.16-13.44,2.47-15.12,8.59C743.04,1609.07,747.18,1615.27,753.48,1617.44L753.48,1617.44z"/>
			</g>
		</g>
		<g class="st15">
			<g>
				<path class="st3" d="M727.68,1609.97c-3.07,2.83-6.16,5.64-9.35,8.33c-1.31,1.11-2.63,2.21-4,3.26
					c1.74-1.33-0.81,0.55-1.17,0.81c-2.13,1.5-4.33,2.91-6.64,4.12c-0.65,0.34-4.3,1.88-0.99,0.59c-0.91,0.36-1.83,0.71-2.76,1.02
					c-10.57,3.52-22.21,4.06-33.15,5.85c-6.56,1.07-10.21,9.21-8.59,15.12c1.92,6.97,8.55,9.66,15.12,8.59
					c11.44-1.87,23.79-2.31,34.73-6.4c13.28-4.97,23.88-14.38,34.17-23.88C756.72,1616.6,739.3,1599.24,727.68,1609.97
					L727.68,1609.97z"/>
			</g>
		</g>
		<g class="st15">
			<g>
				<path class="st3" d="M547.07,1679.45c12.92,30.34,44.33,54.64,77.32,58.08c13.29,1.39,26.84-0.17,40.01-1.97
					c14.78-2.02,29.45-4.99,43.81-9.02c12.96-3.63,26.76-7.84,38.14-15.2c5.57-3.6,7.87-10.91,4.41-16.82
					c-3.24-5.54-11.22-8.03-16.82-4.41c-1.75,1.13-3.57,2.16-5.43,3.11c-0.92,0.47-1.86,0.92-2.8,1.35
					c-0.57,0.26-1.14,0.51-1.71,0.77c-1.32,0.61,1.99-0.78-0.22,0.1c-5.53,2.19-11.13,4.14-16.82,5.86
					c-12.94,3.91-26.18,6.89-39.51,9.11c-1.71,0.28-3.43,0.56-5.14,0.81c-0.52,0.08-4.44,0.62-2.45,0.36
					c-3.48,0.45-6.98,0.84-10.48,1.14c-5.76,0.5-11.55,0.8-17.34,0.68c-2.56-0.05-5.1-0.29-7.66-0.45
					c-2.17-0.13,2.38,0.55-0.95-0.15c-1.01-0.21-2.02-0.4-3.02-0.65c-7.35-1.86-13.5-4.61-20.01-8.46
					c-14.54-8.6-25.41-20.92-32.11-36.65c-2.6-6.11-11.61-7.46-16.82-4.41C545.16,1666.32,544.46,1673.31,547.07,1679.45
					L547.07,1679.45z"/>
			</g>
		</g>
		<g class="st15">
			<g>
				<path class="st3" d="M695.91,722.2c72.34,21.1,137.43,68.33,177.72,131.96c11.25,17.77,20.29,36.15,27.02,55.35
					c2.2,6.26,8.41,10.43,15.12,8.59c6.08-1.67,10.79-8.83,8.59-15.12c-26.79-76.42-84.67-139.74-155.83-177.6
					c-21.01-11.18-43.23-20.22-66.08-26.89C687.23,694.05,680.73,717.77,695.91,722.2L695.91,722.2z"/>
			</g>
		</g>
		<g class="st15">
			<g>
				<path class="st3" d="M910.54,707.55c5.72-1.77,11.45-3.54,17.17-5.3c6.14-1.9,10.68-8.67,8.59-15.12
					c-2-6.18-8.54-10.62-15.12-8.59c-5.72,1.77-11.45,3.54-17.17,5.3c-6.14,1.9-10.68,8.67-8.59,15.12
					C897.41,705.15,903.96,709.59,910.54,707.55L910.54,707.55z"/>
			</g>
		</g>
		<g class="st15">
			<g>
				<path class="st3" d="M894.93,1051.05c9.3,16.61,18.61,33.23,27.91,49.84c7.73,13.81,28.98,1.43,21.23-12.41
					c-9.3-16.61-18.61-33.23-27.91-49.84C908.43,1024.83,887.18,1037.22,894.93,1051.05L894.93,1051.05z"/>
			</g>
		</g>
		<g class="st15">
			<g>
				<path class="st3" d="M1032.1,1137.58c16.57,19.95,27.8,45.04,30.73,70.87c0.75,6.6,5.11,12.3,12.3,12.3
					c6.06,0,13.05-5.65,12.3-12.3c-3.73-32.87-16.81-62.83-37.94-88.26c-4.25-5.11-13-4.39-17.39,0
					C1027.04,1125.25,1027.85,1132.46,1032.1,1137.58L1032.1,1137.58z"/>
			</g>
		</g>
		<g class="st15">
			<g>
				<path class="st3" d="M907.82,1589.83c31.5,7,63.01,14.01,94.51,21.01c6.48,1.44,13.3-1.96,15.12-8.59
					c1.69-6.17-2.08-13.68-8.59-15.12c-31.5-7-63.01-14.01-94.51-21.01c-6.48-1.44-13.3,1.96-15.12,8.59
					C897.54,1580.87,901.31,1588.38,907.82,1589.83L907.82,1589.83z"/>
			</g>
		</g>
		<g class="st15">
			<g>
				<path class="st3" d="M801.28,1693.82c8.9,14.73,17.8,29.47,26.71,44.2c8.17,13.53,29.45,1.18,21.23-12.41
					c-8.9-14.73-17.8-29.47-26.71-44.2C814.34,1667.87,793.06,1680.22,801.28,1693.82L801.28,1693.82z"/>
			</g>
		</g>
		<g class="st15">
			<g>
				<path class="st3" d="M741.38,1278.02c28.44,1.65,58.13,15.58,75.61,38.36c4.04,5.26,10.58,8.06,16.82,4.41
					c5.18-3.03,8.48-11.52,4.41-16.82c-23.33-30.39-58.67-48.32-96.84-50.54c-6.64-0.39-12.3,5.93-12.3,12.3
					C729.08,1272.71,734.72,1277.64,741.38,1278.02L741.38,1278.02z"/>
			</g>
		</g>
		<g class="st15">
			<g>
				<path class="st3" d="M484.98,1290.53c24.46-7.47,50.42-9.23,75.6-4.48c6.52,1.23,13.26-1.81,15.12-8.59
					c1.65-6-2.03-13.89-8.59-15.12c-29.52-5.57-59.88-4.31-88.67,4.48C463.35,1271.42,469.79,1295.17,484.98,1290.53L484.98,1290.53
					z"/>
			</g>
		</g>
		<g class="st15">
			<g>
				<path class="st3" d="M486.33,893.75c-34.91,18.36-69.83,36.73-104.74,55.09c-5.87,3.09-7.66,11.27-4.41,16.82
					c3.48,5.95,10.92,7.51,16.82,4.41c34.91-18.36,69.83-36.73,104.74-55.09c5.87-3.09,7.66-11.27,4.41-16.82
					C499.67,892.21,492.23,890.65,486.33,893.75L486.33,893.75z"/>
			</g>
		</g>
		<g class="st15">
			<g>
				<path class="st3" d="M376.98,932.54c15.82,0,15.85-24.59,0-24.59C361.16,907.95,361.13,932.54,376.98,932.54L376.98,932.54z"/>
			</g>
		</g>
		<g class="st15">
			<g>
				<path class="st3" d="M973.18,1024.57c0.64,6.48,1.27,12.97,1.91,19.45c0.63,6.38,5.21,12.61,12.3,12.3
					c6.12-0.27,12.97-5.44,12.3-12.3c-0.64-6.48-1.27-12.97-1.91-19.45c-0.63-6.38-5.21-12.61-12.3-12.3
					C979.35,1012.55,972.51,1017.71,973.18,1024.57L973.18,1024.57z"/>
			</g>
		</g>
		<g class="st15">
			<g>
				<path class="st3" d="M996.51,1274.14c-1.27,5.3-2.54,10.61-3.82,15.91c-1.5,6.24,1.96,13.62,8.59,15.12
					c6.32,1.44,13.52-1.9,15.12-8.59c1.27-5.3,2.54-10.61,3.82-15.91c1.5-6.24-1.96-13.62-8.59-15.12
					C1005.32,1264.11,998.12,1267.45,996.51,1274.14L996.51,1274.14z"/>
			</g>
		</g>
	</g>
</g>
</svg>
