<?xml version="1.0" encoding="utf-8"?>
<!-- Generator: Adobe Adobe Illustrator 24.2.0, SVG Export Plug-In . SVG Version: 6.00 Build 0)  -->
<svg version="1.1" xmlns="http://www.w3.org/2000/svg" xmlns:xlink="http://www.w3.org/1999/xlink" x="0px" y="0px"
	 viewBox="0 0 2000 2000" style="enable-background:new 0 0 2000 2000;" xml:space="preserve">
<style type="text/css">
	.st0{fill:#C8354F;}
	.st1{fill:#C93550;}
	.st2{opacity:0.149;}
	.st3{fill:#FFFFFF;}
	.st4{opacity:0.0314;}
	.st5{display:none;}
	.st6{fill:#FFFFFF;stroke:#FFFFFF;stroke-width:0.7833;stroke-miterlimit:10;}
	.st7{fill:#2B4975;}
	.st8{fill:#F0C1A1;}
	.st9{fill:#CA354F;}
	.st10{opacity:0.3098;}
	.st11{opacity:0.4;}
	.st12{fill:#CC3C55;}
	.st13{fill:#A13547;}
</style>
<g id="Ebene_6">
</g>
<g id="Ebene_25">
	<g>
		<g id="Ebene_2_Kopie">
			<g>
				<path class="st0" d="M1480.74,832.09c69.13,2.35,279.59,10.37,300.51-18.94c33.98-47.62,86.52-563.8,52.01-596.52
					C1760.94,148.06,899.16,91,822.6,171.91c-69.03,72.96,25.04,555.45,51.45,584.56c39.92,44,181.38,21.66,247.28,46.44
					c29.38,11.05,160.03,164.64,192.7,162.89c18.54-0.99,126.77-80.9,164.53-133.56"/>
				<g>
					<path class="st1" d="M1480.74,837.1c67.85,2.31,135.93,4.62,203.78,1.16c16.32-0.83,32.65-2.04,48.85-4.2
						c12.01-1.6,24.31-3.46,35.73-7.66c7.02-2.58,13.73-5.97,17.67-12.58c3-5.05,4.99-10.78,6.82-16.34
						c6.03-18.29,9.86-37.35,13.5-56.24c5.21-27.07,9.47-54.33,13.34-81.62c9.32-65.82,16.4-131.97,21.68-198.23
						c4.65-58.32,8.54-117.07,7.25-175.61c-0.4-18.13-0.97-36.72-4.74-54.51c-1.07-5.07-2.45-10.49-5.24-14.92
						c-2.44-3.88-6.35-6.61-10.18-8.99c-11.04-6.87-23.84-11.15-36.18-14.98c-18.28-5.67-36.98-10-55.71-13.87
						c-52.31-10.83-105.37-18.09-158.39-24.34c-64.95-7.66-130.14-13.36-195.4-17.7c-67.74-4.51-135.58-7.54-203.46-8.73
						c-60.63-1.06-121.37-0.79-181.94,2.62c-43.93,2.47-88.82,5.71-131.65,16.4c-13.05,3.26-26.61,7.25-38.15,14.35
						c-12.07,7.43-18.85,19.46-23.47,32.57c-7.41,20.98-9.71,43.84-11.05,65.92c-1.79,29.44-1.11,59.02,0.51,88.46
						c3.75,68.03,12.65,135.83,23.91,202.99c9.2,54.87,19.6,109.94,34.64,163.55c3.82,13.63,7.48,28.47,14.48,40.91
						c4.51,8,13.07,13.64,21.05,17.69c14.77,7.51,31.29,11.13,47.56,13.62c40.37,6.19,81.39,5.89,122.01,9.37
						c18,1.54,36.19,3.64,53.57,8.75c5.92,1.74,8.14,2.28,12.79,5.25c3.67,2.34,6.83,4.86,10.13,7.59
						c23.18,19.18,44.14,41.16,65.55,62.26c23.58,23.25,47.09,46.89,72.77,67.85c8.74,7.13,17.89,14.53,28.14,19.4
						c7.8,3.7,14.22,4.37,22.2,0.95c11.9-5.09,22.88-12.55,33.53-19.82c15.91-10.86,31.28-22.53,46.25-34.66
						c28.88-23.39,58.1-48.69,79.97-78.99c3.78-5.23-4.91-10.24-8.65-5.06c-10.56,14.64-23.35,27.7-36.37,40.14
						c-14.74,14.09-30.23,27.4-46.16,40.13c-14.38,11.49-29.17,22.53-44.49,32.74c-9.42,6.27-20.54,14.09-30.67,17.39
						c-0.64,0.21-1.29,0.38-1.94,0.56c-1.73,0.48,0.32,0.07-0.9,0.13c-0.58,0.03-1.17-0.03-1.75-0.09c1.35,0.14-1.29-0.34-1.79-0.48
						c-3.59-1.03-6.64-2.73-10.33-4.96c-10.44-6.3-19.89-14.21-29.09-22.16c-25.47-22-49.23-45.96-73.18-69.58
						c-19.85-19.58-39.41-40.26-61.57-57.29c-8.56-6.58-17.28-9.98-27.81-12.61c-17.65-4.42-35.93-6.34-54.04-7.79
						c-39.99-3.2-80.56-2.72-120.2-9.45c-15.36-2.61-31.34-6.2-44.86-14.26c-2.59-1.54-5.1-3.23-7.37-5.2
						c-1.25-1.08-2.39-2.25-3.56-3.41c-0.27-0.27-1.69-2.12-0.43-0.39c-1.09-1.49-1.97-3.1-2.79-4.75
						c-2.36-4.75-4.28-10.22-6.39-16.57c-2.83-8.54-5.31-17.19-7.66-25.87c-6.53-24.1-12.03-48.48-17.13-72.91
						c-13.31-63.8-23.82-128.27-31.33-193.01c-7.07-60.96-12.61-123.19-8.33-184.57c1.46-20.83,3.92-42.36,11.48-61.98
						c2.28-5.9,6.26-13.39,10.29-17.71c0.7-0.76,1.44-1.48,2.21-2.17c0.35-0.31,0.71-0.61,1.07-0.91c1.25-1.06-0.52,0.32,0.84-0.65
						c2.03-1.44,4.13-2.76,6.31-3.95c5.93-3.23,9.53-4.59,16-6.78c7.4-2.51,14.97-4.51,22.58-6.25c18.91-4.32,38.16-7.1,57.43-9.28
						c53.25-6.03,107-7.79,160.56-8.36c64.89-0.69,129.79,0.85,194.61,3.74c66.66,2.98,133.27,7.44,199.73,13.51
						c59.05,5.39,118.04,11.94,176.65,20.97c42.28,6.51,85.05,13.63,126,26.27c6.93,2.14,13.8,4.49,20.52,7.24
						c1.26,0.52,1.21,0.49,3.17,1.37c1.34,0.6,2.68,1.23,3.99,1.88c2.25,1.12,4.46,2.31,6.59,3.63c0.9,0.56,1.77,1.15,2.65,1.75
						c0.44,0.3,0.87,0.63,1.3,0.96c-1.37-1.04,0.07,0.06,0.38,0.33c0.61,0.55,1.2,1.09,1.78,1.67c1.01,1.01-0.51-0.85,0.11,0.13
						c0.25,0.39,0.52,0.76,0.73,1.17c0.27,0.5,1.52,3.22,0.87,1.64c0.47,1.14,0.88,2.31,1.25,3.48c0.91,2.89,1.58,5.86,2.15,8.84
						c3.19,16.61,3.74,35.58,4.04,53.49c0.46,26.67-0.3,53.35-1.49,79.99c-2.89,64.92-8.46,129.75-15.54,194.34
						c-6.41,58.47-13.82,117.01-24.95,174.79c-3.61,18.74-7.42,37.64-13.36,55.81c-2.01,6.14-2.91,9.27-5.95,14.37
						c-1.3,2.18-2.09,3.03-3.99,4.23c-3.63,2.3-6.6,3.46-10.59,4.75c-11.85,3.84-24.38,5.68-36.71,7.13
						c-16.34,1.92-32.77,2.97-49.2,3.7c-37.38,1.65-74.83,1.54-112.23,0.89c-28.23-0.49-56.44-1.41-84.65-2.38
						C1474.29,826.86,1474.3,836.88,1480.74,837.1L1480.74,837.1z"/>
				</g>
			</g>
		</g>
		<g id="Ebene_7_1_">
			<g class="st2">
				<g>
					<path class="st3" d="M1570.05,242.73c21.27,3.56,42.84,5.15,64.28,7.3c5.92,0.59,11.84,1.21,17.75,1.88
						c2.88,0.33,5.76,0.66,8.64,1.02c1.44,0.18,2.88,0.36,4.32,0.54c4.74,0.6-4.01-0.58,0.82,0.11c11.24,1.59,22.46,3.4,33.53,5.92
						c5.15,1.17,10.27,2.49,15.31,4.04c2.27,0.7,4.53,1.44,6.77,2.25c1.08,0.39,2.14,0.8,3.21,1.2c4.38,1.65-3.1-1.51-0.41-0.2
						c3.78,1.84,7.53,3.62,11.03,5.97c0.74,0.5,1.48,1.19,2.26,1.61c-1.11-0.59-3.98-3.37-1.67-1.21c1.34,1.26,2.6,3.01,4.04,4.12
						c-0.79-0.61-3.11-4.53-1.48-1.84c0.4,0.67,0.81,1.35,1.23,2.01c2.43,3.83-0.96-4.05-0.44-1.21c0.26,1.44,1.21,6.71,0.55,1.79
						c-0.65-4.87-0.14-0.93-0.03,0.25c0.1,1.12,0.18,2.24,0.25,3.35c0.15,2.56,0.22,5.12,0.25,7.69
						c0.47,35.15-3.25,70.52-6.42,105.47c-4.49,49.51-9.81,98.95-15.22,148.37c-5.11,46.74-10.42,93.46-15.3,140.23
						c-0.51,4.84-1,9.69-1.5,14.54c-1.06,10.44,9.95,20.45,20,20c11.74-0.53,18.87-8.81,20-20c4.68-46.1,9.91-92.15,14.98-138.21
						c5.58-50.76,11.11-101.54,15.88-152.39c3.52-37.54,7.44-75.38,7.6-113.12c0.04-9.66,0.46-20.95-3.02-30.08
						c-8.15-21.36-29.4-31.94-49.95-38.54c-23.07-7.41-47.56-10.44-71.54-13.25c-22.23-2.6-44.57-4.22-66.78-6.95
						c-1.1-0.13-2.2-0.28-3.3-0.42c-3.34-0.42,5.26,0.76,1.26,0.16c-2.1-0.31-4.19-0.62-6.28-0.97c-10.28-1.72-22.04,2.7-24.6,13.97
						C1553.88,227.79,1559.01,240.88,1570.05,242.73L1570.05,242.73z"/>
				</g>
			</g>
			<g class="st2">
				<g>
					<path class="st3" d="M1685.69,772.16c0.67,4.37,1.34,8.74,2.01,13.1c9.79-7.53,19.59-15.06,29.38-22.59
						c-5.08-3.22-10.15-6.44-15.23-9.66c1.35,10.47,2.7,20.94,4.05,31.41c-2.3,1.93-4.47,3.31-7.52,3.75
						c-1.18,0.35-2.37,0.35-3.55-0.01c-2.05-0.37-2.35-0.38-0.89-0.04c-2.23-0.83-3.93-1.83-5.71-3.42c1.01,1.03,0.86,0.8-0.43-0.69
						c-1.19-1.24-2.02-2.71-2.49-4.4c3.06-7.53,6.13-15.06,9.19-22.59c0.28-0.16,4.84-1.5,2.33-0.99c2.48-0.5,4.62-0.55,7.11-0.05
						c-2.53-0.51,1.94,0.92,2.25,1.07c-2.28-1.06,1.58,1.21,1.89,1.52c1.6,1.6,2.59,3.74,3.25,5.87c-1.08-3.46-0.29,7.33-0.24,7
						c0.42-2.52-0.73,1.79-0.96,2.2c-0.65,0.86-1.3,1.72-1.95,2.57c-2.77,1.93-3.49,2.48-2.18,1.66c2.1-1.07-4.4,1.6-2.17,0.91
						c1.03-0.24,0.6-0.19-1.27,0.17c-1.15,0.35-2.31,0.38-3.47,0.09c-4.59-0.52-8.52-3.29-10.3-7.58c-1.68-4.05-0.03,2.05-0.66-2.46
						c-0.62-4.47-0.59,1.86-0.04-2.63c-0.03-1.2,0.28-2.31,0.91-3.33c0.81-1.67,0.97-2.06,0.48-1.18c-0.89,1.53,3.58-3.76,1.05-1.76
						c10.47,1.35,20.94,2.7,31.41,4.05c-1.09-1.66-2.18-3.33-3.27-4.99c-5.72-8.74-17.97-13.23-27.36-7.17
						c-8.73,5.63-13.3,18-7.18,27.36c1.09,1.66,2.18,3.33,3.27,4.99c3.51,5.36,8.24,8.69,14.61,9.55c6.76,0.91,11.61-1.39,16.8-5.5
						c10.43-8.26,11.6-25.54,4.69-36.28c-8.21-12.77-25.71-16.76-38.47-8.22c-12.31,8.23-17.85,25.38-8.96,38.27
						c8.6,12.46,25.2,17.21,38.62,9.41c7.67-4.46,11.5-14.06,9.19-22.59c-2.49-9.22-9.98-16.97-19.3-19.43
						c-10.11-2.67-19.13,0.01-26.95,6.58c-10.3,8.64-5.98,25.05,4.05,31.41c5.08,3.22,10.15,6.44,15.23,9.66
						c6.77,4.29,16.11,3.15,22.21-1.56c6.84-5.29,8.43-12.8,7.17-21.02c-0.67-4.37-1.34-8.74-2.01-13.1
						c-0.71-4.62-5.34-9.7-9.19-11.95c-4.29-2.51-10.6-3.57-15.41-2.02c-4.84,1.57-9.51,4.57-11.95,9.19
						C1685.03,761.81,1684.83,766.54,1685.69,772.16L1685.69,772.16z"/>
				</g>
			</g>
		</g>
		<g id="Ebene_2_1_">
			<g>
				<g>
					<path d="M1448.48,881.19c67.94,2.34,136.11,4.67,204.05,1.26c16.34-0.82,32.69-2.02,48.92-4.15c12.9-1.7,26.14-3.48,38.43-7.97
						c9.52-3.48,18.21-8.09,23.59-17.02c3.43-5.69,5.71-12.2,7.8-18.48c6.08-18.27,9.93-37.34,13.58-56.22
						c5.25-27.13,9.52-54.46,13.4-81.82c9.43-66.49,16.64-133.31,21.95-200.26c4.62-58.25,8.51-116.95,7.07-175.41
						c-0.46-18.65-1.2-37.82-5.23-56.1c-1.28-5.82-3.13-11.92-6.35-16.97c-3.43-5.37-8.68-9.24-14.06-12.5
						c-11.97-7.25-25.77-11.85-39.09-15.93c-18.45-5.64-37.3-9.95-56.19-13.82c-53.13-10.88-107.02-18.17-160.86-24.49
						c-64.91-7.62-130.04-13.3-195.25-17.64c-67.65-4.5-135.41-7.55-203.19-8.76c-60.43-1.08-120.96-0.85-181.32,2.47
						c-44.97,2.47-90.95,5.76-134.82,16.53c-13.95,3.43-28.44,7.76-40.81,15.23c-14.28,8.62-22.43,22.28-28.04,37.66
						c-7.87,21.6-10.22,45.39-11.65,68.18c-1.85,29.4-1.17,58.95,0.46,88.35c3.79,68.62,12.89,137.01,24.33,204.74
						c9.29,55.04,19.79,110.29,35.04,164.03c4.04,14.23,8.03,29.72,15.42,42.66c5.45,9.54,15.4,16.53,25.03,21.33
						c15.9,7.93,33.32,11.96,50.79,14.56c41.38,6.17,83.3,6.02,124.92,9.67c4.57,0.4,9.14,0.85,13.7,1.37
						c1.21,0.14,2.43,0.28,3.64,0.43c0.65,0.08,4.73,0.63,0.79,0.09c2.34,0.32,4.67,0.66,7,1.03c8.62,1.38,17.2,3.12,25.56,5.64
						c1.59,0.48,3.18,0.99,4.75,1.53c0.89,0.31,1.83,0.78,2.74,0.98c1.86,0.41-4-2.06-2.35-0.99c1.38,0.89,2.94,1.54,4.33,2.42
						c1.63,1.03,3.18,2.17,4.74,3.29c3.51,2.54-2.42-1.99,0.34,0.24c1.21,0.98,2.43,1.95,3.63,2.95
						c23.08,19.13,44.04,40.9,65.42,61.86c23.67,23.19,47.26,46.8,73.07,67.64c9.37,7.57,19.13,15.53,30.13,20.67
						c5.19,2.43,10.53,4.53,16.35,4.67c5.83,0.14,10.79-1.84,16.01-4.13c12.02-5.28,23.15-12.74,33.97-20.11
						c16.49-11.23,32.41-23.33,47.93-35.85c29.45-23.75,58.75-49.42,81.09-80.19c4.76-6.56,1.12-16.72-5.38-20.52
						c-7.58-4.43-15.75-1.19-20.52,5.38c-0.64,0.88-4.59,5.94-1.87,2.56c-1.21,1.51-2.42,3.03-3.65,4.52
						c-2.88,3.46-5.85,6.85-8.89,10.17c-6.54,7.14-13.39,14-20.41,20.67c-14.76,14.03-30.26,27.27-46.2,39.92
						c-1.71,1.36-3.42,2.7-5.14,4.05c-0.32,0.25-3.74,2.89-1.05,0.82c-1.01,0.78-2.03,1.56-3.05,2.33
						c-3.96,3.02-7.95,5.99-11.97,8.93c-7,5.11-14.08,10.09-21.31,14.87c-5.86,3.88-11.81,7.65-17.93,11.11
						c-2.29,1.29-4.6,2.54-6.96,3.7c-0.99,0.48-2.41,0.85-3.27,1.53c3.16-2.48,2.58-0.99,0.28-0.2c-0.78,0.27-1.6,0.43-2.37,0.7
						c-2.63,0.96,2.71-0.09,2.08-0.24c-0.44-0.1-1.66-0.18-2.09-0.08c3.83-0.86,3.75,0.79,1.27-0.01c-0.85-0.27-1.71-0.58-2.57-0.84
						c-3.03-0.91,3.69,1.8,0.81,0.34c-2.07-1.05-4.13-2.08-6.13-3.27c-4.76-2.82-9.23-6.05-13.66-9.35
						c-0.81-0.6-3.29-2.21,0.43,0.35c-0.69-0.47-1.34-1.04-1.99-1.56c-1.25-0.99-2.5-1.99-3.73-3c-2.86-2.33-5.69-4.7-8.49-7.1
						c-25.46-21.84-49.21-45.64-73.15-69.11c-20.62-20.22-40.95-41.35-63.97-58.89c-8.9-6.79-18.37-10.57-29.26-13.36
						c-18.84-4.83-38.45-6.85-57.8-8.4c-20.3-1.62-40.64-2.45-60.97-3.64c-10.05-0.59-20.1-1.26-30.13-2.17
						c-4.62-0.42-9.23-0.89-13.83-1.44c-1.23-0.15-2.45-0.3-3.68-0.45c-3.97-0.49,2.2,0.37-0.25-0.03c-2.56-0.42-5.14-0.75-7.7-1.17
						c-8.44-1.39-16.84-3.14-25.04-5.59c-3.57-1.06-7.01-2.38-10.52-3.63c-3.23-1.15,3.06,1.51,0.03,0.01
						c-0.84-0.42-1.72-0.78-2.56-1.19c-1.65-0.8-3.27-1.65-4.85-2.56c-1.53-0.88-3.02-1.81-4.47-2.81c-0.47-0.32-0.92-0.68-1.4-0.99
						c-2.58-1.68,2.57,2.38,0.37,0.27c-1.6-1.54-3.39-3.82-5.2-5.04c3.49,2.36,2.5,3.62,1.54,1.93c-0.18-0.32-0.4-0.63-0.6-0.94
						c-0.55-0.89-1.03-1.82-1.51-2.75c-0.52-1.03-0.98-2.08-1.47-3.13c-1.48-3.19,0.99,2.49,0.54,1.3
						c-0.27-0.72-0.58-1.42-0.86-2.13c-1.28-3.25-2.44-6.55-3.55-9.86c-2.88-8.59-5.41-17.31-7.8-26.05
						c-6.55-23.96-12.07-48.2-17.19-72.5c-6.4-30.4-12.08-60.95-17.16-91.59c-2.8-16.89-5.42-33.82-7.85-50.77
						c-0.57-4.02-1.14-8.04-1.69-12.06c-0.14-1.05-0.94-6.97-0.36-2.6c-0.34-2.56-0.68-5.13-1.02-7.69
						c-1.1-8.42-2.14-16.84-3.13-25.28c-7.12-60.79-12.71-122.88-8.36-184.09c0.44-6.19,1.01-12.37,1.75-18.53
						c0.16-1.35,1.02-5.82,0.04-0.48c0.26-1.44,0.41-2.91,0.62-4.35c0.42-2.79,0.89-5.58,1.41-8.36c1.74-9.32,4.12-18.47,7.49-27.34
						c0.19-0.5,0.46-0.99,0.61-1.5c0.06-0.21-1.77,3.96-0.89,2.12c0.44-0.93,0.84-1.89,1.29-2.82c0.85-1.77,1.77-3.51,2.78-5.2
						c0.86-1.45,1.84-2.81,2.77-4.22c1.65-2.5-2.93,3.35-0.47,0.63c0.56-0.62,1.1-1.27,1.68-1.88c0.68-0.71,1.41-1.37,2.14-2.04
						c0.42-0.38,0.9-0.7,1.31-1.09c0.39-0.38-3.96,2.81-1.38,1.1c2.09-1.38,4.17-2.73,6.38-3.92c1.17-0.63,2.35-1.22,3.55-1.78
						c0.69-0.32,1.38-0.63,2.07-0.95c3.4-1.57-2.01,0.8-1.05,0.43c3.05-1.18,6.08-2.37,9.18-3.4c7.45-2.48,15.06-4.46,22.72-6.19
						c8.94-2.01,17.96-3.66,27.01-5.09c2.37-0.38,4.74-0.73,7.11-1.08c1.1-0.16,2.21-0.32,3.31-0.47c0.67-0.09,1.34-0.19,2.01-0.28
						c3.8-0.53-3.21,0.41-0.6,0.08c5.39-0.69,10.79-1.36,16.2-1.97c53.26-5.92,106.99-7.64,160.54-8.17
						c64.45-0.63,128.91,0.9,193.29,3.78c66.77,2.98,133.48,7.44,200.05,13.5c31,2.82,61.97,6,92.88,9.64
						c14.74,1.73,29.49,3.47,44.18,5.55c-3.94-0.56-0.33-0.04,1.46,0.2c1.8,0.25,3.6,0.49,5.4,0.74c3.55,0.49,7.11,0.99,10.66,1.5
						c6.62,0.95,13.25,1.93,19.86,2.94c42.37,6.49,85.21,13.59,126.29,26.12c6.93,2.11,13.81,4.42,20.53,7.13
						c0.63,0.25,1.26,0.54,1.89,0.78c-5.66-2.11-2.37-1.02-1.04-0.42c1.36,0.61,2.72,1.22,4.06,1.88c2.29,1.11,4.55,2.3,6.73,3.62
						c0.92,0.56,1.83,1.13,2.71,1.74c0.41,0.28,0.81,0.6,1.23,0.87c2.2,1.46-3.54-3.07-1.49-1.15c0.61,0.57,1.26,1.17,1.91,1.7
						c2.33,1.9-2.36-4.19-0.68-0.84c0.4,0.81,0.82,1.72,1.29,2.48c-2.43-3.97-0.97-2.52-0.12,0.07c0.89,2.7,1.56,5.48,2.12,8.27
						c0.32,1.57,0.6,3.15,0.86,4.74c0.15,0.93,0.29,1.86,0.43,2.79c0.62,3.98-0.46-3.8-0.07-0.55c0.5,4.19,0.94,8.38,1.28,12.58
						c0.83,10.43,1.22,20.9,1.41,31.37c0.49,26.34-0.23,52.71-1.38,79.03c-2.83,65-8.4,129.9-15.5,194.57
						c-1.78,16.19-3.67,32.37-5.69,48.53c-0.98,7.82-1.99,15.63-3.02,23.44c-0.12,0.88-0.6,4.44,0,0.02
						c-0.11,0.83-0.22,1.66-0.34,2.49c-0.25,1.82-0.49,3.63-0.74,5.45c-0.54,3.91-1.09,7.81-1.64,11.71
						c-3.81,26.71-8,53.39-13.12,79.88c-3.62,18.73-7.45,37.64-13.43,55.79c-0.98,2.96-2.23,5.81-3.22,8.76
						c1.99-5.96,0.66-1.55-0.14,0.08c-0.51,1.03-1.07,2.01-1.63,3.01c-0.22,0.4-0.53,0.75-0.74,1.16c-1.06,2.07,3.17-3.05,1.13-1.47
						c-0.53,0.41-1.23,1.06-1.66,1.57c-0.78,0.92-2.88-0.17,2.06-1.59c-0.48,0.14-1,0.73-1.45,0.98c-1.6,0.89-3.2,1.69-4.83,2.52
						c-2.17,1.09,3.89-1.42,1.53-0.66c-0.55,0.18-1.09,0.42-1.64,0.62c-1.16,0.42-2.34,0.82-3.52,1.19
						c-5.34,1.68-10.82,2.89-16.31,3.93c-3.07,0.58-6.14,1.09-9.23,1.55c-1.2,0.18-7.35,1.25-2.31,0.35
						c-1.85,0.33-3.77,0.48-5.64,0.7c-16.55,1.93-33.2,2.97-49.85,3.68c-37.23,1.59-74.54,1.47-111.8,0.8
						c-28.26-0.5-56.51-1.44-84.77-2.41c-8.1-0.28-15,7.09-15,15C1433.48,874.55,1440.35,880.91,1448.48,881.19L1448.48,881.19z"/>
				</g>
			</g>
		</g>
		<g id="Ebene_10_1_">
			<g>
				<g>
					<path class="st3" d="M1097.5,292.32c60.47,60.49,119.78,122.12,178.24,184.55c57.5,61.41,114.18,123.58,170.42,186.15
						c31.26,34.77,62.37,69.67,93.43,104.62c12.2,13.73,37.23,13.37,49.5,0c13.45-14.65,13.01-34.85,0-49.5
						c-55.38-62.32-110.96-124.47-167.15-186.07c-57.1-62.6-114.82-124.63-173.52-185.72c-33.47-34.84-67.26-69.36-101.41-103.52
						c-12.96-12.97-36.71-13.93-49.5,0C1084.67,256.79,1083.67,278.48,1097.5,292.32L1097.5,292.32z"/>
				</g>
			</g>
			<g>
				<g>
					<path class="st3" d="M1129,759.31c66.65-66.66,132.43-134.16,197.09-202.76c47.87-50.78,95.21-102.06,143.48-152.46
						c31.98-33.39,64.35-66.41,97.04-99.11c12.96-12.97,13.93-36.71,0-49.5c-13.97-12.82-35.66-13.84-49.5,0
						c-54.38,54.39-107.67,109.83-160.27,165.94c-51.05,54.45-101.93,109.04-153.76,162.74c-40.8,42.27-82.04,84.11-123.58,125.66
						c-12.96,12.96-13.93,36.71,0,49.5C1093.47,772.14,1115.17,773.15,1129,759.31L1129,759.31z"/>
				</g>
			</g>
		</g>
		<g id="Ebene_9_1_">
			<g class="st4">
				<path d="M815.56,181.7c0,281,312.26,612.99,525.2,782.43c-26.36,7.04-59.46-30.06-117.44-76.2
					c-81.95-65.2-59.06-73.17-104.65-91.42c-37.87-15.16-84.13-11.05-124.91-12.35c-37.58-1.19-84.58-7.83-108.65-26.8
					c-31.75-25.02-88.42-342.47-81.78-537.55"/>
				<g>
					<path d="M805.56,181.7c0.09,58.33,12.98,116.13,32.75,170.79c21.92,60.61,51.91,118.12,86.08,172.67
						c36.25,57.87,77.34,112.69,121.16,165.03c43.23,51.62,89.31,100.85,137.53,147.83c43.24,42.12,88.22,82.51,135.02,120.63
						c5.17,4.21,10.36,8.39,15.58,12.54c1.47-5.57,2.94-11.14,4.41-16.71c-0.71,0.18-1.42,0.32-2.13,0.47
						c2.65-0.55,0.41-0.03-0.23-0.02c-1.24,0.02-2.46,0.04-3.7-0.03c-2.84-0.14,0.92,0.39-1.92-0.31c-1.6-0.39-3.18-0.8-4.75-1.33
						c-0.82-0.28-1.63-0.59-2.44-0.9c1.8,0.71-0.08-0.03-0.52-0.24c-1.59-0.76-3.16-1.53-4.71-2.36c-3.43-1.86-6.74-3.95-9.98-6.14
						c-17.2-11.63-32.69-25.78-48.55-39.12c-31.04-26.11-63.96-50.14-90.15-81.42c-5.22-6.24-10.13-12.87-16.21-18.32
						c-7.61-6.82-16.42-11.55-25.76-15.53c-46.11-19.63-96.58-12.66-145.27-15.64c-22.2-1.36-44.66-4.36-65.8-11.54
						c-8.68-2.95-16.95-6.84-24.38-12.25c-1.1-0.8,0.95,1.18-0.4-0.4c-0.31-0.36-0.67-0.72-1.01-1.05c-1.09-1.07-0.6-1.82,0.34,0.52
						c-0.24-0.6-0.88-1.21-1.25-1.76c-1.82-2.71-3.33-5.63-4.73-8.58c-0.46-0.96-0.9-1.93-1.33-2.9c-0.32-0.73-1.54-3.74-0.34-0.74
						c-0.84-2.1-1.7-4.2-2.5-6.32c-3.98-10.56-7.28-21.39-10.33-32.25c-18.82-67.05-30.02-136.56-39.3-205.48
						c-10.89-80.86-18.4-162.71-17.93-244.37c0.05-8.9,0.22-17.79,0.52-26.69c0.43-12.87-19.57-12.86-20,0
						c-2.71,81.49,4.09,163.42,13.98,244.25c9.08,74.3,20.55,148.9,39.14,221.48c5.57,21.78,11.47,44.22,21.48,64.46
						c3.48,7.03,7.68,12.81,14.06,17.44c17.08,12.42,39.22,17.99,59.7,21.55c23.91,4.16,48.05,5.36,72.28,5.47
						c24.88,0.12,50.2-0.58,74.78,3.99c6.04,1.12,12.03,2.55,17.89,4.38c2.64,0.82,5.25,1.73,7.83,2.72
						c1.09,0.42,2.16,0.86,3.24,1.29c1.89,0.77-1.11-0.51,1.2,0.51c4.8,2.12,9.54,4.4,13.97,7.22c0.81,0.52,1.61,1.05,2.39,1.6
						c1.07,0.75,2.49,1.99,0.6,0.39c1.58,1.35,3.18,2.65,4.67,4.11c2.81,2.73,5.36,5.72,7.86,8.73c7.64,9.19,15.3,18.28,23.72,26.77
						c16.14,16.27,33.97,30.55,51.74,44.96c19.1,15.49,37.46,31.91,56.78,47.14c12.72,10.03,26.58,21.11,42.59,25.25
						c6.65,1.72,13.51,1.93,20.19,0.25c6.74-1.69,10.4-11.95,4.41-16.71c-45.87-36.53-89.98-75.28-132.45-115.71
						c-47.83-45.52-93.63-93.22-136.83-143.16C1034.53,647.3,993.2,594,956.23,537.76c-35.04-53.3-66.6-109.43-90.32-168.74
						c-21.31-53.3-36.82-109.75-39.81-166.89c-0.36-6.8-0.53-13.61-0.54-20.42C825.54,168.84,805.54,168.81,805.56,181.7
						L805.56,181.7z"/>
				</g>
			</g>
		</g>
	</g>
</g>
<g id="Ebene_27">
</g>
<g id="Ebene_24">
</g>
<g id="Ebene_23">
</g>
<g id="Ebene_24_Kopie">
</g>
<g id="Ebene_6_Kopie">
</g>
<g id="Ebene_22">
</g>
<g id="Ebene_21">
</g>
<g id="Ebene_4">
</g>
<g id="Ebene_5">
</g>
<g id="Ebene_3">
</g>
<g id="Ebene_9">
</g>
<g id="Ebene_2">
</g>
<g id="Ebene_7">
</g>
<g id="Ebene_8">
</g>
<g id="Ebene_10">
</g>
<g id="Ebene_10_Kopie">
</g>
<g id="Ebene_20">
</g>
<g id="Ebene_17" class="st5">
</g>
<g id="Ebene_18">
</g>
<g id="Ebene_19">
	<g>
		<path class="st6" d="M136.34,1883.33c24.48-100.54,125.06-175.03,234.03-207.57s226.5-30.52,341.33-28.16
			c168.93,3.48,330.45,104.04,392.98,244.67C784.61,1934.62,457.03,1931.08,136.34,1883.33z"/>
		<g>
			<g>
				<path d="M141.15,1885.44c12.83-66.41,61.74-119.76,116.94-155.68c66.38-43.21,144.95-63.8,222.64-74.69
					c41.14-5.77,82.65-8.94,124.15-10.67c40.91-1.71,81.98-1.66,122.78,2.13c40.25,3.73,80.41,11.07,118.63,24.46
					c35.33,12.37,68.56,30.02,99.06,51.67c58.96,41.86,106.59,97.01,151.67,152.97c5.55,6.89,11.08,13.81,16.59,20.73
					c1.57-3.29,3.14-6.58,4.71-9.87c-127.75,18.83-256.58,30.02-385.66,33.57c-128.26,3.52-256.72-0.45-384.51-11.94
					c-71.49-6.43-142.76-15.24-213.66-26.38c-4.54-0.71-9.42,10.08-4.1,10.91c127.22,20,255.62,32.41,384.31,37.25
					c128.87,4.84,258.03,2.11,386.58-8.23c71.92-5.78,143.64-13.93,215.02-24.45c3.3-0.49,7.04-6.95,4.71-9.87
					c-45.75-57.42-92.61-114.99-150.56-160.69c-29.41-23.2-61.55-42.97-96.12-57.52c-37.5-15.78-77.39-25.37-117.64-30.72
					c-41.74-5.55-83.97-6.7-126.02-5.66c-42.13,1.05-84.33,3.85-126.18,8.78c-80.14,9.46-161.77,28.02-231.95,69.34
					c-58.92,34.69-112.69,86.86-133.81,153.43c-2.42,7.63-4.4,15.4-5.92,23.26c-0.44,2.27,0.5,4.77,3.17,4.3
					C138.66,1891.39,140.68,1887.87,141.15,1885.44L141.15,1885.44z"/>
			</g>
		</g>
		<g>
			<path class="st7" d="M178.01,1798.93c264.51,55.88,552.78,19.59,821.18-18.64c19.24,14,30.8,33.19,44.46,46.56
				c-291.12,28.11-601.8,56.39-889.72,8.68"/>
			<g>
				<path class="st7" d="M175.99,1804.3c114.21,24.03,231.37,30.86,347.86,28.2c117.72-2.68,235.02-14.89,351.72-30.09
					c32.36-4.21,64.69-8.66,97-13.22c4.28-0.6,8.55-1.21,12.82-1.81c1.22-0.17,2.44-0.35,3.66-0.52c1.94-0.28,5.42-1.47,7.31-1.04
					c3.33,0.77,7.21,5.34,9.63,7.6c2.41,2.25,4.71,4.6,6.95,7.01c9.33,10.01,17.33,21.19,27.05,30.84c1.55-3.24,3.09-6.48,4.64-9.72
					c-115.77,11.18-231.6,22.05-347.75,28.46c-116.4,6.42-233.22,8.46-349.64,1.3c-64.06-3.94-127.96-10.71-191.3-21.17
					c-4.46-0.74-9.29,9.88-4.04,10.75c114.45,18.9,230.59,25.73,346.49,25.66c116.95-0.06,233.78-7.1,350.29-16.71
					c64.71-5.34,129.34-11.49,193.96-17.73c3.01-0.29,7.22-7.16,4.64-9.72c-8.57-8.51-15.79-18.23-23.79-27.25
					c-3.84-4.33-7.86-8.49-12.14-12.39c-2.48-2.25-5.03-4.69-7.84-6.54c-3.27-2.15-6.88-0.72-10.64-0.19
					c-28.83,4.1-57.68,8.13-86.54,12.01c-58.48,7.85-117.06,15.06-175.79,20.83c-118.28,11.63-237.51,17.54-356.26,10.25
					c-65.25-4.01-130.26-12.11-194.25-25.57C175.64,1792.63,170.74,1803.2,175.99,1804.3L175.99,1804.3z"/>
			</g>
		</g>
		<g>
			<path class="st7" d="M295.92,1703.96c168.09,9.71,337,5.7,504.41-11.97c48.41-5.11,104.33-8.94,138.52,25.03
				c-229.16,42.56-465.12,49.78-696.54,21.3c15.76-12.3,31.53-24.6,47.29-36.89"/>
			<g>
				<path class="st7" d="M293.7,1709.86c90.65,5.21,181.51,6.48,272.26,3.75c45.21-1.36,90.39-3.71,135.49-7.05
					c22.1-1.64,44.19-3.51,66.25-5.61c19.88-1.89,39.73-4.39,59.66-5.66c36.9-2.34,79.36-0.86,107.49,26.6
					c1.7-3.55,3.39-7.11,5.09-10.66c-89.43,16.57-179.82,27.85-270.59,33.62c-90.52,5.76-181.38,6.16-271.94,1.17
					c-51.1-2.82-102.09-7.37-152.89-13.6c-0.32,3.46-0.63,6.92-0.95,10.38c15.76-12.3,31.53-24.6,47.29-36.89
					c4.39-3.42,4.12-14.17-2.53-8.97c-15.76,12.3-31.53,24.6-47.29,36.89c-2.21,1.72-5.97,9.77-0.95,10.38
					c90.67,11.12,181.98,16.83,273.33,17.06c91.07,0.22,182.15-4.99,272.61-15.55c50.82-5.93,101.42-13.59,151.73-22.91
					c3.17-0.59,8.07-7.75,5.09-10.66c-24.71-24.13-59.46-29.77-92.75-29.37c-17.6,0.21-35.12,2-52.61,3.83
					c-23.26,2.43-46.56,4.59-69.87,6.48c-91.48,7.41-183.29,10.76-275.07,10.04c-51.5-0.4-102.99-2.11-154.41-5.06
					C293.13,1697.78,288.07,1709.53,293.7,1709.86L293.7,1709.86z"/>
			</g>
		</g>
		<g>
			<g>
				<path d="M398.32,1661.22c4.58,0,9.07-10.75,4.04-10.75C397.79,1650.47,393.3,1661.22,398.32,1661.22L398.32,1661.22z"/>
			</g>
		</g>
		<g>
			<g>
				<path d="M135.76,1883.42c12.78-66.46,61.53-119.92,116.72-155.95c65.98-43.06,144.12-63.6,221.39-74.48
					c40.89-5.76,82.15-8.92,123.4-10.64c40.95-1.71,82.07-1.64,122.9,2.22c40,3.78,79.9,11.19,117.84,24.62
					c35.05,12.4,67.98,30.06,98.2,51.67c58.51,41.84,105.77,96.84,150.48,152.63c5.55,6.93,11.07,13.88,16.59,20.83
					c1.57-3.28,3.13-6.56,4.7-9.84c-126.57,18.75-254.22,29.93-382.11,33.52c-127.72,3.59-255.65-0.33-382.91-11.78
					c-71.56-6.44-142.89-15.29-213.85-26.5c-4.53-0.71-9.4,10.05-4.09,10.88c126.68,20.01,254.55,32.44,382.71,37.26
					c128.34,4.83,256.96,2.07,384.97-8.29c71.34-5.78,142.47-13.91,213.27-24.4c3.29-0.49,7.01-6.92,4.7-9.84
					c-45.39-57.26-91.88-114.67-149.39-160.36c-29.14-23.15-61-42.94-95.29-57.52c-37.75-16.06-77.97-25.76-118.56-31.15
					c-41.19-5.46-82.87-6.59-124.37-5.57c-41.88,1.04-83.82,3.83-125.43,8.74c-79.98,9.45-161.44,28.07-231.37,69.5
					c-58.61,34.73-111.93,86.86-132.92,153.18c-2.43,7.67-4.41,15.47-5.93,23.38c-0.43,2.26,0.5,4.76,3.16,4.29
					C133.28,1889.35,135.29,1885.84,135.76,1883.42L135.76,1883.42z"/>
			</g>
		</g>
		<g>
			<path d="M185.84,1259.98c-29.82,93.45-67.31,184.93-112.08,273.45c318.46,79.65,661.42,79.06,979.53-1.69
				c-12.38-118.57-37.52-221.22-60.91-328.44c-23.83-109.23-37.62-214.9-85.23-322.85C861.5,776.95,745.21,689.52,620.98,689.52
				c-207.42,0-380.96,150.7-396.14,327.64c-4.64,54.06-34.4,171.75-41.9,259.2"/>
			<g>
				<path d="M182.12,1259.63c-23.26,72.77-51.01,144.08-83.05,213.43c-9.1,19.7-18.57,39.23-28.36,58.6
					c-1.1,2.18-2.33,6.3,1.03,7.14c62.46,15.59,125.68,28.11,189.37,37.54c63.9,9.45,128.26,15.81,192.77,19.11
					c64.6,3.3,129.35,3.53,193.97,0.69c63.95-2.81,127.78-8.61,191.19-17.43c63.79-8.87,127.15-20.82,189.76-35.88
					c7.84-1.89,15.68-3.83,23.5-5.81c2.84-0.72,5.54-4.73,5.23-7.63c-7.62-72.53-20.76-144.25-36-215.53
					c-7.39-34.53-15.18-68.98-22.75-103.47c-7.8-35.51-14.79-71.19-21.98-106.83c-14.56-72.1-31.13-144-59.38-212.15
					c-11.34-27.37-25.14-53.08-43.22-76.62c-17.69-23.04-38.45-43.75-61.32-61.64c-46.47-36.34-102.74-61.32-161.66-67.51
					c-29.26-3.08-59.18-1.36-88.27,2.71c-28.32,3.96-56.24,10.8-83.19,20.38c-51.56,18.33-99.65,46.48-140.36,83.11
					c-38.97,35.06-71.06,77.74-92.39,125.7c-10.37,23.31-18.04,47.9-22.59,73.02c-4.05,22.34-5.4,45.08-9.19,67.49
					c-10.03,59.24-23.25,117.91-31.56,177.45c-2.01,14.37-3.7,28.78-4.95,43.24c-0.23,2.65,2.3,3.48,4.32,2.49
					c2.63-1.29,3.92-4.48,4.15-7.2c5.22-59.99,17.87-119.18,29.05-178.26c4.5-23.78,9.17-47.64,11.93-71.7
					c2.73-23.8,5.75-47.03,12.85-70.03c14.98-48.55,41.82-92.72,76.24-129.94c36.03-38.96,80.36-70.03,128.62-91.92
					c51.37-23.3,107.6-35.97,163.99-37.17c59.24-1.25,116.65,15.9,166.84,47.14c48.33,30.08,89.73,72.36,116.89,122.54
					c16.46,30.42,28.14,63.86,38.55,96.77c10.73,33.92,19.31,68.48,26.91,103.22c7.62,34.82,14.29,69.83,21.4,104.75
					c6.97,34.22,14.67,68.29,22.22,102.39c15.25,68.9,29.86,137.98,39.72,207.89c2.55,18.09,4.76,36.23,6.67,54.4
					c1.74-2.54,3.49-5.09,5.23-7.63c-62.1,15.73-124.95,28.43-188.28,38.05c-63.83,9.7-128.12,16.31-192.59,19.82
					c-64.27,3.51-128.71,3.97-193.03,1.4c-64.25-2.57-128.38-8.18-192.1-16.85c-63.51-8.64-126.62-20.32-188.99-35.1
					c-7.85-1.86-15.69-3.77-23.52-5.73c0.34,2.38,0.69,4.76,1.03,7.14c34.77-68.83,65.46-139.7,91.53-212.28
					c7.45-20.73,14.52-41.6,21.22-62.59C191.94,1252.91,183.98,1253.82,182.12,1259.63L182.12,1259.63z"/>
			</g>
		</g>
		<g>
			<g>
				<path d="M1053.59,1534.33c4.58,0,9.07-10.75,4.04-10.75C1053.06,1523.59,1048.57,1534.33,1053.59,1534.33L1053.59,1534.33z"/>
			</g>
		</g>
		<g>
			<path class="st8" d="M509.87,1520.83c-3.9,37.88-7.81,75.77-11.71,113.65c-1.41,13.65-2.65,28.14,4.22,40.39
				c11.4,20.33,39.94,26.63,65.07,29.9c36.92,4.8,79.9,6.1,105.57-18.15c21.88-20.67,22.81-52.69,17.99-80.85
				c-4.81-28.16-14.04-56.71-7.77-84.64c-56.04,8.67-113.72,8.74-169.78,0.18"/>
			<g>
				<path class="st8" d="M505.75,1521.88c-2.15,20.9-4.31,41.8-6.46,62.7c-2.08,20.15-4.66,40.32-6.13,60.52
					c-1.18,16.34,1.14,32.69,13.72,44.29c10.85,9.99,25.59,14.64,39.74,17.64c15.59,3.31,31.73,5.07,47.65,5.73
					c15.75,0.66,31.92-0.05,47.17-4.31c14.55-4.06,27.96-11.65,37.9-23.14c10.2-11.8,15.77-27.05,17.5-42.42
					c2.1-18.69-0.85-37.06-4.57-55.35c-4.5-22.19-9.72-44.87-4.93-67.46c0.49-2.28-0.49-4.64-3.12-4.24
					c-55.89,8.55-112.86,8.52-168.76,0.09c-4.48-0.68-9.28,9.96-4.04,10.75c56.59,8.53,114.24,8.38,170.81-0.27
					c-1.04-1.41-2.08-2.82-3.12-4.24c-7.53,35.47,7.76,69.15,9.8,104.21c0.82,14.17-0.29,29.14-6.71,42.03
					c-6.41,12.88-18.01,21.99-31.31,27.03c-27.74,10.52-59.93,7.34-88.61,2.93c-14.03-2.16-28.49-5.27-40.81-12.65
					c-13.71-8.22-20.18-21.12-20.19-37.01c-0.01-10.34,1.54-20.69,2.6-30.96c1.11-10.78,2.22-21.55,3.33-32.33
					c2.25-21.88,4.51-43.76,6.76-65.64C514.77,1512.14,506.27,1516.78,505.75,1521.88L505.75,1521.88z"/>
			</g>
		</g>
		<g>
			<path class="st8" d="M255.25,1076.17c-39.78-12.82-88.04-0.2-113.87,29.79c-25.83,29.99-27.22,75.01-3.29,106.23
				s71.34,46.22,111.85,35.39c24.56,58.05,55.68,114.54,99.83,162.39s102.23,86.78,168.94,103.55
				c93.06,23.39,226.74-1.23,283.52-40.56c57.45-39.79,136.61-224.85,136.61-224.85s90.75,1.78,115.73-28.69
				c24.98-30.47,23.26-92.25-5.36-120.02c-20.8-20.18-68.31-26.04-118.56-21.15c-17.78-37.21-23.79-67.26-26.07-103.74
				c-106.17,10.34-215.37-61.18-240.8-154.1C532.27,979.47,311.1,963.81,311.1,963.81s-3.34,95.98-53.18,113.57"/>
			<g>
				<path class="st8" d="M258.19,1071.08c-46.73-14.68-104.59,2.6-129.33,46.61c-12.26,21.81-15.53,48.47-8.06,72.44
					c7.37,23.64,24.83,42.3,46.68,53.48c24.88,12.74,54.38,16.27,81.47,9.24c-1.03-0.59-2.05-1.19-3.08-1.78
					c32.55,76.7,76.59,149.69,142.2,202.56c31.02,25,66.13,45.09,103.9,57.93c35.09,11.93,71.69,16.62,108.66,16.42
					c36.77-0.2,73.68-4.68,109.45-13.21c29.78-7.1,60.15-16.86,86.32-33.09c19.39-12.03,33.99-29.88,47.12-48.26
					c16.41-22.99,30.75-47.42,44.23-72.22c19.62-36.09,37.64-73.17,54.01-110.85c0.28-0.63,0.55-1.27,0.82-1.9
					c-1.92,1.68-3.83,3.35-5.75,5.03c14.38,0.27,28.86-0.68,43.15-2.25c22.62-2.48,47.92-6.5,66.96-19.86
					c21.72-15.24,29.36-45.53,29.38-70.69c0.03-26.45-8.55-57.33-31.95-72.5c-13.97-9.06-31.25-12.93-47.55-15.03
					c-21.61-2.79-43.52-2.23-65.17-0.18c0.88,0.28,1.77,0.56,2.65,0.85c-15.32-32.31-23.19-66.05-25.48-101.65
					c-0.14-2.1-1.19-3.12-3.24-2.93c-79.37,7.45-162.94-30.66-209.74-95.14c-12.57-17.32-22.24-36.54-27.98-57.18
					c-0.97-3.5-4.81-1.26-6.24,0.45c-45.66,54.98-107.37,93.63-174.88,116c-46.78,15.5-96.15,24.01-145.42,25.34
					c-9.38,0.25-18.85,0.4-28.22-0.26c-3.71-0.26-6.15,4.65-6.26,7.73c-0.36,10.15-1.77,20.23-3.71,30.76
					c-3.51,19.1-8.97,38.95-20.03,55.18c-6,8.81-14.09,16.31-24.22,20c-2.64,0.96-4.64,3.55-5.11,6.33
					c-0.31,1.85,0.43,5.22,3.12,4.24c21.66-7.9,35.04-27.93,43.4-48.48c7.61-18.7,11.77-38.91,13.91-58.94
					c0.49-4.58,0.94-9.18,1.1-13.79c-2.09,2.58-4.17,5.15-6.26,7.73c27.82,1.95,56.42-0.6,83.96-4.3
					c61.38-8.26,121.97-27.07,175.45-58.66c36.95-21.83,70.05-49.74,97.47-82.77c-2.08,0.15-4.16,0.3-6.24,0.45
					c21.8,78.36,96.09,134.57,173.3,151.56c23.2,5.11,46.94,6.54,70.59,4.32c-1.08-0.98-2.16-1.95-3.24-2.93
					c1.14,17.74,3.23,35.44,7.38,52.75c4.41,18.39,11.19,36.01,19.28,53.08c0.47,0.99,1.8,0.93,2.65,0.85
					c18.3-1.74,36.8-2.17,55.13-0.51c15.01,1.36,30.35,4,44.19,10.21c24.25,10.88,35.86,35.41,38.34,60.92
					c2.14,22.02-1.19,52.33-19.99,67.07c-16.42,12.87-40.52,16.38-60.59,18.89c-15.15,1.89-30.58,2.91-45.86,2.62
					c-2.81-0.05-4.77,2.74-5.75,5.03c-13.07,30.54-27.6,60.53-42.91,90.01c-12.87,24.77-26.45,49.23-41.61,72.67
					c-12.31,19.03-25.73,38.76-43.16,53.52c-20.28,17.19-47.82,26.77-72.91,34.25c-33.96,10.12-69.32,16.05-104.67,18.19
					c-35.28,2.14-71.3,0.73-105.79-7.44c-38.24-9.05-74.48-26.07-106.87-48.19c-67.71-46.25-115.68-114.34-150.28-187.72
					c-4.51-9.56-8.79-19.24-12.92-28.97c-0.57-1.35-1.52-2.19-3.08-1.78c-42.56,11.04-95.08-5.64-116.48-45.86
					c-10.69-20.1-12.13-44.76-3.87-65.96c8.18-21,25.71-36.19,46.1-44.96c23.53-10.11,51.13-11.96,75.62-4.26
					C257.05,1082.75,262.43,1072.42,258.19,1071.08L258.19,1071.08z"/>
			</g>
		</g>
		<g>
			<path class="st9" d="M655.34,1334.74c-6.33-11.66-28.19-10.63-35.39,0.62c-7.2,11.25-0.33,26.84,12.29,33.2
				c12.62,6.36,28.79,4.74,41.64-1.23c10.75-4.99,20.14-13.38,22.9-23.94c2.76-10.56-2.74-23.09-13.99-27.09
				s-26.32,3.85-25.89,14.68"/>
			<g>
				<path class="st9" d="M658.99,1330.3c-7.99-13.43-29.06-10.98-38.73-0.99c-12.91,13.33-7.65,34.95,7.84,43.69
					c17.95,10.12,42.02,4.12,57.44-7.98c13.8-10.83,23.07-32.47,9.58-47.36c-13.88-15.32-42.22-5.49-42.45,15.66
					c-0.03,2.6,2.16,3.55,4.32,2.49c2.48-1.21,4.13-4.53,4.15-7.2c0.05-5.12,7.14-7.38,11.29-7.88c6.2-0.74,12.32,1.93,16.23,6.77
					c9.2,11.4,2.78,24.07-8.09,31.24c-12.04,7.93-28.8,11.34-42.53,6c-5.93-2.31-10.91-6.39-14.06-11.94
					c-2.42-4.26-4.2-10.8-1.26-15.27c6.03-9.18,23.82-7.06,28.99,1.64C654.26,1343.49,661.34,1334.26,658.99,1330.3L658.99,1330.3z"
					/>
			</g>
		</g>
		<g>
			<g>
				<path d="M264.51,1071.38c-47.02-18.3-106.76-3.35-134.85,39.88c-13.62,20.97-18.56,47.41-13.04,71.82
					c5.5,24.33,21.77,44.35,42.93,57.07c24.45,14.7,54.3,19.94,82.27,14.44c4.3-0.85,7.91-11.73,1.99-10.57
					c-43.69,8.59-97.38-11.74-114.98-55c-8.5-20.89-7.97-45.07,1.9-65.41c10.07-20.75,29.19-35.28,50.7-42.75
					c24.78-8.6,52.66-8.87,77.2,0.68C263.24,1083.34,268.79,1073.04,264.51,1071.38L264.51,1071.38z"/>
			</g>
		</g>
		<g>
			<g>
				<path d="M928.51,1083.65c25.94-2.52,52.68-5.08,78.33,1.02c21.4,5.09,42.3,16.75,52.14,37.24c4.94,10.28,6.96,21.78,7.73,33.07
					c0.75,11.01,0.62,22.18-1.48,33.04c-2.1,10.84-6.37,21.2-13.8,29.49c-7.15,7.98-16.69,13.68-26.53,17.72
					c-26.51,10.87-55.95,9.89-84.03,9.1c-4.57-0.13-9.12,10.61-4.04,10.75c27.68,0.77,56.5,1.62,82.91-8.06
					c23.08-8.45,42.1-24.47,50.27-48.16c7.7-22.32,7.7-49.55,1.42-72.24c-6.64-23.99-24.38-40.45-47.44-48.78
					c-30.05-10.86-62.36-7.78-93.51-4.76C926.15,1073.5,922.42,1084.24,928.51,1083.65L928.51,1083.65z"/>
			</g>
		</g>
		<g>
			<g>
				<path d="M238.74,1252.81c21.08,58.77,54.45,113.25,97.29,158.67c43.88,46.53,98.04,83.67,159.02,103.71
					c59.61,19.59,124.27,24.3,186.01,12.84c62.15-11.54,118.81-40.56,162.62-86.35c45.2-47.24,73.95-107.84,92.72-169.86
					c2.33-7.69,4.5-15.41,6.58-23.17c0.61-2.28-0.62-4.61-3.12-4.24c-2.79,0.42-4.49,3.99-5.11,6.33
					c-16.26,60.76-40.88,120.67-81.55,169.35c-20.01,23.95-43.75,44.92-70.63,60.87c-25.8,15.31-54.03,26.16-83.19,33.07
					c-59.54,14.1-122.91,12.12-181.84-4.02c-60.3-16.51-115.11-49.66-159.96-92.98c-43.94-42.43-79.28-94.26-102.73-150.66
					c-2.82-6.79-5.46-13.65-7.94-20.57C244.86,1240.14,237.24,1248.65,238.74,1252.81L238.74,1252.81z"/>
			</g>
		</g>
		<g>
			<g>
				<path d="M262.73,1080.56c15.28-13.68,24.65-33.39,32.26-52.07c7.16-17.56,12.77-35.78,17.46-54.14
					c0.98-3.84,1.94-7.69,2.77-11.57c-2.05,2.14-4.09,4.28-6.14,6.42c27.88,1.45,56.46-1.55,83.97-5.68
					c61.47-9.22,122.03-28.82,175.48-60.87c36.59-21.94,69.44-49.71,96.81-82.46c-2.08,0.15-4.16,0.3-6.24,0.45
					c30.68,73.99,100.02,126.62,175.79,148.37c22.86,6.56,46.47,10.25,70.24,10.97c-0.74-1.01-1.48-2.02-2.21-3.02
					c2.55,35.77,9.3,71.78,23.67,104.8c2.43,5.58,9.92-2.96,8.15-7.01c-14.06-32.31-20.85-67.47-23.35-102.49
					c-0.09-1.29-0.62-2.98-2.21-3.02c-79.56-2.39-159.08-39.14-209.4-101.41c-13.29-16.45-24.42-34.64-32.52-54.18
					c-1.33-3.22-4.55-1.57-6.24,0.45c-45.9,54.93-107.64,93.83-175.06,116.88c-46.52,15.91-95.63,25.11-144.75,27.25
					c-9.33,0.41-18.75,0.71-28.09,0.22c-3.24-0.17-5.57,3.74-6.14,6.42c-6.08,28.41-15.08,57.55-28.84,83.19
					c-4.74,8.82-10.2,17.59-17.72,24.33c-1.82,1.63-3.93,5.04-2.92,7.59C258.47,1082.44,260.97,1082.13,262.73,1080.56
					L262.73,1080.56z"/>
			</g>
		</g>
		<g>
			<g>
				<path d="M224.22,1063.91c3.11-74.39,25.6-149.54,68.3-210.93c41.41-59.52,102.32-105.43,169.55-132
					c70.04-27.69,147.4-34.01,220.9-17.24c36.01,8.22,70.86,22.03,102.17,41.71c31.98,20.1,59.53,46.44,82.29,76.5
					c49.11,64.87,73.24,143.27,92.88,221.15c2.6,10.32,5.14,20.65,7.69,30.99c1.4,5.69,9.2-2.74,8.15-7.01
					c-20.05-81.53-41.18-164.63-88.24-235.42c-21.13-31.78-47.14-60.45-77.78-83.3c-30.26-22.56-64.78-38.85-100.9-49.56
					c-73.85-21.9-154.06-19.75-226.94,4.93c-70.17,23.76-134.3,67.33-180.72,125.26c-48.13,60.07-75.99,135.81-83.82,212.03
					c-0.94,9.18-1.61,18.38-2,27.59c-0.11,2.62,2.22,3.52,4.32,2.49C222.61,1069.86,224.11,1066.6,224.22,1063.91L224.22,1063.91z"
					/>
			</g>
		</g>
		<g>
			<g>
				<path d="M694.24,1598.11c28.73,2.16,57.95-1.44,86.38-5.32c40.66-5.55,81.03-13.1,121.35-20.68
					c23.45-4.41,46.88-8.89,70.33-13.32c25.54-4.82,51.46-8.56,76.83-14.16c25.61-5.65,13.78-39.82,9.73-56.6
					c-2.86-11.83-4.06-23.89-6.87-35.73c-2.92-12.28-4.86-24.8-7.22-37.2c-10.84-56.87-24.07-113.37-33.47-170.49
					c-0.46-2.8-3.78-1.76-5.23-0.59c-2.21,1.78-3.38,4.83-2.92,7.59c8,48.62,18.93,96.79,28.52,145.11
					c2.43,12.26,4.81,24.53,7.1,36.81c2.14,11.49,4.75,22.85,7,34.3c1.05,5.38,1.45,10.84,2.5,16.23
					c1.19,6.13,2.76,12.17,4.23,18.24c1.51,6.23,3,12.51,3.75,18.88c0.63,5.35,2.05,10.78-4.14,12.7
					c-5.52,1.71-11.83,2.12-17.52,3.15c-6.4,1.16-12.79,2.33-19.19,3.51c-11.87,2.19-23.73,4.4-35.59,6.64
					c-23.03,4.34-46.05,8.74-69.08,13.08c-39.08,7.37-78.19,14.72-117.55,20.46c-31.19,4.55-63.31,9-94.89,6.63
					C693.73,1587.02,689.08,1597.72,694.24,1598.11L694.24,1598.11z"/>
			</g>
		</g>
		<g>
			<g>
				<path d="M182.69,1247.76c-25.3,77.63-56.21,153.3-90.48,227.38c-9.32,20.14-19.22,39.98-28.62,60.07
					c-0.83,1.77-0.91,5.43,1.7,5.72c4.43,0.49,9.5-4.46,8-9.15c-1.43-4.5-6.25-1.75-8.14,0.72c-1.44,1.88-3.97,7.78,0.14,8.43
					c4.75,0.75,9.35,2.03,14.17,2.35c3.78,0.26,9.15-8.13,4.96-10.46c-1.4-0.78-2.59-0.99-4.02-0.14c-2.82,1.69-6.14,7.24-2.86,9.93
					c0.56,0.46,1.21,0.56,1.92,0.67c3.82,0.56,9.19-8.91,4.96-10.46c-5.37-1.97-10.37-3.22-16.11-2.55
					c-3.67,0.43-8.09,9.61-3.02,10.66c4,0.82,11.04,3.76,15.1,1.82c2.52-1.2,5.83-6.63,3.56-9.28c-1.54-1.81-5.54-2.08-7.72-2.53
					c-2.87-0.59-6.23-1.55-9.01-0.23c-2.76,1.32-6.87,9.19-1.94,10.22c62.72,13.06,125.75,24.67,188.97,35
					c58.36,9.54,117.01,18.4,175.95,23.46c21.46,1.84,43.29,3.58,64.84,2.12c4.55-0.31,8.9-11.08,4.04-10.75
					c-18.61,1.26-37.42,0.02-55.98-1.4c-26.4-2.03-52.71-5.08-78.97-8.49c-63.93-8.31-127.57-18.85-190.98-30.45
					c-34.69-6.34-69.31-13.06-103.83-20.25c-0.65,3.41-1.29,6.81-1.94,10.22c-2.06,0.98-0.87,0.37,0.78,0.57
					c1.35,0.16,2.7,0.44,4.03,0.72c1.21,0.25,2.41,0.52,3.61,0.82c1.41,0.35,1.72,0.84,0.86-0.16c1.19-3.09,2.38-6.19,3.56-9.28
					c2.82-1.35,2.12-0.17,0.87-0.62c-0.62-0.22-1.43-0.23-2.07-0.34c-3.25-0.57-6.48-1.25-9.7-1.92c-1.01,3.55-2.01,7.11-3.02,10.66
					c4.24-0.49,8.29,0.72,12.22,2.16c1.65-3.49,3.31-6.98,4.96-10.46c-0.03-0.03-0.06-0.06-0.09-0.09c-0.95,3.31-1.9,6.62-2.86,9.93
					c0.05-0.03,0.1-0.06,0.16-0.09c-1.01,0.08-2.01,0.16-3.02,0.24c0.28,0.16,0.57,0.32,0.85,0.47c1.65-3.49,3.31-6.98,4.96-10.46
					c-4.81-0.33-9.42-1.6-14.17-2.35c0.05,2.81,0.09,5.62,0.14,8.43c-1.45,0.06-2.89,0.12-4.34,0.18c0.64-2.19,1.28-4.37,1.91-6.56
					c-0.07,0.09-0.14,0.18-0.2,0.27c1.05-0.74,2.11-1.49,3.16-2.23c-0.22-0.03-0.45-0.06-0.67-0.09c0.57,1.91,1.14,3.81,1.7,5.72
					c17.03-36.38,34.66-72.41,50.76-109.23c16.35-37.39,31.74-75.2,45.86-113.49c7.91-21.43,15.41-43.01,22.49-64.72
					C192.55,1241.05,184.58,1241.97,182.69,1247.76L182.69,1247.76z"/>
			</g>
		</g>
		<g>
			<g>
				<path d="M503.43,1520.83c-4.36,40.12-9.05,80.22-13.08,120.37c-1.63,16.16-1.1,32.27,10.26,45
					c10.51,11.77,25.49,18.71,40.19,23.67c32.93,11.12,69.67,12.85,102.97,2.17c29.32-9.4,56.98-30.23,60.44-62.85
					c2.14-20.22-2.72-41.1-5.59-61.04c-3.21-22.36-6.43-44.72-9.64-67.09c-0.41-2.82-3.81-1.73-5.23-0.59
					c-2.24,1.81-3.32,4.81-2.92,7.59c2.56,17.82,5.12,35.65,7.69,53.47c2.51,17.47,5.71,35,7.25,52.6
					c1.38,15.76-0.19,31.24-10.88,43.61c-9.19,10.64-22.35,17.82-35.44,22.47c-30.47,10.82-64.4,10.47-95.34,1.76
					c-14.28-4.02-28.85-9.79-40.47-19.22c-5.42-4.4-10.3-10.06-12.92-16.6c-3.09-7.69-3.05-16.06-2.39-24.19
					c3.33-41.14,8.88-82.21,13.35-123.24C512.5,1511.1,503.98,1515.75,503.43,1520.83L503.43,1520.83z"/>
			</g>
		</g>
		<g>
			<g>
				<path d="M571.7,1352.34c58.09,8.63,119.91-6.96,165.65-44.15c3.92-3.19,3.66-13.03-2.31-8.18
					c-43.93,35.73-103.67,49.84-159.3,41.58C571.26,1340.93,566.46,1351.57,571.7,1352.34L571.7,1352.34z"/>
			</g>
		</g>
		<g>
			<g>
				<path d="M582.93,1165.15c16.33-11.79,45.25-3.65,47.75,17.89c2.63,22.64-26.75,28.39-42.52,19.78
					c-4.24-2.32-10.09,7.88-5.88,10.18c24.02,13.12,57.1-3.42,57.02-31.89c-0.09-30.45-37.02-39.77-58.68-24.14
					C576.48,1159.96,576.7,1169.64,582.93,1165.15L582.93,1165.15z"/>
			</g>
		</g>
		<g>
			<path d="M525.31,1076.78c-1.75-7.1,0.26-14.44,1.79-21.59c1.52-7.14,2.48-14.88-1.14-21.39c-3.62-6.51-13.49-10.65-20.19-6.55
				c-7.09,4.34-6.07,13.68-6.62,21.36c-0.44,6.11-2.36,12.05-3.38,18.1c-1.02,6.05-1.07,12.51,2.01,17.98
				c3.08,5.46,10.02,9.53,16.69,8.19c6.67-1.34,10.95-9.4,6.65-14.16"/>
			<g>
				<path d="M529.38,1073.28c-3-14.76,8.83-30.25-0.12-44.44c-6.57-10.42-21.47-11.29-28.94-1.57c-3.64,4.74-4.7,10.57-5.08,16.39
					c-0.49,7.68-1.83,14.74-3.28,22.29c-2.41,12.6-0.5,28.33,14.09,32.04c12.05,3.07,27.37-12.28,18.69-23.71
					c-3.17-4.17-10.06,5.23-7.29,8.88c3.96,5.22-5.53,4.84-8.47,3.7c-5.92-2.3-9.24-7.95-9.59-14.12
					c-0.37-6.38,1.75-12.61,2.95-18.81c1.05-5.44,0.87-10.86,1.48-16.33c0.58-5.13,3.17-7.43,8.61-6.36
					c5.61,1.1,9.87,5.26,11.26,10.75c1.64,6.47-0.6,13.31-1.89,19.64c-1.28,6.26-1.86,12.35-0.58,18.66
					c0.56,2.76,3.72,1.81,5.23,0.59C528.6,1079.14,529.94,1075.99,529.38,1073.28L529.38,1073.28z"/>
			</g>
		</g>
		<g>
			<path d="M684.59,1064.93c3.55-6.95,7.18-14.34,6.2-21.93c-0.97-7.59-8.5-15.05-16.9-13.75c-9.13,1.42-12.93,11.19-14.12,19.42
				c-1.28,8.81-1.6,17.72-0.96,26.59c0.46,6.34,2.46,13.89,9.17,15.94c5.91,1.8,12.45-2.11,15.08-7.17
				c2.63-5.07,2.36-10.91,2.03-16.49"/>
			<g>
				<path d="M687.64,1066.69c5.68-11.19,12.47-26.63,2.16-37.35c-8.59-8.93-21.08-6-27.78,3.5c-7.54,10.68-7.97,25.53-7.75,38.11
					c0.17,9.82,1.42,25.49,14.44,26.06c6.32,0.28,12.27-3.87,15.84-8.79c4.9-6.77,5.23-15.01,4.78-23.04
					c-0.38-6.94-8.72,0.19-8.47,4.7c0.26,4.63,1.34,11.58-2.97,14.69c-3.96,2.85-9.23,1.83-12-2.09c-2.69-3.8-2.88-8.91-3.06-13.38
					c-0.25-6.22-0.06-12.47,0.69-18.65c0.92-7.54,3.33-18.56,13.59-15.49c4.55,1.36,8.4,5.53,9.38,10.19
					c1.31,6.23-2.23,12.65-4.94,18c-0.92,1.82-2.26,5.48,0.12,6.85C683.89,1071.31,686.75,1068.45,687.64,1066.69L687.64,1066.69z"
					/>
			</g>
		</g>
		<g>
			<g>
				<path d="M661.77,997.15c23.42-0.65,47.16,7.85,63.3,25.16c3.66,3.92,10.35-5.59,7.29-8.88c-17.02-18.24-41.74-27.73-66.55-27.04
					C661.24,986.53,656.81,997.29,661.77,997.15L661.77,997.15z"/>
			</g>
		</g>
		<g>
			<g>
				<path d="M463.08,1021.25c16.36-16.74,40.57-23.48,63.47-20.06c4.48,0.67,9.28-9.97,4.04-10.75
					c-25.08-3.74-51.97,4.37-69.82,22.63c-1.73,1.77-3.97,4.93-2.92,7.59C458.78,1023.02,461.4,1022.97,463.08,1021.25
					L463.08,1021.25z"/>
			</g>
		</g>
		<g>
			<g>
				<path d="M960.24,1110.09c30.34,4.09,60.45,27.66,63.69,59.6c0.7,6.94,8.93-0.18,8.47-4.7c-3.55-34.97-34.32-61.08-68.11-65.64
					C959.78,1098.73,955.01,1109.38,960.24,1110.09L960.24,1110.09z"/>
			</g>
		</g>
		<g>
			<g>
				<path d="M220.98,1090.15c-37.59,4.46-72.93,39.95-68.2,79.41c0.83,6.93,9.01-0.18,8.47-4.7c-4.06-33.85,26.18-60.4,57.73-64.15
					C223.35,1100.2,227.05,1089.43,220.98,1090.15L220.98,1090.15z"/>
			</g>
		</g>
		<ellipse class="st6" cx="517.38" cy="1040.05" rx="5.59" ry="5"/>
		<ellipse class="st6" cx="680.1" cy="1044.35" rx="5.38" ry="4.82"/>
		<g class="st10">
			<path class="st9" d="M477.28,1320.53c-1.22-17.44-18.35-32.4-37.71-34.57s-39.23,7.59-49.2,22.6
				c-9.98,15.01-10.42,34.35-2.89,50.47c8.36,17.9,26.86,32.17,48.26,35.11c21.41,2.94,44.8-6.53,54.78-23.74
				c9.99-17.21,4.3-40.97-13.76-51.68"/>
			<g>
				<path class="st9" d="M481.52,1318.18c-2.37-25.51-28.54-40.29-52.38-37.44c-26.9,3.22-48.58,25.69-50.83,52.62
					c-2.23,26.71,14.76,51.5,39.12,61.66c23.4,9.75,52.01,4.8,69.55-13.96c18.5-19.78,16.47-52.75-7.26-67.43
					c-4.05-2.51-10.01,7.62-5.88,10.18c15.76,9.75,23.54,32.33,11.49,48.04c-12.64,16.48-37.53,20.72-56.53,14.99
					c-20.56-6.2-37.85-23.63-41.58-45.06c-4.07-23.4,10.62-43.54,33.2-49.23c21.05-5.3,50.36,5.92,52.63,30.34
					C473.69,1329.82,481.94,1322.7,481.52,1318.18L481.52,1318.18z"/>
			</g>
		</g>
		<g class="st11">
			<path class="st9" d="M872,1275.17c-1.22-17.44-18.35-32.4-37.71-34.57c-19.35-2.17-39.23,7.59-49.2,22.6s-10.42,34.35-2.89,50.47
				c8.36,17.9,26.86,32.17,48.26,35.11c21.41,2.94,44.8-6.53,54.78-23.74s4.3-40.97-13.76-51.68"/>
			<g>
				<path class="st9" d="M876.23,1272.82c-2.37-25.51-28.54-40.29-52.38-37.44c-26.9,3.22-48.58,25.69-50.83,52.62
					c-2.23,26.71,14.76,51.5,39.12,61.66c23.4,9.75,52.01,4.8,69.55-13.96c18.5-19.78,16.47-52.75-7.26-67.43
					c-4.05-2.51-10.01,7.62-5.88,10.18c15.76,9.75,23.54,32.33,11.49,48.04c-12.64,16.48-37.53,20.72-56.53,14.99
					c-20.56-6.2-37.85-23.63-41.58-45.06c-4.07-23.4,10.62-43.54,33.2-49.23c21.05-5.3,50.36,5.92,52.63,30.34
					C868.41,1284.47,876.65,1277.34,876.23,1272.82L876.23,1272.82z"/>
			</g>
		</g>
		<g>
			<path class="st12" d="M506.83,1589.05c1.18,1.59,2.35,3.18,3.53,4.77c-0.73-2.06-1.47-4.11-2.2-6.17
				c-0.19,23.99-0.38,47.98-0.57,71.96c69.28,10.07,142.27-1.67,203.32-32.7c-9.68-22.12-16.16-45.36-19.25-68.96
				c-62.59,15.76-115.32,29.7-183.27,26.59"/>
			<g>
				<path class="st9" d="M503.19,1593.49c1.18,1.59,2.35,3.18,3.53,4.77c3.17,4.29,8.87-4.72,7.72-7.94
					c-0.73-2.06-1.47-4.11-2.2-6.17c-2.13-5.97-8.29,2.81-8.31,5.86c-0.19,23.99-0.38,47.98-0.57,71.96
					c-0.01,1.43,0.7,2.81,2.21,3.02c69.77,9.95,142.45-1.44,205.42-33.23c2.33-1.18,5.18-5.61,4-8.35
					c-9.37-21.63-15.94-44.42-19.09-67.8c-0.24-1.79-1.12-3.46-3.24-2.93c-29.43,7.41-58.86,15.04-88.78,20.22
					c-30.91,5.35-62.12,7.64-93.47,6.28c-4.57-0.2-9.15,10.53-4.04,10.75c31.44,1.36,62.83-0.89,93.83-6.17
					c30.5-5.19,60.49-12.96,90.47-20.51c-1.08-0.98-2.16-1.95-3.24-2.93c3.26,24.21,9.69,47.68,19.4,70.11
					c1.33-2.78,2.66-5.57,4-8.35c-61.7,31.14-132.92,41.91-201.22,32.17c0.74,1.01,1.48,2.02,2.21,3.02
					c0.19-23.99,0.38-47.98,0.57-71.96c-2.77,1.95-5.54,3.9-8.31,5.86c0.73,2.06,1.47,4.11,2.2,6.17c2.57-2.65,5.15-5.29,7.72-7.94
					c-1.18-1.59-2.35-3.18-3.53-4.77C507.37,1580.43,500.46,1589.81,503.19,1593.49L503.19,1593.49z"/>
			</g>
		</g>
		<g>
			<path class="st12" d="M493.46,1592.34c-79.26,34.57-134.59,95.2-122.38,193.96c0.66,5.36,1.74,11.38,6.69,14.44
				c6.58,4.07,15.54,0.61,22.3-3.21c74.46-42.1,114.27-128.13,94.92-205.08"/>
			<g>
				<path class="st9" d="M493.37,1587.5c-31.57,13.85-61.37,32.62-84.58,58.38c-22.45,24.92-37.18,56.11-41.8,89.36
					c-2.61,18.77-2.82,38.57,0.39,57.29c1.6,9.38,7.44,16.29,17.62,15.28c9.71-0.96,18.67-7.2,26.61-12.43
					c32.28-21.25,58.21-51.29,74.52-86.33c17.38-37.32,22.84-79.96,12.93-120.1c-1.41-5.69-9.21,2.74-8.15,7.01
					c16.57,67.1-12.97,137.86-66.17,180.09c-7.02,5.57-14.42,10.62-22.15,15.15c-7.34,4.3-21,11.02-25.69-0.31
					c-3.25-7.83-2.87-18.31-3.15-26.67c-0.29-8.55-0.09-17.16,0.82-25.67c3.26-30.25,14.94-58.58,34.52-81.92
					c22.43-26.74,52.78-45.54,84.45-59.44C497.69,1595.36,499.77,1584.69,493.37,1587.5L493.37,1587.5z"/>
			</g>
		</g>
		<g>
			<path class="st12" d="M493.95,1580.94c-111.29-74.48-274.39-79.91-391.55-13.05"/>
			<g>
				<path class="st9" d="M496.89,1575.85c-44.59-29.69-96.23-47.99-149.11-55.75c-53.68-7.88-109.24-5.06-161.7,8.91
					c-29.2,7.77-57.48,19.11-83.77,34.04c-2.36,1.34-4.3,4.43-4.15,7.2c0.13,2.47,2.05,3.78,4.32,2.49
					c46.1-26.17,98.29-40.91,151.05-44.97c53.33-4.11,107.88,2.14,158.53,19.51c27.83,9.54,54.46,22.45,78.95,38.76
					C494.94,1588.64,500.96,1578.57,496.89,1575.85L496.89,1575.85z"/>
			</g>
		</g>
		<g>
			<path class="st12" d="M485.3,1585.04c-52.21,44.91-125.87,69.09-198.11,65.03c-72.24-4.06-141.95-36.31-187.47-86.71
				c91.17-21.8,130.64-44.18,201.15-39.95c71.87,4.32,141.54,15.9,188.73,60.91"/>
			<g>
				<path class="st9" d="M484.15,1580.95c-41.96,35.86-95.46,56.94-150.14,62.69c-54.78,5.76-110.99-5.13-159.79-30.62
					c-26.5-13.85-50.72-31.96-70.86-54.1c-1.55,3.24-3.09,6.48-4.64,9.72c28.23-6.78,56.04-14.96,83.92-22.99
					c21.7-6.25,43.57-12.2,66-15.2c25.38-3.39,50.77-2.04,76.18,0.27c27.96,2.54,55.98,6.67,82.92,14.8
					c28.74,8.67,56.27,22.51,78.21,43.24c3.94,3.72,10.5-5.84,7.29-8.88c-40.61-38.36-96.21-52.35-150.29-58.48
					c-26.61-3.01-53.61-5.22-80.35-2.84c-22.86,2.03-45.16,7.3-67.21,13.46c-31.54,8.81-62.82,18.4-94.68,26.05
					c-2.97,0.71-7.26,6.84-4.64,9.72c36.93,40.62,86.83,68,140.06,80.53c55.88,13.15,115.42,8.84,169.05-11.51
					c29.56-11.22,57.21-27.12,81.27-47.68c1.85-1.58,3.92-5.07,2.92-7.59C488.39,1579.02,485.93,1579.42,484.15,1580.95
					L484.15,1580.95z"/>
			</g>
		</g>
		<g>
			<path class="st12" d="M179.95,973.16c54.95-23.26,133.51,7.42,199.88,3.73c40.68-2.26,139.02-26.55,193.89-57.33
				c30.75-17.25,77.36-52.86,84.91-53.69c95.16-10.41,140.59-3.05,212.37-4.58c22.57-0.48,44.53,0.02,59.67-14.98
				c16.73-16.58,18.83-45.25,17.2-67.56c-2.11-28.85,2.21-67.52-25.67-82.07c-32.79-17.12-63.83-26.62-99.41-34.02
				c-107.99-22.47-223.85-32.91-329.36-2.41c-76.81,22.21-142.23,68.1-194.59,123.12s-79.22,117.23-120.83,186.55"/>
			<g>
				<path class="st9" d="M180.03,978.01c28.02-11.61,60.07-8.91,89.45-5.44c32.32,3.81,64.59,10.1,97.25,10.01
					c22.51-0.06,44.83-4.24,66.73-9.09c27.85-6.17,55.4-14,82.26-23.61c24.85-8.89,48.98-19.42,71.4-33.42
					c21.41-13.37,41.54-28.84,63.23-41.76c2.29-1.36,4.84-3.01,6.85-3.48c8.48-1.96,18.05-1.9,26.71-2.62
					c16.03-1.33,32.09-2.24,48.16-2.7c26.53-0.75,53.05-0.09,79.58,0.49c13.29,0.29,26.58,0.51,39.88,0.47
					c14.95-0.05,30.14,0.19,45.01-1.48c14.65-1.65,28.25-6.87,38.22-18.08c9.31-10.47,14.16-24.39,16.28-38.04
					c2.12-13.68,1.2-27.16,0.62-40.9c-0.54-12.78-0.59-25.6-2.67-38.26c-1.91-11.6-5.92-23.42-14.56-31.76
					c-5.05-4.88-11.21-7.83-17.46-10.88c-7.94-3.88-16.04-7.44-24.28-10.66c-32.05-12.55-65.82-19.58-99.59-25.71
					c-36-6.54-72.33-11.42-108.85-13.73c-70.63-4.45-143.5,0.54-210.64,24.28c-60.45,21.38-114.75,57.71-160.65,102.2
					c-23.5,22.78-44.23,47.72-62.38,74.95c-18.12,27.18-33.78,55.89-49.73,84.37c-8.46,15.1-17.01,30.14-25.9,44.99
					c-1.05,1.75-2.17,5.53,0.12,6.85c2.33,1.34,4.98-1.63,5.99-3.33c33.42-55.78,61.11-115.75,102.89-166.07
					c39.81-47.95,90.73-88.55,146.65-116.07c61.59-30.31,130.37-42.16,198.61-42.83c35.64-0.35,71.26,2.25,106.6,6.82
					c34.9,4.51,69.91,10.45,104.11,18.83c16.21,3.97,32.18,8.83,47.71,14.95c7.95,3.14,15.78,6.59,23.47,10.34
					c6.13,2.99,12.52,5.86,17.32,10.84c17.03,17.69,13.7,47.08,15.02,69.58c1.49,25.4,1.5,60.83-26.39,72.45
					c-13.95,5.81-29.96,5.13-44.77,5.42c-13.35,0.26-26.69,0.24-40.04,0.04c-25.51-0.39-51.02-1.33-76.54-1.15
					c-31.44,0.22-62.85,2.13-94.1,5.55c-6.98,0.76-13.28,5.69-19,9.41c-10.3,6.69-20.39,13.71-30.57,20.58
					c-21.57,14.54-43.3,28.12-67.26,38.4c-25.88,11.1-52.87,19.72-80.05,26.99c-23.16,6.19-46.73,11.61-70.54,14.59
					c-58.97,7.38-116.87-15.38-175.78-10.82c-13.31,1.03-26.16,3.68-38.51,8.79C175.67,970.06,173.57,980.69,180.03,978.01
					L180.03,978.01z"/>
			</g>
		</g>
		<g>
			<path class="st12" d="M372.75,708.47c-7.22-8.43-24.59-20.71-34.29-26.83c-9.7-6.12-19.79-11.74-31.14-8.63
				c-15.18,4.16-25.46,14.4-32.54,27.13c-3.48,6.25-7.05,13.1-5.53,19.95c2.72,12.21,18.83,13.38,32.69,12.43
				c13.86-0.95,28.78-1.57,42.16,1.79"/>
			<g>
				<path class="st9" d="M376.4,704.04c-9.34-10.6-21.76-18.99-33.58-26.58c-6.99-4.49-14.44-9.04-22.78-10.35
					c-7.85-1.24-15.74,1.3-22.64,4.93c-13.89,7.29-24,20.78-30.01,35.02c-2.92,6.92-4.28,15.53,0.21,22.12
					c3.35,4.9,9.24,7.1,14.85,8.15c8.8,1.64,17.78,0.44,26.63,0.05c11.07-0.49,22.17-0.25,33,2.32c4.34,1.03,9.29-9.5,4.04-10.75
					c-15.38-3.65-30.64-2.07-46.23-1.58c-9,0.28-26.92-0.17-26.76-13.04c0.08-6.69,5.36-14.37,9.32-19.58
					c3.78-4.97,8.37-9.25,13.83-12.32c6.54-3.68,13.82-5.89,21.31-4.26c7.03,1.53,13.39,5.65,19.36,9.48
					c11.27,7.23,23.26,15.17,32.17,25.28C372.63,716.91,379.39,707.43,376.4,704.04L376.4,704.04z"/>
			</g>
		</g>
		<g>
			<path class="st13" d="M218.89,969.05c-15.64-6.22-35.71-1.71-46.22,10.39s-10.48,30.63,0.09,42.69
				c10.56,12.06,30.65,16.51,46.26,10.24c-0.96-20.41,2.6-40.99,10.42-60.19"/>
			<g>
				<path class="st13" d="M221.82,963.96c-26.54-9.97-59.05,6.65-61.14,36.32c-2.13,30.37,31.15,47.3,57.33,37.37
					c2.93-1.11,5.36-4.4,5.23-7.63c-0.8-19.76,2.57-39.13,9.91-57.49c0.76-1.91,0.94-5.3-1.7-5.72c-2.65-0.42-4.95,3.03-5.75,5.03
					c-7.99,20-11.8,41.36-10.93,62.89c1.74-2.54,3.49-5.09,5.23-7.63c-19.98,7.58-48.44-1.96-50.84-25.77
					c-2.5-24.76,27.32-34.48,46.78-27.18C220.58,975.88,226.1,965.57,221.82,963.96L221.82,963.96z"/>
			</g>
		</g>
		<g>
			<g>
				<path d="M220.34,1034.16c-12.42-3.15-25.93-0.18-38.11-4.31c-11.85-4.02-20.29-17.82-18.56-30.21
					c1.72-12.3,13.76-20.25,24.48-24.33c14.27-5.43,29.72-5.37,44.7-3.71c15.6,1.73,30.98,5,46.55,6.96
					c13.78,1.73,27.63,2.85,41.51,3.38c28.1,1.06,56.29-0.32,84.17-3.96c55.42-7.23,109.76-23.64,159.67-48.86
					c24.38-12.32,47.66-26.81,69.39-43.37c24.39-18.59,46.27-40.12,68.26-61.43c42.74-41.4,89.2-82.98,149.01-96.27
					c7.38-1.64,14.86-2.82,22.4-3.48c2.78-0.24,4.81-2.49,5.75-5.03c0.52-1.39,1.1-5.97-1.7-5.72
					c-62.29,5.44-114.19,42.52-158.55,83.98c-24.32,22.73-47.39,46.83-72.96,68.2c-22,18.37-45.91,34.33-71.14,47.91
					c-51.6,27.77-108.46,45.53-166.5,53.29c-29.62,3.96-59.61,5.22-89.46,3.74c-14.68-0.73-29.33-2.13-43.88-4.22
					c-16.57-2.38-33.02-6.06-49.79-6.76c-25.87-1.08-57.25,7.28-67.9,33.73c-4.81,11.95-2.88,25.94,5.12,36.06
					c8.68,10.99,20.77,12.67,33.97,13.16c6.56,0.24,13.15,0.37,19.55,2C220.6,1046,225.58,1035.49,220.34,1034.16L220.34,1034.16z"
					/>
			</g>
		</g>
		<g>
			<g>
				<path d="M715.29,813.23c59.36-8.19,119.22-12.28,179.14-12.31c4.58,0,9.07-10.75,4.04-10.75c-60.6,0.03-121.16,4.21-181.19,12.5
					C712.93,803.26,709.25,814.06,715.29,813.23L715.29,813.23z"/>
			</g>
		</g>
		<g>
			<g>
				<path d="M658.34,867.33c47.18,5.3,94.85,5.78,142.28,4.98c23.32-0.4,46.63-1.18,69.94-2.16c20.97-0.88,44.22-0.94,61.96-13.77
					c15.87-11.47,22.35-30.43,24.12-49.23c1.93-20.57,1.5-42.44-1.76-62.83c-3.31-20.74-12.02-39.6-27.92-53.61
					c-14.84-13.08-33.62-20.67-52.37-26.2c-20.9-6.18-42.51-9.76-63.94-13.54c-24.12-4.26-48.3-8.16-72.58-11.36
					c-48.3-6.36-97.18-9.99-145.9-7.36c-47.55,2.56-94.94,11.16-139.22,29.04c-41.08,16.58-78.78,40.64-112.25,69.57
					c-72.02,62.25-121.22,144.51-165.37,227.7c-5.71,10.75-11.36,21.54-17,32.32c-0.95,1.81-2.24,5.49,0.12,6.85
					c2.26,1.3,5.08-1.58,5.99-3.33c42.85-81.81,86.78-165.11,152.61-231.16c29.92-30.01,63.72-56.25,101.24-76.1
					c40.03-21.18,83.71-34.07,128.49-40.24c93.02-12.81,187.75,1.5,279.3,18.32c36.35,6.68,80.31,14.72,104.43,45.73
					c13.4,17.22,17.11,39.02,18.06,60.29c0.83,18.55,2.29,39.47-3.89,57.29c-7.12,20.53-26.62,27.33-46.63,29.49
					c-21.79,2.35-44.07,2.28-65.97,2.91c-46.04,1.32-92.22,1.64-138.19-1.51c-10.52-0.72-21.01-1.65-31.49-2.83
					C657.86,856.07,653.14,866.74,658.34,867.33L658.34,867.33z"/>
			</g>
		</g>
		<g>
			<g>
				<path d="M375.69,699.66c-20.38-15.8-51.22-46.68-79.39-30.96c-12.56,7.01-21.3,20.71-27.76,33.16
					c-6.25,12.04-9.12,31.45,7.42,36.67c8.94,2.82,19.79,1.13,29.02,1c11.4-0.16,22.8-0.31,34.21-0.47
					c4.57-0.06,9.04-10.82,4.04-10.75c-16.29,0.22-32.58,0.46-48.87,0.67c-6.68,0.09-14.87,0.74-19.57-4.99
					c-4.39-5.35-3.36-12.05-0.55-17.87c5.06-10.45,12.67-23.09,23.43-28.39c11.65-5.74,25.64-0.3,36.09,5.6
					c13.03,7.35,24.27,17.37,36.04,26.5C373.45,712.65,379.61,702.7,375.69,699.66L375.69,699.66z"/>
			</g>
		</g>
		<g>
			<g>
				<path d="M499.26,1585.62c4.58,0,9.07-10.75,4.04-10.75C498.72,1574.87,494.23,1585.62,499.26,1585.62L499.26,1585.62z"/>
			</g>
		</g>
		<g>
			<g>
				<path d="M499.01,1585.93c65.43,1.49,130.97-7.3,193.6-26.37c-1.03-0.59-2.05-1.19-3.08-1.78c3.82,25.39,10.01,50.31,18.44,74.56
					c1.69-2.93,3.38-5.86,5.07-8.79c-66.29,24.33-140.05,46.54-211.17,33.42c-4.43-0.82-9.29,9.78-4.04,10.75
					c71.73,13.23,146.37-9.07,213.22-33.61c3.05-1.12,6.27-5.36,5.07-8.79c-8.43-24.25-14.62-49.17-18.44-74.56
					c-0.21-1.41-1.8-2.17-3.08-1.78c-62,18.88-126.76,27.66-191.54,26.18C498.48,1575.07,493.94,1585.81,499.01,1585.93
					L499.01,1585.93z"/>
			</g>
		</g>
		<g>
			<g>
				<path d="M502.91,1575.55c-38.79-35.16-91.85-47.31-142.26-54.49c-26.9-3.84-54.64-8.21-81.85-7.96
					c-29.38,0.27-58.37,5.94-86.6,13.75c-31.92,8.83-63.04,20.23-94.82,29.5c-2.99,0.87-7.21,6.68-4.64,9.72
					c32.45,38.29,75.56,67.77,123.28,83.48c44.31,14.59,91.24,16.06,136.57,5.41c27.35-6.43,54.06-15.54,81.02-23.41
					c2.66-0.78,4.66-3.68,5.11-6.33c0.34-2.01-0.41-5.03-3.12-4.24c-43.13,12.59-86.08,28.87-131.47,30.23
					c-50.08,1.5-99.08-13.19-141.37-39.76c-23.54-14.79-44.76-33.05-62.73-54.26c-1.55,3.24-3.09,6.48-4.64,9.72
					c55.52-16.19,110.22-39.64,168.65-42.73c27.7-1.46,55.53,2.7,82.94,6.31c25.85,3.4,51.73,7.72,76.69,15.4
					c26.85,8.26,52.45,20.87,73.38,39.84C500.32,1588.7,506.6,1578.89,502.91,1575.55L502.91,1575.55z"/>
			</g>
		</g>
		<g>
			<g>
				<path d="M496.49,1579.26c-63.16,14.45-128.85,16.09-192.68,5.02c-4.45-0.77-9.29,9.84-4.04,10.75
					c64.46,11.18,130.95,9.39,194.73-5.21C498.77,1588.85,502.33,1577.92,496.49,1579.26L496.49,1579.26z"/>
			</g>
		</g>
		<g>
			<g>
				<path d="M492.52,1586.93c-69.11,25.28-124.41,85.76-131.17,160.75c-1.97,21.9,0.3,43.98,6.71,65.01
					c0.43,1.4,1.63,2.16,3.08,1.78c74.07-19.4,125.91-87.1,133.68-162.03c2.42-23.39,1.39-46.89-0.7-70.26
					c-0.39-4.41-4.23-2.98-6.4-0.7c-35.23,37.17-60.45,83.4-71.19,133.56c-0.49,2.29,0.53,4.62,3.12,4.24
					c2.69-0.4,4.61-3.99,5.11-6.33c10.13-47.29,34.1-90.36,67.28-125.37c-2.13-0.23-4.27-0.47-6.4-0.7
					c3.29,36.78,4.12,74.62-8.23,109.95c-11.44,32.72-32.49,61.29-60.53,81.7c-16.14,11.75-34.45,20.31-53.75,25.36
					c1.03,0.59,2.05,1.19,3.08,1.78c-10.61-34.82-9.23-72.46,4.27-106.31c12.12-30.4,33.8-56.09,60.07-75.33
					c15.26-11.18,32.24-20.06,49.98-26.55c2.64-0.97,4.64-3.55,5.11-6.33C495.96,1589.32,495.22,1585.94,492.52,1586.93
					L492.52,1586.93z"/>
			</g>
		</g>
		<g>
			<g>
				<path d="M502.87,1588.68c29.22,33.23,79.2,44.95,121,32.15c2.66-0.81,4.66-3.65,5.11-6.33c0.34-1.98-0.42-5.07-3.12-4.24
					c-39.76,12.17-87.82,1.24-115.7-30.46C506.64,1575.81,499.88,1585.29,502.87,1588.68L502.87,1588.68z"/>
			</g>
		</g>
	</g>
</g>
<g id="Ebene_26">
</g>
</svg>
