<?xml version="1.0" encoding="utf-8"?>
<!-- Generator: Adobe Adobe Illustrator 24.2.0, SVG Export Plug-In . SVG Version: 6.00 Build 0)  -->
<svg version="1.1" xmlns="http://www.w3.org/2000/svg" xmlns:xlink="http://www.w3.org/1999/xlink" x="0px" y="0px"
	 viewBox="0 0 1700.79 1700.79" style="enable-background:new 0 0 1700.79 1700.79;" xml:space="preserve">
<style type="text/css">
	.st0{display:none;}
	.st1{display:inline;}
	.st2{fill:#6DB571;}
	.st3{fill:#6DB671;}
	.st4{fill:#EFC2A1;}
	.st5{fill:#F0C2A1;}
	.st6{fill:#F0C1A1;}
	.st7{fill:#2F5B81;}
	.st8{fill:#91625E;}
	.st9{fill:#91625D;}
	.st10{fill:#855F5F;}
	.st11{stroke:#000000;stroke-width:0.8691;stroke-miterlimit:10;}
	.st12{opacity:0.1608;}
	.st13{opacity:0.1098;}
	.st14{fill:#FFFFFF;}
	.st15{fill:#FFFFFF;stroke:#FFFFFF;stroke-width:0.8691;stroke-miterlimit:10;}
	.st16{fill:#CB5B7A;}
	.st17{fill:#CB5B7B;stroke:#CB5B7A;stroke-miterlimit:10;}
	.st18{opacity:0.149;}
	.st19{fill:#C9316B;}
	.st20{fill:#F4F5E8;}
	.st21{fill:#6379B8;}
	.st22{fill:#F3C057;stroke:#000000;stroke-width:2.5364;stroke-miterlimit:10;}
	.st23{fill:#C8316B;}
	.st24{fill:#6478B7;}
	.st25{fill:#6378B7;}
</style>
<g id="Ebene_4">
</g>
<g id="Ebene_8">
</g>
<g id="Ebene_5">
</g>
<g id="Ebene_7">
</g>
<g id="Ebene_6" class="st0">
	<g class="st1">
		<g>
			<path d="M445.89,673.64c0,7.5,0,15,0,22.51c0,9.65,15,9.67,15,0c0-7.5,0-15,0-22.51C460.89,663.99,445.89,663.97,445.89,673.64
				L445.89,673.64z"/>
		</g>
	</g>
	<g class="st1">
		<g>
			<path d="M528.41,667.39c0,8.75,0,17.5,0,26.26c0,9.65,15,9.67,15,0c0-8.75,0-17.5,0-26.26
				C543.41,657.74,528.41,657.72,528.41,667.39L528.41,667.39z"/>
		</g>
	</g>
</g>
<g id="Ebene_29">
</g>
<g id="Ebene_27">
</g>
<g id="Ebene_9">
</g>
<g id="Ebene_10">
</g>
<g id="Ebene_11">
</g>
<g id="Ebene_12">
	<g>
		<g>
			<path class="st2" d="M323.89,1198.01c2.38,65.56,4.76,131.12,7.15,196.67c28.24,3.68,57.12,2.74,85.04-2.76
				c12.26-33.64,21.55-68.28,27.71-103.42c6.87,34.11,13.75,68.22,20.62,102.33c32.02-1.39,64.04-2.79,96.06-4.18
				c-10.75-64.66-0.74-125.28-7.89-195.83c-75.2,9.42-151.24,12.71-227.03,9.8"/>
			<g>
				<path class="st3" d="M317.37,1198.01c2.38,65.56,4.76,131.12,7.15,196.67c0.14,3.86,2.9,6.06,6.52,6.52
					c16.97,2.15,34.1,2.75,51.18,1.65c8.16-0.53,16.29-1.45,24.38-2.68c3.57-0.54,7.84-0.67,11.21-1.96c4.33-1.66,5.1-6,6.5-9.97
					c11.28-31.9,19.87-64.7,25.77-98.01c-4.19,0-8.38,0-12.57,0c6.87,34.11,13.75,68.22,20.62,102.33c0.54,2.68,3.59,4.9,6.29,4.79
					c32.02-1.39,64.04-2.79,96.06-4.18c4.57-0.2,6.98-3.99,6.29-8.25c-10.48-64.16-1.25-129.58-7.66-194.09
					c-0.31-3.16-2.75-6.99-6.52-6.52c-75.27,9.38-151.23,12.65-227.03,9.8c-8.39-0.32-8.38,12.72,0,13.04
					c75.8,2.85,151.75-0.42,227.03-9.8c-2.17-2.17-4.35-4.35-6.52-6.52c6.53,65.72-2.55,132.17,8.13,197.56
					c2.1-2.75,4.19-5.5,6.29-8.25c-32.02,1.39-64.04,2.79-96.06,4.18c2.1,1.6,4.19,3.19,6.29,4.79
					c-6.87-34.11-13.75-68.22-20.62-102.33c-1.24-6.14-11.46-6.3-12.57,0c-6.24,35.22-15.51,69.8-27.71,103.42
					c1.52-1.52,3.04-3.04,4.55-4.55c-27.46,5.31-55.56,6.04-83.3,2.53c2.17,2.17,4.35,4.35,6.52,6.52
					c-2.38-65.56-4.76-131.12-7.15-196.67C330.11,1189.64,317.07,1189.6,317.37,1198.01L317.37,1198.01z"/>
			</g>
		</g>
		<g>
			<path class="st4" d="M286.37,1249.7c3.43,11.76,13.95,21.36,26.38,24.07c-1.06-9.36-2.11-18.71-3.17-28.07
				c-6.73-0.06-13.46-0.12-20.19-0.17"/>
			<g>
				<path class="st4" d="M280.08,1251.44c4.55,14.33,16.32,25.1,30.93,28.62c3.71,0.89,8.75-1.88,8.25-6.29
					c-1.06-9.36-2.11-18.71-3.17-28.07c-0.4-3.53-2.66-6.49-6.52-6.52c-6.73-0.06-13.46-0.12-20.19-0.17
					c-8.39-0.07-8.4,12.96,0,13.04c6.73,0.06,13.46,0.12,20.19,0.17c-2.17-2.17-4.35-4.35-6.52-6.52
					c1.06,9.36,2.11,18.71,3.17,28.07c2.75-2.1,5.5-4.19,8.25-6.29c-10.14-2.44-18.63-9.42-21.83-19.51
					C290.13,1240,277.54,1243.41,280.08,1251.44L280.08,1251.44z"/>
			</g>
		</g>
		<g>
			<path class="st4" d="M570.01,1250.41c-3.42,10.48,6.86,22.7,18.27,21.72c11.41-0.98,19.27-14.75,13.96-24.48
				c-10.08,0.21-20.17,0.42-30.25,0.62"/>
			<g>
				<path class="st4" d="M563.73,1248.68c-4.27,15.52,9.81,31.75,25.81,29.81c15.94-1.93,25.26-19.94,18.34-34.13
					c-0.97-1.99-3.48-3.27-5.63-3.23c-10.08,0.21-20.17,0.42-30.25,0.62c-8.38,0.17-8.41,13.21,0,13.04
					c10.08-0.21,20.17-0.42,30.25-0.62c-1.88-1.08-3.75-2.15-5.63-3.23c2.84,5.83-2.16,13.73-8.33,14.67
					c-7.12,1.08-13.85-6.68-11.99-13.47C578.53,1244.05,565.95,1240.59,563.73,1248.68L563.73,1248.68z"/>
			</g>
		</g>
		<g>
			<path class="st5" d="M344.76,1413.17c1.15,45.03,14.52,165.01,14.52,165.01s21.16,0.83,36.86-2.16
				c2.46-56.95,4.93-113.89,7.39-170.84c-20.87,4.81-42.72,5.68-63.93,2.55"/>
			<g>
				<path class="st4" d="M338.24,1413.17c1.34,49.97,7.53,100.03,12.85,149.7c0.55,5.11,1.1,10.21,1.67,15.32
					c0.4,3.61,2.66,6.37,6.52,6.52c12.85,0.48,25.93-0.1,38.59-2.4c2.87-0.52,4.67-3.6,4.79-6.29
					c2.46-56.95,4.93-113.89,7.39-170.84c0.19-4.42-4.3-7.17-8.25-6.29c-19.8,4.44-40.35,5.4-60.46,2.55
					c-3.51-0.5-6.96,0.86-8.02,4.55c-0.88,3.05,1.07,7.53,4.55,8.02c22.56,3.2,45.14,2.44,67.4-2.55c-2.75-2.1-5.5-4.19-8.25-6.29
					c-2.46,56.95-4.93,113.89-7.39,170.84c1.6-2.1,3.19-4.19,4.79-6.29c-11.49,2.09-23.47,2.37-35.13,1.93
					c2.17,2.17,4.35,4.35,6.52,6.52c-4.69-42.11-9-84.29-12.26-126.53c-0.99-12.81-1.91-25.64-2.26-38.48
					C351.06,1404.8,338.02,1404.77,338.24,1413.17L338.24,1413.17z"/>
			</g>
		</g>
		<g>
			<path class="st6" d="M479.45,1405.18c9.29,52.53,8.47,109.02,17.76,161.55c12.17-4.28,31.05-6.05,43.98-5.14
				c-1.13-54-2.27-108.01-3.4-162.01C516.01,1402.28,501.23,1402.49,479.45,1405.18"/>
			<g>
				<path class="st4" d="M473.17,1406.92c9.33,53.45,8.43,108.09,17.76,161.55c0.58,3.34,4.92,5.6,8.02,4.55
					c13.4-4.54,28.18-5.79,42.25-4.91c3.47,0.22,6.59-3.16,6.52-6.52c-1.13-54-2.27-108.01-3.4-162.01
					c-0.07-3.2-2.95-6.95-6.52-6.52c-19.4,2.36-38.94,3.25-58.33,5.61c-3.52,0.43-6.48,2.69-6.52,6.52
					c-0.03,3.2,3.03,6.94,6.52,6.52c19.4-2.36,38.94-3.25,58.33-5.61c-2.17-2.17-4.35-4.35-6.52-6.52
					c1.13,54,2.27,108.01,3.4,162.01c2.17-2.17,4.35-4.35,6.52-6.52c-15.08-0.94-31.35,0.51-45.71,5.37
					c2.67,1.52,5.35,3.04,8.02,4.55c-9.33-53.45-8.43-108.09-17.76-161.55C484.3,1395.2,471.73,1398.7,473.17,1406.92
					L473.17,1406.92z"/>
			</g>
		</g>
		<g>
			<path class="st4" d="M265.26,711.24c-12.52-3.2-25.98,10.1-22.26,22c3.72,11.9,22.6,15.91,31.22,6.64
				c9.59,58.99,71.95,105.38,133.96,99.66c0.29,10.09,0.58,20.18,0.88,30.27c17.23,10.47,40.74,10.55,58.05,0.2
				c-0.14-10.59-0.29-21.18-0.43-31.78c53.42-3.22,102.16-43.1,113.85-93.14c7.21,9.77,25.6,0.9,26-11.06s-10.4-21.6-21.61-26.85
				c-11.22-5.25-23.85-8.03-33.76-15.3s-16.07-21.61-8.74-31.28c-8.7,7.17-22.38,8.08-32.03,2.14c-9.65-5.94-14.48-18.24-11.3-28.8
				c-13.93,8.95-36.05,0.6-39.88-15.04c-6.76,14.43-30.57,17.51-41.07,5.3c-1.69,20.28-31.03,32.53-47.68,19.91
				c1.19,20.6-24.82,37.66-44.43,29.14c-10.14,20.73-32.91,35.22-56.77,36.14"/>
			<g>
				<path class="st4" d="M266.99,704.96c-17.94-3.77-37.91,14.82-29.04,33.1c7.21,14.85,29.43,17.83,40.87,6.44
					c-3.63-0.96-7.26-1.92-10.9-2.88c8.37,49.32,50.5,88.56,97.94,100.8c13.78,3.56,28.14,4.86,42.31,3.65
					c-2.17-2.17-4.35-4.35-6.52-6.52c0.15,5.05,0.29,10.09,0.44,15.14c0.14,4.92-0.31,10.28,0.44,15.14
					c1.19,7.76,13.2,10.84,19.83,12.48c16.2,4.01,33.57,1.7,48.03-6.65c1.97-1.13,3.26-3.35,3.23-5.63
					c-0.14-10.59-0.29-21.18-0.43-31.78c-2.17,2.17-4.35,4.35-6.52,6.52c55.18-3.67,106.99-43.34,120.13-97.93
					c-3.63,0.96-7.26,1.92-10.9,2.88c7.96,9.71,22.78,6.52,30.71-1.47c9.87-9.95,6.97-24.36-1.47-34.19
					c-10.15-11.83-25.29-15.43-39.02-21.3c-10.03-4.29-26.96-16.09-18.09-28.85c1.85-2.67,0.71-6.57-1.68-8.41
					c-2.78-2.14-5.95-1.52-8.56,0.51c-14.65,11.36-37.38-1.85-32.43-20.32c1.45-5.42-4.65-10.33-9.58-7.36
					c-10.51,6.34-26.91,1.12-30.3-11.15c-1.42-5.16-9.33-6.68-11.91-1.56c-5.59,11.06-22.56,13.04-30.84,3.98
					c-4.19-4.59-10.56-0.56-11.13,4.61c-1.83,16.72-25.64,23.09-37.87,14.28c-4.04-2.91-9.96,0.99-9.81,5.63
					c0.57,17.85-20.72,29.13-36.18,22.85c-2.5-1.02-6.18,0.65-7.36,3c-9.73,19.26-29.65,31.82-51.15,32.91
					c-8.35,0.42-8.4,13.46,0,13.04c25.89-1.31,50.59-15.98,62.4-39.37c-2.45,1-4.91,2-7.36,3c23.29,9.46,53.5-9.77,52.68-35.43
					c-3.27,1.88-6.54,3.75-9.81,5.63c21.18,15.25,54.68,0.11,57.49-25.54c-3.71,1.54-7.42,3.07-11.13,4.61
					c13.7,15,42.04,11.72,51.31-6.62c-3.97-0.52-7.94-1.04-11.91-1.56c5.6,20.28,31.75,29.63,49.45,18.94
					c-3.19-2.45-6.38-4.91-9.58-7.36c-3.68,13.71,2.14,28.68,14.29,36.16c12.57,7.74,28.61,5.62,39.93-3.16
					c-3.41-2.63-6.83-5.27-10.24-7.9c-6.95,10-4.15,22.91,2.79,32.1c8.36,11.05,21.73,15.44,34.19,20.18
					c9.81,3.73,25.7,10.46,26.23,23.03c0.28,6.63-9.88,13.96-14.86,7.88c-3.13-3.82-9.82-1.59-10.9,2.88
					c-11.74,48.75-58.03,85.06-107.56,88.36c-3.48,0.23-6.57,2.8-6.52,6.52c0.14,10.59,0.29,21.18,0.43,31.78
					c1.08-1.88,2.15-3.75,3.23-5.63c-15.81,9.13-35.73,9.04-51.47-0.2c1.08,1.88,2.15,3.75,3.23,5.63
					c-0.29-10.09-0.58-20.18-0.88-30.27c-0.1-3.29-2.92-6.83-6.52-6.52C350.2,838,290.44,796.7,280.5,738.15
					c-0.85-4.99-7.69-6.07-10.9-2.88c-5.06,5.03-15.31,4.06-19.37-1.91c-5.36-7.89,5.49-17.47,13.29-15.84
					C271.71,719.25,275.21,706.68,266.99,704.96L266.99,704.96z"/>
			</g>
		</g>
		<g>
			<path class="st7" d="M311.79,1187.95c0.37,14.93,0.74,29.87,1.11,44.8c-12.4-1.26-24.81-2.53-37.21-3.79
				c-10.24-125.87,33.02-254.99,117.81-351.62c23.65,17.2,61.26,12.86,79.98-9.22c95.39,43.75,135.12,234.12,136.93,366.16
				c-12.93,0.47-25.85,0.95-38.78,1.42c-1.29-20.9-2.59-41.81-3.88-62.71c-85.8,3.73-171.59,7.46-257.39,11.2"/>
			<g>
				<path class="st7" d="M305.27,1187.95c0.37,14.93,0.74,29.87,1.11,44.8c2.17-2.17,4.35-4.35,6.52-6.52
					c-12.4-1.26-24.81-2.53-37.21-3.79c2.17,2.17,4.35,4.35,6.52,6.52c-7.77-97.67,16.55-196.5,67.15-280.27
					c14.27-23.63,30.58-45.95,48.75-66.74c-2.63,0.34-5.27,0.68-7.9,1.02c26.3,18.6,66.66,14.13,87.88-10.24
					c-2.63,0.34-5.27,0.68-7.9,1.02c42.13,19.56,67.75,63.37,85.28,104.43c22.13,51.84,34.48,108.18,41.7,163.92
					c3.96,30.57,6.28,61.36,6.73,92.19c2.17-2.17,4.35-4.35,6.52-6.52c-12.93,0.47-25.85,0.95-38.78,1.42
					c2.17,2.17,4.35,4.35,6.52,6.52c-1.29-20.9-2.59-41.81-3.88-62.71c-0.21-3.4-2.82-6.68-6.52-6.52
					c-66.84,2.91-133.68,5.82-200.52,8.72c-18.95,0.82-37.91,1.65-56.86,2.47c-8.36,0.36-8.4,13.4,0,13.04
					c66.84-2.91,133.68-5.82,200.52-8.72c18.95-0.82,37.91-1.65,56.86-2.47c-2.17-2.17-4.35-4.35-6.52-6.52
					c1.29,20.9,2.59,41.81,3.88,62.71c0.21,3.42,2.82,6.65,6.52,6.52c12.93-0.47,25.85-0.95,38.78-1.42
					c3.48-0.13,6.57-2.88,6.52-6.52c-0.84-57.62-7.78-115.52-20.93-171.64c-12.34-52.65-30.23-107.21-62.77-151.11
					c-14.96-20.19-33.43-38.34-56.46-49.03c-2.5-1.16-5.9-1.28-7.9,1.02c-17.69,20.31-50.23,23.66-72.08,8.2
					c-2.21-1.56-6.13-1.01-7.9,1.02c-66.26,75.79-108.17,171.36-118.68,271.51c-2.95,28.14-3.29,56.52-1.04,84.72
					c0.3,3.79,2.76,6.14,6.52,6.52c12.4,1.26,24.81,2.53,37.21,3.79c3.45,0.35,6.6-3.27,6.52-6.52c-0.37-14.93-0.74-29.87-1.11-44.8
					C318.1,1179.58,305.06,1179.55,305.27,1187.95L305.27,1187.95z"/>
			</g>
		</g>
		<g>
			<path class="st8" d="M398.69,1595.29c-0.4,6.21-0.8,12.42-1.2,18.63c-45.49,2.48-90.99,4.95-136.48,7.43
				c36.52-27.25,86.05-37.79,131.18-27.9"/>
			<g>
				<path class="st9" d="M392.17,1595.29c-0.4,6.21-0.8,12.42-1.2,18.63c2.17-2.17,4.35-4.35,6.52-6.52
					c-45.49,2.48-90.99,4.95-136.48,7.43c1.1,4.05,2.19,8.1,3.29,12.15c35.87-26.46,82.55-36.55,126.16-27.24
					c8.18,1.75,11.68-10.82,3.47-12.57c-46.83-10-97.53,0.03-136.2,28.56c-4.72,3.48-3.81,12.53,3.29,12.15
					c45.49-2.48,90.99-4.95,136.48-7.43c3.69-0.2,6.28-2.83,6.52-6.52c0.4-6.21,0.8-12.42,1.2-18.63
					C405.75,1586.91,392.71,1586.95,392.17,1595.29L392.17,1595.29z"/>
			</g>
		</g>
		<g>
			<path class="st9" d="M498.44,1587.32c0.75,8.1,1.51,16.2,2.26,24.3c42.93,2.56,86.18,0.03,128.47-7.5
				c-38.12-24.65-87.68-32.33-131.96-20.46"/>
			<g>
				<path class="st8" d="M491.92,1587.32c0.75,8.1,1.51,16.2,2.26,24.3c0.34,3.67,2.72,6.3,6.52,6.52
					c43.56,2.52,87.23-0.16,130.2-7.73c5.86-1.03,5.89-9.14,1.56-11.91c-40.22-25.71-90.89-33.22-136.98-21.11
					c-8.11,2.13-4.67,14.71,3.47,12.57c42.86-11.26,89.58-4.08,126.94,19.8c0.52-3.97,1.04-7.94,1.56-11.91
					c-41.81,7.37-84.36,9.72-126.73,7.27c2.17,2.17,4.35,4.35,6.52,6.52c-0.75-8.1-1.51-16.2-2.26-24.3
					C504.19,1579.04,491.14,1578.96,491.92,1587.32L491.92,1587.32z"/>
			</g>
		</g>
		<g>
			<g>
				<path class="st10" d="M253.43,759.56c2.76,10.34,9.07,18.74,17.76,24.87c2.33,1.65,5.98,0.9,7.9-1.02
					c2.22-2.22,2.16-5.19,1.02-7.9c-2.93-6.93-5.85-13.86-8.78-20.79c-0.88-2.07-3.55-3.18-5.63-3.23
					c-2.41-0.06-4.81-0.12-7.22-0.18c-8.39-0.21-8.39,12.83,0,13.04c2.41,0.06,4.81,0.12,7.22,0.18c-1.88-1.08-3.75-2.15-5.63-3.23
					c2.93,6.93,5.85,13.86,8.78,20.79c2.97-2.97,5.95-5.95,8.92-8.92c-5.88-4.15-9.92-10.16-11.76-17.08
					C263.84,748,251.26,751.43,253.43,759.56L253.43,759.56z"/>
			</g>
		</g>
		<g>
			<g>
				<path class="st10" d="M578.48,757.29c-0.82,3.64-1.64,7.27-2.46,10.91c-0.74,3.28,0.97,7.26,4.55,8.02
					c10.28,2.18,20.47-3.2,23.98-13.19c0.76-2.16-0.13-4.77-1.68-6.34c-4.75-4.82-12.37-6.75-18.72-4.12
					c-3.25,1.35-5.57,4.32-4.55,8.02c0.84,3.07,4.75,5.91,8.02,4.55c2.22-0.92,4.24-1.06,6.03,0.76c-0.56-2.11-1.12-4.23-1.68-6.34
					c-1.07,3.03-5.02,4.71-7.94,4.09c1.52,2.67,3.04,5.35,4.55,8.02c0.82-3.64,1.64-7.27,2.46-10.91
					C592.89,752.58,580.32,749.09,578.48,757.29L578.48,757.29z"/>
			</g>
		</g>
		<g>
			<path class="st10" d="M599.46,701.22c10.73,5.31,25.83-3.05,26.39-14.61c0.56-11.56-13.67-21.22-24.87-16.89
				c11.76-7.39,16.11-23.82,9.44-35.69c-6.66-11.87-23.37-17.44-36.28-12.11c10.61-11.05,10.25-30.12-0.76-40.8
				c-11.01-10.68-30.91-11.24-42.56-1.21c1.32-15.08-10.02-30.27-25.34-33.94s-32.79,4.63-39.02,18.53
				c-2.53-16.26-18-29.8-35.14-30.74c-17.13-0.94-34.11,10.81-38.57,26.69c-0.29-11.3-11.43-21.28-23.22-20.8
				s-22.01,11.32-21.3,22.61c-14.07-6.3-32.34-2.37-42.25,9.09c-9.91,11.46-10.54,29.39-1.46,41.47c-24-7.39-52.02,15.1-48.65,39.04
				c-7.19,6.89-14.21,14.53-16.87,23.93c-2.66,9.4,0.35,20.94,9.31,25.55c8.95,4.61,22.67-2.04,21.65-11.74
				c21.92-1.13,41.85-18.09,45.63-38.81c7.85,8.65,22.06,11.27,32.7,6.04c10.64-5.24,16.7-17.83,13.94-28.98
				c9.95,6.29,23.82,6.27,33.75-0.05c9.93-6.32,15.33-18.56,13.15-29.78c14.69,20.47,54.18,14.6,61.7-9.17
				c-1.91,10.35,4.42,21.56,14.5,25.7c10.08,4.14,22.91,0.78,29.41-7.68c-8.91,9.79-7.94,26.36,2.05,35.14
				c9.99,8.78,27.3,8.27,36.71-1.08c-0.9,25.7,18.98,50.7,45.08,56.68"/>
			<g>
				<path class="st10" d="M596.17,706.85c14.58,6.49,34.43-2.01,36.09-19.06c1.64-16.94-17.72-29.55-33.01-24.36
					c1.67,3.97,3.35,7.94,5.02,11.91c14.17-9.44,20.28-28.59,12.09-44.02c-8.03-15.14-28.23-21.69-43.95-15.69
					c2.11,3.63,4.23,7.26,6.34,10.9c12.64-13.86,13.02-36.65-0.76-50.02c-14.02-13.6-37.06-13.24-51.78-1.21
					c3.71,1.54,7.42,3.07,11.13,4.61c1.16-18.53-12.67-36.45-30.8-40.37c-17.8-3.84-37.76,5.03-45.7,21.68
					c3.97,0.52,7.94,1.04,11.91,1.56c-3.51-19.66-21.78-34.41-41.42-35.52c-19.88-1.12-39.1,12.57-44.85,31.48
					c4.27,0.58,8.54,1.16,12.8,1.73c-0.97-15.15-14.3-27.87-29.74-27.32c-15.19,0.54-28.19,13.87-27.82,29.13
					c3.27-1.88,6.54-3.75,9.81-5.63c-16.41-6.92-36.65-4.22-49.22,9.09c-12.75,13.51-14.19,35.3-3.4,50.39
					c2.45-3.19,4.91-6.38,7.36-9.58c-27.21-7.76-60.39,15.76-56.9,45.32c0.64-1.54,1.27-3.07,1.91-4.61
					c-7.81,7.54-15.57,16.09-18.54,26.81c-2.56,9.24-0.88,19.87,5.38,27.27c5.91,6.99,15.09,9.64,23.83,6.91
					c8.19-2.57,14.98-9.66,14.54-18.63c-2.17,2.17-4.35,4.35-6.52,6.52c24.37-1.64,47.02-19.11,51.91-43.59
					c-3.63,0.96-7.26,1.92-10.9,2.88c10.31,10.7,27.27,13.76,40.6,7.06c13.28-6.68,20.01-22.04,16.94-36.34
					c-3.19,2.45-6.38,4.91-9.58,7.36c12.57,7.47,29.37,7.6,41.55-0.87c11.81-8.22,17.25-22.3,14.93-36.33
					c-3.97,1.67-7.94,3.35-11.91,5.02c18.53,24.75,63.44,19.27,73.62-10.73c-4.19-1.16-8.38-2.31-12.57-3.47
					c-2.09,13.98,4.96,27.86,18.28,33.39c12.43,5.16,27.98,1.42,36.53-9.03c5.24-6.4-3.71-15.65-9.22-9.22
					c-10.82,12.63-10.85,32.95,2.05,44.36c12.91,11.43,33.51,10.56,45.93-1.08c-3.71-1.54-7.42-3.07-11.13-4.61
					c-0.6,29.54,21.53,56.07,49.87,62.97c8.15,1.98,11.63-10.58,3.47-12.57c-22.86-5.57-40.78-26.46-40.3-50.39
					c0.12-5.83-7.12-8.36-11.13-4.61c-7.2,6.75-19.79,7.49-27.49,1.08c-7.5-6.24-8.34-18.58-2.05-25.92
					c-3.07-3.07-6.15-6.15-9.22-9.22c-5.05,6.17-13.37,9.22-21.15,6.68c-7.38-2.41-13.05-10.46-11.87-18.36
					c1.22-8.15-9.81-11.59-12.57-3.47c-6.32,18.61-38.05,23.3-49.79,7.62c-4.47-5.97-13.16-2.47-11.91,5.02
					c3.45,20.79-21,32.18-37.32,22.47c-5.11-3.04-10.74,1.96-9.58,7.36c1.86,8.64-2.96,17.9-10.95,21.62
					c-8.31,3.88-18.58,1.45-24.8-5.02c-3.24-3.36-9.93-1.97-10.9,2.88c-3.72,18.62-20.45,32.75-39.34,34.02
					c-3.38,0.23-6.7,2.8-6.52,6.52c0.19,3.95-3.63,6.18-7.24,6.65c-5.09,0.66-9-3.07-10.61-7.63c-2.04-5.77-0.72-11.79,2.18-17
					c3.49-6.26,9.18-10.17,13.22-15.83c2.04-2.85,1.01-5.81,1.14-9.05c0.1-2.36,0.62-4.67,1.4-6.89c1.76-5.04,5.08-9.4,9-12.96
					c8.14-7.39,19.56-10.85,30.25-7.8c5.12,1.46,10.77-4.81,7.36-9.58c-7.37-10.3-7.63-25.04,1.37-34.59
					c8.19-8.69,22.39-11.71,33.42-7.05c4.29,1.81,9.94-0.18,9.81-5.63c-0.2-8.16,6.53-15.59,14.78-16.09
					c8.01-0.48,16.18,6.17,16.7,14.28c0.46,7.23,10.6,8.98,12.8,1.73c4.13-13.56,18.23-22.77,32.28-21.91
					c14.23,0.87,26.37,12.08,28.85,25.95c0.96,5.38,9.57,6.47,11.91,1.56c5.41-11.33,18.5-18.25,30.98-15.69
					c12.85,2.64,22.04,14.8,21.23,27.8c-0.39,6.18,7.14,7.87,11.13,4.61c9.21-7.52,24.75-7.07,33.35,1.21
					c8.58,8.27,8.7,22.88,0.76,31.58c-4.01,4.4-0.16,13.38,6.34,10.9c10-3.82,22.78-1.05,28.58,8.55c5.5,9.1,1.84,21.59-6.77,27.33
					c-5.82,3.88-2.35,14.42,5.02,11.91c6.7-2.28,17.37,2.26,16.61,10.6c-0.64,7.01-10.43,11.72-16.58,8.98
					C595.15,692.21,588.51,703.44,596.17,706.85L596.17,706.85z"/>
			</g>
		</g>
		<g>
			<g>
				<path d="M403.74,880.71c22.67,15.96,57.47,11.91,75.47-9.34c5.39-6.37-3.79-15.63-9.22-9.22c-14.52,17.14-41.41,20.15-59.67,7.3
					C403.44,864.62,396.92,875.92,403.74,880.71L403.74,880.71z"/>
			</g>
		</g>
		<g>
			<g>
				<path d="M396.81,867.31c-27.02,10.63-46.71,33.56-61.84,57.57c-18.81,29.82-31.96,63.24-42.55,96.75
					c-10.76,34.01-18.81,68.92-24.46,104.14c-4.33,27.03-7.97,54.75-7.2,82.18c0.22,7.64,0.5,15.95,3.12,23.22
					c4.25,11.83,18.29,13.29,29.46,14.25c6.17,0.53,12.4,0.38,18.59,0.37c8.39,0,8.4-13.04,0-13.04c-10.98,0-21.34,0.01-31.92-3.23
					c-1.45-0.45-2.91-0.9-4.34-1.41c-0.82-0.29,1.65,0.95,0.98,0.4c-0.92-0.77,1.48,1.38,0.38,0.29c-1.11-1.1,0.71,1.42,0.15,0.24
					c-0.22-0.47-0.52-0.97-0.79-1.42c-0.7-1.19,0.48,1.67-0.05-0.19c-0.17-0.59-0.38-1.16-0.55-1.75c-0.42-1.51-0.7-3.04-0.98-4.58
					c-0.07-0.4-0.13-0.8-0.19-1.2c-0.24-1.48,0.19,1.58,0,0.05c-0.11-0.9-0.21-1.8-0.3-2.7c-0.21-2.17-0.35-4.36-0.45-6.54
					c-1.11-24.81,1.87-49.99,5.55-74.48c5.04-33.58,12.34-66.88,21.97-99.45c9.59-32.44,21.44-64.55,38.11-94.07
					c14.21-25.16,34.04-52.3,60.75-62.81C407.99,876.85,404.63,864.24,396.81,867.31L396.81,867.31z"/>
			</g>
		</g>
		<g>
			<g>
				<path d="M322.3,1029.26c-8.23,52.78-16.6,105.96-16.89,159.51c-0.02,3.66,3.01,6.33,6.52,6.52
					c66.58,3.5,133.44,1.14,199.92-3.39c18.42-1.26,36.82-2.72,55.21-4.35c3.75-0.33,6.19-2.73,6.52-6.52
					c4.94-56.99-5.75-113.76-14.48-169.85c-1.29-8.27-13.85-4.76-12.57,3.47c8.56,54.98,18.86,110.52,14.02,166.38
					c2.17-2.17,4.35-4.35,6.52-6.52c-66.41,5.89-133.11,9.76-199.8,9.32c-18.45-0.12-36.9-0.61-55.32-1.58
					c2.17,2.17,4.35,4.35,6.52,6.52c0.28-52.4,8.37-104.39,16.42-156.04c0.55-3.51-0.9-6.97-4.55-8.02
					C327.23,1023.82,322.84,1025.78,322.3,1029.26L322.3,1029.26z"/>
			</g>
		</g>
		<g>
			<g>
				<path d="M479.45,875.53c-1.71-0.2,0.82,0.15,1.16,0.23c0.8,0.19,1.59,0.37,2.38,0.59c0.72,0.21,1.42,0.45,2.13,0.69
					c0.36,0.12,0.71,0.26,1.07,0.4c1.41,0.55-0.7-0.34,0.58,0.25c3.43,1.58,6.66,3.59,9.68,5.85c6.22,4.64,13.33,12.37,18.71,19.23
					c15.28,19.45,26.82,41.98,37.02,64.41c25.42,55.93,42.86,116.28,53.28,176.77c5.25,30.49,8.66,61.63,7.26,92.59
					c2.75-2.1,5.5-4.19,8.25-6.29c-2.6-1.06-6.15-0.6-8.88-0.43c-4.82,0.3-9.62,0.83-14.42,1.33c-8.67,0.89-18.1,2.72-26.82,1.6
					c-3.52-0.45-6.49,3.32-6.52,6.52c-0.04,3.89,3.04,6.07,6.52,6.52c8.35,1.08,17.37-0.63,25.67-1.48c4.6-0.47,9.2-0.97,13.81-1.32
					c1.82-0.14,3.66-0.28,5.49-0.28c0.57,0,1.13,0.01,1.69,0.03c1.44,0.06-1.4-0.48-0.01,0.08c4.15,1.69,8.08-2.51,8.25-6.29
					c1.28-28.35-1.57-56.8-5.89-84.8c-4.97-32.2-12.3-64.04-21.4-95.31c-8.89-30.57-19.52-60.67-32.35-89.82
					c-10.52-23.91-22.52-47.68-38.3-68.6c-11.98-15.88-27.47-33.06-48.37-35.52c-3.53-0.42-6.48,3.29-6.52,6.52
					C472.89,872.88,475.97,875.12,479.45,875.53L479.45,875.53z"/>
			</g>
		</g>
		<g>
			<g>
				<path d="M274.93,1237.75c-3.08,21.52,13.84,48.38,37,49.23c8.39,0.31,8.38-12.73,0-13.04c-13.89-0.51-26.29-19.72-24.43-32.73
					c0.5-3.51-0.87-6.96-4.55-8.02C279.9,1232.32,275.43,1234.27,274.93,1237.75L274.93,1237.75z"/>
			</g>
		</g>
		<g>
			<g>
				<path d="M311.66,1191.63c0.57,69.67,1.15,139.34,1.72,209.01c0.03,3.42,2.96,6.66,6.52,6.52c33.89-1.34,67.77-2.67,101.66-4.01
					c2.75-0.11,5.66-1.94,6.29-4.79c7.38-33.48,15.06-66.9,20.88-100.69c-4.19,0-8.38,0-12.57,0c6.35,33.16,14.32,66.17,17.49,99.84
					c0.32,3.36,2.73,6.72,6.52,6.52c36.03-1.88,72.13-1.28,108.17-3.16c3.4-0.18,6.68-2.84,6.52-6.52
					c-3.11-71.08-3.38-142.25-6.49-213.33c-0.37-8.36-13.4-8.4-13.04,0c3.11,71.08,3.38,142.25,6.49,213.33
					c2.17-2.17,4.35-4.35,6.52-6.52c-36.04,1.88-72.14,1.29-108.17,3.16c2.17,2.17,4.35,4.35,6.52,6.52
					c-3.28-34.85-11.38-68.99-17.95-103.3c-1.18-6.16-11.49-6.29-12.57,0c-5.81,33.8-13.5,67.22-20.88,100.69
					c2.1-1.6,4.19-3.19,6.29-4.79c-33.89,1.34-67.77,2.67-101.66,4.01c2.17,2.17,4.35,4.35,6.52,6.52
					c-0.57-69.67-1.15-139.34-1.72-209.01C324.63,1183.25,311.59,1183.23,311.66,1191.63L311.66,1191.63z"/>
			</g>
		</g>
		<g>
			<g>
				<path d="M569.49,1286.74c12.21,2.8,25.6,1.2,34.68-8.18c9.04-9.35,10.61-22.61,7.95-34.86c-1.78-8.19-14.35-4.73-12.57,3.47
					c1.66,7.63,1.06,16.27-4.6,22.18c-5.75,5.99-14.3,6.59-21.99,4.83C564.78,1272.3,561.3,1284.87,569.49,1286.74L569.49,1286.74z"
					/>
			</g>
		</g>
		<g>
			<g>
				<path d="M326.35,1400.13c6.17,59.46,15.12,118.59,21.29,178.05c0.86,8.26,13.9,8.35,13.04,0
					c-6.17-59.46-15.12-118.59-21.29-178.05C338.53,1391.87,325.48,1391.78,326.35,1400.13L326.35,1400.13z"/>
			</g>
		</g>
		<g>
			<g>
				<path d="M407.14,1402.14c-3.13,73.35-6.25,146.71-9.38,220.06c2.17-2.17,4.35-4.35,6.52-6.52c-23.76,2.49-47.56,4.64-71.44,5.58
					c-24.62,0.96-49.27,0.85-73.91,0.85c2.17,2.17,4.35,4.35,6.52,6.52c-0.67-18.33,14.66-27.4,30.82-32.02
					c22.13-6.33,45.94-6.52,68.77-5.72c12.33,0.43,24.65,1.36,36.92,2.59c8.34,0.84,8.28-12.2,0-13.04
					c-24.51-2.47-49.31-3.88-73.92-2.08c-21.58,1.58-47.12,4.97-63.65,20.4c-8.32,7.76-12.39,18.57-11.98,29.87
					c0.13,3.52,2.88,6.52,6.52,6.52c24.63,0,49.29,0.12,73.91-0.85c23.88-0.93,47.68-3.09,71.44-5.58c3.63-0.38,6.36-2.68,6.52-6.52
					c3.13-73.35,6.25-146.71,9.38-220.06C420.53,1393.75,407.49,1393.77,407.14,1402.14L407.14,1402.14z"/>
			</g>
		</g>
		<g>
			<g>
				<path d="M468.08,1402.14c4,62.78,10.41,125.67,18.5,188.05c1.1,8.47,1.94,17.15,3.83,25.5c0.89,3.93,3.01,6.95,6.38,9.16
					c7.82,5.12,19.6,3.26,28.32,2.68c38.07-2.54,76.05-6.74,114.06-10.03c4.63-0.4,6.89-3.82,6.29-8.25
					c-2.59-18.92-21.87-29.22-38.2-34.61c-22.61-7.46-47.45-9.1-71.11-8.29c-13.67,0.47-27.36,1.94-40.77,4.67
					c-8.21,1.68-4.74,14.25,3.47,12.57c21.5-4.39,43.84-5.3,65.7-3.66c19.05,1.43,40.37,4.58,56.58,15.44
					c6.42,4.3,10.74,9.82,11.77,17.34c2.1-2.75,4.19-5.5,6.29-8.25c-35.34,3.06-70.65,6.62-106.01,9.43
					c-7.13,0.57-14.31,1.19-21.47,1.14c-1.1-0.01-2.2-0.03-3.29-0.1c-0.42-0.03-0.85-0.08-1.27-0.1c-1.74-0.06,0.3,0.08,0.1,0.04
					c-0.69-0.15-1.4-0.3-2.1-0.43c-1.33-0.25-1.62-0.92-0.28,0c-0.42-0.29-0.96-0.42-1.35-0.77c-0.8-0.72,1.13,1.51,0-0.07
					c-0.22-0.3-0.7-0.87-1.01-1.06c0,0,1.1,2.98,0.87,1.24c-0.86-6.44-2.43-13.76-3.21-19.56c-3.89-28.99-6.92-58.11-9.87-87.22
					c-3.54-34.9-6.94-69.85-9.16-104.86C480.59,1393.81,467.55,1393.75,468.08,1402.14L468.08,1402.14z"/>
			</g>
		</g>
		<g>
			<g>
				<path d="M547.71,1566.73c-0.3-56.29,7.68-112.27,7.38-168.55c-0.04-8.39-13.08-8.4-13.04,0c0.3,56.29-7.68,112.27-7.38,168.55
					C534.72,1575.12,547.75,1575.13,547.71,1566.73L547.71,1566.73z"/>
			</g>
		</g>
		<g>
			<g>
				<path d="M368.14,786.19c14.19,18.23,38.14,28.63,61.17,26.8c22.77-1.81,43.94-14.46,55.77-34.08c4.34-7.2-6.92-13.76-11.26-6.58
					c-9.63,15.96-27.36,26.68-46.02,27.72c-19.55,1.09-38.45-7.68-50.44-23.09C372.22,770.35,363.05,779.64,368.14,786.19
					L368.14,786.19z"/>
			</g>
		</g>
		<g>
			<g>
				<path d="M394.57,852.36c0.58,5.55,1.16,11.11,1.74,16.66c0.37,3.5,2.73,6.52,6.52,6.52c3.24,0,6.89-3,6.52-6.52
					c-0.58-5.55-1.16-11.11-1.74-16.66c-0.37-3.5-2.73-6.52-6.52-6.52C397.85,845.84,394.2,848.83,394.57,852.36L394.57,852.36z"/>
			</g>
		</g>
		<g>
			<g>
				<path d="M464.1,847.36c0.58,7.22,1.16,14.44,1.74,21.65c0.67,8.31,13.71,8.38,13.04,0c-0.58-7.22-1.16-14.44-1.74-21.65
					C476.47,839.05,463.43,838.98,464.1,847.36L464.1,847.36z"/>
			</g>
		</g>
		<g>
			<g>
				<path d="M271.27,701.32c-16.43-0.74-35.77,5.08-39.93,23.13c-2.44,10.59,0.21,20.74,9.31,27.12c8.72,6.12,19.96,6.9,29.6,2.77
					c7.69-3.29,1.06-14.53-6.58-11.26c-5.16,2.21-12.2,0.6-16.47-2.8c-4.8-3.82-4.59-10.79-2.1-15.97
					c4.45-9.27,17.18-10.36,26.18-9.96C279.66,714.74,279.64,701.7,271.27,701.32L271.27,701.32z"/>
			</g>
		</g>
		<g>
			<g>
				<path d="M594.46,718.59c4.36-1.72,8.79-0.63,11.83,3.07c2.99,3.65,2.63,8.88,1.29,13.17c-2.34,7.52-10.05,7.65-16.79,6.68
					c-3.51-0.51-6.96,0.87-8.02,4.55c-0.88,3.05,1.07,7.52,4.55,8.02c7.23,1.04,14.8,1.52,21.57-1.77
					c6.44-3.14,10.48-9.43,11.81-16.36c1.67-8.68,0.77-17.39-5.63-23.97c-6.15-6.31-15.69-9.29-24.08-5.97
					C583.28,709.07,586.64,721.69,594.46,718.59L594.46,718.59z"/>
			</g>
		</g>
		<g>
			<g>
				<path d="M419.73,720.63c-11.73-0.73-22.23,11.71-17.58,23.05c4.03,9.83,17.44,13.71,26.23,7.86c6.95-4.63,0.43-15.92-6.58-11.26
					c-2.1,1.4-6.15,1.56-7.5-1.27c-1.53-3.19,2.81-5.51,5.43-5.35C428.1,734.19,428.07,721.15,419.73,720.63L419.73,720.63z"/>
			</g>
		</g>
		<g>
			<g>
				<path d="M274.31,702.48c23.32-0.13,45.76-16.52,50.7-39.75c-3.19,1.3-6.38,2.6-9.58,3.9c11.75,8.62,29.21,9.43,41.46,1.31
					c12.34-8.18,18.24-23.36,14.62-37.7c-3.63,2.11-7.26,4.23-10.9,6.34c9.94,11.93,27.86,15.59,41.87,9.18
					c14.45-6.61,22.07-23.51,18.16-38.73c-3.97,1.67-7.94,3.35-11.91,5.02c9.22,12.35,24.28,18.66,39.58,15.95
					c14.63-2.59,26.96-14.47,30.27-28.9c1.92-8.39-9.45-11.05-12.57-3.47c-5.39,13.07,1.09,29.26,13.73,35.41
					c13.35,6.5,29.53,1.72,37.99-10.14c4.33-6.06-5.21-13.21-10.24-7.9c-11.96,12.65-11.31,34.22,2.64,45.25
					c13.22,10.46,34.75,8.34,45.4-4.88c-3.41-2.63-6.83-5.27-10.24-7.9c-12.07,27.46,17.23,59.62,43.76,62.93
					c3.52,0.44,6.49-3.31,6.52-6.52c0.04-3.88-3.04-6.08-6.52-6.52c-10.07-1.26-19.33-9.1-25.31-16.84
					c-5.25-6.8-11.04-17.73-7.2-26.48c1.32-3.01,1.09-6.27-1.68-8.41c-2.34-1.81-6.52-2.03-8.56,0.51
					c-6.33,7.86-18.84,10.58-27.39,4.47c-8.42-6.02-9.18-19.04-2.21-26.4c-3.41-2.63-6.83-5.27-10.24-7.9
					c-4.57,6.4-14.47,8.51-21.34,4.86c-7.32-3.89-9.57-12.76-6.55-20.08c-4.19-1.16-8.38-2.31-12.57-3.47
					c-4.76,20.76-33.04,27.23-46.02,9.84c-4.21-5.64-13.88-2.61-11.91,5.02c2.46,9.55-2.77,20.21-12.03,23.92
					c-9.27,3.71-19.96,0.46-26.21-7.05c-4.37-5.25-12.38,0.45-10.9,6.34c2.29,9.07-1.74,18.97-9.86,23.74
					c-8.58,5.04-19.26,3.65-27.08-2.08c-3.31-2.43-8.76,0.07-9.58,3.9c-3.75,17.65-20.28,30.09-38.13,30.18
					C265.92,689.49,265.9,702.53,274.31,702.48L274.31,702.48z"/>
			</g>
		</g>
		<ellipse class="st11" cx="373.54" cy="717.21" rx="9.77" ry="20.24"/>
		<ellipse class="st11" cx="462.59" cy="717.21" rx="9.77" ry="20.24"/>
		<g>
			<g>
				<path d="M243.26,756.75c1.33,18.28,15.82,31.84,33.69,33.93c8.32,0.97,8.25-12.07,0-13.04c-10.43-1.22-19.88-10.3-20.65-20.89
					C255.69,748.43,242.65,748.36,243.26,756.75L243.26,756.75z"/>
			</g>
		</g>
		<g>
			<g>
				<path d="M578.85,784.6c17.89-2.34,32.08-15.58,33.97-33.81c0.86-8.34-12.18-8.28-13.04,0c-1.08,10.46-10.65,19.43-20.93,20.77
					c-3.52,0.46-6.48,2.67-6.52,6.52C572.3,781.26,575.36,785.06,578.85,784.6L578.85,784.6z"/>
			</g>
		</g>
		<g>
			<g>
				<path d="M245.98,699.24c-14.71-10.38-8.83-36.43,7.65-41.43c3.11-0.94,5.86-4.66,4.55-8.02c-3.91-10.01-1.88-21.53,6.39-28.79
					c8.07-7.08,19.62-8.19,29.42-4.49c5.97,2.26,9.35-4.99,7.36-9.58c-9.44-21.82,15.34-47.56,37.29-43.93
					c4.34,0.72,7.96-1.74,8.25-6.29c0.6-9.38,8.86-17.43,18.09-18.57c10.09-1.25,20.19,5.75,22.78,15.45
					c1.72,6.43,10.63,5.96,12.57,0c4.13-12.7,17.49-21.23,30.72-20.39c12.86,0.82,24.26,10.41,27.28,22.87
					c1.35,5.55,9.11,6.24,11.91,1.56c6.75-11.28,21.13-17.6,34.05-14.72c13.28,2.97,23.76,14.89,24.06,28.62
					c0.1,4.48,5.64,8.73,9.81,5.63c10.02-7.46,25.2-7.92,34.73,0.81c8.98,8.23,9.83,23.34,1.98,32.62
					c-3.79,4.48-0.33,13.33,6.34,10.9c9.57-3.5,21.55-1.25,27.8,7.34c6.35,8.72,4.02,20.81-3.59,27.86
					c-4.5,4.17-0.64,10.63,4.61,11.13c9.92,0.93,19.34,9.75,19.28,20.02c-0.05,10.83-9.66,18.65-19.69,20.06
					c-3.51,0.49-5.37,4.93-4.55,8.02c0.99,3.76,4.55,5.04,8.02,4.55c16.05-2.26,30.15-17.36,29.23-33.98
					c-0.95-17.27-15.63-30.14-32.29-31.71c1.54,3.71,3.07,7.42,4.61,11.13c11.81-10.94,14.92-30.28,5.53-43.78
					c-9.2-13.23-27.34-18.72-42.43-13.21c2.11,3.63,4.23,7.26,6.34,10.9c12.12-14.31,12.35-36.36-1-50.1
					c-13.11-13.49-36.53-14.94-51.5-3.8c3.27,1.88,6.54,3.75,9.81,5.63c-0.43-19.29-14.69-36.96-33.64-41.19
					c-18.65-4.17-38.94,4.28-48.77,20.71c3.97,0.52,7.94,1.04,11.91,1.56c-4.4-18.17-21.36-31.41-39.85-32.44
					c-19.15-1.07-37.42,11.9-43.29,29.96c4.19,0,8.38,0,12.57,0c-4.22-15.8-20.48-26.82-36.74-24.85
					c-16.04,1.93-28.71,15.37-29.74,31.44c2.75-2.1,5.5-4.19,8.25-6.29c-33.84-5.6-66.16,30.35-52.01,63.08
					c2.45-3.19,4.91-6.38,7.36-9.58c-14.13-5.34-30.86-2.26-42.1,7.85c-11.32,10.17-15.25,27.36-9.75,41.47
					c1.52-2.67,3.04-5.35,4.55-8.02c-27.85,8.46-34.58,48.46-10.76,65.26C246.27,715.34,252.79,704.04,245.98,699.24L245.98,699.24z
					"/>
			</g>
		</g>
		<g>
			<g>
				<path d="M269.26,695.96c-1.71,25.61-7.35,52.52,2.15,78.02c13.19,35.39,45.28,62.22,81.52,71.47
					c19.4,4.95,39.66,5.94,59.61,5.69c18.75-0.23,37.54-1.22,56.13-3.76c34.09-4.66,70.46-15.76,93.42-43.03
					c11.6-13.78,18.27-31.55,23.22-48.64c5.03-17.39,8.48-35.67,8.79-53.81c0.11-6.5-9.98-6.5-10.09,0
					c-0.26,14.88-2.84,29.71-6.52,44.11c-3.87,15.13-8.99,30.36-17.23,43.72c-17.3,28.03-51.41,40.44-82.26,46.04
					c-16.95,3.08-34.2,4.3-51.4,4.93c-18.83,0.69-37.92,0.88-56.59-2.04c-18.02-2.83-35.43-8.59-50.4-19.23
					c-14.54-10.35-26.94-24.2-34.97-40.17c-13.54-26.93-7.13-55.62-5.29-83.28C279.79,689.48,269.69,689.51,269.26,695.96
					L269.26,695.96z"/>
			</g>
		</g>
		<g class="st12">
			<path d="M407.84,868.96c19.81-7.71,39.62-15.43,59.43-23.14c-19.56,5.26-40.23,6.68-60.37,4.17c1.01,5.32,2.02,10.64,3.03,15.96"
				/>
			<g>
				<path d="M409.58,875.24c19.81-7.71,39.62-15.43,59.43-23.14c7.65-2.98,4.84-14.75-3.47-12.57c-19.22,5.04-38.91,6.27-58.63,3.93
					c-4.55-0.54-6.98,4.57-6.29,8.25c1.01,5.32,2.02,10.64,3.03,15.96c1.56,8.23,14.13,4.75,12.57-3.47
					c-1.01-5.32-2.02-10.64-3.03-15.96c-2.1,2.75-4.19,5.5-6.29,8.25c20.8,2.47,41.84,0.91,62.1-4.4
					c-1.16-4.19-2.31-8.38-3.47-12.57c-19.81,7.71-39.62,15.43-59.43,23.14C398.38,865.68,401.74,878.29,409.58,875.24
					L409.58,875.24z"/>
			</g>
		</g>
		<g class="st12">
			<path d="M275.52,707.31c-1.47,37.26,21.75,73.04,54.28,93.5c32.52,20.47,73.02,26.98,111.82,24.22
				c38.8-2.75,76.36-14.16,112.83-27.16c-35.72,36.64-93.72,41.1-146,43.15c-27.9,1.1-57.43,1.84-81.81-11.19
				c-20.21-10.81-34.34-30.05-42.88-50.66c-8.54-20.61-12.06-42.76-15.51-64.69"/>
			<g>
				<path d="M269,707.31c-1.32,43.08,26.77,81.93,63.24,102.55c42.01,23.75,92.44,25.99,139.06,18.04
					c29.03-4.95,57.19-13.9,84.88-23.75c-2.11-3.63-4.23-7.26-6.34-10.9c-31.6,31.95-79.44,37.86-122.15,40.34
					c-23.8,1.38-48.78,3.53-72.36-0.9c-23.76-4.46-43.05-17.39-56.07-37.78c-15.68-24.55-20.26-53.9-24.72-82.16
					c-1.3-8.26-13.87-4.76-12.57,3.47c4.33,27.44,8.99,55.5,22.86,80c12.37,21.84,31.38,38.89,55.6,46.27
					c25.07,7.64,52.17,5.84,77.99,4.63c24.03-1.13,48.26-3.02,71.73-8.59c25.61-6.07,50.21-17.13,68.92-36.05
					c4.35-4.4,0-13.15-6.34-10.9c-44.88,15.96-91.79,29.8-139.94,27.21c-41.44-2.23-83.91-17.39-110.02-51.08
					c-13.38-17.27-21.39-38.44-20.72-60.4C282.3,698.91,269.26,698.92,269,707.31L269,707.31z"/>
			</g>
		</g>
		<g class="st12">
			<path d="M247.88,721.25c2.43,9.84,11.69,17.79,22.17,19.02c-5.36,4.22-13.67,4.55-19.37,0.77c-5.71-3.78-8.33-11.33-6.12-17.63"
				/>
			<g>
				<path d="M241.59,722.98c3.45,12.29,14.06,21.71,26.72,23.58c-0.52-3.97-1.04-7.94-1.56-11.91c-7.46,5.28-18.91,0.57-15.92-9.5
					c2.39-8.06-10.19-11.5-12.57-3.47c-6.08,20.49,18.03,36.28,35.07,24.22c3.98-2.82,4.55-11.01-1.56-11.91
					c-8.28-1.22-15.29-6.19-17.62-14.47C251.9,711.45,239.32,714.88,241.59,722.98L241.59,722.98z"/>
			</g>
		</g>
		<g class="st12">
			<path d="M258.17,757.47c0.79,7.46,5.56,14.44,12.38,18.12"/>
			<g>
				<path d="M251.65,757.47c1.33,10.1,6.65,18.64,15.61,23.74c7.3,4.16,13.88-7.1,6.58-11.26c-4.57-2.6-8.44-7.09-9.15-12.49
					c-0.46-3.49-2.67-6.52-6.52-6.52C255,750.95,251.19,753.96,251.65,757.47L251.65,757.47z"/>
			</g>
		</g>
		<g class="st12">
			<path d="M581.8,761.51c-1.75,3.68-3.49,7.36-5.24,11.05"/>
			<g>
				<path d="M576.17,758.22c-1.75,3.68-3.49,7.36-5.24,11.05c-1.51,3.18-0.88,7.03,2.34,8.92c2.84,1.66,7.4,0.86,8.92-2.34
					c1.75-3.68,3.49-7.36,5.24-11.05c1.51-3.18,0.88-7.03-2.34-8.92C582.26,754.22,577.69,755.02,576.17,758.22L576.17,758.22z"/>
			</g>
		</g>
		<g class="st12">
			<path d="M387.72,551.2c-57.55,18.52-102.77,68.48-113.78,125.69c-1.95,10.15-4.5,22.47-14.67,25.87
				c-11.24,3.75-22.86-8.47-21.76-19.82c1.1-11.35,10.59-20.34,20.73-26.31c-4.69-9.46-2.83-21.54,4.5-29.3
				c7.33-7.76,19.69-10.74,29.98-7.21c-0.94-28.51,24.64-55.44,54.35-57.22c-0.47-10.24,7.1-20.31,17.38-23.13
				c10.28-2.82,22.27,1.9,27.51,10.83"/>
			<g>
				<path d="M385.99,544.91c-33.73,11.03-63.79,32.05-85.63,60.04c-10.64,13.64-19.22,28.6-25.41,44.76
					c-3.08,8.03-5.47,16.3-7.15,24.74c-1.31,6.57-2.19,16.39-8.03,20.76c-7.04,5.27-15.46-3.08-15.79-10.3
					c-0.48-10.15,9.87-18.01,17.55-22.65c3.23-1.95,3.83-5.67,2.34-8.92c-8-17.45,10.94-31.97,27.11-26.94
					c4.01,1.25,8.33-2.15,8.25-6.29c-0.47-26.06,22.22-48.82,47.83-50.71c3.49-0.26,6.56-2.78,6.52-6.52
					c-0.19-17.63,23.59-23.48,32.75-9.01c4.48,7.07,15.76,0.54,11.26-6.58c-7.17-11.32-21.08-17.15-34.2-13.99
					c-13.35,3.22-22.99,15.96-22.84,29.58c2.17-2.17,4.35-4.35,6.52-6.52c-32.54,2.4-61.47,30.25-60.87,63.74
					c2.75-2.1,5.5-4.19,8.25-6.29c-12.67-3.95-27.81-0.67-36.8,9.43c-9.1,10.22-10.66,24.39-5.04,36.66
					c0.78-2.97,1.56-5.95,2.34-8.92c-16.31,9.86-32.72,30.16-18.63,48.83c5.81,7.7,15.78,12.37,25.29,8.98
					c9.04-3.22,13.84-11.59,16.39-20.37c2.6-8.96,3.8-18.22,6.66-27.14c2.9-9.05,6.69-17.76,11.26-26.1
					c9.41-17.19,21.89-32.48,36.63-45.36c16.55-14.46,36.01-25.52,56.89-32.34C397.4,554.89,394,542.29,385.99,544.91L385.99,544.91
					z"/>
			</g>
		</g>
		<g class="st12">
			<path d="M396.66,881.34c-92.2,89.43-129.39,227.48-93.9,348.5c-9.34-0.52-18.68-1.05-28.02-1.57
				c-7.9-125.59,39.22-253.53,127.64-346.54"/>
			<g>
				<path d="M392.05,876.73c-72.06,70.22-112.37,170.9-108.87,271.46c0.98,28.2,5.42,56.29,13.29,83.38c2.1-2.75,4.19-5.5,6.29-8.25
					c-9.34-0.52-18.68-1.05-28.02-1.57c2.17,2.17,4.35,4.35,6.52,6.52c-5.94-97.24,21.04-194.93,74.07-276.48
					c15.19-23.36,32.5-45.23,51.66-65.45c5.77-6.09-3.43-15.33-9.22-9.22c-69.23,73.08-114.11,167.62-126.82,267.48
					c-3.53,27.74-4.44,55.76-2.73,83.67c0.22,3.67,2.81,6.31,6.52,6.52c9.34,0.52,18.68,1.05,28.02,1.57
					c4.23,0.24,7.42-4.36,6.29-8.25c-27.11-93.25-10.63-196.02,40.57-278.09c14.58-23.38,31.93-44.84,51.66-64.06
					C407.28,880.08,398.06,870.87,392.05,876.73L392.05,876.73z"/>
			</g>
		</g>
		<g class="st12">
			<path d="M333.71,1037.84c-3.94,48.09,33.84,92.13,79.28,112.9c45.44,20.77,97.31,23.23,147.6,25.34
				c-79.67,5.45-159.61,7.42-239.47,5.91c-5.62-45.35-4.25-91.49,4.08-136.45"/>
			<g>
				<path d="M327.19,1037.84c-2.69,36.69,17.24,70.77,44.42,94.04c31.84,27.27,72.51,39.49,113.41,45.06
					c25.06,3.41,50.32,4.6,75.57,5.66c0-4.35,0-8.69,0-13.04c-79.7,5.42-159.6,7.39-239.47,5.91c2.17,2.17,4.35,4.35,6.52,6.52
					c-5.46-44.82-4.28-90.29,3.84-134.72c1.5-8.2-11.06-11.72-12.57-3.47c-8.34,45.6-9.92,92.15-4.31,138.19
					c0.43,3.55,2.64,6.45,6.52,6.52c79.87,1.48,159.77-0.49,239.47-5.91c8.33-0.57,8.45-12.68,0-13.04
					c-73.43-3.08-165.42-8.16-207.4-79.23c-9.44-15.98-14.32-33.91-12.95-52.5C340.85,1029.47,327.81,1029.51,327.19,1037.84
					L327.19,1037.84z"/>
			</g>
		</g>
		<g class="st12">
			<path d="M559.57,1022.53c2.01,72.45,17.51,144.54,45.55,211.85c-10.78-1.84-21.56-3.69-32.34-5.53
				c-4.92-65.41-9.85-130.82-14.77-196.22"/>
			<g>
				<path d="M553.05,1022.53c2.15,73.28,17.7,145.87,45.78,213.59c2.67-2.67,5.35-5.35,8.02-8.02c-10.78-1.84-21.56-3.69-32.34-5.53
					c1.6,2.1,3.19,4.19,4.79,6.29c-4.92-65.41-9.85-130.82-14.77-196.22c-0.63-8.31-13.67-8.38-13.04,0
					c4.92,65.41,9.85,130.82,14.77,196.22c0.2,2.64,1.86,5.79,4.79,6.29c10.78,1.84,21.56,3.69,32.34,5.53
					c4.25,0.73,10.13-2.93,8.02-8.02c-27.65-66.67-43.2-137.95-45.32-210.12C565.84,1014.16,552.8,1014.12,553.05,1022.53
					L553.05,1022.53z"/>
			</g>
		</g>
		<g class="st12">
			<path d="M331.9,1205.81c15.82,65.48,44.93,127.99,85.21,183.01c-29.76-4.45-60.22-4.56-90.02-0.34
				c-0.49-60.91-0.98-121.82-1.48-182.73"/>
			<g>
				<path d="M325.62,1207.54c16.17,66.43,45.59,129.36,85.87,184.57c2.45-3.19,4.91-6.38,7.36-9.58
					c-31.12-4.55-62.33-4.65-93.48-0.34c2.75,2.1,5.5,4.19,8.25,6.29c-0.49-60.91-0.98-121.82-1.48-182.73
					c-0.07-8.39-13.11-8.41-13.04,0c0.49,60.91,0.98,121.82,1.48,182.73c0.04,4.67,4.11,6.86,8.25,6.29
					c28.63-3.97,57.95-3.85,86.55,0.34c4.88,0.71,11.13-4.41,7.36-9.58c-39.69-54.39-68.62-116.01-84.56-181.46
					C336.2,1195.93,323.63,1199.38,325.62,1207.54L325.62,1207.54z"/>
			</g>
		</g>
		<g class="st12">
			<path d="M339.6,1407.74c9.13,57.4,39.98,116.32,58.06,169.86c-13.16-0.57-26.33-1.15-39.49-1.72
				C356.83,1525.5,340.94,1458.11,339.6,1407.74"/>
			<g>
				<path d="M334.15,1409.24c9.68,59.51,38.84,113.28,58.06,169.86c1.82-2.39,3.64-4.77,5.45-7.16
					c-13.16-0.57-26.33-1.15-39.49-1.72c1.88,1.88,3.77,3.77,5.65,5.65c-1.65-56.48-16.92-111.66-18.57-168.14
					c-0.21-7.26-11.52-7.29-11.31,0c1.65,56.48,16.92,111.66,18.57,168.14c0.09,3.16,2.52,5.52,5.65,5.65
					c13.16,0.57,26.33,1.15,39.49,1.72c3.53,0.15,6.61-3.76,5.45-7.16c-19.22-56.58-48.38-110.35-58.06-169.86
					C343.89,1399.07,332.99,1402.11,334.15,1409.24L334.15,1409.24z"/>
			</g>
		</g>
		<g class="st12">
			<path d="M481.2,1405.65c12.7,58.06,26.69,111.07,59.99,161.09c-18.21-4.54-27.49-3.15-46.21-1.38
				c-9.83-48.45-14.94-97.79-15.23-147.15"/>
			<g>
				<path d="M474.91,1407.38c12.49,56.97,28.13,113.48,60.65,162.64c2.45-3.19,4.91-6.38,7.36-9.58
					c-16.24-3.94-31.47-3.19-47.94-1.61c2.1,1.6,4.19,3.19,6.29,4.79c-9.65-47.89-14.64-96.56-15-145.42
					c-0.06-8.39-13.1-8.4-13.04,0c0.36,49.99,5.59,99.87,15.47,148.88c0.52,2.56,3.61,5.04,6.29,4.79
					c15.25-1.46,29.44-2.5,44.48,1.14c5.22,1.27,10.64-4.63,7.36-9.58c-31.94-48.28-47.07-103.59-59.33-159.53
					C485.69,1395.72,473.12,1399.19,474.91,1407.38L474.91,1407.38z"/>
			</g>
		</g>
		<g class="st12">
			<path d="M296.38,1596.43c27.36,19.98,62.96,29.27,97.12,25.35c-43.19,0.79-86.38,1.57-129.57,2.36
				c8.28-11.24,18.95-20.86,31.17-28.1"/>
			<g>
				<path d="M293.09,1602.06c28.76,20.72,65.21,30.06,100.41,26.24c8.14-0.88,8.58-13.19,0-13.04
					c-43.19,0.79-86.38,1.57-129.57,2.36c1.88,3.27,3.75,6.54,5.63,9.81c7.82-10.43,17.7-19.04,28.83-25.76
					c7.18-4.33,0.63-15.61-6.58-11.26c-13.15,7.94-24.3,18.16-33.51,30.44c-3.03,4.04,1.08,9.89,5.63,9.81
					c43.19-0.79,86.38-1.57,129.57-2.36c0-4.35,0-8.69,0-13.04c-33.23,3.6-66.66-4.89-93.83-24.46
					C292.85,1585.89,286.34,1597.19,293.09,1602.06L293.09,1602.06z"/>
			</g>
		</g>
		<g class="st12">
			<path d="M506.81,1586.02c37.76,16.18,79.72,23.25,120.97,20.39c-27.68,3.46-55.35,6.93-83.03,10.39
				c-11.36,1.42-23.59,2.7-33.65-2.55s-15.37-19.86-7.06-27.42"/>
			<g>
				<path d="M503.52,1591.64c39.21,16.63,81.72,24.08,124.26,21.28c0-4.35,0-8.69,0-13.04c-26.36,3.3-52.72,6.6-79.08,9.9
					c-10.68,1.34-23.36,3.95-33.56-0.8c-5.86-2.73-12.25-11.79-6.5-17.54c5.94-5.94-3.27-15.16-9.22-9.22
					c-8.01,8.01-7.33,20.25-1.05,29.12c7.78,11,21.51,13.72,34.25,13.13c15.26-0.7,30.58-3.48,45.72-5.37
					c16.47-2.06,32.95-4.12,49.42-6.18c8.09-1.01,8.55-13.6,0-13.04c-40.1,2.64-80.64-3.79-117.68-19.5
					c-3.26-1.38-6.95-0.95-8.92,2.34C499.55,1585.45,500.28,1590.27,503.52,1591.64L503.52,1591.64z"/>
			</g>
		</g>
		<g class="st12">
			<path d="M449.82,1300.59c24.98,40.55,66.74,71.31,114.06,84.02c-27.97,2.47-55.94,4.93-83.91,7.4
				c-6.52,0.57-13.85,0.91-18.76-3.23c-4.44-3.74-5.39-9.91-6.06-15.54c-2.53-21.22-5.06-42.45-7.59-63.67"/>
			<g>
				<path d="M444.19,1303.88c26.57,42.72,69.53,73.8,117.95,87.01c0.58-4.27,1.16-8.54,1.73-12.8c-15.61,1.38-31.22,2.75-46.83,4.13
					c-7.48,0.66-14.96,1.32-22.44,1.98c-7.12,0.63-14.4,1.75-21.56,1.62c-6.2-0.11-9.4-2.55-10.73-8.62
					c-1.52-6.95-1.88-14.27-2.72-21.33c-1.84-15.43-3.68-30.87-5.52-46.3c-0.42-3.52-2.7-6.48-6.52-6.52
					c-3.2-0.03-6.94,3.02-6.52,6.52c2.07,17.36,4.14,34.73,6.21,52.09c1.59,13.35,1.34,30.72,16.66,35.84
					c7.01,2.35,14.73,1.14,21.91,0.51c8.46-0.75,16.91-1.49,25.37-2.24c17.56-1.55,35.12-3.1,52.69-4.65
					c7.01-0.62,9.23-10.76,1.73-12.8c-45.17-12.33-85.36-41.14-110.16-81.02C451.03,1290.19,439.74,1296.73,444.19,1303.88
					L444.19,1303.88z"/>
			</g>
		</g>
		<g class="st12">
			<path d="M572.18,1249.49c6.26,9.64,15.26,17.63,25.76,22.88c-7.04,4.47-15.99,6.1-24.25,4.39c-0.94-9.09-1.88-18.18-2.82-27.28"
				/>
			<g>
				<path d="M566.55,1252.78c7.14,10.7,16.65,19.32,28.1,25.22c0-3.75,0-7.5,0-11.26c-5.84,3.5-12.48,4.95-19.23,3.73
					c1.6,2.1,3.19,4.19,4.79,6.29c-0.94-9.09-1.88-18.18-2.82-27.28c-0.85-8.26-13.9-8.35-13.04,0c0.94,9.09,1.88,18.18,2.82,27.28
					c0.28,2.66,1.81,5.75,4.79,6.29c10.23,1.85,20.3,0.34,29.27-5.05c4.01-2.41,4.46-8.96,0-11.26
					c-9.46-4.87-17.5-11.66-23.43-20.54C573.17,1239.25,561.87,1245.77,566.55,1252.78L566.55,1252.78z"/>
			</g>
		</g>
		<g class="st12">
			<path d="M293.07,1250.73c8.85,6.04,17.71,12.08,26.56,18.12c-3.75,6.93-15.18,6.44-21,0.98c-5.82-5.46-7.51-13.69-8.92-21.38"/>
			<g>
				<path d="M289.78,1256.36c8.85,6.04,17.71,12.08,26.56,18.12c-0.78-2.97-1.56-5.95-2.34-8.92c-2.19,3.51-8.18,1.82-10.76-0.34
					c-5.09-4.25-6.12-12.43-7.24-18.51c-1.52-8.24-14.09-4.75-12.57,3.47c1.96,10.58,5.28,22.66,15.76,27.84
					c8.96,4.42,20.53,3,26.07-5.88c1.96-3.14,0.51-6.98-2.34-8.92c-8.85-6.04-17.71-12.08-26.56-18.12
					C289.41,1240.37,282.88,1251.66,289.78,1256.36L289.78,1256.36z"/>
			</g>
		</g>
		<g class="st13">
			<g>
				<path class="st14" d="M509.09,598.09c31.16,12.36,58.19,39.47,69.54,70.82c2.4,6.62,8.87,11.08,16.04,9.11
					c6.39-1.76,11.51-9.38,9.11-16.04c-14.92-41.23-47.19-72.94-87.75-89.03c-6.55-2.6-14.32,2.84-16.04,9.11
					C497.95,589.46,502.52,595.48,509.09,598.09L509.09,598.09z"/>
			</g>
		</g>
		<g class="st13">
			<g>
				<path class="st14" d="M546.35,720.16c4.03,12.58,2.16,24.59-5.69,35.86c-4.03,5.78-1.06,14.48,4.68,17.84
					c6.49,3.8,13.8,1.12,17.84-4.68c11.21-16.1,14.3-37.29,8.32-55.95c-2.15-6.7-9.05-11.03-16.04-9.11
					C548.87,705.94,544.19,713.43,546.35,720.16L546.35,720.16z"/>
			</g>
		</g>
		<g class="st13">
			<g>
				<path class="st14" d="M473.16,913.27c19.88,14.94,36.45,36.36,45.55,59.14c2.61,6.53,8.71,11.12,16.04,9.11
					c6.21-1.71,11.73-9.46,9.11-16.04c-12.03-30.12-31.63-55.26-57.53-74.72c-5.63-4.23-14.57-0.91-17.84,4.68
					C464.59,902.11,467.52,909.03,473.16,913.27L473.16,913.27z"/>
			</g>
		</g>
		<g class="st13">
			<g>
				<path class="st14" d="M566.26,1079.2c5.67,21.59,11.33,43.18,17,64.78c4.26,16.22,29.41,9.34,25.14-6.93
					c-5.67-21.59-11.33-43.18-17-64.78C587.14,1056.05,561.99,1062.93,566.26,1079.2L566.26,1079.2z"/>
			</g>
		</g>
		<g class="st13">
			<g>
				<path class="st14" d="M513.85,1224.24c3.32,39.15,6.63,78.29,9.95,117.44c0.59,7.02,5.57,13.04,13.04,13.04
					c6.59,0,13.64-5.98,13.04-13.04c-3.32-39.15-6.63-78.29-9.95-117.44c-0.59-7.02-5.57-13.04-13.04-13.04
					C520.29,1211.2,513.25,1217.18,513.85,1224.24L513.85,1224.24z"/>
			</g>
		</g>
		<g class="st13">
			<g>
				<path class="st14" d="M514.82,1417.73c-2.04,33.94-1.03,67.96,2.99,101.73c0.83,6.99,5.4,13.04,13.04,13.04
					c6.4,0,13.88-6,13.04-13.04c-4.02-33.76-5.03-67.79-2.99-101.73c0.42-7.04-6.29-13.04-13.04-13.04
					C520.45,1404.7,515.24,1410.68,514.82,1417.73L514.82,1417.73z"/>
			</g>
		</g>
		<g class="st13">
			<g>
				<path class="st14" d="M379.69,1424.9c0.04,34.39,0.08,68.77,0.11,103.16c0.02,16.78,26.09,16.81,26.07,0
					c-0.04-34.39-0.08-68.77-0.11-103.16C405.74,1408.12,379.67,1408.09,379.69,1424.9L379.69,1424.9z"/>
			</g>
		</g>
		<ellipse class="st15" cx="376.65" cy="710.28" rx="3.11" ry="2.98"/>
		<ellipse class="st15" cx="462.59" cy="710.28" rx="3.11" ry="2.98"/>
		<ellipse class="st16" cx="364.6" cy="750.57" rx="15.16" ry="6.9"/>
		<ellipse class="st16" cx="489.75" cy="748.41" rx="15.16" ry="6.9"/>
	</g>
	<g>
		<g id="Ebene_3_Kopie">
			<g class="st18">
				<path d="M595.94,678.89c0.64,46.48-8.3,93.03-26.42,137.45c65.95-28.53,124.42-66.92,171.07-112.29"/>
				<g>
					<path d="M593.27,680.2c0.46,36.03-4.86,72-15.61,106.74c-3.05,9.86-6.58,19.59-10.49,29.2c-0.68,1.67-0.05,3.96,2.39,2.9
						c25.65-11.11,50.43-23.8,74.04-38.04c23.1-13.94,45.12-29.31,65.67-46.12c11.35-9.29,22.25-19.02,32.67-29.13
						c0.96-0.93,1.93-3.03,0.93-4.19c-1.08-1.25-2.83-0.02-3.65,0.78c-18.3,17.77-38.19,34.22-59.31,49.31
						c-21.57,15.41-44.41,29.36-68.25,41.84c-13.76,7.21-27.85,13.91-42.2,20.13c0.8,0.97,1.6,1.93,2.39,2.9
						c14.12-34.72,22.89-71.07,25.75-107.9c0.8-10.34,1.13-20.69,0.99-31.05c-0.02-1.44-1.34-2-2.72-1.39
						C594.35,676.85,593.25,678.71,593.27,680.2L593.27,680.2z"/>
				</g>
			</g>
			<g class="st18">
				<path d="M717.39,723.58c66.32,0.74,133.4-7.68,194.63-30.34c61.23-22.66,116.41-60.16,151.73-110.05s49.43-112.52,32.35-169.47
					c-18.14-60.48-70.23-110.62-133.45-138.2s-136.49-33.9-206.23-25.15c-78.49,9.85-155.08,39.18-211.16,88.97
					s-89.74,120.95-82.15,191.08c7.58,70.12,59.52,136.83,133.8,161.41"/>
				<g>
					<path d="M716.28,726.22c64.44,0.67,129.7-7.11,189.8-28.43c51.83-18.39,99.52-46.91,135.66-84.95
						c37.61-39.59,61.25-89.51,63.72-141.48c1.21-25.33-2.84-50.85-12.53-74.72c-8.89-21.91-22.25-42.32-38.79-60.37
						c-35.25-38.48-83.79-65.43-137.07-79.55c-58.83-15.58-122.15-16.05-182.15-5.65c-56.27,9.76-110.7,29.69-156.67,60.38
						c-45.63,30.47-81.64,71.84-101.65,119.46c-19.18,45.63-22.98,96.43-5.88,143.05c15.76,42.98,47.8,81.75,91.19,105.75
						c10.55,5.84,21.73,10.73,33.37,14.61c2.55,0.85,5.59-4.2,3.24-4.99c-47.08-15.7-85.05-48.15-108.37-87.41
						c-24.82-41.79-31.38-89.9-20.7-136.04c11.23-48.48,40.16-93.45,80.13-127.76c40.69-34.93,91.75-59.31,145.8-73.52
						c56.5-14.85,117.1-19.45,175.42-11.39c55.86,7.72,109.33,27.92,151.63,61.62c39.15,31.18,67.61,73.09,75.91,119.53
						c9.09,50.89-5.42,104.16-36.01,147.58c-29.13,41.34-72.29,73.95-120.63,96.53c-54.76,25.58-116.33,38.08-177.8,41.51
						c-15.12,0.84-30.27,1.14-45.42,0.98C715.99,720.92,713.49,726.19,716.28,726.22L716.28,726.22z"/>
				</g>
			</g>
			<g class="st18">
				<path class="st19" d="M770.89,474.39c4.09-32.97-23.42-66.16-59.63-74.21c-36.21-8.05-76.9,8.53-95.53,37.27
					s-15.08,67.07,6.85,93.92c18,22.03,45.82,35.79,73.05,48.28c38.77,17.78,78.21,34.39,118.23,49.82
					c4.93,1.9,10.26,3.82,15.52,2.84c6.68-1.25,11.12-6.74,14.88-11.81c28.48-38.33,56.95-76.67,85.43-115
					c15.04-20.25,30.61-41.88,31.53-66.14c0.78-20.48-9.52-40.69-25.85-55.15c-27.78-24.59-73.21-31.75-108.81-17.15
					c-35.6,14.6-58.95,49.98-55.92,84.72"/>
				<g>
					<path d="M773.16,473.88c3.56-29.92-16.97-59.72-47.51-72.18c-31-12.65-68.3-4.73-93.22,14.95
						c-27.11,21.4-36.59,55.32-27.89,86.17c4.49,15.9,13.8,30.22,26.67,41.91c13.43,12.2,29.72,21.51,46.45,29.72
						c18.84,9.25,38.22,17.7,57.58,26.07c20.37,8.8,40.91,17.29,61.62,25.46c5.36,2.12,10.71,4.23,16.11,6.28
						c4.76,1.8,9.8,3.48,15.06,2.77c9.47-1.27,15.01-9.76,19.8-16.21c12.81-17.25,25.63-34.5,38.44-51.75s25.63-34.5,38.44-51.75
						c11.56-15.56,23.84-31.04,31.66-48.46c7.27-16.19,9.52-33.69,3.98-50.58c-5.18-15.78-16.07-29.92-30.46-40.18
						c-26.77-19.1-65.46-24.58-97.53-13.58c-32.39,11.1-56.18,38.23-62.61,68.32c-1.56,7.27-2.06,14.72-1.45,22.1
						c0.28,3.4,4.86-0.09,4.67-2.3c-2.4-28.91,13.61-58.13,40.49-74.54c27.38-16.72,64.03-17.97,93.86-5.65
						c31.92,13.19,55.56,43.64,51.06,75.66c-2.39,17.03-11.71,32.44-21.82,46.77c-11.48,16.27-23.71,32.15-35.62,48.18
						c-12.26,16.51-24.52,33.01-36.78,49.51c-6.17,8.3-12.34,16.61-18.51,24.92c-4.51,6.07-9.53,14.93-19.11,14.43
						c-5.52-0.29-10.7-2.79-15.68-4.72c-4.87-1.89-9.73-3.8-14.58-5.72c-9.96-3.95-19.88-7.98-29.76-12.08
						c-19.76-8.2-39.38-16.69-58.82-25.48c-32.29-14.59-68.07-30.03-87.51-58.6c-17.54-25.78-19.64-60.58-1.68-86.65
						c16.59-24.07,49.78-38.5,81.33-35.47c32.11,3.08,59.51,25.61,67.13,53.3c1.83,6.65,2.46,13.59,1.65,20.41
						C768.17,478.65,772.86,476.37,773.16,473.88L773.16,473.88z"/>
				</g>
			</g>
			<g class="st18">
				<g>
					<path d="M1053.85,454.88c6.67,26.37,4.47,54.24-6.35,79.5c-0.4,0.94-0.53,2.6,0.94,2.8c1.45,0.21,2.75-1.48,3.17-2.46
						c11.34-26.47,13.72-55.64,6.74-83.28c-0.34-1.34-2.03-0.9-2.89-0.29C1054.3,452,1053.51,453.57,1053.85,454.88L1053.85,454.88z
						"/>
				</g>
			</g>
			<g class="st18">
				<g>
					<path d="M1039.06,565.4c-12.85,20.53-30.61,38.34-51.92,52.23c-2.27,1.48-2.15,6.24,1.27,4.01
						c22.16-14.44,40.66-33.17,54.02-54.51c0.54-0.87,1.22-2.7-0.06-3.36C1041.1,563.13,1039.58,564.56,1039.06,565.4L1039.06,565.4
						z"/>
				</g>
			</g>
			<g class="st18">
				<g>
					<path d="M518.42,479.92c0.88-26.4,9.24-52.5,24.08-75.37c4.25-6.54,9.01-12.79,14.26-18.73c0.78-0.88,1.73-2.61,0.82-3.67
						c-0.91-1.05-2.54-0.08-3.2,0.68c-19.45,21.98-32.63,48.24-37.99,75.81c-1.51,7.79-2.38,15.68-2.65,23.59
						c-0.04,1.28,1.21,1.74,2.38,1.22C517.52,482.84,518.38,481.24,518.42,479.92L518.42,479.92z"/>
				</g>
			</g>
		</g>
		<g id="Ebene_3">
			<g>
				<path class="st20" d="M621.86,652.01c0.64,46.48-8.3,93.03-26.42,137.45c65.95-28.53,124.42-66.92,171.07-112.29"/>
				<g>
					<path d="M619.19,653.33c0.46,36.03-4.86,72-15.61,106.74c-3.05,9.86-6.58,19.59-10.49,29.2c-0.68,1.67-0.05,3.96,2.39,2.9
						c25.65-11.11,50.43-23.8,74.04-38.04c23.1-13.94,45.12-29.31,65.67-46.12c11.35-9.29,22.25-19.02,32.67-29.13
						c0.96-0.93,1.93-3.03,0.93-4.19c-1.08-1.25-2.83-0.02-3.65,0.78c-18.3,17.77-38.19,34.22-59.31,49.31
						c-21.57,15.41-44.41,29.36-68.25,41.84c-13.76,7.21-27.85,13.91-42.2,20.13c0.8,0.97,1.6,1.94,2.39,2.9
						c14.12-34.72,22.89-71.07,25.75-107.9c0.8-10.34,1.13-20.69,0.99-31.05c-0.02-1.44-1.34-2-2.72-1.39
						C620.27,649.97,619.17,651.84,619.19,653.33L619.19,653.33z"/>
				</g>
			</g>
			<g>
				<path class="st20" d="M743.31,696.71c66.32,0.74,133.4-7.68,194.63-30.34c61.23-22.66,116.41-60.16,151.73-110.05
					c35.32-49.89,49.43-112.52,32.35-169.47c-18.14-60.48-70.23-110.62-133.45-138.2s-136.49-33.9-206.23-25.15
					c-78.49,9.85-155.08,39.18-211.16,88.97s-89.74,120.95-82.15,191.08s59.52,136.83,133.8,161.41"/>
				<g>
					<path d="M742.2,699.34c64.44,0.67,129.7-7.11,189.8-28.43c51.83-18.39,99.52-46.91,135.66-84.95
						c37.61-39.59,61.25-89.51,63.72-141.48c1.21-25.33-2.84-50.85-12.53-74.72c-8.89-21.91-22.25-42.32-38.79-60.37
						c-35.25-38.48-83.79-65.43-137.07-79.55c-58.83-15.58-122.15-16.05-182.15-5.65c-56.27,9.76-110.7,29.69-156.67,60.38
						c-45.63,30.47-81.64,71.84-101.65,119.46c-19.18,45.63-22.98,96.43-5.88,143.05c15.76,42.98,47.8,81.75,91.19,105.75
						c10.55,5.84,21.73,10.73,33.37,14.61c2.55,0.85,5.59-4.2,3.24-4.99c-47.08-15.7-85.05-48.15-108.37-87.41
						c-24.82-41.79-31.38-89.9-20.7-136.04c11.23-48.48,40.16-93.45,80.13-127.76c40.69-34.93,91.75-59.31,145.8-73.52
						c56.5-14.85,117.1-19.45,175.42-11.39c55.86,7.72,109.33,27.92,151.63,61.62c39.15,31.18,67.61,73.09,75.91,119.53
						c9.09,50.89-5.42,104.16-36.01,147.58c-29.13,41.34-72.29,73.95-120.63,96.53c-54.76,25.58-116.33,38.08-177.8,41.51
						c-15.12,0.84-30.27,1.14-45.42,0.98C741.91,694.05,739.41,699.31,742.2,699.34L742.2,699.34z"/>
				</g>
			</g>
			<g>
				<path class="st19" d="M796.81,447.52c4.09-32.97-23.42-66.16-59.63-74.21c-36.21-8.05-76.9,8.53-95.53,37.27
					s-15.08,67.07,6.85,93.92c18,22.03,45.82,35.79,73.05,48.28c38.77,17.78,78.21,34.39,118.23,49.82
					c4.93,1.9,10.26,3.82,15.52,2.84c6.68-1.25,11.12-6.74,14.88-11.81c28.48-38.33,56.95-76.67,85.43-115
					c15.04-20.25,30.61-41.88,31.53-66.14c0.78-20.48-9.52-40.69-25.85-55.15c-27.78-24.59-73.21-31.75-108.81-17.15
					c-35.6,14.6-58.95,49.98-55.92,84.72"/>
				<g>
					<path d="M799.08,447c3.56-29.92-16.97-59.72-47.51-72.18c-31-12.65-68.29-4.73-93.22,14.95
						c-27.11,21.4-36.59,55.32-27.89,86.17c4.49,15.9,13.8,30.22,26.67,41.91c13.43,12.2,29.72,21.51,46.45,29.72
						c18.84,9.25,38.22,17.7,57.58,26.07c20.37,8.8,40.91,17.29,61.62,25.46c5.36,2.12,10.71,4.23,16.11,6.28
						c4.76,1.8,9.8,3.48,15.06,2.77c9.47-1.27,15.01-9.76,19.8-16.21c12.81-17.25,25.63-34.5,38.44-51.75
						c12.81-17.25,25.63-34.5,38.44-51.75c11.56-15.56,23.84-31.04,31.66-48.46c7.27-16.19,9.52-33.69,3.98-50.58
						c-5.18-15.78-16.07-29.92-30.46-40.18c-26.77-19.1-65.46-24.58-97.53-13.58c-32.39,11.1-56.18,38.23-62.61,68.32
						c-1.56,7.27-2.06,14.72-1.45,22.1c0.28,3.4,4.86-0.09,4.67-2.3c-2.4-28.91,13.61-58.13,40.49-74.54
						c27.38-16.72,64.03-17.97,93.86-5.65c31.92,13.19,55.56,43.64,51.06,75.66c-2.39,17.03-11.71,32.44-21.82,46.77
						c-11.48,16.27-23.71,32.15-35.62,48.18c-12.26,16.51-24.52,33.01-36.78,49.51c-6.17,8.3-12.34,16.61-18.51,24.92
						c-4.51,6.07-9.53,14.93-19.11,14.43c-5.52-0.29-10.7-2.79-15.68-4.72c-4.87-1.89-9.73-3.8-14.58-5.72
						c-9.96-3.95-19.88-7.98-29.76-12.08c-19.76-8.2-39.38-16.69-58.82-25.48c-32.29-14.59-68.07-30.03-87.51-58.6
						c-17.54-25.78-19.64-60.58-1.68-86.65c16.59-24.07,49.78-38.5,81.33-35.47c32.11,3.08,59.51,25.61,67.13,53.3
						c1.83,6.65,2.46,13.59,1.65,20.41C794.09,451.78,798.78,449.5,799.08,447L799.08,447z"/>
				</g>
			</g>
			<g>
				<g>
					<path d="M1079.77,428.01c6.67,26.37,4.47,54.24-6.35,79.5c-0.4,0.94-0.53,2.6,0.94,2.8c1.45,0.21,2.75-1.48,3.17-2.46
						c11.34-26.47,13.72-55.64,6.74-83.28c-0.34-1.34-2.03-0.9-2.89-0.29C1080.22,425.12,1079.43,426.69,1079.77,428.01
						L1079.77,428.01z"/>
				</g>
			</g>
			<g>
				<g>
					<path d="M1064.98,538.53c-12.85,20.53-30.61,38.34-51.92,52.23c-2.27,1.48-2.15,6.24,1.27,4.01
						c22.16-14.44,40.66-33.17,54.02-54.51c0.54-0.87,1.22-2.7-0.06-3.36C1067.02,536.25,1065.5,537.68,1064.98,538.53
						L1064.98,538.53z"/>
				</g>
			</g>
			<g>
				<g>
					<path d="M544.34,453.05c0.88-26.4,9.24-52.5,24.08-75.37c4.25-6.54,9.01-12.79,14.26-18.73c0.78-0.88,1.73-2.61,0.82-3.67
						c-0.91-1.05-2.54-0.08-3.2,0.68c-19.45,21.98-32.63,48.24-37.99,75.81c-1.51,7.79-2.38,15.68-2.65,23.59
						c-0.04,1.28,1.21,1.74,2.38,1.22C543.44,455.97,544.3,454.37,544.34,453.05L544.34,453.05z"/>
				</g>
			</g>
			<g>
				<path class="st19" d="M1158.5,223.97c5.54-4.58,6.92-12.65,3.15-18.48s-12.31-8.84-19.55-6.89
					c-8.65,2.33-13.85,10.57-14.77,18.57c-0.91,8,1.53,15.95,3.43,23.81c1.91,7.86,3.26,16.21,0.27,23.8
					c18.61-8.6,36.1-19.12,51.99-31.29c5.97-4.57,12.26-11.09,9.74-17.72c-2.22-5.84-10.69-8.19-17.38-6.56s-11.98,6.08-16.96,10.37
					"/>
				<g>
					<path d="M1159.14,225.97c6.06-5.21,8.93-13.62,5.58-20.74c-3.03-6.44-10.82-10.38-18.59-9.78c-8.54,0.65-14.88,6.62-18.28,13.2
						c-4.03,7.81-3.37,16.48-1.59,24.71c2.19,10.1,6.58,21.02,2.73,31.24c-0.53,1.41-0.07,3.55,2.1,2.55
						c17.55-8.14,34.12-17.94,49.32-29.21c6.76-5.01,14.97-11.36,15.26-19.85c0.23-6.95-6.3-11.55-13.66-12
						c-9.79-0.6-17.69,5.84-24.22,11.47c-1.02,0.88-2.11,2.4-1.61,3.72c0.46,1.22,1.98,1.06,2.89,0.29
						c5.08-4.37,10.99-9.71,18.48-10.22c5.84-0.39,13.36,2.47,13.46,8.47c0.06,3.37-2.57,6.3-5.02,8.63
						c-2.79,2.66-6.08,4.94-9.25,7.23c-6.64,4.81-13.53,9.34-20.66,13.56c-8.09,4.78-16.47,9.16-25.08,13.15
						c0.7,0.85,1.4,1.7,2.1,2.55c2.83-7.52,2.21-15.3,0.55-22.97c-1.73-7.99-4.57-15.92-4.12-24.14c0.31-5.64,2.82-11.86,8.34-15.09
						c5.82-3.41,13.64-2.42,18.77,1.6c5.52,4.33,6.77,12.86,1.24,17.62c-1.02,0.88-2.11,2.4-1.61,3.72
						C1156.72,226.9,1158.24,226.75,1159.14,225.97L1159.14,225.97z"/>
				</g>
			</g>
			<g>
				<path class="st21" d="M1177.18,317.56c-1.54,12.29-10.26,23.69-22.56,29.48c5.86-2.31,12.98-1.91,18.47,1.04
					c5.49,2.95,9.19,8.37,9.6,14.06c1.03-11.44,10.49-21.92,22.83-25.29c-12.8,2.6-26.89-6.98-27.43-18.63"/>
				<g>
					<path d="M1174.9,318.08c-1.51,11.28-9.08,21.19-20.34,26.59c-2.1,1-3.55,6.11,0.09,4.75c11.38-4.27,24.68,2.99,25.68,13.88
						c0.3,3.25,4.42,0.21,4.61-1.67c1.05-10.25,8.95-19.05,20.01-22.19c1.46-0.41,2.57-1.78,2.82-3.1c0.2-1.07-0.23-2.36-1.72-2.08
						c-11.85,2.23-24.95-6.35-25.64-17.19c-0.08-1.25-1.13-1.77-2.38-1.22c-1.3,0.57-2.37,2.24-2.29,3.53
						c0.82,12.72,15.09,22.73,29.22,20.07c0.37-1.73,0.73-3.45,1.1-5.18c-13.81,3.92-24.34,15.54-25.65,28.4
						c1.54-0.56,3.07-1.11,4.61-1.67c-0.56-6.06-3.97-11.73-9.77-15.1c-6.19-3.59-13.99-3.73-20.68-1.22
						c0.03,1.58,0.06,3.17,0.09,4.75c13.45-6.45,22.98-18.87,24.79-32.37C1179.95,313.31,1175.24,315.59,1174.9,318.08
						L1174.9,318.08z"/>
				</g>
			</g>
			<path class="st22" d="M1208.79,601.43l6.66,18.26c0.29,0.78,1.11,1.32,2.03,1.32h21.57c2.07,0,2.94,2.36,1.26,3.44l-17.45,11.29
				c-0.75,0.48-1.06,1.34-0.78,2.13l6.67,18.26c0.64,1.75-1.62,3.21-3.3,2.13l-17.44-11.28c-0.75-0.49-1.77-0.49-2.52,0
				l-17.44,11.28c-1.68,1.09-3.94-0.37-3.3-2.13l6.67-18.26c0.29-0.78-0.03-1.64-0.78-2.13l-17.45-11.29
				c-1.68-1.08-0.81-3.44,1.26-3.44h21.57c0.93,0,1.75-0.53,2.03-1.32l6.66-18.26C1205.36,599.67,1208.16,599.67,1208.79,601.43z"/>
			<path class="st22" d="M666.09,162.63l6.66,18.26c0.29,0.78,1.11,1.32,2.03,1.32h21.57c2.07,0,2.94,2.36,1.26,3.44l-17.45,11.29
				c-0.75,0.48-1.06,1.34-0.78,2.13l6.67,18.26c0.64,1.75-1.62,3.21-3.3,2.13l-17.44-11.28c-0.75-0.49-1.77-0.49-2.52,0
				l-17.44,11.28c-1.68,1.09-3.94-0.37-3.3-2.13l6.67-18.26c0.29-0.78-0.03-1.64-0.78-2.13l-17.45-11.29
				c-1.68-1.08-0.81-3.44,1.26-3.44h21.57c0.93,0,1.75-0.53,2.03-1.32l6.66-18.26C662.65,160.87,665.45,160.87,666.09,162.63z"/>
			<path class="st22" d="M471.68,615.67l6.66,18.26c0.29,0.78,1.11,1.32,2.03,1.32h21.57c2.07,0,2.94,2.36,1.26,3.44l-17.45,11.29
				c-0.75,0.48-1.06,1.34-0.78,2.13l6.67,18.26c0.64,1.75-1.62,3.21-3.3,2.13l-17.44-11.28c-0.75-0.49-1.77-0.49-2.52,0
				l-17.44,11.28c-1.68,1.09-3.94-0.37-3.3-2.13l6.67-18.26c0.29-0.78-0.03-1.64-0.78-2.13l-17.45-11.29
				c-1.68-1.08-0.81-3.44,1.26-3.44h21.57c0.93,0,1.75-0.53,2.03-1.32l6.66-18.26C468.25,613.92,471.05,613.92,471.68,615.67z"/>
			<g>
				<path class="st23" d="M1072.42,744.36c-1.44-7.93-10.03-14.33-19.06-14.21s-17.41,6.73-18.59,14.7
					c-1.25,8.4,4.88,16.56,12.8,21.27s17.43,6.73,26.64,8.91c9.21,2.18,18.66,4.77,25.86,10.32c2.65-16.12,5.3-32.24,7.96-48.36
					c1.26-7.66,1.88-16.87-4.95-21.68c-7.05-4.97-18.23-1.54-23.47,4.96c-5.24,6.5-6.15,14.91-6.89,22.88"/>
				<g>
					<path d="M1074.66,742.64c-1.56-7.71-9.04-14.03-17.8-15.01c-9.1-1.02-17.93,4.28-22,11.3c-4.6,7.92-2.54,17.06,3.72,23.77
						c6.8,7.29,16.88,10.63,26.84,13.13c11.49,2.88,23.66,4.95,33.02,12.01c1.6,1.21,3.73-2.02,3.89-3.01
						c1.66-10.07,3.32-20.15,4.98-30.23c0.85-5.16,1.7-10.33,2.55-15.49c0.64-3.88,1.31-7.77,1.3-11.7
						c-0.03-6.75-2.61-14.29-10.62-16.51c-7.64-2.12-16.05,1.55-21.05,6.66c-7.14,7.3-8.25,17.52-9.1,26.73
						c-0.12,1.29,1.26,1.71,2.38,1.22c1.45-0.64,2.17-2.19,2.29-3.53c0.64-6.89,1.19-14.92,6.08-20.64
						c3.79-4.43,11.37-7.25,17.43-5.06c6.92,2.5,8.15,9.47,7.86,15.35c-0.19,3.74-0.95,7.45-1.56,11.15
						c-0.7,4.28-1.41,8.57-2.11,12.85c-1.66,10.07-3.32,20.15-4.98,30.23c1.3-1,2.6-2,3.89-3.01c-14.8-11.16-35.92-9.74-51.87-18.87
						c-6.92-3.96-13.16-10.86-12.87-18.54c0.25-6.75,7-12.07,14.38-12.62c8.95-0.67,17.28,5.56,18.85,13.25
						c0.28,1.36,2.07,0.87,2.89,0.29C1074.25,745.5,1074.94,743.99,1074.66,742.64L1074.66,742.64z"/>
				</g>
			</g>
			<g>
				<path class="st24" d="M941.19,727.87c0.75,11.74-6.06,23.63-17.18,30.01c14.22-4.05,31.18,1.69,38.76,13.12
					c-5.76-11.74-1.12-26.79,10.57-34.29c-11.28,3.57-25.01-0.51-31.61-9.39"/>
				<g>
					<path d="M938.85,729.02c0.55,10.44-5,20.7-14.88,26.48c-1.21,0.71-2.16,1.89-2.26,3.21c-0.07,0.91,0.43,2.12,1.75,1.76
						c13.91-3.82,29.8,1.65,37.3,12.71c1.44,2.12,5.03-2.26,4.26-3.89c-5.1-10.71-1.68-23.6,8.96-30.57
						c0.97-0.64,1.77-2.07,1.7-3.16c-0.05-0.83-0.69-1.77-1.79-1.44c-10.96,3.33-23.65-0.46-30.15-8.98
						c-1.59-2.08-5.44,2.48-4.02,4.35c7.1,9.3,21.1,13.45,33.07,9.81c-0.03-1.53-0.06-3.06-0.09-4.6
						c-12.78,8.38-18.42,24.9-12.18,38.02c1.42-1.3,2.84-2.6,4.26-3.89c-8.07-11.89-25.33-17.63-40.22-13.54
						c-0.17,1.65-0.34,3.31-0.51,4.96c12.43-7.28,20.17-20.25,19.47-33.54c-0.06-1.25-1.14-1.77-2.38-1.22
						C939.84,726.07,938.79,727.73,938.85,729.02L938.85,729.02z"/>
				</g>
			</g>
			<g>
				<path class="st25" d="M520.71,691.25c2.41,12.23-3.37,25.45-14.42,33.05c11.09-3.14,24.37,2.04,29.28,11.42
					c-0.96-10.88,4.72-22.05,14.55-28.59c-11.95,1.95-24.95-4.26-29.73-14.19"/>
				<g>
					<path d="M518.47,692.97c2.05,11.03-2.95,22.43-12.81,29.32c-0.96,0.67-1.77,2.05-1.7,3.16c0.05,0.85,0.68,1.74,1.79,1.44
						c10.81-2.91,22.94,2.01,27.82,11c0.51,0.95,2.07,0.25,2.64-0.17c0.96-0.7,1.79-2.03,1.7-3.16c-0.77-9.9,3.96-19.4,12.85-25.43
						c1.28-0.87,3.01-5.06-0.09-4.6c-11.23,1.7-23.4-4.02-28.03-13.31c-1.36-2.73-5.48,1.46-4.5,3.44
						c5.32,10.68,18.43,17.02,31.43,15.06c-0.03-1.53-0.06-3.06-0.09-4.6c-10.83,7.35-17.19,19.64-16.25,31.74
						c1.45-1.11,2.9-2.22,4.35-3.33c-5.36-9.87-19-15-30.74-11.83c0.03,1.53,0.06,3.06,0.09,4.6c12.3-8.6,18.59-23.07,16.04-36.77
						c-0.25-1.37-2.08-0.86-2.89-0.29C518.86,690.12,518.21,691.62,518.47,692.97L518.47,692.97z"/>
				</g>
			</g>
			<g>
				<path class="st21" d="M469.55,241.24c2.69,11.4-0.64,23.8-8.83,32.88c12.02-7.13,29.77-5.18,39.48,4.34
					c-8.86-8.97-8.86-23.82,0-32.79c-10.77,3.08-23.38,0.35-31.33-6.8"/>
				<g>
					<path d="M467.3,242.95c2.34,10.34-0.41,21.36-7.78,29.67c-0.71,0.8-1.46,2.15-1.05,3.21c0.33,0.88,1.4,1.17,2.29,0.66
						c11.53-6.68,28.05-4.85,37.42,4.14c2.01,1.93,5.63-2.67,4.02-4.35c-7.75-8.05-8.76-20.87-0.81-29.12
						c0.85-0.88,2.09-4.83-0.64-4.09c-10.35,2.84-22.13,0.41-29.87-6.39c-2.12-1.86-5.77,2.82-4.02,4.35
						c8.55,7.51,21.26,10.39,32.79,7.22c-0.22-1.36-0.43-2.72-0.64-4.09c-9.69,10.06-10.7,26.2-0.82,36.46
						c1.34-1.45,2.68-2.9,4.02-4.35c-10.47-10.04-28.61-12.02-41.53-4.54c0.41,1.29,0.83,2.58,1.24,3.87
						c8.99-10.15,12.76-23.4,9.89-36.1c-0.31-1.35-2.05-0.89-2.89-0.29C467.73,240.08,467,241.62,467.3,242.95L467.3,242.95z"/>
				</g>
			</g>
		</g>
	</g>
</g>
</svg>
