<?xml version="1.0" encoding="utf-8"?>
<!-- Generator: Adobe Adobe Illustrator 24.2.0, SVG Export Plug-In . SVG Version: 6.00 Build 0)  -->
<svg version="1.1" xmlns="http://www.w3.org/2000/svg" xmlns:xlink="http://www.w3.org/1999/xlink" x="0px" y="0px"
	 viewBox="0 0 170.08 170.08" style="enable-background:new 0 0 170.08 170.08;" xml:space="preserve">
<style type="text/css">
	.st0{fill:#B5A8A8;}
	.st1{fill:none;stroke:#000000;stroke-width:0.8883;stroke-miterlimit:10;}
	.st2{fill:none;stroke:#000000;stroke-width:0.8883;stroke-linecap:round;stroke-linejoin:round;stroke-miterlimit:10;}
	.st3{fill:#BAC5C9;}
	.st4{fill:#6A6D6E;}
	.st5{fill:#594F4F;stroke:#000000;stroke-width:0.8883;stroke-linecap:round;stroke-linejoin:round;stroke-miterlimit:10;}
	.st6{opacity:0.2392;stroke:#FFFFFF;stroke-width:0.111;stroke-miterlimit:10;enable-background:new    ;}
	.st7{fill:#F0E9E5;}
	.st8{stroke:#000000;stroke-width:0.8883;stroke-linecap:round;stroke-linejoin:round;stroke-miterlimit:10;}
	.st9{fill:#CA8C7F;}
	.st10{fill:#FFFFFF;}
	.st11{opacity:0.2392;enable-background:new    ;}
	.st12{fill:none;}
	.st13{opacity:0.2392;}
	.st14{opacity:0.149;}
	.st15{fill:#D15238;}
	.st16{fill:#D15239;}
	.st17{opacity:0.1882;enable-background:new    ;}
	.st18{opacity:0.2314;enable-background:new    ;}
	.st19{fill:none;stroke:#000000;stroke-width:1.4671;stroke-miterlimit:10;}
	.st20{fill:#BBC5C9;}
	.st21{fill:#859499;}
	.st22{opacity:0.251;enable-background:new    ;}
	.st23{fill:none;stroke:#000000;stroke-width:1.4671;stroke-linecap:round;stroke-linejoin:round;stroke-miterlimit:10;}
	.st24{fill:#E0C2BB;}
	.st25{fill:#FCF5F5;stroke:#FFFFFF;stroke-width:0.1834;stroke-miterlimit:10;}
	.st26{fill:#C3597C;stroke:#FFFFFF;stroke-width:0.1834;stroke-miterlimit:10;}
	.st27{stroke:#000000;stroke-width:1.4671;stroke-linecap:round;stroke-linejoin:round;stroke-miterlimit:10;}
	.st28{fill:#857373;}
	.st29{fill:#F0E9E5;stroke:#F0E9E5;stroke-width:2.2006;stroke-linecap:round;stroke-miterlimit:10;}
	.st30{fill:#F0E9E5;stroke:#F0E9E5;stroke-width:2.384;stroke-linecap:round;stroke-miterlimit:10;}
	.st31{opacity:0.2392;fill:#FFFFFF;enable-background:new    ;}
	.st32{fill:#C8354F;}
	.st33{fill:#C93550;}
	.st34{opacity:0.0314;}
	.st35{fill:#B5A7A7;}
	.st36{fill:#F5F2EC;}
	.st37{fill:#C8A3A0;}
	.st38{opacity:0.2314;fill:#FFFFFF;enable-background:new    ;}
	.st39{fill:none;stroke:#000000;stroke-width:1.6321;stroke-linecap:round;stroke-linejoin:round;stroke-miterlimit:10;}
	.st40{fill:#C8A3A0;stroke:#000000;stroke-width:1.6321;stroke-linecap:round;stroke-linejoin:round;stroke-miterlimit:10;}
	.st41{stroke:#000000;stroke-width:1.6321;stroke-linecap:round;stroke-linejoin:round;stroke-miterlimit:10;}
	.st42{fill:#C3C5B2;stroke:#000000;stroke-width:1.6321;stroke-linecap:round;stroke-linejoin:round;stroke-miterlimit:10;}
	.st43{opacity:0.2118;fill:#FFFFFF;enable-background:new    ;}
	.st44{opacity:0.2118;enable-background:new    ;}
	.st45{fill:#FFFFFF;stroke:#FFFFFF;stroke-miterlimit:10;}
</style>
<g id="Ebene_1">
</g>
<g id="Ebene_2">
	<g>
		<g id="Ebene_28">
			<g>
				<path class="st0" d="M60.17,112.05c-0.21-0.47-0.42-0.94-0.63-1.41c0.93,6.24,0.9,12.57,1.04,18.88
					c0.14,6.35,0.46,12.71,1.37,19.01c2.25,0,4.5,0,6.75,0c0.48,0,1.02-0.03,1.34-0.36c0.3-0.32,0.3-0.79,0.28-1.22
					c-0.6-12.48-1.2-24.95-1.81-37.43c-0.01-0.29-0.03-0.59-0.21-0.83c-0.31-0.41-0.94-0.4-1.47-0.34
					C64.31,108.65,61.85,109.47,60.17,112.05z"/>
				<path class="st0" d="M89.27,110.06c-0.92,13.8-0.76,27.81,0.38,41.6c2.11,0.02,5.2-0.14,7.32-0.12c0.5,0.01,1.05-0.01,1.41-0.34
					c0.37-0.34,0.39-0.89,0.39-1.38c-0.06-13.51-0.11-27.01-0.17-40.52C95.45,109.52,92.32,109.75,89.27,110.06z"/>
				<path class="st17" d="M61.04,110.88c3.65,4.81,5.69,10.71,5.74,16.64c0.05,5.93-1.88,11.86-5.45,16.72
					c-0.57-9.7-1.14-19.41-1.71-29.11C59.51,113.38,59.48,111.43,61.04,110.88z"/>
				<path class="st18" d="M89.08,114.36c0.12,10.49,0.24,20.98,0.36,31.46c2.39-0.63,4.22-2.55,5.2-4.72
					c0.97-2.17,1.2-4.57,1.25-6.92c0.09-3.75-0.23-7.53-1.3-11.14C93.52,119.43,91.66,115.99,89.08,114.36z"/>
				<path class="st19" d="M59.1,107.05c0.7,14.19,1.4,27.49,2.1,41.69c2.89,0.32,6.16-0.44,9.06-0.12
					c-1.35-42.44-1-40.89-2.41-41.24C62.06,105.91,60.56,107.7,59.1,107.05z"/>
				<path class="st19" d="M88.84,108.72c-0.59,14.31,0.12,27.89,0.81,42.93c2.69,0.05,5.39,0.11,8.08,0.16
					c0.34,0.01,0.72,0,0.96-0.22c0.28-0.24,0.29-0.66,0.27-1.02c-0.52-14.16-0.29-27.61-0.81-41.78
					C95.48,108.95,92.05,108.38,88.84,108.72z"/>
				<path class="st20" d="M47.16,161.7c0.59-5.43,3.32-10.76,7.93-14.01s11.15-4.13,16.25-1.62c5.5,2.71,8.5,8.94,8.11,14.83
					C68.82,160.42,58.16,160.65,47.16,161.7z"/>
				<path class="st20" d="M83.07,160.32c-0.33-3.59,0.31-7.38,2.49-10.33c2.18-2.95,6.07-4.89,9.8-4.25
					c2.96,0.5,5.46,2.51,7.09,4.91c1.63,2.41,2.5,5.19,3.25,7.96c0.24,0.89,0.4,2-0.35,2.59c-0.41,0.32-0.99,0.37-1.52,0.4
					c-7.04,0.4-14.1,0.45-21.14,0.15C82.71,161.16,82.74,160.55,83.07,160.32z"/>
				<path class="st21" d="M47.71,162.29c-0.67,0.34-0.55,1.38,0.05,1.83c0.6,0.45,1.42,0.48,2.18,0.49
					c9.63,0.13,19.26,0.26,28.89,0.39c1.23-0.94,0.67-3-0.65-3.82c-1.33-0.82-3.03-0.77-4.61-0.7
					C64.84,160.92,55.16,158.5,47.71,162.29z"/>
				<path class="st21" d="M83.11,162.21c0,0.92,0,1.85,0,2.77c7.09-0.03,14.18-0.05,21.27-0.08c0.38,0,0.78-0.01,1.12-0.17
					c1.02-0.5,0.81-1.93,0.45-2.97C98.32,162.36,90.64,162.44,83.11,162.21z"/>
				<path class="st22" d="M67.7,144.49c-5.37-0.5-10.93,1.36-14.79,4.94c-3.86,3.58-5.95,8.82-5.55,13.93
					c0.03,0.34,0.07,0.69,0.27,0.97c0.4,0.56,1.23,0.62,1.95,0.61c0.86-0.01,1.8-0.04,2.45-0.57c0.51-0.42,0.74-1.07,0.96-1.67
					C55.63,155.44,61.03,149.1,67.7,144.49z"/>
				<path class="st11" d="M99.38,146.86c-2.29-1.09-4.89-1.68-7.43-1.41s-5.03,1.48-6.51,3.47c-1.54,2.05-1.89,4.67-2.2,7.17
					c-0.19,1.56-0.38,3.12-0.57,4.68c-0.15,1.2-0.28,2.48,0.28,3.57c0.56,1.09,2.11,1.8,3.15,1.11c0.79-0.52,0.95-1.55,1.11-2.45
					c0.94-5.33,4.32-10.23,9.09-13.17C97.51,149.07,98.98,148.2,99.38,146.86z"/>
				<path class="st23" d="M47.43,165.22c-1.13-4.6,0.34-9.57,3.27-13.38c2.87-3.73,7.22-6.51,12.03-7.15s10.01,1.07,13.02,4.7
					c1.77,2.13,2.73,4.79,3.17,7.48c0.44,2.69,0.4,5.42,0.36,8.14C68.64,165.03,58,165.06,47.43,165.22z"/>
				<path class="st23" d="M82.8,165.37c-0.31-3.06-0.63-6.16-0.19-9.21c0.44-3.05,1.7-6.1,4.09-8.17c1.8-1.56,4.18-2.49,6.61-2.61
					c2.49-0.12,5.03,0.62,7.02,2.04c2.69,1.92,4.31,4.96,5.07,8.08s0.75,6.36,0.73,9.56C98.41,164.81,90.68,164.95,82.8,165.37z"/>
				<path class="st23" d="M47.51,162.07c10.38-0.93,20.82-1.33,31.25-1.2"/>
				<path class="st23" d="M83.29,162.37c7.43,0.08,14.86-0.11,22.27-0.57"/>
				<path class="st23" d="M92.93,154.65c1.72,0.2,3.44,0.4,5.16,0.59"/>
				<path class="st23" d="M92.99,149.78c0.96,0,1.93,0,2.89,0"/>
				<path class="st23" d="M52.07,150.95c1.43,1.42,2.86,2.85,4.3,4.27"/>
				<path class="st23" d="M54.66,148.27c1.25,1.46,2.49,2.91,3.74,4.37"/>
				<path class="st0" d="M36.93,95.92c0.27,2.42-1.02,4.72-1.6,7.09c-0.58,2.37-0.04,5.45,2.37,6.27c1.66,0.56,3.56-0.26,4.69-1.54
					c1.14-1.28,1.68-2.93,2.2-4.53c-1.14,2.15-0.99,6.63,0.25,8.73c1.24,2.1,3.72,1.57,6.08,0.68s3.49-4.09,1.86-5.93
					c-0.18,2.27,0.17,4.68,1.62,6.49c1.44,1.81,3.07,4.31,4,2.22c1.04-2.33,4.01-3.23,3.57-5.99c-1.87,2.79-0.05,7.79,3.42,7.67
					c3.48-0.12,6.56-5.29,4.49-7.94c-0.39,1.96,2.1,6.46,3.52,7.93c1.42,1.47,2.37,0.18,3.11-1.69c0.81-2.05,1.24-3.15,0.44-4.78
					c-1.65,2.83,1.89,6.94,5.29,6.87c3.4-0.07,5.82-4.28,4.05-7.04c-1.31,2.67,1.25,6.24,4.34,6.07c3.09-0.17,5.18-4.01,3.56-6.51
					c-1.12,3.09,3.67,7.75,7.04,7.09c3.37-0.67,1.86-5.55,1.2-8.72c-0.75,2.85,3.84,6.12,6.65,4.91c2.82-1.21,2.85-5.73,1.06-8.12
					c-0.52,2.1,5.29,5.29,7.19,4.1c2.1-1.31,0.89-2.62,1.25-4.76c0.36-2.14-0.35-4.31-1.31-6.27c0.53,3.39,5.21,6.62,8.17,4.65
					c2.95-1.97,2.79-8.21-0.38-9.84c2.43,1.27,4.87,2.53,7.3,3.8c1.27-5.2-0.39-10.96-4.29-14.8c0.59,1.45,1.25,2.98,2.57,3.89
					c1.33,0.91,4.02,1.86,4.76,0.48c0.67-1.26-0.64-3.77-1.43-4.96c-2.55-3.78-5.1-7.56-7.65-11.34c1.98,1.3,3.17,3.57,4.67,5.39
					c1.5,1.82,5.61,3.1,7.04,1.23c1.31-1.7-0.28-5.36-1.86-6.84c-3.96-3.72-7.7-7.62-12.43-10.49c1.39,0.57,2.83,1.15,4.34,1.08
					c1.51-0.07,4.48-1.21,4.71-2.63c0.17-1.04-1.61-2.15-2.26-3c-2.31-3.06-6.08-4.92-9.98-5.61c2.05,0.63,6.16-0.96,6.39-2.99
					c0.23-2.03-2.98-4.2-4.73-5.37c-1.76-1.17-3.89-1.72-5.96-2.24c1.26,0.86,2.61,1.75,4.16,1.8c1.54,0.05,4.27-1.46,4.02-2.91
					c-0.21-1.26-2.68-1.65-3.92-2.13c-3.53-1.37-7.06-2.73-10.58-4.1c2.8,1.61,7.96-1.58,7.87-4.68c-0.09-3.11-4.1-5.46-6.92-7.02
					c-2.77-1.53-6.26-2.45-9.14-1.11s-4.04,5.68-1.45,7.47c-2.72,0.14-5.47-0.61-7.7-2.1c1.31-0.92,2.65-1.93,3.32-3.34
					c0.68-1.41,0.68-4.28-0.65-5.16c-1.49-0.99-3.89,0.73-4.98,2.12c-1.09,1.38-1.36,3.18-1.6,4.9c1.02-1.58,1.88-3.39,1.63-5.23
					c-0.25-1.84-0.51-4.67-2.43-4.41c-1.58,0.21-4.19,2.75-4.47,4.25s0.1,3.02,0.48,4.49c0.51-3.48,0.55-7.88-2.79-8.05
					c-3.33-0.17-5.54,5.42-3.22,7.7c1.75-2.33-1.67-6.94-4.62-6.39c-2.95,0.56-3.02,5.83-0.47,7.35c-0.92-2.39-1.95-4.92-4.15-6.37
					s-3.27-2.97-5.31-1.43c-2.17,1.64,0.09,7.59,2.31,9.16c0.6-2.34-2.53-4.64-4.76-3.5s-1.93,4.9,0.46,5.7
					c-1.41,0.31-2.82,0.61-4.23,0.92c0.66-1.78,1.34-3.61,1.28-5.5c-0.05-1.89-1-3.88-2.8-4.68c-2.13-0.95-4.63,0-6.71,1.05
					c-2.55,1.29-4.75,3.07-6.8,5.02c-3.26,3.1-3.86,4.99-2.67,7.49s6.08,4.25,8.57,2.85c-0.09,0.52-0.18,1.03-0.27,1.55
					c-2.73,0.78-5.81,2.17-8.64,2.44s-6.4,0.72-8.51,2.53c-2.11,1.82-3.26,3.4-1.56,5.57c1.7,2.17,7.2,2.17,7.74-0.48
					c-3.68,1.57-7.09,3.7-10.05,6.3c-2.12,1.86-4.87,5.13-2.82,7.06c1.99,1.89,6.54-2.07,8.73-3.75c-3.51,0.97-7,5.72-9.34,8.39
					c-2.33,2.68-5.52,6.61-1.88,6.94c3.8,0.34,8.18-1.02,11.47-1.75c-5.27,0.99-8.61,4.87-13.77,7.45c-1.7,0.85-2.46,3.13-1.99,4.91
					c0.53,1.97,2.97,3,5.09,2.76c2.12-0.24,3.98-1.41,5.74-2.55c-2.94,0.23-7.1,4.94-8.04,7.61c-0.94,2.66,1.87,2.41,4.55,3.58
					c2.68,1.17,4.97-0.89,6.87-2.33c-4.55,0.4-5.05,2.64-6.89,4.7s-2.8,5.06-1.66,7.53s5.14,4.49,7.81,2.27
					C33.22,101.29,35.61,97.84,36.93,95.92z"/>
				<path class="st18" d="M47.64,34.43c-5.14,0.3-10.22,1.64-14.79,3.89c-2.28,1.12-4.76,3.16-3.96,5.48
					c0.52,1.51,2.32,2.42,3.99,2.39c1.67-0.03,3.23-0.72,4.74-1.39c-4.9,1.16-9.35,3.96-12.39,7.8c-1.07,1.36-2.96,2.92-1.95,4.32
					c1.36,1.89,5.43,1.22,7.49,0.03c-8.23,9.91-8.88,23.52-9.17,36.14c-0.05,2.33-0.1,4.72,0.74,6.91c0.84,2.19,2.77,4.16,5.21,4.41
					c2.44,0.25,5.05-1.84,4.61-4.14c-0.04,0.66-0.08,1.31-0.13,1.97c1.74-1.92,3.49-3.85,5.23-5.77c-1.28,2.38-2.59,4.93-2.33,7.6
					c0.26,2.66,1.12,6.36,3.87,5.8c3.05-0.62,5.68-5.28,6.04-8.22c-0.66,2.53-1.32,5.22-0.45,7.69c0.87,2.47,2.64,5.59,5.1,4.44
					c2.48-1.16,4.02-5.53,3.94-8.16c-0.28,2.37-0.51,4.94,0.79,6.98c1.31,2.04,2.45,2.79,4.17,2.79c2.25,0,2.3-6.28,3.63-8.01
					c-0.35,2.03-0.69,4.17,0.03,6.11c0.72,1.94,2.89,3.57,4.98,3.02c1.5-0.4,1.74-2.14,2.08-3.59s0.9-2.6,0.68-4.06
					c-0.18,2.19-0.23,3.92,1.25,5.4c1.47,1.48,2.3,4.08,4.05,2.89c1.75-1.19,3.51-5.78,2.16-7.37c-0.47,2.07,0.21,4.4,1.91,5.75
					c1.7,1.36,3.28,2.74,5,1.41c1.72-1.33,3.17-5.34,1.6-6.83c-0.96,2.95,2.06,6.85,5.26,6.33c3.2-0.52,4.9-5.34,2.7-7.61
					c0.3,1.85,0.63,3.76,1.71,5.32c1.07,1.57,3.3,3.48,5.19,2.98c1.75-0.47,2.67-2.98,2.9-4.69c0.23-1.71-0.25-3.43-0.72-5.1
					c-0.84,2.79,2.44,6.78,5.43,6.15c2.98-0.63,4.2-5.55,2.2-7.75c-0.27,1.99,4.16,3.75,6.26,3.56c2.1-0.19,1.53-1.95,1.91-3.92
					c0.38-1.97-0.35-4.02-1.56-5.66c-16.25,7.94-35.75,8.96-53.36,4.33c-8.01-2.11-15.91-5.48-21.59-11.25
					c-7.65-7.77-10.33-19.22-8.64-29.74C35.14,52.54,40.8,42.88,47.64,34.43z"/>
				<path class="st23" d="M47.37,34.3c-7.05,1.76-20.89,3.66-19.08,9.45c1.11,3.53,8.14,1.93,9.47,0.94
					c-6.67,2.04-16.01,9.29-14.89,11.79c1.39,3.09,5.91,2.28,8.86-0.23c-4.75,2.51-13.2,9.16-11.98,11.78
					c0.73,1.58,4.37,2.99,12.53-0.21c-4.88,3.68-17.7,7.23-15.42,12.44c2.17,4.96,9.06,0.41,10.59,0.47
					c-3.51,1.54-8.92,5.49-7.35,8.77c1.57,3.28,7.58,1.54,10.39-0.18c-11.04,6.63-8.44,13.64-5.56,14.82
					c6.69,2.75,8.05-3.83,11.99-8.15c-2.38,4.6-2.68,12.6-0.01,13.61c3.5,1.34,5.4-2.09,7.09-6.28c-0.24,3.6-0.02,10.25,4.53,10.57
					c2.6,0.18,5.16-3.73,4.19-6.39c0.93,2.76,2.1,8.55,5.03,8.46c2.26-0.07,2.48-3.28,3.8-6.14c0.92,3.26,0.52,7.36,3.86,7.24
					c3.34-0.13,4.87-4.53,4.02-7.54c1.17,2.74,1.94,7.83,4.51,8.24c2.16,0.34,3.41-3.98,3.28-6.57c0.81,3.48,2.05,6.69,5.51,6.51
					c3.46-0.18,3.37-3.75,2.81-6.95c1.38,3.22,2.29,6.51,5.19,6.44c2.9-0.07,4.42-3.43,3.01-6.63c1.94,3.5,4.44,7.03,6.45,6.77
					c3.77-0.47,2.82-4.93,2.26-8.75c1.86,2.76,2.99,5.98,6.02,4.93c3.02-1.04,2.44-3.76,1.29-7.45c1.81,1.96,4.22,4.14,7.56,3.17
					c2.21-0.64,0.99-8.67,0.05-10.68c1.26,2.43,5.86,5.66,7.9,4.41c2.55-1.56,1.66-6.16-0.52-10.7c2.28,2.16,6.22,5.37,7.54,4.47
					c3.23-2.19-2.36-10.63-4.27-14.68c3.47,5.3,6.47,5.76,7.37,4.33c1.54-2.44-4.83-10.35-7.02-13.92c5.01,6.84,8.49,5.75,9.79,4.08
					c2.68-3.42-4.85-10.34-13.51-16.67c2.77,1.08,7.83,0.79,8.12-2.03c0.37-3.52-7.25-6.94-11.68-9.51
					c2.35,0.94,5.61,0.09,5.83-2.09c0.3-3.1-8.18-7.27-10.46-7.55c7.01,1.4,8.1,0.71,7.95-1.18c-0.2-2.49-9.53-4.94-14.11-4.94
					c5.79-2.49,13.13-5.83,0.62-12.83c-12.6-7.05-12.52,3.27-11.14,6.55l-6.98-2.21c1.8-1.71,5.79-7.61,2.27-8.8
					c-2.79-0.94-5.25,4.61-6.64,7.2c0.86-2.62,2.7-9.78-0.18-9.78c-3.99,0-4.42,6.16-4.8,8.63c0.52-2.38,2.31-7.25-2.39-7.93
					c-3.22-0.46-3.95,5.61-3.31,7.56c-0.49-2.39-2.27-6.84-4.53-6.25c-2.33,0.61-2.48,3.12-0.92,7.17c-0.68-2.2-4.78-9.07-8.18-8.03
					c-3.29,1-0.91,5.81,1.97,9.9c-1.13-1.72-4.02-4.63-5.99-3.6c-1.4,0.73-1.46,3.81,1.07,5.53l-4.1,1.28
					c1.78-10.01-2.08-15.68-11.65-8.21c-16.44,12.81,1.91,14.24,1.96,14.31C47.34,33,47.6,34.69,47.37,34.3z"/>
				<path class="st0" d="M126.84,69.55c0.58,2.04,2.39,3.5,3.85,5.09c1.46,1.59,2.69,3.8,1.81,5.74c-0.45,1-1.38,1.71-2.27,2.39
					c-5,3.77-9.99,7.55-14.99,11.32c-0.69,0.52-1.4,1.06-1.83,1.79c-0.43,0.73-0.53,1.71,0.01,2.37c0.64,0.8,1.93,0.86,2.88,0.44
					c0.96-0.42,1.68-1.19,2.42-1.9s1.6-1.4,2.64-1.54c-1.78,1.15-3.48,2.43-5.07,3.81c-0.56,0.48-1.15,1.06-1.15,1.78
					c-0.01,1.05,1.28,1.75,2.37,1.59c1.09-0.15,1.98-0.87,2.82-1.54c0.84-0.67,1.77-1.37,2.86-1.45c-0.76,0.74-1.76,1.2-2.7,1.73
					s-1.86,1.19-2.29,2.14c-0.43,0.95-0.15,2.25,0.83,2.7c0.83,0.38,1.81,0.05,2.65-0.31c9.29-3.93,16.91-10.73,23.66-17.96
					c1.66-1.77,3.36-3.76,3.49-6.13c0.13-2.36-1.32-4.5-2.8-6.4c-6.53-8.4-16.54-16.9-25.59-23.69"/>
				<path class="st0" d="M39.62,47.55c-9.71,8.27-24.62,23.87-31.17,34.59c-1.1,1.8-2.19,3.8-1.92,5.87c0.34,2.62,2.72,4.52,5.02,6
					c8.28,5.28,17.79,8.52,27.28,11.41c0.66,0.2,1.34,0.4,2.03,0.35c0.69-0.05,1.4-0.42,1.63-1.05c0.29-0.8-0.29-1.63-0.88-2.25
					c-1.45-1.5-3.23-2.71-5.2-3.51c2.07,1.05,4.27,1.86,6.55,2.41c0.66,0.16,1.55,0.21,1.85-0.38c0.29-0.57-0.26-1.19-0.77-1.6
					c-1.56-1.25-3.21-2.39-4.94-3.42c2.06,1.53,4.64,2.42,7.26,2.49c0.69,0.02,1.45-0.05,1.93-0.52c0.57-0.57,0.48-1.53,0.02-2.19
					c-0.46-0.65-1.2-1.08-1.91-1.48c-5.78-3.23-11.55-6.46-17.32-9.69c-1.89-1.06-4.03-2.55-3.87-4.62c0.1-1.3,1.11-2.35,2.06-3.28
					c3.66-3.59,7.33-7.18,10.99-10.77l0.07,0.02"/>
				<path class="st18" d="M32.04,53.83c-9.57,7.69-16.73,17.72-23.28,27.88c-1.28,1.98-2.58,4.21-2.14,6.49
					c0.5,2.56,3.01,4.26,5.37,5.6c7.24,4.12,15.79,8.44,24.29,10.97c1.31-0.24,1.69-0.33,2.96,0.07c1.26,0.41,3.16-0.11,3.03-1.38
					c-0.07-0.72-0.79-1.2-1.44-1.56c-1.72-0.95-3.52-1.79-5.36-2.51c2.21,0.62,4.42,1.25,6.62,1.87c0.58,0.17,1.33,0.29,1.72-0.16
					c0.68-0.78-0.65-1.7-1.68-1.97c-5.4-1.38-10.49-3.87-14.8-7.26c-3.3-2.59-6.31-6.04-6.53-10.11c-0.2-3.66,1.87-7.03,3.87-10.16
					c2.86-4.48,5.73-8.96,8.59-13.43c0.62-0.97,1.27-2.01,1.28-3.15C34.54,53.91,33.59,52.59,32.04,53.83z"/>
				<path class="st11" d="M126.62,69.76c1.85,2.81,3.94,5.48,6.27,8.27c0.56,0.67,1.11,1.36,1.83,2.13c0.2,2.28-0.76,4.55-2.23,6.36
					c-1.47,1.81-3.41,3.22-5.41,4.5c-3.81,2.45-7.99,5.6-12.25,7.24c-0.82,0.32-1.64,0.66-2.2,0.01c-0.76-0.88,0.2-3.26,1.2-3.89
					c5.3-3.32,10.34-7.02,15.04-11.07c1.06-0.91,2.13-1.87,2.7-3.12C132.14,78.96,132.08,77.36,126.62,69.76z"/>
				<path class="st23" d="M125.38,69.3c2.6,2.95,6.48,7.39,6.57,9.77c0.15,4.03-22.34,15.03-19.33,19.21c1.09,1.51,5.37-2.1,8-3.28
					c-3.61,3.13-7.32,5.81-6.06,7.01c1.47,1.4,5.75-1.95,7.87-2.88c-2.92,2.35-6.86,5-5.04,6.5c4.36,3.6,32.13-18.85,31.23-24.94
					c-0.72-4.86-12.95-17.35-24.96-27.23"/>
				<path class="st23" d="M32.44,53.46C22.39,61.97,3.9,83.61,6.02,89.05c2.4,6.16,34.44,19.42,36.13,15.7
					c0.96-2.12-3.97-3.84-6.17-5.63c5,1.8,8.26,3.06,8.73,1.93c0.6-1.46-4.17-3.59-6.15-5.11c4.1,1.96,9.52,3,10.17,1.11
					c1.05-3.06-23.75-11.75-24.04-16.78c-0.16-2.79,8.91-10.04,13.19-13.79"/>
				<path class="st24" d="M59.05,59.42c-2.11-1-4.27-2.01-6.6-2.35c-2.33-0.34-4.91,0.11-6.59,1.69c-2.25,2.12-2.25,5.56-1.65,8.52
					c1.75,8.62,7.49,16.38,15.3,21.06s17.55,6.25,26.6,4.51c9.04-1.73,17.32-6.71,23.04-13.6c3.9-4.69,6.68-10.39,6.92-16.37
					c0.09-2.28-0.2-4.61-1.24-6.67s-2.9-3.8-5.21-4.42c-3.96-1.06-7.93,1.29-11.52,3.21C85.98,61.49,70.48,64.83,59.05,59.42z"/>
				<path class="st11" d="M58.68,58.69c-3.5-1.6-7.79-3.18-11.06-1.18c-1.68,1.02-2.7,2.85-3.04,4.72
					c-0.34,1.87-0.61,4.38-0.11,6.21c3.63,13.25,14.48,22.03,27.09,23.65c12.82,1.65,26.4-1.4,35.86-10.22
					c4.71-5.05,7.84-11.43,8.87-18.12c-8.27,6.39-17.74,11.21-27.29,15.69c-3.47,1.63-7,3.23-10.78,4.06
					c-3.77,0.83-7.86,0.84-11.4-0.66c-4.25-1.8-7.33-5.69-8.47-9.97C57.2,68.6,57.87,63.98,58.68,58.69z"/>
				<path class="st25" d="M56.28,58.02c-0.57,1.97-0.89,4-0.94,6.04c1.79,0.6,3.63,1.06,5.49,1.38c0.23,0.04,0.48,0.08,0.69-0.01
					c0.39-0.15,0.52-0.61,0.59-1c0.28-1.46,0.56-2.93,0.84-4.4C60.68,59.64,58.46,58.95,56.28,58.02z"/>
				<path class="st25" d="M63.34,60.14c-0.23,1.31-0.46,2.63-0.69,3.94c2.14,0.44,4.3,0.79,6.48,1.06c0.34-1.31,0.58-2.65,0.72-4
					C67.74,61,65.66,60.67,63.34,60.14z"/>
				<path class="st25" d="M86.29,59.58c0.11,2.05,0.58,4.09,1.39,5.99c1.83-0.16,3.65-0.42,5.44-0.78c0.21-0.04,0.44-0.1,0.58-0.26
					c0.18-0.21,0.14-0.52,0.1-0.78c-0.36-2.04-0.73-4.08-1.09-6.13C90.62,58.16,88.52,58.71,86.29,59.58z"/>
				<path class="st25" d="M92.59,57.58c0.34,1.42,0.68,2.83,1.02,4.25c0.07,0.3,0.18,0.63,0.47,0.75c0.21,0.08,0.44,0.03,0.66-0.03
					c1.44-0.37,2.89-0.74,4.33-1.11c0.2-0.05,0.43-0.12,0.52-0.3c0.07-0.14,0.03-0.31-0.01-0.46c-0.48-1.9-0.96-3.79-1.45-5.69
					C96.4,55.94,94.61,56.76,92.59,57.58z"/>
				<path class="st26" d="M57.39,86.24c2.49-3.91,6.7-6.79,11.38-7.8c4.68-1.01,9.79-0.14,13.81,2.36c2.89-3.94,7.6-6.63,12.62-7.2
					c5.02-0.57,10.26,0.98,14.05,4.16c0.24,0.2,0.49,0.44,0.54,0.74c0.04,0.3-0.14,0.59-0.31,0.85c-2.89,4.2-7.14,7.45-11.89,9.65
					s-9.95,3.37-15.2,3.89c-4.42,0.44-8.93,0.43-13.27-0.52C64.8,91.42,60.64,89.5,57.39,86.24z"/>
				<path class="st22" d="M82.29,81.46c-3.36-2.03-7.43-2.98-11.39-2.64c-3.96,0.34-7.79,1.97-10.71,4.54
					c-1.07,0.95-2.09,2.24-1.78,3.6c0.25,1.09,1.28,1.85,2.29,2.42c4.17,2.37,9.09,3.3,13.94,3.59c6.37,0.38,12.86-0.28,18.83-2.42
					c5.97-2.14,11.41-5.8,15.1-10.75c0.41-0.55,0.81-1.19,0.64-1.84c-0.26-1-1.61-1.26-2.69-1.22c-4.13,0.14-8.02,1.78-11.89,3.14
					C90.76,81.24,85.96,83.69,82.29,81.46z"/>
				<path class="st23" d="M45.31,58.87c3.29-4.44,14.56,0.45,18.03,1.17c28.53,5.9,41.35-14.03,49.34-7.5
					c9.42,7.69,1.08,36.32-29.34,40.28C51.71,96.92,39.37,66.88,45.31,58.87z"/>
				<path class="st23" d="M55.79,58.87c-0.43,3.96-1.35,5.23-0.7,5.45c1.7,0.58,6.29,1.94,6.69,1.56c0.22-0.21,0.28-0.39,0.33-0.68
					c0.27-1.53,0.55-3.18,0.82-4.71"/>
				<path class="st23" d="M62.93,64.26c0.28-0.12,4.46,0.73,6.21,0.99c0.55,0.08,0.36-1.47,0.64-3.52"/>
				<path class="st23" d="M86.12,60.41c-0.06-0.22,0.02-0.08-0.05-0.3c0.2,1.17,1.06,5.81,1.27,5.82c1.09,0.04,5.38-0.81,6.45-1.19
					c0.42-0.15-1.08-4.97-1.38-6.6"/>
				<path class="st23" d="M57.39,87.14c2.35-4.08,6.57-7.14,11.33-8.23c4.76-1.09,9.98-0.18,14.02,2.44
					c2.86-4.31,7.43-7.71,12.75-8.27c5.32-0.56,10.87,1.29,14.65,4.9"/>
				<path class="st23" d="M94.07,62.57c1.85-0.64,3.76-1.15,5.69-1.52c-0.61-1.85-1.21-3.69-1.82-5.53"/>
				<path class="st7" d="M62.04,37.08c-3.06-1.76-7.37-0.99-9.75,1.55c-2.38,2.54-2.77,6.5-1.17,9.54c1.6,3.04,4.99,5.08,8.54,5.45
					c2.1,0.21,4.36-0.16,5.96-1.46c1.22-0.99,1.97-2.44,2.32-3.93C69.03,43.6,65.67,39.17,62.04,37.08z"/>
				<path class="st9" d="M57.27,50.19c-2.04-0.07-4.09-0.14-6.13-0.2c-0.93-0.03-1.9-0.06-2.75,0.3c-0.86,0.35-1.56,1.19-1.41,2.07
					c0.11,0.61,0.61,1.11,1.19,1.39s1.24,0.37,1.89,0.45c2.83,0.33,5.7,0.37,8.53,0.04c0.64-0.07,1.29-0.17,1.83-0.49
					s0.96-0.91,0.87-1.51c-0.13-0.87-1.14-1.31-2.01-1.6C58.59,50.4,57.9,50.18,57.27,50.19z"/>
				<path class="st9" d="M105.06,47.68c-2.5-0.18-5.14-0.35-7.38,0.72c-0.59,0.28-1.16,0.67-1.48,1.22
					c-0.32,0.55-0.33,1.3,0.12,1.77c0.43,0.45,1.14,0.53,1.78,0.54c2.82,0.03,5.59-0.72,8.2-1.72c0.38-0.15,0.79-0.32,0.97-0.68
					c0.25-0.48-0.08-1.08-0.56-1.36C106.24,47.89,105.68,47.73,105.06,47.68z"/>
				<path class="st27" d="M60.79,43.43c-0.74-0.91-2.25-1.12-3.24-0.47c-0.99,0.66-1.29,2.09-0.65,3.05
					c0.64,0.97,2.13,1.33,3.18,0.76C61.13,46.21,61.81,44.67,60.79,43.43z"/>
				<path class="st27" d="M97.78,43c-0.67-0.76-2.06-0.73-2.76,0c-0.71,0.73-0.68,1.96-0.02,2.72s1.85,1.03,2.84,0.73
					c0.84-0.25,1.56-0.93,1.65-1.76C99.57,43.86,98.84,42.98,97.78,43z"/>
				<line class="st23" x1="95.23" y1="44.22" x2="98.15" y2="44.88"/>
				<path class="st10" d="M60.51,43.26c-0.02-0.08-0.13-0.14-0.22-0.12c-0.09,0.01-0.17,0.08-0.2,0.16c-0.03,0.08-0.03,0.17,0,0.26
					c0.02,0.07,0.07,0.14,0.13,0.19c0.06,0.05,0.15,0.07,0.22,0.05c0.13-0.03,0.21-0.16,0.2-0.29
					C60.64,43.38,60.56,43.27,60.51,43.26z"/>
				<path class="st10" d="M98.65,43.35c-0.04-0.18-0.29-0.28-0.47-0.2c-0.18,0.07-0.28,0.27-0.27,0.46c0.02,0.25,0.23,0.48,0.5,0.51
					c0.26,0.03,0.53-0.18,0.55-0.43C98.98,43.44,98.71,43.2,98.65,43.35z"/>
				<path class="st28" d="M49.69,30.75c1.9-1.81,2.79-2.25,4.74-3.52c1.2-0.78,1.72-8.1-1.45-8.7c-3.38-0.64-12.93,6.83-10.62,10.15
					C42.88,29.43,49.13,30.27,49.69,30.75z"/>
				<path class="st28" d="M102.04,27.76c2.46,1.45,6.14,3.06,6.45,2.99c4.15-0.89,6.79-1.9,6.1-5.41c-0.43-2.2-7.52-6.18-9.94-5.41
					C101.31,21,101.44,24.43,102.04,27.76z"/>
				<path class="st27" d="M77.47,48.9c-0.5-1.01-1.43-1.78-1.99-2.76c-0.56-0.99-0.57-2.45,0.46-2.99c0.49-0.26,1.08-0.24,1.64-0.21
					c1.14,0.06,2.27,0.11,3.41,0.17c0.89,0.04,1.91,0.16,2.41,0.86c0.51,0.72,0.21,1.69-0.11,2.5c-0.44,1.14-0.93,2.35-1.97,3.06
					C80.29,50.24,78.18,50.34,77.47,48.9z"/>
				<path class="st23" d="M79.49,49.7c-0.03,1.72-0.06,3.44-0.09,5.15"/>
				<path class="st29" d="M66.5,32.05c0.66,0.62,1.32,1.24,1.98,1.86"/>
				<path class="st29" d="M72.63,29.74c0.39,0.94,0.79,1.89,1.18,2.83"/>
				<path class="st29" d="M80.52,29.1c0.03,0.99,0.06,1.97,0.09,2.95"/>
				<path class="st30" d="M89.34,30.58c-0.43,0.87-0.86,1.75-1.3,2.62"/>
				<path class="st31" d="M110.08,23.53c0.75,0.23,1.51,0.48,2.11,0.97c0.6,0.49,0.98,1.28,0.74,1.99c-0.16,0.45-0.53,0.8-0.9,1.12
					c-0.6,0.52-1.21,1.02-1.84,1.5c-0.2,0.16-0.41,0.31-0.66,0.39c-0.25,0.07-0.55,0.04-0.73-0.13c-0.18-0.18-0.2-0.45-0.14-0.69
					c0.07-0.24,0.21-0.45,0.32-0.66c0.62-1.14,0.58-2.58-0.1-3.69c-0.11-0.19-0.25-0.37-0.31-0.58c-0.07-0.21-0.05-0.45,0.1-0.61
					c0.27-0.29,0.79-0.13,1.1,0.12C110.08,23.51,110.37,23.85,110.08,23.53z"/>
				<path class="st31" d="M48.1,22.81c1.04-0.79,2.13-1.52,3.27-2.18c0.42-0.24,0.97-0.47,1.36-0.2c0.29,0.2,0.34,0.59,0.37,0.93
					c0.1,1.23,0.21,2.45,0.31,3.68c0.03,0.38,0.06,0.78-0.07,1.14c-0.14,0.36-0.48,0.68-0.89,0.67c-0.44-0.01-0.77-0.4-0.96-0.78
					c-0.2-0.38-0.36-0.8-0.72-1.04c-0.47-0.31-1.13-0.2-1.64,0.06c-0.51,0.26-0.94,0.64-1.45,0.89c-0.33,0.16-0.71,0.25-1.06,0.16
					c-0.55-0.14-0.87-0.73-0.81-1.27c0.06-0.53,0.44-1,0.9-1.31S47.73,23.09,48.1,22.81z"/>
				<path class="st31" d="M122.17,57.5c6.35,8.4,13.34,16.36,20.91,23.8c0.58,0.57,1.38,1.19,2.16,0.89
					c0.59-0.23,0.85-0.94,0.74-1.54c-0.11-0.6-0.5-1.12-0.87-1.61c-6.03-7.86-12.53-15.4-19.75-22.29c-0.42-0.4-0.86-0.81-1.41-1.02
					s-1.26-0.16-1.66,0.26C121.88,56.41,121.97,57.24,122.17,57.5z"/>
				<path class="st31" d="M121.6,78.99c-3.65,5.57-8.8,10.25-14.83,13.44c-3.15,1.67-6.53,2.94-9.75,4.49
					c-3.22,1.55-6.35,3.43-8.65,6.08c-0.76,0.87-1.42,2.15-0.71,3.05c0.52,0.65,1.5,0.74,2.36,0.67c3.51-0.28,6.62-2.18,9.51-4.09
					c5.32-3.52,10.47-7.28,15.41-11.27c3.31-2.67,6.56-5.48,9.03-8.88c0.53-0.73,1.03-1.51,1.15-2.38c0.12-0.87-0.22-1.87-1.03-2.29
					C123.26,77.38,122.28,77.94,121.6,78.99z"/>
				<path class="st31" d="M101.51,57.55c1.47-0.44,3.09-0.23,4.48,0.4s2.56,1.63,3.51,2.78c0.66,0.79,1.37,1.73,2.43,1.82
					c1.03,0.08,1.91-0.72,2.4-1.59c1.35-2.42,0.41-5.76-2.03-7.22c-1.56-0.93-3.52-1.11-5.33-0.8c-1.81,0.3-3.51,1.05-5.14,1.85
					c-0.54,0.27-1.1,0.55-1.48,1c-0.39,0.45-0.57,1.11-0.28,1.62C100.35,57.92,101.19,58.12,101.51,57.55z"/>
				<path class="st31" d="M89.28,78.68c2.77-2.46,6.38-4.05,10.15-4.48c0.43-0.05,0.87-0.08,1.27,0.06c0.4,0.14,0.74,0.51,0.71,0.92
					c-0.04,0.46-0.5,0.76-0.93,0.99c-2.94,1.57-6.11,2.77-9.38,3.55c-0.46,0.11-0.94,0.21-1.39,0.1
					C89.26,79.71,88.7,79.19,89.28,78.68z"/>
				<path class="st31" d="M98.18,30.95c5.28,1.28,10.24,3.73,14.37,7.11c0.77,0.63,1.52,1.31,1.95,2.17
					c0.43,0.87,0.47,1.97-0.15,2.73c-0.65,0.8-1.87,1.03-2.91,0.81c-1.04-0.22-1.95-0.8-2.83-1.37c-3.94-2.54-7.88-5.09-11.82-7.64
					c-0.61-0.39-1.23-0.8-1.65-1.37c-0.42-0.57-0.6-1.36-0.26-1.97C95.22,30.81,96.2,30.47,98.18,30.95z"/>
				<path class="st31" d="M93.96,17.66c-0.14,1.73-1.19,3.37-2.73,4.29C90.89,20.16,91.89,18.2,93.96,17.66z"/>
				<path class="st31" d="M87.51,15.21c0.05,1.53-0.3,3.08-1,4.46c-0.21,0.42-0.65,0.89-1.1,0.71c-0.3-0.13-0.4-0.49-0.43-0.81
					C84.83,17.86,85.49,16.08,87.51,15.21z"/>
				<path class="st31" d="M80.13,15.83c0.76-0.09,1.53-0.19,2.29-0.28c0.21,1.89-0.33,3.85-1.49,5.4c-0.24,0.32-0.55,0.65-0.96,0.65
					c-0.55,0-0.88-0.58-1.02-1.08c-0.34-1.23-0.26-2.57,0.23-3.76c0.26-0.62,0.68-1.25,1.34-1.48S82.09,15.44,80.13,15.83z"/>
				<path class="st31" d="M73.27,16.94c1.37,0.49,2.28,1.94,2.09,3.32c-0.08,0.57-0.46,1.21-1.07,1.23
					c-0.4,0.01-0.75-0.25-1.01-0.53C72.22,19.8,72.1,17.95,73.27,16.94z"/>
				<path class="st31" d="M65.15,16.41c1.5,0.78,2.65,2.14,3.14,3.69c0.27,0.85,0.2,2-0.66,2.34c-0.53,0.21-1.17,0-1.57-0.39
					c-0.41-0.39-0.63-0.92-0.81-1.43C64.87,19.54,64.62,18.42,65.15,16.41z"/>
				<path class="st31" d="M61.66,22.37c0.68,0.27,1.39,0.56,1.84,1.11c0.46,0.55,0.54,1.44-0.02,1.9c-0.63,0.51-1.68,0.15-2.12-0.52
					C60.92,24.19,60.92,23.35,61.66,22.37z"/>
				<path class="st31" d="M96.35,118.43c-1.37,2.84-1.58,6.17-0.56,9.14c1.52-3.05,1.67-6.69,0.42-9.85
					C95.69,118.03,95.33,118.58,96.35,118.43z"/>
				<path class="st31" d="M66.93,119c-0.75,4.55-0.6,9.23,0.46,13.72c0.93-3.29,1.2-6.75,0.79-10.13
					C68.06,121.61,67.75,120.46,66.93,119z"/>
				<path class="st31" d="M65.24,149.9c1.78,2.85,3.65,5.65,5.6,8.4c0.71,1.01,1.78,2.14,3.02,1.83c0.72-0.18,1.22-0.84,1.36-1.53
					c0.15-0.69,0-1.41-0.22-2.08c-0.92-2.93-2.98-5.39-4.99-7.77c-0.63-0.75-1.29-1.52-2.17-1.97c-0.89-0.46-2.08-0.53-2.85,0.09
					C64.23,147.47,64.48,148.68,65.24,149.9z"/>
				<path class="st31" d="M96.63,149.36c2.17,1.05,3.22,3.41,3.97,5.61s1.47,4.59,3.36,6.05c-0.08-4.51-2.14-8.97-5.58-12.07
					c-0.3-0.27-0.66-0.54-1.06-0.5C96.91,148.5,96.63,149.08,96.63,149.36z"/>
				<path class="st31" d="M35.15,62.22c-4.17,1.68-7.5,5.16-8.85,9.28c-0.18,0.54-0.26,1.26,0.25,1.56c0.4,0.24,0.93,0.05,1.35-0.16
					c2.7-1.33,5.08-3.25,6.91-5.56c0.42-0.53,0.82-1.1,0.96-1.75c0.14-0.65-0.04-1.4-0.59-1.8C34.61,63.4,33.67,63.53,35.15,62.22z"
					/>
				<path class="st31" d="M79.06,43.81c0.89,0.05,1.78,0.1,2.66,0.15c0.21,0.01,0.44,0.03,0.6,0.17c0.19,0.17,0.21,0.44,0.2,0.69
					c-0.03,0.99-0.21,1.97-0.54,2.91c-0.09,0.24-0.19,0.49-0.37,0.68c-0.18,0.19-0.47,0.31-0.73,0.24
					c-0.48-0.13-0.55-0.74-0.46-1.21c0.1-0.46,0.26-0.99-0.03-1.37c-0.21-0.28-0.6-0.37-0.95-0.44c-0.48-0.1-0.96-0.2-1.45-0.3
					c-0.39-0.08-0.84-0.21-0.95-0.58c-0.09-0.31,0.14-0.64,0.45-0.77c0.31-0.13,0.66-0.12,0.99-0.09
					C78.84,43.93,79.18,43.98,79.06,43.81z"/>
			</g>
		</g>
		<g id="Ebene_33">
			<g>
				<g>
					<path d="M19.66,35.39c0.65,0.37,1.31,0.75,1.96,1.12c0.99,0.56,2.41-1.75,1.41-2.32c-0.65-0.37-1.31-0.75-1.96-1.12
						C20.09,32.51,18.66,34.82,19.66,35.39L19.66,35.39z"/>
				</g>
			</g>
			<g>
				<g>
					<path d="M17.73,39.44c0.92,0.5,1.83,0.99,2.75,1.49c1,0.54,2.42-1.78,1.41-2.32c-0.92-0.5-1.83-0.99-2.75-1.49
						C18.14,36.58,16.73,38.9,17.73,39.44L17.73,39.44z"/>
				</g>
			</g>
			<g>
				<g>
					<path d="M16.73,44.11c0.65,0.13,1.31,0.25,1.96,0.37c0.61,0.12,1.21-0.69,1.38-1.15c0.17-0.46,0.24-1.18-0.41-1.31
						c-0.65-0.13-1.31-0.25-1.96-0.37c-0.61-0.12-1.21,0.69-1.38,1.15C16.15,43.26,16.08,43.98,16.73,44.11L16.73,44.11z"/>
				</g>
			</g>
			<g>
				<g>
					<path d="M109.89,118.2c0.35,0.45,0.7,0.9,1.05,1.35c0.38,0.49,1.1,0.04,1.39-0.32c0.34-0.41,0.74-1.21,0.36-1.71
						c-0.35-0.45-0.7-0.9-1.05-1.35c-0.38-0.49-1.1-0.04-1.39,0.32C109.91,116.9,109.5,117.7,109.89,118.2L109.89,118.2z"/>
				</g>
			</g>
			<g>
				<g>
					<path d="M113.43,115.52c0.47,0.45,0.94,0.9,1.4,1.35c0.45,0.43,1.06,0.09,1.39-0.32c0.22-0.27,0.42-0.59,0.47-0.94
						c0.04-0.23,0.08-0.59-0.11-0.77c-0.47-0.45-0.94-0.9-1.4-1.35c-0.45-0.43-1.06-0.09-1.39,0.32c-0.22,0.27-0.42,0.59-0.47,0.94
						C113.27,114.98,113.24,115.34,113.43,115.52L113.43,115.52z"/>
				</g>
			</g>
			<g>
				<g>
					<path d="M117.87,113.14c0.41,0.39,0.82,0.78,1.24,1.17c0.19,0.18,0.36,0.25,0.64,0.19c0.29-0.06,0.58-0.3,0.76-0.51
						c0.22-0.27,0.42-0.59,0.47-0.94c0.04-0.23,0.08-0.59-0.11-0.77c-0.41-0.39-0.82-0.78-1.24-1.17c-0.19-0.18-0.36-0.25-0.64-0.19
						c-0.29,0.06-0.58,0.3-0.76,0.51c-0.22,0.27-0.42,0.59-0.47,0.94C117.72,112.6,117.68,112.96,117.87,113.14L117.87,113.14z"/>
				</g>
			</g>
		</g>
	</g>
	<g>
		<g id="Ebene_2_Kopie_4_">
			<g>
				<path class="st32" d="M132.79,53.29c4.32,1.85,17.46,7.53,19.42,6.44c3.18-1.78,17.71-28.94,16.24-31.61
					c-3.09-5.58-56.36-30.19-62.96-27.63c-5.95,2.31-10.48,31.26-9.44,33.52c1.57,3.42,11,5.71,14.63,8.72
					c1.62,1.34,6.55,13.07,8.65,13.78c1.19,0.41,9.78-1.31,13.31-3.27"/>
				<g>
					<path class="st33" d="M132.68,53.57c4.24,1.82,8.5,3.64,12.87,5.14c1.05,0.36,2.11,0.7,3.18,0.98
						c0.79,0.21,1.61,0.41,2.43,0.47c0.5,0.03,1,0.01,1.39-0.25c0.3-0.2,0.55-0.47,0.79-0.73c0.78-0.86,1.43-1.81,2.08-2.77
						c0.92-1.36,1.78-2.76,2.62-4.17c2.02-3.4,3.9-6.87,5.68-10.39c1.56-3.1,3.08-6.24,4.27-9.51c0.37-1.01,0.74-2.05,0.88-3.12
						c0.04-0.31,0.07-0.64-0.01-0.95c-0.07-0.27-0.26-0.52-0.45-0.75c-0.55-0.65-1.27-1.21-1.96-1.73
						c-1.03-0.77-2.12-1.47-3.22-2.15c-3.07-1.9-6.27-3.62-9.49-5.29c-3.94-2.04-7.94-3.98-11.98-5.84
						c-4.19-1.94-8.41-3.79-12.68-5.55c-3.81-1.57-7.66-3.07-11.57-4.39c-2.83-0.96-5.74-1.9-8.68-2.37
						c-0.9-0.15-1.84-0.26-2.72-0.16c-0.92,0.11-1.61,0.6-2.19,1.21c-0.92,0.97-1.57,2.18-2.13,3.36c-0.75,1.58-1.35,3.23-1.89,4.89
						c-1.24,3.85-2.15,7.81-2.89,11.79c-0.61,3.26-1.15,6.55-1.36,9.88c-0.05,0.85-0.14,1.76,0.03,2.62
						c0.11,0.55,0.53,1.08,0.95,1.5c0.77,0.78,1.74,1.39,2.71,1.94c2.42,1.35,5.02,2.35,7.51,3.55c1.11,0.53,2.21,1.1,3.2,1.82
						c0.34,0.24,0.47,0.33,0.7,0.61c0.18,0.22,0.33,0.44,0.48,0.67c1.05,1.64,1.9,3.37,2.8,5.07c0.99,1.87,1.96,3.76,3.13,5.55
						c0.4,0.61,0.82,1.25,1.36,1.77c0.41,0.4,0.8,0.6,1.38,0.61c0.86,0.02,1.72-0.12,2.55-0.26c1.24-0.2,2.47-0.46,3.68-0.76
						c2.33-0.57,4.73-1.24,6.77-2.37c0.35-0.19-0.09-0.69-0.44-0.49c-0.99,0.54-2.08,0.95-3.17,1.31c-1.24,0.41-2.51,0.76-3.79,1.06
						c-1.16,0.28-2.33,0.52-3.53,0.7c-0.73,0.11-1.61,0.27-2.32,0.2c-0.05,0-0.09-0.01-0.13-0.02c-0.12-0.02,0.02,0.01-0.06-0.02
						c-0.04-0.01-0.07-0.03-0.11-0.05c0.08,0.04-0.07-0.05-0.1-0.07c-0.2-0.15-0.36-0.32-0.55-0.53c-0.52-0.61-0.95-1.28-1.36-1.95
						c-1.13-1.85-2.12-3.76-3.12-5.66c-0.83-1.57-1.62-3.2-2.65-4.69c-0.4-0.58-0.88-0.98-1.49-1.39c-1.02-0.68-2.14-1.24-3.25-1.78
						c-2.46-1.17-5.04-2.16-7.4-3.51c-0.92-0.53-1.85-1.12-2.53-1.9c-0.13-0.15-0.25-0.31-0.35-0.47c-0.06-0.09-0.1-0.18-0.15-0.28
						c-0.01-0.02-0.06-0.16-0.02-0.03c-0.04-0.11-0.06-0.22-0.07-0.33c-0.05-0.32-0.05-0.67-0.04-1.07
						c0.01-0.54,0.04-1.08,0.08-1.62c0.11-1.49,0.29-2.97,0.5-4.45c0.54-3.85,1.28-7.67,2.21-11.43c0.88-3.54,1.88-7.11,3.48-10.39
						c0.54-1.11,1.17-2.24,2.07-3.13c0.27-0.27,0.69-0.58,1.04-0.72c0.06-0.02,0.12-0.05,0.19-0.06c0.03-0.01,0.06-0.02,0.09-0.02
						c0.1-0.03-0.04,0,0.07-0.01c0.16-0.03,0.32-0.05,0.48-0.06c0.45-0.03,0.7-0.02,1.16,0.02c0.52,0.05,1.04,0.12,1.56,0.22
						c1.29,0.23,2.57,0.56,3.83,0.92c3.5,0.99,6.94,2.23,10.34,3.54c4.12,1.58,8.19,3.28,12.23,5.05c4.15,1.82,8.27,3.73,12.34,5.72
						c3.62,1.77,7.21,3.6,10.72,5.56c2.53,1.41,5.08,2.87,7.4,4.59c0.39,0.29,0.78,0.59,1.14,0.91c0.07,0.06,0.07,0.06,0.17,0.15
						c0.07,0.07,0.14,0.13,0.21,0.2c0.12,0.12,0.23,0.24,0.34,0.36c0.04,0.05,0.09,0.11,0.13,0.16c0.02,0.03,0.04,0.06,0.06,0.09
						c-0.06-0.09,0,0.01,0.02,0.03c0.03,0.05,0.05,0.09,0.08,0.14c0.04,0.08-0.01-0.06,0,0.01c0.01,0.03,0.02,0.05,0.02,0.08
						c0.01,0.03,0.03,0.22,0.02,0.11c0,0.07,0.01,0.15,0,0.22c-0.01,0.18-0.03,0.36-0.06,0.54c-0.16,1-0.54,2.06-0.91,3.05
						c-0.55,1.48-1.18,2.94-1.83,4.37c-1.59,3.51-3.35,6.95-5.2,10.33c-1.67,3.07-3.41,6.11-5.37,9.02
						c-0.64,0.94-1.29,1.89-2.06,2.75c-0.26,0.29-0.39,0.44-0.69,0.64c-0.13,0.09-0.2,0.12-0.34,0.13c-0.28,0.04-0.49,0.03-0.77,0
						c-0.83-0.08-1.67-0.29-2.48-0.52c-1.08-0.3-2.14-0.65-3.19-1.02c-2.4-0.84-4.77-1.78-7.12-2.75c-1.78-0.73-3.54-1.48-5.3-2.24
						C132.5,52.84,132.28,53.39,132.68,53.57L132.68,53.57z"/>
				</g>
			</g>
		</g>
		<g id="Ebene_7_3_">
			<g class="st14">
				<g>
					<path class="st10" d="M151.24,23.01c1.27,0.73,2.6,1.35,3.91,2c0.36,0.18,0.72,0.36,1.08,0.55c0.18,0.09,0.35,0.18,0.52,0.27
						c0.09,0.05,0.17,0.09,0.26,0.14c0.29,0.15-0.24-0.13,0.05,0.03c0.68,0.37,1.35,0.75,1.99,1.16c0.3,0.19,0.6,0.39,0.88,0.6
						c0.13,0.1,0.26,0.19,0.38,0.29c0.06,0.05,0.12,0.1,0.18,0.15c0.24,0.2-0.16-0.16-0.02-0.02c0.2,0.2,0.4,0.39,0.57,0.6
						c0.04,0.05,0.07,0.1,0.11,0.15c-0.06-0.06-0.18-0.28-0.08-0.11c0.06,0.1,0.1,0.23,0.17,0.33c-0.04-0.05-0.1-0.33-0.05-0.14
						c0.01,0.05,0.02,0.09,0.03,0.14c0.07,0.27,0.03-0.25,0-0.08c-0.01,0.09-0.07,0.4,0,0.11c0.06-0.28,0.01-0.05-0.01,0.01
						c-0.02,0.06-0.04,0.13-0.06,0.19c-0.05,0.14-0.1,0.29-0.15,0.43c-0.73,1.95-1.74,3.81-2.7,5.66c-1.36,2.62-2.77,5.21-4.18,7.8
						c-1.34,2.45-2.69,4.9-4.01,7.35c-0.14,0.25-0.27,0.51-0.41,0.76c-0.29,0.55,0.19,1.38,0.83,1.6c0.75,0.26,1.38-0.02,1.7-0.61
						c1.3-2.43,2.63-4.84,3.95-7.25c1.46-2.66,2.91-5.32,4.31-8.01c1.04-1.98,2.11-3.97,2.94-6.05c0.21-0.53,0.48-1.14,0.46-1.73
						c-0.05-1.38-1.17-2.49-2.32-3.37c-1.3-0.98-2.78-1.76-4.24-2.51c-1.35-0.7-2.73-1.34-4.07-2.05c-0.07-0.03-0.13-0.07-0.2-0.11
						c-0.2-0.11,0.32,0.17,0.08,0.04c-0.13-0.07-0.25-0.14-0.38-0.21c-0.61-0.35-1.45-0.4-1.86,0.16
						C150.54,21.78,150.58,22.63,151.24,23.01L151.24,23.01z"/>
				</g>
			</g>
			<g class="st14">
				<g>
					<path class="st10" d="M147.06,55.09c-0.05,0.26-0.1,0.52-0.16,0.77c0.78-0.17,1.57-0.34,2.35-0.51
						c-0.25-0.3-0.5-0.61-0.75-0.91c-0.14,0.61-0.28,1.22-0.43,1.83c-0.19,0.05-0.35,0.07-0.56,0.02c-0.08-0.01-0.16-0.04-0.22-0.09
						c-0.12-0.07-0.14-0.08-0.06-0.02c-0.12-0.1-0.21-0.2-0.29-0.33c0.04,0.08,0.04,0.07-0.01-0.05c-0.05-0.1-0.07-0.2-0.06-0.3
						c0.36-0.34,0.71-0.68,1.07-1.02c0.02,0,0.34,0.04,0.17,0c0.17,0.03,0.3,0.08,0.45,0.17c-0.15-0.09,0.1,0.1,0.12,0.12
						c-0.12-0.12,0.07,0.11,0.09,0.13c0.07,0.13,0.08,0.27,0.08,0.4c0.01-0.22-0.18,0.4-0.17,0.38c0.08-0.13-0.09,0.08-0.11,0.1
						c-0.06,0.03-0.12,0.06-0.18,0.09c-0.22,0.04-0.27,0.05-0.17,0.04c0.16-0.01-0.31-0.02-0.16,0c0.07,0.01,0.04,0-0.08-0.02
						c-0.08-0.01-0.15-0.04-0.22-0.08c-0.28-0.14-0.47-0.39-0.49-0.67c-0.02-0.27-0.05,0.11,0.01-0.15
						c0.06-0.26-0.08,0.09,0.05-0.15c0.02-0.07,0.07-0.12,0.13-0.16c0.09-0.07,0.11-0.09,0.06-0.05c-0.09,0.06,0.31-0.12,0.1-0.07
						c0.63,0.34,1.27,0.67,1.9,1.01c-0.03-0.12-0.07-0.24-0.1-0.36c-0.17-0.62-0.85-1.18-1.58-1.08c-0.67,0.09-1.23,0.66-1.05,1.33
						c0.03,0.12,0.07,0.24,0.1,0.36c0.11,0.38,0.33,0.68,0.72,0.89c0.41,0.22,0.76,0.21,1.18,0.11c0.84-0.2,1.29-1.12,1.08-1.88
						c-0.24-0.91-1.26-1.56-2.26-1.41c-0.96,0.15-1.68,0.96-1.4,1.89c0.27,0.9,1.22,1.58,2.24,1.48c0.58-0.06,1.03-0.49,1.07-1.02
						c0.04-0.57-0.26-1.18-0.8-1.55c-0.58-0.4-1.21-0.48-1.85-0.31c-0.84,0.22-0.92,1.23-0.43,1.83c0.25,0.3,0.5,0.61,0.75,0.91
						c0.34,0.41,0.95,0.57,1.44,0.47c0.55-0.12,0.81-0.5,0.91-0.98c0.05-0.26,0.1-0.52,0.16-0.77c0.06-0.27-0.13-0.67-0.32-0.89
						c-0.22-0.25-0.59-0.46-0.93-0.5c-0.34-0.03-0.7,0.02-0.96,0.21C147.24,54.5,147.13,54.76,147.06,55.09L147.06,55.09z"/>
				</g>
			</g>
		</g>
		<g id="Ebene_2_7_">
			<g>
				<g>
					<path d="M129.69,55.2c4.25,1.82,8.51,3.65,12.88,5.15c1.05,0.36,2.11,0.7,3.18,0.99c0.85,0.23,1.73,0.46,2.6,0.52
						c0.68,0.05,1.33,0.01,1.86-0.35c0.34-0.23,0.63-0.53,0.89-0.83c0.78-0.86,1.44-1.81,2.08-2.76c0.92-1.37,1.78-2.77,2.62-4.18
						c2.04-3.43,3.95-6.94,5.74-10.5c1.56-3.1,3.08-6.24,4.26-9.5c0.38-1.04,0.75-2.12,0.89-3.22c0.05-0.35,0.06-0.74-0.03-1.09
						c-0.1-0.38-0.35-0.73-0.62-1.04c-0.6-0.7-1.37-1.3-2.13-1.85c-1.04-0.77-2.14-1.48-3.25-2.16c-3.12-1.92-6.38-3.67-9.64-5.36
						c-3.94-2.04-7.94-3.97-11.97-5.83c-4.18-1.93-8.4-3.79-12.66-5.54c-3.8-1.56-7.63-3.06-11.52-4.38
						c-2.9-0.98-5.88-1.95-8.89-2.45c-0.96-0.16-1.97-0.28-2.91-0.18c-1.09,0.12-1.9,0.67-2.59,1.38c-0.97,1-1.63,2.25-2.22,3.47
						c-0.76,1.58-1.35,3.22-1.89,4.88c-1.25,3.88-2.16,7.88-2.91,11.9c-0.61,3.27-1.14,6.58-1.34,9.92
						c-0.05,0.89-0.14,1.84,0.05,2.74c0.14,0.66,0.62,1.3,1.12,1.8c0.83,0.83,1.85,1.49,2.9,2.07c2.48,1.37,5.14,2.41,7.69,3.64
						c0.28,0.14,0.56,0.27,0.84,0.42c0.07,0.04,0.15,0.08,0.22,0.11c0.04,0.02,0.29,0.15,0.05,0.02c0.14,0.08,0.28,0.15,0.42,0.23
						c0.52,0.29,1.02,0.6,1.49,0.95c0.09,0.07,0.18,0.13,0.27,0.2c0.05,0.04,0.1,0.09,0.15,0.12c0.11,0.07-0.21-0.21-0.13-0.11
						c0.07,0.08,0.15,0.16,0.22,0.24c0.08,0.1,0.15,0.2,0.23,0.3c0.17,0.23-0.11-0.17,0.02,0.02c0.06,0.08,0.11,0.17,0.17,0.25
						c1.04,1.63,1.9,3.35,2.8,5.04c0.99,1.87,1.97,3.76,3.15,5.55c0.43,0.65,0.87,1.33,1.46,1.89c0.28,0.26,0.57,0.51,0.93,0.66
						c0.37,0.15,0.72,0.17,1.1,0.17c0.88,0.01,1.74-0.13,2.59-0.26c1.29-0.21,2.56-0.48,3.81-0.78c2.38-0.58,4.79-1.26,6.87-2.4
						c0.44-0.24,0.43-0.89,0.11-1.27c-0.38-0.43-0.97-0.46-1.41-0.21c-0.06,0.03-0.42,0.21-0.17,0.09
						c-0.11,0.05-0.22,0.11-0.33,0.16c-0.26,0.12-0.52,0.23-0.78,0.34c-0.57,0.23-1.15,0.44-1.74,0.63
						c-1.24,0.41-2.51,0.75-3.79,1.05c-0.14,0.03-0.27,0.06-0.41,0.1c-0.03,0.01-0.3,0.07-0.08,0.02c-0.08,0.02-0.16,0.04-0.24,0.05
						c-0.32,0.07-0.63,0.13-0.95,0.19c-0.55,0.11-1.11,0.21-1.67,0.29c-0.45,0.07-0.91,0.13-1.38,0.17
						c-0.17,0.01-0.35,0.03-0.52,0.03c-0.07,0-0.17-0.01-0.24,0c0.25-0.06,0.18,0.01,0.02,0c-0.06,0-0.11-0.02-0.17-0.02
						c-0.19-0.01,0.17,0.06,0.14,0.04c-0.03-0.02-0.1-0.05-0.13-0.06c0.26,0.05,0.22,0.14,0.08,0.03c-0.05-0.04-0.1-0.07-0.14-0.11
						c-0.17-0.13,0.19,0.19,0.04,0.04c-0.11-0.11-0.22-0.22-0.32-0.33c-0.24-0.27-0.45-0.56-0.66-0.86
						c-0.04-0.05-0.16-0.2,0.02,0.03c-0.03-0.04-0.06-0.09-0.09-0.14c-0.06-0.09-0.11-0.17-0.17-0.26c-0.13-0.2-0.26-0.4-0.38-0.6
						c-1.14-1.84-2.12-3.74-3.13-5.63c-0.87-1.63-1.69-3.3-2.77-4.84c-0.42-0.6-0.93-1.04-1.56-1.47c-1.09-0.74-2.28-1.34-3.47-1.9
						c-1.25-0.59-2.52-1.15-3.78-1.72c-0.62-0.28-1.24-0.57-1.86-0.87c-0.28-0.14-0.56-0.28-0.84-0.42
						c-0.07-0.04-0.15-0.08-0.22-0.12c-0.24-0.13,0.13,0.08-0.02-0.01c-0.15-0.09-0.31-0.17-0.46-0.26c-0.5-0.29-1-0.59-1.46-0.93
						c-0.2-0.15-0.39-0.31-0.59-0.46c-0.18-0.14,0.16,0.16,0,0c-0.04-0.04-0.09-0.09-0.14-0.13c-0.09-0.09-0.17-0.17-0.25-0.26
						c-0.08-0.09-0.15-0.18-0.22-0.27c-0.02-0.03-0.04-0.06-0.07-0.09c-0.13-0.16,0.11,0.2,0.02,0.02c-0.07-0.12-0.13-0.3-0.22-0.41
						c0.17,0.22,0.08,0.26,0.06,0.14c0-0.02-0.01-0.04-0.02-0.07c-0.02-0.06-0.03-0.13-0.04-0.19c-0.01-0.07-0.02-0.14-0.03-0.21
						c-0.02-0.21,0.01,0.16,0.01,0.09c0-0.05-0.01-0.09-0.01-0.14c-0.01-0.21-0.01-0.42-0.01-0.63c0-0.55,0.03-1.09,0.07-1.63
						c0.11-1.48,0.28-2.96,0.49-4.43c0.26-1.84,0.56-3.66,0.9-5.48c0.19-1,0.39-2,0.61-3c0.05-0.24,0.1-0.47,0.15-0.71
						c0.01-0.06,0.09-0.41,0.03-0.15c0.03-0.15,0.07-0.3,0.1-0.45c0.11-0.49,0.23-0.98,0.35-1.47c0.87-3.53,1.86-7.09,3.47-10.36
						c0.16-0.33,0.33-0.66,0.51-0.98c0.04-0.07,0.19-0.3,0.01-0.03c0.05-0.07,0.09-0.15,0.13-0.22c0.09-0.14,0.18-0.29,0.27-0.43
						c0.31-0.47,0.66-0.92,1.07-1.32c0.02-0.02,0.05-0.04,0.07-0.07c0.01-0.01-0.2,0.17-0.1,0.09c0.05-0.04,0.09-0.08,0.14-0.12
						c0.09-0.08,0.19-0.15,0.29-0.22c0.09-0.06,0.18-0.11,0.27-0.16c0.16-0.1-0.26,0.11-0.04,0.02c0.05-0.02,0.1-0.04,0.15-0.06
						c0.06-0.02,0.12-0.04,0.18-0.06c0.03-0.01,0.07-0.02,0.11-0.03c0.03-0.01-0.31,0.06-0.11,0.03c0.16-0.02,0.32-0.05,0.49-0.06
						c0.09-0.01,0.18-0.01,0.26-0.01c0.05,0,0.1,0,0.15,0c0.25,0-0.14-0.01-0.08,0c0.22,0.01,0.44,0.02,0.65,0.04
						c0.53,0.05,1.05,0.13,1.57,0.22c0.61,0.11,1.22,0.25,1.82,0.39c0.16,0.04,0.32,0.08,0.47,0.12c0.07,0.02,0.15,0.04,0.22,0.06
						c0.04,0.01,0.09,0.02,0.13,0.03c0.25,0.07-0.21-0.06-0.04-0.01c0.36,0.1,0.71,0.19,1.07,0.29c3.5,1,6.93,2.24,10.33,3.55
						c4.09,1.57,8.14,3.26,12.15,5.02c4.16,1.83,8.28,3.73,12.36,5.73c1.9,0.93,3.79,1.87,5.67,2.84c0.89,0.46,1.79,0.93,2.67,1.41
						c-0.24-0.13-0.02-0.01,0.09,0.05c0.11,0.06,0.22,0.12,0.33,0.18c0.21,0.12,0.43,0.23,0.64,0.35c0.4,0.22,0.8,0.44,1.19,0.66
						c2.54,1.41,5.1,2.87,7.42,4.59c0.39,0.29,0.78,0.59,1.14,0.9c0.03,0.03,0.07,0.06,0.1,0.09c-0.31-0.26-0.13-0.12-0.06-0.05
						c0.07,0.07,0.15,0.14,0.22,0.2c0.12,0.12,0.24,0.24,0.35,0.37c0.05,0.05,0.09,0.11,0.13,0.16c0.02,0.03,0.04,0.05,0.06,0.08
						c0.11,0.14-0.16-0.26-0.07-0.1c0.03,0.05,0.05,0.1,0.08,0.14c0.11,0.16-0.06-0.29-0.02-0.06c0.01,0.05,0.01,0.12,0.03,0.17
						c-0.07-0.28-0.01-0.16-0.01,0c0,0.17-0.02,0.34-0.05,0.51c-0.01,0.09-0.03,0.19-0.05,0.28c-0.01,0.06-0.02,0.11-0.03,0.16
						c-0.05,0.23,0.05-0.22,0.01-0.03c-0.06,0.24-0.12,0.49-0.19,0.73c-0.17,0.6-0.38,1.18-0.59,1.77c-0.54,1.47-1.16,2.9-1.8,4.32
						c-1.59,3.51-3.35,6.96-5.2,10.35c-0.46,0.85-0.93,1.69-1.41,2.54c-0.23,0.41-0.47,0.81-0.7,1.22c-0.03,0.05-0.13,0.23,0,0
						c-0.02,0.04-0.05,0.09-0.08,0.13c-0.06,0.09-0.11,0.19-0.17,0.28c-0.12,0.2-0.24,0.4-0.36,0.61c-0.82,1.38-1.67,2.75-2.56,4.08
						c-0.64,0.94-1.29,1.89-2.06,2.74c-0.13,0.14-0.27,0.26-0.39,0.4c0.26-0.28,0.08-0.07-0.01,0c-0.05,0.04-0.11,0.08-0.17,0.13
						c-0.02,0.02-0.05,0.03-0.07,0.05c-0.11,0.09,0.27-0.09,0.1-0.05c-0.04,0.01-0.1,0.03-0.14,0.05c-0.07,0.03-0.18-0.08,0.16-0.04
						c-0.03,0-0.08,0.02-0.11,0.02c-0.12,0.01-0.24,0.01-0.36,0.02c-0.16,0.01,0.28,0.02,0.11,0c-0.04,0-0.08,0-0.12-0.01
						c-0.08-0.01-0.17-0.01-0.25-0.02c-0.37-0.04-0.75-0.11-1.12-0.19c-0.21-0.04-0.41-0.09-0.62-0.14
						c-0.08-0.02-0.49-0.11-0.15-0.04c-0.12-0.03-0.25-0.07-0.37-0.1c-1.09-0.31-2.16-0.66-3.23-1.04
						c-2.39-0.84-4.75-1.78-7.09-2.74c-1.78-0.73-3.54-1.49-5.31-2.24c-0.51-0.22-1.1,0.02-1.27,0.45
						C128.88,54.46,129.18,54.98,129.69,55.2L129.69,55.2z"/>
				</g>
			</g>
		</g>
		<g id="Ebene_10_3_">
			<g>
				<path class="st10" d="M131.27,29.56c1.44-2.58,1.53-5.87,0.07-8.69c-1.47-2.82-4.52-5.06-7.85-5.56
					c-3.32-0.5-6.75,0.85-8.25,3.4c-1.59,2.72-0.93,6.2-0.02,9.36c1.78,6.19,4.37,12.26,7.68,18.03c7.22-1.28,14.5-2.58,21.14-5.19
					c2.27-0.89,4.57-2.04,5.66-4.04c1.6-2.97-0.16-7.04-3.29-9.25c-4.37-3.09-11.04-2.69-14.25,0.86"/>
				<g>
					<path class="st10" d="M131.9,29.81c1.72-3.13,1.55-7.18-0.73-10.39c-2.2-3.1-6.26-5.17-10.15-4.77
						c-1.79,0.18-3.51,0.85-4.8,1.91c-1.46,1.21-2.29,2.86-2.53,4.7c-0.26,1.98,0.12,4.05,0.64,6.03c0.53,2,1.18,3.99,1.9,5.96
						c1.44,3.97,3.2,7.87,5.28,11.65c0.26,0.47,0.52,0.94,0.79,1.41c0.13,0.23,0.44,0.44,0.73,0.39c4.31-0.76,8.62-1.53,12.83-2.58
						c2.08-0.52,4.14-1.1,6.14-1.79c1.91-0.65,3.85-1.36,5.53-2.39c1.55-0.96,2.84-2.31,3.26-4.04c0.38-1.61,0.09-3.33-0.69-4.91
						c-1.54-3.1-4.75-5.25-8.33-5.87c-3.34-0.57-6.91,0.15-9.28,2.13c-0.31,0.26-0.61,0.54-0.88,0.84c-0.52,0.57,0.58,1.34,1.1,0.77
						c1.85-2.02,4.93-2.94,7.94-2.68c3.16,0.28,6.21,1.86,7.84,4.5c0.81,1.32,1.27,2.81,1.11,4.25c-0.17,1.56-1.17,2.8-2.47,3.71
						c-1.49,1.04-3.29,1.7-5.06,2.33c-1.89,0.67-3.82,1.25-5.78,1.76c-3.93,1.03-7.97,1.78-12.01,2.5c-0.5,0.09-1.01,0.18-1.51,0.27
						c0.24,0.13,0.49,0.26,0.73,0.39c-2.04-3.55-3.81-7.22-5.28-10.96c-0.73-1.85-1.38-3.71-1.95-5.59
						c-0.57-1.86-1.12-3.76-1.29-5.66c-0.16-1.75,0.07-3.59,1.08-5.03c0.85-1.2,2.17-2.06,3.68-2.51c3.27-0.98,7.01,0.27,9.41,2.76
						c2.54,2.64,3.16,6.28,1.99,9.3c-0.15,0.38-0.32,0.74-0.51,1.1c-0.15,0.28,0.1,0.68,0.42,0.8
						C131.43,30.26,131.75,30.09,131.9,29.81L131.9,29.81z"/>
				</g>
			</g>
		</g>
		<g id="Ebene_9_3_">
			<g class="st34">
				<path d="M104.83,0.85c-6.1,15.5,6.45,41.59,16.24,56.23c-1.82-0.27-3.11-3.14-5.77-7.13c-3.77-5.64-2.15-5.51-4.64-7.65
					c-2.07-1.78-5.08-2.7-7.63-3.79c-2.35-1-5.18-2.54-6.29-4.18c-1.47-2.17,1.84-21.09,6.5-31.69"/>
				<g>
					<path d="M104.2,0.61c-1.26,3.22-1.7,6.73-1.64,10.24c0.07,3.89,0.72,7.81,1.7,11.67c1.04,4.09,2.45,8.14,4.08,12.12
						c1.61,3.92,3.46,7.79,5.49,11.58c1.82,3.4,3.79,6.75,5.92,10.02c0.24,0.36,0.47,0.72,0.71,1.08c0.21-0.27,0.43-0.54,0.64-0.81
						c-0.05-0.01-0.1-0.02-0.14-0.03c0.18,0.04,0.03,0.01-0.01-0.01c-0.08-0.03-0.16-0.06-0.23-0.09c-0.18-0.08,0.05,0.04-0.11-0.06
						c-0.09-0.06-0.18-0.12-0.27-0.19c-0.05-0.04-0.09-0.07-0.13-0.11c0.1,0.08,0,0-0.03-0.03c-0.08-0.08-0.17-0.16-0.25-0.25
						c-0.18-0.19-0.34-0.39-0.5-0.59c-0.84-1.07-1.51-2.24-2.22-3.37c-1.4-2.21-2.96-4.36-3.94-6.74c-0.19-0.47-0.36-0.96-0.63-1.41
						c-0.33-0.57-0.79-1.05-1.29-1.5c-2.49-2.23-5.83-3.1-8.85-4.48c-1.37-0.63-2.73-1.35-3.91-2.27c-0.49-0.38-0.92-0.8-1.28-1.28
						c-0.05-0.07,0.03,0.09-0.02-0.03c-0.01-0.03-0.03-0.06-0.04-0.08c-0.05-0.09,0-0.12,0.01,0.04c0-0.04-0.03-0.09-0.04-0.13
						c-0.06-0.19-0.09-0.39-0.11-0.59c-0.01-0.06-0.02-0.13-0.02-0.19c0-0.05-0.02-0.24-0.01-0.05c-0.01-0.14-0.02-0.27-0.02-0.41
						c-0.02-0.68,0-1.36,0.05-2.04c0.27-4.17,1.07-8.28,1.97-12.31c1.07-4.73,2.37-9.43,4.17-13.92c0.2-0.49,0.4-0.98,0.61-1.46
						c0.31-0.7-0.96-1.2-1.27-0.5c-1.94,4.43-3.29,9.12-4.42,13.82c-1.04,4.32-1.93,8.72-2.33,13.19c-0.12,1.34-0.23,2.72-0.04,4.09
						c0.07,0.47,0.21,0.9,0.51,1.31c0.81,1.11,2.09,1.97,3.31,2.68c1.42,0.82,2.92,1.49,4.45,2.1c1.57,0.63,3.19,1.22,4.64,2.08
						c0.36,0.21,0.71,0.44,1.04,0.69c0.15,0.11,0.29,0.23,0.44,0.34c0.06,0.05,0.12,0.1,0.18,0.15c0.1,0.09-0.06-0.06,0.06,0.06
						c0.26,0.24,0.51,0.48,0.73,0.75c0.04,0.05,0.08,0.1,0.12,0.15c0.05,0.07,0.11,0.17,0.03,0.04c0.07,0.11,0.14,0.23,0.21,0.34
						c0.12,0.22,0.21,0.45,0.31,0.68c0.28,0.7,0.57,1.39,0.92,2.07c0.67,1.3,1.49,2.53,2.3,3.77c0.87,1.33,1.68,2.69,2.57,4.01
						c0.59,0.87,1.22,1.83,2.15,2.45c0.38,0.26,0.81,0.44,1.27,0.52c0.46,0.07,0.92-0.4,0.64-0.81c-2.11-3.16-4.06-6.39-5.87-9.68
						c-2.04-3.7-3.9-7.47-5.55-11.3c-1.68-3.9-3.14-7.87-4.26-11.89c-1.06-3.81-1.84-7.69-2.05-11.56c-0.19-3.47,0.05-6.97,1.1-10.2
						c0.12-0.38,0.26-0.76,0.41-1.14C105.74,0.39,104.48-0.11,104.2,0.61L104.2,0.61z"/>
				</g>
			</g>
		</g>
	</g>
</g>
<g id="Ebene_4_5_">
</g>
<g id="Ebene_3">
</g>
</svg>
