<?xml version="1.0" encoding="utf-8"?>
<!-- Generator: Adobe Adobe Illustrator 24.2.0, SVG Export Plug-In . SVG Version: 6.00 Build 0)  -->
<svg version="1.1" xmlns="http://www.w3.org/2000/svg" xmlns:xlink="http://www.w3.org/1999/xlink" x="0px" y="0px"
	 viewBox="0 0 283.46 283.46" style="enable-background:new 0 0 283.46 283.46;" xml:space="preserve">
<style type="text/css">
	.st0{fill:#C8354F;}
	.st1{fill:#C93550;}
	.st2{opacity:0.149;}
	.st3{fill:#FFFFFF;}
	.st4{opacity:0.0314;}
	.st5{fill:#B5A8A8;}
	.st6{opacity:0.1882;enable-background:new    ;}
	.st7{opacity:0.2314;enable-background:new    ;}
	.st8{fill:none;stroke:#000000;stroke-width:2.0329;stroke-miterlimit:10;}
	.st9{fill:#BBC5C9;}
	.st10{fill:#859499;}
	.st11{opacity:0.251;enable-background:new    ;}
	.st12{opacity:0.2392;enable-background:new    ;}
	.st13{fill:none;stroke:#000000;stroke-width:2.0329;stroke-linecap:round;stroke-linejoin:round;stroke-miterlimit:10;}
	.st14{fill:#E0C2BB;}
	.st15{fill:#FCF5F5;stroke:#FFFFFF;stroke-width:0.2541;stroke-miterlimit:10;}
	.st16{fill:#C3597C;stroke:#FFFFFF;stroke-width:0.2541;stroke-miterlimit:10;}
	.st17{fill:#F0E9E5;}
	.st18{fill:#CA8C7F;}
	.st19{stroke:#000000;stroke-width:2.0329;stroke-linecap:round;stroke-linejoin:round;stroke-miterlimit:10;}
	.st20{fill:#857373;}
	.st21{fill:#F0E9E5;stroke:#F0E9E5;stroke-width:3.0493;stroke-linecap:round;stroke-miterlimit:10;}
	.st22{fill:#F0E9E5;stroke:#F0E9E5;stroke-width:3.3035;stroke-linecap:round;stroke-miterlimit:10;}
	.st23{opacity:0.2392;fill:#FFFFFF;enable-background:new    ;}
</style>
<g id="Ebene_2">
	<g>
		<g id="Ebene_2_Kopie">
			<g>
				<path class="st0" d="M213.02,94.18c8.34,1.55,33.73,6.36,36.75,3.59c4.92-4.51,19.91-59.31,16.27-63.5
					c-7.62-8.77-111.16-31.09-121.8-23.78c-9.59,6.59-6.24,60.5-3.53,64.14c4.11,5.5,21.63,5.74,29.21,9.65
					c3.38,1.75,16.65,20.79,20.64,21.22c2.26,0.24,16.72-6.37,22.18-11.35"/>
				<g>
					<path class="st1" d="M212.94,94.72c8.19,1.52,16.4,3.05,24.69,3.95c1.99,0.22,3.99,0.39,5.99,0.46
						c1.48,0.05,3.01,0.08,4.46-0.16c0.89-0.15,1.76-0.39,2.35-1.03c0.45-0.49,0.79-1.07,1.1-1.64c1.04-1.86,1.82-3.85,2.58-5.83
						c1.08-2.83,2.06-5.69,2.98-8.57c2.23-6.94,4.19-13.96,5.94-21.02c1.54-6.22,2.99-12.49,3.81-18.84
						c0.25-1.97,0.5-3.99,0.34-5.98c-0.05-0.57-0.12-1.18-0.39-1.71c-0.23-0.47-0.66-0.83-1.08-1.16c-1.22-0.95-2.7-1.65-4.14-2.3
						c-2.12-0.96-4.32-1.77-6.52-2.54c-6.16-2.15-12.47-3.93-18.8-5.6c-7.75-2.05-15.56-3.88-23.4-5.58
						c-8.14-1.76-16.31-3.36-24.52-4.76c-7.33-1.25-14.7-2.36-22.1-3.13c-5.37-0.56-10.87-1.05-16.24-0.7
						c-1.64,0.11-3.35,0.28-4.87,0.84c-1.59,0.58-2.61,1.75-3.39,3.08c-1.25,2.13-1.91,4.56-2.44,6.92
						c-0.71,3.15-1.12,6.36-1.42,9.57c-0.68,7.42-0.74,14.92-0.49,22.39c0.2,6.1,0.54,12.25,1.47,18.33
						c0.24,1.54,0.43,3.22,1.07,4.69c0.41,0.95,1.36,1.72,2.26,2.31c1.67,1.09,3.61,1.79,5.54,2.36c4.79,1.43,9.77,2.16,14.64,3.3
						c2.16,0.5,4.33,1.07,6.35,1.95c0.69,0.3,0.95,0.4,1.46,0.81c0.41,0.32,0.75,0.65,1.1,1.01c2.49,2.51,4.66,5.28,6.91,7.96
						c2.47,2.95,4.93,5.95,7.69,8.7c0.94,0.93,1.93,1.91,3.09,2.62c0.88,0.55,1.65,0.74,2.68,0.52c1.53-0.33,2.98-0.93,4.4-1.51
						c2.11-0.88,4.17-1.85,6.19-2.88c3.89-1.99,7.86-4.17,11.02-7.04c0.55-0.49-0.42-1.2-0.96-0.71c-1.53,1.38-3.29,2.56-5.08,3.66
						c-2.02,1.25-4.12,2.39-6.27,3.47c-1.94,0.97-3.91,1.89-5.94,2.7c-1.25,0.5-2.73,1.14-4.01,1.3c-0.08,0.01-0.16,0.02-0.24,0.02
						c-0.22,0.02,0.04,0.01-0.11,0c-0.07-0.01-0.14-0.03-0.21-0.04c0.16,0.04-0.15-0.06-0.21-0.09c-0.42-0.18-0.76-0.42-1.17-0.73
						c-1.16-0.88-2.17-1.91-3.16-2.94c-2.72-2.86-5.2-5.89-7.71-8.89c-2.08-2.49-4.11-5.09-6.51-7.35c-0.93-0.87-1.93-1.4-3.16-1.88
						c-2.07-0.81-4.25-1.36-6.42-1.85c-4.8-1.1-9.72-1.8-14.42-3.27c-1.82-0.57-3.7-1.26-5.2-2.38c-0.29-0.21-0.56-0.44-0.81-0.7
						c-0.13-0.14-0.25-0.29-0.37-0.44c-0.03-0.03-0.17-0.26-0.05-0.05c-0.11-0.18-0.19-0.37-0.26-0.57
						c-0.21-0.56-0.35-1.18-0.5-1.91c-0.2-0.98-0.36-1.96-0.5-2.94c-0.39-2.73-0.65-5.47-0.86-8.2c-0.55-7.14-0.74-14.31-0.57-21.45
						c0.16-6.72,0.53-13.55,2.07-20.1c0.53-2.22,1.18-4.5,2.43-6.48c0.38-0.59,0.98-1.33,1.54-1.72c0.1-0.07,0.2-0.13,0.3-0.19
						c0.05-0.03,0.1-0.05,0.14-0.08c0.17-0.09-0.07,0.02,0.11-0.05c0.27-0.12,0.55-0.22,0.83-0.31c0.77-0.24,1.23-0.32,2.05-0.43
						c0.94-0.13,1.89-0.21,2.84-0.25c2.37-0.11,4.75-0.05,7.12,0.07c6.56,0.35,13.1,1.16,19.61,2.11
						c7.88,1.14,15.72,2.52,23.53,4.05c8.03,1.57,16.03,3.3,23.99,5.2c7.07,1.69,14.11,3.5,21.07,5.58
						c5.02,1.5,10.08,3.07,14.84,5.2c0.8,0.36,1.6,0.74,2.37,1.17c0.14,0.08,0.14,0.08,0.36,0.21c0.15,0.09,0.3,0.18,0.45,0.28
						c0.25,0.16,0.5,0.33,0.74,0.52c0.1,0.08,0.2,0.16,0.29,0.24c0.05,0.04,0.09,0.08,0.14,0.13c-0.15-0.14,0.01,0.01,0.04,0.04
						c0.06,0.07,0.13,0.14,0.19,0.21c0.11,0.13-0.05-0.1,0.01,0.02c0.02,0.05,0.05,0.09,0.07,0.14c0.02,0.06,0.13,0.38,0.08,0.19
						c0.04,0.13,0.07,0.27,0.09,0.4c0.06,0.33,0.09,0.66,0.11,1c0.11,1.85-0.14,3.92-0.4,5.86c-0.39,2.89-0.93,5.76-1.52,8.62
						c-1.44,6.96-3.19,13.86-5.13,20.71c-1.75,6.2-3.63,12.39-5.95,18.42c-0.75,1.96-1.53,3.93-2.55,5.78
						c-0.35,0.63-0.51,0.95-0.96,1.44c-0.19,0.21-0.3,0.29-0.55,0.38c-0.48,0.18-0.86,0.25-1.36,0.31c-1.5,0.19-3.05,0.16-4.57,0.08
						c-2.01-0.1-4.02-0.29-6.03-0.52c-4.56-0.52-9.1-1.24-13.62-2.01c-3.41-0.58-6.82-1.21-10.22-1.84
						C212.33,93.5,212.16,94.58,212.94,94.72L212.94,94.72z"/>
				</g>
			</g>
		</g>
		<g id="Ebene_7_1_">
			<g class="st2">
				<g>
					<path class="st3" d="M233.7,32.16c2.52,0.78,5.11,1.36,7.67,1.99c0.71,0.17,1.42,0.35,2.12,0.54c0.34,0.09,0.69,0.18,1.03,0.27
						c0.17,0.05,0.34,0.09,0.51,0.14c0.56,0.15-0.48-0.14,0.1,0.03c1.34,0.38,2.67,0.79,3.97,1.27c0.6,0.22,1.2,0.46,1.79,0.72
						c0.26,0.12,0.53,0.24,0.78,0.37c0.12,0.06,0.25,0.13,0.37,0.19c0.5,0.26-0.35-0.22-0.05-0.03c0.43,0.27,0.85,0.53,1.24,0.85
						c0.08,0.07,0.16,0.16,0.25,0.22c-0.12-0.08-0.43-0.44-0.18-0.16c0.14,0.16,0.26,0.37,0.42,0.52c-0.09-0.08-0.3-0.55-0.15-0.23
						c0.04,0.08,0.08,0.16,0.12,0.24c0.23,0.46-0.05-0.46-0.03-0.14c0.01,0.16,0.03,0.75,0.04,0.2c0-0.54,0-0.1-0.01,0.03
						c-0.01,0.12-0.02,0.25-0.03,0.37c-0.02,0.28-0.06,0.56-0.1,0.84c-0.53,3.81-1.57,7.56-2.54,11.28
						c-1.37,5.27-2.84,10.51-4.32,15.75c-1.4,4.96-2.83,9.91-4.2,14.87c-0.14,0.51-0.28,1.03-0.42,1.54
						c-0.3,1.11,0.86,2.4,2.09,2.54c1.43,0.16,2.44-0.6,2.76-1.79c1.34-4.89,2.74-9.77,4.13-14.66c1.52-5.38,3.04-10.77,4.47-16.17
						c1.05-3.99,2.16-8.01,2.81-12.08c0.17-1.04,0.41-2.26,0.14-3.31c-0.63-2.46-3.03-4-5.41-5.1c-2.67-1.23-5.59-2.02-8.45-2.77
						c-2.65-0.7-5.33-1.29-7.98-2c-0.13-0.03-0.26-0.07-0.39-0.11c-0.4-0.11,0.63,0.18,0.15,0.04c-0.25-0.07-0.5-0.15-0.75-0.22
						c-1.22-0.38-2.72-0.12-3.22,1.05C231.99,30.24,232.39,31.75,233.7,32.16L233.7,32.16z"/>
				</g>
			</g>
			<g class="st2">
				<g>
					<path class="st3" d="M238.87,91.55c0.01,0.48,0.02,0.97,0.02,1.45c1.31-0.63,2.63-1.26,3.94-1.89
						c-0.56-0.44-1.12-0.89-1.69-1.33c-0.01,1.16-0.02,2.31-0.03,3.47c-0.31,0.17-0.6,0.27-0.97,0.26
						c-0.15,0.02-0.29-0.01-0.43-0.07c-0.24-0.08-0.28-0.09-0.11-0.02c-0.26-0.13-0.45-0.27-0.64-0.48c0.11,0.13,0.09,0.1-0.04-0.08
						c-0.12-0.16-0.2-0.33-0.23-0.52c0.5-0.76,0.99-1.51,1.49-2.27c0.04-0.01,0.61-0.07,0.3-0.06c0.31-0.01,0.57,0.03,0.86,0.13
						c-0.3-0.1,0.22,0.14,0.25,0.16c-0.26-0.16,0.17,0.16,0.2,0.2c0.17,0.2,0.25,0.45,0.3,0.7c-0.07-0.39-0.16,0.79-0.15,0.75
						c0.09-0.26-0.12,0.18-0.15,0.22c-0.09,0.08-0.19,0.16-0.28,0.24c-0.37,0.16-0.46,0.2-0.29,0.14c0.27-0.08-0.56,0.09-0.28,0.06
						c0.13-0.01,0.08-0.01-0.16-0.01c-0.15,0.02-0.29,0-0.42-0.06c-0.55-0.14-0.98-0.52-1.12-1.01c-0.14-0.47-0.04,0.22-0.04-0.28
						c0-0.49-0.1,0.19,0.04-0.28c0.02-0.13,0.07-0.24,0.17-0.34c0.13-0.17,0.15-0.2,0.08-0.12c-0.13,0.15,0.5-0.34,0.16-0.17
						c1.25,0.34,2.49,0.68,3.74,1.03c-0.1-0.2-0.21-0.4-0.31-0.6c-0.55-1.05-1.96-1.77-3.2-1.29c-1.15,0.44-1.91,1.7-1.33,2.82
						c0.1,0.2,0.21,0.4,0.31,0.6c0.34,0.65,0.85,1.09,1.61,1.31c0.8,0.23,1.43,0.07,2.13-0.28c1.4-0.7,1.83-2.54,1.17-3.83
						c-0.78-1.53-2.84-2.29-4.53-1.61c-1.63,0.66-2.59,2.41-1.73,3.97c0.83,1.51,2.77,2.33,4.53,1.74c1-0.34,1.63-1.3,1.49-2.27
						c-0.15-1.04-0.93-2.02-2.02-2.46c-1.18-0.48-2.32-0.36-3.38,0.21c-1.39,0.74-1.14,2.6-0.03,3.47c0.56,0.44,1.12,0.89,1.69,1.33
						c0.75,0.59,1.9,0.64,2.72,0.25c0.92-0.44,1.24-1.23,1.22-2.14c-0.01-0.48-0.02-0.97-0.02-1.45c-0.01-0.51-0.49-1.15-0.91-1.46
						c-0.48-0.35-1.23-0.58-1.83-0.51c-0.61,0.08-1.23,0.32-1.6,0.77C238.97,90.42,238.86,90.92,238.87,91.55L238.87,91.55z"/>
				</g>
			</g>
		</g>
		<g id="Ebene_2_2_">
			<g>
				<g>
					<path d="M208.29,98.89c8.2,1.53,16.43,3.06,24.72,3.96c1.99,0.22,4,0.39,6,0.47c1.59,0.06,3.23,0.11,4.79-0.14
						c1.21-0.2,2.34-0.53,3.14-1.4c0.51-0.55,0.9-1.21,1.25-1.85c1.04-1.86,1.83-3.85,2.59-5.82c1.09-2.83,2.06-5.71,2.99-8.59
						c2.25-7.01,4.25-14.1,6.01-21.23c1.53-6.21,2.99-12.48,3.79-18.83c0.26-2.02,0.49-4.11,0.3-6.16
						c-0.06-0.65-0.18-1.35-0.49-1.95c-0.33-0.64-0.9-1.16-1.5-1.61c-1.33-1.01-2.93-1.76-4.47-2.45c-2.14-0.96-4.36-1.77-6.58-2.55
						c-6.26-2.17-12.67-3.97-19.1-5.66c-7.74-2.04-15.55-3.88-23.38-5.57c-8.13-1.75-16.29-3.35-24.49-4.76
						c-7.31-1.25-14.65-2.36-22.03-3.13c-5.49-0.58-11.12-1.08-16.62-0.74c-1.75,0.11-3.58,0.31-5.2,0.88
						c-1.88,0.66-3.09,1.99-4.03,3.54c-1.32,2.19-2,4.71-2.55,7.15c-0.72,3.14-1.13,6.35-1.42,9.56
						c-0.69,7.49-0.73,15.05-0.47,22.58c0.21,6.12,0.56,12.29,1.51,18.38c0.25,1.61,0.48,3.36,1.16,4.9
						c0.5,1.13,1.59,2.08,2.68,2.77c1.8,1.16,3.84,1.92,5.92,2.53c4.91,1.44,10,2.21,14.99,3.39c0.55,0.13,1.09,0.26,1.64,0.4
						c0.14,0.04,0.29,0.08,0.43,0.11c0.08,0.02,0.56,0.16,0.09,0.02c0.28,0.08,0.56,0.16,0.83,0.24c1.02,0.31,2.03,0.66,3,1.09
						c0.18,0.08,0.37,0.17,0.55,0.25c0.1,0.05,0.21,0.12,0.32,0.16c0.22,0.08-0.45-0.3-0.27-0.15c0.15,0.12,0.33,0.22,0.48,0.34
						c0.18,0.14,0.35,0.29,0.52,0.44c0.38,0.34-0.26-0.26,0.04,0.03c0.13,0.13,0.26,0.26,0.39,0.39c2.48,2.5,4.66,5.25,6.9,7.91
						c2.48,2.95,4.95,5.94,7.73,8.68c1.01,0.99,2.06,2.04,3.31,2.8c0.59,0.36,1.2,0.69,1.9,0.81c0.7,0.12,1.34,0,2.01-0.15
						c1.55-0.35,3.02-0.94,4.45-1.54c2.19-0.9,4.32-1.91,6.41-2.98c3.97-2.01,7.95-4.24,11.17-7.15c0.69-0.62,0.42-1.79-0.31-2.32
						c-0.85-0.62-1.89-0.42-2.58,0.2c-0.09,0.08-0.66,0.56-0.27,0.24c-0.17,0.14-0.34,0.28-0.52,0.42
						c-0.41,0.32-0.82,0.63-1.25,0.93c-0.91,0.65-1.86,1.26-2.82,1.85c-2.02,1.24-4.12,2.38-6.27,3.45
						c-0.23,0.11-0.46,0.23-0.69,0.34c-0.04,0.02-0.5,0.24-0.14,0.07c-0.14,0.07-0.27,0.13-0.41,0.19c-0.53,0.25-1.06,0.5-1.6,0.74
						c-0.93,0.42-1.88,0.83-2.83,1.21c-0.78,0.31-1.56,0.61-2.36,0.86c-0.3,0.1-0.6,0.19-0.91,0.27c-0.13,0.03-0.31,0.05-0.42,0.1
						c0.42-0.21,0.33-0.06,0.04-0.02c-0.1,0.01-0.2,0.02-0.3,0.03c-0.33,0.05,0.33,0.04,0.26,0.01c-0.05-0.02-0.2-0.05-0.25-0.05
						c0.48-0.02,0.44,0.16,0.15,0.02c-0.1-0.05-0.2-0.09-0.3-0.14c-0.35-0.16,0.42,0.26,0.09,0.05c-0.23-0.15-0.47-0.3-0.69-0.47
						c-0.53-0.39-1.02-0.83-1.5-1.27c-0.09-0.08-0.36-0.3,0.05,0.05c-0.08-0.06-0.15-0.14-0.22-0.21c-0.14-0.13-0.27-0.26-0.4-0.39
						c-0.31-0.31-0.61-0.61-0.91-0.93c-2.72-2.84-5.2-5.86-7.71-8.84c-2.16-2.57-4.27-5.24-6.77-7.56c-0.97-0.9-2.05-1.49-3.32-1.99
						c-2.2-0.88-4.55-1.46-6.87-1.99c-2.43-0.56-4.89-1.03-7.33-1.54c-1.21-0.25-2.42-0.51-3.62-0.8c-0.55-0.13-1.1-0.27-1.65-0.41
						c-0.15-0.04-0.29-0.08-0.44-0.12c-0.47-0.13,0.26,0.08-0.03-0.01c-0.3-0.09-0.61-0.18-0.91-0.27c-1-0.31-1.99-0.66-2.94-1.07
						c-0.42-0.18-0.81-0.39-1.21-0.59c-0.37-0.18,0.35,0.22,0,0c-0.09-0.06-0.2-0.12-0.29-0.18c-0.19-0.12-0.37-0.24-0.55-0.37
						c-0.17-0.12-0.34-0.25-0.5-0.39c-0.05-0.04-0.1-0.09-0.15-0.13c-0.28-0.23,0.27,0.31,0.04,0.04c-0.17-0.2-0.35-0.48-0.55-0.64
						c0.38,0.32,0.24,0.44,0.15,0.24c-0.02-0.04-0.04-0.08-0.06-0.11c-0.05-0.11-0.09-0.22-0.14-0.33
						c-0.05-0.12-0.08-0.24-0.13-0.37c-0.13-0.37,0.08,0.29,0.04,0.15c-0.02-0.08-0.05-0.16-0.07-0.25
						c-0.1-0.38-0.19-0.75-0.27-1.13c-0.21-0.98-0.37-1.97-0.51-2.96c-0.39-2.71-0.66-5.44-0.87-8.16
						c-0.27-3.41-0.45-6.81-0.55-10.22c-0.06-1.88-0.09-3.76-0.1-5.63c0-0.45,0-0.89,0-1.34c0-0.12,0-0.77,0-0.29
						c0-0.28,0-0.57,0-0.85c0.01-0.93,0.02-1.86,0.04-2.79c0.15-6.7,0.51-13.52,2.06-20.05c0.16-0.66,0.33-1.32,0.52-1.97
						c0.04-0.14,0.22-0.61,0.01-0.05c0.06-0.15,0.1-0.31,0.15-0.46c0.1-0.29,0.2-0.59,0.31-0.88c0.37-0.97,0.81-1.92,1.37-2.81
						c0.03-0.05,0.07-0.1,0.1-0.15c0.01-0.02-0.28,0.39-0.14,0.21c0.07-0.09,0.13-0.19,0.2-0.28c0.13-0.18,0.27-0.35,0.42-0.51
						c0.13-0.14,0.27-0.27,0.41-0.4c0.24-0.24-0.41,0.31-0.07,0.06c0.08-0.06,0.15-0.12,0.24-0.17c0.09-0.06,0.19-0.12,0.29-0.18
						c0.06-0.03,0.12-0.06,0.18-0.09c0.05-0.03-0.53,0.23-0.19,0.09c0.28-0.11,0.55-0.22,0.84-0.3c0.15-0.05,0.31-0.09,0.46-0.13
						c0.09-0.02,0.18-0.04,0.27-0.06c0.44-0.11-0.26,0.05-0.13,0.03c0.39-0.07,0.78-0.14,1.17-0.2c0.94-0.13,1.9-0.2,2.86-0.24
						c1.12-0.05,2.24-0.06,3.36-0.04c0.29,0,0.59,0.01,0.88,0.02c0.14,0,0.27,0.01,0.41,0.01c0.08,0,0.17,0,0.25,0.01
						c0.47,0.01-0.4-0.02-0.07,0c0.67,0.03,1.33,0.06,2,0.09c6.56,0.36,13.1,1.18,19.6,2.13c7.83,1.14,15.62,2.51,23.37,4.03
						c8.05,1.57,16.06,3.31,24.03,5.21c3.71,0.89,7.41,1.81,11.1,2.78c1.76,0.46,3.52,0.93,5.26,1.43
						c-0.47-0.13-0.04-0.01,0.17,0.05c0.21,0.06,0.43,0.12,0.64,0.18c0.42,0.12,0.85,0.24,1.27,0.36c0.79,0.23,1.57,0.46,2.36,0.69
						c5.03,1.5,10.1,3.07,14.88,5.19c0.81,0.36,1.6,0.74,2.37,1.16c0.07,0.04,0.14,0.08,0.22,0.12c-0.65-0.33-0.27-0.15-0.12-0.06
						c0.15,0.09,0.31,0.18,0.46,0.28c0.26,0.16,0.51,0.33,0.76,0.52c0.1,0.08,0.2,0.16,0.3,0.24c0.05,0.04,0.09,0.08,0.13,0.12
						c0.24,0.2-0.38-0.4-0.16-0.15c0.06,0.07,0.13,0.15,0.2,0.22c0.25,0.25-0.22-0.5-0.07-0.1c0.03,0.1,0.07,0.2,0.11,0.29
						c-0.23-0.47-0.08-0.29-0.02,0.01c0.06,0.31,0.1,0.62,0.12,0.93c0.01,0.18,0.02,0.35,0.03,0.53c0,0.1,0,0.21,0.01,0.31
						c0.01,0.44,0.01-0.42,0-0.06c-0.01,0.46-0.03,0.92-0.05,1.38c-0.07,1.14-0.2,2.28-0.35,3.42c-0.38,2.86-0.91,5.69-1.49,8.52
						c-1.43,6.97-3.19,13.88-5.13,20.74c-0.49,1.72-0.99,3.43-1.5,5.14c-0.25,0.83-0.5,1.65-0.76,2.48c-0.03,0.09-0.15,0.47,0,0
						c-0.03,0.09-0.05,0.18-0.08,0.26c-0.06,0.19-0.12,0.38-0.18,0.58c-0.13,0.41-0.26,0.82-0.39,1.23
						c-0.91,2.82-1.86,5.62-2.93,8.39c-0.75,1.96-1.53,3.93-2.56,5.78c-0.17,0.3-0.37,0.59-0.54,0.89c0.34-0.61,0.11-0.16-0.02,0.01
						c-0.08,0.1-0.16,0.2-0.25,0.29c-0.03,0.04-0.08,0.07-0.11,0.11c-0.16,0.2,0.44-0.27,0.16-0.14c-0.07,0.03-0.17,0.09-0.23,0.14
						c-0.11,0.08-0.35-0.07,0.28-0.13c-0.06,0.01-0.13,0.06-0.19,0.08c-0.21,0.07-0.42,0.12-0.63,0.18c-0.28,0.08,0.5-0.08,0.2-0.04
						c-0.07,0.01-0.14,0.02-0.21,0.04c-0.15,0.02-0.3,0.04-0.45,0.06c-0.68,0.08-1.36,0.11-2.04,0.12c-0.38,0.01-0.76,0-1.15-0.01
						c-0.15,0-0.91,0-0.29-0.01c-0.23,0-0.47-0.02-0.7-0.03c-2.04-0.1-4.08-0.3-6.11-0.54c-4.54-0.53-9.06-1.24-13.57-2.01
						c-3.42-0.58-6.83-1.21-10.24-1.85c-0.98-0.18-1.94,0.49-2.07,1.34C206.58,97.89,207.31,98.7,208.29,98.89L208.29,98.89z"/>
				</g>
			</g>
		</g>
		<g id="Ebene_10_1_">
			<g>
				<g>
					<path class="st3" d="M175.57,28.66c6.32,7.67,12.48,15.44,18.53,23.29c5.95,7.71,11.78,15.5,17.55,23.31
						c3.21,4.34,6.4,8.7,9.58,13.06c1.25,1.71,4.29,2.14,6,0.93c1.88-1.33,2.16-3.52,0.83-5.35c-5.67-7.77-11.37-15.53-17.16-23.24
						c-5.88-7.84-11.84-15.62-17.94-23.33c-3.48-4.39-7-8.76-10.57-13.09c-1.35-1.64-4.22-2.19-6-0.93
						C174.61,24.58,174.13,26.91,175.57,28.66L175.57,28.66z"/>
				</g>
			</g>
			<g>
				<g>
					<path class="st3" d="M171.59,79.72c9.2-5.96,18.3-12.02,27.29-18.22c6.65-4.59,13.25-9.25,19.94-13.79
						c4.44-3.01,8.91-5.97,13.42-8.89c1.79-1.16,2.3-3.71,0.83-5.35c-1.48-1.65-4.09-2.16-6-0.93c-7.5,4.86-14.89,9.85-22.21,14.93
						c-7.1,4.93-14.18,9.87-21.36,14.71c-5.65,3.8-11.35,7.55-17.08,11.26c-1.79,1.16-2.3,3.71-0.83,5.35
						C167.07,80.44,169.68,80.96,171.59,79.72L171.59,79.72z"/>
				</g>
			</g>
		</g>
		<g id="Ebene_9_1_">
			<g class="st4">
				<path d="M143.23,11.42c-4.7,30.37,27.62,72.1,50.61,94.41c-3.31,0.27-6.71-4.36-12.97-10.44c-8.85-8.58-5.94-9.02-11.16-11.84
					c-4.34-2.35-10.02-2.77-14.94-3.68c-4.54-0.83-10.12-2.43-12.73-4.93c-3.43-3.3-5-38.67-0.93-59.63"/>
				<g>
					<path d="M142.02,11.23c-0.96,6.31-0.37,12.79,1.12,19.07c1.65,6.96,4.32,13.74,7.55,20.28c3.43,6.93,7.49,13.63,11.93,20.11
						c4.38,6.39,9.14,12.57,14.21,18.56c4.54,5.36,9.32,10.57,14.36,15.57c0.56,0.55,1.12,1.1,1.68,1.65
						c0.27-0.57,0.54-1.15,0.81-1.72c-0.09,0.01-0.18,0.01-0.27,0.01c0.33-0.01,0.05,0-0.03-0.01c-0.15-0.02-0.3-0.04-0.45-0.07
						c-0.34-0.07,0.11,0.06-0.23-0.07c-0.19-0.07-0.37-0.15-0.55-0.23c-0.09-0.05-0.19-0.09-0.28-0.14c0.21,0.11-0.01,0-0.06-0.04
						c-0.18-0.11-0.36-0.22-0.53-0.34c-0.38-0.27-0.75-0.55-1.11-0.85c-1.89-1.58-3.53-3.4-5.23-5.14
						c-3.33-3.4-6.92-6.62-9.57-10.49c-0.53-0.77-1.01-1.58-1.66-2.28c-0.81-0.88-1.8-1.56-2.86-2.16
						c-5.26-2.99-11.5-3.18-17.35-4.41c-2.67-0.56-5.34-1.31-7.79-2.48c-1-0.48-1.94-1.06-2.75-1.78c-0.12-0.11,0.1,0.15-0.04-0.05
						c-0.03-0.04-0.07-0.09-0.1-0.13c-0.11-0.14-0.04-0.21,0.03,0.06c-0.02-0.07-0.09-0.15-0.12-0.21
						c-0.18-0.33-0.31-0.67-0.43-1.02c-0.04-0.11-0.08-0.23-0.11-0.34c-0.03-0.08-0.12-0.43-0.03-0.09
						c-0.07-0.24-0.14-0.49-0.2-0.73c-0.31-1.22-0.53-2.45-0.71-3.68c-1.16-7.6-1.36-15.32-1.33-22.94
						c0.03-8.94,0.49-17.93,1.91-26.75c0.15-0.96,0.32-1.92,0.51-2.87c0.27-1.38-2.16-1.76-2.43-0.37
						c-1.69,8.76-2.23,17.74-2.39,26.66c-0.14,8.2,0,16.48,1.05,24.67c0.31,2.46,0.65,4.99,1.53,7.37c0.3,0.83,0.72,1.53,1.41,2.15
						c1.86,1.66,4.45,2.68,6.88,3.45c2.83,0.9,5.74,1.48,8.67,1.95c3.01,0.48,6.1,0.88,9,1.83c0.71,0.23,1.42,0.5,2.1,0.81
						c0.31,0.14,0.61,0.29,0.9,0.44c0.13,0.07,0.25,0.13,0.37,0.2c0.22,0.12-0.13-0.08,0.14,0.08c0.55,0.32,1.08,0.65,1.57,1.04
						c0.09,0.07,0.18,0.14,0.26,0.22c0.12,0.1,0.27,0.26,0.07,0.05c0.17,0.18,0.34,0.35,0.5,0.53c0.3,0.35,0.55,0.72,0.81,1.09
						c0.77,1.14,1.55,2.26,2.43,3.34c1.69,2.06,3.61,3.94,5.52,5.83c2.06,2.03,4.01,4.15,6.1,6.16c1.37,1.32,2.87,2.78,4.74,3.53
						c0.78,0.31,1.61,0.46,2.44,0.41c0.85-0.06,1.46-1.1,0.81-1.72c-4.95-4.81-9.65-9.82-14.13-14.99
						c-5.04-5.82-9.8-11.83-14.2-18.04c-4.49-6.32-8.61-12.86-12.15-19.63c-3.36-6.42-6.25-13.08-8.13-19.93
						c-1.69-6.16-2.63-12.55-2.04-18.78c0.07-0.74,0.16-1.48,0.28-2.22C144.66,10.22,142.24,9.84,142.02,11.23L142.02,11.23z"/>
				</g>
			</g>
		</g>
	</g>
</g>
<g id="Ebene_1">
	<g id="Ebene_28">
		<g>
			<path class="st5" d="M84.79,198.41c-0.28-0.68-0.57-1.35-0.85-2.03c1.24,8.97,1.21,18.08,1.39,27.14
				c0.19,9.13,0.61,18.28,1.83,27.33c3,0,6.01,0,9.01-0.01c0.64,0,1.36-0.04,1.79-0.52c0.4-0.46,0.4-1.14,0.37-1.76
				c-0.8-17.94-1.61-35.87-2.41-53.81c-0.02-0.41-0.05-0.85-0.28-1.19c-0.42-0.58-1.26-0.58-1.96-0.49
				C90.31,193.52,87.03,194.7,84.79,198.41z"/>
			<path class="st5" d="M123.64,195.55c-1.22,19.84-1.01,39.98,0.51,59.8c2.82,0.03,6.95-0.2,9.77-0.17
				c0.67,0.01,1.41-0.02,1.88-0.49c0.49-0.49,0.52-1.28,0.52-1.98c-0.08-19.42-0.15-38.83-0.23-58.25
				C131.91,194.77,127.72,195.1,123.64,195.55z"/>
			<path class="st6" d="M85.94,196.73c4.88,6.91,7.59,15.39,7.66,23.92c0.07,8.52-2.52,17.05-7.28,24.04
				c-0.76-13.95-1.52-27.9-2.28-41.85C83.9,200.32,83.86,197.52,85.94,196.73z"/>
			<path class="st7" d="M123.4,201.73c0.16,15.08,0.32,30.15,0.48,45.23c3.19-0.91,5.64-3.67,6.94-6.79c1.3-3.12,1.6-6.57,1.67-9.95
				c0.12-5.39-0.3-10.83-1.74-16.01C129.32,209.02,126.84,204.07,123.4,201.73z"/>
			<path class="st8" d="M83.35,191.22c0.94,20.41,1.87,39.52,2.81,59.93c3.87,0.46,8.23-0.63,12.1-0.17
				c-1.81-61.01-1.33-58.78-3.22-59.29C87.31,189.58,85.3,192.15,83.35,191.22z"/>
			<path class="st8" d="M123.07,193.62c-0.78,20.57,0.16,40.1,1.08,61.72c3.6,0.08,7.2,0.15,10.79,0.23c0.45,0.01,0.96,0,1.29-0.31
				c0.37-0.35,0.38-0.94,0.36-1.47c-0.7-20.36-0.39-39.7-1.08-60.06C131.94,193.94,127.37,193.12,123.07,193.62z"/>
			<path class="st9" d="M67.4,269.78c0.79-7.8,4.43-15.47,10.59-20.14c6.16-4.67,14.9-5.94,21.71-2.33
				c7.35,3.9,11.36,12.86,10.83,21.31C96.33,267.93,82.09,268.28,67.4,269.78z"/>
			<path class="st9" d="M115.37,267.8c-0.45-5.16,0.41-10.6,3.32-14.85c2.91-4.24,8.1-7.02,13.09-6.11
				c3.96,0.72,7.29,3.61,9.46,7.06c2.18,3.46,3.34,7.47,4.34,11.45c0.32,1.28,0.54,2.88-0.46,3.72c-0.55,0.46-1.32,0.53-2.03,0.57
				c-9.4,0.58-18.83,0.65-28.24,0.22C114.89,269,114.93,268.13,115.37,267.8z"/>
			<path class="st10" d="M68.14,270.63c-0.9,0.49-0.73,1.99,0.07,2.64s1.9,0.69,2.91,0.71c12.86,0.19,25.72,0.37,38.58,0.56
				c1.65-1.35,0.9-4.31-0.87-5.49c-1.77-1.18-4.04-1.11-6.15-1C91.02,268.65,78.09,265.19,68.14,270.63z"/>
			<path class="st10" d="M115.42,270.51c0,1.33,0,2.66,0,3.98c9.47-0.04,18.94-0.07,28.41-0.11c0.51,0,1.04-0.01,1.5-0.25
				c1.37-0.72,1.09-2.78,0.6-4.27C135.73,270.73,125.48,270.84,115.42,270.51z"/>
			<path class="st11" d="M94.83,245.05c-7.17-0.72-14.59,1.95-19.75,7.1c-5.15,5.15-7.94,12.68-7.42,20.03
				c0.04,0.49,0.09,0.99,0.36,1.4c0.54,0.81,1.65,0.88,2.6,0.88c1.15-0.01,2.4-0.05,3.27-0.82c0.68-0.6,0.98-1.53,1.28-2.4
				C78.72,260.77,85.93,251.67,94.83,245.05z"/>
			<path class="st12" d="M137.15,248.45c-3.06-1.56-6.53-2.42-9.93-2.03c-3.4,0.39-6.71,2.13-8.7,4.98
				c-2.05,2.95-2.52,6.72-2.93,10.31c-0.26,2.24-0.51,4.48-0.77,6.72c-0.2,1.73-0.38,3.57,0.37,5.13c0.75,1.56,2.82,2.59,4.21,1.59
				c1.06-0.75,1.27-2.23,1.48-3.53c1.25-7.66,5.77-14.7,12.13-18.94C134.66,251.62,136.62,250.37,137.15,248.45z"/>
			<path class="st13" d="M67.76,274.84c-1.51-6.61,0.45-13.76,4.37-19.24c3.83-5.36,9.65-9.37,16.07-10.27
				c6.43-0.91,13.37,1.53,17.39,6.75c2.36,3.07,3.64,6.89,4.24,10.75c0.59,3.86,0.54,7.79,0.48,11.7
				C96.1,274.57,81.88,274.61,67.76,274.84z"/>
			<path class="st13" d="M115.01,275.06c-0.42-4.41-0.84-8.86-0.25-13.25c0.58-4.39,2.27-8.77,5.47-11.75
				c2.4-2.24,5.58-3.58,8.83-3.75c3.33-0.17,6.71,0.89,9.38,2.94c3.6,2.76,5.76,7.13,6.78,11.61c1.01,4.48,1,9.14,0.97,13.74
				C135.86,274.25,125.53,274.45,115.01,275.06z"/>
			<path class="st13" d="M67.87,270.32c13.87-1.33,27.81-1.91,41.73-1.72"/>
			<path class="st13" d="M115.66,270.74c9.92,0.11,19.85-0.16,29.75-0.82"/>
			<path class="st13" d="M128.53,259.65c2.3,0.29,4.59,0.57,6.89,0.85"/>
			<path class="st13" d="M128.61,252.65c1.29,0,2.57,0,3.86,0"/>
			<path class="st13" d="M73.96,254.33c1.91,2.05,3.82,4.09,5.74,6.14"/>
			<path class="st13" d="M77.42,250.48c1.67,2.09,3.33,4.19,5,6.28"/>
			<path class="st5" d="M53.74,175.22c0.35,3.48-1.36,6.79-2.14,10.2c-0.77,3.41-0.05,7.83,3.17,9.01c2.22,0.81,4.75-0.37,6.27-2.21
				c1.52-1.84,2.25-4.21,2.93-6.51c-1.52,3.09-1.32,9.52,0.33,12.55c1.65,3.02,4.97,2.25,8.12,0.98s4.66-5.88,2.49-8.53
				c-0.25,3.26,0.23,6.72,2.16,9.33c1.93,2.6,4.1,6.2,5.35,3.19c1.38-3.34,5.36-4.64,4.77-8.61c-2.49,4.02-0.07,11.2,4.57,11.02
				c4.65-0.17,8.77-7.6,5.99-11.42c-0.52,2.82,2.8,9.29,4.7,11.41c1.9,2.12,3.17,0.26,4.15-2.42c1.08-2.95,1.66-4.52,0.59-6.88
				c-2.21,4.07,2.53,9.97,7.07,9.87c4.54-0.1,7.77-6.15,5.4-10.12c-1.75,3.83,1.67,8.97,5.79,8.72c4.12-0.25,6.92-5.76,4.75-9.36
				c-1.5,4.44,4.91,11.15,9.4,10.19c4.5-0.96,2.48-7.98,1.6-12.53c-1,4.1,5.12,8.79,8.89,7.06c3.77-1.73,3.8-8.24,1.41-11.68
				c-0.7,3.03,7.06,7.6,9.6,5.89c2.81-1.88,1.19-3.77,1.67-6.84c0.48-3.07-0.46-6.19-1.75-9.01c0.71,4.87,6.96,9.51,10.91,6.69
				c3.94-2.83,3.73-11.8-0.51-14.14c3.25,1.82,6.5,3.64,9.75,5.47c1.7-7.47-0.53-15.75-5.72-21.28c0.79,2.08,1.67,4.29,3.44,5.59
				c1.77,1.31,5.37,2.68,6.36,0.68c0.9-1.8-0.85-5.42-1.92-7.12c-3.41-5.43-6.81-10.87-10.22-16.3c2.64,1.87,4.24,5.13,6.24,7.74
				c2,2.61,7.49,4.46,9.4,1.77c1.75-2.45-0.38-7.7-2.48-9.83c-5.3-5.35-10.28-10.95-16.61-15.07c1.85,0.82,3.78,1.65,5.8,1.55
				c2.01-0.1,5.98-1.74,6.29-3.77c0.23-1.5-2.16-3.09-3.02-4.32c-3.09-4.4-8.12-7.08-13.32-8.06c2.73,0.9,8.22-1.38,8.53-4.3
				c0.31-2.92-3.97-6.03-6.32-7.72c-2.35-1.69-5.19-2.47-7.97-3.22c1.68,1.23,3.49,2.51,5.55,2.58c2.06,0.07,5.7-2.1,5.37-4.19
				c-0.29-1.81-3.58-2.37-5.24-3.06c-4.71-1.96-9.42-3.93-14.14-5.89c3.74,2.31,10.64-2.26,10.51-6.73
				c-0.12-4.47-5.47-7.85-9.25-10.1c-3.69-2.2-8.37-3.52-12.21-1.6c-3.84,1.92-5.4,8.17-1.94,10.74c-3.63,0.21-7.31-0.87-10.28-3.02
				c1.76-1.32,3.53-2.77,4.44-4.8c0.91-2.03,0.91-6.15-0.87-7.42c-1.99-1.42-5.2,1.05-6.65,3.04c-1.45,1.99-1.82,4.58-2.14,7.04
				c1.36-2.27,2.5-4.87,2.18-7.51c-0.33-2.64-0.68-6.71-3.25-6.33c-2.11,0.31-5.59,3.96-5.97,6.11c-0.37,2.15,0.14,4.34,0.65,6.46
				c0.68-5,0.73-11.33-3.72-11.58c-4.45-0.25-7.4,7.79-4.3,11.06c2.33-3.35-2.23-9.98-6.17-9.18c-3.94,0.8-4.03,8.38-0.62,10.56
				c-1.23-3.43-2.61-7.08-5.54-9.16c-2.93-2.08-4.37-4.26-7.09-2.05c-2.9,2.36,0.12,10.91,3.09,13.17c0.8-3.36-3.38-6.67-6.36-5.03
				s-2.57,7.04,0.61,8.2c-1.88,0.44-3.77,0.88-5.65,1.32c0.89-2.56,1.79-5.2,1.71-7.91c-0.07-2.72-1.34-5.58-3.74-6.73
				c-2.85-1.37-6.18-0.01-8.96,1.5c-3.41,1.86-6.35,4.41-9.08,7.21c-4.35,4.45-5.16,7.17-3.57,10.77c1.6,3.6,8.12,6.11,11.45,4.1
				c-0.12,0.74-0.24,1.49-0.36,2.23c-3.64,1.12-7.76,3.13-11.54,3.5s-8.55,1.03-11.36,3.64c-2.82,2.61-4.36,4.89-2.08,8.01
				c2.27,3.12,9.62,3.12,10.34-0.69c-4.91,2.25-9.47,5.32-13.43,9.06c-2.83,2.67-6.5,7.37-3.77,10.15
				c2.66,2.71,8.73-2.98,11.66-5.39c-4.69,1.4-9.35,8.22-12.47,12.06c-3.12,3.85-7.37,9.5-2.51,9.97
				c5.07,0.49,10.92-1.46,15.32-2.52c-7.04,1.42-11.5,7-18.39,10.71c-2.27,1.22-3.29,4.51-2.66,7.05c0.7,2.83,3.96,4.32,6.79,3.97
				c2.83-0.34,5.31-2.03,7.67-3.67c-3.93,0.33-9.49,7.11-10.74,10.94c-1.25,3.83,2.49,3.46,6.08,5.14c3.58,1.69,6.63-1.27,9.18-3.35
				c-6.08,0.58-6.75,3.79-9.2,6.76c-2.45,2.97-3.74,7.27-2.22,10.83c1.52,3.56,6.87,6.45,10.43,3.26
				C48.79,182.94,51.97,177.98,53.74,175.22z"/>
			<path class="st7" d="M68.05,86.81c-6.87,0.43-13.65,2.35-19.76,5.6c-3.05,1.62-6.36,4.54-5.29,7.87c0.69,2.17,3.1,3.47,5.33,3.43
				c2.23-0.04,4.32-1.03,6.33-2c-6.55,1.67-12.49,5.7-16.55,11.21c-1.43,1.95-3.95,4.2-2.61,6.21c1.81,2.71,7.25,1.75,10,0.04
				C34.52,133.44,33.66,153,33.26,171.15c-0.07,3.35-0.13,6.79,0.99,9.94c1.12,3.15,3.71,5.98,6.96,6.34
				c3.26,0.36,6.74-2.65,6.16-5.95c-0.06,0.95-0.11,1.89-0.17,2.84c2.33-2.77,4.66-5.53,6.99-8.3c-1.71,3.43-3.46,7.09-3.12,10.92
				c0.34,3.83,1.5,9.14,5.17,8.34c4.07-0.88,7.59-7.59,8.07-11.82c-0.88,3.63-1.76,7.51-0.6,11.06s3.53,8.04,6.81,6.39
				c3.31-1.66,5.38-7.95,5.26-11.72c-0.37,3.41-0.68,7.1,1.06,10.03s3.28,4.01,5.56,4.01c3.01,0,3.08-9.03,4.85-11.51
				c-0.47,2.92-0.92,5.99,0.04,8.79c0.96,2.79,3.86,5.13,6.65,4.34c2-0.57,2.32-3.08,2.78-5.16c0.45-2.08,1.21-3.74,0.91-5.84
				c-0.24,3.15-0.3,5.63,1.67,7.77c1.97,2.13,3.08,5.87,5.41,4.16c2.33-1.71,4.69-8.32,2.88-10.59c-0.63,2.97,0.27,6.32,2.55,8.27
				c2.28,1.95,4.38,3.94,6.68,2.03c2.3-1.92,4.23-7.67,2.14-9.82c-1.28,4.24,2.75,9.84,7.02,9.1c4.28-0.74,6.55-7.68,3.61-10.94
				c0.41,2.66,0.85,5.4,2.28,7.65c1.43,2.25,4.41,5.01,6.94,4.28c2.34-0.67,3.57-4.28,3.87-6.74c0.31-2.46-0.33-4.94-0.97-7.33
				c-1.12,4.02,3.27,9.74,7.25,8.84s5.6-7.98,2.94-11.14c-0.35,2.86,5.56,5.39,8.36,5.12s2.04-2.8,2.55-5.64
				c0.51-2.83-0.47-5.78-2.09-8.14c-21.71,11.41-47.75,12.88-71.27,6.22c-10.7-3.03-21.25-7.87-28.83-16.17
				c-10.21-11.17-13.79-27.63-11.54-42.75C51.36,112.85,58.91,98.96,68.05,86.81z"/>
			<path class="st13" d="M67.69,86.63c-9.41,2.53-27.91,5.26-25.48,13.59c1.48,5.07,10.87,2.78,12.64,1.35
				c-8.91,2.94-21.39,13.36-19.88,16.95c1.86,4.44,7.9,3.28,11.83-0.34c-6.35,3.61-17.63,13.17-16,16.94
				c0.98,2.26,5.83,4.29,16.74-0.3c-6.52,5.29-23.64,10.39-20.6,17.88c2.9,7.14,12.11,0.59,14.14,0.68
				c-4.69,2.21-11.92,7.9-9.82,12.61c2.1,4.72,10.12,2.22,13.87-0.26c-14.75,9.54-11.28,19.6-7.43,21.31
				c8.93,3.95,10.75-5.51,16.02-11.72c-3.19,6.62-3.57,18.11-0.01,19.57c4.68,1.92,7.21-3,9.47-9.03
				c-0.31,5.17-0.02,14.74,6.05,15.2c3.48,0.26,6.9-5.36,5.6-9.19c1.24,3.97,2.8,12.3,6.71,12.16c3.02-0.1,3.32-4.71,5.07-8.83
				c1.23,4.68,0.69,10.59,5.15,10.4s6.51-6.51,5.38-10.84c1.56,3.93,2.59,11.26,6.02,11.84c2.88,0.49,4.55-5.72,4.38-9.45
				c1.08,5,2.74,9.62,7.36,9.36c4.62-0.26,4.5-5.39,3.75-9.99c1.84,4.63,3.06,9.35,6.93,9.26c3.87-0.1,5.91-4.93,4.02-9.53
				c2.59,5.04,5.93,10.1,8.62,9.74c5.03-0.68,3.77-7.09,3.02-12.59c2.48,3.97,4,8.59,8.04,7.09s3.26-5.41,1.73-10.72
				c2.41,2.81,5.63,5.95,10.09,4.56c2.95-0.92,1.32-12.47,0.07-15.36c1.68,3.49,7.83,8.14,10.55,6.34c3.41-2.25,2.22-8.86-0.7-15.38
				c3.04,3.11,8.31,7.72,10.08,6.42c4.31-3.15-3.16-15.28-5.7-21.1c4.63,7.62,8.64,8.28,9.84,6.23c2.06-3.51-6.45-14.88-9.38-20.02
				c6.69,9.83,11.33,8.26,13.08,5.86c3.58-4.92-6.48-14.87-18.04-23.97c3.69,1.55,10.45,1.13,10.85-2.92
				c0.49-5.07-9.68-9.98-15.59-13.67c3.13,1.35,7.5,0.14,7.78-3c0.41-4.46-10.92-10.44-13.98-10.85c9.36,2.02,10.82,1.02,10.62-1.7
				c-0.27-3.58-12.73-7.11-18.84-7.11c7.73-3.58,17.54-8.38,0.83-18.44c-16.82-10.13-16.72,4.7-14.88,9.42l-9.32-3.18
				c2.4-2.46,7.73-10.94,3.04-12.65c-3.73-1.36-7.02,6.63-8.86,10.34c1.14-3.77,3.6-14.06-0.24-14.06c-5.34,0-5.9,8.85-6.41,12.41
				c0.7-3.43,3.09-10.43-3.19-11.4c-4.3-0.66-5.27,8.06-4.42,10.87c-0.65-3.43-3.03-9.83-6.05-8.99c-3.12,0.87-3.31,4.48-1.23,10.31
				c-0.91-3.16-6.38-13.03-10.93-11.55c-4.39,1.43-1.22,8.35,2.62,14.24c-1.51-2.47-5.36-6.66-8-5.17
				c-1.87,1.06-1.95,5.48,1.42,7.96l-5.48,1.84c2.38-14.4-2.77-22.54-15.57-11.81c-21.96,18.42,2.55,20.48,2.61,20.58
				C67.64,84.76,68,87.2,67.69,86.63z"/>
			<path class="st5" d="M173.83,137.31c0.77,2.93,3.19,5.03,5.14,7.32c1.95,2.28,3.59,5.47,2.42,8.26c-0.6,1.43-1.84,2.47-3.04,3.44
				c-6.67,5.43-13.35,10.85-20.02,16.28c-0.92,0.75-1.87,1.53-2.44,2.58s-0.7,2.46,0.01,3.41c0.85,1.15,2.57,1.24,3.85,0.64
				c1.28-0.6,2.24-1.72,3.23-2.74c0.99-1.02,2.14-2.01,3.53-2.22c-2.38,1.66-4.64,3.49-6.77,5.47c-0.75,0.69-1.53,1.53-1.54,2.56
				c-0.02,1.5,1.71,2.51,3.16,2.29c1.45-0.22,2.65-1.25,3.77-2.22c1.12-0.97,2.36-1.96,3.83-2.09c-1.01,1.06-2.36,1.72-3.61,2.49
				c-1.25,0.76-2.49,1.71-3.05,3.08c-0.57,1.37-0.2,3.24,1.11,3.88c1.11,0.54,2.42,0.07,3.54-0.44
				c12.41-5.65,22.58-15.43,31.61-25.82c2.21-2.54,4.48-5.41,4.66-8.81c0.18-3.39-1.77-6.47-3.74-9.2
				c-8.72-12.08-22.09-24.29-34.18-34.06"/>
			<path class="st5" d="M57.33,105.67c-12.97,11.89-32.89,34.31-41.63,49.73c-1.47,2.59-2.92,5.46-2.56,8.44
				c0.45,3.76,3.63,6.5,6.71,8.62c11.05,7.59,23.75,12.24,36.43,16.41c0.88,0.29,1.79,0.58,2.72,0.51c0.92-0.07,1.88-0.61,2.18-1.5
				c0.38-1.14-0.38-2.34-1.18-3.23c-1.93-2.16-4.32-3.89-6.95-5.04c2.77,1.51,5.71,2.68,8.75,3.46c0.89,0.23,2.07,0.3,2.47-0.55
				c0.38-0.82-0.35-1.71-1.03-2.3c-2.08-1.79-4.29-3.44-6.59-4.92c2.75,2.21,6.2,3.48,9.7,3.58c0.92,0.03,1.94-0.07,2.58-0.75
				c0.77-0.82,0.65-2.2,0.03-3.14c-0.61-0.94-1.6-1.55-2.55-2.12c-7.71-4.64-15.43-9.29-23.14-13.93c-2.52-1.52-5.38-3.66-5.16-6.64
				c0.14-1.87,1.48-3.37,2.76-4.71c4.89-5.16,9.78-10.32,14.68-15.48l0.1,0.03"/>
			<path class="st7" d="M47.21,114.71c-12.79,11.06-22.35,25.47-31.09,40.08c-1.7,2.85-3.45,6.05-2.85,9.33
				c0.67,3.69,4.02,6.13,7.17,8.05c9.67,5.92,21.08,12.14,32.44,15.77c1.75-0.35,2.26-0.48,3.95,0.11c1.69,0.58,4.22-0.16,4.05-1.98
				c-0.1-1.03-1.05-1.72-1.93-2.24c-2.3-1.37-4.7-2.57-7.16-3.6c2.95,0.9,5.9,1.8,8.85,2.69c0.78,0.24,1.77,0.42,2.29-0.23
				c0.91-1.12-0.87-2.45-2.24-2.83c-7.22-1.98-14.01-5.57-19.77-10.43c-4.41-3.73-8.43-8.69-8.72-14.53
				c-0.26-5.25,2.5-10.11,5.17-14.6c3.83-6.44,7.65-12.87,11.48-19.31c0.83-1.4,1.69-2.89,1.71-4.53
				C50.56,114.82,49.28,112.92,47.21,114.71z"/>
			<path class="st12" d="M173.53,137.61c2.47,4.04,5.26,7.87,8.37,11.89c0.75,0.97,1.48,1.95,2.44,3.07
				c0.27,3.28-1.02,6.54-2.98,9.14c-1.96,2.6-4.56,4.62-7.22,6.47c-5.09,3.52-10.67,8.05-16.36,10.41c-1.1,0.46-2.19,0.95-2.93,0.02
				c-1.01-1.26,0.27-4.69,1.61-5.59c7.08-4.77,13.81-10.09,20.09-15.91c1.41-1.31,2.84-2.69,3.6-4.48
				C180.91,150.84,180.83,148.53,173.53,137.61z"/>
			<path class="st13" d="M171.88,136.94c3.47,4.24,8.66,10.62,8.78,14.04c0.2,5.79-29.84,21.61-25.81,27.62
				c1.45,2.17,7.17-3.01,10.69-4.72c-4.82,4.5-9.78,8.35-8.09,10.08c1.97,2.01,7.68-2.8,10.52-4.15c-3.9,3.38-9.16,7.18-6.73,9.34
				c5.82,5.18,42.91-27.11,41.71-35.85c-0.96-6.99-17.3-24.94-33.33-39.14"/>
			<path class="st13" d="M47.75,114.17c-13.42,12.23-38.12,43.35-35.29,51.17c3.21,8.86,46.01,27.92,48.26,22.57
				c1.29-3.05-5.31-5.52-8.25-8.09c6.68,2.59,11.03,4.41,11.66,2.77c0.8-2.09-5.57-5.15-8.22-7.35c5.47,2.82,12.71,4.31,13.58,1.6
				c1.41-4.4-31.72-16.89-32.11-24.12c-0.22-4.01,11.9-14.43,17.62-19.82"/>
			<path class="st14" d="M83.28,122.75c-2.82-1.43-5.7-2.89-8.82-3.37s-6.56,0.15-8.8,2.43c-3,3.05-3.01,7.99-2.21,12.24
				c2.33,12.39,10,23.55,20.43,30.27c10.43,6.72,23.44,8.98,35.53,6.49c12.08-2.49,23.13-9.65,30.77-19.55
				c5.21-6.75,8.92-14.94,9.24-23.53c0.12-3.28-0.27-6.63-1.66-9.58c-1.39-2.95-3.87-5.46-6.95-6.35c-5.3-1.52-10.6,1.85-15.39,4.61
				C119.25,125.73,98.55,130.51,83.28,122.75z"/>
			<path class="st12" d="M82.79,121.69c-4.68-2.3-10.4-4.57-14.78-1.7c-2.25,1.47-3.61,4.1-4.06,6.79
				c-0.45,2.69-0.82,6.29-0.15,8.93c4.85,19.04,19.34,31.67,36.19,34c17.13,2.38,35.26-2.02,47.89-14.69
				c6.3-7.26,10.47-16.44,11.85-26.05c-11.04,9.19-23.69,16.12-36.45,22.56c-4.64,2.34-9.35,4.65-14.39,5.84
				c-5.04,1.2-10.5,1.21-15.22-0.95c-5.67-2.59-9.79-8.17-11.32-14.34C80.81,135.94,81.72,129.3,82.79,121.69z"/>
			<path class="st15" d="M79.58,120.73c-0.76,2.83-1.18,5.75-1.26,8.69c2.39,0.86,4.85,1.52,7.34,1.98
				c0.31,0.06,0.64,0.11,0.92-0.01c0.52-0.22,0.69-0.88,0.79-1.44c0.37-2.11,0.75-4.21,1.12-6.32
				C85.46,123.06,82.5,122.07,79.58,120.73z"/>
			<path class="st15" d="M89.02,123.77c-0.31,1.89-0.62,3.77-0.92,5.66c2.86,0.63,5.75,1.14,8.65,1.52
				c0.46-1.89,0.78-3.81,0.96-5.75C94.9,125.01,92.11,124.54,89.02,123.77z"/>
			<path class="st15" d="M119.67,122.97c0.15,2.95,0.78,5.87,1.86,8.61c2.44-0.23,4.87-0.6,7.27-1.12c0.28-0.06,0.59-0.14,0.78-0.37
				c0.24-0.3,0.19-0.74,0.13-1.12c-0.48-2.94-0.97-5.87-1.46-8.81C125.45,120.94,122.65,121.72,119.67,122.97z"/>
			<path class="st15" d="M128.08,120.1c0.45,2.04,0.91,4.07,1.36,6.11c0.1,0.42,0.24,0.91,0.63,1.08c0.27,0.12,0.59,0.04,0.88-0.04
				c1.93-0.53,3.85-1.06,5.78-1.6c0.27-0.07,0.57-0.17,0.69-0.43c0.09-0.2,0.05-0.44-0.01-0.66c-0.64-2.72-1.29-5.45-1.93-8.17
				C133.18,117.74,130.78,118.92,128.08,120.1z"/>
			<path class="st16" d="M81.07,161.3c3.33-5.61,8.94-9.76,15.2-11.21c6.26-1.46,13.07-0.2,18.44,3.39
				c3.86-5.67,10.16-9.53,16.86-10.35c6.7-0.82,13.71,1.41,18.77,5.99c0.32,0.29,0.66,0.63,0.72,1.07c0.06,0.44-0.18,0.85-0.42,1.22
				c-3.85,6.03-9.54,10.71-15.88,13.87s-13.3,4.84-20.3,5.59c-5.91,0.63-11.93,0.61-17.72-0.75
				C90.96,168.75,85.41,165.99,81.07,161.3z"/>
			<path class="st11" d="M114.33,154.43c-4.48-2.93-9.92-4.28-15.22-3.79s-10.41,2.83-14.3,6.53c-1.43,1.36-2.79,3.22-2.38,5.18
				c0.33,1.57,1.71,2.66,3.06,3.49c5.57,3.41,12.14,4.74,18.62,5.16c8.51,0.55,17.17-0.41,25.15-3.48
				c7.98-3.08,15.24-8.34,20.17-15.45c0.54-0.78,1.08-1.71,0.86-2.65c-0.35-1.43-2.15-1.81-3.59-1.76
				c-5.52,0.2-10.71,2.56-15.89,4.51C125.64,154.11,119.23,157.63,114.33,154.43z"/>
			<path class="st13" d="M64.93,121.95c4.4-6.38,19.44,0.65,24.08,1.68c38.1,8.49,55.22-20.17,65.9-10.79
				c12.59,11.06,1.44,52.22-39.19,57.91C73.48,176.66,57,133.46,64.93,121.95z"/>
			<path class="st13" d="M78.93,121.95c-0.57,5.69-1.8,7.51-0.93,7.83c2.27,0.83,8.4,2.79,8.93,2.25c0.29-0.3,0.37-0.56,0.44-0.97
				c0.37-2.2,0.73-4.57,1.1-6.77"/>
			<path class="st13" d="M88.46,129.71c0.37-0.17,5.96,1.05,8.29,1.42c0.73,0.12,0.49-2.11,0.85-5.05"/>
			<path class="st13" d="M119.43,124.17c-0.08-0.31,0.02-0.12-0.06-0.43c0.27,1.69,1.42,8.36,1.7,8.37c1.46,0.06,7.18-1.17,8.61-1.7
				c0.56-0.21-1.44-7.14-1.84-9.49"/>
			<path class="st13" d="M81.07,162.59c3.14-5.86,8.77-10.27,15.13-11.83s13.33-0.25,18.73,3.51c3.82-6.19,9.92-11.08,17.03-11.88
				c7.11-0.81,14.52,1.86,19.57,7.04"/>
			<path class="st13" d="M130.05,127.27c2.47-0.92,5.02-1.66,7.6-2.19c-0.81-2.65-1.62-5.3-2.43-7.96"/>
			<path class="st17" d="M87.29,90.63c-4.09-2.53-9.84-1.42-13.03,2.22c-3.18,3.65-3.7,9.34-1.56,13.71
				c2.14,4.37,6.66,7.31,11.41,7.83c2.8,0.31,5.82-0.23,7.97-2.1c1.64-1.42,2.63-3.5,3.1-5.65C96.61,100.01,92.13,93.63,87.29,90.63
				z"/>
			<path class="st18" d="M80.91,109.47c-2.73-0.1-5.46-0.2-8.19-0.29c-1.24-0.04-2.53-0.08-3.68,0.42c-1.14,0.5-2.09,1.71-1.89,2.97
				c0.14,0.88,0.81,1.6,1.59,2c0.78,0.4,1.66,0.54,2.53,0.64c3.78,0.47,7.61,0.54,11.39,0.06c0.85-0.11,1.72-0.25,2.45-0.71
				c0.73-0.46,1.29-1.31,1.17-2.17c-0.17-1.25-1.52-1.88-2.69-2.29C82.67,109.78,81.74,109.46,80.91,109.47z"/>
			<path class="st18" d="M144.74,105.87c-3.34-0.26-6.86-0.5-9.85,1.04c-0.79,0.41-1.55,0.96-1.98,1.75
				c-0.43,0.79-0.44,1.87,0.16,2.54c0.58,0.65,1.52,0.76,2.38,0.77c3.77,0.05,7.46-1.04,10.95-2.48c0.51-0.21,1.06-0.47,1.3-0.97
				c0.33-0.69-0.1-1.56-0.74-1.96C146.32,106.16,145.57,105.93,144.74,105.87z"/>
			<path class="st19" d="M85.61,99.75c-0.98-1.3-3.01-1.62-4.33-0.67c-1.32,0.95-1.72,3-0.86,4.39c0.86,1.39,2.84,1.9,4.25,1.09
				C86.07,103.75,86.97,101.55,85.61,99.75z"/>
			<path class="st19" d="M135.01,99.14c-0.9-1.09-2.75-1.04-3.69,0s-0.91,2.81-0.02,3.91c0.89,1.1,2.47,1.48,3.8,1.05
				c1.12-0.36,2.09-1.34,2.2-2.53C137.41,100.37,136.43,99.11,135.01,99.14z"/>
			<line class="st13" x1="131.6" y1="100.89" x2="135.51" y2="101.84"/>
			<path class="st3" d="M85.24,99.51c-0.03-0.12-0.17-0.2-0.29-0.18s-0.22,0.12-0.27,0.23c-0.05,0.12-0.04,0.25,0,0.37
				c0.03,0.1,0.09,0.2,0.17,0.27c0.08,0.07,0.2,0.1,0.3,0.08c0.17-0.04,0.28-0.23,0.27-0.41C85.41,99.69,85.31,99.53,85.24,99.51z"
				/>
			<path class="st3" d="M136.18,99.64c-0.06-0.26-0.38-0.4-0.63-0.29c-0.24,0.11-0.37,0.39-0.36,0.66c0.02,0.36,0.31,0.69,0.66,0.73
				c0.35,0.04,0.71-0.25,0.74-0.61C136.61,99.76,136.26,99.42,136.18,99.64z"/>
			<path class="st20" d="M70.79,81.52c2.54-2.6,3.72-3.23,6.33-5.06c1.61-1.12,2.29-11.64-1.94-12.5
				C70.66,63.05,57.91,73.79,61,78.56C61.69,79.63,70.03,80.84,70.79,81.52z"/>
			<path class="st20" d="M140.71,77.22c3.29,2.08,8.2,4.4,8.62,4.3c5.54-1.28,9.07-2.74,8.15-7.78c-0.58-3.16-10.04-8.89-13.28-7.77
				C139.73,67.51,139.9,72.44,140.71,77.22z"/>
			<path class="st19" d="M107.89,107.62c-0.67-1.46-1.92-2.56-2.66-3.97s-0.76-3.52,0.62-4.3c0.65-0.37,1.45-0.34,2.19-0.3
				c1.52,0.08,3.04,0.16,4.55,0.25c1.19,0.06,2.56,0.23,3.22,1.24c0.68,1.04,0.28,2.43-0.14,3.6c-0.59,1.64-1.25,3.38-2.63,4.39
				C111.65,109.54,108.84,109.69,107.89,107.62z"/>
			<path class="st13" d="M110.58,108.77c-0.04,2.47-0.08,4.94-0.12,7.41"/>
			<path class="st21" d="M93.23,83.39c0.88,0.89,1.76,1.78,2.64,2.68"/>
			<path class="st21" d="M101.42,80.08c0.53,1.36,1.05,2.71,1.58,4.07"/>
			<path class="st21" d="M111.96,79.15c0.04,1.42,0.08,2.83,0.12,4.25"/>
			<path class="st22" d="M123.74,81.29c-0.58,1.25-1.15,2.51-1.73,3.77"/>
			<path class="st23" d="M151.44,71.15c1,0.34,2.02,0.69,2.82,1.39c0.8,0.7,1.31,1.84,0.99,2.86c-0.21,0.65-0.71,1.15-1.21,1.61
				c-0.8,0.74-1.62,1.46-2.45,2.15c-0.27,0.22-0.55,0.45-0.89,0.56c-0.33,0.11-0.73,0.06-0.98-0.19c-0.24-0.25-0.27-0.65-0.18-0.99
				c0.09-0.34,0.28-0.64,0.43-0.95c0.82-1.64,0.77-3.71-0.13-5.31c-0.15-0.27-0.33-0.53-0.42-0.83c-0.09-0.3-0.07-0.65,0.13-0.88
				c0.37-0.41,1.05-0.19,1.47,0.17C151.45,71.12,151.82,71.61,151.44,71.15z"/>
			<path class="st23" d="M68.65,70.12c1.39-1.13,2.85-2.18,4.37-3.13c0.56-0.35,1.29-0.68,1.82-0.28c0.39,0.29,0.46,0.84,0.5,1.33
				c0.14,1.76,0.28,3.52,0.42,5.29c0.04,0.55,0.09,1.12-0.1,1.64s-0.65,0.98-1.18,0.96c-0.59-0.02-1.02-0.58-1.29-1.12
				s-0.48-1.15-0.97-1.5c-0.63-0.45-1.51-0.29-2.19,0.08c-0.68,0.37-1.25,0.92-1.94,1.28c-0.44,0.22-0.95,0.36-1.42,0.23
				c-0.73-0.21-1.17-1.06-1.08-1.83c0.08-0.77,0.59-1.44,1.21-1.88C67.42,70.74,68.17,70.51,68.65,70.12z"/>
			<path class="st23" d="M167.59,119.98c8.48,12.08,17.82,23.52,27.92,34.21c0.78,0.82,1.85,1.71,2.88,1.28
				c0.79-0.33,1.14-1.34,0.99-2.21c-0.15-0.86-0.66-1.61-1.17-2.31c-8.05-11.3-16.74-22.14-26.38-32.05
				c-0.56-0.58-1.15-1.16-1.89-1.46s-1.68-0.24-2.21,0.37C167.2,118.41,167.32,119.61,167.59,119.98z"/>
			<path class="st23" d="M166.82,150.87c-4.87,8.01-11.76,14.73-19.81,19.33c-4.21,2.4-8.72,4.22-13.02,6.46
				c-4.3,2.23-8.48,4.94-11.55,8.74c-1.01,1.25-1.9,3.09-0.95,4.38c0.69,0.94,2.01,1.07,3.15,0.97c4.68-0.41,8.84-3.13,12.7-5.88
				c7.11-5.06,13.98-10.47,20.59-16.21c4.42-3.84,8.77-7.88,12.06-12.77c0.7-1.04,1.37-2.17,1.54-3.42
				c0.17-1.26-0.29-2.68-1.38-3.29C169.05,148.57,167.73,149.37,166.82,150.87z"/>
			<path class="st23" d="M139.99,120.05c1.96-0.63,4.13-0.33,5.99,0.57c1.86,0.9,3.41,2.35,4.69,3.99c0.88,1.14,1.83,2.49,3.25,2.61
				c1.37,0.12,2.55-1.03,3.2-2.28c1.8-3.48,0.55-8.28-2.71-10.38c-2.08-1.34-4.7-1.59-7.12-1.15c-2.42,0.44-4.68,1.51-6.87,2.67
				c-0.73,0.38-1.46,0.79-1.98,1.44c-0.52,0.65-0.76,1.59-0.38,2.33C138.44,120.59,139.57,120.88,139.99,120.05z"/>
			<path class="st23" d="M123.66,150.43c3.71-3.53,8.53-5.82,13.56-6.43c0.57-0.07,1.16-0.11,1.7,0.09
				c0.54,0.21,0.99,0.74,0.95,1.32c-0.05,0.66-0.67,1.1-1.24,1.42c-3.93,2.26-8.16,3.98-12.53,5.1c-0.61,0.16-1.25,0.3-1.86,0.14
				C123.63,151.91,122.88,151.17,123.66,150.43z"/>
			<path class="st23" d="M135.55,81.82c7.05,1.84,13.68,5.37,19.2,10.22c1.02,0.9,2.03,1.88,2.6,3.13c0.57,1.25,0.63,2.84-0.2,3.93
				c-0.87,1.16-2.5,1.48-3.89,1.16c-1.39-0.32-2.61-1.15-3.79-1.97c-5.26-3.66-10.52-7.32-15.78-10.98
				c-0.81-0.56-1.64-1.15-2.2-1.97c-0.56-0.82-0.8-1.95-0.35-2.84C131.59,81.61,132.91,81.13,135.55,81.82z"/>
			<path class="st23" d="M129.91,62.71c-0.19,2.48-1.58,4.84-3.64,6.17C125.81,66.3,127.15,63.49,129.91,62.71z"/>
			<path class="st23" d="M121.3,59.19c0.06,2.21-0.4,4.43-1.34,6.41c-0.28,0.6-0.87,1.29-1.47,1.02c-0.41-0.18-0.53-0.71-0.57-1.16
				C117.71,62.99,118.6,60.44,121.3,59.19z"/>
			<path class="st23" d="M111.45,60.07c1.02-0.13,2.04-0.27,3.06-0.4c0.28,2.72-0.44,5.54-1.99,7.77c-0.32,0.46-0.74,0.93-1.29,0.93
				c-0.73,0-1.18-0.83-1.36-1.56c-0.45-1.77-0.34-3.69,0.31-5.4c0.34-0.9,0.9-1.8,1.79-2.12C112.84,58.96,114.05,59.52,111.45,60.07
				z"/>
			<path class="st23" d="M102.28,61.67c1.83,0.7,3.05,2.79,2.79,4.77c-0.11,0.83-0.61,1.74-1.43,1.77c-0.53,0.02-1-0.35-1.35-0.77
				C100.87,65.78,100.72,63.12,102.28,61.67z"/>
			<path class="st23" d="M91.43,60.91c2,1.12,3.54,3.07,4.19,5.31c0.36,1.22,0.27,2.87-0.88,3.36c-0.71,0.31-1.56-0.01-2.1-0.56
				c-0.54-0.56-0.84-1.32-1.08-2.06C91.07,65.41,90.73,63.81,91.43,60.91z"/>
			<path class="st23" d="M86.77,69.49c0.91,0.39,1.85,0.8,2.46,1.6c0.61,0.79,0.72,2.07-0.03,2.73c-0.84,0.74-2.25,0.21-2.83-0.75
				C85.78,72.1,85.78,70.89,86.77,69.49z"/>
			<path class="st23" d="M133.1,207.57c-1.84,4.08-2.11,8.87-0.74,13.14c2.03-4.39,2.24-9.62,0.56-14.16
				C132.22,207,131.74,207.79,133.1,207.57z"/>
			<path class="st23" d="M93.81,208.4c-1,6.54-0.8,13.27,0.61,19.73c1.24-4.73,1.6-9.7,1.06-14.57
				C95.32,212.14,94.9,210.49,93.81,208.4z"/>
			<path class="st23" d="M91.56,252.81c2.38,4.1,4.87,8.13,7.48,12.08c0.95,1.45,2.38,3.07,4.03,2.63c0.96-0.26,1.63-1.21,1.82-2.2
				c0.2-0.99-0.01-2.02-0.29-2.99c-1.23-4.21-3.97-7.75-6.66-11.17c-0.84-1.08-1.72-2.18-2.9-2.84s-2.77-0.76-3.8,0.13
				C90.2,249.33,90.54,251.06,91.56,252.81z"/>
			<path class="st23" d="M133.48,252.04c2.9,1.51,4.3,4.9,5.31,8.06c1,3.17,1.97,6.6,4.49,8.7c-0.11-6.49-2.86-12.89-7.46-17.36
				c-0.4-0.38-0.88-0.78-1.42-0.72C133.86,250.8,133.48,251.64,133.48,252.04z"/>
			<path class="st23" d="M51.37,126.77c-5.57,2.41-10.01,7.42-11.82,13.33c-0.24,0.78-0.35,1.81,0.33,2.24
				c0.54,0.34,1.24,0.07,1.8-0.23c3.6-1.92,6.78-4.67,9.23-7.99c0.56-0.76,1.09-1.58,1.28-2.51c0.19-0.93-0.05-2.01-0.79-2.58
				S49.39,128.66,51.37,126.77z"/>
			<path class="st23" d="M110.01,100.3c1.19,0.07,2.37,0.14,3.56,0.22c0.28,0.02,0.59,0.04,0.8,0.24c0.26,0.24,0.28,0.64,0.27,0.99
				c-0.04,1.42-0.28,2.84-0.72,4.19c-0.12,0.35-0.25,0.7-0.49,0.97c-0.24,0.27-0.62,0.44-0.97,0.34c-0.64-0.19-0.74-1.07-0.61-1.73
				c0.13-0.66,0.35-1.42-0.04-1.97c-0.28-0.4-0.8-0.53-1.27-0.63c-0.65-0.14-1.29-0.28-1.93-0.42c-0.51-0.11-1.12-0.31-1.27-0.83
				c-0.12-0.44,0.19-0.92,0.6-1.11c0.41-0.19,0.88-0.17,1.33-0.13C109.71,100.47,110.18,100.54,110.01,100.3z"/>
		</g>
	</g>
	<g id="Ebene_33">
		<g>
			<g>
				<path d="M30.68,88.2c0.87,0.54,1.75,1.07,2.62,1.61c1.32,0.81,3.22-2.52,1.88-3.34c-0.87-0.54-1.75-1.07-2.62-1.61
					C31.25,84.05,29.35,87.38,30.68,88.2L30.68,88.2z"/>
			</g>
		</g>
		<g>
			<g>
				<path d="M28.1,94.02c1.22,0.71,2.45,1.43,3.67,2.14c1.34,0.78,3.23-2.56,1.88-3.34c-1.22-0.71-2.45-1.43-3.67-2.14
					C28.64,89.9,26.76,93.24,28.1,94.02L28.1,94.02z"/>
			</g>
		</g>
		<g>
			<g>
				<path d="M26.76,100.73c0.87,0.18,1.75,0.36,2.62,0.54c0.82,0.17,1.62-0.99,1.84-1.65c0.22-0.66,0.32-1.7-0.55-1.88
					c-0.87-0.18-1.75-0.36-2.62-0.54c-0.82-0.17-1.62,0.99-1.84,1.65C25.99,99.52,25.89,100.55,26.76,100.73L26.76,100.73z"/>
			</g>
		</g>
		<g>
			<g>
				<path d="M151.19,207.24c0.47,0.65,0.93,1.29,1.4,1.94c0.51,0.71,1.47,0.05,1.86-0.46c0.45-0.59,0.99-1.74,0.47-2.46
					c-0.47-0.65-0.93-1.29-1.4-1.94c-0.51-0.71-1.47-0.05-1.86,0.46C151.22,205.38,150.67,206.52,151.19,207.24L151.19,207.24z"/>
			</g>
		</g>
		<g>
			<g>
				<path d="M155.91,203.39c0.63,0.65,1.25,1.29,1.88,1.94c0.6,0.61,1.42,0.13,1.86-0.46c0.3-0.39,0.56-0.85,0.63-1.34
					c0.05-0.33,0.1-0.85-0.15-1.11c-0.63-0.65-1.25-1.29-1.88-1.94c-0.6-0.61-1.42-0.13-1.86,0.46c-0.3,0.39-0.56,0.85-0.63,1.34
					C155.71,202.61,155.66,203.13,155.91,203.39L155.91,203.39z"/>
			</g>
		</g>
		<g>
			<g>
				<path d="M161.85,199.97c0.55,0.56,1.1,1.13,1.65,1.69c0.25,0.26,0.48,0.37,0.85,0.28c0.38-0.09,0.78-0.43,1.01-0.73
					c0.3-0.39,0.56-0.85,0.63-1.34c0.05-0.33,0.1-0.85-0.15-1.11c-0.55-0.56-1.1-1.13-1.65-1.69c-0.25-0.26-0.48-0.37-0.85-0.28
					c-0.38,0.09-0.78,0.43-1.01,0.73c-0.3,0.39-0.56,0.85-0.63,1.34C161.65,199.19,161.59,199.71,161.85,199.97L161.85,199.97z"/>
			</g>
		</g>
	</g>
</g>
</svg>
