<?xml version="1.0" encoding="utf-8"?>
<!-- Generator: Adobe Adobe Illustrator 24.2.0, SVG Export Plug-In . SVG Version: 6.00 Build 0)  -->
<svg version="1.1" xmlns="http://www.w3.org/2000/svg" xmlns:xlink="http://www.w3.org/1999/xlink" x="0px" y="0px"
	 viewBox="0 0 170.08 170.08" style="enable-background:new 0 0 170.08 170.08;" xml:space="preserve">
<style type="text/css">
	.st0{fill:#ADBECF;}
	.st1{fill:#F3C057;}
	.st2{fill:#F7D98D;}
	.st3{fill:#AEBFCE;}
	.st4{opacity:0.2706;}
	.st5{fill:#3D4C5B;}
	.st6{fill:#C9344F;stroke:#CA354F;stroke-width:0.1108;stroke-miterlimit:10;}
	.st7{fill:#6CB571;}
	.st8{fill:#F3C056;}
	.st9{fill:#F2C058;}
	.st10{fill:#E2BAA2;}
	.st11{fill:#E2BBA1;}
	.st12{fill:#3B74B5;}
	.st13{fill:#5A2E7C;}
	.st14{fill:#5A2F7B;}
	.st15{fill:#F3C056;stroke:#000000;stroke-width:0.74;stroke-miterlimit:10;}
	.st16{fill:#EBB344;stroke:#000000;stroke-width:0.74;stroke-miterlimit:10;}
	.st17{fill:#E8AE3A;stroke:#000000;stroke-width:0.74;stroke-miterlimit:10;}
	.st18{fill:#F3C057;stroke:#000000;stroke-width:0.74;stroke-miterlimit:10;}
	.st19{fill:#F4BF59;stroke:#000000;stroke-width:0.74;stroke-miterlimit:10;}
	.st20{fill:#F3C156;stroke:#000000;stroke-width:0.74;stroke-miterlimit:10;}
	.st21{fill:#F3C059;stroke:#000000;stroke-width:0.74;stroke-miterlimit:10;}
	.st22{fill:#FFFFFF;stroke:#FFFFFF;stroke-width:0.124;stroke-miterlimit:10;}
	.st23{opacity:0.3294;fill:#CA597B;stroke:#CB5A7A;stroke-width:0.124;stroke-miterlimit:10;enable-background:new    ;}
	.st24{fill:#ECC9AD;}
	.st25{opacity:0.1608;}
	.st26{opacity:0.1686;}
	.st27{fill:#FFFFFF;}
	.st28{fill:#F0F6FA;}
	.st29{opacity:0.149;}
	.st30{opacity:0.0314;}
	.st31{stroke:#000000;stroke-width:0.067;stroke-miterlimit:10;}
	.st32{fill:#C8354F;}
	.st33{fill:#C93550;}
	.st34{fill:#6DB671;}
	.st35{fill:#6CB671;}
	.st36{fill:#D1DFEA;}
	.st37{fill:#D3E1ED;}
	.st38{fill:#C8354E;}
	.st39{fill:#F3C058;}
	.st40{fill:#C8AE9D;}
	.st41{opacity:0.0784;}
	.st42{opacity:0.1412;}
	.st43{fill:#D15238;}
	.st44{fill:#D15239;}
</style>
<g id="Ebene_4_5_">
</g>
<g id="Ebene_8_7_">
	<g>
		<g id="Ebene_16_2_">
			<ellipse class="st6" cx="83.54" cy="83.99" rx="78.5" ry="75.83"/>
		</g>
		<g id="Ebene_9_5_">
			<g>
				<path class="st7" d="M76.25,131.24c-8.38-0.44-16.76,2.45-23.71,7.25c-6.95,4.8-12.56,11.44-17,18.7
					c4.78,2.65,10.17,3.94,15.52,4.96c20.46,3.9,41.56,4.3,62.15,1.16c6.29-0.96,12.77-2.35,17.84-6.26
					c-5.68-13.16-18.49-22.82-32.49-24.51c-0.22-0.03-0.46-0.05-0.66,0.07c-0.18,0.11-0.27,0.31-0.36,0.5
					c-3.45,7.64-6.89,15.28-10.34,22.92c-1.48-5.71-3.77-11.19-6.79-16.23c-1.59-2.65-3.42-5.3-3.83-8.37"/>
				<g>
					<path class="st7" d="M76.25,130.71c-6.74-0.33-13.44,1.43-19.41,4.56c-5.87,3.08-10.98,7.53-15.27,12.62
						c-2.39,2.83-4.53,5.87-6.48,9.04c-0.15,0.24-0.06,0.6,0.19,0.73c5.57,3.07,11.86,4.36,18.04,5.46
						c6.57,1.16,13.2,1.97,19.86,2.42c13.27,0.89,26.62,0.34,39.77-1.64c6.41-0.96,13.07-2.33,18.37-6.37
						c0.25-0.19,0.31-0.44,0.19-0.73c-3.32-7.65-9.01-14.12-15.94-18.57c-3.48-2.24-7.29-3.97-11.26-5.07
						c-0.99-0.28-2-0.51-3.01-0.71c-0.46-0.09-0.91-0.17-1.37-0.24c-0.55-0.08-1.15-0.23-1.71-0.21c-0.49,0.02-0.83,0.29-1.06,0.71
						c-0.35,0.62-0.6,1.32-0.89,1.97c-0.58,1.28-1.16,2.57-1.74,3.85c-2.59,5.75-5.18,11.49-7.77,17.24
						c0.32,0.04,0.64,0.09,0.96,0.13c-0.89-3.43-2.07-6.77-3.52-9.99c-0.73-1.63-1.54-3.23-2.41-4.79
						c-0.85-1.52-1.79-2.97-2.66-4.48c-0.95-1.67-1.76-3.41-2.03-5.34c-0.1-0.68-1.11-0.39-1.01,0.28c0.48,3.39,2.54,6.2,4.22,9.08
						c1.81,3.1,3.36,6.37,4.59,9.75c0.69,1.89,1.29,3.82,1.8,5.77c0.11,0.41,0.76,0.56,0.96,0.13c2.23-4.94,4.46-9.89,6.69-14.83
						c1.1-2.44,2.2-4.88,3.3-7.32c0.13-0.29,0.24-0.64,0.42-0.92c0.14-0.22,0.24-0.19,0.5-0.16c0.52,0.04,1.04,0.14,1.55,0.22
						c0.99,0.17,1.98,0.37,2.95,0.62c7.71,1.93,14.79,6.25,20.21,12.15c3.04,3.31,5.53,7.12,7.33,11.26
						c0.06-0.24,0.13-0.49,0.19-0.73c-4.68,3.58-10.46,5.01-16.14,5.95c-6.41,1.06-12.9,1.72-19.38,2.07
						c-13.11,0.69-26.3-0.01-39.27-2.13c-6.87-1.12-14-2.35-20.19-5.76c0.06,0.24,0.13,0.49,0.19,0.73
						c3.37-5.5,7.38-10.61,12.19-14.87c4.93-4.37,10.72-7.77,17.04-9.54c3.59-1,7.31-1.46,11.03-1.28
						C76.92,131.81,76.92,130.74,76.25,130.71L76.25,130.71z"/>
				</g>
			</g>
			<g>
				<g>
					<path class="st7" d="M40.17,70.03c1.01,0,1.01-1.6,0-1.6C39.16,68.43,39.16,70.03,40.17,70.03L40.17,70.03z"/>
				</g>
			</g>
			<g>
				<g>
					<path class="st7" d="M40.05,70.34c1.01,0,1.01-1.6,0-1.6C39.04,68.74,39.04,70.34,40.05,70.34L40.05,70.34z"/>
				</g>
			</g>
			<g>
				<g>
					<path class="st7" d="M40.07,70.19c1.01,0,1.01-1.6,0-1.6C39.06,68.59,39.06,70.19,40.07,70.19L40.07,70.19z"/>
				</g>
			</g>
		</g>
		<g id="Ebene_10_4_">
			<g>
				<path class="st8" d="M62.52,133.47c-1.73,0.34-3.4,1-4.91,1.93c2.08,1.7,4.68,2.54,7.23,3.31c3.44,1.04,6.91,2.01,10.39,2.9
					c1.91,0.49,3.87,0.97,5.84,0.8c-0.43-1.04-0.87-2.09-1.3-3.13c-0.1-0.25-0.22-0.51-0.42-0.69c-0.22-0.19-0.52-0.24-0.81-0.29
					c-5.45-0.96-10.77-2.66-15.79-5.02"/>
				<g>
					<path class="st9" d="M62.38,132.95c-1.78,0.37-3.47,1.03-5.03,1.98c-0.26,0.16-0.38,0.62-0.11,0.84
						c2.38,1.92,5.29,2.8,8.16,3.66c3.34,1,6.7,1.94,10.08,2.79c1.83,0.46,3.7,0.86,5.6,0.72c0.43-0.03,0.61-0.42,0.45-0.8
						c-0.39-0.95-0.79-1.89-1.18-2.84c-0.33-0.79-0.66-1.31-1.52-1.49c-1.77-0.38-3.54-0.7-5.29-1.16
						c-3.61-0.96-7.13-2.24-10.51-3.83c-0.61-0.29-1.14,0.63-0.53,0.92c3.23,1.52,6.58,2.78,10.01,3.74
						c1.69,0.47,3.41,0.87,5.13,1.2c0.37,0.07,0.84,0.08,1.19,0.23c0.39,0.17,0.5,0.66,0.65,1.03c0.38,0.91,0.76,1.82,1.14,2.74
						c0.15-0.27,0.3-0.54,0.45-0.8c-2.08,0.15-4.1-0.37-6.1-0.89c-2.07-0.54-4.14-1.1-6.2-1.69c-1.95-0.56-3.91-1.1-5.82-1.76
						c-1.76-0.6-3.49-1.35-4.96-2.53c-0.04,0.28-0.07,0.56-0.11,0.84c1.49-0.9,3.09-1.52,4.78-1.87
						C63.32,133.85,63.04,132.82,62.38,132.95L62.38,132.95z"/>
				</g>
			</g>
			<g>
				<path class="st8" d="M96.5,138.33c4.76-0.03,9.77-0.13,13.85-2.62c1.66,0.78,3.32,1.56,4.98,2.34
					c-6.37,3.43-13.7,4.96-20.88,4.38c0.86-1.33,1.6-2.73,2.22-4.19"/>
				<g>
					<path class="st9" d="M96.5,138.87c4.8-0.03,9.86-0.14,14.12-2.69c-0.18,0-0.35,0-0.53,0c1.66,0.78,3.32,1.56,4.98,2.34
						c0-0.31,0-0.62,0-0.92c-6.32,3.38-13.51,4.87-20.62,4.3c0.15,0.27,0.3,0.54,0.45,0.8c0.85-1.33,1.59-2.73,2.22-4.19
						c0.27-0.62-0.63-1.17-0.9-0.54c-0.63,1.46-1.37,2.86-2.22,4.19c-0.23,0.36,0.08,0.77,0.45,0.8c7.29,0.58,14.67-0.99,21.15-4.45
						c0.33-0.18,0.36-0.75,0-0.92c-0.86-0.4-1.72-0.81-2.58-1.21c-0.79-0.37-1.58-0.84-2.4-1.13c-0.4-0.14-0.65,0.08-0.99,0.27
						c-0.36,0.2-0.73,0.39-1.11,0.56c-0.74,0.33-1.51,0.59-2.28,0.8c-3.17,0.87-6.48,0.9-9.74,0.92
						C95.83,137.8,95.83,138.87,96.5,138.87L96.5,138.87z"/>
				</g>
			</g>
		</g>
		<g id="Ebene_11_2_">
			<g>
				<path class="st1" d="M48.07,142.68c12.09,5.25,24.81,8.99,37.78,11.12c0.78,1.02,1.55,2.04,2.33,3.05
					c0.32-0.82,0.63-1.63,0.95-2.45c0.09-0.24,0.19-0.5,0.38-0.67c0.35-0.33,0.88-0.3,1.35-0.28c12,0.46,21.56-2.11,34.23-6.34
					c1.04,1.74,2.19,3.41,3.45,5c-9.66,5.78-21.38,6.3-32.56,6.67c-4.39,0.14-8.8,0.29-13.18-0.07c-4.32-0.36-8.6-1.2-12.8-2.31
					c-9.2-2.43-18.03-6.1-26.83-9.76c1.53-1.26,3.06-2.51,4.59-3.77"/>
				<g>
					<path class="st1" d="M47.81,143.14c10.3,4.47,21.04,7.87,32.02,10.09c1.54,0.31,3.08,0.6,4.63,0.87
						c0.32,0.05,0.84,0.04,1.11,0.21c0.28,0.17,0.52,0.65,0.72,0.91c0.51,0.67,1.02,1.34,1.53,2.01c0.27,0.35,0.75,0.09,0.88-0.24
						c0.24-0.63,0.49-1.26,0.73-1.88c0.1-0.27,0.18-0.63,0.36-0.87c0.23-0.31,0.58-0.28,0.93-0.27c1.28,0.03,2.56,0.07,3.84,0.05
						c2.46-0.03,4.93-0.2,7.37-0.5c4.91-0.6,9.74-1.73,14.49-3.12c2.96-0.86,5.9-1.81,8.83-2.79c-0.2-0.08-0.39-0.16-0.59-0.25
						c1.07,1.78,2.25,3.48,3.53,5.11c0.04-0.28,0.07-0.56,0.11-0.84c-9.3,5.53-20.36,6.18-30.86,6.54
						c-6.04,0.21-12.11,0.44-18.11-0.42c-5.87-0.84-11.62-2.44-17.24-4.34c-6.36-2.15-12.56-4.73-18.76-7.31
						c0.08,0.3,0.15,0.59,0.23,0.89c1.53-1.26,3.06-2.51,4.59-3.77c0.52-0.43-0.22-1.18-0.74-0.75c-1.53,1.26-3.06,2.51-4.59,3.77
						c-0.34,0.28-0.09,0.76,0.23,0.89c11.14,4.64,22.45,9.41,34.39,11.41c6.02,1.01,12.07,0.96,18.15,0.76
						c5.43-0.18,10.87-0.38,16.25-1.16c5.93-0.86,11.79-2.5,16.99-5.59c0.32-0.19,0.31-0.58,0.11-0.84
						c-1.23-1.55-2.35-3.19-3.37-4.89c-0.12-0.19-0.37-0.32-0.59-0.25c-5.21,1.74-10.46,3.41-15.82,4.6
						c-4.98,1.11-10.04,1.74-15.13,1.77c-0.73,0-1.47,0-2.2-0.02c-0.66-0.02-1.38-0.14-2.03,0.05c-0.63,0.18-0.92,0.69-1.15,1.27
						c-0.32,0.81-0.63,1.63-0.95,2.45c0.29-0.08,0.58-0.16,0.88-0.24c-0.45-0.59-0.9-1.18-1.35-1.77c-0.38-0.5-0.77-1.31-1.41-1.45
						c-1.34-0.3-2.71-0.47-4.06-0.72c-2.76-0.53-5.51-1.13-8.24-1.81c-5.46-1.35-10.86-2.99-16.16-4.92
						c-3.04-1.1-6.04-2.3-9.01-3.58C47.72,141.95,47.19,142.87,47.81,143.14L47.81,143.14z"/>
				</g>
			</g>
		</g>
		<g id="Ebene_8_8_">
			<g>
				<path class="st10" d="M51.5,64.23c-3.75-1.4-9.51,0.01-11.71,3.41c-2.2,3.4-1.73,8.66,0.53,12.01s7.62,5.7,11.61,5.43
					c6.75,20.96,12.72,25.56,26.14,29.26c0.23,4.36-0.81,8.17-0.72,12.54c0.08,4.4,1.94,8.53,3.75,12.52
					c2.21,4.86,4.42,9.72,6.63,14.58c2.71-5.64,5.42-11.28,8.12-16.91c0.79-1.65,0.98-2.85,1.64-5.1c0.36-1.22-0.76-1.73-0.89-2.99
					c0,0-1.27-9.22-1.8-14.35c13.06-4.91,24.07-16.09,27.28-31.35c4.14,1.82,8.52,0.35,11.25-3.31c2.73-3.66,2.66-9.22-0.16-12.81
					c-2.82-3.59-8.13-4.86-12.22-2.93c-2.11-4.88-7.19-7.7-11.91-9.97c-9.46-4.54-19.84-6.56-30.14-4.71s-20,7.18-27.03,15.08"/>
				<g>
					<path class="st11" d="M51.64,63.72c-2.35-0.85-5.05-0.68-7.39,0.11c-2.35,0.8-4.48,2.31-5.52,4.67
						c-1.16,2.63-1.14,5.73-0.27,8.44c0.84,2.65,2.52,4.71,4.81,6.19c2.52,1.63,5.65,2.67,8.66,2.49c-0.17-0.13-0.34-0.26-0.5-0.39
						c2.03,6.28,4.32,12.76,8.13,18.17c2.69,3.83,6.21,6.76,10.42,8.69c2.56,1.17,5.24,2.03,7.95,2.77
						c-0.13-0.17-0.26-0.34-0.38-0.51c0.26,5.34-1.4,10.62-0.34,15.93c0.52,2.59,1.5,5.05,2.56,7.45c1.14,2.58,2.33,5.14,3.5,7.7
						c1.34,2.94,2.68,5.88,4.02,8.82c0.16,0.35,0.74,0.34,0.9,0c1.66-3.45,3.32-6.9,4.97-10.36c0.84-1.74,1.67-3.48,2.51-5.23
						c0.64-1.33,1.24-2.63,1.64-4.06c0.21-0.77,0.42-1.53,0.63-2.3c0.18-0.64,0.18-1.2-0.11-1.81c-0.27-0.57-0.62-1.02-0.72-1.66
						c-0.01-0.1-0.03-0.2-0.04-0.3c-0.24-1.79-0.48-3.57-0.71-5.36c-0.37-2.85-0.73-5.7-1.02-8.55c-0.13,0.17-0.26,0.34-0.38,0.51
						c5.2-1.96,10.04-4.87,14.22-8.6c4.23-3.78,7.74-8.41,10.2-13.57c1.45-3.04,2.53-6.25,3.23-9.55c-0.21,0.12-0.43,0.25-0.64,0.37
						c2.57,1.1,5.44,1.04,7.95-0.21c2.49-1.24,4.47-3.55,5.37-6.22c0.89-2.65,0.77-5.63-0.32-8.2c-1.07-2.53-3.11-4.46-5.6-5.5
						c-2.77-1.16-5.93-1.15-8.66,0.11c0.24,0.06,0.48,0.13,0.72,0.19c-1.94-4.42-6.16-7.15-10.25-9.24
						c-4.89-2.5-10.04-4.44-15.42-5.49c-5.53-1.07-11.22-1.2-16.78-0.22c-4.9,0.86-9.66,2.51-14.08,4.84
						c-5.01,2.63-9.57,6.16-13.37,10.41c-0.45,0.51,0.28,1.26,0.74,0.75c6.59-7.36,15.44-12.46,24.97-14.57
						c10.77-2.39,21.9-0.38,31.78,4.39c4.49,2.17,9.38,4.82,11.51,9.67c0.12,0.28,0.48,0.3,0.72,0.19c4.4-2.03,10.12-0.2,12.43,4.17
						c2.45,4.61,0.91,10.61-3.48,13.35c-2.44,1.52-5.32,1.68-7.94,0.55c-0.25-0.11-0.59,0.12-0.64,0.37
						c-1.2,5.65-3.53,10.98-6.87,15.65c-3.2,4.48-7.28,8.29-11.88,11.23c-2.58,1.65-5.32,3.02-8.17,4.1
						c-0.2,0.07-0.41,0.27-0.38,0.51c0.47,4.55,1.08,9.08,1.69,13.61c0.06,0.41,0.08,0.85,0.19,1.25c0.16,0.59,0.56,1.04,0.78,1.6
						c0.25,0.64-0.17,1.47-0.34,2.09c-0.36,1.35-0.74,2.65-1.34,3.91c-0.81,1.68-1.61,3.36-2.42,5.04
						c-1.86,3.86-3.71,7.73-5.57,11.59c0.3,0,0.6,0,0.9,0c-2.33-5.12-4.68-10.24-6.99-15.37c-1.07-2.37-2.11-4.78-2.74-7.32
						c-0.65-2.62-0.66-5.24-0.42-7.91c0.26-2.92,0.71-5.82,0.57-8.77c-0.01-0.23-0.15-0.45-0.38-0.51
						c-4.45-1.23-8.91-2.75-12.64-5.59c-3.95-3-6.65-7.32-8.75-11.8c-1.74-3.71-3.12-7.6-4.38-11.5c-0.07-0.21-0.27-0.41-0.5-0.39
						c-2.44,0.15-4.93-0.57-7.08-1.73c-2.19-1.17-4.02-2.84-5.02-5.19c-1.01-2.37-1.27-5.17-0.53-7.65
						c0.69-2.35,2.37-3.98,4.57-4.88c2.33-0.96,5.09-1.23,7.49-0.36C52,64.98,52.27,63.95,51.64,63.72L51.64,63.72z"/>
				</g>
			</g>
			<g>
				<g>
					<path class="st11" d="M95.6,137.7c0.67,0,0.68-1.07,0-1.07C94.92,136.63,94.92,137.7,95.6,137.7L95.6,137.7z"/>
				</g>
			</g>
			<g>
				<g>
					<path class="st11" d="M96.01,137.7c0.67,0,0.68-1.07,0-1.07C95.33,136.63,95.33,137.7,96.01,137.7L96.01,137.7z"/>
				</g>
			</g>
			<g>
				<g>
					<path class="st11" d="M93.96,134.25c0.67,0,0.68-1.07,0-1.07C93.29,133.18,93.28,134.25,93.96,134.25L93.96,134.25z"/>
				</g>
			</g>
			<g>
				<g>
					<path class="st11" d="M95.9,137.64c0.67,0,0.68-1.07,0-1.07C95.22,136.57,95.22,137.64,95.9,137.64L95.9,137.64z"/>
				</g>
			</g>
			<g>
				<g>
					<path class="st11" d="M95.85,137.74c0.67,0,0.68-1.07,0-1.07C95.17,136.67,95.17,137.74,95.85,137.74L95.85,137.74z"/>
				</g>
			</g>
			<g>
				<g>
					<path class="st11" d="M93.77,137.05c0.67,0,0.68-1.07,0-1.07C93.1,135.98,93.1,137.05,93.77,137.05L93.77,137.05z"/>
				</g>
			</g>
			<g>
				<g>
					<path class="st11" d="M97.49,132.52c0.67,0,0.68-1.07,0-1.07C96.82,131.45,96.81,132.52,97.49,132.52L97.49,132.52z"/>
				</g>
			</g>
			<g>
				<g>
					<path class="st11" d="M95.99,113.19c0.03,0,0.06-0.05,0.09-0.05C96.05,113.13,96.02,113.19,95.99,113.19L95.99,113.19z"/>
				</g>
			</g>
			<g>
				<g>
					<path class="st11" d="M95.82,113.63c0.03,0,0.06-0.05,0.09-0.05C95.88,113.57,95.85,113.63,95.82,113.63L95.82,113.63z"/>
				</g>
			</g>
			<g>
				<g>
					<path class="st11" d="M95.56,114.16c0.15,0.11,0.21,0.3,0.2,0.48c-0.01,0.09-0.04,0.18-0.08,0.25
						c-0.02,0.03-0.05,0.07-0.08,0.09c-0.01,0.01-0.02,0.01-0.03,0.02c-0.03,0.02-0.07,0.03,0.03-0.02
						c-0.03,0.01-0.05,0.02-0.08,0.03c-0.36,0.11-0.78-0.25-0.64-0.63c0.04-0.11,0.11-0.21,0.21-0.27c0.06-0.05-0.06,0.03-0.01,0.01
						c0.02-0.01,0.04-0.02,0.06-0.02c0.03-0.01,0.06-0.02,0.08-0.02c0.06-0.01,0.12-0.01,0.17,0.01c0.01,0,0.04-0.02,0.05-0.03
						c0.01,0,0.04-0.03,0.05-0.03c-0.11-0.03-0.22-0.01-0.33,0.05c-0.09,0.05-0.18,0.1-0.25,0.18c-0.15,0.17-0.19,0.42-0.05,0.61
						c0.12,0.16,0.34,0.26,0.54,0.21c0.09-0.02,0.17-0.07,0.25-0.12c0.08-0.06,0.14-0.14,0.18-0.23c0.08-0.22,0.02-0.49-0.16-0.62
						C95.63,114.09,95.57,114.17,95.56,114.16L95.56,114.16z"/>
				</g>
			</g>
			<g>
				<g>
					<path class="st11" d="M78.18,114.42c0.03,0,0.06-0.05,0.09-0.05C78.24,114.37,78.21,114.42,78.18,114.42L78.18,114.42z"/>
				</g>
			</g>
			<g>
				<g>
					<path class="st11" d="M40.11,68.68c0.03,0,0.06-0.05,0.09-0.05C40.17,68.63,40.14,68.68,40.11,68.68L40.11,68.68z"/>
				</g>
			</g>
		</g>
		<g id="Ebene_12_1_">
			<g>
				<path class="st12" d="M38.76,69.57c0.74-3.27,5.07-6.05,8.33-5.62c1.71,0.22,3.54,1.09,5.04,0.23c0.64-0.36,1.08-0.98,1.54-1.57
					c5.09-6.58,12.88-10.62,20.96-12.19c8.07-1.57,16.42-0.83,24.48,0.84c5.51,1.14,9.82,1.84,14.18,5.46
					c4.45,3.7,5.56,2.51,7.5,7.9c5.19-2.98,11.59,0.61,13.18,5.57c0.88,2.75,1.68,4.17,1.06,7c7.88-4.67,15.74-10.04,21.4-17.27
					c0.29-0.37,0.5-0.84,0.47-1.32c-0.03-0.58-0.47-1.04-0.9-1.43c-2-1.82-4.31-3.25-6.61-4.67c-4.41-2.71-8.81-5.43-13.22-8.14
					c-4.39-2.7-9.48-4.33-14.27-6.2c-4.34-1.69-8.42-1.4-13.05-3.2c-2.15-11.63-4.81-16.65-10.19-23.04
					c-1.43-1.71-4.23-3.18-6.21-4.16c-5.39-2.64-11.87,0.53-16.18,4.77c-4.64,4.56-8.02,10.44-9.67,16.79
					c-0.23,0.87-0.46,1.81-1.14,2.38c-0.64,0.54-0.37,1.62-1.18,1.82c-15.27,3.7-29.12,6.32-43.78,11.61
					c-0.62,0.22-2.82,2.2-2.82,2.2s4.23,18.88,19.31,24.66c1.09,0.42,1.04-0.49,1.66-1.94"/>
				<g>
					<path class="st12" d="M39.26,69.71c0.64-2.61,3.24-4.5,5.7-5.1c1.52-0.37,2.85,0.06,4.35,0.33c1.52,0.28,2.92,0.11,4.02-1.08
						c1.05-1.14,1.94-2.42,3.04-3.53c1.11-1.12,2.31-2.15,3.57-3.08c2.53-1.85,5.31-3.33,8.22-4.44c6.64-2.53,13.81-3.08,20.83-2.51
						c3.74,0.3,7.42,0.96,11.1,1.71c2.93,0.6,5.91,1.18,8.64,2.46c2.82,1.32,5.08,3.5,7.7,5.17c0.75,0.48,1.49,0.96,2.07,1.64
						c0.83,0.99,1.32,2.27,1.76,3.47c0.12,0.33,0.45,0.5,0.77,0.32c3.22-1.8,7.16-1.02,9.86,1.42c1.33,1.2,2.15,2.64,2.72,4.34
						c0.33,0.98,0.71,1.96,0.93,2.97c0.24,1.09,0.19,2.16-0.03,3.24c-0.09,0.45,0.36,0.85,0.77,0.6c4.59-2.73,9.09-5.63,13.24-9.03
						c2.04-1.67,3.99-3.47,5.78-5.41c0.89-0.96,1.8-1.95,2.57-3.02c0.71-0.99,0.69-2.09-0.12-3.01c-0.86-0.98-2.01-1.78-3.07-2.52
						c-1.17-0.83-2.39-1.59-3.61-2.35c-2.58-1.59-5.16-3.18-7.75-4.77c-2.56-1.58-5.09-3.27-7.74-4.69
						c-2.45-1.31-5.03-2.35-7.62-3.33c-2.87-1.09-5.73-2.33-8.74-2.95c-3.11-0.64-6.25-0.98-9.24-2.12
						c0.12,0.12,0.24,0.25,0.37,0.37c-0.74-3.98-1.64-7.96-3.13-11.73c-1.16-2.94-2.7-5.68-4.56-8.21c-0.98-1.33-1.98-2.75-3.17-3.9
						c-1.42-1.37-3.19-2.36-4.93-3.25c-1.75-0.89-3.51-1.49-5.49-1.47c-1.98,0.02-3.92,0.56-5.73,1.37
						c-3.86,1.73-7.04,4.74-9.63,8.08c-2.65,3.42-4.71,7.3-6.05,11.44c-0.33,1.03-0.53,2.12-0.91,3.13
						c-0.18,0.48-0.47,0.78-0.8,1.15c-0.26,0.29-0.38,0.64-0.5,1.01c-0.2,0.58-0.39,0.57-0.99,0.71c-0.61,0.15-1.22,0.29-1.83,0.44
						c-1.25,0.3-2.5,0.59-3.75,0.88c-4.75,1.11-9.52,2.18-14.26,3.33c-4.7,1.14-9.38,2.36-14.01,3.75
						c-2.39,0.72-4.76,1.48-7.12,2.29c-0.87,0.3-1.88,0.52-2.66,1.03c-0.56,0.37-1.07,0.81-1.58,1.24
						c-0.32,0.27-0.63,0.54-0.95,0.82c-0.14,0.13-0.17,0.34-0.14,0.52c0.63,2.78,1.72,5.5,2.93,8.06
						c2.51,5.32,6.05,10.24,10.78,13.71c1.5,1.1,3.11,2.03,4.8,2.78c0.65,0.29,1.57,0.86,2.28,0.46c0.69-0.39,0.85-1.5,1.13-2.17
						c0.26-0.62-0.64-1.17-0.9-0.54c-0.16,0.39-0.3,0.78-0.45,1.18c-0.07,0.18-0.14,0.55-0.34,0.59c-0.26,0.06-0.83-0.3-1.08-0.41
						c-0.37-0.16-0.74-0.33-1.11-0.51c-1.41-0.69-2.75-1.52-4.01-2.47c-2.35-1.76-4.41-3.93-6.15-6.31
						c-2.67-3.64-4.72-7.78-6.13-12.09c-0.28-0.85-0.55-1.71-0.74-2.58c-0.05,0.17-0.09,0.35-0.14,0.52c0.61-0.55,1.24-1.1,1.9-1.59
						c1.2-0.9,2.81-1.23,4.21-1.69c3.58-1.2,7.19-2.28,10.82-3.28c7.25-1.99,14.59-3.63,21.9-5.33c1.81-0.42,3.62-0.84,5.43-1.27
						c0.52-0.12,1.05-0.25,1.57-0.38c0.31-0.07,0.65-0.12,0.92-0.3c0.47-0.32,0.54-0.85,0.74-1.35c0.13-0.31,0.35-0.47,0.56-0.72
						c0.24-0.28,0.41-0.59,0.55-0.93c0.31-0.74,0.47-1.53,0.69-2.3c0.48-1.68,1.09-3.33,1.81-4.92c2.73-5.99,7.19-11.88,13.13-14.81
						c2.78-1.37,6.04-2.04,9.03-0.97c1.45,0.52,2.87,1.35,4.17,2.17c1.31,0.82,2.39,1.77,3.38,2.97c3.2,3.9,5.71,8.15,7.28,12.99
						c0.47,1.44,0.86,2.91,1.21,4.39c0.18,0.75,0.35,1.51,0.5,2.27c0.1,0.48,0.2,0.97,0.29,1.45c0.07,0.38,0.06,0.95,0.33,1.24
						c0.22,0.24,0.71,0.32,1,0.42c0.42,0.14,0.84,0.27,1.26,0.4c0.93,0.26,1.87,0.47,2.82,0.65c1.7,0.32,3.42,0.56,5.11,0.95
						c1.79,0.41,3.48,1.09,5.2,1.73c1.73,0.65,3.47,1.29,5.18,1.98c1.74,0.71,3.47,1.47,5.13,2.36c1.64,0.88,3.21,1.91,4.8,2.89
						c3.45,2.13,6.91,4.25,10.36,6.38c1.58,0.97,3.16,1.95,4.64,3.08c0.67,0.51,1.4,1.04,1.96,1.68c0.92,1.02-0.04,1.9-0.72,2.71
						c-4.54,5.46-10.25,9.76-16.17,13.53c-1.42,0.9-2.85,1.78-4.3,2.63c0.26,0.2,0.51,0.4,0.77,0.6c0.24-1.14,0.31-2.27,0.11-3.42
						c-0.2-1.16-0.64-2.26-1.01-3.37c-0.64-1.93-1.59-3.6-3.12-4.93c-3.06-2.67-7.39-3.47-10.98-1.46c0.26,0.11,0.51,0.21,0.77,0.32
						c-0.73-2.02-1.59-3.87-3.36-5.13c-0.81-0.58-1.67-1.07-2.48-1.64c-1.28-0.89-2.43-1.96-3.74-2.81
						c-2.58-1.69-5.51-2.63-8.48-3.31c-3.55-0.81-7.13-1.52-10.74-1.99c-7.41-0.96-15.09-0.85-22.28,1.39
						c-6.09,1.89-11.86,5.28-16.06,10.21c-0.57,0.67-1.06,1.44-1.69,2.06c-0.88,0.87-1.96,0.83-3.09,0.6
						c-1.61-0.32-3.03-0.68-4.67-0.28c-2.81,0.68-5.71,2.88-6.43,5.84C38.09,70.09,39.1,70.38,39.26,69.71L39.26,69.71z"/>
				</g>
			</g>
			<g>
				<g>
					<path class="st12" d="M97.28,12.81c0.67,0,0.68-1.07,0-1.07C96.6,11.74,96.6,12.81,97.28,12.81L97.28,12.81z"/>
				</g>
			</g>
			<g>
				<g>
					<path class="st12" d="M97.28,13.1c0.67,0,0.68-1.07,0-1.07C96.6,12.03,96.6,13.1,97.28,13.1L97.28,13.1z"/>
				</g>
			</g>
		</g>
		<g id="Ebene_13_1_">
			<g>
				<path class="st13" d="M20.98,55.08c9.99-6.33,21.11-10.8,32.65-13.12c17.83-3.59,36.25-2.77,54.06,0.96
					c5.97,1.25,34.57,8.67,45.49,21.21c1.52-1.96,3.17-3.8,4.94-5.53c-15.33-12.83-34.16-21.05-53.7-24.53s-39.75-2.28-59.02,2.48
					c-4.21,1.04-8.39,2.25-12.43,3.83c-5.23,2.05-10.22,4.71-14.93,7.81c0.34,2.57,1.2,5.07,2.51,7.3"/>
				<g>
					<path class="st14" d="M21.24,55.54c9.33-5.89,19.6-10.18,30.32-12.6c11.51-2.6,23.41-3.24,35.16-2.43
						c8.5,0.58,17.02,1.83,25.27,4c6.58,1.73,13.07,3.86,19.37,6.47c6.99,2.9,14.21,6.42,19.76,11.76c0.59,0.56,1.15,1.15,1.69,1.77
						c0.17,0.2,0.57,0.22,0.74,0c1.52-1.95,3.17-3.8,4.94-5.53c0.19-0.18,0.22-0.57,0-0.75c-7.09-5.92-14.91-10.89-23.2-14.85
						c-8.27-3.95-16.99-6.91-25.91-8.87c-9.81-2.15-19.86-3.09-29.89-2.96c-10.23,0.14-20.45,1.39-30.44,3.61
						c-4.97,1.1-9.92,2.4-14.71,4.15c-4.64,1.7-9.11,3.88-13.36,6.42c-1.08,0.65-2.14,1.32-3.19,2.01c-0.22,0.14-0.28,0.36-0.24,0.6
						c0.37,2.63,1.24,5.14,2.56,7.43c0.34,0.59,1.25,0.05,0.9-0.54c-1.28-2.21-2.1-4.63-2.46-7.17c-0.08,0.2-0.16,0.4-0.24,0.6
						c4.17-2.73,8.54-5.15,13.13-7.07c4.61-1.94,9.4-3.36,14.24-4.55c9.86-2.43,19.94-3.92,30.07-4.32
						c10.02-0.4,20.09,0.26,29.95,2.13c8.92,1.69,17.68,4.37,26.01,8.05c8.28,3.66,16.16,8.3,23.34,13.9
						c0.91,0.71,1.81,1.44,2.7,2.18c0-0.25,0-0.5,0-0.75c-1.77,1.73-3.42,3.57-4.94,5.53c0.25,0,0.49,0,0.74,0
						c-5.01-5.71-12.07-9.45-18.85-12.49c-6.63-2.97-13.52-5.34-20.51-7.27c-7.58-2.1-15.36-3.42-23.17-4.2
						c-11.83-1.17-23.83-0.88-35.54,1.26c-10.94,2-21.52,5.85-31.21,11.42c-1.2,0.69-2.38,1.41-3.55,2.15
						C20.14,54.98,20.67,55.9,21.24,55.54L21.24,55.54z"/>
				</g>
			</g>
		</g>
		<g id="Ebene_15_2_">
			<g>
				<path class="st7" d="M76.91,13.14c-0.84,0.43-1.59,1.04-2.18,1.79c8.59-0.41,17.07-0.53,25.65-0.93
					c-1.55-1.88-2.38-2.85-4.07-2.85c-6.36,0.01-12.71,0.65-18.95,1.9"/>
				<g>
					<path class="st7" d="M76.65,12.68c-0.88,0.47-1.65,1.1-2.29,1.87c-0.27,0.33-0.12,0.93,0.37,0.91
						c8.55-0.4,17.11-0.53,25.65-0.93c0.47-0.02,0.66-0.56,0.37-0.91c-0.81-0.98-1.65-2.12-2.82-2.66
						c-0.51-0.24-1.05-0.33-1.61-0.34c-0.89-0.01-1.78,0.02-2.66,0.04c-3.51,0.1-7.01,0.4-10.49,0.88c-1.99,0.27-3.97,0.61-5.93,1
						c-0.66,0.13-0.38,1.16,0.28,1.03c4.21-0.84,8.48-1.4,12.76-1.68c1.06-0.07,2.12-0.12,3.17-0.15c1.02-0.03,2.06-0.1,3.08-0.04
						c1.56,0.09,2.57,1.57,3.49,2.68c0.12-0.3,0.25-0.61,0.37-0.91c-8.55,0.4-17.11,0.53-25.65,0.93c0.12,0.3,0.25,0.61,0.37,0.91
						c0.59-0.71,1.27-1.27,2.08-1.7C77.77,13.28,77.25,12.36,76.65,12.68L76.65,12.68z"/>
				</g>
			</g>
			<g>
				<path class="st7" d="M23.48,60.94c0.89,1.05,1.78,2.09,2.68,3.14C44.2,52.74,65.61,47.06,86.78,47.99s41.23,11.49,59.04,21.35
					c1.69-1.43,3.37-2.85,5.06-4.28c-17.97-9.04-37.11-15.99-56.98-18.69c-19.86-2.7-40.51-1-59.09,6.67
					c-4.26,1.76-8.58,3.97-11.24,7.79"/>
				<g>
					<path class="st7" d="M23.11,61.32c0.89,1.05,1.78,2.09,2.68,3.14c0.15,0.17,0.45,0.2,0.63,0.08
						c6.96-4.36,14.4-7.89,22.15-10.52c7.74-2.62,15.78-4.36,23.9-5.13c8.14-0.77,16.41-0.68,24.47,0.8
						c8.22,1.5,16.18,4.23,23.86,7.55c7.58,3.28,14.9,7.14,22.14,11.12c0.87,0.48,1.74,0.96,2.61,1.44
						c0.22,0.12,0.45,0.07,0.63-0.08c1.69-1.43,3.37-2.85,5.06-4.28c0.25-0.21,0.18-0.7-0.11-0.84
						c-8.02-4.03-16.25-7.64-24.69-10.66c-8.49-3.03-17.2-5.46-26.06-7.07c-8.76-1.59-17.65-2.38-26.55-2.2
						c-8.86,0.18-17.71,1.32-26.3,3.56c-4.3,1.12-8.54,2.52-12.66,4.21c-3.56,1.46-7.14,3.17-9.92,5.92
						c-0.68,0.68-1.29,1.41-1.85,2.2c-0.4,0.56,0.51,1.09,0.9,0.54c2.29-3.23,5.77-5.25,9.27-6.83c3.94-1.77,8.04-3.19,12.18-4.37
						c8.41-2.41,17.09-3.72,25.81-4.08c8.79-0.37,17.61,0.23,26.29,1.65c8.65,1.42,17.17,3.62,25.49,6.43
						c8.41,2.84,16.61,6.29,24.6,10.17c0.99,0.48,1.97,0.97,2.95,1.46c-0.04-0.28-0.07-0.56-0.11-0.84
						c-1.69,1.43-3.37,2.85-5.06,4.28c0.21-0.03,0.42-0.06,0.63-0.08c-7.29-4.04-14.64-8.01-22.23-11.44
						c-7.68-3.47-15.62-6.42-23.84-8.21c-8.14-1.77-16.46-2.19-24.75-1.63c-8.2,0.56-16.33,2.07-24.2,4.49
						c-7.82,2.41-15.39,5.73-22.48,9.89c-0.91,0.53-1.8,1.08-2.69,1.63c0.21,0.03,0.42,0.06,0.63,0.08
						c-0.89-1.05-1.78-2.09-2.68-3.14C23.41,60.04,22.67,60.8,23.11,61.32L23.11,61.32z"/>
				</g>
			</g>
		</g>
		<g id="Ebene_20_2_">
			<g>
				<path class="st8" d="M69.1,23.38c-0.77,0.91-1.31,2.01-1.57,3.18"/>
				<g>
					<path class="st1" d="M69.05,23.41c-0.6,0.71-1.06,1.53-1.36,2.42c-0.08,0.25-0.15,0.5-0.21,0.76c0.01-0.02,0.08-0.03,0.09-0.05
						c0.2-0.91,0.58-1.78,1.1-2.55c0.15-0.22,0.3-0.43,0.47-0.63C69.12,23.38,69.08,23.38,69.05,23.41L69.05,23.41z"/>
				</g>
			</g>
			<g>
				<path class="st8" d="M68.95,23.71c-0.6,0.83-1.06,1.77-1.35,2.76c0.75-0.19,1.51-0.33,2.27-0.46
					c11.8-1.99,23.91-2.03,35.72-0.13c-1.21-0.39-0.73-2.48-1.71-3.29c-0.41-0.34-0.97-0.37-1.49-0.39
					c-10.97-0.4-22.02-0.61-32.84,1.26"/>
				<g>
					<path class="st1" d="M68.27,23.31c-0.63,0.9-1.11,1.89-1.43,2.95c-0.18,0.6,0.4,1.13,0.97,0.99c2.36-0.59,4.81-0.88,7.21-1.17
						c2.43-0.29,4.87-0.5,7.31-0.63c4.92-0.26,9.85-0.19,14.76,0.21c2.77,0.23,5.54,0.56,8.29,1c0.99,0.16,1.38-1.18,0.42-1.54
						c-0.18-0.07-0.26-0.4-0.31-0.58c-0.11-0.41-0.18-0.83-0.31-1.24c-0.33-1.01-1-1.68-2.06-1.83c-1.31-0.19-2.69-0.13-4.01-0.18
						c-1.36-0.04-2.73-0.08-4.09-0.11c-5.45-0.11-10.91-0.07-16.35,0.36c-3.12,0.24-6.24,0.62-9.33,1.15
						c-0.99,0.17-0.57,1.71,0.42,1.54c10.64-1.82,21.48-1.63,32.22-1.24c0.45,0.02,1.18-0.07,1.51,0.33
						c0.23,0.28,0.28,0.72,0.36,1.06c0.23,1,0.53,1.9,1.54,2.29c0.14-0.51,0.28-1.03,0.42-1.54c-9.94-1.59-20.07-1.85-30.07-0.72
						c-2.78,0.32-5.62,0.63-8.34,1.31c0.32,0.33,0.64,0.66,0.97,0.99c0.28-0.93,0.71-1.78,1.27-2.57c0.25-0.35,0.06-0.89-0.28-1.1
						C68.96,22.78,68.52,22.96,68.27,23.31L68.27,23.31z"/>
				</g>
			</g>
			<g>
				<path class="st8" d="M30.86,68.16c1.04,0.48,2.01,1.11,2.87,1.88c0.11,0.1,0.24,0.21,0.39,0.2c0.11-0.01,0.2-0.08,0.29-0.14
					c4.72-3.59,10.21-6.12,15.97-7.36c0.73-0.16,1.48-0.3,2.16-0.62c0.84-0.4,1.53-1.05,2.21-1.69c0.86-0.81,1.72-1.63,2.59-2.44
					c-3.25,0.58-6.47,1.4-9.61,2.45c-1.35,0.45-2.69,0.94-4.03,1.43c-1.23,0.45-2.47,0.91-3.7,1.36c-1.11,0.41-2.22,0.82-3.31,1.29
					c-2,0.87-3.92,1.94-5.71,3.2"/>
				<g>
					<path class="st1" d="M30.47,68.85c0.92,0.43,1.79,0.97,2.57,1.63c0.37,0.32,0.76,0.65,1.29,0.53c0.48-0.11,0.9-0.54,1.29-0.82
						c1.66-1.2,3.41-2.27,5.23-3.2c1.78-0.92,3.63-1.69,5.53-2.33c0.95-0.32,1.92-0.6,2.89-0.85c0.98-0.25,2.01-0.39,2.97-0.72
						c1.1-0.38,1.98-1.08,2.83-1.87c0.95-0.89,1.89-1.79,2.84-2.68c0.62-0.59-0.05-1.47-0.76-1.34c-3.69,0.67-7.32,1.63-10.86,2.87
						c-1.78,0.62-3.54,1.29-5.31,1.93c-1.71,0.63-3.44,1.24-5.1,1.99c-1.85,0.83-3.6,1.84-5.27,3.01c-0.83,0.58-0.04,1.97,0.79,1.38
						c1.45-1.02,2.98-1.92,4.57-2.68c1.6-0.77,3.28-1.36,4.94-1.97c3.49-1.28,6.96-2.62,10.54-3.6c2.02-0.56,4.06-1.01,6.12-1.39
						c-0.25-0.45-0.51-0.89-0.76-1.34c-0.71,0.67-1.42,1.34-2.13,2.01c-0.59,0.56-1.16,1.15-1.83,1.61
						c-0.73,0.49-1.53,0.69-2.38,0.87c-0.83,0.18-1.66,0.38-2.49,0.6c-3.23,0.89-6.35,2.19-9.28,3.84
						c-0.82,0.46-1.63,0.96-2.42,1.48c-0.41,0.27-0.81,0.54-1.21,0.83c-0.17,0.12-0.35,0.25-0.52,0.38s-0.41,0.38-0.62,0.45
						c0.14,0,0.28,0,0.42,0c-0.19-0.04-0.43-0.33-0.6-0.46c-0.27-0.21-0.54-0.42-0.82-0.61c-0.53-0.36-1.08-0.66-1.65-0.93
						c-0.39-0.18-0.84-0.11-1.07,0.29C29.98,68.1,30.08,68.67,30.47,68.85L30.47,68.85z"/>
				</g>
			</g>
			<g>
				<path class="st8" d="M119.47,62.26c0.19,0.67,0.95,1,1.27,1.62c0.02,0.04,0.04,0.09,0.08,0.12c0.1,0.09,0.25,0.05,0.38,0
					c1.08-0.4,2.27-0.49,3.39-0.27c-1.63-0.64-3.48-0.6-5.05-1.39"/>
				<g>
					<path class="st1" d="M118.71,62.48c0.17,0.5,0.46,0.87,0.84,1.23c0.35,0.33,0.63,0.92,1.08,1.08c0.57,0.2,1.22-0.19,1.79-0.29
						c0.64-0.12,1.32-0.11,1.96,0.01c1,0.18,1.37-1.18,0.42-1.54c-1.57-0.6-3.33-0.58-4.86-1.3c-0.91-0.43-1.71,0.95-0.79,1.38
						c1.67,0.8,3.52,0.82,5.23,1.47c0.14-0.51,0.28-1.03,0.42-1.54c-0.67-0.12-1.34-0.18-2.02-0.12c-0.32,0.03-0.65,0.08-0.97,0.15
						c-0.27,0.06-0.61,0.24-0.88,0.26c0.13,0.04,0.26,0.07,0.4,0.11c0.11,0.16,0.12,0.16,0.02,0c-0.06-0.09-0.13-0.19-0.2-0.28
						c-0.1-0.13-0.21-0.25-0.33-0.36c-0.2-0.2-0.49-0.4-0.59-0.67C119.89,61.09,118.38,61.5,118.71,62.48L118.71,62.48z"/>
				</g>
			</g>
			<g>
				<path class="st8" d="M131.2,66.1c0.89,0.7,1.79,1.4,2.53,2.26c0.74,0.86,1.32,1.9,1.47,3.03c0.02,0.16,0.04,0.33,0.13,0.46
					c0.06,0.09,0.15,0.15,0.24,0.21c1.12,0.78,2.24,1.56,3.37,2.34c0.06,0.04,0.12,0.08,0.19,0.08c0.07,0,0.13-0.04,0.19-0.09
					c0.86-0.62,1.72-1.24,2.58-1.86c-0.43-0.6-1.16-0.87-1.83-1.16c-3.06-1.33-5.63-3.61-8.52-5.29"/>
				<g>
					<path class="st1" d="M130.81,66.79c1.04,0.81,2.13,1.66,2.86,2.79c0.32,0.5,0.57,1.02,0.7,1.6c0.07,0.31,0.07,0.64,0.21,0.93
						c0.15,0.32,0.39,0.5,0.68,0.7c0.59,0.42,1.18,0.82,1.77,1.23c0.31,0.21,0.62,0.43,0.93,0.64c0.27,0.19,0.55,0.44,0.87,0.55
						c0.66,0.22,1.21-0.37,1.7-0.72c0.59-0.42,1.18-0.85,1.77-1.28c0.45-0.32,0.49-0.83,0.16-1.26c-0.61-0.78-1.55-1.07-2.41-1.48
						c-0.96-0.45-1.88-0.99-2.77-1.57c-1.79-1.16-3.5-2.46-5.34-3.54c-0.88-0.51-1.67,0.87-0.79,1.38c1.79,1.05,3.45,2.3,5.19,3.44
						c0.84,0.55,1.7,1.07,2.59,1.51c0.81,0.4,1.83,0.64,2.41,1.38c0.05-0.42,0.11-0.84,0.16-1.26c-0.46,0.33-0.91,0.66-1.37,0.99
						c-0.21,0.15-0.43,0.31-0.64,0.46c-0.15,0.11-0.39,0.36-0.57,0.41c0.14,0,0.28,0,0.42,0c-0.15-0.04-0.38-0.26-0.51-0.35
						c-0.22-0.16-0.45-0.31-0.67-0.47c-0.45-0.31-0.9-0.62-1.35-0.94c-0.22-0.15-0.47-0.29-0.67-0.47c-0.21-0.18-0.15-0.19-0.2-0.48
						c-0.08-0.46-0.23-0.9-0.42-1.33c-0.81-1.83-2.39-3.08-3.91-4.27c-0.34-0.26-0.88-0.05-1.07,0.29
						C130.29,66.11,130.47,66.53,130.81,66.79L130.81,66.79z"/>
				</g>
			</g>
		</g>
		<g id="Ebene_1_1_">
			<g>
				<g>
					<path d="M51.9,64.47c-2.89-0.24-5.93-0.48-8.7,0.59c-2.28,0.89-4.14,2.55-4.9,4.96c-0.77,2.43-0.51,5.24,0.11,7.68
						c0.68,2.63,2.17,4.73,4.53,6.05c2.72,1.52,5.92,2.14,9,1.87c0.66-0.06,0.67-1.12,0-1.07c-2.57,0.22-5.2-0.18-7.56-1.26
						c-2.23-1.03-3.92-2.64-4.71-5.04c-0.71-2.15-1.04-4.7-0.61-6.95c0.45-2.37,1.94-4.13,4.1-5.08c2.75-1.21,5.84-0.93,8.75-0.69
						C52.57,65.59,52.56,64.53,51.9,64.47L51.9,64.47z"/>
				</g>
			</g>
			<g>
				<g>
					<path d="M43.4,74.45c0.3-2.19,1.94-3.98,4.07-4.41c0.66-0.13,0.38-1.16-0.28-1.03c-2.44,0.49-4.46,2.62-4.8,5.15
						C42.3,74.84,43.31,75.13,43.4,74.45L43.4,74.45z"/>
				</g>
			</g>
			<g>
				<g>
					<path d="M121.04,65.74c2.15-1.27,4.85-1.32,7.1-0.3c2.1,0.94,3.79,2.67,4.9,4.7c1.25,2.29,1.81,5.07,1.2,7.65
						c-0.51,2.16-1.83,4.14-3.74,5.26c-2.57,1.5-5.71,1.16-8.49,0.56c-0.66-0.14-0.94,0.89-0.28,1.03c2.81,0.61,5.85,0.93,8.56-0.29
						c2.28-1.03,3.96-3.13,4.74-5.52c1.71-5.21-1.1-11.5-5.79-14.02c-2.71-1.46-6.06-1.57-8.74,0.02
						C119.93,65.16,120.46,66.09,121.04,65.74L121.04,65.74z"/>
				</g>
			</g>
			<g>
				<g>
					<path d="M126.21,67.33c1.23,0.59,2.35,1.27,2.98,2.55c0.56,1.13,0.71,2.44,0.86,3.68c0.08,0.67,1.12,0.68,1.04,0
						c-0.17-1.44-0.35-2.91-1-4.22c-0.71-1.43-1.97-2.26-3.35-2.93C126.13,66.12,125.6,67.04,126.21,67.33L126.21,67.33z"/>
				</g>
			</g>
			<g>
				<g>
					<path d="M51.29,85.51c1.88,6.65,4.07,13.42,8.29,18.95c3.92,5.13,9.54,8.56,15.67,10.23c6.25,1.71,12.9,1.65,19.17,0.1
						c6.65-1.65,12.88-5.06,17.58-10.17c4.66-5.07,7.73-11.41,10.1-17.86c0.3-0.8,0.58-1.61,0.86-2.42
						c0.22-0.65-0.79-0.93-1.01-0.28c-2.18,6.36-4.9,12.7-9.1,17.96c-4.22,5.28-9.89,9.03-16.26,11.06
						c-6.07,1.93-12.62,2.39-18.86,1.12c-5.96-1.22-11.66-4.02-15.84-8.59c-4.56-4.99-6.99-11.54-8.91-17.97
						c-0.24-0.8-0.47-1.59-0.69-2.39C52.11,84.57,51.11,84.85,51.29,85.51L51.29,85.51z"/>
				</g>
			</g>
			<g>
				<g>
					<path d="M77.34,115.18c-0.2,3.08-0.41,6.16-0.61,9.24c-0.1,1.52-0.2,3.05-0.3,4.57c-0.05,0.71-0.09,1.42-0.14,2.12
						c-0.01,0.2-0.02,0.34,0.02,0.54c0.1,0.62,0.36,1.23,0.58,1.82c0.39,1.05,0.82,2.08,1.26,3.11c2.27,5.38,4.73,10.67,7.2,15.96
						c0.64,1.37,1.28,2.74,1.93,4.11c0.16,0.34,0.74,0.35,0.9,0c1.67-3.68,3.29-7.38,4.88-11.09c1.15-2.69,2.29-5.38,3.35-8.11
						c0.4-1.03,0.79-2.06,1.14-3.11c0.2-0.62,0.44-1.28,0.48-1.94c0.03-0.49-0.04-0.99-0.06-1.48c-0.04-0.8-0.09-1.61-0.15-2.41
						c-0.12-1.67-0.27-3.35-0.45-5.02c-0.35-3.25-0.82-6.48-1.41-9.69c-0.12-0.67-1.13-0.39-1.01,0.28c1.04,5.73,1.72,11.53,2,17.35
						c0.02,0.33,0.04,0.65,0.03,0.98c0,0.14,0.02-0.12,0,0.03c-0.01,0.06-0.02,0.12-0.03,0.17c-0.07,0.33-0.16,0.65-0.26,0.96
						c-0.29,0.95-0.64,1.89-1,2.82c-2.01,5.28-4.3,10.44-6.58,15.6c-0.6,1.37-1.21,2.73-1.83,4.09c0.3,0,0.6,0,0.9,0
						c-1.7-3.58-3.36-7.17-5.01-10.77c-1.25-2.73-2.48-5.48-3.67-8.24c-0.75-1.75-1.62-3.55-2.1-5.4c-0.03-0.11-0.06-0.23-0.08-0.34
						c0.03,0.2,0,0.05,0.01,0c0.02-0.29,0.04-0.59,0.06-0.88c0.11-1.7,0.23-3.4,0.34-5.1c0.23-3.4,0.45-6.8,0.68-10.2
						C78.43,114.5,77.39,114.5,77.34,115.18L77.34,115.18z"/>
				</g>
			</g>
			<g>
				<g>
					<path d="M76.11,130.35c-6.87-0.56-13.76,1.16-19.87,4.35c-6,3.13-11.2,7.71-15.53,12.94c-2.42,2.92-4.59,6.05-6.56,9.31
						c-0.16,0.26-0.04,0.56,0.19,0.73c2.2,1.66,4.92,2.6,7.51,3.4c3.77,1.16,7.66,1.95,11.55,2.59c4.73,0.78,9.5,1.34,14.28,1.74
						c5.17,0.44,10.36,0.7,15.54,0.81c5.13,0.1,10.26,0.05,15.38-0.2c4.67-0.23,9.33-0.62,13.96-1.28c3.71-0.54,7.44-1.24,11-2.43
						c2.41-0.81,5.03-1.85,6.83-3.73c0.34-0.36,0.65-0.75,0.9-1.18c0.05-0.09,0.11-0.18,0.15-0.28c0.17-0.43-0.11-0.95-0.25-1.37
						c-0.29-0.86-0.62-1.71-0.99-2.53c-1.51-3.43-3.67-6.55-6.23-9.25c-5.49-5.8-12.77-9.49-20.35-11.55
						c-1.95-0.53-3.92-0.95-5.91-1.29c-0.66-0.11-0.94,0.92-0.28,1.03c11.18,1.9,22.39,6.85,29.06,16.59
						c1.73,2.52,3.09,5.29,3.98,8.24c0.02-0.14,0.04-0.27,0.05-0.41c-0.35,0.71-0.74,1.14-1.36,1.7c-0.33,0.29-0.59,0.48-1,0.75
						c-0.41,0.27-0.84,0.52-1.28,0.75c-2.17,1.14-4.58,1.87-6.97,2.47c-3.11,0.78-6.27,1.3-9.44,1.7
						c-3.75,0.48-7.52,0.78-11.29,0.97c-4.1,0.21-8.2,0.29-12.31,0.27c-4.18-0.02-8.36-0.15-12.54-0.38
						c-4.06-0.23-8.11-0.56-12.15-1.01c-3.66-0.41-7.31-0.92-10.93-1.59c-3.04-0.56-6.08-1.23-9.04-2.14
						c-2.18-0.67-4.33-1.43-6.29-2.6c-0.37-0.22-0.73-0.46-1.08-0.72c0.06,0.24,0.12,0.49,0.19,0.73
						c3.42-5.67,7.49-10.97,12.41-15.38c5.01-4.48,10.93-7.93,17.4-9.65c3.67-0.97,7.47-1.35,11.25-1.05
						C76.78,131.47,76.77,130.4,76.11,130.35L76.11,130.35z"/>
				</g>
			</g>
			<g>
				<g>
					<path d="M61.88,133.19c5.14,2.69,10.93,5.05,16.79,5.13c0.67,0.01,0.67-1.06,0-1.07c-2.84-0.04-5.65-0.7-8.35-1.59
						c-2.73-0.9-5.37-2.06-7.91-3.4C61.81,131.95,61.28,132.88,61.88,133.19L61.88,133.19z"/>
				</g>
			</g>
			<g>
				<g>
					<path d="M96.15,138.64c2.5-0.24,5.01-0.29,7.51-0.58c2.41-0.28,4.89-0.74,7.01-2c0.58-0.35,0.06-1.27-0.53-0.92
						c-2.05,1.22-4.48,1.63-6.8,1.89c-2.39,0.26-4.8,0.31-7.19,0.54C95.49,137.63,95.48,138.7,96.15,138.64L96.15,138.64z"/>
				</g>
			</g>
			<g>
				<g>
					<path d="M56.6,136.13c6.02,3.13,12.52,5.57,19.19,6.76c1.79,0.32,3.6,0.54,5.42,0.62c0.67,0.03,0.67-1.04,0-1.07
						c-6.53-0.3-13-2.28-19-4.84c-1.72-0.73-3.42-1.54-5.08-2.4C56.53,134.89,56,135.82,56.6,136.13L56.6,136.13z"/>
				</g>
			</g>
			<g>
				<g>
					<path d="M93.76,143.6c2.98,0,5.96-0.11,8.92-0.44c3.04-0.34,6.12-0.88,8.97-2.04c1.4-0.57,2.72-1.29,3.89-2.27
						c0.52-0.44-0.22-1.19-0.74-0.75c-2.07,1.75-4.77,2.62-7.35,3.21c-2.95,0.68-5.98,0.98-9,1.13c-1.56,0.08-3.12,0.11-4.68,0.11
						C93.09,142.53,93.08,143.6,93.76,143.6L93.76,143.6z"/>
				</g>
			</g>
			<g>
				<g>
					<path d="M47.07,142.58c9.71,4.34,19.93,7.64,30.35,9.62c2.88,0.55,5.78,0.99,8.69,1.29c0.67,0.07,0.66-1,0-1.07
						c-10.39-1.08-20.64-3.83-30.43-7.47c-2.73-1.01-5.42-2.11-8.08-3.3C46.99,141.39,46.45,142.31,47.07,142.58L47.07,142.58z"/>
				</g>
			</g>
			<g>
				<g>
					<path d="M89.07,153.9c9.62-0.29,19.32-1.64,28.6-4.3c2.53-0.72,5.03-1.56,7.48-2.53c0.62-0.25,0.35-1.28-0.28-1.03
						c-8.88,3.55-18.45,5.39-27.92,6.29c-2.62,0.25-5.25,0.42-7.89,0.5C88.4,152.85,88.4,153.92,89.07,153.9L89.07,153.9z"/>
				</g>
			</g>
			<g>
				<g>
					<path d="M41.76,147.56c10.58,4.21,21.4,7.97,32.5,10.48c5.88,1.33,11.87,2.31,17.9,2.31c6.17,0,12.3-0.93,18.37-1.94
						c6.24-1.04,12.54-2.31,18.23-5.26c0.6-0.31,0.07-1.23-0.53-0.92c-5.03,2.61-10.58,3.86-16.11,4.83
						c-5.91,1.04-11.88,1.99-17.89,2.19c-6.1,0.2-12.14-0.61-18.1-1.89c-5.49-1.18-10.91-2.68-16.26-4.39
						c-6.02-1.93-11.96-4.1-17.84-6.44C41.41,146.28,41.14,147.31,41.76,147.56L41.76,147.56z"/>
				</g>
			</g>
			<ellipse class="st15" cx="22.76" cy="48.94" rx="1.57" ry="1.6"/>
			<ellipse class="st15" cx="29.38" cy="45.35" rx="1.57" ry="1.6"/>
			<ellipse class="st16" cx="36.39" cy="42.91" rx="1.57" ry="1.6"/>
			<ellipse class="st16" cx="44.47" cy="40.75" rx="1.57" ry="1.6"/>
			<ellipse class="st16" cx="51.93" cy="39.14" rx="1.57" ry="1.6"/>
			<ellipse class="st16" cx="60.11" cy="37.54" rx="1.57" ry="1.6"/>
			<ellipse class="st16" cx="67.57" cy="36.51" rx="1.57" ry="1.6"/>
			<ellipse class="st16" cx="75.84" cy="35.94" rx="1.57" ry="1.6"/>
			<ellipse class="st16" cx="84.89" cy="35.94" rx="1.57" ry="1.6"/>
			<ellipse class="st16" cx="94.39" cy="36.57" rx="1.57" ry="1.6"/>
			<ellipse class="st17" cx="104.15" cy="37.54" rx="1.57" ry="1.6"/>
			<ellipse class="st16" cx="113.28" cy="39.71" rx="1.57" ry="1.6"/>
			<ellipse class="st15" cx="122.46" cy="42.81" rx="1.57" ry="1.6"/>
			<ellipse class="st18" cx="130.99" cy="46.01" rx="1.57" ry="1.6"/>
			<ellipse class="st19" cx="139.37" cy="50.02" rx="1.57" ry="1.6"/>
			<ellipse class="st20" cx="146.84" cy="54.51" rx="1.57" ry="1.6"/>
			<ellipse class="st21" cx="152.33" cy="58.32" rx="1.57" ry="1.6"/>
		</g>
		<g id="Ebene_2_2_">
			<g>
				<g>
					<path d="M52.35,65.27c5.73-8.18,15.21-12.92,24.81-14.24c5.52-0.76,11.16-0.56,16.66,0.23c5.33,0.76,10.67,1.99,15.55,4.36
						c2.24,1.09,4.38,2.41,6.25,4.09c1.87,1.68,3.42,3.68,4.7,5.85c0.35,0.59,1.26,0.05,0.91-0.54c-2.37-4-5.61-7.19-9.64-9.44
						c-4.81-2.68-10.18-4.15-15.56-5.05c-10.72-1.79-22.2-1.61-32.08,3.5c-4.89,2.53-9.31,6.14-12.51,10.71
						C51.05,65.3,51.96,65.83,52.35,65.27L52.35,65.27z"/>
				</g>
			</g>
			<g>
				<g>
					<path d="M134.96,78.59c7.04-3.93,13.56-8.93,19.16-14.8c1.55-1.62,3.02-3.32,4.4-5.09c0.42-0.53-0.32-1.29-0.74-0.75
						c-4.95,6.34-11.02,11.77-17.64,16.22c-1.85,1.25-3.76,2.42-5.71,3.51C133.84,78,134.37,78.92,134.96,78.59L134.96,78.59z"/>
				</g>
			</g>
			<g>
				<g>
					<path d="M17.14,47.33c0.62,9.31,6.35,17.26,13.78,22.33c2.14,1.46,4.42,2.7,6.77,3.75c0.61,0.27,1.14-0.65,0.53-0.92
						c-7.92-3.54-15.14-9.47-18.39-17.87c-0.9-2.34-1.48-4.8-1.64-7.3C18.14,46.65,17.1,46.65,17.14,47.33L17.14,47.33z"/>
				</g>
			</g>
			<g>
				<g>
					<path d="M20.15,56.57c8.96-5.65,18.79-9.74,28.99-12.36c9.95-2.55,20.21-3.71,30.45-3.7c9.72,0.01,19.44,1.07,28.94,3.13
						c8.51,1.85,16.9,4.49,24.83,8.15c6.34,2.93,12.57,6.51,17.77,11.28c0.53,0.49,1.05,0.99,1.56,1.5
						c0.48,0.49,1.22-0.27,0.74-0.75c-4.85-4.93-10.83-8.66-16.94-11.71c-7.73-3.85-15.94-6.68-24.29-8.72
						c-9.48-2.32-19.21-3.62-28.95-3.9c-10.26-0.29-20.57,0.58-30.61,2.79c-10.32,2.27-20.36,6-29.57,11.29
						c-1.16,0.67-2.31,1.36-3.45,2.08C19.05,56.01,19.57,56.93,20.15,56.57L20.15,56.57z"/>
				</g>
			</g>
			<g>
				<g>
					<path d="M17.93,47.8c7.67-5.85,17.4-8.15,26.57-10.26c10.18-2.34,20.55-3.91,30.98-4.43c10.12-0.51,20.33-0.06,30.33,1.66
						c8.92,1.54,17.68,4.08,26,7.72c8.31,3.63,16.18,8.33,23.31,14.01c0.9,0.72,1.79,1.45,2.66,2.2c0.51,0.44,1.26-0.31,0.74-0.75
						c-7.03-5.99-14.81-11.04-23.11-14.98c-8.27-3.93-17.02-6.79-25.97-8.6c-9.84-1.99-19.91-2.72-29.94-2.48
						c-10.53,0.26-21.02,1.6-31.33,3.76c-5.15,1.08-10.3,2.31-15.34,3.83c-4.41,1.33-8.76,3.11-12.7,5.54
						c-0.94,0.58-1.85,1.2-2.72,1.87C16.87,47.28,17.39,48.21,17.93,47.8L17.93,47.8z"/>
				</g>
			</g>
			<g>
				<g>
					<path d="M64.76,33.67c1.13-4.15,3.06-8.13,5.22-11.81c2.68-4.57,6.07-9.06,10.56-11.91c2.1-1.33,4.48-2.25,6.96-2.4
						C89.99,7.41,92.45,8,94.6,9.28c4.44,2.64,7.36,7.45,9.5,12.08c1.77,3.82,3.13,7.89,4.07,12.01c0.06,0.26,0.12,0.53,0.17,0.8
						c0.14,0.67,1.15,0.39,1.01-0.28c-0.8-3.92-2.08-7.78-3.64-11.45c-2.09-4.93-4.93-9.95-9.26-13.18
						c-2.09-1.56-4.5-2.52-7.08-2.74c-2.58-0.22-5.15,0.36-7.48,1.48c-4.93,2.37-8.7,6.87-11.64,11.43
						c-2.56,3.97-4.73,8.34-6.17,12.86c-0.12,0.36-0.22,0.73-0.32,1.1C63.57,34.05,64.58,34.33,64.76,33.67L64.76,33.67z"/>
				</g>
			</g>
		</g>
		<g id="Ebene_4">
			<g>
				<g>
					<path d="M75.64,96.02c1.32,2.86,4.19,4.51,7.07,5.31c3.22,0.89,6.92,1.04,9.91-0.68c0.59-0.34,0.06-1.26-0.53-0.92
						c-2.74,1.58-6.15,1.39-9.1,0.57c-2.64-0.73-5.24-2.2-6.45-4.82C76.26,94.86,75.35,95.41,75.64,96.02L75.64,96.02z"/>
				</g>
			</g>
			<g>
				<g>
					<path d="M75.1,95.99c2.14,2.97,5.36,5.05,8.92,5.73c3.54,0.67,7.23-0.12,10.24-2.13c1.68-1.12,3.11-2.58,4.2-4.3
						c0.37-0.58-0.54-1.11-0.9-0.54c-1.78,2.81-4.59,4.85-7.75,5.71c-3.2,0.87-6.64,0.38-9.54-1.24c-1.66-0.93-3.14-2.21-4.26-3.78
						C75.61,94.9,74.7,95.43,75.1,95.99L75.1,95.99z"/>
				</g>
			</g>
			<g>
				<g>
					<path d="M88.8,75.36c-2.28-1.84-6.53,0.15-6.43,3.18c0.04,1.39,0.82,2.69,2.05,3.3c1.37,0.68,2.95,0.57,4.31-0.07
						c0.61-0.29,0.08-1.21-0.53-0.92c-1.86,0.89-4.57,0.23-4.78-2.17c-0.1-1.15,0.54-1.91,1.49-2.43c0.91-0.5,2.25-0.86,3.15-0.13
						C88.58,76.54,89.33,75.79,88.8,75.36L88.8,75.36z"/>
				</g>
			</g>
			<g>
				<path d="M80.81,66.11c0.04-1.3-0.12-2.6-0.47-3.85c-0.15-0.53-0.44-1.14-0.97-1.21c-0.36-0.05-0.71,0.18-0.91,0.49
					c-0.2,0.31-0.28,0.68-0.34,1.04c-0.28,1.71-0.23,3.58,0.68,5.05c0.22,0.35,0.63,0.71,0.98,0.5c0.19-0.11,0.26-0.35,0.32-0.56
					c0.1-0.38,0.21-0.75,0.31-1.13"/>
				<g>
					<path d="M81.34,66.11c0.02-0.96-0.05-1.91-0.23-2.86c-0.14-0.73-0.29-1.56-0.74-2.15c-0.46-0.59-1.21-0.77-1.85-0.36
						c-0.71,0.45-0.86,1.34-0.97,2.11c-0.22,1.63-0.14,3.36,0.66,4.82c0.33,0.6,0.96,1.28,1.7,0.97c0.73-0.31,0.82-1.39,1-2.06
						c0.18-0.66-0.82-0.94-1.01-0.28c-0.08,0.28-0.16,0.56-0.24,0.84c-0.03,0.12-0.05,0.31-0.12,0.41c-0.06,0.1-0.03,0.08-0.06,0.08
						c-0.35-0.04-0.67-1.12-0.75-1.39c-0.3-1.01-0.31-2.1-0.18-3.14c0.05-0.44,0.09-1.27,0.56-1.47c0.46-0.19,0.64,0.54,0.73,0.87
						c0.33,1.18,0.46,2.39,0.43,3.62C80.27,66.8,81.32,66.8,81.34,66.11L81.34,66.11z"/>
				</g>
			</g>
			<g>
				<path d="M96.6,65.86c-0.02-1.2-0.22-2.39-0.6-3.53c-0.11-0.34-0.25-0.68-0.49-0.92c-0.25-0.25-0.64-0.38-0.95-0.23
					c-0.32,0.15-0.47,0.54-0.55,0.89c-0.38,1.56-0.22,3.21,0.08,4.79c0.08,0.44,0.19,0.9,0.48,1.24c0.29,0.34,0.81,0.52,1.18,0.27
					c0.24-0.16,0.36-0.45,0.44-0.73c0.15-0.54,0.21-1.11,0.18-1.67"/>
				<g>
					<path d="M97.13,65.86c-0.02-0.98-0.15-1.96-0.39-2.9c-0.2-0.79-0.45-1.76-1.2-2.19c-0.65-0.37-1.42-0.15-1.79,0.51
						c-0.4,0.71-0.45,1.68-0.48,2.48c-0.03,0.95,0.08,1.91,0.24,2.85c0.13,0.78,0.3,1.7,1.01,2.16c0.62,0.4,1.44,0.33,1.88-0.32
						c0.46-0.68,0.52-1.68,0.48-2.47c-0.03-0.68-1.08-0.69-1.05,0c0.03,0.54,0.01,1.16-0.2,1.67c-0.27,0.64-0.76,0.08-0.9-0.35
						c-0.36-1.09-0.45-2.39-0.41-3.54c0.02-0.56,0.07-1.14,0.23-1.68c0.23-0.73,0.7-0.29,0.9,0.23c0.43,1.12,0.61,2.36,0.64,3.55
						C96.1,66.55,97.14,66.55,97.13,65.86L97.13,65.86z"/>
				</g>
			</g>
			<g>
				<g>
					<path d="M94.43,57.88c2.04,0.07,3.91,1.09,5.17,2.72c0.41,0.54,1.15-0.22,0.74-0.75c-1.42-1.85-3.61-2.95-5.91-3.03
						C93.76,56.79,93.76,57.86,94.43,57.88L94.43,57.88z"/>
				</g>
			</g>
			<g>
				<g>
					<path d="M73.98,60.7c1.73-1.94,4.09-3.24,6.64-3.57c0.66-0.09,0.67-1.15,0-1.07c-2.83,0.37-5.46,1.72-7.38,3.88
						C72.78,60.45,73.52,61.21,73.98,60.7L73.98,60.7z"/>
				</g>
			</g>
		</g>
		<g id="Ebene_21_2_">
			<ellipse class="st22" cx="79.66" cy="62.83" rx="0.58" ry="0.82"/>
			<ellipse class="st22" cx="79.66" cy="62.83" rx="0.58" ry="0.82"/>
			<ellipse class="st22" cx="95.3" cy="62.83" rx="0.58" ry="0.82"/>
		</g>
		<g id="Ebene_22_2_">
			<ellipse class="st23" cx="67.36" cy="93.55" rx="5.68" ry="5.79"/>
			<ellipse class="st23" cx="67.36" cy="93.55" rx="5.68" ry="5.79"/>
			<ellipse class="st23" cx="107.04" cy="93.75" rx="5.68" ry="5.79"/>
		</g>
	</g>
</g>
<g id="Ebene_9_6_">
</g>
<g id="Ebene_3">
	<g>
		<path class="st28" d="M130.78,62.88c4.08,2.1,16.48,8.55,18.58,7.35c3.41-1.95,21.46-32.04,20.34-35.02
			c-2.36-6.24-52.42-34.13-59.35-31.34c-6.25,2.51-14.53,34.69-13.78,37.22c1.13,3.82,10.26,6.46,13.5,9.84
			c1.44,1.51,4.85,14.6,6.86,15.42c1.14,0.46,9.94-1.36,13.73-3.51"/>
		<g>
			<path class="st28" d="M130.63,63.18c4,2.06,8.02,4.13,12.19,5.84c1,0.41,2.02,0.8,3.05,1.13c0.77,0.24,1.56,0.48,2.37,0.54
				c0.5,0.04,1,0.02,1.42-0.27c0.33-0.22,0.61-0.52,0.88-0.81c0.89-0.95,1.67-2.01,2.43-3.06c1.09-1.51,2.14-3.06,3.16-4.62
				c2.46-3.76,4.79-7.61,7.02-11.51c1.96-3.44,3.89-6.92,5.5-10.54c0.5-1.12,1-2.27,1.29-3.47c0.08-0.34,0.16-0.71,0.12-1.06
				c-0.03-0.31-0.19-0.58-0.35-0.84c-0.46-0.73-1.11-1.36-1.74-1.94c-0.93-0.86-1.93-1.66-2.94-2.43c-2.83-2.14-5.8-4.09-8.8-5.97
				c-3.68-2.31-7.42-4.5-11.21-6.61c-3.93-2.19-7.92-4.3-11.96-6.29c-3.61-1.78-7.26-3.48-10.99-4.99
				c-2.71-1.09-5.49-2.16-8.37-2.72c-0.88-0.17-1.81-0.31-2.7-0.2c-0.94,0.11-1.69,0.66-2.35,1.33c-1.05,1.07-1.85,2.41-2.57,3.72
				c-0.96,1.75-1.77,3.58-2.52,5.43c-1.74,4.27-3.16,8.67-4.42,13.1c-1.03,3.62-2,7.28-2.64,10.99c-0.16,0.94-0.37,1.95-0.31,2.91
				c0.04,0.62,0.39,1.2,0.75,1.68c0.67,0.88,1.56,1.57,2.46,2.18c2.24,1.52,4.71,2.66,7.05,4.03c1.04,0.6,2.07,1.25,2.96,2.05
				c0.31,0.27,0.42,0.37,0.62,0.68c0.15,0.25,0.27,0.49,0.39,0.75c0.84,1.83,1.46,3.77,2.14,5.66c0.74,2.09,1.47,4.2,2.41,6.21
				c0.32,0.68,0.65,1.4,1.13,1.98c0.36,0.45,0.73,0.67,1.3,0.69c0.86,0.03,1.74-0.12,2.58-0.26c1.27-0.21,2.53-0.49,3.78-0.81
				c2.41-0.61,4.89-1.33,7.08-2.57c0.38-0.21,0-0.77-0.37-0.55c-1.06,0.6-2.2,1.03-3.34,1.43c-1.29,0.44-2.6,0.82-3.93,1.15
				c-1.19,0.3-2.4,0.55-3.61,0.74c-0.75,0.12-1.64,0.28-2.34,0.2c-0.04-0.01-0.09-0.01-0.13-0.02c-0.12-0.02,0.02,0.01-0.06-0.02
				c-0.04-0.01-0.07-0.03-0.1-0.06c0.08,0.05-0.07-0.06-0.09-0.08c-0.19-0.16-0.32-0.35-0.48-0.6c-0.44-0.68-0.78-1.43-1.11-2.18
				c-0.89-2.07-1.63-4.21-2.38-6.33c-0.63-1.76-1.2-3.58-2.04-5.25c-0.32-0.64-0.75-1.1-1.3-1.56c-0.93-0.77-1.97-1.4-3.02-2.01
				c-2.31-1.33-4.76-2.45-6.94-3.98c-0.85-0.59-1.7-1.27-2.28-2.14c-0.11-0.17-0.21-0.34-0.29-0.53c-0.04-0.1-0.08-0.21-0.12-0.31
				c-0.01-0.02-0.04-0.18-0.01-0.04c-0.02-0.12-0.03-0.25-0.03-0.37c0-0.36,0.04-0.75,0.09-1.19c0.08-0.6,0.18-1.2,0.29-1.8
				c0.3-1.66,0.68-3.31,1.08-4.95c1.04-4.28,2.27-8.52,3.69-12.7c1.34-3.93,2.8-7.89,4.83-11.53c0.69-1.23,1.46-2.48,2.48-3.47
				c0.31-0.3,0.76-0.64,1.13-0.79c0.06-0.03,0.13-0.05,0.2-0.07c0.03-0.01,0.06-0.02,0.09-0.03c0.11-0.03-0.04,0,0.07-0.02
				c0.16-0.03,0.33-0.05,0.49-0.06c0.45-0.03,0.7-0.01,1.16,0.04c0.52,0.06,1.03,0.15,1.54,0.26c1.26,0.27,2.49,0.65,3.71,1.06
				c3.37,1.14,6.65,2.55,9.88,4.03c3.91,1.79,7.76,3.73,11.57,5.74c3.91,2.07,7.78,4.23,11.59,6.48c3.39,2,6.74,4.07,9.99,6.28
				c2.35,1.6,4.71,3.24,6.8,5.17c0.35,0.33,0.7,0.67,1.02,1.02c0.06,0.07,0.06,0.06,0.15,0.17c0.06,0.07,0.13,0.15,0.19,0.23
				c0.1,0.13,0.2,0.27,0.29,0.41c0.04,0.06,0.07,0.12,0.11,0.18c0.02,0.03,0.03,0.06,0.05,0.1c-0.05-0.1,0,0.01,0.01,0.03
				c0.02,0.05,0.04,0.1,0.06,0.15c0.03,0.09-0.01-0.07,0,0.01c0,0.03,0.01,0.06,0.01,0.09c0,0.04,0,0.24,0,0.12
				c0,0.08-0.01,0.17-0.03,0.25c-0.03,0.2-0.07,0.4-0.13,0.6c-0.29,1.11-0.8,2.28-1.3,3.39c-0.74,1.64-1.56,3.26-2.4,4.85
				c-2.05,3.89-4.25,7.7-6.54,11.45c-2.07,3.4-4.21,6.77-6.54,9.99c-0.76,1.04-1.53,2.09-2.41,3.04c-0.3,0.32-0.44,0.48-0.77,0.71
				c-0.14,0.1-0.21,0.13-0.36,0.15c-0.28,0.04-0.5,0.02-0.77-0.01c-0.82-0.1-1.63-0.34-2.41-0.6c-1.04-0.35-2.05-0.75-3.06-1.17
				c-2.29-0.96-4.53-2.02-6.76-3.12c-1.68-0.83-3.35-1.68-5.01-2.54C130.54,62.37,130.25,62.99,130.63,63.18L130.63,63.18z"/>
		</g>
		<g id="Ebene_7_2_">
			<path class="st27" d="M153.15,29.35c1.17,0.82,2.42,1.53,3.65,2.27c0.34,0.2,0.68,0.41,1.01,0.62c0.16,0.1,0.33,0.2,0.49,0.31
				c0.08,0.05,0.16,0.1,0.24,0.16c0.27,0.17-0.22-0.15,0.05,0.03c0.63,0.42,1.25,0.84,1.84,1.31c0.28,0.22,0.54,0.44,0.8,0.68
				c0.12,0.11,0.23,0.22,0.34,0.33c0.05,0.05,0.11,0.11,0.16,0.16c0.22,0.22-0.14-0.18-0.02-0.02c0.17,0.22,0.35,0.43,0.49,0.68
				c0.03,0.05,0.05,0.11,0.09,0.16c-0.05-0.07-0.14-0.32-0.07-0.12c0.04,0.12,0.07,0.26,0.12,0.37c-0.03-0.06-0.06-0.37-0.04-0.15
				c0,0.05,0.01,0.11,0.02,0.16c0.04,0.3,0.06-0.27,0.01-0.09c-0.03,0.1-0.12,0.44-0.02,0.13c0.1-0.32,0.02-0.06-0.01,0.01
				c-0.03,0.07-0.05,0.14-0.08,0.21c-0.06,0.16-0.13,0.32-0.21,0.48c-0.99,2.16-2.23,4.22-3.43,6.27c-1.7,2.9-3.44,5.78-5.2,8.65
				c-1.66,2.71-3.32,5.42-4.97,8.15c-0.17,0.28-0.34,0.56-0.51,0.85c-0.36,0.61,0.01,1.53,0.62,1.79c0.72,0.3,1.39,0,1.78-0.66
				c1.61-2.69,3.25-5.36,4.89-8.03c1.8-2.95,3.6-5.9,5.35-8.87c1.29-2.2,2.62-4.4,3.72-6.71c0.28-0.59,0.63-1.27,0.69-1.93
				c0.13-1.54-0.84-2.79-1.88-3.77c-1.17-1.11-2.55-1.98-3.91-2.84c-1.26-0.79-2.55-1.52-3.81-2.32c-0.06-0.04-0.12-0.08-0.19-0.12
				c-0.19-0.12,0.29,0.2,0.07,0.05c-0.12-0.08-0.23-0.16-0.35-0.24c-0.57-0.4-1.4-0.46-1.88,0.16
				C152.61,27.97,152.54,28.92,153.15,29.35L153.15,29.35z"/>
			<g class="st29">
				<g>
					<path class="st27" d="M144.8,65.01c-0.09,0.29-0.17,0.57-0.26,0.86c0.8-0.18,1.61-0.37,2.41-0.55
						c-0.21-0.34-0.42-0.68-0.64-1.02c-0.22,0.68-0.44,1.36-0.66,2.04c-0.19,0.05-0.36,0.08-0.56,0.02
						c-0.08-0.01-0.15-0.05-0.21-0.1c-0.11-0.08-0.13-0.09-0.05-0.03c-0.11-0.11-0.18-0.22-0.24-0.37c0.03,0.09,0.03,0.07-0.01-0.05
						c-0.04-0.11-0.04-0.22-0.02-0.34c0.4-0.37,0.8-0.75,1.2-1.12c0.02,0,0.33,0.05,0.17,0.01c0.16,0.04,0.29,0.1,0.43,0.2
						c-0.14-0.1,0.09,0.11,0.1,0.13c-0.11-0.13,0.06,0.12,0.07,0.15c0.05,0.14,0.05,0.3,0.03,0.45c0.04-0.24-0.23,0.44-0.22,0.42
						c0.1-0.14-0.1,0.09-0.12,0.11c-0.06,0.03-0.13,0.07-0.19,0.1c-0.22,0.04-0.28,0.05-0.18,0.04c0.16-0.01-0.31-0.03-0.16-0.01
						c0.07,0.01,0.04,0.01-0.08-0.03c-0.08-0.01-0.15-0.04-0.21-0.09c-0.26-0.16-0.42-0.44-0.4-0.76c0.02-0.3-0.06,0.12,0.03-0.17
						c0.09-0.29-0.09,0.1,0.07-0.16c0.03-0.07,0.08-0.13,0.15-0.18c0.1-0.08,0.12-0.1,0.06-0.06c-0.1,0.07,0.32-0.13,0.11-0.08
						c0.59,0.38,1.18,0.76,1.77,1.14c-0.02-0.13-0.03-0.27-0.05-0.4c-0.09-0.7-0.7-1.32-1.43-1.21c-0.69,0.1-1.32,0.72-1.22,1.47
						c0.02,0.13,0.03,0.27,0.05,0.4c0.06,0.43,0.24,0.76,0.6,1c0.38,0.25,0.74,0.24,1.17,0.14c0.86-0.21,1.43-1.23,1.33-2.09
						c-0.12-1.01-1.06-1.75-2.07-1.59c-0.98,0.16-1.8,1.05-1.64,2.09c0.16,1.01,1.02,1.77,2.05,1.67c0.59-0.06,1.1-0.53,1.2-1.12
						c0.12-0.63-0.11-1.32-0.6-1.74c-0.53-0.45-1.15-0.54-1.81-0.36c-0.87,0.24-1.08,1.36-0.66,2.04c0.21,0.34,0.42,0.68,0.64,1.02
						c0.28,0.45,0.88,0.65,1.38,0.53c0.56-0.13,0.88-0.54,1.04-1.08c0.09-0.29,0.17-0.57,0.26-0.86c0.09-0.3-0.04-0.74-0.21-0.99
						c-0.18-0.28-0.53-0.52-0.87-0.56c-0.34-0.04-0.7,0.01-0.98,0.22C145.06,64.36,144.91,64.64,144.8,65.01L144.8,65.01z"/>
				</g>
			</g>
		</g>
		<g>
			<path d="M167.62,37.84c0.09-0.39,0.16-0.82,0.11-1.22c-0.05-0.43-0.25-0.81-0.48-1.16c-0.51-0.78-1.2-1.45-1.89-2.08
				c-0.94-0.87-1.95-1.66-2.97-2.44c-2.87-2.17-5.9-4.14-8.95-6.05c-3.67-2.3-7.42-4.49-11.21-6.61c-3.93-2.19-7.91-4.29-11.94-6.29
				c-3.59-1.78-7.23-3.48-10.95-4.98c-2.77-1.12-5.62-2.22-8.57-2.8c-0.94-0.19-1.93-0.33-2.89-0.22c-1.11,0.12-1.99,0.73-2.77,1.51
				c-1.1,1.1-1.92,2.49-2.67,3.84c-0.96,1.75-1.77,3.57-2.52,5.42c-1.75,4.31-3.18,8.75-4.45,13.21c-1.03,3.63-2,7.31-2.63,11.03
				c-0.17,0.98-0.38,2.05-0.31,3.05c0.05,0.74,0.45,1.45,0.89,2.01c0.73,0.94,1.65,1.67,2.63,2.33c2.3,1.55,4.82,2.73,7.22,4.13
				c0.26,0.15,0.52,0.31,0.78,0.47c0.07,0.04,0.14,0.09,0.21,0.13c0.04,0.02,0.27,0.17,0.04,0.03c0.13,0.09,0.26,0.17,0.39,0.26
				c0.48,0.33,0.94,0.68,1.37,1.07c0.08,0.07,0.16,0.15,0.24,0.23c0.04,0.04,0.09,0.1,0.14,0.14c0.1,0.08-0.18-0.24-0.11-0.13
				c0.06,0.09,0.13,0.18,0.19,0.27c0.07,0.11,0.13,0.22,0.19,0.34c0.14,0.25-0.09-0.19,0.01,0.02c0.04,0.09,0.09,0.19,0.13,0.28
				c0.83,1.82,1.46,3.75,2.14,5.64c0.75,2.09,1.49,4.2,2.43,6.21c0.34,0.73,0.7,1.49,1.21,2.12c0.24,0.3,0.5,0.58,0.85,0.75
				c0.35,0.17,0.7,0.19,1.08,0.2c0.87,0.02,1.76-0.12,2.62-0.27c1.31-0.22,2.62-0.51,3.91-0.84c2.45-0.62,4.95-1.36,7.18-2.61
				c0.47-0.27,0.55-0.99,0.27-1.41c-0.33-0.49-0.91-0.52-1.39-0.25c-0.06,0.04-0.45,0.23-0.19,0.1c-0.12,0.06-0.23,0.12-0.35,0.17
				c-0.27,0.13-0.55,0.25-0.83,0.37c-0.6,0.25-1.21,0.48-1.82,0.69c-1.29,0.44-2.6,0.81-3.92,1.13c-0.14,0.03-0.28,0.07-0.43,0.1
				c-0.03,0.01-0.31,0.07-0.09,0.02c-0.08,0.02-0.17,0.04-0.25,0.06c-0.32,0.07-0.65,0.14-0.98,0.21c-0.57,0.11-1.14,0.22-1.71,0.31
				c-0.46,0.07-0.93,0.13-1.4,0.17c-0.17,0.01-0.35,0.03-0.52,0.03c-0.07,0-0.17-0.02-0.24,0c0.26-0.06,0.18,0.01,0.02,0
				c-0.05-0.01-0.11-0.02-0.16-0.02c-0.19-0.02,0.17,0.07,0.13,0.04c-0.02-0.02-0.09-0.06-0.12-0.06c0.25,0.06,0.2,0.15,0.08,0.04
				c-0.04-0.04-0.09-0.08-0.13-0.12c-0.16-0.14,0.17,0.21,0.04,0.04c-0.09-0.12-0.19-0.24-0.27-0.37c-0.2-0.31-0.38-0.63-0.55-0.96
				c-0.03-0.06-0.13-0.23,0.02,0.03c-0.03-0.05-0.05-0.1-0.07-0.15c-0.05-0.1-0.09-0.19-0.14-0.29c-0.1-0.22-0.21-0.45-0.3-0.67
				c-0.9-2.06-1.64-4.19-2.39-6.3c-0.65-1.82-1.26-3.69-2.14-5.41c-0.34-0.67-0.8-1.17-1.37-1.65c-0.99-0.83-2.11-1.51-3.23-2.15
				c-1.17-0.67-2.37-1.3-3.55-1.95c-0.59-0.32-1.17-0.65-1.75-0.99c-0.27-0.16-0.53-0.32-0.79-0.48c-0.07-0.04-0.14-0.09-0.21-0.13
				c-0.22-0.14,0.12,0.08-0.01-0.01c-0.14-0.1-0.29-0.19-0.43-0.29c-0.47-0.32-0.92-0.67-1.34-1.05c-0.18-0.17-0.35-0.34-0.53-0.52
				c-0.16-0.16,0.14,0.18,0,0c-0.04-0.05-0.08-0.1-0.12-0.15c-0.08-0.1-0.15-0.19-0.22-0.29c-0.07-0.1-0.13-0.2-0.19-0.3
				c-0.02-0.03-0.04-0.07-0.06-0.1c-0.11-0.18,0.09,0.22,0.01,0.03c-0.05-0.14-0.09-0.33-0.17-0.46c0.14,0.24,0.05,0.29,0.04,0.16
				c0-0.02-0.01-0.05-0.01-0.07c-0.01-0.07-0.01-0.14-0.01-0.21c0-0.08,0-0.15,0-0.23c0-0.24-0.01,0.18-0.01,0.09
				c0-0.05,0.01-0.1,0.01-0.15c0.02-0.24,0.04-0.47,0.07-0.7c0.08-0.61,0.17-1.21,0.28-1.81c0.3-1.65,0.67-3.29,1.06-4.92
				c0.49-2.04,1.03-4.07,1.61-6.09c0.32-1.11,0.65-2.22,0.99-3.33c0.08-0.26,0.16-0.52,0.25-0.79c0.02-0.07,0.14-0.45,0.05-0.17
				c0.05-0.17,0.11-0.33,0.16-0.5c0.18-0.55,0.36-1.09,0.54-1.64c1.33-3.92,2.78-7.88,4.81-11.5c0.21-0.37,0.42-0.73,0.64-1.08
				c0.05-0.08,0.23-0.33,0.02-0.03c0.06-0.08,0.11-0.17,0.16-0.25c0.11-0.16,0.21-0.32,0.33-0.47c0.37-0.52,0.78-1.01,1.24-1.46
				c0.03-0.03,0.06-0.05,0.08-0.07c0.01-0.01-0.22,0.19-0.11,0.1c0.05-0.04,0.1-0.09,0.16-0.14c0.1-0.08,0.21-0.16,0.32-0.24
				c0.09-0.06,0.19-0.12,0.29-0.18c0.17-0.11-0.27,0.12-0.05,0.03c0.05-0.02,0.1-0.05,0.16-0.07c0.06-0.02,0.12-0.04,0.19-0.06
				c0.04-0.01,0.07-0.02,0.11-0.03c0.03-0.01-0.32,0.06-0.11,0.03c0.17-0.03,0.33-0.05,0.5-0.06c0.09-0.01,0.18-0.01,0.26-0.01
				c0.05,0,0.1,0,0.15,0c0.25,0-0.14-0.01-0.08,0c0.22,0.01,0.43,0.03,0.65,0.05c0.52,0.06,1.03,0.15,1.54,0.26
				c0.59,0.13,1.18,0.28,1.77,0.45c0.15,0.04,0.31,0.09,0.46,0.14c0.07,0.02,0.14,0.04,0.21,0.06c0.04,0.01,0.09,0.03,0.13,0.04
				c0.24,0.08-0.2-0.07-0.04-0.01c0.34,0.11,0.69,0.22,1.03,0.34c3.37,1.15,6.64,2.56,9.87,4.04c3.89,1.79,7.71,3.7,11.49,5.7
				c3.92,2.07,7.79,4.23,11.61,6.49c1.78,1.05,3.55,2.12,5.29,3.22c0.83,0.52,1.67,1.05,2.49,1.59c-0.22-0.15-0.02-0.01,0.08,0.05
				c0.1,0.07,0.2,0.13,0.3,0.2c0.2,0.13,0.4,0.26,0.6,0.39c0.37,0.25,0.74,0.49,1.11,0.74c2.36,1.6,4.72,3.24,6.82,5.17
				c0.35,0.33,0.7,0.66,1.03,1.02c0.03,0.03,0.06,0.07,0.09,0.1c-0.28-0.29-0.11-0.13-0.05-0.06c0.06,0.08,0.13,0.15,0.19,0.23
				c0.11,0.13,0.21,0.27,0.3,0.41c0.04,0.06,0.08,0.12,0.11,0.18c0.02,0.03,0.03,0.06,0.05,0.09c0.09,0.15-0.12-0.29-0.06-0.11
				c0.02,0.05,0.04,0.11,0.07,0.16c0.08,0.18-0.02-0.32-0.02-0.07c0,0.06,0,0.13,0.01,0.19c-0.03-0.31,0.01-0.18-0.01,0
				c-0.02,0.19-0.06,0.38-0.11,0.57c-0.03,0.11-0.05,0.21-0.09,0.31c-0.02,0.06-0.04,0.12-0.05,0.18c-0.08,0.26,0.08-0.25,0.01-0.04
				c-0.09,0.27-0.19,0.54-0.29,0.81c-0.25,0.66-0.53,1.31-0.82,1.96c-0.73,1.63-1.54,3.22-2.36,4.8c-2.05,3.9-4.25,7.71-6.55,11.47
				c-0.57,0.94-1.15,1.88-1.74,2.81c-0.28,0.45-0.57,0.9-0.86,1.35c-0.03,0.05-0.16,0.25,0,0c-0.03,0.05-0.06,0.1-0.09,0.14
				c-0.07,0.1-0.13,0.21-0.2,0.31c-0.15,0.22-0.29,0.45-0.44,0.67c-1,1.53-2.02,3.04-3.09,4.52c-0.76,1.04-1.53,2.09-2.42,3.03
				c-0.14,0.15-0.3,0.29-0.45,0.44c0.29-0.31,0.08-0.08-0.01,0c-0.06,0.05-0.12,0.09-0.18,0.14c-0.02,0.02-0.05,0.03-0.08,0.05
				c-0.12,0.1,0.28-0.1,0.11-0.06c-0.04,0.01-0.1,0.03-0.14,0.05c-0.07,0.03-0.17-0.09,0.17-0.04c-0.03-0.01-0.08,0.02-0.12,0.02
				c-0.12,0.01-0.24,0.01-0.36,0.02c-0.16,0.01,0.27,0.02,0.11,0c-0.04,0-0.08-0.01-0.12-0.01c-0.08-0.01-0.16-0.02-0.25-0.03
				c-0.37-0.05-0.73-0.13-1.09-0.22c-0.2-0.05-0.4-0.11-0.6-0.17c-0.08-0.02-0.48-0.13-0.15-0.04c-0.12-0.03-0.24-0.08-0.36-0.12
				c-1.05-0.35-2.08-0.76-3.1-1.19c-2.28-0.96-4.52-2.02-6.73-3.12c-1.68-0.83-3.35-1.69-5.02-2.55c-0.48-0.25-1.1,0.01-1.33,0.49
				c-0.24,0.51-0.01,1.1,0.47,1.34l0,0c4.01,2.07,8.03,4.14,12.21,5.85c1,0.41,2.02,0.8,3.06,1.13c0.82,0.26,1.67,0.53,2.54,0.6
				c0.67,0.06,1.33,0.02,1.91-0.37c0.37-0.25,0.69-0.58,1-0.91c0.89-0.95,1.67-2,2.44-3.06c1.1-1.51,2.14-3.06,3.17-4.63"/>
		</g>
		<g id="Ebene_9_2_">
			<g class="st30">
				<path d="M109.63,4.25c-8.11,17.19,1.04,46.34,8.93,62.74c-1.78-0.32-2.7-3.52-4.85-7.99c-3.04-6.31-1.43-6.15-3.64-8.56
					c-1.83-2-4.73-3.06-7.14-4.29c-2.22-1.14-4.85-2.87-5.75-4.72c-1.18-2.43,4.58-23.46,10.61-35.2"/>
				<g>
					<path d="M109.03,3.97c-1.68,3.57-2.57,7.47-2.96,11.38c-0.43,4.33-0.29,8.7,0.18,13c0.5,4.57,1.39,9.08,2.51,13.53
						c1.1,4.38,2.45,8.7,3.99,12.94c1.38,3.8,2.91,7.55,4.62,11.2c0.19,0.4,0.38,0.81,0.57,1.21c0.25-0.3,0.5-0.6,0.75-0.9
						c-0.05-0.01-0.09-0.02-0.14-0.03c0.17,0.04,0.03,0.01-0.01-0.01c-0.07-0.03-0.15-0.07-0.22-0.11
						c-0.17-0.09,0.04,0.05-0.11-0.07c-0.08-0.07-0.17-0.14-0.25-0.22c-0.04-0.04-0.08-0.08-0.12-0.12c0.09,0.09,0,0-0.02-0.03
						c-0.07-0.09-0.15-0.18-0.21-0.28c-0.15-0.21-0.29-0.43-0.42-0.66c-0.7-1.2-1.22-2.5-1.78-3.77c-1.11-2.48-2.39-4.88-3.06-7.53
						c-0.13-0.53-0.24-1.07-0.44-1.58c-0.26-0.63-0.65-1.17-1.1-1.68c-2.2-2.51-5.43-3.51-8.27-5.07c-1.29-0.71-2.55-1.53-3.62-2.57
						c-0.44-0.43-0.82-0.9-1.11-1.44c-0.04-0.08,0.02,0.1-0.01-0.04c-0.01-0.03-0.02-0.06-0.03-0.09c-0.03-0.1,0.02-0.13,0.01,0.04
						c0-0.04-0.02-0.1-0.02-0.14c-0.03-0.22-0.04-0.44-0.04-0.66c0-0.07,0-0.14,0-0.22c0-0.05,0.02-0.27,0-0.05
						c0.01-0.15,0.02-0.31,0.03-0.46c0.07-0.76,0.18-1.51,0.31-2.27c0.81-4.63,2.14-9.2,3.57-13.68c1.68-5.26,3.59-10.48,5.98-15.46
						c0.26-0.54,0.53-1.08,0.8-1.62c0.4-0.78-0.8-1.34-1.2-0.57c-2.51,4.91-4.47,10.11-6.21,15.34c-1.6,4.8-3.06,9.69-4.04,14.66
						c-0.29,1.49-0.59,3.03-0.57,4.55c0.01,0.53,0.09,1,0.34,1.46c0.67,1.24,1.83,2.21,2.96,3.01c1.31,0.93,2.73,1.69,4.18,2.38
						c1.49,0.71,3.03,1.39,4.37,2.36c0.33,0.24,0.65,0.5,0.95,0.77c0.13,0.12,0.27,0.25,0.39,0.39c0.05,0.06,0.1,0.11,0.16,0.17
						c0.09,0.1-0.05-0.06,0.06,0.07c0.23,0.27,0.45,0.54,0.63,0.84c0.03,0.05,0.07,0.11,0.1,0.17c0.04,0.08,0.09,0.19,0.02,0.04
						c0.06,0.13,0.11,0.25,0.16,0.38c0.09,0.25,0.16,0.5,0.22,0.76c0.19,0.78,0.39,1.55,0.65,2.31c0.5,1.45,1.16,2.83,1.81,4.22
						c0.7,1.49,1.33,3.01,2.05,4.49c0.47,0.97,0.99,2.04,1.83,2.75c0.35,0.29,0.75,0.5,1.2,0.59c0.45,0.09,0.97-0.44,0.75-0.9
						c-1.7-3.53-3.23-7.15-4.61-10.83c-1.56-4.14-2.93-8.35-4.08-12.63c-1.17-4.36-2.12-8.79-2.71-13.28
						c-0.56-4.25-0.84-8.58-0.55-12.88c0.26-3.86,0.96-7.76,2.43-11.34c0.17-0.43,0.36-0.85,0.56-1.26
						C110.6,3.75,109.41,3.18,109.03,3.97L109.03,3.97z"/>
				</g>
			</g>
		</g>
		<g id="Ebene_11">
			
				<ellipse transform="matrix(0.4267 -0.9044 0.9044 0.4267 31.0773 127.7216)" class="st31" cx="116.28" cy="39.35" rx="4.06" ry="3.98"/>
			
				<ellipse transform="matrix(0.4267 -0.9044 0.9044 0.4267 32.9167 142.4539)" class="st31" cx="128.82" cy="45.26" rx="4.06" ry="3.98"/>
			
				<ellipse transform="matrix(0.4267 -0.9044 0.9044 0.4267 34.677 156.5532)" class="st31" cx="140.82" cy="50.93" rx="4.06" ry="3.98"/>
		</g>
	</g>
</g>
</svg>
