<svg width="18" height="19" viewBox="0 0 18 19" fill="none" xmlns="http://www.w3.org/2000/svg">
<path fill-rule="evenodd" clip-rule="evenodd" d="M11.6818 15.7154L13.7215 14.5256L11.6818 13.4038V12C11.6818 11.4477 11.2341 11 10.6818 11H2C1.44771 11 1 11.4477 1 12V17C1 17.5523 1.44772 18 2 18H10.6818C11.2341 18 11.6818 17.5523 11.6818 17V15.7154ZM10.6818 10H2C0.89543 10 0 10.8954 0 12V17C0 18.1046 0.895431 19 2 19H10.6818C11.7864 19 12.6818 18.1046 12.6818 17V16.2898L14.9877 14.9447C15.3233 14.7489 15.3171 14.2619 14.9767 14.0747L12.6818 12.8125V12C12.6818 10.8954 11.7864 10 10.6818 10Z" fill="#1679F9"/>
<path d="M8 14.375C8 14.6511 8.22386 14.875 8.5 14.875C8.77614 14.875 9 14.6511 9 14.375C9 14.0989 8.77614 13.875 8.5 13.875C8.22386 13.875 8 14.0989 8 14.375Z" fill="#1679F9"/>
<path d="M6 14.375C6 14.6511 6.22386 14.875 6.5 14.875C6.77614 14.875 7 14.6511 7 14.375C7 14.0989 6.77614 13.875 6.5 13.875C6.22386 13.875 6 14.0989 6 14.375Z" fill="#1679F9"/>
<path d="M4 14.375C4 14.6511 4.22386 14.875 4.5 14.875C4.77614 14.875 5 14.6511 5 14.375C5 14.0989 4.77614 13.875 4.5 13.875C4.22386 13.875 4 14.0989 4 14.375Z" fill="#1679F9"/>
<path fill-rule="evenodd" clip-rule="evenodd" d="M6.31818 5.7154V7C6.31818 7.55229 6.7659 8 7.31818 8H16C16.5523 8 17 7.55228 17 7V2C17 1.44771 16.5523 1 16 1H7.31818C6.7659 1 6.31818 1.44772 6.31818 2V3.40377L4.27851 4.52559L6.31818 5.7154ZM5.31818 2.8125L3.02329 4.07469C2.68286 4.26193 2.67672 4.74892 3.01232 4.94469L5.31818 6.28977V7C5.31818 8.10457 6.21361 9 7.31818 9H16C17.1046 9 18 8.10457 18 7V2C18 0.895431 17.1046 0 16 0H7.31818C6.21361 0 5.31818 0.895431 5.31818 2V2.8125Z" fill="#1679F9"/>
<path d="M13 4.5C13 4.77614 13.2239 5 13.5 5C13.7761 5 14 4.77614 14 4.5C14 4.22386 13.7761 4 13.5 4C13.2239 4 13 4.22386 13 4.5Z" fill="#1679F9"/>
<path d="M11 4.5C11 4.77614 11.2239 5 11.5 5C11.7761 5 12 4.77614 12 4.5C12 4.22386 11.7761 4 11.5 4C11.2239 4 11 4.22386 11 4.5Z" fill="#1679F9"/>
<path d="M9 4.5C9 4.77614 9.22386 5 9.5 5C9.77614 5 10 4.77614 10 4.5C10 4.22386 9.77614 4 9.5 4C9.22386 4 9 4.22386 9 4.5Z" fill="#1679F9"/>
</svg>
