<?xml version="1.0" encoding="utf-8"?>
<!-- Generator: Adobe Adobe Illustrator 24.2.0, SVG Export Plug-In . SVG Version: 6.00 Build 0)  -->
<svg version="1.1" xmlns="http://www.w3.org/2000/svg" xmlns:xlink="http://www.w3.org/1999/xlink" x="0px" y="0px"
	 viewBox="0 0 2000 2000" style="enable-background:new 0 0 2000 2000;" xml:space="preserve">
<style type="text/css">
	.st0{fill:#6DB671;}
	.st1{fill:#6CB671;}
	.st2{opacity:0.149;}
	.st3{fill:#FFFFFF;}
	.st4{opacity:0.0314;}
	.st5{fill:#AEBECE;}
	.st6{fill:#ADBECD;}
	.st7{fill:#EA883C;}
	.st8{fill:#EA883B;}
	.st9{fill:#5C646F;}
	.st10{fill:#5C636F;}
	.st11{fill:#DB7A3A;}
	.st12{fill:#DB7A39;}
	.st13{fill:#DC7A39;}
	.st14{fill:#3D4C59;}
	.st15{fill:#E9EFF5;}
	.st16{fill:#ADBFCE;}
	.st17{fill:#DC7B3A;}
	.st18{opacity:0.1686;}
	.st19{opacity:0.1608;}
</style>
<g id="Ebene_1">
</g>
<g id="Ebene_4">
</g>
<g id="Ebene_8">
</g>
<g id="Ebene_7">
</g>
<g id="Ebene_6">
</g>
<g id="Ebene_3">
	<g>
		<g id="Ebene_2_Kopie">
			<g>
				<path class="st0" d="M1430.07,685.94c58.82,11.05,237.76,45.39,259.34,24.24c35.05-34.35,145.01-448.42,119.62-479.66
					c-53.2-65.48-782.89-225.84-858.55-169.96c-68.22,50.39-48.57,456.34-29.65,483.57c28.59,41.16,152.36,41.62,205.59,70.54
					c23.73,12.89,116.1,155.42,144.25,158.31c15.98,1.64,118.59-49.24,157.51-87.2"/>
				<g>
					<path class="st1" d="M1429.44,690.03c57.73,10.85,115.65,21.72,174.1,27.86c14.06,1.48,28.18,2.65,42.3,3.03
						c10.47,0.28,21.22,0.39,31.52-1.53c6.33-1.18,12.49-3.06,16.69-7.93c3.2-3.72,5.62-8.13,7.89-12.43
						c7.46-14.12,13.14-29.16,18.63-44.09c7.87-21.39,14.94-43.06,21.69-64.81c16.26-52.45,30.65-105.47,43.51-158.82
						c11.32-46.95,22.05-94.36,28.32-142.27c1.94-14.84,3.8-30.08,2.81-45.09c-0.28-4.28-0.77-8.88-2.6-12.86
						c-1.6-3.49-4.6-6.23-7.57-8.68c-8.57-7.06-18.98-12.24-29.05-17c-14.92-7.04-30.36-13.04-45.89-18.67
						c-43.36-15.74-87.82-28.67-132.37-40.77c-54.57-14.83-109.6-28.09-164.85-40.24c-57.35-12.63-114.98-24.06-172.87-33.99
						c-51.71-8.87-103.68-16.67-155.9-21.89c-37.87-3.79-76.67-7.07-114.64-4.01c-11.57,0.94-23.67,2.4-34.43,6.67
						c-11.26,4.47-18.57,13.38-24.17,23.46c-8.98,16.13-13.83,34.47-17.75,52.31c-5.24,23.78-8.38,47.99-10.71,72.22
						c-5.36,55.98-6.3,112.46-5.13,168.72c0.95,45.97,2.91,92.26,9.02,137.97c1.55,11.62,2.81,24.21,7.23,35.28
						c2.85,7.12,9.46,12.85,15.77,17.21c11.68,8.08,25.35,13.21,38.95,17.39c33.74,10.38,68.85,15.55,103.15,23.76
						c15.2,3.63,30.49,7.75,44.7,14.21c4.84,2.2,6.67,2.93,10.27,5.97c2.84,2.39,5.23,4.87,7.71,7.53
						c17.4,18.71,32.56,39.4,48.21,59.44c17.23,22.08,34.36,44.46,53.68,64.95c6.58,6.97,13.47,14.21,21.62,19.54
						c6.2,4.05,11.61,5.44,18.86,3.71c10.82-2.58,21.15-7.21,31.17-11.74c14.97-6.76,29.59-14.24,43.91-22.16
						c27.64-15.26,55.81-32.04,78.33-53.86c3.89-3.77-2.91-9-6.76-5.27c-10.87,10.55-23.46,19.51-36.16,27.94
						c-14.38,9.55-29.3,18.36-44.53,26.63c-13.74,7.47-27.78,14.52-42.17,20.83c-8.84,3.87-19.34,8.78-28.42,10.13
						c-0.57,0.09-1.15,0.14-1.73,0.2c-1.54,0.16,0.26,0.1-0.79-0.01c-0.5-0.05-1-0.18-1.49-0.3c1.14,0.29-1.06-0.45-1.47-0.63
						c-2.94-1.31-5.33-3.1-8.21-5.41c-8.13-6.52-15.22-14.22-22.08-21.92c-19.01-21.31-36.3-43.99-53.81-66.42
						c-14.51-18.59-28.63-38.04-45.43-54.86c-6.49-6.5-13.52-10.42-22.19-13.96c-14.54-5.94-29.92-9.92-45.23-13.49
						c-33.79-7.89-68.54-12.86-101.59-23.58c-12.81-4.16-26.02-9.2-36.56-17.56c-2.02-1.6-3.95-3.31-5.65-5.21
						c-0.93-1.05-1.76-2.15-2.61-3.25c-0.2-0.26-1.18-1.95-0.32-0.37c-0.74-1.36-1.29-2.79-1.79-4.24
						c-1.42-4.19-2.37-8.9-3.38-14.36c-1.34-7.34-2.37-14.72-3.29-22.11c-2.55-20.52-4.18-41.13-5.46-61.73
						c-3.34-53.79-4.21-107.77-2.47-161.56c1.63-50.65,4.74-102.14,16.13-151.64c3.87-16.8,8.69-34.03,17.62-49.04
						c2.69-4.51,7.04-10.09,11.03-13.09c0.69-0.53,1.42-1.02,2.16-1.48c0.34-0.21,0.68-0.4,1.03-0.6c1.2-0.7-0.48,0.19,0.8-0.42
						c1.92-0.91,3.88-1.71,5.89-2.39c5.48-1.85,8.73-2.49,14.54-3.42c6.64-1.07,13.37-1.7,20.09-2.12
						c16.71-1.03,33.52-0.75,50.28,0.02c46.29,2.11,92.47,7.78,138.34,14.39c55.57,8.01,110.87,17.84,165.93,28.75
						c56.62,11.23,113.02,23.67,169.08,37.4c49.81,12.2,99.43,25.33,148.41,40.44c35.33,10.89,71.01,22.35,104.43,38.07
						c5.66,2.66,11.23,5.48,16.63,8.62c1.01,0.59,0.97,0.56,2.54,1.54c1.07,0.67,2.14,1.36,3.17,2.06c1.78,1.21,3.52,2.47,5.18,3.83
						c0.7,0.58,1.37,1.17,2.05,1.78c0.34,0.3,0.66,0.63,0.99,0.95c-1.04-1.03,0.05,0.06,0.28,0.32c0.45,0.53,0.89,1.05,1.31,1.6
						c0.74,0.96-0.33-0.76,0.08,0.12c0.16,0.35,0.35,0.69,0.48,1.05c0.17,0.44,0.89,2.83,0.54,1.45c0.26,0.99,0.46,2,0.63,3
						c0.41,2.48,0.61,4.99,0.72,7.49c0.64,13.97-1.28,29.51-3.28,44.16c-2.97,21.81-6.98,43.47-11.35,65.04
						c-10.65,52.57-23.58,104.71-37.77,156.46c-12.85,46.84-26.56,93.61-43.35,139.27c-5.45,14.81-11.09,29.72-18.45,43.76
						c-2.49,4.74-3.66,7.18-6.9,10.93c-1.39,1.61-2.17,2.2-3.94,2.92c-3.39,1.4-6.08,1.95-9.65,2.48
						c-10.62,1.57-21.56,1.41-32.29,0.97c-14.21-0.59-28.39-1.91-42.54-3.48c-32.17-3.59-64.18-8.63-96.08-14.1
						c-24.08-4.13-48.08-8.6-72.08-13.12C1425.22,680.82,1423.96,689,1429.44,690.03L1429.44,690.03z"/>
				</g>
			</g>
		</g>
		<g id="Ebene_8_1_">
			<g>
				<g>
					<path class="st1" d="M1655.2,383.82c-15.42,62.29-30.83,124.57-46.24,186.86c-1.68,6.82,1.4,16.02,5.65,21.54
						c4.43,5.75,12.37,10.8,19.87,11.63c7.79,0.86,16.19-0.32,22.45-5.09c6.53-4.98,9.95-11.03,11.88-18.83
						c15.42-62.29,30.83-124.57,46.24-186.86c1.68-6.82-1.4-16.02-5.65-21.54c-4.43-5.75-12.37-10.8-19.87-11.63
						c-7.79-0.86-16.19,0.32-22.45,5.09C1660.56,369.97,1657.13,376.02,1655.2,383.82L1655.2,383.82z"/>
				</g>
			</g>
		</g>
		<g id="Ebene_7_1_">
			<g class="st2">
				<g>
					<path class="st3" d="M1568.52,205.14c17.74,5.71,35.98,9.86,54.04,14.44c4.99,1.26,9.97,2.55,14.94,3.88
						c2.42,0.65,4.84,1.3,7.26,1.97c1.21,0.34,2.42,0.67,3.63,1.01c3.98,1.12-3.36-1,0.69,0.2c9.41,2.78,18.78,5.74,27.92,9.26
						c4.26,1.63,8.47,3.39,12.58,5.32c1.85,0.87,3.69,1.77,5.51,2.73c0.87,0.46,1.73,0.94,2.59,1.4c3.54,1.92-2.46-1.64-0.33-0.22
						c3,2,5.98,3.95,8.68,6.33c0.57,0.51,1.12,1.17,1.73,1.61c-0.87-0.63-2.98-3.27-1.28-1.21c0.99,1.2,1.84,2.8,2.94,3.89
						c-0.6-0.6-2.09-4.11-1.03-1.7c0.26,0.6,0.52,1.21,0.8,1.8c1.6,3.44-0.31-3.43-0.22-1.05c0.04,1.21,0.19,5.63,0.24,1.53
						c0.06-4.06,0-0.78-0.06,0.2c-0.06,0.93-0.13,1.85-0.21,2.77c-0.19,2.11-0.46,4.21-0.76,6.31
						c-4.03,28.73-11.66,57.09-18.78,85.18c-10.08,39.79-20.85,79.41-31.71,119c-10.26,37.45-20.68,74.85-30.75,112.35
						c-1.05,3.88-2.08,7.77-3.11,11.66c-2.22,8.38,5.93,17.99,14.58,18.95c10.11,1.12,17.25-4.69,19.62-13.67
						c9.81-36.98,20.08-73.85,30.22-110.75c11.17-40.66,22.29-81.35,32.78-122.2c7.74-30.15,15.86-60.5,20.75-91.26
						c1.25-7.87,3.03-17.03,1.21-24.93c-4.28-18.5-21.12-29.93-37.86-38.03c-18.79-9.09-39.35-14.8-59.5-20.26
						c-18.68-5.06-37.58-9.33-56.23-14.49c-0.92-0.25-1.85-0.52-2.77-0.78c-2.8-0.78,4.4,1.31,1.06,0.3
						c-1.76-0.53-3.5-1.06-5.25-1.62c-8.57-2.76-19.19-0.71-22.79,8.15C1556.58,190.82,1559.31,202.18,1568.52,205.14
						L1568.52,205.14z"/>
				</g>
			</g>
			<g class="st2">
				<g>
					<path class="st3" d="M1612.87,664.13c0.02,3.65,0.04,7.31,0.07,10.95c9.32-4.85,18.65-9.7,27.97-14.54
						c-3.94-3.3-7.87-6.59-11.81-9.89c-0.16,8.72-0.33,17.44-0.49,26.15c-2.21,1.27-4.24,2.11-6.9,2.07
						c-1.05,0.13-2.07-0.03-3.03-0.48c-1.71-0.57-1.96-0.62-0.76-0.15c-1.8-0.97-3.13-2.01-4.45-3.54c0.73,0.97,0.63,0.77-0.28-0.62
						c-0.86-1.17-1.39-2.48-1.57-3.92c3.57-5.74,7.14-11.47,10.7-17.21c0.26-0.09,4.33-0.58,2.12-0.5c2.18-0.08,4.02,0.16,6.09,0.9
						c-2.1-0.75,1.54,1.01,1.79,1.17c-1.82-1.17,1.2,1.2,1.42,1.49c1.17,1.52,1.74,3.39,2.04,5.22c-0.49-2.96-1.17,5.94-1.09,5.68
						c0.68-2-0.85,1.36-1.1,1.67c-0.66,0.62-1.33,1.23-1.99,1.84c-2.61,1.21-3.3,1.56-2.07,1.07c1.93-0.6-3.96,0.72-1.97,0.46
						c0.91-0.06,0.54-0.08-1.11-0.03c-1.03,0.13-2.02,0-2.98-0.38c-3.86-1.03-6.87-3.81-7.85-7.54c-0.93-3.53-0.28,1.67-0.25-2.09
						c0.03-3.73-0.74,1.44,0.3-2.15c0.13-0.98,0.53-1.85,1.2-2.6c0.9-1.26,1.09-1.55,0.56-0.9c-0.95,1.13,3.53-2.59,1.12-1.3
						c8.78,2.48,17.57,4.97,26.35,7.45c-0.72-1.5-1.44-3-2.17-4.5c-3.79-7.88-13.7-13.16-22.49-9.46
						c-8.17,3.44-13.64,12.92-9.59,21.37c0.72,1.5,1.44,3,2.17,4.5c2.33,4.84,5.95,8.18,11.29,9.72c5.67,1.64,10.1,0.4,15.06-2.27
						c9.96-5.36,13.14-19.3,8.58-28.97c-5.41-11.5-19.87-17.07-31.86-11.79c-11.56,5.09-18.46,18.34-12.48,30.03
						c5.78,11.3,19.38,17.37,31.84,12.78c7.12-2.62,11.6-9.95,10.7-17.21c-0.97-7.85-6.4-15.16-14.06-18.4
						c-8.31-3.51-16.36-2.52-23.87,1.81c-9.9,5.69-8.27,19.64-0.49,26.15c3.94,3.3,7.87,6.59,11.81,9.89
						c5.25,4.39,13.38,4.7,19.19,1.66c6.52-3.41,8.82-9.33,8.78-16.2c-0.02-3.65-0.04-7.31-0.07-10.95
						c-0.03-3.86-3.34-8.62-6.35-10.96c-3.35-2.61-8.61-4.31-12.92-3.68c-4.34,0.64-8.71,2.47-11.38,5.92
						C1613.61,655.6,1612.84,659.43,1612.87,664.13L1612.87,664.13z"/>
				</g>
			</g>
		</g>
		<g id="Ebene_2_1_">
			<g>
				<g>
					<path d="M1396.3,721.73c57.8,10.88,115.8,21.79,174.32,27.98c14.08,1.49,28.21,2.67,42.35,3.08
						c11.24,0.32,22.79,0.61,33.86-1.42c8.58-1.58,16.59-4.19,22.32-10.77c3.65-4.19,6.42-9.2,9-14.04
						c7.5-14.1,13.2-29.14,18.69-44.06c7.91-21.43,15-43.16,21.77-64.96c16.44-52.99,31.02-106.53,44-160.44
						c11.29-46.9,22.01-94.26,28.14-142.13c1.96-15.27,3.74-31.01,2.6-46.45c-0.36-4.92-1.17-10.14-3.29-14.68
						c-2.26-4.83-6.26-8.68-10.45-12.05c-9.32-7.49-20.54-13.07-31.42-18.16c-15.07-7.04-30.64-13.04-46.31-18.69
						c-44.06-15.89-89.22-28.95-134.46-41.22c-54.54-14.79-109.52-28.02-164.73-40.18c-57.28-12.61-114.83-24.04-172.64-33.98
						c-51.54-8.86-103.32-16.67-155.35-21.93c-38.76-3.92-78.49-7.31-117.36-4.32c-12.36,0.96-25.3,2.57-36.81,7.03
						c-13.3,5.14-21.99,15.21-28.72,27.01c-9.45,16.58-14.46,35.67-18.55,54.07c-5.29,23.73-8.43,47.93-10.74,72.12
						c-5.4,56.47-6.24,113.45-4.99,170.2c1.01,46.12,3.03,92.57,9.3,138.41c1.66,12.14,3.12,25.3,7.81,36.83
						c3.46,8.5,11.09,15.52,18.72,20.7c12.6,8.57,26.98,14.16,41.59,18.58c34.61,10.5,70.47,15.91,105.6,24.39
						c3.86,0.93,7.71,1.9,11.54,2.93c1.02,0.27,2.04,0.55,3.06,0.83c0.55,0.15,3.97,1.14,0.66,0.18c1.96,0.57,3.91,1.16,5.86,1.76
						c7.2,2.26,14.31,4.82,21.15,7.98c1.3,0.6,2.59,1.23,3.87,1.88c0.72,0.37,1.47,0.88,2.22,1.16c1.54,0.58-3.16-2.21-1.88-1.12
						c1.07,0.91,2.32,1.64,3.4,2.55c1.26,1.06,2.45,2.19,3.64,3.31c2.68,2.54-1.82-1.94,0.26,0.24c0.91,0.96,1.83,1.91,2.73,2.89
						c17.33,18.65,32.5,39.18,48.15,59.09c17.32,22.04,34.51,44.41,53.96,64.82c7.06,7.41,14.4,15.19,23.16,20.84
						c4.13,2.67,8.43,5.09,13.39,5.97c4.97,0.88,9.46-0.08,14.21-1.25c10.94-2.72,21.4-7.33,31.58-11.92
						c15.51-6.98,30.65-14.75,45.5-22.91c28.17-15.48,56.46-32.55,79.44-54.69c4.9-4.72,3.06-13.49-2.02-17.45
						c-5.92-4.61-13.32-3.05-18.22,1.68c-0.66,0.63-4.67,4.24-1.92,1.84c-1.22,1.07-2.45,2.15-3.69,3.2
						c-2.9,2.44-5.87,4.81-8.88,7.12c-6.49,4.96-13.21,9.65-20.06,14.16c-14.39,9.49-29.31,18.25-44.53,26.46
						c-1.63,0.88-3.26,1.75-4.91,2.62c-0.31,0.16-3.56,1.86-1,0.53c-0.96,0.5-1.93,1-2.9,1.5c-3.77,1.94-7.55,3.84-11.36,5.7
						c-6.63,3.24-13.31,6.37-20.09,9.31c-5.5,2.39-11.06,4.68-16.73,6.69c-2.12,0.75-4.25,1.46-6.42,2.1
						c-0.91,0.26-2.17,0.37-2.99,0.82c3.01-1.61,2.33-0.47,0.26-0.13c-0.7,0.12-1.42,0.14-2.11,0.26c-2.37,0.44,2.33,0.28,1.81,0.08
						c-0.36-0.14-1.4-0.37-1.78-0.34c3.38-0.2,3.11,1.14,1.09,0.16c-0.69-0.33-1.39-0.7-2.09-1.02c-2.48-1.14,2.93,1.96,0.65,0.38
						c-1.64-1.13-3.27-2.24-4.83-3.48c-3.71-2.93-7.13-6.15-10.5-9.43c-0.62-0.6-2.53-2.24,0.32,0.34
						c-0.53-0.47-1.01-1.03-1.51-1.54c-0.94-0.97-1.89-1.95-2.81-2.94c-2.15-2.28-4.27-4.58-6.36-6.91
						c-19.02-21.18-36.33-43.72-53.84-66.03c-15.08-19.22-29.81-39.13-47.28-56.48c-6.75-6.71-14.38-11.05-23.34-14.76
						c-15.5-6.43-32.01-10.67-48.36-14.49c-17.15-4-34.44-7.37-51.68-11.02c-8.52-1.81-17.03-3.68-25.49-5.75
						c-3.9-0.95-7.78-1.95-11.64-3c-1.03-0.28-2.06-0.57-3.09-0.85c-3.33-0.92,1.83,0.59-0.21-0.06c-2.14-0.68-4.3-1.29-6.44-1.97
						c-7.04-2.25-14-4.79-20.71-7.87c-2.92-1.34-5.69-2.87-8.54-4.35c-2.62-1.36,2.43,1.64,0.02,0.01
						c-0.67-0.45-1.37-0.86-2.04-1.31c-1.31-0.87-2.59-1.78-3.82-2.73c-1.2-0.92-2.35-1.88-3.47-2.88c-0.36-0.32-0.7-0.68-1.07-0.99
						c-1.99-1.71,1.9,2.28,0.28,0.27c-1.17-1.47-2.42-3.56-3.81-4.8c2.69,2.39,1.68,3.28,1.07,1.78c-0.11-0.28-0.26-0.57-0.39-0.85
						c-0.36-0.8-0.65-1.62-0.94-2.44c-0.31-0.91-0.58-1.83-0.86-2.75c-0.86-2.8,0.53,2.16,0.3,1.13c-0.14-0.62-0.32-1.23-0.47-1.85
						c-0.69-2.82-1.26-5.66-1.79-8.51c-1.38-7.39-2.45-14.83-3.39-22.28c-2.58-20.41-4.25-40.91-5.56-61.4
						c-1.64-25.64-2.65-51.31-3.13-76.97c-0.27-14.15-0.37-28.3-0.32-42.45c0.02-3.35,0.04-6.71,0.07-10.06
						c0.01-0.87,0.07-5.81,0.02-2.17c0.03-2.13,0.06-4.27,0.1-6.41c0.12-7.01,0.29-14.02,0.51-21.03
						c1.57-50.52,4.61-101.9,16.04-151.25c1.16-4.99,2.42-9.96,3.83-14.88c0.31-1.08,1.61-4.61,0.09-0.39
						c0.4-1.14,0.72-2.32,1.08-3.47c0.71-2.22,1.46-4.43,2.26-6.63c2.66-7.37,5.85-14.52,9.85-21.31c0.23-0.38,0.52-0.75,0.71-1.14
						c0.08-0.16-2.01,3-1.03,1.61c0.49-0.7,0.96-1.43,1.46-2.13c0.95-1.33,1.96-2.63,3.03-3.87c0.92-1.07,1.93-2.05,2.9-3.08
						c1.73-1.82-2.93,2.35-0.48,0.45c0.56-0.43,1.1-0.89,1.67-1.31c0.67-0.49,1.38-0.93,2.09-1.38c0.41-0.25,0.86-0.45,1.26-0.72
						c0.38-0.26-3.74,1.77-1.32,0.71c1.96-0.85,3.91-1.68,5.95-2.35c1.08-0.36,2.16-0.68,3.26-0.98c0.63-0.17,1.26-0.33,1.89-0.5
						c3.1-0.83-1.82,0.39-0.95,0.21c2.76-0.56,5.5-1.13,8.28-1.56c6.68-1.04,13.44-1.65,20.21-2.05c7.9-0.46,15.82-0.61,23.74-0.58
						c2.07,0,4.15,0.03,6.22,0.06c0.96,0.01,1.93,0.03,2.89,0.05c0.58,0.02,1.17,0.02,1.75,0.04c3.32,0.07-2.8-0.09-0.52-0.01
						c4.7,0.15,9.4,0.32,14.1,0.53c46.29,2.21,92.45,7.9,138.3,14.54c55.19,8,110.11,17.76,164.8,28.61
						c56.72,11.25,113.2,23.7,169.36,37.43c26.15,6.39,52.23,13.08,78.2,20.13c12.39,3.36,24.78,6.73,37.08,10.36
						c-3.3-0.98-0.28-0.08,1.22,0.36c1.51,0.44,3.02,0.88,4.52,1.32c2.97,0.87,5.95,1.75,8.93,2.63c5.54,1.65,11.09,3.32,16.61,5.02
						c35.41,10.89,71.15,22.34,104.7,37.98c5.66,2.64,11.25,5.43,16.66,8.53c0.51,0.29,1.01,0.61,1.52,0.89
						c-4.57-2.47-1.9-1.14-0.84-0.48c1.09,0.68,2.17,1.35,3.23,2.07c1.82,1.21,3.6,2.48,5.3,3.84c0.72,0.58,1.42,1.16,2.1,1.78
						c0.32,0.28,0.62,0.6,0.94,0.87c1.7,1.48-2.64-2.97-1.13-1.13c0.45,0.55,0.93,1.12,1.42,1.64c1.75,1.86-1.49-3.73-0.48-0.77
						c0.24,0.71,0.48,1.51,0.79,2.19c-1.58-3.56-0.51-2.18-0.11,0.04c0.42,2.32,0.64,4.68,0.77,7.03c0.08,1.32,0.12,2.65,0.14,3.98
						c0.01,0.78,0.01,1.56,0.02,2.33c0.03,3.33,0.09-3.16,0.01-0.46c-0.1,3.48-0.25,6.96-0.49,10.43
						c-0.6,8.62-1.59,17.21-2.75,25.77c-2.9,21.55-6.84,42.96-11.14,64.28c-10.61,52.64-23.55,104.84-37.77,156.65
						c-3.56,12.97-7.22,25.92-10.98,38.83c-1.82,6.25-3.67,12.49-5.54,18.72c-0.21,0.7-1.07,3.54,0,0.02
						c-0.2,0.66-0.4,1.32-0.6,1.99c-0.44,1.45-0.88,2.9-1.32,4.35c-0.95,3.12-1.92,6.23-2.88,9.33
						c-6.62,21.28-13.57,42.49-21.28,63.42c-5.45,14.8-11.11,29.72-18.51,43.73c-1.21,2.28-2.64,4.44-3.86,6.72
						c2.45-4.6,0.76-1.18-0.13,0.05c-0.57,0.77-1.17,1.5-1.77,2.24c-0.24,0.3-0.55,0.54-0.78,0.85c-1.17,1.55,3.09-2.07,1.15-1.05
						c-0.5,0.26-1.19,0.7-1.62,1.06c-0.78,0.65-2.44-0.52,1.96-1.02c-0.43,0.05-0.95,0.46-1.36,0.61c-1.48,0.51-2.95,0.96-4.45,1.42
						c-1.99,0.6,3.51-0.64,1.39-0.34c-0.49,0.07-0.98,0.2-1.48,0.29c-1.04,0.19-2.1,0.36-3.16,0.51c-4.78,0.66-9.62,0.93-14.44,1.05
						c-2.7,0.07-5.39,0.08-8.09,0.05c-1.05-0.01-6.44,0.05-2.02-0.02c-1.62,0.02-3.28-0.11-4.91-0.17
						c-14.39-0.61-28.76-1.96-43.09-3.58c-32.03-3.62-63.92-8.65-95.7-14.11c-24.1-4.14-48.14-8.64-72.18-13.16
						c-6.89-1.3-13.72,3.8-14.72,10.25C1384.31,714.33,1389.39,720.43,1396.3,721.73L1396.3,721.73z"/>
				</g>
			</g>
		</g>
		<g id="Ebene_5">
			<g>
				<g>
					<path class="st3" d="M1129.91,405.71c32.14,57.54,64.27,115.07,96.4,172.61c4.67,8.36,10.03,14.2,19.76,17.01
						c8.63,2.49,19.2,1.84,26.35-3.97c45.48-36.95,90.96-73.91,136.45-110.86c45.48-36.95,90.96-73.91,136.45-110.86
						c25.68-20.86,51.36-41.73,77.04-62.59c6.15-5,10.66-10.95,11.88-18.83c1.08-7-0.88-15.87-5.65-21.54
						c-9.7-11.56-29.54-16.92-42.33-6.54c-45.48,36.95-90.96,73.91-136.45,110.86c-45.48,36.95-90.96,73.91-136.45,110.86
						c-25.68,20.86-51.36,41.73-77.04,62.59c15.37,4.34,30.74,8.69,46.11,13.03c-32.14-57.54-64.27-115.07-96.4-172.61
						c-3.87-6.93-8.1-12.51-15.86-15.88c-6.87-2.99-16.54-3.62-23.51-0.68c-6.99,2.94-13.52,7.92-16.39,14.94
						C1127.54,390.01,1126.13,398.96,1129.91,405.71L1129.91,405.71z"/>
				</g>
			</g>
		</g>
		<g id="Ebene_9_1_">
			<g class="st4">
				<path d="M943.24,67.62c-35.4,229.19,189.78,541.21,350.51,707.53c-23.43,2.26-47.06-32.37-90.82-77.66
					c-61.86-64-41.28-67.48-77.97-88.39c-30.47-17.37-70.54-20.12-105.25-26.57c-31.98-5.93-71.34-17.56-89.53-36.21
					c-24-24.6-32.46-291-2.21-449.24"/>
				<g>
					<path d="M934.69,66.29c-7.27,47.59-3.53,96.43,6.49,143.63c11.11,52.33,29.51,103.2,51.85,152.2
						c23.71,51.99,51.93,102.13,82.81,150.6c30.46,47.81,63.66,94.05,98.97,138.74c31.67,40.06,65.04,78.95,100.25,116.22
						c3.89,4.12,7.8,8.21,11.74,12.29c1.96-4.35,3.92-8.7,5.88-13.05c-0.63,0.05-1.25,0.07-1.88,0.1c2.34-0.1,0.35,0.03-0.19-0.05
						c-1.06-0.15-2.11-0.29-3.16-0.51c-2.41-0.49,0.74,0.44-1.6-0.51c-1.32-0.53-2.62-1.07-3.89-1.71c-0.67-0.34-1.32-0.7-1.97-1.06
						c1.45,0.82-0.06-0.04-0.41-0.26c-1.26-0.83-2.51-1.67-3.73-2.55c-2.7-1.97-5.27-4.11-7.76-6.33
						c-13.24-11.76-24.7-25.34-36.59-38.32c-23.25-25.4-48.37-49.34-66.83-78.31c-3.68-5.78-7.04-11.83-11.55-17.08
						c-5.65-6.57-12.59-11.59-20.07-16.07c-36.95-22.1-80.99-23.08-122.25-31.94c-18.81-4.04-37.64-9.45-54.81-18.1
						c-7.05-3.55-13.63-7.82-19.3-13.21c-0.84-0.8,0.66,1.09-0.29-0.38c-0.22-0.33-0.48-0.68-0.73-0.99
						c-0.8-1.02-0.28-1.56,0.23,0.47c-0.13-0.52-0.6-1.1-0.85-1.6c-1.21-2.45-2.14-5.03-2.96-7.62c-0.27-0.84-0.53-1.69-0.77-2.54
						c-0.18-0.64-0.85-3.25-0.2-0.65c-0.45-1.82-0.92-3.65-1.34-5.48c-2.07-9.14-3.53-18.41-4.77-27.67
						c-7.65-57.17-8.46-115.35-7.72-172.78c0.88-67.39,4.77-135.14,15.46-201.68c1.16-7.25,2.43-14.48,3.81-21.7
						c1.99-10.44-15.11-13.07-17.1-2.64c-12.58,66.11-17.09,133.83-18.82,201.06c-1.6,61.8-1.19,124.16,5.56,185.81
						c2.02,18.5,4.24,37.58,10.25,55.41c2.09,6.19,4.95,11.46,9.83,16.08c13.04,12.39,31.27,19.85,48.33,25.46
						c19.92,6.55,40.41,10.72,61.12,14.01c21.26,3.38,43,6.16,63.44,13.13c5.02,1.71,9.97,3.67,14.75,5.94
						c2.15,1.02,4.27,2.1,6.35,3.25c0.88,0.49,1.74,0.99,2.61,1.48c1.52,0.88-0.88-0.56,0.96,0.57c3.84,2.36,7.6,4.85,11.04,7.73
						c0.63,0.53,1.24,1.07,1.84,1.62c0.82,0.75,1.88,1.95,0.46,0.4c1.18,1.31,2.39,2.58,3.48,3.97c2.06,2.6,3.86,5.37,5.62,8.16
						c5.37,8.5,10.78,16.93,16.91,24.97c11.75,15.4,25.2,29.4,38.58,43.5c14.38,15.16,28.01,30.97,42.61,45.95
						c9.61,9.86,20.07,20.73,33.24,26.22c5.47,2.28,11.31,3.36,17.23,2.87c5.98-0.49,10.4-8.37,5.88-13.05
						c-34.62-35.85-67.46-73.28-98.68-111.87c-35.16-43.44-68.32-88.4-98.96-134.84c-31.23-47.3-59.86-96.23-84.38-146.98
						c-23.25-48.1-43.16-98.05-55.97-149.56c-11.51-46.29-17.66-94.38-13.01-141.38c0.55-5.59,1.26-11.17,2.11-16.73
						C953.39,58.44,936.29,55.78,934.69,66.29L934.69,66.29z"/>
				</g>
			</g>
		</g>
	</g>
</g>
<g id="Ebene_9">
</g>
<g id="Ebene_10">
</g>
<g id="Ebene_13">
</g>
<g id="Ebene_14">
</g>
<g id="Ebene_15">
	<g>
		<g>
			<path class="st5" d="M300.84,631.17c-11.72,53.37-12.62,109.04-2.62,162.76c1.53,8.19,3.95,17.28,11.21,21.53
				c14.9,8.73,35.42-10.19,50.33-1.48c-0.83-62.44,1.24-124.92,6.2-187.17c-19.03-4.9-39.44-4.43-58.22,1.34"/>
			<g>
				<path class="st6" d="M296.43,632.29c-7.85,36.15-10.99,73.32-9.1,110.27c0.93,18.17,3.04,36.3,6.35,54.19
					c2.33,12.59,7.63,26.6,22.63,26.83c12.99,0.2,27.88-10.81,40.3-4.15c4.02,2.16,7.73-4.86,7.69-7.98
					c-0.8-62.45,1.27-124.91,6.2-187.17c0.13-1.65-0.86-2.87-2.37-3.24c-19.56-4.85-40.01-4.31-59.32,1.44
					c-2.85,0.85-5,3.93-5.48,6.79c-0.36,2.14,0.44,5.41,3.35,4.54c18.72-5.57,38.16-5.95,57.12-1.24c-0.79-1.08-1.58-2.16-2.37-3.24
					c-4.92,62.26-6.99,124.72-6.2,187.17c2.56-2.66,5.13-5.32,7.69-7.98c-10.63-5.7-22.22-0.58-32.93,2.11
					c-5.51,1.38-11.6,2.47-16.86-0.34c-6.14-3.28-8.4-10.3-9.82-16.67c-7.51-33.62-8.78-69.43-6.56-103.71
					c1.3-20.14,4.24-40.15,8.52-59.87c0.52-2.4-0.57-5.03-3.35-4.54C299,626.02,296.98,629.73,296.43,632.29L296.43,632.29z"/>
			</g>
		</g>
		<g>
			<path class="st5" d="M1077.66,609.46c6.59,57.48,9.14,115.41,7.62,173.24c14.51-9.39,38.61,8.55,49.56-4.74
				c3.78-4.59,3.8-11.07,3.63-16.98c-1.02-36.52-2.05-73.05-3.07-109.57c-0.38-13.54-1.48-28.7-11.73-37.72
				c-11.27-9.93-28.47-8.03-43.36-5.53"/>
			<g>
				<path class="st6" d="M1073.12,611.98c6.54,57.5,9.09,115.39,7.62,173.24c-0.07,2.64,2.34,4.04,4.63,2.67
					c11.85-7.09,27.3,2.94,40.14,0.48c20.27-3.89,17.55-28.63,17.12-43.86c-0.66-23.57-1.32-47.15-1.98-70.72
					c-0.3-10.74-0.3-21.54-1.02-32.27c-0.57-8.52-1.85-17.18-5.94-24.8c-10.34-19.24-33.96-17.26-52.3-14.23
					c-4.64,0.77-8.55,12.39-2.14,11.33c14.74-2.44,34.22-4.95,44.38,8.84c4.73,6.42,6.2,14.63,6.81,22.41
					c0.72,9.23,0.7,18.53,0.96,27.78c0.58,20.59,1.15,41.17,1.73,61.76c0.28,10.12,0.72,20.25,0.85,30.38
					c0.09,6.87-0.63,11.82-8.35,12.29c-13.67,0.83-27.45-7.55-40.43,0.22c1.54,0.89,3.09,1.78,4.63,2.67
					c1.47-57.85-1.08-115.74-7.62-173.24C1081.35,599.5,1072.56,607.13,1073.12,611.98L1073.12,611.98z"/>
			</g>
		</g>
		<g>
			<path class="st5" d="M1036.71,1184.39c9.83,7.48,10.49,21.52,11.75,33.71c1.26,12.19,6.3,26.63,18.5,28.91
				c7.91,1.48,15.58-2.99,22.37-7.27c18.98-11.97,37.97-23.94,56.95-35.92c7.36-4.64,15.18-9.82,18.3-17.87
				c4.19-10.81-1.49-22.73-7.46-32.69c-5.81-9.67-13.51-20.04-24.83-21.31c-8.46-0.95-16.45,3.56-23.73,7.9
				c-25.48,15.19-50.96,30.38-76.44,45.57"/>
			<g>
				<path class="st6" d="M1033.56,1189.84c9.37,7.64,9.17,21.1,10.5,32.04c1.14,9.38,3.88,19.71,11.22,26.21
					c9.37,8.3,21.55,4.37,31.18-1.34c12.9-7.66,25.45-16.01,38.14-24.01c20.52-12.94,53.18-27.2,44.44-57.22
					c-3.21-11.03-10.14-22.77-18.36-30.83c-8.59-8.43-19.15-10.6-30.41-6.13c-7.17,2.84-13.68,7.21-20.28,11.15
					c-7.36,4.39-14.72,8.78-22.08,13.16c-15.29,9.11-30.58,18.23-45.86,27.34c-2.51,1.5-4.61,4.71-4.45,7.72
					c0.13,2.6,2.21,4.11,4.63,2.67c23.22-13.84,46.43-27.68,69.65-41.52c9.44-5.63,21.05-14.71,32.65-10.34
					c9.6,3.62,15.7,13.81,20.48,22.31c5.71,10.15,10.42,22.45,0.22,31.22c-9.16,7.87-20.6,13.65-30.79,20.08
					c-11.73,7.39-23.41,14.85-35.18,22.18c-8.84,5.51-20.29,11.11-28.58,1.6c-14.22-16.32-2.85-42.58-20.81-57.21
					C1036.08,1175.85,1029.44,1186.48,1033.56,1189.84L1033.56,1189.84z"/>
			</g>
		</g>
		<g>
			<path class="st5" d="M1088.86,1343.49c7.2,10.15,6.19,23.62,7.48,35.95c1.29,12.33,7.56,26.52,20.01,28.18
				c7.63,1.02,14.88-3.16,21.42-7.18c37.58-23.09,75.16-46.19,112.74-69.28c-8.42-21.44-17.81-42.52-28.11-63.15
				c-36.91,34.81-82.71,60.38-131.96,73.65"/>
			<g>
				<path class="st6" d="M1084.95,1348.25c8.05,12.09,4.91,27.25,7.99,40.76c2.43,10.69,8.88,22.25,20.61,24.26
					c6.72,1.15,13.47-1.52,19.27-4.68c7.47-4.07,14.61-8.84,21.86-13.3c14.86-9.13,29.73-18.27,44.59-27.4
					c17.11-10.51,34.22-21.03,51.32-31.54c2.48-1.53,5.53-5.79,4.28-8.95c-8.59-21.79-18.13-43.18-28.57-64.15
					c-0.99-1.99-4.05-0.65-5.14,0.37c-36.6,34.33-81.24,59.18-129.65,72.37c-4.52,1.23-8.26,13-2.14,11.33
					c50.05-13.64,96.42-39.43,134.26-74.93c-1.71,0.12-3.43,0.25-5.14,0.37c10.11,20.31,19.32,41.04,27.64,62.15
					c1.43-2.98,2.86-5.97,4.28-8.95c-28.05,17.23-56.09,34.47-84.14,51.7c-7.01,4.31-14.02,8.62-21.03,12.93
					c-6.42,3.95-13.15,9.15-20.61,10.9c-12.93,3.02-20.48-9.07-22.96-19.99c-3.3-14.5-0.21-29.69-8.92-42.77
					C1089.73,1334.16,1082.22,1344.14,1084.95,1348.25L1084.95,1348.25z"/>
			</g>
		</g>
		<g>
			<path class="st5" d="M260.25,1153.56c-1.99,12.16-12.55,20.79-21.15,29.72s-16.11,21.96-10.61,33.02
				c2.91,5.85,8.8,9.57,14.44,12.96c24.42,14.7,49.59,29,77.31,35.95c9.03,2.26,18.56,3.72,27.62,1.56
				c9.06-2.16,17.54-8.62,19.72-17.56c2.25-9.24-2.65-18.96-9.64-25.49c-6.99-6.53-15.88-10.64-24.25-15.33
				c-25.97-14.54-47.88-35.3-67.17-57.79"/>
			<g>
				<path class="st6" d="M255.83,1154.69c-2.31,11.95-14.27,19.5-21.69,28.25c-7.58,8.94-14.42,21.54-11.32,33.61
					c3.21,12.51,17.56,18.63,27.69,24.55c12.32,7.2,24.88,14.07,38,19.72c22.03,9.5,55.04,22.27,75.02,2.2
					c8.71-8.75,11.58-21.42,6.41-32.78c-5.54-12.18-17.39-18.76-28.65-24.86c-27.59-14.96-50.49-35.86-70.89-59.53
					c-3.72-4.32-10.99,5.83-7.81,9.52c15.67,18.18,32.89,35.26,52.69,48.95c10.1,6.98,21.23,12.05,31.49,18.72
					c8.31,5.4,20.76,17.07,15.97,28.42c-4.45,10.54-19.87,11.32-29.33,10.15c-12.72-1.58-25.21-6.02-36.97-10.99
					c-11.51-4.86-22.59-10.67-33.45-16.85c-5.17-2.94-10.3-5.97-15.4-9.04c-4.9-2.94-10.28-5.87-13.67-10.62
					c-8.33-11.69,3.87-23.92,11.71-31.78c8.55-8.57,16.65-17.61,19.02-29.88c0.46-2.4-0.53-5.04-3.35-4.54
					C258.46,1148.4,256.33,1152.12,255.83,1154.69L255.83,1154.69z"/>
			</g>
		</g>
		<g>
			<path class="st5" d="M165,1311.85c-8.7,18.9-17.41,37.81-26.11,56.71c-2.16,4.69-4.34,10.11-2.2,14.81
				c1.97,4.34,6.9,6.43,11.41,8.14c36.24,13.72,72.49,27.44,108.73,41.16c10.82,4.09,22.81,8.22,33.68,4.28
				c12.85-4.66,19.16-18.62,24.11-31.22c3.67-9.34,6.73-21.5-0.91-28.1c-3.61-3.12-8.64-3.91-13.37-4.7
				c-47.02-7.83-91.9-27.83-128.95-57.45"/>
			<g>
				<path class="st6" d="M161.01,1311.48c-7.75,16.84-15.51,33.67-23.26,50.51c-3.18,6.92-7.8,14.81-6.13,22.73
					c1.6,7.61,8.61,10.45,15.17,12.94c34.7,13.17,69.42,26.28,104.12,39.42c14.2,5.37,30.46,11.49,44.64,2.63
					c11.52-7.2,17.69-20.11,22.54-32.3c4.28-10.76,9.32-27.28-1.86-35.71c-6.02-4.54-14.96-4.64-22.1-6.05
					c-7.79-1.54-15.51-3.42-23.14-5.62c-35.03-10.12-67.92-27.32-96.46-49.99c-3.84-3.05-10.46,7.6-6.3,10.91
					c22.17,17.61,46.89,31.86,73.29,42.13c12.99,5.06,26.37,9.19,39.96,12.32c6.85,1.58,13.79,2.59,20.66,4.02
					c6.7,1.4,11.74,5.13,11.75,12.4c0.01,5.84-2.42,11.52-4.6,16.83c-2.18,5.3-4.58,10.7-8.16,15.23
					c-9.93,12.56-25.55,9.11-38.72,4.26c-30.71-11.3-61.23-23.17-91.83-34.75c-7.96-3.01-16.49-5.48-24.08-9.34
					c-3.85-1.96-6.73-4.63-5.85-9.29c0.77-4.13,3.34-8.23,5.08-12.02c7.75-16.84,15.51-33.67,23.26-50.51
					c0.93-2.02,0.93-5.69-1.83-6.14C164.24,1305.62,161.98,1309.37,161.01,1311.48L161.01,1311.48z"/>
			</g>
		</g>
		<g>
			<path class="st5" d="M463.82,1630.8c-5.46,4.12-3.05,13.49,2.76,17.13c5.81,3.63,13.21,3.24,20.06,2.72
				c19.27-1.46,38.54-2.91,57.81-4.37c2.68-1.83,1.52-7.5,2.05-16.76c0.39-6.89-12.8-5.07-19.79-5.23
				c-21.2-0.47-42.4-0.95-63.6-1.42"/>
			<g>
				<path class="st6" d="M462.59,1626.42c-10.26,9.05-7.3,25.35,6.08,29.2c8.24,2.37,17.4,0.68,25.78,0.05
					c9.64-0.73,19.27-1.46,28.91-2.18c4.65-0.35,9.3-0.7,13.96-1.05c4.02-0.3,7.18-0.05,9.96-3.28c3.91-4.55,3.58-10.65,3.63-16.26
					c0.04-5.36,1.1-11.01-4.92-13.29c-5.05-1.91-10.87-1.04-16.14-1.05c-21.5-0.02-43.05-0.95-64.54-1.43
					c-4.9-0.11-9.77,11.4-4.33,11.53c20.21,0.45,40.41,0.91,60.62,1.36c5.66,0.13,12.16-0.97,17.69,0.47
					c3.3,0.86,2.65,1.81,2.57,5.1c-0.05,1.95-0.01,3.91-0.04,5.86c0,0.78-0.03,1.56-0.07,2.34c-0.28,1.47,0.22,0.85,1.5-1.86
					c1.13-0.46,2.27-0.92,3.4-1.38c-16.61,1.26-33.23,2.51-49.84,3.77c-6.76,0.51-14.01,1.72-20.75,0.51
					c-3.04-0.54-6.17-1.66-8.28-4.02c-0.97-1.08-1.73-2.42-2.11-3.82c-0.19-0.54-0.3-1.1-0.34-1.68c0.14-1.14,0.06-1.17-0.25-0.09
					c2-1.76,4.15-5.37,3.14-8.14C467.21,1624.34,464.44,1624.78,462.59,1626.42L462.59,1626.42z"/>
			</g>
		</g>
		<g>
			<path class="st5" d="M805.18,1614.11c-4.61,5.51-2.81,11.2-0.91,20.25c1.65,7.84,14.78,6.22,22.89,6.52
				c27.38,1.02,51.22,0.28,78.56-1.55c-1.9-10.21-1.13-22.36,0-33.13c-33.63,1.12-67.26,2.24-100.89,3.36"/>
			<g>
				<path class="st6" d="M802.86,1610.84c-6.28,8.23-6.11,18.72-2.68,28.25c3.08,8.55,14.75,7.46,22.01,7.51
					c27.23,0.19,54.17,0.29,81.37-1.51c4.37-0.29,7.23-5.49,6.54-9.52c-1.72-10.04-0.99-20.42,0.04-30.49
					c0.15-1.49,0.09-4.72-2.25-4.64c-33.63,1.12-67.26,2.24-100.89,3.36c-4.9,0.16-9.64,11.7-4.33,11.53
					c33.63-1.12,67.26-2.24,100.89-3.36c-0.75-1.55-1.5-3.09-2.25-4.64c-1.23,11.93-1.99,23.87,0.04,35.76
					c2.18-3.17,4.36-6.35,6.54-9.52c-22.63,1.49-45.29,2.35-67.97,1.86c-8.23-0.18-17.48,0.68-25.6-0.93
					c-4.14-0.82-5.34-2.34-6.19-6.35c-0.61-2.84-2.61-8.16-0.62-10.77c1.45-1.9,3.43-5.76,1.59-8.03
					C807.28,1607.13,804.18,1609.1,802.86,1610.84L802.86,1610.84z"/>
			</g>
		</g>
		<g>
			<path class="st7" d="M370.22,610.56c5.8,54.83-1.85,113.49-3.71,169.25s6.15,126.52,53.75,156.59
				c29.71,18.77,68.46,11.79,103.7,13.45c152.36,7.18,305.33,14.35,457.21,0.42c24.48-2.24,50.79-5.86,68.59-22.59
				c21.46-20.17,23.79-52.64,24.47-81.88c1.65-71.75,1.65-143.54,0.02-215.29c-1.11-48.55-5.5-102.74-42.12-135.17
				c-25.36-22.47-60.88-29.25-94.61-34c-98.89-13.91-199.21-17.92-298.91-11.96c-56.62,3.39-114.35,10.34-165.27,35.04
				c-50.92,24.69-94.46,70.1-103.22,125.42"/>
			<g>
				<path class="st8" d="M365.68,613.08c4.03,39.21,1.52,78.67-0.96,117.89c-2.11,33.28-4.68,66.74-1.39,100.03
					c2.74,27.8,8.97,56.32,23.93,80.3c7.02,11.24,16.15,21.24,27.1,28.75c13.41,9.2,29.31,13.28,45.34,14.72
					c17.37,1.56,34.84,0.41,52.25,0.59c19.77,0.2,39.57,1.67,59.32,2.57c40.93,1.86,81.87,3.55,122.83,4.68
					c81.8,2.24,163.75,2.2,245.42-3.4c18.78-1.29,37.69-2.45,56.35-4.99c15.77-2.14,31.98-5.9,45.49-14.69
					c27.76-18.08,35.15-50.88,36.88-81.93c2.2-39.53,1.74-79.39,1.76-118.97c0.03-40.07-0.13-80.21-1.49-120.26
					c-1.04-30.57-3.65-62.47-16.21-90.75c-13.03-29.34-36.43-49.45-66.65-59.88c-15.57-5.37-31.79-8.53-48.04-11
					c-19.53-2.96-39.16-5.34-58.8-7.42c-40.51-4.29-81.2-6.94-121.93-7.92c-40.73-0.99-81.5-0.32-122.18,2
					c-37.18,2.12-74.53,5.51-110.78,14.38c-62.83,15.35-124.61,50.49-154.25,110.39c-6.7,13.55-11.52,27.88-13.97,42.81
					c-0.39,2.39,0.48,5.05,3.35,4.54c2.8-0.49,5.06-4.23,5.48-6.79c10.15-61.85,63.02-106.43,119-127.81
					c33.48-12.79,69.05-19.12,104.59-22.76c37.88-3.88,76.1-5.27,114.17-5.62c77.9-0.71,156.38,4.07,233.39,16.09
					c30.89,4.82,63.99,12.6,86.83,35.5c21.08,21.13,30.06,50.58,33.93,79.49c4.56,34.06,3.8,68.95,4.19,103.23
					c0.45,39.87,0.4,79.75-0.16,119.61c-0.26,18.46-0.28,36.98-1.26,55.41c-0.79,14.89-2.59,30.21-8.63,43.98
					c-13.39,30.52-47.9,35.92-77.55,38.68c-79.07,7.37-158.65,8.76-238.01,7.54c-39.64-0.61-79.27-1.9-118.88-3.5
					c-19.48-0.79-38.95-1.65-58.43-2.54c-18.77-0.86-37.58-2.26-56.37-2.23c-31.71,0.06-66.34,3.51-93.31-16.57
					c-21.64-16.1-33.48-41.72-39.85-67.27c-6.71-26.93-8.02-55.03-7.11-82.68c1.26-38.25,5.14-76.38,5.76-114.67
					c0.3-18.22-0.18-36.45-2.05-54.58C374,600.6,365.18,608.23,365.68,613.08L365.68,613.08z"/>
			</g>
		</g>
		<g>
			<path class="st9" d="M297.26,628.29c-25.45,13.79-47.82,34.09-60.77,59.74s-15.71,56.86-4.27,83.2
				c11.45,26.34,38,46.52,67.02,47.58c-20.31-59.77-20.94-125.88-1.78-186.02"/>
			<g>
				<path class="st10" d="M297.17,623.09c-31.38,17.18-58.92,44.13-70.56,78.6c-11.7,34.66-6.84,75.14,20.69,101.01
					c13.6,12.77,31.02,20.96,49.77,21.86c3.97,0.19,7.75-5.91,6.54-9.52c-19.71-58.6-20.76-122.85-2.16-181.89
					c2.51-7.95-6.02-6.99-7.99-0.74c-19.45,61.73-19.25,128.74,1.4,190.15c2.18-3.17,4.36-6.35,6.54-9.52
					c-30.76-1.47-57.92-23.68-67.51-52.65c-10.82-32.72-0.49-68.13,21.44-93.71c11.72-13.67,26.27-24.58,42.01-33.2
					c2.54-1.39,4.6-4.78,4.45-7.72C301.67,623.08,299.61,621.76,297.17,623.09L297.17,623.09z"/>
			</g>
		</g>
		<g>
			<path class="st9" d="M1120.89,606.03c25.98,54.11,33.82,116.52,22.03,175.25c27.54,0.18,51-20.65,65.07-44.03
				c12.36-20.53,19.84-44.4,18.2-68.23c-4.19-60.91-51.82-67.29-101.19-65.72"/>
			<g>
				<path class="st10" d="M1116.98,610.79c25.29,53.12,32.91,113.91,21.52,171.61c-0.31,1.55,0.01,4.66,2.25,4.64
					c47.36-0.34,80.2-51.37,88.2-93.14c3.93-20.54,2.66-43.79-7.5-62.46c-7.61-13.97-20.75-23.27-35.68-28.11
					c-18.83-6.1-39-6.4-58.6-5.8c-4.9,0.15-9.64,11.69-4.33,11.53c27.96-0.85,63.89-0.94,83.98,22.07
					c11.28,12.91,15.13,30.62,15.06,47.39c-0.09,22.55-8.5,45.37-21.58,63.61c-12.93,18.02-32.13,33.22-55.21,33.39
					c0.75,1.55,1.5,3.09,2.25,4.64c11.91-60.34,3.89-123.39-22.54-178.88c-1.29-2.7-5.14,0.21-6.23,1.49
					C1116.7,604.96,1115.7,608.1,1116.98,610.79L1116.98,610.79z"/>
			</g>
		</g>
		<g>
			<path class="st9" d="M459.15,576.43c-4.72,46-9.45,92.01-14.17,138.01c-1.41,13.76-2.47,28.92,5.73,40.14
				c10.69,14.63,31.86,15.99,50.14,15.89c143.1-0.78,286.17-6.69,428.83-17.71c18.68-1.44,39.79-4.27,50.71-19.3
				c7.16-9.84,8.09-22.67,8.77-34.77c1.94-34.45,3.88-68.91,5.82-103.36c0.76-13.57,0.8-29.04-9.26-38.33
				c-8.61-7.95-21.63-8.44-33.42-8.43c-163.76,0.12-327.52,8.94-490.32,26.42"/>
			<g>
				<path class="st10" d="M454.73,577.55c-2.6,25.3-5.2,50.6-7.79,75.9c-2.47,24.07-5.8,48.22-7.26,72.37
					c-1.18,19.49,4.27,38.55,24.11,45.87c18.96,7,40.95,4.53,60.73,4.34c101.02-0.99,202.02-4.53,302.87-10.62
					c25.13-1.52,50.25-3.19,75.35-5.03c20.16-1.47,42.46-0.97,61.33-9.19c18.96-8.25,27.15-25.96,28.96-45.67
					c2.23-24.22,2.88-48.68,4.25-72.96c0.71-12.59,1.42-25.18,2.13-37.77c0.52-9.38,0.99-19.08-1.57-28.23
					c-2.44-8.75-8.05-16.17-16.51-19.84c-9.06-3.93-19.15-3.92-28.85-3.92c-50.51,0.03-101.03,0.94-151.51,2.66
					c-100.34,3.41-200.57,10.09-300.49,20c-12.48,1.24-24.96,2.53-37.43,3.87c-4.67,0.5-8.66,12.03-2.14,11.33
					c96.14-10.3,192.6-17.6,289.21-21.85c47.83-2.11,95.69-3.47,143.56-4.09c12.22-0.16,24.43-0.27,36.65-0.33
					c10.72-0.05,21.64-0.66,32.32,0.41c9.33,0.93,18.6,4,23.64,12.48c4.6,7.75,4.66,17.42,4.36,26.15
					c-0.84,24.01-2.66,48.02-4.01,72c-0.67,11.93-1.33,23.85-2.01,35.78c-0.53,9.22-0.86,19.59-5.77,27.72
					c-9.29,15.39-32.01,16.89-47.99,18.13c-24.11,1.87-48.23,3.57-72.36,5.14c-96.19,6.24-192.53,10.17-288.91,11.76
					c-23.6,0.39-47.24,0.98-70.84,0.73c-16.23-0.17-36.85-1.77-45.87-17.53c-5.09-8.89-4.71-19.86-3.88-29.73
					c1-11.9,2.41-23.78,3.63-35.66c2.43-23.66,4.86-47.32,7.29-70.98c1.21-11.83,2.43-23.66,3.64-35.49
					C464.41,567.11,455.29,572.09,454.73,577.55L454.73,577.55z"/>
			</g>
		</g>
		<g>
			<path class="st9" d="M310.71,1102.05c-12.87,13.82-25.74,27.63-38.61,41.45c17.02,22.95,34.58,46.41,58.71,61.95
				c10.09,6.5,21.95,11.61,33.88,9.98c11.93-1.62,23.19-12.09,21.89-23.92c-1.68-15.29-20.02-21.57-33.73-28.88
				c-21.68-11.55-37.24-33.64-40.66-57.72"/>
			<g>
				<path class="st10" d="M308.4,1098.78c-12.87,13.82-25.74,27.63-38.61,41.45c-1.65,1.77-3.24,5.81-1.59,8.03
					c12.58,16.95,25.31,33.95,40.96,48.23c14.56,13.29,34.85,28.46,55.85,24.38c16.42-3.19,31.29-21.59,24.58-38.44
					c-6.23-15.65-25.87-20.03-38.76-28.28c-18.45-11.81-30.96-31.38-34.25-52.99c-0.46-3.01-4.07-1.87-5.61-0.63
					c-2.39,1.93-3.59,5.16-3.14,8.14c2.49,16.35,10.11,31.82,21.54,43.79c5.76,6.03,12.36,11.26,19.68,15.26
					c6.54,3.58,13.46,6.45,19.82,10.37c5.85,3.61,12.15,8.63,13.17,15.91c1.08,7.73-6.17,13.17-12.86,15.03
					c-18.55,5.15-38.22-9.76-51.23-21.23c-16.19-14.27-29.13-31.82-41.93-49.07c-0.53,2.68-1.06,5.35-1.59,8.03
					c12.87-13.82,25.74-27.63,38.61-41.45C317.48,1100.54,314.09,1092.66,308.4,1098.78L308.4,1098.78z"/>
			</g>
		</g>
		<g>
			<path class="st9" d="M217.47,1213.41c-21.69,31.87-55.14,80.36-52.18,94.7c3.48,16.9,102.06,50.92,156.18,61.54
				c10.49-29.95,20.98-59.9,31.47-89.86c-52.02-6.71-101.71-29.98-139.88-65.49"/>
			<g>
				<path class="st10" d="M214.2,1211.52c-13.5,19.83-27.25,39.6-39.15,60.45c-4.56,7.99-9.12,16.29-12.1,25.02
					c-1.82,5.35-3.9,12.21-0.95,17.55c2.35,4.24,6.95,7.33,10.92,9.89c6.3,4.07,13.08,7.41,19.88,10.55
					c18.86,8.69,38.52,15.71,58.27,22.1c22.39,7.24,45.13,13.77,68.23,18.34c2.74,0.54,5.44-3.33,6.16-5.39
					c10.49-29.95,20.98-59.9,31.47-89.86c0.7-2,1.12-5.74-1.83-6.14c-51.25-6.79-100.13-29.36-138.14-64.49
					c-4.27-3.95-11.29,6.31-7.81,9.52c39.13,36.16,88.78,59.5,141.62,66.5c-0.61-2.04-1.22-4.09-1.83-6.13
					c-10.49,29.95-20.98,59.9-31.47,89.86c2.05-1.8,4.11-3.59,6.16-5.39c-38.87-7.7-77.57-19.88-114.09-35.24
					c-12.25-5.15-27.09-10.63-36.87-20.02c-3.25-3.12-3.52-4.29-2.49-8.43c1.83-7.38,5.83-14.41,9.47-21.01
					c12.25-22.16,26.86-42.99,41.09-63.9c1.23-1.8,2.25-5.97-0.12-7.35C218.05,1206.47,215.39,1209.77,214.2,1211.52L214.2,1211.52z
					"/>
			</g>
		</g>
		<g>
			<path class="st9" d="M133.31,1394.45c-12.1,31.28-9.09,68.44,10.04,96.09s54.6,44.12,88.06,38.65s62.38-33.91,65.74-67.23
				c0.6-5.96,0.28-12.47-3.45-17.19c-5.79-7.31-16.76-7.23-26.16-7.11c-48.54,0.59-97.1-16.42-134.41-47.08"/>
			<g>
				<path class="st10" d="M129.32,1394.08c-12.25,32.43-10.29,70.65,9.22,99.9c17.96,26.92,50.83,44.01,83.29,41.83
					c31.83-2.13,60.27-23.05,73.38-51.9c5.55-12.2,11.92-33.64,1.48-44.94c-5.01-5.43-12.7-6.77-19.75-7.04
					c-9.12-0.35-18.18,0-27.29-0.79c-41.4-3.58-81.17-19.79-113.37-46.03c-3.78-3.08-10.43,7.55-6.3,10.91
					c25.57,20.83,55.89,35.29,88.08,42.44c16.05,3.57,32.31,5.03,48.73,4.93c6.84-0.04,15.07-0.35,20.82,4.01
					c6.32,4.79,5.67,13.61,4.44,20.56c-4.96,27.94-29.56,49.51-56.76,55.04c-29.18,5.93-60.8-6.24-80.64-27.95
					c-24.48-26.8-30.01-66.75-17.35-100.24c0.78-2.06,1.03-5.67-1.83-6.14C132.67,1388.24,130.13,1391.93,129.32,1394.08
					L129.32,1394.08z"/>
			</g>
		</g>
		<g>
			<path class="st9" d="M1019.8,1151.23c-5.95,11.08,6.14,24.81,18.82,25.66c12.67,0.85,24.25-6.5,34.76-13.54
				c17.92-12,35.85-24.01,53.77-36.01c-14.27-26.02-33.94-49.14-57.43-67.51c-7.47,33.28-26.16,64-52.4,86.16"/>
			<g>
				<path class="st10" d="M1016.53,1149.34c-4.51,9.45-3.11,19.21,4.74,26.43c9.03,8.31,21.13,8.22,32.08,3.97
					c12.89-5,24.19-13.93,35.59-21.57c12.76-8.55,25.53-17.1,38.29-25.64c2.97-1.99,5.8-6.38,3.82-9.95
					c-14.63-26.44-34.47-49.51-58.19-68.2c-3.3-2.6-7.07,4.42-7.57,6.58c-7.24,31.46-24.7,59.72-49.22,80.65
					c-2.02,1.73-4.14,5.4-3.14,8.14c1,2.74,3.74,2.22,5.61,0.63c27.83-23.74,47.38-56.03,55.58-91.66
					c-2.52,2.19-5.04,4.38-7.57,6.58c23.18,18.26,42.39,41,56.67,66.81c1.27-3.32,2.55-6.63,3.82-9.95
					c-20.07,13.44-39.84,27.56-60.36,40.29c-8.52,5.29-19.48,11.05-29.82,8.03c-3.96-1.16-7.7-3.67-10.35-6.82
					c-2.04-2.44-5.06-7.19-3.47-10.52c0.94-1.97,2.45-5.86-0.12-7.35C1020.58,1144.41,1017.44,1147.43,1016.53,1149.34
					L1016.53,1149.34z"/>
			</g>
		</g>
		<g>
			<path class="st9" d="M1061.74,1264.67c5.26,20.21,10.51,40.42,15.77,60.64c1.03,3.97,2.28,8.26,5.63,10.68
				c4.24,3.06,10.11,1.96,15.17,0.59c44.46-12.01,85.82-35.06,119.22-66.43c-15.07-27.61-30.13-55.21-45.2-82.82
				c-36.81,24.09-73.62,48.17-110.43,72.26"/>
			<g>
				<path class="st10" d="M1057.37,1268.42c4.43,17.05,8.87,34.11,13.3,51.16c1.64,6.32,2.56,14.69,7.06,19.79
					c4.64,5.24,11.73,4.74,17.97,3.27c29-6.85,57.36-20.23,82.3-36.34c14.5-9.37,28.14-19.98,40.76-31.76
					c2.32-2.17,4.37-6.03,2.67-9.14c-15.07-27.61-30.13-55.21-45.2-82.82c-0.76-1.39-2.9-1.16-3.99-0.44
					c-36.81,24.09-73.62,48.17-110.43,72.26c-2.47,1.62-4.61,4.62-4.45,7.72c0.13,2.5,2.24,4.24,4.63,2.67
					c36.81-24.09,73.62-48.17,110.43-72.26c-1.33-0.15-2.66-0.29-3.99-0.44c15.07,27.61,30.13,55.21,45.2,82.82
					c0.89-3.05,1.78-6.1,2.67-9.14c-26.18,24.44-56.98,43.85-90.49,56.58c-8.13,3.09-16.41,5.82-24.8,8.13
					c-4.11,1.13-9.29,2.89-13.4,0.86c-3.74-1.85-4.73-6.09-5.72-9.78c-5.44-20.16-10.51-40.43-15.77-60.64
					C1064.52,1254.8,1056.18,1263.86,1057.37,1268.42L1057.37,1268.42z"/>
			</g>
		</g>
		<g>
			<path class="st9" d="M1115.45,1418.57c1.03,29.45,18.83,58.1,45.62,71.1c26.79,13,61.5,9,83.62-10.79
				c19-16.99,27.51-43.33,26.96-68.63c-0.55-25.3-9.27-49.78-20.27-72.64c-44.2,28.99-90.67,54.62-138.86,76.56"/>
			<g>
				<path class="st10" d="M1110.91,1421.09c1.96,44.07,37.38,82.47,82.62,81.86c21.9-0.3,42.94-9.04,57.91-25.13
					c15.45-16.6,23.26-39.16,24.58-61.54c1.73-29.18-8.35-57.49-20.74-83.42c-0.68-1.43-2.95-1.12-3.99-0.44
					c-44.28,28.99-90.71,54.58-138.86,76.56c-4.41,2.02-6.63,13.5,0.17,10.39c48.15-21.98,94.58-47.57,138.86-76.56
					c-1.33-0.15-2.66-0.29-3.99-0.44c17.9,37.46,31.98,88.01,3.37,124.22c-24.87,31.48-73.97,31.98-103.25,6.64
					c-16.47-14.25-26.63-35.47-27.6-57.18c-0.12-2.75-2.22-3.85-4.63-2.67C1112.82,1414.62,1110.78,1418.27,1110.91,1421.09
					L1110.91,1421.09z"/>
			</g>
		</g>
		<g>
			<path class="st9" d="M804.49,1573.04c-3.78,10.5-3.3,22.12,2.75,27.33c8.12,7,20.5,6.23,31.15,4.54
				c10.65-1.69,21.32-4.73,32.03-3.43c8.95,1.09,18.43,5.1,26.53,1.18c6.12-2.96,9.45-9.88,9.94-16.59
				c0.48-6.71-1.4-13.34-3.26-19.81c-32.78,0.2-65.55,0.4-98.33,0.6"/>
			<g>
				<path class="st10" d="M800.49,1572.67c-4.18,12.37-5.59,29.71,8.41,36.25c13.84,6.47,30.26,0.95,44.4-1.18
					c9.51-1.43,17.53,0.14,26.83,1.7c7.2,1.2,14.56,0.81,20.49-3.89c13.57-10.77,11.59-28.3,7.36-43.04
					c-0.26-0.92-1.12-2.01-2.2-2.01c-32.78,0.2-65.55,0.4-98.33,0.6c-4.91,0.03-9.71,11.56-4.33,11.53
					c32.78-0.2,65.55-0.4,98.33-0.6c-0.73-0.67-1.47-1.34-2.2-2.01c2.78,9.72,7.77,28.35-8.08,28.56
					c-6.3,0.08-12.39-2.12-18.59-2.86c-6.33-0.76-12.76-0.03-19.02,1c-11.21,1.85-23.24,5.49-34.6,2.61
					c-12.6-3.19-14.18-14.94-10.47-25.91C811.16,1565.49,802.58,1566.48,800.49,1572.67L800.49,1572.67z"/>
			</g>
		</g>
		<g>
			<path class="st9" d="M809.99,1654.4c-7.56,4.3-2.99,17.08,5.28,19.82c8.28,2.74,17.17-0.61,25.62-2.76
				c19.91-5.06,41.55-3.24,60.31,5.06c0.7-11.45,1.4-22.91,2.1-34.36c-31.99,1.65-63.98,3.3-95.98,4.94"/>
			<g>
				<path class="st10" d="M809.9,1649.21c-7.17,4.74-10.31,13.5-6.77,21.53c4.12,9.36,13.62,11.17,22.95,9.75
					c5.83-0.89,11.41-2.93,17.17-4.15c5.97-1.27,12.04-1.92,18.14-1.91c12.64,0.01,25.06,2.56,36.66,7.56
					c4.31,1.85,7.49-4.65,7.69-7.98c0.7-11.45,1.4-22.91,2.1-34.36c0.08-1.28-0.79-3.32-2.37-3.24c-31.99,1.65-63.98,3.3-95.98,4.94
					c-4.89,0.25-9.59,11.8-4.33,11.53c31.99-1.65,63.98-3.3,95.98-4.94c-0.79-1.08-1.58-2.16-2.37-3.24
					c-0.7,11.45-1.4,22.91-2.1,34.36c2.56-2.66,5.13-5.32,7.69-7.98c-16.97-7.31-35.48-9.81-53.77-7.01
					c-9.22,1.41-18.7,6.09-28.11,5.38c-3.88-0.29-7.23-1.54-9.58-4.73c-0.91-1.23-1.64-2.59-1.98-4.09
					c-0.49-2.19,0.55-1.93-0.84-1.01c2.47-1.63,4.61-4.61,4.45-7.72C814.4,1649.39,812.29,1647.63,809.9,1649.21L809.9,1649.21z"/>
			</g>
		</g>
		<g>
			<path class="st9" d="M468.13,1591.76c-8.94,5.2-7.04,19.68,0.99,26.17c12.61,10.18,51.36,3.63,69.92,1.62
				c13.74-1.48,7.61-19.36,8.86-34.68c-25.94-0.41-51.88-0.82-77.83-1.23"/>
			<g>
				<path class="st10" d="M468.04,1586.57c-9.81,6.38-13,19-7.89,29.48c4.53,9.29,14.02,11.97,23.6,12.84
					c11.62,1.06,23.44-0.12,35-1.39c5.28-0.58,10.55-1.27,15.83-1.89c5.05-0.6,9.5-1.54,12.97-5.61
					c8.66-10.16,4.07-25.59,4.89-37.64c0.09-1.36-0.8-3.22-2.37-3.24c-25.94-0.41-51.88-0.82-77.83-1.23
					c-4.91-0.08-9.76,11.44-4.33,11.53c25.94,0.41,51.88,0.82,77.83,1.23c-0.79-1.08-1.58-2.16-2.37-3.24
					c-0.4,5.89,0.13,11.75,0.28,17.64c0.06,2.44,0.12,4.9-0.35,7.31c-0.13,0.67-0.67,1.31,0.08,0.62c-0.53,0.49-1.45,0.61-2.1,0.76
					c-4.52,1.05-9.5,1.17-14.11,1.72c-5.47,0.66-10.94,1.28-16.43,1.7c-10.21,0.78-21.34,1.55-31.34-1.22
					c-4.29-1.19-7.93-3.37-10.29-7.26c-1.57-2.59-4.33-9.48-0.89-11.71c2.48-1.61,4.61-4.63,4.45-7.72
					C472.54,1586.74,470.43,1585.02,468.04,1586.57L468.04,1586.57z"/>
			</g>
		</g>
		<g>
			<path class="st9" d="M464.2,1660.97c-1.41,8.35-2.81,16.7-4.22,25.04c28-3.99,56.75-2.79,84.31,3.53
				c5.15-12.39-1.61-30.65-6.75-31.83c-11.83-2.71-21.22-0.26-33.91,1.62c-12.69,1.88-29.82-0.71-41.64-5.65"/>
			<g>
				<path class="st10" d="M459.79,1662.09c-1.41,8.35-2.81,16.7-4.22,25.04c-0.42,2.48,0.44,4.94,3.35,4.54
					c27.74-3.84,55.9-2.51,83.21,3.63c2.75,0.62,5.41-3.41,6.16-5.39c3.28-8.67,3.08-18.55-0.09-27.24
					c-1.13-3.1-2.57-6.44-5.02-8.74c-3.05-2.86-8-2.95-11.97-3.14c-11.12-0.52-21.81,3.14-32.85,3.37
					c-11.23,0.24-22.79-1.73-33.21-5.94c-4.9-1.98-10.88,9.06-6.3,10.91c8.65,3.49,17.89,5.6,27.19,6.32
					c9.87,0.76,19.16-1.03,28.89-2.39c6.28-0.88,18.7-3.21,22.66,3.15c3.97,6.38,5.39,15.9,2.72,22.96c2.05-1.8,4.11-3.59,6.16-5.39
					c-28.08-6.32-56.91-7.38-85.41-3.43c1.12,1.51,2.23,3.03,3.35,4.54c1.41-8.35,2.81-16.7,4.22-25.04
					c0.4-2.39-0.49-5.05-3.35-4.54C462.46,1655.8,460.22,1659.53,459.79,1662.09L459.79,1662.09z"/>
			</g>
		</g>
		<g>
			<path d="M490.07,595.55c-1.03,25.24-12.75,85.49-6.23,138.75c1.81,14.8,480.93,0.34,480.93-25.42c0-49.53,15.12-90.9-9.39-120.16
				c-19.84-23.68-302.83,0.27-464.31,5.89"/>
			<g>
				<path d="M484.61,598.58c-0.57,12.7-2.46,25.36-3.85,37.98c-1.93,17.54-3.56,35.13-4.13,52.77c-0.31,9.62-0.31,19.26,0.15,28.87
					c0.21,4.37,0.52,8.73,0.94,13.08c0.22,2.31,0.03,5.62,0.94,7.77c1.13,2.67,3.29,3.36,5.92,4.07c7.07,1.89,14.72,2.14,21.98,2.59
					c13.06,0.81,26.16,1.1,39.25,1.28c37.41,0.52,74.84-0.09,112.24-1.08c43.05-1.14,86.09-2.9,129.08-5.4
					c37.51-2.19,75.04-4.79,112.37-9.12c13.06-1.52,26.14-3.21,39.05-5.73c7.64-1.49,16.16-2.99,23.03-6.88
					c3.51-1.99,6.45-4.93,7.86-8.78c2.03-5.54,0.86-12.49,1.15-18.26c0.44-8.9,1.27-17.78,2.1-26.65
					c1.5-16.06,3.33-32.39,1.19-48.47c-1.59-11.95-5.71-26.22-14.9-34.7c-6.98-6.44-19.84-7.09-28.73-8.07
					c-18.6-2.04-37.41-2.28-56.1-2.33c-54.69-0.14-109.4,2.62-164,5.38c-59.4,3-118.78,6.55-178.2,9.22
					c-12.76,0.57-25.52,1.1-38.29,1.55c-3.55,0.12-6.25,3.33-7.4,6.48c-0.71,1.94-1.41,7.5,2.2,7.37
					c55.81-1.95,111.57-5.22,167.34-8.2c56.89-3.04,113.8-6.12,170.76-7.45c22.51-0.52,45.05-0.81,67.56-0.12
					c14.88,0.46,30.14,0.95,44.76,4.04c4.51,0.95,6.7,1.48,10.78,3.8c0.87,0.49,1.31,1.1,0.73,0.5c2.08,2.17,3.81,4.85,5.35,7.43
					c3.45,5.75,5.56,12.16,6.8,18.73c2.85,15.03,1.1,30.85-0.31,45.94c-0.82,8.81-1.68,17.62-2.25,26.45
					c-0.3,4.63-0.52,9.27-0.61,13.92c-0.02,1.13-0.58,4.53-0.06,5.39c-0.23-0.38,0.49-2.68,0.53-2.78
					c-0.23,0.64,1.15-2.26,0.61-1.29c0.05-0.09,1.5-2.08,0.75-1.13c0.22-0.28,1.43-1.6,0.26-0.4c0.73-0.75,1.29-0.67,0.01-0.09
					c-0.58,0.26-1.16,0.58-1.73,0.87c-1.71,0.87,0.72-0.21-0.69,0.29c-0.81,0.28-1.61,0.58-2.42,0.85c-1.8,0.59-3.63,1.09-5.46,1.56
					c-10.53,2.7-21.35,4.32-32.11,5.81c-33.65,4.66-67.61,7.21-101.5,9.46c-41.74,2.77-83.55,4.71-125.36,6.1
					c-38.87,1.3-77.76,2.15-116.66,2.12c-25.27-0.02-50.93,0.31-76.09-2.46c-2.99-0.33-5.93-0.78-8.87-1.38
					c-0.56-0.11-2.2-0.78-0.47-0.08c-0.29-0.12-0.82-0.41-1.13-0.43c-2.31-0.1,1.12-0.42,0.16,1c0.87-1.3-0.75-7.44-0.89-9.08
					c-0.37-4.66-0.62-9.33-0.76-14c-0.29-9.31-0.17-18.63,0.22-27.93c0.71-16.99,2.39-33.92,4.3-50.81
					c1.34-11.84,2.98-23.71,3.52-35.63c0.15-3.37-2.87-4.55-5.56-3.21C486.68,590.93,484.77,595.09,484.61,598.58L484.61,598.58z"/>
			</g>
		</g>
		<g>
			<g>
				<path d="M455.45,575.11c-4.3,41.3-8.82,82.58-12.42,123.95c-1.44,16.59-3.71,33.92-2.06,50.59c0.71,7.21,2.57,13.74,7.56,19.16
					c5.45,5.92,16.05,5.96,23.5,6.68c41.43,4.03,83.67,2.64,125.22,1.85c58.23-1.11,116.44-3.52,174.58-6.88
					c50.83-2.93,101.75-6.29,152.33-12.26c15.1-1.78,30.39-3.54,45.19-7.12c3.98-0.96,8.21-2.03,11.81-4.06
					c6.04-3.4,8.81-10.39,10.66-16.72c3.2-10.97,4.64-22.42,5.81-33.75c1.54-14.95,2.43-29.96,2.88-44.97
					c0.84-28.01,1.09-56.83-3.53-84.56c-0.99-5.92-2.08-15.63-7.4-19.51c-3.18-2.32-8.03-2.8-11.81-3.35
					c-18.24-2.63-37.04-2.45-55.42-2.54c-65.23-0.33-130.52,2.6-195.66,5.77c-71.66,3.49-143.29,7.83-214.82,13.34
					c-14.02,1.08-28.04,2.22-42.05,3.44c-3.57,0.31-6.21,3.2-7.4,6.48c-0.66,1.8-1.42,7.69,2.2,7.37
					c65.96-5.75,132.06-10,198.16-13.7c69.21-3.88,138.5-7.18,207.82-8.47c24.93-0.46,49.9-0.76,74.82,0.14
					c7.94,0.29,15.9,0.67,23.8,1.58c2.7,0.31,5.41,0.67,8.07,1.25c0.6,0.13,3.42,0.99,1.88,0.43c0.7,0.25,1.38,0.61,2.08,0.85
					c0.24,0.09,0.44,0.29,0.66,0.42c0.74,0.44-0.92-1.24-0.15-0.08c0.92,1.4,1.32,2.13,1.47,2.52c1.4,3.56,2.22,7.32,2.9,11.07
					c2.09,11.4,2.76,23.11,3.26,34.68c1.28,29.47,0.73,59.28-2.17,88.64c-1.09,11.05-2.37,22.26-5.26,33
					c-0.31,1.13,0.5-1.61-0.04,0.12c-0.16,0.51-0.31,1.02-0.48,1.52c-0.26,0.77-0.56,1.52-0.83,2.28c-0.1,0.28-0.24,0.54-0.34,0.82
					c-0.45,1.22,1.13-0.93,0.17-0.35c-0.12,0.07-0.26,0.51-0.36,0.65c-1.12,1.58,1.05-1.19,0.24-0.28
					c-1.11,1.24,1.26-1.12,0.47-0.44c-0.92,0.8,1.39-0.8,0.71-0.47c-0.57,0.27-1.15,0.61-1.7,0.91c-1.44,0.8,1.09-0.28-0.91,0.35
					c-0.96,0.3-1.9,0.63-2.87,0.92c-2.31,0.68-4.66,1.23-7.01,1.75c-6.66,1.46-13.39,2.55-20.13,3.55
					c-44.49,6.59-89.58,9.63-134.42,12.61c-57.53,3.82-115.15,6.54-172.79,8.24c-47.05,1.38-94.29,2.56-141.35,0.59
					c-12.38-0.52-25.34-0.73-37.46-3.58c-0.79-0.19-1.57-0.39-2.35-0.62c1.76,0.53-0.5-0.24-1-0.43c-0.46-0.18-0.84-0.48-1.27-0.72
					c-0.87-0.47,0.64,0.63,0.4,0.39c-0.27-0.27-0.54-0.57-0.78-0.86c-0.81-1-1.69-1.93-2.43-2.99c-0.35-0.5-0.66-1.01-0.99-1.52
					c-0.55-0.85-0.98-2.04-0.48-0.82c-0.6-1.46-1.09-2.92-1.44-4.46c-0.21-0.9-0.35-1.81-0.51-2.72c-0.07-0.39,0.13,1.34-0.03-0.26
					c-0.06-0.64-0.13-1.27-0.19-1.91c-0.52-6.27-0.32-12.6-0.04-18.88c1.21-27.29,4.35-54.53,7.11-81.7
					c2.36-23.21,4.78-46.42,7.2-69.62C467.09,562.56,456.13,568.55,455.45,575.11L455.45,575.11z"/>
			</g>
		</g>
		<g>
			<path class="st3" d="M714.89,726.63c3.15-43.84,46.73-92.77,93.13-96.34s94.02,42.18,104.65,84.96"/>
			<g>
				<path d="M720.34,723.6c2.73-33.84,29.24-65.18,59.16-79.24c16.05-7.54,33.73-9.3,50.85-4.59c17.57,4.83,33.68,15.69,46.41,28.51
					c14.18,14.28,25.6,31.86,30.64,51.47c0.89,3.47,4.68,2.42,6.74,0.76c2.63-2.13,4.65-6.37,3.77-9.78
					c-9.75-37.91-42.09-72.58-79.62-84.01c-39.77-12.11-79.32,10.68-103.47,41.6c-13.84,17.72-23.57,38.78-25.39,61.34
					c-0.27,3.4,2.95,4.51,5.56,3.21C718.36,731.2,720.06,727.12,720.34,723.6L720.34,723.6z"/>
			</g>
		</g>
		<g>
			<g>
				<path d="M362.04,665.31c-0.01,36.27-0.82,72.54-1.1,108.81c-0.24,30.14-1.36,60.54,5.67,90.09
					c5.83,24.5,16.84,48.77,35.04,66.58c9.52,9.32,20.95,18.07,34.09,21.36c17.53,4.39,35.99,5.91,53.91,7.77
					c30.34,3.15,60.78,5.38,91.22,7.22c37.85,2.29,75.73,3.9,113.64,4.87c39.79,1.01,79.62,1.33,119.42,0.61
					c37.04-0.67,74.09-2.2,110.98-5.55c28.63-2.6,57.55-5.99,85.4-13.37c17.08-4.52,37.92-10.78,48.92-25.74
					c6.34-8.61,10.09-18.91,13.03-29.1c4.04-13.97,6.71-28.28,8.78-42.66c5.38-37.47,7.17-75.52,7.34-113.34
					c0.19-40.76-1.66-81.62-6.4-122.12c-3.87-33.07-8.91-67.14-20.98-98.36c-4-10.34-8.84-21.05-16.36-29.35
					c-5.8-6.41-13.25-10.61-21.08-14.07c-25.05-11.07-52.86-16.52-79.7-21.2c-38.27-6.67-77.03-10.61-115.79-13.01
					c-44.29-2.74-88.75-3.34-133.1-1.59c-43.2,1.71-86.47,5.56-129.05,13.25c-36.28,6.56-72.74,15.81-106.08,31.88
					c-40.35,19.44-72.41,52.12-87.03,94.97c-8.67,25.41-11.29,52.41-10.39,79.13c0.11,3.3,2.69,4.63,5.56,3.21
					c3.08-1.53,5.47-5.86,5.35-9.27c-0.9-26.39,1.63-53.16,11.16-77.96c8.73-22.71,23.43-42.27,42.47-57.37
					c25.66-20.34,58.53-32.21,90.24-40.74c38.96-10.48,79.17-16.32,119.31-19.89c43.36-3.85,86.97-4.94,130.48-4.06
					c41.21,0.84,82.42,3.45,123.35,8.31c32.38,3.84,64.9,8.83,96.39,17.45c17.22,4.71,39.16,10.77,50.25,24.47
					c6.97,8.62,11.42,18.94,15.11,29.27c5.11,14.29,8.71,29.11,11.66,43.97c7.34,36.91,10.72,74.61,12.48,112.16
					c1.85,39.63,1.71,79.42-0.95,119.01c-1.14,16.89-2.78,33.76-5.27,50.51c-1.09,7.33-2.35,14.64-3.88,21.9
					c-0.67,3.2-1.4,6.39-2.19,9.56c-0.36,1.44-0.73,2.87-1.12,4.3c-0.4,1.49-0.29,1.11-0.93,3.21c-1.49,4.9-3.23,9.7-5.32,14.39
					c-0.57,1.27,0.74-1.42-0.09,0.17c-0.25,0.49-0.5,0.99-0.76,1.47c-0.49,0.92-1.03,1.82-1.55,2.72c-0.21,0.37-0.46,0.71-0.68,1.07
					c-0.68,1.14,1.13-1.42,0.11-0.16c-0.55,0.69-1.1,1.39-1.65,2.08c-1.35,1.71,0.55-0.38-0.51,0.55c-0.63,0.55-1.23,1.14-1.88,1.67
					c-0.63,0.52-1.28,1.01-1.93,1.51c-1.25,0.97,0.9-0.59-0.06,0.05c-0.39,0.26-0.78,0.53-1.18,0.79
					c-3.49,2.23-7.17,4.13-10.96,5.79c-2.29,1.01-2.72,1.18-5.56,2.23c-2.36,0.87-4.75,1.68-7.15,2.44
					c-5.44,1.72-10.95,3.2-16.5,4.52c-13.03,3.1-26.26,5.37-39.52,7.24c-32.96,4.65-66.24,6.91-99.47,8.34
					c-38.21,1.65-76.47,2.05-114.71,1.74c-38.62-0.32-77.23-1.39-115.81-3.11c-33.92-1.51-67.82-3.51-101.67-6.22
					c-24.31-1.95-48.65-4.11-72.79-7.58c-7.02-1.01-14.08-2.06-20.97-3.75c-1.11-0.27-2.2-0.56-3.3-0.89
					c1.43,0.42-0.73-0.25-1.46-0.56c-10.02-4.21-19.42-11.32-26.99-19.03c-17.67-18.01-27.94-41.77-33.27-66.15
					c-6.33-29-4.71-59.14-4.44-88.62c0.31-34.63,1.05-69.26,1.06-103.89c0-3.34-2.77-4.6-5.56-3.21
					C364.22,657.61,362.04,661.87,362.04,665.31L362.04,665.31z"/>
			</g>
		</g>
		<g>
			<g>
				<path d="M368.9,618.26c-31.06,0.06-63.65,3.06-91.84,17.14c-26.06,13.01-44.09,36.06-51.3,64.18
					c-3.82,14.91-4.34,30.63-3.97,45.96c0.28,11.32,1.31,22.89,4.53,33.79c5.44,18.4,17.92,31.96,35.93,38.66
					c12.77,4.75,26.4,6.68,39.93,7.64c19.39,1.38,38.89,0.8,58.29-0.14c3.55-0.17,6.24-3.29,7.4-6.48c0.69-1.9,1.41-7.55-2.2-7.37
					c-28.47,1.38-58.5,2.89-86.45-3.93c-16.58-4.04-31.68-12.73-39.16-28.65c-3.93-8.35-5.74-17.74-6.62-26.87
					c-1.2-12.49-1.28-25.41-0.09-37.9c2.45-25.75,13.87-48.55,36.36-62.23c27.72-16.85,62.27-19.88,93.98-19.93
					C369.59,632.1,375.37,618.25,368.9,618.26L368.9,618.26z"/>
			</g>
		</g>
		<g>
			<g>
				<path d="M301.04,629.38c-23.95,46.73-28.75,104.39-16.71,155.21c3.27,13.79,8.07,27.13,14.57,39.73
					c1.64,3.18,6.13-0.19,7.48-1.79c2.19-2.59,3.54-6.49,1.91-9.65c-14.17-27.5-19.36-59.29-19.13-89.98
					c0.23-30.35,5.81-61.79,19.74-88.98c1.2-2.34,2.9-7.07-0.15-8.83C305.86,623.42,302.19,627.12,301.04,629.38L301.04,629.38z"/>
			</g>
		</g>
		<g>
			<g>
				<path d="M196.09,736.94c9.57-0.55,18.93-2.83,28.49-3.38c3.56-0.2,6.23-3.27,7.4-6.48c0.68-1.88,1.41-7.58-2.2-7.37
					c-9.57,0.55-18.93,2.83-28.49,3.38c-3.56,0.2-6.23,3.27-7.4,6.48C193.21,731.44,192.48,737.14,196.09,736.94L196.09,736.94z"/>
			</g>
		</g>
		<g>
			<path class="st11" d="M198.7,730.01c0-44.87-46.07-44.87-46.07-7.67c0,64.31,50.27,47.32,46.07,10.34"/>
			<g>
				<path d="M204.16,726.98c-0.16-15.34-5.88-33.91-22.69-37.98c-14.44-3.49-27.03,8.05-31.69,20.8
					c-3.44,9.42-2.99,19.88-1.66,29.67c1.11,8.13,3.26,16.61,8.19,23.35c6.91,9.45,18.43,12.16,28.76,6.61
					c13.88-7.45,20.64-24.67,19.09-39.79c-0.91-8.94-11.51,0.23-10.92,6.06c0.5,4.94,0,9.61-1.43,13.41c-1.01,2.68-2.78,5.12-5.52,7
					c-4.99,3.43-12.86,3.43-18.42-2.12c-9.06-9.05-11.07-26.44-9.58-38.46c0.25-2.02,1.11-5.21,1.62-6.26
					c1.04-2.15,1.77-3.11,3.51-4.39c2.6-1.91,6.72-2.99,10.71-2.44c14.28,1.97,18.98,18.4,19.11,30.6c0.04,3.33,2.74,4.61,5.56,3.21
					C201.95,734.7,204.19,730.41,204.16,726.98L204.16,726.98z"/>
			</g>
		</g>
		<g>
			<path class="st12" d="M1314.66,688.37c0-44.87-46.07-44.87-46.07-7.67c0,64.31,50.27,47.32,46.07,10.34"/>
			<g>
				<path d="M1320.12,685.34c-0.16-15.34-5.88-33.91-22.69-37.98c-14.44-3.49-27.03,8.05-31.69,20.8
					c-3.44,9.42-2.99,19.88-1.66,29.67c1.11,8.13,3.26,16.61,8.19,23.35c6.91,9.45,18.43,12.16,28.76,6.61
					c13.88-7.45,20.64-24.67,19.09-39.79c-0.91-8.94-11.51,0.23-10.92,6.06c0.5,4.94,0,9.61-1.43,13.41c-1.01,2.68-2.78,5.12-5.52,7
					c-4.99,3.43-12.86,3.43-18.42-2.12c-9.06-9.05-11.07-26.44-9.58-38.46c0.25-2.02,1.11-5.21,1.62-6.26
					c1.04-2.15,1.77-3.11,3.51-4.39c2.6-1.91,6.72-2.99,10.71-2.44c14.28,1.97,18.98,18.4,19.11,30.6c0.04,3.33,2.74,4.61,5.56,3.21
					C1317.91,693.05,1320.15,688.77,1320.12,685.34L1320.12,685.34z"/>
			</g>
		</g>
		<g>
			<g>
				<path d="M1072.03,613.45c20.81-3.74,42.49-4.58,63.55-3.13c25.33,1.75,55.66,7.22,72.83,27.86
					c10.04,12.06,11.87,26.28,12.07,41.5c0.23,17.61-1.29,35.76-7.84,52.26c-4.49,11.31-11.1,20.39-20.91,27.69
					c-8.67,6.46-19.65,10.64-30.4,13.19c-24.89,5.91-50.5,4.05-75.8,5.89c-3.56,0.26-6.22,3.24-7.4,6.48
					c-0.67,1.84-1.42,7.63,2.2,7.37c24.06-1.74,48.31-0.3,72.14-4.79c26.65-5.02,50.39-18.63,63.98-42.75
					c8.88-15.76,12.83-33.65,14.3-51.54c1.48-17.99,2.31-38.27-5.56-55.01c-12.5-26.6-43-36.79-70.12-40.55
					c-26.37-3.66-54.26-2.82-80.47,1.9C1069.04,600.84,1064.37,614.83,1072.03,613.45L1072.03,613.45z"/>
			</g>
		</g>
		<g>
			<g>
				<path d="M1114.96,612.36c10.62,17.11,15.27,38.07,18.75,57.65c4.08,23,5.9,46.64,4.89,70c-0.44,10.12-1.39,20.9-4.12,30.47
					c-0.72,2.52-1.39,6.79,2.2,7.37c3.21,0.52,6.65-3.85,7.4-6.48c6.01-21.07,6.36-43.63,5.26-65.37
					c-1.26-24.87-4.74-50.05-11.83-73.96c-3.2-10.77-7.21-21.53-13.16-31.12C1120.91,595.39,1111.83,607.32,1114.96,612.36
					L1114.96,612.36z"/>
			</g>
		</g>
		<g>
			<g>
				<path d="M1226.09,688.63c13.3,0.56,26.6,0.8,39.9,1.36c5.89,0.25,11.79-13.58,5.21-13.85c-13.3-0.56-26.6-0.8-39.9-1.36
					C1225.41,674.53,1219.51,688.35,1226.09,688.63L1226.09,688.63z"/>
			</g>
		</g>
		<g>
			<path class="st13" d="M560.86,961.91c-97.5,144.43-198.2,298.24-203.46,469.43c-1.47,47.86,7.99,101.55,48.66,130.16
				c35.25,24.79,83.23,23.36,127.11,20.85c122.97-7.05,245.93-14.1,368.9-21.15c37.87-2.17,78.43-5.29,107.95-27.79
				c25.94-19.77,38.71-51.81,40.96-83.21s-4.86-62.67-12.46-93.32c-33.56-135.23-75.71-258.34-119.9-390.82"/>
			<g>
				<path d="M556.93,959.64c-34.63,51.3-69.05,102.84-99.94,156.51c-30.53,53.05-57.84,108.38-77.03,166.61
					c-18.11,54.95-30.35,114.16-27.91,172.28c1.05,25.15,5.56,50.51,16.73,73.24c11.31,23.01,30.22,41.19,54.03,50.9
					c26.06,10.63,54.77,11.98,82.56,11.23c33.01-0.89,66.02-3.48,98.99-5.37c70.12-4.02,140.25-8.04,210.37-12.06
					c33.69-1.93,67.44-3.43,101.1-5.9c27.92-2.05,56.75-5.7,81.71-19.3c24.58-13.4,42.16-36.34,51.27-62.59
					c10.22-29.48,9.36-60.83,4.11-91.22c-5.75-33.31-15.15-66.16-23.99-98.75c-8.72-32.14-18-64.13-27.69-95.99
					c-19.34-63.61-40.29-126.72-61.36-189.78c-5.33-15.97-10.68-31.94-16-47.91c-2.44-7.32-12.31,3.63-10.51,9.03
					c20.59,61.72,41.41,123.36,61.09,185.38c19.59,61.72,37.99,123.83,54.05,186.57c13.95,54.48,34.12,123.87-6.17,172.43
					c-17.62,21.23-44.25,30.43-70.69,34.81c-30.22,5.01-61.3,5.33-91.83,7.08c-67.8,3.89-135.59,7.77-203.39,11.66
					c-33.9,1.94-67.8,3.89-101.7,5.83c-28.75,1.65-57.81,4.11-86.53,0.81c-26.14-3-52.28-11.69-71.01-30.96
					c-16.89-17.38-26.14-40.25-30.7-63.75c-4.97-25.58-4.37-52-2.11-77.85c2.52-28.87,7.85-57.51,15.24-85.52
					c14.96-56.73,38.8-110.88,66.42-162.5c28.38-53.06,60.87-103.8,94.22-153.83c8.14-12.21,16.34-24.39,24.55-36.55
					c1.47-2.17,2.72-7.17-0.15-8.83C561.56,953.57,558.35,957.53,556.93,959.64L556.93,959.64z"/>
			</g>
		</g>
		<g>
			<path class="st14" d="M499.38,1111.12c-15.7,149.1-30.47,347.67,1.25,393.81c34.21,49.77,414.45,24.65,444.3-4.82
				c23.84-23.53,20.48-392.43-29.06-427.17c-24.49-17.18-249.03-9.88-322.39-6.81c-33.92,1.42-92.86,9.25-92.86,41.33"/>
			<g>
				<path d="M493.01,1112.74c-9.94,94.55-19.32,190.12-17.52,285.31c0.35,18.47,1.2,36.97,3.33,55.33c1.66,14.3,3.8,28.85,8.55,42.5
					c2.81,8.08,6.37,16.17,13.2,21.61c5.69,4.53,12.73,7.26,19.58,9.49c21.98,7.17,45.4,9.8,68.34,11.7
					c30.64,2.54,61.43,3.11,92.16,2.81c62.75-0.6,125.9-4.39,188.03-13.38c20.06-2.9,40.62-5.98,59.9-12.44
					c6.06-2.03,12.52-4.39,17.44-8.61c4.83-4.14,7.45-10.16,9.23-16.13c5.6-18.75,6.85-38.93,8.18-58.34
					c1.97-28.61,2.49-57.33,2.36-86c-0.29-63.47-3.34-127.47-13.09-190.25c-3.53-22.69-7.63-46.08-16.38-67.43
					c-2.84-6.93-6.15-14.18-11.32-19.72c-4.87-5.2-10.69-7.15-17.53-8.67c-25.55-5.69-52.83-5.66-78.87-6.31
					c-36.65-0.91-73.34-0.64-110,0c-33.34,0.58-66.68,1.53-100.01,2.76c-32.24,1.19-66.95,1.28-96.57,15.67
					c-15.23,7.4-27.63,20.79-27.95,38.47c-0.07,3.98,3.37,5.54,6.67,3.85c3.85-1.97,6.34-6.92,6.42-11.12
					c0.01-0.61,0.44-3.59,0.28-3.01c0.2-0.7,0.47-1.39,0.75-2.06c0.64-1.52-1.04,1.86,0.32-0.57c1.35-2.43-1.11,1.29,0.59-0.96
					c0.54-0.72,1.13-1.43,1.75-2.08c-0.75,0.79,0.33-0.3,0.41-0.37c0.93-0.87,1.92-1.71,2.94-2.47c6.22-4.62,13.99-7.52,21.44-9.74
					c17.03-5.08,34.97-7.19,52.67-8.05c27.94-1.35,55.92-2.12,83.89-2.84c36.17-0.94,72.36-1.54,108.54-1.42
					c31.64,0.1,63.45,0.39,94.98,3.28c9.69,0.89,19.47,1.95,28.9,4.4c2.25,0.59,0.97,0.14,3.35,1.12c1.13,0.46,2.22,0.99,3.24,1.66
					c0.5,0.33,0.96,0.72,1.43,1.09c1.25,0.97-0.66-0.74,0.46,0.42c1.07,1.11,2.08,2.27,3.01,3.5c5,6.66,7,11.93,9.72,19.48
					c3.55,9.88,6.18,20.08,8.44,30.32c12.71,57.59,15.95,117.63,17.72,176.42c0.91,30.27,1.06,60.58,0.15,90.85
					c-0.4,13.14-0.99,26.28-1.94,39.39c-0.72,10.01-1.5,18.77-3.04,29.62c-0.56,3.92-1.19,7.84-1.97,11.72
					c-0.33,1.65-0.69,3.29-1.09,4.92c-0.2,0.8-0.42,1.6-0.62,2.41c-0.15,0.58-0.52,1.5,0.29-1.03c-0.15,0.47-0.27,0.95-0.43,1.42
					c-0.4,1.15-0.82,2.28-1.23,3.43c-0.46,1.28-1.33,1.31,0.34-0.62c-0.33,0.39-0.49,1.01-0.78,1.44c-1.08,1.61,1.63-2.11,0.57-0.82
					c-1.16,1.41,1.47-1.63,0.77-0.74c-0.27,0.34-0.73,0.67-1.08,0.92c-1.21,0.83,2.02-1.09,0.11-0.1c-1.02,0.53-1.99,1.15-3.02,1.67
					c-0.53,0.26-1.07,0.5-1.61,0.75c-2.2,1.04,0.22-0.02-1.2,0.52c-3.18,1.2-6.4,2.28-9.66,3.23c-8.9,2.6-17.99,4.54-27.09,6.27
					c-56.12,10.66-113.82,14.58-170.82,16.69c-31.55,1.17-63.15,1.48-94.71,0.39c-26.39-0.91-52.95-2.58-79-7.1
					c-15.93-2.76-32.91-5.52-45.82-15.9c-1.15-0.92,0.54,0.71-0.73-0.68c-0.38-0.41-0.77-0.81-1.12-1.25
					c-1.2-1.45-2.18-3.09-3.1-4.73c-2.22-3.96-3.8-8.24-5.32-13.17c-4.13-13.38-6.13-27.39-7.53-41.28
					c-4.04-40.16-3.3-80.83-1.78-121.11c1.78-47.36,5.3-94.66,9.59-141.86c2.05-22.58,4.29-45.15,6.66-67.7
					c0.36-3.41-0.55-7.33-4.83-6.55C497.05,1103.67,493.4,1109.06,493.01,1112.74L493.01,1112.74z"/>
			</g>
		</g>
		<g>
			<path class="st15" d="M518.24,1112.98c-6.05,264.86-3.12,330.41,23.42,369.8c36.3,53.86,358.6,14.29,378.38-7.74
				c21.15-23.55,3.57-360.87-11.02-377.6c-16.22-18.6-278.24,10.28-390.79,10.73"/>
			<g>
				<path d="M510.95,1117.02c-1.89,83.06-4.72,166.46-1.49,249.52c0.86,22.13,2.27,44.31,5.72,66.2
					c2.2,13.93,5.35,27.86,11.06,40.81c5.39,12.23,11.84,22.83,24.13,29.1c18.87,9.62,41.51,12.35,62.31,14.25
					c60.29,5.52,121.9,1.05,181.89-5.87c26.21-3.02,52.41-6.73,78.26-12.05c9.33-1.92,18.66-4.03,27.79-6.8
					c5.89-1.79,12.11-3.73,17.36-7.03c12.43-7.8,14.26-24.62,15.79-37.94c2.65-23.04,3.12-46.35,3.29-69.52
					c0.45-60.15-2.07-120.41-6.44-180.39c-1.74-23.86-3.73-47.74-6.93-71.45c-1.1-8.17-2.23-16.39-4.09-24.43
					c-0.9-3.92-1.88-8.78-4.58-11.9c-3.79-4.36-11.15-5.15-16.49-5.88c-9.56-1.31-19.29-1.54-28.92-1.65
					c-29.9-0.35-59.85,1.23-89.7,2.87c-72.27,3.97-144.44,10.05-216.76,13c-13.81,0.56-27.62,0.99-41.44,1.06
					c-4.73,0.02-8.35,4.54-9.88,8.65c-1.01,2.7-1.85,9.86,2.93,9.84c67.18-0.31,134.39-6.31,201.4-10.62
					c34.23-2.2,68.48-4.35,102.76-5.59c23.28-0.84,47.12-2.05,70.33,0.64c3.27,0.38,6.46,0.98,9.67,1.67
					c1.82,0.39-0.08-0.1,0.45,0.1c0.57,0.22,1.16,0.4,1.72,0.66c0.84,0.39,1.54,0.87,2.31,1.36c-1.67-1.06-0.59-0.64-0.04,0.31
					c0.69,1.2-0.02-0.02-0.18-0.47c0.16,0.44,0.38,0.86,0.52,1.31c0.71,2.22,1.36,4.42,1.88,6.7c0.75,3.26,1.36,6.56,1.92,9.86
					c0.31,1.8,0.59,3.6,0.87,5.4c0.16,1.07,0.32,2.13,0.47,3.2c0.07,0.5,0.14,1,0.21,1.51c0.17,1.22-0.13-0.99,0.15,1.13
					c1.39,10.47,2.53,20.98,3.55,31.5c5.55,57.46,8.32,115.29,9.41,173c0.51,26.85,0.64,53.74-0.43,80.58
					c-0.22,5.54-0.5,11.08-0.87,16.61c-0.16,2.39-0.34,4.79-0.54,7.18c-0.22,2.75,0.06-0.39-0.17,1.93
					c-0.12,1.22-0.24,2.45-0.37,3.67c-0.41,3.79-0.89,7.57-1.52,11.33c-0.28,1.65-0.58,3.3-0.94,4.93
					c-0.28,1.28-1.82,5.67-0.46,2.14c-0.4,1.03-0.75,2.15-1.09,3.2c-0.75,2.31,0.78-1.49,0.43-0.82c-0.22,0.42-0.44,0.83-0.7,1.22
					c2.35-3.46,1.43-1.97,0.8-1.25c2.53-2.85,1.61-1.58,0.88-0.97c-1.43,1.19,1.65-0.68,0.72-0.47c-0.47,0.11-1.08,0.67-1.51,0.91
					c-0.99,0.56-2.03,1.02-3.06,1.51c-0.53,0.25-2.75,1.1-0.23,0.12c-0.77,0.3-1.54,0.6-2.31,0.88c-3.41,1.25-6.88,2.31-10.37,3.29
					c-21.16,5.96-43.03,9.58-64.74,12.83c-58.55,8.76-118.2,13.69-177.43,12.54c-25.09-0.48-50.64-1.85-75.16-7.53
					c-8.57-1.98-15.92-4.08-24.03-8.49c-1.61-0.87-3.18-1.82-4.67-2.87c-0.64-0.45-1.26-0.91-1.87-1.39
					c-0.38-0.31-2.42-2.2-1.13-0.92c-2.07-2.04-3.69-4.33-5.23-6.78c-1.4-2.23-2.7-4.51-3.91-6.84c-0.61-1.18-1.2-2.38-1.77-3.58
					c0.99,2.08-0.04-0.09-0.22-0.52c-0.31-0.73-0.63-1.46-0.94-2.19c-2.44-5.86-4.37-11.93-5.95-18.07
					c-4.62-17.93-6.05-31.99-7.5-50.33c-5.38-68.02-3.16-136.81-1.95-204.94c0.46-25.68,1.01-51.36,1.59-77.04
					c0.1-4.37-3.78-6.25-7.42-4.29C513.82,1106.95,511.06,1112.27,510.95,1117.02L510.95,1117.02z"/>
			</g>
		</g>
		<g>
			<path class="st5" d="M551.62,964.43c-38.2-9.27-78.78-11.85-117.09-2.97c-38.3,8.88-74.14,29.93-95.76,61.07
				c-21.62,31.14-27.46,72.63-11.12,106.51c16.34,33.88,56.08,57.57,95.24,53.07"/>
			<g>
				<path d="M554.22,957.51c-65.31-15.65-139.39-11.22-192.79,33.52c-23.81,19.95-41.17,47.31-46.73,78.07
					c-5.37,29.74,0.95,61.58,20.86,84.85c21.18,24.75,53.56,38.41,86.04,34.97c5.62-0.59,10.4-14.44,2.57-13.61
					c-26.41,2.79-53.65-7.71-72.72-25.93c-20.03-19.14-29.73-46.2-27.4-73.74c4.95-58.54,58.46-96.38,111.93-107.99
					c37.3-8.1,76.14-5.13,113.02,3.7C554.6,972.7,560.99,959.13,554.22,957.51L554.22,957.51z"/>
			</g>
		</g>
		<g>
			<g>
				<path d="M431.71,994.92c-39.34,18.47-63.74,66.61-50.64,108.91c2.27,7.34,12.19-3.59,10.51-9.03
					c-10.82-34.94,7.8-72.12,40.34-87.4C437.19,1004.93,439.85,991.1,431.71,994.92L431.71,994.92z"/>
			</g>
		</g>
		<g>
			<g>
				<path d="M392.77,1132.59c5.9,0,11.68-13.85,5.21-13.85C392.08,1118.74,386.29,1132.59,392.77,1132.59L392.77,1132.59z"/>
			</g>
		</g>
		<g>
			<g>
				<path d="M312.84,1091.6c-45.49,42.99-85.3,91.8-117.97,145.2c-16.17,26.43-30.51,53.98-42.96,82.35
					c-12.85,29.27-25.05,59.98-31.25,91.43c-6.02,30.58-3.94,62.86,14.43,88.98c15.82,22.49,41.12,37.75,68.68,39.79
					c27.8,2.05,56.09-8.46,74.39-29.74c10.08-11.73,16.82-25.96,22.18-40.35c5.93-15.92,10.96-32.21,16.34-48.32
					c23.36-70.05,46.71-140.1,70.07-210.14c2.95-8.83,5.89-17.67,8.84-26.5c0.83-2.5,1.31-6.81-2.2-7.37
					c-3.3-0.53-6.53,3.87-7.4,6.48c-22.09,66.26-44.19,132.52-66.28,198.78c-5.58,16.72-11.15,33.45-16.73,50.17
					c-4.95,14.83-9.45,29.94-15.53,44.36c-5.23,12.41-12.28,24.2-22.86,32.77c-10.08,8.16-22.58,12.99-35.29,15.12
					c-26.33,4.42-53.53-4.19-72.84-22.55c-21.13-20.09-29.96-47.82-27.7-76.59c2.42-30.79,14.38-60.98,25.94-89.34
					c10.97-26.9,23.78-53.02,38.24-78.22c29.35-51.17,65.46-98.55,107.08-140.37c5.19-5.21,10.46-10.33,15.81-15.39
					c2.4-2.26,4.93-6.33,3.77-9.78C318.49,1089.13,314.96,1089.6,312.84,1091.6L312.84,1091.6z"/>
			</g>
		</g>
		<g>
			<g>
				<path d="M265.25,1148.47c21.24,38.63,62.41,67.6,104.76,78.32c5.55,1.4,11.96-12.14,5.21-13.85
					c-40.78-10.32-80.2-38.84-100.58-75.91C271.57,1131.45,262.39,1143.27,265.25,1148.47L265.25,1148.47z"/>
			</g>
		</g>
		<g>
			<g>
				<path d="M214.86,1224.01c37.55,33.62,87.77,54.6,137.71,60.1c5.83,0.64,11.91-13.11,5.21-13.85
					c-49.24-5.41-98.34-26.22-135.35-59.36C218.15,1207.08,210.07,1219.73,214.86,1224.01L214.86,1224.01z"/>
			</g>
		</g>
		<g>
			<g>
				<path d="M160.59,1313.83c41.1,41.4,103.15,67.83,161.88,60.87c5.61-0.66,10.38-14.54,2.57-13.61
					c-28.39,3.36-57.63-2.28-84.02-12.76c-26.27-10.43-51.07-25.83-71.03-45.94C165.09,1297.47,156.54,1309.75,160.59,1313.83
					L160.59,1313.83z"/>
			</g>
		</g>
		<g>
			<g>
				<path d="M130.86,1401.45c24.71,16.47,53.25,27.23,81.6,35.58c28.65,8.44,58.88,14.72,88.88,14.18
					c5.89-0.11,11.63-13.97,5.21-13.85c-29.5,0.53-59.19-5.55-87.4-13.75c-28.05-8.15-56.3-19-80.72-35.27
					C133.37,1384.97,125.61,1397.95,130.86,1401.45L130.86,1401.45z"/>
			</g>
		</g>
		<g>
			<path class="st16" d="M922.9,971.3c21.78,0.58,57.32,2.17,78.33,7.64c21.01,5.47,41.22,16.36,53.15,33.57
				c12.57,18.14,14.59,41.4,10.23,62.68c-7.83,38.19-35.94,72.17-73.29,88.6"/>
			<g>
				<path d="M920.29,978.22c19.87,0.54,39.84,1.41,59.55,4.12c20.28,2.78,40.27,8.84,56.53,21.75
					c34.96,27.74,28.93,78.81,5.67,112.05c-12.77,18.26-30.56,32.34-50.84,41.41c-5.33,2.38-8.01,16.16,0.21,12.48
					c40.04-17.91,71.52-55.84,79.09-99.4c4.03-23.18,0.9-48.7-14.19-67.52c-14.06-17.54-35.8-27.64-57.39-32.26
					c-23.96-5.13-49.01-5.82-73.43-6.49C919.61,964.21,913.75,978.05,920.29,978.22L920.29,978.22z"/>
			</g>
		</g>
		<g>
			<g>
				<path d="M996.24,1038.87c8.75,11.19,14.15,24.38,14.99,38.61c0.19,3.28,2.64,4.66,5.56,3.21c3.02-1.5,5.55-5.89,5.35-9.27
					c-0.94-16.1-6.57-31.28-16.51-43.99C1001.46,1022.1,992.61,1034.23,996.24,1038.87L996.24,1038.87z"/>
			</g>
		</g>
		<g>
			<g>
				<path d="M1011.98,1153.56c24.09,72.04,48.18,144.08,72.27,216.13c9.93,29.68,18.1,61.07,33.04,88.75
					c12.45,23.07,32.2,42.86,59.22,46.49c27.62,3.71,55.84-9.54,73.99-29.96c20.45-23.02,27.58-55.54,24.74-85.6
					c-2.79-29.59-15.66-56.41-29.2-82.46c-14.08-27.11-28.64-54.04-43.3-80.84c-31.35-57.35-65.79-113.85-111.49-161.04
					c-5.62-5.8-11.41-11.44-17.33-16.93c-5.13-4.75-13.56,7.57-9.39,11.44c45.97,42.6,81.41,94.68,112.48,148.76
					c15.18,26.43,29.26,53.46,43.71,80.3c13.48,25.02,27.95,50.04,37.11,77.05c9.01,26.55,10.63,57.59-1.25,83.54
					c-10.89,23.79-35.14,40.42-61.26,42.33c-61.96,4.54-80.01-69.36-95.18-114.73c-23.03-68.88-46.07-137.77-69.1-206.65
					c-2.85-8.53-5.71-17.06-8.56-25.59C1020.03,1137.2,1010.17,1148.15,1011.98,1153.56L1011.98,1153.56z"/>
			</g>
		</g>
		<g>
			<g>
				<path d="M1026.81,1188.33c19.94-2.08,39.24-10.72,56.3-20.9c17.06-10.18,33.63-22.9,45.57-38.95c1.76-2.37,4.07-6.82,1.91-9.65
					c-2.09-2.73-5.97-0.25-7.48,1.79c-10.86,14.61-25.94,25.98-41.53,35.12c-15.97,9.36-33.63,17.05-52.2,18.98
					C1023.76,1175.3,1018.97,1189.15,1026.81,1188.33L1026.81,1188.33z"/>
			</g>
		</g>
		<g>
			<g>
				<path d="M1057.17,1265.36c21.06-7.58,40.93-18.44,59.77-30.43c18.66-11.87,37.04-25.04,52.54-40.91
					c2.32-2.38,4.96-6.24,3.77-9.78c-1.06-3.15-4.68-2.87-6.74-0.76c-14.74,15.07-32.05,27.67-49.78,38.96
					c-17.95,11.43-36.92,22.07-56.99,29.3c-3.41,1.23-5.98,4.59-6.59,8.16C1052.74,1262.3,1053.7,1266.61,1057.17,1265.36
					L1057.17,1265.36z"/>
			</g>
		</g>
		<g>
			<g>
				<path d="M1084.88,1343.82c45.91-12.99,91.82-36.88,125.6-70.99c2.34-2.36,4.95-6.26,3.77-9.78c-1.06-3.16-4.67-2.85-6.74-0.76
					c-32.36,32.67-76.07,55.47-120.06,67.91c-3.43,0.97-6.01,4.76-6.59,8.16C1080.42,1340.97,1081.39,1344.81,1084.88,1343.82
					L1084.88,1343.82z"/>
			</g>
		</g>
		<g>
			<g>
				<path d="M1109.79,1422.86c50.14-14.43,97.02-39.13,136.93-72.77c2.49-2.1,4.89-6.45,3.77-9.78c-1.13-3.35-4.55-2.6-6.74-0.76
					c-38.29,32.28-83.29,55.86-131.39,69.7c-3.43,0.99-6.01,4.75-6.59,8.16C1105.32,1420,1106.3,1423.86,1109.79,1422.86
					L1109.79,1422.86z"/>
			</g>
		</g>
		<g>
			<g>
				<path d="M458.54,1594.17c-1.16,31.39-2.33,62.78-3.49,94.17c-0.12,3.37,2.85,4.56,5.56,3.21c3.26-1.62,5.22-5.79,5.35-9.27
					c1.16-31.39,2.33-62.78,3.49-94.17c0.12-3.37-2.85-4.56-5.56-3.21C460.63,1586.52,458.67,1590.69,458.54,1594.17L458.54,1594.17
					z"/>
			</g>
		</g>
		<g>
			<g>
				<path d="M541.86,1588.35c-0.59,34.43-0.02,68.87-0.61,103.31c-0.06,3.35,2.81,4.58,5.56,3.21c3.21-1.59,5.29-5.81,5.35-9.27
					c0.59-34.43,0.02-68.87,0.61-103.31c0.06-3.35-2.81-4.58-5.56-3.21C544,1580.67,541.92,1584.89,541.86,1588.35L541.86,1588.35z"
					/>
			</g>
		</g>
		<g>
			<g>
				<path d="M459.71,1627.81c5.9,0,11.68-13.85,5.21-13.85C459.02,1613.96,453.24,1627.81,459.71,1627.81L459.71,1627.81z"/>
			</g>
		</g>
		<g>
			<g>
				<path d="M463.71,1626.16c25.56,6.62,54.13,5.54,79.58-1.1c3.43-0.9,6.02-4.81,6.59-8.16c0.45-2.67-0.53-6.37-4.02-5.46
					c-24.71,6.45-52.14,7.29-76.94,0.86C463.38,1610.87,456.95,1624.41,463.71,1626.16L463.71,1626.16z"/>
			</g>
		</g>
		<g>
			<g>
				<path d="M461.39,1660.85c26.23,6.57,55.42,6.89,81.9,1.53c5.54-1.12,10.17-15.15,2.57-13.61c-25.64,5.18-53.87,4.59-79.25-1.77
					C461.05,1645.61,454.64,1659.16,461.39,1660.85L461.39,1660.85z"/>
			</g>
		</g>
		<g>
			<g>
				<path d="M796.37,1575.38c0,34.36-0.14,68.82,4.98,102.88c0.55,3.63,4.9,2.25,6.74,0.76c2.87-2.32,4.31-6.2,3.77-9.78
					c-4.97-33.02-4.58-66.61-4.57-99.91c0-3.34-2.77-4.6-5.56-3.21C798.55,1567.68,796.37,1571.94,796.37,1575.38L796.37,1575.38z"
					/>
			</g>
		</g>
		<g>
			<g>
				<path d="M899.7,1571.46c3.17,34.98-0.01,70.28-0.1,105.32c-0.01,3.34,2.77,4.59,5.56,3.21c3.17-1.57,5.34-5.83,5.35-9.27
					c0.08-35.04,3.27-70.34,0.1-105.32C909.8,1556.45,899.17,1565.63,899.7,1571.46L899.7,1571.46z"/>
			</g>
		</g>
		<g>
			<g>
				<path d="M801.14,1611.01c16.79,3.92,34.4,4.54,51.58,4.23c17.28-0.32,34.87-1.63,51.72-5.66c5.49-1.31,10.05-15.4,2.57-13.61
					c-16.52,3.95-33.67,5.22-50.61,5.44c-16.68,0.22-33.74-0.45-50.04-4.25C800.74,1595.86,794.37,1609.43,801.14,1611.01
					L801.14,1611.01z"/>
			</g>
		</g>
		<g>
			<g>
				<path d="M804.72,1654.03c31.72,0.78,63.22-6.53,94.94-5.75c5.89,0.14,11.75-13.69,5.21-13.85c-31.72-0.78-63.22,6.53-94.94,5.75
					C804.04,1640.03,798.18,1653.87,804.72,1654.03L804.72,1654.03z"/>
			</g>
		</g>
		<g>
			<path class="st17" d="M352.23,1842.7c-10.55-97.54,75.72-166.02,169.01-157.39c70.24,6.5,93.98,104.82,88.19,155.38"/>
			<g>
				<path d="M357.69,1839.67c-3.24-31.32,3.49-63.17,22.21-88.86c17.83-24.46,43.8-42.11,72.5-51.35
					c15.42-4.97,31.55-7.68,47.75-7.93c14.64-0.23,29.37,0.91,42.71,7.38c23.94,11.62,39.47,35.34,48.8,59.49
					c10.05,26,15.56,55.75,12.47,83.64c-1.09,9.84,9.89,3.85,10.61-2.7c3.01-27.16-0.94-55.46-9.48-81.33
					c-8.85-26.8-23.95-53.91-48.75-68.91c-12.93-7.82-27.32-10.79-42.28-11.34c-17.37-0.63-34.94,1.3-51.73,5.84
					c-32.24,8.72-61.9,27.03-83.18,52.89c-25.14,30.54-36.61,69.96-32.55,109.23C347.7,1854.67,358.29,1845.5,357.69,1839.67
					L357.69,1839.67z"/>
			</g>
		</g>
		<g>
			<g>
				<path d="M349.63,1849.63c66.48-5.07,133.2-6.64,199.84-4.62c19.13,0.58,38.25,1.46,57.36,2.62c5.88,0.36,11.83-13.45,5.21-13.85
					c-66.55-4.03-133.3-4.57-199.9-1.51c-19.12,0.88-38.22,2.06-57.31,3.51c-3.56,0.27-6.22,3.23-7.4,6.48
					C346.77,1844.08,346.02,1849.9,349.63,1849.63L349.63,1849.63z"/>
			</g>
		</g>
		<g>
			<g>
				<path d="M349.46,1824.73c65.57,0.6,131.13-1.09,196.7-1.51c19.04-0.12,38.08-0.12,57.12,0.05c5.9,0.05,11.71-13.79,5.21-13.85
					c-65.57-0.6-131.13,1.09-196.7,1.51c-19.04,0.12-38.08,0.12-57.12-0.05C348.78,1810.82,342.96,1824.67,349.46,1824.73
					L349.46,1824.73z"/>
			</g>
		</g>
		<g>
			<g>
				<path d="M466.71,1721.98c19.25-1.65,38.5-3.3,57.76-4.96c3.57-0.31,6.21-3.21,7.4-6.48c0.66-1.8,1.42-7.68-2.2-7.37
					c-19.25,1.65-38.5,3.3-57.76,4.96c-3.57,0.31-6.21,3.21-7.4,6.48C463.86,1716.41,463.1,1722.29,466.71,1721.98L466.71,1721.98z"
					/>
			</g>
		</g>
		<g>
			<g>
				<path d="M468.46,1743.45c17.5-0.55,35-1.1,52.51-1.65c5.89-0.19,11.59-14.05,5.21-13.85c-17.5,0.55-35,1.1-52.51,1.65
					C467.78,1729.79,462.08,1743.66,468.46,1743.45L468.46,1743.45z"/>
			</g>
		</g>
		<g>
			<path class="st12" d="M710.87,1830.6c13.64-44.57,23.25-92.47,58.64-124.67c35.39-32.19,92.04-47.64,135.05-25.19
				c26.24,13.69,43.72,39.24,52.78,66.22c9.05,26.98,10.62,55.62,11.77,83.91"/>
			<g>
				<path d="M715.67,1831.05c8.24-27.05,14.7-55.1,27.1-80.66c12.19-25.14,30.7-45.13,55.5-58.19
					c24.12-12.7,52.59-18.58,79.54-13.05c27.73,5.69,49.81,24.58,63.73,48.73c18.46,32.03,20.64,69.95,22.12,106.02
					c0.14,3.3,2.68,4.64,5.56,3.21c3.06-1.52,5.49-5.87,5.35-9.27c-1.42-34.62-3.63-70.19-18.72-101.98
					c-12.68-26.69-34.4-49.09-63.04-58.02c-57.57-17.95-121.94,16.17-151.39,65.87c-17.6,29.71-25.38,63.73-35.34,96.43
					c-0.77,2.51-1.36,6.8,2.2,7.37C711.51,1838.05,714.87,1833.67,715.67,1831.05L715.67,1831.05z"/>
			</g>
		</g>
		<g>
			<g>
				<path d="M708.27,1837.53c66.86,1.02,133.71,2.54,200.56,3.78c19.23,0.36,38.45,0.69,57.68,0.98c5.9,0.09,11.72-13.75,5.21-13.85
					c-66.86-1.02-133.71-2.54-200.56-3.78c-19.23-0.36-38.45-0.69-57.68-0.98C707.58,1823.58,701.75,1837.43,708.27,1837.53
					L708.27,1837.53z"/>
			</g>
		</g>
		<g>
			<g>
				<path d="M717.46,1810.65c80.03-18.03,162.46-18.85,243.12-4.33c5.72,1.03,11.97-12.63,5.21-13.85
					c-81.48-14.67-164.93-13.64-245.77,4.56C714.52,1798.27,709.93,1812.34,717.46,1810.65L717.46,1810.65z"/>
			</g>
		</g>
		<g>
			<g>
				<path d="M829,1713.72c14,0,28,0,42,0c5.9,0,11.68-13.85,5.21-13.85c-14,0-28,0-42,0C828.31,1699.87,822.52,1713.72,829,1713.72
					L829,1713.72z"/>
			</g>
		</g>
		<g>
			<g>
				<path d="M825.5,1741.8c18.67-1.1,37.34-2.2,56.01-3.3c3.56-0.21,6.23-3.27,7.4-6.48c0.68-1.87,1.41-7.59-2.2-7.37
					c-18.67,1.1-37.34,2.2-56.01,3.3c-3.56,0.21-6.23,3.27-7.4,6.48C822.62,1736.3,821.89,1742.02,825.5,1741.8L825.5,1741.8z"/>
			</g>
		</g>
		<g>
			<path d="M718.74,1803.84c-1.45,8.61-6.04,16.89-7.49,25.5c84.25-1.69,166.26-1.15,250.51-2.84c6.89-6.41,3.08-18.79-4.88-23.83
				s-18.09-4.9-27.55-4.58c-71.36,2.42-135.44,2.52-206.8,4.94"/>
			<g>
				<path d="M714.33,1804.96c-1.67,8.73-5.81,16.75-7.49,25.5c-0.29,1.52,0,4.69,2.25,4.64c73.57-1.46,147.17-1.25,220.74-2.33
					c9.26-0.14,18.52-0.21,27.78-0.47c6.72-0.19,10.7-6.69,11.9-12.92c2.55-13.25-7.34-23.4-19.57-26.1
					c-7.95-1.75-16.3-1.02-24.36-0.76c-9.09,0.29-18.19,0.56-27.28,0.79c-17.75,0.46-35.5,0.82-53.25,1.16
					c-40.12,0.76-80.24,1.44-120.34,2.78c-4.9,0.16-9.64,11.7-4.33,11.53c69.47-2.34,138.99-3.06,208.48-4.99
					c8.31-0.23,17.64-0.4,24.89,4.32c3.99,2.6,9.99,10.67,5.71,15.11c1.5-0.83,2.99-1.66,4.49-2.49
					c-83.49,1.66-167.02,1.19-250.51,2.84c0.75,1.55,1.5,3.09,2.25,4.64c1.67-8.73,5.81-16.75,7.49-25.5
					c0.46-2.4-0.53-5.04-3.35-4.54C716.95,1798.68,714.82,1802.4,714.33,1804.96L714.33,1804.96z"/>
			</g>
		</g>
		<g>
			<path d="M355.67,1820.52c-3.88,5.47,0.12,13.6,6.2,16.53c6.08,2.94,13.23,2.22,19.96,1.5c74.76-7.99,150.38-8.19,225.19-0.59
				c5.32-2.99,4.14-11.62-0.7-15.33c-4.83-3.71-11.45-3.91-17.58-3.95c-74.39-0.46-148.79-0.93-223.18-1.39"/>
			<g>
				<path d="M352.4,1818.63c-3.42,5.67-3.74,12.44-0.09,18.1c3.91,6.06,11.13,8.14,17.99,8.21c8.67,0.09,17.46-1.48,26.09-2.28
					c10.05-0.93,20.12-1.69,30.19-2.33c38.5-2.43,77.14-2.81,115.68-1.14c18.94,0.82,37.87,2.14,56.74,3.95
					c4.22,0.4,7.21,1.17,10.57-1.79c2.51-2.21,4.31-5.39,5.04-8.64c1.23-5.49-0.31-11.49-4.7-15.16c-5.98-4.99-14.66-4.6-21.98-4.65
					c-9.63-0.06-19.26-0.12-28.89-0.18c-19.59-0.12-39.19-0.24-58.78-0.37c-44.17-0.28-88.34-0.55-132.51-0.83
					c-4.91-0.03-9.74,11.49-4.33,11.53c68.75,0.43,137.49,0.86,206.24,1.29c7.67,0.05,15.5-0.35,23.14,0.32
					c3.39,0.3,6.96,0.92,9.77,3c1.04,0.77,1.86,1.65,2.48,2.8c0.16,0.3,1.09,3.8,0.94,3.75c0.21-0.37,0.42-0.73,0.63-1.1
					c1.01-0.98,0.89-1.38-0.34-1.2c-0.84-0.57-2.85-0.28-3.9-0.38c-1.95-0.19-3.91-0.37-5.86-0.54c-4.23-0.38-8.47-0.73-12.71-1.06
					c-8.47-0.66-16.96-1.22-25.45-1.68c-33.63-1.82-67.34-2.08-100.99-0.78c-18.81,0.73-37.59,1.95-56.33,3.65
					c-8.97,0.81-18.23,2.6-27.24,2.3c-4.05-0.13-8.38-0.86-11.5-3.66c-1.54-1.38-4.64-5.17-3.33-7.35c1.13-1.87,2.33-5.93-0.12-7.35
					C356.32,1813.62,353.49,1816.82,352.4,1818.63L352.4,1818.63z"/>
			</g>
		</g>
		<g>
			<g>
				<path d="M834.99,670.89c0.48,0.29,0.37,0.14,0.77,0.65c0.15,0.25,0.17,0.24,0.06-0.05c0.11,0.27,0.2,0.55,0.26,0.84
					c-0.01-0.12-0.03-0.24-0.04-0.35c0,0.61,0.02,0.6,0.08-0.03c-0.66,1.3,0.47-1.08-0.04,0.32c0.41-0.79,0.45-0.88,0.11-0.25
					c0.14-0.21,0.29-0.41,0.43-0.62c-0.92,0.93,0.51-0.84,0.38-0.31c-0.01,0.06-0.16,0.02-0.08,0.04c-0.11-0.02-1.22-0.21-0.81-0.07
					c-0.87-0.3-1.09-0.55-1.4-1.21c-0.28-0.6-0.04,0.1-0.25-0.77c-0.07-0.33-0.07-0.28-0.01,0.16c-0.03-0.29-0.04-0.59-0.03-0.89
					c-0.12,0.98-0.08,0,0.1-0.36c-0.06,0.11-0.96,1.96-0.32,1.01c-0.41,0.6-1.06,1-1.45,1.53c0.49-0.26,0.49-0.26,0.01-0.02
					c0.29-0.08,0.59-0.12,0.89-0.14c4.67-0.54,8.64-12.08,2.14-11.33c-5.61,0.65-9.49,6.94-10.26,12.07
					c-0.68,4.53,0.68,10.07,5.68,11.33c10.27,2.59,19.54-16.67,10.09-22.44C836.92,657.31,830.54,668.17,834.99,670.89
					L834.99,670.89z"/>
			</g>
		</g>
		<g>
			<g>
				<path d="M544.74,833.89c33.03,47.26,84.67,80.1,141.01,91.71c56.38,11.62,115.78-0.23,164.49-30.58
					c27.55-17.17,51.16-39.81,69.36-66.69c1.22-1.81,2.26-5.97-0.12-7.35c-2.57-1.48-5.24,1.81-6.42,3.57
					c-30.68,45.32-79.94,77-133.11,88.87c-54.23,12.11-111.41,1.95-159.12-26.2c-26.93-15.89-50.33-37.2-68.25-62.84
					C549.39,819.83,541.92,829.85,544.74,833.89L544.74,833.89z"/>
			</g>
		</g>
		<g class="st18">
			<path d="M273.2,643.91c-16.83,19.85-33.24,40.66-42.54,64.86c-9.29,24.2-10.64,52.57,2.16,75.16
				c12.8,22.59,41.89,36.78,66.52,27.92c-25.79-18.93-43.35-48.43-47.56-79.88s4.99-64.43,24.91-89.33"/>
			<g>
				<path d="M270.88,640.64c-22.26,26.29-44.41,55.25-50.39,90.08c-5.29,30.8,3.36,64.68,31.76,81.23
					c13.86,8.08,30.69,10.81,46.03,5.56c3.48-1.19,8.28-8.1,4.22-11.12c-23.61-17.58-40.19-43.87-45.49-72.87
					c-5.6-30.67,2.76-63.18,22.01-87.6c1.48-1.87,3.42-5.79,1.59-8.03c-1.82-2.24-4.88-0.22-6.23,1.49
					c-21.48,27.24-31.82,62.64-26.85,97.12c4.64,32.19,22.67,61.46,48.67,80.82c1.41-3.71,2.81-7.41,4.22-11.12
					c-24.91,8.52-52.5-6.07-64.48-28.46c-14.84-27.74-7.16-61.31,7.68-87.24c8.93-15.61,20.32-29.6,31.91-43.29
					c1.53-1.81,3.38-5.83,1.59-8.03C275.25,636.87,272.28,638.99,270.88,640.64L270.88,640.64z"/>
			</g>
		</g>
		<g class="st18">
			<path d="M307.53,643.54c-11.91,36.06-17.72,74.06-17.14,111.98c0.25,15.97,2.21,33.31,13.41,44.84
				c15.62,16.09,41.75,14.14,64.09,10.99c-42.35-43.38-63.83-105.82-56.98-165.69"/>
			<g>
				<path d="M303.54,643.17c-11.04,33.74-17.14,68.94-17.69,104.45c-0.23,14.76-0.27,30.67,5.67,44.47
					c5.51,12.78,15.81,21.23,29.15,24.86c14.96,4.07,31.04,2.17,46.15,0.07c3.23-0.45,7.74-7.57,4.97-10.42
					c-41.21-42.55-62.98-102.96-56.47-162.06c0.9-8.19-8.23-3.21-8.83,2.24c-6.79,61.6,14.3,124.73,57.49,169.33
					c1.66-3.47,3.32-6.95,4.97-10.42c-23.29,3.23-54.48,5.71-67.51-18.7c-6.54-12.25-6.61-27.09-6.55-40.63
					c0.07-16.29,1.33-32.55,3.8-48.65c2.8-18.26,7.09-36.24,12.83-53.8C314.12,635.98,305.57,636.96,303.54,643.17L303.54,643.17z"
					/>
			</g>
		</g>
		<g class="st18">
			<path d="M412.95,526.46c-51.29,71.19-49.72,177.84-43.14,269.28c2.78,38.58,10.27,79,35.64,108.46
				c39.5,45.87,108.1,51.09,169.06,52.87c117.2,3.42,230.24,2.95,351.59,1.14c43.11-0.64,76.15-24.29,120.02-24.94
				c-107.06,6.41-203.67,7.91-307.18,9.45c-103.51,1.54-216.2-18.95-284.93-95.37c-71.95-80-74.77-217.23-42.27-319.29"/>
			<g>
				<path d="M410.63,523.19c-37.98,53.18-47.55,120.36-48.57,184.22c-0.53,33.2,0.89,66.66,3.93,99.72
					c3.03,32.87,9.93,66.95,29.57,94.25c37.39,51.95,107.54,58.94,166.39,61.12c78.04,2.89,156.22,3.14,234.3,2.8
					c40.57-0.18,81.15-0.63,121.72-1.22c17.42-0.25,33.95-2.8,50.68-7.68c16.26-4.74,32.2-10.64,48.8-14.17
					c8.74-1.86,17.57-2.99,26.5-3.18c1.44-3.84,2.89-7.68,4.33-11.53c-73.81,4.4-147.71,6.67-221.62,8.06
					c-64.5,1.22-129.53,4.66-193.45-6.22c-56.79-9.67-113.2-30.1-156.97-68.6c-42.41-37.29-65.74-89.5-74.97-144.49
					c-9.36-55.72-5.31-113.96,8.88-168.52c1.69-6.49,3.56-12.92,5.58-19.31c2.52-7.95-6.01-6.99-7.99-0.74
					c-17.26,54.56-24.17,113.05-18.65,170.07c5.33,55.11,22.79,111.23,60.09,153.31c39.16,44.18,93.78,70.22,150.45,83.83
					c29.42,7.07,59.55,10.95,89.74,12.65c33.58,1.89,67.27,0.66,100.88,0.1c75.04-1.24,150.08-3.05,225.03-7.01
					c9.56-0.51,19.12-1.05,28.68-1.62c4.72-0.28,9.79-11.65,4.33-11.53c-33.71,0.74-63.75,15.75-96.29,22.26
					c-18.51,3.71-37.57,2.89-56.36,3.13c-19.81,0.26-39.62,0.47-59.43,0.63c-77.25,0.62-154.51,0.38-231.74-1.49
					c-32.57-0.79-65.39-1.13-97.65-6.16c-29.18-4.55-58.56-13.28-82.11-31.78c-25.74-20.22-39.1-50.37-45.37-81.82
					c-6.35-31.85-7.18-65.23-8-97.61c-1.59-62.45,1.7-130.28,32.31-186.31c3.51-6.43,7.37-12.67,11.63-18.64
					c1.39-1.95,3.47-5.72,1.59-8.03C415.08,519.52,411.9,521.41,410.63,523.19L410.63,523.19z"/>
			</g>
		</g>
		<g class="st18">
			<path d="M410.91,974.09c-38.12,19.32-58.88,65.26-52.04,107.02c6.84,41.76,25.15,79.59,64.71,95.84
				c-45.28,5.45-78.83-26.38-92.72-69.27c-13.89-42.89,11.98-104.07,52.06-125.57"/>
			<g>
				<path d="M410.82,968.89c-30.73,15.89-51.37,47.82-56.48,81.71c-2.61,17.33-0.6,34.37,3.67,51.27
					c4.05,16.02,10.28,31.76,19.62,45.45c10.64,15.59,25.39,27.78,42.8,35.08c1.41-3.71,2.81-7.41,4.22-11.12
					c-35.38,3.96-65.02-17.22-81.12-47.56c-8.05-15.16-12.61-31.44-11.81-48.66c0.78-16.73,5.91-33.43,13.84-48.13
					c8.75-16.21,21.14-30.72,37.45-39.64c2.54-1.39,4.6-4.78,4.45-7.72c-0.14-2.69-2.19-4.01-4.63-2.67
					c-32.91,18-54.37,56.08-59.24,92.56c-4.89,36.61,11.01,75.65,40.73,98c16.85,12.67,37.38,17.47,58.18,15.14
					c3.3-0.37,8.55-9.3,4.22-11.12c-29.08-12.2-47.65-37.38-57.05-66.86c-9.58-30.03-10.94-61.59,4.86-89.83
					c8.49-15.18,20.99-27.53,36.45-35.53c2.56-1.32,4.6-4.83,4.45-7.72C415.31,968.83,413.27,967.63,410.82,968.89L410.82,968.89z"
					/>
			</g>
		</g>
		<g class="st18">
			<path d="M306.45,1111.66c-76.29,68.34-133.92,156.81-165.26,253.68c-10.21,31.57-17.64,65.94-7.47,97.52
				c12.76,39.62,54.95,67.9,96.96,64.99c-23.6-140.2,9.31-288.89,89.98-406.6"/>
			<g>
				<path d="M305.21,1107.27c-53.82,48.35-98.77,106.47-131.82,170.84c-16.56,32.26-30.62,66.14-40.5,101.05
					c-10.06,35.52-14.45,75.79,6.38,108.44c18.88,29.59,54.13,48.15,89.25,46.01c4.38-0.27,7.21-5.5,6.54-9.52
					c-18.02-108.11-2.22-220.94,43.31-320.52c12.83-28.06,28.18-54.96,45.58-80.44c1.23-1.8,2.25-5.97-0.12-7.35
					c-2.58-1.49-5.23,1.82-6.42,3.57c-31.78,46.52-56.41,97.91-73.01,151.74c-16.54,53.63-25.35,109.59-25.7,165.73
					c-0.2,31.75,2.41,63.46,7.63,94.78c2.18-3.17,4.36-6.35,6.54-9.52c-30.27,1.84-60.35-11.84-79.48-35.31
					c-23.63-28.98-22.75-66.6-14-101.17c8.47-33.47,21.86-66.22,37.21-97.09c15.1-30.37,32.83-59.45,53.02-86.69
					c23.09-31.14,49.24-59.9,78.08-85.8c1.99-1.79,4.15-5.35,3.14-8.14C309.84,1105.21,307.05,1105.62,305.21,1107.27
					L305.21,1107.27z"/>
			</g>
		</g>
		<g class="st18">
			<path d="M565.01,956.76c-79.24,117.8-166.94,251.34-198.66,389.23c-11.22,48.81-16.52,101.15,1.47,147.95
				c17.99,46.79,64.81,85.71,115.29,81.07c-54.98-95.06-60.09-211.99-36.91-319.03c23.19-107.04,78.52-198.31,127.78-296.37"/>
			<g>
				<path d="M561.74,954.87c-57.44,85.4-114.53,171.9-156.58,266.16c-20.54,46.04-37.36,94.07-46.94,143.65
					c-9.29,48.05-11.61,101.08,11,145.97c20.68,41.04,64.14,74.11,111.73,70.13c4.31-0.36,8.4-6.48,6.07-10.52
					c-41.09-71.48-53.85-155.4-47.9-236.85c3.04-41.68,10.88-83.19,23.21-123.12c12.68-41.06,29.76-80.6,48.57-119.19
					c21.27-43.63,44.56-86.24,66.36-129.6c0.98-1.95,2.43-5.87-0.12-7.35c-2.4-1.38-5.47,1.68-6.42,3.57
					c-39.66,78.87-84.69,155.78-112.57,239.93c-26.49,79.99-36.91,166.82-24.15,250.42c7.05,46.22,21.87,91.11,45.21,131.7
					c2.02-3.51,4.05-7.01,6.07-10.52c-41.64,3.48-79.53-21.96-101.35-56.05c-26.42-41.26-26.63-93.36-18.8-140.12
					c16.36-97.69,62.01-188.79,112.21-273.14c28.66-48.14,59.69-94.82,90.95-141.3c1.22-1.81,2.26-5.97-0.12-7.35
					C565.6,949.83,562.92,953.12,561.74,954.87L561.74,954.87z"/>
			</g>
		</g>
		<g class="st18">
			<path d="M525.47,1129.59c3.88,41.84-1.98,83.89-7.18,125.59c-5.19,41.7-9.73,84.07-3.23,125.59s25.3,82.73,59.11,108.26
				c33.81,25.53,90.85,39.28,125.96,15.53c-32.83,0.87-70.43-25.95-90.55-51.58c-20.12-25.62-31.12-56.98-40.2-88.14
				c-23.14-79.38-36.01-161.66-38.21-244.23"/>
			<g>
				<path d="M520.93,1132.11c7.04,79.04-19.79,156.78-12.33,235.81c3.03,32.1,11.99,63.97,29.71,91.18
					c16.61,25.51,40.68,44.57,69.31,54.89c29.45,10.62,65.3,13.8,92.6-4.24c2.15-1.42,3.9-3.72,4.33-6.32
					c0.26-1.58,0.02-4.67-2.25-4.64c-25.53,0.37-49.61-13.65-68.56-29.69c-21.09-17.85-35.72-41.27-46.04-66.7
					c-11.22-27.65-18.84-56.94-25.8-85.91c-7.33-30.52-13.19-61.4-17.5-92.49c-4.87-35.11-7.72-70.49-8.69-105.92
					c-0.08-2.76-2.25-3.84-4.63-2.67c-2.58,1.26-4.53,4.89-4.45,7.72c1.78,64.44,9.9,128.69,24.34,191.52
					c6.93,30.19,14.7,60.61,25.76,89.58c9.94,26.05,23.55,50.66,44.07,69.85c20.54,19.2,48.07,36.65,77.17,36.23
					c0.69-3.65,1.39-7.3,2.08-10.96c-23.49,15.52-54.16,13.73-80.04,5.76c-28.19-8.68-52.69-25.8-69.93-49.78
					c-41.82-58.16-35.83-133.1-27.48-200.33c5.27-42.41,11.23-85.15,7.42-127.95C529.35,1119.62,520.49,1127.26,520.93,1132.11
					L520.93,1132.11z"/>
			</g>
		</g>
		<g class="st18">
			<path d="M470.58,1596.25c10.57,36.58,38.44,67.9,73.83,82.96c-27.13-0.47-54.26-0.94-81.39-1.41c1.35-27.41,2.7-54.82,4.04-82.23
				"/>
			<g>
				<path d="M466.21,1600.01c11.11,37.6,39.07,69.09,75.05,84.66c1.77-3.74,3.54-7.48,5.32-11.22c-27.13-0.47-54.26-0.94-81.39-1.41
					c0.79,1.08,1.58,2.16,2.37,3.24c1.35-27.41,2.7-54.82,4.04-82.23c0.14-2.82-2.39-3.77-4.63-2.67c-2.74,1.34-4.31,4.82-4.45,7.72
					c-1.35,27.41-2.7,54.82-4.04,82.23c-0.07,1.37,0.78,3.21,2.37,3.24c27.13,0.47,54.26,0.94,81.39,1.41
					c3.79,0.07,10.14-9.13,5.32-11.22c-34.69-15.01-61.87-44.92-72.61-81.26C473.15,1586.39,464.87,1595.47,466.21,1600.01
					L466.21,1600.01z"/>
			</g>
		</g>
		<g class="st18">
			<path d="M806.27,1580c0.21,24,0.42,48,0.62,72c0.04,4.86,0.19,10.05,3.01,14.03c6.23,8.78,19.74,5.88,30.33,3.46
				c21.74-4.98,44.94-3.59,65.91,3.95c-40.23-24.77-73.86-59.88-96.65-100.91"/>
			<g>
				<path d="M801.73,1582.52c0.16,18.16,0.32,36.32,0.47,54.49c0.07,8.31-0.64,17.06,0.67,25.29c0.97,6.16,4.1,11.48,10.05,13.88
					c12.04,4.85,26.59-1.77,38.72-3.16c17.24-1.98,35,0.15,51.35,5.88c4.74,1.66,10.86-8.08,6.3-10.91
					c-39.9-24.73-72.97-59.25-95.9-100.21c-2.6-4.64-10.23,5.2-7.81,9.52c23.22,41.49,57.01,76.57,97.41,101.61
					c2.1-3.64,4.2-7.27,6.3-10.91c-14.61-5.12-29.9-7.7-45.4-7.1c-7.61,0.3-15.15,1.3-22.59,2.94c-5.96,1.31-12.12,2.91-18.28,2.22
					c-7.15-0.8-10.94-5.32-11.46-12.48c-0.6-8.11-0.23-16.39-0.3-24.52c-0.15-17.19-0.3-34.38-0.45-51.57
					c-0.02-2.78-2.28-3.82-4.63-2.67C803.56,1576.09,801.7,1579.67,801.73,1582.52L801.73,1582.52z"/>
			</g>
		</g>
		<g class="st18">
			<path d="M434.95,1701.66c-19.04,23.05-7.47,65.16,12.65,87.29c20.12,22.13,49.35,33.55,77.46,44.23
				c-48.29,2.63-96.58,5.26-144.87,7.89c-7.13,0.39-15.66,0.12-19.52-5.81c-2.08-3.2-7.88-8.08-7.74-11.88
				c1.95-50.5,35.83-101.59,82.01-123.4"/>
			<g>
				<path d="M432.63,1698.39c-15.07,18.87-14.22,44.91-6.02,66.54c9.32,24.57,27.91,41.96,50.69,54.35
					c14.27,7.76,29.47,13.6,44.62,19.37c1.77-3.74,3.54-7.48,5.32-11.22c-25.14,1.37-50.27,2.74-75.41,4.11
					c-12.57,0.68-25.14,1.37-37.71,2.05c-11.9,0.65-23.95,1.92-35.87,1.84c-3.93-0.02-8.59-0.27-11.79-2.85
					c-2.83-2.28-6.31-6.75-8.13-9.89c-1.87-3.24-0.44-8.5,0.04-12.07c0.65-4.87,1.58-9.7,2.77-14.47
					c4.55-18.27,13.25-35.63,24.69-50.55c13.1-17.09,29.77-31.09,49.21-40.42c4.36-2.09,6.56-13.62-0.17-10.39
					c-37.81,18.13-67.06,53.77-79.71,93.54c-3.14,9.89-5.32,20.02-6.27,30.35c-0.39,4.25-1.13,8.57,1,12.47
					c2.06,3.76,5.52,7.79,8.54,10.84c7.29,7.34,20.37,4.81,29.53,4.31c13.89-0.76,27.78-1.51,41.67-2.27
					c31.09-1.69,62.18-3.39,93.27-5.08c2.73-0.15,4.69-2.27,5.8-4.63c0.72-1.54,1.9-5.68-0.48-6.59
					c-29.11-11.07-61.87-23.14-81.22-49.02c-8.21-10.98-13.77-24.01-16.16-37.5c-2.17-12.22-1.61-26.2,6.43-36.28
					c1.49-1.86,3.41-5.79,1.59-8.03C437.03,1694.65,433.99,1696.69,432.63,1698.39L432.63,1698.39z"/>
			</g>
		</g>
		<g class="st18">
			<path d="M809.64,1680.55c-58.53,25.19-103.75,150.06-78.99,148.78c54.88-2.84,109.89-1.63,164.84-2.45
				c-32.8-4.11-63.09-24.44-79.03-53.03c-15.94-28.59-17.13-64.72-3.1-94.27"/>
			<g>
				<path d="M809.55,1675.35c-18.81,8.26-33.9,24.04-46.03,40.23c-13.36,17.83-24.23,37.59-32.61,58.22
					c-5.95,14.64-12.3,31.57-11.71,47.66c0.16,4.26,0.91,10,4.93,12.49c2.81,1.74,6.21,1.04,9.3,0.89
					c9.59-0.45,19.18-0.79,28.78-1.04c43.69-1.14,87.41-0.53,131.11-1.16c4.51-0.06,10.22-10.74,4.33-11.53
					c-30.07-4-57.84-21.3-74.23-46.92c-17.91-28-20.02-64.21-6.07-94.25c0.94-2.02,0.92-5.69-1.83-6.14
					c-2.94-0.47-5.18,3.28-6.16,5.39c-11.7,25.2-13.57,54.83-4.81,81.23c8.13,24.5,25.43,45.13,47.65,58.14
					c12.6,7.37,26.65,12.14,41.11,14.07c1.44-3.84,2.89-7.68,4.33-11.53c-36.09,0.52-72.18,0.2-108.27,0.71
					c-18.2,0.26-36.4,0.75-54.59,1.64c-0.8,0.04-3.23,0.12-3.47,0.05c0.28,0.09-1.45-0.89-1.23-0.7c-0.85-0.78-1.12-1.74-1.52-3.51
					c-0.91-4.05,0.02-10.24,0.98-15.14c1.54-7.83,3.97-15.46,6.74-22.93c6.89-18.59,16.1-36.49,27.34-52.82
					c11.81-17.17,26.63-34.12,46.08-42.66C814.18,1683.79,816.41,1672.34,809.55,1675.35L809.55,1675.35z"/>
			</g>
		</g>
		<g class="st18">
			<path d="M931.1,990.33c15.28,46.74,30.56,93.47,45.84,140.21c2.5,7.64,5.47,15.91,12.37,20.17c7.39,4.57,17.38,2.98,24.74-1.64
				c7.36-4.61,12.68-11.73,17.83-18.68c-45.01-40.66-79.19-92.91-98.22-150.13"/>
			<g>
				<path d="M926.72,994.09c10.53,32.21,21.06,64.42,31.59,96.63c5.12,15.65,9.92,31.45,15.39,46.98
					c4.09,11.6,11.38,22.1,25.04,21.46c15.92-0.75,26.67-13.66,35.44-25.49c1.8-2.43,3.49-6.31,0.83-8.73
					c-44.3-40.21-77.99-91.72-97-148.43c-2.04-6.09-10.25,3.02-8.74,7.51c19.53,58.26,53.97,110.56,99.44,151.83
					c0.28-2.91,0.55-5.82,0.83-8.73c-8.12,10.95-23.13,28.65-38.28,17.34c-6.11-4.56-8.33-12.67-10.59-19.57
					c-3-9.16-5.99-18.32-8.98-27.47c-12.08-36.95-24.16-73.89-36.24-110.84C933.47,980.48,925.25,989.58,926.72,994.09
					L926.72,994.09z"/>
			</g>
		</g>
		<g class="st18">
			<path d="M1030.72,1163.28c25.35,85.54,50.74,171.18,82.74,254.52c10.42,27.13,24.65,57.01,52.55,66.1
				c18.14,5.91,38.49,1.22,54.88-8.46c16.39-9.67,29.48-23.87,41.87-38.22c-39.5,4.73-72.34-28.32-96.58-59.46
				c-56.09-72.08-104.3-150.14-143.51-232.38"/>
			<g>
				<path d="M1026.35,1167.04c19.66,66.33,39.33,132.69,62.1,198.04c5.64,16.18,11.47,32.3,17.53,48.32
					c4.81,12.71,9.7,25.43,16.2,37.39c12.23,22.48,31.77,41.62,58.92,41.48c35.63-0.19,62.22-26.62,83.98-51.76
					c2.12-2.44,4-9.5-1.25-8.94c-22.71,2.45-43.54-8.49-60.45-22.7c-18.59-15.61-33.23-35.41-47.69-54.73
					c-31.89-42.61-61.1-87.23-87.38-133.52c-14.85-26.16-28.75-52.84-41.72-79.99c-1.29-2.7-5.14,0.21-6.23,1.49
					c-1.87,2.21-2.87,5.35-1.59,8.03c23.58,49.37,50.31,97.21,80.05,143.13c14.89,22.98,30.52,45.48,46.86,67.45
					c14.65,19.69,29.45,39.59,47.85,55.99c18.99,16.92,42.12,28.99,68.16,26.18c-0.42-2.98-0.83-5.96-1.25-8.94
					c-18.79,21.71-41.18,44.73-71.67,46.67c-27.37,1.74-46.55-16.86-58.78-39.36c-6.15-11.31-10.72-23.37-15.27-35.39
					c-5.83-15.42-11.45-30.93-16.89-46.49c-10.77-30.82-20.85-61.89-30.56-93.06c-11.05-35.5-21.62-71.15-32.19-106.8
					C1033.28,1153.41,1025,1162.5,1026.35,1167.04L1026.35,1167.04z"/>
			</g>
		</g>
		<g class="st18">
			<path d="M1084.79,618.88c7.07,61.5,43.67,119.05,96.69,152.08c-20.58,6.07-42.09,9.05-63.56,8.8
				c-11.36-0.13-24.11-1.88-30.99-10.8c-5.09-6.6-5.61-15.48-5.92-23.77c-1.49-39.17-2.97-78.35-4.46-117.52"/>
			<g>
				<path d="M1080.25,621.4c7.53,63.25,44.12,121.11,98.08,155.01c1.41-3.71,2.81-7.41,4.22-11.12
					c-19.69,5.72-40.05,8.79-60.57,8.72c-7.8-0.03-16.17-0.34-23.33-3.77c-8.08-3.87-11.62-11.08-12.61-19.71
					c-1.12-9.82-0.94-19.9-1.32-29.77c-0.4-10.62-0.81-21.25-1.21-31.87c-0.81-21.25-1.61-42.49-2.42-63.74
					c-0.1-2.76-2.23-3.85-4.63-2.67c-2.56,1.25-4.56,4.89-4.45,7.72c1.36,35.85,2.72,71.71,4.08,107.56
					c0.5,13.23-0.74,29.68,10.15,39.33c10.08,8.94,25.4,8.72,38.03,8.37c19.02-0.53,37.87-3.52,56.13-8.83
					c3.33-0.97,8.46-8.45,4.22-11.12c-51.72-32.49-88.06-88.3-95.3-149.14C1088.45,608.92,1079.67,616.55,1080.25,621.4
					L1080.25,621.4z"/>
			</g>
		</g>
		<g class="st19">
			<g>
				<path class="st3" d="M870.97,496.56c12.14,2.84,24.59,4.23,37.03,4.97c13.3,0.79,22.89,0.83,35.37,1.88
					c9.04,0.76,15.94,1.68,24.15,4.24c8.34,2.59,16.15,6.23,23.18,11.48c15.76,11.78,21.46,30.83,23.38,49.58
					c2.31,22.61,2.15,45.68,2.17,68.38c0.03,27.54-0.84,55.08-2.54,82.58c-0.34,5.48,13.59,5.93,16.8,5.88
					c3.6-0.06,16.45-0.18,16.8-5.88c1.56-25.2,2.42-50.44,2.53-75.69c0.11-24.19,0.22-48.69-1.92-72.8
					c-1.78-20.08-7.4-40.2-23.11-53.86c-15.54-13.52-36.03-20.12-56.09-23.24c-14.53-2.26-29.15-2.86-43.82-3.49
					c-5.34-0.23-11.57-0.53-18.43-1.18c-6.63-0.63-11.85-1.44-18.53-3c-6.77-1.58-16.92-1.81-22.98,2.11
					C858.69,492.56,867.61,495.78,870.97,496.56L870.97,496.56z"/>
			</g>
		</g>
		<g class="st19">
			<g>
				<path class="st3" d="M320.55,655.36c7.31,17.17,10.9,35.65,11.08,54.29c0.05,5.57,13.29,5.93,16.8,5.88
					c3.26-0.05,16.85-0.27,16.8-5.88c-0.19-19.9-4.5-39.13-12.28-57.41c-0.85-2.01-6.18-3.19-7.72-3.51
					c-4.07-0.87-8.81-1.07-12.94-0.59C328.7,648.54,318.15,649.72,320.55,655.36L320.55,655.36z"/>
			</g>
		</g>
		<g class="st19">
			<g>
				<path class="st3" d="M1129.94,638.99c18.92,6.68,30.7,27.12,29.98,46.7c-0.2,5.51,13.49,5.93,16.8,5.88
					c3.48-0.05,16.59-0.21,16.8-5.88c0.93-25.22-16.65-46.84-39.82-55.02c-7.19-2.54-16.58-2.63-23.76,0
					C1124.14,632.8,1123.79,636.82,1129.94,638.99L1129.94,638.99z"/>
			</g>
		</g>
		<g class="st19">
			<g>
				<path class="st3" d="M713.72,610.33c38.95-0.73,77.91-1.46,116.86-2.19c18.09-0.34,36.29-1.29,54.38-0.81
					c0.48,0.01,3.69,0.2,1.61,0.05c-1.91-0.14,0.63,0.07,0.83,0.09c1.02,0.1,2.03,0.19,3.05,0.28c0.07,0.01,2.56,0.31,1.01,0.1
					c-0.83-0.12,3.01,0.58,3.91,0.79c1.43,0.33,1.48,0.34,3.65,1.2c6.16,2.42,11.06,6.94,14.51,12.54
					c8.44,13.69,6.82,31.78,5.43,47.08c-0.7,7.66,32.77,9.06,33.6,0c1.4-15.39,2.2-31.42-4.33-45.85
					c-7.18-15.86-24.04-23.24-40.32-25.99c-19.57-3.3-39.61-1.94-59.35-1.57c-20.98,0.39-41.95,0.79-62.93,1.18
					c-23.97,0.45-47.94,0.9-71.92,1.35c-3.7,0.07-16.5,0.18-16.8,5.88C696.63,609.87,711.07,610.38,713.72,610.33L713.72,610.33z"/>
			</g>
		</g>
	</g>
</g>
<g id="Ebene_12">
</g>
</svg>
