<?xml version="1.0" encoding="utf-8"?>
<!-- Generator: Adobe Adobe Illustrator 24.2.0, SVG Export Plug-In . SVG Version: 6.00 Build 0)  -->
<svg version="1.1" xmlns="http://www.w3.org/2000/svg" xmlns:xlink="http://www.w3.org/1999/xlink" x="0px" y="0px"
	 viewBox="0 0 2000 2000" style="enable-background:new 0 0 2000 2000;" xml:space="preserve">
<style type="text/css">
	.st0{fill:#6DB671;}
	.st1{fill:#6CB671;}
	.st2{opacity:0.149;}
	.st3{fill:#FFFFFF;}
	.st4{opacity:0.0314;}
	.st5{fill:#91615E;}
	.st6{fill:#2E1B13;}
	.st7{fill:#F0C1A1;}
	.st8{fill:#FFFFFF;stroke:#FFFFFF;stroke-width:0.897;stroke-miterlimit:10;}
	.st9{opacity:0.3098;}
	.st10{fill:#CA354F;}
	.st11{fill:#C9354E;}
	.st12{fill:#F3C058;}
	.st13{fill:#F3C057;}
	.st14{fill:#F3C056;}
	.st15{fill:#CA5A7C;}
	.st16{opacity:0.102;}
</style>
<g id="Ebene_22">
	<g>
		<g id="Ebene_2_Kopie">
			<g>
				<path class="st0" d="M1571.62,842.99c69.13,2.35,279.59,10.37,300.51-18.94c33.98-47.62,86.52-563.8,52.01-596.52
					c-72.32-68.57-934.1-125.63-1010.66-44.72c-69.03,72.96,25.04,555.45,51.45,584.56c39.92,44,181.38,21.66,247.28,46.44
					c29.38,11.05,160.03,164.64,192.7,162.89c18.54-0.99,126.77-80.9,164.53-133.56"/>
				<g>
					<path class="st1" d="M1571.62,848c67.85,2.31,135.93,4.62,203.78,1.16c16.32-0.83,32.65-2.04,48.85-4.2
						c12.01-1.6,24.31-3.46,35.73-7.66c7.02-2.58,13.73-5.97,17.67-12.58c3-5.05,4.99-10.78,6.82-16.34
						c6.03-18.29,9.86-37.35,13.5-56.24c5.21-27.07,9.47-54.33,13.34-81.62c9.32-65.82,16.4-131.97,21.68-198.23
						c4.65-58.32,8.54-117.07,7.25-175.61c-0.4-18.13-0.97-36.72-4.74-54.51c-1.07-5.07-2.45-10.49-5.24-14.92
						c-2.44-3.88-6.35-6.61-10.18-8.99c-11.04-6.87-23.84-11.15-36.18-14.98c-18.28-5.67-36.98-10-55.71-13.87
						c-52.31-10.83-105.37-18.09-158.39-24.34c-64.95-7.66-130.14-13.36-195.4-17.7c-67.74-4.51-135.58-7.54-203.46-8.73
						c-60.63-1.06-121.37-0.79-181.94,2.62c-43.93,2.47-88.82,5.71-131.65,16.4c-13.05,3.26-26.61,7.25-38.15,14.35
						c-12.07,7.43-18.85,19.46-23.47,32.57c-7.41,20.98-9.71,43.84-11.05,65.92c-1.79,29.44-1.11,59.02,0.51,88.46
						c3.75,68.03,12.65,135.83,23.91,202.99c9.2,54.87,19.6,109.94,34.64,163.55c3.82,13.63,7.48,28.47,14.48,40.91
						c4.51,8,13.07,13.64,21.05,17.69c14.77,7.51,31.29,11.13,47.56,13.62c40.37,6.19,81.39,5.89,122.01,9.37
						c18,1.54,36.19,3.64,53.57,8.75c5.92,1.74,8.14,2.28,12.79,5.25c3.67,2.34,6.83,4.86,10.13,7.59
						c23.18,19.18,44.14,41.16,65.55,62.26c23.58,23.25,47.09,46.89,72.77,67.85c8.74,7.13,17.89,14.53,28.14,19.4
						c7.8,3.7,14.22,4.37,22.2,0.95c11.9-5.09,22.88-12.55,33.53-19.82c15.91-10.86,31.28-22.53,46.25-34.66
						c28.88-23.39,58.1-48.69,79.97-78.99c3.78-5.23-4.91-10.24-8.65-5.06c-10.56,14.64-23.35,27.7-36.37,40.14
						c-14.74,14.09-30.23,27.4-46.16,40.13c-14.38,11.49-29.17,22.53-44.49,32.74c-9.42,6.27-20.54,14.09-30.67,17.39
						c-0.64,0.21-1.29,0.38-1.94,0.56c-1.73,0.48,0.32,0.07-0.9,0.13c-0.58,0.03-1.17-0.03-1.75-0.09c1.35,0.14-1.29-0.34-1.79-0.48
						c-3.59-1.03-6.64-2.73-10.33-4.96c-10.44-6.3-19.89-14.21-29.09-22.16c-25.47-22-49.23-45.96-73.18-69.58
						c-19.85-19.58-39.41-40.26-61.57-57.29c-8.56-6.58-17.28-9.98-27.81-12.61c-17.65-4.42-35.93-6.34-54.04-7.79
						c-39.99-3.2-80.56-2.72-120.2-9.45c-15.36-2.61-31.34-6.2-44.86-14.26c-2.59-1.54-5.1-3.23-7.37-5.2
						c-1.25-1.08-2.39-2.25-3.56-3.41c-0.27-0.27-1.69-2.12-0.43-0.39c-1.09-1.49-1.97-3.1-2.79-4.75
						c-2.36-4.75-4.28-10.22-6.39-16.57c-2.83-8.54-5.31-17.19-7.66-25.87c-6.53-24.1-12.03-48.48-17.13-72.91
						c-13.31-63.8-23.82-128.27-31.33-193.01c-7.07-60.96-12.61-123.19-8.33-184.57c1.46-20.83,3.92-42.36,11.48-61.98
						c2.28-5.9,6.26-13.39,10.29-17.71c0.7-0.76,1.44-1.48,2.21-2.17c0.35-0.31,0.71-0.61,1.07-0.91c1.25-1.06-0.52,0.32,0.84-0.65
						c2.03-1.44,4.13-2.76,6.31-3.95c5.93-3.23,9.53-4.59,16-6.78c7.4-2.51,14.97-4.51,22.58-6.25c18.91-4.32,38.16-7.1,57.43-9.28
						c53.25-6.03,107-7.79,160.56-8.36c64.89-0.69,129.79,0.85,194.61,3.74c66.66,2.98,133.27,7.44,199.73,13.51
						c59.05,5.39,118.04,11.94,176.65,20.97c42.28,6.51,85.05,13.63,126,26.27c6.93,2.14,13.8,4.49,20.52,7.24
						c1.26,0.52,1.21,0.49,3.17,1.37c1.34,0.6,2.68,1.23,3.99,1.88c2.25,1.12,4.46,2.31,6.59,3.63c0.9,0.56,1.77,1.15,2.65,1.75
						c0.44,0.3,0.87,0.63,1.3,0.96c-1.37-1.04,0.07,0.06,0.38,0.33c0.61,0.55,1.2,1.09,1.78,1.67c1.01,1.01-0.51-0.85,0.11,0.13
						c0.25,0.39,0.52,0.76,0.73,1.17c0.27,0.5,1.52,3.22,0.87,1.64c0.47,1.14,0.88,2.31,1.25,3.48c0.91,2.89,1.58,5.86,2.15,8.84
						c3.19,16.61,3.74,35.58,4.04,53.49c0.46,26.67-0.3,53.35-1.49,79.99c-2.89,64.92-8.46,129.75-15.54,194.34
						c-6.41,58.47-13.82,117.01-24.95,174.79c-3.61,18.74-7.42,37.64-13.36,55.81c-2.01,6.14-2.91,9.27-5.95,14.37
						c-1.3,2.18-2.09,3.03-3.99,4.23c-3.63,2.3-6.6,3.46-10.59,4.75c-11.85,3.84-24.38,5.68-36.71,7.13
						c-16.34,1.92-32.77,2.97-49.2,3.7c-37.38,1.65-74.83,1.54-112.23,0.89c-28.23-0.49-56.44-1.41-84.65-2.38
						C1565.17,837.76,1565.18,847.78,1571.62,848L1571.62,848z"/>
				</g>
			</g>
		</g>
		<g id="Ebene_8_1_">
			<g>
				<g>
					<path class="st1" d="M1775.46,439.56c-6.62,77.44-13.24,154.87-19.85,232.31c-0.72,8.48,4.42,18.92,10.25,24.75
						c6.07,6.07,16.03,10.64,24.75,10.25c9.05-0.41,18.44-3.38,24.75-10.25c6.58-7.17,9.42-15.05,10.25-24.75
						c6.62-77.44,13.24-154.87,19.85-232.31c0.72-8.48-4.42-18.92-10.25-24.75c-6.07-6.07-16.03-10.64-24.75-10.25
						c-9.05,0.41-18.44,3.38-24.75,10.25C1779.14,421.98,1776.29,429.86,1775.46,439.56L1775.46,439.56z"/>
				</g>
			</g>
		</g>
		<g id="Ebene_7">
			<g class="st2">
				<g>
					<path class="st3" d="M1644.93,241.63c21.27,3.56,42.84,5.15,64.28,7.3c5.92,0.59,11.84,1.21,17.75,1.88
						c2.88,0.33,5.76,0.66,8.64,1.02c1.44,0.18,2.88,0.36,4.32,0.54c4.74,0.6-4.01-0.58,0.82,0.11c11.24,1.59,22.46,3.4,33.53,5.92
						c5.15,1.17,10.27,2.49,15.31,4.04c2.27,0.7,4.53,1.44,6.77,2.25c1.08,0.39,2.14,0.8,3.21,1.2c4.38,1.65-3.1-1.51-0.41-0.2
						c3.78,1.84,7.53,3.62,11.03,5.97c0.74,0.5,1.48,1.19,2.26,1.61c-1.11-0.59-3.98-3.37-1.67-1.21c1.34,1.26,2.6,3.01,4.04,4.12
						c-0.79-0.61-3.11-4.53-1.48-1.84c0.4,0.67,0.81,1.35,1.23,2.01c2.43,3.83-0.96-4.05-0.44-1.21c0.26,1.44,1.21,6.71,0.55,1.79
						c-0.65-4.87-0.14-0.93-0.03,0.25c0.1,1.12,0.18,2.24,0.25,3.35c0.15,2.56,0.22,5.12,0.25,7.69
						c0.47,35.15-3.25,70.52-6.42,105.47c-4.49,49.51-9.81,98.95-15.22,148.37c-5.11,46.74-10.42,93.46-15.3,140.23
						c-0.51,4.84-1,9.69-1.5,14.54c-1.06,10.44,9.95,20.45,20,20c11.74-0.53,18.87-8.81,20-20c4.68-46.1,9.91-92.15,14.98-138.21
						c5.58-50.76,11.11-101.54,15.88-152.39c3.52-37.54,7.44-75.38,7.6-113.12c0.04-9.66,0.46-20.95-3.02-30.08
						c-8.15-21.36-29.4-31.94-49.95-38.54c-23.07-7.41-47.56-10.44-71.54-13.25c-22.23-2.6-44.57-4.22-66.78-6.95
						c-1.1-0.13-2.2-0.28-3.3-0.42c-3.34-0.42,5.26,0.76,1.26,0.16c-2.1-0.31-4.19-0.62-6.28-0.97c-10.28-1.72-22.04,2.7-24.6,13.97
						C1628.76,226.69,1633.89,239.78,1644.93,241.63L1644.93,241.63z"/>
				</g>
			</g>
			<g class="st2">
				<g>
					<path class="st3" d="M1776.57,783.06c0.67,4.37,1.34,8.74,2.01,13.1c9.79-7.53,19.59-15.06,29.38-22.59
						c-5.08-3.22-10.15-6.44-15.23-9.66c1.35,10.47,2.7,20.94,4.05,31.41c-2.3,1.93-4.47,3.31-7.52,3.75
						c-1.18,0.35-2.37,0.35-3.55-0.01c-2.05-0.37-2.35-0.38-0.89-0.04c-2.23-0.83-3.93-1.83-5.71-3.42c1.01,1.03,0.86,0.8-0.43-0.69
						c-1.19-1.24-2.02-2.71-2.49-4.4c3.06-7.53,6.13-15.06,9.19-22.59c0.28-0.16,4.84-1.5,2.33-0.99c2.48-0.5,4.62-0.55,7.11-0.05
						c-2.53-0.51,1.94,0.92,2.25,1.07c-2.28-1.06,1.58,1.21,1.89,1.52c1.6,1.6,2.59,3.74,3.25,5.87c-1.08-3.46-0.29,7.33-0.24,7
						c0.42-2.52-0.73,1.79-0.96,2.2c-0.65,0.86-1.3,1.72-1.95,2.57c-2.77,1.93-3.49,2.48-2.18,1.66c2.1-1.07-4.4,1.6-2.17,0.91
						c1.03-0.24,0.6-0.19-1.27,0.17c-1.15,0.35-2.31,0.38-3.47,0.09c-4.59-0.52-8.52-3.29-10.3-7.58c-1.68-4.05-0.03,2.05-0.66-2.46
						c-0.62-4.47-0.59,1.86-0.04-2.63c-0.03-1.2,0.28-2.31,0.91-3.33c0.81-1.67,0.97-2.06,0.48-1.18c-0.89,1.53,3.58-3.76,1.05-1.76
						c10.47,1.35,20.94,2.7,31.41,4.05c-1.09-1.66-2.18-3.33-3.27-4.99c-5.72-8.74-17.97-13.23-27.36-7.17
						c-8.73,5.63-13.3,18-7.18,27.36c1.09,1.66,2.18,3.33,3.27,4.99c3.51,5.36,8.24,8.69,14.61,9.55c6.76,0.91,11.61-1.39,16.8-5.5
						c10.43-8.26,11.6-25.54,4.69-36.28c-8.21-12.77-25.71-16.76-38.47-8.22c-12.31,8.23-17.85,25.38-8.96,38.27
						c8.6,12.46,25.2,17.21,38.62,9.41c7.67-4.46,11.5-14.06,9.19-22.59c-2.49-9.22-9.98-16.97-19.3-19.43
						c-10.11-2.67-19.13,0.01-26.95,6.58c-10.3,8.64-5.98,25.05,4.05,31.41c5.08,3.22,10.15,6.44,15.23,9.66
						c6.77,4.29,16.11,3.15,22.21-1.56c6.84-5.29,8.43-12.8,7.17-21.02c-0.67-4.37-1.34-8.74-2.01-13.1
						c-0.71-4.62-5.34-9.7-9.19-11.95c-4.29-2.51-10.6-3.57-15.41-2.02c-4.84,1.57-9.51,4.57-11.95,9.19
						C1775.91,772.71,1775.71,777.44,1776.57,783.06L1776.57,783.06z"/>
				</g>
			</g>
		</g>
		<g id="Ebene_2_1_">
			<g>
				<g>
					<path d="M1539.36,892.09c67.94,2.34,136.11,4.67,204.05,1.26c16.34-0.82,32.69-2.02,48.92-4.15c12.9-1.7,26.14-3.48,38.43-7.97
						c9.52-3.48,18.21-8.09,23.59-17.02c3.43-5.69,5.71-12.2,7.8-18.48c6.08-18.27,9.93-37.34,13.58-56.22
						c5.25-27.13,9.52-54.46,13.4-81.82c9.43-66.49,16.64-133.31,21.95-200.26c4.62-58.25,8.51-116.95,7.07-175.41
						c-0.46-18.65-1.2-37.82-5.23-56.1c-1.28-5.82-3.13-11.92-6.35-16.97c-3.43-5.37-8.68-9.24-14.06-12.5
						c-11.97-7.25-25.77-11.85-39.09-15.93c-18.45-5.64-37.3-9.95-56.19-13.82c-53.13-10.88-107.02-18.17-160.86-24.49
						c-64.91-7.62-130.04-13.3-195.25-17.64c-67.65-4.5-135.41-7.55-203.19-8.76c-60.43-1.08-120.96-0.85-181.32,2.47
						c-44.97,2.47-90.95,5.76-134.82,16.53c-13.95,3.43-28.44,7.76-40.81,15.23c-14.28,8.62-22.43,22.28-28.04,37.66
						c-7.87,21.6-10.22,45.39-11.65,68.18c-1.85,29.4-1.17,58.95,0.46,88.35c3.79,68.62,12.89,137.01,24.33,204.74
						c9.29,55.04,19.79,110.29,35.04,164.03c4.04,14.23,8.03,29.72,15.42,42.66c5.45,9.54,15.4,16.53,25.03,21.33
						c15.9,7.93,33.32,11.96,50.79,14.56c41.38,6.17,83.3,6.02,124.92,9.67c4.57,0.4,9.14,0.85,13.7,1.37
						c1.21,0.14,2.43,0.28,3.64,0.43c0.65,0.08,4.73,0.63,0.79,0.09c2.34,0.32,4.67,0.66,7,1.03c8.62,1.38,17.2,3.12,25.56,5.64
						c1.59,0.48,3.18,0.99,4.75,1.53c0.89,0.31,1.83,0.78,2.74,0.98c1.86,0.41-4-2.06-2.35-0.99c1.38,0.89,2.94,1.54,4.33,2.42
						c1.63,1.03,3.18,2.17,4.74,3.29c3.51,2.54-2.42-1.99,0.34,0.24c1.21,0.98,2.43,1.95,3.63,2.95
						c23.08,19.13,44.04,40.9,65.42,61.86c23.67,23.19,47.26,46.8,73.07,67.64c9.37,7.57,19.13,15.53,30.13,20.67
						c5.19,2.43,10.53,4.53,16.35,4.67c5.83,0.14,10.79-1.84,16.01-4.13c12.02-5.28,23.15-12.74,33.97-20.11
						c16.49-11.23,32.41-23.33,47.93-35.85c29.45-23.75,58.75-49.42,81.09-80.19c4.76-6.56,1.12-16.72-5.38-20.52
						c-7.58-4.43-15.75-1.19-20.52,5.38c-0.64,0.88-4.59,5.94-1.87,2.56c-1.21,1.51-2.42,3.03-3.65,4.52
						c-2.88,3.46-5.85,6.85-8.89,10.17c-6.54,7.14-13.39,14-20.41,20.67c-14.76,14.03-30.26,27.27-46.2,39.92
						c-1.71,1.36-3.42,2.7-5.14,4.05c-0.32,0.25-3.74,2.89-1.05,0.82c-1.01,0.78-2.03,1.56-3.05,2.33
						c-3.96,3.02-7.95,5.99-11.97,8.93c-7,5.11-14.08,10.09-21.31,14.87c-5.86,3.88-11.81,7.65-17.93,11.11
						c-2.29,1.29-4.6,2.54-6.96,3.7c-0.99,0.48-2.41,0.85-3.27,1.53c3.16-2.48,2.58-0.99,0.28-0.2c-0.78,0.27-1.6,0.43-2.37,0.7
						c-2.63,0.96,2.71-0.09,2.08-0.24c-0.44-0.1-1.66-0.18-2.09-0.08c3.83-0.86,3.75,0.79,1.27-0.01c-0.85-0.27-1.71-0.58-2.57-0.84
						c-3.03-0.91,3.69,1.8,0.81,0.34c-2.07-1.05-4.13-2.08-6.13-3.27c-4.76-2.82-9.23-6.05-13.66-9.35
						c-0.81-0.6-3.29-2.21,0.43,0.35c-0.69-0.47-1.34-1.04-1.99-1.56c-1.25-0.99-2.5-1.99-3.73-3c-2.86-2.33-5.69-4.7-8.49-7.1
						c-25.46-21.84-49.21-45.64-73.15-69.11c-20.62-20.22-40.95-41.35-63.97-58.89c-8.9-6.79-18.37-10.57-29.26-13.36
						c-18.84-4.83-38.45-6.85-57.8-8.4c-20.3-1.62-40.64-2.45-60.97-3.64c-10.05-0.59-20.1-1.26-30.13-2.17
						c-4.62-0.42-9.23-0.89-13.83-1.44c-1.23-0.15-2.45-0.3-3.68-0.45c-3.97-0.49,2.2,0.37-0.25-0.03c-2.56-0.42-5.14-0.75-7.7-1.17
						c-8.44-1.39-16.84-3.14-25.04-5.59c-3.57-1.06-7.01-2.38-10.52-3.63c-3.23-1.15,3.06,1.51,0.03,0.01
						c-0.84-0.42-1.72-0.78-2.56-1.19c-1.65-0.8-3.27-1.65-4.85-2.56c-1.53-0.88-3.02-1.81-4.47-2.81c-0.47-0.32-0.92-0.68-1.4-0.99
						c-2.58-1.68,2.57,2.38,0.37,0.27c-1.6-1.54-3.39-3.82-5.2-5.04c3.49,2.36,2.5,3.62,1.54,1.93c-0.18-0.32-0.4-0.63-0.6-0.94
						c-0.55-0.89-1.03-1.82-1.51-2.75c-0.52-1.03-0.98-2.08-1.47-3.13c-1.48-3.19,0.99,2.49,0.54,1.3
						c-0.27-0.72-0.58-1.42-0.86-2.13c-1.28-3.25-2.44-6.55-3.55-9.86c-2.88-8.59-5.41-17.31-7.8-26.05
						c-6.55-23.96-12.07-48.2-17.19-72.5c-6.4-30.4-12.08-60.95-17.16-91.59c-2.8-16.89-5.42-33.82-7.85-50.77
						c-0.57-4.02-1.14-8.04-1.69-12.06c-0.14-1.05-0.94-6.97-0.36-2.6c-0.34-2.56-0.68-5.13-1.02-7.69
						c-1.1-8.42-2.14-16.84-3.13-25.28c-7.12-60.79-12.71-122.88-8.36-184.09c0.44-6.19,1.01-12.37,1.75-18.53
						c0.16-1.35,1.02-5.82,0.04-0.48c0.26-1.44,0.41-2.91,0.62-4.35c0.42-2.79,0.89-5.58,1.41-8.36c1.74-9.32,4.12-18.47,7.49-27.34
						c0.19-0.5,0.46-0.99,0.61-1.5c0.06-0.21-1.77,3.96-0.89,2.12c0.44-0.93,0.84-1.89,1.29-2.82c0.85-1.77,1.77-3.51,2.78-5.2
						c0.86-1.45,1.84-2.81,2.77-4.22c1.65-2.5-2.93,3.35-0.47,0.63c0.56-0.62,1.1-1.27,1.68-1.88c0.68-0.71,1.41-1.37,2.14-2.04
						c0.42-0.38,0.9-0.7,1.31-1.09c0.39-0.38-3.96,2.81-1.38,1.1c2.09-1.38,4.17-2.73,6.38-3.92c1.17-0.63,2.35-1.22,3.55-1.78
						c0.69-0.32,1.38-0.63,2.07-0.95c3.4-1.57-2.01,0.8-1.05,0.43c3.05-1.18,6.08-2.37,9.18-3.4c7.45-2.48,15.06-4.46,22.72-6.19
						c8.94-2.01,17.96-3.66,27.01-5.09c2.37-0.38,4.74-0.73,7.11-1.08c1.1-0.16,2.21-0.32,3.31-0.47c0.67-0.09,1.34-0.19,2.01-0.28
						c3.8-0.53-3.21,0.41-0.6,0.08c5.39-0.69,10.79-1.36,16.2-1.97c53.26-5.92,106.99-7.64,160.54-8.17
						c64.45-0.63,128.91,0.9,193.29,3.78c66.77,2.98,133.48,7.44,200.05,13.5c31,2.82,61.97,6,92.88,9.64
						c14.74,1.73,29.49,3.47,44.18,5.55c-3.94-0.56-0.33-0.04,1.46,0.2c1.8,0.25,3.6,0.49,5.4,0.74c3.55,0.49,7.11,0.99,10.66,1.5
						c6.62,0.95,13.25,1.93,19.86,2.94c42.37,6.49,85.21,13.59,126.29,26.12c6.93,2.11,13.81,4.42,20.53,7.13
						c0.63,0.25,1.26,0.54,1.89,0.78c-5.66-2.11-2.37-1.02-1.04-0.42c1.36,0.61,2.72,1.22,4.06,1.88c2.29,1.11,4.55,2.3,6.73,3.62
						c0.92,0.56,1.83,1.13,2.71,1.74c0.41,0.28,0.81,0.6,1.23,0.87c2.2,1.46-3.54-3.07-1.49-1.15c0.61,0.57,1.26,1.17,1.91,1.7
						c2.33,1.9-2.36-4.19-0.68-0.84c0.4,0.81,0.82,1.72,1.29,2.48c-2.43-3.97-0.97-2.52-0.12,0.07c0.89,2.7,1.56,5.48,2.12,8.27
						c0.32,1.57,0.6,3.15,0.86,4.74c0.15,0.93,0.29,1.86,0.43,2.79c0.62,3.98-0.46-3.8-0.07-0.55c0.5,4.19,0.94,8.38,1.28,12.58
						c0.83,10.43,1.22,20.9,1.41,31.37c0.49,26.34-0.23,52.71-1.38,79.03c-2.83,65-8.4,129.9-15.5,194.57
						c-1.78,16.19-3.67,32.37-5.69,48.53c-0.98,7.82-1.99,15.63-3.02,23.44c-0.12,0.88-0.6,4.44,0,0.02
						c-0.11,0.83-0.22,1.66-0.34,2.49c-0.25,1.82-0.49,3.63-0.74,5.45c-0.54,3.91-1.09,7.81-1.64,11.71
						c-3.81,26.71-8,53.39-13.12,79.88c-3.62,18.73-7.45,37.64-13.43,55.79c-0.98,2.96-2.23,5.81-3.22,8.76
						c1.99-5.96,0.66-1.55-0.14,0.08c-0.51,1.03-1.07,2.01-1.63,3.01c-0.22,0.4-0.53,0.75-0.74,1.16c-1.06,2.07,3.17-3.05,1.13-1.47
						c-0.53,0.41-1.23,1.06-1.66,1.57c-0.78,0.92-2.88-0.17,2.06-1.59c-0.48,0.14-1,0.73-1.45,0.98c-1.6,0.89-3.2,1.69-4.83,2.52
						c-2.17,1.09,3.89-1.42,1.53-0.66c-0.55,0.18-1.09,0.42-1.64,0.62c-1.16,0.42-2.34,0.82-3.52,1.19
						c-5.34,1.68-10.82,2.89-16.31,3.93c-3.07,0.58-6.14,1.09-9.23,1.55c-1.2,0.18-7.35,1.25-2.31,0.35
						c-1.85,0.33-3.77,0.48-5.64,0.7c-16.55,1.93-33.2,2.97-49.85,3.68c-37.23,1.59-74.54,1.47-111.8,0.8
						c-28.26-0.5-56.51-1.44-84.77-2.41c-8.1-0.28-15,7.09-15,15C1524.36,885.45,1531.23,891.81,1539.36,892.09L1539.36,892.09z"/>
				</g>
			</g>
		</g>
		<g id="Ebene_5">
			<g>
				<g>
					<path class="st3" d="M1179.32,562.94c46.86,62.96,93.71,125.91,140.57,188.87c6.81,9.15,13.96,15.15,25.57,16.71
						c10.3,1.38,22.26-1.35,29.4-9.63c45.43-52.66,90.86-105.33,136.3-157.99c45.43-52.66,90.86-105.33,136.3-157.99
						c25.65-29.73,51.3-59.47,76.95-89.2c6.14-7.12,10.25-15.08,10.25-24.75c0-8.58-3.81-18.84-10.25-24.75
						c-13.12-12.05-36.73-14.8-49.5,0c-45.43,52.66-90.86,105.33-136.3,157.99c-45.43,52.66-90.86,105.33-136.3,157.99
						c-25.65,29.73-51.3,59.47-76.95,89.2c18.32,2.36,36.65,4.72,54.97,7.08c-46.86-62.96-93.71-125.91-140.57-188.87
						c-5.64-7.58-11.46-13.48-20.92-16.08c-8.38-2.31-19.53-1.27-26.97,3.53c-7.47,4.82-14.05,11.99-16.08,20.92
						C1173.84,544.57,1173.81,555.55,1179.32,562.94L1179.32,562.94z"/>
				</g>
			</g>
		</g>
		<g id="Ebene_9_1_">
			<g class="st4">
				<path d="M906.44,192.6c0,281,312.26,612.99,525.2,782.43c-26.36,7.04-59.46-30.06-117.44-76.2
					c-81.95-65.2-59.06-73.17-104.65-91.42c-37.87-15.16-84.13-11.05-124.91-12.35c-37.58-1.19-84.58-7.83-108.65-26.8
					c-31.75-25.02-88.42-342.47-81.78-537.55"/>
				<g>
					<path d="M896.44,192.6c0.09,58.33,12.98,116.13,32.75,170.79c21.92,60.61,51.91,118.12,86.08,172.67
						c36.25,57.87,77.34,112.69,121.16,165.03c43.23,51.62,89.31,100.85,137.53,147.83c43.24,42.12,88.22,82.51,135.02,120.63
						c5.17,4.21,10.36,8.39,15.58,12.54c1.47-5.57,2.94-11.14,4.41-16.71c-0.71,0.18-1.42,0.32-2.13,0.47
						c2.65-0.55,0.41-0.03-0.23-0.02c-1.24,0.02-2.46,0.04-3.7-0.03c-2.84-0.14,0.92,0.39-1.92-0.31c-1.6-0.39-3.18-0.8-4.75-1.33
						c-0.82-0.28-1.63-0.59-2.44-0.9c1.8,0.71-0.08-0.03-0.52-0.24c-1.59-0.76-3.16-1.53-4.71-2.36c-3.43-1.86-6.74-3.95-9.98-6.14
						c-17.2-11.63-32.69-25.78-48.55-39.12c-31.04-26.11-63.96-50.14-90.15-81.42c-5.22-6.24-10.13-12.87-16.21-18.32
						c-7.61-6.82-16.42-11.55-25.76-15.53c-46.11-19.63-96.58-12.66-145.27-15.64c-22.2-1.36-44.66-4.36-65.8-11.54
						c-8.68-2.95-16.95-6.84-24.38-12.25c-1.1-0.8,0.95,1.18-0.4-0.4c-0.31-0.36-0.67-0.72-1.01-1.05c-1.09-1.07-0.6-1.82,0.34,0.52
						c-0.24-0.6-0.88-1.21-1.25-1.76c-1.82-2.71-3.33-5.63-4.73-8.58c-0.46-0.96-0.9-1.93-1.33-2.9c-0.32-0.73-1.54-3.74-0.34-0.74
						c-0.84-2.1-1.7-4.2-2.5-6.32c-3.98-10.56-7.28-21.39-10.33-32.25c-18.82-67.05-30.02-136.56-39.3-205.48
						c-10.89-80.86-18.4-162.71-17.93-244.37c0.05-8.9,0.22-17.79,0.52-26.69c0.43-12.87-19.57-12.86-20,0
						c-2.71,81.49,4.09,163.42,13.98,244.25c9.08,74.3,20.55,148.9,39.14,221.48c5.57,21.78,11.47,44.22,21.48,64.46
						c3.48,7.03,7.68,12.81,14.06,17.44c17.08,12.42,39.22,17.99,59.7,21.55c23.91,4.16,48.05,5.36,72.28,5.47
						c24.88,0.12,50.2-0.58,74.78,3.99c6.04,1.12,12.03,2.55,17.89,4.38c2.64,0.82,5.25,1.73,7.83,2.72
						c1.09,0.42,2.16,0.86,3.24,1.29c1.89,0.77-1.11-0.51,1.2,0.51c4.8,2.12,9.54,4.4,13.97,7.22c0.81,0.52,1.61,1.05,2.39,1.6
						c1.07,0.75,2.49,1.99,0.6,0.39c1.58,1.35,3.18,2.65,4.67,4.11c2.81,2.73,5.36,5.72,7.86,8.73c7.64,9.19,15.3,18.28,23.72,26.77
						c16.14,16.27,33.97,30.55,51.74,44.96c19.1,15.49,37.46,31.91,56.78,47.14c12.72,10.03,26.58,21.11,42.59,25.25
						c6.65,1.72,13.51,1.93,20.19,0.25c6.74-1.69,10.4-11.95,4.41-16.71c-45.87-36.53-89.98-75.28-132.45-115.71
						c-47.83-45.52-93.63-93.22-136.83-143.16c-44.02-50.86-85.35-104.16-122.32-160.4c-35.04-53.3-66.6-109.43-90.32-168.74
						c-21.31-53.3-36.82-109.75-39.81-166.89c-0.36-6.8-0.53-13.61-0.54-20.42C916.42,179.74,896.42,179.71,896.44,192.6
						L896.44,192.6z"/>
				</g>
			</g>
		</g>
	</g>
</g>
<g id="Ebene_13">
	<g>
		<g>
			<path d="M739.42,1632.05c-9.91,4.24-21.96-9.69-28.24-15.65c-7.18-6.81-14.05-14.1-19.24-22.57
				c-13.57-22.15-6.47-46.12,0.02-69.35c6.92-24.76,13.84-49.52,20.76-74.28c3.46-12.38,6.92-24.76,10.38-37.14
				c1.18-4.24,1.93-11.28,5.16-14.57c3.62-3.67,11.26-1.94,15.75-1.33c25.94,3.51,50.55,13.13,72.43,27.41
				c4.4,2.87,11.07-8.33,6.52-11.3c-21.93-14.31-46.79-24.04-72.74-27.81c-12.18-1.77-23.22-1.19-29.79,10.74
				c-2.8,5.08-4.13,10.77-5.68,16.32c-2.13,7.62-4.26,15.24-6.39,22.85c-7.98,28.57-15.97,57.14-23.95,85.71
				c-7.06,25.27-15.99,52.06-3.56,77.17c5.81,11.74,15.01,21.32,24.52,30.14c9.35,8.68,20.48,20.29,34.22,14.41
				C744.23,1640.82,746.55,1628.99,739.42,1632.05L739.42,1632.05z"/>
		</g>
	</g>
	<g>
		<path class="st5" d="M707.8,557.24c-106.39-97.17-308.36-22.37-436.51,148.06c-140.72,187.15-67.38,729.96,353.99,809.26
			c87.59,16.48,162.42,61.65,185.71,350.45c220.86-241.21,257.26-524.71,324.74-814.82C1183.88,843.18,980.68,580.4,881.78,537
			c-46.07-20.22-149.13-27.87-169.6,21.53"/>
		<g>
			<path d="M711.06,551.59C658.3,503.84,583.66,500.4,517.96,519c-83.49,23.64-157.03,77.87-214.78,141.44
				c-21.45,23.61-41.87,48.7-56.65,77.1c-11.35,21.8-19.98,44.87-26.62,68.51c-14.96,53.25-19.95,109.22-18.24,164.4
				c1.9,61.58,12.32,123.06,30.7,181.86c19.08,61.02,46.96,119.61,84.15,171.71c38.22,53.54,86.52,99.97,142.72,134.33
				c29.73,18.18,61.52,32.94,94.53,44.09c17.44,5.89,35.2,10.84,53.18,14.81c11.7,2.58,23.53,4.5,35.14,7.46
				c38.56,9.86,70.77,31.16,93.53,64.05c16.23,23.45,27.36,50.06,36.04,77.1c12.68,39.5,20.38,80.56,26.06,121.6
				c3.68,26.63,6.4,53.39,8.58,80.18c0.4,4.86,4.75,3.36,7.1,0.78c90.25-98.81,157.06-215.24,203.56-340.39
				c44.75-120.44,71.87-246.38,99.31-371.62c7.08-32.3,14.18-64.59,21.6-96.8c5.94-25.78,9.86-51.39,9.84-77.92
				c-0.04-53.77-12.94-107.09-32.28-157.02c-19.64-50.72-46.05-98.85-77.04-143.5c-26.93-38.8-57.47-75.54-92.54-107.26
				c-13.24-11.97-27.24-23.31-42.43-32.73c-15.02-9.31-31.21-15.44-48.41-19.44c-22.81-5.3-46.69-7.51-70.07-5.74
				c-21.05,1.59-43.4,6.25-60.19,19.86c-7.38,5.98-12.94,13.6-16.69,22.3c-0.96,2.22-0.95,5.73,1.89,6.35
				c2.92,0.64,5.48-3.51,6.38-5.58c7.67-17.79,28.81-25.14,46.36-28.59c22.93-4.51,46.98-3.62,69.98-0.09
				c18.6,2.86,37.23,7.52,53.97,16.33c14.32,7.54,27.48,17.23,39.91,27.54c34,28.18,63.44,62.04,89.74,97.4
				c31.31,42.1,58.48,87.61,79.63,135.65c21.19,48.12,36.93,99.5,41.23,152.09c2.08,25.44,1.48,51.13-2.81,76.32
				c-5.06,29.71-13.1,59.09-19.6,88.51c-26.95,122.01-51.91,244.9-91.98,363.46c-40.94,121.13-98.9,235.98-180.32,335.09
				c-10.93,13.3-22.23,26.29-33.84,39c2.37,0.26,4.73,0.52,7.1,0.78c-4-49.17-9.74-98.38-19.95-146.69
				c-7.07-33.48-16.28-66.85-30.48-98.07c-18.03-39.64-45.03-74.97-85.43-93.41c-16.38-7.48-33.89-12.09-51.53-15.48
				c-35.4-6.82-70-16.84-103.17-31.05c-61.16-26.2-116.09-65.58-161-114.64c-43.11-47.1-77.07-102.29-101.75-161.09
				c-24.03-57.25-39.84-118.1-47.07-179.77c-6.62-56.42-6.49-114.01,2.97-170.11c7.86-46.61,22.09-93.44,48.25-133.22
				c22.85-34.76,52.89-66.11,83.96-93.57c32.59-28.8,68.71-53.79,107.95-72.66c62.85-30.23,141.14-47.27,206.99-16.05
				c14.29,6.77,27.41,15.68,39.12,26.29C708.19,566.19,715.16,555.3,711.06,551.59L711.06,551.59z"/>
		</g>
	</g>
</g>
<g id="Ebene_14">
	<g>
		<path class="st6" d="M316.54,1701.54c-76.78,47.61-173.44,122.34-173.44,212.64c132.99,27.5,278.7,29.5,413.95,23.63
			c203.15-8.82,406.16-21.69,608.88-38.61c-22.09-53.36-51.86-102.92-87.87-146.3c-20.23-24.37-45.3-48.18-75.4-49.24
			c-30.86-1.08-57.41,21.8-82.77,41.04c-89.23,67.7-199.28,102.03-307.79,96.02c-108.51-6.01-214.82-52.34-297.31-129.56"/>
		<g>
			<path d="M316.45,1696.16c-33.29,20.67-65.66,43.26-94.72,69.62c-28.59,25.93-54.75,56.02-70.35,91.67
				c-8.2,18.73-12.86,38.87-12.98,59.34c-0.01,1.67,0.79,3.01,2.46,3.36c62.82,12.93,126.72,20.05,190.73,23.55
				c64.36,3.52,128.88,3.41,193.28,1.23c67.41-2.28,134.79-5.92,202.14-9.61c68.6-3.75,137.17-7.97,205.7-12.65
				c68.55-4.68,137.07-9.82,205.55-15.42c8.48-0.69,16.95-1.39,25.43-2.1c3.81-0.32,8.43-5.85,6.77-9.85
				c-13.37-32.15-29.41-63.16-48.23-92.46c-18.12-28.21-38.42-56.9-63.38-79.52c-11.42-10.34-24.36-19.09-39.32-23.31
				c-14.88-4.2-30.36-2.34-44.56,3.35c-14.9,5.98-28.09,15.31-40.84,24.92c-13.51,10.19-26.81,20.55-40.97,29.85
				c-56.49,37.11-120.73,62.07-187.58,72.22c-64.93,9.86-131.52,4.99-194.48-13.59c-63.31-18.69-122.53-51.13-173.05-93.52
				c-6.56-5.5-12.96-11.18-19.22-17.01c-4.4-4.1-11.67,6.51-8.09,9.85c48.04,44.81,104.47,80.22,166.22,102.84
				c61.01,22.35,126.31,32.08,191.17,27.16c66.39-5.04,131.32-24.43,189.87-56.07c14.92-8.06,29.4-16.91,43.38-26.5
				c13.74-9.43,26.69-19.85,40.11-29.71c12.91-9.48,26.9-18.59,42.65-22.42c15.24-3.71,30.6-1.13,44.39,6.12
				c14.37,7.55,26.44,18.82,37.24,30.79c11.38,12.61,21.81,26.14,31.71,39.92c20.37,28.33,38.09,58.56,52.98,90.12
				c3.85,8.16,7.47,16.43,10.94,24.77c2.26-3.29,4.51-6.57,6.77-9.86c-68.47,5.71-136.98,10.97-205.52,15.76
				c-68.53,4.79-137.1,9.12-205.69,12.99c-68.04,3.84-136.1,7.32-204.19,10.14c-64.17,2.66-128.45,3.42-192.63,0.8
				c-64.26-2.63-128.5-8.62-191.8-20.22c-7.68-1.41-15.35-2.91-23-4.48c0.82,1.12,1.64,2.24,2.46,3.36
				c0.19-34.84,15.62-66.89,36.55-94.04c22.8-29.57,51.43-54.3,81.37-76.38c16.46-12.14,33.53-23.44,50.91-34.24
				c2.59-1.61,4.77-4.84,4.61-7.99C321.1,1696.28,318.94,1694.61,316.45,1696.16L316.45,1696.16z"/>
		</g>
	</g>
</g>
<g id="Ebene_27">
	<g>
		<path class="st7" d="M591.9,1473.44c6.05,58.9,5.06,95.17-26.75,126.65c-31.81,31.48-75,44.82-116.93,54.86
			c-41.93,10.04-85.31,18.17-122.24,42.07c91.58,85.82,212.12,133.92,332.79,132.79s240.44-51.47,330.66-139
			c-36.78-22.56-79.17-30.91-120.24-41.41s-92.99-8.93-124.36-39.72s-39.07-98.3-20.84-139.84c-42.35,9.97-87.19,7.02-128.15-8.43"
			/>
		<g>
			<path class="st7" d="M587.2,1476.05c2.4,23.56,4.95,48.01,1.05,71.55c-3.25,19.66-12.28,36.56-26.76,50.25
				c-39.99,37.81-96.15,46.96-147.55,59.61c-30.68,7.55-61.23,17.03-88.04,34.19c-2.28,1.46-6.97,7.49-3.95,10.3
				c71.09,66.39,160.78,112.08,256.97,127.83c94.32,15.44,191.53-0.05,277.63-41.07c49.41-23.54,94.83-55.32,134.17-93.35
				c2.04-1.97,5.7-7.93,1.98-10.19c-26.38-16.01-55.95-25.16-85.65-32.81c-14.34-3.69-28.7-7.55-43.17-10.7
				c-12.47-2.72-25.11-4.53-37.69-6.63c-25.18-4.2-51.75-9.38-72.19-25.76c-18.35-14.71-27.76-37.89-32.17-60.41
				c-5.06-25.78-4.2-54.27,6.3-78.64c1.04-2.42,0.76-7.12-3.03-6.25c-41.8,9.65-85.79,6.76-125.99-8.22
				c-5.14-1.92-11.26,9.53-6.52,11.3c41.69,15.53,86.92,18.67,130.3,8.65c-1.01-2.08-2.02-4.17-3.03-6.25
				c-9.74,22.6-11.99,48.48-9.27,72.77c2.63,23.52,9.72,48.08,24.98,66.66c16.69,20.33,42.07,29.27,67.03,34.54
				c13.38,2.82,26.94,4.72,40.41,7.03c13.81,2.37,27.3,5.78,40.88,9.15c35.31,8.74,70.9,17.8,102.29,36.85
				c0.66-3.4,1.32-6.79,1.98-10.19c-68.53,66.26-155.63,112.55-249.51,129.99c-92.52,17.18-188.74,4.15-274.32-34.58
				c-49.24-22.29-94.78-52.7-134.29-89.59c-1.32,3.43-2.64,6.87-3.95,10.3c49.87-31.92,110.37-35.17,165.22-54.05
				c45.73-15.74,92.31-44.86,104.42-94.76c6.53-26.9,3.66-55.56,0.89-82.76C595.82,1463.13,586.69,1471.03,587.2,1476.05
				L587.2,1476.05z"/>
		</g>
	</g>
	<g>
		<g>
			<path class="st7" d="M808.74,1370.98c5.08,0,10.06-11.93,4.49-11.93C808.15,1359.05,803.16,1370.98,808.74,1370.98
				L808.74,1370.98z"/>
		</g>
	</g>
</g>
<g id="Ebene_23">
	<g>
		<g>
			<path d="M585.25,1476.2c0.91,22.53,1.56,45.3-1.43,67.71c-2.74,20.52-8.56,41.34-21.99,57.55c-28,33.78-77.34,35.45-117.04,44.01
				c-91.49,19.72-178.43,62.51-238.73,135.67c-32.19,39.07-55.69,84.96-67.59,134.2c-0.61,2.52,0.64,5.28,3.52,4.77
				c3.1-0.55,5.11-4.43,5.76-7.13c21.52-89,83.64-163.14,162.82-207.41c42.61-23.83,89.31-39.41,137.01-49.27
				c41.02-8.48,86.66-12.01,116.6-45.05c33.81-37.31,32.52-93.31,30.63-140.36c-0.12-2.89-2.34-4.04-4.86-2.81
				C587.24,1469.42,585.13,1473.24,585.25,1476.2L585.25,1476.2z"/>
		</g>
	</g>
	<g>
		<g>
			<path d="M717.66,1476.36c-1.74,41.29-3.26,89.46,22.86,124.29c25.92,34.56,70.72,40.25,110.26,47.32
				c92.32,16.52,183.22,54.01,247.08,124.85c33.35,36.99,58.27,81.26,70.5,129.65c0.76,3,4.04,2.08,5.81,0.65
				c2.28-1.84,3.99-5.48,3.25-8.43c-21.8-86.22-82.56-157.96-158.84-201.94c-41.69-24.04-87.56-40.24-134.39-50.86
				c-21.32-4.83-42.99-7.75-64.34-12.37c-20.22-4.37-40.52-10.86-56.92-23.92c-39.55-31.47-37.77-88.88-35.86-134.46
				c0.12-2.91-2.46-3.91-4.79-2.77C719.45,1469.76,717.79,1473.38,717.66,1476.36L717.66,1476.36z"/>
		</g>
	</g>
	<g>
		<g>
			<path d="M139.84,1919.83c58.21,24.06,121.89,26.1,184.02,25.67c66.51-0.46,132.99,0.13,199.5,0.35
				c69.32,0.23,138.65-0.05,207.96-1.63c69.24-1.58,138.46-4.47,207.54-9.46c68.45-4.95,136.77-11.94,204.7-21.76
				c8.67-1.25,17.32-2.55,25.98-3.89c4.81-0.75,8.87-12.76,2.21-11.73c-68.09,10.55-136.6,18.25-205.28,23.69
				c-68.37,5.42-136.89,8.69-205.44,10.58c-68.62,1.89-137.27,2.41-205.92,2.33c-67.01-0.08-134.04-1.46-201.04-0.68
				c-61.92,0.72-125.85,2.19-185.59-16.68c-7.49-2.37-14.86-5.09-22.11-8.09C141.31,1906.44,135.09,1917.86,139.84,1919.83
				L139.84,1919.83z"/>
		</g>
	</g>
	<g>
		<g>
			<path d="M318.83,1709.35c72.86,66.76,164.83,112.22,262.64,127.39c95.86,14.86,194.41-1.42,281.67-43.31
				c50.09-24.05,96.14-56.37,136.08-94.98c2.07-2,4.3-5.48,3.28-8.51c-0.94-2.79-4.03-2.43-5.86-0.66
				c-69.7,67.38-158.13,114.64-253.53,132.79c-94.29,17.94-192.46,5.23-280.02-33.68c-50.45-22.42-96.99-53.17-137.67-90.45
				C321.76,1694.6,314.71,1705.58,318.83,1709.35L318.83,1709.35z"/>
		</g>
	</g>
</g>
<g id="Ebene_15">
</g>
<g id="Ebene_24">
</g>
<g id="Ebene_3">
	<g>
		<path class="st7" d="M284.6,918.82c-42.56-15.72-94.18-0.25-121.81,36.51s-29.12,91.93-3.52,130.2s76.31,56.65,119.66,43.38
			c26.28,71.14,59.56,140.39,106.8,199.03c47.24,58.64,109.36,106.36,180.73,126.92c99.55,28.67,241.95-2.44,303.3-49.71
			c106.07-81.73,146.14-275.59,146.14-275.59s97.08,2.18,123.8-35.17s24.89-113.06-5.74-147.1
			c-22.25-24.73-73.08-31.92-126.83-25.92c-19.02-45.61-25.45-82.43-27.89-127.15c-113.58,12.68-230.39-74.99-257.6-188.87
			c-140.7,194.95-377.3,175.76-377.3,175.76s-3.57,117.64-56.9,139.2"/>
		<g>
			<path class="st7" d="M287.96,912.99c-53.7-19.38-115.45,7.72-139.76,58.86c-24.95,52.49-10.3,119.64,40.47,150.71
				c26.41,16.16,59.32,21.28,89.11,12.4c-1.18-0.68-2.35-1.36-3.53-2.04c32.52,87.86,75.96,174.44,143.96,240.37
				c31.31,30.35,67.27,56.19,107.29,73.76c37.41,16.43,77.12,24.21,117.89,24.92c40.74,0.7,81.76-4.55,121.19-14.74
				c33.94-8.77,68.39-21.15,97.56-40.97c27.46-18.65,49.86-44.24,68.62-71.4c19.55-28.3,35.45-58.96,49-90.54
				c17.08-39.82,31.07-81.57,40.41-123.92c0.15-0.68,0.3-1.36,0.44-2.04c-2.34,2.45-4.69,4.9-7.03,7.35
				c16.1,0.35,32.4-0.9,48.34-3.02c24.82-3.3,53.27-9.08,72.5-26.34c22.84-20.49,29.22-56.87,28.84-86.05
				c-0.38-29.44-7.9-64.64-31.71-84.36c-14.49-12-33.94-17.37-52.19-20.21c-23.51-3.65-47.51-2.99-71.09-0.42
				c1.18,0.68,2.35,1.36,3.53,2.04c-8.46-20.43-15.4-41.44-19.99-63.09c-4.38-20.67-6.54-41.67-7.72-62.74
				c-0.13-2.38-1.38-3.61-3.71-3.36c-89.4,9.65-177.67-42.86-224.51-117.22c-13.54-21.48-23.58-44.94-29.56-69.62
				c-0.96-3.96-5.67-1.52-7.15,0.52c-46.97,64.83-111.98,113.92-186.76,142.32c-49.56,18.82-102.62,29.47-155.62,31.1
				c-10.01,0.31-20.14,0.48-30.13-0.32c-4.24-0.34-7.06,5.36-7.16,8.85c-0.41,13.04-1.91,25.21-4.06,38.45
				c-3.82,23.55-9.6,48.01-22.08,68.62c-6.28,10.37-14.66,19.18-26,23.9c-4.81,2-7.21,14.17,0.19,11.09
				c24.24-10.08,37.9-36.41,46.04-59.9c7.92-22.86,12.21-46.98,14.45-71.03c0.51-5.49,0.99-11,1.16-16.51
				c-2.39,2.95-4.78,5.9-7.16,8.85c29.75,2.39,60.58-0.74,89.94-5.27c66.69-10.29,131.82-33.99,187.83-71.92
				c40.42-27.37,75.68-61.7,104.32-101.23c-2.38,0.17-4.76,0.34-7.15,0.52c21.65,89.33,96.54,163.09,185.38,185.57
				c24.78,6.27,50.34,8.09,75.75,5.34c-1.24-1.12-2.47-2.24-3.71-3.36c1.2,21.39,3.4,42.74,7.74,63.74
				c4.59,22.22,11.65,43.78,20.33,64.73c0.72,1.74,1.68,2.24,3.53,2.04c20.2-2.2,40.7-2.72,60.92-0.41
				c16.34,1.86,32.94,5.5,47.44,13.52c25.9,14.35,36.1,45,38.59,72.96c1.39,15.56,0.57,31.33-2.91,46.57
				c-2.75,12.04-7.31,25.38-15.88,34.62c-7.3,7.86-17.73,12.76-27.67,16.31c-11.97,4.28-24.49,6.96-37.04,8.86
				c-16.87,2.55-34.16,3.92-51.24,3.55c-3.71-0.08-6.37,4.19-7.03,7.35c-7.06,34.06-17.98,67.16-30.57,99.75
				c-23.05,59.63-54.33,120.9-103.69,163.07c-24.63,21.04-54.74,34.46-85.33,44.37c-37.78,12.25-77.45,19.43-117.12,21.3
				c-39.06,1.84-78.86-1.36-116.12-13.78c-40.47-13.48-77.65-35.67-110.29-62.98c-70.42-58.92-117.5-140.59-151.71-224.67
				c-4.43-10.9-8.67-21.88-12.75-32.92c-0.57-1.53-1.81-2.55-3.53-2.04c-49.13,14.65-105.69-11.47-125.57-58.97
				c-10.14-24.22-11.57-52.33-3.37-77.34c8.04-24.52,25.1-44.19,48.04-55.95c25.09-12.87,55.43-15.56,82.07-5.95
				C286.56,926.57,292.85,914.76,287.96,912.99L287.96,912.99z"/>
		</g>
	</g>
</g>
<g id="Ebene_9">
</g>
<g id="Ebene_2">
	<g>
		<g>
			<path d="M294.72,913.35c-53.24-23.79-118.58-0.17-145.96,50.88c-13.74,25.62-18.35,55.77-12.98,84.32
				c5.34,28.37,21.54,53.41,45.1,70.06c25.65,18.13,58.52,25.41,89.26,18.46c4.89-1.11,8.97-13.61,2.28-12.1
				c-50.99,11.53-106.37-19.4-123.23-68.88c-8.51-24.98-7.89-52.97,1.8-77.53c9.57-24.22,28.3-42.9,52.05-53.35
				c26.69-11.74,58.27-12.12,84.93-0.21C293.12,927.3,299.61,915.54,294.72,913.35L294.72,913.35z"/>
		</g>
	</g>
	<g>
		<g>
			<path d="M1004.75,927.55c28.72-3.19,58.84-6.52,86.96,2.18c23.65,7.32,44.09,23.1,53.12,46.65c4.87,12.69,6.83,26.25,7.57,39.75
				c0.7,12.62,0.6,25.38-1.33,37.89c-1.87,12.09-5.42,24.05-12.14,34.38c-6.58,10.12-16.12,17.9-26.69,23.58
				c-28.73,15.43-62.4,14.38-94.04,13.36c-5.24-0.17-10.46,12.12-4.63,12.31c30.71,0.98,62.29,1.61,91.05-10.82
				c26.11-11.29,44.83-32.81,52.57-60.14c7.51-26.5,7.29-57.2,1.25-83.99c-6.16-27.33-23.05-48.92-48.75-60.37
				c-32.42-14.44-68.43-10.69-102.67-6.89C1002.04,916.01,997.79,928.33,1004.75,927.55L1004.75,927.55z"/>
		</g>
	</g>
	<g>
		<g>
			<path d="M266.62,1135.04c21.8,69.67,56.39,135.89,102.57,192.52c44.96,55.13,101.93,101.93,168.7,127.79
				c64.81,25.1,137.01,31.32,204.96,16.26c33.62-7.45,66.21-20.28,95.54-38.38c30.81-19.02,57.63-43.88,80.26-72.07
				c47.49-59.17,76.06-131.24,95.29-203.99c2.36-8.92,4.57-17.88,6.66-26.87c0.6-2.56-0.64-5.37-3.58-4.85
				c-3.14,0.55-5.22,4.51-5.86,7.25c-16.57,70.99-40.92,142.27-83.15,202.39c-20.41,29.06-44.91,55.46-73.74,76.33
				c-27.23,19.71-58.21,34.16-90.48,43.37c-65.26,18.61-136.36,16.39-200.81-4.56c-66.29-21.54-123.96-63.33-170.19-114.98
				c-47.61-53.17-84.18-116.32-108.45-183.34c-2.98-8.24-5.77-16.54-8.39-24.9C273.92,1120.49,265.11,1130.21,266.62,1135.04
				L266.62,1135.04z"/>
		</g>
	</g>
	<g>
		<g>
			<path d="M292.68,923.86c17.09-17.47,26.88-41.42,34.92-64.11c7.63-21.57,13.63-43.76,18.59-66.09c1.02-4.57,2.01-9.15,2.87-13.76
				c-2.34,2.45-4.69,4.9-7.03,7.35c29.82,1.77,60.61-1.92,89.92-6.95c66.8-11.48,131.84-36.12,187.82-74.58
				c40.03-27.51,75.08-61.65,103.69-100.9c-2.38,0.17-4.76,0.34-7.15,0.52c30.85,85.33,102.56,154.18,188.93,181.95
				c24.12,7.76,49.09,12.33,74.42,13.19c-0.85-1.15-1.69-2.31-2.54-3.46c2.7,43.52,9.77,87.46,25.34,128.35
				c2.46,6.47,11.14-3.29,9.34-8.02c-15.26-40.09-22.33-83.04-24.97-125.71c-0.09-1.48-0.71-3.4-2.54-3.46
				c-88.84-3.03-172.6-51.91-223.6-123.97c-14.61-20.64-26.44-43.1-35.04-66.89c-1.33-3.67-5.43-1.84-7.15,0.52
				c-47.13,64.65-112,113.91-186.37,143.18c-49.34,19.42-102.22,30.98-155.2,33.65c-10.05,0.51-20.22,0.88-30.28,0.29
				c-3.64-0.22-6.46,4.3-7.03,7.35c-6.56,35.15-16.16,71.11-31.41,103.51c-4.74,10.09-10.31,20.63-18.18,28.68
				c-2.07,2.11-4.41,5.55-3.35,8.7C287.63,925.99,290.84,925.74,292.68,923.86L292.68,923.86z"/>
		</g>
	</g>
	<g>
		<g>
			<path d="M797.57,1207.99c-14.43,21.6-32.68,43.34-57.49,53.16c-21.83,8.64-45.79,6.08-67.62-1.2
				c-16.06-5.36-31.32-12.91-46.09-21.12c-4.83-2.69-11.54,8.97-6.73,11.65c25.18,14.01,53.17,27.27,82.47,28.45
				c25.37,1.02,48.63-8.83,67.55-25.4c13.67-11.97,24.83-26.44,34.88-41.49c1.3-1.94,2.42-6.37-0.13-7.84
				C801.69,1202.6,798.82,1206.11,797.57,1207.99L797.57,1207.99z"/>
		</g>
	</g>
	<g>
		<g>
			<path d="M635.22,1027.54c8.58-7.13,21.22-8.43,31.45-4.26c10.77,4.4,17.96,14.33,19.2,25.88c1.15,10.73-2.72,21.06-12.46,26.4
				c-10.15,5.57-22.73,5.01-32.47-1.11c-4.61-2.9-11.45,8.68-6.73,11.65c20.89,13.13,48.09,1.85,57.68-19.74
				c9.49-21.39,1-49.31-22.72-56.18c-12.79-3.71-26.44-0.45-36.6,8c-2.22,1.85-4.34,5.74-3.35,8.7
				C630.23,1029.86,633.26,1029.17,635.22,1027.54L635.22,1027.54z"/>
		</g>
	</g>
	<g>
		<path d="M573.49,919.56c-1.87-8.7,0.28-17.7,1.91-26.46s2.65-18.24-1.22-26.21c-3.87-7.98-14.44-13.06-21.6-8.03
			c-7.58,5.32-6.49,16.77-7.08,26.18c-0.47,7.49-2.52,14.77-3.62,22.18s-1.15,15.34,2.15,22.03c3.3,6.7,10.72,11.69,17.85,10.04
			s11.71-11.52,7.12-17.36"/>
		<g>
			<path d="M578.16,915.55c-3.22-17.62,8.64-35.31,0.69-52.67c-6.06-13.25-22.81-16.23-31.85-4.37c-4.43,5.81-5.58,13.05-5.98,20.14
				c-0.49,8.59-1.49,16.68-3.07,25.15c-2.68,14.42-3.08,36.19,14.55,41.27c14.64,4.22,29.38-15.43,20.67-28.21
				c-3.32-4.87-11.31,5.81-8.35,10.16c3.38,4.97-1.79,7.22-6.31,6.12c-7.44-1.81-11.52-9.37-12.29-16.45
				c-0.86-7.95,1.37-15.81,2.76-23.56c1.27-7.09,1.21-14.08,1.82-21.21c0.47-5.55,1.74-9.96,8.42-8.65
				c6.49,1.27,10.78,6.91,12.16,13.07c1.67,7.51-0.21,15.29-1.59,22.68c-1.54,8.23-2.49,16.26-0.97,24.56
				c0.58,3.18,4.29,2.04,5.99,0.67C577.29,922.23,578.73,918.69,578.16,915.55L578.16,915.55z"/>
		</g>
	</g>
	<g>
		<path d="M743.89,905.04c3.79-8.52,7.68-17.57,6.64-26.87s-9.1-18.45-18.08-16.85c-9.76,1.74-13.83,13.72-15.11,23.8
			c-1.37,10.79-1.71,21.72-1.03,32.59c0.49,7.77,2.63,17.03,9.81,19.53c6.32,2.2,13.32-2.58,16.13-8.79
			c2.81-6.21,2.52-13.37,2.18-20.21"/>
		<g>
			<path d="M748.15,905.44c5.88-13.25,12.49-31.29,1.43-43.85c-9.66-10.98-23.42-6.38-30.42,4.87c-8.06,12.96-8.22,30.57-8.04,45.31
				c0.14,10.71,0.5,31.01,15.23,32.15c7.69,0.6,14.71-5.44,18.41-11.64c4.83-8.11,4.96-17.58,4.51-26.72
				c-0.14-2.93-2.36-4.12-4.94-2.85c-2.71,1.33-4.9,5.24-4.76,8.24c0.27,5.43,1.58,14.08-2.68,18.36
				c-4.2,4.23-10.25,2.06-12.91-2.64c-2.92-5.16-2.94-11.66-3.11-17.4c-0.23-7.81,0.03-15.66,0.93-23.43
				c0.95-8.18,4.25-24.05,16.09-16.87c13.28,8.04,6.55,24.78,1.71,35.69c-0.96,2.17-1.01,6.07,1.95,6.55
				C744.68,911.69,747.15,907.7,748.15,905.44L748.15,905.44z"/>
		</g>
	</g>
	<g>
		<g>
			<path d="M719.32,821.54c26.06-0.86,51.17,10.69,67.6,30.92c3.81,4.69,11.63-6.11,8.35-10.16c-17.29-21.28-43.8-33.97-71.32-33.06
				C718.72,809.4,713.66,821.73,719.32,821.54L719.32,821.54z"/>
		</g>
	</g>
	<g>
		<g>
			<path d="M508.16,849.99c16.21-19.05,42.01-27.72,66.51-23.5c5.09,0.88,10.64-11.27,4.63-12.31
				c-28.54-4.92-57.52,6.99-76.09,28.82c-1.64,1.93-3.61,6.23-1.7,8.58C503.5,854.02,506.66,851.75,508.16,849.99L508.16,849.99z"/>
		</g>
	</g>
	<g>
		<g>
			<path d="M1038.61,959.95c35.7,5.47,64.83,37.44,67.96,73.29c0.69,7.95,10.15-0.21,9.7-5.39c-3.42-39.21-33.58-74.17-73.03-80.21
				C1038.11,946.86,1032.61,959.04,1038.61,959.95L1038.61,959.95z"/>
		</g>
	</g>
	<g>
		<g>
			<path d="M248.01,936.38c-44.52,5.99-78,52.84-73.35,96.72c0.84,7.95,10.25-0.2,9.7-5.39c-3.99-37.65,23.55-74.15,61.37-79.24
				C250.71,947.81,254.92,935.45,248.01,936.38L248.01,936.38z"/>
		</g>
	</g>
</g>
<g id="Ebene_8">
	<ellipse class="st8" cx="565" cy="874.55" rx="5.98" ry="6.13"/>
	<ellipse class="st8" cx="739.08" cy="879.82" rx="5.75" ry="5.91"/>
</g>
<g id="Ebene_10">
	<g class="st9">
		<path class="st10" d="M522.11,1218.31c-1.3-21.37-19.63-39.71-40.34-42.37s-41.96,9.3-52.63,27.7
			c-10.67,18.4-11.14,42.1-3.09,61.86c8.95,21.93,28.73,39.43,51.63,43.04c22.9,3.61,47.92-8,58.61-29.1
			c10.69-21.1,4.6-50.21-14.72-63.34"/>
		<g>
			<path class="st10" d="M526.96,1215.62c-2.27-28.81-29.13-50.2-57.73-45.44c-31.44,5.24-51.86,35.39-53.47,65.75
				c-1.59,30.07,15.06,60.74,42.74,73.57c25.85,11.98,57.39,4.18,74.97-18.29c18.72-23.92,17.51-62.6-8.54-80.95
				c-4.38-3.08-11.33,8.41-6.73,11.65c17.57,12.38,24.16,39.17,13.23,57.98c-11.71,20.17-38.82,27.53-60.19,20.37
				c-23.74-7.94-41.01-30.22-45.02-54.61c-4.21-25.64,7.09-52.87,33-61.48c25.72-8.54,55.81,8.8,58.02,36.81
				C517.89,1228.96,527.37,1220.8,526.96,1215.62L526.96,1215.62z"/>
		</g>
	</g>
	<g class="st9">
		<path class="st10" d="M922.88,1151.5c-1.3-21.37-19.63-39.71-40.34-42.37c-20.7-2.66-41.96,9.3-52.63,27.7s-11.14,42.1-3.09,61.86
			c8.95,21.93,28.73,39.43,51.63,43.04c22.9,3.61,47.92-8,58.61-29.1c10.69-21.1,4.6-50.21-14.72-63.34"/>
		<g>
			<path class="st10" d="M927.73,1148.81c-2.27-28.81-29.13-50.2-57.73-45.44c-31.44,5.24-51.86,35.39-53.47,65.75
				c-1.59,30.07,15.06,60.74,42.74,73.57c25.85,11.98,57.39,4.18,74.97-18.29c18.72-23.92,17.51-62.6-8.54-80.95
				c-4.38-3.08-11.33,8.41-6.73,11.65c17.57,12.38,24.16,39.17,13.23,57.98c-11.71,20.17-38.82,27.53-60.19,20.37
				c-23.74-7.94-41.01-30.22-45.02-54.61c-4.21-25.64,7.09-52.87,33-61.48c25.72-8.54,55.81,8.8,58.02,36.81
				C918.65,1162.15,928.13,1153.99,927.73,1148.81L927.73,1148.81z"/>
		</g>
	</g>
</g>
<g id="Ebene_11">
</g>
<g id="Ebene_12">
	<g>
		<g>
			<path class="st11" d="M99.45,1929.78c11.28-5.65,23.56-10.97,35.07-3.56c8.11,5.22,17.52,8.96,26.67,11.78
				c6.33,1.94,12.88,4.96,19.4,5.82c11.19,1.48,23.22-2.22,34.16-4.17c8.37-1.49,18.39-1.39,25.86-6.56
				c5.93-4.1,12.7-10.27,17.19-16.25c8.16-10.89,25.18-37.5,9.87-48.15c-5.11-3.56-9.55-3.16-15.19-4.4
				c-5.24-1.16-10.27-3.63-15.57-4.84c-9.66-2.19-19.47-3.63-29.15-5.7c-7.48-1.6-12.58-5.53-17.79-12.07
				c-3.26-4.09-4.51-9.76-7.95-13.62c-3.91-4.4-10.14-6.04-15.35-7.48c-8.87-2.44-19.45-3.92-28.53-1.75
				c-9.17,2.19-16.52,9.43-23.91,15.27c-6.5,5.14-11.76,10.58-16.11,17.92c-3.91,6.61-6.48,14.04-10.08,20.82
				c-4.17,7.84-8.77,14.27-13.96,21.49c-4.65,6.47-13.82,14.54-6.41,22.76c4.97,5.51,23.55,13.46,30.68,13.45"/>
			<g>
				<path d="M99.54,1935.16c9.29-4.62,20.06-9.51,30.14-4.23c9.16,4.81,17.7,9.35,27.64,12.52c10.76,3.43,20.27,7.38,31.81,6.4
					c10.34-0.89,20.36-3.88,30.64-5.22c10.33-1.34,18.48-3.79,26.67-10.44c6.98-5.66,12.79-12.31,17.83-19.72
					c7.6-11.16,16.76-26.61,13.74-40.72c-1.6-7.51-7.51-12.19-14.78-13.93c-4.87-1.16-9.62-1.64-14.42-3.29
					c-5.31-1.82-10.53-3.3-16.04-4.4c-9.7-1.93-21.82-2.13-30.36-7.46c-3.67-2.29-6.94-5.6-9.35-9.19
					c-2.79-4.16-4.03-9.18-7.54-12.88c-5.87-6.19-15.92-8.21-23.99-9.68c-9.83-1.79-20.24-1.77-29.38,2.66
					c-8.4,4.07-16.05,10.95-22.99,17.1c-7.53,6.67-13.4,14.62-17.77,23.66c-5.11,10.58-9.89,20.7-16.71,30.33
					c-5.37,7.58-13.95,15.47-14.48,25.32c-0.46,8.69,6.59,13.49,13.48,17.06c6.65,3.45,14.76,7.2,22.39,7.45
					c5.08,0.17,10.14-11.75,4.49-11.93c-5.84-0.19-11.69-2.73-16.91-5.13c-4.01-1.85-14.1-5.81-14.1-11.4c0-2.68,3.33-5.74,4.87-7.7
					c2.83-3.58,5.42-7.35,8.01-11.1c5.27-7.66,9.73-15.57,13.54-24.05c3.63-8.07,7.48-15.64,13.99-21.8
					c6.04-5.73,13.04-11.84,20.3-15.94c8.17-4.62,17.83-4.22,26.79-2.59c7.26,1.32,17.15,3.05,21.87,9.33
					c2.55,3.39,3.71,7.62,6.06,11.14c2.14,3.22,5.07,6.18,8.07,8.6c6.68,5.39,15.2,6.4,23.38,7.91c10.05,1.85,19.57,4.05,29.3,7.14
					c7.05,2.24,17.18,1.43,21.65,8.43c6.16,9.65-3.98,24.42-9.29,32.24c-4.3,6.33-9.49,11.8-15.54,16.49
					c-7.22,5.61-15.75,5.96-24.46,7.26c-10.54,1.57-20.95,5.21-31.72,4.73c-5.86-0.26-11.23-2.12-16.72-4.04
					c-4.97-1.74-10.03-3.21-14.94-5.11c-4.83-1.87-9.56-4.04-14.04-6.64c-4.34-2.52-8.38-4.96-13.49-5.57
					c-9.8-1.17-19.33,3.39-27.85,7.62C94.88,1926.63,92.62,1938.6,99.54,1935.16L99.54,1935.16z"/>
			</g>
		</g>
		<g>
			<path class="st12" d="M107.93,1784.51c-14.78,5.84-24.42,21.74-32.05,36c-6.12,11.43-10.63,28.71-6.31,41.75
				c3.24,9.76,13.67,12.44,22.09,13.23c11.54,1.08,22.96-7.19,33.89-10.11c7.65-2.04,15.37-1.27,21.6,4.3
				c5.36,4.8,7.19,10.58,15.34,8.37c8.36-2.27,15.87-8.17,22-14.51c6.24-6.45,10.56-14.09,9.82-23.93
				c-0.76-10.11-6.55-16.43-13.49-22.53c-2.62-2.3-5.05-4.35-8.15-5.9c-4.01-2.01-8.78-2.92-12.53-5.46
				c-5.67-3.84-8.47-10.92-7.14-17.83c0.91-4.75,1.45-8.65-1.74-12.4c-13.67-16.1-39.51,7.56-44.34,9.24"/>
			<g>
				<path d="M107.84,1779.14c-13.77,5.78-23.2,18.41-30.58,30.89c-7.76,13.12-13.98,27.35-14.1,42.87
					c-0.05,6.54,0.92,14.19,5.19,19.43c3.93,4.82,9.79,7.15,15.73,8.36c7.05,1.44,13.79,0.72,20.55-1.7
					c7.59-2.71,14.82-7.16,22.87-8.41c8.43-1.3,14.23,2.47,19.74,8.36c4.56,4.88,9.1,6.63,15.7,4.5
					c14.06-4.53,27.83-17.23,33.48-30.88c5.88-14.19,1.4-28.31-9.42-38.47c-2.58-2.42-5.23-4.89-8.18-6.85
					c-3.54-2.37-7.55-3.42-11.42-5.07c-7.95-3.38-10.66-9.51-9.46-17.74c1.08-7.42-0.81-14.17-7.61-18.14
					c-4.96-2.89-10.97-2.78-16.37-1.36c-5.78,1.52-11.21,4.39-16.27,7.52c-2.08,1.29-4.1,2.66-6.14,4.02
					c-0.86,0.58-1.74,1.13-2.61,1.71c-0.37,0.25-2.25,1.2-0.96,0.68c-2.92,1.16-5.14,3.88-5.68,7.03c-0.34,1.98,0.49,5.89,3.47,4.7
					c6.3-2.51,11.59-7.41,17.6-10.56c7.16-3.74,17.72-7.18,23.8,0.38c3.73,4.64,0.17,11.71,1.1,17.25c1.01,6.04,4.5,11.42,9.85,14.5
					c5.58,3.21,11.64,4.24,16.81,8.36c4.83,3.86,9.89,8.53,12.6,14.2c6.34,13.24-2.72,24.59-13.15,32.07
					c-4.24,3.04-11.9,8.13-16.95,4.38c-4.97-3.69-7.59-8.85-13.73-11.2c-13.01-4.96-25.01,3.02-36.9,7.27
					c-9.58,3.43-25.33,3.74-31.52-6.32c-7.33-11.93-0.68-30.07,5.36-41.09c6.58-12.01,14.2-24.45,27.34-29.97
					C112.67,1787.94,115,1776.13,107.84,1779.14L107.84,1779.14z"/>
			</g>
		</g>
		<g>
			<path class="st13" d="M174.89,1854.26c6.98,6.45,12.9,12.44,22.24,13.41c4.48,0.47,8.84-0.25,13.26-1.04
				c6.81-1.22,12.26-2.28,18.04,2.48c11.25,9.27,22.49,18.35,33.94,27.4c2.8,2.21,4.7,3.66,8.25,3.92
				c4.44,0.32,7.99,1.15,12.44,0.31c9.53-1.8,16.48-6.06,22.62-14.27c5.4-7.22,8.51-18.51,7.13-27.82
				c-1.79-12.06-12.04-17.02-20.79-22.39c-6.95-4.27-14.2-8.72-15.98-17.73c-0.84-4.26-1.27-8.29-1.27-12.65
				c0-4.53,1.24-9.04,0.92-13.52c-1.44-19.89-21.84-24.93-36.95-23.65c-13.11,1.11-23.96,11.4-31.3,22.68
				c-2.69,4.13-5.38,8.29-9.34,11.14c-3.92,2.82-8.74,4.28-13.03,6.26c-5.52,2.55-9.62,7.01-13.32,12.02
				c-2.69,3.64-5.22,7.3-6.05,12.04c-0.86,4.95,0.3,9.88,2.99,13.83c2.56,3.77,10.81,11.38,13.46,15.06"/>
			<g>
				<path d="M170.84,1859.19c5.62,5.21,11.16,10.83,18.62,13.25c8.94,2.91,17.09-0.48,26.03-0.86c9.01-0.38,16.4,8.71,22.89,13.98
					c7.52,6.1,14.9,12.93,22.96,18.29c6.29,4.19,16.49,3.94,23.54,2.09c7.42-1.95,13.9-5.9,19.2-11.42
					c10.6-11.05,17.94-30.28,11.7-45.24c-5.89-14.1-22.38-16.14-31.48-26.98c-5.9-7.03-5.06-17.54-4.2-26.06
					c0.72-7.11-0.11-14.32-4.15-20.39c-6.75-10.14-20.22-13.55-31.74-13.29c-16.49,0.38-29.26,11.1-38.31,24.13
					c-2.76,3.98-5.11,8.57-9.23,11.34c-3.99,2.68-8.84,3.78-13.04,6.05c-7.85,4.24-14.24,12.09-18.62,19.73
					c-4.54,7.9-5.91,17.44-1.56,25.73c3.49,6.66,10.15,11.19,14.66,17.12c3.51,4.62,11.16-5.81,8.09-9.85
					c-6.9-9.09-21.91-18.02-13.28-30.88c4.02-5.99,8.51-10.23,15.17-13.03c6.93-2.92,12.81-6.08,17.56-12.08
					c8.88-11.22,15.86-24.88,31.92-26.22c9.56-0.8,21.43,1.13,28.25,8.48c4.46,4.8,5.6,10.82,4.97,17.18
					c-0.77,7.69-0.98,15.31,0.91,22.89c3.18,12.76,16.17,17.51,25.95,24.27c5.15,3.56,9.48,8.08,10.51,14.48
					c1.09,6.72-0.6,14.45-4.23,20.2c-3.42,5.42-8.65,9.55-14.75,11.51c-6.54,2.1-16,2.69-21.85-1.45
					c-7.51-5.31-14.54-11.51-21.68-17.3c-6.32-5.12-13.3-13.38-21.59-14.95c-8.2-1.55-16.41,2.68-24.68,1.79
					c-8.37-0.9-14.55-6.92-20.44-12.37C174.52,1845.25,167.25,1855.86,170.84,1859.19L170.84,1859.19z"/>
			</g>
		</g>
		<g>
			<path class="st11" d="M295.7,1719.49c-14.72-14.98-34.87-30.44-56.21-25.97c-17.22,3.6-29.9,10.57-43.23,22.93
				c-10.88,10.08-20.21,20.24-29.18,32.38c-7.28,9.86-15.39,22.16-19.06,34.29c-3.23,10.69-1.34,17.17,3.22,26.92
				c3.88,8.31,14.49,12.72,22.41,14.86c19.37,5.24,40.64,2.06,60.49,2.27c6.54,0.07,12.14,2.35,18.9,2.01
				c3.55-0.18,34.52,11.64,45.44-15.47c10.99-27.27-41.37-13.6,13.19-65.33c8.88-8.42,3.74-15.53-3.31-22.83
				c-5.57-5.78-13.28-11.16-21.47-9.91"/>
			<g>
				<path d="M299.74,1714.57c-15.5-15.64-35.7-31.47-59.15-26.91c-23.09,4.49-40.8,18.64-56.75,35.17
					c-8.6,8.92-16.43,18.49-23.5,28.67c-7.01,10.08-13.55,20.88-16.9,32.78c-3.06,10.85-1.42,21.42,4.05,31.27
					c4.63,8.34,14,12.47,22.76,15c12.23,3.53,25.1,3.58,37.72,3.2c6.76-0.2,13.52-0.56,20.29-0.61c6.48-0.05,12.53,1.56,18.94,1.97
					c11.1,0.7,21.97,4.35,33.08,0.91c13.22-4.09,25.4-18.72,24.4-33.1c-0.57-8.18-6.95-11.55-11.37-16.93
					c-1.28-1.56-1.82-2.36-2.14-3.86c-0.26-1.2-0.07-2.23,0.47-3.66c2.73-7.29,10.65-15.05,16.54-20.91
					c4.85-4.82,10.16-9.14,12.15-15.95c1.52-5.21,0.37-10.18-2.6-14.64c-6.55-9.82-17.48-18.44-29.75-17.17
					c-4.84,0.5-8.97,12.42-2.21,11.73c9.69-1,19.56,8.18,24.26,15.88c3.13,5.13-0.05,6.76-3.77,10.44
					c-3.78,3.73-7.49,7.54-10.97,11.56c-6.62,7.66-15.75,19.05-13.27,30.06c1.4,6.21,6.69,9.27,10.36,13.45
					c2.07,2.36,3.03,4.15,2.95,6.52c-0.04,1.05-0.32,2.25-1,3.9c-1.33,3.25-3.34,6.17-6.22,8.23c-8.54,6.11-20.15,4.14-29.71,2.18
					c-1.39-0.29-2.63-0.44-4.04-0.51c-5.48-0.27-10.77-1.59-16.23-1.96c-11.59-0.78-23.36,0.72-34.97,0.7
					c-10.81-0.02-22.06-0.75-32.25-4.66c-9.15-3.51-14.73-8.68-18.03-17.98c-3.69-10.37-0.08-19.93,4.97-29.19
					c5.1-9.37,11.42-18.09,18.16-26.35c14.18-17.39,31.18-35.11,53.12-42.01c11.78-3.71,22.69-4.02,34.06,1.26
					c10.84,5.04,20.1,12.95,28.46,21.38C295.87,1728.67,303.23,1718.09,299.74,1714.57L299.74,1714.57z"/>
			</g>
		</g>
		<g>
			<path class="st14" d="M299.22,1667.54c-20.1-5.41-63.67,21.21-71.13,34.57c-6.25,11.18-9.28,20.25-8.81,33.5
				c0.36,10.09,5.22,21.92,11.66,29.19c17.89,20.19,42.23,0.02,62.58,9.43c6.96,3.22,10.03,9.24,15.61,14.21
				c6.74,6.02,14.75,9.69,23.48,9.22c8.38-0.45,16.6-5.31,22.52-11.56c5.68-6,13.81-14.99,15.59-23.72
				c1.98-9.72-4.53-17.98-10.49-24.39c-8.16-8.78-16.4-13.94-22.54-24.91c-3.28-5.86-7.58-12.38-7.4-19.66
				c0.1-4.2,2.6-5.78,0.42-9.81c-8.51-15.74-25.63-15.52-33.76-16.82"/>
			<g>
				<path d="M301.46,1661.58c-11.87-2.9-25.27,2.56-35.85,7.46c-12.01,5.56-24.06,12.84-33.57,22.14
					c-10.56,10.31-16.47,25.62-17.38,40.2c-1.02,16.29,5.31,36.93,20.61,45.22c14.41,7.81,30.36-0.02,45.54,1.04
					c9.52,0.67,14.8,5.75,20.96,12.43c5.95,6.45,13.39,11.62,22.18,13.17c18.38,3.23,33.48-11.52,43.29-25.22
					c5.21-7.28,9.57-15.93,8.24-25.13c-1.25-8.61-7.06-15.61-12.96-21.63c-7.36-7.51-15.41-13.87-20.79-23.08
					c-2.67-4.56-5.77-9.38-6.55-14.69c-0.62-4.24,2-8.04,0.66-12.34c-4.93-15.79-22.92-18.24-36.65-20.31
					c-4.97-0.75-10.3,11.06-4.49,11.93c10.93,1.65,22.35,2.45,29.59,12.07c0.77,1.03,2.32,2.79,2.5,4.08
					c0.17,1.25-0.72,2.93-0.94,4.21c-0.64,3.8-0.08,7.85,1.12,11.48c2.44,7.39,6.96,15.02,11.9,21
					c4.85,5.88,10.88,10.62,16.16,16.09c5.03,5.21,11.76,12.31,11.35,20.12c-0.38,7.25-7.15,13.92-11.78,18.92
					c-5.4,5.83-12.35,10.67-20.55,10.99c-8.53,0.33-16.62-3.96-22.57-9.83c-5.1-5.04-9.05-11.07-15.96-13.85
					c-13.13-5.29-26.58,0.03-40.02,0.18c-32.21,0.34-39.47-46.45-22.62-66.05c7.73-8.99,19.05-15.51,29.52-20.73
					c10.1-5.03,23.08-10.74,34.59-7.92C301.77,1674.68,307.29,1663,301.46,1661.58L301.46,1661.58z"/>
			</g>
		</g>
	</g>
	<g>
		<g>
			<path class="st11" d="M1200.27,1923.47c-11.28-5.65-23.56-10.97-35.07-3.56c-8.11,5.22-17.52,8.96-26.67,11.78
				c-6.33,1.94-12.88,4.96-19.4,5.82c-11.19,1.48-23.22-2.22-34.16-4.17c-8.38-1.49-18.39-1.39-25.86-6.56
				c-5.93-4.1-12.7-10.27-17.19-16.25c-8.16-10.89-25.18-37.5-9.87-48.15c5.11-3.56,9.55-3.16,15.19-4.4
				c5.24-1.16,10.27-3.63,15.57-4.84c9.66-2.19,19.47-3.63,29.15-5.7c7.48-1.6,12.58-5.53,17.79-12.07
				c3.26-4.09,4.51-9.76,7.95-13.62c3.91-4.4,10.14-6.04,15.35-7.48c8.87-2.44,19.45-3.92,28.53-1.75
				c9.17,2.19,16.52,9.43,23.91,15.27c6.5,5.14,11.76,10.58,16.11,17.92c3.91,6.61,6.48,14.04,10.08,20.82
				c4.17,7.84,8.77,14.27,13.96,21.49c4.65,6.47,13.82,14.54,6.41,22.76c-4.97,5.51-23.55,13.46-30.68,13.45"/>
			<g>
				<path d="M1203.53,1917.83c-7.7-3.83-16.12-7.82-24.92-7.49c-9.17,0.34-16.05,6.23-24.07,9.93c-8.4,3.87-17.5,6.66-26.3,9.45
					c-9.92,3.15-19.46,2.02-29.48-0.01c-8.75-1.77-17.67-2.71-26.38-4.55c-8.89-1.87-15.99-7.93-22.07-14.43
					c-8.52-9.12-16.78-21.69-19.26-34.05c-1.25-6.23-0.1-9.74,6.57-11.33c3.99-0.95,8.05-1.24,11.99-2.44
					c4.97-1.52,9.72-3.4,14.82-4.49c9.44-2.02,19.34-2.92,28.6-5.66c7.3-2.16,13.27-6.93,18.09-12.71
					c2.84-3.41,4.65-7.12,6.64-11.04c2.04-4.02,4.51-5.76,8.77-7.26c8.26-2.9,17.44-4.76,26.2-4.21
					c9.27,0.58,16.29,5.16,23.32,10.86c6.59,5.35,13.26,10.51,18.32,17.41c6.1,8.32,9.18,18.24,14.12,27.21
					c4.71,8.55,10.45,16.56,16.46,24.23c1.79,2.29,6.44,7.18,4.71,10.16c-1,1.74-5.21,3.41-7,4.33c-5.6,2.9-12.61,6.33-19.04,6.54
					c-5.07,0.17-9.98,12.11-4.49,11.93c6.64-0.22,13.09-2.85,19.08-5.5c6.53-2.89,13.61-6.52,17.78-12.54
					c5.41-7.81,3.77-15.87-1.64-23.08c-5.78-7.71-11.64-15.31-16.49-23.67c-5.3-9.13-8.44-19.42-14.46-28.14
					c-5.58-8.09-13.27-14.06-20.83-20.18c-7.6-6.16-15.38-10.85-25.35-11.49c-9.54-0.62-19.48,1.35-28.48,4.41
					c-9.57,3.25-14.75,9.09-19.15,17.96c-4.68,9.45-12.07,12.79-21.97,14.71c-10.91,2.12-21.82,3.69-32.36,7.33
					c-8.86,3.06-18.93,2.65-26.23,9.24c-12.08,10.9-7.78,27.53-1.32,40.12c3.25,6.33,7.18,12.5,11.7,18
					c5.91,7.19,13.89,15.06,22.84,18.16c4.91,1.7,10.02,2.32,15.14,2.98c6,0.78,11.86,2.12,17.79,3.3
					c12.47,2.47,23.23,2.36,35.28-1.88c10.87-3.82,21.9-7.03,31.93-12.87c5.8-3.38,10.49-5.54,17.39-4.44
					c6.11,0.98,11.75,3.76,17.24,6.49C1201.85,1931.53,1208.25,1920.17,1203.53,1917.83L1203.53,1917.83z"/>
			</g>
		</g>
		<g>
			<path class="st12" d="M1191.79,1778.2c14.78,5.84,24.42,21.74,32.05,36c6.12,11.43,10.63,28.71,6.31,41.75
				c-3.24,9.76-13.67,12.44-22.09,13.23c-11.54,1.08-22.96-7.19-33.89-10.11c-7.65-2.04-15.37-1.27-21.6,4.3
				c-5.36,4.8-7.19,10.58-15.34,8.37c-8.36-2.27-15.87-8.17-22-14.51c-6.24-6.45-10.56-14.09-9.82-23.93
				c0.76-10.11,6.55-16.43,13.49-22.53c2.62-2.3,5.05-4.35,8.15-5.9c4.01-2.01,8.78-2.92,12.53-5.46
				c5.67-3.84,8.47-10.92,7.14-17.83c-0.91-4.75-1.45-8.65,1.74-12.4c13.67-16.1,39.51,7.56,44.34,9.24"/>
			<g>
				<path d="M1188.53,1783.85c11.87,4.98,19.68,15.34,26.11,26.09c6.7,11.2,12.41,23.31,12.52,36.64c0.04,5.15-0.3,10.6-5.11,13.4
					c-4.64,2.7-11.17,3.71-16.45,3.19c-13.4-1.34-24.44-11.8-38.29-11.04c-5.99,0.33-11.51,2.75-16.01,6.7
					c-2.06,1.81-3.63,4.16-5.67,5.94c-2.51,2.19-5.25,1.42-8.22,0.3c-11.02-4.14-23.52-14.79-26.62-26.52
					c-3.32-12.55,6.73-24.11,17.74-28.94c5.74-2.52,11.26-3.93,15.73-8.65c4.45-4.71,7.27-11.05,7.49-17.56
					c0.1-2.88-1.96-7.73-1-10.32c0.65-1.74,2.79-2.63,4.48-3.1c4.59-1.28,9.76,0.31,13.97,2.13c4.49,1.93,8.67,4.49,12.74,7.17
					c2.44,1.6,4.88,3.7,7.62,4.79c5.09,2.03,11.27-9.4,6.52-11.3c-3.01-1.2-5.7-3.55-8.4-5.31c-4.28-2.78-8.71-5.42-13.47-7.28
					c-10.71-4.16-21.95-3.08-29.06,6.86c-2.11,2.95-3.41,6.27-3.71,9.89c-0.32,3.93,1.34,7.81,0.89,11.69
					c-0.9,7.65-10.56,8.26-16.1,11.28c-12.42,6.76-23.97,20.17-25.38,34.56c-1.55,15.88,8.85,28.61,21.29,37.19
					c5.37,3.71,13.15,7.98,19.87,6c6.41-1.89,9-8.62,14.56-11.69c14.62-8.07,31.33,8.65,46.11,9.26c13,0.53,26.5-5.61,31.36-18.24
					c6-15.61,1.05-34.2-6.5-48.35c-7.58-14.21-17-29.57-32.49-36.07C1190.01,1770.44,1183.78,1781.86,1188.53,1783.85
					L1188.53,1783.85z"/>
			</g>
		</g>
		<g>
			<path class="st13" d="M1124.83,1847.95c-6.98,6.45-12.9,12.44-22.24,13.41c-4.48,0.47-8.84-0.25-13.26-1.04
				c-6.81-1.22-12.26-2.28-18.04,2.48c-11.25,9.27-22.49,18.35-33.94,27.4c-2.8,2.21-4.7,3.66-8.25,3.92
				c-4.44,0.32-7.99,1.15-12.44,0.31c-9.53-1.8-16.48-6.06-22.62-14.27c-5.4-7.22-8.51-18.51-7.13-27.82
				c1.79-12.06,12.04-17.02,20.79-22.39c6.95-4.27,14.2-8.72,15.98-17.73c0.84-4.26,1.27-8.29,1.27-12.65
				c0-4.53-1.24-9.04-0.92-13.52c1.44-19.89,21.84-24.93,36.95-23.65c13.11,1.11,23.96,11.4,31.3,22.68
				c2.69,4.13,5.38,8.29,9.34,11.14c3.92,2.82,8.74,4.28,13.03,6.26c5.52,2.55,9.62,7.01,13.32,12.02c2.69,3.64,5.22,7.3,6.05,12.04
				c0.86,4.95-0.3,9.88-2.99,13.83c-2.56,3.77-10.81,11.38-13.46,15.06"/>
			<g>
				<path d="M1123.55,1843.41c-4.96,4.59-10.03,10.02-16.86,11.59c-7.84,1.8-15.36-1.61-23.15-1.66
					c-7.47-0.05-12.41,4.02-17.93,8.55c-6.84,5.6-13.71,11.17-20.61,16.69c-3.15,2.52-6.23,5.18-9.5,7.54
					c-3.06,2.21-6.38,2.32-10.08,2.59c-7.04,0.52-14.09-1.69-19.8-5.81c-5.88-4.24-10.29-10.59-12.5-17.46
					c-1.85-5.78-3.4-13.89,0.19-19.32c3.16-4.79,9.18-7.56,13.93-10.45c5.27-3.21,10.62-6.56,14.62-11.35
					c4.71-5.64,6.57-12.35,7.34-19.54c0.4-3.73,0.6-7.47,0.27-11.2c-0.35-3.99-1.25-7.99-0.42-11.99
					c2.09-9.99,14.3-12.98,23.12-13.35c14.23-0.59,25.08,6.79,33.39,17.93c4.96,6.65,8.58,13.81,16.25,17.78
					c3.55,1.84,7.42,2.98,10.93,4.87c3.71,2,6.67,4.91,9.3,8.17c4.35,5.38,10.62,13.64,6.08,20.72c-3.44,5.36-9.09,9.27-12.95,14.36
					c-1.5,1.97-3.56,5.96-1.64,8.31c1.87,2.29,5.08,0.26,6.45-1.54c3.9-5.14,9.03-9.23,12.95-14.36c5.01-6.56,7.4-15.24,5.29-23.35
					c-1.89-7.25-7.52-14.23-12.96-19.19c-6.36-5.81-15.25-6.8-21.65-12.35c-6.5-5.63-9.98-14.31-16.11-20.44
					c-5.58-5.58-12.08-10.06-19.82-11.96c-11.53-2.83-25.84-0.23-35.37,6.86c-5.32,3.96-9.31,9.56-11.35,15.87
					c-2.74,8.46-0.37,16.44-0.77,25.04c-0.17,3.62-0.28,8.36-2.29,11.55c-1.93,3.05-5.56,5.15-8.54,7.01
					c-5.94,3.71-12.28,7-17.34,11.93c-11.77,11.44-12.51,28.87-5.77,43.22c7.03,14.96,21.81,23.28,38.12,21.68
					c4.62-0.45,8.19-1.14,12.03-3.89c4.35-3.12,8.46-6.63,12.64-9.97c4.43-3.55,8.85-7.12,13.26-10.71c3.89-3.16,8.38-8.34,13.18-10
					c4.21-1.45,9.29,0.17,13.5,0.86c4.9,0.8,9.86,1.24,14.76,0.25c9.02-1.82,15.85-8.35,22.36-14.38c2.08-1.93,4.24-5.47,3.25-8.43
					C1128.41,1841.26,1125.39,1841.71,1123.55,1843.41L1123.55,1843.41z"/>
			</g>
		</g>
		<g>
			<path class="st11" d="M1004.02,1713.18c14.72-14.98,34.87-30.44,56.21-25.97c17.22,3.6,29.9,10.57,43.23,22.93
				c10.88,10.08,20.21,20.24,29.18,32.38c7.28,9.86,15.39,22.16,19.06,34.29c3.23,10.69,1.34,17.17-3.22,26.92
				c-3.88,8.31-14.49,12.72-22.41,14.86c-19.37,5.24-40.64,2.06-60.49,2.27c-6.54,0.07-12.14,2.35-18.9,2.01
				c-3.55-0.18-34.52,11.64-45.44-15.47c-10.99-27.27,41.37-13.6-13.19-65.33c-8.88-8.42-3.74-15.53,3.31-22.83
				c5.57-5.78,13.28-11.15,21.47-9.91"/>
			<g>
				<path d="M1005.3,1717.72c14.35-14.48,32.62-29.04,54.29-24.2c20.51,4.58,36.15,17.08,50.43,31.92
					c14.52,15.1,29.96,33.49,36.65,53.66c2.76,8.34,2.72,19.72-4.23,26.28c-6.58,6.21-17.39,8.32-26,9.43
					c-11.56,1.49-23.3,0.72-34.9,0.32c-5.32-0.19-10.73-0.5-16.05-0.12c-5.56,0.4-11,1.53-16.57,1.89
					c-9.08,0.59-17.23,3.78-26.5,1.47c-6.76-1.68-12.14-6.12-15.42-12.23c-1.22-2.28-2.13-4.71-2.59-7.25
					c0,0.02-0.01-1.12-0.03-1.53c0.04,0.73,0.41-1.72,0.09-0.58c0.4-1.42-0.67,0.84,0.32-0.66c0.83-1.26-0.71,0.92-0.11,0.14
					c0.23-0.29,0.45-0.59,0.7-0.87c0.39-0.43,1.38-1.46,0.42-0.49c0.59-0.59,1.2-1.15,1.81-1.71c2.6-2.42,5.22-4.82,7.14-7.85
					c6.13-9.69,2.23-19.52-4.04-28.03c-2.94-3.99-6.26-7.7-9.67-11.29c-3.79-3.98-10.49-8.31-12.47-13.52
					c-1.63-4.28,3.39-8.23,6.25-10.87c4.45-4.09,9.56-6.99,15.76-6.35c5.03,0.52,10.25-11.34,4.49-11.93
					c-11.51-1.19-21.08,6.67-28.26,14.79c-6.35,7.17-11.51,17.39-5.16,26.22c3.49,4.86,8.84,8.83,12.92,13.22
					c3.32,3.57,6.53,7.29,9.3,11.31c1.52,2.21,3,4.52,3.93,7.06c0.36,0.97,0.6,1.95,0.82,2.96c0.07,0.34-0.01,1.48,0.01,1.26
					c-0.02,0.25-0.06,0.34-0.18,0.5c-0.58,0.81-1.4,1.6-0.78,0.96c-0.63,0.64-1.3,1.24-1.95,1.85c-2.97,2.75-5.91,5.53-7.93,9.09
					c-6.4,11.29-0.49,25.47,9.27,32.85c10.28,7.76,24.09,6.3,35.88,3.72c0.64-0.14,1.29-0.3,1.94-0.37
					c-1.64,0.18,0.39,0.06,0.47,0.06c1.28-0.01,2.54-0.06,3.81-0.16c6.63-0.57,12.91-1.94,19.62-1.85
					c13.56,0.19,27.12,1.39,40.67,0.21c10.29-0.9,21.08-3.08,30.01-8.55c9.44-5.78,14.6-15.03,17.36-25.57
					c2.94-11.21-0.56-22.01-5.51-32.1c-5.46-11.12-12.84-21.37-20.61-30.98c-15.89-19.66-34.95-38.96-59.72-46.44
					c-12.6-3.8-24.18-3.64-36.34,1.64c-12.2,5.29-22.62,14.24-31.9,23.59c-2.01,2.03-4.27,5.39-3.25,8.43
					C1000.41,1719.8,1003.51,1719.53,1005.3,1717.72L1005.3,1717.72z"/>
			</g>
		</g>
		<g>
			<path class="st14" d="M1000.5,1661.23c20.1-5.41,63.67,21.21,71.13,34.57c6.25,11.18,9.28,20.25,8.81,33.5
				c-0.36,10.09-5.22,21.92-11.66,29.19c-17.89,20.19-42.23,0.02-62.58,9.43c-6.96,3.22-10.03,9.24-15.61,14.21
				c-6.74,6.02-14.75,9.69-23.48,9.22c-8.38-0.45-16.6-5.31-22.52-11.56c-5.68-6-13.81-14.99-15.59-23.72
				c-1.98-9.72,4.53-17.98,10.49-24.39c8.16-8.78,16.4-13.94,22.54-24.91c3.28-5.85,7.58-12.38,7.4-19.66
				c-0.1-4.2-2.6-5.78-0.42-9.81c8.51-15.74,25.63-15.52,33.76-16.82"/>
			<g>
				<path d="M999.4,1667.1c10.13-2.48,21.73,2.25,30.79,6.39c10.6,4.84,20.93,11.02,29.77,18.66c9,7.77,14.37,19.55,15.56,31.31
					c1.37,13.48-3.31,33.03-18.19,37.36c-12.92,3.76-26.6-2.49-39.76-1.3c-7.11,0.64-13.64,3.34-18.91,8.22
					c-5.88,5.45-10.12,12.01-17.69,15.43c-16.69,7.54-31.13-5.34-40.63-17.84c-4.67-6.15-9.31-13.75-5.3-21.39
					c3.46-6.57,9.65-11.68,14.98-16.68c6.81-6.39,12.37-13.12,16.98-21.26c4.21-7.44,8.55-16.06,6.7-24.86
					c-0.34-1.62-0.75-2.22-0.21-3.66c0.54-1.44,2.17-2.73,3.31-3.71c2.51-2.15,5.55-3.61,8.69-4.59c5.28-1.65,10.76-2,16.19-2.82
					c4.82-0.73,8.88-12.73,2.21-11.73c-13.15,1.98-25.62,3.86-34.46,15.05c-2.61,3.3-5.21,7.21-5.84,11.44
					c-0.59,3.93,1.64,7.38,0.92,11.28c-1.59,8.64-8.68,17.7-14.81,23.66c-11.69,11.37-29.15,25.34-25.21,43.92
					c1.77,8.35,7.63,15.53,13.23,21.7c6.08,6.69,12.79,12.36,21.71,14.74c8.6,2.29,17.8,0.16,25.28-4.43
					c3.91-2.4,7.39-5.33,10.55-8.64c3.06-3.21,5.7-7.07,9.61-9.31c13.5-7.73,31.23,1.35,45.78-0.57
					c17.45-2.3,28.32-19.15,32.62-34.88c4.44-16.24,1.13-35.12-8.43-49.04c-7.45-10.86-21.03-18.69-32.45-24.58
					c-11.84-6.11-27.17-12.91-40.78-9.58C996.89,1656.52,992.97,1668.67,999.4,1667.1L999.4,1667.1z"/>
			</g>
		</g>
	</g>
</g>
<g id="Ebene_17">
	<g>
		<path class="st15" d="M998.17,780.9c3.56-14.03-3.92-30.35-16.34-35.65c-12.42-5.3-28.04,1.17-34.13,14.13
			c-6.08,12.96-1.78,30.59,9.41,38.51c-12.6-6.15-27.91-6.34-39.84,1.23c-11.93,7.57-19.54,23.36-16.88,38.14
			s16.49,26.63,30.12,24.32c-10.4,9.09-18.13,22.63-18.41,37.18c-0.28,14.55,8.14,29.54,20.97,33.46
			c12.83,3.93,28.39-6.07,29.49-20.57c-0.66,21.36,19.25,40.5,38.57,37.07c19.32-3.43,32.66-28.46,25.84-48.5
			c16.77,4.79,35.91-9.31,38.11-28.09c2.21-18.78-13.05-37.7-30.39-37.68c18.49-6.89,26.87-35.05,15.63-52.5
			c-11.24-17.44-38.35-18.32-50.52-1.64"/>
		<g>
			<path d="M1002.74,779.74c2.84-12.5-0.68-26.41-10.25-35.19c-8.9-8.17-21.37-8.91-31.97-3.64c-23.13,11.5-27.72,46.85-6.67,62.64
				c2.17-3.77,4.35-7.53,6.52-11.3c-11.83-5.51-25.31-6.61-37.47-1.45c-11.85,5.03-20.86,15.68-25.05,27.75
				c-3.99,11.51-3.75,24.45,2.97,34.91c6.26,9.74,17,15.58,28.58,13.99c-0.06-3.47-0.12-6.94-0.17-10.4
				c-19.14,17.2-31.07,49.13-12.77,71.36c7.35,8.92,18.51,13.02,29.59,8.96c11.28-4.14,19.79-14.91,21.08-26.87
				c-3.09,1.26-6.18,2.51-9.27,3.77c-0.21,23.12,21.88,47.54,46.29,39.23c21.96-7.48,34.19-35.62,27.35-57.16
				c-2.26,3.29-4.51,6.57-6.77,9.86c20.79,5.36,40.43-13.17,44.48-32.5c4.28-20.36-10.23-44.61-32.28-45.2
				c-1.12,3.94-2.23,7.89-3.35,11.83c22.23-8.87,33.33-39.36,22.29-60.64c-11.79-22.72-43.89-21.84-58.48-2.74
				c-1.5,1.96-3.55,5.97-1.64,8.31c1.87,2.3,5.07,0.26,6.45-1.54c10.83-14.18,34.1-11.53,43.72,2.65
				c8.75,12.89,5.58,35.96-10.12,42.23c-2.74,1.09-4.68,3.39-5.46,6.25c-0.48,1.79-0.65,5.5,2.11,5.58
				c16.19,0.43,29.59,16.91,28.06,32.88c-1.44,15.03-17.16,24.6-31.3,20.96c-4.12-1.06-7.79,6.65-6.77,9.86
				c4.84,15.25-2.58,35.26-19.61,38.62c-19.13,3.78-35.74-15.89-35.57-33.69c0.02-2.57-1.88-3.8-4.19-3.01
				c-2.52,0.86-4.8,4.21-5.08,6.78c-0.82,7.62-6.46,12.72-13.95,14.03c-8.62,1.51-16.43-3.67-21.17-10.52
				c-11.47-16.56-5.18-37.53,8.92-50.2c2.36-2.12,6.23-11.28-0.17-10.4c-19.16,2.62-30.99-20.26-25.5-36.4
				c6.82-20.04,30.31-23.9,47.73-15.78c4.91,2.29,10.81-8.08,6.52-11.3c-13.73-10.29-15.56-35.22,2.74-41.59
				c18.99-6.62,34.5,13.75,30.48,31.41c-0.56,2.48,0.61,5.21,3.47,4.7C1000.09,786.23,1002.14,782.4,1002.74,779.74L1002.74,779.74z
				"/>
		</g>
	</g>
</g>
<g id="Ebene_16">
	<g>
		<path class="st12" d="M1001.19,828.26c16.43,12.11,15.96,43.26-0.83,54.77c-16.79,11.51-42.68-1.55-45.53-22.97
			c-2.85-21.42,29.65-61.57,51.06-40.87"/>
		<g>
			<path d="M997.93,833.91c9.5,7.34,12.62,21.25,9.5,32.52c-3.18,11.48-13.74,16.76-25.15,14.23
				c-11.52-2.56-22.47-13.08-22.91-25.33c-0.35-9.71,6.17-19.86,12.71-26.52c7.95-8.09,20.19-13.55,29.77-4.7
				c4.42,4.09,11.68-6.53,8.09-9.85c-25.16-23.27-57.08,18.14-59.73,41.72c-1.83,16.24,9.45,31.24,24.79,35.87
				c16.58,5.01,31.88-4.52,38.78-19.62c7.39-16.17,5.41-38.22-9.33-49.61C1000.41,819.49,993.58,830.54,997.93,833.91L997.93,833.91
				z"/>
		</g>
	</g>
</g>
<g id="Ebene_18">
</g>
<g id="Ebene_19">
	<g class="st16">
		<path d="M280.72,1133.73c37.72,117.49,130.96,204.92,237.87,248.14s200.91,57.91,314.61,48.89
			c-99.13,39.18-216.49,49.75-326.13-4.11s-201.57-161.6-233.4-288.2"/>
		<g>
			<path d="M267.67,1133.73c26.01,80.42,78.6,149.29,146.7,198.87c34.05,24.79,71.41,43.65,110.67,58.67
				c46.05,17.61,93.78,31.2,142.55,38.71c56,8.63,112.63,9.6,169.06,5.18c-4.23-2.54-8.46-5.09-12.69-7.63
				c-43.84,17.24-89.99,28.56-137.12,31.09c-47.96,2.58-96.59-5.09-141.58-22.5c-80.76-31.25-149.97-91.63-197.97-163.07
				c-27.61-41.09-48.42-86.58-60.59-134.6c-1.88-7.42-27.32-4.88-26.09,0c22.36,88.22,73.2,168.35,141.8,227.93
				c34.37,29.85,72.97,54.77,114.99,72.4c49.36,20.71,103.21,30.16,156.65,29.38c57.66-0.84,114.76-13.09,168.35-34.17
				c2.9-1.14,5.33-3.18,2.04-5.53c-3.82-2.73-10.35-2.44-14.73-2.1c-46.26,3.62-92.64,3.24-138.66-2.81
				c-45.71-6-90.47-17.92-133.78-33.6c-39.12-14.17-76.43-31.56-110.8-55.17c-32.81-22.54-62.38-49.73-87.35-80.75
				c-28.8-35.79-51.24-76.56-65.39-120.29C291.33,1126.23,266.27,1129.39,267.67,1133.73L267.67,1133.73z"/>
		</g>
	</g>
	<g class="st16">
		<path d="M596.88,1547.02c45.68-14.23,88.77-38.29,126.08-70.39c-42.79,6.64-88.61,5.72-131.06-3.19
			c-1.34,24.72,10.18,42.59,1.12,71.77"/>
		<g>
			<path d="M606.1,1550.25c47.69-14.99,91.51-39.93,129.44-72.4c2.63-2.25-3.79-4.55-4.67-4.8c-4.73-1.32-9.69-1.09-14.49-0.36
				c-39.05,5.96-79.23,4.81-117.89-3.19c-3.31-0.68-19.36-2.14-19.63,3.94c-0.51,11.6,1.85,22.8,3.46,34.21
				c1.8,12.77,1.37,25.15-2.34,37.56c-1.33,4.45,23.83,7.56,26.09,0c3.7-12.41,4.12-24.79,2.34-37.56
				c-1.6-11.42-3.96-22.61-3.46-34.21c-6.54,1.31-13.08,2.63-19.63,3.94c47.43,9.82,96.4,10.49,144.23,3.19
				c-6.39-1.72-12.77-3.44-19.16-5.16c-35.87,30.71-77.67,54.21-122.73,68.37c-4.71,1.48-4.35,4.86,0,6.46
				C593.29,1552.31,600.44,1552.03,606.1,1550.25L606.1,1550.25z"/>
		</g>
	</g>
	<g class="st16">
		<path d="M163.88,948.05c-3.43,40,6.85,81.24,28.38,113.81s37.62,57.13,73.46,66.17c-40.22,15.31-72.12-1.16-98.33-37.83
			c-26.21-36.67-28.27-91.74-4.9-130.63"/>
		<g>
			<path d="M150.84,948.05c-2.62,32.39,3.35,65.16,17.29,94.52c6.64,13.98,15.46,26.87,24.35,39.51c7.4,10.51,15.4,20.73,25.22,29.1
				c12.15,10.35,26.04,16.79,41.43,20.79c-0.88-2.39-1.76-4.78-2.64-7.17c-3.38,1.26-6.78,2.42-10.31,3.2
				c-1.22,0.27-3.43,0.7-4.01,0.78c0.38-0.05-5.45,0.47-3.12,0.36c-0.89,0.04-1.77,0.02-2.66,0.04c-0.35,0.01-2.57-0.09-0.47,0.03
				c-0.86-0.05-1.73-0.13-2.59-0.22c-0.17-0.02-2.29-0.29-0.72-0.06c-3.27-0.49-5.51-1.1-8.51-2.16
				c-13.6-4.79-24.93-14.59-34.31-25.29c-21.85-24.93-32.46-56.26-30.22-89.39c1.22-18.08,6.24-35.69,15.48-51.31
				c3.18-5.37-21.55-8.53-25.15-2.43c-18.37,31.08-21.58,70.29-9.72,104.27c11,31.52,36.81,62.45,69.76,71.95
				c21.33,6.15,44.3,4.39,64.99-3.31c7.17-2.67,1.96-5.97-2.64-7.17c-23.69-6.16-40.14-23.97-53.83-43.25
				c-8.23-11.6-16.45-23.47-22.95-36.15c-7.06-13.78-12.13-28.49-15.31-43.63c-3.66-17.42-4.73-35.28-3.29-53.01
				C177.41,942.04,151.4,941.06,150.84,948.05L150.84,948.05z"/>
		</g>
	</g>
	<g class="st16">
		<path d="M262.95,1133.73c52.86,164.4,167.42,310.76,318.87,365.59c-179.22-51.53-291.4-197.4-345.81-366.42"/>
		<g>
			<path d="M249.91,1133.73c20.71,64.17,50.32,125.6,88.96,180.92c37.47,53.65,83.65,101.7,137.86,138.62
				c29.78,20.29,62,36.95,95.87,49.28c6.15-2.15,12.3-4.3,18.45-6.46c-65.51-18.95-126.16-52.27-177.02-97.75
				c-50.02-44.72-90.23-99.62-120.97-159.1c-17.64-34.14-32.19-69.79-43.99-106.34c-2.42-7.5-27.49-4.35-26.09,0
				c21.22,65.7,51.09,128.91,91.61,184.97c39.63,54.84,89.56,102.43,147.82,137.09c34.48,20.51,71.67,36.44,110.2,47.58
				c5.81,1.68,12.67,2.12,18.45,0c4.54-1.67,4.72-4.74,0-6.46c-58.85-21.43-111.78-56.98-156.55-100.53
				c-46.92-45.65-85.36-99.73-115.32-157.83c-17.23-33.41-31.63-68.23-43.17-104C273.57,1126.23,248.5,1129.38,249.91,1133.73
				L249.91,1133.73z"/>
		</g>
	</g>
	<g class="st16">
		<path d="M353.42,614.1c-59.79,80.47-85.01,190.35-67.04,292.1c-25.72,0.73-51.45,1.47-77.17,2.2
			c3.77-113.05,59.33-222.63,145.07-286.1"/>
		<g>
			<path d="M340.84,612.89c-47.53,64.28-72.49,144.61-73.18,224.32c-0.2,23.12,1.7,46.22,5.67,69c4.35-1.52,8.7-3.04,13.04-4.56
				c-25.72,0.73-51.45,1.47-77.17,2.2c4.35,1.52,8.7,3.04,13.04,4.56c3.05-86.02,35.41-170.93,91.99-236.02
				c15.37-17.68,32.5-33.79,51.3-47.78c4.43-3.29-1.63-5.6-4.68-6.25c-4.86-1.03-13.49-1.6-17.84,1.64
				C273.2,671.95,225.7,750.22,206,834.54c-5.66,24.24-8.95,48.99-9.83,73.87c-0.15,4.25,10.98,4.62,13.04,4.56
				c25.72-0.73,51.45-1.47,77.17-2.2c1.95-0.06,13.76-0.45,13.04-4.56c-13.74-78.85-2.43-162.34,32.48-234.44
				c9.6-19.83,21-38.74,34.1-56.46c2.9-3.93-7.25-5.43-9.11-5.62C352.72,609.29,343.81,608.88,340.84,612.89L340.84,612.89z"/>
		</g>
	</g>
	<g class="st16">
		<path d="M1026.2,1145.11c-21.52,183.87-121.33,355.01-264.81,454.04c-26.55-98.2-37.93-119.2-28.07-120.85
			c154-25.84,277.22-191.57,291.72-337"/>
		<g>
			<path d="M1013.16,1145.11c-8.4,71.02-28.28,140.57-58.71,205.29c-29.6,62.96-69.01,121.47-117.12,171.79
				c-26.51,27.73-55.65,52.82-87.2,74.66c8.1,0.77,16.2,1.54,24.3,2.3c-6.52-24.07-13.39-48.04-20.48-71.95
				c-3.57-12.05-7.65-24.14-10.18-36.47c-0.57-2.79-0.88-5.48-0.87-8.32c0-0.37,0.13-0.74,0.19-1.1c0.1-0.63-0.21-0.58-0.22,0.47
				c0-0.05,0.25-0.48,0.24-0.48c-0.1-0.08,0.61-0.71,0.61-0.79c-0.05,0.65-1.84,1.17-2.07,1.26c-0.77,0.29-3.8,0.78-0.38,0.26
				c2.72-0.41,5.42-0.99,8.11-1.54c6.28-1.3,12.5-2.86,18.68-4.56c10.62-2.91,21.07-6.45,31.28-10.58
				c84.71-34.28,152.48-104.54,194.72-184.48c22.87-43.27,39.06-90.73,44.03-139.56c0.6-5.87-25.36-7.08-26.09,0
				c-9.07,88.98-54.2,174.16-116.07,237.8c-31.01,31.9-67.68,59.4-108.67,77.12c-10.12,4.37-20.48,8.18-31.04,11.35
				c-9.78,2.93-19.72,4.65-29.67,6.83c-6.9,1.51-10.39,4.77-9.61,11.86c1.31,11.91,5.86,23.82,9.24,35.23
				c7.65,25.82,15.14,51.68,22.18,77.67c0.94,3.46,6.7,4.12,9.58,4.4c4.45,0.44,10.88,0.57,14.73-2.1
				c57.23-39.62,106.86-89.69,147.21-146.34c41.23-57.89,72.86-122.54,93.95-190.38c12.12-39,20.64-79.07,25.44-119.62
				C1039.93,1139.35,1014.01,1137.97,1013.16,1145.11L1013.16,1145.11z"/>
		</g>
	</g>
	<g class="st16">
		<path d="M298.22,1678.47c-28.17,19.59-48.54,52.1-55.05,87.87c-11.48-17.96-13.19-42.81-4.3-62.44
			c8.89-19.63,28.01-33.23,48.04-34.17"/>
		<g>
			<path d="M286.96,1676.17c-30.13,21.24-50.05,54.1-56.83,90.18c8.54-0.4,17.08-0.81,25.62-1.21
				c-10.71-17.26-12.77-40.55-4.61-59.3c6.9-15.85,22.53-30.66,39.24-31.69c2.63-0.16,11.09-1.36,9.11-5.62
				c-1.91-4.09-12.84-3.39-16.04-3.19c-23.29,1.43-45.58,14.1-56.18,35.33c-10.54,21.1-9.07,46.91,3.33,66.89
				c3.03,4.89,24.36,5.51,25.62-1.21c6.34-33.75,24.98-65.63,53.27-85.57c4.56-3.21-1.75-5.63-4.68-6.25
				C299.81,1673.47,291.46,1672.99,286.96,1676.17L286.96,1676.17z"/>
		</g>
	</g>
	<g class="st16">
		<path d="M219.7,1709.86c-18.86,33.66-26.28,74.78-20.53,113.74c-15.39,5.16-32.6-6.88-38.25-23.34
			c-5.65-16.46-1.63-20.19,6.73-35.2c8.37-15.01,35.16-42.98,47.24-54.6"/>
		<g>
			<path d="M207.12,1708.65c-19.28,34.84-26.61,75.56-21,114.95c1.27-1.08,2.55-2.15,3.82-3.23c0.72-0.22,1.64,0.1,2.31-0.14
				c1.09-0.4,0.19,0.23-0.62-0.4c-2.13-1.65-4.94-2.53-7.09-4.34c-5.21-4.37-9.07-10.51-11.16-16.94
				c-1.83-5.64-2.96-11.71-1.01-17.47c1.98-5.83,5.82-11.57,9.01-16.79c6.12-10.01,14.17-18.96,22.01-27.64
				c7.74-8.58,15.75-16.95,24.07-24.98c3.55-3.43-7.81-5.49-9.11-5.62c-4.93-0.49-12.18-0.54-16.04,3.19
				c-15.54,14.99-31.2,30.97-43.53,48.76c-3,4.33-5.52,8.97-8.08,13.56c-2.46,4.41-4.94,9.17-5.37,14.29
				c-0.99,11.78,5.9,25,14.61,32.51c13.19,11.39,32.14,13.41,48.47,8.46c0.92-0.28,4.05-1.63,3.82-3.23
				c-5.48-38.48,1.2-78.44,20.06-112.52C235.38,1705.47,210.51,1702.53,207.12,1708.65L207.12,1708.65z"/>
		</g>
	</g>
	<g class="st16">
		<path d="M132.12,1783.55c-14.26,6.33-28.92,12.95-39.84,24.79s-17.29,30.35-11.35,45.86c5.94,15.51,27.02,22.9,37.73,10.82
			c-7.82-33.33,6.32-71.36,33.2-89.31"/>
		<g>
			<path d="M122.9,1780.32c-17.54,7.8-36.57,16.23-47.82,32.61c-9.43,13.73-14.13,34.61-3.11,48.87c11,14.24,34.64,17.47,50.48,10.6
				c2.88-1.25,8.59-3.94,9.25-7.39c0.3-1.57-0.87-4.12-1.13-5.76c-0.38-2.41-0.65-4.84-0.82-7.28c-0.59-8.78,0.17-17.64,2.17-26.21
				c4.39-18.78,15.11-36.77,31.2-47.76c4.63-3.16-1.82-5.64-4.68-6.25c-5.06-1.07-13.26-1.49-17.84,1.64
				c-24.76,16.9-38.53,47.37-37.02,77.11c0.19,3.66,0.61,7.31,1.28,10.91c0.25,1.35,0.75,2.53-0.04,3.68
				c-0.5,0.74-2.65,1.56-2.59,1.62c0.09,0.09,3.29-0.21,3.7-0.24c2.1-0.14,0.63,0.15-0.89-0.55c-2.39-1.1-4.58-2.8-6.36-4.72
				c-10.54-11.35-7.93-29.58-0.86-42.02c9.39-16.54,26.82-25,43.52-32.42c4.23-1.88,4.78-4.71,0-6.46
				C136.23,1778.45,128.01,1778.05,122.9,1780.32L122.9,1780.32z"/>
		</g>
	</g>
	<g class="st16">
		<path d="M88.47,1890.6c-11.72,2.89-18.02,20.28-11.31,31.21s23.78,11.05,30.63,0.23c-6.2-11.68-7.77-26.2-4.26-39.15"/>
		<g>
			<path d="M80.53,1887.82c-14.93,4.31-23.54,25.03-12.38,37.45c6.47,7.21,17.11,9.01,26.34,8.66c9.08-0.35,18.74-2.98,24.12-10.85
				c0.53-0.7,0.53-1.39,0-2.09c-6-11.8-7.1-25.34-3.86-38.11c1.05-4.12-20.82-6.47-22.46,0c-3.46,13.65-1.71,27.68,4.66,40.2
				c0-0.7,0-1.39,0-2.09c-1.42,2.08-2.85,3.24-4.83,4.72c-0.27,0.2-1.43,0.89-1.36,0.59c0.1-0.46,3.28,0.08,3.32-0.06
				c-0.03,0.14-3.44-2.17-3.87-2.61c-1.87-1.85-3.19-4.24-3.89-6.76c-2.27-8.14,1.09-20.89,10.1-23.49c4.21-1.22,3.59-4.15,0-5.56
				C91.57,1885.92,85.41,1886.41,80.53,1887.82L80.53,1887.82z"/>
		</g>
	</g>
	<g class="st16">
		<path d="M174.42,1848.67c25.77,11.12,52.46,19.72,79.63,25.67c5.23-11.83-4.1-26.1-15.36-30.7s-23.74-2.9-35.75-3.56
			s-25.38-4.94-30.87-16.63"/>
		<g>
			<path d="M165.2,1851.9c26.53,11.38,54.08,20.14,82.27,26.38c3.76,0.83,7.82,0.83,11.61,0.23c1.86-0.29,6.69-0.78,7.55-2.96
				c3.31-8.36,1.66-16.79-3.75-23.97c-6.52-8.64-16.74-12.75-27.14-14.44c-6.65-1.08-13.35-1.4-20.09-1.45
				c-2.73-0.02-5.46,0-8.19-0.04c-2.07-0.04-3.31-0.08-4.9-0.32c-7.32-1.08-14.25-5.87-17.92-13.11
				c-3.04-6.01-28.19-3.58-25.15,2.43c9.22,18.22,33.71,20.09,51.61,20.17c8.39,0.04,16.83-0.52,23.41,5.58
				c5.97,5.54,10.17,14.65,6.97,22.72c6.39-0.91,12.77-1.82,19.16-2.73c-26.42-5.84-52.13-14.29-76.99-24.95
				c-5.29-2.27-13.11-1.95-18.45,0C160.41,1847.2,160.74,1849.99,165.2,1851.9L165.2,1851.9z"/>
		</g>
	</g>
	<g class="st16">
		<path d="M398.17,1674.26c140.87,96.39,313.89,135.31,478.18,107.57c-178.22,83.09-424.22,68.59-538.06-87.97
			c21.76-11.42,32.7-15.42,54.45-26.84"/>
		<g>
			<path d="M386.9,1676.57c55.6,37.94,116.87,67.61,181.16,87.57c64.67,20.08,132.23,30.62,199.95,30.99
				c38.5,0.21,76.94-3,114.91-9.35c-5.95-2.08-11.9-4.16-17.84-6.25c-34.04,15.81-69.98,27.68-106.63,35.68
				c-19.13,4.18-36.58,7.05-55.58,9.1c-9.62,1.04-19.26,1.83-28.92,2.36c-0.92,0.05-1.84,0.1-2.76,0.14
				c2.42-0.12-2.1,0.08-2.04,0.08c-2.3,0.09-4.59,0.17-6.89,0.23c-5.04,0.13-10.09,0.2-15.13,0.19
				c-35.82-0.07-71.41-4.01-107.54-12.94c-34.57-8.55-68.59-22.08-99.36-40.54c-34.88-20.92-65.36-48.31-89.37-81.18
				c-0.44,1.17-0.88,2.34-1.31,3.52c17.94-9.38,36.51-17.46,54.45-26.84c5.2-2.72-2.35-5.75-4.68-6.25
				c-5.63-1.19-12.63-1.09-17.84,1.64c-17.94,9.38-36.51,17.46-54.45,26.84c-1.3,0.68-2.31,2.15-1.31,3.52
				c45.6,62.41,113.93,103.48,187.78,123.78c79.35,21.81,164.02,22.53,244.59,7.02c44.7-8.6,88.25-22.56,129.53-41.74
				c3.96-1.84,0.19-4.72-2.04-5.53c-4.96-1.81-10.69-1.57-15.81-0.71c-61.45,10.29-123.43,10.61-185.02,1.94
				c-62.29-8.77-123.52-27.23-180.51-53.81c-33.02-15.4-64.72-33.53-94.81-54.06c-4.65-3.17-12.62-2.74-17.84-1.64
				C388.65,1670.94,382.2,1673.36,386.9,1676.57L386.9,1676.57z"/>
		</g>
	</g>
	<g class="st16">
		<path d="M965.97,1723.16c9,8.12,18,16.25,27,24.37c10.39,9.38,3.49,30.71-9.65,33.98c-13.15,3.26-36.99-2.39-41.03-16.44
			c-4.04-14.05,9.81-35.22,15.65-48.49"/>
		<g>
			<path d="M953.39,1724.37c7.58,6.84,15.16,13.68,22.73,20.52c5.03,4.55,8.9,8.03,8.83,15.26c-0.05,5.56-2.16,11.17-6.08,15.18
				c-0.89,0.91-1.78,1.63-2.9,2.27c-1.65,0.95,0.78,0.07-1.2,0.36c1.4-0.21,1.39-0.24-0.04-0.08c1.62-0.06,1.66-0.08,0.1-0.05
				c-1.53-0.03-1.55-0.03-0.05,0c-0.6-0.05-1.2-0.11-1.79-0.18c-0.83-0.1-0.8-0.1,0.1,0.01c-0.81-0.15-1.61-0.31-2.41-0.49
				c-1.23-0.3-1.67-0.44-3.24-1.04c-2.55-0.97-5.11-2.3-7.21-4.08c-4.31-3.64-5.91-8.58-5.6-14.12
				c0.83-14.43,10.11-27.34,15.86-40.15c1.95-4.33-6.45-5.35-9.11-5.62c-3.24-0.32-14.19-0.94-16.04,3.19
				c-5.61,12.49-13.54,24.45-16.19,38.06c-2.5,12.85,4.13,22.04,15.56,27.34c20.6,9.56,65.25,12.1,66.3-20.06
				c0.24-7.28-3.14-12.27-8.32-16.96c-8.05-7.27-16.1-14.54-24.15-21.81c-4.04-3.64-10.92-3.7-16.04-3.19
				C961.24,1718.88,949.84,1721.16,953.39,1724.37L953.39,1724.37z"/>
		</g>
	</g>
	<g class="st16">
		<path d="M1034.47,1769.66c16.52,14.3,36.79,23.39,57.75,25.91c7.73,0.93,11.58,12.28,7.99,19.82
			c-3.59,7.54-11.96,11.04-19.74,11.07c-7.78,0.02-15.3-2.74-22.87-4.7c-7.57-1.96-15.74-3.07-22.95,0.12
			c-11.39,5.04-26-2.56-29.6-15.39s4.62-28.06,16.64-30.84"/>
		<g>
			<path d="M1021.9,1770.87c12.2,10.4,25.98,18.53,41.26,23.52c3.96,1.29,8.01,2.4,12.07,3.31c1.85,0.42,3.71,0.79,5.58,1.1
				c1.05,0.18,2.11,0.33,3.16,0.49c6.17,0.92-0.01-0.24,0.05-0.44c0.11-0.34,3.73,5.08,3.94,5.85c0.75,2.64,0.84,5.79,0.03,8.43
				c-0.89,2.88-3.05,5.58-5.54,7.24c-0.94,0.63-1.93,1.18-3.02,1.51c0.1-0.03,1.6,0.05,0.71-0.03c-8.66-0.74-17-4.74-25.68-5.9
				c-9-1.2-20.7-1.58-29.04,2.68c-2.03,1.04,0.01,0.32,1.51,0.32c2.23-0.01,3.04,0.71,1.47-0.28c-2.37-1.5-4.39-2.7-6.23-4.89
				c-4.68-5.56-5.88-12.76-4.19-19.75c1.18-4.87,5.81-13.26,10.29-14.46c2.84-0.76,9.3-2.94,4.68-6.25
				c-4.21-3.01-13.11-2.91-17.84-1.64c-8.47,2.27-15.88,6.43-20.17,14.38c-3.71,6.87-4.94,14.85-2.3,22.28
				c6.57,18.52,30.76,22.63,47.6,17.94c1.93-0.54,3.91-1.17,5.75-1.98c-1.22,0.54-3.32-0.23,0.1,0.27
				c5.23,0.76,10.3,2.71,15.41,3.98c11.75,2.92,24.8,3.78,36.41-0.24c7.77-2.69,15.27-8.33,16.52-16.97
				c1.02-7.03-2.49-14.37-8.85-17.56c-5.08-2.55-10.92-2.61-16.39-3.8c-4.97-1.08-9.8-2.69-14.51-4.59
				c-10-4.03-19.44-9.98-27.63-16.97c-4.18-3.56-10.81-3.71-16.04-3.19C1029.82,1765.37,1018.27,1767.78,1021.9,1770.87
				L1021.9,1770.87z"/>
		</g>
	</g>
	<g class="st16">
		<path d="M1023.87,1841.01c-3.48,5.03,0.01,12.52,4.81,16.03c4.8,3.52,10.74,4.98,15.2,8.99s6.5,12.54,1.83,16.26
			c-12.46,9.9-32.34,5.54-40.32-8.86c-7.98-14.39-2.32-35.66,11.49-43.13"/>
		<g>
			<path d="M1011.29,1839.8c-3.03,5.26-1.76,11.09,1.96,15.72c4.39,5.47,11.27,7.01,16.8,10.86c3.77,2.63,7.76,9.7,3.93,13.9
				c-1.32,1.45-3.4,2.3-5.23,2.91c1.31-0.43,0.69-0.04-0.31-0.01c1.17-0.03,2.71,0.45,2.02-0.14c-0.73-0.63-3.66-1.54-5.11-2.51
				c-2.02-1.35-3.74-3.07-5.22-5c-3.45-4.49-5.07-9.82-5.32-15.44c-0.46-10.53,3.88-22.03,13.33-27.47
				c5.01-2.88-2.18-5.72-4.68-6.25c-5.44-1.15-12.84-1.24-17.84,1.64c-18.85,10.84-23.22,40.08-6.15,54.53
				c10.78,9.13,26.38,10.99,39.92,8.91c10.58-1.62,26.04-7.47,20.79-20.85c-2.7-6.88-9.21-9.8-15.4-12.98
				c-5.22-2.69-12.13-8.81-8.34-15.39C1039.6,1836.76,1014.81,1833.69,1011.29,1839.8L1011.29,1839.8z"/>
		</g>
	</g>
	<g class="st16">
		<path d="M1151.49,1806.35c24.5,20.9,40.58,26.28,67.87,42.54c-3.36,9.87-5.68,25.62-14.81,22.22
			c-9.12-3.4-25.37-15.04-25.37-15.04s-20.73-4.75-26.52,3.67c-4.83,7.01-15.07,8.6-21.5,3.32s-7.88-16.46-3.05-23.48
			c7.03-10.22,14.06-20.44,21.08-30.67"/>
		<g>
			<path d="M1138.92,1807.57c10.53,8.92,21.63,16.88,33.6,23.75c11.79,6.76,23.89,12.94,35.59,19.87c-0.59-0.77-1.19-1.54-1.78-2.3
				c-1.68,5.08-2.69,10.53-5.01,15.37c-0.63,1.31-2.77,3.44-3.01,4.34c0.22-0.81,16.63,0.23,15.01-0.9
				c-0.75-0.52-0.06,0.13-0.94-0.39c-1.22-0.72-2.56-1.29-3.8-1.97c-4.8-2.64-9.43-5.62-13.96-8.69c-3.05-2.07-5.29-3.72-9.04-4.56
				c-10.38-2.31-22-2.85-32.4-0.53c-6.43,1.43-9.91,4.05-14.32,8.52c-0.41,0.42-2.32,1.45-2.48,1.91c0.28-0.83,8.95,1.17,8.21,0.22
				c-0.73-0.95-2.17-1.56-2.99-2.59c-0.91-1.13-1.71-2.46-2.23-3.82c-3.08-8.04,0.81-14.21,5.23-20.63
				c5.73-8.34,11.47-16.68,17.2-25.02c2.76-4.01-7.13-5.42-9.11-5.62c-4.01-0.4-13.26-0.86-16.04,3.19
				c-5.92,8.61-11.84,17.22-17.75,25.82c-4.47,6.51-8.17,12.84-5.98,21.01c4.94,18.42,32.15,20.15,46.27,11.89
				c2.86-1.67,4.85-4.03,6.95-6.5c0.42-0.5,0.35-0.15,0.84-0.56c1.14-0.97-0.39,0.26-0.25,0c-0.31,0.55,1.33-0.11,0.11-0.07
				c-2.02,0.07,3.44-0.05-0.81,0.03c0.7-0.01,1.4,0.01,2.11,0c-0.45,0-2.78-0.3-0.43-0.01c1.03,0.13,2.13,0.29,3.17,0.33
				c-4.33-0.19,1.79,0.22,1.72,0.36c-0.4,0.79-6.04-3.24-3.82-1.05c0.52,0.51,1.29,0.9,1.88,1.3c2.51,1.73,5.05,3.41,7.63,5.04
				c5.64,3.57,11.64,7.32,18.04,9.34c8.56,2.7,22.81,3.04,28.65-5.25c4.13-5.85,5.26-13.8,7.47-20.49c-0.18-1.06-0.77-1.83-1.78-2.3
				c-22.61-13.4-46.35-24.34-66.56-41.44c-4.2-3.55-10.8-3.71-16.04-3.19C1146.85,1802.07,1135.28,1804.49,1138.92,1807.57
				L1138.92,1807.57z"/>
		</g>
	</g>
	<g class="st16">
		<path d="M1080.52,1871.17c-0.51,10.82,8.22,19.82,17.57,23.45c9.35,3.63,19.53,3.51,29.27,5.57c9.74,2.06,19.94,7.27,23.79,17.25
			c3.85,9.98-2.8,15.76-12.63,14.23c-22.93-3.55-46.13,1.43-69.06-2.11c-14.35-2.22-25.64-18.3-23.88-34.01s16.25-28.35,30.67-26.74
			"/>
		<g>
			<path d="M1067.48,1871.17c-0.16,18.75,19.26,27.59,35.05,30.24c7.8,1.31,16.49,1.21,23.8,4.55c6.32,2.88,12.71,9.11,12.89,16.5
				c0.03,1.14-0.06,2.39-0.53,3.42c-0.18,0.39-1.85,1.9-1.88,2.16c-0.14,0.08-0.29,0.17-0.43,0.25c1.35-0.68,2.79-0.92,4.32-0.73
				c5.32-0.24,1.77-0.23,0.35-0.42c-2.86-0.38-5.73-0.7-8.61-0.89c-10.77-0.74-21.5-0.38-32.27-0.07
				c-7.93,0.22-17.89,1.3-25.29-0.78c-6.58-1.85-11.76-9.19-14.22-15.15c-3.25-7.88-2.97-17.33,1.19-24.8
				c1.94-3.47,4.53-6.73,7.71-9.13c1.37-1.03,3.01-1.64,4.37-2.63c1.51-1.1,0.94-0.29-1.14-0.46c3.77,0.31,13.83,1,16.04-3.19
				c2.22-4.21-6.96-5.44-9.11-5.62c-20.76-1.7-44.62,7.77-47.17,31.14c-1,9.19,2.44,19.07,8.5,26c7.54,8.6,17.75,11.64,28.78,12.93
				c12.95,1.51,25.99,0.91,38.98,0.56c5.55-0.15,11.14-0.31,16.69,0.01c6.83,0.38,13.44,1.83,20.32,1.25
				c8.06-0.68,19.73-3.69,19.48-13.85c-0.23-9.37-8.44-17.05-16.2-20.99c-11.38-5.78-23.74-5.96-36-8.4
				c-10.69-2.13-19.64-10.5-19.54-21.89C1093.62,1864.72,1067.54,1864.53,1067.48,1871.17L1067.48,1871.17z"/>
		</g>
	</g>
	<g class="st16">
		<g>
			<path d="M983.66,2005.25c3.3,0,14.74-0.2,15-5.25c0.26-4.87-12.63-5.25-15-5.25c-3.3,0-14.74,0.2-15,5.25
				C968.4,2004.87,981.29,2005.25,983.66,2005.25L983.66,2005.25z"/>
		</g>
	</g>
	<g class="st16">
		<g>
			<path d="M974.28,815.39c-12.1,8.76-20.05,22.96-18.93,38.24c1.06,14.47,8.61,27.93,21.4,35.18
				c14.63,8.29,27.79-14.24,13.17-22.52c-2.43-1.38-4.15-2.82-5.45-4.85c-1.85-2.88-2.84-5.8-3.03-7.8
				c-0.36-3.81,0.06-6.31,1.29-9.25c0.97-2.31,3.31-5.44,4.72-6.47c5.7-4.13,8.48-11.34,4.68-17.84
				C988.84,814.45,980.02,811.24,974.28,815.39L974.28,815.39z"/>
		</g>
	</g>
	<g class="st16">
		<g>
			<path d="M920.25,790.71c-20.06,15.78-20.11,48.3-4.07,66.62c4.64,5.3,13.7,4.75,18.45,0c5.26-5.26,4.65-13.13,0-18.45
				c-1.5-1.72,0.11,0.41-0.59-0.76c-0.43-0.7-0.85-1.4-1.26-2.12c-0.41-0.73-1.09-2.55-0.47-0.84c-0.29-0.78-0.54-1.58-0.77-2.38
				c-0.29-1.01-0.51-2.04-0.71-3.07c-0.4-2.07-0.03,2.84-0.09-0.94c-0.03-1.93-0.06-3.81,0.06-5.74c0.14-2.12-0.39,1.75,0.04-0.32
				c0.22-1.04,0.42-2.07,0.71-3.09c0.22-0.81,0.5-1.6,0.75-2.41c0.69-2.18-0.24,0.26,0.4-0.9c0.4-0.72,0.79-1.44,1.2-2.16
				c0.41-0.71,1.58-2.27,0.43-0.84c1.27-1.57,2.78-2.92,4.37-4.17c5.54-4.36,4.56-13.88,0-18.45
				C933.22,785.24,925.81,786.34,920.25,790.71L920.25,790.71z"/>
		</g>
	</g>
	<g class="st16">
		<g>
			<path d="M918,864.14c-14.67,22.68-7.49,56.58,15.56,70.79c14.33,8.84,27.44-13.72,13.17-22.52c-0.23-0.14-3.17-2.33-1.26-0.73
				c-0.61-0.51-1.2-1.06-1.77-1.62c-0.85-0.84-1.7-1.74-2.43-2.69c1.12,1.46-0.03-0.16-0.43-0.85c-0.52-0.89-1-1.8-1.53-2.69
				c-1.88-3.15,0.29,1.06-0.46-0.88c-0.85-2.18-1.34-4.42-1.95-6.67c-0.62-2.3-0.06,0.47-0.2-0.94c-0.1-1.06-0.18-2.11-0.21-3.17
				c-0.03-1.06,0.01-2.12,0.04-3.17c0.02-0.89,0.26-2.84-0.02-0.93c0.33-2.27,0.94-4.51,1.71-6.67c0.68-1.92-1.42,2.25,0.41-0.88
				c0.63-1.07,1.22-2.16,1.9-3.21c3.83-5.92,1.2-14.4-4.68-17.84C929.52,855.76,921.84,858.21,918,864.14L918,864.14z"/>
		</g>
	</g>
	<g class="st16">
		<g>
			<path d="M957,916.93c6.27,27.77,41.47,45.45,66.12,28.43c5.79-4,8.43-11.44,4.68-17.84c-3.35-5.73-12.02-8.7-17.84-4.68
				c-0.99,0.68-1.99,1.24-3.01,1.88c-1.99,1.24,0.7-0.1-0.6,0.27c-0.91,0.26-1.84,0.5-2.75,0.77c-2.9,0.86,1.98,0.22-1.05,0.13
				c-1.14-0.03-2.29-0.02-3.43-0.04c-2.49-0.05,0.94,0.3-0.52-0.09c-0.93-0.25-1.89-0.43-2.81-0.7c-0.3-0.09-3.71-1.46-1.26-0.34
				c-1.8-0.82-3.47-1.84-5.12-2.92c-2.68-1.74,1.11,1.43-1.07-0.92c-0.81-0.87-1.68-1.69-2.5-2.56c-1.57-1.67,0.19,0.47-0.51-0.7
				c-0.52-0.86-1.02-1.74-1.55-2.59c-1.64-2.6,0.23,1.61-0.63-1.38c-0.35-1.21-0.7-2.4-0.98-3.63c-1.55-6.87-9.48-10.91-16.04-9.11
				C959.04,902.83,955.44,910.03,957,916.93L957,916.93z"/>
		</g>
	</g>
	<g class="st16">
		<g>
			<path d="M672.13,1044.79c0.16-1.36-0.13,0.46-0.22,0.83c-0.3,1.16-0.58,2.32-0.95,3.46c-0.72,2.25-0.36,1.36-1.47,3.43
				c-2.1,3.92-3.03,5.16-6.56,8.35c-1.78,1.61-0.81,0.84-2.84,2.1c-0.96,0.6-1.95,1.14-2.95,1.67c-0.52,0.28-1.87,0.76-0.58,0.29
				c-1.66,0.61-3.39,1.09-5.13,1.41c2.07-0.38-0.68,0.03-1.14,0.03c-1.12-0.01-2.21-0.02-3.33-0.09
				c-7.04-0.45-13.04,6.31-13.04,13.04c0,7.43,5.98,12.59,13.04,13.04c27.43,1.74,48.19-22.07,51.26-47.56
				c0.84-7.01-6.6-13.04-13.04-13.04C677.42,1031.74,672.97,1037.76,672.13,1044.79L672.13,1044.79z"/>
		</g>
	</g>
</g>
<g id="Ebene_20">
	<g class="st16">
		<g>
			<path class="st3" d="M831.4,606.6c25.02,10.57,48.87,23.75,71.15,39.28c2.67,1.86,5.32,3.75,7.94,5.68
				c1.31,0.96,2.62,1.93,3.92,2.91c0.68,0.51,4.52,3.48,2.31,1.75c5.58,4.37,11.06,8.87,16.41,13.52
				c10.36,9,20.27,18.51,29.68,28.49c5.5,5.83,10.83,11.81,15.99,17.95c2.5,2.97,4.96,5.98,7.37,9.02c0.51,0.64,3.52,4.51,1.9,2.4
				c1.35,1.77,2.69,3.55,4.02,5.33c5.41,7.28,15.3,11.72,23.79,6.24c7.2-4.64,12.05-15.99,6.24-23.79
				c-35.32-47.47-79.31-88.15-130.71-117.75c-13.7-7.89-27.88-14.9-42.45-21.06c-8.35-3.53-19.02-2.79-23.79,6.24
				C821.23,590.24,822.46,602.82,831.4,606.6L831.4,606.6z"/>
		</g>
	</g>
	<g class="st16">
		<g>
			<path class="st3" d="M974.52,786.61c9.1,0,17.81-8,17.39-17.39c-0.42-9.42-7.64-17.39-17.39-17.39c-9.1,0-17.81,8-17.39,17.39
				C957.56,778.65,964.77,786.61,974.52,786.61L974.52,786.61z"/>
		</g>
	</g>
	<g class="st16">
		<g>
			<path class="st3" d="M1069,963.76c1.26,1.58,1.34,1.66,0.26,0.26c0.65,0.85,1.28,1.72,1.91,2.59c1.1,1.53,2.15,3.09,3.18,4.66
				c2.21,3.4,4.26,6.9,6.13,10.5c0.75,1.44,1.48,2.9,2.19,4.37c0.26,0.55,2.82,6.49,1.54,3.33c1.44,3.56,2.73,7.17,3.87,10.83
				c1.15,3.68,2.14,7.41,2.98,11.17c0.48,2.15,0.91,4.32,1.29,6.5c0.13,0.73,0.82,5.49,0.36,1.93c1.07,8.24,1.28,16.57,0.85,24.86
				c-0.47,9.1,8.33,17.8,17.39,17.39c9.82-0.44,16.89-7.64,17.39-17.39c1.98-38.29-10.68-75.91-34.74-105.59
				c-5.75-7.1-18.69-6.43-24.59,0C1062.08,946.71,1062.86,956.19,1069,963.76L1069,963.76z"/>
		</g>
	</g>
	<g class="st16">
		<g>
			<path class="st3" d="M1042.79,1184.27c-0.58,12.35-1.45,24.69-2.66,37c-0.57,5.86-1.22,11.71-1.93,17.55
				c-0.14,1.17-0.29,2.34-0.44,3.5c-0.02,0.12-0.79,5.87-0.31,2.37c-0.4,2.91-0.82,5.82-1.25,8.73c-3.61,24.09-8.43,48-14.43,71.61
				c-5.91,23.22-12.96,46.15-21.14,68.67c-1.89,5.2-3.84,10.38-5.85,15.53c-1.06,2.71-2.13,5.41-3.22,8.11
				c-0.65,1.62-1.31,3.23-1.98,4.84c-0.22,0.53-2.1,5.02-0.94,2.28c-4.62,10.95-9.56,21.77-14.75,32.45
				c-11.7,24.1-24.82,47.49-39.27,70.05c-4.91,7.67-1.83,19.53,6.24,23.79c8.62,4.55,18.55,1.95,23.79-6.24
				c53.14-82.98,88.47-177.63,104-274.88c4.52-28.27,7.56-56.77,8.91-85.38c0.43-9.1-8.3-17.8-17.39-17.39
				C1050.4,1167.31,1043.25,1174.52,1042.79,1184.27L1042.79,1184.27z"/>
		</g>
	</g>
	<g class="st16">
		<g>
			<path class="st3" d="M851.35,1706.8c1.01,3.32,2.03,6.64,3.04,9.96c1.3,4.26,4.11,8.12,7.99,10.39c3.73,2.18,9.22,3.11,13.4,1.75
				c4.21-1.36,8.27-3.97,10.39-7.99c2.15-4.08,3.13-8.87,1.75-13.4c-1.01-3.32-2.03-6.64-3.04-9.96c-1.3-4.26-4.11-8.12-7.99-10.39
				c-3.73-2.18-9.22-3.11-13.4-1.75c-4.21,1.36-8.27,3.97-10.39,7.99C850.95,1697.47,849.97,1702.27,851.35,1706.8L851.35,1706.8z"
				/>
		</g>
	</g>
	<g class="st16">
		<g>
			<path class="st3" d="M1017.27,1717.59c2.03,3.32,4.05,6.64,6.08,9.96c2.31,3.78,6.1,6.81,10.39,7.99
				c4.16,1.15,9.71,0.63,13.4-1.75c3.71-2.39,6.98-5.96,7.99-10.39c1.03-4.52,0.72-9.35-1.75-13.4c-2.03-3.32-4.05-6.64-6.08-9.96
				c-2.31-3.78-6.1-6.81-10.39-7.99c-4.16-1.15-9.71-0.63-13.4,1.75c-3.71,2.39-6.98,5.96-7.99,10.39
				C1014.49,1708.71,1014.8,1713.54,1017.27,1717.59L1017.27,1717.59z"/>
		</g>
	</g>
	<g class="st16">
		<g>
			<path class="st3" d="M1093.27,1764.07c6.08,9.96,12.16,19.92,18.24,29.88c4.74,7.76,15.79,11.4,23.79,6.24
				c7.79-5.02,11.31-15.49,6.24-23.79c-6.08-9.96-12.16-19.92-18.24-29.88c-4.74-7.76-15.79-11.4-23.79-6.24
				C1091.72,1745.31,1088.2,1755.77,1093.27,1764.07L1093.27,1764.07z"/>
		</g>
	</g>
	<g class="st16">
		<g>
			<path class="st3" d="M1171,1812.83c3.06,7.74,6.11,15.48,9.17,23.22c3.33,8.43,11.79,15.25,21.39,12.15
				c8.18-2.65,15.72-12.33,12.15-21.39c-3.06-7.74-6.11-15.48-9.17-23.22c-3.33-8.43-11.79-15.25-21.39-12.15
				C1174.97,1794.09,1167.43,1803.78,1171,1812.83L1171,1812.83z"/>
		</g>
	</g>
	<g class="st16">
		<g>
			<path class="st3" d="M1184.29,1892.21c9.1,0,17.81-8,17.39-17.39c-0.42-9.42-7.64-17.39-17.39-17.39c-9.1,0-17.81,8-17.39,17.39
				C1167.32,1884.24,1174.54,1892.21,1184.29,1892.21L1184.29,1892.21z"/>
		</g>
	</g>
	<g class="st16">
		<g>
			<path class="st3" d="M1093.09,1849.05c9.1,0,17.81-8,17.39-17.39c-0.42-9.42-7.64-17.39-17.39-17.39c-9.1,0-17.81,8-17.39,17.39
				C1076.12,1841.08,1083.34,1849.05,1093.09,1849.05L1093.09,1849.05z"/>
		</g>
	</g>
	<g class="st16">
		<g>
			<path class="st3" d="M303.51,1718.78c1.01,7.75,2.03,15.49,3.04,23.24c1.18,8.98,7.16,17.85,17.39,17.39
				c8.41-0.38,18.65-7.73,17.39-17.39c-1.01-7.75-2.03-15.49-3.04-23.24c-1.18-8.98-7.16-17.85-17.39-17.39
				C312.49,1701.76,302.24,1709.11,303.51,1718.78L303.51,1718.78z"/>
		</g>
	</g>
	<g class="st16">
		<g>
			<path class="st3" d="M241.72,1804.11c3.04,3.32,6.08,6.64,9.12,9.96c6.16,6.73,18.43,6.71,24.59,0c6.6-7.19,6.57-17.42,0-24.59
				c-3.04-3.32-6.08-6.64-9.12-9.96c-6.16-6.73-18.43-6.71-24.59,0C235.11,1786.72,235.15,1796.94,241.72,1804.11L241.72,1804.11z"
				/>
		</g>
	</g>
	<g class="st16">
		<g>
			<path class="st3" d="M281.38,1875.61c9.1,0,17.81-8,17.39-17.39c-0.42-9.42-7.64-17.39-17.39-17.39c-9.1,0-17.81,8-17.39,17.39
				C264.41,1867.64,271.63,1875.61,281.38,1875.61L281.38,1875.61z"/>
		</g>
	</g>
	<g class="st16">
		<g>
			<path class="st3" d="M159.77,1829.13c9.1,0,17.81-8,17.39-17.39c-0.42-9.42-7.64-17.39-17.39-17.39c-9.1,0-17.81,8-17.39,17.39
				C142.8,1821.16,150.02,1829.13,159.77,1829.13L159.77,1829.13z"/>
		</g>
	</g>
	<g class="st16">
		<g>
			<path class="st3" d="M214.49,1902.17c9.1,0,17.81-8,17.39-17.39c-0.42-9.42-7.64-17.39-17.39-17.39c-9.1,0-17.81,8-17.39,17.39
				C197.53,1894.2,204.74,1902.17,214.49,1902.17L214.49,1902.17z"/>
		</g>
	</g>
	<g class="st16">
		<g>
			<path class="st3" d="M965.75,867.24c3.04,2.21,6.08,4.43,9.12,6.64c3.44,2.5,9.48,2.83,13.4,1.75c4.03-1.11,8.41-4.23,10.39-7.99
				c2.13-4.04,3.2-8.93,1.75-13.4c-0.58-1.38-1.17-2.77-1.75-4.15c-1.55-2.61-3.63-4.69-6.24-6.24c-3.04-2.21-6.08-4.43-9.12-6.64
				c-3.44-2.5-9.48-2.83-13.4-1.75c-4.03,1.11-8.41,4.23-10.39,7.99c-2.13,4.04-3.2,8.93-1.75,13.4c0.58,1.38,1.17,2.77,1.75,4.15
				C961.05,863.62,963.13,865.7,965.75,867.24L965.75,867.24z"/>
		</g>
	</g>
</g>
<g id="Ebene_21">
</g>
</svg>
