<?xml version="1.0" encoding="utf-8"?>
<!-- Generator: Adobe Adobe Illustrator 24.2.0, SVG Export Plug-In . SVG Version: 6.00 Build 0)  -->
<svg version="1.1" xmlns="http://www.w3.org/2000/svg" xmlns:xlink="http://www.w3.org/1999/xlink" x="0px" y="0px"
	 viewBox="0 0 170.08 170.08" style="enable-background:new 0 0 170.08 170.08;" xml:space="preserve">
<style type="text/css">
	.st0{fill:#91615E;}
	.st1{fill:#2E1B13;}
	.st2{fill:#F0C1A1;}
	.st3{fill:#CA354F;}
	.st4{fill:#FFFFFF;stroke:#FFFFFF;stroke-width:0.0725;stroke-miterlimit:10;}
	.st5{opacity:0.3098;}
	.st6{fill:#C9354E;}
	.st7{fill:#F3C058;}
	.st8{fill:#F3C057;}
	.st9{fill:#F3C056;}
	.st10{fill:#CA5A7C;}
	.st11{opacity:0.102;}
	.st12{fill:#ADBECF;}
	.st13{fill:#F7D98D;}
	.st14{fill:#AEBFCE;}
	.st15{opacity:0.2706;}
	.st16{fill:#3D4C5B;}
	.st17{fill:#ECC9AD;}
	.st18{opacity:0.1608;}
	.st19{opacity:0.1686;}
	.st20{fill:#FFFFFF;}
	.st21{fill:#F0F6FA;}
	.st22{opacity:0.149;}
	.st23{opacity:0.0314;}
	.st24{stroke:#000000;stroke-width:0.0604;stroke-miterlimit:10;}
	.st25{fill:#C8354F;}
	.st26{fill:#C93550;}
	.st27{fill:#6DB671;}
	.st28{fill:#6CB671;}
	.st29{fill:#D1DFEA;}
	.st30{fill:#D3E1ED;}
	.st31{fill:#C8354E;}
	.st32{fill:#C8AE9D;}
	.st33{opacity:0.0784;}
	.st34{opacity:0.1412;}
	.st35{fill:#D15238;}
	.st36{fill:#D15239;}
</style>
<g id="Ebene_4_5_">
</g>
<g id="Ebene_8_7_">
	<g id="Ebene_13_1_">
		<g>
			<g>
				<path d="M89.54,129.56c-1.17,0.46-2.56-0.95-3.32-1.59c-0.93-0.77-1.82-1.6-2.5-2.57c-0.77-1.1-1.12-2.32-1.04-3.62
					c0.09-1.4,0.58-2.76,0.99-4.1c0.87-2.78,1.74-5.55,2.6-8.33c0.43-1.39,0.87-2.78,1.3-4.17c0.13-0.43,0.23-1.11,0.59-1.44
					c0.45-0.41,1.38-0.22,1.92-0.15c3.21,0.38,6.27,1.44,8.99,3.04c0.54,0.32,1.36-0.94,0.8-1.26c-2.7-1.58-5.76-2.65-8.94-3.07
					c-0.66-0.09-1.37-0.2-2.04-0.06c-0.75,0.16-1.32,0.65-1.69,1.25c-0.34,0.56-0.5,1.19-0.69,1.8c-0.27,0.86-0.54,1.72-0.81,2.58
					c-0.99,3.17-1.98,6.35-2.97,9.52c-0.89,2.85-1.95,5.83-0.3,8.62c0.75,1.28,1.91,2.31,3.07,3.27c1.13,0.93,2.46,2.1,4.08,1.47
					C90.13,130.54,90.41,129.22,89.54,129.56L89.54,129.56z"/>
			</g>
		</g>
		<g>
			<path class="st0" d="M85.63,10.72C72.48-0.03,47.52,8.24,31.68,27.09c-17.39,20.69-8.33,80.72,43.75,89.49
				c10.83,1.82,20.07,6.82,22.95,38.75c27.3-26.67,31.8-58.02,40.14-90.1c5.95-22.89-19.16-51.95-31.39-56.75
				c-5.69-2.24-18.43-3.08-20.96,2.38"/>
			<g>
				<path d="M86.03,10.08c-6.51-5.27-15.65-5.65-23.7-3.65c-10.24,2.55-19.32,8.47-26.51,15.49c-2.69,2.62-5.26,5.42-7.13,8.6
					c-1.39,2.36-2.46,4.87-3.28,7.43c-1.87,5.88-2.53,12.07-2.35,18.18c0.21,6.83,1.48,13.65,3.73,20.17
					c2.35,6.79,5.79,13.3,10.37,19.07c4.7,5.93,10.63,11.05,17.5,14.85c3.66,2.03,8.49,3.67,12.54,4.92
					c2.13,0.66,3.39,1.21,5.59,1.65c1.5,0.31,3.03,0.52,4.53,0.86c4.76,1.06,8.81,3.36,11.68,7.03c2.03,2.6,3.43,5.56,4.51,8.58
					c1.57,4.38,2.53,8.94,3.23,13.5c0.46,2.94,0.79,5.89,1.06,8.84c0.05,0.55,0.58,0.37,0.87,0.09
					c11.13-10.9,19.41-23.79,25.18-37.7c5.53-13.32,8.88-27.28,12.28-41.15c0.86-3.5,1.72-7,2.61-10.49
					c0.74-2.87,1.24-5.71,1.24-8.66c0.01-5.97-1.6-11.89-3.99-17.42c-2.44-5.64-5.72-10.97-9.55-15.91
					c-3.35-4.31-7.13-8.38-11.47-11.87c-1.66-1.34-3.41-2.6-5.31-3.64c-1.86-1.01-3.86-1.67-5.97-2.1c-2.85-0.58-5.82-0.81-8.73-0.6
					c-2.53,0.19-5.19,0.7-7.23,2.17c-0.92,0.66-1.61,1.51-2.08,2.49c-0.12,0.25-0.11,0.64,0.23,0.71c0.36,0.07,0.67-0.39,0.78-0.62
					c0.95-1.97,3.57-2.77,5.69-3.15c2.79-0.5,5.71-0.41,8.52-0.04c2.31,0.3,4.65,0.81,6.74,1.78c1.77,0.82,3.39,1.88,4.93,3.01
					c4.23,3.12,7.9,6.88,11.19,10.83c3.88,4.66,7.25,9.71,9.87,15.05c2.62,5.33,4.57,11.03,5.09,16.87
					c0.25,2.76,0.17,5.54-0.34,8.28c-0.62,3.33-1.63,6.61-2.45,9.9c-3.33,13.48-6.41,27.06-11.36,40.14
					c-5.08,13.46-12.28,26.17-22.33,37.1c-1.34,1.46-2.72,2.88-4.14,4.27c0.29,0.03,0.58,0.06,0.87,0.09
					c-0.5-5.46-1.21-10.92-2.48-16.28c-0.89-3.74-2.05-7.45-3.82-10.91c-2.25-4.4-5.65-8.26-10.6-10.25
					c-2.06-0.83-4.25-1.32-6.46-1.7c-4.42-0.76-8.75-1.92-12.89-3.53c-7.47-2.91-14.2-7.27-19.73-12.7
					c-5.3-5.22-9.49-11.35-12.53-17.91c-2.92-6.3-4.85-13-5.72-19.8c-0.81-6.27-0.77-12.68,0.44-18.9
					c0.99-5.12,2.78-10.27,6.01-14.59c2.9-3.87,6.63-7.35,10.51-10.39c4.05-3.17,8.53-5.91,13.37-7.96
					c7.72-3.28,17.27-5.08,25.32-1.67c1.76,0.75,3.39,1.73,4.84,2.91C85.69,11.71,86.54,10.49,86.03,10.08L86.03,10.08z"/>
			</g>
		</g>
	</g>
	<g id="Ebene_14_3_">
		<g>
			<path class="st1" d="M37.27,137.25c-9.49,5.26-21.44,13.53-21.44,23.51c16.44,3.04,34.45,3.26,51.16,2.61
				c25.11-0.97,50.2-2.4,75.25-4.27c-2.73-5.9-6.41-11.38-10.86-16.18c-2.5-2.69-5.6-5.33-9.32-5.44
				c-3.82-0.12-7.09,2.41-10.23,4.54c-11.03,7.49-24.63,11.28-38.04,10.62c-13.41-0.67-26.55-5.79-36.75-14.33"/>
			<g>
				<path d="M37.26,136.64c-4.13,2.29-8.15,4.8-11.76,7.74c-3.49,2.84-6.68,6.14-8.62,10.07c-1.02,2.07-1.6,4.32-1.62,6.6
					c0,0.19,0.1,0.34,0.3,0.38c7.77,1.43,15.66,2.22,23.57,2.6c7.95,0.39,15.93,0.38,23.89,0.14c8.33-0.25,16.66-0.66,24.98-1.06
					c8.48-0.42,16.95-0.88,25.42-1.4c8.47-0.52,16.94-1.09,25.4-1.71c1.05-0.08,2.1-0.15,3.14-0.23c0.46-0.03,1.03-0.66,0.83-1.1
					c-1.69-3.64-3.72-7.14-6.11-10.43c-2.24-3.1-4.76-6.26-7.84-8.71c-1.4-1.11-2.99-2.04-4.8-2.48c-1.87-0.45-3.8-0.21-5.57,0.45
					c-1.86,0.69-3.51,1.76-5.11,2.85c-1.66,1.13-3.3,2.25-5.04,3.27c-7,4.08-14.92,6.79-23.14,7.89
					c-8.05,1.08-16.31,0.51-24.12-1.58c-7.77-2.08-15.06-5.67-21.3-10.38c-0.8-0.6-1.57-1.22-2.33-1.86
					c-0.44-0.37-1.3,0.85-0.8,1.26c5.96,4.97,12.98,8.86,20.58,11.33c7.53,2.45,15.56,3.5,23.53,2.96
					c8.12-0.55,16.08-2.67,23.29-6.13c1.85-0.89,3.66-1.87,5.4-2.93c1.69-1.03,3.29-2.18,4.93-3.26c1.6-1.06,3.33-2.08,5.27-2.53
					c1.89-0.44,3.8-0.19,5.54,0.6c3.58,1.65,6.21,4.88,8.54,7.77c2.55,3.16,4.77,6.55,6.64,10.09c0.47,0.89,0.91,1.79,1.34,2.7
					c0.28-0.37,0.55-0.73,0.83-1.1c-8.46,0.63-16.93,1.21-25.4,1.74c-8.47,0.53-16.94,1.01-25.42,1.44
					c-8.41,0.42-16.82,0.81-25.24,1.12c-7.93,0.29-15.88,0.38-23.81,0.09c-7.94-0.29-15.88-0.95-23.71-2.24
					c-0.95-0.16-1.9-0.32-2.84-0.5c0.1,0.13,0.2,0.25,0.3,0.38c0.02-3.86,1.94-7.4,4.51-10.38c2.84-3.3,6.4-6.04,10.11-8.49
					c2.02-1.33,4.12-2.57,6.25-3.76c0.32-0.18,0.58-0.54,0.56-0.89C37.83,136.66,37.57,136.48,37.26,136.64L37.26,136.64z"/>
			</g>
		</g>
	</g>
	<g id="Ebene_27_2_">
		<g>
			<path class="st2" d="M71.31,112.03c0.75,6.51,0.62,10.52-3.31,14c-3.93,3.48-9.27,4.96-14.45,6.07s-10.54,2.01-15.11,4.65
				c11.32,9.49,26.22,14.81,41.13,14.68c14.91-0.13,29.72-5.69,40.87-15.37c-4.55-2.49-9.78-3.42-14.86-4.58
				c-5.08-1.16-11.49-0.99-15.37-4.39s-4.83-10.87-2.58-15.46c-5.24,1.1-10.78,0.78-15.84-0.93"/>
			<g>
				<path class="st2" d="M70.73,112.32c0.3,2.63,0.62,5.36,0.12,7.98c-0.42,2.18-1.56,4.02-3.34,5.52
					c-4.96,4.16-11.86,5.16-18.16,6.54c-3.8,0.83-7.58,1.88-10.91,3.79c-0.4,0.23-0.81,0.88-0.39,1.23
					c8.8,7.35,19.9,12.34,31.68,14.06c11.66,1.7,23.67-0.01,34.35-4.57c6.07-2.59,11.66-6.09,16.53-10.3
					c0.25-0.22,0.7-0.89,0.24-1.14c-3.25-1.77-6.89-2.77-10.53-3.62c-1.79-0.41-3.58-0.84-5.39-1.2c-1.55-0.3-3.13-0.5-4.69-0.74
					c-3.06-0.46-6.3-1.02-8.82-2.8c-2.27-1.6-3.46-4.14-4.03-6.65c-0.65-2.87-0.54-6.06,0.76-8.76c0.13-0.27,0.09-0.79-0.37-0.7
					c-5.16,1.07-10.6,0.75-15.57-0.91c-0.63-0.21-1.38,1.07-0.8,1.26c5.16,1.72,10.74,2.06,16.1,0.96c-0.12-0.23-0.25-0.47-0.37-0.7
					c-1.21,2.5-1.48,5.38-1.14,8.08c0.33,2.64,1.24,5.39,3.17,7.43c2.1,2.22,5.22,3.17,8.26,3.74c1.66,0.31,3.34,0.52,5.01,0.78
					c1.72,0.27,3.41,0.65,5.1,1.03c4.31,0.95,8.66,1.95,12.51,4.05c0.08-0.38,0.16-0.76,0.24-1.14
					c-8.52,7.37-19.31,12.46-30.87,14.38c-11.47,1.9-23.39,0.45-34.02-3.89c-6.06-2.47-11.65-5.84-16.55-9.93
					c-0.13,0.41-0.26,0.82-0.39,1.23c6.16-3.53,13.59-3.89,20.34-5.95c5.59-1.71,11.41-4.88,12.96-10.45
					c0.83-2.99,0.47-6.19,0.13-9.22C71.78,110.87,70.67,111.76,70.73,112.32L70.73,112.32z"/>
			</g>
		</g>
		<g>
			<g>
				<path class="st2" d="M98.11,100.7c0.62,0,1.23-1.33,0.55-1.33C98.04,99.37,97.43,100.7,98.11,100.7L98.11,100.7z"/>
			</g>
		</g>
	</g>
	<g id="Ebene_23_1_">
		<g>
			<g>
				<path d="M70.49,112.33c0.11,2.52,0.2,5.07-0.19,7.57c-0.35,2.27-1.09,4.56-2.76,6.33c-3.47,3.69-9.5,3.87-14.33,4.79
					c-11.24,2.15-22.01,6.83-29.53,14.96c-3.99,4.32-6.93,9.42-8.41,14.91c-0.08,0.28,0.08,0.59,0.43,0.53
					c0.38-0.06,0.62-0.5,0.7-0.8c2.68-9.92,10.43-18.07,20.11-22.91c5.27-2.64,11.03-4.36,16.9-5.45c4.96-0.92,10.53-1.27,14.26-4.8
					c4.34-4.11,4.23-10.41,3.99-15.72c-0.01-0.32-0.29-0.45-0.59-0.31C70.74,111.58,70.48,112,70.49,112.33L70.49,112.33z"/>
			</g>
		</g>
		<g>
			<g>
				<path d="M86.86,112.35c-0.22,4.59-0.39,9.95,2.85,13.78c3.25,3.84,8.81,4.43,13.68,5.21c11.34,1.82,22.58,5.94,30.51,13.83
					c4.08,4.06,7.16,8.94,8.67,14.29c0.09,0.33,0.49,0.23,0.71,0.07c0.28-0.2,0.49-0.61,0.4-0.94
					c-2.73-9.67-10.38-17.61-19.81-22.42c-5.1-2.6-10.67-4.36-16.36-5.52c-2.67-0.54-5.38-0.87-8.06-1.39
					c-2.47-0.48-4.96-1.19-6.98-2.62c-4.87-3.45-4.69-9.8-4.45-14.88c0.02-0.32-0.3-0.44-0.59-0.31
					C87.08,111.61,86.87,112.02,86.86,112.35L86.86,112.35z"/>
			</g>
		</g>
		<g>
			<g>
				<path d="M15.44,161.39c7.17,2.65,14.99,2.88,22.63,2.84c8.27-0.05,16.54,0.01,24.81,0.04c8.55,0.02,17.1-0.01,25.64-0.18
					c8.54-0.17,17.07-0.49,25.59-1.04c8.48-0.55,16.95-1.32,25.36-2.41c1.07-0.14,2.15-0.28,3.22-0.43
					c0.59-0.08,1.09-1.42,0.27-1.31c-8.44,1.17-16.93,2.02-25.44,2.63c-8.43,0.6-16.88,0.96-25.33,1.16
					c-8.5,0.21-17.01,0.27-25.52,0.26c-8.29-0.01-16.59-0.16-24.89-0.07c-7.64,0.08-15.51,0.23-22.89-1.86
					c-0.9-0.26-1.79-0.55-2.67-0.88C15.62,159.9,14.86,161.18,15.44,161.39L15.44,161.39z"/>
			</g>
		</g>
		<g>
			<g>
				<path d="M37.56,138.12c9.05,7.42,20.43,12.42,32.47,14.09c11.85,1.64,24.02-0.15,34.84-4.81c6.16-2.65,11.84-6.21,16.78-10.49
					c0.25-0.22,0.52-0.62,0.4-0.95c-0.12-0.31-0.49-0.27-0.72-0.07c-8.63,7.47-19.54,12.65-31.23,14.66
					c-11.7,2.01-23.88,0.62-34.78-3.73c-6.19-2.47-11.93-5.85-16.96-9.98C37.91,136.47,37.05,137.7,37.56,138.12L37.56,138.12z"/>
			</g>
		</g>
	</g>
	<g id="Ebene_3_4_">
		<g>
			<path class="st2" d="M33.33,50.7c-5.26-1.74-11.64-0.03-15.06,4.04s-3.6,10.17-0.43,14.4c3.16,4.23,9.43,6.26,14.79,4.8
				c3.25,7.87,7.36,15.52,13.2,22.01c5.84,6.48,13.52,11.76,22.34,14.03c12.3,3.17,29.9-0.27,37.49-5.5
				C118.76,95.44,123.71,74,123.71,74s12,0.24,15.3-3.89c3.3-4.13,3.08-12.5-0.71-16.27c-2.75-2.73-9.03-3.53-15.68-2.87
				c-2.35-5.04-3.15-9.12-3.45-14.06c-14.04,1.4-28.48-8.29-31.84-20.88C69.95,37.59,40.71,35.47,40.71,35.47
				s-0.44,13.01-7.03,15.39"/>
			<g>
				<path class="st2" d="M33.74,50.05c-6.55-2.12-14.23,0.77-17.26,6.5c-1.54,2.92-1.91,6.32-1,9.45c0.9,3.07,3.1,5.68,6.09,7.29
					c3.26,1.75,7.27,2.29,10.91,1.32c-0.14-0.08-0.29-0.15-0.43-0.23c4.06,9.81,9.49,19.44,17.94,26.71
					c3.87,3.33,8.28,6.14,13.18,8.06c4.59,1.79,9.44,2.64,14.42,2.73c5.01,0.08,10.05-0.48,14.91-1.59
					c4.17-0.95,8.39-2.3,12.01-4.45c3.41-2.03,6.23-4.86,8.57-7.88c2.42-3.11,4.39-6.49,6.08-9.98c2.15-4.45,3.91-9.13,5.08-13.88
					c0.02-0.07,0.04-0.15,0.05-0.22c-0.29,0.27-0.57,0.55-0.86,0.82c1.97,0.04,3.96-0.1,5.92-0.33c3.08-0.36,6.62-0.99,9.02-2.93
					c2.79-2.25,3.59-6.28,3.55-9.51c-0.05-3.31-1.02-7.25-4.01-9.4c-1.79-1.28-4.13-1.86-6.34-2.17c-2.91-0.41-5.88-0.33-8.8-0.05
					c0.14,0.08,0.29,0.15,0.43,0.23c-1.05-2.26-1.9-4.58-2.47-6.98c-0.54-2.28-0.81-4.61-0.95-6.94c-0.02-0.27-0.17-0.4-0.45-0.38
					c-10.98,1.06-21.95-4.67-27.79-13.02c-1.65-2.35-2.88-4.92-3.61-7.64c-0.12-0.44-0.69-0.17-0.87,0.06
					c-5.84,7.22-13.9,12.61-23.09,15.74c-6.14,2.09-12.69,3.26-19.24,3.44c-1.23,0.03-2.48,0.05-3.72-0.04
					c-0.52-0.04-0.86,0.6-0.88,0.99c-0.05,1.43-0.23,2.75-0.49,4.21c-0.47,2.6-1.18,5.28-2.69,7.55c-0.74,1.12-1.77,2.15-3.11,2.65
					c-0.37,0.14-0.65,0.45-0.72,0.81c-0.04,0.23,0.06,0.68,0.44,0.54c3.04-1.13,4.77-3.94,5.82-6.64c0.99-2.53,1.52-5.21,1.8-7.88
					c0.06-0.61,0.12-1.23,0.15-1.85c-0.29,0.33-0.58,0.66-0.88,0.99c3.68,0.26,7.49-0.08,11.12-0.58
					c8.22-1.13,16.27-3.75,23.22-7.96c4.97-3.01,9.33-6.81,12.88-11.19c-0.29,0.02-0.58,0.04-0.87,0.06
					c2.71,10.02,12.1,18.1,22.98,20.54c3.04,0.68,6.17,0.88,9.29,0.57c-0.15-0.13-0.3-0.25-0.45-0.38c0.15,2.37,0.42,4.73,0.96,7.05
					c0.57,2.46,1.44,4.84,2.51,7.16c0.09,0.19,0.2,0.25,0.43,0.23c2.45-0.24,4.93-0.3,7.37-0.06c2.04,0.2,4.12,0.58,5.94,1.47
					c3.2,1.55,4.52,4.89,4.84,8.03c0.18,1.72,0.09,3.47-0.33,5.15c-0.34,1.37-0.92,2.9-2.01,3.92c-0.92,0.87-2.22,1.4-3.45,1.79
					c-1.47,0.46-2.99,0.76-4.52,0.96c-2.09,0.28-4.22,0.43-6.33,0.39c-0.46-0.01-0.78,0.47-0.86,0.82
					c-0.88,3.8-2.25,7.49-3.83,11.15c-2.88,6.64-6.81,13.43-12.94,18.04c-3.09,2.32-6.87,3.78-10.66,4.85
					c-4.61,1.31-9.43,2.08-14.25,2.28c-4.77,0.2-9.62-0.15-14.19-1.49c-5.01-1.47-9.64-3.93-13.71-6.97
					c-8.67-6.48-14.54-15.51-18.79-24.87c-0.55-1.21-1.07-2.42-1.58-3.64c-0.07-0.17-0.22-0.28-0.43-0.23
					c-6,1.6-13.03-1.2-15.52-6.52c-1.25-2.67-1.43-5.78-0.42-8.55c1-2.74,3.15-4.9,5.97-6.19c3.1-1.42,6.84-1.71,10.12-0.65
					C33.57,51.56,34.33,50.24,33.74,50.05L33.74,50.05z"/>
			</g>
		</g>
	</g>
	<g id="Ebene_9_8_">
		<g>
			<path class="st3" d="M86.22,85.74c-0.84-1.58-3.73-1.44-4.68,0.08c-0.95,1.52-0.04,3.64,1.62,4.5c1.67,0.86,3.81,0.64,5.51-0.17
				c1.42-0.68,2.66-1.81,3.03-3.24c0.36-1.43-0.36-3.13-1.85-3.67c-1.49-0.54-3.48,0.52-3.42,1.99"/>
			<g>
				<path class="st3" d="M86.73,85.17c-1.06-1.85-4.01-1.43-5.28-0.03c-1.6,1.78-0.9,4.57,1.17,5.76c2.41,1.38,5.75,0.47,7.71-1.18
					c1.82-1.54,2.91-4.27,1.19-6.25c-1.91-2.18-5.68-0.58-5.69,2.06c0,0.33,0.3,0.46,0.6,0.32c0.34-0.16,0.58-0.58,0.58-0.92
					c0-0.64,0.69-0.99,1.31-1.1c0.87-0.16,1.69,0.21,2.21,0.84c1.18,1.41,0.61,3.15-0.79,4.21c-1.51,1.15-3.83,1.71-5.7,1.01
					c-1.4-0.53-2.95-2.32-2.13-3.77c0.32-0.56,1.13-0.8,1.78-0.81c0.84-0.01,1.61,0.31,2.01,1C86.03,86.86,87.03,85.69,86.73,85.17
					L86.73,85.17z"/>
			</g>
		</g>
	</g>
	<g id="Ebene_2_7_">
		<g>
			<g>
				<path d="M34.57,50.09c-6.52-2.61-14.59-0.09-18.02,5.61c-1.73,2.86-2.3,6.27-1.59,9.48c0.69,3.14,2.73,5.87,5.61,7.67
					c3.17,1.98,7.2,2.76,10.97,2c0.6-0.12,1.1-1.52,0.28-1.35c-6.22,1.26-13.12-2.06-15.23-7.61c-1.06-2.78-0.97-5.89,0.24-8.62
					c1.2-2.69,3.57-4.75,6.49-5.87c3.3-1.26,7.15-1.31,10.43,0C34.38,51.64,35.17,50.33,34.57,50.09L34.57,50.09z"/>
			</g>
		</g>
		<g>
			<g>
				<path d="M122.34,51.67c3.54-0.35,7.22-0.71,10.69,0.23c2.96,0.8,5.55,2.58,6.67,5.27c0.56,1.36,0.8,2.8,0.89,4.24
					c0.09,1.43,0.08,2.87-0.17,4.28c-0.24,1.35-0.7,2.7-1.56,3.84c-0.83,1.1-2.01,1.93-3.3,2.54c-3.55,1.68-7.68,1.56-11.57,1.45
					c-0.64-0.02-1.28,1.36-0.57,1.38c3.8,0.11,7.71,0.18,11.27-1.21c3.14-1.22,5.47-3.55,6.44-6.55c0.95-2.96,0.94-6.4,0.18-9.4
					c-0.38-1.49-1.05-2.94-2.15-4.11c-1.05-1.12-2.41-1.97-3.88-2.56c-4.01-1.6-8.45-1.18-12.68-0.76
					C122,50.38,121.48,51.75,122.34,51.67L122.34,51.67z"/>
			</g>
		</g>
		<g>
			<g>
				<path d="M31.11,74.61c2.7,7.74,7,15.07,12.69,21.31c5.59,6.13,12.65,11.29,20.87,14.13c7.99,2.76,16.85,3.45,25.21,1.8
					c4.13-0.81,8.14-2.21,11.77-4.19c3.8-2.08,7.12-4.81,9.94-7.92c5.88-6.51,9.45-14.49,11.85-22.57c0.3-1.02,0.59-2.05,0.86-3.08
					c0.07-0.29-0.08-0.6-0.44-0.54c-0.38,0.06-0.64,0.5-0.72,0.81c-2.06,7.9-5.1,15.81-10.34,22.45c-2.53,3.21-5.57,6.13-9.12,8.4
					c-3.4,2.18-7.23,3.77-11.22,4.78c-8.04,2.03-16.76,1.77-24.71-0.52c-8.16-2.36-15.32-6.98-21.06-12.73
					c-5.87-5.87-10.41-12.87-13.42-20.32c-0.36-0.89-0.7-1.79-1.01-2.7C32,72.98,30.92,74.07,31.11,74.61L31.11,74.61z"/>
			</g>
		</g>
		<g>
			<g>
				<path d="M34.32,51.26c2.1-1.92,3.31-4.57,4.31-7.08c0.94-2.38,1.68-4.83,2.3-7.3c0.13-0.51,0.25-1.03,0.36-1.54
					c-0.29,0.27-0.57,0.55-0.86,0.82c3.69,0.2,7.5-0.21,11.13-0.77c8.2-1.26,16.2-3.96,23.12-8.2c4.96-3.04,9.32-6.83,12.88-11.2
					c-0.29,0.02-0.58,0.04-0.87,0.06c1.93,4.77,5.12,9.06,9.19,12.52c4.04,3.44,8.88,6.07,14.15,7.6c2.99,0.86,6.08,1.37,9.21,1.46
					c-0.1-0.13-0.21-0.26-0.31-0.39c0.33,4.82,1.21,9.68,3.13,14.19c0.31,0.72,1.37-0.37,1.14-0.9c-1.88-4.42-2.76-9.18-3.09-13.9
					c-0.01-0.17-0.09-0.38-0.31-0.39c-10.89-0.33-21.27-5.66-27.63-13.7c-1.8-2.28-3.27-4.76-4.34-7.4
					c-0.17-0.41-0.66-0.2-0.87,0.06c-5.88,7.22-13.95,12.64-23.12,15.86c-6.1,2.14-12.61,3.4-19.13,3.69
					c-1.23,0.05-2.48,0.1-3.71,0.03c-0.45-0.02-0.79,0.48-0.86,0.82c-0.81,3.87-1.99,7.85-3.86,11.4c-0.6,1.13-1.29,2.31-2.27,3.21
					c-0.26,0.23-0.54,0.62-0.41,0.97C33.71,51.5,34.1,51.47,34.32,51.26L34.32,51.26z"/>
			</g>
		</g>
		<g>
			<g>
				<path d="M75.15,88.09c6.05,0.92,12.41-0.22,17.67-3.09c1.52-0.83,2.95-1.8,4.26-2.89c0.26-0.22,0.53-0.63,0.41-0.97
					c-0.12-0.32-0.5-0.27-0.73-0.08c-5.62,4.7-13.53,6.79-21.04,5.64C75.09,86.61,74.42,87.97,75.15,88.09L75.15,88.09z"/>
			</g>
		</g>
		<g>
			<g>
				<path d="M76.66,62.73c1.08-0.8,2.66-0.93,3.93-0.46c1.33,0.49,2.22,1.62,2.35,2.93c0.12,1.24-0.45,2.33-1.68,2.89
					c-1.23,0.55-2.73,0.47-3.89-0.18c-0.57-0.32-1.4,0.98-0.82,1.3c2.52,1.42,5.86,0.27,7.08-2.11c1.23-2.42,0.18-5.54-2.77-6.31
					c-1.57-0.41-3.25-0.05-4.51,0.89c-0.27,0.2-0.53,0.64-0.41,0.97C76.05,62.99,76.42,62.9,76.66,62.73L76.66,62.73z"/>
			</g>
		</g>
		<g>
			<path d="M69.03,50.78c-0.23-0.96,0.04-1.96,0.24-2.93c0.2-0.97,0.33-2.02-0.15-2.9c-0.48-0.88-1.78-1.44-2.67-0.89
				c-0.94,0.59-0.8,1.85-0.88,2.89c-0.06,0.83-0.31,1.63-0.45,2.45c-0.14,0.82-0.14,1.7,0.27,2.44c0.41,0.74,1.33,1.29,2.21,1.11
				c0.88-0.18,1.45-1.27,0.88-1.92"/>
			<g>
				<path d="M69.6,50.33c-0.41-1.96,1.1-3.96,0.06-5.88c-0.78-1.44-2.83-1.72-3.91-0.41c-0.53,0.65-0.67,1.45-0.72,2.24
					c-0.06,0.93-0.18,1.79-0.37,2.71c-0.34,1.61-0.41,3.94,1.67,4.59c1.8,0.56,3.8-1.62,2.66-3.1c-0.42-0.54-1.39,0.66-1.02,1.14
					c0.45,0.59-0.33,0.79-0.86,0.65c-0.82-0.22-1.31-0.95-1.44-1.69c-0.16-0.94,0.16-1.88,0.34-2.79c0.15-0.75,0.14-1.49,0.21-2.24
					c0.05-0.55,0.16-1.03,0.88-0.99c0.81,0.05,1.44,0.66,1.65,1.35c0.25,0.82,0.04,1.68-0.14,2.49c-0.2,0.95-0.35,1.89-0.15,2.85
					c0.07,0.36,0.52,0.23,0.73,0.08C69.5,51.08,69.67,50.68,69.6,50.33L69.6,50.33z"/>
			</g>
		</g>
		<g>
			<path d="M90.09,49.17c0.47-0.94,0.95-1.94,0.82-2.97c-0.13-1.03-1.12-2.04-2.23-1.86c-1.21,0.19-1.71,1.52-1.87,2.63
				c-0.17,1.19-0.21,2.4-0.13,3.6c0.06,0.86,0.33,1.88,1.21,2.16c0.78,0.24,1.65-0.29,1.99-0.97c0.35-0.69,0.31-1.48,0.27-2.23"/>
			<g>
				<path d="M90.61,49.22c0.73-1.47,1.54-3.47,0.17-4.86c-1.22-1.24-2.94-0.67-3.79,0.61c-0.94,1.41-0.96,3.31-0.94,4.9
					c0.01,1.22,0.07,3.54,1.93,3.61c0.93,0.03,1.77-0.61,2.22-1.31c0.59-0.89,0.6-1.94,0.55-2.95c-0.02-0.33-0.29-0.46-0.6-0.32
					c-0.33,0.15-0.6,0.58-0.58,0.92c0.03,0.59,0.18,1.51-0.3,1.99c-0.49,0.49-1.26,0.3-1.61-0.22c-0.38-0.56-0.39-1.29-0.41-1.93
					c-0.03-0.88,0-1.76,0.12-2.64c0.12-0.92,0.52-2.59,1.95-1.87c1.7,0.85,0.86,2.75,0.26,3.96c-0.12,0.24-0.12,0.68,0.24,0.73
					C90.19,49.92,90.49,49.47,90.61,49.22L90.61,49.22z"/>
			</g>
		</g>
		<g>
			<g>
				<path d="M87.06,39.95c3.19-0.1,6.31,1.16,8.36,3.42c0.47,0.52,1.43-0.69,1.02-1.14c-2.15-2.37-5.44-3.76-8.81-3.66
					C86.99,38.59,86.37,39.97,87.06,39.95L87.06,39.95z"/>
			</g>
		</g>
		<g>
			<g>
				<path d="M60.95,43.09c2.02-2.12,5.22-3.06,8.23-2.6c0.62,0.1,1.3-1.26,0.57-1.38c-3.51-0.54-7.09,0.76-9.4,3.19
					c-0.2,0.21-0.44,0.7-0.21,0.96C60.39,43.54,60.77,43.29,60.95,43.09L60.95,43.09z"/>
			</g>
		</g>
		<g>
			<g>
				<path d="M126.52,55.25c4.34,0.59,8.01,4.08,8.4,8.1c0.09,0.89,1.24-0.02,1.19-0.6c-0.43-4.4-4.22-8.22-9.02-8.87
					C126.46,53.79,125.79,55.15,126.52,55.25L126.52,55.25z"/>
			</g>
		</g>
		<g>
			<g>
				<path d="M28.8,52.63c-5.41,0.65-9.65,5.78-9.06,10.71c0.11,0.89,1.26-0.02,1.19-0.6c-0.5-4.23,3-8.2,7.59-8.75
					C29.13,53.91,29.65,52.53,28.8,52.63L28.8,52.63z"/>
			</g>
		</g>
	</g>
	<g id="Ebene_8_8_">
		<ellipse class="st4" cx="67.98" cy="45.8" rx="0.74" ry="0.68"/>
		<ellipse class="st4" cx="89.5" cy="46.38" rx="0.71" ry="0.65"/>
	</g>
	<g id="Ebene_10_5_">
		<g class="st5">
			<path class="st3" d="M62.68,83.81c-0.16-2.36-2.43-4.39-4.99-4.69c-2.56-0.29-5.19,1.03-6.51,3.06
				c-1.32,2.03-1.38,4.66-0.38,6.84c1.11,2.43,3.55,4.36,6.38,4.76c2.83,0.4,5.92-0.88,7.24-3.22c1.32-2.33,0.57-5.55-1.82-7"/>
			<g>
				<path class="st3" d="M63.27,83.51c-0.28-3.24-3.64-5.53-7.1-5.03c-3.85,0.55-6.43,3.88-6.63,7.29c-0.2,3.36,1.9,6.73,5.27,8.13
					c3.17,1.32,7.01,0.5,9.22-1.97c2.36-2.64,2.21-6.99-1.01-9.01c-0.54-0.34-1.39,0.95-0.82,1.3c2.15,1.35,2.99,4.3,1.65,6.38
					c-1.45,2.26-4.82,3.05-7.43,2.28c-2.9-0.85-5.06-3.28-5.58-6c-0.56-2.89,0.91-5.89,4.09-6.83c1.57-0.46,3.24-0.31,4.65,0.49
					c1.36,0.78,2.39,2.09,2.52,3.58C62.17,85,63.32,84.09,63.27,83.51L63.27,83.51z"/>
			</g>
		</g>
		<g class="st5">
			<path class="st3" d="M112.21,76.43c-0.16-2.36-2.43-4.39-4.99-4.69c-2.56-0.29-5.19,1.03-6.51,3.06s-1.38,4.66-0.38,6.84
				c1.11,2.43,3.55,4.36,6.38,4.76c2.83,0.4,5.92-0.88,7.24-3.22c1.32-2.33,0.57-5.55-1.82-7"/>
			<g>
				<path class="st3" d="M112.81,76.13c-0.28-3.24-3.64-5.53-7.1-5.03c-3.85,0.55-6.43,3.88-6.63,7.29c-0.2,3.36,1.9,6.73,5.27,8.13
					c3.17,1.32,7.01,0.5,9.22-1.97c2.36-2.64,2.21-6.99-1.01-9.01c-0.54-0.34-1.39,0.95-0.82,1.3c2.15,1.35,2.99,4.3,1.65,6.38
					c-1.45,2.26-4.82,3.05-7.43,2.28c-2.9-0.85-5.06-3.28-5.58-6c-0.56-2.89,0.91-5.89,4.09-6.83c1.57-0.46,3.24-0.31,4.65,0.49
					c1.36,0.78,2.39,2.09,2.52,3.58C111.7,77.62,112.86,76.7,112.81,76.13L112.81,76.13z"/>
			</g>
		</g>
	</g>
	<g id="Ebene_12_1_">
		<g>
			<g>
				<path class="st6" d="M10.44,162.49c1.39-0.63,2.91-1.21,4.33-0.39c1,0.58,2.16,0.99,3.3,1.3c0.78,0.21,1.59,0.55,2.4,0.64
					c1.38,0.16,2.87-0.24,4.22-0.46c1.03-0.17,2.27-0.15,3.2-0.73c0.73-0.45,1.57-1.13,2.12-1.8c1.01-1.2,3.11-4.15,1.22-5.32
					c-0.63-0.39-1.18-0.35-1.88-0.49c-0.65-0.13-1.27-0.4-1.92-0.53c-1.19-0.24-2.41-0.4-3.6-0.63c-0.92-0.18-1.55-0.61-2.2-1.33
					c-0.4-0.45-0.56-1.08-0.98-1.51c-0.48-0.49-1.25-0.67-1.9-0.83c-1.1-0.27-2.4-0.43-3.53-0.19c-1.13,0.24-2.04,1.04-2.96,1.69
					c-0.8,0.57-1.45,1.17-1.99,1.98c-0.48,0.73-0.8,1.55-1.25,2.3c-0.52,0.87-1.08,1.58-1.73,2.38c-0.57,0.72-1.71,1.61-0.79,2.52
					c0.61,0.61,2.91,1.49,3.79,1.49"/>
				<g>
					<path d="M10.45,163.09c1.16-0.52,2.5-1.06,3.75-0.46c1.13,0.54,2.19,1.03,3.41,1.38c1.33,0.38,2.51,0.82,3.93,0.7
						c1.28-0.1,2.51-0.43,3.78-0.58c1.21-0.14,2.2-0.38,3.17-1.07c0.87-0.61,1.61-1.34,2.23-2.15c0.97-1.27,2.18-3.03,1.77-4.66
						c-0.21-0.82-0.96-1.32-1.82-1.51c-0.6-0.13-1.19-0.18-1.79-0.36c-0.67-0.21-1.33-0.37-2.03-0.49
						c-0.64-0.11-1.27-0.21-1.91-0.32c-0.6-0.1-1.2-0.18-1.74-0.47c-0.47-0.25-0.88-0.62-1.19-1.03c-0.33-0.44-0.48-0.98-0.88-1.38
						c-0.7-0.71-1.9-0.93-2.88-1.1c-1.23-0.22-2.55-0.25-3.71,0.24c-1.03,0.43-1.95,1.18-2.81,1.84c-0.95,0.73-1.71,1.62-2.27,2.65
						c-0.65,1.2-1.25,2.34-2.12,3.43c-0.67,0.84-1.77,1.74-1.77,2.86c0,0.97,0.94,1.49,1.79,1.86c0.79,0.36,1.75,0.75,2.65,0.77
						c0.62,0.02,1.24-1.32,0.55-1.33c-0.71-0.02-1.43-0.3-2.07-0.56c-0.49-0.2-1.69-0.61-1.76-1.21c-0.03-0.28,0.31-0.56,0.48-0.76
						c0.35-0.4,0.68-0.81,1.01-1.23c0.67-0.87,1.25-1.76,1.74-2.73c0.46-0.91,0.93-1.76,1.74-2.45c0.74-0.63,1.6-1.29,2.48-1.75
						c1.02-0.53,2.21-0.5,3.33-0.32c0.93,0.15,2.21,0.34,2.79,1.09c0.29,0.37,0.43,0.82,0.72,1.19c0.27,0.36,0.63,0.69,1.01,0.96
						c0.8,0.57,1.81,0.68,2.78,0.84c1.23,0.2,2.42,0.43,3.62,0.78c0.88,0.26,2.14,0.17,2.74,0.92c0.81,1.03-0.44,2.69-1.07,3.53
						c-0.54,0.71-1.17,1.33-1.92,1.85c-0.88,0.61-1.88,0.69-2.94,0.82c-1.3,0.16-2.58,0.56-3.9,0.54c-1.32-0.02-2.68-0.55-3.91-0.96
						c-0.6-0.2-1.18-0.43-1.74-0.71c-0.56-0.28-1.07-0.59-1.72-0.68c-1.24-0.17-2.46,0.35-3.54,0.83
						C9.88,162.13,9.6,163.46,10.45,163.09L10.45,163.09z"/>
				</g>
			</g>
			<g>
				<path class="st7" d="M11.49,146.42c-1.83,0.65-3.02,2.4-3.96,3.98c-0.76,1.26-1.31,3.17-0.78,4.62c0.4,1.08,1.69,1.38,2.73,1.46
					c1.43,0.12,2.84-0.79,4.19-1.12c0.95-0.23,1.9-0.14,2.67,0.48c0.66,0.53,0.89,1.17,1.9,0.92c1.03-0.25,1.96-0.9,2.72-1.6
					c0.77-0.71,1.3-1.56,1.21-2.65c-0.09-1.12-0.81-1.82-1.67-2.49c-0.32-0.25-0.62-0.48-1.01-0.65c-0.5-0.22-1.09-0.32-1.55-0.6
					c-0.7-0.42-1.05-1.21-0.88-1.97c0.11-0.53,0.18-0.96-0.21-1.37c-1.69-1.78-4.88,0.84-5.48,1.02"/>
				<g>
					<path d="M11.48,145.82c-1.7,0.63-2.86,2.04-3.78,3.43c-0.96,1.45-1.72,3.02-1.73,4.74c-0.01,0.75,0.13,1.62,0.69,2.2
						c0.48,0.5,1.18,0.74,1.88,0.87c0.89,0.16,1.73,0.08,2.58-0.2c0.92-0.3,1.8-0.77,2.77-0.92c0.99-0.15,1.75,0.22,2.41,0.87
						c0.55,0.54,1.07,0.79,1.88,0.58c1.72-0.44,3.43-1.83,4.17-3.31c0.82-1.62,0.28-3.24-1.11-4.41c-0.31-0.26-0.62-0.52-0.97-0.73
						c-0.45-0.27-0.95-0.39-1.43-0.58c-0.95-0.36-1.33-1.02-1.17-1.93c0.14-0.83-0.08-1.56-0.9-2.02c-0.62-0.34-1.38-0.33-2.06-0.17
						c-0.72,0.17-1.41,0.5-2.04,0.85c-0.25,0.14-0.5,0.29-0.74,0.44c-0.1,0.06-0.2,0.12-0.3,0.18c-0.04,0.02-0.3,0.14-0.12,0.08
						c-0.36,0.13-0.63,0.44-0.69,0.79c-0.04,0.22,0.06,0.66,0.42,0.53c0.78-0.28,1.44-0.83,2.2-1.18c0.9-0.42,2.26-0.79,2.98,0.11
						c0.23,0.29,0.15,0.56,0.1,0.89c-0.06,0.35-0.07,0.71,0.01,1.06c0.15,0.66,0.62,1.23,1.28,1.54c0.76,0.35,1.5,0.51,2.18,1.02
						c0.58,0.45,1.2,0.97,1.47,1.63c0.61,1.48-0.62,2.69-1.9,3.44c-0.54,0.32-1.38,0.77-1.98,0.34c-0.55-0.4-0.89-0.93-1.59-1.18
						c-1.64-0.59-3.16,0.33-4.67,0.8c-1.16,0.36-3.05,0.38-3.82-0.69c-0.48-0.66-0.41-1.63-0.26-2.38c0.16-0.77,0.47-1.48,0.89-2.16
						c0.82-1.35,1.78-2.73,3.4-3.33C12.07,146.81,12.36,145.49,11.48,145.82L11.48,145.82z"/>
				</g>
			</g>
			<g>
				<path class="st8" d="M19.77,154.13c0.86,0.71,1.59,1.38,2.75,1.48c0.55,0.05,1.09-0.03,1.64-0.11c0.84-0.14,1.51-0.25,2.23,0.27
					c1.39,1.02,2.78,2.03,4.19,3.03c0.35,0.24,0.58,0.41,1.02,0.43c0.55,0.04,0.99,0.13,1.54,0.03c1.18-0.2,2.04-0.67,2.8-1.58
					c0.67-0.8,1.05-2.05,0.88-3.08c-0.22-1.33-1.49-1.88-2.57-2.48c-0.86-0.47-1.75-0.96-1.98-1.96c-0.1-0.47-0.16-0.92-0.16-1.4
					c0-0.5,0.15-1,0.11-1.49c-0.18-2.2-2.7-2.76-4.57-2.61c-1.62,0.12-2.96,1.26-3.87,2.51c-0.33,0.46-0.66,0.92-1.15,1.23
					c-0.48,0.31-1.08,0.47-1.61,0.69c-0.68,0.28-1.19,0.78-1.65,1.33c-0.33,0.4-0.65,0.81-0.75,1.33c-0.11,0.55,0.04,1.09,0.37,1.53
					c0.32,0.42,1.34,1.26,1.66,1.66"/>
				<g>
					<path d="M19.37,154.77c0.73,0.61,1.45,1.22,2.44,1.45c1.08,0.25,2.09-0.18,3.16-0.16c0.57,0.02,0.94,0.29,1.37,0.61
						c0.52,0.38,1.04,0.76,1.57,1.14c0.47,0.34,0.93,0.67,1.4,1.01c0.45,0.32,0.9,0.74,1.42,0.95c0.84,0.35,2.06,0.27,2.92,0.02
						c0.91-0.27,1.67-0.76,2.31-1.4c1.22-1.24,2.01-3.42,1.12-5c-0.83-1.48-2.91-1.65-3.92-2.94c-0.66-0.84-0.44-2.02-0.36-2.98
						c0.06-0.76-0.13-1.55-0.65-2.15c-0.92-1.06-2.56-1.38-3.96-1.32c-2,0.08-3.55,1.32-4.64,2.76c-0.31,0.41-0.59,0.87-1.06,1.15
						c-0.5,0.3-1.09,0.42-1.62,0.67c-0.97,0.47-1.76,1.34-2.31,2.19c-0.58,0.9-0.74,2.02-0.14,2.95c0.45,0.69,1.22,1.17,1.76,1.8
						c0.43,0.51,1.37-0.65,0.99-1.1c-0.81-0.96-2.69-1.96-1.68-3.35c0.49-0.68,1.08-1.17,1.91-1.49c0.86-0.32,1.59-0.67,2.18-1.34
						c0.55-0.62,0.95-1.31,1.59-1.86c0.62-0.53,1.35-0.92,2.2-1.02c1.19-0.14,2.69,0.07,3.58,0.86c0.52,0.46,0.76,1.1,0.71,1.75
						c-0.07,0.91-0.16,1.76,0.07,2.66c0.36,1.47,1.98,2,3.21,2.75c0.64,0.39,1.19,0.89,1.32,1.61c0.13,0.73-0.07,1.57-0.5,2.19
						c-0.41,0.59-1.03,1.05-1.76,1.28c-0.76,0.24-1.95,0.35-2.67-0.05c-0.99-0.56-1.89-1.32-2.8-1.98
						c-0.49-0.36-0.99-0.72-1.48-1.08c-0.4-0.29-0.78-0.53-1.3-0.6c-1.05-0.14-2.07,0.35-3.14,0.19c-0.99-0.15-1.73-0.84-2.44-1.43
						C19.72,153.13,18.87,154.35,19.37,154.77L19.37,154.77z"/>
				</g>
			</g>
			<g>
				<path class="st6" d="M34.7,139.23c-1.82-1.66-4.31-3.37-6.95-2.87c-2.13,0.4-3.7,1.17-5.34,2.54c-1.34,1.12-2.5,2.24-3.61,3.58
					c-0.9,1.09-1.9,2.45-2.36,3.79c-0.4,1.18-0.16,1.9,0.4,2.98c0.48,0.92,1.79,1.41,2.77,1.64c2.39,0.58,5.02,0.23,7.48,0.25
					c0.81,0.01,1.5,0.26,2.34,0.22c0.44-0.02,4.27,1.29,5.62-1.71c1.36-3.02-5.11-1.5,1.63-7.22c1.1-0.93,0.46-1.72-0.41-2.52
					c-0.69-0.64-1.64-1.23-2.65-1.1"/>
				<g>
					<path d="M35.19,138.68c-1.93-1.74-4.43-3.48-7.31-2.98c-2.79,0.49-4.97,2-6.92,3.81c-1.06,0.98-2.04,2.03-2.91,3.15
						c-0.9,1.15-1.74,2.38-2.17,3.74c-0.38,1.22-0.16,2.42,0.54,3.51c0.6,0.93,1.83,1.37,2.92,1.64c1.55,0.38,3.18,0.36,4.77,0.31
						c0.8-0.02,1.6-0.06,2.4-0.06c0.76,0,1.48,0.18,2.24,0.22c1.36,0.07,2.67,0.47,4.03,0.1c1.63-0.44,3.17-2.07,3.03-3.69
						c-0.08-0.89-0.88-1.3-1.39-1.85c-0.16-0.17-0.23-0.28-0.27-0.42c-0.01-0.05-0.02-0.18-0.03-0.13c0.01-0.05,0.01-0.09,0.02-0.14
						c0.04-0.16-0.02,0.03,0.03-0.1c0.08-0.21,0.31-0.55,0.54-0.82c0.41-0.49,0.88-0.95,1.36-1.38c0.61-0.55,1.33-1.04,1.63-1.8
						c0.23-0.6,0.12-1.2-0.26-1.72c-0.8-1.11-2.19-2.07-3.69-1.93c-0.59,0.06-1.1,1.39-0.27,1.31c1.19-0.11,2.52,0.93,3.06,1.84
						c0.33,0.55-0.14,0.71-0.56,1.09c-0.45,0.4-0.9,0.81-1.31,1.24c-0.82,0.85-1.97,2.13-1.64,3.37c0.18,0.67,0.87,1.04,1.29,1.47
						c0.26,0.27,0.36,0.45,0.35,0.7c0,0.04,0,0.05-0.03,0.19c-0.01,0.05-0.03,0.1-0.09,0.24c-0.15,0.32-0.37,0.62-0.67,0.84
						c-1.06,0.75-2.55,0.54-3.76,0.31c-0.13-0.02-0.27-0.05-0.4-0.06c-0.65-0.05-1.29-0.14-1.94-0.2c-1.44-0.13-2.92,0.06-4.37,0.06
						c-1.32,0-2.68-0.06-3.94-0.45c-1.18-0.37-1.96-0.93-2.4-2.01c-0.48-1.17-0.03-2.23,0.61-3.27c0.65-1.06,1.45-2.04,2.3-2.97
						c1.78-1.93,3.89-3.86,6.6-4.6c1.44-0.39,2.77-0.4,4.15,0.18c1.32,0.55,2.46,1.42,3.49,2.35
						C34.72,140.25,35.62,139.07,35.19,138.68L35.19,138.68z"/>
				</g>
			</g>
			<g>
				<path class="st9" d="M35.13,133.49c-2.48-0.6-7.87,2.35-8.79,3.82c-0.77,1.24-1.15,2.24-1.09,3.7c0.04,1.12,0.65,2.42,1.44,3.23
					c2.21,2.23,5.22,0,7.73,1.04c0.86,0.36,1.24,1.02,1.93,1.57c0.83,0.67,1.82,1.07,2.9,1.02c1.04-0.05,2.05-0.59,2.78-1.28
					c0.7-0.66,1.71-1.66,1.93-2.62c0.24-1.07-0.56-1.99-1.3-2.7c-1.01-0.97-2.03-1.54-2.79-2.75c-0.41-0.65-0.94-1.37-0.92-2.17
					c0.01-0.47,0.32-0.64,0.05-1.09c-1.05-1.74-3.17-1.72-4.17-1.86"/>
				<g>
					<path d="M35.41,132.82c-1.44-0.32-3.07,0.27-4.37,0.8c-1.47,0.6-2.95,1.4-4.13,2.41c-1.31,1.12-2.07,2.79-2.21,4.41
						c-0.16,1.85,0.62,4.18,2.53,5.11c1.77,0.86,3.72,0.01,5.58,0.11c1.17,0.06,1.84,0.59,2.61,1.34c0.73,0.72,1.62,1.28,2.69,1.48
						c2.24,0.41,4.14-1.19,5.37-2.71c0.64-0.79,1.21-1.73,1.09-2.75c-0.12-1.02-0.89-1.85-1.67-2.54c-0.87-0.79-1.83-1.46-2.47-2.43
						c-0.33-0.5-0.73-1.04-0.85-1.63c-0.1-0.49,0.24-0.94,0.07-1.44c-0.61-1.76-2.85-2.02-4.53-2.25c-0.61-0.08-1.26,1.24-0.55,1.33
						c1.33,0.18,2.73,0.26,3.64,1.31c0.1,0.12,0.3,0.32,0.33,0.48c0.03,0.14-0.09,0.32-0.12,0.46c-0.08,0.46,0,0.94,0.18,1.38
						c0.33,0.8,0.87,1.63,1.48,2.28c0.64,0.67,1.42,1.21,2.09,1.86c0.61,0.58,1.43,1.4,1.23,2.28c-0.17,0.77-0.97,1.48-1.55,2.01
						c-0.66,0.61-1.54,1.09-2.5,1.1c-0.97,0.01-1.88-0.4-2.6-0.99c-0.72-0.58-1.21-1.34-2.15-1.65c-1.64-0.55-3.29,0.04-4.96,0.04
						c-1.99-0.01-3.23-1.42-3.69-3.09c-0.22-0.82-0.19-1.74,0.08-2.55c0.13-0.4,0.32-0.78,0.53-1.14c0.04-0.07,0.27-0.43,0.18-0.31
						c0.06-0.08,0.13-0.16,0.2-0.23c0.94-0.98,2.37-1.71,3.65-2.28c1.25-0.55,2.84-1.17,4.25-0.86
						C35.45,134.28,36.12,132.98,35.41,132.82L35.41,132.82z"/>
				</g>
			</g>
		</g>
		<g>
			<g>
				<path class="st6" d="M146.5,161.79c-1.39-0.63-2.91-1.21-4.33-0.39c-1,0.58-2.16,0.99-3.3,1.3c-0.78,0.21-1.59,0.55-2.4,0.64
					c-1.38,0.16-2.87-0.24-4.22-0.46c-1.03-0.17-2.27-0.15-3.2-0.73c-0.73-0.45-1.57-1.13-2.12-1.8c-1.01-1.2-3.11-4.15-1.22-5.32
					c0.63-0.39,1.18-0.35,1.88-0.49c0.65-0.13,1.27-0.4,1.92-0.53c1.19-0.24,2.41-0.4,3.6-0.63c0.92-0.18,1.55-0.61,2.2-1.33
					c0.4-0.45,0.56-1.08,0.98-1.51c0.48-0.49,1.25-0.67,1.9-0.83c1.1-0.27,2.4-0.43,3.53-0.19c1.13,0.24,2.04,1.04,2.96,1.69
					c0.8,0.57,1.45,1.17,1.99,1.98c0.48,0.73,0.8,1.55,1.25,2.3c0.52,0.87,1.08,1.58,1.73,2.38c0.57,0.72,1.71,1.61,0.79,2.52
					c-0.61,0.61-2.91,1.49-3.79,1.49"/>
				<g>
					<path d="M146.9,161.16c-0.96-0.43-2.01-0.87-3.1-0.83c-1.15,0.05-2.03,0.73-3.05,1.14c-1.06,0.42-2.21,0.76-3.33,1.05
						c-1.2,0.32-2.4,0.14-3.6-0.08c-1.06-0.2-2.14-0.28-3.19-0.49c-1.08-0.21-1.96-0.9-2.7-1.62c-1.03-1-2.09-2.42-2.36-3.79
						c-0.13-0.68,0.07-1.01,0.84-1.18c0.54-0.12,1.09-0.15,1.62-0.31c0.59-0.17,1.16-0.36,1.77-0.47c1.15-0.22,2.37-0.31,3.5-0.62
						c0.91-0.25,1.66-0.81,2.26-1.48c0.33-0.37,0.54-0.78,0.78-1.2c0.25-0.43,0.61-0.61,1.11-0.76c1.03-0.31,2.15-0.52,3.23-0.45
						c1.13,0.07,1.98,0.58,2.84,1.2c0.85,0.62,1.7,1.21,2.34,2.02c0.74,0.94,1.12,2.06,1.76,3.06c0.6,0.94,1.32,1.8,2.05,2.65
						c0.18,0.21,0.64,0.75,0.52,0.95c-0.14,0.23-0.67,0.41-0.91,0.52c-0.7,0.32-1.57,0.7-2.36,0.73c-0.62,0.02-1.22,1.35-0.55,1.33
						c0.84-0.02,1.66-0.33,2.42-0.63c0.78-0.31,1.61-0.7,2.12-1.35c0.68-0.87,0.47-1.78-0.2-2.58c-0.74-0.88-1.49-1.75-2.1-2.71
						c-0.63-1-1.02-2.12-1.76-3.06c-0.7-0.89-1.66-1.56-2.6-2.23c-0.94-0.68-1.9-1.17-3.12-1.23c-1.19-0.06-2.45,0.16-3.57,0.52
						c-0.5,0.16-0.97,0.38-1.36,0.71c-0.45,0.39-0.69,0.88-0.97,1.38c-0.56,0.97-1.5,1.29-2.61,1.49c-1.39,0.24-2.78,0.43-4.12,0.84
						c-1.07,0.33-2.25,0.27-3.14,0.98c-1.54,1.23-0.95,3.15-0.11,4.57c0.4,0.68,0.88,1.35,1.43,1.94c0.76,0.82,1.76,1.67,2.89,1.99
						c0.62,0.18,1.27,0.24,1.91,0.31c0.7,0.09,1.4,0.23,2.09,0.36c0.74,0.13,1.48,0.24,2.23,0.2c0.75-0.03,1.44-0.22,2.14-0.45
						c1.36-0.43,2.73-0.79,3.98-1.46c0.68-0.36,1.26-0.55,2.06-0.43c0.75,0.11,1.45,0.41,2.12,0.72
						C146.7,162.68,147.48,161.41,146.9,161.16L146.9,161.16z"/>
				</g>
			</g>
			<g>
				<path class="st7" d="M145.45,145.72c1.83,0.65,3.02,2.4,3.96,3.98c0.76,1.26,1.31,3.17,0.78,4.62c-0.4,1.08-1.69,1.38-2.73,1.46
					c-1.43,0.12-2.84-0.79-4.19-1.12c-0.95-0.23-1.9-0.14-2.67,0.48c-0.66,0.53-0.89,1.17-1.9,0.92c-1.03-0.25-1.96-0.9-2.72-1.6
					c-0.77-0.71-1.3-1.56-1.21-2.65c0.09-1.12,0.81-1.82,1.67-2.49c0.32-0.25,0.62-0.48,1.01-0.65c0.5-0.22,1.09-0.32,1.55-0.6
					c0.7-0.42,1.05-1.21,0.88-1.97c-0.11-0.53-0.18-0.96,0.21-1.37c1.69-1.78,4.88,0.84,5.48,1.02"/>
				<g>
					<path d="M145.05,146.36c1.44,0.54,2.4,1.66,3.2,2.84c0.83,1.23,1.54,2.56,1.58,4.03c0.01,0.6-0.02,1.24-0.65,1.55
						c-0.54,0.27-1.27,0.39-1.89,0.36c-1.66-0.09-3.03-1.26-4.71-1.24c-0.79,0.01-1.53,0.27-2.13,0.75
						c-0.46,0.36-0.7,0.91-1.38,0.78c-0.8-0.16-1.54-0.65-2.15-1.13c-0.59-0.47-1.17-1.04-1.43-1.72c-0.52-1.4,0.58-2.62,1.89-3.25
						c0.74-0.36,1.54-0.47,2.15-1.03c0.58-0.53,0.94-1.26,0.96-2.02c0.01-0.31-0.24-0.83-0.12-1.1c0.07-0.16,0.29-0.26,0.48-0.32
						c0.55-0.16,1.19-0.01,1.7,0.18c0.58,0.21,1.12,0.5,1.64,0.81c0.31,0.18,0.63,0.43,0.98,0.55c0.62,0.22,1.38-1.06,0.8-1.26
						c-0.37-0.13-0.7-0.39-1.03-0.58c-0.54-0.32-1.1-0.62-1.71-0.82c-1.36-0.47-2.84-0.3-3.66,0.92c-0.21,0.31-0.33,0.66-0.35,1.03
						c-0.02,0.42,0.18,0.84,0.11,1.25c-0.14,0.85-1.46,0.91-2.13,1.27c-1.51,0.83-2.89,2.25-3,3.92c-0.12,1.75,1.27,3.17,2.8,4.05
						c0.67,0.39,1.61,0.81,2.4,0.54c0.76-0.26,1.09-1.02,1.82-1.32c0.9-0.37,1.91-0.04,2.76,0.28c0.88,0.33,1.79,0.75,2.76,0.8
						c1.6,0.09,3.33-0.59,3.93-2.03c0.74-1.76,0.11-3.82-0.84-5.41c-0.94-1.56-2.1-3.23-3.98-3.93
						C145.23,144.86,144.47,146.14,145.05,146.36L145.05,146.36z"/>
				</g>
			</g>
			<g>
				<path class="st8" d="M137.17,153.44c-0.86,0.71-1.59,1.38-2.75,1.48c-0.55,0.05-1.09-0.03-1.64-0.11
					c-0.84-0.14-1.51-0.25-2.23,0.27c-1.39,1.02-2.78,2.03-4.19,3.03c-0.35,0.24-0.58,0.41-1.02,0.43
					c-0.55,0.04-0.99,0.13-1.54,0.03c-1.18-0.2-2.04-0.67-2.8-1.58c-0.67-0.8-1.05-2.05-0.88-3.08c0.22-1.33,1.49-1.88,2.57-2.48
					c0.86-0.47,1.75-0.96,1.98-1.96c0.1-0.47,0.16-0.92,0.16-1.4c0-0.5-0.15-1-0.11-1.49c0.18-2.2,2.7-2.76,4.57-2.61
					c1.62,0.12,2.96,1.26,3.87,2.51c0.33,0.46,0.66,0.92,1.15,1.23c0.48,0.31,1.08,0.47,1.61,0.69c0.68,0.28,1.19,0.78,1.65,1.33
					c0.33,0.4,0.65,0.81,0.75,1.33c0.11,0.55-0.04,1.09-0.37,1.53c-0.32,0.42-1.34,1.26-1.66,1.66"/>
				<g>
					<path d="M137.02,152.93c-0.62,0.52-1.25,1.11-2.11,1.28c-0.97,0.19-1.89-0.19-2.86-0.19c-0.98,0-1.62,0.53-2.35,1.06
						c-0.87,0.64-1.74,1.27-2.62,1.89c-0.36,0.26-0.74,0.6-1.14,0.8c-0.39,0.19-1.04,0.19-1.47,0.18c-0.82-0.03-1.64-0.34-2.27-0.81
						c-0.67-0.5-1.14-1.19-1.38-1.95c-0.2-0.63-0.33-1.47,0.15-2.02c0.44-0.5,1.14-0.79,1.73-1.12c0.69-0.38,1.38-0.78,1.87-1.37
						c0.55-0.67,0.72-1.45,0.8-2.27c0.04-0.46,0.02-0.9-0.04-1.36c-0.05-0.37-0.09-0.75,0.04-1.12c0.37-1.03,1.94-1.29,2.95-1.3
						c1.74-0.03,3.08,0.84,4.08,2.09c0.58,0.72,1.04,1.46,1.96,1.88c0.45,0.2,0.94,0.33,1.38,0.55c0.44,0.22,0.79,0.54,1.11,0.89
						c0.55,0.62,1.32,1.55,0.67,2.33c-0.46,0.55-1.08,0.97-1.54,1.52c-0.18,0.22-0.43,0.67-0.2,0.93c0.23,0.26,0.62,0.03,0.79-0.17
						c0.47-0.56,1.1-1,1.57-1.56c0.61-0.71,0.92-1.64,0.7-2.54c-0.21-0.86-0.97-1.69-1.68-2.26c-0.77-0.61-1.82-0.72-2.6-1.3
						c-0.77-0.58-1.18-1.5-1.88-2.15c-0.67-0.63-1.45-1.15-2.39-1.39c-1.41-0.37-3.21-0.13-4.42,0.63c-0.67,0.42-1.2,1.02-1.48,1.72
						c-0.38,0.94-0.11,1.81-0.13,2.77c-0.01,0.42-0.02,0.96-0.26,1.34c-0.21,0.34-0.62,0.56-0.97,0.76
						c-0.72,0.41-1.5,0.76-2.15,1.29c-3.16,2.58-0.39,7.65,3.68,7.31c0.56-0.05,1.06-0.07,1.54-0.36c0.58-0.34,1.11-0.77,1.65-1.16
						c0.53-0.38,1.05-0.75,1.57-1.13c0.51-0.37,1.09-0.97,1.71-1.18c0.49-0.17,1.09-0.02,1.59,0.06c0.61,0.1,1.23,0.16,1.85,0.07
						c1.15-0.18,2.03-0.92,2.86-1.61c0.26-0.21,0.52-0.61,0.4-0.94C137.61,152.69,137.24,152.74,137.02,152.93L137.02,152.93z"/>
				</g>
			</g>
			<g>
				<path class="st6" d="M122.24,138.53c1.82-1.66,4.31-3.37,6.95-2.87c2.13,0.4,3.7,1.17,5.34,2.54c1.34,1.12,2.5,2.24,3.61,3.58
					c0.9,1.09,1.9,2.45,2.36,3.79c0.4,1.18,0.16,1.9-0.4,2.98c-0.48,0.92-1.79,1.41-2.77,1.64c-2.39,0.58-5.02,0.23-7.48,0.25
					c-0.81,0.01-1.5,0.26-2.34,0.22c-0.44-0.02-4.27,1.29-5.62-1.71c-1.36-3.02,5.11-1.5-1.63-7.22c-1.1-0.93-0.46-1.72,0.41-2.52
					c0.69-0.64,1.64-1.23,2.65-1.1"/>
				<g>
					<path d="M122.4,139.04c1.78-1.61,4.04-3.2,6.7-2.68c2.51,0.5,4.46,1.86,6.23,3.51c0.92,0.85,1.77,1.77,2.55,2.73
						c0.82,1.01,1.61,2.1,2.04,3.31c0.33,0.92,0.26,2.21-0.65,2.87c-0.87,0.64-2.14,0.87-3.23,0.99c-1.48,0.16-2.98,0.06-4.47,0.02
						c-0.63-0.02-1.28-0.05-1.91,0.01c-0.64,0.06-1.25,0.17-1.89,0.2c-0.42,0.02-0.84,0.14-1.26,0.2c-0.69,0.1-1.42,0.11-2.09-0.06
						c-0.8-0.2-1.43-0.69-1.83-1.36c-0.14-0.24-0.27-0.52-0.31-0.8c0.01,0.04,0.01-0.15,0-0.19c0,0.04,0,0.02,0.01-0.02
						c0.04-0.15-0.09,0.09,0.03-0.05c0.11-0.13-0.12,0.14-0.01,0.01c0.02-0.02,0.04-0.05,0.06-0.07c0.03-0.03,0.07-0.07,0.1-0.1
						c-0.01,0.01-0.13,0.11-0.03,0.03c0.07-0.06,0.15-0.13,0.22-0.19c0.28-0.23,0.56-0.47,0.79-0.75c0.89-1.12,0.39-2.29-0.45-3.29
						c-0.34-0.4-0.72-0.78-1.1-1.15c-0.27-0.26-0.55-0.51-0.83-0.75c-0.27-0.23-0.66-0.5-0.78-0.83c-0.15-0.44,0.47-0.87,0.79-1.13
						c0.56-0.46,1.2-0.79,1.97-0.71c0.61,0.06,1.25-1.27,0.55-1.33c-1.41-0.13-2.58,0.73-3.47,1.63c-0.85,0.86-1.48,2.08-0.51,3.07
						c0.86,0.88,1.87,1.6,2.62,2.58c0.19,0.25,0.38,0.52,0.49,0.81c0.02,0.05,0.09,0.29,0.08,0.24c0.01,0.05,0.01,0.11,0.01,0.16
						c0,0.15,0.01-0.1,0,0.03c-0.02,0.16,0.04-0.15,0,0c-0.01,0.05-0.04,0.2,0.01-0.02c-0.04,0.16,0.09-0.07-0.05,0.08
						c-0.03,0.03-0.05,0.06-0.08,0.08c-0.11,0.12,0.13-0.11,0,0c-0.07,0.06-0.15,0.13-0.22,0.19c-0.36,0.3-0.73,0.6-0.98,0.99
						c-0.8,1.23-0.12,2.76,1.02,3.61c1.26,0.93,2.98,0.77,4.45,0.5c0.1-0.02,0.19-0.04,0.29-0.05c0.12-0.02-0.12,0.01-0.03,0
						c0.17-0.01,0.34,0,0.5-0.01c0.76-0.05,1.48-0.22,2.24-0.21c1.61,0.01,3.21,0.14,4.82,0.06c1.36-0.07,2.75-0.28,3.97-0.87
						c1.23-0.6,1.92-1.59,2.31-2.79c0.41-1.29,0.02-2.49-0.61-3.66c-0.68-1.26-1.61-2.41-2.58-3.48c-1.98-2.18-4.33-4.31-7.37-5.13
						c-1.56-0.42-3.02-0.4-4.53,0.2c-1.48,0.59-2.76,1.56-3.9,2.59c-0.25,0.22-0.52,0.6-0.4,0.94
						C121.8,139.28,122.18,139.24,122.4,139.04L122.4,139.04z"/>
				</g>
			</g>
			<g>
				<path class="st9" d="M121.81,132.79c2.48-0.6,7.87,2.35,8.79,3.82c0.77,1.24,1.15,2.24,1.09,3.7c-0.04,1.12-0.65,2.42-1.44,3.23
					c-2.21,2.23-5.22,0-7.73,1.04c-0.86,0.36-1.24,1.02-1.93,1.57c-0.83,0.67-1.82,1.07-2.9,1.02c-1.04-0.05-2.05-0.59-2.78-1.28
					c-0.7-0.66-1.71-1.66-1.93-2.62c-0.24-1.07,0.56-1.99,1.3-2.7c1.01-0.97,2.03-1.54,2.79-2.75c0.41-0.65,0.94-1.37,0.92-2.17
					c-0.01-0.47-0.32-0.64-0.05-1.09c1.05-1.74,3.17-1.72,4.17-1.86"/>
				<g>
					<path d="M121.67,133.45c1.23-0.27,2.64,0.24,3.76,0.68c1.31,0.53,2.58,1.21,3.68,2.05c1.11,0.84,1.79,2.1,1.97,3.41
						c0.2,1.53-0.38,3.68-2.19,4.19c-1.6,0.46-3.34-0.27-4.98-0.13c-0.88,0.07-1.69,0.37-2.34,0.93c-0.72,0.61-1.26,1.33-2.19,1.7
						c-1.99,0.79-3.71-0.51-4.9-1.86c-0.56-0.64-1.26-1.52-0.83-2.37c0.38-0.75,1.17-1.33,1.83-1.88c0.82-0.68,1.53-1.39,2.09-2.27
						c0.56-0.87,1.17-1.87,0.93-2.92c-0.05-0.2-0.1-0.25-0.01-0.42c0.08-0.16,0.29-0.31,0.44-0.42c0.31-0.22,0.66-0.37,1.03-0.47
						c0.66-0.18,1.33-0.22,2.01-0.31c0.59-0.08,1.09-1.42,0.27-1.31c-1.61,0.22-3.13,0.42-4.24,1.64c-0.33,0.36-0.66,0.82-0.74,1.29
						c-0.08,0.51,0.23,0.93,0.06,1.45c-0.31,0.89-1.03,1.76-1.77,2.4c-1.47,1.27-3.71,2.9-3.08,5.02c0.28,0.95,1.06,1.74,1.78,2.44
						c0.74,0.71,1.59,1.28,2.65,1.49c1.05,0.21,2.16-0.06,3.05-0.57c0.44-0.25,0.83-0.55,1.2-0.89c0.39-0.36,0.72-0.8,1.22-1.05
						c1.69-0.84,3.86,0.16,5.67-0.06c2.2-0.27,3.57-2.25,4.06-4.08c0.47-1.74,0.02-3.84-1.16-5.29c-0.96-1.18-2.59-2.02-4-2.67
						c-1.46-0.67-3.33-1.41-4.99-1.04C121.37,132.26,120.89,133.62,121.67,133.45L121.67,133.45z"/>
				</g>
			</g>
		</g>
	</g>
	<g id="Ebene_17_3_">
		<g>
			<path class="st10" d="M121.52,35.45c0.44-1.55-0.48-3.36-2.02-3.94c-1.54-0.59-3.47,0.13-4.22,1.56
				c-0.75,1.43-0.22,3.38,1.16,4.26c-1.56-0.68-3.45-0.7-4.92,0.14c-1.47,0.84-2.42,2.58-2.09,4.22s2.04,2.95,3.72,2.69
				c-1.29,1.01-2.24,2.5-2.28,4.11c-0.03,1.61,1.01,3.27,2.59,3.7c1.59,0.43,3.51-0.67,3.64-2.27c-0.08,2.36,2.38,4.48,4.77,4.1
				c2.39-0.38,4.04-3.15,3.19-5.36c2.07,0.53,4.44-1.03,4.71-3.11c0.27-2.08-1.61-4.17-3.76-4.17c2.28-0.76,3.32-3.88,1.93-5.81
				c-1.39-1.93-4.74-2.03-6.24-0.18"/>
			<g>
				<path d="M122.08,35.32c0.35-1.37-0.08-2.89-1.22-3.86c-1.08-0.92-2.59-1.03-3.91-0.48c-2.9,1.22-3.55,5.21-0.91,6.98
					c0.27-0.42,0.53-0.84,0.8-1.26c-1.48-0.62-3.16-0.73-4.68-0.14c-1.42,0.55-2.5,1.71-3.03,3.02c-0.51,1.28-0.48,2.74,0.35,3.9
					c0.78,1.09,2.11,1.73,3.53,1.55c-0.01-0.39-0.01-0.78-0.02-1.16c-2.36,1.89-3.85,5.48-1.55,7.93c0.93,0.99,2.33,1.42,3.68,0.94
					c1.35-0.47,2.39-1.64,2.54-2.96c-0.38,0.14-0.76,0.28-1.13,0.42c-0.03,2.59,2.72,5.23,5.68,4.35c2.69-0.8,4.28-3.92,3.41-6.34
					c-0.28,0.37-0.55,0.73-0.83,1.1c2.54,0.59,5-1.44,5.49-3.62c0.51-2.29-1.31-4.92-3.99-4.98c-0.14,0.44-0.27,0.88-0.41,1.32
					c2.72-0.97,4.12-4.37,2.74-6.74c-1.47-2.51-5.42-2.38-7.21-0.28c-0.19,0.22-0.43,0.67-0.2,0.93c0.23,0.26,0.62,0.03,0.79-0.17
					c1.34-1.57,4.23-1.28,5.42,0.3c1.09,1.45,0.66,3.97-1.26,4.65c-0.34,0.12-0.57,0.38-0.67,0.7c-0.06,0.2-0.08,0.62,0.26,0.62
					c1.96,0.04,3.66,1.83,3.47,3.63c-0.18,1.69-2.17,2.71-3.88,2.31c-0.5-0.12-0.96,0.74-0.83,1.1c0.61,1.72-0.36,3.9-2.44,4.26
					c-2.32,0.4-4.42-1.71-4.4-3.72c0-0.29-0.23-0.42-0.51-0.34c-0.31,0.1-0.59,0.47-0.62,0.76c-0.1,0.84-0.8,1.38-1.7,1.54
					c-1.04,0.18-2.02-0.36-2.62-1.11c-1.47-1.84-0.68-4.18,1.07-5.59c0.29-0.24,0.76-1.26-0.02-1.16c-2.34,0.29-3.87-2.22-3.14-4.05
					c0.88-2.21,3.79-2.58,5.9-1.7c0.6,0.25,1.33-0.91,0.8-1.26c-1.73-1.16-1.9-3.94,0.39-4.6c2.28-0.66,4.23,1.49,3.72,3.48
					c-0.07,0.28,0.08,0.58,0.42,0.53C121.76,36.04,122,35.61,122.08,35.32L122.08,35.32z"/>
			</g>
		</g>
	</g>
	<g id="Ebene_16_2_">
		<g>
			<path class="st7" d="M121.89,40.68c2.03,1.34,1.97,4.78-0.1,6.06c-2.08,1.27-5.27-0.17-5.63-2.54c-0.35-2.37,3.66-6.81,6.31-4.52
				"/>
			<g>
				<path d="M121.49,41.31c1.16,0.8,1.57,2.33,1.18,3.58c-0.41,1.32-1.78,1.86-3.19,1.56c-1.38-0.3-2.73-1.45-2.77-2.81
					c-0.03-1.09,0.81-2.22,1.63-2.95c1.07-0.94,2.52-1.39,3.72-0.39c0.45,0.37,1.3-0.85,0.8-1.26c-1.4-1.17-3.25-0.59-4.55,0.41
					c-1.37,1.05-2.54,2.68-2.73,4.34c-0.2,1.79,1.19,3.4,3.02,3.92c2.04,0.57,3.96-0.45,4.83-2.17c0.91-1.8,0.66-4.24-1.15-5.49
					C121.79,39.71,120.96,40.95,121.49,41.31L121.49,41.31z"/>
			</g>
		</g>
	</g>
	<g id="Ebene_19_2_">
		<g class="st11">
			<path d="M32.85,74.46c4.66,12.99,16.19,22.66,29.4,27.44s24.83,6.4,38.88,5.41c-12.25,4.33-26.76,5.5-40.31-0.45
				c-13.55-5.96-24.91-17.87-28.85-31.87"/>
			<g>
				<path d="M31.25,74.46c3.25,8.99,9.83,16.62,18.24,22.06c4.26,2.76,8.91,4.84,13.79,6.5c5.66,1.92,11.5,3.39,17.47,4.22
					c6.89,0.95,13.86,1.05,20.8,0.56c-0.52-0.28-1.03-0.57-1.55-0.85c-5.41,1.9-11.05,3.11-16.84,3.43
					c-2.75,0.15-5.65,0.03-8.5-0.33c-3.02-0.38-6-1.09-8.86-2.06c-10.02-3.4-18.69-10.07-24.72-18.08
					c-3.42-4.54-6.01-9.58-7.52-14.92c-0.23-0.83-3.34-0.54-3.19,0c2.79,9.86,9.16,18.74,17.65,25.3c4.3,3.33,9.13,6.09,14.36,8.02
					c6.09,2.24,12.71,3.25,19.27,3.14c7.05-0.12,14.03-1.46,20.6-3.78c0.36-0.13,0.65-0.36,0.25-0.62c-0.47-0.31-1.26-0.27-1.8-0.23
					c-5.71,0.4-11.34,0.36-17.01-0.29c-5.59-0.65-11.08-1.93-16.4-3.64c-4.86-1.56-9.51-3.47-13.81-6.09
					c-4.07-2.49-7.76-5.49-10.89-8.95c-3.58-3.96-6.39-8.5-8.16-13.38C34.14,73.62,31.08,73.98,31.25,74.46L31.25,74.46z"/>
			</g>
		</g>
		<g class="st11">
			<path d="M71.92,120.16c5.65-1.57,10.97-4.23,15.58-7.78c-5.29,0.73-10.95,0.63-16.2-0.35c-0.17,2.73,1.26,4.71,0.14,7.94"/>
			<g>
				<path d="M73.05,120.52c5.87-1.65,11.29-4.4,15.99-8.01c0.33-0.25-0.47-0.51-0.57-0.54c-0.58-0.15-1.18-0.12-1.77-0.04
					c-4.83,0.66-9.81,0.53-14.59-0.35c-0.41-0.08-2.36-0.24-2.4,0.44c-0.06,1.28,0.23,2.52,0.43,3.78c0.22,1.41,0.17,2.78-0.29,4.15
					c-0.16,0.49,2.91,0.85,3.19,0c0.46-1.37,0.51-2.74,0.29-4.15c-0.2-1.26-0.49-2.5-0.43-3.78c-0.8,0.15-1.6,0.29-2.4,0.44
					c5.86,1.09,11.9,1.16,17.81,0.35c-0.78-0.19-1.56-0.38-2.34-0.58c-4.45,3.41-9.62,6-15.17,7.56c-0.58,0.16-0.53,0.54,0,0.72
					C71.49,120.75,72.35,120.72,73.05,120.52L73.05,120.52z"/>
			</g>
		</g>
		<g class="st11">
			<path d="M18.41,53.93c-0.42,4.42,0.85,8.98,3.51,12.58c2.66,3.6,4.65,6.32,9.08,7.32c-4.97,1.69-8.91-0.13-12.15-4.18
				S15.35,59.5,18.24,55.2"/>
			<g>
				<path d="M16.81,53.93c-0.33,3.6,0.42,7.24,2.15,10.48c0.81,1.53,1.89,2.93,2.97,4.31c0.92,1.17,1.92,2.31,3.13,3.24
					c1.5,1.15,3.23,1.87,5.12,2.31c-0.11-0.27-0.21-0.53-0.32-0.8c-0.41,0.14-0.81,0.26-1.23,0.34c-0.11,0.02-0.21,0.04-0.32,0.06
					c-0.05,0.01-0.38,0.05-0.17,0.03c-0.1,0.01-0.21,0.02-0.31,0.03c-0.04,0-0.44,0.03-0.25,0.02c0.21-0.01-0.68-0.02-0.27,0
					c-0.2-0.01-0.39-0.03-0.59-0.05c0.25,0.03-0.29-0.06-0.34-0.07c-0.15-0.03-0.29-0.07-0.52-0.14c-1.65-0.51-3.05-1.56-4.2-2.73
					c-2.72-2.75-4.08-6.22-3.81-9.93c0.15-2.01,0.77-3.97,1.92-5.7c0.39-0.59-2.62-0.95-3.07-0.27c-2.25,3.4-2.66,7.73-1.22,11.47
					c1.35,3.52,4.55,6.93,8.56,8c2.65,0.7,5.5,0.51,8.08-0.35c0.88-0.29,0.24-0.67-0.32-0.8c-2.93-0.68-4.98-2.65-6.69-4.82
					C24.1,67.3,23.09,66,22.3,64.61c-0.87-1.53-1.5-3.16-1.89-4.84c-0.45-1.92-0.58-3.88-0.4-5.84
					C20.06,53.26,16.88,53.15,16.81,53.93L16.81,53.93z"/>
			</g>
		</g>
		<g class="st11">
			<path d="M30.65,74.46c6.53,18.18,20.69,34.36,39.41,40.43c-22.15-5.7-36.02-21.83-42.74-40.52"/>
			<g>
				<path d="M29.06,74.46c2.57,7.14,6.26,13.95,11.04,20.07c4.64,5.93,10.33,11.21,16.98,15.26c3.69,2.25,7.68,4.1,11.86,5.46
					c0.75-0.24,2.11-4.31,2.87-4.55c-8.08-2.09-16.21-1.94-22.53-7.01c-6.13-4.91-11.09-10.96-14.9-17.54
					c-2.18-3.78-3.99-7.73-5.45-11.78c-0.3-0.84-3.36-0.48-3.19,0c2.63,7.28,6.32,14.26,11.31,20.44
					c4.91,6.09,11.09,11.34,18.25,15.16c4.28,2.28,9.66,0.82,14.43,2.06c0.71,0.18,0.58,3.15,1.29,2.92
					c0.55-0.18,0.77-0.23,0.18-0.42c-7.24-2.36-13.79-6.27-19.34-11.1c-5.78-5.03-10.54-11.01-14.26-17.46
					c-2.13-3.69-3.91-7.54-5.34-11.51C31.94,73.62,28.88,73.98,29.06,74.46L29.06,74.46z"/>
			</g>
		</g>
		<g class="st11">
			<path d="M41.83,17c-7.39,8.9-10.51,21.05-8.29,32.3c-3.18,0.08-6.36,0.16-9.54,0.24c0.47-12.5,7.33-24.62,17.93-31.64"/>
			<g>
				<path d="M40.29,16.87c-5.85,7.08-8.96,15.98-9.04,24.83c-0.02,2.55,0.21,5.1,0.7,7.61c0.53-0.17,1.06-0.34,1.59-0.51
					c-3.18,0.08-6.36,0.16-9.54,0.24c0.53,0.17,1.06,0.34,1.59,0.51c0.38-9.57,4.43-18.97,11.4-26.13c1.9-1.95,4-3.71,6.31-5.25
					c0.55-0.36-0.21-0.63-0.57-0.7c-0.6-0.12-1.64-0.18-2.18,0.18c-8.55,5.69-14.47,14.32-16.92,23.69
					c-0.71,2.69-1.12,5.44-1.22,8.21c-0.02,0.48,1.34,0.52,1.59,0.51c3.18-0.08,6.36-0.16,9.54-0.24c0.24-0.01,1.68-0.05,1.59-0.51
					c-1.7-8.73-0.29-17.98,4.02-25.93c1.19-2.19,2.6-4.28,4.21-6.23c0.36-0.44-0.89-0.61-1.11-0.63
					C41.74,16.46,40.67,16.42,40.29,16.87L40.29,16.87z"/>
			</g>
		</g>
		<g class="st11">
			<path d="M124.99,75.72c-2.66,20.33-15,39.25-32.73,50.21c-3.28-10.86-4.69-13.18-3.47-13.36c19.03-2.86,34.26-21.18,36.06-37.26"
				/>
			<g>
				<path d="M123.39,75.72c-1.04,7.87-3.51,15.56-7.26,22.7c-3.68,6.99-8.56,13.46-14.5,19.01c-3.28,3.06-6.87,5.83-10.76,8.23
					c0.99,0.09,1.98,0.17,2.97,0.26c-0.81-2.66-1.66-5.31-2.53-7.96c-0.44-1.32-0.94-2.65-1.25-4.01c-0.07-0.31-0.14-0.62-0.11-0.94
					c0-0.05,0.02-0.1,0.03-0.15c0.01-0.05-0.09,0.06,0.01,0c0.19-0.1-0.19,0.07-0.19,0.07c0.11-0.04-0.28,0.05-0.24,0.06
					c0.06,0.02,0.2-0.03,0.27-0.04c0.36-0.06,0.72-0.12,1.08-0.19c0.7-0.13,1.39-0.29,2.07-0.46c1.32-0.33,2.62-0.71,3.89-1.17
					c5.22-1.88,9.92-4.78,13.99-8.3c4.06-3.51,7.48-7.63,10.13-12.12c2.52-4.27,4.39-8.91,5.2-13.72c0.1-0.57,0.18-1.14,0.24-1.72
					c0.07-0.66-3.1-0.79-3.19,0c-0.54,4.79-2.18,9.44-4.52,13.74c-2.48,4.56-5.76,8.78-9.66,12.41c-3.84,3.57-8.38,6.63-13.42,8.61
					c-2.49,0.98-4.94,1.59-7.58,2.06c-0.85,0.15-1.38,0.48-1.28,1.31c0.13,1.11,0.58,2.21,0.93,3.27c0.75,2.27,1.5,4.54,2.21,6.81
					c0.25,0.81,0.5,1.62,0.74,2.42c0.12,0.39,0.82,0.46,1.17,0.49c0.55,0.05,1.32,0.06,1.8-0.23c7.05-4.36,13.19-9.9,18.2-16.19
					c5.08-6.39,9-13.54,11.61-21.07c1.49-4.3,2.54-8.72,3.13-13.2C126.66,75.08,123.5,74.92,123.39,75.72L123.39,75.72z"/>
			</g>
		</g>
		<g class="st11">
			<path d="M35.01,134.7c-3.48,2.17-6,5.76-6.8,9.72c-1.42-1.99-1.63-4.73-0.53-6.9c1.1-2.17,3.46-3.67,5.94-3.78"/>
			<g>
				<path d="M33.63,134.44c-3.69,2.33-6.18,5.96-7.02,9.97c1.04-0.05,2.09-0.09,3.13-0.14c-1.32-1.9-1.58-4.49-0.57-6.56
					c0.47-0.96,1.2-1.85,2.13-2.48c0.86-0.59,1.86-0.97,2.73-1.01c0.3-0.02,1.38-0.16,1.11-0.63c-0.26-0.46-1.55-0.38-1.96-0.36
					c-2.85,0.16-5.62,1.55-6.94,3.93c-1.29,2.33-1.11,5.19,0.42,7.39c0.28,0.41,1.32,0.39,1.75,0.37c0.38-0.02,1.29-0.05,1.38-0.5
					c0.79-3.76,3.12-7.27,6.59-9.46c0.56-0.36-0.22-0.63-0.57-0.7C35.2,134.14,34.19,134.09,33.63,134.44L33.63,134.44z"/>
			</g>
		</g>
		<g class="st11">
			<path d="M25.3,138.17c-2.33,3.72-3.25,8.27-2.54,12.58c-1.9,0.57-4.03-0.76-4.73-2.58c-0.7-1.82-0.2-2.23,0.83-3.89
				c1.03-1.66,4.34-4.75,5.84-6.04"/>
			<g>
				<path d="M23.77,138.03c-2.38,3.84-3.29,8.35-2.59,12.71c0.16-0.12,0.31-0.24,0.47-0.36c0.12-0.03,0.25,0,0.37-0.01
					c0.18-0.01-0.11-0.03-0.17-0.05c-0.33-0.11-0.64-0.29-0.91-0.5c-0.63-0.47-1.1-1.14-1.36-1.84c-0.23-0.62-0.37-1.3-0.13-1.94
					c0.24-0.63,0.7-1.24,1.08-1.81c0.75-1.11,1.74-2.09,2.7-3.05c0.98-0.97,1.99-1.92,3.04-2.82c0.44-0.38-0.96-0.61-1.11-0.63
					c-0.61-0.05-1.48-0.06-1.96,0.36c-1.92,1.65-3.85,3.42-5.38,5.39c-0.37,0.48-0.69,1-1.01,1.52c-0.31,0.49-0.61,1.02-0.66,1.6
					c-0.1,1.29,0.73,2.73,1.78,3.55c1.63,1.28,3.97,1.51,5.99,0.96c0.11-0.03,0.5-0.18,0.47-0.36c-0.68-4.26,0.16-8.69,2.48-12.44
					C27.22,137.68,24.19,137.35,23.77,138.03L23.77,138.03z"/>
			</g>
		</g>
		<g class="st11">
			<path d="M14.48,146.31c-1.76,0.7-3.57,1.43-4.92,2.74c-1.35,1.31-2.14,3.36-1.4,5.07c0.73,1.71,3.34,2.53,4.66,1.2
				c-0.97-3.69,0.78-7.89,4.1-9.87"/>
			<g>
				<path d="M13.35,145.95c-2.19,0.87-4.59,1.82-5.97,3.7c-1.12,1.52-1.66,3.83-0.27,5.37c1.44,1.59,4.53,1.95,6.46,0.99
					c0.36-0.18,0.85-0.44,0.8-0.84c-0.06-0.5-0.19-0.98-0.22-1.48c-0.05-0.94,0.06-1.9,0.31-2.81c0.56-2.05,1.89-4,3.83-5.18
					c0.57-0.35-0.23-0.63-0.57-0.7c-0.63-0.12-1.61-0.16-2.18,0.18c-3.02,1.84-4.76,5.2-4.57,8.51c0.02,0.4,0.07,0.79,0.15,1.19
					c0.03,0.14,0.11,0.31,0.02,0.43c-0.04,0.06-0.39,0.25-0.43,0.21c-0.01-0.01,0.52-0.05,0.55-0.05c0.19-0.01,0.02,0-0.06-0.03
					c-0.28-0.11-0.56-0.27-0.78-0.47c-1.37-1.2-1.1-3.26-0.24-4.65c1.17-1.89,3.34-2.82,5.43-3.65c0.52-0.21,0.58-0.53,0-0.72
					C14.98,145.74,13.98,145.7,13.35,145.95L13.35,145.95z"/>
			</g>
		</g>
		<g class="st11">
			<path d="M9.09,158.15c-1.45,0.32-2.23,2.24-1.4,3.45c0.83,1.21,2.94,1.22,3.79,0.02c-0.77-1.29-0.96-2.9-0.53-4.33"/>
			<g>
				<path d="M8.11,157.84c-1.83,0.47-2.93,2.8-1.5,4.17c0.78,0.75,2,0.96,3.09,0.94c1.14-0.02,2.41-0.31,3.09-1.21
					c0.07-0.08,0.07-0.16,0-0.23c-0.74-1.3-0.88-2.8-0.48-4.21c0.13-0.46-2.54-0.72-2.75,0c-0.43,1.51-0.21,3.07,0.58,4.45
					c0-0.08,0-0.16,0-0.23c-0.19,0.24-0.37,0.38-0.64,0.54c-0.07,0.04-0.15,0.01-0.12,0.04c0.01,0,0.35,0,0.35-0.01
					c-0.17,0.16-0.85-0.76-0.92-0.93c-0.35-0.93,0.09-2.4,1.22-2.69c0.51-0.13,0.45-0.47,0-0.62
					C9.45,157.64,8.73,157.68,8.11,157.84L8.11,157.84z"/>
			</g>
		</g>
		<g class="st11">
			<path d="M19.71,153.52c3.19,1.23,6.48,2.18,9.84,2.84c0.65-1.31-0.51-2.89-1.9-3.39c-1.39-0.51-2.93-0.32-4.42-0.39
				c-1.48-0.07-3.14-0.55-3.82-1.84"/>
			<g>
				<path d="M18.58,153.88c3.28,1.26,6.69,2.23,10.16,2.92c0.46,0.09,0.95,0.09,1.42,0.03c0.23-0.03,0.81-0.09,0.92-0.33
					c0.43-0.96,0.18-1.95-0.54-2.74c-0.86-0.95-2.15-1.36-3.45-1.54c-0.77-0.11-1.55-0.13-2.33-0.14c-0.38,0-0.75,0-1.12-0.01
					c-0.07,0-0.14,0-0.2-0.01c0.09,0,0.09,0-0.01-0.01c-0.03,0-0.35-0.03-0.16-0.01c-0.97-0.12-1.83-0.61-2.31-1.46
					c-0.38-0.67-3.45-0.39-3.07,0.27c1.16,2.06,4.26,2.23,6.47,2.23c1,0,1.98-0.06,2.79,0.61c0.73,0.6,1.26,1.62,0.87,2.51
					c0.78-0.1,1.56-0.2,2.34-0.3c-3.26-0.64-6.44-1.58-9.52-2.76c-0.65-0.25-1.6-0.22-2.25,0C18,153.35,18.03,153.67,18.58,153.88
					L18.58,153.88z"/>
			</g>
		</g>
		<g class="st11">
			<path d="M47.36,134.23c17.41,10.66,38.8,14.96,59.1,11.89c-22.03,9.19-52.43,7.58-66.5-9.73c2.69-1.26,4.04-1.71,6.73-2.97"/>
			<g>
				<path d="M45.99,134.49c6.9,4.21,14.49,7.49,22.43,9.7c8,2.22,16.33,3.38,24.69,3.42c4.74,0.02,9.48-0.33,14.16-1.04
					c-0.73-0.23-1.45-0.47-2.18-0.7c-4.22,1.75-8.63,3.05-13.11,3.93c-2.43,0.48-4.52,0.78-6.91,1.02c-1.2,0.12-2.4,0.2-3.6,0.26
					c-0.1,0.01-0.21,0.01-0.31,0.01c0.33-0.01-0.18,0.01-0.2,0.01c-0.31,0.01-0.63,0.02-0.94,0.03c-0.6,0.01-1.2,0.02-1.8,0.02
					c-0.55,0-1.09-0.01-1.64-0.02c-0.31-0.01-0.62-0.02-0.93-0.03c-0.02,0-0.53-0.02-0.2-0.01c-0.15-0.01-0.31-0.01-0.47-0.02
					c-1.19-0.06-2.37-0.16-3.55-0.28c-1.26-0.13-2.04-0.24-3.26-0.44c-1.12-0.18-2.24-0.4-3.35-0.64
					c-4.17-0.93-8.43-2.42-12.22-4.46c-4.31-2.31-8.09-5.33-11.08-8.99c-0.05,0.13-0.11,0.26-0.16,0.39
					c2.22-1.04,4.51-1.93,6.73-2.97c0.64-0.3-0.29-0.64-0.57-0.7c-0.69-0.13-1.54-0.12-2.18,0.18c-2.22,1.04-4.51,1.93-6.73,2.97
					c-0.16,0.07-0.28,0.24-0.16,0.39c5.73,7.01,14.24,11.48,23.38,13.73c9.75,2.4,20.19,2.44,30.08,0.72
					c5.5-0.95,10.86-2.49,15.95-4.61c0.49-0.2,0.02-0.53-0.25-0.62c-0.61-0.2-1.31-0.17-1.93-0.08c-7.64,1.15-15.19,1.18-22.84,0.22
					c-7.67-0.96-15.23-3-22.29-5.92c-4.1-1.7-8.04-3.72-11.79-6.01c-0.57-0.35-1.54-0.31-2.18-0.18
					C46.21,133.86,45.4,134.13,45.99,134.49L45.99,134.49z"/>
			</g>
		</g>
		<g class="st11">
			<path d="M117.54,139.64c1.11,0.9,2.22,1.8,3.34,2.7c1.28,1.04,0.43,3.4-1.19,3.76c-1.62,0.36-4.57-0.26-5.07-1.82
				s1.21-3.9,1.93-5.36"/>
			<g>
				<path d="M116,139.77c0.72,0.58,1.45,1.17,2.17,1.75c0.53,0.43,1.31,0.86,1.6,1.47c0.39,0.83-0.02,2.03-0.8,2.56
					c-0.1,0.07-0.19,0.11-0.23,0.13c-0.14,0.06,0.01-0.01,0.04-0.01c-0.04,0-0.21,0.01-0.04,0.01c0.26,0.01-0.37,0.01-0.08,0
					c0.24,0-0.43-0.04-0.02,0c-0.09-0.01-0.18-0.02-0.27-0.02c0.03,0,0.21,0.03,0.04,0c-0.14-0.02-0.27-0.05-0.41-0.08
					c-0.03-0.01-0.36-0.1-0.52-0.17c-0.48-0.2-0.92-0.5-1.17-0.93c-0.27-0.46-0.21-1.03-0.1-1.52c0.32-1.4,1.24-2.62,1.88-3.91
					c0.24-0.48-0.79-0.6-1.11-0.63c-0.4-0.04-1.73-0.1-1.96,0.36c-0.69,1.37-1.65,2.68-1.99,4.18c-0.32,1.41,0.45,2.43,1.82,3.02
					c2.5,1.08,8.03,1.44,8.25-2.14c0.05-0.82-0.37-1.39-1.01-1.91c-1-0.81-2-1.62-3-2.43c-0.5-0.4-1.33-0.41-1.96-0.36
					C116.97,139.16,115.57,139.42,116,139.77L116,139.77z"/>
			</g>
		</g>
		<g class="st11">
			<path d="M126.01,144.78c2.04,1.58,4.55,2.59,7.14,2.86c0.96,0.1,1.43,1.36,0.99,2.19c-0.44,0.83-1.48,1.22-2.44,1.22
				c-0.96,0-1.89-0.3-2.83-0.52c-0.94-0.22-1.95-0.34-2.84,0.01c-1.41,0.56-3.21-0.28-3.66-1.7c-0.45-1.42,0.57-3.1,2.06-3.41"/>
			<g>
				<path d="M124.47,144.91c1.53,1.17,3.26,2.08,5.18,2.63c0.52,0.15,1.05,0.28,1.59,0.38c0.21,0.04,0.43,0.07,0.64,0.11
					c0.19,0.03,0.38,0.08,0.56,0.08c0.3-0.01-0.24-0.02-0.22-0.05c0-0.01,0.38,0.5,0.41,0.59c0.11,0.32,0.11,0.7-0.02,1.02
					c-0.12,0.3-0.39,0.58-0.68,0.74c-0.09,0.05-0.24,0.11-0.29,0.14c-0.22,0.09-0.1-0.01,0.07,0.02c-1-0.17-1.97-0.48-2.99-0.62
					c-1.17-0.16-2.73-0.25-3.82,0.26c-0.24,0.12,0.02,0.03,0.16,0.02c0.06,0,0.14,0.02,0.19,0.01c0.08-0.02,0.13,0.07,0.03-0.01
					c-0.24-0.19-0.55-0.27-0.78-0.5c-0.6-0.61-0.78-1.42-0.57-2.21c0.1-0.4,0.32-0.76,0.6-1.08c0.11-0.12,0.23-0.24,0.36-0.34
					c0.05-0.04,0.42-0.22,0.33-0.2c0.35-0.08,1.13-0.33,0.57-0.7c-0.52-0.34-1.6-0.32-2.18-0.18c-1.03,0.25-1.95,0.71-2.48,1.59
					c-0.47,0.78-0.61,1.68-0.26,2.52c0.88,2.11,4.08,2.51,6.15,1.85c0.11-0.04,0.26-0.11,0.35-0.13c-0.18,0.03,0.24,0.05,0.31,0.06
					c0.63,0.12,1.25,0.31,1.88,0.44c1.41,0.29,3.01,0.36,4.39-0.11c0.91-0.32,1.79-0.92,1.93-1.86c0.13-0.85-0.4-1.67-1.26-1.99
					c-0.64-0.24-1.3-0.24-1.96-0.37c-0.56-0.11-1.11-0.28-1.64-0.47c-1.25-0.45-2.44-1.1-3.47-1.89c-0.52-0.39-1.32-0.41-1.96-0.36
					C125.44,144.3,124.02,144.57,124.47,144.91L124.47,144.91z"/>
			</g>
		</g>
		<g class="st11">
			<path d="M124.7,152.67c-0.43,0.56,0,1.38,0.59,1.77c0.59,0.39,1.33,0.55,1.88,0.99c0.55,0.44,0.8,1.39,0.23,1.8
				c-1.54,1.1-4,0.61-4.98-0.98c-0.99-1.59-0.29-3.94,1.42-4.77"/>
			<g>
				<path d="M123.16,152.53c-0.38,0.59-0.21,1.26,0.26,1.76c0.56,0.6,1.4,0.76,2.08,1.2c0.45,0.29,0.93,1.07,0.45,1.52
					c-0.14,0.13-0.45,0.24-0.54,0.29c0.07-0.01,0.04,0-0.11,0.02c0.15-0.02,0.14-0.02-0.04,0c0.09-0.01,0.19-0.01,0.28-0.01
					c0.12,0.02,0.13,0.02,0.03,0c-0.04-0.03-0.39-0.11-0.56-0.21c-0.28-0.15-0.52-0.33-0.72-0.55c-0.45-0.49-0.68-1.08-0.72-1.71
					c-0.09-1.2,0.46-2.5,1.64-3.11c0.62-0.32-0.27-0.64-0.57-0.7c-0.67-0.13-1.56-0.13-2.18,0.18c-2.41,1.24-2.84,4.56-0.61,6.14
					c1.35,0.96,3.3,1.12,4.93,0.86c1.28-0.21,3.05-0.88,2.37-2.34c-0.35-0.76-1.18-1.06-1.93-1.41c-0.62-0.29-1.44-0.97-0.98-1.67
					C126.62,152.21,123.6,151.85,123.16,152.53L123.16,152.53z"/>
			</g>
		</g>
		<g class="st11">
			<path d="M140.47,148.84c3.03,2.31,5.02,2.91,8.39,4.7c-0.41,1.09-0.7,2.83-1.83,2.46c-1.13-0.38-3.14-1.66-3.14-1.66
				s-2.56-0.53-3.28,0.41c-0.6,0.78-1.86,0.95-2.66,0.37c-0.79-0.58-0.97-1.82-0.38-2.6c0.87-1.13,1.74-2.26,2.61-3.39"/>
			<g>
				<path d="M139.09,149.09c2.56,1.94,5.53,3.19,8.39,4.7c-0.07-0.09-0.14-0.17-0.22-0.26c-0.21,0.58-0.34,1.2-0.65,1.75
					c-0.06,0.11-0.14,0.21-0.21,0.31c-0.03,0.04-0.08,0.07-0.1,0.11c0,0,0,0,0.01-0.01c0.42-0.42,1.03-0.44,1.84-0.06
					c-0.24-0.11-0.47-0.19-0.75-0.33c-0.57-0.29-1.12-0.61-1.67-0.94c-0.37-0.22-0.64-0.4-1.09-0.49c-1.3-0.25-2.76-0.32-4.05-0.03
					c-0.37,0.08-0.75,0.19-1.07,0.38c-0.29,0.17-0.44,0.44-0.7,0.63c-0.06,0.05-0.23,0.14-0.23,0.13c0-0.02,0.99-0.06,0.97,0.01
					c0,0.02-0.31-0.23-0.33-0.26c-0.13-0.14-0.23-0.29-0.29-0.46c-0.37-0.9,0.12-1.56,0.67-2.28c0.7-0.91,1.41-1.83,2.11-2.74
					c0.34-0.45-0.88-0.61-1.11-0.63c-0.5-0.04-1.61-0.1-1.96,0.36c-0.54,0.7-1.08,1.4-1.61,2.1c-0.46,0.6-1.08,1.2-1.31,1.91
					c-0.46,1.41,0.68,2.57,2.13,2.85c0.98,0.19,2.1,0.17,3.04-0.16c0.6-0.21,1.02-0.57,1.43-0.97c0.01-0.01,0.17-0.03-0.01-0.01
					c0.31-0.03-0.26,0.04,0.09-0.01c-0.4,0.05-0.05,0.01,0.06,0c0.34-0.01-0.32-0.04,0.09,0.01c0.12,0.01,0.23,0.03,0.35,0.04
					c-0.14-0.01-0.29-0.05-0.06-0.01c0.08,0.01,0.16,0.03,0.25,0.04c-0.19-0.06-0.38-0.12-0.57-0.18c1.14,0.73,2.48,1.64,3.87,1.89
					c1.05,0.18,2.59,0.17,3.22-0.78c0.43-0.65,0.58-1.45,0.85-2.16c-0.02-0.12-0.09-0.2-0.22-0.26c-2.86-1.52-5.82-2.76-8.39-4.7
					c-0.51-0.38-1.59-0.3-2.18-0.18C139.25,148.48,138.58,148.7,139.09,149.09L139.09,149.09z"/>
			</g>
		</g>
		<g class="st11">
			<path d="M131.7,156c-0.06,1.2,1.02,2.19,2.17,2.59c1.16,0.4,2.41,0.39,3.62,0.62c1.2,0.23,2.47,0.8,2.94,1.91
				c0.48,1.1-0.35,1.74-1.56,1.57c-2.83-0.39-5.7,0.16-8.54-0.23c-1.77-0.25-3.17-2.02-2.95-3.76c0.22-1.74,2.01-3.13,3.79-2.96"/>
			<g>
				<path d="M130.1,156c-0.03,2.11,2.43,3.06,4.35,3.35c1,0.15,2.09,0.14,2.98,0.52c0.75,0.32,1.51,0.98,1.54,1.78
					c0.01,0.13,0,0.27-0.06,0.39c0,0.01-0.22,0.26-0.23,0.24c-0.02-0.11,1.29,0,0.5-0.1c-0.33-0.04-0.65-0.07-0.98-0.09
					c-1.38-0.09-2.76-0.05-4.15-0.01c-0.94,0.02-2.24,0.12-3.04-0.08c-0.81-0.2-1.44-0.97-1.77-1.63c-0.43-0.88-0.4-1.95,0.12-2.79
					c0.25-0.4,0.59-0.78,1.01-1.04c0.16-0.1,0.32-0.19,0.5-0.26c0.34-0.13,0.12-0.03-0.13-0.05c0.4,0.03,0.83,0.03,1.23-0.05
					c0.17-0.03,0.63-0.13,0.73-0.3c0.27-0.47-0.85-0.61-1.11-0.63c-2.54-0.19-5.55,0.87-5.82,3.52c-0.1,1.04,0.37,2.14,1.15,2.89
					c0.98,0.94,2.27,1.24,3.64,1.36c1.6,0.15,3.2,0.08,4.8,0.04c0.66-0.01,1.33-0.03,1.98,0.01c0.85,0.05,1.68,0.2,2.53,0.13
					c1.01-0.09,2.43-0.5,2.26-1.68c-0.15-1.03-1.12-1.8-2.09-2.22c-1.47-0.64-3.05-0.58-4.6-0.94c-1.2-0.28-2.18-1.2-2.17-2.37
					C133.3,155.28,130.11,155.26,130.1,156L130.1,156z"/>
			</g>
		</g>
		<g class="st11">
			<g>
				<path d="M107.71,170.87c0.37,0,1.67-0.02,1.69-0.54c0.03-0.5-1.43-0.54-1.69-0.54c-0.37,0-1.67,0.02-1.69,0.54
					C105.98,170.83,107.44,170.87,107.71,170.87L107.71,170.87z"/>
			</g>
		</g>
		<g class="st11">
			<g>
				<path d="M118.58,39.25c-1.46,0.94-2.43,2.49-2.34,4.16c0.09,1.64,1.06,3.18,2.64,3.99c0.75,0.38,1.74,0.17,2.18-0.52
					c0.43-0.67,0.18-1.61-0.57-2c-0.29-0.14-0.59-0.37-0.73-0.6c-0.05-0.09-0.11-0.18-0.16-0.27c-0.02-0.05-0.05-0.09-0.07-0.14
					c0.05,0.09,0.05,0.08,0.01-0.01c-0.03-0.1-0.06-0.2-0.09-0.3c-0.06-0.24-0.01,0.29-0.02-0.15c0-0.1,0-0.21,0-0.31
					c0-0.07,0.03-0.23,0-0.08c0.02-0.13,0.06-0.25,0.1-0.38c0.01-0.03,0.11-0.27,0.07-0.19c-0.04,0.08,0.31-0.47,0.18-0.32
					c0.08-0.1,0.18-0.19,0.28-0.28c0.03-0.03,0.29-0.21,0.12-0.1c0.7-0.45,1.03-1.27,0.57-2C120.35,39.13,119.29,38.79,118.58,39.25
					L118.58,39.25z"/>
			</g>
		</g>
		<g class="st11">
			<g>
				<path d="M112.23,36.29c-2.58,1.81-3.03,5.37-0.83,7.62c0.58,0.59,1.67,0.54,2.25,0c0.64-0.58,0.58-1.47,0-2.06
					c-0.29-0.3,0.08,0.13-0.06-0.05c-0.07-0.09-0.13-0.18-0.18-0.27c-0.02-0.03-0.17-0.35-0.1-0.18c0.07,0.17-0.06-0.2-0.06-0.19
					c-0.03-0.08-0.04-0.17-0.07-0.25c-0.11-0.38,0,0.15-0.02-0.07c-0.02-0.22-0.02-0.44-0.01-0.66c0.01-0.23-0.09,0.32,0.01-0.07
					c0.02-0.09,0.04-0.17,0.06-0.26c0.03-0.11,0.07-0.21,0.1-0.31c0.04-0.11,0.13-0.26,0.03-0.07c0.11-0.19,0.22-0.38,0.36-0.55
					c-0.25,0.29,0.43-0.33,0.11-0.1c0.68-0.48,1.05-1.26,0.57-2C114.01,36.2,112.91,35.81,112.23,36.29L112.23,36.29z"/>
			</g>
		</g>
		<g class="st11">
			<g>
				<path d="M111.63,44.64c-1.82,2.51-0.9,6.3,1.92,7.85c0.74,0.41,1.75,0.15,2.18-0.52c0.44-0.69,0.17-1.59-0.57-2
					c-0.27-0.15-0.54-0.37-0.71-0.61c-0.08-0.11-0.15-0.22-0.21-0.33c-0.02-0.03-0.19-0.41-0.07-0.13c-0.09-0.23-0.16-0.46-0.22-0.7
					c-0.03-0.12-0.05-0.29-0.02-0.07c-0.02-0.13-0.03-0.26-0.03-0.4s0.01-0.26,0.01-0.4c0-0.28-0.03,0.1,0-0.07
					c0.05-0.24,0.12-0.47,0.2-0.69c-0.1,0.28,0.05-0.08,0.07-0.13c0.07-0.11,0.14-0.22,0.22-0.33c0.48-0.66,0.14-1.61-0.57-2
					C113.03,43.7,112.1,43.98,111.63,44.64L111.63,44.64z"/>
			</g>
		</g>
		<g class="st11">
			<g>
				<path d="M116.45,50.49c0.78,3.12,5.14,5.02,8.15,3.15c0.71-0.44,1.03-1.28,0.57-2c-0.41-0.65-1.47-0.97-2.18-0.52
					c-0.11,0.07-0.23,0.13-0.34,0.19c-0.29,0.17,0.2-0.03-0.1,0.04c-0.13,0.03-0.25,0.06-0.38,0.09c-0.36,0.09,0.28,0.02-0.09,0.01
					c-0.13,0-0.27,0-0.39,0c-0.39,0,0.28,0.08-0.1-0.01c-0.13-0.03-0.26-0.05-0.39-0.09c-0.05-0.01-0.45-0.16-0.12-0.02
					c-0.25-0.1-0.48-0.23-0.7-0.36c0.23,0.14-0.01-0.01-0.1-0.08c-0.1-0.08-0.19-0.18-0.29-0.26c-0.23-0.2,0.09,0.18-0.08-0.1
					c-0.06-0.09-0.12-0.18-0.18-0.27c-0.03-0.05-0.06-0.11-0.09-0.17c0.06,0.14,0.07,0.16,0.03,0.06c-0.05-0.14-0.1-0.29-0.13-0.43
					c-0.19-0.77-1.16-1.22-1.96-1.02C116.7,48.91,116.26,49.72,116.45,50.49L116.45,50.49z"/>
			</g>
		</g>
		<g class="st11">
			<g>
				<path d="M81.24,64.63c0.03-0.2-0.02,0.05-0.04,0.13c-0.03,0.12-0.07,0.24-0.11,0.36c-0.02,0.07-0.08,0.21-0.02,0.06
					c-0.05,0.11-0.12,0.22-0.18,0.33c-0.07,0.11-0.14,0.21-0.21,0.31c-0.04,0.06-0.14,0.18-0.04,0.06
					c-0.16,0.19-0.36,0.36-0.55,0.52c-0.06,0.05-0.18,0.13-0.05,0.04c-0.11,0.07-0.21,0.14-0.33,0.2c-0.11,0.06-0.22,0.12-0.34,0.17
					c-0.09,0.04-0.2,0.07-0.04,0.02C79.1,66.9,78.85,66.97,78.6,67c0.17-0.02,0.09-0.01-0.03-0.01c-0.15,0-0.31,0-0.46-0.01
					c-0.86-0.05-1.59,0.71-1.59,1.46c0,0.83,0.73,1.41,1.59,1.46c1.57,0.09,3.08-0.5,4.24-1.45c1.23-1,1.88-2.36,2.08-3.83
					c0.1-0.78-0.81-1.46-1.59-1.46C81.89,63.17,81.34,63.84,81.24,64.63L81.24,64.63z"/>
			</g>
		</g>
	</g>
</g>
<g id="Ebene_9_6_">
</g>
<g id="Ebene_3">
	<g>
		<g id="Ebene_2_Kopie_5_">
			<g>
				<path class="st25" d="M124.43,62.87c3.56,2.67,14.35,10.85,16.57,10.01c3.61-1.36,26.06-27.65,25.49-30.71
					c-1.2-6.41-44.47-41.22-51.6-39.61c-6.42,1.45-19.86,31.3-19.57,33.86c0.43,3.87,8.74,7.85,11.27,11.63
					c1.13,1.68,2.16,14.89,3.95,15.99c1.02,0.63,9.77,0.24,13.77-1.26"/>
				<g>
					<path class="st26" d="M124.23,63.14c3.49,2.62,6.99,5.25,10.7,7.56c0.89,0.55,1.8,1.09,2.74,1.57c0.69,0.35,1.41,0.7,2.18,0.89
						c0.47,0.12,0.95,0.18,1.41-0.04c0.35-0.17,0.67-0.41,0.98-0.64c1.02-0.78,1.94-1.68,2.86-2.58c1.31-1.29,2.57-2.62,3.82-3.97
						c3-3.26,5.9-6.61,8.7-10.04c2.47-3.02,4.91-6.09,7.08-9.34c0.67-1.01,1.35-2.04,1.83-3.16c0.14-0.32,0.27-0.66,0.29-1.01
						c0.02-0.3-0.08-0.59-0.19-0.87c-0.32-0.78-0.83-1.49-1.34-2.15c-0.75-0.98-1.57-1.91-2.41-2.81c-2.35-2.52-4.87-4.86-7.43-7.16
						c-3.13-2.81-6.35-5.52-9.63-8.15c-3.4-2.74-6.86-5.4-10.4-7.96c-3.16-2.29-6.37-4.51-9.7-6.55c-2.41-1.48-4.9-2.95-7.57-3.94
						c-0.81-0.3-1.68-0.58-2.56-0.62c-0.92-0.04-1.74,0.37-2.48,0.92c-1.19,0.87-2.18,2.04-3.1,3.2c-1.22,1.54-2.31,3.19-3.35,4.86
						c-2.4,3.86-4.51,7.89-6.48,11.98c-1.61,3.34-3.16,6.73-4.41,10.22c-0.32,0.89-0.69,1.83-0.8,2.77
						c-0.07,0.6,0.17,1.23,0.44,1.74c0.49,0.95,1.23,1.76,1.99,2.49c1.89,1.82,4.07,3.31,6.08,5c0.89,0.75,1.77,1.53,2.49,2.45
						c0.25,0.31,0.34,0.42,0.47,0.76c0.1,0.26,0.17,0.52,0.24,0.79c0.49,1.9,0.76,3.87,1.08,5.82c0.36,2.14,0.7,4.3,1.25,6.39
						c0.19,0.71,0.39,1.45,0.74,2.1c0.27,0.49,0.58,0.76,1.13,0.87c0.82,0.16,1.69,0.15,2.52,0.15c1.25-0.01,2.51-0.08,3.76-0.2
						c2.41-0.22,4.92-0.53,7.23-1.38c0.4-0.15,0.13-0.74-0.26-0.59c-1.12,0.41-2.29,0.66-3.45,0.86c-1.31,0.23-2.64,0.39-3.96,0.5
						c-1.2,0.1-2.4,0.16-3.59,0.15c-0.74,0-1.62,0.02-2.28-0.18c-0.04-0.01-0.08-0.03-0.12-0.04c-0.11-0.04,0.01,0.02-0.05-0.03
						c-0.03-0.02-0.06-0.04-0.09-0.07c0.07,0.06-0.06-0.07-0.08-0.09c-0.15-0.19-0.25-0.39-0.36-0.65
						c-0.31-0.73-0.51-1.51-0.69-2.28c-0.5-2.14-0.84-4.32-1.21-6.5c-0.3-1.8-0.54-3.65-1.06-5.4c-0.2-0.67-0.53-1.18-0.99-1.71
						c-0.76-0.89-1.65-1.67-2.55-2.41c-1.99-1.65-4.15-3.11-5.98-4.94c-0.71-0.71-1.42-1.49-1.82-2.43
						c-0.08-0.18-0.15-0.36-0.19-0.56c-0.02-0.11-0.04-0.21-0.06-0.32c0-0.02-0.01-0.18-0.01-0.04c0-0.12,0.01-0.24,0.03-0.36
						c0.06-0.35,0.16-0.72,0.29-1.14c0.18-0.57,0.38-1.14,0.58-1.7c0.57-1.56,1.21-3.09,1.88-4.62c1.73-3.98,3.63-7.89,5.71-11.71
						c1.95-3.59,4.03-7.2,6.6-10.4c0.87-1.09,1.82-2.17,2.97-2.97c0.35-0.24,0.84-0.5,1.22-0.59c0.07-0.02,0.13-0.03,0.2-0.04
						c0.03,0,0.06-0.01,0.09-0.01c0.11-0.01-0.04,0,0.07,0c0.16,0,0.32,0,0.48,0.02c0.44,0.04,0.68,0.1,1.1,0.22
						c0.49,0.13,0.96,0.3,1.43,0.49c1.16,0.46,2.28,1.01,3.38,1.6c3.04,1.63,5.94,3.51,8.79,5.45c3.45,2.35,6.81,4.82,10.12,7.36
						c3.4,2.61,6.74,5.31,10.02,8.08c2.91,2.47,5.77,4.99,8.52,7.64c1.98,1.91,3.97,3.87,5.64,6.07c0.28,0.37,0.56,0.75,0.81,1.15
						c0.05,0.07,0.05,0.07,0.11,0.19c0.05,0.08,0.09,0.17,0.14,0.25c0.08,0.14,0.15,0.29,0.21,0.44c0.03,0.06,0.05,0.13,0.07,0.19
						c0.01,0.03,0.02,0.07,0.03,0.1c-0.03-0.11,0,0.01,0.01,0.03c0.01,0.05,0.02,0.1,0.03,0.16c0.01,0.09,0.01-0.07,0,0.01
						c0,0.03,0,0.06-0.01,0.09c0,0.04-0.04,0.23-0.02,0.12c-0.02,0.08-0.04,0.16-0.07,0.24c-0.06,0.19-0.14,0.38-0.22,0.56
						c-0.47,1.03-1.16,2.08-1.83,3.07c-0.99,1.48-2.05,2.91-3.13,4.32c-2.63,3.44-5.39,6.79-8.23,10.06
						c-2.57,2.96-5.19,5.89-7.98,8.64c-0.9,0.89-1.83,1.79-2.83,2.56c-0.34,0.26-0.51,0.4-0.86,0.57c-0.15,0.07-0.23,0.09-0.37,0.08
						c-0.28-0.01-0.48-0.05-0.74-0.13c-0.77-0.23-1.5-0.59-2.21-0.96c-0.93-0.5-1.84-1.04-2.74-1.61c-2.03-1.28-4.01-2.67-5.95-4.08
						c-1.47-1.06-2.92-2.15-4.37-3.24C124.29,62.34,123.9,62.89,124.23,63.14L124.23,63.14z"/>
				</g>
			</g>
		</g>
		<g id="Ebene_7_4_">
			<g class="st22">
				<g>
					<path class="st20" d="M151.61,33.92c0.99,0.98,2.06,1.86,3.11,2.76c0.29,0.25,0.58,0.5,0.86,0.76
						c0.14,0.12,0.28,0.25,0.42,0.37c0.07,0.06,0.14,0.13,0.21,0.19c0.23,0.21-0.19-0.18,0.04,0.04c0.53,0.5,1.05,1.01,1.54,1.56
						c0.23,0.25,0.45,0.51,0.65,0.78c0.09,0.12,0.18,0.25,0.27,0.37c0.04,0.06,0.08,0.12,0.12,0.18c0.17,0.25-0.11-0.2-0.01-0.03
						c0.13,0.24,0.26,0.47,0.35,0.73c0.02,0.05,0.03,0.12,0.06,0.17c-0.04-0.07-0.08-0.33-0.04-0.13c0.02,0.12,0.02,0.26,0.06,0.37
						c-0.02-0.06,0.01-0.36-0.01-0.16c0,0.05-0.01,0.1-0.01,0.16c-0.02,0.3,0.1-0.26,0.02-0.08c-0.04,0.09-0.19,0.41-0.04,0.12
						c0.15-0.29,0.03-0.06-0.01,0.01c-0.04,0.06-0.08,0.13-0.11,0.19c-0.09,0.15-0.18,0.29-0.28,0.43
						c-1.32,1.94-2.86,3.74-4.36,5.53c-2.12,2.54-4.29,5.05-6.46,7.56c-2.05,2.37-4.11,4.73-6.15,7.11
						c-0.21,0.25-0.42,0.49-0.63,0.74c-0.45,0.53-0.25,1.48,0.29,1.83c0.64,0.4,1.33,0.21,1.82-0.36c2-2.35,4.04-4.68,6.06-7.01
						c2.23-2.57,4.46-5.14,6.65-7.75c1.62-1.92,3.27-3.85,4.71-5.91c0.37-0.53,0.82-1.13,0.99-1.76c0.38-1.47-0.33-2.83-1.16-3.94
						c-0.93-1.25-2.11-2.32-3.27-3.36c-1.07-0.96-2.19-1.87-3.26-2.84c-0.05-0.05-0.11-0.1-0.16-0.14
						c-0.16-0.15,0.25,0.23,0.06,0.06c-0.1-0.09-0.2-0.19-0.29-0.28c-0.48-0.47-1.27-0.66-1.83-0.14
						C151.32,32.5,151.1,33.41,151.61,33.92L151.61,33.92z"/>
				</g>
			</g>
			<g class="st22">
				<g>
					<path class="st20" d="M137.52,67.12c-0.13,0.26-0.26,0.53-0.39,0.79c0.8-0.05,1.61-0.1,2.41-0.16
						c-0.15-0.36-0.29-0.73-0.43-1.09c-0.33,0.62-0.66,1.24-0.98,1.87c-0.19,0.02-0.36,0.02-0.54-0.07
						c-0.08-0.02-0.14-0.07-0.19-0.13c-0.09-0.1-0.11-0.11-0.05-0.03c-0.09-0.13-0.14-0.24-0.17-0.4c0.01,0.09,0.01,0.08,0-0.05
						c-0.02-0.11,0-0.22,0.04-0.33c0.45-0.3,0.9-0.6,1.35-0.9c0.02,0,0.31,0.1,0.16,0.03c0.15,0.06,0.26,0.14,0.38,0.26
						c-0.11-0.12,0.07,0.12,0.08,0.14c-0.08-0.14,0.04,0.12,0.04,0.15c0.02,0.15-0.01,0.3-0.05,0.44c0.07-0.23-0.29,0.39-0.28,0.37
						c0.12-0.12-0.11,0.07-0.13,0.09c-0.07,0.02-0.13,0.05-0.2,0.07c-0.22,0-0.28,0.01-0.18,0.01c0.15,0.02-0.29-0.07-0.15-0.03
						c0.06,0.02,0.04,0.01-0.07-0.04c-0.07-0.02-0.14-0.06-0.19-0.12c-0.22-0.2-0.32-0.49-0.25-0.79c0.07-0.28-0.08,0.11,0.06-0.16
						c0.14-0.27-0.1,0.08,0.1-0.15c0.04-0.07,0.1-0.12,0.17-0.15c0.11-0.06,0.13-0.08,0.07-0.05c-0.11,0.05,0.33-0.07,0.12-0.06
						c0.5,0.46,1,0.92,1.5,1.38c0.01-0.13,0.01-0.26,0.02-0.39c0.03-0.69-0.44-1.38-1.17-1.4c-0.68-0.01-1.39,0.5-1.42,1.23
						c-0.01,0.13-0.01,0.26-0.02,0.39c-0.02,0.42,0.1,0.78,0.41,1.06c0.32,0.3,0.67,0.35,1.1,0.32c0.87-0.07,1.59-0.97,1.63-1.81
						c0.05-1-0.72-1.86-1.72-1.86c-0.96,0-1.91,0.73-1.93,1.76c-0.02,1,0.67,1.87,1.68,1.93c0.57,0.04,1.14-0.35,1.35-0.9
						c0.22-0.6,0.12-1.3-0.28-1.77c-0.43-0.52-1.01-0.7-1.67-0.63c-0.87,0.09-1.27,1.15-0.98,1.87c0.15,0.36,0.29,0.73,0.43,1.09
						c0.19,0.48,0.73,0.76,1.23,0.73c0.56-0.04,0.93-0.39,1.18-0.89c0.13-0.26,0.26-0.53,0.39-0.79c0.14-0.28,0.09-0.73-0.03-0.99
						c-0.13-0.3-0.42-0.59-0.74-0.68c-0.32-0.09-0.68-0.1-0.98,0.06C137.88,66.53,137.69,66.78,137.52,67.12L137.52,67.12z"/>
				</g>
			</g>
		</g>
		<g id="Ebene_2_6_">
			<g>
				<g>
					<path d="M120.85,64.36c3.49,2.63,7,5.26,10.71,7.57c0.89,0.56,1.8,1.09,2.74,1.57c0.75,0.38,1.51,0.77,2.33,0.98
						c0.63,0.16,1.27,0.23,1.89-0.06c0.4-0.19,0.77-0.46,1.12-0.72c1.02-0.78,1.95-1.68,2.86-2.58c1.31-1.29,2.58-2.63,3.83-3.98
						c3.03-3.29,5.96-6.68,8.79-10.15c2.46-3.02,4.91-6.08,7.06-9.33c0.69-1.04,1.38-2.11,1.86-3.26c0.15-0.37,0.29-0.77,0.31-1.16
						c0.02-0.42-0.11-0.82-0.26-1.2c-0.35-0.84-0.91-1.6-1.45-2.31c-0.76-0.99-1.59-1.92-2.44-2.82c-2.39-2.55-4.95-4.93-7.55-7.25
						c-3.13-2.8-6.35-5.51-9.62-8.14c-3.4-2.73-6.85-5.39-10.38-7.95c-3.15-2.28-6.35-4.49-9.66-6.53
						c-2.47-1.52-5.02-3.03-7.74-4.05c-0.87-0.33-1.8-0.62-2.73-0.67c-1.08-0.05-2.03,0.39-2.91,1.03c-1.24,0.89-2.27,2.11-3.21,3.3
						c-1.22,1.54-2.31,3.18-3.34,4.85c-2.42,3.89-4.54,7.97-6.52,12.09c-1.61,3.35-3.16,6.76-4.41,10.26
						c-0.33,0.93-0.71,1.92-0.81,2.9c-0.08,0.72,0.18,1.47,0.51,2.09c0.54,1.02,1.3,1.88,2.12,2.66c1.95,1.86,4.16,3.39,6.22,5.12
						c0.23,0.19,0.45,0.38,0.67,0.58c0.06,0.05,0.12,0.1,0.18,0.16c0.03,0.03,0.23,0.21,0.04,0.03c0.11,0.1,0.22,0.21,0.33,0.31
						c0.4,0.39,0.79,0.8,1.13,1.25c0.07,0.08,0.13,0.17,0.19,0.26c0.04,0.05,0.07,0.11,0.11,0.15c0.08,0.09-0.13-0.26-0.09-0.14
						c0.04,0.1,0.1,0.19,0.14,0.29c0.05,0.12,0.08,0.24,0.12,0.35c0.09,0.27-0.05-0.2,0.01,0.03c0.03,0.1,0.05,0.2,0.08,0.29
						c0.49,1.89,0.76,3.86,1.09,5.79c0.36,2.14,0.71,4.3,1.27,6.39c0.21,0.76,0.42,1.55,0.8,2.24c0.18,0.32,0.38,0.63,0.68,0.86
						c0.3,0.22,0.64,0.3,1,0.36c0.84,0.15,1.71,0.15,2.56,0.15c1.3-0.01,2.6-0.08,3.89-0.2c2.46-0.22,4.98-0.54,7.33-1.4
						c0.5-0.18,0.7-0.87,0.5-1.32c-0.23-0.52-0.79-0.64-1.29-0.46c-0.07,0.02-0.47,0.16-0.2,0.07c-0.12,0.04-0.24,0.08-0.36,0.11
						c-0.28,0.08-0.57,0.16-0.86,0.23c-0.62,0.15-1.24,0.27-1.86,0.38c-1.31,0.22-2.64,0.38-3.96,0.48
						c-0.14,0.01-0.28,0.02-0.43,0.03c-0.03,0-0.31,0.02-0.09,0.01c-0.08,0.01-0.17,0.01-0.25,0.02c-0.32,0.02-0.65,0.04-0.97,0.05
						c-0.56,0.02-1.13,0.03-1.69,0.03c-0.46,0-0.91-0.02-1.37-0.05c-0.17-0.01-0.34-0.03-0.51-0.05c-0.07-0.01-0.16-0.04-0.23-0.04
						c0.26-0.02,0.17,0.04,0.02,0c-0.05-0.01-0.1-0.04-0.15-0.05c-0.18-0.04,0.15,0.09,0.12,0.06c-0.02-0.02-0.08-0.07-0.11-0.08
						c0.23,0.09,0.17,0.18,0.07,0.05c-0.03-0.05-0.07-0.09-0.1-0.14c-0.13-0.16,0.13,0.23,0.03,0.05c-0.07-0.13-0.14-0.27-0.2-0.4
						c-0.14-0.33-0.26-0.67-0.36-1.01c-0.02-0.06-0.09-0.24,0.01,0.03c-0.02-0.05-0.03-0.11-0.05-0.16c-0.03-0.1-0.06-0.2-0.08-0.3
						c-0.06-0.23-0.12-0.47-0.18-0.7c-0.51-2.13-0.86-4.31-1.22-6.47c-0.32-1.86-0.58-3.77-1.13-5.57c-0.21-0.7-0.57-1.25-1.03-1.81
						c-0.81-0.96-1.77-1.79-2.73-2.58c-1.01-0.84-2.05-1.63-3.08-2.44c-0.51-0.4-1.01-0.81-1.51-1.23
						c-0.23-0.19-0.45-0.39-0.67-0.59c-0.06-0.05-0.12-0.11-0.18-0.16c-0.19-0.17,0.1,0.1-0.01-0.01c-0.12-0.12-0.24-0.23-0.36-0.35
						c-0.39-0.39-0.77-0.79-1.11-1.23c-0.15-0.19-0.28-0.39-0.42-0.59c-0.13-0.18,0.1,0.2,0,0c-0.03-0.05-0.06-0.11-0.09-0.16
						c-0.06-0.1-0.11-0.21-0.16-0.32c-0.05-0.1-0.09-0.21-0.13-0.32c-0.01-0.03-0.02-0.07-0.04-0.11c-0.07-0.19,0.04,0.22,0.01,0.03
						c-0.03-0.14-0.03-0.33-0.08-0.47c0.09,0.26-0.01,0.29,0.01,0.16c0-0.02,0-0.05,0-0.07c0-0.07,0.02-0.14,0.03-0.21
						c0.01-0.08,0.03-0.15,0.04-0.23c0.04-0.23-0.04,0.17-0.02,0.09c0.01-0.05,0.02-0.1,0.04-0.15c0.06-0.22,0.12-0.45,0.19-0.67
						c0.18-0.58,0.37-1.15,0.58-1.71c0.57-1.55,1.2-3.08,1.86-4.6c0.82-1.9,1.69-3.78,2.59-5.64c0.5-1.03,1-2.05,1.52-3.07
						c0.12-0.24,0.25-0.48,0.37-0.72c0.03-0.06,0.22-0.42,0.08-0.16c0.08-0.15,0.16-0.31,0.24-0.46c0.26-0.5,0.53-1,0.8-1.5
						c1.94-3.59,4.01-7.19,6.58-10.38c0.26-0.32,0.52-0.64,0.8-0.95c0.06-0.07,0.28-0.28,0.02-0.02c0.07-0.07,0.13-0.14,0.2-0.22
						c0.13-0.14,0.26-0.27,0.39-0.41c0.45-0.45,0.92-0.86,1.44-1.22c0.03-0.02,0.06-0.04,0.09-0.06c0.01-0.01-0.24,0.15-0.13,0.08
						c0.06-0.03,0.12-0.07,0.18-0.11c0.11-0.07,0.23-0.13,0.34-0.18c0.1-0.05,0.2-0.09,0.31-0.13c0.18-0.08-0.28,0.08-0.05,0.02
						c0.05-0.01,0.11-0.03,0.16-0.04c0.06-0.01,0.13-0.02,0.19-0.03c0.04-0.01,0.07-0.01,0.11-0.01c0.04-0.01-0.32,0.01-0.11,0.01
						c0.16,0,0.32,0,0.49,0.02c0.09,0.01,0.17,0.02,0.26,0.03c0.05,0.01,0.1,0.02,0.15,0.02c0.24,0.04-0.14-0.03-0.07-0.02
						c0.21,0.05,0.41,0.09,0.61,0.15c0.49,0.14,0.96,0.31,1.43,0.5c0.55,0.22,1.09,0.46,1.62,0.71c0.14,0.07,0.28,0.13,0.42,0.2
						c0.06,0.03,0.13,0.06,0.19,0.1c0.04,0.02,0.08,0.04,0.12,0.06c0.22,0.11-0.18-0.1-0.03-0.02c0.31,0.16,0.62,0.32,0.93,0.49
						c3.03,1.63,5.93,3.52,8.78,5.46c3.42,2.34,6.76,4.79,10.05,7.31c3.41,2.62,6.76,5.31,10.04,8.09c1.53,1.29,3.04,2.61,4.53,3.94
						c0.71,0.64,1.42,1.27,2.12,1.93c-0.19-0.18-0.02-0.01,0.07,0.06c0.09,0.08,0.17,0.16,0.26,0.24c0.17,0.16,0.34,0.32,0.51,0.47
						c0.31,0.3,0.63,0.59,0.94,0.89c1.99,1.91,3.98,3.88,5.66,6.07c0.29,0.37,0.56,0.75,0.81,1.14c0.02,0.04,0.05,0.08,0.07,0.11
						c-0.22-0.32-0.09-0.14-0.04-0.06c0.05,0.08,0.1,0.17,0.14,0.25c0.08,0.14,0.15,0.29,0.22,0.45c0.03,0.06,0.05,0.13,0.08,0.19
						c0.01,0.03,0.02,0.06,0.03,0.09c0.06,0.16-0.07-0.3-0.03-0.12c0.01,0.05,0.02,0.11,0.04,0.16c0.05,0.19,0.04-0.32,0-0.07
						c-0.01,0.06-0.02,0.12-0.03,0.18c0.02-0.31,0.04-0.17-0.01,0c-0.06,0.18-0.13,0.36-0.2,0.53c-0.04,0.1-0.09,0.19-0.14,0.29
						c-0.03,0.06-0.06,0.11-0.08,0.17c-0.12,0.24,0.12-0.22,0.02-0.03c-0.13,0.25-0.27,0.49-0.41,0.74
						c-0.35,0.6-0.73,1.19-1.12,1.77c-0.98,1.46-2.02,2.87-3.09,4.27c-2.63,3.45-5.4,6.8-8.24,10.07c-0.71,0.82-1.43,1.64-2.15,2.44
						c-0.35,0.39-0.7,0.78-1.05,1.17c-0.04,0.04-0.2,0.22,0,0c-0.04,0.04-0.07,0.08-0.11,0.12c-0.08,0.09-0.16,0.18-0.25,0.27
						c-0.18,0.19-0.36,0.39-0.53,0.58c-1.22,1.32-2.46,2.63-3.74,3.89c-0.91,0.89-1.83,1.78-2.84,2.56
						c-0.16,0.13-0.34,0.24-0.5,0.36c0.33-0.25,0.09-0.06-0.01,0c-0.07,0.04-0.13,0.07-0.2,0.1c-0.03,0.01-0.06,0.02-0.08,0.04
						c-0.13,0.07,0.28-0.05,0.12-0.04c-0.04,0-0.11,0.01-0.15,0.02c-0.08,0.02-0.15-0.12,0.17-0.01c-0.03-0.01-0.08,0-0.11,0
						c-0.12-0.01-0.23-0.03-0.35-0.04c-0.16-0.02,0.26,0.07,0.11,0.02c-0.04-0.01-0.07-0.02-0.11-0.03
						c-0.08-0.02-0.15-0.04-0.23-0.06c-0.35-0.1-0.68-0.24-1.01-0.38c-0.18-0.08-0.37-0.17-0.55-0.25c-0.07-0.03-0.44-0.2-0.14-0.07
						c-0.11-0.05-0.22-0.11-0.32-0.17c-0.95-0.5-1.86-1.06-2.77-1.63c-2.02-1.28-3.99-2.66-5.93-4.07
						c-1.47-1.07-2.93-2.16-4.38-3.25c-0.42-0.31-1.06-0.16-1.36,0.27C120.31,63.45,120.43,64.05,120.85,64.36L120.85,64.36z"/>
				</g>
			</g>
		</g>
		<g id="Ebene_10_3_">
			<g>
				<g>
					<path class="st20" d="M124.79,19.25c0.88,5.53,1.66,11.08,2.36,16.65c0.69,5.47,1.31,10.96,1.89,16.45
						c0.32,3.05,0.63,6.1,0.94,9.16c0.12,1.2,1.45,2.1,2.61,1.82c1.27-0.31,2.01-1.43,1.89-2.71c-0.54-5.44-1.11-10.89-1.72-16.32
						c-0.62-5.52-1.3-11.04-2.07-16.54c-0.44-3.14-0.9-6.27-1.4-9.39c-0.19-1.19-1.4-2.11-2.61-1.82
						C125.47,16.84,124.59,17.99,124.79,19.25L124.79,19.25z"/>
				</g>
			</g>
			<g>
				<g>
					<path class="st20" d="M108.65,45.95c6.06-1.2,12.1-2.47,18.13-3.84c4.46-1.02,8.91-2.08,13.38-3.06
						c2.96-0.65,5.93-1.27,8.9-1.85c1.18-0.23,2.13-1.5,1.89-2.71c-0.25-1.21-1.35-2.07-2.61-1.82c-4.94,0.98-9.87,2.05-14.78,3.18
						c-4.77,1.1-9.53,2.22-14.31,3.25c-3.76,0.81-7.53,1.58-11.31,2.33c-1.18,0.23-2.13,1.5-1.89,2.71
						C106.29,45.35,107.39,46.2,108.65,45.95L108.65,45.95z"/>
				</g>
			</g>
		</g>
		<g id="Ebene_9_4_">
			<g class="st23">
				<path d="M114.14,2.84c-10.71,15.37-6.9,45.01-2.13,62.1c-1.66-0.58-1.99-3.83-3.29-8.49c-1.84-6.58-0.32-6.17-2.03-8.85
					c-1.42-2.22-4.02-3.7-6.12-5.27c-1.94-1.45-4.16-3.54-4.71-5.46c-0.72-2.54,8.39-21.98,16.18-32.41"/>
				<g>
					<path d="M113.62,2.47c-2.22,3.19-3.74,6.83-4.78,10.55c-1.15,4.12-1.77,8.37-2.04,12.61c-0.29,4.5-0.22,9.01,0.1,13.48
						c0.31,4.41,0.86,8.8,1.62,13.14c0.67,3.89,1.51,7.76,2.52,11.56c0.11,0.42,0.23,0.84,0.34,1.26c0.29-0.25,0.58-0.5,0.87-0.75
						c-0.04-0.02-0.09-0.03-0.13-0.05c0.16,0.07,0.02,0.01-0.01-0.01c-0.07-0.04-0.13-0.09-0.19-0.14
						c-0.14-0.11,0.03,0.06-0.09-0.09c-0.07-0.08-0.14-0.16-0.2-0.25c-0.03-0.05-0.06-0.09-0.09-0.14c0.07,0.11,0,0-0.02-0.03
						c-0.05-0.1-0.11-0.2-0.16-0.3c-0.11-0.23-0.2-0.46-0.29-0.7c-0.46-1.27-0.74-2.61-1.07-3.92c-0.64-2.57-1.46-5.09-1.65-7.77
						c-0.04-0.53-0.04-1.08-0.16-1.6c-0.14-0.65-0.43-1.24-0.77-1.8c-1.68-2.77-4.61-4.24-7.07-6.2c-1.12-0.89-2.19-1.88-3.03-3.05
						c-0.35-0.48-0.63-1-0.82-1.57c-0.03-0.08,0.01,0.1-0.01-0.04c0-0.03-0.01-0.06-0.01-0.09c-0.02-0.1,0.04-0.12,0,0.04
						c0.01-0.04,0-0.1,0-0.14c0.01-0.22,0.04-0.43,0.08-0.64c0.01-0.07,0.03-0.14,0.04-0.21c0.01-0.05,0.06-0.26,0.01-0.05
						c0.04-0.15,0.07-0.29,0.11-0.44c0.19-0.72,0.43-1.44,0.68-2.14c1.56-4.36,3.62-8.57,5.76-12.68c2.51-4.82,5.23-9.58,8.37-14.02
						c0.34-0.48,0.69-0.96,1.05-1.44c0.51-0.69-0.54-1.42-1.05-0.74c-3.25,4.36-6.02,9.09-8.58,13.87c-2.35,4.4-4.59,8.9-6.38,13.55
						c-0.54,1.4-1.08,2.84-1.32,4.32c-0.08,0.51-0.08,0.98,0.08,1.47c0.43,1.31,1.38,2.43,2.33,3.37c1.1,1.11,2.33,2.06,3.6,2.96
						c1.31,0.92,2.67,1.81,3.79,2.97c0.28,0.28,0.54,0.58,0.78,0.9c0.11,0.14,0.21,0.29,0.31,0.44c0.04,0.06,0.08,0.13,0.12,0.19
						c0.07,0.11-0.04-0.07,0.04,0.07c0.17,0.29,0.34,0.59,0.46,0.91c0.02,0.06,0.04,0.12,0.07,0.18c0.03,0.08,0.06,0.2,0.02,0.04
						c0.03,0.13,0.07,0.26,0.09,0.4c0.04,0.25,0.06,0.51,0.08,0.77c0.05,0.78,0.11,1.56,0.23,2.34c0.23,1.48,0.63,2.92,1.01,4.36
						c0.42,1.55,0.76,3.12,1.2,4.67c0.29,1.02,0.6,2.13,1.28,2.95c0.29,0.34,0.64,0.6,1.06,0.76c0.42,0.16,1-0.27,0.87-0.75
						c-1.03-3.68-1.88-7.43-2.57-11.2c-0.79-4.25-1.38-8.54-1.76-12.86c-0.38-4.4-0.53-8.83-0.34-13.27
						c0.18-4.2,0.66-8.43,1.67-12.55c0.91-3.7,2.24-7.36,4.26-10.59c0.24-0.39,0.49-0.76,0.75-1.14
						C115.16,2.5,114.11,1.76,113.62,2.47L113.62,2.47z"/>
				</g>
			</g>
		</g>
	</g>
</g>
</svg>
