<?xml version="1.0" encoding="utf-8"?>
<!-- Generator: Adobe Adobe Illustrator 24.2.0, SVG Export Plug-In . SVG Version: 6.00 Build 0)  -->
<svg version="1.1" xmlns="http://www.w3.org/2000/svg" xmlns:xlink="http://www.w3.org/1999/xlink" x="0px" y="0px"
	 viewBox="0 0 170.08 170.08" style="enable-background:new 0 0 170.08 170.08;" xml:space="preserve">
<style type="text/css">
	.st0{fill:#FFFFFF;}
	.st1{fill:#2E1B12;}
	.st2{fill:#F1BD56;stroke:#000000;stroke-width:0.9663;stroke-miterlimit:10;}
	.st3{fill:#F1BD56;}
	.st4{fill:#F3C057;}
	.st5{fill:#CA344E;}
	.st6{fill:#B22E45;}
	.st7{fill:#91615D;}
	.st8{fill:#F0C1A1;}
	.st9{fill:#FFFFFF;stroke:#FFFFFF;stroke-width:0.099;stroke-miterlimit:10;}
	.st10{opacity:0.102;}
	.st11{fill:#ADBECF;}
	.st12{fill:#F7D98D;}
	.st13{fill:#AEBFCE;}
	.st14{opacity:0.2706;}
	.st15{fill:#3D4C5B;}
	.st16{fill:#ECC9AD;}
	.st17{opacity:0.1608;}
	.st18{opacity:0.1686;}
	.st19{fill:#F0F6FA;}
	.st20{opacity:0.149;}
	.st21{opacity:0.0314;}
	.st22{stroke:#000000;stroke-width:0.0604;stroke-miterlimit:10;}
	.st23{fill:#C8354F;}
	.st24{fill:#C93550;}
	.st25{fill:#6DB671;}
	.st26{fill:#6CB671;}
	.st27{fill:#D1DFEA;}
	.st28{fill:#D3E1ED;}
	.st29{fill:#C8354E;}
	.st30{fill:#F3C058;}
	.st31{fill:#C8AE9D;}
	.st32{opacity:0.0784;}
	.st33{opacity:0.1412;}
	.st34{fill:#D15238;}
	.st35{fill:#D15239;}
</style>
<g id="Ebene_4_5_">
</g>
<g id="Ebene_8_7_">
	<g id="Ebene_24_Kopie_2">
		<g>
			<path class="st0" d="M129.21,162.03c-1.76-10.52-9.81-19.29-19.41-24.28s-20.61-6.69-31.45-7.39
				c-11.1-0.72-22.67-0.38-32.69,4.36c-12.17,5.75-20.41,17.11-28.1,28.01c37.05,6.18,75.19,5.97,112.16-0.6"/>
			<g>
				<path d="M129.72,161.61c-1.39-8.1-6.43-15.11-12.85-20.16c-7.3-5.74-16.37-8.75-25.48-10.31c-4.88-0.84-9.82-1.29-14.76-1.55
					c-4.89-0.25-9.81-0.26-14.69,0.24c-4.79,0.49-9.53,1.51-14,3.3c-4.12,1.66-7.92,3.98-11.37,6.76
					c-6.89,5.55-12.28,12.65-17.37,19.78c-0.64,0.89-1.27,1.79-1.9,2.68c-0.17,0.24-0.5,0.94,0.02,1.03
					c14.48,2.41,29.11,3.85,43.79,4.32c14.64,0.47,29.31-0.04,43.88-1.51c8.25-0.83,16.46-1.97,24.62-3.42
					c0.53-0.1,0.98-1.42,0.25-1.29c-14.48,2.57-29.14,4.17-43.84,4.78c-14.59,0.61-29.22,0.26-43.77-1.06
					c-8.18-0.74-16.33-1.79-24.43-3.14c0.01,0.34,0.01,0.68,0.02,1.03c4.98-7.05,10.05-14.18,16.48-20.03
					c3.17-2.88,6.66-5.42,10.51-7.35c4.25-2.13,8.86-3.44,13.56-4.17c4.75-0.74,9.58-0.9,14.38-0.78c4.83,0.13,9.68,0.49,14.47,1.12
					c9.23,1.23,18.54,3.7,26.31,8.92c6.69,4.49,12.31,11,14.51,18.78c0.27,0.94,0.48,1.9,0.65,2.87c0.06,0.34,0.47,0.22,0.65,0.07
					C129.63,162.32,129.77,161.94,129.72,161.61L129.72,161.61z"/>
			</g>
		</g>
		<g>
			<g>
				<path d="M70.45,147.46c2.26-2.37,4.12-5.07,6.38-7.44c-0.26,0.06-0.51,0.12-0.77,0.18c1.85,2.13,3.71,4.26,5.56,6.4
					c0.46,0.53,1.36-0.71,0.97-1.16c-1.85-2.13-3.71-4.26-5.56-6.4c-0.24-0.28-0.58-0.02-0.77,0.18c-2.26,2.37-4.12,5.07-6.38,7.44
					c-0.2,0.21-0.41,0.72-0.2,0.98C69.92,147.93,70.27,147.65,70.45,147.46L70.45,147.46z"/>
			</g>
		</g>
		<g>
			<g>
				<path d="M82.12,146.65c5.69-2.52,10.88-6.88,14.14-12.13c0.12-0.19,0.31-0.77-0.02-0.89c-2.2-0.84-4.39-1.68-6.59-2.51
					c-0.61-0.23-1.35,1.11-0.78,1.33c2.2,0.84,4.39,1.68,6.59,2.51c0-0.3-0.01-0.6-0.02-0.89c-3.06,4.94-8.02,8.97-13.36,11.33
					C81.55,145.63,81.27,147.02,82.12,146.65L82.12,146.65z"/>
			</g>
		</g>
		<g>
			<g>
				<path d="M64.18,130.17c-2.13,0.78-4.25,1.55-6.38,2.33c-0.41,0.15-0.83,0.7-0.67,1.15c2.08,6.03,6.5,11.19,12.27,14.08
					c0.57,0.29,1.34-1.05,0.78-1.33c-5.61-2.82-9.95-7.8-11.97-13.67c-0.22,0.38-0.45,0.76-0.67,1.15c2.13-0.78,4.25-1.55,6.38-2.33
					c0.35-0.13,0.61-0.46,0.68-0.83C64.64,130.48,64.54,130.04,64.18,130.17L64.18,130.17z"/>
			</g>
		</g>
		<g>
			<g>
				<path d="M75.57,140.64c0.25,8.56,0.44,17.16-0.25,25.7c-0.03,0.35,0.3,0.46,0.57,0.33c0.35-0.17,0.52-0.59,0.55-0.94
					c0.69-8.54,0.5-17.14,0.25-25.7c-0.01-0.34-0.28-0.47-0.57-0.33C75.8,139.86,75.56,140.3,75.57,140.64L75.57,140.64z"/>
			</g>
		</g>
	</g>
	<g id="Ebene_31">
		<g>
			<path class="st1" d="M44.04,135.92c-10.97,5.91-19.97,15.45-25.26,26.78c9.8,1.04,19.66,1.64,29.4,3.13
				c5.81,0.89,7.65-3.6,8.01-7.73s-1.66-8.1-4.1-11.45c-2.43-3.34-5.36-6.37-7.26-10.04"/>
			<g>
				<path class="st1" d="M44.03,135.28c-8.75,4.73-16.19,11.68-21.61,19.93c-1.56,2.38-2.93,4.87-4.13,7.44
					c-0.11,0.23-0.12,0.71,0.23,0.75c5.32,0.57,10.66,1,15.99,1.52c2.64,0.26,5.29,0.53,7.92,0.86c1.34,0.16,2.67,0.34,4.01,0.53
					c1.11,0.16,2.22,0.38,3.35,0.32c3.42-0.19,5.57-2.77,6.45-5.85c0.49-1.73,0.69-3.58,0.48-5.37c-0.28-2.29-1.13-4.45-2.26-6.46
					c-2.6-4.61-6.67-8.23-9.13-12.93c-0.3-0.57-1.25,0.63-0.97,1.16c3.83,7.3,12.74,13.3,11.11,22.49
					c-0.23,1.31-0.63,2.66-1.47,3.72c-0.88,1.11-2.17,1.72-3.58,1.82c-1.04,0.08-2.06-0.12-3.09-0.27
					c-1.26-0.18-2.52-0.35-3.78-0.51c-2.48-0.31-4.97-0.58-7.46-0.83c-5.67-0.56-11.36-1.02-17.02-1.62
					c0.08,0.25,0.15,0.5,0.23,0.75c4.03-8.6,10.26-16.15,17.93-21.85c2.17-1.61,4.46-3.06,6.84-4.35c0.31-0.17,0.57-0.58,0.55-0.94
					C44.59,135.28,44.33,135.12,44.03,135.28L44.03,135.28z"/>
			</g>
		</g>
		<g>
			<path class="st1" d="M108.75,138.07c-4.59,2-8.25,6.05-9.81,10.84c-1.55,4.79,0.25,12.3,2.78,16.64
				c8.76-1.05,17.53-2.11,26.29-3.16c0.57-0.07,1-0.71,0.84-1.27c-2.74-9.76-9.92-18.16-19.11-22.34"/>
			<g>
				<path class="st1" d="M108.74,137.44c-4.17,1.85-7.52,5.25-9.44,9.31c-0.91,1.91-1.41,3.91-1.48,6.02
					c-0.07,2.24,0.25,4.49,0.79,6.66c0.58,2.33,1.43,4.62,2.63,6.7c0.07,0.13,0.23,0.13,0.35,0.11c4.65-0.56,9.31-1.12,13.96-1.68
					c2.33-0.28,4.65-0.56,6.98-0.84c1.16-0.14,2.33-0.28,3.49-0.42c0.94-0.11,2.09-0.03,2.79-0.75c0.62-0.64,0.73-1.41,0.49-2.23
					c-0.25-0.84-0.53-1.68-0.84-2.5c-0.62-1.63-1.36-3.21-2.21-4.73c-1.71-3.06-3.87-5.86-6.4-8.31c-2.84-2.74-6.11-5.02-9.72-6.67
					c-0.59-0.27-1.34,1.07-0.78,1.33c6.03,2.77,11.13,7.27,14.71,12.78c1.8,2.77,3.19,5.77,4.13,8.93c0.04,0.13,0.18,0.4,0.13,0.52
					c0.02-0.05-0.14,0.01-0.18,0.02c-0.54,0.14-1.19,0.14-1.74,0.21c-1.09,0.13-2.17,0.26-3.26,0.39c-2.17,0.26-4.34,0.52-6.51,0.78
					c-4.93,0.59-9.85,1.18-14.77,1.78c0.12,0.04,0.23,0.07,0.35,0.11c-2-3.45-3.13-7.59-3.27-11.55c-0.07-1.94,0.18-3.81,0.92-5.62
					c0.76-1.87,1.88-3.6,3.25-5.09c1.58-1.71,3.51-3.07,5.65-4.01C109.31,138.46,109.58,137.07,108.74,137.44L108.74,137.44z"/>
			</g>
		</g>
	</g>
	<g id="Ebene_32_1_">
		<ellipse class="st2" cx="44.26" cy="143.69" rx="2.31" ry="2.33"/>
		<ellipse class="st2" cx="49.5" cy="151.81" rx="2.31" ry="2.33"/>
		<ellipse class="st2" cx="50.77" cy="161.74" rx="2.31" ry="2.33"/>
		<ellipse class="st2" cx="111.06" cy="143.34" rx="2.31" ry="2.33"/>
		<ellipse class="st2" cx="105.53" cy="151.81" rx="2.31" ry="2.33"/>
		<ellipse class="st2" cx="104.7" cy="160.2" rx="2.31" ry="2.33"/>
	</g>
	<g id="Ebene_24_1_">
		<g>
			<path class="st3" d="M104.85,137.18c-4.97,2.47-8.85,7.06-10.49,12.38c-1.64,5.33-1.01,11.32,1.7,16.18
				c1.49-0.11,2.98-0.23,4.47-0.34c-3.22-4.09-3.84-10.46-1.06-14.87c2.82-4.48,6.07-7.74,9.27-12.46c-1.35-0.52-2.7-1.04-4.06-1.57
				"/>
			<g>
				<path class="st4" d="M104.84,136.55c-8.23,4.14-12.96,13.29-11.74,22.27c0.36,2.64,1.19,5.17,2.48,7.51
					c0.05,0.07,0.12,0.11,0.22,0.12c1.49-0.11,2.98-0.23,4.47-0.34c0.48-0.04,1.11-0.82,0.75-1.28c-2.21-2.85-3.17-6.65-2.58-10.19
					c0.32-1.88,1.13-3.45,2.19-5.02c1.2-1.78,2.54-3.46,3.88-5.14c1.61-2.01,3.19-4.04,4.64-6.17c0.13-0.19,0.3-0.77-0.02-0.89
					c-1.35-0.52-2.7-1.04-4.06-1.57c-0.61-0.24-1.35,1.11-0.78,1.33c1.35,0.52,2.7,1.04,4.06,1.57c0-0.3-0.01-0.6-0.02-0.89
					c-2.64,3.87-5.83,7.34-8.46,11.22c-1.14,1.69-2.05,3.42-2.45,5.42c-0.38,1.87-0.35,3.81,0.01,5.68c0.41,2.1,1.3,4.12,2.61,5.82
					c0.25-0.43,0.5-0.86,0.75-1.28c-0.67,0.05-1.34,0.1-2.01,0.15c-0.34,0.03-0.67,0.05-1.01,0.08c-0.25,0.02-1.01,0.2-1.23,0.09
					c-0.36-0.17-0.62-1.05-0.78-1.41c-0.25-0.57-0.48-1.15-0.67-1.74c-0.78-2.32-1.14-4.76-1.07-7.21c0.13-4.57,1.9-8.95,4.96-12.38
					c1.65-1.85,3.65-3.37,5.87-4.48c0.32-0.16,0.57-0.59,0.55-0.94C105.4,136.54,105.15,136.39,104.84,136.55L104.84,136.55z"/>
			</g>
		</g>
		<g>
			<path class="st3" d="M45,136.51c4.53,5.53,7.94,8.84,10.33,12.93c2.79,4.79,0.5,11.47-1.64,16.6c2.4,0.33,5.66,1.13,6.61-2.46
				c2.52-9.55,0.77-18.72-6.17-24.37c-0.91-0.74-1.55-1.75-2.28-2.66c-0.74-0.91-1.65-1.77-2.79-2s-2.99,0.88-4.26,1.67"/>
			<g>
				<path class="st4" d="M44.51,137.09c2.8,3.42,5.89,6.63,8.51,10.18c1.14,1.55,2.27,3.17,2.73,5.05c0.52,2.12,0.31,4.34-0.14,6.45
					c-0.53,2.48-1.44,4.87-2.42,7.22c-0.1,0.24-0.13,0.7,0.23,0.75c2.36,0.33,5.05,0.8,6.61-1.45c0.97-1.39,1.21-3.3,1.48-4.92
					c0.29-1.71,0.45-3.44,0.44-5.17c0-3.25-0.58-6.54-1.93-9.52c-0.66-1.45-1.47-2.83-2.47-4.08c-0.51-0.64-1.06-1.25-1.64-1.82
					c-0.6-0.58-1.28-1.08-1.86-1.68c-1.37-1.42-2.29-3.49-4.31-4.14c-1.71-0.55-3.58,0.77-4.95,1.63c-0.31,0.19-0.57,0.57-0.55,0.94
					c0.02,0.31,0.28,0.51,0.57,0.33c0.65-0.41,1.32-0.81,2.01-1.15c0.59-0.28,1.3-0.59,1.97-0.46c1.68,0.32,2.69,2.06,3.66,3.27
					c0.97,1.22,2.28,2.12,3.33,3.28c0.97,1.07,1.82,2.26,2.52,3.52c3.01,5.43,3.06,11.95,1.6,17.84c-0.16,0.67-0.33,1.38-0.87,1.86
					c-0.4,0.36-0.95,0.52-1.48,0.6c-1.19,0.17-2.42-0.11-3.59-0.27c0.08,0.25,0.15,0.5,0.23,0.75c1.74-4.16,3.49-8.83,2.89-13.4
					c-0.53-4.03-3.56-7.34-6.12-10.34c-1.83-2.13-3.68-4.24-5.46-6.41C45.04,135.39,44.13,136.62,44.51,137.09L44.51,137.09z"/>
			</g>
		</g>
	</g>
	<g id="Ebene_21_4_">
		<g>
			<path class="st5" d="M76,141.66c-1.69,6.35-4.57,12.68-8.43,17.97c1.53,0.35,5.78,0.57,5.78,0.57s1.85-2.12,1.88-3.69
				c0.09-5.04,0.19-10.09,0.28-15.13"/>
			<g>
				<path d="M75.45,141.8c-1.66,6.21-4.37,12.21-8.18,17.43c-0.2,0.27-0.52,0.98,0.02,1.1c1.34,0.3,2.75,0.37,4.12,0.47
					c0.49,0.04,0.99,0.08,1.49,0.1c0.39,0.01,0.61-0.16,0.85-0.45c0.89-1.07,1.79-2.42,1.99-3.81c0.16-1.11,0.07-2.29,0.09-3.41
					c0.02-1.26,0.05-2.52,0.07-3.78c0.05-2.79,0.1-5.58,0.15-8.37c0.01-0.34-0.29-0.46-0.57-0.33c-0.33,0.16-0.54,0.59-0.55,0.94
					c-0.07,3.78-0.14,7.56-0.21,11.35c-0.02,0.95-0.04,1.91-0.05,2.87c-0.01,0.69-0.01,1.27-0.3,1.91c-0.33,0.72-0.8,1.4-1.32,2
					c0.18-0.1,0.37-0.2,0.55-0.3c-1.91-0.1-3.91-0.16-5.78-0.57c0.01,0.37,0.01,0.73,0.02,1.1c4.05-5.57,6.92-11.89,8.69-18.51
					c0.08-0.29-0.08-0.61-0.41-0.55C75.76,141.03,75.54,141.48,75.45,141.8L75.45,141.8z"/>
			</g>
		</g>
		<g>
			<path class="st6" d="M75.84,141.62c0,5.05-1.05,10.09-3.05,14.72c1.89,1.3,4.89,0.84,4.89,0.84s2.08-3.19,1.9-5.07
				c-0.18-1.88-0.99-3.64-1.76-5.36s-1.55-3.5-1.66-5.39"/>
			<g>
				<path d="M75.28,141.93c-0.02,4.94-1.03,9.82-2.98,14.37c-0.09,0.22-0.12,0.56,0.1,0.71c1.24,0.81,2.81,1.01,4.27,0.94
					c0.34-0.02,0.79,0.01,1.09-0.18c0.29-0.19,0.48-0.59,0.65-0.88c0.68-1.16,1.3-2.41,1.6-3.73c0.42-1.79-0.28-3.68-0.97-5.32
					c-0.92-2.2-2.15-4.36-2.31-6.78c-0.06-0.91-1.16,0.02-1.12,0.61c0.25,3.59,2.6,6.5,3.3,9.96c0.26,1.27-0.06,2.33-0.61,3.48
					c-0.3,0.63-0.64,1.25-1.02,1.84c0.18-0.15,0.36-0.31,0.54-0.46c-1.53,0.23-3.32,0.04-4.63-0.81c0.04,0.24,0.07,0.47,0.1,0.71
					c2.04-4.76,3.1-9.9,3.11-15.07c0-0.34-0.29-0.46-0.57-0.33C75.5,141.15,75.28,141.58,75.28,141.93L75.28,141.93z"/>
			</g>
		</g>
		<g>
			<path class="st6" d="M76.27,142.07c0.65,3.87,1.3,7.75,1.95,11.62c0.22,1.34,0.59,2.35,1.94,2.27c1.35-0.08,3.69-1.01,4.84-1.71
				c-1.05-5.48-4.19-10.53-8.61-13.89"/>
			<g>
				<path d="M75.72,142.53c0.37,2.2,0.74,4.41,1.11,6.61c0.18,1.06,0.36,2.13,0.53,3.19c0.15,0.9,0.24,1.84,0.5,2.72
					c0.17,0.55,0.45,1.12,0.97,1.41c0.56,0.31,1.24,0.23,1.85,0.11c1.49-0.29,3.01-0.9,4.31-1.68c0.36-0.22,0.61-0.67,0.53-1.09
					c-1.09-5.56-4.23-10.62-8.77-14.1c-0.48-0.37-1.3,0.93-0.78,1.33c4.4,3.37,7.4,8.3,8.46,13.68c0.18-0.36,0.35-0.73,0.53-1.09
					c-1.18,0.71-2.53,1.24-3.88,1.53c-0.54,0.12-1.22,0.24-1.67-0.16c-0.44-0.38-0.55-1.06-0.65-1.6
					c-0.72-3.91-1.32-7.86-1.98-11.78c-0.06-0.37-0.5-0.23-0.69-0.08C75.82,141.77,75.66,142.17,75.72,142.53L75.72,142.53z"/>
			</g>
		</g>
	</g>
	<g id="Ebene_23_1_">
		<g>
			<g>
				<g>
					<path d="M43.96,136.33c2.98,4.07,5.77,8.27,8.73,12.34c1.2,1.65,2.1,3.32,2.53,5.32c0.42,1.93,0.41,3.96,0.01,5.9
						c-0.44,2.13-1.39,4.12-2.85,5.75c-0.19,0.22-0.42,0.71-0.2,0.98c0.23,0.28,0.59,0.02,0.77-0.18c2.83-3.16,4.08-7.59,3.62-11.75
						c-0.23-2.06-0.86-4.08-1.98-5.85c-0.65-1.03-1.42-1.99-2.13-2.99c-0.78-1.09-1.55-2.2-2.32-3.3c-1.72-2.47-3.43-4.95-5.22-7.38
						C44.52,134.62,43.6,135.84,43.96,136.33L43.96,136.33z"/>
				</g>
			</g>
			<g>
				<g>
					<path d="M48.92,134.01c3.19,3.6,6.99,6.81,9.6,10.88c2.6,4.05,3.49,9.07,2.91,13.8c-0.34,2.73-1.16,5.39-2.47,7.82
						c-0.13,0.24-0.3,0.72,0.02,0.89c0.3,0.17,0.67-0.21,0.79-0.43c2.45-4.53,3.42-9.78,2.72-14.88c-0.34-2.43-1.03-4.8-2.19-6.98
						c-1.12-2.1-2.63-3.95-4.23-5.7c-2.03-2.21-4.18-4.31-6.17-6.56C49.42,132.33,48.52,133.57,48.92,134.01L48.92,134.01z"/>
				</g>
			</g>
		</g>
		<g>
			<g>
				<g>
					<path d="M43.96,136.33c2.98,4.07,5.77,8.27,8.73,12.34c1.2,1.65,2.1,3.32,2.53,5.32c0.42,1.93,0.41,3.96,0.01,5.9
						c-0.44,2.13-1.39,4.12-2.85,5.75c-0.19,0.22-0.42,0.71-0.2,0.98c0.23,0.28,0.59,0.02,0.77-0.18c2.83-3.16,4.08-7.59,3.62-11.75
						c-0.23-2.06-0.86-4.08-1.98-5.85c-0.65-1.03-1.42-1.99-2.13-2.99c-0.78-1.09-1.55-2.2-2.32-3.3c-1.72-2.47-3.43-4.95-5.22-7.38
						C44.52,134.62,43.6,135.84,43.96,136.33L43.96,136.33z"/>
				</g>
			</g>
			<g>
				<g>
					<path d="M48.92,134.01c3.19,3.6,6.99,6.81,9.6,10.88c2.6,4.05,3.49,9.07,2.91,13.8c-0.34,2.73-1.16,5.39-2.47,7.82
						c-0.13,0.24-0.3,0.72,0.02,0.89c0.3,0.17,0.67-0.21,0.79-0.43c2.45-4.53,3.42-9.78,2.72-14.88c-0.34-2.43-1.03-4.8-2.19-6.98
						c-1.12-2.1-2.63-3.95-4.23-5.7c-2.03-2.21-4.18-4.31-6.17-6.56C49.42,132.33,48.52,133.57,48.92,134.01L48.92,134.01z"/>
				</g>
			</g>
		</g>
		<g>
			<g>
				<g>
					<path d="M43.96,136.33c2.98,4.07,5.77,8.27,8.73,12.34c1.2,1.65,2.1,3.32,2.53,5.32c0.42,1.93,0.41,3.96,0.01,5.9
						c-0.44,2.13-1.39,4.12-2.85,5.75c-0.19,0.22-0.42,0.71-0.2,0.98c0.23,0.28,0.59,0.02,0.77-0.18c2.83-3.16,4.08-7.59,3.62-11.75
						c-0.23-2.06-0.86-4.08-1.98-5.85c-0.65-1.03-1.42-1.99-2.13-2.99c-0.78-1.09-1.55-2.2-2.32-3.3c-1.72-2.47-3.43-4.95-5.22-7.38
						C44.52,134.62,43.6,135.84,43.96,136.33L43.96,136.33z"/>
				</g>
			</g>
			<g>
				<g>
					<path d="M48.92,134.01c3.19,3.6,6.99,6.81,9.6,10.88c2.6,4.05,3.49,9.07,2.91,13.8c-0.34,2.73-1.16,5.39-2.47,7.82
						c-0.13,0.24-0.3,0.72,0.02,0.89c0.3,0.17,0.67-0.21,0.79-0.43c2.45-4.53,3.42-9.78,2.72-14.88c-0.34-2.43-1.03-4.8-2.19-6.98
						c-1.12-2.1-2.63-3.95-4.23-5.7c-2.03-2.21-4.18-4.31-6.17-6.56C49.42,132.33,48.52,133.57,48.92,134.01L48.92,134.01z"/>
				</g>
			</g>
		</g>
		<g>
			<g>
				<g>
					<path d="M43.96,136.33c2.98,4.07,5.77,8.27,8.73,12.34c1.2,1.65,2.1,3.32,2.53,5.32c0.42,1.93,0.41,3.96,0.01,5.9
						c-0.44,2.13-1.39,4.12-2.85,5.75c-0.19,0.22-0.42,0.71-0.2,0.98c0.23,0.28,0.59,0.02,0.77-0.18c2.83-3.16,4.08-7.59,3.62-11.75
						c-0.23-2.06-0.86-4.08-1.98-5.85c-0.65-1.03-1.42-1.99-2.13-2.99c-0.78-1.09-1.55-2.2-2.32-3.3c-1.72-2.47-3.43-4.95-5.22-7.38
						C44.52,134.62,43.6,135.84,43.96,136.33L43.96,136.33z"/>
				</g>
			</g>
			<g>
				<g>
					<path d="M48.92,134.01c3.19,3.6,6.99,6.81,9.6,10.88c2.6,4.05,3.49,9.07,2.91,13.8c-0.34,2.73-1.16,5.39-2.47,7.82
						c-0.13,0.24-0.3,0.72,0.02,0.89c0.3,0.17,0.67-0.21,0.79-0.43c2.45-4.53,3.42-9.78,2.72-14.88c-0.34-2.43-1.03-4.8-2.19-6.98
						c-1.12-2.1-2.63-3.95-4.23-5.7c-2.03-2.21-4.18-4.31-6.17-6.56C49.42,132.33,48.52,133.57,48.92,134.01L48.92,134.01z"/>
				</g>
			</g>
		</g>
		<g>
			<g>
				<g>
					<path d="M43.96,136.33c2.98,4.07,5.77,8.27,8.73,12.34c1.2,1.65,2.1,3.32,2.53,5.32c0.42,1.93,0.41,3.96,0.01,5.9
						c-0.44,2.13-1.39,4.12-2.85,5.75c-0.19,0.22-0.42,0.71-0.2,0.98c0.23,0.28,0.59,0.02,0.77-0.18c2.83-3.16,4.08-7.59,3.62-11.75
						c-0.23-2.06-0.86-4.08-1.98-5.85c-0.65-1.03-1.42-1.99-2.13-2.99c-0.78-1.09-1.55-2.2-2.32-3.3c-1.72-2.47-3.43-4.95-5.22-7.38
						C44.52,134.62,43.6,135.84,43.96,136.33L43.96,136.33z"/>
				</g>
			</g>
			<g>
				<g>
					<path d="M48.92,134.01c3.19,3.6,6.99,6.81,9.6,10.88c2.6,4.05,3.49,9.07,2.91,13.8c-0.34,2.73-1.16,5.39-2.47,7.82
						c-0.13,0.24-0.3,0.72,0.02,0.89c0.3,0.17,0.67-0.21,0.79-0.43c2.45-4.53,3.42-9.78,2.72-14.88c-0.34-2.43-1.03-4.8-2.19-6.98
						c-1.12-2.1-2.63-3.95-4.23-5.7c-2.03-2.21-4.18-4.31-6.17-6.56C49.42,132.33,48.52,133.57,48.92,134.01L48.92,134.01z"/>
				</g>
			</g>
		</g>
		<g>
			<g>
				<g>
					<path d="M43.96,136.33c2.98,4.07,5.77,8.27,8.73,12.34c1.2,1.65,2.1,3.32,2.53,5.32c0.42,1.93,0.41,3.96,0.01,5.9
						c-0.44,2.13-1.39,4.12-2.85,5.75c-0.19,0.22-0.42,0.71-0.2,0.98c0.23,0.28,0.59,0.02,0.77-0.18c2.83-3.16,4.08-7.59,3.62-11.75
						c-0.23-2.06-0.86-4.08-1.98-5.85c-0.65-1.03-1.42-1.99-2.13-2.99c-0.78-1.09-1.55-2.2-2.32-3.3c-1.72-2.47-3.43-4.95-5.22-7.38
						C44.52,134.62,43.6,135.84,43.96,136.33L43.96,136.33z"/>
				</g>
			</g>
			<g>
				<g>
					<path d="M48.92,134.01c3.19,3.6,6.99,6.81,9.6,10.88c2.6,4.05,3.49,9.07,2.91,13.8c-0.34,2.73-1.16,5.39-2.47,7.82
						c-0.13,0.24-0.3,0.72,0.02,0.89c0.3,0.17,0.67-0.21,0.79-0.43c2.45-4.53,3.42-9.78,2.72-14.88c-0.34-2.43-1.03-4.8-2.19-6.98
						c-1.12-2.1-2.63-3.95-4.23-5.7c-2.03-2.21-4.18-4.31-6.17-6.56C49.42,132.33,48.52,133.57,48.92,134.01L48.92,134.01z"/>
				</g>
			</g>
		</g>
		<g>
			<g>
				<g>
					<path d="M108.84,137.8c-2.93,3.86-5.71,7.83-8.6,11.72c-2.29,3.08-2.98,7.1-2.12,10.8c0.48,2.05,1.46,3.99,2.9,5.54
						c0.44,0.47,1.25-0.66,0.88-1.06c-2.45-2.64-3.52-6.39-2.99-9.91c0.25-1.69,0.87-3.33,1.9-4.71c1.36-1.81,2.7-3.64,4.02-5.48
						c1.49-2.07,2.98-4.14,4.53-6.18c0.16-0.21,0.39-0.64,0.18-0.89C109.34,137.39,108.99,137.6,108.84,137.8L108.84,137.8z"/>
				</g>
			</g>
			<g>
				<g>
					<path d="M104.24,135.72c-3.13,3.42-6.87,6.43-9.33,10.39c-2.39,3.85-3.17,8.59-2.56,13.03c0.36,2.59,1.19,5.07,2.47,7.36
						c0.29,0.52,1.15-0.58,0.88-1.06c-2.16-3.86-2.99-8.43-2.27-12.78c0.34-2.07,1-4.08,2.09-5.89c1.04-1.73,2.39-3.25,3.78-4.7
						c1.81-1.88,3.7-3.68,5.47-5.61C105.25,135.91,104.87,135.03,104.24,135.72L104.24,135.72z"/>
				</g>
			</g>
		</g>
	</g>
	<g id="Ebene_24_Kopie_3">
		<g>
			<g>
				<path d="M129.72,161.61c-1.39-8.1-6.43-15.11-12.85-20.16c-7.3-5.74-16.37-8.75-25.48-10.31c-4.88-0.84-9.82-1.29-14.76-1.55
					c-4.89-0.25-9.81-0.26-14.69,0.24c-4.79,0.49-9.53,1.51-14,3.3c-4.12,1.66-7.92,3.98-11.37,6.76
					c-6.89,5.55-12.28,12.65-17.37,19.78c-0.64,0.89-1.27,1.79-1.9,2.68c-0.17,0.24-0.5,0.94,0.02,1.03
					c14.48,2.41,29.11,3.85,43.79,4.32c14.64,0.47,29.31-0.04,43.88-1.51c8.25-0.83,16.46-1.97,24.62-3.42
					c0.53-0.1,0.98-1.42,0.25-1.29c-14.48,2.57-29.14,4.17-43.84,4.78c-14.59,0.61-29.22,0.26-43.77-1.06
					c-8.18-0.74-16.33-1.79-24.43-3.14c0.01,0.34,0.01,0.68,0.02,1.03c4.98-7.05,10.05-14.18,16.48-20.03
					c3.17-2.88,6.66-5.42,10.51-7.35c4.25-2.13,8.86-3.44,13.56-4.17c4.75-0.74,9.58-0.9,14.38-0.78c4.83,0.13,9.68,0.49,14.47,1.12
					c9.23,1.23,18.54,3.7,26.31,8.92c6.69,4.49,12.31,11,14.51,18.78c0.27,0.94,0.48,1.9,0.65,2.87c0.06,0.34,0.47,0.22,0.65,0.07
					C129.63,162.32,129.77,161.94,129.72,161.61L129.72,161.61z"/>
			</g>
		</g>
		<g>
			<g>
				<path d="M70.45,147.46c2.26-2.37,4.12-5.07,6.38-7.44c-0.26,0.06-0.51,0.12-0.77,0.18c1.85,2.13,3.71,4.26,5.56,6.4
					c0.46,0.53,1.36-0.71,0.97-1.16c-1.85-2.13-3.71-4.26-5.56-6.4c-0.24-0.28-0.58-0.02-0.77,0.18c-2.26,2.37-4.12,5.07-6.38,7.44
					c-0.2,0.21-0.41,0.72-0.2,0.98C69.92,147.93,70.27,147.65,70.45,147.46L70.45,147.46z"/>
			</g>
		</g>
		<g>
			<g>
				<path d="M82.12,146.65c5.69-2.52,10.88-6.88,14.14-12.13c0.12-0.19,0.31-0.77-0.02-0.89c-2.2-0.84-4.39-1.68-6.59-2.51
					c-0.61-0.23-1.35,1.11-0.78,1.33c2.2,0.84,4.39,1.68,6.59,2.51c0-0.3-0.01-0.6-0.02-0.89c-3.06,4.94-8.02,8.97-13.36,11.33
					C81.55,145.63,81.27,147.02,82.12,146.65L82.12,146.65z"/>
			</g>
		</g>
		<g>
			<g>
				<path d="M64.18,130.17c-2.13,0.78-4.25,1.55-6.38,2.33c-0.41,0.15-0.83,0.7-0.67,1.15c2.08,6.03,6.5,11.19,12.27,14.08
					c0.57,0.29,1.34-1.05,0.78-1.33c-5.61-2.82-9.95-7.8-11.97-13.67c-0.22,0.38-0.45,0.76-0.67,1.15c2.13-0.78,4.25-1.55,6.38-2.33
					c0.35-0.13,0.61-0.46,0.68-0.83C64.64,130.48,64.54,130.04,64.18,130.17L64.18,130.17z"/>
			</g>
		</g>
	</g>
	<g id="Ebene_4">
		<g>
			<path class="st7" d="M120.35,68.35c0,3.66-2.31,7.41-6.59,7.71c-27.48,1.93-44.09,6.6-72.46,1c-3.91-0.77-5.97-5.21-5.91-8.62
				c0.1-5.83-0.39-5.46,0-9c1.43-12.9,0.86-19.45,6.31-31.19C46.93,17,60.24,7.49,74.46,7.49c23.74,0,47.5,9.95,45.9,49.07"/>
			<g>
				<path d="M119.88,68.61c-0.02,1.88-0.65,3.82-2.03,5.17c-1.74,1.69-4,1.69-6.28,1.87c-5.2,0.4-10.38,0.93-15.57,1.48
					c-9.41,1-18.83,2.03-28.31,2.01c-5.03-0.01-10.05-0.31-15.04-0.9c-2.81-0.33-5.61-0.75-8.4-1.25c-1.24-0.22-2.61-0.34-3.78-0.84
					c-0.88-0.37-1.65-0.94-2.28-1.64c-1.29-1.43-2.07-3.33-2.27-5.23c-0.12-1.08-0.03-2.18-0.04-3.27
					c-0.01-0.82-0.03-1.64-0.08-2.46c-0.19-3.52,0.36-6.99,0.67-10.5c0.38-4.26,0.7-8.53,1.56-12.72c0.92-4.46,2.45-8.9,4.54-12.96
					c4.05-7.85,11.5-14,19.82-17.08c4.22-1.57,8.61-2.25,13.1-2.19c3.08,0.05,6.15,0.27,9.2,0.71c5.92,0.86,11.75,2.58,16.91,5.6
					c5.32,3.12,9.67,7.57,12.65,12.93c3.8,6.82,5.3,14.68,5.63,22.39c0.1,2.37,0.09,4.73,0,7.1c-0.01,0.29,0.25,0.39,0.49,0.28
					c0.29-0.14,0.46-0.5,0.47-0.8c0.34-8.63-0.4-17.54-3.69-25.62c-2.46-6.03-6.38-11.38-11.67-15.29
					c-4.91-3.63-10.73-5.89-16.71-7.14c-3.09-0.65-6.23-1.03-9.39-1.22C75.4,6.8,71.44,6.83,67.53,7.67
					c-9.08,1.96-17.47,7.48-22.91,14.91c-2.78,3.8-4.68,8.17-6.11,12.61c-1.32,4.11-2.04,8.35-2.48,12.63
					c-0.24,2.29-0.42,4.58-0.63,6.86c-0.2,2.24-0.54,4.48-0.64,6.73c-0.05,1.2,0.07,2.4,0.12,3.59c0.08,2.06-0.17,4.16,0.31,6.18
					c0.45,1.88,1.4,3.7,2.88,4.99c1.86,1.63,4.48,1.79,6.83,2.19c5.38,0.92,10.81,1.54,16.27,1.81c9.74,0.47,19.45-0.3,29.13-1.3
					c5.13-0.53,10.26-1.1,15.4-1.57c1.44-0.13,2.88-0.26,4.32-0.37c1.37-0.11,2.77-0.14,4.13-0.33c2.03-0.28,3.81-1.46,4.97-3.1
					c1.12-1.58,1.68-3.48,1.7-5.41c0-0.29-0.24-0.39-0.49-0.28C120.07,67.95,119.88,68.31,119.88,68.61L119.88,68.61z"/>
			</g>
		</g>
	</g>
	<g id="Ebene_5_10_">
		<g>
			<path class="st8" d="M87.17,114.36c0.45,4.87,0.89,9.74,1.34,14.61c0.16,1.76,0.3,3.62-0.48,5.19c-1.31,2.61-4.57,3.42-7.45,3.84
				c-4.23,0.62-9.15,0.78-12.08-2.33c-2.5-2.66-2.61-6.77-2.06-10.39c0.55-3.62,1.61-7.29,0.89-10.88
				c6.41,1.11,13.02,1.12,19.43,0.02"/>
			<g>
				<path class="st8" d="M86.66,114.65c0.44,4.79,0.88,9.59,1.32,14.38c0.17,1.87,0.48,4.12-0.81,5.7c-1.07,1.31-2.82,1.9-4.43,2.27
					c-1.75,0.41-3.58,0.63-5.38,0.71c-1.8,0.07-3.68-0.03-5.39-0.65c-1.7-0.61-3.13-1.73-4.04-3.28c-0.92-1.58-1.22-3.44-1.24-5.24
					c-0.06-4.9,2.08-9.63,1.14-14.55c-0.25,0.36-0.5,0.71-0.75,1.07c6.47,1.11,13.09,1.11,19.56,0.01c0.53-0.09,0.97-1.4,0.24-1.27
					c-6.39,1.08-12.92,1.06-19.31-0.03c-0.49-0.08-0.82,0.7-0.75,1.07c0.89,4.67-1.14,9.26-1.18,13.92c-0.03,3.79,1.3,7.7,5.06,9.33
					c3.46,1.5,7.7,1.04,11.29,0.31c1.75-0.36,3.55-0.95,4.92-2.13c1.57-1.36,2.21-3.28,2.24-5.29c0.02-1.29-0.15-2.58-0.27-3.87
					c-0.13-1.45-0.27-2.89-0.4-4.34c-0.27-2.89-0.53-5.78-0.8-8.68C87.61,113.24,86.61,114.1,86.66,114.65L86.66,114.65z"/>
			</g>
		</g>
	</g>
	<g id="Ebene_3_4_">
		<g>
			<path class="st8" d="M116.32,57.2c4.55-1.65,10.08-0.03,13.03,3.83c2.96,3.85,3.12,9.64,0.38,13.66
				c-2.74,4.01-8.17,5.94-12.8,4.55c-2.81,7.46-6.37,14.73-11.43,20.88c-5.05,6.15-11.7,11.16-19.34,13.31
				c-10.65,3.01-25.95-0.16-32.45-5.21c-6.58-5.12-15.64-28.91-15.64-28.91s-10.39,0.23-13.25-3.69
				c-2.86-3.92-2.66-11.86,0.61-15.43c2.38-2.59,7.82-3.35,13.57-2.72c2.04-4.78,2.72-8.65,2.98-13.34
				c31.47-35.54,67.93-1.38,67.93-1.38s0.38,12.34,6.09,14.6"/>
			<g>
				<path class="st8" d="M116.2,57.84c5.21-1.84,11.38,0.57,13.81,5.49c1.22,2.46,1.48,5.39,0.78,8.04
					c-0.7,2.64-2.46,4.83-4.86,6.18c-2.64,1.49-5.83,1.9-8.75,1.05c-0.3-0.09-0.62,0.4-0.7,0.61c-3.53,9.34-8.28,18.55-15.82,25.38
					c-3.5,3.17-7.56,5.82-12.04,7.46c-4.13,1.52-8.51,2.03-12.9,1.9c-4.39-0.13-8.79-0.84-12.98-2.14c-1.87-0.58-3.7-1.29-5.44-2.17
					c-1.31-0.67-2.64-1.44-3.73-2.43c-1.97-1.79-3.43-4.16-4.77-6.42c-1.71-2.86-3.21-5.84-4.64-8.85c-1.99-4.2-3.83-8.48-5.5-12.81
					c-0.03-0.07-0.06-0.15-0.08-0.22c-0.04-0.1-0.12-0.23-0.25-0.22c-1.52,0.03-3.06-0.07-4.57-0.25c-2.51-0.29-5.29-0.77-7.38-2.27
					c-2.37-1.69-2.99-5.18-3.03-7.87c-0.04-2.8,0.56-6.37,2.92-8.23c1.47-1.16,3.46-1.65,5.29-1.91c2.38-0.35,4.82-0.28,7.21-0.02
					c0.33,0.04,0.6-0.35,0.7-0.61c1.85-4.39,2.78-8.93,3.05-13.66c-0.08,0.22-0.17,0.43-0.25,0.65
					c6.29-7.08,14.25-12.87,23.69-14.98c7.13-1.59,14.59-0.96,21.52,1.23c5.62,1.77,10.93,4.47,15.79,7.75
					c1.57,1.06,3.1,2.18,4.56,3.37c0.43,0.35,0.85,0.7,1.26,1.06c0.12,0.1,0.23,0.2,0.35,0.31c-0.16-0.14,0.05,0.02,0.06,0.05
					c-0.06-0.57-0.06-0.01-0.05,0.11c0.02,0.38,0.05,0.76,0.09,1.14c0.12,1.31,0.3,2.61,0.56,3.9c0.58,2.93,1.53,6.29,3.83,8.39
					c0.52,0.48,1.1,0.87,1.75,1.14c0.56,0.23,1.24-1.01,0.72-1.23c-3.2-1.31-4.43-5.26-5.12-8.3c-0.32-1.42-0.55-2.87-0.69-4.32
					c-0.04-0.43-0.08-0.86-0.1-1.29c-0.01-0.19,0.01-0.45-0.09-0.62c-0.12-0.2-0.41-0.38-0.59-0.53c-0.47-0.41-0.95-0.81-1.43-1.2
					c-1.7-1.37-3.48-2.64-5.31-3.83c-5.59-3.64-11.75-6.52-18.27-8.09c-8.06-1.95-16.57-1.62-24.3,1.44c-4.76,1.89-9.1,4.67-12.94,8
					c-1.11,0.96-2.18,1.96-3.21,3c-0.53,0.54-1.06,1.08-1.57,1.64c-0.48,0.51-1.17,1.04-1.26,1.77c-0.19,1.46-0.21,2.93-0.43,4.39
					c-0.21,1.41-0.51,2.81-0.9,4.19c-0.43,1.51-0.98,2.99-1.59,4.44c0.23-0.2,0.47-0.4,0.7-0.61c-3.94-0.42-8.57-0.48-12.14,1.49
					c-2.98,1.65-4.31,5.05-4.68,8.25c-0.37,3.19-0.02,6.97,1.98,9.63c1.61,2.14,4.72,2.86,7.23,3.29c2.03,0.34,4.12,0.52,6.18,0.47
					c-0.08-0.08-0.17-0.15-0.25-0.22c1.45,3.81,3.07,7.57,4.77,11.28c1.42,3.1,2.92,6.17,4.59,9.14c1.43,2.54,2.96,5.13,4.95,7.29
					c2.12,2.31,5.09,3.74,8,4.83c4.1,1.54,8.47,2.44,12.84,2.8c4.38,0.36,8.91,0.19,13.16-0.98c4.62-1.27,8.9-3.6,12.65-6.53
					c8.12-6.34,13.52-15.35,17.41-24.68c0.5-1.2,0.97-2.4,1.43-3.62c-0.23,0.2-0.47,0.4-0.7,0.61c5.83,1.7,12.24-1.6,14.54-7.05
					c2.38-5.64,0.35-12.62-5.26-15.52c-2.91-1.51-6.41-1.84-9.52-0.74c-0.32,0.11-0.57,0.43-0.63,0.76
					C115.78,57.55,115.87,57.95,116.2,57.84L116.2,57.84z"/>
			</g>
		</g>
	</g>
	<g id="Ebene_2_7_">
		<g>
			<g>
				<path d="M115.6,57.82c5.12-2.24,11.55-0.12,14.3,4.67c1.4,2.43,1.86,5.4,1.31,8.13c-0.53,2.65-2.11,4.97-4.38,6.48
					c-2.58,1.72-5.8,2.38-8.85,1.71c-0.53-0.12-1.14,1.15-0.49,1.29c6.05,1.34,12.46-2.49,14.34-8.25
					c1.91-5.85-0.57-12.67-6.45-15.19c-3.12-1.33-6.68-1.37-9.79-0.01C115.08,56.87,114.82,58.16,115.6,57.82L115.6,57.82z"/>
			</g>
		</g>
		<g>
			<g>
				<path d="M39.39,56.83c-3.26-0.36-6.69-0.72-9.87,0.33c-2.76,0.91-5.03,2.77-6.13,5.46c-1.12,2.72-1.23,6.02-0.8,8.9
					c0.44,2.92,1.87,5.47,4.51,6.97c3.25,1.85,7.1,1.78,10.73,1.66c0.56-0.02,1.1-1.31,0.49-1.29c-3.03,0.1-6.22,0.21-9.09-0.92
					c-2.59-1.02-4.52-2.93-5.3-5.6c-0.74-2.56-0.71-5.55-0.12-8.14c0.61-2.67,2.37-4.59,4.95-5.59c3.23-1.25,6.77-0.85,10.13-0.49
					C39.45,58.19,40.02,56.9,39.39,56.83L39.39,56.83z"/>
			</g>
		</g>
		<g>
			<g>
				<path d="M117.29,79.41c-2.28,7.13-5.87,13.89-10.67,19.68c-4.7,5.67-10.66,10.48-17.63,13.13c-6.76,2.57-14.27,3.22-21.36,1.72
					c-3.54-0.75-6.97-2.05-10.06-3.91c-3.22-1.93-6.01-4.46-8.37-7.34c-4.95-6.05-7.92-13.42-9.92-20.87
					c-0.24-0.91-0.47-1.83-0.69-2.75c-0.08-0.33-0.45-0.22-0.64-0.07c-0.26,0.2-0.43,0.59-0.36,0.91c1.83,7.68,4.54,15.36,9.2,21.85
					c2.24,3.12,4.95,5.96,8.1,8.2c2.99,2.12,6.36,3.67,9.89,4.67c7.11,2.03,14.86,1.78,21.9-0.43c7.28-2.29,13.59-6.78,18.68-12.32
					c5.23-5.69,9.24-12.49,11.92-19.69c0.33-0.9,0.64-1.8,0.93-2.71C118.48,78.61,117.51,78.71,117.29,79.41L117.29,79.41z"/>
			</g>
		</g>
		<g>
			<g>
				<path d="M116.04,56.7c-1.27-1.28-2.09-2.98-2.77-4.62c-0.77-1.85-1.37-3.76-1.89-5.69c-0.33-1.23-0.63-2.48-0.89-3.73
					c-0.06-0.29-0.09-0.42-0.31-0.62c-2.7-2.46-5.7-4.61-8.8-6.55c-5.67-3.56-11.9-6.38-18.48-7.82c-7.88-1.73-16.1-1.2-23.54,1.98
					c-4.53,1.93-8.63,4.76-12.23,8.07c-1.04,0.95-2.03,1.95-3,2.97c-0.51,0.54-1.01,1.09-1.49,1.65c-0.46,0.52-1.16,1.11-1.4,1.76
					c-0.13,0.34-0.09,0.77-0.12,1.13c-0.03,0.35-0.06,0.71-0.09,1.06c-0.07,0.76-0.16,1.51-0.27,2.27
					c-0.22,1.52-0.49,3.04-0.86,4.53c-0.36,1.47-0.8,2.92-1.35,4.33c-0.09,0.23-0.12,0.64,0.21,0.69c0.32,0.05,0.61-0.36,0.7-0.61
					c1.69-4.35,2.46-9.02,2.75-13.65c-0.08,0.22-0.17,0.43-0.25,0.65c5.81-7.05,13.26-12.98,22.29-15.36
					c6.91-1.82,14.18-1.41,21.01,0.54c5.76,1.64,11.2,4.31,16.2,7.54c2.75,1.78,5.42,3.73,7.85,5.91c0.09,0.08-0.09-0.04,0.04,0.04
					c0.03,0.02,0.06,0.06,0.09,0.08c0.04,0.04-0.02-0.17,0,0.06c0.09,0.95,0.42,1.94,0.65,2.86c0.84,3.35,1.86,6.83,3.68,9.81
					c0.39,0.64,0.83,1.25,1.36,1.78C115.61,58.23,116.42,57.09,116.04,56.7L116.04,56.7z"/>
			</g>
		</g>
		<g>
			<g>
				<path d="M86.92,114.51c0.43,4.48,0.87,8.95,1.3,13.43c0.19,1.92,0.72,4.26-0.23,6.06c-0.81,1.54-2.49,2.5-4.06,3.16
					c-3.72,1.57-8.11,1.86-11.93,0.46c-1.61-0.59-3.15-1.5-4.29-2.77c-1.33-1.49-1.85-3.3-1.84-5.26c0.01-2.44,0.49-4.89,0.8-7.3
					c0.32-2.52,0.65-5.05,0.97-7.57c0.12-0.92-0.93-0.36-1.01,0.25c-0.31,2.41-0.62,4.82-0.93,7.23c-0.3,2.33-0.69,4.66-0.84,7
					c-0.13,2.06,0.12,4.16,1.32,5.91c1.03,1.5,2.57,2.62,4.22,3.37c3.88,1.76,8.49,1.7,12.46,0.27c1.82-0.65,3.58-1.56,4.9-2.98
					c1.44-1.56,1.86-3.53,1.74-5.58c-0.16-2.69-0.5-5.38-0.76-8.06c-0.26-2.73-0.53-5.46-0.79-8.19
					C87.88,113.11,86.87,113.97,86.92,114.51L86.92,114.51z"/>
			</g>
		</g>
		<g>
			<g>
				<path d="M89.14,89.25c-2.39,3.04-5.49,5.71-9.44,6.41c-3.41,0.61-6.83-0.45-9.74-2.19c-1.96-1.17-3.73-2.64-5.34-4.25
					c-0.62-0.62-1.7,0.92-1.19,1.43c2.85,2.85,6.2,5.37,10.17,6.44c3.6,0.97,7.37,0.35,10.53-1.59c2.23-1.37,4.1-3.23,5.7-5.27
					c0.23-0.29,0.51-0.86,0.24-1.21C89.82,88.68,89.34,89,89.14,89.25L89.14,89.25z"/>
			</g>
		</g>
		<g>
			<g>
				<path d="M79.3,67.5c-1.25-1.01-3.02-1.13-4.46-0.44c-1.46,0.7-2.36,2.24-2.5,3.8c-0.13,1.52,0.48,3.06,1.84,3.88
					c1.33,0.8,3.06,0.79,4.38-0.02c0.28-0.17,0.53-0.52,0.51-0.87c-0.02-0.29-0.25-0.47-0.53-0.3c-2.2,1.35-5.15-0.24-5.18-2.79
					c-0.03-2.75,3.27-3.62,5.22-2.04C79.01,69.07,79.77,67.88,79.3,67.5L79.3,67.5z"/>
			</g>
		</g>
		<g>
			<path d="M85.41,57.28c0.2-0.91-0.03-1.86-0.2-2.77c-0.17-0.92-0.28-1.91,0.13-2.75s1.54-1.37,2.31-0.84
				c0.81,0.56,0.69,1.76,0.76,2.75c0.05,0.79,0.27,1.55,0.39,2.33c0.12,0.78,0.12,1.61-0.23,2.31c-0.35,0.7-1.15,1.23-1.91,1.05
				s-1.25-1.21-0.76-1.82"/>
			<g>
				<path d="M85.91,57.15c0.15-0.82,0.06-1.62-0.09-2.43c-0.14-0.76-0.36-1.56-0.23-2.34c0.11-0.62,0.59-1.12,1.28-1.02
					c0.67,0.1,0.89,0.79,0.95,1.36c0.07,0.67,0.05,1.33,0.15,1.99c0.13,0.81,0.37,1.61,0.37,2.44c0,0.71-0.27,1.53-1.12,1.58
					c-0.4,0.02-1.29-0.52-0.96-0.99c0.14-0.2,0.26-0.67-0.01-0.82c-0.29-0.17-0.6,0.2-0.73,0.4c-0.78,1.15-0.04,2.93,1.5,2.69
					c1.84-0.29,2.49-2.44,2.33-4.01c-0.1-0.96-0.4-1.89-0.44-2.86c-0.03-0.71,0-1.48-0.32-2.14c-0.72-1.49-2.54-0.94-3.36,0.14
					c-0.6,0.78-0.75,1.8-0.67,2.75c0.1,1.17,0.57,2.34,0.35,3.52c-0.05,0.27,0.06,0.57,0.38,0.51
					C85.61,57.86,85.86,57.44,85.91,57.15L85.91,57.15z"/>
			</g>
		</g>
		<g>
			<path d="M67.17,55.75c-0.41-0.89-0.82-1.84-0.71-2.82c0.11-0.98,0.97-1.93,1.94-1.77c1.04,0.18,1.48,1.44,1.62,2.5
				c0.15,1.13,0.18,2.28,0.11,3.42c-0.05,0.82-0.28,1.79-1.05,2.05c-0.68,0.23-1.42-0.27-1.73-0.92c-0.3-0.65-0.27-1.4-0.23-2.12"/>
			<g>
				<path d="M67.67,55.33c-0.38-0.83-1.49-3.25,0.14-3.52c1.23-0.21,1.62,1.51,1.72,2.37c0.09,0.76,0.13,1.52,0.12,2.28
					c-0.01,0.52,0.08,1.41-0.26,1.87c-0.38,0.52-1.15,0.03-1.42-0.36c-0.44-0.62-0.36-1.44-0.33-2.16c0.02-0.32-0.27-0.42-0.53-0.3
					c-0.31,0.15-0.49,0.54-0.51,0.87c-0.06,1.29,0.12,3.46,1.91,3.46c1.53,0,2.05-1.85,2.13-3.04c0.11-1.59,0.16-3.52-0.53-5
					c-0.59-1.28-1.97-1.7-3.08-0.72c-1.59,1.4-1.12,3.41-0.36,5.1C66.98,56.85,67.89,55.82,67.67,55.33L67.67,55.33z"/>
			</g>
		</g>
		<g>
			<g>
				<path d="M69.8,45.7c-3.08-0.1-6,1.3-7.94,3.63c-0.17,0.21-0.39,0.65-0.18,0.9c0.21,0.25,0.55,0.02,0.71-0.17
					c1.68-2.03,4.27-3.16,6.92-3.08C69.87,47.01,70.42,45.72,69.8,45.7L69.8,45.7z"/>
			</g>
		</g>
		<g>
			<g>
				<path d="M93.11,49.08c-1.96-2.25-4.98-3.34-7.95-2.85c-0.53,0.09-0.97,1.39-0.24,1.27c2.71-0.45,5.52,0.6,7.3,2.64
					C92.64,50.63,93.47,49.49,93.11,49.08L93.11,49.08z"/>
			</g>
		</g>
		<g>
			<g>
				<path d="M35.51,60.23c-4.43,0.67-7.8,4.66-8.18,8.97c-0.03,0.32,0.28,0.42,0.53,0.3c0.32-0.16,0.48-0.54,0.51-0.87
					c0.32-3.6,3.32-6.59,6.9-7.13C35.8,61.42,36.25,60.12,35.51,60.23L35.51,60.23z"/>
			</g>
		</g>
		<g>
			<g>
				<path d="M120.11,60.32c4.1,0.54,7.39,4.64,6.95,8.71c-0.1,0.92,0.94,0.36,1.01-0.25c0.48-4.52-2.78-9.13-7.46-9.75
					C120.05,58.96,119.47,60.24,120.11,60.32L120.11,60.32z"/>
			</g>
		</g>
	</g>
	<g id="Ebene_8_8_">
		<ellipse class="st9" cx="86.31" cy="52.56" rx="0.64" ry="0.64"/>
		<ellipse class="st9" cx="67.69" cy="53.11" rx="0.62" ry="0.62"/>
	</g>
	<g id="Ebene_30_2_">
		<g>
			<path class="st7" d="M114.36,44.48c-3.3-11.21-7.37-20.1-15.37-28.29S80.1,2.55,68.92,2.74s-22.43,6.56-27.52,17
				c-2.36,4.84-2.17,10.96,0.49,15.63s8.02,9.63,12.89,7.85c18.32-6.69,39.35-6.14,59.44,1.25"/>
			<g>
				<path d="M114.97,43.97c-1.74-5.91-3.86-11.74-6.92-17.12c-3.05-5.37-7.02-10.26-11.72-14.31C91.49,8.36,85.8,5.12,79.6,3.35
					c-5.8-1.66-11.99-1.9-17.85-0.39c-5.6,1.44-10.85,4.35-14.93,8.4c-4.31,4.28-7.7,9.85-7.71,16.04c0,3.12,0.8,6.22,2.4,8.92
					c1.53,2.57,3.63,4.99,6.21,6.58c1.16,0.72,2.47,1.27,3.84,1.43c1.52,0.18,2.81-0.26,4.22-0.75c3.27-1.13,6.63-2.04,10.02-2.71
					c6.94-1.38,14.05-1.8,21.11-1.37c7.32,0.45,14.57,1.81,21.58,3.94c1.78,0.54,3.53,1.14,5.28,1.78c0.69,0.25,1.51-1.26,0.88-1.49
					c-13.27-4.86-27.57-7.01-41.68-5.46c-3.36,0.37-6.7,0.95-9.99,1.74c-1.6,0.39-3.19,0.83-4.76,1.32
					c-0.78,0.25-1.56,0.5-2.34,0.77c-0.73,0.25-1.45,0.55-2.22,0.66c-2.8,0.38-5.52-1.37-7.45-3.19c-2.16-2.04-3.99-4.61-4.95-7.42
					c-0.99-2.9-1.17-6.06-0.49-9.05c0.63-2.79,2.13-5.37,3.86-7.64c3.38-4.43,8.08-7.83,13.31-9.83c5.46-2.08,11.35-2.58,17.11-1.59
					c6.18,1.06,12,3.74,17.06,7.37c5.01,3.6,9.3,8.18,12.7,13.28c3.29,4.91,5.67,10.33,7.54,15.9c0.49,1.46,0.95,2.93,1.38,4.41
					C114,45.83,115.15,44.59,114.97,43.97L114.97,43.97z"/>
			</g>
		</g>
	</g>
	<g id="Ebene_14_3_">
		<g class="st10">
			<path d="M26.38,59.34c-3.47,3.88-4.08,10.08-1.43,14.57c2.65,4.49,8.35,6.92,13.4,5.71c-4.15-1.33-7.76-4.3-9.88-8.13
				c-2.12-3.83-2.74-8.47-1.69-12.73"/>
			<g>
				<path d="M26.09,58.95c-2.89,3.27-3.98,7.92-3,12.13c0.96,4.14,4.13,7.47,8.19,8.85c2.24,0.76,4.62,0.92,6.93,0.39
					c0.35-0.08,1.1-1.16,0.52-1.35c-6.38-2.09-11.06-7.77-11.79-14.37c-0.22-2-0.09-4,0.38-5.96c0.07-0.29-0.07-0.61-0.41-0.55
					c-0.36,0.06-0.6,0.51-0.68,0.83c-1.68,6.97,0.89,14.48,6.73,18.81c1.51,1.12,3.2,1.99,4.99,2.58c0.17-0.45,0.35-0.9,0.52-1.35
					c-3.76,0.87-7.82-0.28-10.7-2.78c-3.02-2.62-4.36-6.67-3.78-10.56c0.32-2.16,1.21-4.19,2.67-5.84c0.19-0.22,0.42-0.71,0.2-0.98
					C26.63,58.49,26.27,58.75,26.09,58.95L26.09,58.95z"/>
			</g>
		</g>
		<g class="st10">
			<path d="M39.4,33.73c-2.64,6.94-3.89,14.42-3.67,21.85c0.03,0.97,0.97,1.82,1.93,1.75c0.96-0.07,1.76-1.05,1.65-2.02
				c-0.86-7.17-0.56-14.48,0.87-21.56"/>
			<g>
				<path d="M38.91,33.68c-2.47,6.54-3.76,13.49-3.76,20.47c0,1.41-0.15,3.17,1.5,3.76c1.33,0.47,2.61-0.58,3.06-1.77
					c0.25-0.68,0.14-1.33,0.07-2.03c-0.1-0.96-0.18-1.93-0.24-2.89c-0.11-1.78-0.15-3.57-0.13-5.36c0.07-4.11,0.52-8.21,1.33-12.25
					c0.06-0.29-0.07-0.61-0.41-0.55c-0.36,0.06-0.61,0.51-0.68,0.83c-1.28,6.34-1.67,12.84-1.14,19.28
					c0.06,0.78,0.16,1.55,0.24,2.33c0.06,0.63-0.26,1.12-0.97,1.12c-0.56,0-1.09-0.39-1.34-0.86c-0.32-0.62-0.16-1.65-0.16-2.33
					c0.01-3.16,0.29-6.31,0.83-9.42c0.61-3.49,1.55-6.92,2.8-10.24c0.1-0.25,0.13-0.69-0.23-0.75C39.32,32.97,39,33.42,38.91,33.68
					L38.91,33.68z"/>
			</g>
		</g>
		<g class="st10">
			<path d="M41.23,20.11c-2.18,5.91-0.72,13.01,3.61,17.57s11.31,6.35,17.28,4.43c16.72-5.38,35.26-4.84,51.64,1.5
				c-5.79-6.3-14.17-9.54-22.5-11.37s-16.91-2.43-25.17-4.55s-16.48-6-21.57-12.87"/>
			<g>
				<path d="M40.74,20.06c-1.83,5.05-1.26,10.81,1.52,15.42c2.77,4.6,7.81,7.56,13.19,8.02c1.33,0.11,2.66,0.07,3.98-0.12
					c1.43-0.21,2.78-0.68,4.16-1.09c3.08-0.92,6.22-1.63,9.4-2.15c6.37-1.04,12.87-1.28,19.31-0.72c7.21,0.63,14.33,2.25,21.07,4.85
					c0.53,0.2,1.26-0.82,0.87-1.24c-6.66-7.2-16.37-10.35-25.82-12.12c-10.44-1.95-21.35-2.56-31.1-7.09
					c-4.79-2.23-9.16-5.35-12.32-9.58c-0.41-0.55-1.33,0.68-0.97,1.16c5.73,7.68,15.04,11.54,24.21,13.57
					c10.5,2.33,21.48,2.69,31.59,6.56c5.03,1.93,9.78,4.7,13.44,8.66c0.29-0.41,0.58-0.83,0.87-1.24
					c-11.71-4.51-24.46-6.12-36.94-4.72c-3.13,0.35-6.23,0.89-9.29,1.61c-1.53,0.36-3.05,0.78-4.56,1.23
					c-1.33,0.4-2.62,0.81-4.01,0.98c-5.27,0.65-10.87-1.39-14.37-5.34c-3.94-4.43-5.26-11-3.25-16.56c0.09-0.25,0.13-0.69-0.23-0.75
					C41.16,19.35,40.84,19.8,40.74,20.06L40.74,20.06z"/>
			</g>
		</g>
		<g class="st10">
			<path d="M112.24,45.27c1.14,4.13,3.93,7.78,7.61,9.95c-1.31,1.34-3.66,1.13-5.1-0.07s-2.12-3.09-2.4-4.95
				c-0.28-1.86-0.24-3.76-0.56-5.61"/>
			<g>
				<path d="M111.7,45.73c1.19,4.2,3.97,7.89,7.76,10.16c0.08-0.4,0.16-0.8,0.24-1.2c-0.82,0.8-2.04,0.91-3.11,0.58
					c-1.24-0.37-2.15-1.33-2.75-2.43c-1.43-2.64-1.04-5.83-1.51-8.7c-0.06-0.37-0.5-0.23-0.69-0.08c-0.29,0.23-0.45,0.63-0.39,0.99
					c0.53,3.19,0.06,6.74,2,9.55c1.48,2.15,4.69,3.14,6.76,1.15c0.24-0.23,0.68-0.93,0.24-1.2c-3.64-2.18-6.31-5.7-7.45-9.74
					C112.57,44.07,111.54,45.18,111.7,45.73L111.7,45.73z"/>
			</g>
		</g>
		<g class="st10">
			<path d="M38.28,80.33c3.91,12.45,13.72,22.89,25.86,27.5s26.36,3.3,37.47-3.46c-9.35,9.15-23.82,12.61-36.26,8.68
				c-12.45-3.94-22.34-15.1-24.81-27.99"/>
			<g>
				<path d="M37.74,80.79c2.93,9.26,9.04,17.46,17.11,23.02c8.61,5.93,19.22,8.38,29.63,7.1c6.06-0.75,11.95-2.76,17.15-5.9
					c-0.05-0.39-0.11-0.78-0.16-1.17c-7.4,7.21-18.02,10.87-28.37,9.98c-10.05-0.86-19.16-6.25-25.19-14.15
					c-3.39-4.44-5.77-9.6-6.83-15.07c-0.07-0.36-0.49-0.23-0.69-0.08c-0.29,0.23-0.46,0.63-0.39,0.99
					c1.92,9.9,8.14,18.85,16.72,24.32c8.83,5.63,19.83,6.92,29.86,3.91c5.69-1.71,10.96-4.72,15.2-8.85
					c0.23-0.23,0.47-0.57,0.4-0.92c-0.06-0.28-0.29-0.41-0.56-0.25c-9.08,5.49-20.2,7.36-30.63,5.27c-9.67-1.94-18.35-7.43-24.5-15
					c-3.42-4.2-6.04-9-7.66-14.14C38.58,79.13,37.56,80.24,37.74,80.79L37.74,80.79z"/>
			</g>
		</g>
		<g class="st10">
			<path d="M66.73,126.23c7.58-2.72,14.72-6.68,21.05-11.67c-6.84,1.09-13.79,1.48-20.71,1.17c-0.27,3.48-0.55,6.97-0.82,10.45"/>
			<g>
				<path d="M66.6,126.92c7.71-2.78,14.92-6.78,21.34-11.83c0.3-0.24,0.73-1.34-0.02-1.22c-6.8,1.08-13.69,1.46-20.57,1.16
					c-0.51-0.02-0.8,0.6-0.83,1.01c-0.27,3.48-0.55,6.97-0.82,10.45c-0.03,0.35,0.3,0.46,0.57,0.33c0.35-0.17,0.52-0.59,0.55-0.94
					c0.27-3.48,0.55-6.97,0.82-10.45c-0.28,0.34-0.55,0.67-0.83,1.01c6.97,0.3,13.96-0.1,20.84-1.19c-0.01-0.41-0.01-0.82-0.02-1.22
					c-6.24,4.91-13.27,8.81-20.77,11.52c-0.35,0.13-0.61,0.46-0.68,0.83C66.14,126.61,66.24,127.05,66.6,126.92L66.6,126.92z"/>
			</g>
		</g>
		<g class="st10">
			<path d="M26.6,151.31c7.35,8.04,17.63,13.32,28.41,14.61c-12.14,1.34-24.16-3.34-36.38-3.58c2.63-3.65,5.25-7.3,7.88-10.95"/>
			<g>
				<path d="M26.12,151.89c5.77,6.29,13.27,10.92,21.53,13.29c2.32,0.67,4.7,1.15,7.1,1.44c0.13-0.46,0.27-0.93,0.4-1.39
					c-9.5,1.02-18.86-1.6-28.2-2.9c-2.67-0.37-5.35-0.63-8.05-0.69c0.01,0.37,0.01,0.73,0.02,1.1c2.63-3.65,5.25-7.3,7.88-10.95
					c0.17-0.24,0.43-0.7,0.2-0.98c-0.22-0.27-0.61-0.04-0.77,0.18c-2.63,3.65-5.25,7.3-7.88,10.95c-0.14,0.2-0.55,1.09,0.02,1.1
					c9.65,0.21,18.97,3.11,28.59,3.71c2.64,0.17,5.29,0.14,7.93-0.15c0.48-0.05,1.08-1.31,0.4-1.39c-8.35-1.01-16.33-4.39-22.9-9.57
					c-1.9-1.5-3.67-3.14-5.3-4.92C26.61,150.21,25.72,151.45,26.12,151.89L26.12,151.89z"/>
			</g>
		</g>
		<g class="st10">
			<path d="M43.69,142.4c0.4,0.98,0.8,1.96,1.2,2.95c-0.89,0.33-2.01-0.2-2.33-1.1c-0.32-0.9,0.21-2.02,1.11-2.33"/>
			<g>
				<path d="M43.15,142.86c0.4,0.98,0.8,1.96,1.2,2.95c0.22-0.38,0.45-0.76,0.67-1.15c-0.67,0.21-1.44-0.05-1.81-0.65
					c-0.36-0.59-0.16-1.2,0.47-1.46c0.56-0.23,0.83-1.62-0.02-1.27c-1.19,0.49-1.98,1.97-1.69,3.21c0.28,1.21,1.6,1.92,2.79,1.55
					c0.4-0.12,0.85-0.72,0.67-1.15c-0.4-0.98-0.8-1.96-1.2-2.95C43.93,141.21,42.93,142.33,43.15,142.86L43.15,142.86z"/>
			</g>
		</g>
		<g class="st10">
			<path d="M48.68,151.01c0.48,0.93,0.95,1.87,1.43,2.8c-0.88,0.26-1.92-0.29-2.22-1.16s0.19-1.95,1.05-2.29"/>
			<g>
				<path d="M48.19,151.59c0.48,0.93,0.95,1.87,1.43,2.8c0.2-0.42,0.41-0.85,0.61-1.27c-0.65,0.16-1.36-0.13-1.7-0.71
					c-0.33-0.56-0.18-1.15,0.41-1.42c0.54-0.25,0.82-1.65-0.02-1.27c-1.14,0.52-1.9,1.93-1.64,3.15c0.26,1.2,1.5,1.9,2.69,1.62
					c0.49-0.12,0.84-0.83,0.61-1.27c-0.48-0.93-0.95-1.87-1.43-2.8c-0.17-0.32-0.63,0.02-0.77,0.18
					C48.16,150.87,48.03,151.27,48.19,151.59L48.19,151.59z"/>
			</g>
		</g>
		<g class="st10">
			<path d="M49.67,160.79c0.53,0.87,1.06,1.75,1.6,2.62c-0.8,0.17-1.68-0.26-2.03-1c-0.35-0.74-0.13-1.71,0.5-2.22"/>
			<g>
				<path d="M49.19,161.37c0.53,0.87,1.06,1.75,1.6,2.62c0.2-0.42,0.41-0.85,0.61-1.27c-0.57,0.1-1.17-0.15-1.52-0.61
					c-0.29-0.4-0.4-1.03,0.01-1.39c0.25-0.22,0.51-0.65,0.39-0.99c-0.11-0.33-0.47-0.27-0.69-0.08c-0.83,0.75-1.33,1.97-0.95,3.06
					c0.36,1.04,1.44,1.56,2.5,1.38c0.47-0.08,0.86-0.86,0.61-1.27c-0.53-0.87-1.06-1.75-1.6-2.62
					C49.81,159.65,48.88,160.85,49.19,161.37L49.19,161.37z"/>
			</g>
		</g>
		<g class="st10">
			<path d="M52.87,132.85c4.59,12.87,12.02,24.7,21.59,34.4c-4.74-0.32-9.49-0.64-14.23-0.95c2.43-5.69,2.72-12.28,0.81-18.17
				c-1.92-5.89-6.02-11.03-11.33-14.18c0.7-0.41,1.4-0.83,2.09-1.25"/>
			<g>
				<path d="M52.33,133.31c3.59,10.02,8.86,19.45,15.59,27.75c1.91,2.35,3.93,4.61,6.06,6.77c0.25-0.43,0.5-0.86,0.75-1.28
					c-4.74-0.32-9.49-0.64-14.23-0.95c0.08,0.25,0.15,0.5,0.23,0.75c3.94-9.34,2.28-20.41-4.53-28.02
					c-1.76-1.97-3.81-3.67-6.09-5.03c-0.13,0.43-0.25,0.86-0.38,1.3c0.7-0.41,1.4-0.83,2.09-1.25c0.31-0.18,0.57-0.57,0.55-0.94
					c-0.02-0.32-0.27-0.5-0.57-0.33c-0.7,0.41-1.4,0.83-2.09,1.25c-0.32,0.19-0.87,1-0.38,1.3c8.16,4.88,12.92,14.02,12.36,23.39
					c-0.17,2.84-0.84,5.63-1.94,8.25c-0.09,0.22-0.13,0.72,0.23,0.75c4.74,0.32,9.49,0.64,14.23,0.95c0.47,0.03,1.13-0.9,0.75-1.28
					c-7.48-7.59-13.64-16.44-18.14-26.05c-1.26-2.69-2.39-5.44-3.39-8.23C53.14,131.65,52.13,132.76,52.33,133.31L52.33,133.31z"/>
			</g>
		</g>
		<g class="st10">
			<path d="M58.9,134.21c4.25,3.42,8.51,6.85,12.76,10.27c0.33,1.35-1.46,2.64-2.62,1.89c-4.61-2.96-8.18-7.54-9.92-12.75"/>
			<g>
				<path d="M58.51,134.87c4.13,3.33,8.35,6.57,12.4,9.98c0.68,0.58-0.55,1.12-1.09,1.01c-0.44-0.09-0.86-0.47-1.22-0.72
					c-0.45-0.32-0.89-0.65-1.31-0.99c-1.65-1.34-3.11-2.91-4.35-4.63c-1.41-1.95-2.51-4.1-3.28-6.37c-0.25-0.74-1.27,0.37-1.08,0.92
					c1.56,4.59,4.44,8.68,8.29,11.69c0.75,0.59,1.73,1.54,2.75,1.52c0.97-0.02,1.84-0.71,2.3-1.52c0.25-0.44,0.39-0.96,0.34-1.46
					c-0.06-0.62-0.82-1-1.28-1.36c-1.2-0.97-2.4-1.93-3.59-2.89c-2.7-2.17-5.39-4.34-8.09-6.51C58.82,133.17,58,134.46,58.51,134.87
					L58.51,134.87z"/>
			</g>
		</g>
		<g class="st10">
			<path d="M78.32,139.99c4.08,1.42,8.71,1.21,12.64-0.59c-1.04,1.51-2.22,2.97-3.75,3.97c-1.54,1-3.49,1.48-5.23,0.91
				c-1.74-0.57-3.12-2.35-2.88-4.18"/>
			<g>
				<path d="M77.93,140.65c4.27,1.46,8.93,1.22,13.04-0.63c-0.14-0.29-0.28-0.58-0.42-0.86c-1.46,2.1-3.33,4.21-6.04,4.6
					c-1.2,0.17-2.43-0.08-3.4-0.82c-0.9-0.68-1.59-1.84-1.48-2.99c0.1-1-1.03-0.39-1.09,0.27c-0.3,3.02,2.38,5.23,5.33,4.96
					c3.36-0.32,5.7-2.99,7.48-5.56c0.26-0.38,0.19-1.14-0.42-0.86c-3.82,1.72-8.27,1.92-12.24,0.56
					C78.09,139.11,77.37,140.46,77.93,140.65L77.93,140.65z"/>
			</g>
		</g>
		<g class="st10">
			<path d="M76.81,141.84c0.95,4.73,3.16,9.2,6.33,12.83c-0.63,0.75-1.7,1.08-2.64,0.82c-0.94-0.27-1.68-1.11-1.83-2.08
				c-0.53-3.48-1.06-6.96-1.59-10.44"/>
			<g>
				<path d="M76.27,142.29c0.98,4.76,3.18,9.25,6.38,12.95c0.07-0.33,0.13-0.65,0.2-0.98c-0.75,0.83-2.1,0.75-2.9,0.04
					c-0.93-0.83-0.89-2.27-1.06-3.41c-0.43-2.8-0.85-5.6-1.28-8.4c-0.06-0.37-0.5-0.23-0.69-0.08c-0.3,0.24-0.44,0.63-0.39,0.99
					c0.51,3.33,1.02,6.66,1.52,9.98c0.19,1.23,0.77,2.34,2.05,2.74c1.24,0.39,2.49-0.16,3.32-1.08c0.19-0.21,0.42-0.72,0.2-0.98
					c-3.16-3.64-5.31-8.01-6.27-12.7c-0.07-0.36-0.49-0.24-0.69-0.08C76.38,141.53,76.2,141.94,76.27,142.29L76.27,142.29z"/>
			</g>
		</g>
		<g class="st10">
			<path d="M76.04,145.97c-0.31,4.03-0.62,8.06-0.93,12.09c-1.66-4.15-0.98-9.16,1.73-12.71"/>
			<g>
				<path d="M75.48,146.28c-0.31,4.03-0.62,8.06-0.93,12.09c0.37-0.25,0.73-0.51,1.1-0.76c-1.52-3.88-1.06-8.48,1.48-11.85
					c0.18-0.23,0.43-0.7,0.2-0.98c-0.22-0.27-0.61-0.03-0.77,0.18c-2.89,3.85-3.74,9.07-1.98,13.56c0.12,0.29,0.38,0.28,0.62,0.13
					c0.3-0.2,0.45-0.55,0.48-0.89c0.31-4.03,0.62-8.06,0.93-12.09c0.03-0.35-0.3-0.46-0.57-0.33
					C75.68,145.51,75.51,145.93,75.48,146.28L75.48,146.28z"/>
			</g>
		</g>
		<g class="st10">
			<path d="M73.54,149.76c-0.95,3.22-1.9,6.43-2.85,9.64c-0.99,0.49-2.26-0.8-1.77-1.79c1.78-3.6,3.55-7.21,5.33-10.81"/>
			<g>
				<path d="M73.04,149.72c-0.95,3.22-1.9,6.43-2.85,9.64c0.16-0.2,0.32-0.39,0.48-0.59c-0.68,0.29-1.47-0.63-1.2-1.24
					c0.54-1.19,1.16-2.36,1.74-3.53c1.14-2.32,2.29-4.64,3.43-6.96c0.12-0.24,0.3-0.71-0.02-0.89c-0.29-0.17-0.68,0.2-0.79,0.43
					c-1.78,3.6-3.6,7.19-5.33,10.81c-0.52,1.09-0.12,2.54,1.21,2.8c0.82,0.16,1.34-0.33,1.56-1.06c0.28-0.95,0.56-1.9,0.84-2.85
					c0.64-2.15,1.27-4.31,1.91-6.47c0.08-0.25,0.14-0.69-0.23-0.75C73.48,149.01,73.12,149.45,73.04,149.72L73.04,149.72z"/>
			</g>
		</g>
		<g class="st10">
			<path d="M77.21,157.07c-0.06,3.39,1.27,6.79,3.61,9.23c-1.07,0.81-2.71,0.52-3.66-0.43c-0.95-0.95-1.3-2.38-1.21-3.73
				c0.09-1.35,0.55-2.63,1.01-3.9"/>
			<g>
				<path d="M76.65,157.38c-0.04,3.49,1.27,6.94,3.69,9.5c0.11-0.37,0.22-0.74,0.33-1.11c-1.5,1.05-3.38-0.44-3.88-1.82
					c-0.69-1.9,0.01-3.86,0.66-5.66c0.09-0.25,0.13-0.69-0.23-0.75c-0.34-0.05-0.67,0.39-0.76,0.66c-0.81,2.25-1.65,4.81-0.57,7.11
					c0.92,1.94,3.24,2.82,5.08,1.53c0.24-0.17,0.6-0.83,0.33-1.11c-2.3-2.43-3.56-5.64-3.53-8.95c0-0.34-0.29-0.46-0.57-0.33
					C76.87,156.6,76.66,157.03,76.65,157.38L76.65,157.38z"/>
			</g>
		</g>
		<g class="st10">
			<path d="M111.22,142c-0.47,1.06-0.94,2.12-1.41,3.19c-1.07-1.44,0.06-3.89,1.84-4"/>
			<g>
				<path d="M110.73,141.95c-0.47,1.06-0.94,2.12-1.41,3.19c0.33-0.18,0.65-0.36,0.98-0.53c-0.76-1.1-0.15-2.6,1.22-2.73
					c0.58-0.06,1.07-1.46,0.26-1.38c-2.31,0.22-3.74,3.41-2.45,5.27c0.32,0.46,0.87-0.29,0.98-0.53c0.47-1.06,0.94-2.12,1.41-3.19
					c0.11-0.25,0.12-0.69-0.23-0.75C111.13,141.24,110.84,141.69,110.73,141.95L110.73,141.95z"/>
			</g>
		</g>
		<g class="st10">
			<path d="M105.28,150.36c-0.08,1.09-0.17,2.17-0.25,3.26c-1.16-0.78-1.33-2.69-0.33-3.67"/>
			<g>
				<path d="M104.72,150.67c-0.08,1.09-0.17,2.17-0.25,3.26c0.32-0.32,0.63-0.65,0.95-0.97c-0.79-0.57-1.15-1.85-0.43-2.6
					c0.2-0.21,0.41-0.72,0.2-0.98c-0.24-0.29-0.59-0.01-0.77,0.18c-1.25,1.3-1.3,3.62,0.22,4.73c0.48,0.35,0.93-0.66,0.95-0.97
					c0.08-1.09,0.17-2.17,0.25-3.26c0.03-0.35-0.3-0.46-0.57-0.33C104.93,149.89,104.75,150.31,104.72,150.67L104.72,150.67z"/>
			</g>
		</g>
		<g class="st10">
			<path d="M104.6,159.18c-0.11,0.92-0.21,1.84-0.32,2.76c-1.27-0.5-1.44-2.59-0.27-3.3"/>
			<g>
				<path d="M104.05,159.32c-0.11,0.92-0.21,1.84-0.32,2.76c0.31-0.27,0.62-0.53,0.94-0.8c-0.45-0.2-0.75-0.57-0.85-1.05
					c-0.06-0.29-0.09-0.76,0.2-0.95c0.3-0.2,0.57-0.56,0.55-0.94c-0.02-0.3-0.28-0.52-0.57-0.33c-1.46,0.97-2.03,3.74-0.1,4.59
					c0.44,0.2,0.89-0.43,0.94-0.8c0.11-0.92,0.21-1.84,0.32-2.76C105.26,158.05,104.13,158.66,104.05,159.32L104.05,159.32z"/>
			</g>
		</g>
		<g class="st10">
			<g>
				<path d="M157.21,95.59c0.61,0,1.2-1.4,0.54-1.4C157.14,94.19,156.55,95.59,157.21,95.59L157.21,95.59z"/>
			</g>
		</g>
		<g class="st10">
			<g>
				<path d="M72.46,69.32c-0.37,1.64,0.12,3.25,1.25,4.49c1.14,1.26,2.74,1.75,4.4,1.52c0.83-0.11,1.29-1.17,1.09-1.89
					c-0.25-0.89-1.08-1.18-1.92-1.07c0.32-0.04-0.42-0.05-0.09,0c-0.13-0.02-0.25-0.05-0.37-0.09c-0.03-0.01-0.29-0.11-0.17-0.06
					c0.09,0.04-0.39-0.24-0.32-0.19c0.1,0.07-0.12-0.1-0.14-0.12c-0.1-0.09-0.19-0.18-0.28-0.27c-0.1-0.1-0.35-0.53-0.38-0.65
					c-0.03-0.1-0.05-0.2-0.08-0.3c-0.12-0.41-0.01,0.12-0.02-0.12c0-0.1,0-0.2,0-0.31c0.02-0.26-0.08,0.33,0.03-0.13
					c0.18-0.81-0.25-1.66-1.09-1.89C73.59,68.04,72.64,68.51,72.46,69.32L72.46,69.32z"/>
			</g>
		</g>
	</g>
</g>
<g id="Ebene_9_6_">
</g>
<g id="Ebene_3">
	<g>
		<g id="Ebene_2_Kopie_5_">
			<g>
				<path class="st23" d="M127.56,62.65c3.56,2.67,14.35,10.85,16.57,10.01c3.61-1.36,26.06-27.65,25.49-30.71
					c-1.2-6.41-44.47-41.22-51.6-39.61c-6.42,1.45-19.86,31.3-19.57,33.86c0.43,3.87,8.74,7.85,11.27,11.63
					c1.13,1.68,2.16,14.89,3.95,15.99c1.02,0.63,9.77,0.24,13.77-1.26"/>
				<g>
					<path class="st24" d="M127.37,62.92c3.49,2.62,6.99,5.25,10.7,7.56c0.89,0.55,1.8,1.09,2.74,1.57c0.69,0.35,1.41,0.7,2.18,0.89
						c0.47,0.12,0.95,0.18,1.41-0.04c0.35-0.17,0.67-0.41,0.98-0.64c1.02-0.78,1.94-1.68,2.86-2.58c1.31-1.29,2.57-2.62,3.82-3.97
						c3-3.26,5.9-6.61,8.7-10.04c2.47-3.02,4.91-6.09,7.08-9.34c0.67-1.01,1.35-2.04,1.83-3.16c0.14-0.32,0.27-0.66,0.29-1.01
						c0.02-0.3-0.08-0.59-0.19-0.87c-0.32-0.78-0.83-1.49-1.34-2.15c-0.75-0.98-1.57-1.91-2.41-2.81c-2.35-2.52-4.87-4.86-7.43-7.16
						c-3.13-2.81-6.35-5.52-9.63-8.15c-3.4-2.74-6.86-5.4-10.4-7.96c-3.16-2.29-6.37-4.51-9.7-6.55c-2.41-1.48-4.9-2.95-7.57-3.94
						c-0.81-0.3-1.68-0.58-2.56-0.62c-0.92-0.04-1.74,0.37-2.48,0.92c-1.19,0.87-2.18,2.04-3.1,3.2c-1.22,1.54-2.31,3.19-3.35,4.86
						c-2.4,3.86-4.51,7.89-6.48,11.98c-1.61,3.34-3.16,6.73-4.41,10.22c-0.32,0.89-0.69,1.83-0.8,2.77
						c-0.07,0.6,0.17,1.23,0.44,1.74c0.49,0.95,1.23,1.76,1.99,2.49c1.89,1.82,4.07,3.31,6.08,5c0.89,0.75,1.77,1.53,2.49,2.45
						c0.25,0.31,0.34,0.42,0.47,0.76c0.1,0.26,0.17,0.52,0.24,0.79c0.49,1.9,0.76,3.87,1.08,5.82c0.36,2.14,0.7,4.3,1.25,6.39
						c0.19,0.71,0.39,1.45,0.74,2.1c0.27,0.49,0.58,0.76,1.13,0.87c0.82,0.16,1.69,0.15,2.52,0.15c1.25-0.01,2.51-0.08,3.76-0.2
						c2.41-0.22,4.92-0.53,7.23-1.38c0.4-0.15,0.13-0.74-0.26-0.59c-1.12,0.41-2.29,0.66-3.45,0.86c-1.31,0.23-2.64,0.39-3.96,0.5
						c-1.2,0.1-2.4,0.16-3.59,0.15c-0.74,0-1.62,0.02-2.28-0.18c-0.04-0.01-0.08-0.03-0.12-0.04c-0.11-0.04,0.01,0.02-0.05-0.03
						c-0.03-0.02-0.06-0.04-0.09-0.07c0.07,0.06-0.06-0.07-0.08-0.09c-0.15-0.19-0.25-0.39-0.36-0.65
						c-0.31-0.73-0.51-1.51-0.69-2.28c-0.5-2.14-0.84-4.32-1.21-6.5c-0.3-1.8-0.54-3.65-1.06-5.4c-0.2-0.67-0.53-1.18-0.99-1.71
						c-0.76-0.89-1.65-1.67-2.55-2.41c-1.99-1.65-4.15-3.11-5.98-4.94c-0.71-0.71-1.42-1.49-1.82-2.43
						c-0.08-0.18-0.15-0.36-0.19-0.56c-0.02-0.11-0.04-0.21-0.06-0.32c0-0.02-0.01-0.18-0.01-0.04c0-0.12,0.01-0.24,0.03-0.36
						c0.06-0.35,0.16-0.72,0.29-1.14c0.18-0.57,0.38-1.14,0.58-1.7c0.57-1.56,1.21-3.09,1.88-4.62c1.73-3.98,3.63-7.89,5.71-11.71
						c1.95-3.59,4.03-7.2,6.6-10.4c0.87-1.09,1.82-2.17,2.97-2.97c0.35-0.24,0.84-0.5,1.22-0.59c0.07-0.02,0.13-0.03,0.2-0.04
						c0.03,0,0.06-0.01,0.09-0.01c0.11-0.01-0.04,0,0.07,0c0.16,0,0.32,0,0.48,0.02c0.44,0.04,0.68,0.1,1.1,0.22
						c0.49,0.13,0.96,0.3,1.43,0.49c1.16,0.46,2.28,1.01,3.38,1.6c3.04,1.63,5.94,3.51,8.79,5.45c3.45,2.35,6.81,4.82,10.12,7.36
						c3.4,2.61,6.74,5.31,10.02,8.08c2.91,2.47,5.77,4.99,8.52,7.64c1.98,1.91,3.97,3.87,5.64,6.07c0.28,0.37,0.56,0.75,0.81,1.15
						c0.05,0.07,0.05,0.07,0.11,0.19c0.05,0.08,0.09,0.17,0.14,0.25c0.08,0.14,0.15,0.29,0.21,0.44c0.03,0.06,0.05,0.13,0.07,0.19
						c0.01,0.03,0.02,0.07,0.03,0.1c-0.03-0.11,0,0.01,0.01,0.03c0.01,0.05,0.02,0.1,0.03,0.16c0.01,0.09,0.01-0.07,0,0.01
						c0,0.03,0,0.06-0.01,0.09c0,0.04-0.04,0.23-0.02,0.12c-0.02,0.08-0.04,0.16-0.07,0.24c-0.06,0.19-0.14,0.38-0.22,0.56
						c-0.47,1.03-1.16,2.08-1.83,3.07c-0.99,1.48-2.05,2.91-3.13,4.32c-2.63,3.44-5.39,6.79-8.23,10.06
						c-2.57,2.96-5.19,5.89-7.98,8.64c-0.9,0.89-1.83,1.79-2.83,2.56c-0.34,0.26-0.51,0.4-0.86,0.57c-0.15,0.07-0.23,0.09-0.37,0.08
						c-0.28-0.01-0.48-0.05-0.74-0.13c-0.77-0.23-1.5-0.59-2.21-0.96c-0.93-0.5-1.84-1.04-2.74-1.61c-2.03-1.28-4.01-2.67-5.95-4.08
						c-1.47-1.06-2.92-2.15-4.37-3.24C127.42,62.12,127.04,62.67,127.37,62.92L127.37,62.92z"/>
				</g>
			</g>
		</g>
		<g id="Ebene_7_4_">
			<g class="st20">
				<g>
					<path class="st0" d="M154.75,33.7c0.99,0.98,2.06,1.86,3.11,2.76c0.29,0.25,0.58,0.5,0.86,0.76c0.14,0.12,0.28,0.25,0.42,0.37
						c0.07,0.06,0.14,0.13,0.21,0.19c0.23,0.21-0.19-0.18,0.04,0.04c0.53,0.5,1.05,1.01,1.54,1.56c0.23,0.25,0.45,0.51,0.65,0.78
						c0.09,0.12,0.18,0.25,0.27,0.37c0.04,0.06,0.08,0.12,0.12,0.18c0.17,0.25-0.11-0.2-0.01-0.03c0.13,0.24,0.26,0.47,0.35,0.73
						c0.02,0.05,0.03,0.12,0.06,0.17c-0.04-0.07-0.08-0.33-0.04-0.13c0.02,0.12,0.02,0.26,0.06,0.37c-0.02-0.06,0.01-0.36-0.01-0.16
						c0,0.05-0.01,0.1-0.01,0.16c-0.02,0.3,0.1-0.26,0.02-0.08c-0.04,0.09-0.19,0.41-0.04,0.12c0.15-0.29,0.03-0.06-0.01,0.01
						c-0.04,0.06-0.08,0.13-0.11,0.19c-0.09,0.15-0.18,0.29-0.28,0.43c-1.32,1.94-2.86,3.74-4.36,5.53
						c-2.12,2.54-4.29,5.05-6.46,7.56c-2.05,2.37-4.11,4.73-6.15,7.11c-0.21,0.25-0.42,0.49-0.63,0.74
						c-0.45,0.53-0.25,1.48,0.29,1.83c0.64,0.4,1.33,0.21,1.82-0.36c2-2.35,4.04-4.68,6.06-7.01c2.23-2.57,4.46-5.14,6.65-7.75
						c1.62-1.92,3.27-3.85,4.71-5.91c0.37-0.53,0.82-1.13,0.99-1.76c0.38-1.47-0.33-2.83-1.16-3.94c-0.93-1.25-2.11-2.32-3.27-3.36
						c-1.07-0.96-2.19-1.87-3.26-2.84c-0.05-0.05-0.11-0.1-0.16-0.14c-0.16-0.15,0.25,0.23,0.06,0.06c-0.1-0.09-0.2-0.19-0.29-0.28
						c-0.48-0.47-1.27-0.66-1.83-0.14C154.46,32.28,154.23,33.19,154.75,33.7L154.75,33.7z"/>
				</g>
			</g>
			<g class="st20">
				<g>
					<path class="st0" d="M140.66,66.9c-0.13,0.26-0.26,0.53-0.39,0.79c0.8-0.05,1.61-0.1,2.41-0.16c-0.15-0.36-0.29-0.73-0.43-1.09
						c-0.33,0.62-0.66,1.24-0.98,1.87c-0.19,0.02-0.36,0.02-0.54-0.07c-0.08-0.02-0.14-0.07-0.19-0.13
						c-0.09-0.1-0.11-0.11-0.05-0.03c-0.09-0.13-0.14-0.24-0.17-0.4c0.01,0.09,0.01,0.08,0-0.05c-0.02-0.11,0-0.22,0.04-0.33
						c0.45-0.3,0.9-0.6,1.35-0.9c0.02,0,0.31,0.1,0.16,0.03c0.15,0.06,0.26,0.14,0.38,0.26c-0.11-0.12,0.07,0.12,0.08,0.14
						c-0.08-0.14,0.04,0.12,0.04,0.15c0.02,0.15-0.01,0.3-0.05,0.44c0.07-0.23-0.29,0.39-0.28,0.37c0.12-0.12-0.11,0.07-0.13,0.09
						c-0.07,0.02-0.13,0.05-0.2,0.07c-0.22,0-0.28,0.01-0.18,0.01c0.15,0.02-0.29-0.07-0.15-0.03c0.06,0.02,0.04,0.01-0.07-0.04
						c-0.07-0.02-0.14-0.06-0.19-0.12c-0.22-0.2-0.32-0.49-0.25-0.79c0.07-0.28-0.08,0.11,0.06-0.16c0.14-0.27-0.1,0.08,0.1-0.15
						c0.04-0.07,0.1-0.12,0.17-0.15c0.11-0.06,0.13-0.08,0.07-0.05c-0.11,0.05,0.33-0.07,0.12-0.06c0.5,0.46,1,0.92,1.5,1.38
						c0.01-0.13,0.01-0.26,0.02-0.39c0.03-0.69-0.44-1.38-1.17-1.4c-0.68-0.01-1.39,0.5-1.42,1.23c-0.01,0.13-0.01,0.26-0.02,0.39
						c-0.02,0.42,0.1,0.78,0.41,1.06c0.32,0.3,0.67,0.35,1.1,0.32c0.87-0.07,1.59-0.97,1.63-1.81c0.05-1-0.72-1.86-1.72-1.86
						c-0.96,0-1.91,0.73-1.93,1.76c-0.02,1,0.67,1.87,1.68,1.93c0.57,0.04,1.14-0.35,1.35-0.9c0.22-0.6,0.12-1.3-0.28-1.77
						c-0.43-0.52-1.01-0.7-1.67-0.63c-0.87,0.09-1.27,1.15-0.98,1.87c0.15,0.36,0.29,0.73,0.43,1.09c0.19,0.48,0.73,0.76,1.23,0.73
						c0.56-0.04,0.93-0.39,1.18-0.89c0.13-0.26,0.26-0.53,0.39-0.79c0.14-0.28,0.09-0.73-0.03-0.99c-0.13-0.3-0.42-0.59-0.74-0.68
						c-0.32-0.09-0.68-0.1-0.98,0.06C141.02,66.31,140.83,66.56,140.66,66.9L140.66,66.9z"/>
				</g>
			</g>
		</g>
		<g id="Ebene_2_6_">
			<g>
				<g>
					<path d="M123.99,64.14c3.49,2.63,7,5.26,10.71,7.57c0.89,0.56,1.8,1.09,2.74,1.57c0.75,0.38,1.51,0.77,2.33,0.98
						c0.63,0.16,1.27,0.23,1.89-0.06c0.4-0.19,0.77-0.46,1.12-0.72c1.02-0.78,1.95-1.68,2.86-2.58c1.31-1.29,2.58-2.63,3.83-3.98
						c3.03-3.29,5.96-6.68,8.79-10.15c2.46-3.02,4.91-6.08,7.06-9.33c0.69-1.04,1.38-2.11,1.86-3.26c0.15-0.37,0.29-0.77,0.31-1.16
						c0.02-0.42-0.11-0.82-0.26-1.2c-0.35-0.84-0.91-1.6-1.45-2.31c-0.76-0.99-1.59-1.92-2.44-2.82c-2.39-2.55-4.95-4.93-7.55-7.25
						c-3.13-2.8-6.35-5.51-9.62-8.14c-3.4-2.73-6.85-5.39-10.38-7.95c-3.15-2.28-6.35-4.49-9.66-6.53
						c-2.47-1.52-5.02-3.03-7.74-4.05c-0.87-0.33-1.8-0.62-2.73-0.67c-1.08-0.05-2.03,0.39-2.91,1.03c-1.24,0.89-2.27,2.11-3.21,3.3
						c-1.22,1.54-2.31,3.18-3.34,4.85c-2.42,3.89-4.54,7.97-6.52,12.09c-1.61,3.35-3.16,6.76-4.41,10.26
						c-0.33,0.93-0.71,1.92-0.81,2.9c-0.08,0.72,0.18,1.47,0.51,2.09c0.54,1.02,1.3,1.88,2.12,2.66c1.95,1.86,4.16,3.39,6.22,5.12
						c0.23,0.19,0.45,0.38,0.67,0.58c0.06,0.05,0.12,0.1,0.18,0.16c0.03,0.03,0.23,0.21,0.04,0.03c0.11,0.1,0.22,0.21,0.33,0.31
						c0.4,0.39,0.79,0.8,1.13,1.25c0.07,0.08,0.13,0.17,0.19,0.26c0.04,0.05,0.07,0.11,0.11,0.15c0.08,0.09-0.13-0.26-0.09-0.14
						c0.04,0.1,0.1,0.19,0.14,0.29c0.05,0.12,0.08,0.24,0.12,0.35c0.09,0.27-0.05-0.2,0.01,0.03c0.03,0.1,0.05,0.2,0.08,0.29
						c0.49,1.89,0.76,3.86,1.09,5.79c0.36,2.14,0.71,4.3,1.27,6.39c0.21,0.76,0.42,1.55,0.8,2.24c0.18,0.32,0.38,0.63,0.68,0.86
						c0.3,0.22,0.64,0.3,1,0.36c0.84,0.15,1.71,0.15,2.56,0.15c1.3-0.01,2.6-0.08,3.89-0.2c2.46-0.22,4.98-0.54,7.33-1.4
						c0.5-0.18,0.7-0.87,0.5-1.32c-0.23-0.52-0.79-0.64-1.29-0.46c-0.07,0.02-0.47,0.16-0.2,0.07c-0.12,0.04-0.24,0.08-0.36,0.11
						c-0.28,0.08-0.57,0.16-0.86,0.23c-0.62,0.15-1.24,0.27-1.86,0.38c-1.31,0.22-2.64,0.38-3.96,0.48
						c-0.14,0.01-0.28,0.02-0.43,0.03c-0.03,0-0.31,0.02-0.09,0.01c-0.08,0.01-0.17,0.01-0.25,0.02c-0.32,0.02-0.65,0.04-0.97,0.05
						c-0.56,0.02-1.13,0.03-1.69,0.03c-0.46,0-0.91-0.02-1.37-0.05c-0.17-0.01-0.34-0.03-0.51-0.05c-0.07-0.01-0.16-0.04-0.23-0.04
						c0.26-0.02,0.17,0.04,0.02,0c-0.05-0.01-0.1-0.04-0.15-0.05c-0.18-0.04,0.15,0.09,0.12,0.06c-0.02-0.02-0.08-0.07-0.11-0.08
						c0.23,0.09,0.17,0.18,0.07,0.05c-0.03-0.05-0.07-0.09-0.1-0.14c-0.13-0.16,0.13,0.23,0.03,0.05c-0.07-0.13-0.14-0.27-0.2-0.4
						c-0.14-0.33-0.26-0.67-0.36-1.01c-0.02-0.06-0.09-0.24,0.01,0.03c-0.02-0.05-0.03-0.11-0.05-0.16c-0.03-0.1-0.06-0.2-0.08-0.3
						c-0.06-0.23-0.12-0.47-0.18-0.7c-0.51-2.13-0.86-4.31-1.22-6.47c-0.32-1.86-0.58-3.77-1.13-5.57c-0.21-0.7-0.57-1.25-1.03-1.81
						c-0.81-0.96-1.77-1.79-2.73-2.58c-1.01-0.84-2.05-1.63-3.08-2.44c-0.51-0.4-1.01-0.81-1.51-1.23
						c-0.23-0.19-0.45-0.39-0.67-0.59c-0.06-0.05-0.12-0.11-0.18-0.16c-0.19-0.17,0.1,0.1-0.01-0.01c-0.12-0.12-0.24-0.23-0.36-0.35
						c-0.39-0.39-0.77-0.79-1.11-1.23c-0.15-0.19-0.28-0.39-0.42-0.59c-0.13-0.18,0.1,0.2,0,0c-0.03-0.05-0.06-0.11-0.09-0.16
						c-0.06-0.1-0.11-0.21-0.16-0.32c-0.05-0.1-0.09-0.21-0.13-0.32c-0.01-0.03-0.02-0.07-0.04-0.11c-0.07-0.19,0.04,0.22,0.01,0.03
						c-0.03-0.14-0.03-0.33-0.08-0.47c0.09,0.26-0.01,0.29,0.01,0.16c0-0.02,0-0.05,0-0.07c0-0.07,0.02-0.14,0.03-0.21
						c0.01-0.08,0.03-0.15,0.04-0.23c0.04-0.23-0.04,0.17-0.02,0.09c0.01-0.05,0.02-0.1,0.04-0.15c0.06-0.22,0.12-0.45,0.19-0.67
						c0.18-0.58,0.37-1.15,0.58-1.71c0.57-1.55,1.2-3.08,1.86-4.6c0.82-1.9,1.69-3.78,2.59-5.64c0.5-1.03,1-2.05,1.52-3.07
						c0.12-0.24,0.25-0.48,0.37-0.72c0.03-0.06,0.22-0.42,0.08-0.16c0.08-0.15,0.16-0.31,0.24-0.46c0.26-0.5,0.53-1,0.8-1.5
						c1.94-3.59,4.01-7.19,6.58-10.38c0.26-0.32,0.52-0.64,0.8-0.95c0.06-0.07,0.28-0.28,0.02-0.02c0.07-0.07,0.13-0.14,0.2-0.22
						c0.13-0.14,0.26-0.27,0.39-0.41c0.45-0.45,0.92-0.86,1.44-1.22c0.03-0.02,0.06-0.04,0.09-0.06c0.01-0.01-0.24,0.15-0.13,0.08
						c0.06-0.03,0.12-0.07,0.18-0.11c0.11-0.07,0.23-0.13,0.34-0.18c0.1-0.05,0.2-0.09,0.31-0.13c0.18-0.08-0.28,0.08-0.05,0.02
						c0.05-0.01,0.11-0.03,0.16-0.04c0.06-0.01,0.13-0.02,0.19-0.03c0.04-0.01,0.07-0.01,0.11-0.01c0.04-0.01-0.32,0.01-0.11,0.01
						c0.16,0,0.32,0,0.49,0.02c0.09,0.01,0.17,0.02,0.26,0.03c0.05,0.01,0.1,0.02,0.15,0.02c0.24,0.04-0.14-0.03-0.07-0.02
						c0.21,0.05,0.41,0.09,0.61,0.15c0.49,0.14,0.96,0.31,1.43,0.5c0.55,0.22,1.09,0.46,1.62,0.71c0.14,0.07,0.28,0.13,0.42,0.2
						c0.06,0.03,0.13,0.06,0.19,0.1c0.04,0.02,0.08,0.04,0.12,0.06c0.22,0.11-0.18-0.1-0.03-0.02c0.31,0.16,0.62,0.32,0.93,0.49
						c3.03,1.63,5.93,3.52,8.78,5.46c3.42,2.34,6.76,4.79,10.05,7.31c3.41,2.62,6.76,5.31,10.04,8.09c1.53,1.29,3.04,2.61,4.53,3.94
						c0.71,0.64,1.42,1.27,2.12,1.93c-0.19-0.18-0.02-0.01,0.07,0.06c0.09,0.08,0.17,0.16,0.26,0.24c0.17,0.16,0.34,0.32,0.51,0.47
						c0.31,0.3,0.63,0.59,0.94,0.89c1.99,1.91,3.98,3.88,5.66,6.07c0.29,0.37,0.56,0.75,0.81,1.14c0.02,0.04,0.05,0.08,0.07,0.11
						c-0.22-0.32-0.09-0.14-0.04-0.06c0.05,0.08,0.1,0.17,0.14,0.25c0.08,0.14,0.15,0.29,0.22,0.45c0.03,0.06,0.05,0.13,0.08,0.19
						c0.01,0.03,0.02,0.06,0.03,0.09c0.06,0.16-0.07-0.3-0.03-0.12c0.01,0.05,0.02,0.11,0.04,0.16c0.05,0.19,0.04-0.32,0-0.07
						c-0.01,0.06-0.02,0.12-0.03,0.18c0.02-0.31,0.04-0.17-0.01,0c-0.06,0.18-0.13,0.36-0.2,0.53c-0.04,0.1-0.09,0.19-0.14,0.29
						c-0.03,0.06-0.06,0.11-0.08,0.17c-0.12,0.24,0.12-0.22,0.02-0.03c-0.13,0.25-0.27,0.49-0.41,0.74
						c-0.35,0.6-0.73,1.19-1.12,1.77c-0.98,1.46-2.02,2.87-3.09,4.27c-2.63,3.45-5.4,6.8-8.24,10.07c-0.71,0.82-1.43,1.64-2.15,2.44
						c-0.35,0.39-0.7,0.78-1.05,1.17c-0.04,0.04-0.2,0.22,0,0c-0.04,0.04-0.07,0.08-0.11,0.12c-0.08,0.09-0.16,0.18-0.25,0.27
						c-0.18,0.19-0.36,0.39-0.53,0.58c-1.22,1.32-2.46,2.63-3.74,3.89c-0.91,0.89-1.83,1.78-2.84,2.56
						c-0.16,0.13-0.34,0.24-0.5,0.36c0.33-0.25,0.09-0.06-0.01,0c-0.07,0.04-0.13,0.07-0.2,0.1c-0.03,0.01-0.06,0.02-0.08,0.04
						c-0.13,0.07,0.28-0.05,0.12-0.04c-0.04,0-0.11,0.01-0.15,0.02c-0.08,0.02-0.15-0.12,0.17-0.01c-0.03-0.01-0.08,0-0.11,0
						c-0.12-0.01-0.23-0.03-0.35-0.04c-0.16-0.02,0.26,0.07,0.11,0.02c-0.04-0.01-0.07-0.02-0.11-0.03
						c-0.08-0.02-0.15-0.04-0.23-0.06c-0.35-0.1-0.68-0.24-1.01-0.38c-0.18-0.08-0.37-0.17-0.55-0.25c-0.07-0.03-0.44-0.2-0.14-0.07
						c-0.11-0.05-0.22-0.11-0.32-0.17c-0.95-0.5-1.86-1.06-2.77-1.63c-2.02-1.28-3.99-2.66-5.93-4.07
						c-1.47-1.07-2.93-2.16-4.38-3.25c-0.42-0.31-1.06-0.16-1.36,0.27C123.45,63.23,123.57,63.83,123.99,64.14L123.99,64.14z"/>
				</g>
			</g>
		</g>
		<g id="Ebene_10_3_">
			<g>
				<g>
					<path class="st0" d="M127.93,19.03c0.88,5.53,1.66,11.08,2.36,16.65c0.69,5.47,1.31,10.96,1.89,16.45
						c0.32,3.05,0.63,6.1,0.94,9.16c0.12,1.2,1.45,2.1,2.61,1.82c1.27-0.31,2.01-1.43,1.89-2.71c-0.54-5.44-1.11-10.89-1.72-16.32
						c-0.62-5.52-1.3-11.04-2.07-16.54c-0.44-3.14-0.9-6.27-1.4-9.39c-0.19-1.19-1.4-2.11-2.61-1.82
						C128.61,16.62,127.73,17.77,127.93,19.03L127.93,19.03z"/>
				</g>
			</g>
			<g>
				<g>
					<path class="st0" d="M111.79,45.73c6.06-1.2,12.1-2.47,18.13-3.84c4.46-1.02,8.91-2.08,13.38-3.06
						c2.96-0.65,5.93-1.27,8.9-1.85c1.18-0.23,2.13-1.5,1.89-2.71c-0.25-1.21-1.35-2.07-2.61-1.82c-4.94,0.98-9.87,2.05-14.78,3.18
						c-4.77,1.1-9.53,2.22-14.31,3.25c-3.76,0.81-7.53,1.58-11.31,2.33c-1.18,0.23-2.13,1.5-1.89,2.71
						C109.42,45.13,110.53,45.98,111.79,45.73L111.79,45.73z"/>
				</g>
			</g>
		</g>
		<g id="Ebene_9_4_">
			<g class="st21">
				<path d="M117.28,2.62c-10.71,15.37-6.9,45.01-2.13,62.1c-1.66-0.58-1.99-3.83-3.29-8.49c-1.84-6.58-0.32-6.17-2.03-8.85
					c-1.42-2.22-4.02-3.7-6.12-5.27c-1.94-1.45-4.16-3.54-4.71-5.46c-0.72-2.54,8.39-21.98,16.18-32.41"/>
				<g>
					<path d="M116.75,2.25c-2.22,3.19-3.74,6.83-4.78,10.55c-1.15,4.12-1.77,8.37-2.04,12.61c-0.29,4.5-0.22,9.01,0.1,13.48
						c0.31,4.41,0.86,8.8,1.62,13.14c0.67,3.89,1.51,7.76,2.52,11.56c0.11,0.42,0.23,0.84,0.34,1.26c0.29-0.25,0.58-0.5,0.87-0.75
						c-0.04-0.02-0.09-0.03-0.13-0.05c0.16,0.07,0.02,0.01-0.01-0.01c-0.07-0.04-0.13-0.09-0.19-0.14
						c-0.14-0.11,0.03,0.06-0.09-0.09c-0.07-0.08-0.14-0.16-0.2-0.25c-0.03-0.05-0.06-0.09-0.09-0.14c0.07,0.11,0,0-0.02-0.03
						c-0.05-0.1-0.11-0.2-0.16-0.3c-0.11-0.23-0.2-0.46-0.29-0.7c-0.46-1.27-0.74-2.61-1.07-3.92c-0.64-2.57-1.46-5.09-1.65-7.77
						c-0.04-0.53-0.04-1.08-0.16-1.6c-0.14-0.65-0.43-1.24-0.77-1.8c-1.68-2.77-4.61-4.24-7.07-6.2c-1.12-0.89-2.19-1.88-3.03-3.05
						c-0.35-0.48-0.63-1-0.82-1.57c-0.03-0.08,0.01,0.1-0.01-0.04c0-0.03-0.01-0.06-0.01-0.09c-0.02-0.1,0.04-0.12,0,0.04
						c0.01-0.04,0-0.1,0-0.14c0.01-0.22,0.04-0.43,0.08-0.64c0.01-0.07,0.03-0.14,0.04-0.21c0.01-0.05,0.06-0.26,0.01-0.05
						c0.04-0.15,0.07-0.29,0.11-0.44c0.19-0.72,0.43-1.44,0.68-2.14c1.56-4.36,3.62-8.57,5.76-12.68c2.51-4.82,5.23-9.58,8.37-14.02
						c0.34-0.48,0.69-0.96,1.05-1.44c0.51-0.69-0.54-1.42-1.05-0.74c-3.25,4.36-6.02,9.09-8.58,13.87c-2.35,4.4-4.59,8.9-6.38,13.55
						c-0.54,1.4-1.08,2.84-1.32,4.32c-0.08,0.51-0.08,0.98,0.08,1.47c0.43,1.31,1.38,2.43,2.33,3.37c1.1,1.11,2.33,2.06,3.6,2.96
						c1.31,0.92,2.67,1.81,3.79,2.97c0.28,0.28,0.54,0.58,0.78,0.9c0.11,0.14,0.21,0.29,0.31,0.44c0.04,0.06,0.08,0.13,0.12,0.19
						c0.07,0.11-0.04-0.07,0.04,0.07c0.17,0.29,0.34,0.59,0.46,0.91c0.02,0.06,0.04,0.12,0.07,0.18c0.03,0.08,0.06,0.2,0.02,0.04
						c0.03,0.13,0.07,0.26,0.09,0.4c0.04,0.25,0.06,0.51,0.08,0.77c0.05,0.78,0.11,1.56,0.23,2.34c0.23,1.48,0.63,2.92,1.01,4.36
						c0.42,1.55,0.76,3.12,1.2,4.67c0.29,1.02,0.6,2.13,1.28,2.95c0.29,0.34,0.64,0.6,1.06,0.76c0.42,0.16,1-0.27,0.87-0.75
						c-1.03-3.68-1.88-7.43-2.57-11.2c-0.79-4.25-1.38-8.54-1.76-12.86c-0.38-4.4-0.53-8.83-0.34-13.27
						c0.18-4.2,0.66-8.43,1.67-12.55c0.91-3.7,2.24-7.36,4.26-10.59c0.24-0.39,0.49-0.76,0.75-1.14
						C118.3,2.28,117.24,1.54,116.75,2.25L116.75,2.25z"/>
				</g>
			</g>
		</g>
	</g>
</g>
</svg>
