<?xml version="1.0" encoding="utf-8"?>
<!-- Generator: Adobe Adobe Illustrator 24.2.0, SVG Export Plug-In . SVG Version: 6.00 Build 0)  -->
<svg version="1.1" xmlns="http://www.w3.org/2000/svg" xmlns:xlink="http://www.w3.org/1999/xlink" x="0px" y="0px"
	 viewBox="0 0 170.08 170.08" style="enable-background:new 0 0 170.08 170.08;" xml:space="preserve">
<style type="text/css">
	.st0{fill:#ADBECF;}
	.st1{fill:#F3C057;}
	.st2{fill:#F7D98D;}
	.st3{fill:#AEBFCE;}
	.st4{opacity:0.2706;}
	.st5{fill:#3D4C5B;}
	.st6{fill:#A19B99;}
	.st7{fill:#EFC0A1;}
	.st8{opacity:0.6706;fill:#CB5A7A;stroke:#CA5A78;stroke-width:0.115;stroke-miterlimit:10;enable-background:new    ;}
	.st9{fill:#C9316B;stroke:#C9306B;stroke-width:0.0848;stroke-miterlimit:10;}
	.st10{fill:#FFFFFF;stroke:#FFFFFF;stroke-width:0.115;stroke-miterlimit:10;}
	.st11{fill:#FFFFFF;}
	.st12{opacity:0.1412;stroke:#000000;stroke-width:0.115;stroke-miterlimit:10;enable-background:new    ;}
	.st13{opacity:0.1412;stroke:#000000;stroke-width:0.0965;stroke-miterlimit:10;enable-background:new    ;}
	.st14{opacity:0.1608;}
	.st15{fill:#ECC9AD;}
	.st16{opacity:0.1686;}
	.st17{fill:#F0F6FA;}
	.st18{opacity:0.149;}
	.st19{opacity:0.0314;}
	.st20{stroke:#000000;stroke-width:0.0619;stroke-miterlimit:10;}
	.st21{fill:#C8354F;}
	.st22{fill:#C93550;}
	.st23{fill:#6DB671;}
	.st24{fill:#6CB671;}
	.st25{fill:#D1DFEA;}
	.st26{fill:#D3E1ED;}
	.st27{fill:#C8354E;}
	.st28{fill:#F3C058;}
	.st29{fill:#C8AE9D;}
	.st30{opacity:0.0784;}
	.st31{opacity:0.1412;}
	.st32{fill:#D15238;}
	.st33{fill:#D15239;}
</style>
<g id="Ebene_4_5_">
</g>
<g id="Ebene_8_7_">
	<g>
		<g id="Ebene_18_3_">
			<g>
				<g>
					<path class="st6" d="M51.97,103.96c-0.35,2.77-2.82,5.1-5.54,5.23c-2.72,0.12-5.39-1.97-5.98-4.7
						c-1.35,4.12-5.36,7.17-9.59,7.29c-4.24,0.12-8.4-2.7-9.96-6.74c-1.15,6.74-9.85,8.41-13.35,2.92
						c-5.62-8.83,5.85-29.53,7.72-34.13c0,0,7.84-23.92,17.33-40.45c5.02-8.75,14.25-15.87,22.93-20.75
						c8.27-4.64,17.67-4.95,26.98-3.42s17.7,6.44,23.9,13.72c6.58,7.72,8.65,17.25,12,26.91c5.37,15.52,12.89,29.89,18.26,45.41
						c1.07,3.09,2.15,6.32,1.77,9.57c-0.38,3.25-2.71,6.52-5.89,6.76c-3.96,0.29-6.81-3.93-7.84-7.86c-0.33,4.53-4.08,8.55-8.48,9.1
						s-8.97-2.45-10.34-6.77c-1.04,2.39-3.67,3.69-6.21,3.88c-2.54,0.19-5.05-0.51-7.53-1.11c-12.68-3.06-25.82-3.42-38.84-3.77"/>
					<g>
						<path class="st6" d="M51.37,104.11c-0.35,2.42-2.53,4.35-5.01,4.29c-2.53-0.06-4.74-2-5.31-4.43
							c-0.17-0.74-1.04,0.14-1.15,0.46c-1.28,3.78-5,6.56-9.03,6.55c-4.06-0.01-7.89-2.71-9.38-6.47c-0.31-0.79-1.13,0.25-1.2,0.67
							c-0.64,3.52-3.97,5.69-7.47,5.19c-3.53-0.5-5.59-3.55-6.05-6.88c-0.5-3.59,0.31-7.35,1.3-10.79
							c1.09-3.78,2.57-7.45,4.17-11.05c1.11-2.5,2.36-4.94,3.44-7.45c0.54-1.27,0.91-2.63,1.37-3.93c2.8-7.97,5.9-15.86,9.38-23.56
							c2.1-4.63,4.32-9.26,6.93-13.62c2.79-4.67,6.65-8.64,10.84-12.07c2.13-1.75,4.37-3.37,6.68-4.87
							c2.26-1.47,4.59-2.91,7.05-4.02c5.32-2.41,11.22-3.16,17.02-2.91c5.51,0.24,11.03,1.18,16.12,3.37
							c4.83,2.08,9.23,5.13,12.9,8.9c3.89,3.99,6.68,8.72,8.74,13.87c2.12,5.29,3.62,10.8,5.52,16.17
							c4.18,11.81,9.62,23.11,14.28,34.72c1.17,2.91,2.29,5.85,3.33,8.81c1.03,2.93,2.16,5.98,2.07,9.13
							c-0.07,2.31-1.09,4.81-3.18,6c-2.05,1.17-4.44,0.51-6.09-1.03c-1.68-1.57-2.73-3.76-3.31-5.96c-0.09-0.35-0.45-0.3-0.69-0.14
							c-0.33,0.22-0.5,0.61-0.53,1c-0.27,3.2-2.44,6.03-5.35,7.33c-3.02,1.35-6.5,0.61-9.06-1.36c-1.48-1.15-2.61-2.72-3.2-4.5
							c-0.24-0.74-1,0.14-1.15,0.46c-1.22,2.68-4.7,3.34-7.33,3.13c-1.81-0.14-3.57-0.61-5.33-1.04c-1.71-0.42-3.44-0.79-5.17-1.11
							c-7.11-1.34-14.33-1.95-21.54-2.3c-4.12-0.2-8.24-0.31-12.37-0.42c-0.67-0.02-1.34,1.56-0.59,1.58
							c7.65,0.21,15.32,0.41,22.94,1.17c3.76,0.37,7.51,0.88,11.22,1.59c1.89,0.36,3.77,0.79,5.64,1.24
							c1.83,0.45,3.69,0.89,5.59,0.91c3.35,0.02,6.6-1.51,8.04-4.65c-0.38,0.15-0.76,0.31-1.15,0.46c1.16,3.54,4.27,6.26,7.94,6.95
							c3.74,0.71,7.47-1.12,9.74-4.07c1.36-1.77,2.18-3.84,2.36-6.06c-0.41,0.29-0.81,0.57-1.22,0.86c1.1,4.11,4.71,9.72,9.75,7.79
							c2.3-0.88,3.93-3.05,4.71-5.32c0.99-2.9,0.53-6.03-0.31-8.91c-0.91-3.13-2.09-6.19-3.26-9.23c-1.17-3.04-2.4-6.05-3.67-9.05
							c-2.52-5.99-5.17-11.92-7.64-17.93c-2.44-5.9-4.62-11.88-6.57-17.96c-1.77-5.5-3.56-11.07-6.49-16.09
							c-5.53-9.49-15.27-16.46-26-18.76c-5.85-1.25-12.08-1.6-18-0.66c-2.9,0.46-5.73,1.28-8.42,2.46
							c-2.64,1.16-5.13,2.71-7.54,4.28c-4.78,3.12-9.28,6.71-13.13,10.95c-3.69,4.06-6.32,8.75-8.77,13.62
							c-4.42,8.77-8.14,17.9-11.51,27.11c-0.83,2.26-1.64,4.54-2.4,6.82c-0.59,1.77-1.52,3.43-2.31,5.12
							c-1.65,3.53-3.21,7.1-4.5,10.78c-1.34,3.83-2.47,7.84-2.64,11.91c-0.14,3.39,0.52,7.16,3.36,9.36
							c2.93,2.27,7.23,1.84,9.94-0.56c1.49-1.32,2.44-3.13,2.79-5.08c-0.4,0.22-0.8,0.44-1.2,0.67c1.31,3.3,4.15,5.82,7.59,6.7
							c3.46,0.89,7.13-0.26,9.75-2.62c1.53-1.38,2.7-3.14,3.36-5.09c-0.38,0.15-0.76,0.31-1.15,0.46c0.69,2.94,3.54,5.24,6.61,4.95
							c3.13-0.3,5.68-3.11,6.11-6.15c0.05-0.33-0.06-0.69-0.46-0.62C51.74,103.25,51.42,103.76,51.37,104.11L51.37,104.11z"/>
					</g>
				</g>
				<g>
					<path class="st6" d="M60.29,120.08c-0.25,4.58-0.49,9.17-0.74,13.75c-17.62-0.29-34.98,10.57-42.79,26.78
						c36.22,7.47,73.95,7.05,110.01-1.21c-6.05-17.75-24.94-22.23-41.06-25.31c0.43-4.65,0.64-8.95,0.64-8.95
						c0.41-2.87,0.53-6.49-1.96-7.88c-1.29-0.72-4.28-0.09-5.74,0.02c-6.02,0.43-12.04,0.87-18.07,1.31"/>
					<g>
						<path class="st6" d="M59.66,120.43c-0.25,4.58-0.49,9.17-0.74,13.75c0.31-0.38,0.61-0.76,0.92-1.13
							c-7-0.1-13.93,1.51-20.25,4.48c-6.39,3-12.13,7.4-16.7,12.77c-2.6,3.06-4.83,6.44-6.58,10.06c-0.15,0.3-0.35,0.94,0.15,1.05
							c7.08,1.46,14.21,2.62,21.39,3.47c7.17,0.86,14.37,1.41,21.59,1.67c7.22,0.26,14.44,0.21,21.65-0.13
							c7.19-0.34,14.37-0.98,21.51-1.92c7.16-0.94,14.29-2.18,21.35-3.72c0.89-0.19,1.78-0.39,2.67-0.6
							c0.47-0.11,0.9-0.83,0.75-1.29c-2.22-6.45-6.48-11.8-12.11-15.61c-5.51-3.72-11.89-5.94-18.29-7.6
							c-3.62-0.94-7.29-1.68-10.96-2.38c0.1,0.21,0.21,0.42,0.31,0.63c0.26-2.82,0.47-5.65,0.62-8.49c0.1-1.83,0.47-3.8,0.04-5.75
							c-0.25-1.12-0.77-2.17-1.69-2.88c-0.93-0.72-2.12-0.73-3.25-0.66c-1.18,0.08-2.35,0.28-3.53,0.36
							c-1.81,0.13-3.63,0.26-5.44,0.39c-4.06,0.29-8.13,0.59-12.19,0.88c-0.41,0.03-0.71,0.37-0.84,0.74
							c-0.08,0.21-0.16,0.87,0.25,0.84c3.48-0.25,6.97-0.5,10.45-0.75c3.06-0.22,6.13-0.35,9.18-0.72c1.14-0.14,2.4-0.34,3.54-0.08
							c1.01,0.23,1.75,1.17,2.1,2.1c0.7,1.91,0.27,3.85,0.17,5.8c-0.14,2.84-0.34,5.68-0.61,8.52c-0.02,0.27-0.01,0.57,0.31,0.63
							c6.44,1.23,12.9,2.59,19.06,4.9c6,2.25,11.79,5.48,16.07,10.35c2.51,2.86,4.4,6.19,5.64,9.79c0.25-0.43,0.5-0.86,0.75-1.29
							c-7.01,1.6-14.08,2.92-21.2,3.93c-7.17,1.02-14.38,1.74-21.61,2.15c-7.17,0.41-14.36,0.52-21.54,0.34
							c-7.18-0.19-14.36-0.67-21.5-1.45c-7.15-0.78-14.26-1.86-21.31-3.24c-0.9-0.17-1.79-0.35-2.68-0.54
							c0.05,0.35,0.1,0.7,0.15,1.05c2.98-6.15,7.34-11.55,12.66-15.83c5.28-4.25,11.46-7.39,18.03-9.06
							c3.71-0.94,7.53-1.41,11.35-1.35c0.55,0.01,0.89-0.66,0.92-1.13c0.25-4.58,0.49-9.17,0.74-13.75
							c0.02-0.39-0.33-0.52-0.63-0.37C59.9,119.56,59.69,120.03,59.66,120.43L59.66,120.43z"/>
					</g>
				</g>
				<g>
					<path class="st7" d="M31.7,52.23c-4.71-1.55-10.88-0.6-13.79,3.49s-3.72,11.28-0.85,15.41c2.87,4.13,9.78,5.8,14.5,4.32
						c5.08,14.96,17.63,32.15,30.12,37.18c2.6,1.05,0.14,4.8,1.29,4.62c4.84-0.76,15.11-1.92,20.32-0.53
						c0.09-1.22-0.8-3.12,0.27-3.66c15.38-7.81,25.95-21.68,29.77-38.01c5.94,0.78,12.2,0.69,14.54-3.21
						c2.74-4.56,1.56-12.48-2.02-16.38c-3.58-3.91-9.83-4.88-14.37-2.23c-2.96-6.83-4.55-14.35-6.09-21.66
						c-3.44,3.17-9.27,4.62-13.64,3.07c-4.37-1.56-7.77-5.67-8.56-10.35c-2.38,4.39-7.99,8.79-12.88,9.07
						c-4.89,0.28-8.5-3.9-11.35-8c-0.98,4.38-4.69,8.5-8.83,9.97c-4.14,1.47-9,0.61-12.42-2.22c-1.66,6.47-3.32,12.93-4.98,19.4"/>
					<g>
						<path class="st7" d="M32.13,51.49c-3.08-0.99-6.54-1.04-9.59,0.12c-1.55,0.59-2.95,1.46-4.1,2.65
							c-1.14,1.18-1.95,2.65-2.55,4.16c-1.26,3.16-1.66,6.85-0.8,10.17c0.81,3.1,2.95,5.39,5.83,6.73c3.2,1.49,7.09,1.96,10.49,0.91
							c-0.15-0.09-0.3-0.17-0.45-0.26c1.82,5.35,4.35,10.46,7.32,15.25c3,4.84,6.5,9.42,10.55,13.43c3.57,3.54,7.62,6.72,12.28,8.67
							c0.88,0.37,1.24,0.96,1.18,1.91c-0.04,0.69-0.31,1.38-0.28,2.07c0.05,0.96,0.89,0.7,1.56,0.6c1.03-0.15,2.07-0.29,3.11-0.41
							c2.83-0.33,5.67-0.57,8.52-0.62c2.58-0.05,5.27-0.02,7.78,0.64c0.53,0.14,0.9-0.76,0.92-1.13c0.04-0.77-0.2-1.52-0.25-2.29
							c-0.01-0.11,0.02-0.27-0.01-0.38c-0.09-0.3,0.13,0.12-0.08,0.06c0.1,0.03,0.51-0.26,0.6-0.31c0.23-0.12,0.45-0.24,0.67-0.36
							c1.6-0.86,3.16-1.8,4.68-2.81c2.98-1.99,5.78-4.24,8.34-6.74c5.08-4.97,9.21-10.85,12.19-17.3c1.68-3.64,2.97-7.45,3.88-11.34
							c-0.3,0.31-0.6,0.63-0.9,0.94c3.52,0.46,7.4,0.79,10.84-0.36c1.44-0.48,2.78-1.26,3.77-2.43c1.03-1.21,1.63-2.76,1.99-4.29
							c0.75-3.19,0.39-6.71-0.77-9.76c-1.18-3.1-3.31-5.65-6.4-7c-3.51-1.53-7.66-1.4-10.99,0.51c0.2,0.07,0.41,0.13,0.61,0.2
							c-2.98-6.92-4.54-14.32-6.09-21.66c-0.08-0.4-0.55-0.28-0.77-0.09c-2.68,2.44-6.49,3.7-10.09,3.49
							c-3.58-0.21-6.81-2.19-8.92-5.05c-1.24-1.67-2.06-3.59-2.42-5.63c-0.11-0.66-0.9-0.01-1.05,0.26
							c-1.86,3.38-5.11,6.21-8.66,7.68c-1.7,0.71-3.58,1.08-5.41,0.74c-1.85-0.35-3.49-1.39-4.88-2.62
							c-1.67-1.48-3.03-3.29-4.3-5.11c-0.41-0.58-1.06,0.48-1.14,0.8c-0.73,3.16-2.9,6.01-5.6,7.78c-2.81,1.84-6.22,2.37-9.48,1.62
							c-1.88-0.44-3.64-1.32-5.13-2.54c-0.45-0.37-0.96,0.62-1.04,0.9c-1.66,6.47-3.32,12.93-4.98,19.4
							c-0.08,0.33,0.09,0.69,0.46,0.62c0.41-0.07,0.66-0.58,0.75-0.93c1.66-6.47,3.32-12.93,4.98-19.4c-0.34,0.3-0.69,0.6-1.04,0.9
							c2.88,2.35,6.71,3.36,10.38,2.82c3.68-0.54,6.93-2.8,9.15-5.73c1.3-1.71,2.27-3.65,2.75-5.75c-0.38,0.27-0.76,0.54-1.14,0.8
							c2.29,3.27,5.12,6.9,9.19,7.91c4.09,1.01,8.4-1.33,11.43-3.89c1.82-1.54,3.44-3.39,4.59-5.49c-0.35,0.09-0.7,0.17-1.05,0.26
							c0.66,3.8,2.97,7.27,6.22,9.35c3.3,2.11,7.31,2.35,11.01,1.22c2.11-0.65,4.1-1.71,5.74-3.2c-0.26-0.03-0.51-0.06-0.77-0.09
							c1.55,7.34,3.11,14.74,6.09,21.66c0.11,0.27,0.35,0.35,0.61,0.2c2.71-1.55,6.04-1.8,9-0.86c2.91,0.92,5.23,2.93,6.6,5.65
							c1.34,2.65,1.92,5.86,1.59,8.81c-0.15,1.34-0.48,2.69-1.16,3.86c-0.64,1.11-1.68,1.86-2.85,2.34
							c-3.42,1.39-7.49,0.98-11.05,0.51c-0.47-0.06-0.82,0.58-0.9,0.94c-1.62,6.87-4.5,13.45-8.54,19.25
							c-4.06,5.82-9.23,10.85-15.17,14.73c-1.72,1.12-3.5,2.13-5.32,3.08c-0.84,0.44-1.27,1.24-1.29,2.18
							c-0.02,0.88,0.3,1.73,0.26,2.62c0.31-0.38,0.61-0.76,0.92-1.13c-2.16-0.57-4.44-0.65-6.67-0.65c-2.57,0-5.14,0.17-7.7,0.42
							c-1.16,0.11-2.33,0.24-3.49,0.4c-0.47,0.06-0.93,0.12-1.4,0.19c-0.23,0.03-0.46,0.07-0.69,0.1c-0.11,0.02-0.22,0.03-0.33,0.05
							c-0.07,0.01-0.14,0.02-0.21,0.03c0.02,0,0.03,0,0.05-0.01c0.01-0.03,0.15,0.15,0.1,0.15c-0.02,0,0.01-0.25,0.02-0.27
							c0.06-0.37,0.14-0.73,0.19-1.1c0.12-0.86,0.15-1.83-0.36-2.58c-0.58-0.84-1.81-1.11-2.69-1.54c-1.07-0.52-2.1-1.11-3.1-1.75
							c-2.11-1.35-4.09-2.92-5.94-4.61c-4.17-3.83-7.76-8.3-10.86-13.02c-3.44-5.24-6.34-10.88-8.37-16.82
							c-0.07-0.2-0.24-0.33-0.45-0.26c-2.75,0.84-5.83,0.63-8.53-0.3c-2.67-0.92-5.19-2.62-6.35-5.27c-1.22-2.8-1.15-6.1-0.37-9
							c0.76-2.84,2.31-5.29,5-6.6c2.98-1.46,6.68-1.54,9.82-0.53C31.96,53.2,32.76,51.69,32.13,51.49L32.13,51.49z"/>
					</g>
				</g>
				<ellipse class="st8" cx="46.47" cy="78.38" rx="6.69" ry="6.86"/>
				<ellipse class="st8" cx="98.38" cy="78.85" rx="6.69" ry="6.86"/>
				<path class="st9" d="M59.23,86.24c-0.36,3.11,2.97,6.16,6.64,6.07c3.67-0.09,6.81-3.28,6.24-6.37
					c-0.13-0.73-1.29-0.97-2.11-0.73c-0.82,0.24-1.48,0.78-2.3,1.03c-0.82,0.25-1.97,0.02-2.13-0.71c-0.27-1.29-1.86-2.27-3.39-2.08
					C60.68,83.64,59.38,84.96,59.23,86.24z"/>
				<g>
					<g>
						<path d="M32.57,51.63c-6.08-2.64-13.5,0.15-16.54,5.99c-1.55,2.97-2.04,6.45-1.36,9.73c0.67,3.2,2.55,5.99,5.25,7.82
							c2.96,2.01,6.74,2.76,10.22,1.88c0.39-0.1,0.69-0.55,0.75-0.93c0.05-0.31-0.06-0.72-0.46-0.62
							c-5.77,1.46-12.16-1.96-14.12-7.58c-0.97-2.79-0.94-5.92,0.12-8.68c1.04-2.71,3.12-4.81,5.76-6c2.98-1.34,6.52-1.42,9.52-0.12
							C32.37,53.41,33.2,51.9,32.57,51.63L32.57,51.63z"/>
					</g>
				</g>
				<g>
					<g>
						<path d="M111.6,52.75c2.94-0.28,5.98-0.52,8.9,0.09c2.78,0.58,5.11,2.13,6.48,4.64c0.87,1.61,1.33,3.45,1.56,5.26
							c0.24,1.88,0.33,3.84,0.01,5.72c-0.12,0.7-0.28,1.34-0.54,1.99c-0.21,0.52-0.54,1.11-0.84,1.5c-0.7,0.9-1.63,1.58-2.77,2.07
							c-3.21,1.37-7.04,1.11-10.43,0.79c-0.67-0.06-1.35,1.51-0.59,1.58c3.35,0.32,6.99,0.52,10.21-0.61c2.85-1,4.95-3.16,5.81-6.07
							c0.54-1.81,0.66-3.71,0.57-5.59c-0.1-2.14-0.42-4.33-1.18-6.34c-1.13-2.95-3.27-5.18-6.3-6.15c-3.4-1.08-7.08-0.76-10.58-0.42
							C111.26,51.27,110.71,52.84,111.6,52.75L111.6,52.75z"/>
					</g>
				</g>
				<g>
					<g>
						<path d="M29.68,76.79c2.42,5.53,5.2,10.93,8.53,15.97c2.72,4.11,5.8,8,9.37,11.4c2.98,2.84,6.28,5.37,9.93,7.29
							c3.14,1.66,6.54,2.86,10.04,3.47c3.3,0.57,6.67,0.59,9.98,0.1c3.28-0.49,6.46-1.5,9.46-2.89c3.1-1.44,6-3.32,8.65-5.48
							c2.78-2.27,5.29-4.87,7.51-7.68c2.32-2.94,4.34-6.13,6.03-9.47c1.77-3.51,3.19-7.18,4.24-10.97c0.26-0.92,0.49-1.86,0.71-2.79
							c0.07-0.33-0.08-0.69-0.46-0.62c-0.4,0.07-0.67,0.58-0.75,0.93c-0.84,3.67-2.04,7.26-3.58,10.72
							c-1.41,3.16-3.33,6.53-5.33,9.33c-2.06,2.88-4.36,5.5-6.94,7.84c-2.49,2.26-5.15,4.19-8.11,5.78
							c-2.83,1.53-5.85,2.68-8.99,3.37c-3.14,0.69-6.36,0.89-9.56,0.58c-3.39-0.33-6.7-1.23-9.81-2.61
							c-3.56-1.58-6.84-3.74-9.81-6.25c-3.52-2.98-6.61-6.48-9.33-10.19c-3.34-4.56-6.17-9.48-8.63-14.56
							c-0.68-1.42-1.34-2.84-1.97-4.28C30.52,74.95,29.42,76.2,29.68,76.79L29.68,76.79z"/>
					</g>
				</g>
				<g>
					<g>
						<path d="M118.9,60.19c1.76,1.56,2.77,3.88,2.77,6.22c0,0.38,0.31,0.52,0.63,0.37c0.36-0.18,0.61-0.66,0.61-1.06
							c-0.01-2.69-1.15-5.24-3.16-7.03C119.27,58.26,118.35,59.71,118.9,60.19L118.9,60.19z"/>
					</g>
				</g>
				<g>
					<g>
						<path d="M23.76,64.54c-0.05-2.32,1.07-4.57,3.06-5.8c0.34-0.21,0.63-0.64,0.61-1.06c-0.02-0.35-0.3-0.57-0.63-0.37
							c-2.68,1.67-4.35,4.76-4.28,7.92c0.01,0.38,0.31,0.53,0.63,0.37C23.5,65.42,23.77,64.93,23.76,64.54L23.76,64.54z"/>
					</g>
				</g>
				<g>
					<g>
						<path d="M49.76,41.17c1.99-1.49,4.36-2.38,6.82-2.65c0.64-0.07,1.18-1.65,0.29-1.55c-2.72,0.3-5.27,1.36-7.45,3
							c-0.29,0.22-0.55,0.75-0.43,1.11C49.12,41.48,49.5,41.37,49.76,41.17L49.76,41.17z"/>
					</g>
				</g>
				<g>
					<g>
						<path d="M86.5,38.78c2.95-0.57,6.09,0.48,8.16,2.65c0.54,0.57,1.52-0.83,1.07-1.3c-2.29-2.41-5.66-3.52-8.93-2.89
							C86.16,37.35,85.63,38.95,86.5,38.78L86.5,38.78z"/>
					</g>
				</g>
				<g>
					<g>
						<path d="M59.44,49.43c0.12-1.31,0.16-3.75-1.5-4.18c-1.46-0.38-2.48,1.37-2.78,2.53c-0.28,1.05-0.19,2.19-0.06,3.26
							c0.1,0.86,0.24,1.73,0.63,2.51c0.21,0.42,0.53,0.86,1.02,0.94c0.54,0.09,1.02-0.27,1.37-0.64c1.17-1.26,1.4-3.26,1.37-4.9
							c-0.01-0.38-0.31-0.53-0.63-0.37c-0.35,0.18-0.62,0.67-0.61,1.06c0.01,0.64-0.02,1.28-0.15,1.91
							c-0.1,0.47-0.24,0.86-0.41,1.16c-0.12,0.22,0.06-0.06-0.07,0.1c-0.02,0.03-0.05,0.06-0.07,0.09
							c-0.08,0.09,0.15-0.13,0.01-0.02c-0.14,0.12,0.05-0.01-0.04,0.03c0.05-0.02-0.04,0.02-0.05,0.02c-0.04,0-0.16-0.03-0.19-0.05
							c-0.17-0.1-0.19-0.14-0.31-0.32c-0.29-0.43-0.41-0.97-0.51-1.47c-0.17-0.86-0.25-1.78-0.23-2.66
							c0.01-0.58,0.12-1.07,0.37-1.43c-0.13,0.19,0.16-0.15,0,0c0.04-0.04,0.08-0.08,0.13-0.11c0.1-0.08-0.14,0.09,0.03-0.02
							c0.08-0.05,0.22-0.09,0.31-0.09c0.39,0.01,0.71,0.32,0.9,0.72c0.32,0.68,0.33,1.51,0.26,2.24
							C58.13,50.86,59.37,50.18,59.44,49.43L59.44,49.43z"/>
					</g>
				</g>
				<g>
					<path d="M58.84,49.58c0.5-4.86-3.35-4.56-3.23-0.5c0.21,7.19,3.39,5,3.25,0.21"/>
					<g>
						<path d="M59.44,49.43c0.12-1.31,0.16-3.75-1.5-4.18c-1.46-0.38-2.48,1.37-2.78,2.53c-0.28,1.05-0.19,2.19-0.06,3.26
							c0.1,0.86,0.24,1.73,0.63,2.51c0.21,0.42,0.53,0.86,1.02,0.94c0.54,0.09,1.02-0.27,1.37-0.64c1.17-1.26,1.4-3.26,1.37-4.9
							c-0.01-0.38-0.31-0.53-0.63-0.37c-0.35,0.18-0.62,0.67-0.61,1.06c0.01,0.64-0.02,1.28-0.15,1.91
							c-0.1,0.47-0.24,0.86-0.41,1.16c-0.12,0.22,0.06-0.06-0.07,0.1c-0.02,0.03-0.05,0.06-0.07,0.09
							c-0.08,0.09,0.15-0.13,0.01-0.02c-0.14,0.12,0.05-0.01-0.04,0.03c0.05-0.02-0.04,0.02-0.05,0.02c-0.04,0-0.16-0.03-0.19-0.05
							c-0.17-0.1-0.19-0.14-0.31-0.32c-0.29-0.43-0.41-0.97-0.51-1.47c-0.17-0.86-0.25-1.78-0.23-2.66
							c0.01-0.58,0.12-1.07,0.37-1.43c-0.13,0.19,0.16-0.15,0,0c0.04-0.04,0.08-0.08,0.13-0.11c0.1-0.08-0.14,0.09,0.03-0.02
							c0.08-0.05,0.22-0.09,0.31-0.09c0.39,0.01,0.71,0.32,0.9,0.72c0.32,0.68,0.33,1.51,0.26,2.24
							C58.13,50.86,59.37,50.18,59.44,49.43L59.44,49.43z"/>
					</g>
				</g>
				<g>
					<path d="M89.03,49.93c0.5-4.86-3.35-4.56-3.23-0.5c0.21,7.19,3.39,5,3.25,0.21"/>
					<g>
						<path d="M89.63,49.78c0.12-1.31,0.16-3.75-1.5-4.18c-1.46-0.38-2.48,1.37-2.78,2.53c-0.28,1.05-0.19,2.19-0.06,3.26
							c0.1,0.86,0.24,1.73,0.63,2.51c0.21,0.42,0.53,0.86,1.02,0.94c0.54,0.09,1.02-0.27,1.37-0.64c1.17-1.26,1.4-3.26,1.37-4.9
							c-0.01-0.38-0.31-0.53-0.63-0.37c-0.35,0.18-0.62,0.67-0.61,1.06c0.01,0.64-0.02,1.28-0.15,1.91
							c-0.1,0.47-0.24,0.86-0.41,1.16c-0.12,0.22,0.06-0.06-0.07,0.1c-0.02,0.03-0.05,0.06-0.07,0.09
							c-0.08,0.09,0.15-0.13,0.01-0.02c-0.14,0.12,0.05-0.01-0.04,0.03c0.05-0.02-0.04,0.02-0.05,0.02c-0.04,0-0.16-0.03-0.19-0.05
							c-0.17-0.1-0.19-0.14-0.31-0.32c-0.29-0.43-0.41-0.97-0.51-1.47c-0.17-0.86-0.25-1.78-0.23-2.66
							c0.01-0.58,0.12-1.07,0.37-1.43c-0.13,0.19,0.16-0.15,0,0c0.04-0.04,0.08-0.08,0.13-0.11c0.1-0.08-0.14,0.09,0.03-0.02
							c0.08-0.05,0.22-0.09,0.31-0.09c0.39,0.01,0.71,0.32,0.9,0.72c0.32,0.68,0.33,1.51,0.26,2.24
							C88.32,51.2,89.56,50.52,89.63,49.78L89.63,49.78z"/>
					</g>
				</g>
				<g>
					<g>
						<path d="M70.32,62.53c2.12-1.4,5.02-0.01,5.33,2.49c0.13,1.05-0.2,2.1-1.1,2.69c-0.96,0.63-2.23,0.73-3.27,0.26
							c-0.66-0.29-1.49,1.21-0.86,1.49c2.39,1.07,5.1-0.31,6.1-2.63c0.97-2.26,0.18-5.29-2.29-6.17c-1.31-0.47-2.76-0.33-3.93,0.44
							c-0.34,0.22-0.63,0.63-0.61,1.06C69.7,62.51,69.99,62.75,70.32,62.53L70.32,62.53z"/>
					</g>
				</g>
				<g>
					<g>
						<path d="M32.94,51.75c1.83-6.66,3.66-13.31,5.49-19.97c-0.4,0.22-0.8,0.44-1.2,0.67c1.47,3.33,5.08,4.79,8.56,4.53
							c4.2-0.32,7.53-3.07,10.01-6.31c1.56-2.04,2.84-4.26,4.1-6.49c-0.36,0.03-0.71,0.06-1.07,0.09c0.16,4.26,3.53,7.42,7.44,8.57
							c4.51,1.32,9.06-0.55,12.58-3.35c2.2-1.74,4.08-3.87,5.77-6.1c-0.31-0.03-0.63-0.07-0.94-0.1c0.33,3.98,2.41,7.7,5.65,10.05
							c3.23,2.34,7.44,2.9,11.22,1.7c2.22-0.7,4.18-1.95,5.79-3.63c-0.31-0.03-0.63-0.07-0.94-0.1c0.95,7.16,2.79,14.18,5.54,20.86
							c0.34,0.82,1.44-0.43,1.2-1.03c-2.7-6.57-4.56-13.48-5.5-20.52c-0.08-0.63-0.6-0.45-0.94-0.1c-2.52,2.63-6.33,3.88-9.92,3.5
							c-3.68-0.39-6.89-2.59-8.88-5.67c-1.11-1.72-1.81-3.7-1.98-5.75c-0.05-0.61-0.65-0.49-0.94-0.1
							c-2.69,3.55-6.01,7.06-10.33,8.55c-1.92,0.66-3.91,0.86-5.91,0.44c-1.84-0.39-3.61-1.25-5.01-2.51
							c-1.55-1.39-2.59-3.3-2.67-5.39c-0.03-0.78-0.84-0.31-1.07,0.09c-1.99,3.52-4.06,7.24-7.37,9.7c-2.66,1.98-6.27,2.71-9.41,1.5
							c-1.65-0.63-3.07-1.8-3.8-3.43c-0.35-0.79-1.09,0.27-1.2,0.67c-1.83,6.66-3.66,13.31-5.49,19.97
							c-0.09,0.33,0.09,0.69,0.46,0.62C32.6,52.61,32.84,52.11,32.94,51.75L32.94,51.75z"/>
					</g>
				</g>
				<g>
					<g>
						<path d="M50.7,106.52c-1.38,1.74-3.44,2.93-5.72,2.59c-2.09-0.31-3.65-1.9-4.25-3.88c-0.21-0.71-1.04,0.09-1.15,0.46
							c-0.81,2.82-2.91,4.95-5.83,5.78c-2.9,0.83-6.07,0.26-8.53-1.48c-1.61-1.14-2.84-2.76-3.64-4.55
							c-0.37-0.84-1.22,0.38-1.22,0.86c-0.01,2.07-1.39,3.75-3.18,4.66c-1.62,0.83-3.51,0.94-5.21,0.3
							c-3.16-1.18-5.27-4.15-5.99-7.36c-0.86-3.8,0.19-7.54,1.63-11.04c1.13-2.75,2.29-5.49,3.46-8.22
							c1.9-4.44,3.82-8.88,5.91-13.24c0.13-0.28,0.33-0.79-0.02-1.01c-0.32-0.19-0.76,0.23-0.88,0.49c-2,4.16-3.84,8.38-5.66,12.62
							c-1.31,3.06-2.6,6.12-3.87,9.19c-1.57,3.81-2.66,7.86-1.81,11.99c0.71,3.45,2.96,6.77,6.34,8.05
							c1.91,0.72,3.91,0.65,5.78-0.19c2.16-0.96,3.9-2.9,4.52-5.19c0.16-0.57,0.23-1.16,0.23-1.75c-0.41,0.29-0.81,0.57-1.22,0.86
							c1.5,3.38,4.31,5.98,7.99,6.74c3.19,0.66,6.64-0.21,9.1-2.35c1.53-1.33,2.64-3.11,3.2-5.06c-0.38,0.15-0.76,0.31-1.15,0.46
							c0.7,2.31,2.52,4.13,4.96,4.45c2.72,0.35,5.21-1.22,6.84-3.28c0.21-0.26,0.46-0.78,0.22-1.1
							C51.31,106.01,50.87,106.3,50.7,106.52L50.7,106.52z"/>
					</g>
				</g>
				<g>
					<g>
						<path d="M22.7,52.06c4.27-8.88,9.08-17.61,15.47-25.17c5.93-7.02,13.34-13.01,21.98-16.32c4.28-1.64,8.83-2.6,13.41-2.65
							c4.56-0.06,9.12,0.71,13.43,2.17c4.36,1.48,8.49,3.62,12.23,6.29c3.65,2.6,6.99,5.68,9.61,9.33
							c4.94,6.88,7.01,15.22,9.43,23.19c0.33,1.1,0.68,2.2,1.03,3.3c0.27,0.83,1.39-0.41,1.2-1.03c-2.63-8.23-4.5-16.96-9.04-24.43
							c-2.31-3.81-5.33-7.06-8.77-9.88c-3.65-2.99-7.74-5.46-12.1-7.25c-4.28-1.76-8.84-2.9-13.46-3.2
							c-4.61-0.3-9.24,0.25-13.66,1.57c-9.04,2.7-16.99,8.34-23.41,15.17c-6.91,7.36-12.14,16.12-16.64,25.1
							c-0.55,1.09-1.08,2.18-1.61,3.28c-0.13,0.28-0.33,0.79,0.02,1.01C22.14,52.74,22.58,52.32,22.7,52.06L22.7,52.06z"/>
					</g>
				</g>
				<g>
					<g>
						<path d="M127.01,72.69c3,7.79,6.97,15.19,9.5,23.17c1.01,3.19,2.04,6.77,1.59,10.15c-0.26,1.93-1.16,3.9-2.99,4.79
							c-0.05,0.02-0.25,0.12-0.2,0.1c0.05-0.02-0.18,0.07-0.23,0.08c-0.22,0.07-0.44,0.13-0.66,0.18c-0.5,0.1-0.91,0.13-1.43,0.11
							c-3.97-0.22-6.5-4.06-7.94-7.34c-0.14-0.32-0.42-0.33-0.69-0.14c-0.32,0.22-0.52,0.61-0.53,1c-0.12,3.24-2.24,6.15-5.17,7.48
							c-3.09,1.4-6.66,0.5-9.15-1.67c-1.43-1.25-2.46-2.93-2.9-4.78c-0.18-0.75-1.03,0.15-1.15,0.46c-0.8,2.22-2.84,3.84-5.18,4.15
							c-2.52,0.34-5.1-0.94-6.53-3c-0.43-0.62-1.46,0.75-1.07,1.3c1.67,2.41,4.69,3.73,7.59,3.2c2.9-0.53,5.31-2.83,6.29-5.56
							c-0.38,0.15-0.76,0.31-1.15,0.46c0.87,3.69,3.96,6.66,7.66,7.47c3.78,0.83,7.6-1.06,9.82-4.12c1.3-1.79,2.1-3.89,2.18-6.11
							c-0.41,0.29-0.81,0.57-1.22,0.86c1.46,3.33,3.81,7,7.65,7.77c1.06,0.21,2.21,0.16,3.24-0.18c1.9-0.62,3.29-2.17,4.12-3.94
							c1.64-3.5,0.93-7.61,0-11.21c-1.12-4.3-2.82-8.44-4.56-12.52c-1.89-4.41-3.96-8.74-5.68-13.22
							C127.89,70.84,126.77,72.09,127.01,72.69L127.01,72.69z"/>
					</g>
				</g>
				<g>
					<g>
						<path d="M61.05,112.98c0.11,1.52-0.11,3.04,0,4.56c0.03,0.37,0.3,0.53,0.63,0.37c0.34-0.17,0.64-0.67,0.61-1.06
							c-0.11-1.52,0.11-3.04,0-4.56c-0.03-0.37-0.3-0.53-0.63-0.37C61.32,112.09,61.03,112.6,61.05,112.98L61.05,112.98z"/>
					</g>
				</g>
				<g>
					<g>
						<path d="M82.8,114.33c0,0.79,0,1.57,0,2.36c0,0.38,0.32,0.53,0.63,0.37c0.36-0.18,0.61-0.66,0.61-1.06c0-0.79,0-1.57,0-2.36
							c0-0.38-0.32-0.53-0.63-0.37C83.05,113.46,82.8,113.93,82.8,114.33L82.8,114.33z"/>
					</g>
				</g>
				<g>
					<g>
						<path d="M59.76,132.05c0.2-3.77,0.39-7.53,0.59-11.3c0.03-0.55-0.04-1.4,0.48-1.75c0.53-0.36,1.29-0.37,1.91-0.39
							c1.9-0.06,3.81-0.12,5.71-0.18c3.81-0.12,7.62-0.23,11.43-0.35c0.98-0.03,1.97-0.06,2.96-0.09c0.68-0.02,1.52-0.06,2.06,0.43
							c0.52,0.48,0.58,1.27,0.61,1.93c0.03,0.85,0.04,1.7,0.07,2.54c0.1,3.11,0.36,6.31-0.05,9.41c-0.13,1-0.35,2.04-0.85,2.83
							c-0.06,0.09,0,0,0.01-0.01c-0.03,0.04-0.06,0.08-0.09,0.12c-0.05,0.07-0.11,0.13-0.16,0.2c-0.06,0.07-0.11,0.13-0.17,0.2
							c-0.02,0.03-0.05,0.06-0.08,0.08c-0.1,0.1,0.14-0.13-0.04,0.04c-0.28,0.27-0.57,0.51-0.88,0.74c-1.35,0.96-3.17,1.6-4.86,1.97
							c-2.07,0.46-4.21,0.6-6.32,0.47c-4.2-0.26-8.72-1.61-11.62-4.82c-0.35-0.39-0.67-0.8-0.97-1.23c-0.43-0.62-1.45,0.75-1.07,1.3
							c2.68,3.9,7.43,5.75,11.99,6.24c2.3,0.25,4.66,0.17,6.93-0.25c1.98-0.36,3.99-0.99,5.69-2.09c0.76-0.49,1.46-1.06,2.04-1.75
							c0.74-0.89,1.17-1.95,1.44-3.06c0.72-3.04,0.46-6.33,0.37-9.42c-0.03-0.98-0.06-1.97-0.09-2.95
							c-0.02-0.83,0.01-1.67-0.17-2.49c-0.16-0.71-0.55-1.4-1.23-1.73c-0.76-0.36-1.63-0.28-2.44-0.26
							c-4.11,0.13-8.21,0.25-12.32,0.38c-2.04,0.06-4.07,0.12-6.11,0.19c-1.57,0.05-3.4-0.08-4.5,1.26
							c-0.59,0.72-0.79,1.62-0.86,2.52c-0.08,0.97-0.11,1.94-0.16,2.9c-0.11,2.01-0.21,4.03-0.32,6.04
							c-0.05,1.01-0.11,2.01-0.16,3.02c-0.02,0.39,0.33,0.52,0.63,0.37C59.53,132.92,59.74,132.45,59.76,132.05L59.76,132.05z"/>
					</g>
				</g>
				<g>
					<g>
						<path d="M59.1,132.76c-7.57,1.36-15.2,2.76-22.35,5.68c-3.21,1.31-6.21,2.94-8.89,5.15c-2.6,2.15-4.88,4.69-6.8,7.46
							c-2.16,3.12-3.91,6.55-5.08,10.17c-0.09,0.29-0.15,0.77,0.25,0.84c0.37,0.06,0.75-0.44,0.84-0.74
							c1.97-6.08,5.59-11.71,10.41-15.93c5.3-4.63,12.18-6.91,18.91-8.57c4.1-1.01,8.25-1.76,12.41-2.51
							C59.44,134.2,59.98,132.6,59.1,132.76L59.1,132.76z"/>
					</g>
				</g>
				<g>
					<g>
						<path d="M85.5,134.7c6.96,1.18,14.02,2.27,20.68,4.69c6.04,2.2,11.65,5.76,15.64,10.86c2.2,2.8,3.81,6.01,4.59,9.49
							c0.09,0.4,0.54,0.27,0.77,0.09c0.31-0.25,0.52-0.72,0.43-1.11c-1.42-6.33-5.54-11.68-10.66-15.53
							c-5.57-4.19-12.22-6.35-18.95-7.85c-3.94-0.88-7.92-1.54-11.9-2.21C85.44,133.01,84.73,134.57,85.5,134.7L85.5,134.7z"/>
					</g>
				</g>
				<g>
					<g>
						<path d="M16.24,162.06c7.1,1.46,14.25,2.63,21.45,3.48c7.23,0.86,14.49,1.41,21.76,1.65c7.24,0.24,14.48,0.18,21.71-0.19
							c7.25-0.37,14.48-1.04,21.67-2.01c7.18-0.97,14.32-2.25,21.39-3.83c0.89-0.2,1.78-0.4,2.68-0.61
							c0.63-0.15,1.15-1.75,0.29-1.55c-7.06,1.65-14.18,3.01-21.35,4.06c-7.15,1.05-14.35,1.79-21.56,2.23
							c-7.23,0.44-14.47,0.57-21.71,0.4c-7.24-0.17-14.47-0.65-21.67-1.43c-7.17-0.78-14.3-1.86-21.38-3.24
							c-0.9-0.18-1.79-0.36-2.69-0.54C16.18,160.35,15.47,161.9,16.24,162.06L16.24,162.06z"/>
					</g>
				</g>
				<g>
					<g>
						<path d="M64.38,118.81c0.13,6.55-0.36,13.11-0.23,19.66c0.01,0.38,0.31,0.53,0.63,0.37c0.36-0.18,0.62-0.67,0.61-1.06
							c-0.13-6.55,0.36-13.11,0.23-19.66c-0.01-0.38-0.31-0.53-0.63-0.37C64.64,117.93,64.38,118.42,64.38,118.81L64.38,118.81z"/>
					</g>
				</g>
				<g>
					<g>
						<path d="M69.68,118.81c0.22,5.5,0.32,11,0.49,16.5c0.04,1.48,0.09,2.97,0.15,4.45c0.01,0.38,0.31,0.53,0.63,0.37
							c0.35-0.17,0.63-0.67,0.61-1.06c-0.22-5.5-0.32-11-0.49-16.5c-0.04-1.48-0.09-2.97-0.15-4.45c-0.01-0.38-0.31-0.53-0.63-0.37
							C69.94,117.93,69.67,118.43,69.68,118.81L69.68,118.81z"/>
					</g>
				</g>
				<g>
					<g>
						<path d="M75.53,118.81c0.22,5.53,0.23,11.06,0.35,16.6c0.03,1.39,0.07,2.79,0.12,4.18c0.01,0.38,0.31,0.53,0.63,0.37
							c0.35-0.17,0.63-0.67,0.61-1.06c-0.22-5.53-0.23-11.06-0.35-16.6c-0.03-1.39-0.07-2.79-0.12-4.18
							c-0.01-0.38-0.31-0.53-0.63-0.37C75.79,117.93,75.51,118.43,75.53,118.81L75.53,118.81z"/>
					</g>
				</g>
				<g>
					<g>
						<path d="M80.91,117.6c0.03,6.71,0.65,13.39,0.98,20.09c0.02,0.37,0.3,0.53,0.63,0.37c0.35-0.17,0.63-0.67,0.61-1.06
							c-0.33-6.69-0.95-13.38-0.98-20.09c0-0.38-0.31-0.52-0.63-0.37C81.16,116.72,80.91,117.21,80.91,117.6L80.91,117.6z"/>
					</g>
				</g>
				<g>
					<g>
						<path d="M54.71,80.91c2.92,5.86,8.93,9.82,15.51,9.93c1.96,0.03,3.93-0.26,5.79-0.87c0.39-0.13,0.68-0.53,0.75-0.93
							c0.05-0.28-0.06-0.75-0.46-0.62c-6.25,2.04-13.19,0.2-17.64-4.62c-1.16-1.25-2.12-2.67-2.88-4.19
							c-0.18-0.36-0.7,0.02-0.85,0.2C54.67,80.11,54.52,80.54,54.71,80.91L54.71,80.91z"/>
					</g>
				</g>
				<ellipse class="st10" cx="25.36" cy="76.56" rx="3.7" ry="3.8"/>
				<ellipse class="st10" cx="25.36" cy="87.87" rx="3.7" ry="3.8"/>
				<ellipse class="st10" cx="25.36" cy="101.03" rx="3.7" ry="3.8"/>
				<g>
					<g>
						<path class="st11" d="M24.3,77.62c0.12,7.88,0.24,15.76,0.36,23.64c0.02,1.11,1.74,1.11,1.72,0
							c-0.12-7.88-0.24-15.76-0.36-23.64C26.01,76.51,24.28,76.51,24.3,77.62L24.3,77.62z"/>
					</g>
				</g>
				<g>
					<g>
						<path class="st11" d="M26.25,78.08c1.11,0,1.11-1.72,0-1.72C25.15,76.36,25.14,78.08,26.25,78.08L26.25,78.08z"/>
					</g>
				</g>
				<g>
					<g>
						<path class="st11" d="M26.25,78.08c1.11,0,1.11-1.72,0-1.72C25.15,76.36,25.14,78.08,26.25,78.08L26.25,78.08z"/>
					</g>
				</g>
				<g>
					<g>
						<path class="st11" d="M26.25,78.08c1.11,0,1.11-1.72,0-1.72C25.15,76.36,25.14,78.08,26.25,78.08L26.25,78.08z"/>
					</g>
				</g>
				<ellipse class="st10" cx="120.81" cy="74.58" rx="3.7" ry="3.8"/>
				<ellipse class="st10" cx="120.81" cy="85.9" rx="3.7" ry="3.8"/>
				<ellipse class="st10" cx="120.81" cy="99.05" rx="3.7" ry="3.8"/>
				<g>
					<g>
						<path class="st11" d="M119.75,75.64c0.12,7.88,0.24,15.76,0.36,23.64c0.02,1.11,1.74,1.11,1.72,0
							c-0.12-7.88-0.24-15.76-0.36-23.64C121.46,74.53,119.73,74.53,119.75,75.64L119.75,75.64z"/>
					</g>
				</g>
				<g>
					<g>
						<path class="st11" d="M121.71,76.1c1.11,0,1.11-1.72,0-1.72C120.6,74.38,120.59,76.1,121.71,76.1L121.71,76.1z"/>
					</g>
				</g>
				<g>
					<g>
						<path class="st11" d="M121.71,76.1c1.11,0,1.11-1.72,0-1.72C120.6,74.38,120.59,76.1,121.71,76.1L121.71,76.1z"/>
					</g>
				</g>
				<g>
					<g>
						<path class="st11" d="M121.71,76.1c1.11,0,1.11-1.72,0-1.72C120.6,74.38,120.59,76.1,121.71,76.1L121.71,76.1z"/>
					</g>
				</g>
				<ellipse class="st10" cx="57.87" cy="47.7" rx="0.62" ry="0.64"/>
				<ellipse class="st10" cx="88.62" cy="47.7" rx="0.62" ry="0.64"/>
				<path class="st12" d="M24.82,52.25c-4.79,0.97-8.75,5.28-9.42,10.24c-0.67,4.96,2.01,10.21,6.36,12.47
					C18.36,67.61,19.67,58.22,24.82,52.25z"/>
				<path class="st12" d="M16.9,71.52c-6.8,11.83-6.95,28.46-0.57,40.53c-3.18,0.75-6.7-0.27-9.02-2.63s-3.34-5.97-2.62-9.23
					C6.86,90.3,10.7,79.71,16.9,71.52z"/>
				<path class="st12" d="M30.62,76.13c4.41,11.79,12.9,26.35,23.7,32.4s22.55,8.21,35.88,1C59.28,120.66,37.38,87.28,30.62,76.13z"
					/>
				<path class="st12" d="M26.25,72.76c-6.54-1.05-5.65,8.84,0,7.6C24.16,78.55,23.19,74.22,26.25,72.76z"/>
				<path class="st12" d="M26.25,84.19c-6.78-0.5-5.47,8.29,0,7.37C24.61,91.22,25.04,84.74,26.25,84.19z"/>
				<path class="st12" d="M60.9,119.21c-3.99,5.23-3.21,13.63,1.67,17.99C61.87,131.16,61.17,125.13,60.9,119.21z"/>
				<path class="st12" d="M65.02,119.18c-0.16,5.66-0.32,11.32-0.48,16.98c-0.06,2.02,2.14,3.74,4.03,3.14
					C67.35,132.62,66.14,125.94,65.02,119.18z"/>
				<path class="st12" d="M69.89,119.54c0.18,6.71,0.35,13.41,0.53,20.12c1.51,0.11,3.03,0.22,4.54,0.32
					C73.34,133,71.71,126.02,69.89,119.54z"/>
				<path class="st12" d="M76.03,119.32c0.12,6.72,0.24,13.44,0.36,20.16c1.33-0.29,2.66-0.57,4-0.86
					C78.87,132.06,77.36,125.51,76.03,119.32z"/>
				<path class="st12" d="M81.4,118.91c0.32,5.99,0.65,11.98,0.97,17.96c1.07-0.62,2.14-1.24,3.21-1.87
					C84.26,129.55,82.93,124.1,81.4,118.91z"/>
				<path class="st12" d="M58.45,135.74c-8.73-0.81-17.7,1.31-25.2,5.97c-7.5,4.66-13.5,11.82-16.85,20.13
					c4.38,0.04,8.75,0.66,12.97,1.86C35.01,150.97,45.46,140.57,58.45,135.74z"/>
				<path class="st12" d="M113.75,77.25c0.03,13.08-6.92,25.95-17.74,32.86c-0.79,0.51-1.96,0.25-2.48-0.55
					c-0.52-0.8-0.31-2,0.45-2.56C103.65,99.87,110.48,88.82,113.75,77.25z"/>
				<path class="st12" d="M59.8,24.14c3.88,5.43,11.16,8.28,17.35,6.02c-2.95,2.18-6.92,2.84-10.39,1.73
					C63.29,30.78,60.62,27.44,59.8,24.14z"/>
				<path class="st12" d="M37.71,32.13c4.16,3.01,10.04,3.28,14.45,0.67c-1.37,2.48-4.1,4.1-6.88,4.08
					C42.5,36.86,39.79,35.21,37.71,32.13z"/>
				<path class="st12" d="M83.5,23.73c2.88,6.88,10.49,11.33,17.73,10.36c-3.37,2.11-7.85,2.21-11.29,0.24
					C86.49,32.37,84.2,28.41,83.5,23.73z"/>
				<path class="st12" d="M105.75,32.14c5.43,5.6,8.54,13.49,8.43,21.39C108.75,48,105.87,39.94,105.75,32.14z"/>
				<path class="st12" d="M27.35,97.83c-5.17-3.49-9.24,7-1.52,7C23.73,102.43,24.22,97.77,27.35,97.83z"/>
				<path class="st12" d="M121.7,71.14c-4.26-2.37-8.05,7.24,0,7.24C119.21,76.34,118.67,73.56,121.7,71.14z"/>
				<path class="st13" d="M121.91,82.27c-6.2-1.58-6.16,7.39-1.54,7.39C118.78,87.91,119.85,82.67,121.91,82.27z"/>
				<path class="st12" d="M121.91,95.24c-6.9-1.16-6.02,9.04-0.2,7.5C118.27,100.4,121.29,95.01,121.91,95.24z"/>
				<g class="st14">
					<g>
						<path class="st11" d="M77.49,12.31c5.6-0.11,11.39,1.06,16.52,3.55c4.91,2.39,9.23,6,12.06,10.7
							c1.47,2.44,2.48,5.12,2.92,7.94c0.12,0.78,2.94,0.61,2.84,0c-0.83-5.36-3.72-10.21-7.66-13.88c-4.41-4.11-10-6.74-15.83-8.14
							c-3.54-0.85-7.21-1.23-10.85-1.16c-0.31,0.01-1.4,0.01-1.42,0.5C76.04,12.27,77.26,12.31,77.49,12.31L77.49,12.31z"/>
					</g>
				</g>
				<g class="st14">
					<g>
						<path class="st11" d="M125.16,78.44c1.9,6.9,3.8,13.79,5.7,20.69c0.54,1.96,1.08,3.92,1.62,5.88c0.27,0.99,3.62,0.62,3.45,0
							c-1.9-6.9-3.8-13.79-5.7-20.69c-0.54-1.96-1.08-3.92-1.62-5.88C128.34,77.45,124.99,77.81,125.16,78.44L125.16,78.44z"/>
					</g>
				</g>
				<g class="st14">
					<g>
						<path class="st11" d="M115.69,55.57c0.2,0.01,0.4,0.03,0.61,0.05c0.19,0.02,0.2,0.02,0.04,0c0.1,0.02,0.2,0.03,0.3,0.05
							c0.15,0.03,0.3,0.06,0.45,0.09c0.1,0.02,0.2,0.05,0.3,0.07c-0.11-0.03-0.08-0.02,0.09,0.03c0.64,0.21,1.24,0.45,1.83,0.78
							c1.31,0.73,2.43,1.72,3.31,2.93c1.86,2.55,2.48,5.85,1.83,8.93c-0.14,0.67,3.24,0.98,3.45,0c0.71-3.32-0.11-6.96-2.24-9.62
							c-2.18-2.73-5.59-4.28-9.05-4.48c-0.44-0.03-0.89-0.03-1.33,0.06c-0.2,0.04-0.66,0.15-0.79,0.36
							C114.16,55.37,115.45,55.56,115.69,55.57L115.69,55.57z"/>
					</g>
				</g>
				<g class="st14">
					<g>
						<path class="st11" d="M108.68,77.53c-2.11,9.48-7.62,18.25-15.29,24.23c-2.14,1.67-4.44,3.12-6.87,4.33
							c-0.69,0.35,0.32,0.77,0.62,0.83c0.77,0.15,1.65,0.14,2.36-0.22c8.88-4.41,16.02-12.11,20-21.16c1.13-2.58,2.02-5.26,2.63-8
							C112.28,76.87,108.9,76.55,108.68,77.53L108.68,77.53z"/>
					</g>
				</g>
				<g class="st14">
					<g>
						<path class="st11" d="M101.3,38.41c0.88,4.94,2.26,9.77,4.08,14.45c0.08,0.2,0.64,0.33,0.79,0.36
							c0.42,0.09,0.9,0.11,1.33,0.06c0.38-0.04,1.43-0.16,1.2-0.74c-1.78-4.56-3.09-9.31-3.96-14.13
							C104.58,37.45,101.18,37.69,101.3,38.41L101.3,38.41z"/>
					</g>
				</g>
				<g class="st14">
					<g>
						<path class="st11" d="M95.78,33.05c2.92,0.21,5.93-0.55,7.92-2.8c0.43-0.49-1-0.72-1.2-0.74c-0.61-0.05-1.66-0.1-2.12,0.42
							c-0.57,0.65-1.26,1.19-2.04,1.55c-0.19,0.09-0.38,0.16-0.58,0.22c-0.29,0.1-0.22,0.07-0.47,0.13
							c-0.1,0.02-0.34,0.06-0.12,0.03c-0.1,0.01-0.2,0.02-0.31,0.03c0.25-0.03,0.07-0.01-0.08,0c-0.27,0.02,0.39,0.03-0.08,0
							c-0.44-0.03-0.9-0.03-1.33,0.06c-0.2,0.04-0.66,0.15-0.79,0.36C94.24,32.85,95.53,33.03,95.78,33.05L95.78,33.05z"/>
					</g>
				</g>
				<g class="st14">
					<g>
						<path class="st11" d="M74.84,28.53c2.28-1.02,4.32-2.42,6.05-4.23c0.45-0.47-1.01-0.73-1.2-0.74
							c-0.63-0.05-1.63-0.09-2.12,0.42c-1.47,1.54-3.22,2.83-5.16,3.7c-0.15,0.07-0.51,0.19-0.51,0.43c0,0.23,0.35,0.37,0.51,0.43
							C73.08,28.78,74.17,28.83,74.84,28.53L74.84,28.53z"/>
					</g>
				</g>
				<g class="st14">
					<g>
						<path class="st11" d="M51.12,30.65c0.97-0.86,1.93-1.72,2.9-2.58c0.49-0.43-1.05-0.73-1.2-0.74
							c-0.68-0.06-1.58-0.06-2.12,0.42c-0.97,0.86-1.93,1.72-2.9,2.58c-0.49,0.43,1.05,0.73,1.2,0.74
							C49.69,31.12,50.58,31.13,51.12,30.65L51.12,30.65z"/>
					</g>
				</g>
				<g class="st14">
					<g>
						<path class="st11" d="M30.92,39.8c-0.52,1.85-1.03,3.7-1.55,5.55c-0.17,0.61,3.17,1,3.45,0c0.52-1.85,1.03-3.7,1.55-5.55
							C34.54,39.2,31.2,38.81,30.92,39.8L30.92,39.8z"/>
					</g>
				</g>
				<g class="st14">
					<g>
						<path class="st11" d="M81.76,121.1c0.13,2.25,0.26,4.49,0.39,6.74c0.03,0.58,1.34,0.61,1.72,0.6c0.31,0,1.76-0.04,1.72-0.6
							c-0.13-2.25-0.26-4.49-0.39-6.74c-0.03-0.58-1.34-0.61-1.72-0.6C83.17,120.5,81.72,120.53,81.76,121.1L81.76,121.1z"/>
					</g>
				</g>
				<g class="st14">
					<g>
						<path class="st11" d="M76.34,120.9c0.13,2.38,0.26,4.76,0.39,7.14c0.03,0.58,1.35,0.61,1.72,0.6c0.31,0,1.76-0.04,1.72-0.6
							c-0.13-2.38-0.26-4.76-0.39-7.14c-0.03-0.58-1.35-0.61-1.72-0.6C77.75,120.3,76.31,120.33,76.34,120.9L76.34,120.9z"/>
					</g>
				</g>
				<g class="st14">
					<g>
						<path class="st11" d="M71.32,121.29c-0.19,2.18-0.39,4.36-0.58,6.54c-0.05,0.56,1.41,0.61,1.72,0.6
							c0.38-0.01,1.67-0.01,1.72-0.6c0.19-2.18,0.39-4.36,0.58-6.54c0.05-0.56-1.41-0.61-1.72-0.6
							C72.66,120.7,71.37,120.71,71.32,121.29L71.32,121.29z"/>
					</g>
				</g>
				<g class="st14">
					<g>
						<path class="st11" d="M66.29,120.9c0,1.98,0,3.97,0,5.95c0,0.57,1.37,0.61,1.72,0.6c0.34,0,1.72-0.03,1.72-0.6
							c0-1.98,0-3.97,0-5.95c0-0.57-1.37-0.61-1.72-0.6C67.68,120.3,66.29,120.32,66.29,120.9L66.29,120.9z"/>
					</g>
				</g>
				<g class="st14">
					<g>
						<path class="st11" d="M60.88,121.29c-0.06,1.12-0.13,2.25-0.19,3.37c-0.03,0.56,1.39,0.61,1.72,0.6
							c0.37-0.01,1.69-0.02,1.72-0.6c0.06-1.12,0.13-2.25,0.19-3.37c0.03-0.56-1.39-0.61-1.72-0.6
							C62.24,120.7,60.91,120.71,60.88,121.29L60.88,121.29z"/>
					</g>
				</g>
				<g class="st14">
					<g>
						<path class="st11" d="M87.84,139.35c0.29-0.02,0.58-0.04,0.87-0.06c-0.35,0.02,0.06,0,0.19,0c0.17,0,0.34-0.01,0.51-0.01
							c0.29,0,0.58,0,0.87,0c0.14,0,0.29,0,0.43,0.01c0.1,0,0.67,0.03,0.26,0.01c0.6,0.03,1.2,0.08,1.8,0.14
							c0.31,0.03,0.62,0.07,0.93,0.11c0.3,0.04-0.14-0.02,0.16,0.02c0.17,0.03,0.33,0.05,0.5,0.08c0.62,0.11,1.24,0.23,1.85,0.37
							c0.66,0.15,0.99,0.24,1.55,0.4c1.21,0.35,2.4,0.77,3.56,1.25c4.55,1.88,8.72,4.81,12.07,8.43c1.93,2.09,3.6,4.42,4.95,6.93
							c0.43,0.79,3.74,0.45,3.33-0.32c-2.51-4.68-6.14-8.68-10.44-11.77c-4.33-3.11-9.38-5.26-14.62-6.24
							c-3.2-0.6-6.45-0.77-9.7-0.52c-0.3,0.02-1.53,0.2-1.2,0.74C86.03,139.46,87.36,139.38,87.84,139.35L87.84,139.35z"/>
					</g>
				</g>
			</g>
		</g>
	</g>
</g>
<g id="Ebene_9_6_">
</g>
<g id="Ebene_3">
	<g>
		<g id="Ebene_2_Kopie_4_">
			<g>
				<path class="st23" d="M128.29,57.34c3.92,2.14,15.81,8.7,17.82,7.71c3.26-1.6,20.45-28.08,19.36-30.86
					c-2.28-5.83-50.33-33.99-56.95-31.83c-5.98,1.95-13.79,30.88-13.07,33.22c1.09,3.55,9.85,6.45,12.96,9.71
					c1.39,1.45,4.7,13.59,6.62,14.45c1.09,0.49,9.52-0.7,13.13-2.46"/>
				<g>
					<path class="st24" d="M128.16,57.61c3.84,2.1,7.7,4.21,11.7,5.99c0.96,0.43,1.94,0.84,2.93,1.19c0.74,0.26,1.49,0.52,2.27,0.62
						c0.47,0.06,0.95,0.08,1.36-0.17c0.31-0.19,0.58-0.44,0.84-0.69c0.85-0.82,1.59-1.74,2.32-2.66c1.04-1.32,2.04-2.67,3.01-4.04
						c2.34-3.3,4.56-6.69,6.69-10.13c1.87-3.03,3.7-6.11,5.23-9.32c0.47-1,0.95-2.02,1.22-3.1c0.08-0.31,0.15-0.64,0.11-0.96
						c-0.03-0.28-0.18-0.54-0.34-0.78c-0.45-0.69-1.07-1.3-1.67-1.87c-0.9-0.84-1.85-1.62-2.83-2.37c-2.71-2.11-5.57-4.05-8.45-5.93
						c-3.53-2.31-7.13-4.51-10.76-6.65c-3.78-2.22-7.6-4.35-11.47-6.39c-3.46-1.82-6.97-3.57-10.55-5.15
						c-2.6-1.14-5.27-2.27-8.03-2.94c-0.84-0.2-1.73-0.38-2.59-0.33c-0.9,0.05-1.62,0.51-2.24,1.08c-1,0.92-1.76,2.1-2.44,3.26
						c-0.91,1.55-1.68,3.17-2.4,4.82c-1.65,3.8-3,7.74-4.19,11.71c-0.98,3.25-1.89,6.54-2.49,9.88c-0.15,0.85-0.35,1.76-0.29,2.64
						c0.04,0.57,0.38,1.12,0.73,1.57c0.64,0.84,1.5,1.51,2.36,2.12c2.15,1.51,4.52,2.69,6.77,4.06c0.99,0.61,1.98,1.25,2.84,2.03
						c0.29,0.27,0.41,0.36,0.59,0.66c0.15,0.23,0.26,0.46,0.37,0.71c0.81,1.72,1.41,3.52,2.07,5.29c0.72,1.95,1.42,3.91,2.33,5.8
						c0.31,0.64,0.63,1.31,1.09,1.87c0.35,0.43,0.7,0.65,1.25,0.7c0.82,0.07,1.66-0.02,2.47-0.1c1.21-0.13,2.42-0.31,3.61-0.54
						c2.3-0.43,4.68-0.95,6.77-1.96c0.36-0.17,0-0.7-0.36-0.53c-1.01,0.49-2.1,0.82-3.19,1.12c-1.24,0.34-2.49,0.61-3.76,0.84
						c-1.14,0.21-2.3,0.37-3.46,0.48c-0.71,0.07-1.57,0.17-2.24,0.05c-0.04-0.01-0.08-0.02-0.13-0.03
						c-0.11-0.02,0.02,0.01-0.06-0.02c-0.03-0.02-0.07-0.04-0.1-0.06c0.07,0.05-0.06-0.06-0.09-0.08c-0.18-0.16-0.31-0.34-0.46-0.57
						c-0.43-0.65-0.76-1.35-1.07-2.05c-0.86-1.94-1.57-3.93-2.3-5.91c-0.61-1.64-1.16-3.33-1.97-4.9c-0.31-0.61-0.72-1.04-1.25-1.49
						c-0.89-0.75-1.89-1.39-2.9-1.99c-2.21-1.34-4.56-2.49-6.66-4.01c-0.81-0.59-1.63-1.25-2.19-2.08c-0.11-0.16-0.2-0.32-0.28-0.5
						c-0.04-0.09-0.08-0.19-0.11-0.29c-0.01-0.02-0.04-0.16-0.01-0.03c-0.02-0.11-0.03-0.23-0.03-0.34
						c-0.01-0.33,0.03-0.68,0.09-1.09c0.07-0.55,0.17-1.09,0.27-1.63c0.29-1.5,0.64-2.98,1.01-4.46c0.98-3.85,2.15-7.65,3.49-11.39
						c1.27-3.51,2.65-7.05,4.58-10.26c0.66-1.09,1.39-2.19,2.36-3.03c0.29-0.25,0.73-0.54,1.08-0.66c0.06-0.02,0.12-0.04,0.19-0.05
						c0.03-0.01,0.06-0.01,0.09-0.02c0.1-0.02-0.04,0,0.07-0.01c0.16-0.02,0.31-0.03,0.47-0.03c0.43,0,0.67,0.03,1.11,0.1
						c0.49,0.08,0.99,0.19,1.47,0.32c1.21,0.32,2.39,0.72,3.56,1.17c3.23,1.22,6.37,2.69,9.47,4.22c3.75,1.85,7.45,3.82,11.1,5.86
						c3.76,2.1,7.47,4.28,11.13,6.54c3.25,2.01,6.47,4.08,9.59,6.28c2.26,1.58,4.52,3.21,6.53,5.09c0.34,0.32,0.67,0.65,0.98,0.99
						c0.06,0.06,0.06,0.06,0.14,0.17c0.06,0.07,0.12,0.14,0.18,0.22c0.1,0.13,0.19,0.26,0.28,0.39c0.04,0.06,0.07,0.11,0.1,0.17
						c0.02,0.03,0.03,0.06,0.05,0.09c-0.05-0.1,0,0.01,0.01,0.03c0.02,0.05,0.04,0.09,0.06,0.14c0.03,0.08-0.01-0.06,0,0.01
						c0,0.03,0.01,0.06,0.01,0.08c0,0.03,0,0.22,0.01,0.11c0,0.08-0.01,0.15-0.02,0.23c-0.03,0.18-0.07,0.36-0.12,0.54
						c-0.27,0.99-0.76,2.04-1.23,3.02c-0.71,1.46-1.48,2.89-2.28,4.3c-1.95,3.44-4.05,6.8-6.23,10.1c-1.97,2.99-4.01,5.95-6.23,8.76
						c-0.72,0.91-1.46,1.83-2.3,2.64c-0.28,0.27-0.42,0.42-0.74,0.61c-0.13,0.08-0.2,0.1-0.35,0.11c-0.27,0.02-0.47,0-0.74-0.05
						c-0.79-0.14-1.56-0.4-2.31-0.68c-0.99-0.37-1.97-0.79-2.93-1.23c-2.2-1-4.35-2.09-6.48-3.22c-1.61-0.85-3.21-1.72-4.81-2.59
						C128.07,56.87,127.79,57.41,128.16,57.61L128.16,57.61z"/>
				</g>
			</g>
		</g>
		<g id="Ebene_8_3_">
			<g>
				<g>
					<path class="st24" d="M151.09,41.37c-2.51,4.01-5.01,8.02-7.52,12.03c-0.27,0.44-0.26,1.16-0.09,1.64
						c0.18,0.51,0.63,1.04,1.14,1.28c0.53,0.24,1.15,0.35,1.71,0.16c0.58-0.2,0.96-0.54,1.27-1.05c2.51-4.01,5.01-8.02,7.52-12.03
						c0.27-0.44,0.26-1.16,0.09-1.64c-0.18-0.51-0.63-1.04-1.14-1.28c-0.53-0.24-1.15-0.35-1.71-0.16
						C151.79,40.53,151.41,40.87,151.09,41.37L151.09,41.37z"/>
				</g>
			</g>
		</g>
		<g id="Ebene_7_3_">
			<g class="st18">
				<g>
					<path class="st11" d="M149.01,26.83c1.13,0.81,2.32,1.53,3.5,2.27c0.32,0.2,0.65,0.41,0.97,0.62c0.16,0.1,0.31,0.2,0.47,0.31
						c0.08,0.05,0.16,0.1,0.23,0.15c0.26,0.17-0.21-0.15,0.04,0.03c0.6,0.41,1.2,0.84,1.77,1.3c0.26,0.21,0.52,0.43,0.77,0.66
						c0.11,0.1,0.22,0.21,0.33,0.32c0.05,0.05,0.1,0.11,0.15,0.16c0.21,0.22-0.14-0.17-0.02-0.02c0.17,0.21,0.33,0.42,0.47,0.64
						c0.03,0.05,0.05,0.11,0.09,0.15c-0.05-0.06-0.14-0.3-0.06-0.11c0.04,0.11,0.07,0.24,0.12,0.34c-0.03-0.06-0.05-0.34-0.03-0.14
						c0,0.05,0.01,0.1,0.02,0.14c0.03,0.28,0.06-0.25,0.01-0.08c-0.02,0.09-0.11,0.4-0.02,0.11c0.1-0.28,0.02-0.05-0.01,0.01
						c-0.02,0.06-0.05,0.13-0.08,0.19c-0.06,0.14-0.13,0.28-0.2,0.42c-0.94,1.92-2.12,3.73-3.26,5.54
						c-1.62,2.56-3.28,5.09-4.95,7.61c-1.58,2.39-3.16,4.77-4.73,7.17c-0.16,0.25-0.32,0.5-0.49,0.75c-0.35,0.54,0.01,1.4,0.6,1.67
						c0.69,0.31,1.33,0.07,1.7-0.5c1.53-2.37,3.1-4.71,4.65-7.07c1.71-2.59,3.42-5.19,5.09-7.81c1.23-1.94,2.5-3.87,3.54-5.92
						c0.27-0.52,0.6-1.12,0.65-1.72c0.12-1.4-0.82-2.59-1.82-3.54c-1.12-1.07-2.45-1.95-3.75-2.8c-1.21-0.79-2.45-1.53-3.65-2.32
						c-0.06-0.04-0.12-0.08-0.18-0.12c-0.18-0.12,0.28,0.19,0.07,0.05c-0.11-0.08-0.22-0.16-0.33-0.24
						c-0.54-0.39-1.34-0.49-1.8,0.04C148.49,25.55,148.43,26.41,149.01,26.83L149.01,26.83z"/>
				</g>
			</g>
			<g class="st18">
				<g>
					<path class="st11" d="M141.74,60.05c-0.08,0.26-0.16,0.51-0.24,0.77c0.77-0.12,1.54-0.25,2.31-0.37
						c-0.2-0.32-0.41-0.64-0.61-0.97c-0.21,0.61-0.42,1.22-0.63,1.82c-0.19,0.04-0.35,0.05-0.54-0.02c-0.08-0.02-0.15-0.05-0.2-0.1
						c-0.11-0.08-0.12-0.09-0.05-0.03c-0.11-0.11-0.18-0.21-0.23-0.35c0.03,0.09,0.03,0.07-0.01-0.05c-0.03-0.1-0.04-0.21-0.02-0.31
						c0.38-0.32,0.77-0.64,1.15-0.96c0.02,0,0.32,0.06,0.16,0.01c0.16,0.05,0.28,0.1,0.41,0.2c-0.13-0.1,0.09,0.11,0.1,0.12
						c-0.1-0.12,0.06,0.11,0.07,0.14c0.05,0.13,0.05,0.28,0.03,0.41c0.03-0.22-0.22,0.39-0.21,0.37c0.09-0.12-0.09,0.08-0.12,0.09
						c-0.06,0.03-0.12,0.06-0.18,0.08c-0.21,0.02-0.27,0.03-0.17,0.03c0.15,0-0.3-0.04-0.15-0.01c0.07,0.02,0.04,0.01-0.08-0.03
						c-0.08-0.01-0.14-0.05-0.2-0.1c-0.25-0.16-0.4-0.43-0.39-0.71c0.01-0.27-0.06,0.11,0.03-0.15c0.09-0.26-0.08,0.08,0.07-0.14
						c0.03-0.07,0.08-0.12,0.14-0.15c0.09-0.07,0.11-0.08,0.06-0.05c-0.09,0.06,0.31-0.1,0.11-0.06c0.57,0.38,1.13,0.76,1.7,1.13
						c-0.02-0.12-0.03-0.24-0.05-0.37c-0.09-0.64-0.67-1.24-1.38-1.19c-0.66,0.05-1.26,0.59-1.16,1.28
						c0.02,0.12,0.03,0.24,0.05,0.37c0.06,0.39,0.24,0.71,0.58,0.94c0.36,0.25,0.71,0.26,1.12,0.19c0.83-0.14,1.37-1.05,1.27-1.83
						c-0.12-0.93-1.02-1.66-1.99-1.57c-0.93,0.09-1.72,0.86-1.57,1.82c0.15,0.93,0.98,1.67,1.97,1.63c0.56-0.02,1.05-0.43,1.15-0.96
						c0.11-0.57-0.11-1.21-0.58-1.62c-0.51-0.44-1.1-0.56-1.73-0.43c-0.83,0.17-1.03,1.19-0.63,1.82c0.2,0.32,0.41,0.64,0.61,0.97
						c0.27,0.43,0.84,0.64,1.32,0.56c0.54-0.09,0.84-0.45,0.99-0.93c0.08-0.26,0.16-0.51,0.24-0.77c0.09-0.27-0.04-0.68-0.2-0.92
						c-0.18-0.26-0.51-0.5-0.83-0.56c-0.32-0.06-0.67-0.03-0.94,0.15C141.98,59.47,141.84,59.72,141.74,60.05L141.74,60.05z"/>
				</g>
			</g>
		</g>
		<g id="Ebene_2_5_">
			<g>
				<g>
					<path d="M125.09,59.07c3.85,2.1,7.71,4.21,11.71,6c0.96,0.43,1.94,0.84,2.93,1.2c0.79,0.28,1.6,0.57,2.43,0.69
						c0.64,0.09,1.27,0.09,1.82-0.24c0.35-0.21,0.66-0.5,0.96-0.78c0.85-0.81,1.6-1.74,2.32-2.66c1.05-1.32,2.04-2.68,3.02-4.05
						c2.37-3.33,4.61-6.75,6.76-10.23c1.86-3.03,3.7-6.1,5.22-9.31c0.49-1.03,0.97-2.09,1.24-3.2c0.09-0.35,0.15-0.74,0.1-1.11
						c-0.05-0.39-0.25-0.75-0.47-1.09c-0.49-0.74-1.16-1.39-1.81-2c-0.91-0.84-1.87-1.63-2.86-2.38c-2.76-2.14-5.66-4.1-8.59-6.01
						c-3.53-2.3-7.12-4.51-10.76-6.64c-3.77-2.21-7.59-4.35-11.46-6.39c-3.45-1.82-6.94-3.57-10.51-5.14
						c-2.66-1.17-5.39-2.33-8.21-3.03c-0.9-0.22-1.85-0.41-2.77-0.36c-1.06,0.05-1.9,0.56-2.65,1.23c-1.05,0.94-1.83,2.17-2.54,3.36
						c-0.91,1.54-1.68,3.17-2.4,4.81c-1.66,3.83-3.02,7.81-4.22,11.82c-0.97,3.26-1.89,6.56-2.48,9.92
						c-0.16,0.89-0.35,1.85-0.28,2.76c0.05,0.68,0.43,1.35,0.86,1.89c0.7,0.89,1.59,1.62,2.52,2.27c2.21,1.54,4.63,2.75,6.93,4.16
						c0.25,0.15,0.5,0.31,0.75,0.47c0.07,0.04,0.13,0.09,0.2,0.13c0.04,0.02,0.25,0.17,0.04,0.03c0.13,0.09,0.25,0.17,0.37,0.26
						c0.46,0.33,0.9,0.67,1.32,1.05c0.08,0.07,0.16,0.15,0.23,0.22c0.04,0.04,0.08,0.1,0.13,0.13c0.1,0.08-0.17-0.23-0.11-0.12
						c0.06,0.09,0.13,0.17,0.18,0.26c0.07,0.1,0.12,0.21,0.18,0.32c0.13,0.24-0.08-0.18,0.01,0.02c0.04,0.09,0.09,0.18,0.13,0.27
						c0.8,1.71,1.41,3.5,2.07,5.26c0.73,1.95,1.44,3.92,2.35,5.8c0.33,0.68,0.68,1.4,1.17,2c0.23,0.28,0.48,0.55,0.81,0.73
						c0.33,0.18,0.67,0.21,1.03,0.24c0.84,0.06,1.68-0.02,2.51-0.1c1.26-0.13,2.51-0.32,3.74-0.55c2.35-0.43,4.74-0.97,6.87-1.99
						c0.45-0.22,0.52-0.87,0.25-1.27c-0.31-0.46-0.87-0.52-1.33-0.3c-0.06,0.03-0.43,0.19-0.18,0.08c-0.11,0.05-0.22,0.09-0.33,0.14
						c-0.26,0.1-0.52,0.2-0.79,0.29c-0.57,0.2-1.15,0.37-1.74,0.53c-1.23,0.33-2.49,0.6-3.75,0.82c-0.14,0.02-0.27,0.05-0.41,0.07
						c-0.03,0-0.29,0.05-0.08,0.01c-0.08,0.01-0.16,0.03-0.24,0.04c-0.31,0.05-0.62,0.09-0.93,0.14c-0.54,0.07-1.09,0.14-1.63,0.19
						c-0.44,0.04-0.89,0.07-1.34,0.08c-0.17,0-0.33,0-0.5,0c-0.07,0-0.16-0.02-0.23-0.01c0.25-0.04,0.18,0.02,0.02,0
						c-0.05-0.01-0.1-0.02-0.16-0.03c-0.18-0.02,0.16,0.07,0.13,0.05c-0.02-0.02-0.09-0.06-0.12-0.07c0.24,0.06,0.19,0.15,0.07,0.04
						c-0.04-0.04-0.08-0.08-0.12-0.12c-0.15-0.14,0.16,0.21,0.04,0.04c-0.09-0.12-0.18-0.23-0.26-0.36c-0.2-0.29-0.37-0.6-0.53-0.9
						c-0.03-0.06-0.13-0.22,0.02,0.03c-0.03-0.05-0.05-0.1-0.07-0.14c-0.04-0.09-0.09-0.18-0.13-0.27c-0.1-0.21-0.2-0.42-0.29-0.63
						c-0.87-1.93-1.58-3.91-2.32-5.88c-0.63-1.7-1.22-3.44-2.07-5.06c-0.33-0.63-0.77-1.11-1.32-1.58c-0.95-0.81-2.03-1.49-3.1-2.14
						c-1.12-0.68-2.27-1.32-3.41-1.97c-0.56-0.32-1.12-0.65-1.67-0.99c-0.25-0.16-0.51-0.32-0.76-0.48
						c-0.07-0.04-0.13-0.09-0.2-0.13c-0.22-0.14,0.12,0.08-0.01-0.01c-0.14-0.1-0.28-0.19-0.41-0.29c-0.45-0.32-0.88-0.66-1.29-1.03
						c-0.18-0.16-0.34-0.33-0.51-0.5c-0.15-0.16,0.13,0.17,0,0c-0.04-0.05-0.08-0.09-0.11-0.14c-0.07-0.09-0.14-0.18-0.21-0.28
						c-0.06-0.09-0.12-0.19-0.18-0.28c-0.02-0.03-0.03-0.06-0.05-0.09c-0.1-0.17,0.08,0.2,0.01,0.03c-0.05-0.13-0.09-0.31-0.16-0.42
						c0.14,0.23,0.04,0.27,0.04,0.15c0-0.02-0.01-0.05-0.01-0.07c-0.01-0.06-0.01-0.13-0.01-0.19c0-0.07,0-0.14,0-0.21
						c0-0.22-0.01,0.16,0,0.09c0-0.05,0.01-0.09,0.01-0.14c0.02-0.21,0.04-0.43,0.07-0.64c0.07-0.55,0.16-1.1,0.27-1.64
						c0.28-1.49,0.63-2.97,1-4.44c0.47-1.84,0.98-3.66,1.52-5.47c0.3-1,0.62-1.99,0.94-2.98c0.08-0.23,0.15-0.47,0.23-0.7
						c0.02-0.06,0.14-0.41,0.05-0.15c0.05-0.15,0.1-0.3,0.15-0.45c0.17-0.49,0.34-0.98,0.51-1.46c1.26-3.51,2.64-7.04,4.57-10.23
						c0.2-0.32,0.4-0.64,0.61-0.95c0.05-0.07,0.22-0.29,0.02-0.02c0.05-0.07,0.1-0.15,0.16-0.22c0.1-0.14,0.2-0.28,0.31-0.41
						c0.36-0.46,0.74-0.88,1.18-1.27c0.02-0.02,0.05-0.04,0.08-0.06c0.01-0.01-0.21,0.16-0.11,0.09c0.05-0.04,0.1-0.08,0.15-0.12
						c0.1-0.07,0.2-0.14,0.3-0.2c0.09-0.05,0.18-0.1,0.28-0.15c0.16-0.09-0.26,0.1-0.04,0.02c0.05-0.02,0.1-0.04,0.15-0.05
						c0.06-0.02,0.12-0.03,0.18-0.05c0.03-0.01,0.07-0.01,0.11-0.02c0.03-0.01-0.31,0.04-0.11,0.02c0.16-0.01,0.31-0.03,0.47-0.03
						c0.08,0,0.17,0,0.25,0.01c0.05,0,0.1,0.01,0.15,0.01c0.24,0.01-0.14-0.02-0.07-0.01c0.21,0.02,0.42,0.05,0.62,0.08
						c0.5,0.08,0.99,0.2,1.48,0.33c0.57,0.15,1.13,0.32,1.69,0.51c0.15,0.05,0.29,0.1,0.44,0.15c0.07,0.02,0.14,0.05,0.2,0.07
						c0.04,0.01,0.08,0.03,0.12,0.04c0.23,0.08-0.2-0.07-0.04-0.01c0.33,0.12,0.66,0.24,0.99,0.36c3.23,1.23,6.37,2.7,9.47,4.23
						c3.73,1.84,7.4,3.8,11.02,5.83c3.76,2.1,7.48,4.29,11.15,6.55c1.71,1.05,3.4,2.13,5.08,3.23c0.8,0.52,1.6,1.05,2.39,1.59
						c-0.21-0.15-0.02-0.01,0.08,0.05c0.1,0.07,0.19,0.13,0.29,0.2c0.19,0.13,0.38,0.26,0.57,0.39c0.36,0.24,0.71,0.49,1.06,0.74
						c2.26,1.58,4.53,3.22,6.55,5.09c0.34,0.32,0.67,0.64,0.99,0.98c0.03,0.03,0.06,0.07,0.09,0.1c-0.27-0.28-0.11-0.12-0.05-0.05
						c0.06,0.07,0.12,0.15,0.18,0.22c0.1,0.13,0.2,0.26,0.29,0.39c0.04,0.06,0.07,0.11,0.11,0.17c0.02,0.03,0.03,0.06,0.05,0.08
						c0.09,0.14-0.12-0.27-0.05-0.11c0.02,0.05,0.04,0.1,0.06,0.15c0.08,0.17-0.02-0.3-0.02-0.07c0,0.06,0,0.12,0.01,0.17
						c-0.03-0.29,0.01-0.16-0.01,0c-0.02,0.17-0.06,0.34-0.1,0.51c-0.02,0.09-0.05,0.19-0.08,0.28c-0.02,0.05-0.03,0.11-0.05,0.16
						c-0.07,0.23,0.08-0.22,0.01-0.03c-0.09,0.24-0.18,0.48-0.27,0.72c-0.24,0.59-0.5,1.17-0.78,1.74
						c-0.69,1.44-1.46,2.85-2.25,4.25c-1.95,3.45-4.05,6.81-6.23,10.11c-0.55,0.83-1.1,1.65-1.66,2.47
						c-0.27,0.4-0.54,0.79-0.82,1.18c-0.03,0.04-0.16,0.22,0,0c-0.03,0.04-0.06,0.08-0.09,0.13c-0.06,0.09-0.13,0.18-0.19,0.27
						c-0.14,0.2-0.28,0.39-0.42,0.59c-0.95,1.34-1.93,2.67-2.95,3.95c-0.72,0.91-1.46,1.83-2.3,2.64c-0.14,0.13-0.29,0.25-0.43,0.38
						c0.28-0.27,0.08-0.06-0.01,0c-0.06,0.04-0.12,0.08-0.18,0.12c-0.02,0.02-0.05,0.03-0.07,0.04c-0.12,0.08,0.27-0.07,0.11-0.05
						c-0.04,0.01-0.1,0.02-0.14,0.04c-0.07,0.03-0.16-0.09,0.16-0.03c-0.03-0.01-0.08,0.01-0.11,0.01c-0.12,0-0.23,0-0.35,0
						c-0.15,0,0.26,0.04,0.11,0.01c-0.04-0.01-0.07-0.01-0.11-0.01c-0.08-0.01-0.16-0.02-0.24-0.04c-0.35-0.06-0.7-0.16-1.05-0.26
						c-0.19-0.06-0.38-0.12-0.57-0.18c-0.07-0.03-0.46-0.15-0.14-0.05c-0.12-0.04-0.23-0.08-0.34-0.13
						c-1.01-0.38-1.99-0.8-2.97-1.25c-2.19-1-4.33-2.09-6.46-3.21c-1.61-0.85-3.21-1.72-4.81-2.6c-0.46-0.25-1.06-0.05-1.27,0.38
						C124.41,58.27,124.63,58.81,125.09,59.07L125.09,59.07z"/>
				</g>
			</g>
		</g>
		<g id="Ebene_5_4_">
			<g>
				<g>
					<path class="st11" d="M113.39,30.73c0.97,4.78,1.94,9.56,2.91,14.34c0.14,0.69,0.39,1.23,1.01,1.65
						c0.56,0.37,1.32,0.57,1.96,0.33c4.06-1.54,8.12-3.07,12.18-4.61c4.06-1.54,8.12-3.07,12.18-4.61c2.29-0.87,4.58-1.74,6.88-2.6
						c0.55-0.21,1-0.52,1.27-1.05c0.24-0.47,0.3-1.13,0.09-1.64c-0.42-1.04-1.71-1.87-2.85-1.44c-4.06,1.54-8.12,3.07-12.18,4.61
						c-4.06,1.54-8.12,3.07-12.18,4.61c-2.29,0.87-4.58,1.74-6.88,2.6c0.99,0.66,1.98,1.32,2.97,1.98
						c-0.97-4.78-1.94-9.56-2.91-14.34c-0.12-0.58-0.29-1.07-0.76-1.48c-0.42-0.37-1.09-0.64-1.65-0.59
						c-0.56,0.04-1.14,0.24-1.5,0.67C113.58,29.57,113.28,30.16,113.39,30.73L113.39,30.73z"/>
				</g>
			</g>
		</g>
		<g id="Ebene_9_3_">
			<g class="st19">
				<path d="M107.84,2.69c-7.71,15.25,1.16,42.36,8.77,57.75c-1.71-0.38-2.6-3.36-4.67-7.55c-2.93-5.92-1.39-5.69-3.52-8.01
					c-1.76-1.92-4.54-3.05-6.85-4.3c-2.13-1.16-4.65-2.89-5.52-4.62c-1.14-2.28,4.3-21.16,10.04-31.56"/>
				<g>
					<path d="M107.27,2.4c-1.59,3.17-2.44,6.68-2.8,10.22c-0.4,3.93-0.25,7.92,0.22,11.88c0.5,4.2,1.36,8.37,2.45,12.48
						c1.07,4.06,2.37,8.07,3.86,12.02c1.33,3.54,2.82,7.04,4.46,10.48c0.18,0.38,0.37,0.76,0.55,1.13c0.24-0.26,0.47-0.52,0.71-0.78
						c-0.05-0.01-0.09-0.02-0.14-0.04c0.17,0.05,0.02,0.01-0.01-0.01c-0.07-0.03-0.14-0.07-0.21-0.11c-0.16-0.09,0.04,0.05-0.1-0.07
						c-0.08-0.07-0.16-0.14-0.24-0.21c-0.04-0.04-0.08-0.08-0.12-0.12c0.08,0.09,0,0-0.02-0.03c-0.07-0.09-0.14-0.17-0.21-0.27
						c-0.15-0.2-0.28-0.41-0.41-0.62c-0.67-1.13-1.17-2.35-1.72-3.54c-1.07-2.32-2.31-4.58-2.96-7.04
						c-0.13-0.49-0.23-0.99-0.43-1.47c-0.25-0.59-0.63-1.1-1.06-1.59c-2.12-2.41-5.21-3.5-7.93-5.08c-1.24-0.72-2.45-1.54-3.47-2.54
						c-0.42-0.41-0.79-0.86-1.07-1.37c-0.04-0.08,0.02,0.09-0.01-0.03c-0.01-0.03-0.02-0.06-0.03-0.09
						c-0.03-0.09,0.02-0.12,0.01,0.04c0-0.04-0.02-0.09-0.02-0.13c-0.03-0.2-0.04-0.4-0.04-0.6c0-0.07,0-0.13,0-0.2
						c0-0.05,0.01-0.25,0-0.05c0.01-0.14,0.02-0.28,0.03-0.42c0.06-0.69,0.17-1.37,0.29-2.05c0.76-4.19,2.02-8.29,3.37-12.3
						c1.59-4.71,3.4-9.37,5.67-13.79c0.25-0.48,0.5-0.96,0.76-1.43c0.38-0.69-0.77-1.27-1.15-0.58c-2.39,4.34-4.25,8.99-5.9,13.66
						c-1.52,4.3-2.9,8.68-3.82,13.16c-0.28,1.34-0.55,2.73-0.53,4.12c0.01,0.48,0.09,0.92,0.33,1.36c0.64,1.17,1.76,2.12,2.85,2.91
						c1.26,0.92,2.62,1.69,4.01,2.4c1.43,0.73,2.91,1.43,4.2,2.39c0.32,0.24,0.62,0.49,0.91,0.76c0.13,0.12,0.25,0.25,0.38,0.38
						c0.05,0.05,0.1,0.11,0.15,0.16c0.09,0.1-0.05-0.06,0.06,0.06c0.22,0.25,0.43,0.52,0.61,0.8c0.03,0.05,0.06,0.1,0.09,0.16
						c0.04,0.07,0.09,0.18,0.02,0.04c0.05,0.12,0.11,0.24,0.16,0.36c0.09,0.23,0.15,0.47,0.21,0.7c0.19,0.72,0.38,1.44,0.63,2.14
						c0.48,1.35,1.12,2.65,1.75,3.95c0.67,1.4,1.28,2.82,1.98,4.21c0.46,0.91,0.95,1.92,1.76,2.61c0.34,0.29,0.72,0.5,1.16,0.6
						c0.43,0.1,0.93-0.35,0.71-0.78c-1.64-3.32-3.11-6.7-4.45-10.13c-1.5-3.86-2.83-7.78-3.95-11.75
						c-1.14-4.04-2.06-8.14-2.64-12.26c-0.56-3.91-0.83-7.88-0.57-11.79c0.24-3.51,0.89-7.03,2.29-10.22
						c0.17-0.38,0.34-0.75,0.53-1.12C108.77,2.28,107.62,1.69,107.27,2.4L107.27,2.4z"/>
				</g>
			</g>
		</g>
	</g>
</g>
</svg>
