<?xml version="1.0" encoding="utf-8"?>
<!-- Generator: Adobe Adobe Illustrator 24.2.0, SVG Export Plug-In . SVG Version: 6.00 Build 0)  -->
<svg version="1.1" xmlns="http://www.w3.org/2000/svg" xmlns:xlink="http://www.w3.org/1999/xlink" x="0px" y="0px"
	 viewBox="0 0 170.08 170.08" style="enable-background:new 0 0 170.08 170.08;" xml:space="preserve">
<style type="text/css">
	.st0{fill:#91625D;}
	.st1{fill:#F0C2A1;}
	.st2{stroke:#000000;stroke-width:1.2501;stroke-miterlimit:10;}
	.st3{fill:none;stroke:#FFFFFF;stroke-width:1.0589;stroke-miterlimit:10;}
	.st4{opacity:0.0784;}
	.st5{opacity:0.5294;fill:#FE9AA8;stroke:#FE99A9;stroke-width:0.974;stroke-miterlimit:10;}
	.st6{opacity:0.1608;}
	.st7{opacity:0.1098;}
	.st8{opacity:0.1686;}
	.st9{fill:#FFFFFF;}
	.st10{fill:#ECC9AD;}
	.st11{fill:#F0F6FA;}
	.st12{opacity:0.149;}
	.st13{opacity:0.0314;}
	.st14{stroke:#000000;stroke-width:0.0568;stroke-miterlimit:10;}
	.st15{fill:#C8354F;}
	.st16{fill:#C93550;}
	.st17{fill:#6DB671;}
	.st18{fill:#6CB671;}
	.st19{fill:#D1DFEA;}
	.st20{fill:#D3E1ED;}
	.st21{fill:#C8354E;}
	.st22{fill:#F3C058;}
	.st23{fill:#C8AE9D;}
	.st24{opacity:0.1412;}
	.st25{fill:#D15238;}
	.st26{fill:#D15239;}
</style>
<g id="Ebene_4_5_">
</g>
<g id="Ebene_6_11_">
</g>
<g id="Ebene_15_1_">
	<g>
		<path class="st0" d="M9.02,110.38C24.07,79.09,2.95,4.67,69.84,4.67c67.56,0,38.23,68.03,54.74,109.89
			c-28.51,9.37-87.04,13.09-115.56-3.7"/>
		<g>
			<path d="M9.89,110.88c3.24-6.77,4.58-14.3,5.58-21.68c1.18-8.7,1.79-17.45,2.79-26.17c1-8.71,2.34-17.48,5.09-25.83
				c2.55-7.73,6.48-15.1,12.56-20.63c6.99-6.34,16.17-9.46,25.43-10.47c6.05-0.66,12.24-0.61,18.28,0.1
				c5,0.59,10.02,1.75,14.61,3.85c7.47,3.42,13.09,9.28,16.49,16.72c3.56,7.79,4.79,16.51,5.49,24.97
				c0.8,9.56,0.87,19.17,1.38,28.75c0.5,9.42,1.36,18.94,3.91,28.05c0.6,2.13,1.29,4.22,2.1,6.28c0.23-0.41,0.47-0.82,0.7-1.23
				c-13.92,4.55-28.75,6.56-43.32,7.47c-16.31,1.02-33,0.6-49.01-2.88c-7.8-1.69-15.54-4.15-22.46-8.19
				c-1.11-0.65-2.12,1.08-1.01,1.73c13.07,7.64,28.86,10.2,43.75,11.28c16.61,1.21,33.45,0.34,49.89-2.25
				c7.66-1.21,15.31-2.81,22.69-5.23c0.47-0.15,0.9-0.71,0.7-1.23c-3.46-8.82-4.82-18.3-5.55-27.69
				c-0.76-9.76-0.82-19.56-1.39-29.33c-0.52-8.95-1.36-18.09-4.23-26.63c-2.59-7.72-7.05-14.67-13.84-19.33
				c-8.69-5.97-19.68-7.57-30-7.64C60.16,3.6,49.38,5.24,40.4,10.74c-7.19,4.4-12.56,11.05-16.11,18.65
				c-3.7,7.93-5.62,16.57-6.92,25.19c-1.36,8.98-2.05,18.03-3,27.05c-0.84,7.95-1.8,16.06-4.37,23.67
				c-0.53,1.56-1.13,3.09-1.84,4.58C7.61,111.03,9.33,112.05,9.89,110.88L9.89,110.88z"/>
		</g>
	</g>
</g>
<g id="Ebene_7_5_">
	<g>
		<path class="st1" d="M24.93,56.21C17.71,55.69,11,62.95,12.12,70.09c1.12,7.14,9.73,12.01,16.45,9.31
			c3.68,15,15.55,27.72,30.28,32.47c-1.41,7.61-3.26,13.39-4.68,20.99c7.82,5.32,18.43,8.19,25.88-0.49
			c-0.9-7.19-2.84-11.96-3.73-19.15c14.66-5.43,27.88-19.66,31.24-34.89c6.93,2.69,16.21-0.19,16.58-10.35
			c0.27-7.41-6.79-12.04-14.13-12.52c0-16.85-15.43-39.62-15.43-39.62S76.33,33.31,25.63,50"/>
		<g>
			<path class="st1" d="M24.93,55.15c-6.36-0.35-12.33,4.58-13.69,10.73c-1.36,6.12,2.44,11.87,8.02,14.23
				c3.04,1.28,6.49,1.51,9.59,0.32c-0.43-0.25-0.87-0.49-1.3-0.74c3,11.98,10.95,22.48,21.5,28.86c2.99,1.81,6.2,3.26,9.52,4.35
				c-0.25-0.43-0.49-0.87-0.74-1.3c-1.33,7.05-3.35,13.94-4.68,20.99c-0.09,0.49,0.07,0.92,0.49,1.2
				c4.84,3.26,10.78,5.78,16.73,5.07c2.98-0.36,5.71-1.54,8.05-3.41c1.16-0.93,2.83-2.07,2.61-3.68c-0.26-1.95-0.61-3.89-1.03-5.82
				c-0.92-4.23-2.07-8.41-2.62-12.72c-0.26,0.34-0.52,0.68-0.78,1.02c12.08-4.53,22.48-14.03,28.3-25.53
				c1.62-3.21,2.88-6.59,3.68-10.1c-0.43,0.25-0.87,0.49-1.3,0.74c5.13,1.93,11.58,1.06,15.16-3.38c4.21-5.22,3.53-13.22-1.64-17.5
				c-3.04-2.52-6.89-3.78-10.79-4.07c0.35,0.35,0.71,0.71,1.06,1.06c-0.04-7.22-2.4-14.29-5.19-20.86
				c-2.38-5.61-5.24-11.02-8.43-16.22c-0.63-1.04-1.28-2.07-1.96-3.08c-0.39-0.57-1.15-0.71-1.66-0.21
				c-2.73,2.61-5.81,4.65-9.02,6.77c-9.63,6.37-20.02,11.58-30.58,16.19c-9.44,4.12-19.1,7.7-28.88,10.92
				c-1.29,0.42-0.74,2.47,0.56,2.04c15.62-5.15,31.02-11.22,45.59-18.89c7.31-3.85,14.49-8.09,21.01-13.18
				c0.96-0.75,1.93-1.51,2.81-2.35c-0.55-0.07-1.11-0.14-1.66-0.21c5.67,8.38,10.49,17.84,13.37,27.54
				c1.11,3.75,1.9,7.62,1.92,11.55c0,0.6,0.48,1.02,1.06,1.06c5.58,0.41,12.12,3.56,12.99,9.7c0.74,5.24-2.24,10.34-7.43,11.65
				c-2.57,0.65-5.26,0.37-7.73-0.56c-0.52-0.2-1.19,0.22-1.3,0.74c-3.45,15.29-15.93,28.68-30.5,34.15
				c-0.39,0.15-0.84,0.54-0.78,1.02c0.83,6.47,2.9,12.69,3.73,19.15c0.1-0.25,0.21-0.5,0.31-0.75c-3.17,3.62-7.39,5.53-12.22,5.17
				c-4.48-0.33-8.71-2.38-12.38-4.85c0.16,0.4,0.32,0.8,0.49,1.2c1.33-7.05,3.35-13.94,4.68-20.99c0.11-0.58-0.16-1.11-0.74-1.3
				c-14.42-4.71-25.86-17.02-29.54-31.73c-0.13-0.52-0.78-0.94-1.3-0.74c-5.87,2.25-13.25-1.36-14.91-7.49
				c-1.87-6.91,4.65-14,11.56-13.62C26.29,57.34,26.29,55.22,24.93,55.15L24.93,55.15z"/>
		</g>
	</g>
</g>
<g id="Ebene_10_4_">
	<g>
		<path d="M15.56,157.46c0.71-3.58,2.74-6.78,5.17-9.52c8.12-9.14,20.45-13.47,32.56-15.27c0.31,1.09,1.29,1.83,2.23,2.46
			c4.12,2.72,8.96,4.6,13.9,4.39s9.93-2.8,12.17-7.19c15.92,2.1,30.9,10.56,40.89,23.09c1.01,1.27,2.01,2.67,2.1,4.29
			c-4.06-0.38-8.1,0.63-12.08,1.51c-14.94,3.31-30.24,4.97-45.55,4.94c-5.36-0.01-10.72-0.23-16.08-0.45
			c-2.91-0.12-5.82-0.24-8.69-0.68c-3.01-0.47-5.95-1.29-8.88-2.15c-5.8-1.71-11.56-3.57-17.27-5.57"/>
		<g>
			<path d="M16.58,157.74c1.63-7.7,8.65-13.55,15.23-17.19c6.7-3.71,14.22-5.72,21.76-6.86c-0.43-0.25-0.87-0.49-1.3-0.74
				c1.01,2.76,4.43,4.29,6.93,5.43c2.94,1.33,6.11,2.2,9.36,2.22c5.58,0.04,11.28-2.69,13.96-7.73c-0.4,0.16-0.8,0.32-1.2,0.49
				c13.21,1.78,25.71,7.83,35.27,17.13c1.32,1.28,2.58,2.62,3.78,4.02c1.27,1.48,2.96,3.18,3.17,5.21c0.35-0.35,0.71-0.71,1.06-1.06
				c-3.4-0.28-6.75,0.31-10.06,1.03c-3.47,0.76-6.94,1.52-10.44,2.15c-7.12,1.28-14.3,2.19-21.51,2.72
				c-7.14,0.52-14.31,0.65-21.47,0.47c-3.57-0.09-7.15-0.23-10.72-0.38c-3.62-0.15-7.21-0.38-10.76-1.17
				c-7.9-1.75-15.68-4.51-23.32-7.18c-1.29-0.45-1.84,1.59-0.56,2.04c6.91,2.42,13.9,4.76,20.98,6.61
				c6.86,1.8,13.92,1.86,20.97,2.09c14.44,0.48,28.83-0.21,43.1-2.51c4.02-0.65,8.02-1.41,11.99-2.29c3.9-0.86,7.78-1.8,11.8-1.47
				c0.53,0.04,1.11-0.52,1.06-1.06c-0.35-3.42-3.26-6.22-5.5-8.62c-2.39-2.56-5.01-4.91-7.79-7.04c-5.61-4.3-11.91-7.66-18.59-9.95
				c-3.86-1.32-7.84-2.25-11.89-2.79c-0.46-0.06-0.96,0.04-1.2,0.49c-2.26,4.25-6.97,6.59-11.69,6.68c-2.67,0.05-5.3-0.55-7.77-1.52
				c-1.34-0.53-2.63-1.19-3.87-1.93c-1.08-0.64-2.58-1.38-3.04-2.64c-0.22-0.59-0.69-0.83-1.3-0.74c-7.97,1.2-15.92,3.41-22.94,7.46
				c-6.77,3.9-13.83,10.1-15.52,18.07C14.26,158.51,16.3,159.08,16.58,157.74L16.58,157.74z"/>
		</g>
	</g>
</g>
<g id="Ebene_5_10_">
	<g>
		<g>
			<path d="M23.86,50c0.03,16.65,2.78,34.6,12.51,48.55c6.9,9.9,17.48,16.88,29.8,17.06c12.53,0.18,24.63-5.75,32.34-15.56
				c9.87-12.56,12.73-29.27,12.68-44.87c-0.01-4.23-0.22-8.32-1.36-12.41c-1.07-3.82-2.63-7.5-4.38-11.06
				c-2.67-5.43-5.84-10.66-9.36-15.59c-0.2-0.28-0.39-0.55-0.6-0.82c-0.32-0.43-0.94-0.74-1.45-0.38
				c-4.23,3.01-8.66,5.77-13.11,8.45C70.36,29.74,59.4,35.49,48.08,40.41c-7.63,3.32-15.45,6.22-23.44,8.56
				c-1.3,0.38-0.75,2.43,0.56,2.04c13.72-4.03,26.94-9.69,39.65-16.24c8.84-4.55,17.47-9.55,25.79-15c1.5-0.99,3.01-1.98,4.47-3.02
				c-0.48-0.13-0.97-0.25-1.45-0.38c2.49,3.34,4.72,6.89,6.79,10.49c3.72,6.46,7.32,13.59,8.31,21.07
				c0.58,4.38,0.39,8.99,0.16,13.39c-0.22,4.27-0.69,8.54-1.51,12.74c-1.39,7.12-3.73,14.12-7.54,20.33
				c-6.43,10.49-16.96,17.51-29.24,18.88c-5.5,0.62-11.08-0.07-16.21-2.19c-5.34-2.21-9.95-5.88-13.67-10.27
				C30.64,88.9,27.01,72.43,26.17,57.2c-0.13-2.4-0.19-4.8-0.2-7.21C25.97,48.63,23.86,48.63,23.86,50L23.86,50z"/>
		</g>
	</g>
	<g>
		<g>
			<path d="M23.38,54.92c-2.5,0.06-5.06,0.38-7.31,1.54c-2.28,1.18-3.85,3.22-4.7,5.62c-1.05,2.97-1.44,6.99-0.37,10
				c1.1,3.08,3.54,5.54,6.29,7.24c3.18,1.96,7.02,3.06,10.74,2.38c1.34-0.24,0.77-2.28-0.56-2.04c-5.32,0.97-11.83-2.62-14.13-7.44
				c-1.22-2.55-0.92-5.96-0.21-8.62c0.55-2.07,1.67-3.92,3.54-5.03c2.01-1.2,4.43-1.46,6.72-1.52
				C24.74,57.01,24.75,54.89,23.38,54.92L23.38,54.92z"/>
		</g>
	</g>
	<g>
		<g>
			<path d="M111.91,56.55c5.67-1.54,10.07,2.87,10.8,8.27c0.59,4.4-0.42,10.58-4.76,12.83c-2.74,1.42-6.08,0.98-8.94,0.26
				c-1.32-0.33-1.89,1.71-0.56,2.04c3.14,0.79,6.61,1.18,9.69-0.08c2.45-1,4.27-2.95,5.32-5.35c2.46-5.59,2.25-13.6-2.57-17.89
				c-2.64-2.34-6.15-3.06-9.53-2.14C110.04,54.87,110.6,56.91,111.91,56.55L111.91,56.55z"/>
		</g>
	</g>
	<g>
		<g>
			<path d="M59.14,94.52c2.98,5.61,11.98,6.51,15.93,1.48c0.36-0.45,0.43-1.05,0-1.5c-0.36-0.37-1.14-0.45-1.5,0
				c-3.12,3.97-10.21,3.46-12.61-1.05C60.33,92.25,58.5,93.32,59.14,94.52L59.14,94.52z"/>
		</g>
	</g>
	<g>
		<g>
			<path d="M66.37,66.87c0.26-0.07,0.53-0.13,0.8-0.17c-0.23,0.04,0.1-0.01,0.17-0.01c0.15-0.01,0.3-0.02,0.45-0.02
				c0.12,0,0.24,0,0.36,0.01c0.08,0,0.15,0.01,0.23,0.02c0.03,0,0.22,0.03,0.08,0.01c-0.17-0.02,0.13,0.02,0.13,0.02
				c0.06,0.01,0.12,0.02,0.18,0.04c0.15,0.03,0.29,0.07,0.43,0.11c0.11,0.03,0.23,0.08,0.34,0.12c0.19,0.06,0.03,0.01-0.01-0.01
				c0.07,0.03,0.13,0.06,0.2,0.09c0.24,0.12,0.46,0.26,0.68,0.41c0.14,0.1-0.18-0.16,0.03,0.02c0.04,0.04,0.09,0.08,0.13,0.12
				c0.09,0.08,0.17,0.16,0.25,0.25c0.04,0.04,0.08,0.09,0.12,0.13c0,0,0.18,0.22,0.09,0.1c-0.08-0.1,0.03,0.05,0.05,0.08
				c0.05,0.08,0.1,0.15,0.15,0.23c0.07,0.12,0.13,0.24,0.2,0.37c0.02,0.04,0.07,0.19,0.01,0.01c0.02,0.06,0.05,0.12,0.07,0.18
				c0.04,0.12,0.08,0.25,0.11,0.38c0.02,0.08,0.04,0.17,0.05,0.25c0.01,0.06,0.04,0.23,0.02,0.08c0.04,0.3,0.04,0.6,0.03,0.9
				c0.01-0.24-0.01,0-0.03,0.1c-0.01,0.05-0.04,0.1-0.05,0.15c-0.05,0.23,0.1-0.16-0.01,0.04c-0.05,0.1-0.1,0.19-0.16,0.28
				c-0.04,0.06-0.08,0.11-0.12,0.17c-0.09,0.12,0.12-0.13,0.01-0.02c-0.09,0.09-0.17,0.19-0.27,0.28c-0.04,0.04-0.09,0.08-0.13,0.12
				c-0.2,0.19,0.16-0.1-0.07,0.05c-0.23,0.15-0.45,0.28-0.69,0.39c-0.15,0.07,0.14-0.05-0.02,0.01c-0.06,0.02-0.12,0.05-0.19,0.07
				c-0.16,0.05-0.32,0.1-0.49,0.14c-0.08,0.02-0.17,0.03-0.25,0.05c-0.19,0.04,0.03,0-0.09,0.01c-0.18,0.01-0.36,0.03-0.54,0.02
				c-0.19,0-0.38-0.01-0.56-0.03c-0.21-0.02,0.24,0.06-0.12-0.02c-0.1-0.02-0.2-0.04-0.29-0.06c-0.87-0.21-1.6-0.61-2.33-1.15
				c-0.46-0.34-1.18-0.07-1.45,0.38c-0.32,0.54-0.08,1.1,0.38,1.45c1.54,1.16,3.44,1.75,5.36,1.48c1.45-0.21,2.82-0.97,3.64-2.2
				c0.87-1.3,0.69-3.03,0.09-4.41c-0.54-1.24-1.58-2.23-2.82-2.76c-1.48-0.64-3.15-0.74-4.71-0.3C64.5,65.2,65.05,67.25,66.37,66.87
				L66.37,66.87z"/>
		</g>
	</g>
	<g>
		<g>
			<path d="M45.77,50.53c0.93-1.72,2.83-2.57,4.77-2.83c0.85-0.12,1.97-0.1,2.78,0.05c0.44,0.08,0.88,0.2,1.3,0.36
				c0.05,0.02,0.01,0,0.15,0.07c0.1,0.05,0.19,0.09,0.28,0.14c0.09,0.05,0.18,0.1,0.27,0.16c0.03,0.02,0.31,0.22,0.15,0.09
				c0.45,0.35,1.06,0.44,1.5,0c0.37-0.37,0.45-1.14,0-1.5c-1.92-1.5-4.51-1.78-6.86-1.44c-2.46,0.35-4.94,1.56-6.16,3.82
				C43.3,50.66,45.12,51.73,45.77,50.53L45.77,50.53z"/>
		</g>
	</g>
	<g>
		<g>
			<path d="M78.89,49.03c2.93-2.29,8.11-1.63,10.22,1.5c0.76,1.12,2.59,0.07,1.83-1.07c-2.94-4.36-9.5-5.08-13.55-1.93
				c-0.45,0.35-0.37,1.13,0,1.5C77.84,49.47,78.44,49.38,78.89,49.03L78.89,49.03z"/>
		</g>
	</g>
	<ellipse class="st2" cx="54.89" cy="57.44" rx="1.33" ry="3.97"/>
	<ellipse class="st2" cx="79.47" cy="57.44" rx="1.33" ry="3.97"/>
	<g>
		<g>
			<path d="M53.26,133.4c5.95,8.92,22.04,9.53,27.65-0.11c0.69-1.18-1.14-2.25-1.83-1.07c-4.77,8.2-18.91,7.73-23.99,0.11
				C54.33,131.2,52.5,132.26,53.26,133.4L53.26,133.4z"/>
		</g>
	</g>
	<g>
		<g>
			<path d="M54.17,131.8c-13.31-0.43-26.53,5.71-35.07,15.88c-2.42,2.89-4.46,6.06-6.03,9.49c-0.56,1.23,1.26,2.31,1.83,1.07
				c5.31-11.59,16.1-20.18,28.44-23.2c3.55-0.87,7.18-1.24,10.84-1.12C55.54,133.97,55.53,131.85,54.17,131.8L54.17,131.8z"/>
		</g>
	</g>
	<g>
		<g>
			<path d="M80.05,133.43c13.79,0.19,27.52,7.44,37.07,17.11c2.68,2.72,5.06,5.72,6.99,9.02c0.69,1.18,2.52,0.11,1.83-1.07
				c-7.25-12.4-20.56-21.58-34.25-25.43c-3.78-1.06-7.7-1.7-11.63-1.75C78.69,131.3,78.69,133.41,80.05,133.43L80.05,133.43z"/>
		</g>
	</g>
	<g>
		<g>
			<path d="M14.37,159.53c27.9,9.17,58.08,11.04,87.03,6.42c8.08-1.29,16.07-3.11,23.9-5.45c1.3-0.39,0.75-2.43-0.56-2.04
				c-27.74,8.28-57.55,10.07-86.06,5c-8.05-1.43-15.98-3.42-23.75-5.97C13.63,157.06,13.08,159.11,14.37,159.53L14.37,159.53z"/>
		</g>
	</g>
	<g>
		<g>
			<path d="M56.24,114.07c-1.03,6.08-2.05,12.15-3.08,18.23c-0.23,1.33,1.82,1.91,2.04,0.56c1.03-6.08,2.05-12.15,3.08-18.23
				C58.5,113.3,56.46,112.72,56.24,114.07L56.24,114.07z"/>
		</g>
	</g>
	<g>
		<g>
			<path d="M76.73,114.14c0.75,6.08,1.51,12.15,2.26,18.23c0.17,1.33,2.29,1.35,2.12,0c-0.75-6.08-1.51-12.15-2.26-18.23
				C78.69,112.81,76.57,112.79,76.73,114.14L76.73,114.14z"/>
		</g>
	</g>
</g>
<g id="Ebene_11_1_">
	<g>
		<g>
			<path d="M114.48,61.03c0.03,0,0.33,0.04,0.08,0.01c0.09,0.01,0.18,0.03,0.27,0.05c0.17,0.03,0.33,0.07,0.49,0.11
				c0.16,0.04,0.32,0.09,0.48,0.15c0.09,0.03,0.17,0.06,0.26,0.09c0.03,0.01,0.3,0.13,0.09,0.03c0.3,0.15,0.61,0.29,0.89,0.47
				c0.16,0.1,0.31,0.2,0.46,0.31c0.02,0.01,0.22,0.17,0.11,0.08c-0.1-0.07,0.12,0.1,0.14,0.12c0.26,0.22,0.5,0.45,0.73,0.7
				c0.11,0.12,0.22,0.25,0.33,0.38c-0.14-0.17,0.03,0.04,0.06,0.08c0.05,0.07,0.11,0.15,0.16,0.23c0.19,0.28,0.35,0.57,0.5,0.88
				c0.04,0.08,0.08,0.17,0.11,0.25c-0.09-0.22,0.02,0.06,0.03,0.09c0.06,0.17,0.12,0.35,0.17,0.52c0.15,0.53,0.75,0.92,1.3,0.74
				c0.54-0.18,0.9-0.73,0.74-1.3c-0.95-3.34-3.98-5.76-7.41-6.1c-0.55-0.05-1.08,0.53-1.06,1.06
				C113.45,60.59,113.89,60.97,114.48,61.03L114.48,61.03z"/>
		</g>
	</g>
	<g>
		<g>
			<path d="M21.52,59.65c-1.79-0.28-3.59,0.18-4.95,1.4c-1.25,1.11-1.95,2.84-1.87,4.51c0.03,0.55,0.47,1.09,1.06,1.06
				c0.55-0.02,1.09-0.47,1.06-1.06c-0.01-0.17-0.01-0.34,0-0.51c0-0.07,0.01-0.14,0.02-0.21c0.01-0.08,0.01-0.06-0.01,0.07
				c0.01-0.04,0.01-0.08,0.02-0.13c0.06-0.31,0.15-0.61,0.26-0.91c0.04-0.12-0.08,0.16,0.01-0.02c0.04-0.08,0.07-0.15,0.12-0.23
				c0.08-0.15,0.17-0.3,0.27-0.44c0.02-0.02,0.16-0.22,0.07-0.1c-0.09,0.12,0.06-0.07,0.08-0.09c0.11-0.13,0.23-0.25,0.36-0.37
				c0.05-0.05,0.11-0.1,0.16-0.14c0.03-0.03,0.07-0.06,0.1-0.08c-0.09,0.07-0.1,0.08-0.04,0.03c0.14-0.08,0.27-0.18,0.41-0.26
				c0.08-0.04,0.15-0.08,0.23-0.12c0.02-0.01,0.25-0.12,0.11-0.06c-0.13,0.06,0.13-0.05,0.16-0.06c0.07-0.02,0.14-0.05,0.21-0.07
				c0.17-0.05,0.34-0.09,0.51-0.13c0.03-0.01,0.27-0.04,0.12-0.02c-0.15,0.02,0.09-0.01,0.12-0.01c0.18-0.01,0.35-0.02,0.53-0.01
				c0.09,0,0.18,0.01,0.26,0.02c0.23,0.01-0.18-0.03,0.07,0.01c0.54,0.09,1.17-0.14,1.3-0.74C22.38,60.44,22.11,59.74,21.52,59.65
				L21.52,59.65z"/>
		</g>
	</g>
</g>
<g id="Ebene_12_1_">
	<circle class="st3" cx="55.22" cy="55.13" r="0.33"/>
	<circle class="st3" cx="79.47" cy="55.13" r="0.33"/>
</g>
<g id="Ebene_13_1_">
	<g class="st4">
		<path d="M31.8,47.91c-3.39,18.94,1.06,23.6,14.03,43.74c2.08,3.23,4.37,6.37,7.16,9.01c6.56,6.22,15.4,9.34,23.95,12.29
			c-5.2,0.18-10.41,0-15.59-0.54c-3.34-0.35-6.72-0.87-9.74-2.31c-2.51-1.2-4.68-3-6.79-4.8c-5.37-4.59-9.65-10.53-12.9-16.79
			c-3.7-7.12-5.45-14.34-5.95-22.35c-0.46-7.34-1.3-8.86-0.35-16.15"/>
		<g>
			<path d="M30.78,47.62c-0.87,4.94-1.51,10.02-0.86,15.03c0.55,4.29,2.09,8.29,4.11,12.1c2.76,5.19,6.12,10.06,9.32,14.99
				c3.75,5.78,7.57,11.24,13.31,15.22c6.05,4.19,13.11,6.63,20.02,9.01c0.09-0.69,0.19-1.39,0.28-2.08
				c-6.62,0.21-13.57,0.15-20.08-1.21c-6.17-1.29-11.09-5.44-15.26-9.98c-8.44-9.17-13.52-21.03-14.49-33.43
				c-0.23-2.93-0.52-5.85-0.75-8.78c-0.22-2.85-0.04-5.67,0.32-8.5c0.17-1.35-1.95-1.34-2.12,0c-0.34,2.73-0.53,5.46-0.34,8.2
				c0.19,2.65,0.51,5.29,0.69,7.95c0.43,6.38,1.64,12.66,4.1,18.58c2.4,5.79,5.75,11.26,9.82,16.04c2.09,2.45,4.42,4.65,6.93,6.68
				c2.43,1.97,5,3.66,8.01,4.62c3.53,1.13,7.32,1.43,10.99,1.7c4.06,0.3,8.12,0.37,12.19,0.24c1.22-0.04,1.41-1.69,0.28-2.08
				c-5.97-2.06-12-4.16-17.43-7.45c-5.76-3.5-9.84-8.39-13.46-13.99c-3.19-4.94-6.53-9.8-9.44-14.91
				c-2.09-3.65-3.87-7.47-4.65-11.62c-0.98-5.21-0.34-10.6,0.57-15.77C33.05,46.86,31.01,46.28,30.78,47.62L30.78,47.62z"/>
		</g>
	</g>
	<g class="st4">
		<path d="M57.09,124.55c7.66-2.02,15.66-4.22,21.41-9.64c-6.43,0.52-13.03,1.02-19.24-0.75c-0.2-0.06-0.41-0.12-0.61-0.05
			c-0.37,0.12-0.49,0.57-0.54,0.96c-0.41,2.79-0.83,5.58-1.24,8.37"/>
		<g>
			<path d="M57.37,125.57c7.77-2.05,15.85-4.31,21.88-9.91c0.64-0.6,0.17-1.88-0.75-1.81c-5.37,0.43-10.88,0.9-16.22-0.08
				c-1.8-0.33-4.57-1.74-5.18,0.89c-0.63,2.76-0.85,5.69-1.26,8.49c-0.2,1.33,1.84,1.91,2.04,0.56c0.36-2.44,0.72-4.88,1.08-7.32
				c0.04-0.27,0.37-1.36,0.01-1.21c0.32-0.13,1.4,0.36,1.76,0.44c1.14,0.25,2.29,0.42,3.44,0.56c4.76,0.55,9.56,0.17,14.32-0.21
				c-0.25-0.6-0.5-1.21-0.75-1.81c-5.75,5.34-13.55,7.42-20.94,9.37C55.49,123.88,56.05,125.92,57.37,125.57L57.37,125.57z"/>
		</g>
	</g>
	<g class="st4">
		<path d="M31.05,141.25c4.84,4.85,11.41,7.5,17.78,10.03c10.05,3.99,20.16,7.99,30.73,10.29c14.48,3.14,29.68,2.98,44.09-0.48
			c-17.2,3.47-34.69,5.38-52.21,6.18c-3.9,0.18-7.81,0.3-11.71,0.06c-5.32-0.33-10.57-1.34-15.77-2.5
			c-9.61-2.15-19.1-4.83-28.41-8.04c3.28-6.02,7.84-11.34,13.29-15.52"/>
		<g>
			<path d="M30.3,142c4.16,4.1,9.39,6.67,14.73,8.89c6.01,2.5,12.1,4.87,18.24,7.04c12.54,4.42,25.48,7.14,38.83,6.93
				c7.35-0.12,14.68-1.05,21.82-2.75c1.33-0.32,0.76-2.31-0.56-2.04c-14.01,2.82-28.2,4.61-42.44,5.59
				c-7.03,0.49-14.16,1.04-21.2,0.6c-7.15-0.44-14.21-2.08-21.15-3.79c-7.68-1.89-15.27-4.14-22.76-6.71
				c0.21,0.52,0.42,1.04,0.63,1.56c3.28-5.96,7.74-11.14,13.12-15.3c1.08-0.83-0.43-2.32-1.5-1.5c-5.51,4.26-10.09,9.63-13.45,15.73
				c-0.35,0.63-0.02,1.33,0.63,1.56c6.87,2.36,13.83,4.45,20.88,6.24c6.8,1.73,13.7,3.36,20.69,4.09c7.19,0.76,14.47,0.25,21.66-0.2
				c7.22-0.46,14.42-1.11,21.59-1.99c7.99-0.98,15.95-2.25,23.85-3.84c-0.19-0.68-0.38-1.36-0.56-2.04
				c-12.55,2.98-25.68,3.51-38.41,1.45c-12.57-2.04-24.46-6.73-36.23-11.41c-6.04-2.4-12.22-4.97-16.92-9.61
				C30.83,139.55,29.33,141.04,30.3,142L30.3,142z"/>
		</g>
	</g>
	<g class="st4">
		<path d="M15.86,59.62c-0.58,7.86,3.69,15.87,10.55,19.78c-1.31,0.7-2.91,0.35-4.35-0.04c-2.48-0.68-5.13-1.56-6.61-3.66
			c-0.9-1.28-1.25-2.85-1.58-4.38c-0.45-2.11-0.91-4.24-0.91-6.4c0-2.16,0.5-4.38,1.78-6.12"/>
		<g>
			<path d="M14.8,59.62c-0.54,8.29,3.9,16.53,11.07,20.7c0-0.61,0-1.22,0-1.83c-1.12,0.52-2.41,0.16-3.53-0.15
				c-0.96-0.26-1.92-0.54-2.84-0.93c-2.07-0.87-3.48-2.23-4.13-4.41c-0.66-2.22-1.15-4.63-1.31-6.94c-0.16-2.38,0.2-4.74,1.6-6.72
				c0.79-1.12-1.05-2.17-1.83-1.07c-1.63,2.31-2.09,5.2-1.87,7.98c0.12,1.55,0.41,3.09,0.73,4.61c0.28,1.34,0.55,2.7,1.09,3.96
				c1,2.36,2.98,3.78,5.31,4.7c2.41,0.95,5.37,1.95,7.85,0.79c0.74-0.35,0.64-1.46,0-1.83c-6.57-3.82-10.52-11.3-10.02-18.87
				C17.01,58.25,14.89,58.26,14.8,59.62L14.8,59.62z"/>
		</g>
	</g>
	<g class="st4">
		<path d="M111.8,56.49c1.05,6.93,3.17,13.7,6.27,19.98c0.16,0.33,0.31,0.75,0.07,1.02c-0.11,0.12-0.27,0.17-0.43,0.21
			c-2.4,0.62-5.07-0.31-7.36,0.62c-0.41-0.42-0.37-1.08-0.31-1.66c0.7-6.35,0.97-12.75,0.81-19.14"/>
		<g>
			<path d="M110.78,56.77c0.75,4.91,2.02,9.72,3.81,14.35c0.41,1.07,0.85,2.14,1.32,3.19c0.24,0.54,0.49,1.09,0.74,1.62
				c0.07,0.14,0.28,0.79,0.43,0.89c0.08,0.3,0.2,0.25,0.36-0.14c-0.12,0.03-0.24,0.05-0.36,0.08c-2.27,0.09-4.83-0.25-7,0.54
				c0.4,0.16,0.8,0.32,1.2,0.49c-0.4-0.53-0.14-1.36-0.08-1.98c0.09-0.85,0.17-1.7,0.24-2.55c0.15-1.77,0.27-3.54,0.36-5.31
				c0.17-3.48,0.2-6.96,0.12-10.44c-0.03-1.36-2.15-1.37-2.12,0c0.09,3.76,0.04,7.53-0.17,11.29c-0.1,1.84-0.24,3.69-0.41,5.52
				c-0.13,1.39-0.71,3.3,0.22,4.53c0.27,0.35,0.73,0.66,1.2,0.49c2.44-0.89,5.2,0.28,7.6-0.7c1.07-0.44,1.27-1.45,0.87-2.45
				c-0.5-1.27-1.18-2.48-1.71-3.74c-2.2-5.2-3.71-10.67-4.57-16.25C112.61,54.87,110.57,55.44,110.78,56.77L110.78,56.77z"/>
		</g>
	</g>
	<g class="st4">
		<path d="M66.53,71.2c1.67-0.98,3.21-2.18,4.57-3.57c0.65,1.56,1.19,3.62-0.09,4.73c-1.23,1.06-3.12,0.35-4.53-0.44"/>
		<g>
			<path d="M67.07,72.11c1.75-1.02,3.36-2.29,4.78-3.73c-0.59-0.16-1.18-0.31-1.77-0.47c0.23,0.56,0.43,1.14,0.56,1.73
				c0.03,0.15,0.05,0.29,0.08,0.44c0,0.01-0.02-0.23-0.02-0.11c0,0.04,0.01,0.09,0.01,0.13c0.01,0.08,0.01,0.15,0.01,0.23
				c0,0.14,0,0.28-0.01,0.42c0,0.03-0.01,0.06-0.01,0.09c0,0,0.05-0.23,0.02-0.13c-0.02,0.08-0.03,0.16-0.05,0.24
				c-0.02,0.06-0.03,0.12-0.05,0.18c-0.07,0.22,0.09-0.15,0,0c-0.03,0.05-0.05,0.11-0.09,0.16c-0.02,0.04-0.16,0.23-0.05,0.1
				c0.12-0.14-0.05,0.05-0.08,0.08c-0.05,0.05-0.09,0.09-0.14,0.13c-0.14,0.13,0.16-0.1-0.01,0c-0.08,0.05-0.15,0.09-0.23,0.13
				c-0.17,0.09,0.19-0.06,0.01,0c-0.07,0.02-0.15,0.05-0.22,0.06c-0.04,0.01-0.26,0.04-0.09,0.02c0.18-0.02-0.12,0.01-0.16,0.01
				c-0.14,0-0.27,0-0.41-0.01c-0.27-0.02,0.16,0.03-0.03,0c-0.08-0.02-0.16-0.03-0.24-0.05c-0.18-0.04-0.35-0.09-0.53-0.15
				c-0.09-0.03-0.19-0.06-0.28-0.1c-0.04-0.02-0.29-0.12-0.15-0.06c0.13,0.06,0.01,0.01-0.01-0.01c-0.06-0.03-0.11-0.05-0.17-0.08
				c-0.08-0.04-0.16-0.07-0.23-0.11c-0.17-0.09-0.34-0.18-0.51-0.27c-0.48-0.27-1.18-0.13-1.45,0.38c-0.26,0.5-0.14,1.16,0.38,1.45
				c0.7,0.39,1.44,0.73,2.21,0.93c0.79,0.21,1.7,0.29,2.48,0c0.8-0.3,1.5-0.86,1.86-1.65c0.37-0.81,0.4-1.66,0.28-2.54
				c-0.11-0.77-0.35-1.51-0.65-2.23c-0.15-0.35-0.35-0.63-0.74-0.74c-0.36-0.1-0.77,0-1.03,0.27c-0.67,0.68-1.38,1.32-2.13,1.91
				c-0.09,0.07-0.05,0.05,0.01-0.01c-0.04,0.04-0.09,0.07-0.13,0.1c-0.09,0.07-0.18,0.13-0.27,0.2c-0.19,0.14-0.39,0.28-0.59,0.41
				c-0.41,0.28-0.82,0.54-1.25,0.79c-0.48,0.28-0.69,0.97-0.38,1.45C65.93,72.21,66.56,72.41,67.07,72.11L67.07,72.11z"/>
		</g>
	</g>
</g>
<g id="Ebene_16_1_">
	<ellipse class="st5" cx="90.03" cy="86.5" rx="6.2" ry="6"/>
	<ellipse class="st5" cx="41.54" cy="85.04" rx="6.2" ry="6"/>
</g>
<g id="Ebene_17_1_">
	<g class="st6">
		<g>
			<path d="M101.18,23.7c3.53,4.46,6.28,9.89,7.9,15.41c0.38,1.3,1.76,2.11,3.08,1.75c1.29-0.35,2.13-1.77,1.75-3.08
				c-1.89-6.44-5.03-12.36-9.19-17.61c-0.84-1.06-2.66-0.88-3.54,0C100.13,21.21,100.34,22.64,101.18,23.7L101.18,23.7z"/>
		</g>
	</g>
</g>
<g id="Ebene_21">
	<g class="st7">
		<path d="M59.38,6.06c-9.03,5.97-17.8,12.54-24.74,20.85S22.65,45.43,22.05,56.24c-0.71,0.78-2.12,0.39-2.71-0.48
			c-0.59-0.87-0.71-2.01-0.56-3.06c1.66-11.46,5.37-22.03,12.17-30.76s17.5-14.14,28.4-16.05"/>
		<g>
			<path d="M58.88,5.2c-14.29,9.47-28.31,20.86-34.76,37.28c-1.73,4.4-2.78,9.04-3.07,13.76c0.1-0.24,0.2-0.47,0.29-0.71
				c-0.49,0.42-1.13-0.22-1.34-0.62c-0.28-0.54-0.31-1.23-0.27-1.82c0.09-1.25,0.38-2.52,0.61-3.75c0.43-2.3,0.96-4.58,1.59-6.83
				c1.23-4.38,2.88-8.64,5.05-12.65c4.3-7.96,10.44-14.29,18.54-18.39c4.43-2.24,9.21-3.75,14.09-4.62
				c1.26-0.23,0.73-2.15-0.53-1.93c-8.77,1.56-17.25,5.24-23.97,11.15c-6.81,5.99-11.37,14.37-14.19,22.9
				c-1.46,4.42-2.62,9.09-3.14,13.73c-0.21,1.84,0.32,4.15,2.3,4.79c0.73,0.24,1.57,0.23,2.24-0.19c0.96-0.6,0.76-1.73,0.86-2.72
				c0.94-9.56,5.42-18.58,11.38-25.99c7.01-8.73,16.06-15.51,25.33-21.66C60.96,6.22,59.96,4.49,58.88,5.2L58.88,5.2z"/>
		</g>
	</g>
	<g class="st7">
		<path d="M18.12,79.08c0.05,10.37,7.2,19.23,14.37,26.73c5.82,6.09,12.06,12.04,19.69,15.63c-10.9-2.14-21.81-4.28-32.71-6.43
			c-3.42-0.67-7.48-1.92-8.35-5.3c-0.36-1.41-0.04-2.9,0.28-4.32c1.91-8.53,3.83-17.06,5.74-25.59"/>
		<g>
			<path d="M17.12,79.08c0.1,7.37,3.55,13.99,7.95,19.72c4.56,5.94,9.98,11.53,15.72,16.33c3.35,2.8,6.94,5.29,10.89,7.17
				c0.26-0.61,0.51-1.22,0.77-1.83c-9.93-1.95-19.85-3.9-29.78-5.85c-3.18-0.62-8.07-0.97-10.05-3.98c-1.3-1.97-0.34-4.58,0.13-6.67
				c0.54-2.41,1.08-4.83,1.63-7.24c1.25-5.55,2.49-11.11,3.74-16.66c0.28-1.25-1.65-1.79-1.93-0.53
				c-1.19,5.31-2.38,10.62-3.58,15.94c-0.58,2.58-1.16,5.15-1.73,7.73c-0.5,2.21-1.32,4.67-0.67,6.93c1.01,3.49,4.82,4.91,8.02,5.64
				c5.17,1.17,10.42,2.06,15.62,3.08c6.02,1.18,12.04,2.37,18.06,3.55c1.04,0.2,1.86-1.31,0.77-1.83
				c-6.68-3.19-12.24-8.08-17.4-13.31c-4.97-5.05-9.94-10.37-13.18-16.74c-1.82-3.57-2.93-7.43-2.99-11.44
				C19.1,77.79,17.1,77.79,17.12,79.08L17.12,79.08z"/>
		</g>
	</g>
	<g>
		<g>
			<path d="M57.45,6.89c1.29,0,1.29-2,0-2C56.16,4.89,56.16,6.89,57.45,6.89L57.45,6.89z"/>
		</g>
	</g>
</g>
<g id="Ebene_18_1_">
</g>
<g id="Ebene_14_1_">
	<g class="st8">
		<g>
			<path class="st9" d="M103.7,53.1c1.36,0,1.36-2.12,0-2.12C102.33,50.98,102.33,53.1,103.7,53.1L103.7,53.1z"/>
		</g>
	</g>
	<g class="st8">
		<g>
			<path class="st9" d="M116.6,59.86c0.25,0.28,0.48,0.57,0.71,0.86c-0.06-0.07-0.11-0.14-0.17-0.21c0.54,0.71,1.03,1.45,1.47,2.23
				c0.27,0.48,0.98,0.68,1.45,0.38c0.49-0.32,0.67-0.93,0.38-1.45c-0.66-1.18-1.45-2.29-2.34-3.31c-0.37-0.42-1.13-0.4-1.5,0
				C116.19,58.8,116.21,59.41,116.6,59.86L116.6,59.86z"/>
		</g>
	</g>
	<g class="st8">
		<g>
			<path class="st9" d="M83.77,140.27c12.41-0.42,22.24,8.22,30.85,16.04c1.01,0.91,2.51-0.58,1.5-1.5
				c-9.04-8.2-19.35-17.1-32.35-16.66C82.41,138.2,82.4,140.32,83.77,140.27L83.77,140.27z"/>
		</g>
	</g>
	<g>
		<g>
			<path class="st9" d="M158.53,143.36c1.29,0,1.29-2,0-2C157.24,141.36,157.24,143.36,158.53,143.36L158.53,143.36z"/>
		</g>
	</g>
</g>
<g id="Ebene_9_6_">
</g>
<g id="Ebene_3">
	<g>
		<g id="Ebene_2_Kopie_5_">
			<g>
				<path class="st15" d="M127.68,62.15c3.56,2.67,14.35,10.85,16.57,10.01c3.61-1.36,26.06-27.65,25.49-30.71
					c-1.2-6.41-44.47-41.22-51.6-39.61c-6.42,1.45-19.86,31.3-19.57,33.86c0.43,3.87,8.74,7.85,11.27,11.63
					c1.13,1.68,2.16,14.89,3.95,15.99c1.02,0.63,9.77,0.24,13.77-1.26"/>
				<g>
					<path class="st16" d="M127.49,62.43c3.49,2.62,6.99,5.25,10.7,7.56c0.89,0.55,1.8,1.09,2.74,1.57c0.69,0.35,1.41,0.7,2.18,0.89
						c0.47,0.12,0.95,0.18,1.41-0.04c0.35-0.17,0.67-0.41,0.98-0.64c1.02-0.78,1.94-1.68,2.86-2.58c1.31-1.29,2.57-2.62,3.82-3.97
						c3-3.26,5.9-6.61,8.7-10.04c2.47-3.02,4.91-6.09,7.08-9.34c0.67-1.01,1.35-2.04,1.83-3.16c0.14-0.32,0.27-0.66,0.29-1.01
						c0.02-0.3-0.08-0.6-0.19-0.87c-0.32-0.78-0.83-1.49-1.34-2.15c-0.75-0.98-1.57-1.91-2.41-2.81c-2.35-2.52-4.87-4.86-7.43-7.16
						c-3.13-2.81-6.35-5.52-9.63-8.15c-3.4-2.74-6.86-5.4-10.4-7.96c-3.16-2.29-6.37-4.51-9.7-6.55c-2.41-1.48-4.9-2.95-7.57-3.94
						c-0.81-0.3-1.68-0.58-2.56-0.62c-0.92-0.04-1.74,0.37-2.48,0.92c-1.19,0.87-2.18,2.04-3.1,3.2c-1.22,1.54-2.31,3.19-3.35,4.86
						c-2.4,3.86-4.51,7.89-6.48,11.98c-1.61,3.34-3.16,6.73-4.41,10.22c-0.32,0.89-0.69,1.83-0.8,2.77
						c-0.07,0.6,0.17,1.23,0.44,1.74c0.49,0.95,1.23,1.76,1.99,2.49c1.89,1.82,4.07,3.31,6.08,5c0.89,0.75,1.77,1.53,2.49,2.45
						c0.25,0.31,0.34,0.42,0.47,0.76c0.1,0.26,0.17,0.52,0.24,0.79c0.49,1.9,0.76,3.87,1.08,5.82c0.36,2.14,0.7,4.3,1.25,6.39
						c0.19,0.71,0.39,1.45,0.74,2.1c0.27,0.49,0.58,0.76,1.13,0.87c0.82,0.16,1.69,0.15,2.52,0.15c1.25-0.01,2.51-0.08,3.76-0.2
						c2.41-0.22,4.92-0.53,7.23-1.38c0.4-0.15,0.13-0.74-0.26-0.59c-1.12,0.41-2.29,0.66-3.45,0.86c-1.31,0.23-2.64,0.39-3.96,0.5
						c-1.2,0.1-2.4,0.16-3.59,0.15c-0.74,0-1.62,0.02-2.28-0.18c-0.04-0.01-0.08-0.03-0.12-0.04c-0.11-0.04,0.01,0.02-0.05-0.03
						c-0.03-0.02-0.06-0.04-0.09-0.07c0.07,0.06-0.06-0.07-0.08-0.09c-0.15-0.19-0.25-0.39-0.36-0.65
						c-0.31-0.73-0.51-1.51-0.69-2.28c-0.5-2.14-0.84-4.32-1.21-6.5c-0.3-1.8-0.54-3.65-1.06-5.4c-0.2-0.67-0.53-1.18-0.99-1.71
						c-0.76-0.89-1.65-1.67-2.55-2.41c-1.99-1.65-4.15-3.11-5.98-4.94c-0.71-0.71-1.42-1.49-1.82-2.43
						c-0.08-0.18-0.15-0.36-0.19-0.56c-0.02-0.11-0.04-0.21-0.06-0.32c0-0.02-0.01-0.18-0.01-0.04c0-0.12,0.01-0.24,0.03-0.36
						c0.06-0.35,0.16-0.72,0.29-1.14c0.18-0.57,0.38-1.14,0.58-1.7c0.57-1.56,1.21-3.09,1.88-4.62c1.73-3.98,3.63-7.89,5.71-11.71
						c1.95-3.59,4.03-7.2,6.6-10.4c0.87-1.09,1.82-2.17,2.97-2.97c0.35-0.24,0.84-0.5,1.22-0.59c0.07-0.02,0.13-0.03,0.2-0.04
						c0.03,0,0.06-0.01,0.09-0.01c0.11-0.01-0.04,0,0.07,0c0.16,0,0.32,0,0.48,0.02c0.44,0.04,0.68,0.1,1.1,0.22
						c0.49,0.13,0.96,0.3,1.43,0.49c1.16,0.46,2.28,1.01,3.38,1.6c3.04,1.63,5.94,3.51,8.79,5.45c3.45,2.35,6.81,4.82,10.12,7.36
						c3.4,2.61,6.74,5.31,10.02,8.08c2.91,2.47,5.77,4.99,8.52,7.64c1.98,1.91,3.97,3.87,5.64,6.07c0.28,0.37,0.56,0.75,0.81,1.15
						c0.05,0.07,0.05,0.07,0.11,0.19c0.05,0.08,0.09,0.17,0.14,0.25c0.08,0.14,0.15,0.29,0.21,0.44c0.03,0.06,0.05,0.13,0.07,0.19
						c0.01,0.03,0.02,0.07,0.03,0.1c-0.03-0.11,0,0.01,0.01,0.03c0.01,0.05,0.02,0.1,0.03,0.16c0.01,0.09,0.01-0.07,0,0.01
						c0,0.03,0,0.06-0.01,0.09c0,0.04-0.04,0.23-0.02,0.12c-0.02,0.08-0.04,0.16-0.07,0.24c-0.06,0.19-0.14,0.38-0.22,0.56
						c-0.47,1.03-1.16,2.08-1.83,3.07c-0.99,1.48-2.05,2.91-3.13,4.32c-2.63,3.44-5.39,6.79-8.23,10.06
						c-2.57,2.96-5.19,5.89-7.98,8.64c-0.9,0.89-1.83,1.79-2.83,2.56c-0.34,0.26-0.51,0.4-0.86,0.57c-0.15,0.07-0.23,0.09-0.37,0.08
						c-0.28-0.01-0.48-0.05-0.74-0.13c-0.77-0.23-1.5-0.59-2.21-0.96c-0.93-0.5-1.84-1.04-2.74-1.61c-2.03-1.28-4.01-2.67-5.95-4.08
						c-1.47-1.06-2.92-2.15-4.37-3.24C127.54,61.63,127.16,62.18,127.49,62.43L127.49,62.43z"/>
				</g>
			</g>
		</g>
		<g id="Ebene_7_4_">
			<g class="st12">
				<g>
					<path class="st9" d="M154.87,33.2c0.99,0.98,2.06,1.86,3.11,2.76c0.29,0.25,0.58,0.5,0.86,0.76c0.14,0.12,0.28,0.25,0.42,0.37
						c0.07,0.06,0.14,0.13,0.21,0.19c0.23,0.21-0.19-0.18,0.04,0.04c0.53,0.5,1.05,1.01,1.54,1.56c0.23,0.25,0.45,0.51,0.65,0.78
						c0.09,0.12,0.18,0.25,0.27,0.37c0.04,0.06,0.08,0.12,0.12,0.18c0.17,0.25-0.11-0.2-0.01-0.03c0.13,0.24,0.26,0.47,0.35,0.73
						c0.02,0.05,0.03,0.12,0.06,0.17c-0.04-0.07-0.08-0.33-0.04-0.13c0.02,0.12,0.02,0.26,0.06,0.37c-0.02-0.06,0.01-0.36-0.01-0.16
						c0,0.05-0.01,0.1-0.01,0.16c-0.02,0.3,0.1-0.26,0.02-0.08c-0.04,0.09-0.19,0.41-0.04,0.12c0.15-0.29,0.03-0.06-0.01,0.01
						c-0.04,0.06-0.08,0.13-0.11,0.19c-0.09,0.15-0.18,0.29-0.28,0.43c-1.32,1.94-2.86,3.74-4.36,5.53
						c-2.12,2.54-4.29,5.05-6.46,7.56c-2.05,2.37-4.11,4.73-6.15,7.11c-0.21,0.25-0.42,0.49-0.63,0.74
						c-0.45,0.53-0.25,1.48,0.29,1.83c0.64,0.4,1.33,0.21,1.82-0.36c2-2.35,4.04-4.68,6.06-7.01c2.23-2.57,4.46-5.14,6.65-7.75
						c1.62-1.92,3.27-3.85,4.71-5.91c0.37-0.53,0.82-1.13,0.99-1.76c0.38-1.47-0.33-2.83-1.16-3.94c-0.93-1.25-2.11-2.32-3.27-3.36
						c-1.07-0.96-2.19-1.87-3.26-2.84c-0.05-0.05-0.11-0.1-0.16-0.14c-0.16-0.15,0.25,0.23,0.06,0.06c-0.1-0.09-0.2-0.19-0.29-0.28
						c-0.48-0.47-1.27-0.66-1.83-0.14C154.58,31.79,154.35,32.69,154.87,33.2L154.87,33.2z"/>
				</g>
			</g>
			<g class="st12">
				<g>
					<path class="st9" d="M140.78,66.41c-0.13,0.26-0.26,0.53-0.39,0.79c0.8-0.05,1.61-0.1,2.41-0.16
						c-0.15-0.36-0.29-0.73-0.43-1.09c-0.33,0.62-0.66,1.24-0.98,1.87c-0.19,0.02-0.36,0.02-0.54-0.07
						c-0.08-0.02-0.14-0.07-0.19-0.13c-0.09-0.1-0.11-0.11-0.05-0.03c-0.09-0.13-0.14-0.24-0.17-0.4c0.01,0.09,0.01,0.08,0-0.05
						c-0.02-0.11,0-0.22,0.04-0.33c0.45-0.3,0.9-0.6,1.35-0.9c0.02,0,0.31,0.1,0.16,0.03c0.15,0.06,0.26,0.14,0.38,0.26
						c-0.11-0.12,0.07,0.12,0.08,0.14c-0.08-0.14,0.04,0.12,0.04,0.15c0.02,0.15-0.01,0.3-0.05,0.44c0.07-0.23-0.29,0.39-0.28,0.37
						c0.12-0.12-0.11,0.07-0.13,0.09c-0.07,0.02-0.13,0.05-0.2,0.07c-0.22,0-0.28,0.01-0.18,0.01c0.15,0.02-0.29-0.07-0.15-0.03
						c0.06,0.02,0.04,0.01-0.07-0.04c-0.07-0.02-0.14-0.06-0.19-0.12c-0.22-0.2-0.32-0.49-0.25-0.79c0.07-0.28-0.08,0.11,0.06-0.16
						c0.14-0.27-0.1,0.08,0.1-0.15c0.04-0.07,0.1-0.12,0.17-0.15c0.11-0.06,0.13-0.08,0.07-0.05c-0.11,0.05,0.33-0.07,0.12-0.06
						c0.5,0.46,1,0.92,1.5,1.38c0.01-0.13,0.01-0.26,0.02-0.39c0.03-0.69-0.44-1.38-1.17-1.4c-0.68-0.01-1.39,0.5-1.42,1.23
						c-0.01,0.13-0.01,0.26-0.02,0.39c-0.02,0.42,0.1,0.78,0.41,1.06c0.32,0.3,0.67,0.35,1.1,0.32c0.87-0.07,1.59-0.97,1.63-1.81
						c0.05-1-0.72-1.86-1.72-1.86c-0.96,0-1.91,0.73-1.93,1.76c-0.02,1,0.67,1.87,1.68,1.93c0.57,0.04,1.14-0.35,1.35-0.9
						c0.22-0.6,0.12-1.3-0.28-1.77c-0.43-0.52-1.01-0.7-1.67-0.63c-0.87,0.09-1.27,1.15-0.98,1.87c0.15,0.36,0.29,0.73,0.43,1.09
						c0.19,0.48,0.73,0.76,1.23,0.73c0.56-0.04,0.93-0.39,1.18-0.89c0.13-0.26,0.26-0.53,0.39-0.79c0.14-0.28,0.09-0.73-0.03-0.99
						c-0.13-0.3-0.42-0.59-0.74-0.68c-0.32-0.09-0.68-0.1-0.98,0.06C141.14,65.82,140.95,66.07,140.78,66.41L140.78,66.41z"/>
				</g>
			</g>
		</g>
		<g id="Ebene_2_6_">
			<g>
				<g>
					<path d="M124.11,63.65c3.49,2.63,7,5.26,10.71,7.57c0.89,0.56,1.8,1.09,2.74,1.57c0.75,0.38,1.51,0.77,2.33,0.98
						c0.63,0.16,1.27,0.23,1.89-0.06c0.4-0.19,0.77-0.46,1.12-0.72c1.02-0.78,1.95-1.68,2.86-2.58c1.31-1.29,2.58-2.63,3.83-3.98
						c3.03-3.29,5.96-6.68,8.79-10.15c2.46-3.02,4.91-6.08,7.06-9.33c0.69-1.04,1.38-2.11,1.86-3.26c0.15-0.37,0.29-0.77,0.31-1.16
						c0.02-0.42-0.11-0.82-0.26-1.2c-0.35-0.84-0.91-1.6-1.45-2.31c-0.76-0.99-1.59-1.92-2.44-2.82c-2.39-2.55-4.95-4.93-7.55-7.25
						c-3.13-2.8-6.35-5.51-9.62-8.14c-3.4-2.73-6.85-5.39-10.38-7.95c-3.15-2.28-6.35-4.49-9.66-6.53
						c-2.47-1.52-5.02-3.03-7.74-4.05c-0.87-0.33-1.8-0.62-2.73-0.67c-1.08-0.05-2.03,0.39-2.91,1.03c-1.24,0.89-2.27,2.11-3.21,3.3
						c-1.22,1.54-2.31,3.18-3.34,4.85c-2.42,3.89-4.54,7.97-6.52,12.09c-1.61,3.35-3.16,6.76-4.41,10.26
						c-0.33,0.93-0.71,1.92-0.81,2.9c-0.08,0.72,0.18,1.47,0.51,2.09c0.54,1.02,1.3,1.88,2.12,2.66c1.95,1.86,4.16,3.39,6.22,5.12
						c0.23,0.19,0.45,0.38,0.67,0.58c0.06,0.05,0.12,0.1,0.18,0.16c0.03,0.03,0.23,0.21,0.04,0.03c0.11,0.1,0.22,0.21,0.33,0.31
						c0.4,0.39,0.79,0.8,1.13,1.25c0.07,0.08,0.13,0.17,0.19,0.26c0.04,0.05,0.07,0.11,0.11,0.15c0.08,0.09-0.13-0.26-0.09-0.14
						c0.04,0.1,0.1,0.19,0.14,0.29c0.05,0.12,0.08,0.24,0.12,0.35c0.09,0.27-0.05-0.2,0.01,0.03c0.03,0.1,0.05,0.2,0.08,0.29
						c0.49,1.89,0.76,3.86,1.09,5.79c0.36,2.14,0.71,4.3,1.27,6.39c0.21,0.76,0.42,1.55,0.8,2.24c0.18,0.32,0.38,0.63,0.68,0.86
						c0.3,0.22,0.64,0.3,1,0.36c0.84,0.15,1.71,0.15,2.56,0.15c1.3-0.01,2.6-0.08,3.89-0.2c2.46-0.22,4.98-0.54,7.33-1.4
						c0.5-0.18,0.7-0.87,0.5-1.32c-0.23-0.52-0.79-0.64-1.29-0.46c-0.07,0.02-0.47,0.16-0.2,0.07c-0.12,0.04-0.24,0.08-0.36,0.11
						c-0.28,0.08-0.57,0.16-0.86,0.23c-0.62,0.15-1.24,0.27-1.86,0.38c-1.31,0.22-2.64,0.38-3.96,0.48
						c-0.14,0.01-0.28,0.02-0.43,0.03c-0.03,0-0.31,0.02-0.09,0.01c-0.08,0.01-0.17,0.01-0.25,0.02c-0.32,0.02-0.65,0.04-0.97,0.05
						c-0.56,0.02-1.13,0.03-1.69,0.03c-0.46,0-0.91-0.02-1.37-0.05c-0.17-0.01-0.34-0.03-0.51-0.05c-0.07-0.01-0.16-0.04-0.23-0.04
						c0.26-0.02,0.17,0.04,0.02,0c-0.05-0.01-0.1-0.04-0.15-0.05c-0.18-0.04,0.15,0.09,0.12,0.06c-0.02-0.02-0.08-0.07-0.11-0.08
						c0.23,0.09,0.17,0.18,0.07,0.05c-0.03-0.05-0.07-0.09-0.1-0.14c-0.13-0.16,0.13,0.23,0.03,0.05c-0.07-0.13-0.14-0.27-0.2-0.4
						c-0.14-0.33-0.26-0.67-0.36-1.01c-0.02-0.06-0.09-0.24,0.01,0.03c-0.02-0.05-0.03-0.11-0.05-0.16c-0.03-0.1-0.06-0.2-0.08-0.3
						c-0.06-0.23-0.12-0.47-0.18-0.7c-0.51-2.13-0.86-4.31-1.22-6.47c-0.32-1.86-0.58-3.77-1.13-5.57c-0.21-0.7-0.57-1.25-1.03-1.81
						c-0.81-0.96-1.77-1.79-2.73-2.58c-1.01-0.84-2.05-1.63-3.08-2.44c-0.51-0.4-1.01-0.81-1.51-1.23
						c-0.23-0.19-0.45-0.39-0.67-0.59c-0.06-0.05-0.12-0.11-0.18-0.16c-0.19-0.17,0.1,0.1-0.01-0.01c-0.12-0.12-0.24-0.23-0.36-0.35
						c-0.39-0.39-0.77-0.79-1.11-1.23c-0.15-0.19-0.28-0.39-0.42-0.59c-0.13-0.18,0.1,0.2,0,0c-0.03-0.05-0.06-0.11-0.09-0.16
						c-0.06-0.1-0.11-0.21-0.16-0.32c-0.05-0.1-0.09-0.21-0.13-0.32c-0.01-0.03-0.02-0.07-0.04-0.11c-0.07-0.19,0.04,0.22,0.01,0.03
						c-0.03-0.14-0.03-0.33-0.08-0.47c0.09,0.26-0.01,0.29,0.01,0.16c0-0.02,0-0.05,0-0.07c0-0.07,0.02-0.14,0.03-0.21
						c0.01-0.08,0.03-0.15,0.04-0.23c0.04-0.23-0.04,0.17-0.02,0.09c0.01-0.05,0.02-0.1,0.04-0.15c0.06-0.22,0.12-0.45,0.19-0.67
						c0.18-0.58,0.37-1.15,0.58-1.71c0.57-1.55,1.2-3.08,1.86-4.6c0.82-1.9,1.69-3.78,2.59-5.64c0.5-1.03,1-2.05,1.52-3.07
						c0.12-0.24,0.25-0.48,0.37-0.72c0.03-0.06,0.22-0.42,0.08-0.16c0.08-0.15,0.16-0.31,0.24-0.46c0.26-0.5,0.53-1,0.8-1.5
						c1.94-3.59,4.01-7.19,6.58-10.38c0.26-0.32,0.52-0.64,0.8-0.95c0.06-0.07,0.28-0.28,0.02-0.02c0.07-0.07,0.13-0.14,0.2-0.22
						c0.13-0.14,0.26-0.27,0.39-0.41c0.45-0.45,0.92-0.86,1.44-1.22c0.03-0.02,0.06-0.04,0.09-0.06c0.01-0.01-0.24,0.15-0.13,0.08
						c0.06-0.03,0.12-0.07,0.18-0.11c0.11-0.07,0.23-0.13,0.34-0.18c0.1-0.05,0.2-0.09,0.31-0.13c0.18-0.08-0.28,0.08-0.05,0.02
						c0.05-0.01,0.11-0.03,0.16-0.04c0.06-0.01,0.13-0.02,0.19-0.03c0.04-0.01,0.07-0.01,0.11-0.01c0.04-0.01-0.32,0.01-0.11,0.01
						c0.16,0,0.32,0,0.49,0.02c0.09,0.01,0.17,0.02,0.26,0.03c0.05,0.01,0.1,0.02,0.15,0.02c0.24,0.04-0.14-0.03-0.07-0.02
						c0.21,0.05,0.41,0.09,0.61,0.15c0.49,0.14,0.96,0.31,1.43,0.5c0.55,0.22,1.09,0.46,1.62,0.71c0.14,0.07,0.28,0.13,0.42,0.2
						c0.06,0.03,0.13,0.06,0.19,0.1c0.04,0.02,0.08,0.04,0.12,0.06c0.22,0.11-0.18-0.1-0.03-0.02c0.31,0.16,0.62,0.32,0.93,0.49
						c3.03,1.63,5.93,3.52,8.78,5.46c3.42,2.34,6.76,4.79,10.05,7.31c3.41,2.62,6.76,5.31,10.04,8.09c1.53,1.29,3.04,2.61,4.53,3.94
						c0.71,0.64,1.42,1.27,2.12,1.93c-0.19-0.18-0.02-0.01,0.07,0.06c0.09,0.08,0.17,0.16,0.26,0.24c0.17,0.16,0.34,0.32,0.51,0.47
						c0.31,0.3,0.63,0.59,0.94,0.89c1.99,1.91,3.98,3.88,5.66,6.07c0.29,0.37,0.56,0.75,0.81,1.14c0.02,0.04,0.05,0.08,0.07,0.11
						c-0.22-0.32-0.09-0.14-0.04-0.06c0.05,0.08,0.1,0.17,0.14,0.25c0.08,0.14,0.15,0.29,0.22,0.45c0.03,0.06,0.05,0.13,0.08,0.19
						c0.01,0.03,0.02,0.06,0.03,0.09c0.06,0.16-0.07-0.3-0.03-0.12c0.01,0.05,0.02,0.11,0.04,0.16c0.05,0.19,0.04-0.32,0-0.07
						c-0.01,0.06-0.02,0.12-0.03,0.18c0.02-0.31,0.04-0.17-0.01,0c-0.06,0.18-0.13,0.36-0.2,0.53c-0.04,0.1-0.09,0.19-0.14,0.29
						c-0.03,0.06-0.06,0.11-0.08,0.17c-0.12,0.24,0.12-0.22,0.02-0.03c-0.13,0.25-0.27,0.49-0.41,0.74
						c-0.35,0.6-0.73,1.19-1.12,1.77c-0.98,1.46-2.02,2.87-3.09,4.27c-2.63,3.45-5.4,6.8-8.24,10.07c-0.71,0.82-1.43,1.64-2.15,2.44
						c-0.35,0.39-0.7,0.78-1.05,1.17c-0.04,0.04-0.2,0.22,0,0c-0.04,0.04-0.07,0.08-0.11,0.12c-0.08,0.09-0.16,0.18-0.25,0.27
						c-0.18,0.19-0.36,0.39-0.53,0.58c-1.22,1.32-2.46,2.63-3.74,3.89c-0.91,0.89-1.83,1.78-2.84,2.56
						c-0.16,0.13-0.34,0.24-0.5,0.36c0.33-0.25,0.09-0.06-0.01,0c-0.07,0.04-0.13,0.07-0.2,0.1c-0.03,0.01-0.06,0.02-0.08,0.04
						c-0.13,0.07,0.28-0.05,0.12-0.04c-0.04,0-0.11,0.01-0.15,0.02c-0.08,0.02-0.15-0.12,0.17-0.01c-0.03-0.01-0.08,0-0.11,0
						c-0.12-0.01-0.23-0.03-0.35-0.04c-0.16-0.02,0.26,0.07,0.11,0.02c-0.04-0.01-0.07-0.02-0.11-0.03
						c-0.08-0.02-0.15-0.04-0.23-0.06c-0.35-0.1-0.68-0.24-1.01-0.38c-0.18-0.08-0.37-0.17-0.55-0.25c-0.07-0.03-0.44-0.2-0.14-0.07
						c-0.11-0.05-0.22-0.11-0.32-0.17c-0.95-0.5-1.86-1.06-2.77-1.63c-2.02-1.28-3.99-2.66-5.93-4.07
						c-1.47-1.07-2.93-2.16-4.38-3.25c-0.42-0.31-1.06-0.16-1.36,0.27C123.57,62.74,123.69,63.34,124.11,63.65L124.11,63.65z"/>
				</g>
			</g>
		</g>
		<g id="Ebene_10_3_">
			<g>
				<g>
					<path class="st9" d="M128.05,18.54c0.88,5.53,1.66,11.08,2.36,16.65c0.69,5.47,1.31,10.96,1.89,16.45
						c0.32,3.05,0.63,6.1,0.94,9.16c0.12,1.2,1.45,2.1,2.61,1.82c1.27-0.31,2.01-1.43,1.89-2.71c-0.54-5.44-1.11-10.89-1.72-16.32
						c-0.62-5.52-1.3-11.04-2.07-16.54c-0.44-3.14-0.9-6.27-1.4-9.39c-0.19-1.19-1.4-2.11-2.61-1.82
						C128.73,16.12,127.85,17.27,128.05,18.54L128.05,18.54z"/>
				</g>
			</g>
			<g>
				<g>
					<path class="st9" d="M111.91,45.24c6.06-1.2,12.1-2.47,18.13-3.84c4.46-1.02,8.91-2.08,13.38-3.06
						c2.96-0.65,5.93-1.27,8.9-1.85c1.18-0.23,2.13-1.5,1.89-2.71c-0.25-1.21-1.35-2.07-2.61-1.82c-4.94,0.98-9.87,2.05-14.78,3.18
						c-4.77,1.1-9.53,2.22-14.31,3.25c-3.76,0.81-7.53,1.58-11.31,2.33c-1.18,0.23-2.13,1.5-1.89,2.71
						C109.55,44.63,110.65,45.49,111.91,45.24L111.91,45.24z"/>
				</g>
			</g>
		</g>
		<g id="Ebene_9_4_">
			<g class="st13">
				<path d="M117.4,2.12c-10.71,15.37-6.9,45.01-2.13,62.1c-1.66-0.58-1.99-3.83-3.29-8.49c-1.84-6.58-0.32-6.17-2.03-8.85
					c-1.42-2.22-4.02-3.7-6.12-5.27c-1.94-1.45-4.16-3.54-4.71-5.46c-0.72-2.54,8.39-21.98,16.18-32.41"/>
				<g>
					<path d="M116.87,1.75c-2.22,3.19-3.74,6.83-4.78,10.55c-1.15,4.12-1.77,8.37-2.04,12.61c-0.29,4.5-0.22,9.01,0.1,13.48
						c0.31,4.41,0.86,8.8,1.62,13.14c0.67,3.89,1.51,7.76,2.52,11.56c0.11,0.42,0.23,0.84,0.34,1.26c0.29-0.25,0.58-0.5,0.87-0.75
						c-0.04-0.02-0.09-0.03-0.13-0.05c0.16,0.07,0.02,0.01-0.01-0.01c-0.07-0.04-0.13-0.09-0.19-0.14
						c-0.14-0.11,0.03,0.06-0.09-0.09c-0.07-0.08-0.14-0.16-0.2-0.25c-0.03-0.05-0.06-0.09-0.09-0.14c0.07,0.11,0,0-0.02-0.03
						c-0.05-0.1-0.11-0.2-0.16-0.3c-0.11-0.23-0.2-0.46-0.29-0.7c-0.46-1.27-0.74-2.61-1.07-3.92c-0.64-2.57-1.46-5.09-1.65-7.77
						c-0.04-0.53-0.04-1.08-0.16-1.6c-0.14-0.65-0.43-1.24-0.77-1.8c-1.68-2.77-4.61-4.24-7.07-6.2c-1.12-0.89-2.19-1.88-3.03-3.05
						c-0.35-0.48-0.63-1-0.82-1.57c-0.03-0.08,0.01,0.1-0.01-0.04c0-0.03-0.01-0.06-0.01-0.09c-0.02-0.1,0.04-0.12,0,0.04
						c0.01-0.04,0-0.1,0-0.14c0.01-0.22,0.04-0.43,0.08-0.64c0.01-0.07,0.03-0.14,0.04-0.21c0.01-0.05,0.06-0.26,0.01-0.05
						c0.04-0.15,0.07-0.29,0.11-0.44c0.19-0.72,0.43-1.44,0.68-2.14c1.56-4.36,3.62-8.57,5.76-12.68c2.51-4.82,5.23-9.58,8.37-14.02
						c0.34-0.48,0.69-0.96,1.05-1.44c0.51-0.69-0.54-1.42-1.05-0.74c-3.25,4.36-6.02,9.09-8.58,13.87c-2.35,4.4-4.59,8.9-6.38,13.55
						c-0.54,1.4-1.08,2.84-1.32,4.32c-0.08,0.51-0.08,0.98,0.08,1.47c0.43,1.31,1.38,2.43,2.33,3.37c1.1,1.11,2.33,2.06,3.6,2.96
						c1.31,0.92,2.67,1.81,3.79,2.97c0.28,0.28,0.54,0.58,0.78,0.9c0.11,0.14,0.21,0.29,0.31,0.44c0.04,0.06,0.08,0.13,0.12,0.19
						c0.07,0.11-0.04-0.07,0.04,0.07c0.17,0.29,0.34,0.59,0.46,0.91c0.02,0.06,0.04,0.12,0.07,0.18c0.03,0.08,0.06,0.2,0.02,0.04
						c0.03,0.13,0.07,0.26,0.09,0.4c0.04,0.25,0.06,0.51,0.08,0.77c0.05,0.78,0.11,1.56,0.23,2.34c0.23,1.48,0.63,2.92,1.01,4.36
						c0.42,1.55,0.76,3.12,1.2,4.67c0.29,1.02,0.6,2.13,1.28,2.95c0.29,0.34,0.64,0.6,1.06,0.76c0.42,0.16,1-0.27,0.87-0.75
						c-1.03-3.68-1.88-7.43-2.57-11.2c-0.79-4.25-1.38-8.54-1.76-12.86c-0.38-4.4-0.53-8.83-0.34-13.27
						c0.18-4.2,0.66-8.43,1.67-12.55c0.91-3.7,2.24-7.36,4.26-10.59c0.24-0.39,0.49-0.76,0.75-1.14
						C118.42,1.79,117.36,1.05,116.87,1.75L116.87,1.75z"/>
				</g>
			</g>
		</g>
	</g>
</g>
<g id="Ebene_19_1_">
</g>
</svg>
