<?xml version="1.0" encoding="utf-8"?>
<!-- Generator: Adobe Adobe Illustrator 24.2.0, SVG Export Plug-In . SVG Version: 6.00 Build 0)  -->
<svg version="1.1" xmlns="http://www.w3.org/2000/svg" xmlns:xlink="http://www.w3.org/1999/xlink" x="0px" y="0px"
	 viewBox="0 0 1700.79 1700.79" style="enable-background:new 0 0 1700.79 1700.79;" xml:space="preserve">
<style type="text/css">
	.st0{fill:#FFFFFF;}
	.st1{opacity:0.149;}
</style>
<g id="Ebene_3">
</g>
<g id="Ebene_2">
	<g>
		<g>
			<path d="M902.07,357.43c4.54,84.17,9.09,168.34,13.63,252.5c1.29,23.86,2.58,47.72,3.86,71.58c0.52,9.6,15.52,9.66,15,0
				c-4.54-84.17-9.09-168.34-13.63-252.5c-1.29-23.86-2.58-47.72-3.86-71.58C916.55,347.83,901.55,347.77,902.07,357.43
				L902.07,357.43z"/>
		</g>
	</g>
	<g>
		<g>
			<path d="M501.39,593.5c107.73-0.52,215.44-2.02,323.16-3.77c111.07-1.81,222.13-3.91,333.2-5.77c59.88-1,119.76-1.93,179.64-2.67
				c13.17-0.16,13.21-20.65,0-20.48c-108.43,1.34-216.85,3.28-325.26,5.21c-110.87,1.97-221.73,3.95-332.61,5.37
				c-59.37,0.76-118.75,1.35-178.13,1.64C488.21,573.09,488.19,593.57,501.39,593.5L501.39,593.5z"/>
		</g>
	</g>
	<g>
		<g>
			<path class="st0" d="M1066.75,997.58c-18.02,80.29,15.78,170.95,84.58,216.09c68.8,45.14,168.57,38.56,227.88-18.48
				c56.72-54.55,69.93-139.03,79.43-217.15c-131.67,6.68-263.34,13.36-395.01,20.03"/>
			<g>
				<path class="st0" d="M1059.52,995.59c-20.83,94.49,26.22,201.81,117.43,240.03c44.02,18.45,95.17,20.19,140.42,4.99
					c47.22-15.86,83.99-49.9,106.73-93.9c26.89-52.03,35.06-111.24,42.06-168.66c0.47-3.9-3.82-7.69-7.5-7.5
					c-102.41,5.19-204.82,10.39-307.23,15.58c-29.26,1.48-58.52,2.97-87.78,4.45c-9.61,0.49-9.66,15.49,0,15
					c102.41-5.19,204.82-10.39,307.23-15.58c29.26-1.48,58.52-2.97,87.78-4.45c-2.5-2.5-5-5-7.5-7.5
					c-11.06,90.73-29.45,199.96-122.46,242.13c-40.24,18.24-87.61,20.39-129.71,7.53c-43.22-13.2-78.79-43.36-101.4-82.21
					c-25.36-43.57-34.48-96.58-23.6-145.92C1076.06,990.17,1061.6,986.15,1059.52,995.59L1059.52,995.59z"/>
			</g>
		</g>
		<g>
			<g>
				<path d="M1272.57,587.01c-29.83,58.63-61.88,116.05-94.9,172.94c-30.66,52.82-61.96,105.29-91.77,158.6
					c-17.82,31.87-35.11,64.04-51.66,96.58c-4.37,8.59,8.57,16.19,12.95,7.57c28.67-56.35,59.64-111.45,91.42-166.1
					c31.06-53.41,62.65-106.52,92.74-160.5c18.68-33.5,36.78-67.33,54.17-101.52C1289.89,585.99,1276.95,578.39,1272.57,587.01
					L1272.57,587.01z"/>
			</g>
		</g>
		<g>
			<g>
				<path d="M1271.82,600.51c19.19,60.65,38.71,121.22,60.19,181.1c15.62,43.55,32.56,86.58,50.17,129.36
					c11.48,27.89,23.15,55.71,34.75,83.55c1.55,3.72,4.97,6.43,9.23,5.24c3.52-0.99,6.81-5.45,5.24-9.23
					c-19.3-46.3-38.85-92.51-57.21-139.19c-18.3-46.53-35.11-93.62-51-141.03c-12.68-37.81-24.87-75.78-36.9-113.8
					C1283.38,587.35,1268.89,591.27,1271.82,600.51L1271.82,600.51z"/>
			</g>
		</g>
		<g>
			<g>
				<path d="M1018.7,1026.4c113.03-7.51,226.14-13.66,339.21-20.57c30.5-1.86,61-3.78,91.48-5.8c9.58-0.64,9.65-15.64,0-15
					c-113.03,7.51-226.14,13.66-339.21,20.57c-30.5,1.86-61,3.78-91.48,5.8C1009.12,1012.04,1009.04,1027.04,1018.7,1026.4
					L1018.7,1026.4z"/>
			</g>
		</g>
		<g>
			<g>
				<path d="M1023.21,1018.9c-5.22,59.32,1.12,122.22,31.48,174.58c23.06,39.76,59.61,70.3,103.44,84.5
					c41.67,13.51,87.81,11.64,128.84-3.29c45.32-16.49,83.78-47.82,110.48-87.86c32.82-49.22,46.1-109.08,45.76-167.68
					c-0.05-8.56-0.4-17.12-0.98-25.66c-0.65-9.58-15.66-9.65-15,0c3.95,58.08-4.21,118.09-32.69,169.3
					c-22.38,40.24-55.87,72.59-97.88,91.84c-36.8,16.87-80.44,22.12-119.87,12.96c-40.88-9.5-76.72-33.89-100.55-68.17
					c-31.24-44.93-41.09-100.84-39.54-155.07c0.24-8.5,0.77-16.99,1.52-25.46C1039.06,1009.29,1024.06,1009.35,1023.21,1018.9
					L1023.21,1018.9z"/>
			</g>
		</g>
	</g>
	<g>
		<g>
			<path class="st0" d="M352.89,1022.97c-18.02,80.29,15.78,170.95,84.58,216.09c68.8,45.14,168.57,38.56,227.88-18.48
				c56.72-54.55,69.93-139.03,79.43-217.15c-131.67,6.68-263.34,13.36-395.01,20.03"/>
			<g>
				<path class="st0" d="M345.66,1020.98c-20.83,94.49,26.22,201.81,117.43,240.03c44.02,18.45,95.17,20.19,140.42,4.99
					c47.22-15.86,83.99-49.9,106.73-93.9c26.89-52.03,35.06-111.24,42.06-168.66c0.47-3.9-3.82-7.69-7.5-7.5
					c-102.41,5.19-204.82,10.39-307.23,15.58c-29.26,1.48-58.52,2.97-87.78,4.45c-9.61,0.49-9.66,15.49,0,15
					c102.41-5.19,204.82-10.39,307.23-15.58c29.26-1.48,58.52-2.97,87.78-4.45c-2.5-2.5-5-5-7.5-7.5
					c-11.06,90.73-29.45,199.96-122.46,242.13c-40.24,18.24-87.61,20.39-129.71,7.53c-43.22-13.2-78.79-43.36-101.4-82.21
					c-25.36-43.57-34.48-96.58-23.6-145.92C362.2,1015.56,347.74,1011.54,345.66,1020.98L345.66,1020.98z"/>
			</g>
		</g>
		<g>
			<g>
				<path d="M584.19,587.05c-29.83,58.63-61.88,116.05-94.9,172.94c-30.66,52.82-61.96,105.29-91.77,158.6
					c-17.82,31.87-35.11,64.04-51.66,96.58c-4.37,8.59,8.57,16.19,12.95,7.57c28.67-56.35,59.64-111.45,91.42-166.1
					c31.06-53.41,62.65-106.52,92.74-160.5c18.68-33.5,36.78-67.33,54.17-101.52C601.51,586.04,588.57,578.44,584.19,587.05
					L584.19,587.05z"/>
			</g>
		</g>
		<g>
			<g>
				<path d="M583.43,600.56c19.18,60.65,38.71,121.22,60.19,181.1c15.62,43.55,32.56,86.58,50.17,129.36
					c11.48,27.89,23.15,55.71,34.75,83.55c1.55,3.72,4.97,6.43,9.23,5.24c3.52-0.99,6.81-5.45,5.24-9.23
					c-19.3-46.3-38.85-92.51-57.21-139.19c-18.3-46.53-35.11-93.62-51-141.03c-12.68-37.81-24.87-75.78-36.9-113.8
					C594.99,587.4,580.51,591.32,583.43,600.56L583.43,600.56z"/>
			</g>
		</g>
		<g>
			<g>
				<path d="M330.31,1026.45c113.03-7.5,226.14-13.66,339.21-20.57c30.5-1.86,61-3.78,91.48-5.8c9.58-0.64,9.65-15.64,0-15
					c-113.03,7.51-226.14,13.66-339.21,20.57c-30.5,1.86-61,3.78-91.48,5.8C320.73,1012.09,320.66,1027.09,330.31,1026.45
					L330.31,1026.45z"/>
			</g>
		</g>
		<g>
			<g>
				<path d="M334.83,1018.95c-5.22,59.32,1.12,122.22,31.48,174.58c23.06,39.76,59.61,70.3,103.44,84.5
					c41.67,13.51,87.81,11.64,128.84-3.29c45.32-16.49,83.78-47.82,110.48-87.86c32.82-49.22,46.1-109.08,45.76-167.68
					c-0.05-8.56-0.4-17.12-0.98-25.66c-0.65-9.58-15.66-9.65-15,0c3.95,58.08-4.21,118.09-32.69,169.3
					c-22.38,40.24-55.87,72.59-97.88,91.84c-36.8,16.87-80.44,22.12-119.87,12.96c-40.88-9.5-76.72-33.89-100.55-68.17
					c-31.24-44.93-41.09-100.84-39.54-155.07c0.24-8.5,0.77-16.99,1.52-25.46C350.68,1009.34,335.67,1009.39,334.83,1018.95
					L334.83,1018.95z"/>
			</g>
		</g>
	</g>
</g>
<g id="Ebene_4">
	<g class="st1">
		<path d="M356.92,1029.45c-24.71,83.38,17.34,181.46,94.77,221.05c77.43,39.59,181.56,16.26,234.69-52.6
			c-58.79,27.45-131.83,21.61-185.51-14.83c-53.68-36.44-86.08-102.16-82.27-166.93c-23.39,2.39-46.79,4.78-70.18,7.16"/>
		<g>
			<path d="M349.69,1027.46c-19.85,68.02,2.15,144.7,51.41,194.86c24.53,24.98,55.86,42.67,90.07,50.25
				c34.15,7.57,70.26,5.83,103.7-4.35c37.76-11.49,72.47-33.73,96.81-65.01c5.22-6.71-1.05-15.49-9.09-11.78
				c-45.28,20.89-98.74,21.14-144.88,2.82c-44.86-17.81-80.64-55.24-98.49-99.88c-9.95-24.89-14.58-51.44-13.13-78.22
				c0.2-3.76-3.61-7.9-7.5-7.5c-23.39,2.39-46.79,4.78-70.18,7.16c-4.03,0.41-7.5,3.15-7.5,7.5c0,3.74,3.45,7.91,7.5,7.5
				c23.39-2.39,46.79-4.78,70.18-7.16c-2.5-2.5-5-5-7.5-7.5c-2.81,51.72,16.22,103.49,50.42,142.18
				c35.48,40.12,87.15,62.71,140.45,64.18c30.39,0.84,60.6-5.39,88.19-18.12c-3.03-3.93-6.06-7.85-9.09-11.78
				c-40.14,51.58-109.31,77.58-173.73,67.77c-32.14-4.89-62.32-18.45-86.66-40.12c-24.35-21.67-42.7-49.87-53.14-80.72
				c-11.8-34.85-13.73-72.64-3.39-108.09C366.87,1022.16,352.4,1018.2,349.69,1027.46L349.69,1027.46z"/>
		</g>
	</g>
	<g class="st1">
		<path d="M1042.64,1031.28c-12.41,60.06,2.55,125.71,41.6,173c39.05,47.3,101.88,74.57,162.91,68.51s118.08-46.21,142.33-102.54
			c-56.63,34.88-131.86,37.21-190.53,5.9s-98.62-95.1-101.17-161.56c-21.03,2.38-42.07,4.76-63.1,7.15"/>
		<g>
			<path d="M1035.41,1029.29c-15.31,75.57,10.13,158.84,71.31,207.54c29.73,23.66,65.4,38.81,103.19,43.14
				c36.29,4.15,73.13-3.27,105.36-20.35c35.24-18.68,64.7-48.91,80.7-85.58c2.77-6.36-3.24-14.54-10.26-10.26
				c-44.34,27.04-99.55,33.88-149.38,19.46c-47.42-13.72-86.61-47.42-109.66-90.81c-12.74-23.99-20.23-50.69-21.39-77.85
				c-0.16-3.7-3.33-7.97-7.5-7.5c-21.03,2.38-42.07,4.76-63.1,7.15c-4.02,0.46-7.5,3.12-7.5,7.5c0,3.7,3.45,7.96,7.5,7.5
				c21.03-2.38,42.07-4.76,63.1-7.15c-2.5-2.5-5-5-7.5-7.5c2.22,52.27,25.85,102.77,63.98,138.53
				c40.25,37.75,95.38,56.22,150.28,51.89c31.32-2.47,61.87-11.89,88.73-28.27c-3.42-3.42-6.84-6.84-10.26-10.26
				c-26.83,61.49-91.48,101.69-158.39,99.57c-71.33-2.25-136.14-48.7-163.25-114.3c-15.39-37.24-19.5-78.97-11.5-118.46
				C1051.78,1023.85,1037.33,1019.82,1035.41,1029.29L1035.41,1029.29z"/>
		</g>
	</g>
</g>
</svg>
