<?xml version="1.0" encoding="utf-8"?>
<!-- Generator: Adobe Adobe Illustrator 24.2.0, SVG Export Plug-In . SVG Version: 6.00 Build 0)  -->
<svg version="1.1" id="Ebene_1" xmlns="http://www.w3.org/2000/svg" xmlns:xlink="http://www.w3.org/1999/xlink" x="0px" y="0px"
	 viewBox="0 0 1700.79 1700.79" style="enable-background:new 0 0 1700.79 1700.79;" xml:space="preserve">
<style type="text/css">
	.st0{fill:#FFFFFF;}
	.st1{fill:#808D9C;}
	.st2{fill:#ADBECE;}
	.st3{fill:#D3E1EC;}
	.st4{fill:#CA5B7B;stroke:#CC5B7C;stroke-width:1.0618;stroke-miterlimit:10;}
	.st5{stroke:#000000;stroke-width:0.834;stroke-miterlimit:10;}
	.st6{fill:#FFFFFF;stroke:#FFFFFF;stroke-width:0.2278;stroke-miterlimit:10;}
	.st7{opacity:0.149;}
	.st8{opacity:0.0902;}
</style>
<g>
	<g id="Ebene_9">
		<g>
			<path class="st0" d="M606.34,1540.9c15.53-8.01,34.17,0.94,48.73,10.59c42.68,28.29,80.19,64.36,110.13,105.9
				c-49.59-4.07-99.5-4.11-149.09-0.12c-4.01-38.21-8.02-76.43-12.02-114.64"/>
			<g>
				<path class="st0" d="M608.87,1545.22c15.27-7.32,32.59,3.18,45.1,11.53c13.84,9.24,27.11,19.33,39.73,30.18
					c25.14,21.61,47.75,46.13,67.18,72.98c1.44-2.51,2.88-5.02,4.32-7.52c-49.61-4.02-99.47-4.06-149.09-0.12
					c1.67,1.67,3.33,3.33,5,5c-4.01-38.21-8.02-76.43-12.02-114.64c-0.66-6.34-10.67-6.4-10,0c4.01,38.21,8.02,76.43,12.02,114.64
					c0.26,2.52,2.08,5.23,5,5c49.62-3.94,99.48-3.89,149.09,0.12c3.61,0.29,6.48-4.54,4.32-7.52
					c-21.29-29.41-46.04-56.19-73.96-79.42c-13.76-11.44-28.21-22.67-43.6-31.84c-14.58-8.68-31.88-14.83-48.14-7.03
					C598.02,1539.36,603.08,1547.99,608.87,1545.22L608.87,1545.22z"/>
			</g>
		</g>
		<g>
			<path class="st0" d="M369.35,1063.91c11.66-18.23,19.95-38.6,24.34-59.79c-17.06-7.86-39.72,0.4-47.73,17.4
				c-8,17,0.07,39.73,16.99,47.87"/>
			<g>
				<path class="st0" d="M373.67,1066.43c11.83-18.7,20.25-39.35,24.84-60.99c0.42-1.96-0.23-4.74-2.3-5.65
					c-19.65-8.56-45.06-0.71-54.57,19.19c-9.35,19.58-0.49,44.93,18.79,54.71c5.73,2.9,10.79-5.72,5.05-8.63
					c-14.34-7.28-21.99-26-15.2-41.03c6.64-14.69,26.15-22.02,40.88-15.6c-0.77-1.88-1.53-3.76-2.3-5.65
					c-4.43,20.87-12.43,40.57-23.83,58.6C361.58,1066.84,370.23,1071.87,373.67,1066.43L373.67,1066.43z"/>
			</g>
		</g>
	</g>
	<g id="Ebene_2_1_">
		<g>
			<path class="st0" d="M458.54,691.92c-23.2,131.76-48.29,269.81-71.49,401.58c-3.8,21.6-7.29,45.22,3.48,64.32
				c17,30.13,58.56,32.87,93.14,31.91c64.93-1.81,129.85-3.63,194.78-5.44c24.62-0.69,53.08-3.37,66.89-23.76
				c11.48-16.95,8.02-39.51,4.02-59.59c-28.08-141.1-60.15-281.41-96.14-420.7"/>
			<g>
				<path d="M453.72,690.59c-16.4,93.15-33.17,186.23-49.79,279.34c-4.13,23.16-8.26,46.32-12.37,69.48
					c-3.96,22.32-8.54,44.64-11.62,67.1c-2.66,19.33-2.96,40.37,8.38,57.23c8.97,13.32,23.06,21.46,38.26,25.81
					c16.24,4.64,33.48,5.5,50.28,5.32c23.14-0.25,46.29-1.24,69.42-1.88c24.18-0.68,48.36-1.35,72.54-2.03
					c23.16-0.65,46.41-0.71,69.54-2.08c16.4-0.97,34.15-3.29,48.08-12.72c15.99-10.82,22.23-28.75,21.67-47.51
					c-0.64-21.41-6.68-42.92-10.94-63.82c-4.86-23.82-9.82-47.61-14.91-71.38c-20.05-93.79-41.87-187.21-65.43-280.18
					c-2.91-11.46-5.84-22.92-8.8-34.37c-1.61-6.23-11.26-3.59-9.64,2.66c23.16,89.69,44.72,179.78,64.62,270.25
					c9.88,44.91,19.36,89.91,28.43,134.99c3.86,19.19,10.33,40.82,4.69,60.27c-5.01,17.27-20.44,25.72-37,29.24
					c-19.04,4.05-39.16,3.22-58.51,3.76c-23.19,0.65-46.38,1.3-69.56,1.94c-23.19,0.65-46.38,1.3-69.56,1.94
					c-18.97,0.53-38.08,1.75-57.04,0.26c-15.67-1.23-32.13-4.39-45.33-13.41c-15.37-10.49-21.07-27.89-20.78-45.9
					c0.35-21.4,5.79-42.93,9.5-63.92c3.92-22.15,7.86-44.29,11.8-66.43c15.95-89.47,32.07-178.9,47.9-268.39
					c1.94-10.97,3.88-21.94,5.81-32.91C464.47,686.96,454.83,684.26,453.72,690.59L453.72,690.59z"/>
			</g>
		</g>
		<g>
			<g>
				<path d="M445.24,688.39c-51.91,43.28-103.82,86.55-155.73,129.83c-11.29,9.41-23.89,18.29-33.6,29.4
					c-8.16,9.34-13.48,21.23-9.89,33.72c3.47,12.07,13.46,20.81,23.14,28.09c12.69,9.55,25.86,18.52,38.79,27.75
					c30.81,21.99,61.63,43.97,92.44,65.96c-0.6-2.28-1.2-4.56-1.79-6.84c-12.13,25.21-24.26,50.41-36.39,75.62
					c2.28-0.6,4.56-1.2,6.84-1.79c-16.31-11.91-39.14-35.66-20.28-55.45c13.24-13.89,36.23-17.09,53.51-9.8
					c5.92,2.5,8.51-7.18,2.66-9.64c-17.03-7.18-38.17-4.88-53.79,4.81c-15.52,9.63-23.88,27.11-16.95,44.8
					c5.63,14.36,17.64,25.03,29.8,33.91c2.06,1.51,5.76,0.46,6.84-1.79c12.13-25.21,24.26-50.41,36.39-75.62
					c1.25-2.61,0.56-5.16-1.79-6.84c-25.72-18.35-51.45-36.71-77.17-55.06c-12.86-9.18-25.72-18.35-38.59-27.53
					c-10.46-7.46-22.86-14.66-30.24-25.52c-7.58-11.16-4.46-22.75,4.05-32.27c9.44-10.57,21.47-19.14,32.32-28.18
					c24.55-20.47,49.1-40.93,73.65-61.4c27.62-23.02,55.23-46.05,82.85-69.07C457.26,691.33,450.15,684.29,445.24,688.39
					L445.24,688.39z"/>
			</g>
		</g>
		<g>
			<path class="st1" d="M805.93,387.38c73.09-9.54,56.58,129.48-6.14,117.58"/>
			<g>
				<path d="M805.93,394.88c6.39-0.78,11.43-0.71,16.86,0.9c4.42,1.31,7.96,3.41,11.18,6.52c3.49,3.37,5.45,6.34,7.85,11.45
					c0.5,1.06,1.53,3.83,2.22,6.2c0.79,2.71,1.39,5.47,1.85,8.26c1.65,9.84,0.68,22.16-2.11,32.56
					c-2.78,10.36-7.46,20.22-14.53,27.46c-3.51,3.6-7.95,6.73-11.82,8.1c-5.6,1.99-10.58,2.31-15.66,1.39
					c-9.44-1.7-13.49,12.75-3.99,14.46c59,10.63,81.37-80.69,49.16-117.98c-10.19-11.8-25.89-16.18-41.03-14.33
					c-4.02,0.49-7.5,3.09-7.5,7.5C798.43,391.05,801.89,395.38,805.93,394.88L805.93,394.88z"/>
			</g>
		</g>
		<g>
			<g>
				<path d="M494.51,1189.28c4.27,78.28,5.26,156.71,10.74,234.93c1.51,21.55,3.38,43.08,5.8,64.55c0.71,6.32,10.72,6.4,10,0
					c-8.78-78.02-10.58-156.63-13.62-235.02c-0.83-21.49-1.75-42.98-2.92-64.46C504.16,1182.88,494.15,1182.84,494.51,1189.28
					L494.51,1189.28z"/>
			</g>
		</g>
		<g>
			<path class="st0" d="M637.22,200.81c-104.13-41.26-233.58-5.23-301.61,83.76s-68.93,223.17-2.29,313.21
				s195.03,128.42,300.22,89.95c105.2-38.46,178.52-150.42,171.99-262.24S713.3,211.11,604.49,184.56"/>
			<g>
				<path d="M638.55,195.99c-51.2-20.11-108.42-22.01-161.51-8.43c-52.92,13.54-102.46,42.72-137.84,84.61
					c-36.94,43.75-57.07,99.79-59.9,156.74c-2.83,56.96,11.69,115.43,43.7,162.9c30.84,45.75,76.87,79.63,128.45,98.56
					c51.37,18.85,108.64,22.8,161.73,8.95c54.18-14.13,102.23-47.38,136.91-91.07c34.79-43.83,56.88-97.73,60.37-153.76
					c3.45-55.33-12.78-110.68-42.87-156.99c-29.82-45.9-72.93-83.47-123.42-104.92c-12.44-5.29-25.23-9.6-38.36-12.84
					c-6.25-1.54-8.91,8.1-2.66,9.64c51.8,12.81,98.06,42.73,132.97,82.86c34.55,39.73,58.09,90,63.54,142.58
					c5.59,53.89-7.92,108.53-35.26,155.06c-27.24,46.35-68.09,84.77-117.25,106.96c-48.4,21.85-103.85,25.89-155.51,14.77
					c-51.4-11.07-99.78-36.82-136.08-75.08c-37.92-39.97-60.2-92.94-65.37-147.57c-5.17-54.66,5.96-111.08,34-158.51
					C351.42,264.4,394.56,229.1,443.95,209c48.84-19.88,103.67-25.87,155.34-14.52c12.48,2.74,24.71,6.49,36.6,11.16
					C641.89,207.98,644.49,198.32,638.55,195.99L638.55,195.99z"/>
			</g>
		</g>
		<g>
			<g>
				<path d="M651.64,1184.89c4.98,77.17,9.25,154.39,13.92,231.58c1.27,21.03,2.57,42.06,3.93,63.08c0.41,6.39,10.41,6.44,10,0
					c-4.98-77.17-9.25-154.39-13.92-231.58c-1.27-21.03-2.57-42.06-3.93-63.08C661.23,1178.5,651.22,1178.46,651.64,1184.89
					L651.64,1184.89z"/>
			</g>
		</g>
		<g>
			<path class="st0" d="M412.53,1669.26c-7.7-42.56-5.48-106.77,21.19-140.8s76.42-51.21,115.59-32.87
				c29.53,13.83,48.31,44.56,55.79,76.3s5.27,64.85,3.03,97.38"/>
			<g>
				<path d="M417.36,1667.93c-4.8-27-5.25-55.5-0.65-82.55c4.61-27.11,14.82-51.97,36.59-69.67c21.29-17.31,50.81-26.76,78.05-20.89
					c28.94,6.24,49.94,29.21,61.43,55.54c16.26,37.24,13.09,79.41,10.36,118.91c-0.44,6.42,9.56,6.4,10,0
					c2.66-38.48,5.42-78.98-8.4-115.83c-10.76-28.67-31.09-54.73-60.63-65.38c-28.56-10.29-61.22-3.72-86.38,12.23
					c-12.34,7.82-23.41,18.04-31.6,30.18c-8,11.86-13.08,25.69-16.44,39.52c-7.93,32.61-7.82,67.65-1.96,100.59
					C408.84,1676.92,418.48,1674.23,417.36,1667.93L417.36,1667.93z"/>
			</g>
		</g>
		<g>
			<g>
				<path d="M412.53,1674.26c65.2,0,130.4,0,195.6,0c6.43,0,6.45-10,0-10c-65.2,0-130.4,0-195.6,0
					C406.1,1664.26,406.09,1674.26,412.53,1674.26L412.53,1674.26z"/>
			</g>
		</g>
		<g>
			<g>
				<path d="M412.53,1655.44c65.64-0.18,131.27-1.3,196.91-1.48c6.43-0.02,6.45-10.02,0-10c-65.64,0.18-131.27,1.3-196.91,1.48
					C406.1,1645.46,406.09,1655.46,412.53,1655.44L412.53,1655.44z"/>
			</g>
		</g>
		<g>
			<g>
				<path d="M482.32,1555.94c21.59,0.73,43.17,1.46,64.76,2.19c6.44,0.22,6.43-9.78,0-10c-21.59-0.73-43.17-1.46-64.76-2.19
					C475.89,1545.72,475.89,1555.72,482.32,1555.94L482.32,1555.94z"/>
			</g>
		</g>
		<g>
			<g>
				<path d="M482.29,1525.56c21.59,0.69,43.17,1.38,64.76,2.07c6.44,0.21,6.43-9.79,0-10c-21.59-0.69-43.17-1.38-64.76-2.07
					C475.86,1515.36,475.86,1525.36,482.29,1525.56L482.29,1525.56z"/>
			</g>
		</g>
		<g>
			<path class="st0" d="M599.18,1545.9c6.54-27.32,19.48-60.62,75.31-63.72c92.89-5.17,96.8,137.91,93.38,179.9"/>
			<g>
				<path d="M604,1547.22c5.15-21.34,14.32-41.12,34.81-51.52c21.51-10.92,51.46-12.76,72.82-0.45
					c17.52,10.09,28.84,28.21,36.06,46.62c7.88,20.11,12.05,41.64,14.2,63.07c1.89,18.92,2.5,38.16,0.98,57.13
					c-0.51,6.42,9.49,6.38,10,0c1.42-17.74,0.95-35.7-0.63-53.41c-2.06-23.09-6.08-46.37-14.38-68.1
					c-7.87-20.6-19.86-40.58-38.91-52.59c-22.55-14.21-53.01-13.78-77.31-4.38c-13.78,5.33-25.45,14.24-33.62,26.6
					c-6.85,10.37-10.76,22.38-13.65,34.37C592.85,1550.82,602.49,1553.49,604,1547.22L604,1547.22z"/>
			</g>
		</g>
		<g>
			<g>
				<path d="M610.28,1667.07c51.87,0,103.74,0,155.61,0c6.43,0,6.45-10,0-10c-51.87,0-103.74,0-155.61,0
					C603.84,1657.07,603.83,1667.07,610.28,1667.07L610.28,1667.07z"/>
			</g>
		</g>
		<g>
			<g>
				<path d="M611.82,1647.11c51.39-0.04,102.69-3.62,154.07-3.66c6.43-0.01,6.45-10.01,0-10c-51.38,0.05-102.69,3.62-154.07,3.66
					C605.38,1637.11,605.37,1647.11,611.82,1647.11L611.82,1647.11z"/>
			</g>
		</g>
		<g>
			<g>
				<path d="M646.78,1552.01c21.59-0.74,43.17-1.49,64.76-2.23c6.42-0.22,6.45-10.22,0-10c-21.59,0.74-43.17,1.49-64.76,2.23
					C640.37,1542.23,640.34,1552.23,646.78,1552.01L646.78,1552.01z"/>
			</g>
		</g>
		<g>
			<g>
				<path d="M652.02,1525.05c19.07,0.02,38.13,0.5,57.19,0.51c6.43,0.01,6.44-9.99,0-10c-19.07-0.02-38.13-0.5-57.19-0.51
					C645.58,1515.05,645.57,1525.05,652.02,1525.05L652.02,1525.05z"/>
			</g>
		</g>
		<g>
			<path d="M850.18,402.64c47.7-10.05,43.55,110.64-8.3,85.74"/>
			<g>
				<path d="M852.17,409.87c2.06-0.41,0.23-0.19,1.86-0.27c1-0.05,1.98-0.03,2.98-0.02c0.41,0,0.86,0.06,1.27,0.11
					c-0.3-0.04-1.5-0.3-0.15,0.03c0.99,0.24,1.96,0.49,2.92,0.82c0.85,0.29-0.56-0.39,0.93,0.46c0.78,0.45,1.54,0.9,2.28,1.41
					c-0.45-0.31,0.22,0.1,1.06,0.92c0.74,0.73,1.45,1.46,2.14,2.24c0.19,0.22,0.89,1.1,0.02-0.04c0.26,0.34,0.52,0.69,0.75,1.04
					c0.55,0.82,1.08,1.64,1.58,2.5c0.45,0.78,0.86,1.58,1.27,2.38c0.91,1.74,0.43,0.75,0.92,2.03c1.6,4.14,2.68,8.47,3.36,12.86
					c-0.03-0.16,0.15,1.06,0.26,2.22c0.1,1.03,0.18,2.07,0.24,3.11c0.13,2.35,0.16,4.7,0.09,7.05c-0.16,5.18-0.44,7.66-1.57,12.58
					c-0.47,2.05-1.03,4.08-1.71,6.07c-0.95,2.82-0.85,2.62-2.1,5.06c-0.86,1.69-1.84,3.31-2.92,4.86c-1,1.44,0.36-0.28-0.8,1
					c-0.7,0.77-1.42,1.5-2.16,2.23c-0.36,0.36-0.76,0.68-1.15,1c0.79-0.64,0.46-0.32-0.17,0.09c-0.84,0.54-1.68,1.04-2.57,1.5
					c-0.39,0.21-1.65,0.65-0.11,0.08c-0.47,0.17-0.94,0.36-1.42,0.48c-0.54,0.13-2.93,0.63-2.29,0.55
					c-0.71,0.09-4.24-0.09-4.59-0.16c-2.35-0.47-5.33-1.49-6.76-2.16c-8.69-4.07-16.32,8.86-7.57,12.95
					c50.68,23.72,64.84-56.92,41.96-87.39c-7.74-10.3-19.25-14.56-31.86-12.06C838.72,397.28,842.73,411.74,852.17,409.87
					L852.17,409.87z"/>
			</g>
		</g>
		<g>
			<g>
				<path d="M291.46,350.03c6.29-49.91,27.73-96.78,63.4-131.98c33.41-32.96,76.61-54.01,122.44-64.05
					c46.4-10.17,95.89-8.94,142.01,3.08s89.35,34.97,122.92,69.01c35.5,36,57.5,83.02,64.37,133.31c0.95,6.99,1.57,14.03,1.98,21.07
					c0.57,9.59,15.57,9.66,15,0c-3.27-55.4-22.27-108.6-58.2-151.24c-32.51-38.58-76.87-65.96-124.61-81.5
					c-48.2-15.69-100.14-19.38-150.15-11.46c-49.02,7.77-96.37,27.76-134.28,60.08c-39.59,33.76-66,80.6-76.32,131.45
					c-1.49,7.36-2.62,14.78-3.56,22.22c-0.51,4.03,3.81,7.5,7.5,7.5C288.44,357.53,290.95,354.07,291.46,350.03L291.46,350.03z"/>
			</g>
		</g>
		<g>
			<g>
				<path d="M660.57,692.95c79.32,13.56,158.75,26.45,238.06,40.01c9.44,1.61,13.5-12.84,3.99-14.46
					c-79.32-13.56-158.75-26.45-238.06-40.01C655.12,676.87,651.06,691.32,660.57,692.95L660.57,692.95z"/>
			</g>
		</g>
		<g>
			<path class="st1" d="M977.75,654.3c-22.58,42.12-45.16,84.24-67.75,126.37c-5.4,10.08-10.98,21.16-8.94,32.41
				c3.51,19.4,26.3,27.58,45.48,32.16c21.77-60.39,48.8-118.89,80.68-174.61"/>
			<g>
				<path d="M971.27,650.51c-17.41,32.47-34.81,64.94-52.22,97.41c-4.39,8.19-8.78,16.38-13.17,24.57
					c-4.09,7.63-8.46,15.31-10.9,23.66c-4.12,14.07-0.68,28.71,10.34,38.58c10.85,9.72,25.33,14.36,39.23,17.72
					c4.17,1.01,7.81-1.32,9.23-5.24c21.62-59.8,48.4-117.6,79.92-172.82c4.79-8.4-8.16-15.96-12.95-7.57
					c-32.16,56.33-59.39,115.4-81.44,176.4c3.08-1.75,6.15-3.49,9.23-5.24c-10.58-2.56-21.81-5.63-30.65-12.25
					c-10.15-7.6-11.49-18.41-6.98-29.88c2.87-7.3,7.05-14.16,10.75-21.06c4.08-7.61,8.15-15.21,12.23-22.82
					c7.84-14.63,15.68-29.25,23.52-43.88c8.94-16.67,17.88-33.35,26.82-50.02C988.78,649.58,975.84,641.99,971.27,650.51
					L971.27,650.51z"/>
			</g>
		</g>
	</g>
	<g id="Ebene_17">
		<g>
			<g>
				<path d="M1051.05,536.24c-16.7-4.69-35.09-2.32-50.22,6.11c-15.12,8.42-26.07,22.93-30.7,39.54
					c-2.59,9.28-3.14,19.04-1.55,28.54c0.32,1.9,3.21,1.09,2.89-0.8c-2.69-16.06,1.4-32.96,10.61-46.33
					c9.45-13.7,24.37-22.71,40.69-25.54c9.12-1.58,18.56-1.14,27.48,1.37C1052.11,539.66,1052.91,536.76,1051.05,536.24
					L1051.05,536.24z"/>
			</g>
		</g>
		<g>
			<g>
				<path d="M1053.61,541.47c-12.12-7.89-27.1-10.85-41.34-8.5c-13.32,2.2-25.54,9.45-34.19,19.77
					c-4.78,5.71-8.46,12.25-10.76,19.34c-0.6,1.84,2.3,2.63,2.89,0.8c3.86-11.87,11.95-22.25,22.4-29.06
					c11.19-7.29,24.86-10.09,38.05-7.97c7.64,1.23,14.96,3.99,21.45,8.22C1053.72,545.11,1055.22,542.52,1053.61,541.47
					L1053.61,541.47z"/>
			</g>
		</g>
	</g>
	<g id="Ebene_19">
		<g>
			<path class="st2" d="M1052.43,541.29c-30.4-12.3-69.21,3.74-82.05,33.91c-12.84,30.17,2.5,69.26,32.44,82.64
				s69.3-1.27,83.21-30.96s-0.03-69.31-29.47-83.75"/>
			<g>
				<path d="M1052.83,539.85c-12.18-4.89-25.79-5.35-38.47-2.23c-12.67,3.11-24.58,9.8-33.6,19.27
					c-9.06,9.51-14.71,21.63-16.1,34.69c-1.39,12.97,1.38,26.28,7.23,37.9c5.81,11.53,14.91,21.56,26.31,27.76
					c11.54,6.28,24.95,8.22,37.89,6.44c12.93-1.78,25.33-7.24,35.33-15.62c9.96-8.34,17.17-19.7,20.01-32.42
					c2.83-12.69,1.58-26.17-3.01-38.29c-4.58-12.11-12.42-22.97-22.95-30.58c-2.58-1.87-5.31-3.51-8.17-4.92
					c-1.72-0.85-3.25,1.73-1.51,2.59c11.19,5.53,20.14,14.73,26.05,25.67c5.88,10.87,8.76,23.39,7.97,35.74
					c-0.79,12.45-5.62,24.34-13.91,33.68c-8.29,9.34-19.39,15.99-31.38,19.34c-11.91,3.33-24.77,3.4-36.53-0.59
					c-11.81-4.02-21.88-12.24-28.89-22.48c-7.03-10.28-11.23-22.55-11.74-35.02c-0.51-12.48,2.83-24.8,10.01-35.07
					c7.14-10.21,17.66-18,29.23-22.49c11.61-4.51,24.53-5.93,36.73-3.18c2.97,0.67,5.87,1.58,8.69,2.71
					C1053.83,543.46,1054.6,540.56,1052.83,539.85L1052.83,539.85z"/>
			</g>
		</g>
		<g>
			<g>
				<path d="M328.05,471.38c1.93,0,1.93-3,0-3S326.12,471.38,328.05,471.38L328.05,471.38z"/>
			</g>
		</g>
		<g>
			<g>
				<path d="M328.05,484.54c1.93,0,1.93-3,0-3S326.12,484.54,328.05,484.54L328.05,484.54z"/>
			</g>
		</g>
		<g>
			<g>
				<path d="M323.67,486.74c1.93,0,1.93-3,0-3S321.73,486.74,323.67,486.74L323.67,486.74z"/>
			</g>
		</g>
	</g>
	<g id="Ebene_16">
		<g>
			<g>
				<path d="M1077.4,542.87c-23.51-19.08-56.97-21.65-83.77-7.84c-27.73,14.29-40.76,45.42-36.49,75.59
					c4.3,30.36,26.62,55.13,57.08,60.67c29.75,5.41,62.2-6.04,78.1-32.66c17.32-29.01,12.64-69.37-11.75-92.95
					c-6.94-6.71-17.56,3.88-10.61,10.61c17.48,16.9,22.12,43.92,13.54,66.37c-8.84,23.14-32.58,35.73-56.63,35.01
					c-24.94-0.75-46.12-16.43-53.07-40.55c-6.55-22.72-0.51-49.43,19.02-63.97c21.01-15.65,53.33-16.44,73.98,0.33
					c3.17,2.57,7.5,3.04,10.61,0C1080.07,550.87,1080.54,545.42,1077.4,542.87L1077.4,542.87z"/>
			</g>
		</g>
		<g>
			<path class="st0" d="M946.91,702.59c-27.41-18.93-69.71,55.61-35.26,57.67"/>
			<g>
				<path d="M950.7,696.12c-14.97-9.9-32.35,0.13-42.63,11.96c-9.89,11.38-20.32,29.46-15.96,45.17
					c2.56,9.22,10.42,13.81,19.54,14.52c9.63,0.75,9.58-14.26,0-15c-1.22-0.09,0.13,0.03-1.67-0.29c-0.43-0.11-0.86-0.24-1.28-0.39
					c0.7,0.32,0.82,0.37,0.34,0.13c-0.3-0.1-2.37-1.25-0.71-0.28c-0.25-0.15-2.19-2.01-0.73-0.56c-0.34-0.34-0.71-1.02-0.86-1.46
					c0.67,1.9-0.16-0.59-0.25-0.95c-0.15-0.67-0.31-1.76-0.16-0.45c-0.1-0.87-0.12-1.75-0.11-2.63c0.07-5.97,3.05-13.13,6.79-19.32
					c3.89-6.43,9.26-12.75,15.26-16.46c0.78-0.48,1.57-0.92,2.38-1.35c1.37-0.72,0.23-0.21,1.31-0.62c0.91-0.34,1.84-0.59,2.77-0.85
					c0.19-0.05,2.36-0.35,0.78-0.2c0.92-0.09,1.84-0.09,2.76-0.05c1.75,0.08-0.83-0.29,0.73,0.12c2.18,0.57,1.91,0.42,4.13,1.9
					C951.2,714.41,958.72,701.42,950.7,696.12L950.7,696.12z"/>
			</g>
		</g>
		<g>
			<path class="st0" d="M1012.31,738.2c-10.08-16.82-39-16.57-48.78,0.42c-9.79,16.99,4.5,42.13,24.11,42.41
				c19.6,0.28,34.61-24.44,25.32-41.7"/>
			<g>
				<path d="M1018.78,734.41c-15.48-24.42-59.68-20.5-65.29,10.07c-2.66,14.51,4.18,29.45,15.97,37.99
					c12.31,8.91,28.51,7.37,39.91-2.2c12.88-10.81,17.71-29.56,10.06-44.72c-4.35-8.62-17.3-1.03-12.95,7.57
					c5.02,9.95-0.95,22.82-10.11,28.08c-10.3,5.91-21.48-0.64-26.18-10.5c-4.72-9.89-1.91-21.5,8.73-25.8
					c9.1-3.68,21.44-1.56,26.92,7.09C1010.98,750.12,1023.97,742.6,1018.78,734.41L1018.78,734.41z"/>
			</g>
		</g>
		<g>
			<g>
				<path d="M979.66,566.77c23.99-0.44,47.94-3.03,71.47-7.74c6.64-1.33,13.24-2.83,19.81-4.49c1.87-0.47,1.08-3.37-0.8-2.89
					c-23,5.83-46.51,9.61-70.18,11.24c-6.76,0.47-13.52,0.76-20.29,0.88C977.73,563.8,977.73,566.8,979.66,566.77L979.66,566.77z"/>
			</g>
		</g>
		<g>
			<g>
				<path d="M971.54,585.4c28.81-4.4,57.62-8.8,86.43-13.21c8.13-1.24,16.25-2.48,24.38-3.72c1.9-0.29,1.09-3.18-0.8-2.89
					c-28.81,4.4-57.62,8.8-86.43,13.21c-8.13,1.24-16.25,2.48-24.38,3.72C968.84,582.8,969.64,585.69,971.54,585.4L971.54,585.4z"/>
			</g>
		</g>
		<g>
			<g>
				<path d="M967.84,613.16c31.96-7.37,63.92-14.75,95.88-22.12c9.09-2.1,18.17-4.19,27.26-6.29c1.88-0.43,1.08-3.33-0.8-2.89
					c-31.96,7.37-63.92,14.75-95.88,22.12c-9.09,2.1-18.17,4.19-27.26,6.29C965.17,610.7,965.96,613.59,967.84,613.16L967.84,613.16
					z"/>
			</g>
		</g>
		<g>
			<g>
				<path d="M977.15,634.2c30.05-7.49,60.1-14.97,90.16-22.46c8.4-2.09,16.8-4.19,25.21-6.28c1.87-0.47,1.08-3.36-0.8-2.89
					c-30.05,7.49-60.1,14.97-90.16,22.46c-8.4,2.09-16.8,4.19-25.21,6.28C974.48,631.77,975.27,634.66,977.15,634.2L977.15,634.2z"
					/>
			</g>
		</g>
		<g>
			<g>
				<path d="M994.69,649.73c24.4-5.6,48.81-11.2,73.21-16.8c6.89-1.58,13.78-3.16,20.67-4.74c1.88-0.43,1.08-3.32-0.8-2.89
					c-24.4,5.6-48.81,11.2-73.21,16.8c-6.89,1.58-13.78,3.16-20.67,4.74C992.01,647.26,992.81,650.16,994.69,649.73L994.69,649.73z"
					/>
			</g>
		</g>
		<g>
			<g>
				<path d="M994.8,549.03c1.43,27.24,2.85,54.48,4.28,81.73c0.4,7.64,0.8,15.28,1.2,22.92c0.1,1.92,3.1,1.93,3,0
					c-1.43-27.24-2.85-54.48-4.28-81.73c-0.4-7.64-0.8-15.28-1.2-22.92C997.7,547.11,994.7,547.09,994.8,549.03L994.8,549.03z"/>
			</g>
		</g>
		<g>
			<g>
				<path d="M979.09,555.97c1.43,24.23,2.85,48.46,4.28,72.69c0.4,6.8,0.8,13.61,1.2,20.41c0.11,1.92,3.11,1.93,3,0
					c-1.43-24.23-2.85-48.46-4.28-72.69c-0.4-6.8-0.8-13.61-1.2-20.41C981.98,554.05,978.97,554.04,979.09,555.97L979.09,555.97z"/>
			</g>
		</g>
		<g>
			<g>
				<path d="M1009.72,538.24c-2.01,32.64-1.19,65.44,2.48,97.94c1.03,9.07,2.27,18.11,3.73,27.12c0.31,1.9,3.2,1.09,2.89-0.8
					c-5.17-31.99-7.55-64.42-7.13-96.82c0.12-9.16,0.47-18.31,1.03-27.44C1012.84,536.31,1009.84,536.32,1009.72,538.24
					L1009.72,538.24z"/>
			</g>
		</g>
		<g>
			<g>
				<path d="M1027.67,538.22c2.39,32.18,4.78,64.35,7.17,96.53c0.68,9.12,1.36,18.24,2.03,27.37c0.14,1.91,3.14,1.93,3,0
					c-2.39-32.18-4.78-64.35-7.17-96.53c-0.68-9.12-1.36-18.24-2.03-27.37C1030.53,536.31,1027.53,536.29,1027.67,538.22
					L1027.67,538.22z"/>
			</g>
		</g>
		<g>
			<g>
				<path d="M1048.7,538.2c2.59,30.36,5.18,60.72,7.77,91.09c0.74,8.63,1.47,17.26,2.21,25.88c0.16,1.91,3.16,1.93,3,0
					c-2.59-30.36-5.18-60.72-7.77-91.09c-0.74-8.63-1.47-17.26-2.21-25.88C1051.54,536.29,1048.53,536.27,1048.7,538.2L1048.7,538.2
					z"/>
			</g>
		</g>
		<g>
			<path class="st3" d="M1071.24,550.55c2.05,31.29,4.1,62.59,6.16,93.88"/>
			<g>
				<path d="M1069.74,550.55c1.6,24.34,3.19,48.68,4.79,73.02c0.46,6.95,0.91,13.91,1.37,20.86c0.13,1.92,3.13,1.93,3,0
					c-1.6-24.34-3.19-48.68-4.79-73.02c-0.46-6.95-0.91-13.91-1.37-20.86C1072.62,548.63,1069.62,548.62,1069.74,550.55
					L1069.74,550.55z"/>
			</g>
		</g>
	</g>
	<g id="Ebene_10">
		<ellipse class="st4" cx="408.66" cy="473.56" rx="45.86" ry="50.51"/>
	</g>
	<g id="Ebene_11">
		<ellipse class="st5" cx="602.04" cy="423.04" rx="16.77" ry="35.66"/>
		<ellipse class="st5" cx="667.01" cy="423.04" rx="16.77" ry="35.66"/>
		<ellipse class="st6" cx="603.39" cy="402.64" rx="6.87" ry="6.5"/>
		<ellipse class="st6" cx="667.01" cy="402.64" rx="6.87" ry="6.5"/>
	</g>
	<g id="Ebene_20">
		<g class="st7">
			<path d="M281,368.59c-2.06,40.1,5.52,80.67,21.94,117.32c3.13,6.99,6.64,14.12,6.75,21.78c0.1,7.66-4.43,16.03-11.96,17.41
				c-10.64,1.96-18.25-9.92-21.8-20.14c-15.3-44.17-15.27-93.48,0.09-137.63"/>
			<g>
				<path d="M279.5,368.59c-1.17,23.09,0.82,46.31,5.84,68.88c2.5,11.25,5.76,22.34,9.75,33.15c2,5.42,4.19,10.77,6.55,16.05
					c2.34,5.22,4.87,10.45,6.01,16.1c0.92,4.59,0.69,9.37-1.45,13.6c-1.85,3.66-5.01,6.74-9.2,7.34
					c-8.84,1.28-14.84-8.09-17.96-14.98c-2.17-4.77-3.62-9.92-5.06-14.95c-1.55-5.43-2.88-10.93-3.98-16.48
					c-2.23-11.18-3.52-22.54-3.9-33.93c-0.76-22.77,2.14-45.65,8.72-67.47c0.83-2.74,1.71-5.47,2.65-8.17
					c0.63-1.83-2.26-2.61-2.89-0.8c-7.72,22.28-11.61,45.86-11.6,69.43c0.01,23.46,3.77,47.18,11.62,69.32
					c2.82,7.96,7.75,17.28,16.19,20.33c4.01,1.45,8.67,0.9,12.22-1.47c3.7-2.47,6.16-6.46,7.35-10.7c3.1-11.01-3.2-21.84-7.43-31.62
					c-4.77-11.02-8.71-22.4-11.86-33.98c-6.27-23.08-9.28-47.03-8.88-70.94c0.05-2.9,0.15-5.8,0.3-8.7
					C282.6,366.66,279.6,366.66,279.5,368.59L279.5,368.59z"/>
			</g>
		</g>
		<g class="st7">
			<path d="M803.79,397.63c7.47,24.97,14.93,49.94,22.4,74.92c2.27,7.61,4.5,16.03,1.17,23.24s-15,10.35-19.06,3.53
				c0.98-26.33,1.96-52.66,2.94-78.99"/>
			<g>
				<path d="M802.35,398.03c4.11,13.76,8.23,27.52,12.34,41.28c2.07,6.92,4.14,13.84,6.21,20.76c1.95,6.52,4.2,13.03,5.69,19.68
					c1.22,5.41,1.95,12.23-1.53,17.02c-2.29,3.15-6.5,5.14-10.39,4.81c-1.71-0.15-3.36-0.86-4.49-2.19
					c-0.46-0.54-0.35-0.59-0.33-1.31c0.03-0.91,0.07-1.82,0.1-2.73c0.07-1.82,0.14-3.64,0.2-5.47c0.27-7.12,0.53-14.24,0.8-21.36
					c0.6-16.06,1.2-32.13,1.79-48.19c0.07-1.93-2.93-1.93-3,0c-0.56,15.07-1.12,30.14-1.68,45.21c-0.28,7.62-0.57,15.24-0.85,22.85
					c-0.07,1.82-0.14,3.64-0.2,5.47c-0.03,0.83-0.06,1.66-0.09,2.48c-0.04,1.01-0.34,2.4-0.06,3.38c0.57,1.95,2.95,3.5,4.72,4.19
					c4.06,1.59,8.97,0.37,12.43-2.06c4.64-3.24,6.49-8.57,6.55-14.09c0.07-6.82-2.27-13.45-4.2-19.9
					c-2.16-7.24-4.33-14.47-6.49-21.71c-4.87-16.3-9.75-32.61-14.62-48.91C804.69,395.39,801.79,396.18,802.35,398.03L802.35,398.03
					z"/>
			</g>
		</g>
		<g class="st7">
			<path d="M1005.1,545.03c-1.83,39.66,12.14,79.83,38.19,109.79c-28.22,7.89-61.08-8.88-71.26-36.35s3.82-61.61,30.36-74.01"/>
			<g>
				<path d="M1003.6,545.03c-0.7,15.62,1,31.33,4.92,46.47c3.92,15.12,10.05,29.71,18.15,43.06c4.57,7.53,9.79,14.66,15.56,21.32
					c0.22-0.84,0.44-1.67,0.66-2.51c-21.7,5.99-45.89-2.74-60.25-19.73c-7.19-8.5-11.55-19.1-12.31-30.22
					c-0.76-11.04,1.72-22.24,6.81-32.05c5.72-11.04,14.7-20.29,26.01-25.62c1.75-0.82,0.22-3.41-1.51-2.59
					c-10.49,4.95-19.15,13.27-25.11,23.17c-5.99,9.96-9.35,21.6-9.33,33.24c0.02,11.67,3.62,23.12,10.49,32.57
					c6.93,9.54,16.57,16.84,27.44,21.34c10.77,4.46,22.79,5.97,34.27,3.79c1.45-0.27,2.88-0.61,4.3-1.01
					c1.15-0.32,1.39-1.67,0.66-2.51c-10.03-11.57-18.25-24.66-24.46-38.65c-6.23-14.03-10.41-29.05-12.29-44.29
					c-1.05-8.55-1.39-17.18-1-25.78C1006.68,543.1,1003.68,543.11,1003.6,545.03L1003.6,545.03z"/>
			</g>
		</g>
		<g class="st7">
			<path d="M979.32,657.43c-35.02,49.88-48.97,114.07-37.84,173.99c-13.28,7.21-30.48-5.55-32.9-20.47s5.3-29.56,14.07-41.87
				c8.77-12.31,19.1-24.12,23.14-38.68"/>
			<g>
				<path d="M978.02,656.67c-13.77,19.66-24.32,41.52-31.37,64.46c-7.01,22.8-10.56,46.7-10.42,70.56
					c0.08,13.46,1.36,26.9,3.8,40.13c0.23-0.56,0.46-1.13,0.69-1.69c-6.42,3.41-13.83,1.69-19.55-2.31
					c-6.13-4.28-10.48-11.13-11.32-18.59c-2.22-19.61,11.83-36.19,22.6-50.97c6.14-8.44,11.93-17.32,14.79-27.46
					c0.52-1.86-2.37-2.66-2.89-0.8c-5.48,19.43-21.48,33.22-30.72,50.68c-4.64,8.77-7.92,18.73-6.74,28.76
					c0.94,8,5.21,15.18,11.58,20.08c6.8,5.23,15.92,7.36,23.78,3.19c0.62-0.33,0.81-1.05,0.69-1.69
					c-4.29-23.21-4.8-47.07-1.78-70.47c3.02-23.39,9.64-46.39,19.55-67.78c5.6-12.09,12.27-23.67,19.91-34.58
					C981.72,656.6,979.12,655.1,978.02,656.67L978.02,656.67z"/>
			</g>
		</g>
		<g class="st7">
			<path d="M922.35,707.02c-10.74,14.73-14.08,34.58-8.75,52.01c-8.82-7.07-9.04-22.38-0.42-29.69"/>
			<g>
				<path d="M921.05,706.26c-8.48,11.72-12.47,26.57-11.23,40.96c0.36,4.14,1.13,8.23,2.33,12.21c0.84-0.49,1.67-0.97,2.51-1.46
					c-8.22-6.72-8.46-20.61-0.42-27.57c1.46-1.27-0.67-3.38-2.12-2.12c-9.18,7.95-9,24.11,0.42,31.81c1.08,0.88,2.98,0.09,2.51-1.46
					c-4.01-13.28-3.03-27.97,2.67-40.63c1.62-3.61,3.61-7.03,5.93-10.23C924.78,706.21,922.18,704.71,921.05,706.26L921.05,706.26z"
					/>
			</g>
		</g>
		<g class="st7">
			<path d="M985.57,734.31c-8.43,11.66-8.67,28.63-0.57,40.53c-8.54-3.91-14.46-12.98-14.6-22.37s5.52-18.63,13.94-22.78"/>
			<g>
				<path d="M984.28,733.56c-8.7,12.19-8.92,29.62-0.57,42.05c0.68-0.68,1.37-1.37,2.05-2.05c-6.26-2.92-11.03-8.53-12.95-15.17
					c-1.96-6.77-0.52-13.98,3.47-19.74c2.26-3.25,5.3-5.87,8.84-7.64c1.73-0.87,0.21-3.46-1.51-2.59
					c-6.97,3.5-12.17,10.23-13.98,17.81c-1.8,7.55,0.03,15.58,4.69,21.76c2.62,3.47,5.98,6.32,9.94,8.17
					c1.24,0.58,2.97-0.69,2.05-2.05c-7.81-11.62-7.56-27.63,0.57-39.02C987.99,733.5,985.39,732,984.28,733.56L984.28,733.56z"/>
			</g>
		</g>
	</g>
	<g id="Ebene_12">
		<g>
			<g>
				<path d="M410.54,465.64c-0.4,39.78,14.42,78.79,40.37,108.84c26.37,30.54,63.96,48.98,103.84,53.5
					c22.84,2.58,46.29,0.17,68.11-7.06c9.12-3.02,5.21-17.51-3.99-14.46c-34.98,11.58-74.21,9.77-107.83-5.52
					c-33.22-15.11-59.36-42.46-73.69-75.98c-8.01-18.72-12.01-38.97-11.81-59.32C425.64,455.99,410.64,455.98,410.54,465.64
					L410.54,465.64z"/>
			</g>
		</g>
		<g>
			<path class="st1" d="M257.98,436.19c-5.34,101.85,77.8,166.05,68.87-31.75c-2.94-65.16-73.85-74.78-69.04,31.75"/>
			<g>
				<path d="M250.48,436.19c-1.38,27.74,2.65,58.4,17.15,82.63c5.01,8.37,11.79,16.55,21.13,20.15c8.55,3.3,17.47,0.81,24.04-5.32
					c8.85-8.25,13.04-21.21,15.8-32.61c5.07-20.91,6.24-42.83,6.4-64.27c0.16-21.1,1.26-43.88-7.98-63.43
					c-5.27-11.14-14.94-21.68-27.4-24.39c-36.6-7.98-47.92,41.05-49.29,67.18c-0.35,6.68-0.3,13.38-0.02,20.06
					c0.4,9.62,15.4,9.67,15,0c-0.78-18.69-0.3-40.02,8.09-56.88c0.75-1.5,1.56-2.98,2.44-4.41c0.44-0.71,2.3-3.37,1.92-2.9
					c0.73-0.93,1.53-1.83,2.35-2.68c0.47-0.49,0.97-0.96,1.46-1.42c0.22-0.21,2.35-1.91,0.99-0.9c0.99-0.74,2.05-1.35,3.11-1.99
					c0.5-0.3,1.05-0.55,1.59-0.8c-1.7,0.79,0.02,0,0.35-0.1c0.9-0.28,1.81-0.5,2.71-0.75c0.42-0.12,2.25-0.26,0.19-0.08
					c0.73-0.07,1.46-0.12,2.19-0.12c0.65,0,3.94,0.43,1.83,0.04c0.91,0.17,1.82,0.36,2.71,0.62c0.54,0.16,1.07,0.34,1.61,0.53
					c1.81,0.63-1.42-0.72,0.32,0.13c1.25,0.61,2.43,1.3,3.6,2.04c0.52,0.32,1.01,0.69,1.5,1.06c-1.4-1.06,0.25,0.24,0.43,0.41
					c0.8,0.73,1.59,1.46,2.34,2.25c0.45,0.47,2.57,3,1.9,2.12c1.02,1.33,1.94,2.75,2.8,4.19c8.24,13.87,7.97,31.43,8.21,48.11
					c0.3,20.82-0.13,41.99-3.77,62.54c-1.23,6.96-2.83,13.89-5.17,20.56c-1.2,3.43-1.24,3.57-2.7,6.48
					c-1.04,2.07-2.22,4.03-3.52,5.94c-1.08,1.58,0.68-0.51-1,1.23c-0.53,0.55-1.07,1.1-1.6,1.65c-0.3,0.31-0.65,0.58-0.98,0.86
					c-1.15,1.03,1.48-0.96,0.2-0.16c-0.78,0.48-1.56,0.93-2.36,1.38c-1.24,0.7,1.78-0.56,0.42-0.18c-0.34,0.1-0.7,0.22-1.04,0.33
					c-0.76,0.26-2.66,0.23-0.1,0.14c-0.69,0.02-1.42,0.03-2.11,0.08c-2.18,0.16,1.26,0.6-0.83-0.13c-0.63-0.22-1.31-0.41-1.95-0.59
					c-1.2-0.35,1.43,0.92-0.51-0.27c-0.7-0.43-1.41-0.82-2.11-1.25c-0.36-0.22-0.7-0.49-1.05-0.73c-1.02-0.72,1.3,1.19-0.22-0.21
					c-1.3-1.19-2.57-2.38-3.74-3.69c-0.69-0.77-1.35-1.57-1.99-2.38c1.25,1.59-0.9-1.3-1.24-1.81
					c-7.07-10.46-10.31-19.97-13.28-32.45c-3.58-15.02-4.63-29.85-3.84-45.78C265.96,426.54,250.96,426.57,250.48,436.19
					L250.48,436.19z"/>
			</g>
		</g>
		<g>
			<path d="M261.96,380.47c-48.69-3.93-47.94,113.49-4.39,111.31"/>
			<g>
				<path d="M261.96,372.97c-23.97-1.63-37.59,20.93-41.95,41.57c-4.62,21.86-3.58,49.03,9.02,68.28
					c6.44,9.84,16.4,16.9,28.54,16.46c9.62-0.34,9.67-15.35,0-15c-1.01,0.04-2,0.02-3.01-0.04c-1.17-0.08,1.21,0.22,0.07,0.03
					c-0.42-0.07-0.84-0.14-1.25-0.25c-0.92-0.25-1.81-0.48-2.71-0.82c1.52,0.57-0.91-0.48-1.32-0.71c-0.82-0.47-1.62-0.98-2.38-1.55
					c1.24,0.92-0.68-0.63-0.96-0.9c-1.36-1.32-3.02-3.3-3.24-3.62c-5.24-7.52-7.48-15.32-9.08-24.8
					c-2.94-17.49-0.86-39.03,9.09-54.01c1.91-2.87,4.88-5.77,8.09-7.56c0.39-0.22,0.79-0.42,1.19-0.62c1.91-0.96-1.34,0.42,0.69-0.3
					c1.07-0.38,2.17-0.69,3.28-0.94c1.24-0.28,3.23-0.4,5.93-0.21C271.59,388.62,271.55,373.62,261.96,372.97L261.96,372.97z"/>
			</g>
		</g>
	</g>
	<g id="Ebene_13">
		<g class="st8">
			<path d="M482.32,198.82C267.59,333.6,281.13,649.73,517.21,683.29c46.67,6.63,94.12,0.11,140.67-7.31
				c-187.24,80.37-383.05-46.76-367.23-276.34c6.37-92.52,89.42-169.51,185.79-199.41"/>
			<g>
				<path d="M478.54,192.34c-45.16,28.46-83.77,66.91-111.19,112.8c-24.81,41.52-40.23,88.62-43.84,136.89
					c-3.34,44.54,3.98,90.1,23.52,130.41c19.27,39.75,51,72.82,90.15,93.36c21.82,11.45,45.51,19.18,69.76,23.4
					c40.6,7.07,81.63,4.19,122.22-1.38c10.26-1.41,20.49-2.99,30.72-4.62c-1.93-4.57-3.85-9.14-5.78-13.71
					c-46.89,20.01-99.48,28.3-150.02,20.04c-47.02-7.68-91.25-28.91-125.95-61.66c-37.17-35.08-61.69-81.28-73.07-130.89
					c-6.52-28.43-8.67-57.68-7.48-86.79c1.19-28.91,8.27-56.27,22.37-81.63c29.28-52.66,81.03-91.55,136.47-113.37
					c7.25-2.85,14.6-5.42,22.03-7.75c9.18-2.87,5.26-17.36-3.99-14.46c-60.98,19.09-118.06,55.94-155.22,108.56
					c-17.39,24.62-29.97,53.15-34.4,83.08c-4.57,30.88-3.22,63.1,1.48,93.88c8.23,53.98,30.97,105.68,67.78,146.29
					c34.05,37.56,79.52,64.19,128.84,75.8c52.39,12.33,107.77,7.91,158.32-10.08c6.9-2.45,13.68-5.19,20.41-8.06
					c3.42-1.46,4.36-6.3,3.07-9.37c-1.55-3.68-5.09-4.94-8.85-4.34c-65.67,10.45-135.16,18.03-197.86-9.5
					c-38.53-16.92-70.65-45.32-91.5-81.93c-20.66-36.27-29.55-78.25-28.75-119.78c0.86-45.07,13.05-89.74,33.98-129.58
					c23.17-44.12,56.87-82.43,97.45-111.35c5.53-3.94,11.17-7.7,16.91-11.32C494.26,200.16,486.74,187.17,478.54,192.34
					L478.54,192.34z"/>
			</g>
		</g>
		<g class="st8">
			<path d="M482.32,694.58c-29.15,96.31-25.86,213.65,27.26,299.11S653.73,1140.06,753,1156.55c-34.72,21.29-78.1,16.98-118.68,20.5
				c-232.94,20.18-260.79,4.45-235.12-131.45c20.99-111.11,42.52-242.56,63.51-353.68"/>
			<g>
				<path d="M475.09,692.58c-23.64,78.65-26.53,166.83,0.09,245.14c25.81,75.91,82.85,139.24,151.21,179.96
					c38.26,22.79,80.69,38.69,124.62,46.1c-0.6-4.57-1.19-9.14-1.79-13.71c-31.7,19.06-70.13,16.6-105.68,18.8
					c-33.27,2.06-66.41,5.55-99.73,7.01c-23.63,1.04-47.42,1.57-71.01-0.38c-9.03-0.75-15.86-1.59-24.81-3.54
					c-3.7-0.81-7.37-1.75-10.97-2.89c-1.62-0.51-3.23-1.06-4.82-1.66c-0.67-0.25-1.34-0.52-2.01-0.78
					c-1.47-0.59,0.51,0.27-1.24-0.54c-2.82-1.31-5.58-2.73-8.21-4.39c-1.2-0.76-2.37-1.58-3.52-2.41c-0.04-0.03,0.79,0.68-0.34-0.27
					c-0.66-0.55-1.32-1.1-1.95-1.67c-2-1.8-3.83-3.77-5.52-5.86c1.32,1.63-1.04-1.49-1.46-2.13c-0.78-1.2-1.51-2.43-2.18-3.69
					c-0.65-1.21-1.23-2.44-1.79-3.69c-0.02-0.04,0.37,1.02-0.14-0.38c-0.31-0.83-0.62-1.65-0.91-2.49c-0.95-2.79-1.7-5.65-2.3-8.54
					c-0.31-1.53-0.57-3.07-0.81-4.61c-0.2-1.25,0.09,1.13-0.13-1c-0.1-0.93-0.2-1.85-0.28-2.78c-0.32-3.6-0.47-7.21-0.49-10.82
					c-0.11-17.97,2.38-34.67,5.39-51.99c6-34.59,12.76-69.06,18.92-103.63c13.94-78.25,27.25-156.61,41.68-234.78
					c1.66-9.02,3.35-18.03,5.05-27.04c1.78-9.43-12.67-13.48-14.46-3.99c-14.98,79.36-28.54,158.97-42.59,238.49
					c-6.85,38.76-13.85,77.5-21.11,116.19c-3.64,19.44-6.97,39.15-7.74,58.95c-1.06,27.39,4.55,55.71,29.35,71.23
					c12.97,8.11,28.44,11.79,43.42,13.9c22.39,3.16,45.07,3.39,67.63,2.86c31.88-0.76,63.71-3.14,95.48-5.77
					c18.87-1.57,37.7-2.47,56.61-3.42c18.56-0.94,37.46-2.53,55.28-8.15c8.72-2.75,17.14-6.46,24.97-11.17
					c5.08-3.06,4.86-12.59-1.79-13.71c-75.5-12.72-145.68-50.72-198.12-106.45c-26.4-28.05-48.6-60.57-62.64-96.56
					c-14.49-37.15-21.48-76.89-22.56-116.67c-1.21-44.98,4.93-89.99,17.88-133.07C492.34,687.31,477.87,683.35,475.09,692.58
					L475.09,692.58z"/>
			</g>
		</g>
		<g class="st8">
			<path d="M355.36,1013.3c-3.44,13.56,7.58,28.87,21.53,29.91c-2.87,7.71-5.74,15.41-8.61,23.12
				c-21.2-11.04-33.97-31.75-18.97-50.36"/>
			<g>
				<path d="M348.13,1011.3c-4.19,19.07,9.59,37.35,28.77,39.41c-2.41-3.16-4.82-6.33-7.23-9.49c-2.87,7.71-5.74,15.41-8.61,23.12
					c3.67-1.49,7.34-2.99,11.02-4.48c-7.97-4.27-15.85-10.07-19.81-18.47c-3.68-7.82-1.55-15.05,3.52-21.62
					c2.49-3.23,0.47-8.37-2.69-10.26c-3.85-2.3-7.8-0.5-10.26,2.69c-7.65,9.92-9.62,22.5-4.72,34.1
					c4.99,11.82,15.28,20.57,26.39,26.52c4.56,2.44,9.3,0.13,11.02-4.48c2.87-7.71,5.74-15.41,8.61-23.12
					c1.87-5.02-2.85-9.02-7.23-9.49c-9.26-0.99-16.25-11.55-14.3-20.42C364.66,1005.88,350.2,1001.86,348.13,1011.3L348.13,1011.3z"
					/>
			</g>
		</g>
		<g class="st8">
			<path d="M544.54,1505.81c-31.88,3.81-56.62,32.01-65.86,62.76s-5.98,63.72-1.66,95.53c-19.45,1.1-38.89,2.2-58.34,3.3
				c-9.01-41.69-6.74-87.63,15.96-123.74s69.01-58.92,109.63-45.89"/>
			<g>
				<path d="M544.54,1498.31c-31.44,4.13-56,27.16-68.38,55.6c-15.4,35.39-11.4,75.01-6.38,112.18c2.41-3.16,4.82-6.33,7.23-9.49
					c-19.45,1.1-38.89,2.2-58.34,3.3c2.41,1.84,4.82,3.67,7.23,5.51c-6.99-32.9-7.04-68.41,5.85-99.93
					c11.36-27.78,34.16-50.55,62.99-59.76c15.56-4.97,31.86-5.57,47.51-0.71c9.24,2.87,13.19-11.61,3.99-14.46
					c-32.4-10.06-66.98,0.37-92.85,21.04c-28.51,22.77-42.83,57.91-46.3,93.52c-2.1,21.49-0.12,43.23,4.35,64.3
					c0.65,3.05,4.11,5.68,7.23,5.51c19.45-1.1,38.89-2.2,58.34-3.3c5.36-0.3,7.9-4.52,7.23-9.49c-4.42-32.71-8.15-68.3,4.51-99.73
					c9.41-23.34,29.7-45.64,55.78-49.07c4.02-0.53,7.5-3.07,7.5-7.5C552.04,1502.17,548.58,1497.78,544.54,1498.31L544.54,1498.31z"
					/>
			</g>
		</g>
		<g class="st8">
			<path d="M703.4,1491.66c-24.1,17.6-37.91,46.54-43.32,75.89c-5.42,29.35-3.35,59.49-1.27,89.26
				c-14.62,0.04-29.24,0.07-43.86,0.11c10.11-22.99,3.23-49.43-2.41-73.9c-5.64-24.47-9.22-52.52,5.78-72.66
				c17.43-23.42,51.21-25.25,80.4-24.93"/>
			<g>
				<path d="M699.62,1485.19c-23.09,17.19-37.6,42.71-44.58,70.36c-8.36,33.09-6.08,67.59-3.72,101.26c2.5-2.5,5-5,7.5-7.5
					c-14.62,0.04-29.24,0.07-43.86,0.11c2.41,3.16,4.82,6.33,7.23,9.49c13.51-32.06-1.99-65.14-6.07-97.33
					c-1.82-14.33-1.79-30.07,5.7-42.91c6.57-11.28,17.9-17.92,30.19-21.39c15.15-4.28,31.09-4.5,46.72-4.35
					c9.65,0.09,9.66-14.91,0-15c-28.16-0.27-62.15,0.97-82.6,23.37c-23.87,26.15-15.42,63.1-8.43,94.06
					c4.44,19.69,8.14,40.31,0.03,59.57c-1.94,4.6,2.87,9.5,7.23,9.49c14.62-0.04,29.24-0.07,43.86-0.11c3.84-0.01,7.78-3.43,7.5-7.5
					c-2.19-31.24-4.68-63.39,2.44-94.2c5.7-24.65,17.74-49.06,38.43-64.47c3.27-2.44,4.85-6.46,2.69-10.26
					C708.05,1484.65,702.86,1482.78,699.62,1485.19L699.62,1485.19z"/>
			</g>
		</g>
	</g>
	<g id="Ebene_21">
		<g class="st7">
			<g>
				<path class="st0" d="M813.78,415.19c4.73,6.77,7.23,13.96,7.25,22.24c0.03,12.87,20.03,12.89,20,0
					c-0.03-11.55-3.36-22.85-9.98-32.34c-3.09-4.42-8.75-6.47-13.68-3.59C812.99,404.07,810.67,410.74,813.78,415.19L813.78,415.19z
					"/>
			</g>
		</g>
		<g class="st7">
			<g>
				<path class="st0" d="M855.46,419.48c6.4,8.75,8.87,19.06,6.13,29.65c-3.24,12.47,16.05,17.79,19.29,5.32
					c3.99-15.37,1.29-32.15-8.14-45.06c-3.18-4.35-8.68-6.51-13.68-3.59C854.75,408.32,852.25,415.1,855.46,419.48L855.46,419.48z"
					/>
			</g>
		</g>
		<g class="st7">
			<g>
				<path class="st0" d="M293.83,390.78c8.05,13.87,11.35,29.26,10.13,45.22c-0.41,5.39,4.89,10,10,10c5.75,0,9.59-4.59,10-10
					c1.48-19.29-3.16-38.61-12.86-55.32C304.64,369.55,287.35,379.61,293.83,390.78L293.83,390.78z"/>
			</g>
		</g>
		<g class="st7">
			<g>
				<path class="st0" d="M239.67,393.12c-2.39,5.75-4.79,11.49-7.18,17.24c-2.08,4.99,2.24,11,6.98,12.3
					c5.76,1.58,10.22-1.98,12.3-6.98c2.39-5.75,4.79-11.49,7.18-17.24c2.08-4.99-2.24-11-6.98-12.3
					C246.22,384.56,241.76,388.12,239.67,393.12L239.67,393.12z"/>
			</g>
		</g>
		<g class="st7">
			<g>
				<path class="st0" d="M1027.94,575.24c15.98,4.53,25.69,25.06,18.81,39.7c-2.3,4.88-1.36,10.79,3.59,13.68
					c4.34,2.54,11.37,1.32,13.68-3.59c12.55-26.71-1.92-60.9-30.76-69.08C1020.85,552.44,1015.55,571.73,1027.94,575.24
					L1027.94,575.24z"/>
			</g>
		</g>
		<g class="st7">
			<g>
				<path class="st0" d="M986.14,675.13c-4.31,9.1-8.62,18.19-12.93,27.29c-2.31,4.88-1.36,10.79,3.59,13.68
					c4.35,2.55,11.36,1.31,13.68-3.59c4.31-9.1,8.62-18.19,12.93-27.29c2.31-4.88,1.36-10.79-3.59-13.68
					C995.47,669,988.46,670.23,986.14,675.13L986.14,675.13z"/>
			</g>
		</g>
	</g>
</g>
</svg>
