<?xml version="1.0" encoding="utf-8"?>
<!-- Generator: Adobe Adobe Illustrator 24.2.0, SVG Export Plug-In . SVG Version: 6.00 Build 0)  -->
<svg version="1.1" xmlns="http://www.w3.org/2000/svg" xmlns:xlink="http://www.w3.org/1999/xlink" x="0px" y="0px"
	 viewBox="0 0 1728 1296" style="enable-background:new 0 0 1728 1296;" xml:space="preserve">
<style type="text/css">
	.st0{opacity:0.149;}
	.st1{fill:#FFFFFF;}
	.st2{stroke:#000000;stroke-width:0.2673;stroke-miterlimit:10;}
	.st3{opacity:0.6902;fill:#3D4D5A;stroke:#3D4D5A;stroke-width:0.624;stroke-miterlimit:10;enable-background:new    ;}
	.st4{fill:#3D4D5A;}
	.st5{fill:#3D4D5B;}
	.st6{opacity:0.0784;}
	.st7{fill:#CB5A7B;}
	.st8{stroke:#000000;stroke-width:0.8184;stroke-miterlimit:10;}
</style>
<g id="Ebene_2">
</g>
<g id="Ebene_3_1_">
</g>
<g id="Ebene_4">
	<g>
		<g id="Ebene_3_2_">
			<g class="st0">
				<g>
					<path d="M1118.07,402.95c-1.37,0-2.71-3.07-1.21-3.07C1118.23,399.88,1119.57,402.95,1118.07,402.95L1118.07,402.95z"/>
				</g>
			</g>
			<g class="st0">
				<path d="M1120.44,400.71c-1.58,24.02-3.17,48.05-4.75,72.07c-23.6-17.38-47.19-34.75-70.79-52.13
					c-13.16-9.69-25.58-24.91-42.63-24.05c-17.68,0.89-38.2,0.72-55.09,1.57c-40.7,2.04-72.49,0.01-112.87-5.27
					c-12.36-1.62-31.32-12.4-40.55-20.45c-11.23-9.79-12.46-20.49-13.53-35.01c-4.13-56.26,6.16-112.73,22.24-166.98
					c3.99-13.45,9.31-28.03,21.93-35.07c11.17-6.23,25.1-4.82,37.88-3c101.46,14.47,200.68,43.28,293.46,85.19
					c10.24,4.63,21.09,10.05,26.12,19.76c3.97,7.67,4.66,16.82,2.86,25.2c-7.66,35.64-11.78,59.19-17.56,96.59
					c-1.63,10.56-5.77,27.11-15.34,32.58c-9.36,5.35-19.95,5.29-30.3,4.17c-0.86,1.62-1.73,3.23-2.59,4.85"/>
				<g>
					<path d="M1121.71,401.38c-1.58,24.02-3.17,48.05-4.75,72.07c-0.07,1-0.91,1.01-1.61,0.5c-18.07-13.31-36.14-26.61-54.21-39.92
						c-8.01-5.89-16.21-11.6-23.8-17.98c-6.26-5.26-12.43-10.92-19.89-14.62c-3.71-1.84-7.78-3.11-11.97-3.3
						c-4.85-0.22-9.81,0.32-14.66,0.46c-10.22,0.29-20.45,0.38-30.68,0.66c-10.31,0.28-20.61,0.91-30.92,1.12
						c-10.3,0.21-20.6,0.14-30.89-0.24c-20.54-0.76-40.99-2.79-61.35-5.41c-8.02-1.03-15.36-3.8-22.5-7.4
						c-7.13-3.6-14.1-7.85-20.19-12.95c-5.97-5-10.33-11.22-12.52-18.53c-2.34-7.82-2.67-16.18-3.14-24.26
						c-1.22-21.05-0.45-42.18,1.85-63.14c2.26-20.64,5.98-41.12,10.74-61.36c2.4-10.2,5.06-20.34,7.95-30.42
						c2.4-8.41,4.74-16.92,8.62-24.83c3.42-6.98,8.24-13.51,15.23-17.58c8.08-4.71,17.81-5.35,27.03-4.7
						c10.09,0.71,20.14,2.51,30.11,4.1c10.49,1.68,20.95,3.51,31.38,5.49c41.47,7.88,82.45,18.17,122.63,30.77
						c40.06,12.56,79.33,27.41,117.52,44.48c7.9,3.53,16.07,7.01,22.74,12.51c6.73,5.54,10.81,13.05,12.05,21.45
						c1.43,9.64-1.38,19.01-3.33,28.4c-1.83,8.83-3.59,17.68-5.24,26.54c-3.39,18.15-6.35,36.37-9.18,54.61
						c-2.08,13.44-5.26,31.14-19.84,37.15c-8.56,3.53-17.98,3.32-27.07,2.36c0.26-0.08,0.53-0.16,0.79-0.24
						c-0.86,1.62-1.73,3.23-2.59,4.85c-0.66,1.24-2.8-1.37-2.18-2.54c0.86-1.62,1.73-3.23,2.59-4.85c0.15-0.28,0.53-0.27,0.79-0.24
						c9.73,1.03,19.97,1.06,28.78-3.6c6.55-3.47,9.92-10.43,12.18-16.96c2.52-7.27,3.62-14.81,4.8-22.35
						c1.43-9.17,2.9-18.34,4.45-27.49c2.92-17.26,6.19-34.45,9.77-51.6c1.99-9.52,4.58-18.86,2.02-28.53
						c-2.28-8.61-8.32-14.62-16.07-19.14c-7.92-4.62-16.63-8.1-25.06-11.76c-9.34-4.06-18.74-7.99-28.2-11.79
						c-19.28-7.74-38.8-14.92-58.52-21.54c-38.72-12.99-78.24-23.82-118.28-32.41c-20.26-4.34-40.66-8.11-61.16-11.3
						c-9.74-1.51-19.62-3.36-29.51-3.51c-9.13-0.13-18.27,1.63-25.43,7.35c-6.35,5.07-10.34,12.38-13.23,19.66
						c-3.37,8.47-5.67,17.35-8.08,26.1c-5.46,19.85-10.06,39.94-13.38,60.23c-3.31,20.23-5.34,40.68-5.67,61.16
						c-0.17,10.29,0.1,20.59,0.84,30.86c0.55,7.64,1.05,15.6,4.3,22.7c3.13,6.84,8.96,11.8,15.17,16.08c6.8,4.69,14.23,8.79,22,11.8
						c8.24,3.19,16.98,3.85,25.74,4.87c10.2,1.18,20.43,2.18,30.68,2.9c20.01,1.4,40.07,1.64,60.11,0.85
						c19.79-0.78,39.62-0.89,59.41-1.75c4.13-0.18,8.05-0.2,12.06,0.92c3.55,0.99,6.91,2.58,10.03,4.47
						c6.95,4.2,12.88,9.71,19.08,14.82c7.78,6.42,16.19,12.18,24.32,18.17c8.72,6.42,17.43,12.84,26.15,19.25
						c8.5,6.26,17.01,12.52,25.51,18.79c-0.54,0.17-1.07,0.33-1.61,0.5c1.58-24.02,3.17-48.05,4.75-72.07
						C1119.31,398.05,1121.79,400.09,1121.71,401.38L1121.71,401.38z"/>
				</g>
			</g>
			<g class="st0">
				<g>
					<path d="M802.5,459.27c-1.37,0-2.71-3.07-1.21-3.07C802.66,456.19,804,459.27,802.5,459.27L802.5,459.27z"/>
				</g>
			</g>
		</g>
		<g id="Ebene_3_Kopie">
			<g>
				<g>
					<path class="st1" d="M1109.88,392.65c-1.37,0-2.71-3.07-1.21-3.07C1110.04,389.58,1111.38,392.65,1109.88,392.65
						L1109.88,392.65z"/>
				</g>
			</g>
			<g>
				<path class="st1" d="M1112.25,390.4c-1.58,24.02-3.17,48.05-4.75,72.07c-23.6-17.38-47.19-34.75-70.79-52.13
					c-13.16-9.69-25.58-24.91-42.63-24.05c-17.68,0.89-38.2,0.72-55.09,1.57c-40.7,2.04-72.49,0.01-112.87-5.27
					c-12.36-1.62-31.32-12.4-40.55-20.45c-11.23-9.79-12.46-20.49-13.53-35.01c-4.13-56.26,6.16-112.73,22.24-166.98
					c3.99-13.45,9.31-28.03,21.93-35.07c11.17-6.23,25.1-4.82,37.88-3c101.46,14.47,200.68,43.28,293.46,85.19
					c10.24,4.62,21.09,10.05,26.12,19.76c3.97,7.67,4.66,16.82,2.86,25.2c-7.66,35.64-11.78,59.19-17.56,96.59
					c-1.63,10.56-7.44,25.05-15.34,32.58c-7.9,7.53-21.46,10.68-30.3,4.17c-0.86,1.62-1.73,3.23-2.59,4.85"/>
				<g>
					<path class="st1" d="M1113.52,391.07c-1.58,24.02-3.17,48.05-4.75,72.07c-0.07,1-0.91,1.01-1.61,0.5
						c-18.07-13.31-36.14-26.61-54.21-39.92c-8.17-6.01-16.51-11.84-24.25-18.36c-6.24-5.26-12.44-10.89-19.94-14.48
						c-3.65-1.75-7.65-2.92-11.75-3.07c-4.76-0.18-9.61,0.34-14.38,0.47c-10.46,0.29-20.93,0.39-31.39,0.67
						c-10.33,0.28-20.63,0.91-30.96,1.11c-10.4,0.2-20.81,0.11-31.21-0.3c-20.58-0.8-41.07-2.88-61.47-5.52
						c-7.95-1.03-15.4-4.18-22.41-7.81c-6.93-3.59-13.74-7.79-19.62-12.84c-5.99-5.14-10.16-11.54-12.25-18.98
						c-2.25-8.02-2.52-16.61-2.96-24.85c-1.12-21.05-0.27-42.18,2.1-63.13c2.36-20.88,6.2-41.6,11.1-62.07
						c2.44-10.19,5.14-20.32,8.05-30.39c2.35-8.15,4.72-16.36,8.65-23.97c3.64-7.04,8.89-13.5,16.27-17.21
						c8.28-4.16,17.9-4.43,27.02-3.65c10.39,0.89,20.74,2.72,31.02,4.39c10.36,1.68,20.69,3.52,31,5.5
						c41.7,8.01,82.9,18.46,123.28,31.24c40.13,12.71,79.48,27.72,117.73,44.95c7.76,3.49,15.74,7.2,21.87,13.08
						c6.3,6.04,9.55,14.07,10.19,22.52c0.36,4.75-0.26,9.36-1.26,14c-1.05,4.9-2.08,9.79-3.08,14.7c-1.79,8.74-3.51,17.5-5.13,26.27
						c-1.62,8.77-3.14,17.55-4.59,26.34c-1.6,9.65-2.85,19.37-4.63,28.99c-1.45,7.86-4.38,15.63-8.48,22.57
						c-4.05,6.85-9.67,12.65-17.61,15.27c-7.07,2.33-14.74,1.92-20.85-2.44c0.48,0.03,0.95,0.07,1.43,0.1
						c-0.86,1.62-1.73,3.23-2.59,4.85c-0.66,1.24-2.8-1.37-2.18-2.54c0.86-1.62,1.73-3.23,2.59-4.85c0.3-0.56,1.1-0.14,1.43,0.1
						c6.69,4.77,15.96,3.62,22.88-0.04c7.34-3.87,12.01-10.87,15.37-18.02c3.6-7.64,5.35-15.5,6.64-23.74
						c1.44-9.24,2.91-18.47,4.47-27.69c2.92-17.34,6.19-34.62,9.78-51.84c1.95-9.38,4.68-18.67,2.54-28.26
						c-1.95-8.76-7.58-15.09-15.34-19.81c-7.86-4.78-16.63-8.25-25.08-11.94c-9.45-4.12-18.96-8.11-28.53-11.96
						c-19.04-7.66-38.32-14.77-57.8-21.34c-38.94-13.13-78.69-24.06-118.97-32.73c-20.26-4.36-40.66-8.14-61.15-11.34
						c-9.76-1.52-19.66-3.38-29.56-3.61c-9.15-0.21-18.38,1.37-25.68,6.98c-6.44,4.95-10.52,12.21-13.46,19.47
						c-3.45,8.51-5.77,17.47-8.2,26.28c-5.44,19.73-10.02,39.69-13.36,59.85c-3.37,20.35-5.43,40.92-5.79,61.53
						c-0.18,10.29,0.08,20.59,0.81,30.86c0.54,7.59,1.01,15.5,4.12,22.6c3.02,6.9,8.74,11.91,14.93,16.23
						c6.81,4.76,14.28,8.89,22.08,11.97c8.36,3.3,17.21,3.99,26.12,5.02c10.08,1.17,20.19,2.16,30.32,2.87
						c19.99,1.41,40.05,1.67,60.07,0.89c9.99-0.39,19.96-0.82,29.96-1.01c9.95-0.19,19.9-0.32,29.84-0.76
						c4.03-0.17,7.87-0.2,11.79,0.85c3.65,0.98,7.1,2.61,10.3,4.54c6.95,4.19,12.88,9.71,19.08,14.82
						c7.78,6.42,16.19,12.18,24.32,18.17c8.72,6.42,17.43,12.84,26.15,19.25c8.5,6.26,17.01,12.52,25.51,18.79
						c-0.54,0.17-1.07,0.33-1.61,0.5c1.58-24.02,3.17-48.05,4.75-72.07C1111.12,387.74,1113.6,389.78,1113.52,391.07L1113.52,391.07
						z"/>
				</g>
			</g>
			<g>
				<g>
					<path class="st1" d="M794.31,448.96c-1.37,0-2.71-3.07-1.21-3.07C794.47,445.89,795.81,448.96,794.31,448.96L794.31,448.96z"/>
				</g>
			</g>
		</g>
		<g id="Ebene_2_1_">
			<g>
				<g>
					<path d="M1112.9,386.51c6.88,0.77,14.04,1.2,20.83-0.41c3.27-0.77,6.45-2.11,9.07-4.16c2.96-2.31,5.15-5.57,6.94-8.76
						c3.86-6.88,5.74-14.62,7.36-22.22c1.91-8.91,3.71-17.84,5.56-26.76c3.79-18.28,7.59-36.57,11.38-54.85
						c3.13-15.09,7.48-33.22-3.37-46.49c-4.68-5.72-11.17-9.76-17.81-13.09c-7.39-3.7-15.14-6.75-22.82-9.86
						c-16.99-6.87-34.23-13.2-51.62-19.09c-34.56-11.7-69.74-21.65-105.17-30.65c-35.37-8.99-70.99-17.05-106.63-24.99
						c-8.61-1.92-17.24-4.23-26.02-5.32c-8.3-1.03-16.91-0.42-24.04,4.15c-12.67,8.12-17.43,24.21-21.97,37.3
						c-11.55,33.35-18.89,68.04-21.81,103.06c-1.4,16.83-2.03,33.86-1.08,50.73c0.8,14.16,3.13,29.01,10.97,41.32
						c8.2,12.87,22.04,19.94,36.98,23.39c16.43,3.8,33.72,4.3,50.53,5.15c35.92,1.81,71.89,1.51,107.83,0.75
						c9.17-0.19,18.33-0.41,27.49-0.62c1.37-0.03,2.72,3.04,1.21,3.07c-37.5,0.86-75.02,1.83-112.52,0.76
						c-18.39-0.52-36.88-1.26-55.19-3.14c-15.38-1.58-31.26-4.68-44.01-13.54c-26.56-18.46-26.67-54.28-26.12-82.56
						c0.7-36.08,6.06-72.09,15.9-106.92c2.49-8.83,5.28-17.58,8.34-26.25c2.55-7.19,5.14-14.44,8.92-21.13
						c3.36-5.94,7.84-11.53,13.97-15.05c7.14-4.1,15.55-4.53,23.63-3.56c9.02,1.08,17.91,3.48,26.75,5.45
						c9.31,2.08,18.62,4.16,27.92,6.27c18.49,4.19,36.96,8.46,55.38,12.94c36.65,8.91,73.11,18.64,109,30.08
						c17.97,5.73,35.8,11.88,53.4,18.57c8.62,3.28,17.19,6.67,25.7,10.21c7.37,3.07,14.83,6.12,21.62,10.29
						c6.28,3.86,11.99,8.73,15.68,15.01c4.05,6.89,5.27,14.84,4.95,22.65c-0.34,8.31-2.21,16.48-3.89,24.61
						c-1.95,9.4-3.9,18.79-5.85,28.19c-3.83,18.45-7.31,37-11.55,55.36c-1.74,7.54-4.02,15.14-8.35,21.74
						c-3.94,6.01-9.31,9.78-16.59,11.24c-6.68,1.34-13.62,0.87-20.35,0.11C1112.19,389.38,1111.09,386.3,1112.9,386.51
						L1112.9,386.51z"/>
				</g>
			</g>
			<g>
				<g>
					<path d="M1114.64,371.91c-0.63,12.01-1.14,24.02-1.65,36.04c-0.55,12.85-1.07,25.7-1.64,38.55
						c-0.29,6.48-0.59,12.95-0.93,19.43c-0.04,0.65-0.62,1.15-1.29,0.71c-16.23-10.6-32.14-21.67-47.65-33.22
						c-15.98-11.9-31.57-24.31-46.47-37.45c-7.95-7.01-15.7-14.25-23.14-21.76c-0.46-0.47-0.91-1.56-0.44-2.14
						c0.51-0.65,1.34,0,1.73,0.4c13.32,13.44,27.64,25.95,42.39,37.93c15.35,12.47,31.22,24.34,47.45,35.74
						c8.62,6.05,17.35,11.97,26.18,17.73c-0.43,0.24-0.86,0.47-1.29,0.71c0.63-12.01,1.14-24.02,1.65-36.04
						c0.55-12.85,1.07-25.7,1.64-38.55c0.29-6.48,0.59-12.95,0.93-19.43c0.04-0.73,0.62-1.03,1.29-0.71
						C1114.1,370.19,1114.68,371.16,1114.64,371.91L1114.64,371.91z"/>
				</g>
			</g>
			<g>
				<g>
					<path d="M761,329.05c0.84,14.01,6.28,27.71,15.3,38.76c9.28,11.37,22.27,19.6,36.71,23.66c8.24,2.32,16.85,3.27,25.42,2.75
						c1.36-0.08,2.74,2.98,1.21,3.07c-15.9,0.95-32.01-3.05-45.48-11.19c-13.33-8.05-23.67-20.04-29.77-33.92
						c-3.42-7.77-5.41-16.07-5.91-24.49c-0.04-0.75,0.67-1.01,1.29-0.71C760.53,327.35,760.95,328.27,761,329.05L761,329.05z"/>
				</g>
			</g>
		</g>
		<g id="Ebene_5_1_">
			<ellipse class="st2" cx="1069.75" cy="324.2" rx="16.81" ry="16.8"/>
			<ellipse class="st2" cx="992.51" cy="324.2" rx="16.81" ry="16.8"/>
			<ellipse class="st2" cx="919.99" cy="324.2" rx="16.81" ry="16.8"/>
		</g>
	</g>
</g>
<g id="Ebene_1">
	<g>
		<g id="Ebene_13">
			<ellipse class="st3" cx="450.03" cy="1245.48" rx="160.11" ry="30.52"/>
			<ellipse class="st3" cx="831.46" cy="1223.95" rx="142.41" ry="24.18"/>
			<ellipse class="st3" cx="1234.04" cy="1228.83" rx="153.55" ry="33.43"/>
		</g>
		<g id="Ebene_12">
			<g>
				<g>
					<path class="st4" d="M508.14,1219.89c0.19,0,0.37-0.3,0.56-0.3C508.5,1219.58,508.32,1219.89,508.14,1219.89L508.14,1219.89z"
						/>
				</g>
			</g>
		</g>
		<g id="Ebene_9">
			<g>
				<path class="st4" d="M332.46,497.54c-13.14-7.35-31.82-3.85-41.06,7.66c-9.23,11.52-7.76,29.53,3.22,39.57
					c10.98,10.04,30.01,10.76,41.8,1.59c-3.66,5.57,1.31,13.34,7.89,15.38c6.59,2.04,13.73,0.12,20.31-1.93
					c76.58-23.8,146.94-65.36,203.25-120.05c-31.49-32.94-83.11-47.17-128.3-35.36c-45.19,11.81-81.86,49.1-91.13,92.69"/>
				<g>
					<path class="st5" d="M340.76,495.93c-18.79-10.13-51.73-7.08-61.77,13.4c-4.31,8.79-4.19,18.68-0.06,27.5
						c4.54,9.69,14.22,15.46,24.81,17.83c13.35,2.98,29.94,1.64,40.99-6.68c-5.86-0.82-11.71-1.64-17.57-2.46
						c-4.36,7.43,1.81,15.23,9.2,18.05c11.8,4.5,25.03,1.67,36.6-1.98c18.71-5.88,37.03-12.86,54.9-20.73
						c35.56-15.68,69.19-35.28,100.01-58.3c17.36-12.96,33.83-26.96,49.29-41.94c0.45-0.57,0.45-1.13,0-1.7
						c-27.29-28.31-68.08-42.7-108.17-41.77c-20.64,0.48-40.84,4.8-59.36,13.52c-16.71,7.87-31.68,19.33-43.57,32.95
						c-13.45,15.41-22.96,33.87-27.22,53.48c-0.78,3.59,18.09,5.18,19.22,0c6.96-32.06,28.71-60.72,58.01-77.87
						c7.19-4.21,14.77-7.7,22.75-10.34c4.01-1.33,7.64-2.32,11.67-3.15c4.82-1,7.32-1.37,11.93-1.8c0.95-0.09,1.91-0.16,2.87-0.23
						c0.43-0.03,3.3-0.18,1.76-0.12c2.24-0.09,4.48-0.11,6.72-0.09c1.12,0.01,2.24,0.04,3.36,0.09c1.14,0.04,0.04,0.01-0.15-0.01
						c0.64,0.04,1.28,0.07,1.92,0.12c2.24,0.16,4.47,0.36,6.7,0.63c3.08,0.36,7.8,1.19,11.9,2.1c3.91,0.88,7.9,2.02,11.9,3.37
						c18.76,6.3,35.78,16.88,49.21,30.82c0-0.57,0-1.13,0-1.7c-49.92,48.38-110.85,86.53-177.5,110.79
						c-9.14,3.33-18.54,7-28.06,9.21c-0.32,0.07-1.97,0.41-2.27,0.45c-1.23,0.15-1.52,0.16-0.86,0.04c1.56,0.15,1.96,0.18,1.2,0.07
						c0.17,0.35-1.77-0.91-1.51-0.74c-0.85-0.53-1.53-1.17-2.18-1.91c-2.33-2.66-3.62-6.41-1.74-9.62c1.56-2.64-4-3.54-5.56-3.76
						c-3.34-0.47-9.14-0.85-12,1.31c-2.49,1.87-6.1,3.8-8.45,4.39c-0.57,0.15-1.16,0.25-1.74,0.35c0.19-0.03,1.12-0.13,0.09-0.01
						c-0.44,0.05-0.89,0.09-1.33,0.13c0.17-0.01,1.45-0.02,0.32-0.02c-0.45,0-0.9,0.01-1.35-0.01c0.51,0.01,1.61,0.27-0.12-0.05
						c-0.01,0-1.47-0.21-0.62-0.07c0.72,0.12-0.9-0.2-1.04-0.23c-2.36-0.53-6.1-2.27-8.58-4.14c-2.97-2.24-5.36-5.28-7.09-8.48
						c-7.05-13.04-2.7-30.58,11.26-37.6c1.47-0.74,3.57-1.48,4.72-1.76c-0.27,0.07,2.54-0.45,0.95-0.22
						c0.43-0.06,0.86-0.09,1.28-0.13c1.49-0.18-1.47-0.01,0.02-0.02c0.28,0,2.09,0.04,0.87-0.02c-1.13-0.05,0.67,0.08,0.86,0.1
						c1.03,0.11,0,0.01-0.18-0.02c0.56,0.1,1.12,0.2,1.67,0.33c-0.19-0.04-0.73-0.2,0.12,0.05c0.68,0.2,1.36,0.41,2.02,0.68
						c0.82,0.33,1.57,0.72,2.35,1.15c3.74,2.01,9.06,1.97,13.15,1.14C339.18,499.92,344.52,497.96,340.76,495.93L340.76,495.93z"/>
				</g>
			</g>
			<g>
				<path class="st4" d="M1311.82,590.87c22.81-35.25,24.15-82.07,3.42-118.45s-62.78-60.94-106.35-62.14
					c-43.58-1.19-87.04,21.02-109.95,56.21c26.33,2.23,53.45-5.35,74.29-20.77c-4.55,12.13-9.1,24.26-13.65,36.4
					c19.02-5.46,38.04-10.93,57.05-16.39c3.55,12.67,7.1,25.33,10.65,38.01c9.14-7.16,18.28-14.33,27.42-21.49
					c1.46,15.51,2.93,31,4.39,46.51c9.59-5.03,19.18-10.05,28.77-15.07c0.14,13.3,0.28,26.62,0.43,39.92"/>
				<g>
					<path class="st5" d="M1321.09,591.72c28.32-44.22,23.56-103.78-13.2-142.37c-37.15-39-97.9-51.96-149.81-34.69
						c-27.9,9.28-52.71,27.1-68.42,51c-1.89,2.87,5.39,3.82,6.71,3.93c30.02,2.39,61.09-4.63,85.15-22.24
						c-5.97-0.53-11.94-1.08-17.91-1.61c-4.55,12.13-9.1,24.26-13.65,36.4c-0.69,1.85,5.32,2.83,5.91,2.92
						c3.5,0.49,7.11,0.32,10.5-0.66c19.02-5.46,38.04-10.93,57.05-16.39c-5.47-0.75-10.94-1.5-16.41-2.25
						c3.55,12.67,7.1,25.33,10.65,38.01c0.68,2.42,4.95,2.88,7.05,3.08c3.06,0.29,8.31,0.52,10.85-1.46
						c9.14-7.16,18.28-14.33,27.42-21.49c-5.97-0.53-11.94-1.08-17.91-1.61c1.46,15.51,2.93,31,4.39,46.51
						c0.22,2.39,5.36,2.92,7.05,3.08c3.52,0.33,7.69,0.19,10.85-1.46c9.59-5.03,19.18-10.05,28.77-15.07
						c-5.97-0.53-11.94-1.08-17.91-1.61c0.14,13.3,0.28,26.62,0.43,39.92c0.05,4.58,19.27,4.56,19.22,0
						c-0.14-13.3-0.28-26.62-0.43-39.92c-0.03-2.35-5.54-2.94-7.05-3.08c-3.52-0.33-7.69-0.19-10.85,1.46
						c-9.59,5.03-19.18,10.05-28.77,15.07c5.97,0.53,11.94,1.08,17.91,1.61c-1.46-15.51-2.93-31-4.39-46.51
						c-0.22-2.39-5.36-2.92-7.05-3.08c-3.06-0.29-8.31-0.52-10.85,1.46c-9.14,7.16-18.28,14.33-27.42,21.49
						c5.97,0.53,11.94,1.08,17.91,1.61c-3.55-12.67-7.1-25.33-10.65-38.01c-0.61-2.18-3.98-2.64-5.91-2.92
						c-3.5-0.49-7.11-0.32-10.5,0.66c-19.02,5.46-38.04,10.93-57.05,16.39c5.47,0.75,10.94,1.5,16.41,2.26
						c4.55-12.13,9.1-24.26,13.65-36.4c0.78-2.09-6.29-3-7.05-3.08c-3.15-0.3-8.19-0.48-10.85,1.46
						c-9.66,7.07-20.42,12.49-32.07,15.92c-5.06,1.5-10.72,2.6-15.38,3.11c-1.58,0.17-3.15,0.31-4.73,0.41
						c-0.2,0.01-1.93,0.1-1.36,0.08c0.72-0.03-1.64,0.03-1.89,0.04c-1.41,0.02-2.82,0-4.23-0.02c-1.04-0.02-1.77-0.07-3.77-0.24
						c2.24,1.31,4.47,2.62,6.71,3.93c12.83-19.52,31.8-35.22,53.95-44.61c5.48-2.32,11.17-4.28,16.95-5.8
						c5.14-1.35,11.31-2.44,15.8-2.92c1.61-0.17,3.23-0.31,4.85-0.42c0.65-0.04,1.29-0.09,1.94-0.12c-1.52,0.07,0.13,0,0.37,0
						c1.63-0.02,3.25-0.06,4.88-0.04c0.65,0.01,1.3,0.02,1.95,0.04c3.12,0.05-1.83-0.15,1.29,0.05c6.42,0.42,10.38,0.92,16.68,2.26
						c22.39,4.79,43.8,16.71,59.89,32.58c17.38,17.15,28.56,38.91,32.19,62.45c4.2,27.22-1.29,55.63-16.38,79.2
						c-1.85,2.89,5.1,3.77,6.71,3.93C1312.04,594.21,1319.26,594.58,1321.09,591.72L1321.09,591.72z"/>
				</g>
			</g>
			<g>
				<path class="st4" d="M1296.33,560.6c7.53,0.5,13.79,7.71,12.86,14.81"/>
				<g>
					<path class="st5" d="M1293.77,563.67c-1.7-0.17-0.07,0.21,0.67,0.7c1.2,0.8,2.17,1.85,2.99,2.99c1.77,2.44,2.4,5.12,2.13,8.05
						c-0.38,4.17,18.77,4.91,19.22,0c1.02-10.96-9.91-16.88-19.91-17.89c-2.94-0.3-9.96-0.63-11.82,2.23
						C1285.18,562.63,1292.42,563.54,1293.77,563.67L1293.77,563.67z"/>
				</g>
			</g>
		</g>
		<g id="Ebene_7">
			<g>
				<path class="st1" d="M1096.05,476.14c-21.1,35.59-20.71,81.79,1.01,117.05c21.72,35.26,63.95,58.26,106.99,58.29
					c43.05,0.02,85.31-22.93,107.07-58.16c-14.51-0.09-26.61-11.83-31.16-24.9c-4.54-13.07-3.2-27.24-1.79-40.94
					c-4.11,7.37-14.39,11.01-22.58,7.99s-13.18-12.3-10.96-20.36c1.11-4.02,3.72-7.59,4.51-11.67c0.79-4.08-1.38-9.27-5.75-9.59
					c-7-0.5-7.59,9.68-11.89,14.94c-6.18,7.54-20.34,2.25-23.63-6.77c-3.29-9.02,0.51-18.84,4.27-27.7
					c-10.15,3.2-19.19,9.07-29.35,12.25c-10.16,3.18-22.7,3.01-30-4.41c-7.3-7.42-3.58-22.84,7.11-23.32
					c-19.44,8.22-39.3,15.57-59.48,21.99"/>
				<g>
					<path class="st1" d="M1086.78,475.29c-26.43,45.04-19.25,104.18,19.13,141.11c38.21,36.77,98.56,47.95,149.09,29.34
						c26.95-9.93,50.6-27.87,65.39-51.58c2.19-3.51-7.94-4.01-9.26-4.04c1.24,0.03-0.58-0.12-0.38-0.07
						c-1.2-0.32-2.39-0.74-3.51-1.26c-2.49-1.15-4.82-2.72-6.84-4.51c-4.42-3.93-7.98-8.89-10.2-14.24
						c-5.56-13.38-3.83-28.62-2.41-42.57c0.27-2.66-6.93-3.08-8.34-3.14c-2.56-0.11-9-0.32-10.55,2.29
						c-1.11,1.87-2.49,3.59-4.31,4.87c-0.78,0.55-1.67,1.08-2.56,1.46c-0.94,0.4-2.27,0.44-0.7,0.37c-2.11,0.1,1.13,0.19,1.53,0.07
						c0.56-0.16-0.05,0.05-0.49-0.19c-0.4-0.23-0.83-0.43-1.22-0.66c-2-1.19-3.57-2.89-4.82-4.78c-2.68-4.06-3.34-9.1-1.79-13.66
						c1.68-4.95,5.53-9.7,3.97-15.15c-1.86-6.51-8.66-8.23-15.12-8.3c-5.53-0.06-11.91,0.88-15.1,5.65
						c-2.26,3.39-3.09,7.48-5.46,10.83c-0.47,0.66-0.99,1.37-1.64,1.88c-0.18,0.14-0.79,0.35-0.94,0.56
						c-0.37,0.52-0.23-0.16,0.26-0.07c1.06,0.19,2.46-0.36,3.66-0.28c0.43,0.03,1.86-0.22,1.08,0.09c-0.63,0.26,0.49,0.18-0.19-0.09
						c-0.35-0.14-0.68-0.25-1.25-0.55c-12.7-6.82-6.58-23.58-2.38-33.51c2.22-5.25-13.76-3.85-16.06-3.11
						c-8.71,2.84-16.56,7.45-25.06,10.74c-1.56,0.61-3.9,1.45-5,1.76c-0.9,0.24-1.83,0.41-2.74,0.58c-0.31,0.05-0.62,0.1-0.92,0.15
						c0.59-0.09,0.58-0.1-0.03-0.03c-0.47,0.05-0.94,0.09-1.4,0.12c0.84-0.04,0.92-0.05,0.22-0.04c-0.7-0.01-0.62,0.01,0.24,0.04
						c-0.46-0.03-0.92-0.07-1.37-0.12c-0.79-0.09,0.56,0.29-0.74-0.15c0.5,0.17-1.79-0.6-1.65-0.54c-5.49-2.29-8.43-7.15-8.27-12.75
						c0.07-2.52,0.67-5.02,2.1-7.17c0.57-0.86,1.24-1.7,2.04-2.37c-0.11,0.09,1.49-1.08,0.88-0.59c-0.38,0.13-0.24,0.09,0.43-0.15
						c-0.53,0.18-1.06,0.3-1.61,0.37c-3.11-1.77-6.23-3.56-9.35-5.33c-19.46,8.21-39.3,15.54-59.48,21.99
						c-3.41,1.09-3.26,3.38,0,4.51c4.09,1.42,9.48,1.31,13.59,0c20.18-6.44,40.02-13.78,59.48-21.99c2.06-0.87,3.98-2.18,1.51-3.87
						c-2.81-1.9-7.63-1.71-10.85-1.46c-9.03,0.69-16.42,5.18-17.77,14.08c-1.21,7.97,3.62,14.72,11.06,18.11
						c10.69,4.87,23.97,4.72,35.25,1.89c11.69-2.92,21.7-9.56,33.05-13.27c-5.36-1.03-10.71-2.07-16.06-3.11
						c-4.63,10.95-10.68,26.49,0.51,35.8c5.32,4.42,12.51,6.28,19.5,6.3c6.22,0.02,13.74-0.97,17.88-5.93
						c2.93-3.51,3.64-8.19,6.23-11.88c0.3-0.43,1.21-1.4,1.27-1.5c-1.47,2.45-13.3-3.26-10.78-0.02c0.24,0.31,0.58,0.57,0.85,0.92
						c1.58,2.07,1.57,4.92,0.95,7.3c-1.61,6.16-5.78,10.95-4.52,17.63c1.04,5.53,4.48,10.4,9.41,13.47
						c7.39,4.61,17.8,5.03,26.22,3.36c6.83-1.36,13.51-4.65,17.02-10.58c-6.29-0.29-12.58-0.57-18.87-0.85
						c-1.61,15.83-3.21,32.82,4.65,47.5c7.47,13.95,21.73,21.16,37.9,21.53c-3.09-1.35-6.18-2.69-9.26-4.04
						c-12.2,19.56-30.34,35.17-51.81,45.18c-10.4,4.85-21.29,8.11-32.63,9.72c1.06-0.15-2.2,0.26-2.47,0.29
						c-1.44,0.16-2.87,0.29-4.31,0.4c-0.8,0.06-1.6,0.11-2.4,0.16c0.43-0.02,1.64-0.04-0.33,0.01c-1.61,0.04-3.21,0.07-4.82,0.05
						c-0.8-0.01-1.61-0.02-2.41-0.04c-0.4-0.01-2.47-0.12-0.81-0.02c-1.28-0.07-2.56-0.16-3.84-0.27c-3.56-0.31-5.22-0.53-8.18-1.04
						c-47.51-8.19-86.4-45.05-95.48-90.22c-5.43-26.97-1.17-55.64,12.94-79.7C1107.6,473.08,1089.29,471.01,1086.78,475.29
						L1086.78,475.29z"/>
				</g>
			</g>
			<g>
				<path class="st1" d="M1181.54,662.1c-19.61,76.51-35.39,153.9-47.25,231.83c-2.57,16.89-3.96,36.69,9.18,48.35
					c10.01,8.89,25.05,9.72,38.76,10.06c22.07,0.55,42.63,10.61,64.7,11.16c21.39,0.53,46.94-9.39,61.95-23.87
					c18.66-18.01,13.54-47.49,7.13-72.01c-19.37-74.02-38.75-148.04-58.13-222.06"/>
				<g>
					<path class="st1" d="M1171.93,662.1c-13.76,53.71-25.65,107.86-35.61,162.32c-2.51,13.71-4.89,27.45-7.16,41.2
						c-2.06,12.51-4.47,25.09-5.69,37.71c-0.98,10.13-0.81,20.63,3.56,30.09c4.89,10.58,15.34,16.38,26.72,19.2
						c6.02,1.49,12.27,2.19,18.48,2.53c6.49,0.35,11.47,0.22,17.55,1.16c12.92,2.01,25.33,6.21,38.2,8.46
						c25.79,4.5,52.53,0.34,74.93-12.86c9.25-5.45,18.19-12.49,23.01-21.94c4.65-9.12,5.91-19.29,5.46-29.31
						c-0.47-10.58-2.68-21.02-5.32-31.28c-3.47-13.52-7.07-27-10.6-40.51c-14.25-54.44-28.5-108.88-42.75-163.31
						c-1.74-6.66-3.49-13.32-5.23-19.97c-1.36-5.18-20.12-3.43-19.22,0c13.79,52.67,27.58,105.35,41.36,158.02
						c3.43,13.12,6.87,26.24,10.3,39.36c3.11,11.89,6.53,23.75,9.14,35.76c4.02,18.56,6.71,41.25-6.7,57.12
						c-6.62,7.84-16.21,13.66-25.74,17.83c-4.66,2.04-9.65,3.76-14.58,4.9c-1.28,0.3-2.58,0.57-3.87,0.81
						c-0.28,0.05-3.49,0.57-2.52,0.44c-1.27,0.17-2.54,0.3-3.82,0.4c-0.63,0.05-1.26,0.1-1.89,0.13c1.89-0.09-1.09-0.01-1.19-0.01
						c-2.2,0.01-4.44-0.15-7.22-0.49c-2.65-0.32-5.55-0.87-8.32-1.44c-6.3-1.3-12.53-2.94-18.77-4.46
						c-6.45-1.57-12.92-2.91-19.51-3.8c-3-0.41-6.01-0.69-9.04-0.83c-1.89-0.09-3.77-0.15-5.66-0.21c-0.66-0.02-1.32-0.04-1.98-0.07
						c-3.24-0.11,1.81,0.15-1.43-0.07c-9.49-0.63-19.26-1.93-26.33-9.73c-6.82-7.52-8.4-17.63-8.31-27.24
						c0.11-11.4,2.38-22.76,4.17-33.99c2.1-13.17,4.31-26.33,6.62-39.47c9.32-52.75,20.43-105.22,33.32-157.29
						c1.58-6.39,3.19-12.77,4.82-19.15C1192.02,658.7,1173.27,656.86,1171.93,662.1L1171.93,662.1z"/>
				</g>
			</g>
			<g>
				<path class="st1" d="M1191.43,659.31c20.34,5.45,43.09,2.12,60.75-8.87"/>
				<g>
					<path class="st1" d="M1184.63,661.56c25.19,6.55,53.63,4.08,75.84-9.52c3.51-2.15-1.44-3.96-3.45-4.36
						c-3.82-0.77-9.67-0.99-13.15,1.14c-7.46,4.56-15.6,7.77-24.37,9.21c-7.13,1.18-13.24,1.11-21.29-0.98
						c-4.32-1.12-9.3-1.49-13.59,0C1181.54,658.13,1180.87,660.58,1184.63,661.56L1184.63,661.56z"/>
				</g>
			</g>
			<g>
				<path class="st1" d="M1112.97,1226.49c4.87-20.27,19.72-49.01,39.98-56.95c13.52-5.3,43.77-14.2,62.92-4.1
					c19.15,10.1,31.46,31.54,28.39,52.12c0.02-13.3,0.1-26.96,5.16-39.37c5.06-12.41,16.3-23.46,30.26-24.74
					c13.37-1.22,26.17,6.81,33.85,17.27c7.68,10.46,12.32,37.61,12.32,56.98c0,5.33-10.32,3.84-15.94,3.84
					c-67.44-0.08-128.47-0.84-195.92-0.92"/>
				<g>
					<path class="st1" d="M1122.58,1226.49c2.84-11.62,7.74-22.85,14.36-32.99c5.96-9.15,14.02-18.42,24.48-22.34
						c2.17-0.81,4.38-1.57,6.59-2.28c2.52-0.8,5.82-1.75,7.57-2.17c3.22-0.78,6.46-1.42,9.73-1.96c0.15-0.02,1.68-0.24,0.45-0.07
						c0.92-0.12,1.85-0.23,2.77-0.32c0.62-0.06,1.24-0.12,1.86-0.17c0.62-0.05,1.24-0.09,1.86-0.13c-1.01,0.04-0.92,0.04,0.24,0
						c0.62-0.01,1.24-0.02,1.85-0.02c0.17,0,3.2,0.1,1.13-0.01c0.76,0.04,1.52,0.1,2.27,0.18c0.34,0.03,2.25,0.27,0.84,0.07
						c2.97,0.43,4.64,0.81,7.44,2.03c5.92,2.6,11.16,6.86,15.41,11.49c10.04,10.93,15.2,25.32,13.2,39.79c6.41,0,12.81,0,19.22,0
						c0.02-12.79-0.04-26.17,4.75-38.33c3.62-9.17,11.05-18.76,21.12-22.1c0.07-0.02,1.82-0.57,1.22-0.38
						c-0.58,0.18,1.46-0.37,0.58-0.14c-1.06,0.28,2-0.47,0.09-0.08c0.17-0.04,1.95-0.11,0.35-0.05c0.1-0.01,1.69,0.16,0.58,0.02
						c0.62,0.09,1.29,0.22,1.89,0.36c0.84,0.21,2.5,0.78,3.56,1.23c4.97,2.11,9.33,5.56,12.9,9.41c6.41,6.93,9.13,15.52,11.19,24.37
						c2.43,10.48,3.78,21.27,4.09,32c0.04,1.22,0.23,2.61,0.06,3.83c-0.02,0.13-0.37,1.61-0.56,1.4c-0.06-0.06,2.51-0.98,0.81-0.41
						c0.31-0.05,0.63-0.1,0.94-0.15c-0.89,0.06-0.95,0.07-0.17,0.02c0.79-0.04,0.72-0.04-0.21-0.02c-0.25,0-0.51-0.01-0.76-0.01
						c-5.95-0.07-11.89-0.19-17.84-0.21c-28.83-0.07-57.66-0.25-86.49-0.44c-32.65-0.21-65.31-0.42-97.95-0.46
						c-2.11,0-9.44,0.12-9.61,3.19c-0.17,2.96,8.09,3.19,9.61,3.19c64.03,0.08,128.05,0.81,192.08,0.91
						c5.7,0.01,11.48,0.52,17.16-0.1c5.09-0.55,12.17-1.81,12.22-7.76c0.1-11.82-1.52-23.91-4.25-35.43
						c-2.34-9.9-5.59-19.55-13.11-27.02c-10.46-10.39-24.95-15.18-39.99-14.11c-14.95,1.06-27.87,8.95-35.15,21.38
						c-8.16,13.92-8.28,30.38-8.31,45.87c-0.01,4.46,18.57,4.72,19.22,0c1.96-14.16-3.01-28.7-12.37-39.77
						c-10.05-11.88-24.02-18.7-39.99-19.87c-16.19-1.19-32.52,1.71-47.81,6.67c-5.77,1.87-11.56,3.96-16.54,7.34
						c-5.45,3.71-10.14,8.35-14.14,13.43c-9.48,12.02-16.07,26.53-19.65,41.12C1102.51,1229.95,1121.3,1231.72,1122.58,1226.49
						L1122.58,1226.49z"/>
				</g>
			</g>
			<g>
				<path class="st1" d="M721.66,1216.45c9.58-23.78,13.67-49.85,37.74-61.47c20.48-9.9,42.8-7.28,59.35,7.86
					c16.54,15.14,24.76,36.78,28.79,58.25c-2.06-13.34-4.12-27-1.27-40.21c2.85-13.21,11.64-26.09,25.1-30.4
					c14.01-4.49,29.84,1.34,40.56,11c10.72,9.65,12.24,18.45,18.67,31.08c4.98,9.8,11.06,22.09,1.9,28.64
					c-4,2.86-7.02,6.02-12.03,6.22c-67.09,2.67-127.17-0.93-195.25-0.93c0.38-3.37-2.45-6.68-2.08-10.05"/>
				<g>
					<path class="st1" d="M731.27,1216.45c8-20.02,12.37-46.02,33.19-58.15c2.66-1.55,5.47-2.81,8.4-3.83
						c1.26-0.44,2.57-0.86,3.84-1.18c-0.01,0,1.9-0.41,1.92-0.41c-0.07,0.01,2.68-0.45,1.57-0.3c0.8-0.11,1.61-0.17,2.41-0.24
						c1.79-0.15-2.22-0.05,0.81-0.04c0.64,0,1.27-0.01,1.92,0.01c-1.68-0.04,0.37,0.04,0.78,0.08c1.89,0.17,4.64,0.71,7.36,1.64
						c12.59,4.3,22.08,14.45,28.88,25.03c8.24,12.82,12.79,27.35,15.58,42.04c0.94,4.97,19.84,3.96,19.22,0
						c-2.07-13.38-4.21-27.22-1.18-40.63c2.22-9.82,7.94-19.9,17.1-25.38c1.87-1.12,3.88-2.08,6.03-2.63
						c-0.56,0.14,1.31-0.25,1.37-0.26c1.56-0.25-0.99,0.07,0.58-0.05c1.62-0.12-1.29-0.01,0.33-0.01c0.69,0.01,0.64-0.01-0.14-0.04
						c0.48,0.03,0.97,0.07,1.45,0.12c1.58,0.16-0.98-0.19,0.59,0.09c0.64,0.12,1.28,0.23,1.91,0.39c0.99,0.24,2.15,0.63,3.23,1.01
						c2.6,0.92,5.04,2.18,7.39,3.59c9.39,5.66,15.43,14.02,19.76,23.56c2.27,5,4.52,9.99,6.97,14.92c2.26,4.53,4.52,9.28,5.01,14.32
						c0.5,5.16-1.52,8.11-5.64,11.23c-1.09,0.82-2.17,1.66-3.33,2.38c-0.81,0.5-2.64,1.64,0.65,0.59c-1.38,0.44-3.54,0.13-5.01,0.18
						c-2.08,0.07-4.15,0.14-6.23,0.19c-28.45,0.83-56.91,0.6-85.35,0.1c-32.46-0.58-64.93-1.45-97.4-1.46
						c3.2,1.06,6.41,2.13,9.61,3.19c0.11-3.51-2.18-6.53-2.08-10.05c0.13-4.42-19.08-4.72-19.22,0c-0.11,3.51,2.18,6.53,2.08,10.05
						c-0.09,3,8.07,3.19,9.61,3.19c63.2,0.02,126.41,3.34,189.61,1.14c8.44-0.29,16.07-0.59,22.92-5.73
						c4.53-3.39,8.64-6.43,9.06-12.31c0.4-5.61-2.2-11.28-4.57-16.28c-2.49-5.27-5.09-10.47-7.46-15.8
						c-4.88-10.98-11.61-20.13-22.39-26.63c-12.6-7.6-28.98-10.32-43.53-6.99c-14.43,3.3-24.73,13.16-29.86,26.15
						c-6.06,15.34-3.51,32.09-1.07,47.86c6.41,0,12.81,0,19.22,0c-5.34-28.04-18.62-59.87-48.74-71.1
						c-15.66-5.83-34.47-5.4-50.09,0.3c-13.36,4.88-23.54,13.52-30.18,25.52c-7.11,12.84-10.69,27.13-16.08,40.63
						C710.97,1219.13,729.14,1221.75,731.27,1216.45L731.27,1216.45z"/>
				</g>
			</g>
			<g>
				<path class="st1" d="M788.95,644c-17.68,80.96-31.98,148.75-46.71,230.24c-3.11,17.19-12.96,37.3-0.12,49.79
					c10.58,10.29,27.37,11.29,42.52,11.63c23.31,0.53,47.87,7.34,71.18,7.88c20.56,0.47,48.9-19.33,53.39-23.58
					c17.88-16.96,10.35-38.72,5.27-60.68c-18.77-81.16-35.71-160.53-54.48-241.69c-22.47,9.95-42.31,9.12-66.02,2.24
					c-4.89,2.89-7.55,16.72-4.84,21.55"/>
				<g>
					<path class="st1" d="M779.34,644c-11.68,53.49-23.14,107.04-33.64,160.75c-2.63,13.45-5.2,26.91-7.72,40.38
						c-2.45,13.14-4.38,26.45-7.72,39.42c-2.56,9.96-6.29,21.21-2.89,31.39c3.79,11.33,15.74,17.04,27.09,19.84
						c12.6,3.11,25.95,2.48,38.18,3.58c14.4,1.3,28.59,4.14,42.94,5.88c13.8,1.67,27.33,2.38,40.77-1.51
						c9.95-2.87,19.39-7.62,28.11-12.95c6.3-3.85,12.88-8.04,17.51-13.74c7.13-8.77,8.89-19.75,7.75-30.52
						c-1.26-11.98-4.84-23.77-7.54-35.51c-3.25-14.11-6.46-28.23-9.64-42.36c-12.76-56.6-25.12-113.27-38.05-169.84
						c-1.62-7.08-3.25-14.16-4.88-21.24c-0.56-2.42-5.06-2.89-7.05-3.08c-3.69-0.35-7.48-0.01-10.85,1.46
						c-4.07,1.77-8.39,3.31-12.75,4.31c-1.52,0.35-4.23,0.88-5.1,1c-1.04,0.15-2.1,0.26-3.16,0.35c0.01,0-3.16,0.22-1.66,0.15
						c-4.63,0.23-7.37,0.06-12.36-0.65c-3.48-0.49-8.05-1.46-11.86-2.45c-6.32-1.64-14.93-4.15-20.5,0.54
						c-2.06,1.73-3.12,4.08-4.02,6.5c-1.89,5.06-2.97,11.47-0.42,16.49c0.56,1.1,3.46,1.71,4.41,1.91c2.36,0.48,5,0.55,7.41,0.32
						c1.92-0.18,8.23-0.93,6.71-3.93c-1.48-2.91-0.78-7.25-0.17-10.29c0.35-1.77,0.82-3.56,1.58-5.21c0.38-0.83,0.84-1.65,1.39-2.39
						c0.29-0.39,1.42-1.43,1.05-1.19c-5.03,0.21-10.07,0.43-15.09,0.64c13.22,3.79,26.92,6.44,40.8,6.12
						c14.13-0.32,27.49-3.42,40.31-9c-5.97-0.53-11.94-1.08-17.91-1.61c12.63,54.64,24.65,109.4,36.88,164.12
						c6.07,27.14,12.01,54.34,18.5,81.39c4.61,19.22,10.89,42.43-7.31,57.29c0.24-0.19-0.06,0.06-0.7,0.53
						c-0.62,0.46-1.24,0.92-1.87,1.37c-1.52,1.09-3.08,2.14-4.66,3.16c-3.79,2.46-7.7,4.76-11.72,6.86
						c-4.22,2.21-8.55,4.19-13.08,5.75c-1.08,0.37-2.16,0.72-3.25,1.05c-1.55,0.46-1.07,0.33-2.1,0.56c-0.67,0.15-1.33,0.27-2,0.41
						c-0.24,0.05-1.91,0.32-0.83,0.16c1.07-0.15-0.56,0.05-0.81,0.08c-2.13,0.24,0.13,0.12-0.51,0.05
						c-5.79-0.61-12.27-0.75-18.62-1.57c-6.62-0.86-13.21-1.95-19.82-2.94c-7.28-1.09-14.58-2.13-21.92-2.74
						c-3.77-0.32-7.57-0.51-11.35-0.62c-1.33-0.04-2.66-0.07-3.99-0.11c-0.38-0.01-2.47-0.09-0.89-0.02
						c-0.83-0.04-1.65-0.09-2.47-0.13c-9.53-0.6-20.22-2.1-27.42-10.01c-7.19-7.91-5.42-19.12-3.27-28.52
						c1.22-5.32,2.77-10.58,3.95-15.91c1.42-6.42,2.42-12.93,3.61-19.38c2.44-13.27,4.94-26.52,7.49-39.77
						c9.96-51.74,20.83-103.31,32.02-154.82c1.44-6.59,2.87-13.2,4.31-19.79C799.34,640.42,780.47,638.82,779.34,644L779.34,644z"/>
				</g>
			</g>
			<g>
				<path class="st1" d="M861.2,369.89l-14.28-0.53c-36.37,8.35-74.74,16.45-101.95,40.8s-45.89,58.27-46.76,93.75
					s17.63,71.85,49.9,89.82c22.28,12.41,49.78,22.42,75.33,18.77c59.26-8.46,115.46-50.93,123.22-107.3
					C954.4,448.82,918.49,386.56,861.2,369.89z M881.98,553.46c-2.52,4.1-7.59,4.77-11.83,2.94c-23.4-10.08-47.14-19.45-70.55-29.53
					c-4.27-1.84-5.27-7.71-3.1-11.23c2.52-4.1,7.59-4.77,11.83-2.94c23.4,10.08,47.14,19.45,70.55,29.53
					C883.15,544.07,884.15,549.94,881.98,553.46z"/>
				<g>
					<path class="st1" d="M861.2,366.69c-3.2-0.12-6.41-0.24-9.62-0.36c-1.48-0.05-2.96-0.15-4.44-0.16
						c-3.97-0.05-7.78,1.05-11.6,1.92c-14.61,3.35-29.25,6.76-43.51,11.3c-13.69,4.36-27.19,9.82-39.34,17.29
						c-12.13,7.45-22.65,17.06-31.71,27.72c-17.98,21.15-30.23,47.37-32.16,74.64c-1.81,25.44,6.2,51.67,22.44,72.03
						c8.22,10.31,18.59,18.88,30.4,25.3c13.92,7.57,28.82,13.67,44.47,17.15c29.77,6.61,60.31,0.53,87.7-11.36
						c23.21-10.08,44.38-25.39,59.67-44.89c15.26-19.46,23.7-42.82,23.8-67.1c0.19-46.49-27.09-94.59-71.59-115.73
						c-5.71-2.71-11.62-5.01-17.72-6.81c-4.22-1.25-9.39-1.46-13.59,0c-3.2,1.11-3.64,3.43,0,4.51
						c45.43,13.43,75.83,56.2,82.32,99.6c3.35,22.38,0.54,45.45-10.08,65.81c-10.72,20.56-27.91,37.73-48.06,50.23
						c-10.21,6.34-21.16,11.54-32.65,15.44c-5.72,1.94-10.97,3.4-16.58,4.6c-2.68,0.57-5.38,1.08-8.08,1.51
						c-2.51,0.4-6.15,0.73-8.59,0.74c-0.72,0-1.44-0.01-2.17-0.02c-3.49-0.06,0.78,0.07-1.24-0.05c-1.81-0.12-3.63-0.29-5.43-0.52
						c-2.97-0.38-6.87-1.15-10.16-1.97c-6.91-1.71-13.69-4.13-20.19-6.92c-12.03-5.14-23.82-11.44-33.38-20.17
						c-18.32-16.75-29.34-39.96-31.8-63.87c-2.68-26.04,5.12-52.23,19.33-74.43c14.3-22.34,34.24-40.59,59.44-51.41
						c12.04-5.17,24.75-8.95,37.49-12.19c6.7-1.7,13.43-3.25,20.16-4.8c1.65-0.38,3.42-0.64,5.02-1.15
						c2.97-0.95-2.38,0.22-2.81-0.02c0.1,0.05,0.41,0.01,0.51,0.02c1.56,0.15,3.16,0.12,4.72,0.18c3,0.11,6.01,0.22,9.01,0.33
						c2.1,0.08,9.44-0.18,9.61-3.19C870.97,366.88,862.71,366.75,861.2,366.69z"/>
					<path class="st1" d="M872.71,552.61c-0.57,0.83-1.51,1.38-2.04,2.1c2.23-3.02,8.37,0.51,6.62-0.42
						c-3.01-1.6-6.42-2.75-9.58-4.08c-6.35-2.68-12.72-5.32-19.09-7.96c-12.56-5.19-25.13-10.34-37.62-15.66
						c-1.96-0.83-4.02-1.34-5.13-3.2c-0.98-1.65-1.17-4.01-0.58-5.82c0.29-0.89,0.84-1.79,1.54-2.46c1.35-1.3,2.65-0.78-2.42-0.56
						c-4.77,0.2-4.18-0.16-1.14,1.15c1.73,0.74,3.46,1.48,5.19,2.21c12.5,5.3,25.08,10.44,37.63,15.64
						c6.95,2.87,13.9,5.77,20.82,8.72c2.34,1,4.92,1.59,6.02,4C873.78,548.17,873.71,550.78,872.71,552.61
						c-1.63,2.97,4.91,3.76,6.71,3.93c2.45,0.23,5,0.16,7.41-0.32c1.29-0.26,3.75-0.69,4.41-1.91c2.74-5,1.27-10.91-4.07-13.69
						c-7.78-4.05-16.47-7.01-24.61-10.38c-8.11-3.36-16.23-6.7-24.34-10.06c-7.93-3.29-15.79-7.23-23.91-10.05
						c-7.57-2.62-19.64-2.87-25.73,3c-3.88,3.74-3.66,10.34,0.44,13.83c2.91,2.47,7.16,3.62,10.69,5.12
						c4.23,1.79,8.47,3.57,12.72,5.34c8.1,3.37,16.22,6.7,24.34,10.06c8.87,3.67,17.63,7.68,26.58,11.18
						c8.11,3.16,22.47,3.51,27.9-4.35c1.95-2.84-5.19-3.78-6.71-3.93C881.65,550.11,874.68,549.76,872.71,552.61z"/>
				</g>
			</g>
			<g>
				<path class="st1" d="M344.78,570.76c14.27,30.6,41.32,57.26,77.37,64.27c31.46,6.11,64.86,12.82,93.29-1.34
					c30.2-15.05,61.42-58.47,69.52-89.91c8.1-31.44-5.48-51.26-6.94-83.59c-0.1-2.29-0.35-4.85-2.19-6.33
					c-3.03-2.41-7.55-0.09-10.65,2.24c-33.33,25.04-67.43,43.88-102.31,66.94c-34.88,23.07-65.69,27.58-110.31,41.14"/>
				<g>
					<path class="st1" d="M335.52,571.61c8.52,18.11,21.1,34.26,37.51,46.62c8.25,6.22,17.45,11.18,27.25,14.82
						c10.94,4.05,22.67,5.94,34.17,7.97c25.76,4.54,53.49,7.29,78.7-1.29c19.8-6.75,35.71-21.12,48.6-36.47
						c13.1-15.6,24.13-33.39,30.68-52.41c3.41-9.93,5.09-20.28,4.61-30.73c-0.46-10.19-2.83-20.15-5-30.1
						c-1.15-5.29-2.24-10.59-3.04-15.94c-0.42-2.78-0.76-5.57-1.01-8.37c-0.26-2.94-0.03-6.11-0.81-8.98
						c-1.9-7.03-11.65-7.54-17.91-6.89c-7.54,0.78-12.46,4.76-18.23,8.97c-20.95,15.27-43.13,28.9-65.19,42.67
						c-20.02,12.49-39.23,26.84-61.24,36.1c-19.62,8.25-40.51,13.38-61.03,19.16c-5.95,1.68-11.89,3.4-17.81,5.2
						c-0.86,0.26-2.81,1.08-2.81,2.26c0,1.2,1.95,1.96,2.81,2.26c4.13,1.43,9.43,1.26,13.59,0c20.41-6.19,41.24-11.15,61.46-17.88
						c9.52-3.17,18.87-6.84,27.88-11.16c9.68-4.64,18.61-10.27,27.54-16.08c20.64-13.45,41.84-26.09,62.49-39.51
						c10.31-6.7,20.48-13.6,30.36-20.86c2.21-1.62,4.52-3.17,6.71-4.8c-0.4,0.3,0.95-0.44,1.08-0.56c-1.62-0.05-3.24-0.1-4.86-0.15
						c-4.43-1.38-5.88-1.2-4.37,0.54c0.15,1.1,0.6,2.18,0.69,3.32c0.45,5.62,0.83,11.19,1.74,16.78
						c3.17,19.58,9.87,38.64,7.05,58.68c-2.61,18.5-11.78,35.92-22.32,51.44c-10.47,15.41-23.33,30.45-39.31,41
						c-8.2,5.42-17.21,9.12-27.07,10.76c-4.89,0.81-9.09,0.97-14.1,0.92c-4.68-0.05-10.21-0.5-15.74-1.17
						c-11.03-1.33-22.46-3.46-33.49-5.83c-8.64-1.85-17.41-5.48-25.21-10.03c-16.53-9.65-29.72-23.84-39.33-39.73
						c-2.4-3.96-4.56-8.05-6.52-12.22c-0.51-1.09-3.51-1.73-4.41-1.91c-2.36-0.48-5-0.55-7.41-0.32
						C340.22,567.87,334.09,568.58,335.52,571.61L335.52,571.61z"/>
				</g>
			</g>
			<g>
				<path class="st1" d="M431.06,653.18c-21.42,80.47-44.42,163.52-58.66,245.41c-2.82,16.19-4.45,35.42,8.43,46.37
					c9.45,8.05,23.4,8.49,36.1,8.5c25.17,0.02,49.05-0.19,74.22-0.17c21.42,0.02,47.16-1.02,60.62-16.82
					c11.94-14.01,10.45-34.07,8.14-51.96c-10.33-79.83-38.77-157.15-49.56-240.52c-25.54,8.89-50.83,18.02-77.13,6.8"/>
				<g>
					<path class="st1" d="M421.45,653.18c-14.53,54.56-29.43,109.05-42.06,164.05c-6.23,27.13-11.98,54.38-16.68,81.79
						c-1.74,10.15-3.09,20.9-0.49,31.03c2.73,10.63,10.04,18.31,20.75,22.32c12.48,4.68,26.51,4.29,39.7,4.29
						c14.83-0.01,29.66-0.09,44.48-0.13c13.45-0.04,26.92,0.24,40.36-0.4c11.63-0.55,23.68-1.96,34.53-6.16
						c10.41-4.03,19.37-10.64,24.12-20.53c4.88-10.16,5.43-21.45,4.67-32.44c-1.77-25.55-7.27-51.1-12.79-76.12
						c-11.55-52.31-26.54-103.95-35.14-156.82c-1.08-6.67-2.06-13.35-2.93-20.06c-0.28-2.16-4.31-2.69-5.91-2.92
						c-3.36-0.47-7.26-0.47-10.5,0.66c-11.15,3.88-22.35,7.98-34.08,10.07c-4.72,0.84-9.11,1.22-13.01,0.93
						c-5.77-0.43-11.15-1.99-16.46-4.19c-3.87-1.6-9.69-1.36-13.59,0c-3.55,1.23-3.25,3.16,0,4.51c14.72,6.11,31.28,7.28,47.07,5.13
						c15.09-2.06,29.4-6.97,43.65-11.93c-5.47-0.75-10.94-1.5-16.41-2.26c6.74,51.68,20.48,102.11,32.54,152.82
						c5.91,24.85,11.38,49.81,15.23,75.02c1.73,11.35,3.56,22.87,3.37,34.36c-0.18,10.75-2.42,21.67-9.94,30.07
						c-6.25,6.98-15.42,10.52-24.15,12.14c-1.22,0.22-2.43,0.44-3.66,0.61c1.2-0.17-0.34,0.04-0.49,0.05
						c-0.62,0.07-1.24,0.15-1.86,0.21c-2.81,0.3-5.63,0.5-8.44,0.64c1.59-0.08-1.51,0.05-2.12,0.07c-1.24,0.04-2.47,0.06-3.7,0.08
						c-2.97,0.04-5.94,0.04-8.91,0.04c-14.22-0.01-28.45,0.07-42.66,0.12c-7.33,0.02-14.67,0.05-21.99,0.05
						c-3.15,0-6.31,0.01-9.46-0.01c-1.49-0.01-2.98-0.04-4.47-0.08c-0.21-0.01-1.88-0.09-0.44-0.01c-0.83-0.04-1.66-0.1-2.49-0.16
						c-4.27-0.34-8.45-0.89-12.88-3.23c-4.59-2.43-8.08-6.13-10.43-10.57c-4.61-8.71-4.16-19.45-3.06-28.87
						c1.44-12.27,4.08-24.46,6.46-36.59c2.59-13.21,5.37-26.39,8.28-39.54c11.81-53.21,25.95-105.92,40.04-158.61
						c1.73-6.47,3.45-12.93,5.18-19.41C441.56,649.83,422.85,647.93,421.45,653.18L421.45,653.18z"/>
				</g>
			</g>
			<g>
				<path class="st1" d="M347.41,774.55c-2.41,2.82-0.69,7.2,2.1,9.68c2.79,2.48,8.34,8.48,10.99,11.1
					c15.54,15.35-19.97,60.62,5.11,78.78c10.08,7.3,22.43,0.16,33.89-4.98c14.86-6.67,22.46-22.3,28-36.99
					c4.51-11.96,8.45-25.19,3.91-37.14c-3.95-10.38-13.84-17.94-24.63-22.08c-10.79-4.14-22.54-5.32-34.11-6.47
					c-7.44-0.74-15.17-1.44-22.21,0.95s-13.15,8.86-12.28,15.9"/>
				<g>
					<path class="st1" d="M338.14,773.7c-4.04,5.65,1.32,10.46,5.21,14.38c3.25,3.28,7.52,6.67,9.85,10.62
						c3.71,6.28,1.39,15.35-0.1,21.93c-3.5,15.47-12.92,37.6-0.08,51.41c11.64,12.52,31.68,8.95,45.81,2.79
						c6.54-2.85,13.01-5.63,18.44-10.19c4.95-4.15,8.78-9.34,11.9-14.84c3.19-5.64,5.68-11.63,7.94-17.65
						c2.72-7.21,5.2-14.66,5.8-22.35c1.11-14.48-6.47-26.57-19.15-34.25c-15.36-9.3-34.73-11.05-52.45-12.53
						c-10.26-0.86-21.41-0.91-30.87,3.46c-6.72,3.1-12.47,9.39-11.85,16.83c0.4,4.81,19.57,4.28,19.22,0
						c-0.47-5.6,3.09-10.76,8.38-13.21c2.06-0.95,3.93-1.14,5.25-1.15c2.69-0.03,5.39,0.26,8.7,0.58
						c12.76,1.25,25.97,2.53,37.04,9.23c11.09,6.72,17.25,17.41,16.6,29.95c-0.65,12.46-5.84,25.4-11.59,36.52
						c-2.58,4.98-5.63,9.8-9.51,13.97c-3.97,4.26-8.59,6.97-13.93,9.43c-2.65,1.22-5.28,2.49-8,3.56c-1.63,0.64-3.29,1.24-4.99,1.69
						c-2.39,0.64,0.29,0.28,0.6,0.18c-0.62,0.19,0.52,0.01,0.52,0.07c0,0-1.37-0.64-1.63-0.8c-0.86-0.51-1.61-1.05-2.34-1.71
						c-1.42-1.28-2.65-2.74-3.66-4.34c-3.99-6.32-3.65-14.36-2.63-21.4c1.19-8.23,3.63-16.23,5.51-24.32
						c1.71-7.35,3.63-15.71,0.45-22.95c-1.69-3.85-5.3-6.73-8.21-9.75c-3.01-3.11-11.13-8.63-7.66-13.49
						c2.01-2.81-5.23-3.79-6.71-3.93C347.02,771.19,340.17,770.86,338.14,773.7L338.14,773.7z"/>
				</g>
			</g>
			<g>
				<path class="st1" d="M646.72,794.62c4.29,1.54,13.46,0.53,12.76-3.76s-9.62-10.98-14.14-11.71c-4.52-0.72-9.12,0.36-13.55,1.43
					c-16.4,3.96-34.21,8.82-43.87,21.99c-7.94,10.81-8.51,25.47-3.84,37.88c4.66,12.42,13.97,22.82,24.44,31.48
					c6.37,5.26,13.48,10.11,21.71,11.89c8.23,1.79,17.8-0.07,23.08-6.33c6.78-8.03,4.4-20.08-0.92-29.05s-13.14-16.59-17.27-26.11
					c-4.13-9.52,5.25-17.71,14.61-22.91"/>
				<g>
					<path class="st1" d="M639.92,796.88c6.77,2.16,14.68,2.2,21.54,0.39c4.56-1.2,9.31-3.79,6.77-8.76
						c-2.01-3.94-6.5-7.21-10.4-9.34c-7.27-3.95-16.07-3.96-24.13-2.72c-12.31,1.9-25.19,5.63-36.38,10.86
						c-10.78,5.03-19.57,12.86-23.53,23.79c-8.8,24.32,8.29,47.97,27.08,63.02c11.44,9.16,24.41,14.48,39.63,13.41
						c12.44-0.87,25.03-6.73,26.46-19.69c1.52-13.81-8.64-24.96-16.23-35.59c-3.66-5.14-8.66-11.58-6.4-18.11
						c2.04-5.9,8.37-10.04,13.7-13.06c3.64-2.06-1.55-3.99-3.45-4.36c-3.95-0.79-9.53-0.91-13.15,1.14
						c-7.57,4.29-17.95,11.54-16.85,21.12c0.54,4.7,3.75,9.38,6.41,13.25c3.06,4.47,6.54,8.67,9.6,13.15
						c5.22,7.61,9.58,17.61,6.2,26.74c-1.42,3.83-4.56,7.18-8.55,8.68c-1.04,0.39-1.05,0.38-1.97,0.53
						c1.26-0.21-0.22,0.03-0.42,0.02c1.87,0.1-0.05,0-0.19-0.04c0.33,0.11,1.67,0.49-0.18-0.08c0.16,0.05,1.08,0.2,0.05-0.04
						c-1.19-0.28-2.36-0.64-3.5-1.08c-9.42-3.65-17.63-11.28-24.31-18.37c-7.11-7.55-13.13-16.42-15.61-26.36
						c-2.35-9.41-1.93-20.02,2.97-28.66c4.59-8.1,12.47-13.68,21.26-17.23c5.08-2.05,10.39-3.62,15.71-4.99
						c2.2-0.57,4.97-1.25,7.4-1.79c0.7-0.16,1.61-0.16,2.26-0.46c0.99-0.46,0.58,0.09,0.26-0.12c-0.04-0.02-2.44-0.41-1.31-0.24
						c-2.67-0.43,0.04,0.33-0.71-0.15c3.49,2.19,7.86,4.29,9.62,8.21c0.24,0.53,0.46,1.1,0.33,1.69c-0.15,0.67-0.62,0.45-0.74,0.85
						c0.05-0.16,1.11-0.31,0.98-0.3c-0.97,0.05-0.56,0,0.15-0.01c0.75-0.01,1.44-0.01,2.18,0.01c1.74,0.03-0.49-0.29,1.06,0.2
						c-4.16-1.33-9.44-1.44-13.59,0C636.65,793.5,636.36,795.74,639.92,796.88L639.92,796.88z"/>
				</g>
			</g>
			<g>
				<g>
					<path class="st1" d="M470.45,1234.02c2.11,0,9.44-0.12,9.61-3.19c0.17-2.96-8.09-3.19-9.61-3.19c-2.11,0-9.44,0.12-9.61,3.19
						C460.68,1233.79,468.93,1234.02,470.45,1234.02L470.45,1234.02z"/>
				</g>
			</g>
			<g>
				<path class="st1" d="M464.74,1217.58c0-11.38-27.07-53.63-61.57-51.97c-34.5,1.65-58.46,39.43-65.06,65.78
					c-1.19,4.77-4.23,3.32,0,6.12c2.65,1.76,3.44,3.41,6.68,3.59c66.17,3.64,128.64,1.31,194.81,4.95
					c6.61,0.36,17.7,7.14,18.29,0.89c2.68-28.3-3.09-73.27-25.19-85.57c-13.62-7.59-27.38-6.25-40.34,2.32
					c-12.95,8.57-24.42,23.92-21.63,38.66"/>
				<g>
					<path class="st1" d="M474.35,1217.58c-0.09-5.01-2.96-10.21-5.39-14.51c-3.86-6.82-8.75-13.17-14.33-18.81
						c-14.47-14.65-33.41-23.19-54.84-21.69c-21.13,1.48-38.73,12.94-51.24,28.68c-5.79,7.29-10.56,15.33-14.28,23.75
						c-1.8,4.07-3.4,8.24-4.68,12.48c-0.51,1.67-0.74,3.59-1.54,5.14c-0.54,1.04-1.79,1.93-1.65,3.17c0.2,1.81,3.14,3.08,4.45,4.06
						c3.24,2.44,6.2,3.74,10.4,4.2c7.44,0.81,15.06,0.83,22.54,1.12c14.57,0.58,29.15,0.92,43.73,1.15
						c28.92,0.47,57.85,0.5,86.77,1.19c14.08,0.33,28.13,0.68,42.12,1.56c0.47,0.03,2.45,0.4,0.37-0.02
						c0.22,0.04,1.35,0.39,0.26,0.02c1.01,0.33,2.04,0.6,3.06,0.91c2.56,0.79,5.13,1.61,7.77,2.11c3.75,0.71,7.66,0.87,11.44,0.3
						c2.57-0.38,6.09-1.04,7.52-3.38c0.99-1.63,0.85-3.82,0.97-5.64c0.15-2.23,0.24-4.47,0.29-6.71c0.1-4.66-0.01-9.31-0.31-13.96
						c-0.61-9.47-1.98-18.94-4.47-28.14c-2.27-8.38-5.45-16.87-10.6-24.08c-5.86-8.21-14.51-13.3-24.59-15.76
						c-26.45-6.45-55.85,7.85-65.27,32.32c-1.9,4.93-2.59,10.07-1.71,15.26c0.85,5.03,19.88,3.88,19.22,0
						c-1.7-10.02,2.64-19.45,9.2-27.13c5.93-6.94,15.73-14.91,24.78-15.63c-0.46,0.04-1.41-0.1,0.57,0
						c-0.24-0.01-1.08-0.09,0.06,0.02c0.58,0.05,1.39,0.16,2.49,0.44c2.54,0.66,4.98,1.79,7.23,3.09c2.72,1.57,4.98,3.6,7.01,5.93
						c5.01,5.75,8.31,12.75,10.67,19.81c5.39,16.14,7.07,33.61,6.43,50.48c-0.07,1.83-0.17,3.66-0.31,5.48
						c-0.06,0.78-0.23,1.6-0.22,2.38c0,0.11-0.2,0.44-0.2,0.51c-1.9,2.35,0.94,1.93,8.48-1.26c0.35,0.05,0.7,0.1,1.04,0.15
						c-0.22,0.03-1.42-0.38-0.12,0.02c-0.49-0.15-0.98-0.28-1.47-0.43c-0.89-0.27-1.77-0.55-2.67-0.83
						c-2.47-0.76-4.97-1.5-7.52-1.93c-6.76-1.15-13.92-1-20.76-1.29c-6.5-0.28-12.99-0.51-19.48-0.71
						c-51.65-1.53-103.49-0.56-155.01-3.25c-0.83-0.04-1.71-0.2-2.54-0.13c-2.22,0.17,2.01,0.09,1.86,0.44
						c0.05-0.12-2.32-1.8-2.61-2.02c-0.53-0.39-1.27-1.11-1.81-1.29c0.65,0.21-0.65,1.2,0.31,0.33c2.43-2.19,2.74-7.11,3.69-10.04
						c2.44-7.46,5.85-14.64,9.94-21.41c8.26-13.69,20.33-27.68,36.26-33.34c1.01-0.36,2.03-0.69,3.06-0.98
						c-0.03,0.01,1.25-0.33,0.59-0.16c-0.76,0.19,0.86-0.18,1-0.21c0.93-0.19,1.86-0.38,2.81-0.51c-2.09,0.29,2.83-0.18,1.33-0.1
						c-1.7,0.09,3.16,0.09,1.36-0.01c-1.16-0.06,1.29,0.13,1.78,0.19c-1.85-0.2,0.9,0.18,1.46,0.29c0.49,0.1,0.99,0.21,1.48,0.33
						c-1.04-0.27,0.2,0.07,0.61,0.2c7.08,2.23,13.71,6.19,19.48,11.09c9.76,8.29,19.32,19.57,23.45,31.56
						c0.58,1.67,1.06,3.4,1.09,5.17C455.21,1222.18,474.43,1222.12,474.35,1217.58L474.35,1217.58z"/>
				</g>
			</g>
			<g>
				<path class="st1" d="M1038.53,647.16c-10.39-18.03-8.84-28.82-15.88-53.39c-1.08,34.64,4.54,65.78,14.13,99.22
					c1.12,3.91,2.89,8.39,6.98,9.56c4.22,1.2,11.58-0.64,14.84-3.46c6.89-5.97,13.2-8.53,17.26-16.5s2.08-23-3.49-30.1
					c-5.56-7.11-18.2-8.95-24.26-2.22"/>
				<g>
					<path class="st1" d="M1047.79,646.31c-9.29-16.3-10.53-34.91-15.54-52.55c-0.88-3.11-6.95-3.19-9.61-3.19
						c-1.96,0-9.52,0.13-9.61,3.19c-0.53,18.23,0.76,36.44,3.76,54.45c1.51,9.04,3.4,18.02,5.6,26.93
						c1.01,4.09,2.08,8.17,3.19,12.23c1.09,3.96,1.95,8.3,4.09,11.92c4.83,8.16,18.01,7.6,26.28,5.9c3.6-0.75,7.41-1.95,10.4-4.05
						c3.27-2.3,6.4-4.94,9.55-7.39c5.66-4.39,10.08-9.65,11.3-16.67c1.11-6.48,0.12-13.4-2.33-19.5
						c-3.04-7.59-9.26-12.12-17.63-13.83c-9.27-1.89-21.57-1.44-28.4,5.66c-2.45,2.54,5.61,3.82,6.71,3.93
						c3.42,0.32,9.23,0.47,11.82-2.23c0.83-0.86,1.6-1.4,2.66-1.96c-0.4,0.21,0.61-0.22,0.62-0.18c0.04,0.2-2.19,0.29-2.2,0.29
						c-0.51,0-1.21-0.21-1.69-0.16c1.08-0.11,0.92,0.27,0.39,0.06c1.31,0.51,2.32,0.89,3.51,1.75c3.88,2.82,5.71,7.75,6.72,12.11
						c1.22,5.26,1.55,11.02,0.11,16.27c-1.43,5.22-5.61,9.33-9.95,12.58c-2.5,1.87-4.93,3.81-7.41,5.7
						c-0.8,0.61-1.43,1.12-2.38,1.56c-0.54,0.25-1.13,0.4-1.69,0.6c0.35-0.08,0.27-0.07-0.24,0.04c-0.62,0.12-0.59,0.12,0.1,0.01
						c0.71,0.28,3.63,0.6,4,0.36c0.63-0.39,0.67,0.77-0.28-0.56c-0.73-1.02-1.48-1.95-2.02-3.09c-1.44-3.03-2.1-6.46-2.97-9.66
						c-3.93-14.34-7.22-28.86-9.42-43.54c-2.45-16.4-3.47-32.96-2.98-49.51c-6.41,0-12.81,0-19.22,0
						c5.19,18.28,6.59,37.34,16.23,54.24C1031.65,652.21,1050.1,650.36,1047.79,646.31L1047.79,646.31z"/>
				</g>
			</g>
		</g>
		<g id="Ebene_14">
			<g class="st6">
				<path class="st7" d="M451.18,582.4c3.16-5.22-0.85-12.51-6.89-14.33s-12.85,0.89-17.12,5.34c-4.27,4.45-6.45,10.34-8,16.18
					c-2.38,8.98-3.13,19.58,3.44,26.42c8.61,8.95,26.04,5.11,32.42-5.39c6.38-10.5,3.38-24.32-4.07-34.16"/>
			</g>
			<g class="st6">
				<path class="st7" d="M540.2,598.39c7.75,5,6.9,18.05-1.44,22.11c-8.34,4.06-20.01-2.91-19.77-11.79s12.28-15.27,20.38-10.81"/>
			</g>
			<g class="st6">
				<path class="st7" d="M763.22,547.96c8.44,10.77,1.02,28.93-12.87,31.48c-13.89,2.55-27.93-11.66-24.34-24.64
					c3.59-12.98,23.17-18.84,33.95-10.14"/>
			</g>
			<g class="st6">
				<path class="st7" d="M887.34,555.57l-1.24-0.61c-1.38-0.63-2.82-1.03-4.28-1.26c-2.58,3.88-7.51,4.5-11.67,2.71
					c-0.32-0.14-0.63-0.27-0.95-0.41c-6.33,3.32-11.06,9.55-10.66,16.48c0.72,12.61,18.09,21.21,29.42,14.57
					C899.27,580.4,898.91,561.81,887.34,555.57z"/>
			</g>
			<g class="st6">
				<path class="st7" d="M1242.13,579.13c1.64-6.14-5.94-11.91-12.47-10.64c-6.53,1.27-11,7.39-12.28,13.61
					c-2.34,11.46,5.33,24.28,17.21,27.33c11.88,3.05,25.86-5.2,27.32-16.79c1.46-11.59-11.22-22.98-23.16-20.15"/>
			</g>
			<g class="st6">
				<path class="st7" d="M1123.03,573.51c7.45,8.92,1.63,24.5-10.08,26.99c-11.71,2.49-23.97-9.26-21.24-20.34
					c2.73-11.09,19.21-16.45,28.54-9.31"/>
			</g>
		</g>
		<g>
			<g>
				<path d="M516.03,398.99c-32.18-4.52-67.54-5.6-98.51,5.27c-31.41,11.03-56.44,37.61-70.93,65.65
					c-15.88,30.74-20.47,66.47-10.36,99.56c9.16,29.96,30.39,54.72,59.42,69.34c26.84,13.51,58.56,18.26,88.44,12.95
					c31.34-5.57,59.12-23,79.05-46.34c20.56-24.09,33.1-54.2,35.34-85.12c1.93-26.61-3.02-54.99-18.74-77.54
					c-12.92-18.54-32.46-31.67-53.66-40.55c-21.5-9.01-44.55-14.22-67.48-18.78c-5.47-1.09-10.96-2.14-16.43-3.2
					c-3.6-0.69-7.6,7.51-3.31,8.34c42.24,8.16,90.23,16.05,122.06,46.17c39.65,37.52,38.65,101.29,13.01,145.64
					c-14.62,25.28-37.7,46.41-66.14,57.15c-26.88,10.16-57.42,10.39-84.92,2.26c-27.93-8.26-52.97-25.42-68.02-49.43
					c-18.02-28.76-21.59-64.9-11.74-96.82c8.92-28.93,28.7-56.12,55.41-72.79c26.46-16.51,61.44-17.89,92.05-15.76
					c7.42,0.52,14.81,1.31,22.17,2.35C516.38,407.85,520.3,399.6,516.03,398.99L516.03,398.99z"/>
			</g>
		</g>
		<g>
			<g>
				<path d="M892.79,370.57c-41.03-10.03-84.67-5.66-122.24,13.08c-32.57,16.24-60.1,42.65-74.86,74.79
					c-6.58,14.32-10.43,30-10.08,45.67c0.31,13.92,3.06,28.16,7.74,41.34c7.91,22.3,22.54,42,42.99,55.49
					c18.95,12.49,41.82,19.09,64.73,20.51c23.67,1.47,47.77-2.32,69.78-10.62c22.58-8.52,43.2-21.66,59.14-39.17
					c16.35-17.97,27.09-40.33,30.19-63.92c4.04-30.78-3.61-64.01-19.8-90.84c-8.51-14.12-20.19-26.29-34.11-35.78
					c-14.11-9.62-30.15-16.39-46.55-21.67c-8.65-2.79-17.43-5.19-26.26-7.38c-3.51-0.87-7.59,7.28-3.31,8.34
					c32.39,8.05,65.86,19.44,89.03,43.48c12.02,12.47,20.57,27.48,26.24,43.43c5.1,14.34,8.43,29.37,8.85,44.53
					c0.65,22.9-5.64,44.8-18.56,63.52c-11.76,17.04-29.59,31.4-49.4,41.2c-20.07,9.94-42.61,15.72-65.22,16.69
					c-22.19,0.95-44.78-2.58-64.84-11.83c-20.52-9.46-37.31-24.65-48.17-43.69c-6.18-10.83-10.29-22.67-12.79-34.73
					c-2.87-13.85-3.81-27.98-0.92-41.9c6.47-31.13,28.16-58.16,54.52-76.92c31.18-22.18,70.48-32.95,109.31-30.24
					c10.57,0.74,21.03,2.46,31.28,4.96C892.99,379.77,897.07,371.62,892.79,370.57L892.79,370.57z"/>
			</g>
		</g>
		<g>
			<g>
				<path d="M1241.37,417.11c-53.18-17.28-115.93,3.34-148.01,46.83c-32.98,44.7-30.03,109.33,6.2,151.62
					c36.5,42.6,102.85,55.51,155.48,34.51c53.25-21.25,86.83-77.7,83.15-131.75c-3.72-54.54-46.89-101.87-101.57-117.09
					c-6.75-1.88-13.64-3.22-20.62-4.05c-3.69-0.44-7.57,7.83-3.31,8.34c53.89,6.42,101.77,45.91,115.16,95.99
					c13.08,48.96-9.77,104.63-54.68,131.94c-45.99,27.97-110.26,23.07-152.09-9.82c-41.82-32.89-55.53-93.12-33.21-139.84
					c21.74-45.49,78.52-70.67,129.57-63.22c6.49,0.95,12.89,2.42,19.11,4.44C1240.39,426.25,1244.85,418.24,1241.37,417.11
					L1241.37,417.11z"/>
			</g>
		</g>
		<g>
			<g>
				<path d="M422.85,650.01c-32.85,24.01-62.44,52.06-87.76,83.22c-12.75,15.68-24.46,32.14-34.98,49.24
					c-9.16,14.9-22.5,37.27-5.2,51.69c6.99,5.82,16.23,7.97,25.28,6.69c9.03-1.28,17.59-4.51,26.58-5.93
					c3.54-0.56,6.52-8.97,1.63-8.2c-7.41,1.17-14.55,3.6-21.89,5.11c-7.66,1.57-14.43,1.53-21.51-2.08
					c-8.03-4.1-12.74-11.52-11.36-20.27c1.44-9.1,7.19-17.37,12-25.15c19.44-31.45,42.99-60.68,69.94-86.67
					c15.36-14.81,31.79-28.6,49.14-41.29c1.62-1.19,3.08-3.94,2.39-5.89C426.39,648.38,424.27,648.97,422.85,650.01L422.85,650.01z"
					/>
			</g>
		</g>
		<g>
			<g>
				<path d="M361.82,791.16c-4.82-1.16-9.68-2.22-14.43-3.63c-4.58-1.36-9.95-2.95-13.61-6.04c-3.7-3.12-1.33-7.66,1.88-10.42
					c5.5-4.72,13.36-5.48,20.46-5.3c8.01,0.21,16.11,1.12,24.06,2.07c8.46,1,16.97,2.41,25.03,5.11
					c12.79,4.3,25.11,12.07,31.27,23.91c6.61,12.72,4.79,27.86-0.32,40.73c-4.73,11.9-12.4,23.04-22.98,30.99
					c-10.6,7.96-25.41,13.01-38.77,8.9c-11.04-3.39-19.67-11.63-22.17-22.39c-2.6-11.15-0.24-23.16,2.66-34.05
					c2.31-8.66,5.57-17.01,8.67-25.44c0.55-1.5,0.82-4.1-1.39-4.44c-2.11-0.32-4.12,2.33-4.7,3.9
					c-7.24,19.65-15.75,40.86-12.54,62.04c1.92,12.65,10.24,22.88,22.9,27.66c14.58,5.49,30.75,1.1,43.23-7.04
					c13.29-8.67,22.94-21.49,29.37-35.37c6.55-14.15,9.94-31.1,4.75-46.13c-4.99-14.46-17.86-24.67-32.42-30.18
					c-8.23-3.11-16.95-4.9-25.69-6.08c-9.28-1.26-18.83-2.36-28.22-2.53c-9.37-0.17-18.77,1.6-25.77,7.91
					c-5.05,4.55-10.33,12.99-7.61,19.83c2.06,5.17,9.08,7.62,14.08,9.31c6.2,2.08,12.6,3.5,18.96,5.04
					C362.04,800.35,366.11,792.2,361.82,791.16L361.82,791.16z"/>
			</g>
		</g>
		<g>
			<g>
				<path d="M512.45,645.31c22.4,14.06,45.09,27.8,66.39,43.37c10.12,7.39,20.13,15.15,28.69,24.18
					c7.36,7.77,12.7,15.82,12.12,26.66c-0.85,15.87-9.79,31.13-17.58,44.8c-0.79,1.39-1.82,4.27,0.1,5.32
					c1.86,1.02,4.13-1.23,4.9-2.58c7.6-13.36,15.2-27.3,18.35-42.32c1.45-6.9,1.91-14.31-0.23-21.13c-1.41-4.5-4.06-8.61-7.03-12.33
					c-7.51-9.41-17.21-17.33-26.83-24.74c-11.6-8.95-23.8-17.2-36.13-25.21c-12.53-8.14-25.28-15.97-37.94-23.92
					C514.03,635.4,509.11,643.22,512.45,645.31L512.45,645.31z"/>
			</g>
		</g>
		<g>
			<g>
				<path class="st8" d="M636.23,812.55c7.5-0.4,13.85-3.42,20.22-6.98c5.67-3.17,10.44-7.73,11.65-14.1
					c1.01-5.3-1.22-11.34-6.24-14.14c-4.75-2.66-10.75-2.29-16.02-1.8c-27.06,2.52-60.11,8.05-71.86,34.88
					c-5.61,12.81-2.49,26.48,4.1,38.35c6.55,11.78,15.79,23.03,25.61,32.54c8.87,8.59,20.13,16.03,33.42,14.67
					c12-1.23,21.8-9.82,27.28-19.59c6.66-11.87,8.11-25.75,1.95-38.05c-6.43-12.85-17.96-22.51-27.15-33.51
					c-2.67-3.2-8.28,4.11-5.96,6.89c12.51,14.98,33.67,30.56,29.69,51.99c-1.6,8.6-6.64,17.07-14.87,21.38
					c-9.35,4.9-20.13,2.58-28.63-2.8c-9.42-5.97-16.64-14.79-23.46-23.24c-7.58-9.4-15.08-19.74-17.47-31.57
					c-2.2-10.84,2.01-20.74,10.71-27.84c9.29-7.57,21.29-10.92,33.12-12.97c6.67-1.15,13.43-2.01,20.17-2.74
					c4.77-0.51,10.6-1.06,14.86,1.5c4.48,2.69,5.48,8.38,1.08,11.41c-5.32,3.67-12.27,7.06-18.92,7.4c-2.26,0.12-3.96,1.98-4.7,3.9
					C634.4,809.25,633.94,812.67,636.23,812.55L636.23,812.55z"/>
			</g>
		</g>
		<g>
			<g>
				<path d="M784.16,617.45c-21.38,21.3-40.79,44.59-56.99,69.69c-8.1,12.55-15.36,25.64-21.18,39.29
					c-5.44,12.77-10.64,27.01-8.73,40.98c1.84,13.42,11.38,23.63,24.5,28.47c14.75,5.43,30.71,3.73,45.9,1.07
					c27.36-4.78,53.55-13.6,80.51-19.9c19.42-4.54,50.6-11.8,63.31,8.29c2.11,3.35,7.9-3.82,5.96-6.89
					c-10.64-16.82-33.45-15.78-51.27-12.9c-25.88,4.18-50.7,13.01-76.13,19c-14.49,3.42-29.82,6.86-44.82,6.6
					c-13.29-0.22-27.68-4.41-35.77-15.07c-8.9-11.74-5.66-26.97-1.1-39.66c4.66-12.97,10.96-25.37,18.06-37.29
					c16.71-28.02,37.92-53.66,61.28-76.94c1.27-1.26,2.49-4.22,1.21-5.81C787.5,614.63,785.25,616.37,784.16,617.45L784.16,617.45z"
					/>
			</g>
		</g>
		<g>
			<g>
				<path d="M864.03,616.44c25.04,16.08,48.6,34.82,68.75,56.24c9.71,10.33,18.72,21.41,25.76,33.57
					c3.55,6.14,6.42,12.56,8.64,19.24c2.68,8.09,4.61,17.06,2.11,25.42c-3.55,11.89-15.37,20.61-27.3,24.45
					c-10.2,3.28-21.08,3.78-31.76,3.24c-23.69-1.21-46.71-7.27-70.15-10.3c-21.48-2.78-46.73-3.22-61.04,15.03
					c-1.12,1.43-2.58,4.11-1.21,5.81c1.33,1.64,3.79,0.15,4.75-1.08c12.14-15.47,35.53-13.79,53.46-11.52
					c24.18,3.06,47.93,9.46,72.38,10.47c11.01,0.46,22.43-0.2,32.89-3.76c13.27-4.52,25.28-13.64,31.52-25.78
					c7.91-15.4,3.86-32.48-2.92-47.56c-5.77-12.83-14.05-24.51-23.28-35.31c-21.87-25.61-49.07-47.6-77.79-66.04
					C865.65,606.51,860.7,614.31,864.03,616.44L864.03,616.44z"/>
			</g>
		</g>
		<g>
			<g>
				<path d="M1174.92,654.49c-17.51,29.58-31.73,60.78-47.51,91.19c-3.86,7.44-7.81,14.85-11.94,22.16
					c-3.82,6.78-7.47,14.89-13.44,20.25c-5.59,5.01-14.4,6.32-19.98,0.58c-4.98-5.12-6.36-12.63-8-19.17
					c-5.23-20.93-10.46-41.87-15.69-62.8c-0.53-2.11-3-1.43-4.28-0.46c-1.7,1.31-2.91,3.82-2.39,5.89
					c4.94,19.77,9.88,39.54,14.82,59.31c1.85,7.4,3.24,15.5,7.81,21.94c4.38,6.17,11.83,8.89,19.4,6.7
					c8.81-2.55,14.72-9.58,19.27-16.79c4.65-7.37,8.83-15.03,12.95-22.68c8.85-16.4,17.07-33.1,25.4-49.74
					c9.07-18.09,18.2-36.18,28.55-53.65c0.81-1.38,1.81-4.27-0.1-5.32C1177.94,650.88,1175.7,653.15,1174.92,654.49L1174.92,654.49z
					"/>
			</g>
		</g>
		<g>
			<g>
				<path d="M1044.48,645.06c-2.13-12.2-3.25-24.52-5.32-36.72c-0.76-4.52-2.08-8.79-4.04-12.99c-1.79-3.82-3.93-7.99-7.53-10.58
					c-3.68-2.65-8.08-1.23-11.08,1.71c-3.91,3.84-5.09,9.38-5.02,14.56c0.1,7.29,1.33,14.69,2.03,21.95
					c0.75,7.65,1.49,15.3,2.24,22.95c1.28,13.12,1.7,26.63,4.6,39.54c2.17,9.65,6.7,20.08,16.52,24.76
					c11.74,5.59,25.65,1.11,34.86-6.81c9.32-8.02,16.06-19.32,19.11-30.86c3.11-11.76,1.39-25.73-10.36-32.64
					c-11.29-6.64-26.2-3.96-38.34-1.35c-3.49,0.75-6.41,9.23-1.63,8.2c9.71-2.08,20.73-4.24,30.46-1.08
					c9.8,3.18,14.73,11.72,14.33,21.24c-0.76,18.05-19.25,43.31-40.99,36.47c-9.18-2.89-13.96-11.35-16.35-19.68
					c-2.96-10.29-3.31-21.21-4.34-31.78c-1.29-13.29-2.59-26.57-3.89-39.86c-0.53-5.43-1.72-11.18-1.29-16.64
					c0.2-2.49,0.91-5.04,3.89-3.1c3.26,2.13,5.27,6.44,6.72,9.79c1.81,4.15,2.88,8.31,3.61,12.73c1.96,11.84,3.07,23.79,5.14,35.62
					c0.38,2.17,3.09,1.37,4.28,0.46C1043.89,649.57,1044.86,647.21,1044.48,645.06L1044.48,645.06z"/>
			</g>
		</g>
		<g>
			<g>
				<path d="M1263.19,658.55c31.9,33.18,63.8,66.36,95.7,99.54c12.68,13.19,27.56,28.24,24.93,47.58c-0.64,4.71-2.13,9.29-4.22,13.6
					c-1.71,3.53-3.7,6.76-5.61,8.98c-3.81,4.42-8.48,8.19-13.01,11.91c-11.46,9.39-23.86,17.77-35.1,27.39
					c-1.54,1.33-3.12,3.84-2.39,5.89c0.7,1.98,2.92,1.62,4.28,0.46c10.33-8.84,21.7-16.61,32.32-25.13
					c5.43-4.36,10.84-8.84,15.66-13.83c5.64-5.85,9.71-13.37,12.31-20.86c3.27-9.46,4.13-19.64,0.99-29.25
					c-2.95-9.03-8.81-16.89-15.18-24.03c-15.43-17.29-32.14-33.64-48.23-50.38c-18.82-19.58-37.65-39.16-56.47-58.74
					C1266.21,648.6,1260.71,655.96,1263.19,658.55L1263.19,658.55z"/>
			</g>
		</g>
		<g>
			<g>
				<path d="M405.47,965.32c0.01,52.67,0,105.33,0,158c0,13.58,0,27.16,0,40.75c0,2.01,1.76,2.77,3.53,1.93
					c2.01-0.94,3.4-3.51,3.4-5.59c-0.01-52.67,0-105.33,0-158c0-13.58,0-27.16,0-40.75c0-2.01-1.76-2.77-3.53-1.93
					C406.86,960.69,405.47,963.25,405.47,965.32L405.47,965.32z"/>
			</g>
		</g>
		<g>
			<g>
				<path d="M499.64,958.01c-1.56,52.06-0.7,104.26,1.08,156.31c0.45,13.35,1.01,26.7,1.74,40.04c0.11,1.98,1.69,2.8,3.53,1.93
					c1.93-0.91,3.51-3.54,3.4-5.59c-2.84-52.02-3.75-104.2-3.47-156.28c0.07-13.36,0.26-26.71,0.66-40.07
					c0.06-2.02-1.79-2.75-3.53-1.93C500.99,953.4,499.71,955.92,499.64,958.01L499.64,958.01z"/>
			</g>
		</g>
		<g>
			<g>
				<path d="M780.79,944.47c-2.95,24.99-3.78,50.26-4.65,75.37c-1.04,30.12-1.61,60.28-1.5,90.42c0.04,12.41,0.16,24.84,0.8,37.23
					c0.1,1.98,1.68,2.8,3.53,1.93c1.93-0.91,3.5-3.54,3.4-5.59c-1.27-24.8-0.93-49.7-0.58-74.51c0.42-29.9,1.24-59.81,2.89-89.67
					c0.67-12.28,1.41-24.59,2.85-36.81C788.23,936.92,781.26,940.53,780.79,944.47L780.79,944.47z"/>
			</g>
		</g>
		<g>
			<g>
				<path d="M873.87,945.48c-1.52,25.06-1.29,50.26-1.17,75.35c0.15,30.27,0.65,60.54,1.53,90.81c0.37,12.5,0.77,25,1.44,37.48
					c0.11,1.98,1.68,2.8,3.53,1.93c1.93-0.91,3.51-3.54,3.4-5.59c-1.36-25.1-1.87-50.24-2.34-75.36
					c-0.56-30.26-0.88-60.54-0.56-90.81c0.13-12.49,0.32-25.01,1.08-37.48c0.12-2.04-1.84-2.73-3.53-1.93
					C875.16,940.89,874,943.37,873.87,945.48L873.87,945.48z"/>
			</g>
		</g>
		<g>
			<g>
				<path d="M1184.71,964.32c-4.09,23.36-3.03,47.78-2.37,71.36c0.79,28.4,2.51,56.77,4.11,85.14c0.68,11.99,1.39,23.98,1.72,35.99
					c0.05,1.99,1.72,2.78,3.53,1.93c1.97-0.92,3.45-3.53,3.4-5.59c-0.64-23.73-2.42-47.45-3.68-71.15
					c-1.5-28.05-2.89-56.17-2.47-84.27c0.17-11.68,0.49-23.5,2.51-35.04c0.3-1.73-0.37-3.65-2.56-3.29
					C1186.76,959.76,1185.04,962.46,1184.71,964.32L1184.71,964.32z"/>
			</g>
		</g>
		<g>
			<g>
				<path d="M1266.78,964.32c-2.65,22.27-0.82,45.22,0.36,67.52c1.45,27.55,3.56,55.07,5.3,82.6c0.7,11.01,1.44,22.03,1.6,33.06
					c0.03,2,1.74,2.78,3.53,1.93c1.99-0.94,3.43-3.52,3.4-5.59c-0.31-22.24-2.34-44.49-3.85-66.68
					c-1.86-27.38-3.79-54.78-4.37-82.22c-0.22-10.62-0.43-22.26,0.76-32.26C1274.22,956.77,1267.24,960.38,1266.78,964.32
					L1266.78,964.32z"/>
			</g>
		</g>
		<g>
			<g>
				<path d="M334.76,1239.27c-1.11-14.36,1.45-29.11,8.98-41.74c7.64-12.82,20.09-22.18,34.89-26.59c14.97-4.46,31.7-4.2,46.33,1.36
					c14.11,5.37,25.13,15.29,31.79,28.21c7.84,15.21,9.48,32.76,8.75,49.45c-0.09,2.03,1.81,2.74,3.53,1.93
					c2.08-0.98,3.31-3.49,3.4-5.59c1.36-31.15-7.23-66.74-39.98-80.81c-15.8-6.8-34.17-7.74-50.78-3.15
					c-16.67,4.61-30.68,14.64-40.25,28.33c-10.66,15.23-14.97,34.14-13.58,52.25C328.25,1248.3,335.03,1242.77,334.76,1239.27
					L334.76,1239.27z"/>
			</g>
		</g>
		<g>
			<g>
				<path d="M329.65,1245.26c45.09,2.37,90.23,3.52,135.32,5.89c3.74,0.19,7.5-8.12,3.31-8.34c-45.09-2.37-90.23-3.52-135.32-5.89
					C329.22,1236.72,325.45,1245.04,329.65,1245.26L329.65,1245.26z"/>
			</g>
		</g>
		<g>
			<g>
				<path d="M329.65,1234.58c45.74,2.81,91.77,4.95,137.59,3.11c2.26-0.09,3.97-1.99,4.7-3.9c0.44-1.15,0.9-4.53-1.39-4.44
					c-45.83,1.85-91.86-0.3-137.59-3.11C329.23,1226.01,325.44,1234.32,329.65,1234.58L329.65,1234.58z"/>
			</g>
		</g>
		<g>
			<g>
				<path d="M467.03,1204.08c0.1-18.22,9.46-38.75,29.07-44.57c12.64-3.75,27.03-1.73,38.57,4.19c12.68,6.5,20.96,17.24,24.9,30.27
					c5.29,17.48,3.62,36.04,2.07,53.9c-0.18,2.05,1.87,2.71,3.53,1.93c2.15-1.01,3.22-3.46,3.4-5.59
					c2.67-30.64,4.7-69.73-27.5-87.57c-12.53-6.94-28.52-9.44-42.56-5.56c-12.15,3.36-21.84,11.55-28.29,21.72
					c-6.59,10.4-10.05,22.81-10.11,34.92c-0.01,2.01,1.76,2.77,3.53,1.93C465.65,1208.71,467.02,1206.15,467.03,1204.08
					L467.03,1204.08z"/>
			</g>
		</g>
		<g>
			<g>
				<path d="M464.97,1251.15c32.71,0.02,65.36,2.27,98.06,2.3c3.74,0.01,7.42-8.34,3.31-8.34c-32.7-0.03-65.36-2.27-98.06-2.3
					C464.53,1242.81,460.86,1251.15,464.97,1251.15L464.97,1251.15z"/>
			</g>
		</g>
		<g>
			<g>
				<path d="M470.09,1237.62c30.98-0.52,61.96,0.44,92.94-0.07c3.74-0.06,7.38-8.41,3.31-8.34c-30.98,0.52-61.96-0.44-92.94,0.07
					C469.66,1229.34,466.02,1237.69,470.09,1237.62L470.09,1237.62z"/>
			</g>
		</g>
		<g>
			<g>
				<path d="M495.94,1185.36c12.98,0,25.97,0,38.95,0c3.74,0,7.41-8.34,3.31-8.34c-12.98,0-25.97,0-38.95,0
					C495.5,1177.02,491.83,1185.36,495.94,1185.36L495.94,1185.36z"/>
			</g>
		</g>
		<g>
			<g>
				<path d="M495.94,1203.46c12.01,0.01,24.03,0.12,36.03,0.12c3.74,0,7.42-8.34,3.31-8.34c-12.01-0.01-24.03-0.12-36.03-0.12
					C495.5,1195.12,491.83,1203.46,495.94,1203.46L495.94,1203.46z"/>
			</g>
		</g>
		<g>
			<g>
				<path d="M362.63,1177.31c7.66,9.43,16.14,18.23,23.8,27.66c2.61,3.22,8.25-4.08,5.96-6.89c-7.66-9.43-16.14-18.23-23.8-27.66
					C365.98,1167.2,360.35,1174.5,362.63,1177.31L362.63,1177.31z"/>
			</g>
		</g>
		<g>
			<g>
				<path d="M346.88,1190.42c4.51,9.26,12.84,16.66,19.16,24.8c2.52,3.25,8.18-4.02,5.96-6.89c-3.22-4.14-6.71-8.07-10.08-12.1
					c-2.93-3.49-6.37-7.17-8.36-11.25C351.46,1180.68,345.37,1187.31,346.88,1190.42L346.88,1190.42z"/>
			</g>
		</g>
		<g>
			<g>
				<path d="M719.74,1224.67c-3.35-25.41,7.59-56.71,33.67-67.75c14.53-6.15,31.75-6.66,46.85-2.12c15.1,4.54,27.4,14.17,35.3,27.14
					c9.03,14.84,12.1,32.49,11.24,49.44c-0.1,2.03,1.83,2.74,3.53,1.93c2.09-0.98,3.29-3.48,3.4-5.59
					c1.65-32.33-11.91-68.24-46.36-80.08c-16.36-5.62-34.77-5.62-50.97,0.51c-15.11,5.71-26.31,16.59-33.61,30.28
					c-8.08,15.16-12.21,32.92-9.98,49.88C713.52,1233.7,720.2,1228.18,719.74,1224.67L719.74,1224.67z"/>
			</g>
		</g>
		<g>
			<g>
				<path d="M714.62,1230.66c44.67,0.01,89.32,1.52,133.99,1.53c3.74,0,7.42-8.34,3.31-8.34c-44.67-0.01-89.32-1.52-133.99-1.53
					C714.18,1222.32,710.51,1230.66,714.62,1230.66L714.62,1230.66z"/>
			</g>
		</g>
		<g>
			<g>
				<path d="M717.22,1214.33c43.52,1.2,87.05-1.32,130.57-0.12c3.74,0.1,7.46-8.22,3.31-8.34c-43.52-1.2-87.05,1.32-130.57,0.12
					C716.78,1205.89,713.06,1214.22,717.22,1214.33L717.22,1214.33z"/>
			</g>
		</g>
		<g>
			<g>
				<path d="M745.78,1160.22c6.99,8.59,14.27,16.97,21.26,25.56c2.62,3.22,8.25-4.08,5.96-6.89c-6.99-8.59-14.27-16.97-21.26-25.56
					C749.12,1150.11,743.49,1157.41,745.78,1160.22L745.78,1160.22z"/>
			</g>
		</g>
		<g>
			<g>
				<path d="M735.71,1169.05c6.44,9,13.9,17.28,20.7,26.02c2.53,3.25,8.19-4.03,5.96-6.89c-6.81-8.74-14.27-17.02-20.7-26.02
					C739.31,1158.86,733.6,1166.1,735.71,1169.05L735.71,1169.05z"/>
			</g>
		</g>
		<g>
			<g>
				<path d="M841.99,1175.04c10.6-18.49,34.84-27.52,56.21-23.52c10.25,1.91,18.76,6.97,25.03,14.89
					c6.48,8.18,10.41,17.94,13.1,27.77c3.04,11.14,4.48,22.65,4.51,34.15c0.01,2.01,1.76,2.77,3.53,1.93
					c2.01-0.94,3.4-3.51,3.4-5.59c-0.06-21.59-4.22-45.99-17.66-63.97c-6.66-8.9-15.72-14.73-26.93-17.19
					c-11.66-2.56-24.14-1.21-35.19,3c-13.07,4.99-24.23,14-30.98,25.78c-0.79,1.39-1.82,4.27,0.1,5.32
					C838.95,1178.64,841.22,1176.39,841.99,1175.04L841.99,1175.04z"/>
			</g>
		</g>
		<g>
			<g>
				<path d="M848.61,1233.73c31.32-1.56,62.7-1.51,94.03-3.07c2.26-0.12,3.96-1.98,4.7-3.9c0.44-1.14,0.9-4.55-1.39-4.44
					c-31.32,1.56-62.7,1.51-94.03,3.07c-2.26,0.12-3.96,1.98-4.7,3.9C846.78,1230.43,846.32,1233.85,848.61,1233.73L848.61,1233.73z
					"/>
			</g>
		</g>
		<g>
			<g>
				<path d="M865.32,1173.73c13.58-0.05,27.17,0.05,40.75,0c3.74-0.01,7.41-8.36,3.31-8.34c-13.58,0.05-27.17-0.05-40.75,0
					C864.88,1165.4,861.22,1173.75,865.32,1173.73L865.32,1173.73z"/>
			</g>
		</g>
		<g>
			<g>
				<path d="M865.32,1186.51c12.78,1,25.7-1,38.49,0c3.72,0.29,7.53-8.01,3.31-8.34c-12.78-1-25.7,1-38.49,0
					C864.9,1177.88,861.09,1186.18,865.32,1186.51L865.32,1186.51z"/>
			</g>
		</g>
		<g>
			<g>
				<path d="M851.44,1220.62c29.73-0.05,59.4-4.04,89.15-2.8c3.74,0.16,7.48-8.17,3.31-8.34c-29.74-1.24-59.42,2.74-89.15,2.8
					C851.01,1212.28,847.34,1220.62,851.44,1220.62L851.44,1220.62z"/>
			</g>
		</g>
		<g>
			<g>
				<path d="M1107.98,1227.74c0.53-12.49,5.3-25.58,12.52-35.99c8.34-12.05,23.69-18.91,37.73-23.15
					c14.76-4.45,30.9-7.06,46.28-4.19c14.31,2.66,26.01,11.1,32.04,23.76c6.7,14.07,6.93,30.22,6.91,45.38
					c0,2.01,1.76,2.77,3.53,1.93c2.01-0.95,3.4-3.51,3.4-5.59c0.03-14.82-0.33-30.38-5.96-44.4c-5.75-14.28-17.16-24.62-32.82-28.6
					c-16.34-4.15-34.25-1.53-50.17,3.05c-15.97,4.6-33.06,12.3-43.21,25.35c-10.12,13.02-16.48,29.9-17.16,46.09
					c-0.08,2.03,1.81,2.74,3.53,1.93C1106.66,1232.35,1107.89,1229.83,1107.98,1227.74L1107.98,1227.74z"/>
			</g>
		</g>
		<g>
			<g>
				<path d="M1102.86,1233.73c37.32,1.53,74.7,0.83,112.04,1.37c10.12,0.15,20.25,0.38,30.37,0.79c3.74,0.15,7.48-8.17,3.31-8.34
					c-37.32-1.53-74.7-0.83-112.04-1.37c-10.12-0.15-20.25-0.38-30.37-0.79C1102.43,1225.24,1098.69,1233.56,1102.86,1233.73
					L1102.86,1233.73z"/>
			</g>
		</g>
		<g>
			<g>
				<path d="M1106.12,1223.68c47.11,0,94.22,0,141.33,0c3.74,0,7.41-8.34,3.31-8.34c-47.11,0-94.22,0-141.33,0
					C1105.68,1215.33,1102.01,1223.68,1106.12,1223.68L1106.12,1223.68z"/>
			</g>
		</g>
		<g>
			<g>
				<path d="M1155.43,1180.16c5.98,5.15,11.95,10.31,17.93,15.46c2.68,2.32,7.82-5.29,4.81-7.9c-5.98-5.15-11.95-10.31-17.93-15.46
					C1157.55,1169.96,1152.42,1177.57,1155.43,1180.16L1155.43,1180.16z"/>
			</g>
		</g>
		<g>
			<g>
				<path d="M1142.39,1189.44c5.43,4.64,10.87,9.28,16.3,13.91c2.7,2.31,7.84-5.31,4.81-7.9c-5.43-4.64-10.87-9.28-16.3-13.91
					C1144.5,1179.24,1139.37,1186.85,1142.39,1189.44L1142.39,1189.44z"/>
			</g>
		</g>
		<g>
			<g>
				<path d="M1241.75,1181.27c7.03-16.96,25.93-30.76,45.71-27.23c20.74,3.7,36.08,21.63,39.95,40.62
					c2.39,11.71,1.6,23.93,0.28,35.72c-0.66,5.93,6.3,2.32,6.74-1.62c2.56-22.98,2.98-47.99-14.11-66.37
					c-7.53-8.1-17.41-14.26-28.64-16.51c-10.77-2.16-21.56,0.36-30.79,5.87c-11.4,6.8-20.31,17.12-25.23,28.99
					c-0.61,1.48-0.78,4.11,1.39,4.44C1239.21,1185.5,1241.1,1182.82,1241.75,1181.27L1241.75,1181.27z"/>
			</g>
		</g>
		<g>
			<g>
				<path d="M1247.45,1236.44c27.31-1.15,54.64-1.56,81.95-2.71c2.26-0.1,3.97-1.99,4.7-3.9c0.44-1.15,0.9-4.53-1.39-4.44
					c-27.31,1.15-54.64,1.56-81.95,2.71c-2.26,0.1-3.97,1.99-4.7,3.9C1245.62,1233.16,1245.16,1236.54,1247.45,1236.44
					L1247.45,1236.44z"/>
			</g>
		</g>
		<g>
			<g>
				<path d="M1249.29,1223.68c26.7-0.67,53.41,0.67,80.11,0c3.74-0.1,7.36-8.44,3.31-8.34c-26.7,0.67-53.41-0.67-80.11,0
					C1248.86,1215.43,1245.23,1223.78,1249.29,1223.68L1249.29,1223.68z"/>
			</g>
		</g>
		<g>
			<g>
				<path d="M1260.23,1177.27c12.44-0.02,24.89-0.73,37.3-1.52c2.26-0.15,3.95-1.96,4.7-3.9c0.43-1.11,0.9-4.59-1.39-4.44
					c-12.41,0.79-24.86,1.5-37.3,1.52C1259.79,1168.93,1256.12,1177.28,1260.23,1177.27L1260.23,1177.27z"/>
			</g>
		</g>
		<g>
			<g>
				<path d="M1262.95,1189.59c10.8-1.06,23.83-0.4,35.42-1.54c3.56-0.35,6.61-8.69,1.63-8.2c-10.8,1.06-23.83,0.4-35.42,1.54
					C1261.01,1181.75,1257.97,1190.08,1262.95,1189.59L1262.95,1189.59z"/>
			</g>
		</g>
		<g>
			<g>
				<path d="M394.16,764.12c7.5-39.42,18.91-78.68,35.96-115.39c0.68-1.47,0.72-4.11-1.39-4.44c-2.22-0.34-3.99,2.36-4.7,3.9
					c-17.36,37.36-28.97,77.43-36.61,117.55c-0.33,1.73,0.39,3.65,2.56,3.29C392.14,768.67,393.81,765.98,394.16,764.12
					L394.16,764.12z"/>
			</g>
		</g>
		<g>
			<g>
				<path d="M362.57,878.42c-3,9-5.76,18.15-7.18,27.5c-1.2,7.9-1.77,16.48,0.96,24.17c5.57,15.7,21.84,25.24,38.05,28.97
					c10.16,2.34,20.68,2.7,31.09,2.65c11.19-0.06,22.38-0.37,33.57-0.58c11.18-0.21,22.36-0.41,33.54-0.61
					c9.74-0.18,19.55-0.16,29.23-1.29c17.42-2.03,33.39-9.56,41.86-24.73c7.7-13.78,8.47-29.94,7.07-45.18
					c-1.7-18.4-5.77-36.7-9.11-54.87c-3.74-20.31-7.65-40.6-11.78-60.84c-8.21-40.27-17.25-80.39-27.72-120.18
					c-1.3-4.94-2.62-9.86-3.96-14.78c-0.57-2.09-2.97-1.46-4.28-0.46c-1.67,1.28-2.95,3.84-2.39,5.89
					c10.23,37.5,19.12,75.31,27.17,113.28c8.07,38.04,15.31,76.23,22.03,114.5c4.53,25.78,10.8,65.14-22.43,76.08
					c-8.29,2.73-17.12,3.54-25.84,3.87c-10.15,0.39-20.32,0.43-30.47,0.62c-20.84,0.38-41.84,1.51-62.67,0.83
					c-17.5-0.58-36.43-4.11-48.76-16.94c-5.29-5.5-8.61-12.11-9.1-19.57c-0.55-8.5,1.22-17.04,3.4-25.24
					c1.11-4.22,2.43-8.39,3.81-12.55c0.5-1.51,0.85-4.1-1.39-4.44C365.19,874.2,363.09,876.85,362.57,878.42L362.57,878.42z"/>
			</g>
		</g>
		<g>
			<g>
				<path d="M782.56,620.63c-16.42,56.82-30.29,114.29-41.51,172.24c-5.27,27.23-10.71,54.69-14.02,82.21
					c-1.15,9.52-1.74,19.17-1.21,28.76c0.47,8.53,1.49,18.09,6.37,25.52c5.84,8.87,17.76,12.39,28.05,13.82
					c14.11,1.95,28.68,1.77,42.91,2.38c15.51,0.67,31.02,1.4,46.53,2.01c12.72,0.5,25.85,0.67,38.22-2.62
					c24.78-6.59,39.51-28.22,42.66-51.62c1.89-14.05-0.06-28.19-2.99-41.98c-3.12-14.68-6.88-29.27-10.39-43.87
					c-14.1-58.79-28.2-117.59-42.3-176.39c-1.7-7.11-3.41-14.2-5.11-21.31c-0.51-2.12-3.01-1.43-4.28-0.46
					c-1.71,1.31-2.89,3.8-2.39,5.89c13.58,56.62,27.17,113.25,40.74,169.87c3.41,14.2,6.82,28.41,10.22,42.61
					c3.27,13.64,7.02,27.29,9.07,41.16c3.24,22.01,0.87,50.09-21.38,62.91c-10.79,6.22-23.73,7.61-36.12,7.7
					c-14.06,0.1-28.16-0.92-42.2-1.53c-14.89-0.64-29.77-1.29-44.66-1.94c-11.4-0.5-23.86-1.02-33.71-7.13
					c-7.81-4.85-10.39-12.59-11.6-21.01c-1.35-9.3-1.08-18.86-0.33-28.2c0.88-10.83,2.88-21.57,4.63-32.29
					c2.3-14.06,4.75-28.11,7.36-42.13c10.36-55.68,23.15-110.96,38.33-165.63c1.91-6.88,3.86-13.75,5.84-20.62
					c0.5-1.73-0.51-3.63-2.56-3.29C784.44,616.11,783.1,618.78,782.56,620.63L782.56,620.63z"/>
			</g>
		</g>
		<g>
			<g>
				<path d="M1174.04,656.67c-16.46,57.18-30.9,114.88-43.25,172.99c-4.98,23.44-10.85,47.15-12.67,71.05
					c-0.77,10.1-0.76,20.61,1.98,30.47c2.68,9.61,8.62,17.02,17.68,22.11c10.71,6.01,23.42,8.1,35.57,9.7
					c15.4,2.02,30.89,3.39,46.41,4.1c15.01,0.69,30.13,0.95,45.14,0.19c12.64-0.65,25.7-2.41,36.74-8.69
					c20.47-11.63,27.5-34.25,28.5-55.62c0.53-11.37-0.53-22.73-1.85-34.02c-1.65-14.07-3.81-28.09-6.42-42.03
					c-10.66-56.95-28.63-112.46-49.17-166.83c-2.46-6.52-4.96-13.01-7.49-19.5c-1.71-4.39-7.93,2.22-6.67,5.44
					c20.33,52.16,38.72,105.17,51.11,159.58c6,26.37,10.87,53.18,13.07,80.1c1.53,18.76,2.01,41.85-11.32,57.27
					c-7.48,8.64-18.52,12.77-29.88,14.62c-13.38,2.18-27.3,1.87-40.82,1.68c-15.12-0.21-30.23-1.05-45.28-2.5
					c-13.2-1.28-26.83-2.46-39.61-6.04c-10.26-2.87-20.87-8.17-26.08-17.44c-4.46-7.94-5.13-17.66-5.1-26.48
					c0.08-21.77,5.55-43.49,9.94-64.74c11.53-55.83,24.97-111.3,40.31-166.29c1.93-6.92,3.9-13.84,5.88-20.74
					c0.5-1.73-0.51-3.63-2.56-3.29C1175.93,652.14,1174.58,654.81,1174.04,656.67L1174.04,656.67z"/>
			</g>
		</g>
		<g>
			<g>
				<path d="M458.8,502.44c0.19,0,0.37-0.3,0.56-0.3C459.17,502.13,458.98,502.44,458.8,502.44L458.8,502.44z"/>
			</g>
		</g>
		<g>
			<g>
				<path d="M500.74,536.69c-0.83,9.89-1.67,19.77-2.5,29.66c-0.35,4.21,18.81,4.89,19.22,0c0.83-9.89,1.67-19.77,2.5-29.66
					C520.32,532.49,501.15,531.81,500.74,536.69L500.74,536.69z"/>
			</g>
		</g>
		<g>
			<g>
				<path d="M530.13,539.06c-0.34,9.09-0.26,18.19-0.6,27.29c-0.16,4.4,19.05,4.73,19.22,0c0.34-9.09,0.26-18.19,0.6-27.29
					C549.51,534.66,530.31,534.33,530.13,539.06L530.13,539.06z"/>
			</g>
		</g>
		<g>
			<g>
				<path d="M438.05,594.89c21.39,23.69,61.47,28.39,90.28,15.15c3.93-1.81-1.83-4.04-3.45-4.36c-4.25-0.85-9.19-0.67-13.15,1.14
					c-2.45,1.12-5.05,2.04-7.68,2.72c-1.9,0.5-4.75,0.94-6.28,1.09c-0.74,0.07-1.49,0.13-2.23,0.17c-1.61,0.1,2.24,0.05-0.58,0
					c-0.74-0.01-1.49,0-2.24-0.01c-1.63-0.02,2.24,0.22-0.58-0.03c-0.74-0.07-1.49-0.12-2.24-0.19c-0.24-0.02-2.17-0.26-0.82-0.07
					c-1.48-0.21-2.95-0.49-4.41-0.81c-10.26-2.24-20.8-8.4-28.1-16.48c-2.48-2.75-8.42-2.55-11.82-2.23
					C443.54,591.08,435.74,592.34,438.05,594.89L438.05,594.89z"/>
			</g>
		</g>
		<g>
			<g>
				<path d="M784.36,499.9c-0.39,11.07-0.79,22.15-1.18,33.22c-0.15,4.41,19.05,4.73,19.22,0c0.39-11.07,0.79-22.15,1.18-33.22
					C803.74,495.5,784.53,495.17,784.36,499.9L784.36,499.9z"/>
			</g>
		</g>
		<g>
			<g>
				<path d="M829.62,502.38c-0.05,10.73-1.15,21.44-1.2,32.17c-0.02,4.52,19.2,4.63,19.22,0c0.05-10.73,1.15-21.44,1.2-32.17
					C848.87,497.86,829.65,497.76,829.62,502.38L829.62,502.38z"/>
			</g>
		</g>
		<g>
			<g>
				<path d="M748.26,565.8c28.39,20.17,66.88,26.14,101.25,19.46c9.74-1.9,19.09-4.95,28.04-9.04c3.93-1.8-1.84-4.04-3.45-4.36
					c-4.26-0.86-9.19-0.66-13.15,1.14c-7.85,3.59-16.02,5.96-24.53,7.35c-0.65,0.1-1.29,0.21-1.94,0.3c0.67-0.1,0.47-0.08-0.62,0.07
					c-0.97,0.11-1.95,0.22-2.93,0.32c-1.31,0.12-2.61,0.21-3.92,0.3c-2.2,0.15,0.65,0.02-1.38,0.06c-2.3,0.04-4.59,0.04-6.89-0.01
					c-1.18-0.04-1.31-0.05-0.4-0.01c-0.65-0.04-1.31-0.08-1.97-0.13c-1.15-0.09-2.29-0.18-3.43-0.3c-7.49-0.75-16.4-2.8-24.35-5.72
					c-8.51-3.12-16.46-7.46-23.76-12.65c-3.25-2.31-9.43-1.89-13.15-1.14C749.38,561.9,744.96,563.45,748.26,565.8L748.26,565.8z"/>
			</g>
		</g>
		<g>
			<g>
				<path d="M1100.59,508.19c-0.82,11.86-1.65,23.73-2.47,35.59c-0.29,4.27,18.89,4.84,19.22,0c0.82-11.86,1.65-23.73,2.47-35.59
					C1120.11,503.92,1100.93,503.35,1100.59,508.19L1100.59,508.19z"/>
			</g>
		</g>
		<g>
			<g>
				<path d="M1131.05,516.52c-2,11.88-1.58,23.87,1.25,35.59c1.24,5.16,20.07,3.54,19.22,0c-2.83-11.72-3.25-23.72-1.25-35.59
					C1150.92,512.7,1131.91,511.43,1131.05,516.52L1131.05,516.52z"/>
			</g>
		</g>
		<g>
			<g>
				<path d="M1113.58,588.19c31.11,15.8,70.51,17.71,103.25,5.2c-5.36-0.47-10.71-0.94-16.06-1.41c8.69,12.64,4.06,31.58-9.3,39.67
					c-3.02,1.83-6.92,3.24-9.55,3.61c0.72-0.1-2.95,0.2-1.04,0.13c-0.44,0.02-2.77-0.02-1.28,0.05c-2.57-0.13-2.88-0.17-5.24-0.8
					c-7.98-2.12-14.84-7.6-19.68-14.03c-5.95-7.91-8.96-17.31-9.3-26.98c-0.16-4.66-19.37-4.47-19.22,0
					c0.71,20.66,14.15,39.96,35.57,45.78c21.25,5.77,50.64,1.77,59.87-19.98c4.07-9.6,3.75-20.35-2.3-29.16
					c-1.19-1.73-4.85-2.05-6.71-2.23c-2.97-0.28-6.53-0.26-9.35,0.82c-6.21,2.37-12.55,4.13-19.15,5.2
					c-2.58,0.42-5.79,0.73-8.89,0.91c1.13-0.07-0.99,0.04-1.2,0.04c-0.9,0.02-1.79,0.04-2.68,0.04c-0.9,0-1.79-0.01-2.68-0.03
					c-0.2-0.01-2.33-0.1-1.2-0.04c-12.81-0.69-25.58-4.1-37.26-10.03c-3.82-1.95-8.99-1.98-13.15-1.14
					C1115.24,584.18,1109.73,586.24,1113.58,588.19L1113.58,588.19z"/>
			</g>
		</g>
		<g id="Ebene_5">
			<g>
				<g>
					<path d="M351.58,568.61c65.87-17.8,127.2-48.2,181.25-87.99c15.32-11.28,30.07-23.24,44.3-35.73c2.67-2.35-5.8-3.84-6.71-3.93
						c-3.7-0.35-8.89-0.35-11.82,2.23c-49.01,43.06-104.96,79.31-166.95,103.35c-17.52,6.8-35.45,12.64-53.65,17.56
						c-0.86,0.24-2.81,1.1-2.81,2.26c0,1.2,1.95,1.96,2.81,2.25C342.23,570.08,347.31,569.76,351.58,568.61L351.58,568.61z"/>
				</g>
			</g>
			<g>
				<g>
					<path d="M374.75,523.7c40.55-15.85,79.26-35.82,115.14-59.76c10.14-6.76,20.04-13.85,29.71-21.21
						c3.12-2.38-1.08-3.89-3.45-4.36c-3.45-0.69-10.09-1.19-13.15,1.14c-33.62,25.59-70.19,47.66-108.91,65.63
						c-10.81,5.02-21.8,9.69-32.93,14.04c-0.86,0.33-2.81,1.03-2.81,2.26c0,1.2,1.95,1.96,2.81,2.25
						C365.01,525.05,370.88,525.22,374.75,523.7L374.75,523.7z"/>
				</g>
			</g>
			<g>
				<g>
					<path d="M398.3,476.5c24.92-23.13,55.51-40.33,88.84-50.01c0.86-0.25,2.81-1.09,2.81-2.25c0-1.2-1.95-1.96-2.81-2.25
						c-4.18-1.45-9.39-1.22-13.59,0c-35.2,10.22-67.48,28.42-93.79,52.83c-2.6,2.41,5.74,3.84,6.71,3.93
						C390.09,479.07,395.48,479.12,398.3,476.5L398.3,476.5z"/>
				</g>
			</g>
			<g>
				<g>
					<path d="M336.82,488.4c-21.53-5.43-48.96-1.21-60.79,18.57c-9,15.06-5.93,33.64,9.4,43.71c13.52,8.89,31.73,9.74,47.56,8.81
						c1.83-0.11,8.3-0.98,6.71-3.93c-1.54-2.86-9.34-2.38-11.82-2.23c-1.93,0.12,1.17,0-0.73,0.04c-0.79,0.02-1.59,0.04-2.38,0.04
						c-0.77,0.01-1.54,0-2.31-0.01c-0.5-0.01-1.01-0.03-1.51-0.04c0.69,0.01,1.54,0.1,0.35,0.01c-1.4-0.12-2.8-0.24-4.2-0.38
						c-1.74-0.18,1.32,0.26-0.36-0.05c-0.74-0.13-1.49-0.26-2.22-0.4c-0.62-0.12-1.22-0.27-1.84-0.4c-1.11-0.23,1.25,0.35,0.17,0.05
						c-0.29-0.08-0.58-0.15-0.86-0.24c-1.2-0.36-2.38-0.74-3.56-1.17c-0.24-0.09-1.63-0.64-1.04-0.39c0.6,0.25-0.74-0.34-0.96-0.44
						c-1.08-0.52-2.14-1.08-3.16-1.7c-5.7-3.41-10.72-9.48-12.41-16.26c-1.66-6.64-0.81-14.14,2-20.14
						c1.54-3.29,3.59-6.36,6.07-9.08c2.79-3.07,4.64-4.56,8.33-6.64c1.02-0.58,2.07-1.09,3.14-1.58c0.65-0.3-0.37,0.16-0.41,0.18
						c0.29-0.12,0.59-0.24,0.89-0.35c0.53-0.19,1.06-0.39,1.6-0.57c0.54-0.18,1.1-0.32,1.64-0.51c1.19-0.41-1.49,0.28,0.22-0.05
						c0.58-0.11,1.16-0.23,1.74-0.35c2.15-0.46-1.11,0.05,0.26-0.06c0.61-0.05,1.22-0.12,1.83-0.18c2.11-0.21-1.72-0.02-0.14-0.01
						c0.64,0.01,1.28,0,1.92,0c2.15,0.01-1.63-0.18-0.03,0.01c0.67,0.07,1.34,0.12,2.01,0.19c2.11,0.21-1.44-0.3,0.63,0.1
						c1.52,0.29,3.03,0.6,4.53,0.97c3.65,0.92,9.93,1.05,13.15-1.14C343.69,490.44,338.89,488.92,336.82,488.4L336.82,488.4z"/>
				</g>
			</g>
			<g>
				<g>
					<path d="M336.66,503.59c-9.5-4.44-22.37-6.04-32.01-0.96c-6.61,3.48-9.63,10.7-10.01,17.58
						c-1.01,18.31,25.19,27.33,40.52,21.12c0.86-0.35,2.81-1.02,2.81-2.25c0-1.2-1.95-1.96-2.81-2.26c-3.82-1.33-9.77-1.55-13.59,0
						c-1.12,0.46-0.13,0.1,0.5,0.07c1.44-0.06,2.95,0.16,4.35,0.1c-0.51,0.02-0.98-0.32-0.22-0.02c-0.4-0.16-1.15-0.38-1.41-0.49
						c-1.79-0.77-3.75-2.07-5.26-3.45c-3.67-3.34-5.83-7.15-5.7-12.02c0.12-4.48,1.22-9.05,4.25-12.6c0.53-0.61,1.1-1.22,1.75-1.71
						c0.72-0.53,1.36-1.06,1.79-0.99c-0.49-0.09-1.49,0.24-2.04,0.26c-0.53,0.02-1.79-0.28-2.23-0.13c0.6-0.21,1.87,0.57,2.72,0.97
						c3.94,1.84,8.89,2,13.15,1.14C334.88,507.62,340.62,505.43,336.66,503.59L336.66,503.59z"/>
				</g>
			</g>
			<g>
				<g>
					<path d="M1102.01,472.46c25.78-0.25,51.32-6.61,73.22-19.68c-5.97-0.53-11.94-1.08-17.91-1.61
						c-3.86,11.99-7.72,23.97-11.58,35.95c-0.61,1.9,5.23,2.82,5.91,2.92c3.38,0.47,7.24,0.45,10.5-0.66
						c19.37-6.61,38.75-13.23,58.12-19.84c-5.47-0.75-10.94-1.5-16.41-2.25c0.1,14.42,0.2,28.84,0.29,43.26
						c0.02,2.35,5.55,2.94,7.05,3.08c3.22,0.3,8.1,0.44,10.85-1.46c12.45-8.59,24.89-17.18,37.34-25.77
						c-5.97-0.53-11.94-1.08-17.91-1.61c0.27,9.28,0.53,18.57,0.8,27.85c0.12,4.32,0.17,8.65,0.38,12.96
						c0.16,3.21,0.72,6.67,3.31,8.97c3.59,3.21,9.05,3.84,13.77,3.82c5.06-0.02,10.21-1.09,14.52-3.66
						c3.13-1.86,5.52-4.38,7.87-7.02c1.29-1.45,2.62-2.92,4.15-4.15c0.67-0.53,1.46-0.91,2.12-1.42c0.27-0.14,0.54-0.28,0.81-0.42
						c-2.61,0.93-5.36,0.96-8.25,0.1c-0.94-0.75-1.88-1.5-2.81-2.26c-2.72,16.75-2.6,34.65,1.94,51.12
						c2.02,7.34,6.11,12.92,14.22,14.7c6.89,1.52,20.41,1.95,24.13-5.49c-6.29-0.29-12.58-0.57-18.87-0.85c-1.86,7-3.72,14-5.59,21
						c-0.89,3.35,17.82,5.25,19.22,0c1.86-7,3.72-14,5.59-21c0.97-3.66-17.04-4.51-18.87-0.85c-0.33,0.65-0.94,1.2-1.22,1.83
						c-0.19,0.41-1.49,0.48,0.64,0.05c0.67-0.13,5.63,0.1,5.67,0.01c0.16-0.33,0.74,0.75,0.04-0.07c-0.21-0.24-0.79-0.55-1.04-0.77
						c-1.06-0.92-1.89-2.11-2.58-3.29c-2.95-5.04-3.63-11.55-4.45-17.16c-1.9-13.03-1.71-26.25,0.4-39.25
						c0.18-1.12-2.15-2.06-2.81-2.26c-9.21-2.69-19.5-1.67-26.8,4.56c-2.58,2.2-4.52,4.89-6.94,7.23c-1.08,1.04-2.24,1.9-3.56,2.66
						c-0.43,0.24-1.03,0.43-1.41,0.67c7.95-5.2,10.8,2.98,7.73-0.43c-1.96-2.18-1.69-5.76-1.76-8.44
						c-0.13-4.24-0.24-8.48-0.37-12.72c-0.25-8.68-0.5-17.36-0.75-26.04c-0.07-2.36-5.5-2.93-7.05-3.08
						c-3.22-0.3-8.1-0.44-10.85,1.46c-12.45,8.59-24.89,17.18-37.34,25.77c5.97,0.53,11.94,1.08,17.91,1.61
						c-0.1-14.42-0.2-28.84-0.29-43.26c-0.01-2.12-4.57-2.73-5.91-2.92c-3.38-0.47-7.24-0.45-10.5,0.66
						c-19.37,6.61-38.75,13.23-58.12,19.84c5.47,0.75,10.94,1.5,16.41,2.25c3.86-11.99,7.72-23.97,11.58-35.95
						c0.69-2.13-6.2-3-7.05-3.08c-3.39-0.32-7.87-0.32-10.85,1.46c-8.93,5.33-18.45,9.5-28.54,12.41
						c-9.28,2.67-19.37,4.02-28.07,4.1c-2.11,0.02-9.44,0.11-9.61,3.19C1092.24,472.22,1100.5,472.47,1102.01,472.46L1102.01,472.46
						z"/>
				</g>
			</g>
		</g>
		<g>
			<g>
				<path d="M1008.74,870.56c0.24,0,0.48-0.41,0.71-0.41C1009.21,870.15,1008.97,870.56,1008.74,870.56L1008.74,870.56z"/>
			</g>
		</g>
	</g>
</g>
</svg>
