<?xml version="1.0" encoding="utf-8"?>
<!-- Generator: Adobe Adobe Illustrator 24.2.0, SVG Export Plug-In . SVG Version: 6.00 Build 0)  -->
<svg version="1.1" id="Ebene_1" xmlns="http://www.w3.org/2000/svg" xmlns:xlink="http://www.w3.org/1999/xlink" x="0px" y="0px"
	 viewBox="0 0 1700.79 1700.79" style="enable-background:new 0 0 1700.79 1700.79;" xml:space="preserve">
<style type="text/css">
	.st0{fill:#5C636F;}
	.st1{fill:#99C052;}
	.st2{fill:#99C153;}
	.st3{fill:#D3E1EE;}
	.st4{fill:#D2E0ED;}
	.st5{fill:#FFFFFF;}
	.st6{fill:#FFFFFF;stroke:#FFFFFF;stroke-width:0.8659;stroke-linecap:round;stroke-linejoin:round;stroke-miterlimit:10;}
	.st7{opacity:0.2;fill:#E192B2;stroke:#E192B2;stroke-width:0.8141;stroke-miterlimit:10;enable-background:new    ;}
	.st8{opacity:0.0588;}
	.st9{opacity:0.149;}
	.st10{fill:#D2E1EA;}
</style>
<g id="Ebene_21">
	<g>
		<path class="st0" d="M143.04,253.6c-13.76,253.21-12.2,507.23,4.67,760.25c15.36-0.62,30.73-1.24,46.09-1.86
			c0.88-254.79,5.29-509.56,13.24-764.22c-20.9,0.79-41.81,1.56-62.7,2.35"/>
		<g>
			<path class="st0" d="M138.18,256.25c-5.35,98.83-8.41,197.78-9.11,296.74c-0.7,98.97,0.93,197.95,4.89,296.84
				c2.23,55.59,5.2,111.15,8.89,166.67c0.09,1.35,0.72,3.48,2.54,3.41c15.36-0.62,30.73-1.24,46.09-1.86
				c4.2-0.17,7.16-4.89,7.18-8.7c0.35-99.51,1.22-199.01,2.65-298.51c1.42-99.5,3.38-198.99,5.88-298.46
				c1.4-55.75,2.97-111.5,4.71-167.25c0.04-1.36-0.82-3.47-2.54-3.41c-20.9,0.79-41.81,1.56-62.7,2.35
				c-3.15,0.11-5.56,2.9-6.59,5.67c-0.63,1.69-1.26,6.57,1.95,6.44c20.9-0.79,41.81-1.56,62.7-2.35c-0.84-1.14-1.69-2.27-2.54-3.41
				c-3.1,99.46-5.67,198.94-7.7,298.43s-3.51,198.98-4.46,298.49c-0.53,55.77-0.89,111.54-1.09,167.31c2.39-2.9,4.78-5.81,7.18-8.7
				c-15.36,0.62-30.73,1.24-46.09,1.86c0.84,1.14,1.69,2.27,2.54,3.41c-6.57-98.76-10.84-197.67-12.76-296.62
				c-1.92-98.95-1.51-197.95,1.24-296.87c1.55-55.61,3.84-111.2,6.85-166.76c0.16-2.96-2.57-3.97-4.95-2.81
				C140.01,249.57,138.34,253.2,138.18,256.25L138.18,256.25z"/>
		</g>
	</g>
	<g>
		<path class="st0" d="M1515.33,241.02c-1.08,235.01-2.16,470.02-3.23,705.03c-0.08,17.12-6.7,49.32,10.73,49.32
			c18.02,0,25.56-3.3,44.29,3.12c6.94-255.68,10.06-511.45,9.38-767.22c-19.15,1.05-38.29,2.1-57.45,3.14"/>
		<g>
			<path class="st0" d="M1510.48,243.67c-0.52,114.57-1.05,229.14-1.57,343.7c-0.52,114.57-1.05,229.14-1.57,343.7
				c-0.05,11.43-0.28,22.74-0.99,34.13c-0.53,8.54-1.31,18.18,1.69,26.39c3.45,9.45,10.66,10.05,19.83,9.65
				c12.52-0.55,23.81-1.06,35.9,2.97c4.62,1.54,8.12-4.57,8.23-8.39c2.7-99.92,4.84-199.86,6.39-299.8
				c1.55-99.65,2.51-199.31,2.89-298.97c0.22-56.15,0.25-112.3,0.1-168.45c0-1.33-0.79-3.5-2.54-3.41
				c-19.15,1.05-38.29,2.1-57.45,3.14c-3.16,0.18-5.55,2.87-6.59,5.67c-0.61,1.65-1.26,6.62,1.95,6.44
				c19.15-1.05,38.29-2.1,57.45-3.14c-0.84-1.14-1.69-2.27-2.54-3.41c0.26,99.96-0.05,199.91-0.95,299.86
				c-0.9,99.66-2.37,199.31-4.42,298.95c-1.16,56.14-2.5,112.27-4.02,168.4c2.74-2.8,5.48-5.59,8.23-8.39
				c-10.35-3.45-20.14-4.63-31.02-4.01c-4.99,0.28-10.17,0.92-15.16,0.54c-2.93-0.23-4.99-1.67-6.35-4.22
				c-3.39-6.33-2.45-15.12-2.1-21.97c0.45-8.94,1.09-17.79,1.12-26.74c0.26-56.41,0.52-112.8,0.77-169.21
				c0.52-112.8,1.03-225.61,1.55-338.42c0.29-63.45,0.58-126.91,0.87-190.36c0.01-2.92-2.47-4.02-4.95-2.81
				C1512.41,236.93,1510.49,240.65,1510.48,243.67L1510.48,243.67z"/>
		</g>
	</g>
	<g>
		<path class="st0" d="M188.83,977.04c-8.53,1.64,4.21,23.59,10.69,29.28c6.48,5.68,16.05,5.91,24.73,5.81
			c429.85-4.48,859.72-8.95,1289.58-13.43c-2.11-16.82-4.22-33.63-6.33-50.45c-435.78,4.01-871.52,12.06-1307.14,24.17"/>
		<g>
			<path class="st0" d="M189.97,971.09c-13,3.83-8.47,18.93-3.99,27.3c2.55,4.77,5.63,9.68,9.77,13.3c6.6,5.77,15.72,6.5,24.17,6.51
				c46.12,0.11,92.27-0.95,138.39-1.43c93.12-0.97,186.24-1.94,279.36-2.91c93.12-0.97,186.24-1.94,279.36-2.91
				c93.57-0.97,187.12-1.95,280.69-2.92c93.12-0.97,186.24-1.94,279.36-2.91c11.47-0.12,22.95-0.24,34.42-0.36
				c3.86-0.04,7.64-5.02,7.18-8.7c-2.11-16.82-4.22-33.63-6.33-50.45c-0.17-1.39-0.66-3.42-2.54-3.41
				c-170.25,1.57-340.5,3.75-510.74,6.55c-170.23,2.8-340.47,6.22-510.67,10.26c-95.25,2.26-190.49,4.71-285.73,7.36
				c-5.25,0.15-10.32,12.27-4.64,12.11c170.2-4.72,340.4-8.84,510.63-12.33c170.22-3.5,340.46-6.36,510.71-8.62
				c95.26-1.26,190.54-2.33,285.8-3.2c-0.84-1.14-1.69-2.27-2.54-3.41c2.11,16.82,4.22,33.63,6.33,50.45
				c2.39-2.9,4.78-5.81,7.18-8.7c-89.59,0.94-179.18,1.86-268.77,2.8c-89.59,0.94-179.18,1.86-268.77,2.8s-179.18,1.86-268.77,2.8
				s-179.18,1.86-268.77,2.8c-44.57,0.47-89.15,0.93-133.73,1.39c-22.51,0.24-45.01,0.47-67.52,0.71c-9.32,0.1-19.7,1.34-28.8-1.15
				c-6.95-1.9-10.85-6.81-14.47-12.61c-1.57-2.52-3.02-5.12-4.12-7.86c-0.47-1.16-0.7-2.48-1.21-3.6c-0.19-0.41-0.1-0.99-0.31-1.38
				c-1.57-2.82,9.55-0.11-3.2,3.65C192.47,981.58,196.43,969.18,189.97,971.09L189.97,971.09z"/>
		</g>
	</g>
	<g>
		<path class="st0" d="M208.38,251.52c-1.36,10.15-2.71,20.3-4.07,30.46c421.79-18.03,858.64-28.84,1280.61-15.68
			c16.28,0.51,57.55,5.98,61.04-9.65c2.24-10,7.1-20.89-2.26-25.38c-9.36-4.5-67.01-3.95-77.43-4.04
			c-419.64-3.93-837.27,0.64-1259.22,16.91"/>
		<g>
			<path class="st0" d="M203.65,252.71c-1.36,10.15-2.71,20.3-4.07,30.46c-0.21,1.55-0.06,4.99,2.41,4.88
				c93.76-4,187.55-7.63,281.35-10.71c94.59-3.11,189.2-5.67,283.82-7.51c94.77-1.85,189.57-2.99,284.36-3.24
				c94.32-0.25,188.65,0.4,282.96,2.13c46.79,0.86,93.58,1.99,140.35,3.42c13.83,0.42,27.7,1.92,41.55,1.52
				c11.09-0.33,25-1.46,31.55-11.64c3.49-5.44,4.92-13.36,5.79-19.65c0.89-6.49-0.04-13.61-6.65-16.82
				c-8.34-4.04-20.34-3.28-29.35-3.66c-29.63-1.24-59.41-0.81-89.05-1.05c-95.27-0.77-190.56-1.09-285.83-0.94
				c-95.69,0.16-191.36,0.8-287.04,1.97c-95.8,1.17-191.6,2.86-287.38,5.11c-96.07,2.26-192.13,5.08-288.17,8.49
				c-23.63,0.84-47.25,1.71-70.88,2.62c-5.24,0.2-10.29,12.33-4.64,12.11c93.9-3.62,187.83-6.67,281.76-9.18
				c93.62-2.5,187.26-4.45,280.9-5.9c93.92-1.45,187.85-2.38,281.78-2.83c93.48-0.45,186.95-0.42,280.43,0.04
				c45.26,0.22,90.51,0.74,135.76,0.97c22.72,0.11,46.06-0.92,68.62,2.3c4.8,0.69,9.96,1.56,10.38,7.4c0.24,3.4-1.18,7.14-2.01,10.4
				c-0.83,3.2-0.1,3.3-2.14,4.61c-4.58,2.94-11.62,3.19-16.89,3.44c-6.96,0.34-13.95,0.06-20.91-0.33
				c-40.04-2.24-80.22-2.77-120.31-3.65c-92.43-2.03-184.88-2.97-277.32-3.04c-92.56-0.06-185.12,0.75-277.67,2.29
				c-92.52,1.53-185.03,3.77-277.52,6.57c-91.87,2.78-183.73,6.11-275.56,9.84c-22.47,0.91-44.93,1.85-67.4,2.81
				c0.8,1.62,1.61,3.25,2.41,4.88c1.36-10.15,2.71-20.3,4.07-30.46C214.25,241.75,204.42,247.01,203.65,252.71L203.65,252.71z"/>
		</g>
	</g>
	<g>
		<g>
			<path class="st0" d="M1543.65,968.63c5.25,0,10.4-12.11,4.64-12.11C1543.03,956.52,1537.88,968.63,1543.65,968.63L1543.65,968.63
				z"/>
		</g>
	</g>
	<g>
		<g>
			<path class="st0" d="M1564.08,1002.93c5.25,0,10.4-12.11,4.64-12.11C1563.47,990.81,1558.31,1002.93,1564.08,1002.93
				L1564.08,1002.93z"/>
		</g>
	</g>
	<g>
		<g>
			<path class="st0" d="M1553.86,976.16c5.25,0,10.4-12.11,4.64-12.11C1553.25,964.05,1548.1,976.16,1553.86,976.16L1553.86,976.16z
				"/>
		</g>
	</g>
</g>
<g id="Ebene_22">
	<g>
		<path class="st1" d="M207.04,313.41c0,221.83-3.74,426.75-13.03,649.17c431.32-11.1,877.12-16.8,1308.44-27.88
			c0-217.17,3.53-421.73,3.53-654.29c-433.35-14.71-859.53,0-1301.06,0"/>
		<g>
			<path class="st2" d="M202.19,316.06c-0.01,84.71-0.55,169.41-1.81,254.11c-1.24,83.24-3.18,166.47-5.84,249.68
				c-1.55,48.46-3.35,96.92-5.36,145.37c-0.05,1.38,0.83,3.45,2.54,3.41c169.92-4.36,339.86-7.86,509.79-11.17
				c170.9-3.33,341.8-6.46,512.69-10.08c95.32-2.02,190.64-4.19,285.96-6.64c4.19-0.11,7.18-4.93,7.18-8.7
				c0.01-83.43,0.53-166.87,1.19-250.3c0.66-84.81,1.45-169.62,1.9-254.43c0.27-49.86,0.43-99.71,0.44-149.56
				c0-1.46-0.78-3.35-2.54-3.41c-168.86-5.71-337.82-7.01-506.77-6.4c-168.57,0.61-337.13,3.06-505.69,4.74
				c-96.2,0.95-192.4,1.65-288.6,1.66c-5.25,0-10.4,12.11-4.64,12.11c170.88-0.01,341.75-2.23,512.62-4.11
				c168-1.84,336.04-3.32,504.05-1.78c94.82,0.87,189.62,2.69,284.39,5.9c-0.84-1.14-1.69-2.27-2.54-3.41
				c-0.01,87.09-0.51,174.19-1.19,261.27c-0.65,83.79-1.43,167.57-1.9,251.37c-0.27,47.22-0.43,94.43-0.44,141.65
				c2.39-2.9,4.78-5.81,7.18-8.7C1334.87,933,1164.94,936.49,995,939.8c-170.9,3.33-341.8,6.46-512.69,10.08
				c-95.32,2.02-190.64,4.19-285.96,6.64c0.84,1.14,1.69,2.27,2.54,3.41c3.53-84.82,6.37-169.67,8.45-254.53
				c2.03-83.18,3.34-166.37,4.01-249.57c0.39-48.36,0.57-96.71,0.57-145.07c0-2.99-2.45-3.92-4.95-2.81
				C204.11,309.21,202.19,313.13,202.19,316.06L202.19,316.06z"/>
		</g>
	</g>
</g>
<g id="Ebene_14">
	<g>
		<g>
			<path d="M132.9,246.79c-2.02,45.56-3.39,91.13-4.43,136.71c-1.21,52.63-1.98,105.27-2.41,157.91
				c-0.46,55.17-0.55,110.35-0.27,165.52c0.28,53.18,0.89,106.38,2,159.55c0.97,46.5,2.3,93,4.38,139.47
				c0.23,5.17,0.48,10.35,0.73,15.53c0.14,2.88,2.37,4.07,4.95,2.81c2.71-1.32,4.91-5.15,4.76-8.11
				c-2.22-45.54-3.64-91.11-4.7-136.7c-1.22-52.63-1.93-105.26-2.29-157.9c-0.38-55.17-0.37-110.35,0-165.52
				c0.35-53.19,1.04-106.38,2.16-159.56c0.98-46.5,2.26-93.01,4.17-139.49c0.22-5.18,0.43-10.35,0.66-15.54
				c0.13-2.95-2.55-3.98-4.95-2.81C134.75,240.1,133.03,243.75,132.9,246.79L132.9,246.79z"/>
		</g>
	</g>
	<g>
		<g>
			<path d="M202.6,286.46c169.46-6.88,339.04-10.81,508.62-12.7c170.52-1.9,341.06-1.73,511.58-0.26
				c94.68,0.81,189.35,2.04,284.02,3.54c5.25,0.08,10.44-12.02,4.64-12.11c-169.6-2.68-339.22-4.48-508.84-4.65
				c-170.51-0.18-341.04,1.27-511.52,5.16c-94.64,2.16-189.27,5.08-283.87,8.92C202,274.55,196.96,286.69,202.6,286.46L202.6,286.46
				z"/>
		</g>
	</g>
	<g>
		<g>
			<path d="M1504.29,273.62c-0.01,88.79-0.97,177.58-2.14,266.36c-1.16,88.2-2.54,176.39-3.4,264.59
				c-0.47,47.6-0.77,95.19-0.77,142.78c0,2.91,2.46,4.02,4.95,2.81c2.82-1.37,4.76-5.09,4.76-8.11
				c0.01-86.02,0.99-172.03,2.14-258.04c1.19-88.98,2.56-177.96,3.4-266.94c0.47-49.58,0.77-99.17,0.77-148.76
				c0-2.92-2.46-4.02-4.95-2.81C1506.23,266.88,1504.29,270.61,1504.29,273.62L1504.29,273.62z"/>
		</g>
	</g>
	<g>
		<g>
			<path d="M191.15,976.64c14.11,0,28.23-0.26,42.34-0.69c16-0.49,31.99-1.16,47.98-1.89c19.33-0.88,38.64-1.84,57.96-2.78
				c24.29-1.17,48.57-2.32,72.87-3.39c30.83-1.36,61.66-2.6,92.5-3.72c39.15-1.42,78.29-2.67,117.45-3.77
				c48.7-1.37,97.4-2.52,146.11-3.5c59.98-1.21,119.97-2.17,179.96-2.96c72.85-0.95,145.7-1.63,218.55-2.13
				c87.29-0.59,174.57-0.9,261.87-1.01c23.94-0.03,47.87-0.04,71.81-0.04c5.25,0,10.4-12.11,4.64-12.11
				c-91.1,0-182.19,0.2-273.28,0.69c-76.58,0.41-153.14,1.02-229.71,1.89c-62.96,0.72-125.92,1.62-188.88,2.78
				c-51.29,0.94-102.59,2.06-153.87,3.39c-41.2,1.08-82.41,2.3-123.61,3.72c-32.82,1.13-65.64,2.38-98.45,3.77
				c-25.73,1.09-51.46,2.27-77.19,3.5c-20.38,0.98-40.75,1.99-61.13,2.96c-16.6,0.79-33.21,1.54-49.82,2.13
				c-14.4,0.51-28.81,0.88-43.23,1.01c-3.4,0.03-6.8,0.04-10.2,0.04C190.54,964.53,185.39,976.64,191.15,976.64L191.15,976.64z"/>
		</g>
	</g>
	<g>
		<g>
			<path d="M200.07,283.05c-0.01,89.08-1.73,178.16-3.89,267.22c-2.15,88.73-4.65,177.44-6.15,266.18
				c-0.88,52.26-1.41,104.51-1.42,156.78c0,2.92,2.46,4.02,4.95,2.81c2.82-1.38,4.76-5.09,4.76-8.11
				c0.01-91.77,1.7-183.53,3.89-275.27c2.1-87.98,4.63-175.94,6.15-263.93c0.87-50.32,1.41-100.65,1.42-150.98
				c0-2.92-2.46-4.02-4.95-2.81C202.01,276.32,200.07,280.04,200.07,283.05L200.07,283.05z"/>
		</g>
	</g>
	<g>
		<g>
			<path d="M135.44,1024.9c187.75-1.84,375.5-4.62,563.24-7.33c187.34-2.71,374.68-5.35,562.03-6.91
				c103.97-0.86,207.95-1.39,311.93-1.39c5.25,0,10.4-12.11,4.64-12.11c-186.1,0.01-372.2,1.69-558.28,3.99
				c-187.82,2.32-375.61,5.28-563.43,7.86c-105.17,1.44-210.32,2.76-315.49,3.8C134.83,1012.83,129.7,1024.95,135.44,1024.9
				L135.44,1024.9z"/>
		</g>
	</g>
	<g>
		<g>
			<path d="M1570.11,226.52c5.15,102.15,6.23,204.45,5.7,306.7c-0.52,101.95-2.69,203.9-4.22,305.84
				c-0.84,55.59-1.47,111.2-1.48,166.8c0,2.92,2.46,4.02,4.95,2.81c2.82-1.38,4.76-5.09,4.76-8.11
				c0.01-99.77,2.03-199.54,3.65-299.3c1.66-102.62,2.97-205.27,1.61-307.91c-0.76-57.4-2.36-114.8-5.26-172.13
				c-0.14-2.88-2.36-4.07-4.95-2.81C1572.16,219.73,1569.96,223.55,1570.11,226.52L1570.11,226.52z"/>
		</g>
	</g>
	<g>
		<g>
			<path d="M135.44,250.2c92.68-5.44,185.44-9.51,278.22-12.54c93.67-3.06,187.37-5.08,281.07-6.39
				c94.07-1.32,188.15-1.93,282.23-2.15c93.9-0.22,187.8-0.05,281.7,0.19c93.15,0.24,186.31,0.55,279.47,0.62
				c11.51,0.01,23.01,0.01,34.52,0.01c5.25,0,10.4-12.11,4.64-12.11c-93.03,0-186.05-0.28-279.07-0.54
				c-93.84-0.26-187.67-0.47-281.51-0.34c-94.09,0.13-188.18,0.61-282.25,1.76c-93.78,1.15-187.56,2.96-281.31,5.76
				c-92.93,2.79-185.84,6.55-278.67,11.67c-11.46,0.64-22.93,1.29-34.39,1.96C134.85,238.39,129.84,250.53,135.44,250.2
				L135.44,250.2z"/>
		</g>
	</g>
</g>
<g id="Ebene_23">
	<g>
		<path class="st3" d="M385.12,114.04c2.98,91.77,5.96,183.53,8.94,275.3c166.91,0.37,333.84-8.24,499.79-25.77
			c-8.36-94.11-7.58-188.99,2.32-282.95c-171.43-1.99-343.01,8.64-512.83,31.77"/>
		<g>
			<path class="st4" d="M380.27,116.69c2.32,71.31,4.63,142.62,6.95,213.93c0.66,20.46,1.33,40.91,1.99,61.38
				c0.04,1.41,0.75,3.41,2.54,3.41c65.34,0.13,130.67-1.09,195.97-3.69c65.28-2.6,130.51-6.58,195.62-11.92
				c36.5-2.99,72.96-6.42,109.38-10.26c3.32-0.35,6.25-5.7,6-8.61c-6.42-72.75-7.47-145.94-3.01-218.84
				c1.28-20.91,3.01-41.8,5.19-62.64c0.17-1.67,0.1-4.85-2.41-4.88c-67.1-0.76-134.21,0.38-201.24,3.46
				c-66.83,3.07-133.57,8.06-200.1,14.93c-37.63,3.88-75.19,8.39-112.67,13.48c-4.99,0.68-9.2,12.84-2.28,11.91
				c66.37-9.02,133-16.17,199.79-21.36c66.3-5.16,132.76-8.41,199.24-9.79c37.53-0.78,75.08-0.94,112.61-0.51
				c-0.8-1.62-1.61-3.25-2.41-4.88c-7.72,73.72-10.04,147.93-6.65,221.97c0.95,20.84,2.37,41.66,4.2,62.44c2-2.87,4-5.74,6-8.61
				c-64.57,6.81-129.29,12.28-194.11,16.37c-64.91,4.1-129.9,6.85-194.92,8.24c-36.52,0.78-73.05,1.12-109.58,1.05
				c0.84,1.14,1.69,2.27,2.54,3.41c-2.32-71.31-4.63-142.62-6.95-213.93c-0.66-20.46-1.33-40.91-1.99-61.38
				c-0.09-2.89-2.4-4.05-4.95-2.81C382.28,109.92,380.17,113.7,380.27,116.69L380.27,116.69z"/>
		</g>
	</g>
</g>
<g id="Ebene_24">
	<g>
		<g>
			<path d="M430.33,140.68c-3.45,12.05,7.03,26.63,20.57,23.21c12.02-3.05,20.79-18.92,15.56-30.27c-1.12-2.45-3.22-2.52-5.38-1.09
				c-2.61,1.73-3.89,4.7-4.15,7.68c-1.1,12.67,10.57,24.66,23.75,22.06c13.27-2.61,21.75-17.34,19.7-29.87
				c-3.12,2.63-6.24,5.26-9.35,7.9c5.32,14.21,21.6,23.44,36.78,18.89c15.79-4.72,27.12-22.16,24.92-38.2
				c-1.06-7.8-10.41,0.2-9.71,5.3c1.45,10.63-5.32,20.42-16.51,21.79c-10.91,1.32-22.35-5.57-26.13-15.66
				c-1.08-2.88-3.98-2.27-6-0.66c-2.53,2.01-3.86,5.44-3.35,8.55c1.07,6.58-5.59,10.92-11.7,10.12c-7.57-1-13.32-8.14-12.69-15.51
				c-3.18,2.2-6.35,4.4-9.53,6.59c2.35,5.11,0.33,10.69-6.06,10.74c-6.91,0.05-13.13-7.4-11.26-13.93c0.72-2.52-0.72-5.27-3.58-4.78
				C432.96,134.1,431.1,137.98,430.33,140.68L430.33,140.68z"/>
		</g>
	</g>
	<g>
		<g>
			<path d="M614.34,143.9c6.5,8.39,18.04,12.28,28.29,8.6c10.49-3.77,18.02-13.54,19.88-24.23c-3.14,1.71-6.27,3.42-9.4,5.13
				c4.51,16.62,27.39,21.29,39.46,9.63c-1.83,0.13-3.67,0.26-5.5,0.39c6.2,9.96,19.3,14.19,30.27,9.64
				c11.45-4.76,19.07-17.43,18.32-29.54c-0.18-2.86-2.35-4.08-4.95-2.81c-2.69,1.31-4.95,5.16-4.76,8.11
				c0.44,7.03-3.97,12.64-11.16,13.81c-7.72,1.25-15.37-2.83-19.35-9.22c-1.21-1.94-4.24-0.83-5.5,0.39
				c-8.37,8.09-24.57,2.31-27.46-8.31c-1.73-6.38-8.91,2.3-9.4,5.13c-2.6,14.95-22.79,13.06-30.37,3.27
				C619.06,129.21,611.16,139.81,614.34,143.9L614.34,143.9z"/>
		</g>
	</g>
	<g>
		<g>
			<path d="M771.88,133.92c13.35,11.68,34.04,4.7,42.43-9.16c-2.72,0.65-5.45,1.31-8.18,1.96c3.39,13.96,19.12,23.3,33.17,18.32
				c14.24-5.05,23.05-21.22,20.13-35.63c-0.63-3.12-4.27-2.03-6-0.66c-2.46,1.95-3.98,5.49-3.35,8.55
				c1.71,8.44-4.45,16.14-13.13,16.93c-9.8,0.89-19.22-6.18-21.46-15.42c-1.2-4.96-6.89-0.16-8.18,1.96
				c-5.82,9.63-21.21,8.2-28.68,1.67C774.8,119.11,767.61,130.19,771.88,133.92L771.88,133.92z"/>
		</g>
	</g>
	<g>
		<g>
			<path d="M443.99,202.12c7.65,10.35,20.76,15.77,33.63,13.49c13.45-2.38,24.29-12.97,29-25.23c-2.98,1.18-5.97,2.37-8.95,3.56
				c3.42,11.62,13.75,20.91,26.24,21.96c13.11,1.11,25.02-6.56,31.73-17.19c-2.29,1.25-4.58,2.5-6.87,3.75
				c8.98,7.49,21.56,9.23,32.78,6.37c12.44-3.18,22.08-11.57,27.52-22.87c-2.82,1.54-5.63,3.07-8.45,4.61
				c8.28,9.94,21.2,15.04,34.19,13c12.77-2.01,23.95-11.22,29.51-22.49c-2.56,1.01-5.12,2.01-7.68,3.02
				c4.93,9.15,15.19,15.04,25.78,14.26c11.06-0.81,20.77-8.12,25.7-17.71c1.05-2.05,2.59-6.17-0.13-7.72
				c-2.57-1.46-5.85,1.77-6.87,3.75c-7.81,15.19-29.01,10.59-36.12-2.6c-1.87-3.46-6.86,1.34-7.68,3.02
				c-9.31,18.88-35.57,18.78-48.34,3.46c-3.08-3.7-7.3,2.22-8.45,4.61c-3.49,7.25-12.24,11.13-19.83,12.42
				c-9.02,1.53-18.19-0.77-25.18-6.59c-2.34-1.95-5.95,2.29-6.87,3.75c-10.76,17.05-36.67,8.13-41.62-8.7
				c-1.66-5.65-7.97,1.01-8.95,3.56c-7.52,19.54-34.71,17.45-45.73,2.52C448.85,187.38,440.89,197.93,443.99,202.12L443.99,202.12z"
				/>
		</g>
	</g>
	<g>
		<g>
			<path d="M791.21,192.06c8.54-3.97,17.07-7.94,25.6-11.91c-1.43-0.15-2.85-0.31-4.28-0.46c5.34,8.28,15.27,12.74,25.13,11.03
				c10.42-1.79,18.71-10.34,22.19-19.82c0.8-2.17,1.13-5.96-1.95-6.44c-2.98-0.47-5.76,3.4-6.59,5.67
				c-5.04,13.72-23.95,9.6-30.42-0.44c-0.99-1.54-2.92-1.09-4.28-0.46c-8.54,3.97-17.07,7.94-25.6,11.91
				C786.34,183.32,783.98,195.43,791.21,192.06L791.21,192.06z"/>
		</g>
	</g>
	<g>
		<g>
			<path d="M514.87,262.12c21.14,8.41,44.98-1.16,56.67-19.79c-2.72,0.65-5.45,1.31-8.18,1.96c5.09,13.52,18.66,23.37,33.63,22.39
				c15.46-1.02,28.63-12.39,33.62-26.51c-2.82,1.54-5.63,3.07-8.45,4.61c10.25,12.43,26.74,18.78,42.85,15.89
				c16.39-2.93,29.47-14.94,36.13-29.54c0.97-2.13,1.01-5.98-1.95-6.44c-3.12-0.49-5.57,3.43-6.59,5.67
				c-11.21,24.59-46.33,23.51-62.08,4.44c-2.94-3.56-7.54,2.03-8.45,4.61c-3.47,9.79-13.85,15.81-24.27,15.21
				c-11.05-0.64-21.24-8-25.09-18.2c-1.74-4.63-6.61-0.53-8.18,1.96c-8.57,13.66-28.27,18.12-42.93,12.3
				C516.37,248.57,509.96,260.17,514.87,262.12L514.87,262.12z"/>
		</g>
	</g>
	<g>
		<g>
			<path d="M745.78,241.91c16.4,10.3,38.49-1.25,43.97-18.29c-2.98,1.18-5.97,2.37-8.95,3.56c4.14,12.1,16.58,20.23,29.61,18.13
				c13.44-2.17,24.06-14.86,25.7-27.78c1.1-8.6-8.72-3.35-9.45,2.36c-1.03,8.13-8.18,13.73-16.5,13.67
				c-8.88-0.06-17.2-6.05-20.01-14.27c-1.84-5.38-8.02,0.69-8.95,3.56c-3.63,11.3-19.56,13.34-28.69,7.61
				C747.93,227.56,741.06,238.94,745.78,241.91L745.78,241.91z"/>
		</g>
	</g>
	<g>
		<g>
			<path d="M616.16,314.8c9.13,9.37,23.07,9.45,34.5,4.19c13.37-6.15,21.99-19.26,29.69-31.03c-2.79,0.22-5.57,0.44-8.36,0.66
				c-0.31,11.49,8.87,23.13,21.22,22.99c12.91-0.15,23.46-11.07,25.63-23.11c-2.96,2.06-5.94,4.12-8.9,6.18
				c22.88,21.43,62.2,16.82,80.77-7.89c1.56-2.08,3.63-5.96,1.7-8.44c-1.85-2.38-5.32-0.23-6.66,1.56
				c-15.2,20.24-49.17,21.89-67.45,4.78c-3.76-3.51-8.3,2.83-8.9,6.18c-1.2,6.66-9,9.7-15.25,8.27c-7.25-1.66-12.63-8.57-12.43-15.8
				c0.05-1.92-1.16-3.41-3.13-3.35c-2.29,0.06-4.12,2.32-5.23,4.02c-5.79,8.83-11.98,18.55-21.76,23.53
				c-8.4,4.28-20.19,4.33-27.07-2.74C620.26,300.43,612.61,311.15,616.16,314.8L616.16,314.8z"/>
		</g>
	</g>
</g>
<g id="Ebene_16">
	<g>
		<g>
			<path d="M376.78,107.31c0.98,75.81,3.68,151.59,4.88,227.4c0.32,20.71,0.54,41.42,0.54,62.12c0,2.91,2.46,4.02,4.95,2.81
				c2.82-1.37,4.76-5.1,4.76-8.11c-0.02-75.91-2.58-151.81-4.29-227.7c-0.46-20.6-0.87-41.21-1.13-61.82
				c-0.04-2.9-2.43-4.03-4.95-2.81C378.75,100.55,376.73,104.3,376.78,107.31L376.78,107.31z"/>
		</g>
	</g>
	<g>
		<g>
			<path d="M385.91,110.61c65.6-8.95,131.65-14.14,197.75-17.84c67.35-3.77,134.78-5.93,202.19-8.24
				c36.69-1.25,73.39-2.56,110.06-4.22c3.16-0.14,5.56-2.89,6.59-5.67c0.62-1.67,1.26-6.59-1.95-6.44
				c-66.62,3.02-133.29,4.86-199.92,7.36C633,78.09,565.36,81.22,497.9,86.86c-36.66,3.06-73.26,6.87-109.7,11.84
				C383.2,99.38,378.99,111.55,385.91,110.61L385.91,110.61z"/>
		</g>
	</g>
	<g>
		<g>
			<path d="M898.45,75.43c-7.29,76.79-4.94,153.88-5.95,230.88c-0.31,23.29-0.93,46.56-2.1,69.82c-0.14,2.95,2.56,3.97,4.95,2.81
				c2.93-1.43,4.61-5.06,4.76-8.11c3.89-77.56,0.86-155.22,3.67-232.79c0.78-21.69,2.06-43.37,4.11-64.98
				C908.71,64.45,898.99,69.67,898.45,75.43L898.45,75.43z"/>
		</g>
	</g>
	<g>
		<g>
			<path d="M384.73,399.61c66.52-0.56,132.99-3.53,199.41-7.03c66.17-3.48,132.32-7.49,198.53-10.18
				c36.74-1.49,73.49-2.56,110.26-2.88c5.25-0.04,10.38-12.16,4.64-12.11c-65.71,0.56-131.37,3.54-196.99,7
				c-66.4,3.5-132.77,7.5-199.21,10.18c-37.32,1.5-74.65,2.57-112.01,2.89C384.12,387.54,378.99,399.66,384.73,399.61L384.73,399.61
				z"/>
		</g>
	</g>
</g>
<g id="Ebene_20">
	<g>
		<path class="st5" d="M1008.21,424.01c-12.18,4.18-20.41,16.48-21.5,29.11c-1.09,12.63,4.2,25.25,12.46,34.99
			c9.44,11.12,23.45,19.11,38.18,18.97c14.74-0.14,29.6-9.67,33.39-23.67c3.3-12.19-1.77-24.92-7.08-36.39
			c-14.69-31.73-32.07-62.28-51.88-91.19c-4.82-7.03-13.41-14.84-20.73-10.36c-6.7,4.1-4.65,14.04-1.78,21.26
			c7.23,18.2,14.47,36.4,21.7,54.6"/>
		<g>
			<path class="st5" d="M1009.35,418.06c-13.38,4.94-22.7,16.53-26.24,29.99c-3.77,14.35,0.51,29.72,9.15,41.58
				c16.29,22.38,49.49,32.8,71.59,11.89c11.34-10.73,14.95-25.63,11.27-40.52c-1.98-7.99-5.6-15.49-9.1-22.92
				c-3.58-7.59-7.31-15.11-11.19-22.55c-7.83-15.03-16.29-29.75-25.32-44.12c-4.48-7.12-8.99-14.28-13.9-21.12
				c-3.67-5.12-8.89-10.65-15.42-11.95c-7.64-1.53-14.37,4.4-16.98,11c-2.6,6.54-1.36,13.86,1.01,20.28
				c6.89,18.7,14.74,37.13,22.1,55.66c2.52,6.36,11.19-3.26,9.35-7.9c-5.32-13.38-10.64-26.76-15.96-40.15
				c-2.33-5.85-5.01-11.69-6.9-17.69c-0.68-2.17-1.28-4.42-1.35-6.71c-0.07-2.35-0.35-2.41,1.8-2.62c5.12-0.51,10.05,4.99,12.81,8.5
				c4.23,5.41,7.84,11.41,11.55,17.18c7.12,11.05,13.87,22.32,20.28,33.78c6.67,11.94,12.95,24.09,18.81,36.43
				c5.31,11.17,13.13,25.43,9.42,38.12c-2.67,9.14-12.35,14.61-21.33,16.29c-11.38,2.13-23.1-2.16-32.18-8.77
				c-10.89-7.93-19.53-20.58-20.99-34c-1.24-11.48,3.9-23.51,15.44-27.77c3.03-1.12,5.32-3.98,5.87-7.13
				C1013.28,420.77,1012.44,416.92,1009.35,418.06L1009.35,418.06z"/>
		</g>
	</g>
	<g>
		<path class="st5" d="M509.95,413.31c7.92-15.2,1.28-36.09-14.05-44.14c-15.34-8.06-36.7-1.89-45.18,13.03s-2.57,36.02,12.46,44.6
			c15.03,8.58,36.61,3.16,45.61-11.46"/>
		<g>
			<path class="st5" d="M513.45,415.29c7-14.11,6.25-31.52-4.33-43.87c-10.39-12.11-27.31-14.63-41.82-8.69
				c-15.3,6.27-25.45,21.32-25.32,37.61c0.13,15.16,9.21,30.19,24.31,34.91c17.61,5.51,36.41-3.05,46.01-17.95
				c1.25-1.94,2.46-6.25-0.13-7.72c-2.7-1.54-5.66,1.87-6.87,3.75c-5.97,9.27-18.8,12.75-29.33,11.03
				c-11.9-1.94-20.68-11.29-23.44-22.58c-2.7-11.06,1.34-21.38,11.74-26.68c10.37-5.3,23.45-4.51,32.69,2.65
				c9.4,7.28,14.99,22.5,9.5,33.57c-1.02,2.07-2.61,6.16,0.13,7.72C509.12,420.48,512.46,417.29,513.45,415.29L513.45,415.29z"/>
		</g>
	</g>
</g>
<g id="Ebene_18">
	<g>
		<g>
			<path d="M686.99,805.56c-60.1-19.21-125.29-28.07-180.94-58.94c-24.13-13.39-46.22-32.19-56.23-58.26
				c-6.89-17.95-8.93-38.19-9.44-57.23c-0.52-19.45,1.55-38.77,5.23-57.86c8.83-45.85,24.47-90.06,31.24-136.37
				c0.37-2.51-0.48-5.31-3.58-4.78c-2.96,0.51-5.47,4.45-5.87,7.13c-6.18,42.26-19.51,82.77-28.74,124.37
				c-8.87,39.93-11.73,81.77-1.61,121.81c15.36,60.8,82.54,85.84,137.2,102.16c35.14,10.49,71.08,18.27,106.01,29.44
				C685.66,818.76,691.87,807.11,686.99,805.56L686.99,805.56z"/>
		</g>
	</g>
	<g>
		<g>
			<path d="M486.04,358.25c-19.81-2.28-38.41,10.5-46.34,27.88c-7.86,17.24-2.24,37.82,12.42,49.71
				c14.82,12.02,35.72,9.91,50.51-0.95c13.12-9.65,20.19-25.91,18.7-41.88c-1.75-18.77-14.56-31.79-33.21-35.45
				c-5.05-1-10.66,10.93-4.64,12.11c12.52,2.46,23.11,9.98,26.84,22.33c2.95,9.77,1.8,21.49-5.32,29.29
				c-9.33,10.2-25.77,13.76-38.44,7.91c-12.83-5.92-22.29-20.32-20.61-34.46c1.94-16.38,19.88-26.15,35.46-24.36
				C486.59,370.95,492.02,358.93,486.04,358.25L486.04,358.25z"/>
		</g>
	</g>
	<g>
		<g>
			<path d="M860.47,806.27c39.92-3.55,80.22-1.85,120.22-3.76c20.52-0.98,41.12-2.56,61.34-6.3c16.54-3.06,33.52-7.59,48.01-16.29
				c11.64-7,22.26-17.24,26.38-30.34c4.03-12.81,3.58-26.71,2.27-39.91c-3.62-36.47-14.12-72.32-24.73-107.33
				c-9.23-30.44-20.09-60.47-28.48-91.14c-0.61-2.25-1.2-4.5-1.73-6.77c-0.72-3.07-4.21-2.07-6-0.66c-2.4,1.91-4.06,5.53-3.35,8.55
				c6.46,27.52,16.65,54.34,25.09,81.31c10.92,34.86,21.63,70.17,27.49,106.24c2.15,13.21,3.94,27.79,2.41,40.73
				c-0.31,2.64-0.77,5.26-1.43,7.85c-0.35,1.37,0.07-0.1-0.25,0.87c-0.17,0.51-0.34,1.03-0.53,1.54c-0.19,0.49-0.4,0.98-0.58,1.47
				c-0.59,1.54,0.08-0.01-0.32,0.7c-2.7,4.76-6.22,8.61-11.06,12.34c-12.17,9.37-27.92,14-42.77,17.27
				c-18.93,4.18-38.34,6.07-57.67,7.23c-39.82,2.39-79.77,1.1-119.58,3.53c-4.15,0.26-8.29,0.57-12.43,0.94
				C857.76,794.8,853.47,806.88,860.47,806.27L860.47,806.27z"/>
		</g>
	</g>
	<g>
		<g>
			<path d="M1002.73,415.52c-11.88,10.81-25.99,21.62-26.43,38.93c-0.4,15.33,8.46,30.44,17.7,42.18
				c9.25,11.76,21.15,22.69,36.92,23.85c16.34,1.2,33-6.36,42.48-19.51c11.39-15.83,9.66-35.77,3.23-53.17
				c-7.07-19.13-18.16-37.33-28.84-54.68c-10.58-17.2-21.9-34.14-33.49-50.7c-3.7-5.29-8.82-11.84-15.98-12.07
				c-7.99-0.26-14.61,6.85-17.7,13.38c-7.94,16.76,0,37.05,6.91,52.8c7.89,17.96,17.65,35.56,29.84,51.08
				c3.67,4.68,11.56-5.92,8.36-10c-9-11.46-16.53-24.09-23.14-37.01c-6.46-12.62-13.06-26.57-15.04-40.71
				c-0.64-4.58-1.56-12.48,2.48-15.91c4.62-3.91,9.78,0.72,12.78,4.29c4.31,5.14,7.48,11.08,11.22,16.6
				c5.29,7.82,10.78,15.5,15.96,23.39c10.36,15.82,20.06,32.07,28.71,48.86c7.19,13.97,14.89,29.74,13.3,45.87
				c-1.38,14.03-13.36,22.57-26.74,24.92c-13.55,2.38-25.18-2.81-34.65-12.08c-10.37-10.13-19.87-23.5-23.49-37.59
				c-1.45-5.62-1.94-11.94,1.46-16.97c4.34-6.4,11.15-11.37,16.83-16.54c2.15-1.96,4.38-5.55,3.35-8.55
				C1007.75,413.33,1004.62,413.79,1002.73,415.52L1002.73,415.52z"/>
		</g>
	</g>
</g>
<g id="Ebene_8">
	<g>
		<path class="st5" d="M667.9,775.69c-13.16,121.4-58.68,231.23-88.02,346.85c-4.42,17.41,1.73,35.4-2.7,52.86
			c-13.37,52.7,51.61,83.96,89.03,87.69c63.85,6.36,131.42,7.67,195.1,0c38.68-4.66,140.72-49.9,110.73-96.66
			c-13.74-21.42-10.02-44.41-18.19-68.33c-31.45-91.97-62.89-183.95-94.33-275.92c-7.05-20.63-6.17-16.77,4.44-36.04
			c7.94-14.41,45.36-39.63,59.26-49.45c70.5-49.87,78.16-169.63,18.45-228.3c-68.33-67.13-110-89.37-197.74-76.87
			c-87.74,12.5-155.93,60.53-185.52,127.39c-33.35,75.39,30.84,199.16,107.8,240.05"/>
		<g>
			<path class="st5" d="M655.65,775.69c-11.05,100.79-45.27,196.63-73.44,293.59c-3.62,12.47-7.14,24.97-10.49,37.52
				c-3.28,12.3-6.13,23.71-5.69,36.51c0.2,5.9,0.67,11.79,0.59,17.7c-0.09,6.13-1.28,11.75-2.44,17.72
				c-1.52,7.81-1.38,15.89,0.68,23.59c8.33,31.14,41.46,50.31,70.77,59.19c19.84,6.02,40.63,7.07,61.23,8.49
				c26.88,1.85,53.85,2.8,80.79,2.52c27.34-0.28,54.72-1.73,81.9-4.79c14.72-1.66,28.85-5.1,42.77-10.11
				c15.49-5.57,30.62-12.53,44.64-21.09c12.51-7.64,25.02-16.83,33.75-28.64c7.25-9.82,11.48-22.13,7.31-34.03
				c-1.06-3.03-2.48-5.82-4.13-8.56c-3.26-5.42-5.84-10.92-7.57-17c-3.13-10.97-4-22.39-6.02-33.58
				c-2.28-12.62-6.88-24.58-11.02-36.7c-4.57-13.38-9.15-26.76-13.72-40.14c-8.77-25.64-17.53-51.29-26.3-76.92
				c-8.96-26.2-17.92-52.4-26.87-78.6c-4.38-12.82-8.77-25.64-13.15-38.46c-3.77-11.03-8.31-22.07-11.2-33.36
				c-1.65-6.44,0.43-10.42,3.65-16.03c4.13-7.19,7.98-13.21,14.03-18.99c12.4-11.84,26.73-21.73,40.77-31.57
				c13.45-9.43,25.8-19.46,35.79-32.54c10.23-13.38,17.8-28.57,23.09-44.45c10.78-32.37,11.72-68.28,2.09-101.04
				c-4.73-16.08-11.97-31.58-22.08-45.09c-11.73-15.65-27.36-28.96-42.15-41.74c-27.12-23.43-57.08-43.01-92.79-50.73
				c-39.91-8.63-83.67-4.39-122.93,5.41c-39.8,9.93-77.39,27.54-108.43,54.2c-13.94,11.99-26.33,25.74-36.52,40.95
				c-9.66,14.41-18.09,30.3-22.13,47.18c-8.13,33.91-0.48,69.97,12.19,101.83c13.8,34.7,35.08,67.19,62.37,93.14
				c12.21,11.6,25.74,22.01,40.67,30.01c4.84,2.6,11.49,2.61,16.77,1.51c2.31-0.48,9.26-3.15,4.39-5.76
				c-31.11-16.68-55.96-43.44-75.07-72.4c-19.7-29.88-34.36-63.95-38.81-99.46c-2.01-16.07-1.84-32.55,1.87-48.36
				c3.83-16.31,12.05-31.54,21.37-45.44c20.4-30.41,49.18-54.38,82.05-70.97c17.19-8.68,35.55-15.31,54.31-19.8
				c10.03-2.4,20.32-4.3,30.27-5.58c4.91-0.63,9.84-1.17,14.77-1.58c2.14-0.19,4.29-0.34,6.43-0.48c0.04,0,4.19-0.24,1.76-0.11
				c1.64-0.08,3.28-0.12,4.92-0.17c3.96-0.1,7.92-0.1,11.89,0.03c0.25,0.01,4.08,0.19,1.34,0.04c1.13,0.06,2.26,0.13,3.4,0.21
				c2.22,0.16,4.45,0.35,6.66,0.59c1.09,0.11,2.18,0.25,3.27,0.38c0.15,0.02,3.69,0.54,1.37,0.18c1.76,0.27,3.52,0.57,5.28,0.9
				c3.57,0.67,8.75,1.87,10.84,2.46c15.13,4.29,29.17,11.06,42.35,19.48c15.7,10.03,29.97,22,43.64,34.52
				c13.58,12.45,27.22,24.93,37.01,40.58c17.62,28.17,23.89,62.39,21.23,95.09c-2.65,32.61-14.45,64.94-36.52,89.77
				c-21.56,24.26-53.32,37.27-75.13,61.45c-4.9,5.43-8.36,12.09-11.73,18.5c-3.1,5.9-3.21,10.4-1.26,16.68
				c7.53,24.31,16.45,48.28,24.69,72.38c17.34,50.72,34.68,101.45,52.03,152.17c4.2,12.26,8.38,24.53,12.58,36.79
				c4.18,12.22,9.07,24.38,11.6,37.05c2.15,10.72,2.97,21.65,5.48,32.3c1.23,5.22,2.89,10.33,5.09,15.24
				c1.99,4.44,4.91,8.35,6.95,12.75c11.63,25.25-16.77,47.75-35.61,59.45c-13.01,8.09-26.84,14.64-41.21,19.87
				c-3.24,1.18-6.51,2.3-9.8,3.33c-1.41,0.44-2.84,0.87-4.26,1.28c-0.83,0.24-1.65,0.47-2.48,0.7c2.18-0.6-0.48,0.12-0.74,0.19
				c-2.72,0.67-5.44,1.3-8.2,1.8c-0.68,0.12-1.37,0.22-2.05,0.35c-2.4,0.47,2.7-0.27,0.33-0.04c-3.01,0.29-6.01,0.72-9.02,1.03
				c-50.24,5.41-101.03,5.24-151.4,1.54c-6.23-0.46-12.45-0.97-18.68-1.54c-3.37-0.31-6.75-0.6-10.11-0.96
				c-0.54-0.06-1.07-0.12-1.61-0.18c-3.21-0.32,0.75,0.22-1.23-0.16c-3.25-0.62-6.48-1.22-9.69-2c-2.92-0.72,1.02,0.3-0.73-0.19
				c-0.77-0.21-1.55-0.43-2.32-0.66c-2.21-0.65-4.4-1.36-6.57-2.12c-14.01-4.9-27.75-12.15-38.77-22.19
				c-11.05-10.06-19.46-22.99-20.72-38.02c-0.8-9.56,2.4-18.27,3.1-27.68c0.87-11.78-1.31-23.57-0.15-35.34
				c1.19-12.18,5.61-24.43,8.85-36.22c3.16-11.47,6.45-22.91,9.82-34.32c7.03-23.84,14.38-47.6,21.61-71.38
				c14.18-46.66,27.88-93.52,37.7-141.29c4.87-23.68,8.76-47.56,11.39-71.59C680.75,770.3,656.37,769.13,655.65,775.69
				L655.65,775.69z"/>
		</g>
	</g>
</g>
<g id="Ebene_9">
	<g>
		<path class="st5" d="M590.14,1617.08c1.89-31.65,9.87-64.69,33.06-88.05c23.19-23.36,64.96-33.02,92.68-14.36
			c14.5,9.76,23.14,25.56,27.03,41.75s3.5,32.95,3.09,49.53c-0.13,5.1-0.58,10.86-4.8,14.13c-3.41,2.65-8.27,2.82-12.72,2.87
			c-45.21,0.47-90.43,0.94-135.64,1.41c-1.06-2.81-2.12-5.61-3.18-8.42"/>
		<g>
			<path class="st5" d="M602.39,1617.08c1.67-26.68,7.31-54.11,23.48-76.2c7.45-10.18,16.68-18.46,28-24.3
				c4.98-2.58,10.43-4.67,15.81-5.95c1.23-0.29,2.47-0.55,3.72-0.79c1.61-0.3,2.17-0.36,2.69-0.42c1.46-0.17,2.91-0.31,4.38-0.39
				c-1.9,0.1,0.19,0.02,0.49,0.03c0.83,0.01,1.66,0,2.49,0.02c-1.93-0.04,0.13,0.01,0.46,0.04c0.82,0.08,1.64,0.14,2.46,0.24
				c1.76,0.2,0.2-0.04,1.93,0.31c2.96,0.58,5.18,1.21,8.08,2.34c5.45,2.13,10.57,5.48,14.8,9.46c9.8,9.2,16.14,21.45,19.33,34.3
				c3.87,15.59,3.69,31.77,3.32,47.7c-0.07,3.03-0.05,6.09-0.66,9.07c-0.63,3.09-2.22,4.15-4.02,6.35c0.56-0.69,2.29,0.39,0.84-0.19
				c-1.25-0.5,0.56,0.01-0.81,0.04c-2,0.05-4.02,0.04-6.03,0.06c-4.47,0.04-8.92,0.09-13.39,0.14c-38.97,0.41-77.93,0.81-116.9,1.22
				c4.09,1.4,8.17,2.81,12.26,4.21c-1.06-2.81-2.12-5.61-3.18-8.42c-2.62-6.94-25.9-3.68-24.51,0c1.06,2.81,2.12,5.61,3.18,8.42
				c1.52,4.03,8.73,4.25,12.26,4.21c38.67-0.41,77.34-0.8,116.01-1.21c9.58-0.1,19.46,0.45,28.98-0.72
				c8.41-1.03,16.78-3.71,19.41-12.38c2.18-7.2,1.27-15.85,1.27-23.27c0-9.11-0.38-18.25-1.87-27.26
				c-2.45-14.85-8.18-29.69-18.45-41.06c-9.93-10.98-23.52-17.77-38.14-20.4c-29.91-5.39-62.9,2.38-85.57,22.69
				c-25.83,23.13-34.55,59.13-36.61,92.12C577.52,1622.75,602,1623.46,602.39,1617.08L602.39,1617.08z"/>
		</g>
	</g>
	<g>
		<path class="st5" d="M756.44,1544.19c19.89-42.55,76.06-67.38,124.38-54.98c48.31,12.4,82.6,60.45,75.91,106.38
			c-0.69,4.76-2.1,9.96-6.42,12.62c-3.2,1.99-7.3,2.12-11.15,2.18c-57.14,0.94-114.29,1.87-171.43,2.82
			c0.46-24.57-4.65-49.22-14.91-71.89"/>
		<g>
			<path class="st5" d="M768.26,1545.31c11.15-23.41,32.44-41.05,57.07-49.68c5.97-2.09,11.81-3.57,18.13-4.56
				c-1.33,0.2,0.71-0.1,0.8-0.11c0.83-0.11,1.66-0.2,2.49-0.28c1.66-0.17,3.33-0.31,5-0.41c-1.9,0.11,0.21,0,0.5-0.01
				c0.84-0.02,1.67-0.04,2.51-0.04c0.84,0,1.67,0.02,2.51,0.02c0.41,0.01,0.84,0.02,1.25,0.04c-0.96-0.05-1.01-0.05-0.13,0
				c6.24,0.38,10.98,1.02,17.53,2.95c6.33,1.86,12.38,4.42,18.12,7.61c23.43,13.01,41.72,35.67,48.44,61.37
				c1.62,6.2,2.59,12.58,2.8,18.98c0.22,6.37,0.21,13.72-1.99,19.79c-0.48,1.32-1.13,2.61-2.04,3.69c-0.79,0.93-3.08,2.02-0.93,1.47
				c-2.46,0.64-9.01,0.18-12.72,0.23c-9.82,0.16-19.64,0.33-29.46,0.49c-43.45,0.72-86.91,1.43-130.36,2.14
				c4.09,1.4,8.17,2.81,12.26,4.21c0.35-25.22-5.04-49.94-15.35-73.01c-0.65-1.44-4.49-2.28-5.63-2.52
				c-3.02-0.63-6.39-0.72-9.44-0.42c-2.58,0.25-10.35,1.17-8.56,5.18c9.96,22.28,14.82,46.44,14.47,70.77
				c-0.05,3.95,10.23,4.25,12.26,4.21c42.86-0.71,85.71-1.4,128.57-2.11c10.41-0.17,20.84-0.34,31.25-0.51
				c10.48-0.17,23.29,1.23,32.72-4.12c7.06-4.01,8.53-11.91,9.2-19.29c0.64-6.98,0.36-14.03-0.76-20.95
				c-4.77-29.38-23.75-55.51-49.15-71.29c-28.25-17.56-64.29-21.25-96.48-13.81c-32.7,7.56-63.89,27.12-78.46,57.71
				c-1.9,3.98,6.12,4.94,8.56,5.18C756.28,1548.56,766.45,1549.12,768.26,1545.31L768.26,1545.31z"/>
		</g>
	</g>
	<g>
		<g>
			<path class="st5" d="M838.6,1069.33c2.7,0,12.04-0.16,12.26-4.21c0.21-3.91-10.32-4.21-12.26-4.21c-2.7,0-12.04,0.16-12.26,4.21
				C826.14,1069.03,836.67,1069.33,838.6,1069.33L838.6,1069.33z"/>
		</g>
	</g>
</g>
<g id="Ebene_2_1_">
	<g>
		<g>
			<path d="M765.74,418.98c-46.85,0.09-94.55,12.92-134.67,36.71c-46.49,27.57-80.32,70.91-92.9,123.05
				c-11.03,45.74-8.19,96.81,14.37,138.88c17.63,32.88,47.11,58.32,81.1,74.11c37.39,17.37,79.26,24.61,120.48,23.7
				c42.5-0.94,84.77-10.1,123.05-28.42c35.64-17.05,67.47-42.87,88.83-75.9c23.89-36.92,34.6-82.75,29.93-126.25
				c-2.79-26.04-12.38-51.19-28.03-72.41c-14.88-20.17-34.68-36.59-56.15-49.65c-43.66-26.56-94.74-41.06-145.08-49.2
				c-11.19-1.81-22.43-3.34-33.71-4.53c-3.51-0.37-13.03-0.87-15.08,2.94c-2.1,3.91,6.56,4.97,8.56,5.18
				c5.13,0.54,10.25,1.15,15.35,1.83c1.26,0.17,2.52,0.34,3.78,0.52c0.71,0.1,1.42,0.2,2.12,0.3c-0.36-0.05-2.43-0.37-0.36-0.05
				c2.9,0.45,5.8,0.89,8.71,1.37c11.47,1.9,22.88,4.15,34.2,6.8c2.82,0.66,5.64,1.35,8.45,2.06c1.42,0.36,2.83,0.72,4.25,1.09
				c-1.47-0.39,0.13,0.04,0.36,0.1c1.11,0.3,2.21,0.6,3.32,0.91c5.89,1.63,11.74,3.39,17.56,5.27c12.08,3.91,24.01,8.34,35.58,13.51
				c43.9,19.62,85.36,51.24,102.95,97.15c9.18,23.96,11.06,49.86,8.72,75.2c-1.87,20.27-6.65,40.39-14.82,59.12
				c-15.26,34.93-41.4,64.31-73.37,85.12c-16.52,10.75-32.3,18.36-50.11,24.71c-4.6,1.64-9.24,3.15-13.92,4.54
				c-2.22,0.66-4.45,1.29-6.68,1.89c2.23-0.6-0.92,0.23-1.63,0.41c-1.37,0.34-2.75,0.68-4.12,1.01c-4.64,1.09-9.31,2.07-13.99,2.94
				c-2.28,0.41-4.56,0.81-6.86,1.17c-0.75,0.11-4.54,0.64-1.28,0.21c-1.28,0.17-2.55,0.35-3.83,0.52c-4.84,0.63-9.71,1.13-14.58,1.5
				c-2.31,0.18-4.61,0.3-6.92,0.45c-2.67,0.18,2.34-0.08,0.57-0.03c-0.64,0.02-1.28,0.05-1.92,0.08c-1.28,0.04-2.56,0.08-3.85,0.11
				c-4.85,0.11-9.71,0.09-14.56-0.05c-1.02-0.03-2.04-0.08-3.05-0.11c-2.65-0.08,2.36,0.15,0.59,0.03c-0.64-0.04-1.27-0.07-1.9-0.11
				c-2.41-0.14-4.82-0.31-7.21-0.51c-4.79-0.41-9.53-1.04-14.3-1.6c-1.66-0.19,2.84,0.45,0.31,0.04c-0.49-0.08-1-0.15-1.49-0.23
				c-1.11-0.18-2.23-0.35-3.34-0.55c-2.34-0.4-4.68-0.83-7.01-1.29c-4.64-0.92-9.23-2.01-13.81-3.16c-1.75-0.43,0.04,0.01,0.33,0.09
				c-0.59-0.16-1.2-0.33-1.79-0.49c-1.07-0.3-2.14-0.6-3.2-0.92c-2.36-0.69-4.71-1.42-7.04-2.19c-4.41-1.45-8.77-3.03-13.07-4.75
				c-2.03-0.81-4.03-1.65-6.04-2.52c-0.26-0.11-1.42-0.63-0.07-0.03c-0.44-0.19-0.88-0.4-1.32-0.6c-1.2-0.56-2.41-1.11-3.6-1.69
				c-8.09-3.88-15.9-8.29-23.36-13.23c-14.65-9.73-27.53-21.45-38.48-35.5c-24.84-31.88-34.82-71.38-33.99-111.1
				c0.6-29.18,6.38-58.47,19.15-84.94c10.97-22.74,26.72-43.05,45.85-59.76c17.22-15.04,38.23-27.57,58.66-36.1
				c10.51-4.4,21.34-8.09,32.36-11.04c-1.88,0.5,1.13-0.28,1.75-0.44c1.4-0.35,2.81-0.69,4.21-1.02c2.64-0.62,5.29-1.19,7.95-1.72
				c2.48-0.49,4.96-0.95,7.45-1.38c1.23-0.21,2.46-0.4,3.68-0.6c0.54-0.09,1.09-0.17,1.63-0.25c-2.93,0.44-0.37,0.05,0.31-0.04
				c4.87-0.63,9.74-1.16,14.64-1.5c1.15-0.08,2.31-0.13,3.46-0.21c2.12-0.15-0.75,0.03-0.98,0.04c0.63-0.03,1.26-0.05,1.89-0.07
				c2.34-0.08,4.68-0.12,7.03-0.12c2.7-0.01,12.04-0.16,12.26-4.21C778.2,419.28,767.67,418.97,765.74,418.98L765.74,418.98z"/>
		</g>
	</g>
	<g>
		<g>
			<path d="M653.96,798.97c-4.11,13-8.14,26.03-12.16,39.07c-9.7,31.52-19.24,63.1-28.55,94.73
				c-11.43,38.79-22.57,77.65-33.1,116.69c-9.38,34.77-18.48,69.67-25.78,104.93c-4.7,22.75-10.23,48.87,2.9,69.99
				c13.04,20.97,40.19,28.76,63.18,33.44c61.17,12.44,124.9,16.32,187.22,13.64c31.93-1.38,63.76-4.41,95.3-9.5
				c23.3-3.76,48.3-9.73,66.6-25.22c9.13-7.72,15.27-18.09,17.62-29.71c2.66-13.17,0.47-26.81-2.68-39.7
				c-5.65-23.14-13.26-45.94-20.49-68.65c-15.5-48.77-31.99-97.23-47.77-145.91c-14.57-44.95-28.98-90.11-40.01-136.04
				c-2.22-9.25-4.28-18.54-6.08-27.88c-1.3-6.73-25.47-4.93-24.51,0c8.23,42.56,20.92,84.27,33.87,125.63
				c15.02,47.97,31.15,95.59,46.79,143.35c7.48,22.82,14.85,45.67,21.88,68.63c3.26,10.66,6.5,21.34,9.49,32.07
				c3.54,12.71,6.67,25.87,6.11,39.15c-1.04,24.58-17.92,40.92-40.41,49.08c-24.16,8.75-51.1,10.97-76.53,13.44
				c-59.81,5.81-120.21,4.41-179.71-3.91c-13.49-1.89-27.05-4-40.33-7.05c-10.84-2.5-21.61-6.04-30.96-12.08
				c-9.88-6.39-17.24-15.96-20.21-27.28c-3.18-12.13-2.17-24.94-0.23-37.18c5.48-34.7,14.9-69.03,23.83-102.98
				c10.07-38.28,20.84-76.39,31.9-114.4c9.74-33.48,19.74-66.89,29.94-100.24c5.46-17.88,10.98-35.76,16.59-53.6
				c0.26-0.84,0.53-1.68,0.79-2.52C679.74,794.94,656.17,791.97,653.96,798.97L653.96,798.97z"/>
		</g>
	</g>
	<g>
		<g>
			<path d="M678.63,1267.96c-1.97,60.87-3.76,121.75-5.66,182.63c-0.52,16.83-1.05,33.67-1.6,50.5c-0.19,5.83,24.31,6.24,24.51,0
				c1.97-60.87,3.76-121.75,5.66-182.63c0.52-16.83,1.05-33.67,1.6-50.5C703.33,1262.13,678.83,1261.72,678.63,1267.96
				L678.63,1267.96z"/>
		</g>
	</g>
	<g>
		<g>
			<path d="M849.06,1263.08c-6.43,56.66-9.96,113.7-11.09,170.71c-0.31,15.45-0.4,30.9-0.25,46.35c0.06,6.05,24.57,6.04,24.51,0
				c-0.57-57.01,1.97-114.09,6.78-170.89c1.3-15.4,2.81-30.8,4.56-46.16C874.19,1257.72,849.82,1256.51,849.06,1263.08
				L849.06,1263.08z"/>
		</g>
	</g>
	<g>
		<g>
			<path d="M764.04,1609.87c-0.59-24.1-1.54-48.83-12.69-70.84c-10.18-20.08-28.11-33.57-50.24-38.73
				c-23.61-5.52-49.93-2.61-71.61,8.08c-18.82,9.29-34.08,25.04-44.04,43.15c-13.21,24.01-17.29,51.49-17.79,78.45
				c-0.07,3.93,10.25,4.28,12.26,4.21c57.27-1.97,114.53-3.95,171.8-5.91c2.6-0.09,12-0.14,12.26-4.21
				c0.26-4.24,0.52-8.47,0.77-12.7c0.35-5.67-24.12-6.36-24.51,0c-0.26,4.24-0.52,8.47-0.77,12.7c4.09-1.4,8.17-2.81,12.26-4.21
				c-57.27,1.97-114.53,3.95-171.8,5.91c4.09,1.4,8.17,2.81,12.26,4.21c0.75-40.22,10.66-84.34,45.56-109.54
				c7.47-5.39,15.73-9.78,24.69-12.24c7.86-2.16,14.42-2.54,20.82-1.69c18.71,2.52,33.51,15.41,42.51,31.15
				c12.52,21.9,13.16,47.75,13.76,72.21C739.68,1615.99,764.19,1615.83,764.04,1609.87L764.04,1609.87z"/>
		</g>
	</g>
	<g>
		<g>
			<path d="M595.44,1615.48c49.66-0.85,99.33-1.7,148.98-2.55c2.7-0.04,12.04-0.13,12.26-4.21c0.21-3.89-10.32-4.25-12.26-4.21
				c-49.66,0.85-99.33,1.7-148.98,2.55c-2.7,0.04-12.04,0.13-12.26,4.21C582.98,1615.15,593.51,1615.51,595.44,1615.48
				L595.44,1615.48z"/>
		</g>
	</g>
	<g>
		<g>
			<path d="M665.5,1534.93c8.61-2.1,17.16-2.82,25.94-1.32c4.92,0.85,12.43,1.55,16.77-1.51c4.22-2.97-1.56-5.28-4.39-5.76
				c-16.79-2.89-34.09-2.74-50.68,1.32c-2.71,0.66-8.71,2.74-4.39,5.76C652.74,1536.23,660.99,1536.03,665.5,1534.93L665.5,1534.93z
				"/>
		</g>
	</g>
	<g>
		<g>
			<path d="M654.71,1552.71c14.66,0.85,29.33,1.69,43.99,2.53c3.15,0.19,6.33,0.23,9.44-0.42c1.29-0.27,4.84-1.05,5.63-2.52
				c2.08-3.86-6.52-5.07-8.56-5.18c-14.66-0.85-29.33-1.69-43.99-2.53c-3.15-0.19-6.33-0.23-9.44,0.42
				c-1.29,0.27-4.84,1.05-5.63,2.52C644.07,1551.38,652.67,1552.59,654.71,1552.71L654.71,1552.71z"/>
		</g>
	</g>
	<g>
		<g>
			<path d="M755.75,1544.06c9.23-17.72,23.65-32.13,40.96-42.33c8.68-5.11,17.92-9.07,27.62-11.94c3.86-1.15,7.98-2.05,12.12-2.79
				c2.47-0.44,2.81-0.49,5.74-0.82c1.24-0.13,2.49-0.26,3.74-0.35c0.84-0.07,1.66-0.12,2.5-0.18c-1.18,0.04-1.02,0.04,0.49-0.02
				c9.6-0.24,16.21,0.22,25.97,2.74c9.95,2.57,19.37,6.89,28.02,12.3c17.01,10.65,30.87,25.94,40.15,43.51
				c10.47,19.79,14.45,42.59,10.31,64.59c4.09-1.4,8.17-2.81,12.26-4.21c-68.06,2.55-136.12,5.09-204.18,7.64
				c-2.7,0.1-12.04,0.09-12.26,4.21c-0.21,3.87,10.32,4.29,12.26,4.21c68.06-2.55,136.12-5.09,204.18-7.64
				c3.04-0.11,11.47-0.07,12.26-4.21c8.19-43.4-15.61-87.56-52.23-111.34c-41.02-26.63-96.95-25.93-140.32-5.16
				c-22.29,10.67-41.87,27.74-53.23,49.56C729.29,1547.24,752.81,1549.72,755.75,1544.06L755.75,1544.06z"/>
		</g>
	</g>
	<g>
		<g>
			<path d="M762.88,1601.44c64.48,2.88,129.19,0.79,193.35-6.15c2.3-0.25,10.62-1.24,8.56-5.18c-1.92-3.67-11.98-3.27-15.08-2.94
				c-62.04,6.71-124.48,8.62-186.84,5.85c-2.68-0.12-12.05,0.24-12.26,4.21C750.41,1601.19,760.94,1601.35,762.88,1601.44
				L762.88,1601.44z"/>
		</g>
	</g>
	<g>
		<g>
			<path d="M892.45,1542.29c15.13-9.19,30.26-18.37,45.39-27.56c4.56-2.77-1.91-5.25-4.39-5.76c-4.97-1.03-12.23-1.24-16.77,1.51
				c-15.13,9.19-30.26,18.37-45.39,27.56c-4.56,2.77,1.91,5.25,4.39,5.76C880.64,1544.83,887.9,1545.04,892.45,1542.29
				L892.45,1542.29z"/>
		</g>
	</g>
	<g>
		<g>
			<path d="M915.37,1559.65c12.3-7.43,24.59-14.86,36.89-22.3c4.57-2.76-1.92-5.25-4.39-5.76c-4.98-1.03-12.22-1.24-16.77,1.51
				c-12.3,7.43-24.59,14.86-36.89,22.3c-4.57,2.76,1.92,5.25,4.39,5.76C903.57,1562.2,910.81,1562.4,915.37,1559.65L915.37,1559.65z
				"/>
		</g>
	</g>
</g>
<g id="Ebene_3">
	<g>
		<g>
			<path d="M699.47,576.88c-0.51,17.29-1.02,34.58-1.54,51.89c-0.17,5.84,24.33,6.23,24.51,0c0.51-17.29,1.02-34.58,1.54-51.89
				C724.15,571.04,699.64,570.65,699.47,576.88L699.47,576.88z"/>
		</g>
	</g>
	<g>
		<g>
			<path d="M766.81,578.29c1.13,17.3-0.04,34.66-0.07,51.97c-0.01,5.98,24.5,6.09,24.51,0c0.04-17.32,1.2-34.67,0.07-51.97
				C790.91,571.99,766.44,572.56,766.81,578.29L766.81,578.29z"/>
		</g>
	</g>
</g>
<g id="Ebene_4">
	<ellipse class="st6" cx="715.09" cy="586.13" rx="3.37" ry="3.31"/>
	<ellipse class="st6" cx="784.59" cy="583.8" rx="3.37" ry="3.31"/>
</g>
<g id="Ebene_11">
	<ellipse class="st7" cx="647.5" cy="682.24" rx="40.59" ry="37.14"/>
	<ellipse class="st7" cx="863.97" cy="690.03" rx="40.59" ry="37.14"/>
</g>
<g id="Ebene_12">
	<g>
		<g>
			<path d="M652.48,670.57c-4.2,40.23,23.27,77.03,61.09,90.43c40.68,14.41,92.08,7.54,122.29-24.42
				c14.65-15.5,23.63-36.26,23.74-57.49c0.03-5.98-24.48-6.11-24.51,0c-0.16,34.22-23.97,66.25-57.07,76.93
				c-15.65,5.05-29.35,4.89-45.12-0.31c-16.96-5.6-31.37-16.58-41.51-31.03c-11.11-15.84-16.39-34.95-14.38-54.12
				C677.55,665.16,653.16,664.03,652.48,670.57L652.48,670.57z"/>
		</g>
	</g>
</g>
<g id="Ebene_15">
	<g class="st8">
		<g>
			<path d="M771.06,1518.23c3.59,0,16.06-0.21,16.34-5.62c0.28-5.22-13.76-5.62-16.34-5.62c-3.59,0-16.06,0.21-16.34,5.62
				C754.44,1517.82,768.49,1518.23,771.06,1518.23L771.06,1518.23z"/>
		</g>
	</g>
	<g class="st8">
		<g>
			<path d="M617.03,1536.91c3.59,0,16.06-0.21,16.34-5.62c0.28-5.22-13.76-5.62-16.34-5.62c-3.59,0-16.06,0.21-16.34,5.62
				C600.41,1536.51,614.45,1536.91,617.03,1536.91L617.03,1536.91z"/>
		</g>
	</g>
	<g class="st8">
		<g>
			<path d="M606.9,489c3.59,0,16.06-0.21,16.34-5.62c0.28-5.22-13.76-5.62-16.34-5.62c-3.59,0-16.06,0.21-16.34,5.62
				C590.28,488.59,604.33,489,606.9,489L606.9,489z"/>
		</g>
	</g>
</g>
<g id="Ebene_17">
	<g class="st9">
		<g>
			<path class="st10" d="M736.33,465.32c3.59,0,16.06-0.21,16.34-5.62c0.28-5.22-13.76-5.62-16.34-5.62
				c-3.59,0-16.06,0.21-16.34,5.62C719.72,464.91,733.76,465.32,736.33,465.32L736.33,465.32z"/>
		</g>
	</g>
	<g class="st9">
		<g>
			<path class="st10" d="M847.35,1511.73c6.76,1.24,12.69,3.04,19.58,6.56c6.86,3.5,13.33,7.81,18.98,13
				c11.35,10.45,20.03,23.72,23.78,38.61c2.3,9.13,34.21,6.06,32.69,0c-9.15-36.28-42.09-61.17-78.53-67.88
				c-6.77-1.24-16.28-1.84-22.36,2.01C835.51,1507.85,843.95,1511.1,847.35,1511.73L847.35,1511.73z"/>
		</g>
	</g>
	<g class="st9">
		<g>
			<path class="st10" d="M661.35,1523.46c26.28,18.07,40.86,50.01,36.68,81.28c-0.27,2.03,3.62,3.55,4.79,3.97
				c3.5,1.26,7.88,1.7,11.55,1.64c3.83-0.06,15.61-0.11,16.34-5.62c4.56-34.13-12.89-67.53-41.14-86.95
				c-5.74-3.95-15.88-3.36-22.36-2.01C663.47,1516.55,655.53,1519.46,661.35,1523.46L661.35,1523.46z"/>
		</g>
	</g>
</g>
</svg>
