<?xml version="1.0" encoding="utf-8"?>
<!-- Generator: Adobe Adobe Illustrator 24.2.0, SVG Export Plug-In . SVG Version: 6.00 Build 0)  -->
<svg version="1.1" id="Ebene_1" xmlns="http://www.w3.org/2000/svg" xmlns:xlink="http://www.w3.org/1999/xlink" x="0px" y="0px"
	 viewBox="0 0 1728 1296" style="enable-background:new 0 0 1728 1296;" xml:space="preserve">
<style type="text/css">
	.st0{fill:#F4F5E8;}
	.st1{fill:#F3F6E9;}
	.st2{fill:#FFFFFF;}
	.st3{fill:#DB7A39;}
	.st4{fill:#C9344E;}
	.st5{opacity:0.149;}
</style>
<g id="Ebene_4">
	<g>
		<path class="st0" d="M660.84,248.94c3.44,144.15-12.79,288.75-48.09,428.55"/>
		<g>
			<path class="st1" d="M655.43,251.94c2.61,112.1-6.58,224.35-27.52,334.51c-5.89,30.99-12.72,61.79-20.42,92.38
				c-0.72,2.85,0.75,5.98,3.99,5.41c3.54-0.62,5.76-5.02,6.53-8.08c27.58-109.48,43.56-221.82,47.65-334.64
				c1.15-31.84,1.34-63.72,0.6-95.57c-0.08-3.28-2.69-4.58-5.51-3.18C657.65,244.28,655.35,248.56,655.43,251.94L655.43,251.94z"/>
		</g>
	</g>
	<g>
		<path class="st0" d="M604.4,715.57c-21.85,92.73-43.71,185.45-65.56,278.18c190.95,38.47,390.97,31.09,578.56-21.35
			c24.42-6.83,50.23-15.47,65.7-35.56c12.57-16.33,16.23-37.63,19.31-58.01c39.39-261.26,46.72-527.33,21.76-790.36
			c-6.89,0.79-13.78,1.57-20.68,2.36c-1-9.22-12.13-15.75-20.66-12.12c-1.82-4.93-3.64-9.85-5.45-14.78
			c-5.35,0.86-10.71,1.73-16.06,2.59c5.55-8.38-2.15-20.36-11.88-22.88c-9.73-2.52-19.86,1.29-29.19,5.03
			C964.27,111.2,808.28,173.73,652.3,236.26"/>
		<g>
			<path class="st1" d="M599.15,716.91c-17.04,72.3-34.08,144.6-51.12,216.9c-4.81,20.43-9.63,40.85-14.44,61.28
				c-0.54,2.29,0.14,5.02,2.68,5.53c97.35,19.54,196.97,27.3,296.17,23.2c98.06-4.06,196.87-18.83,291.06-46.77
				c18.85-5.59,38.1-12.8,52.92-26.17c16.58-14.97,24.41-35.73,28.57-57.2c4.7-24.26,7.57-48.99,10.82-73.48
				c3.39-25.61,6.48-51.26,9.26-76.94c11.11-102.63,17.39-205.79,18.74-309.02c1.35-103.65-2.25-207.36-10.82-310.66
				c-1.05-12.71-2.19-25.41-3.39-38.11c-0.25-2.62-1.47-4.05-4.14-3.74c-6.89,0.79-13.78,1.57-20.68,2.36
				c1.31,0.76,2.62,1.51,3.93,2.27c-1.77-11.14-14.03-18.27-24.6-14.39c1.31,0.76,2.62,1.51,3.93,2.27
				c-1.82-4.93-3.64-9.85-5.45-14.78c-0.7-1.89-1.96-2.59-3.93-2.27c-5.35,0.86-10.71,1.73-16.06,2.59c0.88,3,1.75,6,2.63,8.99
				c6.91-11.77,1.78-26.97-11.41-31.44c-7.76-2.63-16.3-1.06-23.88,1.44c-9.12,3.02-17.99,6.99-26.9,10.57
				c-36.38,14.58-72.75,29.16-109.13,43.75c-72.44,29.04-144.89,58.08-217.33,87.12c-41,16.44-82,32.87-123,49.31
				c-3.36,1.35-5.91,4.46-6.53,8.08c-0.39,2.27,0.56,6.78,3.99,5.41c68.74-27.56,137.49-55.12,206.23-82.67
				s137.49-55.12,206.23-82.67c19.32-7.75,38.58-15.67,57.98-23.23c8.03-3.13,18.07-6.93,26.6-3.47c3.65,1.48,12.18,8.5,9.35,13.31
				c-1.73,2.94-2.8,9.87,2.63,8.99c5.35-0.86,10.71-1.73,16.06-2.59c-1.31-0.76-2.62-1.51-3.93-2.27c1.82,4.93,3.64,9.85,5.45,14.78
				c0.6,1.61,2.06,2.96,3.93,2.27c7.38-2.71,15.5,2.1,16.73,9.84c0.32,2.04,2.25,2.46,3.93,2.27c6.89-0.79,13.78-1.57,20.68-2.36
				c-1.38-1.25-2.76-2.49-4.14-3.74c9.58,101.25,14.43,202.93,14.48,304.63c0.05,101.46-4.6,202.94-14.08,303.95
				c-4.74,50.46-10.66,100.81-17.76,151c-3.13,22.16-4.7,46.08-12.95,67.08c-7.54,19.2-23.35,30.78-41.94,38.41
				c-20.23,8.31-42.1,13.21-63.28,18.45c-23.4,5.79-46.98,10.89-70.68,15.3c-48.21,8.96-96.95,15.08-145.89,18.25
				c-96.86,6.27-194.48,1.27-290.16-15.12c-11.73-2.01-23.43-4.2-35.09-6.54c0.89,1.84,1.79,3.68,2.68,5.53
				c17.04-72.3,34.08-144.6,51.12-216.9c4.81-20.43,9.63-40.85,14.44-61.28c0.67-2.85-0.71-5.99-3.99-5.41
				C602.17,709.45,599.87,713.85,599.15,716.91L599.15,716.91z"/>
		</g>
	</g>
</g>
<g id="Ebene_5">
	<g>
		<path class="st0" d="M1339.79,126.06c5.44-20.48,9.88-41.22,13.3-62.12c1.34-8.18,1.91-18.05-4.58-23.21
			c-6.16-4.89-15.91-2.31-21.01,3.68c-5.09,5.99-6.51,14.26-6.87,22.12c-0.99,21.63,4.75,43.51,16.21,61.88"/>
		<g>
			<path class="st1" d="M1345.05,124.72c4.34-16.45,8.09-33.05,11.16-49.79c2.15-11.72,7.48-29.71-2.48-39.38
				c-9.8-9.52-24.72-1.63-31.09,7.84c-8.17,12.15-8.42,28.27-6.91,42.35c1.85,17.2,7.42,33.58,16.46,48.33
				c3.37,5.5,12.38-6.31,9.3-11.33c-8.14-13.27-13.5-28.32-15.04-43.85c-0.97-9.78-3.53-32.04,10.52-33.75
				c16.94-2.06,10.49,22.74,8.89,31.52c-3.1,17.06-6.91,33.98-11.33,50.74c-0.75,2.85,0.77,5.98,3.99,5.41
				C1342.09,132.17,1344.24,127.78,1345.05,124.72L1345.05,124.72z"/>
		</g>
	</g>
	<g>
		<path class="st0" d="M579.45,286.51c9.85-11.55,20.02-23.73,23.39-38.53c3.37-14.8-2.56-32.92-16.82-38.1
			c-12.72-4.62-27.69,3.11-34.02,15.07c-6.34,11.96-5.28,26.75-0.36,39.36c4.92,12.61,13.32,23.5,21.61,34.2"/>
		<g>
			<path class="st1" d="M582.22,290.41c11.13-13.07,22.48-27.15,26.02-44.4c2.63-12.84-0.13-28.05-10.01-37.26
				c-11.11-10.36-27.06-8.13-38.51,0.45c-12.93,9.68-18.77,26.48-17.3,42.25c1.89,20.43,14.02,37,26.19,52.72
				c4.1,5.3,12.87-6.72,9.3-11.33c-10.49-13.56-22.01-28.1-24.48-45.62c-2.08-14.79,4.35-30.84,21.22-31.81
				c14.32-0.82,23.21,12.77,23.68,25.76c0.59,16.32-11.75,29.83-21.63,41.44c-1.88,2.21-3.95,6.86-1.89,9.56
				C576.94,294.98,580.6,292.3,582.22,290.41L582.22,290.41z"/>
		</g>
	</g>
	<g>
		<path class="st0" d="M837.45,1233.14c-10.24-13.79-27.66-21.92-44.81-20.9s-33.48,11.16-42.01,26.07
			c28.94,8.28,59.98,9.07,89.3,2.29"/>
		<g>
			<path class="st1" d="M842.1,1227.48c-11.65-15.19-30.52-23.77-49.65-21.87c-19.2,1.9-36.01,14.07-45.71,30.45
				c-1.66,2.81-2.78,7.96,1.32,9.11c29.55,8.28,60.69,8.93,90.61,2.17c5.46-1.23,10-15.17,2.54-13.49
				c-29.11,6.57-59.27,5.65-88-2.41c0.44,3.04,0.88,6.07,1.32,9.11c17.12-28.9,58.93-26.97,78.27-1.75
				C836.86,1244.11,845.65,1232.11,842.1,1227.48L842.1,1227.48z"/>
		</g>
	</g>
	<g>
		<path class="st0" d="M944.13,1251.18c21.1,6.22,43.87,6.67,65.2,1.28c9.23-2.33,20.19-9.19,17.74-18.4
			c-1.57-5.9-8.07-8.91-13.98-10.43c-25.98-6.64-55.23,1.57-73.96,20.76"/>
		<g>
			<path class="st1" d="M941.55,1258.04c16.1,4.61,32.73,5.97,49.38,4.21c13.49-1.43,29.12-4.29,37.55-16.1
				c3.61-5.06,5.61-11.72,3.38-17.77c-2.18-5.92-7.95-9.07-13.64-10.85c-12.77-3.99-26.92-3.86-39.89-0.87
				c-15.31,3.53-29.59,11.41-40.68,22.53c-2.32,2.33-4.9,6.21-3.73,9.69c1.06,3.14,4.62,2.81,6.68,0.75
				c10.09-10.12,22.69-16.86,36.67-19.81c12.07-2.54,28.45-3.16,39.56,3.2c1.97,1.13,5.69,3.75,5.18,6.5
				c-0.19,1.06-2.34,2.26-3.34,2.88c-6.05,3.76-13.73,4.81-20.65,5.8c-17.14,2.47-34.7,0.88-51.31-3.88
				C941.3,1242.77,934.88,1256.13,941.55,1258.04L941.55,1258.04z"/>
		</g>
	</g>
</g>
<g id="Ebene_7">
	<g>
		<path class="st2" d="M1089.65,759.15c-0.2,6.08-0.39,12.17-0.59,18.25c11.31,7.37,28.07,4.56,36.36-6.1
			c-10.6-3.72-21.21-7.44-31.81-11.16"/>
		<g>
			<path class="st2" d="M1084.24,762.15c-0.2,6.08-0.39,12.17-0.59,18.25c-0.04,1.27,0.53,2.8,1.66,3.49
				c14.31,8.76,32.57,3.81,42.87-8.7c1.35-1.64,4.96-9,0.99-10.39c-10.6-3.72-21.21-7.44-31.81-11.16
				c-5.96-2.09-12.94,11.08-7.5,12.99c10.6,3.72,21.21,7.44,31.81,11.16c0.33-3.46,0.66-6.93,0.99-10.39
				c-7.18,8.72-20.7,9.1-29.84,3.5c0.55,1.16,1.1,2.33,1.66,3.49c0.2-6.08,0.39-12.17,0.59-18.25c0.11-3.33-2.81-4.52-5.51-3.18
				C1086.33,754.56,1084.36,758.71,1084.24,762.15L1084.24,762.15z"/>
		</g>
	</g>
</g>
<g id="Ebene_6">
	<g>
		<path class="st3" d="M1146.58,569.23c-13.57,42.97-27.14,85.94-40.71,128.91c-4.36,13.82-20.85,43.69-15.63,46.48
			c18.85,10.1,31.99,11.34,44.88,12.92c18.92-62.38,37.84-124.75,56.76-187.13c-13.67-5.05-28.36-7.33-42.92-6.64"/>
		<g>
			<path class="st3" d="M1141.82,568.79c-12.37,39.18-24.74,78.35-37.11,117.53c-4.1,12.98-9.22,25.13-14.53,37.64
				c-2.53,5.95-10.85,21.43-3.97,26.96c3.29,2.65,8.4,4.26,12.3,5.81c3.86,1.53,7.81,2.83,11.82,3.9c7.28,1.94,14.74,2.87,22.2,3.78
				c3.27,0.4,6.52-3.74,7.33-6.42c18.92-62.38,37.84-124.75,56.76-187.13c0.5-1.66,1.51-6.03-1-6.94
				c-14.23-5.12-28.97-7.59-44.09-7.01c-3.51,0.13-6.19,3.29-7.33,6.42c-0.7,1.91-1.4,7.44,2.17,7.3
				c14.22-0.55,28.35,1.45,41.75,6.28c-0.33-2.31-0.67-4.63-1-6.94c-18.92,62.38-37.84,124.75-56.76,187.13
				c2.44-2.14,4.89-4.28,7.33-6.42c-13.21-1.61-25.76-3.92-37.9-9.64c-1.22-0.57-4.4-2.94-5.81-2.92c0.7-0.01,0.55,1.82,0.66,1.25
				c-0.04,0.18-0.05-0.15,0.13-1.09c0.21-1.04,0.32-1.39,0.58-2.23c1.51-4.99,3.71-9.81,5.78-14.58
				c12.69-29.18,21.16-59.87,30.74-90.19c6.48-20.54,12.97-41.07,19.45-61.61c0.78-2.48,1.33-6.74-2.17-7.3
				C1145.92,561.85,1142.64,566.19,1141.82,568.79L1141.82,568.79z"/>
		</g>
	</g>
	<g>
		<path class="st3" d="M1087.25,793.15c-1.27,6.12-2.55,12.25-3.82,18.37c5.16-5.71,10.33-11.42,15.49-17.12
			c-2.55-0.86-5.1-1.72-7.64-2.59"/>
		<g>
			<path class="st3" d="M1081.99,794.49c-1.27,6.12-2.55,12.25-3.82,18.37c-0.41,1.98-0.07,4.62,2.09,5.34
				c2.28,0.77,4.53-1.23,5.93-2.78c5.16-5.71,10.33-11.42,15.49-17.12c1.42-1.57,4.91-9.06,0.99-10.39
				c-2.55-0.86-5.1-1.72-7.64-2.59c-3.26-1.1-6.09,1.56-7.65,4.25c-1,1.73-3.05,7.66,0.15,8.75c2.55,0.86,5.1,1.72,7.64,2.59
				c0.33-3.46,0.66-6.93,0.99-10.39c-5.16,5.71-10.33,11.42-15.49,17.12c2.67,0.85,5.35,1.71,8.02,2.56
				c1.27-6.12,2.55-12.25,3.82-18.37c0.59-2.84-0.66-6.02-3.99-5.41C1085.08,787.04,1082.63,791.42,1081.99,794.49L1081.99,794.49z"
				/>
		</g>
	</g>
	<g>
		<g>
			<path class="st3" d="M1087.66,751.48c5.84,0,11.57-13.72,5.16-13.72C1086.98,737.75,1081.24,751.48,1087.66,751.48
				L1087.66,751.48z"/>
		</g>
	</g>
	<g>
		<g>
			<path class="st3" d="M1118.17,726.93c5.84,0,11.57-13.72,5.16-13.72C1117.49,713.2,1111.76,726.93,1118.17,726.93L1118.17,726.93
				z"/>
		</g>
	</g>
</g>
<g id="Ebene_8">
	<g>
		<path class="st4" d="M947.5,455.29c9.21-10.3,27.09-11.07,37.15-1.6c5.17-16.02,27.28-23.59,41.18-14.11
			c-5.83,14.51-18.86,25.92-34.01,29.78c-15.15,3.86-32.05,0.07-44.11-9.89"/>
		<g>
			<path class="st4" d="M950.26,459.19c8.02-8.45,22.73-6.01,30.63,1c3.13,2.77,7.81-4.1,8.5-6.05
				c4.48-12.72,22.58-14.56,32.68-8.06c-0.33-2.31-0.67-4.63-1-6.94c-11.63,27.71-47.83,31.23-69.62,13.83
				c-4.56-3.64-12.45,9.04-7.5,12.99c13.85,11.06,33.21,14.81,50.1,9.1c16.79-5.68,29.73-18.84,36.53-35.03
				c0.87-2.08,1.2-5.52-1-6.94c-18.43-11.85-42.91,0.94-49.69,20.16c2.83-2.02,5.67-4.03,8.5-6.05c-13.07-11.6-32.39-7.68-43.66,4.2
				c-1.98,2.09-3.89,6.95-1.89,9.56C945.05,463.83,948.57,460.97,950.26,459.19L950.26,459.19z"/>
		</g>
	</g>
</g>
<g id="Ebene_9">
	<g>
		<path d="M927.27,416.01c3.07,10.22,6.14,20.44,9.21,30.66c12.01-14.14,33.68-19.04,50.6-11.46c8.52-12.55,27.61-16.3,40.24-7.9
			c6.57-12.83,10.33-27.09,10.93-41.49c-31.48,19.27-68.1,30.08-105,30.99"/>
		<g>
			<path d="M922.06,420.48c3.07,10.22,6.14,20.44,9.21,30.66c1.34,4.47,6.05,1.6,7.97-0.58c10.69-12.13,29.54-15.06,44.09-8.86
				c2.37,1.01,5.12-0.66,6.51-2.6c7.62-10.62,23.07-12,33.73-5.3c2.79,1.76,6.58-2.11,7.65-4.25c7.37-14.72,11.6-30.29,12.44-46.75
				c0.16-3.16-2.85-4.79-5.51-3.18c-30.89,18.73-66.19,29.27-102.31,30.31c-5.84,0.17-11.49,13.91-5.16,13.72
				c38-1.1,75.16-11.95,107.68-31.67c-1.84-1.06-3.67-2.12-5.51-3.18c-0.64,12.58-3.78,24.97-9.42,36.24
				c2.55-1.42,5.1-2.83,7.65-4.25c-15.46-9.72-36.39-3.95-46.75,10.5c2.17-0.87,4.34-1.73,6.51-2.6
				c-20.11-8.57-42.89-2.08-57.11,14.05c2.66-0.19,5.31-0.38,7.97-0.58c-3.07-10.22-6.14-20.44-9.21-30.66
				C930.29,404.26,920.44,415.09,922.06,420.48L922.06,420.48z"/>
		</g>
	</g>
</g>
<g>
	<g>
		<path d="M645.68,235.35c2.6,99.77-1.35,199.72-12.01,298.96c-10.62,98.85-27.74,196.99-51.24,293.59
			c-13.25,54.47-28.57,108.42-45.87,161.75c-0.63,1.93-1.4,5.72,1,6.94c40.54,20.55,86.29,30.19,131.09,35.8
			c53.43,6.69,107.57,7.39,161.31,4.88c54-2.52,107.91-8.35,161.2-17.44c44.06-7.52,88.15-17,130.56-31.3
			c16.93-5.71,33.84-12.19,49.5-20.84c12.91-7.14,25.08-16.89,30.19-31.22c2.6-7.28,3.23-15.36,4.38-22.98
			c5.37-35.57,10.24-71.22,14.72-106.91c6.3-50.23,11.79-100.56,16.4-150.97c5.39-58.97,9.61-118.05,12.22-177.21
			c2.72-61.65,3.74-123.4,2.06-185.09c-1.6-58.65-5.61-117.32-14.03-175.41c-1.9-13.08-4.04-26.13-6.46-39.12
			c-0.52-2.8-3.38-2.52-5.31-1.71c-71.45,30.03-144.61,55.97-219,77.73c-74.26,21.72-149.74,39.28-225.98,52.53
			c-43.04,7.48-86.3,13.58-129.73,18.32c-5.56,0.61-10.3,14.34-2.54,13.49c77.54-8.47,154.59-21.3,230.68-38.48
			c75.78-17.11,150.59-38.49,223.96-64.03c41.43-14.42,82.37-30.19,122.81-47.18c-1.77-0.57-3.54-1.14-5.31-1.71
			c10.27,55.25,15.55,111.34,18.38,167.43c3.04,60.39,3.11,120.92,1.39,181.35c-1.69,59.39-5.16,118.72-9.91,177.94
			c-4.2,52.38-9.45,104.68-15.55,156.87c-4.68,39.96-9.86,79.86-15.61,119.68c-1.92,13.28-3.7,26.61-5.96,39.84
			c-2.41,14.1-15.54,21.3-27.27,27.27c-6.78,3.45-13.74,6.58-20.81,9.39c-38.05,15.13-78.37,24.78-118.44,32.79
			c-50.73,10.14-102.16,17.03-153.74,20.96c-53.87,4.11-108.14,5.13-162.04,1.1c-46.85-3.51-94.53-10.42-138.72-26.96
			c-9.18-3.44-18.19-7.33-26.93-11.77c0.33,2.31,0.67,4.63,1,6.94c31.07-95.75,55.85-193.54,73.98-292.56
			c18.12-98.96,29.66-199.13,34.56-299.61c2.74-56.29,3.36-112.68,1.89-169.02c-0.09-3.28-2.68-4.58-5.51-3.18
			C647.91,227.69,645.59,231.97,645.68,235.35L645.68,235.35z"/>
	</g>
</g>
<g>
	<g>
		<path d="M647.6,475.12c-20.37-13.82-34-37.46-44.06-59.35c-11.53-25.09-16.86-51.35-22.07-78.31
			c-3.05-15.76-6.28-31.53-11.28-46.81c-4.92-15.04-13-28.87-17.58-44c-3.3-10.9-4.5-24.58,4.48-33.28
			c9.08-8.79,22.24-3.52,29.07,5.2c18.17,23.16,7.06,58.01-15.17,73.88c-5.32,3.8-5.04,16.14,2.94,10.44
			c24-17.13,38.37-51.4,29.41-80.29c-3.85-12.42-13.03-25.17-26.7-27.28c-14.12-2.18-26.11,8.58-32.03,20.38
			c-7.26,14.47-6.17,29.99-0.73,44.89c3.16,8.65,7.36,16.86,10.88,25.36c3.47,8.38,6.27,17.03,8.63,25.79
			c8.7,32.29,11.36,66.07,23.28,97.49c10.95,28.88,27.15,61.03,53.44,78.86C645.07,491.49,652.78,478.64,647.6,475.12L647.6,475.12z
			"/>
	</g>
</g>
<g>
	<g>
		<path d="M1246.68,408.58c28.37-19.92,49.56-49.12,64.64-80.03c7.84-16.07,14.18-32.76,18.64-50.08
			c4.62-17.94,6.03-36.29,7.31-54.72c2.93-42.18,3.63-85.64,18.19-125.84c6.43-17.75,17.02-38.36,6.3-56.64
			c-3.9-6.65-10.9-12.43-18.89-12.74c-8.05-0.31-15.14,4.4-19.99,10.5c-11.96,15.02-12.41,35.62-9.78,53.73
			c2.72,18.67,8.72,37.38,17.98,53.85c3.1,5.53,12.18-6.2,9.3-11.33c-7.25-12.9-12.06-27.32-15.13-41.76
			c-2.84-13.34-4.94-28.85,0.47-41.83c2.48-5.94,7.04-10.41,13.96-9.22c7.21,1.24,12.79,8.18,14.85,14.85
			c2.68,8.67-0.32,17.91-3.36,26.07c-3.3,8.86-6.82,17.57-9.47,26.66c-10.64,36.52-12.31,74.62-14.76,112.34
			c-1.1,16.85-1.99,33.83-5.53,50.38c-3.19,14.9-8.13,29.39-14.24,43.33c-13.31,30.39-33.19,60.79-60.71,80.11
			c-2.9,2.04-5.5,5.43-5.3,9.19C1241.32,408.29,1243.87,410.56,1246.68,408.58L1246.68,408.58z"/>
	</g>
</g>
<g>
	<g>
		<path d="M670.88,236.52c24.1-9.06,49.13-15.86,73.85-22.94c38.68-11.08,77.5-21.69,116.31-32.32
			c43.58-11.93,87.17-23.82,130.69-35.96c39.71-11.08,79.39-22.31,118.82-34.37c26.83-8.2,54.01-16.31,79.82-27.41
			c1.9-0.82,3.78-1.66,5.64-2.55c-1.59-0.17-3.17-0.35-4.76-0.52c2.43,4.96,4.86,9.93,7.28,14.89c1.56,3.19,6.11-0.23,7.41-1.77
			c2.21-2.62,3.45-6.38,1.89-9.56c-2.43-4.96-4.85-9.93-7.28-14.89c-0.9-1.83-3.42-1.16-4.76-0.52c-9.32,4.43-17.91,7.53-28.31,11.2
			c-14.34,5.06-28.83,9.71-43.35,14.24c-38.21,11.9-76.71,22.87-115.24,33.68c-43.5,12.21-87.08,24.12-130.66,36.04
			c-39.67,10.86-79.36,21.68-118.93,32.9c-26.8,7.6-53.77,15.02-80.06,24.26c-1.95,0.68-3.89,1.39-5.83,2.11
			c-3.37,1.27-5.92,4.51-6.53,8.08C666.5,233.45,667.44,237.81,670.88,236.52L670.88,236.52z"/>
	</g>
</g>
<g>
	<g>
		<path d="M661.22,237.66c67.07-20.67,133.68-42.76,200.18-65.16c66.9-22.53,133.69-45.38,200.74-67.43
			c37.52-12.34,75.13-24.42,112.88-36.05c-1.31-0.76-2.62-1.51-3.93-2.27c1.61,4.41,3.22,8.81,4.84,13.22
			c2.65,7.23,12.35-3.64,10.41-8.95c-1.61-4.41-3.22-8.81-4.84-13.22c-0.62-1.69-2.03-2.86-3.93-2.27
			c-67.07,20.67-133.68,42.76-200.18,65.16c-66.9,22.53-133.69,45.38-200.74,67.43c-37.52,12.34-75.13,24.42-112.88,36.05
			c-3.39,1.05-5.95,4.66-6.53,8.08C656.81,234.76,657.77,238.72,661.22,237.66L661.22,237.66z"/>
	</g>
</g>
<g>
	<g>
		<path d="M654.26,235.96c63.46-26.76,126.97-53.39,190.8-79.24c64.76-26.23,129.84-51.7,195.49-75.61
			c35.99-13.1,72.15-25.71,108.54-37.63c-1.13-0.36-2.25-0.72-3.38-1.08c3.5,6.17,7,12.34,10.5,18.52
			c3.13,5.53,12.21-6.21,9.3-11.33c-3.5-6.17-7-12.34-10.5-18.52c-0.6-1.06-2.31-1.43-3.38-1.08
			c-65.59,21.48-130.44,45.19-194.84,70.01c-65.68,25.31-130.89,51.82-195.9,78.81c-35.67,14.81-71.27,29.77-106.86,44.78
			C648.71,225.85,646.03,239.43,654.26,235.96L654.26,235.96z"/>
	</g>
</g>
<g>
	<g>
		<path d="M829.74,1035.28c3.28,58.57,7.58,117.09,11.31,175.63c1.02,15.95,1.99,31.89,2.89,47.85c2.66-3.29,5.32-6.58,7.99-9.86
			c-18.24,0.01-36.49,0.02-54.73,0.03c-8.96,0-17.91,0.01-26.87,0.01c-5.27,0-17.39,2.32-20.04-3.93c-1.97-4.64,1.6-9.66,4.45-12.98
			c4.27-4.98,9.85-8.79,15.82-11.46c11.95-5.34,26.07-5.59,38.08-0.35c13.65,5.96,24.31,17.57,28.59,31.86
			c2.18,7.27,12.03-3.55,10.41-8.95c-9.46-31.57-44.01-48.5-74.59-36.07c-14.67,5.96-29.33,18.55-33.2,34.47
			c-1.53,6.28-1.41,14.35,4.35,18.54c3.19,2.32,7.21,2.56,11,2.59c5.64,0.05,11.28-0.01,16.92-0.01
			c24.88-0.01,49.75-0.02,74.63-0.04c4.5,0,8.22-5.69,7.99-9.86c-3.28-58.57-7.58-117.09-11.31-175.63
			c-1.02-15.95-1.99-31.89-2.89-47.85c-0.18-3.25-2.62-4.62-5.51-3.18C832.04,1027.58,829.55,1031.93,829.74,1035.28L829.74,1035.28
			z"/>
	</g>
</g>
<g>
	<g>
		<path d="M1002.33,1010.34c-22.45,64.52-44.1,129.32-66.19,193.97c-6.05,17.71-12.13,35.4-18.28,53.08
			c-0.73,2.11-1.4,7.19,2.17,7.3c23.74,0.78,47.48,1.55,71.23,2.33c10.01,0.33,21.2,1.84,30.38-3.13
			c7.02-3.8,11.75-10.98,13.81-18.55c4.33-15.91-3.45-32.13-19.33-37.33c-16.13-5.29-31.2,1.21-45.45,8.42
			c-14.97,7.58-32.01,15.75-43.86,27.92c-2.3,2.36-4.91,6.18-3.73,9.69c1.05,3.11,4.64,2.84,6.68,0.75
			c8.63-8.85,20.39-14.92,31.14-20.76c10.99-5.96,23.18-13.62,35.98-14.24c13.24-0.64,27.85,6.21,28.93,20.87
			c0.37,5.02-0.82,9.49-5.76,11.49c-8.18,3.3-18.93,1.3-27.52,1.02c-22.44-0.73-44.88-1.47-67.32-2.2c0.72,2.43,1.45,4.87,2.17,7.3
			c22.45-64.52,44.1-129.32,66.19-193.97c6.05-17.71,12.13-35.4,18.28-53.08c0.86-2.47,1.28-6.75-2.17-7.3
			C1006.37,1003.39,1003.23,1007.76,1002.33,1010.34L1002.33,1010.34z"/>
	</g>
</g>
<g>
	<g>
		<path d="M1090.28,745.67c11.56-26.85,20.03-55.17,28.77-83.03c9.02-28.76,17.65-57.65,26.06-86.6c1.75-6.04,3.5-12.08,5.22-18.12
			c-2.44,2.14-4.89,4.28-7.33,6.42c16.56,3.13,33.12,6.25,49.69,9.38c-0.89-1.84-1.79-3.68-2.68-5.53
			c-13.4,51.05-27.35,102.03-42.96,152.45c-4.58,14.82-9.25,29.65-14.83,44.13c2.83-2.02,5.67-4.03,8.5-6.05
			c-17.12-6.05-34.24-12.09-51.37-18.14c-5.96-2.1-12.95,11.07-7.5,12.99c17.12,6.05,34.24,12.09,51.37,18.14
			c3.94,1.39,7.25-2.8,8.5-6.05c11.19-29.07,19.62-59.31,28.24-89.21c8.79-30.5,17.23-61.1,25.45-91.76
			c1.71-6.38,3.42-12.77,5.1-19.16c0.59-2.25-0.17-5.05-2.68-5.53c-16.56-3.13-33.12-6.25-49.69-9.38c-3.17-0.6-6.62,3.91-7.33,6.42
			c-13.96,49.09-28.48,98.11-44.81,146.47c-4.69,13.88-9.44,27.81-15.24,41.28c-1.04,2.42-1.15,6.77,2.17,7.3
			C1086.39,752.64,1089.19,748.2,1090.28,745.67L1090.28,745.67z"/>
	</g>
</g>
<g>
	<g>
		<path d="M1080.27,753.03c-2.08,21.52-2.93,43.14-5,64.66c-0.48,4.94,2.65,6.91,6.73,3.89c19.88-14.72,40.07-28.8,55.6-48.35
			c1.81-2.28,3.99-6.81,1.89-9.56s-5.86-0.19-7.41,1.77c-14.73,18.54-34.18,31.75-53.03,45.7c2.24,1.3,4.49,2.59,6.73,3.89
			c2.08-21.52,2.93-43.14,5-64.66C1091.73,740.6,1080.9,746.52,1080.27,753.03L1080.27,753.03z"/>
	</g>
</g>
<g>
	<g>
		<path d="M1082.95,790.89c9.38,2.81,19.17,3.95,28.55,6.76c5.37,1.61,11.82-11.73,5.16-13.72c-9.38-2.81-19.17-3.95-28.55-6.76
			C1082.73,775.56,1076.29,788.89,1082.95,790.89L1082.95,790.89z"/>
	</g>
</g>
<g>
	<g>
		<path d="M1072.98,835.18c-10.96,4.28-15.84,19.3-8.37,28.93c8.5,10.95,24.65,5.77,35.66,11.48c3.55,1.84,7.84,5.74,6.16,10.16
			c-1.76,4.61-7.15,8.57-10.4,12.15c-8.26,9.11-14.91,21.31-9.89,33.73c6.13,15.17,24.47,17.01,36.14,7.04
			c2.46-2.1,4.85-6.38,3.73-9.69c-1.11-3.31-4.51-2.6-6.68-0.75c-9.82,8.38-29.19-2.26-23.29-15.31c2.22-4.93,7.08-8.84,10.68-12.75
			c3.95-4.3,7.67-9.02,9.62-14.6c4.65-13.26-4.25-23.04-16.84-25.8c-6.8-1.49-14.28-0.74-20.75-3.62c-2.51-1.11-4.74-2.61-5.96-5.14
			c-0.49-1.02-0.46-2.25-0.89-3.22c-0.1-0.51-0.07-1,0.11-1.47c-0.23,1.01-0.75,1.79-1.57,2.35c3.36-1.31,5.92-4.48,6.53-8.08
			C1077.36,838.29,1076.41,833.84,1072.98,835.18L1072.98,835.18z"/>
	</g>
</g>
<g>
	<g>
		<path d="M858.64,343.9c-3.94-16.97,8.59-34.27,26-35.88c18.71-1.74,37.46,14.49,38.23,33.24c0.13,3.27,2.65,4.6,5.51,3.18
			c3.04-1.5,5.44-5.82,5.3-9.19c-1.03-24.87-25.44-46.05-50.49-40.04c-24.19,5.8-40.52,33.73-34.97,57.63
			c0.81,3.48,4.69,2.36,6.68,0.75C857.57,351.44,859.43,347.32,858.64,343.9L858.64,343.9z"/>
	</g>
</g>
<g>
	<g>
		<path d="M994.11,315.16c1.35-16.32,18.17-27.95,33.83-26.67c16.73,1.37,31.98,15.84,33.35,32.72c0.72,8.86,11.29-0.23,10.81-6
			c-1.83-22.38-21.42-42.04-44.6-40.44c-23.89,1.64-42.31,23.35-44.22,46.4c-0.28,3.37,2.92,4.46,5.51,3.18
			C992.16,322.69,993.82,318.65,994.11,315.16L994.11,315.16z"/>
	</g>
</g>
<g>
	<g>
		<path d="M914.64,414.21c46.16,13.74,97.81-3.01,129.02-39.17c-2.72-0.3-5.45-0.6-8.17-0.89c0.08,29.05,0.08,64.89-23.08,86.17
			c-9.58,8.8-22.3,15.01-35.56,14.4c-14.35-0.66-26.37-9.24-34.6-20.6c-10.79-14.9-14.55-33.34-18.26-51
			c-0.74-3.51-4.73-2.32-6.68-0.75c-2.71,2.19-4.46,6.23-3.73,9.69c6.5,30.92,18.62,73.27,56.71,76.29
			c33.95,2.7,60.59-28.11,69.46-57.86c6.03-20.22,6.61-41.4,6.55-62.35c-0.02-5.71-5.74-3.71-8.17-0.89
			c-28.61,33.15-76.75,45.62-118.34,33.24C914.43,398.89,907.99,412.23,914.64,414.21L914.64,414.21z"/>
	</g>
</g>
<g>
	<g>
		<path d="M939.18,458.57c4.04-6.21,15.07-9.98,22.62-11.44c7.62-1.48,18.24-1.75,22.82,5.78c3.11,5.12,9.55-4.16,9.91-7
			c0.83-6.52,5.73-10.74,12.36-11.17c7.25-0.47,13.81,3.49,17.54,9.53c3.39,5.49,12.39-6.32,9.3-11.33
			c-5.82-9.43-17.82-14.36-28.51-10.83c-11.34,3.75-19.73,14.72-21.21,26.46c3.3-2.33,6.61-4.67,9.91-7
			c-6.21-10.21-20.46-9.92-30.71-7.7c-12.52,2.7-24.73,9.29-31.82,20.2c-1.42,2.18-2.72,7.09,0.15,8.75
			C934.56,464.57,937.8,460.68,939.18,458.57L939.18,458.57z"/>
	</g>
</g>
<g id="Ebene_10">
	<g class="st5">
		<path d="M569.96,209.34c-7.92,19.61-4.93,43.23,7.63,60.25c3.74,5.07,8.48,11.6,5.13,16.94c-2.71,4.31-9.43,4.31-13.56,1.33
			s-6.31-7.9-8.3-12.59c-5-11.77-10.09-23.89-10.48-36.68c-0.4-12.79,4.95-26.59,16.24-32.6"/>
		<g>
			<path class="st2" d="M565.21,208.9c-5.12,13.18-6.34,27.5-3.41,41.35c1.42,6.71,3.97,13.22,7.36,19.18
				c1.65,2.9,3.65,5.53,5.55,8.27c1.04,1.49,2.08,3.01,2.83,4.67c0.35,0.67,0.61,1.37,0.78,2.11c2.06-1.53,2.29-2.01,0.68-1.44
				c-1.04-0.41-2.64,0-3.83-0.43c-1.88-0.67-3.34-2.04-4.59-3.55c-2.01-2.43-3.27-5.39-4.51-8.25c-3.38-7.82-6.7-15.79-8.7-24.1
				c-2.87-11.94-2.69-27.67,9.36-34.52c3.01-1.71,5.48-5.65,5.3-9.19c-0.16-3.15-2.62-4.83-5.51-3.18
				c-12.08,6.87-19.46,20.07-21.1,33.68c-1.92,15.94,3.76,30.99,9.89,45.41c2.52,5.93,5.24,12.83,11.2,16.13
				c5.53,3.07,12.39,1.94,16.94-2.3c5.2-4.85,7.22-12.62,4.57-19.25c-2.54-6.36-7.53-11.36-10.66-17.42
				c-7.33-14.2-8.42-31.39-2.63-46.28c0.95-2.45,1.21-6.76-2.17-7.3C569.18,201.94,566.2,206.34,565.21,208.9L565.21,208.9z"/>
		</g>
	</g>
	<g class="st5">
		<path d="M1332.91,45.35c1.86,22.92,3.73,45.84,5.59,68.76c0.31,3.77-0.67,9.03-4.45,8.98c-2.62-0.04-4.21-2.86-5.12-5.32
			c-9.31-24.97-6.44-54.16,7.54-76.84"/>
		<g>
			<path class="st2" d="M1327.5,48.35c1.14,14.08,2.29,28.16,3.43,42.24c0.56,6.88,1.12,13.75,1.68,20.63
				c0.19,2.29-0.29,6,0.48,8.11c-0.29,1.78,0.51,0.56,2.41-3.65c-0.26-0.37-0.51-0.74-0.77-1.1c-0.47-1.45-1.2-2.88-1.68-4.35
				c-7.33-22.23-4.79-46.98,7.31-67.04c1.34-2.23,2.77-7.06-0.15-8.75c-2.98-1.72-6.35,2.09-7.65,4.25
				c-8.29,13.75-13.11,29.24-14.22,45.25c-0.52,7.56-0.06,15.12,1.19,22.59c1.07,6.42,2.49,16.03,7.12,20.93
				c5.66,6,12.94-0.2,15.44-5.97c3.04-7.01,1.45-14.8,0.86-22.16c-1.54-18.99-3.09-37.98-4.63-56.97
				C1337.6,33.48,1327.03,42.58,1327.5,48.35L1327.5,48.35z"/>
		</g>
	</g>
	<g class="st5">
		<path d="M763.49,211.97c147.33-33.79,292.83-75.57,435.64-125.1c-148.05,56.32-301.15,99.37-456.86,128.45"/>
		<g>
			<path class="st2" d="M762.22,218.71c114.9-26.38,228.69-57.56,340.96-93.52c31.68-10.15,63.24-20.68,94.67-31.57
				c0.85-4.5,1.69-8.99,2.54-13.49c-115.37,43.84-233.75,79.7-354.09,107.14c-34.11,7.78-68.38,14.87-102.77,21.31
				c-5.51,1.03-10.12,14.91-2.54,13.49c121.32-22.7,241.04-53.79,358.04-93.08c33.17-11.14,66.11-22.94,98.82-35.37
				c3.37-1.28,5.92-4.5,6.53-8.08c0.41-2.41-0.54-6.6-3.99-5.41C1089,118.73,976,152.67,861.75,181.76
				c-32.24,8.21-64.58,16.02-97,23.47C759.31,206.48,754.77,220.42,762.22,218.71L762.22,218.71z"/>
		</g>
	</g>
	<g class="st5">
		<path d="M944.58,142.4c75.42-28.6,153.1-51.23,232.07-67.6c-64.97,19.79-129.95,39.57-194.92,59.36"/>
		<g>
			<path class="st2" d="M943.3,149.14c75.46-28.56,153.08-51.17,232.07-67.6c0.85-4.5,1.69-8.99,2.54-13.49
				c-64.97,19.79-129.95,39.57-194.93,59.36c-3.4,1.03-5.95,4.67-6.53,8.08c-0.43,2.53,0.53,6.46,3.99,5.41
				c64.97-19.79,129.95-39.57,194.93-59.36c3.4-1.03,5.95-4.67,6.53-8.08c0.47-2.8-0.53-6.13-3.99-5.41
				c-78.99,16.43-156.62,39.05-232.07,67.6c-3.37,1.28-5.92,4.5-6.53,8.08C938.92,146.06,939.87,150.44,943.3,149.14L943.3,149.14z"
				/>
		</g>
	</g>
	<g class="st5">
		<path d="M747.71,190.14c137.91-44.01,275.81-88.01,413.72-132.02c-116.09,46.11-234.73,85.81-355.19,118.86"/>
		<g>
			<path class="st2" d="M746.44,196.88c107.54-34.32,215.08-68.63,322.63-102.95c30.36-9.69,60.73-19.38,91.09-29.07
				c0.85-4.5,1.69-8.99,2.54-13.49c-90.37,35.87-182.26,67.9-275.36,95.91c-26.51,7.98-53.13,15.62-79.82,22.95
				c-3.4,0.93-5.96,4.74-6.53,8.08c-0.44,2.61,0.53,6.36,3.99,5.41c93.76-25.75,186.41-55.47,277.63-89.14
				c25.97-9.59,51.83-19.5,77.56-29.72c3.36-1.33,5.92-4.46,6.53-8.08c0.42-2.49-0.53-6.51-3.99-5.41
				C1055.17,85.69,947.63,120,840.08,154.32c-30.36,9.69-60.73,19.38-91.09,29.07c-3.39,1.08-5.94,4.63-6.53,8.08
				C742.03,193.96,742.98,197.98,746.44,196.88L746.44,196.88z"/>
		</g>
	</g>
	<g class="st5">
		<path d="M691.53,236.4c-15.26,132.72-28.08,271.6-37.38,404.87c-4.55,65.26-32.82,139.45-5.72,198.98
			c41.94,92.11,147.7,141.58,248.82,145.75s300.98-56.25,300.98-56.25s19.58,20.06-63.4,47.85
			c-145.88,48.86-327.04,55.23-489.3,42.66c-28.87-2.24-104.23-30.17-104.23-30.17s18.26-59.52,26.31-88.16
			c57.79-205.73,83.73-451.97,84.68-665.67"/>
		<g>
			<path class="st2" d="M686.28,237.73C673.89,345.55,663.46,453.6,654.9,561.8c-2.13,26.85-4.11,53.7-6.01,80.57
				c-1.69,23.89-6.15,47.44-10.09,71.03c-7.59,45.43-13.87,93.43,6.82,136.42c35.35,73.46,111.31,118.13,188.67,135.19
				c34.84,7.68,70.08,9.49,105.56,6.36c35.31-3.11,70.33-9.27,105.02-16.46c50.3-10.43,100.26-23.04,149.52-37.64
				c0.86-0.26,1.73-0.51,2.59-0.77c-1.13-0.36-2.25-0.72-3.38-1.08c0.08,0.08,0.42,0.58,0.45,0.57c0.41-0.08,0.79,1.78,0.37,0.56
				c0.13,0.38,0.23,0.76,0.36,1.14c0.55,1.66-0.35-1.02,0.06,0.37c0.32,1.08,0.26,1.23,0.06,0.24c0.05,0.27-0.13,0.63-0.16,0.9
				c-0.13,1.36,0.46-1.35,0.11-0.34c-0.12,0.34-0.26,0.68-0.38,1.02c-0.4,1.08,1.04-1.65,0.08-0.2c-0.24,0.36-0.43,0.76-0.66,1.13
				c-0.91,1.44,0.76-0.89-0.1,0.13c-2.13,2.53-1.78,2.3-4.43,4.55c-6.26,5.32-13.73,9.22-21.11,12.73
				c-25.5,12.15-53.38,19.9-80.64,27.03c-28.19,7.36-56.53,20.42-85.28,25.09c-59.88,9.72-125.28,21.13-185.9,22.33
				c-30.72,0.61-56.88-6.73-87.58-7.79c-15.01-0.52-31.07,1.84-46.06,0.96c-13.11-0.77-24.23-3.89-37.26-5.59
				c-18.36-2.4-43.69-10.89-56.35-13.82c-16.11-3.73-27.5-16.78-41.65-21.94c-0.82-0.3-1.64-0.6-2.46-0.9
				c0.33,2.31,0.67,4.63,1,6.94c8.99-29.29,17.96-58.59,26.29-88.07c14.48-51.31,26.49-103.31,36.66-155.64
				c21.31-109.66,34.7-220.86,42.16-332.3c4.04-60.34,6.25-120.8,6.53-181.27c0.02-3.31-2.75-4.55-5.51-3.18
				c-3.15,1.56-5.29,5.77-5.3,9.19c-0.52,108.62-7.07,217.27-19.8,325.15c-12.75,108.08-31.51,215.74-59.79,320.88
				c-9.42,35.01-20.11,69.69-30.75,104.35c-0.52,1.68-1.5,6.01,1,6.94c30.02,11.12,60.87,22.1,92.27,28.52
				c10.62,2.17,21.4,2.67,32.2,3.4c15.8,1.07,31.6,1.94,47.42,2.61c31.54,1.33,63.11,1.86,94.67,1.47
				c63.06-0.79,126.2-5.16,188.54-14.86c30.25-4.71,60.32-10.7,89.96-18.35c28.23-7.28,56.85-15.43,83.4-27.64
				c13.42-6.17,29.2-14.31,36.51-27.91c2.94-5.48,4.94-13.6,0.84-19.11c-0.16-0.21-0.3-0.43-0.48-0.62
				c-0.92-0.95-2.02-1.49-3.38-1.08c-40.69,12.29-82.01,22.81-123.46,32.19c-34.61,7.84-69.49,14.77-104.68,19.46
				c-32.95,4.39-65.82,6.27-98.91,2.26c-77.51-9.41-156.76-45.45-201.89-111.39c-11.94-17.45-21.61-36.56-25.65-57.45
				c-4.34-22.42-2.9-45.71-0.02-68.22c3.03-23.74,7.81-47.21,11.25-70.88c3.59-24.75,4.73-49.77,6.59-74.69
				c8.03-107.21,17.95-214.29,29.76-321.15c1.4-12.7,2.84-25.39,4.29-38.08C697.91,225.31,687.02,231.25,686.28,237.73
				L686.28,237.73z"/>
		</g>
	</g>
	<g class="st5">
		<path d="M802.51,1217.58c-10.29-4.29-19.58,7.61-24.56,17.58s-14.8,21.65-24.84,16.81c-7.14-3.44-8.2-13.98-3.94-20.66
			s11.99-10.23,19.5-12.77c7.51-2.53,15.44-4.52,21.71-9.37"/>
		<g>
			<path class="st2" d="M806.26,1211.09c-10.76-3.81-20,3.68-26.14,12.02c-3.47,4.71-5.71,10.03-8.95,14.86
				c-2.35,3.51-5.91,7.98-10.51,8.28c-4.5,0.3-7.97-3.33-8.54-7.57c-0.6-4.37,2.15-6.96,5.67-9.12c10.75-6.6,23.64-7.59,34.05-15.16
				c5.27-3.84,4.99-16.21-2.94-10.44c-6.19,4.5-14.02,6-21.08,8.59c-6.36,2.33-12.49,5.32-17.39,10.1
				c-7.85,7.68-13.38,22.47-5.53,32.16c8.81,10.88,22.44,2.27,29.39-5.88c4.32-5.07,6.85-11.04,10.4-16.58
				c3.01-4.71,7.79-10.5,14.08-8.27C804.72,1226.19,811.71,1213.02,806.26,1211.09L806.26,1211.09z"/>
		</g>
	</g>
	<g class="st5">
		<path d="M1009.31,1227.63c-14.72-2.33-27.31,9.54-39.09,18.67c-11.78,9.13-30.19,15.66-40.29,4.71
			c18.46-22.55,49.02-34.53,77.89-30.55"/>
		<g>
			<path class="st2" d="M1011.89,1220.77c-16-2.01-28.98,9.13-40.69,18.39c-9.28,7.33-26.17,16.72-36.62,6.19
				c-0.63,3.19-1.26,6.37-1.89,9.56c17.54-21.01,45.6-31.04,72.55-27.59c5.75,0.74,11.82-12.87,5.16-13.72
				c-31.43-4.02-63.05,9.35-83.23,33.52c-1.62,1.94-4.23,7.21-1.89,9.56c10.97,11.06,27.25,6.9,39.29-0.27
				c13.3-7.92,25.03-24.07,42.16-21.91C1012.49,1235.22,1018.55,1221.61,1011.89,1220.77L1011.89,1220.77z"/>
		</g>
	</g>
	<g class="st5">
		<g>
			<path class="st2" d="M1182.75,181.97c6.2,79.53,6.75,159.48,1.51,239.08c-1.48,22.47-3.43,44.9-5.83,67.29
				c-1.05,9.75,9.82,3.82,10.52-2.67c8.57-79.88,11.55-160.31,8.6-240.6c-0.85-23.06-2.19-46.09-3.98-69.1
				C1192.88,167.11,1182.31,176.2,1182.75,181.97L1182.75,181.97z"/>
		</g>
	</g>
</g>
<g id="Ebene_11">
	<g class="st5">
		<g>
			<path class="st2" d="M1170.72,173.25c1,79.98,1.99,159.95,2.99,239.93c0.28,22.66,0.57,45.32,0.85,67.98
				c0.04,3.29,2.71,4.57,5.51,3.18c3.11-1.54,5.35-5.79,5.3-9.19c-1-79.98-1.99-159.95-2.99-239.93
				c-0.28-22.66-0.57-45.32-0.85-67.98c-0.04-3.29-2.71-4.57-5.51-3.18C1172.92,165.6,1170.68,169.85,1170.72,173.25L1170.72,173.25
				z"/>
		</g>
	</g>
</g>
<g>
	<g>
		<path d="M681.39,546.53c9.11,38.49,18.21,76.97,27.32,115.46c1.45,6.15,10.74,7.47,13.71,1.79c9.96-19.05,19.92-38.1,29.88-57.15
			c-4.57-0.6-9.14-1.19-13.71-1.79c8.55,20.66,17.1,41.33,25.64,61.99c1.29,3.11,3.64,5.51,7.23,5.51c3.01,0,6.76-2.3,7.23-5.51
			c6.46-43.73,21.48-85.58,51.54-118.73c6.47-7.14-4.11-17.78-10.61-10.61c-31.79,35.06-48.55,79-55.4,125.35c4.82,0,9.64,0,14.46,0
			c-8.55-20.66-17.1-41.33-25.64-61.99c-2.25-5.44-10.41-8.1-13.71-1.79c-9.96,19.05-19.92,38.1-29.88,57.15
			c4.57,0.6,9.14,1.19,13.71,1.79c-9.11-38.49-18.21-76.97-27.32-115.46C693.64,533.15,679.17,537.12,681.39,546.53L681.39,546.53z"
			/>
	</g>
</g>
<g>
	<g>
		<path d="M861.23,596.88c-5.01-9-12.58-17.64-23.18-19.62c-9.38-1.75-18.23,1.96-25.29,7.99c-16.62,14.18-22.48,39.42-18.23,60.19
			c3.24,15.85,14.04,30.82,30.8,33.67c15.14,2.58,29.88-4.31,38.76-16.62c13.45-18.61,8.81-43.13-0.29-62.47
			c-4.11-8.73-17.04-1.12-12.95,7.57c6,12.75,9.67,29.07,3.71,41.63c-2.24,4.72-5.57,8.71-9.13,11.1c-1.04,0.7-2.12,1.33-3.23,1.92
			c-1.56,0.83-0.73,0.51-2.63,1.13c-2.67,0.86-4.75,1.29-6.17,1.32c-5.04,0.1-8.23-0.52-12.16-2.88c-3.91-2.35-7.28-6.34-9.54-11.4
			c-6.66-14.87-3.93-33.87,5.09-47.24c3.54-5.25,9.61-10.75,14.93-11.35c7.42-0.83,12.86,5.99,16.55,12.62
			C852.97,612.88,865.93,605.33,861.23,596.88L861.23,596.88z"/>
	</g>
</g>
<g>
	<g>
		<path d="M875.58,582.08c1.72,35.18,3.95,70.33,5.68,105.52c0.47,9.61,15.47,9.66,15,0c-1.72-35.18-3.95-70.33-5.68-105.52
			C890.1,572.47,875.1,572.41,875.58,582.08L875.58,582.08z"/>
	</g>
</g>
<g>
	<g>
		<path d="M886.86,586.52c10.97-7.37,22.57-8.06,34.35-1.9c7.69,4.02,12.29,11.51,12.63,20.23c0.73,19.01-20.6,30.66-37.4,23.41
			c-3.48-1.5-7.21-1.27-9.68,1.93c-2.19,2.84-2.17,7.29,0.59,9.85c16.65,15.42,31.25,32.82,47.26,48.88
			c6.82,6.85,17.43-3.76,10.61-10.61c-16-16.06-30.61-33.47-47.26-48.88c-3.03,3.93-6.06,7.85-9.09,11.78
			c26.52,11.44,61.14-4.9,59.97-36.36c-0.51-13.8-7.7-26.69-20.06-33.18c-16.29-8.56-34.04-8.47-49.49,1.9
			C871.32,578.92,878.82,591.92,886.86,586.52L886.86,586.52z"/>
	</g>
</g>
<g>
	<g>
		<path d="M960.54,580.04c2.3,35.84,3.88,71.71,6.19,107.55c0.62,9.59,15.62,9.65,15,0c-2.3-35.84-3.88-71.71-6.19-107.55
			C974.92,570.46,959.92,570.39,960.54,580.04L960.54,580.04z"/>
	</g>
</g>
<g>
	<g>
		<path d="M983.09,651.23c23.82-19.47,47.64-38.94,71.47-58.42c3.16-2.58,2.63-7.92,0-10.61c-3.07-3.14-7.49-2.55-10.61,0
			c-23.82,19.47-47.64,38.94-71.47,58.42c-3.16,2.58-2.63,7.92,0,10.61C975.55,654.37,979.97,653.78,983.09,651.23L983.09,651.23z"
			/>
	</g>
</g>
<g>
	<g>
		<path d="M1002.35,632.58c10.91,18.27,21.81,36.55,32.72,54.82c4.94,8.28,17.92,0.75,12.95-7.57
			c-10.91-18.27-21.81-36.55-32.72-54.82C1010.36,616.73,997.39,624.27,1002.35,632.58L1002.35,632.58z"/>
	</g>
</g>
<g>
	<g>
		<path d="M1059.19,646.59c9.11-0.21,18.23-0.41,27.34-0.62c9.64-0.22,9.67-15.22,0-15c-9.11,0.21-18.23,0.41-27.34,0.62
			C1049.55,631.81,1049.52,646.81,1059.19,646.59L1059.19,646.59z"/>
	</g>
</g>
<g>
	<g>
		<path d="M681.12,728.42c-2.35,41.17-5.84,82.26-8.19,123.43c-0.55,9.64,14.45,9.61,15,0c2.35-41.17,5.84-82.26,8.19-123.43
			C696.68,718.77,681.67,718.8,681.12,728.42L681.12,728.42z"/>
	</g>
</g>
<g>
	<g>
		<path d="M693.93,733.72c10.92-10.6,26.4-15.41,40.87-9.15c12.25,5.3,18.96,16.52,18.69,29.74c-0.23,11.44-6.34,23.92-17.62,28.04
			c-5.74,2.09-11.97,2.13-17.99,2.06c-8.1-0.09-16.19-0.58-24.3-0.6c-9.76-0.03-9.52,14.27,0,15c22.1,1.69,47.16-1.3,63.71,16.62
			c7.9,8.56,12.38,21.49,6.04,32.2c-5.78,9.74-18.03,14.47-28.92,14.75c-17.67,0.45-34.06-8.88-49.07-17.09
			c-8.47-4.63-16.05,8.32-7.57,12.95c16.58,9.06,33.98,18.24,53.26,19.1c14.81,0.66,31.27-4.88,41.06-16.38
			c10.88-12.79,11.68-29.86,4.1-44.53c-7.12-13.77-20.38-23.39-34.98-27.94c-15.13-4.71-31.98-3.47-47.62-4.67c0,5,0,10,0,15
			c14.02,0.05,28.75,2.24,42.57-0.94c12.76-2.94,22.96-12.33,28.12-24.23c5.66-13.04,5.59-28.02-0.3-40.97
			c-5.78-12.73-18.33-21.6-31.8-24.63c-18.07-4.06-35.77,2.39-48.83,15.08C676.38,729.85,686.99,740.45,693.93,733.72L693.93,733.72
			z"/>
	</g>
</g>
<g>
	<g>
		<path d="M864.24,784.33c-3.83-20.83-26.23-36.37-46.84-27.47c-21.89,9.45-31.86,35.97-33.36,58.01
			c-1.58,23.28,2.11,52.46,25.29,64.39c21.48,11.06,44.72-2.74,53.74-23.29c4.61-10.51,5.23-22.3,5.05-33.64
			c-0.19-11.99-1.5-23.97-3.44-35.79c-1.56-9.5-16.02-5.47-14.46,3.99c2.57,15.61,4.32,32.38,2.21,48.13
			c-1.84,13.73-12.28,30.86-28.19,29.7c-19.25-1.4-24.99-24.63-25.45-40.22c-0.55-18.7,2.51-37.53,16.13-51.37
			c5.84-5.94,12.53-8.96,20.73-6.3c8.28,2.68,12.61,9.62,14.13,17.87C851.51,797.79,865.97,793.78,864.24,784.33L864.24,784.33z"/>
	</g>
</g>
<g>
	<g>
		<path d="M952.75,788.14c-5.83-19.88-26.46-41.56-48.27-28.17c-21.27,13.06-26.56,39.23-28.43,62.14
			c-1.88,23.03,3.23,50.65,27.62,59.76c21.91,8.19,43.38-10.25,49.12-30.59c2.86-10.12,3.1-21.21,3-31.65
			c-0.11-11.13-0.93-22.38-3.05-33.32c-1.84-9.47-16.3-5.46-14.46,3.99c2.83,14.58,3.23,30.13,2.02,44.91
			c-1.11,13.64-7.04,30.17-22.3,33.27c-17.79,3.61-26.63-17.63-27.34-31.7c-0.92-18.31,1.25-40.28,12.59-55.31
			c4.82-6.39,12.02-13.32,20.48-9.28c7.62,3.64,12.27,12.18,14.54,19.93C941,801.37,955.48,797.43,952.75,788.14L952.75,788.14z"/>
	</g>
</g>
<g>
	<g>
		<path d="M966.73,763.34c0,39.43,0,78.85,0,118.28c0,9.65,15,9.67,15,0c0-39.43,0-78.85,0-118.28
			C981.73,753.69,966.73,753.67,966.73,763.34L966.73,763.34z"/>
	</g>
</g>
<g>
	<g>
		<path d="M983.16,842.1c22-22.67,41.69-47.46,63.69-70.13c6.73-6.93-3.87-17.55-10.61-10.61c-22,22.67-41.69,47.46-63.69,70.13
			C965.83,838.43,976.42,849.04,983.16,842.1L983.16,842.1z"/>
	</g>
</g>
<g>
	<g>
		<path d="M992.41,822.15c11.32,20.46,22.65,40.9,33.97,61.36c4.67,8.45,17.63,0.89,12.95-7.57c-11.32-20.46-22.65-40.9-33.97-61.36
			C1000.69,806.13,987.73,813.69,992.41,822.15L992.41,822.15z"/>
	</g>
</g>
</svg>
