<?xml version="1.0" encoding="utf-8"?>
<!-- Generator: Adobe Adobe Illustrator 24.2.0, SVG Export Plug-In . SVG Version: 6.00 Build 0)  -->
<svg version="1.1" xmlns="http://www.w3.org/2000/svg" xmlns:xlink="http://www.w3.org/1999/xlink" x="0px" y="0px"
	 viewBox="0 0 1700.79 1700.79" style="enable-background:new 0 0 1700.79 1700.79;" xml:space="preserve">
<style type="text/css">
	.st0{fill:#7E8D9C;}
	.st1{fill:#7C8E9E;}
	.st2{fill:#FFFFFF;}
	.st3{stroke:#000000;stroke-width:1.1782;stroke-miterlimit:10;}
	.st4{fill:#C8354F;}
	.st5{fill:#FFFFFF;stroke:#000000;stroke-width:1.1782;stroke-miterlimit:10;}
	.st6{fill:#FFFFFF;stroke:#000000;stroke-width:1.6325;stroke-miterlimit:10;}
	.st7{fill:#FFFFFF;stroke:#000000;stroke-width:1.7208;stroke-miterlimit:10;}
	.st8{opacity:0.149;}
	.st9{opacity:0.1608;}
	.st10{fill:#F4F5E7;}
	.st11{fill:#F3C057;}
	.st12{fill:#7F8D9C;}
	.st13{fill:#CA334D;}
	.st14{fill:#CA344E;}
</style>
<g id="Ebene_1">
</g>
<g id="Ebene_2">
	<g>
		<g id="Ebene_16">
			<g>
				<g>
					<path class="st0" d="M499.29,1470.29c7.37,0,7.39-11.68,0-11.68C491.92,1458.61,491.91,1470.29,499.29,1470.29L499.29,1470.29z
						"/>
				</g>
			</g>
		</g>
		<g id="Ebene_10">
			<g>
				<g>
					<path class="st1" d="M669.31,1623.66c56.94-1.23,113.85-4.01,170.63-8.33c0.29-5.76,0.57-11.53,0.86-17.28
						c-57.25,4.93-114.49,9.84-171.74,14.77"/>
					<g>
						<path class="st0" d="M669.31,1629.61c56.94-1.24,113.84-4.02,170.63-8.33c3.27-0.25,5.66-2.53,5.84-5.94
							c0.29-5.76,0.57-11.53,0.86-17.28c0.15-3.02-2.8-6.2-5.84-5.94c-57.25,4.93-114.49,9.84-171.74,14.77
							c-7.43,0.64-7.5,12.53,0,11.89c57.25-4.93,114.49-9.84,171.74-14.77c-1.95-1.98-3.89-3.96-5.84-5.94
							c-0.29,5.76-0.57,11.53-0.86,17.28c1.95-1.98,3.89-3.96,5.84-5.94c-56.79,4.31-113.69,7.09-170.63,8.33
							C661.82,1617.87,661.79,1629.77,669.31,1629.61L669.31,1629.61z"/>
					</g>
				</g>
				<g>
					<path class="st1" d="M856.11,1585.53c67.3-5.41,135.15-4.59,202.3,2.44c-68.74,5.63-137.9,6.33-206.74,2.08"/>
					<g>
						<path class="st0" d="M856.11,1591.47c67.36-5.35,135.08-4.53,202.3,2.44c0-3.96,0-7.93,0-11.89
							c-68.77,5.58-137.87,6.28-206.74,2.08c-7.51-0.46-7.47,11.43,0,11.89c68.88,4.19,137.97,3.5,206.74-2.08
							c7.55-0.62,7.45-11.12,0-11.89c-67.21-6.97-134.94-7.79-202.3-2.44C848.67,1580.17,848.6,1592.07,856.11,1591.47
							L856.11,1591.47z"/>
					</g>
				</g>
				<g>
					<path class="st2" d="M722.55,697.11c-27.18,116.84-54.36,233.66-81.53,350.5c-8.2,35.25-14.57,77.3,11.61,103.06
						c22.25,21.88,58.13,21.68,89.81,19.99c81.84-4.34,163.69-8.7,245.54-13.04c18.63-0.99,37.97-2.17,54.34-10.84
						c16.37-8.68,28.77-27.17,23.82-44.57"/>
					<g>
						<path class="st2" d="M716.92,695.53c-15.6,67.08-31.22,134.17-46.82,201.25c-7.89,33.92-15.79,67.84-23.67,101.76
							c-6.66,28.62-15.2,57.51-17.82,86.89c-2.2,24.75,1.56,51.41,19.88,69.43c18.31,18.01,44.79,22.08,69.22,22.4
							c31.3,0.4,62.81-2.69,94.05-4.34c33.73-1.79,67.44-3.58,101.17-5.37c18.95-1,37.89-2.01,56.84-3.02
							c17.2-0.91,34.72-1.06,51.69-4.43c14.91-2.95,29.74-9.19,39.89-21.1c9.1-10.67,13.94-24.38,10.4-38.38
							c-1.87-7.4-13.14-4.26-11.26,3.16c3.1,12.25-3.37,23.9-12.29,31.81c-10.41,9.22-24.81,12.73-38.17,14.39
							c-14.83,1.84-29.89,2.11-44.8,2.91c-15.91,0.84-31.82,1.69-47.75,2.53c-61.81,3.28-123.68,7.65-185.56,9.77
							c-23.4,0.81-50.26,0.53-69.98-14.22c-19.91-14.89-23.66-40.29-21.82-63.79c2.14-27.36,10.31-54.36,16.5-80.96
							c7.36-31.66,14.73-63.31,22.09-94.98c16.49-70.85,32.97-141.71,49.44-212.56C729.91,691.25,718.67,688.07,716.92,695.53
							L716.92,695.53z"/>
					</g>
				</g>
				<g>
					<path class="st2" d="M723.78,696.26c-28.83,125.67-57.66,251.34-86.5,377.01c-5.74,25.05-10.89,53.44,4.14,74.59
						c18.7,26.31,57.72,27.34,90.67,25.64c84.31-4.32,168.62-8.64,252.93-12.96c27.18-1.39,58.55-5.02,73.21-27.21
						c13.03-19.71,6.94-45.48,0.4-68.01c-36.08-124.46-72.15-248.91-108.23-373.38c-71.42,24.31-150.83,26.11-223.35,5.04"/>
					<g>
						<path class="st2" d="M718.15,694.68c-22.06,96.15-44.11,192.29-66.17,288.44c-5.47,23.84-10.94,47.7-16.42,71.54
							c-4.63,20.18-10.64,41.01-9.77,61.95c0.76,18.13,7.7,35.07,22.02,46.31c13.29,10.44,30.04,14.46,46.44,16.14
							c19.01,1.94,38.17,0.37,57.19-0.6c23.93-1.23,47.85-2.45,71.78-3.68c48.23-2.48,96.47-4.94,144.7-7.41
							c32.58-1.67,78.87-0.47,97.25-34.18c9.49-17.42,7.07-38.17,2.54-56.7c-5.55-22.7-12.83-45.06-19.33-67.5
							c-27.33-94.28-54.66-188.55-81.99-282.82c-3.46-11.92-6.91-23.84-10.37-35.78c-0.86-2.97-4.14-5.18-7.18-4.16
							c-70.98,23.94-148.27,25.72-220.25,5.04c-7.25-2.08-10.33,9.39-3.11,11.47c73.85,21.22,153.59,19.52,226.46-5.04
							c-2.4-1.39-4.79-2.77-7.18-4.16c26.25,90.55,52.49,181.1,78.75,271.65c6.59,22.73,13.18,45.46,19.76,68.19
							c5.82,20.08,13.5,40.59,16.14,61.44c2.3,18.26-1.87,36.48-17.95,46.79c-14.18,9.1-31.82,11.3-48.19,12.48
							c-44.82,3.25-89.84,4.68-134.72,6.98c-44.82,2.3-89.68,5.37-134.54,6.83c-30,0.98-73.16-0.86-84.03-36.12
							c-5.51-17.87-1.48-37.4,2.53-55.15c5.18-22.94,10.52-45.87,15.79-68.79c21.11-91.98,42.21-183.97,63.3-275.95
							c2.6-11.36,5.22-22.71,7.82-34.07C731.12,690.4,719.86,687.22,718.15,694.68L718.15,694.68z"/>
					</g>
				</g>
				<g>
					<path class="st2" d="M585.11,1029.46c-16.96-15.27-19.31-43.36-5.11-61.08c14.19-17.73,42.88-22.52,62.4-10.45
						c-18.24,24.46-36.48,48.94-54.71,73.4"/>
					<g>
						<path class="st2" d="M589.24,1025.25c-14.5-13.59-17.49-38.24-4.13-53.85c13.15-15.35,37.34-18.41,54.34-8.34
							c-0.7-2.71-1.4-5.42-2.1-8.14c-18.24,24.46-36.48,48.94-54.71,73.4c-4.54,6.1,5.59,12.03,10.08,6
							c18.24-24.46,36.48-48.94,54.71-73.4c1.9-2.56,0.38-6.67-2.1-8.14c-21.78-12.9-53.12-8.86-69.47,11.38
							c-16.46,20.38-13.84,51.73,5.11,69.49C586.5,1038.83,594.78,1030.45,589.24,1025.25L589.24,1025.25z"/>
					</g>
				</g>
				<g>
					<path class="st2" d="M1047.54,947.37c15.93,18.58,31.86,37.14,47.79,55.72c2.46,2.88,5.16,5.91,8.86,6.97
						c6.86,1.97,13.61-3.62,17.28-9.56c11.51-18.65,6.36-45.26-11.35-58.61c-17.71-13.35-45.64-11.68-61.5,3.69"/>
					<g>
						<path class="st2" d="M1043.42,951.57c14.94,17.41,29.88,34.83,44.81,52.24c5.66,6.61,11.56,13.63,21.06,12.37
							c8.15-1.07,14.61-7.65,18.4-14.71c15.57-28.92-1.96-66.1-33.17-73.11c-17.65-3.96-36.6,0.53-50.03,13.01
							c-5.56,5.17,2.72,13.57,8.25,8.41c11.49-10.7,28.63-13.53,43.25-8.69c14.9,4.94,25.01,19.17,25.74,35.02
							c0.34,7.4-1.24,15.13-5.3,21.38c-2.16,3.32-6.24,7.98-10.68,6.83c-4.01-1.03-7.5-6.84-10.02-9.8
							c-14.69-17.12-29.37-34.25-44.06-51.37C1046.72,937.4,1038.49,945.83,1043.42,951.57L1043.42,951.57z"/>
					</g>
				</g>
				<g>
					<path class="st2" d="M672.89,1591.75c-12.34-32.41-1.22-71.86,26.42-93.72c27.65-21.86,69.8-24.56,100.18-6.4
						s46.75,55.84,38.92,89.55c-57.04-0.28-114.1,3.3-170.63,10.74"/>
					<g>
						<path class="st2" d="M678.52,1590.16c-13.54-36.79,3.6-78.98,38.14-96.08c34.98-17.32,80.98-8.09,103.59,25.03
							c11.98,17.55,17.17,39.48,12.53,60.49c1.88-1.46,3.75-2.91,5.63-4.37c-57.04-0.23-114.04,3.35-170.63,10.74
							c-7.35,0.96-7.44,12.87,0,11.89c56.59-7.39,113.59-10.98,170.63-10.74c2.45,0.01,5.07-1.84,5.63-4.37
							c9.72-44.09-16.74-89.76-58.5-104.03c-42.26-14.44-92.79,2.56-113.52,43.83c-10.94,21.78-13.24,47.71-4.77,70.75
							C669.88,1600.43,681.17,1597.36,678.52,1590.16L678.52,1590.16z"/>
					</g>
				</g>
				<g>
					<path class="st2" d="M846.8,1567.81c-6.7-38.3,12.22-79.65,46.03-100.6c33.81-20.95,80.53-20.28,113.69,1.63
						s50.8,63.78,42.92,101.88c-65.02,0.44-130.04,0.9-195.06,1.34"/>
					<g>
						<path class="st2" d="M852.43,1566.23c-7.21-43.64,20.35-87.95,60.92-102.36c41.68-14.81,91.45-1.7,116.36,36.6
							c13.07,20.1,18.79,44.9,14.11,68.67c1.88-1.46,3.75-2.91,5.63-4.37c-65.02,0.44-130.04,0.9-195.06,1.34
							c-7.51,0.05-7.52,11.95,0,11.89c65.02-0.44,130.04-0.9,195.06-1.34c2.41-0.01,5.12-1.82,5.63-4.37
							c9.71-49.37-18.47-99.66-64.05-118.16c-46.72-18.95-103.04-4.34-132.33,37.86c-15.55,22.4-21.99,50.35-17.53,77.38
							C842.41,1576.92,853.67,1573.72,852.43,1566.23L852.43,1566.23z"/>
					</g>
				</g>
				<g>
					<path class="st2" d="M824.91,244.61c-63.95-18.55-134.66,12.03-179.26,60.09c-75.82,81.68-85.06,214.56-20.21,304.65
						S823.32,737.01,927.6,693.7c104.28-43.3,167.84-163.51,141.96-270.41S930.46,235.82,817.38,244.87"/>
					<g>
						<path d="M826.46,238.88c-53.75-15.21-111.46,2.1-155.42,35.17c-42.11,31.67-71.92,77.85-85.72,129.15
							c-13.32,49.5-11.96,103.47,5.27,151.81c17.13,48.05,49.35,88.22,91.13,116.32c82.8,55.71,197.95,63.84,283.35,9.5
							c82.53-52.51,132.99-157.63,110.81-255.99c-23.01-102.01-120.06-176.19-220.02-185.59c-12.81-1.2-25.68-1.27-38.51-0.3
							c-7.44,0.57-7.51,12.46,0,11.89c97.07-7.39,197.32,51.44,236.32,143.06c37.82,88.85,3.69,193.65-66.08,255.29
							c-73.39,64.84-181.05,71.98-267.36,30.53c-42.62-20.47-79.82-52.56-103.26-94.52c-23.79-42.61-32.7-92.67-27.53-141.24
							c5.2-48.82,25.35-96.28,58.01-132.54c34.78-38.63,85.26-66.09,137.45-66.32c13.03-0.06,25.86,1.72,38.42,5.28
							C830.61,252.4,833.71,240.93,826.46,238.88L826.46,238.88z"/>
					</g>
				</g>
				<g>
					<g>
						<path d="M713.27,694.31c-22.97,98.33-45.96,196.67-68.93,295c-5.72,24.49-11.49,48.97-17.17,73.47
							c-4.23,18.22-8.02,37.14-6.78,55.96c1.18,17.99,7.45,35.61,21.05,47.73c13.79,12.3,31.64,17.22,49.52,19.1
							c20.41,2.14,41.08,0.29,61.49-0.74c24.8-1.24,49.58-2.49,74.38-3.72c49.58-2.49,99.17-4.97,148.76-7.46
							c33.2-1.67,79.98-2.18,96.26-38.32c8.19-18.17,5.47-38.67,0.78-57.41c-5.84-23.33-13.3-46.32-20.04-69.4
							c-28.29-96.94-56.6-193.88-84.89-290.82c-3.47-11.89-6.94-23.77-10.41-35.66c-2.13-7.32-13.4-4.2-11.26,3.16
							c27.1,92.85,54.21,185.71,81.31,278.56c6.72,23.03,13.45,46.05,20.17,69.08c6.12,20.96,13.94,42.19,17.06,63.9
							c2.63,18.31-0.42,37.54-15.92,49.09c-13.76,10.25-31.88,13.05-48.45,14.49c-21.86,1.89-43.9,2.41-65.81,3.5
							c-24.03,1.2-48.06,2.41-72.09,3.62c-46.69,2.35-93.4,5.36-140.12,6.97c-32.87,1.13-76.07-1.79-87.39-40.05
							c-5.16-17.45-2.9-36.42,0.52-53.97c4.26-21.91,9.93-43.58,15.01-65.31c22.01-94.2,44.02-188.38,66.03-282.58
							c2.73-11.68,5.46-23.37,8.19-35.04C726.27,690.02,715.01,686.85,713.27,694.31L713.27,694.31z"/>
					</g>
				</g>
				<g>
					<g>
						<path d="M707.86,686.59c-32.45,24.85-65.55,48.76-98.74,72.58c-9.61,6.9-19.25,13.78-28.55,21.1
							c-5.32,4.19-11.25,8.54-15.1,14.27c-5.64,8.4,0.94,15.37,5.3,22.99c9.4,16.48,18.73,33,27.87,49.63
							c10.55,19.18,20.66,38.62,31.16,57.82c3.35,6.12,6.74,12.23,10.17,18.3c1.91,3.39,3.83,6.77,5.75,10.15
							c1.36,2.39,2.54,3.09,1.31,5.34c-1.38,2.49-4.2,4.88-5.98,7.08c-18.76,23.06-37.51,46.11-56.28,69.17
							c2.36-0.32,4.71-0.62,7.07-0.93c-23.32-13.52-30.95-49.37-11.75-69.9c19.17-20.49,56.1-18.26,73.64,3.12
							c4.83,5.87,13.05-2.57,8.25-8.41c-17.33-21.11-49.13-25.88-73.22-15.05c-24.99,11.23-36.21,39.7-28.95,66.01
							c4,14.5,13.25,27.02,26.13,34.49c2.07,1.2,5.43,1.09,7.07-0.93c16.59-20.4,33.19-40.8,49.78-61.2
							c3.6-4.43,7.13-8.94,10.87-13.25c2.91-3.35,6.25-6.96,6.2-11.74c-0.03-4.08-2.83-7.62-4.77-11.01
							c-1.8-3.15-3.59-6.32-5.37-9.48c-10.52-18.71-20.52-37.69-30.69-56.6c-6.64-12.33-13.39-24.59-20.22-36.81
							c-5.1-9.12-10.25-18.22-15.42-27.3c-2.83-4.96-5.39-10.35-8.6-15.05c-1.41-2.07-0.38-0.12-0.31-0.49
							c-0.11,0.64-0.01,1.39,0.05,1.81c-0.15-1.09-0.52,0.39,0.44-0.92c0.24-0.34,1.11-1.56,0.09-0.22
							c0.37-0.48,0.76-0.96,1.17-1.39c2.18-2.34,4.51-4.47,6.94-6.53c7.66-6.48,15.88-12.3,23.99-18.17
							c35.71-25.83,71.55-51.42,106.57-78.22C719.69,692.31,713.87,681.99,707.86,686.59L707.86,686.59z"/>
					</g>
				</g>
				<g>
					<g>
						<path d="M953.86,695.93c55.77,48.93,113.72,95.33,172.07,141.02c4.86,3.81,9.73,7.61,14.63,11.4
							c-0.39-3.12-0.79-6.22-1.18-9.34c-30.49,30.11-60.99,60.22-91.49,90.33c-4.31,4.25-8.62,8.51-12.93,12.76
							c-1.98,1.95-2.03,4.82-0.92,7.2c5.54,11.74,12.53,21.21,20.89,31.01c13.64,16.02,27.3,32.04,40.94,48.06
							c1.26,1.48,3.86,2.2,5.67,1.53c26.68-9.75,42.79-38.95,37.85-67.32c-5.08-29.22-33.99-45.53-61.48-43.99
							c-15.8,0.89-31.32,7.09-41.97,19.28c-4.99,5.7,3.24,14.14,8.25,8.41c18.78-21.47,58.16-21.66,76.12,1.26
							c18.38,23.45,4.7,61.19-21.9,70.9c1.89,0.51,3.78,1.02,5.67,1.53c-13.15-15.44-26.3-30.87-39.45-46.31
							c-5.16-6.06-10.48-11.78-14.48-18.72c-2.19-3.78-4.21-7.68-6.08-11.63c-0.31,2.41-0.61,4.8-0.92,7.2
							c30.49-30.11,60.99-60.22,91.49-90.33c4.31-4.25,8.62-8.51,12.93-12.76c2.97-2.93,1.72-7.1-1.18-9.34
							c-44.22-34.21-87.85-69.24-130.86-105.01c-18-14.97-35.87-30.1-53.48-45.55C956.45,682.55,948.15,690.92,953.86,695.93
							L953.86,695.93z"/>
					</g>
				</g>
				<g>
					<g>
						<path d="M668.39,1627.25c-7.68-45.01-3.45-103.16,36.09-132.01c19-13.86,43.6-21.3,66.82-16.25
							c24.64,5.36,43.82,23.97,55.38,46.11c15.68,30,16.68,65.12,17.76,98.31c1.95-1.98,3.89-3.96,5.84-5.94
							c-62.39,0.04-124.53,4.38-186.66,9.93c-7.43,0.67-7.5,12.56,0,11.89c62.12-5.55,124.27-9.88,186.66-9.93
							c3.07,0,5.94-2.72,5.84-5.94c-1.08-33.19-2.44-67.46-16.32-98.1c-11.33-25.01-31.37-46.67-57.4-55.55
							c-24.69-8.42-52.36-3.53-74.7,9.31c-23.13,13.29-39.08,34.46-46.72,60.23c-8.64,29.18-8.93,61.24-3.84,91.11
							C658.41,1637.94,669.66,1634.75,668.39,1627.25L668.39,1627.25z"/>
					</g>
				</g>
				<g>
					<g>
						<path d="M669.78,1609.76c57.08-4.74,114.15-9.48,171.23-14.23c7.44-0.62,7.5-12.52,0-11.89
							c-57.08,4.74-114.15,9.48-171.23,14.23C662.34,1598.48,662.28,1610.38,669.78,1609.76L669.78,1609.76z"/>
					</g>
				</g>
				<g>
					<g>
						<path d="M839.86,1524.69c19.96-40.8,55.06-76.48,101.72-80.6c22.21-1.96,43.87,3.98,61.71,17.7
							c16.93,13.03,29.53,31.55,37.65,51.37c10.93,26.65,14.86,55.62,18.76,84.01c1.88-2.51,3.75-5.02,5.63-7.52
							c-71.88,1.53-143.76,3.06-215.64,4.58c-7.5,0.16-7.53,12.05,0,11.89c71.88-1.53,143.76-3.06,215.64-4.58
							c4.17-0.09,6.16-3.71,5.63-7.52c-6.86-49.94-16.14-104.3-56.53-138.3c-18.5-15.58-41.22-24.24-65.32-23.89
							c-24.22,0.35-48.21,8.87-67.87,23.18c-22.33,16.27-39.28,38.81-51.45,63.7C826.44,1525.52,836.5,1531.55,839.86,1524.69
							L839.86,1524.69z"/>
					</g>
				</g>
				<g>
					<g>
						<path d="M851.87,1587.96c68.03-2.22,136.05-4.44,204.08-6.64c7.5-0.25,7.53-12.13,0-11.89
							c-68.03,2.22-136.05,4.44-204.08,6.64C844.38,1576.31,844.35,1588.2,851.87,1587.96L851.87,1587.96z"/>
					</g>
				</g>
				<g>
					<g>
						<path d="M972.79,1522.79c18.33-14.09,36.67-28.2,55-42.29c5.93-4.55,0.11-14.88-5.89-10.26c-18.33,14.09-36.67,28.2-55,42.29
							C960.97,1517.07,966.78,1527.4,972.79,1522.79L972.79,1522.79z"/>
					</g>
				</g>
				<g>
					<g>
						<path d="M1003.03,1539.49c12.59-11.48,25.77-22.24,38.36-33.72c5.61-5.11-2.67-13.5-8.25-8.41
							c-12.59,11.48-25.77,22.24-38.36,33.72C989.16,1536.19,997.45,1544.58,1003.03,1539.49L1003.03,1539.49z"/>
					</g>
				</g>
				<g>
					<g>
						<path d="M710.8,1517.95c25.74-2.81,51.68-3.26,77.42-6.06c7.39-0.81,7.47-12.7,0-11.89c-25.74,2.81-51.68,3.26-77.42,6.06
							C703.42,1506.87,703.34,1518.77,710.8,1517.95L710.8,1517.95z"/>
					</g>
				</g>
				<g>
					<g>
						<path d="M710.8,1541.23c25.75-3.36,51.67-5.32,77.42-8.69c7.35-0.96,7.44-12.86,0-11.89c-25.75,3.36-51.67,5.32-77.42,8.69
							C703.45,1530.3,703.36,1542.2,710.8,1541.23L710.8,1541.23z"/>
					</g>
				</g>
				<g>
					<g>
						<path d="M748.45,1189.19c2.45,92.71,4.92,185.43,7.37,278.14c0.21,7.64,11.88,7.67,11.67,0
							c-2.45-92.71-4.92-185.43-7.37-278.14C759.91,1181.56,748.24,1181.52,748.45,1189.19L748.45,1189.19z"/>
					</g>
				</g>
				<g>
					<g>
						<path d="M933.47,1171.34c4.31,86.44,4.77,173.04,9.08,259.48c0.38,7.61,12.06,7.66,11.67,0
							c-4.31-86.44-4.77-173.04-9.08-259.48C944.76,1163.73,933.08,1163.68,933.47,1171.34L933.47,1171.34z"/>
					</g>
				</g>
				<g>
					<g>
						<path d="M712.99,513.11c58.73,29.15,128.66,33.06,190.53,11.89c17.61-6.03,34.52-14.07,50.27-24.09
							c-2.92-1.72-5.86-3.42-8.78-5.14c2.06,25.62,3.71,52.21-2.46,77.38c-6.52,26.55-23.04,47.43-48.19,57.84
							c-50.64,20.95-115.38,4.52-148.37-40.34c-17.1-23.27-27.23-52.78-24.72-81.99c0.65-7.62-11.02-7.58-11.67,0
							c-2.48,28.79,6.72,58.33,22.3,82.19c16.11,24.67,39.48,42.57,66.88,52.41c54,19.37,127.22,6.64,150.52-52.7
							c11.7-29.8,9.9-63.45,7.38-94.78c-0.34-4.27-4.76-7.7-8.78-5.14c-52.76,33.52-118.7,43.76-179.22,29.89
							c-17.21-3.95-33.93-9.82-49.8-17.69C712.17,499.5,706.24,509.74,712.99,513.11L712.99,513.11z"/>
					</g>
				</g>
				<ellipse class="st3" cx="789.24" cy="419.66" rx="13.77" ry="38.24"/>
				<ellipse class="st3" cx="789.24" cy="419.66" rx="13.77" ry="38.24"/>
				<ellipse class="st3" cx="789.24" cy="419.66" rx="13.77" ry="38.24"/>
				<ellipse class="st3" cx="789.24" cy="419.66" rx="13.77" ry="38.24"/>
				<ellipse class="st3" cx="789.24" cy="419.66" rx="13.77" ry="38.24"/>
				<ellipse class="st3" cx="852.45" cy="419.66" rx="13.77" ry="38.24"/>
				<g>
					<path d="M719.62,519.35c7.46,39.02,28.83,82.12,61.06,106.67c1.73-14.61,12.82-35.03,26.52-41.41
						c13.7-6.38,30.75-5.46,43.62,2.34c20.73-25.81,69.44-27.24,95.96-7.01c2.24-24.01-1.01-51.68,1.23-75.69
						c-68.59,35-153.85,37.69-224.65,7.09"/>
					<g>
						<path d="M713.99,520.93c8.29,42.26,29.66,83.85,63.74,110.22c2.77,2.15,8.09,0.01,8.58-3.55
							c1.75-12.87,8.45-26.91,18.84-34.84c12.06-9.21,30.17-7.92,42.73-0.68c2.1,1.21,5.41,1.07,7.07-0.93
							c20.9-25.21,64.06-24.52,88.89-6.07c3.92,2.91,8.44-1.13,8.78-5.14c2.19-25.19-0.95-50.5,1.23-75.69
							c0.42-4.83-5.18-6.96-8.78-5.14c-68.04,34.38-150.24,36.38-220.14,6.49c-6.91-2.95-9.94,8.55-3.11,11.47
							c72.82,31.13,158.47,28.02,229.14-7.7c-2.92-1.72-5.86-3.42-8.78-5.14c-2.19,25.19,0.95,50.5-1.23,75.69
							c2.92-1.72,5.86-3.42,8.78-5.14c-28.74-21.36-79.03-21.03-103.04,7.93c2.36-0.32,4.71-0.62,7.07-0.93
							c-15.74-9.08-37.67-10.64-53.3-0.19c-13.61,9.1-23.2,26.56-25.42,42.81c2.85-1.18,5.72-2.37,8.58-3.55
							c-31.57-24.43-50.74-64.19-58.37-103.12C723.78,510.27,712.52,513.45,713.99,520.93L713.99,520.93z"/>
					</g>
				</g>
				<g>
					<path class="st4" d="M789.24,622.94c0.16-14.82,8.37-25.7,22.19-32.08c13.83-6.38,31.32-4.46,43.31,4.75
						c20.15-22.89,58.2-28.57,84.56-12.65c-30.1,58.15-93.11,63.4-148.5,39.56"/>
					<g>
						<path class="st4" d="M795.07,622.94c0.89-28.84,36.64-36.89,56.72-22.2c2.01,1.47,5.45,0.88,7.07-0.93
							c19.28-21.29,52.92-26.11,77.48-11.71c-0.7-2.71-1.4-5.42-2.1-8.14c-13.13,24.92-34.6,42.33-61.99,47.94
							c-26.89,5.51-54.98-0.5-79.93-11.1c-6.92-2.94-9.95,8.56-3.11,11.47c27.4,11.65,58.18,17.26,87.54,10.81
							c29.55-6.49,53.35-26.18,67.55-53.11c1.48-2.81,0.72-6.48-2.1-8.14c-28.92-16.95-68.83-11.61-91.63,13.57
							c2.36-0.32,4.71-0.62,7.07-0.93c-27.75-20.31-73.13-4.86-74.29,32.46C783.16,630.6,794.83,630.59,795.07,622.94L795.07,622.94
							z"/>
					</g>
				</g>
				<ellipse class="st5" cx="857.46" cy="391.17" rx="3.44" ry="3.33"/>
				<ellipse class="st6" cx="856.68" cy="393.05" rx="4.22" ry="5.22"/>
				<ellipse class="st7" cx="793.46" cy="395.25" rx="4.22" ry="5.79"/>
				<g class="st8">
					<path d="M744.71,244.49c-69.43,50.47-136.35,158.77-121.22,241.51s81.21,154.79,164.32,179.15s179.4-0.12,239.42-60.84
						c-52.98,77.85-158.68,117.68-252.46,96.4S605,599.24,589.73,507.21c-15.27-92.02,33.49-206.42,144.08-259.53"/>
					<g>
						<path d="M741.78,239.37c-43.04,31.5-78.08,75.85-101.26,124.25c-11.45,23.91-20.11,49.36-23.52,75.81
							c-3.24,25.11-0.37,49.68,7.26,73.73c15.84,50,49.1,93.26,91.21,123.24c44.19,31.46,97.89,46.52,151.66,43.67
							c60.75-3.22,120.72-27.84,164.27-71.54c-3.06-2.41-6.11-4.8-9.17-7.2c-33.36,48.61-86.51,80.69-142.88,93.27
							c-57.81,12.9-118.48,4.06-169.72-26.33c-48.97-29.05-88.5-75.86-106.45-130.9c-16.02-49.07-12.34-101.83,6.45-149.54
							c20.6-52.31,59.28-96.18,107.05-124.29c6.56-3.85,13.28-7.4,20.11-10.71c6.79-3.28,0.86-13.53-5.89-10.26
							c-53.46,25.89-98.21,69.15-124.38,123.42c-23.11,47.92-31.86,103.3-19.83,155.65c13.57,59.11,51.09,110.99,99.61,145.53
							c50.88,36.23,113.25,51.19,174.68,42.74c59.99-8.26,118.47-37.66,158-84.94c4.73-5.66,9.17-11.56,13.36-17.66
							c3.87-5.64-4.55-11.83-9.17-7.2c-73.8,74.07-195.31,90.02-284.87,37c-42.38-25.08-77.28-63.91-96.5-109.98
							c-9.13-21.87-15.1-45.57-14.54-69.45c0.58-24.7,7.05-49.03,16.19-71.79c21.29-53.04,58.48-102.74,104.26-136.26
							C753.71,245.21,747.89,234.88,741.78,239.37L741.78,239.37z"/>
					</g>
				</g>
				<g class="st8">
					<path d="M723.87,697.17c8.07,68.92-7.93,138.14-11.34,207.41c-3.4,69.28,8.95,145.15,61.24,192.6
						c37.74,34.25,91.3,48.35,143.04,48.53c51.74,0.18,102.55-12.25,152.59-24.99c-1.33,17.14-15.85,31.18-32.31,37.65
						c-16.46,6.46-34.69,6.82-52.46,7.08c-80.67,1.19-161.33,2.38-242,3.57c-35.76,0.53-80.89,18.71-100.57-10.18
						c-13.2-19.37-8.43-65.21-5.78-88.28c14.73-128.18,44.78-254.71,89.35-376.25"/>
					<g>
						<path d="M718.02,697.17c11.35,100.22-26.3,200.14-4.71,299.92c8.91,41.17,28.2,80.69,60.47,107.93
							c34.3,28.95,78.52,42.46,122.39,45.82c59.14,4.53,117.82-9.9,174.76-24.38c-2.46-1.92-4.93-3.82-7.38-5.73
							c-1.38,13.44-11.96,23.7-23.17,29.64c-13.23,7.01-28.76,8.34-43.41,8.86c-33.38,1.19-66.85,1.07-100.24,1.56
							c-33.86,0.5-67.73,1-101.59,1.49c-16.74,0.25-33.49,0.48-50.22,0.75c-12.64,0.2-25.09,2.02-37.6,3.74
							c-19,2.6-47.19,7.84-60.21-10.95c-5.58-8.06-6.94-18.96-7.61-28.54c-0.87-12.21-0.34-24.51,0.63-36.7
							c4.9-61.14,15.98-122.29,29.12-182.09c15.87-72.22,36.66-143.27,62.03-212.62c2.63-7.18-8.66-10.28-11.26-3.16
							c-24.11,65.88-44.09,133.3-59.62,201.81c-14.38,63.41-26.05,128.2-31.7,193.08c-1.96,22.44-4.17,49.29,6,70.15
							c10.83,22.23,36.41,24.66,57.95,22.66c12.52-1.16,24.91-3.46,37.42-4.68c16.26-1.6,32.79-1.07,49.1-1.32
							c35.77-0.53,71.54-1.05,107.3-1.59c19.79-0.29,39.57-0.58,59.36-0.88c19.75-0.29,39.67,0.1,59.38-1.26
							c29.77-2.07,66.42-14.82,70.02-49.98c0.41-3.98-4.05-6.59-7.38-5.73c-89.02,22.63-195.29,46.73-276.82-11.44
							c-71.34-50.89-77.79-147.76-70.55-228.34c5.32-59.19,15.99-118.5,9.25-178.05C728.86,689.65,717.16,689.57,718.02,697.17
							L718.02,697.17z"/>
					</g>
				</g>
				<g class="st8">
					<path d="M577.8,964.43c6.17,18.67,29.38,30.2,48.66,24.16c-12.79,14.71-25.59,29.43-38.38,44.14
						c-13.91-17.39-19.29-40.89-14.28-62.33"/>
					<g>
						<path d="M572.17,966c8.05,22.52,33.38,34.79,55.84,28.32c-1.89-3.32-3.78-6.62-5.67-9.94
							c-12.79,14.71-25.59,29.43-38.38,44.14c2.75,0,5.5,0,8.25,0c-12.35-15.85-17.12-36.83-12.78-56.55
							c1.64-7.45-9.62-10.64-11.26-3.16c-5.32,24.23,0.71,48.76,15.79,68.12c1.88,2.42,6.34,2.2,8.25,0
							c12.79-14.71,25.59-29.43,38.38-44.14c3.73-4.29,0.19-11.63-5.67-9.94c-15.97,4.61-35.6-3.54-41.48-20.01
							C580.88,955.72,569.59,958.79,572.17,966L572.17,966z"/>
					</g>
				</g>
				<g class="st8">
					<path d="M1095.79,933.24c-5.72,28.97-3,59.47,7.76,87.06c-20.7-24.32-41.41-48.65-62.11-72.97
						c12.27-16.95,36.96-24.29,56.95-16.93"/>
					<g>
						<path d="M1090.16,931.66c-5.77,30.28-3.23,61.45,7.76,90.23c3.26-1.93,6.5-3.85,9.76-5.78
							c-20.7-24.32-41.41-48.65-62.11-72.97c0.31,2.41,0.61,4.8,0.92,7.2c11.52-15.3,32.89-20.27,50.36-14.2
							c7.13,2.48,10.18-9,3.11-11.47c-22.88-7.95-48.89,0.22-63.54,19.66c-1.64,2.17-0.64,5.38,0.92,7.2
							c20.7,24.32,41.41,48.65,62.11,72.97c3.7,4.34,11.87-0.26,9.76-5.78c-10.23-26.75-13.14-55.68-7.76-83.9
							C1102.84,927.34,1091.59,924.14,1090.16,931.66L1090.16,931.66z"/>
					</g>
				</g>
				<g class="st8">
					<path d="M744.71,1474.26c-43.35,34.83-58.67,98.59-35.65,148.35c-13.52,2.07-27.02,4.15-40.54,6.21
						c-14.39-58.7,14.56-124.88,68.12-155.77"/>
					<g>
						<path d="M740.59,1470.06c-44.77,36.51-60.66,102.44-36.57,155.56c1.16-2.91,2.33-5.83,3.49-8.73
							c-13.52,2.07-27.02,4.15-40.54,6.21c2.4,1.39,4.79,2.77,7.18,4.16c-13.77-57.82,15.44-119.8,65.44-149.05
							c6.51-3.81,0.64-14.08-5.89-10.26c-54.59,31.94-85.78,99.52-70.8,162.48c0.8,3.39,4.14,4.62,7.18,4.16
							c13.52-2.07,27.02-4.15,40.54-6.21c4.07-0.62,4.88-5.66,3.49-8.73c-22.02-48.56-5.66-108.2,34.74-141.15
							C754.71,1473.69,746.4,1465.33,740.59,1470.06L740.59,1470.06z"/>
					</g>
				</g>
				<g class="st8">
					<path d="M939.89,1439.5c-46,34.36-66.22,97.82-48.16,151.27c-11.03,0.9-22.05,1.8-33.07,2.71
						c-16.06-28.21-17.14-63.93-2.81-92.99s43.7-50.74,76.46-56.41"/>
					<g>
						<path d="M936.94,1434.36c-47.14,35.7-69.8,100.56-50.84,157.99c1.88-2.51,3.75-5.02,5.63-7.52
							c-11.03,0.9-22.05,1.8-33.07,2.71c1.69,0.98,3.36,1.96,5.04,2.94c-15.74-28.3-16.2-64.02,0-92.26
							c14.88-25.95,41.4-43.17,70.17-48.41c7.38-1.34,4.25-12.81-3.11-11.47c-32.13,5.85-61.92,26.17-77.98,55.36
							c-17.45,31.7-16.67,71.31,0.84,102.78c0.95,1.7,3.06,3.11,5.04,2.94c11.03-0.9,22.05-1.8,33.07-2.71
							c3.54-0.29,6.92-3.6,5.63-7.52c-17.17-52.03,2.4-111.95,45.48-144.56C948.79,1440.12,942.97,1429.79,936.94,1434.36
							L936.94,1434.36z"/>
					</g>
				</g>
			</g>
		</g>
		<g id="Ebene_15">
			<g>
				<g id="Ebene_8_1_">
					<g class="st9">
						<path d="M359.84,1101.96c-58.02,101.76-102.91,199.92-165.29,309.31c157.97-34.95,327.53-81.6,465.32-160.72
							c91.54-52.57,169.91-122.5,249.91-189.57c169.62-142.18,349.56-273.45,538.24-392.68c-20.98-6.14-24.51-35.4-11.67-51.7
							c12.85-16.3,34.84-23.1,55.07-30.25c20.23-7.17,41.68-17.16,49.75-36.07c-22.42-50.93-43.52-108.82-93.08-138.32
							c-54.44-32.4-50.22-40.23-129.33,21.99c-8.16,6.42-51.81,38.63-63.63,52.06c-145.5,165.32-98.89,124.59-124.79,92.5"/>
						<g>
							<path d="M355.92,1100.91c-44.41,78-83.63,158.56-125.84,237.66c-12.84,24.04-25.95,47.95-39.45,71.65
								c-1.66,2.92-1.3,6.91,3.19,5.93c91.93-20.35,183.3-43.55,271.68-74.42c88.35-30.84,173.48-69.56,249.85-121.33
								c79.2-53.69,149.62-117.61,222.81-178.08c75.87-62.68,153.75-123.2,233.52-181.46c79.98-58.41,161.86-114.54,245.51-168.27
								c10.43-6.7,20.89-13.36,31.37-19.99c2.22-1.4,7.46-7.74,2.53-9.34c-16.6-5.37-20.55-25.35-14.77-39.01
								c7.53-17.8,31.57-25.05,48.99-31.17c18.63-6.55,38-13.94,51.12-28.56c3.15-3.51,5.85-7.41,7.94-11.6
								c2.51-5,1.1-7.29-1.09-12.31c-3.93-9.05-7.8-18.12-11.81-27.15c-15.56-35.07-33.78-71.75-65.6-96.68
								c-12.07-9.46-26.13-17.33-39.53-25c-8.04-4.61-16.59-9.06-26.07-9.62c-9.86-0.57-19.17,3.37-27.4,7.89
								c-15.18,8.35-28.82,19.28-42.33,29.75c-23.75,18.4-48.77,35.95-70.76,56.22c-14.64,13.51-26.93,29.55-39.93,44.47
								c-11.54,13.28-23.07,26.58-34.58,39.88c-7.44,8.58-14.85,17.18-22.42,25.63c-2.6,2.91-5.23,5.8-7.91,8.62
								c-0.95,1-1.94,2-2.91,3c-0.46,0.47-0.93,0.92-1.39,1.38c1.23-1.18-0.31,0.28-0.57,0.51c-0.73,0.65-1.48,1.27-2.21,1.92
								c-0.28,0.23-0.57,0.44-0.86,0.67c-1.19,0.92,1.09-0.72-0.07,0.06c-1.28,0.86-0.31,0.12-0.32,0.25
								c-0.03,0.37,0.39,0.06-0.21,0.02c1.01,0.04,0.54-0.18,0.63,0.12c-0.29-0.85-0.87-1.73-1.2-2.59
								c-0.23-0.6-0.38-1.26-0.88-3.12c-0.46-1.68-0.91-3.37-1.41-5.06c-1.18-3.94-2.61-7.79-4.67-11.41c-1.12-2-2.43-3.9-3.87-5.71
								c-3.58-4.47-12.22,3.89-9.3,7.54c2.37,2.97,4.31,6.19,5.82,9.6c1.35,3.04,2.27,5.94,2.87,8.13c0.96,3.5,1.41,9.59,4.95,11.86
								c5.42,3.49,12.39-3.5,15.72-6.67c10.65-10.1,20-21.49,29.57-32.48c19.88-22.89,39.68-45.83,59.65-68.64
								c9.29-10.6,18.26-20.69,29.16-29.81c10.34-8.65,21.05-16.93,31.79-25.15c21.06-16.1,41.27-33.78,64.09-47.66
								c6.87-4.17,14.48-8.45,22.91-8.99c7.04-0.44,13.83,2.07,20.02,5.18c9.46,4.78,18.31,10.71,27.33,16.17
								c14.09,8.52,26.62,18.11,37.41,30.28c22.61,25.49,36.48,56.87,49.65,87.2c3.3,7.59,6.56,15.19,9.88,22.76
								c0.02-1.17,0.05-2.34,0.07-3.49c-7.62,16.79-27.4,24.82-44.45,30.91c-17.21,6.14-35.24,11.79-49.31,23.31
								c-11.84,9.68-19.28,22.72-18.94,37.91c0.31,13.18,7.1,26.12,21.04,30.64c0.85-3.12,1.69-6.22,2.53-9.34
								c-83.62,52.87-165.55,108.06-245.63,165.51c-79.98,57.39-158.11,117.05-234.27,178.85
								c-74.08,60.14-144.58,124.49-221.82,181.13c-75.08,55.07-158.05,97.68-246.66,130.89c-87.5,32.8-178.46,57.33-270.11,78.44
								c-11.22,2.58-22.47,5.11-33.7,7.6c1.07,1.97,2.12,3.96,3.19,5.93c45.18-79.33,85.27-161.14,128.1-241.63
								c12.08-22.72,24.44-45.31,37.19-67.68C367.72,1096.07,359,1095.5,355.92,1100.91L355.92,1100.91z"/>
						</g>
					</g>
				</g>
				<g id="Ebene_3_1_">
					<g>
						<g>
							<path d="M316.79,1266.19c-23.09,54.2-50.1,106.78-80.79,157.37c-1.69,2.78-1.26,7.11,3.19,5.93
								c58.06-15.48,116.14-30.97,174.19-46.45c2.69-0.72,7.6-5.67,5.39-8.65c-29.35-39.41-58.71-78.83-88.05-118.24
								c-3.39-4.57-12.12,3.76-9.3,7.54c29.35,39.41,58.71,78.83,88.05,118.24c1.8-2.88,3.59-5.77,5.39-8.65
								c-58.07,15.48-116.14,30.97-174.19,46.45c1.07,1.97,2.12,3.96,3.19,5.93c31.2-51.42,58.64-104.92,82.1-160.02
								c0.92-2.15,0.22-4.81-2.63-4.85C320.34,1260.76,317.76,1263.88,316.79,1266.19L316.79,1266.19z"/>
						</g>
					</g>
				</g>
				<g id="Ebene_4">
					<g>
						<path class="st10" d="M410.56,1110.85c-8.53,27.91-28.85,50.72-45.02,75.28c-16.16,24.56-28.67,54.45-19.34,82.59
							c6.91,20.87,24.57,36.93,37.2,55.39c12.84,18.76,23.16,42.46,45.56,49.37c13.49,4.17,27.96,0.85,41.5-2.49
							c44.25-10.92,88.5-21.82,132.76-32.74c-69.9-68.11-133.11-142.31-188.51-221.28"/>
						<g>
							<path class="st10" d="M405.99,1111.13c-9.8,31.27-33.82,55.24-50.13,83.26c-15.21,26.13-25.04,57.93-10.59,87.03
								c6.69,13.5,17.12,24.94,26.42,36.89c8.69,11.14,15.34,23.38,23.44,34.86c7.46,10.58,16.65,20.56,29.61,24.98
								c17.2,5.86,35.7,0.04,52.26-4.05c41.82-10.31,83.65-20.63,125.48-30.94c3.3-0.82,7.84-6.41,4.75-9.43
								c-54.34-53-104.69-109.61-150.4-169.36c-12.86-16.8-25.35-33.85-37.48-51.12c-3.24-4.62-12.03,3.68-9.3,7.54
								c43.37,61.75,91.43,120.62,143.74,175.95c14.8,15.66,29.96,31.03,45.42,46.11c1.58-3.15,3.16-6.29,4.75-9.43
								c-35.62,8.78-71.24,17.56-106.87,26.34c-8.88,2.2-17.77,4.39-26.67,6.57c-8.41,2.07-16.97,4.03-25.77,4.02
								c-15.05-0.02-26.97-7.93-35.95-18.99c-8.44-10.4-14.46-22.3-22.17-33.15c-8.43-11.86-18.56-22.61-26.49-34.79
								c-8.23-12.62-12.9-26.46-11.96-41.2c0.95-14.88,6.41-29.12,13.56-42.13c16.78-30.51,42.94-55.86,53.48-89.49
								C417.49,1103.1,407.53,1106.18,405.99,1111.13L405.99,1111.13z"/>
						</g>
					</g>
				</g>
				<g id="Ebene_5">
					<g>
						<path class="st11" d="M1119.6,617.77c-222.34,149.44-441.47,288.83-657.71,445.91c-13.05,9.48-43.16,31.91-44.82,47.54
							c-1.77,16.64,28.65,32.89,39.09,46.73c44.9,59.52,77.44,89.58,129.76,151.79c4.22,5.02,22.05,46.33,60.16,15.83
							c203.51-162.8,674.14-523.87,674.65-532.32c0.42-6.77-2.56-14.04-7.84-18.79c-48.66-43.74-86.5-102.17-139.49-144.14
							c-16.68-13.21-44.17-24.52-56.92-8.55"/>
						<g>
							<path class="st11" d="M1119.05,613.43c-47.93,32.2-96.05,64.19-144.21,96.09c-47.55,31.5-95.15,62.95-142.66,94.51
								c-47.4,31.5-94.72,63.12-141.8,95.06c-47.47,32.2-94.7,64.69-141.56,97.68c-23.6,16.62-47.11,33.35-70.5,50.22
								c-17,12.26-34.51,24.19-49.28,38.87c-6.28,6.24-12.7,13.44-15.65,21.77c-2.65,7.5-0.89,14.69,3.97,21.21
								c5.54,7.41,12.92,13.42,20.02,19.44c3.46,2.95,6.96,5.9,10.17,9.1c3.73,3.7,6.66,7.96,9.82,12.07
								c28.36,36.86,60.03,71.16,90.99,106.08c8.83,9.96,17.56,19.98,26.18,30.09c4.43,5.2,8.04,10.17,11.8,15.71
								c7.96,11.76,19.94,22.47,35.7,20.18c17.56-2.56,30.9-16.55,43.84-26.86c11.28-8.98,22.57-17.94,33.88-26.88
								c25.66-20.29,51.37-40.52,77.12-60.72c28.24-22.15,56.51-44.27,84.8-66.36c29.63-23.14,59.29-46.28,88.95-69.41
								c29.34-22.87,58.66-45.73,88-68.6c27.86-21.73,55.71-43.45,83.55-65.21c24.7-19.31,49.4-38.64,74.05-58.01
								c20.35-16,40.67-32.03,60.92-48.14c14.39-11.47,28.76-22.94,42.96-34.63c7.51-6.19,15.5-12.24,22.17-19.26
								c6.35-6.68,3.21-17.15-2.13-24.03c-3.6-4.62-8.6-8.4-12.85-12.49c-4.53-4.34-8.94-8.8-13.28-13.31
								c-8.78-9.14-17.25-18.54-25.6-28.02c-16.91-19.18-33.41-38.72-51.2-57.19c-8.87-9.21-18.04-18.15-27.73-26.6
								c-8.28-7.23-16.75-14.34-26.69-19.44c-16.26-8.35-36.67-11.98-49.27,3.08c-1.35,1.61-3.3,5.1-1.04,6.9
								c2.21,1.75,5.66-0.65,6.97-2.22c5.09-6.1,14-5.71,21.47-3.87c9.31,2.29,17.93,6.89,25.56,12.42
								c19.83,14.39,37.1,32.5,53.43,50.26c16.99,18.48,33.06,37.69,49.86,56.33c8.11,9,16.38,17.88,25.03,26.42
								c8.06,7.99,20.05,15.5,20.96,27.31c0.15,1.9-0.39,2.29,0.37,0.69c0.42-0.89,0.87-1.66,0.46-1c0.73-1.2,1.15-1.34,0.26-0.47
								c-0.37,0.36-0.76,0.74-1.09,1.12c-0.63,0.71,1.44-1.33,0.45-0.42c-0.29,0.26-0.55,0.53-0.84,0.78
								c-3.13,2.87-6.37,5.64-9.63,8.38c-11.7,9.88-23.65,19.49-35.62,29.08c-17.83,14.3-35.74,28.49-53.7,42.64
								c-22.61,17.83-45.26,35.61-67.92,53.36c-26.17,20.49-52.37,40.95-78.57,61.4c-28.16,21.96-56.32,43.93-84.48,65.88
								c-29.06,22.65-58.12,45.31-87.18,67.98c-28.37,22.13-56.72,44.28-85.05,66.45c-26.48,20.73-52.95,41.48-79.36,62.27
								c-23.38,18.4-46.74,36.85-70.01,55.37c-5.1,4.06-10.19,8.13-15.29,12.19c-7.1,5.67-14.66,12-24.44,12.79
								c-14.16,1.13-23.91-10.47-30.48-20.88c-4.29-6.8-9.84-12.74-15.11-18.89c-8.19-9.54-16.47-18.99-24.83-28.4
								c-14.96-16.83-30.16-33.47-44.97-50.41c-15.5-17.75-30.47-35.88-44.7-54.55c-5.51-7.24-11.57-13.24-18.59-19.21
								c-6.86-5.82-14.44-11.64-19.53-18.97c-4.29-6.18-4.87-11.53-0.97-17.73c4.59-7.29,11.35-13.39,17.94-19.06
								c16.75-14.37,35.44-26.86,53.43-39.78c45.63-32.74,91.68-64.97,138.01-96.82c45.83-31.5,91.94-62.65,138.21-93.6
								c46.44-31.06,93.03-61.93,139.63-92.78c46.62-30.86,93.27-61.71,139.79-92.71c22.77-15.17,45.51-30.37,68.21-45.63
								c2.25-1.51,4.94-4.15,4.41-7.08C1124.08,612.39,1121.04,612.09,1119.05,613.43L1119.05,613.43z"/>
						</g>
					</g>
				</g>
				<g id="Ebene_6_1_">
					<g>
						<path class="st12" d="M1249.73,477.29c-36.75,22.01-71.19,47.36-102.73,75.61c-7.88,7.05-16.04,15.24-16.62,25.6
							c-0.65,11.68,8.48,21.82,17.05,30.53c51.97,52.86,107.83,101.82,159.8,154.68c10.71,10.88,19.45,26.53,34.98,26.55
							c12.75,0.01,27.01-5.22,33.13-15.62c17.46-29.67,53.59-49.58,76.74-60.63c10.78-5.14,19.06-15.52,21.11-26.82
							c2.63-14.58-8.52-28.25-19.11-39.54c-60.67-64.68-126.77-124.84-197.42-179.72"/>
						<g>
							<path class="st12" d="M1249.2,472.96c-28.95,17.39-56.54,36.74-82.4,57.96c-6.56,5.38-13.01,10.88-19.35,16.51
								c-5.92,5.24-11.77,10.59-16.19,17.08c-4.05,5.94-6.53,13.08-5.73,20.29c0.77,6.8,4.3,13.01,8.62,18.45
								c10.24,12.91,23.12,24.3,34.98,35.88c12.87,12.56,25.9,24.99,38.97,37.37c26.15,24.75,52.47,49.35,78.06,74.63
								c6.17,6.08,12.4,12.13,18.33,18.41c4.8,5.09,8.98,10.7,14,15.61c4.38,4.3,9.73,8.24,15.97,9.58
								c6.65,1.42,13.96,0.32,20.31-1.48c6.53-1.84,12.81-5.06,17.71-9.49c5.14-4.64,7.97-10.63,12.05-16.02
								c8.4-11.09,19.27-20.34,30.87-28.39c10.09-7.01,20.97-13.04,32.08-18.54c6.12-3.04,11.9-6.01,16.83-10.67
								c5.31-5.02,9.56-11.13,12-17.9c4.88-13.49,0.4-26.33-8.37-37.73c-9.72-12.65-21.66-24-32.87-35.49
								c-48.31-49.5-99.85-96.19-154.21-139.74c-6.69-5.36-13.44-10.67-20.21-15.94c-4.08-3.16-12.08,5.94-8.01,9.12
								c51.75,40.23,101.08,83.23,147.6,128.81c11.81,11.57,23.46,23.31,34.91,35.21c9.94,10.32,21.31,20.6,28.46,32.91
								c3.24,5.57,5.61,11.82,4.81,18.16c-0.78,6.21-4.04,12.16-8.66,16.53c-4.18,3.97-9.55,6.17-14.73,8.76
								c-5.01,2.51-9.95,5.14-14.79,7.91c-22.87,13.1-44.62,29.66-58.2,51.76c-5.86,9.53-20.97,15.05-32.56,11.93
								c-12.09-3.26-19.49-16.13-27.41-24.45c-23.17-24.33-48.05-47.33-72.53-70.47c-24.8-23.45-49.71-46.8-73.9-70.82
								c-5.67-5.63-11.38-11.23-16.88-17.02c-4.71-4.96-9.26-10.31-11.83-16.56c-6.12-14.88,7.89-25.39,18.01-34.22
								c23.64-20.64,48.85-39.72,75.44-56.92c6.55-4.23,13.17-8.36,19.88-12.38c2.3-1.38,4.92-4.24,4.41-7.08
								C1254.21,471.84,1251.23,471.75,1249.2,472.96L1249.2,472.96z"/>
						</g>
					</g>
				</g>
				<g id="Ebene_7_1_">
					<g>
						<path class="st13" d="M1291.04,481.36c22.63-38.31,61.41-59.86,96.15-86.51c5.24-4.03,19.2-1.72,26.05-1.48
							c7.58,0.26,13.75,5.85,19.08,11.07c44.15,43.25,88.3,86.5,132.44,129.76c8.46,8.29,17.64,18.94,14.41,29.8
							c-1.94,6.54-7.97,11.06-13.65,15.13c-26.05,18.67-52.12,37.33-78.16,56c-6.02,4.31-12.72,8.83-20.36,8.41
							c-8.44-0.46-15.21-6.74-21.09-12.61c-51.5-51.38-102.98-102.76-154.48-154.13"/>
						<g>
							<path class="st14" d="M1294.96,482.41c10.98-18.37,26.41-33.4,43.44-46.81c8.53-6.73,17.37-13.09,26.22-19.42
								c3.91-2.8,7.83-5.6,11.72-8.43c2.12-1.54,4.25-3.11,6.35-4.67c1.05-0.78,2.11-1.58,3.16-2.36c0.7-0.53,1.4-1.06,2.1-1.59
								c1.22-0.88,1.41-1.04,0.56-0.51c3.47-1.53,8.19-1.06,11.93-0.88c4.41,0.22,9.58,0.11,13.85,1.31
								c5.62,1.59,10.04,6.07,14.03,9.95c5.15,5,10.25,10.04,15.37,15.06c19.32,18.93,38.63,37.84,57.94,56.77
								c19.71,19.31,39.52,38.53,59.13,57.93c6.35,6.27,15.4,15.21,13.97,24.57c-0.73,4.86-5.08,7.96-8.87,10.79
								c-5.5,4.08-11.14,8-16.71,11.99c-21.53,15.43-42.9,31.07-64.6,46.28c-3.85,2.7-8.13,5.56-13.08,6
								c-6.37,0.57-11.92-3.25-16.43-7.16c-10.15-8.8-19.24-18.93-28.71-28.37c-43.62-43.53-87.26-87.07-130.88-130.59
								c-3.49-3.48-11.74,5.41-8.01,9.12c41.87,41.77,83.72,83.54,125.58,125.3c10.28,10.26,20.41,20.7,30.88,30.78
								c8.74,8.41,19.28,14.12,31.45,9.28c5.58-2.22,10.35-5.66,15.13-9.08c5.74-4.11,11.48-8.22,17.22-12.34
								c11.7-8.38,23.4-16.77,35.1-25.15c5.96-4.26,11.92-8.55,17.88-12.81c5.3-3.79,10.83-7.4,15.45-11.96
								c8.21-8.09,11.15-18.87,5.74-29.45c-5.41-10.6-15.82-18.96-24.33-27.3c-10.44-10.23-20.89-20.47-31.33-30.7
								c-20.89-20.47-41.77-40.94-62.67-61.41c-10.37-10.16-20.35-20.99-31.37-30.55c-4.4-3.82-9.54-7.06-15.55-7.62
								c-4.61-0.43-9.3-0.77-13.92-0.92c-4.41-0.14-9-0.01-13.08,1.59c-5.09,1.99-9.38,6.31-13.67,9.45
								c-9.33,6.85-18.84,13.5-28.16,20.34c-18.76,13.8-36.96,28.75-50.89,47.1c-3.52,4.64-6.8,9.42-9.77,14.4
								c-1.08,1.8-1.95,5.13,0.85,6.06C1290.67,487.29,1293.84,484.29,1294.96,482.41L1294.96,482.41z"/>
						</g>
					</g>
				</g>
				<g id="Ebene_2_2_">
					<g>
						<g>
							<path d="M1255.44,462.07c-27.34,21.56-54.73,43.05-82.1,64.56c-7.03,5.53-14.07,11.05-21.11,16.58
								c-6.37,5.01-13.63,9.7-18.95,15.75c-8.76,9.96-11.82,23.97-6.67,36.43c2.91,7.06,8.62,12.04,14.19,17.32
								c7.19,6.8,14.35,13.62,21.49,20.45c14.23,13.6,28.4,27.25,42.55,40.94c28.1,27.15,56.15,54.34,84.56,81.2
								c7.07,6.68,14.16,13.36,21.28,19.99c3.36,3.13,6.73,6.26,10.1,9.38c3.3,3.06,6.48,6.61,10.43,8.92
								c13.42,7.89,28.68,0.74,37.81-9.11c8.33-8.99,15.88-18.73,25.15-26.9c8.43-7.43,18.11-13.04,27.77-18.94
								c8.38-5.13,16.38-10.86,24.19-16.7c8.9-6.66,17.88-13.64,25.24-21.82c2.65-2.94,5.22-6.21,6.49-9.94
								c2.33-6.78,1.16-14.46-1.49-21.11c-2.88-7.24-7.78-13.48-12.95-19.43c-6.01-6.94-12.11-13.8-18.27-20.61
								c-49.31-54.45-103.41-104.99-160.51-152.14c-7.14-5.9-14.34-11.74-21.58-17.55c-4.01-3.21-12.06,5.87-8.01,9.12
								c55,44.08,107.47,91.1,155.92,141.62c12.23,12.75,24.19,25.71,35.87,38.91c9.58,10.82,23.54,24.03,22.21,39.23
								c-0.09,1.05-0.24,2.09-0.54,3.09c-0.22,0.74,0.39-0.55-0.41,0.77c-0.68,1.11-0.16,0.35-0.7,1.06
								c-0.69,0.89-1.43,1.74-2.19,2.57c-3.05,3.36-6.5,6.38-10,9.31c-8.2,6.9-16.87,13.3-25.77,19.38
								c-7.77,5.32-16.11,9.84-23.96,15.05c-8.87,5.9-16.84,12.53-24.12,20.11c-4.14,4.31-8.08,8.79-12.05,13.24
								c-4.37,4.93-8.35,10.63-15.04,12.91c-6.25,2.14-12.85,0.86-17.99-3.3c-7.22-5.86-13.78-12.68-20.55-19.01
								c-54.32-50.76-107.04-102.99-160.93-154.12c-5.77-5.46-12.95-10.77-16.98-17.56c-3.06-5.17-4.41-11.13-3.6-16.93
								c0.78-5.5,3.45-10.24,7.85-13.83c6.41-5.22,13.02-10.24,19.55-15.37c26.4-20.75,52.81-41.49,79.2-62.25
								c6.06-4.78,12.13-9.54,18.18-14.32c1.86-1.47,4.23-4.81,2.85-7.24C1260.48,459.25,1257.04,460.81,1255.44,462.07
								L1255.44,462.07z"/>
						</g>
					</g>
					<g>
						<g>
							<path d="M1282.4,484.88c31.09-26.82,60.19-56.7,94.97-79.44c6.39-4.18,13.1-8.33,20.39-11.01c4.78-1.76,9.73-3.12,14.55-1.33
								c6.13,2.28,11.56,7.17,16.38,11.29c7.14,6.11,13.83,12.69,20.38,19.35c11.76,11.96,22.77,24.58,34.67,36.41
								c16.42,16.31,35.13,30.76,52.49,46.15c9.38,8.3,18.55,16.79,27.49,25.51c4.94,4.82,10.47,9.56,14.71,14.95
								c2.49,3.16,3.97,6.56,3.13,10.43c-0.91,4.15-3,8.09-4.47,12.07c-0.48,1.3-0.93,2.6-1.36,3.91c-0.4,1.19,0.03,0.04-0.09,0.28
								c-0.19,0.42-1,1.42-0.29,0.51c-0.53,0.69-1.11,1.34-1.71,1.99c-4.86,5.29-12.16,10.54-18.59,15.16
								c-13.8,9.9-28.37,18.72-42.92,27.59c-14.48,8.83-27.86,18.31-40.72,29.09c-4.47,3.75-8.95,7.48-13.44,11.2
								c-1.83,1.52-4.25,4.78-2.85,7.24c1.4,2.48,4.87,0.99,6.44-0.3c13.61-11.26,26.72-22.96,41.8-32.48
								c15.9-10.05,32.18-19.48,47.69-30.07c7.76-5.3,15.5-10.77,22.5-16.94c2.81-2.48,5.59-5.06,7.89-7.99
								c2.61-3.34,3.73-6.89,5.22-10.78c3.07-8.03,7.72-16.66,3.19-25.25c-2.95-5.6-8.41-10.14-12.93-14.61
								c-5.07-5.03-10.2-10.01-15.42-14.9c-18.61-17.47-38.31-33.82-57.47-50.72c-13.21-11.65-24.83-24.4-36.88-37.1
								c-12.59-13.25-25.51-27.79-41.12-37.97c-4.96-3.23-9.95-5.49-16.02-4.96c-7.3,0.63-14.24,3.7-20.54,6.94
								c-18.32,9.4-34.48,22.69-49.99,35.64c-17.18,14.35-33.65,29.43-50.36,44.24c-3.4,3.02-6.83,6.04-10.28,9.01
								c-1.81,1.55-4.26,4.75-2.85,7.24C1277.33,487.64,1280.85,486.22,1282.4,484.88L1282.4,484.88z"/>
						</g>
					</g>
					<g>
						<g>
							<path d="M1137.63,595.95c-58.82,41.81-118.45,82.6-178.47,122.86c-59.7,40.05-119.79,79.59-179.84,119.2
								c-60.14,39.67-120.23,79.39-179.86,119.73c-29.7,20.1-59.31,40.34-88.74,60.81c-15.02,10.44-29.99,20.94-44.9,31.49
								c-9.9,7.01-19.92,13.91-29.24,21.59c-8.86,7.31-18.22,15.55-23.51,25.68c-5.98,11.44-1.41,22.34,6.55,32.24
								c11.1,13.8,23.29,26.92,34.95,40.28c12.44,14.27,24.87,28.54,37.3,42.81c24.69,28.33,49.38,56.66,74.07,84.97
								c6.12,7.03,12.24,14.06,18.38,21.09c5.1,5.85,10.21,11.88,16.63,16.51c12.35,8.92,26.54,8.9,39.41,1.84
								c13.76-7.53,25.27-19.17,37.09-29.03c13.46-11.23,26.92-22.44,40.42-33.63c26.7-22.14,53.48-44.2,80.33-66.17
								c52.56-43.01,105.43-85.7,158.57-128.08c53.18-42.42,106.64-84.54,160.31-126.41c55.42-43.25,111.06-86.24,166.84-129.09
								c14.2-10.91,28.41-21.8,42.62-32.68c1.88-1.45,4.22-4.83,2.85-7.24c-1.42-2.52-4.84-0.93-6.44,0.3
								c-55.78,42.73-111.45,85.58-166.93,128.65c-53.09,41.23-106,82.67-158.65,124.4c-52.09,41.29-103.96,82.84-155.52,124.72
								c-52.8,42.87-105.32,86.07-157.53,129.58c-12.55,10.46-24.75,21.56-37.88,31.39c-4.98,3.72-10.72,7.32-17.18,8.22
								c-7.64,1.06-14.83-1.82-20.84-6.29c-6.39-4.76-11.5-10.84-16.63-16.73c-5.94-6.82-11.88-13.63-17.83-20.45
								c-12.07-13.85-24.13-27.69-36.19-41.52c-24.32-27.9-48.63-55.79-72.96-83.7c-11.8-13.53-23.96-26.84-35.38-40.66
								c-4.34-5.25-9.35-11.9-9.53-18.78c-0.08-3.34,1.96-6.47,3.89-9.08c6.6-8.93,15.95-16.15,24.89-22.89
								c11.13-8.4,22.7-16.3,34.13-24.35c28.95-20.36,58.07-40.51,87.32-60.47c58.41-39.88,117.37-79.04,176.43-118.06
								c59.1-39.05,118.31-77.93,177.24-117.19c58.65-39.07,117.02-78.51,174.71-118.82c14.27-9.97,28.52-20,42.71-30.09
								c1.93-1.37,4.18-4.88,2.85-7.24C1142.62,593.07,1139.28,594.77,1137.63,595.95L1137.63,595.95z"/>
						</g>
					</g>
					<g>
						<g>
							<path d="M407.86,1097.88c-24.19,41.34-47.67,83.06-70.63,125.05c-24.42,44.64-48.26,89.57-71.36,134.87
								c-12.34,24.17-24.44,48.46-36.25,72.88c-1.39,2.87,0.6,5.48,3.84,4.6c100.34-26.81,200.81-53.42,302.43-76.07
								c27.42-6.12,54.91-11.92,82.52-17.34c4.79-0.95,8.85-11.21,1.47-9.76c-100.42,19.7-199.51,44.52-298.15,70.4
								c-28.96,7.59-57.88,15.3-86.81,23.03c1.28,1.54,2.56,3.06,3.84,4.6c21.2-43.83,43.39-87.23,66.14-130.35
								c23.35-44.28,47.32-88.25,71.89-131.92c12.78-22.72,25.74-45.34,38.91-67.85c1.05-1.81,1.96-5.13-0.85-6.06
								C412.15,1093.01,408.97,1096,407.86,1097.88L407.86,1097.88z"/>
						</g>
					</g>
					<g>
						<path d="M325.41,1252.94c28.63,31.9,73.53,103.11,101.86,127.23c-59.69,12.24-122.56,32.91-187.09,46.15
							c41.84-94.07,73.66-153.2,82.7-168.67"/>
						<g>
							<path d="M321.41,1257.5c14.18,15.87,26.48,33.23,38.99,50.26c13.65,18.57,27.18,37.28,42.04,55.04
								c6.43,7.69,13.14,15.32,20.83,21.94c1.58-3.15,3.16-6.29,4.75-9.43c-63.06,13-124.01,33.15-187.09,46.15
								c1.28,1.54,2.56,3.06,3.84,4.6c22.71-51,46.42-101.72,72.96-150.98c2.96-5.49,5.94-10.96,9.09-16.36
								c1.05-1.81,1.96-5.13-0.85-6.06c-2.69-0.9-5.89,2.08-6.99,3.97c-21.24,36.38-39.28,74.7-57.15,112.69
								c-8.95,19.01-17.67,38.11-26.21,57.31c-1.35,3.05,0.55,5.28,3.84,4.6c63.09-13,124.02-33.15,187.09-46.15
								c3.18-0.65,8.01-6.63,4.75-9.43c-15.04-12.91-27.02-29.17-38.78-44.66c-14.24-18.76-27.85-37.95-42.12-56.7
								c-6.71-8.8-13.55-17.56-20.97-25.85C326.22,1244.81,317.9,1253.57,321.41,1257.5L321.41,1257.5z"/>
						</g>
					</g>
				</g>
				<g id="Ebene_9_1_">
					<g class="st8">
						<g>
							<path d="M1408.01,392.51c4.9,0.85,11.51-9.1,6.14-10.03C1409.27,381.61,1402.63,391.56,1408.01,392.51L1408.01,392.51z"/>
						</g>
					</g>
					<g class="st8">
						<path d="M1402.63,392.21c-14.25,81.54,8.93,169.22,62.51,236.42c4.69,5.9,7.74,16.99,0.13,17.96
							c-3.49,0.44-6.53-2.24-8.99-4.69c-50.97-51.1-101.94-102.2-152.91-153.3c-4.2-4.2-8.66-8.99-8.8-14.69
							c-0.15-6.07,4.64-11.02,9.22-15.18c30.51-27.72,65.08-51.47,102.5-70.39"/>
						<g>
							<path d="M1397.7,393.77c-12.87,74.71,4.71,154.4,48.6,219.31c2.49,3.67,5.04,7.29,7.68,10.86c2.85,3.85,6.4,7.58,8.68,11.77
								c0.8,1.48,1.5,3.04,1.89,4.64c0.16,0.64-0.03,2.95,0.31,3.47c0.79-0.78,1.58-1.56,2.38-2.35c-1.02,0.08-1.96-0.16-2.84-0.7
								c-0.99-0.48-1.86-1.34-2.66-2.06c-2.57-2.3-4.91-4.85-7.34-7.27c-17.25-17.29-34.51-34.59-51.75-51.88
								c-17.25-17.29-34.51-34.59-51.75-51.88c-8.62-8.65-17.25-17.29-25.89-25.93c-3.92-3.92-7.84-7.86-11.76-11.79
								c-4.02-4.04-8.93-8.07-11.83-12.95c-3.06-5.15-1.54-9.14,2.41-13.12c4.08-4.12,8.67-7.87,13.1-11.63
								c8.98-7.61,18.26-14.91,27.82-21.84c19.53-14.15,40.34-26.69,62.05-37.72c2.36-1.19,4.9-4.37,4.41-7.08
								c-0.5-2.83-3.42-2.63-5.49-1.58c-20.9,10.6-40.88,22.68-59.85,36.06c-9.27,6.55-18.29,13.42-27.01,20.59
								c-8.45,6.95-18.23,14.05-24.61,22.83c-3.04,4.17-5.25,9.14-4.56,14.37c0.63,4.83,3.67,8.87,6.97,12.49
								c8.67,9.53,18.27,18.4,27.39,27.55c18.42,18.47,36.86,36.96,55.28,55.42c18.42,18.47,36.86,36.96,55.28,55.42
								c4.7,4.72,9.41,9.43,14.11,14.15c3.59,3.6,7.58,8.7,13.28,8.82c9.8,0.2,14.3-9.96,12.19-17.83
								c-2.3-8.63-9.66-15.6-14.82-22.89c-6.14-8.69-11.82-17.66-17-26.87c-10.15-18.04-18.4-36.99-24.69-56.47
								c-14.34-44.45-17.94-91.7-10.13-137.03c0.45-2.6-1.7-3.98-4.2-3.32C1400.52,388.1,1398.17,391.1,1397.7,393.77L1397.7,393.77
								z"/>
						</g>
					</g>
					<g class="st8">
						<path d="M1250.89,469.63c-14.99,24.77-44.73,37.12-70.19,52.45c-25.45,15.33-50.04,40.27-44.61,68.8
							c3.05,16.06,15.09,29.31,26.71,41.57c51.95,54.8,105.67,108.13,161.05,159.87c2.85,2.67,6.14,5.52,10.12,5.65
							c5.81,0.19,9.85-5.92,9.37-11.4c-0.49-5.48-4.06-10.29-7.49-14.81c-33.64-44.48-64.69-91.58-81.88-143.47
							c-17.18-51.89-19.48-109.41,3.46-158.22"/>
						<g>
							<path d="M1246.96,468.6c-12.85,20.78-36.82,32.03-57.94,44.02c-22.44,12.74-44.72,28.98-54.58,52.78
								c-4.61,11.13-5.35,23.24-1.55,34.88c3.96,12.1,12.6,22.4,21.31,31.88c20.9,22.69,42.71,44.7,64.48,66.63
								c22.1,22.27,44.51,44.27,67.19,66.01c11.4,10.92,22.76,21.93,34.44,32.58c4.39,4.01,9.7,7.08,15.8,5.07
								c5.58-1.83,9.79-7.01,11.41-12.23c3.78-12.16-7.94-23.28-14.81-32.58c-8.44-11.43-16.65-23.02-24.44-34.83
								c-15.41-23.34-29.3-47.64-40.14-73.12c-21.66-50.9-30.87-108.83-13.56-161.16c2.1-6.36,4.61-12.6,7.44-18.68
								c0.99-2.14,0.16-4.81-2.63-4.85c-3.06-0.02-5.48,3.11-6.55,5.39c-22.08,47.52-21.28,102.41-6.39,152.6
								c15.09,50.83,43.8,97.12,75.66,140.44c3.9,5.3,8.06,10.47,11.8,15.87c1.78,2.58,7.06,10.32,3.71,13.28
								c-3.32,2.94-11.9-6.75-13.92-8.63c-5.49-5.14-10.97-10.31-16.42-15.48c-21.83-20.71-43.4-41.65-64.69-62.86
								c-21.48-21.38-42.69-43.02-63.62-64.88c-16.71-17.47-41.13-38.11-38.52-63.72c2.42-23.67,24.2-40.9,44.04-52.53
								c20.69-12.13,43.01-22.62,59.56-39.88c4.07-4.25,7.65-8.94,10.72-13.91c1.1-1.79,1.93-5.14-0.85-6.06
								C1251.24,463.7,1248.13,466.72,1246.96,468.6L1246.96,468.6z"/>
						</g>
					</g>
					<g class="st8">
						<path d="M1122.1,616.65c-225.28,145.83-447.91,295.24-667.76,448.13c-13.05,9.07-27.08,19.66-29.51,34.91
							c-2.74,17.23,10.32,33.21,22.56,46.67c54.28,59.75,108.56,119.5,162.85,179.25c3.78,4.16,8.15,8.63,13.86,9.24
							c11.36,1.2,16.62-12.35,18.43-22.92c17.04-99.53,60.11-193.19,114.53-279.08s120.18-164.63,186.06-242.88
							c53.61-63.67,109.34-128.74,184.97-168.02"/>
						<g>
							<path d="M1121.57,612.32c-60.62,39.25-121.04,78.74-181.28,118.48c-60,39.61-119.82,79.46-179.43,119.58
								c-59.81,40.25-119.43,80.75-178.86,121.51c-29.5,20.24-58.96,40.54-88.36,60.89c-14.59,10.11-29.27,20.12-43.75,30.37
								c-11.72,8.3-23.9,18.32-28.47,32.02c-4.45,13.37-0.18,26.76,7.8,38.43c9.11,13.29,21.11,24.98,32.01,36.97
								c24.91,27.42,49.82,54.85,74.73,82.25c12.27,13.51,24.53,27.01,36.81,40.52c6.32,6.96,12.64,13.92,18.96,20.87
								c5.84,6.42,11.42,13.25,17.7,19.3c4.88,4.71,11.23,7.78,18.12,5.94c5.8-1.53,10.21-5.92,13.26-10.61
								c7.47-11.54,7.94-26.68,10.67-39.74c13.63-65.03,38.28-127.51,69.43-186.4C752.5,1043,790.71,986.73,831.87,932.7
								c40.88-53.65,84.44-105.46,128.22-157.01c38.99-45.9,79.78-91.41,130.32-126.41c12.17-8.43,24.96-16.1,38.19-23
								c2.35-1.23,4.9-4.34,4.41-7.08c-0.5-2.81-3.42-2.65-5.49-1.58c-54.25,28.32-98.75,69.73-138.75,113.76
								c-20.49,22.55-39.96,45.89-59.53,69.16c-21.74,25.85-43.37,51.79-64.53,78.06c-41.94,52.07-82.13,105.57-117.21,162.1
								c-34.84,56.14-64.71,115.43-85.7,177.74c-10.37,30.8-18.49,62.3-24.11,94.29c-0.85,4.82-1.94,10.17-4.9,14.25
								c-3.26,4.5-8.92,2.74-12.91-0.4c-6.58-5.18-11.83-12.32-17.39-18.44c-6.13-6.75-12.27-13.51-18.41-20.26
								c-24.53-27.01-49.08-54.03-73.61-81.03c-12.08-13.3-24.17-26.6-36.26-39.9c-11.26-12.38-23.54-24.42-33.47-37.77
								c-7.94-10.66-14.83-24.12-9.33-36.86c5.51-12.74,20.08-20.91,31.3-28.71c29.15-20.25,58.34-40.45,87.57-60.58
								c58.07-39.98,116.32-79.72,174.77-119.2c58.65-39.62,117.48-78.99,176.51-118.11s118.24-78,177.63-116.63
								c14.46-9.4,28.91-18.79,43.39-28.15c2.27-1.46,4.93-4.18,4.41-7.08C1126.58,611.25,1123.56,611.03,1121.57,612.32
								L1121.57,612.32z"/>
						</g>
					</g>
					<g class="st8">
						<path d="M411.97,1108.01c-65.83,100.54-122.44,206.59-169.02,316.63c20.93,4.46,42.51-5.72,56.37-20.69
							c13.85-14.97,21.48-34.11,28.85-52.8c31.7-80.45,63.41-160.91,95.09-241.36"/>
						<g>
							<path d="M408.04,1106.95c-51.51,78.73-97.37,160.79-137.29,245.5c-11.28,23.95-22.07,48.1-32.4,72.44
								c-0.61,1.44-0.69,4.3,1.51,4.74c22.34,4.45,44.15-5.52,59.25-20.15c17.65-17.12,26.4-40.27,35.09-62.34
								c19.94-50.58,39.87-101.18,59.81-151.78c11.28-28.63,22.56-57.26,33.84-85.88c0.85-2.16,0.26-4.81-2.63-4.85
								c-2.93-0.02-5.64,3.08-6.55,5.39c-18.87,47.87-37.74,95.76-56.59,143.62c-9.53,24.18-19.06,48.37-28.58,72.55
								c-8.53,21.65-15.66,44.77-28.6,64.43c-12.26,18.6-34.15,33.86-58.88,28.95c0.5,1.58,1.01,3.15,1.51,4.74
								c36.23-85.47,78.46-168.51,126.44-248.42c13.53-22.55,27.51-44.84,41.94-66.87c1.16-1.77,1.89-5.15-0.85-6.06
								C412.27,1102.05,409.25,1105.11,408.04,1106.95L408.04,1106.95z"/>
						</g>
					</g>
				</g>
				<g id="Ebene_10_1_">
					<g class="st8">
						<g>
							<path class="st2" d="M1458.95,478.09c14.81,17.89,34.85,30.44,50.98,47.06c1.19,1.23-0.94-1.11,0.15,0.15
								c0.31,0.36,0.63,0.71,0.93,1.07c0.69,0.83,1.35,1.66,1.99,2.52c1.27,1.72,2.43,3.51,3.36,5.42c0.41,0.83,0.78,1.68,1.09,2.55
								c0.13,0.35,0.72,2.6,0.47,1.34c0.41,2.02,0.36,4.11,0.08,6.12c-1.33,10.04-8.66,17.92-15.67,24.94
								c-10.01,10.01-21.12,19.03-29.96,30.06c-4.61,5.76,9.31,10.04,13.19,11.03c5.25,1.35,10.83,2.36,16.24,2.14
								c2.95-0.13,8.38-0.02,10.32-2.43c7.91-9.88,17.67-18.18,26.81-26.99c8.01-7.71,16.63-16.48,19.96-27.14
								c6.22-19.96-15.77-36.01-29.9-47.66c-10.2-8.42-21.28-17.33-29.08-26.76c-5.45-6.57-16.67-8.79-24.93-9.33
								C1472.95,472.06,1454.08,472.2,1458.95,478.09L1458.95,478.09z"/>
						</g>
					</g>
					<g class="st8">
						<g>
							<path class="st2" d="M1394.32,672.5c-15.1,10.72-30.21,21.45-45.31,32.17c-2.34,1.66-0.26,4.38,1.22,5.67
								c2.99,2.63,8.22,4.4,11.98,5.36c7.5,1.93,19.78,4.54,26.56-0.29c15.1-10.72,30.21-21.45,45.31-32.17
								c2.34-1.66,0.26-4.38-1.22-5.67c-2.99-2.63-8.22-4.4-11.98-5.36C1413.39,670.29,1401.13,667.67,1394.32,672.5L1394.32,672.5z
								"/>
						</g>
					</g>
					<g class="st8">
						<g>
							<path class="st2" d="M1222.11,782.56c-68.86,52.76-138.07,105.11-207.41,157.33c-65.89,49.63-131.88,99.16-197.65,148.94
								c-38.01,28.76-75.94,57.61-113.77,86.58c-6.1,4.67,10.65,10.38,13.2,11.03c5.25,1.35,10.83,2.36,16.24,2.14
								c3.48-0.14,7.52-0.28,10.32-2.43c66.59-51.02,133.54-101.61,200.59-152.1c66.54-50.11,133.15-100.13,199.55-150.4
								c39.64-30.02,79.22-60.12,118.68-90.36c6.1-4.67-10.65-10.38-13.2-11.03c-5.25-1.35-10.83-2.36-16.24-2.14
								C1228.94,780.28,1224.9,780.42,1222.11,782.56L1222.11,782.56z"/>
						</g>
					</g>
					<g class="st8">
						<g>
							<path class="st2" d="M344.43,1375.32c51.68-16.71,103.81-30.48,156.37-41.2c15.29-3.12,30.65-5.99,46.06-8.64
								c1.99-0.35,6.51-1.18,6.96-3.8c0.44-2.57-3.52-5.02-5.31-5.94c-8.33-4.33-20.27-6.81-29.61-5.2
								c-55.49,9.54-110.35,22.09-164.14,37.61c-15.19,4.38-30.29,9.01-45.31,13.86c-8.79,2.84,2.03,9.31,5.92,10.73
								C324,1375.93,335.46,1378.21,344.43,1375.32L344.43,1375.32z"/>
						</g>
					</g>
				</g>
			</g>
		</g>
	</g>
</g>
</svg>
