<?xml version="1.0" encoding="utf-8"?>
<!-- Generator: Adobe Adobe Illustrator 24.2.0, SVG Export Plug-In . SVG Version: 6.00 Build 0)  -->
<svg version="1.1" xmlns="http://www.w3.org/2000/svg" xmlns:xlink="http://www.w3.org/1999/xlink" x="0px" y="0px"
	 viewBox="0 0 1700.79 1700.79" style="enable-background:new 0 0 1700.79 1700.79;" xml:space="preserve">
<style type="text/css">
	.st0{fill:#D3E1ED;}
	.st1{fill:#D3E1EC;}
	.st2{fill:#FFFFFF;}
	.st3{fill:#808D9C;}
	.st4{fill:#7F8E9C;}
	.st5{fill:#D3E1EB;}
	.st6{opacity:0.1804;}
	.st7{fill:#F2C158;stroke:#000000;stroke-width:5;stroke-miterlimit:10;}
	.st8{fill:#F2C158;stroke:#000000;stroke-width:4.312;stroke-miterlimit:10;}
	.st9{fill:#F2C158;stroke:#000000;stroke-width:5.3765;stroke-miterlimit:10;}
	.st10{fill:#F2C158;stroke:#000000;stroke-width:3.873;stroke-miterlimit:10;}
	.st11{opacity:0.149;}
	.st12{fill:#F4C159;}
	.st13{fill:#D15238;}
</style>
<g id="Ebene_4">
</g>
<g id="Ebene_5">
</g>
<g id="Ebene_6">
</g>
<g id="Ebene_8">
</g>
<g id="Ebene_11">
</g>
<g id="Ebene_7">
</g>
<g id="Ebene_3">
</g>
<g id="Ebene_9">
</g>
<g id="Ebene_14">
</g>
<g id="Ebene_10">
	<g>
		<g>
			<path class="st2" d="M357.94,673.33c-4.65,67.35-28.94,351.72,47.16,396.57c43.27,25.5,865.84,33.52,902.92,11.19
				c104.94-63.19,81.86-553.21,31.84-621.63c-39.35-53.83-694.93-41.74-694.93-41.74s-186.71,9.59-241.64,87.41"/>
			<g>
				<path class="st2" d="M354.08,673.89c-3.75,54.18-7.22,108.34-7.37,162.68c-0.1,34.66,0.93,69.4,4.54,103.88
					c3.12,29.77,7.82,60.17,18.65,88.23c6.44,16.69,16.87,37.64,34.15,45.53c7.57,3.45,16.79,4.32,24.93,5.46
					c36.08,5.08,72.71,6.85,109.06,8.76c54.73,2.88,109.53,4.67,164.32,6.07c62.65,1.6,125.32,2.6,187.99,3.12
					c61.1,0.51,122.21,0.57,183.31-0.05c49.14-0.5,98.31-1.3,147.41-3.48c16.81-0.75,33.63-1.63,50.4-3.09
					c10.05-0.87,20.34-1.67,30.18-4.03c11.97-2.87,21.08-12.56,28.36-22.01c12.85-16.68,20.97-36.95,27.31-56.86
					c17.96-56.47,23.79-116.91,26.82-175.82c3.39-65.76,2.22-131.87-3.17-197.49c-2.36-28.69-5.54-57.35-10.22-85.76
					c-3.53-21.45-7.76-42.96-14.43-63.69c-3.44-10.69-7.64-25.38-16.98-32.59c-9.38-7.24-22.04-10.31-33.31-13.07
					c-42.54-10.42-87.14-13.58-130.69-16.76c-59.65-4.35-119.46-6.54-179.25-8.01c-60-1.48-120.01-2.11-180.02-2.22
					c-43.82-0.08-87.64,0.11-131.46,0.61c-15.59,0.18-31.29-0.14-46.85,1.08c-55.77,4.38-113.26,14.56-164.89,36.59
					c-27.57,11.76-54.95,27.9-72.66,52.72c-3.36,4.71,3.27,6.91,6.17,2.85c18.25-25.58,48.1-41.06,76.7-52.18
					c30.43-11.84,62.44-19.42,94.58-24.87c24.37-4.13,49.18-7.66,73.94-8.05c10.35-0.16,22.87-0.32,34.35-0.45
					c19.24-0.21,38.47-0.36,57.71-0.45c53.8-0.27,107.6-0.13,161.39,0.52c61.16,0.74,122.33,2.11,183.44,4.81
					c53,2.34,106.15,5.33,158.81,11.96c18.68,2.35,37.41,5.11,55.71,9.59c6.33,1.55,12.62,3.33,18.69,5.71
					c4.18,1.64,9.27,4.04,11.91,6.24c8.57,7.13,12.63,21.69,15.99,32.4c6.58,20.98,10.65,42.78,14.09,64.46
					c9.5,59.76,13.37,120.52,14.34,180.97c1.03,64.67-1.36,129.84-11.05,193.86c-4.01,26.48-9.26,52.93-17.58,78.42
					c-6.23,19.1-14.11,38.72-26.98,54.42c-4.59,5.6-9.77,10.61-16.01,14.2c1.26-0.72,0.29-0.09-0.39,0.13
					c-0.61,0.2-1.2,0.42-1.81,0.62c-1.57,0.52,0.1,0.03-1.24,0.34c-0.8,0.19-1.61,0.37-2.42,0.54c-10.69,2.21-21.72,3.06-32.59,3.93
					c-39.63,3.17-79.46,4.15-119.2,5.03c-56.22,1.24-112.46,1.6-168.7,1.57c-62.36-0.03-124.71-0.6-187.06-1.66
					c-59.32-1.01-118.64-2.44-177.94-4.65c-45.91-1.71-91.85-3.7-137.65-7.36c-15.1-1.2-30.21-2.55-45.22-4.65
					c-5.04-0.71-10.07-1.49-15.04-2.57c-3.72-0.81-5.04-0.9-8.47-2.5c-17.05-7.95-26.7-29.64-32.72-46.15
					c-10.21-28.02-14.52-58.17-17.42-87.72c-6.46-65.95-4.65-132.67-0.87-198.73c1.17-20.52,2.7-41.01,4.11-61.51
					C362.18,667.3,354.37,669.6,354.08,673.89L354.08,673.89z"/>
			</g>
		</g>
		<g>
			<g>
				<path class="st4" d="M391.33,1110.8c4.08,0,8-7.75,3.02-7.75C390.28,1103.05,386.36,1110.8,391.33,1110.8L391.33,1110.8z"/>
			</g>
		</g>
		<g>
			<path class="st2" d="M386.43,1099.05c-62.82,80.07-94.01,178.52-86.99,274.6c3.2,43.76,15.32,89.11,49.05,121.11
				c53.63,50.91,143.32,53.63,223.09,52.84c206.83-2.05,413.66-4.11,620.49-6.16c36.03-0.36,72.54-0.77,107.43-9.17
				c34.89-8.4,65.02-29.21,83.65-56.47c45.73-66.9-3.07-232.74-27.58-336.69c-5.38-22.82-46.59-52.46-101.11-53.04
				c-287.22-3.06-575.87,2.29-851.58-0.65"/>
			<g>
				<path class="st2" d="M383.35,1097.63c-55.53,71.09-88.53,159.38-88.75,249.91c-0.1,41.52,5.77,85.46,27.71,121.54
					c21.19,34.83,55.91,56.52,94.4,67.89c40.02,11.81,82.22,14.19,123.72,14.57c50.94,0.46,101.94-0.77,152.88-1.27
					c107.74-1.07,215.48-2.14,323.21-3.21c53.69-0.53,107.38-1.07,161.07-1.6c25.8-0.26,51.68-0.17,77.4-2.43
					c23.54-2.07,47.55-5.82,69.34-15.33c32.05-14,61.88-39.9,73.24-73.78c10.35-30.88,9.46-65.07,6.56-97.09
					c-3.6-39.79-11.52-79.12-20.35-118.03c-4.3-18.94-8.89-37.82-13.52-56.68c-2.22-9.03-4.44-18.05-6.64-27.09
					c-1.79-7.35-2.89-15.29-5.72-22.33c-5.18-12.88-17.04-22.64-28.44-29.86c-16.52-10.45-35.73-16.71-55.04-19.3
					c-12.54-1.68-25.21-1.4-37.83-1.52c-13.65-0.13-27.3-0.24-40.94-0.33c-26.58-0.18-53.16-0.3-79.74-0.37
					c-106.65-0.29-213.3,0.21-319.95,0.65c-105.61,0.43-211.21,0.8-316.82,0.2c-24.92-0.14-49.83-0.34-74.75-0.6
					c-4.08-0.04-8.01,7.69-3.02,7.75c102.12,1.08,204.25,1.04,306.38,0.72c103.82-0.32,207.63-0.94,311.45-1.03
					c52.06-0.05,104.12,0.03,156.18,0.33c26.48,0.16,53,0.01,79.47,0.67c20.65,0.51,41.26,5.12,59.76,14.42
					c13.15,6.61,27.06,16.08,34.27,29.34c3.37,6.2,4.36,13.41,6.01,20.2c2.05,8.46,4.12,16.9,6.2,25.35
					c9.26,37.66,18.47,75.35,25.61,113.48c6.77,36.12,12.33,73.13,11.33,109.98c-0.83,30.69-6.61,60.54-27.64,83.99
					c-13.75,15.33-31.03,27.29-50.08,35.09c-21.89,8.96-45.95,12.13-69.39,13.9c-25.9,1.96-51.92,1.8-77.87,2.05
					c-26.3,0.26-52.61,0.52-78.91,0.78c-105.22,1.04-210.43,2.09-315.65,3.13c-52.25,0.52-104.5,1.04-156.74,1.56
					c-44.62,0.44-89.48,2.03-133.99-1.89c-39.27-3.45-79.79-11.23-113.69-32.38c-36.01-22.47-57.11-59.35-65.72-100.24
					c-8.82-41.88-7.61-86.22-0.21-128.21c7.72-43.77,23.05-86.19,44.71-124.99c10.77-19.29,23.08-37.66,36.67-55.07
					C393.08,1095.91,386.38,1093.74,383.35,1097.63L383.35,1097.63z"/>
			</g>
		</g>
		<g>
			<path class="st0" d="M420.82,1137.95c0,0-70.91,88.33-29.29,160.25c4.89,8.45,333.78,93.83,871.5,24.95
				c84.11-10.77,18.42-166.91,12.47-179.79c-7.58-16.38-78.12-27.25-101.78-27.46c-94.01-0.85-526.06-8.05-739.91,15.75"/>
			<g>
				<path class="st1" d="M417.74,1136.52c-16.3,20.36-28.91,45.31-36.42,70.16c-6.03,19.94-8.82,41.22-5.07,61.88
					c0.94,5.18,2.29,10.3,4,15.28c1.87,5.41,4.08,12.2,7.65,16.74c0.76,0.96,1.32,1.5,2.42,2.14c6.74,3.84,15.42,5.45,22.81,7.42
					c16.2,4.31,32.61,7.8,49.06,10.98c57.94,11.22,116.69,18.39,175.46,23.47c88.95,7.69,178.33,10.14,267.58,8.69
					c118.12-1.92,236.11-10.89,353.29-25.77c14.6-1.85,27.92-6.44,37.44-18.25c8.37-10.39,11.92-23.82,13.01-36.91
					c2.52-30.25-5.23-61.18-14.31-89.8c-3.5-11.04-7.41-21.95-11.76-32.68c-3.15-7.77-5.71-13.37-13.44-17.78
					c-15.54-8.88-34.9-12.3-52.29-15.37c-15.06-2.65-30.27-4.58-45.58-4.73c-56.64-0.55-113.27-1.25-169.91-1.5
					c-86.52-0.39-173.04-0.08-259.55,1.55c-85.73,1.61-171.58,4.14-257.07,10.97c-16.93,1.35-33.84,2.91-50.72,4.78
					c-4.24,0.47-6.57,8.33-1.1,7.72c78.43-8.7,157.52-11.77,236.36-14.06c88.1-2.56,176.25-3.35,264.39-3.36
					c66.81,0,133.61,0.52,200.41,1.27c22.77,0.25,45.38-0.04,67.97,3.22c18.55,2.68,37.79,6.07,55.17,13.33
					c4.89,2.04,11.21,4.6,14.08,9.39c1.32,2.19,2.15,4.83,3.13,7.19c9.62,23.28,17.48,47.53,22.44,72.24
					c2.95,14.68,5.03,29.83,4.31,44.83c-0.6,12.39-2.96,25.7-10.81,35.71c-10.48,13.38-27.27,14.07-42.86,16
					c-30.57,3.77-61.19,7.14-91.86,10.08c-57.7,5.54-115.54,9.58-173.45,11.99c-94.55,3.94-189.33,3.56-283.8-2.22
					c-65.78-4.03-131.51-10.56-196.57-21.18c-32.71-5.34-67.17-11.13-98.1-21.05c-2.87-0.92-5.66-1.95-8.42-3.14
					c-0.34-0.15-0.67-0.45-1.02-0.56c0,0,0.67,0.68,0.1,0.01c-0.25-0.29,0.28,0.03,0.42,0.6c-0.29-1.21-1.52-2.71-2.1-3.82
					c-1.31-2.52-2.51-5.1-3.59-7.72c-2.32-5.62-4.07-11.45-5.23-17.41c-7.41-38.07,7.52-77.39,27.28-109.44
					c3.82-6.19,7.83-12.36,12.38-18.04c1.22-1.52,1.11-4.1-0.7-5.06C421.16,1133.23,418.92,1135.05,417.74,1136.52L417.74,1136.52z"
					/>
			</g>
		</g>
		<g>
			<path class="st0" d="M704.13,1425.68c-0.08-20.18,4.77-41.37,14.59-41.66c24.87-0.76,50.79-1.82,72.38-0.21
				c55.25,4.12,110.49,8.24,165.74,12.36c5.25,0.39,10.57,0.8,15.47,2.43c11.74,3.9,19.21,14.38,21.73,25.17
				c2.52,10.79,0.89,22.02-0.74,33c-90.63-0.73-181.27-1.46-271.9-2.19c-5.63-0.05-11.7-0.22-16.1-3.24
				c-4.39-3.02,1.66-15.41-0.58-19.92"/>
			<g>
				<path class="st1" d="M708,1424.17c0.03-10.06,0.71-21.28,4.86-30.6c1.19-2.68,2.35-5.07,5.3-5.69
					c5.63-1.19,12.52-0.4,18.28-0.56c24.45-0.71,48.49,0.02,72.86,1.84c50.09,3.74,100.39,6.44,150.39,11.25
					c12.26,1.18,22.37,6.38,27.9,17.82c5.91,12.21,3.75,26.21,1.84,39.1c1.79-1.47,3.58-2.95,5.37-4.42
					c-85.64-0.69-171.27-1.38-256.91-2.07c-5.77-0.05-11.55-0.01-17.32-0.16c-3.2-0.08-10.98,0.1-12.82-3.2
					c-1.25-2.25,0.53-7.19,0.89-9.53c0.47-3.01,0.8-6-0.31-8.9c-1.65-4.33-8.76,0.82-7.26,4.77c1.98,5.19-2.55,11.67-0.96,17.23
					c1.92,6.71,11.73,7.23,17.43,7.38c22.08,0.57,44.21,0.37,66.3,0.55c43.98,0.35,87.97,0.71,131.95,1.06
					c25.32,0.2,50.65,0.41,75.97,0.61c2.55,0.02,4.98-1.8,5.37-4.43c1.83-12.38,3.64-25.33-0.22-37.52
					c-3.07-9.7-10-18.42-19.4-22.62c-11.42-5.1-25.7-4.27-37.93-5.18c-14.14-1.05-28.28-2.11-42.42-3.16
					c-28.61-2.13-57.22-4.27-85.83-6.4c-26.95-2.01-53.53-2.37-80.55-1.53c-5.35,0.17-11.79-0.8-16.6,1.98
					c-3.58,2.07-6,5.62-7.77,9.26c-5.35,10.98-6.14,24.16-6.17,36.16C700.24,1432.15,707.99,1428.26,708,1424.17L708,1424.17z"/>
			</g>
		</g>
		<g>
			<g>
				<path class="st1" d="M1286.38,1189.68c4.08,0,8-7.75,3.02-7.75C1285.33,1181.93,1281.41,1189.68,1286.38,1189.68
					L1286.38,1189.68z"/>
			</g>
		</g>
		<g>
			<path class="st2" d="M418.59,682.36c13.9,168.64,16.86,336.64,68.94,340.68c128.5,9.98,650.81,20.85,749.43,2.54
				c26.57-4.93,42.29-59.1,45.54-82.67c16.36-118.47,25.31-237.62,26.8-356.74c0.36-28.8-2.23-62.12-28.94-78.56
				c-81.61-50.23-687.64-55.54-799.18-5.21c-34.06,15.37-46.43,53.89-53.54,86.71c-7.11,32.83-5.4,66.44-3.66,99.7"/>
			<g>
				<path class="st2" d="M414.71,683.87c5.85,71.15,9.14,142.64,17.73,213.54c3.17,26.16,6.98,52.48,14.22,77.86
					c4.42,15.5,10.33,33.68,23.05,44.52c9.45,8.05,21.32,7.55,33.04,8.3c14.07,0.89,28.16,1.62,42.25,2.28
					c37.76,1.77,75.54,3.07,113.33,4.19c46.09,1.36,92.2,2.41,138.3,3.2c48.23,0.83,96.46,1.37,144.69,1.54
					c44.9,0.16,89.8,0.01,134.7-0.74c35.54-0.6,71.11-1.47,106.6-3.64c12.55-0.77,25.11-1.68,37.6-3.13
					c4.63-0.54,9.25-1.14,13.85-1.93c8.73-1.49,15.88-5.71,21.87-12.23c15.5-16.87,23.25-41.08,28.15-63.01
					c3.28-14.66,4.67-29.78,6.56-44.67c2.49-19.65,4.77-39.32,6.85-59.01c8.31-78.64,13.37-157.62,15.15-236.68
					c0.64-28.39,4.25-61.06-9.02-87.36c-7-13.87-18.73-23.17-32.93-28.64c-22.5-8.66-47.03-12.59-70.76-16.16
					c-35.21-5.3-70.71-8.6-106.21-11.19c-42.81-3.12-85.71-5.06-128.62-6.24c-45.96-1.26-91.94-1.63-137.91-1.14
					c-44.26,0.47-88.52,1.71-132.72,4.1c-37.95,2.05-75.9,4.85-113.62,9.47c-27.42,3.36-55.12,7.35-81.7,15.11
					c-14.2,4.15-27.6,9.83-38.69,19.98c-20.02,18.31-29.22,45.4-35.26,71.1c-8.29,35.26-6.99,71.14-5.11,107.03
					c0.26,5.01,7.96,1.1,7.75-3.02c-1.92-36.71-2.92-73.03,6.02-108.98c6.3-25.34,16.64-52.9,39.5-67.78
					c9.58-6.24,20.96-9.69,31.94-12.6c12.12-3.22,24.46-5.61,36.81-7.7c33.14-5.61,66.68-8.94,100.17-11.55
					c41.03-3.2,82.16-5.1,123.3-6.27c44.88-1.27,89.79-1.61,134.69-1.16c44.05,0.45,88.1,1.66,132.11,3.85
					c38.94,1.94,77.87,4.59,116.64,8.7c29.52,3.13,59.16,6.86,88.15,13.41c9.72,2.2,19.43,4.71,28.75,8.3
					c14.45,5.56,25.83,15.13,32.11,29.73c5.26,12.21,6.78,25.73,7.26,38.91c0.63,17.65-0.19,35.4-0.66,53.05
					c-1.03,38.52-2.83,77.01-5.42,115.46c-2.61,38.82-6,77.59-10.18,116.27c-2.06,19.03-4.3,38.05-6.74,57.04
					c-1.79,13.96-3.18,28.09-6.4,41.82c-2.7,11.49-6.4,22.82-11.28,33.57c-4.3,9.5-9.85,19.85-18.38,26.25
					c-8.31,6.24-21.42,6.15-31.43,7.16c-29.46,2.97-59.13,4.04-88.72,4.94c-40.9,1.24-81.82,1.7-122.74,1.85
					c-46.45,0.17-92.91-0.09-139.36-0.62c-46.9-0.54-93.79-1.37-140.68-2.48c-41.64-0.99-83.29-2.18-124.91-3.73
					c-30.89-1.15-61.79-2.42-92.64-4.38c-10.94-0.69-22.47,0.13-31.02-7.85c-12.46-11.64-17.9-30.57-22.06-46.51
					c-6.71-25.68-10.29-52.18-13.32-78.51c-3.81-33.09-6.39-66.3-8.86-99.51c-2.66-35.7-5.12-71.42-8.05-107.11
					C422.05,675.82,414.37,679.74,414.71,683.87L414.71,683.87z"/>
			</g>
		</g>
		<g>
			<g>
				<path d="M379.39,1202.85c-3.31,15.82-6.09,31.86-6.57,48.05c-0.38,13.18,0.1,28.35,6.57,40.23c3.31,6.07,8.97,10.39,14.77,13.92
					c18.72,11.39,41.54,16.59,62.71,21.17c32.66,7.07,65.92,11.36,99.13,14.82c41.36,4.31,82.87,7.06,124.4,9.03
					c45.95,2.17,91.94,3.32,137.93,3.72c46.73,0.41,93.47,0.04,140.19-1.09c43.17-1.05,86.32-2.74,129.42-5.37
					c36.3-2.21,72.59-5.02,108.71-9.26c25.09-2.95,50.42-6.24,74.92-12.58c7.52-1.95,15.14-4.09,22.12-7.57
					c9.51-4.74,15.3-13.09,18.29-23.31c6.11-20.86,2.59-44.23-1.88-65.05c-5.12-23.9-12.85-47.39-22.6-69.8
					c-3.67-8.44-7.63-16.83-12.37-24.72c-2.68-4.46-5.65-9.63-10.11-12.55c-4.62-3.02-10.61-4.16-15.92-5.27
					c-22.41-4.68-45.7-5.9-68.5-7.26c-35.52-2.12-71.1-3.06-106.68-3.68c-43.55-0.76-87.11-0.91-130.66-0.74
					c-46.74,0.18-93.47,0.75-140.2,1.62c-45.22,0.83-90.44,1.95-135.65,3.38c-39.03,1.23-78.05,2.69-117.05,4.58
					c-27.67,1.34-55.35,2.79-82.95,5.13c-8.26,0.7-16.54,1.44-24.74,2.62c-8.91,1.28-15.88,3.97-23.74,8.97
					c-24.85,15.83-33.18,43.67-39.52,70.79c-1.24,5.29,6.77,2.97,7.72-1.1c3.29-14.07,6.75-28.64,13.92-41.33
					c7.18-12.7,18.01-22.11,31.44-27.77c0.27-0.12,0.56-0.19,0.84-0.3c1.24-0.47-0.14,0.01,0.35-0.11c0.97-0.24,1.95-0.44,2.93-0.63
					c2.78-0.53,5.59-0.91,8.4-1.27c21.14-2.69,42.51-3.86,63.77-5.13c34.07-2.03,68.18-3.52,102.28-4.82
					c42.13-1.61,84.27-2.88,126.41-3.92c45.96-1.13,91.93-1.96,137.9-2.48c44.83-0.5,89.66-0.71,134.49-0.45
					c39.49,0.23,78.99,0.78,118.47,2.13c29.33,1,58.73,2.26,87.94,5.25c9.52,0.97,19.07,2.1,28.46,3.97
					c5.63,1.12,10.15,1.73,15.19,4.84c0.45,0.28-0.4-0.47,0.67,0.55c0.86,0.82,1.67,1.67,2.42,2.59c1.9,2.31,3.49,4.85,5.02,7.41
					c4.67,7.82,8.57,16.1,12.2,24.44c9.58,22.03,17.24,45.09,22.23,68.6c4.23,19.92,8.44,43.76,1.37,63.54
					c-1.19,3.33-2.75,6.58-4.99,9.34c-0.61,0.76-1.31,1.43-2,2.11c-0.71,0.7,0.78-0.46-0.56,0.44c-0.97,0.66-1.94,1.28-2.96,1.87
					c-1.39,0.8,0.24-0.07-1,0.53c-0.73,0.35-1.47,0.7-2.21,1.02c-17.41,7.65-36.85,10.41-55.87,13.41
					c-30.98,4.89-62.26,7.98-93.51,10.54c-39.87,3.27-79.83,5.48-119.81,7.08c-44.87,1.8-89.78,2.79-134.69,3.09
					c-45.89,0.3-91.78-0.11-137.65-1.37c-43.38-1.19-86.75-3.13-130.04-6.25c-37.33-2.7-74.66-6.2-111.7-11.65
					c-27.32-4.02-54.95-8.74-81.24-17.42c-8.87-2.93-17.73-6.32-25.8-11.08c-4.88-2.87-10.73-7.39-13.13-11.87
					c-6.31-11.75-6.67-26.71-6.05-39.71c0.72-15.16,3.35-30.17,6.45-45C388.22,1196.42,380.25,1198.73,379.39,1202.85
					L379.39,1202.85z"/>
			</g>
		</g>
		<g>
			<g>
				<path d="M416.31,1083.03c-19.3-2.71-35.79,11.46-47.23,25.32c-17.59,21.32-29.54,47.25-39.37,72.88
					c-12.23,31.86-21.15,65.07-27.45,98.6c-6.03,32.09-9.74,64.84-9.15,97.52c0.58,31.82,6.42,62.65,22.29,90.63
					c21.78,38.38,57.44,64.85,100.42,74.67c25.01,5.71,50.85,6.55,76.4,6.71c27.78,0.18,55.57,0.03,83.35,0.03
					c56.96,0,113.92,0,170.89,0c113.92,0,227.85,0.01,341.77,0.01c28.52,0,57.03,0.07,85.55-0.01c26.94-0.07,53.97-0.53,80.72-4.06
					c44.7-5.9,92.75-21.47,123.05-56.75c29.74-34.63,33.29-80.47,27.98-124.03c-2.96-24.23-8.23-48.13-12.99-72.05
					c-5.66-28.44-11.32-56.88-16.98-85.32c-4.48-22.53-7.75-45.85-15.35-67.61c-6.47-18.54-17.33-35.48-34.79-45.31
					c-20.81-11.72-46.14-11.48-69.31-11.48c-28.57,0-57.14,0.02-85.71,0.03c-111.93,0.03-223.85,0.07-335.78,0.1
					c-111.95,0.03-223.9,0.07-335.85,0.1C471.29,1083.01,443.8,1083.02,416.31,1083.03c-4.08,0-8,7.75-3.02,7.75
					c109.64-0.03,219.28-0.07,328.91-0.1c108.02-0.03,216.03-0.07,324.05-0.1c54.66-0.02,109.32-0.03,163.98-0.05
					c24.13-0.01,49.68-1.98,73.27,4.17c21.24,5.54,36.59,19.91,45.51,39.69c9.08,20.13,12.19,42.6,16.47,64.09
					c5.38,27.02,10.75,54.04,16.13,81.06c9.06,45.53,22.42,93.35,17.35,140.17c-2.37,21.88-9.55,42.99-23.1,60.53
					c-13.54,17.51-32.59,30.25-52.63,39.21c-47.12,21.07-99.9,22.14-150.64,22.2c-110.56,0.14-221.12,0-331.68,0
					c-110.66,0-221.32,0.02-331.97-0.01c-47.34-0.01-97.98-0.18-138.99-27.18c-32.34-21.29-55.69-56.57-64.17-94.23
					c-6.27-27.84-5.85-57.13-3.5-85.41c2.75-33.14,8.72-66.06,17.17-98.21c7.99-30.39,18.25-60.53,32.42-88.64
					c9.63-19.11,22.02-40.89,40.83-52.38c6.24-3.81,13.27-5.83,20.58-4.8C417.4,1091.35,421.36,1083.74,416.31,1083.03
					L416.31,1083.03z"/>
			</g>
		</g>
		<g>
			<g>
				<path d="M297.13,1405.83c70.26,13.58,140.97,24.79,211.98,33.65c71.39,8.9,143.08,15.44,214.9,19.65
					c72.5,4.25,145.14,6.13,217.76,5.6c71.82-0.52,143.63-3.35,215.26-8.61c71.9-5.29,143.63-13.01,214.99-23.3
					c8.87-1.28,17.73-2.6,26.59-3.96c4.19-0.64,6.53-8.55,1.1-7.72c-70.84,10.84-142.06,19.18-213.49,25.07
					c-71.92,5.93-144.04,9.41-216.2,10.5c-72.65,1.1-145.35-0.24-217.91-3.95c-71.56-3.65-143.01-9.62-214.19-17.92
					c-70.85-8.26-141.42-18.84-211.56-31.8c-8.74-1.62-17.48-3.27-26.21-4.96C296.07,1397.3,292.1,1404.86,297.13,1405.83
					L297.13,1405.83z"/>
			</g>
		</g>
		<g>
			<g>
				<path d="M702.85,1449.12c2.5-15.03,0.99-30.42,4.5-45.38c2.82-12,8.83-21.33,22.18-20.99c18.22,0.47,36.44,1.2,54.66,1.8
					c32.21,1.06,64.42,2.12,96.63,3.18c25.51,0.84,51.03,1.68,76.54,2.52c4.56,0.15,9.74-0.3,14.25,0.73
					c8.38,1.91,11.83,11.1,13.54,18.58c2.46,10.77,2.8,21.99,3.23,32.99c0.21,5.5,0.4,11,0.72,16.5c0.3,5.02,7.99,1.1,7.75-3.02
					c-0.7-11.77-0.72-23.59-1.83-35.34c-0.89-9.45-2.22-19.97-7.43-28.15c-5.01-7.86-12.34-9.53-20.84-9.81
					c-23.83-0.78-47.66-1.57-71.49-2.35c-33.84-1.11-67.68-2.23-101.52-3.34c-20.23-0.67-40.47-1.34-60.7-2
					c-35.4-1.14-35.46,40.37-37,65.94c-0.19,3.1-0.41,6.2-0.92,9.26C694.23,1455.63,702.15,1453.31,702.85,1449.12L702.85,1449.12z"
					/>
			</g>
		</g>
		<g>
			<g>
				<path d="M838.18,1386.28c-0.67,23.93-5.37,47.59-6.04,71.52c-0.15,5.49,7.6,3.2,7.72-1.1c0.67-23.93,5.37-47.59,6.04-71.52
					C846.05,1379.68,838.3,1381.98,838.18,1386.28L838.18,1386.28z"/>
			</g>
		</g>
		<g>
			<g>
				<path d="M430.57,1311c1.94-32.54,8.91-64.81,18.56-95.89c9.81-31.6,22.49-62.66,39.64-91.03c2.98-4.93-3.56-7.18-6.17-2.85
					c-27.31,45.19-45.06,97.11-54.54,148.92c-2.54,13.87-4.37,27.87-5.21,41.95C422.52,1317.59,430.31,1315.29,430.57,1311
					L430.57,1311z"/>
			</g>
		</g>
		<g>
			<g>
				<path d="M510.2,1327.66c-0.66-27.61,3.3-55.28,9.29-82.17c6.37-28.63,15.35-56.74,26.68-83.79
					c6.01-14.35,12.72-28.4,20.38-41.94c2.83-5-3.67-7.27-6.17-2.85c-28.84,50.97-47.78,109.33-55.3,167.37
					c-1.99,15.39-3,30.9-2.63,46.42C502.57,1335.67,510.3,1331.77,510.2,1327.66L510.2,1327.66z"/>
			</g>
		</g>
		<g>
			<g>
				<path d="M584.31,1333.85c-2.37-28.05,0.83-56.42,6.24-83.95c5.86-29.82,14.65-59.12,25.95-87.33
					c5.89-14.72,12.5-29.16,20.11-43.08c2.75-5.03-3.73-7.31-6.17-2.85c-14.32,26.19-25.55,54.03-34.4,82.51
					c-9.14,29.41-15.99,59.74-18.89,90.43c-1.49,15.71-1.9,31.56-0.57,47.29C576.99,1341.9,584.66,1337.98,584.31,1333.85
					L584.31,1333.85z"/>
			</g>
		</g>
		<g>
			<g>
				<path d="M643.16,1339.44c0.88-29.19,6.02-58.21,12.35-86.65c6.98-31.36,15.8-62.33,26-92.79c5.1-15.22,10.56-30.32,16.53-45.22
					c2.14-5.35-5.5-5.12-7.19-0.89c-22.96,57.32-40.85,117.94-50.57,178.97c-2.51,15.79-4.36,31.71-4.85,47.7
					C635.28,1346.04,643.03,1343.74,643.16,1339.44L643.16,1339.44z"/>
			</g>
		</g>
		<g>
			<g>
				<path d="M724.12,1343.14c-1.15-29.24,1.88-58.67,6.18-87.56c4.76-31.95,11.44-63.73,20.59-94.72
					c4.52-15.31,9.66-30.46,15.95-45.15c2.27-5.3-5.4-5.06-7.19-0.89c-11.93,27.86-20.08,57.37-26.76,86.88
					c-7.23,31.97-12.57,64.48-15.23,97.17c-1.28,15.72-1.91,31.53-1.29,47.29C716.57,1351.16,724.28,1347.25,724.12,1343.14
					L724.12,1343.14z"/>
			</g>
		</g>
		<g>
			<g>
				<path d="M788.5,1295.98c-0.24-24.91,2.98-49.87,7.3-74.36c4.51-25.56,10.48-50.92,18.24-75.69c3.6-11.47,7.59-22.84,12.38-33.87
					c2.29-5.29-5.39-5.04-7.19-0.89c-9.28,21.4-15.87,43.99-21.54,66.58c-6.6,26.29-11.72,53.04-14.68,79.99
					c-1.51,13.71-2.39,27.49-2.26,41.28C780.8,1303.97,788.54,1300.08,788.5,1295.98L788.5,1295.98z"/>
			</g>
		</g>
		<g>
			<g>
				<path d="M854.74,1291.91c-0.55-22.34,1.51-44.81,3.49-67.03c2.32-26.11,5.21-52.18,8.51-78.19c1.44-11.34,2.95-22.68,4.67-33.99
					c0.82-5.42-7.08-3.1-7.72,1.1c-7.35,48.54-12.91,97.65-15.78,146.66c-0.67,11.47-1.19,22.98-0.91,34.47
					C847.11,1299.92,854.84,1296.02,854.74,1291.91L854.74,1291.91z"/>
			</g>
		</g>
		<g>
			<g>
				<path d="M926.01,1288.49c3.58-58.99-3.46-118.25-5.77-177.15c-0.2-5-7.91-1.09-7.75,3.02c2.28,58.25,9.33,116.9,5.8,175.23
					C917.96,1295.09,925.75,1292.78,926.01,1288.49L926.01,1288.49z"/>
			</g>
		</g>
		<g>
			<g>
				<path d="M968.65,1115.57c8.44,28.05,12.43,57.47,15.33,86.55c3.15,31.72,4.6,63.62,4.89,95.49c0.14,15.77-0.02,31.55-0.59,47.32
					c-0.2,5.49,7.56,3.19,7.72-1.1c2.23-62.02,0.37-125.24-9.67-186.56c-2.57-15.68-5.83-31.25-10.41-46.46
					C974.6,1106.44,967.44,1111.55,968.65,1115.57L968.65,1115.57z"/>
			</g>
		</g>
		<g>
			<g>
				<path d="M1031.15,1112.02c22.62,56.13,31.92,118.51,34.34,178.71c0.66,16.49,0.66,33-0.29,49.47c-0.32,5.49,7.47,3.19,7.72-1.1
					c3.55-61.73-3.39-125.33-19.21-185.07c-4.2-15.87-9.16-31.55-15.3-46.78C1036.67,1102.93,1029.57,1108.1,1031.15,1112.02
					L1031.15,1112.02z"/>
			</g>
		</g>
		<g>
			<g>
				<path d="M1097.26,1113.12c13.45,25.86,20.79,54.73,26.36,83.18c6.08,31.03,9.77,62.54,11.69,94.09
					c0.94,15.44,1.42,30.91,1.24,46.38c-0.03,2.23,2.72,2.64,4.32,2.08c2.19-0.77,3.4-2.91,3.43-5.11
					c0.35-29.26-1.52-58.57-4.85-87.63c-3.62-31.63-9.01-63.23-17.93-93.83c-4.4-15.09-9.73-29.98-16.99-43.94
					C1102.35,1104.17,1095.32,1109.38,1097.26,1113.12L1097.26,1113.12z"/>
			</g>
		</g>
		<g>
			<g>
				<path d="M1166.14,1115.68c10.55,25.9,17.02,53.34,22.31,80.73c5.64,29.2,9.72,58.67,13.41,88.17
					c1.89,15.08,3.66,30.18,5.53,45.26c0.62,5.04,8.26,1.11,7.75-3.02c-7.14-57.68-12.97-115.96-27.64-172.34
					c-3.85-14.78-8.33-29.41-14.1-43.57C1171.64,1106.6,1164.54,1111.77,1166.14,1115.68L1166.14,1115.68z"/>
			</g>
		</g>
		<g>
			<g>
				<path d="M1223.72,1120.29c9.05,24.17,15.41,49.32,21.05,74.47c6.12,27.27,11.2,54.77,15.57,82.36
					c2.17,13.71,4.15,27.45,5.9,41.22c0.64,5.04,8.27,1.1,7.75-3.02c-6.83-53.93-16.23-108.01-30.58-160.48
					c-3.63-13.26-7.61-26.44-12.44-39.32C1229.35,1111.18,1222.24,1116.33,1223.72,1120.29L1223.72,1120.29z"/>
			</g>
		</g>
		<g>
			<g>
				<path d="M405.53,1157.23c111.92,15.59,224.77,24.2,337.7,27.64c115.65,3.52,231.5,1.6,346.96-5.89
					c62.84-4.08,125.57-9.85,188.06-17.57c4.23-0.52,6.56-8.39,1.1-7.72c-112.53,13.91-225.82,21.58-339.17,24.17
					c-115.51,2.64-231.2-0.06-346.42-8.72c-61.92-4.66-123.71-11.08-185.21-19.65C404.44,1148.91,400.48,1156.53,405.53,1157.23
					L405.53,1157.23z"/>
			</g>
		</g>
		<g>
			<g>
				<path d="M380.09,1214.31c57,9.7,114.39,17.04,171.95,22.48c60.44,5.71,121.08,9.35,181.76,11.18
					c61.11,1.85,122.28,1.86,183.4,0.13c60.77-1.72,121.5-5.17,182.07-10.49c58.31-5.12,116.49-11.96,174.35-20.85
					c7.1-1.09,14.19-2.22,21.28-3.37c4.18-0.68,6.51-8.6,1.1-7.72c-57.1,9.29-114.52,16.54-172.1,22.06
					c-60.32,5.79-120.81,9.7-181.37,11.87c-61.37,2.2-122.8,2.61-184.2,1.19c-60.61-1.4-121.18-4.58-181.58-9.79
					c-57.72-4.98-115.3-11.8-172.52-20.95c-7.05-1.13-14.09-2.29-21.12-3.49C379.02,1205.87,375.05,1213.46,380.09,1214.31
					L380.09,1214.31z"/>
			</g>
		</g>
		<g>
			<g>
				<path d="M379.92,1272.28c118.87,19.81,239.48,27.57,359.9,28.26c121.49,0.7,242.93-5.72,364.01-15.28
					c67.43-5.32,134.77-11.64,202.08-18.29c4.25-0.42,6.58-8.26,1.1-7.72c-120.31,11.89-240.77,22.71-361.53,28.72
					c-120.89,6.02-242.17,7.27-363-0.71c-66.82-4.41-133.47-11.71-199.54-22.72C378.85,1263.85,374.88,1271.44,379.92,1272.28
					L379.92,1272.28z"/>
			</g>
		</g>
		<g>
			<g>
				<path d="M417.18,1083.27c-27.96-19.01-42.36-53.31-51.32-84.64c-12.37-43.27-16.18-89-17.14-133.83
					c-1.07-50.19,2.08-100.48,8.05-150.31c5.42-45.28,13.12-90.44,24.46-134.63c4.37-17.04,9.34-33.98,15.47-50.48
					c4.4-11.85,9.23-23.7,16.14-34.23c5-7.62,11.44-13.52,19.36-18.84c9.87-6.63,20.53-11.59,31.63-15.92
					c30.15-11.77,62.23-18.47,94.06-23.78c40.89-6.81,82.23-10.88,123.57-13.71c46.9-3.21,93.92-4.71,140.92-5.12
					c48.2-0.42,96.41,0.31,144.57,2.01c45.5,1.6,90.98,4.07,136.38,7.53c38.81,2.96,77.58,6.61,116.19,11.57
					c27.7,3.56,55.52,7.55,82.72,14c8.42,2,16.49,4.08,24.59,7.34c5.61,2.26,8.83,3.71,12.23,8.07c1.5,1.92,3.65,5.92,5.07,9.05
					c1.98,4.36,3.61,8.88,5.08,13.43c3.95,12.24,6.73,24.86,9.16,37.49c6.82,35.41,10.64,71.42,13.38,107.35
					c3.36,43.99,4.8,88.15,4.5,132.26c-0.3,44.39-2.36,88.84-7.27,132.97c-4.16,37.33-10.02,75.01-21.61,110.84
					c-4.43,13.69-9.7,27.29-16.98,39.74c-5.61,9.6-12.47,18.7-20.98,24.7c-7.16,5.05-15.36,7.82-24.34,7.41
					c-4.1-0.18-8.04,7.52-3.02,7.75c23.49,1.05,41.28-15.5,52.91-34.33c16.97-27.48,25.33-60.15,31.7-91.49
					c8.43-41.52,12.64-83.89,15.05-126.16c2.62-45.85,2.95-91.84,1.49-137.73c-1.33-41.77-4.11-83.55-9.19-125.03
					c-3.68-30.06-8.05-60.66-17.23-89.62c-2.66-8.37-5.72-17.06-10.98-24.21c-3.36-4.57-8.07-7.2-13.23-9.35
					c-19.32-8.07-40.95-11.52-61.45-15.04c-33.79-5.8-67.89-9.82-101.99-13.24c-43.22-4.33-86.55-7.52-129.92-9.91
					c-48.21-2.66-96.49-4.33-144.77-4.97c-48.82-0.65-97.66-0.26-146.45,1.56c-45.05,1.68-90.1,4.54-134.9,9.64
					c-37.36,4.25-74.77,9.88-111.17,19.42c-25.92,6.8-53.03,15.28-75.07,31.04c-19.83,14.17-29.61,35.57-37.81,57.91
					c-13.85,37.74-22.59,77.48-29.71,116.97c-8.88,49.31-14.64,99.24-17.19,149.28c-2.51,49.27-2.16,99.04,4.4,148.01
					c5.21,38.87,13.95,79.92,35.11,113.55c8.11,12.89,18.12,24.34,30.76,32.93C415.84,1092.86,421.11,1085.94,417.18,1083.27
					L417.18,1083.27z"/>
			</g>
		</g>
		<g>
			<path class="st5" d="M814.57,1034.82c318.64,4.56,412.71,19.44,457.83-34.34c26.77-31.91,74.6-452.63,15.72-498.06
				c-65.54-50.56-757.35-64.55-831.71,14.11c-74.67,78.99-35.14,453.09,5.15,490.72c33.9,31.66,70.13,22.52,348.47,27.16"/>
			<g>
				<path d="M813.05,1038.7c81.22,1.17,162.4,3.7,243.61,4.97c46.1,0.73,93.17,2.22,138.97-4.22c26.21-3.68,53.03-10.98,72.65-29.73
					c7.59-7.25,11.71-14.86,14.89-24.79c4.88-15.27,8.1-31.11,11.07-46.85c9.15-48.43,14.89-97.56,19.21-146.63
					c4.77-54.18,7.69-108.73,6.34-163.13c-0.55-22.39-1.81-44.85-5.05-67.03c-2.32-15.93-5.39-32.6-12.5-47.19
					c-4.45-9.12-10.59-15.71-19.78-19.99c-10.31-4.8-21.59-7.64-32.63-10.19c-36.26-8.37-73.6-12.4-110.6-15.87
					c-50.51-4.73-101.2-7.46-151.9-9.12c-56.14-1.84-112.33-2.26-168.49-1.27c-53.83,0.95-107.69,3.16-161.35,7.68
					c-42.89,3.61-86.01,8.33-128.09,17.67c-15.27,3.39-30.56,7.35-45.13,13.1c-10.27,4.05-20.79,9.03-28.86,16.74
					c-12.16,11.61-19.55,28.25-24.93,43.88c-7.53,21.87-11.75,44.87-14.64,67.77c-7.15,56.48-6.58,114.06-2.88,170.78
					c3.36,51.5,9.19,103.43,21.11,153.72c3.85,16.25,8.13,32.96,15.48,48.05c4.37,8.98,10.36,15.47,18.53,21.09
					c17.77,12.23,40.4,14.47,61.34,15.94c50.5,3.55,101.46,2.36,152.05,2.73c42.36,0.31,84.71,0.77,127.06,1.47
					c4.09,0.07,8.02-7.66,3.02-7.75c-73.17-1.21-146.35-1.21-219.52-2.22c-19.66-0.27-39.36-0.59-58.98-1.94
					c-12.46-0.86-25.03-2.06-37.16-5.17c-16.79-4.3-31.88-13.72-39.5-29.79c-7.09-14.95-11.29-31.34-15.03-47.39
					c-5.36-23-9.26-46.33-12.46-69.72c-7.64-55.94-11.33-112.61-10.6-169.07c0.35-27.33,1.83-54.71,5.27-81.83
					c2.83-22.35,6.85-44.81,14.24-66.14c5.03-14.53,11.72-30,23.25-40.61c1.3-1.19,0.76-0.7,1.72-1.44
					c0.97-0.74,1.95-1.45,2.96-2.13c2.1-1.42,4.28-2.71,6.5-3.91c4.39-2.38,10.64-5.05,16.04-7.06
					c33.14-12.36,69.08-17.68,103.98-22.26c48.57-6.37,97.53-9.79,146.46-12.01c55.09-2.5,110.25-3.29,165.38-2.81
					c53.54,0.47,107.08,2.13,160.52,5.35c44.33,2.67,88.7,6.23,132.69,12.46c16.14,2.29,32.27,4.93,48.18,8.53
					c10.81,2.45,21.8,5.22,31.91,9.87c8.43,3.87,13.52,9.14,17.8,18.08c6.92,14.44,9.8,30.79,12.02,46.51
					c6.76,47.81,5.92,96.83,3.9,144.95c-2.25,53.68-6.98,107.32-13.97,160.59c-2.93,22.31-6.26,44.58-10.41,66.7
					c-2.88,15.36-5.94,30.84-10.68,45.76c-0.79,2.49-1.64,4.97-2.6,7.41c-0.4,1.02-0.82,2.03-1.27,3.02
					c-0.17,0.38-0.35,0.75-0.53,1.13c-0.63,1.31,0.09-0.07-0.41,0.79c-0.37,0.64-0.76,1.26-1.16,1.88
					c-0.12,0.18-0.83,1.14-0.26,0.39c0.53-0.69-0.92,1.06-1.16,1.34c-1.8,2.04-3.69,3.99-5.67,5.85
					c-7.71,7.22-17.43,12.9-27.85,16.9c-31.68,12.17-67.81,12.77-101.27,13.5c-62.3,1.36-124.71-1.12-186.99-2.55
					c-43.59-1.01-87.19-1.9-130.79-2.53C811.99,1030.89,808.07,1038.62,813.05,1038.7L813.05,1038.7z"/>
			</g>
		</g>
		<g class="st6">
			<path d="M384.35,1274.56c10.53,13.46,23.82,25.23,39.06,34.62c-18.92-7.06-38.9-20.24-40.04-38.77"/>
			<g>
				<path d="M381.23,1277.68c11.11,14.02,24.63,25.68,39.79,35.13c1.59-2.42,3.18-4.84,4.77-7.26
					c-16.21-6.17-36.87-17.24-38.55-36.65c-0.44-5.03-8.11-1.11-7.75,3.02c1.85,21.38,23.49,34.02,41.53,40.89
					c3.86,1.47,8.87-4.7,4.77-7.26c-14.65-9.13-27.6-20.57-38.33-34.11C384.78,1268.06,378.47,1274.21,381.23,1277.68
					L381.23,1277.68z"/>
			</g>
		</g>
		<g class="st6">
			<path d="M383.39,1216.6c9.74,18.57,28.46,40.09,44.46,54.92c-20.76-2.7-46.07-7.95-46.07-7.95s-3.47-36.2,1.99-49.53"/>
			<g>
				<path d="M379.76,1218.99c11.2,21,27.65,39.5,44.97,55.65c1.54-2.33,3.09-4.66,4.63-6.99c-15.44-2.05-30.82-4.8-46.07-7.95
					c0.79,0.79,1.57,1.57,2.36,2.36c-0.59-6.18-0.89-12.4-1.03-18.61c-0.2-9.34-0.68-20.09,2.74-28.97
					c2.07-5.38-5.55-5.15-7.19-0.89c-3.66,9.5-3.46,20.52-3.34,30.54c0.08,6.98,0.41,13.99,1.07,20.94
					c0.13,1.34,1.13,2.11,2.36,2.36c15.26,3.16,30.63,5.91,46.07,7.95c3,0.4,7.49-4.32,4.63-6.99
					c-16.89-15.75-33.02-33.71-43.95-54.18C384.8,1210.05,377.78,1215.26,379.76,1218.99L379.76,1218.99z"/>
			</g>
		</g>
		<g class="st6">
			<path d="M404.78,1159.6c6.13,21.13,18.05,36.8,35.8,56.38c-21.28-3.12-52.45-9.96-52.45-9.96s-0.07-21.69,5.05-28.7
				c5.12-7.01,9.14-11.39,10.6-19.57"/>
			<g>
				<path d="M401.16,1161.98c6.64,22.26,20.97,40.14,36.31,57.12c1.54-2.33,3.09-4.66,4.63-6.99c-17.6-2.62-35.08-6.16-52.45-9.96
					c0.79,0.79,1.57,1.57,2.36,2.36c-0.01-6.55,0.47-13.37,1.96-19.76c1.17-5.01,4.09-8.23,6.99-12.37
					c3.28-4.69,5.52-9.56,6.68-15.17c1.1-5.34-6.87-3.02-7.72,1.1c-1.38,6.72-5.5,11.44-9.32,16.9c-2.48,3.55-3.72,7.51-4.58,11.73
					c-1.37,6.73-1.76,13.73-1.76,20.59c0,1.34,1.23,2.11,2.36,2.36c17.37,3.81,34.86,7.34,52.45,9.96c3.23,0.48,7.16-4.19,4.63-6.99
					c-14.99-16.59-28.79-33.91-35.29-55.65C407.11,1152.85,399.96,1157.96,401.16,1161.98L401.16,1161.98z"/>
			</g>
		</g>
		<g class="st6">
			<path d="M432.93,1136.33c6.23,10.34,17.25,18.35,30.04,21.81c-17.4-2.6-34.8-5.19-52.2-7.79c3.94-8.47,10.94-13.93,21.24-15.3"/>
			<g>
				<path d="M429.3,1138.72c7.19,11.47,18.32,19.34,31.28,23.06c1.3-2.5,2.6-5,3.9-7.5c-17.4-2.6-34.8-5.19-52.2-7.79
					c0.69,1.44,1.39,2.88,2.08,4.32c3.47-7.06,9.44-10.7,17.09-11.88c4.19-0.65,6.52-8.56,1.1-7.72
					c-11.55,1.79-20.24,8.25-25.38,18.71c-0.88,1.78,0.07,4.02,2.08,4.32c17.4,2.6,34.8,5.19,52.2,7.79c3.37,0.5,8.14-6.29,3.9-7.5
					c-11.7-3.36-22.25-10.12-28.8-20.57C434.04,1129.93,427.08,1135.17,429.3,1138.72L429.3,1138.72z"/>
			</g>
		</g>
		<g class="st6">
			<path d="M485.96,1127.13c12.32,16.13,31.28,32.43,51.86,39.74c-22.54-3.37-45.09-6.74-67.63-10.1
				c4.89-9.28,8.81-21.82,13.7-31.11"/>
			<g>
				<path d="M482.84,1130.25c13.56,17.53,31.64,32.56,52.6,40.25c1.3-2.5,2.6-5,3.9-7.5c-22.54-3.37-45.09-6.74-67.63-10.1
					c0.69,1.44,1.39,2.88,2.08,4.32c5.19-10.09,8.51-21.02,13.7-31.11c0.94-1.84-0.15-3.92-2.08-4.32c-2.28-0.46-4.2,1.67-5.11,3.43
					c-5.19,10.09-8.51,21.02-13.7,31.11c-0.91,1.77,0.1,4.02,2.08,4.32c22.54,3.37,45.09,6.74,67.63,10.1
					c3.33,0.5,8.14-5.95,3.9-7.5c-20.5-7.51-37.87-22.09-51.13-39.23C486.44,1120.6,480.12,1126.74,482.84,1130.25L482.84,1130.25z"
					/>
			</g>
		</g>
		<g class="st6">
			<path d="M465.55,1166.15c6.99,22.97,29.93,46.56,53.36,58.44c-24.33-3.23-48.66-6.46-72.99-9.69
				c9.64-16.19,7.91-32.59,17.55-48.79"/>
			<g>
				<path d="M461.92,1168.54c8.26,25.99,30.87,47.41,54.6,59.68c1.3-2.5,2.6-5,3.9-7.5c-24.33-3.23-48.66-6.46-72.99-9.69
					c0.52,1.77,1.05,3.53,1.57,5.3c8.74-15.3,8.85-33.56,17.55-48.79c2.85-4.99-3.65-7.25-6.17-2.85
					c-8.74,15.3-8.85,33.56-17.55,48.79c-1.08,1.89-1.27,4.92,1.57,5.3c24.33,3.23,48.66,6.46,72.99,9.69
					c3.42,0.45,7.95-5.41,3.9-7.5c-22.77-11.77-44.2-32.3-52.12-57.2C467.79,1159.41,460.64,1164.53,461.92,1168.54L461.92,1168.54z
					"/>
			</g>
		</g>
		<g class="st6">
			<path d="M444.75,1224.14c15.94,22.78,37.52,42.48,62.85,57.37c-19.44-13.01-59.18,7.23-69.85-12.08
				c-4.73-8.56,7.05-25.33,8.14-40.38"/>
			<g>
				<path d="M441.63,1227.26c16.75,23.71,38.66,43.1,63.59,57.88c3.61,2.14,8.77-4.73,4.77-7.26c-15.78-10-36.35-2.35-53.64-3.58
					c-7.17-0.51-16.54-3.48-15.72-12.36c0.51-5.57,3.06-10.99,4.88-16.22c1.95-5.6,3.69-11.3,4.25-17.23
					c0.52-5.47-7.32-3.16-7.72,1.1c-1.14,12.14-8.75,22.96-9.24,35.1c-0.35,8.77,6.45,14.51,14.43,16.44
					c18.58,4.5,40.89-6.85,57.99,3.99c1.59-2.42,3.18-4.84,4.77-7.26c-24.4-14.48-45.73-33.66-62.12-56.86
					C445.41,1217.54,439.08,1223.65,441.63,1227.26L441.63,1227.26z"/>
			</g>
		</g>
		<g class="st6">
			<path d="M436.24,1282.19c17.43,20.01,40.89,35.93,67.43,45.73c-25.88-0.77-51.52-5.56-75.36-14.1
				c1.18-10.44,2.37-20.88,3.55-31.32"/>
			<g>
				<path d="M433.12,1285.3c18.41,20.91,42.14,36.49,68.16,46.24c1.3-2.5,2.6-5,3.9-7.5c-25.41-0.85-50.51-5.38-74.49-13.85
					c0.49,1.03,0.98,2.05,1.47,3.08c1.18-10.44,2.37-20.88,3.55-31.32c0.62-5.46-7.24-3.14-7.72,1.1
					c-1.18,10.44-2.37,20.88-3.55,31.32c-0.13,1.15,0.23,2.64,1.47,3.08c24.55,8.68,50.21,13.47,76.23,14.34
					c3.05,0.1,8.41-5.81,3.9-7.5c-25.55-9.58-48.62-24.69-66.7-45.22C436.48,1275.79,430.2,1281.98,433.12,1285.3L433.12,1285.3z"/>
			</g>
		</g>
		<g class="st6">
			<path d="M511.95,1291.25c16.22,17.56,42.1,34.57,65.21,44.68c-23.64-2.76-47.29-5.51-70.93-8.27
				c3.64-13.03,0.73-24.99,4.38-38.02"/>
			<g>
				<path d="M508.83,1294.37c18.17,19.42,41.73,34.47,65.94,45.19c1.3-2.5,2.6-5,3.9-7.5c-23.64-2.76-47.29-5.51-70.93-8.27
					c0.78,1.11,1.56,2.21,2.35,3.32c3.21-12.49,1.16-25.53,4.38-38.02c0.54-2.08-1.46-3.48-3.31-3.31
					c-2.32,0.22-3.88,2.35-4.41,4.41c-3.21,12.49-1.16,25.53-4.38,38.02c-0.4,1.55,0.82,3.14,2.35,3.32
					c23.64,2.76,47.29,5.51,70.93,8.27c3.31,0.39,8.12-5.63,3.9-7.5c-23.75-10.52-46.65-25.13-64.48-44.17
					C512.08,1284.93,505.81,1291.13,508.83,1294.37L508.83,1294.37z"/>
			</g>
		</g>
		<g class="st6">
			<path d="M519.62,1236.2c11.79,18.36,33.33,39.56,53.3,51.3c-20.07-2.03-40.14-4.07-60.21-6.1c-0.77-15.69,3.28-29.87,5.3-45.52"
				/>
			<g>
				<path d="M515.99,1238.59c13.74,21.09,32.92,39.63,54.54,52.54c1.3-2.5,2.6-5,3.9-7.5c-20.07-2.03-40.14-4.07-60.21-6.1
					c0.79,0.79,1.57,1.57,2.36,2.36c-0.56-15.06,3.29-29.73,5.28-44.56c0.73-5.44-7.15-3.12-7.72,1.1
					c-2.08,15.52-5.9,30.72-5.31,46.48c0.05,1.24,1.18,2.24,2.36,2.36c20.07,2.03,40.14,4.07,60.21,6.1c3.51,0.36,7.81-5.17,3.9-7.5
					c-20.45-12.21-39.04-30.09-52.05-50.06C520.66,1229.84,513.71,1235.09,515.99,1238.59L515.99,1238.59z"/>
			</g>
		</g>
		<g class="st6">
			<path d="M538.24,1173.74c5.61,22.4,25.88,45.38,46.11,59.79c-12.62-10.02-61.91-7.52-61.91-7.52S531.26,1204.08,538.24,1173.74"
				/>
			<g>
				<path d="M534.37,1175.25c6.69,25.3,26.08,46.41,46.86,61.4c3.55,2.56,9.71-3.62,6.24-6.24c-9.84-7.4-24.98-7.69-36.75-8.25
					c-9.22-0.44-18.51-0.47-27.73-0.01c1.01,1.43,2.03,2.87,3.04,4.3c6.89-17.19,11.88-35.27,16.07-53.27
					c1.23-5.29-6.77-2.98-7.72,1.1c-4.04,17.34-8.91,34.73-15.54,51.27c-0.98,2.45,0.5,4.43,3.04,4.31
					c8.22-0.41,16.49-0.36,24.72-0.01c6.59,0.28,13.2,0.78,19.7,1.87c4.95,0.83,10.81,1.81,14.93,4.92
					c2.08-2.08,4.16-4.16,6.24-6.24c-19.6-14.13-39.01-34.2-45.35-58.18C540.81,1167.28,533.3,1171.22,534.37,1175.25
					L534.37,1175.25z"/>
			</g>
		</g>
		<g class="st6">
			<path d="M564.04,1122.33c8.77,17.03,24.8,36.56,42.29,47.22c-22.17-2.04-44.34-4.08-66.5-6.11
				c8.22-13.05,13.96-27.94,22.18-40.99"/>
			<g>
				<path d="M560.41,1124.72c10.09,19.27,24.98,36.9,43.53,48.47c1.3-2.5,2.6-5,3.9-7.5c-22.17-2.04-44.34-4.08-66.5-6.11
					c0.52,1.77,1.05,3.53,1.57,5.3c8.2-13.23,13.99-27.76,22.18-40.99c3.04-4.9-3.51-7.14-6.17-2.85
					c-8.2,13.23-13.99,27.76-22.18,40.99c-1.11,1.79-1.25,5.04,1.57,5.3c22.17,2.04,44.34,4.08,66.5,6.11
					c3.55,0.33,7.76-5.1,3.9-7.5c-17.45-10.89-31.56-27.88-41.04-45.98C565.48,1115.77,558.45,1120.98,560.41,1124.72
					L560.41,1124.72z"/>
			</g>
		</g>
		<g class="st6">
			<path d="M637.41,1119.05c1.24,20.17,15.04,39.97,29.63,54.36c-20.18-0.96-52.81-2.57-52.81-2.57s3.6-19.77,7.81-26
				c4.21-6.24,13.29-17.76,13.66-24.95"/>
			<g>
				<path d="M633.53,1120.57c1.7,21.85,15.32,40.93,30.38,55.97c1.54-2.33,3.09-4.66,4.63-6.99c-17.61-0.84-35.21-1.7-52.81-2.57
					c0.78,1.11,1.56,2.21,2.35,3.32c1.38-7.53,2.76-16.01,6.34-22.84c4.89-9.33,14.01-17.04,15.13-28.11
					c0.55-5.47-7.29-3.16-7.72,1.1c-1.07,10.67-11.44,18.31-15.37,27.89c-2.99,7.29-4.67,15.33-6.1,23.07
					c-0.27,1.48,0.72,3.24,2.35,3.32c17.6,0.87,35.21,1.73,52.81,2.57c2.98,0.14,7.51-4.12,4.63-6.99
					c-14.24-14.22-27.26-32.07-28.87-52.75C640.89,1112.51,633.21,1116.43,633.53,1120.57L633.53,1120.57z"/>
			</g>
		</g>
		<g class="st6">
			<path d="M613.43,1176.9c2.63,22.3,15.71,43.36,35.58,57.28c-19.6-0.26-39.19-0.52-58.79-0.79c6.12-17.48,12.24-34.96,18.36-52.44
				"/>
			<g>
				<path d="M609.56,1178.41c3.07,23.93,16.84,44.97,36.33,58.89c1.54-2.33,3.09-4.66,4.63-6.99c-19.6-0.26-39.19-0.52-58.79-0.79
					c0.69,1.44,1.39,2.88,2.08,4.32c6.12-17.48,12.24-34.96,18.36-52.44c1.9-5.44-5.67-5.22-7.19-0.89
					c-6.12,17.48-12.24,34.96-18.36,52.44c-0.57,1.62-0.19,4.29,2.08,4.32c19.6,0.26,39.19,0.52,58.79,0.79
					c2.52,0.03,8.1-4.51,4.63-6.99c-18.55-13.25-31.89-32.83-34.82-55.68C616.66,1170.35,609.03,1174.28,609.56,1178.41
					L609.56,1178.41z"/>
			</g>
		</g>
		<g class="st6">
			<path d="M591.92,1239.16c-1.23,18.89,29.37,40.55,48.85,50.72c-19.09-0.96-38.18-1.93-57.28-2.89
				c-1.11-15.82,1.32-31.87,7.1-46.99"/>
			<g>
				<path d="M588.06,1239.71c-0.44,12.21,7.91,22.33,16.36,30.24c10.04,9.4,21.82,17.16,33.96,23.56c1.3-2.5,2.6-5,3.9-7.5
					c-19.09-0.96-38.18-1.93-57.28-2.89c0.79,0.79,1.57,1.57,2.36,2.36c-0.95-15.41,1.43-30.58,6.82-45.03
					c2.02-5.4-5.59-5.17-7.19-0.89c-5.86,15.71-8.41,32.2-7.38,48.94c0.07,1.19,1.16,2.3,2.36,2.36
					c19.09,0.96,38.18,1.93,57.28,2.89c3.29,0.17,8.09-5.29,3.9-7.5c-10.84-5.71-21.23-12.48-30.41-20.63
					c-7.41-6.57-17.36-16.2-16.97-27.01C595.98,1233.11,588.21,1235.41,588.06,1239.71L588.06,1239.71z"/>
			</g>
		</g>
		<g class="st6">
			<path d="M587.12,1296.58c16.13,13.75,32.25,27.5,48.38,41.24c-17.82-1.45-35.63-2.9-53.45-4.35c0.2-11.68,0.41-23.36,0.61-35.05"
				/>
			<g>
				<path d="M584,1299.7c16.13,13.75,32.25,27.5,48.38,41.24c1.54-2.33,3.09-4.66,4.63-6.99c-17.82-1.45-35.63-2.9-53.45-4.35
					c0.78,1.11,1.56,2.21,2.35,3.32c0.2-11.68,0.41-23.37,0.61-35.05c0.1-5.49-7.64-3.2-7.72,1.1c-0.2,11.68-0.41,23.37-0.61,35.05
					c-0.03,1.53,0.55,3.18,2.35,3.32c17.82,1.45,35.63,2.9,53.45,4.35c2.83,0.23,7.72-4.36,4.63-6.99
					c-16.13-13.75-32.25-27.5-48.38-41.24C586.87,1290.59,580.68,1296.87,584,1299.7L584,1299.7z"/>
			</g>
		</g>
		<g class="st6">
			<path d="M647.19,1299.74c19.24,20.27,44.17,36.35,72.05,46.45c-12.86-2.97-26.49-1.71-39.83-2.02
				c-13.34-0.31-37.25-4.36-37.25-4.36s5.95-31.36,2.42-41.64"/>
			<g>
				<path d="M644.07,1302.86c20.23,21.11,45.39,36.9,72.79,46.96c1.3-2.5,2.6-5,3.9-7.5c-16.33-3.51-33.1-1.08-49.62-2.66
					c-9.19-0.88-18.36-2.18-27.46-3.72c0.78,1.11,1.56,2.21,2.35,3.32c1.13-5.99,2-12.05,2.66-18.11c0.89-8.2,2.02-17.35-0.48-25.37
					c-1.36-4.36-8.51,0.76-7.26,4.77c2.29,7.35,0.65,16.52-0.25,23.98c-0.63,5.3-1.41,10.59-2.4,15.83
					c-0.31,1.63,0.76,3.05,2.35,3.32c9.1,1.54,18.27,2.84,27.46,3.72c16.52,1.58,33.29-0.85,49.62,2.66c3.42,0.74,8.03-5.99,3.9-7.5
					c-26.91-9.88-51.45-25.2-71.32-45.94C647.27,1293.45,641.01,1299.67,644.07,1302.86L644.07,1302.86z"/>
			</g>
		</g>
		<g class="st6">
			<path d="M656.41,1243.49c13.6,21.4,38.73,43.08,64.99,51.63c-26.2-1.26-52.41-2.51-78.61-3.77c2.9-15,9.54-30.65,12.44-45.65"/>
			<g>
				<path d="M652.78,1245.87c15.38,23.82,39.2,43.8,66.24,52.87c1.3-2.5,2.6-5,3.9-7.5c-26.2-1.26-52.41-2.51-78.61-3.77
					c0.78,1.11,1.56,2.21,2.35,3.32c3.13-15.49,9.31-30.16,12.44-45.65c1.08-5.34-6.88-3.03-7.72,1.1
					c-3.13,15.49-9.31,30.16-12.44,45.65c-0.3,1.47,0.74,3.25,2.35,3.32c26.2,1.26,52.41,2.51,78.61,3.77
					c3.08,0.15,8.4-5.99,3.9-7.5c-25.84-8.67-49.01-27.55-63.75-50.38C657.47,1237.12,650.52,1242.36,652.78,1245.87L652.78,1245.87
					z"/>
			</g>
		</g>
		<g class="st6">
			<path d="M678.85,1184.38c12.25,22.64,30.65,42.64,53.28,57.91c-24.58-1.3-49.16-2.6-73.73-3.9c1.62-19.43,7.25-38.65,16.52-56.47
				"/>
			<g>
				<path d="M675.22,1186.77c13.13,23.96,32.01,43.81,54.52,59.16c1.3-2.5,2.6-5,3.9-7.5c-24.58-1.3-49.16-2.6-73.73-3.9
					c0.78,1.11,1.56,2.21,2.35,3.32c1.75-19.48,7.34-38.09,16.25-55.48c0.94-1.84-0.15-3.92-2.08-4.32
					c-2.28-0.46-4.2,1.67-5.11,3.43c-9.2,17.94-14.98,37.38-16.78,57.47c-0.13,1.49,0.63,3.23,2.35,3.32
					c24.58,1.3,49.16,2.6,73.73,3.9c3.6,0.19,7.68-4.93,3.9-7.5c-21.43-14.61-39.55-33.88-52.04-56.67
					C680.2,1177.85,673.19,1183.07,675.22,1186.77L675.22,1186.77z"/>
			</g>
		</g>
		<g class="st6">
			<path d="M697.77,1116.9c8.32,22.16,13.92,61.11,42.79,63.12c-23.09-2.72-46.17-5.44-69.26-8.16
				c6.91-17.64,13.82-35.29,20.73-52.93"/>
			<g>
				<path d="M694.14,1119.28c8.64,23.36,13.76,61.86,44.91,64.6c4.06,0.36,8.12-7.15,3.02-7.75c-23.09-2.72-46.17-5.44-69.26-8.16
					c0.69,1.44,1.39,2.88,2.08,4.32c6.91-17.64,13.82-35.29,20.73-52.93c2.1-5.37-5.53-5.13-7.19-0.89
					c-6.91,17.64-13.82,35.29-20.73,52.93c-0.7,1.78-0.08,4.06,2.08,4.32c23.09,2.72,46.17,5.44,69.26,8.16
					c1.01-2.58,2.02-5.16,3.02-7.75c-28.28-2.49-32.88-40.56-40.67-61.63C699.8,1110.18,692.68,1115.32,694.14,1119.28
					L694.14,1119.28z"/>
			</g>
		</g>
		<g class="st6">
			<path d="M766.55,1116.87c-2.52,20.62,7.61,49.74,25.51,63.03c-24.81-1.93-45.2-4.12-45.2-4.12s16.69-41.31,18.22-58.91"/>
			<g>
				<path d="M762.69,1117.42c-2.57,23.39,7.28,51.07,26.25,65.59c1.54-2.33,3.09-4.66,4.63-6.99c-15.08-1.18-30.16-2.51-45.2-4.12
					c0.69,1.44,1.39,2.88,2.08,4.32c3.12-7.72,6-15.55,8.73-23.42c4.07-11.73,8.54-24.06,9.75-36.49c0.53-5.47-7.3-3.16-7.72,1.1
					c-1.19,12.16-5.6,24.15-9.61,35.62c-2.62,7.49-5.37,14.94-8.34,22.3c-0.71,1.76-0.07,4.09,2.08,4.32
					c15.04,1.61,30.12,2.94,45.2,4.12c2.71,0.21,7.89-4.5,4.63-6.99c-17.48-13.38-27.15-38.76-24.77-60.46
					C771,1110.85,763.15,1113.17,762.69,1117.42L762.69,1117.42z"/>
			</g>
		</g>
		<g class="st6">
			<path d="M742.42,1184.56c4.02,21.57,20.73,44.8,39.97,58.53c-12.12-7.15-30.85,4.48-42.83-2.86c-9.37-5.74-4.81-17.83-2.18-27.69
				c2.96-11.1,0.79-18.5,3.43-28.38"/>
			<g>
				<path d="M738.55,1186.07c4.79,24.12,21.07,45.86,40.73,60.14c1.83-2.25,3.67-4.5,5.5-6.75c-6.59-3.54-14.11-2.86-21.27-1.88
					c-7.14,0.98-17.82,3.68-23.39-2.56c-5.34-5.98-0.54-16.43,1.12-23.03c2.36-9.35,1.15-19.04,3.43-28.38
					c0.51-2.09-1.44-3.48-3.31-3.31c-2.3,0.22-3.91,2.35-4.41,4.41c-2.52,10.35-1.4,20.97-4.26,31.34
					c-2.02,7.34-4.8,16.46-0.22,23.41c10.58,16.06,33.59-0.22,47.53,7.26c3.21,1.72,8.76-4.38,5.5-6.75
					c-18.62-13.52-34.66-33.98-39.22-56.93C745.3,1178.04,737.73,1181.98,738.55,1186.07L738.55,1186.07z"/>
			</g>
		</g>
		<g class="st6">
			<path d="M731.41,1246.91c12.06,15.27,26.99,37.76,45.18,47.32c-12.66,7.25-50.37-1.07-50.37-1.07s1.13-32.2,1.62-46.03"/>
			<g>
				<path d="M728.3,1250.03c13.54,17.22,26.16,37.09,45.92,47.83c0.32-2.24,0.64-4.48,0.96-6.71c-7.95,4.25-20.19,2.19-28.69,1.2
					c-6.28-0.73-12.57-1.71-18.74-3.07c0.78,1.11,1.56,2.21,2.35,3.32c0.54-15.34,1.08-30.68,1.62-46.03
					c0.19-5.49-7.57-3.19-7.72,1.1c-0.54,15.34-1.08,30.68-1.62,46.03c-0.06,1.73,0.59,2.94,2.35,3.32
					c7.29,1.6,14.73,2.72,22.16,3.43c10.16,0.97,21.85,1.82,31.15-3.15c2.28-1.22,3.68-5.23,0.96-6.71
					c-19.08-10.37-31.38-30.18-44.45-46.81C731.86,1240.4,725.55,1246.54,728.3,1250.03L728.3,1250.03z"/>
			</g>
		</g>
		<g class="st6">
			<path d="M727.91,1299.86c32.56,27.93,78.07,42.04,123.65,46.63c45.58,4.59,91.81,0.44,137.61-3.71
				c-85.48,12.4-178.76,8.06-264.74,1.61c-2.54-14.93,1.16-31.94-1.38-46.87"/>
			<g>
				<path d="M724.79,1302.97c53.8,45.64,129.39,51.77,196.91,48.71c22.35-1.01,44.64-3.03,66.92-5.04c0.37-2.57,0.74-5.15,1.1-7.72
					c-68.36,9.82-137.78,9.13-206.58,5.37c-19.08-1.04-38.14-2.34-57.2-3.77c0.79,0.79,1.57,1.57,2.36,2.36
					c-2.4-15.55,1.02-31.31-1.38-46.87c-0.78-5.03-8.38-1.1-7.75,3.02c2.4,15.55-1.02,31.31,1.38,46.87
					c0.19,1.21,1.07,2.26,2.36,2.36c69.09,5.17,138.59,8.79,207.83,4.31c19.36-1.25,38.67-3.18,57.87-5.94
					c4.15-0.6,6.65-8.22,1.1-7.72c-70.51,6.39-145.42,13.35-212.53-14.51c-16.67-6.92-32.38-15.98-46.16-27.67
					C727.66,1293.87,721.46,1300.15,724.79,1302.97L724.79,1302.97z"/>
			</g>
		</g>
		<g class="st6">
			<path d="M720.7,1386.89c32.78,27.21,69.97,50.36,110.14,68.58c-31.46-2.43-62.92-4.85-94.37-7.28
				c-7.64-0.59-41.31,1.72-37.48,1.49c11.71-0.72,2.92-23.95,5.23-34.04c2.31-10.1,2.91-22.65,9.39-31.3"/>
			<g>
				<path d="M717.58,1390.01c33.7,27.86,71.1,50.96,110.87,69.09c1.3-2.5,2.6-5,3.9-7.5c-31.51-2.43-63.06-5.56-94.61-7.29
					c-12.68-0.69-25.86,0.43-38.5,1.53c-3.45,0.3-6.81,7.72-2.06,7.73c12.6,0.04,12.35-14.34,11.45-23.31
					c-0.62-6.24-1.19-11.8,0.05-17.99c1.81-9.08,2.54-18.73,8.02-26.51c3.33-4.74-3.29-6.94-6.17-2.85
					c-4.23,6-6.24,12.97-7.66,20.09c-1.2,6-2.93,12.33-2.92,18.48c0.01,5.43,0.99,10.8,1.32,16.21c0.12,1.94,0.55,4.96-0.27,6.78
					c-0.21,0.46-0.48,1.23-0.49,1.27c-0.05,0.12-2.51,0.08-0.29,0.08c-0.69,2.58-1.38,5.16-2.06,7.73
					c12.39-1.08,25.38-2.29,37.8-1.41c31.14,2.19,62.26,4.8,93.39,7.2c3.24,0.25,8.18-5.55,3.9-7.5
					c-39.25-17.88-76.15-40.57-109.41-68.07C720.41,1380.95,714.23,1387.23,717.58,1390.01L717.58,1390.01z"/>
			</g>
		</g>
		<g class="st6">
			<path d="M845.53,1386.8c25.57,39.83,91.14,61.67,142.91,70.65c-41.52-0.74-95.3,0.93-136.82,0.19
				c-9.17-0.16-13.58-10.78-10.57-3.25c0.19,0.48-3.35-18.03-2.03-23.44c3.6-14.83,1.53-27.66,5.13-42.5"/>
			<g>
				<path d="M841.9,1389.18c14.61,22.37,38.24,37.12,62.2,47.84c26.3,11.76,54.5,19.34,82.83,24.3c1.01-2.58,2.02-5.16,3.02-7.75
					c-28.38-0.48-56.76,0.01-85.14,0.25c-14.09,0.12-28.18,0.2-42.27,0.07c-5.26-0.05-11.26,0.86-15.8-2.32
					c-2.12-1.48-4.04-4.87-7.08-3.43c-2,0.94-3.58,2.78-3.43,5.11c0.08,1.17,0.76,2.48,1.18,3.54c1.45,3.64,6.3,0.27,7.22-1.94
					c0.92-2.21-0.31-5.65-0.64-7.86c-0.69-4.6-1.58-9.46-1.39-14.13c0.27-6.67,2.2-13.35,2.62-20.09c0.52-8.37,0.9-16.65,2.77-24.86
					c1.21-5.3-6.79-2.98-7.72,1.1c-1.8,7.91-2.23,15.89-2.72,23.96c-0.42,6.96-2.14,13.72-2.67,20.61
					c-0.34,4.42,0.32,8.99,0.92,13.37c0.26,1.91,0.55,3.81,0.85,5.71c0.1,0.64,0.14,1.36,0.32,1.98c0.43,1.41-0.49,1.61,0.47-0.68
					c2.41-0.65,4.82-1.29,7.22-1.94c-0.14-0.34-0.74-2.65-0.69-1.79c-1.14,1.7-2.29,3.4-3.43,5.11c0.02-0.01,0.05-0.02,0.07-0.03
					c-0.94,0.01-1.89,0.02-2.83,0.04c-0.51-0.31,1.45,1.48,2.02,1.94c1.64,1.33,3.44,2.49,5.42,3.24c5.1,1.93,11.34,1.12,16.7,1.16
					c13.87,0.11,27.74,0.02,41.61-0.1c27.79-0.24,55.59-0.71,83.38-0.24c3.84,0.07,8.32-6.82,3.02-7.75
					c-27.29-4.78-54.34-12.03-79.73-23.21c-23.2-10.21-46.89-24.26-61.06-45.95C846.56,1380.44,839.61,1385.69,841.9,1389.18
					L841.9,1389.18z"/>
			</g>
		</g>
		<g class="st6">
			<path d="M795.59,1251.52c14.7,15.7,33.05,28.75,53.65,38.14c-21.95,1.35-61.26,1.37-61.26,1.37s-1.35-27.4,5.15-40.88"/>
			<g>
				<path d="M792.47,1254.64c15.43,16.31,34.02,29.25,54.38,38.65c0.98-2.5,1.96-4.99,2.94-7.49c-20.06,1.2-40.21,1.34-60.3,1.35
					c0.79,0.79,1.57,1.57,2.36,2.36c-0.6-12.62-0.46-27.28,4.87-38.92c2.39-5.23-5.31-4.99-7.19-0.89
					c-5.89,12.87-6.08,28.91-5.43,42.84c0.05,1.15,1.17,2.36,2.36,2.36c20.73-0.01,41.53-0.15,62.23-1.38
					c2.99-0.18,6.68-5.76,2.94-7.49c-19.88-9.18-37.85-21.7-52.92-37.63C795.69,1245.22,789.43,1251.43,792.47,1254.64
					L792.47,1254.64z"/>
			</g>
		</g>
		<g class="st6">
			<path d="M805.36,1186.29c-3.86,26.16,11.85,46.47,44.38,55.83c-37.13,0.79-57.64-1.67-57.64-1.67s10.07-43.72,9.45-52.51"/>
			<g>
				<path d="M801.5,1186.84c-1.74,12.81,0.75,25.43,8.58,35.87c9.01,12,23.21,18.89,37.27,23.04c0.98-2.5,1.96-4.99,2.94-7.49
					c-18.8,0.37-37.97,0.53-56.68-1.68c0.78,1.11,1.56,2.21,2.35,3.32c1.8-7.81,3.48-15.64,5.07-23.49c1.94-9.6,4.9-20.1,4.4-29.98
					c-0.25-5.01-7.95-1.1-7.75,3.02c0.48,9.48-2.71,19.91-4.59,29.12c-1.53,7.49-3.14,14.98-4.85,22.43
					c-0.36,1.56,0.79,3.14,2.35,3.32c19.36,2.29,39.17,2.04,58.6,1.65c2.83-0.06,6.88-6.32,2.94-7.49
					c-12.87-3.8-25.63-9.68-34.38-20.21c-7.64-9.21-10.13-20.85-8.53-32.55C809.96,1180.3,802.07,1182.61,801.5,1186.84
					L801.5,1186.84z"/>
			</g>
		</g>
		<g class="st6">
			<path d="M826.9,1115.75c5.63,21.63,16.5,47.3,31.92,64.79c-17.45-2.33-36.46,0.8-53.91-1.53c5.81-18.84,12.31-45.18,18.12-64.03"
				/>
			<g>
				<path d="M823.03,1117.26c6.32,23.87,16.36,47.58,32.67,66.39c1.54-2.33,3.09-4.66,4.63-6.99c-17.92-2.2-35.99,0.67-53.91-1.53
					c0.69,1.44,1.39,2.88,2.08,4.32c6.5-21.21,11.62-42.82,18.12-64.03c1.69-5.5-5.84-5.3-7.19-0.89
					c-6.5,21.21-11.62,42.82-18.12,64.03c-0.55,1.81-0.19,4.04,2.08,4.32c17.92,2.2,35.99-0.67,53.91,1.53
					c3.26,0.4,7.12-4.12,4.63-6.99c-15.43-17.8-25.18-40.58-31.16-63.18C829.47,1109.29,821.96,1113.24,823.03,1117.26
					L823.03,1117.26z"/>
			</g>
		</g>
		<g class="st6">
			<path d="M871.59,1113.21c6.97,24.07,22.62,52.46,44.9,67.68c-18.63-1.42-37.25-2.83-55.88-4.25c1.66-18.52,7.25-42.39,8.91-60.91
				"/>
			<g>
				<path d="M867.96,1115.6c7.73,26.17,22.66,52.55,45.41,68.41c1.54-2.33,3.09-4.66,4.63-6.99c-18.63-1.42-37.25-2.83-55.88-4.25
					c0.78,1.11,1.56,2.21,2.35,3.32c1.93-20.45,6.97-40.46,8.91-60.91c0.52-5.47-7.32-3.16-7.72,1.1
					c-1.93,20.45-6.97,40.46-8.91,60.91c-0.14,1.52,0.63,3.19,2.35,3.32c18.63,1.42,37.25,2.83,55.88,4.25
					c2.63,0.2,8.01-4.63,4.63-6.99c-22.38-15.61-36.78-41.2-44.39-66.94C873.93,1106.47,866.77,1111.57,867.96,1115.6L867.96,1115.6
					z"/>
			</g>
		</g>
		<g class="st6">
			<path d="M861.36,1188.01c12.94,21.89,31.05,41.96,55.84,53.65c-25.34,0.43-60.85-1.45-60.85-1.45s5.53-32.41,3.98-45.75"/>
			<g>
				<path d="M857.73,1190.39c13.82,23.16,32.54,43.09,57.08,54.89c0.98-2.5,1.96-4.99,2.94-7.49c-19.96,0.31-39.97-0.41-59.89-1.47
					c0.78,1.11,1.56,2.21,2.35,3.32c2.56-15.08,5.57-31.41,3.99-46.72c-0.52-5.04-8.17-1.11-7.75,3.02
					c1.51,14.65-1.51,30.35-3.96,44.79c-0.25,1.48,0.71,3.24,2.35,3.32c20.57,1.09,41.21,1.75,61.81,1.44
					c3.09-0.05,6.56-5.75,2.94-7.49c-23.42-11.26-41.41-30.29-54.6-52.4C862.56,1181.55,855.58,1186.79,857.73,1190.39
					L857.73,1190.39z"/>
			</g>
		</g>
		<g class="st6">
			<path d="M857.01,1247.87c14.85,19.43,37.48,34.15,63.09,41.04c-22.67,3.95-46.19,3.75-68.61-0.6c0.64-12.67,1.29-25.33,1.93-38"
				/>
			<g>
				<path d="M853.89,1250.99c16.21,20.88,39.41,34.82,64.7,41.79c0.69-2.58,1.38-5.16,2.06-7.73c-22.47,3.8-45.25,3.61-67.65-0.61
					c0.78,1.11,1.56,2.21,2.35,3.32c0.64-12.67,1.29-25.33,1.93-38c0.28-5.49-7.5-3.19-7.72,1.1c-0.64,12.67-1.29,25.33-1.93,38
					c-0.09,1.69,0.61,2.99,2.35,3.32c22.98,4.33,46.52,4.48,69.57,0.58c3.51-0.59,6.8-6.43,2.06-7.73
					c-24.13-6.65-46.09-20.44-61.49-40.28C857.48,1241.34,851.17,1247.49,853.89,1250.99L853.89,1250.99z"/>
			</g>
		</g>
		<g class="st6">
			<path d="M929.87,1251.91c16.11,15.54,37.33,26.97,60.52,32.6c-20.66,3.96-42.11,4.46-62.85,1.46
				c-2.89-14.06-2.77-28.64,0.35-42.75"/>
			<g>
				<path d="M926.75,1255.03c17.39,16.54,38.92,27.57,62.13,33.35c0.69-2.58,1.38-5.16,2.06-7.73c-20.48,3.82-41.25,4.33-61.89,1.45
					c0.79,0.79,1.57,1.57,2.36,2.36c-2.73-13.93-2.61-27.9,0.34-41.79c1.13-5.33-6.85-3.01-7.72,1.1
					c-3.06,14.45-3.21,29.22-0.37,43.71c0.25,1.28,1.03,2.18,2.36,2.36c21.22,2.96,42.75,2.46,63.81-1.47
					c3.39-0.63,6.91-6.52,2.06-7.73c-21.98-5.48-42.47-16.2-58.92-31.84C929.79,1245.75,923.56,1252,926.75,1255.03L926.75,1255.03z
					"/>
			</g>
		</g>
		<g class="st6">
			<path d="M928.37,1187.94c12.38,21.04,32.24,38.58,56.18,49.58c-18.9,0.91-37.79,1.82-56.69,2.73
				c-1.25-19.51-2.51-39.02-3.76-58.53"/>
			<g>
				<path d="M924.74,1190.32c13.44,22.5,33.76,39.77,57.42,50.82c0.98-2.5,1.96-4.99,2.94-7.49c-18.9,0.91-37.79,1.82-56.69,2.73
					c1.11,0.78,2.21,1.56,3.32,2.35c-1.25-19.51-2.51-39.02-3.76-58.53c-0.32-5.02-8.01-1.1-7.75,3.02
					c1.25,19.51,2.51,39.02,3.76,58.53c0.11,1.79,1.81,2.42,3.32,2.35c18.9-0.91,37.79-1.82,56.69-2.73
					c3.02-0.15,6.65-5.76,2.94-7.49c-22.51-10.51-42.12-26.9-54.94-48.34C929.57,1181.49,922.58,1186.72,924.74,1190.32
					L924.74,1190.32z"/>
			</g>
		</g>
		<g class="st6">
			<path d="M919.88,1113.06c1.45,23.66,20.99,52.85,59.15,63.49c-16.34,10.82-55.21,0.59-55.21,0.59s-3.66-46.11-5.86-64.07"/>
			<g>
				<path d="M916,1114.57c2.35,32.79,30.76,57.02,60.64,65.6c0.32-2.24,0.64-4.48,0.96-6.71c-9.18,5.76-22.25,4.55-32.51,3.37
					c-6.63-0.76-13.29-1.89-19.76-3.57c0.79,0.79,1.57,1.57,2.36,2.36c-1.7-21.37-3.28-42.79-5.86-64.07
					c-0.61-5.04-8.25-1.11-7.75,3.02c2.58,21.28,4.16,42.71,5.86,64.07c0.11,1.39,1.15,2.05,2.36,2.36
					c7.58,1.98,15.43,3.24,23.23,3.93c11.61,1.03,24.71,1.1,34.92-5.31c1.67-1.05,4.23-5.77,0.96-6.71
					c-28.17-8.09-55.43-30.26-57.66-61.37C923.39,1106.53,915.71,1110.44,916,1114.57L916,1114.57z"/>
			</g>
		</g>
		<g class="st6">
			<path d="M976.91,1113.19c6.96,24.04,29.02,51.85,70.22,62.91c-19.77-5.03-56.85-1.48-56.85-1.48s-7.5-43.67-15.13-60.18"/>
			<g>
				<path d="M973.28,1115.58c9.93,33.38,39.87,55.46,72.34,64.4c1.01-2.58,2.02-5.16,3.02-7.75c-18.45-4.48-39.02-3.24-57.81-1.47
					c1.11,0.78,2.21,1.56,3.32,2.35c-1.41-8.2-3.05-16.36-4.83-24.48c-2.69-12.27-5.36-25.07-10.55-36.57
					c-1.93-4.27-9,0.92-7.26,4.77c5.11,11.33,7.69,23.9,10.31,35.99c1.68,7.74,3.23,15.51,4.58,23.32c0.29,1.71,1.68,2.5,3.32,2.35
					c18.21-1.72,38-2.85,55.89,1.5c4.05,0.98,7.96-6.39,3.02-7.75c-30.83-8.49-58.73-29.92-68.1-61.42
					C979.24,1106.45,972.08,1111.55,973.28,1115.58L973.28,1115.58z"/>
			</g>
		</g>
		<g class="st6">
			<path d="M990.99,1186.21c15.73,19.91,42.48,37.48,68.1,46.73c-22.85,4.23-64.52,3.96-64.52,3.96s-1.89-33.89-6.92-50.09"/>
			<g>
				<path d="M987.87,1189.33c17.48,21.78,42.81,37.69,68.83,47.24c0.98-2.5,1.96-4.99,2.94-7.49c-20.79,3.73-42.47,4.07-63.56,3.95
					c0.79,0.79,1.57,1.57,2.36,2.36c-0.96-16.95-2.26-34.64-7.17-50.96c-1.31-4.36-8.47,0.75-7.26,4.77
					c4.71,15.67,5.76,32.93,6.68,49.21c0.07,1.15,1.17,2.35,2.36,2.36c21.72,0.13,44.06-0.13,65.48-3.98
					c2.55-0.46,7.11-5.96,2.94-7.49c-25.58-9.39-50.18-24.81-67.37-46.22C991.4,1179.72,985.1,1185.87,987.87,1189.33
					L987.87,1189.33z"/>
			</g>
		</g>
		<g class="st6">
			<path d="M997.5,1247.62c18.76,16.92,43.63,28.58,70.25,32.91c-12.1,0.13-70.23,1.65-70.23,1.65s0.78-18.13-2.89-30.58"/>
			<g>
				<path d="M994.38,1250.74c20.18,17.96,45.3,29.18,71.85,33.67c1.01-2.58,2.02-5.16,3.02-7.75c-23.73,0.27-47.47,1.04-71.19,1.66
					c1.1,1.1,2.21,2.21,3.31,3.31c0.42-10.48-0.06-21.39-2.87-31.54c-1.37-4.93-8.86-0.99-7.75,3.02c2.63,9.5,3.29,19.78,2.9,29.62
					c-0.09,2.2,1.1,3.37,3.31,3.31c23.09-0.6,46.18-1.37,69.27-1.63c3.75-0.04,8.39-6.84,3.02-7.75
					c-25.33-4.28-49.39-15.02-68.64-32.16C997.32,1241.56,991.11,1247.83,994.38,1250.74L994.38,1250.74z"/>
			</g>
		</g>
		<g class="st6">
			<path d="M999.83,1295.73c16.67,19.48,39.1,35.11,64.56,45c-21.91-0.36-45.12,4.49-67.04,4.13c-5.43-16.59-5.18-39.54-1.74-56.66"
				/>
			<g>
				<path d="M996.72,1298.85c17.61,20.34,40.32,35.67,65.29,45.51c1.3-2.5,2.6-5,3.9-7.5c-22.44-0.23-44.6,4.35-67.04,4.13
					c0.71,0.5,1.41,0.99,2.12,1.49c-5.48-17.44-4.96-37.04-1.51-54.82c1.04-5.36-6.92-3.04-7.72,1.1
					c-3.7,19.09-3.9,39.82,1.97,58.49c0.23,0.74,1.36,1.48,2.12,1.49c22.44,0.23,44.6-4.35,67.04-4.13c3,0.03,8.44-5.71,3.9-7.5
					c-24.5-9.66-46.54-24.53-63.82-44.49C1000.1,1289.32,993.81,1295.5,996.72,1298.85L996.72,1298.85z"/>
			</g>
		</g>
		<g class="st6">
			<path d="M1075.02,1288.72c10.95,19.12,35.35,37.72,57.59,46.59c-19.32,3.62-60.03,4.12-60.03,4.12s-3.07-40.5,1.45-55.62"/>
			<g>
				<path d="M1071.39,1291.11c12.84,21.84,35.65,38.4,58.83,47.84c0.98-2.5,1.96-4.99,2.94-7.49c-12.06,2.19-24.43,2.82-36.65,3.39
					c-5.3,0.25-10.6,0.44-15.9,0.57c-1.7,0.04-3.4,0.08-5.1,0.12c-1.03,0.02-1.61,0.03-1.42,0.03c0.79,0.79,1.57,1.57,2.36,2.36
					c-0.52-6.98-0.81-13.99-0.95-20.98c-0.21-10.61-0.8-22.36,2.12-32.68c1.57-5.52-5.93-5.33-7.19-0.89
					c-3.12,11-2.87,22.94-2.72,34.27c0.1,7.77,0.41,15.56,0.99,23.31c0.08,1.13,1.15,2.38,2.36,2.36
					c20.23-0.26,41.05-0.51,60.99-4.13c2.62-0.48,7.03-5.82,2.94-7.49c-22-8.96-44.12-24.56-56.35-45.35
					C1076.25,1282.26,1069.26,1287.49,1071.39,1291.11L1071.39,1291.11z"/>
			</g>
		</g>
		<g class="st6">
			<path d="M1068.47,1242.97c21.68,10.07,43.36,20.15,65.04,30.22c-15.17,6.56-32.54,13.01-48.28,8.05
				c-18.52-5.84-26.18-28.82-14.29-42.83"/>
			<g>
				<path d="M1066.09,1246.6c21.68,10.07,43.36,20.15,65.04,30.22c0.65-2.41,1.29-4.82,1.94-7.22
					c-15.76,6.77-37.86,15.78-53.51,3.93c-10.45-7.91-14.04-23.13-5.52-33.69c1.22-1.51,1.11-4.1-0.7-5.06
					c-2.05-1.09-4.29,0.74-5.47,2.2c-10.18,12.62-7.8,31.65,4.51,42.02c17.67,14.88,43.02,5.74,61.58-2.22
					c2.33-1,5.44-5.6,1.94-7.22c-21.68-10.07-43.36-20.15-65.04-30.22C1067.04,1237.57,1061.82,1244.62,1066.09,1246.6
					L1066.09,1246.6z"/>
			</g>
		</g>
		<g class="st6">
			<path d="M1058.11,1181.36c7.43,22.43,38.17,45.73,70.81,48.38c-21.43,1.16-42.85,2.32-64.28,3.48
				c-1.46-15.43-5.63-36.39-7.09-51.83"/>
			<g>
				<path d="M1054.48,1183.74c10.05,28.89,44,47.22,72.92,49.87c0.69-2.58,1.38-5.16,2.06-7.73c-21.43,1.16-42.85,2.32-64.28,3.48
					c1.11,0.78,2.21,1.56,3.32,2.35c-1.72-17.36-5.37-34.46-7.09-51.82c-0.5-5.03-8.16-1.11-7.75,3.02
					c1.72,17.36,5.37,34.47,7.09,51.83c0.18,1.78,1.77,2.43,3.32,2.35c21.43-1.16,42.85-2.32,64.28-3.48
					c3.48-0.19,6.85-7.29,2.06-7.73c-27.28-2.5-59.2-19.64-68.69-46.9C1060.23,1174.63,1053.1,1179.76,1054.48,1183.74
					L1054.48,1183.74z"/>
			</g>
		</g>
		<g class="st6">
			<path d="M1040.66,1113.44c8.07,27.12,38.84,53.26,77.8,59.67c-20.62,2.33-41.67,1.17-61.67-3.38
				c-4.42-17.32-14.72-39-19.14-56.32"/>
			<g>
				<path d="M1037.03,1115.82c10.55,34.11,46.51,55.41,79.92,61.16c0.69-2.58,1.38-5.16,2.06-7.73
					c-20.34,2.19-40.74,1.04-60.71-3.39c0.79,0.79,1.57,1.57,2.36,2.36c-5.04-19.22-14.1-37.11-19.14-56.32
					c-1.3-4.95-8.8-1.01-7.75,3.02c5.04,19.22,14.1,37.11,19.14,56.32c0.35,1.35,0.97,2.05,2.36,2.36
					c20.58,4.57,41.68,5.62,62.63,3.36c3.42-0.37,6.9-6.9,2.06-7.73c-31.81-5.47-65.67-25.8-75.69-58.18
					C1042.95,1106.69,1035.79,1111.81,1037.03,1115.82L1037.03,1115.82z"/>
			</g>
		</g>
		<g class="st6">
			<path d="M1106.54,1114.02c9.53,22.8,48.38,40.32,73.92,49.36c-18.36-2.28-54.29,4.69-54.29,4.69s-13.83-40.19-22.91-52.61"/>
			<g>
				<path d="M1102.91,1116.4c5.92,13.51,18.7,22.91,30.96,30.34c13.88,8.41,28.94,14.83,44.21,20.26c1.3-2.5,2.6-5,3.9-7.5
					c-18.13-2.06-37.45,1.26-55.25,4.7c1.03,0.49,2.05,0.98,3.08,1.47c-2.57-7.46-5.35-14.86-8.27-22.19
					c-4.22-10.62-8.48-21.78-15.16-31.15c-2.48-3.48-8.81,2.63-6.24,6.24c6.49,9.11,10.49,20.45,14.57,30.77
					c2.75,6.98,5.39,14.01,7.84,21.11c0.41,1.18,1.96,1.69,3.08,1.47c17.17-3.31,35.85-6.65,53.33-4.67c3.26,0.37,8.23-5.96,3.9-7.5
					c-14.37-5.11-28.52-11.11-41.72-18.78c-12.09-7.03-25.16-16.1-30.96-29.33C1108.29,1107.35,1101.21,1112.53,1102.91,1116.4
					L1102.91,1116.4z"/>
			</g>
		</g>
		<g class="st6">
			<path d="M1133.08,1176.75c13.09,21.13,35.05,34.14,60.03,44.15c-18.02,4.54-56.04,5.2-56.04,5.2s-5.71-32.53-10.28-48"/>
			<g>
				<path d="M1129.45,1179.14c14.18,22.4,37.25,35.68,61.28,45.39c0.98-2.5,1.96-4.99,2.94-7.49c-18.07,4.4-37.5,4.86-56.04,5.2
					c1.11,0.78,2.21,1.56,3.32,2.35c-2.88-16.37-5.89-32.9-10.53-48.88c-1.27-4.36-8.43,0.75-7.26,4.77
					c4.47,15.38,7.26,31.37,10.04,47.13c0.32,1.81,1.66,2.38,3.32,2.35c18.54-0.33,37.97-0.79,56.04-5.2
					c2.46-0.6,7.16-5.78,2.94-7.49c-22.76-9.2-45.31-21.61-58.79-42.91C1134.17,1170.36,1127.21,1175.6,1129.45,1179.14
					L1129.45,1179.14z"/>
			</g>
		</g>
		<g class="st6">
			<path d="M1141.29,1233.41c20.76,11.34,41.52,22.68,62.28,34.01c-14.6,7.6-33.34,10.99-48.29,4.38
				c-14.96-6.61-22.5-25.48-11.88-37.1"/>
			<g>
				<path d="M1138.91,1237.04c20.76,11.34,41.52,22.68,62.28,34.01c0.65-2.41,1.29-4.82,1.94-7.22
					c-13.97,7.08-31.93,11.16-46.66,3.79c-10.18-5.1-19.6-20.24-10.73-30.57c3.53-4.11-1.07-8.89-4.68-4.68
					c-10.92,12.72-6.75,30.66,6.52,40.01c16.39,11.55,39.77,7.08,56.43-1.36c2.37-1.2,5.38-5.35,1.94-7.22
					c-20.76-11.34-41.52-22.68-62.28-34.01C1139.99,1227.76,1134.75,1234.76,1138.91,1237.04L1138.91,1237.04z"/>
			</g>
		</g>
		<g class="st6">
			<path d="M1144.96,1282.8c16.69,18.47,38.16,33.59,62.37,43.93c-21.57,2.13-43.14,4.25-64.71,6.38
				c-3.08-18.69-3.21-37.8-0.39-56.61"/>
			<g>
				<path d="M1141.84,1285.92c17.54,19.22,39.26,34.13,63.11,44.44c0.98-2.5,1.96-4.99,2.94-7.49c-21.57,2.13-43.14,4.25-64.71,6.38
					c1.11,0.78,2.21,1.56,3.32,2.35c-2.95-18.49-3.09-37.11-0.41-55.64c0.79-5.43-7.11-3.11-7.72,1.1
					c-2.77,19.13-2.67,38.48,0.38,57.57c0.27,1.71,1.69,2.51,3.32,2.35c21.57-2.13,43.14-4.25,64.71-6.38
					c2.86-0.28,6.82-5.81,2.94-7.49c-23.37-10.1-44.45-24.59-61.64-43.42C1145.13,1276.44,1138.86,1282.64,1141.84,1285.92
					L1141.84,1285.92z"/>
			</g>
		</g>
		<g class="st6">
			<path d="M1210.31,1280.52c14.91,16.45,34.28,29.75,56.12,38.54c-18.1,5.83-37.71,7.88-56.72,5.91
				c-0.23-18.31-0.45-36.62-0.68-54.93"/>
			<g>
				<path d="M1207.19,1283.64c15.74,17.15,35.34,30.26,56.85,39.05c0.65-2.41,1.29-4.82,1.94-7.22
					c-17.72,5.58-36.28,7.41-54.76,5.63c0.79,0.79,1.57,1.57,2.36,2.36c-0.23-18.31-0.45-36.62-0.68-54.93
					c-0.06-4.97-7.8-1.08-7.75,3.02c0.23,18.31,0.45,36.62,0.68,54.93c0.02,1.23,1.2,2.25,2.36,2.36
					c19.84,1.92,39.67-0.2,58.68-6.18c2.42-0.76,5.39-5.81,1.94-7.22c-21.03-8.6-39.99-21.26-55.38-38.03
					C1210.46,1274.18,1204.19,1280.38,1207.19,1283.64L1207.19,1283.64z"/>
			</g>
		</g>
		<g class="st6">
			<path d="M1201.23,1227.37c11.57,14.61,34.3,31.98,53.71,37.39c-13.11,6.87-45.39,3.81-45.39,3.81s-5.15-26.87-9.23-40.93"/>
			<g>
				<path d="M1198.11,1230.49c13.58,16.84,33.54,31.8,54.44,37.9c0.65-2.41,1.29-4.82,1.94-7.22c-8.05,3.98-18,4.17-26.81,4.21
					c-5.54,0.02-11.11-0.16-16.62-0.68c0.79,0.79,1.57,1.57,2.36,2.36c-2.69-14.01-5.55-28.08-9.48-41.8
					c-1.25-4.36-8.41,0.74-7.26,4.77c3.76,13.13,6.42,26.65,8.99,40.06c0.24,1.23,1.04,2.24,2.36,2.36
					c6.29,0.59,12.64,0.74,18.95,0.66c9.39-0.13,19.81-0.5,28.4-4.74c1.84-0.91,5.85-6.08,1.94-7.22
					c-20.49-5.99-39.66-20.37-52.97-36.88C1201.63,1220.88,1195.33,1227.04,1198.11,1230.49L1198.11,1230.49z"/>
			</g>
		</g>
		<g class="st6">
			<path d="M1190.07,1171.32c12.04,21.35,36.77,32.53,57.01,43.92c-22.6,1.39-46.53,2.86-46.53,2.86s-9.57-31.74-13.09-47.16"/>
			<g>
				<path d="M1186.44,1173.7c12.89,22.16,36.76,33.12,58.25,45.16c0.98-2.5,1.96-4.99,2.94-7.49c-15.51,0.95-31.02,1.91-46.53,2.86
					c1.03,0.49,2.05,0.98,3.08,1.47c-4.62-15.32-9.25-30.7-12.85-46.29c-1.15-4.98-8.69-1.04-7.75,3.02
					c3.74,16.18,8.55,32.14,13.34,48.04c0.39,1.29,1.97,1.54,3.08,1.47c15.51-0.95,31.02-1.91,46.53-2.86
					c3.18-0.2,6.44-5.52,2.94-7.49c-20.29-11.37-43.57-21.72-55.76-42.68C1191.32,1164.84,1184.32,1170.07,1186.44,1173.7
					L1186.44,1173.7z"/>
			</g>
		</g>
		<g class="st6">
			<path d="M1175.17,1117.77c8.77,19.24,32.34,35.36,61.99,43.57c-27.59,0.5-47.61,1.6-47.61,1.6s-7.26-29.43-16.51-45.73"/>
			<g>
				<path d="M1171.55,1120.15c11.45,24.3,38.62,37.85,63.23,44.81c0.98-2.5,1.96-4.99,2.94-7.49c-15.87,0.3-31.76,0.74-47.61,1.6
					c1.11,0.78,2.21,1.56,3.32,2.35c-3.93-15.87-8.79-32.27-16.75-46.61c-2.3-4.13-9.3,1.09-7.26,4.77
					c7.67,13.81,12.47,29.57,16.26,44.86c0.43,1.74,1.58,2.44,3.32,2.35c15.85-0.86,31.74-1.3,47.61-1.6
					c2.82-0.05,6.89-6.37,2.94-7.49c-23.41-6.62-49.81-19.12-60.74-42.32C1176.8,1111.13,1169.74,1116.33,1171.55,1120.15
					L1171.55,1120.15z"/>
			</g>
		</g>
		<g class="st6">
			<path d="M1232.33,1120.67c0.89,14.49,23.79,30.87,43.94,34.81c-16.93-1.63-34.09,2.09-34.09,2.09s-8.91-24.65-13.55-36.2"/>
			<g>
				<path d="M1228.46,1122.19c0.92,9.58,8.21,17.37,15.51,22.97c9.08,6.96,19.59,11.87,30.79,14.21c1.01-2.58,2.02-5.16,3.02-7.75
					c-11.61-0.98-23.64-0.32-35.05,2.11c1.03,0.49,2.05,0.98,3.08,1.47c-4.38-12.11-8.77-24.24-13.55-36.2
					c-1.73-4.32-8.83,0.85-7.26,4.77c4.78,11.96,9.17,24.09,13.55,36.2c0.42,1.16,1.96,1.71,3.08,1.47
					c10.8-2.3,22.14-3.01,33.13-2.08c4,0.34,8.16-6.67,3.02-7.75c-9.9-2.07-19.55-6.54-27.58-12.7c-6.3-4.83-13.19-11.41-14-19.75
					C1235.72,1114.13,1228.06,1118.05,1228.46,1122.19L1228.46,1122.19z"/>
			</g>
		</g>
		<g class="st6">
			<path d="M1247.78,1166.53c13.7,14.78,28.58,31.78,47.02,41.88c-19.28,1.81-39.39,1.7-39.39,1.7s-7.47-32.05-13.33-44.19"/>
			<g>
				<path d="M1244.66,1169.65c14.5,15.66,28.91,31.84,47.76,42.39c0.98-2.5,1.96-4.99,2.94-7.49c-12.76,1.16-25.61,1.74-38.43,1.69
					c0.79,0.79,1.57,1.57,2.36,2.36c-3.52-15.05-6.98-31.02-13.57-45.06c-2-4.25-9.06,0.94-7.26,4.77
					c6.35,13.53,9.69,28.81,13.09,43.31c0.27,1.13,1.01,2.35,2.36,2.36c13.46,0.06,26.95-0.5,40.35-1.71
					c3.13-0.28,6.5-5.49,2.94-7.49c-18.28-10.23-32.23-26.18-46.29-41.37C1247.92,1160.2,1241.65,1166.4,1244.66,1169.65
					L1244.66,1169.65z"/>
			</g>
		</g>
		<g class="st6">
			<path d="M1255.75,1220.95c6.61,17.84,21.28,36.36,47.03,40.19c-12.54,4.77-38.07,0.82-38.07,0.82s-7.69-29.02-10.14-40.59"/>
			<g>
				<path d="M1252.12,1223.33c8.29,21.83,25.79,37.89,49.15,41.68c0.36-2.49,0.71-4.98,1.07-7.47c-11.04,3.9-24.72,2.27-36.11,0.54
					c0.79,0.79,1.57,1.57,2.36,2.36c-3.57-13.47-7.21-26.96-10.14-40.59c-1.07-5-8.62-1.06-7.75,3.02
					c2.93,13.63,6.57,27.12,10.14,40.59c0.34,1.28,0.97,2.15,2.36,2.36c12.79,1.95,27.64,3.28,40.02-1.1c2.84-1,5.49-6.75,1.07-7.47
					c-21.62-3.5-37.29-18.63-44.91-38.7C1257.73,1214.23,1250.62,1219.39,1252.12,1223.33L1252.12,1223.33z"/>
			</g>
		</g>
		<g class="st6">
			<path d="M1268.89,1272.24c8.38,11.14,16.4,23.67,29.6,30.34c-1.83,7.66-13.71,12.5-23.69,13.96
				c-7.4-13.02-6.14-29.64-10.31-44.03"/>
			<g>
				<path d="M1265.77,1275.36c8.77,11.72,17.06,23.84,30.34,30.85c-0.4-1.36-0.81-2.72-1.21-4.07c-2.2,7.27-13.05,9.51-19.55,10.55
					c1.03,0.49,2.05,0.98,3.08,1.47c-7.17-13.29-6.14-28.9-10.07-43.16c-1.36-4.93-8.85-0.99-7.75,3.02
					c4.09,14.86,3.08,31.05,10.56,44.91c0.62,1.15,1.79,1.68,3.08,1.47c10.34-1.66,24.43-6.11,27.84-17.38
					c0.47-1.56,0.38-3.23-1.21-4.07c-12.63-6.67-20.54-18.69-28.87-29.83C1269.43,1265.68,1263.11,1271.81,1265.77,1275.36
					L1265.77,1275.36z"/>
			</g>
		</g>
		<g class="st6">
			<path d="M310.39,1404.48c159.77,153.26,329.09,124.39,1072.05,70.6c-17.07,42.33-76.21,57.39-126.99,62.56
				c-78.71,8.01-158.03,7.2-237.09,6.38c-173.19-1.79-346.37-3.58-519.56-5.37c-49.09-0.51-93.95-0.76-133.46-25.7
				c-29.24-18.46-52.62-57.96-65.66-103.19"/>
			<g>
				<path d="M307.27,1407.6c15,14.38,30.85,27.89,47.78,39.96c16.34,11.65,33.6,21.97,51.72,30.61
					c18.67,8.9,38.15,16.01,58.05,21.63c22.47,6.34,45.41,10.83,68.53,14.05c27.01,3.76,54.24,5.84,81.48,7.01
					c32.58,1.4,65.2,1.47,97.8,0.94c38.9-0.64,77.78-2.21,116.64-4.18c46.65-2.37,93.28-5.33,139.88-8.5
					c55.28-3.76,110.54-7.83,165.8-11.93c64.96-4.82,129.93-9.7,194.89-14.47c17.35-1.27,34.7-2.54,52.05-3.79
					c-1.01-1.44-2.03-2.87-3.04-4.31c-10.95,26.35-38.36,40-64.18,48c-32.65,10.11-67.35,12.47-101.26,14.67
					c-83.13,5.39-166.59,3.13-249.82,2.27c-84.07-0.87-168.13-1.74-252.2-2.61c-41.85-0.43-83.71-0.87-125.56-1.3
					c-40.02-0.41-80.15,0-120.14-1.55c-34.23-1.33-69.19-6.2-98.54-25.16c-26.64-17.21-43.71-47.34-55.15-76.09
					c-3.32-8.35-6.18-16.86-8.69-25.48c-1.27-4.36-8.43,0.75-7.26,4.77c9.45,32.37,24.24,65.17,48.3,89.39
					c23.45,23.6,56.37,34.21,88.73,38.12c38.69,4.67,78.35,3.02,117.25,3.42c43.3,0.45,86.59,0.9,129.89,1.34
					c86.23,0.89,172.46,1.78,258.7,2.68c85.03,0.88,170.29,3.35,255.26-1.02c36.41-1.87,73.68-3.78,109.15-12.82
					c26.95-6.87,55.13-18.16,72.82-40.66c4.09-5.2,7.36-10.95,9.9-17.06c1-2.4-0.51-4.49-3.04-4.3
					c-67.18,4.87-134.36,9.88-201.53,14.88c-57.05,4.25-114.1,8.51-171.16,12.53c-48.51,3.42-97.04,6.68-145.6,9.43
					c-40.55,2.3-81.12,4.25-121.72,5.37c-34.02,0.94-68.08,1.3-102.11,0.46c-28.36-0.71-56.73-2.24-84.94-5.35
					c-23.77-2.62-47.45-6.38-70.72-11.95c-20.48-4.91-40.6-11.31-60-19.52c-18.24-7.73-35.78-17.07-52.39-27.88
					c-16.96-11.05-32.87-23.65-47.9-37.19c-3.86-3.48-7.67-7.03-11.43-10.63C310.32,1398.31,304.09,1404.55,307.27,1407.6
					L307.27,1407.6z"/>
			</g>
		</g>
		<g class="st6">
			<path d="M387.61,1094.96c-37.95,54.99-64.99,145.64-50.17,207.87c14.82,62.23,74.85,91.29,134.44,127.13
				c-41.64-5.68-87.78-14.15-129.42-19.83c-14.01-1.91-32.9-1.51-40.23-12.06c-4.47-6.43-3.35-19.98-3-27.56
				c4.02-86.96,27.7-182.98,78.66-267.06"/>
			<g>
				<path d="M384.53,1093.53c-15.42,22.48-27.36,47.38-36.45,73.04c-9.45,26.65-16.08,54.62-18.06,82.87
					c-1.76,25.18-0.02,51.36,10.1,74.78c10.24,23.7,28.39,42.73,48.61,58.32c25.26,19.47,53.49,34.68,80.77,51.06
					c1.3-2.5,2.6-5,3.9-7.5c-33.65-4.61-67.12-10.46-100.69-15.63c-15.03-2.32-30.09-4.05-45.16-6.01
					c-5.92-0.77-12.21-1.76-17.37-4.95c-5.69-3.52-6.97-9.29-7.33-15.59c-0.79-13.6,0.9-27.72,2.14-41.26
					c1.39-15.09,3.35-30.12,5.87-45.06c5.27-31.19,12.98-61.96,23.26-91.88c12.07-35.14,27.65-69.02,46.86-100.84
					c2.98-4.93-3.56-7.18-6.17-2.85c-34.73,57.53-57.88,121.56-70.06,187.57c-5.52,29.91-9.31,60.61-9.75,91.05
					c-0.08,5.89-0.05,12.43,2.52,17.89c2.47,5.25,7.59,8.64,12.9,10.55c12.62,4.55,27.1,4.38,40.28,6.28
					c39.95,5.74,79.68,12.98,119.67,18.47c3.57,0.49,7.73-5.2,3.9-7.5c-23.65-14.2-47.99-27.48-70.48-43.51
					c-20.22-14.41-39.39-31.47-51.53-53.44c-12.18-22.04-15.77-47.35-14.97-72.26c0.87-27.18,6.39-54.2,14.72-80.04
					c9.17-28.44,21.76-56.02,38.69-80.7C393.97,1091.61,387.36,1089.4,384.53,1093.53L384.53,1093.53z"/>
			</g>
		</g>
		<g class="st6">
			<path d="M436.34,469.72c-14.59,52.39-67.1,183.91-69.93,264.25c-2.84,80.33,4.84,215.2,52.05,283.4s138.79,61.71,229.99,69.46
				c-70.4-1.26-174.04,0.08-239.21-8.24c-9.62-1.23-37.69-65.95-45.14-71.34c-6.01-4.35-17.28-229.99-16.54-236.85
				c15.62-144.59,44.5-239.21,69.33-285.71"/>
			<g>
				<path d="M432.75,469.28c-13.06,46.66-30.7,92-44.48,138.48c-7.96,26.87-15.26,54.03-20.33,81.61
					c-4.38,23.83-5.8,47.54-5.91,71.73c-0.27,55.91,3.7,112.64,16.35,167.22c11.52,49.73,30.98,102.19,77.27,129.27
					c23.38,13.68,50.35,20.13,76.93,23.94c30.25,4.35,60.85,5.46,91.31,7.46c7.69,0.51,15.37,1.06,23.05,1.71
					c1.01-2.58,2.02-5.16,3.02-7.75c-41.62-0.73-83.25-0.66-124.86-1.54c-21.33-0.45-42.66-1.12-63.96-2.33
					c-9.74-0.56-19.48-1.23-29.19-2.1c-4.07-0.36-8.13-0.76-12.19-1.21c-2.89-0.32-7.82-0.39-9.45-1.31
					c-2.89-1.64-5.58-6.22-7.5-9.17c-3.48-5.35-6.61-10.93-9.69-16.52c-6.46-11.74-12.39-23.81-19.23-35.34
					c-1.93-3.26-4.02-6.25-6.45-9.13c-0.69-0.82,0.4,1-0.22-0.31c-0.52-1.1-0.1-0.02-0.41-1.5c-1.27-5.92-1.85-12.01-2.48-18.03
					c-5.13-48.65-7.41-97.67-9.97-146.51c-1.02-19.48-2.03-38.96-2.71-58.45c-0.09-2.45-0.17-4.89-0.21-7.34
					c-0.01-0.7-0.04-1.4-0.02-2.11c0.02-0.95-0.05,0.87,0,0.13c0.05-0.76,0.15-1.52,0.23-2.28c2.66-24.42,5.86-48.79,9.69-73.06
					c6.23-39.5,14.06-78.85,24.73-117.4c7.32-26.47,15.86-52.8,27.3-77.81c2.09-4.56,4.27-9.08,6.63-13.51
					c2.69-5.05-3.78-7.34-6.17-2.85c-11.84,22.26-20.6,46.07-28.12,70.08c-11.09,35.4-19.41,71.66-26.17,108.11
					c-4.3,23.16-7.93,46.45-11.04,69.8c-1.67,12.56-3.19,25.14-4.56,37.74c-0.21,1.95-0.27,3.83-0.25,5.79
					c0.23,16.05,1.22,32.12,2.01,48.15c2.52,51.03,5.15,102.15,9.77,153.04c0.73,8.02,1.46,16.06,2.64,24.03
					c0.52,3.56,0.79,7.68,3.1,10.53c6.52,8.05,11.05,17.62,15.91,26.75c6.33,11.87,12.42,24.05,20.03,35.17
					c2.2,3.21,4.68,7.27,8.23,9.17c2.24,1.2,4.97,1.16,7.44,1.45c4.9,0.57,9.8,1.07,14.71,1.52c20.06,1.84,40.2,2.86,60.33,3.59
					c43.48,1.58,87,1.68,130.51,2.12c9.52,0.1,19.04,0.21,28.57,0.38c3.93,0.07,8.22-7.31,3.02-7.75
					c-30.2-2.54-60.51-3.51-90.68-6.39c-27.47-2.62-55.37-6.74-81.01-17.4c-24.43-10.16-45.15-26.65-59.42-49.05
					c-13.55-21.27-22.4-45.45-28.94-69.7c-14.44-53.49-19.27-109.67-20.06-164.92c-0.34-23.7-0.23-47.5,3.14-71
					c3.82-26.68,10.3-52.97,17.57-78.9c13.59-48.45,31.04-95.63,45.89-143.68c1.21-3.91,2.38-7.82,3.48-11.76
					C441.48,464.64,433.99,464.83,432.75,469.28L432.75,469.28z"/>
			</g>
		</g>
		<g class="st6">
			<path d="M465.29,509.34c-4.59,151.44,99.18,311.58,248.51,385.92c112.09,55.79,244.82,69.61,373.62,82.35
				c167.07,16.52,184.09,15.03,181.94,26.3c-0.61,3.18-78.71,34.11-104.18,34.69c-142.89,3.27-229.87,3.27-385.16-8.54
				c-76.71-5.83-146.12,7.23-222.83,1.4c-27.86-2.12-66.8-3.39-85.26-21.55c-17.78-17.5-37.26-44.57-50.15-254.49
				c-8.14-132.6,7.97-190.92,24.56-219.92"/>
			<g>
				<path d="M461.43,509.89c-2.42,86.02,28.57,170.03,77.64,239.83c53.61,76.27,128.68,134.15,215.29,168.2
					c99.76,39.22,207.77,51.18,313.63,61.78c45.27,4.53,90.57,8.69,135.85,13.05c18.29,1.76,37.63,2.38,55.5,7.02
					c0.63,0.16,2.95,0.91,4.47,1.64c0.26,0.12,0.51,0.28,0.75,0.43c0.74,0.45-0.7-0.5,0.14,0.11c0.37,0.27,1.42,1.43,0.53,0.41
					c0.24,0.28,0.79,1.83,0.29,0.39c0.35,1.01,0.38,0.9,0.13,0.56c0.02,0.02-0.02,0.61-0.06,0.63c-1.15,0.69,1.18-2.48,1.75-2.48
					c-0.88,0-2.47,1.46-2.99,1.72c-12.07,6.05-24.99,10.69-37.67,15.27c-15.47,5.58-31.21,10.98-47.32,14.39
					c-7.62,1.61-14.93,1.94-22.72,2.12c-12.78,0.28-25.56,0.55-38.34,0.78c-24.26,0.44-48.53,0.76-72.8,0.84
					c-46.02,0.15-92.04-0.67-138.02-2.66c-25.53-1.11-51.05-2.54-76.55-4.22c-28.73-1.88-57.45-4.75-86.26-5.02
					c-56.82-0.54-113.5,6.41-170.34,3.85c-22.59-1.02-46.06-1.97-68.16-7.01c-13.06-2.98-25.13-8.11-34.34-18.02
					c-6.77-7.27-11.2-15.25-15.05-24.89c-7.54-18.88-11.4-39.24-14.74-59.22c-6.5-38.84-10.08-78.18-13.09-117.43
					c-3.93-51.17-7.31-102.63-4.41-153.95c1.67-29.46,4.98-59.62,14.59-87.67c2.77-8.09,6.12-16.07,10.3-23.41
					c2.84-4.99-3.66-7.26-6.17-2.85c-10.94,19.22-16.8,40.95-20.64,62.6c-7.06,39.82-7.64,80.76-6.5,121.07
					c1.46,51.38,5.53,102.93,11.27,154.01c3.27,29.11,7.06,58.45,14.33,86.87c3.54,13.84,7.8,28.03,15.5,40.2
					c9.46,14.97,23.14,24.32,40.44,29.06c21.28,5.83,43.95,6.66,65.87,7.98c28.89,1.74,57.84,0.94,86.73-0.39
					c29.18-1.34,58.35-3.19,87.57-3.08c28.89,0.1,57.64,2.89,86.44,4.8c97.04,6.45,194.03,8.03,291.25,6.27
					c13.34-0.24,26.68-0.52,40.02-0.81c7.77-0.17,15.11-0.51,22.72-2.12c16.04-3.4,31.74-8.64,47.16-14.14
					c13.26-4.73,26.69-9.6,39.35-15.8c4.56-2.23,9.6-4.88,8.53-10.77c-1.43-7.9-14.52-8.73-20.52-9.67
					c-25.72-4.03-51.88-5.73-77.78-8.16c-52.05-4.89-104.12-9.7-156.07-15.51c-54.18-6.05-108.32-13.54-161.47-25.84
					c-52.03-12.05-103.42-28.85-150.75-53.88c-40.81-21.59-78.05-49.67-110.52-82.47c-62.65-63.3-109.11-145.53-123-234.09
					c-3.18-20.3-4.63-40.88-4.05-61.43C469.3,503.3,461.55,505.59,461.43,509.89L461.43,509.89z"/>
			</g>
		</g>
	</g>
</g>
<g id="Ebene_12">
	<path class="st7" d="M506.29,944.26V639.71c0-4.27,3.46-7.73,7.73-7.73h160.55c4.27,0,7.73,3.46,7.73,7.73v304.55
		c0,4.27-3.46,7.73-7.73,7.73H514.02C509.75,951.99,506.29,948.53,506.29,944.26z"/>
	<path class="st8" d="M694.39,944.26V721.71c0-4.27,3.46-7.73,7.73-7.73h160.55c4.27,0,7.73,3.46,7.73,7.73v222.55
		c0,4.27-3.46,7.73-7.73,7.73H702.12C697.85,951.99,694.39,948.53,694.39,944.26z"/>
	<path class="st9" d="M883.55,944.26V589.71c0-4.27,3.46-7.73,7.73-7.73h160.55c4.27,0,7.73,3.46,7.73,7.73v354.55
		c0,4.27-3.46,7.73-7.73,7.73H891.27C887,951.99,883.55,948.53,883.55,944.26z"/>
	<path class="st10" d="M1071.55,944.26V767.71c0-4.27,3.46-7.73,7.73-7.73h160.55c4.27,0,7.73,3.46,7.73,7.73v176.55
		c0,4.27-3.46,7.73-7.73,7.73h-160.55C1075,951.99,1071.55,948.53,1071.55,944.26z"/>
	<g>
		<g id="Ebene_2_Kopie">
			<g class="st11">
				<path d="M1351.3,927.26c29.42,10.23,48.77,36.39,45.77,61.85c-3.01,25.46-28.15,48.28-59.45,53.97
					c-31.3,5.69-66.38-6.2-82.94-28.11s-13.35-52.16,7.59-71.54c20.94-19.38,58.03-26.41,87.68-16.63"/>
				<g>
					<path d="M1348.71,930.84c27.62,9.8,46.38,33.36,44.84,57.54c-1.46,22.86-23.09,43.42-50.31,49.99
						c-28.7,6.93-61.81-2.05-80.27-20.68c-18.58-18.75-20.11-46.45-4.03-66.56c18.09-22.61,57.94-30.6,88.42-20.75
						c4.03,1.3,8.96-5.93,5.18-7.15c-30.83-9.97-67.57-2.97-90.2,16.3c-23.12,19.69-28.63,51.05-13.33,75.04
						c14.91,23.4,49.6,36.69,81.89,33.08c32.96-3.68,60.03-25.56,67.98-50.82c9.12-28.94-10.85-61.04-44.99-73.15
						C1349.93,922.28,1344.93,929.5,1348.71,930.84L1348.71,930.84z"/>
				</g>
			</g>
			<g class="st11">
				<path d="M1230.92,454.99c2.49-23.68,9.65-47.66,26.55-67.25c16.91-19.58,44.81-34.17,74.65-34.02
					c43.25,0.22,79.04,32,85.7,66.04c6.66,34.04-10.15,68.57-34.11,97.24c-23.97,28.68-54.99,53.13-81.57,80.3
					c-43.31,44.28-75.02,96.88-82.43,152.7c-4.87,36.67,1.99,76.32,31.52,104.72c29.53,28.4,85.95,40.63,124.02,19.65
					c24.16-13.31,36.65-36.72,41.34-59.82c4.69-23.09,2.8-46.69,4.69-70.04c3.89-48.16,24.27-95.4,58.35-135.3
					c42.2-49.41,105.34-88.51,131.21-144.6c27.4-59.38,5.3-129.38-47.33-176.76c-52.62-47.38-132.01-73-211.31-76.35
					c-87.16-3.67-176.78,19.11-241.12,66.08s-100.99,118.41-90.42,187.42c4.17,27.2,16.22,54.8,41.47,73.41
					c33.26,24.51,87.7,28.34,125.83,8.84s35.95-53.11,42.86-91.5"/>
				<g>
					<path d="M1234.65,453.33c2.28-21.06,8.27-42.43,22.41-60.57c12.67-16.26,32.95-29.32,56.58-33.72
						c46.6-8.69,88.06,21.97,98.82,56.27c13.44,42.85-15.88,85.8-47.92,118.49c-17.34,17.7-36.5,34.19-54.4,51.52
						c-17.06,16.51-32.66,33.97-46.06,52.51c-26.2,36.27-44.32,76.69-48.68,118.55c-3.91,37.57,4.69,80.97,40.45,108.16
						c30.02,22.81,79.58,33.11,116.59,14.73c20.28-10.07,33.71-26.82,41.28-44.57c8.92-20.93,9.71-43.14,10.19-65.03
						c0.5-22.54,2.16-44.72,8.29-66.8c5.83-20.97,14.83-41.46,26.83-60.71c11.67-18.72,26.19-36.01,42.57-52.32
						c15.49-15.42,32.16-30.04,48.22-45.07c31.5-29.47,60.89-61.54,71.67-100c10.44-37.22,3.69-76.91-15.79-111.55
						c-20.13-35.78-53.58-65.36-94.92-86.46c-41.74-21.3-90.34-33.89-139.55-37.97c-49.9-4.14-101.09,0.46-148.57,13.38
						c-47.31,12.88-90.99,34.04-125.77,62.76c-34.31,28.34-59.31,63.69-72.27,101.66c-12.66,37.06-14.27,78.95,2.55,115.39
						c8.24,17.84,21.58,34.5,41.14,45.74c18.02,10.37,40.51,15.71,62.67,15.72c22.21,0.02,44.46-5.19,62.39-15.77
						c16.87-9.96,26.56-24.73,31.58-40.68c5.35-16.99,6.37-34.69,9.45-51.99c0.95-5.35-6.63-2.06-7.27,1.47
						c-3.1,17.43-4.11,35.29-9.59,52.41c-5.06,15.81-15.83,28.75-33.82,36.93c-38.88,17.69-92.22,11.62-123.12-14.23
						c-33.58-28.08-41-71.23-37.22-108.39c3.88-38.21,21.59-75.61,49.26-106.9c28.37-32.1,67.02-57.38,111.24-74.55
						c44.72-17.36,94.54-26.39,144.24-26.85c48.93-0.46,98.14,7.36,142.59,23.78c43.96,16.25,83.2,41.05,109.9,73.49
						c25.95,31.53,40.18,69.52,38.08,107.31c-1.04,18.83-6.51,37.3-16.07,54.55c-9.63,17.39-23.13,33.26-37.79,48.18
						c-30.04,30.58-65.28,57.86-91.91,90.54c-28.59,35.08-47.07,75.54-53.48,117.05c-3.49,22.61-2.19,45.36-4.08,68.04
						c-1.65,19.82-6.61,40.11-20.63,56.91c-12.27,14.72-31.44,24.16-53.5,26.05c-21.04,1.8-42.68-2.96-60.7-11.54
						c-41.92-19.98-57.86-60.06-58.52-97.07c-0.72-40.72,14.47-81.43,37.59-117.45c11.88-18.51,25.97-36.1,41.81-52.61
						c16.77-17.46,35.45-33.68,53.15-50.53c33.89-32.27,65.64-69.65,68.28-113.07c1.13-18.56-4.03-36.9-16.35-52.76
						c-11.12-14.32-27.89-26.58-48.01-32.26c-46.71-13.18-92.81,12.97-113.01,45.62c-11.11,17.97-16.19,37.65-18.34,57.5
						c-0.2,1.86,2.02,2.45,3.81,1.75C1233.31,457.49,1234.44,455.24,1234.65,453.33L1234.65,453.33z"/>
				</g>
			</g>
			<g class="st11">
				<path d="M1303.51,983.45c-11.67-14.76-2.92-37.12,17.23-43.98"/>
				<g>
					<path d="M1306.73,980.33c-9.95-12.97-3.5-31.24,14.09-37.45c3.66-1.29,5.49-8.8-0.15-6.81c-22.86,8.07-33.49,33.39-20.37,50.49
						C1302.61,989.6,1308.84,983.1,1306.73,980.33L1306.73,980.33z"/>
				</g>
			</g>
			<g class="st11">
				<path d="M1298.11,961.12c1.62-0.21,2.91,1.65,1.82,2.63c-2.01-0.88-2.13-3.57-0.2-4.56"/>
				<g>
					<path d="M1296.32,964.9c0.53-0.03,0.48,0.13,0.15-0.09c0.48,0.31-0.21-0.3,0.05-0.03c0.22,0.23,0.18,0.41,0.07-0.05
						c0.03,0.07,0.05,0.13,0.08,0.19c-0.3-1.17,0.15-2.28,1.35-3.31c1.5-0.48,3-0.95,4.5-1.43c-0.15-0.07-0.29-0.15-0.43-0.24
						c0.55,0.35,0.12,0.07,0.03-0.08c-0.2-0.36,0.21,0.48,0.04,0.1c-0.25-0.56-0.03,0.11-0.06,0.1c-0.08-0.02,0.03-0.37-0.02-0.42
						c0.06,0.04-0.12,0.83,0,0.3c-0.12,0.55-0.41,1.05-0.79,1.5c-0.11,0.13-1.09,0.92-0.55,0.61c1.82-1.04,3.24-3.58,2.58-5.33
						c-0.74-1.95-3.11-1.27-4.62-0.41c-3.88,2.21-6.28,8.6-1.38,11.01c1.51,0.74,3.64-0.52,4.5-1.43c1.64-1.73,2.85-4.01,1.9-6.18
						c-0.55-1.27-2.03-2.49-3.84-2.36c-2.41,0.16-4.31,1.75-5.07,3.53c-0.37,0.85-0.65,1.82-0.31,2.71
						C1294.73,964.19,1295.41,964.96,1296.32,964.9L1296.32,964.9z"/>
				</g>
			</g>
		</g>
		<g id="Ebene_2_1_">
			<g>
				<path class="st12" d="M1370.44,911.8c29.42,10.23,48.77,36.39,45.77,61.85c-3.01,25.46-28.15,48.28-59.45,53.97
					c-31.3,5.69-66.38-6.2-82.94-28.11s-13.35-52.16,7.59-71.54c20.94-19.38,58.03-26.41,87.68-16.63"/>
				<g>
					<path d="M1367.85,915.38c27.62,9.8,46.38,33.36,44.84,57.54c-1.46,22.86-23.09,43.42-50.31,49.99
						c-28.7,6.93-61.81-2.05-80.27-20.68c-18.58-18.75-20.11-46.45-4.03-66.56c18.09-22.61,57.94-30.6,88.42-20.75
						c4.03,1.3,8.96-5.93,5.18-7.15c-30.83-9.97-67.57-2.97-90.2,16.3c-23.12,19.69-28.63,51.05-13.33,75.04
						c14.91,23.4,49.6,36.69,81.89,33.08c32.96-3.68,60.03-25.56,67.98-50.82c9.12-28.94-10.85-61.04-44.99-73.15
						C1369.07,906.82,1364.08,914.04,1367.85,915.38L1367.85,915.38z"/>
				</g>
			</g>
			<g>
				<path class="st12" d="M1263.38,437.89c2.49-23.68,9.65-47.66,26.55-67.25c16.91-19.58,44.81-34.17,74.65-34.02
					c43.25,0.22,79.04,32,85.7,66.04s-10.15,68.57-34.11,97.24c-23.97,28.68-54.99,53.13-81.57,80.3
					c-43.31,44.28-75.02,96.88-82.43,152.7c-4.87,36.67,1.99,76.32,31.52,104.72s85.95,40.63,124.02,19.65
					c24.15-13.31,36.65-36.72,41.34-59.82c4.69-23.09,2.8-46.69,4.69-70.04c3.89-48.16,24.27-95.4,58.35-135.3
					c42.2-49.41,105.34-88.51,131.21-144.6c27.4-59.38,5.3-129.38-47.33-176.76c-52.62-47.38-132.01-73-211.31-76.35
					c-87.14-3.68-176.76,19.1-241.1,66.07c-64.34,46.97-101.02,118.42-90.44,187.43c4.17,27.2,16.22,54.8,41.47,73.41
					c33.26,24.51,87.7,28.34,125.83,8.84c38.13-19.49,35.95-53.11,42.86-91.5"/>
				<g>
					<path d="M1267.12,436.24c2.28-21.06,8.27-42.43,22.41-60.57c12.67-16.26,32.95-29.32,56.58-33.72
						c46.6-8.69,88.06,21.97,98.82,56.27c13.44,42.85-15.88,85.8-47.92,118.49c-17.34,17.7-36.5,34.19-54.4,51.52
						c-17.06,16.51-32.66,33.97-46.06,52.51c-26.2,36.27-44.32,76.69-48.68,118.55c-3.91,37.57,4.69,80.97,40.45,108.16
						c30.02,22.81,79.58,33.11,116.59,14.73c20.28-10.07,33.71-26.82,41.28-44.57c8.92-20.93,9.71-43.14,10.19-65.03
						c0.5-22.54,2.16-44.72,8.29-66.8c5.83-20.97,14.83-41.46,26.83-60.71c11.67-18.72,26.19-36.01,42.57-52.32
						c15.49-15.42,32.16-30.04,48.22-45.07c31.5-29.47,60.89-61.54,71.67-100c10.44-37.22,3.69-76.91-15.79-111.55
						c-20.13-35.78-53.58-65.36-94.92-86.46c-41.74-21.3-90.34-33.89-139.55-37.97c-49.9-4.14-101.09,0.46-148.57,13.38
						c-47.31,12.88-90.99,34.04-125.76,62.76c-34.31,28.34-59.31,63.69-72.27,101.66c-12.66,37.06-14.27,78.95,2.55,115.39
						c8.24,17.84,21.58,34.5,41.14,45.74c18.02,10.37,40.51,15.71,62.67,15.72c22.21,0.02,44.46-5.19,62.39-15.77
						c16.87-9.96,26.56-24.73,31.58-40.68c5.35-16.99,6.37-34.69,9.45-51.99c0.95-5.35-6.63-2.06-7.27,1.47
						c-3.1,17.43-4.11,35.29-9.59,52.41c-5.06,15.81-15.83,28.75-33.82,36.93c-38.88,17.69-92.22,11.62-123.12-14.23
						c-33.58-28.08-41-71.23-37.22-108.39c3.88-38.21,21.59-75.61,49.26-106.9c28.37-32.1,67.02-57.38,111.24-74.55
						c44.72-17.36,94.54-26.39,144.24-26.85c48.93-0.46,98.14,7.36,142.59,23.78c43.96,16.25,83.2,41.05,109.9,73.49
						c25.95,31.53,40.18,69.52,38.08,107.31c-1.04,18.83-6.51,37.3-16.07,54.55c-9.63,17.39-23.13,33.26-37.79,48.18
						c-30.04,30.58-65.28,57.86-91.91,90.54c-28.59,35.08-47.07,75.54-53.48,117.05c-3.49,22.61-2.19,45.36-4.08,68.04
						c-1.65,19.82-6.61,40.11-20.63,56.91c-12.27,14.72-31.44,24.16-53.5,26.05c-21.04,1.8-42.68-2.96-60.69-11.54
						c-41.92-19.98-57.86-60.06-58.52-97.07c-0.72-40.72,14.47-81.43,37.59-117.45c11.88-18.51,25.97-36.1,41.81-52.61
						c16.77-17.46,35.45-33.68,53.15-50.53c33.89-32.27,65.64-69.65,68.28-113.07c1.13-18.56-4.03-36.9-16.35-52.76
						c-11.12-14.32-27.89-26.58-48.01-32.26c-46.71-13.18-92.81,12.97-113.01,45.62c-11.11,17.97-16.19,37.65-18.34,57.5
						c-0.2,1.86,2.03,2.45,3.81,1.75C1265.78,440.39,1266.91,438.15,1267.12,436.24L1267.12,436.24z"/>
				</g>
			</g>
			<g>
				<g>
					<path d="M1306.73,980.33c-9.95-12.97-3.5-31.24,14.09-37.45c3.66-1.29,5.49-8.8-0.15-6.81c-22.86,8.07-33.49,33.39-20.37,50.49
						C1302.61,989.6,1308.84,983.1,1306.73,980.33L1306.73,980.33z"/>
				</g>
			</g>
			<g>
				<path class="st13" d="M1343.64,934.63c1.62-0.21,2.91,1.65,1.82,2.63c-2.01-0.88-2.13-3.57-0.2-4.56"/>
				<g>
					<path d="M1341.86,938.4c0.53-0.03,0.48,0.13,0.15-0.09c0.48,0.31-0.21-0.3,0.05-0.03c0.22,0.23,0.18,0.41,0.07-0.05
						c0.03,0.07,0.05,0.13,0.08,0.19c-0.3-1.17,0.15-2.28,1.35-3.31c1.5-0.48,3-0.95,4.5-1.43c-0.15-0.07-0.29-0.15-0.43-0.24
						c0.55,0.35,0.12,0.07,0.03-0.08c-0.2-0.36,0.21,0.48,0.04,0.1c-0.25-0.56-0.03,0.11-0.06,0.1c-0.08-0.02,0.03-0.37-0.02-0.42
						c0.06,0.04-0.12,0.83,0,0.3c-0.12,0.54-0.41,1.05-0.79,1.5c-0.11,0.13-1.08,0.92-0.55,0.61c1.82-1.04,3.24-3.58,2.58-5.33
						c-0.74-1.95-3.11-1.27-4.62-0.41c-3.88,2.21-6.28,8.6-1.38,11.01c1.51,0.74,3.64-0.52,4.5-1.43c1.64-1.73,2.85-4.01,1.9-6.18
						c-0.55-1.27-2.03-2.49-3.84-2.36c-2.41,0.16-4.31,1.75-5.07,3.53c-0.37,0.85-0.65,1.82-0.31,2.71
						C1340.27,937.68,1340.95,938.47,1341.86,938.4L1341.86,938.4z"/>
				</g>
			</g>
		</g>
		<g id="Ebene_4_1_">
			<g class="st11">
				<path d="M1343.64,906.95c-35.75,0.66-78.56,30.58-80.39,59.02c-1.82,28.45,36.12,59.31,71.59,62.87
					c-29.71-5.67-57.03-37.37-53.18-61.51c3.84-24.15,27.69-46.54,63.08-60.29"/>
				<g>
					<path d="M1345.42,903.18c-15.79,0.4-30.87,5.44-43.76,12.51c-13.49,7.39-25.36,17.1-33.26,28.58
						c-7.61,11.05-10.95,23.38-7.4,35.8c3.58,12.51,12.97,23.85,24.42,32.7c13.01,10.05,29.46,17.91,47.64,19.85
						c3.89,0.41,8.21-6.63,3.57-7.55c-23.57-4.69-41.99-23.39-48.86-41.2c-3.44-8.93-3.47-17.91,0.15-26.81
						c3.76-9.26,10.43-17.5,18.67-24.62c10.73-9.28,24.09-16.44,38.23-21.99c2.11-0.83,3.79-3.19,3.66-5.06
						c-0.12-1.83-1.78-2.54-3.81-1.75c-26.55,10.41-50.83,27.11-61.79,49.5c-4.81,9.83-6.63,20.25-3.93,30.63
						c2.76,10.61,9.39,20.7,17.93,29.07c9.36,9.17,21.6,16.87,36.18,19.78c1.19-2.52,2.38-5.04,3.57-7.55
						c-28.77-3.07-55.99-21.99-65.99-43.43c-4.87-10.43-4.78-21,0.84-31.2c5.61-10.19,15.5-18.87,26.42-25.64
						c12.45-7.72,27.96-13.66,43.96-14.07C1345.89,910.63,1349.79,903.07,1345.42,903.18L1345.42,903.18z"/>
				</g>
			</g>
			<g class="st11">
				<path d="M1442.95,459.85c-22.54,38.04-52.29,63.16-83.94,96.82c-31.65,33.67-61.21,61.04-81.45,99.9
					c-20.23,38.86-30.31,113.38-14.31,153.47c15.99,40.09,70.72,71.4,134.11,51.97c-76.56-31.32-65.83-171.92-37.92-219.2
					c27.11-45.91,95.87-135.82,92.02-217.93"/>
				<g>
					<path d="M1439.67,459.61c-21.35,35.83-54.74,65.47-84.44,96.9c-29.77,31.52-61.15,62.2-80.48,98.9
						c-7.33,13.92-12.05,28.72-15.61,43.51c-4.02,16.72-6.43,33.73-7.25,50.74c-1.45,29.9,0.75,62.74,23.61,87.81
						c11.25,12.34,26.68,22.43,44.41,28.27c19.03,6.26,39.97,7.48,60.04,3.95c5.63-0.99,11.13-2.35,16.53-3.98
						c2.36-0.72,7.33-5.69,3.47-7.29c-27.71-11.47-41.59-35.94-48.99-58.94c-9.02-28.03-10.22-57.68-7.47-86.42
						c1.27-13.28,3.57-26.55,7.13-39.57c2.78-10.2,6.22-20.23,11.71-29.78c7.49-13.02,16.21-25.85,24.36-38.71
						c10.55-16.65,20.79-33.44,30.05-50.58c19.93-36.86,36.29-76.16,38.41-116.56c0.26-4.89,0.27-9.78,0.06-14.66
						c-0.08-1.8-1.84-2.53-3.81-1.75c-2.11,0.83-3.75,3.2-3.66,5.06c1.78,40.62-13.35,80.6-32.48,117.82
						c-16.49,32.07-37.39,62.37-56.28,93.53c-13.21,21.79-18.98,45.89-21.98,69.84c-3.68,29.33-3.21,59.44,4.36,88.37
						c6.31,24.08,18.49,50.23,44.52,65.14c2.83,1.62,5.81,3.07,8.92,4.35c1.15-2.43,2.32-4.86,3.47-7.29
						c-19.88,6.01-41.32,7.7-62.01,3.31c-18.27-3.87-34.9-12.43-47.45-23.62c-12.07-10.76-20.28-23.67-24.45-37.69
						c-4.37-14.69-5.4-29.98-5.23-45.03c0.19-16.74,2.12-33.46,5.56-49.97c3.07-14.76,7.22-29.5,13.76-43.55
						c16.37-35.18,46.13-64.78,74.32-94.31c14.94-15.65,30.2-31.08,45.26-46.66c14.56-15.07,28.42-30.63,39.81-47.37
						c2.98-4.38,5.76-8.82,8.43-13.32c0.79-1.32,0.75-3.73-1.5-4.02C1442.31,455.76,1440.49,458.23,1439.67,459.61L1439.67,459.61z"
						/>
				</g>
			</g>
			<g class="st11">
				<path d="M1345.28,194.54c-54.35,7.45-130.45,23.47-173.54,48.78c-43.09,25.31-87.37,74.99-106.95,114.68
					c-19.57,39.69-16.23,102.95,7.97,140.98s70.07,53.97,130.26,38.16c-37.23-7.57-75.17-26.62-85.72-56.05
					c-10.55-29.43-5.99-61.1,4.31-90.59c27.78-79.6,103.02-147.89,222.63-193.58"/>
				<g>
					<path d="M1346.15,190.83c-47.57,6.55-95.65,16.27-139.41,32.8c-20.7,7.82-39.43,17.78-56.13,30.28
						c-18.84,14.1-35.37,30.12-50.05,47.04c-14.22,16.39-26.89,33.76-36.65,52.13c-8.85,16.68-13.26,34.43-14.87,52.45
						c-1.71,19.09-0.28,38.44,4.29,57.24c4.17,17.16,11.14,34.34,23.26,49.04c10.89,13.2,26.24,24.11,44.83,29.9
						c20.02,6.24,41.93,6.45,62.8,3c6.07-1,12.04-2.32,17.93-3.85c2.86-0.74,7.44-6.51,2.66-7.49
						c-32.82-6.76-67.99-22.55-81.32-48.75c-8.05-15.82-9.36-34.1-8.07-50.97c1.29-16.8,5.73-33.51,11.93-49.57
						c9.41-24.39,23.4-47.5,41.23-68.69c18.93-22.49,42.21-42.59,68.03-60.14c28.7-19.5,60.58-35.88,94.13-49.56
						c4.49-1.83,9.02-3.61,13.57-5.36c3.59-1.38,5.4-8.93-0.15-6.81c-35.79,13.71-69.94,30.28-100.85,50.19
						c-27.78,17.9-52.93,38.57-73.69,61.77c-19.7,22.02-35.54,46.19-46.34,71.85c-13.73,32.63-21.51,68.87-10.75,102.78
						c9.28,29.25,41.26,48.38,75.76,57.74c4.26,1.16,8.58,2.18,12.94,3.08c0.88-2.5,1.78-4.99,2.66-7.49
						c-20.91,5.43-43.3,7.98-65,4.11c-18.43-3.29-34.94-11.49-47.25-22.84c-13.72-12.65-22.1-28.24-27.5-44.25
						c-5.96-17.69-8.48-36.11-8.31-54.41c0.16-17.63,2.72-35.62,9.79-52.4c7.3-17.33,18.76-33.71,31.03-49.08
						c24.91-31.2,56.62-61.48,98.03-79.22c20.79-8.91,43.04-15.55,65.54-21.12c22.52-5.59,45.48-10.07,68.63-13.69
						c5.17-0.81,10.35-1.56,15.54-2.28C1348.21,197.73,1351.41,190.11,1346.15,190.83L1346.15,190.83z"/>
				</g>
			</g>
		</g>
		<g id="Ebene_5_1_">
			<g class="st11">
				<g>
					<path class="st2" d="M1443.83,240.52c3.88,0.86,7.72,1.81,11.51,2.89c1.89,0.54,3.77,1.11,5.63,1.7
						c0.93,0.3,1.86,0.6,2.79,0.91c0.41,0.14,4.24,1.5,1.89,0.64c7.3,2.68,14.35,5.77,21.09,9.25c13.68,7.06,25.2,15.13,35.98,25.14
						c22.25,20.64,36.13,45.86,39.5,72.96c8.04,64.75-36.71,123.35-77.94,175.99c-23.86,30.47-47.6,61.12-63.5,94.88
						c-0.74,1.57,4.35,3.2,5.06,3.41c3.69,1.08,8.34,1.46,12.22,1.41c5.26-0.07,15.05-0.09,17.28-4.82
						c28.58-60.67,83.79-110.26,116.32-169.38c16.21-29.45,27.69-61.39,25.82-93.82c-1.62-28.13-14.09-55.32-35.71-77.61
						c-23.37-24.09-56.63-42.25-93.5-50.39c-7.62-1.68-16.9-2.39-24.44,0c-1.81,0.57-5.06,1.47-5.06,3.41
						C1438.77,238.93,1442.16,240.15,1443.83,240.52L1443.83,240.52z"/>
				</g>
			</g>
			<g class="st11">
				<g>
					<path class="st2" d="M1362.39,952.49c5.76,10.4,5.53,22.71,1.27,33.42c-2.07,5.2-5.43,10.11-9.57,14.46
						c-4.75,4.99-9.06,8.03-15.5,11.02c-6.57,3.04,2.81,6.07,6.2,6.59c7.26,1.11,16.97,1.37,23.64-1.73
						c28.36-13.14,40.51-42.44,27.27-66.32c-0.91-1.65-6.32-2.6-7.94-2.88c-4.19-0.71-9.07-0.88-13.31-0.48
						C1370.84,946.9,1359.84,947.89,1362.39,952.49L1362.39,952.49z"/>
				</g>
			</g>
		</g>
	</g>
</g>
</svg>
