<?xml version="1.0" encoding="utf-8"?>
<!-- Generator: Adobe Adobe Illustrator 24.2.0, SVG Export Plug-In . SVG Version: 6.00 Build 0)  -->
<svg version="1.1" xmlns="http://www.w3.org/2000/svg" xmlns:xlink="http://www.w3.org/1999/xlink" x="0px" y="0px"
	 viewBox="0 0 1700.79 1700.79" style="enable-background:new 0 0 1700.79 1700.79;" xml:space="preserve">
<style type="text/css">
	.st0{fill:#7C8E9E;}
	.st1{fill:#7E8D9C;}
	.st2{fill:#FFFFFF;}
	.st3{stroke:#000000;stroke-width:1.0183;stroke-miterlimit:10;}
	.st4{fill:#C8354F;}
	.st5{fill:#FFFFFF;stroke:#000000;stroke-width:1.0183;stroke-miterlimit:10;}
	.st6{fill:#FFFFFF;stroke:#000000;stroke-width:1.411;stroke-miterlimit:10;}
	.st7{fill:#FFFFFF;stroke:#000000;stroke-width:1.4873;stroke-miterlimit:10;}
	.st8{opacity:0.149;}
	.st9{fill:#C9316B;}
	.st10{fill:#F4F5E8;}
	.st11{fill:#6379B8;}
	.st12{fill:#F3C057;stroke:#000000;stroke-width:3.3436;stroke-miterlimit:10;}
	.st13{fill:#C8316B;}
	.st14{fill:#6478B7;}
	.st15{fill:#6378B7;}
</style>
<g id="Ebene_2">
</g>
<g id="Ebene_16">
</g>
<g id="Ebene_8">
</g>
<g id="Ebene_9">
</g>
<g id="Ebene_6">
</g>
<g id="Ebene_7">
</g>
<g id="Ebene_10">
	<g>
		<g>
			<path class="st0" d="M241.07,1646.08c49.67-1.05,99.31-3.43,148.84-7.13c0.25-4.93,0.5-9.87,0.75-14.8
				c-49.94,4.22-99.87,8.43-149.81,12.65"/>
			<g>
				<path class="st1" d="M241.07,1651.17c49.67-1.06,99.3-3.44,148.84-7.13c2.85-0.21,4.94-2.17,5.09-5.09
					c0.25-4.93,0.5-9.87,0.75-14.8c0.13-2.59-2.44-5.31-5.09-5.09c-49.94,4.22-99.87,8.43-149.81,12.65
					c-6.48,0.55-6.54,10.73,0,10.18c49.94-4.22,99.87-8.43,149.81-12.65c-1.7-1.7-3.39-3.39-5.09-5.09
					c-0.25,4.94-0.5,9.87-0.75,14.8c1.7-1.7,3.39-3.39,5.09-5.09c-49.54,3.69-99.17,6.07-148.84,7.13
					C234.53,1641.13,234.51,1651.31,241.07,1651.17L241.07,1651.17z"/>
			</g>
		</g>
		<g>
			<path class="st0" d="M404.01,1613.42c58.71-4.63,117.89-3.93,176.47,2.09c-59.96,4.82-120.29,5.42-180.34,1.78"/>
			<g>
				<path class="st1" d="M404.01,1618.51c58.76-4.58,117.83-3.88,176.47,2.09c0-3.39,0-6.79,0-10.18
					c-59.99,4.78-120.26,5.38-180.34,1.78c-6.55-0.39-6.52,9.79,0,10.18c60.08,3.59,120.35,3,180.34-1.78
					c6.59-0.53,6.5-9.52,0-10.18c-58.63-5.97-117.71-6.67-176.47-2.09C397.52,1608.83,397.46,1619.02,404.01,1618.51L404.01,1618.51
					z"/>
			</g>
		</g>
		<g>
			<path class="st2" d="M287.51,852.58c-23.71,100.06-47.42,200.11-71.12,300.17c-7.15,30.19-12.71,66.2,10.13,88.26
				c19.41,18.74,50.71,18.57,78.34,17.12c71.39-3.72,142.79-7.45,214.18-11.17c16.25-0.85,33.12-1.86,47.4-9.28
				c14.28-7.43,25.1-23.27,20.78-38.17"/>
			<g>
				<path class="st2" d="M282.6,851.23c-13.61,57.45-27.23,114.9-40.84,172.35c-6.88,29.05-13.77,58.1-20.65,87.15
					c-5.81,24.51-13.26,49.25-15.54,74.41c-1.92,21.2,1.36,44.03,17.34,59.46c15.97,15.42,39.07,18.91,60.38,19.18
					c27.3,0.34,54.79-2.3,82.04-3.72c29.42-1.53,58.83-3.07,88.25-4.6c16.53-0.86,33.05-1.72,49.58-2.59
					c15-0.78,30.29-0.91,45.09-3.79c13.01-2.53,25.94-7.87,34.8-18.07c7.94-9.14,12.16-20.88,9.07-32.87
					c-1.63-6.34-11.46-3.65-9.82,2.71c2.7,10.49-2.94,20.47-10.72,27.24c-9.08,7.9-21.64,10.9-33.3,12.32
					c-12.94,1.58-26.07,1.81-39.08,2.49c-13.88,0.72-27.76,1.45-41.65,2.17c-53.92,2.81-107.89,6.55-161.86,8.37
					c-20.41,0.69-43.84,0.45-61.04-12.18c-17.37-12.75-20.64-34.5-19.03-54.63c1.87-23.43,8.99-46.55,14.39-69.33
					c6.42-27.11,12.85-54.22,19.27-81.34c14.38-60.68,28.76-121.36,43.13-182.04C293.93,847.56,284.12,844.84,282.6,851.23
					L282.6,851.23z"/>
			</g>
		</g>
		<g>
			<path class="st2" d="M288.58,851.85c-25.15,107.62-50.3,215.25-75.45,322.87c-5.01,21.45-9.5,45.77,3.61,63.88
				c16.31,22.53,50.35,23.41,79.09,21.96c73.54-3.7,147.09-7.4,220.63-11.1c23.71-1.19,51.07-4.3,63.86-23.3
				c11.37-16.88,6.05-38.95,0.35-58.24c-31.47-106.59-62.94-213.17-94.41-319.76c-62.3,20.82-131.57,22.36-194.83,4.32"/>
			<g>
				<path class="st2" d="M283.67,850.5c-19.24,82.34-38.48,164.68-57.72,247.02c-4.77,20.42-9.54,40.85-14.32,61.27
					c-4.04,17.28-9.28,35.12-8.52,53.05c0.66,15.53,6.72,30.03,19.21,39.66c11.59,8.94,26.2,12.38,40.51,13.82
					c16.58,1.66,33.3,0.32,49.89-0.51c20.87-1.05,41.74-2.1,62.61-3.15c42.07-2.12,84.15-4.23,126.22-6.35
					c28.42-1.43,68.8-0.4,84.83-29.27c8.28-14.92,6.17-32.69,2.22-48.56c-4.84-19.44-11.19-38.59-16.86-57.81
					c-23.84-80.74-47.68-161.47-71.52-242.21c-3.02-10.21-6.03-20.42-9.05-30.64c-0.75-2.54-3.61-4.44-6.26-3.56
					c-61.92,20.5-129.34,22.03-192.12,4.32c-6.32-1.78-9.01,8.04-2.71,9.82c64.42,18.17,133.98,16.72,197.54-4.32
					c-2.09-1.19-4.18-2.37-6.26-3.56c22.9,77.55,45.79,155.09,68.69,232.64c5.75,19.47,11.5,38.93,17.24,58.4
					c5.08,17.2,11.78,34.76,14.08,52.62c2.01,15.64-1.63,31.24-15.66,40.07c-12.37,7.79-27.76,9.68-42.04,10.69
					c-39.1,2.78-78.37,4.01-117.52,5.98c-39.1,1.97-78.23,4.6-117.36,5.85c-26.17,0.84-63.82-0.74-73.3-30.93
					c-4.81-15.3-1.29-32.03,2.21-47.23c4.52-19.65,9.18-39.28,13.77-58.91c18.41-78.77,36.82-157.55,55.22-236.32
					c2.27-9.73,4.55-19.45,6.82-29.18C294.98,846.83,285.16,844.11,283.67,850.5L283.67,850.5z"/>
			</g>
		</g>
		<g>
			<path class="st2" d="M167.62,1137.2c-14.79-13.08-16.84-37.13-4.46-52.31c12.38-15.18,37.4-19.29,54.43-8.95
				c-15.91,20.95-31.82,41.91-47.72,62.86"/>
			<g>
				<path class="st2" d="M171.22,1133.6c-12.65-11.64-15.26-32.75-3.6-46.12c11.47-13.15,32.57-15.77,47.4-7.14
					c-0.61-2.32-1.22-4.64-1.83-6.97c-15.91,20.95-31.82,41.91-47.72,62.86c-3.96,5.22,4.88,10.3,8.79,5.14
					c15.91-20.95,31.82-41.91,47.72-62.86c1.66-2.19,0.33-5.71-1.83-6.97c-19-11.05-46.34-7.59-60.6,9.75
					c-14.36,17.45-12.07,44.3,4.46,59.51C168.83,1145.23,176.05,1138.05,171.22,1133.6L171.22,1133.6z"/>
			</g>
		</g>
		<g>
			<path class="st2" d="M571,1066.9c13.9,15.91,27.79,31.81,41.69,47.72c2.15,2.47,4.5,5.06,7.73,5.97
				c5.98,1.69,11.87-3.1,15.07-8.19c10.04-15.97,5.55-38.76-9.9-50.19c-15.45-11.43-39.81-10-53.65,3.16"/>
			<g>
				<path class="st2" d="M567.4,1070.5c13.03,14.91,26.06,29.82,39.09,44.74c4.94,5.66,10.08,11.67,18.37,10.59
					c7.11-0.92,12.74-6.55,16.05-12.6c13.58-24.77-1.71-56.61-28.93-62.61c-15.4-3.39-31.93,0.45-43.64,11.14
					c-4.85,4.43,2.37,11.62,7.2,7.2c10.02-9.16,24.97-11.59,37.73-7.44c13,4.23,21.82,16.42,22.45,29.99
					c0.3,6.34-1.08,12.96-4.62,18.31c-1.88,2.84-5.44,6.83-9.32,5.85c-3.5-0.88-6.54-5.86-8.74-8.39
					c-12.81-14.66-25.62-29.33-38.43-43.99C570.28,1058.36,563.1,1065.58,567.4,1070.5L567.4,1070.5z"/>
			</g>
		</g>
		<g>
			<path class="st2" d="M244.19,1618.75c-10.76-27.76-1.06-61.54,23.05-80.26c24.12-18.72,60.89-21.03,87.39-5.48
				c26.5,15.55,40.78,47.82,33.95,76.69c-49.76-0.24-99.53,2.83-148.84,9.2"/>
			<g>
				<path class="st2" d="M249.1,1617.39c-11.81-31.51,3.14-67.64,33.27-82.28c30.51-14.84,70.64-6.93,90.36,21.44
					c10.45,15.03,14.98,33.81,10.93,51.8c1.64-1.25,3.27-2.49,4.91-3.74c-49.76-0.2-99.48,2.87-148.84,9.2
					c-6.41,0.82-6.49,11.01,0,10.18c49.36-6.33,99.08-9.4,148.84-9.2c2.14,0.01,4.42-1.58,4.91-3.74
					c8.48-37.76-14.6-76.87-51.03-89.09c-36.86-12.37-80.94,2.19-99.02,37.54c-9.54,18.65-11.55,40.86-4.16,60.59
					C241.56,1626.18,251.41,1623.55,249.1,1617.39L249.1,1617.39z"/>
			</g>
		</g>
		<g>
			<path class="st2" d="M395.89,1598.25c-5.84-32.8,10.66-68.21,40.15-86.15c29.49-17.94,70.25-17.37,99.17,1.4
				s44.31,54.62,37.44,87.25c-56.72,0.38-113.43,0.77-170.15,1.15"/>
			<g>
				<path class="st2" d="M400.8,1596.9c-6.29-37.37,17.75-75.32,53.14-87.66c36.36-12.68,79.77-1.46,101.5,31.34
					c11.4,17.21,16.39,38.45,12.31,58.81c1.64-1.25,3.27-2.49,4.91-3.74c-56.72,0.38-113.43,0.77-170.15,1.15
					c-6.55,0.04-6.56,10.23,0,10.18c56.72-0.38,113.43-0.77,170.15-1.15c2.1-0.01,4.47-1.56,4.91-3.74
					c8.47-42.28-16.11-85.35-55.87-101.19c-40.75-16.23-89.88-3.72-115.43,32.42c-13.56,19.18-19.18,43.12-15.29,66.27
					C392.06,1606.05,401.88,1603.32,400.8,1596.9L400.8,1596.9z"/>
			</g>
		</g>
		<g>
			<path class="st2" d="M376.8,465.06c-55.78-15.89-117.46,10.3-156.37,51.46c-66.14,69.95-74.2,183.75-17.63,260.9
				s172.61,109.33,263.57,72.24s146.41-140.03,123.83-231.58S468.87,457.53,370.23,465.28"/>
			<g>
				<path d="M378.15,460.15c-46.89-13.03-97.23,1.8-135.57,30.12c-36.73,27.12-62.74,66.67-74.77,110.6
					c-11.62,42.39-10.43,88.61,4.6,130.01c14.94,41.15,43.05,75.55,79.49,99.62c72.23,47.71,172.67,54.67,247.17,8.14
					c71.99-44.97,116.01-134.99,96.66-219.23c-20.07-87.36-104.73-150.89-191.92-158.94c-11.17-1.03-22.4-1.09-33.59-0.26
					c-6.49,0.49-6.55,10.67,0,10.18c84.67-6.33,172.12,44.05,206.14,122.52c32.99,76.09,3.22,165.84-57.64,218.63
					c-64.02,55.53-157.93,61.64-233.22,26.15c-37.18-17.53-69.63-45.01-90.07-80.95c-20.75-36.49-28.52-79.36-24.01-120.96
					c4.54-41.81,22.11-82.45,50.6-113.51c30.34-33.08,74.37-56.6,119.9-56.8c11.37-0.05,22.56,1.47,33.51,4.52
					C381.77,471.73,384.47,461.91,378.15,460.15L378.15,460.15z"/>
			</g>
		</g>
		<g>
			<g>
				<path d="M279.41,850.18c-20.04,84.21-40.09,168.43-60.13,252.64c-4.99,20.97-10.02,41.94-14.98,62.92
					c-3.69,15.6-7,31.81-5.91,47.92c1.03,15.41,6.5,30.5,18.36,40.88c12.03,10.53,27.6,14.75,43.2,16.36
					c17.8,1.83,35.83,0.25,53.64-0.63c21.63-1.06,43.25-2.13,64.88-3.19c43.25-2.13,86.51-4.26,129.76-6.39
					c28.96-1.43,69.77-1.87,83.97-32.82c7.14-15.56,4.77-33.12,0.68-49.17c-5.09-19.98-11.6-39.67-17.48-59.43
					c-24.68-83.02-49.37-166.04-74.05-249.06c-3.03-10.18-6.05-20.36-9.08-30.54c-1.86-6.27-11.69-3.6-9.82,2.71
					c23.64,79.52,47.29,159.04,70.93,238.56c5.86,19.72,11.73,39.44,17.59,59.16c5.34,17.95,12.16,36.13,14.88,54.72
					c2.29,15.68-0.37,32.15-13.89,42.04c-12,8.78-27.81,11.18-42.26,12.41c-19.07,1.62-38.29,2.06-57.41,3
					c-20.96,1.03-41.92,2.06-62.88,3.1c-40.73,2-81.47,4.59-122.23,5.97c-28.67,0.97-66.36-1.53-76.23-34.3
					c-4.5-14.94-2.53-31.19,0.45-46.22c3.72-18.76,8.66-37.32,13.09-55.93c19.2-80.67,38.4-161.33,57.6-242
					c2.38-10,4.76-20.01,7.14-30.01C290.75,846.51,280.93,843.8,279.41,850.18L279.41,850.18z"/>
			</g>
		</g>
		<g>
			<g>
				<path d="M274.69,843.57c-28.31,21.28-57.18,41.76-86.13,62.16c-8.38,5.91-16.79,11.8-24.9,18.07
					c-4.64,3.59-9.81,7.31-13.17,12.22c-4.92,7.19,0.82,13.16,4.62,19.69c8.2,14.11,16.34,28.26,24.31,42.5
					c9.2,16.43,18.02,33.07,27.18,49.52c2.92,5.24,5.88,10.47,8.87,15.67c1.67,2.9,3.34,5.8,5.02,8.69
					c1.19,2.05,2.22,2.65,1.14,4.57c-1.2,2.13-3.66,4.18-5.22,6.06c-16.36,19.75-32.72,39.49-49.09,59.24
					c2.06-0.27,4.11-0.53,6.17-0.8c-20.34-11.58-27-42.28-10.25-59.85c16.72-17.55,48.94-15.64,64.24,2.67
					c4.21,5.03,11.38-2.2,7.2-7.2c-15.12-18.08-42.86-22.16-63.87-12.89c-21.8,9.62-31.59,34-25.25,56.53
					c3.49,12.42,11.56,23.14,22.79,29.54c1.81,1.03,4.74,0.93,6.17-0.8c14.47-17.47,28.95-34.94,43.42-52.41
					c3.14-3.79,6.22-7.66,9.48-11.35c2.54-2.87,5.45-5.96,5.41-10.05c-0.03-3.49-2.47-6.53-4.16-9.43c-1.57-2.7-3.13-5.41-4.68-8.12
					c-9.18-16.02-17.9-32.28-26.77-48.47c-5.79-10.56-11.68-21.06-17.64-31.52c-4.45-7.81-8.94-15.6-13.45-23.38
					c-2.47-4.25-4.7-8.85-7.5-12.89c-1.23-1.77-0.33-0.1-0.27-0.42c-0.1,0.55-0.01,1.19,0.04,1.55c-0.13-0.93-0.45,0.33,0.38-0.79
					c0.21-0.29,0.97-1.34,0.08-0.19c0.32-0.41,0.66-0.82,1.02-1.19c1.9-2,3.93-3.83,6.05-5.59c6.68-5.55,13.85-10.53,20.93-15.56
					c31.15-22.12,62.41-44.04,92.96-66.99C285.01,848.47,279.94,839.63,274.69,843.57L274.69,843.57z"/>
			</g>
		</g>
		<g>
			<g>
				<path d="M489.28,851.57c48.65,41.9,99.2,81.64,150.1,120.77c4.24,3.26,8.49,6.52,12.76,9.76c-0.34-2.67-0.69-5.33-1.03-8
					c-26.6,25.79-53.2,51.57-79.81,77.36c-3.76,3.64-7.52,7.29-11.28,10.93c-1.73,1.67-1.77,4.13-0.8,6.17
					c4.83,10.05,10.93,18.16,18.22,26.56c11.9,13.72,23.81,27.44,35.71,41.16c1.1,1.27,3.37,1.88,4.95,1.31
					c23.27-8.35,37.33-33.36,33.02-57.65c-4.43-25.02-29.65-38.99-53.63-37.67c-13.78,0.76-27.32,6.07-36.61,16.51
					c-4.35,4.88,2.83,12.11,7.2,7.2c16.38-18.39,50.73-18.55,66.4,1.08c16.03,20.08,4.1,52.4-19.1,60.72
					c1.65,0.44,3.3,0.87,4.95,1.31c-11.47-13.22-22.94-26.44-34.41-39.66c-4.5-5.19-9.14-10.09-12.63-16.03
					c-1.91-3.24-3.67-6.58-5.3-9.96c-0.27,2.06-0.53,4.11-0.8,6.17c26.6-25.79,53.2-51.57,79.81-77.36
					c3.76-3.64,7.52-7.29,11.28-10.93c2.59-2.51,1.5-6.08-1.03-8c-38.57-29.3-76.63-59.3-114.15-89.93
					c-15.7-12.82-31.29-25.78-46.65-39.01C491.54,840.11,484.3,847.28,489.28,851.57L489.28,851.57z"/>
			</g>
		</g>
		<g>
			<g>
				<path d="M240.26,1649.16c-6.7-38.55-3.01-88.35,31.48-113.05c16.57-11.87,38.03-18.24,58.29-13.92
					c21.49,4.59,38.22,20.53,48.31,39.49c13.68,25.69,14.55,55.77,15.49,84.19c1.7-1.7,3.39-3.39,5.09-5.09
					c-54.42,0.03-108.63,3.75-162.82,8.5c-6.48,0.57-6.54,10.76,0,10.18c54.19-4.75,108.4-8.46,162.82-8.5
					c2.68,0,5.18-2.33,5.09-5.09c-0.94-28.42-2.13-57.77-14.24-84.01c-9.88-21.42-27.36-39.97-50.07-47.57
					c-21.54-7.21-45.67-3.02-65.16,7.97c-20.18,11.38-34.09,29.51-40.75,51.58c-7.54,24.99-7.79,52.45-3.35,78.03
					C231.56,1658.31,241.37,1655.57,240.26,1649.16L240.26,1649.16z"/>
			</g>
		</g>
		<g>
			<g>
				<path d="M241.48,1634.17c49.79-4.06,99.57-8.12,149.36-12.19c6.49-0.53,6.54-10.72,0-10.18c-49.79,4.06-99.57,8.12-149.36,12.19
					C234.99,1624.51,234.93,1634.7,241.48,1634.17L241.48,1634.17z"/>
			</g>
		</g>
		<g>
			<g>
				<path d="M389.84,1561.32c17.41-34.94,48.03-65.5,88.73-69.03c19.37-1.68,38.27,3.41,53.83,15.16
					c14.77,11.16,25.76,27.02,32.84,43.99c9.53,22.82,12.96,47.63,16.36,71.95c1.64-2.15,3.27-4.3,4.91-6.44
					c-62.7,1.31-125.4,2.62-188.1,3.92c-6.54,0.14-6.57,10.32,0,10.18c62.7-1.31,125.4-2.62,188.1-3.92
					c3.64-0.08,5.37-3.18,4.91-6.44c-5.98-42.77-14.08-89.32-49.31-118.44c-16.14-13.34-35.96-20.76-56.98-20.46
					c-21.13,0.3-42.05,7.6-59.2,19.85c-19.48,13.93-34.26,33.24-44.88,54.55C378.13,1562.03,386.91,1567.2,389.84,1561.32
					L389.84,1561.32z"/>
			</g>
		</g>
		<g>
			<g>
				<path d="M400.31,1615.5c59.34-1.9,118.68-3.8,178.02-5.69c6.54-0.21,6.57-10.39,0-10.18c-59.34,1.9-118.68,3.8-178.02,5.69
					C393.78,1605.53,393.75,1615.71,400.31,1615.5L400.31,1615.5z"/>
			</g>
		</g>
		<g>
			<g>
				<path d="M505.79,1559.69c15.99-12.07,31.99-24.14,47.98-36.22c5.17-3.9,0.1-12.74-5.14-8.79
					c-15.99,12.07-31.99,24.14-47.98,36.22C495.48,1554.79,500.55,1563.64,505.79,1559.69L505.79,1559.69z"/>
			</g>
		</g>
		<g>
			<g>
				<path d="M532.17,1573.99c10.98-9.83,22.48-19.05,33.46-28.88c4.89-4.38-2.33-11.56-7.2-7.2c-10.98,9.83-22.48,19.05-33.46,28.88
					C520.07,1571.17,527.3,1578.35,532.17,1573.99L532.17,1573.99z"/>
			</g>
		</g>
		<g>
			<g>
				<path d="M277.26,1555.55c22.45-2.41,45.08-2.79,67.53-5.19c6.45-0.69,6.52-10.88,0-10.18c-22.45,2.41-45.08,2.79-67.53,5.19
					C270.82,1546.06,270.75,1556.25,277.26,1555.55L277.26,1555.55z"/>
			</g>
		</g>
		<g>
			<g>
				<path d="M277.26,1575.48c22.46-2.88,45.07-4.56,67.53-7.44c6.41-0.82,6.49-11.01,0-10.18c-22.46,2.88-45.07,4.56-67.53,7.44
					C270.85,1566.12,270.77,1576.31,277.26,1575.48L277.26,1575.48z"/>
			</g>
		</g>
		<g>
			<g>
				<path d="M310.1,1274c2.14,79.4,4.29,158.8,6.43,238.2c0.18,6.54,10.36,6.57,10.18,0c-2.14-79.4-4.29-158.8-6.43-238.2
					C320.1,1267.46,309.92,1267.43,310.1,1274L310.1,1274z"/>
			</g>
		</g>
		<g>
			<g>
				<path d="M471.49,1258.71c3.76,74.03,4.16,148.19,7.92,222.22c0.33,6.52,10.52,6.56,10.18,0c-3.76-74.03-4.16-148.19-7.92-222.22
					C481.34,1252.19,471.15,1252.15,471.49,1258.71L471.49,1258.71z"/>
			</g>
		</g>
		<g>
			<g>
				<path d="M279.17,695c51.23,24.96,112.23,28.31,166.2,10.18c15.36-5.16,30.11-12.05,43.85-20.63c-2.55-1.47-5.11-2.93-7.66-4.4
					c1.8,21.94,3.24,44.71-2.15,66.27c-5.69,22.74-20.1,40.62-42.04,49.53c-44.17,17.94-100.65,3.87-129.42-34.55
					c-14.92-19.93-23.75-45.2-21.56-70.22c0.57-6.53-9.61-6.49-10.18,0c-2.16,24.66,5.86,49.95,19.45,70.39
					c14.05,21.13,34.44,36.46,58.34,44.88c47.1,16.59,110.97,5.69,131.3-45.13c10.21-25.52,8.64-54.34,6.44-81.17
					c-0.3-3.66-4.15-6.59-7.66-4.4c-46.02,28.71-103.54,37.48-156.33,25.6c-15.01-3.38-29.6-8.41-43.44-15.15
					C278.45,683.35,273.28,692.13,279.17,695L279.17,695z"/>
			</g>
		</g>
		<ellipse class="st3" cx="345.68" cy="614.97" rx="12.01" ry="32.75"/>
		<ellipse class="st3" cx="345.68" cy="614.97" rx="12.01" ry="32.75"/>
		<ellipse class="st3" cx="345.68" cy="614.97" rx="12.01" ry="32.75"/>
		<ellipse class="st3" cx="345.68" cy="614.97" rx="12.01" ry="32.75"/>
		<ellipse class="st3" cx="345.68" cy="614.97" rx="12.01" ry="32.75"/>
		<ellipse class="st3" cx="400.82" cy="614.97" rx="12.01" ry="32.75"/>
		<g>
			<path d="M284.95,700.35c6.51,33.42,25.15,70.33,53.26,91.35c1.51-12.51,11.18-30,23.13-35.46s26.82-4.68,38.05,2
				c18.08-22.1,60.57-23.33,83.71-6c1.95-20.56-0.88-44.26,1.07-64.82c-59.83,29.97-134.2,32.28-195.96,6.07"/>
			<g>
				<path d="M280.04,701.7c7.23,36.19,25.87,71.81,55.6,94.39c2.42,1.84,7.06,0.01,7.48-3.04c1.53-11.02,7.37-23.05,16.43-29.84
					c10.52-7.89,26.32-6.78,37.27-0.58c1.83,1.04,4.72,0.92,6.17-0.8c18.23-21.59,55.88-21,77.54-5.2c3.42,2.49,7.36-0.97,7.66-4.4
					c1.91-21.57-0.83-43.25,1.07-64.82c0.37-4.14-4.52-5.96-7.66-4.4c-59.35,29.44-131.05,31.16-192.03,5.56
					c-6.03-2.53-8.67,7.32-2.71,9.82c63.52,26.66,138.23,24,199.88-6.59c-2.55-1.47-5.11-2.93-7.66-4.4
					c-1.91,21.57,0.83,43.25-1.07,64.82c2.55-1.47,5.11-2.93,7.66-4.4c-25.07-18.29-68.94-18.01-89.88,6.79
					c2.06-0.27,4.11-0.53,6.17-0.8c-13.73-7.78-32.86-9.11-46.49-0.16c-11.87,7.79-20.24,22.75-22.17,36.66
					c2.49-1.01,4.99-2.03,7.48-3.04c-27.54-20.92-44.26-54.97-50.92-88.31C288.58,692.57,278.76,695.29,280.04,701.7L280.04,701.7z"
					/>
			</g>
		</g>
		<g>
			<path class="st4" d="M345.68,789.06c0.14-12.69,7.3-22.01,19.36-27.47c12.06-5.46,27.32-3.82,37.78,4.07
				c17.58-19.6,50.77-24.47,73.76-10.83c-26.26,49.8-81.22,54.3-129.54,33.88"/>
			<g>
				<path class="st4" d="M350.77,789.06c0.78-24.7,31.96-31.59,49.48-19.01c1.75,1.26,4.75,0.75,6.17-0.8
					c16.82-18.23,46.16-22.36,67.59-10.03c-0.61-2.32-1.22-4.64-1.83-6.97c-11.45,21.34-30.18,36.25-54.07,41.06
					c-23.46,4.72-47.96-0.43-69.72-9.51c-6.04-2.52-8.68,7.33-2.71,9.82c23.9,9.98,50.75,14.78,76.36,9.26
					c25.78-5.56,46.54-22.42,58.92-45.48c1.29-2.41,0.63-5.55-1.83-6.97c-25.23-14.52-60.04-9.94-79.93,11.62
					c2.06-0.27,4.11-0.53,6.17-0.8c-24.21-17.39-63.79-4.16-64.8,27.8C340.38,795.62,350.56,795.61,350.77,789.06L350.77,789.06z"/>
			</g>
		</g>
		<ellipse class="st5" cx="405.19" cy="590.57" rx="3" ry="2.85"/>
		<ellipse class="st6" cx="404.51" cy="592.18" rx="3.68" ry="4.47"/>
		<ellipse class="st7" cx="349.36" cy="594.07" rx="3.68" ry="4.96"/>
		<g class="st8">
			<path d="M306.84,464.96C246.28,508.18,187.9,600.93,201.1,671.79s70.84,132.56,143.34,153.42s156.49-0.1,208.85-52.1
				c-46.21,66.67-138.42,100.78-220.22,82.56c-81.8-18.22-148.1-86.91-161.42-165.72s29.21-176.78,125.68-222.26"/>
			<g>
				<path d="M304.28,460.57c-37.54,26.98-68.12,64.96-88.33,106.41c-9.99,20.48-17.54,42.27-20.52,64.92
					c-2.83,21.5-0.32,42.55,6.33,63.14c13.82,42.82,42.83,79.87,79.56,105.54c38.55,26.94,85.39,39.84,132.29,37.4
					c52.99-2.76,105.3-23.84,143.29-61.27c-2.67-2.06-5.33-4.11-8-6.17c-29.1,41.63-75.46,69.1-124.63,79.88
					c-50.43,11.05-103.35,3.48-148.05-22.55c-42.72-24.88-77.2-64.97-92.86-112.1c-13.97-42.02-10.76-87.21,5.63-128.07
					c17.97-44.8,51.71-82.37,93.38-106.44c5.72-3.3,11.58-6.34,17.54-9.17c5.92-2.81,0.75-11.59-5.14-8.79
					c-46.63,22.17-85.67,59.22-108.5,105.7c-20.16,41.04-27.79,88.47-17.3,133.3c11.84,50.62,44.57,95.05,86.89,124.63
					c44.38,31.03,98.79,43.84,152.37,36.6c52.33-7.07,103.34-32.25,137.82-72.74c4.13-4.85,8-9.9,11.65-15.12
					c3.38-4.83-3.97-10.13-8-6.17C485.3,832.94,379.32,846.6,301.2,801.2c-36.97-21.48-67.41-54.73-84.18-94.19
					c-7.96-18.73-13.17-39.03-12.68-59.48c0.51-21.15,6.15-41.99,14.12-61.48c18.57-45.42,51.01-87.99,90.95-116.69
					C314.69,465.57,309.61,456.73,304.28,460.57L304.28,460.57z"/>
			</g>
		</g>
		<g class="st8">
			<path d="M288.66,852.63c7.04,59.02-6.92,118.3-9.89,177.63s7.81,124.31,53.42,164.94c32.92,29.33,79.64,41.41,124.77,41.56
				s89.45-10.49,133.1-21.4c-1.16,14.68-13.83,26.7-28.18,32.24c-14.36,5.53-30.26,5.84-45.76,6.06
				c-70.37,1.02-140.73,2.04-211.1,3.06c-31.19,0.45-70.56,16.02-87.73-8.72c-11.51-16.59-7.35-55.85-5.04-75.6
				c12.85-109.77,39.06-218.13,77.94-322.22"/>
			<g>
				<path d="M283.56,852.63c9.9,85.83-22.94,171.4-4.11,256.85c7.77,35.26,24.6,69.1,52.75,92.43
					c29.92,24.79,68.49,36.36,106.76,39.24c51.59,3.88,102.77-8.48,152.44-20.88c-2.15-1.64-4.3-3.27-6.44-4.91
					c-1.2,11.51-10.43,20.3-20.21,25.38c-11.54,6-25.09,7.14-37.87,7.59c-29.12,1.02-58.31,0.92-87.44,1.34
					c-29.54,0.43-59.08,0.86-88.62,1.28c-14.6,0.21-29.21,0.41-43.81,0.64c-11.03,0.17-21.89,1.73-32.8,3.2
					c-16.57,2.23-41.16,6.71-52.52-9.38c-4.87-6.9-6.05-16.24-6.64-24.44c-0.76-10.46-0.3-20.99,0.55-31.43
					c4.27-52.36,13.94-104.73,25.4-155.94c13.84-61.85,31.98-122.7,54.11-182.09c2.29-6.15-7.55-8.8-9.82-2.71
					c-21.03,56.42-38.46,114.16-52.01,172.83c-12.54,54.3-22.72,109.79-27.65,165.35c-1.71,19.22-3.64,42.21,5.23,60.08
					c9.45,19.04,31.76,21.12,50.55,19.41c10.92-0.99,21.73-2.96,32.64-4.01c14.18-1.37,28.6-0.92,42.83-1.13
					c31.2-0.45,62.4-0.9,93.6-1.36c17.26-0.25,34.52-0.5,51.78-0.75c17.23-0.25,34.6,0.09,51.8-1.08
					c25.97-1.77,57.94-12.69,61.08-42.8c0.36-3.41-3.53-5.64-6.44-4.91c-77.65,19.38-170.35,40.02-241.47-9.8
					c-62.23-43.58-67.86-126.54-61.54-195.55c4.64-50.69,13.95-101.48,8.07-152.48C293.01,846.19,282.81,846.12,283.56,852.63
					L283.56,852.63z"/>
			</g>
		</g>
		<g class="st8">
			<path d="M161.24,1081.51c5.38,15.99,25.63,25.86,42.45,20.69c-11.16,12.6-22.32,25.2-33.48,37.8
				c-12.13-14.89-16.83-35.02-12.46-53.38"/>
			<g>
				<path d="M156.33,1082.86c7.02,19.29,29.12,29.79,48.71,24.25c-1.65-2.84-3.3-5.67-4.95-8.51c-11.16,12.6-22.32,25.2-33.48,37.8
					c2.4,0,4.8,0,7.2,0c-10.77-13.57-14.93-31.54-11.15-48.43c1.43-6.38-8.39-9.11-9.82-2.71c-4.64,20.75,0.62,41.76,13.77,58.34
					c1.64,2.07,5.53,1.88,7.2,0c11.16-12.6,22.32-25.2,33.48-37.8c3.25-3.67,0.17-9.96-4.95-8.51
					c-13.93,3.95-31.05-3.03-36.18-17.14C163.93,1074.05,154.08,1076.69,156.33,1082.86L156.33,1082.86z"/>
			</g>
		</g>
		<g class="st8">
			<path d="M613.08,1054.8c-4.99,24.81-2.62,50.93,6.77,74.56c-18.06-20.83-36.12-41.66-54.18-62.49
				c10.7-14.52,32.24-20.8,49.68-14.5"/>
			<g>
				<path d="M608.17,1053.45c-5.03,25.93-2.82,52.63,6.77,77.27c2.84-1.65,5.67-3.3,8.51-4.95c-18.06-20.83-36.12-41.66-54.18-62.49
					c0.27,2.06,0.53,4.11,0.8,6.17c10.05-13.1,28.69-17.36,43.93-12.16c6.22,2.12,8.88-7.71,2.71-9.82
					c-19.96-6.81-42.65,0.19-55.43,16.84c-1.43,1.86-0.56,4.61,0.8,6.17c18.06,20.83,36.12,41.66,54.18,62.49
					c3.23,3.72,10.35-0.22,8.51-4.95c-8.92-22.91-11.46-47.68-6.77-71.85C619.23,1049.75,609.42,1047.01,608.17,1053.45
					L608.17,1053.45z"/>
			</g>
		</g>
		<g class="st8">
			<path d="M306.84,1518.14c-37.81,29.83-51.18,84.43-31.1,127.05c-11.79,1.77-23.57,3.55-35.36,5.32
				c-12.55-50.27,12.7-106.95,59.42-133.4"/>
			<g>
				<path d="M303.24,1514.54c-39.05,31.27-52.91,87.73-31.9,133.22c1.01-2.49,2.03-4.99,3.04-7.48
					c-11.79,1.77-23.57,3.55-35.36,5.32c2.09,1.19,4.18,2.37,6.26,3.56c-12.01-49.52,13.47-102.6,57.08-127.65
					c5.68-3.26,0.56-12.06-5.14-8.79c-47.62,27.35-74.83,85.23-61.76,139.15c0.7,2.9,3.61,3.96,6.26,3.56
					c11.79-1.77,23.57-3.55,35.36-5.32c3.55-0.53,4.26-4.85,3.04-7.48c-19.21-41.59-4.94-92.66,30.3-120.88
					C315.56,1517.64,308.31,1510.48,303.24,1514.54L303.24,1514.54z"/>
			</g>
		</g>
		<g class="st8">
			<path d="M477.09,1488.36c-40.13,29.43-57.76,83.77-42.01,129.55c-9.62,0.77-19.23,1.54-28.85,2.32
				c-14.01-24.16-14.95-54.75-2.45-79.64c12.5-24.89,38.12-43.45,66.7-48.31"/>
			<g>
				<path d="M474.52,1483.96c-41.12,30.57-60.89,86.12-44.35,135.3c1.64-2.15,3.27-4.3,4.91-6.44c-9.62,0.77-19.23,1.54-28.85,2.32
					c1.47,0.84,2.93,1.68,4.4,2.52c-13.73-24.24-14.13-54.83,0-79.01c12.98-22.22,36.11-36.97,61.21-41.46
					c6.44-1.15,3.71-10.97-2.71-9.82c-28.03,5.01-54.01,22.41-68.02,47.41c-15.22,27.15-14.54,61.07,0.73,88.02
					c0.83,1.46,2.67,2.66,4.4,2.52c9.62-0.77,19.23-1.54,28.85-2.32c3.09-0.25,6.04-3.08,4.91-6.44
					c-14.98-44.56,2.09-95.87,39.67-123.8C484.86,1488.89,479.78,1480.05,474.52,1483.96L474.52,1483.96z"/>
			</g>
		</g>
	</g>
</g>
<g id="Ebene_15">
	<g>
		<g id="Ebene_3_Kopie">
			<g class="st8">
				<path d="M789.85,719.46c-3.45,63.49-19.06,126.25-46.11,185.32c86.22-33.32,163.86-80.71,227.16-138.65"/>
				<g>
					<path d="M786.35,721.03c-2.72,49.21-12.76,97.84-29.58,144.33c-4.77,13.19-10.14,26.18-15.98,38.96
						c-1.01,2.22-0.42,5.4,2.77,4.17c33.53-12.98,66.11-28.17,97.35-45.6c30.57-17.05,59.89-36.15,87.48-57.34
						c15.24-11.71,29.95-24.05,44.08-36.97c1.3-1.19,2.72-3.97,1.57-5.64c-1.25-1.79-3.58-0.27-4.7,0.75
						c-24.82,22.69-51.55,43.44-79.71,62.23c-28.75,19.19-58.99,36.28-90.36,51.29c-18.1,8.66-36.58,16.61-55.34,23.87
						c0.92,1.39,1.85,2.78,2.77,4.17c21.09-46.18,35.54-95.03,42.55-145.06c1.97-14.04,3.33-28.14,4.11-42.29
						c0.11-1.97-1.51-2.84-3.32-2.13C788.03,716.55,786.47,718.99,786.35,721.03L786.35,721.03z"/>
				</g>
			</g>
			<g class="st8">
				<path d="M939.71,790.81c84,6.67,169.8,0.9,249.49-24.81s153.09-72.18,202.44-137.25s72.99-149.33,56.57-228.52
					c-17.44-84.08-78.86-156.95-156.48-199.98s-169.9-57.9-259.11-51.91c-100.39,6.75-200.18,40.25-275.83,103.42
					S631.93,409.17,635.11,505.51s62.88,191.81,154.79,231.68"/>
				<g>
					<path d="M938.05,794.31c81.62,6.41,165.06,1.36,243.21-22.62c67.38-20.67,130.46-55.54,179.76-104.36
						c51.3-50.82,85.86-116.93,93.77-187.65c3.85-34.46,1.07-69.64-9.02-103.04c-9.26-30.67-24.32-59.66-43.62-85.7
						c-41.15-55.52-100.2-96.44-166.45-120.25c-73.14-26.28-153.37-32.32-230.37-23.24c-72.23,8.52-143.06,31.08-204.13,69.04
						c-60.64,37.68-110.08,91.08-139.82,154.37c-28.5,60.64-37.98,129.64-20.59,194.71c16.04,60,53.09,115.64,105.89,152.09
						c12.84,8.86,26.56,16.49,40.96,22.78c3.16,1.38,7.48-5.26,4.56-6.53c-58.24-25.44-103.39-72.97-129.34-128.53
						c-27.62-59.15-31.53-125.36-13.75-187.42c18.68-65.21,59.49-124.1,113.3-167.52c54.78-44.2,121.75-73.12,191.57-87.89
						c72.98-15.45,150.22-16.56,223.41-0.59c70.1,15.31,136.02,47.43,186.55,97.02c46.76,45.88,78.99,105.51,85.25,169.59
						c6.86,70.23-16.43,141.69-59.2,198.33c-40.72,53.93-98.43,94.76-161.77,121.45c-71.76,30.24-150.96,42.05-229.19,41.49
						c-19.24-0.14-38.48-1.02-57.66-2.54C938.17,787.06,934.52,794.04,938.05,794.31L938.05,794.31z"/>
				</g>
			</g>
			<g class="st8">
				<path class="st9" d="M1030.39,455.3c8.21-44.65-23.62-92.28-68.78-106.35c-45.16-14.07-98.26,5.08-124.52,42.71
					c-26.26,37.63-25.27,90.25,0.06,128.75c20.79,31.6,54.8,52.76,88.17,72.11c47.52,27.57,95.99,53.6,145.3,78.07
					c6.07,3.01,12.65,6.09,19.41,5.2c8.59-1.14,14.71-8.25,19.94-14.84c39.62-49.88,79.23-99.77,118.85-149.66
					c20.93-26.36,42.64-54.55,46.04-87.57c2.87-27.88-8.33-56.35-27.71-77.46c-32.95-35.92-89.89-49.57-136.35-32.68
					c-46.46,16.89-79.31,63.18-78.66,110.85"/>
				<g>
					<path d="M1033.31,454.8c7.25-40.53-16.03-82.95-53.59-102.56c-38.14-19.9-86.14-12.28-119.53,12.45
						c-36.33,26.89-51.47,72.38-43.26,115.22c4.23,22.08,14.72,42.41,29.96,59.47c15.91,17.8,35.7,31.89,56.16,44.51
						c23.04,14.23,46.83,27.42,70.59,40.48c25.01,13.75,50.28,27.09,75.77,40c6.6,3.34,13.19,6.69,19.84,9.94
						c5.86,2.87,12.1,5.59,18.83,5.07c12.12-0.93,19.92-12.04,26.59-20.44c17.83-22.45,35.66-44.9,53.48-67.35
						s35.66-44.9,53.48-67.35c16.08-20.25,33.07-40.33,44.58-63.43c10.7-21.48,15.16-45.16,9.69-68.68
						c-5.11-21.97-17.63-42.2-34.93-57.43c-32.18-28.35-80.72-39.12-122.38-26.85c-42.07,12.39-74.73,47.38-85.64,87.9
						c-2.64,9.79-3.96,19.91-3.86,30.04c0.04,4.67,6.16,0.29,6.13-2.75c-0.39-39.66,22.59-78.17,58.16-98.27
						c36.25-20.48,82.82-19.07,119.5,0.3c39.26,20.73,66.42,64.29,57.78,107.61c-4.59,23.04-17.82,43.27-31.95,61.97
						c-16.04,21.23-33.01,41.85-49.57,62.71c-17.06,21.48-34.11,42.96-51.17,64.43c-8.58,10.81-17.16,21.62-25.75,32.43
						c-6.27,7.9-13.46,19.56-25.55,18.06c-6.97-0.86-13.31-4.72-19.44-7.78c-6-2.99-11.98-6.01-17.96-9.06
						c-12.26-6.24-24.47-12.58-36.62-19.02c-24.3-12.88-48.38-26.14-72.22-39.78c-39.59-22.66-83.53-46.78-105.54-87.43
						c-19.87-36.68-19.33-84.35,5.83-118.39c23.24-31.44,66.64-48.3,106.35-41.47c40.42,6.94,73.08,40.02,80.2,78.46
						c1.71,9.24,1.87,18.76,0.21,28C1026.56,460.89,1032.71,458.17,1033.31,454.8L1033.31,454.8z"/>
				</g>
			</g>
			<g class="st8">
				<g>
					<path d="M1390.87,452.81c6.03,36.55,0.69,74.4-15.35,107.95c-0.6,1.25-0.91,3.5,0.93,3.9c1.82,0.41,3.62-1.79,4.24-3.09
						c16.8-35.15,22.51-74.76,16.19-113.07c-0.3-1.86-2.49-1.4-3.63-0.64C1391.71,448.91,1390.56,450.98,1390.87,452.81
						L1390.87,452.81z"/>
				</g>
			</g>
			<g class="st8">
				<g>
					<path d="M1361.97,602.37c-18.17,26.92-42.32,49.72-70.61,66.86c-3.02,1.82-3.29,8.33,1.24,5.58
						c29.42-17.82,54.59-41.8,73.48-69.79c0.77-1.14,1.79-3.58,0.23-4.59C1364.76,599.44,1362.72,601.26,1361.97,602.37
						L1361.97,602.37z"/>
				</g>
			</g>
			<g class="st8">
				<g>
					<path d="M709.85,441.33c3.54-35.95,16.53-70.85,37.45-100.8c5.98-8.57,12.6-16.69,19.8-24.34c1.07-1.13,2.43-3.42,1.37-4.94
						c-1.05-1.51-3.21-0.32-4.12,0.65c-26.68,28.34-45.79,63.05-55.12,100.22c-2.63,10.51-4.46,21.2-5.52,31.96
						c-0.17,1.74,1.38,2.47,2.91,1.87C708.44,445.23,709.68,443.12,709.85,441.33L709.85,441.33z"/>
				</g>
			</g>
		</g>
		<g id="Ebene_3">
			<g>
				<path class="st10" d="M825.17,684.99c-3.45,63.49-19.06,126.25-46.11,185.32c86.22-33.32,163.86-80.71,227.16-138.65"/>
				<g>
					<path d="M821.67,686.56c-2.72,49.21-12.76,97.84-29.58,144.33c-4.77,13.19-10.14,26.18-15.98,38.96
						c-1.01,2.22-0.42,5.4,2.77,4.17c33.53-12.98,66.11-28.17,97.35-45.6c30.57-17.05,59.89-36.15,87.48-57.34
						c15.24-11.71,29.95-24.05,44.08-36.97c1.3-1.19,2.72-3.97,1.57-5.64c-1.25-1.79-3.58-0.27-4.7,0.75
						c-24.82,22.69-51.55,43.44-79.71,62.23c-28.75,19.19-58.99,36.28-90.36,51.29c-18.1,8.66-36.58,16.61-55.34,23.87
						c0.92,1.39,1.85,2.78,2.77,4.17c21.09-46.18,35.54-95.03,42.55-145.06c1.97-14.04,3.33-28.14,4.11-42.29
						c0.11-1.97-1.51-2.84-3.32-2.13C823.35,682.08,821.79,684.53,821.67,686.56L821.67,686.56z"/>
				</g>
			</g>
			<g>
				<path class="st10" d="M975.03,756.35c84,6.67,169.8,0.9,249.49-24.81s153.09-72.18,202.44-137.25s72.99-149.33,56.57-228.52
					c-17.44-84.08-78.86-156.95-156.48-199.98s-169.9-57.9-259.11-51.91c-100.39,6.75-200.18,40.25-275.83,103.42
					S667.26,374.71,670.43,471.05c3.17,96.34,62.88,191.81,154.79,231.68"/>
				<g>
					<path d="M973.38,759.85c81.62,6.41,165.06,1.36,243.21-22.62c67.38-20.67,130.46-55.54,179.76-104.36
						c51.3-50.82,85.86-116.93,93.77-187.65c3.85-34.46,1.07-69.64-9.02-103.04c-9.26-30.67-24.32-59.66-43.62-85.7
						c-41.15-55.52-100.2-96.44-166.45-120.25c-73.14-26.28-153.37-32.32-230.37-23.24c-72.23,8.52-143.06,31.08-204.13,69.04
						c-60.64,37.68-110.08,91.08-139.82,154.37c-28.5,60.64-37.98,129.64-20.59,194.71c16.04,60,53.09,115.64,105.89,152.09
						c12.84,8.86,26.56,16.49,40.96,22.78c3.16,1.38,7.48-5.26,4.56-6.53c-58.24-25.44-103.39-72.97-129.34-128.53
						c-27.62-59.15-31.53-125.36-13.75-187.42c18.68-65.21,59.49-124.1,113.3-167.52c54.78-44.2,121.75-73.12,191.57-87.89
						c72.98-15.45,150.22-16.56,223.41-0.59c70.1,15.31,136.02,47.43,186.55,97.02c46.76,45.88,78.99,105.51,85.25,169.59
						c6.86,70.23-16.43,141.69-59.2,198.33c-40.72,53.93-98.43,94.76-161.77,121.45c-71.76,30.24-150.96,42.05-229.19,41.49
						c-19.24-0.14-38.48-1.02-57.66-2.54C973.49,752.6,969.85,759.57,973.38,759.85L973.38,759.85z"/>
				</g>
			</g>
			<g>
				<path class="st9" d="M1065.72,420.84c8.21-44.65-23.62-92.28-68.78-106.35c-45.16-14.07-98.26,5.08-124.52,42.71
					c-26.26,37.63-25.27,90.25,0.06,128.75c20.79,31.6,54.8,52.76,88.17,72.11c47.52,27.57,95.99,53.6,145.3,78.07
					c6.07,3.01,12.66,6.09,19.41,5.2c8.59-1.14,14.71-8.25,19.94-14.84c39.62-49.88,79.23-99.77,118.85-149.66
					c20.93-26.36,42.64-54.55,46.04-87.57c2.87-27.88-8.33-56.35-27.71-77.46c-32.95-35.92-89.89-49.57-136.35-32.68
					c-46.46,16.89-79.31,63.18-78.66,110.85"/>
				<g>
					<path d="M1068.64,420.33c7.25-40.53-16.03-82.95-53.59-102.56c-38.14-19.9-86.14-12.28-119.53,12.45
						c-36.33,26.89-51.47,72.38-43.26,115.22c4.23,22.08,14.72,42.41,29.96,59.47c15.91,17.8,35.7,31.89,56.16,44.51
						c23.04,14.23,46.83,27.42,70.59,40.48c25.01,13.75,50.28,27.09,75.77,40c6.6,3.34,13.19,6.69,19.84,9.94
						c5.86,2.87,12.1,5.59,18.83,5.07c12.12-0.93,19.92-12.04,26.59-20.44c17.83-22.45,35.66-44.9,53.48-67.35
						s35.66-44.9,53.48-67.35c16.08-20.25,33.07-40.33,44.58-63.43c10.7-21.48,15.16-45.16,9.69-68.68
						c-5.11-21.97-17.63-42.2-34.93-57.43c-32.18-28.35-80.72-39.12-122.38-26.85c-42.07,12.39-74.73,47.38-85.64,87.9
						c-2.64,9.79-3.96,19.91-3.86,30.04c0.04,4.67,6.16,0.29,6.13-2.75c-0.39-39.66,22.59-78.17,58.16-98.27
						c36.25-20.48,82.82-19.07,119.5,0.3c39.26,20.73,66.42,64.29,57.78,107.61c-4.59,23.04-17.82,43.27-31.95,61.97
						c-16.04,21.23-33.01,41.85-49.57,62.71c-17.06,21.48-34.11,42.96-51.17,64.43c-8.58,10.81-17.16,21.62-25.75,32.43
						c-6.27,7.9-13.46,19.56-25.55,18.06c-6.97-0.86-13.31-4.72-19.44-7.78c-6-2.99-11.98-6.01-17.96-9.06
						c-12.26-6.24-24.47-12.58-36.62-19.02c-24.3-12.88-48.38-26.14-72.22-39.78c-39.59-22.66-83.53-46.78-105.54-87.43
						c-19.87-36.68-19.33-84.35,5.83-118.39c23.24-31.44,66.64-48.3,106.35-41.47c40.42,6.94,73.08,40.02,80.2,78.46
						c1.71,9.24,1.87,18.76,0.21,28C1061.88,426.42,1068.04,423.71,1068.64,420.33L1068.64,420.33z"/>
				</g>
			</g>
			<g>
				<g>
					<path d="M1426.19,418.34c6.03,36.55,0.69,74.4-15.35,107.95c-0.6,1.25-0.91,3.5,0.93,3.9c1.82,0.41,3.62-1.79,4.24-3.09
						c16.8-35.15,22.51-74.76,16.19-113.07c-0.3-1.86-2.49-1.4-3.63-0.64C1427.03,414.44,1425.88,416.51,1426.19,418.34
						L1426.19,418.34z"/>
				</g>
			</g>
			<g>
				<g>
					<path d="M1397.29,567.9c-18.17,26.92-42.32,49.72-70.61,66.86c-3.02,1.82-3.29,8.33,1.24,5.58
						c29.42-17.82,54.59-41.8,73.48-69.79c0.77-1.14,1.79-3.58,0.23-4.59C1400.09,564.97,1398.04,566.8,1397.29,567.9L1397.29,567.9
						z"/>
				</g>
			</g>
			<g>
				<g>
					<path d="M745.17,406.86c3.54-35.95,16.53-70.85,37.45-100.8c5.98-8.57,12.6-16.69,19.8-24.34c1.07-1.13,2.43-3.42,1.37-4.94
						c-1.05-1.51-3.21-0.32-4.12,0.65c-26.68,28.34-45.79,63.05-55.12,100.22c-2.63,10.51-4.46,21.2-5.52,31.96
						c-0.17,1.74,1.38,2.47,2.91,1.87C743.76,410.76,745,408.66,745.17,406.86L745.17,406.86z"/>
				</g>
			</g>
			<g>
				<path class="st9" d="M1544.72,146.6c7.45-5.77,9.93-16.67,5.69-24.95c-4.25-8.28-14.79-13.11-24.15-11.07
					c-11.18,2.45-18.53,13.25-20.42,24.08c-1.89,10.84,0.47,21.9,2.17,32.78c1.69,10.88,2.64,22.4-1.84,32.5
					c24.38-10.15,47.51-23.02,68.78-38.27c7.98-5.73,16.56-14.09,13.98-23.36c-2.28-8.16-12.8-12.08-21.43-10.44
					c-8.64,1.65-15.74,7.27-22.45,12.71"/>
				<g>
					<path d="M1545.35,149.39c8.16-6.59,12.56-17.82,8.97-27.83c-3.25-9.05-12.76-15.08-22.67-14.94
						c-10.88,0.16-19.47,7.76-24.39,16.46c-5.83,10.31-5.78,22.21-4.28,33.59c1.85,13.97,6.41,29.24,0.59,42.86
						c-0.8,1.88-0.41,4.84,2.43,3.65c22.99-9.61,44.9-21.57,65.2-35.65c9.03-6.26,20.02-14.22,21.17-25.78
						c0.93-9.46-6.92-16.3-16.21-17.54c-12.36-1.65-22.96,6.47-31.75,13.59c-1.37,1.11-2.9,3.09-2.38,4.94
						c0.47,1.71,2.42,1.62,3.63,0.64c6.84-5.53,14.83-12.32,24.36-12.37c7.45-0.04,16.71,4.51,16.29,12.7
						c-0.24,4.6-3.84,8.37-7.16,11.36c-3.78,3.39-8.16,6.22-12.39,9.08c-8.86,5.99-18.01,11.59-27.44,16.74
						c-10.7,5.83-21.72,11.1-33,15.81c0.81,1.22,1.62,2.44,2.43,3.65c4.27-10.02,4.2-20.7,2.8-31.31
						c-1.46-11.05-4.33-22.11-3.01-33.29c0.91-7.68,4.66-15.94,11.96-19.88c7.69-4.15,17.51-2.14,23.64,3.78
						c6.6,6.38,7.41,18.12-0.05,24.15c-1.37,1.11-2.9,3.09-2.38,4.94C1542.19,150.46,1544.13,150.37,1545.35,149.39L1545.35,149.39z
						"/>
				</g>
			</g>
			<g>
				<path class="st11" d="M1559.8,275.92c-3.08,16.64-15.19,31.46-31.31,38.31c7.64-2.65,16.63-1.5,23.31,2.99
					c6.68,4.5,10.88,12.21,10.88,20.01c2.36-15.53,15.31-29.02,31.26-32.57c-16.46,2.45-33.44-11.81-33.06-27.77"/>
				<g>
					<path d="M1556.87,276.43c-2.95,15.26-13.46,28.15-28.22,34.55c-2.75,1.19-5.06,8.04-0.32,6.49
						c14.82-4.86,31.02,6.18,31.28,21.13c0.08,4.46,5.58,0.66,6-1.88c2.27-13.9,13.1-25.24,27.4-28.58
						c1.89-0.44,3.42-2.21,3.86-3.99c0.36-1.44-0.07-3.24-1.99-2.98c-15.22,2.03-31.04-10.8-30.93-25.65
						c0.01-1.71-1.27-2.52-2.91-1.87c-1.69,0.66-3.21,2.86-3.23,4.62c-0.13,17.43,17.04,32.3,35.2,29.88
						c0.62-2.33,1.24-4.65,1.87-6.97c-17.86,4.17-32.28,19.13-35.12,36.56c2-0.63,4-1.25,6-1.88c-0.15-8.32-3.96-16.35-11-21.44
						c-7.52-5.43-17.39-6.29-26.1-3.43c-0.11,2.16-0.21,4.33-0.32,6.49c17.64-7.65,30.86-23.79,34.4-42.06
						C1563.71,270.35,1557.53,273.07,1556.87,276.43L1556.87,276.43z"/>
				</g>
			</g>
			<path class="st12" d="M1573.82,666.01l6.77,25.48c0.29,1.09,1.29,1.89,2.46,1.97l27.34,1.84c2.63,0.18,3.51,3.47,1.28,4.8
				l-23.16,13.92c-0.99,0.6-1.47,1.74-1.18,2.84l6.77,25.49c0.65,2.45-2.35,4.24-4.37,2.62l-21.07-16.88
				c-0.91-0.73-2.19-0.82-3.19-0.21l-23.14,13.91c-2.22,1.34-4.95-0.84-3.98-3.18l10.13-24.36c0.43-1.04,0.12-2.24-0.79-2.97
				l-21.09-16.9c-2.03-1.62-0.71-4.76,1.91-4.59l27.34,1.84c1.18,0.08,2.27-0.57,2.7-1.62l10.12-24.35
				C1569.63,663.32,1573.17,663.56,1573.82,666.01z"/>
			<path class="st12" d="M926.16,20.91l6.77,25.48c0.29,1.09,1.29,1.89,2.46,1.97l27.34,1.84c2.63,0.18,3.51,3.47,1.28,4.8
				l-23.16,13.92c-0.99,0.6-1.47,1.74-1.18,2.84l6.77,25.49c0.65,2.45-2.35,4.24-4.37,2.62l-21.07-16.88
				c-0.91-0.73-2.19-0.82-3.19-0.21l-23.14,13.91c-2.22,1.34-4.95-0.84-3.98-3.18l10.13-24.36c0.43-1.04,0.12-2.24-0.79-2.97
				l-21.09-16.9c-2.03-1.62-0.71-4.76,1.91-4.59l27.34,1.84c1.18,0.08,2.27-0.57,2.7-1.62L921,20.56
				C921.97,18.22,925.51,18.46,926.16,20.91z"/>
			<path class="st12" d="M638.15,622.6l6.77,25.48c0.29,1.09,1.29,1.89,2.46,1.97l27.34,1.84c2.63,0.18,3.51,3.47,1.28,4.8
				l-23.16,13.92c-0.99,0.6-1.47,1.74-1.18,2.84l6.77,25.49c0.65,2.45-2.35,4.24-4.37,2.62l-21.07-16.88
				c-0.91-0.73-2.19-0.82-3.19-0.21l-23.14,13.91c-2.22,1.34-4.95-0.84-3.98-3.18l10.13-24.36c0.43-1.04,0.12-2.24-0.79-2.97
				l-21.09-16.9c-2.03-1.62-0.71-4.76,1.91-4.59l27.34,1.84c1.18,0.08,2.27-0.57,2.7-1.62l10.12-24.35
				C633.96,619.91,637.5,620.15,638.15,622.6z"/>
			<g>
				<path class="st13" d="M1387.83,849.44c-1.1-10.95-11.39-20.41-22.86-21.02s-22.68,7.71-24.91,18.47
					c-2.35,11.36,4.67,23.01,14.28,30.12c9.61,7.11,21.47,10.67,32.95,14.44c11.48,3.77,23.21,8.1,31.84,16.28
					c4.84-21.77,9.68-43.55,14.53-65.32c2.3-10.35,3.94-22.86-4.28-30.01c-8.48-7.38-22.96-3.66-30.21,4.77
					c-7.24,8.42-9.17,19.82-10.83,30.64"/>
				<g>
					<path d="M1390.83,847.28c-1.27-10.65-10.17-19.91-21.19-22c-11.44-2.17-23.12,4.31-28.93,13.54
						c-6.55,10.42-4.79,23.06,2.54,32.76c7.95,10.52,20.42,15.95,32.82,20.21c14.3,4.9,29.54,8.78,40.76,19.2
						c1.92,1.79,4.91-2.44,5.21-3.77c3.03-13.61,6.06-27.22,9.08-40.83c1.55-6.97,3.1-13.95,4.65-20.92
						c1.17-5.24,2.38-10.49,2.72-15.85c0.58-9.21-2-19.72-11.94-23.44c-9.49-3.55-20.49,0.75-27.29,7.29
						c-9.72,9.35-12.06,23.21-13.99,35.71c-0.27,1.76,1.44,2.44,2.91,1.87c1.89-0.75,2.95-2.8,3.23-4.62
						c1.44-9.35,2.88-20.25,9.61-27.65c5.21-5.73,15.08-8.92,22.56-5.41c8.54,4.01,9.46,13.62,8.56,21.62
						c-0.58,5.09-1.89,10.08-2.99,15.08c-1.29,5.78-2.57,11.57-3.86,17.35c-3.03,13.61-6.06,27.22-9.08,40.83
						c1.73-1.26,3.48-2.51,5.21-3.77c-17.73-16.49-44.64-16.35-64.02-30.17c-8.41-6-15.68-15.94-14.62-26.4
						c0.94-9.19,9.98-15.88,19.38-16c11.41-0.15,21.4,9.06,22.68,19.69c0.23,1.88,2.54,1.37,3.63,0.64
						C1390.05,851.15,1391.06,849.15,1390.83,847.28L1390.83,847.28z"/>
				</g>
			</g>
			<g>
				<path class="st14" d="M1223,815.75c-0.13,16.09-9.85,31.73-24.53,39.49c18.4-4.32,39.37,4.96,47.93,21.21
					c-6.22-16.52,1.04-36.66,16.54-45.9c-14.62,3.91-31.66-2.83-39.2-15.52"/>
				<g>
					<path d="M1219.93,817.12c-0.26,14.29-8.24,27.82-21.3,34.87c-1.6,0.87-2.91,2.39-3.16,4.18c-0.18,1.24,0.35,2.93,2.06,2.55
						c17.98-4.03,37.62,4.79,46.12,20.52c1.63,3.01,6.59-2.66,5.76-4.95c-5.48-15.05,0.04-32.35,14.16-40.96
						c1.29-0.79,2.43-2.67,2.45-4.16c0.01-1.13-0.71-2.47-2.14-2.11c-14.2,3.61-29.93-2.65-37.39-14.83
						c-1.82-2.98-7.13,2.93-5.49,5.59c8.14,13.3,25.52,20.15,41.01,16.21c0.1-2.09,0.21-4.19,0.31-6.28
						c-16.97,10.35-25.64,32.41-18.93,50.84c1.92-1.65,3.84-3.3,5.76-4.95c-9.14-16.91-30.49-26.22-49.75-21.9
						c-0.37,2.24-0.73,4.49-1.1,6.73c16.43-8.88,27.43-25.92,27.75-44.11c0.03-1.71-1.28-2.51-2.91-1.87
						C1221.45,813.18,1219.96,815.35,1219.93,817.12L1219.93,817.12z"/>
				</g>
			</g>
			<g>
				<path class="st15" d="M693.36,729.92c1.93,16.9-6.61,34.45-21.32,43.87c14.35-3.34,30.7,4.86,36.06,18.08
					c-0.22-14.93,8-29.68,21.06-37.77c-15.33,1.64-31.24-7.94-36.38-21.9"/>
				<g>
					<path d="M690.35,732.07c1.59,15.23-5.79,30.35-18.93,38.93c-1.28,0.84-2.43,2.64-2.44,4.16c-0.01,1.16,0.71,2.43,2.14,2.11
						c13.97-3.05,28.89,4.7,34.25,17.39c0.56,1.34,2.6,0.52,3.37-0.01c1.29-0.88,2.45-2.61,2.44-4.16
						c-0.07-13.58,6.8-26.13,18.62-33.61c1.7-1.08,4.28-6.65,0.31-6.28c-14.39,1.36-29.29-7.49-34.31-20.56
						c-1.47-3.84-7.08,1.52-6.02,4.31c5.77,15.04,21.8,24.8,38.46,23.23c0.1-2.09,0.21-4.19,0.31-6.28
						c-14.41,9.11-23.59,25.34-23.51,41.94c1.94-1.39,3.88-2.78,5.81-4.17c-5.88-13.93-22.7-22.09-37.88-18.77
						c-0.1,2.09-0.21,4.19-0.31,6.28c16.39-10.69,25.68-29.89,23.71-48.81c-0.2-1.89-2.56-1.36-3.63-0.64
						C691.12,728.22,690.16,730.21,690.35,732.07L690.35,732.07z"/>
				</g>
			</g>
			<g>
				<path class="st11" d="M669.81,111.42c2.37,15.78-2.99,32.42-14.21,44.12c15.89-8.71,38.22-4.53,49.64,9.29
					c-10.41-13-9.04-33.26,3.02-44.75c-13.93,3.29-29.66-1.52-39.09-11.96"/>
				<g>
					<path d="M666.81,113.57c2.02,14.31-2.48,29.12-12.58,39.83c-0.98,1.03-2.05,2.8-1.63,4.3c0.34,1.23,1.67,1.72,2.85,1.09
						c15.23-8.13,36-4.22,47.05,8.84c2.37,2.8,7.39-3.17,5.49-5.59c-9.09-11.65-9.19-29.23,1.64-39.81
						c1.15-1.13,3.09-6.42-0.44-5.63c-13.38,3-28.09-1.33-37.28-11.27c-2.51-2.72-7.57,3.35-5.49,5.59
						c10.15,10.97,26,15.99,40.91,12.65c-0.15-1.88-0.29-3.75-0.44-5.63c-13.21,12.9-15.97,34.85-4.39,49.68
						c1.83-1.87,3.66-3.73,5.49-5.59c-12.35-14.59-35.16-18.84-52.23-9.73c0.41,1.8,0.81,3.59,1.22,5.39
						c12.33-13.09,18.32-30.85,15.85-48.42c-0.26-1.87-2.52-1.39-3.63-0.64C667.62,109.69,666.54,111.73,666.81,113.57
						L666.81,113.57z"/>
				</g>
			</g>
		</g>
	</g>
</g>
</svg>
