<?xml version="1.0" encoding="utf-8"?>
<!-- Generator: Adobe Adobe Illustrator 24.2.0, SVG Export Plug-In . SVG Version: 6.00 Build 0)  -->
<svg version="1.1" xmlns="http://www.w3.org/2000/svg" xmlns:xlink="http://www.w3.org/1999/xlink" x="0px" y="0px"
	 viewBox="0 0 1700.79 1700.79" style="enable-background:new 0 0 1700.79 1700.79;" xml:space="preserve">
<style type="text/css">
	.st0{fill:#FFFFFF;}
	.st1{fill:#808D9C;}
	.st2{fill:#ADBECE;}
	.st3{fill:#D3E1EC;}
	.st4{fill:#CA5B7B;stroke:#CC5B7C;stroke-width:1.0618;stroke-miterlimit:10;}
	.st5{stroke:#000000;stroke-width:0.834;stroke-miterlimit:10;}
	.st6{fill:#FFFFFF;stroke:#FFFFFF;stroke-width:0.2278;stroke-miterlimit:10;}
	.st7{opacity:0.0902;}
</style>
<g id="Ebene_1">
	<g id="Ebene_9">
		<g>
			<path class="st0" d="M606.34,1540.9c15.53-8.01,34.17,0.94,48.73,10.59c42.68,28.29,80.19,64.36,110.13,105.9
				c-49.59-4.07-99.5-4.11-149.09-0.12c-4.01-38.21-8.02-76.43-12.02-114.64"/>
			<g>
				<path class="st0" d="M608.87,1545.22c15.27-7.32,32.59,3.18,45.1,11.53c13.84,9.24,27.11,19.33,39.73,30.18
					c25.14,21.61,47.75,46.13,67.18,72.98c1.44-2.51,2.88-5.02,4.32-7.52c-49.61-4.02-99.47-4.06-149.09-0.12
					c1.67,1.67,3.33,3.33,5,5c-4.01-38.21-8.02-76.43-12.02-114.64c-0.66-6.34-10.67-6.4-10,0c4.01,38.21,8.02,76.43,12.02,114.64
					c0.26,2.52,2.08,5.23,5,5c49.62-3.94,99.48-3.89,149.09,0.12c3.61,0.29,6.48-4.54,4.32-7.52
					c-21.29-29.41-46.04-56.19-73.96-79.42c-13.76-11.44-28.21-22.67-43.6-31.84c-14.58-8.68-31.88-14.83-48.14-7.03
					C598.02,1539.36,603.08,1547.99,608.87,1545.22L608.87,1545.22z"/>
			</g>
		</g>
		<g>
			<path class="st0" d="M369.35,1063.91c11.66-18.23,19.95-38.6,24.34-59.79c-17.06-7.86-39.72,0.4-47.73,17.4
				c-8,17,0.07,39.73,16.99,47.87"/>
			<g>
				<path class="st0" d="M373.67,1066.43c11.83-18.7,20.25-39.35,24.84-60.99c0.42-1.96-0.23-4.74-2.3-5.65
					c-19.65-8.56-45.06-0.71-54.57,19.19c-9.35,19.58-0.49,44.93,18.79,54.71c5.73,2.9,10.79-5.72,5.05-8.63
					c-14.34-7.28-21.99-26-15.2-41.03c6.64-14.69,26.15-22.02,40.88-15.6c-0.77-1.88-1.53-3.76-2.3-5.65
					c-4.43,20.87-12.43,40.57-23.83,58.6C361.58,1066.84,370.23,1071.87,373.67,1066.43L373.67,1066.43z"/>
			</g>
		</g>
	</g>
	<g>
		<path class="st0" d="M458.54,691.92c-23.2,131.76-48.29,269.81-71.49,401.58c-3.8,21.6-7.29,45.22,3.48,64.32
			c17,30.13,58.56,32.87,93.14,31.91c64.93-1.81,129.85-3.63,194.78-5.44c24.62-0.69,53.08-3.37,66.89-23.76
			c11.48-16.95,8.02-39.51,4.02-59.59c-28.08-141.1-60.15-281.41-96.14-420.7"/>
		<g>
			<path d="M453.72,690.59c-16.4,93.15-33.17,186.23-49.79,279.34c-4.13,23.16-8.26,46.32-12.37,69.48
				c-3.96,22.32-8.54,44.64-11.62,67.1c-2.66,19.33-2.96,40.37,8.38,57.23c8.97,13.32,23.06,21.46,38.26,25.81
				c16.24,4.64,33.48,5.5,50.28,5.32c23.14-0.25,46.29-1.24,69.42-1.88c24.18-0.68,48.36-1.35,72.54-2.03
				c23.16-0.65,46.41-0.71,69.54-2.08c16.4-0.97,34.15-3.29,48.08-12.72c15.99-10.82,22.23-28.75,21.67-47.51
				c-0.64-21.41-6.68-42.92-10.94-63.82c-4.86-23.82-9.82-47.61-14.91-71.38c-20.05-93.79-41.87-187.21-65.43-280.18
				c-2.91-11.46-5.84-22.92-8.8-34.37c-1.61-6.23-11.26-3.59-9.64,2.66c23.16,89.69,44.72,179.78,64.62,270.25
				c9.88,44.91,19.36,89.91,28.43,134.99c3.86,19.19,10.33,40.82,4.69,60.27c-5.01,17.27-20.44,25.72-37,29.24
				c-19.04,4.05-39.16,3.22-58.51,3.76c-23.19,0.65-46.38,1.3-69.56,1.94c-23.19,0.65-46.38,1.3-69.56,1.94
				c-18.97,0.53-38.08,1.75-57.04,0.26c-15.67-1.23-32.13-4.39-45.33-13.41c-15.37-10.49-21.07-27.89-20.78-45.9
				c0.35-21.4,5.79-42.93,9.5-63.92c3.92-22.15,7.86-44.29,11.8-66.43c15.95-89.47,32.07-178.9,47.9-268.39
				c1.94-10.97,3.88-21.94,5.81-32.91C464.47,686.96,454.83,684.26,453.72,690.59L453.72,690.59z"/>
		</g>
	</g>
	<g>
		<g>
			<path d="M445.24,688.39c-51.91,43.28-103.82,86.55-155.73,129.83c-11.29,9.41-23.89,18.29-33.6,29.4
				c-8.16,9.34-13.48,21.23-9.89,33.72c3.47,12.07,13.46,20.81,23.14,28.09c12.69,9.55,25.86,18.52,38.79,27.75
				c30.81,21.99,61.63,43.97,92.44,65.96c-0.6-2.28-1.2-4.56-1.79-6.84c-12.13,25.21-24.26,50.41-36.39,75.62
				c2.28-0.6,4.56-1.2,6.84-1.79c-16.31-11.91-39.14-35.66-20.28-55.45c13.24-13.89,36.23-17.09,53.51-9.8
				c5.92,2.5,8.51-7.18,2.66-9.64c-17.03-7.18-38.17-4.88-53.79,4.81c-15.52,9.63-23.88,27.11-16.95,44.8
				c5.63,14.36,17.64,25.03,29.8,33.91c2.06,1.51,5.76,0.46,6.84-1.79c12.13-25.21,24.26-50.41,36.39-75.62
				c1.25-2.61,0.56-5.16-1.79-6.84c-25.72-18.35-51.45-36.71-77.17-55.06c-12.86-9.18-25.72-18.35-38.59-27.53
				c-10.46-7.46-22.86-14.66-30.24-25.52c-7.58-11.16-4.46-22.75,4.05-32.27c9.44-10.57,21.47-19.14,32.32-28.18
				c24.55-20.47,49.1-40.93,73.65-61.4c27.62-23.02,55.23-46.05,82.85-69.07C457.26,691.33,450.15,684.29,445.24,688.39
				L445.24,688.39z"/>
		</g>
	</g>
	<g>
		<g>
			<path d="M494.51,1189.28c4.27,78.28,5.26,156.71,10.74,234.93c1.51,21.55,3.38,43.08,5.8,64.55c0.71,6.32,10.72,6.4,10,0
				c-8.78-78.02-10.58-156.63-13.62-235.02c-0.83-21.49-1.75-42.98-2.92-64.46C504.16,1182.88,494.15,1182.84,494.51,1189.28
				L494.51,1189.28z"/>
		</g>
	</g>
	<g>
		<path class="st0" d="M637.22,200.81c-104.13-41.26-233.58-5.23-301.61,83.76s-68.93,223.17-2.29,313.21
			s195.03,128.42,300.22,89.95c105.2-38.46,178.52-150.42,171.99-262.24S713.3,211.11,604.49,184.56"/>
		<g>
			<path d="M638.55,195.99c-51.2-20.11-108.42-22.01-161.51-8.43c-52.92,13.54-102.46,42.72-137.84,84.61
				c-36.94,43.75-57.07,99.79-59.9,156.74c-2.83,56.96,11.69,115.43,43.7,162.9c30.84,45.75,76.87,79.63,128.45,98.56
				c51.37,18.85,108.64,22.8,161.73,8.95c54.18-14.13,102.23-47.38,136.91-91.07c34.79-43.83,56.88-97.73,60.37-153.76
				c3.45-55.33-12.78-110.68-42.87-156.99c-29.82-45.9-72.93-83.47-123.42-104.92c-12.44-5.29-25.23-9.6-38.36-12.84
				c-6.25-1.54-8.91,8.1-2.66,9.64c51.8,12.81,98.06,42.73,132.97,82.86c34.55,39.73,58.09,90,63.54,142.58
				c5.59,53.89-7.92,108.53-35.26,155.06c-27.24,46.35-68.09,84.77-117.25,106.96c-48.4,21.85-103.85,25.89-155.51,14.77
				c-51.4-11.07-99.78-36.82-136.08-75.08c-37.92-39.97-60.2-92.94-65.37-147.57c-5.17-54.66,5.96-111.08,34-158.51
				C351.42,264.4,394.56,229.1,443.95,209c48.84-19.88,103.67-25.87,155.34-14.52c12.48,2.74,24.71,6.49,36.6,11.16
				C641.89,207.98,644.49,198.32,638.55,195.99L638.55,195.99z"/>
		</g>
	</g>
	<g>
		<g>
			<path d="M651.64,1184.89c4.98,77.17,9.25,154.39,13.92,231.58c1.27,21.03,2.57,42.06,3.93,63.08c0.41,6.39,10.41,6.44,10,0
				c-4.98-77.17-9.25-154.39-13.92-231.58c-1.27-21.03-2.57-42.06-3.93-63.08C661.23,1178.5,651.22,1178.46,651.64,1184.89
				L651.64,1184.89z"/>
		</g>
	</g>
	<g>
		<path class="st0" d="M412.53,1669.26c-7.7-42.56-5.48-106.77,21.19-140.8s76.42-51.21,115.59-32.87
			c29.53,13.83,48.31,44.56,55.79,76.3s5.27,64.85,3.03,97.38"/>
		<g>
			<path d="M417.36,1667.93c-4.8-27-5.25-55.5-0.65-82.55c4.61-27.11,14.82-51.97,36.59-69.67c21.29-17.31,50.81-26.76,78.05-20.89
				c28.94,6.24,49.94,29.21,61.43,55.54c16.26,37.24,13.09,79.41,10.36,118.91c-0.44,6.42,9.56,6.4,10,0
				c2.66-38.48,5.42-78.98-8.4-115.83c-10.76-28.67-31.09-54.73-60.63-65.38c-28.56-10.29-61.22-3.72-86.38,12.23
				c-12.34,7.82-23.41,18.04-31.6,30.18c-8,11.86-13.08,25.69-16.44,39.52c-7.93,32.61-7.82,67.65-1.96,100.59
				C408.84,1676.92,418.48,1674.23,417.36,1667.93L417.36,1667.93z"/>
		</g>
	</g>
	<g>
		<g>
			<path d="M412.53,1674.26c65.2,0,130.4,0,195.6,0c6.43,0,6.45-10,0-10c-65.2,0-130.4,0-195.6,0
				C406.1,1664.26,406.09,1674.26,412.53,1674.26L412.53,1674.26z"/>
		</g>
	</g>
	<g>
		<g>
			<path d="M412.53,1655.44c65.64-0.18,131.27-1.3,196.91-1.48c6.43-0.02,6.45-10.02,0-10c-65.64,0.18-131.27,1.3-196.91,1.48
				C406.1,1645.46,406.09,1655.46,412.53,1655.44L412.53,1655.44z"/>
		</g>
	</g>
	<g>
		<g>
			<path d="M482.32,1555.94c21.59,0.73,43.17,1.46,64.76,2.19c6.44,0.22,6.43-9.78,0-10c-21.59-0.73-43.17-1.46-64.76-2.19
				C475.89,1545.72,475.89,1555.72,482.32,1555.94L482.32,1555.94z"/>
		</g>
	</g>
	<g>
		<g>
			<path d="M482.29,1525.56c21.59,0.69,43.17,1.38,64.76,2.07c6.44,0.21,6.43-9.79,0-10c-21.59-0.69-43.17-1.38-64.76-2.07
				C475.86,1515.36,475.86,1525.36,482.29,1525.56L482.29,1525.56z"/>
		</g>
	</g>
	<g>
		<path class="st0" d="M599.18,1545.9c6.54-27.32,19.48-60.62,75.31-63.72c92.89-5.17,96.8,137.91,93.38,179.9"/>
		<g>
			<path d="M604,1547.22c5.15-21.34,14.32-41.12,34.81-51.52c21.51-10.92,51.46-12.76,72.82-0.45
				c17.52,10.09,28.84,28.21,36.06,46.62c7.88,20.11,12.05,41.64,14.2,63.07c1.89,18.92,2.5,38.16,0.98,57.13
				c-0.51,6.42,9.49,6.38,10,0c1.42-17.74,0.95-35.7-0.63-53.41c-2.06-23.09-6.08-46.37-14.38-68.1
				c-7.87-20.6-19.86-40.58-38.91-52.59c-22.55-14.21-53.01-13.78-77.31-4.38c-13.78,5.33-25.45,14.24-33.62,26.6
				c-6.85,10.37-10.76,22.38-13.65,34.37C592.85,1550.82,602.49,1553.49,604,1547.22L604,1547.22z"/>
		</g>
	</g>
	<g>
		<g>
			<path d="M610.28,1667.07c51.87,0,103.74,0,155.61,0c6.43,0,6.45-10,0-10c-51.87,0-103.74,0-155.61,0
				C603.84,1657.07,603.83,1667.07,610.28,1667.07L610.28,1667.07z"/>
		</g>
	</g>
	<g>
		<g>
			<path d="M611.82,1647.11c51.39-0.04,102.69-3.62,154.07-3.66c6.43-0.01,6.45-10.01,0-10c-51.38,0.05-102.69,3.62-154.07,3.66
				C605.38,1637.11,605.37,1647.11,611.82,1647.11L611.82,1647.11z"/>
		</g>
	</g>
	<g>
		<g>
			<path d="M646.78,1552.01c21.59-0.74,43.17-1.49,64.76-2.23c6.42-0.22,6.45-10.22,0-10c-21.59,0.74-43.17,1.49-64.76,2.23
				C640.37,1542.23,640.34,1552.23,646.78,1552.01L646.78,1552.01z"/>
		</g>
	</g>
	<g>
		<g>
			<path d="M652.02,1525.05c19.07,0.02,38.13,0.5,57.19,0.51c6.43,0.01,6.44-9.99,0-10c-19.07-0.02-38.13-0.5-57.19-0.51
				C645.58,1515.05,645.57,1525.05,652.02,1525.05L652.02,1525.05z"/>
		</g>
	</g>
	<g>
		<g>
			<path d="M660.57,692.95c79.32,13.56,158.75,26.45,238.06,40.01c9.44,1.61,13.5-12.84,3.99-14.46
				c-79.32-13.56-158.75-26.45-238.06-40.01C655.12,676.87,651.06,691.32,660.57,692.95L660.57,692.95z"/>
		</g>
	</g>
	<g>
		<path class="st1" d="M977.75,654.3c-22.58,42.12-45.16,84.24-67.75,126.37c-5.4,10.08-10.98,21.16-8.94,32.41
			c3.51,19.4,26.3,27.58,45.48,32.16c21.77-60.39,48.8-118.89,80.68-174.61"/>
		<g>
			<path d="M971.27,650.51c-17.41,32.47-34.81,64.94-52.22,97.41c-4.39,8.19-8.78,16.38-13.17,24.57
				c-4.09,7.63-8.46,15.31-10.9,23.66c-4.12,14.07-0.68,28.71,10.34,38.58c10.85,9.72,25.33,14.36,39.23,17.72
				c4.17,1.01,7.81-1.32,9.23-5.24c21.62-59.8,48.4-117.6,79.92-172.82c4.79-8.4-8.16-15.96-12.95-7.57
				c-32.16,56.33-59.39,115.4-81.44,176.4c3.08-1.75,6.15-3.49,9.23-5.24c-10.58-2.56-21.81-5.63-30.65-12.25
				c-10.15-7.6-11.49-18.41-6.98-29.88c2.87-7.3,7.05-14.16,10.75-21.06c4.08-7.61,8.15-15.21,12.23-22.82
				c7.84-14.63,15.68-29.25,23.52-43.88c8.94-16.67,17.88-33.35,26.82-50.02C988.78,649.58,975.84,641.99,971.27,650.51
				L971.27,650.51z"/>
		</g>
	</g>
	<g id="Ebene_17">
		<g>
			<g>
				<path d="M1051.05,536.24c-16.7-4.69-35.09-2.32-50.22,6.11c-15.12,8.42-26.07,22.93-30.7,39.54
					c-2.59,9.28-3.14,19.04-1.55,28.54c0.32,1.9,3.21,1.09,2.89-0.8c-2.69-16.06,1.4-32.96,10.61-46.33
					c9.45-13.7,24.37-22.71,40.69-25.54c9.12-1.58,18.56-1.14,27.48,1.37C1052.11,539.66,1052.91,536.76,1051.05,536.24
					L1051.05,536.24z"/>
			</g>
		</g>
		<g>
			<g>
				<path d="M1053.61,541.47c-12.12-7.89-27.1-10.85-41.34-8.5c-13.32,2.2-25.54,9.45-34.19,19.77
					c-4.78,5.71-8.46,12.25-10.76,19.34c-0.6,1.84,2.3,2.63,2.89,0.8c3.86-11.87,11.95-22.25,22.4-29.06
					c11.19-7.29,24.86-10.09,38.05-7.97c7.64,1.23,14.96,3.99,21.45,8.22C1053.72,545.11,1055.22,542.52,1053.61,541.47
					L1053.61,541.47z"/>
			</g>
		</g>
	</g>
	<g>
		<path class="st2" d="M1052.43,541.29c-30.4-12.3-69.21,3.74-82.05,33.91c-12.84,30.17,2.5,69.26,32.44,82.64
			s69.3-1.27,83.21-30.96s-0.03-69.31-29.47-83.75"/>
		<g>
			<path d="M1052.83,539.85c-12.18-4.89-25.79-5.35-38.47-2.23c-12.67,3.11-24.58,9.8-33.6,19.27c-9.06,9.51-14.71,21.63-16.1,34.69
				c-1.39,12.97,1.38,26.28,7.23,37.9c5.81,11.53,14.91,21.56,26.31,27.76c11.54,6.28,24.95,8.22,37.89,6.44
				c12.93-1.78,25.33-7.24,35.33-15.62c9.96-8.34,17.17-19.7,20.01-32.42c2.83-12.69,1.58-26.17-3.01-38.29
				c-4.58-12.11-12.42-22.97-22.95-30.58c-2.58-1.87-5.31-3.51-8.17-4.92c-1.72-0.85-3.25,1.73-1.51,2.59
				c11.19,5.53,20.14,14.73,26.05,25.67c5.88,10.87,8.76,23.39,7.97,35.74c-0.79,12.45-5.62,24.34-13.91,33.68
				c-8.29,9.34-19.39,15.99-31.38,19.34c-11.91,3.33-24.77,3.4-36.53-0.59c-11.81-4.02-21.88-12.24-28.89-22.48
				c-7.03-10.28-11.23-22.55-11.74-35.02c-0.51-12.48,2.83-24.8,10.01-35.07c7.14-10.21,17.66-18,29.23-22.49
				c11.61-4.51,24.53-5.93,36.73-3.18c2.97,0.67,5.87,1.58,8.69,2.71C1053.83,543.46,1054.6,540.56,1052.83,539.85L1052.83,539.85z"
				/>
		</g>
	</g>
	<g id="Ebene_16">
		<g>
			<g>
				<path d="M1077.4,542.87c-23.51-19.08-56.97-21.65-83.77-7.84c-27.73,14.29-40.76,45.42-36.49,75.59
					c4.3,30.36,26.62,55.13,57.08,60.67c29.75,5.41,62.2-6.04,78.1-32.66c17.32-29.01,12.64-69.37-11.75-92.95
					c-6.94-6.71-17.56,3.88-10.61,10.61c17.48,16.9,22.12,43.92,13.54,66.37c-8.84,23.14-32.58,35.73-56.63,35.01
					c-24.94-0.75-46.12-16.43-53.07-40.55c-6.55-22.72-0.51-49.43,19.02-63.97c21.01-15.65,53.33-16.44,73.98,0.33
					c3.17,2.57,7.5,3.04,10.61,0C1080.07,550.87,1080.54,545.42,1077.4,542.87L1077.4,542.87z"/>
			</g>
		</g>
		<g>
			<path class="st0" d="M946.91,702.59c-27.41-18.93-69.71,55.61-35.26,57.67"/>
			<g>
				<path d="M950.7,696.12c-14.97-9.9-32.35,0.13-42.63,11.96c-9.89,11.38-20.32,29.46-15.96,45.17
					c2.56,9.22,10.42,13.81,19.54,14.52c9.63,0.75,9.58-14.26,0-15c-1.22-0.09,0.13,0.03-1.67-0.29c-0.43-0.11-0.86-0.24-1.28-0.39
					c0.7,0.32,0.82,0.37,0.34,0.13c-0.3-0.1-2.37-1.25-0.71-0.28c-0.25-0.15-2.19-2.01-0.73-0.56c-0.34-0.34-0.71-1.02-0.86-1.46
					c0.67,1.9-0.16-0.59-0.25-0.95c-0.15-0.67-0.31-1.76-0.16-0.45c-0.1-0.87-0.12-1.75-0.11-2.63c0.07-5.97,3.05-13.13,6.79-19.32
					c3.89-6.43,9.26-12.75,15.26-16.46c0.78-0.48,1.57-0.92,2.38-1.35c1.37-0.72,0.23-0.21,1.31-0.62c0.91-0.34,1.84-0.59,2.77-0.85
					c0.19-0.05,2.36-0.35,0.78-0.2c0.92-0.09,1.84-0.09,2.76-0.05c1.75,0.08-0.83-0.29,0.73,0.12c2.18,0.57,1.91,0.42,4.13,1.9
					C951.2,714.41,958.72,701.42,950.7,696.12L950.7,696.12z"/>
			</g>
		</g>
		<g>
			<path class="st0" d="M1012.31,738.2c-10.08-16.82-39-16.57-48.78,0.42c-9.79,16.99,4.5,42.13,24.11,42.41
				c19.6,0.28,34.61-24.44,25.32-41.7"/>
			<g>
				<path d="M1018.78,734.41c-15.48-24.42-59.68-20.5-65.29,10.07c-2.66,14.51,4.18,29.45,15.97,37.99
					c12.31,8.91,28.51,7.37,39.91-2.2c12.88-10.81,17.71-29.56,10.06-44.72c-4.35-8.62-17.3-1.03-12.95,7.57
					c5.02,9.95-0.95,22.82-10.11,28.08c-10.3,5.91-21.48-0.64-26.18-10.5c-4.72-9.89-1.91-21.5,8.73-25.8
					c9.1-3.68,21.44-1.56,26.92,7.09C1010.98,750.12,1023.97,742.6,1018.78,734.41L1018.78,734.41z"/>
			</g>
		</g>
		<g>
			<g>
				<path d="M979.66,566.77c23.99-0.44,47.94-3.03,71.47-7.74c6.64-1.33,13.24-2.83,19.81-4.49c1.87-0.47,1.08-3.37-0.8-2.89
					c-23,5.83-46.51,9.61-70.18,11.24c-6.76,0.47-13.52,0.76-20.29,0.88C977.73,563.8,977.73,566.8,979.66,566.77L979.66,566.77z"/>
			</g>
		</g>
		<g>
			<g>
				<path d="M971.54,585.4c28.81-4.4,57.62-8.8,86.43-13.21c8.13-1.24,16.25-2.48,24.38-3.72c1.9-0.29,1.09-3.18-0.8-2.89
					c-28.81,4.4-57.62,8.8-86.43,13.21c-8.13,1.24-16.25,2.48-24.38,3.72C968.84,582.8,969.64,585.69,971.54,585.4L971.54,585.4z"/>
			</g>
		</g>
		<g>
			<g>
				<path d="M967.84,613.16c31.96-7.37,63.92-14.75,95.88-22.12c9.09-2.1,18.17-4.19,27.26-6.29c1.88-0.43,1.08-3.33-0.8-2.89
					c-31.96,7.37-63.92,14.75-95.88,22.12c-9.09,2.1-18.17,4.19-27.26,6.29C965.17,610.7,965.96,613.59,967.84,613.16L967.84,613.16
					z"/>
			</g>
		</g>
		<g>
			<g>
				<path d="M977.15,634.2c30.05-7.49,60.1-14.97,90.16-22.46c8.4-2.09,16.8-4.19,25.21-6.28c1.87-0.47,1.08-3.36-0.8-2.89
					c-30.05,7.49-60.1,14.97-90.16,22.46c-8.4,2.09-16.8,4.19-25.21,6.28C974.48,631.77,975.27,634.66,977.15,634.2L977.15,634.2z"
					/>
			</g>
		</g>
		<g>
			<g>
				<path d="M994.69,649.73c24.4-5.6,48.81-11.2,73.21-16.8c6.89-1.58,13.78-3.16,20.67-4.74c1.88-0.43,1.08-3.32-0.8-2.89
					c-24.4,5.6-48.81,11.2-73.21,16.8c-6.89,1.58-13.78,3.16-20.67,4.74C992.01,647.26,992.81,650.16,994.69,649.73L994.69,649.73z"
					/>
			</g>
		</g>
		<g>
			<g>
				<path d="M994.8,549.03c1.43,27.24,2.85,54.48,4.28,81.73c0.4,7.64,0.8,15.28,1.2,22.92c0.1,1.92,3.1,1.93,3,0
					c-1.43-27.24-2.85-54.48-4.28-81.73c-0.4-7.64-0.8-15.28-1.2-22.92C997.7,547.11,994.7,547.09,994.8,549.03L994.8,549.03z"/>
			</g>
		</g>
		<g>
			<g>
				<path d="M979.09,555.97c1.43,24.23,2.85,48.46,4.28,72.69c0.4,6.8,0.8,13.61,1.2,20.41c0.11,1.92,3.11,1.93,3,0
					c-1.43-24.23-2.85-48.46-4.28-72.69c-0.4-6.8-0.8-13.61-1.2-20.41C981.98,554.05,978.97,554.04,979.09,555.97L979.09,555.97z"/>
			</g>
		</g>
		<g>
			<g>
				<path d="M1009.72,538.24c-2.01,32.64-1.19,65.44,2.48,97.94c1.03,9.07,2.27,18.11,3.73,27.12c0.31,1.9,3.2,1.09,2.89-0.8
					c-5.17-31.99-7.55-64.42-7.13-96.82c0.12-9.16,0.47-18.31,1.03-27.44C1012.84,536.31,1009.84,536.32,1009.72,538.24
					L1009.72,538.24z"/>
			</g>
		</g>
		<g>
			<g>
				<path d="M1027.67,538.22c2.39,32.18,4.78,64.35,7.17,96.53c0.68,9.12,1.36,18.24,2.03,27.37c0.14,1.91,3.14,1.93,3,0
					c-2.39-32.18-4.78-64.35-7.17-96.53c-0.68-9.12-1.36-18.24-2.03-27.37C1030.53,536.31,1027.53,536.29,1027.67,538.22
					L1027.67,538.22z"/>
			</g>
		</g>
		<g>
			<g>
				<path d="M1048.7,538.2c2.59,30.36,5.18,60.72,7.77,91.09c0.74,8.63,1.47,17.26,2.21,25.88c0.16,1.91,3.16,1.93,3,0
					c-2.59-30.36-5.18-60.72-7.77-91.09c-0.74-8.63-1.47-17.26-2.21-25.88C1051.54,536.29,1048.53,536.27,1048.7,538.2L1048.7,538.2
					z"/>
			</g>
		</g>
		<g>
			<path class="st3" d="M1071.24,550.55c2.05,31.29,4.1,62.59,6.16,93.88"/>
			<g>
				<path d="M1069.74,550.55c1.6,24.34,3.19,48.68,4.79,73.02c0.46,6.95,0.91,13.91,1.37,20.86c0.13,1.92,3.13,1.93,3,0
					c-1.6-24.34-3.19-48.68-4.79-73.02c-0.46-6.95-0.91-13.91-1.37-20.86C1072.62,548.63,1069.62,548.62,1069.74,550.55
					L1069.74,550.55z"/>
			</g>
		</g>
	</g>
	<g id="Ebene_10">
		<ellipse class="st4" cx="408.66" cy="473.56" rx="45.86" ry="50.51"/>
	</g>
	<g id="Ebene_11">
		<ellipse class="st5" cx="602.04" cy="423.04" rx="16.77" ry="35.66"/>
		<ellipse class="st5" cx="667.01" cy="423.04" rx="16.77" ry="35.66"/>
		<ellipse class="st6" cx="603.39" cy="402.64" rx="6.87" ry="6.5"/>
		<ellipse class="st6" cx="667.01" cy="402.64" rx="6.87" ry="6.5"/>
	</g>
	<g class="st7">
		<path d="M482.32,198.82C267.59,333.6,281.13,649.73,517.21,683.29c46.67,6.63,94.12,0.11,140.67-7.31
			c-187.24,80.37-383.05-46.76-367.23-276.34c6.37-92.52,89.42-169.51,185.79-199.41"/>
		<path d="M478.54,192.34c-45.16,28.46-83.77,66.91-111.19,112.8c-24.81,41.52-40.23,88.62-43.84,136.89
			c-3.34,44.54,3.98,90.1,23.52,130.41c19.27,39.75,51,72.82,90.15,93.36c21.82,11.45,45.51,19.18,69.76,23.4
			c40.6,7.07,81.63,4.19,122.22-1.38c10.26-1.41,20.49-2.99,30.72-4.62c-1.93-4.57-3.85-9.14-5.78-13.71
			c-46.89,20.01-99.48,28.3-150.02,20.04c-47.02-7.68-91.25-28.91-125.95-61.66c-37.17-35.08-61.69-81.28-73.07-130.89
			c-6.52-28.43-8.67-57.68-7.48-86.79c1.19-28.91,8.27-56.27,22.37-81.63c29.28-52.66,81.03-91.55,136.47-113.37
			c7.25-2.85,14.6-5.42,22.03-7.75c9.18-2.87,5.26-17.36-3.99-14.46c-60.98,19.09-118.06,55.94-155.22,108.56
			c-17.39,24.62-29.97,53.15-34.4,83.08c-4.57,30.88-3.22,63.1,1.48,93.88c8.23,53.98,30.97,105.68,67.78,146.29
			c34.05,37.56,79.52,64.19,128.84,75.8c52.39,12.33,107.77,7.91,158.32-10.08c6.9-2.45,13.68-5.19,20.41-8.06
			c3.42-1.46,4.36-6.3,3.07-9.37c-1.55-3.68-5.09-4.94-8.85-4.34c-65.67,10.45-135.16,18.03-197.86-9.5
			c-38.53-16.92-70.65-45.32-91.5-81.93c-20.66-36.27-29.55-78.25-28.75-119.78c0.86-45.07,13.05-89.74,33.98-129.58
			c23.17-44.12,56.87-82.43,97.45-111.35c5.53-3.94,11.17-7.7,16.91-11.32C494.26,200.16,486.74,187.17,478.54,192.34L478.54,192.34
			z"/>
	</g>
	<g class="st7">
		<path d="M482.32,694.58c-29.15,96.31-25.86,213.65,27.26,299.11S653.73,1140.06,753,1156.55c-34.72,21.29-78.1,16.98-118.68,20.5
			c-232.94,20.18-260.79,4.45-235.12-131.45c20.99-111.11,42.52-242.56,63.51-353.68"/>
		<g>
			<path d="M475.09,692.58c-23.64,78.65-26.53,166.83,0.09,245.14c25.81,75.91,82.85,139.24,151.21,179.96
				c38.26,22.79,80.69,38.69,124.62,46.1c-0.6-4.57-1.19-9.14-1.79-13.71c-31.7,19.06-70.13,16.6-105.68,18.8
				c-33.27,2.06-66.41,5.55-99.73,7.01c-23.63,1.04-47.42,1.57-71.01-0.38c-9.03-0.75-15.86-1.59-24.81-3.54
				c-3.7-0.81-7.37-1.75-10.97-2.89c-1.62-0.51-3.23-1.06-4.82-1.66c-0.67-0.25-1.34-0.52-2.01-0.78c-1.47-0.59,0.51,0.27-1.24-0.54
				c-2.82-1.31-5.58-2.73-8.21-4.39c-1.2-0.76-2.37-1.58-3.52-2.41c-0.04-0.03,0.79,0.68-0.34-0.27c-0.66-0.55-1.32-1.1-1.95-1.67
				c-2-1.8-3.83-3.77-5.52-5.86c1.32,1.63-1.04-1.49-1.46-2.13c-0.78-1.2-1.51-2.43-2.18-3.69c-0.65-1.21-1.23-2.44-1.79-3.69
				c-0.02-0.04,0.37,1.02-0.14-0.38c-0.31-0.83-0.62-1.65-0.91-2.49c-0.95-2.79-1.7-5.65-2.3-8.54c-0.31-1.53-0.57-3.07-0.81-4.61
				c-0.2-1.25,0.09,1.13-0.13-1c-0.1-0.93-0.2-1.85-0.28-2.78c-0.32-3.6-0.47-7.21-0.49-10.82c-0.11-17.97,2.38-34.67,5.39-51.99
				c6-34.59,12.76-69.06,18.92-103.63c13.94-78.25,27.25-156.61,41.68-234.78c1.66-9.02,3.35-18.03,5.05-27.04
				c1.78-9.43-12.67-13.48-14.46-3.99c-14.98,79.36-28.54,158.97-42.59,238.49c-6.85,38.76-13.85,77.5-21.11,116.19
				c-3.64,19.44-6.97,39.15-7.74,58.95c-1.06,27.39,4.55,55.71,29.35,71.23c12.97,8.11,28.44,11.79,43.42,13.9
				c22.39,3.16,45.07,3.39,67.63,2.86c31.88-0.76,63.71-3.14,95.48-5.77c18.87-1.57,37.7-2.47,56.61-3.42
				c18.56-0.94,37.46-2.53,55.28-8.15c8.72-2.75,17.14-6.46,24.97-11.17c5.08-3.06,4.86-12.59-1.79-13.71
				c-75.5-12.72-145.68-50.72-198.12-106.45c-26.4-28.05-48.6-60.57-62.64-96.56c-14.49-37.15-21.48-76.89-22.56-116.67
				c-1.21-44.98,4.93-89.99,17.88-133.07C492.34,687.31,477.87,683.35,475.09,692.58L475.09,692.58z"/>
		</g>
	</g>
	<g class="st7">
		<path d="M355.36,1013.3c-3.44,13.56,7.58,28.87,21.53,29.91c-2.87,7.71-5.74,15.41-8.61,23.12
			c-21.2-11.04-33.97-31.75-18.97-50.36"/>
		<g>
			<path d="M348.13,1011.3c-4.19,19.07,9.59,37.35,28.77,39.41c-2.41-3.16-4.82-6.33-7.23-9.49c-2.87,7.71-5.74,15.41-8.61,23.12
				c3.67-1.49,7.34-2.99,11.02-4.48c-7.97-4.27-15.85-10.07-19.81-18.47c-3.68-7.82-1.55-15.05,3.52-21.62
				c2.49-3.23,0.47-8.37-2.69-10.26c-3.85-2.3-7.8-0.5-10.26,2.69c-7.65,9.92-9.62,22.5-4.72,34.1
				c4.99,11.82,15.28,20.57,26.39,26.52c4.56,2.44,9.3,0.13,11.02-4.48c2.87-7.71,5.74-15.41,8.61-23.12
				c1.87-5.02-2.85-9.02-7.23-9.49c-9.26-0.99-16.25-11.55-14.3-20.42C364.66,1005.88,350.2,1001.86,348.13,1011.3L348.13,1011.3z"
				/>
		</g>
	</g>
	<g class="st7">
		<path d="M544.54,1505.81c-31.88,3.81-56.62,32.01-65.86,62.76s-5.98,63.72-1.66,95.53c-19.45,1.1-38.89,2.2-58.34,3.3
			c-9.01-41.69-6.74-87.63,15.96-123.74s69.01-58.92,109.63-45.89"/>
		<g>
			<path d="M544.54,1498.31c-31.44,4.13-56,27.16-68.38,55.6c-15.4,35.39-11.4,75.01-6.38,112.18c2.41-3.16,4.82-6.33,7.23-9.49
				c-19.45,1.1-38.89,2.2-58.34,3.3c2.41,1.84,4.82,3.67,7.23,5.51c-6.99-32.9-7.04-68.41,5.85-99.93
				c11.36-27.78,34.16-50.55,62.99-59.76c15.56-4.97,31.86-5.57,47.51-0.71c9.24,2.87,13.19-11.61,3.99-14.46
				c-32.4-10.06-66.98,0.37-92.85,21.04c-28.51,22.77-42.83,57.91-46.3,93.52c-2.1,21.49-0.12,43.23,4.35,64.3
				c0.65,3.05,4.11,5.68,7.23,5.51c19.45-1.1,38.89-2.2,58.34-3.3c5.36-0.3,7.9-4.52,7.23-9.49c-4.42-32.71-8.15-68.3,4.51-99.73
				c9.41-23.34,29.7-45.64,55.78-49.07c4.02-0.53,7.5-3.07,7.5-7.5C552.04,1502.17,548.58,1497.78,544.54,1498.31L544.54,1498.31z"
				/>
		</g>
	</g>
	<g class="st7">
		<path d="M703.4,1491.66c-24.1,17.6-37.91,46.54-43.32,75.89c-5.42,29.35-3.35,59.49-1.27,89.26c-14.62,0.04-29.24,0.07-43.86,0.11
			c10.11-22.99,3.23-49.43-2.41-73.9c-5.64-24.47-9.22-52.52,5.78-72.66c17.43-23.42,51.21-25.25,80.4-24.93"/>
		<g>
			<path d="M699.62,1485.19c-23.09,17.19-37.6,42.71-44.58,70.36c-8.36,33.09-6.08,67.59-3.72,101.26c2.5-2.5,5-5,7.5-7.5
				c-14.62,0.04-29.24,0.07-43.86,0.11c2.41,3.16,4.82,6.33,7.23,9.49c13.51-32.06-1.99-65.14-6.07-97.33
				c-1.82-14.33-1.79-30.07,5.7-42.91c6.57-11.28,17.9-17.92,30.19-21.39c15.15-4.28,31.09-4.5,46.72-4.35
				c9.65,0.09,9.66-14.91,0-15c-28.16-0.27-62.15,0.97-82.6,23.37c-23.87,26.15-15.42,63.1-8.43,94.06
				c4.44,19.69,8.14,40.31,0.03,59.57c-1.94,4.6,2.87,9.5,7.23,9.49c14.62-0.04,29.24-0.07,43.86-0.11c3.84-0.01,7.78-3.43,7.5-7.5
				c-2.19-31.24-4.68-63.39,2.44-94.2c5.7-24.65,17.74-49.06,38.43-64.47c3.27-2.44,4.85-6.46,2.69-10.26
				C708.05,1484.65,702.86,1482.78,699.62,1485.19L699.62,1485.19z"/>
		</g>
	</g>
</g>
<g id="Ebene_2">
	<g>
		<g>
			<path d="M420.96,473.5c8.76,50.3,40.18,95.48,82.96,122.99c44.5,28.61,100.26,34.8,150.58,19.23
				c28.69-8.88,55.16-24.54,76.28-45.94c6.79-6.88-3.81-17.49-10.61-10.61c-34.59,35.05-84.34,52.93-133.32,49.6
				c-47.57-3.23-91.86-28.91-120.15-67.06c-15.87-21.4-26.7-45.93-31.28-72.2C433.77,460.02,419.32,464.05,420.96,473.5
				L420.96,473.5z"/>
		</g>
	</g>
</g>
</svg>
