<?xml version="1.0" encoding="utf-8"?>
<!-- Generator: Adobe Adobe Illustrator 24.2.0, SVG Export Plug-In . SVG Version: 6.00 Build 0)  -->
<svg version="1.1" xmlns="http://www.w3.org/2000/svg" xmlns:xlink="http://www.w3.org/1999/xlink" x="0px" y="0px"
	 viewBox="0 0 170.08 170.08" style="enable-background:new 0 0 170.08 170.08;" xml:space="preserve">
<style type="text/css">
	.st0{fill:#CAD967;}
	.st1{fill:#91625D;}
	.st2{fill:#FFFFFF;}
	.st3{fill:#FBCBD7;stroke:#FFFFFF;stroke-width:1.2549;stroke-miterlimit:10;}
	.st4{opacity:0.0902;}
</style>
<g id="Ebene_4">
</g>
<g id="Ebene_5">
	<g>
		<path class="st0" d="M96.59,54.34c1.82,4.32,4.9,8.29,9.15,10.28c4.25,2,9.73,1.68,13.19-1.5s4.02-9.3,0.63-12.55
			c4.48,0.51,9.21-1.97,11.13-6.05s0.74-9.45-2.86-12.17c-3.59-2.72-9.25-2.31-12.27,1.03c1.44-2.17,2.62-4.58,2.89-7.16
			s-0.48-5.38-2.41-7.12c-1.38-1.24-3.23-1.86-5.08-2.04c-2.27-0.23-4.67,0.2-6.52,1.53c-1.85,1.33-3.06,3.66-2.71,5.91
			c-0.8-3.4-0.98-6.98-2.37-10.18s-4.51-6.05-7.97-5.63c-2.21,0.27-4.11,1.83-5.22,3.76s-1.52,4.18-1.68,6.39
			c-3.58-2.83-2.16-9.13-5.48-12.26c-1.42-1.34-3.45-1.81-5.39-1.88c-4.08-0.13-8.23,1.42-11.03,4.38c-2.8,2.96-4.11,7.34-3.14,11.3
			c-2.17-3.84-4.69-7.97-8.86-9.41c-4.12-1.42-8.98,0.47-11.49,4.02c-2.52,3.55-2.79,8.42-1.2,12.47c-2.43-3.4-6.95-5.1-11.05-4.32
			c-4.11,0.78-7.64,3.89-9.11,7.8c-1.04,2.77-0.97,6.22,1.1,8.34c1.55,1.59,3.85,2.12,6.02,2.58c-5.95-1.27-12.66,2.26-14.66,8.01
			s1.35,12.89,7.16,14.72c5.81,1.82,12.83-2.46,13.55-8.51c-1.14,2.29-0.61,5.31,1.25,7.07c1.86,1.76,4.9,2.13,7.13,0.87
			c2.94-1.67,3.93-5.35,4.65-8.66c0,2.38,1.39,4.71,3.48,5.84c2.09,1.14,4.8,1.03,6.79-0.26c3.11-2.01,3.98-6.11,4.43-9.78
			c-0.1,2.1,0.99,4.22,2.77,5.35s4.16,1.23,6.02,0.24c3.33-1.76,4.23-6.03,4.76-9.76c-0.25,3.86-0.35,8.07,1.96,11.17
			c2.64,3.54,7.75,4.45,12.02,3.34c4.27-1.11,7.91-3.84,11.43-6.5"/>
		<g>
			<path class="st0" d="M95.73,54.84c2.48,5.75,7.21,11,13.7,11.89c5.8,0.8,11.96-2.21,13.18-8.29c0.62-3.08-0.09-6.31-2.33-8.57
				c-0.24,0.57-0.47,1.14-0.71,1.71c5.94,0.57,12.04-3.52,12.92-9.59c0.83-5.79-2.87-11.57-8.84-12.32
				c-3.22-0.41-6.54,0.65-8.78,3.02c0.52,0.4,1.05,0.81,1.57,1.21c1.87-2.87,3.38-6.21,3.02-9.72c-0.32-3.12-1.99-5.89-4.9-7.2
				c-5.5-2.48-14.67,0.2-13.82,7.53c0.65-0.09,1.31-0.18,1.96-0.27c-1.33-5.84-1.56-13.76-8.28-16.17
				c-2.71-0.97-5.59-0.09-7.59,1.91c-2.35,2.34-3.08,5.68-3.33,8.87c0.57-0.24,1.14-0.47,1.71-0.71c-2.14-1.79-2.34-4.77-2.97-7.31
				c-0.7-2.78-1.99-5.24-4.78-6.38c-5.93-2.41-13.6,0.63-17.03,5.78c-2.04,3.06-2.75,6.85-1.94,10.43c0.61-0.26,1.22-0.51,1.83-0.77
				c-1.71-3.01-3.55-6.12-6.38-8.23c-2.78-2.08-6.31-2.68-9.62-1.6c-7.38,2.4-9.97,10.83-7.38,17.68c0.61-0.26,1.22-0.51,1.83-0.77
				c-4.73-6.37-14.09-6.48-19.32-0.67c-2.38,2.64-3.84,6.29-3.22,9.87c0.75,4.32,4.51,5.85,8.36,6.67c0.18-0.64,0.35-1.29,0.53-1.93
				c-7.79-1.54-16.49,4.11-16.5,12.47C8.6,61.25,15.93,68.06,23.8,65.44c4.04-1.34,7.46-4.75,8.05-9.07c0.14-1-1.31-1.91-1.83-0.77
				c-2.14,4.66,0.98,10.11,6.24,10.19c5.6,0.08,7.62-5.62,8.62-10.14c-0.65-0.09-1.31-0.18-1.96-0.27
				c0.16,5.12,5.13,8.91,10.11,7.23c4.81-1.62,6.03-6.98,6.59-11.43c-0.67,0-1.33,0-2,0c-0.08,4.91,4.82,8.63,9.52,6.8
				c4.3-1.67,5.41-6.63,6-10.71c-0.65-0.09-1.31-0.18-1.96-0.27c-0.22,3.46-0.32,7.14,1.27,10.33c1.35,2.69,3.93,4.5,6.82,5.22
				c7.14,1.77,13.42-2.58,18.83-6.68c1.01-0.77,0.02-2.5-1.01-1.73c-4.73,3.59-10.28,7.79-16.6,6.62c-2.67-0.49-5.08-1.96-6.3-4.45
				c-1.4-2.85-1.19-6.24-1-9.32c0.07-1.11-1.8-1.39-1.96-0.27c-0.43,2.98-0.97,6.76-3.56,8.7c-3.44,2.58-8.09-0.13-8.02-4.26
				c0.02-1.32-1.84-1.24-2,0c-0.41,3.24-1.13,7.39-4.28,9.12c-3.78,2.09-8.3-0.71-8.43-4.93c-0.03-1.09-1.71-1.41-1.96-0.27
				c-0.71,3.23-1.75,7.79-5.57,8.57c-4.03,0.82-7.35-3.31-5.63-7.08c-0.61-0.26-1.22-0.51-1.83-0.77
				c-0.9,6.53-8.97,10.41-14.54,6.73c-2.67-1.76-4.41-4.89-4.72-8.05c-0.33-3.28,0.94-6.38,3.35-8.61c2.79-2.59,6.82-3.8,10.57-3.06
				c1.25,0.25,1.8-1.66,0.53-1.93c-3.14-0.67-6.4-1.66-6.97-5.28c-0.46-2.98,0.93-6.05,2.95-8.18c4.32-4.55,12.04-4.72,15.93,0.53
				c0.61,0.82,2.26,0.38,1.83-0.77c-2.24-5.91-0.3-13.42,6.32-15.33c6.6-1.9,10.59,4.06,13.4,9.01c0.57,1.01,2.07,0.32,1.83-0.77
				c-1.82-8.07,5.47-14.68,13.21-14.42c1.86,0.06,3.87,0.53,5.11,2.03c0.95,1.15,1.35,2.67,1.68,4.09c0.65,2.76,1.07,5.79,3.38,7.73
				c0.68,0.57,1.64,0.19,1.71-0.71c0.21-2.66,0.78-5.5,2.74-7.46c1.85-1.84,4.43-2.24,6.68-0.88c4.81,2.92,4.75,9.4,5.86,14.26
				c0.25,1.08,2.1,0.87,1.96-0.27c-0.7-6.06,7.24-7.84,11.52-5.45c5.31,2.96,3.04,9.86,0.45,13.83c-0.62,0.95,0.79,2.04,1.57,1.21
				c2.06-2.19,5.22-3,8.13-2.27c3.04,0.76,5.19,3.21,5.93,6.21c1.63,6.64-4.3,12.17-10.77,11.54c-0.89-0.09-1.28,1.13-0.71,1.71
				c2.19,2.2,2.47,5.63,1.28,8.42c-1.27,2.95-4.2,4.72-7.32,5.09c-7.24,0.86-12.71-4.81-15.36-10.96
				C96.94,52.66,95.22,53.67,95.73,54.84L95.73,54.84z"/>
		</g>
	</g>
</g>
<g id="Ebene_6">
	<g>
		<path class="st1" d="M41.86,65.37c5.7,5.33,9.27,12.66,11.04,20.27c1.77,7.6,1.84,15.51,1.33,23.29
			c-0.17,2.63-0.42,5.27-1.03,7.84c-0.58,2.43-1.48,4.78-2.38,7.11c-3.41,8.86-6.85,17.78-11.77,25.9
			c6.14-0.31,12.28,0.51,18.37,1.34c5.04,0.68,10.07,1.36,15.11,2.05c4.42,0.6,8.87,1.2,13.12,2.56
			C78.08,142.21,63.88,114.3,78.53,84c1.38-2.86,4.07-9.11,6.25-11.42c4.28-4.52,9.44-8.2,15.1-10.77
			c-0.94-0.81-1.68-1.85-2.15-2.99c-8.3,2.67-13.84,11.57-22.46,12.95c-0.17-3.53-0.34-7.07-0.5-10.6c-2-0.82-3.37-2.99-3.24-5.15
			c-1.93,2.35-5.09,3.62-8.11,3.28c-1.01,5.97-1.91,11.96-2.69,17.97c-5.15-1.65-6.58-8.2-10.34-12.08
			c-1.52-1.57-3.47-2.71-5.58-3.27c-0.44,1.23-1.17,2.35-2.13,3.24"/>
		<g>
			<path class="st1" d="M41.16,66.07c8.17,7.75,11.55,18.97,12.21,29.94c0.36,5.99,0.28,12.27-0.67,18.2
				c-0.94,5.84-3.57,11.44-5.76,16.89c-2.51,6.24-5.27,12.39-8.74,18.16c-0.38,0.63,0.1,1.54,0.86,1.5
				c7.87-0.36,15.7,0.98,23.47,2.03c7.61,1.03,15.51,1.58,22.87,3.88c0.85,0.27,1.54-0.73,1.13-1.47
				c-5.77-10.3-10.56-21.18-12.48-32.9c-1.24-7.54-1.21-15.31,0.29-22.8c1.49-7.44,4.54-14.37,7.97-21.1
				c0.77-1.52,1.58-3.08,2.61-4.45c1.18-1.57,2.78-2.92,4.27-4.19c3.38-2.89,7.17-5.26,11.21-7.11c0.58-0.27,0.64-1.17,0.2-1.57
				c-0.88-0.8-1.51-1.7-1.99-2.79c-0.17-0.38-0.75-0.59-1.13-0.46c-8.33,2.78-13.63,11.43-22.46,12.95
				c0.42,0.32,0.84,0.64,1.27,0.96c-0.17-3.53-0.34-7.07-0.5-10.6c-0.02-0.33-0.17-0.72-0.5-0.86c-1.74-0.79-2.79-2.36-2.74-4.28
				c0.02-0.83-1.13-1.37-1.71-0.71c-1.88,2.18-4.54,3.25-7.4,2.99c-0.4-0.04-0.9,0.33-0.96,0.73c-1.03,6.06-1.93,12.14-2.72,18.23
				c0.42-0.32,0.84-0.64,1.27-0.96c-3.5-1.2-5.17-4.9-6.96-7.84c-2.16-3.53-4.86-6.35-8.96-7.51c-0.56-0.16-1.04,0.2-1.23,0.7
				c-0.41,1.08-1.04,1.99-1.87,2.8c-0.92,0.9,0.49,2.32,1.41,1.41c1.08-1.06,1.84-2.27,2.38-3.68c-0.41,0.23-0.82,0.47-1.23,0.7
				c4.38,1.24,6.58,4.61,8.78,8.29c1.77,2.96,3.73,5.89,7.14,7.06c0.68,0.23,1.19-0.37,1.27-0.96c0.77-5.92,1.65-11.82,2.65-17.7
				c-0.32,0.24-0.64,0.49-0.96,0.73c3.33,0.3,6.63-1.04,8.81-3.57c-0.57-0.24-1.14-0.47-1.71-0.71c-0.06,2.56,1.39,4.95,3.73,6.01
				c-0.17-0.29-0.33-0.58-0.5-0.86c0.17,3.53,0.34,7.07,0.5,10.6c0.03,0.7,0.61,1.08,1.27,0.96C84.47,71.19,89.65,62.56,98,59.78
				c-0.38-0.15-0.75-0.31-1.13-0.46c0.54,1.23,1.31,2.29,2.31,3.2c0.07-0.52,0.13-1.05,0.2-1.57c-3.62,1.67-7.01,3.75-10.14,6.21
				c-2.71,2.14-5.37,4.49-7.15,7.48c-1.65,2.77-2.93,5.73-4.32,8.63c-1.88,3.94-3.46,8-4.56,12.23c-3.81,14.61-1.9,29.89,3.48,43.85
				c2.25,5.84,5.06,11.43,8.11,16.88c0.38-0.49,0.75-0.98,1.13-1.47c-7.51-2.35-15.59-2.9-23.36-3.95
				c-7.78-1.05-15.63-2.4-23.51-2.03c0.29,0.5,0.58,1,0.86,1.5c3.17-5.26,5.74-10.84,8.08-16.51c1.2-2.91,2.34-5.84,3.47-8.77
				c1.12-2.91,2.29-5.82,2.91-8.88c1.23-6.04,1.32-12.53,1.06-18.68c-0.25-5.94-1.15-11.91-3.17-17.52
				c-2.07-5.74-5.26-11.06-9.7-15.27C41.64,63.78,40.22,65.19,41.16,66.07L41.16,66.07z"/>
		</g>
	</g>
</g>
<g id="Ebene_7">
	<g>
		<path class="st2" d="M136.84,89c-0.61-2.02-2.23-3.58-3.89-4.88c-4.01-3.14-8.87-5.44-13.96-5.54c-4.81-0.09-9.57,1.84-13.22,4.98
			c-3.65,3.14-6.22,7.43-7.65,12.03c-0.95,3.05-1.41,6.29-0.99,9.45c0.43,3.16,1.79,6.25,4.1,8.45c2.67,2.54,6.33,3.71,9.9,4.63
			c3.52,0.92,7.12,1.67,10.76,1.68c3.64,0.01,7.35-0.77,10.42-2.74c0.99-0.64,1.92-1.4,2.64-2.33c0.66-0.86,1.14-1.85,1.55-2.86
			c2.26-5.47,2.82-11.52,2.63-17.44c-0.07-2.29-0.38-4.83-2.13-6.3"/>
		<g>
			<path class="st2" d="M137.8,88.74c-1.41-4.18-5.97-7.05-9.76-8.87c-4.13-1.98-8.68-2.8-13.2-1.89
				c-9.06,1.83-15.55,9.6-17.93,18.23c-1.23,4.45-1.36,9.29,0.55,13.57c1.9,4.25,5.57,6.78,9.86,8.27
				c8.3,2.88,20.06,5.12,27.27-1.45c1.9-1.73,2.88-4.18,3.67-6.58c0.88-2.68,1.39-5.47,1.67-8.27c0.28-2.77,0.37-5.62,0.15-8.4
				c-0.17-2.19-0.69-4.38-2.37-5.91c-0.95-0.87-2.37,0.54-1.41,1.41c1.42,1.3,1.72,3.21,1.81,5.05c0.11,2.08,0.08,4.18-0.05,6.25
				c-0.28,4.28-1.07,8.88-3.1,12.71c-1.99,3.74-6.54,5.4-10.54,5.82c-4.46,0.47-8.92-0.45-13.21-1.58c-3.79-1-7.8-2.31-10.33-5.49
				c-2.66-3.34-3.29-7.86-2.67-11.98c1.19-7.85,6.08-15.49,13.55-18.63c4.32-1.81,8.98-1.82,13.36-0.22c2.19,0.8,4.24,1.96,6.13,3.3
				c1.88,1.33,3.86,2.92,4.63,5.17C136.29,90.48,138.22,89.96,137.8,88.74L137.8,88.74z"/>
		</g>
	</g>
	<g>
		<path class="st2" d="M108.7,120.67c-2.43,4.9-5.26,9.6-8.47,14.03c-1.75,2.42-3.87,4.93-6.81,5.47c-0.17,0.03-0.36,0.07-0.45,0.21
			c-0.11,0.17-0.02,0.4,0.07,0.58c2.64,5.36,6.47,10.13,11.13,13.86c1.44,1.15,3.13,2.26,4.96,2.07c1.44-0.14,2.7-1.09,3.56-2.25
			c0.86-1.16,1.38-2.53,1.88-3.88c1.18-3.15,2.37-6.31,3.55-9.46c0.67-1.79,1.35-3.59,1.8-5.44c0.58-2.38,0.8-4.82,1.02-7.26
			c0.2-2.21,0.39-4.42,0.59-6.63c-4.21,0.42-8.53-0.28-12.4-2"/>
		<g>
			<path class="st2" d="M107.83,120.16c-1.49,2.99-3.12,5.91-4.9,8.75c-1.61,2.56-3.26,5.22-5.3,7.46
				c-0.86,0.94-1.82,1.81-2.98,2.37c-0.95,0.45-2.51,0.37-2.69,1.68c-0.15,1.12,0.96,2.54,1.49,3.46c0.77,1.32,1.6,2.6,2.51,3.83
				c1.74,2.36,3.71,4.55,5.91,6.5c1.99,1.77,4.41,3.93,7.26,3.71c2.71-0.21,4.55-2.51,5.58-4.81c1.34-3.01,2.37-6.18,3.53-9.26
				c1.34-3.56,2.7-7.06,3.23-10.85c0.51-3.64,0.73-7.34,1.06-11c0.05-0.51-0.5-1.05-1-1c-4.07,0.37-8.14-0.23-11.9-1.86
				c-1.17-0.51-2.19,1.21-1.01,1.73c4.09,1.78,8.46,2.54,12.91,2.14c-0.33-0.33-0.67-0.67-1-1c-0.36,4-0.51,8.09-1.24,12.05
				c-0.73,3.98-2.41,7.75-3.83,11.52c-0.7,1.85-1.38,3.71-2.09,5.56c-0.65,1.69-1.5,3.6-3.22,4.46c-1.89,0.94-3.8-0.28-5.28-1.44
				c-1.42-1.12-2.75-2.35-3.99-3.66c-1.38-1.45-2.66-2.99-3.8-4.63c-0.6-0.85-1.16-1.73-1.69-2.63c-0.25-0.42-0.49-0.84-0.72-1.27
				c-0.12-0.21-0.76-1.1-0.73-1.29c-0.15,0.2-0.31,0.4-0.46,0.6c0.33-0.25,0.89-0.27,1.28-0.4c0.42-0.15,0.84-0.34,1.23-0.55
				c0.83-0.45,1.59-1.05,2.27-1.7c1.51-1.43,2.71-3.18,3.89-4.88c2.78-3.99,5.24-8.19,7.41-12.55
				C110.13,120.02,108.41,119.01,107.83,120.16L107.83,120.16z"/>
		</g>
	</g>
	<g>
		<path class="st2" d="M136.28,154.76c1.75-0.47,3.58-0.64,5.39-0.48c1.1,0.09,2.39,0.46,2.75,1.51c0.09,0.26,0.11,0.55-0.03,0.78
			c-0.16,0.27-0.5,0.39-0.81,0.46c-1.37,0.3-2.81,0.09-4.19-0.2c-0.67-0.14-1.33-0.3-1.99-0.47c-0.49-0.13-1-0.29-1.31-0.69
			c-0.3-0.4-0.23-1.11,0.24-1.27"/>
		<g>
			<path class="st2" d="M136.55,155.73c1.52-0.4,3.08-0.57,4.66-0.48c0.36,0.02,0.62,0.04,0.87,0.09c0.23,0.04,0.64,0.16,0.74,0.2
				c0.1,0.04,0.2,0.1,0.29,0.16c0.11,0.06,0.08,0.04,0.21,0.17c0.08,0.09,0.09,0.1,0.04,0.04c0.04,0.06,0.08,0.12,0.11,0.18
				c-0.03-0.08-0.02-0.05,0.02,0.09c-0.03,0.04-0.02,0,0.03-0.12c0.15-0.13,0.15-0.15,0.01-0.05c0.05-0.03,0.01-0.03-0.1,0.02
				c-0.15,0.05-0.31,0.07-0.47,0.1c-0.36,0.05-0.73,0.05-1.09,0.04c-0.8-0.02-1.59-0.17-2.37-0.34c-0.73-0.16-1.5-0.3-2.2-0.55
				c-0.12-0.04-0.22-0.08-0.34-0.15c-0.27-0.17,0.03-0.03-0.04,0.02c-0.03-0.12-0.03-0.12-0.02-0.02c0-0.12,0-0.13-0.01-0.01
				c-0.05,0.05-0.24,0.22-0.06,0.15c0.5-0.21,0.61-0.94,0.36-1.37c-0.3-0.51-0.87-0.57-1.37-0.36c-0.77,0.33-1.05,1.29-0.86,2.05
				c0.21,0.82,0.92,1.31,1.68,1.58c0.79,0.28,1.65,0.45,2.48,0.62c0.85,0.18,1.72,0.33,2.59,0.37c0.89,0.04,1.9,0,2.71-0.38
				c0.89-0.42,1.25-1.4,0.93-2.32c-0.53-1.49-2.1-2.02-3.53-2.17c-1.94-0.21-3.95,0-5.82,0.5
				C134.77,154.13,135.3,156.06,136.55,155.73L136.55,155.73z"/>
		</g>
	</g>
	<g>
		<path class="st2" d="M62.63,155.29c-1.75-2.17-4.55-3.46-7.34-3.38c-1,0.03-2.01,0.23-2.87,0.74s-1.56,1.34-1.75,2.32
			c-0.05,0.26-0.07,0.54,0.03,0.79c0.16,0.4,0.59,0.63,0.99,0.78c1.86,0.71,3.91,0.65,5.9,0.56c1.73-0.07,3.63-0.22,4.88-1.43"/>
		<g>
			<path class="st2" d="M63.34,154.59c-2.54-3.08-7.53-4.86-11.25-2.89c-1.62,0.85-3.53,3.51-1.82,5.16c0.75,0.72,2,0.97,3,1.13
				c1.15,0.18,2.3,0.2,3.46,0.16c2.25-0.07,4.69-0.14,6.44-1.75c0.95-0.87-0.47-2.28-1.41-1.41c-1.39,1.27-3.7,1.14-5.46,1.18
				c-1.12,0.02-2.24,0-3.33-0.26c-0.32-0.08-1.06-0.17-1.28-0.45c-0.18-0.23,0.09-0.71,0.22-0.94c0.99-1.68,3.45-1.79,5.15-1.44
				c1.93,0.39,3.62,1.42,4.87,2.94c0.34,0.42,1.06,0.36,1.41,0C63.75,155.59,63.69,155.01,63.34,154.59L63.34,154.59z"/>
		</g>
	</g>
	<g>
		<path class="st2" d="M73.65,163.22c-3.24-1.52-7.21-1.36-10.31,0.41c-0.64,0.37-1.33,0.99-1.15,1.71c0.2,0.8,1.26,0.95,2.09,0.9
			c2.97-0.2,5.9-0.91,8.62-2.11c0.52-0.23,1.11-0.58,1.16-1.15"/>
		<g>
			<path class="st2" d="M74.16,162.35c-1.85-0.85-3.86-1.27-5.9-1.15c-1.95,0.11-4.09,0.63-5.71,1.75
				c-0.82,0.56-1.53,1.43-1.34,2.48c0.16,0.9,0.89,1.49,1.75,1.69c0.96,0.23,1.99,0.07,2.95-0.06c1.1-0.14,2.18-0.34,3.25-0.61
				c1.19-0.3,2.37-0.69,3.51-1.16c0.97-0.4,2.16-0.88,2.36-2.06c0.09-0.53-0.14-1.08-0.7-1.23c-0.48-0.13-1.14,0.16-1.23,0.7
				c-0.06,0.32-0.42,0.42-0.7,0.55c-0.45,0.2-0.91,0.38-1.38,0.54c-1.02,0.37-2.07,0.67-3.13,0.91c-0.97,0.22-1.96,0.38-2.95,0.47
				c-0.31,0.03-1.55,0.26-1.78-0.11c0,0.07,0,0.07,0.02-0.01c0.04-0.08,0.09-0.15,0.16-0.2c0.11-0.11,0.23-0.2,0.36-0.28
				c0.41-0.26,0.86-0.48,1.31-0.66c0.82-0.33,1.69-0.56,2.56-0.67c1.88-0.24,3.85,0.03,5.57,0.82c0.49,0.22,1.08,0.14,1.37-0.36
				C74.77,163.29,74.65,162.58,74.16,162.35L74.16,162.35z"/>
		</g>
	</g>
</g>
<g id="Ebene_8">
	<circle class="st3" cx="103.39" cy="103.16" r="3.5"/>
	<circle class="st3" cx="118.19" cy="107.57" r="3.5"/>
</g>
<g id="Ebene_33">
	<g>
		<g>
			<path d="M95.28,53.6c1.29,6.69,6.17,13.04,13.18,14.2c6.45,1.07,13.36-2.31,14.78-9.05c0.74-3.52-0.07-7.25-2.58-9.89
				c-0.32,0.56-0.65,1.11-0.97,1.67c6.27,2.45,12.51-3.34,13.57-9.26c1.05-5.85-2.27-11.53-8.32-12.51
				c-3.08-0.5-6.28,0.31-8.47,2.61c0.47,0.47,0.94,0.94,1.41,1.41c4.47-5.38,3.3-13.88-3.28-16.98c-6.22-2.93-13.52,1.11-14.26,7.97
				c0.67,0,1.33,0,2,0c-0.2-6.32-1.29-14.31-8.39-16.43c-2.79-0.84-5.79-0.05-7.75,2.13c-1.95,2.17-2.75,5.12-2.88,7.97
				c-0.06,1.29,1.94,1.28,2,0c0.31-6.54-4.54-12.63-10.75-14.4c-6.3-1.79-12.68,1.7-15.62,7.33c-1.62,3.11-2.16,6.68-1.25,10.09
				c0.28,1.06,2.06,0.89,1.96-0.27c-0.5-5.86-5.2-10.83-11.12-11.33c-6.04-0.52-11.85,3.63-13.23,9.53
				c-0.79,3.4-0.23,7.02,1.61,9.99c0.58,0.94,2.16,0.34,1.83-0.77c-0.87-2.91-3.11-5.08-5.91-6.17c-3.04-1.18-6.4-0.74-9.29,0.65
				c-5.67,2.72-10.48,10.01-7.55,16.29c1.41,3.02,4.49,5.26,7.9,5.05c1.05-0.07,1.44-1.77,0.27-1.96
				c-3.96-0.65-8.38-0.31-11.76,2.05c-3.62,2.53-5.09,7.06-4.61,11.35c0.87,7.84,8.2,14.87,16.3,11.68c3.9-1.54,6.97-5.06,7.02-9.37
				c0.01-1.11-1.7-1.38-1.96-0.27c-1.11,4.75,2.46,9.88,7.39,10.25c5.13,0.38,9.21-4.72,8.55-9.58c-0.15-1.13-1.98-0.84-1.96,0.27
				c0.06,4.53,4.95,7.42,9.13,6.54c4.87-1.03,7.34-6.51,7.22-11.06c-0.03-1.29-1.93-1.28-2,0c-0.23,4.31,4.51,7.05,8.39,6.33
				c4.88-0.91,7.2-6.34,7.52-10.76c0.09-1.22-1.57-1.22-1.96-0.27c-2.45,5.92,1.69,12.66,7.27,14.94
				c6.91,2.82,14.72-0.98,19.37-6.16c0.86-0.96-0.55-2.37-1.41-1.41c-4.06,4.53-10.69,8.05-16.84,5.87
				c-4.96-1.75-8.57-7.61-6.46-12.71c-0.65-0.09-1.31-0.18-1.96-0.27c-0.25,3.4-1.87,7.63-5.47,8.69c-2.78,0.82-6.61-1.08-6.44-4.27
				c-0.67,0-1.33,0-2,0c0.09,3.53-1.51,7.76-5.16,8.97c-3.01,1-7.14-1.03-7.19-4.45c-0.65,0.09-1.31,0.18-1.96,0.27
				c0.49,3.64-2.92,7.37-6.62,7.05c-3.61-0.32-6.27-4.26-5.46-7.71c-0.65-0.09-1.31-0.18-1.96-0.27c-0.04,3.11-2.08,5.67-4.77,7.08
				c-2.9,1.52-6.26,1.45-9.05-0.28c-5.73-3.56-8.02-13.51-2.47-18.26c2.9-2.49,7.17-2.91,10.81-2.31c0.09-0.65,0.18-1.31,0.27-1.96
				c-3.11,0.19-5.78-2.19-6.54-5.13c-0.89-3.44,0.83-7.11,3.19-9.56c2.38-2.48,5.79-4.25,9.3-3.96c3.12,0.25,6.07,2.33,6.98,5.37
				c0.61-0.26,1.22-0.51,1.83-0.77c-3.58-5.79-1.17-13.71,5.41-15.95c6.21-2.11,13.02,2.14,13.59,8.77
				c0.65-0.09,1.31-0.18,1.96-0.27c-1.76-6.56,2.97-14.04,9.68-15.24c7.3-1.3,14.35,5.56,14.01,12.75c0.67,0,1.33,0,2,0
				c0.1-2.31,0.72-4.79,2.29-6.56c1.69-1.9,4.24-2.35,6.55-1.35c5.5,2.38,6.01,9.04,6.18,14.24c0.04,1.31,1.86,1.26,2,0
				c0.6-5.51,6.76-8.52,11.57-6.08c5.12,2.59,6.14,9.36,2.55,13.68c-0.81,0.97,0.51,2.36,1.41,1.41c1.96-2.06,4.91-2.59,7.6-1.87
				c2.94,0.79,5.1,3,5.78,5.98c1.37,6.04-4.26,14.35-11.04,11.7c-0.98-0.38-1.61,1-0.97,1.67c2.45,2.57,2.85,6.51,1.53,9.73
				c-1.36,3.33-4.56,5.39-8.05,5.89c-8,1.14-14.09-5.5-15.51-12.84C96.97,51.81,95.04,52.34,95.28,53.6L95.28,53.6z"/>
		</g>
	</g>
	<g>
		<g>
			<path d="M89.3,61.73c-4.03,4.31-9.32,7.02-14.51,9.66c0.49,0.2,0.98,0.4,1.47,0.6c-0.68-3.71-0.93-7.48-0.77-11.24
				c0.05-1.29-1.95-1.28-2,0c-0.17,3.95,0.13,7.89,0.84,11.77c0.12,0.67,0.94,0.87,1.47,0.6c5.34-2.72,10.77-5.54,14.92-9.97
				C91.59,62.2,90.18,60.78,89.3,61.73L89.3,61.73z"/>
		</g>
	</g>
	<g>
		<g>
			<path d="M61.59,58.54c-0.93,6.05-1.61,12.13-2.04,18.23c0.57-0.24,1.14-0.47,1.71-0.71c-4.33-4.67-8.6-9.38-12.82-14.14
				c-0.86-0.96-2.27,0.45-1.41,1.41c4.22,4.76,8.5,9.47,12.82,14.14c0.63,0.68,1.65,0.11,1.71-0.71c0.42-5.92,1.07-11.83,1.97-17.7
				C63.71,57.82,61.78,57.27,61.59,58.54L61.59,58.54z"/>
		</g>
	</g>
	<g>
		<g>
			<path d="M39.96,66.18c7.76,7.54,11.73,18.09,12.62,28.74c0.98,11.84-1.85,23.53-6.13,34.5c-2.64,6.76-5.84,13.28-9.14,19.74
				c-0.58,1.14,1.14,2.16,1.73,1.01c10.88-21.32,21.43-46.22,12.25-70.12c-2.2-5.74-5.49-10.99-9.91-15.28
				C40.45,63.87,39.03,65.28,39.96,66.18L39.96,66.18z"/>
		</g>
	</g>
	<g>
		<g>
			<path d="M98.53,61.7c-5.83,4.6-11.74,9.26-16.39,15.1c-4.43,5.56-7.5,12.07-9.25,18.96c-1.69,6.65-2.36,13.82-1.62,20.65
				c0.7,6.46,2.62,12.77,4.77,18.87c2.42,6.85,5.27,13.52,8.14,20.19c0.51,1.18,2.23,0.16,1.73-1.01
				c-4.94-11.5-10.29-23.31-12.32-35.74c-1.07-6.56-0.68-13.49,0.67-19.98c1.4-6.74,4.01-13.23,8.03-18.84
				c4.76-6.65,11.3-11.77,17.66-16.79C100.95,62.32,99.53,60.91,98.53,61.7L98.53,61.7z"/>
		</g>
	</g>
	<g>
		<g>
			<path d="M34.56,142.1c1.05,2.8,2.11,5.59,3.16,8.39c0.19,0.51,0.68,0.85,1.23,0.7c0.48-0.13,0.89-0.72,0.7-1.23
				c-1.05-2.8-2.11-5.59-3.16-8.39c-0.19-0.51-0.68-0.85-1.23-0.7C34.77,141,34.37,141.59,34.56,142.1L34.56,142.1z"/>
		</g>
	</g>
	<g>
		<g>
			<path d="M30.72,146.27c0.25,1.57,0.83,3.09,1.66,4.44c0.27,0.44,0.91,0.66,1.37,0.36c0.45-0.29,0.65-0.89,0.36-1.37
				c-0.19-0.32-0.38-0.64-0.54-0.97c-0.09-0.18-0.18-0.35-0.25-0.54c0.01,0.03,0.03,0.07,0.04,0.1c-0.02-0.05-0.04-0.09-0.06-0.14
				c-0.04-0.09-0.07-0.18-0.11-0.28c-0.26-0.7-0.44-1.41-0.56-2.15c-0.08-0.52-0.76-0.85-1.23-0.7
				C30.85,145.23,30.63,145.72,30.72,146.27L30.72,146.27z"/>
		</g>
	</g>
	<g>
		<g>
			<path d="M27.13,147.62c0,0.75,0,1.5,0,2.25c0,0.26,0.11,0.53,0.29,0.71c0.17,0.17,0.46,0.3,0.71,0.29c0.54-0.02,1-0.44,1-1
				c0-0.75,0-1.5,0-2.25c0-0.26-0.11-0.53-0.29-0.71c-0.17-0.17-0.46-0.3-0.71-0.29C27.59,146.64,27.13,147.06,27.13,147.62
				L27.13,147.62z"/>
		</g>
	</g>
	<g>
		<g>
			<path d="M136.61,85.74c-3.6-3.98-8.21-7.28-13.57-8.27c-4.47-0.82-9.01,0.01-13.04,2.06c-7.8,3.98-13.66,12.25-14.71,20.95
				c-0.5,4.13,0.27,8.44,2.6,11.93c2.8,4.2,7.37,6.74,12.14,8.07c6.16,1.72,13.49,2.3,19.61,0.11c4.62-1.65,8.18-5.02,10.01-9.58
				c1.82-4.52,1.88-9.58,1.18-14.34c-0.69-4.72-2.2-9.39-4.48-13.58c-0.49-0.91-1.03-1.79-1.62-2.65c-0.72-1.05-2.46-0.06-1.73,1.01
				c2.41,3.52,4.05,7.56,5.09,11.69c1.1,4.35,1.58,9.02,0.75,13.47c-0.79,4.22-2.87,8.14-6.56,10.5c-5,3.2-11.46,3.21-17.14,2.4
				c-4.97-0.71-10.15-2.33-13.78-5.98c-2.71-2.73-4.14-6.39-4.22-10.22c-0.17-7.98,4.67-15.94,11.13-20.41
				c3.34-2.31,7.27-3.78,11.36-3.76c4.67,0.03,9.04,2.06,12.55,5.06c1.07,0.91,2.07,1.91,3.02,2.95
				C136.06,88.11,137.47,86.7,136.61,85.74L136.61,85.74z"/>
		</g>
	</g>
	<g>
		<g>
			<path d="M105.73,92.35c0.37,1.83,2.04,3.21,3.88,3.34c1.88,0.13,3.61-1.17,4.22-2.9c0.18-0.49-0.2-1.12-0.7-1.23
				c-0.56-0.13-1.04,0.17-1.23,0.7c-0.09,0.26,0.09-0.17-0.03,0.08c-0.03,0.06-0.07,0.13-0.1,0.19c-0.04,0.06-0.08,0.12-0.11,0.19
				c-0.14,0.23,0.12-0.13-0.05,0.08c-0.1,0.11-0.19,0.22-0.3,0.31c-0.02,0.02-0.24,0.19-0.07,0.07c-0.06,0.04-0.12,0.08-0.18,0.12
				c-0.14,0.09-0.28,0.16-0.42,0.23c0.13-0.06,0.04-0.01-0.04,0.01c-0.07,0.02-0.14,0.05-0.21,0.07c-0.08,0.02-0.17,0.04-0.25,0.06
				c-0.19,0.04,0.08,0-0.04,0.01c-0.16,0-0.32,0.01-0.48,0.01c-0.19-0.01,0.08,0.03-0.04,0c-0.07-0.02-0.14-0.03-0.21-0.05
				c-0.08-0.02-0.17-0.05-0.25-0.08c-0.18-0.05,0.06,0.04-0.04-0.01c-0.14-0.07-0.29-0.14-0.42-0.23c-0.02-0.01-0.21-0.15-0.11-0.07
				c0.1,0.07-0.08-0.07-0.1-0.09c-0.12-0.11-0.22-0.23-0.34-0.34c-0.08-0.08,0.07,0.11-0.03-0.04c-0.05-0.07-0.1-0.14-0.14-0.22
				c-0.04-0.06-0.07-0.13-0.1-0.19c-0.04-0.08-0.07-0.17-0.02-0.04c-0.06-0.17-0.11-0.33-0.14-0.5c-0.1-0.51-0.74-0.86-1.23-0.7
				C105.88,91.3,105.62,91.8,105.73,92.35L105.73,92.35z"/>
		</g>
	</g>
	<g>
		<g>
			<path d="M115.38,94.62c0.22,2.01,1.54,3.76,3.49,4.41c1.84,0.61,4.03-0.02,5.3-1.47c0.36-0.41,0.4-1.01,0-1.41
				c-0.36-0.36-1.06-0.41-1.41,0c-0.46,0.52-0.92,0.81-1.52,0.98c-0.16,0.05-0.33,0.08-0.5,0.11c0.14-0.02-0.03,0-0.09,0.01
				c-0.08,0.01-0.17,0.01-0.26,0.01c-0.17,0-0.34,0-0.51-0.03c0.18,0.02-0.13-0.03-0.14-0.03c-0.08-0.02-0.17-0.04-0.25-0.07
				c-0.08-0.02-0.16-0.05-0.24-0.08c0.12,0.05-0.05-0.02-0.09-0.04c-0.15-0.07-0.3-0.16-0.44-0.25c-0.04-0.02-0.19-0.13-0.09-0.05
				c-0.08-0.06-0.16-0.13-0.23-0.2c-0.13-0.12-0.24-0.24-0.35-0.37c-0.1-0.12-0.01-0.01-0.06-0.08c-0.05-0.07-0.1-0.14-0.14-0.21
				c-0.09-0.14-0.17-0.29-0.25-0.45c-0.13-0.26,0.03,0.14-0.05-0.14c-0.02-0.08-0.05-0.16-0.08-0.24c-0.02-0.08-0.04-0.16-0.06-0.25
				c-0.01-0.04-0.05-0.32-0.03-0.14c-0.06-0.54-0.42-1-1-1C115.88,93.62,115.32,94.08,115.38,94.62L115.38,94.62z"/>
		</g>
	</g>
	<g>
		<g>
			<path d="M103.9,103.43c0.78,2.83,2.88,5.15,5.62,6.21c2.86,1.11,6.31,0.56,8.73-1.3c0.43-0.33,0.66-0.86,0.36-1.37
				c-0.25-0.42-0.94-0.69-1.37-0.36c-2,1.53-4.62,2.03-7.01,1.16c-2.15-0.78-3.8-2.7-4.4-4.88
				C105.49,101.66,103.56,102.18,103.9,103.43L103.9,103.43z"/>
		</g>
	</g>
	<g>
		<g>
			<path d="M107.1,119.71c-2.36,8.59-8.2,15.93-16.03,20.18c-0.45,0.25-0.65,0.93-0.36,1.37c2.6,3.84,5.44,7.52,8.54,10.97
				c2.38,2.65,5.55,6.91,9.63,6.25c3.88-0.63,5.78-5.33,7.25-8.44c1.93-4.09,3.46-8.37,4.55-12.75c1.25-5.05,1.92-10.24,2.02-15.44
				c0.02-1.29-1.98-1.29-2,0c-0.16,8.19-1.8,16.31-4.87,23.91c-0.75,1.87-1.6,3.71-2.53,5.5c-0.79,1.54-1.62,3.2-2.95,4.35
				c-3.44,2.95-7.11-1.96-9.23-4.28c-3.16-3.47-6.05-7.18-8.68-11.07c-0.12,0.46-0.24,0.91-0.36,1.37
				c8.27-4.49,14.46-12.31,16.95-21.37C109.37,119,107.44,118.47,107.1,119.71L107.1,119.71z"/>
		</g>
	</g>
	<g>
		<g>
			<path d="M120.73,122.11c3.92,11.11,8.7,21.9,12.62,33.01c0.21,0.6,0.88,0.94,1.47,0.6c1.76-1.02,3.71-1.58,5.76-1.56
				c1.37,0.01,4.58,0.33,4.41,2.36c-0.15,1.82-4.01,0.95-5.15,0.77c-0.94-0.14-2.01-0.27-2.9-0.62c-0.53-0.21-1.85-1.17-0.83-1.67
				c1.15-0.57,0.14-2.3-1.01-1.73c-1.06,0.52-1.51,1.76-1.24,2.89c0.32,1.33,1.5,2.09,2.73,2.49c1.67,0.54,3.53,0.73,5.27,0.86
				c1.43,0.11,3.16,0.22,4.27-0.88c0.91-0.9,1.04-2.29,0.61-3.45c-0.51-1.36-1.77-2.18-3.1-2.61c-3.23-1.02-6.95-0.25-9.82,1.4
				c0.49,0.2,0.98,0.4,1.47,0.6c-3.92-11.11-8.7-21.9-12.62-33.01C122.24,120.37,120.3,120.89,120.73,122.11L120.73,122.11z"/>
		</g>
	</g>
	<g>
		<g>
			<path d="M91.64,139.42c-1.26-2.42-2.73-4.7-4.42-6.84c-1.52-1.92-3.22-3.97-5.53-4.94c-2.06-0.87-4.3-0.53-6.1,0.77
				c-1.98,1.42-3.07,3.58-3.97,5.79c-2.33,5.76-4.45,11.62-6.66,17.42c-0.46,1.2-0.78,2.87-1.55,3.91c-0.43,0.58-1.3,0.63-1.94,0.79
				c-0.88,0.21-1.75,0.41-2.63,0.62c-2.15,0.51-6.58,2.18-7.95-0.55c-0.77-1.53,0.64-3.04,1.98-3.58c1.26-0.51,2.73-0.57,4.07-0.37
				c2.71,0.41,5.15,1.97,6.65,4.26c0.7,1.07,2.43,0.07,1.73-1.01c-2.7-4.12-8.37-6.66-13.15-4.74c-2.26,0.91-4.07,3.25-3.29,5.78
				c0.78,2.52,3.69,3.34,6.03,3.07c1.51-0.17,2.99-0.59,4.47-0.94c1.49-0.35,3.33-0.49,4.68-1.25c1.01-0.58,1.38-1.65,1.78-2.68
				c0.65-1.7,1.3-3.4,1.95-5.1c1.24-3.24,2.48-6.49,3.72-9.73c1.12-2.94,1.98-6.55,4.07-8.98c5.57-6.48,12.15,5.07,14.36,9.31
				C90.51,141.57,92.24,140.56,91.64,139.42L91.64,139.42z"/>
		</g>
	</g>
	<g>
		<g>
			<path d="M92.95,140.25c-1.66-2.11-3.97-4.17-6.81-2.95c-2.61,1.12-4.24,4.11-5.3,6.59c-1.32,3.07-2.24,6.32-3.17,9.52
				c-1.03,3.55-1.93,7.13-2.72,10.73c0.23-0.23,0.47-0.47,0.7-0.7c-2.57,0.84-5.16,1.62-7.76,2.33c-1.31,0.35-2.77,0.92-4.13,0.91
				c-0.66,0-1.39-0.17-1.67-0.82c-0.29-0.65,0.23-1.23,0.71-1.65c3.44-3.02,9.29-2.37,12.82,0.01c1.07,0.72,2.07-1.01,1.01-1.73
				c-3.59-2.41-8.32-2.96-12.36-1.36c-1.75,0.69-3.84,1.84-4.25,3.86c-0.38,1.91,1.27,3.42,3.04,3.64c1.19,0.15,2.37-0.16,3.52-0.46
				c1.39-0.35,2.77-0.73,4.14-1.13c1.3-0.37,2.59-0.76,3.88-1.17c0.53-0.17,1.36-0.3,1.83-0.61c0.46-0.32,0.5-0.78,0.62-1.3
				c1.2-5.38,2.66-10.71,4.4-15.95c0.86-2.59,1.83-5.3,3.65-7.4c0.89-1.03,2.11-2.05,3.55-1.59c1.23,0.4,2.14,1.65,2.91,2.62
				C92.33,142.67,93.74,141.25,92.95,140.25L92.95,140.25z"/>
		</g>
	</g>
</g>
<g id="Ebene_9">
	<g class="st4">
		<path d="M25,25.26c4.33,6.69,11.73,10.66,18.97,13.98c9.09,4.16,18.46,7.72,28.01,10.66c0.12,3.12-1.85,6.34-4.84,7.22
			c-2.99,0.88-6.65-1.13-7.1-4.22c-1.47,3.41-3.35,7.03-6.75,8.5c-3.41,1.47-8.43-0.92-7.93-4.6c-0.57,4.32-4.04,8.4-8.39,8.64
			s-8.52-4.46-6.94-8.52c0.03,5.48-6.16,9.74-11.49,8.49C13.2,64.15,9.6,58.45,9.9,52.98c0.14-2.46,0.98-4.95,2.7-6.72
			c3.16-3.25,8.26-3.35,12.79-3.11c-4.3-0.35-8.02-4.26-8.16-8.57c-0.14-4.31,3.32-8.45,7.59-9.08"/>
		<g>
			<path d="M24.13,25.77c4.66,7.06,12.26,11.12,19.76,14.53c9.04,4.11,18.33,7.63,27.82,10.56c-0.24-0.32-0.49-0.64-0.73-0.96
				c0.03,2.68-1.51,5.6-4.26,6.3c-2.5,0.63-5.25-1.02-5.72-3.56c-0.15-0.8-1.49-1.02-1.83-0.24c-1.35,3.11-3.17,7.15-6.71,8.25
				c-2.55,0.79-6.41-0.75-6.12-3.83c0.11-1.11-1.8-1.38-1.96-0.27c-0.57,3.74-3.34,7.67-7.42,7.91c-3.67,0.21-7.26-3.62-5.98-7.26
				c-0.65-0.09-1.31-0.18-1.96-0.27c-0.05,3.05-2.12,5.54-4.78,6.83c-2.79,1.35-5.93,1.07-8.49-0.66
				c-5.29-3.59-7.11-13.13-1.26-17.12c3.13-2.13,7.28-2.01,10.9-1.82c1.3,0.07,1.26-1.87,0-2c-3.82-0.4-7.12-3.88-7.16-7.75
				c-0.04-3.92,3.07-7.3,6.86-7.94c1.27-0.22,0.73-2.14-0.53-1.93c-4.74,0.81-8.58,5.36-8.31,10.22c0.27,4.91,4.34,8.9,9.15,9.4
				c0-0.67,0-1.33,0-2c-3.93-0.2-8.33-0.21-11.76,2c-3.49,2.25-5.06,6.54-4.69,10.58c0.67,7.37,7.71,14.13,15.32,11.18
				c3.76-1.46,6.7-4.85,6.76-8.99c0.02-1.17-1.6-1.3-1.96-0.27c-1.63,4.66,2.59,9.53,7.24,9.79c5.2,0.29,9.3-4.61,10.02-9.38
				c-0.65-0.09-1.31-0.18-1.96-0.27c-0.38,3.98,4.01,6.4,7.52,5.98c4.73-0.56,7.33-5.5,9.03-9.39c-0.61-0.08-1.22-0.16-1.83-0.24
				c0.65,3.51,4.45,5.71,7.86,5.03c3.77-0.75,6.09-4.64,6.05-8.29c-0.01-0.45-0.31-0.83-0.73-0.96
				c-9.17-2.83-18.17-6.21-26.91-10.16c-7.29-3.3-14.94-7.13-19.48-14.01C25.15,23.69,23.42,24.69,24.13,25.77L24.13,25.77z"/>
		</g>
	</g>
	<g class="st4">
		<path d="M42.97,63.71c16.27,25.97,12.1,60.21,25.29,87.87c-9.81-1.08-19.63-2.16-29.44-3.24c6.34-12.48,12.35-25.39,14.37-39.24
			c2.02-13.85-0.44-28.94-9.49-39.61c-0.71-0.84-1.49-1.7-1.69-2.78c-0.21-1.08,0.46-2.41,1.55-2.45"/>
		<g>
			<path d="M42.11,64.21c12.88,20.7,12.93,46,18.71,69.03c1.62,6.47,3.72,12.81,6.58,18.84c0.29-0.5,0.58-1,0.86-1.5
				c-9.81-1.08-19.63-2.16-29.44-3.24c0.29,0.5,0.58,1,0.86,1.5c10.5-20.69,20.77-45.03,11.73-68.17c-1.08-2.76-2.4-5.42-4.02-7.9
				c-0.84-1.28-1.75-2.51-2.73-3.69c-0.58-0.7-3.01-3.54-0.84-3.87c1.27-0.19,0.73-2.12-0.53-1.93c-2.64,0.39-2.68,3.63-1.49,5.4
				c0.74,1.12,1.71,2.08,2.51,3.15c0.86,1.15,1.65,2.36,2.38,3.6c2.88,4.92,4.65,10.42,5.52,16.04c1.91,12.22-0.68,24.55-4.98,35.99
				c-2.63,6.99-5.9,13.71-9.28,20.36c-0.37,0.72,0.1,1.42,0.86,1.5c9.81,1.08,19.63,2.16,29.44,3.24c0.82,0.09,1.15-0.9,0.86-1.5
				c-10.41-21.96-9.83-47-17.16-69.89c-2.01-6.28-4.64-12.37-8.13-17.98C43.16,62.11,41.43,63.11,42.11,64.21L42.11,64.21z"/>
		</g>
	</g>
	<g class="st4">
		<path d="M54.16,152.6c0.86,1.72,2.29,3.14,4.01,3.99c-1.48,0.82-3.09,1.66-4.78,1.47c-1.68-0.19-3.27-1.94-2.63-3.51
			c0.4-0.98,1.45-1.49,2.42-1.91"/>
		<g>
			<path d="M53.29,153.11c0.95,1.86,2.5,3.41,4.37,4.35c0-0.58,0-1.15,0-1.73c-0.99,0.54-2.01,1.1-3.13,1.31
				c-0.21,0.04-0.45,0.05-0.69,0.05c-0.15,0-0.3,0-0.45-0.03c0.18,0.03-0.13-0.04-0.14-0.04c-0.33-0.08-0.73-0.3-0.96-0.5
				c-0.09-0.08-0.18-0.16-0.26-0.25c-0.02-0.02-0.19-0.24-0.1-0.11c-0.06-0.08-0.11-0.17-0.16-0.25c-0.03-0.06-0.06-0.12-0.09-0.17
				c0.04,0.09,0.03,0.08-0.01-0.03c-0.03-0.09-0.05-0.18-0.07-0.28c0.04,0.2,0-0.06,0-0.11c0-0.06,0-0.13,0.01-0.19
				c-0.02,0.11-0.01,0.1,0.01-0.02c0.01-0.03,0.09-0.29,0.03-0.14c0.11-0.26,0.18-0.32,0.32-0.46c0.18-0.18,0.18-0.18,0.37-0.3
				c0.42-0.28,0.88-0.49,1.33-0.69c0.49-0.22,0.61-0.94,0.36-1.37c-0.3-0.51-0.87-0.58-1.37-0.36c-0.89,0.39-1.78,0.85-2.39,1.64
				c-0.64,0.82-0.86,1.92-0.49,2.91c0.35,0.96,1.07,1.76,1.97,2.25c1.03,0.55,2.17,0.61,3.3,0.4c1.29-0.24,2.48-0.88,3.61-1.51
				c0.63-0.35,0.67-1.39,0-1.73c-1.61-0.81-2.83-2.02-3.65-3.63c-0.25-0.48-0.92-0.62-1.37-0.36
				C53.16,152.03,53.05,152.63,53.29,153.11L53.29,153.11z"/>
		</g>
	</g>
	<g class="st4">
		<path d="M66.58,162.33c0.96,1.46,2.8,2.29,4.53,2.05c-2.25,1.5-4.85,2.46-7.53,2.79c-0.47,0.06-1.02,0.06-1.32-0.29
			c-0.23-0.27-0.24-0.65-0.2-1c0.2-1.75,1.57-3.32,3.28-3.75"/>
		<g>
			<path d="M65.72,162.84c1.18,1.74,3.28,2.81,5.4,2.55c-0.17-0.62-0.34-1.24-0.5-1.86c-2.1,1.38-4.52,2.36-7.03,2.65
				c-0.22,0.03-0.45-0.01-0.64,0c0.17-0.01,0.08,0.22,0.11-0.17c0.03-0.39,0.19-0.84,0.39-1.21c0.47-0.84,1.23-1.46,2.16-1.71
				c1.24-0.34,0.71-2.27-0.53-1.93c-1.41,0.38-2.64,1.35-3.36,2.63c-0.72,1.29-1.23,3.61,0.58,4.27c0.75,0.27,1.58,0.09,2.34-0.04
				c0.84-0.14,1.66-0.34,2.47-0.61c1.59-0.52,3.12-1.25,4.52-2.17c0.37-0.25,0.58-0.69,0.46-1.13c-0.11-0.39-0.54-0.79-0.96-0.73
				c-1.41,0.17-2.86-0.36-3.67-1.56c-0.3-0.45-0.88-0.64-1.37-0.36C65.64,161.73,65.41,162.39,65.72,162.84L65.72,162.84z"/>
		</g>
	</g>
	<g class="st4">
		<path d="M113.76,79.54c-5.6,2.62-10.55,6.94-13.12,12.57c-2.56,5.63-2.46,12.6,0.99,17.72c3.2,4.76,8.7,7.39,14.07,9.39
			c-3.94-0.5-8.03-1.06-11.39-3.18c-5.65-3.56-7.98-11.05-6.75-17.61c1.24-6.56,5.48-12.22,10.49-16.63"/>
		<g>
			<path d="M113.25,78.68c-6.54,3.11-12.32,8.49-14.48,15.57c-2.2,7.2-0.32,15.11,5.53,19.99c3.27,2.73,7.18,4.46,11.14,5.95
				c0.09-0.65,0.18-1.31,0.27-1.96c-4.41-0.57-9.21-1.23-12.62-4.36c-2.73-2.52-4.3-6.13-4.72-9.78c-0.99-8.55,4.3-16.15,10.4-21.55
				c0.97-0.85-0.45-2.27-1.41-1.41c-5.39,4.78-10.04,11.05-10.95,18.38c-0.79,6.33,1.49,13.26,6.82,17.04
				c3.63,2.57,8.19,3.15,12.48,3.7c1.19,0.15,1.24-1.6,0.27-1.96c-6.2-2.32-12.89-5.67-15.19-12.36
				c-2.26-6.57-0.16-13.77,4.37-18.83c2.54-2.84,5.68-5.02,9.11-6.65C115.42,79.85,114.41,78.13,113.25,78.68L113.25,78.68z"/>
		</g>
	</g>
	<g class="st4">
		<path d="M138.89,154.16c1.4,0.91,2.8,1.81,4.2,2.72c-1.1,0.34-2.28,0.04-3.4-0.26c-0.82-0.22-1.67-0.46-2.29-1.04
			s-0.9-1.61-0.39-2.29"/>
		<g>
			<path d="M138.39,155.03c1.4,0.91,2.8,1.81,4.2,2.72c0.08-0.61,0.16-1.22,0.24-1.83c-0.59,0.17-1.21,0.13-1.83,0
				c-0.67-0.14-1.34-0.31-1.98-0.54c-0.06-0.02-0.12-0.04-0.18-0.07c-0.29-0.11,0.08,0.04-0.08-0.03c-0.15-0.07-0.29-0.14-0.43-0.23
				c-0.02-0.02-0.2-0.14-0.07-0.04c-0.06-0.05-0.12-0.1-0.18-0.16c-0.05-0.05-0.1-0.1-0.14-0.16c0.06,0.07,0.05,0.07,0-0.01
				c-0.03-0.06-0.07-0.13-0.11-0.19c-0.06-0.09,0.03,0.13-0.02-0.04c-0.02-0.07-0.04-0.14-0.06-0.21c-0.02-0.08,0.01-0.21-0.01-0.02
				c0-0.05,0-0.11,0-0.17c0-0.22-0.04,0.09,0-0.02c0.04-0.09,0.05-0.15-0.01-0.03c0.04-0.08,0.08-0.14,0.13-0.21
				c0.3-0.43,0.09-1.13-0.36-1.37c-0.51-0.27-1.05-0.1-1.37,0.36c-0.54,0.77-0.47,1.78-0.1,2.6c0.36,0.77,1.06,1.34,1.83,1.68
				c0.81,0.35,1.67,0.59,2.53,0.77c0.97,0.21,1.98,0.29,2.95,0.01c0.85-0.25,0.96-1.36,0.24-1.83c-1.4-0.91-2.8-1.81-4.2-2.72
				c-0.44-0.28-1.12-0.1-1.37,0.36C137.77,154.16,137.92,154.72,138.39,155.03L138.39,155.03z"/>
		</g>
	</g>
	<g class="st4">
		<path d="M109.25,121.08c-4.14,11.31-4.72,23.9-1.63,35.54c-5.23-4.39-10.56-8.9-13.99-14.81c-0.12-0.21-0.24-0.43-0.24-0.67
			c0-0.34,0.24-0.63,0.47-0.89c5.88-6.58,13.39-12.59,15.25-21.21"/>
		<g>
			<path d="M108.28,120.81c-4.18,11.54-4.73,24.21-1.63,36.08c0.56-0.32,1.11-0.65,1.67-0.97c-3.27-2.75-6.56-5.51-9.44-8.68
				c-1.47-1.61-2.81-3.33-3.96-5.19c-0.23-0.37-0.5-0.63-0.37-1.07c0.1-0.35,0.79-0.87,1.04-1.14c0.66-0.71,1.33-1.42,2.01-2.12
				c5.14-5.36,10.77-10.89,12.47-18.4c0.28-1.25-1.64-1.79-1.93-0.53c-1.85,8.14-8.53,13.77-13.96,19.63
				c-0.58,0.63-1.41,1.31-1.69,2.14c-0.31,0.93,0.24,1.74,0.71,2.49c1.09,1.76,2.35,3.41,3.71,4.96c3.01,3.44,6.51,6.39,10,9.32
				c0.74,0.62,1.94,0.05,1.67-0.97c-3.01-11.55-2.42-23.8,1.63-35.01C110.65,120.13,108.72,119.61,108.28,120.81L108.28,120.81z"/>
		</g>
	</g>
</g>
<g id="Ebene_10">
	<g class="st4">
		<g>
			<path class="st2" d="M79.2,24.08c3.69,1.53,7.69,1.68,11.54,2.54c3.17,0.7,6.18,1.95,8.95,3.64c5.44,3.32,9.83,8.3,12.52,14.07
				c1.56,3.34,2.49,6.96,2.72,10.63c0.08,1.28,2.08,1.29,2,0c-0.85-13.5-10.62-25.82-23.59-29.73c-4.47-1.35-9.27-1.28-13.61-3.08
				C78.55,21.65,78.03,23.59,79.2,24.08L79.2,24.08z"/>
		</g>
	</g>
	<g class="st4">
		<g>
			<path class="st2" d="M74.95,76.43c-9.26,14.68-8.65,32.63-6.34,49.16c0.18,1.27,2.11,0.73,1.93-0.53
				c-2.24-16-2.83-33.43,6.13-47.62C77.36,76.35,75.63,75.35,74.95,76.43L74.95,76.43z"/>
		</g>
	</g>
</g>
</svg>
