<?xml version="1.0" encoding="utf-8"?>
<!-- Generator: Adobe Adobe Illustrator 24.2.0, SVG Export Plug-In . SVG Version: 6.00 Build 0)  -->
<svg version="1.1" xmlns="http://www.w3.org/2000/svg" xmlns:xlink="http://www.w3.org/1999/xlink" x="0px" y="0px"
	 viewBox="0 0 2000 2000" style="enable-background:new 0 0 2000 2000;" xml:space="preserve">
<style type="text/css">
	.st0{opacity:0.6902;fill:#3D4D5A;stroke:#3D4D5A;stroke-miterlimit:10;}
	.st1{fill:#3D4D5A;}
	.st2{fill:#3D4D5B;}
	.st3{fill:#FFFFFF;}
	.st4{opacity:0.0784;}
	.st5{fill:#CB5A7B;}
</style>
<g id="Ebene_8">
</g>
<g id="Ebene_13">
	<ellipse class="st0" cx="390.01" cy="1859.01" rx="249.91" ry="50.22"/>
	<ellipse class="st0" cx="985.34" cy="1823.59" rx="222.27" ry="39.78"/>
	<ellipse class="st0" cx="1613.7" cy="1831.62" rx="239.67" ry="55"/>
</g>
<g id="Ebene_10">
</g>
<g id="Ebene_12">
	<g>
		<g>
			<path class="st1" d="M480.7,1816.91c0.29,0,0.58-0.5,0.87-0.5C481.27,1816.41,480.98,1816.91,480.7,1816.91L480.7,1816.91z"/>
		</g>
	</g>
</g>
<g id="Ebene_9">
	<g>
		<path class="st1" d="M206.5,628.47c-20.51-12.09-49.67-6.34-64.08,12.61c-14.4,18.96-12.11,48.59,5.03,65.11
			c17.14,16.52,46.84,17.71,65.25,2.62c-5.72,9.17,2.04,21.94,12.32,25.3s21.43,0.19,31.7-3.17
			c119.52-39.15,229.35-107.53,317.24-197.51c-49.15-54.2-129.72-77.61-200.26-58.18c-70.54,19.43-127.77,80.78-142.24,152.5"/>
		<g>
			<path class="st2" d="M219.46,625.82c-29.33-16.67-80.74-11.65-96.41,22.05c-6.72,14.46-6.54,30.73-0.1,45.25
				c7.08,15.95,22.2,25.44,38.73,29.34c20.83,4.91,46.73,2.69,63.98-10.99c-9.14-1.35-18.28-2.7-27.42-4.05
				c-6.81,12.22,2.83,25.06,14.36,29.69c18.42,7.4,39.06,2.74,57.12-3.25c29.21-9.67,57.79-21.15,85.69-34.11
				c55.51-25.79,108-58.05,156.09-95.92c27.09-21.33,52.81-44.36,76.93-69c0.71-0.93,0.71-1.86,0-2.79
				c-42.59-46.58-106.26-70.26-168.83-68.73c-32.21,0.79-63.74,7.89-92.65,22.25c-26.08,12.95-49.44,31.8-68,54.21
				c-20.99,25.36-35.84,55.72-42.48,87.99c-1.22,5.91,28.24,8.53,30,0c10.86-52.75,44.81-99.9,90.55-128.11
				c11.22-6.92,23.06-12.67,35.51-17.01c6.26-2.18,11.93-3.81,18.22-5.19c7.52-1.65,11.43-2.26,18.62-2.96
				c1.49-0.15,2.98-0.27,4.48-0.38c0.67-0.05,5.15-0.29,2.75-0.2c3.49-0.14,6.99-0.18,10.49-0.14c1.75,0.02,3.5,0.07,5.25,0.14
				c1.78,0.07,0.07,0.01-0.24-0.01c1,0.06,2,0.12,2.99,0.2c3.49,0.26,6.98,0.6,10.45,1.03c4.8,0.6,12.17,1.95,18.57,3.46
				c6.11,1.45,12.33,3.33,18.57,5.54c29.28,10.36,55.85,27.78,76.81,50.7c0-0.93,0-1.86,0-2.79
				c-77.91,79.59-173.02,142.37-277.04,182.28c-14.27,5.48-28.93,11.51-43.8,15.16c-0.5,0.12-3.07,0.68-3.55,0.74
				c-1.92,0.25-2.37,0.27-1.35,0.07c2.43,0.25,3.06,0.29,1.88,0.12c0.26,0.57-2.77-1.49-2.35-1.22c-1.32-0.87-2.39-1.93-3.4-3.14
				c-3.64-4.38-5.65-10.55-2.71-15.83c2.43-4.35-6.24-5.83-8.68-6.19c-5.21-0.77-14.26-1.4-18.73,2.15
				c-3.88,3.08-9.52,6.26-13.19,7.23c-0.89,0.24-1.81,0.41-2.72,0.58c0.29-0.05,1.75-0.21,0.14-0.01c-0.69,0.09-1.39,0.15-2.08,0.21
				c0.27-0.02,2.27-0.04,0.5-0.04c-0.7,0-1.4,0.01-2.1-0.01c0.79,0.02,2.51,0.44-0.19-0.09c-0.02,0-2.29-0.35-0.97-0.12
				c1.13,0.2-1.41-0.33-1.63-0.38c-3.68-0.88-9.52-3.73-13.39-6.81c-4.64-3.69-8.36-8.69-11.06-13.95
				c-11.01-21.45-4.21-50.32,17.57-61.86c2.3-1.22,5.57-2.43,7.37-2.89c-0.42,0.11,3.96-0.74,1.49-0.37c0.67-0.1,1.34-0.14,2-0.22
				c2.32-0.29-2.3-0.02,0.03-0.04c0.44,0,3.26,0.06,1.36-0.03c-1.76-0.09,1.04,0.13,1.34,0.16c1.61,0.18,0,0.01-0.28-0.04
				c0.87,0.17,1.75,0.33,2.61,0.55c-0.29-0.07-1.14-0.33,0.18,0.08c1.06,0.33,2.12,0.68,3.15,1.12c1.28,0.55,2.45,1.19,3.67,1.89
				c5.83,3.31,14.14,3.24,20.52,1.88C216.99,632.38,225.32,629.15,219.46,625.82L219.46,625.82z"/>
		</g>
	</g>
	<g>
		<path class="st1" d="M1735.11,782.02c35.6-57.99,37.7-135.03,5.34-194.88s-97.99-100.26-166-102.23
			c-68.02-1.96-135.86,34.59-171.62,92.48c41.1,3.67,83.42-8.8,115.96-34.17c-7.1,19.96-14.2,39.92-21.3,59.88
			c29.68-8.99,59.37-17.98,89.05-26.97c5.54,20.84,11.08,41.68,16.62,62.53c14.26-11.78,28.53-23.57,42.79-35.35
			c2.28,25.51,4.57,51.01,6.85,76.52c14.97-8.27,29.93-16.53,44.9-24.8c0.22,21.89,0.44,43.79,0.67,65.68"/>
		<g>
			<path class="st2" d="M1749.58,783.42c44.21-72.75,36.77-170.75-20.6-234.24c-57.99-64.17-152.81-85.48-233.83-57.08
				c-43.55,15.27-82.27,44.59-106.79,83.9c-2.95,4.72,8.41,6.28,10.48,6.46c46.85,3.94,95.35-7.62,132.9-36.59
				c-9.32-0.88-18.63-1.77-27.95-2.65c-7.1,19.96-14.2,39.92-21.3,59.88c-1.08,3.05,8.3,4.66,9.22,4.8
				c5.46,0.81,11.09,0.52,16.39-1.09c29.68-8.99,59.37-17.98,89.05-26.97c-8.54-1.24-17.07-2.47-25.61-3.71
				c5.54,20.84,11.08,41.68,16.62,62.53c1.06,3.98,7.72,4.74,11.01,5.06c4.78,0.47,12.97,0.86,16.94-2.41
				c14.26-11.78,28.53-23.57,42.79-35.35c-9.32-0.88-18.63-1.77-27.95-2.65c2.28,25.51,4.57,51.01,6.85,76.52
				c0.35,3.93,8.36,4.8,11.01,5.06c5.5,0.54,12,0.32,16.94-2.41c14.97-8.27,29.93-16.53,44.9-24.8c-9.32-0.88-18.63-1.77-27.95-2.65
				c0.22,21.89,0.44,43.79,0.67,65.68c0.08,7.54,30.08,7.51,30,0c-0.22-21.89-0.44-43.79-0.67-65.68
				c-0.04-3.87-8.64-4.83-11.01-5.06c-5.5-0.54-12-0.32-16.94,2.41c-14.97,8.27-29.93,16.53-44.9,24.8
				c9.32,0.88,18.63,1.77,27.95,2.65c-2.28-25.51-4.57-51.01-6.85-76.52c-0.35-3.93-8.36-4.8-11.01-5.06
				c-4.78-0.47-12.97-0.86-16.94,2.41c-14.26,11.78-28.53,23.57-42.79,35.35c9.32,0.88,18.63,1.77,27.95,2.65
				c-5.54-20.84-11.08-41.68-16.62-62.53c-0.95-3.59-6.21-4.35-9.22-4.8c-5.46-0.81-11.09-0.52-16.39,1.09
				c-29.68,8.99-59.37,17.98-89.05,26.97c8.54,1.24,17.07,2.47,25.61,3.71c7.1-19.96,14.2-39.92,21.3-59.88
				c1.22-3.44-9.81-4.94-11.01-5.06c-4.92-0.49-12.79-0.79-16.94,2.41c-15.07,11.63-31.87,20.55-50.05,26.2
				c-7.9,2.46-16.73,4.28-24.01,5.12c-2.46,0.28-4.92,0.51-7.39,0.68c-0.31,0.02-3.01,0.17-2.12,0.13c1.12-0.05-2.56,0.05-2.95,0.06
				c-2.2,0.03-4.4,0-6.6-0.04c-1.63-0.03-2.77-0.12-5.89-0.39c3.49,2.15,6.98,4.31,10.48,6.46c20.03-32.11,49.64-57.94,84.21-73.39
				c8.55-3.82,17.43-7.04,26.46-9.54c8.02-2.22,17.66-4.02,24.66-4.8c2.52-0.28,5.04-0.51,7.57-0.69c1.01-0.07,2.02-0.14,3.03-0.19
				c-2.37,0.12,0.2,0,0.57,0c2.54-0.04,5.07-0.1,7.61-0.07c1.02,0.01,2.03,0.04,3.05,0.06c4.87,0.09-2.85-0.25,2.01,0.08
				c10.02,0.69,16.2,1.51,26.04,3.72c34.94,7.88,68.36,27.5,93.47,53.61c27.13,28.21,44.58,64.02,50.25,102.74
				c6.56,44.78-2.01,91.53-25.56,130.3c-2.88,4.75,7.96,6.21,10.48,6.46C1735.45,787.51,1746.71,788.12,1749.58,783.42
				L1749.58,783.42z"/>
		</g>
	</g>
	<g>
		<path class="st1" d="M1710.92,732.21c11.75,0.82,21.52,12.69,20.07,24.37"/>
		<g>
			<path class="st2" d="M1706.93,737.27c-2.65-0.28-0.11,0.34,1.05,1.15c1.87,1.31,3.38,3.04,4.67,4.92
				c2.77,4.01,3.75,8.42,3.33,13.24c-0.6,6.86,29.29,8.08,30,0c1.59-18.03-15.46-27.78-31.08-29.44
				c-4.59-0.49-15.54-1.04-18.45,3.67C1693.52,735.56,1704.83,737.05,1706.93,737.27L1706.93,737.27z"/>
		</g>
	</g>
</g>
<g id="Ebene_7">
	<g>
		<path class="st3" d="M1398.32,593.25c-32.94,58.55-32.32,134.56,1.58,192.57s99.81,95.86,166.99,95.9
			c67.19,0.04,133.15-37.72,167.12-95.69c-22.64-0.14-41.53-19.47-48.63-40.97c-7.09-21.5-4.99-44.81-2.8-67.35
			c-6.41,12.13-22.46,18.12-35.24,13.14s-20.57-20.23-17.1-33.5c1.73-6.61,5.81-12.48,7.04-19.2c1.23-6.72-2.16-15.25-8.97-15.77
			c-10.92-0.83-11.84,15.92-18.56,24.58c-9.64,12.4-31.74,3.7-36.88-11.14c-5.14-14.84,0.8-31,6.67-45.57
			c-15.84,5.27-29.95,14.93-45.81,20.16c-15.86,5.23-35.43,4.95-46.83-7.25c-11.4-12.2-5.58-37.57,11.1-38.37
			c-30.35,13.53-61.34,25.61-92.84,36.18"/>
		<g>
			<path class="st3" d="M1383.85,591.86c-41.26,74.11-30.04,171.4,29.86,232.16c59.64,60.5,153.84,78.89,232.7,48.27
				c42.07-16.34,78.98-45.86,102.06-84.86c3.42-5.78-12.39-6.6-14.46-6.65c1.94,0.05-0.9-0.2-0.59-0.12
				c-1.88-0.52-3.73-1.21-5.48-2.07c-3.88-1.9-7.53-4.47-10.67-7.42c-6.9-6.47-12.45-14.63-15.92-23.43
				c-8.68-22.02-5.98-47.09-3.76-70.04c0.42-4.38-10.82-5.06-13.01-5.16c-4-0.18-14.04-0.53-16.46,3.76
				c-1.73,3.07-3.88,5.91-6.73,8.02c-1.21,0.9-2.61,1.78-3.99,2.4c-1.46,0.65-3.54,0.73-1.09,0.61c-3.3,0.16,1.77,0.31,2.39,0.12
				c0.87-0.27-0.08,0.09-0.76-0.32c-0.62-0.38-1.29-0.7-1.91-1.09c-3.12-1.95-5.58-4.75-7.53-7.86c-4.19-6.68-5.21-14.97-2.79-22.48
				c2.62-8.14,8.63-15.96,6.19-24.92c-2.91-10.71-13.52-13.54-23.6-13.66c-8.63-0.1-18.59,1.44-23.57,9.3
				c-3.53,5.58-4.82,12.31-8.52,17.81c-0.73,1.08-1.54,2.26-2.56,3.09c-0.28,0.23-1.24,0.57-1.47,0.92
				c-0.58,0.86-0.36-0.27,0.4-0.12c1.65,0.32,3.84-0.59,5.71-0.46c0.67,0.05,2.91-0.37,1.68,0.15c-0.99,0.42,0.76,0.3-0.3-0.14
				c-0.55-0.23-1.06-0.41-1.95-0.91c-19.82-11.22-10.27-38.8-3.72-55.14c3.46-8.63-21.47-6.34-25.07-5.11
				c-13.6,4.68-25.84,12.26-39.11,17.67c-2.44,1-6.09,2.39-7.81,2.89c-1.4,0.4-2.85,0.67-4.27,0.95c-0.48,0.08-0.96,0.17-1.44,0.25
				c0.92-0.15,0.91-0.16-0.05-0.05c-0.73,0.08-1.46,0.15-2.19,0.19c1.31-0.06,1.43-0.08,0.35-0.07c-1.09-0.01-0.97,0.01,0.37,0.07
				c-0.72-0.05-1.43-0.11-2.14-0.2c-1.23-0.15,0.87,0.48-1.16-0.25c0.78,0.28-2.79-0.99-2.57-0.89
				c-8.57-3.77-13.16-11.77-12.91-20.97c0.11-4.14,1.05-8.26,3.27-11.79c0.89-1.41,1.94-2.79,3.18-3.9
				c-0.17,0.15,2.33-1.78,1.38-0.97c-0.59,0.22-0.37,0.14,0.67-0.24c-0.82,0.29-1.66,0.49-2.52,0.61
				c-4.86-2.92-9.73-5.85-14.59-8.77c-30.37,13.5-61.34,25.57-92.84,36.18c-5.32,1.79-5.09,5.56,0,7.42c6.38,2.33,14.8,2.16,21.21,0
				c31.5-10.6,62.47-22.67,92.84-36.18c3.22-1.43,6.22-3.59,2.35-6.36c-4.39-3.13-11.91-2.82-16.94-2.41
				c-14.1,1.14-25.63,8.52-27.74,23.16c-1.89,13.11,5.65,24.21,17.26,29.8c16.68,8.02,37.41,7.76,55.02,3.11
				c18.24-4.81,33.87-15.73,51.59-21.83c-8.36-1.7-16.71-3.41-25.07-5.11c-7.22,18.01-16.67,43.59,0.8,58.9
				c8.31,7.28,19.52,10.33,30.43,10.36c9.71,0.03,21.45-1.6,27.9-9.76c4.57-5.78,5.68-13.47,9.73-19.55c0.47-0.7,1.89-2.3,1.98-2.47
				c-2.3,4.03-20.76-5.36-16.82-0.04c0.38,0.51,0.91,0.94,1.32,1.51c2.46,3.41,2.45,8.09,1.48,12.01
				c-2.51,10.14-9.02,18.01-7.05,29.01c1.63,9.09,6.99,17.11,14.69,22.16c11.54,7.58,27.78,8.28,40.92,5.52
				c10.66-2.24,21.08-7.65,26.57-17.41c-9.82-0.47-19.64-0.93-29.46-1.4c-2.52,26.04-5.01,54,7.26,78.15
				c11.66,22.95,33.91,34.81,59.16,35.42c-4.82-2.22-9.64-4.43-14.46-6.65c-19.04,32.18-47.35,57.86-80.87,74.34
				c-16.24,7.98-33.23,13.34-50.93,16c1.65-0.25-3.43,0.43-3.85,0.48c-2.24,0.26-4.48,0.47-6.72,0.65c-1.25,0.1-2.5,0.18-3.75,0.26
				c0.67-0.04,2.56-0.07-0.51,0.02c-2.51,0.07-5.01,0.11-7.52,0.09c-1.25-0.01-2.51-0.04-3.76-0.07c-0.63-0.02-3.85-0.2-1.27-0.04
				c-2-0.12-3.99-0.27-5.99-0.45c-5.56-0.51-8.15-0.87-12.77-1.71c-74.15-13.47-134.85-74.12-149.02-148.43
				c-8.47-44.37-1.83-91.55,20.2-131.12C1416.36,588.22,1387.77,584.82,1383.85,591.86L1383.85,591.86z"/>
		</g>
	</g>
	<g>
		<path class="st3" d="M1531.76,899.21c-30.61,125.88-55.24,253.21-73.75,381.42c-4.01,27.79-6.18,60.37,14.33,79.54
			c15.63,14.62,39.1,15.99,60.49,16.55c34.45,0.91,66.54,17.46,100.99,18.36c33.39,0.88,73.27-15.45,96.69-39.27
			c29.13-29.63,21.14-78.14,11.13-118.47c-30.24-121.78-60.48-243.56-90.73-365.34"/>
		<g>
			<path class="st3" d="M1516.76,899.21c-21.47,88.37-40.03,177.45-55.58,267.06c-3.91,22.56-7.64,45.16-11.17,67.78
				c-3.22,20.59-6.97,41.28-8.88,62.04c-1.53,16.67-1.27,33.94,5.56,49.51c7.64,17.41,23.94,26.95,41.71,31.59
				c9.4,2.45,19.15,3.6,28.84,4.16c10.13,0.58,17.9,0.36,27.4,1.91c20.16,3.31,39.53,10.22,59.62,13.92
				c40.26,7.4,81.99,0.56,116.95-21.15c14.43-8.96,28.39-20.55,35.91-36.1c7.25-15,9.22-31.74,8.52-48.23
				c-0.74-17.4-4.19-34.59-8.3-51.47c-5.41-22.24-11.03-44.43-16.54-66.65c-22.24-89.56-44.48-179.13-66.72-268.69
				c-2.72-10.95-5.44-21.91-8.16-32.86c-2.12-8.53-31.4-5.65-30,0c21.52,86.66,43.04,173.33,64.56,259.99
				c5.36,21.59,10.72,43.17,16.08,64.76c4.86,19.56,10.2,39.08,14.26,58.83c6.27,30.54,10.48,67.87-10.45,93.97
				c-10.34,12.9-25.3,22.48-40.18,29.34c-7.27,3.35-15.06,6.18-22.75,8.06c-2,0.49-4.02,0.93-6.04,1.33
				c-0.44,0.09-5.45,0.94-3.93,0.72c-1.98,0.28-3.97,0.49-5.96,0.66c-0.98,0.08-1.97,0.16-2.95,0.21c2.95-0.15-1.7-0.01-1.85-0.01
				c-3.44,0.01-6.93-0.25-11.27-0.8c-4.13-0.53-8.67-1.43-12.98-2.37c-9.84-2.14-19.55-4.84-29.3-7.34
				c-10.06-2.58-20.16-4.79-30.45-6.26c-4.69-0.67-9.38-1.13-14.11-1.37c-2.95-0.15-5.89-0.24-8.84-0.34
				c-1.03-0.03-2.06-0.07-3.09-0.11c-5.06-0.18,2.83,0.24-2.23-0.11c-14.82-1.04-30.06-3.18-41.1-16.01
				c-10.65-12.37-13.11-29.01-12.97-44.82c0.17-18.75,3.72-37.44,6.51-55.92c3.27-21.67,6.72-43.32,10.34-64.93
				c14.55-86.79,31.89-173.11,52.01-258.78c2.47-10.51,4.98-21.01,7.53-31.5C1548.12,893.61,1518.85,890.59,1516.76,899.21
				L1516.76,899.21z"/>
		</g>
	</g>
	<g>
		<path class="st3" d="M1547.19,894.61c31.74,8.96,67.25,3.49,94.82-14.6"/>
		<g>
			<path class="st3" d="M1536.58,898.32c39.31,10.78,83.7,6.72,118.38-15.67c5.48-3.54-2.24-6.52-5.38-7.18
				c-5.97-1.26-15.09-1.63-20.52,1.88c-11.64,7.51-24.35,12.78-38.03,15.16c-11.13,1.94-20.67,1.83-33.23-1.62
				c-6.74-1.85-14.52-2.45-21.21,0C1531.76,892.67,1530.72,896.71,1536.58,898.32L1536.58,898.32z"/>
		</g>
	</g>
	<g>
		<path class="st3" d="M1424.73,1827.78c7.6-33.35,30.78-80.63,62.4-93.69c21.1-8.72,68.32-23.36,98.21-6.74
			s49.11,51.89,44.31,85.75c0.03-21.89,0.16-44.36,8.06-64.77s25.44-38.6,47.23-40.7c20.87-2.01,40.85,11.2,52.83,28.41
			c11.98,17.21,19.23,61.88,19.23,93.75c0,8.77-16.1,6.32-24.88,6.31c-105.26-0.13-200.52-1.39-305.79-1.51"/>
		<g>
			<path class="st3" d="M1439.73,1827.78c4.44-19.12,12.08-37.59,22.41-54.28c9.31-15.05,21.89-30.3,38.21-36.75
				c3.39-1.34,6.83-2.59,10.28-3.75c3.94-1.32,9.09-2.88,11.82-3.57c5.02-1.29,10.09-2.33,15.19-3.22c0.24-0.04,2.62-0.39,0.71-0.12
				c1.44-0.2,2.89-0.38,4.33-0.53c0.97-0.1,1.93-0.2,2.9-0.28c0.97-0.08,1.94-0.15,2.9-0.21c-1.57,0.06-1.44,0.06,0.37,0
				c0.97-0.01,1.93-0.04,2.89-0.03c0.26,0,5,0.17,1.76-0.01c1.18,0.07,2.37,0.17,3.55,0.29c0.53,0.05,3.51,0.45,1.31,0.11
				c4.63,0.71,7.24,1.33,11.61,3.34c9.24,4.27,17.42,11.28,24.06,18.9c15.67,17.99,23.73,41.65,20.6,65.46c10,0,20,0,30,0
				c0.03-21.05-0.06-43.06,7.42-63.06c5.65-15.09,17.24-30.86,32.97-36.36c0.11-0.04,2.84-0.94,1.9-0.62
				c-0.9,0.3,2.28-0.61,0.91-0.23c-1.66,0.46,3.12-0.78,0.14-0.13c0.27-0.06,3.04-0.18,0.55-0.08c0.15-0.01,2.63,0.27,0.9,0.03
				c0.97,0.14,2.01,0.36,2.95,0.6c1.31,0.34,3.9,1.29,5.56,2.03c7.76,3.47,14.56,9.14,20.13,15.48
				c10.01,11.4,14.25,25.53,17.46,40.09c3.8,17.25,5.9,34.99,6.39,52.65c0.06,2,0.36,4.3,0.09,6.3c-0.03,0.22-0.57,2.65-0.87,2.31
				c-0.09-0.1,3.92-1.62,1.27-0.67c0.49-0.08,0.98-0.17,1.46-0.25c-1.39,0.1-1.48,0.11-0.27,0.04c1.23-0.06,1.12-0.07-0.33-0.04
				c-0.39,0-0.79-0.01-1.18-0.01c-9.28-0.12-18.56-0.32-27.85-0.34c-45-0.11-90-0.41-135-0.72c-50.96-0.35-101.93-0.69-152.89-0.76
				c-3.3,0-14.74,0.2-15,5.25c-0.26,4.87,12.63,5.25,15,5.25c99.94,0.13,199.87,1.34,299.8,1.5c8.9,0.01,17.92,0.85,26.78-0.16
				c7.94-0.91,18.99-2.98,19.08-12.77c0.16-19.44-2.38-39.34-6.63-58.29c-3.65-16.29-8.73-32.16-20.47-44.46
				c-16.32-17.1-38.95-24.98-62.42-23.22c-23.34,1.75-43.5,14.73-54.86,35.18c-12.73,22.91-12.93,49.99-12.97,75.47
				c-0.01,7.33,28.98,7.77,30,0c3.06-23.29-4.7-47.22-19.31-65.44c-15.69-19.55-37.49-30.76-62.42-32.69
				c-25.27-1.95-50.76,2.81-74.62,10.97c-9,3.08-18.04,6.51-25.82,12.08c-8.51,6.1-15.82,13.73-22.07,22.09
				c-14.79,19.78-25.09,43.65-30.67,67.65C1408.41,1833.46,1437.74,1836.37,1439.73,1827.78L1439.73,1827.78z"/>
		</g>
	</g>
	<g>
		<path class="st3" d="M813.97,1811.25c14.95-39.12,21.34-82.01,58.9-101.14c31.97-16.28,66.81-11.97,92.63,12.94
			c25.82,24.91,38.65,60.51,44.93,95.84c-3.22-21.94-6.43-44.42-1.99-66.15c4.45-21.73,18.17-42.92,39.18-50.02
			c21.86-7.38,46.58,2.2,63.31,18.09c16.73,15.88,19.11,30.36,29.14,51.13c7.78,16.12,17.26,36.34,2.97,47.12
			c-6.24,4.7-10.96,9.91-18.77,10.24c-104.72,4.4-198.49-1.53-304.75-1.53c0.59-5.54-3.83-10.99-3.24-16.53"/>
		<g>
			<path class="st3" d="M828.97,1811.25c12.49-32.93,19.3-75.71,51.81-95.67c4.15-2.55,8.54-4.63,13.11-6.3
				c1.97-0.72,4.01-1.42,5.99-1.94c-0.02,0,2.96-0.67,3-0.67c-0.11,0.02,4.19-0.74,2.45-0.49c1.25-0.18,2.51-0.28,3.76-0.39
				c2.8-0.25-3.47-0.08,1.26-0.07c1,0,1.99-0.01,2.99,0.02c-2.62-0.07,0.57,0.07,1.21,0.13c2.95,0.28,7.25,1.16,11.48,2.69
				c19.65,7.07,34.46,23.77,45.07,41.18c12.86,21.09,19.96,44.99,24.32,69.16c1.47,8.17,30.96,6.52,30,0
				c-3.23-22.02-6.57-44.79-1.84-66.85c3.47-16.16,12.4-32.74,26.69-41.75c2.92-1.84,6.05-3.43,9.41-4.32
				c-0.88,0.23,2.04-0.41,2.14-0.42c2.43-0.41-1.55,0.11,0.9-0.08c2.53-0.2-2.02-0.02,0.52-0.02c1.08,0.02,1-0.01-0.22-0.07
				c0.75,0.05,1.51,0.12,2.26,0.2c2.46,0.27-1.53-0.32,0.92,0.14c1,0.19,2,0.38,2.98,0.64c1.54,0.4,3.35,1.03,5.04,1.66
				c4.06,1.52,7.87,3.59,11.53,5.91c14.66,9.32,24.08,23.06,30.84,38.77c3.54,8.23,7.05,16.43,10.88,24.54
				c3.52,7.45,7.05,15.26,7.82,23.56c0.78,8.49-2.38,13.35-8.8,18.47c-1.7,1.35-3.38,2.73-5.2,3.91c-1.26,0.82-4.12,2.69,1.02,0.97
				c-2.15,0.72-5.53,0.22-7.82,0.3c-3.24,0.12-6.48,0.23-9.73,0.32c-44.4,1.36-88.82,0.99-133.22,0.16
				c-50.67-0.95-101.34-2.38-152.02-2.4c5,1.75,10,3.5,15,5.25c0.17-5.78-3.41-10.74-3.24-16.53c0.21-7.28-29.78-7.76-30,0
				c-0.17,5.78,3.41,10.74,3.24,16.53c-0.14,4.94,12.59,5.25,15,5.25c98.65,0.03,197.3,5.5,295.94,1.88
				c13.17-0.48,25.09-0.97,35.77-9.42c7.07-5.58,13.49-10.58,14.14-20.26c0.62-9.23-3.44-18.56-7.13-26.79
				c-3.89-8.67-7.95-17.23-11.65-26c-7.62-18.06-18.12-33.12-34.94-43.82c-19.67-12.51-45.24-16.98-67.94-11.5
				c-22.52,5.43-38.6,21.65-46.61,43.03c-9.46,25.24-5.48,52.79-1.67,78.74c10,0,20,0,30,0c-8.33-46.14-29.07-98.5-76.07-116.97
				c-24.44-9.6-53.8-8.89-78.18,0.49c-20.85,8.03-36.74,22.24-47.11,41.99c-11.09,21.12-16.68,44.64-25.1,66.84
				C797.29,1815.67,825.65,1819.98,828.97,1811.25L828.97,1811.25z"/>
		</g>
	</g>
	<g>
		<path class="st3" d="M918.99,869.43c-27.6,133.2-49.91,244.73-72.91,378.8c-4.85,28.29-20.23,61.36-0.19,81.91
			c16.51,16.93,42.72,18.57,66.36,19.14c36.38,0.88,74.72,12.08,111.1,12.97c32.09,0.78,76.33-31.8,83.33-38.8
			c27.91-27.91,16.16-63.7,8.23-99.83c-29.3-133.53-55.73-264.12-85.03-397.65c-35.07,16.37-66.04,15.01-103.04,3.68
			c-7.64,4.75-11.78,27.51-7.55,35.45"/>
		<g>
			<path class="st3" d="M903.99,869.43c-18.23,88.01-36.11,176.1-52.51,264.48c-4.1,22.13-8.12,44.27-12.05,66.43
				c-3.83,21.62-6.84,43.51-12.05,64.86c-4,16.38-9.82,34.9-4.51,51.64c5.92,18.64,24.56,28.04,42.29,32.65
				c19.66,5.11,40.51,4.08,59.59,5.89c22.48,2.14,44.63,6.81,67.02,9.67c21.54,2.75,42.65,3.91,63.64-2.48
				c15.53-4.73,30.26-12.54,43.87-21.3c9.84-6.34,20.1-13.23,27.33-22.6c11.13-14.43,13.87-32.49,12.1-50.22
				c-1.97-19.71-7.56-39.11-11.77-58.42c-5.07-23.22-10.08-46.45-15.05-69.69c-19.92-93.12-39.21-186.36-59.39-279.43
				c-2.53-11.65-5.07-23.3-7.62-34.94c-0.87-3.98-7.89-4.75-11.01-5.06c-5.76-0.57-11.67-0.01-16.94,2.41
				c-6.36,2.92-13.09,5.44-19.9,7.09c-2.38,0.58-6.6,1.45-7.96,1.65c-1.63,0.25-3.28,0.42-4.93,0.57c0.02,0-4.93,0.37-2.59,0.24
				c-7.23,0.38-11.5,0.1-19.29-1.07c-5.43-0.81-12.57-2.4-18.51-4.03c-9.86-2.7-23.3-6.83-31.99,0.89
				c-3.21,2.85-4.87,6.71-6.28,10.69c-2.95,8.32-4.63,18.87-0.66,27.13c0.87,1.81,5.4,2.82,6.89,3.14c3.69,0.79,7.81,0.9,11.56,0.53
				c3-0.3,12.85-1.53,10.48-6.46c-2.31-4.79-1.21-11.92-0.26-16.93c0.55-2.91,1.28-5.85,2.47-8.58c0.6-1.37,1.31-2.71,2.17-3.94
				c0.45-0.64,2.21-2.35,1.64-1.96c-7.85,0.35-15.71,0.71-23.56,1.06c20.64,6.24,42.01,10.59,63.68,10.07
				c22.05-0.53,42.91-5.62,62.92-14.81c-9.32-0.88-18.63-1.77-27.95-2.65c19.72,89.89,38.47,179.99,57.56,270.02
				c9.47,44.66,18.74,89.4,28.88,133.91c7.2,31.63,16.99,69.8-11.41,94.25c0.37-0.31-0.1,0.1-1.1,0.88
				c-0.97,0.76-1.94,1.51-2.92,2.25c-2.38,1.79-4.81,3.52-7.27,5.2c-5.92,4.05-12.02,7.83-18.3,11.28
				c-6.59,3.63-13.34,6.89-20.41,9.46c-1.68,0.61-3.37,1.19-5.07,1.72c-2.42,0.75-1.67,0.54-3.27,0.92
				c-1.04,0.24-2.08,0.45-3.12,0.67c-0.38,0.08-2.98,0.52-1.29,0.26c1.67-0.25-0.87,0.08-1.26,0.13c-3.32,0.39,0.21,0.2-0.79,0.09
				c-9.03-1-19.15-1.23-29.07-2.59c-10.34-1.41-20.62-3.21-30.93-4.83c-11.36-1.79-22.75-3.5-34.21-4.51
				c-5.89-0.52-11.81-0.84-17.72-1.02c-2.08-0.06-4.15-0.11-6.23-0.18c-0.59-0.02-3.86-0.15-1.39-0.03
				c-1.29-0.06-2.57-0.14-3.86-0.22c-14.87-0.98-31.56-3.46-42.79-16.47c-11.23-13.02-8.46-31.45-5.1-46.93
				c1.91-8.76,4.32-17.4,6.16-26.18c2.21-10.56,3.78-21.27,5.63-31.89c3.81-21.83,7.71-43.64,11.69-65.44
				c15.55-85.12,32.51-169.97,49.98-254.72c2.24-10.85,4.48-21.71,6.73-32.56C935.21,863.54,905.76,860.91,903.99,869.43
				L903.99,869.43z"/>
		</g>
	</g>
	<g>
		<path class="st3" d="M1031.76,418.44l-22.29-0.88c-56.76,13.73-116.65,27.06-159.13,67.13s-71.62,95.87-72.99,154.25
			c-1.37,58.38,27.52,118.21,77.88,147.78c34.77,20.42,77.69,36.88,117.57,30.88c92.5-13.92,180.21-83.79,192.33-176.54
			C1177.24,548.3,1121.19,445.87,1031.76,418.44z M1064.2,720.46c-3.94,6.74-11.84,7.85-18.47,4.84
			c-36.53-16.58-73.58-32-110.12-48.58c-6.67-3.03-8.23-12.68-4.84-18.47c3.94-6.74,11.84-7.85,18.47-4.84
			c36.53,16.58,73.58,32,110.12,48.58C1066.03,705.02,1067.59,714.67,1064.2,720.46z"/>
		<g>
			<path class="st3" d="M1031.76,413.19c-5-0.2-10-0.39-15.01-0.59c-2.31-0.09-4.62-0.24-6.93-0.27c-6.2-0.08-12.14,1.72-18.11,3.16
				c-22.8,5.51-45.65,11.12-67.91,18.59c-21.37,7.17-42.44,16.16-61.41,28.44c-18.94,12.26-35.36,28.07-49.49,45.6
				c-28.06,34.8-47.18,77.94-50.2,122.81c-2.82,41.85,9.68,85.01,35.03,118.51c12.83,16.96,29.02,31.06,47.45,41.63
				c21.73,12.45,44.98,22.49,69.41,28.21c46.46,10.88,94.14,0.88,136.88-18.69c36.23-16.59,69.27-41.78,93.13-73.86
				c23.82-32.02,36.99-70.45,37.15-110.39c0.29-76.49-42.29-155.63-111.74-190.4c-8.91-4.46-18.14-8.25-27.65-11.21
				c-6.59-2.05-14.65-2.4-21.21,0c-4.99,1.83-5.68,5.65,0,7.42c70.91,22.09,118.36,92.46,128.49,163.87
				c5.23,36.82,0.84,74.77-15.74,108.28c-16.73,33.82-43.56,62.07-75.01,82.64c-15.94,10.43-33.02,18.99-50.96,25.4
				c-8.93,3.19-17.12,5.6-25.88,7.57c-4.18,0.94-8.39,1.77-12.61,2.48c-3.92,0.66-9.6,1.2-13.41,1.21c-1.13,0-2.25-0.01-3.38-0.04
				c-5.45-0.1,1.22,0.12-1.94-0.09c-2.83-0.19-5.66-0.47-8.48-0.85c-4.64-0.63-10.72-1.9-15.86-3.24
				c-10.78-2.82-21.36-6.8-31.52-11.38c-18.78-8.46-37.18-18.82-52.1-33.19c-28.6-27.55-45.8-65.75-49.64-105.09
				c-4.18-42.84,7.99-85.93,30.17-122.45c22.32-36.75,53.44-66.78,92.78-84.59c18.79-8.5,38.63-14.72,58.52-20.05
				c10.45-2.8,20.96-5.35,31.47-7.89c2.57-0.62,5.34-1.05,7.84-1.89c4.63-1.56-3.72,0.36-4.39-0.04c0.15,0.09,0.64,0.02,0.8,0.03
				c2.43,0.25,4.94,0.19,7.37,0.29c4.69,0.18,9.38,0.37,14.06,0.55c3.28,0.13,14.74-0.29,15-5.25
				C1047.02,413.5,1034.13,413.28,1031.76,413.19z"/>
			<path class="st3" d="M1049.73,719.07c-0.89,1.36-2.35,2.27-3.18,3.46c3.48-4.97,13.06,0.84,10.33-0.69
				c-4.7-2.63-10.02-4.52-14.95-6.72c-9.91-4.41-19.86-8.76-29.8-13.1c-19.6-8.54-39.22-17.01-58.72-25.77
				c-3.06-1.37-6.28-2.2-8.01-5.27c-1.53-2.71-1.83-6.59-0.91-9.57c0.45-1.47,1.31-2.94,2.4-4.04c2.11-2.14,4.14-1.28-3.78-0.92
				c-7.44,0.33-6.52-0.26-1.78,1.89c2.7,1.22,5.4,2.43,8.1,3.64c19.51,8.72,39.15,17.18,58.74,25.73
				c10.85,4.73,21.69,9.49,32.49,14.34c3.65,1.64,7.68,2.62,9.4,6.58C1051.4,711.76,1051.3,716.06,1049.73,719.07
				c-2.54,4.89,7.67,6.18,10.48,6.46c3.82,0.38,7.8,0.27,11.56-0.53c2.02-0.43,5.85-1.13,6.89-3.14c4.27-8.23,1.98-17.95-6.36-22.52
				c-12.15-6.66-25.71-11.53-38.41-17.08c-12.66-5.53-25.33-11.02-37.99-16.55c-12.38-5.41-24.64-11.9-37.32-16.53
				c-11.81-4.31-30.66-4.72-40.16,4.94c-6.05,6.15-5.72,17.01,0.68,22.76c4.54,4.07,11.18,5.96,16.69,8.42
				c6.6,2.95,13.22,5.88,19.85,8.78c12.65,5.55,25.32,11.03,37.99,16.55c13.85,6.04,27.52,12.64,41.49,18.39
				c12.66,5.2,35.07,5.78,43.54-7.16c3.05-4.67-8.1-6.22-10.48-6.46C1063.69,714.95,1052.8,714.38,1049.73,719.07z"/>
		</g>
	</g>
	<g>
		<path class="st3" d="M225.73,748.93c22.28,50.34,64.5,94.21,120.76,105.74c49.1,10.06,101.23,21.1,145.61-2.21
			c47.14-24.76,95.87-96.2,108.51-147.92c12.64-51.72-8.55-84.34-10.83-137.53c-0.16-3.76-0.54-7.98-3.42-10.41
			c-4.73-3.97-11.79-0.15-16.63,3.68c-52.02,41.2-105.24,72.19-159.68,110.14s-102.53,45.37-172.17,67.69"/>
		<g>
			<path class="st3" d="M211.27,750.33c13.3,29.79,32.94,56.36,58.55,76.71c12.87,10.23,27.23,18.4,42.54,24.39
				c17.08,6.67,35.39,9.77,53.34,13.11c40.21,7.47,83.49,12,122.83-2.13c30.9-11.1,55.73-34.74,75.86-60.01
				c20.45-25.67,37.66-54.93,47.88-86.22c5.33-16.33,7.94-33.37,7.2-50.56c-0.72-16.76-4.41-33.15-7.8-49.53
				c-1.8-8.7-3.5-17.43-4.74-26.23c-0.65-4.58-1.18-9.17-1.57-13.77c-0.41-4.84-0.05-10.06-1.27-14.78
				c-2.97-11.56-18.19-12.4-27.95-11.33c-11.77,1.29-19.45,7.83-28.46,14.76c-32.7,25.12-67.32,47.55-101.75,70.2
				c-31.24,20.55-61.23,44.16-95.58,59.4c-30.63,13.58-63.23,22.02-95.26,31.53c-9.29,2.76-18.56,5.6-27.8,8.55
				c-1.35,0.43-4.39,1.77-4.39,3.71c0,1.98,3.04,3.22,4.39,3.71c6.45,2.36,14.72,2.08,21.21,0c31.85-10.18,64.37-18.34,95.93-29.42
				c14.86-5.22,29.45-11.25,43.51-18.36c15.11-7.64,29.05-16.89,42.98-26.46c32.21-22.13,65.31-42.92,97.54-65
				c16.09-11.02,31.96-22.38,47.39-34.32c3.45-2.67,7.05-5.21,10.47-7.9c-0.63,0.5,1.49-0.72,1.68-0.92
				c-2.53-0.08-5.05-0.16-7.58-0.24c-6.91-2.27-9.18-1.97-6.82,0.89c0.23,1.81,0.94,3.58,1.08,5.46c0.71,9.25,1.3,18.41,2.71,27.6
				c4.95,32.22,15.41,63.58,11,96.55c-4.07,30.43-18.38,59.09-34.84,84.63c-16.34,25.36-36.42,50.1-61.36,67.46
				c-12.8,8.91-26.86,15-42.25,17.7c-7.63,1.34-14.19,1.6-22.01,1.51c-7.31-0.08-15.94-0.83-24.57-1.92
				c-17.21-2.18-35.05-5.7-52.27-9.6c-13.48-3.05-27.18-9.01-39.35-16.5c-25.8-15.87-46.39-39.22-61.39-65.36
				c-3.74-6.52-7.11-13.24-10.18-20.11c-0.8-1.8-5.48-2.84-6.89-3.14c-3.69-0.79-7.81-0.9-11.56-0.53
				C218.61,744.18,209.04,745.35,211.27,750.33L211.27,750.33z"/>
		</g>
	</g>
	<g>
		<path class="st3" d="M360.4,884.53c-33.44,132.39-69.33,269.04-91.56,403.76c-4.4,26.63-6.94,58.27,13.15,76.29
			c14.75,13.24,36.53,13.97,56.35,13.99c39.28,0.04,76.56-0.32,115.85-0.28c33.43,0.03,73.61-1.68,94.62-27.68
			c18.63-23.05,16.31-56.06,12.7-85.48c-16.12-131.34-60.51-258.55-77.35-395.71c-39.86,14.63-79.33,29.65-120.39,11.19"/>
		<g>
			<path class="st3" d="M345.4,884.53c-22.68,89.77-45.93,179.42-65.65,269.9c-9.73,44.63-18.7,89.47-26.03,134.56
				c-2.71,16.7-4.82,34.39-0.76,51.05c4.26,17.49,15.67,30.13,32.38,36.73c19.48,7.7,41.38,7.06,61.96,7.05
				c23.14-0.01,46.29-0.14,69.43-0.22c20.99-0.07,42.02,0.4,62.99-0.66c18.15-0.91,36.96-3.23,53.9-10.14
				c16.25-6.63,30.23-17.5,37.64-33.77c7.61-16.72,8.48-35.29,7.29-53.37c-2.76-42.03-11.34-84.07-19.96-125.23
				c-18.02-86.06-41.43-171.02-54.85-258.01c-1.69-10.98-3.22-21.97-4.58-33c-0.44-3.56-6.72-4.43-9.22-4.8
				c-5.25-0.78-11.33-0.77-16.39,1.09c-17.41,6.39-34.89,13.13-53.19,16.56c-7.37,1.38-14.22,2.01-20.3,1.53
				c-9-0.71-17.41-3.27-25.69-6.9c-6.04-2.64-15.12-2.23-21.21,0c-5.54,2.03-5.08,5.2,0,7.42c22.97,10.06,48.83,11.98,73.47,8.44
				c23.55-3.39,45.89-11.47,68.13-19.63c-8.54-1.24-17.07-2.47-25.61-3.71c10.52,85.02,31.97,168,50.79,251.42
				c9.22,40.88,17.76,81.95,23.77,123.43c2.7,18.67,5.55,37.62,5.26,56.53c-0.28,17.68-3.78,35.65-15.51,49.47
				c-9.75,11.49-24.07,17.31-37.7,19.97c-1.9,0.37-3.8,0.72-5.72,1c1.88-0.28-0.53,0.06-0.76,0.08c-0.97,0.11-1.94,0.24-2.91,0.35
				c-4.38,0.49-8.78,0.82-13.18,1.06c2.48-0.13-2.36,0.08-3.31,0.11c-1.93,0.06-3.86,0.1-5.78,0.13c-4.63,0.07-9.27,0.06-13.91,0.06
				c-22.2-0.01-44.4,0.11-66.59,0.2c-11.44,0.04-22.89,0.08-34.33,0.09c-4.92,0-9.85,0.02-14.77-0.02
				c-2.33-0.02-4.65-0.07-6.98-0.13c-0.32-0.01-2.93-0.15-0.68-0.02c-1.3-0.07-2.59-0.17-3.88-0.27c-6.66-0.56-13.19-1.47-20.1-5.32
				c-7.17-4-12.61-10.08-16.28-17.39c-7.2-14.33-6.49-32-4.77-47.5c2.24-20.18,6.37-40.25,10.08-60.2
				c4.04-21.74,8.38-43.42,12.93-65.06c18.44-87.54,40.51-174.26,62.49-260.96c2.7-10.64,5.39-21.28,8.08-31.93
				C376.79,879.02,347.58,875.9,345.4,884.53L345.4,884.53z"/>
		</g>
	</g>
	<g>
		<path class="st3" d="M229.83,1084.21c-3.76,4.64-1.08,11.85,3.28,15.93s13.02,13.96,17.16,18.27
			c24.25,25.26-31.17,99.73,7.97,129.62c15.73,12.01,35.01,0.27,52.9-8.19c23.2-10.97,35.06-36.69,43.71-60.85
			c7.04-19.68,13.19-41.44,6.1-61.1c-6.16-17.08-21.6-29.51-38.44-36.32c-16.84-6.81-35.18-8.76-53.24-10.64
			c-11.61-1.21-23.68-2.37-34.67,1.56s-20.52,14.57-19.16,26.16"/>
		<g>
			<path class="st3" d="M215.37,1082.81c-6.31,9.3,2.06,17.21,8.13,23.66c5.08,5.39,11.73,10.97,15.38,17.48
				c5.79,10.34,2.17,25.25-0.16,36.08c-5.47,25.45-20.17,61.86-0.12,84.59c18.17,20.6,49.44,14.72,71.5,4.59
				c10.2-4.69,20.3-9.27,28.78-16.76c7.73-6.83,13.71-15.37,18.57-24.42c4.98-9.28,8.86-19.13,12.4-29.04
				c4.25-11.87,8.12-24.12,9.05-36.77c1.74-23.83-10.1-43.72-29.89-56.35c-23.97-15.3-54.21-18.18-81.87-20.61
				c-16.02-1.41-33.41-1.49-48.19,5.7c-10.49,5.1-19.46,15.45-18.5,27.69c0.62,7.92,30.55,7.04,30,0
				c-0.73-9.22,4.83-17.7,13.08-21.73c3.21-1.57,6.13-1.87,8.19-1.89c4.2-0.05,8.41,0.43,13.58,0.96
				c19.91,2.06,40.54,4.16,57.81,15.18c17.31,11.05,26.93,28.65,25.91,49.28c-1.02,20.5-9.12,41.79-18.09,60.09
				c-4.02,8.2-8.78,16.12-14.84,22.98c-6.19,7.01-13.4,11.46-21.74,15.52c-4.13,2.01-8.24,4.1-12.49,5.85
				c-2.54,1.05-5.14,2.04-7.79,2.78c-3.73,1.05,0.46,0.46,0.94,0.3c-0.97,0.31,0.81,0.02,0.81,0.11c0,0-2.14-1.05-2.55-1.31
				c-1.35-0.84-2.52-1.72-3.66-2.82c-2.21-2.11-4.14-4.51-5.71-7.14c-6.23-10.4-5.69-23.62-4.1-35.21
				c1.85-13.54,5.66-26.7,8.6-40.02c2.67-12.1,5.66-25.85,0.7-37.76c-2.64-6.33-8.27-11.08-12.82-16.04
				c-4.7-5.12-17.37-14.2-11.95-22.19c3.14-4.63-8.17-6.23-10.48-6.46C229.23,1078.69,218.53,1078.15,215.37,1082.81L215.37,1082.81
				z"/>
		</g>
	</g>
	<g>
		<path class="st3" d="M697,1117.24c6.69,2.53,21.01,0.88,19.92-6.19c-1.09-7.07-15.02-18.06-22.07-19.26
			c-7.05-1.19-14.23,0.59-21.15,2.35c-25.59,6.52-53.39,14.51-68.48,36.18c-12.4,17.79-13.28,41.91-6,62.33
			c7.28,20.43,21.81,37.55,38.15,51.8c9.94,8.66,21.04,16.63,33.89,19.57c12.85,2.95,27.78-0.12,36.02-10.41
			c10.59-13.21,6.87-33.03-1.43-47.79c-8.3-14.76-20.51-27.29-26.95-42.95c-6.44-15.66,8.19-29.13,22.8-37.69"/>
		<g>
			<path class="st3" d="M686.39,1120.95c10.56,3.55,22.92,3.62,33.62,0.64c7.11-1.98,14.53-6.24,10.56-14.42
				c-3.14-6.48-10.14-11.86-16.24-15.36c-11.34-6.5-25.09-6.52-37.67-4.48c-19.21,3.12-39.32,9.27-56.79,17.86
				c-16.82,8.27-30.54,21.15-36.72,39.14c-13.74,40.02,12.94,78.93,42.26,103.68c17.86,15.07,38.1,23.82,61.86,22.07
				c19.41-1.43,39.07-11.08,41.3-32.39c2.38-22.72-13.48-41.06-25.33-58.56c-5.72-8.45-13.51-19.06-9.99-29.79
				c3.19-9.71,13.06-16.52,21.39-21.48c5.68-3.39-2.42-6.56-5.38-7.18c-6.17-1.3-14.87-1.49-20.52,1.88
				c-11.82,7.05-28.01,18.98-26.3,34.74c0.84,7.74,5.86,15.43,10,21.8c4.78,7.36,10.2,14.27,14.98,21.63
				c8.14,12.52,14.95,28.98,9.67,44c-2.22,6.3-7.11,11.81-13.35,14.28c-1.62,0.64-1.64,0.62-3.07,0.87
				c1.96-0.35-0.34,0.05-0.65,0.03c2.92,0.17-0.08,0-0.3-0.07c0.52,0.18,2.6,0.8-0.28-0.13c0.25,0.08,1.69,0.33,0.08-0.06
				c-1.86-0.46-3.68-1.05-5.46-1.78c-14.7-6.01-27.52-18.56-37.94-30.23c-11.09-12.42-20.5-27.01-24.37-43.37
				c-3.67-15.48-3.02-32.94,4.64-47.16c7.17-13.32,19.47-22.51,33.19-28.35c7.93-3.37,16.21-5.95,24.52-8.21
				c3.43-0.93,7.75-2.06,11.55-2.94c1.1-0.26,2.52-0.26,3.52-0.75c1.54-0.76,0.9,0.15,0.4-0.19c-0.06-0.04-3.81-0.68-2.04-0.39
				c-4.17-0.7,0.07,0.54-1.11-0.25c5.45,3.61,12.27,7.06,15.02,13.5c0.37,0.87,0.72,1.81,0.51,2.78c-0.24,1.11-0.97,0.74-1.16,1.4
				c0.08-0.26,1.74-0.51,1.53-0.5c-1.51,0.08-0.88,0,0.24-0.02c1.17-0.02,2.25-0.01,3.41,0.01c2.71,0.05-0.76-0.48,1.65,0.33
				c-6.49-2.18-14.74-2.37-21.21,0C681.29,1115.39,680.83,1119.08,686.39,1120.95L686.39,1120.95z"/>
		</g>
	</g>
	<g>
		<g>
			<path class="st3" d="M421.87,1840.17c3.3,0,14.74-0.2,15-5.25c0.26-4.87-12.63-5.25-15-5.25c-3.3,0-14.74,0.2-15,5.25
				C406.62,1839.79,419.51,1840.17,421.87,1840.17L421.87,1840.17z"/>
		</g>
	</g>
	<g>
		<path class="st3" d="M412.96,1813.11c0-18.72-42.25-88.23-96.1-85.51s-91.25,64.88-101.55,108.22c-1.86,7.84-6.61,5.46,0,10.07
			c4.14,2.9,5.37,5.61,10.42,5.91c103.28,5.99,200.78,2.16,304.06,8.14c10.31,0.6,27.63,11.75,28.55,1.46
			c4.18-46.56-4.83-120.54-39.32-140.78c-21.26-12.48-42.74-10.28-62.96,3.81c-20.22,14.1-38.12,39.35-33.76,63.61"/>
		<g>
			<path class="st3" d="M427.96,1813.11c-0.14-8.24-4.62-16.8-8.42-23.87c-6.03-11.22-13.66-21.66-22.37-30.95
				c-22.58-24.1-52.14-38.15-85.59-35.68c-32.98,2.44-60.45,21.29-79.98,47.18c-9.04,12-16.48,25.22-22.29,39.07
				c-2.81,6.7-5.31,13.55-7.31,20.54c-0.79,2.74-1.15,5.91-2.41,8.46c-0.84,1.71-2.8,3.17-2.58,5.22c0.31,2.98,4.9,5.06,6.95,6.68
				c5.05,4.01,9.67,6.15,16.24,6.91c11.61,1.34,23.51,1.36,35.18,1.84c22.74,0.95,45.5,1.52,68.26,1.9
				c45.14,0.77,90.3,0.83,135.43,1.95c21.97,0.54,43.9,1.12,65.74,2.57c0.74,0.05,3.82,0.66,0.58-0.03c0.34,0.07,2.1,0.64,0.4,0.04
				c1.57,0.55,3.19,0.98,4.78,1.5c3.99,1.3,8,2.65,12.12,3.47c5.85,1.16,11.95,1.43,17.85,0.5c4.01-0.63,9.51-1.71,11.73-5.56
				c1.55-2.68,1.33-6.29,1.52-9.28c0.23-3.67,0.38-7.35,0.45-11.04c0.15-7.66-0.02-15.32-0.49-22.96
				c-0.95-15.58-3.09-31.16-6.97-46.29c-3.54-13.79-8.5-27.76-16.54-39.62c-9.15-13.51-22.65-21.88-38.38-25.93
				c-41.29-10.61-87.17,12.92-101.88,53.18c-2.96,8.11-4.04,16.56-2.67,25.1c1.33,8.28,31.03,6.39,30,0
				c-2.65-16.49,4.12-32,14.36-44.64c9.25-11.42,24.55-24.53,38.67-25.71c-0.72,0.06-2.2-0.17,0.89,0
				c-0.37-0.02-1.68-0.15,0.09,0.03c0.9,0.09,2.17,0.26,3.89,0.73c3.97,1.08,7.78,2.95,11.29,5.08c4.25,2.59,7.78,5.92,10.94,9.75
				c7.82,9.46,12.97,20.98,16.65,32.6c8.42,26.56,11.04,55.29,10.04,83.05c-0.11,3.01-0.27,6.02-0.49,9.02
				c-0.1,1.29-0.36,2.63-0.35,3.92c0,0.18-0.31,0.73-0.31,0.84c-2.96,3.87,1.46,3.18,13.24-2.08c0.54,0.08,1.09,0.16,1.63,0.24
				c-0.34,0.05-2.22-0.62-0.19,0.03c-0.76-0.24-1.53-0.46-2.3-0.7c-1.39-0.44-2.77-0.91-4.16-1.36c-3.85-1.25-7.75-2.46-11.74-3.18
				c-10.55-1.9-21.72-1.64-32.4-2.13c-10.14-0.46-20.27-0.84-30.41-1.16c-80.61-2.52-161.53-0.92-241.94-5.35
				c-1.3-0.07-2.67-0.33-3.97-0.22c-3.46,0.28,3.14,0.15,2.91,0.73c0.08-0.2-3.62-2.96-4.08-3.32c-0.82-0.64-1.99-1.83-2.82-2.12
				c1.01,0.35-1.01,1.98,0.49,0.55c3.79-3.61,4.27-11.7,5.76-16.52c3.81-12.28,9.13-24.08,15.52-35.23
				c12.9-22.52,31.73-45.54,56.59-54.86c1.58-0.59,3.17-1.13,4.78-1.62c-0.04,0.01,1.95-0.54,0.92-0.27
				c-1.19,0.31,1.34-0.3,1.56-0.35c1.45-0.31,2.91-0.62,4.38-0.84c-3.26,0.48,4.42-0.29,2.08-0.17c-2.65,0.14,4.94,0.14,2.12-0.01
				c-1.81-0.1,2.01,0.22,2.78,0.31c-2.88-0.33,1.41,0.29,2.28,0.48c0.77,0.17,1.55,0.35,2.31,0.55c-1.63-0.44,0.31,0.12,0.95,0.33
				c11.05,3.67,21.4,10.18,30.41,18.25c15.24,13.64,30.16,32.19,36.6,51.92c0.9,2.75,1.65,5.59,1.7,8.5
				C398.09,1820.69,428.09,1820.58,427.96,1813.11L427.96,1813.11z"/>
		</g>
	</g>
	<g>
		<path class="st3" d="M1308.54,874.63c-16.22-29.66-13.79-47.41-24.79-87.84c-1.69,56.99,7.09,108.23,22.06,163.25
			c1.75,6.44,4.51,13.81,10.9,15.73c6.59,1.98,18.08-1.05,23.16-5.69c10.76-9.82,20.61-14.03,26.94-27.15
			c6.33-13.12,3.24-37.84-5.44-49.53s-28.41-14.73-37.87-3.65"/>
		<g>
			<path class="st3" d="M1323,873.23c-14.5-26.81-16.44-57.43-24.26-86.45c-1.38-5.12-10.85-5.25-15-5.25
				c-3.06,0-14.86,0.22-15,5.25c-0.83,30,1.19,59.95,5.87,89.59c2.35,14.87,5.31,29.64,8.74,44.3c1.57,6.73,3.24,13.44,4.98,20.12
				c1.7,6.52,3.04,13.66,6.38,19.61c7.54,13.42,28.11,12.51,41.02,9.7c5.62-1.23,11.57-3.2,16.23-6.66
				c5.1-3.79,9.99-8.13,14.91-12.16c8.83-7.23,15.74-15.88,17.63-27.43c1.74-10.66,0.19-22.04-3.63-32.08
				c-4.75-12.48-14.45-19.94-27.51-22.75c-14.47-3.11-33.66-2.37-44.33,9.32c-3.82,4.18,8.75,6.29,10.48,6.46
				c5.34,0.53,14.4,0.77,18.45-3.67c1.29-1.41,2.5-2.3,4.15-3.23c-0.63,0.35,0.95-0.36,0.96-0.3c0.07,0.33-3.42,0.48-3.44,0.48
				c-0.8,0-1.89-0.34-2.64-0.26c1.68-0.18,1.44,0.44,0.61,0.1c2.04,0.84,3.62,1.46,5.48,2.88c6.06,4.64,8.92,12.75,10.49,19.92
				c1.9,8.65,2.42,18.13,0.17,26.77c-2.23,8.58-8.76,15.35-15.53,20.69c-3.9,3.07-7.7,6.27-11.57,9.37c-1.25,1-2.23,1.85-3.72,2.57
				c-0.84,0.41-1.77,0.66-2.64,0.98c0.55-0.13,0.42-0.11-0.37,0.07c-0.97,0.19-0.92,0.19,0.16,0.01c1.11,0.46,5.66,0.98,6.25,0.6
				c0.98-0.64,1.05,1.26-0.43-0.92c-1.14-1.68-2.31-3.2-3.15-5.09c-2.24-4.99-3.27-10.63-4.64-15.9
				c-6.13-23.6-11.27-47.48-14.7-71.63c-3.83-26.98-5.41-54.22-4.65-81.46c-10,0-20,0-30,0c8.1,30.07,10.29,61.43,25.33,89.24
				C1297.81,882.94,1326.6,879.89,1323,873.23L1323,873.23z"/>
		</g>
	</g>
</g>
<g id="Ebene_3">
</g>
<g id="Ebene_14">
	<g class="st4">
		<path class="st5" d="M391.8,768.08c4.94-8.59-1.32-20.58-10.76-23.57s-20.05,1.47-26.72,8.79c-6.67,7.32-10.07,17.02-12.49,26.62
			c-3.72,14.77-4.89,32.21,5.37,43.46c13.44,14.73,40.65,8.41,50.6-8.86c9.96-17.27,5.28-40.02-6.36-56.21"/>
	</g>
	<g class="st4">
		<path class="st5" d="M530.75,794.38c12.1,8.22,10.77,29.7-2.24,36.38c-13.01,6.68-31.23-4.78-30.86-19.4s19.16-25.12,31.81-17.79"
			/>
	</g>
	<g class="st4">
		<path class="st5" d="M878.84,711.42c13.18,17.72,1.59,47.6-20.09,51.8s-43.59-19.18-37.99-40.54
			c5.6-21.36,36.16-30.99,52.99-16.69"/>
	</g>
	<g class="st4">
		<path class="st5" d="M1072.57,723.93l-1.94-1.01c-2.15-1.03-4.4-1.7-6.68-2.07c-4.02,6.39-11.72,7.41-18.22,4.46
			c-0.5-0.23-0.99-0.45-1.49-0.67c-9.88,5.47-17.27,15.72-16.64,27.11c1.13,20.75,28.24,34.9,45.92,23.97
			C1091.19,764.79,1090.63,734.21,1072.57,723.93z"/>
	</g>
	<g class="st4">
		<path class="st5" d="M1626.33,762.7c2.56-10.1-9.27-19.6-19.47-17.51s-17.17,12.16-19.16,22.39
			c-3.66,18.85,8.32,39.95,26.86,44.96c18.54,5.02,40.36-8.55,42.64-27.62c2.28-19.07-17.51-37.8-36.15-33.15"/>
	</g>
	<g class="st4">
		<path class="st5" d="M1440.44,753.45c11.63,14.68,2.55,40.31-15.73,44.4s-37.41-15.23-33.15-33.47
			c4.26-18.24,29.98-27.07,44.55-15.31"/>
	</g>
</g>
<g id="Ebene_2">
	<g>
		<g>
			<path d="M493.01,466.33c-50.23-7.44-105.42-9.21-153.76,8.67c-49.03,18.14-88.1,61.88-110.71,108.01
				c-24.79,50.57-31.95,109.36-16.17,163.8c14.3,49.3,47.44,90.03,92.75,114.08c41.89,22.23,91.4,30.04,138.04,21.3
				c48.92-9.17,92.28-37.84,123.38-76.24c32.09-39.63,51.66-89.18,55.16-140.05c3.01-43.78-4.72-90.48-29.25-127.57
				c-20.17-30.51-50.67-52.1-83.76-66.72c-33.56-14.82-69.54-23.39-105.32-30.89c-8.54-1.79-17.1-3.52-25.65-5.26
				c-5.62-1.14-11.87,12.36-5.16,13.72c65.93,13.43,140.83,26.41,190.51,75.96c61.89,61.73,60.33,166.65,20.3,239.61
				c-22.82,41.59-58.85,76.36-103.24,94.03c-41.95,16.71-89.63,17.09-132.55,3.71c-43.6-13.59-82.67-41.83-106.16-81.33
				c-28.13-47.32-33.7-106.77-18.33-159.29c13.93-47.59,44.79-92.33,86.49-119.76c41.3-27.17,95.9-29.43,143.67-25.93
				c11.58,0.85,23.12,2.16,34.6,3.86C493.57,480.9,499.69,467.32,493.01,466.33L493.01,466.33z"/>
		</g>
	</g>
	<g>
		<g>
			<path d="M1081.07,419.57c-64.04-16.51-132.15-9.31-190.8,21.52c-50.83,26.72-93.8,70.17-116.85,123.05
				c-10.27,23.56-16.28,49.36-15.73,75.14c0.49,22.9,4.78,46.33,12.08,68.02c12.35,36.69,35.18,69.1,67.1,91.29
				c29.57,20.55,65.27,31.4,101.03,33.75c36.94,2.42,74.56-3.81,108.92-17.48c35.25-14.02,67.43-35.64,92.3-64.45
				c25.52-29.56,42.29-66.36,47.12-105.16c6.3-50.64-5.64-105.31-30.91-149.46c-13.29-23.23-31.51-43.25-53.24-58.86
				c-22.03-15.83-47.06-26.97-72.66-35.66c-13.5-4.59-27.2-8.54-40.99-12.15c-5.48-1.43-11.85,11.97-5.16,13.72
				c50.56,13.24,102.8,31.98,138.96,71.54c18.76,20.52,32.1,45.21,40.96,71.46c7.96,23.6,13.15,48.32,13.82,73.27
				c1.01,37.68-8.8,73.7-28.97,104.51c-18.35,28.03-46.19,51.66-77.1,67.79c-31.32,16.35-66.5,25.86-101.8,27.46
				c-34.63,1.56-69.89-4.25-101.2-19.47c-32.03-15.57-58.23-40.56-75.19-71.88c-9.65-17.82-16.06-37.29-19.97-57.14
				c-4.48-22.79-5.95-46.04-1.44-68.94c10.1-51.22,43.95-95.69,85.09-126.55c48.66-36.5,110.01-54.21,170.62-49.75
				c16.5,1.21,32.82,4.04,48.83,8.16C1081.39,434.71,1087.76,421.29,1081.07,419.57L1081.07,419.57z"/>
		</g>
	</g>
	<g>
		<g>
			<path d="M1625.14,496.14c-83-28.43-180.94,5.49-231.01,77.05c-51.47,73.55-46.87,179.88,9.68,249.45
				c56.97,70.08,160.53,91.33,242.67,56.78c83.12-34.96,135.52-127.83,129.78-216.77c-5.8-89.73-73.18-167.6-158.54-192.65
				c-10.53-3.09-21.29-5.3-32.18-6.66c-5.76-0.72-11.82,12.89-5.16,13.72c84.11,10.56,158.85,75.53,179.74,157.93
				c20.42,80.55-15.25,172.14-85.34,217.07c-71.79,46.01-172.09,37.96-237.38-16.16c-65.28-54.11-86.68-153.2-51.83-230.07
				c33.93-74.85,122.55-116.27,202.24-104.01c10.13,1.56,20.12,3.98,29.82,7.3C1623.62,511.18,1630.58,498,1625.14,496.14
				L1625.14,496.14z"/>
		</g>
	</g>
	<g>
		<g>
			<path d="M347.58,879.31c-51.27,39.51-97.45,85.66-136.98,136.92c-19.9,25.79-38.17,52.88-54.59,81.01
				c-14.3,24.52-35.12,61.32-8.11,85.05c10.91,9.58,25.33,13.11,39.46,11c14.09-2.1,27.46-7.42,41.48-9.76
				c5.53-0.92,10.17-14.76,2.54-13.49c-11.56,1.93-22.71,5.93-34.17,8.4c-11.96,2.58-22.52,2.52-33.57-3.43
				c-12.53-6.74-19.88-18.95-17.73-33.35c2.24-14.97,11.22-28.57,18.73-41.38c30.35-51.74,67.1-99.83,109.17-142.6
				c23.97-24.37,49.62-47.06,76.7-67.93c2.53-1.95,4.81-6.48,3.73-9.69C353.11,876.64,349.8,877.6,347.58,879.31L347.58,879.31z"/>
		</g>
	</g>
	<g>
		<g>
			<path d="M252.32,1111.55c-7.53-1.91-15.11-3.66-22.53-5.98c-7.15-2.23-15.53-4.85-21.25-9.93c-5.78-5.13-2.08-12.6,2.94-17.15
				c8.58-7.77,20.86-9.02,31.93-8.72c12.51,0.34,25.14,1.85,37.56,3.4c13.21,1.65,26.49,3.96,39.07,8.41
				c19.97,7.07,39.2,19.85,48.8,39.33c10.31,20.93,7.48,45.84-0.5,67.01c-7.39,19.58-19.35,37.91-35.86,50.98
				c-16.55,13.1-39.66,21.4-60.52,14.64c-17.23-5.58-30.7-19.14-34.61-36.83c-4.06-18.35-0.38-38.11,4.15-56.02
				c3.6-14.25,8.69-27.99,13.53-41.85c0.86-2.47,1.28-6.75-2.17-7.3c-3.29-0.53-6.43,3.84-7.33,6.42
				c-11.3,32.33-24.58,67.22-19.58,102.07c2.99,20.81,15.99,37.65,35.75,45.5c22.76,9.04,48,1.81,67.48-11.59
				c20.74-14.27,35.8-35.35,45.84-58.19c10.23-23.28,15.51-51.17,7.41-75.9c-7.79-23.79-27.88-40.59-50.6-49.65
				c-12.84-5.12-26.45-8.06-40.09-10.01c-14.49-2.07-29.39-3.89-44.04-4.17c-14.63-0.28-29.29,2.63-40.22,13.01
				c-7.88,7.49-16.13,21.38-11.88,32.62c3.22,8.5,14.18,12.54,21.98,15.31c9.67,3.43,19.66,5.76,29.6,8.29
				C252.66,1126.67,259.02,1113.25,252.32,1111.55L252.32,1111.55z"/>
		</g>
	</g>
	<g>
		<g>
			<path d="M487.43,871.59c34.97,23.13,70.37,45.74,103.62,71.35c15.79,12.16,31.42,24.92,44.78,39.78
				c11.49,12.78,19.82,26.03,18.91,43.87c-1.33,26.11-15.28,51.22-27.44,73.71c-1.24,2.29-2.84,7.02,0.15,8.75
				c2.9,1.67,6.45-2.03,7.65-4.25c11.87-21.98,23.73-44.92,28.64-69.63c2.26-11.35,2.98-23.54-0.36-34.76
				c-2.2-7.41-6.34-14.16-10.98-20.28c-11.72-15.49-26.86-28.52-41.87-40.71c-18.11-14.72-37.14-28.3-56.39-41.47
				c-19.56-13.39-39.45-26.27-59.22-39.35C489.9,855.28,482.21,868.15,487.43,871.59L487.43,871.59z"/>
		</g>
	</g>
	<g>
		<g>
			<path d="M680.63,1146.74c11.7-0.65,21.62-5.63,31.56-11.48c8.85-5.21,16.3-12.72,18.19-23.2c1.58-8.72-1.9-18.66-9.74-23.27
				c-7.42-4.37-16.78-3.77-25-2.96c-42.24,4.14-93.82,13.25-112.16,57.39c-8.76,21.08-3.88,43.57,6.4,63.09
				c10.22,19.38,24.65,37.89,39.97,53.53c13.85,14.14,31.42,26.38,52.17,24.14c18.73-2.02,34.02-16.15,42.58-32.23
				c10.39-19.53,12.66-42.36,3.05-62.61c-10.03-21.14-28.04-37.04-42.37-55.14c-4.17-5.27-12.92,6.76-9.3,11.33
				c19.52,24.65,52.56,50.28,46.34,85.54c-2.49,14.15-10.36,28.08-23.21,35.18c-14.6,8.07-31.42,4.25-44.68-4.61
				c-14.71-9.83-25.97-24.33-36.61-38.24c-11.83-15.47-23.53-32.47-27.27-51.94c-3.43-17.83,3.13-34.13,16.71-45.8
				c14.5-12.45,33.23-17.97,51.69-21.34c10.41-1.9,20.96-3.31,31.48-4.5c7.45-0.84,16.55-1.74,23.2,2.46
				c7,4.42,8.55,13.78,1.68,18.77c-8.31,6.04-19.15,11.61-29.53,12.18c-3.52,0.2-6.18,3.25-7.33,6.42
				C677.78,1141.3,677.06,1146.94,680.63,1146.74L680.63,1146.74z"/>
		</g>
	</g>
	<g>
		<g>
			<path d="M911.52,825.75c-33.37,35.05-63.67,73.36-88.95,114.66c-12.64,20.64-23.98,42.19-33.06,64.64
				c-8.49,21.01-16.61,44.44-13.62,67.42c2.87,22.08,17.76,38.88,38.24,46.84c23.02,8.94,47.93,6.13,71.64,1.76
				c42.71-7.87,83.58-22.37,125.66-32.74c30.31-7.47,78.97-19.42,98.81,13.64c3.3,5.51,12.33-6.29,9.3-11.33
				c-16.61-27.68-52.21-25.96-80.02-21.23c-40.4,6.87-79.13,21.4-118.82,31.26c-22.62,5.62-46.54,11.28-69.95,10.86
				c-20.75-0.37-43.2-7.25-55.83-24.8c-13.89-19.31-8.84-44.37-1.72-65.25c7.28-21.34,17.1-41.74,28.19-61.35
				c26.08-46.1,59.18-88.28,95.64-126.59c1.98-2.08,3.89-6.95,1.89-9.56C916.73,821.1,913.22,823.97,911.52,825.75L911.52,825.75z"
				/>
		</g>
	</g>
	<g>
		<g>
			<path d="M1036.18,824.09c39.08,26.45,75.85,57.28,107.3,92.53c15.16,16.99,29.22,35.23,40.2,55.23
				c5.54,10.1,10.02,20.67,13.48,31.66c4.19,13.31,7.19,28.06,3.29,41.82c-5.54,19.56-23.99,33.91-42.61,40.23
				c-15.92,5.4-32.9,6.22-49.57,5.33c-36.98-1.99-72.91-11.96-109.49-16.95c-33.52-4.58-72.93-5.3-95.27,24.72
				c-1.75,2.35-4.03,6.76-1.89,9.56c2.07,2.7,5.91,0.25,7.41-1.77c18.95-25.46,55.46-22.68,83.44-18.95
				c37.74,5.03,74.81,15.56,112.98,17.22c17.19,0.75,35.01-0.33,51.33-6.19c20.71-7.44,39.45-22.44,49.19-42.42
				c12.34-25.34,6.03-53.44-4.55-78.25c-9-21.11-21.93-40.33-36.33-58.1c-34.14-42.14-76.59-78.32-121.41-108.65
				C1038.71,807.74,1030.99,820.58,1036.18,824.09L1036.18,824.09z"/>
		</g>
	</g>
	<g>
		<g>
			<path d="M1521.42,886.68c-27.33,48.66-49.52,100-74.15,150.03c-6.03,12.24-12.19,24.43-18.63,36.46
				c-5.97,11.15-11.66,24.5-20.97,33.31c-8.72,8.25-22.47,10.4-31.18,0.96c-7.78-8.43-9.93-20.78-12.48-31.54
				c-8.16-34.44-16.33-68.88-24.49-103.32c-0.82-3.47-4.68-2.36-6.68-0.75c-2.65,2.15-4.54,6.28-3.73,9.69
				c7.71,32.53,15.42,65.05,23.13,97.58c2.89,12.18,5.05,25.5,12.19,36.09c6.83,10.15,18.46,14.63,30.28,11.02
				c13.75-4.2,22.98-15.76,30.08-27.63c7.26-12.13,13.78-24.73,20.22-37.31c13.82-26.98,26.64-54.46,39.65-81.83
				c14.15-29.76,28.41-59.52,44.56-88.27c1.27-2.27,2.82-7.03-0.15-8.75C1526.14,880.75,1522.65,884.49,1521.42,886.68
				L1521.42,886.68z"/>
		</g>
	</g>
	<g>
		<g>
			<path d="M1317.84,871.18c-3.32-20.07-5.08-40.34-8.3-60.42c-1.19-7.44-3.25-14.47-6.31-21.37c-2.79-6.29-6.13-13.15-11.75-17.41
				c-5.75-4.36-12.61-2.02-17.3,2.82c-6.11,6.32-7.94,15.43-7.83,23.95c0.15,12,2.07,24.17,3.17,36.12
				c1.17,12.59,2.33,25.17,3.5,37.76c2,21.58,2.65,43.82,7.18,65.06c3.39,15.87,10.46,33.03,25.79,40.73
				c18.33,9.2,40.03,1.82,54.41-11.21c14.55-13.19,25.07-31.79,29.83-50.77c4.85-19.34,2.17-42.33-16.17-53.7
				c-17.62-10.92-40.89-6.52-59.84-2.22c-5.45,1.24-10,15.18-2.54,13.49c15.15-3.43,32.36-6.97,47.54-1.77
				c15.29,5.23,22.99,19.28,22.37,34.94c-1.18,29.69-30.04,71.26-63.98,60.01c-14.33-4.75-21.79-18.68-25.52-32.38
				c-4.62-16.93-5.16-34.9-6.77-52.28c-2.02-21.86-4.05-43.72-6.07-65.58c-0.83-8.94-2.69-18.39-2.01-27.38
				c0.31-4.09,1.42-8.29,6.07-5.1c5.09,3.5,8.22,10.6,10.49,16.11c2.82,6.83,4.49,13.67,5.63,20.95
				c3.06,19.48,4.79,39.14,8.02,58.61c0.59,3.57,4.82,2.25,6.68,0.75C1316.92,878.6,1318.42,874.71,1317.84,871.18L1317.84,871.18z"
				/>
		</g>
	</g>
	<g>
		<g>
			<path d="M1659.2,893.36c49.79,54.59,99.58,109.18,149.37,163.77c19.79,21.7,43.01,46.47,38.91,78.28
				c-1,7.75-3.33,15.28-6.59,22.37c-2.67,5.81-5.78,11.13-8.76,14.78c-5.94,7.27-13.23,13.48-20.3,19.59
				c-17.88,15.45-37.24,29.23-54.78,45.06c-2.41,2.18-4.87,6.32-3.73,9.69c1.09,3.25,4.55,2.67,6.68,0.75
				c16.13-14.55,33.87-27.32,50.44-41.35c8.48-7.18,16.92-14.54,24.44-22.76c8.81-9.63,15.16-21.99,19.21-34.32
				c5.11-15.57,6.44-32.32,1.54-48.12c-4.61-14.85-13.75-27.79-23.7-39.54c-24.08-28.44-50.17-55.35-75.28-82.88
				c-29.38-32.21-58.76-64.43-88.14-96.64C1663.91,876.99,1655.33,889.11,1659.2,893.36L1659.2,893.36z"/>
		</g>
	</g>
	<g>
		<g>
			<path d="M320.45,1398.09c0.01,86.65,0,173.3,0,259.95c0,22.35,0,44.69,0,67.04c0,3.3,2.74,4.55,5.51,3.18
				c3.14-1.55,5.3-5.77,5.3-9.19c-0.01-86.65,0-173.3,0-259.95c0-22.35,0-44.69,0-67.04c0-3.3-2.74-4.55-5.51-3.18
				C322.62,1390.46,320.45,1394.68,320.45,1398.09L320.45,1398.09z"/>
		</g>
	</g>
	<g>
		<g>
			<path d="M467.44,1386.06c-2.44,85.66-1.1,171.53,1.68,257.17c0.71,21.97,1.58,43.93,2.71,65.88c0.17,3.25,2.63,4.61,5.51,3.18
				c3.01-1.49,5.48-5.83,5.3-9.19c-4.43-85.59-5.86-171.43-5.42-257.12c0.11-21.98,0.4-43.95,1.03-65.92
				c0.09-3.33-2.8-4.52-5.51-3.18C469.54,1378.47,467.54,1382.62,467.44,1386.06L467.44,1386.06z"/>
		</g>
	</g>
	<g>
		<g>
			<path d="M906.26,1363.77c-4.61,41.12-5.9,82.69-7.26,124.01c-1.63,49.56-2.52,99.17-2.34,148.76
				c0.07,20.42,0.25,40.86,1.25,61.25c0.16,3.26,2.63,4.61,5.51,3.18c3.02-1.49,5.47-5.83,5.3-9.19
				c-1.99-40.8-1.45-81.77-0.91-122.59c0.65-49.19,1.94-98.4,4.51-147.53c1.05-20.2,2.2-40.45,4.45-60.56
				C917.87,1351.35,906.99,1357.29,906.26,1363.77L906.26,1363.77z"/>
		</g>
	</g>
	<g>
		<g>
			<path d="M1051.54,1365.44c-2.38,41.23-2.01,82.69-1.82,123.97c0.23,49.81,1.01,99.61,2.39,149.4c0.57,20.56,1.2,41.13,2.25,61.67
				c0.17,3.25,2.63,4.61,5.51,3.18c3.01-1.49,5.48-5.83,5.3-9.19c-2.12-41.29-2.92-82.66-3.65-123.99
				c-0.88-49.79-1.38-99.6-0.87-149.4c0.21-20.55,0.5-41.14,1.69-61.66c0.19-3.35-2.87-4.49-5.51-3.18
				C1053.56,1357.88,1051.74,1361.97,1051.54,1365.44L1051.54,1365.44z"/>
		</g>
	</g>
	<g>
		<g>
			<path d="M1536.71,1396.43c-6.38,38.44-4.73,78.61-3.7,117.4c1.24,46.73,3.92,93.4,6.42,140.08c1.06,19.73,2.17,39.46,2.68,59.21
				c0.08,3.28,2.68,4.58,5.51,3.18c3.08-1.52,5.39-5.8,5.3-9.19c-1-39.05-3.78-78.06-5.75-117.06
				c-2.34-46.15-4.51-92.41-3.86-138.64c0.27-19.22,0.76-38.66,3.91-57.65c0.47-2.85-0.58-6.01-3.99-5.41
				C1539.9,1388.94,1537.22,1393.38,1536.71,1396.43L1536.71,1396.43z"/>
		</g>
	</g>
	<g>
		<g>
			<path d="M1664.8,1396.43c-4.14,36.64-1.28,74.4,0.56,111.09c2.27,45.33,5.55,90.6,8.28,135.9c1.09,18.11,2.25,36.25,2.49,54.39
				c0.04,3.29,2.71,4.57,5.51,3.18c3.11-1.54,5.35-5.79,5.3-9.19c-0.48-36.59-3.66-73.2-6.01-109.7
				c-2.9-45.04-5.91-90.13-6.82-135.27c-0.35-17.47-0.67-36.62,1.19-53.08C1676.41,1384.01,1665.53,1389.95,1664.8,1396.43
				L1664.8,1396.43z"/>
		</g>
	</g>
	<g>
		<g>
			<path d="M210.09,1848.8c-1.73-23.62,2.26-47.9,14.01-68.68c11.92-21.1,31.35-36.49,54.46-43.74c23.37-7.33,49.48-6.91,72.31,2.24
				c22.03,8.83,39.22,25.15,49.62,46.41c12.24,25.02,14.79,53.9,13.65,81.35c-0.14,3.34,2.83,4.51,5.51,3.18
				c3.24-1.61,5.16-5.74,5.3-9.19c2.12-51.25-11.29-109.8-62.4-132.96c-24.66-11.18-53.33-12.74-79.26-5.18
				c-26.02,7.58-47.88,24.09-62.83,46.61c-16.64,25.06-23.37,56.17-21.19,85.97C199.93,1863.66,210.51,1854.56,210.09,1848.8
				L210.09,1848.8z"/>
		</g>
	</g>
	<g>
		<g>
			<path d="M202.11,1858.66c70.37,3.9,140.84,5.79,211.21,9.69c5.83,0.32,11.71-13.36,5.16-13.72
				c-70.37-3.9-140.84-5.79-211.21-9.69C201.44,1844.61,195.56,1858.3,202.11,1858.66L202.11,1858.66z"/>
		</g>
	</g>
	<g>
		<g>
			<path d="M202.11,1841.08c71.39,4.62,143.23,8.14,214.76,5.11c3.52-0.15,6.19-3.28,7.33-6.42c0.69-1.9,1.4-7.46-2.17-7.3
				c-71.53,3.04-143.37-0.49-214.76-5.11C201.45,1826.99,195.54,1840.66,202.11,1841.08L202.11,1841.08z"/>
		</g>
	</g>
	<g>
		<g>
			<path d="M416.54,1790.9c0.16-29.98,14.76-63.76,45.37-73.33c19.73-6.17,42.19-2.85,60.2,6.89c19.79,10.7,32.72,28.36,38.87,49.8
				c8.25,28.76,5.65,59.29,3.23,88.68c-0.28,3.37,2.92,4.46,5.51,3.18c3.35-1.66,5.02-5.7,5.3-9.19
				c4.16-50.41,7.34-114.72-42.93-144.08c-19.55-11.42-44.51-15.53-66.43-9.14c-18.96,5.53-34.09,19-44.15,35.73
				c-10.29,17.11-15.68,37.52-15.78,57.45c-0.02,3.31,2.75,4.55,5.51,3.18C414.39,1798.52,416.52,1794.31,416.54,1790.9
				L416.54,1790.9z"/>
		</g>
	</g>
	<g>
		<g>
			<path d="M413.32,1868.34c51.05,0.03,102.02,3.73,153.06,3.78c5.84,0.01,11.58-13.72,5.16-13.72
				c-51.04-0.05-102.01-3.74-153.06-3.78C412.64,1854.62,406.9,1868.34,413.32,1868.34L413.32,1868.34z"/>
		</g>
	</g>
	<g>
		<g>
			<path d="M421.32,1846.08c48.35-0.85,96.71,0.73,145.06-0.12c5.84-0.1,11.52-13.83,5.16-13.72c-48.35,0.85-96.71-0.73-145.06,0.12
				C420.64,1832.46,414.96,1846.2,421.32,1846.08L421.32,1846.08z"/>
		</g>
	</g>
	<g>
		<g>
			<path d="M461.66,1760.11c20.26,0,40.53,0,60.79,0c5.84,0,11.57-13.72,5.16-13.72c-20.26,0-40.53,0-60.79,0
				C460.98,1746.38,455.25,1760.11,461.66,1760.11L461.66,1760.11z"/>
		</g>
	</g>
	<g>
		<g>
			<path d="M461.66,1789.88c18.75,0.01,37.5,0.19,56.24,0.19c5.84,0,11.58-13.72,5.16-13.72c-18.75-0.01-37.5-0.19-56.24-0.19
				C460.98,1776.16,455.25,1789.88,461.66,1789.88L461.66,1789.88z"/>
		</g>
	</g>
	<g>
		<g>
			<path d="M253.59,1746.86c11.95,15.51,25.19,30,37.15,45.51c4.08,5.3,12.87-6.71,9.3-11.33c-11.95-15.51-25.19-30-37.15-45.51
				C258.81,1730.23,250.03,1742.24,253.59,1746.86L253.59,1746.86z"/>
		</g>
	</g>
	<g>
		<g>
			<path d="M229.01,1768.43c7.04,15.23,20.04,27.41,29.9,40.8c3.94,5.35,12.77-6.62,9.3-11.33c-5.02-6.81-10.48-13.28-15.74-19.9
				c-4.57-5.75-9.94-11.79-13.05-18.51C236.15,1752.41,226.65,1763.32,229.01,1768.43L229.01,1768.43z"/>
		</g>
	</g>
	<g>
		<g>
			<path d="M810.97,1824.78c-5.23-41.81,11.84-93.31,52.56-111.47c22.68-10.11,49.55-10.96,73.13-3.49
				c23.57,7.47,42.77,23.32,55.09,44.66c14.09,24.42,18.88,53.45,17.54,81.34c-0.16,3.34,2.85,4.5,5.51,3.18
				c3.26-1.62,5.14-5.73,5.3-9.19c2.57-53.19-18.59-112.28-72.36-131.76c-25.53-9.25-54.27-9.24-79.56,0.84
				c-23.59,9.4-41.07,27.3-52.46,49.81c-12.61,24.94-19.06,54.16-15.57,82.06C801.26,1839.63,811.69,1830.55,810.97,1824.78
				L810.97,1824.78z"/>
		</g>
	</g>
	<g>
		<g>
			<path d="M802.98,1834.64c69.72,0.02,139.42,2.5,209.14,2.52c5.84,0,11.58-13.72,5.16-13.72c-69.72-0.02-139.42-2.5-209.14-2.52
				C802.3,1820.92,796.57,1834.64,802.98,1834.64L802.98,1834.64z"/>
		</g>
	</g>
	<g>
		<g>
			<path d="M807.04,1807.77c67.92,1.98,135.87-2.17,203.79-0.19c5.84,0.17,11.65-13.53,5.16-13.72
				c-67.92-1.98-135.87,2.17-203.79,0.19C806.36,1793.88,800.55,1807.59,807.04,1807.77L807.04,1807.77z"/>
		</g>
	</g>
	<g>
		<g>
			<path d="M851.62,1718.74c10.91,14.14,22.28,27.92,33.19,42.06c4.09,5.3,12.87-6.71,9.3-11.33
				c-10.91-14.14-22.28-27.92-33.19-42.06C856.83,1702.11,848.05,1714.12,851.62,1718.74L851.62,1718.74z"/>
		</g>
	</g>
	<g>
		<g>
			<path d="M835.9,1733.27c10.05,14.8,21.69,28.43,32.31,42.81c3.95,5.35,12.78-6.63,9.3-11.33c-10.63-14.38-22.27-28-32.31-42.81
				C841.52,1716.51,832.6,1728.41,835.9,1733.27L835.9,1733.27z"/>
		</g>
	</g>
	<g>
		<g>
			<path d="M1001.78,1743.13c16.55-30.42,54.38-45.27,87.73-38.7c16,3.15,29.28,11.47,39.06,24.49
				c10.11,13.46,16.25,29.51,20.44,45.69c4.75,18.33,6.99,37.26,7.04,56.18c0.01,3.3,2.74,4.56,5.51,3.18
				c3.13-1.55,5.31-5.78,5.3-9.19c-0.1-35.52-6.59-75.66-27.57-105.24c-10.39-14.65-24.53-24.23-42.03-28.28
				c-18.2-4.21-37.68-1.99-54.92,4.94c-20.4,8.21-37.82,23.04-48.36,42.42c-1.24,2.29-2.84,7.02,0.15,8.75
				C997.04,1749.05,1000.58,1745.34,1001.78,1743.13L1001.78,1743.13z"/>
		</g>
	</g>
	<g>
		<g>
			<path d="M1012.12,1839.69c48.89-2.57,97.87-2.48,146.76-5.05c3.52-0.19,6.18-3.25,7.33-6.42c0.68-1.87,1.4-7.49-2.17-7.3
				c-48.89,2.57-97.87,2.48-146.76,5.05c-3.52,0.19-6.18,3.26-7.33,6.42C1009.26,1834.26,1008.54,1839.88,1012.12,1839.69
				L1012.12,1839.69z"/>
		</g>
	</g>
	<g>
		<g>
			<path d="M1038.19,1740.97c21.2-0.09,42.41,0.09,63.61,0c5.84-0.02,11.56-13.75,5.16-13.72c-21.2,0.09-42.41-0.09-63.61,0
				C1037.51,1727.27,1031.79,1741,1038.19,1740.97L1038.19,1740.97z"/>
		</g>
	</g>
	<g>
		<g>
			<path d="M1038.19,1762c19.95,1.64,40.12-1.64,60.07,0c5.81,0.48,11.76-13.18,5.16-13.72c-19.95-1.64-40.12,1.64-60.07,0
				C1037.54,1747.8,1031.59,1761.46,1038.19,1762L1038.19,1762z"/>
		</g>
	</g>
	<g>
		<g>
			<path d="M1016.54,1818.11c46.4-0.08,92.72-6.64,139.14-4.6c5.83,0.26,11.68-13.44,5.16-13.72c-46.42-2.04-92.74,4.51-139.14,4.6
				C1015.86,1804.4,1010.13,1818.12,1016.54,1818.11L1016.54,1818.11z"/>
		</g>
	</g>
	<g>
		<g>
			<path d="M1416.95,1829.83c0.82-20.55,8.28-42.08,19.54-59.21c13.02-19.82,36.98-31.12,58.89-38.08
				c23.04-7.32,48.23-11.61,72.24-6.9c22.33,4.38,40.6,18.27,50.01,39.09c10.46,23.15,10.82,49.72,10.78,74.66
				c0,3.31,2.74,4.55,5.51,3.18c3.14-1.56,5.3-5.77,5.3-9.19c0.04-24.39-0.51-49.98-9.31-73.05c-8.97-23.49-26.78-40.51-51.23-47.06
				c-25.5-6.83-53.46-2.52-78.31,5.01c-24.93,7.56-51.6,20.23-67.45,41.71c-15.8,21.42-25.73,49.2-26.79,75.83
				c-0.13,3.34,2.83,4.51,5.51,3.18C1414.88,1837.41,1416.81,1833.27,1416.95,1829.83L1416.95,1829.83z"/>
		</g>
	</g>
	<g>
		<g>
			<path d="M1408.96,1839.69c58.25,2.51,116.59,1.37,174.88,2.25c15.8,0.24,31.61,0.62,47.4,1.3c5.83,0.25,11.68-13.44,5.16-13.72
				c-58.25-2.51-116.59-1.37-174.88-2.25c-15.8-0.24-31.61-0.62-47.4-1.3C1408.29,1825.71,1402.44,1839.41,1408.96,1839.69
				L1408.96,1839.69z"/>
		</g>
	</g>
	<g>
		<g>
			<path d="M1414.04,1823.15c73.53,0,147.06,0,220.59,0c5.84,0,11.57-13.72,5.16-13.72c-73.53,0-147.06,0-220.59,0
				C1413.36,1809.42,1407.63,1823.15,1414.04,1823.15L1414.04,1823.15z"/>
		</g>
	</g>
	<g>
		<g>
			<path d="M1491.01,1751.55c9.33,8.48,18.65,16.96,27.98,25.44c4.19,3.81,12.21-8.71,7.5-12.99c-9.33-8.48-18.65-16.96-27.98-25.44
				C1494.32,1734.76,1486.31,1747.28,1491.01,1751.55L1491.01,1751.55z"/>
		</g>
	</g>
	<g>
		<g>
			<path d="M1470.66,1766.82c8.48,7.63,16.96,15.26,25.44,22.89c4.22,3.8,12.23-8.74,7.5-12.99c-8.48-7.63-16.96-15.26-25.44-22.89
				C1473.94,1750.03,1465.94,1762.56,1470.66,1766.82L1470.66,1766.82z"/>
		</g>
	</g>
	<g>
		<g>
			<path d="M1625.73,1753.37c10.97-27.9,40.47-50.6,71.34-44.8c32.37,6.08,56.32,35.58,62.36,66.83
				c3.73,19.27,2.49,39.37,0.44,58.77c-1.03,9.76,9.83,3.82,10.52-2.67c4-37.81,4.65-78.95-22.02-109.19
				c-11.76-13.33-27.18-23.46-44.7-27.17c-16.81-3.56-33.65,0.6-48.06,9.65c-17.8,11.18-31.7,28.16-39.38,47.7
				c-0.96,2.44-1.21,6.76,2.17,7.3C1621.77,1760.34,1624.73,1755.93,1625.73,1753.37L1625.73,1753.37z"/>
		</g>
	</g>
	<g>
		<g>
			<path d="M1634.63,1844.15c42.62-1.9,85.29-2.56,127.91-4.46c3.52-0.16,6.19-3.27,7.33-6.42c0.69-1.9,1.4-7.46-2.17-7.3
				c-42.62,1.89-85.29,2.56-127.91,4.46c-3.52,0.16-6.19,3.27-7.33,6.42C1631.77,1838.74,1631.06,1844.31,1634.63,1844.15
				L1634.63,1844.15z"/>
		</g>
	</g>
	<g>
		<g>
			<path d="M1637.51,1823.15c41.67-1.11,83.37,1.11,125.03,0c5.84-0.16,11.49-13.89,5.16-13.72c-41.67,1.11-83.37-1.11-125.03,0
				C1636.83,1809.58,1631.17,1823.32,1637.51,1823.15L1637.51,1823.15z"/>
		</g>
	</g>
	<g>
		<g>
			<path d="M1654.58,1746.79c19.42-0.04,38.85-1.2,58.22-2.5c3.53-0.24,6.17-3.22,7.33-6.42c0.67-1.83,1.4-7.55-2.17-7.3
				c-19.37,1.3-38.8,2.46-58.22,2.5C1653.89,1733.08,1648.17,1746.81,1654.58,1746.79L1654.58,1746.79z"/>
		</g>
	</g>
	<g>
		<g>
			<path d="M1658.82,1767.06c16.85-1.75,37.2-0.66,55.29-2.54c5.56-0.58,10.31-14.3,2.54-13.49c-16.85,1.75-37.2,0.66-55.29,2.54
				C1655.8,1754.16,1651.05,1767.87,1658.82,1767.06L1658.82,1767.06z"/>
		</g>
	</g>
	<g>
		<g>
			<path d="M302.8,1067.06c11.71-64.86,29.52-129.45,56.13-189.84c1.06-2.42,1.13-6.77-2.17-7.3c-3.46-0.56-6.22,3.89-7.33,6.42
				c-27.09,61.47-45.22,127.39-57.14,193.4c-0.51,2.85,0.61,6.01,3.99,5.41C299.64,1074.55,302.25,1070.11,302.8,1067.06
				L302.8,1067.06z"/>
		</g>
	</g>
	<g>
		<g>
			<path d="M253.49,1255.11c-4.68,14.8-8.99,29.86-11.21,45.25c-1.87,12.99-2.76,27.12,1.5,39.76c8.7,25.83,34.09,41.52,59.39,47.67
				c15.86,3.85,32.28,4.45,48.53,4.36c17.46-0.1,34.93-0.61,52.39-0.95c17.45-0.34,34.9-0.67,52.35-1.01
				c15.21-0.29,30.51-0.26,45.63-2.12c27.19-3.34,52.11-15.73,65.34-40.68c12.02-22.67,13.22-49.26,11.03-74.33
				c-2.65-30.27-9-60.38-14.22-90.28c-5.84-33.42-11.94-66.79-18.38-100.1c-12.81-66.25-26.93-132.26-43.27-197.73
				c-2.03-8.12-4.09-16.22-6.18-24.32c-0.89-3.44-4.64-2.4-6.68-0.75c-2.61,2.11-4.61,6.31-3.73,9.69
				c15.96,61.69,29.84,123.91,42.41,186.37c12.6,62.58,23.89,125.42,34.39,188.39c7.07,42.41,16.86,107.17-35.01,125.17
				c-12.94,4.49-26.72,5.83-40.33,6.37c-15.84,0.64-31.71,0.71-47.56,1.02c-32.52,0.63-65.3,2.49-97.82,1.36
				c-27.31-0.95-56.86-6.76-76.11-27.87c-8.25-9.05-13.44-19.92-14.2-32.2c-0.86-13.99,1.91-28.03,5.3-41.53
				c1.74-6.95,3.79-13.81,5.94-20.64c0.78-2.48,1.33-6.74-2.17-7.3C257.59,1248.17,254.3,1252.52,253.49,1255.11L253.49,1255.11z"/>
		</g>
	</g>
	<g>
		<g>
			<path d="M909.02,830.98c-25.63,93.48-47.28,188.04-64.79,283.38c-8.23,44.8-16.72,89.98-21.89,135.25
				c-1.79,15.67-2.71,31.54-1.89,47.31c0.73,14.04,2.33,29.77,9.95,41.98c9.11,14.6,27.72,20.39,43.78,22.73
				c22.03,3.21,44.77,2.91,66.98,3.92c24.21,1.11,48.41,2.31,72.63,3.31c19.86,0.82,40.35,1.1,59.65-4.31
				c38.68-10.84,61.67-46.43,66.58-84.93c2.95-23.11-0.09-46.38-4.66-69.07c-4.87-24.16-10.74-48.15-16.21-72.18
				c-22.01-96.73-44.02-193.46-66.03-290.2c-2.66-11.69-5.32-23.37-7.98-35.06c-0.79-3.49-4.7-2.35-6.68-0.75
				c-2.67,2.16-4.51,6.26-3.73,9.69c21.2,93.16,42.4,186.32,63.59,279.48c5.32,23.37,10.64,46.74,15.95,70.11
				c5.11,22.44,10.96,44.9,14.15,67.72c5.06,36.22,1.36,82.41-33.37,103.51c-16.84,10.24-37.04,12.52-56.37,12.67
				c-21.94,0.17-43.95-1.52-65.86-2.52c-23.24-1.06-46.47-2.12-69.71-3.19c-17.79-0.82-37.24-1.67-52.61-11.73
				c-12.19-7.98-16.21-20.72-18.11-34.56c-2.1-15.3-1.69-31.03-0.51-46.4c1.37-17.81,4.5-35.49,7.23-53.13
				c3.59-23.14,7.42-46.25,11.49-69.31c16.17-91.61,36.13-182.55,59.82-272.5c2.98-11.32,6.03-22.63,9.12-33.92
				c0.78-2.85-0.79-5.97-3.99-5.41C911.96,823.54,909.86,827.93,909.02,830.98L909.02,830.98z"/>
		</g>
	</g>
	<g>
		<g>
			<path d="M1520.06,890.27c-25.69,94.08-48.23,189.01-67.51,284.61c-7.77,38.56-16.94,77.57-19.77,116.9
				c-1.2,16.62-1.19,33.91,3.09,50.13c4.18,15.81,13.46,28.01,27.59,36.37c16.72,9.89,36.55,13.33,55.52,15.96
				c24.03,3.33,48.21,5.58,72.44,6.75c23.42,1.14,47.03,1.57,70.46,0.31c19.73-1.07,40.11-3.97,57.35-14.29
				c31.95-19.13,42.92-56.35,44.48-91.51c0.83-18.71-0.82-37.39-2.88-55.97c-2.57-23.15-5.95-46.22-10.02-69.15
				c-16.64-93.7-44.69-185.02-76.75-274.48c-3.84-10.72-7.74-21.41-11.69-32.09c-2.67-7.22-12.37,3.65-10.41,8.95
				c31.73,85.81,60.43,173.03,79.77,262.55c9.37,43.39,16.97,87.5,20.4,131.79c2.39,30.86,3.13,68.86-17.67,94.22
				c-11.67,14.22-28.91,21.01-46.63,24.05c-20.88,3.58-42.61,3.08-63.71,2.77c-23.6-0.35-47.19-1.72-70.67-4.11
				c-20.6-2.1-41.88-4.04-61.82-9.93c-16.02-4.73-32.58-13.44-40.7-28.7c-6.96-13.07-8.01-29.05-7.96-43.57
				c0.12-35.81,8.67-71.56,15.52-106.51c18-91.85,38.98-183.11,62.92-273.59c3.01-11.39,6.08-22.77,9.18-34.13
				c0.78-2.85-0.79-5.97-3.99-5.41C1523,882.82,1520.89,887.21,1520.06,890.27L1520.06,890.27z"/>
		</g>
	</g>
</g>
<g id="Ebene_4">
	<g>
		<g>
			<path d="M403.69,636.52c0.29,0,0.58-0.5,0.87-0.5C404.27,636.02,403.98,636.52,403.69,636.52L403.69,636.52z"/>
		</g>
	</g>
	<g>
		<g>
			<path d="M469.16,692.88c-1.3,16.27-2.6,32.53-3.9,48.8c-0.55,6.92,29.36,8.04,30,0c1.3-16.27,2.6-32.53,3.9-48.8
				C499.71,685.96,469.8,684.84,469.16,692.88L469.16,692.88z"/>
		</g>
	</g>
	<g>
		<g>
			<path d="M515.03,696.78c-0.53,14.96-0.41,29.93-0.93,44.9c-0.25,7.24,29.73,7.79,30,0c0.53-14.96,0.41-29.93,0.93-44.9
				C545.28,689.54,515.3,688.99,515.03,696.78L515.03,696.78z"/>
		</g>
	</g>
	<g>
		<g>
			<path d="M371.3,788.63c33.38,38.97,95.95,46.71,140.91,24.93c6.13-2.97-2.86-6.65-5.38-7.18c-6.64-1.4-14.35-1.11-20.52,1.88
				c-3.83,1.85-7.88,3.36-11.98,4.48c-2.97,0.82-7.41,1.55-9.8,1.79c-1.16,0.11-2.32,0.21-3.48,0.28c-2.52,0.16,3.5,0.09-0.9,0
				c-1.16-0.02-2.33,0-3.5-0.02c-2.54-0.04,3.5,0.36-0.91-0.05c-1.16-0.11-2.33-0.19-3.49-0.32c-0.37-0.04-3.39-0.43-1.28-0.12
				c-2.31-0.34-4.61-0.81-6.88-1.34c-16.02-3.69-32.47-13.82-43.86-27.12c-3.87-4.52-13.14-4.19-18.45-3.67
				C379.88,782.36,367.7,784.43,371.3,788.63L371.3,788.63z"/>
		</g>
	</g>
	<g>
		<g>
			<path d="M911.83,632.35c-0.61,18.22-1.23,36.44-1.84,54.66c-0.24,7.25,29.74,7.78,30,0c0.61-18.22,1.23-36.44,1.84-54.66
				C942.08,625.1,912.1,624.57,911.83,632.35L911.83,632.35z"/>
		</g>
	</g>
	<g>
		<g>
			<path d="M982.48,636.43c-0.08,17.65-1.8,35.28-1.88,52.93c-0.03,7.44,29.97,7.61,30,0c0.08-17.65,1.8-35.28,1.88-52.93
				C1012.52,628.99,982.52,628.82,982.48,636.43L982.48,636.43z"/>
		</g>
	</g>
	<g>
		<g>
			<path d="M855.48,740.77c44.31,33.19,104.38,43.01,158.03,32.01c15.2-3.12,29.8-8.14,43.77-14.87c6.14-2.96-2.87-6.65-5.38-7.18
				c-6.65-1.41-14.34-1.09-20.52,1.88c-12.25,5.9-25.01,9.81-38.28,12.1c-1.01,0.17-2.02,0.34-3.03,0.49
				c1.05-0.17,0.73-0.13-0.97,0.11c-1.52,0.18-3.05,0.36-4.57,0.52c-2.04,0.2-4.08,0.35-6.12,0.5c-3.44,0.25,1.01,0.04-2.15,0.1
				c-3.59,0.06-7.16,0.07-10.75-0.02c-1.84-0.07-2.05-0.08-0.62-0.02c-1.02-0.06-2.04-0.13-3.07-0.21c-1.79-0.14-3.57-0.3-5.35-0.49
				c-11.69-1.24-25.6-4.6-38.01-9.41c-13.28-5.14-25.69-12.28-37.08-20.81c-5.07-3.8-14.72-3.11-20.52-1.88
				C857.24,734.36,850.33,736.91,855.48,740.77L855.48,740.77z"/>
		</g>
	</g>
	<g>
		<g>
			<path d="M1405.41,645.98c-1.28,19.52-2.57,39.04-3.85,58.56c-0.46,7.02,29.48,7.96,30,0c1.28-19.52,2.57-39.04,3.85-58.56
				C1435.88,638.96,1405.94,638.02,1405.41,645.98L1405.41,645.98z"/>
		</g>
	</g>
	<g>
		<g>
			<path d="M1452.96,659.69c-3.12,19.54-2.46,39.28,1.95,58.56c1.94,8.49,31.33,5.82,30,0c-4.41-19.28-5.07-39.02-1.95-58.56
				C1483.97,653.4,1454.3,651.31,1452.96,659.69L1452.96,659.69z"/>
		</g>
	</g>
	<g>
		<g>
			<path d="M1425.68,777.6c48.55,26,110.06,29.13,161.15,8.56c-8.36-0.77-16.71-1.54-25.07-2.32c13.56,20.79,6.34,51.96-14.51,65.27
				c-4.71,3.01-10.8,5.33-14.9,5.94c1.12-0.17-4.6,0.33-1.63,0.22c-0.69,0.03-4.33-0.04-1.99,0.08c-4.01-0.21-4.5-0.28-8.18-1.31
				c-12.45-3.49-23.17-12.5-30.71-23.08c-9.29-13.02-13.99-28.48-14.51-44.39c-0.25-7.67-30.24-7.36-30,0
				c1.11,33.99,22.08,65.75,55.52,75.32c33.17,9.49,79.04,2.92,93.44-32.87c6.35-15.8,5.86-33.48-3.59-47.97
				c-1.86-2.84-7.57-3.38-10.48-3.67c-4.64-0.46-10.19-0.42-14.59,1.35c-9.69,3.9-19.59,6.8-29.89,8.56
				c-4.02,0.69-9.04,1.2-13.87,1.5c1.77-0.11-1.55,0.06-1.87,0.07c-1.4,0.04-2.79,0.06-4.19,0.06c-1.4,0-2.79-0.02-4.19-0.05
				c-0.31-0.01-3.64-0.16-1.87-0.06c-19.99-1.13-39.92-6.74-58.16-16.51c-5.97-3.2-14.03-3.26-20.52-1.88
				C1428.28,771.01,1419.68,774.39,1425.68,777.6L1425.68,777.6z"/>
		</g>
	</g>
</g>
<g id="Ebene_5">
	<g>
		<g>
			<path d="M236.34,745.39c102.81-29.29,198.54-79.3,282.9-144.77c23.91-18.56,46.94-38.23,69.14-58.79
				c4.17-3.86-9.05-6.32-10.48-6.46c-5.78-0.57-13.88-0.57-18.45,3.67c-76.5,70.84-163.83,130.48-260.58,170.04
				c-27.35,11.18-55.33,20.79-83.74,28.89c-1.35,0.39-4.39,1.81-4.39,3.71c0,1.98,3.04,3.22,4.39,3.71
				C221.74,747.81,229.68,747.29,236.34,745.39L236.34,745.39z"/>
		</g>
	</g>
	<g>
		<g>
			<path d="M272.5,671.51c63.29-26.08,123.71-58.93,179.71-98.32c15.83-11.13,31.28-22.78,46.37-34.89c4.87-3.91-1.68-6.4-5.38-7.18
				c-5.39-1.14-15.75-1.95-20.52,1.88c-52.48,42.1-109.55,78.42-169.99,107.98c-16.88,8.26-34.02,15.94-51.4,23.1
				c-1.35,0.55-4.39,1.69-4.39,3.71c0,1.98,3.04,3.22,4.39,3.71C257.31,673.72,266.46,674,272.5,671.51L272.5,671.51z"/>
		</g>
	</g>
	<g>
		<g>
			<path d="M309.26,593.85c38.9-38.05,86.64-66.36,138.67-82.28c1.35-0.41,4.39-1.79,4.39-3.71c0-1.98-3.04-3.22-4.39-3.71
				c-6.52-2.38-14.66-2.01-21.21,0c-54.94,16.81-105.32,46.75-146.39,86.92c-4.06,3.97,8.96,6.31,10.48,6.46
				C296.45,598.08,304.86,598.16,309.26,593.85L309.26,593.85z"/>
		</g>
	</g>
	<g>
		<g>
			<path d="M213.3,613.43c-33.6-8.93-76.42-1.99-94.89,30.56c-14.05,24.77-9.25,55.35,14.67,71.92
				c21.11,14.62,49.52,16.03,74.23,14.49c2.85-0.18,12.96-1.62,10.48-6.46c-2.41-4.7-14.58-3.91-18.45-3.67
				c-3.02,0.19,1.82,0-1.14,0.07c-1.24,0.03-2.48,0.07-3.72,0.07c-1.2,0.01-2.41,0-3.61-0.02c-0.78-0.02-1.57-0.05-2.35-0.07
				c1.08,0.02,2.4,0.17,0.55,0.01c-2.19-0.19-4.37-0.4-6.56-0.63c-2.71-0.29,2.06,0.42-0.56-0.09c-1.16-0.22-2.32-0.42-3.47-0.66
				c-0.96-0.2-1.91-0.45-2.87-0.65c-1.74-0.38,1.95,0.58,0.27,0.09c-0.45-0.13-0.9-0.25-1.35-0.39c-1.87-0.59-3.72-1.21-5.55-1.93
				c-0.37-0.14-2.54-1.05-1.62-0.64c0.93,0.41-1.15-0.56-1.5-0.73c-1.69-0.85-3.34-1.78-4.94-2.79
				c-8.89-5.61-16.73-15.6-19.37-26.75c-2.59-10.93-1.27-23.26,3.12-33.14c2.4-5.41,5.61-10.46,9.48-14.94
				c4.36-5.05,7.25-7.5,13-10.92c1.59-0.95,3.23-1.79,4.9-2.6c1.01-0.49-0.58,0.27-0.64,0.29c0.46-0.2,0.92-0.4,1.39-0.58
				c0.83-0.32,1.65-0.64,2.49-0.94c0.85-0.3,1.72-0.53,2.56-0.84c1.86-0.68-2.33,0.46,0.35-0.09c0.9-0.18,1.81-0.38,2.71-0.58
				c3.35-0.75-1.74,0.09,0.4-0.1c0.95-0.09,1.91-0.19,2.86-0.29c3.29-0.34-2.69-0.03-0.22-0.01c1,0.01,2,0,3,0
				c3.36,0.01-2.54-0.29-0.04,0.01c1.04,0.12,2.09,0.2,3.14,0.31c3.3,0.34-2.24-0.49,0.99,0.16c2.37,0.48,4.73,0.98,7.07,1.6
				c5.7,1.51,15.5,1.72,20.52-1.88C224.03,616.78,216.54,614.29,213.3,613.43L213.3,613.43z"/>
		</g>
	</g>
	<g>
		<g>
			<path d="M213.06,638.41c-14.83-7.31-34.92-9.94-49.96-1.58c-10.32,5.73-15.03,17.61-15.63,28.92
				c-1.58,30.12,39.31,44.97,63.25,34.75c1.34-0.57,4.39-1.67,4.39-3.71c0-1.98-3.04-3.22-4.39-3.71c-5.96-2.18-15.25-2.55-21.21,0
				c-1.75,0.75-0.2,0.16,0.78,0.11c2.24-0.1,4.6,0.26,6.79,0.16c-0.8,0.04-1.53-0.52-0.35-0.03c-0.63-0.26-1.79-0.62-2.2-0.8
				c-2.8-1.26-5.86-3.41-8.21-5.67c-5.73-5.5-9.1-11.76-8.89-19.78c0.19-7.37,1.9-14.89,6.63-20.73c0.82-1.01,1.71-2,2.73-2.81
				c1.12-0.88,2.12-1.75,2.79-1.63c-0.77-0.14-2.33,0.39-3.18,0.42c-0.82,0.03-2.8-0.46-3.48-0.21c0.94-0.35,2.92,0.94,4.24,1.59
				c6.15,3.03,13.88,3.29,20.52,1.88C210.28,645.04,219.23,641.45,213.06,638.41L213.06,638.41z"/>
		</g>
	</g>
	<g>
		<g>
			<path d="M1407.63,587.2c40.24-0.41,80.1-10.88,114.28-32.38c-9.32-0.88-18.63-1.77-27.95-2.65
				c-6.03,19.72-12.05,39.43-18.08,59.15c-0.95,3.12,8.16,4.64,9.22,4.8c5.28,0.78,11.3,0.74,16.39-1.09
				c30.24-10.88,60.48-21.76,90.72-32.64c-8.54-1.24-17.07-2.47-25.61-3.71c0.15,23.73,0.31,47.45,0.46,71.18
				c0.03,3.87,8.66,4.83,11.01,5.06c5.03,0.5,12.64,0.72,16.94-2.41c19.43-14.13,38.85-28.27,58.28-42.4
				c-9.32-0.88-18.63-1.77-27.95-2.65c0.42,15.27,0.83,30.55,1.25,45.82c0.19,7.1,0.26,14.23,0.59,21.32
				c0.25,5.28,1.13,10.97,5.16,14.75c5.61,5.28,14.12,6.32,21.5,6.29c7.89-0.03,15.93-1.8,22.67-6.02
				c4.88-3.06,8.62-7.2,12.29-11.55c2.01-2.39,4.09-4.81,6.48-6.83c1.04-0.88,2.28-1.49,3.31-2.34c0.42-0.23,0.84-0.46,1.26-0.69
				c-4.08,1.53-8.37,1.58-12.88,0.16c-1.46-1.24-2.93-2.47-4.39-3.71c-4.25,27.56-4.06,57,3.03,84.11
				c3.16,12.07,9.53,21.25,22.2,24.19c10.76,2.5,31.86,3.2,37.67-9.03c-9.82-0.47-19.64-0.93-29.46-1.4
				c-2.91,11.52-5.81,23.03-8.72,34.55c-1.39,5.51,27.82,8.63,30,0c2.91-11.52,5.81-23.03,8.72-34.55c1.52-6.02-26.6-7.42-29.46-1.4
				c-0.51,1.07-1.46,1.98-1.91,3.01c-0.3,0.67-2.32,0.79,1,0.09c1.04-0.22,8.78,0.16,8.85,0.02c0.25-0.54,1.16,1.24,0.06-0.12
				c-0.32-0.4-1.24-0.9-1.63-1.26c-1.65-1.51-2.95-3.47-4.03-5.42c-4.6-8.29-5.66-19-6.94-28.24c-2.96-21.44-2.67-43.19,0.63-64.57
				c0.28-1.84-3.36-3.39-4.39-3.71c-14.38-4.43-30.43-2.75-41.83,7.5c-4.03,3.62-7.06,8.05-10.83,11.89
				c-1.68,1.71-3.49,3.13-5.55,4.37c-0.67,0.4-1.61,0.7-2.2,1.1c12.41-8.56,16.86,4.91,12.06-0.71c-3.06-3.58-2.63-9.48-2.75-13.88
				c-0.2-6.97-0.38-13.95-0.57-20.92c-0.39-14.28-0.78-28.56-1.17-42.84c-0.11-3.89-8.58-4.82-11.01-5.06
				c-5.03-0.5-12.64-0.72-16.94,2.41c-19.43,14.13-38.85,28.27-58.28,42.4c9.32,0.88,18.63,1.77,27.95,2.65
				c-0.15-23.73-0.31-47.45-0.46-71.18c-0.02-3.48-7.14-4.49-9.22-4.8c-5.28-0.78-11.3-0.74-16.39,1.09
				c-30.24,10.88-60.48,21.76-90.72,32.64c8.54,1.24,17.07,2.47,25.61,3.71c6.03-19.72,12.05-39.43,18.08-59.15
				c1.07-3.51-9.67-4.93-11.01-5.06c-5.29-0.52-12.28-0.52-16.94,2.41c-13.94,8.77-28.79,15.63-44.55,20.42
				c-14.48,4.4-30.24,6.61-43.82,6.75c-3.3,0.03-14.73,0.18-15,5.25C1392.38,586.8,1405.27,587.22,1407.63,587.2L1407.63,587.2z"/>
		</g>
	</g>
</g>
</svg>
