<?xml version="1.0" encoding="utf-8"?>
<!-- Generator: Adobe Adobe Illustrator 24.2.0, SVG Export Plug-In . SVG Version: 6.00 Build 0)  -->
<svg version="1.1" xmlns="http://www.w3.org/2000/svg" xmlns:xlink="http://www.w3.org/1999/xlink" x="0px" y="0px"
	 viewBox="0 0 1700.79 1700.79" style="enable-background:new 0 0 1700.79 1700.79;" xml:space="preserve">
<style type="text/css">
	.st0{fill:#ADBECF;stroke:#F3C057;stroke-miterlimit:10;}
	.st1{fill:#F3C057;stroke:#F3C057;stroke-miterlimit:10;}
	.st2{fill:#F7D98D;stroke:#F3C057;stroke-miterlimit:10;}
	.st3{stroke:#F3C057;stroke-miterlimit:10;}
	.st4{fill:#AEBFCE;stroke:#F3C057;stroke-miterlimit:10;}
	.st5{opacity:0.2706;}
	.st6{fill:#3D4C5B;stroke:#F3C057;stroke-miterlimit:10;}
	.st7{fill:#F3C057;}
	.st8{fill:#7E8D9C;}
	.st9{fill:#7C8E9E;}
	.st10{fill:#FFFFFF;}
	.st11{stroke:#000000;stroke-width:1.0183;stroke-miterlimit:10;}
	.st12{fill:#C8354F;}
	.st13{fill:#FFFFFF;stroke:#000000;stroke-width:1.0183;stroke-miterlimit:10;}
	.st14{fill:#FFFFFF;stroke:#000000;stroke-width:1.411;stroke-miterlimit:10;}
	.st15{fill:#FFFFFF;stroke:#000000;stroke-width:1.4873;stroke-miterlimit:10;}
	.st16{opacity:0.149;}
</style>
<g id="Ebene_2">
	<g>
		<g id="Ebene_7_1_">
			<g>
				<path class="st0" d="M722.74,1062.62c-18.34,9.2-20.69,39.18-4,51.12c-46.77,66.38-35.71,166.95,24.36,221.59
					c19.05,17.33,42.71,30.38,68.29,33.44c47.24,5.64,93.67-24.58,117.92-65.52c9.26-15.63,15.85-32.67,22.4-49.62
					c13.95-36.11,27.9-72.23,41.87-108.34c3.89-10.05,7.83-20.51,7.03-31.26c-1.66-22.4-22.69-37.88-42.54-48.39
					c-48.55-25.72-102.55-41.1-157.37-44.83c-15.65-1.06-31.78-1.13-46.5,4.26c-14.73,5.39-27.94,17.22-31.09,32.58"/>
				<g>
					<path class="st0" d="M722.72,1057.2c-21.32,11.33-30.93,45.55-9.32,61.8c0.3-2.31,0.59-4.64,0.89-6.95
						c-33.32,47.76-39.35,111.28-18.8,165.43c22.14,58.33,81.19,109.61,146.89,95.72c30.32-6.41,57.17-24.9,77.06-48.24
						c24.63-28.9,35.95-66.68,49.41-101.5c7.45-19.28,14.9-38.56,22.35-57.84c3.67-9.49,7.51-18.94,10.94-28.52
						c3.03-8.47,5.46-17.57,4.62-26.64c-2.98-32.32-39-48.99-64.75-60.76c-36.02-16.48-74.52-27.41-113.77-32.57
						c-34.07-4.48-75.49-8.13-100.3,20.86c-5.24,6.12-9.06,13.27-10.85,21.15c-0.73,3.18,1.31,5.14,4.46,4.54
						c3.31-0.64,6.82-4.15,7.56-7.44c7.77-34.06,53.54-30.87,79.88-28.3c36.98,3.61,73.37,12.62,107.83,26.51
						c15.76,6.34,31.54,13.45,46.04,22.34c11.14,6.83,22.6,15.9,28.2,28.04c7.33,15.91,0.46,31.63-5.4,46.81
						c-6.86,17.75-13.72,35.5-20.58,53.26c-6.95,17.98-13.86,35.96-20.84,53.92c-6.34,16.31-12.88,32.95-22.45,47.68
						c-14.87,22.88-36.81,41.73-62.68,50.94c-59.42,21.17-118.85-20.51-144.85-72.79c-23.39-47.03-25.17-105.56-1.01-152.68
						c2.94-5.73,6.26-11.2,9.95-16.49c1.03-1.48,3-5.37,0.89-6.95c-6.99-5.26-10.49-13.27-10.37-21.95
						c0.09-6.92,2.53-15.03,9.04-18.49c2.89-1.53,6.39-4.73,6.18-8.34C728.77,1056.34,725.28,1055.84,722.72,1057.2L722.72,1057.2z"
						/>
				</g>
			</g>
			<g>
				<g>
					<path class="st0" d="M772.21,1375.6c5.63,1.56,14.82-10.13,8.64-11.84C775.23,1362.19,766.04,1373.89,772.21,1375.6
						L772.21,1375.6z"/>
				</g>
			</g>
			<g>
				<g>
					<path class="st0" d="M762.28,1376.32c1.75,11.52,10.4,21.04,22.42,21.99c12.52,0.99,24.37-7.6,29.77-18.44
						c0.75-1.52,1.54-5.54-1.1-6.05c-12.27-2.33-24.55-4.64-36.83-6.97c-3.48-0.65-6.78,1.42-8.78,4.23
						c-1.1,1.55-3.38,6.95,0.14,7.61c12.27,2.33,24.55,4.64,36.83,6.97c-0.37-2.01-0.74-4.02-1.1-6.05
						c-7.07,14.19-27.06,3.07-28.92-9.15C773.53,1362.79,761.43,1370.75,762.28,1376.32L762.28,1376.32z"/>
				</g>
			</g>
		</g>
		<g id="Ebene_5">
			<g>
				<path class="st1" d="M1005.54,1081.08c27.01-98.87,110.45-170.79,192.37-232.38c81.93-61.59,170.12-123.27,215.02-215.41
					c56.78-116.52,28.15-264.66-56.45-362.86s-217.2-148.07-346.82-147.29c-80.79,0.49-162.39,19.72-231.13,62.17
					s-139.37,117.22-160.84,195.1C587.94,488.36,639.06,594.33,676,700.01c36.94,105.68,76.26,217.44,53.88,327.13
					c93.67-15.21,192.96,7.64,270.56,62.28"/>
				<g>
					<path class="st1" d="M1011.55,1079.63c23.72-85.73,90.43-149.98,158.15-203.5c68.14-53.84,142.11-101.44,199.01-168.01
						c26.95-31.53,49.08-67.24,62.84-106.49c12.66-36.09,18.05-74.69,16.96-112.87c-2.22-76.92-30.23-152.99-78.08-213.21
						c-51.79-65.19-125.65-110.96-204.59-135.69c-80.84-25.33-168.39-29.79-251.39-12.76c-41.34,8.49-81.77,22.59-118.84,42.86
						c-36.58,20-69.97,45.83-99.18,75.55c-29.63,30.13-55.82,64.83-72.95,103.64c-16.41,37.19-22.71,77.84-20.44,118.32
						c4.68,83.75,40.82,161.92,68.11,239.99c29.01,82.99,59.56,168.72,59.07,257.78c-0.12,21.28-2.13,42.48-6.33,63.34
						c-0.66,3.26,1.18,5.06,4.46,4.54c72.02-11.52,147.06-0.34,213.05,30.53c18.76,8.77,36.74,19.14,53.7,31.02
						c5.18,3.63,15.44-7.2,10.7-10.51c-61.48-43.05-135.61-66.83-210.67-67.76c-21.33-0.26-42.63,1.38-63.68,4.76
						c1.49,1.51,2.97,3.02,4.46,4.54c17.25-85.79-2.17-172.73-28.32-254.6c-13.08-40.92-27.53-81.43-42.41-121.73
						c-14.42-39.07-29-78.25-38.9-118.76c-9.51-38.89-14.39-79.35-9.16-119.27c5.28-40.32,21.7-77.46,44.88-110.63
						c47.18-67.53,116.6-120.05,194.5-146.75c79.12-27.11,166.33-31.6,248.26-15.56c81.07,15.88,158.99,52.09,219.39,109.05
						c56.37,53.16,94.36,123.82,107.35,200.28c12.95,76.26-0.81,155.13-43.7,219.99c-47.2,71.37-118.63,121.86-186.1,172.44
						c-68.53,51.37-138.33,107.9-179.2,184.86c-9.7,18.26-17.43,37.56-22.95,57.5c-0.88,3.18,1.42,5.12,4.46,4.54
						C1007.43,1086.4,1010.65,1082.92,1011.55,1079.63L1011.55,1079.63z"/>
				</g>
			</g>
		</g>
		<g id="Ebene_6_1_">
			<g>
				<path class="st2" d="M1335.21,433.29c-29.19-78.72-95.8-170.85-171.66-208.07c-75.86-37.22-209.27-24.32-286.87,9.15
					C769.37,280.66,712.1,425,717.63,541.73c4.78,101.08,99.77,168.44,193.33,207c93.55,38.56,215.56,56.64,295.28-5.68
					c79.71-62.32,135.92-208.58,128.92-309.52"/>
				<g>
					<path class="st2" d="M1341.21,429.08c-12.34-33.07-29.24-64.4-49.07-93.56c-20.66-30.38-44.89-58.71-73.1-82.33
						c-24.44-20.46-51.91-37.08-82.73-45.74c-30.93-8.7-63.5-11.4-95.53-10.9c-33.81,0.53-67.71,4.64-100.68,12.18
						c-29.05,6.64-58.4,15.76-84.29,30.8c-52.49,30.49-89.92,82.15-113.28,137.3c-12.07,28.5-20.81,58.41-25.97,88.93
						c-4.95,29.33-7.63,60.16-4.26,89.83c6.86,60.34,46.56,109.02,94.11,143.95c49.85,36.62,108.8,62.73,168.67,77.79
						c59.68,15.02,124.94,19.67,183.52-2.33c57.28-21.51,97.62-70.61,126.51-122.77c30.58-55.19,51.08-118.02,55.92-181.07
						c1.04-13.49,1.23-27.05,0.32-40.55c-0.51-7.66-12.8,0.21-12.42,5.84c3.91,58.57-11.01,118.66-33.68,172.32
						c-11.84,28.02-26.28,55.07-44.08,79.78c-15.96,22.14-34.75,42.85-57.63,57.99c-49.81,32.95-113.47,35.7-170.84,26.92
						c-59.56-9.12-117.95-31.12-170.02-61.25c-49.38-28.59-97.15-68.65-118.2-123.24c-10.4-26.99-12.01-55.34-10.53-83.97
						c1.53-29.49,6.69-58.76,14.95-87.1c16.13-55.34,44.74-109.24,88.84-147.3c20.85-17.99,45.06-30.5,71.07-39.23
						c29.72-9.98,60.79-16.33,91.94-19.73c60.52-6.59,127.72-4.77,181.68,26.6c29.73,17.29,55.49,41.22,77.87,67.16
						c23.25,26.95,43.24,56.77,59.51,88.41c7.3,14.19,13.82,28.77,19.4,43.73C1331.53,443.73,1343.26,434.57,1341.21,429.08
						L1341.21,429.08z"/>
				</g>
			</g>
		</g>
		<g id="Ebene_3">
			<g>
				<g>
					<path class="st3" d="M1005.72,1100.67c16.76-42.23,40-81.31,68.06-116.98c27.45-34.9,59.05-66.31,91.93-96.06
						c33.82-30.59,68.55-60.02,105.76-86.43c36.12-25.64,73.74-50.65,103.42-83.95c52.26-58.63,77.64-137.38,77.64-215.26
						c0.01-78.35-25.04-156.28-72.01-219.09c-50.17-67.08-122.22-115.91-200.68-143.99c-79.76-28.54-166.49-35.98-250.01-22.05
						c-84.46,14.08-166.39,51.13-227.44,112c-61.88,61.7-102.87,147.24-101.5,235.6c0.69,44.74,12.41,88.43,26.87,130.49
						c14.53,42.27,31.33,83.68,45.1,126.23c25.39,78.43,42.12,158.58,48.44,240.83c1.75,22.86,2.85,45.76,3.5,68.67
						c0.21,7.6,12.58-0.2,12.42-5.84c-2.36-84.05-12.05-167.42-33.63-248.81c-10.67-40.24-23.6-79.9-37.99-118.96
						c-15.29-41.53-31.9-82.78-42.38-125.88c-10.35-42.57-13.24-86.37-4.82-129.54c8.2-42.09,25.54-82.19,49.74-117.54
						c48.18-70.36,121.55-118.43,202.74-142.46c80.26-23.76,166.97-25.59,248.35-6.3c80.3,19.03,156.46,58.28,214.98,116.94
						c55.68,55.82,92.02,128.08,102.58,206.32c10.06,74.56-2.39,153.84-42.88,218.09c-22.57,35.83-53.4,63.28-87.3,88.14
						c-18.06,13.24-36.57,25.84-54.65,39.06c-17.73,12.96-34.54,26.95-51.25,41.18c-67.34,57.37-132.7,119.02-177.3,196.33
						c-10.93,18.95-20.44,38.67-28.51,59.01C991.26,1109.56,1003.32,1106.74,1005.72,1100.67L1005.72,1100.67z"/>
				</g>
			</g>
			<g>
				<g>
					<path class="st3" d="M718.96,1053.69c1.51,8.81,8.76,15.85,15.56,21.02c11.27,8.59,24.33,14.8,37.36,20.21
						c40.18,16.67,83.26,26.64,125.82,35.02c13.1,2.58,26.23,4.96,39.39,7.15c12.15,2.03,25.08,5.41,37.45,4.68
						c10.16-0.6,20.27-3.79,27.69-11.03c7.78-7.59,10.59-18.56,6.81-28.8c-4.01-10.85-13.27-19.67-22.04-26.79
						c-9.94-8.07-21.11-14.61-32.64-20.16c-24.56-11.83-50.91-20.42-77.39-26.78c-29.66-7.13-60.09-11.22-90.59-12.04
						c-14.09-0.38-30.09-1.69-43.65,2.93c-12.1,4.12-23.12,14.75-23.25,28.2c-0.03,3.55,3.81,3.56,6.24,2.51
						c3.05-1.32,6.15-4.86,6.18-8.34c0.1-11.23,14.03-12.48,22.53-12.88c12.36-0.56,24.8-0.31,37.15,0.34
						c25.22,1.34,50.31,4.89,74.9,10.68c23.53,5.54,46.7,13,68.91,22.54c20.69,8.9,42.31,20.55,56.26,38.8
						c4.42,5.77,10.74,17.31,3.94,23.7c-5.91,5.55-17.02,5.36-24.44,4.49c-24.05-2.83-48.09-7.63-71.8-12.46
						c-38.74-7.88-77.73-17.23-114.56-31.88c-13.16-5.24-26.55-11.12-38.07-19.49c-7.01-5.09-14.31-11.35-15.81-20.09
						c-0.6-3.51-5.97-1.4-7.61-0.28C720.48,1046.94,718.37,1050.19,718.96,1053.69L718.96,1053.69z"/>
				</g>
			</g>
			<g>
				<g>
					<path class="st3" d="M725.99,1052.9c-24.42,5.94-35.89,35.04-24.89,56.78c13.77,27.2,46.4,34.86,73.4,42.03
						c31.89,8.46,64.27,14.87,96.76,20.52c16.53,2.87,33.09,5.54,49.66,8.17c13.49,2.14,27.17,4.76,40.81,2.45
						c13.26-2.25,23.52-10.06,30.48-21.41c5.7-9.27,10.62-22.61,5.19-33.1c-3.15-6.07-14.63,3.33-11.99,8.43
						c3.72,7.17,1.18,15.77-2.77,22.34c-4.72,7.84-11.14,11.13-20.21,12.1c-11.79,1.27-23.86-1.3-35.45-3.13
						c-13.98-2.22-27.93-4.46-41.89-6.84c-28.08-4.78-56.1-10.11-83.8-16.79c-13.27-3.2-26.5-6.66-39.56-10.63
						c-12.3-3.74-24.91-8.25-35.03-16.4c-9.21-7.42-17.1-18.19-17.68-30.39c-0.45-9.48,3.98-19.78,13.84-22.18
						c3.36-0.82,6.8-4,7.56-7.44C731.15,1054.33,729.22,1052.11,725.99,1052.9L725.99,1052.9z"/>
				</g>
			</g>
			<g>
				<g>
					<path class="st3" d="M702.46,1112.81c-6.9,9.21-11.76,20.28-14.7,31.37c-2.8,10.58-3.33,21.06,2.32,30.8
						c15.07,25.98,50.04,27.72,76.42,32.39c31.86,5.65,63.72,11.3,95.58,16.95c15.61,2.76,31.21,5.53,46.82,8.3
						c12.87,2.28,26.59,5.93,39.65,2.95c28.67-6.53,33.01-39.95,30.75-64.43c-0.71-7.68-12.94,0.22-12.42,5.84
						c0.94,10.15,1.03,20.67-1.52,30.61c-2.43,9.47-7.03,15.57-17.24,16.58c-11.61,1.15-23.77-2.2-35.11-4.21
						c-14.3-2.54-28.61-5.07-42.91-7.61c-27.95-4.95-55.92-9.91-83.87-14.86c-14.1-2.5-28.3-4.73-42.33-7.59
						c-12.33-2.52-25.05-6.19-34.58-14.82c-8.33-7.54-12.76-17.26-10.74-28.46c1.93-10.69,6.26-21.68,12.8-30.4
						c1.58-2.1,2.97-6.19-0.14-7.61C708.13,1107.16,704.1,1110.62,702.46,1112.81L702.46,1112.81z"/>
				</g>
			</g>
			<g>
				<g>
					<path class="st3" d="M695.92,1168.58c-15.38,12.26-21.17,36.14-17.35,54.89c5.27,25.82,39.67,29.3,60.78,32.81
						c33.1,5.5,66.21,11,99.31,16.5c16.39,2.72,32.78,5.45,49.17,8.17c13.31,2.21,26.96,5.34,40.51,3.75
						c14.02-1.65,25.75-9.03,31.94-21.9c5.86-12.2,7.16-26.76,5.21-40.02c-1.12-7.69-13.24,0.26-12.42,5.84
						c1.5,10.26,1.25,21.38-2.44,31.19c-1.24,3.3-2.97,7.01-5.99,9.05c-4.15,2.79-9.81,3.68-14.7,3.92
						c-12.08,0.59-24.22-2.17-36.07-4.14c-14.1-2.34-28.18-4.68-42.28-7.03c-28.52-4.74-57.03-9.48-85.55-14.22
						c-13.7-2.28-27.62-4.03-41.15-7.18c-10.72-2.5-23.94-6.56-30.75-15.94c-4.89-6.73-4.82-16.83-3.77-24.69
						c0.94-7.04,3.57-17.9,8.76-22.03c2.29-1.83,5.7-5.41,4.38-8.71C702.28,1165.72,697.89,1167.01,695.92,1168.58L695.92,1168.58z"
						/>
				</g>
			</g>
			<g>
				<g>
					<path class="st3" d="M689.28,1233.53c-16.21,11.23-17.79,36.79-2.12,49.07c9.58,7.5,21.66,10.47,33.14,13.73
						c13.63,3.85,27.26,7.72,40.88,11.57c27.26,7.72,54.52,15.43,81.78,23.14c23.39,6.61,48.81,16.37,72.82,7.14
						c11.32-4.35,21.02-13.06,25.74-24.32c5.48-13.06,5.09-27.25,2.52-40.94c-0.66-3.49-5.95-1.42-7.61-0.28
						c-2.82,1.93-5.03,5.23-4.38,8.71c1.92,10.24,2.63,21.82-1.15,31.75c-2.97,7.77-9.18,12.51-17.03,14.83
						c-20.96,6.19-44.14-3.59-64.17-9.26c-22.51-6.37-45.01-12.74-67.51-19.1c-22.25-6.3-44.86-11.85-66.84-19.06
						c-9.25-3.03-20.94-7.66-24.96-17.34c-2.29-5.51-3.66-16.62,2.13-20.63c2.39-1.65,5.66-5.54,4.38-8.71
						C695.59,1230.55,691.33,1232.11,689.28,1233.53L689.28,1233.53z"/>
				</g>
			</g>
			<g>
				<g>
					<path class="st3" d="M707.56,1292.21c0.3,17.35,4.76,34.27,15.69,48.02c9.52,11.97,22.99,20.25,36.87,26.25
						c29.07,12.56,62.19,17.44,92.61,6.57c18.21-6.51,33.4-18.83,42.64-35.9c1.4-2.57,0.93-5.96-2.4-6.28
						c-3.53-0.34-6.96,3.28-8.45,6.04c-13.85,25.58-46.14,31.73-72.81,29.42c-13.91-1.2-27.28-5.24-40.16-10.52
						c-12.65-5.18-24.74-11.99-34.14-22.07c-12.12-13-17.14-29.86-17.44-47.38C719.86,1278.79,707.47,1286.58,707.56,1292.21
						L707.56,1292.21z"/>
				</g>
			</g>
			<g>
				<path class="st4" d="M762.43,1361.78c-4.57,11.75,4.53,32.79,20.19,35.31c12.45,2,33.29-6.47,38.27-19.09"/>
				<g>
					<path class="st3" d="M756.42,1363.23c-5.53,15.85,5.71,37.06,22.53,39.91c17.48,2.97,40.27-8.7,47.37-25.02
						c1.14-2.63,1.1-5.94-2.4-6.28c-3.32-0.32-7.23,3.23-8.45,6.04c-4.42,10.18-21.56,15.79-31.69,12.5
						c-11.1-3.61-19.23-18.9-15.34-30.04c1.11-3.18-1.58-5.09-4.46-4.54C760.36,1356.49,757.57,1359.94,756.42,1363.23
						L756.42,1363.23z"/>
				</g>
			</g>
		</g>
		<g id="Ebene_8_1_">
			<g class="st5">
				<path class="st6" d="M751.19,1024.84c-13-0.92-20.59,16.81-15.2,28.68c5.39,11.87,18.07,18.38,30.01,23.62
					c50.98,22.4,104.94,37.99,160.02,46.23c26,3.89,54.3,5.71,76.84-7.81c-88.6-9.44-193.73-19.98-250.46-86.66"/>
				<g>
					<path class="st6" d="M754.22,1018.69c-17.74-0.54-29.73,20.55-25.17,36.43c2.7,9.46,10.92,16.23,18.99,21.1
						c10.38,6.28,22.12,10.62,33.35,15.1c48.19,19.23,99.29,33.2,150.86,39.48c23.85,2.9,49.31,2.65,70.63-9.81
						c2.86-1.67,10.66-10.77,3.01-11.59c-68.86-7.34-143.14-13.4-204.16-49.25c-16.54-9.71-31.47-21.95-43.97-36.5
						c-3.92-4.56-14.78,5.77-10.7,10.51c47.19,54.94,123.42,71.14,191.89,80.49c20.25,2.76,40.58,4.91,60.9,7.07
						c1-3.86,2.01-7.72,3.01-11.59c-16.31,9.53-35.12,10.79-53.59,9.43c-21.75-1.6-43.46-5.9-64.71-10.72
						c-22.42-5.08-44.56-11.39-66.29-18.88c-11.01-3.8-21.93-7.9-32.72-12.31c-9.51-3.88-19.32-7.65-28.19-12.9
						c-7.6-4.5-16.13-11.77-16.83-21.22c-0.4-5.44,1.12-12.74,7.66-12.54C753.75,1031.18,761.83,1018.92,754.22,1018.69
						L754.22,1018.69z"/>
				</g>
			</g>
			<g class="st5">
				<path class="st6" d="M719.83,1069.28c-12.91,7.94-12.39,28.29-2.81,40.02s24.84,16.95,39.34,21.36
					c61.3,18.65,123.95,32.84,187.29,42.45c16.28,2.47,36.75,2.72,44.78-11.65c-45.31,3.14-241.26-16.83-267.19-95.74"/>
				<g>
					<path class="st6" d="M718.21,1064.78c-16.65,11-18.72,34.62-6.55,49.78c7.01,8.72,17.61,14.1,27.91,17.91
						c12.13,4.5,24.74,7.84,37.19,11.36c52.54,14.87,106,26.49,159.95,34.84c21.09,3.27,44.85,3.55,57.15-17.09
						c1.29-2.17,1.07-6.51-2.4-6.28c-13.59,0.91-27.36,0.03-40.91-1.03c-20.38-1.59-40.69-4.23-60.82-7.78
						c-42.64-7.53-87.73-18.67-124.69-42.1c-16.23-10.28-31.51-24.24-37.78-42.88c-2.09-6.22-13.87,2.87-11.99,8.43
						c12.56,37.34,55.35,56.84,89.62,68.93c42.14,14.88,87.01,22.91,131.43,27.03c16.23,1.5,32.81,2.82,49.11,1.73
						c-0.8-2.09-1.6-4.19-2.4-6.28c-3.15,5.28-11.1,6.42-16.64,6.77c-8.6,0.55-17.1-0.74-25.58-2.06
						c-23.71-3.7-47.32-8.08-70.8-13.08c-22.94-4.89-45.74-10.39-68.38-16.49c-11.48-3.09-22.92-6.34-34.32-9.74
						c-9.78-2.92-19.73-5.71-28.89-10.3c-9.02-4.52-17.45-11.29-20.73-21.14c-2.27-6.78-3.03-17.07,3.75-21.54
						c2.41-1.59,5.64-5.58,4.38-8.71C724.5,1061.77,720.28,1063.41,718.21,1064.78L718.21,1064.78z"/>
				</g>
			</g>
			<g class="st5">
				<path class="st6" d="M706.97,1126.45c-15.66,6.31-16.04,30.41-4.62,42.83c11.42,12.43,29.24,16.15,45.83,19.24
					c57.23,10.64,114.46,21.26,171.69,31.9c17.16,3.18,38.27,4.96,48.72-9.03c-74.28-6.69-242.65-20.16-256.93-91.61"/>
				<g>
					<path class="st6" d="M706.94,1121.02c-17.16,7.56-23.15,29.01-15.3,45.42c9.88,20.68,35.98,24.98,56.13,28.72
						c54.95,10.21,109.91,20.42,164.86,30.63c21.39,3.97,45.38,6.38,60.43-12.71c1.99-2.52,2.96-7.46-1.43-7.86
						c-38.09-3.43-76.18-7.03-113.86-13.74c-20.67-3.68-41.24-8.3-61.25-14.7c-17.31-5.54-34.83-12.37-49.91-22.7
						c-13.69-9.37-25.46-21.85-28.93-38.53c-1.27-6.1-13.2,2.68-11.99,8.43c7,33.55,43.73,51.11,72.87,61.49
						c40.52,14.44,83.8,21.03,126.36,26.05c20.19,2.37,40.43,4.2,60.67,6.02c-0.48-2.62-0.96-5.24-1.43-7.86
						c-4.23,5.36-11.92,6.53-18.33,6.75c-8.93,0.31-17.74-1.24-26.48-2.86c-23.41-4.35-46.83-8.7-70.24-13.05
						c-23.74-4.41-47.48-8.82-71.22-13.23c-11.15-2.08-22.35-3.97-33.46-6.29c-9.54-1.99-19.34-4.55-27.75-9.65
						c-8.01-4.85-14.11-12.14-15.67-21.54c-1.05-6.29-0.61-15.06,6-17.97c2.94-1.29,6.37-4.9,6.18-8.34
						C712.98,1119.99,709.53,1119.89,706.94,1121.02L706.94,1121.02z"/>
				</g>
			</g>
			<g class="st5">
				<path class="st6" d="M696,1187.23c-10.49,8.82-10.33,26.18-2.28,37.27c8.05,11.08,21.86,16.64,35.43,18.57
					c13.56,1.92,27.36,0.78,41.05,1.34c31.55,1.28,61.92,11.54,92.73,18.38c30.81,6.85,64.03,10.1,93.15-2.06
					c-59.2-4.58-216.21-13.81-259.85-74.74"/>
				<g>
					<path class="st6" d="M692.84,1184.02c-14.11,12.67-14.58,34.88-1.98,48.78c14.65,16.16,38.22,17.64,58.54,17.62
						c11.95-0.02,23.76,0.16,35.62,1.78c12.39,1.68,24.58,4.47,36.71,7.47c21.76,5.37,43.4,11.47,65.71,14.09
						c23.25,2.73,46.81,1.31,68.66-7.59c3.35-1.36,10.3-11.02,3.01-11.59c-33.71-2.61-67.41-5.25-100.88-10.2
						c-38.67-5.73-78.41-13.68-113.87-30.71c-16.32-7.84-32-18.09-42.78-32.92c-3.43-4.72-14.42,5.39-10.7,10.51
						c20.68,28.47,58.3,41.94,90.83,51.02c38.93,10.86,79.3,16.42,119.45,20.33c17.28,1.68,34.59,2.94,51.89,4.29
						c1-3.86,2.01-7.72,3.01-11.59c-36.8,15.01-77.83,4.61-114.63-4.72c-20.57-5.21-41.31-10.44-62.54-12.02
						c-20.16-1.49-41.53,2.17-60.83-5.38c-9.03-3.53-17.82-9.7-21.69-18.91c-3.18-7.58-3.81-17.93,2.79-23.84
						c1.93-1.74,4.52-6.09,2.19-8.47C698.9,1179.48,694.72,1182.34,692.84,1184.02L692.84,1184.02z"/>
				</g>
			</g>
			<g class="st5">
				<path class="st6" d="M693.08,1238.54c-8.79,10.07-4.75,26.75,4.98,35.91c9.74,9.16,23.32,12.7,36.3,15.91
					c45.66,11.32,91.31,22.62,136.96,33.94c21.85,5.42,47.65,9.97,64.61-4.82c-85.98-2.82-181.23-22.96-245.03-81.45"/>
				<g>
					<path class="st6" d="M688.62,1236.83c-11.3,13.92-6.86,34.27,6.61,45.04c7.77,6.21,17.18,9.68,26.67,12.3
						c11,3.03,22.15,5.57,33.23,8.32c22.83,5.66,45.66,11.32,68.47,16.97c20.53,5.08,41.08,11.24,61.98,14.66
						c19.22,3.14,38.15,1.46,53.52-11.44c2.44-2.05,5.35-9.18-0.13-9.37c-67.39-2.29-136.91-14.16-196.43-47.36
						c-16.64-9.29-32.19-20.36-46.28-33.19c-4.6-4.18-15.19,6.42-10.7,10.51c51.54,46.89,120.57,68.6,188.47,77.6
						c19.54,2.59,39.2,4.09,58.89,4.76c-0.05-3.13-0.08-6.25-0.13-9.37c-10.61,8.92-26.99,7.71-39.74,5.77
						c-18.23-2.79-36.18-8.3-54.04-12.73c-20.26-5.02-40.51-10.04-60.76-15.06c-10.29-2.55-20.58-5.1-30.87-7.65
						c-8.86-2.2-17.89-4.12-26.48-7.28c-8.92-3.3-17.96-8.26-22.78-16.81c-3.75-6.64-5.73-15.88-0.56-22.25
						c1.67-2.05,2.91-6.22-0.14-7.61C694.23,1231.16,690.36,1234.69,688.62,1236.83L688.62,1236.83z"/>
				</g>
			</g>
			<g class="st5">
				<path class="st6" d="M715.5,1295.51c11.3,28.07,34.27,51.24,62.25,62.76c27.98,11.52,60.6,11.25,88.39-0.73
					c-52.77-5.65-103.51-28.92-142.2-65.24"/>
				<g>
					<path class="st6" d="M709.5,1299.73c11.65,28.37,34.23,51.74,62.48,63.86c29.91,12.82,64.37,11.96,94.17-0.62
						c3.42-1.45,10.26-10.78,3-11.58c-52.08-5.77-101.56-28.64-139.88-64.34c-4.54-4.23-15.15,6.36-10.7,10.51
						c39.67,36.95,90.67,60.18,144.53,66.14c1-3.86,2.01-7.72,3.01-11.59c-27.56,11.63-59.61,11.17-86.92-1
						c-26.05-11.61-46.88-33.49-57.69-59.81C718.95,1285.11,707.29,1294.34,709.5,1299.73L709.5,1299.73z"/>
				</g>
			</g>
			<g class="st5">
				<path class="st6" d="M765.25,1363.68c-0.57,10.32,4.81,20.76,13.55,26.29c8.73,5.53,20.48,5.9,29.56,0.96
					c-15.53-5.69-28.69-17.59-35.91-32.48"/>
				<g>
					<path class="st6" d="M759.04,1366.6c-0.34,11.52,5.13,22.73,14.92,28.96c10.37,6.59,23.66,6.28,34.42,0.79
						c2.67-1.37,9.99-9.17,4.3-11.34c-14.86-5.66-27.1-16.53-34.24-30.77c-3.06-6.1-14.58,3.28-11.99,8.43
						c7.9,15.75,21.1,27.9,37.59,34.18c1.43-3.78,2.87-7.56,4.3-11.34c-17.66,9.01-37.43-5.77-36.88-24.74
						c0.11-3.56-3.85-3.54-6.24-2.51C762.12,1359.61,759.14,1363.1,759.04,1366.6L759.04,1366.6z"/>
				</g>
			</g>
		</g>
		<g id="Ebene_4">
			<g>
				<g>
					<path class="st3" d="M753.31,1027.37c56.12-46.15,111.37-93.38,164.63-142.79c53.42-49.56,104.9-101.31,152.91-156.18
						c47.43-54.2,92.62-111.35,130.6-172.65c19.02-30.71,36.61-65.64,35.58-102.75c-0.77-28.02-13.67-57.92-37.33-74.02
						c-24.83-16.9-55.23-13.6-79.96,1.75c-29.15,18.11-45.29,49.87-53.64,82.18c-2.29,8.85-4.05,17.82-5.58,26.82
						c-1.44,8.43,9.62,3.19,11.44-1.33c12.59-31.35,25.98-64.92,20.25-99.32c-4.67-28.05-22.43-53.91-51.54-60
						c-28.99-6.07-59.17,5.7-81.3,24.18c-23.96,20-40.24,47.49-49.8,76.97c-21.38,65.92-6.72,136.84,3.95,203.34
						c11.36,70.86,24.13,141.48,35.39,212.36c11.21,70.54,21.12,141.39,26.24,212.67c0.62,8.63,1.16,17.26,1.64,25.89
						c0.42,7.64,12.73-0.2,12.42-5.84c-3.69-67.76-12.17-135.17-22.26-202.25c-10.18-67.65-22.12-135.03-33.42-202.49
						c-5.54-33.1-11.04-66.23-15.86-99.44c-4.91-33.74-8.49-67.99-5.31-102.06c5.08-54.29,33.54-119.66,92.9-131.24
						c13.39-2.62,27.53-1.66,39.98,4.15c12.31,5.74,21.82,16.22,27.66,28.37c13.84,28.75,7.93,60.73-2.2,89.62
						c-2.94,8.39-6.27,16.64-9.57,24.9c3.81-0.45,7.62-0.88,11.44-1.33c5.42-31.84,14.14-66.37,39.12-88.75
						c20.18-18.08,49.36-24.53,73.66-10.84c23.87,13.44,37.58,42.12,39.14,68.72c2.06,34.95-14.5,68.33-32.47,97.2
						c-36.25,58.27-78.91,112.98-123.9,164.72c-45.22,52.02-93.6,101.25-143.82,148.45c-50.06,47.05-101.96,92.12-154.81,136
						c-6.46,5.37-12.95,10.72-19.43,16.05c-2.27,1.87-5.72,5.39-4.38,8.71C746.94,1030.2,751.36,1028.98,753.31,1027.37
						L753.31,1027.37z"/>
				</g>
			</g>
			<g>
				<g>
					<path class="st3" d="M1314.1,340.17c36.08,50.44,49.31,116.14,35.39,176.58c-0.74,3.18,1.31,5.14,4.46,4.54
						c3.32-0.64,6.81-4.15,7.56-7.44c14.58-63.32,1.08-131.34-36.71-184.2C1321.42,324.92,1310.41,335.02,1314.1,340.17
						L1314.1,340.17z"/>
				</g>
			</g>
			<g>
				<g>
					<path class="st3" d="M698.66,418.59c-19.32,52.9-21.5,111.57-6.79,165.89c4.2,15.52,9.84,30.6,16.77,45.11
						c2.93,6.14,14.49-3.21,11.99-8.43c-23.71-49.58-31.63-106.41-22.06-160.57c2.7-15.3,6.78-30.31,12.1-44.9
						c1.16-3.18-1.62-5.09-4.46-4.54C702.56,411.85,699.86,415.31,698.66,418.59L698.66,418.59z"/>
				</g>
			</g>
		</g>
	</g>
	<g>
		<g>
			<path class="st7" d="M1231.7,942.74c7.51,11.69,15.03,23.37,22.54,35.06c5.65,8.79,18.02,13.2,27.36,7.18
				c8.79-5.67,13.23-17.95,7.18-27.36c-7.51-11.69-15.03-23.37-22.54-35.06c-5.65-8.79-18.02-13.2-27.36-7.18
				C1230.09,921.05,1225.65,933.33,1231.7,942.74L1231.7,942.74z"/>
		</g>
	</g>
	<g>
		<g>
			<path class="st7" d="M1375.06,856.64c8.35,10.02,16.69,20.03,25.04,30.05c6.72,8.07,21.43,7.47,28.28,0
				c7.88-8.58,7.17-19.68,0-28.28c-8.35-10.02-16.69-20.03-25.04-30.05c-6.72-8.07-21.43-7.47-28.28,0
				C1367.19,836.93,1367.89,848.03,1375.06,856.64L1375.06,856.64z"/>
		</g>
	</g>
	<g>
		<g>
			<path class="st7" d="M1471.54,739.08c10.02,3.34,20.03,6.68,30.05,10.02c9.93,3.31,22.29-3.82,24.6-13.97
				c2.51-11.04-3.33-21.06-13.97-24.6c-10.02-3.34-20.03-6.68-30.05-10.02c-9.93-3.31-22.29,3.82-24.6,13.97
				C1455.05,725.51,1460.9,735.53,1471.54,739.08L1471.54,739.08z"/>
		</g>
	</g>
	<g>
		<g>
			<path class="st7" d="M1519.73,573.8c10.02-2.5,20.03-5.01,30.05-7.51c10.15-2.54,17.24-14.49,13.97-24.6
				c-3.4-10.51-13.72-16.69-24.6-13.97c-10.02,2.5-20.03,5.01-30.05,7.51c-10.15,2.54-17.24,14.49-13.97,24.6
				C1498.53,570.34,1508.85,576.52,1519.73,573.8L1519.73,573.8z"/>
		</g>
	</g>
	<g>
		<g>
			<path class="st7" d="M1517,416.52c5.84-2.5,11.69-5.01,17.53-7.51c4.28-1.83,8.02-7.69,9.19-11.95
				c1.32-4.79,0.72-11.16-2.02-15.41c-2.75-4.27-6.85-8.03-11.95-9.19c-5.6-1.28-10.19-0.22-15.41,2.02
				c-5.84,2.5-11.69,5.01-17.53,7.51c-4.28,1.83-8.02,7.69-9.19,11.95c-1.32,4.79-0.72,11.16,2.02,15.41
				c2.75,4.27,6.85,8.03,11.95,9.19C1507.19,419.81,1511.77,418.76,1517,416.52L1517,416.52z"/>
		</g>
	</g>
	<g>
		<g>
			<path class="st7" d="M1430.89,223.08c8.35-9.18,16.69-18.36,25.04-27.55c7.04-7.74,8.22-20.74,0-28.28
				c-7.67-7.04-20.77-8.27-28.28,0c-8.35,9.18-16.69,18.36-25.04,27.55c-7.04,7.74-8.22,20.74,0,28.28
				C1410.28,230.12,1423.38,231.34,1430.89,223.08L1430.89,223.08z"/>
		</g>
	</g>
	<g>
		<g>
			<path class="st7" d="M1283.28,106.57c3.34-8.35,6.68-16.69,10.02-25.04c3.9-9.74-4.25-22.39-13.97-24.6
				c-11.56-2.63-20.43,3.54-24.6,13.97c-3.34,8.35-6.68,16.69-10.02,25.04c-3.9,9.74,4.25,22.39,13.97,24.6
				C1270.23,123.17,1279.11,117,1283.28,106.57L1283.28,106.57z"/>
		</g>
	</g>
	<g>
		<g>
			<path class="st7" d="M1065.42,69.01c1.67-7.51,3.34-15.03,5.01-22.54c2.26-10.19-3.08-22.12-13.97-24.6
				c-10.13-2.31-22.18,3.05-24.6,13.97c-1.67,7.51-3.34,15.03-5.01,22.54c-2.26,10.19,3.08,22.12,13.97,24.6
				C1050.94,85.28,1062.99,79.93,1065.42,69.01L1065.42,69.01z"/>
		</g>
	</g>
	<g>
		<g>
			<path class="st7" d="M812.49,80.91c-1.67-7.51-3.34-15.03-5.01-22.54c-2.27-10.22-14.68-17.18-24.6-13.97
				c-10.74,3.47-16.4,13.65-13.97,24.6c1.67,7.51,3.34,15.03,5.01,22.54c2.27,10.22,14.68,17.18,24.6,13.97
				C809.26,102.04,814.93,91.87,812.49,80.91L812.49,80.91z"/>
		</g>
	</g>
	<g>
		<g>
			<path class="st7" d="M649.58,172.25c-7.51-9.18-15.03-18.36-22.54-27.55c-6.65-8.13-21.47-7.42-28.28,0
				c-7.93,8.64-7.1,19.61,0,28.28c7.51,9.18,15.03,18.36,22.54,27.55c6.65,8.13,21.47,7.42,28.28,0
				C657.51,191.9,656.68,180.93,649.58,172.25L649.58,172.25z"/>
		</g>
	</g>
	<g>
		<g>
			<path class="st7" d="M560.62,292.32c-7.51-2.5-15.03-5.01-22.54-7.51c-9.93-3.31-22.29,3.82-24.6,13.97
				c-2.51,11.04,3.33,21.06,13.97,24.6c7.51,2.5,15.03,5.01,22.54,7.51c9.93,3.31,22.29-3.82,24.6-13.97
				C577.11,305.89,571.26,295.87,560.62,292.32L560.62,292.32z"/>
		</g>
	</g>
</g>
<g id="Ebene_15">
</g>
<g id="Ebene_16">
	<g>
		<g>
			<path class="st8" d="M316.76,1471.56c6.43,0,6.45-10,0-10C310.33,1461.56,310.32,1471.56,316.76,1471.56L316.76,1471.56z"/>
		</g>
	</g>
</g>
<g id="Ebene_8">
</g>
<g id="Ebene_9">
</g>
<g id="Ebene_6">
</g>
<g id="Ebene_7">
</g>
<g id="Ebene_10">
	<g>
		<g>
			<path class="st9" d="M465.07,1602.91c49.67-1.05,99.31-3.43,148.84-7.13c0.25-4.93,0.5-9.87,0.75-14.8
				c-49.94,4.22-99.87,8.43-149.81,12.65"/>
			<g>
				<path class="st8" d="M465.07,1608c49.67-1.06,99.3-3.44,148.84-7.13c2.85-0.21,4.94-2.17,5.09-5.09
					c0.25-4.93,0.5-9.87,0.75-14.8c0.13-2.59-2.44-5.31-5.09-5.09c-49.94,4.22-99.87,8.43-149.81,12.65
					c-6.48,0.55-6.54,10.73,0,10.18c49.94-4.22,99.87-8.43,149.81-12.65c-1.7-1.7-3.39-3.39-5.09-5.09
					c-0.25,4.93-0.5,9.87-0.75,14.8c1.7-1.7,3.39-3.39,5.09-5.09c-49.54,3.69-99.17,6.07-148.84,7.13
					C458.53,1597.95,458.51,1608.14,465.07,1608L465.07,1608z"/>
			</g>
		</g>
		<g>
			<path class="st9" d="M628.01,1570.25c58.71-4.63,117.89-3.93,176.47,2.09c-59.96,4.82-120.29,5.42-180.34,1.78"/>
			<g>
				<path class="st8" d="M628.01,1575.34c58.76-4.58,117.83-3.88,176.47,2.09c0-3.39,0-6.79,0-10.18
					c-59.99,4.78-120.26,5.38-180.34,1.78c-6.55-0.39-6.52,9.79,0,10.18c60.08,3.59,120.35,3,180.34-1.78
					c6.59-0.53,6.5-9.52,0-10.18c-58.63-5.97-117.71-6.67-176.47-2.09C621.52,1565.66,621.46,1575.85,628.01,1575.34L628.01,1575.34
					z"/>
			</g>
		</g>
		<g>
			<path class="st10" d="M511.51,809.41c-23.71,100.06-47.42,200.11-71.12,300.17c-7.15,30.19-12.71,66.2,10.13,88.26
				c19.41,18.74,50.71,18.57,78.34,17.12c71.39-3.72,142.79-7.45,214.18-11.17c16.25-0.85,33.12-1.86,47.4-9.28
				c14.28-7.43,25.1-23.27,20.78-38.17"/>
			<g>
				<path class="st10" d="M506.6,808.06c-13.61,57.45-27.23,114.9-40.84,172.35c-6.88,29.05-13.77,58.1-20.65,87.15
					c-5.81,24.51-13.26,49.25-15.54,74.41c-1.92,21.2,1.36,44.03,17.34,59.46c15.97,15.42,39.07,18.91,60.38,19.18
					c27.3,0.34,54.79-2.3,82.04-3.72c29.42-1.53,58.83-3.07,88.25-4.6c16.53-0.86,33.05-1.72,49.58-2.59
					c15-0.78,30.29-0.91,45.09-3.79c13.01-2.53,25.94-7.87,34.8-18.07c7.94-9.14,12.16-20.88,9.07-32.87
					c-1.63-6.34-11.46-3.65-9.82,2.71c2.7,10.49-2.94,20.47-10.72,27.24c-9.08,7.9-21.64,10.9-33.3,12.32
					c-12.94,1.58-26.07,1.81-39.08,2.49c-13.88,0.72-27.76,1.45-41.65,2.17c-53.92,2.81-107.89,6.55-161.86,8.37
					c-20.41,0.69-43.84,0.45-61.04-12.18c-17.37-12.75-20.64-34.5-19.03-54.63c1.87-23.43,8.99-46.55,14.39-69.33
					c6.42-27.11,12.85-54.22,19.27-81.34c14.38-60.68,28.76-121.36,43.13-182.04C517.93,804.39,508.12,801.67,506.6,808.06
					L506.6,808.06z"/>
			</g>
		</g>
		<g>
			<path class="st10" d="M512.58,808.68c-25.15,107.62-50.3,215.25-75.45,322.87c-5.01,21.45-9.5,45.77,3.61,63.88
				c16.31,22.53,50.35,23.41,79.09,21.96c73.54-3.7,147.09-7.4,220.63-11.1c23.71-1.19,51.07-4.3,63.86-23.3
				c11.37-16.88,6.05-38.95,0.35-58.24c-31.47-106.59-62.94-213.17-94.41-319.76c-62.3,20.82-131.57,22.36-194.83,4.32"/>
			<g>
				<path class="st10" d="M507.67,807.33c-19.24,82.34-38.48,164.68-57.72,247.02c-4.77,20.42-9.54,40.85-14.32,61.27
					c-4.04,17.28-9.28,35.12-8.52,53.05c0.66,15.53,6.72,30.03,19.21,39.66c11.59,8.94,26.2,12.38,40.51,13.82
					c16.58,1.66,33.3,0.32,49.89-0.51c20.87-1.05,41.74-2.1,62.61-3.15c42.07-2.12,84.15-4.23,126.22-6.35
					c28.42-1.43,68.8-0.4,84.83-29.27c8.28-14.92,6.17-32.69,2.22-48.56c-4.84-19.44-11.19-38.59-16.86-57.81
					c-23.84-80.74-47.68-161.47-71.52-242.21c-3.02-10.21-6.03-20.42-9.05-30.64c-0.75-2.54-3.61-4.44-6.26-3.56
					c-61.92,20.5-129.34,22.03-192.12,4.32c-6.32-1.78-9.01,8.04-2.71,9.82c64.42,18.17,133.98,16.72,197.54-4.32
					c-2.09-1.19-4.18-2.37-6.26-3.56c22.9,77.55,45.79,155.09,68.69,232.64c5.75,19.47,11.5,38.93,17.24,58.4
					c5.08,17.2,11.78,34.76,14.08,52.62c2.01,15.64-1.63,31.24-15.66,40.07c-12.37,7.79-27.76,9.68-42.04,10.69
					c-39.1,2.78-78.37,4.01-117.52,5.98c-39.1,1.97-78.23,4.6-117.36,5.85c-26.17,0.84-63.82-0.74-73.3-30.93
					c-4.81-15.3-1.29-32.03,2.21-47.23c4.52-19.65,9.18-39.28,13.77-58.91c18.41-78.77,36.82-157.55,55.22-236.32
					c2.27-9.73,4.55-19.45,6.82-29.18C518.98,803.66,509.16,800.94,507.67,807.33L507.67,807.33z"/>
			</g>
		</g>
		<g>
			<path class="st10" d="M391.62,1094.03c-14.79-13.08-16.84-37.13-4.46-52.31c12.38-15.18,37.4-19.29,54.43-8.95
				c-15.91,20.95-31.82,41.91-47.72,62.86"/>
			<g>
				<path class="st10" d="M395.22,1090.43c-12.65-11.64-15.26-32.75-3.6-46.12c11.47-13.15,32.57-15.77,47.4-7.14
					c-0.61-2.32-1.22-4.64-1.83-6.97c-15.91,20.95-31.82,41.91-47.72,62.86c-3.96,5.22,4.88,10.3,8.79,5.14
					c15.91-20.95,31.82-41.91,47.72-62.86c1.66-2.19,0.33-5.71-1.83-6.97c-19-11.05-46.34-7.59-60.6,9.75
					c-14.36,17.45-12.07,44.3,4.46,59.51C392.83,1102.06,400.05,1094.88,395.22,1090.43L395.22,1090.43z"/>
			</g>
		</g>
		<g>
			<path class="st10" d="M795,1023.73c13.9,15.91,27.79,31.81,41.69,47.72c2.15,2.47,4.5,5.06,7.73,5.97
				c5.98,1.69,11.87-3.1,15.07-8.19c10.04-15.97,5.55-38.76-9.9-50.19c-15.45-11.43-39.81-10-53.65,3.16"/>
			<g>
				<path class="st10" d="M791.4,1027.33c13.03,14.91,26.06,29.83,39.09,44.74c4.94,5.66,10.08,11.67,18.37,10.59
					c7.11-0.92,12.74-6.55,16.05-12.6c13.58-24.77-1.71-56.61-28.93-62.61c-15.4-3.39-31.93,0.45-43.64,11.14
					c-4.85,4.43,2.37,11.62,7.2,7.2c10.02-9.16,24.97-11.59,37.73-7.44c13,4.23,21.82,16.42,22.45,29.99
					c0.3,6.34-1.08,12.96-4.62,18.31c-1.88,2.84-5.44,6.83-9.32,5.85c-3.5-0.88-6.54-5.86-8.74-8.39
					c-12.81-14.66-25.62-29.33-38.43-43.99C794.28,1015.19,787.1,1022.41,791.4,1027.33L791.4,1027.33z"/>
			</g>
		</g>
		<g>
			<path class="st10" d="M468.19,1575.58c-10.76-27.76-1.06-61.54,23.05-80.26c24.12-18.72,60.89-21.03,87.39-5.48
				c26.5,15.55,40.78,47.82,33.95,76.69c-49.76-0.24-99.53,2.83-148.84,9.2"/>
			<g>
				<path class="st10" d="M473.1,1574.22c-11.81-31.51,3.14-67.64,33.27-82.28c30.51-14.83,70.64-6.93,90.36,21.44
					c10.45,15.03,14.98,33.81,10.93,51.8c1.64-1.25,3.27-2.49,4.91-3.74c-49.76-0.2-99.48,2.87-148.84,9.2
					c-6.41,0.82-6.49,11.02,0,10.18c49.36-6.33,99.08-9.4,148.84-9.2c2.14,0.01,4.42-1.58,4.91-3.74
					c8.48-37.76-14.6-76.87-51.03-89.09c-36.86-12.37-80.94,2.19-99.02,37.54c-9.54,18.65-11.55,40.86-4.16,60.59
					C465.56,1583.01,475.41,1580.38,473.1,1574.22L473.1,1574.22z"/>
			</g>
		</g>
		<g>
			<path class="st10" d="M619.89,1555.08c-5.84-32.8,10.66-68.21,40.15-86.15c29.49-17.94,70.25-17.37,99.17,1.4
				s44.31,54.62,37.44,87.25c-56.72,0.38-113.43,0.77-170.15,1.15"/>
			<g>
				<path class="st10" d="M624.8,1553.72c-6.29-37.37,17.75-75.32,53.14-87.66c36.36-12.68,79.77-1.46,101.5,31.34
					c11.4,17.21,16.39,38.45,12.31,58.81c1.64-1.25,3.27-2.49,4.91-3.74c-56.72,0.38-113.43,0.77-170.15,1.15
					c-6.55,0.04-6.56,10.23,0,10.18c56.72-0.38,113.43-0.77,170.15-1.15c2.1-0.01,4.47-1.56,4.91-3.74
					c8.47-42.28-16.11-85.35-55.87-101.19c-40.75-16.23-89.88-3.72-115.43,32.42c-13.56,19.18-19.18,43.12-15.29,66.27
					C616.06,1562.88,625.88,1560.14,624.8,1553.72L624.8,1553.72z"/>
			</g>
		</g>
		<g>
			<path class="st10" d="M600.8,421.89c-55.78-15.89-117.46,10.3-156.37,51.46c-66.14,69.95-74.2,183.75-17.63,260.9
				s172.61,109.33,263.57,72.24c90.96-37.08,146.41-140.03,123.83-231.58S692.87,414.36,594.23,422.11"/>
			<g>
				<path d="M602.15,416.98c-46.89-13.03-97.23,1.8-135.57,30.12c-36.73,27.12-62.74,66.67-74.77,110.6
					c-11.62,42.39-10.43,88.61,4.6,130.01c14.94,41.15,43.05,75.55,79.49,99.62c72.23,47.71,172.67,54.67,247.17,8.14
					c71.99-44.97,116.01-134.99,96.66-219.23c-20.07-87.36-104.73-150.89-191.92-158.94c-11.17-1.03-22.4-1.09-33.59-0.26
					c-6.49,0.49-6.55,10.67,0,10.18c84.67-6.33,172.12,44.05,206.14,122.52c32.99,76.09,3.22,165.84-57.64,218.63
					c-64.02,55.53-157.93,61.64-233.22,26.15c-37.18-17.53-69.63-45.01-90.07-80.95c-20.75-36.49-28.52-79.36-24.01-120.96
					c4.54-41.81,22.11-82.45,50.6-113.51c30.34-33.08,74.37-56.6,119.9-56.8c11.37-0.05,22.56,1.47,33.51,4.52
					C605.77,428.56,608.47,418.74,602.15,416.98L602.15,416.98z"/>
			</g>
		</g>
		<g>
			<g>
				<path d="M503.41,807.01c-20.04,84.21-40.09,168.43-60.13,252.64c-4.99,20.97-10.02,41.94-14.98,62.92
					c-3.69,15.6-7,31.81-5.91,47.92c1.03,15.41,6.5,30.5,18.36,40.88c12.03,10.53,27.6,14.75,43.2,16.36
					c17.8,1.83,35.83,0.25,53.64-0.63c21.63-1.06,43.25-2.13,64.88-3.19c43.25-2.13,86.51-4.26,129.76-6.39
					c28.96-1.43,69.77-1.87,83.97-32.82c7.14-15.56,4.77-33.12,0.68-49.17c-5.09-19.98-11.6-39.67-17.48-59.43
					c-24.68-83.02-49.37-166.04-74.05-249.06c-3.03-10.18-6.05-20.36-9.08-30.54c-1.86-6.27-11.69-3.6-9.82,2.71
					c23.64,79.52,47.29,159.04,70.93,238.56c5.86,19.72,11.73,39.44,17.59,59.16c5.34,17.95,12.16,36.13,14.88,54.72
					c2.29,15.68-0.37,32.15-13.89,42.04c-12,8.78-27.81,11.18-42.26,12.41c-19.07,1.62-38.29,2.06-57.41,3
					c-20.96,1.03-41.92,2.06-62.88,3.1c-40.73,2.01-81.47,4.59-122.23,5.97c-28.67,0.97-66.36-1.53-76.23-34.3
					c-4.5-14.94-2.53-31.19,0.45-46.22c3.72-18.76,8.66-37.32,13.09-55.93c19.2-80.67,38.4-161.33,57.6-242
					c2.38-10,4.76-20.01,7.14-30.01C514.75,803.34,504.93,800.62,503.41,807.01L503.41,807.01z"/>
			</g>
		</g>
		<g>
			<g>
				<path d="M498.69,800.4c-28.31,21.28-57.18,41.76-86.13,62.16c-8.38,5.91-16.79,11.8-24.9,18.07
					c-4.64,3.59-9.81,7.31-13.17,12.22c-4.92,7.19,0.82,13.16,4.62,19.69c8.2,14.11,16.34,28.26,24.31,42.5
					c9.2,16.43,18.02,33.07,27.18,49.52c2.92,5.24,5.88,10.47,8.87,15.67c1.67,2.9,3.34,5.8,5.02,8.69
					c1.19,2.05,2.22,2.65,1.14,4.57c-1.2,2.13-3.66,4.18-5.22,6.06c-16.36,19.75-32.72,39.49-49.09,59.24
					c2.06-0.27,4.11-0.53,6.17-0.8c-20.34-11.58-27-42.28-10.25-59.86c16.72-17.55,48.94-15.64,64.24,2.67
					c4.21,5.03,11.38-2.2,7.2-7.2c-15.12-18.08-42.86-22.16-63.87-12.89c-21.8,9.62-31.59,34-25.25,56.53
					c3.49,12.42,11.56,23.14,22.79,29.54c1.81,1.03,4.74,0.93,6.17-0.8c14.47-17.47,28.95-34.94,43.42-52.41
					c3.14-3.79,6.22-7.66,9.48-11.35c2.54-2.87,5.45-5.96,5.41-10.05c-0.03-3.49-2.47-6.53-4.16-9.43c-1.57-2.7-3.13-5.41-4.68-8.12
					c-9.18-16.02-17.9-32.28-26.77-48.47c-5.79-10.56-11.68-21.06-17.64-31.52c-4.45-7.81-8.94-15.6-13.45-23.38
					c-2.47-4.25-4.7-8.86-7.5-12.89c-1.23-1.77-0.33-0.1-0.27-0.42c-0.1,0.55-0.01,1.19,0.04,1.55c-0.13-0.93-0.45,0.33,0.38-0.79
					c0.21-0.29,0.97-1.34,0.08-0.19c0.32-0.41,0.66-0.82,1.02-1.19c1.9-2,3.93-3.83,6.05-5.59c6.68-5.55,13.85-10.53,20.93-15.56
					c31.15-22.12,62.41-44.04,92.96-66.99C509.01,805.3,503.94,796.46,498.69,800.4L498.69,800.4z"/>
			</g>
		</g>
		<g>
			<g>
				<path d="M713.28,808.4c48.65,41.9,99.2,81.64,150.1,120.77c4.24,3.26,8.49,6.52,12.76,9.76c-0.34-2.67-0.69-5.33-1.03-8
					c-26.6,25.79-53.2,51.57-79.81,77.36c-3.76,3.64-7.52,7.29-11.28,10.93c-1.73,1.67-1.77,4.13-0.8,6.17
					c4.83,10.05,10.93,18.16,18.22,26.56c11.9,13.72,23.81,27.44,35.71,41.16c1.1,1.27,3.37,1.88,4.95,1.31
					c23.27-8.35,37.33-33.36,33.02-57.65c-4.43-25.02-29.65-38.99-53.63-37.67c-13.78,0.76-27.32,6.07-36.61,16.51
					c-4.35,4.88,2.83,12.11,7.2,7.2c16.38-18.39,50.73-18.55,66.4,1.08c16.03,20.08,4.1,52.4-19.1,60.72
					c1.65,0.44,3.3,0.87,4.95,1.31c-11.47-13.22-22.94-26.44-34.41-39.66c-4.5-5.19-9.14-10.09-12.63-16.03
					c-1.91-3.24-3.67-6.58-5.3-9.96c-0.27,2.06-0.53,4.11-0.8,6.17c26.6-25.79,53.2-51.57,79.81-77.36
					c3.76-3.64,7.52-7.29,11.28-10.93c2.59-2.51,1.5-6.08-1.03-8c-38.57-29.3-76.63-59.3-114.15-89.93
					c-15.7-12.82-31.29-25.78-46.65-39.01C715.54,796.94,708.3,804.11,713.28,808.4L713.28,808.4z"/>
			</g>
		</g>
		<g>
			<g>
				<path d="M464.26,1605.98c-6.7-38.55-3.01-88.35,31.48-113.05c16.57-11.87,38.03-18.24,58.29-13.92
					c21.49,4.59,38.22,20.53,48.31,39.49c13.68,25.69,14.55,55.77,15.49,84.19c1.7-1.7,3.39-3.39,5.09-5.09
					c-54.42,0.03-108.63,3.75-162.82,8.5c-6.48,0.57-6.54,10.76,0,10.18c54.19-4.75,108.4-8.46,162.82-8.5
					c2.68,0,5.18-2.33,5.09-5.09c-0.94-28.42-2.13-57.77-14.24-84.01c-9.88-21.42-27.36-39.97-50.07-47.57
					c-21.54-7.21-45.67-3.02-65.16,7.97c-20.18,11.38-34.09,29.51-40.75,51.58c-7.54,24.99-7.79,52.45-3.35,78.03
					C455.56,1615.14,465.37,1612.4,464.26,1605.98L464.26,1605.98z"/>
			</g>
		</g>
		<g>
			<g>
				<path d="M465.48,1591c49.79-4.06,99.57-8.12,149.36-12.19c6.49-0.53,6.54-10.72,0-10.18c-49.79,4.06-99.57,8.12-149.36,12.19
					C458.99,1581.34,458.93,1591.53,465.48,1591L465.48,1591z"/>
			</g>
		</g>
		<g>
			<g>
				<path d="M613.84,1518.15c17.41-34.94,48.03-65.5,88.73-69.03c19.37-1.68,38.27,3.41,53.83,15.16
					c14.77,11.16,25.76,27.02,32.84,43.99c9.53,22.82,12.96,47.63,16.36,71.95c1.64-2.15,3.27-4.3,4.91-6.44
					c-62.7,1.31-125.4,2.62-188.1,3.92c-6.54,0.14-6.57,10.32,0,10.18c62.7-1.31,125.4-2.62,188.1-3.92
					c3.64-0.08,5.37-3.18,4.91-6.44c-5.98-42.77-14.08-89.32-49.31-118.44c-16.14-13.34-35.96-20.76-56.98-20.46
					c-21.13,0.3-42.05,7.6-59.2,19.85c-19.48,13.93-34.26,33.24-44.88,54.55C602.13,1518.86,610.91,1524.02,613.84,1518.15
					L613.84,1518.15z"/>
			</g>
		</g>
		<g>
			<g>
				<path d="M624.31,1572.33c59.34-1.9,118.68-3.8,178.02-5.69c6.54-0.21,6.57-10.39,0-10.18c-59.34,1.9-118.68,3.8-178.02,5.69
					C617.78,1562.36,617.75,1572.54,624.31,1572.33L624.31,1572.33z"/>
			</g>
		</g>
		<g>
			<g>
				<path d="M729.79,1516.52c15.99-12.07,31.99-24.15,47.98-36.22c5.17-3.9,0.1-12.74-5.14-8.79
					c-15.99,12.07-31.99,24.15-47.98,36.22C719.48,1511.62,724.55,1520.47,729.79,1516.52L729.79,1516.52z"/>
			</g>
		</g>
		<g>
			<g>
				<path d="M756.17,1530.82c10.98-9.83,22.48-19.05,33.46-28.88c4.89-4.38-2.33-11.56-7.2-7.2c-10.98,9.83-22.48,19.05-33.46,28.88
					C744.07,1528,751.3,1535.18,756.17,1530.82L756.17,1530.82z"/>
			</g>
		</g>
		<g>
			<g>
				<path d="M501.26,1512.38c22.45-2.41,45.08-2.79,67.53-5.19c6.45-0.69,6.52-10.88,0-10.18c-22.45,2.41-45.08,2.79-67.53,5.19
					C494.82,1502.89,494.75,1513.08,501.26,1512.38L501.26,1512.38z"/>
			</g>
		</g>
		<g>
			<g>
				<path d="M501.26,1532.31c22.46-2.88,45.07-4.56,67.53-7.44c6.41-0.82,6.49-11.01,0-10.18c-22.46,2.88-45.07,4.56-67.53,7.44
					C494.85,1522.95,494.77,1533.14,501.26,1532.31L501.26,1532.31z"/>
			</g>
		</g>
		<g>
			<g>
				<path d="M534.1,1230.83c2.14,79.4,4.29,158.8,6.43,238.2c0.18,6.54,10.36,6.57,10.18,0c-2.14-79.4-4.29-158.8-6.43-238.2
					C544.1,1224.29,533.92,1224.26,534.1,1230.83L534.1,1230.83z"/>
			</g>
		</g>
		<g>
			<g>
				<path d="M695.49,1215.54c3.76,74.03,4.16,148.19,7.92,222.22c0.33,6.52,10.52,6.56,10.18,0c-3.76-74.03-4.16-148.19-7.92-222.22
					C705.34,1209.02,695.15,1208.98,695.49,1215.54L695.49,1215.54z"/>
			</g>
		</g>
		<g>
			<g>
				<path d="M503.17,651.83c51.23,24.96,112.23,28.31,166.2,10.18c15.36-5.16,30.11-12.05,43.85-20.63
					c-2.55-1.47-5.11-2.93-7.66-4.4c1.8,21.94,3.24,44.71-2.15,66.27c-5.69,22.74-20.1,40.62-42.04,49.53
					c-44.17,17.94-100.65,3.87-129.42-34.55c-14.92-19.93-23.75-45.2-21.56-70.22c0.57-6.53-9.61-6.49-10.18,0
					c-2.16,24.66,5.86,49.95,19.45,70.39c14.05,21.13,34.44,36.46,58.34,44.88c47.1,16.59,110.97,5.69,131.3-45.13
					c10.21-25.52,8.64-54.34,6.44-81.17c-0.3-3.66-4.15-6.59-7.66-4.4c-46.02,28.71-103.54,37.48-156.33,25.6
					c-15.01-3.38-29.6-8.41-43.44-15.15C502.45,640.18,497.28,648.95,503.17,651.83L503.17,651.83z"/>
			</g>
		</g>
		<ellipse class="st11" cx="569.68" cy="571.8" rx="12.01" ry="32.75"/>
		<ellipse class="st11" cx="569.68" cy="571.8" rx="12.01" ry="32.75"/>
		<ellipse class="st11" cx="569.68" cy="571.8" rx="12.01" ry="32.75"/>
		<ellipse class="st11" cx="569.68" cy="571.8" rx="12.01" ry="32.75"/>
		<ellipse class="st11" cx="569.68" cy="571.8" rx="12.01" ry="32.75"/>
		<ellipse class="st11" cx="624.82" cy="571.8" rx="12.01" ry="32.75"/>
		<g>
			<path d="M508.95,657.18c6.51,33.42,25.15,70.33,53.26,91.35c1.51-12.51,11.18-30,23.13-35.46s26.82-4.68,38.05,2
				c18.08-22.1,60.57-23.33,83.71-6c1.95-20.56-0.88-44.26,1.07-64.82c-59.83,29.97-134.2,32.28-195.96,6.07"/>
			<g>
				<path d="M504.04,658.53c7.23,36.19,25.87,71.81,55.6,94.39c2.42,1.84,7.06,0.01,7.48-3.04c1.53-11.02,7.37-23.05,16.43-29.84
					c10.52-7.89,26.32-6.78,37.27-0.58c1.83,1.04,4.72,0.92,6.17-0.8c18.23-21.59,55.88-21,77.54-5.2c3.42,2.49,7.36-0.97,7.66-4.4
					c1.91-21.57-0.83-43.25,1.07-64.82c0.37-4.14-4.52-5.96-7.66-4.4c-59.35,29.44-131.05,31.16-192.03,5.56
					c-6.03-2.53-8.67,7.32-2.71,9.82c63.52,26.66,138.23,24,199.88-6.59c-2.55-1.47-5.11-2.93-7.66-4.4
					c-1.91,21.57,0.83,43.25-1.07,64.82c2.55-1.47,5.11-2.93,7.66-4.4c-25.07-18.29-68.94-18.01-89.88,6.79
					c2.06-0.27,4.11-0.53,6.17-0.8c-13.73-7.78-32.86-9.11-46.49-0.16c-11.87,7.79-20.24,22.75-22.17,36.66
					c2.49-1.01,4.99-2.03,7.48-3.04c-27.54-20.92-44.26-54.97-50.92-88.31C512.58,649.4,502.76,652.12,504.04,658.53L504.04,658.53z
					"/>
			</g>
		</g>
		<g>
			<path class="st12" d="M569.68,745.89c0.14-12.69,7.3-22.01,19.36-27.47c12.06-5.46,27.32-3.82,37.78,4.07
				c17.58-19.6,50.77-24.47,73.76-10.83c-26.26,49.8-81.22,54.3-129.54,33.88"/>
			<g>
				<path class="st12" d="M574.77,745.89c0.78-24.7,31.96-31.59,49.48-19.01c1.75,1.26,4.75,0.75,6.17-0.8
					c16.82-18.23,46.16-22.36,67.59-10.03c-0.61-2.32-1.22-4.64-1.83-6.97c-11.45,21.34-30.18,36.25-54.07,41.06
					c-23.46,4.72-47.96-0.43-69.72-9.51c-6.04-2.52-8.68,7.33-2.71,9.82c23.9,9.98,50.75,14.78,76.36,9.26
					c25.78-5.56,46.54-22.42,58.92-45.48c1.29-2.41,0.63-5.55-1.83-6.97c-25.23-14.52-60.04-9.94-79.93,11.62
					c2.06-0.27,4.11-0.53,6.17-0.8c-24.21-17.39-63.79-4.16-64.8,27.8C564.38,752.45,574.56,752.44,574.77,745.89L574.77,745.89z"/>
			</g>
		</g>
		<ellipse class="st13" cx="629.19" cy="547.4" rx="3" ry="2.85"/>
		<ellipse class="st14" cx="628.51" cy="549.01" rx="3.68" ry="4.47"/>
		<ellipse class="st15" cx="573.36" cy="550.9" rx="3.68" ry="4.96"/>
		<g class="st16">
			<path d="M530.84,421.79C470.28,465.01,411.9,557.76,425.1,628.62s70.84,132.56,143.34,153.42s156.49-0.1,208.85-52.1
				c-46.21,66.67-138.42,100.78-220.22,82.56c-81.8-18.22-148.1-86.91-161.42-165.72c-13.32-78.81,29.21-176.78,125.68-222.26"/>
			<g>
				<path d="M528.28,417.4c-37.54,26.98-68.11,64.96-88.33,106.41c-9.99,20.48-17.54,42.27-20.52,64.92
					c-2.83,21.5-0.32,42.55,6.33,63.14c13.82,42.82,42.83,79.87,79.56,105.54c38.55,26.94,85.39,39.84,132.29,37.4
					c52.99-2.76,105.3-23.84,143.29-61.27c-2.67-2.06-5.33-4.11-8-6.17c-29.1,41.63-75.46,69.1-124.63,79.88
					c-50.43,11.05-103.35,3.48-148.05-22.55c-42.72-24.88-77.2-64.97-92.86-112.1c-13.97-42.02-10.76-87.21,5.63-128.07
					c17.97-44.8,51.71-82.37,93.38-106.44c5.72-3.3,11.58-6.34,17.54-9.17c5.92-2.81,0.75-11.59-5.14-8.79
					c-46.63,22.17-85.67,59.22-108.5,105.7c-20.16,41.04-27.79,88.47-17.3,133.3c11.84,50.62,44.57,95.05,86.89,124.63
					c44.38,31.03,98.79,43.84,152.37,36.6c52.33-7.07,103.34-32.25,137.82-72.74c4.13-4.85,8-9.9,11.65-15.12
					c3.38-4.83-3.97-10.13-8-6.17c-64.38,63.43-170.37,77.09-248.49,31.69c-36.97-21.48-67.41-54.73-84.18-94.19
					c-7.96-18.73-13.17-39.03-12.68-59.48c0.51-21.15,6.15-41.99,14.12-61.48c18.57-45.42,51.01-87.99,90.95-116.69
					C538.69,422.4,533.61,413.56,528.28,417.4L528.28,417.4z"/>
			</g>
		</g>
		<g class="st16">
			<path d="M512.66,809.46c7.04,59.02-6.92,118.3-9.89,177.63s7.81,124.31,53.42,164.94c32.92,29.33,79.64,41.41,124.77,41.56
				c45.13,0.15,89.45-10.49,133.1-21.4c-1.16,14.68-13.83,26.7-28.18,32.24c-14.36,5.53-30.26,5.84-45.76,6.06
				c-70.37,1.02-140.73,2.04-211.1,3.06c-31.19,0.45-70.56,16.02-87.73-8.72c-11.51-16.59-7.35-55.85-5.04-75.6
				c12.85-109.77,39.06-218.13,77.94-322.22"/>
			<g>
				<path d="M507.56,809.46c9.9,85.83-22.94,171.4-4.11,256.85c7.77,35.26,24.6,69.1,52.75,92.43
					c29.92,24.79,68.49,36.36,106.76,39.24c51.59,3.88,102.77-8.48,152.44-20.88c-2.15-1.64-4.3-3.27-6.44-4.91
					c-1.2,11.51-10.43,20.3-20.21,25.38c-11.54,6-25.09,7.14-37.87,7.59c-29.12,1.02-58.31,0.92-87.44,1.34
					c-29.54,0.43-59.08,0.86-88.62,1.28c-14.6,0.21-29.21,0.41-43.81,0.64c-11.03,0.17-21.89,1.73-32.8,3.2
					c-16.57,2.23-41.16,6.71-52.52-9.38c-4.87-6.9-6.05-16.24-6.64-24.44c-0.76-10.46-0.3-20.99,0.55-31.43
					c4.27-52.36,13.94-104.73,25.4-155.94c13.84-61.85,31.98-122.7,54.11-182.09c2.29-6.15-7.55-8.8-9.82-2.71
					c-21.03,56.42-38.46,114.16-52.01,172.83c-12.54,54.3-22.72,109.79-27.65,165.35c-1.71,19.22-3.64,42.21,5.23,60.08
					c9.45,19.04,31.76,21.12,50.55,19.41c10.92-0.99,21.73-2.96,32.64-4.01c14.18-1.37,28.6-0.92,42.83-1.13
					c31.2-0.45,62.4-0.9,93.6-1.36c17.26-0.25,34.52-0.5,51.78-0.75c17.23-0.25,34.6,0.09,51.8-1.08
					c25.97-1.77,57.94-12.69,61.08-42.8c0.36-3.41-3.53-5.64-6.44-4.91c-77.65,19.38-170.35,40.02-241.47-9.8
					c-62.23-43.58-67.86-126.54-61.54-195.55c4.64-50.69,13.95-101.48,8.07-152.48C517.01,803.02,506.81,802.95,507.56,809.46
					L507.56,809.46z"/>
			</g>
		</g>
		<g class="st16">
			<path d="M385.24,1038.34c5.38,15.99,25.63,25.86,42.45,20.69c-11.16,12.6-22.32,25.2-33.48,37.8
				c-12.13-14.89-16.83-35.02-12.46-53.38"/>
			<g>
				<path d="M380.33,1039.69c7.02,19.29,29.12,29.79,48.71,24.25c-1.65-2.84-3.3-5.67-4.95-8.51c-11.16,12.6-22.32,25.2-33.48,37.8
					c2.4,0,4.8,0,7.2,0c-10.77-13.57-14.93-31.54-11.15-48.43c1.43-6.38-8.39-9.11-9.82-2.71c-4.64,20.75,0.62,41.76,13.77,58.34
					c1.64,2.07,5.53,1.88,7.2,0c11.16-12.6,22.32-25.2,33.48-37.8c3.25-3.67,0.17-9.96-4.95-8.51
					c-13.93,3.95-31.05-3.03-36.18-17.14C387.93,1030.88,378.08,1033.51,380.33,1039.69L380.33,1039.69z"/>
			</g>
		</g>
		<g class="st16">
			<path d="M837.08,1011.63c-4.99,24.81-2.62,50.93,6.77,74.56c-18.06-20.83-36.12-41.66-54.18-62.49
				c10.7-14.52,32.24-20.8,49.68-14.5"/>
			<g>
				<path d="M832.17,1010.28c-5.03,25.93-2.82,52.63,6.77,77.27c2.84-1.65,5.67-3.3,8.51-4.95c-18.06-20.83-36.12-41.66-54.18-62.49
					c0.27,2.06,0.53,4.11,0.8,6.17c10.05-13.1,28.69-17.36,43.93-12.16c6.22,2.12,8.88-7.71,2.71-9.82
					c-19.96-6.81-42.65,0.19-55.43,16.84c-1.43,1.86-0.56,4.61,0.8,6.17c18.06,20.83,36.12,41.66,54.18,62.49
					c3.23,3.72,10.35-0.22,8.51-4.95c-8.92-22.91-11.46-47.68-6.77-71.85C843.23,1006.58,833.42,1003.84,832.17,1010.28
					L832.17,1010.28z"/>
			</g>
		</g>
		<g class="st16">
			<path d="M530.84,1474.96c-37.81,29.83-51.18,84.43-31.1,127.05c-11.79,1.77-23.57,3.55-35.36,5.32
				c-12.55-50.27,12.7-106.95,59.42-133.4"/>
			<g>
				<path d="M527.24,1471.36c-39.05,31.27-52.91,87.73-31.9,133.22c1.01-2.49,2.03-4.99,3.04-7.48
					c-11.79,1.77-23.57,3.55-35.36,5.32c2.09,1.19,4.18,2.37,6.26,3.56c-12.01-49.52,13.47-102.6,57.08-127.65
					c5.68-3.26,0.56-12.06-5.14-8.79c-47.62,27.35-74.83,85.23-61.76,139.15c0.7,2.9,3.61,3.96,6.26,3.56
					c11.79-1.77,23.57-3.55,35.36-5.32c3.55-0.53,4.26-4.85,3.04-7.48c-19.21-41.59-4.94-92.66,30.3-120.88
					C539.56,1474.47,532.31,1467.31,527.24,1471.36L527.24,1471.36z"/>
			</g>
		</g>
		<g class="st16">
			<path d="M701.09,1445.19c-40.13,29.43-57.76,83.77-42.01,129.55c-9.62,0.77-19.23,1.54-28.85,2.32
				c-14.01-24.16-14.95-54.75-2.45-79.64c12.5-24.89,38.12-43.45,66.7-48.31"/>
			<g>
				<path d="M698.52,1440.79c-41.12,30.57-60.89,86.12-44.35,135.3c1.64-2.15,3.27-4.3,4.91-6.44c-9.62,0.77-19.23,1.54-28.85,2.32
					c1.47,0.84,2.93,1.68,4.4,2.52c-13.73-24.24-14.13-54.83,0-79.01c12.98-22.22,36.11-36.97,61.21-41.46
					c6.44-1.15,3.71-10.97-2.71-9.82c-28.03,5.01-54.01,22.41-68.02,47.41c-15.22,27.15-14.54,61.07,0.73,88.02
					c0.83,1.46,2.67,2.66,4.4,2.52c9.62-0.77,19.23-1.54,28.85-2.32c3.09-0.25,6.04-3.08,4.91-6.44
					c-14.98-44.56,2.09-95.87,39.67-123.8C708.86,1445.72,703.78,1436.88,698.52,1440.79L698.52,1440.79z"/>
			</g>
		</g>
	</g>
</g>
</svg>
