<?xml version="1.0" encoding="utf-8"?>
<!-- Generator: Adobe Adobe Illustrator 24.2.0, SVG Export Plug-In . SVG Version: 6.00 Build 0)  -->
<svg version="1.1" xmlns="http://www.w3.org/2000/svg" xmlns:xlink="http://www.w3.org/1999/xlink" x="0px" y="0px"
	 viewBox="0 0 170.08 170.08" style="enable-background:new 0 0 170.08 170.08;" xml:space="preserve">
<style type="text/css">
	.st0{fill:#F7EBF2;}
	.st1{fill:#F6EBF2;}
	.st2{fill:#FFFFFF;}
	.st3{fill:#F3C158;}
	.st4{fill:#C9354F;}
	.st5{stroke:#000000;stroke-miterlimit:10;}
	.st6{fill:#FFFFFF;stroke:#FFFFFF;stroke-width:0.3444;stroke-miterlimit:10;}
</style>
<g id="Ebene_4">
</g>
<g id="Ebene_9">
	<g>
		<path class="st0" d="M24.43,21.66c0.41,9.31,1.43,18.58,2.45,27.84c1.54,14.03,3.09,28.05,4.63,42.08
			c0.8,7.25,1.6,14.5,2.39,21.74c0.02,0.2,0.05,0.42,0.21,0.56c0.15,0.13,0.37,0.14,0.57,0.14c22.16-0.13,44.32-0.91,66.44-2.34
			c0.34-0.02,0.69-0.05,0.96-0.25c0.51-0.36,0.51-1.1,0.47-1.72c-2.38-31.99-4.75-63.98-7.13-95.97
			c-23.25,3.2-46.61,5.56-70.03,7.06"/>
		<g>
			<path class="st1" d="M23.43,21.66c0.79,17.25,3.18,34.45,5.07,51.6c0.95,8.66,1.91,17.32,2.86,25.98
				c0.47,4.28,0.94,8.57,1.41,12.85c0.2,1.83,0.33,2.92,2.41,2.93c2.15,0,4.3-0.03,6.45-0.06c17.36-0.21,34.72-0.82,52.06-1.82
				c2.15-0.12,4.29-0.26,6.44-0.39c1.43-0.09,2.97-0.14,3.36-1.81c0.19-0.79,0.03-1.67-0.03-2.47c-0.09-1.16-0.17-2.32-0.26-3.48
				c-0.16-2.15-0.32-4.31-0.48-6.46c-0.65-8.7-1.29-17.4-1.94-26.11c-1.29-17.4-2.59-34.81-3.88-52.21
				c-0.16-2.15-0.32-4.31-0.48-6.46c-0.05-0.71-0.59-1.06-1.27-0.96c-18.09,2.49-36.24,4.46-54.44,5.92
				c-5.11,0.41-10.22,0.78-15.33,1.1c-1.28,0.08-1.29,2.08,0,2c18.39-1.18,36.75-2.88,55.04-5.11c5.09-0.62,10.18-1.28,15.26-1.98
				c-0.42-0.32-0.84-0.64-1.27-0.96c1.24,16.66,2.48,33.32,3.71,49.97c0.62,8.37,1.24,16.74,1.87,25.11
				c0.31,4.14,0.62,8.29,0.92,12.43c0.16,2.15,0.32,4.31,0.48,6.46c0.04,0.6,0.45,2.09,0.16,2.63c-0.35,0.67-2.51,0.46-3.17,0.5
				c-16.59,1.03-33.2,1.7-49.82,2c-4.13,0.07-8.27,0.13-12.4,0.16c-0.22,0-1.35,0.15-1.49,0.01c0.22,0.24,0.1-1.29,0.12-0.68
				c-0.01-0.24-0.05-0.5-0.08-0.74c-0.12-1.07-0.24-2.14-0.35-3.21c-0.23-2.06-0.45-4.12-0.68-6.18
				c-0.91-8.24-1.81-16.49-2.72-24.73c-1.82-16.54-4.02-33.09-5.18-49.69c-0.14-2.04-0.26-4.08-0.35-6.12
				C25.37,20.38,23.37,20.37,23.43,21.66L23.43,21.66z"/>
		</g>
	</g>
	<g>
		<g>
			<path class="st1" d="M102.56,110.74c1.29,0,1.29-2,0-2C101.27,108.74,101.27,110.74,102.56,110.74L102.56,110.74z"/>
		</g>
	</g>
</g>
<g id="Ebene_7">
	<g>
		<path class="st2" d="M119.33,156.34c-2.23-1.04-4.95-1.41-7.11-0.23c-0.54,0.29-1.05,0.69-1.38,1.21c-0.3,0.46-0.45,1-0.54,1.54
			c-0.19,1.12-0.11,2.29,0.23,3.37c0.08,0.25,0.19,0.52,0.42,0.66c0.4,0.25,0.91-0.03,1.3-0.31c2.52-1.79,5.04-3.59,7.56-5.38"/>
		<g>
			<path class="st2" d="M119.83,155.48c-1.63-0.75-3.44-1.24-5.25-1.07c-1.77,0.17-3.76,0.91-4.69,2.54
				c-0.93,1.63-0.91,4.01-0.26,5.73c0.38,1.01,1.32,1.56,2.37,1.16c0.92-0.35,1.73-1.1,2.52-1.66c1.93-1.37,3.86-2.75,5.78-4.12
				c0.44-0.31,0.65-0.87,0.36-1.37c-0.25-0.43-0.93-0.67-1.37-0.36c-1.39,0.99-2.78,1.98-4.16,2.97c-0.69,0.49-1.39,0.99-2.08,1.48
				c-0.33,0.24-0.67,0.48-1,0.71c-0.08,0.06-0.71,0.4-0.72,0.49c0,0.01,0.24,0.08,0.21,0.1c0.02-0.02-0.13-0.41-0.14-0.46
				c-0.09-0.35-0.16-0.71-0.18-1.08c-0.05-0.72,0-1.46,0.22-2.15c0.39-1.23,1.8-1.8,2.98-1.97c1.49-0.21,3.06,0.16,4.42,0.77
				c0.49,0.22,1.08,0.14,1.37-0.36C120.44,156.41,120.33,155.7,119.83,155.48L119.83,155.48z"/>
		</g>
	</g>
	<g>
		<path class="st2" d="M62.74,158.82c0.45-2.38,0.11-4.9-0.95-7.08c-0.73-1.5-1.85-2.88-3.4-3.5s-3.54-0.25-4.48,1.13
			c-0.31,0.47-0.5,1.03-0.44,1.59c0.06,0.63,0.42,1.19,0.79,1.7c1.85,2.58,4.38,4.66,7.26,5.98"/>
		<g>
			<path class="st2" d="M63.71,159.09c0.45-2.49,0.19-5.02-0.82-7.35c-0.85-1.97-2.29-3.78-4.36-4.52c-1.92-0.68-4.32-0.1-5.47,1.64
				c-0.69,1.05-0.73,2.3-0.2,3.42c0.47,0.99,1.27,1.89,2.01,2.7c1.72,1.9,3.84,3.45,6.16,4.52c0.49,0.23,1.08,0.14,1.37-0.36
				c0.25-0.43,0.13-1.14-0.36-1.37c-1.65-0.77-3.19-1.76-4.53-2.99c-0.68-0.62-1.32-1.3-1.9-2.01c-0.45-0.56-1.22-1.38-1.13-2.16
				c0.17-1.41,1.94-1.87,3.11-1.59c1.59,0.38,2.67,1.81,3.34,3.21c0.94,1.93,1.22,4.2,0.84,6.31c-0.1,0.53,0.14,1.08,0.7,1.23
				C62.96,159.92,63.61,159.62,63.71,159.09L63.71,159.09z"/>
		</g>
	</g>
	<g>
		<path class="st2" d="M57.92,112.96c-1.08-0.84-2.35-1.44-3.68-1.75c-0.7-0.17-1.47-0.24-2.12,0.07c-0.46,0.22-0.82,0.62-1.09,1.06
			c-0.45,0.73-0.68,1.6-0.56,2.44c0.19,1.3,1.21,2.35,2.38,2.96c0.96,0.5,2.07,0.77,3.14,0.58c1.07-0.19,2.07-0.89,2.47-1.9
			c0.4-1.01,0.08-2.3-0.83-2.89"/>
		<g>
			<path class="st2" d="M58.42,112.1c-0.8-0.61-1.68-1.08-2.61-1.45c-0.9-0.36-1.94-0.65-2.92-0.58c-2.19,0.17-3.62,2.5-3.43,4.57
				c0.36,3.99,6.19,6.33,9.08,3.43c1.54-1.55,1.43-4.15-0.4-5.41c-0.45-0.31-1.11-0.08-1.37,0.36c-0.29,0.5-0.09,1.06,0.36,1.37
				c0.09,0.06,0.1,0.07,0.2,0.19c-0.08-0.09,0.03,0.04,0.04,0.05c0.04,0.06,0.08,0.12,0.11,0.18c0.07,0.14,0.15,0.42,0.15,0.58
				c0.02,0.48-0.13,0.86-0.46,1.22c-0.39,0.41-0.84,0.64-1.43,0.73c-0.66,0.1-1.35-0.04-1.96-0.29c-1.08-0.43-2.08-1.27-2.29-2.38
				c-0.18-0.94,0.41-2.55,1.55-2.63c0.76-0.05,1.56,0.24,2.25,0.52c0.77,0.3,1.48,0.75,2.13,1.24c0.43,0.33,1.12,0.07,1.37-0.36
				C59.08,112.95,58.85,112.42,58.42,112.1L58.42,112.1z"/>
		</g>
	</g>
	<g>
		<path class="st2" d="M119.95,114.94c-0.07-0.94-0.31-1.86-0.7-2.72c-0.24-0.54-0.57-1.07-1.09-1.36
			c-0.52-0.28-1.27-0.22-1.59,0.28c-0.4,0.61-0.03,1.59-0.59,2.06c-0.39,0.32-0.97,0.17-1.46,0.25c-0.39,0.07-0.74,0.29-1.06,0.52
			c-0.64,0.46-1.25,1.01-1.59,1.73c-0.33,0.72-0.32,1.64,0.2,2.23c0.27,0.31,0.65,0.5,1.04,0.64c1.95,0.66,4.15-0.14,5.72-1.48
			c0.57-0.49,1.13-1.21,0.88-1.92"/>
		<g>
			<path class="st2" d="M120.95,114.94c-0.17-1.95-0.99-5.28-3.5-5.25c-1.19,0.02-1.93,0.89-2.07,2.01
				c-0.03,0.21-0.04,0.41-0.05,0.62c-0.02,0.25,0.07-0.09-0.03,0.13c-0.05,0.11-0.05,0.05,0,0.02c-0.02,0.01,0.12-0.12,0.12-0.09
				c0,0.03-0.17,0.03-0.19,0.03c-0.29,0.01-0.57,0.01-0.86,0.06c-1.03,0.16-2.04,0.99-2.7,1.76c-0.73,0.85-1.14,1.89-0.96,3.02
				c0.39,2.4,3.36,2.82,5.32,2.39c1.09-0.24,2.14-0.76,3.03-1.44c1.03-0.78,2.04-1.9,1.64-3.29c-0.35-1.24-2.28-0.71-1.93,0.53
				c0.1,0.36,0.02,0.1,0.02,0.09c0.01-0.12-0.02,0.11-0.04,0.14c-0.03,0.07-0.09,0.17-0.16,0.26c-0.2,0.27-0.49,0.5-0.76,0.7
				c-0.6,0.43-1.26,0.78-1.97,0.99c-0.63,0.18-1.3,0.26-1.92,0.14c-0.32-0.06-0.63-0.14-0.88-0.3c-0.25-0.15-0.35-0.31-0.4-0.56
				c-0.03-0.18,0-0.45,0.09-0.7c0.08-0.21,0.3-0.53,0.51-0.74c0.42-0.44,1.09-1.01,1.61-1.03c0.88-0.03,1.75-0.15,2.2-1.02
				c0.18-0.35,0.23-0.73,0.27-1.13c0.01-0.14,0.02-0.28,0.03-0.42c0.02-0.19-0.04,0.23,0.02-0.09c0.03-0.17-0.01,0.01,0.03-0.08
				c0.04-0.1,0,0.01-0.04,0.04c0.14-0.08-0.01-0.02,0.09-0.03c0.11-0.02-0.12-0.06,0.1,0c-0.13-0.04,0.05,0.01,0.1,0.03
				c0.12,0.05-0.1-0.12,0.11,0.06c-0.05-0.04,0.13,0.11,0.13,0.12c0.12,0.12,0.2,0.26,0.29,0.41c0.44,0.79,0.68,1.72,0.76,2.62
				c0.05,0.54,0.43,1,1,1C120.45,115.94,120.99,115.48,120.95,114.94L120.95,114.94z"/>
		</g>
	</g>
</g>
<g id="Ebene_8">
	<g>
		<path class="st2" d="M108.36,58.7c-7.73-3.64-17.08-3.63-24.8,0.02c-1.9,0.9-3.72,2.01-5.21,3.49c-3.79,3.75-5.07,9.44-4.84,14.77
			c0.08,1.91,0.34,3.83,1,5.62c1.94,5.21,7.06,8.6,12.29,10.49c4.26,1.54,8.88,2.32,13.33,1.52c5.15-0.93,9.87-4.04,12.75-8.41
			s3.88-9.94,2.7-15.04c-0.63-2.73-1.84-5.28-3.04-7.81c-0.54-1.13-1.14-2.32-2.24-2.92c-0.75-0.4-1.83-0.66-1.91-1.51"/>
		<g>
			<path class="st2" d="M108.87,57.84c-8.37-3.86-18.32-3.83-26.57,0.39c-3.92,2-6.84,5.09-8.4,9.22
				c-1.54,4.08-1.81,8.82-0.99,13.08c1.68,8.74,10.82,13.51,18.88,14.95c4.55,0.81,9.17,0.49,13.41-1.44
				c3.83-1.75,7.12-4.73,9.21-8.39c2.45-4.3,3.26-9.5,2.24-14.35c-0.59-2.81-1.81-5.45-3.03-8.03c-0.48-1-0.95-2.05-1.73-2.86
				c-0.39-0.4-0.84-0.71-1.33-0.96c-0.36-0.18-1.08-0.34-1.19-0.79c-0.3-1.25-2.23-0.72-1.93,0.53c0.39,1.66,2.23,1.66,3.18,2.82
				c0.64,0.78,1.03,1.78,1.46,2.69c0.53,1.12,1.05,2.24,1.49,3.4c1.55,4.01,1.96,8.23,0.8,12.4c-2.21,7.94-9.64,13.4-17.84,13.43
				c-4.23,0.01-8.56-1.15-12.34-3.02c-3.31-1.64-6.41-3.98-8.16-7.31c-1.89-3.6-1.92-8.32-1.17-12.23c0.75-3.92,2.6-7.54,5.91-9.9
				c7.68-5.48,18.67-5.78,27.07-1.9C109.02,60.1,110.04,58.38,108.87,57.84L108.87,57.84z"/>
		</g>
	</g>
	<g>
		<path class="st2" d="M85.5,94.36c-2,8.31-3.37,16.77-4.12,25.29c-0.1,1.2-0.18,2.48,0.41,3.53c1,1.78,3.37,2.1,5.41,2.23
			c4.78,0.3,9.55,0.59,14.33,0.89c1.73,0.11,3.74,0.11,4.87-1.21c0.96-1.12,0.91-2.77,0.8-4.24c-0.64-8.53-1.27-17.06-1.91-25.59
			c-6.5,0.86-13.16,0.5-19.53-1.05"/>
		<g>
			<path class="st2" d="M84.53,94.1c-1.44,6.05-2.57,12.17-3.37,18.34c-0.21,1.6-0.39,3.2-0.56,4.81c-0.15,1.45-0.4,2.97-0.27,4.43
				c0.22,2.32,1.81,3.79,4,4.35c2.65,0.68,5.58,0.56,8.3,0.73c3.14,0.19,6.28,0.45,9.42,0.58c2.13,0.08,4.5-0.27,5.61-2.33
				c1.24-2.3,0.42-5.62,0.24-8.08c-0.54-7.22-1.08-14.44-1.62-21.66c-0.04-0.49-0.43-1.07-1-1c-6.44,0.83-12.95,0.5-19.27-1.01
				c-1.25-0.3-1.78,1.63-0.53,1.93c6.49,1.55,13.18,1.93,19.8,1.08c-0.33-0.33-0.67-0.67-1-1c0.42,5.58,0.83,11.16,1.25,16.73
				c0.21,2.79,0.42,5.58,0.63,8.37c0.08,1.11,0.27,2.35-0.14,3.41c-0.44,1.15-1.57,1.49-2.71,1.56c-2.54,0.16-5.18-0.24-7.71-0.4
				c-2.8-0.17-5.6-0.33-8.4-0.52c-2.27-0.16-4.83-0.56-4.89-3.35c-0.06-2.61,0.44-5.33,0.76-7.91c0.78-6.23,1.93-12.42,3.39-18.53
				C86.76,93.38,84.83,92.84,84.53,94.1L84.53,94.1z"/>
		</g>
	</g>
</g>
<g id="Ebene_12">
	<g>
		<g>
			<path class="st2" d="M130.34,83.68c1.48,0.96,2.95,1.92,4.43,2.88c0.36,0.23,0.92,0.16,1.21-0.16c0.28-0.31,0.42-0.84,0.16-1.21
				c-1.33-1.88-3.15-3.28-5.3-4.09c-0.49-0.18-1.12,0.2-1.23,0.7c-0.13,0.57,0.17,1.03,0.7,1.23c0.1,0.04,0.27,0.07,0.35,0.14
				c-0.05-0.04-0.15-0.06-0.03-0.01c0.06,0.03,0.11,0.05,0.17,0.08c0.22,0.1,0.43,0.21,0.64,0.33c0.22,0.12,0.43,0.25,0.64,0.39
				c0.09,0.06,0.19,0.13,0.28,0.19c0.05,0.04,0.1,0.07,0.15,0.11c0.02,0.02,0.2,0.15,0.08,0.06c-0.11-0.08,0.03,0.02,0.05,0.04
				c0.05,0.04,0.1,0.08,0.15,0.12c0.1,0.08,0.19,0.16,0.29,0.25c0.18,0.16,0.35,0.33,0.52,0.5c0.17,0.17,0.33,0.35,0.48,0.53
				c0.04,0.05,0.08,0.1,0.12,0.15c0.05,0.06,0.16,0.13,0.01,0.01c0.09,0.07,0.16,0.21,0.22,0.3c0.46-0.46,0.91-0.91,1.37-1.37
				c-1.48-0.96-2.95-1.92-4.43-2.88c-0.44-0.29-1.12-0.1-1.37,0.36C129.71,82.81,129.87,83.37,130.34,83.68L130.34,83.68z"/>
		</g>
	</g>
	<g>
		<g>
			<path class="st2" d="M100.93,123.92c-0.88,2.91-1.94,5.76-3.2,8.52c-0.21,0.45-0.17,0.97,0.26,1.29
				c0.37,0.28,0.98,0.31,1.31-0.08c2.07-2.4,4.26-4.69,6.57-6.85c0.61-0.57,0.21-1.4-0.44-1.67c-0.92-0.38-1.85-0.77-2.77-1.15
				c-0.66-0.27-1.21,0.4-1.27,0.96c-0.13,1.25-0.64,2.42-1.39,3.42c0.62,0.17,1.24,0.34,1.86,0.5c0.11-1.26,0.91-2.41,2.02-3.03
				c-0.49-0.38-0.98-0.75-1.47-1.13c-0.1,0.67-0.32,1.29-0.76,1.81c-0.06,0.07-0.29,0.24-0.31,0.32c-0.11,0.17,0.05,0.24,0.49,0.22
				c0.04,0.04,0.04,0.01-0.01-0.1c0.01,0.07,0.01,0.04,0-0.09c0-0.08,0-0.16,0.01-0.24c-0.01,0.07-0.01,0.04,0.02-0.09
				c0.02-0.08,0.04-0.15,0.06-0.23c0.14-0.39,0.53-0.73,0.8-0.77c0.25-0.03,0.47,0.01,0.61,0.07c0.24,0.11,0.32,0.18,0.45,0.41
				c0.2-0.49,0.4-0.98,0.6-1.47c-0.65,0.19-1.24,0.55-1.66,1.07c-0.34,0.42-0.41,1,0,1.41c0.35,0.35,1.07,0.42,1.41,0
				c0.22-0.27,0.45-0.46,0.78-0.56c0.62-0.18,0.92-0.9,0.6-1.47c-0.64-1.13-2.01-1.68-3.27-1.4c-1.19,0.26-2.11,1.34-2.33,2.52
				c-0.12,0.64-0.11,1.36,0.21,1.94c0.43,0.78,1.37,0.96,2.12,0.57c1.17-0.61,1.93-2.14,2.12-3.39c0.12-0.83-0.64-1.59-1.47-1.13
				c-1.75,0.98-2.84,2.78-3.01,4.76c-0.04,0.43,0.34,0.86,0.73,0.96c0.46,0.13,0.86-0.1,1.13-0.46c0.97-1.3,1.5-2.82,1.66-4.43
				c-0.42,0.32-0.84,0.64-1.27,0.96c0.92,0.38,1.85,0.77,2.77,1.15c-0.15-0.56-0.29-1.11-0.44-1.67c-2.31,2.17-4.5,4.45-6.57,6.85
				c0.52,0.4,1.05,0.81,1.57,1.21c1.34-2.92,2.48-5.93,3.4-9C103.23,123.22,101.3,122.69,100.93,123.92L100.93,123.92z"/>
		</g>
	</g>
</g>
<g id="Ebene_10">
	<g>
		<path class="st3" d="M128.93,84.48c-8.45,12.67-17.41,24.99-26.84,36.95c2.06,0.87,3.79,2.51,4.77,4.53
			c7.38-13.56,18.22-24.87,27.06-37.53c0.18-0.26,0.37-0.57,0.28-0.88c-0.07-0.24-0.3-0.39-0.51-0.52
			c-1.42-0.88-2.83-1.75-4.25-2.63"/>
		<g>
			<path class="st3" d="M128.06,83.97c-8.41,12.59-17.31,24.85-26.68,36.74c-0.35,0.45-0.45,1.28,0.2,1.57
				c1.95,0.87,3.44,2.26,4.41,4.17c0.34,0.67,1.38,0.64,1.73,0c4.49-8.19,10.2-15.58,15.96-22.9c2.79-3.54,5.58-7.07,8.26-10.69
				c0.7-0.95,1.39-1.9,2.08-2.86c0.51-0.71,1.29-1.52,1.18-2.46c-0.12-1-1.09-1.43-1.86-1.91c-1.13-0.7-2.26-1.4-3.4-2.1
				c-1.1-0.68-2.1,1.05-1.01,1.73c1.13,0.7,2.26,1.4,3.4,2.1c0.14,0.09,0.28,0.18,0.42,0.26c0.48,0.16,0.58,0.26,0.3,0.29
				c0.02,0.29-0.84,1.19-1.02,1.44c-1.2,1.68-2.43,3.33-3.68,4.97c-2.63,3.45-5.33,6.83-8,10.25c-5.21,6.66-10.29,13.44-14.36,20.87
				c0.58,0,1.15,0,1.73,0c-1.11-2.17-2.89-3.89-5.12-4.89c0.07,0.52,0.13,1.05,0.2,1.57c9.48-12.02,18.49-24.41,26.99-37.15
				C130.51,83.91,128.78,82.91,128.06,83.97L128.06,83.97z"/>
		</g>
	</g>
</g>
<g id="Ebene_11">
	<g>
		<path class="st4" d="M131.88,80.42c2.01,0.14,3.93,1.33,4.94,3.07c1.06-2.06,2.12-4.12,3.19-6.18c0.23-0.44,0.46-0.89,0.52-1.38
			c0.07-0.49-0.05-1.03-0.43-1.35c-0.25-0.21-0.59-0.3-0.93-0.33c-1.6-0.13-3.02,1-4.14,2.16c-1,1.05-1.91,2.18-2.72,3.39"/>
		<g>
			<path class="st4" d="M131.88,81.42c1.68,0.14,3.22,1.14,4.08,2.58c0.37,0.62,1.37,0.68,1.73,0c0.74-1.44,1.48-2.87,2.22-4.31
				c0.36-0.7,0.73-1.39,1.08-2.09c0.34-0.69,0.63-1.42,0.54-2.2c-0.2-1.77-1.84-2.33-3.41-2.07c-1.35,0.23-2.53,1.13-3.48,2.07
				c-1.2,1.18-2.25,2.52-3.19,3.91c-0.3,0.45-0.09,1.11,0.36,1.37c0.49,0.29,1.07,0.09,1.37-0.36c0.84-1.25,1.79-2.44,2.87-3.5
				c0.77-0.76,1.95-1.77,3.14-1.55c0.53,0.1,0.37,0.65,0.2,1.04c-0.3,0.73-0.73,1.43-1.09,2.13c-0.78,1.52-1.56,3.03-2.35,4.55
				c0.58,0,1.15,0,1.73,0c-1.24-2.07-3.41-3.37-5.81-3.57c-0.54-0.04-1,0.49-1,1C130.88,81,131.34,81.38,131.88,81.42L131.88,81.42z
				"/>
		</g>
	</g>
</g>
<g id="Ebene_3">
	<g>
		<g>
			<path d="M100.94,54.55c-1.45-13.94-2.64-27.9-4.09-41.84c-0.05-0.49-0.42-1.06-1-1c-19,1.92-38.08,3.1-57.06,5.33
				c-5.08,0.6-10.14,1.28-15.19,2.05c-1.27,0.19-0.73,2.12,0.53,1.93c17.83-2.72,35.82-4.05,53.78-5.62
				c5.98-0.52,11.96-1.08,17.94-1.68c-0.33-0.33-0.67-0.67-1-1c1.45,13.94,2.64,27.9,4.09,41.84
				C99.07,55.82,101.07,55.83,100.94,54.55L100.94,54.55z"/>
		</g>
	</g>
	<g>
		<g>
			<path d="M22.86,20.05c1.36,10.96,2.33,21.98,3.35,32.98c1.29,13.78,2.54,27.56,3.95,41.33c0.71,6.97,1.46,13.95,2.33,20.9
				c0.07,0.54,0.4,1,1,1c5.25,0,10.49-0.18,15.74-0.39c1.28-0.05,1.29-2.05,0-2c-5.24,0.21-10.49,0.39-15.74,0.39
				c0.33,0.33,0.67,0.67,1,1c-1.61-12.95-2.86-25.94-4.09-38.93c-1.26-13.22-2.44-26.45-3.74-39.67
				c-0.55-5.54-1.11-11.08-1.79-16.61C24.7,18.79,22.7,18.78,22.86,20.05L22.86,20.05z"/>
		</g>
	</g>
	<g>
		<g>
			<path d="M39.89,43.34c-1.77,0.15-3.53,0.3-5.3,0.45c-0.53,0.04-1.01,0.42-1,1c0.06,3.26,0.12,6.51,0.18,9.77
				c0.01,0.68,0.63,1.09,1.27,0.96c3.23-0.65,6.5-1,9.8-1.08c0.5-0.01,1.06-0.45,1-1c-0.14-1.28-0.15-2.56-0.04-3.84
				c0.05-0.54-0.49-1-1-1c-0.58,0-0.95,0.46-1,1c-0.11,1.28-0.1,2.56,0.04,3.84c0.33-0.33,0.67-0.67,1-1
				c-3.47,0.08-6.93,0.47-10.33,1.15c0.42,0.32,0.84,0.64,1.27,0.96c-0.06-3.26-0.12-6.51-0.18-9.77c-0.33,0.33-0.67,0.67-1,1
				c1.77-0.15,3.53-0.3,5.3-0.45c0.54-0.05,1-0.43,1-1C40.89,43.83,40.43,43.29,39.89,43.34L39.89,43.34z"/>
		</g>
	</g>
	<g>
		<g>
			<path d="M40.9,60.36c-1.31,0.13-2.64,0.14-3.95-0.04c-0.59-0.08-1.32,0.24-1.27,0.96c0.26,3.44,0.27,6.88,0.06,10.32
				c-0.03,0.4,0.33,0.89,0.73,0.96c1.79,0.33,3.45-0.2,5.18-0.6c1.66-0.38,3.37-0.46,5.07-0.28c0.54,0.06,1-0.5,1-1
				c0.01-1.4,0.02-2.81,0.02-4.21c0.01-1.29-1.99-1.29-2,0c-0.01,1.4-0.02,2.81-0.02,4.21c0.33-0.33,0.67-0.67,1-1
				c-1.68-0.17-3.37-0.09-5.03,0.23c-1.52,0.29-3.12,1.01-4.69,0.72c0.24,0.32,0.49,0.64,0.73,0.96c0.22-3.44,0.2-6.88-0.06-10.32
				c-0.42,0.32-0.84,0.64-1.27,0.96c1.49,0.21,2.98,0.27,4.48,0.11c0.54-0.06,1-0.42,1-1C41.9,60.86,41.45,60.3,40.9,60.36
				L40.9,60.36z"/>
		</g>
	</g>
	<g>
		<g>
			<path d="M43.74,77.51c-1.79-0.08-3.58-0.03-5.36,0.17c-0.53,0.06-1.01,0.41-1,1c0.08,3.11,0.16,6.21,0.24,9.32
				c0.01,0.49,0.45,1.06,1,1c3.08-0.35,6.18-0.62,9.28-0.79c0.56-0.03,0.97-0.43,1-1c0.09-1.5,0-2.98-0.21-4.46
				c-0.08-0.54-0.76-0.83-1.23-0.7c-0.57,0.16-0.78,0.69-0.7,1.23c0.19,1.3,0.22,2.62,0.14,3.93c0.33-0.33,0.67-0.67,1-1
				c-3.1,0.18-6.19,0.44-9.28,0.79c0.33,0.33,0.67,0.67,1,1c-0.08-3.11-0.16-6.21-0.24-9.32c-0.33,0.33-0.67,0.67-1,1
				c1.78-0.2,3.57-0.25,5.36-0.17C45.02,79.57,45.02,77.57,43.74,77.51L43.74,77.51z"/>
		</g>
	</g>
	<g>
		<g>
			<path d="M45.01,94.88c-1.87-0.26-3.71-0.26-5.58,0.03c-0.4,0.06-0.76,0.57-0.73,0.96c0.23,3.25,0.29,6.52,0.18,9.78
				c-0.02,0.57,0.48,0.96,1,1c2.52,0.18,5.04-0.23,7.49-0.78c0.6-0.13,1.19-0.27,1.78-0.42c0.61-0.15,1.2-0.39,1.38-1.05
				c0.16-0.58,0.06-1.3,0.05-1.9c0-0.65-0.01-1.31-0.01-1.96c-0.01-1.29-2.01-1.29-2,0c0,0.52,0,1.05,0.01,1.57
				c0,0.29,0,0.59,0,0.88c0,0.2-0.08,0.61,0,0.79c-0.02,0.18,0.03,0.14,0.15-0.11c0.2-0.19,0.22-0.25,0.06-0.19
				c-0.09-0.02-0.28,0.07-0.37,0.09c-0.25,0.06-0.5,0.12-0.75,0.18c-0.53,0.12-1.07,0.25-1.6,0.36c-2.05,0.43-4.11,0.7-6.21,0.55
				c0.33,0.33,0.67,0.67,1,1c0.11-3.26,0.05-6.52-0.18-9.78c-0.24,0.32-0.49,0.64-0.73,0.96c1.48-0.23,3.03-0.24,4.52-0.03
				c0.53,0.08,1.07-0.13,1.23-0.7C45.83,95.64,45.55,94.96,45.01,94.88L45.01,94.88z"/>
		</g>
	</g>
	<g>
		<g>
			<path d="M42.71,99.87c0.5,0.65,0.99,1.3,1.49,1.96c0.22,0.29,0.48,0.5,0.86,0.5c0.34,0,0.7-0.19,0.86-0.5
				c1.33-2.55,2.66-5.1,3.99-7.65c0.25-0.48,0.12-1.09-0.36-1.37c-0.45-0.26-1.12-0.12-1.37,0.36c-1.33,2.55-2.66,5.1-3.99,7.65
				c0.58,0,1.15,0,1.73,0c-0.5-0.65-0.99-1.3-1.49-1.96c-0.33-0.43-0.86-0.65-1.37-0.36C42.64,98.75,42.38,99.44,42.71,99.87
				L42.71,99.87z"/>
		</g>
	</g>
	<g>
		<g>
			<path d="M41.39,83.55c0.63,0.29,1.12,0.69,1.48,1.22c0.39,0.59,1.37,0.71,1.73,0c1.35-2.66,2.9-5.22,4.64-7.64
				c0.31-0.44,0.08-1.11-0.36-1.37c-0.5-0.29-1.05-0.08-1.37,0.36c-1.74,2.43-3.29,4.98-4.64,7.64c0.58,0,1.15,0,1.73,0
				c-0.54-0.83-1.29-1.52-2.19-1.94c-0.49-0.23-1.08-0.14-1.37,0.36C40.78,82.61,40.9,83.32,41.39,83.55L41.39,83.55z"/>
		</g>
	</g>
	<g>
		<g>
			<path d="M39.59,66.6c0.67,0.63,1.34,1.27,2.01,1.9c0.43,0.4,1.29,0.41,1.57-0.2c1.16-2.54,2.55-4.96,4.13-7.26
				c0.31-0.45,0.08-1.11-0.36-1.37c-0.5-0.29-1.06-0.09-1.37,0.36c-1.58,2.3-2.96,4.73-4.13,7.26c0.52-0.07,1.05-0.13,1.57-0.2
				c-0.67-0.63-1.34-1.27-2.01-1.9c-0.39-0.37-1.02-0.39-1.41,0C39.22,65.56,39.2,66.23,39.59,66.6L39.59,66.6z"/>
		</g>
	</g>
	<g>
		<g>
			<path d="M38.39,49.1c1.29,0,1.29-2,0-2C37.11,47.1,37.1,49.1,38.39,49.1L38.39,49.1z"/>
		</g>
	</g>
	<g>
		<g>
			<path d="M38.37,49.27c0.33,0.62,0.77,1.19,1.3,1.66c0.47,0.41,1.24,0.39,1.57-0.2c1.43-2.61,2.9-5.2,4.4-7.77
				c0.65-1.11-1.08-2.12-1.73-1.01c-1.5,2.57-2.97,5.16-4.4,7.77c0.52-0.07,1.05-0.13,1.57-0.2c-0.43-0.38-0.72-0.75-0.99-1.25
				c-0.25-0.48-0.92-0.62-1.37-0.36C38.25,48.18,38.12,48.79,38.37,49.27L38.37,49.27z"/>
		</g>
	</g>
	<g>
		<g>
			<path d="M52.75,45.54c11.73-1.33,23.5-1.98,35.14-3.99c1.27-0.22,0.73-2.15-0.53-1.93c-11.47,1.98-23.06,2.61-34.61,3.92
				C51.49,43.68,51.47,45.68,52.75,45.54L52.75,45.54z"/>
		</g>
	</g>
	<g>
		<g>
			<path d="M52.42,51.83c11.38-0.78,22.82-1.2,34.13-2.77c1.27-0.18,0.73-2.1-0.53-1.93c-11.13,1.55-22.4,1.93-33.6,2.7
				C51.14,49.92,51.13,51.92,52.42,51.83L52.42,51.83z"/>
		</g>
	</g>
	<g>
		<g>
			<path d="M53.52,62.55c5.33-0.86,10.71-1.44,16.1-1.73c1.28-0.07,1.29-2.07,0-2c-5.57,0.31-11.12,0.91-16.63,1.81
				C51.72,60.83,52.25,62.76,53.52,62.55L53.52,62.55z"/>
		</g>
	</g>
	<g>
		<g>
			<path d="M54.77,69.06c4.15-0.13,8.29-0.28,12.44-0.4c1.28-0.04,1.29-2.04,0-2c-4.15,0.13-8.29,0.28-12.44,0.4
				C53.48,67.1,53.48,69.1,54.77,69.06L54.77,69.06z"/>
		</g>
	</g>
	<g>
		<g>
			<path d="M54.59,79.5c4.11-0.44,8.22-0.77,12.35-0.99c1.28-0.07,1.29-2.07,0-2c-4.12,0.22-8.24,0.55-12.35,0.99
				c-0.54,0.06-1,0.42-1,1C53.59,79,54.05,79.56,54.59,79.5L54.59,79.5z"/>
		</g>
	</g>
	<g>
		<g>
			<path d="M55.51,86.05c3.38-0.74,6.81-1.18,10.27-1.34c1.28-0.06,1.29-2.06,0-2c-3.63,0.16-7.25,0.64-10.8,1.41
				C53.72,84.39,54.25,86.32,55.51,86.05L55.51,86.05z"/>
		</g>
	</g>
	<g>
		<g>
			<path d="M57.04,96.39c4.54-0.82,9.14-1.16,13.75-1.05c1.29,0.03,1.29-1.97,0-2c-4.79-0.11-9.57,0.28-14.28,1.12
				C55.24,94.69,55.78,96.62,57.04,96.39L57.04,96.39z"/>
		</g>
	</g>
	<g>
		<g>
			<path d="M57.09,102.35c2.84-0.33,5.68-0.66,8.52-0.99c0.54-0.06,1-0.41,1-1c0-0.49-0.46-1.06-1-1c-2.84,0.33-5.68,0.66-8.52,0.99
				c-0.54,0.06-1,0.41-1,1C56.09,101.84,56.55,102.41,57.09,102.35L57.09,102.35z"/>
		</g>
	</g>
	<g>
		<g>
			<path d="M36.85,25.5c-2.71-0.37-5.15,1.46-5.83,4.07c-0.36,1.39-0.26,2.9,0.19,4.25c0.39,1.17,1.1,2.41,2.26,2.93
				c1.69,0.76,3.36-0.36,4.88-1.05c0.49-0.22,0.61-0.94,0.36-1.37c-0.3-0.5-0.88-0.58-1.37-0.36c-0.66,0.3-1.32,0.65-2.01,0.91
				c-0.48,0.18-0.85,0.23-1.26-0.09c-0.84-0.65-1.18-1.98-1.26-2.98c-0.09-1.14,0.12-2.36,0.9-3.24c0.63-0.71,1.62-1.29,2.6-1.16
				c0.53,0.07,1.07-0.13,1.23-0.7C37.67,26.26,37.39,25.57,36.85,25.5L36.85,25.5z"/>
		</g>
	</g>
	<g>
		<g>
			<path d="M38.86,26.15c0.24,2.89,0.49,5.79,0.73,8.68c0.05,0.54,0.43,1,1,1c0.51,0,1.05-0.46,1-1c-0.24-2.89-0.49-5.79-0.73-8.68
				c-0.05-0.54-0.43-1-1-1C39.35,25.15,38.81,25.61,38.86,26.15L38.86,26.15z"/>
		</g>
	</g>
	<g>
		<g>
			<path d="M43.3,25.62c0.27,3.13,0.53,6.26,0.8,9.39c0.05,0.54,0.43,1,1,1c0.51,0,1.05-0.46,1-1c-0.27-3.13-0.53-6.26-0.8-9.39
				c-0.05-0.54-0.43-1-1-1C43.79,24.62,43.25,25.08,43.3,25.62L43.3,25.62z"/>
		</g>
	</g>
	<g>
		<g>
			<path d="M41.54,31.81c1.11-0.27,2.23-0.54,3.34-0.81c0.51-0.12,0.86-0.73,0.7-1.23c-0.17-0.53-0.69-0.83-1.23-0.7
				c-1.11,0.27-2.23,0.54-3.34,0.81c-0.51,0.12-0.86,0.73-0.7,1.23C40.48,31.64,40.99,31.95,41.54,31.81L41.54,31.81z"/>
		</g>
	</g>
	<g>
		<g>
			<path d="M50.49,24.53c-0.78-0.03-1.56,0-2.34,0.1c-0.52,0.07-1.02,0.4-1,1c0.08,2.85,0.17,5.7,0.25,8.55
				c0.02,0.69,0.62,1.08,1.27,0.96c0.65-0.12,1.3-0.24,1.95-0.36c0.31-0.06,0.62-0.11,0.93-0.17c0.16-0.03,0.35-0.04,0.51-0.09
				c0.14-0.05,0.16,0.09-0.05-0.03c1.11,0.65,2.12-1.08,1.01-1.73c-0.76-0.44-1.63-0.15-2.43,0c-0.82,0.15-1.64,0.3-2.46,0.45
				c0.42,0.32,0.84,0.64,1.27,0.96c-0.08-2.85-0.17-5.7-0.25-8.55c-0.33,0.33-0.67,0.67-1,1c0.78-0.1,1.56-0.13,2.34-0.1
				c0.54,0.02,1-0.48,1-1C51.49,24.97,51.03,24.55,50.49,24.53L50.49,24.53z"/>
		</g>
	</g>
	<g>
		<g>
			<path d="M49.49,30.74c0.51-0.12,1.02-0.24,1.54-0.36c0.24-0.06,0.48-0.25,0.6-0.46c0.13-0.21,0.18-0.53,0.1-0.77
				c-0.08-0.24-0.23-0.48-0.46-0.6c-0.24-0.13-0.5-0.16-0.77-0.1c-0.51,0.12-1.02,0.24-1.54,0.36c-0.24,0.06-0.48,0.25-0.6,0.46
				c-0.13,0.21-0.18,0.53-0.1,0.77c0.08,0.24,0.23,0.48,0.46,0.6C48.96,30.77,49.22,30.8,49.49,30.74L49.49,30.74z"/>
		</g>
	</g>
	<g>
		<g>
			<path d="M57.63,23.97c-1.37-0.06-2.74,0.55-3.59,1.63c-0.92,1.16-1.17,2.69-1.14,4.13c0.03,1.39,0.44,2.84,1.57,3.75
				c1.34,1.07,2.92,0.79,4.41,0.22c0.5-0.19,0.85-0.67,0.7-1.23c-0.13-0.48-0.72-0.89-1.23-0.7c-0.8,0.31-1.87,0.74-2.55,0.22
				c-0.72-0.54-0.89-1.52-0.89-2.4c0-0.9,0.1-1.96,0.63-2.67c0.51-0.68,1.31-0.98,2.1-0.94c0.54,0.02,1-0.48,1-1
				C58.63,24.41,58.17,23.99,57.63,23.97L57.63,23.97z"/>
		</g>
	</g>
	<g>
		<g>
			<path d="M59.89,24.62c0.09,2.54,0.25,5.07,0.48,7.59c0.05,0.54,0.42,1,1,1c0.5,0,1.05-0.46,1-1c-0.23-2.53-0.39-5.06-0.48-7.59
				c-0.02-0.54-0.45-1-1-1C60.37,23.62,59.88,24.08,59.89,24.62L59.89,24.62z"/>
		</g>
	</g>
	<g>
		<g>
			<path d="M63.72,23.85c-0.88,1.52-1.87,2.97-2.99,4.32c-0.31,0.38-0.45,1.05,0,1.41c1.25,1,2.49,2,3.74,3c0.42,0.34,1,0.41,1.41,0
				c0.35-0.35,0.42-1.07,0-1.41c-1.25-1-2.49-2-3.74-3c0,0.47,0,0.94,0,1.41c1.23-1.48,2.34-3.06,3.3-4.73
				C66.1,23.74,64.37,22.73,63.72,23.85L63.72,23.85z"/>
		</g>
	</g>
	<g>
		<g>
			<path d="M66.24,24.62c0.29,2,0.39,4.03,0.32,6.05c-0.02,0.57-0.06,1.13,0.31,1.6c0.32,0.41,0.83,0.6,1.34,0.58
				c0.47-0.02,0.91-0.19,1.37-0.25c0.4-0.06,0.84-0.06,1.23,0c0.53,0.08,1.08-0.14,1.23-0.7c0.13-0.47-0.16-1.15-0.7-1.23
				c-0.98-0.15-1.91-0.12-2.88,0.12c-0.08,0.02-0.16,0.04-0.24,0.05c0.12-0.02,0.02-0.02-0.03,0c-0.13,0.06-0.05-0.03,0.08,0.06
				c0.01,0.01,0.25,0.32,0.25,0.32c0.04-0.02,0.02-0.65,0.03-0.7c0.01-0.24,0.01-0.48,0.01-0.72c0.02-1.92-0.13-3.82-0.41-5.72
				c-0.08-0.53-0.76-0.83-1.23-0.7C66.37,23.54,66.16,24.08,66.24,24.62L66.24,24.62z"/>
		</g>
	</g>
	<g>
		<g>
			<path d="M72.11,23.72c0.18,2.59,0.36,5.18,0.54,7.76c0.04,0.54,0.43,1,1,1c0.51,0,1.04-0.46,1-1c-0.18-2.59-0.36-5.18-0.54-7.76
				c-0.04-0.54-0.43-1-1-1C72.6,22.72,72.07,23.18,72.11,23.72L72.11,23.72z"/>
		</g>
	</g>
	<g>
		<g>
			<path d="M78.98,22.34c-0.72-0.41-1.58-0.35-2.28,0.09c-0.68,0.44-1.08,1.19-1.22,1.98c-0.14,0.74-0.21,1.59,0.02,2.32
				c0.26,0.82,0.92,1.38,1.74,1.61c0.69,0.19,1.46,0.04,2.12,0.3c0.16,0.06,0.23,0.17,0.32,0.36c-0.03-0.07,0.07,0.23,0.07,0.28
				c-0.03-0.19-0.02,0.32,0,0.13c-0.06,0.46-0.41,0.82-0.76,0.97c-0.6,0.27-1.26,0.13-1.84-0.1c-0.5-0.2-1.1,0.22-1.23,0.7
				c-0.16,0.57,0.19,1.03,0.7,1.23c1.44,0.57,3.22,0.38,4.3-0.81c1.01-1.11,1.12-2.83,0.09-3.97c-0.58-0.64-1.39-0.83-2.21-0.9
				c-0.25-0.02-0.62-0.03-0.79-0.06c-0.19-0.03-0.47-0.11-0.53-0.17c-0.29-0.32-0.14-1.18-0.03-1.6c0.05-0.2,0.17-0.46,0.25-0.53
				c0.08-0.07,0.13-0.1,0.28-0.12c-0.18,0.02,0.03,0.06-0.03,0.03C79.1,24.7,80.11,22.97,78.98,22.34L78.98,22.34z"/>
		</g>
	</g>
	<g>
		<g>
			<path d="M82.55,23.63c0.18,2.41,0.35,4.82,0.53,7.23c0.04,0.54,0.43,1,1,1c0.51,0,1.04-0.46,1-1c-0.18-2.41-0.35-4.82-0.53-7.23
				c-0.04-0.54-0.43-1-1-1C83.04,22.63,82.51,23.09,82.55,23.63L82.55,23.63z"/>
		</g>
	</g>
	<g>
		<g>
			<path d="M81.21,23.98c1.41-0.28,2.83-0.56,4.24-0.84c0.51-0.1,0.86-0.74,0.7-1.23c-0.18-0.55-0.68-0.81-1.23-0.7
				c-1.41,0.28-2.83,0.56-4.24,0.84c-0.51,0.1-0.86,0.74-0.7,1.23C80.16,23.83,80.66,24.09,81.21,23.98L81.21,23.98z"/>
		</g>
	</g>
	<g>
		<g>
			<path d="M90.52,21c-1.15,0.06-2.29,0.23-3.4,0.51c-0.4,0.1-0.76,0.54-0.73,0.96c0.14,2.34,0.29,4.68,0.43,7.02
				c0.03,0.53-0.04,1.23,0.24,1.7c0.36,0.61,1.03,0.6,1.63,0.48c1.18-0.24,2.35-0.49,3.52-0.74c0.53-0.11,0.84-0.73,0.7-1.23
				c-0.15-0.55-0.7-0.81-1.23-0.7c-0.64,0.13-1.29,0.27-1.93,0.4c-0.31,0.06-0.62,0.13-0.92,0.19c-0.17,0.04-0.34,0.07-0.5,0.11
				c-0.06,0.01-0.11,0.02-0.17,0.04c-0.25,0.04-0.22,0.05,0.1,0.03c0.15,0.09,0.29,0.17,0.44,0.26c-0.02-0.02-0.04-0.04-0.07-0.05
				c0.09,0.15,0.17,0.29,0.26,0.44c-0.01,0.15-0.01,0.13-0.02-0.07c0-0.06-0.01-0.11-0.01-0.17c-0.01-0.17-0.02-0.34-0.03-0.51
				c-0.02-0.34-0.04-0.69-0.06-1.03c-0.04-0.69-0.08-1.37-0.13-2.06c-0.08-1.37-0.17-2.74-0.25-4.11c-0.24,0.32-0.49,0.64-0.73,0.96
				c0.95-0.23,1.9-0.38,2.87-0.44c0.54-0.03,1-0.44,1-1C91.52,21.48,91.06,20.97,90.52,21L90.52,21z"/>
		</g>
	</g>
	<g>
		<g>
			<path d="M88.61,27.12c0.61-0.23,1.24-0.39,1.89-0.48c-0.09,0.01-0.18,0.02-0.27,0.04c0.24-0.03,0.49-0.05,0.73-0.07
				c0.26-0.01,0.52-0.1,0.71-0.29c0.17-0.17,0.3-0.46,0.29-0.71c-0.02-0.52-0.44-1.03-1-1c-0.98,0.05-1.96,0.23-2.89,0.58
				c-0.25,0.09-0.46,0.22-0.6,0.46c-0.13,0.21-0.18,0.53-0.1,0.77c0.08,0.24,0.23,0.48,0.46,0.6
				C88.07,27.14,88.36,27.21,88.61,27.12L88.61,27.12z"/>
		</g>
	</g>
	<g>
		<g>
			<path d="M59.41,115.54c6.89,0,13.78,0.05,20.66-0.15c1.28-0.04,1.29-2.04,0-2c-6.88,0.2-13.77,0.15-20.66,0.15
				C58.12,113.54,58.12,115.54,59.41,115.54L59.41,115.54z"/>
		</g>
	</g>
</g>
<g id="Ebene_5">
	<g>
		<g>
			<path d="M108.18,56.74c-2.9-1.59-6.36-2.18-9.62-2.44c-4.3-0.35-8.77,0.05-12.86,1.45c-4.24,1.46-8.03,4.07-10.49,7.87
				c-2.92,4.52-4.08,10.59-3.15,15.87c1.32,7.5,7.42,12.66,14.09,15.56c9.25,4.02,20.49,1.82,26.84-6.24
				c3.05-3.87,4.63-8.72,4.49-13.65c-0.19-6.25-2.96-12.09-6.72-16.97c-1.2-1.56-2.51-3.03-3.89-4.43c-0.9-0.92-2.32,0.49-1.41,1.41
				c4.48,4.57,8.31,10.05,9.61,16.42c0.95,4.65,0.3,9.56-2.09,13.69c-4.61,7.99-14.44,11.48-23.18,8.97
				c-6.21-1.78-12.71-6.14-15.02-12.39c-1.72-4.66-1.14-10.03,0.74-14.55c1.66-3.98,4.8-7,8.67-8.82c4-1.87,8.56-2.46,12.93-2.29
				c3.35,0.13,7.06,0.62,10.04,2.25C108.3,59.08,109.31,57.36,108.18,56.74L108.18,56.74z"/>
		</g>
	</g>
	<g>
		<g>
			<path d="M82.52,94.55c-6.05,8.05-14.73,13.94-24.41,16.66c-1.24,0.35-0.71,2.28,0.53,1.93c10.22-2.88,19.23-9.1,25.61-17.58
				C85.02,94.53,83.29,93.53,82.52,94.55L82.52,94.55z"/>
		</g>
	</g>
	<g>
		<g>
			<path d="M58.82,111.12c-1.1-0.68-2.3-1.22-3.54-1.59c-1.12-0.33-2.37-0.62-3.55-0.49c-1.27,0.14-2.3,0.81-2.85,1.99
				c-0.55,1.17-0.82,2.56-0.66,3.84c0.28,2.28,2,4.07,4.11,4.84c2.11,0.77,4.62,0.29,6.31-1.18c1.89-1.65,2.4-4.78,0.87-6.84
				c-0.32-0.43-0.87-0.65-1.37-0.36c-0.43,0.25-0.68,0.93-0.36,1.37c0.88,1.19,0.83,2.9-0.16,4.03c-1.01,1.15-2.71,1.58-4.17,1.23
				c-1.42-0.34-2.74-1.38-3.15-2.82c-0.24-0.87-0.09-1.8,0.17-2.65c0.21-0.71,0.55-1.31,1.33-1.44c0.96-0.16,2.04,0.15,2.95,0.42
				c1.08,0.32,2.1,0.79,3.06,1.39C58.91,113.52,59.91,111.79,58.82,111.12L58.82,111.12z"/>
		</g>
	</g>
	<g>
		<g>
			<path d="M107.68,114.02c-0.64-6.7-0.99-13.42-1.63-20.13c-0.12-1.27-2.12-1.28-2,0c0.64,6.7,1,13.43,1.63,20.13
				C105.8,115.29,107.8,115.3,107.68,114.02L107.68,114.02z"/>
		</g>
	</g>
	<g>
		<g>
			<path d="M82.85,93.41c-1.23,7.47-2.31,14.95-3.49,22.43c-0.28,1.77-0.58,3.54-0.85,5.31c-0.24,1.56-0.2,3.05,0.93,4.26
				c2.01,2.14,5.7,2.27,8.4,2.81c3.29,0.66,6.56,1.02,9.92,1.07c1.29,0.02,1.29-1.98,0-2c-3.44-0.05-6.72-0.46-10.08-1.14
				c-1.83-0.37-3.89-0.53-5.6-1.32c-0.71-0.33-1.42-0.81-1.65-1.6c-0.32-1.11,0.17-2.54,0.35-3.65c1.38-8.54,2.6-17.1,4-25.64
				C84.99,92.68,83.06,92.14,82.85,93.41L82.85,93.41z"/>
		</g>
	</g>
	<g>
		<g>
			<path d="M79.38,125.4c-3.12,2.91-5.82,6.29-7.92,10.01c-2.34,4.14-3.7,8.64-5.2,13.12c-0.78,2.34-1.64,4.65-2.57,6.94
				c-0.24,0.58-0.48,1.16-0.73,1.74c-0.18,0.41-0.39,1.29-0.8,1.53c-0.67,0.39-2.52-0.85-3.19-1.24c-1.84-1.05-3.82-2.44-4.95-4.27
				c-1.09-1.76-1.05-4.57,1.43-4.97c5.11-0.82,6.66,5.96,6.85,9.65c0.07,1.28,2.07,1.29,2,0c-0.22-4.35-1.55-9.79-6.19-11.35
				c-1.89-0.63-4.2-0.44-5.61,1.08c-1.64,1.76-1.44,4.47-0.3,6.42c1.25,2.15,3.47,3.81,5.58,5.05c1.68,0.98,4.8,2.96,6.21,0.64
				c0.69-1.14,1.13-2.53,1.63-3.76c0.6-1.47,1.17-2.96,1.71-4.46c1.07-2.99,1.95-6.04,3.05-9.03c2.2-6,5.74-11.35,10.41-15.7
				C81.74,125.93,80.33,124.52,79.38,125.4L79.38,125.4z"/>
		</g>
	</g>
	<g>
		<g>
			<path d="M102.64,129.63c-0.13,4.02-0.19,8.17,0.91,12.08c1.08,3.82,3.37,6.82,6.63,9.05c1.65,1.12,3.42,2.04,5.17,3
				c0.85,0.47,1.69,0.94,2.51,1.46c1.08,0.68,2.31,1.36,1.2,2.65c-1.45,1.7-3.29,3.24-5.06,4.6c-0.9,0.69-1.93,1.32-2.86,0.32
				c-0.74-0.8-0.91-2.05-0.75-3.1c0.32-2.08,1.7-3.15,3.63-3.57c1.63-0.35,3.59-0.5,5.18,0.1c1.2,0.46,1.73-1.48,0.53-1.93
				c-1.69-0.64-3.72-0.52-5.47-0.24c-1.83,0.29-3.51,0.87-4.64,2.42c-1.3,1.78-1.7,4.28-0.8,6.33c0.87,1.98,2.91,3.17,4.98,2.17
				c1.05-0.51,1.97-1.36,2.85-2.1c1.12-0.95,2.21-1.94,3.24-2.99c1.63-1.65,2.52-3.7,0.41-5.4c-3.83-3.09-8.93-4.32-12.19-8.17
				c-3.85-4.53-3.65-11.1-3.47-16.69C104.68,128.34,102.68,128.34,102.64,129.63L102.64,129.63z"/>
		</g>
	</g>
	<g>
		<g>
			<path d="M105.28,96.34c2.96,2.4,6.13,4.53,9.18,6.82c0.43,0.32,1.12,0.07,1.37-0.36c0.3-0.51,0.07-1.04-0.36-1.37
				c-2.91-2.19-5.97-4.23-8.77-6.51c-0.42-0.34-1-0.41-1.41,0C104.93,95.28,104.86,96,105.28,96.34L105.28,96.34z"/>
		</g>
	</g>
	<g>
		<g>
			<path d="M122.53,107.86c0.75,0.72,1.52,1.45,2,2.38c0.41,0.79,0.45,1.67,0.2,2.5c-0.51,1.71-2.36,2.62-4.02,2.2
				c-1.25-0.32-1.78,1.61-0.53,1.93c2.68,0.69,5.45-0.75,6.4-3.35c0.43-1.19,0.41-2.56-0.06-3.73c-0.54-1.33-1.54-2.36-2.57-3.35
				C123.01,105.56,121.6,106.97,122.53,107.86L122.53,107.86z"/>
		</g>
	</g>
	<g>
		<g>
			<path d="M107.91,127.34c5.13-6.78,10.29-13.53,15.27-20.41c5.67-7.85,11.49-15.83,15.91-24.48c1.17-2.3,2.75-5.14,2.64-7.82
				c-0.1-2.51-2.47-3.25-4.53-2.28c-1.44,0.67-2.66,1.83-3.75,2.95c-1.68,1.73-3.18,3.64-4.64,5.56
				c-4.06,5.35-7.75,10.98-11.48,16.56c-4.59,6.88-9.18,13.76-13.98,20.5c-1.69,2.36-3.45,4.47-4.47,7.2
				c-0.92,2.47-1.68,4.99-2.5,7.49c-0.27,0.81-0.54,1.72-0.87,2.46c-0.35,0.79,0.47,2.05,1.37,1.37c3.1-2.33,6.24-4.66,9.17-7.2
				c0.65-0.56,1.27-1.13,1.79-1.82c0.77-1.03-0.97-2.03-1.73-1.01c-0.1,0.14-0.1,0.11,0.04-0.04c-0.08,0.09-0.16,0.19-0.24,0.28
				c-0.41,0.41-0.83,0.8-1.27,1.18c-2.81,2.43-5.8,4.65-8.76,6.88c0.46,0.46,0.91,0.91,1.37,1.37c0.84-1.89,1.39-3.91,2.02-5.87
				c0.68-2.1,1.24-4.42,2.31-6.37c0.73-1.34,1.81-2.54,2.7-3.78c1.21-1.68,2.4-3.37,3.58-5.07c2.31-3.31,4.57-6.65,6.82-10.01
				c3.99-5.94,7.89-11.93,12-17.79c2.76-3.95,5.57-8.11,9.13-11.4c0.88-0.81,1.92-1.72,3.1-1.92c0.21-0.04,0.4,0.04,0.67,0.16
				c-0.07-0.03,0.03,0.07,0.02,0.04c0.11,0.3,0.03-0.06,0.11,0.29c0.05,0.21,0.03,0,0.04,0.35c0,0.21-0.01,0.42-0.03,0.62
				c-0.03,0.25-0.21,0.99-0.33,1.41c-0.42,1.38-1.02,2.7-1.65,3.98c-4.03,8.17-9.48,15.71-14.77,23.1
				c-5.05,7.06-10.29,13.98-15.55,20.89c-0.4,0.53-0.81,1.06-1.21,1.6C105.4,127.36,107.14,128.36,107.91,127.34L107.91,127.34z"/>
		</g>
	</g>
	<g>
		<g>
			<path d="M101.15,124.08c0.26,0.05,0.52,0.11,0.77,0.19c0.11,0.04,0.23,0.07,0.34,0.12c0.05,0.02,0.15,0.08,0.2,0.08
				c-0.1,0-0.15-0.06-0.01,0c0.23,0.11,0.45,0.22,0.67,0.35c0.11,0.07,0.23,0.14,0.33,0.21c0.05,0.03,0.1,0.07,0.15,0.1
				c0.04,0.03,0.24,0.15,0.03,0.02c0.21,0.12,0.4,0.33,0.57,0.5c0.18,0.18,0.35,0.37,0.51,0.56c0.16,0.19-0.12-0.17,0.02,0.03
				c0.03,0.05,0.07,0.1,0.1,0.15c0.08,0.11,0.15,0.22,0.22,0.33c0.14,0.23,0.26,0.46,0.37,0.7c0.22,0.48,0.95,0.63,1.37,0.36
				c0.49-0.32,0.59-0.86,0.36-1.37c-0.98-2.18-3.12-3.84-5.47-4.27c-0.51-0.09-1.1,0.14-1.23,0.7
				C100.34,123.34,100.6,123.98,101.15,124.08L101.15,124.08z"/>
		</g>
	</g>
	<g>
		<g>
			<path d="M105.81,123.92c6.61-9.64,13.66-18.95,20.46-28.46c2.37-3.32,4.7-6.67,7.01-10.03c0.73-1.06-1-2.07-1.73-1.01
				c-6.65,9.71-13.75,19.09-20.59,28.66c-2.33,3.25-4.61,6.54-6.87,9.84C103.36,123.97,105.09,124.98,105.81,123.92L105.81,123.92z"
				/>
		</g>
	</g>
	<g>
		<g>
			<path d="M128.71,84.37c0.53,0.13,1.05,0.29,1.56,0.49c0.07,0.03,0.14,0.06,0.2,0.08c0.15,0.06-0.21-0.09,0.05,0.02
				c0.14,0.06,0.27,0.12,0.41,0.19c0.27,0.13,0.54,0.27,0.81,0.42c0.26,0.15,0.52,0.31,0.77,0.47c0.12,0.08,0.25,0.17,0.37,0.25
				c0.05,0.03,0.09,0.07,0.14,0.11c-0.15-0.12,0.01,0.01,0.04,0.03c0.22,0.18,0.42,0.36,0.62,0.56c0.09,0.1,0.18,0.2,0.27,0.3
				c0.07,0.08,0.09,0.12,0.01,0.01c0.04,0.06,0.09,0.12,0.13,0.18c0.3,0.43,0.89,0.67,1.37,0.36c0.43-0.28,0.68-0.91,0.36-1.37
				c-0.76-1.1-1.84-1.93-2.99-2.59c-1.11-0.64-2.34-1.15-3.59-1.45c-0.51-0.12-1.11,0.16-1.23,0.7
				C127.89,83.65,128.16,84.24,128.71,84.37L128.71,84.37z"/>
		</g>
	</g>
	<g>
		<g>
			<path d="M130.7,81.99c0.31,0.1,0.61,0.21,0.91,0.33c0.02,0.01,0.22,0.09,0.09,0.04c0.06,0.03,0.12,0.05,0.19,0.08
				c0.14,0.06,0.28,0.13,0.42,0.2c0.58,0.29,1.14,0.62,1.67,0.99c0.13,0.09,0.25,0.18,0.37,0.27c-0.08-0.07,0.01,0.01,0.04,0.03
				c0.06,0.06,0.13,0.11,0.19,0.17c0.11,0.1,0.22,0.21,0.31,0.33c-0.11-0.14,0,0,0.02,0.04c0.04,0.05,0.07,0.11,0.11,0.16
				c0.44,0.63,0.91,1.08,1.71,1.15c0.52,0.05,1.02-0.5,1-1c-0.03-0.58-0.44-0.95-1-1c0.06,0.01,0.26,0.09,0.2,0.05
				c-0.1-0.07,0.11,0.13,0.03,0.03c-0.04-0.05-0.09-0.09-0.13-0.13c-0.08-0.08-0.03-0.05,0.01,0.02c-0.17-0.25-0.34-0.5-0.53-0.73
				c-0.43-0.52-1.01-0.92-1.57-1.29c-1.08-0.72-2.27-1.27-3.5-1.67c-0.5-0.16-1.11,0.19-1.23,0.7
				C129.88,81.31,130.17,81.82,130.7,81.99L130.7,81.99z"/>
		</g>
	</g>
</g>
<g id="Ebene_6">
	<g>
		<g>
			<path d="M82.49,83.2c1.45,3.45,4.57,6.06,8.33,6.58c3.85,0.54,7.66-1.18,9.99-4.25c0.78-1.02-0.96-2.02-1.73-1.01
				c-1.81,2.39-4.99,3.71-7.97,3.29c-2.9-0.41-5.56-2.45-6.69-5.15c-0.21-0.5-0.66-0.85-1.23-0.7C82.71,82.09,82.28,82.7,82.49,83.2
				L82.49,83.2z"/>
		</g>
	</g>
	
		<ellipse transform="matrix(0.0858 -0.9963 0.9963 0.0858 7.7975 151.1956)" class="st5" cx="86.28" cy="71.35" rx="2.62" ry="1.1"/>
	
		<ellipse transform="matrix(0.0858 -0.9963 0.9963 0.0858 15.5499 162.5835)" class="st5" cx="96.37" cy="72.82" rx="2.62" ry="1.1"/>
	
		<ellipse transform="matrix(0.0858 -0.9963 0.9963 0.0858 16.7441 162.4142)" class="st6" cx="96.87" cy="72.08" rx="0.78" ry="0.44"/>
	
		<ellipse transform="matrix(0.0858 -0.9963 0.9963 0.0858 9.277 151.0375)" class="st6" cx="86.94" cy="70.46" rx="0.78" ry="0.44"/>
	<g>
		<path class="st2" d="M114.98,112.7c-2.01-0.18-4.11,1.12-4.64,3.07s0.8,4.25,2.78,4.58c1.81,0.3,3.5-0.89,4.95-2.02
			c0.61-0.47,1.23-0.96,1.68-1.58c1.26-1.73,0.97-4.22-0.18-6.03c-0.54-0.85-1.34-1.63-2.33-1.73c-0.77-0.08-1.58,0.31-2,0.96
			s-0.44,1.54-0.05,2.22"/>
		<g>
			<path d="M114.98,111.7c-2.56-0.18-5.29,1.61-5.69,4.23c-0.4,2.56,1.4,5.17,4.02,5.44c1.51,0.15,2.97-0.55,4.18-1.37
				c1.21-0.82,2.56-1.76,3.32-3.03c1.44-2.37,0.74-5.63-1.03-7.63c-1.09-1.22-2.83-1.78-4.32-0.92c-1.51,0.87-1.92,2.76-1.13,4.26
				c0.6,1.14,2.32,0.13,1.73-1.01c-0.35-0.68,0.01-1.54,0.79-1.67c0.78-0.13,1.43,0.57,1.82,1.16c0.96,1.46,1.36,3.6,0.22,5.09
				c-0.6,0.79-1.53,1.41-2.34,1.97c-0.79,0.55-1.7,1.12-2.69,1.17c-1.51,0.08-2.65-1.3-2.64-2.76c0.01-1.91,2.04-3.06,3.76-2.94
				C116.26,113.79,116.26,111.79,114.98,111.7L114.98,111.7z"/>
		</g>
	</g>
</g>
</svg>
