<?xml version="1.0" encoding="utf-8"?>
<!-- Generator: Adobe Adobe Illustrator 24.2.0, SVG Export Plug-In . SVG Version: 6.00 Build 0)  -->
<svg version="1.1" xmlns="http://www.w3.org/2000/svg" xmlns:xlink="http://www.w3.org/1999/xlink" x="0px" y="0px"
	 viewBox="0 0 1080 1080" style="enable-background:new 0 0 1080 1080;" xml:space="preserve">
<style type="text/css">
	.st0{fill:#EDA9BD;}
	.st1{fill:#FFFFFF;}
	.st2{opacity:0.2392;}
	.st3{fill:none;stroke:#000000;stroke-width:7.028;stroke-linecap:round;stroke-linejoin:round;stroke-miterlimit:10;}
	.st4{stroke:#000000;stroke-width:7.028;stroke-linecap:round;stroke-linejoin:round;stroke-miterlimit:10;}
	.st5{opacity:0.0784;}
	.st6{opacity:0.149;}
	.st7{fill:#D15238;}
	.st8{fill:#D15239;}
</style>
<g id="Ebene_6">
	<ellipse class="st0" cx="399.85" cy="457.4" rx="20.46" ry="21.22"/>
	<ellipse class="st0" cx="399.85" cy="457.4" rx="20.46" ry="21.22"/>
	<ellipse class="st0" cx="262.83" cy="457.88" rx="20.46" ry="21.22"/>
</g>
<g id="Ebene_15">
	<path class="st1" d="M327.02,323.87c-10.22-3.8-21.26-5.02-32.08-4.05c-32.22,2.87-61.29,25.56-76.06,55.41
		c-14.77,29.85-16.02,65.8-6.85,97.98c4.92,17.25,12.92,33.92,25.43,46.39c8.96,8.93,19.88,15.4,30.67,21.78
		c10.76,6.35,21.68,12.78,33.7,15.87c14.86,3.83,30.5,2.33,45.58-0.44c20.49-3.76,41.02-10.05,57.94-22.61
		c24.24-17.99,39.08-48.32,40.47-79.21s-10.2-61.86-30.06-84.92C395.91,347,366.44,338.54,327.02,323.87z"/>
	<path class="st1" d="M276.48,548.33c-7.56,14.28-11.95,30.09-16.28,45.75c-16.12,58.34-32.31,117.01-38.73,177.34
		c-1.09,10.28-1.76,21.31,3.11,30.33c4.42,8.18,12.84,13.37,21.58,15.74c8.74,2.37,17.91,2.27,26.94,2.15
		c27.58-0.36,55.16-0.72,82.74-1.08c19.73-0.26,39.54-0.52,59.04-3.68c7.76-1.26,16.02-3.29,21.24-9.38
		c4.7-5.48,6.02-13.21,6.41-20.53c0.97-18.25-2.64-36.39-6.46-54.23c-13.93-65.12-30.93-129.53-50.9-192.93"/>
	<path class="st1" d="M201.73,729.69c11.66-11.13,21.78-24,29.95-38.09c-6.72-4.42-14.52-7.03-22.45-7.53
		c-6.97-0.44-14.41,0.94-19.65,5.73c-6.12,5.59-8.07,15.15-5.78,23.27C186.09,721.19,192.12,727.82,201.73,729.69z"/>
	<path class="st1" d="M235.03,1059.6c-1.6-14.29-1.21-29.03,3.11-42.7c4.32-13.67,12.83-26.23,24.85-33.41
		c12.02-7.18,27.65-8.34,39.76-1.34c11.02,6.37,18.03,18.57,21.23,31.23c3.2,12.66,3.07,25.94,2.92,39.04
		C296.64,1048.79,265.68,1051.54,235.03,1059.6z"/>
	<path class="st1" d="M322.44,1008.64c10.5-22.28,30.91-41.54,54.81-41.99c18.36-0.35,36,10.88,45.92,26.92
		c9.92,16.04,12.55,36.23,9.35,54.99c-34.59-0.68-69.18-1.35-103.77-2.03C329.19,1034.39,327.02,1022.16,322.44,1008.64z"/>
</g>
<g id="Ebene_11">
	<path class="st1" d="M434.88,696.35c7.41,14.44,15.94,28.25,25.49,41.26c7.76-4.63,12.79-13.82,12.65-23.11
		c-0.14-9.29-5.45-18.31-13.36-22.68C451.76,687.45,441.59,687.9,434.88,696.35z"/>
</g>
<g id="Ebene_12">
	<path class="st2" d="M449.35,719.01c5.95-6.75,11.9-13.51,17.86-20.26c-6.88-5.13-15.49-7.71-23.94-7.16
		c-2.22,0.14-4.58,0.57-6.18,2.16c-3.29,3.26-1.45,9.16,1.65,12.61C441.83,709.8,446.04,712.37,449.35,719.01z"/>
</g>
<g id="Ebene_2">
	<path class="st3" d="M328.16,324.73c-13.43-6.57-24.11-6.41-36.23-3.32c-34.85,8.88-64.76,36.11-78.25,70.61
		c-13.49,34.5-10.4,75.4,7.67,107.56s50.61,55.03,86.03,61.02c35.42,5.99,73.06-4.83,100.79-28.47
		c15.7-13.39,28.45-31.02,34.22-51.24c6.66-23.34,3.67-48.83-4.82-71.52C418.39,358.15,369.99,320.07,328.16,324.73z"/>
	<path class="st4" d="M314.52,422.92c0.79-6.97,0.91-14.03,0.37-21.03c-0.24-3.1-1.56-7.1-4.56-6.93c-2.56,0.14-3.77,3.3-4.27,5.9
		c-1.73,9-2.27,18.24-1.6,27.39c0.19,2.56,0.79,5.59,3.08,6.57c2.13,0.91,4.65-0.66,5.69-2.79
		C314.27,429.89,314.02,427.37,314.52,422.92z"/>
	<path class="st4" d="M343,423.97c1.18-6.53,1.51-13.22,0.98-19.84c-0.18-2.29-0.98-5.13-3.18-5.41c-2.39-0.3-3.77,2.72-4.26,5.16
		c-1.86,9.19-2.15,18.71-0.87,28.01c0.16,1.16,0.46,2.5,1.49,3c1.7,0.85,3.37-1.41,3.6-3.36S342.27,427.96,343,423.97z"/>
	<path class="st3" d="M274.35,550.28c-28.59,15.41-54.92,35.32-77.82,58.83c-5.65,5.8-11.46,12.76-11.23,21
		c0.15,5.65,3.17,10.75,6.24,15.42c11.1,16.88,24.28,32.3,39.1,45.76c-11.7,12.78-21.32,27.62-28.32,43.69
		c-14.48-3.94-22.35-23.86-14.71-37.2c7.64-13.35,28.27-15.71,38.53-4.4"/>
	<path class="st3" d="M235.16,1061.18c-2.77-14.57-2.84-29.91,1.54-44.06c4.38-14.14,13.48-26.99,26.09-34.02s28.77-7.62,41.08-0.03
		c11.22,6.91,18.2,19.63,21.33,32.77c3.13,13.14,2.86,26.86,2.57,40.39C297.67,1051.39,266.49,1053.83,235.16,1061.18z"/>
	<path class="st3" d="M232.86,1046.72c30.4-4.61,61.13-6.83,91.85-6.63"/>
	<path class="st3" d="M270.06,996.69c8.51-0.41,17.01-0.83,25.52-1.24"/>
	<path class="st3" d="M269.17,1011.38c9.3-1.68,18.79-2.26,28.22-1.74"/>
	<path class="st3" d="M324.86,1004c5.56-19.2,21.84-34.6,40.77-38.59s39.72,3.63,52.04,19.07c13.87,17.37,16.28,41.37,18.12,63.85
		c-35.52-1.02-71.07-1.25-106.6-0.68"/>
	<path class="st3" d="M328.31,1037.06c34.53-0.9,69.06-1.81,103.59-2.71"/>
	<path class="st3" d="M389.46,1004.32c8.81-6.53,17.62-13.07,26.44-19.6"/>
	<path class="st3" d="M400.97,1016.93c6.91-6.74,14.35-12.89,22.22-18.38"/>
	<path class="st3" d="M385.85,821c-0.21,47.55-0.42,95.11-0.64,142.66"/>
	<path class="st3" d="M288.85,823.2c-2.68,50.12-1.92,100.44,2.29,150.46"/>
	<path class="st3" d="M277.01,552.64c-24.61,73.4-49.43,147.72-55.99,225.13c-0.9,10.57-1.11,22.3,5.41,30.47
		c7.44,9.31,20.6,10.37,32.26,10.71c52.58,1.52,105.32,3.03,157.68-2.25c9.81-0.99,20.75-2.88,26.58-11.12
		c5.75-8.12,4.35-19.31,2.59-29.21c-13.73-77.24-33.85-153.26-55.84-227.41c30.47,29.13,60.15,59.14,89.01,89.98
		c3.66,3.91,7.61,8.85,6.43,14.16c-0.87,3.92-4.27,6.58-7.44,8.89c-15.22,11.11-30.43,22.22-45.65,33.32
		c8.44,14.51,16.87,29.02,25.31,43.52c12.9-5.48,19.23-23.37,12.82-36.21c-6.41-12.84-24.15-17.79-35.91-10.02"/>
</g>
<g id="Ebene_9">
	<path d="M467.16,571.99c2.03-1.24,4.05-2.48,6.08-3.73"/>
</g>
<g id="Ebene_10">
</g>
<g id="Ebene_7">
	<g>
		<g>
			<path d="M300.13,497.66c18.47-7.26,36.94-14.51,55.41-21.77c3.36-1.32,5.92-4.47,6.53-8.08c0.39-2.29-0.56-6.76-3.99-5.41
				c-18.47,7.26-36.94,14.51-55.41,21.77c-3.36,1.32-5.92,4.47-6.53,8.08C295.75,494.54,296.7,499.01,300.13,497.66L300.13,497.66z"
				/>
		</g>
	</g>
</g>
<g id="Ebene_8">
	<path class="st5" d="M272.53,554.21c-31.04,65.6-42.05,139.14-52.68,211.39c-2.2,14.99-3.85,32.15,5.78,43.56
		c9.61,11.4,26.2,12.01,40.79,11.75c34.8-0.61,69.6-1.22,104.39-1.83c17.71-0.31,35.46-0.62,53.08-2.52
		c6.14-0.66,12.44-1.57,17.84-4.69c5.4-3.12,9.77-8.93,9.58-15.34c-0.21-7.21-6.12-13.15-12.7-15.49
		c-6.58-2.34-13.73-1.86-20.67-1.39c-39.36,2.66-78.79,4.01-118.23,4.05c-16.01,0.01-34.61-1.55-43.63-15.27
		c-6.82-10.39-5.54-24.16-3.74-36.59c8.53-59.13,22.34-117.28,36.13-175.33C284.89,554.83,281.31,553.17,272.53,554.21z"/>
	<path class="st5" d="M191.18,693.27c-8.55,10.58-8.26,27.71,0.63,37.97c1.94,2.24,4.88,4.29,7.57,3.16
		c1.48-0.62,2.46-2.06,3.35-3.43c1.93-2.94,3.86-5.88,5.79-8.82c2.05-3.12,4.17-6.46,4.34-10.24c0.21-4.86-2.99-9.32-6.98-11.86
		C201.88,697.51,197.17,696.53,191.18,693.27z"/>
	<path class="st5" d="M290.56,982.67c-9.49-7.03-23.08-6.18-33,0.17c-9.93,6.34-16.48,17.3-19.98,28.84
		c-3.5,11.54-4.25,23.75-4.81,35.84c-0.19,4.13-0.07,8.96,3.13,11.42c2.67,2.07,6.43,1.55,9.61,0.53
		c14.32-4.59,25.22-17.19,31.62-31.25S286.05,998.59,290.56,982.67z"/>
	<path class="st5" d="M323.49,1004.99c5.48-17.61,19.6-32.05,36.65-37.49c3.88-1.24,7.99-2.03,11.99-1.3
		c3.99,0.73,7.86,3.22,9.49,7.07c1.63,3.86,0.83,8.31-0.01,12.43c-2.71,13.3-5.49,26.58-8.35,39.84c-1.42,6.59-3.1,13.61-7.92,18.15
		c-4.72,4.43-11.44,5.53-17.75,6.44c-4.41,0.63-9.26,1.17-12.99-1.35c-4.93-3.33-5.72-10.4-5.74-16.5
		C328.85,1026.16,328.82,1019.27,323.49,1004.99z"/>
	<path class="st5" d="M285.05,325.85c-30.64,12.84-45.96,48.38-53.82,81.68c-5.7,24.15-9,50.01-1.28,73.55
		c11.33,34.55,45.47,57.49,80.42,61.74c34.94,4.25,70.17-7.6,100.91-25.35c3.06-1.77,6.92-3.59,9.85-1.58
		c4.78,3.28,0.62,10.95-3.85,14.69c-36.38,30.45-88.19,40.72-132.11,24.12c-43.92-16.6-77.7-60.38-81.51-108.71
		C199.84,397.65,227.48,347.73,285.05,325.85z"/>
</g>
<g id="Ebene_13">
	<ellipse class="st1" cx="313.27" cy="400.47" rx="4.21" ry="4.47"/>
	<ellipse class="st1" cx="341.64" cy="404.94" rx="4.21" ry="4.47"/>
	<g>
		<g id="Ebene_2_Kopie">
			<g class="st6">
				<path d="M451.77,424.51c9.85,7.63,13.87,19.34,9.5,27.69c-4.37,8.35-16.79,12.71-29.37,10.3s-24.36-11.39-27.86-21.25
					c-3.5-9.86,1.55-19.83,11.95-23.59c10.39-3.76,25.33-1.01,35.33,6.5"/>
				<g>
					<path d="M450.34,425.38c9.22,7.23,13.34,17.96,9.69,26.07c-3.45,7.67-14.25,11.74-25.4,10.2
						c-11.75-1.61-23.16-9.32-27.79-18.32c-4.66-9.05-1.73-18.8,6.91-23.49c9.72-5.27,25.83-2.46,36.13,5.18
						c1.36,1.01,4.15-0.79,2.87-1.74c-10.42-7.73-25.23-10.44-36.24-6.96c-11.25,3.56-17.32,13.59-14.56,23.99
						c2.68,10.14,14.14,19.55,26.83,22.81c12.95,3.33,25.99-0.43,32.2-8.03c7.12-8.7,3.63-22.54-7.77-31.47
						C451.88,422.61,449.08,424.4,450.34,425.38L450.34,425.38z"/>
				</g>
			</g>
			<g class="st6">
				<path d="M466.03,245.05c3.95-7.81,9.7-15.07,18.59-19.46c8.89-4.39,21.31-5.52,32.6-1.31c16.36,6.11,25.89,22.04,24.1,34.7
					c-1.79,12.66-12.54,22.2-25.25,28.74c-12.72,6.54-27.57,10.63-41.09,16.29c-22.02,9.21-40.7,22.91-50.59,41.1
					c-6.49,11.95-8.92,26.57-1.33,40.47c7.59,13.9,27.41,25.98,44.5,24.06c10.84-1.22,18.54-7.54,23.25-14.84
					c4.71-7.3,6.98-15.69,10.65-23.47c7.58-16.05,21.29-29.48,39.26-38.47c22.25-11.13,51.13-15.8,68.04-31.51
					c17.91-16.63,18.41-43.83,4.48-67.49c-13.93-23.66-40.76-43.55-70.38-55.76c-32.56-13.42-69.4-18.07-99.73-10.86
					s-53.28,26.7-58.02,51.95c-1.87,9.95-0.8,21.14,6.4,31.07c9.49,13.08,29.63,21.99,46.55,20.59
					c16.92-1.4,20.35-13.28,27.84-25.54"/>
				<g>
					<path d="M467.66,245c3.53-6.94,8.51-13.46,16.17-17.74c6.86-3.84,16.2-5.5,25.71-3.73c18.76,3.51,30.58,19.85,30.31,33.16
						c-0.34,16.63-16.89,27.34-33.18,34.13c-8.81,3.68-18.16,6.69-27.14,10.16c-8.56,3.31-16.68,7.15-24.11,11.67
						c-14.53,8.84-26.51,20.24-33.47,34.05c-6.24,12.39-8.49,28.54,1.61,42.9c8.48,12.04,25.95,22.5,42.31,21.33
						c8.96-0.64,16.17-4.54,21.29-9.6c6.03-5.97,9.15-13.51,12.11-20.98c3.05-7.7,6.49-15.1,11.61-21.85
						c4.87-6.41,10.88-12.21,17.86-17.17c6.8-4.82,14.49-8.75,22.76-12.08c7.82-3.15,15.99-5.86,23.98-8.8
						c15.67-5.76,30.87-12.71,39.83-24.45c8.67-11.37,11.15-25.98,8.16-40.62c-3.09-15.13-12.02-29.99-25-43.02
						c-13.12-13.16-29.93-24.27-48.06-32.54c-18.38-8.38-38.36-13.94-57.99-16.11c-19.56-2.16-38.79-0.96-55.61,4.08
						c-16.59,4.98-30.54,13.67-40.27,24.94c-9.5,11-15.42,25.21-13.66,40.1c0.86,7.29,3.8,14.89,9.79,21.49
						c5.52,6.08,13.36,11.06,21.75,14.15c8.41,3.1,17.5,4.41,25.64,3.27c7.65-1.08,13.2-4.81,17.12-9.61
						c4.18-5.11,6.81-11.06,10.17-16.59c1.04-1.71-2.25-1.64-2.94-0.51c-3.39,5.57-6.03,11.58-10.28,16.72
						c-3.92,4.74-9.64,7.7-17.49,8.01c-16.97,0.67-36.41-8.86-44.85-22.07c-9.16-14.35-6.51-30.25-0.36-42.53
						c6.32-12.62,17.77-23.03,32.22-29.95c14.82-7.1,32.67-10.42,51.6-10.17c19.14,0.26,39.17,4.09,58.05,10.86
						c18.59,6.66,36.25,16.22,51.01,28.07c14.59,11.73,26.32,25.74,32.32,40.64c5.84,14.48,6.41,29.55,0.82,42.27
						c-2.78,6.34-7.2,11.94-13,16.55c-5.85,4.65-12.98,8.23-20.43,11.32c-15.26,6.34-32.07,10.83-46.3,18.37
						c-15.28,8.1-27.41,19.46-35.1,32.86c-4.19,7.3-6.58,15.32-10.17,22.87c-3.14,6.6-7.59,12.89-15.03,16.73
						c-6.52,3.36-14.97,3.94-23.57,1.51c-8.2-2.31-15.8-6.97-21.53-12.44c-13.35-12.73-14.31-28.76-9.87-41.6
						c4.89-14.13,15.81-26.03,29.13-35.22c6.85-4.72,14.41-8.81,22.51-12.29c8.57-3.68,17.7-6.66,26.54-9.99
						c16.93-6.39,33.7-14.84,40.21-29.43c2.78-6.23,3.15-13.27,0.5-20.45c-2.4-6.48-7.2-13.05-14.1-17.81
						c-16.03-11.06-36.81-8.47-48.6-0.04c-6.49,4.64-10.91,10.71-14.24,17.25c-0.31,0.61,0.46,1.13,1.22,1.13
						C466.62,246.24,467.34,245.63,467.66,245L467.66,245z"/>
				</g>
			</g>
			<g class="st6">
				<path d="M426.54,437.21c-2.55-6.71,3.6-13.19,12.1-12.74"/>
				<g>
					<path d="M428.16,436.58c-2.13-5.86,2.63-11.25,10.08-10.94c1.55,0.06,3.19-2.27,0.81-2.37c-9.68-0.41-16.92,6.83-14.12,14.55
						C425.42,439.2,428.61,437.83,428.16,436.58L428.16,436.58z"/>
				</g>
			</g>
			<g class="st6">
				<path d="M427.33,428.76c0.64,0.15,0.89,0.97,0.36,1.16c-0.65-0.58-0.35-1.53,0.5-1.6"/>
				<g>
					<path d="M426.17,429.81c0.2,0.06,0.17,0.11,0.07-0.01c0.14,0.17-0.04-0.13,0.02,0c0.05,0.11,0.02,0.17,0.03-0.01
						c0,0.03,0,0.05,0,0.08c0.04-0.45,0.35-0.76,0.93-0.95c0.63,0.04,1.26,0.09,1.89,0.13c-0.05-0.05-0.09-0.09-0.13-0.14
						c0.17,0.2,0.04,0.04,0.02-0.02c-0.03-0.15,0.02,0.19,0,0.04c-0.02-0.23-0.03,0.03-0.04,0.03c-0.03-0.02,0.06-0.12,0.05-0.15
						c0.02,0.02-0.15,0.27-0.04,0.1c-0.11,0.17-0.29,0.3-0.49,0.41c-0.06,0.03-0.53,0.17-0.28,0.13c0.82-0.1,1.68-0.78,1.65-1.48
						c-0.03-0.78-1.02-0.87-1.7-0.79c-1.75,0.22-3.47,2.09-1.92,3.6c0.48,0.47,1.44,0.33,1.89,0.13c0.84-0.37,1.59-0.99,1.5-1.86
						c-0.05-0.51-0.45-1.14-1.16-1.35c-0.93-0.28-1.85,0-2.37,0.51c-0.25,0.24-0.48,0.54-0.46,0.89
						C425.66,429.35,425.82,429.71,426.17,429.81L426.17,429.81z"/>
				</g>
			</g>
		</g>
		<g id="Ebene_2_1_">
			<g>
				<path class="st7" d="M460.98,421.86c9.85,7.63,13.87,19.34,9.5,27.69c-4.37,8.35-16.79,12.71-29.37,10.3
					c-12.58-2.41-24.36-11.39-27.86-21.25c-3.5-9.86,1.55-19.83,11.95-23.59c10.39-3.76,25.33-1.01,35.33,6.5"/>
				<g>
					<path d="M459.55,422.73c9.22,7.23,13.34,17.96,9.69,26.07c-3.45,7.67-14.25,11.74-25.4,10.2
						c-11.75-1.61-23.16-9.32-27.79-18.32c-4.66-9.05-1.73-18.8,6.91-23.49c9.72-5.27,25.83-2.46,36.13,5.18
						c1.36,1.01,4.15-0.79,2.87-1.74c-10.42-7.73-25.23-10.44-36.24-6.96c-11.25,3.56-17.32,13.59-14.56,23.99
						c2.68,10.14,14.14,19.55,26.83,22.81c12.95,3.33,25.99-0.43,32.2-8.03c7.12-8.7,3.63-22.54-7.77-31.47
						C461.1,419.95,458.29,421.74,459.55,422.73L459.55,422.73z"/>
				</g>
			</g>
			<g>
				<path class="st8" d="M480.5,243.69c3.95-7.81,9.7-15.07,18.59-19.46c8.89-4.39,21.31-5.52,32.6-1.31
					c16.36,6.11,25.89,22.04,24.1,34.7c-1.79,12.66-12.54,22.2-25.25,28.74c-12.72,6.54-27.57,10.63-41.09,16.29
					c-22.02,9.21-40.7,22.91-50.59,41.1c-6.49,11.95-8.92,26.57-1.33,40.47s27.41,25.98,44.5,24.06
					c10.84-1.22,18.54-7.54,23.25-14.84c4.71-7.3,6.98-15.69,10.65-23.47c7.58-16.05,21.29-29.48,39.26-38.47
					c22.25-11.13,51.13-15.8,68.04-31.51c17.91-16.63,18.41-43.83,4.48-67.49c-13.93-23.66-40.76-43.55-70.38-55.76
					c-32.55-13.42-69.39-18.07-99.72-10.86c-30.33,7.21-53.29,26.71-58.03,51.95c-1.87,9.95-0.8,21.14,6.4,31.07
					c9.49,13.08,29.63,21.99,46.55,20.59c16.92-1.4,20.35-13.28,27.84-25.54"/>
				<g>
					<path d="M482.13,243.64c3.53-6.94,8.51-13.46,16.17-17.74c6.86-3.84,16.2-5.5,25.71-3.73c18.76,3.51,30.58,19.85,30.31,33.16
						c-0.34,16.63-16.89,27.34-33.18,34.13c-8.81,3.68-18.16,6.69-27.14,10.16c-8.56,3.31-16.68,7.15-24.11,11.67
						c-14.53,8.84-26.51,20.24-33.47,34.05c-6.24,12.39-8.49,28.54,1.61,42.9c8.48,12.04,25.95,22.5,42.31,21.33
						c8.96-0.64,16.17-4.54,21.29-9.6c6.03-5.97,9.15-13.51,12.11-20.98c3.05-7.7,6.49-15.1,11.61-21.85
						c4.87-6.41,10.88-12.21,17.86-17.17c6.8-4.82,14.49-8.75,22.76-12.08c7.82-3.15,15.99-5.86,23.98-8.8
						c15.67-5.76,30.87-12.71,39.83-24.45c8.67-11.37,11.15-25.98,8.16-40.62c-3.09-15.13-12.02-29.99-25-43.02
						c-13.12-13.16-29.93-24.27-48.06-32.54c-18.38-8.38-38.36-13.94-57.99-16.11c-19.56-2.16-38.79-0.96-55.61,4.08
						c-16.59,4.98-30.54,13.67-40.27,24.94c-9.5,11-15.42,25.21-13.66,40.1c0.86,7.29,3.8,14.89,9.79,21.49
						c5.52,6.08,13.36,11.06,21.75,14.15c8.41,3.1,17.5,4.41,25.64,3.27c7.65-1.08,13.2-4.81,17.12-9.61
						c4.18-5.11,6.81-11.06,10.17-16.59c1.04-1.71-2.25-1.64-2.94-0.51c-3.39,5.57-6.03,11.58-10.28,16.72
						c-3.92,4.74-9.64,7.7-17.49,8.01c-16.97,0.67-36.41-8.86-44.85-22.07c-9.16-14.35-6.51-30.25-0.36-42.53
						c6.32-12.62,17.77-23.03,32.22-29.95c14.82-7.1,32.67-10.42,51.6-10.17c19.14,0.26,39.17,4.09,58.05,10.86
						c18.59,6.66,36.25,16.22,51.01,28.07c14.59,11.73,26.32,25.74,32.32,40.64c5.84,14.48,6.41,29.55,0.82,42.27
						c-2.78,6.34-7.2,11.94-13,16.55c-5.85,4.65-12.98,8.23-20.43,11.32c-15.26,6.34-32.07,10.83-46.3,18.37
						c-15.28,8.1-27.41,19.46-35.1,32.86c-4.19,7.3-6.58,15.32-10.17,22.87c-3.14,6.6-7.59,12.89-15.03,16.73
						c-6.52,3.36-14.97,3.94-23.57,1.51c-8.2-2.31-15.8-6.97-21.53-12.44c-13.35-12.73-14.31-28.76-9.87-41.6
						c4.89-14.13,15.81-26.03,29.13-35.22c6.85-4.72,14.41-8.81,22.51-12.29c8.57-3.68,17.7-6.66,26.54-9.99
						c16.93-6.39,33.7-14.84,40.21-29.43c2.78-6.23,3.15-13.27,0.5-20.45c-2.4-6.48-7.2-13.05-14.1-17.81
						c-16.03-11.06-36.81-8.47-48.6-0.04c-6.49,4.64-10.91,10.71-14.24,17.25c-0.31,0.61,0.46,1.13,1.22,1.13
						C481.09,244.88,481.81,244.27,482.13,243.64L482.13,243.64z"/>
				</g>
			</g>
			<g>
				<g>
					<path d="M428.16,436.58c-2.13-5.86,2.63-11.25,10.08-10.94c1.55,0.06,3.19-2.27,0.81-2.37c-9.68-0.41-16.92,6.83-14.12,14.55
						C425.42,439.2,428.61,437.83,428.16,436.58L428.16,436.58z"/>
				</g>
			</g>
			<g>
				<path class="st7" d="M447.94,425.98c0.64,0.15,0.89,0.97,0.36,1.16c-0.65-0.58-0.35-1.53,0.5-1.6"/>
				<g>
					<path d="M446.78,427.04c0.2,0.06,0.17,0.11,0.07-0.01c0.14,0.17-0.04-0.13,0.02,0c0.05,0.11,0.02,0.17,0.03-0.01
						c0,0.03,0,0.05,0,0.08c0.04-0.45,0.35-0.76,0.93-0.95c0.63,0.04,1.26,0.09,1.89,0.13c-0.05-0.05-0.09-0.09-0.13-0.14
						c0.17,0.2,0.04,0.04,0.02-0.02c-0.03-0.15,0.02,0.19,0,0.04c-0.02-0.23-0.03,0.03-0.04,0.03c-0.03-0.02,0.06-0.12,0.05-0.15
						c0.02,0.02-0.15,0.27-0.04,0.1c-0.11,0.17-0.29,0.3-0.49,0.41c-0.06,0.03-0.53,0.17-0.28,0.13c0.82-0.1,1.68-0.78,1.65-1.48
						c-0.03-0.78-1.02-0.87-1.7-0.79c-1.75,0.22-3.47,2.09-1.92,3.6c0.48,0.47,1.44,0.33,1.89,0.13c0.84-0.37,1.59-0.99,1.5-1.86
						c-0.05-0.51-0.45-1.14-1.16-1.35c-0.93-0.28-1.85,0-2.37,0.51c-0.25,0.24-0.48,0.54-0.46,0.89
						C446.27,426.57,446.43,426.93,446.78,427.04L446.78,427.04z"/>
				</g>
			</g>
		</g>
		<g id="Ebene_4">
			<g class="st6">
				<path d="M451.44,416.45c-13.63-4.76-33.64-0.42-37.94,9.12c-4.3,9.54,6.17,25.47,19.16,31.64
					c-10.54-6.1-16.87-20.82-12.35-28.61s16.39-12.17,31.54-11.97"/>
				<g>
					<path d="M452.6,415.4c-6.03-2.06-12.39-2.43-18.16-1.79c-6.05,0.67-11.78,2.35-16.23,5.21c-4.28,2.74-7.11,6.53-7.34,11.3
						c-0.23,4.81,1.89,10.03,5.11,14.67c3.65,5.28,8.89,10.28,15.53,13.48c1.42,0.68,3.95-1.14,2.31-2.1
						c-8.33-4.9-12.94-13.91-13.29-21c-0.17-3.56,0.96-6.65,3.45-9.21c2.6-2.67,6.17-4.57,10.2-5.88c5.24-1.7,11.21-2.3,17.27-2.24
						c0.91,0.01,1.84-0.57,2.03-1.23c0.19-0.65-0.35-1.12-1.22-1.13c-11.38-0.12-22.69,2.25-29.69,8.43
						c-3.07,2.71-5.08,6.05-5.37,10c-0.3,4.04,0.93,8.44,3.11,12.51c2.38,4.46,6.04,8.82,11.2,11.86c0.77-0.7,1.54-1.4,2.31-2.1
						c-10.51-5.07-18.43-15.38-19.5-24.16c-0.52-4.27,0.85-7.9,4.27-10.63c3.42-2.73,8.26-4.34,13.26-5.15
						c5.7-0.92,12.32-0.81,18.44,1.28C451.83,418.03,454.27,415.97,452.6,415.4L452.6,415.4z"/>
				</g>
			</g>
			<g class="st6">
				<path d="M545.75,276.29c-13.36,9.96-27.82,14.46-44.08,21.65c-16.26,7.18-30.93,12.49-43.52,23.05
					c-12.59,10.56-25.86,34.83-24.88,50.87c0.98,16.04,17.74,34.46,44.22,36.6c-25.03-21.47-3.15-68.4,13.42-80.79
					c16.09-12.04,53.54-33.42,62.49-62.24"/>
				<g>
					<path d="M544.54,275.75c-12.63,9.37-29.04,14.92-44.28,21.6c-15.27,6.71-31.05,12.9-43.03,22.85
						c-4.54,3.77-8.21,8.21-11.43,12.81c-3.64,5.2-6.71,10.72-9.18,16.47c-4.34,10.1-7.67,21.72-2.19,33.54
						c2.7,5.82,7.26,11.45,13.24,15.93c6.41,4.81,14.2,8.15,22.25,9.73c2.26,0.44,4.52,0.74,6.77,0.93c0.99,0.08,3.5-0.94,2.24-2.03
						c-9.05-7.81-11.2-18.18-11.09-27.13c0.14-10.91,3.44-21.29,8.13-30.81c2.17-4.4,4.72-8.65,7.72-12.64
						c2.35-3.12,4.92-6.1,8.21-8.62c4.49-3.44,9.42-6.64,14.14-9.94c6.11-4.27,12.12-8.62,17.8-13.23
						c12.23-9.92,23.41-21.17,29.33-34.79c0.72-1.65,1.34-3.33,1.88-5.04c0.2-0.63-0.38-1.13-1.22-1.13
						c-0.9-0.01-1.82,0.58-2.03,1.23c-4.47,14.24-15.27,25.9-27.24,36.05c-10.31,8.75-22.07,16.27-33.18,24.37
						c-7.77,5.66-13.01,13.16-17.18,20.99c-5.11,9.59-8.75,20.03-9.55,31.05c-0.66,9.17,0.64,19.88,8.61,28.65
						c0.87,0.95,1.81,1.87,2.83,2.74c0.75-0.68,1.49-1.35,2.24-2.03c-8.3-0.7-16.63-3.11-23.91-7.51
						c-6.43-3.88-11.65-9.15-14.98-14.75c-3.21-5.39-4.68-10.98-4.49-16.39c0.2-5.67,1.75-11.08,3.73-16.24
						c2.2-5.74,5.05-11.23,8.44-16.44c3.03-4.66,6.48-9.16,10.73-13.08c10.66-9.84,25.69-15.88,40.12-22.12
						c7.64-3.31,15.38-6.49,23.06-9.76c7.43-3.16,14.65-6.59,21.09-10.77c1.68-1.09,3.3-2.24,4.88-3.41
						c0.47-0.34,0.76-1.18-0.06-1.59C546.03,274.79,545.03,275.39,544.54,275.75L544.54,275.75z"/>
				</g>
			</g>
			<g class="st6">
				<path d="M542.38,171.28c-21.54-5.01-52.4-10.1-71.93-7.4c-19.53,2.71-42.61,13.65-55.06,24.59
					c-12.45,10.94-19.2,33.2-14.85,49.67c4.35,16.48,19.71,28.36,44.51,31.31c-13.15-7.8-25.11-19.65-25.37-31.26
					c-0.26-11.61,5.48-21.88,13.12-30.6c20.62-23.55,57.78-36.57,108.89-35.64"/>
				<g>
					<path d="M543.18,170.13c-18.85-4.38-38.3-7.73-56.98-8.14c-8.83-0.19-17.19,0.63-25.11,2.6c-8.93,2.23-17.22,5.44-24.93,9.22
						c-7.47,3.66-14.47,7.88-20.49,12.85c-5.47,4.51-9.39,10.01-12.28,15.99c-3.07,6.34-4.98,13.2-5.63,20.31
						c-0.6,6.49-0.13,13.38,2.6,20.14c2.45,6.06,6.89,11.97,13.19,16.55c6.8,4.94,15.07,8.07,23.41,9.79
						c2.43,0.5,4.86,0.88,7.28,1.17c1.18,0.14,3.65-1.2,1.96-2.21c-11.58-6.91-22.9-17.25-24.63-28.13
						c-1.04-6.57,0.78-13.05,3.4-18.68c2.62-5.61,6.42-10.74,10.8-15.41c6.66-7.09,14.89-13.1,24.33-17.91
						c10.02-5.11,21.39-8.78,33.4-11.23c13.35-2.72,27.5-3.91,41.95-3.95c1.93-0.01,3.88,0.01,5.82,0.05
						c1.53,0.03,3.18-2.32,0.81-2.37c-15.3-0.27-30.34,0.68-44.57,3.23c-12.8,2.29-24.95,5.9-35.75,11
						c-10.25,4.84-19.32,10.96-26.67,18.29c-9.34,9.33-16.88,20.72-17.1,33.9c-0.19,11.37,9.5,22.42,21.38,30.45
						c1.47,0.99,2.97,1.95,4.51,2.86c0.65-0.74,1.31-1.47,1.96-2.21c-8.61-1.04-17.42-3.29-25.15-7.65
						c-6.56-3.7-11.78-8.83-15.01-14.46c-3.59-6.27-4.79-12.81-4.81-19.08c-0.01-6.93,1.36-13.62,3.75-19.9
						c2.29-6.05,5.55-11.89,10.35-16.68c4.96-4.95,11.38-9,17.98-12.58c13.39-7.27,29.25-13.28,47.19-13.62
						c9.01-0.17,18.28,0.65,27.51,1.86c9.24,1.22,18.51,2.87,27.74,4.86c2.06,0.44,4.12,0.91,6.18,1.38
						C543.09,172.79,545.27,170.61,543.18,170.13L543.18,170.13z"/>
				</g>
			</g>
		</g>
		<g id="Ebene_5">
			<g class="st6">
				<g>
					<path class="st1" d="M573.89,200.86c1.36,0.84,2.7,1.7,3.99,2.6c0.65,0.45,1.29,0.91,1.92,1.37c0.32,0.23,0.63,0.47,0.94,0.7
						c0.14,0.1,1.42,1.11,0.64,0.48c2.43,1.94,4.71,3.99,6.82,6.13c4.29,4.34,7.63,8.73,10.44,13.68
						c5.81,10.21,7.88,20.83,5.72,30.64c-5.16,23.42-29.55,37.37-51.84,49.75c-12.9,7.17-25.78,14.42-36.09,23.83
						c-0.48,0.44,1.24,1.71,1.48,1.88c1.26,0.89,2.97,1.66,4.45,2.19c2,0.71,5.71,2.07,7.16,0.75
						c18.52-16.91,45.72-26.3,65.54-42.12c9.87-7.88,18.27-17.29,21.68-28.72c2.95-9.92,1.68-21.02-3.69-31.71
						c-5.8-11.55-16.1-22.45-29.04-30.4c-2.67-1.64-6.1-3.18-9.26-3.41c-0.76-0.06-2.1-0.2-2.35,0.47
						C572.17,199.61,573.31,200.51,573.89,200.86L573.89,200.86z"/>
				</g>
			</g>
			<g class="st6">
				<g>
					<path class="st1" d="M452.78,434.75c0.87,4.39-0.78,8.6-3.76,11.69c-1.44,1.5-3.34,2.73-5.46,3.65
						c-2.43,1.06-4.45,1.5-7.27,1.63c-2.87,0.13,0.29,2.48,1.51,3.13c2.61,1.4,6.26,2.84,9.17,2.7
						c12.41-0.57,20.73-8.97,18.74-19.04c-0.14-0.7-2.07-1.78-2.64-2.1c-1.5-0.83-3.32-1.57-4.98-2.02
						C456.69,434,452.39,432.81,452.78,434.75L452.78,434.75z"/>
				</g>
			</g>
		</g>
	</g>
	<g>
		<g id="Ebene_2_Kopie_1_">
			<g class="st6">
				<path d="M603.14,511.38c7.58,2.35,12.57,8.34,11.8,14.18c-0.77,5.83-7.26,11.07-15.32,12.37c-8.07,1.3-17.11-1.42-21.38-6.44
					s-3.44-11.95,1.96-16.4c5.4-4.44,14.96-6.05,22.6-3.81"/>
				<g>
					<path d="M602.47,512.2c7.12,2.25,11.96,7.65,11.56,13.19c-0.38,5.24-5.95,9.95-12.97,11.46c-7.4,1.59-15.93-0.47-20.69-4.74
						c-4.79-4.3-5.18-10.65-1.04-15.25c4.66-5.18,14.93-7.01,22.79-4.76c1.04,0.3,2.31-1.36,1.34-1.64
						c-7.95-2.28-17.42-0.68-23.25,3.73c-5.96,4.51-7.38,11.7-3.44,17.2c3.84,5.36,12.78,8.41,21.11,7.58
						c8.5-0.84,15.47-5.86,17.52-11.65c2.35-6.63-2.8-13.99-11.6-16.76C602.79,510.24,601.5,511.9,602.47,512.2L602.47,512.2z"/>
				</g>
			</g>
			<g class="st6">
				<path d="M572.11,403.14c0.64-5.43,2.49-10.92,6.84-15.41c4.36-4.49,11.55-7.83,19.24-7.8c11.15,0.05,20.37,7.33,22.09,15.14
					c1.72,7.8-2.62,15.71-8.79,22.29c-6.18,6.57-14.18,12.18-21.03,18.4c-11.16,10.15-19.34,22.2-21.25,35
					c-1.26,8.4,0.51,17.49,8.13,24c7.61,6.51,22.15,9.31,31.97,4.5c6.23-3.05,9.45-8.42,10.66-13.71c1.21-5.29,0.72-10.7,1.21-16.05
					c1-11.04,6.25-21.87,15.04-31.01c10.88-11.32,27.15-20.29,33.82-33.14c7.06-13.61,1.37-29.65-12.2-40.51
					c-13.56-10.86-34.03-16.73-54.47-17.5c-22.47-0.84-45.57,4.38-62.15,15.15c-16.59,10.77-26.03,27.14-23.31,42.95
					c1.07,6.23,4.18,12.56,10.69,16.83c8.57,5.62,22.61,6.49,32.43,2.03c9.83-4.47,9.27-12.17,11.05-20.97"/>
				<g>
					<path d="M573.08,402.76c0.59-4.83,2.13-9.72,5.78-13.88c3.27-3.73,8.49-6.72,14.59-7.73c12.01-1.99,22.7,5.04,25.47,12.9
						c3.46,9.82-4.09,19.66-12.35,27.16c-4.47,4.06-9.41,7.84-14.02,11.81c-4.4,3.78-8.42,7.78-11.87,12.04
						c-6.75,8.31-11.42,17.58-12.55,27.17c-1.01,8.61,1.21,18.56,10.43,24.79c7.74,5.23,20.51,7.59,30.05,3.38
						c5.23-2.31,8.69-6.15,10.64-10.21c2.3-4.8,2.5-9.89,2.63-14.9c0.13-5.17,0.56-10.25,2.14-15.31c1.5-4.81,3.82-9.5,6.92-13.91
						c3.01-4.29,6.75-8.25,10.97-11.99c3.99-3.53,8.29-6.89,12.43-10.33c8.12-6.75,15.69-14.1,18.47-22.92
						c2.69-8.53,0.95-17.63-4.07-25.57c-5.19-8.2-13.81-14.98-24.47-19.82c-10.76-4.88-23.29-7.77-35.97-8.7
						c-12.86-0.95-26.06,0.1-38.29,3.07c-12.19,2.95-23.46,7.8-32.42,14.39c-8.84,6.49-15.29,14.6-18.63,23.3
						c-3.26,8.49-3.68,18.1,0.66,26.45c2.12,4.09,5.56,7.91,10.6,10.48c4.65,2.38,10.44,3.6,16.15,3.6c5.73,0,11.46-1.19,16.08-3.61
						c4.35-2.28,6.85-5.67,8.14-9.32c1.38-3.89,1.64-7.95,2.44-11.92c0.25-1.23-1.71-0.47-1.87,0.34c-0.8,4-1.06,8.09-2.47,12.01
						c-1.3,3.62-4.08,6.59-8.72,8.46c-10.02,4.05-23.77,2.66-31.74-3.26c-8.65-6.44-10.57-16.32-9.6-24.84
						c1-8.76,5.57-17.33,12.7-24.5c7.31-7.36,17.28-13.15,28.67-17.09c11.53-3.98,24.37-6.05,37.18-6.15
						c12.61-0.1,25.3,1.69,36.75,5.45c11.33,3.72,21.45,9.41,28.33,16.84c6.69,7.23,10.36,15.93,9.82,24.59
						c-0.27,4.32-1.68,8.55-4.14,12.5c-2.48,3.98-5.96,7.62-9.74,11.04c-7.74,7.01-16.83,13.26-23.69,20.75
						c-7.37,8.04-12.13,17.31-13.79,26.83c-0.9,5.18-0.56,10.4-1.05,15.59c-0.43,4.54-1.7,9.19-5.32,13.04
						c-3.16,3.37-8.1,5.54-13.79,5.97c-5.42,0.41-11-0.68-15.65-2.64c-10.8-4.58-14.91-13.77-15.08-22.25
						c-0.19-9.33,3.73-18.66,9.69-26.92c3.06-4.24,6.69-8.27,10.78-12.06c4.32-4,9.14-7.72,13.7-11.58
						c8.74-7.4,16.92-15.96,17.6-25.91c0.29-4.25-1.04-8.46-4.21-12.09c-2.87-3.28-7.19-6.09-12.38-7.39
						c-12.04-3.02-23.92,2.97-29.13,10.46c-2.86,4.12-4.17,8.63-4.73,13.18c-0.05,0.43,0.52,0.56,0.98,0.4
						C572.73,403.72,573.02,403.2,573.08,402.76L573.08,402.76z"/>
				</g>
			</g>
			<g class="st6">
				<path d="M590.83,524.26c-3.01-3.38-0.75-8.51,4.44-10.08"/>
				<g>
					<path d="M591.65,523.55c-2.57-2.97-0.9-7.16,3.63-8.58c0.94-0.3,1.41-2.02-0.04-1.56c-5.89,1.85-8.63,7.65-5.25,11.57
						C590.59,525.67,592.2,524.18,591.65,523.55L591.65,523.55z"/>
				</g>
			</g>
			<g class="st6">
				<path d="M589.43,519.15c0.42-0.05,0.75,0.38,0.47,0.6c-0.52-0.2-0.55-0.82-0.05-1.05"/>
				<g>
					<path d="M588.97,520.01c0.14-0.01,0.12,0.03,0.04-0.02c0.12,0.07-0.05-0.07,0.01-0.01c0.06,0.05,0.05,0.09,0.02-0.01
						c0.01,0.02,0.01,0.03,0.02,0.04c-0.08-0.27,0.04-0.52,0.35-0.76c0.39-0.11,0.77-0.22,1.16-0.33c-0.04-0.02-0.07-0.03-0.11-0.05
						c0.14,0.08,0.03,0.02,0.01-0.02c-0.05-0.08,0.05,0.11,0.01,0.02c-0.06-0.13-0.01,0.03-0.02,0.02c-0.02-0.01,0.01-0.09-0.01-0.1
						c0.01,0.01-0.03,0.19,0,0.07c-0.03,0.12-0.11,0.24-0.2,0.34c-0.03,0.03-0.28,0.21-0.14,0.14c0.47-0.24,0.84-0.82,0.66-1.22
						c-0.19-0.45-0.8-0.29-1.19-0.09c-1,0.51-1.62,1.97-0.35,2.52c0.39,0.17,0.94-0.12,1.16-0.33c0.42-0.4,0.73-0.92,0.49-1.42
						c-0.14-0.29-0.52-0.57-0.99-0.54c-0.62,0.04-1.11,0.4-1.31,0.81c-0.09,0.2-0.17,0.42-0.08,0.62
						C588.56,519.85,588.74,520.03,588.97,520.01L588.97,520.01z"/>
				</g>
			</g>
		</g>
		<g id="Ebene_2_2_">
			<g>
				<path class="st7" d="M608.08,507.84c7.58,2.35,12.57,8.34,11.8,14.18c-0.77,5.83-7.26,11.07-15.32,12.37
					c-8.07,1.3-17.11-1.42-21.38-6.44s-3.44-11.95,1.96-16.4c5.4-4.44,14.96-6.05,22.6-3.81"/>
				<g>
					<path d="M607.41,508.66c7.12,2.25,11.96,7.65,11.56,13.19c-0.38,5.24-5.95,9.95-12.97,11.46c-7.4,1.59-15.93-0.47-20.69-4.74
						c-4.79-4.3-5.18-10.65-1.04-15.25c4.66-5.18,14.93-7.01,22.79-4.76c1.04,0.3,2.31-1.36,1.34-1.64
						c-7.95-2.29-17.42-0.68-23.25,3.73c-5.96,4.51-7.38,11.7-3.44,17.2c3.84,5.36,12.78,8.41,21.11,7.58
						c8.5-0.84,15.47-5.86,17.52-11.65c2.35-6.63-2.8-13.99-11.6-16.76C607.72,506.7,606.44,508.35,607.41,508.66L607.41,508.66z"/>
				</g>
			</g>
			<g>
				<path class="st8" d="M580.48,399.22c0.64-5.43,2.49-10.92,6.84-15.41c4.36-4.49,11.55-7.83,19.24-7.8
					c11.15,0.05,20.37,7.33,22.09,15.14c1.72,7.8-2.62,15.71-8.79,22.29c-6.18,6.57-14.18,12.18-21.03,18.4
					c-11.16,10.15-19.34,22.2-21.25,35c-1.26,8.4,0.51,17.49,8.13,24c7.61,6.51,22.15,9.31,31.97,4.5
					c6.23-3.05,9.45-8.42,10.66-13.71c1.21-5.29,0.72-10.7,1.21-16.05c1-11.04,6.25-21.87,15.04-31.01
					c10.88-11.32,27.15-20.29,33.82-33.14c7.06-13.61,1.37-29.65-12.2-40.51c-13.56-10.86-34.03-16.73-54.47-17.5
					c-22.46-0.84-45.56,4.38-62.15,15.14s-26.04,27.14-23.31,42.96c1.07,6.23,4.18,12.56,10.69,16.83
					c8.57,5.62,22.61,6.49,32.43,2.03c9.83-4.47,9.27-12.17,11.05-20.97"/>
				<g>
					<path d="M581.44,398.85c0.59-4.83,2.13-9.72,5.78-13.88c3.27-3.73,8.49-6.72,14.59-7.73c12.01-1.99,22.7,5.04,25.47,12.9
						c3.46,9.82-4.09,19.66-12.35,27.16c-4.47,4.06-9.41,7.84-14.02,11.81c-4.4,3.78-8.42,7.78-11.87,12.04
						c-6.75,8.31-11.42,17.58-12.55,27.17c-1.01,8.61,1.21,18.56,10.43,24.79c7.74,5.23,20.51,7.59,30.05,3.38
						c5.23-2.31,8.69-6.15,10.64-10.21c2.3-4.8,2.5-9.89,2.63-14.9c0.13-5.17,0.56-10.25,2.14-15.31c1.5-4.81,3.82-9.5,6.92-13.91
						c3.01-4.29,6.75-8.25,10.97-11.99c3.99-3.53,8.29-6.89,12.43-10.33c8.12-6.75,15.69-14.1,18.47-22.92
						c2.69-8.53,0.95-17.63-4.07-25.57c-5.19-8.2-13.81-14.98-24.47-19.82c-10.76-4.88-23.29-7.77-35.97-8.7
						c-12.86-0.95-26.06,0.1-38.29,3.07c-12.19,2.95-23.46,7.8-32.42,14.39c-8.84,6.49-15.29,14.6-18.63,23.3
						c-3.26,8.49-3.68,18.1,0.66,26.45c2.12,4.09,5.56,7.91,10.6,10.48c4.65,2.38,10.44,3.6,16.15,3.6c5.73,0,11.46-1.19,16.08-3.61
						c4.35-2.28,6.85-5.67,8.14-9.32c1.38-3.89,1.64-7.95,2.44-11.92c0.25-1.23-1.71-0.47-1.87,0.34c-0.8,4-1.06,8.09-2.47,12.01
						c-1.3,3.62-4.08,6.59-8.72,8.46c-10.02,4.05-23.77,2.66-31.74-3.26c-8.65-6.44-10.57-16.32-9.6-24.84
						c1-8.76,5.57-17.33,12.7-24.5c7.31-7.36,17.28-13.15,28.67-17.09c11.53-3.98,24.37-6.05,37.18-6.15
						c12.61-0.1,25.3,1.69,36.75,5.45c11.33,3.72,21.45,9.41,28.33,16.84c6.69,7.23,10.36,15.93,9.82,24.59
						c-0.27,4.32-1.68,8.55-4.14,12.5c-2.48,3.98-5.96,7.62-9.74,11.04c-7.74,7.01-16.83,13.26-23.69,20.75
						c-7.37,8.04-12.13,17.31-13.79,26.83c-0.9,5.18-0.56,10.4-1.05,15.59c-0.43,4.54-1.7,9.19-5.32,13.04
						c-3.16,3.37-8.1,5.54-13.79,5.97c-5.42,0.41-11-0.68-15.64-2.64c-10.8-4.58-14.91-13.77-15.08-22.25
						c-0.19-9.33,3.73-18.66,9.69-26.92c3.06-4.24,6.69-8.27,10.78-12.06c4.32-4,9.14-7.72,13.7-11.58
						c8.74-7.4,16.92-15.96,17.6-25.91c0.29-4.25-1.04-8.46-4.21-12.09c-2.87-3.28-7.19-6.09-12.38-7.39
						c-12.04-3.02-23.92,2.97-29.13,10.46c-2.86,4.12-4.17,8.63-4.73,13.18c-0.05,0.43,0.52,0.56,0.98,0.4
						C581.1,399.8,581.39,399.28,581.44,398.85L581.44,398.85z"/>
				</g>
			</g>
			<g>
				<g>
					<path d="M591.65,523.55c-2.57-2.97-0.9-7.16,3.63-8.58c0.94-0.3,1.41-2.02-0.04-1.56c-5.89,1.85-8.63,7.65-5.25,11.57
						C590.59,525.67,592.2,524.18,591.65,523.55L591.65,523.55z"/>
				</g>
			</g>
			<g>
				<path class="st7" d="M601.17,513.07c0.42-0.05,0.75,0.38,0.47,0.6c-0.52-0.2-0.55-0.82-0.05-1.05"/>
				<g>
					<path d="M600.71,513.94c0.14-0.01,0.12,0.03,0.04-0.02c0.12,0.07-0.05-0.07,0.01-0.01c0.06,0.05,0.05,0.09,0.02-0.01
						c0.01,0.02,0.01,0.03,0.02,0.04c-0.08-0.27,0.04-0.52,0.35-0.76c0.39-0.11,0.77-0.22,1.16-0.33c-0.04-0.02-0.07-0.03-0.11-0.05
						c0.14,0.08,0.03,0.02,0.01-0.02c-0.05-0.08,0.05,0.11,0.01,0.02c-0.06-0.13-0.01,0.03-0.02,0.02c-0.02-0.01,0.01-0.09-0.01-0.1
						c0.01,0.01-0.03,0.19,0,0.07c-0.03,0.12-0.11,0.24-0.2,0.34c-0.03,0.03-0.28,0.21-0.14,0.14c0.47-0.24,0.84-0.82,0.66-1.22
						c-0.19-0.45-0.8-0.29-1.19-0.09c-1,0.51-1.62,1.97-0.35,2.52c0.39,0.17,0.94-0.12,1.16-0.33c0.42-0.4,0.73-0.92,0.49-1.42
						c-0.14-0.29-0.52-0.57-0.99-0.54c-0.62,0.04-1.11,0.4-1.31,0.81c-0.09,0.2-0.17,0.42-0.08,0.62
						C600.3,513.77,600.48,513.95,600.71,513.94L600.71,513.94z"/>
				</g>
			</g>
		</g>
		<g id="Ebene_4_1_">
			<g class="st6">
				<path d="M601.17,506.73c-9.22,0.15-20.25,7.01-20.72,13.53c-0.47,6.52,9.31,13.59,18.45,14.41c-7.66-1.3-14.7-8.56-13.71-14.1
					c0.99-5.53,7.14-10.67,16.26-13.82"/>
				<g>
					<path d="M601.63,505.86c-4.07,0.09-7.96,1.25-11.28,2.87c-3.48,1.69-6.54,3.92-8.57,6.55c-1.96,2.53-2.82,5.36-1.91,8.21
						c0.92,2.87,3.34,5.47,6.3,7.49c3.35,2.3,7.59,4.1,12.28,4.55c1,0.09,2.12-1.52,0.92-1.73c-6.07-1.07-10.82-5.36-12.59-9.44
						c-0.89-2.05-0.89-4.1,0.04-6.14c0.97-2.12,2.69-4.01,4.81-5.64c2.76-2.13,6.21-3.77,9.86-5.04c0.55-0.19,0.98-0.73,0.94-1.16
						c-0.03-0.42-0.46-0.58-0.98-0.4c-6.84,2.39-13.1,6.21-15.93,11.35c-1.24,2.25-1.71,4.64-1.01,7.02
						c0.71,2.43,2.42,4.75,4.62,6.66c2.41,2.1,5.57,3.87,9.33,4.53c0.31-0.58,0.61-1.15,0.92-1.73c-7.42-0.7-14.43-5.04-17.01-9.95
						c-1.25-2.39-1.23-4.81,0.22-7.15c1.44-2.34,3.99-4.32,6.81-5.88c3.21-1.77,7.21-3.13,11.33-3.22
						C601.75,507.57,602.75,505.84,601.63,505.86L601.63,505.86z"/>
				</g>
			</g>
			<g class="st6">
				<path d="M626.77,404.26c-5.81,8.72-13.48,14.47-21.64,22.19s-15.78,13.99-20.99,22.9c-5.21,8.91-7.81,25.99-3.69,35.17
					c4.12,9.19,18.23,16.36,34.57,11.91c-19.73-7.18-16.97-39.4-9.77-50.24c6.99-10.52,24.71-31.13,23.72-49.95"/>
				<g>
					<path d="M625.92,404.2c-5.5,8.21-14.11,15-21.76,22.21c-7.67,7.22-15.76,14.26-20.74,22.67c-1.89,3.19-3.11,6.58-4.02,9.97
						c-1.04,3.83-1.66,7.73-1.87,11.63c-0.37,6.85,0.19,14.38,6.09,20.12c2.9,2.83,6.88,5.14,11.45,6.48
						c4.9,1.44,10.3,1.71,15.48,0.91c1.45-0.23,2.87-0.54,4.26-0.91c0.61-0.16,1.89-1.3,0.89-1.67
						c-7.14-2.63-10.72-8.24-12.63-13.51c-2.32-6.42-2.63-13.22-1.93-19.81c0.33-3.04,0.92-6.08,1.84-9.07
						c0.72-2.34,1.6-4.64,3.02-6.82c1.93-2.98,4.18-5.93,6.28-8.87c2.72-3.82,5.36-7.66,7.75-11.59c5.14-8.45,9.35-17.45,9.9-26.71
						c0.07-1.12,0.07-2.24,0.01-3.36c-0.02-0.41-0.47-0.58-0.98-0.4c-0.54,0.19-0.97,0.73-0.94,1.16c0.46,9.31-3.44,18.47-8.37,27
						c-4.25,7.35-9.64,14.29-14.51,21.44c-3.4,4.99-4.89,10.52-5.67,16.01c-0.95,6.72-0.83,13.62,1.12,20.25
						c1.63,5.52,4.77,11.51,11.47,14.93c0.73,0.37,1.5,0.7,2.3,1c0.3-0.56,0.6-1.11,0.89-1.67c-5.13,1.38-10.65,1.76-15.98,0.76
						c-4.71-0.89-9-2.85-12.23-5.41c-3.11-2.47-5.23-5.43-6.3-8.64c-1.13-3.37-1.39-6.87-1.35-10.32c0.05-3.84,0.55-7.67,1.43-11.45
						c0.79-3.38,1.86-6.76,3.55-9.98c4.22-8.06,11.89-14.85,19.16-21.62c3.85-3.59,7.79-7.12,11.67-10.69
						c3.75-3.45,7.33-7.02,10.26-10.86c0.77-1,1.48-2.02,2.17-3.05c0.2-0.3,0.19-0.86-0.39-0.92
						C626.6,403.32,626.13,403.89,625.92,404.2L625.92,404.2z"/>
				</g>
			</g>
			<g class="st6">
				<path d="M601.59,343.45c-14.01,1.71-33.63,5.38-44.73,11.18s-22.52,17.19-27.57,26.28c-5.05,9.1-4.18,23.59,2.05,32.31
					s18.06,12.37,33.58,8.75c-9.6-1.73-19.38-6.1-22.1-12.85c-2.72-6.75-1.54-14,1.11-20.76c7.16-18.24,26.55-33.89,57.39-44.37"/>
				<g>
					<path d="M601.82,342.6c-12.26,1.5-24.66,3.73-35.94,7.52c-5.34,1.79-10.16,4.08-14.47,6.94c-4.86,3.23-9.12,6.9-12.9,10.78
						c-3.67,3.76-6.93,7.74-9.45,11.95c-2.28,3.82-3.42,7.89-3.83,12.02c-0.44,4.38-0.07,8.81,1.11,13.12
						c1.07,3.93,2.87,7.87,6,11.24c2.81,3.02,6.76,5.53,11.55,6.85c5.16,1.43,10.81,1.48,16.19,0.69c1.56-0.23,3.1-0.53,4.62-0.88
						c0.74-0.17,1.92-1.49,0.69-1.72c-8.46-1.55-17.52-5.17-20.96-11.17c-2.08-3.63-2.41-7.82-2.08-11.68
						c0.33-3.85,1.48-7.68,3.07-11.36c2.42-5.59,6.03-10.89,10.63-15.74c4.88-5.15,10.88-9.76,17.54-13.78
						c7.4-4.47,15.62-8.22,24.26-11.36c1.16-0.42,2.32-0.83,3.5-1.23c0.92-0.32,1.39-2.05-0.04-1.56c-9.23,3.14-18.03,6.94-26,11.5
						c-7.16,4.1-13.64,8.84-18.99,14.16c-5.08,5.05-9.16,10.59-11.94,16.47c-3.54,7.48-5.54,15.78-2.77,23.56
						c2.39,6.7,10.64,11.09,19.53,13.23c1.1,0.26,2.21,0.5,3.33,0.71c0.23-0.57,0.46-1.14,0.69-1.72
						c-5.39,1.25-11.16,1.83-16.75,0.94c-4.75-0.75-9.01-2.63-12.18-5.23c-3.54-2.9-5.7-6.47-7.09-10.14
						c-1.54-4.06-2.19-8.28-2.14-12.47c0.04-4.04,0.7-8.16,2.52-12.01c1.88-3.97,4.83-7.73,8-11.25
						c6.42-7.15,14.59-14.09,25.27-18.16c5.36-2.04,11.09-3.56,16.89-4.84c5.81-1.28,11.72-2.31,17.69-3.14
						c1.33-0.19,2.67-0.36,4.01-0.52C602.35,344.18,603.17,342.43,601.82,342.6L601.82,342.6z"/>
				</g>
			</g>
		</g>
		<g id="Ebene_5_1_">
			<g class="st6">
				<g>
					<path class="st1" d="M626.99,353.99c1,0.2,1.99,0.42,2.97,0.66c0.49,0.12,0.97,0.25,1.45,0.39c0.24,0.07,0.48,0.14,0.72,0.21
						c0.11,0.03,1.09,0.34,0.49,0.15c1.88,0.61,3.7,1.32,5.44,2.12c3.53,1.62,6.5,3.47,9.27,5.76c5.73,4.73,9.31,10.51,10.18,16.72
						c2.07,14.84-9.46,28.27-20.09,40.34c-6.15,6.98-12.27,14.01-16.37,21.75c-0.19,0.36,1.12,0.73,1.3,0.78
						c0.95,0.25,2.15,0.33,3.15,0.32c1.36-0.02,3.88-0.02,4.45-1.1c7.37-13.91,21.6-25.27,29.98-38.82
						c4.18-6.75,7.14-14.07,6.66-21.5c-0.42-6.45-3.63-12.68-9.2-17.79c-6.02-5.52-14.6-9.68-24.1-11.55c-1.96-0.38-4.36-0.55-6.3,0
						c-0.47,0.13-1.3,0.34-1.3,0.78C625.69,353.63,626.56,353.91,626.99,353.99L626.99,353.99z"/>
				</g>
			</g>
			<g class="st6">
				<g>
					<path class="st1" d="M606,517.17c1.49,2.38,1.43,5.21,0.33,7.66c-0.53,1.19-1.4,2.32-2.47,3.31c-1.23,1.14-2.34,1.84-3.99,2.52
						c-1.69,0.7,0.72,1.39,1.6,1.51c1.87,0.25,4.37,0.31,6.09-0.4c7.31-3.01,10.44-9.73,7.03-15.2c-0.24-0.38-1.63-0.6-2.05-0.66
						c-1.08-0.16-2.34-0.2-3.43-0.11C608.18,515.89,605.34,516.11,606,517.17L606,517.17z"/>
				</g>
			</g>
		</g>
	</g>
</g>
</svg>
