<?xml version="1.0" encoding="utf-8"?>
<!-- Generator: Adobe Adobe Illustrator 24.2.0, SVG Export Plug-In . SVG Version: 6.00 Build 0)  -->
<svg version="1.1" xmlns="http://www.w3.org/2000/svg" xmlns:xlink="http://www.w3.org/1999/xlink" x="0px" y="0px"
	 viewBox="0 0 2000 2000" style="enable-background:new 0 0 2000 2000;" xml:space="preserve">
<style type="text/css">
	.st0{opacity:0.149;}
	.st1{fill:#F4C159;}
	.st2{fill:#D15238;}
	.st3{fill:#FFFFFF;}
</style>
<g id="Ebene_2_Kopie">
	<g class="st0">
		<path d="M1111.5,1516.71c42.57,18.59,70.57,66.11,66.22,112.35s-40.73,87.7-86.02,98.03c-45.29,10.33-96.04-11.27-120.01-51.06
			c-23.97-39.79-19.32-94.75,10.98-129.96c30.3-35.21,83.96-47.98,126.87-30.2"/>
		<g>
			<path d="M1107.75,1523.2c39.97,17.8,67.11,60.6,64.88,104.52c-2.11,41.53-33.41,78.87-72.79,90.8
				c-41.53,12.59-89.43-3.72-116.15-37.56c-26.89-34.05-29.1-84.37-5.83-120.9c26.17-41.07,83.83-55.59,127.94-37.69
				c5.83,2.37,12.96-10.77,7.5-12.99c-44.61-18.11-97.77-5.39-130.51,29.6c-33.45,35.76-41.42,92.73-19.29,136.31
				c21.58,42.5,71.76,66.65,118.48,60.09c47.69-6.69,86.86-46.43,98.36-92.31c13.19-52.57-15.7-110.87-65.09-132.87
				C1109.52,1507.66,1102.29,1520.77,1107.75,1523.2L1107.75,1523.2z"/>
		</g>
	</g>
	<g class="st0">
		<path d="M937.32,658.83c3.6-43.02,13.96-86.58,38.42-122.15c24.46-35.57,64.84-62.06,108.01-61.79
			c62.58,0.4,114.36,58.12,124,119.96s-14.68,124.55-49.36,176.64c-34.68,52.09-79.57,96.51-118.03,145.87
			c-62.66,80.43-108.54,175.98-119.27,277.37c-7.05,66.61,2.88,138.64,45.61,190.22c42.73,51.59,124.36,73.8,179.44,35.69
			c34.95-24.18,53.03-66.71,59.82-108.66c6.79-41.95,4.05-84.81,6.78-127.22c5.63-87.48,35.11-173.3,84.42-245.77
			c61.06-89.75,152.41-160.78,189.85-262.66c39.64-107.86,7.67-235.02-68.48-321.08c-76.14-86.06-191-132.61-305.75-138.68
			c-126.11-6.67-255.78,34.72-348.88,120.04S617.77,551.7,633.07,677.05c6.03,49.41,23.47,99.55,60,133.35
			c48.12,44.53,126.89,51.47,182.06,16.06s52.01-96.47,62.01-166.21"/>
		<g>
			<path d="M942.72,655.83c3.3-38.26,11.97-77.07,32.42-110.03c18.33-29.54,47.68-53.26,81.87-61.26
				c67.43-15.78,127.42,39.91,142.98,102.21c19.44,77.84-22.98,155.85-69.34,215.24c-25.09,32.15-52.81,62.11-78.71,93.59
				c-24.68,29.99-47.26,61.7-66.65,95.39c-37.91,65.89-64.12,139.31-70.43,215.35c-5.66,68.24,6.78,147.08,58.53,196.47
				c43.43,41.44,115.15,60.15,168.7,26.76c29.34-18.3,48.78-48.72,59.73-80.96c12.91-38.02,14.05-78.37,14.75-118.13
				c0.72-40.95,3.13-81.23,12-121.34c8.43-38.1,21.46-75.32,38.82-110.28c16.89-34.01,37.89-65.42,61.59-95.03
				c22.41-28.01,46.53-54.57,69.77-81.87c45.58-53.53,88.1-111.79,103.7-181.64c15.1-67.61,5.34-139.71-22.85-202.62
				c-29.12-64.99-77.53-118.73-137.34-157.06c-60.4-38.7-130.72-61.56-201.91-68.97c-72.2-7.52-146.27,0.83-214.96,24.31
				c-68.45,23.39-131.66,61.84-181.97,114.01c-49.64,51.47-85.81,115.7-104.57,184.66c-18.32,67.32-20.65,143.42,3.69,209.6
				c11.92,32.4,31.23,62.67,59.52,83.09c26.08,18.83,58.62,28.53,90.68,28.56c32.14,0.03,64.33-9.42,90.27-28.64
				c24.41-18.09,38.43-44.92,45.7-73.9c7.74-30.87,9.22-63.02,13.67-94.44c1.38-9.72-9.6-3.75-10.52,2.67
				c-4.49,31.67-5.94,64.11-13.87,95.21c-7.32,28.71-22.9,52.22-48.93,67.09c-56.26,32.13-133.44,21.1-178.15-25.84
				c-48.58-51.01-59.33-129.38-53.86-196.89c5.62-69.41,31.24-137.35,71.28-194.19c41.05-58.3,96.97-104.23,160.95-135.42
				c64.7-31.53,136.79-47.94,208.7-48.78c70.79-0.83,142,13.37,206.31,43.2c63.6,29.51,120.38,74.56,159.01,133.49
				c37.55,57.28,58.14,126.28,55.1,194.92c-1.51,34.21-9.42,67.76-23.25,99.08c-13.94,31.58-33.47,60.41-54.68,87.51
				c-43.47,55.54-94.45,105.1-132.99,164.47c-41.37,63.72-68.1,137.22-77.38,212.62c-5.05,41.07-3.17,82.39-5.91,123.59
				c-2.39,36-9.57,72.86-29.85,103.38c-17.76,26.74-45.49,43.89-77.41,47.32c-30.45,3.27-61.76-5.37-87.82-20.96
				c-60.65-36.29-83.72-109.1-84.67-176.33c-1.04-73.96,20.94-147.91,54.39-213.35c17.19-33.62,37.57-65.57,60.5-95.56
				c24.26-31.72,51.29-61.17,76.9-91.78c49.04-58.62,94.97-126.52,98.8-205.39c1.64-33.71-5.83-67.03-23.65-95.84
				c-16.09-26.02-40.36-48.29-69.47-58.6c-67.59-23.95-134.29,23.56-163.51,82.87c-16.08,32.64-23.42,68.39-26.53,104.44
				c-0.29,3.38,2.93,4.45,5.51,3.18C940.78,663.37,942.42,659.3,942.72,655.83L942.72,655.83z"/>
		</g>
	</g>
	<g class="st0">
		<path d="M1042.36,1618.78c-16.89-26.82-4.22-67.42,24.93-79.88"/>
		<g>
			<path d="M1047.01,1613.11c-14.4-23.56-5.07-56.74,20.38-68.03c5.29-2.35,7.94-15.98-0.21-12.37
				c-33.07,14.66-48.46,60.65-29.48,91.72C1041.06,1629.94,1050.07,1618.14,1047.01,1613.11L1047.01,1613.11z"/>
		</g>
	</g>
	<g class="st0">
		<path d="M1034.54,1578.22c2.34-0.39,4.21,3,2.63,4.77c-2.91-1.6-3.08-6.48-0.29-8.29"/>
		<g>
			<path d="M1031.96,1585.08c0.76-0.06,0.7,0.24,0.22-0.16c0.69,0.57-0.3-0.54,0.07-0.06c0.32,0.42,0.26,0.74,0.1-0.09
				c0.04,0.12,0.07,0.23,0.11,0.35c-0.43-2.13,0.22-4.14,1.96-6.02c2.17-0.87,4.34-1.73,6.51-2.6c-0.22-0.13-0.42-0.27-0.62-0.43
				c0.8,0.63,0.17,0.12,0.05-0.14c-0.29-0.65,0.3,0.87,0.06,0.19c-0.36-1.02-0.05,0.2-0.09,0.18c-0.11-0.04,0.05-0.68-0.03-0.76
				c0.08,0.08-0.17,1.5,0,0.54c-0.17,0.99-0.59,1.9-1.15,2.73c-0.16,0.23-1.57,1.67-0.79,1.11c2.64-1.89,4.69-6.5,3.73-9.69
				c-1.07-3.55-4.5-2.31-6.68-0.75c-5.61,4.02-9.08,15.63-1.99,20c2.19,1.35,5.26-0.94,6.51-2.6c2.37-3.14,4.12-7.29,2.75-11.23
				c-0.8-2.3-2.94-4.52-5.56-4.29c-3.48,0.29-6.23,3.17-7.33,6.42c-0.53,1.55-0.94,3.3-0.45,4.92
				C1029.66,1583.78,1030.64,1585.19,1031.96,1585.08L1031.96,1585.08z"/>
		</g>
	</g>
</g>
<g id="Ebene_2">
	<g>
		<path class="st1" d="M1139.2,1488.62c42.57,18.59,70.57,66.11,66.22,112.35s-40.73,87.7-86.02,98.03
			c-45.29,10.33-96.04-11.27-120.01-51.06c-23.97-39.79-19.32-94.75,10.98-129.96c30.3-35.21,83.96-47.98,126.87-30.2"/>
		<g>
			<path d="M1135.45,1495.12c39.97,17.8,67.11,60.6,64.88,104.52c-2.11,41.53-33.41,78.87-72.79,90.8
				c-41.53,12.59-89.43-3.72-116.15-37.56c-26.89-34.05-29.1-84.37-5.83-120.9c26.17-41.07,83.83-55.59,127.94-37.69
				c5.83,2.37,12.96-10.77,7.5-12.99c-44.61-18.11-97.77-5.39-130.51,29.6c-33.45,35.76-41.42,92.73-19.29,136.31
				c21.58,42.5,71.76,66.65,118.48,60.09c47.69-6.69,86.86-46.43,98.36-92.31c13.19-52.57-15.7-110.87-65.09-132.87
				C1137.22,1479.58,1129.99,1492.69,1135.45,1495.12L1135.45,1495.12z"/>
		</g>
	</g>
	<g>
		<path class="st1" d="M984.29,627.77c3.6-43.02,13.96-86.58,38.42-122.15c24.46-35.57,64.84-62.06,108.01-61.79
			c62.58,0.4,114.36,58.12,124,119.96s-14.68,124.55-49.36,176.64c-34.68,52.09-79.57,96.51-118.03,145.87
			c-62.66,80.43-108.54,175.98-119.27,277.37c-7.05,66.61,2.88,138.64,45.61,190.22s124.36,73.8,179.44,35.69
			c34.95-24.18,53.03-66.71,59.82-108.66c6.79-41.95,4.05-84.81,6.78-127.22c5.63-87.48,35.11-173.3,84.42-245.77
			c61.06-89.75,152.41-160.78,189.85-262.66c39.64-107.86,7.67-235.02-68.48-321.08c-76.14-86.06-191-132.61-305.75-138.68
			C1033.67,178.82,904,220.21,810.9,305.53S664.74,520.64,680.04,645.99c6.03,49.41,23.47,99.55,60,133.35
			c48.12,44.53,126.89,51.47,182.06,16.06s52.01-96.47,62.01-166.21"/>
		<g>
			<path d="M989.7,624.77c3.3-38.26,11.97-77.07,32.42-110.03c18.33-29.54,47.68-53.26,81.87-61.26
				c67.43-15.78,127.42,39.91,142.98,102.21c19.44,77.84-22.98,155.85-69.34,215.24c-25.09,32.15-52.81,62.11-78.71,93.59
				c-24.68,29.99-47.26,61.7-66.65,95.39c-37.91,65.89-64.12,139.31-70.43,215.35c-5.66,68.24,6.78,147.08,58.53,196.47
				c43.43,41.44,115.15,60.15,168.7,26.76c29.34-18.3,48.78-48.72,59.73-80.96c12.91-38.02,14.05-78.37,14.75-118.13
				c0.72-40.95,3.13-81.23,12-121.34c8.43-38.1,21.46-75.32,38.82-110.28c16.89-34.01,37.89-65.42,61.59-95.03
				c22.41-28.01,46.53-54.57,69.77-81.87c45.58-53.53,88.1-111.79,103.7-181.64c15.1-67.61,5.34-139.71-22.85-202.62
				c-29.12-64.99-77.53-118.73-137.34-157.06c-60.4-38.7-130.72-61.56-201.91-68.97c-72.2-7.52-146.27,0.83-214.96,24.31
				c-68.45,23.39-131.66,61.84-181.97,114.01c-49.64,51.47-85.81,115.7-104.57,184.66c-18.32,67.32-20.65,143.42,3.69,209.6
				c11.92,32.4,31.23,62.67,59.52,83.09c26.08,18.83,58.62,28.53,90.68,28.56c32.14,0.03,64.33-9.42,90.27-28.64
				c24.41-18.09,38.43-44.92,45.7-73.9c7.74-30.87,9.22-63.02,13.67-94.44c1.38-9.72-9.6-3.75-10.52,2.67
				c-4.49,31.67-5.94,64.11-13.87,95.21c-7.32,28.71-22.9,52.22-48.93,67.09c-56.26,32.13-133.44,21.1-178.15-25.84
				c-48.58-51.01-59.33-129.38-53.86-196.89c5.62-69.41,31.24-137.35,71.28-194.19c41.05-58.3,96.97-104.23,160.95-135.42
				c64.7-31.53,136.79-47.94,208.7-48.78c70.79-0.83,142,13.37,206.31,43.2c63.6,29.51,120.38,74.56,159.01,133.49
				c37.55,57.28,58.14,126.28,55.1,194.92c-1.51,34.21-9.42,67.76-23.25,99.08c-13.94,31.58-33.47,60.41-54.68,87.51
				c-43.47,55.54-94.45,105.1-132.99,164.47c-41.37,63.72-68.1,137.22-77.38,212.62c-5.05,41.07-3.17,82.39-5.91,123.59
				c-2.39,36-9.57,72.86-29.85,103.38c-17.76,26.74-45.49,43.89-77.41,47.32c-30.45,3.27-61.76-5.37-87.82-20.96
				c-60.65-36.29-83.72-109.1-84.67-176.33c-1.04-73.96,20.94-147.91,54.39-213.35c17.19-33.62,37.57-65.57,60.5-95.56
				c24.26-31.72,51.29-61.17,76.9-91.78c49.04-58.62,94.97-126.52,98.8-205.39c1.64-33.71-5.83-67.03-23.65-95.84
				c-16.09-26.02-40.36-48.29-69.47-58.6c-67.59-23.95-134.29,23.56-163.51,82.87c-16.08,32.64-23.42,68.39-26.53,104.44
				c-0.29,3.38,2.93,4.45,5.51,3.18C987.76,632.31,989.4,628.24,989.7,624.77L989.7,624.77z"/>
		</g>
	</g>
	<g>
		<g>
			<path d="M1047.01,1613.11c-14.4-23.56-5.07-56.74,20.38-68.03c5.29-2.35,7.94-15.98-0.21-12.37
				c-33.07,14.66-48.46,60.65-29.48,91.72C1041.06,1629.94,1050.07,1618.14,1047.01,1613.11L1047.01,1613.11z"/>
		</g>
	</g>
	<g>
		<path class="st2" d="M1100.42,1530.09c2.34-0.39,4.21,3,2.63,4.77c-2.91-1.6-3.08-6.48-0.29-8.29"/>
		<g>
			<path d="M1097.84,1536.95c0.76-0.06,0.7,0.24,0.22-0.16c0.69,0.57-0.3-0.54,0.07-0.06c0.32,0.42,0.26,0.74,0.1-0.09
				c0.04,0.12,0.07,0.23,0.11,0.35c-0.43-2.13,0.22-4.14,1.96-6.02c2.17-0.87,4.34-1.73,6.51-2.6c-0.22-0.13-0.42-0.27-0.62-0.43
				c0.8,0.63,0.17,0.12,0.05-0.14c-0.29-0.65,0.3,0.87,0.06,0.19c-0.36-1.02-0.05,0.2-0.09,0.18c-0.11-0.04,0.05-0.68-0.03-0.76
				c0.08,0.08-0.17,1.5,0,0.54c-0.17,0.99-0.59,1.9-1.15,2.73c-0.16,0.23-1.57,1.67-0.79,1.11c2.64-1.89,4.69-6.5,3.73-9.69
				c-1.07-3.55-4.5-2.31-6.68-0.75c-5.61,4.02-9.08,15.63-1.99,20c2.19,1.35,5.26-0.94,6.51-2.6c2.37-3.14,4.12-7.29,2.75-11.23
				c-0.8-2.3-2.94-4.52-5.56-4.29c-3.48,0.29-6.23,3.17-7.33,6.42c-0.53,1.55-0.94,3.3-0.45,4.92
				C1095.54,1535.64,1096.53,1537.06,1097.84,1536.95L1097.84,1536.95z"/>
		</g>
	</g>
</g>
<g id="Ebene_4">
	<g class="st0">
		<path d="M1100.42,1479.82c-51.73,1.2-113.67,55.54-116.31,107.21c-2.64,51.67,52.26,107.74,103.59,114.2
			c-42.99-10.3-82.51-67.88-76.95-111.74c5.56-43.86,40.06-84.54,91.27-109.52"/>
		<g>
			<path d="M1103,1472.96c-22.84,0.72-44.67,9.89-63.31,22.72c-19.52,13.43-36.69,31.06-48.13,51.92
				c-11.01,20.07-15.85,42.47-10.71,65.03c5.18,22.72,18.77,43.33,35.34,59.4c18.82,18.26,42.62,32.53,68.93,36.06
				c5.63,0.75,11.88-12.04,5.16-13.72c-34.1-8.52-60.75-42.48-70.69-74.84c-4.98-16.22-5.02-32.53,0.21-48.7
				c5.44-16.82,15.09-31.78,27.02-44.73c15.52-16.86,34.85-29.86,55.32-39.94c3.06-1.51,5.48-5.8,5.3-9.19
				c-0.17-3.32-2.58-4.62-5.51-3.18c-38.41,18.91-73.54,49.24-89.41,89.92c-6.96,17.85-9.59,36.78-5.68,55.64
				c3.99,19.27,13.58,37.61,25.94,52.81c13.54,16.65,31.25,30.65,52.35,35.93c1.72-4.57,3.44-9.15,5.16-13.72
				c-41.63-5.58-81.01-39.94-95.48-78.89c-7.04-18.94-6.91-38.14,1.21-56.68c8.11-18.51,22.42-34.27,38.23-46.57
				c18.02-14.02,40.45-24.82,63.6-25.55C1103.68,1486.5,1109.32,1472.76,1103,1472.96L1103,1472.96z"/>
		</g>
	</g>
	<g class="st0">
		<path d="M1244.12,667.67c-32.62,69.1-75.66,114.72-121.46,175.88c-45.8,61.16-88.57,110.88-117.85,181.46
			c-29.27,70.58-43.85,205.95-20.71,278.77s102.33,129.7,194.05,94.41c-110.77-56.9-95.25-312.29-54.86-398.18
			c39.22-83.4,138.71-246.71,133.14-395.86"/>
		<g>
			<path d="M1239.37,667.23c-30.89,65.09-79.21,118.92-122.17,176.02c-43.07,57.26-88.48,112.98-116.44,179.65
				c-10.6,25.28-17.44,52.17-22.58,79.04c-5.81,30.38-9.3,61.27-10.49,92.17c-2.1,54.32,1.09,113.97,34.16,159.5
				c16.28,22.41,38.6,40.75,64.26,51.36c27.53,11.38,57.84,13.58,86.87,7.18c8.15-1.8,16.11-4.27,23.91-7.23
				c3.42-1.3,10.6-10.34,5.02-13.24c-40.1-20.83-60.18-65.29-70.88-107.06c-13.05-50.91-14.79-104.77-10.81-156.98
				c1.84-24.13,5.17-48.22,10.31-71.88c4.02-18.52,9-36.75,16.95-54.09c10.84-23.65,23.46-46.96,35.24-70.32
				c15.26-30.25,30.08-60.74,43.48-91.87c28.84-66.96,52.51-138.34,55.57-211.73c0.37-8.88,0.39-17.76,0.08-26.63
				c-0.11-3.27-2.66-4.59-5.51-3.18c-3.05,1.51-5.42,5.81-5.3,9.19c2.58,73.78-19.31,146.41-47,214.01
				c-23.86,58.26-54.1,113.29-81.43,169.9c-19.11,39.58-27.46,83.36-31.81,126.86c-5.33,53.28-4.65,107.97,6.31,160.53
				c9.13,43.74,26.75,91.24,64.41,118.33c4.1,2.95,8.41,5.57,12.9,7.9c1.67-4.41,3.35-8.83,5.02-13.24
				c-28.77,10.91-59.79,13.98-89.72,6.02c-26.43-7.03-50.5-22.57-68.66-42.9c-17.47-19.55-29.34-43-35.38-68.47
				c-6.33-26.68-7.82-54.45-7.57-81.79c0.28-30.4,3.07-60.78,8.04-90.77c4.44-26.81,10.45-53.59,19.91-79.11
				c23.68-63.91,66.75-117.68,107.54-171.32c21.62-28.42,43.7-56.45,65.48-84.75c21.07-27.37,41.12-55.63,57.6-86.05
				c4.31-7.95,8.33-16.03,12.2-24.19c1.14-2.39,1.08-6.78-2.17-7.3C1243.19,660.24,1240.56,664.72,1239.37,667.23L1239.37,667.23z"
				/>
		</g>
	</g>
	<g class="st0">
		<path d="M1102.79,185.74c-78.64,13.53-188.75,42.64-251.09,88.61S725.28,410.57,696.96,482.66c-28.32,72.1-23.49,187,11.53,256.09
			c35.02,69.09,101.39,98.04,188.47,69.32c-53.87-13.75-108.77-48.36-124.03-101.82s-8.66-110.99,6.23-164.56
			c40.2-144.6,149.06-268.63,322.12-351.63"/>
		<g>
			<path d="M1104.06,178.99c-68.83,11.89-138.4,29.56-201.72,59.58c-29.95,14.2-57.05,32.3-81.22,55.01
				c-27.26,25.61-51.18,54.72-72.42,85.45c-20.58,29.78-38.91,61.32-53.03,94.69c-12.81,30.3-19.18,62.54-21.52,95.28
				c-2.48,34.68-0.4,69.83,6.21,103.97c6.03,31.17,16.12,62.38,33.66,89.08c15.75,23.97,37.97,43.8,64.86,54.32
				c28.97,11.33,60.67,11.71,90.87,5.45c8.78-1.82,17.42-4.22,25.94-7c4.14-1.35,10.77-11.82,3.85-13.61
				c-47.49-12.28-98.37-40.97-117.66-88.55c-11.65-28.74-13.54-61.95-11.68-92.58c1.86-30.52,8.29-60.87,17.26-90.05
				c13.61-44.31,33.86-86.29,59.66-124.78c27.39-40.85,61.07-77.36,98.44-109.24c41.53-35.43,87.66-65.17,136.2-90.03
				c6.5-3.33,13.05-6.56,19.63-9.73c5.19-2.5,7.81-16.22-0.21-12.37c-51.79,24.9-101.19,55-145.92,91.17
				c-40.2,32.51-76.59,70.06-106.62,112.2c-28.5,40-51.43,83.91-67.05,130.51c-19.86,59.28-31.12,125.1-15.56,186.7
				c13.42,53.13,59.7,87.88,109.62,104.88c6.17,2.1,12.41,3.96,18.72,5.59c1.28-4.54,2.57-9.07,3.85-13.61
				c-30.25,9.87-62.65,14.5-94.05,7.47c-26.66-5.97-50.55-20.87-68.37-41.49c-19.85-22.98-31.98-51.29-39.79-80.38
				c-8.62-32.14-12.27-65.59-12.03-98.83c0.23-32.02,3.94-64.71,14.16-95.18c10.56-31.48,27.14-61.23,44.9-89.15
				c36.04-56.67,81.92-111.68,141.84-143.91c30.08-16.18,62.27-28.24,94.83-38.37c32.59-10.15,65.81-18.3,99.3-24.86
				c7.48-1.47,14.98-2.84,22.49-4.14C1107.04,191.53,1111.67,177.68,1104.06,178.99L1104.06,178.99z"/>
		</g>
	</g>
</g>
<g id="Ebene_5">
	<g class="st0">
		<g>
			<path class="st3" d="M1245.38,269.26c5.61,1.56,11.17,3.29,16.65,5.25c2.74,0.98,5.46,2.01,8.15,3.09
				c1.35,0.54,2.69,1.09,4.03,1.66c0.59,0.25,6.13,2.72,2.74,1.16c10.56,4.86,20.77,10.49,30.52,16.81
				c19.79,12.82,36.46,27.49,52.06,45.67c32.19,37.5,52.28,83.3,57.15,132.53c11.64,117.61-53.12,224.06-112.77,319.68
				c-34.53,55.35-68.87,111.02-91.88,172.35c-1.07,2.86,6.29,5.81,7.32,6.19c5.34,1.97,12.06,2.65,17.68,2.56
				c7.61-0.12,21.78-0.16,25-8.75c41.35-110.21,121.23-200.28,168.3-307.67c23.45-53.49,40.06-111.52,37.36-170.42
				c-2.34-51.1-20.38-100.48-51.67-140.97c-33.81-43.75-81.94-76.74-135.29-91.53c-11.02-3.05-24.45-4.34-35.36,0
				c-2.62,1.04-7.32,2.67-7.32,6.19C1238.06,266.37,1242.97,268.59,1245.38,269.26L1245.38,269.26z"/>
		</g>
	</g>
	<g class="st0">
		<g>
			<path class="st3" d="M1127.55,1562.54c8.34,18.89,8,41.26,1.84,60.71c-2.99,9.45-7.86,18.37-13.84,26.26
				c-6.88,9.07-13.11,14.59-22.42,20.01c-9.5,5.53,4.06,11.03,8.97,11.97c10.51,2.02,24.55,2.48,34.2-3.14
				c41.03-23.86,58.61-77.09,39.46-120.46c-1.32-3-9.15-4.73-11.49-5.23c-6.06-1.29-13.12-1.6-19.26-0.88
				C1139.78,1552.38,1123.86,1554.18,1127.55,1562.54L1127.55,1562.54z"/>
		</g>
	</g>
</g>
</svg>
