<?xml version="1.0" encoding="utf-8"?>
<!-- Generator: Adobe Adobe Illustrator 24.2.0, SVG Export Plug-In . SVG Version: 6.00 Build 0)  -->
<svg version="1.1" xmlns="http://www.w3.org/2000/svg" xmlns:xlink="http://www.w3.org/1999/xlink" x="0px" y="0px"
	 viewBox="0 0 170.08 170.08" style="enable-background:new 0 0 170.08 170.08;" xml:space="preserve">
<style type="text/css">
	.st0{fill:#6CB66F;}
	.st1{fill:#6CB570;}
	.st2{fill:#F3C057;}
	.st3{fill:#F3C059;}
	.st4{fill:#92625F;}
	.st5{fill:#91625D;}
	.st6{fill:#DC7A37;}
	.st7{fill:#DB7B39;}
	.st8{fill:#B35A1E;}
	.st9{fill:#FFFFFF;}
	.st10{fill:#FBCBD9;stroke:#FFFFFF;stroke-width:1.6378;stroke-miterlimit:10;}
	.st11{fill:none;stroke:#000000;stroke-width:1.6131;stroke-miterlimit:10;}
	.st12{fill:#FFFFFF;stroke:#FFFFFF;stroke-width:0.1385;stroke-miterlimit:10;}
	.st13{opacity:0.0902;}
</style>
<g id="Ebene_4">
</g>
<g id="Ebene_5">
	<g>
		<path class="st0" d="M142.4,50.36c1.78,2.5,4.44,4.48,7.48,4.93c3.03,0.45,6.39-0.85,7.92-3.5c1.53-2.66,0.76-6.54-1.92-8.04
			c1.58,1.49,4.39,1.13,5.8-0.52c1.41-1.66,1.43-4.22,0.35-6.11s-3.1-3.11-5.22-3.58c1.99-2.48,2.98-6.02,1.61-8.89
			s-5.6-4.23-7.93-2.07c0.03-3.67-2.92-7.13-6.54-7.69c-3.63-0.55-7.47,1.88-8.53,5.39c-1.61-4.09-6.54-6.53-10.76-5.35
			c-4.23,1.19-7.16,5.84-6.4,10.17c-1.25-1.84-4.14-2.11-5.92-0.77c-1.77,1.34-2.37,3.9-1.72,6.03s2.39,3.81,4.4,4.77
			c-1.54-0.08-2.95,1.07-3.54,2.49c-0.59,1.42-0.48,3.04-0.07,4.53c0.53,1.93,1.63,3.82,3.4,4.75c1.77,0.93,4.28,0.59,5.36-1.1
			c0.94,2.78,3.22,5.29,6.13,5.69s6.12-2.02,5.87-4.94c0.3,2.37,2.11,4.48,4.41,5.14c2.3,0.66,4.95-0.17,6.47-2.02"/>
		<g>
			<path class="st1" d="M141.53,50.87c3.26,4.46,9.3,7.36,14.46,4.13c4.28-2.68,4.99-9.33,0.39-12.12
				c-0.95-0.57-2.09,0.82-1.21,1.57c3.09,2.64,7.77,0.66,8.5-3.22c0.82-4.34-2.67-7.7-6.6-8.67c0.2,0.49,0.4,0.98,0.6,1.47
				c2.34-3.03,3.51-7.77,0.89-11.01c-2.11-2.61-6.14-3.42-8.77-1.16c0.57,0.24,1.14,0.47,1.71,0.71c-0.07-4.22-3.29-8.13-7.54-8.69
				c-4.16-0.55-8.2,2.2-9.5,6.13c0.64,0,1.29,0,1.93,0c-1.89-4.52-6.99-7.34-11.83-6.09c-4.96,1.28-8.02,6.51-7.27,11.44
				c0.61-0.26,1.22-0.51,1.83-0.77c-2.44-3.26-7.44-2.49-9.12,1.13c-1.93,4.14,0.79,8.39,4.52,10.27c0.17-0.62,0.34-1.24,0.5-1.86
				c-2.12,0.02-3.87,1.45-4.58,3.42c-0.81,2.27-0.23,4.96,0.85,7.04c0.97,1.86,2.64,3.41,4.76,3.74c1.95,0.3,3.82-0.41,4.98-2.03
				c-0.61-0.08-1.22-0.16-1.83-0.24c1.17,3.24,3.89,6.36,7.58,6.46c3.28,0.09,6.53-2.58,6.38-5.98c-0.65,0.09-1.31,0.18-1.96,0.27
				c0.96,6,8.58,8.11,12.55,3.56c0.84-0.97-0.57-2.39-1.41-1.41c-3.04,3.49-8.48,1.86-9.21-2.68c-0.18-1.11-2.01-0.85-1.96,0.27
				c0.1,2.45-2.42,4.25-4.75,3.95c-2.58-0.34-4.46-2.64-5.29-4.96c-0.3-0.84-1.32-0.95-1.83-0.24c-0.74,1.04-2.16,1.3-3.34,0.98
				c-1.35-0.36-2.32-1.5-2.94-2.69c-1.16-2.24-1.78-7.41,2-7.45c0.95-0.01,1.42-1.4,0.5-1.86c-2.53-1.27-4.72-3.76-4.04-6.78
				c0.3-1.32,1.19-2.51,2.54-2.88c1.18-0.32,2.61-0.02,3.37,0.99c0.69,0.92,2,0.37,1.83-0.77c-0.59-3.88,2.06-8,5.87-8.98
				c3.68-0.95,7.91,1.19,9.37,4.69c0.37,0.89,1.6,1.01,1.93,0c0.97-2.95,4.1-5.08,7.23-4.7c3.3,0.4,5.83,3.47,5.88,6.73
				c0.02,0.91,1.06,1.26,1.71,0.71c1.88-1.61,4.97-0.5,6.14,1.46c1.6,2.68,0.35,6.03-1.39,8.29c-0.4,0.51,0.03,1.33,0.6,1.47
				c2.62,0.64,5.17,2.46,5.25,5.39c0.04,1.28-0.48,2.62-1.61,3.3c-1.1,0.66-2.59,0.7-3.6-0.15c-0.4,0.52-0.81,1.05-1.21,1.57
				c1.54,0.93,2.29,2.69,2.2,4.46c-0.11,2.03-1.42,3.66-3.2,4.55c-4.11,2.06-8.62-0.36-11.11-3.76
				C142.51,48.83,140.77,49.83,141.53,50.87L141.53,50.87z"/>
		</g>
	</g>
	<g>
		<path class="st0" d="M36.44,47c2.1,1.05,4.46,1.58,6.8,1.52c2.56-0.06,5.26-0.93,6.8-2.98c1.54-2.05,1.4-5.41-0.74-6.81
			c2.69-0.88,4.87-3.16,5.64-5.88c0.4-1.43,0.4-3.03-0.36-4.3s-2.41-2.05-3.79-1.51c1.1-1.7,0.98-4.02-0.02-5.78
			c-1.01-1.76-2.79-2.98-4.71-3.63c-1.27-0.42-2.65-0.62-3.95-0.28c-1.3,0.33-2.49,1.25-2.91,2.52c0.72-1.76,0.24-3.89-0.99-5.35
			s-3.12-2.26-5.02-2.4c-1.91-0.14-3.91,0.38-5.35,1.64c-1.45,1.26-2.25,3.28-1.84,5.15c-1.83-2.86-6.15-3.02-9.14-1.41
			c-1.88,1.01-3.51,2.66-4.01,4.73c-0.5,2.07,0.39,4.53,2.33,5.42c-3.36-0.15-5.93,3.24-6.45,6.57c-0.25,1.62-0.14,3.4,0.82,4.73
			c0.96,1.33,2.97,1.98,4.33,1.06c-1.37,1.3-2.57,2.88-2.97,4.72c-0.4,1.85,0.13,3.98,1.66,5.09c1.66,1.21,3.96,0.95,5.91,0.31
			c2.95-0.96,5.64-2.68,7.75-4.95c-0.26,2.26,1.95,4.26,4.22,4.39c2.27,0.13,4.41-1.18,5.95-2.84"/>
		<g>
			<path class="st1" d="M35.94,47.87c4.06,1.96,9.61,2.61,13.43-0.27c3.11-2.34,3.82-7.28,0.43-9.72c-0.08,0.61-0.16,1.22-0.24,1.83
				c3.32-1.17,6.01-4.02,6.54-7.58c0.48-3.25-1.81-7.24-5.58-6.05c0.38,0.49,0.75,0.98,1.13,1.47c2.14-3.63,0.21-7.89-3.19-9.9
				c-3.36-1.99-8.55-2.27-10.23,1.96c0.64,0.18,1.29,0.35,1.93,0.53c1.68-4.7-2.53-8.69-6.98-9.01c-4.6-0.34-9.01,3.2-8.16,8.06
				c0.61-0.26,1.22-0.51,1.83-0.77c-2.58-3.76-8.01-3.58-11.47-1.18c-1.89,1.31-3.45,3.31-3.65,5.67c-0.19,2.26,0.89,4.57,2.94,5.62
				c0.17-0.62,0.34-1.24,0.5-1.86c-4.2-0.04-7.01,3.97-7.48,7.81c-0.24,1.98,0.07,4.24,1.59,5.69c1.37,1.31,3.45,1.69,5.1,0.72
				c-0.4-0.52-0.81-1.05-1.21-1.57c-1.78,1.73-3.33,3.92-3.39,6.49c-0.06,2.34,1.17,4.61,3.4,5.48c2.34,0.91,4.99,0.15,7.19-0.79
				c2.48-1.06,4.7-2.63,6.56-4.59c-0.57-0.24-1.14-0.47-1.71-0.71c-0.15,2.55,1.86,4.72,4.27,5.26c2.88,0.65,5.68-1,7.6-3.01
				c0.89-0.93-0.52-2.35-1.41-1.41c-1.34,1.4-3.19,2.74-5.24,2.55c-1.76-0.16-3.33-1.57-3.22-3.39c0.05-0.87-1.13-1.31-1.71-0.71
				c-2.51,2.64-6.48,5.36-10.3,5.19c-2.1-0.1-3.43-1.62-3.44-3.69c-0.01-2.11,1.37-3.86,2.81-5.26c0.82-0.79-0.23-2.14-1.21-1.57
				c-1.28,0.75-2.76-0.11-3.35-1.34c-0.61-1.26-0.5-2.86-0.15-4.18c0.65-2.48,2.53-5,5.3-4.97c0.96,0.01,1.4-1.4,0.5-1.86
				c-1.57-0.81-2.24-2.6-1.87-4.29c0.38-1.72,1.75-3.09,3.22-3.95c2.42-1.42,6.32-1.73,8.1,0.87c0.66,0.96,2.02,0.35,1.83-0.77
				c-0.63-3.6,3.07-5.78,6.23-5.52c3.24,0.26,6.27,3.06,5.05,6.48c-0.44,1.23,1.46,1.7,1.93,0.53c1.22-3.07,5.54-1.92,7.62-0.56
				c2.29,1.5,3.64,4.43,2.14,6.97c-0.43,0.73,0.29,1.73,1.13,1.47c1.15-0.36,2.26,0.25,2.78,1.3c0.59,1.18,0.4,2.62-0.03,3.82
				c-0.79,2.18-2.59,3.89-4.77,4.66c-0.85,0.3-0.95,1.32-0.24,1.83c1.14,0.82,1.45,2.32,1.19,3.64c-0.3,1.55-1.43,2.68-2.8,3.38
				c-3.15,1.59-7.17,1.01-10.24-0.47C35.79,45.58,34.78,47.31,35.94,47.87L35.94,47.87z"/>
		</g>
	</g>
</g>
<g id="Ebene_14">
	<g>
		<g>
			<path class="st1" d="M15.13,125.43c0.18,1.38,0.36,2.77,0.54,4.15c0.04,0.28,0.09,0.5,0.29,0.71c0.17,0.17,0.46,0.3,0.71,0.29
				c0.48-0.02,1.07-0.44,1-1c-0.18-1.38-0.36-2.77-0.54-4.15c-0.04-0.28-0.09-0.5-0.29-0.71c-0.17-0.17-0.46-0.3-0.71-0.29
				C15.65,124.45,15.06,124.87,15.13,125.43L15.13,125.43z"/>
		</g>
	</g>
	<g>
		<g>
			<path class="st1" d="M23.47,128.23c-0.07,0.38-0.12,0.78-0.12,1.17c0,0.39,0.05,0.78,0.12,1.17c0.04,0.23,0.26,0.48,0.46,0.6
				c0.21,0.13,0.53,0.18,0.77,0.1c0.24-0.08,0.48-0.23,0.6-0.46c0.03-0.08,0.07-0.16,0.1-0.24c0.05-0.18,0.05-0.35,0-0.53
				c-0.01-0.08-0.03-0.16-0.04-0.24c0.01,0.09,0.02,0.18,0.04,0.27c-0.06-0.44-0.06-0.88,0-1.32c-0.01,0.09-0.02,0.18-0.04,0.27
				c0.01-0.08,0.02-0.16,0.04-0.24c0.04-0.13,0.05-0.27,0.02-0.4c-0.01-0.13-0.05-0.26-0.12-0.37c-0.12-0.21-0.36-0.41-0.6-0.46
				c-0.26-0.06-0.54-0.05-0.77,0.1C23.72,127.77,23.52,127.98,23.47,128.23L23.47,128.23z"/>
		</g>
	</g>
	<g>
		<g>
			<path class="st1" d="M32.33,122.1c-0.72,1.8-1.22,3.67-1.49,5.59c-0.07,0.52,0.13,1.1,0.7,1.23c0.47,0.11,1.15-0.14,1.23-0.7
				c0.27-1.92,0.77-3.79,1.49-5.59c0.2-0.49-0.21-1.12-0.7-1.23C32.98,121.27,32.53,121.58,32.33,122.1L32.33,122.1z"/>
		</g>
	</g>
	<g>
		<g>
			<path class="st1" d="M36.21,124.21c-0.9,1.59-1.57,3.32-1.94,5.1c-0.11,0.51,0.15,1.1,0.7,1.23c0.5,0.11,1.12-0.15,1.23-0.7
				c0.17-0.84,0.41-1.66,0.71-2.46c0.07-0.19,0.15-0.39,0.23-0.58c-0.09,0.21,0.06-0.13,0.08-0.17c0.04-0.08,0.07-0.16,0.11-0.24
				c0.19-0.4,0.39-0.79,0.61-1.18c0.26-0.45,0.12-1.11-0.36-1.37C37.11,123.6,36.49,123.72,36.21,124.21L36.21,124.21z"/>
		</g>
	</g>
	<g>
		<g>
			<path class="st1" d="M37.91,127.33c-0.28,0.92-0.28,1.95,0,2.88c0.07,0.24,0.24,0.47,0.46,0.6c0.21,0.13,0.53,0.18,0.77,0.1
				c0.5-0.16,0.86-0.69,0.7-1.23c-0.06-0.2-0.11-0.41-0.14-0.62c0.01,0.09,0.02,0.18,0.04,0.27c-0.05-0.35-0.05-0.71,0-1.06
				c-0.01,0.09-0.02,0.18-0.04,0.27c0.03-0.23,0.08-0.45,0.15-0.66c0.15-0.5-0.18-1.11-0.7-1.23
				C38.6,126.51,38.07,126.79,37.91,127.33L37.91,127.33z"/>
		</g>
	</g>
	<g>
		<g>
			<path class="st1" d="M116.16,128.09c0.68,1.14,1.69,2.11,2.87,2.72c0.24,0.12,0.51,0.17,0.77,0.1c0.23-0.06,0.48-0.24,0.6-0.46
				c0.12-0.23,0.18-0.51,0.1-0.77c-0.08-0.24-0.23-0.48-0.46-0.6c-0.33-0.17-0.65-0.37-0.95-0.6c0.07,0.05,0.13,0.1,0.2,0.16
				c-0.42-0.33-0.8-0.71-1.13-1.13c0.05,0.07,0.1,0.13,0.16,0.2c-0.16-0.2-0.3-0.41-0.43-0.63c-0.13-0.22-0.35-0.39-0.6-0.46
				c-0.24-0.07-0.56-0.04-0.77,0.1C116.07,127.01,115.87,127.61,116.16,128.09L116.16,128.09z"/>
		</g>
	</g>
	<g>
		<g>
			<path class="st1" d="M119.4,125.57c0.55,1.19,1.28,2.28,2.12,3.28c0.16,0.19,0.47,0.29,0.71,0.29c0.25,0,0.54-0.11,0.71-0.29
				c0.17-0.19,0.3-0.44,0.29-0.71c-0.01-0.28-0.11-0.5-0.29-0.71c-0.13-0.15-0.26-0.31-0.38-0.47c0.05,0.07,0.1,0.13,0.16,0.2
				c-0.63-0.81-1.16-1.69-1.59-2.61c-0.1-0.21-0.38-0.4-0.6-0.46c-0.24-0.07-0.56-0.04-0.77,0.1c-0.21,0.14-0.4,0.34-0.46,0.6
				C119.24,125.07,119.29,125.31,119.4,125.57L119.4,125.57z"/>
		</g>
	</g>
	<g>
		<g>
			<path class="st1" d="M123.45,123.18c-0.28,1.21-0.37,2.46-0.23,3.69c0.03,0.27,0.09,0.5,0.29,0.71c0.17,0.17,0.46,0.3,0.71,0.29
				c0.26-0.01,0.53-0.1,0.71-0.29c0.17-0.18,0.32-0.45,0.29-0.71c-0.09-0.82-0.09-1.65,0.02-2.47c-0.01,0.09-0.02,0.18-0.04,0.27
				c0.04-0.32,0.1-0.64,0.18-0.96c0.12-0.51-0.16-1.11-0.7-1.23C124.17,122.36,123.58,122.63,123.45,123.18L123.45,123.18z"/>
		</g>
	</g>
	<g>
		<g>
			<path class="st1" d="M128.41,124.2c-0.42,0.78-0.85,1.56-1.27,2.34c-0.13,0.23-0.17,0.51-0.1,0.77c0.06,0.23,0.24,0.48,0.46,0.6
				c0.47,0.25,1.1,0.13,1.37-0.36c0.42-0.78,0.85-1.56,1.27-2.34c0.13-0.23,0.17-0.51,0.1-0.77c-0.06-0.23-0.24-0.48-0.46-0.6
				C129.31,123.59,128.67,123.7,128.41,124.2L128.41,124.2z"/>
		</g>
	</g>
	<g>
		<g>
			<path class="st1" d="M155.03,124.26c-0.62,1.83-1.12,3.69-1.48,5.59c-0.1,0.51,0.14,1.1,0.7,1.23c0.49,0.11,1.12-0.15,1.23-0.7
				c0.36-1.89,0.86-3.76,1.48-5.59c0.17-0.5-0.19-1.12-0.7-1.23C155.71,123.44,155.21,123.73,155.03,124.26L155.03,124.26z"/>
		</g>
	</g>
	<g>
		<g>
			<path class="st1" d="M157.66,127.09c-0.66,1.26-1.32,2.53-1.98,3.79c-0.24,0.46-0.13,1.11,0.36,1.37
				c0.46,0.24,1.11,0.14,1.37-0.36c0.66-1.26,1.32-2.53,1.98-3.79c0.24-0.46,0.13-1.11-0.36-1.37
				C158.57,126.49,157.92,126.6,157.66,127.09L157.66,127.09z"/>
		</g>
	</g>
	<g>
		<g>
			<path class="st1" d="M158.74,130.52c-0.54,1.02-1.08,2.05-1.62,3.07c-0.24,0.46-0.13,1.11,0.36,1.37
				c0.46,0.24,1.11,0.13,1.37-0.36c0.54-1.02,1.08-2.05,1.62-3.07c0.24-0.46,0.13-1.11-0.36-1.37
				C159.64,129.91,159,130.02,158.74,130.52L158.74,130.52z"/>
		</g>
	</g>
	<g>
		<g>
			<path class="st1" d="M143.3,129.12c0.19,1.23,0.49,2.44,0.9,3.61c0.17,0.49,0.69,0.87,1.23,0.7c0.49-0.16,0.88-0.7,0.7-1.23
				c-0.41-1.17-0.71-2.38-0.9-3.61c-0.04-0.23-0.27-0.49-0.46-0.6c-0.21-0.13-0.53-0.18-0.77-0.1c-0.24,0.08-0.48,0.23-0.6,0.46
				C143.26,128.61,143.25,128.84,143.3,129.12L143.3,129.12z"/>
		</g>
	</g>
</g>
<g id="Ebene_6">
	<g>
		<path class="st2" d="M77.1,32.92c-0.91-1.73-3.24-2.23-5.15-1.79c-2.5,0.58-4.72,2.64-5.02,5.19c-0.3,2.55,1.71,5.27,4.27,5.33
			c0.8,0.02,1.58-0.2,2.34-0.45c1.72-0.57,3.47-1.39,4.46-2.91c0.99-1.52,0.84-3.88-0.72-4.8"/>
		<g>
			<path class="st3" d="M77.97,32.42c-1.32-2.37-4.48-2.88-6.88-2.07c-2.47,0.83-4.66,2.91-5.09,5.56
				c-0.43,2.67,1.11,5.48,3.65,6.45c1.43,0.54,2.93,0.23,4.33-0.24c1.35-0.46,2.66-1.05,3.74-1.98c2.19-1.88,2.82-5.77,0.08-7.5
				c-1.09-0.69-2.1,1.04-1.01,1.73c1.47,0.92,0.83,3.08-0.18,4.08c-0.74,0.74-1.71,1.22-2.68,1.58c-0.98,0.37-2.13,0.81-3.19,0.58
				c-1.69-0.36-2.86-2.15-2.83-3.82c0.03-1.91,1.51-3.49,3.15-4.28c1.61-0.77,4.2-0.85,5.19,0.93
				C76.87,34.55,78.59,33.54,77.97,32.42L77.97,32.42z"/>
		</g>
	</g>
</g>
<g id="Ebene_7">
	<g>
		<path class="st4" d="M130.5,52.02c4.19,4.13,7.99,8.92,9.59,14.59c0.74,2.62,0.99,5.35,1.16,8.07c0.9,14.59-0.51,29.22-2.31,43.73
			c-0.43,3.49-1.03,7.27-3.57,9.71c-1.04,1-2.49,1.98-2.36,3.42c1.26-0.54,2.63-1.09,3.97-0.82c0.85,0.17,1.61,0.66,2.4,1.02
			c1,0.46,2.08,0.71,3.15,0.97c3.78,0.9,7.65,1.81,11.52,1.42c-4.4-6.35-4.59-14.61-4.61-22.33c-0.03-9.56-0.06-19.12-0.09-28.69
			c-0.03-8.98-0.05-17.98,1.15-26.88c-2.57-0.38-5.03-1.43-7.08-3.02c0.01,2.77-0.17,5.53-0.54,8.27c-2.99-1.8-5.42-4.5-6.89-7.67
			c-0.85,0.38-1.89-0.01-2.54-0.68c-0.64-0.67-0.98-1.58-1.28-2.46c-0.28,0.29-0.57,0.58-0.85,0.87"/>
		<g>
			<path class="st5" d="M129.79,52.73c3.6,3.56,6.97,7.59,8.76,12.4c2.03,5.45,1.92,11.68,1.97,17.43
				c0.11,11.99-1.08,23.97-2.58,35.85c-0.32,2.54-0.69,5.25-2.05,7.47c-1.2,1.96-3.9,3.1-3.88,5.66c0,0.58,0.65,1.22,1.27,0.96
				c0.89-0.37,1.83-0.81,2.81-0.85c0.97-0.04,1.76,0.46,2.6,0.86c1.44,0.68,2.98,1.02,4.53,1.39c3.56,0.83,7.17,1.55,10.84,1.23
				c0.69-0.06,1.33-0.82,0.86-1.5c-5.3-7.81-4.46-18.03-4.49-27.02c-0.03-10.77-0.18-21.54-0.05-32.31
				c0.07-6.04,0.34-12.07,1.13-18.06c0.05-0.39-0.35-0.9-0.73-0.96c-2.52-0.41-4.8-1.38-6.84-2.92c-0.63-0.47-1.51,0.17-1.5,0.86
				c0,2.77-0.18,5.53-0.54,8.27c0.5-0.29,1-0.58,1.5-0.86c-2.87-1.77-5.08-4.27-6.54-7.31c-0.18-0.38-0.74-0.59-1.13-0.46
				c-1.5,0.49-2.2-1.33-2.58-2.45c-0.24-0.69-1.12-1.01-1.67-0.44c-0.28,0.29-0.57,0.58-0.85,0.87c-0.9,0.92,0.51,2.34,1.41,1.41
				c0.28-0.29,0.57-0.58,0.85-0.87c-0.56-0.15-1.11-0.29-1.67-0.44c0.75,2.18,2.34,4.72,5.04,3.84c-0.38-0.15-0.75-0.31-1.13-0.46
				c1.59,3.33,4.11,6.09,7.25,8.03c0.72,0.44,1.41-0.16,1.5-0.86c0.37-2.74,0.55-5.5,0.54-8.27c-0.5,0.29-1,0.58-1.5,0.86
				c2.16,1.62,4.65,2.68,7.32,3.12c-0.24-0.32-0.49-0.64-0.73-0.96c-1.44,10.87-1.17,21.88-1.13,32.81
				c0.02,5.52,0.03,11.05,0.05,16.57c0.01,4.93-0.13,9.9,0.31,14.82c0.45,5.01,1.59,9.99,4.45,14.2c0.29-0.5,0.58-1,0.86-1.5
				c-3.96,0.34-7.83-0.54-11.66-1.48c-0.85-0.21-1.7-0.42-2.51-0.77c-0.74-0.32-1.44-0.78-2.22-1.01c-1.7-0.52-3.35,0.04-4.92,0.71
				c0.42,0.32,0.84,0.64,1.27,0.96c0-1.1,1.1-1.8,1.82-2.48c0.87-0.81,1.6-1.75,2.15-2.81c1.09-2.12,1.52-4.48,1.83-6.82
				c0.79-5.87,1.42-11.78,1.92-17.69c0.52-6.22,0.84-12.45,0.8-18.69c-0.03-5.8,0.08-12.11-1.77-17.68
				c-1.82-5.47-5.5-10.04-9.55-14.05C130.29,50.41,128.88,51.82,129.79,52.73L129.79,52.73z"/>
		</g>
	</g>
	<g>
		<path class="st4" d="M19.02,52.86c2.1,24.69,1.99,49.57-0.34,74.24c0.63-0.53,1.27-1.07,1.9-1.6c1.09,0.31,1.45,1.76,2.47,2.27
			c0.96,0.48,2.08-0.05,3.08-0.42c1-0.37,2.39-0.45,2.89,0.5c-1.39-11.36-2.26-22.78-2.6-34.22c-0.23-7.78-0.22-15.65,1.5-23.25
			c1.72-7.59,5.27-14.97,11.15-20.08c-1.11-0.11-2.13-0.86-2.58-1.88c-0.17,1.53-1.85,2.31-3.23,3c-3.24,1.62-5.95,4.3-7.6,7.52
			c-0.3-3.17-0.59-6.35-0.89-9.52c-1.09,1.5-2.67,2.65-4.44,3.21"/>
		<g>
			<path class="st5" d="M18.02,52.86c1.63,19.26,1.93,38.63,0.88,57.93c-0.3,5.44-0.7,10.88-1.21,16.31
				c-0.09,0.95,1.11,1.21,1.71,0.71c0.63-0.53,1.27-1.07,1.9-1.6c-0.32,0.09-0.65,0.17-0.97,0.26c0.66,0.26,1.02,1.18,1.53,1.66
				c0.5,0.48,1.12,0.77,1.82,0.82c0.83,0.06,1.59-0.21,2.36-0.48c0.53-0.19,1.72-0.73,2.14-0.1c0.49,0.73,1.99,0.57,1.86-0.5
				c-1.34-11.03-2.21-22.13-2.57-33.24c-0.34-10.32-0.34-20.97,3.5-30.72c1.93-4.9,4.86-9.39,8.82-12.88
				c0.53-0.47,0.29-1.56-0.44-1.67c-0.94-0.15-1.55-0.57-1.98-1.42c-0.37-0.74-1.67-0.6-1.83,0.24c-0.22,1.23-1.46,1.74-2.47,2.25
				c-1.19,0.6-2.3,1.28-3.34,2.1c-2.04,1.61-3.7,3.63-4.92,5.93c0.62,0.17,1.24,0.34,1.86,0.5c-0.3-3.17-0.59-6.35-0.89-9.52
				c-0.1-1.03-1.26-1.3-1.86-0.5c-0.99,1.29-2.31,2.22-3.84,2.75c-1.21,0.42-0.69,2.35,0.53,1.93c2.07-0.71,3.72-1.94,5.04-3.67
				c-0.62-0.17-1.24-0.34-1.86-0.5c0.3,3.17,0.59,6.35,0.89,9.52c0.09,0.91,1.36,1.46,1.86,0.5c1.35-2.55,3.28-4.75,5.72-6.3
				c1.88-1.2,4.74-1.93,5.21-4.46c-0.61,0.08-1.22,0.16-1.83,0.24c0.63,1.26,1.78,2.12,3.17,2.34c-0.15-0.56-0.29-1.11-0.44-1.67
				C31.1,56,27.43,65.4,26.11,74.81c-1.56,11.03-0.72,22.45,0.05,33.52c0.45,6.52,1.08,13.03,1.87,19.52
				c0.62-0.17,1.24-0.34,1.86-0.5c-0.98-1.45-2.69-1.43-4.21-0.89c-0.54,0.19-1.1,0.48-1.68,0.47c-0.64-0.02-0.91-0.4-1.29-0.87
				c-0.54-0.69-1.03-1.19-1.86-1.52c-0.34-0.14-0.72,0.04-0.97,0.26c-0.63,0.53-1.27,1.07-1.9,1.6c0.57,0.24,1.14,0.47,1.71,0.71
				c1.8-19.25,2.28-38.61,1.4-57.92c-0.25-5.45-0.61-10.89-1.06-16.32C19.91,51.59,17.91,51.58,18.02,52.86L18.02,52.86z"/>
		</g>
	</g>
</g>
<g id="Ebene_8">
	<g>
		<path class="st6" d="M30.4,82.35c3.93,7.6,10.04,13.96,17.11,18.79s15.07,8.16,23.31,10.48c3.55,1,7.19,1.81,10.87,1.95
			c3.2,0.12,6.39-0.29,9.56-0.73c4.04-0.57,8.08-1.22,12.01-2.33c6.52-1.84,12.67-4.96,18.02-9.12c2.04,0.47,4.16,0.63,6.25,0.48
			c-6.74,6.49-13.57,13.04-21.65,17.74s-17.68,7.45-26.87,5.67c-2.88-0.56-5.66-1.55-8.41-2.58c-10.74-4.05-21.57-9.2-28.75-18.15
			c-3.17-3.95-5.5-8.49-7.81-13c-1.5-2.92-3.01-5.88-3.82-9.06"/>
		<g>
			<path class="st7" d="M29.54,82.85c6.17,11.78,17.05,20.28,29.09,25.51c6.38,2.77,13.27,5.12,20.19,5.97
				c3.78,0.46,7.52,0.17,11.27-0.34c3.74-0.5,7.48-1.06,11.16-1.94c7.45-1.78,14.47-5.13,20.53-9.81c-0.26,0.03-0.51,0.07-0.77,0.1
				c2.15,0.47,4.32,0.65,6.52,0.52c-0.24-0.57-0.47-1.14-0.71-1.71c-11.35,10.92-24.27,23.12-40.99,23.64
				c-8.04,0.25-15.84-3.11-23.02-6.39c-6.71-3.05-13.19-6.89-18.28-12.3c-3.09-3.29-5.45-7.14-7.58-11.11
				c-2.19-4.1-4.58-8.28-5.78-12.8c-0.33-1.24-2.26-0.72-1.93,0.53c1.1,4.13,3.19,7.92,5.15,11.69c1.97,3.77,4.07,7.49,6.74,10.82
				c4.83,6.02,11.4,10.39,18.27,13.76c3.5,1.71,7.1,3.2,10.74,4.57c3.98,1.51,8,2.82,12.27,3.15c8.24,0.63,16.5-1.99,23.59-6.04
				c8.35-4.77,15.35-11.49,22.23-18.11c0.6-0.58,0.17-1.76-0.71-1.71c-0.97,0.06-1.93,0.07-2.9,0.01c-1.04-0.07-2.05-0.37-3.08-0.46
				c-0.78-0.06-1.2,0.44-1.8,0.88c-0.7,0.51-1.4,1.01-2.12,1.49c-2.93,1.95-6.05,3.61-9.31,4.93c-6.88,2.78-14.46,4.04-21.83,4.69
				c-7.63,0.67-15.03-1.34-22.15-3.91c-6.63-2.4-13.01-5.62-18.64-9.88c-5.94-4.49-10.97-10.16-14.43-16.77
				C30.67,80.7,28.94,81.71,29.54,82.85L29.54,82.85z"/>
		</g>
	</g>
</g>
<g id="Ebene_9">
	<g>
		<path class="st8" d="M34.13,83.1c11.93,8,26.93,9.91,41.3,9.88c5.8-0.01,11.82-0.36,16.93-3.11c2.52,2.45,5.1,4.94,8.23,6.53
			c5.94,3.01,13.29,2.49,19,5.93c-11.42,4.97-23.24,10.02-35.7,10.06c-9.81,0.03-19.49-3.12-27.91-8.16
			c-8.42-5.04-15.64-11.91-21.86-19.5"/>
		<g>
			<path class="st8" d="M33.63,83.96c13.26,8.8,30.39,10.7,45.96,9.92c4.6-0.23,9.17-1,13.28-3.15c-0.4-0.05-0.81-0.1-1.21-0.16
				c3.76,3.65,7.54,6.83,12.66,8.31c4.93,1.42,10.26,1.67,14.78,4.31c0-0.58,0-1.15,0-1.73c-11.68,5.08-23.95,10.36-36.95,9.9
				c-12.16-0.43-23.71-5.7-33.14-13.19c-5.24-4.16-9.92-8.99-14.16-14.16c-0.82-0.99-2.23,0.43-1.41,1.41
				c7.84,9.54,17.32,18.05,28.7,23.11c5.65,2.51,11.66,4.19,17.84,4.69c6.45,0.53,12.92-0.38,19.13-2.08
				c7.24-1.98,14.15-4.98,21.01-7.96c0.71-0.31,0.59-1.38,0-1.73c-4.32-2.52-9.31-2.99-14.07-4.19c-2.46-0.62-4.8-1.5-6.92-2.91
				c-2.22-1.48-4.13-3.35-6.04-5.2c-0.33-0.32-0.81-0.37-1.21-0.16c-6.97,3.65-15.59,3.19-23.22,2.83
				c-7.59-0.36-15.2-1.43-22.41-3.91c-4.09-1.41-7.98-3.3-11.58-5.69C33.56,81.52,32.56,83.25,33.63,83.96L33.63,83.96z"/>
		</g>
	</g>
</g>
<g id="Ebene_10">
	<g>
		<path class="st9" d="M125.22,75.29c-2.69-3.29-5.9-6.26-9.78-8c-3.88-1.74-8.5-2.14-12.37-0.38c-2.79,1.26-5.03,3.55-6.71,6.11
			c-2.09,3.19-3.42,6.97-3.25,10.78c0.17,3.81,1.97,7.63,5.12,9.78c3.54,2.42,8.13,2.49,12.43,2.47c1.09-0.01,2.18-0.01,3.24-0.23
			c3.06-0.64,5.48-2.97,7.39-5.44c1.66-2.14,3.1-4.49,3.89-7.07c0.8-2.58,0.93-5.43,0.02-7.98"/>
		<g>
			<path class="st9" d="M125.93,74.58c-4.41-5.34-10.47-9.99-17.73-9.81c-7.11,0.17-12.39,5.61-14.84,11.93
				c-2.38,6.12-1.34,13.81,4.38,17.73c2.76,1.89,6.2,2.42,9.47,2.56c3.4,0.15,7.03,0.35,10.05-1.47c3.2-1.93,5.76-5.32,7.48-8.58
				c1.92-3.65,2.77-7.89,1.44-11.89c-0.4-1.22-2.34-0.69-1.93,0.53c2.04,6.15-1.75,12.95-6.32,16.98c-1.03,0.91-2.21,1.67-3.53,2.09
				c-1.58,0.5-3.3,0.4-4.94,0.39c-2.93-0.01-5.98-0.12-8.73-1.26c-5.76-2.4-7.59-9.1-6.04-14.74c1.59-5.76,6.18-11.58,12.46-12.21
				c7.14-0.72,13.09,3.97,17.38,9.16C125.34,76.99,126.75,75.57,125.93,74.58L125.93,74.58z"/>
		</g>
	</g>
	<g>
		<path class="st9" d="M53.3,121.84c-0.6-0.77-1.39-1.38-2.28-1.78c-0.12-0.05-0.25-0.11-0.38-0.1c-0.31,0.01-0.53,0.34-0.54,0.65
			c0,0.31,0.16,0.6,0.34,0.85c0.45,0.65,1.04,1.21,1.7,1.64c0.36,0.23,0.78,0.42,1.19,0.33s0.74-0.6,0.51-0.96"/>
		<g>
			<path class="st9" d="M54.01,121.14c-0.53-0.66-1.2-1.23-1.93-1.65c-0.45-0.26-0.96-0.54-1.49-0.52
				c-0.69,0.03-1.23,0.54-1.42,1.18c-0.31,1.04,0.49,2.04,1.16,2.74c0.32,0.33,0.68,0.63,1.05,0.89c0.37,0.27,0.8,0.52,1.26,0.61
				c0.66,0.13,1.34,0,1.81-0.5c0.49-0.52,0.63-1.29,0.27-1.92c-0.26-0.45-0.92-0.65-1.37-0.36c-0.46,0.29-0.64,0.88-0.36,1.37
				c0.04,0.08,0.03,0.11-0.04-0.12c0.01,0.04,0.02,0.13,0-0.05c-0.04-0.24-0.03,0.1,0-0.13c0.02-0.17,0.01-0.09,0-0.05
				c-0.03,0.15,0.12-0.21,0.01-0.05c-0.05,0.08,0.08-0.12,0.08-0.11c0,0.02-0.17,0.15,0,0.02c0.14-0.1,0.04-0.02,0-0.01
				c-0.08,0.03,0.13-0.05,0.13-0.05c-0.01,0.02-0.08,0.02-0.09,0.03c0.01-0.01,0.21-0.01,0.11-0.02c-0.03,0-0.06,0-0.09,0
				c-0.18,0.01,0.07-0.01,0.08,0.01c0-0.01-0.22-0.07-0.24-0.07c0.02,0,0.22,0.11,0.06,0.03c-0.03-0.01-0.06-0.03-0.09-0.04
				c-0.07-0.03-0.13-0.07-0.2-0.11c-0.13-0.08-0.26-0.17-0.39-0.26c-0.2-0.15,0.11,0.1-0.02-0.02c-0.06-0.05-0.11-0.09-0.17-0.14
				c-0.12-0.1-0.23-0.21-0.34-0.32c-0.1-0.1-0.2-0.21-0.29-0.32c-0.03-0.03-0.17-0.22-0.08-0.09c0.09,0.11,0.02,0.03,0,0
				c-0.03-0.04-0.06-0.08-0.09-0.13c-0.08-0.12-0.15-0.25-0.23-0.37c-0.05-0.09,0.04,0.09,0.04,0.1c0-0.02-0.03-0.09-0.04-0.12
				c-0.04-0.1,0.05-0.08,0.01,0.08c0-0.01,0-0.11,0-0.11c0,0-0.04,0.28-0.01,0.12c0.01-0.03,0.05-0.13-0.01,0.03
				c-0.06,0.15-0.03,0.06-0.01,0.03c-0.13,0.21-0.12,0.14-0.07,0.09c0.06-0.06,0.12-0.07-0.09,0.07c0.03-0.02,0.12-0.06-0.03,0.01
				c-0.08,0.04-0.16,0.06-0.25,0.06c-0.14-0.03-0.18-0.03-0.1-0.02c0.02,0,0.04,0.01,0.06,0.02c0.1,0.02-0.07-0.03-0.08-0.04
				c0.03,0.02,0.08,0.04,0.11,0.05c0.07,0.03,0.13,0.06,0.19,0.1c0.14,0.07,0.27,0.15,0.4,0.23c0.14,0.09,0.28,0.18,0.41,0.28
				c0.14,0.1-0.04-0.03-0.05-0.04c0.03,0.03,0.07,0.05,0.1,0.08c0.06,0.05,0.13,0.11,0.19,0.16c0.26,0.24,0.5,0.49,0.72,0.77
				c0.15,0.19,0.48,0.29,0.71,0.29c0.25,0,0.54-0.11,0.71-0.29c0.17-0.19,0.3-0.44,0.29-0.71
				C54.29,121.56,54.19,121.35,54.01,121.14L54.01,121.14z"/>
		</g>
	</g>
	<g>
		<path class="st9" d="M52.38,99.9c0.35-0.83,0.89-1.74,1.78-1.85c0.81-0.1,1.53,0.53,2.01,1.19c0.96,1.32,1.45,2.98,1.36,4.62
			c-1.97-0.64-3.07-2.93-5.05-3.51"/>
		<g>
			<path class="st9" d="M53.24,100.41c0.14-0.34,0.31-0.65,0.51-0.96c0.11-0.17-0.11,0.1,0.05-0.06c0.06-0.06,0.11-0.12,0.17-0.17
				c0.15-0.16-0.13,0.06,0.04-0.04c0.07-0.04,0.13-0.08,0.2-0.12c-0.21,0.11,0.03,0.01,0.09-0.01c0.07-0.01,0.05-0.01-0.06,0.01
				c0.04,0,0.09,0,0.13,0c0.08,0,0.06,0-0.06-0.01c0.06,0.01,0.11,0.02,0.16,0.04c0.19,0.03-0.11-0.08,0.08,0.03
				c0.08,0.04,0.15,0.09,0.22,0.13c0.22,0.14-0.12-0.12,0.08,0.06c0.15,0.13,0.27,0.28,0.41,0.42c0.04,0.05,0.04,0.05-0.02-0.03
				c0.03,0.04,0.05,0.07,0.08,0.11c0.07,0.09,0.13,0.19,0.19,0.28c0.11,0.17,0.21,0.33,0.3,0.51c0.09,0.17,0.18,0.35,0.25,0.53
				c-0.07-0.17,0.03,0.09,0.04,0.13c0.04,0.11,0.08,0.22,0.11,0.33c0.06,0.2,0.12,0.41,0.17,0.62c0.02,0.1,0.04,0.19,0.06,0.29
				c0,0.01,0.05,0.32,0.02,0.12c0.06,0.42,0.07,0.85,0.05,1.27c0.42-0.32,0.84-0.64,1.27-0.96c-0.06-0.02-0.12-0.05-0.18-0.07
				c-0.11-0.04,0.16,0.08-0.01-0.01c-0.11-0.06-0.23-0.12-0.34-0.18c-0.11-0.07-0.22-0.14-0.33-0.21c-0.04-0.03-0.08-0.06-0.13-0.09
				c-0.21-0.15,0.16,0.13-0.05-0.04c-0.4-0.33-0.78-0.69-1.16-1.04c-0.84-0.79-1.73-1.54-2.86-1.88c-0.5-0.15-1.11,0.18-1.23,0.7
				c-0.12,0.54,0.16,1.07,0.7,1.23c0.06,0.02,0.12,0.04,0.19,0.06c0.11,0.04,0.13,0.05,0.01,0c0.12,0.05,0.23,0.11,0.34,0.17
				c0.23,0.13,0.44,0.27,0.65,0.43c-0.06-0.05-0.1-0.08-0.02-0.01c0.05,0.04,0.1,0.08,0.15,0.13c0.1,0.09,0.2,0.17,0.3,0.26
				c0.2,0.18,0.39,0.36,0.59,0.55c0.85,0.8,1.73,1.55,2.84,1.93c0.64,0.22,1.24-0.35,1.27-0.96c0.1-2.05-0.61-4.36-2.09-5.84
				c-0.81-0.8-1.95-1.25-3.05-0.78c-0.92,0.39-1.5,1.26-1.88,2.15c-0.2,0.48-0.16,1.09,0.36,1.37
				C52.3,100.99,53.02,100.92,53.24,100.41L53.24,100.41z"/>
		</g>
	</g>
	<g>
		<path class="st9" d="M98.53,96.99c-5.76,4.02-11.79,7.65-18.03,10.85c-0.42,0.22-0.86,0.44-1.12,0.84
			c-0.55,0.83-0.01,2.03,0.86,2.53c0.87,0.49,1.92,0.48,2.92,0.45c1.7-0.05,3.41-0.1,5.11-0.15c3.05-0.09,6.12-0.18,9.08-0.91
			c1.85-0.46,3.62-1.15,5.39-1.85c0.53-0.21,1.07-0.42,1.47-0.82c0.33-0.33,0.53-0.75,0.73-1.16c1.2-2.48,2.41-4.97,3.61-7.45
			c-3.29,0.12-6.62-0.82-9.37-2.63"/>
		<g>
			<path class="st9" d="M98.03,96.13c-3.65,2.54-7.4,4.94-11.25,7.16c-1.96,1.13-3.94,2.22-5.95,3.26
				c-1.37,0.71-2.92,1.49-2.63,3.31c0.28,1.72,1.85,2.6,3.46,2.76c2.16,0.22,4.45-0.05,6.62-0.11c4.58-0.13,8.88-0.55,13.19-2.19
				c2-0.76,3.48-1.27,4.46-3.27c1.17-2.41,2.34-4.82,3.5-7.23c0.32-0.65-0.06-1.52-0.86-1.5c-3.18,0.07-6.19-0.78-8.86-2.5
				c-1.09-0.7-2.09,1.03-1.01,1.73c2.96,1.89,6.36,2.85,9.87,2.77c-0.29-0.5-0.58-1-0.86-1.5c-1.06,2.19-2.12,4.38-3.19,6.57
				c-0.54,1.11-0.85,1.9-2.03,2.4c-1.02,0.44-2.07,0.82-3.12,1.17c-4.56,1.55-9.35,1.5-14.11,1.64c-1.11,0.03-2.28,0.17-3.39,0.05
				c-1.33-0.14-2.35-1.11-0.87-1.94c2.04-1.14,4.14-2.18,6.17-3.34c4.06-2.32,8.02-4.83,11.86-7.51
				C100.09,97.13,99.09,95.39,98.03,96.13L98.03,96.13z"/>
		</g>
	</g>
</g>
<g id="Ebene_11">
	<ellipse class="st10" cx="96.45" cy="84.21" rx="2.58" ry="2.71"/>
	<ellipse class="st10" cx="110.92" cy="89.14" rx="2.58" ry="2.71"/>
</g>
<g id="Ebene_3">
	<g>
		<g>
			<path d="M77.35,30.19c-2.02-2.21-5.59-1.9-8.07-0.72c-1.52,0.72-2.33,2.02-2.79,3.59c-0.49,1.68-0.88,3.47-0.51,5.21
				c0.64,3.1,3.79,4.87,6.75,5.05c3.1,0.19,6.25-1.4,7.59-4.27c1.44-3.09,0.35-7.07-2.89-8.51c-0.5-0.22-1.07-0.14-1.37,0.36
				c-0.25,0.42-0.13,1.15,0.36,1.37c1.95,0.87,2.98,3.03,2.41,5.09c-0.62,2.27-2.74,3.78-5.04,3.95c-2.1,0.16-4.57-0.63-5.57-2.63
				c-0.6-1.2-0.41-2.62-0.12-3.87c0.25-1.07,0.49-2.42,1.4-3.14c0.91-0.72,2.26-1.04,3.4-1.09c1.14-0.06,2.25,0.17,3.04,1.03
				C76.8,32.55,78.21,31.13,77.35,30.19L77.35,30.19z"/>
		</g>
	</g>
	<g>
		<g>
			<path d="M80.71,28.43c0.81-0.99,1.63-1.99,2.44-2.98c0.17-0.21,0.29-0.42,0.29-0.71c0-0.25-0.11-0.54-0.29-0.71
				c-0.19-0.17-0.44-0.3-0.71-0.29c-0.25,0.01-0.54,0.09-0.71,0.29c-0.81,0.99-1.63,1.99-2.44,2.98c-0.17,0.21-0.29,0.42-0.29,0.71
				c0,0.25,0.11,0.54,0.29,0.71c0.19,0.17,0.44,0.3,0.71,0.29C80.26,28.71,80.55,28.63,80.71,28.43L80.71,28.43z"/>
		</g>
	</g>
	<g>
		<g>
			<path d="M84.37,35.53c0.82,0.08,1.64,0.15,2.46,0.23c0.24,0.02,0.54-0.13,0.71-0.29c0.17-0.17,0.3-0.46,0.29-0.71
				c-0.01-0.26-0.1-0.53-0.29-0.71c-0.21-0.19-0.43-0.27-0.71-0.29c-0.82-0.08-1.64-0.15-2.46-0.23c-0.24-0.02-0.54,0.13-0.71,0.29
				c-0.17,0.17-0.3,0.46-0.29,0.71c0.01,0.26,0.1,0.53,0.29,0.71C83.86,35.42,84.09,35.5,84.37,35.53L84.37,35.53z"/>
		</g>
	</g>
	<g>
		<g>
			<path d="M80.12,43.67c0.78,0.45,1.53,0.95,2.24,1.5c-0.07-0.05-0.13-0.1-0.2-0.16c0.34,0.26,0.67,0.54,1,0.82
				c0.2,0.18,0.43,0.29,0.71,0.29c0.25,0,0.54-0.11,0.71-0.29c0.35-0.38,0.42-1.05,0-1.41c-1.06-0.93-2.21-1.77-3.44-2.48
				c-0.45-0.26-1.11-0.12-1.37,0.36C79.51,42.78,79.63,43.39,80.12,43.67L80.12,43.67z"/>
		</g>
	</g>
	<g>
		<g>
			<path d="M72.79,45.65c-0.27,1.45-0.37,2.93-0.28,4.4c0.03,0.52,0.44,1.03,1,1c0.51-0.02,1.03-0.44,1-1
				c-0.04-0.68-0.05-1.36-0.01-2.04c0.02-0.33,0.05-0.66,0.09-0.99c0.01-0.08,0.02-0.16,0.03-0.24c-0.04,0.25,0,0.01,0.01-0.05
				c0.03-0.18,0.06-0.37,0.09-0.55c0.09-0.51-0.14-1.1-0.7-1.23C73.53,44.84,72.9,45.1,72.79,45.65L72.79,45.65z"/>
		</g>
	</g>
	<g>
		<g>
			<path d="M65.64,43.25c-0.57,0.43-1.12,0.88-1.62,1.39c-0.5,0.51-0.96,1.06-1.38,1.64c-0.14,0.2-0.16,0.55-0.1,0.77
				c0.06,0.23,0.24,0.48,0.46,0.6c0.23,0.12,0.51,0.18,0.77,0.1c0.26-0.08,0.44-0.24,0.6-0.46c0.07-0.1,0.15-0.2,0.22-0.3
				c-0.05,0.07-0.1,0.13-0.16,0.2c0.65-0.83,1.4-1.58,2.23-2.23c-0.07,0.05-0.13,0.1-0.2,0.16c0.06-0.05,0.12-0.09,0.19-0.14
				c0.22-0.16,0.39-0.33,0.46-0.6c0.07-0.24,0.04-0.56-0.1-0.77c-0.14-0.21-0.34-0.4-0.6-0.46C66.17,43.09,65.85,43.09,65.64,43.25
				L65.64,43.25z"/>
		</g>
	</g>
	<g>
		<g>
			<path d="M59.03,37.08c1.46-0.13,2.93-0.26,4.39-0.38c0.52-0.05,1.03-0.43,1-1c-0.02-0.5-0.44-1.05-1-1
				c-1.46,0.13-2.93,0.26-4.39,0.38c-0.52,0.05-1.03,0.43-1,1C58.05,36.58,58.47,37.13,59.03,37.08L59.03,37.08z"/>
		</g>
	</g>
	<g>
		<g>
			<path d="M62.96,25.45c0.75,0.66,1.44,1.39,2.06,2.18c-0.05-0.07-0.1-0.13-0.16-0.2c0.19,0.25,0.38,0.51,0.56,0.77
				c0.15,0.22,0.34,0.39,0.6,0.46c0.24,0.07,0.56,0.04,0.77-0.1c0.43-0.28,0.67-0.91,0.36-1.37c-0.79-1.16-1.71-2.22-2.77-3.15
				c-0.2-0.18-0.43-0.29-0.71-0.29c-0.25,0-0.54,0.11-0.71,0.29C62.61,24.41,62.54,25.08,62.96,25.45L62.96,25.45z"/>
		</g>
	</g>
	<g>
		<g>
			<path d="M72.03,20.97c-0.18,1.34-0.24,2.67-0.11,4.02c0.03,0.27,0.09,0.51,0.29,0.71c0.17,0.17,0.46,0.3,0.71,0.29
				c0.5-0.02,1.05-0.44,1-1c-0.06-0.61-0.09-1.23-0.08-1.84c0-0.3,0.02-0.59,0.04-0.88c0.01-0.15,0.02-0.29,0.04-0.44
				c0.01-0.09,0.02-0.17,0.03-0.26c0.01-0.06,0.04-0.34,0.01-0.06c0.04-0.28,0.05-0.52-0.1-0.77c-0.12-0.21-0.36-0.41-0.6-0.46
				c-0.26-0.06-0.54-0.05-0.77,0.1C72.28,20.5,72.06,20.72,72.03,20.97L72.03,20.97z"/>
		</g>
	</g>
	<g>
		<g>
			<path d="M35.13,47.95c4.21,2.87,9.93,4.29,14.49,1.31c3.92-2.56,5.25-7.97,2.16-11.7c0,0.47,0,0.94,0,1.41
				c2.78-2.32,5.69-5.22,5.29-9.16c-0.3-2.88-3.66-6.37-6.44-3.73c0.56,0.32,1.11,0.65,1.67,0.97c0.43-2.2,0.85-4.58-0.02-6.73
				c-0.77-1.9-2.42-3.2-4.28-3.96c-3.18-1.31-7.91-1.32-9.38,2.41c0.64,0.18,1.29,0.35,1.93,0.53c1.84-4.88-3.1-8.59-7.51-8.73
				c-4.59-0.15-8.98,3.32-8.16,8.2c0.61-0.26,1.22-0.51,1.83-0.77c-2.47-4.26-8.97-3.14-12.31-0.67c-1.83,1.36-3.09,3.33-3.17,5.64
				c-0.07,2.15,0.89,4.21,2.73,5.34c0.26-0.61,0.51-1.22,0.77-1.83c-4.56-1.86-7.96,4.81-8.41,8.37c-0.26,2.01,0.26,4.01,1.72,5.45
				c1.36,1.34,3.35,2.01,5.18,1.31c-0.32-0.56-0.65-1.11-0.97-1.67c-3.5,3.33-5.14,9.81,0.29,12.21c4.98,2.2,10.9-0.58,13.95-4.65
				c-0.62-0.17-1.24-0.34-1.86-0.5c-0.01,2.47,1.91,4.57,4.31,5.04c2.71,0.53,5.33-0.97,7.01-3c0.81-0.98-0.59-2.41-1.41-1.41
				c-1.14,1.38-2.75,2.6-4.63,2.52c-1.7-0.07-3.28-1.38-3.27-3.15c0-1.07-1.3-1.25-1.86-0.5c-2.36,3.15-6.89,5.31-10.81,4.07
				c-4.69-1.48-2.99-6.65-0.29-9.21c0.69-0.66-0.02-2.04-0.97-1.67c-1.25,0.48-2.45,0.05-3.35-0.92c-1.09-1.16-1.25-2.73-0.95-4.24
				c0.47-2.3,2.76-7.37,5.81-6.12c1.08,0.44,1.7-1.26,0.77-1.83c-1.34-0.82-1.89-2.4-1.72-3.93c0.18-1.72,1.35-3.12,2.78-4.02
				c2.38-1.5,7.21-2.66,8.96,0.37c0.6,1.04,2.01,0.3,1.83-0.77c-0.61-3.61,3.09-5.77,6.23-5.67c3.2,0.1,6.94,2.59,5.58,6.2
				c-0.46,1.21,1.46,1.71,1.93,0.53c1.02-2.59,5.1-1.85,7.02-0.97c1.32,0.61,2.52,1.59,2.98,3.02c0.54,1.67,0.16,3.5-0.16,5.17
				c-0.19,0.96,0.92,1.69,1.67,0.97c0.94-0.89,2.26,0.31,2.68,1.16c0.5,1.03,0.48,2.28,0.17,3.36c-0.67,2.35-2.72,4.04-4.53,5.54
				c-0.44,0.37-0.32,1.03,0,1.41c2.6,3.14,0.57,7.54-2.74,9.12c-3.86,1.84-8.16,0.4-11.49-1.87C35.08,45.5,34.07,47.23,35.13,47.95
				L35.13,47.95z"/>
		</g>
	</g>
	<g>
		<g>
			<path d="M142.11,47.65c-1.18,1.89-2.55,4.17-4.92,4.62c-2.6,0.5-3.56-1.86-4.19-3.9c-0.31-1-1.58-0.89-1.93,0
				c-0.88,2.22-3.35,3.71-5.73,3.37c-2.39-0.35-4.32-2.47-4.54-4.85c-0.1-1.02-1.26-1.32-1.86-0.5c-1.06,1.42-3.06,1.24-4.45,0.47
				c-1.37-0.76-2.52-2.05-3.28-3.4c-0.78-1.39-1.23-3.17-0.56-4.7c0.65-1.47,2.03-2.42,3.64-2.22c1.12,0.14,1.36-1.72,0.27-1.96
				c-2.92-0.65-4.4-3.79-4.07-6.6c0.18-1.56,0.99-3.13,2.29-4.06c1.36-0.97,3.73-0.98,4.44,0.82c0.47,1.18,2.39,0.68,1.93-0.53
				c-2.92-7.73,13.95-12.68,14.44-5.2c0.06,0.9,1.41,1.48,1.86,0.5c1.57-3.36,5.54-5.07,9.12-4.63c3.33,0.41,6.69,3.81,4.66,7.24
				c0.61,0.26,1.22,0.51,1.83,0.77c0.52-1.36,2.27-1.79,3.55-1.39c1.56,0.49,2.64,1.93,3.35,3.32c1.15,2.26,1.58,5.87-0.73,7.59
				c-0.82,0.61-0.38,2.29,0.77,1.83c3.41-1.38,5.48,5.09,4.7,7.46c-0.81,2.45-4.06,3.32-6.12,1.97c-0.94-0.62-2.06,0.81-1.21,1.57
				c1.44,1.29,3.38,2.97,2.84,5.15c-0.46,1.85-2.43,3.07-4.15,3.56c-4.04,1.17-8.56-0.72-11.23-3.78c-0.85-0.97-2.26,0.45-1.41,1.41
				c3.41,3.89,9.49,6,14.41,3.84c2.13-0.93,4.11-2.72,4.43-5.13c0.36-2.73-1.58-4.79-3.46-6.47c-0.4,0.52-0.81,1.05-1.21,1.57
				c3.28,2.15,8.28,0.32,9.16-3.58c0.84-3.7-2.38-11.48-7.27-9.51c0.26,0.61,0.51,1.22,0.77,1.83c3.58-2.66,3.12-7.86,0.9-11.28
				c-1.17-1.8-2.98-3.38-5.21-3.5c-2.11-0.12-4.04,1.02-4.8,2.99c-0.41,1.08,1.27,1.72,1.83,0.77c2.46-4.16-0.73-9.02-5.05-10.04
				c-4.58-1.08-10.15,1.02-12.19,5.41c0.62,0.17,1.24,0.34,1.86,0.5c-0.15-2.26-1.57-4.12-3.62-5.05c-2.38-1.08-5.12-0.7-7.5,0.15
				c-4.31,1.53-9.2,5.47-7.25,10.64c0.64-0.18,1.29-0.35,1.93-0.53c-0.88-2.21-3.23-3.39-5.56-2.83c-2.32,0.55-4.06,2.66-4.76,4.86
				c-1.3,4.06,0.81,9.3,5.2,10.28c0.09-0.65,0.18-1.31,0.27-1.96c-2.28-0.28-4.39,1.2-5.37,3.21c-1.05,2.17-0.58,4.69,0.56,6.72
				c2.1,3.73,7.85,7.41,11.18,2.93c-0.62-0.17-1.24-0.34-1.86-0.5c0.32,3.37,2.84,6.34,6.27,6.83c3.44,0.49,6.67-1.66,7.92-4.81
				c-0.64,0-1.29,0-1.93,0c0.84,2.73,2.31,5.58,5.62,5.43c3.43-0.15,5.49-3.02,7.14-5.67C144.53,47.56,142.8,46.56,142.11,47.65
				L142.11,47.65z"/>
		</g>
	</g>
	<g>
		<g>
			<path d="M128.93,52.79c3.2,3.61,6.48,7.35,8.38,11.84c2.14,5.08,1.74,10.68,1.66,16.06c-0.08,5.66-0.15,11.32-0.23,16.97
				c-0.08,5.57,0.05,11.19-0.35,16.75c-0.4,5.64-1.84,11.47-6.16,15.41c-0.95,0.87,0.46,2.28,1.41,1.41
				c3.75-3.42,5.63-8.29,6.36-13.21c0.86-5.8,0.62-11.77,0.7-17.62c0.08-6.07,0.17-12.15,0.25-18.22
				c0.08-5.58,0.62-11.51-1.24-16.87c-1.86-5.38-5.65-9.75-9.36-13.95C129.49,50.41,128.08,51.83,128.93,52.79L128.93,52.79z"/>
		</g>
	</g>
	<g>
		<g>
			<path d="M149.69,57.01c-0.33,10.79-0.57,21.57-0.7,32.36c-0.07,5.39-0.11,10.79-0.12,16.18c-0.01,4.97-0.16,9.98,0.12,14.95
				c0.28,4.78,1.17,9.65,4.04,13.61c0.75,1.03,2.48,0.04,1.73-1.01c-2.58-3.57-3.46-7.87-3.74-12.2c-0.31-4.77-0.16-9.58-0.15-14.36
				c0.02-10.54,0.14-21.08,0.36-31.62c0.12-5.97,0.28-11.95,0.46-17.92C151.73,55.72,149.73,55.72,149.69,57.01L149.69,57.01z"/>
		</g>
	</g>
	<g>
		<g>
			<path d="M135.2,54.75c1.76,2.55,3.84,4.88,6.2,6.89c0.31,0.26,0.7,0.38,1.09,0.21c0.36-0.16,0.62-0.51,0.61-0.91
				c-0.05-2.39,0.11-4.77,0.53-7.12c0.09-0.53-0.14-1.08-0.7-1.23c-0.48-0.13-1.14,0.16-1.23,0.7c-0.44,2.53-0.65,5.09-0.6,7.66
				c0.57-0.24,1.14-0.47,1.71-0.71c-2.23-1.9-4.22-4.07-5.89-6.48c-0.31-0.44-0.88-0.65-1.37-0.36
				C135.11,53.64,134.89,54.3,135.2,54.75L135.2,54.75z"/>
		</g>
	</g>
	<g>
		<g>
			<path d="M17.8,53.52c0.83,18.72,0.86,37.47,0.06,56.2c-0.23,5.3-0.52,10.6-0.88,15.89c-0.09,1.28,1.91,1.28,2,0
				c1.26-18.7,1.71-37.45,1.33-56.18c-0.11-5.31-0.28-10.61-0.52-15.91C19.74,52.24,17.74,52.23,17.8,53.52L17.8,53.52z"/>
		</g>
	</g>
	<g>
		<g>
			<path d="M30.48,126.84c-0.61-11.11-1.22-22.23-1.82-33.34c-0.56-10.17-1.17-20.8,2.77-30.43c1.91-4.67,4.91-8.96,9.03-11.93
				c1.04-0.75,0.04-2.48-1.01-1.73c-7.65,5.51-11.44,14.57-12.64,23.67c-0.74,5.58-0.61,11.21-0.34,16.82
				c0.28,5.73,0.62,11.45,0.93,17.17c0.36,6.59,0.72,13.17,1.08,19.76C28.55,128.12,30.55,128.13,30.48,126.84L30.48,126.84z"/>
		</g>
	</g>
	<g>
		<g>
			<path d="M24.18,50.74c0.08,2.42,0.4,4.83,0.97,7.18c0.21,0.88,1.37,0.92,1.83,0.24c1.19-1.8,2.43-3.56,3.72-5.29
				c0.32-0.43,0.07-1.12-0.36-1.37c-0.51-0.3-1.04-0.08-1.37,0.36c-1.29,1.73-2.53,3.49-3.72,5.29c0.61,0.08,1.22,0.16,1.83,0.24
				c-0.52-2.18-0.82-4.4-0.89-6.64c-0.02-0.54-0.45-1-1-1C24.65,49.74,24.16,50.2,24.18,50.74L24.18,50.74z"/>
		</g>
	</g>
	<g>
		<g>
			<path d="M15.38,132.8c-0.08-1.51-0.16-3.01-0.23-4.52c-0.04-0.72-0.07-1.45-0.11-2.17c-0.02-0.36-0.04-0.72-0.06-1.09
				c-0.01-0.21-0.02-0.42-0.03-0.63c0-0.09-0.01-0.18-0.01-0.27c0.01-0.29-0.04-0.25-0.16,0.12c-0.15,0.09-0.29,0.17-0.44,0.26
				c-0.12,0.03-0.22,0.02-0.3-0.05c0.1,0.06,0.13,0.08,0.09,0.05c0.02,0.05,0.16,0.18,0.22,0.26c0.2,0.24,0.4,0.49,0.6,0.74
				c0.41,0.54,0.79,1.09,1.14,1.66c0.71,1.13,1.34,2.32,1.84,3.56c0.36,0.89,1.6,1,1.93,0c0.6-1.82,0.99-3.69,1.23-5.59
				c0.07-0.54-0.51-1-1-1c-0.6,0-0.93,0.46-1,1c-0.21,1.72-0.61,3.41-1.16,5.06c0.64,0,1.29,0,1.93,0c-0.62-1.53-1.36-3-2.26-4.38
				c-0.46-0.7-0.96-1.38-1.48-2.03c-0.5-0.62-1.05-1.29-1.92-1.28c-0.46,0-0.89,0.26-1.11,0.66c-0.24,0.43-0.16,0.94-0.13,1.41
				c0.05,0.9,0.09,1.81,0.14,2.71c0.09,1.84,0.19,3.68,0.28,5.52c0.03,0.54,0.44,1,1,1C14.9,133.8,15.41,133.34,15.38,132.8
				L15.38,132.8z"/>
		</g>
	</g>
	<g>
		<g>
			<path d="M23.31,127.26c0.16,0.7,0.31,1.39,0.47,2.09c0.05,0.24,0.25,0.48,0.46,0.6c0.21,0.13,0.53,0.18,0.77,0.1
				c0.54-0.17,0.82-0.68,0.7-1.23c-0.16-0.7-0.31-1.39-0.47-2.09c-0.05-0.24-0.25-0.48-0.46-0.6c-0.21-0.13-0.53-0.18-0.77-0.1
				C23.48,126.2,23.19,126.71,23.31,127.26L23.31,127.26z"/>
		</g>
	</g>
	<g>
		<g>
			<path d="M30.12,130.52c1.92-2.47,3.85-4.95,6.15-7.08c-0.56-0.32-1.11-0.65-1.67-0.97c-0.89,3.29-1.79,6.58-2.68,9.88
				c-0.27,1,0.94,1.62,1.67,0.97c0.8-0.71,1.6-1.42,2.4-2.12c0.39-0.34,0.77-0.68,1.16-1.02c0.19-0.17,0.39-0.34,0.58-0.51
				c0.11-0.1,0.39-0.44,0.51-0.48c-0.18,0-0.35,0-0.53,0c0.04,0.01,0.07,0.02,0.11,0.03c-0.15-0.09-0.29-0.17-0.44-0.26
				c-0.08-0.31-0.12-0.38-0.11-0.22c0,0.06,0,0.11-0.01,0.17c-0.01,0.18-0.02,0.36-0.04,0.54c-0.02,0.36-0.05,0.71-0.07,1.07
				c-0.05,0.71-0.1,1.43-0.15,2.14c-0.07,0.94,1.1,1.21,1.71,0.71c0.94-0.79,1.79-1.67,2.54-2.64c0.33-0.43,0.42-1,0-1.41
				c-0.34-0.34-1.08-0.43-1.41,0c-0.75,0.97-1.6,1.85-2.54,2.64c0.57,0.24,1.14,0.47,1.71,0.71c0.08-1.14,0.16-2.28,0.24-3.43
				c0.03-0.49,0.07-0.98-0.21-1.42c-0.32-0.5-0.91-0.7-1.47-0.51c-0.54,0.18-0.99,0.72-1.4,1.09c-0.44,0.39-0.88,0.78-1.32,1.17
				c-0.88,0.78-1.76,1.56-2.65,2.34c0.56,0.32,1.11,0.65,1.67,0.97c0.89-3.29,1.79-6.58,2.68-9.88c0.27-0.99-0.95-1.64-1.67-0.97
				c-2.3,2.13-4.23,4.61-6.15,7.08c-0.33,0.43-0.42,1,0,1.41C29.05,130.86,29.79,130.94,30.12,130.52L30.12,130.52z"/>
		</g>
	</g>
	<g>
		<g>
			<path d="M113.29,129.56c0.93,0.78,1.85,1.56,2.78,2.34c0.21,0.17,0.43,0.29,0.71,0.29c0.25,0,0.54-0.11,0.71-0.29
				c0.17-0.19,0.3-0.44,0.29-0.71c-0.01-0.25-0.09-0.54-0.29-0.71c-0.93-0.78-1.85-1.56-2.78-2.34c-0.21-0.17-0.43-0.29-0.71-0.29
				c-0.25,0-0.54,0.11-0.71,0.29c-0.17,0.19-0.3,0.44-0.29,0.71C113.01,129.11,113.09,129.39,113.29,129.56L113.29,129.56z"/>
		</g>
	</g>
	<g>
		<g>
			<path d="M118.49,126.33c0.77,1.01,1.54,2.03,2.3,3.04c0.16,0.22,0.33,0.38,0.6,0.46c0.24,0.07,0.56,0.04,0.77-0.1
				c0.21-0.14,0.4-0.34,0.46-0.6c0.06-0.24,0.06-0.56-0.1-0.77c-0.77-1.01-1.54-2.03-2.3-3.04c-0.16-0.22-0.33-0.38-0.6-0.46
				c-0.24-0.07-0.56-0.04-0.77,0.1c-0.21,0.14-0.4,0.34-0.46,0.6C118.34,125.8,118.34,126.12,118.49,126.33L118.49,126.33z"/>
		</g>
	</g>
	<g>
		<g>
			<path d="M121.41,123.31c0.75,2,1.64,3.94,2.66,5.82c0.25,0.46,0.92,0.65,1.37,0.36c0.47-0.3,0.63-0.88,0.36-1.37
				c-0.48-0.88-0.93-1.78-1.36-2.7c-0.1-0.22-0.2-0.45-0.3-0.68c-0.05-0.11-0.1-0.23-0.15-0.34c-0.05-0.11-0.06-0.13-0.02-0.05
				c-0.02-0.05-0.04-0.1-0.06-0.15c-0.2-0.47-0.38-0.95-0.57-1.43c-0.18-0.49-0.68-0.88-1.23-0.7
				C121.63,122.23,121.21,122.78,121.41,123.31L121.41,123.31z"/>
		</g>
	</g>
	<g>
		<g>
			<path d="M127.42,128.43c0.4-0.75,0.84-1.48,1.34-2.17c0.06-0.08,0.11-0.16,0.17-0.23c0.02-0.02,0.15-0.19,0.05-0.07
				c-0.09,0.11,0.02-0.02,0.03-0.04c0.13-0.16,0.26-0.32,0.39-0.48c0.28-0.33,0.58-0.66,0.88-0.97c0.37-0.37,0.4-1.05,0-1.41
				c-0.4-0.36-1.02-0.4-1.41,0c-1.26,1.29-2.35,2.77-3.19,4.37c-0.24,0.46-0.13,1.11,0.36,1.37
				C126.51,129.03,127.16,128.92,127.42,128.43L127.42,128.43z"/>
		</g>
	</g>
	<g>
		<g>
			<path d="M130.21,128.89c0.08-0.15,0.15-0.31,0.23-0.46c0.07-0.11,0.11-0.24,0.12-0.37c0.03-0.13,0.02-0.27-0.02-0.4
				c-0.03-0.13-0.09-0.24-0.18-0.34c-0.07-0.11-0.16-0.19-0.28-0.26c-0.08-0.03-0.16-0.07-0.24-0.1c-0.18-0.05-0.35-0.05-0.53,0
				c-0.08,0.03-0.16,0.07-0.24,0.1c-0.15,0.09-0.27,0.21-0.36,0.36c-0.08,0.15-0.15,0.31-0.23,0.46c-0.07,0.11-0.11,0.24-0.12,0.37
				c-0.03,0.13-0.02,0.27,0.02,0.4c0.03,0.13,0.09,0.24,0.18,0.34c0.07,0.11,0.16,0.19,0.28,0.26c0.08,0.03,0.16,0.07,0.24,0.1
				c0.18,0.05,0.35,0.05,0.53,0c0.08-0.03,0.16-0.07,0.24-0.1C130,129.16,130.12,129.04,130.21,128.89L130.21,128.89z"/>
		</g>
	</g>
	<g>
		<g>
			<path d="M144.53,128.66c0.31,0.7,0.62,1.39,0.93,2.09c0.1,0.21,0.38,0.4,0.6,0.46c0.24,0.07,0.56,0.04,0.77-0.1
				c0.21-0.14,0.4-0.34,0.46-0.6c0.01-0.09,0.02-0.18,0.04-0.27c0-0.18-0.05-0.35-0.14-0.5c-0.31-0.7-0.62-1.39-0.93-2.09
				c-0.1-0.21-0.38-0.4-0.6-0.46c-0.24-0.07-0.56-0.04-0.77,0.1c-0.21,0.14-0.4,0.34-0.46,0.6c-0.01,0.09-0.02,0.18-0.04,0.27
				C144.39,128.34,144.43,128.5,144.53,128.66L144.53,128.66z"/>
		</g>
	</g>
	<g>
		<g>
			<path d="M153.82,131.92c0.83-2.82,2.21-5.47,4.07-7.75c0.34-0.42,0.41-1.01,0-1.41c-0.35-0.35-1.07-0.42-1.41,0
				c-2.09,2.55-3.65,5.47-4.59,8.63C151.53,132.62,153.46,133.15,153.82,131.92L153.82,131.92z"/>
		</g>
	</g>
	<g>
		<g>
			<path d="M156.56,131.65c0.77-0.85,1.55-1.7,2.32-2.56c0.18-0.2,0.29-0.44,0.29-0.71c0-0.25-0.11-0.54-0.29-0.71
				c-0.19-0.17-0.44-0.3-0.71-0.29c-0.26,0.01-0.53,0.1-0.71,0.29c-0.77,0.85-1.55,1.7-2.32,2.56c-0.18,0.2-0.29,0.44-0.29,0.71
				c0,0.25,0.11,0.54,0.29,0.71c0.19,0.17,0.44,0.3,0.71,0.29C156.11,131.93,156.38,131.85,156.56,131.65L156.56,131.65z"/>
		</g>
	</g>
	<g>
		<g>
			<path d="M158.88,133.51c0.39-0.46,0.77-0.93,1.16-1.39c0.1-0.09,0.17-0.2,0.21-0.32c0.06-0.12,0.09-0.25,0.09-0.39
				c0.01-0.14-0.02-0.27-0.09-0.39c-0.04-0.12-0.11-0.23-0.21-0.32c-0.19-0.17-0.44-0.3-0.71-0.29c-0.25,0.01-0.54,0.09-0.71,0.29
				c-0.39,0.46-0.77,0.93-1.16,1.39c-0.1,0.09-0.17,0.2-0.21,0.32c-0.06,0.12-0.09,0.25-0.09,0.39c-0.01,0.14,0.02,0.27,0.09,0.39
				c0.04,0.12,0.11,0.23,0.21,0.32c0.19,0.17,0.44,0.3,0.71,0.29C158.43,133.79,158.71,133.71,158.88,133.51L158.88,133.51z"/>
		</g>
	</g>
	<g>
		<g>
			<path d="M124.75,72.42c-3.87-6.31-11.67-9.59-18.91-8.17c-7.12,1.39-12.96,7.41-14.68,14.37c-1.07,4.32-0.48,8.67,2.08,12.36
				c2.18,3.13,5.29,5.46,8.83,6.84c7.18,2.79,15.37,0.68,20.6-4.9c6.24-6.66,6.74-17.11,1.55-24.54c-0.73-1.05-2.47-0.05-1.73,1.01
				c4.08,5.84,4.5,13.88,0.53,19.9c-3.72,5.63-10.72,8.82-17.39,7.49c-7-1.41-13.48-7.36-12.97-14.91
				c0.45-6.58,5.12-12.77,11.32-15.02c6.92-2.5,15.18,0.3,19.04,6.59C123.7,74.53,125.43,73.53,124.75,72.42L124.75,72.42z"/>
		</g>
	</g>
	<g>
		<g>
			<path d="M96.14,83.92c0.99,2.8,3.07,5.17,5.82,6.37c3.03,1.32,6.52,1.13,9.43-0.41c1.14-0.6,0.13-2.33-1.01-1.73
				c-4.65,2.47-10.55,0.22-12.31-4.76C97.64,82.18,95.71,82.7,96.14,83.92L96.14,83.92z"/>
		</g>
	</g>
	<g>
		<g>
			<path d="M110.65,100.51c3.64,0.92,7.34,1.58,11.07,1.97c3.12,0.32,6.43,0.45,9.36-0.85c1.25-0.55,2.61-1.37,3.15-2.69
				c0.62-1.53-0.08-3.03-0.86-4.35c-2-3.42-4.08-6.79-6.12-10.19c-0.66-1.1-2.39-0.1-1.73,1.01c1.66,2.77,3.32,5.53,4.98,8.3
				c0.65,1.08,2.35,3.04,1.91,4.39c-0.4,1.24-2.38,1.88-3.49,2.18c-2.74,0.74-5.7,0.4-8.47,0.06c-3.13-0.38-6.23-0.98-9.28-1.76
				C109.94,98.27,109.41,100.19,110.65,100.51L110.65,100.51z"/>
		</g>
	</g>
	<g>
		<g>
			<path d="M94.68,70.29c-1.92,0.36-3.83,0.72-5.75,1.08c-1.65,0.31-3.5,0.44-5.07,1.05c-3.02,1.16-2.3,5.13-1.4,7.51
				c1.19,3.15,3.29,5.95,5.31,8.61c2.22,2.93,4.61,5.72,7,8.51c0.84,0.98,2.25-0.44,1.41-1.41c-3.91-4.56-8.14-9.19-10.99-14.52
				c-0.67-1.26-1.23-2.61-1.43-4.04c-0.09-0.65-0.22-1.56,0.1-2.16c0.35-0.66,1.08-0.76,1.76-0.9c3.19-0.64,6.39-1.2,9.58-1.8
				C96.48,71.99,95.94,70.06,94.68,70.29L94.68,70.29z"/>
		</g>
	</g>
	<g>
		<g>
			<path d="M97.99,95.23c-3.18,2.23-6.37,4.45-9.66,6.51c-1.62,1.01-3.26,1.97-4.95,2.87c-1.62,0.87-3.38,1.98-5.29,1.94
				c-1.29-0.03-1.29,1.97,0,2c1.85,0.05,3.5-0.77,5.11-1.59c1.87-0.95,3.69-2,5.48-3.09c3.53-2.16,6.92-4.54,10.31-6.91
				C100.04,96.22,99.05,94.49,97.99,95.23L97.99,95.23z"/>
		</g>
	</g>
	<g>
		<g>
			<path d="M108.88,98.82c-1.24,3.59-3.09,6.98-5.46,9.95c-0.34,0.42-0.41,1,0,1.41c0.35,0.35,1.08,0.42,1.41,0
				c2.6-3.25,4.62-6.9,5.97-10.84C111.23,98.13,109.3,97.61,108.88,98.82L108.88,98.82z"/>
		</g>
	</g>
	<g>
		<g>
			<path d="M79.78,111.21c-0.77-2.45-1.76-4.82-3-7.06c-1.05-1.9-2.39-4.68-4.42-5.69c-2.24-1.12-4.5,0.73-6.33,1.85
				c-2.53,1.54-5.05,3.07-7.58,4.61c0.49,0.2,0.98,0.4,1.47,0.6c-0.55-2.65-1.2-5.44-3.01-7.54c-0.74-0.86-1.93-1.97-3.18-1.6
				c-0.62,0.18-1,0.71-1.38,1.18c-0.6,0.76-1.2,1.52-1.8,2.28c-0.79,1,0.62,2.42,1.41,1.41c0.4-0.51,0.8-1.01,1.2-1.52
				c0.17-0.22,0.82-1.33,1.08-1.36c0.73-0.08,1.72,1.63,2.01,2.14c0.96,1.69,1.36,3.65,1.74,5.54c0.13,0.63,0.94,0.92,1.47,0.6
				c2.05-1.25,4.1-2.49,6.15-3.74c0.96-0.58,1.91-1.16,2.87-1.74c0.96-0.58,2.12-1.49,3.23-0.76c0.86,0.57,1.45,1.67,1.99,2.51
				c0.56,0.85,1.08,1.73,1.56,2.63c1.06,1.98,1.91,4.06,2.59,6.2C78.24,112.96,80.17,112.44,79.78,111.21L79.78,111.21z"/>
		</g>
	</g>
	<g>
		<g>
			<path d="M77.63,111.11c-1.66-1.28-3.37-2.5-5.12-3.65c-1.26-0.83-2.97-2.37-4.61-1.92c-1.53,0.42-2.63,2.24-3.58,3.39
				c-1.22,1.48-2.4,2.99-3.53,4.53c-1.17,1.6-2.29,3.24-3.35,4.91c-0.57,0.9-1.13,1.81-1.67,2.73c-0.4,0.67-0.74,1.47-1.3,2.04
				c-1,1.03-2.16,0.27-3.06-0.48c-0.46-0.38-1.52-1.1-1.55-1.75c-0.07-1.45,1.79,0.22,2.2,0.61c0.72,0.68,1.29,1.47,1.75,2.35
				c0.61,1.13,2.34,0.13,1.73-1.01c-0.97-1.82-4.52-6.31-6.92-4.08c-2.54,2.36,1.26,5.72,3.36,6.59c3.6,1.49,5.21-2.83,6.69-5.21
				c2.17-3.49,4.58-6.83,7.2-9.99c0.64-0.77,1.26-1.63,2-2.3c0.94-0.85,2.17,0.37,3.04,0.94c1.96,1.26,3.86,2.61,5.71,4.03
				C77.64,113.62,78.64,111.88,77.63,111.11L77.63,111.11z"/>
		</g>
	</g>
	<g>
		<g>
			<path d="M128.26,80.86c3.48-1.25,6.96-2.5,10.44-3.75c0.51-0.18,0.85-0.68,0.7-1.23c-0.13-0.49-0.72-0.88-1.23-0.7
				c-3.48,1.25-6.96,2.5-10.44,3.75c-0.51,0.18-0.85,0.68-0.7,1.23C127.16,80.65,127.75,81.04,128.26,80.86L128.26,80.86z"/>
		</g>
	</g>
	<g>
		<g>
			<path d="M128.64,85c3.49-2.31,6.97-4.63,10.46-6.94c1.07-0.71,0.07-2.44-1.01-1.73c-3.49,2.31-6.97,4.63-10.46,6.94
				C126.57,83.98,127.57,85.71,128.64,85L128.64,85z"/>
		</g>
	</g>
	<g>
		<g>
			<path d="M130.33,88.03c3.36-2.85,6.37-6.05,9.03-9.55c0.33-0.43,0.07-1.12-0.36-1.37c-0.51-0.3-1.04-0.07-1.37,0.36
				c-2.56,3.36-5.5,6.42-8.72,9.15c-0.41,0.35-0.36,1.05,0,1.41C129.32,88.44,129.91,88.38,130.33,88.03L130.33,88.03z"/>
		</g>
	</g>
	<g>
		<g>
			<path d="M138.23,78.04c-0.67,2.92-1.67,5.75-2.74,8.55c-0.5,1.31-0.94,2.67-1.61,3.91c-0.61,1.13-1.64,1.95-2.21,3.1
				c-0.57,1.15,1.15,2.16,1.73,1.01c0.61-1.22,1.71-2.1,2.33-3.33c0.63-1.24,1.08-2.58,1.58-3.87c1.11-2.89,2.15-5.81,2.84-8.83
				C140.45,77.32,138.52,76.78,138.23,78.04L138.23,78.04z"/>
		</g>
	</g>
	<g>
		<g>
			<path d="M141.34,74.68c-0.02-1.2-1.15-2.03-2.3-1.96c-0.59,0.04-1.16,0.27-1.56,0.73c-0.45,0.52-0.67,1.12-0.74,1.8
				c-0.12,1.11,0.3,2.47,1.17,3.21c0.51,0.43,1.18,0.7,1.85,0.62c0.77-0.09,1.43-0.51,1.77-1.23c0.6-1.27,0.38-2.91-0.46-4.03
				c-0.16-0.22-0.33-0.39-0.6-0.46c-0.24-0.07-0.56-0.04-0.77,0.1c-0.41,0.27-0.69,0.92-0.36,1.37c0.13,0.17,0.24,0.35,0.33,0.54
				c0.02,0.04,0.03,0.08,0.05,0.12c-0.11-0.21-0.05-0.13-0.03-0.06c0.04,0.12,0.08,0.24,0.11,0.36c0.01,0.04,0.02,0.08,0.03,0.12
				c0.01,0.04,0.01,0.22,0.01,0.05c0-0.18,0,0.02,0,0.06c0,0.04,0.01,0.08,0.01,0.13c0,0.11,0,0.21,0,0.32
				c0,0.04-0.01,0.08-0.01,0.13c-0.02,0.21,0.04-0.2,0-0.02c-0.02,0.1-0.04,0.19-0.07,0.29c0,0.01-0.04,0.1-0.04,0.11
				c-0.02-0.1,0.09-0.2,0.02-0.05c-0.02,0.04-0.05,0.08-0.07,0.13c-0.08,0.14,0.03-0.06,0.05-0.06c-0.02,0-0.08,0.09-0.1,0.1
				c-0.06,0.05-0.03,0.03,0.09-0.06c-0.03,0.02-0.06,0.04-0.1,0.06c-0.08,0.05-0.11,0,0.08-0.03c-0.03,0-0.08,0.02-0.11,0.03
				c-0.19,0.07,0.24,0,0.04,0c-0.04,0-0.08,0-0.12,0c-0.03,0-0.09-0.01-0.12-0.01c0.05,0.01,0.1,0.01,0.15,0.02
				c-0.04-0.01-0.08-0.02-0.11-0.03c-0.04-0.01-0.07-0.02-0.11-0.03c-0.19-0.06,0.19,0.11,0.02,0.01c-0.04-0.03-0.08-0.05-0.13-0.08
				c-0.11-0.06,0.18,0.17,0.03,0.03c-0.07-0.07-0.13-0.13-0.19-0.2c-0.09-0.1,0.13,0.21,0.02,0.03c-0.02-0.04-0.05-0.07-0.07-0.1
				c-0.06-0.1-0.11-0.2-0.16-0.3c-0.06-0.13,0.09,0.24,0.02,0.04c-0.01-0.04-0.03-0.08-0.04-0.12c-0.03-0.1-0.06-0.2-0.08-0.29
				c-0.02-0.08-0.03-0.16-0.05-0.25c-0.03-0.14,0.03,0.27,0.01,0.07c0-0.06-0.01-0.11-0.01-0.17c0-0.09,0-0.19,0-0.28
				c0-0.04,0.01-0.07,0.01-0.11c0.01-0.16-0.01,0.09-0.02,0.1c0.03-0.08,0.03-0.18,0.06-0.27c0.01-0.04,0.02-0.07,0.03-0.1
				c0.01-0.03,0.02-0.07,0.04-0.1c-0.06,0.15-0.08,0.19-0.05,0.12c0.04-0.07,0.08-0.14,0.12-0.21c0.1-0.16-0.13,0.15-0.04,0.05
				c0.03-0.03,0.06-0.07,0.09-0.1c0.02-0.02,0.06-0.05,0.08-0.07c-0.14,0.17-0.16,0.11-0.07,0.06c0.03-0.02,0.06-0.04,0.09-0.05
				c0.14-0.08-0.24,0.08-0.08,0.03c0.07-0.02,0.14-0.03,0.21-0.05c-0.29,0.07-0.19,0.02-0.09,0.02c0.04,0,0.09,0,0.13,0
				c0.08,0,0.16,0.05-0.14-0.02c0.04,0.01,0.09,0.01,0.13,0.02c0.03,0.01,0.07,0.02,0.1,0.03c0.2,0.05-0.21-0.11-0.06-0.03
				c0.06,0.03,0.12,0.07,0.18,0.11c-0.24-0.13-0.16-0.13-0.09-0.07c0.03,0.03,0.13,0.15,0.02,0c-0.12-0.15-0.03-0.04-0.01,0
				c0.06,0.11,0.01,0.12-0.03-0.1c0,0.02,0.02,0.05,0.02,0.08c0.05,0.15-0.02-0.3-0.01-0.06c0.01,0.52,0.45,1.02,1,1
				C140.88,75.65,141.35,75.24,141.34,74.68L141.34,74.68z"/>
		</g>
	</g>
	<g>
		<g>
			<path d="M140.93,75.02c2.3,0.9,4.86,0.42,7.16-0.23c1.99-0.57,3.96-1.49,4.76-3.53c0.15-0.38-0.09-0.96-0.46-1.13
				c-0.83-0.38-1.78-0.31-2.41,0.41c-0.85,0.96,0.56,2.38,1.41,1.41c0.15-0.17,0.11-0.04-0.01-0.09c-0.15-0.38-0.31-0.75-0.46-1.13
				c-0.54,1.39-2.42,1.88-3.7,2.23c-1.89,0.51-3.87,0.87-5.76,0.14c-0.5-0.2-1.1,0.22-1.23,0.7
				C140.07,74.35,140.42,74.82,140.93,75.02L140.93,75.02z"/>
		</g>
	</g>
	<g>
		<g>
			<path d="M17.78,72.44c-0.93,0.2-2.19,1.15-1.68,2.22c0.41,0.86,1.13,1.56,1.9,2.1c1.81,1.26,4.13,1.49,6.24,1.87
				c1.21,0.22,2.42,0.46,3.63,0.65c1.03,0.16,2.22,0.12,2.82-0.88c0.46-0.77,0.36-1.89-0.45-2.38c-0.89-0.54-2.16-0.11-2.81,0.63
				c-0.75,0.87-0.64,2.32,0.44,2.87c1.19,0.61,2.51-0.57,2.19-1.82c-0.32-1.24-2.25-0.72-1.93,0.53c-0.01,0.01-0.01,0.02-0.02,0.02
				c0.05-0.17,0.09-0.34,0.14-0.5c0.03-0.06,0.67,0.14,0.68,0.14c-0.01,0.03-0.02,0.06-0.03,0.1c0.02-0.03,0.05-0.05,0.07-0.08
				c-0.08,0.01,0.31-0.14,0.31-0.14c0.02-0.06-0.2-0.33-0.31-0.41c0.06,0.04-0.18-0.11,0.02-0.02c0.06-0.04,0.04-0.05-0.03-0.01
				c-0.04,0.02-0.09,0.03-0.14,0.02c-0.3,0.01-0.58-0.05-0.88-0.1c-1.39-0.25-2.78-0.5-4.16-0.75c-2.15-0.39-4.85-0.7-5.96-2.87
				c0,0.34,0,0.67,0,1.01c0.13-0.2,0.26-0.24,0.48-0.29C19.57,74.1,19.04,72.17,17.78,72.44L17.78,72.44z"/>
		</g>
	</g>
	<g>
		<g>
			<path d="M28.69,80.2c3.53,5.54,7.96,10.42,12.89,14.75c5.01,4.4,10.5,8.47,16.22,11.9c6.2,3.71,13.15,5.19,20.16,6.55
				c3.54,0.69,7.06,1.15,10.67,0.84c3.57-0.31,7.13-1.02,10.6-1.91c7.52-1.94,14.73-5.04,21.35-9.12c1.09-0.67,0.09-2.41-1.01-1.73
				c-5.72,3.53-11.86,6.3-18.31,8.21c-6.79,2.01-13.85,3.34-20.91,2.13c-6.76-1.17-13.87-2.46-19.94-5.77
				c-5.56-3.03-10.82-6.96-15.67-11.01c-5.49-4.59-10.47-9.8-14.32-15.84C29.72,78.11,27.99,79.11,28.69,80.2L28.69,80.2z"/>
		</g>
	</g>
	<g>
		<g>
			<path d="M27.39,79.87c1.43,8.89,5.37,16.71,10.83,23.79c2.66,3.44,5.51,6.52,9.1,9.01c3.62,2.51,7.54,4.63,11.52,6.51
				c7.99,3.78,16.77,6.85,25.6,7.8c8.68,0.93,16.96-2.11,24.44-6.3c7.77-4.36,14.55-10.32,19.92-17.42
				c0.78-1.03-0.96-2.02-1.73-1.01c-4.59,6.07-10.32,11.26-16.78,15.27c-6.73,4.18-14.73,7.83-22.79,7.66
				c-4.45-0.1-8.83-1.1-13.1-2.3c-4.12-1.16-8.17-2.59-12.08-4.3c-7.55-3.3-15.27-7.36-20.63-13.76
				c-6.23-7.45-10.81-15.81-12.36-25.47C29.12,78.07,27.19,78.61,27.39,79.87L27.39,79.87z"/>
		</g>
	</g>
	<g>
		<g>
			<path d="M29.44,80.45c12.98,10.35,29.74,14.65,46.17,13.45c4.95-0.36,9.85-1.19,14.65-2.41c1.25-0.32,0.72-2.25-0.53-1.93
				c-15.78,4.01-32.88,3.49-47.74-3.59c-3.96-1.89-7.71-4.2-11.14-6.94C29.85,78.24,28.43,79.65,29.44,80.45L29.44,80.45z"/>
		</g>
	</g>
	<g>
		<g>
			<path d="M91.44,91.08c0.25-0.07,0.51-0.13,0.77-0.16c-0.09,0.01-0.18,0.02-0.27,0.04c0.33-0.04,0.65-0.05,0.98-0.03
				c0.25,0.02,0.54-0.12,0.71-0.29c0.17-0.17,0.3-0.46,0.29-0.71c-0.01-0.26-0.1-0.53-0.29-0.71c-0.07-0.05-0.13-0.1-0.2-0.16
				c-0.16-0.09-0.32-0.14-0.5-0.14c-0.67-0.04-1.37,0.04-2.02,0.23c-0.24,0.07-0.47,0.24-0.6,0.46c-0.13,0.21-0.18,0.53-0.1,0.77
				c0.08,0.24,0.23,0.48,0.46,0.6C90.91,91.1,91.18,91.15,91.44,91.08L91.44,91.08z"/>
		</g>
	</g>
	
		<ellipse transform="matrix(0.4428 -0.8966 0.8966 0.4428 -11.1572 133.8512)" class="st11" cx="102.11" cy="75.9" rx="1.5" ry="0.38"/>
	
		<ellipse transform="matrix(0.4428 -0.8966 0.8966 0.4428 -10.232 143.3236)" class="st11" cx="110.2" cy="79.89" rx="1.5" ry="0.38"/>
	
		<ellipse transform="matrix(0.4428 -0.8966 0.8966 0.4428 -9.1941 143.5256)" class="st12" cx="110.88" cy="79.16" rx="0.69" ry="0.38"/>
	
		<ellipse transform="matrix(0.4428 -0.8966 0.8966 0.4428 -10.1191 134.0546)" class="st12" cx="102.79" cy="75.17" rx="0.69" ry="0.38"/>
</g>
<g id="Ebene_12">
	<g class="st13">
		<path d="M70.51,31.25c-1.03,3.34-0.1,7.22,2.34,9.72c-0.81,0.41-1.84,0.14-2.52-0.46c-0.68-0.6-1.07-1.46-1.34-2.33
			c-0.67-2.15-0.7-4.61,0.47-6.54"/>
		<g>
			<path d="M69.55,30.98c-1.12,3.72-0.08,7.9,2.6,10.7c0.07-0.52,0.13-1.05,0.2-1.57c-0.58,0.27-1.29-0.2-1.64-0.64
				c-0.52-0.65-0.77-1.52-0.96-2.31c-0.39-1.68-0.32-3.5,0.58-5.01c0.66-1.11-1.07-2.12-1.73-1.01c-1.27,2.15-1.31,4.8-0.62,7.16
				c0.33,1.11,0.84,2.26,1.76,3.01c1.05,0.86,2.39,1.09,3.62,0.52c0.6-0.28,0.61-1.14,0.2-1.57c-2.2-2.3-3-5.71-2.08-8.75
				C71.85,30.28,69.92,29.75,69.55,30.98L69.55,30.98z"/>
		</g>
	</g>
	<g class="st13">
		<path d="M11.99,28.34c-0.27,3.58,1.17,7.08,2.95,10.2c1.67,2.94,3.81,5.81,6.88,7.22c0.62,0.28,1.28,0.52,1.75,1.02
			c0.46,0.5,0.62,1.37,0.12,1.83c-0.21,0.2-0.5,0.28-0.78,0.36c-1.32,0.37-2.65,0.7-4,0.99c-1.7,0.36-3.53,0.64-5.11-0.07
			c-1.77-0.8-2.85-2.81-2.72-4.74s1.36-3.72,3.04-4.69c-2.47-0.01-4.64-2.07-5.21-4.47c-0.57-2.4,0.26-4.98,1.76-6.94"/>
		<g>
			<path d="M10.99,28.34c-0.23,3.82,1.22,7.44,3.09,10.7c1.62,2.85,3.69,5.68,6.63,7.28c0.57,0.31,1.84,0.58,2.17,1.19
				c0.29,0.54-0.23,0.48-0.64,0.59c-0.53,0.15-1.06,0.28-1.59,0.41c-1.83,0.45-4.02,1.17-5.89,0.63c-1.62-0.46-2.7-2.05-2.69-3.72
				c0.01-1.74,1.11-3.24,2.56-4.13c0.86-0.53,0.49-1.83-0.5-1.86c-2.03-0.08-3.69-1.67-4.2-3.59c-0.6-2.24,0.3-4.53,1.62-6.32
				c0.77-1.04-0.97-2.04-1.73-1.01c-1.75,2.37-2.7,5.59-1.64,8.45c0.94,2.52,3.22,4.37,5.94,4.47c-0.17-0.62-0.34-1.24-0.5-1.86
				c-2.6,1.6-4.28,4.75-3.23,7.78c1.18,3.4,4.4,4.3,7.68,3.77c1.79-0.29,3.82-0.64,5.5-1.33c1.35-0.55,1.81-2.03,1.04-3.29
				c-0.83-1.37-2.78-1.72-4.02-2.62c-1.36-0.99-2.49-2.3-3.44-3.68c-2.37-3.45-4.42-7.58-4.16-11.86
				C13.06,27.06,11.06,27.06,10.99,28.34L10.99,28.34z"/>
		</g>
	</g>
	<g class="st13">
		<path d="M20.28,52.34c0.97,24.85,3.89,49.62,8.7,74.02c-3.18-0.08-6.36-0.17-9.54-0.25c0.5-23.86,0.61-47.73,0.33-71.6"/>
		<g>
			<path d="M19.28,52.34c0.77,19.38,2.7,38.71,5.79,57.86c0.89,5.49,1.87,10.97,2.94,16.42c0.32-0.42,0.64-0.84,0.96-1.27
				c-3.18-0.08-6.36-0.17-9.54-0.25c0.33,0.33,0.67,0.67,1,1c0.39-18.56,0.54-37.12,0.46-55.69c-0.02-5.3-0.07-10.61-0.13-15.91
				c-0.01-1.29-2.01-1.29-2,0c0.21,18.56,0.19,37.13-0.06,55.69c-0.07,5.3-0.17,10.61-0.28,15.91c-0.01,0.55,0.47,0.99,1,1
				c3.18,0.08,6.36,0.17,9.54,0.25c0.69,0.02,1.09-0.65,0.96-1.27c-3.73-18.94-6.32-38.09-7.74-57.34
				c-0.4-5.47-0.71-10.94-0.93-16.41C21.23,51.06,19.23,51.05,19.28,52.34L19.28,52.34z"/>
		</g>
	</g>
	<g class="st13">
		<path d="M31.04,81.3c3.24,9.33,9.27,17.68,17.12,23.68c4.12,3.16,8.7,5.66,13.26,8.15c8.91,4.87,17.98,9.8,27.9,11.96
			c-10.3-0.11-20.25-3.67-29.62-7.95c-3.81-1.74-7.58-3.61-10.93-6.13c-9.52-7.17-14.54-18.7-19.02-29.75"/>
		<g>
			<path d="M30.07,81.56c3.08,8.74,8.42,16.63,15.5,22.62c3.95,3.34,8.4,5.99,12.92,8.49c4.59,2.54,9.19,5.08,13.92,7.35
				c5.33,2.56,10.85,4.75,16.63,6.03c0.09-0.65,0.18-1.31,0.27-1.96c-10.93-0.17-21.4-4.11-31.15-8.76
				c-4.59-2.19-8.93-4.77-12.55-8.39c-3.29-3.3-5.93-7.17-8.18-11.24c-2.61-4.72-4.71-9.71-6.73-14.7
				c-0.48-1.18-2.41-0.66-1.93,0.53c3.64,8.96,7.51,18.14,14.07,25.4c3.48,3.85,7.67,6.79,12.28,9.14
				c4.97,2.53,10.16,4.75,15.45,6.53c6.04,2.04,12.33,3.39,18.73,3.49c1.11,0.02,1.38-1.72,0.27-1.96
				c-10.05-2.23-19.12-7.18-28.07-12.08c-4.41-2.42-8.86-4.86-12.85-7.93c-3.56-2.74-6.76-5.99-9.45-9.59
				c-3.07-4.11-5.5-8.66-7.21-13.5C31.58,79.83,29.64,80.34,30.07,81.56L30.07,81.56z"/>
		</g>
	</g>
	<g class="st13">
		<path d="M106.01,65.89c-4.04,1.06-7.23,4.21-9.58,7.66c-1.27,1.86-2.37,3.9-2.76,6.12c-0.91,5.25,2.26,10.25,5.28,14.64
			c-3.73-2.2-6.19-6.4-6.29-10.73c-0.1-4.2,1.88-8.21,4.44-11.54c2.03-2.64,4.61-5.07,7.83-5.94"/>
		<g>
			<path d="M105.74,64.92c-5.6,1.57-10.22,6.76-12.33,12.05c-2.57,6.44,1.1,12.62,4.68,17.83c0.46-0.46,0.91-0.91,1.37-1.37
				c-4.77-2.92-6.79-8.6-5.23-13.92c1.49-5.1,5.69-10.92,10.98-12.47c1.23-0.36,0.71-2.29-0.53-1.93c-3.16,0.93-5.72,3.05-7.77,5.57
				c-2.09,2.56-3.86,5.48-4.71,8.69c-1.6,6.07,0.89,12.48,6.27,15.78c0.82,0.5,1.95-0.53,1.37-1.37c-3.17-4.6-6.77-10.11-4.63-15.89
				c1.77-4.79,6.09-9.65,11.09-11.05C107.51,66.51,106.98,64.58,105.74,64.92L105.74,64.92z"/>
		</g>
	</g>
	<g class="st13">
		<path d="M131.86,51.04c4.98,7.11,7.43,15.67,9.07,24.18c1.84,9.55,2.77,19.25,3.44,28.94c0.36,5.16,0.65,10.34,1.71,15.4
			c1.06,5.06,2.93,10.04,6.16,14.08c-5.72-1.74-11.64-2.82-17.61-3.21c0.92-1.89,1.84-3.78,2.6-5.73c1.21-3.13,2-6.42,2.64-9.72
			c2.69-13.9,2.73-28.31,0.13-42.23"/>
		<g>
			<path d="M131,51.55c6.32,9.13,8.59,20.34,10.19,31.13c0.88,5.92,1.46,11.89,1.92,17.86c0.45,5.8,0.65,11.65,1.65,17.4
				c1.03,5.92,3.04,11.65,6.78,16.42c0.32-0.56,0.65-1.11,0.97-1.67c-5.82-1.75-11.81-2.83-17.87-3.24c0.29,0.5,0.58,1,0.86,1.5
				c2.19-4.5,3.92-8.99,4.97-13.89c1.02-4.77,1.7-9.63,2.09-14.49c0.8-10.04,0.23-20.16-1.6-30.06c-0.23-1.26-2.16-0.73-1.93,0.53
				c1.77,9.57,2.3,19.35,1.56,29.05c-0.37,4.85-1.04,9.68-2.06,14.44c-1.01,4.74-2.66,9.07-4.77,13.42c-0.34,0.7,0.08,1.45,0.86,1.5
				c5.89,0.4,11.69,1.47,17.34,3.17c1.05,0.32,1.54-0.95,0.97-1.67c-7.18-9.18-7-21.61-7.86-32.65
				c-0.88-11.32-2.06-22.85-5.17-33.81c-1.6-5.64-3.85-11.11-7.2-15.95C132,49.48,130.26,50.48,131,51.55L131,51.55z"/>
		</g>
	</g>
	<g class="st13">
		<path d="M122.94,17.15c-0.88,6.51,0.77,13.21,3.88,19s7.61,10.73,12.57,15.05c-2.57,0.98-5.82-0.69-6.52-3.35
			c-1.82,1.93-4.33,3.56-6.96,3.2c-2.28-0.31-4.24-2.25-4.57-4.52c-1.65,1.1-3.93,0.86-5.65-0.13c-1.72-1-2.97-2.62-4.07-4.28
			c-0.57-0.86-1.12-1.8-1.11-2.83c0.03-2.13,2.32-3.4,4.29-4.23c-1.24-0.14-2.22-1.2-2.64-2.39s-0.37-2.47-0.31-3.72
			c0.07-1.72,0.22-3.59,1.41-4.83c1.19-1.24,3.78-1.1,4.18,0.57c0.31-3.61,2.79-6.96,6.15-8.31"/>
		<g>
			<path d="M121.94,17.15c-1.76,13.87,6.8,26.05,16.74,34.75c0.15-0.56,0.29-1.11,0.44-1.67c-2.16,0.73-4.62-0.44-5.29-2.65
				c-0.21-0.71-1.13-0.99-1.67-0.44c-1.51,1.56-3.55,3.14-5.86,2.95c-2.09-0.17-3.63-1.83-3.99-3.83c-0.12-0.64-0.96-0.91-1.47-0.6
				c-3.11,1.88-6.2-0.97-7.9-3.39c-0.78-1.12-1.95-2.61-1.11-3.99c0.72-1.19,2.26-1.83,3.48-2.35c0.78-0.33,0.57-1.68-0.24-1.83
				c-2.77-0.5-2.36-4.37-2.13-6.44c0.11-1.06,0.37-2.47,1.36-3.08c0.63-0.38,1.9-0.47,2.17,0.38c0.36,1.12,1.85,0.83,1.96-0.27
				c0.35-3.35,2.6-6.15,5.66-7.44c1.18-0.5,0.16-2.22-1.01-1.73c-3.75,1.59-6.23,5.16-6.65,9.17c0.65-0.09,1.31-0.18,1.96-0.27
				c-0.49-1.5-1.9-2.24-3.44-2.1c-1.86,0.17-3.09,1.54-3.64,3.24c-0.62,1.91-0.7,4.39-0.37,6.36c0.33,1.92,1.57,3.73,3.58,4.09
				c-0.08-0.61-0.16-1.22-0.24-1.83c-1.71,0.73-3.6,1.72-4.41,3.49c-0.93,2.02,0.17,3.94,1.32,5.59c2.33,3.34,6.5,6.61,10.64,4.11
				c-0.49-0.2-0.98-0.4-1.47-0.6c0.47,2.62,2.61,4.8,5.26,5.22c3.08,0.49,5.88-1.35,7.93-3.46c-0.56-0.15-1.11-0.29-1.67-0.44
				c0.97,3.2,4.54,5.13,7.75,4.05c0.66-0.22,1.04-1.14,0.44-1.67c-9.58-8.39-17.85-19.94-16.15-33.34
				C124.1,15.88,122.1,15.89,121.94,17.15L121.94,17.15z"/>
		</g>
	</g>
	<g class="st13">
		<path d="M98.24,97.09c-4.98,4-8.95,9.24-11.43,15.13c-1.41-0.32-2.84-0.54-4.28-0.65c-0.9-0.07-1.84-0.1-2.63-0.53
			c-0.79-0.43-1.37-1.41-1.03-2.24c5.94-3.28,11.8-6.69,17.58-10.24"/>
		<g>
			<path d="M97.53,96.38c-5.04,4.08-9.04,9.37-11.59,15.33c0.38-0.15,0.75-0.31,1.13-0.46c-1.38-0.31-2.78-0.53-4.19-0.66
				c-0.82-0.07-3.5-0.06-3.05-1.54c-0.15,0.2-0.31,0.4-0.46,0.6c5.94-3.28,11.8-6.7,17.58-10.24c1.1-0.67,0.09-2.4-1.01-1.73
				c-4.98,3.05-10.02,6.01-15.11,8.86c-0.94,0.53-2.73,1.07-3,2.23c-0.24,1.01,0.27,2.07,1.03,2.73c0.93,0.8,2.16,0.94,3.33,1.03
				c1.47,0.12,2.91,0.32,4.35,0.64c0.39,0.09,0.95-0.05,1.13-0.46c2.49-5.83,6.35-10.94,11.28-14.93
				C99.95,96.99,98.52,95.58,97.53,96.38L97.53,96.38z"/>
		</g>
	</g>
</g>
<g id="Ebene_13">
	<g class="st13">
		<g>
			<path class="st9" d="M73.9,34.12c0.23,0.11,0.44,0.23,0.64,0.38c0.21,0.15-0.14-0.12,0-0.01c0.05,0.04,0.1,0.08,0.15,0.13
				c0.09,0.08,0.18,0.17,0.27,0.26c0.09,0.09,0.16,0.19,0.24,0.28c-0.22-0.24-0.05-0.07-0.01,0c0.03,0.05,0.07,0.1,0.1,0.14
				c0.14,0.22,0.26,0.45,0.36,0.68c-0.03-0.08-0.07-0.16-0.1-0.24c0.14,0.34,0.24,0.69,0.29,1.05c-0.01-0.09-0.02-0.18-0.04-0.27
				c0,0.03,0.01,0.07,0.01,0.1c0.03,0.27,0.09,0.51,0.29,0.71c0.17,0.17,0.46,0.3,0.71,0.29c0.26-0.01,0.53-0.1,0.71-0.29
				c0.17-0.18,0.32-0.45,0.29-0.71c-0.1-0.9-0.38-1.76-0.91-2.51c-0.52-0.73-1.19-1.35-2-1.74c-0.25-0.12-0.5-0.18-0.77-0.1
				c-0.23,0.06-0.48,0.24-0.6,0.46C73.3,33.2,73.39,33.88,73.9,34.12L73.9,34.12z"/>
		</g>
	</g>
	<g class="st13">
		<g>
			<path class="st9" d="M140.74,23.75c6.14,1.6,11.07,6.67,12.52,12.83c0.29,1.25,2.22,0.72,1.93-0.53
				c-1.61-6.82-7.13-12.47-13.91-14.23C140.02,21.49,139.49,23.42,140.74,23.75L140.74,23.75z"/>
		</g>
	</g>
	<g class="st13">
		<g>
			<path class="st9" d="M146.32,58.66c-0.23,2.7-0.34,5.41-0.3,8.12c0.01,1.29,2.01,1.29,2,0c-0.03-2.71,0.07-5.42,0.3-8.12
				c0.05-0.54-0.49-1-1-1C146.74,57.66,146.37,58.12,146.32,58.66L146.32,58.66z"/>
		</g>
	</g>
	<g class="st13">
		<g>
			<path class="st9" d="M145.86,78.51c0.09,8.18,0.17,16.36,0.26,24.54c0.01,1.29,2.01,1.29,2,0c-0.09-8.18-0.17-16.36-0.26-24.54
				C147.84,77.22,145.84,77.22,145.86,78.51L145.86,78.51z"/>
		</g>
	</g>
	<g class="st13">
		<g>
			<path class="st9" d="M33.49,50.93c-3.82,3.55-6.47,8.3-7.44,13.43c-0.24,1.26,1.69,1.8,1.93,0.53c0.91-4.82,3.33-9.21,6.93-12.55
				C35.85,51.46,34.43,50.05,33.49,50.93L33.49,50.93z"/>
		</g>
	</g>
	<g class="st13">
		<g>
			<path class="st9" d="M23.62,82.3c-0.06,0.78-0.12,1.56-0.18,2.35c-0.02,0.24,0.12,0.54,0.29,0.71c0.17,0.17,0.46,0.3,0.71,0.29
				c0.26-0.01,0.53-0.1,0.71-0.29c0.19-0.2,0.27-0.43,0.29-0.71c0.06-0.78,0.12-1.56,0.18-2.35c0.02-0.24-0.12-0.54-0.29-0.71
				c-0.17-0.17-0.46-0.3-0.71-0.29c-0.26,0.01-0.53,0.1-0.71,0.29C23.72,81.8,23.64,82.02,23.62,82.3L23.62,82.3z"/>
		</g>
	</g>
	<g class="st13">
		<g>
			<path class="st9" d="M79.72,117.04c13.08,1.89,26.5-0.38,38.21-6.53c1.14-0.6,0.13-2.33-1.01-1.73
				c-11.19,5.88-24.15,8.14-36.66,6.33C78.99,114.93,78.45,116.85,79.72,117.04L79.72,117.04z"/>
		</g>
	</g>
	<g class="st13">
		<g>
			<path class="st9" d="M46.39,92.05c6.45,3.51,13.7,4.96,20.98,5.28c3.75,0.17,7.5,0.05,11.24-0.2c3.78-0.26,7.64-0.5,11.27-1.69
				c1.22-0.4,0.7-2.33-0.53-1.93c-3.53,1.16-7.27,1.39-10.95,1.64c-3.53,0.23-7.07,0.35-10.6,0.21c-7.07-0.28-14.14-1.62-20.4-5.03
				C46.27,89.7,45.25,91.43,46.39,92.05L46.39,92.05z"/>
		</g>
	</g>
</g>
</svg>
