<?xml version="1.0" encoding="utf-8"?>
<!-- Generator: Adobe Adobe Illustrator 24.2.0, SVG Export Plug-In . SVG Version: 6.00 Build 0)  -->
<svg version="1.1" xmlns="http://www.w3.org/2000/svg" xmlns:xlink="http://www.w3.org/1999/xlink" x="0px" y="0px"
	 viewBox="0 0 170.08 170.08" style="enable-background:new 0 0 170.08 170.08;" xml:space="preserve">
<style type="text/css">
	.st0{fill:#5C646F;}
	.st1{fill:#F2C058;}
	.st2{fill:#F2C059;}
	.st3{fill:#F4F5E7;}
	.st4{fill:#F3F5E9;}
	.st5{fill:#F3C156;}
	.st6{fill:#C9326B;}
	.st7{fill:#90625C;}
	.st8{fill:#FFFFFF;}
	.st9{fill:#582F7D;}
	.st10{fill:#5A2F7C;}
	.st11{stroke:#000000;stroke-width:0.8997;stroke-miterlimit:10;}
	.st12{stroke:#000000;stroke-width:0.8729;stroke-miterlimit:10;}
	.st13{stroke:#000000;stroke-width:0.8452;stroke-miterlimit:10;}
	.st14{fill:#FFFFFF;stroke:#FFFFFF;stroke-width:0.3086;stroke-miterlimit:10;}
</style>
<g id="Ebene_4">
</g>
<g id="Ebene_8">
</g>
<g id="Ebene_9">
	<g>
		<path class="st0" d="M66.91,113.16c-0.29,0.99-0.39,2.03-0.29,3.06c6.26,0.05,12.51,0.09,18.77,0.14c0.33,0,0.66,0,0.96-0.11
			c0.95-0.34,1.23-1.53,1.35-2.54c-6.56-0.28-13.12-0.55-19.69-0.83"/>
		<g>
			<path class="st0" d="M65.94,112.89c-0.29,1.09-0.4,2.19-0.33,3.32c0.04,0.54,0.43,1,1,1c4.45,0.03,8.9,0.07,13.35,0.1
				c1.11,0.01,2.22,0.02,3.34,0.03c0.97,0.01,2.05,0.15,3-0.05c1.59-0.34,2.16-1.86,2.37-3.31c0.09-0.65-0.25-1.24-0.96-1.27
				c-6.56-0.28-13.12-0.55-19.69-0.83c-1.29-0.05-1.28,1.95,0,2c6.56,0.28,13.12,0.55,19.69,0.83c-0.32-0.42-0.64-0.84-0.96-1.27
				c-0.07,0.53-0.13,1.5-0.65,1.83c-0.28,0.18-0.8,0.08-1.12,0.08c-0.56,0-1.11-0.01-1.67-0.01c-1.81-0.01-3.61-0.03-5.42-0.04
				c-3.75-0.03-7.51-0.06-11.26-0.09c0.33,0.33,0.67,0.67,1,1c-0.07-0.97,0.01-1.85,0.25-2.79
				C68.2,112.18,66.27,111.64,65.94,112.89L65.94,112.89z"/>
		</g>
	</g>
	<g>
		<path class="st0" d="M89.06,115.72c2.88-7.87,6.33-15.54,10.29-22.93c0.13-0.24,0.27-0.49,0.5-0.63c0.24-0.15,0.54-0.16,0.82-0.16
			c9.71-0.14,19.42-0.29,29.13-0.43c-2.18,7.72-4.35,15.44-6.53,23.17c-0.14,0.49-0.32,1.03-0.78,1.24
			c-0.24,0.11-0.52,0.11-0.79,0.11c-10.89-0.22-21.79,0.02-32.66,0.71"/>
		<g>
			<path class="st0" d="M90.02,115.99c1.55-4.23,3.26-8.4,5.13-12.49c0.92-2.01,1.88-4.01,2.87-5.99c0.5-0.99,1-1.97,1.52-2.95
				c0.19-0.36,0.47-1.27,0.8-1.5c0.34-0.23,1.16-0.07,1.55-0.08c9.3-0.14,18.59-0.27,27.89-0.41c-0.32-0.42-0.64-0.84-0.96-1.27
				c-1.29,4.57-2.58,9.14-3.87,13.71c-0.67,2.36-1.33,4.73-2,7.09c-0.22,0.78-0.37,2.69-1.27,2.98c-0.52,0.17-1.43-0.03-1.98-0.03
				c-0.58-0.01-1.16-0.02-1.73-0.02c-9.66-0.1-19.31,0.16-28.95,0.77c-1.28,0.08-1.29,2.08,0,2c10.46-0.66,20.95-0.91,31.43-0.73
				c0.91,0.02,1.99,0.2,2.78-0.38c0.7-0.52,0.9-1.36,1.13-2.15c0.72-2.52,1.42-5.04,2.13-7.56c1.42-5.04,2.84-10.09,4.27-15.13
				c0.17-0.62-0.32-1.28-0.96-1.27c-5.1,0.07-10.2,0.15-15.3,0.22c-2.47,0.04-4.94,0.07-7.4,0.11c-1.15,0.02-2.3,0.03-3.46,0.05
				c-1.16,0.02-2.52-0.15-3.65,0.11c-0.91,0.21-1.3,0.88-1.72,1.65c-0.53,0.97-1.03,1.96-1.54,2.95c-1.08,2.11-2.11,4.25-3.1,6.41
				c-2.02,4.39-3.86,8.86-5.53,13.4C87.65,116.66,89.58,117.19,90.02,115.99L90.02,115.99z"/>
		</g>
	</g>
</g>
<g id="Ebene_10">
	<g>
		<path class="st1" d="M19.07,114.85c-1.56-9.32-2.23-18.79-2-28.24c5.99-2.19,12.53-2.86,18.84-1.93c0.19,0.03,0.4,0.06,0.53,0.2
			c0.18,0.19,0.15,0.5,0.11,0.76c-1.59,10.18-3.39,20.32-5.4,30.42c-3.39,0.01-6.78,0.02-10.17,0.03c-0.91,0-1.93-0.04-2.53-0.73"/>
		<g>
			<path class="st2" d="M20.03,114.59c-1.53-9.24-2.18-18.61-1.97-27.98c-0.24,0.32-0.49,0.64-0.73,0.96
				c3.79-1.36,7.74-2.15,11.76-2.28c1.97-0.06,3.95,0.02,5.91,0.26c0.56,0.28,0.76,0.22,0.57-0.18c-0.02,0.16-0.05,0.33-0.07,0.49
				c-0.15,0.53-0.18,1.14-0.27,1.7c-0.17,1.05-0.34,2.1-0.51,3.15c-1.37,8.39-2.89,16.75-4.54,25.09c0.32-0.24,0.64-0.49,0.96-0.73
				c-2.1,0.01-4.2,0.01-6.3,0.02c-0.97,0-1.94,0.01-2.91,0.01c-0.86,0-2.12,0.2-2.8-0.43c-0.94-0.88-2.36,0.54-1.41,1.41
				c1.5,1.4,3.78,1.02,5.66,1.01c2.58-0.01,5.17-0.02,7.75-0.03c0.41,0,0.88-0.31,0.96-0.73c1.87-9.46,3.57-18.96,5.09-28.48
				c0.24-1.48,1-3.67-1.03-4.13c-1.97-0.45-4.16-0.45-6.17-0.44c-4.5,0.04-8.97,0.86-13.2,2.37c-0.43,0.15-0.72,0.5-0.73,0.96
				c-0.21,9.55,0.48,19.09,2.04,28.51C18.31,116.39,20.24,115.85,20.03,114.59L20.03,114.59z"/>
		</g>
	</g>
	<g>
		<path class="st1" d="M25.84,130.05c-1.47,1.11-1.07,3.84,0.65,4.49c0.72,0.27,1.52,0.21,2.28,0.15
			c13.49-1.1,27.06-1.29,40.58-0.56c0.2-1.29,0.4-2.57,0.6-3.86c-11.68,0.1-23.37,0.2-35.05,0.31c-3,0.03-6.02,0.05-8.96-0.55"/>
		<g>
			<path class="st2" d="M25.13,129.34c-2.11,1.82-1.27,5.59,1.46,6.27c1.03,0.26,2.13,0.08,3.17-0.01c1.15-0.09,2.3-0.17,3.46-0.25
				c2.39-0.16,4.78-0.29,7.17-0.39c9.65-0.41,19.32-0.35,28.96,0.17c0.39,0.02,0.9-0.32,0.96-0.73c0.2-1.29,0.4-2.57,0.6-3.86
				c0.1-0.63-0.25-1.27-0.96-1.27c-7.32,0.06-14.65,0.13-21.97,0.19c-3.62,0.03-7.24,0.06-10.86,0.1c-3.64,0.03-7.33,0.2-10.92-0.49
				c-1.26-0.24-1.8,1.69-0.53,1.93c3.54,0.68,7.12,0.6,10.71,0.57c3.7-0.03,7.4-0.06,11.11-0.1c7.49-0.07,14.97-0.13,22.46-0.2
				c-0.32-0.42-0.64-0.84-0.96-1.27c-0.2,1.29-0.4,2.57-0.6,3.86c0.32-0.24,0.64-0.49,0.96-0.73c-8.16-0.44-16.34-0.55-24.51-0.32
				c-4.04,0.11-8.08,0.31-12.12,0.58c-0.99,0.07-1.98,0.14-2.96,0.22c-0.81,0.06-1.84,0.29-2.64,0.08
				c-1.32-0.35-1.55-2.08-0.57-2.93C27.52,129.91,26.1,128.5,25.13,129.34L25.13,129.34z"/>
		</g>
	</g>
</g>
<g id="Ebene_13">
</g>
<g id="Ebene_14">
	<g>
		<path class="st3" d="M88.44,59.7c-0.8,6.32-1.18,12.69-1.12,19.06c0,0.34,0.01,0.71,0.21,0.99c0.22,0.3,0.6,0.43,0.96,0.53
			c2.89,0.79,5.93,0.81,8.93,0.81c13.89,0,27.77-0.35,41.64-1.04c0.7-0.03,1.48-0.11,1.95-0.63c0.33-0.36,0.43-0.87,0.51-1.36
			c0.9-5.26,1.1-10.64,0.59-15.96c-0.08-0.87-0.24-1.84-0.95-2.36c-0.45-0.33-1.04-0.41-1.6-0.47c-17.01-1.8-34.21-1.89-51.24-0.27"
			/>
		<g>
			<path class="st4" d="M87.44,59.7c-0.65,5.19-1.03,10.4-1.11,15.63c-0.03,1.76-0.67,4.76,1.3,5.7c2.01,0.95,4.77,0.96,6.95,1.03
				c10.35,0.31,20.77-0.1,31.11-0.45c2.64-0.09,5.29-0.19,7.93-0.31c1.32-0.06,2.64-0.12,3.96-0.18c1.02-0.05,2.17,0.02,3.14-0.35
				c1.99-0.76,1.94-3.33,2.17-5.11c0.33-2.57,0.5-5.15,0.5-7.74c0-2.25,0.04-4.7-0.43-6.91c-0.42-1.96-1.8-2.56-3.64-2.76
				c-5.23-0.56-10.49-0.93-15.75-1.16c-11.75-0.5-23.54-0.19-35.25,0.91c-1.27,0.12-1.28,2.12,0,2c9.26-0.87,18.55-1.25,27.85-1.12
				c4.69,0.07,9.37,0.26,14.05,0.58c2.3,0.16,4.59,0.35,6.89,0.57c0.95,0.09,2.31-0.02,3.19,0.39c0.92,0.42,0.83,1.8,0.9,2.65
				c0.38,4.66,0.22,9.39-0.52,14.01c-0.06,0.41-0.07,1.08-0.28,1.44c-0.28,0.47-0.86,0.49-1.33,0.53c-1.23,0.1-2.48,0.12-3.72,0.18
				c-2.31,0.1-4.62,0.2-6.94,0.29c-9.33,0.35-18.67,0.54-28.01,0.57c-2.57,0.01-5.15,0.08-7.71-0.12c-0.7-0.05-1.39-0.13-2.08-0.24
				c-0.52-0.09-1.42-0.11-1.84-0.4c-0.88-0.6-0.44-3.01-0.43-3.98c0.08-5.23,0.46-10.44,1.11-15.63
				C89.6,58.42,87.6,58.43,87.44,59.7L87.44,59.7z"/>
		</g>
	</g>
</g>
<g id="Ebene_15">
	<g>
		<path class="st5" d="M135.28,21.43c-4.71-2.73-11.61-3.73-16.46-1.27s-8.82,7.18-9.41,12.6c-0.75,6.91,4.87,15,11.17,17.93
			s14.13,1.71,19.17-3.08c2.19-2.08,3.86-4.81,4.22-7.81c0.25-2.09-0.15-4.21-0.62-6.26c-1.06-4.68-3.13-9.94-7.73-11.31"/>
		<g>
			<path class="st5" d="M135.79,20.56c-3.32-1.88-7.19-2.9-11.01-2.8c-3.75,0.1-7.05,1.48-9.95,3.82c-2.86,2.3-5.14,5.51-6.05,9.09
				c-0.86,3.42-0.29,6.91,1.12,10.11c2.95,6.66,9.16,11.85,16.54,12.43c7.3,0.57,15.13-3.46,17.82-10.49
				c1.62-4.22,0.44-9.23-1.08-13.33c-1.33-3.57-3.51-6.91-7.3-8.13c-1.23-0.4-1.75,1.53-0.53,1.93c2.94,0.95,4.7,3.64,5.77,6.4
				c1.24,3.18,2.35,7.12,1.79,10.53c-1.1,6.72-8.28,10.98-14.64,11.14c-6.55,0.16-12.16-3.68-15.46-9.18
				c-1.58-2.64-2.65-5.7-2.45-8.81c0.21-3.18,1.79-6.18,3.94-8.48c2.51-2.68,5.8-4.65,9.5-4.96c3.78-0.32,7.67,0.61,10.96,2.47
				C135.9,22.92,136.91,21.2,135.79,20.56L135.79,20.56z"/>
		</g>
	</g>
</g>
<g id="Ebene_16">
	<g>
		<g>
			<path class="st6" d="M126.93,34.4c-0.05-0.1-0.13-0.2-0.21-0.28c-0.14-0.14-0.31-0.23-0.5-0.3c-0.11-0.04-0.24-0.05-0.35-0.05
				c-0.12,0-0.25,0.02-0.37,0.05c-0.11,0.03-0.23,0.08-0.33,0.13c-0.07,0.04-0.13,0.09-0.19,0.14c-0.23,0.18-0.38,0.4-0.48,0.68
				c-0.04,0.11-0.05,0.24-0.06,0.35c-0.01,0.12,0.01,0.26,0.04,0.38c0.03,0.12,0.08,0.24,0.14,0.35c0.06,0.11,0.14,0.21,0.23,0.29
				c0.18,0.19,0.4,0.3,0.65,0.39c0.17,0.06,0.36,0.09,0.53,0.09c0.13,0,0.26-0.02,0.39-0.04c0.05-0.01,0.1-0.02,0.15-0.04
				c0.16-0.06,0.32-0.12,0.46-0.23c0.1-0.07,0.2-0.15,0.29-0.23c0.09-0.09,0.16-0.19,0.23-0.29c0.08-0.11,0.14-0.23,0.19-0.36
				c0.05-0.13,0.1-0.24,0.12-0.38c0.03-0.18,0.06-0.36,0.04-0.53c-0.02-0.17-0.04-0.35-0.1-0.51c-0.05-0.12-0.09-0.24-0.16-0.34
				c-0.07-0.11-0.15-0.2-0.23-0.3c-0.03-0.04-0.06-0.07-0.1-0.1c-0.1-0.08-0.2-0.17-0.31-0.23c-0.15-0.09-0.31-0.16-0.48-0.2
				c-0.35-0.1-0.71-0.09-1.06-0.01c-0.17,0.04-0.33,0.11-0.48,0.19c-0.04,0.02-0.08,0.05-0.12,0.07c-0.1,0.07-0.21,0.15-0.3,0.24
				c-0.12,0.12-0.23,0.26-0.3,0.42c-0.12,0.26-0.17,0.44-0.19,0.73c-0.03,0.35,0.08,0.69,0.23,1.01c0.07,0.16,0.19,0.3,0.3,0.43
				c0.06,0.07,0.12,0.14,0.2,0.2c0.13,0.11,0.26,0.22,0.42,0.29c0.27,0.12,0.44,0.17,0.73,0.2c0.17,0.02,0.35-0.01,0.52-0.05
				c0.04-0.01,0.08-0.02,0.12-0.04c0.11-0.04,0.23-0.09,0.34-0.15c0.27-0.16,0.5-0.4,0.66-0.67c0.17-0.3,0.24-0.6,0.27-0.94
				c0.01-0.08,0.01-0.16,0-0.24c-0.02-0.16-0.03-0.33-0.08-0.49c-0.05-0.15-0.11-0.3-0.19-0.44c-0.08-0.13-0.18-0.27-0.3-0.37
				c-0.12-0.1-0.25-0.21-0.39-0.28c-0.11-0.07-0.24-0.11-0.37-0.12c-0.13-0.03-0.27-0.02-0.4,0.02c-0.23,0.06-0.48,0.24-0.6,0.46
				c-0.12,0.23-0.18,0.51-0.1,0.77c0.08,0.23,0.23,0.49,0.46,0.6c0.05,0.02,0.1,0.05,0.14,0.09c-0.07-0.05-0.13-0.1-0.2-0.16
				c0.05,0.04,0.1,0.09,0.14,0.14c-0.05-0.07-0.1-0.13-0.16-0.2c0.04,0.06,0.08,0.12,0.11,0.19c-0.03-0.08-0.07-0.16-0.1-0.24
				c0.04,0.09,0.06,0.17,0.07,0.27c-0.01-0.09-0.02-0.18-0.04-0.27c0.01,0.11,0.01,0.21,0,0.32c0.01-0.09,0.02-0.18,0.04-0.27
				c-0.01,0.1-0.04,0.2-0.08,0.29c0.03-0.08,0.07-0.16,0.1-0.24c-0.03,0.08-0.08,0.15-0.13,0.22c0.05-0.07,0.1-0.13,0.16-0.2
				c-0.04,0.05-0.09,0.1-0.14,0.14c0.07-0.05,0.13-0.1,0.2-0.16c-0.05,0.04-0.11,0.08-0.17,0.1c0.08-0.03,0.16-0.07,0.24-0.1
				c-0.06,0.03-0.13,0.04-0.2,0.05c0.09-0.01,0.18-0.02,0.27-0.04c-0.06,0.01-0.13,0.01-0.19,0c0.09,0.01,0.18,0.02,0.27,0.04
				c-0.08-0.01-0.15-0.03-0.22-0.06c0.08,0.03,0.16,0.07,0.24,0.1c-0.08-0.03-0.15-0.08-0.22-0.13c0.07,0.05,0.13,0.1,0.2,0.16
				c-0.08-0.06-0.15-0.13-0.21-0.21c0.05,0.07,0.1,0.13,0.16,0.2c-0.06-0.08-0.11-0.17-0.15-0.26c0.03,0.08,0.07,0.16,0.1,0.24
				c-0.03-0.09-0.06-0.17-0.07-0.27c0.01,0.09,0.02,0.18,0.04,0.27c-0.01-0.08-0.01-0.15,0-0.23c-0.01,0.09-0.02,0.18-0.04,0.27
				c0.01-0.06,0.03-0.12,0.05-0.18c-0.03,0.08-0.07,0.16-0.1,0.24c0.02-0.05,0.05-0.1,0.08-0.15c-0.05,0.07-0.1,0.13-0.16,0.2
				c0.05-0.06,0.1-0.11,0.15-0.15c-0.07,0.05-0.13,0.1-0.2,0.16c0.06-0.05,0.13-0.09,0.21-0.12c-0.08,0.03-0.16,0.07-0.24,0.1
				c0.08-0.03,0.17-0.05,0.25-0.07c-0.09,0.01-0.18,0.02-0.27,0.04c0.1-0.01,0.2-0.01,0.31,0c-0.09-0.01-0.18-0.02-0.27-0.04
				c0.09,0.01,0.17,0.04,0.25,0.07c-0.08-0.03-0.16-0.07-0.24-0.1c0.07,0.03,0.14,0.07,0.21,0.12c-0.07-0.05-0.13-0.1-0.2-0.16
				c0.06,0.05,0.11,0.1,0.15,0.15c-0.05-0.07-0.1-0.13-0.16-0.2c0.04,0.05,0.07,0.11,0.1,0.17c-0.03-0.08-0.07-0.16-0.1-0.24
				c0.03,0.07,0.05,0.15,0.06,0.23c-0.01-0.09-0.02-0.18-0.04-0.27c0.01,0.09,0.01,0.19,0,0.28c0.01-0.09,0.02-0.18,0.04-0.27
				c-0.01,0.09-0.04,0.18-0.07,0.27c0.03-0.08,0.07-0.16,0.1-0.24c-0.04,0.09-0.08,0.17-0.14,0.24c0.05-0.07,0.1-0.13,0.16-0.2
				c-0.05,0.06-0.1,0.12-0.17,0.17c0.07-0.05,0.13-0.1,0.2-0.16c-0.06,0.04-0.12,0.08-0.18,0.11c0.08-0.03,0.16-0.07,0.24-0.1
				c-0.06,0.03-0.12,0.04-0.19,0.05c0.09-0.01,0.18-0.02,0.27-0.04c-0.07,0.01-0.14,0.01-0.2,0c0.09,0.01,0.18,0.02,0.27,0.04
				c-0.07-0.01-0.13-0.03-0.2-0.05c0.08,0.03,0.16,0.07,0.24,0.1c-0.05-0.02-0.09-0.05-0.13-0.08c0.07,0.05,0.13,0.1,0.2,0.16
				c-0.03-0.03-0.06-0.05-0.09-0.09c0.05,0.07,0.1,0.13,0.16,0.2c-0.03-0.03-0.05-0.07-0.06-0.11c0.03,0.08,0.07,0.16,0.1,0.24
				c-0.01-0.03-0.02-0.07-0.03-0.1c0.01,0.09,0.02,0.18,0.04,0.27c0-0.02,0-0.05,0-0.07c-0.01,0.09-0.02,0.18-0.04,0.27
				c0-0.03,0.01-0.06,0.02-0.09c-0.03,0.08-0.07,0.16-0.1,0.24c0.01-0.03,0.03-0.05,0.05-0.08c-0.05,0.07-0.1,0.13-0.16,0.2
				c0.02-0.03,0.05-0.05,0.08-0.08c-0.07,0.05-0.13,0.1-0.2,0.16c0.03-0.03,0.07-0.05,0.11-0.07c-0.08,0.03-0.16,0.07-0.24,0.1
				c0.04-0.02,0.08-0.03,0.12-0.03c-0.09,0.01-0.18,0.02-0.27,0.04c0.03,0,0.06,0,0.08,0c-0.09-0.01-0.18-0.02-0.27-0.04
				c0.02,0,0.04,0.01,0.06,0.02c-0.08-0.03-0.16-0.07-0.24-0.1c0.02,0.01,0.04,0.02,0.05,0.03c-0.07-0.05-0.13-0.1-0.2-0.16
				c0.01,0.01,0.02,0.02,0.04,0.04c-0.05-0.07-0.1-0.13-0.16-0.2c0.01,0.01,0.02,0.03,0.03,0.05c0.12,0.22,0.36,0.4,0.6,0.46
				c0.24,0.07,0.56,0.04,0.77-0.1c0.21-0.14,0.4-0.34,0.46-0.6C127.09,34.91,127.06,34.65,126.93,34.4L126.93,34.4z"/>
		</g>
	</g>
</g>
<g id="Ebene_7">
	<g>
		<path class="st7" d="M17.25,120.19c-0.73,0.24-0.75,1.37-0.2,1.91c0.55,0.54,1.39,0.62,2.15,0.67c9.9,0.54,36.95-0.65,41.41-0.35
			c12.99,0.87,45.5-0.43,49.13-0.1c8.46,0.77,16.97,0.85,25.47,0.92c1.13,0.01,2.32,0.01,3.31-0.55c0.99-0.56,2.41-3.37,1.86-4.36
			c-1.19-2.14-7.27,3.01-68.49-0.37c-19.8-1.09-47.59,1.81-49.86,0.98c-1.43-0.52-3.13-0.7-4.37,0.17"/>
		<g>
			<path class="st7" d="M16.75,119.33c-1,0.51-1.31,1.72-0.89,2.73c0.55,1.34,2.06,1.62,3.35,1.71c1.87,0.12,3.75,0.13,5.62,0.14
				c5.02,0.03,10.05-0.07,15.07-0.18c7.82-0.17,15.62-0.48,23.43-0.17c9.92,0.4,19.87,0.12,29.8-0.07
				c4.16-0.08,8.31-0.18,12.47-0.22c4.09-0.04,8.13,0.4,12.22,0.59c4.08,0.19,8.17,0.28,12.25,0.33c2,0.02,4.01,0.12,6,0.05
				c1.36-0.05,2.79-0.29,3.74-1.35c1.13-1.27,2.82-4.6,0.72-5.78c-1.37-0.77-3.62-0.18-5.07-0.05c-4.76,0.45-9.53,0.75-14.3,0.91
				c-10,0.33-20.02,0.18-30.02-0.15c-7.25-0.24-14.5-0.7-21.75-0.97c-6.42-0.24-12.86-0.13-19.28,0.09
				c-5.75,0.2-11.5,0.51-17.25,0.81c-3.33,0.17-6.77,0.55-10.1,0.3c-0.09-0.01-0.18-0.01-0.26-0.02c-0.09-0.01,0.19,0.04-0.01-0.01
				c-0.37-0.09-0.72-0.24-1.1-0.32c-1.46-0.34-2.93-0.25-4.22,0.55c-1.09,0.68-0.09,2.41,1.01,1.73c1.61-1,3.25,0.02,4.95,0.1
				c1.33,0.06,2.66,0,3.99-0.05c4.66-0.18,9.32-0.47,13.99-0.7c6.02-0.3,12.05-0.54,18.08-0.59c6.35-0.06,12.66,0.25,18.99,0.56
				c17.68,0.86,35.53,1.51,53.2,0.13c2.49-0.19,5.02-0.63,7.51-0.63c0.13,0,0.26,0.01,0.39,0.01c0.4,0.01-0.14,0,0.11,0.01
				c0.03,0,0.26,0.04,0.27,0.08c0,0.02-0.25-0.2-0.01,0.02c-0.08-0.07-0.21-0.08-0.18-0.17c-0.09,0.23-0.14,1.1-0.36,1.57
				c-0.74,1.58-1.74,1.91-3.46,1.93c-1.94,0.02-3.88-0.03-5.82-0.06c-3.92-0.05-7.84-0.13-11.76-0.31
				c-2.94-0.14-5.87-0.46-8.81-0.59c-2.68-0.12-5.39,0-8.07,0.05c-9.6,0.17-19.21,0.41-28.82,0.38c-6.95-0.02-13.86-0.4-20.81-0.26
				c-9.49,0.2-19,0.57-28.49,0.43c-0.83-0.01-1.66-0.03-2.49-0.06c-0.39-0.01-0.79-0.03-1.18-0.05c-0.21-0.01-2.26-0.4-1.63-0.72
				C18.9,120.47,17.89,118.74,16.75,119.33L16.75,119.33z"/>
		</g>
	</g>
</g>
<g id="Ebene_5">
	<g>
		<path class="st8" d="M36.95,112.49c0.62-0.68,1.16-1.44,1.59-2.26c0.08-0.15,0.16-0.31,0.15-0.47c-0.01-0.51-0.67-0.69-1.18-0.68
			c-2.32,0.06-4.59,1.23-5.98,3.1c-0.65,0.87-1.11,2.06-0.61,3.02c0.46,0.88,1.54,1.21,2.51,1.39c1.48,0.28,3.12,0.37,4.4-0.44
			c0.47-0.3,0.9-0.79,0.84-1.35c-0.03-0.32-0.23-0.61-0.46-0.84c-0.45-0.46-1.06-0.77-1.69-0.86"/>
		<g>
			<path class="st8" d="M37.66,113.2c0.41-0.46,0.8-0.94,1.14-1.45c0.35-0.51,0.77-1.11,0.87-1.73c0.2-1.31-1.09-1.96-2.21-1.94
				c-2.18,0.05-4.33,1.01-5.88,2.53c-1.52,1.49-2.86,4.27-0.8,5.94c0.84,0.68,1.91,0.94,2.96,1.1c1.13,0.16,2.3,0.23,3.41-0.1
				c1.22-0.36,2.62-1.31,2.54-2.74c-0.09-1.42-1.59-2.44-2.88-2.66c-0.53-0.09-1.08,0.14-1.23,0.7c-0.13,0.48,0.16,1.14,0.7,1.23
				c0.51,0.09,1.33,0.38,1.43,0.88c-0.01-0.05,0.03-0.14-0.01-0.04c-0.06,0.16,0.12-0.14-0.06,0.11c0.06-0.08-0.05,0.06-0.05,0.06
				c0.02-0.03-0.22,0.2-0.16,0.15c-0.25,0.19-0.59,0.33-0.92,0.42c-0.69,0.18-1.48,0.16-2.24,0.06c-0.57-0.08-1.41-0.24-1.86-0.48
				c-0.28-0.15-0.45-0.28-0.55-0.45c-0.13-0.23-0.16-0.45-0.12-0.71c0.09-0.63,0.53-1.26,0.97-1.75c0.98-1.08,2.23-1.79,3.65-2.11
				c0.41-0.09,0.67-0.13,1.1-0.14c0.08,0,0.16,0,0.24,0c-0.17-0.01,0.06,0.02,0.11,0.03c0.12,0.02,0.07-0.02,0.02,0
				c0.1,0.06,0.1,0.06,0-0.01c-0.02-0.02-0.04-0.05-0.06-0.07c-0.02-0.09-0.05-0.18-0.07-0.27c0.06-0.16,0.06-0.19,0.01-0.09
				c-0.08,0.1-0.13,0.25-0.2,0.36c-0.13,0.22-0.26,0.44-0.4,0.65c-0.26,0.39-0.55,0.76-0.87,1.11c-0.36,0.4-0.4,1.02,0,1.41
				C36.61,113.57,37.3,113.6,37.66,113.2L37.66,113.2z"/>
		</g>
	</g>
	<g>
		<path class="st8" d="M77.9,105.47c-0.75,0.07-1.4,0.65-1.64,1.36c-0.24,0.71-0.09,1.52,0.29,2.17c0.09,0.15,0.21,0.31,0.39,0.33
			c0.17,0.03,0.33-0.07,0.45-0.19c0.46-0.41,0.71-1,1.06-1.51c0.34-0.51,0.87-0.99,1.49-0.95c0.46,0.03,0.85,0.34,1.21,0.62
			c1.28,0.99,2.92,1.85,4.44,1.31c0.11-0.04,0.22-0.09,0.29-0.17c0.23-0.28-0.07-0.69-0.35-0.91c-1.99-1.56-4.52-2.42-7.05-2.37"/>
		<g>
			<path class="st8" d="M77.9,104.47c-2.24,0.29-3.3,2.58-2.42,4.6c0.22,0.5,0.53,1,1.08,1.19c0.57,0.19,1.11-0.01,1.55-0.4
				c0.37-0.33,0.64-0.76,0.89-1.18c0.17-0.29,0.36-0.71,0.67-0.89c0.29-0.18,0.47,0.01,0.74,0.2c0.4,0.29,0.77,0.59,1.19,0.84
				c0.88,0.53,1.88,0.93,2.92,0.96c0.99,0.03,2.45-0.33,2.45-1.57c0-1.1-1.17-1.78-1.99-2.28c-1.94-1.18-4.22-1.79-6.5-1.77
				c-1.29,0.01-1.29,2.01,0,2c1.27-0.01,2.5,0.2,3.69,0.62c0.58,0.21,1.13,0.48,1.66,0.79c0.25,0.15,0.5,0.31,0.74,0.48
				c0.1,0.07,0.21,0.14,0.3,0.23c0.06,0.05,0.11,0.1,0.16,0.15c-0.06-0.12-0.07-0.11-0.03,0.04c0-0.18,0-0.35,0-0.53
				c0.38-0.26,0.46-0.35,0.25-0.27c-0.08,0.03-0.15,0.05-0.23,0.07c-0.14,0.03-0.21,0.04-0.35,0.04c-0.26,0-0.49-0.03-0.74-0.09
				c-0.58-0.15-1.11-0.44-1.61-0.77c-0.48-0.32-0.91-0.74-1.44-0.98c-0.67-0.31-1.39-0.32-2.05,0.02c-0.54,0.28-0.96,0.75-1.28,1.25
				c-0.16,0.24-0.29,0.49-0.44,0.73c-0.06,0.1-0.13,0.2-0.2,0.3c-0.05,0.06-0.1,0.11-0.16,0.17c-0.24,0.2-0.01,0.24,0.68,0.11
				c0-0.09-0.14-0.26-0.17-0.35c-0.04-0.11-0.07-0.23-0.09-0.34c-0.04-0.23-0.02-0.49,0.07-0.71c0.11-0.26,0.39-0.59,0.67-0.63
				c0.54-0.07,1-0.41,1-1C78.9,104.99,78.44,104.4,77.9,104.47L77.9,104.47z"/>
		</g>
	</g>
	<g>
		<path class="st8" d="M59.59,154.44c0.96-0.48,1.8-1.18,2.75-1.7c0.95-0.51,2.08-0.84,3.1-0.5c0.76,0.26,1.35,0.84,1.92,1.42
			c0.32,0.32,0.66,0.71,0.6,1.16c-0.07,0.51-0.62,0.8-1.11,0.97c-1.94,0.68-4.04,0.87-6.06,0.57c-0.54-0.08-1.1-0.21-1.5-0.58
			c-0.4-0.37-0.58-1.03-0.24-1.46"/>
		<g>
			<path class="st8" d="M60.1,155.3c1.35-0.7,2.58-1.98,4.14-2.18c0.65-0.08,1.19,0.15,1.69,0.56c0.29,0.24,0.57,0.51,0.82,0.79
				c0.04,0.05,0.22,0.36,0.23,0.16c0-0.01,0.01-0.02,0.03-0.02c-0.07,0.05-0.14,0.09-0.21,0.13c-0.12,0.06-0.22,0.1-0.37,0.15
				c-0.41,0.14-0.83,0.25-1.25,0.35c-0.76,0.17-1.52,0.26-2.3,0.27c-0.74,0.01-1.51-0.02-2.24-0.18c-0.25-0.06-0.57-0.12-0.74-0.33
				c0,0-0.06-0.12-0.06-0.18c0,0.1-0.04,0.16,0.06,0.02c0.3-0.45,0.09-1.11-0.36-1.37c-0.49-0.29-1.07-0.09-1.37,0.36
				c-0.5,0.73-0.36,1.72,0.16,2.4c0.51,0.66,1.31,0.97,2.11,1.1c1.8,0.29,3.64,0.23,5.42-0.19c0.8-0.19,1.69-0.41,2.34-0.94
				c0.75-0.6,0.95-1.59,0.48-2.44c-0.39-0.71-1.13-1.34-1.77-1.82c-0.69-0.52-1.51-0.82-2.38-0.82c-2.14,0-3.66,1.55-5.45,2.47
				C57.95,154.17,58.96,155.89,60.1,155.3L60.1,155.3z"/>
		</g>
	</g>
	<g>
		<path class="st8" d="M81.46,154.57c0.73-1.12,1.91-1.9,3.16-2.37c1.26-0.47,2.6-0.65,3.93-0.78c1.2-0.12,2.65-0.09,3.28,0.93
			c0.26,0.42,0.29,1.05-0.11,1.35c-0.19,0.14-0.42,0.18-0.65,0.21c-2.12,0.33-4.25,0.62-6.39,0.91c-0.34,0.05-0.68,0.09-1.02,0.08
			c-0.59-0.01-1.17-0.19-1.67-0.5"/>
		<g>
			<path class="st8" d="M82.32,155.08c0.87-1.3,2.37-1.95,3.85-2.29c0.87-0.2,1.77-0.32,2.66-0.39c0.55-0.04,1.19-0.08,1.71,0.13
				c0.2,0.08,0.29,0.2,0.45,0.33c0.18,0.16,0,0.11,0.05,0.14c0.15-0.12,0.16-0.15,0.03-0.1c-0.08,0.02-0.17,0.04-0.26,0.05
				c-0.99,0.17-1.99,0.3-2.99,0.44c-0.93,0.13-1.86,0.26-2.8,0.38c-0.9,0.12-1.71,0.25-2.52-0.24c-1.11-0.66-2.12,1.07-1.01,1.73
				c1.78,1.06,3.83,0.47,5.76,0.21c1-0.14,2-0.28,2.99-0.43c0.91-0.13,1.99-0.15,2.52-1.03c0.99-1.64-0.7-3.28-2.23-3.54
				c-0.76-0.13-1.5-0.1-2.27-0.02c-0.98,0.1-1.96,0.23-2.91,0.48c-1.9,0.49-3.65,1.49-4.76,3.14
				C79.88,155.14,81.61,156.14,82.32,155.08L82.32,155.08z"/>
		</g>
	</g>
	<g>
		<path class="st8" d="M36.2,124.81c1.83,1.72,4.24,2.74,6.71,3.19c1.88,0.34,3.81,0.37,5.73,0.4c3.65,0.05,7.3,0.11,10.96,0.16
			c0.43,0.01,0.89,0.01,1.28-0.19c0.51-0.26,0.8-0.8,1.03-1.32c0.29-0.67,0.45-1.6-0.16-1.98c-0.24-0.15-0.55-0.16-0.84-0.17
			c-7.81-0.17-15.61-0.34-23.42-0.52"/>
		<g>
			<path class="st8" d="M35.49,125.51c2.6,2.35,5.87,3.42,9.32,3.73c4.23,0.38,8.55,0.22,12.79,0.28c1.56,0.02,3.45,0.37,4.57-0.98
				c0.76-0.92,1.35-2.55,0.71-3.67c-0.79-1.38-2.91-1.01-4.23-1.03c-2.16-0.05-4.32-0.09-6.48-0.14c-4.9-0.11-9.8-0.22-14.7-0.32
				c-1.29-0.03-1.29,1.97,0,2c4.32,0.09,8.64,0.19,12.96,0.28c2.16,0.05,4.32,0.09,6.48,0.14c1.08,0.02,2.16,0.05,3.24,0.07
				c0.25,0.01,0.5,0.01,0.75,0.02c0.32-0.08,0.4,0.01,0.24,0.27c0.04,0.26-0.26,0.82-0.41,1c-0.68,0.74-2.24,0.38-3.12,0.37
				c-1.16-0.02-2.32-0.03-3.49-0.05c-2.15-0.03-4.29-0.05-6.44-0.1c-3.87-0.08-7.79-0.58-10.77-3.28
				C35.95,123.24,34.53,124.65,35.49,125.51L35.49,125.51z"/>
		</g>
	</g>
	<g>
		<path class="st8" d="M42.3,79.22c-3.15,5.84-4.42,12.48-5.65,19c-0.51,2.68-1.01,5.36-1.52,8.04c-0.06,0.3-0.11,0.61-0.05,0.92
			c0.16,0.74,1.04,1.13,1.79,1c0.74-0.13,1.36-0.63,1.91-1.15c0.32-0.3,0.63-0.61,1.03-0.77c0.34-0.13,0.71-0.15,1.07-0.16
			c4.49-0.15,8.98-0.3,13.48-0.46c1.14,3.07-0.31,6.48-0.05,9.75c0.01,0.18,0.04,0.38,0.17,0.51c0.15,0.16,0.39,0.17,0.6,0.18
			c1.46,0.05,2.92,0.1,4.37,0.15c0.17,0.01,0.34,0.01,0.49-0.07c0.39-0.21,0.3-0.78,0.17-1.21c-3.37-10.38-2.83-21.63-1.2-32.42
			c0.16-1.07,0.35-2.18,0.98-3.06c0.5-0.69,1.22-1.18,1.91-1.68c6.51-4.73,11.03-12.9,9.51-20.81c-0.42-2.18-1.27-4.26-2.2-6.28
			c-1-2.16-2.13-4.31-3.83-5.98c-4.3-4.21-11.2-4.34-17.04-2.84c-2.22,0.57-4.42,1.35-6.3,2.66c-3.78,2.61-5.93,7.18-6.28,11.76
			s-0.03,10.48,2.02,14.59c1.56,3.12,4.58,4.82,5.04,8.28"/>
		<g>
			<path class="st8" d="M41.44,78.71c-4.18,7.88-5.32,16.97-6.96,25.63c-0.31,1.65-0.96,3.68,0.92,4.59
				c1.78,0.86,3.01-0.47,4.32-1.42c0.88-0.63,2.11-0.45,3.16-0.48c1.33-0.05,2.66-0.09,3.99-0.14c2.5-0.08,4.99-0.17,7.49-0.25
				c-0.32-0.24-0.64-0.49-0.96-0.73c0.97,2.9-0.17,5.88-0.12,8.84c0.02,0.96,0.13,1.95,1.21,2.26c0.62,0.18,1.4,0.1,2.05,0.12
				c0.96,0.03,1.95,0.13,2.92,0.1c2.94-0.1,1.26-3.59,0.85-5.19c-0.78-3.02-1.26-6.12-1.49-9.23c-0.47-6.37,0.02-12.79,0.93-19.09
				c0.18-1.25,0.25-2.79,1.09-3.82c0.84-1.03,2.19-1.72,3.2-2.58c1.93-1.65,3.62-3.58,5-5.71c2.73-4.21,4.15-9.31,3.35-14.32
				c-0.46-2.88-1.66-5.63-2.95-8.22c-1.17-2.35-2.62-4.56-4.75-6.15c-3.97-2.96-9.23-3.29-13.96-2.56c-5.24,0.81-10.33,2.9-13.3,7.5
				c-3.16,4.88-3.29,11.13-2.54,16.72c0.38,2.8,1.08,5.71,2.69,8.08c1.52,2.23,3.74,3.99,4.19,6.78c0.2,1.27,2.13,0.73,1.93-0.53
				c-0.33-2.06-1.5-3.67-2.8-5.24c-1.55-1.87-2.7-3.67-3.36-6.03c-0.66-2.37-0.92-4.84-0.97-7.3c-0.05-2.33,0.02-4.72,0.62-6.98
				c0.61-2.29,1.71-4.48,3.33-6.23c1.83-1.98,4.21-3.16,6.76-3.92c4.31-1.3,9.22-1.82,13.51-0.17c4.87,1.86,7.32,6.99,8.89,11.65
				c1.57,4.67,1.04,9.55-1.21,13.91c-1.09,2.11-2.49,4.03-4.15,5.72c-0.84,0.86-1.74,1.67-2.7,2.39c-0.85,0.64-1.77,1.21-2.42,2.06
				c-1.48,1.92-1.46,4.89-1.75,7.2c-0.35,2.76-0.6,5.53-0.73,8.31c-0.27,6.13,0.12,12.34,1.67,18.29c0.19,0.74,0.41,1.48,0.63,2.21
				c0.04,0.15,0.2,0.5,0.21,0.71c0.39-0.29,0.3-0.38-0.25-0.27c-0.16-0.01-0.32-0.01-0.49-0.02c-0.81-0.03-1.62-0.06-2.43-0.08
				c0.04,0-0.94,0.01-0.97-0.03c0.12,0.19,0.2-0.85,0.2-0.98c0.09-2.95,1.01-5.83,0.04-8.73c-0.14-0.41-0.51-0.75-0.96-0.73
				c-4.33,0.15-8.65,0.28-12.98,0.44c-0.7,0.03-1.43,0.01-2.08,0.31c-0.76,0.35-1.22,1.05-1.92,1.49c-0.51,0.32-1.12,0.63-1.3-0.36
				c-0.06-0.31,0.21-1.11,0.27-1.42c0.19-1.02,0.39-2.05,0.58-3.07c1.43-7.57,2.57-15.43,6.22-22.31
				C43.77,78.58,42.05,77.57,41.44,78.71L41.44,78.71z"/>
		</g>
	</g>
</g>
<g id="Ebene_11">
	<g>
		<path class="st9" d="M40.95,108.17c-0.37,1.97-0.36,4,0,5.96c0.11,0.57,0.25,1.15,0.55,1.64c0.71,1.17,2.14,1.68,3.49,1.9
			c1.37,0.22,2.82,0.22,4.09-0.32c1.61-0.68,2.77-2.16,3.44-3.77c0.67-1.61,0.91-3.36,1.12-5.09c0.04-0.33,0.05-0.73-0.24-0.9
			c-0.15-0.09-0.35-0.08-0.53-0.06c-3.58,0.34-7.17,0.6-10.76,0.79"/>
		<g>
			<path class="st10" d="M39.98,107.91c-0.27,1.51-0.38,3.04-0.26,4.56c0.11,1.38,0.27,2.97,1.12,4.11c1.55,2.09,4.86,2.51,7.24,2.1
				c2.68-0.46,4.53-2.62,5.47-5.04c0.53-1.36,0.76-2.81,0.96-4.24c0.08-0.6,0.24-1.24,0.04-1.83c-0.25-0.75-0.94-1.07-1.69-1.03
				c-1.75,0.09-3.5,0.31-5.25,0.44c-1.84,0.14-3.67,0.25-5.51,0.35c-1.28,0.07-1.29,2.07,0,2c1.88-0.1,3.76-0.22,5.64-0.36
				c0.92-0.07,1.84-0.14,2.75-0.22c0.46-0.04,0.92-0.08,1.38-0.12c0.36-0.03,0.92-0.19,1.26-0.07c-0.15-0.09-0.29-0.17-0.44-0.26
				c-0.04-0.21-0.05-0.2-0.04,0.02c-0.01,0.13-0.03,0.26-0.04,0.39c-0.03,0.25-0.06,0.5-0.1,0.75c-0.08,0.53-0.16,1.05-0.27,1.57
				c-0.21,1.01-0.51,2.01-1.01,2.92c-0.91,1.64-2.36,2.77-4.27,2.85c-1.52,0.07-3.93-0.17-4.7-1.72c-0.44-0.91-0.51-2.1-0.56-3.09
				c-0.06-1.19,0.01-2.38,0.22-3.55c0.09-0.53-0.14-1.08-0.7-1.23C40.73,107.08,40.08,107.37,39.98,107.91L39.98,107.91z"/>
		</g>
	</g>
</g>
<g id="Ebene_6">
</g>
<g id="Ebene_12">
	<g>
		<g>
			<path d="M57.51,39.9c-5.24-1.35-10.89-0.31-15.43,2.62c-4.24,2.74-7.22,7.01-8.56,11.85c-2.38,8.6,0.75,18.33,8.34,23.26
				c6,3.9,13.1,3.8,19.52,1.07c7.08-3.01,11.97-9.2,12.42-16.99c0.34-5.84-1.34-11.82-5.07-16.36c-3.87-4.7-9.59-7.68-15.64-8.24
				c-1.28-0.12-1.27,1.88,0,2c5,0.46,9.72,2.84,13.17,6.46c3.45,3.62,5.18,8.27,5.52,13.22c0.26,3.78-0.4,7.59-2.4,10.85
				c-1.65,2.68-4.07,4.78-6.82,6.28c-4.9,2.68-10.8,3.71-16.12,1.77c-7.81-2.85-12.27-10.9-11.66-19.01c0.37-4.92,2.62-9.76,6.37-13
				c4.28-3.71,10.32-5.28,15.82-3.86C58.22,42.15,58.75,40.22,57.51,39.9L57.51,39.9z"/>
		</g>
	</g>
	<g>
		<g>
			<path d="M46.61,68.18c1.25,1.84,3.19,3.21,5.41,3.58c2.4,0.4,4.76-0.25,6.66-1.75c0.42-0.33,0.35-1.06,0-1.41
				c-0.42-0.42-0.99-0.34-1.41,0c-2.78,2.18-6.96,1.47-8.93-1.42C47.62,66.12,45.88,67.12,46.61,68.18L46.61,68.18z"/>
		</g>
	</g>
	<g>
		<g>
			<path d="M41.5,77.61c-3.95,3.46-5.15,9.37-6.38,14.23c-1.49,5.93-2.47,11.99-2.97,18.08c-0.11,1.28,1.9,1.28,2,0
				c0.47-5.76,1.4-11.48,2.78-17.09c0.63-2.56,1.32-5.12,2.19-7.62c0.81-2.33,1.9-4.55,3.79-6.2C43.89,78.17,42.47,76.76,41.5,77.61
				L41.5,77.61z"/>
		</g>
	</g>
	<g>
		<g>
			<path d="M59,79.48c-1.92,12.17-1.78,24.75,0.68,36.84c0.26,1.26,2.18,0.73,1.93-0.53c-2.39-11.71-2.55-23.98-0.68-35.78
				C61.13,78.76,59.2,78.21,59,79.48L59,79.48z"/>
		</g>
	</g>
	<g>
		<g>
			<path d="M40.57,77.4c-4.29,5.01-9.48,9.16-14.12,13.83c-1.65,1.66-3.52,3.46-4.54,5.6c-0.9,1.89-0.14,3.43,0.9,5.09
				c2.33,3.73,5.02,7.22,7.26,11.02c0.65,1.11,2.38,0.1,1.73-1.01c-1.94-3.3-4.16-6.4-6.3-9.56c-0.84-1.23-2.48-3.04-1.85-4.53
				c0.85-2,2.73-3.69,4.22-5.2c2.21-2.22,4.52-4.33,6.81-6.46c2.52-2.36,5.06-4.74,7.31-7.36C42.82,77.84,41.41,76.42,40.57,77.4
				L40.57,77.4z"/>
		</g>
	</g>
	<g>
		<g>
			<path d="M39.09,112.09c0.17-0.4,0.6-0.64,0.9-0.98c0.46-0.53,0.69-1.23,0.48-1.92c-0.38-1.22-1.87-1.69-3.02-1.63
				c-2.51,0.12-4.96,1.35-6.57,3.28c-0.82,0.98-1.59,2.2-1.81,3.49c-0.26,1.56,0.61,2.78,1.89,3.58c1.13,0.7,2.46,0.98,3.75,1.18
				c1.51,0.23,3.06,0.48,4.5-0.17c1.5-0.68,2.29-2.3,1.8-3.9c-0.49-1.63-1.91-2.57-3.31-3.37c-1.12-0.64-2.13,1.09-1.01,1.73
				c0.83,0.47,1.78,0.96,2.25,1.83c0.39,0.72,0.26,1.46-0.48,1.85c-0.87,0.47-1.98,0.28-2.91,0.14c-0.97-0.14-1.96-0.28-2.87-0.65
				c-0.64-0.26-1.68-0.81-1.67-1.61c0.01-0.84,0.61-1.77,1.09-2.43c1.01-1.38,2.55-2.37,4.2-2.77c0.46-0.11,0.94-0.19,1.42-0.18
				c0.26,0,0.62,0.09,0.78,0.19c0.08,0.05,0.07,0.08,0.09,0.08c0.04,0.06,0.03,0.06,0,0c-0.01-0.02-0.02-0.05-0.02-0.07
				c0.01-0.01-0.01-0.04,0.03-0.05c-0.08,0.03-0.2,0.21-0.26,0.26c-0.36,0.34-0.75,0.66-0.96,1.13c-0.22,0.49-0.15,1.07,0.36,1.37
				C38.14,112.7,38.87,112.59,39.09,112.09L39.09,112.09z"/>
		</g>
	</g>
	<g>
		<g>
			<path d="M39.29,107.33c-0.23,2.53-0.45,5.22-0.04,7.75c0.37,2.28,1.78,4.1,4.08,4.64c2.06,0.48,4.47,0.2,6.47-0.47
				c2.13-0.71,3.87-2.09,4.59-4.27c0.44-1.33,0.52-2.81,0.6-4.19c0.1-1.63,0.08-3.25-0.03-4.88c-0.05-0.7-0.6-1.07-1.27-0.96
				c-4.18,0.67-8.41,0.96-12.64,0.88c-1.29-0.02-1.29,1.98,0,2c4.41,0.08,8.82-0.24,13.17-0.95c-0.42-0.32-0.84-0.64-1.27-0.96
				c0.16,2.34,0.16,4.74-0.17,7.07c-0.27,1.91-1.12,3.32-2.92,4.11c-1.58,0.7-3.52,0.96-5.23,0.82c-0.82-0.07-1.68-0.3-2.31-0.85
				c-0.67-0.59-0.95-1.45-1.11-2.3c-0.2-1.13-0.16-2.32-0.14-3.46c0.02-1.33,0.1-2.65,0.22-3.97
				C41.4,106.05,39.4,106.06,39.29,107.33L39.29,107.33z"/>
		</g>
	</g>
	<g>
		<g>
			<path d="M43.22,96.31c0.03,0.07,0.07,0.14,0.1,0.2c0.05,0.1-0.04-0.12,0.02,0.05c0.05,0.14,0.1,0.29,0.13,0.43
				c0.01,0.06,0.03,0.12,0.04,0.18c0,0,0.04,0.26,0.03,0.14c-0.02-0.13,0.01,0.11,0.01,0.14c0.01,0.08,0.01,0.15,0.01,0.23
				c0,0.14,0,0.27-0.01,0.41c0,0.02-0.04,0.32,0,0.1c-0.01,0.06-0.02,0.12-0.03,0.18c-0.03,0.15-0.07,0.3-0.11,0.44
				c-0.02,0.07-0.05,0.14-0.07,0.22c-0.01,0.04-0.1,0.22-0.02,0.06c-0.27,0.58-0.78,1.04-0.96,1.66c-0.12,0.42-0.07,0.9,0.16,1.28
				c0.27,0.44,0.7,0.66,1.2,0.7c0.52,0.04,1.02-0.49,1-1c-0.03-0.58-0.44-0.96-1-1c0.22,0.02,0.4,0.12,0.53,0.29
				c0.04,0.12,0.05,0.15,0.03,0.07c-0.01-0.06-0.01-0.05,0,0.03c0,0.04-0.01,0.16-0.01,0.2c-0.02,0.05-0.02,0.04,0.01-0.01
				c0.01-0.03,0.03-0.05,0.05-0.08c0.15-0.24,0.34-0.44,0.48-0.69c0.3-0.5,0.52-1.06,0.63-1.63c0.24-1.23,0.08-2.47-0.49-3.59
				c-0.24-0.47-0.93-0.64-1.37-0.36C43.1,95.25,42.96,95.82,43.22,96.31L43.22,96.31z"/>
		</g>
	</g>
	<g>
		<g>
			<path d="M47.82,93.38c0.03,0.02,0.08,0.06,0.11,0.07c-0.04-0.01-0.15-0.13-0.05-0.04c0.05,0.05,0.12,0.15,0.18,0.18
				c-0.04-0.02-0.12-0.17-0.04-0.05c0.02,0.04,0.05,0.07,0.07,0.11c0.04,0.07,0.07,0.16,0.12,0.23c-0.03-0.04-0.07-0.19-0.03-0.06
				c0.01,0.04,0.03,0.08,0.04,0.12c0.03,0.08,0.04,0.17,0.06,0.26c0.03,0.13-0.01-0.02-0.01-0.07c0,0.04,0.01,0.09,0.01,0.13
				c0.01,0.1,0.01,0.2,0.01,0.3c0,0.04,0,0.09-0.01,0.13c0,0.02-0.02,0.17,0,0.05c0.02-0.13-0.01,0.05-0.02,0.07
				c-0.01,0.05-0.02,0.11-0.04,0.16c-0.05,0.22-0.12,0.43-0.2,0.64c-0.01,0.02-0.08,0.18-0.03,0.07c0.05-0.11-0.03,0.05-0.03,0.07
				c-0.05,0.1-0.1,0.2-0.15,0.3c-0.11,0.21-0.22,0.42-0.33,0.63c-0.25,0.46-0.13,1.11,0.36,1.37c0.47,0.25,1.1,0.13,1.37-0.36
				c0.55-1.01,1.1-2.1,1.08-3.28c-0.02-1.11-0.5-2.18-1.46-2.78c-0.44-0.28-1.12-0.11-1.37,0.36C47.2,92.51,47.34,93.09,47.82,93.38
				L47.82,93.38z"/>
		</g>
	</g>
	<g>
		<g>
			<path d="M61.58,80.66c-0.22-0.77-0.43-1.55-0.65-2.32c-0.61,0.26-1.22,0.51-1.83,0.77c2.64,6.23,5,12.57,7.09,19.01
				c0.82,2.53,1.61,5.32,3.61,7.2c1.85,1.73,4.39,2.41,6.75,1.39c1.18-0.51,0.16-2.24-1.01-1.73c-2.53,1.1-4.88-1.25-5.91-3.31
				c-1.22-2.41-1.85-5.17-2.72-7.72c-1.84-5.36-3.88-10.64-6.08-15.86c-0.45-1.06-2.13-0.3-1.83,0.77c0.22,0.77,0.43,1.55,0.65,2.32
				C60,82.43,61.93,81.91,61.58,80.66L61.58,80.66z"/>
		</g>
	</g>
	<g>
		<g>
			<path d="M78.48,106.82c-0.19,0.74-0.92,3.13-2.13,2.36c-0.49-0.31-0.7-1.02-0.59-1.56c0.16-0.76,0.83-1.3,1.48-1.66
				c1.48-0.81,3.32-0.79,4.89-0.29c0.76,0.24,1.5,0.63,2.13,1.12c0.61,0.48,1.44,1.23,1.58,2.03c0.21,1.19-1.23,0.2-1.65-0.05
				c-1.16-0.69-2.33-1.39-3.49-2.08c-1.11-0.66-2.12,1.07-1.01,1.73c1.41,0.84,2.79,1.75,4.24,2.52c1.29,0.68,2.94,0.71,3.65-0.78
				c1.26-2.61-1.95-5.18-4.03-6.08c-2.31-0.99-5.08-1.07-7.33,0.15c-1.12,0.61-2.13,1.65-2.42,2.92c-0.26,1.17,0.12,2.5,1,3.33
				c0.98,0.93,2.48,1.08,3.59,0.29c1.12-0.79,1.67-2.14,2-3.43C80.72,106.11,78.79,105.58,78.48,106.82L78.48,106.82z"/>
		</g>
	</g>
	<g>
		<g>
			<path d="M67.01,117.45c-0.09-0.58-0.06-1.2-0.06-1.78c0-0.52-0.17-1.67,0.08-2.15c0.22-0.42,1.88-0.22,2.48-0.23
				c1.34-0.02,2.68-0.03,4.02-0.03c5.14,0.01,10.27,0.23,15.39,0.64c1.28,0.1,1.28-1.9,0-2c-6.01-0.47-12.04-0.69-18.07-0.63
				c-1.37,0.01-2.94-0.15-4.29,0.13c-0.96,0.2-1.35,0.92-1.49,1.82c-0.23,1.52-0.23,3.25,0.02,4.77
				C65.28,119.25,67.21,118.71,67.01,117.45L67.01,117.45z"/>
		</g>
	</g>
	<g>
		<g>
			<path d="M88.69,117.42c1.29-5.14,3.2-10.11,5.38-14.93c1.54-3.39,3.17-6.79,5.09-9.98c0.18-0.3,0.38-0.59,0.57-0.89
				c0.04-0.07-0.01,0.06-0.1,0.09c-0.04,0.01,0.02-0.04,0.25-0.08c1.06-0.17,2.1-0.28,3.17-0.33c4.09-0.21,8.21-0.13,12.3-0.05
				c5.37,0.1,10.73,0.3,16.1,0.55c-0.32-0.42-0.64-0.84-0.96-1.27c-2.16,8.92-4.8,17.75-8,26.36c-0.45,1.21,1.48,1.73,1.93,0.53
				c3.2-8.6,5.84-17.44,8-26.36c0.16-0.65-0.3-1.23-0.96-1.27c-9.35-0.44-18.81-0.94-28.17-0.51c-1.73,0.08-4.27-0.14-5.38,1.46
				c-1.93,2.79-3.37,6.02-4.8,9.08c-2.58,5.49-4.87,11.17-6.35,17.06C86.45,118.14,88.37,118.67,88.69,117.42L88.69,117.42z"/>
		</g>
	</g>
	<g>
		<g>
			<path d="M14.77,117.71c-0.13,2.06-0.26,4.12-0.39,6.18c-0.03,0.53,0.49,1.01,1,1c8.06-0.14,16.13-0.15,24.19-0.16
				c10.39-0.01,20.78,0.02,31.17,0.05c10.58,0.03,21.16,0.06,31.75,0.05c8.49,0,16.99-0.01,25.48-0.14c2.76-0.04,5.51-0.09,8.27-0.2
				c1.45-0.06,3.03-0.02,4.45-0.35c0.21-0.05,0.38-0.1,0.58-0.2c0.42-0.2,0.54-0.72,0.46-1.13c-0.29-1.58-0.19-3.11,0.24-4.65
				c0.19-0.67-0.33-1.22-0.96-1.27c-22.98-1.77-46.01,0.5-69.01,0.23c-6.43-0.07-12.86-0.35-19.27-0.97c-1.28-0.12-1.27,1.88,0,2
				c22.95,2.23,46,0.05,68.98,0.06c6.44,0,12.88,0.18,19.29,0.68c-0.32-0.42-0.64-0.84-0.96-1.27c-0.54,1.89-0.6,3.78-0.24,5.71
				c0.15-0.38,0.31-0.75,0.46-1.13c0.39-0.18-0.01-0.02-0.18,0.01c-0.09,0.02-0.44,0.06-0.09,0.02c-0.13,0.02-0.26,0.03-0.38,0.04
				c-0.77,0.07-1.53,0.12-2.3,0.16c-2.5,0.13-5.01,0.18-7.52,0.22c-8.1,0.15-16.19,0.16-24.29,0.17
				c-10.37,0.01-20.74-0.02-31.11-0.04c-10.47-0.03-20.94-0.06-31.41-0.06c-8.39,0-16.79,0.01-25.18,0.12
				c-0.81,0.01-1.61,0.02-2.42,0.04c0.33,0.33,0.67,0.67,1,1c0.13-2.06,0.26-4.12,0.39-6.18C16.86,116.43,14.86,116.43,14.77,117.71
				L14.77,117.71z"/>
		</g>
	</g>
	<g>
		<g>
			<path d="M15.77,118.71c5.2-0.23,10.39-0.63,15.59-0.86c1.28-0.06,1.29-2.06,0-2c-5.2,0.23-10.39,0.63-15.59,0.86
				C14.49,116.77,14.48,118.77,15.77,118.71L15.77,118.71z"/>
		</g>
	</g>
	<g>
		<g>
			<path d="M19.12,117.16c-0.79-6.79-1.92-13.55-2.6-20.35c-0.27-2.71-0.68-5.61-0.36-8.33c0.03-0.29,0.14-0.58,0.18-0.87
				c-0.01,0.1,0.07-0.08-0.01,0c-0.08,0.08,0.16-0.1,0.29-0.16c1.22-0.56,2.6-0.83,3.9-1.1c5.61-1.15,11.46-1.37,17.16-0.91
				c1.28,0.1,1.28-1.9,0-2c-5.48-0.44-11.02-0.21-16.44,0.75c-1.6,0.28-3.24,0.6-4.76,1.17c-0.89,0.33-1.69,0.69-2.04,1.63
				c-0.79,2.14-0.34,4.98-0.16,7.19c0.3,3.83,0.79,7.65,1.3,11.47c0.51,3.84,1.09,7.67,1.54,11.51
				C17.27,118.42,19.27,118.44,19.12,117.16L19.12,117.16z"/>
		</g>
	</g>
	<g>
		<g>
			<path d="M32.45,124.84c2.38,2.17,5.5,3.38,8.32,4.85c0.48,0.25,1.09,0.12,1.37-0.36c0.26-0.45,0.12-1.12-0.36-1.37
				c-1.41-0.74-2.86-1.42-4.27-2.16c-1.29-0.69-2.6-1.43-3.65-2.38c-0.4-0.36-1.02-0.39-1.41,0
				C32.08,123.79,32.05,124.48,32.45,124.84L32.45,124.84z"/>
		</g>
	</g>
	<g>
		<g>
			<path d="M45.92,125.77c2.67,0.8,5.46,1.62,7.71,3.32c2.57,1.94,3.63,4.9,4.09,8c0.99,6.68-0.2,13.63-3.15,19.68
				c-0.33,0.67,0.06,1.5,0.86,1.5c3.35,0.02,6.66,0.65,10,0.68c1.89,0.02,4.12-0.45,4.29-2.71c0.09-1.15-0.28-2.58-0.92-3.54
				c-0.87-1.3-2.53-1.76-4-1.9c-3.42-0.33-7.72,0.83-8.04,4.86c-0.1,1.28,1.9,1.28,2,0c0.24-3.07,4.86-3.35,7.09-2.65
				c1.17,0.36,1.62,1.21,1.82,2.36c0.08,0.44,0.15,0.93-0.2,1.25c-0.39,0.35-1.21,0.31-1.69,0.32c-0.95,0.02-1.91-0.07-2.86-0.16
				c-2.5-0.23-4.99-0.51-7.5-0.52c0.29,0.5,0.58,1,0.86,1.5c3.26-6.67,4.52-14.27,3.29-21.62c-0.54-3.25-1.83-6.31-4.45-8.41
				c-2.51-2.01-5.65-3-8.69-3.9C45.22,123.47,44.69,125.4,45.92,125.77L45.92,125.77z"/>
		</g>
	</g>
	<g>
		<g>
			<path d="M69.83,125c9.94,6.72,13.71,19.57,9.24,30.66c-0.26,0.65,0.39,1.22,0.96,1.27c3.3,0.27,6.69,0.55,9.99,0.12
				c1.43-0.18,3.25-0.5,4.11-1.81c0.6-0.91,0.49-1.97,0.11-2.94c-1.08-2.74-4.31-2.9-6.83-2.52c-2.6,0.39-6.52,1.29-7.58,4.05
				c-0.46,1.2,1.47,1.72,1.93,0.53c0.42-1.09,2.28-1.66,3.26-1.97c1.25-0.4,2.58-0.71,3.9-0.77c1.29-0.06,2.99,0.17,3.45,1.35
				c0.08,0.2,0.15,0.42,0.19,0.63c-0.02-0.1-0.02,0.4,0.02,0.23c-0.07,0.32-0.09,0.37-0.45,0.6c-0.63,0.39-1.45,0.52-2.17,0.63
				c-3.26,0.47-6.68,0.14-9.94-0.13c0.32,0.42,0.64,0.84,0.96,1.27c4.82-11.95,0.47-25.73-10.16-32.92
				C69.77,122.55,68.76,124.28,69.83,125L69.83,125z"/>
		</g>
	</g>
	<g>
		<g>
			<path d="M24.23,128.69c-1.34,1.71-0.66,4.77-0.33,6.75c0.07,0.43,0.56,0.73,0.96,0.73c5.12,0,10.24,0,15.36,0
				c8.16,0,16.32,0,24.48,0c1.87,0,3.75,0,5.62,0c0.56,0,0.98-0.46,1-1c0.07-1.81,0.14-3.61,0.21-5.42c0.02-0.56-0.48-0.98-1-1
				c-10.82-0.43-21.64-0.72-32.47-0.86c-4.38-0.06-8.76-0.09-13.13-0.05c-1.29,0.01-1.29,2.01,0,2c14.01-0.11,28.03,0.29,42.02,0.78
				c1.19,0.04,2.39,0.08,3.58,0.13c-0.33-0.33-0.67-0.67-1-1c-0.07,1.81-0.14,3.61-0.21,5.42c0.33-0.33,0.67-0.67,1-1
				c-5.12,0-10.24,0-15.36,0c-8.16,0-16.32,0-24.48,0c-1.87,0-3.75,0-5.62,0c0.32,0.24,0.64,0.49,0.96,0.73
				c-0.11-0.66-0.19-1.33-0.24-2.01c-0.05-0.67-0.27-2.38,0.05-2.79C26.42,129.1,25.02,127.67,24.23,128.69L24.23,128.69z"/>
		</g>
	</g>
	<g>
		<g>
			<path d="M62.02,124.53c-0.37,1.23-0.54,2.52-0.53,3.8c0.01,0.52,0.45,1.02,1,1c0.54-0.02,1.01-0.44,1-1
				c-0.01-0.59,0.03-1.17,0.1-1.75c-0.01,0.09-0.02,0.18-0.04,0.27c0.08-0.6,0.21-1.2,0.39-1.78c0.15-0.5-0.18-1.11-0.7-1.23
				C62.71,123.71,62.18,123.99,62.02,124.53L62.02,124.53z"/>
		</g>
	</g>
	<g>
		<g>
			<path d="M28.81,136.33c-1.41,6.08-2.63,12.21-3.66,18.37c-0.21,1.26,1.72,1.8,1.93,0.53c1.02-6.16,2.24-12.29,3.66-18.37
				C31.02,135.61,29.1,135.07,28.81,136.33L28.81,136.33z"/>
		</g>
	</g>
	<g>
		<g>
			<path d="M42.39,137.09c0.73,5.3,1.05,10.65,0.98,16c-0.02,1.29,1.98,1.29,2,0c0.07-5.53-0.29-11.05-1.05-16.53
				c-0.07-0.54-0.76-0.82-1.23-0.7C42.51,136.01,42.31,136.56,42.39,137.09L42.39,137.09z"/>
		</g>
	</g>
	<g>
		<g>
			<path d="M66.73,135.43c1.71,6.92,3.42,13.85,5.13,20.77c0.31,1.25,2.24,0.72,1.93-0.53c-1.71-6.92-3.42-13.85-5.13-20.77
				C68.35,133.65,66.43,134.18,66.73,135.43L66.73,135.43z"/>
		</g>
	</g>
	<g>
		<g>
			<path d="M124.23,16.16c-8.26,2.04-15.8,7.66-16.61,16.66c-0.66,7.34,3.66,14.55,10.21,17.79c7.19,3.56,17.73,2.79,23.56-3.07
				c5.04-5.06,5.13-12.88,2.4-19.11c-2.89-6.61-9.09-11.77-16.45-12.17c-0.95-0.05-1.89-0.02-2.84,0.09c-1.27,0.14-1.28,2.14,0,2
				c6.76-0.73,12.86,2.89,16.29,8.62c3.07,5.12,4.13,12.07,0.71,17.3c-4.08,6.24-13.53,7.68-20.21,5.6
				c-6.39-1.99-11.26-7.82-11.7-14.56c-0.24-3.68,0.86-7.33,3.16-10.23c2.98-3.76,7.45-5.87,12.02-6.99
				C126.01,17.78,125.48,15.85,124.23,16.16L124.23,16.16z"/>
		</g>
	</g>
	<g>
		<g>
			<path d="M125.48,20.16c-0.05,1.12-0.1,2.25-0.15,3.37c-0.02,0.52,0.48,1.02,1,1c0.56-0.03,0.98-0.44,1-1
				c0.05-1.12,0.1-2.25,0.15-3.37c0.02-0.52-0.48-1.02-1-1C125.92,19.19,125.5,19.6,125.48,20.16L125.48,20.16z"/>
		</g>
	</g>
	<g>
		<g>
			<path d="M114.29,35.22c0.83-0.1,1.66-0.2,2.49-0.3c0.27-0.03,0.5-0.09,0.71-0.29c0.17-0.17,0.3-0.46,0.29-0.71
				c-0.01-0.26-0.1-0.53-0.29-0.71c-0.18-0.17-0.45-0.32-0.71-0.29c-0.83,0.1-1.66,0.2-2.49,0.3c-0.27,0.03-0.5,0.09-0.71,0.29
				c-0.17,0.17-0.3,0.46-0.29,0.71c0.01,0.26,0.1,0.53,0.29,0.71C113.76,35.1,114.03,35.25,114.29,35.22L114.29,35.22z"/>
		</g>
	</g>
	<g>
		<g>
			<path d="M125.31,45.52c0.05,0.54,0.1,1.08,0.15,1.61c-0.01,0.14,0.02,0.27,0.09,0.39c0.04,0.12,0.11,0.23,0.21,0.32
				c0.17,0.17,0.46,0.3,0.71,0.29c0.26-0.01,0.53-0.1,0.71-0.29c0.17-0.19,0.32-0.45,0.29-0.71c-0.05-0.54-0.1-1.08-0.15-1.61
				c0.01-0.14-0.02-0.27-0.09-0.39c-0.04-0.12-0.11-0.23-0.21-0.32c-0.17-0.17-0.46-0.3-0.71-0.29c-0.26,0.01-0.53,0.1-0.71,0.29
				C125.43,45,125.29,45.26,125.31,45.52L125.31,45.52z"/>
		</g>
	</g>
	<g>
		<g>
			<path d="M137.91,35.37c0.74,0.13,1.47,0.26,2.21,0.4c0.27,0.05,0.53,0.04,0.77-0.1c0.21-0.12,0.41-0.36,0.46-0.6
				c0.06-0.26,0.05-0.54-0.1-0.77c-0.13-0.21-0.34-0.41-0.6-0.46c-0.74-0.13-1.47-0.26-2.21-0.4c-0.27-0.05-0.53-0.04-0.77,0.1
				c-0.21,0.12-0.41,0.36-0.46,0.6c-0.06,0.26-0.05,0.54,0.1,0.77C137.45,35.12,137.66,35.33,137.91,35.37L137.91,35.37z"/>
		</g>
	</g>
	<g>
		<g>
			<path d="M127.96,32.22c-0.51-0.39-1.08-0.77-1.73-0.88c-0.78-0.13-1.56,0.07-2.11,0.65c-0.97,1.02-0.93,2.59-0.44,3.82
				c0.47,1.16,1.45,2.24,2.81,2.15c1.31-0.09,2.4-1.05,2.94-2.21c0.34-0.74,0.54-1.61,0.26-2.41c-0.27-0.76-0.83-1.39-1.62-1.61
				c-0.5-0.14-1.11,0.17-1.23,0.7c-0.12,0.53,0.16,1.08,0.7,1.23c-0.01,0,0.12,0.04,0.12,0.04c-0.04,0.06-0.19-0.11-0.07-0.02
				c0.02,0.01,0.04,0.02,0.05,0.03c0.07,0.05,0.07,0.05,0,0c-0.02-0.01-0.03-0.03-0.05-0.04c0.02,0.02,0.05,0.04,0.07,0.07
				c0.17,0.17-0.08-0.15,0.04,0.05c0.02,0.04,0.04,0.08,0.06,0.11c0.05,0.07-0.07-0.21,0,0c0.01,0.04,0.06,0.31,0.05,0.16
				c-0.01-0.15,0,0.02,0,0.06c0,0.07,0,0.13,0,0.2c0,0.09,0.04,0.11,0.01-0.03c0.01,0.03-0.03,0.14-0.03,0.16
				c-0.03,0.12-0.07,0.23-0.11,0.34c-0.05,0.15,0.11-0.2-0.01,0.02c-0.03,0.05-0.05,0.1-0.07,0.14c-0.05,0.09-0.09,0.17-0.15,0.25
				c-0.03,0.04-0.05,0.08-0.08,0.12c-0.08,0.11-0.03-0.02,0.03-0.03c-0.06,0.01-0.19,0.22-0.24,0.26c-0.04,0.04-0.2,0.14-0.21,0.19
				c0.02-0.07,0.15-0.1,0.03-0.03c-0.04,0.03-0.08,0.05-0.12,0.08c-0.04,0.02-0.21,0.15-0.24,0.13c0.01,0,0.2-0.07,0.05-0.02
				c-0.06,0.02-0.13,0.04-0.19,0.06c-0.16,0.05,0.03-0.01,0.07,0c-0.04-0.01-0.09,0.01-0.13,0.01c-0.04,0-0.09,0-0.13,0
				c-0.2,0,0.07-0.01,0.06,0.01c0,0.02-0.37-0.12-0.19-0.04c0.14,0.06,0.01,0-0.02-0.02c-0.05-0.02-0.09-0.05-0.13-0.08
				c-0.18-0.1,0.13,0.12,0.03,0.03c-0.03-0.03-0.06-0.05-0.09-0.08c-0.06-0.06-0.11-0.12-0.17-0.18c-0.09-0.1,0.11,0.16,0.04,0.05
				c-0.03-0.05-0.06-0.09-0.09-0.13c-0.05-0.08-0.1-0.17-0.14-0.26c-0.02-0.04-0.04-0.08-0.06-0.12c-0.06-0.12,0.07,0.18,0.03,0.06
				c-0.03-0.09-0.07-0.18-0.1-0.28c-0.02-0.08-0.05-0.17-0.07-0.25c-0.01-0.06-0.03-0.11-0.04-0.17c-0.01-0.05-0.07-0.3-0.02-0.07
				c-0.02-0.11-0.02-0.23-0.02-0.34c0-0.06,0-0.11,0-0.17c0-0.04-0.01-0.2-0.01,0.01c0-0.1,0.05-0.21,0.07-0.31
				c0.04-0.16,0,0.03-0.03,0.05c0.03-0.04,0.07-0.13,0.09-0.18c0.02-0.03,0.07-0.09,0.07-0.11c-0.08,0.1-0.1,0.13-0.05,0.07
				c0.02-0.03,0.04-0.05,0.07-0.07c0.02-0.02,0.09-0.07,0.1-0.09c-0.03,0.07-0.16,0.11-0.01,0.02c0.01-0.01,0.02-0.01,0.03-0.02
				c0.08-0.04,0.08-0.04,0,0c-0.08,0.03-0.08,0.03,0,0.01c0.09-0.02,0.1-0.02,0.02-0.01c-0.12,0.05,0,0,0.05,0
				c0.22,0,0.01,0.02,0-0.02c0.01,0.04,0.32,0.07,0.37,0.1c-0.15-0.11-0.08-0.03-0.02-0.01c0.07,0.04,0.14,0.07,0.21,0.11
				c0.23,0.14,0.45,0.3,0.66,0.46c0.19,0.15,0.55,0.16,0.77,0.1c0.23-0.06,0.48-0.24,0.6-0.46
				C128.6,33.06,128.41,32.56,127.96,32.22L127.96,32.22z"/>
		</g>
	</g>
	<g>
		<g>
			<path d="M129.65,33.47c2.11-2.19,4.22-4.38,6.33-6.58c0.37-0.39,0.39-1.03,0-1.41c-0.38-0.38-1.04-0.39-1.41,0
				c-2.11,2.19-4.22,4.38-6.33,6.58c-0.37,0.39-0.39,1.03,0,1.41C128.61,33.84,129.27,33.86,129.65,33.47L129.65,33.47z"/>
		</g>
	</g>
	<g>
		<g>
			<path d="M124.84,31.46c-1.93-2.03-3.85-4.06-5.78-6.1c-0.36-0.38-1.06-0.39-1.41,0c-0.37,0.41-0.38,1.01,0,1.41
				c1.93,2.03,3.85,4.06,5.78,6.1c0.36,0.38,1.06,0.39,1.41,0C125.21,32.46,125.22,31.86,124.84,31.46L124.84,31.46z"/>
		</g>
	</g>
	<g>
		<g>
			<path d="M85.96,67.07c0.01,3.39-0.58,6.75-0.54,10.14c0.03,2.08,0.08,5.12,2.71,5.34c4.3,0.36,8.71,0.14,13.02,0.11
				c12.44-0.07,24.92-0.14,37.35-0.73c0.99-0.05,2.23,0.05,3.19-0.27c2.14-0.7,2.31-4.32,2.47-6.11c0.31-3.42,0.18-6.89-0.07-10.31
				c-0.17-2.26-0.17-4.94-0.99-7.09c-0.45-1.18-1.68-1.18-2.77-1.33c-1.95-0.26-3.91-0.41-5.87-0.56
				c-6.37-0.48-12.77-0.76-19.15-0.91c-6.54-0.16-13.11-0.23-19.64,0.24c-2.21,0.16-4.46,0.35-6.62,0.88
				c-1.81,0.45-3.22,1.13-3.63,3.13c-0.48,2.39,0.95,4.74,0.4,7.11c-0.29,1.25,1.64,1.79,1.93,0.53c0.25-1.08,0.21-2.12,0.05-3.21
				c-0.19-1.25-0.66-2.62-0.45-3.9c0.07-0.4,0.25-0.71,0.42-1.06c-0.11,0.25-0.02,0.04,0.08-0.04c-0.2,0.16,0.36-0.19,0.5-0.25
				c1.15-0.51,3.24-0.78,4.75-0.95c5.74-0.63,11.56-0.62,17.33-0.56c6.4,0.06,12.79,0.3,19.18,0.67c3.82,0.22,8.01,0.42,11.57,1.02
				c0.08,0.01,0.35,0.13,0.42,0.1c-0.19,0.08-0.4-0.48-0.39-0.32c0.05,0.85,0.4,1.77,0.51,2.62c0.4,3.02,0.58,6.08,0.62,9.13
				c0.03,2.7,0.18,5.86-0.8,8.43c-0.11,0.3-0.32,0.64-0.43,0.8c-0.11,0.15,0.14,0.02-0.11,0.05c0.29-0.04-0.05,0.01-0.24,0.02
				c-0.27,0.02-0.53,0.04-0.8,0.06c-11.17,0.71-22.42,0.65-33.61,0.76c-5.21,0.05-10.43,0.11-15.64,0.02
				c-0.71-0.01-1.41-0.03-2.12-0.06c-0.2-0.01-0.4-0.03-0.6-0.04c-0.22-0.01-0.05,0.11-0.09-0.07c-0.09-0.45-0.3-0.88-0.36-1.35
				c-0.12-0.85-0.12-1.72-0.11-2.57c0.01-1.82,0.15-3.63,0.29-5.45c0.1-1.34,0.25-2.69,0.25-4.03
				C87.96,65.78,85.96,65.78,85.96,67.07L85.96,67.07z"/>
		</g>
	</g>
	<g>
		<g>
			<path d="M93.77,65.31c-0.03,2.98-0.01,5.96,0.06,8.95c0.03,1.28,2.03,1.29,2,0c-0.07-2.98-0.09-5.96-0.06-8.95
				C95.79,64.03,93.79,64.02,93.77,65.31L93.77,65.31z"/>
		</g>
	</g>
	<g>
		<g>
			<path d="M99.42,73.06c0.5-2.4,0.99-4.8,1.49-7.2c-0.61,0.08-1.22,0.16-1.83,0.24c0.65,1.5,1.32,2.99,2,4.48
				c0.31,0.67,1.41,0.64,1.73,0c0.81-1.62,1.61-3.23,2.42-4.85c-0.62-0.17-1.24-0.34-1.86-0.5c-0.16,2.73-0.07,5.46,0.27,8.17
				c0.07,0.54,0.41,1,1,1c0.49,0,1.07-0.46,1-1c-0.34-2.71-0.43-5.44-0.27-8.17c0.06-0.97-1.42-1.39-1.86-0.5
				c-0.81,1.62-1.61,3.23-2.42,4.85c0.58,0,1.15,0,1.73,0c-0.68-1.49-1.35-2.98-2-4.48c-0.34-0.79-1.66-0.56-1.83,0.24
				c-0.5,2.4-0.99,4.8-1.49,7.2c-0.11,0.53,0.15,1.08,0.7,1.23C98.69,73.89,99.31,73.59,99.42,73.06L99.42,73.06z"/>
		</g>
	</g>
	<g>
		<g>
			<path d="M110.37,66.78c-0.19,2.2-0.22,4.4-0.09,6.6c0.03,0.52,0.44,1.03,1,1c0.52-0.02,1.03-0.44,1-1
				c-0.12-2.2-0.09-4.41,0.09-6.6c0.04-0.52-0.49-1.02-1-1C110.79,65.81,110.41,66.22,110.37,66.78L110.37,66.78z"/>
		</g>
	</g>
	<g>
		<g>
			<path d="M112.36,67.3c0.2-0.05,0.41-0.08,0.61-0.11c-0.09,0.01-0.18,0.02-0.27,0.04c0.48-0.06,0.96-0.07,1.44-0.03
				c0.24,0.02,0.54-0.13,0.71-0.29c0.17-0.17,0.3-0.46,0.29-0.71c-0.01-0.26-0.1-0.53-0.29-0.71c-0.2-0.19-0.43-0.27-0.71-0.29
				c-0.77-0.07-1.56,0.01-2.32,0.18c-0.24,0.06-0.48,0.25-0.6,0.46c-0.13,0.21-0.18,0.53-0.1,0.77
				C111.3,67.14,111.81,67.43,112.36,67.3L112.36,67.3z"/>
		</g>
	</g>
	<g>
		<g>
			<path d="M111.94,71c0.59,0,1.17,0,1.76,0c0.26,0,0.53-0.11,0.71-0.29c0.17-0.17,0.3-0.46,0.29-0.71
				c-0.01-0.26-0.1-0.53-0.29-0.71c-0.2-0.18-0.44-0.29-0.71-0.29c-0.59,0-1.17,0-1.76,0c-0.26,0-0.53,0.11-0.71,0.29
				c-0.17,0.17-0.3,0.46-0.29,0.71c0.01,0.26,0.1,0.53,0.29,0.71C111.43,70.89,111.67,71,111.94,71L111.94,71z"/>
		</g>
	</g>
	<g>
		<g>
			<path d="M116.55,66.07c-0.35,2.03-0.53,4.09-0.49,6.15c0.01,0.47-0.02,1,0.13,1.44c0.22,0.62,0.78,0.98,1.43,0.97
				c0.47-0.01,0.95-0.1,1.42-0.15c0.51-0.06,1.03-0.11,1.54-0.17c0.54-0.06,1-0.42,1-1c0-0.49-0.46-1.06-1-1
				c-0.82,0.09-1.63,0.18-2.45,0.27c-0.1,0.01-0.48-0.01-0.56,0.05c-0.01,0.01,0.57,0.36,0.52,0.47c0.03-0.06-0.01-0.24-0.02-0.31
				c-0.02-0.43-0.02-0.85-0.02-1.28c0.01-1.64,0.14-3.29,0.42-4.91c0.09-0.53-0.14-1.08-0.7-1.23
				C117.3,65.24,116.64,65.54,116.55,66.07L116.55,66.07z"/>
		</g>
	</g>
	<g>
		<g>
			<path d="M121.8,68.83c-0.12,1.53,0.11,3.45,1.07,4.71c0.51,0.66,1.3,1.08,2.15,0.85c0.82-0.22,1.3-0.95,1.6-1.69
				c0.3-0.73,0.51-1.5,0.65-2.27c0.16-0.82,0.27-1.66,0.16-2.5c-0.2-1.58-1.22-3.07-2.91-3.23c-0.78-0.08-1.64,0.22-2.16,0.82
				c-0.63,0.72-0.59,1.6-0.84,2.46c-0.36,1.24,1.57,1.77,1.93,0.53c0.14-0.48,0.14-0.99,0.3-1.47c0.02-0.06,0.03-0.09,0.09-0.19
				c0.02-0.03,0.04-0.05,0.05-0.06c0.07-0.05,0.24-0.11,0.27-0.11c0.05,0,0.28,0,0.22-0.01c-0.05-0.01,0.16,0.04,0.21,0.06
				c0.11,0.04,0.02,0.01,0,0c0.05,0.02,0.1,0.05,0.14,0.08c0.09,0.05,0.04,0.02,0.02,0c0.06,0.04,0.11,0.1,0.16,0.15
				c0.27,0.27,0.41,0.58,0.49,1.02c0.2,1.07-0.12,2.28-0.44,3.3c-0.08,0.26-0.16,0.53-0.27,0.78c0.05-0.11-0.06,0.12-0.08,0.15
				c-0.03,0.05-0.05,0.09-0.08,0.14c-0.09,0.14,0.07-0.08-0.03,0.05c-0.06,0.07-0.16,0.13-0.03,0.05c0.08-0.04-0.05,0.02-0.06,0.02
				c0,0,0.1-0.03,0.1-0.02c0-0.02,0.08,0.03,0.09,0.03c-0.01,0-0.13-0.09-0.07-0.04c0.05,0.05-0.17-0.2-0.1-0.11
				c-0.08-0.1-0.14-0.22-0.19-0.34c-0.05-0.1-0.02-0.03-0.01-0.01c-0.05-0.11-0.08-0.22-0.12-0.33c-0.1-0.31-0.19-0.62-0.25-0.94
				c-0.12-0.62-0.13-1.26-0.09-1.89c0.04-0.54-0.49-1-1-1C122.23,67.83,121.84,68.29,121.8,68.83L121.8,68.83z"/>
		</g>
	</g>
	<g>
		<g>
			<path d="M128.42,66.48c0.13,2.49,0.31,4.97,0.53,7.45c0.04,0.49,0.35,0.92,0.87,0.98c0.45,0.05,1.02-0.22,1.1-0.72
				c0.14-0.86,0.34-1.71,0.61-2.54c0.13-0.4,0.27-0.79,0.44-1.17c0.08-0.19,0.17-0.38,0.26-0.56c0.06-0.12,0.26-0.44,0.25-0.51
				c0.01,0.33-0.96-0.47-0.92-0.06c0.01,0.1,0.1,0.23,0.14,0.33c0.1,0.23,0.2,0.46,0.29,0.69c0.19,0.44,0.37,0.87,0.56,1.31
				c0.38,0.89,0.76,1.79,1.15,2.68c0.17,0.4,0.74,0.57,1.13,0.46c0.45-0.12,0.69-0.52,0.73-0.96c0.22-2.38,0.44-4.86,1.61-7
				c0.26-0.47,0.12-1.09-0.36-1.37c-0.46-0.27-1.11-0.12-1.37,0.36c-1.34,2.47-1.63,5.26-1.88,8.01c0.62-0.17,1.24-0.34,1.86-0.5
				c-0.47-1.1-0.94-2.2-1.41-3.3c-0.42-0.99-0.86-2.87-2.32-2.44c-0.6,0.18-0.91,0.72-1.17,1.24c-0.26,0.53-0.49,1.08-0.7,1.63
				c-0.39,1.03-0.66,2.1-0.84,3.19c0.65,0.09,1.31,0.18,1.96,0.27c-0.22-2.48-0.4-4.97-0.53-7.45c-0.03-0.54-0.44-1-1-1
				C128.91,65.48,128.4,65.94,128.42,66.48L128.42,66.48z"/>
		</g>
	</g>
</g>
<g id="Ebene_17">
	<ellipse class="st11" cx="60.65" cy="58.4" rx="0.97" ry="2.12"/>
	<ellipse class="st12" cx="51.75" cy="58.27" rx="0.97" ry="2"/>
	<ellipse class="st13" cx="51.75" cy="58.15" rx="0.97" ry="1.88"/>
	<ellipse class="st14" cx="52.24" cy="57.35" rx="0.48" ry="0.5"/>
	<ellipse class="st14" cx="61.13" cy="57.35" rx="0.48" ry="0.5"/>
</g>
</svg>
