<?xml version="1.0" encoding="utf-8"?>
<!-- Generator: Adobe Adobe Illustrator 24.2.0, SVG Export Plug-In . SVG Version: 6.00 Build 0)  -->
<svg version="1.1" xmlns="http://www.w3.org/2000/svg" xmlns:xlink="http://www.w3.org/1999/xlink" x="0px" y="0px"
	 viewBox="0 0 170.08 170.08" style="enable-background:new 0 0 170.08 170.08;" xml:space="preserve">
<style type="text/css">
	.st0{fill:#FFFFFF;}
	.st1{opacity:0.4118;fill:#CA5B7B;stroke:#CB5A7B;stroke-width:1.1298;stroke-miterlimit:10;}
	.st2{opacity:0.0784;stroke:#000000;stroke-width:0.9303;stroke-miterlimit:10;}
	.st3{opacity:0.5294;fill:#C85B7B;stroke:#CA5A7A;stroke-width:1.1849;stroke-miterlimit:10;}
	.st4{stroke:#000000;stroke-width:0.9651;stroke-miterlimit:10;}
	.st5{fill:#FFFFFF;stroke:#FFFFFF;stroke-width:0.1831;stroke-miterlimit:10;}
	.st6{fill:#FFFFFF;stroke:#FFFFFF;stroke-width:0.1916;stroke-miterlimit:10;}
	.st7{opacity:0.0314;}
	.st8{fill:#F6ECF2;}
	.st9{fill:#F6EBF2;}
	.st10{opacity:0.7686;}
	.st11{fill:#BF9F60;}
	.st12{fill:#F3C157;stroke:#F3C158;stroke-width:1.0742;stroke-miterlimit:10;}
	.st13{fill:#3B74B5;stroke:#3B74B5;stroke-width:0.7153;stroke-miterlimit:10;}
	.st14{fill:#C9344F;stroke:#C8354F;stroke-width:0.7153;stroke-miterlimit:10;}
	.st15{fill:#453735;}
	.st16{opacity:0.1216;}
</style>
<g id="Ebene_4">
</g>
<g id="Ebene_16">
	<g>
		<g>
			<path class="st0" d="M24.89,145.83c-0.56-3.52,0.43-7.35,3.16-9.75c2.59-2.27,6.41-2.94,9.42-1.09c1.54,0.95,2.7,2.44,3.13,4.21
				c0.12,0.51,0.8,0.43,0.96,0c1.17-3.15,4.3-5.44,7.68-5.47c3.67-0.03,6.88,2.37,8.09,5.78c0.74,2.08,0.89,4.31,1.03,6.49
				c0.17-0.17,0.33-0.33,0.5-0.5c-5.3,0.47-10.63,0.36-15.91-0.34c-0.28-0.04-0.49,0.26-0.5,0.5c-0.02,0.39-0.03,0.77-0.05,1.16
				c0.17-0.17,0.33-0.33,0.5-0.5c-6.02-0.22-12.04-0.43-18.06-0.65c-0.64-0.02-0.64,0.98,0,1c6.02,0.22,12.04,0.43,18.06,0.65
				c0.28,0.01,0.49-0.24,0.5-0.5c0.02-0.39,0.03-0.77,0.05-1.16c-0.17,0.17-0.33,0.33-0.5,0.5c5.28,0.7,10.61,0.81,15.91,0.34
				c0.26-0.02,0.52-0.21,0.5-0.5c-0.27-4.13-0.76-8.62-4.31-11.31c-3.08-2.34-7.33-2.6-10.61-0.52c-1.77,1.13-3.12,2.79-3.85,4.76
				c0.32,0,0.64,0,0.96,0c-0.86-3.56-4.35-6.08-7.97-6.05c-3.99,0.04-7.5,2.76-8.97,6.39c-0.88,2.16-1.06,4.52-0.69,6.81
				C24.03,146.73,24.99,146.46,24.89,145.83L24.89,145.83z"/>
		</g>
	</g>
</g>
<g id="Ebene_21">
	<ellipse class="st1" cx="24.33" cy="55.51" rx="6.93" ry="6.26"/>
</g>
<g id="Ebene_23">
	<ellipse class="st2" cx="75.04" cy="144.68" rx="59.5" ry="8.52"/>
</g>
<g id="Ebene_10">
	<g>
		<path class="st0" d="M25.33,145.3c0.58-2.2,1.17-4.44,2.44-6.33c1.26-1.89,3.35-3.38,5.62-3.33c2.94,0.07,5.31,2.73,6.03,5.59
			c0.07,0.28,0.18,0.61,0.46,0.67c0.18,0.04,0.35-0.06,0.5-0.15c1.65-1.02,2.95-2.5,4.45-3.73c1.5-1.23,3.35-2.25,5.28-2.03
			c1.82,0.2,3.38,1.49,4.34,3.04s1.42,3.36,1.83,5.15c-4.53-0.47-9.07-0.74-13.62-0.82c0.04,0.45-0.08,0.91-0.33,1.28
			c-5,0.08-10.01,0.16-15.01,0.23"/>
		<g>
			<path class="st0" d="M27.74,145.97c0.72-2.72,1.75-7.45,5.27-7.82c1.13-0.12,2.19,0.59,2.88,1.45c1.14,1.4,1.02,3.55,2.73,4.46
				c2.1,1.13,4.19-0.88,5.66-2.19c1.26-1.13,2.48-2.51,4.08-3.15c3.64-1.47,4.94,3.64,5.51,6.12c0.8-1.05,1.61-2.11,2.41-3.16
				c-4.53-0.46-9.07-0.73-13.62-0.82c-1.35-0.02-2.5,1.17-2.5,2.5c0.04,0,0.04,0.01,0.01,0.02c0.72-0.41,1.44-0.83,2.16-1.24
				c-5,0.08-10.01,0.16-15.01,0.23c-3.21,0.05-3.22,5.05,0,5c3.31-0.05,6.62-0.1,9.93-0.15c1.61-0.03,3.23,0.01,4.84-0.08
				c2.1-0.11,3.08-1.83,3.07-3.79c-0.83,0.83-1.67,1.67-2.5,2.5c4.55,0.08,9.09,0.36,13.62,0.82c1.7,0.17,2.74-1.73,2.41-3.16
				c-0.99-4.27-3.03-9.15-7.92-9.94c-2.5-0.4-4.9,0.54-6.88,2.03c-1.7,1.28-3.11,3.14-5.02,4.12c0.42-0.11,0.84-0.23,1.26-0.34
				c-0.09,0.01-0.17,0.02-0.26,0.03c0.42,0.11,0.84,0.23,1.26,0.34c-0.08-0.05-0.15-0.09-0.23-0.14c0.3,0.3,0.6,0.6,0.9,0.9
				c-0.34-0.58-0.65-1.88-1.12-2.68c-0.58-0.99-1.33-1.93-2.22-2.66c-1.95-1.61-4.36-2.35-6.87-1.83
				c-5.36,1.11-7.46,6.63-8.68,11.31C22.1,147.75,26.92,149.08,27.74,145.97L27.74,145.97z"/>
		</g>
	</g>
</g>
<g id="Ebene_18">
	<g>
		<path class="st0" d="M30.11,70.13c-1.91,10.83-3.81,21.67-5.72,32.5c-0.35,2.01-0.47,4.56,1.3,5.56c0.73,0.42,1.62,0.44,2.46,0.44
			c7.51,0.08,15.01,0.16,22.52,0.23c1.35,0.01,2.86-0.04,3.79-1.01c1.27-1.33,0.7-3.49,0.08-5.22c-3.75-10.53-6.37-21.46-7.82-32.55
			c5.05-3.04,9.46-7.47,11.44-13.02s1.15-12.28-2.93-16.53c-1.09-1.14-2.38-2.07-3.73-2.88c-5.31-3.19-11.82-4.45-17.87-3.13
			S22.07,39.8,19.22,45.3c-2.27,4.37-2.79,9.71-1,14.3c1.8,4.59,6.03,8.25,10.9,8.94"/>
		<g>
			<path class="st0" d="M27.7,69.46c-1.42,8.04-2.83,16.09-4.25,24.13c-0.32,1.81-0.64,3.61-0.95,5.42
				c-0.32,1.84-0.79,3.74-0.82,5.62c-0.02,1.38,0.23,2.82,0.97,4.01c1.12,1.8,3.06,2.41,5.08,2.5c3.88,0.17,7.8,0.08,11.68,0.12
				c3.87,0.04,7.76,0.17,11.63,0.12c1.75-0.02,3.56-0.3,4.92-1.5c1.27-1.13,1.83-2.8,1.75-4.47c-0.08-1.67-0.69-3.21-1.22-4.76
				c-0.62-1.79-1.2-3.58-1.76-5.39c-2.51-8.21-4.38-16.64-5.5-25.16c-0.41,0.72-0.83,1.44-1.24,2.16
				c6.41-3.92,12.19-10.06,13.41-17.74c0.6-3.8,0.22-7.6-1.32-11.14c-1.63-3.74-4.7-6.47-8.23-8.4c-7.29-3.97-16.09-4.63-23.71-1.22
				c-7.23,3.24-12.51,10.08-13.36,17.99c-0.94,8.7,4.72,17.8,13.7,19.21c1.33,0.21,2.69-0.34,3.08-1.75
				c0.33-1.19-0.4-2.86-1.75-3.08c-6.03-0.95-10.11-6.28-10.14-12.28c-0.04-6.23,3.71-11.74,9.01-14.77
				c5.66-3.24,12.6-3.28,18.56-0.81c2.81,1.17,5.75,2.93,7.42,5.54c1.57,2.44,2.16,5.31,2.02,8.2c-0.36,6.94-5.57,12.49-11.21,15.93
				c-0.68,0.42-1.35,1.31-1.24,2.16c0.9,6.86,2.18,13.66,3.94,20.35c0.86,3.27,1.82,6.52,2.89,9.73c0.48,1.43,1.06,2.85,1.45,4.31
				c0.21,0.76,0.57,1.55-0.27,1.8c-1.21,0.36-2.76,0.07-4.01,0.06c-1.79-0.02-3.59-0.04-5.38-0.06c-3.59-0.04-7.18-0.07-10.77-0.11
				c-0.82-0.01-1.63-0.02-2.45-0.03c-0.72-0.01-1.62,0.14-2.32-0.04c-0.4-0.1-0.29,0.05-0.48-0.24c-0.21-0.33-0.15-0.98-0.14-1.41
				c0.05-1.38,0.4-2.76,0.64-4.12c0.32-1.81,0.64-3.61,0.95-5.42c1.42-8.04,2.83-16.09,4.25-24.13c0.23-1.33-0.36-2.69-1.75-3.08
				C29.56,67.39,27.93,68.13,27.7,69.46L27.7,69.46z"/>
		</g>
	</g>
</g>
<g id="Ebene_26">
	<ellipse class="st3" cx="25.89" cy="56.4" rx="5.38" ry="5.38"/>
</g>
<g id="Ebene_19">
</g>
<g id="Ebene_17">
</g>
<g id="Ebene_22">
	<g>
		<g>
			<path d="M45.25,33.33c-1.22-0.76-2.67-1.1-4.08-1.29c-1.87-0.25-3.77-0.21-5.64,0c-4.43,0.5-8.83,1.93-12.59,4.35
				c-3.99,2.58-7.15,6.36-8.42,10.99c-0.72,2.64-0.81,5.41-0.54,8.12c0.24,2.44,0.8,4.84,1.81,7.09c1.71,3.79,4.74,6.8,8.49,8.57
				c3.73,1.76,7.93,2.36,12.03,2.18c4.19-0.19,8.34-1.16,12.17-2.85c3.34-1.48,6.54-3.57,8.77-6.51c2.27-3,3.97-6.5,4.47-10.25
				c0.42-3.12-0.05-6.27-1.3-9.16c-2.51-5.8-7.84-10.08-13.62-12.37c-1.43-0.57-2.91-1-4.42-1.31c-0.63-0.13-0.9,0.84-0.27,0.96
				c5.93,1.21,11.66,4.53,15.27,9.45c1.77,2.41,3.01,5.21,3.38,8.19c0.41,3.3-0.28,6.64-1.71,9.63c-1.11,2.33-2.58,4.56-4.49,6.32
				c-1.29,1.19-2.75,2.19-4.28,3.04c-3.43,1.9-7.26,3.09-11.14,3.61c-3.94,0.53-8.03,0.37-11.84-0.82
				c-3.66-1.14-6.98-3.34-9.16-6.53c-2.67-3.9-3.57-8.91-3.25-13.57c0.33-4.74,2.57-9.02,6.15-12.11c3.29-2.84,7.45-4.63,11.68-5.54
				c3.34-0.72,7.13-1.07,10.45-0.02c0.55,0.17,1.08,0.4,1.58,0.71C45.29,34.53,45.8,33.67,45.25,33.33L45.25,33.33z"/>
		</g>
	</g>
	<g>
		<g>
			<path d="M27.5,72.43c-1.92,9.59-3.96,19.15-5.89,28.73c-0.39,1.94-0.98,4.05-0.48,6.02c0.45,1.78,1.87,2.94,3.58,3.45
				c1.84,0.55,3.82,0.47,5.72,0.48c2.53,0.01,5.06-0.02,7.59-0.09c5.06-0.13,10.11-0.39,15.16-0.79c0.99-0.08,2.26,0.01,3.09-0.63
				c0.47-0.37,0.79-0.96,0.93-1.54c0.15-0.62,0.11-1.29,0.06-1.91c-0.17-2.19-0.65-4.35-1.14-6.49c-0.68-2.99-1.47-5.95-2.28-8.9
				c-1.66-6-3.47-11.96-5.31-17.91c-0.17-0.56-0.35-1.12-0.52-1.68c-0.19-0.61-1.16-0.35-0.96,0.27c1.68,5.44,3.36,10.89,4.92,16.37
				c1.53,5.33,3.1,10.72,4.02,16.19c0.14,0.85,0.27,1.7,0.31,2.56c0.03,0.63,0.05,1.1-0.19,1.64c-0.51,1.12-1.87,0.95-2.91,1.04
				c-1.2,0.1-2.4,0.18-3.6,0.26c-2.4,0.16-4.8,0.29-7.21,0.39c-4.73,0.19-9.48,0.33-14.21,0.21c-1.65-0.04-3.56-0.19-4.89-1.28
				c-1.62-1.33-1.43-3.55-1.09-5.4c0.84-4.56,1.84-9.1,2.78-13.64c0.95-4.57,1.89-9.13,2.82-13.71c0.23-1.12,0.46-2.25,0.68-3.37
				C28.59,72.07,27.63,71.8,27.5,72.43L27.5,72.43z"/>
		</g>
	</g>
	<g>
		<g>
			<path d="M48.6,72.58c7.78,0.52,15.22,3.7,23.09,3.34c0.64-0.03,0.64-1.03,0-1c-7.86,0.36-15.31-2.82-23.09-3.34
				C47.96,71.54,47.97,72.54,48.6,72.58L48.6,72.58z"/>
		</g>
	</g>
	<g>
		<g>
			<path d="M27.13,72.45c-5.51,2.79-10.83,5.96-15.9,9.5c-1.14,0.8-2.38,1.56-3.41,2.49C7,85.18,6.6,86.24,7.28,87.22
				c0.33,0.48,0.82,0.82,1.3,1.15c0.61,0.43,1.24,0.85,1.87,1.26c1.26,0.81,2.55,1.58,3.87,2.3c2.93,1.61,5.99,2.98,9.14,4.11
				c-0.07-0.28-0.15-0.56-0.22-0.84c-1.82,2.18-3.36,4.57-4.56,7.15c0.23-0.06,0.46-0.12,0.68-0.18c-1.66-0.96-2.87-3.25-1.87-5.09
				c0.78-1.44,2.99-2.16,4.32-1.04c0.49,0.41,1.2-0.29,0.71-0.71c-1.78-1.51-4.63-0.83-5.82,1.11c-1.41,2.31-0.01,5.33,2.16,6.58
				c0.22,0.13,0.57,0.07,0.68-0.18c1.16-2.5,2.63-4.84,4.4-6.95c0.25-0.3,0.15-0.7-0.22-0.84c-5.15-1.85-10.05-4.38-14.54-7.51
				c-0.42-0.29-1.06-0.66-1.22-1.18c-0.21-0.68,0.49-1.2,0.96-1.55c1.1-0.84,2.25-1.63,3.39-2.42c2.29-1.58,4.63-3.08,7.01-4.51
				c2.72-1.63,5.49-3.16,8.31-4.59C28.21,73.02,27.7,72.16,27.13,72.45L27.13,72.45z"/>
		</g>
	</g>
	<g>
		<g>
			<path d="M24.26,146.98c-0.65-4.27,0.94-9.01,4.42-11.68c1.4-1.08,3.14-1.77,4.93-1.65c2,0.13,3.7,1.35,4.93,2.87
				c2.38,2.95,3.34,6.94,3.92,10.6c0.16-0.21,0.32-0.42,0.48-0.63c-6.44,0.06-12.89,0.12-19.33,0.18c-0.64,0.01-0.64,1.01,0,1
				c6.44-0.06,12.89-0.12,19.33-0.18c0.35,0,0.53-0.32,0.48-0.63c-0.57-3.57-1.51-7.32-3.62-10.31c-1.3-1.84-3.14-3.41-5.42-3.81
				c-4.34-0.75-8.16,2.63-9.91,6.31c-1.21,2.56-1.6,5.4-1.18,8.2C23.4,147.88,24.36,147.61,24.26,146.98L24.26,146.98z"/>
		</g>
	</g>
	<g>
		<g>
			<path d="M24.45,145.86c5.82,0,11.65-0.45,17.47-0.12c0.64,0.04,0.64-0.96,0-1c-5.82-0.33-11.65,0.11-17.47,0.12
				C23.8,144.86,23.8,145.86,24.45,145.86L24.45,145.86z"/>
		</g>
	</g>
	<g>
		<g>
			<path d="M32.34,136.77c1.4-0.02,2.8-0.05,4.2-0.07c0.64-0.01,0.64-1.01,0-1c-1.4,0.02-2.8,0.05-4.2,0.07
				C31.7,135.78,31.7,136.78,32.34,136.77L32.34,136.77z"/>
		</g>
	</g>
	<g>
		<g>
			<path d="M31.8,138.92c1.57-0.24,3.15-0.34,4.74-0.33c0.64,0.01,0.64-0.99,0-1c-1.68-0.01-3.35,0.11-5,0.37
				c-0.27,0.04-0.41,0.38-0.35,0.62C31.27,138.86,31.53,138.96,31.8,138.92L31.8,138.92z"/>
		</g>
	</g>
	<g>
		<g>
			<path d="M41.46,138.53c0.59-1.26,1.72-2.26,2.83-3.05c1.22-0.87,2.6-1.62,4.06-1.96c2.28-0.54,4.64,0.47,6.16,2.18
				c1.44,1.62,2.24,3.74,2.78,5.81c0.24,0.89,0.42,1.8,0.58,2.71c0.06,0.35,0.12,0.7,0.17,1.05c0.02,0.13,0.04,0.25,0.06,0.38
				c0.01,0.06,0.03,0.13,0.03,0.19c0,0.02,0.02,0.05,0.01,0.07c0.02-0.21,0.06-0.1-0.18-0.12c-0.64-0.04-1.33,0.09-1.97,0.12
				c-0.62,0.03-1.23,0.06-1.85,0.08c-1.23,0.04-2.47,0.06-3.7,0.06c-2.51-0.01-5.02-0.12-7.52-0.31c-0.64-0.05-0.64,0.95,0,1
				c4.92,0.39,9.87,0.42,14.8,0.07c0.76-0.05,1.55-0.16,1.4-1.12c-0.05-0.3-0.1-0.6-0.15-0.9c-0.15-0.92-0.31-1.83-0.52-2.74
				c-1.06-4.57-3.83-10.07-9.36-9.65c-1.74,0.13-3.44,0.98-4.88,1.93c-1.41,0.93-2.9,2.13-3.63,3.7
				C40.33,138.6,41.19,139.11,41.46,138.53L41.46,138.53z"/>
		</g>
	</g>
	<g>
		<g>
			<path d="M43.26,145.18c4.92,0.3,9.86,0.39,14.79,0.25c0.64-0.02,0.64-1.02,0-1c-4.93,0.13-9.87,0.05-14.79-0.25
				C42.62,144.14,42.62,145.14,43.26,145.18L43.26,145.18z"/>
		</g>
	</g>
	<g>
		<g>
			<path d="M48.64,136.41c1.29,0,2.58,0,3.86,0c0.64,0,0.64-1,0-1c-1.29,0-2.58,0-3.86,0C47.99,135.41,47.99,136.41,48.64,136.41
				L48.64,136.41z"/>
		</g>
	</g>
	<g>
		<g>
			<path d="M48.1,138.08c1.29-0.22,2.59-0.33,3.9-0.32c0.64,0,0.64-1,0-1c-1.4-0.01-2.79,0.11-4.17,0.35
				c-0.27,0.05-0.42,0.37-0.35,0.62C47.56,138.01,47.83,138.12,48.1,138.08L48.1,138.08z"/>
		</g>
	</g>
	<g>
		<g>
			<path d="M47.02,111.05c0.49,7.29,1.12,14.56,1.9,21.82c0.07,0.63,1.07,0.64,1,0c-0.78-7.26-1.41-14.54-1.9-21.82
				C47.97,110.42,46.97,110.41,47.02,111.05L47.02,111.05z"/>
		</g>
	</g>
	<g>
		<g>
			<path d="M31.41,111.21c0.84,7.25,1.29,14.55,1.34,21.85c0,0.64,1,0.64,1,0c-0.05-7.3-0.49-14.6-1.34-21.85
				C32.34,110.57,31.34,110.57,31.41,111.21L31.41,111.21z"/>
		</g>
	</g>
	<g>
		<g>
			<path d="M24.47,55.7c1.78,6.12,7.75,9.08,13.64,10.03c1.89,0.31,3.81,0.44,5.73,0.44c0.64,0,0.64-1,0-1
				c-5.66-0.01-12.35-1.09-16.23-5.64c-1.02-1.19-1.73-2.6-2.17-4.09C25.26,54.82,24.29,55.08,24.47,55.7L24.47,55.7z"/>
		</g>
	</g>
	<ellipse class="st4" cx="42.86" cy="51.01" rx="0.98" ry="2.51"/>
	<ellipse class="st4" cx="42.86" cy="51.01" rx="0.98" ry="2.51"/>
	<ellipse class="st5" cx="43.56" cy="49.61" rx="0.24" ry="0.37"/>
	<ellipse class="st5" cx="48.36" cy="49.49" rx="0.24" ry="0.37"/>
	<ellipse class="st5" cx="48.36" cy="49.61" rx="0.24" ry="0.37"/>
	<ellipse class="st5" cx="48.6" cy="49.61" rx="0.24" ry="0.37"/>
	<ellipse class="st4" cx="47.97" cy="51.01" rx="0.98" ry="2.51"/>
	<ellipse class="st6" cx="48.6" cy="49.58" rx="0.24" ry="0.4"/>
</g>
<g id="Ebene_13">
</g>
<g id="Ebene_12">
</g>
<g id="Ebene_9">
</g>
<g id="Ebene_15">
</g>
<g id="Ebene_15_Kopie">
</g>
<g id="Ebene_7">
</g>
<g id="Ebene_20">
	<g class="st7">
		<g>
			<path d="M31.77,47.85c0.64,0,0.64-1,0-1C31.13,46.85,31.13,47.85,31.77,47.85L31.77,47.85z"/>
		</g>
	</g>
	<g>
		<g>
			<path class="st8" d="M70.52,47.8c3.08,13.68,2.04,27.57,1.47,41.57c-0.15,3.7-0.39,6.21-1.24,9.82c-0.15,0.63,0.28,2.9,0.69,3.4
				c0.51,0.6,1.47,0.43,2.21,0.71c2.29,0.87,1.12,5.19,3.37,6.16c0.39,0.17,0.83,0.2,1.26,0.22c12.17,0.67,24.34,1.33,36.51,2
				c2.3,0.13,3.77,0.48,5.02-1.45c0.77-1.18,2.67-4.31,3.88-5.04c2.28-1.37,3.21,1.74,2.98-3.3c-0.07-1.59,0.22-6.17,0.55-7.73
				c-1.86,4.1,30.44-8.25,27.15-29.82c-0.84-5.49-6.54-8.76-11.76-6.88c-12.26,4.42-12.78,3.25-13.54,12.13
				c3.23-2.75,6.06-5.01,10.17-6.04c1.81-0.45,5.03-1.15,6.85-0.75c1.82,0.4,3.26,2.28,3.93,4.01c0.81,2.08,0.52,5.47-0.54,7.43
				c-4.52,8.4-13.02,15.25-22.72,17.71c0.06-13.81,0.36-27.41,5.1-40.22c0.58-1.58,2.32-3.74,1.74-5.33
				c-1.29-3.59-14.09-4.15-32.4-5.77c-4.36-0.39-26.57,0.48-26.57,0.48c-1.74,0.31-3.62,0.7-4.82,2c-1.2,1.31-1.13,3.85,0.52,4.48"
				/>
			<g>
				<path class="st9" d="M70.04,47.94c2.36,10.58,2.27,21.46,1.84,32.23c-0.11,2.75-0.24,5.49-0.35,8.24
					c-0.1,2.41-0.2,4.81-0.58,7.19c-0.19,1.19-0.51,2.35-0.7,3.53c-0.12,0.73,0.05,1.54,0.21,2.25c0.15,0.65,0.33,1.41,0.91,1.81
					c0.73,0.51,1.75,0.23,2.45,0.76c0.55,0.41,0.74,1.17,0.89,1.8c0.18,0.74,0.29,1.49,0.53,2.21c0.21,0.63,0.53,1.24,1.07,1.65
					c0.84,0.64,1.97,0.57,2.97,0.62c5.55,0.3,11.09,0.61,16.64,0.91c5.59,0.31,11.18,0.61,16.76,0.92c1.16,0.06,2.33,0.14,3.49,0.2
					c0.79,0.04,1.61,0.04,2.35-0.26c1.49-0.61,2.22-2.33,3.07-3.59c0.73-1.08,1.72-2.9,3.17-3.1c0.65-0.09,1.47,0.37,2.02-0.16
					c0.33-0.32,0.37-0.84,0.41-1.27c0.07-0.83-0.02-1.66-0.02-2.49c-0.01-1.69,0.11-3.39,0.27-5.07c0.07-0.68,0.13-1.36,0.27-2.03
					c0.1-0.52-0.67-0.94-0.91-0.39c-0.5,1.14,0.56,1.59,1.53,1.52c1.65-0.11,3.29-0.76,4.81-1.39c5.1-2.13,9.87-5.3,13.79-9.18
					c4.45-4.41,7.85-10.09,8.16-16.47c0.08-1.73,0.01-3.59-0.47-5.27c-0.55-1.94-1.75-3.63-3.37-4.84
					c-1.62-1.21-3.64-1.86-5.66-1.85c-2.25,0.01-4.33,0.99-6.42,1.71c-1.68,0.58-3.38,1.13-5.03,1.78
					c-1.04,0.42-2.09,0.87-2.97,1.57c-1.74,1.38-2.12,3.59-2.37,5.68c-0.1,0.8-0.17,1.61-0.24,2.41c-0.04,0.47,0.56,0.61,0.85,0.35
					c1.59-1.35,3.2-2.7,4.98-3.79c1.71-1.05,3.53-1.78,5.48-2.24c1.77-0.42,3.64-0.84,5.47-0.71c1.97,0.14,3.37,1.83,4.11,3.54
					c0.73,1.7,0.66,3.77,0.22,5.54c-0.45,1.82-1.58,3.45-2.63,4.97c-2.27,3.25-5.11,6.12-8.31,8.46c-3.64,2.66-7.74,4.64-12.11,5.76
					c0.21,0.16,0.42,0.32,0.63,0.48c0.05-11.81,0.25-23.81,3.51-35.25c0.4-1.41,0.85-2.81,1.34-4.19c0.4-1.12,1-2.12,1.49-3.2
					c0.61-1.33,0.98-2.85-0.11-4.02c-0.67-0.72-1.62-1.14-2.52-1.48c-1.32-0.49-2.71-0.8-4.1-1.06c-4.17-0.78-8.43-1.15-12.65-1.52
					c-2.79-0.25-5.57-0.48-8.36-0.72c-1.93-0.16-3.87-0.4-5.8-0.46c-6.23-0.21-12.5,0.11-18.73,0.31c-2.12,0.07-4.24,0.14-6.37,0.22
					c-2.97,0.11-7.29,1.95-6.35,5.63c0.22,0.87,0.78,1.5,1.6,1.85c0.59,0.25,0.85-0.72,0.27-0.96c-0.85-0.36-1.07-1.4-0.94-2.23
					c0.17-1.09,0.93-1.84,1.88-2.33c1.05-0.54,2.37-0.9,3.55-0.94c2-0.08,4-0.15,6.01-0.21c6.08-0.2,12.19-0.45,18.28-0.34
					c1.31,0.02,2.6,0.14,3.9,0.25c2.76,0.24,5.52,0.47,8.27,0.7c4.43,0.38,8.87,0.74,13.27,1.41c1.51,0.23,3.02,0.5,4.49,0.9
					c1.03,0.28,2.09,0.61,2.99,1.2c0.86,0.56,1.22,1.23,0.95,2.28c-0.28,1.08-0.92,2.04-1.4,3.04c-0.55,1.15-0.93,2.41-1.31,3.63
					c-3.41,10.73-3.99,22.09-4.11,33.27c-0.02,1.41-0.02,2.82-0.03,4.23c0,0.33,0.32,0.56,0.63,0.48
					c8.3-2.14,15.75-7.34,20.74-14.29c1.13-1.57,2.34-3.29,2.89-5.16c0.56-1.89,0.7-4.11,0.09-6c-0.57-1.78-1.86-3.61-3.61-4.39
					c-1.73-0.78-3.9-0.35-5.69,0c-2.3,0.44-4.53,1.09-6.58,2.22c-2.19,1.21-4.12,2.82-6.01,4.43c0.28,0.12,0.57,0.24,0.85,0.35
					c0.12-1.36,0.22-2.74,0.5-4.08c0.18-0.86,0.43-1.74,0.97-2.46c1.25-1.68,3.72-2.32,5.59-2.98c1.91-0.67,3.82-1.31,5.72-1.99
					c1.92-0.69,3.86-0.89,5.83-0.27c1.84,0.58,3.47,1.8,4.51,3.43c1.01,1.58,1.31,3.38,1.4,5.22c0.29,6.02-2.36,11.59-6.29,16.02
					c-3.57,4.02-8.05,7.26-12.86,9.64c-1.68,0.83-3.42,1.58-5.24,2.05c-0.61,0.16-1.07,0.27-1.65,0.26c-0.29,0-0.2,0.01-0.42-0.05
					c-0.01,0-0.02-0.02-0.03-0.01c0,0,0.01-0.01,0.05,0.08c-0.02-0.05-0.07,0.04,0-0.04c-0.13,0.15,0.07-0.15,0.01-0.01
					c-0.3-0.13-0.61-0.26-0.91-0.39c-0.31,1.52-0.39,3.1-0.48,4.64c-0.09,1.57-0.02,3.13-0.05,4.7c0,0.28,0,0.58-0.07,0.86
					c-0.01,0.04-0.05,0.19-0.05,0.19c-0.01,0.06-0.05,0.04,0.03,0.01c0.02-0.01,0.03,0.02-0.03,0c-0.04-0.02-0.12-0.01-0.17-0.01
					c-0.06-0.01-0.38-0.06-0.53-0.08c-1.14-0.12-2.1,0.4-2.85,1.22c-1.16,1.25-2.06,2.73-2.97,4.16c-0.42,0.66-0.89,1.25-1.67,1.46
					c-0.79,0.22-1.66,0.1-2.46,0.05c-5.3-0.36-10.6-0.58-15.9-0.87c-5.38-0.29-10.76-0.59-16.14-0.88c-1.37-0.07-2.73-0.15-4.1-0.22
					c-0.93-0.05-2.1,0.08-2.71-0.78c-0.81-1.14-0.7-2.75-1.23-4.02c-0.25-0.6-0.63-1.15-1.22-1.47c-0.34-0.19-0.72-0.26-1.1-0.32
					c-0.42-0.06-0.98-0.07-1.24-0.44c-0.4-0.55-0.48-1.57-0.54-2.22c-0.08-0.93,0.27-1.87,0.44-2.78c0.92-4.8,0.89-9.76,1.1-14.63
					c0.45-10.37,0.74-20.84-1.03-31.11c-0.22-1.27-0.47-2.54-0.75-3.8C70.86,47.04,69.9,47.31,70.04,47.94L70.04,47.94z"/>
			</g>
		</g>
		<g class="st10">
			<g>
				<path class="st11" d="M69.44,47.16c2.68,1.34,5.57,2.16,8.56,2.43c0.64,0.06,0.64-0.94,0-1c-2.8-0.26-5.54-1.04-8.06-2.3
					C69.37,46.01,68.86,46.87,69.44,47.16L69.44,47.16z"/>
			</g>
		</g>
		<g class="st10">
			<g>
				<path class="st11" d="M70.65,51.12c7.54,3.28,15.53,3.84,23.64,4.33c3.86,0.23,7.72,0.45,11.57,0.73
					c3.86,0.28,7.74,0.58,11.61,0.44c4.67-0.17,9.27-1,13.64-2.64c1.26-0.48,2.13-1.69,1.75-3.08c-0.33-1.21-1.81-2.22-3.08-1.75
					c-3.56,1.34-7.25,2.17-11.05,2.41c-3.7,0.23-7.41,0.01-11.1-0.25c-7.46-0.53-14.98-0.72-22.41-1.54
					c-4.11-0.45-8.24-1.33-12.05-2.98c-1.24-0.54-2.68-0.37-3.42,0.9C69.13,48.76,69.4,50.58,70.65,51.12L70.65,51.12z"/>
			</g>
		</g>
		<g class="st10">
			<g>
				<path class="st11" d="M72.57,46.87c0.18-0.13,0.38-0.25,0.57-0.36c0.1-0.05,0.21-0.1,0.31-0.15c0.49-0.26-0.04,0.01-0.03,0.01
					c0.62-0.18,1.22-0.42,1.85-0.57c0.72-0.18,1.46-0.32,2.19-0.44c0.22-0.04,0.44-0.07,0.65-0.1c0.51-0.08-0.04,0,0.11-0.02
					c0.48-0.06,0.95-0.11,1.43-0.16c4.42-0.44,8.88-0.47,13.31-0.37c5.1,0.11,10.19,0.43,15.27,0.91c4.75,0.45,8.56,0.9,13.16,1.73
					c1.9,0.34,3.8,0.73,5.67,1.24c0.7,0.19,1.4,0.4,2.08,0.66c0.13,0.05,0.27,0.11,0.4,0.15c0.31,0.1-0.56-0.29-0.08-0.03
					c0.22,0.12,0.45,0.22,0.67,0.36c2.76,1.68,5.27-2.64,2.52-4.32c-2.44-1.49-5.58-2.04-8.34-2.58c-4.62-0.91-9.32-1.51-14-2
					c-9.77-1.01-19.77-1.66-29.58-0.84c-3.4,0.28-7.78,0.52-10.69,2.58c-1.1,0.78-1.62,2.18-0.9,3.42
					C69.78,47.06,71.46,47.66,72.57,46.87L72.57,46.87z"/>
			</g>
		</g>
		
			<rect x="89.28" y="59.97" transform="matrix(0.9989 0.0473 -0.0473 0.9989 3.7614 -4.3346)" class="st12" width="8.46" height="34.75"/>
		
			<rect x="100.38" y="60.76" transform="matrix(0.9989 0.0473 -0.0473 0.9989 3.8083 -4.7468)" class="st13" width="3.75" height="34.75"/>
		
			<rect x="108.42" y="61.14" transform="matrix(0.9989 0.0473 -0.0473 0.9989 3.8353 -5.1267)" class="st14" width="3.75" height="34.75"/>
		<g>
			<path d="M87.94,66.08c-0.22,1.26-0.37,2.53-0.45,3.8c-0.17-0.03-0.31-0.14-0.44-0.27c-0.48-0.48-0.78-1.13-0.84-1.81
				c-0.03-0.43,0.04-0.88,0.27-1.24s0.66-0.61,1.08-0.58"/>
			<g>
				<path d="M87.46,65.94c-0.22,1.3-0.38,2.62-0.47,3.93c0.21-0.16,0.42-0.32,0.63-0.48c-0.11-0.03-0.19-0.11-0.3-0.23
					c-0.11-0.12-0.2-0.24-0.29-0.39c-0.17-0.28-0.29-0.63-0.31-0.94c-0.03-0.35,0-0.69,0.19-0.99c0.16-0.25,0.4-0.37,0.67-0.36
					c0.27,0.01,0.5-0.24,0.5-0.5c0-0.28-0.23-0.49-0.5-0.5c-0.58-0.03-1.11,0.28-1.45,0.73c-0.33,0.44-0.45,1.01-0.41,1.55
					c0.03,0.53,0.19,1.05,0.46,1.51c0.26,0.44,0.66,0.96,1.19,1.08c0.33,0.08,0.61-0.15,0.63-0.48c0.08-1.23,0.22-2.45,0.43-3.67
					c0.05-0.27-0.07-0.54-0.35-0.62C87.83,65.53,87.51,65.68,87.46,65.94L87.46,65.94z"/>
			</g>
		</g>
		<g>
			<path d="M97.24,67.41c0.46,1.21,0.93,2.41,1.39,3.62c0.07,0.17,0.16,0.37,0.35,0.4c-0.14-1.01-0.86-1.83-1.18-2.79"/>
			<g>
				<path d="M96.76,67.54c0.3,0.79,0.61,1.58,0.91,2.37c0.15,0.39,0.3,0.79,0.45,1.18c0.14,0.36,0.31,0.72,0.72,0.83
					c0.4,0.1,0.67-0.25,0.62-0.62c-0.16-1.03-0.85-1.83-1.18-2.79c-0.09-0.25-0.34-0.42-0.62-0.35c-0.25,0.07-0.44,0.36-0.35,0.62
					c0.33,0.96,1.03,1.78,1.18,2.79c0.21-0.21,0.41-0.41,0.62-0.62c0.05,0.01,0.08,0.11,0.04,0.02c0,0-0.07-0.14-0.04-0.07
					c-0.07-0.17-0.13-0.35-0.2-0.52c-0.13-0.34-0.26-0.69-0.4-1.03c-0.26-0.69-0.53-1.38-0.79-2.07c-0.1-0.25-0.34-0.43-0.62-0.35
					C96.86,66.99,96.66,67.29,96.76,67.54L96.76,67.54z"/>
			</g>
		</g>
		<g>
			<path d="M103.74,67.76c-0.13,1.24-0.23,2.48-0.29,3.73c0,0.08,0,0.17,0.07,0.21c0.08,0,0.11-0.1,0.11-0.17
				c0.07-0.66,0.11-1.33,0.12-2"/>
			<g>
				<path d="M103.24,67.76c-0.07,0.62-0.12,1.24-0.17,1.86c-0.05,0.62-0.11,1.25-0.12,1.87c0,0.38,0.26,0.8,0.7,0.69
					c0.39-0.09,0.46-0.46,0.5-0.81c0.06-0.61,0.1-1.23,0.11-1.84c0.01-0.64-0.99-0.64-1,0c-0.01,0.35-0.02,0.69-0.04,1.04
					c-0.01,0.17-0.02,0.33-0.04,0.5c-0.01,0.08-0.01,0.15-0.02,0.23c0,0.05-0.01,0.1-0.02,0.15c0.01-0.04,0.03-0.08,0.06-0.12
					c0.07-0.04,0.15-0.09,0.22-0.13c-0.01,0-0.03,0.01-0.04,0.01c0.16,0.04,0.32,0.09,0.49,0.13c0.06,0.21,0.08,0.26,0.08,0.14
					c0-0.03,0-0.05,0-0.08c0-0.09,0.01-0.18,0.01-0.27c0.01-0.16,0.02-0.31,0.03-0.47c0.02-0.32,0.04-0.65,0.07-0.97
					c0.05-0.65,0.11-1.29,0.18-1.94c0.03-0.27-0.25-0.5-0.5-0.5C103.45,67.26,103.27,67.49,103.24,67.76L103.24,67.76z"/>
			</g>
		</g>
		<g>
			<path d="M109.97,68.28c0,1.2-0.01,2.39-0.01,3.59c0.04-1.36,0.08-2.72,0.12-4.08"/>
			<g>
				<path d="M109.47,68.28c0,1.2-0.01,2.39-0.01,3.59c0,0.64,0.98,0.64,1,0c0.04-1.36,0.08-2.72,0.12-4.08c0.02-0.64-0.98-0.64-1,0
					c-0.04,1.36-0.08,2.72-0.12,4.08c0.33,0,0.67,0,1,0c0-1.2,0.01-2.39,0.01-3.59C110.47,67.64,109.47,67.64,109.47,68.28
					L109.47,68.28z"/>
			</g>
		</g>
		<g>
			<path d="M95.37,75.76c-0.13,0.9-0.2,1.81-0.19,2.71c0,0.2,0.05,0.46,0.25,0.49c0.23,0.03,0.33-0.27,0.36-0.49
				c0.1-0.97,0.15-1.95,0.16-2.93c0-0.05,0-0.11-0.03-0.15c-0.12-0.18-0.41,0.12-0.6,0.02"/>
			<g>
				<path d="M94.89,75.63c-0.1,0.69-0.17,1.38-0.2,2.08c-0.02,0.56-0.15,1.56,0.59,1.74c0.36,0.09,0.69-0.1,0.86-0.41
					c0.15-0.29,0.16-0.62,0.18-0.94c0.06-0.68,0.1-1.37,0.12-2.06c0.01-0.39,0.08-0.88-0.31-1.12c-0.17-0.1-0.38-0.1-0.56-0.04
					c-0.05,0.01-0.1,0.03-0.15,0.05c0,0-0.06,0.01-0.06,0.02c0.01-0.03,0.18,0.03,0.09-0.01c-0.25-0.1-0.55,0.11-0.62,0.35
					c-0.08,0.29,0.1,0.51,0.35,0.62c0.14,0.06,0.31,0.04,0.46,0c0.05-0.01,0.09-0.03,0.13-0.04c0.05-0.02,0.2-0.03,0.02-0.03
					c-0.16,0.02-0.28-0.07-0.35-0.28c0,0.05,0,0.09,0,0.14c0,0.09,0,0.19-0.01,0.28c0,0.16-0.01,0.33-0.02,0.49
					c-0.03,0.65-0.08,1.3-0.13,1.95c-0.01,0.16,0.02-0.05-0.02,0.09c-0.01,0.02-0.01,0.04-0.02,0.07c0.02-0.05,0.02-0.05,0,0
					c0.08-0.08,0.17-0.11,0.29-0.07c0,0,0.2,0.1,0.16,0.12c-0.01-0.03-0.02-0.06-0.02-0.09c0.01,0.06,0.01,0.05,0,0
					c0-0.06,0-0.12,0-0.18c0-0.16,0-0.33,0.01-0.49c0.02-0.65,0.07-1.31,0.17-1.95c0.04-0.27-0.07-0.54-0.35-0.62
					C95.27,75.21,94.92,75.36,94.89,75.63L94.89,75.63z"/>
			</g>
		</g>
		<g>
			<path d="M99.05,75.85c-0.1,1.02-0.13,2.04-0.08,3.06c0,0.05,0.01,0.1,0.04,0.13c0.07,0.06,0.17-0.02,0.23-0.09
				c0.41-0.52,0.74-1.14,0.77-1.8c0.03-0.66-0.31-1.37-0.91-1.64"/>
			<g>
				<path d="M98.55,75.85c-0.07,0.65-0.1,1.3-0.11,1.95c0,0.32,0,0.65,0.02,0.97c0.01,0.17,0.01,0.35,0.1,0.5
					c0.13,0.2,0.35,0.31,0.59,0.28c0.35-0.05,0.56-0.38,0.74-0.65c0.17-0.25,0.3-0.51,0.41-0.79c0.21-0.52,0.26-1.11,0.12-1.66
					c-0.15-0.57-0.53-1.11-1.08-1.36c-0.24-0.11-0.54-0.07-0.68,0.18c-0.13,0.22-0.07,0.57,0.18,0.68c0.07,0.03,0.13,0.07,0.19,0.11
					c0.07,0.04-0.05-0.04,0.02,0.01c0.03,0.02,0.05,0.04,0.07,0.06c0.03,0.03,0.06,0.06,0.09,0.09c0.02,0.02,0.05,0.06,0.01,0.01
					c0.04,0.05,0.07,0.11,0.11,0.17c0.11,0.2,0.18,0.44,0.18,0.68c0,0.27-0.07,0.57-0.18,0.8c-0.07,0.15-0.15,0.3-0.24,0.44
					c-0.04,0.07-0.09,0.13-0.13,0.19c-0.01,0.01-0.07,0.09-0.07,0.09c0.01-0.01,0-0.01-0.01,0.01c-0.06,0.07-0.01,0.05,0.18-0.06
					c0.08,0.02,0.17,0.05,0.25,0.07c-0.01-0.01-0.03-0.01-0.04-0.02c0.06,0.06,0.12,0.12,0.18,0.18c0.02,0.13,0.03,0.16,0.02,0.09
					c0-0.03,0-0.07,0-0.1c0-0.07-0.01-0.14-0.01-0.21c0-0.12-0.01-0.23-0.01-0.35c0-0.27,0-0.53,0-0.8c0.01-0.52,0.05-1.04,0.1-1.56
					c0.03-0.27-0.25-0.5-0.5-0.5C98.76,75.35,98.58,75.58,98.55,75.85L98.55,75.85z"/>
			</g>
		</g>
		<g>
			<path d="M102.91,75.95c-0.1,0.98-0.2,1.96-0.31,2.93c-0.03,0.24-0.05,0.51,0.09,0.71c0.13,0.2,0.49,0.27,0.61,0.06
				c-0.09-1.14-0.04-2.29,0.15-3.42c0.03-0.18,0.06-0.37-0.03-0.52c-0.09-0.16-0.35-0.21-0.44-0.06"/>
			<g>
				<path d="M102.41,75.95c-0.08,0.78-0.16,1.56-0.24,2.34c-0.07,0.68-0.25,1.63,0.57,1.93c0.33,0.12,0.71,0.05,0.93-0.23
					c0.15-0.19,0.13-0.38,0.11-0.61c-0.01-0.19-0.02-0.39-0.02-0.58c-0.01-0.75,0.03-1.5,0.14-2.24c0.07-0.43,0.18-0.93-0.18-1.27
					c-0.36-0.34-0.88-0.27-1.17,0.11c-0.16,0.22-0.04,0.56,0.18,0.68c0.25,0.15,0.52,0.04,0.68-0.18c-0.08,0.12-0.19,0.17-0.3,0.15
					c-0.05-0.01-0.09-0.04-0.12-0.1c-0.04,0.02,0.04-0.1-0.01,0.07c-0.04,0.14-0.05,0.31-0.07,0.45c-0.05,0.35-0.09,0.71-0.12,1.06
					c-0.05,0.7-0.05,1.4,0.01,2.11c0.02-0.08,0.05-0.17,0.07-0.25c0.07-0.1,0.12-0.11,0.22-0.11c-0.17,0,0.07,0,0.02,0.02
					c0.03,0.05,0.03,0.04-0.01-0.02c0.01,0.02,0.01,0.01,0-0.02c-0.01-0.03-0.01-0.07-0.01-0.14c0.01-0.33,0.06-0.67,0.1-1
					c0.08-0.73,0.15-1.45,0.23-2.18c0.03-0.27-0.25-0.5-0.5-0.5C102.62,75.45,102.44,75.68,102.41,75.95L102.41,75.95z"/>
			</g>
		</g>
		<g>
			<path d="M76.19,79.06c-0.09,0.81-0.19,1.63-0.28,2.44c-0.01,0.05-0.01,0.11-0.05,0.14c-0.08,0.07-0.2,0.01-0.28-0.06
				c-0.47-0.42-0.87-1.04-0.71-1.65c0.14-0.54,0.67-0.87,1.15-1.16"/>
			<g>
				<path d="M75.69,79.06c-0.05,0.43-0.1,0.85-0.15,1.28c-0.02,0.21-0.05,0.42-0.07,0.62c-0.01,0.1-0.02,0.21-0.04,0.31
					c-0.01,0.06-0.01,0.11-0.02,0.17c0-0.01,0-0.03,0.01-0.04c-0.01,0.06-0.01,0.05,0-0.02c0.06-0.06,0.12-0.12,0.18-0.18
					c0.08-0.01,0.16-0.02,0.25-0.03c0.02,0,0.05,0.01,0.06,0.03c0.02,0.02,0.02,0.02,0,0c-0.02-0.02-0.03-0.03-0.05-0.05
					c-0.05-0.05-0.1-0.1-0.15-0.15c-0.03-0.03-0.05-0.06-0.08-0.09c-0.06-0.06,0.01,0.01-0.02-0.03c-0.04-0.06-0.08-0.12-0.12-0.18
					c-0.04-0.07-0.08-0.13-0.11-0.21c0.03,0.07,0,0-0.01-0.03c-0.01-0.04-0.02-0.07-0.03-0.11c-0.01-0.03-0.01-0.06-0.02-0.09
					c0.02,0.1,0,0,0-0.02c0-0.04,0-0.07,0-0.11c0-0.09-0.01,0.03,0-0.02c0.02-0.06,0.03-0.12,0.05-0.19
					c-0.02,0.06-0.01,0.03,0.01-0.01c0.02-0.03,0.03-0.06,0.05-0.09c0.01-0.02,0.03-0.04,0.05-0.07c-0.06,0.08,0,0.01,0.01-0.01
					c0.05-0.05,0.09-0.1,0.15-0.15c0.03-0.02,0.05-0.05,0.08-0.07c0.04-0.03,0.04-0.03,0,0c0.06-0.04,0.12-0.08,0.17-0.12
					c0.12-0.08,0.24-0.15,0.36-0.22c0.23-0.13,0.33-0.46,0.18-0.68c-0.15-0.23-0.44-0.32-0.68-0.18c-0.39,0.23-0.79,0.49-1.07,0.85
					c-0.33,0.43-0.44,0.97-0.3,1.49c0.14,0.49,0.47,0.96,0.86,1.28c0.32,0.26,0.79,0.32,1.05-0.08c0.09-0.14,0.1-0.3,0.12-0.46
					c0.02-0.15,0.03-0.3,0.05-0.45c0.07-0.63,0.15-1.27,0.22-1.9c0.03-0.26-0.25-0.51-0.5-0.5C75.9,78.57,75.72,78.78,75.69,79.06
					L75.69,79.06z"/>
			</g>
		</g>
		<g>
			<path d="M81.78,80.39c-0.27-0.05-0.56,0.09-0.73,0.31c-0.17,0.22-0.25,0.5-0.28,0.77c-0.07,0.78,0.27,1.59,0.88,2.09
				c-0.06-0.97-0.05-1.95,0.03-2.92"/>
			<g>
				<path d="M81.92,79.91c-0.54-0.07-1.01,0.13-1.33,0.58c-0.25,0.35-0.33,0.83-0.32,1.26c0.02,0.82,0.4,1.64,1.04,2.17
					c0.16,0.13,0.35,0.19,0.55,0.1c0.17-0.07,0.32-0.26,0.31-0.46c-0.06-0.97-0.05-1.95,0.03-2.92c0.02-0.26-0.25-0.51-0.5-0.5
					c-0.29,0.01-0.48,0.22-0.5,0.5c-0.08,0.97-0.09,1.95-0.03,2.92c0.28-0.12,0.57-0.24,0.85-0.35c-0.11-0.09-0.22-0.2-0.31-0.31
					c-0.02-0.02-0.04-0.06-0.01-0.01c-0.02-0.03-0.04-0.05-0.06-0.08c-0.04-0.06-0.08-0.12-0.12-0.19c-0.04-0.06-0.07-0.13-0.1-0.2
					c0.02,0.05,0,0.01-0.01-0.02c-0.01-0.04-0.03-0.08-0.04-0.12c-0.02-0.07-0.04-0.14-0.06-0.21c-0.01-0.03-0.01-0.06-0.02-0.1
					c-0.02-0.09,0,0.02-0.01-0.04c-0.02-0.14-0.02-0.28-0.01-0.42c0-0.01,0.01-0.14,0.01-0.09c-0.01,0.04,0.01-0.05,0.01-0.06
					c0.02-0.08,0.04-0.15,0.06-0.23c-0.02,0.05,0,0,0.01-0.02c0.02-0.04,0.04-0.08,0.07-0.11c0.05-0.07-0.04,0.04,0.02-0.02
					c0.01-0.01,0.07-0.07,0.04-0.04c-0.02,0.02,0.16-0.08,0.09-0.05c0.01,0,0.13-0.03,0.08-0.02c-0.07,0.01,0.11,0.01-0.01-0.01
					c0.26,0.04,0.55-0.06,0.62-0.35C82.32,80.29,82.19,79.95,81.92,79.91L81.92,79.91z"/>
			</g>
		</g>
		<g>
			<path d="M85.02,81.63c-0.1,0.89-0.2,1.77-0.29,2.66c0.78-0.65,0.96-1.9,0.39-2.74"/>
			<g>
				<path d="M84.52,81.63c-0.1,0.89-0.2,1.77-0.29,2.66c-0.02,0.19,0.14,0.39,0.31,0.46c0.19,0.08,0.39,0.03,0.55-0.1
					c0.94-0.8,1.15-2.32,0.47-3.35c-0.14-0.22-0.45-0.33-0.68-0.18c-0.22,0.14-0.33,0.45-0.18,0.68c0.03,0.05,0.07,0.1,0.1,0.16
					c0.01,0.02,0.02,0.04,0.03,0.07c0,0.01,0.05,0.11,0.02,0.04c-0.03-0.07,0.01,0.04,0.01,0.04c0.01,0.02,0.02,0.05,0.02,0.07
					c0.02,0.06,0.03,0.12,0.05,0.18c0.01,0.03,0.01,0.06,0.02,0.09c0.01,0.07-0.01-0.09,0-0.02c0,0.06,0.01,0.12,0.01,0.19
					c0,0.06,0,0.11,0,0.17c0,0.03,0,0.06-0.01,0.09c0,0.01,0,0.02,0,0.04c0,0.04,0,0.02,0.01-0.04c-0.02,0.02-0.02,0.13-0.03,0.17
					c-0.01,0.05-0.03,0.11-0.04,0.16c-0.02,0.06-0.03,0.13-0.06,0.18c0.02-0.03,0.03-0.07,0.01-0.02c-0.01,0.03-0.03,0.06-0.04,0.08
					c-0.03,0.05-0.06,0.11-0.09,0.16c-0.02,0.04-0.12,0.15-0.04,0.06c-0.08,0.09-0.16,0.18-0.26,0.27c0.28,0.12,0.57,0.24,0.85,0.35
					c0.1-0.89,0.2-1.77,0.29-2.66c0.03-0.26-0.25-0.51-0.5-0.5C84.72,81.14,84.55,81.35,84.52,81.63L84.52,81.63z"/>
			</g>
		</g>
		<g>
			<path d="M87.95,82.09c-0.15,0.92-0.29,1.84-0.44,2.76c-0.03,0.2-0.04,0.46,0.14,0.56c0.15,0.08,0.34-0.01,0.43-0.15
				c0.09-0.14,0.11-0.31,0.12-0.48c0.08-0.86,0.16-1.72,0.24-2.58c0.01-0.12,0.02-0.26-0.06-0.36c-0.08-0.1-0.27-0.1-0.3,0.03"/>
			<g>
				<path d="M87.46,81.96c-0.11,0.68-0.22,1.36-0.33,2.04c-0.09,0.57-0.39,1.48,0.25,1.85c0.35,0.2,0.8,0.07,1.04-0.23
					c0.22-0.28,0.24-0.62,0.27-0.96c0.06-0.68,0.13-1.37,0.19-2.05c0.04-0.38,0.12-0.83-0.2-1.13c-0.17-0.16-0.41-0.22-0.63-0.17
					c-0.24,0.05-0.39,0.22-0.48,0.45c-0.1,0.25,0.11,0.55,0.35,0.62c0.28,0.08,0.52-0.1,0.62-0.35c0-0.01,0.01-0.02,0.01-0.03
					c-0.04,0.07-0.09,0.15-0.13,0.22c-0.09,0.07-0.18,0.09-0.29,0.07c-0.14-0.04-0.21-0.11-0.21-0.21c0-0.03,0-0.02,0,0.04
					c0,0.04,0,0.07-0.01,0.11c-0.01,0.14-0.03,0.28-0.04,0.42c-0.03,0.3-0.06,0.6-0.08,0.91c-0.03,0.3-0.06,0.6-0.08,0.91
					c-0.01,0.14-0.02,0.29-0.04,0.43c0,0.02,0,0.05-0.03,0.11c0-0.01,0.01-0.01,0.01-0.02c-0.03,0.06-0.04,0.06-0.02,0.02
					c0.01-0.01,0.02-0.02,0.03-0.03c0.06-0.04,0.13-0.03,0.21,0.02c0.04,0.03,0.06,0.06,0.09,0.1c0,0.06,0,0.06,0,0
					c0-0.02,0-0.05,0-0.07c0-0.02,0-0.05,0-0.07C87.98,85.01,87.98,85,88,84.92c0.05-0.3,0.1-0.6,0.14-0.9
					c0.1-0.6,0.19-1.2,0.29-1.8c0.04-0.27-0.07-0.54-0.35-0.62C87.84,81.54,87.51,81.69,87.46,81.96L87.46,81.96z"/>
			</g>
		</g>
		<g>
			<path d="M94.08,83.46c-0.13,0.94-0.16,1.89-0.09,2.84c-0.46-0.23-0.79-0.7-0.85-1.21c-0.06-0.51,0.16-1.04,0.56-1.37"/>
			<g>
				<path d="M93.6,83.32c-0.13,0.99-0.18,1.98-0.11,2.97c0.25-0.14,0.5-0.29,0.75-0.43c-0.05-0.03-0.1-0.05-0.14-0.08
					c-0.02-0.02-0.05-0.03-0.07-0.05c0.04,0.02,0.04,0.03,0,0c-0.05-0.04-0.09-0.08-0.13-0.13c-0.02-0.02-0.04-0.04-0.05-0.06
					c-0.05-0.05,0.04,0.06,0,0c-0.03-0.05-0.06-0.09-0.09-0.14c-0.01-0.02-0.03-0.05-0.04-0.07c-0.01-0.01-0.04-0.09-0.02-0.04
					c0.02,0.06-0.01-0.03-0.01-0.04c-0.01-0.03-0.02-0.05-0.02-0.08c-0.01-0.03-0.01-0.05-0.02-0.08c-0.01-0.03-0.02-0.12-0.01-0.01
					c-0.01-0.11-0.01-0.23,0-0.34c-0.01,0.11,0.01-0.04,0.02-0.08c0.01-0.06,0.04-0.11,0.05-0.16c-0.01,0.04-0.02,0.05,0,0
					c0.01-0.03,0.03-0.05,0.04-0.08c0.03-0.06,0.07-0.11,0.1-0.16c0.04-0.06-0.05,0.05,0,0c0.02-0.02,0.04-0.04,0.06-0.06
					c0.04-0.05,0.09-0.09,0.14-0.13c0.2-0.17,0.19-0.54,0-0.71c-0.21-0.2-0.49-0.18-0.71,0c-0.5,0.42-0.78,1.12-0.7,1.76
					c0.08,0.67,0.48,1.29,1.09,1.6c0.31,0.16,0.78-0.03,0.75-0.43c-0.03-0.46-0.04-0.93-0.03-1.39c0.01-0.22,0.02-0.45,0.04-0.67
					c0.01-0.11,0.02-0.22,0.03-0.33c0.01-0.06,0.01-0.13,0.02-0.19c0-0.02,0.02-0.18,0.01-0.12c0.04-0.26-0.06-0.55-0.35-0.62
					C93.98,82.92,93.64,83.05,93.6,83.32L93.6,83.32z"/>
			</g>
		</g>
		<g>
			<path d="M97.17,83.69c0.01,0.9,0.03,1.79,0.04,2.69c0,0.06,0.01,0.13,0.06,0.17c0.09,0.06,0.2-0.03,0.25-0.12
				c0.53-0.86,0.47-2.06-0.16-2.85"/>
			<g>
				<path d="M96.67,83.69c0.01,0.54,0.02,1.07,0.03,1.61c0,0.26,0.01,0.53,0.01,0.79c0.01,0.33-0.01,0.69,0.31,0.89
					c0.34,0.22,0.72,0.01,0.93-0.29c0.13-0.19,0.22-0.42,0.3-0.64c0.14-0.41,0.17-0.87,0.12-1.3c-0.07-0.52-0.24-1.02-0.56-1.43
					c-0.16-0.21-0.44-0.34-0.68-0.18c-0.2,0.13-0.35,0.46-0.18,0.68c0.08,0.1,0.15,0.21,0.21,0.32c0.03,0.05,0.05,0.11,0.08,0.16
					c0.03,0.07-0.02-0.07,0,0c0.01,0.03,0.02,0.06,0.03,0.08c0.04,0.12,0.07,0.24,0.1,0.37c0.01,0.03,0.01,0.06,0.02,0.09
					c-0.01-0.05-0.01-0.05,0,0c0.01,0.07,0.01,0.13,0.01,0.2c0,0.12-0.01,0.24-0.01,0.36c0,0.08,0.02-0.08,0,0
					c-0.01,0.03-0.01,0.06-0.02,0.09c-0.01,0.07-0.03,0.13-0.05,0.2c-0.02,0.06-0.03,0.11-0.05,0.17c-0.01,0.03-0.02,0.06-0.03,0.08
					c0.02-0.05,0.02-0.04,0,0c-0.03,0.06-0.06,0.12-0.09,0.18c-0.01,0.03-0.06,0.06-0.02,0.04c0.08-0.04,0.04-0.1,0.2-0.09
					c0.08,0.02,0.17,0.05,0.25,0.07c0.12,0.31,0.17,0.39,0.16,0.25c0-0.02,0-0.04,0-0.06c0-0.06,0-0.12,0-0.18
					c0-0.12,0-0.23-0.01-0.35c0-0.23-0.01-0.47-0.01-0.7c-0.01-0.47-0.01-0.93-0.02-1.4c0-0.26-0.23-0.51-0.5-0.5
					C96.9,83.2,96.66,83.41,96.67,83.69L96.67,83.69z"/>
			</g>
		</g>
		<g>
			<path d="M100.28,83.51c0.89,0.93,1.64,1.99,2.23,3.15c0.65-0.84,1.29-1.67,1.94-2.51c0.05-0.06,0.11-0.13,0.19-0.12
				c0.09,0.01,0.14,0.12,0.16,0.21c0.17,0.78,0.25,1.57,0.22,2.37c-0.01,0.27-0.01,0.6,0.2,0.77c0.26,0.21,0.67,0.04,0.83-0.25
				c0.16-0.29,0.14-0.63,0.12-0.96c-0.06-0.93-0.12-1.85-0.19-2.78c-0.01-0.08-0.01-0.16-0.07-0.21c-0.05-0.05-0.14-0.06-0.21-0.06
				c-0.36-0.02-0.72-0.04-1.08-0.06c-0.1-0.01-0.21-0.01-0.3,0.03c-0.2,0.08-0.28,0.31-0.35,0.51c-0.29,0.83-0.74,1.61-1.31,2.28
				c-0.46-0.44-0.84-0.96-1.11-1.53c-0.14-0.3-0.26-0.61-0.46-0.87c-0.21-0.26-0.53-0.45-0.85-0.39"/>
			<g>
				<path d="M99.92,83.87c0.86,0.91,1.58,1.93,2.15,3.04c0.19,0.37,0.65,0.27,0.86,0c0.32-0.42,0.65-0.84,0.97-1.26
					c0.16-0.2,0.31-0.4,0.47-0.6c0.07-0.09,0.14-0.19,0.22-0.28c0.05-0.06,0.1-0.12,0.14-0.19c0.09-0.09,0.1-0.11,0.03-0.08
					c-0.09,0-0.18,0-0.27,0c0.02,0.01,0.04,0.02,0.06,0.02c-0.07-0.04-0.15-0.09-0.22-0.13c-0.08-0.09,0.01,0.2,0.02,0.25
					c0.02,0.13,0.05,0.26,0.07,0.39c0.04,0.29,0.07,0.59,0.08,0.88c0.02,0.47-0.08,1.01,0.11,1.45c0.2,0.47,0.7,0.68,1.18,0.54
					c0.47-0.14,0.77-0.56,0.85-1.03c0.09-0.54-0.01-1.11-0.04-1.65c-0.04-0.58-0.08-1.16-0.12-1.74c-0.02-0.25-0.04-0.5-0.22-0.68
					c-0.2-0.2-0.47-0.21-0.73-0.22c-0.5-0.03-1.16-0.19-1.59,0.12c-0.42,0.3-0.51,0.92-0.72,1.37c-0.25,0.51-0.56,0.99-0.93,1.42
					c0.24,0,0.47,0,0.71,0c-0.52-0.51-0.87-1.09-1.18-1.74c-0.29-0.63-0.83-1.28-1.6-1.19c-0.27,0.03-0.5,0.21-0.5,0.5
					c0,0.25,0.23,0.53,0.5,0.5c0.56-0.06,0.75,0.75,0.95,1.14c0.29,0.56,0.67,1.06,1.12,1.5c0.18,0.18,0.53,0.21,0.71,0
					c0.51-0.59,0.93-1.24,1.23-1.96c0.08-0.18,0.14-0.35,0.21-0.53c0.02-0.05,0.04-0.14,0.08-0.18c0.04-0.04-0.06,0,0.04,0.01
					c0.2,0.02,0.4,0.02,0.59,0.03c0.11,0.01,0.22,0.01,0.33,0.02c0.04,0,0.07,0,0.11,0.01c0.12,0.01,0.14,0.01,0.07,0
					c-0.06-0.06-0.12-0.12-0.18-0.18c0-0.08,0-0.05,0.01,0.08c0.01,0.08,0.01,0.15,0.02,0.23c0.01,0.12,0.02,0.23,0.02,0.35
					c0.02,0.27,0.04,0.54,0.05,0.81c0.04,0.52,0.1,1.05,0.1,1.57c0,0.17-0.02,0.3-0.09,0.46c-0.02,0.05-0.06,0.03-0.1,0.05
					c0.08-0.04,0.05,0.13,0.03-0.07c-0.04-0.45,0.01-0.91-0.03-1.37c-0.04-0.48-0.08-1.03-0.23-1.49c-0.18-0.53-0.79-0.67-1.16-0.24
					c-0.36,0.41-0.68,0.88-1.01,1.31c-0.34,0.43-0.67,0.87-1.01,1.3c0.29,0,0.58,0,0.86,0c-0.61-1.19-1.39-2.28-2.3-3.25
					C100.19,82.69,99.48,83.4,99.92,83.87L99.92,83.87z"/>
			</g>
		</g>
		<g>
			<path d="M109.42,83.85c-0.1,1.11-0.09,2.22,0.01,3.32c0.01,0.13,0.04,0.28,0.15,0.35c0.13,0.09,0.32-0.01,0.4-0.15
				c0.07-0.14,0.06-0.31,0.05-0.47c-0.08-1.04-0.15-2.07-0.23-3.11c-0.01-0.15-0.02-0.3-0.12-0.41c-0.09-0.11-0.29-0.15-0.38-0.03"
				/>
			<g>
				<path d="M108.92,83.85c-0.06,0.73-0.08,1.46-0.06,2.19c0.01,0.37,0.03,0.73,0.07,1.09c0.04,0.38,0.15,0.77,0.56,0.89
					c0.36,0.11,0.76-0.11,0.93-0.43c0.17-0.34,0.1-0.73,0.08-1.1c-0.05-0.74-0.11-1.47-0.16-2.21c-0.03-0.4,0-0.87-0.26-1.21
					c-0.27-0.35-0.81-0.41-1.12-0.08c-0.45,0.46,0.25,1.17,0.71,0.71c-0.1,0.08-0.2,0.1-0.3,0.05c-0.02-0.02-0.05-0.04-0.07-0.07
					c-0.02,0,0,0.08,0.01,0.05c-0.02,0.14,0.02,0.33,0.03,0.47c0.02,0.33,0.05,0.65,0.07,0.98c0.02,0.33,0.05,0.65,0.07,0.98
					c0.01,0.16,0.02,0.33,0.04,0.49c0,0.05,0,0.44,0.03,0.45c0.03,0.02,0.02-0.05,0.06-0.03c0.09-0.06,0.18-0.04,0.29,0.05
					c0.05,0.09,0.06,0.11,0.05,0.05c0.01-0.01-0.03-0.3-0.03-0.37c-0.02-0.32-0.04-0.65-0.05-0.97c-0.01-0.66,0.01-1.33,0.06-1.99
					c0.02-0.27-0.25-0.5-0.5-0.5C109.13,83.35,108.94,83.58,108.92,83.85L108.92,83.85z"/>
			</g>
		</g>
		<g>
			<path d="M112.96,83.77c-0.13,1.22-0.21,2.45-0.22,3.68c0,0.07,0,0.14,0.06,0.18c0.04,0.02,0.09,0.02,0.13,0.01
				c0.33-0.07,0.6-0.35,0.69-0.68s-0.01-0.69-0.23-0.95c-0.06-0.08-0.14-0.15-0.17-0.24c-0.06-0.17,0.06-0.35,0.15-0.51
				c0.36-0.63,0.4-1.53-0.16-2"/>
			<g>
				<path d="M112.46,83.77c-0.09,0.8-0.15,1.59-0.18,2.39c-0.02,0.41-0.04,0.83-0.04,1.24c0,0.49,0.35,0.83,0.86,0.71
					c0.76-0.18,1.16-0.99,1.02-1.72c-0.03-0.17-0.1-0.35-0.2-0.5c-0.05-0.08-0.11-0.16-0.18-0.24c-0.17-0.2,0.01,0.05-0.05,0.05
					c0.02,0,0.15-0.28,0.17-0.33c0.07-0.16,0.14-0.32,0.18-0.49c0.18-0.69,0.07-1.5-0.49-1.99c-0.2-0.18-0.51-0.2-0.71,0
					c-0.18,0.18-0.2,0.53,0,0.71c0.22,0.2,0.29,0.42,0.28,0.73c-0.01,0.35-0.21,0.62-0.35,0.97c-0.1,0.26-0.1,0.54,0.05,0.79
					c0.09,0.15,0.23,0.26,0.29,0.43c0.05,0.13,0.05,0.27-0.01,0.39c-0.03,0.07-0.08,0.13-0.14,0.17c-0.08,0.06-0.16,0.03-0.04,0.06
					c0.07,0.04,0.15,0.09,0.22,0.13c-0.01-0.01-0.02-0.02-0.03-0.03c0.04,0.07,0.09,0.15,0.13,0.22c-0.04-0.09-0.02,0.07-0.01-0.1
					c0-0.09,0-0.17,0-0.26c0-0.14,0.01-0.29,0.01-0.43c0.01-0.33,0.02-0.66,0.04-0.99c0.04-0.64,0.09-1.28,0.16-1.92
					c0.03-0.27-0.25-0.5-0.5-0.5C112.67,83.27,112.49,83.5,112.46,83.77L112.46,83.77z"/>
			</g>
		</g>
		<g>
			<path d="M116.63,83.37c-0.06,1.25-0.09,2.5-0.08,3.74c0.07-1.33,0.05-2.67-0.06-4"/>
			<g>
				<path d="M116.13,83.37c-0.06,1.25-0.09,2.5-0.08,3.74c0,0.65,0.97,0.64,1,0c0.07-1.33,0.05-2.67-0.06-4
					c-0.02-0.27-0.21-0.5-0.5-0.5c-0.25,0-0.52,0.23-0.5,0.5c0.11,1.33,0.13,2.67,0.06,4c0.33,0,0.67,0,1,0
					c0-1.25,0.02-2.5,0.08-3.74c0.01-0.27-0.24-0.5-0.5-0.5C116.35,82.87,116.14,83.1,116.13,83.37L116.13,83.37z"/>
			</g>
		</g>
		<g>
			<path d="M122.94,82.84c0.34,0.95,0.79,1.87,1.32,2.73c0.09,0.15,0.26,0.31,0.41,0.23c0.05-0.03,0.09-0.09,0.1-0.15
				c0.06-0.22-0.05-0.46-0.16-0.66c-0.49-0.9-0.97-1.81-1.46-2.71"/>
			<g>
				<path d="M122.46,82.97c0.2,0.54,0.42,1.06,0.67,1.58c0.23,0.47,0.47,0.98,0.8,1.4c0.2,0.25,0.51,0.43,0.84,0.34
					c0.36-0.1,0.55-0.49,0.53-0.84c-0.02-0.32-0.18-0.61-0.33-0.88c-0.14-0.26-0.28-0.51-0.41-0.77c-0.32-0.6-0.64-1.19-0.96-1.79
					c-0.13-0.24-0.46-0.31-0.68-0.18c-0.24,0.14-0.31,0.45-0.18,0.68c0.29,0.53,0.58,1.07,0.86,1.6c0.14,0.27,0.29,0.53,0.43,0.8
					c0.07,0.13,0.14,0.26,0.21,0.39c0.03,0.05,0.05,0.09,0.06,0.15c0,0.02,0.01,0.04,0.01,0.06c-0.01-0.01-0.01-0.01-0.01-0.02
					c0.04-0.11,0.12-0.15,0.24-0.13c0.08-0.06,0.15-0.06,0.21-0.01c-0.04-0.04-0.05-0.05-0.02-0.01c-0.01-0.01-0.02-0.03-0.03-0.04
					c-0.08-0.13-0.16-0.26-0.23-0.39c-0.14-0.24-0.27-0.49-0.4-0.74c-0.24-0.48-0.46-0.97-0.64-1.48c-0.09-0.25-0.34-0.42-0.62-0.35
					C122.56,82.42,122.36,82.72,122.46,82.97L122.46,82.97z"/>
			</g>
		</g>
		<g>
			<g>
				<path d="M90.16,66.36c-0.05-0.01-0.1-0.01-0.02,0c0.02,0,0.04,0.01,0.06,0.01c0.05,0.01,0.09,0.02,0.14,0.03
					c0.1,0.02,0.2,0.05,0.29,0.08c0.05,0.02,0.09,0.03,0.14,0.05c0.09,0.03-0.07-0.03-0.02-0.01c0.02,0.01,0.04,0.02,0.06,0.03
					c0.09,0.04,0.18,0.09,0.27,0.14c0.08,0.05,0.16,0.1,0.24,0.16c0.05,0.04,0,0-0.02-0.02c0.02,0.02,0.04,0.03,0.06,0.05
					c0.04,0.03,0.07,0.06,0.11,0.09c0.08,0.07,0.15,0.14,0.22,0.22c0.03,0.04,0.06,0.07,0.09,0.11c0.04,0.05-0.01,0-0.02-0.03
					c0.02,0.03,0.04,0.05,0.06,0.08c0.15,0.21,0.44,0.33,0.68,0.18c0.21-0.14,0.34-0.46,0.18-0.68c-0.29-0.41-0.66-0.76-1.1-1.02
					c-0.44-0.26-0.92-0.41-1.43-0.47c-0.12-0.01-0.27,0.07-0.35,0.15c-0.09,0.09-0.15,0.23-0.15,0.35c0.01,0.13,0.05,0.26,0.15,0.35
					C89.91,66.31,90.02,66.34,90.16,66.36L90.16,66.36z"/>
			</g>
		</g>
		<g>
			<g>
				<path d="M91.98,65.78c-0.09,0.42-0.16,0.86-0.2,1.29c-0.01,0.12,0.06,0.27,0.15,0.35c0.09,0.09,0.23,0.15,0.35,0.15
					c0.13-0.01,0.26-0.05,0.35-0.15c0.09-0.1,0.13-0.21,0.15-0.35c0.01-0.14,0.03-0.28,0.05-0.43c-0.01,0.04-0.01,0.09-0.02,0.13
					c0.03-0.25,0.08-0.49,0.13-0.73c0.03-0.13,0.02-0.27-0.05-0.39c-0.06-0.1-0.18-0.2-0.3-0.23c-0.13-0.03-0.27-0.02-0.39,0.05
					C92.1,65.55,92.01,65.65,91.98,65.78L91.98,65.78z"/>
			</g>
		</g>
		<g>
			<g>
				<path d="M89.23,71.08c1.01,0.37,2.19,0.1,2.97-0.63c0.19-0.18,0.19-0.53,0-0.71c-0.21-0.19-0.5-0.19-0.71,0
					c-0.04,0.03-0.07,0.07-0.11,0.1c-0.09,0.08,0.06-0.04,0,0c-0.02,0.01-0.04,0.03-0.06,0.04c-0.09,0.06-0.18,0.11-0.27,0.16
					c-0.02,0.01-0.04,0.02-0.07,0.03C90.91,70.12,91,70.08,91,70.08c0,0-0.14,0.05-0.16,0.06c-0.1,0.03-0.2,0.06-0.3,0.08
					c-0.02,0-0.05,0.01-0.07,0.01c-0.07,0.01,0-0.01,0.02,0c-0.04-0.01-0.11,0.01-0.15,0.01c-0.1,0.01-0.21,0.01-0.31,0
					c-0.03,0-0.06-0.01-0.09-0.01c-0.08-0.01,0.01-0.01,0.02,0c-0.02-0.02-0.11-0.02-0.15-0.03c-0.11-0.02-0.22-0.06-0.32-0.09
					c-0.25-0.09-0.56,0.1-0.62,0.35C88.81,70.75,88.96,70.99,89.23,71.08L89.23,71.08z"/>
			</g>
		</g>
		<g>
			<g>
				<path d="M91.52,69.92c-0.02,0.33-0.03,0.65-0.05,0.98c-0.01,0.12,0.06,0.27,0.15,0.35c0.09,0.09,0.23,0.15,0.35,0.15
					c0.13-0.01,0.26-0.05,0.35-0.15c0.09-0.1,0.14-0.22,0.15-0.35c0.02-0.33,0.03-0.65,0.05-0.98c0.01-0.12-0.06-0.27-0.15-0.35
					c-0.09-0.09-0.23-0.15-0.35-0.15c-0.13,0.01-0.26,0.05-0.35,0.15C91.57,69.67,91.52,69.79,91.52,69.92L91.52,69.92z"/>
			</g>
		</g>
		<g>
			<g>
				<path d="M89.14,65.13c-1.4-0.36-3.05-0.13-3.82,1.23c-0.63,1.12-0.42,2.53,0.42,3.47c0.55,0.61,1.34,0.97,2.14,1.08
					c0.27,0.04,0.54-0.07,0.62-0.35c0.06-0.23-0.08-0.58-0.35-0.62c-0.17-0.02-0.34-0.06-0.51-0.1c-0.07-0.02-0.14-0.04-0.21-0.07
					c-0.04-0.01-0.07-0.03-0.11-0.04c-0.14-0.05,0.08,0.04-0.05-0.02c-0.13-0.06-0.25-0.13-0.37-0.2c-0.05-0.03-0.11-0.07-0.16-0.11
					c0.09,0.07-0.02-0.02-0.03-0.03c-0.03-0.03-0.06-0.05-0.09-0.08c-0.09-0.08-0.17-0.17-0.25-0.26c-0.08-0.1,0.06,0.08-0.02-0.02
					c-0.01-0.02-0.03-0.04-0.04-0.06c-0.04-0.06-0.08-0.12-0.11-0.18c-0.03-0.05-0.05-0.1-0.08-0.15c-0.06-0.13,0.01,0.05-0.04-0.09
					c-0.04-0.12-0.08-0.24-0.1-0.36c-0.01-0.04-0.03-0.23-0.02-0.09c-0.01-0.06-0.01-0.12-0.01-0.18c-0.01-0.12,0.01-0.24,0.01-0.36
					c0-0.12-0.01,0.08,0,0.01c0.01-0.03,0.01-0.06,0.02-0.09c0.01-0.05,0.02-0.11,0.04-0.16c0.01-0.05,0.03-0.1,0.05-0.16
					c0.01-0.03,0.02-0.07,0.04-0.1c0.04-0.1-0.04,0.09,0.01-0.01c0.05-0.1,0.1-0.19,0.16-0.28c0.02-0.03,0.13-0.18,0.05-0.07
					c0.04-0.05,0.09-0.1,0.13-0.15c0.04-0.04,0.08-0.08,0.12-0.11c0.03-0.02,0.06-0.05,0.09-0.07c-0.01,0.01-0.09,0.06-0.01,0.01
					c0.11-0.07,0.22-0.14,0.33-0.2c0.02-0.01,0.14-0.06,0.03-0.01c0.04-0.02,0.08-0.03,0.12-0.04c0.07-0.02,0.13-0.04,0.2-0.06
					c0.09-0.02,0.17-0.04,0.26-0.05c-0.1,0.01,0.1-0.01,0.14-0.01c0.44-0.03,0.74,0.02,1.15,0.13
					C89.5,66.25,89.76,65.29,89.14,65.13L89.14,65.13z"/>
			</g>
		</g>
		<g>
			<g>
				<path d="M87.95,65.64c-0.3,1.44-0.4,2.91-0.57,4.37c-0.03,0.27,0.25,0.5,0.5,0.5c0.3,0,0.47-0.23,0.5-0.5
					c0.09-0.78,0.17-1.57,0.26-2.35c0.02-0.15,0.03-0.29,0.05-0.44c0-0.03,0.01-0.06,0.01-0.1c-0.01,0.09,0-0.02,0-0.03
					c0.01-0.07,0.02-0.14,0.03-0.21c0.05-0.32,0.11-0.65,0.18-0.97c0.06-0.26-0.08-0.54-0.35-0.62
					C88.32,65.23,88.01,65.38,87.95,65.64L87.95,65.64z"/>
			</g>
		</g>
		<g>
			<g>
				<path d="M95.05,67.91c-0.63,0.89-1.18,1.83-1.66,2.81c-0.11,0.23-0.07,0.55,0.18,0.68c0.22,0.12,0.56,0.07,0.68-0.18
					c0.48-0.98,1.04-1.92,1.66-2.81c0.15-0.21,0.05-0.57-0.18-0.68C95.47,67.6,95.21,67.69,95.05,67.91L95.05,67.91z"/>
			</g>
		</g>
		<g>
			<g>
				<path d="M93.28,71.69c0.23-0.01,0.47,0,0.7,0.03c-0.04-0.01-0.09-0.01-0.13-0.02c0.12,0.02,0.25,0.04,0.37,0.07
					c0.13,0.03,0.27,0.02,0.39-0.05c0.1-0.06,0.2-0.18,0.23-0.3c0.03-0.13,0.02-0.27-0.05-0.39c-0.07-0.11-0.17-0.2-0.3-0.23
					c-0.39-0.09-0.8-0.13-1.2-0.12c-0.13,0-0.26,0.05-0.35,0.15c-0.09,0.09-0.15,0.23-0.15,0.35c0.01,0.13,0.05,0.26,0.15,0.35
					C93.02,71.63,93.15,71.69,93.28,71.69L93.28,71.69z"/>
			</g>
		</g>
		<g>
			<g>
				<path d="M97.99,72.06c0.82,0.07,1.63,0.15,2.45,0.22c0.26,0.02,0.51-0.25,0.5-0.5c-0.01-0.29-0.22-0.48-0.5-0.5
					c-0.82-0.07-1.63-0.15-2.45-0.22c-0.26-0.02-0.51,0.25-0.5,0.5C97.51,71.86,97.71,72.04,97.99,72.06L97.99,72.06z"/>
			</g>
		</g>
		<g>
			<g>
				<path d="M95.11,67.05c0.47,0.02,0.94,0.04,1.41,0.06c0.22,0.01,0.44,0.02,0.66,0.03c0.05,0,0.1,0.01,0.15,0.01
					c0.12,0.01-0.04-0.01,0.07,0.01c0.12,0.02,0.23,0.05,0.34,0.08c0.25,0.08,0.56-0.09,0.62-0.35c0.06-0.27-0.08-0.53-0.35-0.62
					c-0.46-0.14-0.95-0.15-1.43-0.17c-0.49-0.02-0.98-0.04-1.46-0.06c-0.26-0.01-0.51,0.24-0.5,0.5
					C94.62,66.83,94.83,67.04,95.11,67.05L95.11,67.05z"/>
			</g>
		</g>
		<g>
			<g>
				<path d="M96.1,70.28c0.01,0,0.02,0,0.03,0c-0.04,0.01-0.09,0.01-0.13,0.02c0.47-0.06,0.95-0.07,1.42-0.02
					c0.12,0.01,0.27-0.06,0.35-0.15c0.09-0.09,0.15-0.23,0.15-0.35c-0.01-0.13-0.05-0.26-0.15-0.35c-0.1-0.09-0.21-0.13-0.35-0.15
					c-0.53-0.06-1.06-0.03-1.58,0.04c-0.11,0.02-0.24,0.14-0.3,0.23c-0.06,0.11-0.09,0.27-0.05,0.39c0.04,0.12,0.11,0.24,0.23,0.3
					c0.04,0.02,0.08,0.03,0.12,0.05C95.92,70.3,96.01,70.3,96.1,70.28L96.1,70.28z"/>
			</g>
		</g>
		<g>
			<g>
				<path d="M96.12,67.45c0.66,1.23,1.03,2.58,1.5,3.89c0.09,0.25,0.34,0.42,0.62,0.35c0.25-0.07,0.44-0.36,0.35-0.62
					c-0.5-1.39-0.91-2.82-1.61-4.13c-0.13-0.24-0.46-0.31-0.68-0.18C96.05,66.91,95.99,67.21,96.12,67.45L96.12,67.45z"/>
			</g>
		</g>
		<g>
			<g>
				<path d="M97.43,67.19c0.62,1.49,1.28,2.97,1.97,4.43c0.12,0.24,0.47,0.31,0.68,0.18c0.25-0.15,0.29-0.44,0.18-0.68
					c-0.65-1.38-1.28-2.78-1.87-4.19c-0.1-0.25-0.33-0.43-0.62-0.35C97.55,66.64,97.33,66.94,97.43,67.19L97.43,67.19z"/>
			</g>
		</g>
		<g>
			<g>
				<path d="M102.34,67.51c0.8-0.03,1.59,0.16,2.39,0.13c0.26-0.01,0.51-0.22,0.5-0.5c-0.01-0.26-0.22-0.51-0.5-0.5
					c-0.8,0.03-1.59-0.16-2.39-0.13c-0.26,0.01-0.51,0.22-0.5,0.5C101.86,67.27,102.06,67.52,102.34,67.51L102.34,67.51z"/>
			</g>
		</g>
		<g>
			<g>
				<path d="M105.81,67.76c0.51,0.06,1.02,0.02,1.53,0.07c0.12,0.01,0.27-0.07,0.35-0.15c0.09-0.09,0.15-0.23,0.15-0.35
					c-0.01-0.13-0.05-0.26-0.15-0.35c-0.1-0.1-0.21-0.13-0.35-0.15c-0.51-0.06-1.02-0.02-1.53-0.07c-0.12-0.01-0.27,0.07-0.35,0.15
					c-0.09,0.09-0.15,0.23-0.15,0.35c0.01,0.13,0.05,0.26,0.15,0.35C105.56,67.71,105.67,67.75,105.81,67.76L105.81,67.76z"/>
			</g>
		</g>
		<g>
			<g>
				<path d="M105.79,70.16c0.31,0.03,0.62,0.06,0.93,0.09c0.12,0.01,0.27-0.06,0.35-0.15c0.09-0.09,0.15-0.23,0.15-0.35
					c-0.01-0.13-0.05-0.26-0.15-0.35c-0.03-0.03-0.07-0.05-0.1-0.08c-0.08-0.05-0.16-0.07-0.25-0.07c-0.31-0.03-0.62-0.06-0.93-0.09
					c-0.12-0.01-0.27,0.06-0.35,0.15c-0.09,0.09-0.15,0.23-0.15,0.35c0.01,0.13,0.05,0.26,0.15,0.35c0.03,0.03,0.07,0.05,0.1,0.08
					C105.62,70.14,105.7,70.16,105.79,70.16L105.79,70.16z"/>
			</g>
		</g>
		<g>
			<g>
				<path d="M102.06,72.47c0.91,0.06,1.82,0.11,2.73,0.17c0.26,0.02,0.51-0.24,0.5-0.5c-0.01-0.28-0.22-0.48-0.5-0.5
					c-0.91-0.06-1.82-0.11-2.73-0.17c-0.26-0.02-0.51,0.24-0.5,0.5C101.58,72.25,101.78,72.45,102.06,72.47L102.06,72.47z"/>
			</g>
		</g>
		<g>
			<g>
				<path d="M104.22,67.38c-0.17,1.51-0.3,3.02-0.38,4.54c-0.01,0.27,0.24,0.5,0.5,0.5c0.28,0,0.49-0.23,0.5-0.5
					c0.07-1.52,0.21-3.03,0.38-4.54c0.03-0.27-0.25-0.5-0.5-0.5C104.42,66.88,104.25,67.11,104.22,67.38L104.22,67.38z"/>
			</g>
		</g>
		<g>
			<g>
				<path d="M102.71,66.99c-0.21,1.57-0.35,3.14-0.38,4.72c-0.01,0.64,0.99,0.64,1,0c0.03-1.49,0.14-2.98,0.34-4.45
					c0.04-0.27-0.06-0.54-0.35-0.62C103.09,66.58,102.75,66.72,102.71,66.99L102.71,66.99z"/>
			</g>
		</g>
		<g>
			<g>
				<path d="M106.84,67.34c-0.01,0.24-0.02,0.47-0.02,0.71c0,0.13,0.06,0.26,0.15,0.35c0.05,0.05,0.1,0.08,0.16,0.1
					c0.06,0.03,0.12,0.05,0.19,0.04c0.13-0.01,0.26-0.05,0.35-0.15c0.09-0.1,0.15-0.22,0.15-0.35c0-0.24,0-0.47,0.02-0.71
					c0-0.07-0.01-0.13-0.04-0.19c-0.02-0.06-0.05-0.12-0.1-0.16c-0.05-0.05-0.1-0.08-0.16-0.1c-0.06-0.03-0.12-0.05-0.19-0.04
					c-0.13,0.01-0.26,0.05-0.35,0.15c-0.03,0.03-0.05,0.07-0.08,0.1C106.86,67.16,106.84,67.25,106.84,67.34L106.84,67.34z"/>
			</g>
		</g>
		<g>
			<g>
				<path d="M106.67,69.46c-0.02,0.26-0.05,0.51-0.07,0.77c0,0.07,0.01,0.13,0.04,0.19c0.02,0.06,0.05,0.12,0.1,0.16
					c0.09,0.09,0.23,0.15,0.35,0.15c0.13-0.01,0.26-0.05,0.35-0.15c0.03-0.03,0.05-0.07,0.08-0.1c0.05-0.08,0.07-0.16,0.07-0.25
					c0.02-0.26,0.05-0.51,0.07-0.77c0-0.07-0.01-0.13-0.04-0.19c-0.02-0.06-0.05-0.12-0.1-0.16c-0.09-0.09-0.23-0.15-0.35-0.15
					c-0.13,0.01-0.26,0.05-0.35,0.15c-0.03,0.03-0.05,0.07-0.08,0.1C106.69,69.28,106.67,69.37,106.67,69.46L106.67,69.46z"/>
			</g>
		</g>
		<g>
			<g>
				<path d="M108.66,67.76c0.72,0.01,1.45,0.03,2.17,0.05c0.26,0.01,0.51-0.23,0.5-0.5c-0.01-0.28-0.22-0.49-0.5-0.5
					c-0.72-0.01-1.45-0.03-2.17-0.05c-0.26-0.01-0.51,0.23-0.5,0.5C108.17,67.53,108.38,67.75,108.66,67.76L108.66,67.76z"/>
			</g>
		</g>
		<g>
			<g>
				<path d="M108.3,72.76c0.81-0.01,1.62,0.01,2.43-0.04c0.26-0.02,0.51-0.22,0.5-0.5c-0.01-0.26-0.22-0.52-0.5-0.5
					c-0.81,0.05-1.62,0.04-2.43,0.04c-0.26,0-0.51,0.23-0.5,0.5C107.81,72.53,108.02,72.77,108.3,72.76L108.3,72.76z"/>
			</g>
		</g>
		<g>
			<g>
				<path d="M108.77,67.56c-0.03,1.47-0.06,2.94-0.09,4.41c-0.01,0.64,0.99,0.64,1,0c0.03-1.47,0.06-2.94,0.09-4.41
					C109.78,66.91,108.78,66.91,108.77,67.56L108.77,67.56z"/>
			</g>
		</g>
		<g>
			<g>
				<path d="M110.32,67.41c-0.07,1.56-0.16,3.13-0.18,4.69c-0.01,0.64,0.99,0.64,1,0c0.01-1.56,0.1-3.13,0.18-4.69
					C111.35,66.77,110.35,66.77,110.32,67.41L110.32,67.41z"/>
			</g>
		</g>
		<g>
			<g>
				<path d="M112.13,67.91c0.5-0.01,1.01,0,1.51,0c0.26,0,0.51-0.23,0.5-0.5c-0.01-0.27-0.22-0.5-0.5-0.5c-0.5,0.01-1.01,0-1.51,0
					c-0.26,0-0.51,0.23-0.5,0.5C111.65,67.68,111.85,67.92,112.13,67.91L112.13,67.91z"/>
			</g>
		</g>
		<g>
			<g>
				<path d="M112.05,70.43c0.4-0.02,0.79-0.03,1.19-0.05c0.13-0.01,0.26-0.05,0.35-0.15c0.09-0.09,0.15-0.23,0.15-0.35
					c-0.01-0.13-0.05-0.26-0.15-0.35c-0.1-0.09-0.22-0.15-0.35-0.15c-0.4,0.02-0.79,0.03-1.19,0.05c-0.13,0.01-0.26,0.05-0.35,0.15
					c-0.09,0.09-0.15,0.23-0.15,0.35c0.01,0.13,0.05,0.26,0.15,0.35C111.79,70.37,111.91,70.43,112.05,70.43L112.05,70.43z"/>
			</g>
		</g>
		<g>
			<g>
				<path d="M111.81,72.72c0.54-0.02,1.07,0.03,1.61,0.02c0.26-0.01,0.51-0.22,0.5-0.5c-0.01-0.26-0.22-0.51-0.5-0.5
					c-0.54,0.02-1.07-0.03-1.61-0.02c-0.26,0.01-0.51,0.22-0.5,0.5C111.32,72.48,111.53,72.73,111.81,72.72L111.81,72.72z"/>
			</g>
		</g>
		<g>
			<g>
				<path d="M113.03,71.53c-0.02,0.21-0.03,0.43-0.01,0.64c0,0.07,0.01,0.13,0.04,0.19c0.02,0.06,0.05,0.12,0.1,0.16
					c0.05,0.05,0.1,0.08,0.16,0.1c0.06,0.03,0.12,0.05,0.19,0.04c0.13-0.01,0.26-0.05,0.35-0.15c0.09-0.09,0.16-0.22,0.15-0.35
					c-0.02-0.21-0.01-0.43,0.01-0.64c0-0.07-0.01-0.13-0.04-0.19c-0.02-0.06-0.05-0.12-0.1-0.16c-0.05-0.05-0.1-0.08-0.16-0.1
					c-0.06-0.03-0.12-0.05-0.19-0.04c-0.13,0.01-0.26,0.05-0.35,0.15c-0.03,0.03-0.05,0.07-0.08,0.1
					C113.05,71.36,113.03,71.44,113.03,71.53L113.03,71.53z"/>
			</g>
		</g>
		<g>
			<g>
				<path d="M113.08,69.43c-0.03,0.3-0.04,0.6-0.02,0.9c0.01,0.13,0.05,0.26,0.15,0.35c0.09,0.09,0.23,0.15,0.35,0.15
					c0.13-0.01,0.26-0.05,0.35-0.15c0.09-0.09,0.15-0.22,0.15-0.35c-0.02-0.3-0.01-0.6,0.02-0.9c0.01-0.12-0.06-0.27-0.15-0.35
					c-0.09-0.09-0.23-0.15-0.35-0.15c-0.13,0.01-0.26,0.05-0.35,0.15c-0.03,0.03-0.05,0.07-0.08,0.1
					C113.1,69.25,113.08,69.34,113.08,69.43L113.08,69.43z"/>
			</g>
		</g>
		<g>
			<g>
				<path d="M113.28,67.28c-0.05,0.3-0.07,0.6-0.04,0.9c0,0.07,0.01,0.13,0.04,0.19c0.02,0.06,0.05,0.12,0.1,0.16
					c0.09,0.09,0.23,0.15,0.35,0.15c0.13-0.01,0.26-0.05,0.35-0.15c0.08-0.09,0.16-0.22,0.15-0.35c-0.02-0.22-0.02-0.44,0.01-0.66
					c-0.01,0.04-0.01,0.09-0.02,0.13c0-0.03,0.01-0.07,0.02-0.1c0.02-0.07,0.02-0.13,0.01-0.2c0-0.07-0.02-0.13-0.06-0.19
					c-0.06-0.1-0.18-0.2-0.3-0.23c-0.13-0.03-0.27-0.02-0.39,0.05C113.41,67.05,113.3,67.16,113.28,67.28L113.28,67.28z"/>
			</g>
		</g>
		<g>
			<g>
				<path d="M101.39,75.4c0.86,0.09,1.72,0.14,2.58,0.16c0.26,0.01,0.51-0.23,0.5-0.5c-0.01-0.28-0.22-0.49-0.5-0.5
					c-0.86-0.02-1.72-0.07-2.58-0.16c-0.26-0.03-0.51,0.25-0.5,0.5C100.9,75.19,101.11,75.37,101.39,75.4L101.39,75.4z"/>
			</g>
		</g>
		<g>
			<g>
				<path d="M101.44,80.41c0.85-0.01,1.69,0.02,2.54,0.09c0.26,0.02,0.51-0.24,0.5-0.5c-0.01-0.29-0.22-0.48-0.5-0.5
					c-0.84-0.07-1.69-0.09-2.54-0.09c-0.26,0-0.51,0.23-0.5,0.5C100.95,80.18,101.16,80.41,101.44,80.41L101.44,80.41z"/>
			</g>
		</g>
		<g>
			<g>
				<path d="M103.7,75.04c0,1.65-0.22,3.3-0.22,4.95c0,0.64,1,0.64,1,0c0-1.65,0.22-3.3,0.22-4.95
					C104.69,74.4,103.69,74.4,103.7,75.04L103.7,75.04z"/>
			</g>
		</g>
		<g>
			<g>
				<path d="M101.9,75.35c-0.03,1.47-0.2,2.94-0.23,4.41c-0.01,0.64,0.99,0.64,1,0c0.03-1.47,0.2-2.94,0.23-4.41
					C102.91,74.71,101.91,74.71,101.9,75.35L101.9,75.35z"/>
			</g>
		</g>
		<g>
			<g>
				<path d="M105.26,75.64c0.38,0,0.77,0,1.15,0c0.13,0,0.26-0.06,0.35-0.15c0.09-0.09,0.15-0.23,0.15-0.35
					c-0.01-0.27-0.22-0.5-0.5-0.5c-0.38,0-0.77,0-1.15,0c-0.13,0-0.26,0.06-0.35,0.15c-0.09,0.09-0.15,0.23-0.15,0.35
					C104.78,75.41,104.98,75.64,105.26,75.64L105.26,75.64z"/>
			</g>
		</g>
		<g>
			<g>
				<path d="M105.34,77.92c0.17-0.01,0.33-0.01,0.5,0c0.14,0.01,0.28,0.01,0.41,0.01c0.13-0.01,0.26-0.05,0.35-0.15
					c0.09-0.09,0.15-0.23,0.15-0.35c-0.01-0.13-0.05-0.26-0.15-0.35c-0.09-0.09-0.22-0.15-0.35-0.15c-0.14,0.01-0.28,0-0.41-0.01
					c-0.17-0.01-0.33-0.01-0.5,0c-0.13,0.01-0.26,0.05-0.35,0.15c-0.09,0.09-0.15,0.23-0.15,0.35c0.01,0.13,0.05,0.26,0.15,0.35
					C105.08,77.86,105.21,77.93,105.34,77.92L105.34,77.92z"/>
			</g>
		</g>
		<g>
			<g>
				<path d="M105.22,80.54c0.4-0.04,0.81,0.05,1.21,0.06c0.26,0.01,0.51-0.23,0.5-0.5c-0.01-0.28-0.22-0.49-0.5-0.5
					c-0.4-0.01-0.81-0.09-1.21-0.06c-0.14,0.01-0.25,0.05-0.35,0.15c-0.09,0.09-0.15,0.23-0.15,0.35c0.01,0.13,0.05,0.26,0.15,0.35
					C104.96,80.48,105.09,80.55,105.22,80.54L105.22,80.54z"/>
			</g>
		</g>
		<g>
			<g>
				<path d="M105.98,79.21c-0.03,0.17-0.05,0.33-0.06,0.5c-0.01,0.07-0.01,0.14-0.01,0.22c0,0.1,0.01,0.19,0.02,0.29
					c0.02,0.07,0.05,0.12,0.09,0.17c0.04,0.05,0.08,0.1,0.14,0.13c0.06,0.04,0.12,0.06,0.19,0.06c0.07,0.01,0.13,0.01,0.2-0.01
					c0.12-0.04,0.24-0.11,0.3-0.23c0.02-0.04,0.03-0.08,0.05-0.12c0.02-0.09,0.02-0.18,0-0.27c0,0,0-0.01,0-0.01
					c0.01,0.04,0.01,0.09,0.02,0.13c-0.01-0.09,0-0.19,0-0.28c0.01-0.11,0.02-0.22,0.04-0.33c-0.01,0.04-0.01,0.09-0.02,0.13
					c0.01-0.04,0.01-0.08,0.02-0.12c0.02-0.07,0.02-0.13,0.01-0.2c0-0.07-0.02-0.13-0.06-0.19c-0.06-0.1-0.18-0.2-0.3-0.23
					c-0.13-0.03-0.27-0.02-0.39,0.05C106.11,78.98,106,79.08,105.98,79.21L105.98,79.21z"/>
			</g>
		</g>
		<g>
			<g>
				<path d="M106.06,76.99c0.01,0.32-0.05,0.64-0.05,0.97c0,0.13,0.05,0.26,0.15,0.35c0.09,0.09,0.23,0.15,0.35,0.15
					c0.13-0.01,0.26-0.05,0.35-0.15c0.09-0.1,0.15-0.22,0.15-0.35c-0.01-0.32,0.05-0.64,0.05-0.97c0-0.13-0.05-0.26-0.15-0.35
					c-0.09-0.09-0.23-0.15-0.35-0.15c-0.13,0.01-0.26,0.05-0.35,0.15C106.12,76.74,106.06,76.86,106.06,76.99L106.06,76.99z"/>
			</g>
		</g>
		<g>
			<g>
				<path d="M106.01,75.17c-0.01,0.21-0.02,0.41-0.03,0.62c0,0.07,0.01,0.13,0.04,0.19c0.02,0.06,0.05,0.12,0.1,0.16
					c0.05,0.05,0.1,0.08,0.16,0.1c0.06,0.03,0.12,0.05,0.19,0.04c0.13-0.01,0.26-0.05,0.35-0.15c0.03-0.03,0.05-0.07,0.08-0.1
					c0.05-0.08,0.07-0.16,0.07-0.25c0.01-0.21,0.02-0.41,0.03-0.62c0-0.07-0.01-0.13-0.04-0.19c-0.02-0.06-0.05-0.12-0.1-0.16
					c-0.05-0.05-0.1-0.08-0.16-0.1c-0.06-0.03-0.12-0.05-0.19-0.04c-0.13,0.01-0.26,0.05-0.35,0.15c-0.03,0.03-0.05,0.07-0.08,0.1
					C106.03,74.99,106.01,75.08,106.01,75.17L106.01,75.17z"/>
			</g>
		</g>
		<g>
			<g>
				<path d="M94.21,74.92c-0.06,1.29-0.16,2.57-0.22,3.85c-0.01,0.27,0.24,0.5,0.5,0.5c0.28,0,0.49-0.23,0.5-0.5
					c0.06-1.29,0.16-2.57,0.22-3.85c0.01-0.27-0.24-0.5-0.5-0.5C94.43,74.42,94.23,74.65,94.21,74.92L94.21,74.92z"/>
			</g>
		</g>
		<g>
			<g>
				<path d="M96.14,74.88c-0.15,1.47-0.22,2.97-0.21,4.45c0,0.64,1,0.64,1,0c-0.01-1.48,0.06-2.97,0.21-4.45
					c0.03-0.27-0.25-0.5-0.5-0.5C96.34,74.38,96.17,74.61,96.14,74.88L96.14,74.88z"/>
			</g>
		</g>
		<g>
			<g>
				<path d="M93.51,79.59c0.97,0.11,1.95,0.13,2.92,0.24c0.26,0.03,0.51-0.25,0.5-0.5c-0.01-0.3-0.22-0.47-0.5-0.5
					c-0.97-0.11-1.95-0.13-2.92-0.24c-0.26-0.03-0.51,0.25-0.5,0.5C93.02,79.39,93.23,79.56,93.51,79.59L93.51,79.59z"/>
			</g>
		</g>
		<g>
			<g>
				<path d="M93.97,74.97c0.89,0.11,1.78,0.24,2.67,0.32c0.26,0.02,0.51-0.25,0.5-0.5c-0.01-0.29-0.22-0.48-0.5-0.5
					c-0.89-0.07-1.78-0.21-2.67-0.32c-0.26-0.03-0.51,0.25-0.5,0.5C93.49,74.77,93.69,74.94,93.97,74.97L93.97,74.97z"/>
			</g>
		</g>
		<g>
			<g>
				<path d="M97.79,75.24c0.21-0.01,0.42-0.01,0.62,0c0.03,0,0.25,0.02,0.15,0.01c0.1,0.01,0.2,0.03,0.3,0.06
					c0.14,0.03,0.29,0.08,0.42,0.13c-0.12-0.05,0.08,0.04,0.12,0.06c0.06,0.03,0.12,0.07,0.18,0.11c0.03,0.02,0.06,0.04,0.08,0.06
					c-0.11-0.08-0.02-0.01,0.01,0.01c0.05,0.04,0.1,0.09,0.14,0.14c0.04,0.04,0.07,0.08,0.11,0.12c0.07,0.08-0.06-0.09,0,0
					c0.02,0.04,0.05,0.07,0.07,0.11c0.03,0.04,0.05,0.09,0.08,0.14c0.01,0.03,0.03,0.06,0.04,0.08c0.05,0.1-0.03-0.11,0,0
					c0.04,0.12,0.08,0.23,0.1,0.36c0.01,0.03,0.01,0.06,0.02,0.09c-0.03-0.15,0-0.04,0-0.01c0,0.05,0.01,0.1,0.01,0.16
					c0,0.14,0,0.27-0.02,0.41c0.02-0.16-0.01,0.02-0.01,0.05c-0.01,0.06-0.03,0.12-0.04,0.19c-0.02,0.06-0.04,0.12-0.06,0.18
					c-0.01,0.02-0.01,0.04-0.02,0.06c-0.05,0.13,0.03-0.05-0.01,0.03c-0.05,0.11-0.1,0.21-0.16,0.31c-0.03,0.05-0.07,0.11-0.11,0.16
					c-0.02,0.03-0.09,0.11,0,0c-0.03,0.03-0.05,0.07-0.08,0.1c-0.08,0.09-0.16,0.17-0.25,0.24c-0.1,0.09,0.06-0.04-0.05,0.04
					c-0.06,0.04-0.12,0.08-0.19,0.12c-0.06,0.04-0.13,0.07-0.2,0.1c0.13-0.06-0.05,0.01-0.09,0.03c-0.07,0.02-0.15,0.04-0.22,0.06
					c-0.01,0-0.12,0.02-0.03,0.01c0.09-0.01-0.05,0-0.07,0.01c-0.08,0.01-0.16,0.01-0.24,0c-0.04,0-0.26-0.03-0.12-0.01
					c-0.18-0.03-0.36-0.08-0.54-0.14c-0.25-0.09-0.55,0.1-0.62,0.35c-0.08,0.28,0.09,0.52,0.35,0.62c1.32,0.47,2.74-0.07,3.39-1.31
					c0.59-1.11,0.53-2.62-0.47-3.48c-0.72-0.61-1.68-0.79-2.6-0.73c-0.27,0.02-0.5,0.22-0.5,0.5C97.29,75,97.52,75.25,97.79,75.24
					L97.79,75.24z"/>
			</g>
		</g>
		<g>
			<g>
				<path d="M97.96,75.1c-0.01,1.26-0.07,2.51-0.13,3.77c-0.01,0.27,0.24,0.5,0.5,0.5c0.28,0,0.49-0.23,0.5-0.5
					c0.06-1.26,0.12-2.51,0.13-3.77C98.97,74.45,97.97,74.45,97.96,75.1L97.96,75.1z"/>
			</g>
		</g>
		<g>
			<g>
				<path d="M98.79,83.09c0.6,0.09,1.2,0.11,1.81,0.12c0.25,0,0.51,0,0.76,0c0.09,0,0.18,0,0.27,0c0.07,0,0.29,0.03,0.05-0.01
					c0.26,0.04,0.55-0.06,0.62-0.35c0.05-0.24-0.07-0.58-0.35-0.62c-0.42-0.06-0.85-0.03-1.28-0.03c-0.29,0-0.59-0.01-0.88-0.02
					c-0.14-0.01-0.29-0.02-0.43-0.03c-0.07-0.01-0.13-0.01-0.2-0.02c-0.02,0-0.09,0-0.1-0.01c0.02,0,0.04,0.01,0.07,0.01
					c-0.02,0-0.04-0.01-0.07-0.01c-0.26-0.04-0.55,0.06-0.62,0.35C98.38,82.71,98.51,83.04,98.79,83.09L98.79,83.09z"/>
			</g>
		</g>
		<g>
			<g>
				<path d="M103.99,83.28c0.99,0.12,1.98,0.13,2.97,0.04c0.26-0.03,0.51-0.21,0.5-0.5c-0.01-0.25-0.22-0.53-0.5-0.5
					c-0.99,0.1-1.99,0.08-2.97-0.04c-0.26-0.03-0.51,0.25-0.5,0.5C103.5,83.08,103.71,83.24,103.99,83.28L103.99,83.28z"/>
			</g>
		</g>
		<g>
			<g>
				<path d="M103.85,88.33c1.04-0.01,2.08,0.02,3.12,0.11c0.26,0.02,0.51-0.25,0.5-0.5c-0.01-0.29-0.22-0.48-0.5-0.5
					c-1.04-0.09-2.08-0.12-3.12-0.11c-0.26,0-0.51,0.23-0.5,0.5C103.36,88.1,103.57,88.33,103.85,88.33L103.85,88.33z"/>
			</g>
		</g>
		<g>
			<g>
				<path d="M105.93,83.28c-0.03,1.5-0.03,3.01,0,4.51c0.01,0.64,1.01,0.64,1,0c-0.03-1.5-0.03-3.01,0-4.51
					C106.94,82.63,105.94,82.63,105.93,83.28L105.93,83.28z"/>
			</g>
		</g>
		<g>
			<g>
				<path d="M104.73,87.3c0.05-0.81,0.1-1.61,0.15-2.42c0.03-0.43-0.56-0.66-0.85-0.35c-0.75,0.79-1.18,1.79-1.84,2.64
					c0.26,0.03,0.52,0.07,0.79,0.1c-0.61-0.79-1.21-1.57-1.82-2.36c-0.54-0.7-1.18-1.41-1.52-2.24c-0.1-0.25-0.33-0.43-0.62-0.35
					c-0.24,0.07-0.45,0.36-0.35,0.62c0.37,0.9,0.96,1.63,1.55,2.4c0.63,0.81,1.25,1.63,1.88,2.44c0.17,0.22,0.56,0.38,0.79,0.1
					c0.66-0.84,1.1-1.86,1.84-2.64c-0.28-0.12-0.57-0.24-0.85-0.35c-0.05,0.81-0.1,1.61-0.15,2.42
					C103.69,87.94,104.69,87.94,104.73,87.3L104.73,87.3z"/>
			</g>
		</g>
		<g>
			<g>
				<path d="M100.79,83.33c0.13,0.15,0.26,0.31,0.38,0.47c-0.05-0.06,0.04,0.05,0.04,0.06c0.03,0.03,0.05,0.07,0.08,0.1
					c0.06,0.08,0.12,0.16,0.18,0.25c0.23,0.32,0.44,0.66,0.63,1c0.15,0.26,0.58,0.35,0.79,0.1c0.3-0.36,0.54-0.75,0.77-1.15
					c0.1-0.17,0.19-0.35,0.3-0.52c0.05-0.09,0.1-0.17,0.16-0.25c0.03-0.04,0.05-0.08,0.08-0.11c0.03-0.05,0.04-0.05,0.01-0.01
					c0.02-0.02,0.04-0.05,0.06-0.07c0.17-0.2,0.21-0.51,0-0.71c-0.18-0.17-0.53-0.22-0.71,0c-0.28,0.34-0.5,0.71-0.72,1.09
					c-0.1,0.18-0.2,0.36-0.31,0.53c-0.06,0.09-0.11,0.18-0.18,0.27c-0.03,0.04-0.06,0.08-0.09,0.12c-0.04,0.05-0.04,0.06-0.02,0.02
					c-0.02,0.03-0.04,0.06-0.07,0.08c0.26,0.03,0.52,0.07,0.79,0.1c-0.42-0.74-0.92-1.43-1.47-2.08c-0.17-0.2-0.53-0.19-0.71,0
					C100.6,82.84,100.61,83.12,100.79,83.33L100.79,83.33z"/>
			</g>
		</g>
		<g>
			<g>
				<path d="M99.46,85.85c-0.04,0.56-0.07,1.12-0.07,1.68c0,0.26,0.23,0.51,0.5,0.5c0.27-0.01,0.5-0.22,0.5-0.5
					c0-0.56,0.02-1.12,0.07-1.68c0.02-0.26-0.24-0.51-0.5-0.5C99.67,85.36,99.49,85.57,99.46,85.85L99.46,85.85z"/>
			</g>
		</g>
		<g>
			<g>
				<path d="M99.24,88.16c0.03,0,0.06-0.01,0.09-0.01c-0.04,0.01-0.09,0.01-0.13,0.02c0.33-0.04,0.67-0.04,1,0
					c-0.04-0.01-0.09-0.01-0.13-0.02c0.2,0.03,0.39,0.07,0.58,0.13c0.25,0.08,0.56-0.09,0.62-0.35c0.06-0.27-0.08-0.53-0.35-0.62
					c-0.63-0.19-1.29-0.22-1.94-0.12c-0.12,0.02-0.24,0.13-0.3,0.23c-0.06,0.11-0.09,0.27-0.05,0.39c0.04,0.12,0.11,0.24,0.23,0.3
					C98.98,88.18,99.1,88.18,99.24,88.16L99.24,88.16z"/>
			</g>
		</g>
		<g>
			<g>
				<path d="M108.52,83.56c0.09-0.01,0.17-0.03,0.26-0.04c0.04-0.01,0.03,0-0.03,0c0.03,0,0.05-0.01,0.08-0.01
					c0.04,0,0.08-0.01,0.12-0.01c0.17-0.02,0.33-0.03,0.5-0.03c0.34-0.01,0.68,0,1.02,0.04c0.26,0.03,0.51-0.25,0.5-0.5
					c-0.01-0.29-0.22-0.47-0.5-0.5c-0.74-0.08-1.47-0.04-2.2,0.09c-0.26,0.05-0.43,0.38-0.35,0.62
					C108,83.49,108.25,83.61,108.52,83.56L108.52,83.56z"/>
			</g>
		</g>
		<g>
			<g>
				<path d="M108.57,88.6c0.05-0.01,0.1-0.02,0.14-0.02c0.01,0,0.15-0.02,0.08-0.01c-0.07,0.01,0.09-0.01,0.1-0.01
					c0.04,0,0.08-0.01,0.12-0.01c0.17-0.02,0.35-0.03,0.52-0.03c0.36-0.01,0.71,0.01,1.06,0.06c0.12,0.02,0.27-0.07,0.35-0.15
					c0.09-0.09,0.15-0.23,0.15-0.35c-0.01-0.13-0.05-0.26-0.15-0.35c-0.1-0.1-0.21-0.13-0.35-0.15c-0.77-0.1-1.53-0.07-2.29,0.07
					c-0.26,0.05-0.43,0.37-0.35,0.62C108.05,88.53,108.3,88.65,108.57,88.6L108.57,88.6z"/>
			</g>
		</g>
		<g>
			<g>
				<path d="M108.39,83.39c0.02,1.52,0.07,3.05,0.16,4.57c0.02,0.27,0.22,0.5,0.5,0.5c0.26,0,0.52-0.23,0.5-0.5
					c-0.09-1.52-0.14-3.04-0.16-4.57C109.38,82.75,108.38,82.75,108.39,83.39L108.39,83.39z"/>
			</g>
		</g>
		<g>
			<g>
				<path d="M109.95,83.12c0,1.65,0.15,3.3,0.15,4.95c0,0.64,1,0.64,1,0c0-1.65-0.15-3.3-0.15-4.95
					C110.95,82.48,109.95,82.48,109.95,83.12L109.95,83.12z"/>
			</g>
		</g>
		<g>
			<g>
				<path d="M111.62,83.46c0.42-0.06,0.84-0.12,1.26-0.12c0.19,0,0.32,0.01,0.47,0.04c0.15,0.04,0.18,0.06,0.27,0.14
					c-0.04-0.04-0.01-0.02,0,0.01c-0.03-0.07,0.01,0.02,0.01,0.04c0,0.01,0.02,0.12,0.01,0.2c-0.02,0.13-0.08,0.25-0.14,0.32
					c-0.2,0.24-0.51,0.37-0.77,0.46c-0.23,0.08-0.4,0.29-0.36,0.55c0.03,0.22,0.24,0.47,0.49,0.43c0.03,0,0.06,0,0.09,0
					c0,0-0.1-0.03,0.02,0c0.08,0.02,0.16,0.04,0.24,0.08c-0.09-0.04,0.06,0.03,0.08,0.04c0.05,0.03,0.1,0.06,0.15,0.09
					c0.09,0.06,0.1,0.07,0.19,0.15c0.28,0.27,0.34,0.69,0.14,1.06c-0.09,0.17-0.19,0.28-0.36,0.37c-0.09,0.06-0.16,0.09-0.2,0.1
					c-0.11,0.04-0.23,0.07-0.35,0.1c-0.11,0.02-0.19,0.03-0.23,0.04c-0.12,0.01-0.24,0.02-0.36,0.02c-0.2,0-0.4-0.01-0.59-0.02
					c-0.27-0.02-0.5,0.25-0.5,0.5c0,0.29,0.23,0.48,0.5,0.5c1.18,0.1,2.6-0.13,3.07-1.38c0.27-0.7,0.12-1.47-0.42-2
					c-0.35-0.34-0.96-0.72-1.47-0.65c0.04,0.33,0.09,0.65,0.13,0.98c0.48-0.18,0.96-0.4,1.29-0.82c0.36-0.46,0.5-1.15,0.21-1.68
					c-0.57-1.04-2.2-0.68-3.13-0.54c-0.27,0.04-0.41,0.38-0.35,0.62C111.08,83.39,111.35,83.5,111.62,83.46L111.62,83.46z"/>
			</g>
		</g>
		<g>
			<g>
				<path d="M111.55,85.74c0.5-0.05,1-0.1,1.5-0.16c0.14-0.01,0.25-0.05,0.35-0.15c0.09-0.09,0.15-0.23,0.15-0.35
					c-0.01-0.13-0.05-0.26-0.15-0.35c-0.09-0.08-0.22-0.16-0.35-0.15c-0.5,0.05-1,0.1-1.5,0.16c-0.14,0.01-0.25,0.05-0.35,0.15
					c-0.09,0.09-0.15,0.23-0.15,0.35c0.01,0.13,0.05,0.26,0.15,0.35C111.29,85.67,111.42,85.75,111.55,85.74L111.55,85.74z"/>
			</g>
		</g>
		<g>
			<g>
				<path d="M111.9,85.57c-0.02,0.44-0.04,0.88-0.06,1.33c-0.01,0.21-0.02,0.41-0.02,0.62c-0.01,0.22-0.02,0.41,0.14,0.59
					c0.18,0.19,0.53,0.19,0.71,0c0.07-0.08,0.09-0.12,0.13-0.22c0.09-0.25-0.1-0.56-0.35-0.62c-0.28-0.06-0.52,0.09-0.62,0.35
					c0,0,0,0,0,0c0.04-0.07,0.09-0.15,0.13-0.22c0,0,0,0,0,0c0.24,0,0.47,0,0.71,0c0,0,0,0,0,0c0.04,0.07,0.09,0.15,0.13,0.22
					c0.05,0.18,0.02,0.14,0.02,0.05c0-0.07,0-0.13,0.01-0.2c0.01-0.21,0.02-0.42,0.02-0.63c0.02-0.42,0.04-0.84,0.06-1.26
					c0.01-0.26-0.24-0.51-0.5-0.5C112.12,85.09,111.91,85.29,111.9,85.57L111.9,85.57z"/>
			</g>
		</g>
		<g>
			<g>
				<path d="M112.01,83.23c-0.04,0.62-0.07,1.25-0.06,1.87c0,0.26,0.23,0.51,0.5,0.5c0.27-0.01,0.5-0.22,0.5-0.5
					c0-0.62,0.02-1.25,0.06-1.87c0.02-0.26-0.24-0.51-0.5-0.5C112.22,82.74,112.03,82.95,112.01,83.23L112.01,83.23z"/>
			</g>
		</g>
		<g>
			<g>
				<path d="M115.16,83.13c0.38,0,0.76-0.06,1.13-0.1c0.42-0.04,0.84-0.1,1.26-0.1c0.26,0,0.51-0.23,0.5-0.5
					c-0.01-0.27-0.22-0.5-0.5-0.5c-0.42,0-0.84,0.05-1.26,0.1c-0.37,0.04-0.75,0.1-1.13,0.1c-0.26,0-0.51,0.23-0.5,0.5
					C114.67,82.9,114.88,83.13,115.16,83.13L115.16,83.13z"/>
			</g>
		</g>
		<g>
			<g>
				<path d="M115.37,88.3c0.89-0.07,1.77-0.11,2.67-0.1c0.26,0,0.51-0.23,0.5-0.5c-0.01-0.27-0.22-0.5-0.5-0.5
					c-0.89-0.01-1.78,0.04-2.67,0.1c-0.26,0.02-0.51,0.22-0.5,0.5C114.88,88.05,115.09,88.32,115.37,88.3L115.37,88.3z"/>
			</g>
		</g>
		<g>
			<g>
				<path d="M115.49,82.97c0.07,1.46,0.11,2.91,0.11,4.37c0,0.64,1,0.64,1,0c0-1.46-0.04-2.91-0.11-4.37
					c-0.01-0.27-0.22-0.5-0.5-0.5C115.73,82.47,115.48,82.7,115.49,82.97L115.49,82.97z"/>
			</g>
		</g>
		<g>
			<g>
				<path d="M116.68,82.99c-0.04,1.36-0.01,2.72,0.11,4.08c0.02,0.27,0.21,0.5,0.5,0.5c0.25,0,0.52-0.23,0.5-0.5
					c-0.11-1.36-0.15-2.72-0.11-4.08C117.7,82.34,116.7,82.34,116.68,82.99L116.68,82.99z"/>
			</g>
		</g>
		<g>
			<g>
				<path d="M120.09,87.43c0.57-1.18,1.05-2.41,1.72-3.54c0.14-0.23,0.05-0.55-0.18-0.68c-0.24-0.14-0.55-0.05-0.68,0.18
					c-0.67,1.13-1.15,2.36-1.72,3.54c-0.12,0.24-0.07,0.54,0.18,0.68C119.63,87.74,119.97,87.68,120.09,87.43L120.09,87.43z"/>
			</g>
		</g>
		<g>
			<g>
				<path d="M119.43,88.08c0.19-0.04,0.37-0.07,0.56-0.1c0.08-0.01,0.16-0.03,0.24-0.04c0.09-0.01-0.01,0.01-0.04,0.01
					c0.01,0,0.04,0,0.05-0.01c0.04,0,0.08-0.01,0.11-0.01c0.28-0.03,0.56-0.04,0.84-0.03c0.26,0,0.51-0.23,0.5-0.5
					c-0.01-0.27-0.22-0.5-0.5-0.5c-0.69-0.01-1.36,0.09-2.03,0.23c-0.26,0.05-0.43,0.37-0.35,0.62
					C118.91,88,119.16,88.13,119.43,88.08L119.43,88.08z"/>
			</g>
		</g>
		<g>
			<g>
				<path d="M120.74,85.9c0.02,0,0.14-0.04,0.15-0.03c0,0-0.14,0.02-0.07,0.01c0.01,0,0.03,0,0.04,0c0.03,0,0.07-0.01,0.11-0.01
					c0.17-0.02,0.33-0.03,0.5-0.04c0.41-0.03,0.82-0.06,1.23-0.12c0.12-0.02,0.24-0.13,0.3-0.23c0.06-0.11,0.09-0.27,0.05-0.39
					c-0.04-0.12-0.11-0.24-0.23-0.3c-0.13-0.07-0.24-0.07-0.39-0.05c-0.07,0.01,0.02,0,0.04-0.01c-0.03,0-0.05,0.01-0.08,0.01
					c-0.05,0.01-0.09,0.01-0.14,0.02c-0.09,0.01-0.18,0.02-0.27,0.03c-0.19,0.02-0.38,0.03-0.57,0.04c-0.31,0.02-0.63,0.03-0.93,0.1
					c-0.25,0.06-0.43,0.36-0.35,0.62C120.21,85.81,120.47,85.96,120.74,85.9L120.74,85.9z"/>
			</g>
		</g>
		<g>
			<g>
				<path d="M121.14,82.66c0.78-0.1,1.56-0.19,2.34-0.29c0.26-0.03,0.51-0.21,0.5-0.5c-0.01-0.24-0.22-0.53-0.5-0.5
					c-0.78,0.1-1.56,0.19-2.34,0.29c-0.26,0.03-0.51,0.21-0.5,0.5C120.65,82.41,120.87,82.7,121.14,82.66L121.14,82.66z"/>
			</g>
		</g>
		<g>
			<g>
				<path d="M123.62,87.02c0.73-0.22,1.46-0.4,2.21-0.55c0.26-0.05,0.43-0.37,0.35-0.62c-0.09-0.27-0.34-0.4-0.62-0.35
					c-0.74,0.15-1.48,0.33-2.21,0.55c-0.25,0.07-0.43,0.35-0.35,0.62C123.09,86.93,123.35,87.1,123.62,87.02L123.62,87.02z"/>
			</g>
		</g>
		<g>
			<g>
				<path d="M123.05,82.22c0.78,1.23,1.47,2.52,2.13,3.82c0.12,0.24,0.46,0.31,0.68,0.18c0.24-0.14,0.3-0.44,0.18-0.68
					c-0.66-1.3-1.34-2.59-2.13-3.82c-0.15-0.23-0.44-0.32-0.68-0.18C123,81.67,122.9,82,123.05,82.22L123.05,82.22z"/>
			</g>
		</g>
		<g>
			<g>
				<path d="M121.56,82.6c0.91,1.26,1.74,2.58,2.49,3.93c0.31,0.56,1.18,0.06,0.86-0.5c-0.75-1.36-1.58-2.68-2.49-3.93
					c-0.16-0.22-0.44-0.33-0.68-0.18C121.52,82.05,121.4,82.38,121.56,82.6L121.56,82.6z"/>
			</g>
		</g>
		<g>
			<g>
				<path d="M86.66,81.53c0.9,0.24,1.83,0.37,2.76,0.39c0.26,0.01,0.51-0.23,0.5-0.5c-0.01-0.28-0.22-0.49-0.5-0.5
					c-0.22-0.01-0.43-0.02-0.65-0.03c-0.11-0.01-0.22-0.02-0.32-0.03c-0.06-0.01-0.12-0.01-0.17-0.02
					c-0.11-0.01,0.05,0.01-0.07-0.01c-0.43-0.06-0.86-0.15-1.28-0.26c-0.25-0.07-0.55,0.08-0.62,0.35
					C86.25,81.18,86.39,81.46,86.66,81.53L86.66,81.53z"/>
			</g>
		</g>
		<g>
			<g>
				<path d="M86.38,86.11c0.21,0,0.42,0.02,0.63,0.04c0.05,0,0.09,0.01,0.13,0.02c-0.11-0.01,0.02,0,0.05,0.01
					c0.1,0.02,0.21,0.04,0.31,0.06c0.4,0.08,0.79,0.2,1.17,0.35c0.24,0.1,0.56-0.11,0.62-0.35c0.07-0.29-0.09-0.51-0.35-0.62
					c-0.81-0.33-1.69-0.49-2.56-0.51c-0.26,0-0.51,0.23-0.5,0.5C85.9,85.89,86.1,86.11,86.38,86.11L86.38,86.11z"/>
			</g>
		</g>
		<g>
			<g>
				<path d="M88.66,81.85c-0.04,0.66-0.12,1.17-0.22,1.82c-0.11,0.76-0.2,1.51-0.24,2.28c-0.01,0.27,0.24,0.5,0.5,0.5
					c0.28,0,0.49-0.23,0.5-0.5c0.07-1.39,0.37-2.7,0.46-4.1c0.02-0.27-0.24-0.5-0.5-0.5C88.87,81.35,88.68,81.58,88.66,81.85
					L88.66,81.85z"/>
			</g>
		</g>
		<g>
			<g>
				<path d="M86.8,81.76c-0.12,1.26-0.23,2.53-0.35,3.79c-0.03,0.27,0.25,0.5,0.5,0.5c0.29,0,0.47-0.23,0.5-0.5
					c0.12-1.26,0.23-2.53,0.35-3.79c0.03-0.27-0.25-0.5-0.5-0.5C87.01,81.26,86.83,81.49,86.8,81.76L86.8,81.76z"/>
			</g>
		</g>
		<g>
			<g>
				<path d="M89.83,86.74c0.46,0.07,0.93,0.14,1.39,0.22c0.14,0.02,0.26,0.02,0.39-0.05c0.1-0.06,0.2-0.18,0.23-0.3
					c0.03-0.13,0.02-0.27-0.05-0.39c-0.07-0.1-0.17-0.21-0.3-0.23c-0.46-0.07-0.93-0.14-1.39-0.22c-0.14-0.02-0.26-0.02-0.39,0.05
					c-0.1,0.06-0.2,0.18-0.23,0.3c-0.03,0.13-0.02,0.27,0.05,0.39C89.6,86.61,89.71,86.72,89.83,86.74L89.83,86.74z"/>
			</g>
		</g>
		<g>
			<g>
				<path d="M91.08,85.37c-0.06,0.33-0.08,0.67-0.12,1c0.01-0.04,0.01-0.09,0.02-0.13c-0.01,0.04-0.01,0.08-0.02,0.11
					c-0.02,0.14-0.02,0.26,0.05,0.39c0.06,0.1,0.18,0.2,0.3,0.23c0.13,0.03,0.27,0.02,0.39-0.05c0.1-0.07,0.21-0.17,0.23-0.3
					c0.06-0.33,0.08-0.67,0.12-1c-0.01,0.04-0.01,0.09-0.02,0.13c0.01-0.04,0.01-0.08,0.02-0.11c0.02-0.14,0.02-0.26-0.05-0.39
					c-0.06-0.1-0.18-0.2-0.3-0.23c-0.13-0.03-0.27-0.02-0.39,0.05C91.2,85.14,91.1,85.24,91.08,85.37L91.08,85.37z"/>
			</g>
		</g>
		<g>
			<g>
				<path d="M82.92,79.51c-1.11-0.37-2.34,0.04-2.89,1.11c-0.56,1.08-0.34,2.38,0.46,3.28c0.57,0.64,1.39,1.02,2.21,1.22
					c0.63,0.15,0.89-0.82,0.27-0.96c-0.34-0.08-0.65-0.18-0.93-0.32c-0.13-0.07-0.26-0.14-0.39-0.23c-0.02-0.02-0.17-0.13-0.11-0.08
					c-0.06-0.05-0.12-0.1-0.17-0.15c-0.09-0.09-0.18-0.18-0.26-0.28c0.06,0.08-0.02-0.03-0.04-0.06c-0.04-0.06-0.08-0.12-0.12-0.19
					c-0.03-0.05-0.05-0.1-0.08-0.16c-0.01-0.02-0.02-0.05-0.03-0.07c0.04,0.1,0.02,0.04,0.01,0.01c-0.04-0.12-0.08-0.24-0.1-0.36
					c-0.01-0.05-0.02-0.1-0.03-0.14c0.02,0.15,0-0.03,0-0.06c-0.01-0.11,0-0.22,0-0.34c0.01-0.15-0.02,0.06,0.01-0.06
					c0.01-0.05,0.02-0.1,0.03-0.15c0.03-0.11,0.06-0.21,0.1-0.31c0.03-0.07-0.06,0.11,0,0.01c0.01-0.02,0.02-0.04,0.03-0.06
					c0.02-0.04,0.05-0.09,0.07-0.13c0.03-0.04,0.05-0.08,0.08-0.13c0.07-0.11-0.05,0.04,0.04-0.05c0.07-0.07,0.13-0.14,0.21-0.21
					c0.09-0.08-0.04,0.01,0.03-0.02c0.05-0.03,0.09-0.06,0.14-0.09c0.03-0.01,0.18-0.09,0.12-0.06c-0.07,0.03,0.09-0.03,0.11-0.04
					c0.06-0.02,0.12-0.03,0.18-0.04c0.13-0.03-0.06,0,0.08-0.01c0.12,0,0.25,0,0.37,0.01c-0.13-0.01,0.07,0.02,0.1,0.02
					c0.08,0.02,0.16,0.04,0.24,0.07C83.26,80.68,83.52,79.71,82.92,79.51L82.92,79.51z"/>
			</g>
		</g>
		<g>
			<g>
				<path d="M83.79,80.75c0.17,0.04,0.33,0.08,0.49,0.13c0.18,0.06,0.18,0.06,0.35,0.14c0.12,0.06,0.24,0.13,0.35,0.21
					c0.02,0.01,0.07,0.06,0,0c0.02,0.02,0.04,0.04,0.06,0.05c0.05,0.05,0.1,0.09,0.15,0.14c0.04,0.04,0.07,0.08,0.11,0.12
					c0.08,0.1-0.04-0.06,0.01,0.01c0.01,0.02,0.03,0.04,0.04,0.06c0.07,0.1,0.12,0.2,0.17,0.31c-0.05-0.1,0,0.01,0.02,0.05
					c0.02,0.05,0.03,0.1,0.05,0.16c0.01,0.05,0.02,0.11,0.04,0.16c0.01,0.02,0.01,0.05,0.01,0.07c-0.02-0.14,0-0.02,0,0.01
					c0.01,0.1,0.01,0.2,0.01,0.3c0,0.05-0.01,0.11-0.01,0.16c0,0.03-0.02,0.1,0-0.03c-0.01,0.04-0.01,0.07-0.02,0.11
					c-0.02,0.09-0.04,0.19-0.07,0.28c-0.02,0.05-0.03,0.1-0.05,0.15c-0.01,0.03-0.02,0.05-0.03,0.08c-0.03,0.09,0.03-0.06,0-0.01
					c-0.04,0.09-0.09,0.18-0.14,0.26c-0.03,0.04-0.05,0.09-0.08,0.13c-0.02,0.02-0.03,0.05-0.05,0.07
					c-0.05,0.08,0.05-0.05,0.01-0.01c-0.06,0.07-0.12,0.14-0.19,0.21c-0.03,0.03-0.07,0.06-0.11,0.1c-0.01,0.01-0.07,0.06-0.01,0.01
					c0.07-0.05-0.02,0.02-0.04,0.03c-0.04,0.03-0.09,0.06-0.13,0.08c-0.02,0.01-0.17,0.08-0.09,0.05c0.07-0.03-0.07,0.02-0.09,0.03
					c-0.05,0.01-0.1,0.02-0.14,0.03c-0.06,0.02,0.11-0.01,0.05-0.01c-0.03,0-0.06,0.01-0.09,0.01c-0.05,0-0.1,0-0.15,0
					c-0.09,0,0.1,0.03-0.05-0.01c-0.06-0.02-0.11-0.03-0.17-0.05c-0.25-0.09-0.55,0.1-0.62,0.35c-0.08,0.28,0.09,0.52,0.35,0.62
					c1.02,0.37,2.03-0.33,2.51-1.21c0.54-1.01,0.54-2.27-0.19-3.19c-0.49-0.62-1.25-0.96-2.01-1.12c-0.26-0.06-0.54,0.08-0.62,0.35
					C83.37,80.38,83.53,80.69,83.79,80.75L83.79,80.75z"/>
			</g>
		</g>
		<g>
			<g>
				<path d="M84.04,80.8c-0.06,1.26-0.2,2.52-0.15,3.78c0.01,0.27,0.22,0.5,0.5,0.5c0.26,0,0.51-0.23,0.5-0.5
					c-0.04-1.26,0.09-2.52,0.15-3.78c0.01-0.27-0.24-0.5-0.5-0.5C84.25,80.3,84.05,80.53,84.04,80.8L84.04,80.8z"/>
			</g>
		</g>
		<g>
			<g>
				<path d="M81.94,80.37c-0.06,1.16-0.23,2.32-0.19,3.49c0.01,0.27,0.22,0.5,0.5,0.5c0.26,0,0.51-0.23,0.5-0.5
					c-0.04-1.17,0.13-2.33,0.19-3.49c0.01-0.27-0.24-0.5-0.5-0.5C82.16,79.87,81.95,80.1,81.94,80.37L81.94,80.37z"/>
			</g>
		</g>
		<g>
			<g>
				<path d="M78.03,79.02c0.05,0.02,0.09,0.04,0.14,0.05c-0.04-0.02-0.08-0.03-0.12-0.05c0.22,0.09,0.42,0.21,0.61,0.35
					c-0.03-0.03-0.07-0.05-0.1-0.08c0.12,0.09,0.23,0.19,0.32,0.31c-0.03-0.03-0.05-0.07-0.08-0.1c0.07,0.09,0.12,0.18,0.16,0.27
					c-0.02-0.04-0.03-0.08-0.05-0.12c0.03,0.08,0.06,0.17,0.07,0.26c-0.01-0.04-0.01-0.09-0.02-0.13c0,0.02,0,0.04,0.01,0.05
					c0.01,0.14,0.05,0.25,0.15,0.35c0.09,0.09,0.23,0.15,0.35,0.15c0.13-0.01,0.26-0.05,0.35-0.15c0.09-0.09,0.16-0.22,0.15-0.35
					c-0.02-0.25-0.08-0.47-0.21-0.69c-0.1-0.17-0.23-0.33-0.38-0.46c-0.32-0.28-0.69-0.48-1.08-0.63c-0.12-0.04-0.28-0.01-0.39,0.05
					c-0.1,0.06-0.2,0.18-0.23,0.3c-0.03,0.13-0.02,0.27,0.05,0.39C77.81,78.9,77.91,78.97,78.03,79.02L78.03,79.02z"/>
			</g>
		</g>
		<g>
			<g>
				<path d="M77.76,83.46c0.36-0.09,0.72-0.24,1.01-0.46c0.33-0.25,0.62-0.57,0.69-0.99c0.02-0.11,0.02-0.22-0.04-0.31
					c-0.05-0.08-0.15-0.17-0.24-0.19c-0.2-0.05-0.46,0.06-0.5,0.29c-0.01,0.04-0.02,0.07-0.03,0.11c-0.01,0.02-0.01,0.04-0.02,0.05
					c-0.01,0.04-0.04,0.07,0.01-0.03c-0.04,0.07-0.07,0.13-0.11,0.19c-0.04,0.06,0.07-0.08,0.02-0.02
					c-0.01,0.01-0.02,0.03-0.04,0.04c-0.02,0.03-0.05,0.05-0.07,0.08c-0.03,0.03-0.06,0.05-0.09,0.08
					c-0.01,0.01-0.07,0.06-0.01,0.01c0.06-0.05,0,0-0.01,0.01c-0.13,0.09-0.27,0.17-0.41,0.23c-0.03,0.01-0.1,0.04,0.02-0.01
					c-0.02,0.01-0.04,0.02-0.06,0.02c-0.04,0.01-0.08,0.03-0.11,0.04c-0.07,0.03-0.15,0.05-0.23,0.07c-0.21,0.05-0.35,0.29-0.29,0.5
					C77.33,83.38,77.54,83.52,77.76,83.46L77.76,83.46z"/>
			</g>
		</g>
		<g>
			<g>
				<path d="M79.36,78.48c-0.09,0.41-0.19,0.82-0.28,1.23c-0.03,0.13-0.02,0.27,0.05,0.39c0.06,0.1,0.18,0.2,0.3,0.23
					c0.13,0.03,0.27,0.02,0.39-0.05c0.11-0.07,0.2-0.17,0.23-0.3c0.09-0.41,0.19-0.82,0.28-1.23c0.03-0.13,0.02-0.27-0.05-0.39
					c-0.06-0.1-0.18-0.2-0.3-0.23c-0.13-0.03-0.27-0.02-0.39,0.05C79.48,78.25,79.39,78.35,79.36,78.48L79.36,78.48z"/>
			</g>
		</g>
		<g>
			<g>
				<path d="M78.57,82.01c-0.02,0.42-0.04,0.84-0.05,1.26c-0.01,0.26,0.24,0.51,0.5,0.5c0.28-0.01,0.49-0.22,0.5-0.5
					c0.02-0.42,0.04-0.84,0.05-1.26c0.01-0.26-0.24-0.51-0.5-0.5C78.79,81.53,78.58,81.73,78.57,82.01L78.57,82.01z"/>
			</g>
		</g>
		<g>
			<g>
				<path d="M77.2,77.76c-1.23-0.3-2.63-0.01-3.28,1.19c-0.57,1.05-0.34,2.35,0.47,3.2c0.55,0.58,1.33,0.9,2.11,1.03
					c0.27,0.04,0.54-0.07,0.62-0.35c0.07-0.24-0.08-0.57-0.35-0.62c-0.16-0.03-0.32-0.06-0.47-0.1c-0.08-0.02-0.16-0.05-0.24-0.07
					c-0.03-0.01-0.06-0.02-0.09-0.03c0,0-0.15-0.06-0.06-0.02c-0.12-0.05-0.24-0.12-0.36-0.19c-0.06-0.04-0.12-0.08-0.18-0.12
					c-0.02-0.01-0.08-0.06,0,0c-0.03-0.03-0.06-0.05-0.09-0.08c-0.09-0.08-0.17-0.16-0.25-0.25c-0.02-0.02-0.03-0.04-0.05-0.06
					c-0.08-0.09,0.04,0.06,0,0c-0.04-0.06-0.08-0.11-0.11-0.17c-0.03-0.05-0.05-0.1-0.08-0.14c-0.02-0.03-0.08-0.19-0.03-0.06
					c-0.04-0.11-0.08-0.22-0.11-0.34c-0.01-0.05-0.02-0.09-0.03-0.14c-0.03-0.11,0.01,0.09,0,0.01c0-0.03-0.01-0.06-0.01-0.09
					c-0.01-0.11,0-0.22,0-0.32c0-0.03,0.01-0.06,0.01-0.08c-0.01,0.13-0.01,0.06,0,0.03c0.01-0.05,0.02-0.11,0.03-0.16
					c0.01-0.04,0.02-0.09,0.04-0.13c0.01-0.03,0.07-0.19,0.04-0.13c-0.03,0.07,0.03-0.07,0.05-0.09c0.02-0.04,0.05-0.09,0.07-0.13
					c0.03-0.04,0.06-0.08,0.08-0.12c0.05-0.07-0.01,0.01-0.02,0.02c0.02-0.03,0.04-0.05,0.07-0.08c0.04-0.04,0.08-0.08,0.12-0.12
					c0.02-0.02,0.14-0.12,0.08-0.07c-0.06,0.04,0.07-0.05,0.09-0.06c0.05-0.03,0.1-0.06,0.15-0.09c0.03-0.01,0.05-0.03,0.08-0.04
					c0.1-0.05-0.02,0.01,0.01-0.01c0.06-0.02,0.13-0.05,0.2-0.07c0.06-0.02,0.13-0.03,0.19-0.05c0.03-0.01,0.05-0.01,0.08-0.01
					c0.11-0.02-0.08,0,0.03,0c0.16,0,0.32-0.02,0.48,0c0.03,0,0.06,0.01,0.09,0.01c0.12,0.01-0.05-0.01,0.06,0.01
					c0.1,0.02,0.2,0.04,0.3,0.06C77.56,78.88,77.83,77.92,77.2,77.76L77.2,77.76z"/>
			</g>
		</g>
		<g>
			<g>
				<path d="M76.23,78.26c-0.21,1.35-0.37,2.7-0.58,4.05c-0.04,0.27,0.07,0.54,0.35,0.62c0.24,0.07,0.57-0.08,0.62-0.35
					c0.21-1.35,0.37-2.7,0.58-4.05c0.04-0.27-0.07-0.54-0.35-0.62C76.61,77.84,76.27,77.99,76.23,78.26L76.23,78.26z"/>
			</g>
		</g>
		<g>
			<g>
				<path d="M95.5,82.05c-0.68-0.14-1.38-0.09-2,0.24c-0.51,0.27-0.93,0.72-1.18,1.22c-0.53,1.04-0.49,2.41,0.39,3.26
					c0.58,0.56,1.38,0.76,2.17,0.76c0.64,0,0.64-1,0-1c-0.09,0-0.17,0-0.26-0.01c-0.03,0-0.07,0-0.1-0.01c-0.01,0-0.17-0.02-0.06,0
					c-0.15-0.02-0.29-0.05-0.43-0.1c-0.07-0.02-0.13-0.04-0.19-0.07c0.1,0.04-0.02-0.01-0.06-0.03c-0.06-0.03-0.11-0.06-0.16-0.09
					c-0.03-0.02-0.05-0.03-0.08-0.05c-0.09-0.06,0.02,0.02-0.01-0.01c-0.08-0.07-0.16-0.15-0.24-0.23c-0.09-0.1,0.03,0.06-0.05-0.06
					c-0.03-0.05-0.06-0.09-0.09-0.14c-0.03-0.05-0.05-0.1-0.08-0.15c-0.04-0.08,0.01,0.01,0.01,0.03c-0.01-0.03-0.02-0.06-0.03-0.09
					c-0.04-0.11-0.05-0.22-0.08-0.32c-0.02-0.08,0,0.02,0,0.03c0-0.03-0.01-0.06-0.01-0.08c0-0.05-0.01-0.1-0.01-0.15
					c0-0.06,0-0.11,0-0.17c0-0.04,0.02-0.21,0.01-0.14c-0.01,0.08,0.01-0.07,0.02-0.1c0.01-0.06,0.02-0.11,0.04-0.17
					c0.03-0.11,0.07-0.22,0.11-0.33c-0.05,0.14,0.02-0.04,0.04-0.07c0.03-0.05,0.05-0.1,0.08-0.15c0.02-0.04,0.05-0.08,0.07-0.12
					c0.02-0.03,0.04-0.06,0.06-0.09c0.05-0.08-0.07,0.07,0.01-0.01c0.07-0.08,0.14-0.16,0.21-0.23c0.04-0.04,0.09-0.08,0.13-0.11
					c-0.1,0.09,0.05-0.04,0.08-0.06c0.05-0.04,0.11-0.07,0.17-0.1c0.02-0.01,0.04-0.02,0.06-0.03c0.02-0.01,0.04-0.02,0.07-0.03
					c-0.06,0.02-0.07,0.03-0.04,0.02c0.13-0.05,0.26-0.09,0.39-0.11c0.03-0.01,0.06-0.01,0.09-0.02c-0.13,0.02,0,0,0.02,0
					c0.07,0,0.15-0.01,0.22-0.01c0.08,0,0.15,0.01,0.23,0.01c0.1,0.01,0.02,0,0,0c0.06,0.01,0.12,0.02,0.18,0.03
					c0.26,0.05,0.54-0.08,0.62-0.35C95.91,82.42,95.76,82.11,95.5,82.05L95.5,82.05z"/>
			</g>
		</g>
		<g>
			<g>
				<path d="M94.06,82.5c-0.21,1.44-0.32,2.88-0.3,4.33c0.01,0.64,1.01,0.64,1,0c-0.02-1.36,0.07-2.72,0.27-4.07
					c0.04-0.27-0.07-0.54-0.35-0.62C94.44,82.09,94.1,82.23,94.06,82.5L94.06,82.5z"/>
			</g>
		</g>
		<g>
			<g>
				<path d="M96.47,83.25c0.13-0.01,0.27-0.02,0.4-0.02c0.06,0,0.12,0.01,0.18,0.01c-0.13-0.02,0.08,0.02,0.12,0.03
					c0.05,0.01,0.09,0.03,0.13,0.04c0.14,0.04-0.05-0.04,0.07,0.03c0.04,0.02,0.09,0.05,0.13,0.07c0.04,0.02,0.18,0.14,0.07,0.04
					c0.07,0.06,0.14,0.13,0.21,0.2c0.09,0.1-0.04-0.07,0.04,0.05c0.03,0.04,0.06,0.09,0.09,0.14c0.03,0.05,0.05,0.1,0.08,0.14
					c0.06,0.12-0.02-0.07,0.03,0.06c0.04,0.11,0.07,0.21,0.09,0.32c0.01,0.04,0.02,0.09,0.03,0.13c0.03,0.11-0.01-0.12,0,0
					c0,0.02,0,0.05,0.01,0.07c0.01,0.11,0.01,0.23,0.01,0.34c0,0.06-0.01,0.11-0.01,0.17c-0.01,0.06-0.02,0.15,0,0.04
					c-0.02,0.12-0.04,0.24-0.08,0.35c-0.01,0.05-0.03,0.1-0.05,0.15c-0.01,0.03-0.09,0.21-0.02,0.07c-0.05,0.1-0.1,0.2-0.15,0.3
					c-0.03,0.04-0.06,0.08-0.08,0.13c-0.06,0.1,0.06-0.06-0.03,0.04c-0.07,0.08-0.15,0.16-0.23,0.23c-0.01,0.01-0.09,0.07-0.03,0.02
					c0.07-0.05-0.03,0.02-0.04,0.03c-0.05,0.03-0.1,0.06-0.16,0.09c-0.02,0.01-0.04,0.02-0.06,0.03c-0.1,0.05,0,0-0.02,0.01
					c-0.06,0.02-0.12,0.04-0.18,0.06c-0.06,0.01-0.12,0.02-0.17,0.04c0.12-0.02,0.04,0,0.01,0c-0.04,0-0.09,0.01-0.13,0.01
					c-0.06,0-0.13,0-0.19,0c-0.03,0-0.07-0.01-0.1-0.01c-0.04,0-0.03,0,0.03,0c-0.03,0-0.06-0.01-0.08-0.01
					c-0.27-0.05-0.54,0.07-0.62,0.35c-0.07,0.24,0.08,0.57,0.35,0.62c0.62,0.11,1.28,0.06,1.82-0.3c0.5-0.33,0.84-0.81,1.04-1.37
					c0.38-1.01,0.24-2.33-0.56-3.1c-0.51-0.49-1.22-0.68-1.92-0.6c-0.27,0.03-0.5,0.21-0.5,0.5C95.97,83,96.2,83.28,96.47,83.25
					L96.47,83.25z"/>
			</g>
		</g>
		<g>
			<g>
				<path d="M96.31,83.2c-0.05,1.24-0.06,2.48-0.04,3.73c0.01,0.64,1.01,0.64,1,0c-0.02-1.24,0-2.49,0.04-3.73
					c0.01-0.27-0.24-0.5-0.5-0.5C96.53,82.7,96.32,82.93,96.31,83.2L96.31,83.2z"/>
			</g>
		</g>
		<g>
			<g>
				<path d="M100.81,40.26c-4.7-0.22-9.4-0.5-14.11-0.62c-3.9-0.1-7.86-0.13-11.73,0.42c-2.21,0.31-5.13,0.83-6.51,2.8
					c-0.7,0.99-0.87,2.32-0.02,3.25c0.72,0.79,1.79,1.24,2.76,1.63c1.49,0.59,3.05,1.01,4.61,1.37c4.42,1.02,8.94,1.61,13.44,2.08
					c5.35,0.56,10.72,0.89,16.1,1.04c5.08,0.14,10.17,0.13,15.23-0.21c3.62-0.24,7.41-0.52,10.87-1.67
					c1.62-0.54,4.07-1.64,3.34-3.79c-0.32-0.95-1.18-1.6-2.02-2.06c-1.46-0.79-3.11-1.23-4.71-1.6c-6.48-1.48-13.25-1.89-19.87-2.31
					c-2.45-0.16-4.91-0.29-7.37-0.4c-0.64-0.03-0.64,0.97,0,1c7.74,0.37,15.56,0.75,23.23,1.97c2.08,0.33,4.17,0.72,6.17,1.37
					c1.08,0.35,2.33,0.84,3.08,1.56c0.18,0.18,0.26,0.26,0.34,0.39c0.05,0.07,0.09,0.15,0.13,0.22c0.09,0.16,0.01-0.02,0.07,0.15
					c0.11,0.34,0.12,0.54,0.05,0.77c-0.03,0.11-0.06,0.16-0.04,0.11c-0.04,0.07-0.08,0.14-0.12,0.21c-0.07,0.12,0.02,0-0.1,0.13
					c-0.06,0.07-0.13,0.13-0.2,0.2c-0.22,0.21-0.69,0.48-1.09,0.67c-1.08,0.51-2.45,0.85-3.69,1.1c-1.79,0.36-3.6,0.59-5.41,0.76
					c-4.66,0.44-9.34,0.53-14.02,0.49c-5.23-0.05-10.46-0.29-15.67-0.72c-4.69-0.38-9.39-0.9-14.02-1.74
					c-3.03-0.55-6.36-1.13-9.08-2.54c-0.41-0.21-0.85-0.49-1.08-0.71c-0.06-0.06-0.13-0.12-0.19-0.18
					c-0.12-0.12-0.09-0.09-0.11-0.13c-0.04-0.06-0.08-0.12-0.11-0.19c-0.05-0.1,0.01,0.05-0.05-0.12c-0.04-0.14-0.02-0.08-0.02-0.09
					c-0.01-0.14,0-0.29,0.02-0.44c0.05-0.39,0.21-0.76,0.44-1.08c0.56-0.76,1.5-1.21,2.37-1.52c2.98-1.07,6.33-1.16,9.47-1.22
					c4.31-0.09,8.62,0.11,12.93,0.31c2.24,0.11,4.48,0.22,6.72,0.33C101.45,41.29,101.45,40.29,100.81,40.26L100.81,40.26z"/>
			</g>
		</g>
		<g>
			<g>
				<path d="M68.03,44.13C70,49.99,70.7,56.25,71.05,62.4c0.38,6.58,0.29,13.19,0,19.78c-0.23,5.22-0.62,10.43-1,15.65
					c-0.1,1.44-0.23,2.88-0.25,4.32c-0.01,0.36-0.03,0.76,0.06,1.11c0.16,0.63,1.02,0.84,1.54,1.08c5.2,2.4,11.06,3.35,16.71,3.96
					c6.75,0.73,13.58,0.82,20.35,0.37c5.7-0.38,11.57-1.05,17.01-2.9c0.53-0.18,1.05-0.37,1.56-0.58c0.32-0.13,0.68-0.21,0.8-0.57
					c0.09-0.28,0.04-0.64,0.02-0.93c-0.08-1.52-0.23-3.05-0.32-4.57c-0.39-6.13-0.4-12.28,0.03-18.4
					c0.62-8.88,2.16-17.72,4.79-26.23c0.72-2.34,1.53-4.66,2.42-6.94c0.23-0.6-0.73-0.86-0.96-0.27
					c-3.35,8.62-5.49,17.66-6.62,26.83c-0.85,6.9-1.12,13.86-0.87,20.81c0.08,2.17,0.21,4.34,0.37,6.51
					c0.05,0.65,0.1,1.31,0.14,1.96c0.02,0.31-0.04,0.72,0.03,1.02c-0.01-0.06,0-0.06,0.04-0.14c0.09-0.17,0.24-0.18-0.02-0.08
					c-0.12,0.04-0.24,0.1-0.36,0.15c-0.51,0.2-1.02,0.39-1.54,0.56c-1.18,0.39-2.38,0.71-3.59,1c-2.8,0.66-5.65,1.09-8.51,1.41
					c-6.62,0.73-13.32,0.84-19.96,0.43c-6.03-0.37-12.18-1.12-17.94-3.03c-1.14-0.38-2.27-0.81-3.35-1.32
					c-0.25-0.12-0.5-0.24-0.74-0.37c-0.04-0.02-0.1-0.06-0.14-0.08c-0.22-0.06-0.03-0.06-0.01,0.02c-0.01-0.02,0.11,0.09,0.05,0.06
					c0.17,0.1-0.04,0.1,0.01-0.01c0.03-0.06,0,0.09-0.01-0.06c-0.07-1.07,0.04-2.17,0.11-3.24c0.31-4.64,0.69-9.27,0.95-13.92
					c0.35-6.41,0.54-12.83,0.35-19.24c-0.18-6.28-0.67-12.63-2.13-18.75c-0.31-1.32-0.68-2.62-1.11-3.9
					C68.79,43.25,67.82,43.51,68.03,44.13L68.03,44.13z"/>
			</g>
		</g>
		<g>
			<g>
				<path d="M73.21,104.89c-0.01,0.01-0.36,0.01-0.36,0c0,0.01,0.07,0.06,0.07,0.08c0.02,0.08,0.13,0.18,0.18,0.25
					c0.19,0.29,0.35,0.6,0.5,0.91c0.42,0.84,0.78,1.71,1.11,2.59c0.24,0.63,0.28,1.52,0.96,1.83c0.8,0.36,1.82,0.39,2.68,0.49
					c3.78,0.44,7.59,0.6,11.39,0.77c4.92,0.22,9.84,0.37,14.76,0.46c3.99,0.07,7.98,0.13,11.97,0.01c1.05-0.03,2.14-0.04,3.18-0.22
					c0.36-0.06,0.61-0.15,0.8-0.49c0.61-1.15,1.17-2.31,1.88-3.41c0.45-0.7,0.94-1.38,1.52-1.98c0.45-0.47-0.27-1.19-0.72-0.72
					c-1.11,1.16-1.97,2.56-2.73,3.97c-0.27,0.5-0.53,1.01-0.78,1.52c-0.01,0.02-0.13,0.24-0.12,0.25c-0.13-0.12,0.44-0.17,0.17-0.18
					c-0.38-0.01-0.44,0.09-0.85,0.12c-0.56,0.05-1.12,0.08-1.67,0.1c-3.82,0.15-7.66,0.1-11.48,0.04c-4.9-0.07-9.81-0.21-14.71-0.42
					c-3.97-0.17-7.96-0.34-11.92-0.75c-0.99-0.1-1.88-0.18-2.85-0.44c-0.06-0.02-0.11-0.04-0.17-0.06c0.19,0.06,0,0.02-0.03-0.02
					c0.02,0.03,0.18,0.11,0.16,0.22c0.02-0.13-0.13-0.41-0.17-0.53c-0.09-0.27-0.19-0.55-0.29-0.82c-0.51-1.37-1.05-3-2-4.14
					c-0.24-0.28-0.64-0.57-1-0.31C72.17,104.4,72.68,105.28,73.21,104.89L73.21,104.89z"/>
			</g>
		</g>
		<g>
			<g>
				<path d="M129.13,70.38c3.54-2.95,7.65-5.91,12.24-6.92c2.32-0.51,5.12-0.38,6.69,1.65c1.52,1.97,1.32,4.78,0.68,7.05
					c-1.03,3.66-3.36,6.89-6.01,9.57c-3.79,3.83-8.47,6.7-13.4,8.83c-0.77,0.33-1.54,0.64-2.33,0.94c-0.6,0.23-0.34,1.19,0.27,0.96
					c5.5-2.08,10.75-4.98,15.09-8.98c3.04-2.81,5.72-6.25,7.08-10.21c0.89-2.58,1.26-5.74-0.21-8.19c-1.4-2.34-4.13-3.09-6.72-2.81
					c-4.54,0.5-8.71,3.2-12.25,5.92c-0.63,0.48-1.24,0.98-1.85,1.48C127.93,70.09,128.64,70.79,129.13,70.38L129.13,70.38z"/>
			</g>
		</g>
		<g>
			<g>
				<path d="M129.9,63.58c3.62-2.93,8.03-5.34,12.76-5.62c3.31-0.19,6.71,0.76,9.08,3.17c2.31,2.36,3.17,5.68,2.83,8.91
					c-0.48,4.52-3.13,8.59-6.19,11.8c-4.98,5.22-11.47,8.87-18.05,11.66c-1.06,0.45-2.12,0.87-3.19,1.28
					c-0.6,0.23-0.34,1.19,0.27,0.96c7.32-2.78,14.58-6.44,20.33-11.85c3.56-3.35,6.7-7.61,7.64-12.5c0.68-3.54,0.08-7.28-2.2-10.15
					c-2.2-2.77-5.65-4.19-9.14-4.31c-4.73-0.15-9.31,1.89-13.08,4.59c-0.6,0.43-1.18,0.88-1.75,1.34
					C128.69,63.28,129.4,63.98,129.9,63.58L129.9,63.58z"/>
			</g>
		</g>
		<g class="st7">
			<path d="M69.99,47.81c2.24,10.5,2.62,21.38,5.65,31.67c3.14,10.65,9.13,20.45,17.18,28.11c-7.17-0.77-14.27-2.23-21.17-4.34
				c-0.3-0.09-0.62-0.2-0.78-0.47c-0.17-0.27-0.11-0.62-0.06-0.93c1.01-5.58,0.94-11.3,0.85-16.98c-0.11-8-0.23-16-0.34-24
				c-0.05-3.8-0.12-7.67-1.23-11.3"/>
			<g>
				<path d="M69.51,47.94c1.91,9,2.47,18.23,4.5,27.21c1.82,8.02,5.06,15.65,9.69,22.45c2.55,3.74,5.49,7.21,8.77,10.34
					c0.12-0.28,0.24-0.57,0.35-0.85c-4.9-0.53-9.76-1.38-14.55-2.54c-1.17-0.28-2.33-0.58-3.49-0.9c-0.58-0.16-1.16-0.32-1.73-0.49
					c-0.27-0.08-0.54-0.16-0.81-0.24c-0.25-0.07-0.66-0.12-0.86-0.31c-0.32-0.3,0.03-1.3,0.09-1.7c0.09-0.6,0.18-1.21,0.25-1.82
					c0.15-1.25,0.26-2.5,0.33-3.75c0.29-4.92,0.12-9.87,0.05-14.8c-0.07-5.03-0.14-10.06-0.21-15.09
					c-0.08-5.31,0.23-10.87-1.32-16.01c-0.18-0.61-1.15-0.35-0.96,0.27c1.44,4.79,1.2,9.93,1.27,14.88
					c0.07,5.16,0.15,10.31,0.22,15.47c0.07,5.13,0.26,10.28-0.05,15.41c-0.08,1.25-0.18,2.5-0.34,3.75
					c-0.08,0.64-0.17,1.28-0.28,1.91c-0.09,0.51-0.27,1.11-0.12,1.63c0.26,0.92,1.47,1.07,2.24,1.3c1.19,0.35,2.39,0.68,3.59,1
					c5.48,1.43,11.05,2.43,16.68,3.04c0.44,0.05,0.65-0.57,0.35-0.85c-5.77-5.5-10.46-12.07-13.82-19.3
					C75.68,80,74.11,71.48,72.9,62.88c-0.71-5.08-1.36-10.18-2.43-15.21C70.34,47.05,69.37,47.31,69.51,47.94L69.51,47.94z"/>
			</g>
		</g>
		<g class="st7">
			<path d="M75.39,106.12c14.42,3.55,29.37,5.31,44.18,4.12c-2.69,0.21-5.39,0.42-8.08,0.63c-11.62,0.9-23.44,1.8-34.82-0.74
				c-0.58-1.27-0.91-2.65-0.97-4.04"/>
			<g>
				<path d="M75.25,106.6c11.27,2.77,22.84,4.46,34.45,4.51c3.29,0.01,6.58-0.11,9.86-0.37c0.64-0.05,0.64-1.05,0-1
					c-11.1,0.86-22.33,2.15-33.46,1.27c-3.13-0.25-6.24-0.69-9.3-1.36c0.1,0.08,0.2,0.15,0.3,0.23c-0.53-1.2-0.83-2.48-0.9-3.79
					c-0.03-0.64-1.03-0.64-1,0c0.07,1.38,0.34,2.83,0.95,4.09c0.31,0.63,1.17,0.6,1.79,0.73c0.78,0.15,1.56,0.29,2.35,0.42
					c3.11,0.49,6.25,0.77,9.39,0.89c6.32,0.24,12.64-0.15,18.94-0.63c3.65-0.28,7.3-0.57,10.95-0.85c0-0.33,0-0.67,0-1
					c-11.53,0.91-23.15,0.07-34.51-2.04c-3.2-0.59-6.38-1.29-9.54-2.06C74.9,105.48,74.63,106.45,75.25,106.6L75.25,106.6z"/>
			</g>
		</g>
	</g>
</g>
<g id="Ebene_24">
	<g>
		<path class="st15" d="M75.29,47.89c16.97,2.94,34.01,4.29,51.75,2.48c-26.53-7.53-50.55-2.94-51.75-2.52"/>
		<g>
			<path class="st15" d="M75.18,48.29c13.25,2.29,26.68,3.62,40.13,3.25c3.92-0.11,7.83-0.36,11.73-0.76
				c0.45-0.05,0.6-0.69,0.11-0.82c-9.36-2.64-19.07-4.01-28.79-4.26c-6.43-0.17-12.91,0.12-19.28,1.03
				c-1.27,0.18-2.68,0.29-3.9,0.71c-0.51,0.17-0.29,0.98,0.22,0.81c0.98-0.33,2.09-0.44,3.11-0.59c2.47-0.38,4.96-0.64,7.45-0.82
				c7.99-0.6,16.05-0.41,24,0.55c5.73,0.69,11.41,1.82,16.97,3.39c0.04-0.27,0.07-0.55,0.11-0.82c-13.46,1.36-27.02,0.93-40.42-0.77
				c-3.75-0.47-7.49-1.05-11.22-1.69C74.87,47.39,74.64,48.2,75.18,48.29L75.18,48.29z"/>
		</g>
	</g>
</g>
<g id="Ebene_25">
	<g>
		<g>
			<path d="M90.42,11.46c1.32,0.45,3.04,1.08,3.64,2.46c0.79,1.83-1.02,3.51-2.04,4.8c-0.98,1.24-1.75,2.71-1.29,4.33
				c0.39,1.36,1.44,2.39,2.27,3.48c0.51,0.66,1,1.4,1.14,2.24c0.17,1.02-0.14,2.07-0.82,2.85c-0.42,0.48,0.28,1.19,0.71,0.71
				c1.17-1.35,1.48-3.2,0.74-4.84c-0.67-1.49-1.99-2.55-2.77-3.97c-1.03-1.9,0.22-3.5,1.43-4.95c1.16-1.39,2.34-3.18,1.55-5.05
				c-0.73-1.7-2.66-2.48-4.29-3.04C90.08,10.29,89.82,11.26,90.42,11.46L90.42,11.46z"/>
		</g>
	</g>
	<g>
		<g>
			<path d="M108.42,11.46c1.32,0.45,3.04,1.08,3.64,2.46c0.79,1.83-1.02,3.51-2.04,4.8c-0.98,1.24-1.75,2.71-1.29,4.33
				c0.39,1.36,1.44,2.39,2.27,3.48c0.51,0.66,1,1.4,1.14,2.24c0.17,1.02-0.14,2.07-0.82,2.85c-0.42,0.48,0.28,1.19,0.71,0.71
				c1.17-1.35,1.48-3.2,0.74-4.84c-0.67-1.49-1.99-2.55-2.77-3.97c-1.03-1.9,0.22-3.5,1.43-4.95c1.16-1.39,2.34-3.18,1.55-5.05
				c-0.73-1.7-2.66-2.48-4.29-3.04C108.08,10.29,107.82,11.26,108.42,11.46L108.42,11.46z"/>
		</g>
	</g>
	<g>
		<g>
			<path d="M98.93,11.46c1.32,0.45,3.04,1.08,3.64,2.46c0.79,1.83-1.02,3.51-2.04,4.8c-0.98,1.24-1.75,2.71-1.29,4.33
				c0.39,1.36,1.44,2.39,2.27,3.48c0.51,0.66,1,1.4,1.14,2.24c0.17,1.02-0.14,2.07-0.82,2.85c-0.42,0.48,0.28,1.19,0.71,0.71
				c1.17-1.35,1.48-3.2,0.74-4.84c-0.67-1.49-1.99-2.55-2.77-3.97c-1.03-1.9,0.22-3.5,1.43-4.95c1.16-1.39,2.34-3.18,1.55-5.05
				c-0.73-1.7-2.66-2.48-4.29-3.04C98.59,10.29,98.33,11.26,98.93,11.46L98.93,11.46z"/>
		</g>
	</g>
	<g>
		<g>
			<path d="M98.93,11.46c1.32,0.45,3.04,1.08,3.64,2.46c0.79,1.83-1.02,3.51-2.04,4.8c-0.98,1.24-1.75,2.71-1.29,4.33
				c0.39,1.36,1.44,2.39,2.27,3.48c0.51,0.66,1,1.4,1.14,2.24c0.17,1.02-0.14,2.07-0.82,2.85c-0.42,0.48,0.28,1.19,0.71,0.71
				c1.17-1.35,1.48-3.2,0.74-4.84c-0.67-1.49-1.99-2.55-2.77-3.97c-1.03-1.9,0.22-3.5,1.43-4.95c1.16-1.39,2.34-3.18,1.55-5.05
				c-0.73-1.7-2.66-2.48-4.29-3.04C98.59,10.29,98.33,11.26,98.93,11.46L98.93,11.46z"/>
		</g>
	</g>
</g>
<g id="Ebene_27">
	<g class="st16">
		<path d="M30.48,33.75c-4.96,3.19-9.41,7.49-11.6,12.97S17.14,58.94,21,63.4c1.93,2.23,4.55,3.75,7.24,4.96
			c3.97,1.79,8.2,2.99,12.51,3.54c-4.05,0.2-8.16,0.4-12.12-0.48c-14.19-3.17-19.63-19.11-9.29-31.18c2.52-2.95,6.32-4.58,10.04-5.7
			"/>
		<g>
			<path d="M30.23,33.32c-6.12,3.96-11.77,9.79-12.93,17.27c-0.54,3.47-0.16,7.1,1.41,10.27c1.73,3.48,4.88,5.82,8.31,7.48
				c4.32,2.09,8.97,3.43,13.72,4.06c0-0.33,0-0.67,0-1c-5.05,0.25-10.26,0.48-15.06-1.4c-3.24-1.27-6.14-3.46-8.14-6.33
				c-4.16-5.97-3.85-13.75-0.18-19.87c1.27-2.13,2.85-4.11,4.9-5.53c2.19-1.52,4.7-2.49,7.24-3.26c0.61-0.19,0.35-1.15-0.27-0.96
				c-2.36,0.72-4.71,1.61-6.81,2.92c-2.02,1.26-3.61,2.93-4.98,4.87c-2.26,3.2-3.71,6.97-3.95,10.89
				C13.06,60.09,17.18,67,23.77,70.24c5.3,2.6,11.22,2.44,16.97,2.16c0.66-0.03,0.62-0.92,0-1c-4.07-0.54-8.08-1.64-11.84-3.29
				c-3.37-1.47-6.71-3.42-8.69-6.62c-3.73-6-2.25-13.69,1.67-19.18c2.34-3.29,5.48-5.95,8.85-8.13
				C31.28,33.84,30.77,32.97,30.23,33.32L30.23,33.32z"/>
		</g>
	</g>
	<g class="st16">
		<path d="M28.45,73.17c-0.44,4.8-0.76,9.64-0.3,14.44c0.36,3.75,1.26,7.61,3.69,10.49c1.65,1.95,3.88,3.31,6.1,4.57
			c5.38,3.03,11.19,5.72,17.36,5.85c-9.64,1.4-19.44,1.71-29.15,0.9c-0.64-0.05-1.3-0.12-1.89-0.38c-1.17-0.53-1.86-1.81-2.04-3.09
			c-0.18-1.28,0.08-2.57,0.33-3.83c1.85-9.17,3.69-18.33,5.54-27.5"/>
		<g>
			<path d="M27.95,73.17c-0.35,3.82-0.63,7.66-0.49,11.5c0.11,3.27,0.45,6.64,1.65,9.7c1.2,3.07,3.28,5.38,6.02,7.18
				c2.81,1.85,5.88,3.44,8.97,4.77c3.56,1.52,7.31,2.59,11.21,2.69c-0.04-0.33-0.09-0.65-0.13-0.98c-8.58,1.24-17.29,1.61-25.95,1.1
				c-1.06-0.06-2.11-0.13-3.17-0.23c-0.97-0.09-1.87-0.29-2.51-1.07c-1.34-1.64-0.82-3.94-0.44-5.83c0.86-4.26,1.71-8.52,2.57-12.78
				c0.97-4.83,1.94-9.65,2.91-14.48c0.13-0.63-0.84-0.9-0.96-0.27c-1.82,9.04-3.64,18.09-5.46,27.13c-0.39,1.95-0.84,4.03,0.03,5.91
				c0.34,0.74,0.88,1.4,1.59,1.81c0.83,0.48,1.81,0.53,2.75,0.61c4.53,0.36,9.08,0.48,13.62,0.36c5.12-0.13,10.23-0.58,15.3-1.32
				c0.57-0.08,0.41-0.97-0.13-0.98c-6.67-0.17-12.98-3.25-18.59-6.63c-2.74-1.65-5.04-3.67-6.38-6.63c-1.31-2.91-1.7-6.18-1.85-9.33
				c-0.2-4.08,0.09-8.17,0.46-12.24C29.01,72.52,28.01,72.53,27.95,73.17L27.95,73.17z"/>
		</g>
	</g>
	<g class="st16">
		<path d="M18.43,95.97c-0.39,1.83,0.11,3.84,1.3,5.28c-0.67,0.23-1.44-0.14-1.85-0.72c-0.41-0.58-0.53-1.31-0.55-2.02
			c-0.02-0.92,0.14-1.92,0.8-2.55"/>
		<g>
			<path d="M17.95,95.83c-0.42,2.04,0.11,4.15,1.43,5.77c0.07-0.28,0.15-0.56,0.22-0.84c-1.03,0.32-1.62-0.87-1.72-1.7
				c-0.12-0.92-0.08-2.07,0.62-2.76c0.46-0.45-0.25-1.16-0.71-0.71c-1,0.98-1.09,2.58-0.85,3.88c0.13,0.7,0.45,1.38,1.01,1.83
				c0.54,0.43,1.25,0.63,1.92,0.42c0.38-0.12,0.46-0.54,0.22-0.84c-1.07-1.32-1.51-3.13-1.17-4.79c0.05-0.26-0.08-0.54-0.35-0.62
				C18.32,95.42,18.01,95.57,17.95,95.83L17.95,95.83z"/>
		</g>
	</g>
	<g class="st16">
		<path d="M32,133.53c-2.02,1.21-3.17,3.5-3.63,5.81c-0.46,2.31-0.32,4.69-0.37,7.04c-0.8-0.42-1.77-0.49-2.62-0.19
			c-0.32,0.11-0.66,0.28-0.99,0.18c-0.59-0.17-0.67-0.97-0.6-1.58c0.22-2.1,0.67-4.21,1.65-6.08s2.55-3.5,4.53-4.23"/>
		<g>
			<path d="M31.75,133.09c-4.53,2.8-4.17,8.66-4.25,13.28c0.25-0.14,0.5-0.29,0.75-0.43c-0.58-0.28-1.2-0.45-1.86-0.44
				c-0.35,0.01-0.71,0.06-1.05,0.17c-0.32,0.1-0.78,0.4-0.99,0.02c-0.28-0.52-0.01-1.48,0.07-2.01c0.12-0.78,0.28-1.56,0.5-2.33
				c0.77-2.71,2.45-5.34,5.18-6.4c0.59-0.23,0.34-1.2-0.27-0.96c-3.15,1.22-5.08,4.15-5.94,7.31c-0.24,0.88-0.4,1.77-0.52,2.67
				c-0.09,0.7-0.24,1.49,0.07,2.16c0.27,0.57,0.84,0.84,1.46,0.72c0.44-0.09,0.82-0.3,1.27-0.34c0.54-0.05,1.07,0.06,1.56,0.29
				c0.34,0.16,0.75-0.03,0.75-0.43c0.07-4.21-0.41-9.84,3.75-12.42C32.8,133.62,32.3,132.75,31.75,133.09L31.75,133.09z"/>
		</g>
	</g>
	<g class="st16">
		<path d="M48.47,133.62c-1.81,1.39-2.9,3.57-3.34,5.8c-0.45,2.24-0.3,4.55,0,6.81c-0.61-0.27-1.33-0.27-1.93-0.01
			c-0.23-2.44-0.92-4.83-2.02-7.02c-0.11-0.21-0.22-0.44-0.2-0.68c0.02-0.28,0.21-0.51,0.4-0.71c1.75-1.91,3.93-3.42,6.33-4.4"/>
		<g>
			<path d="M48.12,133.26c-3.9,3.09-4.08,8.44-3.49,12.97c0.21-0.16,0.42-0.32,0.63-0.48c-0.72-0.28-1.48-0.28-2.2-0.01
				c0.21,0.16,0.42,0.32,0.63,0.48c-0.14-1.34-0.38-2.66-0.77-3.95c-0.19-0.64-0.42-1.27-0.67-1.89c-0.12-0.28-0.23-0.56-0.36-0.83
				c-0.13-0.28-0.49-0.77-0.4-1.09c0.07-0.24,0.42-0.51,0.59-0.68c0.22-0.23,0.45-0.45,0.68-0.66c0.48-0.44,0.99-0.86,1.52-1.25
				c1.1-0.79,2.29-1.46,3.54-1.98c0.59-0.24,0.33-1.21-0.27-0.96c-1.34,0.55-2.61,1.23-3.78,2.08c-0.57,0.41-1.13,0.86-1.65,1.33
				c-0.49,0.44-1.05,0.92-1.41,1.47c-0.31,0.48-0.29,0.96-0.06,1.47c0.33,0.73,0.68,1.44,0.95,2.19c0.55,1.53,0.91,3.12,1.08,4.74
				c0.03,0.29,0.3,0.61,0.63,0.48c0.58-0.22,1.09-0.22,1.67,0.01c0.28,0.11,0.67-0.18,0.63-0.48c-0.56-4.28-0.51-9.33,3.2-12.26
				C49.33,133.57,48.62,132.87,48.12,133.26L48.12,133.26z"/>
		</g>
	</g>
</g>
</svg>
