<?xml version="1.0" encoding="utf-8"?>
<!-- Generator: Adobe Adobe Illustrator 24.2.0, SVG Export Plug-In . SVG Version: 6.00 Build 0)  -->
<svg version="1.1" xmlns="http://www.w3.org/2000/svg" xmlns:xlink="http://www.w3.org/1999/xlink" x="0px" y="0px"
	 viewBox="0 0 170.08 170.08" style="enable-background:new 0 0 170.08 170.08;" xml:space="preserve">
<style type="text/css">
	.st0{fill:#FFFFFF;}
	.st1{opacity:0.5294;fill:#C85B7B;stroke:#CA5A7A;stroke-width:1.1849;stroke-miterlimit:10;}
	.st2{fill:#E8F4FF;}
	.st3{fill:#2E1B12;}
	.st4{fill:#2E1A12;}
	.st5{fill:#F3C156;}
	.st6{fill:#F2C158;}
	.st7{fill:#3B74B5;}
	.st8{fill:#C8344D;}
	.st9{fill:#C9354E;}
	.st10{stroke:#000000;stroke-width:0.9651;stroke-miterlimit:10;}
	.st11{fill:#FFFFFF;stroke:#FFFFFF;stroke-width:0.1831;stroke-miterlimit:10;}
	.st12{fill:#FFFFFF;stroke:#FFFFFF;stroke-width:0.1916;stroke-miterlimit:10;}
	.st13{opacity:0.1216;}
</style>
<g id="Ebene_4">
</g>
<g id="Ebene_14">
</g>
<g id="Ebene_16">
	<g>
		<g>
			<path class="st0" d="M24.89,145.83c-0.56-3.52,0.43-7.35,3.16-9.75c2.59-2.27,6.41-2.94,9.42-1.09c1.54,0.95,2.7,2.44,3.13,4.21
				c0.12,0.51,0.8,0.43,0.96,0c1.17-3.15,4.3-5.44,7.68-5.47c3.67-0.03,6.88,2.37,8.09,5.78c0.74,2.08,0.89,4.31,1.03,6.49
				c0.17-0.17,0.33-0.33,0.5-0.5c-5.3,0.47-10.63,0.36-15.91-0.34c-0.28-0.04-0.49,0.26-0.5,0.5c-0.02,0.39-0.03,0.77-0.05,1.16
				c0.17-0.17,0.33-0.33,0.5-0.5c-6.02-0.22-12.04-0.43-18.06-0.65c-0.64-0.02-0.64,0.98,0,1c6.02,0.22,12.04,0.43,18.06,0.65
				c0.28,0.01,0.49-0.24,0.5-0.5c0.02-0.39,0.03-0.77,0.05-1.16c-0.17,0.17-0.33,0.33-0.5,0.5c5.28,0.7,10.61,0.81,15.91,0.34
				c0.26-0.02,0.52-0.21,0.5-0.5c-0.27-4.13-0.76-8.62-4.31-11.31c-3.08-2.34-7.33-2.6-10.61-0.52c-1.77,1.13-3.12,2.79-3.85,4.76
				c0.32,0,0.64,0,0.96,0c-0.86-3.56-4.35-6.08-7.97-6.05c-3.99,0.04-7.5,2.76-8.97,6.39c-0.88,2.16-1.06,4.52-0.69,6.81
				C24.03,146.73,24.99,146.46,24.89,145.83L24.89,145.83z"/>
		</g>
	</g>
</g>
<g id="Ebene_10">
	<g>
		<path class="st0" d="M25.33,145.3c0.58-2.2,1.17-4.44,2.44-6.33c1.26-1.89,3.35-3.38,5.62-3.33c2.94,0.07,5.31,2.73,6.03,5.59
			c0.07,0.28,0.18,0.61,0.46,0.67c0.18,0.04,0.35-0.06,0.5-0.15c1.65-1.02,2.95-2.5,4.45-3.73c1.5-1.23,3.35-2.25,5.28-2.03
			c1.82,0.2,3.38,1.49,4.34,3.04s1.42,3.36,1.83,5.15c-4.53-0.47-9.07-0.74-13.62-0.82c0.04,0.45-0.08,0.91-0.33,1.28
			c-5,0.08-10.01,0.16-15.01,0.23"/>
		<g>
			<path class="st0" d="M27.74,145.97c0.72-2.72,1.75-7.45,5.27-7.82c1.13-0.12,2.19,0.59,2.88,1.45c1.14,1.4,1.02,3.55,2.73,4.46
				c2.1,1.13,4.19-0.88,5.66-2.19c1.26-1.13,2.48-2.51,4.08-3.15c3.64-1.47,4.94,3.64,5.51,6.12c0.8-1.05,1.61-2.11,2.41-3.16
				c-4.53-0.46-9.07-0.73-13.62-0.82c-1.35-0.02-2.5,1.17-2.5,2.5c0.04,0,0.04,0.01,0.01,0.02c0.72-0.41,1.44-0.83,2.16-1.24
				c-5,0.08-10.01,0.16-15.01,0.23c-3.21,0.05-3.22,5.05,0,5c3.31-0.05,6.62-0.1,9.93-0.15c1.61-0.03,3.23,0.01,4.84-0.08
				c2.1-0.11,3.08-1.83,3.07-3.79c-0.83,0.83-1.67,1.67-2.5,2.5c4.55,0.08,9.09,0.36,13.62,0.82c1.7,0.17,2.74-1.73,2.41-3.16
				c-0.99-4.27-3.03-9.15-7.92-9.94c-2.5-0.4-4.9,0.54-6.88,2.03c-1.7,1.28-3.11,3.14-5.02,4.12c0.42-0.11,0.84-0.23,1.26-0.34
				c-0.09,0.01-0.17,0.02-0.26,0.03c0.42,0.11,0.84,0.23,1.26,0.34c-0.08-0.05-0.15-0.09-0.23-0.14c0.3,0.3,0.6,0.6,0.9,0.9
				c-0.34-0.58-0.65-1.88-1.12-2.68c-0.58-0.99-1.33-1.93-2.22-2.66c-1.95-1.61-4.36-2.35-6.87-1.83
				c-5.36,1.11-7.46,6.63-8.68,11.31C22.1,147.75,26.92,149.08,27.74,145.97L27.74,145.97z"/>
		</g>
	</g>
</g>
<g id="Ebene_18">
	<g>
		<path class="st0" d="M30.11,70.13c-1.91,10.83-3.81,21.67-5.72,32.5c-0.35,2.01-0.47,4.56,1.3,5.56c0.73,0.42,1.62,0.44,2.46,0.44
			c7.51,0.08,15.01,0.16,22.52,0.23c1.35,0.01,2.86-0.04,3.79-1.01c1.27-1.33,0.7-3.49,0.08-5.22c-3.75-10.53-6.37-21.46-7.82-32.55
			c5.05-3.04,9.46-7.47,11.44-13.02s1.15-12.28-2.93-16.53c-1.09-1.14-2.38-2.07-3.73-2.88c-5.31-3.19-11.82-4.45-17.87-3.13
			S22.07,39.8,19.22,45.3c-2.27,4.37-2.79,9.71-1,14.3c1.8,4.59,6.03,8.25,10.9,8.94"/>
		<g>
			<path class="st0" d="M27.7,69.46c-1.42,8.04-2.83,16.09-4.25,24.13c-0.32,1.81-0.64,3.61-0.95,5.42
				c-0.32,1.84-0.79,3.74-0.82,5.62c-0.02,1.38,0.23,2.82,0.97,4.01c1.12,1.8,3.06,2.41,5.08,2.5c3.88,0.17,7.8,0.08,11.68,0.12
				c3.87,0.04,7.76,0.17,11.63,0.12c1.75-0.02,3.56-0.3,4.92-1.5c1.27-1.13,1.83-2.8,1.75-4.47c-0.08-1.67-0.69-3.21-1.22-4.76
				c-0.62-1.79-1.2-3.58-1.76-5.39c-2.51-8.21-4.38-16.64-5.5-25.16c-0.41,0.72-0.83,1.44-1.24,2.16
				c6.41-3.92,12.19-10.06,13.41-17.74c0.6-3.8,0.22-7.6-1.32-11.14c-1.63-3.74-4.7-6.47-8.23-8.4c-7.29-3.97-16.09-4.63-23.71-1.22
				c-7.23,3.24-12.51,10.08-13.36,17.99c-0.94,8.7,4.72,17.8,13.7,19.21c1.33,0.21,2.69-0.34,3.08-1.75
				c0.33-1.19-0.4-2.86-1.75-3.08c-6.03-0.95-10.11-6.28-10.14-12.28c-0.04-6.23,3.71-11.74,9.01-14.77
				c5.66-3.24,12.6-3.28,18.56-0.81c2.81,1.17,5.75,2.93,7.42,5.54c1.57,2.44,2.16,5.31,2.02,8.2c-0.36,6.94-5.57,12.49-11.21,15.93
				c-0.68,0.42-1.35,1.31-1.24,2.16c0.9,6.86,2.18,13.66,3.94,20.35c0.86,3.27,1.82,6.52,2.89,9.73c0.48,1.43,1.06,2.85,1.45,4.31
				c0.21,0.76,0.57,1.55-0.27,1.8c-1.21,0.36-2.76,0.07-4.01,0.06c-1.79-0.02-3.59-0.04-5.38-0.06c-3.59-0.04-7.18-0.07-10.77-0.11
				c-0.82-0.01-1.63-0.02-2.45-0.03c-0.72-0.01-1.62,0.14-2.32-0.04c-0.4-0.1-0.29,0.05-0.48-0.24c-0.21-0.33-0.15-0.98-0.14-1.41
				c0.05-1.38,0.4-2.76,0.64-4.12c0.32-1.81,0.64-3.61,0.95-5.42c1.42-8.04,2.83-16.09,4.25-24.13c0.23-1.33-0.36-2.69-1.75-3.08
				C29.56,67.39,27.93,68.13,27.7,69.46L27.7,69.46z"/>
		</g>
	</g>
</g>
<g id="Ebene_26">
	<ellipse class="st1" cx="25.89" cy="56.4" rx="5.38" ry="5.38"/>
</g>
<g id="Ebene_19">
</g>
<g id="Ebene_17">
	<g>
		<path class="st2" d="M70.73,45.85c-0.78,14.34,1.73,28.63,4.22,42.77c0.4,2.3,0.83,4.65,2.03,6.65c2.71,4.52,8.5,6.02,13.73,6.61
			c8.97,1,18.11,0.52,26.93-1.44c1.25-0.28,2.51-0.59,3.61-1.25c2.17-1.3,3.39-3.75,4.04-6.19c0.65-2.44,0.85-4.99,1.6-7.41
			c0.08,0.64,0.15,1.27,0.23,1.91c5.87-0.79,11.44-3.67,15.48-8c3.4-3.65,5.74-8.4,5.96-13.39s-1.84-10.14-5.8-13.17
			c-3.8-2.91-9.19-3.61-13.61-1.78c0.17,2.98,0.03,5.98-0.42,8.93c2.55-3.58,8.4-4.62,11.46-1.46c1.69,1.74,2.25,4.26,2.74,6.63
			c0.26,1.27,0.52,2.59,0.24,3.86c-0.27,1.23-1.03,2.3-1.84,3.26c-3.6,4.26-8.65,7.26-14.11,8.38c1.3-11.64,1.69-23.38,1.17-35.09
			c-0.01-0.3-0.03-0.61-0.15-0.89c-0.22-0.53-0.76-0.83-1.27-1.1c-17.44-9.03-39.59-8.23-56.32,2.06"/>
		<g>
			<path class="st2" d="M70.23,45.85c-0.43,8.19,0.19,16.39,1.27,24.51c0.54,4.04,1.18,8.06,1.87,12.08
				c0.33,1.94,0.67,3.89,1.02,5.83c0.32,1.81,0.61,3.65,1.27,5.37c2.28,6,8.71,7.96,14.53,8.68c7.75,0.96,15.66,0.71,23.36-0.57
				c2.1-0.35,4.28-0.68,6.3-1.37c1.71-0.59,3.1-1.63,4.13-3.12c2.35-3.4,2.26-7.7,3.41-11.53c-0.33-0.04-0.65-0.09-0.98-0.13
				c0.08,0.64,0.15,1.27,0.23,1.91c0.04,0.35,0.28,0.53,0.63,0.48c8.41-1.17,16.31-6.55,19.91-14.33c1.76-3.81,2.41-8.08,1.46-12.2
				c-0.89-3.84-3.14-7.41-6.48-9.56c-3.85-2.47-8.89-2.94-13.12-1.21c-0.2,0.08-0.38,0.25-0.37,0.48c0.16,2.94,0.04,5.89-0.4,8.8
				c-0.08,0.56,0.57,0.86,0.91,0.39c1.4-1.92,3.77-3.05,6.12-3.09c2.6-0.05,4.7,1.3,5.83,3.63c0.63,1.3,0.95,2.73,1.24,4.13
				c0.35,1.68,0.73,3.41-0.04,5.04c-0.65,1.37-1.77,2.53-2.83,3.59c-1.05,1.04-2.2,1.99-3.43,2.83c-2.72,1.85-5.76,3.15-8.98,3.82
				c0.21,0.16,0.42,0.32,0.63,0.48c0.82-7.34,1.28-14.71,1.37-22.1c0.05-3.67,0.01-7.34-0.13-11.01c-0.05-1.45,0.2-3.13-1.14-4.05
				c-1.21-0.83-2.71-1.4-4.05-1.98c-10.9-4.7-23.21-5.84-34.83-3.52c-6.54,1.31-12.85,3.73-18.55,7.21c-0.55,0.34-0.05,1.2,0.5,0.86
				c9.89-6.05,21.61-8.8,33.17-8.15c5.77,0.32,11.49,1.5,16.9,3.54c1.4,0.53,2.78,1.11,4.13,1.75c0.6,0.28,1.19,0.57,1.77,0.89
				c0.26,0.14,0.54,0.29,0.74,0.52c0.34,0.39,0.28,0.97,0.3,1.45c0.15,3.54,0.22,7.09,0.2,10.64c-0.04,8-0.51,16-1.39,23.95
				c-0.04,0.34,0.35,0.54,0.63,0.48c3.23-0.68,6.32-1.97,9.05-3.81c1.36-0.91,2.63-1.95,3.8-3.1c1.12-1.11,2.3-2.36,2.99-3.79
				c0.82-1.68,0.63-3.42,0.27-5.2c-0.32-1.6-0.67-3.22-1.34-4.72c-1.15-2.56-3.38-4.21-6.2-4.37c-2.93-0.17-5.88,1.21-7.61,3.58
				c0.3,0.13,0.61,0.26,0.91,0.39c0.45-3,0.61-6.03,0.44-9.06c-0.12,0.16-0.24,0.32-0.37,0.48c3.61-1.47,7.79-1.3,11.26,0.48
				c3.42,1.76,5.81,5.01,6.88,8.67c2.31,7.92-1.86,16.14-8.07,21c-3.57,2.8-7.87,4.59-12.36,5.21c0.21,0.16,0.42,0.32,0.63,0.48
				c-0.08-0.64-0.15-1.27-0.23-1.91c-0.06-0.53-0.81-0.71-0.98-0.13c-1.02,3.4-1.01,7.14-2.72,10.32c-0.75,1.4-1.81,2.59-3.26,3.28
				c-1.62,0.78-3.53,1.05-5.28,1.38c-7.49,1.43-15.18,1.8-22.78,1.11c-5.52-0.5-12.48-1.63-15.29-7.1c-0.81-1.58-1.19-3.36-1.51-5.1
				c-0.33-1.82-0.65-3.65-0.96-5.47c-0.67-3.89-1.32-7.78-1.88-11.69c-1.24-8.72-1.98-17.53-1.52-26.34
				C71.26,45.2,70.26,45.2,70.23,45.85L70.23,45.85z"/>
		</g>
	</g>
</g>
<g id="Ebene_20">
	<g>
		<path class="st3" d="M78.53,46.99c6.65-2.72,13.76-4.33,20.93-4.75"/>
		<g>
			<path class="st4" d="M78.67,47.47c6.63-2.7,13.66-4.31,20.8-4.74c0.64-0.04,0.64-1.04,0-1c-7.23,0.43-14.36,2.04-21.07,4.77
				C77.81,46.75,78.07,47.72,78.67,47.47L78.67,47.47z"/>
		</g>
	</g>
	<g>
		<path class="st3" d="M78.57,47.1c7.62-2.5,15.48-5.02,23.48-4.43c1.98,0.15,3.93,0.48,5.88,0.85c4.13,0.79,8.22,1.75,12.26,2.89
			c-2.94,2.21-6.77,2.74-10.42,3.19c-4.62,0.57-9.26,1.15-13.91,0.96c-6.04-0.24-11.95-1.76-17.8-3.28"/>
		<g>
			<path class="st4" d="M78.7,47.59c5.24-1.72,10.54-3.45,16.02-4.17c2.66-0.35,5.36-0.44,8.03-0.19c2.73,0.26,5.44,0.83,8.12,1.4
				c3.08,0.66,6.14,1.41,9.18,2.26c-0.04-0.3-0.08-0.61-0.12-0.91c-2.01,1.49-4.4,2.2-6.83,2.64c-2.67,0.48-5.39,0.76-8.08,1.04
				c-2.88,0.3-5.78,0.5-8.67,0.42c-2.9-0.08-5.77-0.47-8.62-1.02c-3.21-0.62-6.38-1.44-9.54-2.25c-0.62-0.16-0.89,0.8-0.27,0.96
				c5.73,1.48,11.52,2.97,17.45,3.27c2.97,0.15,5.95-0.02,8.91-0.31c2.76-0.27,5.53-0.58,8.26-1.01c2.79-0.44,5.58-1.18,7.89-2.88
				c0.33-0.25,0.33-0.79-0.12-0.91c-5.36-1.49-10.86-2.86-16.38-3.56c-5.5-0.7-11.01,0.09-16.34,1.47c-3.09,0.8-6.13,1.79-9.16,2.78
				C77.83,46.82,78.09,47.79,78.7,47.59L78.7,47.59z"/>
		</g>
	</g>
</g>
<g id="Ebene_21">
	<g>
		<path class="st5" d="M105.73,60.85c0.04,0.82,0.26,1.63,0.64,2.36c0.1,0.19,0.21,0.38,0.38,0.51c0.52,0.41,1.28,0.11,1.88-0.2
			c4.38-2.29,8.92-4.26,13.58-5.91c-0.5-0.8-0.78-1.75-0.79-2.69c-5.39,1.42-10.65,3.3-15.72,5.6"/>
		<g>
			<path class="st6" d="M105.23,60.85c0.08,1.19,0.47,3.44,1.99,3.56c0.75,0.06,1.43-0.35,2.07-0.68c0.84-0.43,1.68-0.85,2.53-1.26
				c3.42-1.65,6.93-3.11,10.51-4.39c0.3-0.11,0.47-0.44,0.3-0.73c-0.45-0.76-0.69-1.56-0.72-2.44c-0.01-0.33-0.31-0.57-0.63-0.48
				c-5.43,1.44-10.73,3.33-15.84,5.65c-0.59,0.27-0.08,1.13,0.5,0.86c5.04-2.29,10.26-4.14,15.61-5.55
				c-0.21-0.16-0.42-0.32-0.63-0.48c0.03,1.06,0.32,2.04,0.86,2.95c0.1-0.24,0.2-0.49,0.3-0.73c-3,1.07-5.95,2.26-8.84,3.59
				c-1.43,0.65-2.84,1.34-4.23,2.05c-0.52,0.27-1.57,1.03-2.07,0.42c-0.48-0.6-0.65-1.58-0.7-2.33
				C106.19,60.22,105.19,60.21,105.23,60.85L105.23,60.85z"/>
		</g>
	</g>
</g>
<g id="Ebene_23">
	<g>
		<path class="st7" d="M107.43,64.98c0.13,0.77,0.47,1.73,1.24,1.74c0.2,0,0.4-0.07,0.59-0.14c2.97-1.12,5.9-2.37,8.76-3.75
			c1.68-0.81,3.43-1.69,5.3-1.68c-0.28-0.88-0.55-1.77-0.83-2.65c-4.91,2.57-9.89,5.15-15.27,6.49"/>
		<g>
			<path class="st7" d="M106.95,65.12c0.19,1.04,0.78,2.34,2.06,2.07c0.81-0.17,1.62-0.59,2.39-0.9c0.78-0.31,1.55-0.63,2.32-0.96
				c1.6-0.68,3.19-1.41,4.76-2.16c1.54-0.74,3.11-1.49,4.84-1.51c0.31,0,0.58-0.32,0.48-0.63c-0.28-0.88-0.55-1.77-0.83-2.65
				c-0.1-0.32-0.44-0.45-0.73-0.3c-4.87,2.54-9.79,5.09-15.15,6.44c-0.62,0.16-0.36,1.12,0.27,0.96c5.44-1.37,10.44-3.96,15.39-6.54
				c-0.24-0.1-0.49-0.2-0.73-0.3c0.28,0.88,0.55,1.77,0.83,2.65c0.16-0.21,0.32-0.42,0.48-0.63c-2.91,0.04-5.57,1.8-8.14,2.95
				c-1.41,0.63-2.83,1.24-4.27,1.81c-0.37,0.15-0.74,0.29-1.11,0.43c-0.3,0.11-0.8,0.41-1.13,0.38c-0.55-0.05-0.69-0.96-0.76-1.37
				C107.8,64.22,106.84,64.49,106.95,65.12L106.95,65.12z"/>
		</g>
	</g>
</g>
<g id="Ebene_24">
	<g>
		<path class="st8" d="M108.79,68.19c-0.04,0.64,0.63,1.13,1.27,1.15c0.64,0.02,1.23-0.29,1.8-0.58c1.02-0.51,2.07-0.96,3.14-1.34
			c3.12-1.13,6.52-1.77,9.14-3.81c-0.25-0.56-0.44-1.15-0.58-1.76c-1.61,0.66-3.22,1.32-4.83,1.97c-3.53,1.44-7.06,2.89-10.67,4.1"
			/>
		<g>
			<path class="st9" d="M108.29,68.19c0.03,1.41,1.57,1.88,2.73,1.5c0.77-0.26,1.49-0.69,2.23-1.02c0.81-0.36,1.64-0.68,2.48-0.97
				c2.97-1.01,6.13-1.71,8.67-3.66c0.24-0.18,0.3-0.41,0.18-0.68c-0.23-0.53-0.4-1.08-0.53-1.64c-0.06-0.24-0.37-0.45-0.62-0.35
				c-5.13,2.1-10.24,4.3-15.5,6.08c-0.61,0.21-0.35,1.17,0.27,0.96c5.26-1.78,10.37-3.98,15.5-6.08c-0.21-0.12-0.41-0.23-0.62-0.35
				c0.15,0.65,0.37,1.27,0.63,1.88c0.06-0.23,0.12-0.46,0.18-0.68c-2.14,1.63-4.72,2.37-7.24,3.17c-1.25,0.4-2.49,0.84-3.7,1.36
				c-0.58,0.25-3.63,2.07-3.66,0.48C109.28,67.55,108.28,67.54,108.29,68.19L108.29,68.19z"/>
		</g>
	</g>
</g>
<g id="Ebene_22">
	<g>
		<g>
			<path d="M45.25,33.33c-1.22-0.76-2.67-1.1-4.08-1.29c-1.87-0.25-3.77-0.21-5.64,0c-4.43,0.5-8.83,1.93-12.59,4.35
				c-3.99,2.58-7.15,6.36-8.42,10.99c-0.72,2.64-0.81,5.41-0.54,8.12c0.24,2.44,0.8,4.84,1.81,7.09c1.71,3.79,4.74,6.8,8.49,8.57
				c3.73,1.76,7.93,2.36,12.03,2.18c4.19-0.19,8.34-1.16,12.17-2.85c3.34-1.48,6.54-3.57,8.77-6.51c2.27-3,3.97-6.5,4.47-10.25
				c0.42-3.12-0.05-6.27-1.3-9.16c-2.51-5.8-7.84-10.08-13.62-12.37c-1.43-0.57-2.91-1-4.42-1.31c-0.63-0.13-0.9,0.84-0.27,0.96
				c5.93,1.21,11.66,4.53,15.27,9.45c1.77,2.41,3.01,5.21,3.38,8.19c0.41,3.3-0.28,6.64-1.71,9.63c-1.11,2.33-2.58,4.56-4.49,6.32
				c-1.29,1.19-2.75,2.19-4.28,3.04c-3.43,1.9-7.26,3.09-11.14,3.61c-3.94,0.53-8.03,0.37-11.84-0.82
				c-3.66-1.14-6.98-3.34-9.16-6.53c-2.67-3.9-3.57-8.91-3.25-13.57c0.33-4.74,2.57-9.02,6.15-12.11c3.29-2.84,7.45-4.63,11.68-5.54
				c3.34-0.72,7.13-1.07,10.45-0.02c0.55,0.17,1.08,0.4,1.58,0.71C45.29,34.53,45.8,33.67,45.25,33.33L45.25,33.33z"/>
		</g>
	</g>
	<g>
		<g>
			<path d="M27.5,72.43c-1.92,9.59-3.96,19.15-5.89,28.73c-0.39,1.94-0.98,4.05-0.48,6.02c0.45,1.78,1.87,2.94,3.58,3.45
				c1.84,0.55,3.82,0.47,5.72,0.48c2.53,0.01,5.06-0.02,7.59-0.09c5.06-0.13,10.11-0.39,15.16-0.79c0.99-0.08,2.26,0.01,3.09-0.63
				c0.47-0.37,0.79-0.96,0.93-1.54c0.15-0.62,0.11-1.29,0.06-1.91c-0.17-2.19-0.65-4.35-1.14-6.49c-0.68-2.99-1.47-5.95-2.28-8.9
				c-1.66-6-3.47-11.96-5.31-17.91c-0.17-0.56-0.35-1.12-0.52-1.68c-0.19-0.61-1.16-0.35-0.96,0.27c1.68,5.44,3.36,10.89,4.92,16.37
				c1.53,5.33,3.1,10.72,4.02,16.19c0.14,0.85,0.27,1.7,0.31,2.56c0.03,0.63,0.05,1.1-0.19,1.64c-0.51,1.12-1.87,0.95-2.91,1.04
				c-1.2,0.1-2.4,0.18-3.6,0.26c-2.4,0.16-4.8,0.29-7.21,0.39c-4.73,0.19-9.48,0.33-14.21,0.21c-1.65-0.04-3.56-0.19-4.89-1.28
				c-1.62-1.33-1.43-3.55-1.09-5.4c0.84-4.56,1.84-9.1,2.78-13.64c0.95-4.57,1.89-9.13,2.82-13.71c0.23-1.12,0.46-2.25,0.68-3.37
				C28.59,72.07,27.63,71.8,27.5,72.43L27.5,72.43z"/>
		</g>
	</g>
	<g>
		<g>
			<path d="M47.38,71.79c8.06,1.64,16.13,3.24,24.31,4.13c0.64,0.07,0.63-0.93,0-1c-8.09-0.89-16.08-2.48-24.05-4.1
				C47.02,70.7,46.75,71.66,47.38,71.79L47.38,71.79z"/>
		</g>
	</g>
	<g>
		<g>
			<path d="M27.13,72.45c-5.51,2.79-10.83,5.96-15.9,9.5c-1.14,0.8-2.38,1.56-3.41,2.49C7,85.18,6.6,86.24,7.28,87.22
				c0.33,0.48,0.82,0.82,1.3,1.15c0.61,0.43,1.24,0.85,1.87,1.26c1.26,0.81,2.55,1.58,3.87,2.3c2.93,1.61,5.99,2.98,9.14,4.11
				c-0.07-0.28-0.15-0.56-0.22-0.84c-1.82,2.18-3.36,4.57-4.56,7.15c0.23-0.06,0.46-0.12,0.68-0.18c-1.66-0.96-2.87-3.25-1.87-5.09
				c0.78-1.44,2.99-2.16,4.32-1.04c0.49,0.41,1.2-0.29,0.71-0.71c-1.78-1.51-4.63-0.83-5.82,1.11c-1.41,2.31-0.01,5.33,2.16,6.58
				c0.22,0.13,0.57,0.07,0.68-0.18c1.16-2.5,2.63-4.84,4.4-6.95c0.25-0.3,0.15-0.7-0.22-0.84c-5.15-1.85-10.05-4.38-14.54-7.51
				c-0.42-0.29-1.06-0.66-1.22-1.18c-0.21-0.68,0.49-1.2,0.96-1.55c1.1-0.84,2.25-1.63,3.39-2.42c2.29-1.58,4.63-3.08,7.01-4.51
				c2.72-1.63,5.49-3.16,8.31-4.59C28.21,73.02,27.7,72.16,27.13,72.45L27.13,72.45z"/>
		</g>
	</g>
	<g>
		<g>
			<path d="M24.26,146.98c-0.65-4.27,0.94-9.01,4.42-11.68c1.4-1.08,3.14-1.77,4.93-1.65c2,0.13,3.7,1.35,4.93,2.87
				c2.38,2.95,3.34,6.94,3.92,10.6c0.16-0.21,0.32-0.42,0.48-0.63c-6.44,0.06-12.89,0.12-19.33,0.18c-0.64,0.01-0.64,1.01,0,1
				c6.44-0.06,12.89-0.12,19.33-0.18c0.35,0,0.53-0.32,0.48-0.63c-0.57-3.57-1.51-7.32-3.62-10.31c-1.3-1.84-3.14-3.41-5.42-3.81
				c-4.34-0.75-8.16,2.63-9.91,6.31c-1.21,2.56-1.6,5.4-1.18,8.2C23.4,147.88,24.36,147.61,24.26,146.98L24.26,146.98z"/>
		</g>
	</g>
	<g>
		<g>
			<path d="M24.45,145.86c5.82,0,11.65-0.45,17.47-0.12c0.64,0.04,0.64-0.96,0-1c-5.82-0.33-11.65,0.11-17.47,0.12
				C23.8,144.86,23.8,145.86,24.45,145.86L24.45,145.86z"/>
		</g>
	</g>
	<g>
		<g>
			<path d="M32.34,136.77c1.4-0.02,2.8-0.05,4.2-0.07c0.64-0.01,0.64-1.01,0-1c-1.4,0.02-2.8,0.05-4.2,0.07
				C31.7,135.78,31.7,136.78,32.34,136.77L32.34,136.77z"/>
		</g>
	</g>
	<g>
		<g>
			<path d="M31.8,138.92c1.57-0.24,3.15-0.34,4.74-0.33c0.64,0.01,0.64-0.99,0-1c-1.68-0.01-3.35,0.11-5,0.37
				c-0.27,0.04-0.41,0.38-0.35,0.62C31.27,138.86,31.53,138.96,31.8,138.92L31.8,138.92z"/>
		</g>
	</g>
	<g>
		<g>
			<path d="M41.46,138.53c0.59-1.26,1.72-2.26,2.83-3.05c1.22-0.87,2.6-1.62,4.06-1.96c2.28-0.54,4.64,0.47,6.16,2.18
				c1.44,1.62,2.24,3.74,2.78,5.81c0.24,0.89,0.42,1.8,0.58,2.71c0.06,0.35,0.12,0.7,0.17,1.05c0.02,0.13,0.04,0.25,0.06,0.38
				c0.01,0.06,0.03,0.13,0.03,0.19c0,0.02,0.02,0.05,0.01,0.07c0.02-0.21,0.06-0.1-0.18-0.12c-0.64-0.04-1.33,0.09-1.97,0.12
				c-0.62,0.03-1.23,0.06-1.85,0.08c-1.23,0.04-2.47,0.06-3.7,0.06c-2.51-0.01-5.02-0.12-7.52-0.31c-0.64-0.05-0.64,0.95,0,1
				c4.92,0.39,9.87,0.42,14.8,0.07c0.76-0.05,1.55-0.16,1.4-1.12c-0.05-0.3-0.1-0.6-0.15-0.9c-0.15-0.92-0.31-1.83-0.52-2.74
				c-1.06-4.57-3.83-10.07-9.36-9.65c-1.74,0.13-3.44,0.98-4.88,1.93c-1.41,0.93-2.9,2.13-3.63,3.7
				C40.33,138.6,41.19,139.11,41.46,138.53L41.46,138.53z"/>
		</g>
	</g>
	<g>
		<g>
			<path d="M43.26,145.18c4.92,0.3,9.86,0.39,14.79,0.25c0.64-0.02,0.64-1.02,0-1c-4.93,0.13-9.87,0.05-14.79-0.25
				C42.62,144.14,42.62,145.14,43.26,145.18L43.26,145.18z"/>
		</g>
	</g>
	<g>
		<g>
			<path d="M48.64,136.41c1.29,0,2.58,0,3.86,0c0.64,0,0.64-1,0-1c-1.29,0-2.58,0-3.86,0C47.99,135.41,47.99,136.41,48.64,136.41
				L48.64,136.41z"/>
		</g>
	</g>
	<g>
		<g>
			<path d="M48.1,138.08c1.29-0.22,2.59-0.33,3.9-0.32c0.64,0,0.64-1,0-1c-1.4-0.01-2.79,0.11-4.17,0.35
				c-0.27,0.05-0.42,0.37-0.35,0.62C47.56,138.01,47.83,138.12,48.1,138.08L48.1,138.08z"/>
		</g>
	</g>
	<g>
		<g>
			<path d="M47.02,111.05c0.49,7.29,1.12,14.56,1.9,21.82c0.07,0.63,1.07,0.64,1,0c-0.78-7.26-1.41-14.54-1.9-21.82
				C47.97,110.42,46.97,110.41,47.02,111.05L47.02,111.05z"/>
		</g>
	</g>
	<g>
		<g>
			<path d="M31.41,111.21c0.84,7.25,1.29,14.55,1.34,21.85c0,0.64,1,0.64,1,0c-0.05-7.3-0.49-14.6-1.34-21.85
				C32.34,110.57,31.34,110.57,31.41,111.21L31.41,111.21z"/>
		</g>
	</g>
	<g>
		<g>
			<path d="M24.47,55.7c1.78,6.12,7.75,9.08,13.64,10.03c1.89,0.31,3.81,0.44,5.73,0.44c0.64,0,0.64-1,0-1
				c-5.66-0.01-12.35-1.09-16.23-5.64c-1.02-1.19-1.73-2.6-2.17-4.09C25.26,54.82,24.29,55.08,24.47,55.7L24.47,55.7z"/>
		</g>
	</g>
	<ellipse class="st10" cx="42.86" cy="51.01" rx="0.98" ry="2.51"/>
	<ellipse class="st10" cx="42.86" cy="51.01" rx="0.98" ry="2.51"/>
	<ellipse class="st11" cx="43.56" cy="49.61" rx="0.24" ry="0.37"/>
	<ellipse class="st11" cx="48.36" cy="49.49" rx="0.24" ry="0.37"/>
	<ellipse class="st11" cx="48.36" cy="49.61" rx="0.24" ry="0.37"/>
	<ellipse class="st11" cx="48.6" cy="49.61" rx="0.24" ry="0.37"/>
	<ellipse class="st10" cx="47.97" cy="51.01" rx="0.98" ry="2.51"/>
	<ellipse class="st12" cx="48.6" cy="49.58" rx="0.24" ry="0.4"/>
</g>
<g id="Ebene_12">
</g>
<g id="Ebene_7">
</g>
<g id="Ebene_25">
</g>
<g id="Ebene_27">
	<g class="st13">
		<path d="M30.48,33.75c-4.96,3.19-9.41,7.49-11.6,12.97S17.14,58.94,21,63.4c1.93,2.23,4.55,3.75,7.24,4.96
			c3.97,1.79,8.2,2.99,12.51,3.54c-4.05,0.2-8.16,0.4-12.12-0.48c-14.19-3.17-19.63-19.11-9.29-31.18c2.52-2.95,6.32-4.58,10.04-5.7
			"/>
		<g>
			<path d="M30.23,33.32c-6.12,3.96-11.77,9.79-12.93,17.27c-0.54,3.47-0.16,7.1,1.41,10.27c1.73,3.48,4.88,5.82,8.31,7.48
				c4.32,2.09,8.97,3.43,13.72,4.06c0-0.33,0-0.67,0-1c-5.05,0.25-10.26,0.48-15.06-1.4c-3.24-1.27-6.14-3.46-8.14-6.33
				c-4.16-5.97-3.85-13.75-0.18-19.87c1.27-2.13,2.85-4.11,4.9-5.53c2.19-1.52,4.7-2.49,7.24-3.26c0.61-0.19,0.35-1.15-0.27-0.96
				c-2.36,0.72-4.71,1.61-6.81,2.92c-2.02,1.26-3.61,2.93-4.98,4.87c-2.26,3.2-3.71,6.97-3.95,10.89
				C13.06,60.09,17.18,67,23.77,70.24c5.3,2.6,11.22,2.44,16.97,2.16c0.66-0.03,0.62-0.92,0-1c-4.07-0.54-8.08-1.64-11.84-3.29
				c-3.37-1.47-6.71-3.42-8.69-6.62c-3.73-6-2.25-13.69,1.67-19.18c2.34-3.29,5.48-5.95,8.85-8.13
				C31.28,33.84,30.77,32.97,30.23,33.32L30.23,33.32z"/>
		</g>
	</g>
	<g class="st13">
		<path d="M28.45,73.17c-0.44,4.8-0.76,9.64-0.3,14.44c0.36,3.75,1.26,7.61,3.69,10.49c1.65,1.95,3.88,3.31,6.1,4.57
			c5.38,3.03,11.19,5.72,17.36,5.85c-9.64,1.4-19.44,1.71-29.15,0.9c-0.64-0.05-1.3-0.12-1.89-0.38c-1.17-0.53-1.86-1.81-2.04-3.09
			c-0.18-1.28,0.08-2.57,0.33-3.83c1.85-9.17,3.69-18.33,5.54-27.5"/>
		<g>
			<path d="M27.95,73.17c-0.35,3.82-0.63,7.66-0.49,11.5c0.11,3.27,0.45,6.64,1.65,9.7c1.2,3.07,3.28,5.38,6.02,7.18
				c2.81,1.85,5.88,3.44,8.97,4.77c3.56,1.52,7.31,2.59,11.21,2.69c-0.04-0.33-0.09-0.65-0.13-0.98c-8.58,1.24-17.29,1.61-25.95,1.1
				c-1.06-0.06-2.11-0.13-3.17-0.23c-0.97-0.09-1.87-0.29-2.51-1.07c-1.34-1.64-0.82-3.94-0.44-5.83c0.86-4.26,1.71-8.52,2.57-12.78
				c0.97-4.83,1.94-9.65,2.91-14.48c0.13-0.63-0.84-0.9-0.96-0.27c-1.82,9.04-3.64,18.09-5.46,27.13c-0.39,1.95-0.84,4.03,0.03,5.91
				c0.34,0.74,0.88,1.4,1.59,1.81c0.83,0.48,1.81,0.53,2.75,0.61c4.53,0.36,9.08,0.48,13.62,0.36c5.12-0.13,10.23-0.58,15.3-1.32
				c0.57-0.08,0.41-0.97-0.13-0.98c-6.67-0.17-12.98-3.25-18.59-6.63c-2.74-1.65-5.04-3.67-6.38-6.63c-1.31-2.91-1.7-6.18-1.85-9.33
				c-0.2-4.08,0.09-8.17,0.46-12.24C29.01,72.52,28.01,72.53,27.95,73.17L27.95,73.17z"/>
		</g>
	</g>
	<g class="st13">
		<path d="M18.43,95.97c-0.39,1.83,0.11,3.84,1.3,5.28c-0.67,0.23-1.44-0.14-1.85-0.72c-0.41-0.58-0.53-1.31-0.55-2.02
			c-0.02-0.92,0.14-1.92,0.8-2.55"/>
		<g>
			<path d="M17.95,95.83c-0.42,2.04,0.11,4.15,1.43,5.77c0.07-0.28,0.15-0.56,0.22-0.84c-1.03,0.32-1.62-0.87-1.72-1.7
				c-0.12-0.92-0.08-2.07,0.62-2.76c0.46-0.45-0.25-1.16-0.71-0.71c-1,0.98-1.09,2.58-0.85,3.88c0.13,0.7,0.45,1.38,1.01,1.83
				c0.54,0.43,1.25,0.63,1.92,0.42c0.38-0.12,0.46-0.54,0.22-0.84c-1.07-1.32-1.51-3.13-1.17-4.79c0.05-0.26-0.08-0.54-0.35-0.62
				C18.32,95.42,18.01,95.57,17.95,95.83L17.95,95.83z"/>
		</g>
	</g>
	<g class="st13">
		<path d="M32,133.53c-2.02,1.21-3.17,3.5-3.63,5.81c-0.46,2.31-0.32,4.69-0.37,7.04c-0.8-0.42-1.77-0.49-2.62-0.19
			c-0.32,0.11-0.66,0.28-0.99,0.18c-0.59-0.17-0.67-0.97-0.6-1.58c0.22-2.1,0.67-4.21,1.65-6.08s2.55-3.5,4.53-4.23"/>
		<g>
			<path d="M31.75,133.09c-4.53,2.8-4.17,8.66-4.25,13.28c0.25-0.14,0.5-0.29,0.75-0.43c-0.58-0.28-1.2-0.45-1.86-0.44
				c-0.35,0.01-0.71,0.06-1.05,0.17c-0.32,0.1-0.78,0.4-0.99,0.02c-0.28-0.52-0.01-1.48,0.07-2.01c0.12-0.78,0.28-1.56,0.5-2.33
				c0.77-2.71,2.45-5.34,5.18-6.4c0.59-0.23,0.34-1.2-0.27-0.96c-3.15,1.22-5.08,4.15-5.94,7.31c-0.24,0.88-0.4,1.77-0.52,2.67
				c-0.09,0.7-0.24,1.49,0.07,2.16c0.27,0.57,0.84,0.84,1.46,0.72c0.44-0.09,0.82-0.3,1.27-0.34c0.54-0.05,1.07,0.06,1.56,0.29
				c0.34,0.16,0.75-0.03,0.75-0.43c0.07-4.21-0.41-9.84,3.75-12.42C32.8,133.62,32.3,132.75,31.75,133.09L31.75,133.09z"/>
		</g>
	</g>
	<g class="st13">
		<path d="M48.47,133.62c-1.81,1.39-2.9,3.57-3.34,5.8c-0.45,2.24-0.3,4.55,0,6.81c-0.61-0.27-1.33-0.27-1.93-0.01
			c-0.23-2.44-0.92-4.83-2.02-7.02c-0.11-0.21-0.22-0.44-0.2-0.68c0.02-0.28,0.21-0.51,0.4-0.71c1.75-1.91,3.93-3.42,6.33-4.4"/>
		<g>
			<path d="M48.12,133.26c-3.9,3.09-4.08,8.44-3.49,12.97c0.21-0.16,0.42-0.32,0.63-0.48c-0.72-0.28-1.48-0.28-2.2-0.01
				c0.21,0.16,0.42,0.32,0.63,0.48c-0.14-1.34-0.38-2.66-0.77-3.95c-0.19-0.64-0.42-1.27-0.67-1.89c-0.12-0.28-0.23-0.56-0.36-0.83
				c-0.13-0.28-0.49-0.77-0.4-1.09c0.07-0.24,0.42-0.51,0.59-0.68c0.22-0.23,0.45-0.45,0.68-0.66c0.48-0.44,0.99-0.86,1.52-1.25
				c1.1-0.79,2.29-1.46,3.54-1.98c0.59-0.24,0.33-1.21-0.27-0.96c-1.34,0.55-2.61,1.23-3.78,2.08c-0.57,0.41-1.13,0.86-1.65,1.33
				c-0.49,0.44-1.05,0.92-1.41,1.47c-0.31,0.48-0.29,0.96-0.06,1.47c0.33,0.73,0.68,1.44,0.95,2.19c0.55,1.53,0.91,3.12,1.08,4.74
				c0.03,0.29,0.3,0.61,0.63,0.48c0.58-0.22,1.09-0.22,1.67,0.01c0.28,0.11,0.67-0.18,0.63-0.48c-0.56-4.28-0.51-9.33,3.2-12.26
				C49.33,133.57,48.62,132.87,48.12,133.26L48.12,133.26z"/>
		</g>
	</g>
</g>
<g id="Ebene_15">
	<g>
		<g>
			<path d="M69.73,45.37c-0.41,8.29,0.09,16.6,1.14,24.83c0.53,4.11,1.19,8.19,1.94,12.26c0.61,3.27,1.13,6.61,2.13,9.79
				c0.88,2.82,2.26,5.56,4.62,7.42c1.47,1.16,3.23,1.86,5.02,2.36c4.47,1.27,9.25,1.57,13.88,1.62c4.91,0.05,9.85-0.25,14.7-1.06
				c1.89-0.31,3.78-0.7,5.6-1.31c1.21-0.4,2.47-0.9,3.41-1.78c0.98-0.92,1.63-2.17,2.16-3.39c0.72-1.69,1.23-3.47,1.64-5.26
				c1.08-4.64,1.62-9.42,2.04-14.16c0.47-5.3,0.74-10.62,0.94-15.94c0.18-4.6,0.28-9.2,0.45-13.8c0.03-0.87,0.06-1.75,0.1-2.62
				c0.03-0.64-0.97-0.64-1,0c-0.42,9.27-0.5,18.55-1.14,27.81c-0.34,4.92-0.78,9.86-1.62,14.73c-0.6,3.47-1.28,7.24-3.07,10.33
				c-0.58,1-1.28,1.8-2.29,2.33c-1.36,0.72-2.89,1.13-4.38,1.48c-4.41,1.04-8.98,1.44-13.5,1.59c-4.8,0.16-9.67,0.03-14.4-0.81
				c-1.88-0.33-3.79-0.77-5.55-1.53c-2.19-0.94-3.92-2.56-5.1-4.64c-1.51-2.65-2.16-5.71-2.75-8.68c-0.74-3.71-1.43-7.44-2.02-11.18
				c-1.28-8.11-2.09-16.31-2.09-24.53c0-1.96,0.05-3.92,0.15-5.88C70.76,44.73,69.76,44.73,69.73,45.37L69.73,45.37z"/>
		</g>
	</g>
	<g>
		<g>
			<path d="M70.39,46.17c0.64,0,0.64-1,0-1C69.75,45.17,69.75,46.17,70.39,46.17L70.39,46.17z"/>
		</g>
	</g>
	<g>
		<g>
			<path d="M70.64,45.56c6.74-4.21,14.55-6.57,22.41-7.47c7.98-0.92,16.18-0.41,23.93,1.74c4.11,1.14,8.09,2.75,11.76,4.95
				c0.55,0.33,1.06-0.53,0.5-0.86c-6.77-4.06-14.59-6.2-22.41-6.95c-8.21-0.79-16.65-0.06-24.56,2.32
				c-4.25,1.28-8.37,3.06-12.14,5.42C69.59,45.04,70.1,45.9,70.64,45.56L70.64,45.56z"/>
		</g>
	</g>
	<g>
		<g>
			<path d="M70.9,45.64c6.96,3.39,14.53,5.4,22.25,6.04c7.73,0.63,15.58-0.13,23.03-2.27c4.21-1.21,8.29-2.87,12.14-4.95
				c0.57-0.31,0.06-1.17-0.5-0.86c-6.71,3.62-14.11,5.92-21.68,6.83c-7.54,0.91-15.25,0.49-22.64-1.31
				c-4.17-1.01-8.23-2.46-12.1-4.34C70.83,44.49,70.32,45.36,70.9,45.64L70.9,45.64z"/>
		</g>
	</g>
	<g>
		<g>
			<path d="M129.24,51.45c3.65-1.54,7.79-1.75,11.32,0.23c3.19,1.79,5.41,4.96,6.53,8.39c1.23,3.75,1.2,7.83-0.08,11.56
				c-1.34,3.9-3.92,7.3-7.06,9.93c-3.7,3.09-8.25,5.13-13.03,5.78c-0.63,0.09-0.36,1.05,0.27,0.96c8.72-1.18,16.99-7.06,20.36-15.29
				c3.02-7.35,1.23-17.1-5.66-21.69c-3.99-2.66-8.85-2.55-13.16-0.73C128.14,50.83,128.65,51.69,129.24,51.45L129.24,51.45z"/>
		</g>
	</g>
	<g>
		<g>
			<path d="M129.42,60.44c1.49-2.05,3.72-3.74,6.37-3.52c2.23,0.18,4.1,1.73,5.17,3.62c1.34,2.37,1.58,5.38,0.81,7.98
				c-0.87,2.94-2.9,5.47-5.19,7.46c-2.65,2.31-6,4.14-9.53,4.58c-0.63,0.08-0.64,1.08,0,1c3.41-0.42,6.59-1.99,9.29-4.09
				c2.68-2.09,5.03-4.83,6.19-8.05c1.78-4.95-0.16-12.38-6.06-13.41c-3.27-0.57-6.07,1.39-7.91,3.93
				C128.18,60.46,129.04,60.96,129.42,60.44L129.42,60.44z"/>
		</g>
	</g>
	<g>
		<g>
			<path d="M76.64,47.89C82.03,45.06,88.1,43.6,94.13,43c6.19-0.61,12.54-0.35,18.6,1.09c3.07,0.73,6.08,1.76,8.85,3.28
				c0.56,0.31,1.07-0.55,0.5-0.86c-5.19-2.84-11.15-4.13-17.01-4.61c-6.46-0.53-13.07-0.04-19.36,1.54
				c-3.31,0.83-6.55,1.99-9.58,3.58C75.56,47.32,76.07,48.19,76.64,47.89L76.64,47.89z"/>
		</g>
	</g>
	<g>
		<g>
			<path d="M83.61,11.65c1.41,1.12,2.06,3.18,2.22,4.92c0.09,0.94-0.02,1.89-0.46,2.74c-0.38,0.75-0.94,1.4-1.48,2.04
				c-1,1.19-1.95,2.48-2,4.1c-0.03,0.69,0.15,1.39,0.57,1.95c0.47,0.63,1.19,0.95,1.76,1.46c1.32,1.18,1.73,3.11,1.13,4.75
				c-0.22,0.61,0.74,0.87,0.96,0.27c0.53-1.44,0.37-3.06-0.35-4.4c-0.36-0.67-0.87-1.23-1.47-1.68c-0.74-0.55-1.5-0.98-1.59-1.99
				c-0.16-1.82,1.3-3.21,2.34-4.51c1.17-1.47,1.79-3.04,1.57-4.94c-0.22-1.92-0.93-4.16-2.49-5.41
				C83.82,10.55,83.11,11.25,83.61,11.65L83.61,11.65z"/>
		</g>
	</g>
	<g>
		<g>
			<path d="M97.61,13.28c0.92,2.15,1.61,4.32,0.44,6.51c-0.96,1.81-2.57,3.11-3.76,4.74c-0.58,0.8-1.02,1.75-0.89,2.75
				c0.11,0.84,0.6,1.52,1.16,2.12c0.57,0.61,1.28,1.14,1.69,1.88c0.56,0.99,0.44,2.17-0.18,3.09c-0.36,0.54,0.51,1.04,0.86,0.5
				c0.86-1.28,0.91-3.01,0.05-4.31c-0.74-1.12-2.38-1.96-2.6-3.37c-0.15-0.96,0.5-1.86,1.08-2.56c0.54-0.65,1.13-1.26,1.68-1.9
				c1.01-1.18,1.99-2.48,2.38-4.02c0.52-2.07-0.26-4.06-1.07-5.94C98.23,12.19,97.36,12.7,97.61,13.28L97.61,13.28z"/>
		</g>
	</g>
	<g>
		<g>
			<path d="M108.25,15.55c-0.56,1.7-1.74,3.26-1.63,5.13c0.04,0.77,0.31,1.47,0.8,2.06c0.49,0.59,1.17,1,1.62,1.62
				c1.28,1.76-0.74,3.62-1.84,4.83c-1.11,1.22-2.11,2.83-1.5,4.52c0.22,0.6,1.18,0.34,0.96-0.27c-0.68-1.91,1.16-3.39,2.27-4.65
				c1.03-1.17,1.93-2.8,1.28-4.38c-0.57-1.38-2.33-1.94-2.57-3.49c-0.28-1.81,1.03-3.47,1.57-5.11
				C109.41,15.21,108.45,14.95,108.25,15.55L108.25,15.55z"/>
		</g>
	</g>
	<g>
		<g>
			<path d="M104.41,60.92c0.8,1.87,1.61,3.75,2.41,5.62c0.38,0.88,0.75,1.76,1.13,2.64c0.28,0.65,0.53,1.37,1.3,1.54
				c0.73,0.16,1.51-0.3,2.16-0.56c0.99-0.4,1.98-0.8,2.98-1.2c1.83-0.74,3.66-1.48,5.49-2.22c0.84-0.34,1.68-0.68,2.52-1.02
				c0.71-0.29,1.62-0.52,2.14-1.13c0.47-0.55,0.38-1.24,0.2-1.89c-0.28-1.02-0.6-2.02-0.91-3.03c-0.26-0.86-0.51-1.71-0.77-2.57
				c-0.14-0.47-0.28-0.93-0.42-1.4c-0.13-0.45-0.22-0.96-0.45-1.37c-0.33-0.58-0.92-0.6-1.49-0.42c-1.03,0.32-2.04,0.74-3.05,1.11
				c-4.22,1.53-8.44,3.06-12.66,4.59c-0.6,0.22-0.34,1.18,0.27,0.96c3.28-1.19,6.57-2.38,9.85-3.57c1.64-0.6,3.28-1.19,4.92-1.79
				c0.28-0.1,0.84-0.43,1.12-0.4c0.35,0.04,0.37,0.61,0.47,0.92c0.26,0.86,0.51,1.71,0.77,2.57c0.48,1.59,1.01,3.17,1.43,4.78
				c0.12,0.45,0.14,0.78-0.25,1.06c-0.28,0.2-0.64,0.31-0.96,0.44c-0.84,0.34-1.68,0.68-2.52,1.02c-3.2,1.3-6.41,2.6-9.61,3.89
				c-0.36,0.15-0.91,0.48-1.23,0.11c-0.23-0.27-0.33-0.7-0.47-1.01c-0.38-0.88-0.75-1.76-1.13-2.64c-0.79-1.83-1.57-3.67-2.36-5.5
				C105.02,59.83,104.16,60.34,104.41,60.92L104.41,60.92z"/>
		</g>
	</g>
	<g>
		<g>
			<path d="M107.37,65.13c5.26-1.73,10.35-3.92,15.22-6.55c0.57-0.31,0.06-1.17-0.5-0.86c-4.8,2.59-9.81,4.74-14.98,6.45
				C106.5,64.37,106.76,65.33,107.37,65.13L107.37,65.13z"/>
		</g>
	</g>
	<g>
		<g>
			<path d="M108.67,67.9c5.23-1.53,10.29-3.6,15.09-6.17c0.57-0.3,0.06-1.17-0.5-0.86c-4.73,2.53-9.7,4.56-14.85,6.07
				C107.79,67.11,108.05,68.08,108.67,67.9L108.67,67.9z"/>
		</g>
	</g>
</g>
</svg>
