<?xml version="1.0" encoding="utf-8"?>
<!-- Generator: Adobe Adobe Illustrator 24.2.0, SVG Export Plug-In . SVG Version: 6.00 Build 0)  -->
<svg version="1.1" xmlns="http://www.w3.org/2000/svg" xmlns:xlink="http://www.w3.org/1999/xlink" x="0px" y="0px"
	 viewBox="0 0 170.08 170.08" style="enable-background:new 0 0 170.08 170.08;" xml:space="preserve">
<style type="text/css">
	.st0{opacity:0.051;stroke:#000000;stroke-miterlimit:10;}
	.st1{fill:#FFFFFF;}
	.st2{fill:#56A8A5;}
	.st3{fill:#59ADAA;}
	.st4{fill:#F3C059;}
	.st5{opacity:0.2902;}
	.st6{opacity:0.4118;fill:#CA5B7B;stroke:#CB5A7B;stroke-width:1.1298;stroke-miterlimit:10;}
	.st7{opacity:0.5294;fill:#C85B7B;stroke:#CA5A7A;stroke-width:1.1849;stroke-miterlimit:10;}
	.st8{stroke:#000000;stroke-width:0.9651;stroke-miterlimit:10;}
	.st9{fill:#FFFFFF;stroke:#FFFFFF;stroke-width:0.1831;stroke-miterlimit:10;}
	.st10{fill:#FFFFFF;stroke:#FFFFFF;stroke-width:0.1916;stroke-miterlimit:10;}
	.st11{stroke:#000000;stroke-miterlimit:10;}
	.st12{fill:#FFFFFF;stroke:#FFFFFF;stroke-width:0.321;stroke-miterlimit:10;}
	.st13{fill:#CA5B7A;}
	.st14{fill:#CC5B7A;}
	.st15{fill:#CB5A7B;}
	.st16{opacity:0.0902;}
	.st17{fill:#F2C057;}
</style>
<g id="Ebene_4">
</g>
<g id="Ebene_36">
	<ellipse class="st0" cx="77.01" cy="148.9" rx="56.5" ry="9.25"/>
</g>
<g id="Ebene_16">
	<g>
		<g>
			<path class="st1" d="M24.89,145.83c-0.56-3.52,0.43-7.35,3.16-9.75c2.59-2.27,6.41-2.94,9.42-1.09c1.54,0.95,2.7,2.44,3.13,4.21
				c0.12,0.51,0.8,0.43,0.96,0c1.17-3.15,4.3-5.44,7.68-5.47c3.67-0.03,6.88,2.37,8.09,5.78c0.74,2.08,0.89,4.31,1.03,6.49
				c0.17-0.17,0.33-0.33,0.5-0.5c-5.3,0.47-10.63,0.36-15.91-0.34c-0.28-0.04-0.49,0.26-0.5,0.5c-0.02,0.39-0.03,0.77-0.05,1.16
				c0.17-0.17,0.33-0.33,0.5-0.5c-6.02-0.22-12.04-0.43-18.06-0.65c-0.64-0.02-0.64,0.98,0,1c6.02,0.22,12.04,0.43,18.06,0.65
				c0.28,0.01,0.49-0.24,0.5-0.5c0.02-0.39,0.03-0.77,0.05-1.16c-0.17,0.17-0.33,0.33-0.5,0.5c5.28,0.7,10.61,0.81,15.91,0.34
				c0.26-0.02,0.52-0.21,0.5-0.5c-0.27-4.13-0.76-8.62-4.31-11.31c-3.08-2.34-7.33-2.6-10.61-0.52c-1.77,1.13-3.12,2.79-3.85,4.76
				c0.32,0,0.64,0,0.96,0c-0.86-3.56-4.35-6.08-7.97-6.05c-3.99,0.04-7.5,2.76-8.97,6.39c-0.88,2.16-1.06,4.52-0.69,6.81
				C24.03,146.73,24.99,146.46,24.89,145.83L24.89,145.83z"/>
		</g>
	</g>
</g>
<g id="Ebene_24">
	<g>
		<path class="st2" d="M91.99,49.18c0.52-9.82-10.89-10.66-11.79-3.9c-0.39,2.9,0.83,5.75,3.65,6.56c-1.31,2.2,0.58,5.14,2.11,7.19
			c2.03,2.73,4.23,5.81,8.42,5.34c0.42-0.05,0.37,1.78,0.61,2.12c0.15,0.21-0.07-0.25-0.04,0c0.42,3.58-0.39,5.76,1.15,10.17
			c0.14,0.41,1.39,1.97,1.73,2.24c0.47,0.37,1.06-1.25,1.42-1.72c0.37-0.47,0.44-1.11,0.46-1.7c0.07-1.82-0.26-3.65-0.95-5.33
			c0.48,1.33,1.24,2.55,2.22,3.56c0.39,0.4,1.45,2.14,1.99,2.29s1-1.1,1.3-1.56c0.39-0.6,0.68-2.37,0.34-3
			c-1.74-3.19-4.83-5.52-7.09-8.37c0.69-0.04,1.25-0.66,1.39-1.34c0.14-0.68-0.06-1.38-0.37-2c-0.73-1.45-2.08-2.57-3.64-3.01
			c1.43-0.21,3.49-2.94,4.41-2.76c1.25,0.24,3.33,0.48,4.51,0.02c1.19-0.46,1.32-1.92,0.72-3.04c2.94-1,7.45-2.7,4.87-5.07
			c0.97-0.71,3.85-1.91,4.44-2.96c0.59-1.05-1.65-2.14-2.5-3c5.17-3.34,7-3.9,6.47-4.76c-0.4-0.65-3.17-0.18-3.83,0.19
			c-7.74,4.33-15.34,9.39-22.8,14.18"/>
		<g>
			<path class="st3" d="M92.49,49.18c0.1-2.14-0.33-4.34-1.65-6.07c-1.03-1.34-2.54-2.3-4.22-2.61c-3.3-0.6-6.48,1.35-6.91,4.77
				c-0.39,3.01,0.97,6.11,4.01,7.05c-0.1-0.24-0.2-0.49-0.3-0.73c-1.65,2.95,1.03,6.29,2.74,8.55c1.71,2.26,3.72,4.46,6.71,4.75
				c0.36,0.04,1.07,0.16,1.4-0.01c0.29-0.14-0.23-0.05-0.15-0.13c-0.01,0.01,0.04,0.12,0.04,0.14c-0.02,0.13,0.07,0.34,0.09,0.47
				c0.08,0.53,0.07,1.11,0.42,1.54c0.13,0.16,0.44,0.19,0.61,0.08c0,0,0.01,0,0.01-0.01c0.17-0.11,0.31-0.35,0.23-0.56
				c-0.05-0.14-0.11-0.23-0.2-0.34c-0.11-0.13-0.32-0.17-0.49-0.13c-0.01,0-0.01,0-0.02,0.01c-0.21,0.06-0.37,0.26-0.37,0.48
				c-0.01,0.8,0.13,1.62,0.14,2.43c0.01,0.78-0.01,1.56,0.01,2.34c0.05,1.83,0.34,3.64,0.94,5.38c0.2,0.59,0.57,1.07,0.95,1.56
				c0.31,0.4,0.68,1.01,1.15,1.24c0.56,0.28,1.01-0.22,1.3-0.65c0.35-0.53,0.75-1.17,1-1.75c0.43-1,0.33-2.26,0.21-3.31
				c-0.13-1.26-0.44-2.47-0.91-3.65c-0.23-0.59-1.19-0.34-0.96,0.27c0.36,0.97,0.83,1.88,1.45,2.71c0.44,0.6,0.97,1.12,1.41,1.72
				c0.58,0.8,1.65,2.56,2.73,1.36c0.9-1.01,1.45-2.59,1.4-3.93c-0.03-0.81-0.46-1.43-0.9-2.09c-0.55-0.82-1.18-1.59-1.84-2.32
				c-1.52-1.7-3.21-3.25-4.64-5.03c-0.12,0.28-0.24,0.57-0.35,0.85c2.02-0.27,2.22-2.46,1.49-4c-0.77-1.63-2.27-2.82-3.98-3.34
				c0,0.32,0,0.64,0,0.96c1.08-0.2,1.98-1.12,2.79-1.8c0.35-0.3,0.79-0.77,1.25-0.91c0.44-0.14,1.11,0.12,1.58,0.17
				c1.22,0.13,2.92,0.28,3.94-0.56c1.04-0.85,0.94-2.32,0.39-3.41c-0.1,0.24-0.2,0.49-0.3,0.73c2.12-0.72,8.31-2.82,5.09-5.91
				c-0.03,0.26-0.07,0.52-0.1,0.79c1.41-1,3.4-1.51,4.47-2.92c1.24-1.64-1.5-2.93-2.43-3.82c-0.03,0.26-0.07,0.52-0.1,0.79
				c1.28-0.82,2.58-1.62,3.88-2.4c0.71-0.42,1.43-0.83,2.09-1.32c0.37-0.28,0.79-0.63,0.82-1.13c0.04-0.63-0.48-1-1.04-1.11
				c-2.52-0.48-4.72,1.13-6.76,2.32c-3.14,1.84-6.23,3.76-9.3,5.71c-3.47,2.21-6.91,4.46-10.37,6.68c-0.54,0.35-0.04,1.21,0.5,0.86
				c5.5-3.54,10.96-7.14,16.56-10.53c1.41-0.86,2.83-1.7,4.26-2.52c1.01-0.58,1.95-1.23,3.11-1.44c0.44-0.08,0.88-0.13,1.32-0.13
				c0.17,0,0.34,0.01,0.51,0.04c0.15,0.03,0.21,0.1,0.23,0.1c-0.08-0.01,0.06-0.13-0.03-0.03c-0.03,0.04-0.21,0.22-0.33,0.32
				c-0.64,0.5-1.38,0.89-2.08,1.31c-1.31,0.78-2.6,1.58-3.88,2.4c-0.26,0.17-0.34,0.55-0.1,0.79c0.55,0.53,1.21,0.93,1.79,1.43
				c0.21,0.18,0.65,0.51,0.66,0.82c0,0.24-0.27,0.45-0.43,0.59c-1.14,0.99-2.64,1.47-3.86,2.33c-0.25,0.18-0.35,0.55-0.1,0.79
				c0.39,0.37,0.77,0.83,0.54,1.38c-0.2,0.49-0.74,0.85-1.17,1.12c-1.24,0.78-2.65,1.26-4.03,1.73c-0.32,0.11-0.45,0.43-0.3,0.73
				c0.25,0.5,0.4,1.13,0.18,1.67c-0.24,0.59-0.83,0.75-1.41,0.83c-0.64,0.09-1.31,0.05-1.95,0c-0.56-0.05-1.13-0.23-1.69-0.24
				c-0.77-0.01-1.47,0.69-2.01,1.15c-0.71,0.6-1.51,1.46-2.46,1.64c-0.51,0.09-0.44,0.83,0,0.96c1.16,0.35,2.2,1.06,2.91,2.06
				c0.36,0.51,0.67,1.09,0.75,1.72c0.09,0.63-0.16,1.49-0.91,1.59c-0.44,0.06-0.64,0.5-0.35,0.85c1.32,1.65,2.87,3.1,4.3,4.65
				c0.75,0.81,1.47,1.66,2.08,2.58c0.22,0.34,0.53,0.73,0.66,1.11c0.12,0.37,0.06,0.83,0,1.21c-0.11,0.71-0.4,1.28-0.74,1.9
				c-0.1,0.17-0.21,0.33-0.31,0.5c-0.12,0.2-0.08,0.1-0.12,0.09c-0.26-0.09-0.57-0.62-0.72-0.83c-1.13-1.49-2.4-2.83-3.06-4.62
				c-0.32,0.09-0.64,0.18-0.96,0.27c0.46,1.15,0.78,2.36,0.89,3.61c0.09,1.05,0.18,2.2-0.41,3.12c-0.19,0.3-0.34,0.61-0.51,0.92
				c-0.06,0.11-0.16,0.24-0.22,0.36c-0.04,0.06-0.09,0.12-0.14,0.18c0.24,0.1,0.3,0.1,0.18,0c-0.04-0.2-0.51-0.57-0.65-0.74
				c-0.23-0.28-0.45-0.57-0.65-0.87c-0.5-0.75-0.67-1.77-0.85-2.64c-0.18-0.89-0.28-1.78-0.31-2.69c-0.03-0.81-0.02-1.61-0.02-2.42
				c-0.01-0.89-0.15-1.79-0.14-2.67c-0.12,0.16-0.24,0.32-0.37,0.48c0.01,0,0.01,0,0.02-0.01c-0.16-0.04-0.32-0.09-0.49-0.13
				c-0.02-0.03-0.04-0.07-0.06-0.1c0.08-0.19,0.15-0.38,0.23-0.56c0,0-0.01,0-0.01,0.01c0.2,0.03,0.4,0.05,0.61,0.08
				c0.08,0.1-0.02-0.17-0.04-0.23c-0.03-0.16-0.05-0.32-0.07-0.48c-0.04-0.32-0.07-0.65-0.17-0.96c-0.26-0.78-0.81-0.61-1.5-0.6
				c-1.83,0.02-3.4-0.82-4.68-2.07c-1.26-1.23-2.33-2.71-3.31-4.16c-1.04-1.54-2.36-3.75-1.33-5.6c0.16-0.29,0.01-0.64-0.3-0.73
				c-2.49-0.77-3.54-3.28-3.32-5.73c0.12-1.37,0.75-2.66,1.91-3.43c2.31-1.53,5.48-0.78,7.23,1.22c1.38,1.58,1.78,3.72,1.68,5.76
				C91.46,49.82,92.46,49.82,92.49,49.18L92.49,49.18z"/>
		</g>
	</g>
	<g>
		<path class="st2" d="M90.93,45.34c2.32-5.91,6.07-11.44,10.2-16.26c0.25-0.29,1.44-0.85,1.82-0.82c0.7,0.05,1.48,0.3,1.32,0.98
			c-0.49,2.05-1.9,4.8-2.78,6.72c0.69-0.78,1.6-1.36,2.6-1.67c0.41-0.12,2.39-0.55,2.73-0.3c0.67,0.5-0.54,2.83-1.08,3.47
			c-3.5,4.13-8.95,11.12-14.35,10.77c-0.38-0.02,0.85-1.88,1-2.23"/>
		<g>
			<path class="st3" d="M91.42,45.48c1.51-3.81,3.57-7.39,5.92-10.73c1.19-1.69,2.46-3.31,3.79-4.89c0.43-0.51,0.98-0.94,1.66-1.07
				c0.22-0.04,0.71-0.02,0.88,0.17c0.23,0.23-0.09,0.88-0.19,1.18c-0.64,1.93-1.58,3.74-2.43,5.58c-0.22,0.48,0.37,1.05,0.79,0.61
				c0.73-0.79,1.63-1.36,2.69-1.62c0.38-0.09,0.77-0.17,1.16-0.22c0.18-0.02,0.36-0.05,0.54-0.05c0.09,0,0.18-0.01,0.28,0
				c0.15,0.01,0.01-0.03,0.01-0.04c0.21,0.61-0.44,1.65-0.73,2.15c-0.42,0.73-1.03,1.35-1.57,2c-1.44,1.71-2.9,3.4-4.51,4.94
				c-1.54,1.47-3.26,2.91-5.25,3.71c-0.49,0.2-0.99,0.35-1.51,0.45c-0.26,0.05-0.51,0.08-0.78,0.1c-0.1,0.01-0.2,0.01-0.3,0.01
				c-0.1,0-0.2,0-0.3,0c0.09,0.15,0.18,0.3,0.27,0.44c0,0,0.47-0.96,0.51-1.03c0.17-0.3,0.36-0.59,0.51-0.9
				c0.27-0.58-0.59-1.09-0.86-0.5c-0.33,0.71-0.97,1.38-1.12,2.17c-0.21,1.14,1.37,0.84,2.04,0.73c2.5-0.39,4.69-1.96,6.54-3.59
				c2.07-1.82,3.87-3.92,5.64-6.02c0.66-0.78,1.34-1.52,1.8-2.44c0.36-0.72,0.94-1.86,0.53-2.67c-0.45-0.89-1.93-0.45-2.67-0.3
				c-1.39,0.28-2.62,0.92-3.59,1.97c0.26,0.2,0.52,0.4,0.79,0.61c0.87-1.89,1.83-3.76,2.5-5.73c0.25-0.75,0.66-1.69-0.08-2.28
				c-0.56-0.45-1.41-0.53-2.07-0.3c-0.86,0.3-1.41,0.73-1.99,1.42c-0.74,0.88-1.46,1.77-2.15,2.68c-1.47,1.91-2.84,3.9-4.08,5.97
				c-1.39,2.31-2.6,4.73-3.59,7.24C90.22,45.81,91.18,46.07,91.42,45.48L91.42,45.48z"/>
		</g>
	</g>
	<g>
		<g>
			<path class="st4" d="M76.34,48c0.64,0,0.64-1,0-1C75.7,47,75.7,48,76.34,48L76.34,48z"/>
		</g>
	</g>
</g>
<g id="Ebene_28">
</g>
<g id="Ebene_29">
</g>
<g id="Ebene_30">
	<g class="st5">
		<path class="st1" d="M84.06,52.67c-0.03,2.79,0.96,5.58,2.74,7.72c1.78,2.15,4.34,3.63,7.09,4.12c0.18,0.03,0.37,0.06,0.54,0.01
			c0.35-0.09,0.57-0.46,0.61-0.82c0.03-0.36-0.08-0.72-0.2-1.06c-0.86-2.46-2.1-4.82-3.89-6.7c-1.79-1.89-4.18-3.28-6.77-3.58"/>
		<g>
			<path class="st1" d="M83.56,52.67c-0.01,5.08,3.07,9.69,7.77,11.62c0.54,0.22,1.1,0.4,1.66,0.54c0.53,0.13,1.18,0.33,1.71,0.12
				c1.19-0.48,0.81-1.92,0.48-2.83c-0.88-2.39-2.12-4.68-3.88-6.54c-1.9-2-4.38-3.37-7.12-3.72c-0.64-0.08-0.63,0.92,0,1
				c4.33,0.55,7.51,3.98,9.29,7.75c0.23,0.49,0.44,0.99,0.64,1.49c0.17,0.44,0.61,1.24,0.39,1.71c-0.29,0.64-2.4-0.28-2.9-0.49
				c-1.92-0.8-3.64-2.14-4.86-3.83c-1.43-1.98-2.18-4.38-2.17-6.83C84.56,52.02,83.56,52.02,83.56,52.67L83.56,52.67z"/>
		</g>
	</g>
</g>
<g id="Ebene_27">
	<g>
		<g>
			<path d="M71.55,48.16c0.64,0,0.64-1,0-1C70.91,47.16,70.9,48.16,71.55,48.16L71.55,48.16z"/>
		</g>
	</g>
</g>
<g id="Ebene_21">
	<ellipse class="st6" cx="24.33" cy="55.51" rx="6.93" ry="6.26"/>
</g>
<g id="Ebene_23">
</g>
<g id="Ebene_10">
	<g>
		<path class="st1" d="M25.33,145.3c0.58-2.2,1.17-4.44,2.44-6.33c1.26-1.89,3.35-3.38,5.62-3.33c2.94,0.07,5.31,2.73,6.03,5.59
			c0.07,0.28,0.18,0.61,0.46,0.67c0.18,0.04,0.35-0.06,0.5-0.15c1.65-1.02,2.95-2.5,4.45-3.73c1.5-1.23,3.35-2.25,5.28-2.03
			c1.82,0.2,3.38,1.49,4.34,3.04s1.42,3.36,1.83,5.15c-4.53-0.47-9.07-0.74-13.62-0.82c0.04,0.45-0.08,0.91-0.33,1.28
			c-5,0.08-10.01,0.16-15.01,0.23"/>
		<g>
			<path class="st1" d="M27.74,145.97c0.72-2.72,1.75-7.45,5.27-7.82c1.13-0.12,2.19,0.59,2.88,1.45c1.14,1.4,1.02,3.55,2.73,4.46
				c2.1,1.13,4.19-0.88,5.66-2.19c1.26-1.13,2.48-2.51,4.08-3.15c3.64-1.47,4.94,3.64,5.51,6.12c0.8-1.05,1.61-2.11,2.41-3.16
				c-4.53-0.46-9.07-0.73-13.62-0.82c-1.35-0.02-2.5,1.17-2.5,2.5c0.04,0,0.04,0.01,0.01,0.02c0.72-0.41,1.44-0.83,2.16-1.24
				c-5,0.08-10.01,0.16-15.01,0.23c-3.21,0.05-3.22,5.05,0,5c3.31-0.05,6.62-0.1,9.93-0.15c1.61-0.03,3.23,0.01,4.84-0.08
				c2.1-0.11,3.08-1.83,3.07-3.79c-0.83,0.83-1.67,1.67-2.5,2.5c4.55,0.08,9.09,0.36,13.62,0.82c1.7,0.17,2.74-1.73,2.41-3.16
				c-0.99-4.27-3.03-9.15-7.92-9.94c-2.5-0.4-4.9,0.54-6.88,2.03c-1.7,1.28-3.11,3.14-5.02,4.12c0.42-0.11,0.84-0.23,1.26-0.34
				c-0.09,0.01-0.17,0.02-0.26,0.03c0.42,0.11,0.84,0.23,1.26,0.34c-0.08-0.05-0.15-0.09-0.23-0.14c0.3,0.3,0.6,0.6,0.9,0.9
				c-0.34-0.58-0.65-1.88-1.12-2.68c-0.58-0.99-1.33-1.93-2.22-2.66c-1.95-1.61-4.36-2.35-6.87-1.83
				c-5.36,1.11-7.46,6.63-8.68,11.31C22.1,147.75,26.92,149.08,27.74,145.97L27.74,145.97z"/>
		</g>
	</g>
</g>
<g id="Ebene_18">
	<g>
		<path class="st1" d="M30.11,70.13c-1.91,10.83-3.81,21.67-5.72,32.5c-0.35,2.01-0.47,4.56,1.3,5.56c0.73,0.42,1.62,0.44,2.46,0.44
			c7.51,0.08,15.01,0.16,22.52,0.23c1.35,0.01,2.86-0.04,3.79-1.01c1.27-1.33,0.7-3.49,0.08-5.22c-3.75-10.53-6.37-21.46-7.82-32.55
			c5.05-3.04,9.46-7.47,11.44-13.02s1.15-12.28-2.93-16.53c-1.09-1.14-2.38-2.07-3.73-2.88c-5.31-3.19-11.82-4.45-17.87-3.13
			S22.07,39.8,19.22,45.3c-2.27,4.37-2.79,9.71-1,14.3c1.8,4.59,6.03,8.25,10.9,8.94"/>
		<g>
			<path class="st1" d="M27.7,69.46c-1.42,8.04-2.83,16.09-4.25,24.13c-0.32,1.81-0.64,3.61-0.95,5.42
				c-0.32,1.84-0.79,3.74-0.82,5.62c-0.02,1.38,0.23,2.82,0.97,4.01c1.12,1.8,3.06,2.41,5.08,2.5c3.88,0.17,7.8,0.08,11.68,0.12
				c3.87,0.04,7.76,0.17,11.63,0.12c1.75-0.02,3.56-0.3,4.92-1.5c1.27-1.13,1.83-2.8,1.75-4.47c-0.08-1.67-0.69-3.21-1.22-4.76
				c-0.62-1.79-1.2-3.58-1.76-5.39c-2.51-8.21-4.38-16.64-5.5-25.16c-0.41,0.72-0.83,1.44-1.24,2.16
				c6.41-3.92,12.19-10.06,13.41-17.74c0.6-3.8,0.22-7.6-1.32-11.14c-1.63-3.74-4.7-6.47-8.23-8.4c-7.29-3.97-16.09-4.63-23.71-1.22
				c-7.23,3.24-12.51,10.08-13.36,17.99c-0.94,8.7,4.72,17.8,13.7,19.21c1.33,0.21,2.69-0.34,3.08-1.75
				c0.33-1.19-0.4-2.86-1.75-3.08c-6.03-0.95-10.11-6.28-10.14-12.28c-0.04-6.23,3.71-11.74,9.01-14.77
				c5.66-3.24,12.6-3.28,18.56-0.81c2.81,1.17,5.75,2.93,7.42,5.54c1.57,2.44,2.16,5.31,2.02,8.2c-0.36,6.94-5.57,12.49-11.21,15.93
				c-0.68,0.42-1.35,1.31-1.24,2.16c0.9,6.86,2.18,13.66,3.94,20.35c0.86,3.27,1.82,6.52,2.89,9.73c0.48,1.43,1.06,2.85,1.45,4.31
				c0.21,0.76,0.57,1.55-0.27,1.8c-1.21,0.36-2.76,0.07-4.01,0.06c-1.79-0.02-3.59-0.04-5.38-0.06c-3.59-0.04-7.18-0.07-10.77-0.11
				c-0.82-0.01-1.63-0.02-2.45-0.03c-0.72-0.01-1.62,0.14-2.32-0.04c-0.4-0.1-0.29,0.05-0.48-0.24c-0.21-0.33-0.15-0.98-0.14-1.41
				c0.05-1.38,0.4-2.76,0.64-4.12c0.32-1.81,0.64-3.61,0.95-5.42c1.42-8.04,2.83-16.09,4.25-24.13c0.23-1.33-0.36-2.69-1.75-3.08
				C29.56,67.39,27.93,68.13,27.7,69.46L27.7,69.46z"/>
		</g>
	</g>
</g>
<g id="Ebene_26">
	<ellipse class="st7" cx="25.89" cy="56.4" rx="5.38" ry="5.38"/>
</g>
<g id="Ebene_22">
	<g>
		<g>
			<path d="M45.25,33.33c-1.22-0.76-2.67-1.1-4.08-1.29c-1.87-0.25-3.77-0.21-5.64,0c-4.43,0.5-8.83,1.93-12.59,4.35
				c-3.99,2.58-7.15,6.36-8.42,10.99c-0.72,2.64-0.81,5.41-0.54,8.12c0.24,2.44,0.8,4.84,1.81,7.09c1.71,3.79,4.74,6.8,8.49,8.57
				c3.73,1.76,7.93,2.36,12.03,2.18c4.19-0.19,8.34-1.16,12.17-2.85c3.34-1.48,6.54-3.57,8.77-6.51c2.27-3,3.97-6.5,4.47-10.25
				c0.42-3.12-0.05-6.27-1.3-9.16c-2.51-5.8-7.84-10.08-13.62-12.37c-1.43-0.57-2.91-1-4.42-1.31c-0.63-0.13-0.9,0.84-0.27,0.96
				c5.93,1.21,11.66,4.53,15.27,9.45c1.77,2.41,3.01,5.21,3.38,8.19c0.41,3.3-0.28,6.64-1.71,9.63c-1.11,2.33-2.58,4.56-4.49,6.32
				c-1.29,1.19-2.75,2.19-4.28,3.04c-3.43,1.9-7.26,3.09-11.14,3.61c-3.94,0.53-8.03,0.37-11.84-0.82
				c-3.66-1.14-6.98-3.34-9.16-6.53c-2.67-3.9-3.57-8.91-3.25-13.57c0.33-4.74,2.57-9.02,6.15-12.11c3.29-2.84,7.45-4.63,11.68-5.54
				c3.34-0.72,7.13-1.07,10.45-0.02c0.55,0.17,1.08,0.4,1.58,0.71C45.29,34.53,45.8,33.67,45.25,33.33L45.25,33.33z"/>
		</g>
	</g>
	<g>
		<g>
			<path d="M27.5,72.43c-1.92,9.59-3.96,19.15-5.89,28.73c-0.39,1.94-0.98,4.05-0.48,6.02c0.45,1.78,1.87,2.94,3.58,3.45
				c1.84,0.55,3.82,0.47,5.72,0.48c2.53,0.01,5.06-0.02,7.59-0.09c5.06-0.13,10.11-0.39,15.16-0.79c0.99-0.08,2.26,0.01,3.09-0.63
				c0.47-0.37,0.79-0.96,0.93-1.54c0.15-0.62,0.11-1.29,0.06-1.91c-0.17-2.19-0.65-4.35-1.14-6.49c-0.68-2.99-1.47-5.95-2.28-8.9
				c-1.66-6-3.47-11.96-5.31-17.91c-0.17-0.56-0.35-1.12-0.52-1.68c-0.19-0.61-1.16-0.35-0.96,0.27c1.68,5.44,3.36,10.89,4.92,16.37
				c1.53,5.33,3.1,10.72,4.02,16.19c0.14,0.85,0.27,1.7,0.31,2.56c0.03,0.63,0.05,1.1-0.19,1.64c-0.51,1.12-1.87,0.95-2.91,1.04
				c-1.2,0.1-2.4,0.18-3.6,0.26c-2.4,0.16-4.8,0.29-7.21,0.39c-4.73,0.19-9.48,0.33-14.21,0.21c-1.65-0.04-3.56-0.19-4.89-1.28
				c-1.62-1.33-1.43-3.55-1.09-5.4c0.84-4.56,1.84-9.1,2.78-13.64c0.95-4.57,1.89-9.13,2.82-13.71c0.23-1.12,0.46-2.25,0.68-3.37
				C28.59,72.07,27.63,71.8,27.5,72.43L27.5,72.43z"/>
		</g>
	</g>
	<g>
		<g>
			<path d="M27.13,72.45c-5.51,2.79-10.83,5.96-15.9,9.5c-1.14,0.8-2.38,1.56-3.41,2.49C7,85.18,6.6,86.24,7.28,87.22
				c0.33,0.48,0.82,0.82,1.3,1.15c0.61,0.43,1.24,0.85,1.87,1.26c1.26,0.81,2.55,1.58,3.87,2.3c2.93,1.61,5.99,2.98,9.14,4.11
				c-0.07-0.28-0.15-0.56-0.22-0.84c-1.82,2.18-3.36,4.57-4.56,7.15c0.23-0.06,0.46-0.12,0.68-0.18c-1.66-0.96-2.87-3.25-1.87-5.09
				c0.78-1.44,2.99-2.16,4.32-1.04c0.49,0.41,1.2-0.29,0.71-0.71c-1.78-1.51-4.63-0.83-5.82,1.11c-1.41,2.31-0.01,5.33,2.16,6.58
				c0.22,0.13,0.57,0.07,0.68-0.18c1.16-2.5,2.63-4.84,4.4-6.95c0.25-0.3,0.15-0.7-0.22-0.84c-5.15-1.85-10.05-4.38-14.54-7.51
				c-0.42-0.29-1.06-0.66-1.22-1.18c-0.21-0.68,0.49-1.2,0.96-1.55c1.1-0.84,2.25-1.63,3.39-2.42c2.29-1.58,4.63-3.08,7.01-4.51
				c2.72-1.63,5.49-3.16,8.31-4.59C28.21,73.02,27.7,72.16,27.13,72.45L27.13,72.45z"/>
		</g>
	</g>
	<g>
		<g>
			<path d="M24.26,146.98c-0.65-4.27,0.94-9.01,4.42-11.68c1.4-1.08,3.14-1.77,4.93-1.65c2,0.13,3.7,1.35,4.93,2.87
				c2.38,2.95,3.34,6.94,3.92,10.6c0.16-0.21,0.32-0.42,0.48-0.63c-6.44,0.06-12.89,0.12-19.33,0.18c-0.64,0.01-0.64,1.01,0,1
				c6.44-0.06,12.89-0.12,19.33-0.18c0.35,0,0.53-0.32,0.48-0.63c-0.57-3.57-1.51-7.32-3.62-10.31c-1.3-1.84-3.14-3.41-5.42-3.81
				c-4.34-0.75-8.16,2.63-9.91,6.31c-1.21,2.56-1.6,5.4-1.18,8.2C23.4,147.88,24.36,147.61,24.26,146.98L24.26,146.98z"/>
		</g>
	</g>
	<g>
		<g>
			<path d="M24.45,145.86c5.82,0,11.65-0.45,17.47-0.12c0.64,0.04,0.64-0.96,0-1c-5.82-0.33-11.65,0.11-17.47,0.12
				C23.8,144.86,23.8,145.86,24.45,145.86L24.45,145.86z"/>
		</g>
	</g>
	<g>
		<g>
			<path d="M32.34,136.77c1.4-0.02,2.8-0.05,4.2-0.07c0.64-0.01,0.64-1.01,0-1c-1.4,0.02-2.8,0.05-4.2,0.07
				C31.7,135.78,31.7,136.78,32.34,136.77L32.34,136.77z"/>
		</g>
	</g>
	<g>
		<g>
			<path d="M31.8,138.92c1.57-0.24,3.15-0.34,4.74-0.33c0.64,0.01,0.64-0.99,0-1c-1.68-0.01-3.35,0.11-5,0.37
				c-0.27,0.04-0.41,0.38-0.35,0.62C31.27,138.86,31.53,138.96,31.8,138.92L31.8,138.92z"/>
		</g>
	</g>
	<g>
		<g>
			<path d="M41.46,138.53c0.59-1.26,1.72-2.26,2.83-3.05c1.22-0.87,2.6-1.62,4.06-1.96c2.28-0.54,4.64,0.47,6.16,2.18
				c1.44,1.62,2.24,3.74,2.78,5.81c0.24,0.89,0.42,1.8,0.58,2.71c0.06,0.35,0.12,0.7,0.17,1.05c0.02,0.13,0.04,0.25,0.06,0.38
				c0.01,0.06,0.03,0.13,0.03,0.19c0,0.02,0.02,0.05,0.01,0.07c0.02-0.21,0.06-0.1-0.18-0.12c-0.64-0.04-1.33,0.09-1.97,0.12
				c-0.62,0.03-1.23,0.06-1.85,0.08c-1.23,0.04-2.47,0.06-3.7,0.06c-2.51-0.01-5.02-0.12-7.52-0.31c-0.64-0.05-0.64,0.95,0,1
				c4.92,0.39,9.87,0.42,14.8,0.07c0.76-0.05,1.55-0.16,1.4-1.12c-0.05-0.3-0.1-0.6-0.15-0.9c-0.15-0.92-0.31-1.83-0.52-2.74
				c-1.06-4.57-3.83-10.07-9.36-9.65c-1.74,0.13-3.44,0.98-4.88,1.93c-1.41,0.93-2.9,2.13-3.63,3.7
				C40.33,138.6,41.19,139.11,41.46,138.53L41.46,138.53z"/>
		</g>
	</g>
	<g>
		<g>
			<path d="M43.26,145.18c4.92,0.3,9.86,0.39,14.79,0.25c0.64-0.02,0.64-1.02,0-1c-4.93,0.13-9.87,0.05-14.79-0.25
				C42.62,144.14,42.62,145.14,43.26,145.18L43.26,145.18z"/>
		</g>
	</g>
	<g>
		<g>
			<path d="M48.64,136.41c1.29,0,2.58,0,3.86,0c0.64,0,0.64-1,0-1c-1.29,0-2.58,0-3.86,0C47.99,135.41,47.99,136.41,48.64,136.41
				L48.64,136.41z"/>
		</g>
	</g>
	<g>
		<g>
			<path d="M48.1,138.08c1.29-0.22,2.59-0.33,3.9-0.32c0.64,0,0.64-1,0-1c-1.4-0.01-2.79,0.11-4.17,0.35
				c-0.27,0.05-0.42,0.37-0.35,0.62C47.56,138.01,47.83,138.12,48.1,138.08L48.1,138.08z"/>
		</g>
	</g>
	<g>
		<g>
			<path d="M46.52,110.64c0.49,7.29,1.12,14.56,1.9,21.82c0.07,0.63,1.07,0.64,1,0c-0.78-7.26-1.41-14.54-1.9-21.82
				C47.47,110,46.47,110,46.52,110.64L46.52,110.64z"/>
		</g>
	</g>
	<g>
		<g>
			<path d="M31.41,111.21c0.84,7.25,1.29,14.55,1.34,21.85c0,0.64,1,0.64,1,0c-0.05-7.3-0.49-14.6-1.34-21.85
				C32.34,110.57,31.34,110.57,31.41,111.21L31.41,111.21z"/>
		</g>
	</g>
	<g>
		<g>
			<path d="M24.47,55.7c1.78,6.12,7.75,9.08,13.64,10.03c1.89,0.31,3.81,0.44,5.73,0.44c0.64,0,0.64-1,0-1
				c-5.66-0.01-12.35-1.09-16.23-5.64c-1.02-1.19-1.73-2.6-2.17-4.09C25.26,54.82,24.29,55.08,24.47,55.7L24.47,55.7z"/>
		</g>
	</g>
	<ellipse class="st8" cx="42.86" cy="51.01" rx="0.98" ry="2.51"/>
	<ellipse class="st8" cx="42.86" cy="51.01" rx="0.98" ry="2.51"/>
	<ellipse class="st9" cx="43.56" cy="49.61" rx="0.24" ry="0.37"/>
	<ellipse class="st9" cx="48.36" cy="49.49" rx="0.24" ry="0.37"/>
	<ellipse class="st9" cx="48.36" cy="49.61" rx="0.24" ry="0.37"/>
	<ellipse class="st9" cx="48.6" cy="49.61" rx="0.24" ry="0.37"/>
	<ellipse class="st8" cx="47.97" cy="51.01" rx="0.98" ry="2.51"/>
	<ellipse class="st10" cx="48.6" cy="49.58" rx="0.24" ry="0.4"/>
</g>
<g id="Ebene_7">
</g>
<g id="Ebene_20">
	<g>
		<g>
			<path d="M48.23,71.96c1.61,2.76,3.7,5.24,6.19,7.25c1.24,1,2.56,1.91,3.96,2.66c1.07,0.57,2.54,1.22,3.78,0.89
				c0.53-0.14,1.04-0.44,1.52-0.7c0.78-0.42,1.54-0.87,2.3-1.33c2.17-1.31,4.3-2.68,6.41-4.07c2.36-1.56,4.71-3.14,7.02-4.78
				c0.52-0.37,0.02-1.24-0.5-0.86c-3.94,2.81-7.99,5.49-12.1,8.04c-1.44,0.89-2.9,1.83-4.44,2.55c-0.18,0.08-0.28,0.14-0.48,0.19
				c-0.03,0.01-0.07,0.02-0.1,0.02c0.28-0.06-0.36,0-0.34,0c-0.45-0.01-0.89-0.12-1.31-0.26c-1.49-0.5-2.9-1.48-4.16-2.4
				c-2.8-2.06-5.14-4.7-6.89-7.7C48.77,70.9,47.91,71.4,48.23,71.96L48.23,71.96z"/>
		</g>
	</g>
	<g>
		<path class="st1" d="M79.16,71.44c0.98-6,10.36-9.05,11.64-6C91.97,68.21,85.22,75.34,79.16,71.44"/>
		<g>
			<path d="M79.65,71.57c0.36-2.06,1.7-3.76,3.39-4.94c1.49-1.04,3.33-1.86,5.18-1.9c1.16-0.02,2.43,0.39,2.19,1.79
				c-0.31,1.81-1.98,3.39-3.46,4.32c-2.35,1.47-5.14,1.66-7.52,0.16c-0.55-0.34-1.05,0.52-0.5,0.86c2.4,1.51,5.25,1.53,7.76,0.27
				c1.96-0.99,3.89-2.76,4.58-4.91c0.52-1.64-0.26-3.1-1.98-3.41c-1.99-0.35-4.14,0.41-5.85,1.39c-2.29,1.31-4.28,3.43-4.74,6.1
				C78.57,71.94,79.54,72.21,79.65,71.57L79.65,71.57z"/>
		</g>
	</g>
	<g>
		<g>
			<path d="M91.82,48.94c0.19-1.63,0.26-3.35-0.25-4.94c-0.51-1.59-1.59-2.73-3.05-3.51c-1.85-0.98-4-1.23-5.91-0.27
				c-3.21,1.6-4.88,6.15-3.14,9.37c1.2,2.22,3.73,3.01,6.11,3.02c0.64,0,0.64-1,0-1c-1.82-0.01-3.82-0.47-4.94-2.03
				c-0.9-1.24-1.04-2.87-0.68-4.33c0.36-1.49,1.23-2.92,2.51-3.79c1.44-0.99,3.18-1.08,4.8-0.46c1.39,0.53,2.63,1.46,3.2,2.86
				c0.65,1.59,0.56,3.4,0.36,5.07C90.74,49.57,91.74,49.57,91.82,48.94L91.82,48.94z"/>
		</g>
	</g>
	<circle class="st11" cx="86.19" cy="44.34" r="0.69"/>
	<ellipse class="st12" cx="86.39" cy="44.09" rx="0.19" ry="0.25"/>
	<g>
		<g>
			<path d="M83.09,51.98c-0.72,2.63,0.34,5.42,1.65,7.69c1.1,1.9,2.55,3.46,4.49,4.53c1.66,0.91,3.52,1.4,5.41,1.43
				c-0.17-0.17-0.33-0.33-0.5-0.5c-0.25,2.42-0.15,4.87,0.27,7.27c0.22,1.21,0.52,2.41,0.91,3.58c0.31,0.93,0.63,1.97,1.3,2.72
				c1.45,1.6,3.64,0.41,4.16-1.39c0.61-2.1-0.14-4.64-1.06-6.54c-0.25-0.51-1.08-0.15-0.91,0.39c0.29,0.92,0.64,1.83,1.08,2.69
				c0.39,0.78,0.82,1.62,1.53,2.15c1.04,0.79,2.61,0.6,3.52-0.32c1.22-1.24,0.64-3.12,0.11-4.54c-0.6-1.58-1.4-3.08-2.41-4.44
				c-1.13-1.53-2.48-2.87-4.01-4c0,0.29,0,0.58,0,0.86c1.14-0.74,0.74-2.65,0.46-3.73c-0.31-1.18-0.87-2.95-2.13-3.43
				c-0.6-0.23-0.86,0.74-0.27,0.96c0.35,0.13,0.59,0.64,0.75,0.94c0.28,0.53,0.49,1.09,0.64,1.67c0.15,0.56,0.27,1.14,0.28,1.72
				c0,0.28,0.03,0.84-0.24,1.02c-0.34,0.22-0.3,0.64,0,0.86c2.78,2.06,4.94,4.95,6.09,8.21c0.3,0.85,0.71,1.93,0.29,2.8
				c-0.3,0.63-1.07,0.98-1.74,0.91c-0.93-0.09-1.4-1.01-1.8-1.74c-0.49-0.91-0.88-1.87-1.19-2.86c-0.3,0.13-0.61,0.26-0.91,0.39
				c0.79,1.62,1.42,3.76,1.01,5.58c-0.18,0.81-0.84,1.76-1.8,1.59c-0.84-0.15-1.21-1.16-1.47-1.86c-1.37-3.65-1.85-7.57-1.46-11.45
				c0.03-0.27-0.25-0.5-0.5-0.5c-3.18-0.06-6.45-1.6-8.28-4.26c-1.56-2.27-3.08-5.32-2.31-8.13C84.22,51.62,83.26,51.36,83.09,51.98
				L83.09,51.98z"/>
		</g>
	</g>
	<g>
		<g>
			<path d="M93.6,57.26c1.19,0.44,2.48,0.51,3.61-0.14c0.89-0.52,1.52-1.35,2.18-2.12c0.17-0.21,0.2-0.51,0-0.71
				c-0.18-0.18-0.53-0.21-0.71,0c-0.57,0.67-1.14,1.44-1.88,1.9c-0.91,0.57-1.94,0.47-2.94,0.1c-0.25-0.09-0.55,0.1-0.62,0.35
				C93.17,56.93,93.35,57.17,93.6,57.26L93.6,57.26z"/>
		</g>
	</g>
	<g>
		<g>
			<path d="M96.94,54.17c1.98,0.55,4.17,1.17,6.25,0.93c1.28-0.15,2.39-0.75,2.85-2.01c0.19-0.51,0.29-1.11,0.12-1.64
				c-0.15-0.46-0.48-0.81-0.82-1.14c-0.46-0.45-1.16,0.25-0.71,0.71c0.29,0.29,0.59,0.56,0.61,0.99c0.02,0.4-0.13,0.81-0.33,1.14
				c-0.27,0.45-0.72,0.72-1.27,0.86c-0.82,0.21-1.71,0.15-2.55,0.05c-1.32-0.16-2.62-0.49-3.9-0.85
				C96.58,53.04,96.32,54,96.94,54.17L96.94,54.17z"/>
		</g>
	</g>
	<g>
		<g>
			<path d="M101.94,51.4c2.04,0.08,4.17-0.32,6.08-1.02c1.2-0.44,3.29-1.26,3.38-2.8c0.06-0.95-0.99-1.54-1.63-2.07
				c-0.49-0.4-1.21,0.3-0.71,0.71c0.39,0.32,0.81,0.6,1.16,0.98c0.21,0.23,0.23,0.32,0.12,0.55c-0.31,0.67-1.21,1.08-1.83,1.36
				c-2,0.92-4.37,1.38-6.56,1.29C101.3,50.37,101.3,51.37,101.94,51.4L101.94,51.4z"/>
		</g>
	</g>
	<g>
		<g>
			<path d="M104.96,47.41c2.58-0.32,5.2-1,7.38-2.47c0.78-0.53,1.93-1.29,2.11-2.3c0.34-1.87-1.34-3.26-3.09-3.24
				c-0.64,0.01-0.64,1.01,0,1c1.31-0.01,2.32,0.92,2.07,2.25c0,0.02-0.03,0.03-0.04,0.05c-0.01,0.02,0.08-0.09-0.02,0.03
				c-0.11,0.12-0.21,0.25-0.33,0.36c-1.02,1.03-2.36,1.76-3.71,2.27c-1.4,0.53-2.88,0.86-4.37,1.05
				C104.33,46.49,104.32,47.49,104.96,47.41L104.96,47.41z"/>
		</g>
	</g>
	<g>
		<g>
			<path d="M108.58,41.79c1.76-0.92,3.55-1.78,5.33-2.68c1.18-0.59,2.41-1.18,3.46-1.98c0.56-0.43,1.25-1.06,1.06-1.84
				c-0.18-0.75-1.1-1.26-1.78-1.45c-0.65-0.18-1.37,0.01-1.99,0.2c-1.03,0.32-2.02,0.79-2.98,1.27c-2.92,1.46-5.7,3.2-8.46,4.95
				c-3.87,2.45-7.68,5.01-11.48,7.56c-0.53,0.36-0.03,1.22,0.5,0.86c5.81-3.9,11.61-7.91,17.73-11.33c1.73-0.97,3.64-2.14,5.62-2.52
				c0.62-0.12,1.08-0.01,1.61,0.41c0.08,0.07,0.17,0.14,0.22,0.23c0.04,0.06,0.03,0.1,0.03,0.1c-0.04,0.23-0.29,0.44-0.47,0.6
				c-0.98,0.86-2.27,1.43-3.42,2.01c-1.83,0.93-3.68,1.82-5.5,2.76C107.5,41.22,108.01,42.08,108.58,41.79L108.58,41.79z"/>
		</g>
	</g>
	<g>
		<g>
			<path d="M102.62,41.83c1.51-1.5,3.14-2.9,4.43-4.6c0.52-0.69,1.06-1.48,1.14-2.37c0.08-0.86-0.49-1.55-1.3-1.79
				c-1.2-0.35-2.83-0.08-3.86,0.61c-0.53,0.36-0.03,1.22,0.5,0.86c0.78-0.52,1.93-0.72,2.85-0.56c0.33,0.06,0.61,0.19,0.74,0.39
				c0.09,0.14,0.1,0.35,0.06,0.55c-0.15,0.72-0.65,1.38-1.1,1.94c-0.62,0.77-1.31,1.48-2.02,2.18c-0.71,0.7-1.44,1.37-2.15,2.08
				C101.46,41.58,102.16,42.29,102.62,41.83L102.62,41.83z"/>
		</g>
	</g>
	<g>
		<g>
			<path d="M102.44,35.66c1.44-1.63,2.59-3.99,2.88-6.15c0.1-0.8,0.07-1.8-0.67-2.3c-0.63-0.43-1.52-0.47-2.24-0.31
				c-1.78,0.41-3.09,2.09-4.09,3.49c-1.46,2.06-2.61,4.33-3.75,6.57c-1.22,2.4-2.37,4.87-3.85,7.13c-0.36,0.54,0.51,1.04,0.86,0.5
				c2.45-3.72,4.07-7.93,6.35-11.75c0.94-1.57,2-3.32,3.52-4.4c0.79-0.56,2.82-1.24,2.92,0.3c0.07,1.11-0.42,2.31-0.87,3.3
				c-0.46,1.02-1.01,2.06-1.76,2.9C101.31,35.43,102.01,36.14,102.44,35.66L102.44,35.66z"/>
		</g>
	</g>
	<g>
		<path d="M79.28,44.34c-4.03,1.08-12.88,3.97-12.95,4.48c4.19-0.43,6.22-0.29,12.83-1.33"/>
		<g>
			<path d="M79.14,43.86c-2.78,0.75-5.53,1.63-8.25,2.55c-1.17,0.4-2.35,0.81-3.49,1.28c-0.45,0.19-1.41,0.44-1.55,1
				c-0.08,0.29,0.15,0.67,0.48,0.63c1.86-0.19,3.72-0.29,5.58-0.44c2.48-0.2,4.94-0.52,7.39-0.9c0.63-0.1,0.36-1.06-0.27-0.96
				c-2.41,0.38-4.83,0.69-7.26,0.88c-1.81,0.14-3.63,0.25-5.44,0.43c0.16,0.21,0.32,0.42,0.48,0.63c-0.05,0.18-0.2,0.19-0.01,0.11
				c0.13-0.05,0.25-0.13,0.37-0.19c0.35-0.17,0.71-0.31,1.08-0.45c1.15-0.45,2.32-0.85,3.5-1.24c2.53-0.85,5.09-1.66,7.67-2.36
				C80.03,44.66,79.77,43.69,79.14,43.86L79.14,43.86z"/>
		</g>
	</g>
	<g>
		<path class="st13" d="M79.1,37.63c2.28-1.58,4.36-3.45,6.17-5.54c0.54-0.63,1.1-1.42,0.88-2.22c-0.16-0.58-0.7-0.99-1.27-1.21
			c-0.75-0.29-1.61-0.33-2.35-0.02c-1.36,0.56-2.02,2.06-2.56,3.43c0.6-1.23,0.43-2.84-0.55-3.8c-0.98-0.95-2.73-1.04-3.7-0.08
			c-0.79,0.79-0.93,2.04-0.65,3.12c0.28,1.08,0.92,2.02,1.55,2.93c0.68,0.99,1.36,1.98,2.04,2.97"/>
		<g>
			<path d="M79.35,38.07c1.66-1.16,3.22-2.45,4.65-3.88c0.67-0.67,1.35-1.36,1.93-2.12c0.53-0.68,0.95-1.53,0.67-2.4
				c-0.53-1.66-2.91-2.06-4.32-1.45c-1.52,0.66-2.22,2.28-2.79,3.73c-0.21,0.52,0.68,0.9,0.91,0.39c0.66-1.43,0.55-3.26-0.63-4.4
				c-1.08-1.05-2.93-1.23-4.14-0.31c-1.37,1.04-1.43,3-0.84,4.48c0.37,0.93,0.94,1.76,1.51,2.58c0.64,0.93,1.28,1.86,1.92,2.8
				c0.36,0.53,1.23,0.03,0.86-0.5c-0.9-1.31-1.86-2.6-2.7-3.95c-0.72-1.15-1.37-2.68-0.66-4c0.59-1.09,2.04-1.27,3.03-0.62
				c1.1,0.72,1.3,2.3,0.77,3.43c0.3,0.13,0.61,0.26,0.91,0.39c0.43-1.09,0.95-2.41,2.05-3c1.12-0.6,3.88-0.09,3.02,1.66
				c-0.32,0.66-0.9,1.21-1.4,1.75c-0.52,0.56-1.05,1.09-1.61,1.61c-1.15,1.08-2.38,2.07-3.67,2.97
				C78.32,37.57,78.82,38.44,79.35,38.07L79.35,38.07z"/>
		</g>
	</g>
	<g>
		<path class="st14" d="M71.81,57.46c0.91-5.48,4.76-4.77,5.83-3.46c1.58,1.94-0.62,6.1-2.72,10.37
			c-11.69-6.56-10.03-8.65-8.04-10.23c1.33-1.06,3.64,0.74,4.67,1.89"/>
		<g>
			<path d="M72.29,57.6c0.31-1.79,1.26-4.31,3.52-4c0.58,0.08,1.19,0.35,1.52,0.84c0.73,1.06,0.21,2.66-0.16,3.75
				c-0.69,2.06-1.73,4-2.69,5.94c0.23-0.06,0.46-0.12,0.68-0.18c-2.05-1.15-4.09-2.36-5.98-3.77c-0.99-0.74-2.05-1.58-2.75-2.62
				c-0.23-0.34-0.34-0.58-0.44-0.94c-0.05-0.2-0.05-0.45,0-0.65c0.06-0.23,0.12-0.35,0.32-0.62c-0.03,0.04,0.01-0.02,0.07-0.08
				c0.04-0.05,0.09-0.1,0.13-0.14c0.1-0.11,0.21-0.21,0.32-0.3c0.5-0.45,0.97-0.6,1.64-0.38c1.05,0.34,1.97,1.15,2.7,1.95
				c0.43,0.48,1.14-0.23,0.71-0.71c-1.2-1.31-3.61-3.28-5.39-1.88c-0.5,0.39-1,0.85-1.29,1.44c-0.97,1.97,1.07,3.87,2.43,4.99
				c2.15,1.78,4.59,3.21,7.01,4.58c0.22,0.13,0.56,0.07,0.68-0.18c0.97-1.97,2.01-3.94,2.73-6.02c0.48-1.38,0.95-3.11,0.22-4.49
				c-0.88-1.67-3.31-1.95-4.77-0.95c-1.36,0.94-1.94,2.6-2.21,4.16C71.22,57.96,72.18,58.23,72.29,57.6L72.29,57.6z"/>
		</g>
	</g>
	<g>
		<path class="st15" d="M110.15,59.92c0.2-0.78,0.4-1.59,0.29-2.4c-0.11-0.8-0.62-1.6-1.4-1.81c-0.6-0.16-1.26,0.06-1.72,0.47
			c-0.46,0.41-0.75,1-0.91,1.6c-0.39,1.49-0.06,3.07,0.28,4.58c0.2,0.9,0.4,1.8,0.6,2.69c2.25-0.85,4.5-1.71,6.59-2.9
			c0.94-0.54,1.89-1.19,2.4-2.14c0.51-0.96,0.45-2.3-0.4-2.98c-0.66-0.52-1.63-0.51-2.41-0.19c-0.78,0.32-1.94,1.47-2.56,2.04"/>
		<g>
			<path d="M110.64,60.05c0.35-1.38,0.63-2.93-0.37-4.12c-0.9-1.07-2.47-0.95-3.41,0c-1.07,1.08-1.22,2.79-1.07,4.22
				c0.18,1.69,0.65,3.37,1.02,5.03c0.05,0.25,0.37,0.44,0.62,0.35c1.57-0.59,3.13-1.19,4.65-1.9c1.36-0.63,2.86-1.32,3.91-2.41
				c0.87-0.9,1.39-2.21,0.97-3.45c-0.43-1.31-1.76-1.84-3.05-1.59c-1.35,0.27-2.39,1.44-3.36,2.34c-0.47,0.44,0.23,1.14,0.71,0.71
				c0.87-0.8,1.84-1.98,3.08-2.11c1.58-0.17,2.16,1.47,1.47,2.7c-0.75,1.34-2.42,2.07-3.74,2.71c-1.6,0.78-3.26,1.4-4.92,2.03
				c0.21,0.12,0.41,0.23,0.62,0.35c-0.28-1.26-0.59-2.52-0.83-3.79c-0.23-1.19-0.37-2.51,0.1-3.66c0.36-0.9,1.49-1.83,2.38-0.97
				c0.88,0.86,0.51,2.25,0.25,3.29C109.51,60.41,110.48,60.68,110.64,60.05L110.64,60.05z"/>
		</g>
	</g>
</g>
<g id="Ebene_31">
</g>
<g id="Ebene_25">
	<g>
		<g>
			<path d="M95.59,65.75c0.09,2.23,0.26,4.47,0.55,6.69c0.21,1.64,0.43,3.34,1,4.9c0.22,0.6,1.19,0.34,0.96-0.27
				c-0.56-1.53-0.78-3.21-0.99-4.82c-0.28-2.16-0.44-4.33-0.53-6.5C96.57,65.11,95.57,65.11,95.59,65.75L95.59,65.75z"/>
		</g>
	</g>
	<g>
		<g>
			<path d="M97.12,66.38c0.03,3.6,0.59,7.19,1.65,10.63c0.19,0.61,1.15,0.35,0.96-0.27c-1.04-3.36-1.58-6.85-1.61-10.37
				C98.12,65.74,97.12,65.74,97.12,66.38L97.12,66.38z"/>
		</g>
	</g>
	<g>
		<g>
			<path d="M98.67,67.55c1.49,2.3,2.7,4.77,3.61,7.35c0.21,0.6,1.18,0.34,0.96-0.27c-0.94-2.67-2.18-5.22-3.72-7.59
				C99.18,66.51,98.31,67.01,98.67,67.55L98.67,67.55z"/>
		</g>
	</g>
	<g>
		<g>
			<path d="M98.56,65.58c2.28,2.53,3.81,5.52,4.87,8.74c0.2,0.61,1.17,0.35,0.96-0.27c-1.11-3.38-2.73-6.52-5.13-9.18
				C98.84,64.39,98.13,65.1,98.56,65.58L98.56,65.58z"/>
		</g>
	</g>
</g>
<g id="Ebene_32">
</g>
<g id="Ebene_33">
	<g class="st16">
		<path d="M83.53,40.93c-1.11,1.19-1.3,2.96-1.16,4.58c0.08,0.93,0.25,1.87,0.61,2.73c0.5,1.18,1.33,2.19,2.19,3.15
			c-1.53-0.32-3.22-0.74-4.08-2.05c-0.26-0.4-0.43-0.85-0.54-1.31c-0.55-2.26,0.17-4.78,1.84-6.4"/>
		<g>
			<path d="M83.18,40.58c-1.31,1.47-1.49,3.52-1.26,5.4c0.13,1.08,0.39,2.13,0.91,3.1c0.52,0.98,1.25,1.84,1.99,2.67
				c0.16-0.28,0.32-0.56,0.49-0.84c-0.92-0.2-1.88-0.4-2.71-0.87c-0.98-0.55-1.45-1.44-1.64-2.53c-0.35-2,0.37-4.1,1.79-5.52
				c0.46-0.46-0.25-1.16-0.71-0.71c-1.69,1.69-2.46,4.14-2.04,6.5c0.21,1.2,0.77,2.23,1.78,2.93c0.96,0.66,2.14,0.93,3.26,1.17
				c0.49,0.1,0.83-0.46,0.49-0.84c-1.33-1.49-2.34-3.01-2.6-5.03c-0.2-1.59-0.17-3.45,0.96-4.72C84.31,40.8,83.61,40.09,83.18,40.58
				L83.18,40.58z"/>
		</g>
	</g>
	<g class="st16">
		<path d="M93.99,56.15c1.5-0.42,2.97-0.95,4.39-1.59c-0.64,1.13-2.04,1.55-3.32,1.76c-0.18,0.03-0.41,0.02-0.47-0.15"/>
		<g>
			<path d="M94.13,56.63c1.54-0.43,3.05-0.99,4.51-1.64c-0.23-0.23-0.46-0.46-0.68-0.68c-0.3,0.52-0.8,0.87-1.35,1.1
				c-0.32,0.13-0.65,0.22-0.98,0.3c-0.17,0.04-0.33,0.07-0.5,0.1c-0.08,0.01-0.12,0.01-0.17,0.03c-0.06,0-0.08,0-0.04,0.01
				c0.04,0.02,0.08,0.05,0.11,0.08c-0.11-0.25-0.47-0.31-0.68-0.18c-0.25,0.15-0.29,0.44-0.18,0.68c0.24,0.53,0.89,0.41,1.34,0.33
				c0.42-0.08,0.84-0.18,1.24-0.33c0.84-0.31,1.61-0.81,2.07-1.6c0.11-0.19,0.08-0.45-0.08-0.61c-0.17-0.17-0.4-0.17-0.61-0.08
				c-1.38,0.62-2.81,1.13-4.27,1.54C93.24,55.84,93.5,56.81,94.13,56.63L94.13,56.63z"/>
		</g>
	</g>
	<g class="st16">
		<path d="M97.6,53.32c2.71,0.16,5.46-0.43,7.88-1.67c-0.02,1.02-0.97,1.84-1.97,2.06s-2.04-0.01-3.04-0.24
			c-0.64-0.15-1.29-0.3-1.93-0.44"/>
		<g>
			<path d="M97.6,53.82c2.81,0.15,5.62-0.46,8.13-1.74c-0.25-0.14-0.5-0.29-0.75-0.43c-0.06,1.11-1.3,1.63-2.26,1.65
				c-1.35,0.02-2.74-0.45-4.04-0.75c-0.63-0.14-0.89,0.82-0.27,0.96c1.6,0.37,3.36,1,5.02,0.72c1.3-0.21,2.48-1.21,2.55-2.58
				c0.02-0.4-0.43-0.59-0.75-0.43c-2.36,1.2-4.99,1.74-7.62,1.6C96.96,52.79,96.96,53.79,97.6,53.82L97.6,53.82z"/>
		</g>
	</g>
	<g class="st16">
		<path d="M104.98,49.05c1.2-0.56,2.4-1.12,3.6-1.68"/>
		<g>
			<path d="M105.23,49.48c1.2-0.56,2.4-1.12,3.6-1.68c0.24-0.11,0.31-0.47,0.18-0.68c-0.15-0.25-0.44-0.29-0.68-0.18
				c-1.2,0.56-2.4,1.12-3.6,1.68c-0.24,0.11-0.31,0.47-0.18,0.68C104.7,49.55,104.99,49.6,105.23,49.48L105.23,49.48z"/>
		</g>
	</g>
	<g class="st16">
		<path d="M102.14,50.41c2.43-1.08,4.81-2.28,7.12-3.61c0.16-0.09,0.33-0.18,0.5-0.16c0.24,0.03,0.42,0.27,0.44,0.51
			c0.02,0.24-0.08,0.48-0.22,0.68c-0.54,0.81-1.53,1.18-2.46,1.46c-1.57,0.46-3.18,0.78-4.81,0.96"/>
		<g>
			<path d="M102.39,50.84c1.31-0.58,2.6-1.2,3.88-1.85c0.64-0.33,1.27-0.66,1.9-1.01c0.29-0.16,0.58-0.32,0.87-0.48
				c0.16-0.09,0.31-0.17,0.47-0.27c0.13-0.08,0.15-0.14,0.19-0.01c0.06,0.19-0.26,0.51-0.38,0.63c-0.2,0.2-0.43,0.35-0.68,0.48
				c-0.53,0.28-1.12,0.45-1.7,0.61c-1.39,0.38-2.8,0.66-4.23,0.81c-0.63,0.07-0.64,1.07,0,1c1.37-0.15,2.72-0.39,4.05-0.73
				c1.1-0.29,2.31-0.59,3.17-1.38c0.39-0.36,0.76-0.88,0.76-1.43c0-0.53-0.39-1.04-0.94-1.07c-0.61-0.03-1.25,0.52-1.76,0.8
				c-0.6,0.33-1.21,0.66-1.83,0.98c-1.41,0.73-2.84,1.42-4.29,2.06C101.3,50.24,101.81,51.1,102.39,50.84L102.39,50.84z"/>
		</g>
	</g>
	<g class="st16">
		<path d="M105.3,46.24c2.83-1.1,5.39-2.89,7.38-5.19c0.04-0.05,0.1-0.1,0.16-0.09c0.04,0.01,0.07,0.05,0.09,0.09
			c0.57,0.98,0.3,2.36-0.6,3.04c-0.47,0.36-1.05,0.53-1.62,0.69c-1.38,0.39-2.75,0.78-4.13,1.17"/>
		<g>
			<path d="M105.43,46.73c1.48-0.58,2.88-1.32,4.17-2.23c0.64-0.45,1.25-0.94,1.83-1.46c0.28-0.25,0.56-0.52,0.82-0.79
				c0.15-0.15,0.29-0.3,0.44-0.46c0.06-0.06,0.11-0.12,0.17-0.19c0.04-0.05,0.08-0.09,0.13-0.14c0.06-0.06,0.05-0.06-0.02,0
				c-0.13-0.02-0.26-0.03-0.39-0.05c-0.1-0.06-0.09-0.14-0.04,0c0.03,0.07,0.06,0.14,0.09,0.21c0.04,0.12,0.07,0.25,0.09,0.38
				c0.03,0.29-0.01,0.58-0.1,0.86c-0.21,0.63-0.71,1.01-1.31,1.23c-0.75,0.27-1.53,0.45-2.3,0.67c-0.85,0.24-1.71,0.48-2.56,0.72
				c-0.62,0.17-0.36,1.14,0.27,0.96c1.5-0.42,3.01-0.82,4.5-1.27c1.2-0.37,2.22-1.09,2.46-2.39c0.1-0.57,0.06-1.16-0.18-1.69
				c-0.1-0.23-0.22-0.47-0.46-0.57c-0.38-0.15-0.64,0.12-0.87,0.38c-0.9,1.01-1.9,1.92-3,2.7c-1.23,0.88-2.57,1.61-3.99,2.17
				C104.57,45.99,104.83,46.96,105.43,46.73L105.43,46.73z"/>
		</g>
	</g>
	<g class="st16">
		<path d="M108.6,40.69c2.81-1.95,5.62-3.89,8.45-5.82c-0.31,1.02-1.06,1.87-1.93,2.49c-0.87,0.62-1.87,1.04-2.85,1.45"/>
		<g>
			<path d="M108.85,41.12c2.81-1.95,5.62-3.89,8.45-5.82c-0.24-0.19-0.49-0.38-0.73-0.56c-0.63,1.96-2.69,2.86-4.43,3.59
				c-0.25,0.11-0.42,0.33-0.35,0.62c0.06,0.24,0.37,0.45,0.62,0.35c2.1-0.88,4.38-1.95,5.13-4.29c0.13-0.4-0.37-0.81-0.73-0.56
				c-2.82,1.93-5.64,3.87-8.45,5.82C107.82,40.63,108.32,41.49,108.85,41.12L108.85,41.12z"/>
		</g>
	</g>
	<g class="st16">
		<path d="M102.8,27.76c-2.8,1.93-4.56,5.01-6.07,8.06c-1.79,3.61-3.36,7.32-4.69,11.12c-0.45-0.92-0.4-2.02-0.08-3
			s0.87-1.85,1.4-2.73c0.98-1.63,1.89-3.29,2.75-4.98"/>
		<g>
			<path d="M102.55,27.33c-2.9,2.04-4.7,5.12-6.25,8.24c-1.81,3.65-3.39,7.41-4.74,11.24c0.3-0.04,0.61-0.08,0.91-0.12
				c-0.8-1.78,0.36-3.64,1.26-5.13c1-1.66,1.93-3.35,2.8-5.08c0.29-0.57-0.57-1.08-0.86-0.5c-1.01,1.99-2.14,3.9-3.26,5.83
				c-0.96,1.66-1.64,3.54-0.81,5.39c0.19,0.43,0.79,0.24,0.91-0.12c1.3-3.68,2.81-7.29,4.54-10.79c1.49-3.02,3.18-6.11,5.99-8.09
				C103.58,27.82,103.08,26.96,102.55,27.33L102.55,27.33z"/>
		</g>
	</g>
	<g class="st16">
		<g>
			<path d="M95.34,66.82c0.64,0,0.64-1,0-1C94.7,65.82,94.7,66.82,95.34,66.82L95.34,66.82z"/>
		</g>
	</g>
	<g class="st16">
		<path d="M95.79,65.99c-0.67,4.11-0.1,8.43,1.64,12.22c-1.31-3.03-2.07-6.29-2.23-9.58c-0.04-0.84-0.04-1.71,0.29-2.48"/>
		<g>
			<path d="M95.31,65.85c-0.68,4.29-0.1,8.65,1.69,12.6c0.27,0.59,1.11,0.08,0.86-0.5c-0.79-1.86-1.38-3.8-1.75-5.78
				c-0.18-0.99-0.31-1.98-0.38-2.99c-0.07-0.99-0.13-1.98,0.24-2.91c0.24-0.6-0.73-0.86-0.96-0.27c-0.39,0.98-0.35,2.03-0.28,3.07
				c0.07,1.05,0.2,2.1,0.39,3.14c0.38,2.15,1.03,4.23,1.89,6.24c0.29-0.17,0.58-0.34,0.86-0.5c-1.66-3.69-2.22-7.84-1.59-11.83
				C96.37,65.49,95.41,65.22,95.31,65.85L95.31,65.85z"/>
		</g>
	</g>
	<g class="st16">
		<path d="M98.12,66.74c-0.18,3.36,1.59,6.55,1.67,9.92c-0.6-1.02-0.93-2.2-0.95-3.38"/>
		<g>
			<path d="M97.62,66.74c-0.15,3.41,1.56,6.54,1.67,9.92c0.31-0.08,0.62-0.17,0.93-0.25c-0.55-0.96-0.85-2.02-0.88-3.13
				c-0.02-0.64-1.02-0.64-1,0c0.04,1.28,0.38,2.51,1.02,3.63c0.24,0.42,0.95,0.25,0.93-0.25c-0.12-3.38-1.82-6.52-1.67-9.92
				C98.65,66.09,97.65,66.09,97.62,66.74L97.62,66.74z"/>
		</g>
	</g>
	<g class="st16">
		<path d="M99.43,67.09c1.88,2.39,3.25,5.18,3.99,8.13"/>
		<g>
			<path d="M99.07,67.44c1.83,2.33,3.13,5.04,3.86,7.91c0.16,0.62,1.12,0.36,0.96-0.27c-0.77-3.05-2.18-5.88-4.12-8.35
				C99.38,66.23,98.68,66.94,99.07,67.44L99.07,67.44z"/>
		</g>
	</g>
	<g class="st16">
		<path d="M67.08,54.67c0.9,1.96,2.51,3.5,4.07,4.99c1.3,1.23,2.6,2.47,3.9,3.7c-0.8,0.06-1.58-0.28-2.3-0.65
			c-1.39-0.72-2.7-1.59-3.89-2.6c-0.8-0.68-1.56-1.44-2.06-2.37c-0.49-0.93-0.69-2.06-0.33-3.05"/>
		<g>
			<path d="M66.65,54.92c0.8,1.69,2.07,3.08,3.4,4.37c1.53,1.49,3.1,2.95,4.65,4.42c0.12-0.28,0.24-0.57,0.35-0.85
				c-1.09,0.05-2.1-0.57-3.01-1.1c-0.93-0.54-1.82-1.16-2.65-1.85c-1.48-1.22-3.13-3-2.44-5.08c0.2-0.61-0.76-0.87-0.96-0.27
				c-0.79,2.37,0.86,4.51,2.58,5.95c0.95,0.8,1.97,1.52,3.04,2.14c1.05,0.61,2.2,1.26,3.44,1.2c0.42-0.02,0.68-0.54,0.35-0.85
				c-1.52-1.44-3.04-2.87-4.54-4.32c-1.31-1.27-2.57-2.61-3.35-4.28C67.24,53.84,66.38,54.34,66.65,54.92L66.65,54.92z"/>
		</g>
	</g>
	<g class="st16">
		<path d="M77.57,28.35c-0.39,1.44-0.07,2.97,0.39,4.39c0.46,1.42,1.08,2.8,1.3,4.27c-1.41-1.33-2.52-2.97-3.22-4.78
			c-0.28-0.72-0.49-1.49-0.37-2.25c0.12-0.76,0.65-1.5,1.4-1.65"/>
		<g>
			<path d="M77.09,28.21c-0.79,3.15,1.22,5.92,1.69,8.93c0.28-0.16,0.56-0.32,0.84-0.49c-1.17-1.11-2.12-2.41-2.8-3.88
				c-0.34-0.72-0.68-1.53-0.68-2.34c0-0.7,0.34-1.45,1.07-1.63c0.62-0.16,0.36-1.12-0.27-0.96c-0.84,0.21-1.44,0.89-1.68,1.71
				c-0.29,0.98-0.01,2.03,0.36,2.95c0.73,1.84,1.86,3.5,3.3,4.86c0.39,0.37,0.91-0.01,0.84-0.49c-0.44-2.78-2.42-5.5-1.69-8.4
				C78.21,27.86,77.25,27.59,77.09,28.21L77.09,28.21z"/>
		</g>
	</g>
	<g class="st16">
		<path d="M108.48,56.42c-0.41,1.82-0.38,3.7-0.35,5.56c0.01,0.84,0.03,1.68,0.04,2.52c-0.38,0.1-0.69-0.3-0.84-0.66
			c-0.69-1.6-0.75-3.41-0.56-5.14c0.05-0.48,0.13-0.97,0.33-1.42c0.2-0.44,0.53-0.85,0.98-1.03"/>
		<g>
			<path d="M108,56.29c-0.59,2.68-0.37,5.49-0.33,8.22c0.12-0.16,0.24-0.32,0.37-0.48c-0.12,0.02-0.33-0.56-0.36-0.65
				c-0.13-0.34-0.23-0.69-0.3-1.04c-0.14-0.67-0.2-1.35-0.2-2.03c0-0.68,0.03-1.38,0.16-2.05c0.12-0.66,0.36-1.28,1-1.57
				c0.58-0.27,0.08-1.13-0.5-0.86c-0.8,0.37-1.25,1.19-1.43,2.03c-0.2,0.94-0.25,1.94-0.21,2.89c0.03,0.93,0.17,1.88,0.48,2.76
				c0.27,0.77,0.68,1.64,1.64,1.48c0.21-0.03,0.37-0.28,0.37-0.48c-0.04-2.63-0.28-5.36,0.29-7.95
				C109.1,55.93,108.14,55.66,108,56.29L108,56.29z"/>
		</g>
	</g>
	<g class="st16">
		<path d="M21.89,38.72c-3.74,5.74-3.31,13.36-1.02,19.82c0.79,2.23,1.8,4.42,3.31,6.24c3.56,4.26,9.29,5.88,14.67,7.27
			c-3.5-0.03-7-0.38-10.44-1.05c-2.13-0.41-4.28-0.97-6.06-2.2c-1.28-0.89-2.32-2.1-3.2-3.39c-2.65-3.92-3.92-8.76-3.52-13.48
			s2.46-9.28,5.74-12.7"/>
		<g>
			<path d="M21.46,38.47c-3.25,5.06-3.39,11.4-2,17.09c0.73,2.97,1.81,6.01,3.58,8.53c1.65,2.34,3.94,4.09,6.5,5.34
				c2.91,1.43,6.06,2.28,9.19,3.09c0.04-0.33,0.09-0.65,0.13-0.98c-3.57-0.04-7.13-0.39-10.62-1.1c-1.55-0.31-3.11-0.7-4.51-1.43
				c-1.46-0.75-2.65-1.87-3.63-3.18c-3.68-4.93-4.92-11.51-3.32-17.44c0.89-3.31,2.61-6.35,4.96-8.84c0.44-0.47-0.26-1.18-0.71-0.71
				c-4.44,4.68-6.62,11.22-5.76,17.63c0.43,3.23,1.59,6.36,3.4,9.07c0.9,1.34,1.95,2.58,3.26,3.54c1.32,0.96,2.88,1.54,4.45,1.95
				c4.04,1.05,8.32,1.45,12.48,1.49c0.56,0.01,0.68-0.84,0.13-0.98c-5.17-1.34-10.88-2.86-14.45-7.14c-1.89-2.26-3-5.14-3.8-7.95
				c-0.79-2.76-1.22-5.64-1.1-8.52c0.13-3.18,0.96-6.29,2.69-8.99C22.67,38.43,21.81,37.93,21.46,38.47L21.46,38.47z"/>
		</g>
	</g>
	<g class="st16">
		<path d="M28.77,73.22c-0.08,7.04,2.26,13.94,5.7,20.08c3.44,6.14,7.96,11.6,12.57,16.93c-7.13-0.01-14.25-0.64-21.36-1.27
			c-0.79-0.07-1.63-0.16-2.28-0.61c-1.37-0.96-1.3-2.98-1.08-4.64c1.39-10.32,2.89-20.67,5.61-30.72"/>
		<g>
			<path d="M28.27,73.22c-0.09,11.24,5.61,21.39,12.32,30.02c1.95,2.51,4.01,4.94,6.1,7.35c0.12-0.28,0.24-0.57,0.35-0.85
				c-4.07-0.01-8.13-0.21-12.18-0.51c-1.99-0.14-3.97-0.31-5.96-0.48c-0.99-0.09-1.98-0.17-2.98-0.26c-0.88-0.08-1.9-0.12-2.55-0.8
				c-0.97-1.04-0.71-2.8-0.54-4.07c0.26-1.92,0.52-3.84,0.8-5.76c0.56-3.92,1.17-7.83,1.88-11.72c0.8-4.37,1.74-8.71,2.9-12.99
				c0.17-0.62-0.8-0.89-0.96-0.27c-2.17,8.03-3.57,16.25-4.75,24.48c-0.29,2.04-0.57,4.08-0.85,6.12c-0.19,1.39-0.35,2.95,0.33,4.25
				c0.8,1.51,2.46,1.66,3.99,1.8c2.15,0.19,4.3,0.38,6.45,0.55c4.8,0.38,9.6,0.67,14.41,0.68c0.46,0,0.63-0.54,0.35-0.85
				c-7.07-8.18-14.12-16.94-16.94-27.59c-0.78-2.96-1.21-6-1.18-9.07C29.27,72.57,28.27,72.57,28.27,73.22L28.27,73.22z"/>
		</g>
	</g>
	<g class="st16">
		<path d="M18.83,95.99c-0.36,1.25-0.18,2.65,0.48,3.76c0.26,0.43,0.59,0.92,0.41,1.39c-0.2,0.51-0.95,0.6-1.4,0.28
			c-0.45-0.32-0.64-0.88-0.75-1.42c-0.27-1.41-0.09-2.91,0.53-4.21"/>
		<g>
			<path d="M18.35,95.86c-0.22,0.81-0.25,1.65-0.1,2.47c0.08,0.41,0.21,0.8,0.38,1.18c0.17,0.38,0.43,0.71,0.59,1.09
				c0.09,0.22,0.09,0.42-0.13,0.49c-0.21,0.06-0.43-0.02-0.59-0.18c-0.49-0.51-0.53-1.46-0.54-2.12c-0.01-0.94,0.19-1.89,0.58-2.74
				c0.11-0.24,0.07-0.54-0.18-0.68c-0.22-0.13-0.57-0.07-0.68,0.18c-0.44,0.95-0.69,1.96-0.72,3c-0.02,0.92,0.07,2.05,0.62,2.82
				c0.5,0.69,1.49,1.02,2.22,0.46c0.39-0.3,0.53-0.78,0.44-1.26c-0.09-0.5-0.43-0.91-0.65-1.35c-0.48-0.95-0.56-2.07-0.28-3.09
				C19.49,95.5,18.52,95.24,18.35,95.86L18.35,95.86z"/>
		</g>
	</g>
	<g class="st16">
		<path d="M86.32,65.35c-1.07,0.62-1.79,1.73-2.19,2.9c-0.4,1.17-0.53,2.41-0.65,3.64c-1.17,0.1-2.36-0.15-3.39-0.71
			c-0.14-0.08-0.29-0.17-0.36-0.32c-0.08-0.19,0-0.4,0.08-0.59c1.07-2.46,3.09-4.49,5.55-5.57"/>
		<g>
			<path d="M86.07,64.91c-2.42,1.46-2.84,4.4-3.09,6.97c0.17-0.17,0.33-0.33,0.5-0.5c-1.04,0.08-2.09-0.1-3.02-0.59
				c-0.28-0.15-0.27-0.15-0.14-0.44c0.1-0.22,0.2-0.43,0.32-0.64c0.22-0.4,0.46-0.79,0.73-1.17c1.08-1.5,2.57-2.68,4.25-3.43
				c0.59-0.26,0.08-1.12-0.5-0.86c-2.04,0.91-3.79,2.44-4.98,4.34c-0.3,0.47-0.56,0.96-0.77,1.47c-0.26,0.61-0.15,1.17,0.44,1.52
				c1.09,0.65,2.43,0.9,3.68,0.81c0.29-0.02,0.47-0.21,0.5-0.5c0.21-2.19,0.51-4.85,2.59-6.11C87.13,65.45,86.62,64.58,86.07,64.91
				L86.07,64.91z"/>
		</g>
	</g>
	<g class="st16">
		<path d="M32.67,133.7c-3.13,3.42-4.76,8.16-4.41,12.78c-1.23,0.11-2.45,0.21-3.68,0.32c-0.3,0.03-0.64,0.04-0.86-0.16
			c-0.25-0.23-0.23-0.62-0.2-0.96c0.31-2.96,0.7-6.12,2.6-8.42c1.56-1.89,3.91-2.92,6.16-3.88"/>
		<g>
			<path d="M32.32,133.35c-3.21,3.56-4.89,8.35-4.56,13.13c0.17-0.17,0.33-0.33,0.5-0.5c-1.02,0.09-2.04,0.18-3.06,0.27
				c-0.41,0.04-1.11,0.27-1.19-0.31c-0.05-0.35,0.08-0.81,0.12-1.15c0.19-1.64,0.44-3.3,1.04-4.84c0.6-1.56,1.6-2.87,2.95-3.85
				c1.35-0.97,2.9-1.64,4.43-2.29c0.59-0.25,0.08-1.11-0.5-0.86c-1.81,0.77-3.63,1.57-5.15,2.85c-1.44,1.21-2.39,2.84-2.94,4.63
				c-0.3,0.96-0.49,1.94-0.63,2.93c-0.13,0.87-0.32,1.79-0.3,2.67c0.02,0.95,0.7,1.32,1.58,1.27c1.23-0.07,2.45-0.21,3.68-0.32
				c0.25-0.02,0.52-0.21,0.5-0.5c-0.31-4.52,1.22-9.06,4.26-12.43C33.45,133.58,32.75,132.87,32.32,133.35L32.32,133.35z"/>
		</g>
	</g>
	<g class="st16">
		<path d="M49.15,134.06c-2.51,3.45-3.64,7.87-3.08,12.1c-0.98-0.22-1.98-0.3-2.98-0.23c-0.6-2.57-1.32-5.12-2.14-7.63
			c2.03-2.47,4.84-4.3,7.92-5.16"/>
		<g>
			<path d="M48.71,133.81c-2.55,3.55-3.69,8.02-3.15,12.35c0.21-0.16,0.42-0.32,0.63-0.48c-1.03-0.22-2.06-0.31-3.12-0.24
				c0.16,0.12,0.32,0.24,0.48,0.37c-0.61-2.57-1.32-5.12-2.14-7.63c-0.04,0.16-0.09,0.32-0.13,0.49c2.01-2.41,4.68-4.17,7.7-5.04
				c0.62-0.18,0.35-1.14-0.27-0.96c-2.75,0.79-5.27,2.28-7.27,4.33c-0.35,0.36-1.07,0.9-1,1.45c0.06,0.41,0.28,0.86,0.4,1.26
				c0.13,0.42,0.26,0.84,0.38,1.26c0.5,1.69,0.95,3.39,1.35,5.11c0.05,0.2,0.27,0.38,0.48,0.37c0.96-0.06,1.91,0.01,2.85,0.21
				c0.28,0.06,0.68-0.14,0.63-0.48c-0.52-4.19,0.55-8.42,3.01-11.85C49.95,133.79,49.09,133.29,48.71,133.81L48.71,133.81z"/>
		</g>
	</g>
</g>
<g id="Ebene_34">
</g>
<g id="Ebene_35">
	<g class="st16">
		<g>
			<path class="st17" d="M97.8,28.87c-0.13,0.66-0.32,1.3-0.58,1.92c0.17-0.4,0.34-0.8,0.5-1.19c-0.22,0.48-0.46,0.93-0.75,1.37
				c-1.44,2.19-0.51,5.62,1.79,6.84c2.5,1.32,5.3,0.54,6.84-1.79c0.88-1.34,1.54-2.91,1.84-4.48c0.26-1.34,0.2-2.65-0.5-3.85
				c-0.61-1.04-1.8-2.03-2.99-2.3c-1.28-0.29-2.72-0.23-3.85,0.5C99.06,26.56,98.05,27.61,97.8,28.87L97.8,28.87z"/>
		</g>
	</g>
	<g class="st16">
		<g>
			<path class="st17" d="M102.13,30.07c-0.19,1.13-0.6,2.1-1.27,3.02c-0.15,0.21-0.04,0.57,0.18,0.68c0.26,0.14,0.52,0.05,0.68-0.18
				c0.7-0.96,1.17-2.09,1.37-3.26c0.04-0.26-0.07-0.55-0.35-0.62C102.5,29.66,102.17,29.79,102.13,30.07L102.13,30.07z"/>
		</g>
	</g>
	<g class="st16">
		<g>
			<path class="st17" d="M104.85,35.45c-0.04,0.15-0.09,0.3-0.15,0.45c-0.01,0.04-0.03,0.08-0.04,0.12
				c-0.01,0.03-0.03,0.07-0.01,0.02c-0.03,0.07-0.06,0.14-0.09,0.2c-0.13,0.28-0.29,0.56-0.47,0.82c-0.04,0.06-0.08,0.12-0.13,0.18
				c-0.02,0.03-0.04,0.05-0.06,0.08c0.04-0.06-0.02,0.03-0.03,0.04c-0.1,0.12-0.2,0.24-0.31,0.36c-0.22,0.23-0.45,0.44-0.7,0.64
				c-0.21,0.16-0.18,0.54,0,0.71c0.22,0.2,0.49,0.17,0.71,0c1.07-0.85,1.85-2.04,2.24-3.35c0.07-0.25-0.09-0.56-0.35-0.62
				C105.19,35.04,104.92,35.18,104.85,35.45L104.85,35.45z"/>
		</g>
	</g>
	<g class="st16">
		<g>
			<path class="st17" d="M115.64,35.54c-0.71,0.27-1.39,0.59-2.04,0.98c-0.22,0.13-0.33,0.46-0.18,0.68
				c0.15,0.23,0.44,0.32,0.68,0.18c0.3-0.18,0.61-0.35,0.93-0.5c0.16-0.08,0.31-0.15,0.47-0.22c0.05-0.02,0.04-0.02-0.02,0.01
				c0.02-0.01,0.04-0.02,0.07-0.03c0.03-0.01,0.07-0.03,0.1-0.04c0.09-0.04,0.18-0.07,0.27-0.1c0.12-0.05,0.23-0.11,0.3-0.23
				c0.06-0.11,0.09-0.27,0.05-0.39C116.18,35.65,115.9,35.44,115.64,35.54L115.64,35.54z"/>
		</g>
	</g>
	<g class="st16">
		<g>
			<path class="st17" d="M113.46,35.4c-7.23,4.31-14.3,8.89-21.19,13.73c-0.52,0.37-0.02,1.23,0.5,0.86
				c6.89-4.84,13.96-9.42,21.19-13.73C114.52,35.94,114.02,35.07,113.46,35.4L113.46,35.4z"/>
		</g>
	</g>
	<g class="st16">
		<g>
			<path class="st17" d="M85.76,42.4c1.09,0.32,2.3,0.67,3.11,1.52c0.94,0.98,0.83,2.41,0.62,3.64c-0.04,0.27,0.07,0.54,0.35,0.62
				c0.24,0.07,0.57-0.08,0.62-0.35c0.26-1.56,0.33-3.23-0.77-4.5c-0.92-1.06-2.36-1.51-3.66-1.89C85.4,41.25,85.14,42.22,85.76,42.4
				L85.76,42.4z"/>
		</g>
	</g>
	<g class="st16">
		<g>
			<path class="st17" d="M96.15,59.48c0.07,0.19,0.13,0.38,0.18,0.57c0.02,0.1,0.04,0.19,0.06,0.29c0,0.03,0.03,0.15,0.01,0.04
				c0.01,0.05,0.01,0.1,0.02,0.15c0.02,0.19,0.02,0.38,0.01,0.58c0,0.1-0.01,0.2-0.02,0.3c-0.01,0.14,0.02-0.1,0,0.04
				c-0.01,0.06-0.02,0.11-0.03,0.17c-0.05,0.26,0.07,0.55,0.35,0.62c0.25,0.06,0.56-0.07,0.62-0.35c0.17-0.89,0.11-1.81-0.22-2.66
				c-0.1-0.24-0.34-0.44-0.62-0.35C96.26,58.94,96.05,59.22,96.15,59.48L96.15,59.48z"/>
		</g>
	</g>
	<g class="st16">
		<g>
			<path class="st17" d="M96.69,66.51c0.18,2.69,0.37,5.37,0.55,8.06c0.04,0.64,1.04,0.64,1,0c-0.18-2.69-0.37-5.37-0.55-8.06
				C97.64,65.87,96.64,65.87,96.69,66.51L96.69,66.51z"/>
		</g>
	</g>
	<g class="st16">
		<g>
			<path class="st17" d="M98.46,68.42c0.58,1.6,1.17,3.2,1.75,4.8c0.09,0.25,0.34,0.42,0.62,0.35c0.24-0.07,0.44-0.36,0.35-0.62
				c-0.58-1.6-1.17-3.2-1.75-4.8c-0.09-0.25-0.34-0.42-0.62-0.35C98.56,67.87,98.36,68.16,98.46,68.42L98.46,68.42z"/>
		</g>
	</g>
	<g class="st16">
		<g>
			<path class="st17" d="M99.91,68.13c0.46,1.21,0.97,2.4,1.53,3.56c0.12,0.24,0.46,0.31,0.68,0.18c0.25-0.15,0.3-0.44,0.18-0.68
				c-0.52-1.09-1-2.2-1.43-3.32c-0.1-0.25-0.34-0.43-0.62-0.35C100.02,67.58,99.82,67.88,99.91,68.13L99.91,68.13z"/>
		</g>
	</g>
	<g class="st16">
		<g>
			<path class="st17" d="M101.01,67.5c0.71,1.6,1.28,3.27,1.71,4.97c0.16,0.62,1.12,0.36,0.96-0.27c-0.46-1.79-1.07-3.52-1.81-5.21
				c-0.11-0.25-0.47-0.3-0.68-0.18C100.94,66.97,100.9,67.25,101.01,67.5L101.01,67.5z"/>
		</g>
	</g>
	<g class="st16">
		<g>
			<path class="st17" d="M98.47,69.15c0.09,0.17,0.17,0.35,0.25,0.53c0.04,0.09,0.08,0.18,0.12,0.27c-0.05-0.11,0.02,0.05,0.03,0.07
				c0.02,0.05,0.04,0.09,0.05,0.14c0.14,0.37,0.27,0.74,0.38,1.13c0.07,0.25,0.36,0.43,0.62,0.35c0.26-0.08,0.43-0.35,0.35-0.62
				c-0.23-0.82-0.55-1.61-0.93-2.37c-0.12-0.23-0.47-0.32-0.68-0.18C98.41,68.62,98.34,68.9,98.47,69.15L98.47,69.15z"/>
		</g>
	</g>
</g>
</svg>
