<?xml version="1.0" encoding="utf-8"?>
<!-- Generator: Adobe Adobe Illustrator 24.2.0, SVG Export Plug-In . SVG Version: 6.00 Build 0)  -->
<svg version="1.1" xmlns="http://www.w3.org/2000/svg" xmlns:xlink="http://www.w3.org/1999/xlink" x="0px" y="0px"
	 viewBox="0 0 1700.79 1700.79" style="enable-background:new 0 0 1700.79 1700.79;" xml:space="preserve">
<style type="text/css">
	.st0{opacity:0.451;}
	.st1{fill:#FFFFFF;}
	.st2{fill:#F4C159;}
</style>
<g id="Ebene_3">
	<g class="st0">
		<path class="st1" d="M801.82,189.85c-46.51,30.42-93.01,60.84-139.52,91.26c-10.25,6.71-21.43,14.75-23.51,26.83
			c-2.41,14,9.36,27.29,22.87,31.68c13.51,4.39,28.17,2.13,42.19-0.16c-16.4,44.16-25.26,91.12-26.06,138.22
			c-31.17,0.14-62.33,0.27-93.5,0.41c42.59,43.95,61.9,106.27,65.54,167.36s-6.9,122.02-16.54,182.46
			c-34.93,218.94-58.55,439.67-70.74,661.04c-0.93,16.81-1.71,34.18,4.18,49.96c12.04,32.24,47.76,48.44,80.99,57.39
			c106.22,28.6,222.94,16.14,320.74-34.24c25.29-13.03,50.76-30.12,61.57-56.44c8.54-20.79,6.62-44.19,4.56-66.57
			c-14.54-157.74-29.08-315.47-43.61-473.21c-15.34-166.41-28.65-343.72,49.47-491.46c-28.66,19.18-70.2-1.31-85.46-32.24
			c-15.26-30.93-11.87-67.38-8.13-101.67c15.57-10.12,31.13-20.23,46.7-30.35c-56.71-39.63-113.41-79.26-170.12-118.89
			c10.12-25.75,4.76-56.93-13.37-77.82c-10.98,25.57-13.39,54.72-6.76,81.75"/>
		<g>
			<path class="st1" d="M788.87,187.2c-24.48,16.01-48.95,32.02-73.43,48.03c-23.82,15.58-48.36,30.42-71.55,46.92
				c-8.48,6.04-16.88,13.22-19.64,23.7c-2.7,10.28,2.42,20.76,9.93,27.64c20.4,18.69,52.32,14.55,77.24,10.51
				c-7.52-1.51-15.05-3.02-22.57-4.53c-16.3,44.34-25.1,90.99-26.06,138.22c5-1.75,10-3.5,15-5.25c-31.17,0.14-62.33,0.27-93.5,0.41
				c-0.85,0-19.15,1.75-14.46,6.65c58.37,60.99,70.16,149.02,64.27,229.9c-3.39,46.61-11.8,92.67-19.01,138.79
				c-7.39,47.28-14.25,94.65-20.58,142.08c-12.54,93.9-23.01,188.08-31.4,282.45c-4.15,46.7-7.79,93.44-10.92,140.21
				c-1.6,23.88-3.06,47.76-4.4,71.65c-1.16,20.81-2.49,42.21,6.95,61.48c15.08,30.8,51.25,45.45,82.38,53.96
				c41.28,11.28,84.12,16.72,126.91,16.61c41.73-0.11,83.54-5.41,123.88-16.11c39.15-10.39,78.94-25.14,113.24-47.02
				c14.86-9.48,29.18-21.26,38.36-36.55c10.38-17.28,12.5-37.27,11.65-57.04c-1.01-23.63-4-47.26-6.17-70.81
				c-2.17-23.51-4.33-47.03-6.5-70.54c-8.76-95.03-17.52-190.07-26.28-285.1c-7.92-85.98-17.38-172.13-17.93-258.57
				c-0.52-81.94,7.36-165.13,35.55-242.6c7.05-19.39,15.49-38.23,25.08-56.49c4.34-8.27-23.76-6.38-27.42-4.05
				c-9.77,6.24-15.85,5.7-26.3,0.64c-12.21-5.92-22.52-15.67-29.41-27.33c-18.29-30.92-13.63-70.55-9.93-104.57
				c-0.68,0.88-1.37,1.77-2.05,2.65c15.57-10.12,31.13-20.23,46.7-30.35c2.6-1.69,2.45-3.59,0-5.3
				c-56.71-39.63-113.41-79.26-170.12-118.89c0.68,0.88,1.37,1.77,2.05,2.65c10.02-26.74,4.43-57.4-13.91-79.22
				c-2.99-3.55-10.31-3.85-14.46-3.85c-3.29,0-12.88,0.06-14.46,3.85c-11.06,26.52-13.86,55.1-7.3,83.14c1.99,8.5,31.35,5.77,30,0
				c-6.27-26.75-4.38-54.93,6.22-80.35c-9.64,0-19.29,0-28.93,0c17.84,21.23,22.55,50.5,12.84,76.43c0.21,1.22,0.89,2.11,2.05,2.65
				c56.71,39.63,113.41,79.26,170.12,118.89c0-1.77,0-3.53,0-5.3c-13.11,8.52-26.21,17.04-39.32,25.56
				c-2.4,1.56-7.37,3.56-8.89,6.05c-1.43,2.35-1.09,6.48-1.36,9.14c-0.63,6.08-1.21,12.16-1.63,18.25
				c-1.8,26.06-0.8,53.24,11.12,77.06c19.27,38.52,75.64,57.25,112.88,33.49c-9.14-1.35-18.28-2.7-27.42-4.05
				c-76.95,146.55-65.85,318.03-51.4,477.54c8.36,92.31,17,184.6,25.51,276.9c4.24,46.05,8.49,92.1,12.73,138.14
				c2.17,23.51,4.34,47.03,6.5,70.54c1.89,20.56,4.23,42.07-1.73,62.21c-10.8,36.49-49.48,56.11-81.64,70.53
				c-36.39,16.31-75.21,27.64-114.72,33.16c-39.24,5.48-79.2,5.53-118.41-0.28c-33.84-5.02-72.7-12.5-99.97-34.7
				c-14.43-11.74-23.14-27.63-25.23-46.11c-2.49-22.02,0.63-45.07,1.97-67.08c2.77-45.82,6.04-91.61,9.79-137.36
				c7.59-92.47,17.17-184.78,28.74-276.84c5.85-46.51,12.2-92.96,19.06-139.34c6.85-46.29,14.99-92.41,21.31-138.77
				c11.03-80.88,13.08-167.43-27.58-241.07c-8.8-15.93-19.55-30.63-32.14-43.78c-4.82,2.22-9.64,4.43-14.46,6.65
				c31.17-0.14,62.33-0.27,93.5-0.41c3.01-0.01,14.9-0.28,15-5.25c0.97-47.23,9.76-93.88,26.06-138.22
				c2.21-6.02-20.58-4.86-22.57-4.53c-9,1.46-19.04,3.83-27.59-0.51c-7.59-3.85-14.06-11.66-15.07-20.26
				c-2.42-20.54,24.81-32.48,38.76-41.61c40.79-26.68,81.59-53.37,122.38-80.05c5.44-3.56-2.2-6.51-5.38-7.18
				C803.46,184.06,794.27,183.67,788.87,187.2L788.87,187.2z"/>
		</g>
	</g>
</g>
<g id="Ebene_5">
	<g>
		<g>
			<path class="st2" d="M708.02,311.27c33.05-23.21,66.09-46.41,99.14-69.62c-8.63-1.77-17.27-3.53-25.9-5.3
				c-29.07,22.07-55.36,47.52-78.11,76.07c-3.51,4.41,8.48,6.26,10.48,6.46c5.61,0.56,14.08,0.65,18.45-3.67
				c29.53-29.18,61.57-55.6,95.84-79.03c-9.14-1.35-18.28-2.7-27.42-4.05c-22.42,25.48-44.83,50.97-67.25,76.45
				c-3.4,3.87,7.19,5.97,8.68,6.19c5.93,0.88,13.36,0.91,18.73-2.15c26.6-15.14,50.22-35.32,69.28-59.27
				c3.51-4.41-8.48-6.26-10.48-6.46c-5.65-0.56-14.03-0.63-18.45,3.67c-15.44,15.02-25.71,34.54-29.72,55.69
				c-1.15,6.05,28.39,8.48,30,0c3.84-20.27,13.88-38.52,28.64-52.9c-9.64-0.93-19.29-1.86-28.93-2.79
				c-18.33,23.04-40.67,42.2-66.26,56.77c9.14,1.35,18.28,2.7,27.42,4.05c22.42-25.48,44.83-50.97,67.25-76.45
				c3.4-3.87-7.19-5.97-8.68-6.19c-5.55-0.82-13.84-1.2-18.73,2.15c-35.32,24.15-68.43,51.47-98.86,81.54
				c9.64,0.93,19.29,1.86,28.93,2.79c21.91-27.5,47.07-52.3,75.08-73.56c5.03-3.82-1.83-6.43-5.38-7.18
				c-5.75-1.22-15.34-1.76-20.52,1.88c-33.05,23.21-66.09,46.41-99.14,69.62c-5.25,3.69,2.03,6.47,5.38,7.18
				C693.25,314.37,702.83,314.91,708.02,311.27L708.02,311.27z"/>
		</g>
	</g>
	<g>
		<g>
			<path class="st2" d="M850.88,735.7c-3.22,11.75-6.44,23.5-9.67,35.25c-1.53,5.6,27.09,8.11,30,0
				c5.47-15.27,10.94-30.55,16.41-45.82c1.89-5.28-26.06-7.45-29.46-1.4c-9.21,16.39-15.01,34.42-16.89,53.13
				c-0.68,6.76,29.18,8.14,30,0c1.79-17.8,7.05-34.74,15.81-50.34c-9.82-0.47-19.64-0.93-29.46-1.4
				c-5.47,15.27-10.94,30.55-16.41,45.82c10,0,20,0,30,0c3.22-11.75,6.44-23.5,9.67-35.25C882.34,730.37,853.25,727.03,850.88,735.7
				L850.88,735.7z"/>
		</g>
	</g>
	<g>
		<g>
			<path class="st2" d="M865.97,998.84c-7.24,15.96-11.11,32.92-11.03,50.46c0.02,5,11.88,5.25,15,5.25c4.15,0,13.56-0.1,15-5.25
				c4.41-15.75,8.81-31.5,13.22-47.24c-10,0-20,0-30,0c-2.56,14.57-5.12,29.13-7.68,43.7c-1.08,6.16,28.52,8.43,30,0
				c2.56-14.57,5.12-29.13,7.68-43.7c1.12-6.37-27.76-8-30,0c-4.41,15.75-8.81,31.5-13.22,47.24c10,0,20,0,30,0
				c-0.08-16.45,3.15-32.68,9.96-47.67c2.26-4.98-7.44-6.16-10.48-6.46c-3.82-0.38-7.8-0.27-11.56,0.53
				C870.93,996.12,866.87,996.85,865.97,998.84L865.97,998.84z"/>
		</g>
	</g>
	<g>
		<g>
			<path class="st2" d="M888.15,1265.56c-6.41,14.99-12.81,29.98-19.22,44.97c-3.3,7.72,24.84,8.7,28.93,2.79
				c14.23-20.57,24.68-43.46,31.09-67.63c1.44-5.44-27.59-8.57-30,0c-4.34,15.41-8.67,30.83-13.01,46.24c-1.48,5.26,27.56,8.68,30,0
				c4.34-15.41,8.67-30.83,13.01-46.24c-10,0-20,0-30,0c-6.17,23.25-16.34,45.06-30.02,64.84c9.64,0.93,19.29,1.86,28.93,2.79
				c6.41-14.99,12.81-29.98,19.22-44.97c2.14-5.01-7.34-6.15-10.48-6.46c-3.82-0.38-7.8-0.27-11.56,0.53
				C893.14,1262.83,889,1263.57,888.15,1265.56L888.15,1265.56z"/>
		</g>
	</g>
	<g>
		<g>
			<path class="st2" d="M666.11,639.09c-2.26,13.73-4.51,27.46-6.77,41.19c-1.08,6.57,26.95,7.34,29.46,1.4
				c6.02-14.2,12.03-28.4,18.05-42.6c-9.82-0.47-19.64-0.93-29.46-1.4c-10.18,58.28-17.26,117.06-21.21,176.09
				c-0.47,7,28.72,7.93,30,0c5.38-33.33,10.76-66.65,16.13-99.98c1.08-6.69-27.46-7.6-30,0c-12.56,37.51-21.51,76.11-26.72,115.33
				c10,0,20,0,30,0c-0.79-48.47,3.37-96.9,12.43-144.53c-10,0-20,0-30,0c-8.67,50.45-13.58,101.49-14.68,152.67
				c-0.16,7.33,29.83,7.71,30,0c1.1-51.18,6.01-102.21,14.68-152.67c1.07-6.21-28.41-8.37-30,0
				c-9.06,47.63-13.22,96.06-12.43,144.53c0.12,7.41,28.97,7.73,30,0c5.22-39.21,14.16-77.82,26.72-115.33c-10,0-20,0-30,0
				c-5.38,33.33-10.76,66.65-16.13,99.98c10,0,20,0,30,0c3.95-59.03,11.03-117.81,21.21-176.09c1.14-6.5-26.94-7.36-29.46-1.4
				c-6.02,14.2-12.03,28.4-18.05,42.6c9.82,0.47,19.64,0.93,29.46,1.4c2.26-13.73,4.51-27.46,6.77-41.19
				C697.14,632.83,667.49,630.69,666.11,639.09L666.11,639.09z"/>
		</g>
	</g>
	<g>
		<g>
			<path class="st2" d="M639.43,905.56c-3.28,52.66-11.09,104.95-23.33,156.27c10,0,20,0,30,0c3.85-55.59,12.31-110.79,25.29-164.98
				c1.45-6.04-26.76-7.52-29.46-1.4c-23.65,53.64-33.63,112.53-28.36,170.95c0.41,4.55,10.07,5.03,13.01,5.16
				c3.57,0.16,14.61,0.53,16.46-3.76c17.21-39.93,30.41-81.46,39.25-124.03c-10,0-20,0-30,0c-2.2,47.19-4.39,94.38-6.59,141.57
				c-0.33,7.16,29.63,7.86,30,0c2.2-47.19,4.39-94.38,6.59-141.57c0.34-7.2-28.39-7.75-30,0c-8.64,41.59-21.37,82.23-38.18,121.24
				c9.82,0.47,19.64,0.93,29.46,1.4c-5.16-57.24,4.09-115.54,27.29-168.16c-9.82-0.47-19.64-0.93-29.46-1.4
				c-12.98,54.19-21.44,109.39-25.29,164.98c-0.49,7.12,28.16,7.71,30,0c12.24-51.32,20.05-103.61,23.33-156.27
				C669.87,898.51,639.93,897.61,639.43,905.56L639.43,905.56z"/>
		</g>
	</g>
	<g>
		<g>
			<path class="st2" d="M604.47,1125.39c-1.96,73.02-7.59,145.92-16.85,218.38c10,0,20,0,30,0c7.19-64.63,17.54-128.89,31.02-192.51
				c-10,0-20,0-30,0c-1.56,65.12-3.11,130.24-4.67,195.36c-0.17,7.26,28.67,7.77,30,0c4.42-25.87,8.83-51.73,13.25-77.6
				c-10,0-20,0-30,0c2.39,22.69,4.78,45.38,7.18,68.07c0.85,8.05,30.72,6.83,30,0c-2.39-22.69-4.78-45.38-7.18-68.07
				c-0.54-5.09-11.49-5.25-15-5.25c-3.68,0-14.12,0.11-15,5.25c-4.42,25.87-8.83,51.73-13.25,77.6c10,0,20,0,30,0
				c1.56-65.12,3.11-130.24,4.67-195.36c0.18-7.33-28.38-7.67-30,0c-13.48,63.62-23.83,127.87-31.02,192.51
				c-0.74,6.68,28.96,8.17,30,0c9.26-72.46,14.89-145.35,16.85-218.38C634.67,1118.1,604.68,1117.65,604.47,1125.39L604.47,1125.39z
				"/>
		</g>
	</g>
	<g>
		<g>
			<path class="st2" d="M576.67,1398.52c0.46,50.84,0.92,101.69,1.38,152.53c0.07,7.42,29.69,7.67,30,0
				c2.09-52.1,9.73-103.84,22.78-154.31c-10,0-20,0-30,0c-0.32,58.54,2.96,117.06,9.83,175.2c0.6,5.1,11.44,5.25,15,5.25
				c3.59,0,14.23-0.12,15-5.25c4.22-28.02,8.43-56.05,12.65-84.07c-10,0-20,0-30,0c3.07,31.39,8.25,62.51,15.53,93.2
				c2.02,8.5,31.36,5.75,30,0c-7.28-30.69-12.46-61.81-15.53-93.2c-0.5-5.08-11.52-5.25-15-5.25c-3.59,0-14.23,0.12-15,5.25
				c-4.22,28.02-8.43,56.05-12.65,84.07c10,0,20,0,30,0c-6.87-58.14-10.15-116.65-9.83-175.2c0.03-4.99-11.92-5.25-15-5.25
				c-4.06,0-13.67,0.1-15,5.25c-13.06,50.48-20.69,102.22-22.78,154.31c10,0,20,0,30,0c-0.46-50.84-0.92-101.69-1.38-152.53
				C606.6,1390.99,576.6,1391,576.67,1398.52L576.67,1398.52z"/>
		</g>
	</g>
	<g>
		<g>
			<path class="st2" d="M744.07,395.97c-1.29-13.9-8.19-25.55-18.87-34.29c-3.85-3.15-12.37-2.86-16.94-2.41
				c-2.66,0.26-11.03,1.13-11.01,5.06c0.19,36.48,0.37,72.97,0.56,109.45c0.03,5,11.88,5.25,15,5.25c4.29,0,13.39-0.11,15-5.25
				c9.27-29.61,18.53-59.22,27.8-88.83c-10,0-20,0-30,0c-3.31,27.27-3.75,54.75-1.32,82.11c0.41,4.55,10.07,5.03,13.01,5.16
				c3.76,0.17,14.36,0.54,16.46-3.76c3.43-7.02,6.85-14.04,10.28-21.07c-9.64,0-19.29,0-28.93,0c1.74,2.66,3.47,5.32,5.21,7.98
				c3.07,4.71,13.74,4.13,18.45,3.67c2.43-0.24,13.49-1.84,10.48-6.46c-1.74-2.66-3.47-5.32-5.21-7.98
				c-2.37-3.64-10.83-3.85-14.46-3.85c-3.49,0-12.6,0.04-14.46,3.85c-3.43,7.02-6.85,14.04-10.28,21.07
				c9.82,0.47,19.64,0.93,29.46,1.4c-2.44-27.36-1.99-54.85,1.32-82.11c0.85-6.96-27.64-7.55-30,0
				c-9.27,29.61-18.53,59.22-27.8,88.83c10,0,20,0,30,0c-0.19-36.48-0.37-72.97-0.56-109.45c-9.32,0.88-18.63,1.77-27.95,2.65
				c8.7,7.13,13.75,17.95,14.78,29C714.81,403.96,744.71,402.9,744.07,395.97L744.07,395.97z"/>
		</g>
	</g>
</g>
<g id="Ebene_2">
	<g>
		<g>
			<path d="M640.42,316.89c49.63-38.23,99.24-76.48,148.88-114.7c4.85-3.74,9.7-7.54,15.05-10.56c0.42-0.24,6.51-2.89,6.5-2.81
				c0.02-0.14-5.45,1.07-3.69-0.12c0.7-0.48,4.53,1.33,5.04,1.53c12.19,4.84,23.59,13.01,34.71,19.9
				c24.15,14.96,47.61,31.02,70.3,48.11c25.55,19.25,50.05,39.84,73.47,61.63c0.5-1.35,1.01-2.7,1.51-4.05
				c-43.38,20.36-90.64,32.77-137.64,36.99c-12.62,1.13-21.3,1.55-33.92,1.62c-6.19,0.03-12.37-0.06-18.56-0.28
				c-4.66-0.17-10.13-0.49-16.22-0.98c-24.3-1.95-47.31-5.8-71.18-11.9c-25.88-6.61-51.2-15.94-75.25-27.55
				c-6.19-2.99-13.85-3.3-20.52-1.88c-2.56,0.54-11.59,4.19-5.38,7.18c97.86,47.25,212.78,58.23,318.25,32.52
				c29.78-7.26,58.6-17.4,86.34-30.42c1.19-0.56,2.96-2.7,1.51-4.05c-44.73-41.61-93.37-79.02-145.25-111.29
				c-12.7-7.9-25.55-16.52-39.37-22.33c-16.73-7.04-36.56-6.77-52.94,1.03c-13.47,6.41-25.12,17.4-36.86,26.45
				c-13.46,10.37-26.93,20.74-40.39,31.12c-30.09,23.18-60.19,46.37-90.28,69.55c-4.99,3.84,1.79,6.42,5.38,7.18
				C625.4,319.93,635.52,320.67,640.42,316.89L640.42,316.89z"/>
		</g>
	</g>
	<g>
		<g>
			<path d="M810.53,182.44c-1.49-16.2-1.68-32.48-0.45-48.71c0.89-11.67,1.06-24.45,9.34-33.4c3.17-1.61,1.01-1.75-6.47-0.42
				c-7.54-1.19-9.62-0.9-6.25,0.86c0.86,0.92,1.78,1.61,2.57,2.65c1.95,2.55,2.93,5.44,3.5,8.58c1.37,7.57,0.79,15.63,0.86,23.29
				c0.14,16.19,0.28,32.38,0.42,48.57c0.07,7.53,30.07,7.52,30,0c-0.18-20.08-0.29-40.15-0.53-60.23c-0.1-8.23-0.43-17.6-6.23-24.11
				c-7.2-8.08-19.21-9.63-29.44-8.71c-7.96,0.72-16.12,3.42-20.6,10.42c-3.95,6.17-5.21,13.69-6.05,20.83
				c-2.37,20.04-2.53,40.27-0.69,60.36C781.26,190.43,811.16,189.38,810.53,182.44L810.53,182.44z"/>
		</g>
	</g>
	<g>
		<g>
			<path d="M588.05,477.02c117.57,22.21,238.14,27.95,357.28,16.96c33.86-3.12,67.58-7.67,101.09-13.46
				c-7.52-1.51-15.05-3.02-22.57-4.53c-12.98,43.93-25.95,87.86-38.93,131.79c-1.52,5.14,27.43,8.7,30,0
				c12.98-43.93,25.95-87.86,38.93-131.79c0.8-2.72-6.16-4.26-7.43-4.53c-4.98-1.06-10.15-0.86-15.14,0
				c-110.61,19.1-223.06,22.49-334.38,10.44c-31.41-3.4-62.66-8.07-93.71-13.94c-5.98-1.13-15.25-1.9-20.52,1.88
				C577.47,473.56,584.62,476.37,588.05,477.02L588.05,477.02z"/>
		</g>
	</g>
	<g>
		<g>
			<path d="M570.92,479.29c20.09,44.75,40.18,89.51,60.27,134.26c0.81,1.8,5.47,2.84,6.89,3.14c3.69,0.79,7.81,0.9,11.56,0.53
				c3.12-0.31,12.71-1.48,10.48-6.46c-20.09-44.75-40.18-89.51-60.27-134.26c-0.81-1.8-5.47-2.84-6.89-3.14
				c-3.69-0.79-7.81-0.9-11.56-0.53C578.27,473.14,568.69,474.31,570.92,479.29L570.92,479.29z"/>
		</g>
	</g>
	<g>
		<g>
			<path d="M629.57,557.78c98.11,18,198.54,22.71,297.9,13.85c28.11-2.51,56.12-6.18,83.96-10.82c3.5-0.58,10.5-3.52,5.38-7.18
				c-5.22-3.73-14.67-2.86-20.52-1.88c-91.06,15.15-183.43,17.75-274.97,8.05c-25.68-2.72-51.22-6.43-76.61-11.09
				c-6-1.1-15.24-1.91-20.52,1.88C619.01,554.32,626.13,557.15,629.57,557.78L629.57,557.78z"/>
		</g>
	</g>
	<g>
		<g>
			<path d="M653.79,619.69c90.15,8.08,181.1,7.42,271.1-2.25c25.56-2.75,51.03-6.25,76.39-10.38c3.5-0.57,10.49-3.53,5.38-7.18
				c-5.24-3.74-14.65-2.84-20.52-1.88c-84.06,13.68-169.01,18.92-254.06,16.01c-23.37-0.8-46.85-2.33-70.32-4.44
				c-3.77-0.34-7.84-0.26-11.56,0.53c-1.59,0.34-5.93,1.31-6.89,3.14C640.75,618.09,651.33,619.47,653.79,619.69L653.79,619.69z"/>
		</g>
	</g>
	<g>
		<g>
			<path d="M675.12,347.53c-5.79,41.99-11.57,83.99-17.36,125.98c-0.89,6.47,28.86,8.3,30,0c5.79-41.99,11.57-83.99,17.36-125.98
				C706.01,341.05,676.26,339.23,675.12,347.53L675.12,347.53z"/>
		</g>
	</g>
	<g>
		<g>
			<path d="M934.03,359.07c1.99,40.05,7.81,79.8,17.38,118.74c2.09,8.52,31.39,5.68,30,0c-9.57-38.94-15.39-78.69-17.38-118.74
				C963.65,351.3,933.67,351.82,934.03,359.07L934.03,359.07z"/>
		</g>
	</g>
	<g>
		<g>
			<path d="M634.24,633.04c-19.08,118.72-35.65,237.84-49.65,357.27c-13.97,119.1-25.41,238.49-34.3,358.08
				c-5.01,67.35-9.2,134.76-12.6,202.2c-0.36,7.13,29.6,7.88,30,0c6.05-120.09,14.64-240.05,25.8-359.78
				c11.13-119.4,24.79-238.56,40.99-357.37c9.12-66.92,19.05-133.72,29.76-200.4C665.25,626.75,635.59,624.66,634.24,633.04
				L634.24,633.04z"/>
		</g>
	</g>
	<g>
		<g>
			<path d="M978.72,607.77c0.63,118.87,3.99,237.73,9.87,356.45c5.96,120.38,14.49,240.64,26.06,360.62
				c6.33,65.71,13.6,131.33,21.97,196.81c1.04,8.15,30.85,6.66,30,0c-15.07-117.89-26.59-236.23-35.46-354.75
				c-8.99-120.2-15.24-240.61-18.89-361.09c-2-65.99-3.2-132.01-3.55-198.03C1008.68,600.26,978.68,600.22,978.72,607.77
				L978.72,607.77z"/>
		</g>
	</g>
	<g>
		<g>
			<path d="M539.73,1553.24c64.57,37.94,138.9,63.58,213.95,68.04c36.96,2.2,73.7-1.38,109.99-8.45
				c34.97-6.81,69.5-16.88,102.42-30.55c35.99-14.94,70.19-33.97,99.98-59.24c4.33-3.67-9.2-6.33-10.48-6.46
				c-6.01-0.59-13.62-0.43-18.45,3.67c-48.92,41.48-111.85,66.52-173.87,80.42c-7.97,1.79-15.98,3.39-24.02,4.81
				c-8.37,1.48-13.67,2.28-21.6,3.27c-17.04,2.13-30.14,3.09-46.69,2.75c-14.25-0.29-32.27-2.08-47.64-4.72
				c-17.01-2.93-33.84-6.88-50.37-11.86c-37.51-11.32-73.55-27.13-107.33-46.97c-5.74-3.38-14.2-3.22-20.52-1.88
				C542.12,1546.69,533.94,1549.83,539.73,1553.24L539.73,1553.24z"/>
		</g>
	</g>
	<g>
		<g>
			<path d="M567.16,1358.8c55.7,25.77,116.77,38.25,177.88,41.27c64.35,3.18,129.32-3.08,191.81-18.84
				c32.93-8.31,65.21-19.05,96.2-32.98c1.34-0.6,4.39-1.65,4.39-3.71c0-1.98-3.04-3.22-4.39-3.71c-5.86-2.14-15.36-2.63-21.21,0
				c-51.22,23.03-107.46,38.14-161.97,44.96c-14.84,1.86-29.75,3.19-44.68,3.98c-2.66,0.14-4.3,0.21-8.23,0.34
				c-3.8,0.13-7.6,0.21-11.4,0.27c-7.59,0.11-15.17,0.07-22.76-0.12c-3.51-0.09-7.02-0.2-10.53-0.35c-1.77-0.08-0.41-0.02-0.05,0
				c-0.81-0.04-1.61-0.08-2.42-0.13c-2.15-0.12-4.3-0.25-6.45-0.39c-7.22-0.48-14.44-1.09-21.63-1.86
				c-14.59-1.55-26.64-3.35-41.2-6.24c-30.03-5.96-59.55-14.9-87.43-27.8c-6.27-2.9-13.78-3.31-20.52-1.88
				C570.06,1352.15,560.88,1355.9,567.16,1358.8L567.16,1358.8z"/>
		</g>
	</g>
	<g>
		<g>
			<path d="M582.67,1094.46c48.99,31.79,107.89,46.77,165.5,52.17c62.62,5.88,126.57,0.64,187.22-16.1
				c30.35-8.38,59.99-20.13,87.19-36.08c5.72-3.35-2.46-6.57-5.38-7.18c-6.21-1.31-14.82-1.46-20.52,1.88
				c-22.33,13.09-46.27,23.01-70.99,30.6c-12.75,3.91-24.89,6.93-38.42,9.68c-14.64,2.97-25.42,4.63-39.7,6.19
				c-7.09,0.78-14.19,1.4-21.3,1.87c-1.97,0.13-3.93,0.24-5.9,0.36c-2.81,0.17,0.89-0.02-1.92,0.1c-3.94,0.16-7.88,0.29-11.83,0.36
				c-7.14,0.13-14.29,0.12-21.43-0.06c-1.72-0.04-3.44-0.09-5.16-0.15c-0.88-0.03-4.81-0.19-3.9-0.15c1.56,0.07-0.86-0.05-0.95-0.05
				c-0.98-0.06-1.96-0.11-2.94-0.17c-1.96-0.12-3.91-0.24-5.87-0.39c-7.05-0.51-14.09-1.17-21.11-2c-3.37-0.4-6.73-0.83-10.09-1.31
				c-0.72-0.1-1.44-0.2-2.15-0.31c1.92,0.29-0.47-0.08-0.71-0.12c-1.9-0.31-3.8-0.61-5.7-0.93c-12.85-2.18-27.04-5.24-38.53-8.49
				c-28.03-7.91-55.03-19.16-79.51-35.05c-5.48-3.56-14.41-3.18-20.52-1.88C584.81,1087.97,577.12,1090.86,582.67,1094.46
				L582.67,1094.46z"/>
		</g>
	</g>
	<g>
		<g>
			<path d="M613.51,863.96c46.31,23.85,96.56,39.86,147.86,48.63c53.58,9.16,108.79,11.2,162.73,3.93
				c29.25-3.94,58.12-10.4,85.97-20.23c5.25-1.86,5.16-5.54,0-7.42c-6.3-2.3-14.88-2.24-21.21,0c-21.99,7.76-44.55,13.22-67.62,16.8
				c-9.77,1.52-22.74,2.89-33.95,3.68c-11.45,0.81-22.14,1.11-35.05,0.99c-22.43-0.22-46.66-2.17-69.25-5.74
				c-23.65-3.74-47.08-9.03-69.96-16.11c-25.34-7.85-50.04-17.67-73.62-29.82c-6.05-3.12-13.96-3.27-20.52-1.88
				C616.19,857.35,607.43,860.83,613.51,863.96L613.51,863.96z"/>
		</g>
	</g>
	<g>
		<g>
			<path d="M841.79,800.92c15.66,0,31.33,0,46.99,0c3.3,0,14.74-0.2,15-5.25c0.26-4.87-12.63-5.25-15-5.25c-15.66,0-31.33,0-46.99,0
				c-3.3,0-14.74,0.2-15,5.25C826.53,800.54,839.42,800.92,841.79,800.92L841.79,800.92z"/>
		</g>
	</g>
	<g>
		<g>
			<path d="M850.41,795.67c-0.84-13.45-1.12-27.04-0.11-40.49c1.01-13.44,3.97-26.99,15.44-35.59c0.89-0.66,6.67-4.11,6.78-3.55
				c-0.02-0.09-5.03,1-5.69-0.05c0.26,0.41,3.42,1.55,3.86,1.82c6.16,3.82,10.81,10.56,13.33,17.27
				c6.78,17.98-0.35,38.28-6.19,55.47c-1.62,4.76,27.03,8.73,30,0c5.57-16.37,11.88-34.64,7.26-52.03
				c-3.8-14.3-13.97-26.12-28.37-30.34c-17.67-5.19-38.68-2.46-52.27,10.61c-9.58,9.22-12.88,21.58-14,34.39
				c-1.23,14.09-0.93,28.38-0.05,42.48C820.9,803.51,850.86,802.82,850.41,795.67L850.41,795.67z"/>
		</g>
	</g>
	<g>
		<g>
			<path d="M855.13,1072.51c17.76-0.98,35.51-1.96,53.27-2.95c2.86-0.16,12.95-1.64,10.48-6.46c-2.42-4.72-14.57-3.88-18.45-3.67
				c-17.76,0.98-35.51,1.96-53.27,2.95c-2.86,0.16-12.95,1.64-10.48,6.46C839.11,1073.56,851.25,1072.72,855.13,1072.51
				L855.13,1072.51z"/>
		</g>
	</g>
	<g>
		<g>
			<path d="M866.15,1067.45c-2.64-24.77-1.14-55.87,16.21-75.51c2.3-2.6,4.83-4.42,7.55-6.51c4.52-3.46-4.75,5.66-9.87-1.24
				c0.53,0.72,1.42,1.31,2.03,2.04c4.67,5.64,6.41,13.71,8.06,20.65c4.03,17.01,4.6,34.61,1.99,51.88c-0.96,6.36,28.74,8.35,30,0
				c2.42-16.06,2.11-32.39-1.2-48.3c-2.8-13.48-6.35-29.56-21.13-34.12c-17.69-5.46-36.69,0.45-48.04,14.82
				c-7.61,9.62-11.79,21.91-14.11,33.82c-2.72,13.95-3,28.37-1.49,42.47C837,1075.51,866.87,1074.27,866.15,1067.45L866.15,1067.45z
				"/>
		</g>
	</g>
	<g>
		<g>
			<path d="M883.72,1328.79c5.57-2.44,11.32-4.47,17.36-5.33c3.92-0.56,7.53-0.68,11.45-0.09c6.11,0.91,15.12,1.99,20.52-1.88
				c5.11-3.67-1.85-6.66-5.38-7.18c-21.91-3.27-44.67-1.9-65.17,7.07c-1.34,0.59-4.39,1.67-4.39,3.71c0,1.98,3.04,3.22,4.39,3.71
				C868.42,1330.95,877.81,1331.38,883.72,1328.79L883.72,1328.79z"/>
		</g>
	</g>
	<g>
		<g>
			<path d="M883.15,1321.44c2.3-21.1,5.08-43.12,13.13-62.92c3.43-8.43,8.21-18.02,16.05-23.15c0.97-0.64,2.75-1.17,3.53-1.95
				c0.34-0.34,0.1-0.06,0.07-0.03c-1.79-0.1-3.58-0.2-5.37-0.3c-5.31-1.18-6.91-1.16-4.82,0.05c1.05,2.08,3.26,3.6,4.18,6.06
				c2.34,6.3,2.38,13.69,3.02,20.29c1.83,18.72,3.24,37.47,4.29,56.25c0.44,7.8,30.4,7.2,30,0c-1.09-19.43-2.57-38.83-4.48-58.19
				c-0.76-7.64-1.03-15.81-4.63-22.78c-4.41-8.52-14.61-10.93-23.44-11.4c-16.72-0.9-32.02,5.74-41.05,19.95
				c-6.98,10.99-10.9,24-13.84,36.58c-3.2,13.66-5.11,27.59-6.63,41.52C852.41,1328.14,882.25,1329.62,883.15,1321.44
				L883.15,1321.44z"/>
		</g>
	</g>
</g>
<g id="Ebene_4">
	<g>
		<g>
			<path d="M635.56,494.59c12.08,39.39,24.17,78.78,36.25,118.17c1.52,4.94,9.62-0.86,8.23-5.41
				c-12.08-39.39-24.17-78.78-36.25-118.17C642.28,484.24,634.17,490.04,635.56,494.59L635.56,494.59z"/>
		</g>
	</g>
	<g>
		<g>
			<path d="M681.6,501.94c8,38,15.99,75.99,23.99,113.99c1.19,5.67,9.76,1.2,8.78-3.43c-8-38-15.99-75.99-23.99-113.99
				C689.19,492.84,680.63,497.31,681.6,501.94L681.6,501.94z"/>
		</g>
	</g>
	<g>
		<g>
			<path d="M719.58,507c3.47,35.59,6.93,71.17,10.4,106.76c0.56,5.71,9.24,1.26,8.78-3.43c-3.47-35.59-6.93-71.17-10.4-106.76
				C727.8,497.86,719.12,502.31,719.58,507L719.58,507z"/>
		</g>
	</g>
	<g>
		<g>
			<path d="M756.38,511.17c0.79,33.86,1.58,67.72,2.38,101.58c0.13,5.65,8.89,1.23,8.78-3.43c-0.79-33.86-1.58-67.72-2.38-101.58
				C765.04,502.09,756.28,506.51,756.38,511.17L756.38,511.17z"/>
		</g>
	</g>
	<g>
		<g>
			<path d="M794.89,517.37c-0.32,33.52-0.65,67.03-0.97,100.55c-0.02,2.51,3.08,3.02,4.9,2.36c2.47-0.9,3.86-3.28,3.89-5.79
				c0.32-33.52,0.65-67.03,0.97-100.55c0.02-2.51-3.08-3.02-4.9-2.36C796.3,512.49,794.91,514.87,794.89,517.37L794.89,517.37z"/>
		</g>
	</g>
	<g>
		<g>
			<path d="M829.09,514.26c-0.32,34.55-0.65,69.1-0.97,103.66c-0.02,2.51,3.08,3.02,4.9,2.36c2.47-0.9,3.86-3.28,3.89-5.79
				c0.32-34.55,0.65-69.1,0.97-103.66c0.02-2.51-3.08-3.02-4.9-2.36C830.51,509.38,829.12,511.76,829.09,514.26L829.09,514.26z"/>
		</g>
	</g>
	<g>
		<g>
			<path d="M874.33,511.09c-1,34.9-2,69.8-3,104.69c-0.18,6.23,8.61,3.62,8.75-1.25c1-34.9,2-69.8,3-104.69
				C883.26,503.61,874.47,506.21,874.33,511.09L874.33,511.09z"/>
		</g>
	</g>
	<g>
		<g>
			<path d="M914.21,505.92c-1.38,32.48-2.75,64.96-4.13,97.44c-0.26,6.23,8.54,3.62,8.75-1.25c1.38-32.48,2.75-64.96,4.13-97.44
				C923.23,498.44,914.42,501.05,914.21,505.92L914.21,505.92z"/>
		</g>
	</g>
	<g>
		<g>
			<path d="M959.56,499.64c-5.87,34.9-11.75,69.79-17.62,104.69c-1.03,6.12,7.95,3.49,8.75-1.25c5.87-34.9,11.75-69.79,17.62-104.69
				C969.34,492.27,960.36,494.9,959.56,499.64L959.56,499.64z"/>
		</g>
	</g>
	<g>
		<g>
			<path d="M994.8,501.78c-9.69,32.82-19.39,65.64-29.08,98.45c-1.85,6.25,6.67,6.02,8.15,1.01c9.69-32.82,19.39-65.64,29.08-98.45
				C1004.79,496.55,996.28,496.77,994.8,501.78L994.8,501.78z"/>
		</g>
	</g>
</g>
</svg>
