<?xml version="1.0" encoding="utf-8"?>
<!-- Generator: Adobe Adobe Illustrator 24.2.0, SVG Export Plug-In . SVG Version: 6.00 Build 0)  -->
<svg version="1.1" xmlns="http://www.w3.org/2000/svg" xmlns:xlink="http://www.w3.org/1999/xlink" x="0px" y="0px"
	 viewBox="0 0 1700.79 1700.79" style="enable-background:new 0 0 1700.79 1700.79;" xml:space="preserve">
<style type="text/css">
	.st0{fill:#FFFFFF;}
	.st1{fill:#CA5B7B;stroke:#CC5B7C;stroke-width:1.0618;stroke-miterlimit:10;}
	.st2{stroke:#000000;stroke-miterlimit:10;}
	.st3{fill:#FFFFFF;stroke:#FFFFFF;stroke-width:0.1023;stroke-miterlimit:10;}
	.st4{fill:#808D9C;}
	.st5{fill:#3E4C5B;}
	.st6{fill:#5C646F;stroke:#000000;stroke-width:6.207;stroke-miterlimit:10;}
	.st7{fill:#D3E1EC;stroke:#000000;stroke-width:4.9355;stroke-miterlimit:10;}
	.st8{stroke:#000000;stroke-width:0.834;stroke-miterlimit:10;}
	.st9{fill:#FFFFFF;stroke:#FFFFFF;stroke-width:0.2278;stroke-miterlimit:10;}
	.st10{opacity:0.0902;}
	.st11{opacity:0.149;}
</style>
<g id="Ebene_7">
</g>
<g id="Ebene_8">
</g>
<g id="Ebene_9">
	<g>
		<path class="st0" d="M853.34,1513.9c15.53-8.01,34.17,0.94,48.73,10.59c42.68,28.29,80.19,64.36,110.13,105.9
			c-49.59-4.07-99.5-4.11-149.09-0.12c-4.01-38.21-8.02-76.43-12.02-114.64"/>
		<g>
			<path class="st0" d="M855.87,1518.22c15.27-7.32,32.59,3.18,45.1,11.53c13.84,9.24,27.11,19.33,39.73,30.18
				c25.14,21.61,47.75,46.13,67.18,72.98c1.44-2.51,2.88-5.02,4.32-7.52c-49.61-4.02-99.47-4.06-149.09-0.12
				c1.67,1.67,3.33,3.33,5,5c-4.01-38.21-8.02-76.43-12.02-114.64c-0.66-6.34-10.67-6.4-10,0c4.01,38.21,8.02,76.43,12.02,114.64
				c0.26,2.52,2.08,5.23,5,5c49.62-3.94,99.48-3.89,149.09,0.12c3.61,0.29,6.48-4.54,4.32-7.52
				c-21.29-29.41-46.04-56.19-73.96-79.42c-13.76-11.44-28.21-22.67-43.6-31.84c-14.58-8.68-31.88-14.83-48.14-7.03
				C845.02,1512.36,850.08,1520.99,855.87,1518.22L855.87,1518.22z"/>
		</g>
	</g>
	<g>
		<path class="st0" d="M616.35,1036.91c11.66-18.23,19.95-38.6,24.34-59.79c-17.06-7.86-39.72,0.4-47.73,17.4
			c-8,17,0.07,39.73,16.99,47.87"/>
		<g>
			<path class="st0" d="M620.67,1039.43c11.83-18.7,20.25-39.35,24.84-60.99c0.42-1.96-0.23-4.74-2.3-5.65
				c-19.65-8.56-45.06-0.71-54.57,19.19c-9.35,19.58-0.49,44.93,18.79,54.71c5.73,2.9,10.79-5.72,5.05-8.63
				c-14.34-7.28-21.99-26-15.2-41.03c6.64-14.69,26.15-22.02,40.88-15.6c-0.77-1.88-1.53-3.76-2.3-5.65
				c-4.43,20.87-12.43,40.57-23.83,58.6C608.58,1039.84,617.23,1044.87,620.67,1039.43L620.67,1039.43z"/>
		</g>
	</g>
</g>
<g id="Ebene_2">
	<g>
		<path class="st0" d="M705.54,664.92c-23.2,131.76-48.29,269.81-71.49,401.58c-3.8,21.6-7.29,45.22,3.48,64.32
			c17,30.13,58.56,32.87,93.14,31.91c64.93-1.81,129.85-3.63,194.78-5.44c24.62-0.69,53.08-3.37,66.89-23.76
			c11.48-16.95,8.02-39.51,4.02-59.59c-28.08-141.1-60.15-281.41-96.14-420.7"/>
		<g>
			<path d="M700.72,663.59c-16.4,93.15-33.17,186.23-49.79,279.34c-4.13,23.16-8.26,46.32-12.37,69.48
				c-3.96,22.32-8.54,44.64-11.62,67.1c-2.66,19.33-2.96,40.37,8.38,57.23c8.97,13.32,23.06,21.46,38.26,25.81
				c16.24,4.64,33.48,5.5,50.28,5.32c23.14-0.25,46.29-1.24,69.42-1.88c24.18-0.68,48.36-1.35,72.54-2.03
				c23.16-0.65,46.41-0.71,69.54-2.08c16.4-0.97,34.15-3.29,48.08-12.72c15.99-10.82,22.23-28.75,21.67-47.51
				c-0.64-21.41-6.68-42.92-10.94-63.82c-4.86-23.82-9.82-47.61-14.91-71.38c-20.05-93.79-41.87-187.21-65.43-280.18
				c-2.91-11.46-5.84-22.92-8.8-34.37c-1.61-6.23-11.26-3.59-9.64,2.66c23.16,89.69,44.72,179.78,64.62,270.25
				c9.88,44.91,19.36,89.91,28.43,134.99c3.86,19.19,10.33,40.82,4.69,60.27c-5.01,17.27-20.44,25.72-37,29.24
				c-19.04,4.05-39.16,3.22-58.51,3.76c-23.19,0.65-46.38,1.3-69.56,1.94c-23.19,0.65-46.38,1.3-69.56,1.94
				c-18.97,0.53-38.08,1.75-57.04,0.26c-15.67-1.23-32.13-4.39-45.33-13.41c-15.37-10.49-21.07-27.89-20.78-45.9
				c0.35-21.4,5.79-42.93,9.5-63.92c3.92-22.15,7.86-44.29,11.8-66.43c15.95-89.47,32.07-178.9,47.9-268.39
				c1.94-10.97,3.88-21.94,5.81-32.91C711.47,659.96,701.83,657.26,700.72,663.59L700.72,663.59z"/>
		</g>
	</g>
	<g>
		<g>
			<path d="M692.24,661.39c-51.91,43.28-103.82,86.55-155.73,129.83c-11.29,9.41-23.89,18.29-33.6,29.4
				c-8.16,9.34-13.48,21.23-9.89,33.72c3.47,12.07,13.46,20.81,23.14,28.09c12.69,9.55,25.86,18.52,38.79,27.75
				c30.81,21.99,61.63,43.97,92.44,65.96c-0.6-2.28-1.2-4.56-1.79-6.84c-12.13,25.21-24.26,50.41-36.39,75.62
				c2.28-0.6,4.56-1.2,6.84-1.79c-16.31-11.91-39.14-35.66-20.28-55.45c13.24-13.89,36.23-17.09,53.51-9.8
				c5.92,2.5,8.51-7.18,2.66-9.64c-17.03-7.18-38.17-4.88-53.79,4.81c-15.52,9.63-23.88,27.11-16.95,44.8
				c5.63,14.36,17.64,25.03,29.8,33.91c2.06,1.51,5.76,0.46,6.84-1.79c12.13-25.21,24.26-50.41,36.39-75.62
				c1.25-2.61,0.56-5.16-1.79-6.84c-25.72-18.35-51.45-36.71-77.17-55.06c-12.86-9.18-25.72-18.35-38.59-27.53
				c-10.46-7.46-22.86-14.66-30.24-25.52c-7.58-11.16-4.46-22.75,4.05-32.27c9.44-10.57,21.47-19.14,32.32-28.18
				c24.55-20.47,49.1-40.93,73.65-61.4c27.62-23.02,55.23-46.05,82.85-69.07C704.26,664.33,697.15,657.29,692.24,661.39
				L692.24,661.39z"/>
		</g>
	</g>
	<g>
		<g>
			<path d="M907.92,661.67c32.1,14.15,64.2,28.31,96.3,42.46c16.35,7.21,32.7,14.42,49.06,21.63c14.79,6.52,29.7,14.65,45.28,19.1
				c12.7,3.62,26.84,2.46,35.22-8.88c7.18-9.71,7.67-22.93,7.16-34.54c-1.53-35.25-3.89-70.49-5.84-105.72
				c-2.21-39.87-4.41-79.75-6.62-119.62c-0.35-6.4-10.36-6.44-10,0c3.68,66.46,7.36,132.91,11.04,199.37
				c1.08,19.59,9.57,68.28-25.09,60.56c-7.21-1.61-13.94-4.73-20.66-7.69c-7.57-3.34-15.14-6.68-22.71-10.01
				c-15.14-6.68-30.28-13.35-45.42-20.03c-34.22-15.09-68.44-30.18-102.65-45.27C907.13,650.46,902.04,659.08,907.92,661.67
				L907.92,661.67z"/>
		</g>
	</g>
	<g>
		<g>
			<path d="M741.51,1162.28c4.27,78.28,5.26,156.71,10.74,234.93c1.51,21.55,3.38,43.08,5.8,64.55c0.71,6.32,10.72,6.4,10,0
				c-8.78-78.02-10.58-156.63-13.62-235.02c-0.83-21.49-1.75-42.98-2.92-64.46C751.16,1155.88,741.15,1155.84,741.51,1162.28
				L741.51,1162.28z"/>
		</g>
	</g>
	<g>
		<path class="st0" d="M884.22,173.81c-104.13-41.26-233.58-5.23-301.61,83.76s-68.93,223.17-2.29,313.21
			s195.03,128.42,300.22,89.95c105.2-38.46,178.52-150.42,171.99-262.24c-6.53-111.82-92.23-214.38-201.04-240.93"/>
		<g>
			<path d="M885.55,168.99c-51.2-20.11-108.42-22.01-161.51-8.43c-52.92,13.54-102.46,42.72-137.84,84.61
				c-36.94,43.75-57.07,99.79-59.9,156.74c-2.83,56.96,11.69,115.43,43.7,162.9c30.84,45.75,76.87,79.63,128.45,98.56
				c51.37,18.85,108.64,22.8,161.73,8.95c54.18-14.13,102.23-47.38,136.91-91.07c34.79-43.83,56.88-97.73,60.37-153.76
				c3.45-55.33-12.78-110.68-42.87-156.99c-29.82-45.9-72.93-83.47-123.42-104.92c-12.44-5.29-25.23-9.6-38.36-12.84
				c-6.25-1.54-8.91,8.1-2.66,9.64c51.8,12.81,98.06,42.73,132.97,82.86c34.55,39.73,58.09,90,63.54,142.58
				c5.59,53.89-7.92,108.53-35.26,155.06c-27.24,46.35-68.09,84.77-117.25,106.96c-48.4,21.85-103.85,25.89-155.51,14.77
				c-51.4-11.07-99.78-36.82-136.08-75.08c-37.92-39.97-60.2-92.94-65.37-147.57c-5.17-54.66,5.96-111.08,34-158.51
				c27.23-46.05,70.37-81.35,119.76-101.45c48.84-19.88,103.67-25.87,155.34-14.52c12.48,2.74,24.71,6.49,36.6,11.16
				C888.89,180.98,891.49,171.32,885.55,168.99L885.55,168.99z"/>
		</g>
	</g>
	<g>
		<g>
			<path d="M898.64,1157.89c4.98,77.17,9.25,154.39,13.92,231.58c1.27,21.03,2.57,42.06,3.93,63.08c0.41,6.39,10.41,6.44,10,0
				c-4.98-77.17-9.25-154.39-13.92-231.58c-1.27-21.03-2.57-42.06-3.93-63.08C908.23,1151.5,898.22,1151.46,898.64,1157.89
				L898.64,1157.89z"/>
		</g>
	</g>
	<g>
		<path class="st0" d="M659.53,1642.26c-7.7-42.56-5.48-106.77,21.19-140.8s76.42-51.21,115.59-32.87
			c29.53,13.83,48.31,44.56,55.79,76.3c7.48,31.74,5.27,64.85,3.03,97.38"/>
		<g>
			<path d="M664.36,1640.93c-4.8-27-5.25-55.5-0.65-82.55c4.61-27.11,14.82-51.97,36.59-69.67c21.29-17.31,50.81-26.76,78.05-20.89
				c28.94,6.24,49.94,29.21,61.43,55.54c16.26,37.24,13.09,79.41,10.36,118.91c-0.44,6.42,9.56,6.4,10,0
				c2.66-38.48,5.42-78.98-8.4-115.83c-10.76-28.67-31.09-54.73-60.63-65.38c-28.56-10.29-61.22-3.72-86.38,12.23
				c-12.34,7.82-23.41,18.04-31.6,30.18c-8,11.86-13.08,25.69-16.44,39.52c-7.93,32.61-7.82,67.65-1.96,100.59
				C655.84,1649.92,665.48,1647.23,664.36,1640.93L664.36,1640.93z"/>
		</g>
	</g>
	<g>
		<g>
			<path d="M659.53,1647.26c65.2,0,130.4,0,195.6,0c6.43,0,6.45-10,0-10c-65.2,0-130.4,0-195.6,0
				C653.1,1637.26,653.09,1647.26,659.53,1647.26L659.53,1647.26z"/>
		</g>
	</g>
	<g>
		<g>
			<path d="M659.53,1628.44c65.64-0.18,131.27-1.3,196.91-1.48c6.43-0.02,6.45-10.02,0-10c-65.64,0.18-131.27,1.3-196.91,1.48
				C653.1,1618.46,653.09,1628.46,659.53,1628.44L659.53,1628.44z"/>
		</g>
	</g>
	<g>
		<g>
			<path d="M729.32,1528.94c21.59,0.73,43.17,1.46,64.76,2.19c6.44,0.22,6.43-9.78,0-10c-21.59-0.73-43.17-1.46-64.76-2.19
				C722.89,1518.72,722.89,1528.72,729.32,1528.94L729.32,1528.94z"/>
		</g>
	</g>
	<g>
		<g>
			<path d="M729.29,1498.56c21.59,0.69,43.17,1.38,64.76,2.07c6.44,0.21,6.43-9.79,0-10c-21.59-0.69-43.17-1.38-64.76-2.07
				C722.86,1488.36,722.86,1498.36,729.29,1498.56L729.29,1498.56z"/>
		</g>
	</g>
	<g>
		<path class="st0" d="M846.18,1518.9c6.54-27.32,19.48-60.62,75.31-63.72c92.89-5.17,96.8,137.91,93.38,179.9"/>
		<g>
			<path d="M851,1520.22c5.15-21.34,14.32-41.12,34.81-51.52c21.51-10.92,51.46-12.76,72.82-0.45
				c17.52,10.09,28.84,28.21,36.06,46.62c7.88,20.11,12.05,41.64,14.2,63.07c1.89,18.92,2.5,38.16,0.98,57.13
				c-0.51,6.42,9.49,6.38,10,0c1.42-17.74,0.95-35.7-0.63-53.41c-2.06-23.09-6.08-46.37-14.38-68.1
				c-7.87-20.6-19.86-40.58-38.91-52.59c-22.55-14.21-53.01-13.78-77.31-4.38c-13.78,5.33-25.45,14.24-33.62,26.6
				c-6.85,10.37-10.76,22.38-13.65,34.37C839.85,1523.82,849.49,1526.49,851,1520.22L851,1520.22z"/>
		</g>
	</g>
	<g>
		<g>
			<path d="M857.28,1640.07c51.87,0,103.74,0,155.61,0c6.43,0,6.45-10,0-10c-51.87,0-103.74,0-155.61,0
				C850.84,1630.07,850.83,1640.07,857.28,1640.07L857.28,1640.07z"/>
		</g>
	</g>
	<g>
		<g>
			<path d="M858.82,1620.11c51.39-0.04,102.69-3.62,154.07-3.66c6.43-0.01,6.45-10.01,0-10c-51.38,0.05-102.69,3.62-154.07,3.66
				C852.38,1610.11,852.37,1620.11,858.82,1620.11L858.82,1620.11z"/>
		</g>
	</g>
	<g>
		<g>
			<path d="M893.78,1525.01c21.59-0.74,43.17-1.49,64.76-2.23c6.42-0.22,6.45-10.22,0-10c-21.59,0.74-43.17,1.49-64.76,2.23
				C887.37,1515.23,887.34,1525.23,893.78,1525.01L893.78,1525.01z"/>
		</g>
	</g>
	<g>
		<g>
			<path d="M899.02,1498.05c19.07,0.02,38.13,0.5,57.19,0.51c6.43,0.01,6.44-9.99,0-10c-19.07-0.02-38.13-0.5-57.19-0.51
				C892.58,1488.05,892.57,1498.05,899.02,1498.05L899.02,1498.05z"/>
		</g>
	</g>
</g>
<g id="Ebene_10">
	<ellipse class="st1" cx="676.19" cy="513.79" rx="45.86" ry="50.51"/>
	<ellipse class="st1" cx="927.61" cy="527.22" rx="45.86" ry="50.51"/>
</g>
<g id="Ebene_4">
	<ellipse class="st2" cx="838.52" cy="392.28" rx="11.88" ry="43"/>
</g>
<g id="Ebene_5">
	<circle class="st3" cx="843.55" cy="362.64" r="2.62"/>
</g>
<g id="Ebene_3">
	<g>
		<g>
			<path d="M1016.66,447.88c0.91-15.49,1.81-30.99,2.72-46.48c0.56-9.64-14.44-9.61-15,0c-0.91,15.49-1.81,30.99-2.72,46.48
				C1001.09,457.52,1016.1,457.49,1016.66,447.88L1016.66,447.88z"/>
		</g>
	</g>
	<g>
		<g>
			<path d="M820.24,301.94c-26.53,23.56-42.28,58.17-43.57,93.55c-1.27,34.8,12.77,68.73,36.88,93.64
				c13.53,13.98,30.01,24.61,48.2,31.45c9.05,3.4,12.95-11.09,3.99-14.46c-28.52-10.72-51.65-33.4-64.35-60.93
				c-13.04-28.27-12.59-61.15-0.97-89.79c6.67-16.45,17.19-31.08,30.44-42.85C838.08,306.12,827.44,295.55,820.24,301.94
				L820.24,301.94z"/>
		</g>
	</g>
	<g>
		<path class="st4" d="M1009.6,388.8c218.21-11.74,231.88-26.86,231.88,15.1c0,70-1.07,50.7-234.15,50.7"/>
		<g>
			<path d="M1009.6,393.8c58.91-3.18,117.67-8.63,176.57-11.88c7.24-0.4,14.49-0.73,21.74-0.71c2.82,0.01,5.64,0.07,8.46,0.24
				c1.15,0.07,2.29,0.17,3.44,0.27c0.53,0.05,1.07,0.11,1.6,0.18c0.71,0.09-0.74-0.14,0.74,0.11c1.81,0.3,3.6,0.66,5.35,1.2
				c0.52,0.16,2.42,0.88,1.82,0.62c-0.64-0.27,1.07,0.55,1.5,0.79c0.56,0.3,2.03,1.46,0.78,0.43c0.53,0.44,1.01,0.92,1.52,1.39
				c1.17,1.09-0.19-0.52,0.48,0.57c0.34,0.55,0.66,1.11,0.98,1.67c0.81,1.42-0.15-0.84,0.36,0.88c0.2,0.68,0.43,1.36,0.6,2.05
				c0.17,0.7,0.29,1.4,0.42,2.11c0.31,1.63,0.02-0.49,0.18,1.4c0.36,4.41,0.35,8.83,0.33,13.25c-0.01,5.35-0.04,10.72-0.37,16.06
				c-0.31,4.86-0.31,6.38-1.65,11.17c-0.22,0.8-0.49,1.58-0.75,2.37c-0.12,0.36-0.66,1.58-0.05,0.19c-0.19,0.44-0.38,0.89-0.61,1.32
				c-0.37,0.66-0.74,1.31-1.12,1.97c-0.19,0.32-0.42,0.62-0.63,0.92c-0.39,0.56,0.79-0.86-0.17,0.18c-0.51,0.55-1.03,1.07-1.55,1.6
				c-0.27,0.27-0.57,0.5-0.86,0.74c0.41-0.35,0.53-0.35-0.26,0.18c-0.67,0.45-1.35,0.88-2.05,1.27c-0.54,0.3-2.95,1.4-1.72,0.89
				c-10.16,4.22-20.09,4.23-31.11,4.58c-19.86,0.63-39.76-0.04-59.62-0.49c-32.16-0.73-64.32-1.4-96.48-1.63
				c-10.04-0.07-20.09-0.11-30.13-0.11c-6.43,0-6.45,10,0,10c36.64,0.01,73.27,0.54,109.89,1.36c22.63,0.51,45.29,1.3,67.93,1.05
				c12.63-0.14,26.08-0.14,38.3-3.76c7.81-2.31,14.83-6.72,18.48-14.23c4.04-8.33,4.28-18.14,4.47-27.22
				c0.19-9.09,1-19.05-1.24-27.97c-4.8-19.1-28.69-17.91-44.21-17.52c-19.91,0.49-39.8,2.25-59.65,3.75
				c-33.3,2.51-66.6,4.93-99.94,6.94c-10.58,0.64-21.17,1.24-31.75,1.81C1003.19,384.15,1003.15,394.15,1009.6,393.8L1009.6,393.8z"
				/>
		</g>
	</g>
	<g>
		<path class="st5" d="M979.45,377.73c22.49,0,27.88-0.75,27.88,47.68c0,42.87-22.57,38.37-39.4,37.07"/>
		<g>
			<path d="M979.45,382.73c5.3,0,12.15-0.4,15.81,1.43c1.89,0.95,2.56,1.77,3.66,4.23c1.33,2.99,1.9,6.61,2.31,9.89
				c1.59,12.71,2.28,26.91,0.3,39.58c-1.17,7.49-3.85,15.97-11.54,18.96c-6.87,2.68-14.93,1.21-22.06,0.65
				c-6.42-0.51-6.38,9.49,0,10c7.95,0.63,16.29,1.75,24.05-0.78c9.84-3.2,15.66-11.56,18.19-21.29c3.74-14.38,2.75-30.89,1.24-45.56
				c-0.82-7.96-2.06-17.44-8.77-22.76c-6.39-5.07-15.5-4.37-23.18-4.37C973.01,372.74,973,382.74,979.45,382.73L979.45,382.73z"/>
		</g>
	</g>
	<ellipse class="st6" cx="866.61" cy="404.9" rx="112.84" ry="113.5"/>
	<ellipse class="st7" cx="870.04" cy="403.9" rx="91.5" ry="88.5"/>
	<g>
		<g>
			<path d="M665.08,520.26c22.3,30.46,54.36,52.99,90.63,63.57c36.99,10.78,76.87,7.88,112.27-7.1
				c20.24-8.57,38.68-20.94,54.2-36.52c4.55-4.56-2.52-11.64-7.07-7.07c-25.77,25.86-60.45,42.55-96.8,46.39
				c-35.3,3.73-70.86-4.95-100.89-23.78c-16.94-10.62-31.91-24.39-43.72-40.53C669.95,510.07,661.27,515.06,665.08,520.26
				L665.08,520.26z"/>
		</g>
	</g>
</g>
<g id="Ebene_6">
	<g>
		<path class="st0" d="M1126.95,433.3c-61.99-8.86-51.68,36.87-10.77,42.66c34.76,4.93,46.05-15.74,45.09-31.42
			c-0.63-10.3-20.28-10.58-34.33-11.7"/>
		<g>
			<path d="M1128.28,428.48c-14.37-1.96-35.05-3.73-45.74,8.64c-7.83,9.07-4.33,21.3,3.07,29.37
				c20.44,22.27,71.79,22.38,79.74-11.83c1.87-8.05,1.59-16.73-6.42-21.2c-9.34-5.21-21.64-4.82-31.98-5.62
				c-6.42-0.5-6.39,9.51,0,10c7.7,0.6,15.7,0.66,23.17,2.81c5.96,1.71,6.89,4.29,5.84,10.13c-2.14,12.03-12.18,19.17-23.88,20.6
				c-12.32,1.5-26.95-1.05-36.66-9.31c-5.2-4.43-9.5-11.47-6.39-16.93c6.11-10.73,26.62-8.38,36.59-7.02
				C1131.92,438.98,1134.64,429.35,1128.28,428.48L1128.28,428.48z"/>
		</g>
	</g>
	<g>
		<path class="st0" d="M1134.07,354.63c-43.96-4.95-46.45,24.85-39.82,35.31c10.4,16.44,56.23,16.11,67.09,0.3
			c7-10.19,4.32-35.22-25.27-35.22"/>
		<g>
			<path d="M1134.07,349.63c-15.73-1.63-35.69,0.33-44.11,15.9c-5.07,9.37-4.93,22.48,2.74,30.47
				c11.16,11.61,31.59,12.5,46.44,10.29c14.12-2.09,28.51-8.88,30.23-24.52c0.84-7.61-1.42-15.39-6.41-21.24
				c-6.67-7.81-17.01-10.37-26.89-10.51c-6.44-0.09-6.44,9.91,0,10c11.87,0.17,24.02,5.94,23.48,19.45
				c-0.45,11.23-11.27,15.11-20.89,16.83c-11.46,2.05-27.08,1.71-36.85-5.54c-5.73-4.26-6.69-11.82-4.03-18.5
				c5.52-13.83,23.99-13.9,36.28-12.62C1140.46,360.3,1140.42,350.29,1134.07,349.63L1134.07,349.63z"/>
		</g>
	</g>
</g>
<g id="Ebene_11">
	<ellipse class="st8" cx="712.55" cy="389.74" rx="16.77" ry="35.66"/>
	<ellipse class="st8" cx="712.55" cy="389.74" rx="16.77" ry="35.66"/>
	<ellipse class="st8" cx="872.55" cy="392.28" rx="16.77" ry="35.66"/>
	<ellipse class="st9" cx="716.58" cy="369.14" rx="6.87" ry="6.5"/>
	<ellipse class="st9" cx="872.55" cy="369.14" rx="6.87" ry="6.5"/>
</g>
<g id="Ebene_13">
	<g class="st10">
		<path d="M729.32,171.82C514.59,306.6,528.13,622.73,764.21,656.29c46.67,6.63,94.12,0.11,140.67-7.31
			c-187.24,80.37-383.05-46.76-367.23-276.34c6.37-92.52,89.42-169.51,185.79-199.41"/>
		<g>
			<path d="M725.54,165.34c-45.16,28.46-83.77,66.91-111.19,112.8c-24.81,41.52-40.23,88.62-43.84,136.89
				c-3.34,44.54,3.98,90.1,23.52,130.41c19.27,39.75,51,72.82,90.15,93.36c21.82,11.45,45.51,19.18,69.76,23.4
				c40.6,7.07,81.63,4.19,122.22-1.38c10.26-1.41,20.49-2.99,30.72-4.62c-1.93-4.57-3.85-9.14-5.78-13.71
				c-46.89,20.01-99.48,28.3-150.02,20.04c-47.02-7.68-91.25-28.91-125.95-61.66c-37.17-35.08-61.69-81.28-73.07-130.89
				c-6.52-28.43-8.67-57.68-7.48-86.79c1.19-28.91,8.27-56.27,22.37-81.63c29.28-52.66,81.03-91.55,136.47-113.37
				c7.25-2.85,14.6-5.42,22.03-7.75c9.18-2.87,5.26-17.36-3.99-14.46c-60.98,19.09-118.06,55.94-155.22,108.56
				c-17.39,24.62-29.97,53.15-34.4,83.08c-4.57,30.88-3.22,63.1,1.48,93.88c8.23,53.98,30.97,105.68,67.78,146.29
				c34.05,37.56,79.52,64.19,128.84,75.8c52.39,12.33,107.77,7.91,158.32-10.08c6.9-2.45,13.68-5.19,20.41-8.06
				c3.42-1.46,4.36-6.3,3.07-9.37c-1.55-3.68-5.09-4.94-8.85-4.34c-65.67,10.45-135.16,18.03-197.86-9.5
				c-38.53-16.92-70.65-45.32-91.5-81.93c-20.66-36.27-29.55-78.25-28.75-119.78c0.86-45.07,13.05-89.74,33.98-129.58
				c23.17-44.12,56.87-82.43,97.45-111.35c5.53-3.94,11.17-7.7,16.91-11.32C741.26,173.16,733.74,160.17,725.54,165.34
				L725.54,165.34z"/>
		</g>
	</g>
	<g class="st10">
		<path d="M729.32,667.58c-29.15,96.31-25.86,213.65,27.26,299.11c53.12,85.46,144.15,146.37,243.42,162.86
			c-34.72,21.29-78.1,16.98-118.68,20.5c-232.94,20.18-260.79,4.45-235.12-131.45c20.99-111.11,42.52-242.56,63.51-353.68"/>
		<g>
			<path d="M722.09,665.58c-23.64,78.65-26.53,166.83,0.09,245.14c25.81,75.91,82.85,139.24,151.21,179.96
				c38.26,22.79,80.69,38.69,124.62,46.1c-0.6-4.57-1.19-9.14-1.79-13.71c-31.7,19.06-70.13,16.6-105.68,18.8
				c-33.27,2.06-66.41,5.55-99.73,7.01c-23.63,1.04-47.42,1.57-71.01-0.38c-9.03-0.75-15.86-1.59-24.81-3.54
				c-3.7-0.81-7.37-1.75-10.97-2.89c-1.62-0.51-3.23-1.06-4.82-1.66c-0.67-0.25-1.34-0.52-2.01-0.78c-1.47-0.59,0.51,0.27-1.24-0.54
				c-2.82-1.31-5.58-2.73-8.21-4.39c-1.2-0.76-2.37-1.58-3.52-2.41c-0.04-0.03,0.79,0.68-0.34-0.27c-0.66-0.55-1.32-1.1-1.95-1.67
				c-2-1.8-3.83-3.77-5.52-5.86c1.32,1.63-1.04-1.49-1.46-2.13c-0.78-1.2-1.51-2.43-2.18-3.69c-0.65-1.21-1.23-2.44-1.79-3.69
				c-0.02-0.04,0.37,1.02-0.14-0.38c-0.31-0.83-0.62-1.65-0.91-2.49c-0.95-2.79-1.7-5.65-2.3-8.54c-0.31-1.53-0.57-3.07-0.81-4.61
				c-0.2-1.25,0.09,1.13-0.13-1c-0.1-0.93-0.2-1.85-0.28-2.78c-0.32-3.6-0.47-7.21-0.49-10.82c-0.11-17.97,2.38-34.67,5.39-51.99
				c6-34.59,12.76-69.06,18.92-103.63c13.94-78.25,27.25-156.61,41.68-234.78c1.66-9.02,3.35-18.03,5.05-27.04
				c1.78-9.43-12.67-13.48-14.46-3.99c-14.98,79.36-28.54,158.97-42.59,238.49c-6.85,38.76-13.85,77.5-21.11,116.19
				c-3.64,19.44-6.97,39.15-7.74,58.95c-1.06,27.39,4.55,55.71,29.35,71.23c12.97,8.11,28.44,11.79,43.42,13.9
				c22.39,3.16,45.07,3.39,67.63,2.86c31.88-0.76,63.71-3.14,95.48-5.77c18.87-1.57,37.7-2.47,56.61-3.42
				c18.56-0.94,37.46-2.53,55.28-8.15c8.72-2.75,17.14-6.46,24.97-11.17c5.08-3.06,4.86-12.59-1.79-13.71
				c-75.5-12.72-145.68-50.72-198.12-106.45c-26.4-28.05-48.6-60.57-62.64-96.56c-14.49-37.15-21.48-76.89-22.56-116.67
				c-1.21-44.98,4.93-89.99,17.88-133.07C739.34,660.31,724.87,656.35,722.09,665.58L722.09,665.58z"/>
		</g>
	</g>
	<g class="st10">
		<path d="M602.36,986.3c-3.44,13.56,7.58,28.87,21.53,29.91c-2.87,7.71-5.74,15.41-8.61,23.12c-21.2-11.04-33.97-31.75-18.97-50.36
			"/>
		<g>
			<path d="M595.13,984.3c-4.19,19.07,9.59,37.35,28.77,39.41c-2.41-3.16-4.82-6.33-7.23-9.49c-2.87,7.71-5.74,15.41-8.61,23.12
				c3.67-1.49,7.34-2.99,11.02-4.48c-7.97-4.27-15.85-10.07-19.81-18.47c-3.68-7.82-1.55-15.05,3.52-21.62
				c2.49-3.23,0.47-8.37-2.69-10.26c-3.85-2.3-7.8-0.5-10.26,2.69c-7.65,9.92-9.62,22.5-4.72,34.1
				c4.99,11.82,15.28,20.57,26.39,26.52c4.56,2.44,9.3,0.13,11.02-4.48c2.87-7.71,5.74-15.41,8.61-23.12
				c1.87-5.02-2.85-9.02-7.23-9.49c-9.26-0.99-16.25-11.55-14.3-20.42C611.66,978.88,597.2,974.86,595.13,984.3L595.13,984.3z"/>
		</g>
	</g>
	<g class="st10">
		<path d="M1114.41,363.43c-2.6,15.56,26.57,30.79,42.23,28.85c-7.96,3.57-30.89,6.33-39.43,4.56s-16.49-8.13-18.22-16.68
			c-1.73-8.55,4.45-18.43,13.16-18.98"/>
		<g>
			<path d="M1106.91,363.43c-1.46,11.54,8.09,21.04,16.92,26.79c9.28,6.04,21.58,10.68,32.81,9.56c-1.26-4.66-2.52-9.32-3.79-13.98
				c-3.42,1.45-10.29,2.57-15.04,3.18c-5.81,0.74-12.25,1.51-18.11,0.72c-4.35-0.59-10.52-3.85-12.73-8.9
				c-1.77-4.04-0.04-11.49,5.18-12.11c4.02-0.47,7.5-3.11,7.5-7.5c0-3.69-3.45-7.98-7.5-7.5c-11.3,1.33-19.61,9.88-20.79,21.28
				c-1.13,10.96,6.09,21.14,15.55,26.05c8.4,4.37,17.71,4.25,26.9,3.4c9.03-0.83,18.22-2.1,26.62-5.65
				c6.78-2.86,3.39-14.7-3.79-13.98c-8.07,0.81-16.22-2.15-23.1-6.19c-5.59-3.28-12.49-8.39-11.63-15.16c0.51-4.03-3.81-7.5-7.5-7.5
				C1109.93,355.93,1107.42,359.4,1106.91,363.43L1106.91,363.43z"/>
		</g>
	</g>
	<g class="st10">
		<path d="M1102.43,439.92c7.08,13.76,33.35,21.7,48.73,23.35c-11.03,3.3-34.94,8.44-45.82,4.69s-18.75-17.88-11.96-27.18"/>
		<g>
			<path d="M1095.95,443.71c5.11,9.28,14.75,15,24.21,19.02c9.92,4.21,20.3,6.82,30.99,8.05c-0.66-4.91-1.33-9.82-1.99-14.73
				c-11.1,3.27-22.95,5.93-34.58,5.73c-4.84-0.09-9.14-1.04-12.52-4.78c-3.21-3.55-5.01-8.18-2.21-12.42
				c5.33-8.08-7.65-15.6-12.95-7.57c-9.88,14.97,2.66,35.35,18.82,38.83c15.19,3.27,32.82-1.02,47.43-5.33
				c8.6-2.53,6.08-13.81-1.99-14.73c-8.23-0.94-16.57-3.23-24.23-6.36c-6.77-2.76-14.37-6.64-18.03-13.28
				C1104.25,427.68,1091.29,435.24,1095.95,443.71L1095.95,443.71z"/>
		</g>
	</g>
	<g class="st10">
		<path d="M791.54,1478.81c-31.88,3.81-56.62,32.01-65.86,62.76s-5.98,63.72-1.66,95.53c-19.45,1.1-38.89,2.2-58.34,3.3
			c-9.01-41.69-6.74-87.63,15.96-123.74c22.7-36.11,69.01-58.92,109.63-45.89"/>
		<g>
			<path d="M791.54,1471.31c-31.44,4.13-56,27.16-68.38,55.6c-15.4,35.39-11.4,75.01-6.38,112.18c2.41-3.16,4.82-6.33,7.23-9.49
				c-19.45,1.1-38.89,2.2-58.34,3.3c2.41,1.84,4.82,3.67,7.23,5.51c-6.99-32.9-7.04-68.41,5.85-99.93
				c11.36-27.78,34.16-50.55,62.99-59.76c15.56-4.97,31.86-5.57,47.51-0.71c9.24,2.87,13.19-11.61,3.99-14.46
				c-32.4-10.06-66.98,0.37-92.85,21.04c-28.51,22.77-42.83,57.91-46.3,93.52c-2.1,21.49-0.12,43.23,4.35,64.3
				c0.65,3.05,4.11,5.68,7.23,5.51c19.45-1.1,38.89-2.2,58.34-3.3c5.36-0.3,7.9-4.52,7.23-9.49c-4.42-32.71-8.15-68.3,4.51-99.73
				c9.41-23.34,29.7-45.64,55.78-49.07c4.02-0.53,7.5-3.07,7.5-7.5C799.04,1475.17,795.58,1470.78,791.54,1471.31L791.54,1471.31z"
				/>
		</g>
	</g>
	<g class="st10">
		<path d="M950.4,1464.66c-24.1,17.6-37.91,46.54-43.32,75.89c-5.42,29.35-3.35,59.49-1.27,89.26c-14.62,0.04-29.24,0.07-43.86,0.11
			c10.11-22.99,3.23-49.43-2.41-73.9c-5.64-24.47-9.22-52.52,5.78-72.66c17.43-23.42,51.21-25.25,80.4-24.93"/>
		<g>
			<path d="M946.62,1458.19c-23.09,17.19-37.6,42.71-44.58,70.36c-8.36,33.09-6.08,67.59-3.72,101.26c2.5-2.5,5-5,7.5-7.5
				c-14.62,0.04-29.24,0.07-43.86,0.11c2.41,3.16,4.82,6.33,7.23,9.49c13.51-32.06-1.99-65.14-6.07-97.33
				c-1.82-14.33-1.79-30.07,5.7-42.91c6.57-11.28,17.9-17.92,30.19-21.39c15.15-4.28,31.09-4.5,46.72-4.35
				c9.65,0.09,9.66-14.91,0-15c-28.16-0.27-62.15,0.97-82.6,23.37c-23.87,26.15-15.42,63.1-8.43,94.06
				c4.44,19.69,8.14,40.31,0.03,59.57c-1.94,4.6,2.87,9.5,7.23,9.49c14.62-0.04,29.24-0.07,43.86-0.11c3.84-0.01,7.78-3.43,7.5-7.5
				c-2.19-31.24-4.68-63.39,2.44-94.2c5.7-24.65,17.74-49.06,38.43-64.47c3.27-2.44,4.85-6.46,2.69-10.26
				C955.05,1457.65,949.86,1455.78,946.62,1458.19L946.62,1458.19z"/>
		</g>
	</g>
	<g class="st10">
		<path d="M1007.87,397.02c16.69,22.3,40.09,39.52,66.35,48.81c-20.83,0.24-41.65,0.49-62.48,0.73c3.32-14.97,3.27-30.67-0.13-45.62
			"/>
		<g>
			<path d="M1001.39,400.8c18.2,24.02,42.46,42.03,70.83,52.26c0.66-4.91,1.33-9.82,1.99-14.73c-20.83,0.24-41.65,0.49-62.48,0.73
				c2.41,3.16,4.82,6.33,7.23,9.49c3.5-16.49,3.46-33.14-0.13-49.61c-2.06-9.43-16.52-5.44-14.46,3.99
				c3,13.75,3.05,27.87,0.13,41.64c-0.99,4.67,2.12,9.55,7.23,9.49c20.83-0.24,41.65-0.49,62.48-0.73
				c8.77-0.1,9.77-11.93,1.99-14.73c-24.36-8.78-46.21-24.7-61.87-45.36c-2.46-3.25-6.44-4.86-10.26-2.69
				C1000.88,392.36,998.95,397.58,1001.39,400.8L1001.39,400.8z"/>
		</g>
	</g>
	<g class="st10">
		<g>
			<path d="M974.85,388.15c-2.48,24.45,3.22,49.24,15.82,70.31c2.16-3.76,4.32-7.52,6.48-11.29c-7.5,0.38-15.01,0.77-22.51,1.15
				c2.41,3.16,4.82,6.33,7.23,9.49c2.08-10.62,4.16-21.23,6.24-31.85c1.85-9.43-12.61-13.47-14.46-3.99
				c-2.08,10.62-4.16,21.23-6.24,31.85c-0.88,4.51,2.04,9.76,7.23,9.49c7.5-0.38,15.01-0.77,22.51-1.15
				c5.54-0.28,9.52-6.19,6.48-11.29c-11.36-19-16.01-40.73-13.77-62.74c0.41-4.04-3.74-7.5-7.5-7.5
				C977.96,380.65,975.27,384.1,974.85,388.15L974.85,388.15z"/>
		</g>
	</g>
	<g class="st10">
		<g>
			<path d="M831.18,295.04c-41.08,14.35-71.57,52.88-77.68,95.83c-6.44,45.3,16.01,88.45,54.4,112.54
				c20.93,13.14,45.98,19.99,70.69,17.85c9.54-0.83,9.63-15.84,0-15c-38.9,3.38-77.6-17.51-97.75-50.73
				c-20.47-33.75-16.44-75.53,5.35-107.62c11.84-17.43,29.02-31.43,48.98-38.4C844.22,306.34,840.33,291.85,831.18,295.04
				L831.18,295.04z"/>
		</g>
	</g>
</g>
<g id="Ebene_14">
	<g class="st11">
		<g>
			<path class="st0" d="M1182.9,407.39c12.21-0.87,24.43-1.74,36.64-2.62c9.57-0.68,9.65-15.69,0-15
				c-12.21,0.87-24.43,1.74-36.64,2.62C1173.33,393.07,1173.25,408.08,1182.9,407.39L1182.9,407.39z"/>
		</g>
	</g>
	<g class="st11">
		<g>
			<path class="st0" d="M815.02,412.88c31.84-14.83,63.68-29.67,95.53-44.5c8.74-4.07,1.13-17.01-7.57-12.95
				c-31.84,14.83-63.68,29.67-95.53,44.5C798.71,404,806.32,416.93,815.02,412.88L815.02,412.88z"/>
		</g>
	</g>
	<g class="st11">
		<g>
			<path class="st0" d="M834.66,446.93c27.73-17.33,57.95-29.84,89.81-37.19c9.4-2.17,5.42-16.64-3.99-14.46
				c-33.02,7.62-64.66,20.75-93.4,38.71C818.93,439.09,826.45,452.07,834.66,446.93L834.66,446.93z"/>
		</g>
	</g>
</g>
</svg>
