<?xml version="1.0" encoding="utf-8"?>
<!-- Generator: Adobe Adobe Illustrator 24.2.0, SVG Export Plug-In . SVG Version: 6.00 Build 0)  -->
<svg version="1.1" xmlns="http://www.w3.org/2000/svg" xmlns:xlink="http://www.w3.org/1999/xlink" x="0px" y="0px"
	 viewBox="0 0 1700.79 1700.79" style="enable-background:new 0 0 1700.79 1700.79;" xml:space="preserve">
<style type="text/css">
	.st0{opacity:0.1412;}
	.st1{fill:#F4C159;}
	.st2{fill:#FFFFFF;}
</style>
<g id="Ebene_1">
	<g class="st0">
		<path d="M714.05,1110.73c-11.64-253.64-33.78-506.81-66.34-758.62c-5.55-42.93-10.86-89.11,9.55-127.28
			c29.22-54.65,98.17-71.49,159.1-82.75c40.79-7.53,90.77-11.81,115.97,21.15c15.47,20.23,15.56,47.89,14.98,73.35
			c-4.35,190.52-8.71,381.04-13.06,571.56c-1.68,73.42-3.36,146.83-5.03,220.25c-0.38,16.54-0.95,33.83-8.97,48.3
			c-16.92,30.53-54.69,35.79-89.31,31.3c-34.62-4.48-66.68-2.29-107.42-2.29"/>
		<g>
			<path d="M729.05,1110.73c-3.78-82.24-8.65-164.42-14.63-246.53c-5.95-81.78-13-163.47-21.14-245.06
				c-8.17-81.92-17.44-163.72-27.8-245.39c-4.56-35.9-11.28-72.87-5.92-109.06c4.58-30.94,20.29-58.19,45.72-76.59
				c23.06-16.68,51.15-26.37,77.83-32.93c14.62-3.59,29.41-6.56,44.24-9.19c8.04-1.43,11.65-2,19.74-2.87
				c3.6-0.39,7.2-0.7,10.81-0.92c0.72-0.04,1.44-0.09,2.16-0.12c-2.62,0.12-0.14,0.02,0.33,0.01c2.15-0.03,4.29-0.09,6.44-0.07
				c1.66,0.01,3.31,0.04,4.97,0.11c-2.96-0.13,2.4,0.21,3.02,0.26c1.61,0.15,3.22,0.33,4.82,0.53c2.31,0.3-1.79-0.32,0.49,0.08
				c1.12,0.2,2.23,0.39,3.34,0.62c3.6,0.73,4.37,0.91,7.93,2.12c2.92,0.99,5.73,2.14,8.45,3.6c12.89,6.92,22.51,18.63,27.2,32.49
				c5.32,15.72,5.62,32.69,5.36,49.13c-0.31,20.19-0.91,40.37-1.37,60.56c-1.9,82.94-3.79,165.87-5.69,248.81
				c-1.89,82.6-3.78,165.2-5.66,247.81c-1.88,82.07-3.01,164.2-5.65,246.25c-0.55,17.11-2.38,34.52-13.27,48.45
				c-7.92,10.13-20.31,16.96-31.42,19.43c-1.58,0.35-3.16,0.65-4.75,0.93c-2.76,0.5-1.17,0.17-0.56,0.09
				c-0.93,0.12-1.86,0.23-2.79,0.33c-1.88,0.2-3.76,0.35-5.64,0.46c2.65-0.16-2.17,0.03-3.15,0.04c-1.92,0.01-3.83-0.03-5.75-0.09
				c2.62,0.07-1.74-0.11-2.49-0.17c-3.95-0.3-7.88-0.79-11.81-1.27c-17.81-2.15-35.81-2.71-53.74-2.7
				c-18.39,0.01-36.77,0.52-55.16,0.54c-3.3,0-14.74,0.2-15,5.25c-0.26,4.87,12.63,5.25,15,5.25c19.23-0.02,38.46-0.59,57.69-0.53
				c17.84,0.05,31.79,1.22,50.02,3.14c31.37,3.29,69.71,0.95,93.55-22.4c12.34-12.08,17.27-28.73,18.67-45.54
				c1.69-20.18,1.29-40.65,1.76-60.88c0.96-42,1.92-84,2.88-126c1.95-85.15,3.89-170.29,5.84-255.44
				c1.94-84.93,3.88-169.87,5.82-254.8c0.95-41.56,2.83-83.21,2.72-124.78c-0.04-16.93-1.44-34.16-8.51-49.77
				c-6.25-13.82-17.5-24.79-31.11-31.34c-30.75-14.8-67.38-12.36-100.18-7.39c-30.71,4.65-61.77,11.22-91.11,21.51
				c-27.98,9.82-55.55,24.12-75.17,46.9c-22.98,26.68-29.59,61.63-28.61,95.97c0.53,18.59,2.92,37.05,5.3,55.48
				c2.71,20.99,5.34,41.98,7.9,62.98c5.08,41.68,9.88,83.39,14.39,125.14c9.1,84.15,17.03,168.42,23.81,252.79
				c6.77,84.37,12.38,168.82,16.83,253.35c1.08,20.47,2.08,40.94,3.02,61.42C699.41,1118.48,729.38,1118,729.05,1110.73
				L729.05,1110.73z"/>
		</g>
	</g>
	<g class="st0">
		<path d="M905.17,1202.3c-61.79-11.86-126.39-19.19-187.02-2.4c-60.64,16.79-116.75,62.45-129.65,124.03
			c-10.17,48.57,7.72,99.66,37.08,139.66c48.12,65.54,130.04,106.81,211.03,99.64s156.78-65.88,177.78-144.43
			c21-78.55-19.04-170.81-93.44-203.62"/>
		<g>
			<path d="M912.74,1197.76c-94.2-18-204.72-26.12-283.69,38.97c-31.58,26.03-54.52,62.21-57.94,103.64
				c-3.81,46.09,15.18,92.2,42.79,128.31c53.66,70.19,144.49,109.44,232.42,99.01c80.49-9.56,156.37-62.94,181.09-142.02
				c22.73-72.71-7.58-158.35-70.88-200.7c-7.91-5.29-16.28-9.64-24.96-13.51c-6-2.68-15.15-2.22-21.21,0
				c-5.58,2.04-5.04,5.17,0,7.42c65.32,29.18,101.23,106.58,93.57,175.74c-8.27,74.6-68.1,136.25-138.53,157.3
				c-3.76,1.12-6.7,1.88-10.85,2.8c-2.33,0.52-4.68,1-7.03,1.44c-0.94,0.18-1.88,0.34-2.82,0.5c-0.17,0.03-4.31,0.68-2.09,0.36
				c-4.84,0.71-9.71,1.18-14.59,1.5c-1.02,0.07-2.05,0.13-3.08,0.18c2.31-0.1-0.28-0.01-0.63,0c-3.08,0.04-6.15,0.11-9.22,0.06
				c-4.49-0.07-5.55-0.09-11.34-0.59c-2.55-0.22-5.09-0.49-7.63-0.8c-3.1-0.38-3.98-0.52-6.28-0.9c-9.42-1.58-18.57-3.7-27.55-6.5
				c-37.88-11.83-72.6-33.48-100.28-61.87c-30.01-30.78-53.15-70.16-59.64-113.07c-6.08-40.19,4.82-79.41,30.6-110.75
				c23.8-28.93,57.18-49.41,92.98-59.87c44.88-13.11,90.91-10.44,136.52-3.66c11.75,1.75,23.45,3.85,35.12,6.08
				c5.97,1.14,15.26,1.9,20.52-1.88C923.32,1201.22,916.16,1198.42,912.74,1197.76L912.74,1197.76z"/>
		</g>
	</g>
</g>
<g id="Ebene_1_Kopie">
	<g>
		<path class="st1" d="M746.05,1080.65C734.41,827,712.27,573.84,679.71,322.02c-5.55-42.93-10.86-89.11,9.55-127.28
			c29.22-54.65,98.17-71.49,159.1-82.75c40.79-7.53,90.77-11.81,115.97,21.15c15.47,20.23,15.56,47.89,14.98,73.35
			c-4.35,190.52-8.71,381.04-13.06,571.56c-1.68,73.42-3.36,146.83-5.03,220.25c-0.38,16.54-0.95,33.83-8.97,48.3
			c-16.92,30.53-54.69,35.79-89.31,31.3c-34.62-4.48-66.68-2.29-107.42-2.29"/>
		<g>
			<path d="M761.05,1080.65c-3.78-82.24-8.65-164.42-14.63-246.53c-5.95-81.78-13-163.47-21.14-245.06
				c-8.17-81.92-17.44-163.72-27.8-245.39c-4.56-35.9-11.28-72.87-5.92-109.06c4.58-30.94,20.29-58.19,45.72-76.59
				c23.06-16.68,51.15-26.37,77.83-32.93c14.62-3.59,29.41-6.56,44.24-9.19c8.04-1.43,11.65-2,19.74-2.87
				c3.6-0.39,7.2-0.7,10.81-0.92c0.72-0.04,1.44-0.09,2.16-0.12c-2.62,0.12-0.14,0.02,0.33,0.01c2.15-0.03,4.29-0.09,6.44-0.07
				c1.66,0.01,3.31,0.04,4.97,0.11c-2.96-0.13,2.4,0.21,3.02,0.26c1.61,0.15,3.22,0.33,4.82,0.53c2.31,0.3-1.79-0.32,0.49,0.08
				c1.12,0.2,2.23,0.39,3.34,0.62c3.6,0.73,4.37,0.91,7.93,2.12c2.92,0.99,5.73,2.14,8.45,3.6c12.89,6.92,22.51,18.63,27.2,32.49
				c5.32,15.72,5.62,32.69,5.36,49.13c-0.31,20.19-0.91,40.37-1.37,60.56c-1.9,82.94-3.79,165.87-5.69,248.81
				c-1.89,82.6-3.78,165.2-5.66,247.81c-1.88,82.07-3.01,164.2-5.65,246.25c-0.55,17.11-2.38,34.52-13.27,48.45
				c-7.92,10.13-20.31,16.96-31.42,19.43c-1.58,0.35-3.16,0.65-4.75,0.93c-2.76,0.5-1.17,0.17-0.56,0.09
				c-0.93,0.12-1.86,0.23-2.79,0.33c-1.88,0.2-3.76,0.35-5.64,0.46c2.65-0.16-2.17,0.03-3.15,0.04c-1.92,0.01-3.83-0.03-5.75-0.09
				c2.62,0.07-1.74-0.11-2.49-0.17c-3.95-0.3-7.88-0.79-11.81-1.27c-17.81-2.15-35.81-2.71-53.74-2.7
				c-18.39,0.01-36.77,0.52-55.16,0.54c-3.3,0-14.74,0.2-15,5.25c-0.26,4.87,12.63,5.25,15,5.25c19.23-0.02,38.46-0.59,57.69-0.53
				c17.84,0.05,31.79,1.22,50.02,3.14c31.37,3.29,69.71,0.95,93.55-22.4c12.34-12.08,17.27-28.73,18.67-45.54
				c1.69-20.18,1.29-40.65,1.76-60.88c0.96-42,1.92-84,2.88-126c1.95-85.15,3.89-170.29,5.84-255.44
				c1.94-84.93,3.88-169.87,5.82-254.8c0.95-41.56,2.83-83.21,2.72-124.78c-0.04-16.93-1.44-34.16-8.51-49.77
				c-6.25-13.82-17.5-24.79-31.11-31.34c-30.75-14.8-67.38-12.36-100.18-7.39c-30.71,4.65-61.77,11.22-91.11,21.51
				c-27.98,9.82-55.55,24.12-75.17,46.9c-22.98,26.68-29.59,61.63-28.61,95.97c0.53,18.59,2.92,37.05,5.3,55.48
				c2.71,20.99,5.34,41.98,7.9,62.98c5.08,41.68,9.88,83.39,14.39,125.14c9.1,84.15,17.03,168.42,23.81,252.79
				c6.77,84.37,12.38,168.82,16.83,253.35c1.08,20.47,2.08,40.94,3.02,61.42C731.41,1088.4,761.38,1087.92,761.05,1080.65
				L761.05,1080.65z"/>
		</g>
	</g>
	<g>
		<path class="st1" d="M937.17,1172.22c-61.79-11.86-126.39-19.19-187.02-2.4c-60.64,16.79-116.75,62.45-129.65,124.03
			c-10.17,48.57,7.72,99.66,37.08,139.66c48.12,65.54,130.04,106.81,211.03,99.64c80.99-7.18,156.78-65.88,177.78-144.43
			c21-78.55-19.04-170.81-93.44-203.62"/>
		<g>
			<path d="M944.74,1167.68c-94.2-18-204.72-26.12-283.69,38.97c-31.58,26.03-54.52,62.21-57.94,103.64
				c-3.81,46.09,15.18,92.2,42.79,128.31c53.66,70.19,144.49,109.44,232.42,99.01c80.49-9.56,156.37-62.94,181.09-142.02
				c22.73-72.71-7.58-158.35-70.88-200.7c-7.91-5.29-16.28-9.64-24.96-13.51c-6-2.68-15.15-2.22-21.21,0
				c-5.58,2.04-5.04,5.17,0,7.42c65.32,29.18,101.23,106.58,93.57,175.74c-8.27,74.6-68.1,136.25-138.53,157.3
				c-3.76,1.12-6.7,1.88-10.85,2.8c-2.33,0.52-4.68,1-7.03,1.44c-0.94,0.17-1.88,0.34-2.82,0.5c-0.17,0.03-4.31,0.68-2.09,0.36
				c-4.84,0.71-9.71,1.18-14.59,1.5c-1.02,0.07-2.05,0.13-3.08,0.18c2.31-0.1-0.28-0.01-0.63,0c-3.08,0.04-6.15,0.11-9.22,0.06
				c-4.49-0.07-5.55-0.09-11.34-0.59c-2.55-0.22-5.09-0.49-7.63-0.8c-3.1-0.38-3.98-0.52-6.28-0.9c-9.42-1.58-18.57-3.7-27.55-6.5
				c-37.88-11.83-72.6-33.48-100.28-61.87c-30.01-30.78-53.15-70.16-59.64-113.07c-6.08-40.19,4.82-79.41,30.6-110.75
				c23.8-28.93,57.18-49.41,92.98-59.87c44.88-13.11,90.91-10.44,136.52-3.66c11.75,1.75,23.45,3.85,35.12,6.08
				c5.97,1.14,15.26,1.9,20.52-1.88C955.32,1171.13,948.16,1168.34,944.74,1167.68L944.74,1167.68z"/>
		</g>
	</g>
</g>
<g id="Ebene_3">
	<g class="st0">
		<path d="M737.3,1184.9c-55.77,14.32-96.59,68.88-101.42,126.25c-4.83,57.37,23.1,114.85,66.75,152.4s101.34,56.39,158.82,59.68
			c-106.63-74.59-155.84-221.99-115.41-345.68"/>
		<g>
			<path d="M729.73,1180.36c-32.14,8.46-60.03,27.24-79.73,54.1c-19.21,26.18-29.91,58.4-29.66,90.89
				c0.56,72.99,49.49,137.08,112.46,169.9c38.44,20.04,81.52,30.45,124.66,33.04c5.08,0.3,11.1,0.48,15.77-1.88
				c2.9-1.47,4.42-3.55,1.17-5.83c-40.91-28.78-73.28-68.71-95.15-113.55c-22.07-45.24-33.33-95.88-32.2-146.22
				c0.63-28.27,5.28-56.35,14-83.25c1.59-4.89-27.17-8.72-30,0c-15.71,48.48-17.92,100.63-8.17,150.55
				c9.78,50.1,31.31,98.23,62.91,138.37c17.88,22.72,39.06,42.76,62.72,59.4c5.65-2.57,11.29-5.14,16.94-7.71
				c-67.21-4.03-135.67-31.65-177.63-87.28c-39.15-51.91-51.22-123.49-17.14-181.11c16.43-27.78,43.41-52.23,74.21-60.34
				c3.28-0.86,10.68-3.39,5.38-7.18C745.4,1178.78,735.19,1178.92,729.73,1180.36L729.73,1180.36z"/>
		</g>
	</g>
	<g class="st0">
		<path d="M706.63,170.23c-14.98,81.77-8.83,165.75-2.64,248.65c14.87,198.95,29.73,397.9,44.6,596.85
			c0.93,12.41,2.01,25.32,8.34,36.03c15.13,25.57,51.7,26.88,80.64,20.14c28.94-6.74,59.53-18.29,87.29-7.71
			C814.94,777.75,776.44,469.73,738.8,165.24"/>
		<g>
			<path d="M691.63,170.23c-12.89,71.16-10.07,143.78-5.05,215.57c5.15,73.72,10.96,147.39,16.46,221.09
				c5.5,73.61,11,147.22,16.5,220.83c2.78,37.14,5.55,74.27,8.32,111.41c1.36,18.24,2.73,36.47,4.09,54.71
				c1.23,16.5,0.75,34.56,6.41,50.31c10.2,28.35,41.37,36.01,68.57,36.46c14.98,0.24,29.81-2.03,44.31-5.64
				c15.35-3.83,30.96-9.01,46.73-9.78c-1.19,0.06,3.2-0.01,3.87,0.01c1.77,0.06,0.72,0.04,0.34,0.01c1.14,0.07,2.32,0.17,3.45,0.34
				c2.38,0.34,5.89,1.37,8.62,2.37c5.02,1.83,11.21,1.92,16.39,1.09c1.29-0.21,10.37-1.81,9.22-4.8
				c-42.85-111.83-75.07-227.45-100.41-344.43c-25.3-116.81-43.85-234.96-59.94-353.36c-9.1-66.99-17.42-134.08-25.71-201.17
				c-1.01-8.13-30.83-6.69-30,0c14.75,119.3,29.56,238.64,48.77,357.32c19.05,117.7,42.43,234.83,74.37,349.75
				c18.03,64.88,38.82,128.99,62.92,191.88c8.54-1.24,17.07-2.47,25.61-3.71c-35.27-12.86-70.72-1.1-105.47,6.89
				c-2.86,0.66-5.73,1.21-8.61,1.72c-2.28,0.4,1.81-0.23-0.49,0.09c-0.68,0.09-1.37,0.18-2.05,0.26c-1.84,0.22-3.68,0.35-5.52,0.54
				c-2.89,0.29,1.35,0.05-1.55,0.1c-1.61,0.03-3.22,0.05-4.84,0.03c-0.69-0.01-1.38-0.03-2.06-0.05c0.63,0.02,2.82,0.24-0.11-0.05
				c-0.68-0.07-1.36-0.12-2.03-0.18c-0.24-0.02-2.84-0.32-1.56-0.15c-3.77-0.5-8.55-1.63-13.34-4c-4.92-2.44-9.21-5.74-12.7-9.98
				c-9.93-12.05-10.65-28.06-11.76-42.95c-1.36-18.24-2.73-36.47-4.09-54.71c-2.73-36.47-5.45-72.95-8.18-109.42
				c-5.45-72.95-10.9-145.9-16.35-218.84c-5.45-72.89-10.92-145.77-16.34-218.66c-5.31-71.44-10.17-143.6-0.84-214.93
				c1.14-8.68,2.5-17.33,4.06-25.94C722.74,164.11,693.16,161.78,691.63,170.23L691.63,170.23z"/>
		</g>
	</g>
</g>
<g id="Ebene_4">
</g>
<g id="Ebene_5">
	<g class="st0">
		<g>
			<path class="st2" d="M843.33,169.02c0.57-0.6,1.14-1.18,1.74-1.75c-1.45,1.36-0.1,0.05,0.27-0.19c1.31-0.87,2.64-1.65,4.01-2.43
				c-3.35,1.91-1.33,0.55-0.17,0.21c2.47-0.74-4.24,0.99-1.71,0.42c0.95-0.22,3.73-0.74-0.11-0.07c-2.22,0.3-2.44,0.36-0.65,0.17
				c-1.43,0.07-2.85,0.14-4.28,0.21c4.01-0.14-3.2-0.11-3.06-0.19c0.38-0.22,1.87,0.25,2.41,0.25c-5.33-0.04-4.23-0.64-2.36-0.25
				c3.46,0.72-1.3-0.22-1.46-0.45c0.45,0.65,4.6,1.69,5.31,1.9c2.18,0.64-2.34-1.45-0.46-0.18c0.86,0.58,1.89,0.99,2.8,1.51
				c6.15,3.57,9.71,6.62,14.2,13.23c4.97,7.32,7.72,15.81,9.27,24.46c3.47,19.33,1.09,39.14-0.77,58.51
				c-2.15,22.32-3.99,44.68-5.54,67.05c-6.18,89.17-7.62,178.66-4.34,267.98c1.85,50.43,5.23,100.8,10.08,151.03
				c0.81,8.41,19.22,8.84,25,8.75c5.85-0.09,12.19-0.38,17.68-2.56c2.41-0.96,7.65-2.78,7.32-6.19
				c-9.16-94.88-13.01-190.26-11.45-285.57c0.78-47.49,2.89-94.95,6.34-142.32c1.72-23.57,3.99-47.08,6.1-70.62
				c1.81-20.19,2.82-41.18-4.35-60.52c-7.16-19.3-22.05-32.84-41.83-38.84c-24.49-7.43-59.11-8.15-78.19,11.78
				c-2.42,2.53,0.59,5.48,2.52,6.74c3.98,2.59,10.4,3.65,14.94,4.02C821.76,175.89,836.26,176.4,843.33,169.02L843.33,169.02z"/>
		</g>
	</g>
	<g class="st0">
		<g>
			<path class="st2" d="M838.96,1236.24c1.07,0.11,6.55,0.81,3.02,0.32c-3.77-0.53,2.08,0.41,2.98,0.59
				c1.73,0.34,3.45,0.73,5.17,1.14c0.67,0.16,3.83,1.05,1.13,0.26c-2.66-0.77,0.61,0.21,1.11,0.36c3.38,1.03,6.71,2.19,10,3.48
				c1.64,0.65,3.27,1.33,4.89,2.03c-2.75-1.19,2.1,1.05,2.93,1.47c13.19,6.7,24.43,14.89,34.37,25.33
				c21.59,22.69,33.6,52.27,34.75,83.51c0.65,17.56-1.96,35.67-8.48,52.04c-3.33,8.35,12.04,10.32,17.46,10.76
				c6.36,0.53,13.02,0.57,19.26-0.88c3.12-0.73,10.16-1.88,11.49-5.23c13.16-33.06,13.59-68.87,0.69-102.11
				c-11.99-30.89-35.69-56.27-65.02-71.57c-19.5-10.17-40.62-16.07-62.46-18.39c-6.2-0.66-13.15-0.42-19.26,0.88
				c-3.14,0.67-9.4,2.14-11.49,5.23C816.26,1233.24,835.81,1235.9,838.96,1236.24L838.96,1236.24z"/>
		</g>
	</g>
</g>
</svg>
