<?xml version="1.0" encoding="utf-8"?>
<!-- Generator: Adobe Adobe Illustrator 24.2.0, SVG Export Plug-In . SVG Version: 6.00 Build 0)  -->
<svg version="1.1" xmlns="http://www.w3.org/2000/svg" xmlns:xlink="http://www.w3.org/1999/xlink" x="0px" y="0px"
	 viewBox="0 0 2000 2000" style="enable-background:new 0 0 2000 2000;" xml:space="preserve">
<style type="text/css">
	.st0{fill:#5C636F;}
	.st1{fill:#99C052;}
	.st2{fill:#99C153;}
	.st3{fill:#D3E1EE;}
	.st4{fill:#D2E0ED;}
	.st5{fill:#FFFFFF;}
	.st6{fill:#FFFFFF;stroke:#FFFFFF;stroke-width:0.9723;stroke-linecap:round;stroke-linejoin:round;stroke-miterlimit:10;}
	.st7{opacity:0.2;fill:#E192B2;stroke:#E192B2;stroke-width:0.9142;stroke-miterlimit:10;}
	.st8{fill:#E192B2;}
	.st9{opacity:0.0588;}
	.st10{opacity:0.149;}
	.st11{fill:#D2E1EA;}
</style>
<g id="Ebene_19">
</g>
<g id="Ebene_21">
	<g>
		<path class="st0" d="M292.01,393.16c-15.31,286.85-13.58,574.62,5.2,861.26c17.1-0.7,34.2-1.41,51.3-2.11
			c0.98-288.64,5.89-577.26,14.74-865.76c-23.26,0.89-46.53,1.77-69.79,2.66"/>
		<g>
			<path class="st0" d="M286.6,396.17c-5.96,111.96-9.36,224.06-10.14,336.17c-0.78,112.12,1.03,224.25,5.44,336.28
				c2.48,62.98,5.79,125.92,9.9,188.81c0.1,1.53,0.8,3.94,2.83,3.86c17.1-0.7,34.2-1.41,51.3-2.11c4.67-0.19,7.97-5.54,7.99-9.86
				c0.39-112.73,1.36-225.45,2.95-338.17c1.58-112.72,3.76-225.43,6.55-338.12c1.56-63.16,3.31-126.32,5.24-189.47
				c0.05-1.54-0.91-3.93-2.83-3.86c-23.26,0.89-46.53,1.77-69.79,2.66c-3.51,0.13-6.19,3.29-7.33,6.42c-0.7,1.91-1.4,7.44,2.17,7.3
				c23.26-0.89,46.53-1.77,69.79-2.66c-0.94-1.29-1.88-2.57-2.83-3.86c-3.45,112.68-6.31,225.37-8.57,338.08
				c-2.26,112.71-3.91,225.42-4.96,338.15c-0.59,63.18-0.99,126.36-1.21,189.54c2.66-3.29,5.32-6.58,7.99-9.86
				c-17.1,0.7-34.2,1.41-51.3,2.11c0.94,1.29,1.88,2.57,2.83,3.86c-7.31-111.88-12.06-223.93-14.2-336.03
				c-2.14-112.1-1.68-224.25,1.38-336.32c1.72-63,4.27-125.98,7.62-188.92c0.18-3.35-2.86-4.5-5.51-3.18
				C288.63,388.6,286.78,392.71,286.6,396.17L286.6,396.17z"/>
		</g>
	</g>
	<g>
		<path class="st0" d="M1819.37,378.91c-1.2,266.24-2.4,532.47-3.6,798.71c-0.09,19.4-7.46,55.87,11.94,55.87
			c20.06,0,28.45-3.74,49.3,3.54c7.72-289.65,11.2-579.41,10.44-869.16c-21.31,1.19-42.62,2.38-63.94,3.56"/>
		<g>
			<path class="st0" d="M1813.97,381.91c-0.58,129.79-1.17,259.58-1.75,389.37s-1.17,259.58-1.75,389.37
				c-0.06,12.95-0.31,25.76-1.1,38.67c-0.59,9.68-1.46,20.59,1.88,29.9c3.84,10.71,11.87,11.38,22.07,10.93
				c13.93-0.62,26.5-1.2,39.96,3.37c5.14,1.74,9.04-5.18,9.16-9.5c3.01-113.2,5.39-226.41,7.11-339.63
				c1.72-112.89,2.79-225.79,3.22-338.69c0.24-63.61,0.28-127.22,0.11-190.83c0-1.51-0.88-3.97-2.83-3.86
				c-21.31,1.19-42.62,2.38-63.94,3.56c-3.52,0.2-6.18,3.25-7.33,6.42c-0.68,1.87-1.4,7.5,2.17,7.3
				c21.31-1.19,42.62-2.38,63.94-3.56c-0.94-1.29-1.88-2.57-2.83-3.86c0.29,113.24-0.06,226.47-1.06,339.7
				c-1,112.9-2.64,225.79-4.92,338.67c-1.29,63.6-2.78,127.19-4.47,190.78c3.05-3.17,6.1-6.33,9.16-9.5
				c-11.52-3.91-22.42-5.25-34.52-4.54c-5.55,0.32-11.32,1.04-16.87,0.61c-3.26-0.26-5.55-1.89-7.07-4.78
				c-3.77-7.17-2.73-17.13-2.34-24.89c0.5-10.13,1.21-20.15,1.25-30.29c0.29-63.9,0.58-127.79,0.86-191.69
				c0.58-127.79,1.15-255.59,1.73-383.38c0.32-71.88,0.65-143.77,0.97-215.65c0.01-3.31-2.75-4.55-5.51-3.18
				C1816.12,374.28,1813.98,378.49,1813.97,381.91L1813.97,381.91z"/>
		</g>
	</g>
	<g>
		<path class="st0" d="M342.97,1212.72c-9.49,1.86,4.69,26.73,11.9,33.17c7.21,6.44,17.86,6.69,27.53,6.58
			c478.43-5.07,956.87-10.14,1435.31-15.22c-2.35-19.05-4.7-38.1-7.05-57.15c-485.02,4.54-970,13.66-1454.85,27.38"/>
		<g>
			<path class="st0" d="M344.24,1205.98c-14.47,4.34-9.43,21.44-4.44,30.93c2.84,5.4,6.27,10.97,10.87,15.07
				c7.35,6.54,17.5,7.36,26.9,7.38c51.33,0.13,102.7-1.08,154.03-1.62c103.64-1.1,207.29-2.2,310.93-3.3
				c103.64-1.1,207.29-2.2,310.93-3.3c104.14-1.1,208.27-2.21,312.41-3.31c103.64-1.1,207.29-2.2,310.93-3.3
				c12.77-0.14,25.54-0.27,38.31-0.41c4.3-0.05,8.5-5.69,7.99-9.86c-2.35-19.05-4.7-38.1-7.05-57.15c-0.19-1.57-0.73-3.88-2.83-3.86
				c-189.49,1.78-378.98,4.25-568.45,7.42s-378.94,7.05-568.38,11.62c-106.01,2.56-212.02,5.34-318.02,8.34
				c-5.84,0.17-11.49,13.9-5.16,13.72c189.43-5.35,378.87-10.01,568.33-13.97c189.46-3.96,378.93-7.21,568.42-9.77
				c106.03-1.43,212.07-2.64,318.1-3.63c-0.94-1.29-1.88-2.57-2.83-3.86c2.35,19.05,4.7,38.1,7.05,57.15
				c2.66-3.29,5.32-6.58,7.99-9.86c-99.71,1.06-199.43,2.11-299.14,3.17s-199.43,2.11-299.14,3.17s-199.43,2.11-299.14,3.17
				c-99.71,1.06-199.43,2.11-299.14,3.17c-49.61,0.53-99.22,1.05-148.84,1.58c-25.05,0.27-50.1,0.53-75.15,0.8
				c-10.37,0.11-21.93,1.52-32.05-1.3c-7.74-2.15-12.08-7.71-16.11-14.28c-1.75-2.85-3.36-5.8-4.59-8.91
				c-0.52-1.31-0.78-2.81-1.35-4.08c-0.21-0.46-0.11-1.12-0.35-1.56c-1.75-3.2,10.63-0.12-3.56,4.13
				C347.02,1217.87,351.43,1203.82,344.24,1205.98L344.24,1205.98z"/>
		</g>
	</g>
	<g>
		<path class="st0" d="M364.73,390.81c-1.51,11.5-3.02,23-4.53,34.51c469.45-20.42,955.67-32.67,1425.32-17.76
			c18.12,0.58,64.05,6.77,67.94-10.93c2.49-11.33,7.9-23.66-2.52-28.75c-10.42-5.1-74.58-4.47-86.18-4.58
			c-467.06-4.45-931.89,0.72-1401.52,19.16"/>
		<g>
			<path class="st0" d="M359.47,392.15c-1.51,11.5-3.02,23-4.53,34.51c-0.23,1.76-0.07,5.65,2.68,5.53
				c104.36-4.53,208.74-8.64,313.14-12.13c105.28-3.52,210.58-6.42,315.89-8.51c105.48-2.1,210.99-3.39,316.49-3.67
				c104.98-0.28,209.97,0.45,314.94,2.41c52.08,0.97,104.15,2.25,156.21,3.87c15.39,0.48,30.83,2.18,46.24,1.72
				c12.34-0.37,27.83-1.65,35.12-13.19c3.89-6.16,5.48-15.13,6.44-22.26c0.99-7.35-0.05-15.42-7.4-19.05
				c-9.28-4.58-22.64-3.72-32.67-4.15c-32.98-1.41-66.12-0.92-99.11-1.19c-106.04-0.87-212.09-1.24-318.13-1.06
				c-106.5,0.18-212.99,0.91-319.48,2.23c-106.63,1.32-213.25,3.24-319.86,5.79c-106.93,2.56-213.84,5.76-320.73,9.62
				c-26.3,0.95-52.59,1.94-78.89,2.97c-5.83,0.23-11.45,13.97-5.16,13.72c104.51-4.1,209.05-7.56,313.6-10.4
				c104.2-2.83,208.42-5.04,312.64-6.68c104.53-1.64,209.08-2.7,313.62-3.21c104.04-0.51,208.08-0.48,312.12,0.04
				c50.37,0.25,100.74,0.84,151.1,1.1c25.29,0.13,51.27-1.04,76.37,2.6c5.34,0.78,11.09,1.77,11.55,8.38
				c0.27,3.85-1.31,8.09-2.24,11.78c-0.92,3.63-0.11,3.74-2.38,5.22c-5.1,3.33-12.93,3.61-18.8,3.9
				c-7.75,0.39-15.53,0.07-23.27-0.37c-44.57-2.54-89.28-3.14-133.9-4.13c-102.87-2.3-205.77-3.37-308.66-3.44
				c-103.02-0.07-206.04,0.85-309.05,2.59c-102.98,1.73-205.94,4.27-308.88,7.44c-102.25,3.15-204.49,6.92-306.7,11.15
				c-25.01,1.03-50.01,2.1-75.02,3.18c0.89,1.84,1.79,3.68,2.68,5.53c1.51-11.5,3.02-23,4.53-34.51
				C371.26,379.74,360.32,385.7,359.47,392.15L359.47,392.15z"/>
		</g>
	</g>
	<g>
		<g>
			<path class="st0" d="M1850.89,1203.2c5.84,0,11.57-13.72,5.16-13.72C1850.2,1189.48,1844.47,1203.2,1850.89,1203.2
				L1850.89,1203.2z"/>
		</g>
	</g>
	<g>
		<g>
			<path class="st0" d="M1873.63,1242.06c5.84,0,11.57-13.72,5.16-13.72C1872.95,1228.33,1867.21,1242.06,1873.63,1242.06
				L1873.63,1242.06z"/>
		</g>
	</g>
	<g>
		<g>
			<path class="st0" d="M1862.26,1211.73c5.84,0,11.57-13.72,5.16-13.72C1861.58,1198.01,1855.84,1211.73,1862.26,1211.73
				L1862.26,1211.73z"/>
		</g>
	</g>
</g>
<g id="Ebene_22">
	<g>
		<path class="st1" d="M363.24,460.92c0,251.3-4.16,483.45-14.5,735.42c480.06-12.57,976.24-19.03,1456.3-31.59
			c0-246.03,3.93-477.76,3.93-741.23c-482.32-16.66-956.66,0-1448.09,0"/>
		<g>
			<path class="st2" d="M357.84,463.92c-0.01,95.96-0.61,191.92-2.02,287.87c-1.38,94.3-3.54,188.59-6.5,282.86
				c-1.73,54.9-3.73,109.8-5.97,164.69c-0.06,1.56,0.92,3.91,2.83,3.86c189.12-4.94,378.26-8.9,567.4-12.65
				c190.21-3.77,380.43-7.32,570.63-11.42c106.09-2.29,212.18-4.75,318.27-7.52c4.66-0.12,7.99-5.59,7.99-9.86
				c0.01-94.52,0.59-189.04,1.32-283.56c0.74-96.08,1.61-192.16,2.12-288.24c0.3-56.48,0.48-112.96,0.49-169.43
				c0-1.65-0.87-3.79-2.83-3.86c-187.94-6.47-376-7.94-564.04-7.25c-187.62,0.69-375.23,3.47-562.84,5.37
				c-107.07,1.08-214.14,1.87-321.21,1.88c-5.84,0-11.57,13.72-5.16,13.72c190.19-0.01,380.37-2.53,570.55-4.66
				c186.99-2.09,374.01-3.76,561.01-2.02c105.53,0.98,211.05,3.05,316.53,6.68c-0.94-1.29-1.88-2.57-2.83-3.86
				c-0.01,98.66-0.57,197.33-1.32,295.99c-0.72,94.92-1.59,189.84-2.12,284.77c-0.3,53.49-0.48,106.98-0.49,160.47
				c2.66-3.29,5.32-6.58,7.99-9.86c-189.12,4.94-378.26,8.9-567.4,12.65c-190.21,3.77-380.43,7.32-570.63,11.42
				c-106.09,2.29-212.18,4.75-318.27,7.52c0.94,1.29,1.88,2.57,2.83,3.86c3.93-96.09,7.09-192.21,9.4-288.35
				c2.26-94.23,3.72-188.48,4.46-282.73c0.43-54.78,0.63-109.56,0.63-164.34c0-3.39-2.73-4.44-5.51-3.18
				C359.98,456.16,357.84,460.6,357.84,463.92L357.84,463.92z"/>
		</g>
	</g>
</g>
<g id="Ebene_14">
	<g>
		<g>
			<path d="M280.72,385.45c-2.25,51.61-3.77,103.24-4.93,154.88c-1.35,59.62-2.2,119.26-2.68,178.89
				c-0.51,62.5-0.61,125.01-0.3,187.51c0.31,60.25,0.99,120.51,2.23,180.75c1.08,52.68,2.56,105.36,4.87,158
				c0.26,5.86,0.53,11.73,0.81,17.59c0.16,3.26,2.64,4.61,5.51,3.18c3.02-1.5,5.46-5.83,5.3-9.19
				c-2.47-51.59-4.05-103.22-5.23-154.86c-1.36-59.62-2.15-119.25-2.55-178.88c-0.42-62.5-0.41-125.01,0-187.51
				c0.39-60.26,1.16-120.51,2.4-180.76c1.09-52.68,2.52-105.37,4.64-158.02c0.24-5.87,0.48-11.73,0.74-17.6
				c0.15-3.34-2.84-4.51-5.51-3.18C282.78,377.87,280.87,382,280.72,385.45L280.72,385.45z"/>
		</g>
	</g>
	<g>
		<g>
			<path d="M358.3,430.39C546.91,422.6,735.65,418.14,924.4,416c189.79-2.15,379.6-1.96,569.39-0.3
				c105.38,0.92,210.75,2.31,316.12,4.01c5.84,0.09,11.62-13.62,5.16-13.72c-188.77-3.04-377.55-5.07-566.34-5.27
				c-189.78-0.2-379.58,1.44-569.32,5.85c-105.34,2.45-210.66,5.76-315.95,10.11C357.63,416.9,352.02,430.65,358.3,430.39
				L358.3,430.39z"/>
		</g>
	</g>
	<g>
		<g>
			<path d="M1807.08,415.84c-0.01,100.59-1.08,201.17-2.38,301.75c-1.29,99.92-2.83,199.83-3.78,299.75
				c-0.52,53.92-0.86,107.84-0.86,161.75c0,3.3,2.74,4.55,5.51,3.18c3.14-1.55,5.3-5.77,5.3-9.19c0.01-97.45,1.1-194.89,2.38-292.32
				c1.32-100.8,2.85-201.6,3.78-302.41c0.52-56.17,0.86-112.35,0.86-168.52c0-3.31-2.74-4.55-5.51-3.18
				C1809.24,408.21,1807.08,412.43,1807.08,415.84L1807.08,415.84z"/>
		</g>
	</g>
	<g>
		<g>
			<path d="M345.55,1212.27c15.71,0,31.42-0.3,47.12-0.78c17.81-0.55,35.61-1.31,53.4-2.14c21.51-1,43.01-2.09,64.51-3.15
				c27.03-1.33,54.06-2.63,81.1-3.84c34.31-1.54,68.63-2.94,102.95-4.21c43.57-1.61,87.14-3.02,130.72-4.27
				c54.2-1.55,108.41-2.85,162.62-3.96c66.76-1.37,133.53-2.46,200.3-3.35c81.08-1.08,162.16-1.85,243.25-2.41
				c97.15-0.67,194.3-1.02,291.46-1.14c26.64-0.03,53.28-0.05,79.92-0.05c5.84,0,11.57-13.72,5.16-13.72
				c-101.39,0-202.78,0.23-304.16,0.78c-85.23,0.46-170.45,1.15-255.67,2.14c-70.08,0.82-140.15,1.84-210.22,3.15
				c-57.09,1.07-114.18,2.33-171.26,3.84c-45.86,1.22-91.72,2.61-137.58,4.21c-36.53,1.28-73.06,2.7-109.58,4.27
				c-28.64,1.23-57.28,2.57-85.91,3.96c-22.68,1.11-45.36,2.26-68.04,3.35c-18.48,0.89-36.96,1.74-55.45,2.41
				c-16.03,0.58-32.07,1-48.12,1.14c-3.78,0.03-7.57,0.05-11.35,0.05C344.87,1198.55,339.14,1212.27,345.55,1212.27L345.55,1212.27z
				"/>
		</g>
	</g>
	<g>
		<g>
			<path d="M355.48,426.53c-0.01,100.92-1.93,201.83-4.33,302.72c-2.39,100.52-5.18,201.02-6.85,301.55
				c-0.98,59.2-1.57,118.4-1.58,177.61c0,3.31,2.74,4.55,5.51,3.18c3.14-1.56,5.3-5.77,5.3-9.19
				c0.01-103.96,1.89-207.91,4.33-311.84c2.34-99.67,5.15-199.32,6.85-299c0.97-57.01,1.57-114.02,1.58-171.04
				c0-3.31-2.74-4.55-5.51-3.18C357.64,418.9,355.48,423.12,355.48,426.53L355.48,426.53z"/>
		</g>
	</g>
	<g>
		<g>
			<path d="M283.55,1266.94c208.97-2.08,417.93-5.23,626.89-8.3c208.51-3.07,417.02-6.06,625.54-7.83
				c115.72-0.98,231.45-1.57,347.18-1.58c5.84,0,11.57-13.72,5.16-13.72c-207.13,0.01-414.26,1.91-621.37,4.52
				c-209.04,2.63-418.06,5.98-627.1,8.9c-117.05,1.63-234.09,3.13-351.14,4.3C282.87,1253.27,277.16,1267,283.55,1266.94
				L283.55,1266.94z"/>
		</g>
	</g>
	<g>
		<g>
			<path d="M1880.34,362.48c5.73,115.72,6.93,231.61,6.34,347.45c-0.58,115.5-2.99,230.99-4.7,346.48
				c-0.93,62.98-1.64,125.97-1.65,188.96c0,3.31,2.74,4.55,5.51,3.18c3.14-1.56,5.3-5.77,5.3-9.19
				c0.01-113.03,2.26-226.05,4.06-339.07c1.85-116.26,3.3-232.54,1.79-348.82c-0.85-65.03-2.63-130.05-5.85-195
				c-0.16-3.26-2.63-4.61-5.51-3.18C1882.62,354.79,1880.17,359.12,1880.34,362.48L1880.34,362.48z"/>
		</g>
	</g>
	<g>
		<g>
			<path d="M283.55,389.31c103.15-6.16,206.39-10.77,309.66-14.21c104.25-3.47,208.54-5.75,312.83-7.24
				c104.7-1.5,209.41-2.19,314.12-2.44c104.51-0.25,209.02-0.06,313.53,0.21c103.68,0.27,207.36,0.62,311.05,0.7
				c12.81,0.01,25.61,0.01,38.42,0.01c5.84,0,11.57-13.72,5.16-13.72c-103.54,0-207.07-0.32-310.61-0.61
				c-104.44-0.29-208.88-0.53-313.32-0.39c-104.72,0.15-209.44,0.69-314.15,1.99c-104.38,1.3-208.76,3.35-313.1,6.53
				c-103.43,3.16-206.84,7.42-310.16,13.22c-12.76,0.72-25.52,1.46-38.28,2.22C282.89,375.93,277.32,389.68,283.55,389.31
				L283.55,389.31z"/>
		</g>
	</g>
</g>
<g id="Ebene_23">
	<g>
		<path class="st3" d="M561.44,235.06c3.32,103.96,6.63,207.92,9.95,311.88c185.77,0.42,371.56-9.33,556.27-29.19
			c-9.3-106.61-8.44-214.1,2.58-320.54c-190.8-2.25-381.77,9.79-570.78,35.99"/>
		<g>
			<path class="st4" d="M556.04,238.06c2.58,80.78,5.15,161.57,7.73,242.35c0.74,23.18,1.48,46.35,2.22,69.53
				c0.05,1.6,0.83,3.86,2.83,3.86c72.72,0.15,145.44-1.23,218.11-4.18c72.66-2.95,145.26-7.45,217.73-13.5
				c40.62-3.39,81.21-7.27,121.74-11.62c3.7-0.4,6.96-6.46,6.68-9.75c-7.14-82.42-8.31-165.33-3.35-247.92
				c1.42-23.69,3.35-47.35,5.78-70.96c0.19-1.89,0.11-5.49-2.68-5.53c-74.68-0.86-149.38,0.43-223.98,3.92
				c-74.38,3.48-148.66,9.13-222.71,16.91c-41.88,4.4-83.69,9.5-125.4,15.27c-5.55,0.77-10.24,14.55-2.54,13.49
				c73.87-10.22,148.03-18.32,222.37-24.2c73.79-5.84,147.76-9.53,221.76-11.09c41.77-0.88,83.56-1.06,125.34-0.58
				c-0.89-1.84-1.79-3.68-2.68-5.53c-8.59,83.51-11.18,167.59-7.4,251.46c1.06,23.61,2.64,47.2,4.68,70.74
				c2.23-3.25,4.45-6.5,6.68-9.75c-71.87,7.71-143.9,13.91-216.04,18.55c-72.24,4.65-144.58,7.76-216.95,9.33
				c-40.65,0.88-81.31,1.27-121.96,1.19c0.94,1.29,1.88,2.57,2.83,3.86c-2.58-80.78-5.15-161.57-7.73-242.35
				c-0.74-23.18-1.48-46.35-2.22-69.53c-0.1-3.27-2.67-4.59-5.51-3.18C558.28,230.39,555.93,234.68,556.04,238.06L556.04,238.06z"/>
		</g>
	</g>
</g>
<g id="Ebene_24">
	<g>
		<g>
			<path d="M611.76,265.24c-3.84,13.65,7.82,30.17,22.89,26.29c13.38-3.45,23.14-21.43,17.32-34.29c-1.25-2.77-3.58-2.86-5.99-1.23
				c-2.9,1.96-4.33,5.33-4.62,8.7c-1.22,14.35,11.76,27.94,26.43,24.99c14.77-2.96,24.21-19.64,21.93-33.84
				c-3.47,2.98-6.94,5.96-10.41,8.95c5.92,16.1,24.04,26.55,40.94,21.4c17.57-5.35,30.18-25.1,27.74-43.28
				c-1.18-8.84-11.59,0.23-10.81,6c1.61,12.04-5.92,23.13-18.38,24.68c-12.14,1.5-24.88-6.31-29.08-17.74
				c-1.2-3.26-4.43-2.57-6.68-0.75c-2.82,2.28-4.3,6.16-3.73,9.69c1.19,7.45-6.22,12.37-13.02,11.46
				c-8.43-1.13-14.83-9.22-14.12-17.57c-3.54,2.49-7.07,4.98-10.61,7.47c2.62,5.79,0.37,12.11-6.75,12.17
				c-7.69,0.06-14.61-8.38-12.53-15.78c0.8-2.85-0.8-5.97-3.99-5.41C614.69,257.79,612.62,262.18,611.76,265.24L611.76,265.24z"/>
		</g>
	</g>
	<g>
		<g>
			<path d="M816.57,268.89c7.24,9.5,20.08,13.91,31.49,9.74c11.68-4.27,20.06-15.34,22.13-27.45c-3.49,1.94-6.98,3.87-10.46,5.81
				c5.02,18.83,30.49,24.12,43.92,10.91c-2.04,0.15-4.08,0.3-6.12,0.44c6.9,11.28,21.48,16.08,33.69,10.92
				c12.74-5.39,21.23-19.75,20.39-33.46c-0.2-3.24-2.61-4.62-5.51-3.18c-2.99,1.48-5.51,5.84-5.3,9.19
				c0.49,7.96-4.42,14.32-12.42,15.65c-8.59,1.42-17.11-3.21-21.54-10.44c-1.35-2.2-4.72-0.94-6.12,0.44
				c-9.32,9.17-27.35,2.62-30.56-9.41c-1.93-7.23-9.92,2.6-10.46,5.81c-2.89,16.94-25.36,14.8-33.8,3.71
				C821.82,252.25,813.03,264.25,816.57,268.89L816.57,268.89z"/>
		</g>
	</g>
	<g>
		<g>
			<path d="M991.91,257.58c14.86,13.23,37.89,5.33,47.22-10.38c-3.03,0.74-6.07,1.48-9.1,2.22c3.77,15.82,21.28,26.4,36.92,20.75
				c15.85-5.72,25.65-24.04,22.4-40.36c-0.7-3.53-4.75-2.3-6.68-0.75c-2.74,2.21-4.43,6.22-3.73,9.69
				c1.9,9.56-4.95,18.29-14.61,19.18c-10.91,1.01-21.39-7-23.88-17.47c-1.34-5.62-7.67-0.18-9.1,2.22
				c-6.48,10.91-23.61,9.29-31.92,1.89C995.16,240.8,987.16,253.35,991.91,257.58L991.91,257.58z"/>
		</g>
	</g>
	<g>
		<g>
			<path d="M626.96,334.84c8.51,11.72,23.11,17.87,37.43,15.28c14.97-2.7,27.03-14.69,32.28-28.58c-3.32,1.34-6.64,2.69-9.96,4.03
				c3.81,13.16,15.3,23.69,29.2,24.88c14.59,1.26,27.85-7.43,35.32-19.47c-2.55,1.42-5.1,2.83-7.65,4.25
				c9.99,8.48,24,10.46,36.48,7.22c13.85-3.6,24.57-13.11,30.63-25.91c-3.14,1.74-6.27,3.48-9.41,5.22
				c9.22,11.26,23.6,17.04,38.05,14.73c14.21-2.28,26.66-12.71,32.85-25.48c-2.85,1.14-5.7,2.28-8.55,3.42
				c5.49,10.37,16.91,17.04,28.69,16.16c12.31-0.92,23.12-9.2,28.6-20.06c1.17-2.32,2.88-6.99-0.15-8.75
				c-2.86-1.65-6.51,2-7.65,4.25c-8.69,17.21-32.29,12-40.2-2.94c-2.08-3.92-7.63,1.52-8.55,3.42
				c-10.36,21.39-39.59,21.27-53.8,3.92c-3.43-4.19-8.13,2.52-9.41,5.22c-3.88,8.21-13.62,12.61-22.07,14.07
				c-10.04,1.73-20.25-0.87-28.02-7.47c-2.61-2.21-6.62,2.59-7.65,4.25c-11.98,19.31-40.81,9.21-46.32-9.86
				c-1.85-6.4-8.87,1.14-9.96,4.03c-8.37,22.14-38.63,19.77-50.9,2.86C632.37,318.14,623.52,330.1,626.96,334.84L626.96,334.84z"/>
		</g>
	</g>
	<g>
		<g>
			<path d="M1013.42,323.45c9.5-4.5,19-8.99,28.49-13.49c-1.59-0.17-3.17-0.35-4.76-0.52c5.94,9.38,16.99,14.43,27.97,12.5
				c11.6-2.03,20.82-11.71,24.7-22.45c0.89-2.46,1.26-6.75-2.17-7.3c-3.32-0.53-6.41,3.85-7.33,6.42
				c-5.61,15.54-26.66,10.88-33.86-0.5c-1.1-1.74-3.25-1.23-4.76-0.52c-9.5,4.5-19,8.99-28.49,13.49
				C1008,313.55,1005.38,327.26,1013.42,323.45L1013.42,323.45z"/>
		</g>
	</g>
	<g>
		<g>
			<path d="M705.85,402.82c23.53,9.53,50.06-1.31,63.07-22.42c-3.03,0.74-6.07,1.48-9.1,2.22c5.67,15.32,20.77,26.48,37.43,25.36
				c17.21-1.16,31.86-14.04,37.42-30.03c-3.14,1.74-6.27,3.48-9.41,5.22c11.41,14.08,29.76,21.27,47.69,18
				c18.24-3.32,32.8-16.92,40.21-33.47c1.08-2.41,1.12-6.77-2.17-7.3c-3.47-0.56-6.2,3.89-7.33,6.42
				c-12.48,27.86-51.57,26.63-69.09,5.03c-3.27-4.03-8.39,2.3-9.41,5.22c-3.86,11.09-15.42,17.91-27.01,17.23
				c-12.3-0.72-23.64-9.06-27.92-20.62c-1.94-5.25-7.36-0.6-9.1,2.22c-9.54,15.48-31.47,20.53-47.78,13.93
				C707.52,387.47,700.39,400.61,705.85,402.82L705.85,402.82z"/>
		</g>
	</g>
	<g>
		<g>
			<path d="M962.86,379.92c18.25,11.67,42.84-1.42,48.94-20.72c-3.32,1.34-6.64,2.69-9.96,4.03c4.61,13.71,18.45,22.92,32.96,20.54
				c14.96-2.46,26.78-16.84,28.6-31.47c1.22-9.74-9.71-3.79-10.52,2.67c-1.15,9.21-9.1,15.55-18.37,15.49
				c-9.88-0.07-19.14-6.85-22.27-16.17c-2.05-6.1-8.93,0.78-9.96,4.03c-4.04,12.8-21.77,15.11-31.93,8.62
				C965.25,363.66,957.61,376.56,962.86,379.92L962.86,379.92z"/>
		</g>
	</g>
	<g>
		<g>
			<path d="M818.59,462.5c10.16,10.62,25.68,10.71,38.4,4.75c14.88-6.97,24.47-21.82,33.05-35.15c-3.1,0.25-6.2,0.5-9.3,0.75
				c-0.34,13.02,9.87,26.2,23.62,26.04c14.37-0.17,26.11-12.54,28.53-26.18c-3.3,2.33-6.61,4.67-9.91,7
				c25.47,24.28,69.23,19.06,89.9-8.94c1.74-2.36,4.04-6.75,1.89-9.56c-2.06-2.7-5.92-0.26-7.41,1.77
				c-16.92,22.93-54.73,24.8-75.07,5.41c-4.18-3.98-9.24,3.21-9.91,7c-1.34,7.55-10.02,10.99-16.97,9.37
				c-8.07-1.88-14.06-9.71-13.84-17.9c0.06-2.17-1.29-3.86-3.48-3.8c-2.55,0.07-4.59,2.63-5.82,4.55
				c-6.44,10-13.33,21.02-24.22,26.66c-9.35,4.85-22.47,4.91-30.13-3.1C823.15,446.21,814.64,458.36,818.59,462.5L818.59,462.5z"/>
		</g>
	</g>
</g>
<g id="Ebene_16">
	<g>
		<g>
			<path d="M552.16,227.43c1.09,85.88,4.1,171.73,5.43,257.61c0.36,23.46,0.6,46.92,0.6,70.37c0,3.3,2.74,4.55,5.51,3.18
				c3.14-1.55,5.3-5.78,5.3-9.19c-0.02-86-2.87-171.98-4.77-257.95c-0.51-23.34-0.97-46.68-1.26-70.03
				c-0.04-3.29-2.71-4.57-5.51-3.18C554.35,219.78,552.11,224.03,552.16,227.43L552.16,227.43z"/>
		</g>
	</g>
	<g>
		<g>
			<path d="M562.32,231.17c73.01-10.14,146.53-16.02,220.1-20.21c74.96-4.27,150.01-6.72,225.04-9.34
				c40.84-1.42,81.68-2.9,122.5-4.78c3.52-0.16,6.19-3.27,7.33-6.42c0.69-1.89,1.4-7.47-2.17-7.3
				c-74.15,3.42-148.35,5.51-222.51,8.34c-75.28,2.87-150.56,6.42-225.64,12.81c-40.8,3.47-81.54,7.78-122.1,13.41
				C559.31,218.45,554.62,232.24,562.32,231.17L562.32,231.17z"/>
		</g>
	</g>
	<g>
		<g>
			<path d="M1132.78,191.32c-8.11,86.99-5.5,174.33-6.62,261.56c-0.34,26.38-1.04,52.75-2.34,79.1c-0.16,3.34,2.85,4.5,5.51,3.18
				c3.26-1.62,5.13-5.73,5.3-9.19c4.33-87.86,0.96-175.84,4.09-263.72c0.87-24.57,2.29-49.13,4.57-73.61
				C1144.2,178.88,1133.38,184.8,1132.78,191.32L1132.78,191.32z"/>
		</g>
	</g>
	<g>
		<g>
			<path d="M561.01,558.57c74.04-0.64,148.02-4,221.94-7.96c73.65-3.94,147.27-8.48,220.97-11.53c40.89-1.69,81.8-2.9,122.72-3.26
				c5.84-0.05,11.55-13.78,5.16-13.72c-73.14,0.63-146.22,4.01-219.25,7.93c-73.9,3.97-147.77,8.5-221.72,11.53
				c-41.54,1.7-83.09,2.91-124.67,3.27C560.33,544.9,554.62,558.63,561.01,558.57L561.01,558.57z"/>
		</g>
	</g>
</g>
<g id="Ebene_20">
	<g>
		<path class="st5" d="M1254.94,586.22c-13.56,4.74-22.72,18.67-23.93,32.98c-1.21,14.31,4.67,28.61,13.87,39.64
			c10.51,12.6,26.1,21.65,42.5,21.49c16.41-0.16,32.95-10.95,37.16-26.81c3.67-13.81-1.97-28.23-7.88-41.23
			c-16.35-35.95-35.69-70.55-57.74-103.31c-5.36-7.96-14.93-16.81-23.07-11.74c-7.46,4.64-5.17,15.9-1.98,24.08
			c8.05,20.62,16.1,41.24,24.15,61.86"/>
		<g>
			<path class="st5" d="M1256.21,579.47c-14.89,5.6-25.27,18.73-29.21,33.98c-4.2,16.26,0.57,33.67,10.18,47.11
				c18.13,25.35,55.08,37.16,79.68,13.47c12.62-12.15,16.64-29.04,12.54-45.9c-2.2-9.05-6.23-17.55-10.13-25.96
				c-3.99-8.6-8.14-17.12-12.46-25.55c-8.72-17.03-18.13-33.7-28.18-49.98c-4.99-8.07-10.01-16.18-15.47-23.93
				c-4.09-5.8-9.9-12.06-17.16-13.54c-8.5-1.73-15.99,4.99-18.9,12.46c-2.89,7.41-1.51,15.7,1.12,22.97
				c7.67,21.19,16.41,42.06,24.6,63.05c2.81,7.2,12.46-3.69,10.41-8.95c-5.92-15.16-11.84-30.32-17.76-45.49
				c-2.59-6.63-5.58-13.24-7.68-20.04c-0.76-2.46-1.43-5.01-1.5-7.6c-0.08-2.66-0.39-2.73,2-2.97c5.7-0.58,11.19,5.65,14.26,9.63
				c4.71,6.13,8.73,12.93,12.85,19.46c7.92,12.52,15.44,25.28,22.57,38.27c7.42,13.53,14.41,27.29,20.94,41.27
				c5.91,12.65,14.61,28.81,10.49,43.19c-2.97,10.36-13.75,16.55-23.74,18.45c-12.67,2.41-25.71-2.45-35.82-9.93
				c-12.12-8.98-21.74-23.31-23.36-38.52c-1.38-13,4.34-26.63,17.19-31.46c3.37-1.27,5.92-4.51,6.53-8.08
				C1260.59,582.55,1259.65,578.18,1256.21,579.47L1256.21,579.47z"/>
		</g>
	</g>
	<g>
		<path class="st5" d="M700.38,574.09c8.82-17.22,1.43-40.88-15.64-50.01c-17.07-9.13-40.85-2.14-50.28,14.76
			s-2.86,40.81,13.87,50.53c16.73,9.72,40.75,3.58,50.76-12.98"/>
		<g>
			<path class="st5" d="M704.28,576.34c7.79-15.99,6.96-35.71-4.82-49.7c-11.56-13.72-30.4-16.57-46.55-9.84
				c-17.03,7.1-28.33,24.15-28.18,42.61c0.14,17.17,10.25,34.2,27.06,39.55c19.6,6.24,40.53-3.45,51.21-20.33
				c1.39-2.2,2.74-7.08-0.15-8.75c-3.01-1.74-6.3,2.12-7.65,4.25c-6.65,10.5-20.92,14.44-32.64,12.5
				c-13.24-2.2-23.02-12.79-26.09-25.58c-3.01-12.53,1.49-24.22,13.07-30.23c11.54-6,26.1-5.11,36.38,3
				c10.46,8.25,16.68,25.49,10.57,38.03c-1.14,2.34-2.91,6.98,0.15,8.75C699.46,582.22,703.17,578.6,704.28,576.34L704.28,576.34z"
				/>
		</g>
	</g>
</g>
<g id="Ebene_18">
	<g>
		<g>
			<path d="M897.43,1018.46c-66.89-21.76-139.45-31.8-201.39-66.77c-26.86-15.17-51.44-36.47-62.58-66
				c-7.67-20.33-9.94-43.26-10.51-64.83c-0.58-22.03,1.73-43.92,5.82-65.55c9.83-51.94,27.23-102.03,34.77-154.49
				c0.41-2.84-0.53-6.02-3.99-5.41c-3.29,0.58-6.09,5.04-6.53,8.08c-6.88,47.87-21.71,93.77-31.99,140.9
				c-9.87,45.23-13.05,92.64-1.79,137.99c17.1,68.88,91.87,97.24,152.7,115.73c39.11,11.88,79.11,20.7,117.99,33.35
				C895.95,1033.41,902.86,1020.22,897.43,1018.46L897.43,1018.46z"/>
		</g>
	</g>
	<g>
		<g>
			<path d="M673.77,511.72c-22.05-2.58-42.75,11.89-51.58,31.59c-8.75,19.53-2.49,42.84,13.82,56.31
				c16.49,13.62,39.76,11.23,56.22-1.08c14.6-10.93,22.47-29.35,20.81-47.45c-1.95-21.26-16.2-36.01-36.96-40.16
				c-5.62-1.13-11.87,12.38-5.16,13.72c13.94,2.79,25.72,11.31,29.87,25.3c3.28,11.07,2,24.35-5.92,33.18
				c-10.38,11.56-28.68,15.59-42.78,8.96c-14.28-6.71-24.81-23.02-22.94-39.04c2.16-18.56,22.13-29.62,39.47-27.6
				C674.38,526.11,680.42,512.49,673.77,511.72L673.77,511.72z"/>
		</g>
	</g>
	<g>
		<g>
			<path d="M1090.51,1019.26c44.43-4.02,89.28-2.1,133.81-4.26c22.84-1.11,45.77-2.9,68.27-7.14c18.41-3.47,37.31-8.6,53.43-18.45
				c12.96-7.93,24.78-19.53,29.36-34.37c4.48-14.51,3.99-30.26,2.53-45.21c-4.03-41.32-15.72-81.93-27.53-121.59
				c-10.27-34.48-22.36-68.5-31.7-103.25c-0.68-2.55-1.34-5.1-1.93-7.67c-0.8-3.48-4.69-2.35-6.68-0.75
				c-2.67,2.16-4.52,6.27-3.73,9.69c7.19,31.18,18.53,61.56,27.93,92.11c12.15,39.49,24.07,79.49,30.6,120.36
				c2.39,14.97,4.39,31.48,2.68,46.14c-0.35,2.99-0.86,5.96-1.59,8.89c-0.39,1.55,0.08-0.11-0.28,0.98
				c-0.19,0.58-0.38,1.17-0.59,1.74c-0.21,0.56-0.44,1.11-0.65,1.67c-0.66,1.74,0.09-0.01-0.36,0.79
				c-3.01,5.39-6.92,9.75-12.31,13.98c-13.54,10.62-31.07,15.86-47.6,19.57c-21.07,4.74-42.67,6.88-64.19,8.19
				c-44.32,2.71-88.78,1.25-133.09,4c-4.62,0.29-9.23,0.65-13.83,1.07C1087.49,1006.27,1082.72,1019.96,1090.51,1019.26
				L1090.51,1019.26z"/>
		</g>
	</g>
	<g>
		<g>
			<path d="M1248.84,576.6c-13.22,12.25-28.93,24.49-29.42,44.1c-0.44,17.37,9.42,34.48,19.7,47.79
				c10.29,13.32,23.54,25.7,41.09,27.02c18.19,1.36,36.73-7.2,47.28-22.1c12.68-17.93,10.75-40.52,3.59-60.24
				c-7.87-21.67-20.21-42.29-32.1-61.94c-11.78-19.48-24.38-38.68-37.27-57.44c-4.12-5.99-9.82-13.41-17.79-13.67
				c-8.89-0.29-16.26,7.76-19.7,15.16c-8.84,18.99,0,41.97,7.69,59.81c8.78,20.35,19.64,40.29,33.21,57.87
				c4.09,5.3,12.87-6.71,9.3-11.33c-10.02-12.98-18.4-27.29-25.76-41.93c-7.19-14.3-14.54-30.1-16.74-46.12
				c-0.71-5.19-1.74-14.14,2.76-18.02c5.14-4.43,10.89,0.82,14.22,4.86c4.8,5.82,8.33,12.55,12.49,18.81
				c5.89,8.86,12,17.56,17.76,26.5c11.53,17.92,22.33,36.33,31.95,55.35c8,15.83,16.57,33.69,14.8,51.96
				c-1.54,15.89-14.87,25.57-29.76,28.23c-15.08,2.7-28.02-3.18-38.57-13.68c-11.54-11.48-22.11-26.62-26.15-42.58
				c-1.61-6.37-2.16-13.53,1.63-19.23c4.83-7.25,12.41-12.88,18.73-18.74c2.39-2.22,4.88-6.29,3.73-9.69
				C1254.43,574.12,1250.95,574.64,1248.84,576.6L1248.84,576.6z"/>
		</g>
	</g>
</g>
<g id="Ebene_8">
	<g>
		<path class="st5" d="M876.18,984.62c-14.65,137.53-65.31,261.95-97.97,392.93c-4.92,19.72,1.93,40.1-3,59.88
			c-14.88,59.7,57.44,95.12,99.09,99.34c71.07,7.21,146.27,8.69,217.15,0c43.05-5.28,156.62-56.53,123.24-109.5
			c-15.29-24.27-11.15-50.31-20.25-77.41c-35-104.19-70-208.39-104.99-312.58c-7.85-23.37-6.87-19,4.94-40.83
			c8.84-16.33,50.49-44.89,65.96-56.02c78.47-56.5,86.99-192.17,20.53-258.63c-76.05-76.05-122.43-101.24-220.08-87.08
			s-173.55,68.57-206.48,144.32c-37.12,85.41,34.32,225.62,119.98,271.95"/>
		<g>
			<path class="st5" d="M862.54,984.62c-12.3,114.18-50.39,222.76-81.74,332.6c-4.03,14.13-7.95,28.29-11.67,42.51
				c-3.65,13.93-6.82,26.86-6.33,41.36c0.22,6.68,0.75,13.36,0.66,20.05c-0.1,6.94-1.42,13.31-2.72,20.07
				c-1.69,8.85-1.54,18,0.76,26.73c9.27,35.28,46.14,56.99,78.77,67.06c22.08,6.82,45.22,8.01,68.15,9.62
				c29.92,2.1,59.93,3.17,89.92,2.85c30.43-0.32,60.9-1.96,91.15-5.43c16.38-1.88,32.11-5.78,47.6-11.45
				c17.24-6.31,34.08-14.2,49.68-23.89c13.92-8.65,27.85-19.07,37.56-32.45c8.07-11.13,12.78-25.07,8.14-38.55
				c-1.18-3.43-2.76-6.59-4.6-9.7c-3.63-6.14-6.5-12.37-8.43-19.26c-3.48-12.43-4.45-25.36-6.7-38.04
				c-2.54-14.3-7.66-27.85-12.27-41.58c-5.09-15.16-10.18-30.31-15.27-45.47c-9.76-29.05-19.51-58.1-29.27-87.14
				c-9.97-29.68-19.94-59.36-29.91-89.04c-4.88-14.52-9.76-29.05-14.64-43.57c-4.2-12.5-9.25-25-12.47-37.79
				c-1.84-7.3,0.48-11.81,4.06-18.16c4.6-8.14,8.88-14.96,15.61-21.51c13.8-13.41,29.75-24.62,45.38-35.77
				c14.97-10.68,28.72-22.05,39.84-36.86c11.39-15.16,19.81-32.37,25.7-50.36c12-36.67,13.04-77.35,2.33-114.46
				c-5.26-18.22-13.32-35.78-24.58-51.08c-13.05-17.73-30.45-32.81-46.91-47.29c-30.18-26.54-63.53-48.72-103.28-57.47
				c-44.42-9.78-93.12-4.97-136.82,6.13c-44.3,11.25-86.14,31.2-120.68,61.4c-15.52,13.58-29.3,29.16-40.65,46.39
				c-10.75,16.32-20.13,34.33-24.63,53.45c-9.05,38.42-0.53,79.27,13.57,115.36c15.36,39.31,39.04,76.12,69.42,105.51
				c13.59,13.14,28.65,24.93,45.27,34c5.39,2.94,12.79,2.96,18.66,1.71c2.57-0.54,10.31-3.57,4.89-6.53
				c-34.63-18.9-62.28-49.21-83.55-82.02c-21.93-33.85-38.24-72.45-43.2-112.68c-2.24-18.2-2.05-36.87,2.08-54.79
				c4.26-18.48,13.41-35.73,23.79-51.48c22.7-34.45,54.74-61.61,91.32-80.4c19.13-9.83,39.57-17.34,60.45-22.43
				c11.16-2.72,22.62-4.87,33.69-6.32c5.47-0.71,10.95-1.32,16.44-1.79c2.38-0.21,4.77-0.39,7.16-0.54c0.04,0,4.66-0.27,1.96-0.13
				c1.82-0.09,3.65-0.14,5.48-0.19c4.41-0.11,8.82-0.11,13.23,0.03c0.28,0.01,4.54,0.21,1.49,0.04c1.26,0.07,2.52,0.15,3.78,0.24
				c2.47,0.18,4.95,0.4,7.41,0.67c1.21,0.13,2.43,0.28,3.64,0.43c0.17,0.02,4.11,0.61,1.52,0.2c1.96,0.31,3.92,0.65,5.88,1.02
				c3.97,0.76,9.74,2.12,12.06,2.79c16.84,4.86,32.47,12.53,47.14,22.07c17.47,11.36,33.36,24.92,48.57,39.11
				c15.11,14.1,30.3,28.24,41.19,45.97c19.61,31.91,26.59,70.68,23.63,107.73c-2.95,36.94-16.08,73.57-40.65,101.7
				c-24,27.48-59.34,42.22-83.62,69.61c-5.45,6.15-9.3,13.7-13.05,20.96c-3.45,6.68-3.57,11.78-1.4,18.9
				c8.38,27.54,18.31,54.7,27.48,82c19.3,57.46,38.6,114.93,57.91,172.39c4.67,13.89,9.33,27.79,14,41.68
				c4.65,13.84,10.09,27.62,12.91,41.97c2.39,12.14,3.31,24.53,6.1,36.59c1.37,5.91,3.22,11.7,5.66,17.26
				c2.21,5.03,5.47,9.46,7.73,14.44c12.94,28.6-18.66,54.09-39.63,67.35c-14.48,9.16-29.87,16.58-45.87,22.51
				c-3.61,1.34-7.25,2.6-10.91,3.77c-1.57,0.5-3.16,0.99-4.74,1.45c-0.92,0.27-1.84,0.53-2.76,0.79c2.43-0.68-0.53,0.14-0.82,0.21
				c-3.03,0.76-6.06,1.47-9.13,2.04c-0.76,0.14-1.53,0.25-2.28,0.4c-2.67,0.53,3-0.31,0.37-0.05c-3.35,0.33-6.69,0.81-10.04,1.17
				c-55.92,6.13-112.45,5.94-168.51,1.74c-6.93-0.52-13.86-1.1-20.79-1.74c-3.75-0.35-7.51-0.68-11.25-1.09
				c-0.6-0.07-1.19-0.14-1.79-0.2c-3.57-0.36,0.83,0.25-1.37-0.18c-3.62-0.7-7.21-1.38-10.79-2.27c-3.25-0.81,1.14,0.34-0.81-0.21
				c-0.86-0.24-1.72-0.49-2.58-0.75c-2.46-0.74-4.9-1.54-7.31-2.4c-15.59-5.55-30.89-13.77-43.15-25.14
				c-12.3-11.4-21.66-26.05-23.06-43.07c-0.89-10.83,2.67-20.7,3.45-31.36c0.97-13.34-1.46-26.7-0.17-40.03
				c1.33-13.8,6.24-27.68,9.85-41.03c3.52-12.99,7.18-25.95,10.93-38.88c7.82-27.01,16.01-53.92,24.05-80.86
				c15.78-52.86,31.03-105.95,41.96-160.06c5.42-26.83,9.75-53.88,12.68-81.1C890.48,978.52,863.34,977.19,862.54,984.62
				L862.54,984.62z"/>
		</g>
	</g>
</g>
<g id="Ebene_9">
	<g>
		<path class="st5" d="M789.63,1937.81c2.1-35.86,10.99-73.29,36.8-99.75c25.81-26.46,72.3-37.41,103.15-16.27
			c16.14,11.06,25.76,28.96,30.09,47.3s3.9,37.33,3.44,56.11c-0.14,5.78-0.64,12.3-5.34,16.01c-3.8,3-9.2,3.2-14.16,3.25
			c-50.32,0.53-100.65,1.06-150.97,1.6c-1.18-3.18-2.36-6.36-3.54-9.54"/>
		<g>
			<path class="st5" d="M803.27,1937.81c1.86-30.22,8.14-61.3,26.13-86.32c8.29-11.53,18.57-20.91,31.16-27.53
				c5.54-2.92,11.61-5.29,17.6-6.74c1.37-0.33,2.75-0.62,4.14-0.89c1.79-0.34,2.41-0.41,2.99-0.48c1.62-0.19,3.24-0.35,4.87-0.44
				c-2.12,0.11,0.21,0.02,0.54,0.03c0.92,0.01,1.85,0,2.77,0.02c-2.15-0.05,0.15,0.01,0.51,0.04c0.91,0.09,1.82,0.16,2.74,0.27
				c1.96,0.23,0.22-0.04,2.15,0.35c3.3,0.66,5.77,1.37,8.99,2.65c6.07,2.41,11.76,6.21,16.47,10.72
				c10.91,10.42,17.96,24.3,21.51,38.86c4.31,17.66,4.11,35.99,3.69,54.04c-0.08,3.43-0.06,6.9-0.74,10.28
				c-0.7,3.5-2.47,4.7-4.47,7.19c0.62-0.78,2.55,0.44,0.94-0.22c-1.39-0.57,0.62,0.01-0.9,0.05c-2.23,0.06-4.47,0.05-6.71,0.07
				c-4.97,0.05-9.93,0.1-14.9,0.16c-43.37,0.46-86.74,0.92-130.11,1.38c4.55,1.59,9.09,3.18,13.64,4.77
				c-1.18-3.18-2.36-6.36-3.54-9.54c-2.92-7.86-28.83-4.17-27.28,0c1.18,3.18,2.36,6.36,3.54,9.54c1.69,4.56,9.72,4.82,13.64,4.77
				c43.04-0.46,86.08-0.91,129.12-1.37c10.66-0.11,21.66,0.51,32.25-0.81c9.36-1.17,18.68-4.2,21.6-14.03
				c2.43-8.16,1.41-17.96,1.41-26.36c0-10.32-0.42-20.68-2.08-30.88c-2.73-16.82-9.1-33.64-20.53-46.52
				c-11.05-12.44-26.18-20.13-42.45-23.11c-33.29-6.11-70.01,2.7-95.24,25.7c-28.75,26.2-38.45,66.99-40.75,104.36
				C775.59,1944.23,802.83,1945.03,803.27,1937.81L803.27,1937.81z"/>
		</g>
	</g>
	<g>
		<path class="st5" d="M974.72,1855.23c22.14-48.2,84.66-76.33,138.43-62.29c53.77,14.05,91.93,68.48,84.49,120.52
			c-0.77,5.39-2.34,11.28-7.14,14.3c-3.56,2.25-8.12,2.4-12.41,2.47c-63.6,1.06-127.2,2.12-190.8,3.19
			c0.51-27.83-5.18-55.76-16.6-81.44"/>
		<g>
			<path class="st5" d="M987.88,1856.5c12.41-26.52,36.11-46.5,63.52-56.28c6.64-2.37,13.14-4.05,20.18-5.17
				c-1.48,0.23,0.79-0.11,0.89-0.12c0.92-0.12,1.85-0.23,2.77-0.32c1.85-0.19,3.71-0.35,5.56-0.46c-2.11,0.12,0.23,0,0.56-0.01
				c0.93-0.02,1.86-0.04,2.79-0.04c0.93,0,1.86,0.02,2.79,0.02c0.46,0.01,0.93,0.02,1.39,0.04c-1.07-0.06-1.12-0.06-0.14,0
				c6.95,0.43,12.22,1.16,19.51,3.34c7.04,2.11,13.78,5.01,20.17,8.62c26.08,14.74,46.43,40.41,53.91,69.52
				c1.8,7.02,2.88,14.25,3.12,21.5c0.24,7.22,0.23,15.54-2.22,22.42c-0.53,1.49-1.26,2.96-2.27,4.18c-0.88,1.05-3.43,2.29-1.04,1.67
				c-2.74,0.72-10.03,0.2-14.16,0.26c-10.93,0.18-21.86,0.37-32.79,0.55c-48.36,0.81-96.73,1.62-145.09,2.42
				c4.55,1.59,9.09,3.18,13.64,4.77c0.39-28.57-5.61-56.57-17.09-82.71c-0.72-1.63-5-2.58-6.27-2.85
				c-3.36-0.71-7.11-0.82-10.51-0.48c-2.87,0.28-11.52,1.33-9.53,5.87c11.08,25.24,16.49,52.61,16.11,80.17
				c-0.06,4.48,11.39,4.81,13.64,4.77c47.7-0.8,95.4-1.59,143.1-2.39c11.59-0.19,23.19-0.39,34.78-0.58
				c11.66-0.19,25.92,1.39,36.42-4.67c7.86-4.54,9.49-13.49,10.24-21.85c0.71-7.91,0.4-15.89-0.85-23.73
				c-5.31-33.28-26.43-62.88-54.7-80.76c-31.44-19.89-71.56-24.07-107.38-15.64c-36.39,8.56-71.11,30.72-87.33,65.38
				c-2.11,4.51,6.81,5.6,9.53,5.87C974.55,1860.18,985.86,1860.82,987.88,1856.5L987.88,1856.5z"/>
		</g>
	</g>
	<g>
		<g>
			<path class="st5" d="M1066.17,1317.28c3,0,13.4-0.18,13.64-4.77c0.23-4.43-11.49-4.77-13.64-4.77c-3,0-13.4,0.18-13.64,4.77
				C1052.3,1316.94,1064.02,1317.28,1066.17,1317.28L1066.17,1317.28z"/>
		</g>
	</g>
</g>
<g id="Ebene_2">
	<g>
		<g>
			<path d="M985.07,580.52c-52.14,0.1-105.23,14.64-149.89,41.59c-51.74,31.23-89.4,80.33-103.4,139.4
				c-12.28,51.82-9.11,109.67,15.99,157.33c19.62,37.25,52.43,66.07,90.26,83.96c41.62,19.68,88.22,27.88,134.1,26.85
				c47.3-1.07,94.35-11.44,136.96-32.2c39.67-19.32,75.09-48.57,98.87-85.98c26.59-41.82,38.51-93.75,33.31-143.02
				c-3.11-29.5-13.78-57.99-31.2-82.03c-16.56-22.85-38.6-41.45-62.49-56.25c-48.59-30.09-105.45-46.51-161.48-55.74
				c-12.46-2.05-24.97-3.78-37.52-5.13c-3.91-0.42-14.5-0.98-16.78,3.33c-2.34,4.43,7.3,5.63,9.53,5.87
				c5.71,0.61,11.41,1.3,17.09,2.07c1.4,0.19,2.81,0.39,4.21,0.59c0.79,0.11,1.58,0.23,2.36,0.34c-0.4-0.06-2.71-0.42-0.4-0.06
				c3.23,0.51,6.46,1.01,9.69,1.55c12.77,2.15,25.47,4.7,38.07,7.7c3.14,0.75,6.28,1.53,9.41,2.33c1.58,0.41,3.15,0.82,4.73,1.24
				c-1.64-0.44,0.14,0.04,0.4,0.11c1.23,0.34,2.46,0.68,3.69,1.03c6.55,1.85,13.07,3.84,19.54,5.97
				c13.44,4.43,26.72,9.45,39.6,15.31c48.86,22.23,95.01,58.05,114.58,110.06c10.22,27.14,12.31,56.49,9.7,85.19
				c-2.08,22.96-7.4,45.76-16.5,66.97c-16.98,39.57-46.08,72.86-81.66,96.43c-18.39,12.18-35.95,20.8-55.77,27.99
				c-5.12,1.86-10.28,3.57-15.49,5.14c-2.47,0.75-4.95,1.46-7.44,2.14c2.48-0.68-1.02,0.26-1.81,0.47
				c-1.53,0.39-3.06,0.77-4.59,1.14c-5.16,1.24-10.36,2.35-15.57,3.33c-2.54,0.47-5.08,0.92-7.63,1.33
				c-0.83,0.13-5.05,0.73-1.42,0.24c-1.42,0.19-2.84,0.4-4.26,0.59c-5.39,0.71-10.81,1.28-16.23,1.7c-2.57,0.2-5.13,0.34-7.7,0.51
				c-2.97,0.2,2.61-0.09,0.63-0.03c-0.71,0.02-1.43,0.06-2.14,0.09c-1.42,0.05-2.85,0.09-4.28,0.13c-5.4,0.12-10.81,0.1-16.21-0.06
				c-1.13-0.03-2.27-0.09-3.4-0.12c-2.95-0.09,2.63,0.17,0.66,0.03c-0.71-0.05-1.41-0.08-2.12-0.12c-2.68-0.16-5.36-0.35-8.03-0.58
				c-5.33-0.46-10.61-1.18-15.92-1.81c-1.85-0.22,3.16,0.51,0.35,0.05c-0.55-0.09-1.11-0.17-1.66-0.26c-1.24-0.2-2.48-0.4-3.72-0.62
				c-2.61-0.45-5.21-0.94-7.8-1.46c-5.16-1.04-10.27-2.28-15.37-3.58c-1.95-0.49,0.04,0.01,0.37,0.1c-0.66-0.18-1.33-0.37-1.99-0.55
				c-1.19-0.34-2.38-0.68-3.56-1.04c-2.63-0.78-5.24-1.61-7.84-2.48c-4.91-1.64-9.76-3.43-14.55-5.38
				c-2.26-0.92-4.49-1.87-6.72-2.85c-0.29-0.13-1.58-0.71-0.08-0.03c-0.49-0.22-0.98-0.45-1.47-0.68c-1.34-0.63-2.68-1.26-4.01-1.91
				c-9-4.39-17.7-9.39-26-14.99c-16.3-11.02-30.64-24.3-42.83-40.22c-27.65-36.12-38.75-80.86-37.83-125.86
				c0.67-33.06,7.1-66.24,21.31-96.23c12.21-25.76,29.74-48.77,51.03-67.7c19.17-17.04,42.55-31.23,65.29-40.9
				c11.7-4.98,23.75-9.16,36.02-12.51c-2.09,0.57,1.26-0.32,1.95-0.5c1.56-0.4,3.13-0.78,4.69-1.16c2.94-0.7,5.89-1.35,8.85-1.95
				c2.76-0.56,5.52-1.08,8.29-1.56c1.37-0.24,2.74-0.45,4.1-0.68c0.6-0.1,1.21-0.19,1.81-0.28c-3.26,0.5-0.41,0.06,0.35-0.04
				c5.42-0.71,10.84-1.31,16.29-1.7c1.28-0.09,2.57-0.15,3.85-0.24c2.36-0.17-0.84,0.03-1.09,0.04c0.7-0.03,1.4-0.06,2.1-0.08
				c2.61-0.09,5.21-0.14,7.82-0.14c3-0.01,13.4-0.18,13.64-4.77C998.94,580.86,987.22,580.51,985.07,580.52L985.07,580.52z"/>
		</g>
	</g>
	<g>
		<g>
			<path d="M860.66,1010.99c-4.58,14.73-9.06,29.49-13.53,44.26c-10.8,35.71-21.41,71.48-31.78,107.32
				c-12.72,43.94-25.12,87.97-36.84,132.19c-10.44,39.39-20.57,78.93-28.69,118.87c-5.23,25.77-11.39,55.36,3.23,79.29
				c14.51,23.76,44.73,32.58,70.32,37.88c68.08,14.09,139.01,18.49,208.38,15.45c35.54-1.56,70.96-5,106.07-10.76
				c25.93-4.26,53.76-11.02,74.13-28.57c10.16-8.75,16.99-20.49,19.61-33.66c2.96-14.92,0.52-30.37-2.98-44.97
				c-6.29-26.22-14.76-52.04-22.8-77.77c-17.25-55.25-35.6-110.15-53.17-165.3c-16.22-50.92-32.25-102.08-44.53-154.12
				c-2.47-10.48-4.76-21-6.77-31.58c-1.45-7.62-28.35-5.59-27.28,0c9.16,48.21,23.28,95.47,37.7,142.32
				c16.72,54.34,34.67,108.29,52.08,162.4c8.32,25.85,16.53,51.74,24.35,77.75c3.63,12.08,7.23,24.17,10.56,36.33
				c3.94,14.4,7.42,29.31,6.8,44.35c-1.16,27.85-19.94,46.36-44.98,55.6c-26.89,9.91-56.87,12.43-85.18,15.23
				c-66.57,6.58-133.79,5-200.02-4.43c-15.02-2.14-30.11-4.53-44.89-7.99c-12.06-2.83-24.05-6.84-34.46-13.69
				c-11-7.24-19.19-18.08-22.49-30.9c-3.54-13.74-2.41-28.25-0.26-42.12c6.1-39.31,16.58-78.2,26.52-116.66
				c11.21-43.37,23.19-86.54,35.5-129.6c10.84-37.93,21.97-75.78,33.32-113.56c6.08-20.26,12.22-40.51,18.47-60.72
				c0.29-0.95,0.59-1.9,0.88-2.85C889.36,1006.43,863.12,1003.06,860.66,1010.99L860.66,1010.99z"/>
		</g>
	</g>
	<g>
		<g>
			<path d="M888.12,1542.3c-2.19,68.96-4.19,137.93-6.3,206.9c-0.58,19.07-1.17,38.14-1.78,57.21c-0.21,6.6,27.06,7.07,27.28,0
				c2.19-68.96,4.19-137.93,6.3-206.9c0.58-19.07,1.17-38.14,1.78-57.21C915.61,1535.69,888.34,1535.23,888.12,1542.3L888.12,1542.3
				z"/>
		</g>
	</g>
	<g>
		<g>
			<path d="M1077.81,1536.77c-7.16,64.19-11.08,128.81-12.34,193.39c-0.34,17.5-0.45,35.01-0.28,52.51c0.07,6.85,27.35,6.84,27.28,0
				c-0.63-64.58,2.19-129.25,7.55-193.6c1.45-17.45,3.13-34.89,5.07-52.29C1105.78,1530.7,1078.65,1529.33,1077.81,1536.77
				L1077.81,1536.77z"/>
		</g>
	</g>
	<g>
		<g>
			<path d="M983.18,1929.64c-0.66-27.3-1.71-55.32-14.12-80.25c-11.33-22.75-31.29-38.03-55.92-43.88
				c-26.28-6.25-55.57-2.96-79.7,9.15c-20.95,10.52-37.93,28.37-49.02,48.88c-14.7,27.2-19.24,58.33-19.8,88.87
				c-0.08,4.45,11.41,4.85,13.64,4.77c63.74-2.23,127.47-4.47,191.21-6.7c2.89-0.1,13.36-0.16,13.64-4.77
				c0.29-4.8,0.58-9.6,0.86-14.39c0.39-6.42-26.85-7.21-27.28,0c-0.29,4.8-0.58,9.6-0.86,14.39c4.55-1.59,9.09-3.18,13.64-4.77
				c-63.74,2.23-127.47,4.47-191.21,6.7c4.55,1.59,9.09,3.18,13.64,4.77c0.84-45.56,11.86-95.55,50.71-124.1
				c8.31-6.11,17.51-11.08,27.48-13.87c8.75-2.45,16.05-2.88,23.17-1.91c20.82,2.85,37.3,17.46,47.31,35.29
				c13.93,24.81,14.65,54.09,15.32,81.81C956.07,1936.57,983.35,1936.39,983.18,1929.64L983.18,1929.64z"/>
		</g>
	</g>
	<g>
		<g>
			<path d="M795.53,1935.99c55.27-0.96,110.55-1.93,165.82-2.89c3.01-0.05,13.4-0.15,13.64-4.77c0.23-4.41-11.49-4.81-13.64-4.77
				c-55.27,0.96-110.55,1.93-165.82,2.89c-3.01,0.05-13.4,0.15-13.64,4.77C781.66,1935.62,793.38,1936.03,795.53,1935.99
				L795.53,1935.99z"/>
		</g>
	</g>
	<g>
		<g>
			<path d="M873.51,1844.74c9.58-2.38,19.1-3.2,28.87-1.49c5.48,0.96,13.83,1.76,18.66-1.71c4.7-3.37-1.74-5.98-4.89-6.53
				c-18.69-3.27-37.94-3.1-56.41,1.49c-3.02,0.75-9.69,3.1-4.89,6.53C859.31,1846.22,868.49,1845.99,873.51,1844.74L873.51,1844.74z
				"/>
		</g>
	</g>
	<g>
		<g>
			<path d="M861.5,1864.88c16.32,0.96,32.64,1.92,48.96,2.87c3.51,0.21,7.05,0.26,10.51-0.48c1.44-0.31,5.39-1.19,6.27-2.85
				c2.31-4.37-7.26-5.74-9.53-5.87c-16.32-0.96-32.64-1.92-48.96-2.87c-3.51-0.21-7.05-0.26-10.51,0.48
				c-1.44,0.31-5.39,1.19-6.27,2.85C849.66,1863.38,859.23,1864.75,861.5,1864.88L861.5,1864.88z"/>
		</g>
	</g>
	<g>
		<g>
			<path d="M973.96,1855.09c10.27-20.07,26.32-36.4,45.59-47.96c9.66-5.79,19.95-10.28,30.74-13.53c4.3-1.3,8.88-2.32,13.49-3.16
				c2.75-0.5,3.13-0.56,6.39-0.93c1.38-0.15,2.77-0.29,4.16-0.4c0.93-0.08,1.85-0.14,2.78-0.2c-1.31,0.04-1.13,0.04,0.55-0.02
				c10.69-0.27,18.04,0.25,28.91,3.1c11.07,2.91,21.56,7.8,31.19,13.94c18.93,12.07,34.36,29.39,44.69,49.29
				c11.65,22.42,16.08,48.25,11.47,73.17c4.55-1.59,9.09-3.18,13.64-4.77c-75.75,2.89-151.5,5.77-227.25,8.66
				c-3.01,0.11-13.4,0.1-13.64,4.77c-0.23,4.38,11.49,4.86,13.64,4.77c75.75-2.89,151.5-5.77,227.25-8.66
				c3.38-0.13,12.77-0.08,13.64-4.77c9.11-49.17-17.37-99.19-58.13-126.13c-45.66-30.17-107.91-29.37-156.18-5.85
				c-24.81,12.09-46.6,31.43-59.25,56.15C944.51,1858.69,970.68,1861.5,973.96,1855.09L973.96,1855.09z"/>
		</g>
	</g>
	<g>
		<g>
			<path d="M981.89,1920.09c71.77,3.26,143.79,0.89,215.2-6.97c2.56-0.28,11.82-1.41,9.53-5.87c-2.14-4.16-13.33-3.71-16.78-3.33
				c-69.05,7.6-138.55,9.77-207.95,6.63c-2.98-0.14-13.41,0.27-13.64,4.77C968.01,1919.81,979.73,1919.99,981.89,1920.09
				L981.89,1920.09z"/>
		</g>
	</g>
	<g>
		<g>
			<path d="M1126.1,1853.08c16.84-10.41,33.68-20.81,50.52-31.22c5.08-3.14-2.13-5.95-4.89-6.53c-5.53-1.17-13.61-1.41-18.66,1.71
				c-16.84,10.41-33.68,20.81-50.52,31.22c-5.08,3.14,2.13,5.95,4.89,6.53C1112.96,1855.96,1121.04,1856.2,1126.1,1853.08
				L1126.1,1853.08z"/>
		</g>
	</g>
	<g>
		<g>
			<path d="M1151.61,1872.75c13.69-8.42,27.37-16.84,41.06-25.26c5.09-3.13-2.14-5.95-4.89-6.53c-5.54-1.17-13.6-1.4-18.66,1.71
				c-13.69,8.42-27.37,16.84-41.06,25.26c-5.09,3.13,2.14,5.95,4.89,6.53C1138.48,1875.63,1146.54,1875.86,1151.61,1872.75
				L1151.61,1872.75z"/>
		</g>
	</g>
</g>
<g id="Ebene_3">
	<g>
		<g>
			<path d="M911.31,759.4c-0.57,19.59-1.14,39.18-1.71,58.78c-0.19,6.62,27.08,7.06,27.28,0c0.57-19.59,1.14-39.18,1.71-58.78
				C938.79,752.78,911.51,752.34,911.31,759.4L911.31,759.4z"/>
		</g>
	</g>
	<g>
		<g>
			<path d="M986.27,760.99c1.26,19.6-0.04,39.26-0.08,58.88c-0.01,6.78,27.27,6.9,27.28,0c0.04-19.62,1.33-39.28,0.08-58.88
				C1013.09,753.86,985.85,754.5,986.27,760.99L986.27,760.99z"/>
		</g>
	</g>
</g>
<g id="Ebene_4">
	<circle class="st6" cx="928.7" cy="769.88" r="3.75"/>
	<circle class="st6" cx="1006.05" cy="767.24" r="3.75"/>
</g>
<g id="Ebene_13">
</g>
<g id="Ebene_11">
	<ellipse class="st7" cx="853.47" cy="878.76" rx="45.18" ry="42.07"/>
	<ellipse class="st7" cx="1094.4" cy="887.58" rx="45.18" ry="42.07"/>
</g>
<g id="Ebene_12">
	<g>
		<g>
			<path d="M859.01,865.54c-4.68,45.58,25.9,87.27,67.99,102.45c45.28,16.32,102.49,8.54,136.11-27.66
				c16.31-17.56,26.3-41.08,26.42-65.13c0.03-6.77-27.25-6.92-27.28,0c-0.18,38.77-26.68,75.05-63.52,87.15
				c-17.42,5.72-32.67,5.54-50.22-0.35c-18.88-6.34-34.92-18.78-46.2-35.15c-12.37-17.94-18.24-39.59-16.01-61.31
				C886.92,859.41,859.77,858.13,859.01,865.54L859.01,865.54z"/>
		</g>
	</g>
</g>
<g id="Ebene_15">
	<g class="st9">
		<g>
			<path d="M991,1825.82c4,0,17.87-0.24,18.19-6.37c0.31-5.91-15.32-6.37-18.19-6.37c-4,0-17.87,0.24-18.19,6.37
				C972.5,1825.36,988.13,1825.82,991,1825.82L991,1825.82z"/>
		</g>
	</g>
	<g class="st9">
		<g>
			<path d="M819.56,1846.99c4,0,17.87-0.24,18.19-6.37c0.31-5.91-15.32-6.37-18.19-6.37c-4,0-17.87,0.24-18.19,6.37
				C801.06,1846.53,816.69,1846.99,819.56,1846.99L819.56,1846.99z"/>
		</g>
	</g>
	<g class="st9">
		<g>
			<path d="M808.29,659.84c4,0,17.87-0.24,18.19-6.37c0.31-5.91-15.32-6.37-18.19-6.37c-4,0-17.87,0.24-18.19,6.37
				C789.79,659.38,805.42,659.84,808.29,659.84L808.29,659.84z"/>
		</g>
	</g>
</g>
<g id="Ebene_17">
	<g class="st10">
		<g>
			<path class="st11" d="M952.34,633.01c4,0,17.87-0.24,18.19-6.37c0.31-5.91-15.32-6.37-18.19-6.37c-4,0-17.87,0.24-18.19,6.37
				C933.85,632.55,949.48,633.01,952.34,633.01L952.34,633.01z"/>
		</g>
	</g>
	<g class="st10">
		<g>
			<path class="st11" d="M1075.91,1818.46c7.52,1.41,14.12,3.44,21.79,7.43c7.63,3.97,14.84,8.85,21.12,14.73
				c12.63,11.84,22.29,26.87,26.47,43.74c2.56,10.34,38.08,6.86,36.38,0c-10.18-41.1-46.85-69.3-87.4-76.9
				c-7.53-1.41-18.12-2.09-24.89,2.28C1062.73,1814.06,1072.12,1817.75,1075.91,1818.46L1075.91,1818.46z"/>
		</g>
	</g>
	<g class="st10">
		<g>
			<path class="st11" d="M868.89,1831.75c29.25,20.47,45.48,56.66,40.83,92.08c-0.3,2.3,4.03,4.02,5.33,4.5
				c3.89,1.43,8.77,1.93,12.86,1.86c4.26-0.07,17.37-0.12,18.19-6.37c5.08-38.66-14.35-76.5-45.79-98.5
				c-6.39-4.47-17.67-3.81-24.89-2.28C871.25,1823.92,862.41,1827.22,868.89,1831.75L868.89,1831.75z"/>
		</g>
	</g>
</g>
</svg>
