<?xml version="1.0" encoding="utf-8"?>
<!-- Generator: Adobe Adobe Illustrator 24.2.0, SVG Export Plug-In . SVG Version: 6.00 Build 0)  -->
<svg version="1.1" xmlns="http://www.w3.org/2000/svg" xmlns:xlink="http://www.w3.org/1999/xlink" x="0px" y="0px"
	 viewBox="0 0 170.08 170.08" style="enable-background:new 0 0 170.08 170.08;" xml:space="preserve">
<style type="text/css">
	.st0{fill:#FFFFFF;}
	.st1{fill:#F5EBF2;}
	.st2{fill:#F7EBF2;}
	.st3{fill:#808D9C;}
	.st4{stroke:#000000;stroke-miterlimit:10;}
	.st5{stroke:#000000;stroke-width:0.9555;stroke-miterlimit:10;}
	.st6{fill:#FFFFFF;stroke:#FFFFFF;stroke-width:0.2164;stroke-miterlimit:10;}
</style>
<g id="Ebene_4">
</g>
<g id="Ebene_5">
	<g>
		<path class="st0" d="M56.8,52.16c-1.32-1.19-3.12-1.74-4.89-1.86s-3.55,0.17-5.3,0.46c-3.98,0.67-8.29,1.6-10.87,4.7
			c-1.67,2-2.35,4.63-2.9,7.17c-0.77,3.6-1.34,7.31-0.85,10.96c0.48,3.65,2.14,7.28,5.11,9.47c2.14,1.58,4.78,2.29,7.37,2.89
			c4.44,1.01,9.31,1.71,13.36-0.36c3.05-1.56,5.19-4.5,6.66-7.6c1.28-2.72,2.14-5.64,2.53-8.62c0.37-2.83,0.3-5.81-0.92-8.39
			c-0.84-1.78-2.19-3.27-3.61-4.64c-1.59-1.53-3.29-2.95-5.1-4.22"/>
		<g>
			<path class="st0" d="M57.51,51.46c-3.32-2.78-7.57-2.28-11.54-1.59c-3.55,0.61-7.28,1.48-10.03,3.96
				c-2.98,2.69-3.8,6.91-4.48,10.68c-0.74,4.13-1.06,8.49,0.3,12.54c1.2,3.55,3.55,6.56,6.99,8.15c3.54,1.64,7.8,2.49,11.68,2.71
				c3.87,0.22,7.64-0.69,10.58-3.32c2.82-2.52,4.61-6.13,5.77-9.68c1.41-4.3,2.22-9.49,0.45-13.8c-1.71-4.16-5.79-7.3-9.34-9.85
				c-1.05-0.75-2.05,0.98-1.01,1.73c2.91,2.08,6.14,4.6,7.95,7.76c1.83,3.18,1.57,7.12,0.83,10.59c-1.36,6.42-5,13.74-12.26,14.52
				c-3.58,0.39-7.29-0.41-10.72-1.36c-3.33-0.92-6.19-2.53-7.94-5.6c-1.74-3.05-2.11-6.61-1.86-10.06c0.26-3.51,0.85-7.59,2.4-10.79
				c1.67-3.44,5.03-4.91,8.57-5.72c3.77-0.87,8.96-2.19,12.24,0.56C57.07,53.69,58.49,52.28,57.51,51.46L57.51,51.46z"/>
		</g>
	</g>
	<g>
		<path class="st0" d="M40.5,87.95c-2.53,9.17-4.93,18.38-7.2,27.62c-0.19,0.78-0.35,1.72,0.19,2.31c0.41,0.45,1.08,0.53,1.69,0.58
			c6.21,0.51,12.46,0.59,18.68,0.25c0.51-0.03,1.02-0.06,1.5-0.24c1.09-0.42,1.75-1.57,1.93-2.72c0.18-1.15-0.03-2.32-0.23-3.47
			c-0.61-3.67-0.98-7.38-1.1-11.1c-0.12-3.68-0.01-7.44-1.14-10.94c-0.06-0.18-0.12-0.36-0.25-0.49c-0.2-0.19-0.49-0.21-0.76-0.23
			c-4.33-0.3-8.62-0.99-12.83-2.06"/>
		<g>
			<path class="st0" d="M39.53,87.68c-1.94,7.04-3.8,14.1-5.59,21.18c-0.42,1.67-0.84,3.34-1.26,5.01
				c-0.32,1.29-0.96,2.96-0.25,4.24c0.57,1.02,1.68,1.25,2.75,1.35c1.96,0.19,3.93,0.28,5.89,0.35c3.61,0.14,7.22,0.14,10.82-0.01
				c1.28-0.05,2.77,0.06,3.97-0.47c1.21-0.54,2.02-1.71,2.33-2.97c0.33-1.36,0.1-2.77-0.12-4.13c-0.31-1.9-0.57-3.8-0.76-5.72
				c-0.33-3.46-0.29-6.93-0.5-10.4c-0.11-1.76-0.3-3.54-0.76-5.25c-0.45-1.7-0.99-2.23-2.72-2.37c-4.08-0.33-8.11-0.99-12.08-1.99
				c-1.25-0.32-1.78,1.61-0.53,1.93c2.89,0.73,5.82,1.29,8.78,1.67c0.72,0.09,1.43,0.17,2.15,0.25c0.38,0.04,1.85-0.07,2.16,0.18
				c0.25,0.2,0.33,0.93,0.42,1.31c0.21,0.88,0.35,1.77,0.45,2.67c0.3,2.86,0.21,5.75,0.37,8.62c0.17,3,0.5,5.98,0.97,8.94
				c0.21,1.32,0.6,2.8,0.14,4.1c-0.6,1.71-2.26,1.55-3.78,1.62c-2.95,0.13-5.9,0.16-8.86,0.1c-1.48-0.03-2.95-0.08-4.43-0.16
				c-0.82-0.04-1.64-0.09-2.46-0.15c-0.58-0.04-2.17,0.11-2.51-0.54c-0.23-0.45,0.19-1.5,0.29-1.92c0.18-0.72,0.35-1.43,0.53-2.15
				c0.4-1.59,0.8-3.18,1.2-4.77c1.7-6.68,3.46-13.34,5.29-19.98C41.8,86.97,39.87,86.44,39.53,87.68L39.53,87.68z"/>
		</g>
	</g>
	<g>
		<path class="st0" d="M22.08,118.13c0.07,0.46,0.16,0.94,0.46,1.3s0.88,0.53,1.24,0.22c0.18-0.15,0.26-0.39,0.31-0.62
			c0.15-0.73-0.02-1.5-0.33-2.18c-0.34-0.73-0.87-1.39-1.58-1.78c-0.71-0.39-1.6-0.47-2.32-0.1c-0.64,0.32-1.07,0.93-1.43,1.55
			c-0.81,1.4-1.38,2.94-1.65,4.53c-0.15,0.9-0.19,1.92,0.4,2.61c0.06,0.07,0.13,0.14,0.21,0.15c0.13,0.03,0.25-0.06,0.36-0.14
			c1.06-0.86,1.8-2.09,2.09-3.42c0.14-0.67,0.19-1.4,0.63-1.92s1.47-0.57,1.67,0.08"/>
		<g>
			<path class="st0" d="M21.11,118.4c0.2,1.23,0.91,2.53,2.35,2.41c1.52-0.13,1.79-1.85,1.59-3.07c-0.37-2.32-2.6-4.56-5.09-3.88
				c-1.22,0.33-2,1.37-2.58,2.43c-0.59,1.08-1.06,2.24-1.37,3.43c-0.28,1.11-0.55,2.39-0.2,3.51c0.18,0.57,0.5,1.17,1.05,1.45
				c0.77,0.4,1.46-0.15,1.99-0.67c0.92-0.91,1.6-2.09,1.9-3.35c0.13-0.53,0.12-1.19,0.44-1.65c0.07-0.11,0.02-0.03-0.02,0
				c0.1-0.06,0.11-0.07,0.03-0.03c0.06-0.02,0.13-0.04,0.19-0.05c-0.02,0-0.05,0.01-0.07,0.01c0.12,0,0.13,0,0.02-0.01
				c0.11,0.03,0.12,0.03,0.01,0c-0.1-0.05-0.16-0.13-0.19-0.25c0.19,0.5,0.67,0.85,1.23,0.7c0.48-0.13,0.89-0.72,0.7-1.23
				c-0.35-0.92-1.21-1.35-2.17-1.17c-0.93,0.18-1.52,0.92-1.8,1.79c-0.24,0.76-0.26,1.57-0.61,2.3c-0.3,0.64-0.83,1.56-1.5,1.87
				c0.17-0.05,0.34-0.09,0.5-0.14c-0.04,0-0.08,0-0.13,0.01c0.17,0.05,0.34,0.09,0.5,0.14c-0.12-0.06-0.18-0.41-0.2-0.52
				c-0.05-0.31-0.02-0.66,0.02-0.97c0.09-0.72,0.29-1.43,0.52-2.12c0.24-0.71,0.54-1.39,0.9-2.05c0.28-0.5,0.59-1.11,1.11-1.4
				c1.12-0.62,2.24,0.51,2.65,1.46c0.11,0.25,0.19,0.52,0.23,0.79c0.02,0.1,0,0.85-0.06,0.83c-0.12-0.05,0.38-0.18,0.34-0.14
				c-0.08,0.07-0.14-0.08-0.08-0.01c-0.2-0.25-0.22-0.65-0.27-0.95c-0.09-0.53-0.75-0.83-1.23-0.7
				C21.24,117.32,21.02,117.86,21.11,118.4L21.11,118.4z"/>
		</g>
	</g>
	<g>
		<path class="st0" d="M87.45,86.43c1.97-0.62,3.86-1.49,5.61-2.58c-3.19-1.06-6.72,0.08-9.6,1.82c-2.14,1.29-4.24,3.2-4.38,5.69
			c-0.04,0.75,0.12,1.55,0.63,2.09c0.66,0.7,1.71,0.83,2.67,0.77c1.92-0.12,3.81-0.83,5.33-2.02c0.3-0.23,0.6-0.5,0.72-0.86
			c0.31-0.87-0.5-1.69-0.95-2.51c-0.32-0.58-0.46-1.25-0.4-1.9"/>
		<g>
			<path class="st0" d="M87.72,87.4c2.05-0.66,4.01-1.55,5.85-2.68c0.75-0.46,0.58-1.57-0.24-1.83c-2.59-0.82-5.34-0.4-7.81,0.63
				c-2.3,0.96-4.6,2.34-6.12,4.37c-1.34,1.79-2.13,4.92-0.09,6.54c2.02,1.61,5.4,0.65,7.45-0.42c1.14-0.6,2.68-1.52,2.74-2.96
				c0.03-0.72-0.3-1.36-0.67-1.96c-0.45-0.72-0.78-1.28-0.74-2.15c0.06-1.29-1.94-1.28-2,0c-0.05,1.16,0.33,2.11,0.95,3.07
				c0.15,0.24,0.55,0.7,0.46,1.01c-0.09,0.32-0.69,0.64-0.95,0.8c-0.87,0.57-1.82,0.97-2.83,1.21c-0.85,0.2-1.94,0.39-2.78,0.06
				c-1.78-0.7-0.52-3.34,0.3-4.31c1.24-1.47,2.99-2.51,4.73-3.29c2.15-0.95,4.55-1.39,6.83-0.67c-0.08-0.61-0.16-1.22-0.24-1.83
				c-1.69,1.04-3.48,1.88-5.37,2.48C85.96,85.86,86.49,87.79,87.72,87.4L87.72,87.4z"/>
		</g>
	</g>
	<g>
		<path class="st0" d="M30.06,157.25c2.42,0.98,5.07,1.41,7.68,1.25c0.77-0.05,1.74-0.34,1.81-1.11c0.06-0.62-0.53-1.09-1.08-1.37
			c-2.98-1.56-6.84-1.28-9.56,0.7"/>
		<g>
			<path class="st0" d="M29.79,158.21c1.76,0.7,3.61,1.12,5.5,1.26c1.46,0.11,3.61,0.32,4.73-0.85c0.62-0.65,0.69-1.62,0.23-2.38
				c-0.47-0.75-1.3-1.16-2.09-1.48c-1.45-0.6-3.07-0.86-4.64-0.73c-1.83,0.15-3.61,0.74-5.11,1.8c-0.44,0.31-0.65,0.87-0.36,1.37
				c0.25,0.43,0.93,0.67,1.37,0.36c2.45-1.74,5.93-2.15,8.62-0.66c0.13,0.07,0.27,0.15,0.38,0.26c0.17,0.17,0.1,0.21,0.15,0.07
				c0-0.01-0.16,0.1-0.3,0.15c-0.73,0.25-1.64,0.15-2.4,0.12c-1.91-0.08-3.78-0.52-5.55-1.23c-0.5-0.2-1.1,0.22-1.23,0.7
				C28.94,157.55,29.29,158.01,29.79,158.21L29.79,158.21z"/>
		</g>
	</g>
	<g>
		<path class="st0" d="M58.26,156.13c1.46-0.86,2.94-1.73,4.57-2.18c1.63-0.45,3.46-0.44,4.93,0.41c0.55,0.32,1.07,0.82,1.09,1.45
			c0.03,0.97-1.05,1.55-1.98,1.81c-1.96,0.55-4.04,0.7-6.06,0.46c-1.06-0.13-2.17-0.4-2.87-1.2"/>
		<g>
			<path class="st0" d="M58.76,156.99c1.63-0.96,3.32-1.99,5.22-2.28c0.78-0.12,1.59-0.09,2.35,0.12c0.38,0.11,1.5,0.46,1.53,0.99
				c0.03,0.52-1.11,0.8-1.46,0.89c-0.9,0.24-1.82,0.39-2.75,0.45c-0.97,0.06-1.96,0.05-2.92-0.09c-0.77-0.11-1.55-0.31-2.1-0.9
				c-0.88-0.94-2.29,0.47-1.41,1.41c1.28,1.37,3.34,1.56,5.11,1.6c1.88,0.04,4.02-0.16,5.75-0.96c0.73-0.34,1.45-0.94,1.68-1.74
				c0.26-0.91-0.09-1.83-0.77-2.46c-1.37-1.26-3.44-1.53-5.22-1.28c-2.19,0.3-4.14,1.42-6.01,2.52
				C56.65,155.92,57.65,157.65,58.76,156.99L58.76,156.99z"/>
		</g>
	</g>
</g>
<g id="Ebene_7">
	<g>
		<path class="st1" d="M97.77,48.97c-1.13,3.38-3.16,6.46-5.81,8.84c4.09-1.89,8.19-3.78,12.07-6.06c0.45-0.27,0.92-0.54,1.44-0.62
			c0.39-0.06,0.79,0.01,1.18,0.07c7.67,1.26,15.87,2.83,22.93-0.41c5.65-2.59,9.6-7.91,12.34-13.49c0.55-1.13,1.07-2.3,1.14-3.56
			c0.06-1.11-0.24-2.2-0.64-3.24c-2.12-5.51-6.92-9.59-12.12-12.38c-2.43-1.31-5.02-2.4-7.74-2.81c-2.56-0.39-5.16-0.17-7.74,0.05
			c-5.58,0.47-11.49,1.07-15.97,4.43c-3.2,2.4-5.3,5.95-7.25,9.43c-1.2,2.14-2.4,4.39-2.51,6.85c-0.11,2.49,0.95,4.93,2.49,6.89
			c1.54,1.96,3.53,3.52,5.54,5"/>
		<g>
			<path class="st2" d="M96.81,48.71c-1.12,3.25-3.02,6.09-5.56,8.4c-0.89,0.82,0.24,2.02,1.21,1.57c2.61-1.21,5.22-2.41,7.78-3.72
				c1.24-0.64,2.48-1.3,3.69-1.99c0.59-0.34,1.22-0.84,1.93-0.85c0.74-0.02,1.53,0.22,2.26,0.34c5.24,0.86,10.61,1.72,15.91,0.96
				c4.87-0.7,9.19-2.98,12.59-6.53c1.63-1.7,3.05-3.63,4.27-5.64c1.18-1.94,2.54-4.15,3.01-6.4c0.92-4.47-2.69-9.31-5.7-12.24
				c-3.44-3.35-7.87-6.06-12.44-7.53c-5.11-1.65-10.81-0.88-16.03-0.16c-4.82,0.66-9.59,2.06-13.17,5.53
				c-2.04,1.98-3.61,4.41-5.02,6.86c-1.38,2.39-2.91,4.9-3.35,7.67c-0.95,6.13,3.96,10.59,8.41,13.87c1.04,0.76,2.04-0.97,1.01-1.73
				c-3.78-2.79-8.4-6.76-7.42-12.04c0.44-2.38,1.78-4.52,2.97-6.59c1.16-2.02,2.39-4.02,3.96-5.75c3.2-3.54,7.57-5.05,12.18-5.76
				c2.3-0.35,4.63-0.54,6.95-0.71c2.67-0.2,5.33-0.26,7.93,0.43c4.33,1.15,8.59,3.67,11.9,6.66c1.59,1.44,3.01,3.07,4.12,4.92
				c1.12,1.88,2.25,4.22,1.67,6.44c-0.55,2.11-1.86,4.19-3.02,6.02c-1.17,1.85-2.5,3.6-4.06,5.15c-3.36,3.34-7.6,5.29-12.33,5.71
				c-2.63,0.24-5.29,0.09-7.91-0.2c-2.78-0.31-5.54-1.01-8.32-1.25c-1.21-0.1-2.11,0.39-3.13,0.98c-1.21,0.7-2.44,1.36-3.68,2
				c-2.63,1.35-5.31,2.59-7.99,3.83c0.4,0.52,0.81,1.05,1.21,1.57c2.79-2.55,4.84-5.72,6.07-9.28
				C99.16,48.02,97.23,47.5,96.81,48.71L96.81,48.71z"/>
		</g>
	</g>
</g>
<g id="Ebene_6">
	<g>
		<path class="st3" d="M132.36,69.29c-1.01,2.05-1.79,4.21-2.31,6.43c-0.07,0.28-0.13,0.58-0.03,0.86c0.18,0.49,0.78,0.64,1.29,0.78
			c2.46,0.66,4.54,2.44,5.86,4.62c1.32,2.18,1.92,4.74,2.05,7.29c0.07,1.44,0,2.91-0.47,4.27c-1.31,3.84-5.39,6.02-9.31,7.06
			c-1.39,0.37-2.83,0.65-4.27,0.52c-2.91-0.26-5.5-2.23-6.95-4.76c-1.45-2.53-1.86-5.57-1.62-8.48c0.14-1.69,0.5-3.4,1.34-4.88
			c0.88-1.55,2.23-2.76,3.56-3.95c1.23-1.09,2.48-2.21,3.99-2.87c1.51-0.66,3.33-0.8,4.75,0.03c-0.02-1.84,0.55-3.68,1.6-5.19
			c0.37-0.53,0.8-1.05,0.89-1.68c0.07-0.51-0.11-1.01-0.21-1.52c-0.33-1.73,0.31-3.5,0.3-5.26c0-0.22-0.02-0.47-0.18-0.62
			c-0.15-0.16-0.39-0.18-0.61-0.2c-3.01-0.22-6.02-0.25-9.03-0.08c0.07,1.71,0.03,3.43-0.11,5.14c-0.04,0.47-0.09,0.96-0.33,1.37
			c-0.35,0.6-1.02,0.92-1.65,1.21c-1.51,0.69-3.01,1.37-4.52,2.06c-0.33,0.15-0.68,0.3-1.03,0.25c-0.43-0.06-0.77-0.39-1.06-0.71
			c-0.72-0.76-1.43-1.52-2.15-2.29c-0.18-0.19-0.4-0.4-0.67-0.39c-0.23,0.01-0.42,0.2-0.58,0.37c-1.75,1.88-3.51,3.76-5.26,5.63
			c0.89,0.95,1.78,1.89,2.67,2.84c0.24,0.26,0.5,0.53,0.61,0.87c0.15,0.46,0.01,0.96-0.13,1.43c-0.6,2.01-1.2,4.02-1.8,6.04
			c-0.07,0.23-0.14,0.47-0.33,0.62c-0.21,0.17-0.51,0.18-0.78,0.17c-1.64-0.03-3.27-0.14-4.89-0.34c0,2.84,0,5.68,0,8.52
			c1.92-0.06,3.84-0.36,5.68-0.9c1.45,2.18,2.74,4.46,3.84,6.83c0.09,0.2,0.18,0.41,0.14,0.62c-0.04,0.23-0.23,0.4-0.41,0.55
			c-1.26,1.07-2.52,2.14-3.77,3.21c1.69,2.21,3.37,4.42,5.06,6.64c0.7-0.55,1.02-1.45,1.57-2.15c1.11-1.4,3.1-1.84,4.87-1.55
			c1.76,0.29,3.36,1.19,4.91,2.07c0.42,0.24,0.87,0.5,1.1,0.93c0.18,0.33,0.21,0.73,0.23,1.11c0.09,1.46,0.17,2.92,0.26,4.39
			c2.67-0.73,5.51-0.88,8.24-0.45c0.2-1.18,0.19-2.4-0.03-3.58c-0.1-0.54-0.24-1.12-0.01-1.62c0.18-0.38,0.56-0.63,0.92-0.86
			c1.66-1.03,3.42-1.91,5.24-2.62c0.23-0.09,0.48-0.18,0.72-0.13c0.27,0.06,0.46,0.27,0.65,0.47c1.2,1.34,2.41,2.69,3.61,4.03
			c1.72-2.48,3.66-4.8,5.79-6.93c-1.44-0.69-2.8-1.54-4.05-2.54c-0.23-0.18-0.46-0.39-0.55-0.67c-0.09-0.3,0.01-0.63,0.12-0.93
			c0.64-1.85,1.29-3.7,1.93-5.55c0.09-0.27,0.2-0.55,0.42-0.73c0.27-0.23,0.66-0.25,1.02-0.25c1.85-0.02,3.71,0.05,5.56,0.21
			c-0.61-2.72-0.77-5.55-0.46-8.32c-1.75,0.2-3.49,0.5-5.21,0.91c-0.61-2.44-1.22-4.87-1.84-7.31c-0.12-0.46-0.23-0.95-0.11-1.41
			c0.09-0.35,0.31-0.66,0.54-0.94c0.91-1.12,2.07-2.04,3.36-2.69c-1.73-2.37-3.71-4.56-5.88-6.53c-1.7,1.47-3.4,2.94-5.1,4.41
			c-2.09-1.42-4.52-2.35-7.02-2.7c-0.77,2.27-1.55,4.54-2.32,6.81"/>
		<g>
			<path class="st3" d="M131.5,68.78c-0.57,1.17-1.08,2.37-1.51,3.6c-0.43,1.23-1.18,2.87-0.96,4.19c0.14,0.87,0.77,1.32,1.56,1.6
				c1.22,0.45,2.34,0.8,3.38,1.62c2.12,1.67,3.35,4.17,3.91,6.78c0.53,2.48,0.71,5.45-0.56,7.74c-1.13,2.05-3.18,3.42-5.29,4.34
				c-2.29,1-5.18,1.91-7.67,1.32c-5.35-1.26-7.17-7.24-6.76-12.1c0.13-1.58,0.48-3.17,1.31-4.55c0.77-1.28,1.89-2.3,2.99-3.29
				c2.02-1.82,4.91-4.48,7.83-2.95c0.67,0.35,1.49-0.08,1.5-0.86c0.02-1.25,0.26-2.47,0.81-3.59c0.45-0.91,1.24-1.67,1.55-2.64
				c0.32-1.03-0.13-1.99-0.17-3.02c-0.04-1.1,0.21-2.2,0.32-3.29c0.08-0.79,0.21-1.81-0.41-2.43c-0.66-0.66-1.9-0.54-2.74-0.58
				c-2.54-0.13-5.07-0.12-7.61,0.01c-0.53,0.03-1.02,0.44-1,1c0.04,1.25,0.05,2.49-0.02,3.74c-0.07,1.31,0.02,2.32-1.26,2.97
				c-1.13,0.58-2.32,1.06-3.48,1.59c-0.57,0.26-1.36,0.85-2.01,0.55c-0.36-0.17-0.73-0.76-1-1.05c-1.13-1.2-2.39-3.05-4.04-1.49
				c-1.86,1.75-3.52,3.77-5.26,5.63c-0.38,0.4-0.38,1.01,0,1.41c0.5,0.53,1,1.06,1.5,1.6c0.4,0.43,1.03,0.9,1.32,1.42
				c0.55,0.99-0.51,3.13-0.83,4.17c-0.18,0.62-0.37,1.24-0.55,1.86c-0.23,0.77-0.13,1.2-0.98,1.21c-1.47,0-2.95-0.16-4.4-0.33
				c-0.54-0.06-1,0.51-1,1c0,2.84,0,5.68,0,8.52c0,0.52,0.46,1.02,1,1c2.02-0.08,4-0.39,5.95-0.93c-0.38-0.15-0.75-0.31-1.13-0.46
				c1.14,1.73,2.2,3.52,3.14,5.38c0.17,0.34,0.69,1.02,0.59,1.42c-0.07,0.28-0.93,0.79-1.13,0.96c-0.88,0.75-1.76,1.5-2.64,2.25
				c-0.3,0.26-0.41,0.88-0.16,1.21c1.69,2.21,3.37,4.42,5.06,6.64c0.4,0.52,1.05,0.68,1.57,0.2c0.94-0.86,1.32-2.23,2.43-2.91
				c1.24-0.76,2.78-0.68,4.12-0.27c0.77,0.23,1.5,0.58,2.22,0.95c0.61,0.32,1.49,0.65,1.92,1.2c0.48,0.61,0.34,1.67,0.39,2.45
				c0.05,0.89,0.11,1.79,0.16,2.68c0.04,0.65,0.61,1.14,1.27,0.96c2.53-0.66,5.12-0.83,7.71-0.45c0.48,0.07,1.14-0.11,1.23-0.7
				c0.19-1.31,0.21-2.57,0.01-3.89c-0.14-0.92,0.01-1.32,0.8-1.8c0.64-0.39,1.3-0.75,1.97-1.09c0.63-0.32,1.28-0.62,1.93-0.9
				c0.12-0.05,0.8-0.43,0.92-0.4c0.16,0.04,0.41,0.45,0.52,0.57c1.1,1.22,2.19,2.45,3.28,3.67c0.46,0.52,1.22,0.29,1.57-0.2
				c1.68-2.4,3.57-4.64,5.64-6.72c0.43-0.43,0.39-1.28-0.2-1.57c-1.27-0.62-2.49-1.33-3.6-2.19c-0.6-0.46-0.5-0.57-0.26-1.27
				c0.27-0.77,0.54-1.54,0.81-2.31c0.24-0.69,0.48-1.39,0.73-2.08c0.32-0.91,0.74-0.95,1.64-0.95c1.55,0.01,3.09,0.09,4.63,0.21
				c0.68,0.06,1.09-0.68,0.96-1.27c-0.57-2.66-0.7-5.35-0.42-8.06c0.05-0.5-0.5-1.06-1-1c-1.84,0.22-3.66,0.53-5.47,0.95
				c0.41,0.23,0.82,0.47,1.23,0.7c-0.54-2.13-1.07-4.26-1.61-6.4c-0.11-0.45-0.4-1.11-0.36-1.59c0.06-0.64,0.67-1.16,1.1-1.57
				c0.7-0.68,1.5-1.21,2.36-1.66c0.44-0.23,0.67-0.95,0.36-1.37c-1.8-2.44-3.8-4.69-6.04-6.73c-0.42-0.38-0.99-0.37-1.41,0
				c-1.7,1.47-3.4,2.94-5.1,4.41c0.4-0.05,0.81-0.1,1.21-0.16c-2.2-1.45-4.65-2.4-7.26-2.8c-0.56-0.09-1.04,0.14-1.23,0.7
				c-0.77,2.27-1.55,4.54-2.32,6.81c-0.42,1.22,1.52,1.75,1.93,0.53c0.77-2.27,1.55-4.54,2.32-6.81c-0.41,0.23-0.82,0.47-1.23,0.7
				c2.45,0.37,4.71,1.23,6.78,2.6c0.39,0.26,0.89,0.13,1.21-0.16c1.7-1.47,3.4-2.94,5.1-4.41c-0.47,0-0.94,0-1.41,0
				c2.11,1.92,4.03,4.03,5.73,6.32c0.12-0.46,0.24-0.91,0.36-1.37c-1.74,0.91-4.46,2.73-4.45,4.96c0.01,1.29,0.57,2.7,0.89,3.95
				c0.38,1.52,0.77,3.05,1.15,4.57c0.14,0.54,0.71,0.82,1.23,0.7c1.63-0.38,3.28-0.68,4.94-0.88c-0.33-0.33-0.67-0.67-1-1
				c-0.3,2.88-0.12,5.75,0.49,8.59c0.32-0.42,0.64-0.84,0.96-1.27c-1.94-0.16-4.26-0.51-6.19-0.16c-1.87,0.34-2.14,2.71-2.66,4.21
				c-0.48,1.37-1.86,3.65-0.86,5.06c1.02,1.42,3.23,2.46,4.75,3.2c-0.07-0.52-0.13-1.05-0.2-1.57c-2.19,2.2-4.17,4.59-5.95,7.13
				c0.52-0.07,1.05-0.13,1.57-0.2c-0.77-0.86-1.53-1.71-2.3-2.57c-0.54-0.61-1.06-1.35-1.71-1.84c-1.34-0.98-3.19,0.25-4.45,0.86
				c-1.31,0.63-3.36,1.4-4.16,2.71c-0.41,0.67-0.37,1.36-0.26,2.11c0.17,1.18,0.28,2.26,0.11,3.45c0.41-0.23,0.82-0.47,1.23-0.7
				c-2.96-0.44-5.88-0.31-8.77,0.45c0.42,0.32,0.84,0.64,1.27,0.96c-0.08-1.3-0.15-2.6-0.23-3.9c-0.05-0.85-0.07-1.69-0.6-2.39
				c-0.5-0.66-1.32-1.05-2.03-1.44c-0.92-0.51-1.87-0.99-2.86-1.34c-1.67-0.59-3.53-0.73-5.21-0.08c-0.7,0.27-1.37,0.68-1.89,1.22
				c-0.71,0.73-1.05,1.73-1.81,2.41c0.52,0.07,1.05,0.13,1.57,0.2c-1.69-2.21-3.37-4.42-5.06-6.64c-0.05,0.4-0.1,0.81-0.16,1.21
				c1.13-0.96,2.27-1.92,3.4-2.89c0.83-0.72,1.3-1.37,0.9-2.47c-0.88-2.48-2.51-4.89-3.95-7.07c-0.24-0.37-0.69-0.58-1.13-0.46
				c-1.78,0.5-3.57,0.79-5.42,0.86c0.33,0.33,0.67,0.67,1,1c0-2.84,0-5.68,0-8.52c-0.33,0.33-0.67,0.67-1,1
				c1.14,0.13,2.28,0.24,3.42,0.3c0.73,0.04,1.57,0.18,2.28-0.04c1.53-0.47,1.71-2.94,2.09-4.22c0.28-0.93,0.56-1.86,0.83-2.79
				c0.23-0.78,0.51-1.61,0.27-2.43c-0.2-0.67-0.73-1.17-1.2-1.67c-0.78-0.83-1.56-1.65-2.34-2.48c0,0.47,0,0.94,0,1.41
				c0.99-1.06,1.97-2.11,2.96-3.17c0.44-0.47,0.88-0.94,1.32-1.41c0.24-0.26,0.53-0.67,0.82-0.88c0.35-0.26-0.17-0.24,0.15,0.01
				c1.71,1.35,2.58,3.87,5.14,2.81c1.28-0.53,2.53-1.15,3.78-1.72c0.96-0.44,2.06-0.82,2.71-1.7c0.61-0.83,0.65-1.86,0.72-2.85
				c0.1-1.48,0.11-2.96,0.06-4.44c-0.33,0.33-0.67,0.67-1,1c2.06-0.11,4.12-0.14,6.18-0.07c0.62,0.02,1.28,0.13,1.9,0.09
				c0.16,0.01,0.32,0.02,0.47,0.03c0.31-0.27,0.39-0.17,0.25,0.3c0.14,0.89-0.25,1.97-0.33,2.86c-0.08,0.93,0.06,1.7,0.16,2.61
				c0.12,1.14-0.44,1.65-1,2.59c-0.93,1.57-1.37,3.34-1.39,5.16c0.5-0.29,1-0.58,1.5-0.86c-2.59-1.36-5.44-0.53-7.69,1.12
				c-2.24,1.64-4.74,3.73-6.07,6.21c-2.63,4.92-1.85,12.4,2.08,16.42c1.86,1.91,4.39,3.1,7.08,3.04c2.8-0.06,5.78-1.06,8.22-2.41
				c2.18-1.2,4.12-2.95,5.11-5.28c1.16-2.73,0.94-6.01,0.25-8.83c-0.76-3.13-2.47-6.02-5.15-7.86c-0.6-0.41-1.23-0.74-1.9-1.02
				c-0.34-0.14-0.76-0.21-1.08-0.37c-0.52-0.26-0.48-0.22-0.45-0.85c0.03-0.84,0.51-1.83,0.79-2.62c0.37-1.07,0.82-2.11,1.31-3.13
				C133.78,68.64,132.06,67.62,131.5,68.78L131.5,68.78z"/>
		</g>
	</g>
</g>
<g id="Ebene_12">
	<g>
		<g>
			<path d="M53.12,49.89c-4.2-1.38-8.72-1.41-12.74,0.55c-3.6,1.76-6.4,4.94-8.2,8.47c-3.53,6.9-4.3,16.54,0.54,23.04
				c2.88,3.87,7.87,6.08,12.44,7.18c4.25,1.02,8.72,0.77,12.65-1.22c6.93-3.51,10.87-11.46,11.71-18.92
				c0.33-2.94,0.24-6.24-1.19-8.91c-2.94-5.48-8.68-10.2-14.65-11.89c-1.6-0.45-3.25-0.68-4.9-0.72c-1.29-0.03-1.29,1.97,0,2
				c6.6,0.16,12.38,4.14,16.26,9.29c1,1.32,1.85,2.6,2.25,4.21c0.33,1.33,0.41,2.7,0.37,4.06c-0.17,6.55-3.18,13.71-8.51,17.7
				c-3.05,2.28-6.76,3.26-10.55,2.95c-2.27-0.18-4.51-0.82-6.62-1.68c-2.11-0.86-4.35-1.9-6.05-3.45
				c-5.4-4.91-5.45-13.54-3.18-19.96c1.35-3.82,3.76-7.45,7.23-9.64c3.85-2.43,8.36-2.53,12.61-1.13
				C53.81,52.22,54.34,50.29,53.12,49.89L53.12,49.89z"/>
		</g>
	</g>
	<g>
		<g>
			<path d="M44.56,76.85c1.19,2.24,3.5,3.77,5.98,4.23c2.92,0.54,5.87-0.26,8.43-1.66c1.13-0.62,0.12-2.35-1.01-1.73
				c-2.07,1.13-4.52,1.89-6.89,1.46c-2-0.36-3.81-1.49-4.78-3.31C45.68,74.7,43.96,75.71,44.56,76.85L44.56,76.85z"/>
		</g>
	</g>
	<g>
		<g>
			<path d="M38.98,86.93c-2.13,6.08-4.07,12.23-5.78,18.44c-0.85,3.07-1.73,6.16-2.38,9.29c-0.5,2.42,0.12,4.48,2.58,5.36
				c2.58,0.92,5.71,1.01,8.42,1.21c3.13,0.22,6.28,0.24,9.42,0.05c1.56-0.1,3.13-0.22,4.67-0.44c1.02-0.15,2-0.48,2.58-1.4
				c0.58-0.91,0.63-2.03,0.56-3.08c-0.11-1.59-0.32-3.17-0.48-4.75c-0.75-7.36-1.5-14.73-2.25-22.09c-0.13-1.27-2.13-1.28-2,0
				c0.58,5.73,1.17,11.46,1.75,17.18c0.28,2.78,0.57,5.56,0.85,8.35c0.1,0.93,0.46,2.4-0.09,3.24c-0.63,0.96-2.89,0.78-3.91,0.87
				c-5.6,0.48-11.29,0.31-16.84-0.58c-0.96-0.15-2.21-0.26-2.96-0.95c-1.06-0.97-0.28-2.84,0-4c0.67-2.74,1.38-5.47,2.14-8.18
				c1.68-6.05,3.57-12.05,5.65-17.98C41.34,86.24,39.41,85.72,38.98,86.93L38.98,86.93z"/>
		</g>
	</g>
	<g>
		<g>
			<path d="M38.96,86.52c-10.03,6.14-17.48,15.78-19.53,27.5c-0.22,1.26,1.71,1.8,1.93,0.53c1.96-11.23,8.99-20.41,18.61-26.31
				C41.07,87.58,40.07,85.85,38.96,86.52L38.96,86.52z"/>
		</g>
	</g>
	<g>
		<g>
			<path d="M20.56,118.82c0.34,1.5,1.09,2.91,2.17,4c0.58,0.58,1.41,0.9,2.11,0.31c0.63-0.53,0.72-1.37,0.82-2.14
				c0.4-3.06-0.74-6.52-3.96-7.5c-1.47-0.45-2.99-0.07-4.17,0.87c-1.19,0.95-1.91,2.36-2.43,3.77c-0.57,1.56-1,3.41-0.85,5.08
				c0.14,1.53,0.97,3.16,2.61,3.47c1.78,0.34,3.38-0.89,4.08-2.45c0.8-1.79,0.98-3.9,1.09-5.83c0.08-1.29-1.92-1.28-2,0
				c-0.08,1.29-0.23,2.59-0.53,3.85c-0.22,0.91-0.57,1.95-1.49,2.36c-0.85,0.38-1.48-0.19-1.69-1.01c-0.28-1.08-0.01-2.38,0.25-3.44
				c0.43-1.76,1.3-4.31,3.3-4.81c2-0.5,3.51,1.55,3.81,3.27c0.1,0.59,0.1,1.2,0.05,1.8c-0.02,0.29-0.06,0.57-0.12,0.86
				c0,0-0.08,0.28-0.07,0.32c-0.07,0.26,0.17,0.23,0.73-0.07c-0.04-0.04-0.08-0.08-0.13-0.13c-0.35-0.46-0.73-0.85-1.01-1.36
				c-0.31-0.55-0.51-1.14-0.64-1.75C22.21,117.03,20.28,117.56,20.56,118.82L20.56,118.82z"/>
		</g>
	</g>
	<g>
		<g>
			<path d="M88.02,87.54c2.07-0.88,4.13-1.82,6.13-2.85c0.68-0.35,1.38-0.85,1.33-1.72c-0.05-0.94-0.92-1.47-1.77-1.62
				c-2.01-0.34-4.2,0.07-6.13,0.66c-1.86,0.57-3.71,1.34-5.42,2.28c-3.03,1.67-5.6,4.61-4.92,8.3c0.32,1.73,1.56,3.09,3.18,3.71
				c1.71,0.65,3.57,0.39,5.19-0.37c1.71-0.8,3.57-2.25,4.02-4.17c0.44-1.87-0.35-3.73-1.86-4.85c-1.03-0.77-2.03,0.97-1.01,1.73
				c0.83,0.61,1.2,1.82,0.89,2.8c-0.38,1.16-1.58,2-2.61,2.55c-2.11,1.13-5.4,0.93-5.88-1.92c-0.42-2.52,1.48-4.54,3.47-5.74
				c2.41-1.45,5.31-2.62,8.11-2.98c0.84-0.11,1.68,0.02,2.51-0.05c0.33-0.03,0.29,0.28,0.31-0.26c0.01-0.51-0.13-0.24-0.44-0.08
				c-0.39,0.2-0.79,0.4-1.18,0.59c-1.63,0.8-3.28,1.55-4.94,2.26c-0.5,0.21-0.6,0.94-0.36,1.37C86.95,87.7,87.53,87.75,88.02,87.54
				L88.02,87.54z"/>
		</g>
	</g>
	<g>
		<g>
			<path d="M54.62,90.22c1.79,1.89,3.73,3.64,5.66,5.37c1.76,1.58,3.47,3.49,5.48,4.76c2.17,1.37,4.43,0.9,6.44-0.51
				c2.43-1.7,4.72-3.63,7.06-5.45c1.02-0.79-0.41-2.19-1.41-1.41c-2.07,1.6-4.11,3.24-6.2,4.81c-0.89,0.67-1.94,1.44-3.11,1.44
				c-1.16,0-2.15-0.8-2.97-1.54c-3.23-2.88-6.57-5.73-9.54-8.88C55.15,87.86,53.74,89.28,54.62,90.22L54.62,90.22z"/>
		</g>
	</g>
	<g>
		<g>
			<path d="M36.6,123.25c1.29,0,1.29-2,0-2C35.31,121.25,35.31,123.25,36.6,123.25L36.6,123.25z"/>
		</g>
	</g>
	<g>
		<g>
			<path d="M35.26,120.99c1.97,12.53-2.86,24.71-8.65,35.56c-0.27,0.51-0.1,1.04,0.36,1.37c2.66,1.89,5.86,2.94,9.13,2.99
				c2.02,0.03,6.84-0.24,6.57-3.29c-0.12-1.36-1.51-2.16-2.55-2.81c-1.52-0.95-3.21-1.69-5-1.94c-2.89-0.41-5.84,0.63-7.51,3.09
				c-0.72,1.07,1.01,2.07,1.73,1.01c1.24-1.82,3.57-2.45,5.67-2.11c1.18,0.19,2.31,0.65,3.35,1.23c0.5,0.28,1,0.58,1.46,0.91
				c0.49,0.35,1.03,0.61,0.53,1.16c-0.58,0.63-2.28,0.65-3.05,0.7c-1.11,0.08-2.24,0.03-3.33-0.16c-2.18-0.38-4.19-1.25-5.99-2.53
				c0.12,0.46,0.24,0.91,0.36,1.37c6.08-11.38,10.91-23.99,8.86-37.11C36.99,119.19,35.06,119.73,35.26,120.99L35.26,120.99z"/>
		</g>
	</g>
	<g>
		<g>
			<path d="M54.19,120.81c3.52,3.89,4.62,9.19,4.75,14.3c0.15,5.66-0.55,11.5-2.23,16.91c-0.42,1.35-0.91,2.68-1.48,3.97
				c-0.43,0.98-0.3,1.85,0.69,2.44c0.97,0.58,2.29,0.69,3.38,0.86c1.54,0.24,3.09,0.38,4.64,0.41c1.95,0.03,4.6,0.08,5.88-1.72
				c1.32-1.86,0.17-4.17-1.6-5.21c-4-2.35-10.26-0.86-12.22,3.48c-0.52,1.16,1.2,2.18,1.73,1.01c0.78-1.72,2.25-2.81,4.06-3.29
				c1.81-0.48,4.59-0.45,6.01,0.97c0.88,0.88,0.69,1.99-0.45,2.45c-0.98,0.39-2.14,0.33-3.18,0.32c-1.23-0.01-2.47-0.09-3.69-0.25
				c-0.48-0.06-3.4-0.24-3.61-0.81c-0.03,0.26-0.07,0.51-0.1,0.77c2.93-6.46,4.13-13.66,4.18-20.73c0.05-6.16-1.1-12.58-5.35-17.29
				C54.74,118.44,53.33,119.86,54.19,120.81L54.19,120.81z"/>
		</g>
	</g>
	<g>
		<g>
			<path d="M120.49,67.34c-1.85,1.01-3.58,2.16-5.24,3.45c0.52,0.07,1.05,0.13,1.57,0.2c-1.46-1.98-3.12-3.76-5.03-5.32
				c-0.4-0.32-1.03-0.44-1.41,0c-2.45,2.78-4.9,5.55-7.36,8.33c-0.42,0.48-0.38,1.23,0.2,1.57c1.7,1,3.21,2.2,4.59,3.61
				c-0.05-0.4-0.1-0.81-0.16-1.21c-1.07,2.34-2,4.75-2.62,7.25c0.32-0.24,0.64-0.49,0.96-0.73c-1.91-0.03-3.8-0.42-5.71-0.45
				c-0.58-0.01-0.95,0.47-1,1c-0.34,3.49-0.45,6.95-0.3,10.45c0.02,0.52,0.44,1.03,1,1c2.34-0.11,4.68-0.35,7.02-0.24
				c-0.29-0.17-0.58-0.33-0.86-0.5c0.98,1.88,1.71,3.88,2.69,5.76c-0.03-0.26-0.07-0.51-0.1-0.77c0.08-0.49,0.24-0.31-0.16-0.04
				c-0.25,0.17-0.47,0.37-0.71,0.55c-0.69,0.52-1.38,1.04-2.06,1.58c-0.75,0.6-2.37,1.6-2.02,2.77c0.35,1.17,1.96,2.32,2.78,3.14
				c1.61,1.6,3.25,3.17,4.88,4.75c0.48,0.46,1.22,0.34,1.57-0.2c1.12-1.76,2.9-3,4.27-4.55c-0.32,0.09-0.65,0.17-0.97,0.26
				c2.39,0.85,4.64,2.04,7.03,2.89c-0.23-0.41-0.47-0.82-0.7-1.23c-0.83,2.23-0.23,4.71-0.51,7.02c-0.09,0.72,0.71,1.04,1.27,0.96
				c3.71-0.51,7.48-0.14,11.2-0.66c0.57-0.08,0.78-0.76,0.7-1.23c-0.33-1.93-0.08-3.92-0.73-5.79c-0.15,0.38-0.31,0.75-0.46,1.13
				c1.88-0.95,3.81-1.82,5.8-2.5c-0.32-0.09-0.65-0.17-0.97-0.26c1.46,1.59,2.83,3.25,4.34,4.78c0.48,0.49,1.21,0.32,1.57-0.2
				c2.02-2.92,4.38-5.66,7.1-7.96c0.39-0.33,0.38-1.08,0-1.41c-1.58-1.39-3.32-2.58-4.9-3.96c0.05,0.4,0.1,0.81,0.16,1.21
				c1.14-1.97,2.11-3.98,2.65-6.21c-0.23,0.23-0.47,0.47-0.7,0.7c1.94-0.34,3.94-0.05,5.9-0.1c0.54-0.01,0.99-0.45,1-1
				c0.03-3.17-0.24-6.38,0.2-9.53c0.07-0.53-0.12-1.07-0.7-1.23c-2.22-0.6-4.94,0.06-7.14,0.49c0.41,0.23,0.82,0.47,1.23,0.7
				c-0.74-2.4-1.49-4.8-2.23-7.19c-0.09,0.32-0.17,0.65-0.26,0.97c1.75-1.48,3.51-2.96,5.26-4.44c0.43-0.36,0.34-1.04,0-1.41
				c-2.41-2.67-4.83-5.52-7.69-7.71c-0.25-0.19-0.76-0.19-1.01,0c-1.87,1.39-3.71,2.88-5.31,4.57c0.32-0.09,0.65-0.17,0.97-0.26
				c-1.96-0.6-3.79-1.33-5.58-2.34c0.17,0.29,0.33,0.58,0.5,0.86c-0.18-2.64-0.12-5.28-0.01-7.92c0.02-0.4-0.32-0.9-0.73-0.96
				c-3.41-0.55-7.29-0.45-10.69,0.16c-1.25,0.22-1.56,1.02-1.76,2.2c-0.34,1.97-0.46,3.97-0.72,5.95c-0.17,1.27,1.83,1.26,2,0
				c0.22-1.63,0.33-3.27,0.57-4.9c0.05-0.33,0.1-0.66,0.17-0.98c0.02-0.1,0.1-0.27,0.09-0.38c-0.03-0.34,0.23-0.05-0.06-0.07
				c-0.18-0.01-0.15,0.22-0.19,0.19c0.02,0.02,0.19-0.06,0.23-0.05c0.19,0.02,0.49-0.08,0.68-0.1c2.95-0.36,6.22-0.57,9.16-0.1
				c-0.24-0.32-0.49-0.64-0.73-0.96c-0.06,1.44-0.12,2.89-0.12,4.34c0,0.66,0.01,1.32,0.04,1.97c0.02,0.6-0.07,1.44,0.18,1.99
				c0.39,0.86,2.09,1.39,2.92,1.76c1.15,0.5,2.34,0.89,3.54,1.26c0.33,0.1,0.73-0.01,0.97-0.26c1.49-1.57,3.18-2.97,4.91-4.26
				c-0.34,0-0.67,0-1.01,0c2.71,2.08,5.01,4.88,7.29,7.4c0-0.47,0-0.94,0-1.41c-1.75,1.48-3.51,2.96-5.26,4.44
				c-0.26,0.22-0.36,0.66-0.26,0.97c0.74,2.4,1.49,4.8,2.23,7.19c0.17,0.55,0.68,0.8,1.23,0.7c1.84-0.36,4.24-0.99,6.08-0.49
				c-0.23-0.41-0.47-0.82-0.7-1.23c-0.46,3.34-0.24,6.7-0.27,10.06c0.33-0.33,0.67-0.67,1-1c-2.15,0.05-4.3-0.2-6.43,0.17
				c-0.33,0.06-0.62,0.39-0.7,0.7c-0.5,2.07-1.39,3.89-2.44,5.73c-0.21,0.36-0.18,0.92,0.16,1.21c1.58,1.39,3.32,2.58,4.9,3.96
				c0-0.47,0-0.94,0-1.41c-2.85,2.4-5.3,5.3-7.42,8.36c0.52-0.07,1.05-0.13,1.57-0.2c-1.52-1.53-2.89-3.19-4.34-4.78
				c-0.23-0.25-0.65-0.37-0.97-0.26c-2.15,0.73-4.25,1.68-6.28,2.7c-0.37,0.19-0.6,0.73-0.46,1.13c0.63,1.84,0.4,3.88,0.73,5.79
				c0.23-0.41,0.47-0.82,0.7-1.23c-3.71,0.52-7.48,0.14-11.2,0.66c0.42,0.32,0.84,0.64,1.27,0.96c0.26-2.12-0.32-4.45,0.44-6.49
				c0.2-0.53-0.23-1.06-0.7-1.23c-2.39-0.85-4.64-2.04-7.03-2.89c-0.31-0.11-0.75,0.01-0.97,0.26c-1.49,1.69-3.36,3.04-4.59,4.96
				c0.52-0.07,1.05-0.13,1.57-0.2c-2.16-2.09-4.37-4.15-6.44-6.33c-0.15-0.16-0.6-0.76-0.73-0.79c-0.13-0.03-0.27,0.7,0.05,0.57
				c0.12-0.05,0.28-0.27,0.37-0.36c0.84-0.77,1.77-1.44,2.68-2.13c0.54-0.41,1.44-0.88,1.78-1.51c0.33-0.6-0.06-1.15-0.33-1.69
				c-0.42-0.85-0.79-1.73-1.18-2.6c-0.34-0.78-0.66-1.82-1.18-2.5c-0.47-0.61-1.18-0.52-1.88-0.53c-2-0.02-4.01,0.17-6,0.27
				c0.33,0.33,0.67,0.67,1,1c-0.15-3.5-0.04-6.97,0.3-10.45c-0.33,0.33-0.67,0.67-1,1c1.91,0.03,3.8,0.42,5.71,0.45
				c0.43,0.01,0.86-0.31,0.96-0.73c0.58-2.33,1.41-4.59,2.41-6.78c0.19-0.41,0.18-0.87-0.16-1.21c-1.49-1.53-3.15-2.84-4.99-3.93
				c0.07,0.52,0.13,1.05,0.2,1.57c2.45-2.78,4.9-5.55,7.36-8.33c-0.47,0-0.94,0-1.41,0c1.78,1.44,3.36,3.07,4.72,4.92
				c0.42,0.57,1.02,0.63,1.57,0.2c1.52-1.18,3.14-2.21,4.83-3.13C122.63,68.45,121.62,66.72,120.49,67.34L120.49,67.34z"/>
		</g>
	</g>
	<g>
		<g>
			<path d="M137.71,82.31c-2.53-3.95-6.97-6.66-11.76-5.94c-4.99,0.75-8.45,5.51-9.73,10.09c-0.8,2.85-0.95,6.03,0.21,8.8
				c1.08,2.58,3.24,4.61,5.79,5.73c4.57,2,10.24,0.99,13.86-2.44c4.27-4.05,4.91-11.06,1.75-15.96c-0.7-1.08-2.43-0.08-1.73,1.01
				c2.34,3.62,2.3,8.52-0.18,12.08c-2.45,3.52-7.23,5.06-11.33,4.03c-2.2-0.56-4.25-1.88-5.54-3.77c-1.47-2.16-1.71-4.86-1.26-7.38
				c0.73-4.1,3.28-8.77,7.56-10.01c4.2-1.22,8.42,1.3,10.64,4.77C136.67,84.4,138.41,83.4,137.71,82.31L137.71,82.31z"/>
		</g>
	</g>
	<g>
		<g>
			<path d="M96.68,48.78c-1.74,3.99-4.6,7.3-8.34,9.54c-0.81,0.49-0.52,1.93,0.5,1.86c6.6-0.42,12.83-3.29,17.39-8.09
				c-0.32,0.09-0.65,0.17-0.97,0.26c10.53,3.26,22.76,2.89,31.71-4.18c6.19-4.89,10.05-13.39,6.17-20.9
				c-2.47-4.79-7.39-8.74-12.19-11.01c-4.61-2.19-9.73-3.09-14.82-2.91c-7.93,0.27-15.98,2.68-21.87,8.17
				c-3.74,3.48-6.56,8.19-6.88,13.38c-0.31,4.99,2.07,9.64,5.91,12.75c1.16,0.94,2.41,1.75,3.73,2.45c1.13,0.61,2.15-1.12,1.01-1.73
				c-4.34-2.32-8.05-6.08-8.6-11.18c-0.5-4.6,1.54-9.1,4.54-12.5c5.01-5.69,12.14-8.39,19.52-9.16c4.43-0.46,8.95-0.17,13.21,1.19
				c5.2,1.65,9.7,4.92,13.12,9.15c4.9,6.05,2.94,13.96-2.25,19.13c-8.29,8.25-21.17,8.72-31.77,5.44c-0.33-0.1-0.73,0.01-0.97,0.26
				c-4.19,4.41-9.9,7.12-15.98,7.51c0.17,0.62,0.34,1.24,0.5,1.86c4.01-2.4,7.19-5.97,9.05-10.26
				C98.91,48.62,97.19,47.6,96.68,48.78L96.68,48.78z"/>
		</g>
	</g>
	<circle class="st4" cx="105.17" cy="33.53" r="2.31"/>
	<circle class="st4" cx="105.17" cy="33.53" r="2.31"/>
	<circle class="st4" cx="116.58" cy="33.53" r="2.31"/>
	<circle class="st4" cx="127.7" cy="33.53" r="2.31"/>
	<ellipse class="st5" cx="51.86" cy="66.67" rx="1.25" ry="2.62"/>
	<ellipse class="st5" cx="60.61" cy="66.67" rx="1.25" ry="2.62"/>
	<ellipse class="st6" cx="52.45" cy="65.17" rx="0.58" ry="0.5"/>
	<ellipse class="st6" cx="60.95" cy="65.17" rx="0.58" ry="0.5"/>
</g>
</svg>
