<?xml version="1.0" encoding="utf-8"?>
<!-- Generator: Adobe Adobe Illustrator 24.2.0, SVG Export Plug-In . SVG Version: 6.00 Build 0)  -->
<svg version="1.1" id="Ebene_1" xmlns="http://www.w3.org/2000/svg" xmlns:xlink="http://www.w3.org/1999/xlink" x="0px" y="0px"
	 viewBox="0 0 1700.79 1700.79" style="enable-background:new 0 0 1700.79 1700.79;"
	 xml:space="preserve">
<style type="text/css">
	.st0{fill:#EDA9BD;}
	.st1{fill:#FFFFFF;}
	.st2{opacity:0.2392;enable-background:new    ;}
	.st3{fill:none;stroke:#000000;stroke-width:11.5156;stroke-linecap:round;stroke-linejoin:round;stroke-miterlimit:10;}
	.st4{stroke:#000000;stroke-width:11.5156;stroke-linecap:round;stroke-linejoin:round;stroke-miterlimit:10;}
	.st5{fill:#E3527D;}
	.st6{opacity:0.0784;enable-background:new    ;}
	.st7{fill:#ADBECF;}
	.st8{fill:#F3C057;}
	.st9{fill:#F7D98D;}
	.st10{fill:#AEBFCE;}
	.st11{opacity:0.2706;}
	.st12{fill:#3D4C5B;}
	.st13{opacity:0.149;}
	.st14{fill:#D15238;}
	.st15{fill:#D15239;}
</style>
<g id="Ebene_6">
	<ellipse class="st0" cx="988" cy="630.54" rx="33.58" ry="34.71"/>
	<ellipse class="st0" cx="988" cy="630.54" rx="33.58" ry="34.71"/>
	<ellipse class="st0" cx="763.11" cy="631.32" rx="33.58" ry="34.71"/>
</g>
<g id="Ebene_15">
	<path class="st1" d="M868.46,412.12c-16.77-6.22-34.89-8.21-52.65-6.62c-52.88,4.69-100.6,41.81-124.84,90.64
		c-24.24,48.83-26.29,107.63-11.24,160.27c8.08,28.22,21.21,55.49,41.74,75.88c14.71,14.61,32.63,25.19,50.34,35.63
		c17.66,10.39,35.58,20.91,55.31,25.96c24.39,6.27,50.06,3.81,74.81-0.72c33.63-6.15,67.33-16.44,95.1-36.98
		c39.79-29.43,64.14-79.04,66.42-129.57s-16.74-101.19-49.34-138.91C981.53,449.95,933.16,436.11,868.46,412.12z"/>
	<path class="st1" d="M785.51,779.28c-12.41,23.36-19.61,49.22-26.72,74.84c-26.46,95.43-53.03,191.4-63.57,290.09
		c-1.79,16.82-2.89,34.86,5.1,49.61c7.25,13.38,21.07,21.87,35.42,25.75s29.4,3.71,44.22,3.52c45.27-0.59,90.53-1.18,135.8-1.77
		c32.38-0.43,64.9-0.85,96.9-6.02c12.74-2.06,26.29-5.38,34.86-15.34c7.71-8.96,9.88-21.61,10.52-33.58
		c1.59-29.85-4.33-59.53-10.6-88.71c-22.86-106.52-50.77-211.88-83.54-315.59"/>
	<path class="st1" d="M662.82,1075.94c19.14-18.21,35.75-39.26,49.16-62.31c-11.03-7.23-23.83-11.5-36.85-12.32
		c-11.44-0.72-23.65,1.54-32.25,9.37c-10.04,9.14-13.25,24.78-9.49,38.06C637.15,1062.04,647.05,1072.88,662.82,1075.94z"/>
	<path class="st1" d="M717.48,1615.6c-2.63-23.38-1.99-47.49,5.1-69.85s21.06-42.91,40.79-54.65c19.73-11.74,45.38-13.64,65.26-2.19
		c18.09,10.42,29.59,30.38,34.84,51.08c5.25,20.71,5.04,42.43,4.79,63.86C818.6,1597.91,767.79,1602.41,717.48,1615.6z"/>
	<path class="st1" d="M860.95,1532.24c17.23-36.44,50.73-67.95,89.96-68.69c30.13-0.57,59.09,17.8,75.37,44.03
		s20.6,59.26,15.35,89.95c-56.77-1.11-113.55-2.21-170.32-3.32C872.02,1574.36,868.46,1554.35,860.95,1532.24z"/>
</g>
<g id="Ebene_11">
	<path class="st1" d="M1045.49,1021.4c12.16,23.62,26.16,46.21,41.84,67.49c12.74-7.57,20.99-22.61,20.76-37.8
		c-0.23-15.2-8.95-29.95-21.93-37.1C1073.2,1006.85,1056.51,1007.58,1045.49,1021.4z"/>
</g>
<g id="Ebene_12">
	<path class="st2" d="M1069.24,1058.47c9.77-11.04,19.53-22.1,29.31-33.14c-11.29-8.39-25.42-12.61-39.29-11.71
		c-3.64,0.23-7.52,0.93-10.14,3.53c-5.4,5.33-2.38,14.98,2.71,20.63C1056.9,1043.41,1063.81,1047.61,1069.24,1058.47z"/>
</g>
<g id="Ebene_2_1_">
	<path class="st3" d="M870.33,413.52c-22.04-10.75-39.57-10.49-59.46-5.43c-57.2,14.53-106.29,59.07-128.43,115.5
		c-22.14,56.43-17.07,123.34,12.59,175.94c29.66,52.61,83.07,90.02,141.2,99.81c58.13,9.8,119.91-7.9,165.43-46.57
		c25.77-21.9,46.7-50.74,56.17-83.82c10.93-38.18,6.02-79.87-7.91-116.99C1018.43,468.19,938.99,405.9,870.33,413.52z"/>
	<path class="st4" d="M847.95,574.14c1.3-11.4,1.49-22.95,0.61-34.4c-0.39-5.07-2.56-11.61-7.48-11.34c-4.2,0.23-6.19,5.4-7.01,9.65
		c-2.84,14.72-3.73,29.84-2.63,44.8c0.31,4.19,1.3,9.14,5.06,10.75c3.5,1.49,7.63-1.08,9.34-4.56
		C847.54,585.54,847.13,581.42,847.95,574.14z"/>
	<path class="st4" d="M894.69,575.86c1.94-10.68,2.48-21.62,1.61-32.45c-0.3-3.75-1.61-8.39-5.22-8.85
		c-3.92-0.49-6.19,4.45-6.99,8.44c-3.05,15.03-3.53,30.61-1.43,45.82c0.26,1.9,0.76,4.09,2.45,4.91c2.79,1.39,5.53-2.31,5.91-5.5
		C891.39,585.03,893.49,582.38,894.69,575.86z"/>
	<path class="st3" d="M782.02,782.47c-46.92,25.21-90.14,57.78-127.73,96.23c-9.27,9.49-18.81,20.87-18.43,34.35
		c0.25,9.24,5.2,17.58,10.24,25.22c18.22,27.61,39.85,52.84,64.17,74.85c-19.2,20.91-34.99,45.18-46.48,71.47
		c-23.77-6.44-36.68-39.03-24.14-60.85c12.54-21.84,46.4-25.7,63.24-7.2"/>
	<path class="st3" d="M717.69,1618.18c-4.55-23.83-4.66-48.93,2.53-72.07c7.19-23.13,22.12-44.15,42.82-55.65
		c20.7-11.5,47.22-12.46,67.42-0.05c18.42,11.3,29.87,32.11,35.01,53.6s4.69,43.94,4.22,66.07
		C820.29,1602.17,769.11,1606.16,717.69,1618.18z"/>
	<path class="st3" d="M713.92,1594.53c49.9-7.54,100.33-11.17,150.75-10.85"/>
	<path class="st3" d="M774.97,1512.69c13.97-0.67,27.92-1.36,41.89-2.03"/>
	<path class="st3" d="M773.51,1536.72c15.26-2.75,30.84-3.7,46.32-2.85"/>
	<path class="st3" d="M864.92,1524.65c9.13-31.41,35.85-56.6,66.92-63.12c31.07-6.53,65.19,5.94,85.41,31.19
		c22.76,28.41,26.72,67.67,29.74,104.44c-58.3-1.67-116.65-2.04-174.96-1.11"/>
	<path class="st3" d="M870.58,1578.73c56.67-1.47,113.35-2.96,170.02-4.43"/>
	<path class="st3" d="M970.95,1525.17c14.46-10.68,28.92-21.38,43.4-32.06"/>
	<path class="st3" d="M989.84,1545.8c11.34-11.03,23.55-21.09,36.47-30.07"/>
	<path class="st3" d="M965.02,1225.3c-0.34,77.78-0.69,155.58-1.05,233.36"/>
	<path class="st3" d="M805.81,1228.9c-4.4,81.98-3.15,164.3,3.76,246.12"/>
	<path class="st3" d="M786.38,786.33c-40.39,120.07-81.13,241.63-91.9,368.26c-1.48,17.29-1.82,36.48,8.88,49.84
		c12.21,15.23,33.81,16.96,52.95,17.52c86.3,2.49,172.86,4.96,258.8-3.68c16.1-1.62,34.06-4.71,43.63-18.19
		c9.44-13.28,7.14-31.59,4.25-47.78c-22.54-126.35-55.56-250.7-91.65-371.99c50.01,47.65,98.72,96.74,146.09,147.19
		c6.01,6.4,12.49,14.48,10.55,23.16c-1.43,6.41-7.01,10.76-12.21,14.54c-24.98,18.17-49.94,36.35-74.93,54.5
		c13.85,23.73,27.69,47.47,41.54,71.19c21.17-8.96,31.56-38.23,21.04-59.23c-10.52-21-39.64-29.1-58.94-16.39"/>
</g>
<g id="Ebene_9">
	<path d="M1098.48,817.98c3.33-2.03,6.65-4.06,9.98-6.1"/>
	<path d="M777.16,641.65c-1.46,38.06,13.95,76.49,41.03,102.32c7.09-13.95,19.84-24.72,34.5-29.12c14.64-4.4,30.99-2.36,44.22,5.51
		c2.91-15,16.94-25.52,31.43-28.61c14.49-3.09,29.46-0.28,44,2.55c4.92-19.43,7.29-39.55,7.04-59.66
		C918.16,666.97,842.45,668.19,777.16,641.65z"/>
</g>
<g id="Ebene_10">
	<path class="st5" d="M826.38,746.71c3.02-15.77,14.66-29.46,29.38-34.6c14.72-5.14,32.01-1.5,43.64,9.18
		c2.69-14.46,16.91-24.19,31.05-26.03c14.13-1.83,28.26,2.49,41.9,6.76c-10.23,28.04-33.53,50.61-61.27,59.33
		C883.38,770.07,851.85,764.72,826.38,746.71z"/>
</g>
<g id="Ebene_7">
	<path class="st3" d="M775.58,634.51c62.75,32.45,140.76,31.19,202.5-3.24c-0.07,20.79-0.13,41.79-4.55,62.08
		c-4.42,20.28-13.61,40.09-29.07,53.39c-14.49,12.46-33.52,18.3-52.34,19.35c-32.14,1.77-64.95-10.29-88.12-33.37
		C780.82,709.64,767.85,675.75,775.58,634.51z"/>
	<path class="st3" d="M821.54,747.69c2.87-16.34,14.95-30.59,30.23-35.68c15.28-5.1,33.14-0.82,44.71,10.7
		c-1.66-6.31,0.71-13.25,4.91-18.14s10.03-8,15.99-10.19c17.2-6.33,36.72-5.71,53.51,1.73"/>
</g>
<g id="Ebene_8">
	<path class="st6" d="M779.03,788.9c-50.95,107.31-69.02,227.6-86.46,345.78c-3.61,24.52-6.32,52.59,9.49,71.25
		c15.77,18.65,43,19.65,66.95,19.22c57.12-1,114.23-2,171.34-2.99c29.07-0.51,58.2-1.01,87.12-4.12
		c10.08-1.08,20.42-2.57,29.28-7.67c8.86-5.1,16.04-14.61,15.72-25.09c-0.34-11.79-10.04-21.51-20.84-25.34
		c-10.8-3.83-22.54-3.04-33.93-2.27c-64.6,4.35-129.32,6.56-194.05,6.62c-26.28,0.02-56.81-2.54-71.61-24.98
		c-11.19-17-9.09-39.52-6.14-59.85c14-96.72,36.67-191.84,59.3-286.8C799.32,789.91,793.44,787.2,779.03,788.9z"/>
	<path class="st6" d="M645.51,1016.37c-14.03,17.31-13.56,45.33,1.03,62.11c3.18,3.66,8.01,7.02,12.42,5.17
		c2.43-1.01,4.04-3.37,5.5-5.61c3.17-4.81,6.34-9.62,9.5-14.43c3.36-5.1,6.84-10.57,7.12-16.75c0.34-7.95-4.91-15.25-11.46-19.4
		C663.07,1023.3,655.34,1021.7,645.51,1016.37z"/>
	<path class="st6" d="M808.62,1489.76c-15.58-11.5-37.88-10.11-54.16,0.28c-16.3,10.37-27.05,28.3-32.79,47.18
		c-5.74,18.88-6.98,38.85-7.89,58.63c-0.31,6.76-0.11,14.66,5.14,18.68c4.38,3.39,10.55,2.54,15.77,0.87
		c23.5-7.51,41.39-28.12,51.9-51.12C797.08,1541.27,801.22,1515.8,808.62,1489.76z"/>
	<path class="st6" d="M862.67,1526.27c8.99-28.81,32.17-52.43,60.15-61.32c6.37-2.03,13.11-3.32,19.68-2.13
		c6.55,1.19,12.9,5.27,15.58,11.56c2.68,6.31,1.36,13.59-0.02,20.33c-4.45,21.76-9.01,43.48-13.7,65.17
		c-2.33,10.78-5.09,22.26-13,29.69c-7.75,7.25-18.78,9.05-29.13,10.53c-7.24,1.03-15.2,1.91-21.32-2.21
		c-8.09-5.45-9.39-17.01-9.42-26.99C871.47,1560.9,871.42,1549.63,862.67,1526.27z"/>
	<path class="st6" d="M799.58,415.35c-50.29,21-75.43,79.14-88.33,133.61c-9.36,39.5-14.77,81.8-2.1,120.31
		c18.6,56.52,74.63,94.04,131.99,100.99c57.35,6.95,115.17-12.43,165.62-41.47c5.02-2.9,11.36-5.87,16.17-2.58
		c7.85,5.37,1.02,17.91-6.32,24.03c-59.71,49.81-144.75,66.61-216.83,39.45c-72.09-27.15-127.53-98.77-133.78-177.82
		C659.72,532.8,705.09,451.15,799.58,415.35z"/>
</g>
<g id="Ebene_13">
	<ellipse class="st1" cx="845.9" cy="537.42" rx="6.91" ry="7.31"/>
	<ellipse class="st1" cx="892.46" cy="544.73" rx="6.91" ry="7.31"/>
</g>
<g>
	<g id="Ebene_7_2_">
		<g>
			<path class="st7" d="M392.43,654.21c-3.95,7.83,3.17,17.82,12.15,17.05c1.29,33.38,31.77,61.81,67.15,62.63
				c11.23,0.26,22.92-2.05,32.65-8.02c17.94-11.01,26.11-33.01,23.72-52.34c-0.91-7.38-3.13-14.49-5.34-21.55
				c-4.7-15.06-9.4-30.1-14.1-45.16c-1.3-4.18-2.7-8.53-5.82-11.67c-6.5-6.54-17.94-5.7-27.63-3.61
				c-23.72,5.1-46.6,14.89-66.67,28.55c-5.73,3.9-11.36,8.24-15.06,13.9c-3.69,5.67-5.17,12.94-2.2,18.58"/>
			<g>
				<path class="st7" d="M390.98,652.5c-4.42,9.31,1.29,22.59,13.12,21.81c-0.51-0.8-1.01-1.61-1.52-2.41
					c1.05,23.92,15.75,45.4,37.26,56.75c23.15,12.23,57.3,12.29,76.49-9.82c8.86-10.19,13.31-23.24,14.06-35.9
					c0.93-15.69-5.14-30.55-9.67-45.06c-2.51-8.04-5.02-16.08-7.53-24.11c-1.23-3.96-2.4-7.96-3.74-11.88
					c-1.18-3.47-2.75-6.97-5.45-9.57c-9.59-9.29-26.55-4.75-38.64-1.47c-16.9,4.6-33.2,11.59-48.25,20.58
					c-13.05,7.81-28.44,17.88-29.4,33.63c-0.2,3.33,0.35,6.6,1.83,9.54c0.59,1.18,1.82,1.24,2.76,0.21
					c0.98-1.09,1.28-3.14,0.67-4.38c-6.32-12.74,10.47-24.12,20.33-30.43c13.83-8.87,28.9-15.9,44.57-20.87
					c7.17-2.28,14.54-4.33,21.95-5.47c5.68-0.89,12.09-1.14,17.25,1.13c6.77,2.99,8.53,9.76,10.52,16.08
					c2.31,7.4,4.62,14.8,6.94,22.19c2.34,7.5,4.7,14.98,7.02,22.48c2.11,6.8,4.23,13.77,4.81,20.97
					c0.89,11.17-1.76,22.98-8.34,32.85c-15.1,22.68-46.83,25.73-69.72,16.43c-20.6-8.37-36.72-26.17-40.77-47.41
					c-0.5-2.59-0.79-5.19-0.89-7.84c-0.04-0.73-0.38-2.5-1.52-2.41c-3.83,0.24-7.17-1.31-9.42-4.04c-1.81-2.19-3.09-5.38-1.74-8.22
					c0.6-1.26,0.97-3.21-0.05-4.29C392.86,650.6,391.51,651.39,390.98,652.5L390.98,652.5z"/>
			</g>
		</g>
		<g>
			<g>
				<path class="st7" d="M492.51,738.58c2.37-1.03,2.47-7.17-0.12-6.04C490.02,733.57,489.92,739.71,492.51,738.58L492.51,738.58z"
					/>
			</g>
		</g>
		<g>
			<g>
				<path class="st7" d="M489.24,741.49c3.67,3.12,9.2,3.76,13.63,0.81c4.62-3.08,6.47-8.97,5.48-13.81
					c-0.14-0.68-0.93-2.15-1.98-1.58c-4.9,2.59-9.77,5.19-14.67,7.79c-1.39,0.74-1.99,2.28-1.94,3.69c0.03,0.78,0.66,3.08,2.07,2.34
					c4.9-2.59,9.77-5.19,14.67-7.79c-0.66-0.54-1.32-1.05-1.98-1.58c1.29,6.33-8.61,8.27-12.49,4.96
					C489.58,734.23,487.47,739.98,489.24,741.49L489.24,741.49z"/>
			</g>
		</g>
	</g>
	<g id="Ebene_5_1_">
		<g>
			<path class="st8" d="M495.8,583.49c-16.77-38.18-6.75-83.21,5.48-124.59s26.61-84.49,17.85-125.41
				c-11.07-51.74-60.26-90.27-115.73-98.07c-55.46-7.8-114.85,12.47-159.77,47.76c-28.01,22-51.34,50.06-64.03,81.92
				c-12.71,31.84-17.51,74.3-4.36,104.42c18.21,41.76,64.07,61.04,104.92,84.05c40.84,23.02,84.12,47.3,105.37,87.62
				c28.6-30.08,69.22-49.79,110.72-53.69"/>
			<g>
				<path class="st8" d="M497.51,581.42c-14.44-33.19-8.21-71.3,1.21-106.32c9.47-35.24,22.63-70.11,24.83-106.29
					c1.04-17.13-0.71-34.27-6.31-50.26c-5.14-14.69-13.49-28.21-23.98-39.83c-21.14-23.42-51.04-39.61-83.65-45.49
					c-35.29-6.35-73.13-0.68-107.18,12.92c-34.86,13.94-66.54,36.23-90.93,63.98c-12.15,13.84-22.5,29.16-30.04,45.51
					c-7.44,16.14-12.23,33.23-14.54,50.41c-2.35,17.43-2.29,35.34,2.04,52.09c4.13,16.05,12.7,30.45,24.2,42.48
					c23.8,24.89,57.09,39.54,87.27,56.55c32.07,18.07,65.42,36.59,88.81,64.55c5.6,6.68,10.51,13.85,14.56,21.5
					c0.64,1.19,1.76,1.26,2.76,0.21c22.03-23.07,51.13-39.87,82.28-48.07c8.86-2.33,17.86-3.95,26.92-4.83
					c2.76-0.27,3.47-6.41,0.95-6.17c-32.8,3.18-64.93,15.79-91.3,35.8c-7.5,5.69-14.48,11.96-20.92,18.7
					c0.92,0.07,1.83,0.15,2.76,0.21c-16.7-31.46-46.48-53.37-77.27-71.87c-15.38-9.25-31.15-17.99-47-26.56
					c-15.36-8.3-30.81-16.6-44.98-26.58c-13.61-9.58-26.03-20.9-34.77-34.77c-8.84-14.02-12.95-30.06-13.66-46.7
					c-1.44-33.85,8.82-69.02,28.89-98.43c20.37-29.86,49.56-54.83,82.33-71.98c32.45-16.96,69.16-26.73,105.27-25.25
					c33.7,1.37,65.65,13.17,90.41,33.53c24.69,20.32,40.78,48.68,43.02,80.53c2.46,35.06-9.05,70.14-19.15,104.17
					c-10.27,34.57-19.61,71.1-13.47,106.19c1.45,8.32,3.87,16.45,7.23,24.17c0.53,1.23,1.86,1.21,2.76,0.21
					C497.86,584.66,498.07,582.69,497.51,581.42L497.51,581.42z"/>
			</g>
		</g>
	</g>
	<g id="Ebene_6_2_">
		<g>
			<path class="st9" d="M439.1,292.03c-31-16.7-78.6-27.45-114.88-18.58c-36.27,8.89-79.31,48.98-97.48,80.43
				c-25.11,43.47-6.85,104.04,25.99,139.01c28.42,30.27,79.34,25.63,122.13,12.38c42.79-13.25,90.07-40.59,101.33-81.61
				c11.26-41.01-7.88-101.89-37.04-131.53"/>
			<g>
				<path class="st9" d="M440.09,289.1c-13.05-6.99-27.24-12.22-41.86-15.95c-15.24-3.9-31.17-6.2-47.25-5.94
					c-13.93,0.22-27.89,2.46-40.92,8.08c-13.07,5.64-25.13,13.6-36.16,22.43c-11.63,9.31-22.36,19.76-31.84,31.03
					c-8.36,9.94-16.16,20.71-21.2,32.41c-10.21,23.71-9.57,49.97-3.1,73.51c3.34,12.17,8.22,23.87,14.5,34.79
					c6.04,10.49,13.26,20.85,22.29,29.21c18.37,16.99,45.09,21.46,70.89,19.52c27.06-2.05,54.5-9.82,79.33-21.31
					c24.77-11.44,48.72-27.64,63.3-50.36c14.26-22.21,15.3-48.44,11.55-72.55c-3.97-25.5-13.45-50.68-28.47-71.68
					c-3.21-4.5-6.74-8.78-10.62-12.75c-2.21-2.25-4.4,3.53-2.77,5.18c16.86,17.24,27.58,40.04,33.89,62.93
					c3.29,11.95,5.43,24.3,5.78,36.84c0.31,11.23-0.76,22.78-4.72,33.69c-8.63,23.76-30.07,41.83-52.37,54.6
					c-23.15,13.25-49.31,22.17-75.43,26.84c-24.76,4.42-52.01,4.82-73.79-6.54c-10.77-5.62-18.84-14.04-25.9-23.39
					c-7.27-9.62-13.22-20.16-17.86-31.24c-9.04-21.65-13.34-46.22-8.06-70.02c2.51-11.26,7.62-21.71,14.36-31.47
					c7.71-11.14,16.85-21.53,26.79-31.01c19.34-18.43,43.22-36.03,70.31-40.81c14.93-2.64,30.23-2.13,44.89-0.08
					c15.24,2.12,30.09,6.04,44.14,11.52c6.3,2.46,12.43,5.24,18.33,8.41C440.6,296.29,442.25,290.26,440.09,289.1L440.09,289.1z"/>
			</g>
		</g>
	</g>
	<g id="Ebene_3_1_">
		<g>
			<g>
				<path d="M501.05,589.58c-5.35-17.72-7.59-36.22-7.26-54.95c0.32-18.32,3.01-36.68,6.57-54.86c3.68-18.71,7.99-37.28,13.95-55.6
					c5.78-17.77,12.27-35.76,13.78-54.18c2.69-32.44-9.32-63.9-29.95-88.23c-20.73-24.47-50.1-42.05-83.09-48.97
					c-35.24-7.39-73.25-3.16-108.01,9.29c-35.33,12.65-67.5,33.78-92.91,60.71c-25.69,27.23-44.42,60.96-49.55,96.47
					c-5.21,36.01,3.15,73.8,27.03,101.02c12.1,13.79,27.73,24.26,43.91,33.49c16.25,9.28,33.07,17.67,49.12,27.24
					c29.61,17.63,56.65,38.15,80.64,62.13c6.67,6.67,13.11,13.51,19.4,20.5c2.09,2.31,4.32-3.47,2.77-5.18
					c-23.07-25.62-48.52-49.03-77.59-68.62c-14.36-9.69-29.37-18.58-44.73-26.88c-16.32-8.84-33.03-17.24-48.09-27.85
					c-14.87-10.49-27.47-23.4-35.98-39.16c-8.29-15.37-12.86-32.58-13.79-50.16c-1.85-35,10.98-69.86,32.89-99.31
					c21.66-29.11,51.38-53.13,84.82-69.11c33-15.77,69.93-24.1,105.83-21.61c34.17,2.38,65.96,15.13,90.34,36.7
					c23.25,20.57,39.9,48.7,42.81,79.72c1.63,17.29-1.84,34.21-7.08,51.13c-2.77,9.02-5.89,17.96-8.69,26.97
					c-2.74,8.84-4.89,17.76-6.94,26.72c-8.27,36.12-14.71,73.05-9.76,109.26c1.22,8.87,3.12,17.6,5.68,26.14
					C498.37,596.25,501.82,592.12,501.05,589.58L501.05,589.58z"/>
			</g>
		</g>
		<g>
			<g>
				<path d="M388.74,652.42c2.86,2.35,7.24,2.58,10.98,2.36c6.2-0.37,12.4-1.96,18.36-3.78c18.41-5.66,36.04-14.19,53.1-23.08
					c5.24-2.74,10.45-5.55,15.62-8.41c4.77-2.64,10.17-5.09,14.27-8.67c3.38-2.92,6.07-6.66,6.73-10.93
					c0.7-4.48-1.23-8.66-5.25-10.83c-4.27-2.29-9.83-2.55-14.78-2.41c-5.6,0.17-11.22,1.15-16.7,2.53
					c-11.69,2.94-23.13,7.39-34.04,12.56c-12.22,5.8-23.9,12.73-34.74,20.74c-5.01,3.69-10.92,7.61-14.43,12.72
					c-3.13,4.57-4.15,10.86-0.62,15.09c0.93,1.12,2.27,0.08,2.84-0.9c0.71-1.24,0.85-3.18-0.05-4.29c-2.94-3.53,1.58-7.7,4.43-10.11
					c4.15-3.51,8.56-6.8,13.04-9.94c9.14-6.41,18.82-12.07,28.92-16.92c9.67-4.64,19.7-8.57,29.97-11.59
					c9.56-2.82,20.18-5.02,29.87-3.1c3.06,0.61,8.33,2.49,7.64,6.34c-0.58,3.33-4.51,6.28-7.33,8.01
					c-9.13,5.62-18.76,10.61-28.3,15.52c-15.58,8.01-31.64,15.63-48.35,21.01c-5.97,1.93-12.19,3.7-18.42,4.21
					c-3.78,0.31-7.98,0.33-10.83-1.99c-1.14-0.94-2.44,1.18-2.72,1.98C387.48,649.91,387.62,651.49,388.74,652.42L388.74,652.42z"/>
			</g>
		</g>
		<g>
			<g>
				<path d="M390.98,650.28c-6.93,8.45-3.23,20.65,6.37,24.47c12,4.77,25.39-1.65,36.69-6.72c13.34-5.97,26.32-12.74,39.13-19.75
					c6.52-3.58,12.99-7.22,19.46-10.88c5.27-2.98,10.73-5.86,14.87-10.27c4.03-4.28,5.53-9.5,4.96-14.93
					c-0.47-4.43-2.29-9.94-6.96-11.75c-2.71-1.05-4.21,4.99-1.94,5.87c3.2,1.23,4.58,4.62,4.94,7.72c0.43,3.72-0.93,6.48-3.84,9.25
					c-3.78,3.59-8.65,6.04-13.17,8.61c-5.45,3.09-10.91,6.15-16.4,9.18c-11.05,6.09-22.22,12.01-33.63,17.42
					c-5.46,2.59-10.99,5.09-16.59,7.38c-5.27,2.16-10.86,4.16-16.54,4.34c-5.18,0.17-10.77-1.05-14.21-4.71
					c-2.67-2.84-3.85-7.25-1.06-10.67c0.94-1.17,1.32-3.09,0.67-4.38C393.16,649.33,391.9,649.16,390.98,650.28L390.98,650.28z"/>
			</g>
		</g>
		<g>
			<g>
				<path d="M398.65,675.36c0.03,4.74,1.27,9.51,3.18,13.77c1.82,4.06,4.41,7.48,8.96,9c12.13,4.04,24.76-4.87,35.18-10.54
					c12.59-6.84,25.18-13.7,37.77-20.54c6.17-3.35,12.33-6.72,18.51-10.07c5.08-2.76,10.83-5.34,14.58-9.8
					c8.26-9.79,0.91-21.4-6.34-28.44c-2.28-2.21-4.46,3.56-2.77,5.18c3.02,2.91,5.83,6.18,7.57,9.97c1.66,3.61,1.68,6.76-1.61,9.84
					c-3.74,3.5-8.87,5.74-13.35,8.18c-5.65,3.07-11.31,6.15-16.96,9.22c-11.05,6.01-22.09,12.02-33.14,18.03
					c-5.57,3.03-11.11,6.18-16.76,9.08c-4.96,2.54-10.36,4.85-15.97,4.72c-4.9-0.11-9.02-1.94-11.27-5.98
					c-2.16-3.86-3.56-8.46-3.6-12.96c0-1.08-0.6-2.74-2.07-2.34C399.13,672.06,398.63,674.23,398.65,675.36L398.65,675.36z"/>
			</g>
		</g>
		<g>
			<g>
				<path d="M411.13,694.54c-2.1,7.99,2.2,17.01,8.49,21.83c8.67,6.63,21.57-1.56,29.86-6.19c12.98-7.23,25.97-14.47,38.95-21.69
					c6.43-3.58,12.86-7.17,19.28-10.74c5.22-2.9,10.8-5.62,15.09-9.78c4.46-4.3,6.58-9.78,5.33-15.47
					c-1.19-5.39-4.59-10.29-8.78-13.9c-2.42-2.1-4.54,3.67-2.77,5.18c3.24,2.8,6.1,6.34,7.42,10.4c0.44,1.37,0.82,2.98,0.31,4.45
					c-0.7,2-2.44,3.8-4.08,5.2c-4.05,3.46-9.01,5.88-13.66,8.45c-5.52,3.08-11.06,6.16-16.58,9.24
					c-11.19,6.23-22.37,12.45-33.56,18.69c-5.38,2.99-10.68,6.21-16.23,8.88c-4.39,2.12-10.08,4.42-14.92,3.34
					c-3.49-0.78-6.13-3.96-7.85-6.69c-1.53-2.46-3.5-6.56-2.79-9.25c0.3-1.19,0.55-3.23-0.78-3.89
					C412.59,691.93,411.42,693.52,411.13,694.54L411.13,694.54z"/>
			</g>
		</g>
		<g>
			<g>
				<path d="M426.01,716.63c-2.67,7.89,3.54,16.3,12.26,15.9c5.32-0.25,10.31-2.59,15.18-4.68c5.76-2.48,11.54-4.96,17.31-7.44
					c11.54-4.96,23.07-9.93,34.61-14.89c9.89-4.26,21.33-8.08,27.25-17.46c2.78-4.43,3.86-9.77,2.53-14.55
					c-1.55-5.55-5.45-9.89-9.96-13.47c-1.15-0.91-2.45,1.17-2.72,1.98c-0.46,1.37-0.37,2.98,0.78,3.89c3.38,2.68,6.7,6.11,8,10.23
					c1.03,3.22,0.11,6.39-2,9.24c-5.67,7.6-16.32,10.81-24.8,14.45c-9.52,4.1-19.05,8.19-28.57,12.29
					c-9.42,4.04-18.76,8.43-28.33,12.12c-4.02,1.56-9.32,3.27-13.29,1.32c-2.27-1.1-5.68-4.2-4.71-7.02
					c0.39-1.16,0.51-3.26-0.78-3.89C427.43,713.99,426.35,715.63,426.01,716.63L426.01,716.63z"/>
			</g>
		</g>
		<g>
			<g>
				<path d="M447.92,730c4.69,5.34,10.74,9.42,18.18,10.76c6.49,1.17,13.38,0.11,19.8-1.77c13.45-3.94,26.27-11.36,33.99-23
					c4.61-6.96,6.65-14.92,5.35-22.75c-0.19-1.18-1.25-2.12-2.5-1.32c-1.31,0.85-1.57,2.91-1.34,4.17
					c1.95,11.74-7.67,22.38-17.58,28.87c-5.17,3.38-10.89,5.74-16.78,7.57c-5.78,1.8-11.79,2.95-17.73,2.34
					c-7.66-0.78-13.87-4.69-18.62-10.08C448.65,722.5,446.4,728.28,447.92,730L447.92,730z"/>
			</g>
		</g>
		<g>
			<path class="st10" d="M485.44,736.9c1.52,4.91,10.26,9.02,16.39,5.58c4.86-2.73,9.88-11.02,8.28-16.31"/>
			<g>
				<path d="M483.74,738.99c2.27,6.44,11.8,10.03,18.41,6.37c6.87-3.81,11.71-13.61,9.88-20.62c-0.3-1.13-1.2-2.16-2.5-1.32
					c-1.24,0.8-1.67,2.96-1.34,4.17c1.15,4.37-3.34,10.76-7.73,12.48c-4.82,1.88-11.7-0.7-13.29-5.24c-0.46-1.3-1.9-1.16-2.76-0.21
					C483.33,735.81,483.27,737.64,483.74,738.99L483.74,738.99z"/>
			</g>
		</g>
	</g>
	<g id="Ebene_8_2_">
		<g class="st11">
			<path class="st12" d="M392.33,634.7c-4.77,3.23-2.72,10.81,2.31,13.07c5.02,2.25,11.17,0.85,16.7-0.73
				c23.68-6.78,46.61-16.5,67.96-28.82c10.08-5.81,20.42-12.9,24.69-23.22c-33.35,21-72.76,46.14-110.17,40.66"/>
			<g>
				<path class="st12" d="M391.76,631.96c-6.32,4.62-4.91,14.45,0.87,18.18c3.43,2.22,8.1,2.11,12.2,1.46
					c5.27-0.84,10.51-2.67,15.61-4.3c21.88-7.03,43.37-16.48,62.98-28.45c9.07-5.54,17.87-12.51,22-22.17
					c0.55-1.29,0.86-6.25-2.02-4.44c-25.92,16.32-53.4,34.52-84.15,39.82c-8.33,1.43-16.77,1.66-24.98,0.49
					c-2.57-0.37-3.62,5.8-0.95,6.17c30.98,4.39,61.81-11.15,88.14-26.74c7.78-4.61,15.43-9.44,23.08-14.26
					c-0.68-1.48-1.34-2.96-2.02-4.44c-3.16,7.39-9.38,12.86-16.17,17.43c-8,5.38-16.7,9.9-25.37,14.15
					c-9.16,4.48-18.54,8.49-28.08,12.02c-4.84,1.79-9.73,3.46-14.65,5.01c-4.34,1.36-8.75,2.83-13.23,3.59
					c-3.84,0.65-8.74,0.68-11.48-2.07c-1.58-1.59-2.98-4.28-0.65-5.99C394.9,635.99,394.48,629.98,391.76,631.96L391.76,631.96z"/>
			</g>
		</g>
		<g class="st11">
			<path class="st12" d="M393.17,657.06c-2.39,5.97,3.18,12.19,9.61,13.26s13.14-1.42,19.36-3.97
				c26.28-10.75,51.87-23.25,76.47-37.38c6.32-3.62,13.52-9.08,12.51-15.75c-14.95,13.23-88.48,59.97-118.4,42.34"/>
			<g>
				<path class="st12" d="M391.43,656.09c-2.88,7.94,2.64,15.87,10.89,17.32c4.75,0.84,9.87-0.36,14.45-1.95
					c5.41-1.87,10.69-4.24,15.96-6.51c22.24-9.56,43.93-20.38,64.92-32.36c8.2-4.69,16.55-11.02,15.38-20.8
					c-0.13-1.03-1.36-2.32-2.5-1.32c-4.5,3.96-9.52,7.4-14.52,10.74c-7.51,5.02-15.29,9.68-23.24,14.01
					c-16.84,9.18-35.49,17.89-54.57,20.56c-8.37,1.18-17.38,0.95-24.51-3.17c-2.37-1.37-4.07,4.65-1.94,5.87
					c14.26,8.26,34.33,2.79,49.46-2.7c18.62-6.75,36.38-16.37,52.94-27.09c6.05-3.93,12.18-7.99,17.57-12.73
					c-0.83-0.44-1.66-0.87-2.5-1.32c0.3,2.51-2.17,5.01-4,6.6c-2.86,2.5-6.15,4.4-9.46,6.27c-9.24,5.26-18.62,10.27-28.13,15.05
					c-9.28,4.67-18.68,9.11-28.18,13.33c-4.82,2.14-9.66,4.21-14.52,6.24c-4.18,1.73-8.38,3.55-12.79,4.6
					c-4.33,1.03-9.06,1.19-12.82-1.01c-2.58-1.5-5.57-4.52-4.4-7.75c0.41-1.15,0.49-3.27-0.78-3.89
					C392.82,653.45,391.77,655.11,391.43,656.09L391.43,656.09z"/>
			</g>
		</g>
		<g class="st11">
			<path class="st12" d="M403.82,678.4c-3.78,6.21,2.47,13.83,9.74,14.63s14.46-2.85,21.05-6.38c22.75-12.14,45.5-24.31,68.24-36.46
				c6.82-3.65,14.64-8.8,14.57-15.99c-27.64,17.99-89.84,59.31-113.73,40.85"/>
			<g>
				<path class="st12" d="M402.38,676.71c-3.98,7.01-0.38,15.32,6.69,18.32c8.92,3.79,19.14-1.93,27.16-6.2
					c21.84-11.66,43.69-23.35,65.53-35.01c8.51-4.54,17.49-10.28,17.68-20.3c0.03-1.32-0.95-3.14-2.58-2.06
					c-14.17,9.24-28.39,18.41-43.29,26.49c-8.17,4.44-16.56,8.56-25.22,11.97c-7.5,2.95-15.4,5.56-23.38,6.4
					c-7.25,0.77-14.64,0.06-20.28-4.21c-2.07-1.56-3.88,4.4-1.94,5.87c11.32,8.59,28.75,4.14,41.66-0.5
					c17.93-6.44,34.75-16.08,50.89-26.03c7.66-4.72,15.19-9.61,22.72-14.52c-0.87-0.69-1.71-1.37-2.58-2.06
					c-0.06,2.82-2.41,5.26-4.6,7.07c-3.03,2.52-6.51,4.41-9.98,6.26c-9.3,4.98-18.61,9.95-27.92,14.91
					c-9.44,5.04-18.87,10.09-28.3,15.12c-4.44,2.37-8.84,4.81-13.33,7.08c-3.86,1.96-7.93,3.81-12.22,4.49
					c-4.08,0.65-8.12,0.02-11.16-2.5c-2.03-1.69-4.21-4.54-2.67-7.23c0.68-1.2,0.92-3.25-0.05-4.29
					C404.21,674.76,403,675.66,402.38,676.71L402.38,676.71z"/>
			</g>
		</g>
		<g class="st11">
			<path class="st12" d="M416.09,700.35c-1.32,5.59,3.34,10.97,9.07,12.26c5.74,1.28,12.01-0.71,17.26-3.78
				c5.23-3.07,9.74-7.15,14.65-10.67c11.32-8.13,24.62-13.14,37.16-19.33c12.55-6.19,24.98-14.16,31.9-25.82
				c-21.83,14.58-78.95,54.14-110.27,46.92"/>
			<g>
				<path class="st12" d="M414.16,700.19c-1.57,7.77,4.16,14.84,12.23,15.77c9.38,1.09,17.98-4.81,25.05-10.33
					c4.16-3.24,8.32-6.37,12.88-9.08c4.76-2.82,9.74-5.25,14.77-7.59c9-4.21,18.15-8.16,26.62-13.37
					c8.82-5.44,16.65-12.24,21.91-20.94c0.81-1.33,0.67-6.22-2.02-4.44c-12.42,8.3-24.86,16.58-37.83,24.08
					c-14.98,8.66-30.92,16.93-47.79,21.2c-7.75,1.97-15.94,3-23.62,1.29c-2.45-0.54-3.6,5.58-0.95,6.17
					c14.74,3.3,31.41-2.66,45.14-8.62c16.44-7.13,31.96-16.32,46.97-25.95c6.46-4.14,12.83-8.43,19.21-12.69
					c-0.68-1.48-1.34-2.96-2.02-4.44c-8.84,14.64-25.88,22.48-41.16,29.52c-8.53,3.94-17.15,7.92-24.96,13.16
					c-7.41,4.99-13.9,11.9-22.61,14.76c-4.08,1.34-8.78,1.79-12.56-0.04c-3.11-1.51-6.07-4.56-5.34-8.2
					c0.21-1.07-0.03-3.12-1.48-3.24C415.06,697.15,414.36,699.17,414.16,700.19L414.16,700.19z"/>
			</g>
		</g>
		<g class="st11">
			<path class="st12" d="M428.67,717.16c-0.4,5.53,5.43,9.64,11.24,9.87c5.82,0.22,11.49-2.34,16.85-4.84
				c18.9-8.8,37.78-17.62,56.68-26.43c9.04-4.21,19.24-9.77,21.22-18.97c-30.68,22.36-69.2,41.82-106.89,40.81"/>
			<g>
				<path class="st12" d="M426.66,717.84c-0.26,7.41,6.69,12.56,14.23,12.28c4.34-0.16,8.54-1.62,12.55-3.37
					c4.64-2.03,9.2-4.25,13.77-6.39c9.45-4.4,18.9-8.8,28.34-13.21c8.49-3.97,17.28-7.59,25.47-12.18
					c7.53-4.21,13.67-9.86,15.62-18.04c0.31-1.3-0.58-4.32-2.52-2.89c-24.07,17.5-51.43,32.59-80.95,38.32
					c-8.25,1.6-16.6,2.34-24.9,2.15c-2.72-0.07-3.58,6.11-0.95,6.17c30.37,0.72,60.14-11.18,86.18-26.72
					c7.49-4.48,14.74-9.32,21.77-14.44c-0.84-0.97-1.69-1.93-2.52-2.89c-1.34,5.65-7.35,9.71-12.32,12.55
					c-7.08,4.05-14.79,7.19-22.19,10.63c-8.39,3.91-16.76,7.82-25.16,11.72c-4.26,1.99-8.51,3.96-12.78,5.95
					c-3.67,1.71-7.32,3.54-11.16,4.89c-3.98,1.39-8.44,2.27-12.39,0.91c-3.06-1.06-6.2-3.41-6.08-6.8c0.04-1.09-0.64-2.73-2.07-2.34
					C427.12,714.55,426.71,716.7,426.66,717.84L426.66,717.84z"/>
			</g>
		</g>
		<g class="st11">
			<path class="st12" d="M451.56,728.9c11.36,5.72,25.5,6.74,38.29,2.78c12.79-3.96,24.09-12.87,30.59-24.12
				c-19.88,12.5-43.7,18.95-66.79,18.07"/>
			<g>
				<path class="st12" d="M450.6,731.84c11.56,5.72,25.62,6.91,38.67,3.05c13.81-4.08,25.59-13.67,32.63-25.66
					c0.82-1.38,0.73-6.14-2.02-4.42c-19.67,12.27-42.96,18.51-65.75,17.73c-2.7-0.1-3.6,6.08-0.95,6.17
					c23.59,0.81,47.5-5.72,67.85-18.42c-0.68-1.48-1.34-2.96-2.02-4.44c-6.52,11.09-17.81,19.61-30.54,23.19
					c-12.15,3.42-25.19,2.22-35.92-3.09C450.01,724.71,448.39,730.75,450.6,731.84L450.6,731.84z"/>
			</g>
		</g>
		<g class="st11">
			<path class="st12" d="M486.93,736.74c2.54,3.37,7.17,5.19,11.68,4.55s8.7-3.7,10.54-7.69c-6.91,2.41-14.65,2.27-21.12-0.44"/>
			<g>
				<path class="st12" d="M485.55,739.33c2.93,3.7,7.8,5.71,12.86,5.02c5.36-0.74,9.9-4.44,12.19-9.06c0.58-1.15,1.05-5.57-1.51-4.7
					c-6.67,2.24-13.82,2.16-20.07-0.35c-2.68-1.07-4.21,4.97-1.94,5.87c6.92,2.78,14.73,3,22.14,0.52c-0.5-1.57-1.01-3.13-1.51-4.7
					c-3.77,7.58-14.56,8.31-19.39,2.24c-0.91-1.14-2.27-0.06-2.84,0.9C484.77,736.32,484.65,738.2,485.55,739.33L485.55,739.33z"/>
			</g>
		</g>
	</g>
	<g id="Ebene_4_1_">
		<g>
			<g>
				<path d="M393.75,634.92c7.33-29.59,14.06-59.28,19.54-89.11c5.48-29.93,9.71-60.01,11.91-90.13
					c2.17-29.76,2.77-59.83-0.22-89.24c-1.5-14.74-4.63-30.4-14.81-41.72c-7.69-8.54-20.09-14.39-32.59-13.03
					c-13.13,1.43-22.83,10.68-27.39,22.16c-5.36,13.53-2.57,27.82,3.07,40.17c1.54,3.38,3.31,6.65,5.15,9.9
					c1.73,3.02,4.2-1.6,3.63-3.5c-3.92-13.19-8.14-27.31-19.24-36.5c-9.05-7.51-22.08-10.77-33.83-4.8
					c-11.7,5.93-19.1,17.77-21.91,29.53c-3.06,12.72-1.44,25.72,3.04,37.51c10.01,26.37,33.88,44.56,55.21,62.44
					c22.72,19.06,45.86,37.68,68.54,56.77c22.58,19,44.79,38.45,65.45,59.33c2.5,2.52,4.97,5.08,7.42,7.64
					c2.17,2.27,4.38-3.51,2.77-5.18c-19.23-20.17-40.03-38.92-61.3-57.15c-21.46-18.37-43.45-36.19-65.25-54.2
					c-10.69-8.83-21.39-17.7-31.86-26.77c-10.64-9.21-20.96-18.95-28.87-30.44c-12.61-18.33-20-46.44-2.4-66.11
					c3.96-4.44,9.15-7.96,15.02-9.51c5.81-1.53,11.89-0.82,17.14,1.38c12.43,5.24,18.83,16.82,22.96,28.59
					c1.2,3.41,2.23,6.89,3.26,10.37c1.2-1.17,2.43-2.33,3.63-3.5c-6.55-11.42-12.64-24.55-9.88-38.29c2.23-11.1,10.7-21,22.79-23.3
					c11.87-2.25,24.25,2.99,31.82,10.88c9.98,10.36,13.04,25.27,14.43,39.14c2.8,28.01,2.42,56.62,0.47,84.95
					c-1.97,28.47-5.8,56.93-10.79,85.26c-4.97,28.23-11.11,56.34-17.9,84.33c-0.82,3.42-1.68,6.85-2.52,10.27
					c-0.3,1.19-0.58,3.23,0.78,3.89C392.27,637.52,393.48,635.95,393.75,634.92L393.75,634.92z"/>
			</g>
		</g>
		<g>
			<g>
				<path d="M407.11,268.66c25.92,6,47.92,22.95,59.07,45.59c0.58,1.19,1.82,1.24,2.76,0.21c0.99-1.1,1.26-3.13,0.67-4.38
					c-11.69-23.72-34.4-41.31-61.55-47.6C405.61,261.92,404.45,268.05,407.11,268.66L407.11,268.66z"/>
			</g>
		</g>
		<g>
			<g>
				<path d="M213.53,459.56c7.27,21.75,22.05,40.66,41.56,53.66c5.57,3.72,11.53,6.9,17.79,9.55c2.64,1.12,4.2-4.92,1.94-5.87
					c-21.39-9.08-39.19-24.69-50.19-44.19c-3.11-5.52-5.66-11.3-7.67-17.29c-0.44-1.31-1.92-1.15-2.76-0.21
					C213.1,456.39,213.07,458.2,213.53,459.56L213.53,459.56z"/>
			</g>
		</g>
	</g>
</g>
<g>
	<g id="Ebene_2_Kopie">
		<g class="st13">
			<path d="M1213.72,704.42c21.11,8.88,34.99,31.56,32.83,53.64s-20.19,41.87-42.65,46.8c-22.46,4.93-47.62-5.38-59.5-24.38
				c-11.88-19-9.58-45.24,5.44-62.05c15.02-16.81,41.63-22.91,62.9-14.42"/>
			<g>
				<path d="M1211.86,707.52c19.82,8.5,33.27,28.93,32.17,49.9c-1.05,19.83-16.57,37.66-36.09,43.35
					c-20.59,6.01-44.34-1.78-57.59-17.93c-13.33-16.26-14.43-40.28-2.89-57.72c12.98-19.61,41.56-26.54,63.43-17.99
					c2.89,1.13,6.43-5.14,3.72-6.2c-22.12-8.65-48.48-2.57-64.71,14.13c-16.58,17.07-20.54,44.27-9.56,65.08
					c10.7,20.29,35.58,31.82,58.74,28.69c23.65-3.19,43.07-22.17,48.77-44.07c6.54-25.1-7.78-52.93-32.27-63.44
					C1212.74,700.1,1209.16,706.36,1211.86,707.52L1211.86,707.52z"/>
			</g>
		</g>
		<g class="st13">
			<path d="M1127.36,294.84c1.78-20.54,6.92-41.34,19.05-58.32c12.13-16.98,32.15-29.63,53.55-29.5
				c31.03,0.19,56.7,27.75,61.48,57.27c4.78,29.52-7.28,59.46-24.47,84.33c-17.19,24.87-39.45,46.08-58.52,69.64
				c-31.07,38.4-53.82,84.02-59.14,132.43c-3.5,31.8,1.43,66.19,22.61,90.82c21.19,24.63,61.66,35.23,88.97,17.04
				c17.33-11.54,26.29-31.85,29.66-51.88c3.37-20.03,2.01-40.49,3.36-60.74c2.79-41.77,17.41-82.74,41.86-117.34
				c30.27-42.85,75.57-76.76,94.13-125.4c19.65-51.5,3.8-112.21-33.95-153.29c-37.75-41.09-94.7-63.31-151.59-66.21
				c-62.53-3.18-126.82,16.58-172.98,57.31c-46.16,40.73-72.45,102.69-64.87,162.54c2.99,23.59,11.64,47.53,29.75,63.67
				c23.86,21.26,62.91,24.57,90.27,7.67c27.35-16.91,25.79-46.06,30.75-79.35"/>
			<g>
				<path d="M1130.04,293.41c1.64-18.27,5.93-36.8,16.07-52.53c9.09-14.1,23.64-25.43,40.59-29.25
					c33.43-7.53,63.18,19.05,70.89,48.8c9.64,37.16-11.39,74.41-34.38,102.76c-12.44,15.35-26.18,29.65-39.03,44.68
					c-12.24,14.32-23.43,29.46-33.05,45.54c-18.8,31.46-31.79,66.51-34.92,102.81c-2.81,32.58,3.36,70.22,29.02,93.8
					c21.53,19.78,57.09,28.72,83.64,12.78c14.55-8.74,24.19-23.26,29.61-38.65c6.4-18.15,6.97-37.42,7.31-56.4
					c0.36-19.55,1.55-38.78,5.95-57.93c4.18-18.19,10.64-35.96,19.25-52.65c8.37-16.24,18.79-31.23,30.54-45.37
					c11.11-13.37,23.07-26.05,34.59-39.09c22.6-25.56,43.68-53.37,51.42-86.72c7.49-32.28,2.65-66.7-11.33-96.74
					c-14.44-31.03-38.44-56.69-68.09-74.99c-29.95-18.48-64.81-29.39-100.11-32.93c-35.8-3.59-72.52,0.4-106.58,11.61
					c-33.94,11.17-65.28,29.52-90.22,54.43c-24.61,24.57-42.55,55.24-51.85,88.16c-9.08,32.14-10.24,68.47,1.83,100.07
					c5.91,15.47,15.48,29.92,29.51,39.67c12.93,8.99,29.06,13.62,44.96,13.64c15.94,0.01,31.9-4.5,44.76-13.67
					c12.1-8.64,19.05-21.45,22.66-35.28c3.84-14.74,4.57-30.09,6.78-45.09c0.68-4.64-4.76-1.79-5.22,1.27
					c-2.23,15.12-2.95,30.61-6.88,45.46c-3.63,13.71-11.35,24.93-24.26,32.03c-27.89,15.34-66.16,10.07-88.33-12.34
					c-24.09-24.35-29.42-61.77-26.7-94c2.79-33.14,15.49-65.58,35.34-92.71c20.35-27.83,48.08-49.76,79.8-64.65
					c32.08-15.05,67.82-22.89,103.48-23.29c35.1-0.4,70.41,6.38,102.29,20.63c31.53,14.09,59.69,35.6,78.84,63.73
					c18.62,27.35,28.83,60.29,27.32,93.06c-0.75,16.33-4.67,32.35-11.53,47.3c-6.91,15.08-16.59,28.84-27.11,41.78
					c-21.55,26.52-46.83,50.18-65.94,78.52c-20.51,30.42-33.76,65.51-38.37,101.51c-2.5,19.61-1.57,39.34-2.93,59.01
					c-1.18,17.19-4.74,34.79-14.8,49.36c-8.81,12.77-22.55,20.95-38.38,22.59c-15.1,1.56-30.62-2.56-43.54-10.01
					c-30.07-17.33-41.51-52.09-41.98-84.19c-0.52-35.31,10.38-70.62,26.97-101.86c8.52-16.05,18.63-31.31,30-45.62
					c12.03-15.14,25.43-29.2,38.13-43.82c24.31-27.99,47.09-60.4,48.99-98.06c0.81-16.09-2.89-32-11.73-45.76
					c-7.98-12.42-20.01-23.06-34.44-27.98c-33.51-11.43-66.58,11.25-81.07,39.56c-7.97,15.58-11.61,32.65-13.15,49.86
					c-0.14,1.61,1.45,2.12,2.73,1.52C1129.08,297.01,1129.89,295.06,1130.04,293.41L1130.04,293.41z"/>
			</g>
		</g>
		<g class="st13">
			<path d="M1179.44,753.15c-8.37-12.8-2.09-32.19,12.36-38.14"/>
			<g>
				<path d="M1181.75,750.44c-7.14-11.25-2.51-27.09,10.1-32.48c2.62-1.12,3.94-7.63-0.1-5.91c-16.4,7-24.03,28.96-14.62,43.79
					C1178.8,758.48,1183.26,752.84,1181.75,750.44L1181.75,750.44z"/>
			</g>
		</g>
		<g class="st13">
			<path d="M1175.56,733.79c1.16-0.19,2.09,1.43,1.3,2.28c-1.44-0.76-1.53-3.09-0.14-3.96"/>
			<g>
				<path d="M1174.28,737.06c0.38-0.03,0.35,0.11,0.11-0.08c0.34,0.27-0.15-0.26,0.03-0.03c0.16,0.2,0.13,0.35,0.05-0.04
					c0.02,0.06,0.03,0.11,0.05,0.17c-0.21-1.02,0.11-1.98,0.97-2.87c1.08-0.42,2.15-0.83,3.23-1.24c-0.11-0.06-0.21-0.13-0.31-0.21
					c0.4,0.3,0.08,0.06,0.02-0.07c-0.14-0.31,0.15,0.42,0.03,0.09c-0.18-0.49-0.02,0.1-0.04,0.09c-0.05-0.02,0.02-0.32-0.01-0.36
					c0.04,0.04-0.08,0.72,0,0.26c-0.08,0.47-0.29,0.91-0.57,1.3c-0.08,0.11-0.78,0.8-0.39,0.53c1.31-0.9,2.33-3.1,1.85-4.63
					c-0.53-1.69-2.23-1.1-3.31-0.36c-2.78,1.92-4.5,7.46-0.99,9.55c1.09,0.64,2.61-0.45,3.23-1.24c1.18-1.5,2.04-3.48,1.36-5.36
					c-0.4-1.1-1.46-2.16-2.76-2.05c-1.73,0.14-3.09,1.51-3.63,3.07c-0.26,0.74-0.47,1.58-0.22,2.35
					C1173.14,736.44,1173.63,737.11,1174.28,737.06L1174.28,737.06z"/>
			</g>
		</g>
	</g>
	<g id="Ebene_2_2_">
		<g>
			<path class="st14" d="M1227.46,691.01c21.11,8.88,34.99,31.56,32.83,53.64c-2.16,22.08-20.19,41.87-42.65,46.8
				c-22.46,4.93-47.62-5.38-59.5-24.38c-11.88-19-9.58-45.24,5.44-62.05s41.63-22.91,62.9-14.42"/>
			<g>
				<path d="M1225.6,694.11c19.82,8.5,33.27,28.93,32.17,49.9c-1.05,19.83-16.57,37.66-36.09,43.35
					c-20.59,6.01-44.34-1.78-57.59-17.93c-13.33-16.26-14.43-40.28-2.89-57.72c12.98-19.61,41.56-26.54,63.43-17.99
					c2.89,1.13,6.43-5.14,3.72-6.2c-22.12-8.65-48.48-2.57-64.71,14.13c-16.58,17.07-20.54,44.27-9.56,65.08
					c10.7,20.29,35.58,31.82,58.74,28.69c23.65-3.19,43.07-22.17,48.77-44.07c6.54-25.1-7.78-52.93-32.27-63.44
					C1226.47,686.69,1222.89,692.95,1225.6,694.11L1225.6,694.11z"/>
			</g>
		</g>
		<g>
			<path class="st15" d="M1150.65,280.01c1.78-20.54,6.92-41.34,19.05-58.32c12.13-16.98,32.15-29.63,53.55-29.5
				c31.03,0.19,56.7,27.75,61.48,57.27c4.78,29.52-7.28,59.46-24.47,84.33c-17.19,24.87-39.45,46.08-58.52,69.64
				c-31.07,38.4-53.82,84.02-59.14,132.43c-3.5,31.8,1.43,66.19,22.61,90.82c21.19,24.63,61.66,35.23,88.97,17.04
				c17.33-11.54,26.29-31.85,29.66-51.88c3.37-20.03,2.01-40.49,3.36-60.74c2.79-41.77,17.41-82.74,41.86-117.34
				c30.27-42.85,75.57-76.76,94.13-125.4c19.65-51.5,3.8-112.21-33.95-153.29c-37.75-41.09-94.7-63.31-151.59-66.21
				c-62.51-3.19-126.8,16.57-172.96,57.3c-46.16,40.73-72.47,102.7-64.88,162.55c2.99,23.59,11.64,47.53,29.75,63.67
				c23.86,21.26,62.91,24.57,90.27,7.67s25.79-46.06,30.75-79.35"/>
			<g>
				<path d="M1153.33,278.58c1.64-18.27,5.93-36.8,16.07-52.53c9.09-14.1,23.64-25.43,40.59-29.25
					c33.43-7.53,63.18,19.05,70.89,48.8c9.64,37.16-11.39,74.41-34.38,102.76c-12.44,15.35-26.18,29.65-39.03,44.68
					c-12.24,14.32-23.43,29.46-33.05,45.54c-18.8,31.46-31.79,66.51-34.92,102.81c-2.81,32.58,3.36,70.22,29.02,93.8
					c21.53,19.78,57.09,28.72,83.64,12.78c14.55-8.74,24.19-23.26,29.61-38.65c6.4-18.15,6.97-37.42,7.31-56.4
					c0.36-19.55,1.55-38.78,5.95-57.93c4.18-18.19,10.64-35.96,19.25-52.65c8.37-16.24,18.79-31.23,30.54-45.37
					c11.11-13.37,23.07-26.05,34.59-39.09c22.6-25.56,43.68-53.37,51.42-86.72c7.49-32.28,2.65-66.7-11.33-96.74
					c-14.44-31.03-38.44-56.69-68.09-74.99c-29.95-18.48-64.81-29.39-100.11-32.93c-35.8-3.59-72.52,0.4-106.58,11.61
					c-33.94,11.17-65.28,29.52-90.22,54.43c-24.61,24.57-42.55,55.24-51.85,88.16c-9.08,32.14-10.24,68.47,1.83,100.07
					c5.91,15.47,15.48,29.92,29.51,39.67c12.93,8.99,29.06,13.62,44.96,13.64c15.94,0.01,31.9-4.5,44.76-13.67
					c12.1-8.64,19.05-21.45,22.66-35.28c3.84-14.74,4.57-30.09,6.78-45.09c0.68-4.64-4.76-1.79-5.22,1.27
					c-2.23,15.12-2.95,30.61-6.88,45.46c-3.63,13.71-11.35,24.93-24.26,32.03c-27.89,15.34-66.16,10.07-88.33-12.34
					c-24.09-24.35-29.42-61.77-26.7-94c2.79-33.14,15.49-65.58,35.34-92.71c20.35-27.83,48.08-49.76,79.8-64.65
					c32.08-15.05,67.82-22.89,103.48-23.29c35.1-0.4,70.41,6.38,102.29,20.63c31.53,14.09,59.69,35.6,78.84,63.73
					c18.62,27.35,28.83,60.29,27.32,93.06c-0.75,16.33-4.67,32.35-11.53,47.3c-6.91,15.08-16.59,28.84-27.11,41.78
					c-21.55,26.52-46.83,50.18-65.94,78.52c-20.51,30.42-33.76,65.51-38.37,101.51c-2.5,19.61-1.57,39.34-2.93,59.01
					c-1.18,17.19-4.74,34.79-14.8,49.36c-8.81,12.77-22.55,20.95-38.38,22.59c-15.1,1.56-30.62-2.56-43.54-10.01
					c-30.07-17.33-41.51-52.09-41.98-84.19c-0.52-35.31,10.38-70.62,26.97-101.86c8.52-16.05,18.63-31.31,30-45.62
					c12.03-15.14,25.43-29.2,38.13-43.82c24.31-27.99,47.09-60.4,48.99-98.06c0.81-16.09-2.89-32-11.73-45.76
					c-7.98-12.42-20.01-23.06-34.44-27.98c-33.51-11.43-66.58,11.25-81.07,39.56c-7.97,15.58-11.61,32.65-13.15,49.86
					c-0.14,1.61,1.45,2.12,2.73,1.52C1152.37,282.18,1153.18,280.24,1153.33,278.58L1153.33,278.58z"/>
			</g>
		</g>
		<g>
			<g>
				<path d="M1181.75,750.44c-7.14-11.25-2.51-27.09,10.1-32.48c2.62-1.12,3.94-7.63-0.1-5.91c-16.4,7-24.03,28.96-14.62,43.79
					C1178.8,758.48,1183.26,752.84,1181.75,750.44L1181.75,750.44z"/>
			</g>
		</g>
		<g>
			<path class="st14" d="M1208.23,710.81c1.16-0.19,2.09,1.43,1.3,2.28c-1.44-0.76-1.53-3.09-0.14-3.96"/>
			<g>
				<path d="M1206.95,714.08c0.38-0.03,0.35,0.11,0.11-0.08c0.34,0.27-0.15-0.26,0.03-0.03c0.16,0.2,0.13,0.35,0.05-0.04
					c0.02,0.06,0.03,0.11,0.05,0.17c-0.21-1.02,0.11-1.98,0.97-2.87c1.08-0.42,2.15-0.83,3.23-1.24c-0.11-0.06-0.21-0.13-0.31-0.21
					c0.4,0.3,0.08,0.06,0.02-0.07c-0.14-0.31,0.15,0.42,0.03,0.09c-0.18-0.49-0.02,0.1-0.04,0.09c-0.05-0.02,0.02-0.32-0.01-0.36
					c0.04,0.04-0.08,0.72,0,0.26c-0.08,0.47-0.29,0.91-0.57,1.3c-0.08,0.11-0.78,0.8-0.39,0.53c1.31-0.9,2.33-3.1,1.85-4.63
					c-0.53-1.69-2.23-1.1-3.31-0.36c-2.78,1.92-4.5,7.46-0.99,9.55c1.09,0.64,2.61-0.45,3.23-1.24c1.18-1.5,2.04-3.48,1.36-5.36
					c-0.4-1.1-1.46-2.16-2.76-2.05c-1.73,0.14-3.09,1.51-3.63,3.07c-0.26,0.74-0.47,1.58-0.22,2.35
					C1205.81,713.46,1206.3,714.13,1206.95,714.08L1206.95,714.08z"/>
			</g>
		</g>
	</g>
	<g id="Ebene_4_2_">
		<g class="st13">
			<path d="M1208.23,686.81c-25.65,0.57-56.36,26.52-57.67,51.19c-1.31,24.67,25.91,51.44,51.36,54.52
				c-21.31-4.92-40.91-32.41-38.15-53.35c2.76-20.94,19.86-40.36,45.25-52.29"/>
			<g>
				<path d="M1209.51,683.53c-11.32,0.34-22.15,4.72-31.39,10.85c-9.68,6.41-18.19,14.83-23.86,24.79
					c-5.46,9.58-7.86,20.28-5.31,31.05c2.57,10.85,9.31,20.69,17.52,28.36c9.33,8.72,21.13,15.53,34.18,17.22
					c2.79,0.36,5.89-5.75,2.56-6.55c-16.91-4.07-30.12-20.28-35.05-35.73c-2.47-7.74-2.49-15.53,0.1-23.25
					c2.7-8.03,7.48-15.17,13.4-21.36c7.69-8.05,17.28-14.26,27.43-19.07c1.52-0.72,2.72-2.77,2.63-4.39
					c-0.08-1.59-1.28-2.21-2.73-1.52c-19.04,9.03-36.46,23.51-44.33,42.93c-3.45,8.52-4.75,17.56-2.82,26.56
					c1.98,9.2,6.73,17.96,12.86,25.21c6.71,7.95,15.49,14.63,25.96,17.15c0.85-2.18,1.71-4.37,2.56-6.55
					c-20.64-2.66-40.17-19.07-47.34-37.66c-3.49-9.04-3.43-18.21,0.6-27.06c4.02-8.84,11.12-16.36,18.95-22.23
					c8.93-6.69,20.06-11.85,31.53-12.2C1209.84,690,1212.64,683.44,1209.51,683.53L1209.51,683.53z"/>
			</g>
		</g>
		<g class="st13">
			<path d="M1279.48,299.06c-16.17,32.99-37.51,54.77-60.22,83.97c-22.71,29.2-43.91,52.94-58.43,86.63
				c-14.51,33.7-21.74,98.33-10.27,133.09c11.47,34.77,50.74,61.92,96.21,45.07c-54.92-27.17-47.23-149.1-27.2-190.1
				c19.45-39.82,68.77-117.79,66.01-189"/>
			<g>
				<path d="M1277.12,298.85c-15.32,31.08-39.27,56.78-60.57,84.04c-21.35,27.34-43.87,53.94-57.73,85.77
					c-5.26,12.07-8.65,24.91-11.2,37.74c-2.88,14.5-4.61,29.25-5.2,44c-1.04,25.93,0.54,54.41,16.94,76.15
					c8.07,10.7,19.14,19.46,31.86,24.52c13.65,5.43,28.68,6.48,43.07,3.43c4.04-0.86,7.99-2.04,11.85-3.45
					c1.7-0.62,5.26-4.94,2.49-6.32c-19.88-9.94-29.84-31.17-35.14-51.11c-6.47-24.31-7.33-50.02-5.36-74.95
					c0.91-11.52,2.56-23.02,5.11-34.32c1.99-8.84,4.46-17.55,8.4-25.82c5.37-11.29,11.63-22.42,17.47-33.57
					c7.57-14.44,14.91-29,21.56-43.86c14.3-31.97,26.04-66.05,27.55-101.09c0.18-4.24,0.19-8.48,0.04-12.71
					c-0.05-1.56-1.32-2.19-2.73-1.52c-1.51,0.72-2.69,2.77-2.63,4.39c1.28,35.22-9.57,69.9-23.3,102.18
					c-11.83,27.82-26.82,54.09-40.37,81.12c-9.47,18.9-13.61,39.8-15.77,60.57c-2.64,25.44-2.31,51.55,3.13,76.64
					c4.53,20.88,13.26,43.56,31.94,56.49c2.03,1.41,4.17,2.66,6.4,3.77c0.83-2.11,1.66-4.22,2.49-6.32
					c-14.26,5.21-29.64,6.67-44.48,2.87c-13.1-3.36-25.04-10.78-34.04-20.48c-8.66-9.33-14.55-20.53-17.54-32.69
					c-3.14-12.74-3.88-26-3.75-39.05c0.14-14.51,1.52-29.02,3.99-43.34c2.2-12.8,5.18-25.59,9.87-37.77
					c11.74-30.51,33.1-56.18,53.32-81.79c10.72-13.57,21.67-26.95,32.47-40.46c10.45-13.07,20.39-26.56,28.56-41.08
					c2.14-3.8,4.13-7.65,6.05-11.55c0.57-1.14,0.54-3.24-1.08-3.49C1279.01,295.51,1277.71,297.65,1277.12,298.85L1277.12,298.85z"
					/>
			</g>
		</g>
		<g class="st13">
			<path d="M1209.4,68.97c-38.99,6.46-93.58,20.36-124.49,42.31s-62.68,65.04-76.72,99.45c-14.04,34.42-11.65,89.28,5.72,122.27
				s50.27,46.81,93.45,33.1c-26.71-6.56-53.93-23.09-61.5-48.61s-4.29-52.99,3.09-78.57c19.93-69.04,73.91-128.25,159.71-167.88"/>
			<g>
				<path d="M1210.03,65.75c-34.13,5.68-68.62,14.11-100.02,28.45c-14.85,6.78-28.29,15.42-40.27,26.26
					c-13.52,12.23-25.38,26.13-35.91,40.8c-10.2,14.22-19.29,29.28-26.29,45.21c-6.35,14.47-9.51,29.86-10.67,45.49
					c-1.23,16.56-0.2,33.34,3.08,49.64c2.99,14.88,7.99,29.78,16.69,42.53c7.81,11.44,18.83,20.91,32.16,25.93
					c14.36,5.41,30.08,5.59,45.05,2.6c4.35-0.87,8.64-2.01,12.86-3.34c2.05-0.64,5.34-5.64,1.91-6.5
					c-23.55-5.86-48.77-19.56-58.34-42.28c-5.78-13.72-6.71-29.58-5.79-44.2c0.92-14.57,4.11-29.06,8.56-42.99
					c6.75-21.15,16.79-41.2,29.58-59.57c13.58-19.5,30.28-36.93,48.81-52.15c20.59-16.92,43.46-31.11,67.53-42.98
					c3.22-1.59,6.47-3.13,9.73-4.65c2.57-1.19,3.87-7.74-0.1-5.91c-25.68,11.89-50.17,26.26-72.35,43.53
					c-19.93,15.52-37.97,33.45-52.86,53.57c-14.13,19.1-25.5,40.06-33.24,62.31c-9.85,28.3-15.43,59.73-7.71,89.14
					c6.65,25.37,29.6,41.96,54.35,50.07c3.06,1,6.15,1.89,9.28,2.67c0.63-2.17,1.27-4.33,1.91-6.5c-15,4.71-31.06,6.92-46.63,3.57
					c-13.22-2.85-25.06-9.96-33.9-19.81c-9.84-10.97-15.86-24.49-19.73-38.38c-4.27-15.34-6.08-31.31-5.96-47.18
					c0.11-15.29,1.95-30.89,7.02-45.44c5.24-15.03,13.46-29.23,22.26-42.56c17.87-27.06,40.62-53.32,70.33-68.71
					c14.91-7.72,30.87-13.48,47.02-18.32c16.16-4.85,32.63-8.74,49.23-11.87c3.71-0.7,7.43-1.36,11.15-1.98
					C1211.51,71.74,1213.81,65.12,1210.03,65.75L1210.03,65.75z"/>
			</g>
		</g>
	</g>
	<g id="Ebene_5_2_">
		<g class="st13">
			<g>
				<path class="st1" d="M1280.1,108.85c2.78,0.74,5.54,1.57,8.26,2.51c1.36,0.47,2.71,0.96,4.04,1.48c0.67,0.26,1.33,0.52,2,0.79
					c0.29,0.12,3.04,1.3,1.36,0.55c5.24,2.32,10.3,5.01,15.13,8.03c9.81,6.12,18.08,13.12,25.81,21.8
					c15.96,17.9,25.92,39.77,28.34,63.27c5.77,56.15-26.34,106.97-55.91,152.63c-17.12,26.43-34.15,53-45.56,82.29
					c-0.53,1.37,3.12,2.77,3.63,2.96c2.65,0.94,5.98,1.27,8.77,1.22c3.77-0.06,10.8-0.08,12.4-4.18
					c20.5-52.62,60.11-95.62,83.44-146.89c11.63-25.54,19.86-53.24,18.52-81.36c-1.16-24.4-10.1-47.97-25.62-67.3
					c-16.76-20.89-40.63-36.64-67.08-43.7c-5.46-1.46-12.12-2.07-17.53,0c-1.3,0.5-3.63,1.27-3.63,2.96
					C1276.47,107.47,1278.91,108.53,1280.1,108.85L1280.1,108.85z"/>
			</g>
		</g>
		<g class="st13">
			<g>
				<path class="st1" d="M1221.68,726.3c4.14,9.02,3.97,19.7,0.91,28.98c-1.48,4.51-3.9,8.77-6.86,12.54
					c-3.41,4.33-6.5,6.97-11.12,9.55c-4.71,2.64,2.01,5.27,4.45,5.71c5.21,0.96,12.17,1.18,16.96-1.5
					c20.34-11.39,29.06-36.81,19.56-57.51c-0.65-1.43-4.54-2.26-5.7-2.5c-3-0.62-6.51-0.76-9.55-0.42
					C1227.74,721.45,1219.85,722.31,1221.68,726.3L1221.68,726.3z"/>
			</g>
		</g>
	</g>
</g>
<g>
	<g>
		<path class="st8" d="M549.91,478.47c10.05,0.67,20.1,1.34,30.16,2.01c7.85,0.52,15.35-7.27,15-15c-0.38-8.57-6.6-14.44-15-15
			c-10.05-0.67-20.1-1.34-30.16-2.01c-7.85-0.52-15.35,7.27-15,15C535.3,472.04,541.51,477.91,549.91,478.47L549.91,478.47z"/>
	</g>
</g>
<g>
	<g>
		<path class="st8" d="M570.02,392.02c8.04-0.67,16.08-1.34,24.12-2.01c7.8-0.65,15.38-6.43,15-15c-0.34-7.57-6.63-15.7-15-15
			c-8.04,0.67-16.08,1.34-24.12,2.01c-7.8,0.65-15.38,6.43-15,15C555.36,384.59,561.64,392.72,570.02,392.02L570.02,392.02z"/>
	</g>
</g>
<g>
	<g>
		<path class="st8" d="M550.99,288.81c7.41-5.3,14.83-10.61,22.24-15.91c6.37-4.55,10.05-13.28,5.38-20.52
			c-4.07-6.31-13.7-10.26-20.52-5.38c-7.41,5.3-14.83,10.61-22.24,15.91c-6.37,4.55-10.05,13.28-5.38,20.52
			C534.54,289.74,544.17,293.69,550.99,288.81L550.99,288.81z"/>
	</g>
</g>
<g>
	<g>
		<path class="st8" d="M465.13,215.96c2.72-10.04,5.44-20.08,8.16-30.12c2.05-7.57-2.56-16.65-10.48-18.45
			c-7.9-1.8-16.26,2.37-18.45,10.48c-2.72,10.04-5.44,20.08-8.16,30.12c-2.05,7.57,2.56,16.65,10.48,18.45
			C454.58,228.23,462.94,224.06,465.13,215.96L465.13,215.96z"/>
	</g>
</g>
<g>
	<g>
		<path class="st8" d="M359.32,184.06c-2.01-7.37-4.02-14.74-6.03-22.11c-2.06-7.57-10.76-12.97-18.45-10.48
			c-7.75,2.51-12.69,10.34-10.48,18.45c2.01,7.37,4.02,14.74,6.03,22.11c2.06,7.57,10.76,12.97,18.45,10.48
			C356.59,200,361.53,192.17,359.32,184.06L359.32,184.06z"/>
	</g>
</g>
<g>
	<g>
		<path class="st8" d="M239.24,223.33c-6.03-6.7-12.06-13.4-18.09-20.1c-5.26-5.85-15.93-5.76-21.21,0
			c-5.74,6.25-5.62,14.97,0,21.21c6.03,6.7,12.06,13.4,18.09,20.1c5.26,5.85,15.93,5.76,21.21,0
			C244.98,238.29,244.86,229.57,239.24,223.33L239.24,223.33z"/>
	</g>
</g>
<g>
	<g>
		<path class="st8" d="M149.38,309.79c-6.7-3.35-13.4-6.7-20.1-10.05c-7.01-3.5-16.57-2.1-20.52,5.38
			c-3.59,6.8-2.11,16.78,5.38,20.52c6.7,3.35,13.4,6.7,20.1,10.05c7.01,3.5,16.57,2.1,20.52-5.38
			C158.35,323.51,156.87,313.53,149.38,309.79L149.38,309.79z"/>
	</g>
</g>
<g>
	<g>
		<path class="st8" d="M125.75,422.87c-8.04,1.34-16.08,2.68-24.12,4.02c-7.76,1.29-12.79,11.3-10.48,18.45
			c2.72,8.39,10.13,11.86,18.45,10.48c8.04-1.34,16.08-2.68,24.12-4.02c7.76-1.29,12.79-11.3,10.48-18.45
			C141.49,424.95,134.07,421.48,125.75,422.87L125.75,422.87z"/>
	</g>
</g>
<g>
	<g>
		<path class="st8" d="M174.19,516.53c-9.46,7.26-18.93,14.53-28.39,21.79c-6.42,4.92-9.84,12.91-5.38,20.52
			c3.69,6.31,14.06,10.34,20.52,5.38c9.46-7.26,18.93-14.53,28.39-21.79c6.42-4.92,9.84-12.91,5.38-20.52
			C191.02,515.59,180.66,511.56,174.19,516.53L174.19,516.53z"/>
	</g>
</g>
<g>
	<g>
		<path class="st8" d="M247.8,591.58c-10.09,9.93-17.31,22.83-19.94,36.77c-1.45,7.69,2.13,16.55,10.48,18.45
			c7.39,1.68,16.89-2.23,18.45-10.48c0.49-2.59,1.09-5.15,1.92-7.65c0.12-0.35,1.41-3.73,0.94-2.63c-0.4,0.92,1.28-2.5,1.27-2.49
			c2.86-5.36,4.04-6.77,8.09-10.76c5.77-5.68,5.7-15.52,0-21.21C263.23,585.79,253.59,585.88,247.8,591.58L247.8,591.58z"/>
	</g>
</g>
<g>
	<g>
		<path class="st8" d="M319.84,644.87c-2.01,4.69-4.02,9.38-6.03,14.07c-1.65,3.86-2.68,7.32-1.51,11.56
			c0.96,3.48,3.65,7.25,6.89,8.96c3.48,1.84,7.7,2.76,11.56,1.51c3.45-1.12,7.47-3.4,8.96-6.89c2.01-4.69,4.02-9.38,6.03-14.07
			c1.65-3.86,2.68-7.32,1.51-11.56c-0.96-3.48-3.65-7.25-6.89-8.96c-3.48-1.84-7.7-2.76-11.56-1.51
			C325.35,639.09,321.34,641.38,319.84,644.87L319.84,644.87z"/>
	</g>
</g>
</svg>
