<?xml version="1.0" encoding="utf-8"?>
<!-- Generator: Adobe Adobe Illustrator 24.2.0, SVG Export Plug-In . SVG Version: 6.00 Build 0)  -->
<svg version="1.1" xmlns="http://www.w3.org/2000/svg" xmlns:xlink="http://www.w3.org/1999/xlink" x="0px" y="0px"
	 viewBox="0 0 170.08 170.08" style="enable-background:new 0 0 170.08 170.08;" xml:space="preserve">
<style type="text/css">
	.st0{fill:#FFFFFF;}
	.st1{fill:#97CEEA;}
	.st2{fill:none;stroke:#000000;stroke-miterlimit:10;}
	.st3{opacity:0.0902;}
</style>
<g id="Ebene_4">
</g>
<g id="Ebene_9">
</g>
<g id="Ebene_5">
	<g>
		<path class="st0" d="M126.6,79.76c-2.95-2.17-6.14-4.09-9.64-5.19c-3.5-1.1-7.33-1.35-10.82-0.23c-4,1.29-7.31,4.33-9.34,8
			c-2.03,3.68-2.83,7.94-2.75,12.14c0.03,1.78,0.22,3.56,0.72,5.26c1.05,3.59,3.48,6.72,6.59,8.81c3.11,2.09,6.85,3.15,10.59,3.23
			c7.25,0.15,14.68-3.79,17.76-10.35c1.91-4.07,2.08-8.78,1.26-13.2c-0.61-3.29-1.88-6.66-4.53-8.7"/>
		<g>
			<path class="st0" d="M127.1,78.89c-6.97-5.09-16.45-8.91-24.57-4c-7.35,4.44-10.23,13.6-9.35,21.8
				c0.93,8.57,7.8,14.73,16.19,15.87c7.42,1.01,15.35-1.97,19.75-8.16c2.78-3.91,3.64-8.88,3.21-13.59
				c-0.39-4.36-1.62-9.13-5.18-11.99c-0.99-0.8-2.42,0.61-1.41,1.41c2.85,2.3,3.97,5.9,4.46,9.41c0.54,3.88,0.26,8.04-1.51,11.59
				c-2.94,5.91-9.53,9.42-16.01,9.53c-7.46,0.13-15.09-4.21-17.06-11.73c-1.88-7.19,0.21-16.13,5.97-21.03
				c3.46-2.94,7.99-3.94,12.43-3.15c4.47,0.79,8.45,3.1,12.07,5.75C127.14,81.38,128.13,79.65,127.1,78.89L127.1,78.89z"/>
		</g>
	</g>
	<g>
		<path class="st0" d="M93.52,114.36c-4.79,2.7-9.58,5.4-14.37,8.09c-0.73,0.41-1.5,0.86-1.88,1.6c-0.66,1.26,0.03,2.78,0.75,4
			c0.8,1.36,1.67,2.69,2.58,3.98c1.32,1.85,2.96,3.76,5.21,4.12c1.81,0.29,3.6-0.5,5.25-1.29c5.92-2.82,11.81-5.96,16.49-10.55
			c3.25-3.19,5.85-7.03,7.6-11.23c-4.52-0.52-9.14-1.06-13.27-2.97c-0.48-0.22-1-0.47-1.52-0.34c-0.26,0.07-0.48,0.22-0.7,0.38
			c-2.08,1.49-4.16,2.98-6.25,4.47"/>
		<g>
			<path class="st0" d="M93.01,113.5c-2.61,1.47-5.22,2.94-7.84,4.42c-2.42,1.36-5,2.59-7.3,4.15c-1.87,1.26-2.23,3.18-1.37,5.21
				c0.96,2.27,2.55,4.47,4.08,6.4c1.33,1.67,3.03,3.2,5.23,3.49c2.54,0.33,4.93-1.01,7.14-2.09c4.6-2.24,9.09-4.73,13.05-8
				c4.37-3.62,7.81-8.25,10.02-13.47c0.31-0.74-0.06-1.41-0.86-1.5c-4.17-0.48-8.45-0.97-12.35-2.65c-0.72-0.31-1.43-0.73-2.24-0.68
				c-0.86,0.06-1.5,0.61-2.17,1.09c-1.82,1.3-3.64,2.61-5.47,3.91c-1.04,0.74-0.04,2.48,1.01,1.73c1.69-1.21,3.38-2.42,5.08-3.63
				c0.8-0.57,1.37-1.3,2.37-0.88c0.85,0.35,1.68,0.73,2.56,1.02c3.61,1.23,7.44,1.65,11.21,2.09c-0.29-0.5-0.58-1-0.86-1.5
				c-1.69,3.99-4.08,7.64-7.14,10.72c-3.13,3.15-6.85,5.6-10.73,7.73c-1.92,1.05-3.88,2.03-5.87,2.97
				c-2.18,1.03-4.47,1.84-6.61,0.26c-1.73-1.28-2.94-3.31-4.07-5.09c-0.57-0.89-1.22-1.81-1.6-2.8c-0.52-1.33-0.1-2.15,1.07-2.87
				c4.78-2.92,9.8-5.52,14.68-8.27C95.14,114.6,94.13,112.87,93.01,113.5L93.01,113.5z"/>
		</g>
	</g>
	<g>
		<path class="st0" d="M45.4,130.4c-1.36-2.07-2.89-4.04-4.56-5.88c-0.76-0.83-1.64-1.69-2.77-1.8c-0.36-0.03-0.79,0.05-0.96,0.38
			c-0.09,0.18-0.09,0.39-0.05,0.59c0.14,0.76,0.67,1.38,1.19,1.95c1.69,1.88,3.46,3.69,5.31,5.4c0.34,0.31,0.84,0.64,1.22,0.38
			c0.32-0.21,0.3-0.67,0.26-1.05"/>
		<g>
			<path class="st0" d="M46.26,129.9c-1.13-1.71-2.37-3.36-3.7-4.93c-1.18-1.38-2.48-3.05-4.42-3.24c-1.02-0.1-2.03,0.51-2.09,1.59
				c-0.06,1.02,0.58,1.95,1.21,2.69c1.3,1.53,2.73,2.97,4.17,4.37c0.39,0.38,0.79,0.76,1.19,1.14c0.42,0.39,0.87,0.8,1.45,0.94
				c0.58,0.14,1.18-0.04,1.57-0.49c0.39-0.44,0.46-1.04,0.4-1.6c-0.06-0.54-0.42-1-1-1c-0.5,0-1.06,0.46-1,1
				c0.01,0.13-0.01,0.29,0.02,0.41c0.04,0.15-0.02,0.03,0,0.02c0.03-0.05,0.07-0.11,0.1-0.16c0.1-0.04,0.19-0.09,0.29-0.13
				c0.01-0.09,0.21,0.2-0.08-0.09c-0.12-0.13-0.27-0.25-0.4-0.37c-0.56-0.53-1.12-1.06-1.66-1.6c-1.11-1.1-2.19-2.24-3.24-3.4
				c-0.21-0.23-0.42-0.46-0.6-0.71c-0.1-0.14-0.19-0.28-0.27-0.43c-0.06-0.13-0.08-0.32-0.15-0.43c-0.12-0.16,0.03-0.05-0.01-0.03
				c0.01,0-0.21,0.27-0.21,0.27c-0.02,0.06-0.22-0.11,0.06-0.02c-0.01,0-0.13,0.01,0.01,0.01c0.23,0,0.46,0.07,0.67,0.18
				c0.54,0.27,0.97,0.7,1.37,1.14c0.52,0.56,1.02,1.14,1.51,1.73c1.1,1.32,2.12,2.71,3.07,4.15c0.3,0.45,0.88,0.64,1.37,0.36
				C46.35,131,46.56,130.35,46.26,129.9L46.26,129.9z"/>
		</g>
	</g>
	<g>
		<path class="st0" d="M51.42,139.2c-2.97-0.87-6.31-1.31-9.04,0.15c-0.33,0.18-0.69,0.44-0.71,0.82c-0.02,0.51,0.57,0.81,1.07,0.91
			c1.44,0.28,2.92,0.01,4.35-0.25c1.18-0.22,2.36-0.44,3.54-0.66c0.55-0.1,1.18-0.27,1.4-0.78c-0.24-0.2-0.55-0.32-0.86-0.34"/>
		<g>
			<path class="st0" d="M51.69,138.24c-3.15-0.91-6.72-1.37-9.73,0.21c-0.71,0.37-1.31,0.99-1.28,1.85
				c0.04,0.86,0.78,1.44,1.54,1.69c1.73,0.55,3.71,0.08,5.44-0.24c1.02-0.19,2.03-0.38,3.05-0.57c0.87-0.16,1.76-0.44,2.2-1.28
				c0.27-0.52,0.09-1.03-0.36-1.37c-0.41-0.31-0.86-0.42-1.36-0.48c-0.54-0.06-1,0.51-1,1c0,0.59,0.46,0.94,1,1
				c0.13,0.02,0.25,0.13,0.35,0.21c-0.12-0.46-0.24-0.91-0.36-1.37c-0.1,0.19-0.32,0.21-0.53,0.26c-0.42,0.1-0.84,0.16-1.26,0.24
				c-0.85,0.16-1.7,0.32-2.56,0.48c-0.86,0.16-1.73,0.32-2.61,0.34c-0.4,0.01-0.82,0-1.21-0.08c-0.21-0.04-0.59-0.31-0.35,0.18
				c0.05,0.11-0.11,0.07,0.1-0.02c0.2-0.08,0.39-0.21,0.6-0.3c0.29-0.12,0.59-0.22,0.9-0.3c0.75-0.2,1.52-0.28,2.3-0.28
				c1.57,0,3.1,0.33,4.61,0.76C52.39,140.52,52.92,138.59,51.69,138.24L51.69,138.24z"/>
		</g>
	</g>
</g>
<g id="Ebene_6">
	<g>
		<path class="st1" d="M98.48,38.58c-1.16-0.89-2.72-1.3-4.13-0.91c-1.41,0.39-2.59,1.64-2.74,3.09c-0.14,1.38,0.62,2.73,1.65,3.66
			c2.91,2.62,8.1,1.98,10.28-1.27c-0.69,1.69,1.1,3.36,2.78,4.07c1.83,0.77,3.88,1.17,5.83,0.76c1.95-0.41,3.76-1.72,4.46-3.58
			c0.43,1.62,1.92,2.74,3.43,3.46c2.19,1.04,4.75,1.51,7.05,0.74c2.3-0.77,4.18-2.99,4.07-5.41c0.19,1.06,1.44,1.51,2.5,1.67
			c2.4,0.35,5.24-0.08,6.53-2.13c0.26-0.42,0.45-0.91,0.43-1.4c-0.04-0.94-0.8-1.71-1.63-2.15c-1.81-0.96-4.18-0.75-5.8,0.51
			c1.94-2.41,0.6-6.53-2.29-7.64c-2.89-1.11-6.43,0.71-7.55,3.6c0.58-4.85-2.96-9.85-7.74-10.91c-0.93-0.21-1.9-0.27-2.83-0.05
			c-2.02,0.49-3.49,2.33-4.13,4.32s-0.57,4.11-0.5,6.19c-0.25-1.11-0.54-2.29-1.34-3.1c-1.52-1.53-4.29-0.98-5.73,0.62
			c-1.44,1.6-1.83,3.88-1.95,6.03"/>
		<g>
			<path class="st1" d="M98.99,37.72c-2.18-1.54-5.29-1.68-7.18,0.4c-1.86,2.04-1.34,4.88,0.48,6.76c3.37,3.48,9.43,2.58,12.13-1.21
				c-0.61-0.26-1.22-0.51-1.83-0.77c-1.16,3.76,3.73,5.78,6.62,6.16c3.5,0.46,6.98-1.02,8.38-4.38c-0.64,0-1.29,0-1.93,0
				c1.18,3.69,5.99,5.54,9.58,5.3c3.62-0.25,6.97-2.94,6.94-6.77c-0.65,0.09-1.31,0.18-1.96,0.27c0.63,2.16,3.19,2.55,5.14,2.51
				c2.07-0.04,4.28-0.7,5.53-2.46c1.4-1.98,0.55-4.23-1.54-5.27c-2.13-1.05-4.73-0.8-6.65,0.59c0.46,0.46,0.91,0.91,1.37,1.37
				c2.1-2.82,0.83-7.24-2.24-8.82c-3.47-1.79-7.87,0.33-9.32,3.77c0.62,0.17,1.24,0.34,1.86,0.5c0.52-5.19-3.06-10.45-8.13-11.79
				c-2.79-0.74-5.49,0-7.23,2.35c-1.93,2.59-1.92,5.9-1.83,8.99c0.65-0.09,1.31-0.18,1.96-0.27c-0.36-1.55-0.86-3.2-2.29-4.1
				c-1.28-0.8-2.89-0.79-4.27-0.28c-3.35,1.26-4.23,4.98-4.42,8.18c-0.08,1.29,1.92,1.28,2,0c0.13-2.16,0.53-4.9,2.6-6.07
				c0.82-0.46,1.94-0.68,2.82-0.26c1.13,0.54,1.39,1.96,1.64,3.06c0.25,1.1,2,0.86,1.96-0.27c-0.08-2.46-0.22-5.19,1.13-7.37
				c1.38-2.22,3.69-2.68,6.06-1.84c3.93,1.39,6.41,5.58,6,9.66c-0.1,0.96,1.48,1.41,1.86,0.5c1.02-2.42,3.99-4.32,6.59-3.05
				c2.21,1.08,2.98,4.13,1.52,6.08c-0.59,0.79,0.58,1.94,1.37,1.37c1.13-0.82,2.47-1.18,3.85-0.85c0.64,0.15,1.34,0.45,1.76,0.98
				c0.57,0.73,0.17,1.51-0.42,2.09c-0.83,0.81-2.07,1.12-3.19,1.18c-0.94,0.05-3.21,0.14-3.55-1.03c-0.31-1.07-1.97-0.88-1.96,0.27
				c0.02,2.89-2.68,4.74-5.37,4.79c-2.52,0.04-6.37-1.17-7.23-3.85c-0.32-1.01-1.56-0.88-1.93,0c-0.91,2.19-3.38,3.13-5.61,3
				c-1.7-0.1-6.31-1.22-5.53-3.71c0.36-1.15-1.2-1.65-1.83-0.77c-1.71,2.41-5.35,3.11-7.9,1.65c-1.42-0.82-2.79-2.63-1.9-4.3
				c1.06-1.98,3.53-1.67,5.1-0.56C99.03,40.19,100.03,38.46,98.99,37.72L98.99,37.72z"/>
		</g>
	</g>
	<g>
		<path class="st1" d="M81.77,55.41c0-1.46-0.32-2.98-1.23-4.13c-0.91-1.15-2.5-1.83-3.89-1.39c-1.28,0.41-2.16,1.65-2.49,2.96
			c-0.33,1.3-0.21,2.68-0.09,4.02c-0.63-0.6-1.63-0.46-2.48-0.28c-0.79,0.17-1.6,0.36-2.25,0.84c-0.65,0.48-1.11,1.31-0.9,2.09
			c0.24,0.92,1.32,1.41,2.27,1.32c0.95-0.09,1.79-0.62,2.6-1.13c-0.56,0.61,0.31,1.49,1.08,1.78c1.61,0.6,3.35,0.84,5.06,0.69
			c0.94-0.08,1.9-0.29,2.66-0.85s1.27-1.53,1.06-2.45c1.52,1.98,3.96,3.24,6.46,3.32c1.12,0.04,2.58-0.55,2.43-1.66
			c-0.08-0.63-0.71-1.07-1.34-1.15c-0.63-0.08-1.26,0.11-1.86,0.3c0.96-1.76,0.1-4.25-1.73-5.06c-1.84-0.8-4.25,0.26-4.89,2.16"/>
		<g>
			<path class="st1" d="M82.77,55.41c-0.06-3.13-1.8-6.85-5.47-6.64c-4.09,0.23-4.51,5.02-4.24,8.1c0.5-0.29,1-0.58,1.5-0.86
				c-1.24-0.94-3.06-0.54-4.43-0.07c-1.32,0.45-2.6,1.42-2.74,2.92c-0.12,1.29,0.7,2.38,1.89,2.8c1.62,0.57,3.16-0.22,4.51-1.08
				c-0.46-0.46-0.91-0.91-1.37-1.37c-1.85,3.03,3.95,3.97,5.71,4.02c2.6,0.06,6.45-0.98,6.01-4.34c-0.57,0.24-1.14,0.47-1.71,0.71
				c1.9,2.36,5.79,4.53,8.87,3.31c1.26-0.5,2.19-1.8,1.51-3.16c-0.82-1.63-2.78-1.46-4.25-1.01c0.38,0.49,0.75,0.98,1.13,1.47
				c1.13-2.34,0.27-5.4-2.21-6.47c-2.49-1.08-5.29,0.4-6.24,2.81c-0.47,1.2,1.46,1.72,1.93,0.53c0.52-1.32,2.22-2.08,3.53-1.5
				c1.32,0.59,1.88,2.35,1.26,3.62c-0.36,0.74,0.24,1.74,1.13,1.47c0.38-0.12,1.27-0.51,1.64-0.23c0.5,0.37,0.13,0.5-0.24,0.65
				c-0.73,0.29-1.67,0.1-2.39-0.09c-1.72-0.44-3.15-1.44-4.26-2.81c-0.52-0.64-1.82-0.13-1.71,0.71c0.25,1.9-1.93,2.3-3.37,2.34
				c-0.84,0.03-1.68-0.04-2.5-0.21c-0.15-0.03-2.23-0.62-2.13-0.79c0.52-0.84-0.52-1.9-1.37-1.37c-0.65,0.41-1.37,0.93-2.17,0.99
				c-0.67,0.05-1.51-0.29-1.12-1.12c0.49-1.04,3.16-1.66,4.06-0.98c0.59,0.45,1.57-0.15,1.5-0.86c-0.16-1.88-0.48-5.77,2.24-6.1
				c2.52-0.31,3.44,2.71,3.47,4.64C80.8,56.7,82.8,56.7,82.77,55.41L82.77,55.41z"/>
		</g>
	</g>
	<g>
		<path class="st1" d="M68.71,37.89c1.52,0.6,3.4,1.15,4.65,0.1c1.42-1.2,0.6-3.89-1.19-4.39c-1.79-0.5-3.74,0.93-4.17,2.74
			c0.02-1.33-0.05-2.66-0.22-3.97c-0.13-1.02-0.33-2.07-0.97-2.88c-0.83-1.05-2.39-1.45-3.62-0.93s-2.04,1.9-1.88,3.23
			c0.49-2.65-0.54-5.52-2.6-7.25c-2.06-1.73-5.07-2.24-7.59-1.3c-0.71,0.27-1.42,0.67-1.8,1.33c-0.24,0.41-0.34,0.88-0.42,1.34
			c-0.28,1.62-0.36,3.28-0.25,4.92c-0.59-1.55-2-2.76-3.62-3.13c-0.71-0.16-1.52-0.14-2.07,0.33c-0.45,0.39-0.62,0.99-0.74,1.57
			c-0.31,1.53-0.35,3.12-0.13,4.67c-0.93-1.29-2.95-1.62-4.25-0.71s-1.69,2.9-0.85,4.25s2.77,1.88,4.2,1.17
			c0.72-0.36,1.27-0.96,1.82-1.54c-0.02,1.25,1.51,1.84,2.74,2.08c1.94,0.38,3.91,0.77,5.89,0.65c1.98-0.12,4-0.8,5.34-2.25
			c0.97,1.95,3.31,3,5.48,2.77c2.17-0.23,4.11-1.55,5.45-3.27"/>
		<g>
			<path class="st1" d="M68.44,38.86c1.74,0.67,3.94,1.25,5.52-0.08c1.22-1.02,1.38-2.75,0.73-4.13c-1.77-3.78-6.67-1.92-7.65,1.44
				c0.65,0.09,1.31,0.18,1.96,0.27c0.02-2.9,0.16-7.47-3.14-8.72c-2.83-1.07-5.73,1.18-5.55,4.17c0.06,1.05,1.78,1.44,1.96,0.27
				c0.74-4.66-2.15-9.29-6.92-10.13c-2.1-0.37-4.81-0.1-6.39,1.49c-0.84,0.84-1,1.99-1.15,3.11c-0.19,1.43-0.23,2.86-0.15,4.3
				c0.62-0.17,1.24-0.34,1.86-0.5C48.59,28.17,46,26.1,43.5,26.7c-2.96,0.72-2.7,5.27-2.4,7.57c0.57-0.24,1.14-0.47,1.71-0.71
				c-2.52-3.11-7.49-1.01-7.23,2.91c0.11,1.76,1.36,3.2,3.05,3.66c2.1,0.57,3.72-0.5,5.1-1.98c-0.57-0.24-1.14-0.47-1.71-0.71
				c0.27,3.05,4.33,3.29,6.67,3.59c3.22,0.41,6.62,0,9.01-2.4c-0.52-0.07-1.05-0.13-1.57-0.2c1.15,2.1,3.45,3.32,5.83,3.29
				c2.66-0.03,5.04-1.58,6.68-3.59c0.8-0.99-0.6-2.41-1.41-1.41c-1.23,1.51-2.86,2.79-4.86,2.98c-1.83,0.18-3.62-0.66-4.5-2.28
				c-0.31-0.57-1.13-0.65-1.57-0.2c-1.66,1.67-3.96,2.08-6.23,1.95c-1.21-0.07-2.4-0.28-3.58-0.52c-0.65-0.13-2.37-0.31-2.45-1.2
				c-0.07-0.81-1.07-1.39-1.71-0.71c-0.72,0.77-1.49,1.63-2.64,1.56c-1.03-0.06-1.93-0.76-2.08-1.8c-0.33-2.32,2.44-3.2,3.81-1.52
				c0.52,0.64,1.82,0.14,1.71-0.71c-0.16-1.26-0.65-5.24,0.98-5.64c1.61-0.39,3.17,1.43,3.71,2.7c0.39,0.92,1.92,0.44,1.86-0.5
				c-0.06-0.97-0.06-1.94,0.01-2.91c0.06-0.82,0.05-2.1,0.52-2.84c0.92-1.44,3.56-1.46,5.02-1.14c3.44,0.75,5.7,4.12,5.15,7.59
				c0.65,0.09,1.31,0.18,1.96,0.27c-0.12-2.04,2.28-3.42,3.72-1.67c1.21,1.47,0.98,4.44,0.97,6.21c-0.01,1.14,1.65,1.35,1.96,0.27
				c0.49-1.67,3.17-3.24,3.99-0.95c0.94,2.63-2.72,1.75-3.99,1.26C67.77,36.47,67.25,38.4,68.44,38.86L68.44,38.86z"/>
		</g>
	</g>
	<g>
		<path class="st1" d="M43.33,58.23c0.79-2.15-0.25-4.71-2.13-6.01c-1.88-1.3-4.4-1.45-6.58-0.76c-1.05,0.34-2.08,0.88-2.73,1.78
			c-1.15,1.59-0.82,3.77-0.44,5.69c-0.89-0.98-1.96-1.86-3.24-2.19c-1.28-0.32-2.81,0.06-3.52,1.17c-0.71,1.11-0.19,2.91,1.09,3.2
			c-1.74-0.34-3.63,1.07-3.79,2.84c-0.16,1.77,1.47,3.49,3.25,3.42c1.97-0.08,3.35-1.91,4.44-3.56c-0.63,0.71-0.44,1.88,0.18,2.59
			c0.62,0.71,1.56,1.06,2.47,1.32c2.46,0.69,5.11,0.9,7.57,0.2c2.46-0.7,4.7-2.38,5.72-4.72c-0.06,1.21,0.8,2.32,1.88,2.87
			c1.08,0.54,2.34,0.61,3.55,0.56c2.29-0.1,4.99-1.01,5.52-3.25c0.32-1.35-0.4-2.87-1.64-3.48c-1.24-0.61-2.89-0.25-3.76,0.82
			c0.37-1.75,0.6-3.84-0.71-5.05c-1.16-1.07-3.11-0.87-4.37,0.08c-1.27,0.95-2,2.44-2.56,3.92"/>
		<g>
			<path class="st1" d="M44.29,58.5c1.48-4.57-2.67-8.42-7.03-8.44c-2.1-0.01-4.57,0.67-5.96,2.34c-1.61,1.93-1.25,4.52-0.81,6.81
				c0.56-0.32,1.11-0.65,1.67-0.97c-1.87-1.99-4.98-3.7-7.5-1.71c-1.96,1.54-1.58,4.78,0.87,5.57c0.09-0.65,0.18-1.31,0.27-1.96
				c-3.73-0.5-6.24,3.98-3.7,6.82c1.16,1.3,2.94,1.76,4.57,1.14c1.74-0.66,2.9-2.26,3.89-3.76c0.72-1.09-0.99-2.04-1.73-1.01
				c-1.05,1.45-0.39,3.36,0.96,4.35c1.7,1.26,4.28,1.6,6.34,1.68c4.18,0.16,8.53-1.7,10.37-5.64c-0.62-0.17-1.24-0.34-1.86-0.5
				c0.12,5.46,8.48,5.42,11.58,2.63c1.66-1.49,1.92-4.02,0.49-5.77c-1.6-1.95-4.55-1.86-6.22-0.05c0.56,0.32,1.11,0.65,1.67,0.97
				c0.55-2.73,0.47-6.46-3.02-6.99c-3.45-0.52-5.47,2.63-6.56,5.4c-0.47,1.2,1.46,1.72,1.93,0.53c0.68-1.73,1.81-4,3.99-3.98
				c2.42,0.02,2.05,2.91,1.73,4.5c-0.18,0.92,0.95,1.76,1.67,0.97c1.07-1.16,3.02-1.1,3.63,0.52c0.5,1.32-0.4,2.43-1.53,2.99
				c-1.96,0.97-7.28,1.5-7.35-1.74c-0.02-0.92-1.42-1.45-1.86-0.5c-1.25,2.67-3.87,4.26-6.75,4.59c-1.19,0.13-9.37-0.32-7.46-2.96
				c-0.58-0.34-1.15-0.67-1.73-1.01c-0.96,1.45-2.8,4.06-4.81,2.68c-2.12-1.45-0.49-4.18,1.77-3.87c1.16,0.16,1.28-1.63,0.27-1.96
				c-0.54-0.17-0.76-0.79-0.65-1.32c0.14-0.68,0.79-1.04,1.43-1.17c1.57-0.31,2.93,0.91,3.92,1.96c0.73,0.78,1.85-0.05,1.67-0.97
				c-0.31-1.58-0.74-3.65,0.41-5.01c1.02-1.2,2.93-1.61,4.43-1.61c3.11,0.01,6.17,2.6,5.1,5.91C41.97,59.19,43.9,59.72,44.29,58.5
				L44.29,58.5z"/>
		</g>
	</g>
</g>
<g id="Ebene_3">
	<g>
		<g>
			<path d="M99.5,37.31c-1.88-1.74-4.65-1.9-6.87-0.7c-2.4,1.29-3.41,4.02-2.77,6.62c0.67,2.72,2.95,4.84,5.73,5.19
				c2.98,0.37,5.83-1.1,7.57-3.48c-0.58-0.34-1.15-0.67-1.73-1.01c-2.5,3.92,3.82,6.13,6.61,6.39c3.78,0.35,7.65-1.07,10.28-3.8
				c-0.57-0.24-1.14-0.47-1.71-0.71c-0.15,1.88,1.31,3.15,2.96,3.69c2.01,0.67,4.47,1.08,6.59,0.96c3.38-0.19,7.05-2.52,6.79-6.3
				c-0.62,0.17-1.24,0.34-1.86,0.5c1.01,1.93,3.21,2.82,5.32,2.53c2.33-0.32,4.16-2.07,5.32-4.02c1.33-2.24,1.27-4.44-1.26-5.68
				c-2.33-1.15-4.99-1.04-7.28,0.14c0.49,0.38,0.98,0.75,1.47,1.13c0.62-1.82,1.18-3.82,0.38-5.67c-0.7-1.62-2.3-2.63-3.98-3.01
				c-3.47-0.79-7.01,0.74-9.07,3.57c0.61,0.26,1.22,0.51,1.83,0.77c2.04-6.01-3.62-10.79-9.17-11.09c-2.7-0.15-5.5,0.7-7,3.08
				c-1.43,2.27-1.29,5.2-1.06,7.75c0.09,1.04,1.74,1.45,1.96,0.27c0.66-3.49-2.67-6.31-6.03-5.38c-3.94,1.09-5.13,5.37-4.29,8.97
				c0.29,1.25,2.22,0.72,1.93-0.53c-0.53-2.28-0.13-5.03,2.15-6.21c1.88-0.97,4.79,0.15,4.32,2.62c0.65,0.09,1.31,0.18,1.96,0.27
				c-0.16-1.89-0.34-3.94,0.32-5.76c0.82-2.3,3.07-3.14,5.36-3.09c4.44,0.08,9.3,3.68,7.64,8.57c-0.39,1.15,1.21,1.63,1.83,0.77
				c1.44-1.98,3.98-3.09,6.41-2.73c1.24,0.19,2.65,0.8,3.13,2.06c0.52,1.36-0.09,2.95-0.53,4.24c-0.3,0.88,0.74,1.5,1.47,1.13
				c1.42-0.73,3.06-0.9,4.59-0.41c0.88,0.28,1.96,0.73,1.85,1.8c-0.07,0.68-0.65,1.49-1.04,2.04c-1.47,2.09-5.2,3.88-6.78,0.86
				c-0.45-0.86-1.93-0.48-1.86,0.5c0.18,2.66-2.44,4.16-4.79,4.3c-1.39,0.09-2.77-0.16-4.12-0.43c-1.25-0.26-3.56-0.51-3.43-2.22
				c0.07-0.88-1.13-1.3-1.71-0.71c-1.86,1.93-4.39,3.09-7.08,3.25c-1.38,0.08-8.32-0.82-6.67-3.42c0.7-1.11-0.98-2.03-1.73-1.01
				c-2.47,3.4-8.17,3.51-9.55-0.92c-0.53-1.71-0.05-3.56,1.51-4.53c1.44-0.9,3.42-0.95,4.7,0.24C99.03,39.6,100.44,38.19,99.5,37.31
				L99.5,37.31z"/>
		</g>
	</g>
	<g>
		<g>
			<path d="M42.29,40.18c4.59,3,10.63,3.11,15.35,0.34c-0.5-0.29-1-0.58-1.5-0.86c0.05,2.89,3.67,3.05,5.81,2.97
				c2.61-0.09,5.34-0.72,6.77-3.11c-0.52,0.07-1.05,0.13-1.57,0.2c2.95,3.15,9.4-0.35,8.91-4.44c-0.54-4.56-6.54-4.95-8.2-0.93
				c0.64,0.18,1.29,0.35,1.93,0.53c0.91-3.01-0.18-6.92-3.36-8.08c-2.71-0.99-6.24,0.59-6.74,3.57c-0.21,1.26,1.51,1.77,1.93,0.53
				c1.61-4.75-1.75-9.77-6.76-10.03c-5.07-0.27-8.72,4.59-7.61,9.41c0.29,1.28,2.11,0.71,1.93-0.53c-0.44-2.96-4.15-4.51-6.72-3.21
				c-2.95,1.49-3.4,5.5-1.8,8.12c0.62,1.01,2.02,0.32,1.83-0.77c-0.43-2.39-3.23-3.46-5.37-2.73c-2.06,0.7-3.49,2.81-3.6,4.94
				c-0.26,4.83,6.38,6.85,9.25,3.21c0.79-1-0.62-2.42-1.41-1.41c-1.56,1.97-5.51,1.67-5.83-1.2c-0.14-1.26,0.53-2.62,1.58-3.32
				c1.18-0.79,3.16-0.56,3.45,1.05c0.61-0.26,1.22-0.51,1.83-0.77c-0.97-1.59-0.98-4.19,0.82-5.24c1.58-0.92,3.78,0.09,4.04,1.88
				c0.64-0.18,1.29-0.35,1.93-0.53c-0.83-3.59,1.95-7.1,5.68-6.87c3.78,0.23,6.01,4.02,4.83,7.5c0.64,0.18,1.29,0.35,1.93,0.53
				c0.32-1.89,2.56-2.93,4.29-2.16c2.09,0.93,2.55,3.63,1.96,5.61c-0.38,1.27,1.45,1.69,1.93,0.53c0.96-2.33,4.44-1.49,4.31,1.01
				c-0.1,2.09-4,4.07-5.54,2.42c-0.45-0.48-1.25-0.33-1.57,0.2c-0.91,1.53-2.7,1.96-4.36,2.08c-0.87,0.07-4.47,0.41-4.49-0.93
				c-0.01-0.75-0.84-1.25-1.5-0.86c-4.13,2.43-9.32,2.28-13.33-0.34C42.21,37.74,41.21,39.47,42.29,40.18L42.29,40.18z"/>
		</g>
	</g>
	<g>
		<g>
			<path d="M45.5,56.65c0.39-5.2-4.8-8.41-9.53-7.8c-2.25,0.29-4.47,1.4-5.73,3.34c-1.27,1.95-1.36,4.55-0.08,6.51
				c0.7,1.07,2.35,0.13,1.73-1.01c-1.53-2.77-5.05-4.26-7.85-2.34c-2.52,1.72-2.51,5.36-0.05,7.11c0.34-0.58,0.67-1.15,1.01-1.73
				c-3.49-1.85-7.24,2.04-5.65,5.53c1.95,4.27,7.47,3.56,10.01,0.32c-0.56-0.32-1.11-0.65-1.67-0.97c-0.79,4.7,6.37,5.2,9.53,5.21
				c4.05,0,8.3-1.69,10.14-5.52c-0.62-0.17-1.24-0.34-1.86-0.5c0.17,3.07,3.25,3.91,5.85,3.76c2.74-0.16,5.64-1.13,7.04-3.68
				c1.21-2.21,0.64-5-1.4-6.5c-2.06-1.52-4.94-1.08-6.64,0.76c-0.88,0.96,0.44,2.24,1.41,1.41c2.05-1.75,1.67-5.26-0.51-6.75
				c-2.48-1.7-5.87-0.31-7.21,2.16c-0.62,1.13,1.11,2.14,1.73,1.01c0.77-1.41,2.68-2.52,4.23-1.6c1.33,0.79,1.49,2.79,0.34,3.77
				c0.47,0.47,0.94,0.94,1.41,1.41c2.55-2.77,6.76,0.46,4.71,3.63c-0.9,1.38-2.53,2.03-4.09,2.27c-1.46,0.22-4.76,0.5-4.88-1.66
				c-0.05-0.91-1.4-1.46-1.86-0.5c-1.31,2.74-4.11,4.19-7.05,4.47c-1.65,0.16-3.33,0-4.95-0.3c-1.14-0.21-4.3-0.54-4-2.32
				c0.14-0.85-0.98-1.85-1.67-0.97c-1.49,1.91-4.48,3.19-6.33,0.97c-0.69-0.83-0.97-1.99-0.29-2.91c0.6-0.81,1.73-1.26,2.66-0.76
				c1.15,0.61,2.05-0.99,1.01-1.73c-1.53-1.09-0.91-3.3,0.63-4c1.83-0.83,3.66,0.36,4.54,1.96c0.58-0.34,1.15-0.67,1.73-1.01
				c-2.28-3.49,1.52-6.73,4.86-6.92c3.48-0.2,7.03,2.08,6.75,5.88C43.4,57.94,45.4,57.93,45.5,56.65L45.5,56.65z"/>
		</g>
	</g>
	<g>
		<g>
			<path d="M73.2,55.28c-2.93-2.36-7.54-0.52-7.32,3.47c0.22,3.89,5.03,5.46,7.65,2.67c-0.56-0.32-1.11-0.65-1.67-0.97
				c-1.39,3.91,4.31,4.72,6.85,4.65c2.68-0.07,7.59-1.24,5.85-5.01c-0.58,0.34-1.15,0.67-1.73,1.01c1.69,3.31,7.79,4.45,10.26,1.42
				c1.08-1.33,1.28-3.56-0.23-4.67c-1.29-0.94-3.24-0.69-4.03,0.75c0.58,0.34,1.15,0.67,1.73,1.01c1.19-2.42,0.31-5.6-2.22-6.77
				c-2.64-1.22-5.71,0.39-6.65,3.01c0.65,0.09,1.31,0.18,1.96,0.27c-0.09-3.53-1.03-8.79-5.65-8.69c-4.23,0.09-6.06,4.39-6.02,8.05
				c0.01,1.29,2.01,1.29,2,0c-0.02-2.5,0.95-5.97,4.02-6.05c3.32-0.09,3.59,4.35,3.65,6.69c0.03,1.16,1.59,1.31,1.96,0.27
				c0.55-1.51,2.5-2.45,3.99-1.68c1.36,0.7,1.89,2.56,1.23,3.9c-0.56,1.14,1.1,2.15,1.73,1.01c0.51-0.92,1.51,0.05,1.39,0.83
				c-0.17,1.1-1.33,1.59-2.3,1.72c-1.86,0.25-4.16-0.28-5.08-2.07c-0.59-1.16-2.26-0.14-1.73,1.01c0.86,1.86-3.77,2.01-4.58,2
				c-1.11-0.01-5.18-0.14-4.47-2.12c0.34-0.95-1.01-1.68-1.67-0.97c-1.39,1.48-4,0.94-4.23-1.24c-0.22-2.11,2.25-3.41,3.9-2.08
				C72.78,57.49,74.2,56.09,73.2,55.28L73.2,55.28z"/>
		</g>
	</g>
	<g>
		<g>
			<path d="M127.59,78.96c-6.87-5.72-16.25-9.64-24.74-4.97c-6.61,3.64-10.5,11.17-11.07,18.52c-0.6,7.69,2.9,15.29,10.05,18.68
				c4.53,2.15,9.89,2.68,14.83,2.09c5.47-0.66,10.09-3.77,13-8.42c2.76-4.41,3.96-9.84,3.68-15.01c-0.23-4.42-1.54-9.38-5.01-12.4
				c-0.75-0.65-1.58-1.2-2.49-1.6c-1.17-0.51-2.19,1.21-1.01,1.73c3.7,1.62,5.46,5.59,6.17,9.34c0.88,4.62,0.3,9.63-1.52,13.96
				c-1.87,4.44-5.29,8.25-9.96,9.75c-4.55,1.47-10.17,1.13-14.68-0.37c-6.85-2.28-10.96-8.4-11.12-15.52
				c-0.14-6.6,2.74-13.6,8.05-17.66c6.51-4.98,14.67-3.44,21.11,0.83c1.15,0.76,2.24,1.59,3.3,2.47
				C127.16,81.19,128.58,79.78,127.59,78.96L127.59,78.96z"/>
		</g>
	</g>
	<g>
		<g>
			<path d="M101.16,82.84c-0.59,1.75,0.21,3.86,1.82,4.78c1.6,0.92,3.82,0.58,5.05-0.81c0.35-0.39,0.42-1.03,0-1.41
				c-0.38-0.35-1.04-0.42-1.41,0c-0.09,0.1-0.23,0.3-0.36,0.35c0.11-0.08,0.12-0.09,0.03-0.03c-0.02,0.01-0.04,0.03-0.06,0.04
				c-0.08,0.05-0.16,0.1-0.24,0.15c-0.05,0.03-0.13,0.09-0.19,0.09c0.13-0.05,0.14-0.06,0.04-0.02c-0.03,0.01-0.07,0.02-0.1,0.04
				c-0.15,0.05-0.3,0.08-0.45,0.12c-0.2,0.04,0.21-0.02-0.05,0.01c-0.08,0.01-0.17,0.01-0.25,0.01c-0.07,0-0.14,0-0.21-0.01
				c-0.05,0-0.09-0.01-0.14-0.01c0.14,0.02,0.17,0.02,0.09,0.01c-0.15-0.03-0.3-0.06-0.45-0.11c-0.05-0.01-0.09-0.03-0.13-0.05
				c0.12,0.05,0.14,0.06,0.08,0.03c-0.07-0.04-0.15-0.07-0.22-0.11c-0.06-0.04-0.12-0.08-0.18-0.11c-0.09-0.06-0.08-0.05,0.03,0.03
				c-0.04-0.03-0.07-0.06-0.11-0.09c-0.11-0.1-0.2-0.2-0.3-0.31c-0.07-0.08-0.06-0.07,0.02,0.03c-0.03-0.04-0.06-0.08-0.08-0.12
				c-0.04-0.06-0.08-0.12-0.11-0.18c-0.04-0.06-0.07-0.13-0.1-0.19c-0.05-0.1-0.04-0.09,0.01,0.04c-0.02-0.04-0.04-0.09-0.05-0.13
				c-0.05-0.13-0.09-0.27-0.12-0.41c-0.01-0.05-0.02-0.09-0.03-0.14c-0.02-0.11-0.02-0.09,0.01,0.05c0.01-0.04-0.01-0.17-0.01-0.21
				c0-0.08,0-0.17,0-0.25c0-0.04,0-0.07,0.01-0.11c0.01-0.11,0.01-0.09-0.01,0.05c0.07-0.14,0.07-0.34,0.12-0.48
				c0.17-0.5-0.19-1.11-0.7-1.23C101.83,82.02,101.33,82.31,101.16,82.84L101.16,82.84z"/>
		</g>
	</g>
	<g>
		<g>
			<path d="M111.23,86.95c-0.47,2.09,1.1,3.9,2.95,4.61c0.82,0.32,1.73,0.39,2.59,0.23c0.93-0.16,1.7-0.67,2.25-1.43
				c0.31-0.42,0.09-1.13-0.36-1.37c-0.52-0.27-1.04-0.09-1.37,0.36c0.14-0.19-0.01,0.01-0.04,0.04c-0.05,0.06-0.11,0.1-0.17,0.16
				c0.12-0.11,0.05-0.03-0.04,0.03c-0.05,0.03-0.11,0.07-0.16,0.1c-0.06,0.03-0.11,0.06-0.17,0.08c0.22-0.1,0.01-0.01-0.05,0.01
				c-0.15,0.05-0.3,0.08-0.46,0.11c0.13-0.02,0.11-0.01-0.01-0.01c-0.08,0.01-0.16,0.01-0.24,0.01c-0.15,0-0.3-0.02-0.44-0.02
				c0.24,0.01-0.01,0-0.06-0.01c-0.08-0.01-0.16-0.03-0.24-0.05c-0.14-0.04-0.29-0.08-0.43-0.13c-0.1-0.04-0.14-0.06-0.02,0
				c-0.08-0.04-0.16-0.08-0.24-0.12c-0.15-0.08-0.29-0.16-0.42-0.26c-0.04-0.03-0.07-0.05-0.11-0.08c0.07,0.05,0.08,0.06,0.02,0.02
				c-0.05-0.05-0.11-0.1-0.17-0.15c-0.13-0.12-0.26-0.25-0.37-0.4c0.11,0.13-0.02-0.04-0.05-0.08c-0.04-0.06-0.08-0.12-0.11-0.19
				c-0.01-0.03-0.13-0.27-0.08-0.15c0.05,0.12-0.03-0.1-0.04-0.12c-0.03-0.08-0.04-0.16-0.06-0.25c-0.06-0.25-0.01,0.18,0-0.07
				c0-0.09,0-0.17,0-0.25c-0.01,0.18,0,0.01,0.02-0.08c0.12-0.51-0.16-1.11-0.7-1.23C111.95,86.13,111.35,86.4,111.23,86.95
				L111.23,86.95z"/>
		</g>
	</g>
	<g>
		<g>
			<path d="M99.13,93.88c-0.33,3.29,2.56,5.53,5.38,6.41c3.02,0.94,6.69,0.86,8.95-1.64c0.86-0.95-0.55-2.37-1.41-1.41
				c-1.74,1.93-4.49,1.87-6.81,1.19c-2.09-0.61-4.36-2.07-4.11-4.54c0.05-0.54-0.5-1-1-1C99.54,92.88,99.18,93.34,99.13,93.88
				L99.13,93.88z"/>
		</g>
	</g>
	<g>
		<g>
			<path d="M115.08,118.55c3.22,0.94,6.44,1.88,9.66,2.82c3.05,0.89,6.26,1.95,9.47,1.75c3.23-0.2,2.93-3.61,2.18-5.92
				c-1.03-3.14-2.31-6.21-3.54-9.27c-0.47-1.18-2.41-0.66-1.93,0.53c1.05,2.61,2.07,5.24,3.04,7.88c0.44,1.19,0.98,2.45,0.97,3.74
				c-0.01,0.72-0.15,1-0.91,1.04c-0.71,0.04-1.43-0.01-2.14-0.09c-2.71-0.3-5.35-1.22-7.96-1.99c-2.77-0.81-5.54-1.62-8.31-2.42
				C114.38,116.26,113.85,118.19,115.08,118.55L115.08,118.55z"/>
		</g>
	</g>
	<g>
		<path d="M125.87,108.53c1.22,0.19,2.47,0.21,3.7,0.07c0.46-0.05,0.93-0.13,1.35-0.32c1.46-0.66,2.01-2.45,2.21-4.05
			c0.19-1.58,0.2-3.18,0.01-4.76c-1.74,2.96-3.58,6.01-6.4,7.95"/>
		<g>
			<path d="M125.61,109.49c1.54,0.23,3.08,0.27,4.62,0.02c1.28-0.21,2.33-0.95,2.97-2.07c0.6-1.04,0.83-2.21,0.96-3.39
				c0.17-1.52,0.16-3.06-0.01-4.58c-0.05-0.44-0.28-0.84-0.73-0.96c-0.43-0.12-0.9,0.08-1.13,0.46c-1.64,2.77-3.35,5.71-6.05,7.59
				c-0.44,0.31-0.65,0.88-0.36,1.37c0.26,0.44,0.92,0.67,1.37,0.36c3-2.09,4.93-5.21,6.76-8.31c-0.62-0.17-1.24-0.34-1.86-0.5
				c0.14,1.29,0.17,2.58,0.07,3.88c-0.07,0.92-0.18,1.89-0.58,2.75c-0.39,0.84-0.94,1.31-1.87,1.47c-1.18,0.2-2.45,0.17-3.63,0
				c-0.53-0.08-1.07,0.13-1.23,0.7C124.78,108.73,125.07,109.41,125.61,109.49L125.61,109.49z"/>
		</g>
	</g>
	<g>
		<g>
			<path d="M99.64,108.57c-5.12,3.9-10.63,7.28-16.46,10.02c-1.41,0.66-2.84,1.29-4.28,1.88c-1.16,0.47-2.42,0.88-3.32,1.79
				c-2.12,2.13,0.24,4.85,1.49,6.76c1.59,2.42,3.25,5.06,5.33,7.09c2.29,2.23,4.83,2.23,7.79,1.45c5.61-1.47,10.86-4.22,15.3-7.95
				c2.64-2.22,5.04-4.81,7.19-7.5c2.02-2.52,3.74-5.3,4.26-8.54c0.2-1.26-1.72-1.8-1.93-0.53c-0.84,5.26-5.04,9.53-8.7,13.12
				c-3.76,3.68-8.28,6.58-13.23,8.39c-2.26,0.83-5.72,2.35-8.01,1.1c-2.14-1.17-3.64-3.83-4.99-5.76c-0.78-1.12-1.53-2.26-2.26-3.42
				c-0.73-1.18-1.75-2.29-0.22-3.25c1.01-0.63,2.23-0.98,3.32-1.44c1.31-0.56,2.6-1.14,3.89-1.76c5.6-2.69,10.91-5.97,15.85-9.73
				C101.66,109.53,100.67,107.79,99.64,108.57L99.64,108.57z"/>
		</g>
	</g>
	<g>
		<g>
			<path d="M75.88,122.71c-2.54-2.64-4.37-5.8-6.16-8.97c-0.87-1.55-1.73-3.1-2.66-4.6c-0.89-1.43-1.83-3.06-3.18-4.11
				c-3.05-2.37-6.01,0.42-7.22,3.25c-1.64,3.84-3.24,7.68-5.04,11.45c-2.04,4.25-4.23,8.43-6.56,12.53
				c0.38-0.15,0.75-0.31,1.13-0.46c-1.95-0.7-3.79-1.72-5.38-3.05c-1.47-1.23-3.29-2.93-3.88-4.8c-0.48-1.5,0.68-1.71,1.79-1.05
				c0.93,0.55,1.69,1.44,2.43,2.21c1.65,1.72,3.17,3.55,4.57,5.47c0.75,1.03,2.49,0.03,1.73-1.01c-1.94-2.67-4.08-5.38-6.58-7.55
				c-1.65-1.44-5.04-2.64-5.94,0.3c-0.77,2.52,1.68,5.17,3.3,6.78c2.1,2.09,4.65,3.64,7.43,4.64c0.41,0.15,0.92-0.1,1.13-0.46
				c2.41-4.24,4.67-8.56,6.76-12.96c1.01-2.13,1.99-4.28,2.92-6.44c0.88-2.03,1.53-4.36,2.74-6.21c0.69-1.06,1.88-1.94,3.15-1.26
				c0.86,0.46,1.45,1.44,1.98,2.22c1.15,1.69,2.16,3.47,3.16,5.25c2.03,3.62,4.07,7.26,6.97,10.27
				C75.36,125.05,76.78,123.63,75.88,122.71L75.88,122.71z"/>
		</g>
	</g>
	<g>
		<g>
			<path d="M84.63,135.83c-4.26-2.85-8.32-5.77-11.63-9.74c-2.59-3.1-5.56-7.33-9.84-8.12c-2.41-0.45-3.45,1.73-4.23,3.58
				c-1.05,2.5-2.06,5.01-3.02,7.54c-0.98,2.6-1.92,5.22-2.8,7.86c-0.45,1.34-0.6,2.67-2.16,3c-1.42,0.29-2.88,0.44-4.31,0.66
				c-1.48,0.22-3.05,0.62-4.55,0.66c-0.98,0.02-0.9-0.52-0.17-1.06c0.56-0.41,1.29-0.67,1.96-0.86c2.75-0.76,5.71-0.13,8.42,0.45
				c1.26,0.27,1.79-1.66,0.53-1.93c-2.63-0.56-5.35-1.09-8.05-0.73c-1.99,0.26-5.11,1.21-5.54,3.53c-0.47,2.58,2.48,2.68,4.2,2.43
				c1.4-0.21,2.8-0.42,4.2-0.63c1.54-0.23,3.31-0.26,4.76-0.86c0.96-0.39,1.55-1.1,1.93-2.05c0.6-1.48,1.03-3.05,1.55-4.56
				c1.02-2.93,2.1-5.83,3.24-8.71c0.61-1.54,1.22-3.09,1.89-4.61c0.23-0.51,0.48-1.26,0.96-1.58c0.65-0.44,1.53,0.02,2.15,0.32
				c2.28,1.07,4.03,2.99,5.63,4.89c1.9,2.25,3.7,4.52,5.93,6.45c2.47,2.15,5.2,3.98,7.92,5.8C84.7,138.28,85.7,136.54,84.63,135.83
				L84.63,135.83z"/>
		</g>
	</g>
</g>
<g id="Ebene_7">
	<g class="st3">
		<path d="M74.67,50.79c-0.25,2.41,0.56,4.87,1.97,6.84s3.39,3.49,5.52,4.64c-1.58,0.65-3.29,1.12-4.98,0.86
			c-1.69-0.27-3.32-1.42-3.72-3.08c-0.9,0.71-2.16,0.91-3.24,0.53c-1.07-0.39-1.92-1.35-2.16-2.47c-0.11-0.53-0.07-1.15,0.31-1.53
			c0.19-0.19,0.45-0.3,0.71-0.38c1.19-0.37,2.54-0.24,3.63,0.36c0.05-1.97,0.78-3.91,2.03-5.43"/>
		<g>
			<path d="M73.67,50.79c-0.5,5.47,3.49,9.89,7.99,12.35c0.08-0.61,0.16-1.22,0.24-1.83c-1.5,0.61-3.21,1.17-4.84,0.78
				c-1.2-0.29-2.29-1.08-2.63-2.31c-0.16-0.57-0.94-0.99-1.47-0.6c-1.24,0.91-2.98,0.72-3.72-0.73c-0.13-0.25-0.31-0.67-0.23-0.96
				c0.09-0.32,0.39-0.35,0.69-0.41c0.85-0.19,1.75-0.04,2.52,0.35c0.69,0.35,1.47-0.08,1.5-0.86c0.07-1.71,0.66-3.38,1.73-4.72
				c0.34-0.42,0.41-1,0-1.41c-0.35-0.35-1.08-0.42-1.41,0c-1.42,1.78-2.23,3.85-2.32,6.13c0.5-0.29,1-0.58,1.5-0.86
				c-1.35-0.69-2.94-0.93-4.4-0.46c-1.53,0.49-2.12,1.92-1.65,3.43c0.9,2.83,4.38,4.02,6.79,2.24c-0.49-0.2-0.98-0.4-1.47-0.6
				c0.48,1.77,1.93,3.04,3.64,3.59c2.08,0.67,4.33,0.12,6.28-0.67c0.74-0.3,1.06-1.38,0.24-1.83c-3.93-2.15-7.44-5.82-7-10.62
				C75.79,49.5,73.79,49.51,73.67,50.79L73.67,50.79z"/>
		</g>
	</g>
	<g class="st3">
		<path d="M34.2,50.89c-1.14,6.42,1.65,13.38,6.91,17.23c-0.81,1-2.29,1.08-3.57,0.95c-1.98-0.2-3.92-0.73-5.74-1.54
			c-1.24-0.56-2.57-1.48-2.64-2.84c-1.17,1.81-3.61,2.69-5.66,2.04c-0.84-0.27-1.64-0.81-1.97-1.62c-0.35-0.86-0.06-1.92,0.67-2.49
			s1.83-0.59,2.58-0.05c-0.76-1.08-1.12-2.48-0.79-3.76c0.33-1.28,1.42-2.38,2.73-2.55c1.85-0.24,3.42,1.26,4.69,2.63
			c-1.21-2.32-0.59-5.45,1.42-7.13"/>
		<g>
			<path d="M33.24,50.63c-1.17,6.98,1.71,14.13,7.37,18.36c-0.07-0.52-0.13-1.05-0.2-1.57c-1.26,1.37-4,0.56-5.53,0.15
				c-1.34-0.36-4.51-1.12-4.71-2.87c-0.11-0.98-1.27-1.36-1.86-0.5c-0.89,1.3-2.59,2.01-4.14,1.68c-0.77-0.16-1.78-0.65-1.77-1.57
				c0.02-1.03,1.12-1.35,1.89-0.87c0.83,0.51,1.92-0.53,1.37-1.37c-0.94-1.43-1.24-3.72,0.59-4.63c1.72-0.86,3.42,1.03,4.47,2.16
				c0.81,0.87,2.05-0.24,1.57-1.21c-0.99-2.02-0.39-4.46,1.27-5.92c0.97-0.85-0.45-2.26-1.41-1.41c-2.36,2.08-2.95,5.55-1.58,8.34
				c0.52-0.4,1.05-0.81,1.57-1.21c-1.79-1.93-4.45-4.01-7.11-2.34c-2.53,1.59-2.6,4.92-1.08,7.23c0.46-0.46,0.91-0.91,1.37-1.37
				c-1.38-0.86-3.25-0.63-4.25,0.7c-1.05,1.41-0.74,3.32,0.59,4.42c2.62,2.17,6.61,0.98,8.41-1.63c-0.62-0.17-1.24-0.34-1.86-0.5
				c0.32,2.87,3.42,4.01,5.84,4.71c2.36,0.68,5.91,1.51,7.81-0.57c0.47-0.52,0.32-1.18-0.2-1.57c-4.88-3.64-7.46-10.09-6.45-16.1
				C35.38,49.9,33.45,49.36,33.24,50.63L33.24,50.63z"/>
		</g>
	</g>
	<g class="st3">
		<path d="M50.95,24.01c-1.15,5.66,0.68,11.83,4.72,15.95c-2.32,0.55-4.72,0.97-7.08,0.66c-2.36-0.31-4.72-1.45-6-3.47
			c-0.64,1.45-2.43,2.22-3.95,1.82c-1.53-0.4-2.67-1.87-2.83-3.44c-0.04-0.42-0.02-0.86,0.15-1.25c0.38-0.89,1.47-1.33,2.43-1.21
			c0.96,0.12,1.81,0.69,2.53,1.35c-0.58-1.3-0.53-2.87,0.14-4.12c0.46-0.86,1.22-1.59,2.17-1.83c2.02-0.51,3.83,1.26,5.16,2.86
			c-0.85-2.17-0.23-4.83,1.48-6.41"/>
		<g>
			<path d="M49.99,23.74c-1.18,6.08,0.67,12.45,4.98,16.92c0.15-0.56,0.29-1.11,0.44-1.67c-3.95,0.92-9.33,1.58-11.95-2.34
				c-0.39-0.58-1.37-0.72-1.73,0c-0.9,1.81-3.29,1.84-4.4,0.2c-0.46-0.67-0.91-1.99-0.09-2.56c1-0.69,2.24,0.18,2.98,0.84
				c0.67,0.59,2.08,0.03,1.67-0.97c-0.64-1.58-0.41-4.23,1.61-4.72c1.71-0.41,3.23,1.47,4.19,2.61c0.64,0.75,2-0.05,1.67-0.97
				c-0.69-1.93-0.25-4,1.22-5.43c0.92-0.9-0.49-2.31-1.41-1.41c-1.95,1.9-2.66,4.81-1.74,7.38c0.56-0.32,1.11-0.65,1.67-0.97
				c-1.6-1.9-3.99-4.05-6.65-2.94c-2.65,1.11-3.5,4.49-2.49,6.99c0.56-0.32,1.11-0.65,1.67-0.97c-1.41-1.24-3.33-2.22-5.17-1.28
				c-1.78,0.9-1.97,2.99-1.24,4.68c1.47,3.41,6.48,4.1,8.24,0.54c-0.58,0-1.15,0-1.73,0c3.19,4.77,9.27,4.41,14.21,3.26
				c0.75-0.17,0.94-1.15,0.44-1.67c-3.79-3.93-5.5-9.61-4.46-14.98C52.16,23.01,50.24,22.48,49.99,23.74L49.99,23.74z"/>
		</g>
	</g>
	<g class="st3">
		<path d="M110.66,26.85c1.3,3.01,2.59,6.02,3.89,9.03c0.91,2.1,1.82,4.23,3.19,6.06c2.08,2.8,5.06,4.76,7.98,6.66
			c-2.95-0.14-5.83-1.57-7.72-3.84c-0.51,1.12-1.83,1.58-3.02,1.84c-1.7,0.38-3.44,0.6-5.18,0.67c-1.4,0.05-2.85-0.01-4.13-0.58
			c-1.28-0.56-2.38-1.73-2.52-3.12c-1.52,1.75-4.01,2.61-6.29,2.15s-4.25-2.2-4.98-4.4c-0.11-0.34-0.2-0.7-0.14-1.06
			c0.06-0.37,0.26-0.69,0.5-0.98c1.7-2.06,5.29-2.11,7.04-0.09c-0.19-2.19,0.3-4.43,1.4-6.34c0.52-0.9,1.24-1.78,2.25-2.04
			c1.05-0.28,2.19,0.2,2.98,0.94s1.31,1.73,1.81,2.7c-0.23-1.54-0.38-3.12-0.07-4.65c0.31-1.53,1.15-3.01,2.49-3.79"/>
		<g>
			<path d="M109.79,27.35c1.04,2.41,2.08,4.82,3.11,7.22c0.91,2.11,1.76,4.27,2.91,6.26c2.22,3.8,5.78,6.27,9.39,8.63
				c0.17-0.62,0.34-1.24,0.5-1.86c-2.76-0.18-5.21-1.47-7.01-3.55c-0.42-0.48-1.28-0.33-1.57,0.2c-0.53,0.97-1.65,1.22-2.66,1.43
				c-1.46,0.32-2.95,0.51-4.44,0.57c-2.29,0.1-5.48-0.14-5.92-2.95c-0.12-0.75-1.2-0.96-1.67-0.44c-2.36,2.56-6.43,2.65-8.67-0.14
				c-0.41-0.51-1-1.34-1.03-2.01c-0.03-0.95,1.07-1.57,1.85-1.82c1.42-0.45,2.96-0.07,3.98,1.01c0.57,0.61,1.77,0.16,1.71-0.71
				c-0.15-2.25,0.29-4.81,1.78-6.59c1.96-2.35,3.92,0.68,4.79,2.36c0.57,1.09,1.98,0.26,1.83-0.77c-0.37-2.53-0.48-5.75,1.97-7.31
				c1.08-0.69,0.08-2.42-1.01-1.73c-3.31,2.11-3.39,6.07-2.88,9.57c0.61-0.26,1.22-0.51,1.83-0.77c-1.28-2.46-3.86-5.57-6.93-3.65
				c-2.73,1.71-3.57,5.93-3.37,8.89c0.57-0.24,1.14-0.47,1.71-0.71c-1.57-1.67-4.07-2.2-6.22-1.42c-1.04,0.38-2.02,1.07-2.61,2.02
				c-0.68,1.1-0.4,2.3,0.12,3.39c2.33,4.91,8.96,5.74,12.59,1.8c-0.56-0.15-1.11-0.29-1.67-0.44c0.56,3.52,4.35,4.51,7.4,4.44
				c1.94-0.05,3.93-0.29,5.82-0.75c1.4-0.34,2.74-0.95,3.46-2.26c-0.52,0.07-1.05,0.13-1.57,0.2c2.15,2.49,5.16,3.92,8.42,4.14
				c1.05,0.07,1.28-1.36,0.5-1.86c-3.61-2.36-7.02-4.77-9.09-8.66c-2.17-4.07-3.79-8.5-5.61-12.73
				C111.01,25.16,109.29,26.18,109.79,27.35L109.79,27.35z"/>
		</g>
	</g>
	<g class="st3">
		<path d="M107.03,73.96c-6.69,2.44-10.53,10.01-10.31,17.13c0.22,7.12,3.76,13.75,8.1,19.39c-2.21-0.37-4.21-1.59-5.84-3.13
			c-3.76-3.56-5.63-8.88-5.48-14.05c0.15-5.18,2.21-10.19,5.31-14.34"/>
		<g>
			<path d="M106.77,72.99c-6.54,2.48-10.38,9.04-10.97,15.81c-0.72,8.14,3.38,15.92,8.17,22.18c0.38-0.49,0.75-0.98,1.13-1.47
				c-5.91-1.13-9.54-7.25-10.39-12.8c-0.94-6.18,1.35-12.33,4.98-17.26c0.76-1.04-0.97-2.04-1.73-1.01
				c-4.04,5.49-6.32,12.36-5.12,19.19c1.07,6.06,5.3,12.59,11.72,13.82c0.75,0.14,1.71-0.71,1.13-1.47
				c-4.39-5.75-8.22-12.66-7.97-20.11c0.21-6.16,3.58-12.67,9.57-14.94C108.49,74.47,107.97,72.53,106.77,72.99L106.77,72.99z"/>
		</g>
	</g>
	<g class="st3">
		<path d="M100.73,110.05c-8.02,6.31-13.59,15.66-15.32,25.72c-3.02-2.75-5.61-5.96-7.67-9.48c-0.32-0.55-0.65-1.17-0.56-1.8
			c0.09-0.71,0.67-1.25,1.24-1.69c1.92-1.48,4.16-2.48,6.34-3.53c4.93-2.39,9.67-5.15,14.19-8.24"/>
		<g>
			<path d="M100.02,109.34c-8.15,6.48-13.76,15.91-15.58,26.16c0.56-0.15,1.11-0.29,1.67-0.44c-2.3-2.12-4.37-4.47-6.12-7.06
				c-0.73-1.07-2.49-3-1.29-4.15c1.07-1.03,2.55-1.75,3.86-2.41c5.8-2.96,11.49-5.88,16.89-9.56c1.06-0.72,0.06-2.46-1.01-1.73
				c-3.17,2.16-6.43,4.17-9.81,6c-3.18,1.72-6.65,3.05-9.68,5.04c-1.12,0.73-2.47,1.62-2.74,3.03c-0.28,1.47,0.83,2.9,1.58,4.07
				c1.94,3.02,4.28,5.76,6.91,8.19c0.51,0.47,1.53,0.34,1.67-0.44c1.77-9.96,7.15-18.98,15.06-25.27
				C102.44,109.96,101.02,108.55,100.02,109.34L100.02,109.34z"/>
		</g>
	</g>
	<g class="st3">
		<g>
			<path d="M44.04,139.93c1.29,0,1.29-2,0-2C42.75,137.93,42.75,139.93,44.04,139.93L44.04,139.93z"/>
		</g>
	</g>
	<g class="st3">
		<path d="M43.31,139.12c0.95,1.11,2.55,1.34,4,1.5c-1.49,0.32-2.99,0.64-4.48,0.95c-0.49,0.1-1.08,0.18-1.43-0.18
			c-0.36-0.37-0.23-1.02,0.14-1.39c0.36-0.36,0.88-0.51,1.38-0.65"/>
		<g>
			<path d="M42.6,139.83c1.19,1.34,3.03,1.61,4.71,1.79c-0.09-0.65-0.18-1.31-0.27-1.96c-1.53,0.33-3.07,0.68-4.61,0.98
				c-0.05,0.01-0.25,0.03-0.03,0.01c-0.07,0.01-0.14,0.01-0.22,0.01c-0.06,0-0.24-0.03-0.03,0.02c-0.03-0.01-0.24-0.08-0.11-0.02
				c0.06,0.03,0.06,0.03,0.01,0c-0.06-0.04-0.05-0.03,0.04,0.03c0.03,0.04,0.1,0.24,0.08,0.14c-0.02-0.12-0.03,0.22,0-0.01
				c0.03-0.2-0.03,0.11,0.01-0.01c0.04-0.15-0.09,0.22,0.01-0.03c0.06-0.15-0.05,0.02,0.01-0.03c0.06-0.05,0.14-0.13,0.03-0.05
				c0.06-0.04,0.13-0.08,0.19-0.12c0.06-0.04,0.18-0.09,0.05-0.03c0.07-0.03,0.14-0.05,0.21-0.08c0.16-0.05,0.32-0.1,0.48-0.14
				c0.5-0.14,0.86-0.72,0.7-1.23c-0.17-0.52-0.69-0.85-1.23-0.7c-0.89,0.25-1.84,0.62-2.25,1.52c-0.48,1.06-0.06,2.42,1.19,2.68
				c0.96,0.2,2-0.17,2.94-0.36c1.02-0.22,2.03-0.43,3.05-0.65c0.49-0.1,0.78-0.63,0.72-1.1c-0.07-0.53-0.48-0.81-0.98-0.87
				c-0.18-0.02-0.35-0.04-0.53-0.06c0.23,0.03-0.06-0.01-0.09-0.01c-0.09-0.01-0.18-0.03-0.27-0.04c-0.34-0.06-0.67-0.13-1-0.23
				c-0.15-0.05-0.3-0.1-0.45-0.16c0.21,0.08-0.05-0.03-0.08-0.04c-0.08-0.04-0.15-0.08-0.23-0.12c-0.07-0.04-0.15-0.09-0.22-0.13
				c-0.04-0.03-0.23-0.19-0.07-0.05c-0.13-0.11-0.25-0.23-0.37-0.36c-0.35-0.39-1.06-0.38-1.41,0
				C42.21,138.83,42.23,139.41,42.6,139.83L42.6,139.83z"/>
		</g>
	</g>
	<g class="st3">
		<path d="M38.19,122.15c0.57,2.88,2.02,5.58,4.11,7.65c-1.66-0.13-2.97-1.4-4.12-2.59c-0.64-0.66-1.3-1.36-1.62-2.22
			c-0.32-0.87-0.21-1.97,0.52-2.54"/>
		<g>
			<path d="M37.22,122.42c0.62,3.05,2.17,5.89,4.37,8.09c0.24-0.57,0.47-1.14,0.71-1.71c-0.22-0.02-0.65-0.14-0.87-0.24
				c-0.36-0.16-0.71-0.39-1.03-0.63c-0.59-0.45-1.17-1.06-1.7-1.61c-0.49-0.51-1.04-1.08-1.24-1.75c-0.03-0.09-0.05-0.17-0.07-0.26
				c-0.07-0.31,0,0.07-0.01-0.11c0-0.09,0-0.18,0-0.27c0-0.3-0.02,0.06,0.01-0.11c0.02-0.09,0.04-0.17,0.07-0.26
				c0.01-0.03,0.02-0.07,0.03-0.1c-0.02,0.06-0.02,0.06,0.01,0c0.02-0.04,0.12-0.2,0.05-0.1c0.06-0.08,0.15-0.15,0.23-0.22
				c0.41-0.35,0.36-1.05,0-1.41c-0.41-0.41-1-0.35-1.41,0c-0.85,0.73-1.08,1.88-0.92,2.94c0.17,1.08,0.86,2,1.59,2.78
				c1.44,1.56,3.05,3.14,5.27,3.34c0.89,0.08,1.28-1.13,0.71-1.71c-1.98-1.98-3.29-4.47-3.85-7.21c-0.11-0.53-0.73-0.83-1.23-0.7
				C37.37,121.34,37.11,121.88,37.22,122.42L37.22,122.42z"/>
		</g>
	</g>
</g>
<g id="Ebene_8">
	<g class="st3">
		<g>
			<path class="st0" d="M119.07,36.75c2.72,0.62,6.16,1.57,7.31,4.34c0.21,0.5,0.66,0.85,1.23,0.7c0.47-0.13,0.91-0.73,0.7-1.23
				c-0.68-1.64-1.87-2.92-3.38-3.83c-1.62-0.99-3.49-1.49-5.33-1.91c-0.53-0.12-1.08,0.16-1.23,0.7
				C118.23,36.02,118.54,36.63,119.07,36.75L119.07,36.75z"/>
		</g>
	</g>
	<g class="st3">
		<g>
			<path class="st0" d="M56.62,32.32c-0.17-0.02,0.05,0.01,0.08,0.01c0.08,0.01,0.16,0.03,0.24,0.04c0.16,0.03,0.32,0.07,0.48,0.11
				c0.32,0.08,0.63,0.18,0.94,0.3c0.02,0.01,0.25,0.1,0.16,0.06c-0.09-0.04,0.16,0.07,0.15,0.07c0.15,0.07,0.3,0.14,0.44,0.22
				c0.29,0.15,0.58,0.33,0.85,0.51c0.05,0.04,0.11,0.07,0.16,0.11c0,0,0.25,0.18,0.12,0.08c0.13,0.1,0.26,0.21,0.38,0.32
				c0.24,0.21,0.46,0.43,0.67,0.66c0.11,0.12,0.22,0.25,0.33,0.37c0.03,0.04,0.14,0.18,0.06,0.07c0.05,0.07,0.1,0.13,0.15,0.2
				c0.2,0.28,0.38,0.58,0.55,0.88c0.26,0.47,0.91,0.63,1.37,0.36c0.48-0.28,0.62-0.89,0.36-1.37c-1.52-2.79-4.36-4.62-7.49-5
				c-0.52-0.06-1.02,0.51-1,1C55.65,31.92,56.06,32.26,56.62,32.32L56.62,32.32z"/>
		</g>
	</g>
	<g class="st3">
		<g>
			<path class="st0" d="M40.8,58.25c0.43,0.22,0.84,0.46,1.23,0.74c0.1,0.07,0.19,0.16,0.3,0.22c-0.09-0.05-0.13-0.1-0.02-0.01
				c0.04,0.03,0.09,0.07,0.13,0.11c0.19,0.16,0.37,0.32,0.55,0.49c0.17,0.16,0.33,0.33,0.49,0.5c0.08,0.09,0.16,0.18,0.24,0.28
				c0.06,0.08,0.17,0.17,0.21,0.26c-0.08-0.11-0.1-0.13-0.05-0.07c0.02,0.03,0.04,0.05,0.06,0.08c0.03,0.04,0.07,0.09,0.1,0.14
				c0.07,0.1,0.14,0.2,0.21,0.3c0.14,0.2,0.26,0.41,0.38,0.63c0.26,0.46,0.92,0.65,1.37,0.36c0.46-0.3,0.63-0.88,0.36-1.37
				c-1.04-1.86-2.65-3.41-4.55-4.37c-0.47-0.24-1.11-0.14-1.37,0.36C40.2,57.33,40.3,57.99,40.8,58.25L40.8,58.25z"/>
		</g>
	</g>
	<g class="st3">
		<g>
			<path class="st0" d="M78.74,56.24c0.28,0.16,0.56,0.34,0.81,0.54c-0.07-0.05-0.13-0.1-0.2-0.16c0.43,0.33,0.81,0.72,1.15,1.15
				c-0.05-0.07-0.1-0.13-0.16-0.2c0.08,0.1,0.16,0.21,0.23,0.32c0.15,0.22,0.34,0.39,0.6,0.46c0.24,0.07,0.56,0.04,0.77-0.1
				c0.21-0.14,0.4-0.34,0.46-0.6c0.06-0.25,0.05-0.55-0.1-0.77c-0.66-0.97-1.52-1.79-2.55-2.36c-0.23-0.13-0.52-0.17-0.77-0.1
				c-0.23,0.06-0.48,0.24-0.6,0.46C78.13,55.35,78.25,55.97,78.74,56.24L78.74,56.24z"/>
		</g>
	</g>
	<g class="st3">
		<g>
			<path class="st0" d="M131.29,102.67c-0.63,0.99-1.2,2.01-1.68,3.08c-0.11,0.25-0.18,0.49-0.1,0.77c0.06,0.23,0.24,0.48,0.46,0.6
				c0.23,0.12,0.51,0.18,0.77,0.1c0.23-0.08,0.49-0.23,0.6-0.46c0.49-1.07,1.05-2.1,1.68-3.08c0.28-0.44,0.1-1.12-0.36-1.37
				C132.17,102.05,131.6,102.2,131.29,102.67L131.29,102.67z"/>
		</g>
	</g>
</g>
</svg>
